<?xml version="1.0" encoding="UTF-8" standalone="no"?>
<svg xmlns:xlink="http://www.w3.org/1999/xlink" height="23.15px" width="64.45px" xmlns="http://www.w3.org/2000/svg">
  <g id="shape0" transform="matrix(1.0, 0.0, 0.0, 1.0, 25.45, 12.05)">
    <path d="M8.4 -1.75 Q8.25 0.25 7.6 2.3 L6.45 4.9 5.2 6.45 4.7 7.0 4.25 7.35 3.2 8.15 3.2 8.35 3.4 8.4 4.45 7.95 4.65 7.85 6.05 7.05 6.1 7.0 Q7.25 7.65 7.25 8.15 7.25 8.55 6.25 9.25 5.45 9.8 4.55 10.0 L3.3 10.1 -0.6 9.7 -1.45 9.15 -1.45 9.1 -1.0 9.15 -0.5 9.2 0.55 9.1 1.5 8.8 1.3 8.8 1.0 8.75 0.95 8.75 0.9 8.8 0.6 8.9 -0.3 8.95 -2.15 8.7 -1.95 8.4 -1.05 7.55 1.6 5.95 4.5 3.85 5.55 2.9 7.4 -0.05 8.4 -1.75" fill="#e0cbcb" fill-rule="evenodd" stroke="none"/>
    <path d="M-4.5 7.75 L-4.1 7.55 Q-3.4 6.55 -2.1 5.85 L1.75 3.7 3.4 2.65 5.95 0.55 8.4 -1.9 8.4 -1.75 7.4 -0.05 5.55 2.9 4.5 3.85 1.6 5.95 -1.05 7.55 -1.95 8.4 -2.15 8.7 -2.35 8.65 -2.65 8.55 -3.0 8.5 -3.75 8.4 -3.9 8.35 -3.95 8.35 -4.15 8.2 -4.5 7.75" fill="#ffffff" fill-rule="evenodd" stroke="none"/>
    <path d="M-4.5 7.75 Q-4.8 7.65 -4.7 7.3 L-4.35 6.6 Q-3.35 5.75 -2.2 5.05 L0.05 3.6 1.85 2.45 3.35 1.4 Q6.25 -1.3 8.9 -4.35 L9.05 -4.5 9.4 -1.8 8.9 1.9 Q8.2 4.95 6.1 7.0 L6.05 7.05 4.65 7.85 4.45 7.95 3.4 8.4 3.2 8.35 3.2 8.15 4.25 7.35 4.7 7.0 5.2 6.45 6.45 4.9 7.6 2.3 Q8.25 0.25 8.4 -1.75 L8.4 -1.9 5.95 0.55 3.4 2.65 1.75 3.7 -2.1 5.85 Q-3.4 6.55 -4.1 7.55 L-4.5 7.75 M-1.0 9.15 L-2.35 8.9 -3.9 8.4 -3.95 8.4 -4.0 8.35 -3.95 8.35 -3.9 8.35 -3.75 8.4 -3.0 8.5 -2.65 8.55 -2.35 8.65 -2.15 8.7 -0.3 8.95 0.6 8.9 0.9 8.8 0.95 8.75 1.0 8.75 1.3 8.8 1.5 8.8 0.55 9.1 -0.5 9.2 -1.0 9.15" fill="#a36a6a" fill-rule="evenodd" stroke="none"/>
    <path d="M-22.6 5.9 L-24.0 5.0 Q-25.25 1.3 -23.15 -2.1 L-21.75 -4.65 -20.8 -5.35 -20.55 -5.35 -20.5 -5.2 Q-21.15 -2.6 -20.2 0.05 -19.2 2.7 -17.15 4.8 L-17.05 5.0 -17.45 5.5 -17.5 5.4 Q-19.55 3.55 -20.8 1.1 L-21.5 -3.15 Q-23.35 -0.65 -23.6 2.3 -23.7 3.5 -23.1 4.9 L-20.55 6.0 -20.55 6.05 Q-21.4 6.8 -22.6 5.9" fill="#a36a6a" fill-rule="evenodd" stroke="none"/>
    <path d="M-22.6 5.9 Q-21.4 6.8 -20.55 6.05 L-20.55 6.0 -23.1 4.9 Q-23.7 3.5 -23.6 2.3 -23.35 -0.65 -21.5 -3.15 L-20.8 1.1 -21.6 1.05 Q-22.1 1.35 -22.1 2.1 -22.1 2.75 -21.2 3.9 -19.8 5.55 -17.65 5.55 L-17.5 5.5 -17.45 5.5 -17.05 5.0 -16.7 5.15 -16.45 5.35 -16.4 5.4 -16.4 5.55 -16.1 6.0 -15.85 6.1 -15.9 6.1 -15.85 6.15 -15.8 6.15 -15.8 6.3 -16.7 6.95 -18.55 7.35 Q-20.65 7.6 -21.8 6.8 L-22.3 6.4 -22.6 5.9" fill="#e0cbcb" fill-rule="evenodd" stroke="none"/>
    <path d="M-20.8 1.1 Q-19.55 3.55 -17.5 5.4 L-17.45 5.5 -17.5 5.5 -17.65 5.55 Q-19.8 5.55 -21.2 3.9 -22.1 2.75 -22.1 2.1 -22.1 1.35 -21.6 1.05 L-20.8 1.1" fill="#ffffff" fill-rule="evenodd" stroke="none"/>
    <path d="M0.7 -3.05 L0.7 -3.0 0.55 -2.45 0.7 -3.05 M-1.1 -0.7 L-1.5 -0.45 Q-2.1 -0.1 -2.75 0.2 L-4.25 0.75 -4.4 0.85 -4.5 0.85 -2.1 -1.0 -0.3 -3.1 -0.45 -2.4 -0.5 -2.05 -1.15 -0.8 -1.1 -0.7" fill="#e0cbcb" fill-rule="evenodd" stroke="none"/>
    <path d="M-5.75 0.3 L-6.0 0.1 -3.85 -2.5 -0.35 -6.9 0.85 -8.75 Q0.75 -8.25 1.1 -7.5 L1.05 -5.45 0.85 -3.65 0.85 -3.6 0.7 -3.05 0.55 -2.45 0.35 -2.0 0.3 -1.75 -1.1 -0.7 -1.15 -0.8 -0.5 -2.05 -0.45 -2.4 -0.3 -3.1 -0.2 -3.65 0.1 -5.4 -0.15 -6.5 Q-2.05 -3.0 -4.8 -0.5 L-5.25 -0.2 -5.7 0.2 -5.75 0.3" fill="#a36a6a" fill-rule="evenodd" stroke="none"/>
    <path d="M-4.5 0.85 L-5.65 0.5 -5.7 0.45 -5.7 0.4 -5.75 0.35 -5.75 0.3 -5.7 0.2 -5.25 -0.2 -4.8 -0.5 Q-2.05 -3.0 -0.15 -6.5 L0.1 -5.4 -0.2 -3.65 -0.3 -3.1 -2.1 -1.0 -4.5 0.85" fill="#ffffff" fill-rule="evenodd" stroke="none"/>
    <path d="M14.5 -3.8 L13.65 -3.75 15.35 -6.45 15.95 -7.55 17.0 -9.15 18.55 -11.05 18.65 -9.1 18.65 -8.05 18.9 -5.7 18.5 -3.85 18.2 -3.9 18.2 -4.3 18.0 -5.0 17.9 -6.6 17.75 -8.1 15.25 -4.75 14.5 -3.8" fill="#a36a6a" fill-rule="evenodd" stroke="none"/>
    <path d="M14.5 -3.8 L15.25 -4.75 17.75 -8.1 17.9 -6.6 16.65 -3.9 15.6 -3.9 15.2 -3.9 14.5 -3.8" fill="#ffffff" fill-rule="evenodd" stroke="none"/>
    <path d="M17.9 -6.6 L18.0 -5.0 18.2 -4.3 18.2 -3.9 16.65 -3.9 17.9 -6.6" fill="#e0cbcb" fill-rule="evenodd" stroke="none"/>
    <path d="M25.8 0.2 L25.8 0.15 25.65 -1.3 25.65 -1.45 24.85 -0.15 24.05 0.9 Q21.8 3.8 18.55 5.3 18.25 5.4 18.1 5.55 L17.25 5.75 15.85 6.3 16.7 5.65 Q16.7 5.3 17.1 5.3 L17.15 5.3 17.2 5.25 17.9 4.7 19.8 3.2 21.55 1.7 23.3 -0.05 24.1 -1.0 26.55 -4.75 26.95 -2.05 Q27.25 -0.9 27.0 -0.05 L26.95 0.4 26.8 2.25 26.3 4.6 25.8 5.65 25.2 6.15 25.25 5.6 25.3 5.4 25.3 5.15 25.45 4.9 25.5 4.65 25.6 4.35 25.75 3.55 25.8 0.2 M18.35 7.05 L18.6 6.95 18.65 7.0 19.4 7.25 20.35 7.4 21.35 7.45 22.45 6.9 22.55 7.1 22.5 7.15 21.35 8.0 21.25 8.0 21.15 8.0 21.05 8.05 20.9 8.0 20.3 7.95 19.75 7.8 18.3 7.15 18.3 7.05 18.35 7.05" fill="#a36a6a" fill-rule="evenodd" stroke="none"/>
    <path d="M17.25 5.75 L18.1 5.55 Q18.25 5.4 18.55 5.3 21.8 3.8 24.05 0.9 L24.85 -0.15 25.65 -1.45 25.65 -1.3 25.8 0.15 25.8 0.2 24.2 2.9 Q22.2 6.15 20.35 7.4 L19.4 7.25 18.65 7.0 18.6 6.95 18.35 7.05 18.1 6.95 16.8 6.0 17.25 5.75" fill="#ffffff" fill-rule="evenodd" stroke="none"/>
    <path d="M25.8 0.2 L25.75 3.55 25.6 4.35 25.5 4.65 25.45 4.9 25.3 5.15 25.3 5.4 25.25 5.6 25.2 6.15 25.8 5.65 Q26.55 6.05 26.55 6.45 26.55 7.1 25.05 7.9 23.25 8.95 20.9 8.9 L19.6 8.65 18.9 8.0 19.1 7.6 19.75 7.8 20.3 7.95 20.9 8.0 21.05 8.05 21.15 8.0 21.25 8.0 21.35 8.0 22.5 7.15 22.55 7.1 22.45 6.9 21.35 7.45 20.35 7.4 Q22.2 6.15 24.2 2.9 L25.8 0.2" fill="#e0cbcb" fill-rule="evenodd" stroke="none"/>
    <path d="M36.95 -1.75 L36.7 -3.35 Q34.5 -0.25 32.8 1.7 L32.65 2.05 32.25 2.4 32.25 2.45 32.0 2.6 31.8 2.85 31.45 2.75 31.95 2.0 32.05 1.85 32.0 1.8 34.85 -2.75 Q36.35 -5.4 37.6 -6.55 L37.7 -3.3 38.0 -0.7 37.35 1.8 37.1 1.75 37.25 1.15 37.25 0.75 37.05 0.0 36.95 -1.75 M36.4 2.3 L36.5 2.3 Q36.3 2.65 35.5 2.85 L34.75 3.0 34.5 2.95 34.45 2.9 35.45 2.5 35.8 2.4 36.4 2.3" fill="#a36a6a" fill-rule="evenodd" stroke="none"/>
    <path d="M32.25 2.45 L32.25 2.4 32.65 2.05 32.8 1.7 Q34.5 -0.25 36.7 -3.35 L36.95 -1.75 Q35.1 3.0 33.3 3.1 L33.15 3.1 33.05 3.1 Q32.6 3.05 32.3 2.6 L32.25 2.45" fill="#ffffff" fill-rule="evenodd" stroke="none"/>
    <path d="M36.95 -1.75 L37.05 0.0 37.25 0.75 37.25 1.15 37.1 1.75 36.4 2.3 35.8 2.4 35.45 2.5 34.45 2.9 34.5 2.95 33.3 3.1 Q35.1 3.0 36.95 -1.75 M32.0 1.8 L32.05 1.85 31.95 2.0 31.95 1.85 32.0 1.8 M32.0 2.6 L32.25 2.45 32.3 2.6 Q32.6 3.05 33.05 3.1 L32.25 2.85 32.0 2.6" fill="#e0cbcb" fill-rule="evenodd" stroke="none"/>
  </g>
</svg>