<?xml version="1.0" encoding="UTF-8" standalone="no"?>
<svg xmlns:xlink="http://www.w3.org/1999/xlink" height="34.4px" width="80px" xmlns="http://www.w3.org/2000/svg">
  <g transform="matrix(1.0, 0.0, 0.0, 1.0, 39.8, 16.7)">
    <path d="M13.35 -8.3 L11.25 -7.7 10.3 -7.7 12.0 -1.15 15.3 -2.7 13.45 -13.85 18.4 -14.2 M38.7 6.25 L34.85 2.05 30.25 2.3 28.1 5.1 30.85 8.65 27.4 11.8 M28.1 5.1 L25.9 7.45 M15.2 10.4 Q12.5 10.4 10.6 9.25 8.65 8.1 8.65 6.45 L8.15 6.1 3.4 7.05 5.8 9.6 2.0 14.15 2.4 16.2 M8.65 6.45 L9.4 0.1 12.0 -1.15 M34.85 2.05 L35.45 -3.1 M-24.5 -7.95 L-21.05 -6.75 -18.55 -7.7 -18.2 -9.7 -21.7 -10.0 M-19.05 2.7 L-21.45 -2.5 -19.2 -4.05 M-15.75 -4.05 L-18.8 -4.1 -18.55 -7.7 M-33.0 9.85 L-35.0 7.35 -37.9 8.9 M-4.05 5.0 L-3.1 7.5 3.4 7.05" fill="none" stroke="#ffffff" stroke-linecap="round" stroke-linejoin="round" stroke-width="1.0"/>
    <path d="M-4.45 4.0 L-3.5 6.5 3.0 6.05 7.75 5.1 8.25 5.45 9.0 -0.9 11.6 -2.15 9.9 -8.7 10.85 -8.7 12.95 -9.3 M11.6 -2.15 L14.9 -3.7 13.05 -14.85 18.0 -15.2 M-16.15 -5.05 L-19.2 -5.1 -18.95 -8.7 -21.45 -7.75 -24.9 -8.95 M-18.95 -8.7 L-18.6 -10.7 -22.1 -11.0 M-19.45 1.7 L-21.85 -3.5 -19.6 -5.05 M-33.4 8.85 L-35.4 6.35 -38.3 7.9 M38.3 5.25 L34.45 1.05 29.85 1.3 27.7 4.1 30.45 7.65 27.0 10.8 M27.7 4.1 L25.5 6.45 M3.0 6.05 L5.4 8.6 1.6 13.15 2.0 15.2 M14.8 9.4 Q12.1 9.4 10.2 8.25 8.25 7.1 8.25 5.45 M34.45 1.05 L35.05 -4.1" fill="none" stroke="#000000" stroke-linecap="round" stroke-linejoin="round" stroke-width="1.0"/>
  </g>
</svg>