<?xml version="1.0" encoding="UTF-8" standalone="no"?>
<svg xmlns:xlink="http://www.w3.org/1999/xlink" height="50.45px" width="81.9px" xmlns="http://www.w3.org/2000/svg">
  <g transform="matrix(1.0, 0.0, 0.0, 1.0, 43.35, 22.55)">
    <path d="M-39.6 10.5 Q-38.6 14.05 -36.0 17.7 L-35.1 18.85 -35.25 18.95 -35.3 18.95 -35.45 18.95 -35.5 18.9 -37.7 16.65 -37.8 16.5 -37.85 16.45 Q-38.9 14.35 -39.9 10.65 L-39.9 10.25 -39.75 9.7 -39.65 10.15 -39.6 10.5 M-41.4 8.6 Q-40.7 13.95 -37.25 18.15 L-36.5 19.1 -38.0 18.25 Q-44.1 11.65 -41.6 1.45 -39.15 -8.8 -27.05 -14.4 -14.95 -20.0 -2.75 -21.3 9.4 -22.6 20.75 -17.7 32.1 -12.8 36.3 -1.1 40.7 11.25 29.75 19.1 19.15 26.7 6.4 26.8 L5.3 26.25 Q18.55 24.95 28.3 18.1 38.0 11.2 35.05 0.0 32.1 -11.25 20.3 -16.55 12.45 -20.1 3.85 -19.95 L-8.1 -18.65 Q-19.65 -16.5 -29.95 -10.9 -41.8 -4.45 -41.4 8.6 M23.35 14.85 L23.4 15.05 Q18.6 19.9 16.55 19.9 L16.15 19.85 16.1 19.65 20.0 17.15 21.7 15.75 Q22.45 15.05 23.35 14.85 M25.25 17.25 Q27.3 15.75 30.05 12.7 29.2 17.4 17.85 21.95 L17.45 21.85 Q17.95 21.0 20.95 19.5 L25.25 17.25 M16.15 17.3 L12.95 19.35 12.75 19.3 12.65 19.1 15.85 17.05 16.15 17.3 M-34.55 18.05 Q-35.7 17.95 -36.85 14.45 -36.9 13.95 -36.6 13.8 L-34.3 17.85 -34.55 18.05" fill="#a36a6a" fill-rule="evenodd" stroke="none"/>
    <path d="M-39.6 10.5 Q-36.2 13.1 -29.3 13.0 -12.25 12.6 -1.15 3.25 5.35 -2.25 7.25 -5.0 8.35 -6.85 8.65 -8.95 L8.7 -11.25 Q8.3 -16.9 3.85 -19.95 12.45 -20.1 20.3 -16.55 32.1 -11.25 35.05 0.0 38.0 11.2 28.3 18.1 18.55 24.95 5.3 26.25 L6.4 26.8 -12.35 26.2 -19.3 25.25 Q-25.25 24.15 -30.55 22.3 -36.55 20.15 -38.0 18.25 L-36.5 19.1 -37.25 18.15 Q-40.7 13.95 -41.4 8.6 L-39.9 10.25 -39.9 10.65 Q-38.9 14.35 -37.85 16.45 L-37.7 16.65 -35.5 18.9 -35.45 18.95 -35.3 18.95 -35.25 18.95 -35.1 18.85 -36.0 17.7 Q-38.6 14.05 -39.6 10.5 M16.15 17.3 L15.85 17.05 12.65 19.1 12.75 19.3 12.95 19.35 16.15 17.3 M25.25 17.25 L20.95 19.5 Q17.95 21.0 17.45 21.85 L17.85 21.95 Q29.2 17.4 30.05 12.7 27.3 15.75 25.25 17.25 M23.35 14.85 Q22.45 15.05 21.7 15.75 L20.0 17.15 16.1 19.65 16.15 19.85 16.55 19.9 Q18.6 19.9 23.4 15.05 L23.35 14.85 M-34.55 18.05 L-34.3 17.85 -36.6 13.8 Q-36.9 13.95 -36.85 14.45 -35.7 17.95 -34.55 18.05" fill="#e0cbcb" fill-rule="evenodd" stroke="none"/>
    <path d="M3.85 -19.95 Q8.3 -16.9 8.7 -11.25 L8.65 -8.95 Q8.35 -6.85 7.25 -5.0 5.35 -2.25 -1.15 3.25 -12.25 12.6 -29.3 13.0 -36.2 13.1 -39.6 10.5 L-39.65 10.15 -39.75 9.7 -39.9 10.25 -41.4 8.6 Q-41.8 -4.45 -29.95 -10.9 -19.65 -16.5 -8.1 -18.65 L3.85 -19.95" fill="url(#gradient0)" fill-rule="evenodd" stroke="none"/>
  </g>
  <defs>
    <radialGradient cx="0" cy="0" gradientTransform="matrix(0.0287, -0.0173, 0.0108, 0.0179, -14.85, -8.0)" gradientUnits="userSpaceOnUse" id="gradient0" r="819.2" spreadMethod="pad">
      <stop offset="0.47843137254901963" stop-color="#ffffff"></stop>
      <stop offset="0.8823529411764706" stop-color="#f2eaea"></stop>
    </radialGradient>
  </defs>
</svg>