<?xml version="1.0" encoding="UTF-8" standalone="no"?>
<svg xmlns:xlink="http://www.w3.org/1999/xlink" height="25.45px" width="28.45px" xmlns="http://www.w3.org/2000/svg">
  <g transform="matrix(1.0, 0.0, 0.0, 1.0, -5.7, 19.7)">
    <path d="M8.6 -9.6 Q9.9 -9.6 9.9 -8.35 9.9 -6.65 7.7 -6.65 6.6 -6.65 6.7 -7.55 6.7 -9.6 8.6 -9.6 M16.55 -17.25 Q17.35 -17.25 17.65 -15.85 17.65 -12.95 12.25 -9.6 11.6 -9.6 11.15 -10.55 L10.85 -11.5 Q14.65 -17.25 16.55 -17.25" fill="#ffffff" fill-rule="evenodd" stroke="none"/>
    <path d="M33.05 -7.35 Q33.7 -0.55 29.1 4.75 32.65 -7.7 27.15 -18.7 L27.75 -18.35 29.35 -17.25 Q32.35 -14.15 33.05 -7.35" fill="#ffffff" fill-opacity="0.49803922" fill-rule="evenodd" stroke="none"/>
  </g>
</svg>