<?xml version="1.0" encoding="UTF-8" standalone="no"?>
<svg xmlns:xlink="http://www.w3.org/1999/xlink" height="34.3px" width="43.8px" xmlns="http://www.w3.org/2000/svg">
  <g transform="matrix(1.0, 0.0, 0.0, 1.0, 21.55, 16.6)">
    <path d="M20.75 -14.2 L15.8 -13.85 16.4 -6.9 M15.7 -8.3 L13.45 -7.7 M17.55 10.4 L12.35 9.8 10.75 6.35 5.75 7.05 8.15 9.6 4.35 14.15 4.75 16.2 M-19.35 -10.0 L-15.85 -9.5 -16.45 -4.1 -13.4 -4.05 M-1.7 5.0 L-0.75 7.5 5.75 7.05" fill="none" stroke="#ffffff" stroke-linecap="round" stroke-linejoin="round" stroke-width="1.0"/>
    <path d="M15.0 -9.2 L12.75 -8.6 M20.05 -15.1 L15.1 -14.75 15.7 -7.8 M16.85 9.5 L11.65 8.9 10.05 5.45 5.05 6.15 7.45 8.7 3.65 13.25 4.05 15.3 M-20.05 -10.9 L-16.55 -10.4 -17.15 -5.0 -14.1 -4.95 M-2.4 4.1 L-1.45 6.6 5.05 6.15" fill="none" stroke="#000000" stroke-linecap="round" stroke-linejoin="round" stroke-width="1.0"/>
  </g>
</svg>