<?xml version="1.0" encoding="UTF-8" standalone="no"?>
<svg xmlns:xlink="http://www.w3.org/1999/xlink" height="45.2px" width="40.2px" xmlns="http://www.w3.org/2000/svg">
  <g transform="matrix(1.0, 0.0, 0.0, 1.0, 20, 22.65)">
    <path d="M17.55 4.25 L13.0 2.05 10.0 0.5 Q8.3 -0.5 7.4 -2.2 L6.75 -1.4 7.85 -0.05 7.9 0.8 -0.15 -6.8 -1.85 -5.75 3.95 -1.4 Q2.6 -1.6 1.3 -2.5 -1.4 -4.45 -4.2 -6.15 L-8.15 -8.6 Q-9.3 -9.35 -10.35 -10.25 -13.0 -12.5 -15.0 -15.35 L-17.45 -18.75 -16.75 -12.85 -18.4 -15.65 -17.4 -7.6 -15.5 -2.15 -13.2 3.4 Q-11.8 6.4 -9.9 8.95 L-7.7 11.6 -4.65 15.1 -0.15 19.75 -1.1 19.2 -2.1 18.6 -3.85 17.05 -8.3 11.85 Q-13.5 5.75 -16.35 -1.85 L-15.15 2.15 -13.7 6.1 -11.65 10.85 -10.6 12.85 -9.1 15.2 -8.7 15.7 -6.9 17.35 -5.15 18.35 Q-1.55 19.95 2.4 20.7 L0.0 19.5 6.95 20.15 2.5 16.2 2.55 15.75 11.9 19.0 15.55 15.85 15.65 15.8 15.5 15.75 Q12.45 15.65 10.2 13.8 L9.55 13.3 16.2 15.2 14.7 17.2 12.1 19.0 9.2 20.4 8.05 20.95 5.5 21.45 4.2 21.5 Q0.0 21.75 -3.75 20.25 -7.15 18.85 -9.75 16.3 -11.2 14.8 -12.05 13.05 -16.25 4.3 -18.15 -5.05 -19.85 -13.35 -18.2 -21.65 L-16.6 -21.2 Q-14.65 -15.85 -10.75 -11.65 L-10.25 -13.25 -4.85 -7.75 -2.6 -7.2 0.6 -8.5 4.9 -3.25 7.7 -4.15 10.35 -1.65 Q12.55 0.4 15.4 1.5 L16.85 2.3 Q19.1 3.95 19.2 6.8 19.3 9.6 17.85 12.0 L18.35 10.2 17.95 4.7 17.55 4.25 M-9.6 -10.6 L-7.0 -8.8 -9.75 -11.65 -9.6 -10.6" fill="#a36a6a" fill-rule="evenodd" stroke="none"/>
    <path d="M14.7 17.2 L16.2 15.2 16.25 15.25 14.7 17.2 M15.5 15.75 L15.65 15.8 15.55 15.85 15.5 15.75" fill="#ffffcc" fill-rule="evenodd" stroke="none"/>
    <path d="M17.55 4.25 L17.95 4.7 18.35 10.2 18.3 10.35 13.65 9.55 13.3 9.8 Q14.9 11.25 17.95 11.5 L17.4 13.0 15.8 13.3 10.15 13.2 Q6.45 13.1 3.05 11.9 L4.1 13.55 -4.1 10.6 -0.05 17.05 -4.65 15.1 -7.7 11.6 -9.9 8.95 Q-11.8 6.4 -13.2 3.4 L-15.5 -2.15 -17.4 -7.6 -14.45 -3.15 -8.1 2.85 -7.75 2.9 Q-8.7 0.35 -9.5 -1.25 L-9.2 -1.6 Q-6.2 3.0 -4.6 4.7 -2.75 6.65 -0.8 7.4 0.2 8.2 1.25 8.6 2.1 9.1 3.7 9.0 4.35 9.55 5.25 9.75 4.1 8.4 -0.65 3.6 6.0 7.55 7.1 7.45 L4.35 4.85 2.6 3.05 Q10.3 6.85 15.65 5.3 L17.55 4.25" fill="#e0cbcb" fill-rule="evenodd" stroke="none"/>
    <path d="M16.2 15.2 L9.55 13.3 10.2 13.8 Q12.45 15.65 15.5 15.75 L15.55 15.85 11.9 19.0 2.55 15.75 2.5 16.2 6.95 20.15 0.0 19.5 2.4 20.7 Q-1.55 19.95 -5.15 18.35 L-6.9 17.35 -8.7 15.7 -9.1 15.2 -10.6 12.85 -11.65 10.85 -13.7 6.1 -15.15 2.15 -16.35 -1.85 Q-13.5 5.75 -8.3 11.85 L-3.85 17.05 -2.1 18.6 -1.1 19.2 -0.15 19.75 -4.65 15.1 -0.05 17.05 -4.1 10.6 4.1 13.55 3.05 11.9 Q6.45 13.1 10.15 13.2 L15.8 13.3 17.4 13.0 16.25 15.25 16.2 15.2 M17.95 11.5 Q14.9 11.25 13.3 9.8 L13.65 9.55 18.3 10.35 17.95 11.5" fill="#cca9a9" fill-rule="evenodd" stroke="none"/>
    <path d="M-17.4 -7.6 L-18.4 -15.65 -16.75 -12.85 -17.45 -18.75 -15.0 -15.35 Q-13.0 -12.5 -10.35 -10.25 -9.3 -9.35 -8.15 -8.6 L-4.2 -6.15 Q-1.4 -4.45 1.3 -2.5 2.6 -1.6 3.95 -1.4 L-1.85 -5.75 -0.15 -6.8 7.9 0.8 7.85 -0.05 6.75 -1.4 7.4 -2.2 Q8.3 -0.5 10.0 0.5 L13.0 2.05 17.55 4.25 15.65 5.3 Q10.3 6.85 2.6 3.05 L4.35 4.85 7.1 7.45 Q6.0 7.55 -0.65 3.6 4.1 8.4 5.25 9.75 4.35 9.55 3.7 9.0 2.1 9.1 1.25 8.6 0.2 8.2 -0.8 7.4 -2.75 6.65 -4.6 4.7 -6.2 3.0 -9.2 -1.6 L-9.5 -1.25 Q-8.7 0.35 -7.75 2.9 L-8.1 2.85 -14.45 -3.15 -17.4 -7.6 M-9.6 -10.6 L-9.75 -11.65 -7.0 -8.8 -9.6 -10.6" fill="url(#gradient0)" fill-rule="evenodd" stroke="none"/>
  </g>
  <defs>
    <radialGradient cx="0" cy="0" gradientTransform="matrix(0.0184, 0.0146, -0.0067, 0.0084, -10.7, -7.3)" gradientUnits="userSpaceOnUse" id="gradient0" r="819.2" spreadMethod="pad">
      <stop offset="0.47843137254901963" stop-color="#ffffff"></stop>
      <stop offset="0.8823529411764706" stop-color="#f2eaea"></stop>
    </radialGradient>
  </defs>
</svg>