<?xml version="1.0" encoding="UTF-8" standalone="no"?>
<svg xmlns:xlink="http://www.w3.org/1999/xlink" height="28.1px" width="36.6px" xmlns="http://www.w3.org/2000/svg">
  <g transform="matrix(1.0, 0.0, 0.0, 1.0, 20.25, 12.95)">
    <path d="M12.05 -8.95 Q10.0 -10.2 7.75 -10.15 4.95 -10.65 2.25 -10.05 -0.65 -9.5 -3.4 -8.4 -6.35 -7.25 -8.4 -4.85 L-11.35 -1.3 -13.95 2.6 -14.25 1.45 -13.7 0.2 Q-12.65 -2.05 -11.0 -3.8 -8.6 -6.4 -5.7 -8.35 -0.45 -11.8 5.95 -11.95 9.1 -12.1 11.6 -10.45 L12.15 -10.35 13.3 -9.25 Q15.75 -6.75 15.3 -3.4 L14.95 -1.9 15.0 -1.55 15.0 -1.45 Q14.55 -2.9 14.45 -4.65 14.25 -7.45 12.05 -8.95 M13.6 -1.3 L12.95 2.9 13.25 -1.7 13.6 -1.3 M-9.6 13.65 L-10.6 13.25 -5.45 12.75 -6.45 13.5 -9.6 13.65 M-5.4 13.4 L-2.35 12.9 -1.15 12.8 Q-3.25 14.05 -5.45 14.15 L-6.05 13.85 -5.4 13.4 M1.1 12.0 L1.5 11.85 -1.05 13.4 1.1 12.0 M12.0 0.65 Q12.7 2.3 11.85 3.75 L11.25 4.6 11.8 2.9 12.0 0.65" fill="#a36a6a" fill-rule="evenodd" stroke="none"/>
    <path d="M-13.95 2.6 L-11.35 -1.3 -8.4 -4.85 Q-6.35 -7.25 -3.4 -8.4 -0.65 -9.5 2.25 -10.05 4.95 -10.65 7.75 -10.15 10.0 -10.2 12.05 -8.95 L11.45 -3.85 11.7 -5.0 Q11.6 -0.35 8.85 3.5 L7.6 5.1 Q6.65 6.3 5.05 6.7 L3.45 6.55 3.15 5.8 6.8 2.3 5.0 3.2 Q1.9 4.5 -1.35 5.45 L-4.3 6.15 -9.35 6.35 -12.5 6.15 -13.95 2.6 M14.95 -1.9 L15.3 -3.4 15.05 -2.1 14.95 -1.9" fill="#f2eaea" fill-rule="evenodd" stroke="none"/>
    <path d="M12.05 -8.95 Q14.25 -7.45 14.45 -4.65 14.55 -2.9 15.0 -1.45 14.75 2.35 9.85 6.9 6.3 10.15 1.5 11.85 L1.1 12.0 -2.35 12.9 -5.4 13.4 -6.45 13.5 -5.45 12.75 -10.6 13.25 -9.6 13.65 -10.5 13.65 Q-14.05 13.65 -16.85 11.45 -19.25 9.6 -19.25 8.2 -19.25 6.5 -17.0 3.85 -15.2 1.75 -14.25 1.45 L-13.95 2.6 -12.5 6.15 -9.35 6.35 -4.3 6.15 -1.35 5.45 Q1.9 4.5 5.0 3.2 L6.8 2.3 3.15 5.8 3.45 6.55 5.05 6.7 Q6.65 6.3 7.6 5.1 L8.85 3.5 Q11.6 -0.35 11.7 -5.0 L11.45 -3.85 12.05 -8.95 M15.0 -1.55 L14.95 -1.9 15.05 -2.1 15.0 -1.55 M13.6 -1.3 L13.25 -1.7 12.95 2.9 13.6 -1.3 M12.0 0.65 L11.8 2.9 11.25 4.6 11.85 3.75 Q12.7 2.3 12.0 0.65" fill="#e0cbcb" fill-rule="evenodd" stroke="none"/>
  </g>
</svg>