<?xml version="1.0" encoding="UTF-8" standalone="no"?>
<svg xmlns:xlink="http://www.w3.org/1999/xlink" height="24.95px" width="43.8px" xmlns="http://www.w3.org/2000/svg">
  <g transform="matrix(1.0, 0.0, 0.0, 1.0, 21.65, 12.05)">
    <path d="M20.65 -9.65 L17.3 -8.65 17.05 -8.65 Q17.2 -7.9 17.7 -7.35 L18.15 -6.35 Q18.2 -5.85 17.9 -5.6 19.05 -5.65 19.8 -4.9 20.05 -4.65 19.95 -4.2 L19.75 -2.75 M17.9 -5.6 L17.8 -5.55 Q16.85 -4.8 15.65 -4.3 L12.25 -2.95 M-16.35 7.8 L-11.7 7.15 -11.15 7.3 Q-9.65 8.1 -8.1 8.7" fill="none" stroke="#ffffff" stroke-linecap="round" stroke-linejoin="round" stroke-width="1.0"/>
    <path d="M-19.7 7.85 L-17.45 7.5 -16.8 7.45 Q-16.45 7.5 -16.35 7.8 L-16.3 8.25 -16.25 11.1 -16.05 11.25 -14.7 11.35 -13.6 11.4" fill="none" stroke="#ffffff" stroke-linecap="round" stroke-linejoin="round" stroke-width="1.0"/>
    <path d="M20.2 -10.55 Q18.5 -10.2 16.85 -9.55 L16.6 -9.55 Q16.75 -8.8 17.25 -8.25 L17.7 -7.25 Q17.75 -6.75 17.45 -6.5 18.6 -6.55 19.35 -5.8 19.6 -5.55 19.5 -5.1 L19.3 -3.65 M17.45 -6.5 L17.35 -6.45 Q16.4 -5.7 15.2 -5.2 L11.8 -3.85 M-20.15 6.95 L-17.9 6.6 -17.25 6.55 -16.8 6.9 -12.15 6.25 -11.6 6.4 -8.55 7.8 M-16.8 6.9 L-16.75 7.35 -16.7 10.2 -16.5 10.35 -15.15 10.45 -14.05 10.5" fill="none" stroke="#000000" stroke-linecap="round" stroke-linejoin="round" stroke-width="1.0"/>
  </g>
</svg>