<?xml version="1.0" encoding="UTF-8" standalone="no"?>
<svg xmlns:xlink="http://www.w3.org/1999/xlink" height="36.15px" width="32.7px" xmlns="http://www.w3.org/2000/svg">
  <g transform="matrix(1.0, 0.0, 0.0, 1.0, 16.1, 17.7)">
    <path d="M-0.6 -15.5 L0.85 -11.5 1.55 -10.4 3.65 -11.3 M11.5 -8.2 L10.8 -6.25 11.7 -2.65 8.55 -0.85 M15.1 -5.5 L13.3 -4.95 11.95 -4.3 M0.9 2.5 L3.6 3.3 3.65 2.25 8.7 2.55 8.4 -0.65 M5.65 1.75 L5.75 -0.7 M-2.35 -6.2 L-2.15 -8.95 M-11.45 0.75 L-12.15 3.6 -9.8 6.9 -8.05 5.4 -8.65 3.55 M-4.95 9.5 L-5.15 11.45 -1.2 11.95 M-5.15 11.45 L-7.05 12.1 -8.45 14.3 -7.3 15.7 -6.5 16.95 M-14.1 8.2 L-12.35 8.85 -11.2 9.15 -10.4 6.95 M-1.95 -9.2 L0.85 -11.5" fill="none" stroke="#ffffff" stroke-linecap="round" stroke-linejoin="round" stroke-width="1.0"/>
    <path d="M14.6 -6.2 L12.8 -5.65 11.45 -5.0 M11.0 -8.9 L10.3 -6.95 11.2 -3.35 8.05 -1.55 M-1.1 -16.2 L0.35 -12.2 1.05 -11.1 3.15 -12.0 M0.4 1.8 L3.1 2.6 3.15 1.55 8.2 1.85 7.9 -1.35 M5.15 1.05 L5.25 -1.4 M-2.85 -6.9 L-2.65 -9.65 M-11.95 0.05 L-12.65 2.9 -10.3 6.2 -8.55 4.7 -9.15 2.85 M-5.45 8.8 L-5.65 10.75 -1.7 11.25 M-5.65 10.75 L-7.55 11.4 -8.95 13.6 -7.8 15.0 -7.0 16.25 M-14.6 7.5 L-12.85 8.15 -11.7 8.45 -10.9 6.25 M-2.45 -9.9 L0.35 -12.2" fill="none" stroke="#000000" stroke-linecap="round" stroke-linejoin="round" stroke-width="1.0"/>
  </g>
</svg>