<?xml version="1.0" encoding="UTF-8" standalone="no"?>
<svg xmlns:xlink="http://www.w3.org/1999/xlink" height="9.25px" width="30.7px" xmlns="http://www.w3.org/2000/svg">
  <g transform="matrix(1.0, 0.0, 0.0, 1.0, 23.3, 4.35)">
    <path d="M6.0 -2.6 Q6.45 -2.15 6.4 -1.25 L6.4 -1.1 Q6.45 0.0 4.6 1.85 2.5 3.95 0.1 3.9 -1.95 3.95 -3.9 2.1 L-3.9 2.05 Q-5.75 0.25 -5.55 -0.8 -5.55 -2.8 -3.55 -2.8 -3.1 -2.95 -2.5 -2.5 L-1.95 -2.55 -1.35 -2.4 0.0 -2.4 1.7 -2.35 2.3 -2.2 2.5 -2.1 Q3.65 -3.55 4.45 -3.3 5.55 -3.3 6.0 -2.6 M-20.3 -2.55 L-20.4 -2.5 -19.7 -2.7 -19.5 -2.75 -19.45 -2.8 Q-18.95 -3.2 -17.95 -3.2 L-16.85 -3.0 -15.9 -3.2 Q-15.3 -3.2 -14.85 -2.75 -13.55 -1.45 -13.85 -1.1 -13.65 -0.15 -15.3 1.35 L-15.3 1.3 Q-16.85 2.7 -18.4 2.65 -20.65 2.8 -22.05 0.0 L-22.25 -0.7 Q-22.7 -2.1 -20.3 -2.55" fill="#660000" fill-rule="evenodd" stroke="none"/>
  </g>
</svg>