<?xml version="1.0" encoding="UTF-8" standalone="no"?>
<svg xmlns:xlink="http://www.w3.org/1999/xlink" height="23.8px" width="58px" xmlns="http://www.w3.org/2000/svg">
  <g id="shape0" transform="matrix(1.0, 0.0, 0.0, 1.0, 26.5, 11.85)">
    <path d="M-1.0 -7.75 L-0.7 -7.9 Q3.05 -9.55 4.75 -9.85 L7.35 -10.25 12.45 -10.8 16.85 -10.4 Q19.25 -9.6 21.2 -7.95 L21.25 -7.95 21.25 -7.9 21.3 -7.9 21.55 -6.8 16.95 -9.0 13.95 -9.5 10.05 -9.4 5.55 -8.75 2.0 -8.15 -1.0 -7.75 M26.7 6.65 L26.7 6.75 25.95 6.4 Q22.1 4.75 20.25 4.75 L17.6 4.15 14.65 3.8 12.65 4.0 Q11.65 4.0 8.75 5.15 5.8 6.3 3.5 6.3 0.0 6.3 -3.8 4.75 -7.6 3.15 -9.55 3.15 -10.75 3.15 -11.85 3.8 L-13.6 4.9 -16.15 6.15 Q-18.9 4.75 -19.55 4.0 L-23.55 1.65 Q-25.45 0.85 -25.5 -0.75 -25.6 -2.7 -23.7 -4.45 -22.05 -5.9 -19.45 -6.5 L-16.05 -7.1 -5.75 -8.25 -6.6 -7.65 -11.3 -6.7 -16.05 -6.05 Q-17.75 -6.1 -19.2 -5.45 L-20.7 -4.95 Q-22.4 -4.5 -23.65 -3.0 -24.6 -1.95 -24.55 -0.85 -24.5 -0.15 -21.7 1.45 L-20.85 2.0 Q-21.4 1.1 -21.4 0.35 L-21.75 0.3 Q-22.85 0.1 -22.85 -0.2 -22.9 -0.65 -22.3 -0.65 L-21.25 -0.65 -21.05 -0.65 -9.55 -0.95 8.2 -1.5 Q15.65 -1.85 16.4 -0.7 L18.5 0.05 Q21.35 1.2 22.0 1.95 L24.75 4.3 25.45 4.95 25.65 5.15 26.15 5.65 26.7 6.65 M-6.85 2.1 Q-6.85 1.45 -9.0 1.45 -9.65 1.45 -10.5 2.05 -10.5 2.6 -9.75 2.6 -6.85 2.6 -6.85 2.1 M-0.5 4.1 L1.45 4.65 Q4.15 5.1 6.5 4.0 9.35 2.7 11.45 0.3 L11.65 -0.35 -5.9 0.25 Q-5.2 1.45 -4.15 2.15 L-0.5 4.1 M-11.15 0.35 L-20.55 0.4 -19.55 1.8 -18.1 3.05 -14.1 3.15 Q-12.2 2.25 -11.15 0.35" fill="#a36a6a" fill-rule="evenodd" stroke="none"/>
    <path d="M21.25 -7.95 L21.3 -7.9 22.95 -6.65 Q23.25 -6.5 23.65 -6.3 26.9 -4.5 28.3 -3.25 28.85 -2.8 29.65 -0.85 L30.5 1.65 Q30.45 2.8 29.3 4.55 28.15 6.15 26.7 6.65 L26.15 5.65 25.65 5.15 25.45 4.95 24.75 4.3 22.0 1.95 Q21.35 1.2 18.5 0.05 L16.4 -0.7 Q15.65 -1.85 8.2 -1.5 L-9.55 -0.95 -21.05 -0.65 -21.25 -0.65 -22.3 -0.65 Q-22.9 -0.65 -22.85 -0.2 -22.85 0.1 -21.75 0.3 L-21.4 0.35 Q-21.4 1.1 -20.85 2.0 L-21.7 1.45 Q-24.5 -0.15 -24.55 -0.85 -24.6 -1.95 -23.65 -3.0 L-23.7 -2.9 Q-23.2 -2.55 -21.85 -2.55 L-15.85 -2.85 -12.8 -3.15 -4.5 -3.15 Q10.75 -3.2 14.9 -4.5 17.3 -5.35 17.35 -7.95 17.35 -8.45 16.95 -9.0 L21.55 -6.8 21.3 -7.9 21.25 -7.9 21.25 -7.95" fill="#e0cbcb" fill-rule="evenodd" stroke="none"/>
    <path d="M-6.6 -7.65 L-3.4 -7.85 -3.9 -7.7 -1.65 -7.45 -1.0 -7.75 2.0 -8.15 5.55 -8.75 10.05 -9.4 13.95 -9.5 16.95 -9.0 Q17.35 -8.45 17.35 -7.95 17.3 -5.35 14.9 -4.5 10.75 -3.2 -4.5 -3.15 L-12.8 -3.15 -15.85 -2.85 -21.85 -2.55 Q-23.2 -2.55 -23.7 -2.9 L-23.65 -3.0 Q-22.4 -4.5 -20.7 -4.95 L-19.2 -5.45 Q-17.75 -6.1 -16.05 -6.05 L-11.3 -6.7 -6.6 -7.65" fill="url(#gradient0)" fill-rule="evenodd" stroke="none"/>
    <path d="M26.7 6.75 L26.7 6.8 Q26.7 7.35 25.75 7.95 24.35 8.8 20.9 9.65 15.4 10.95 10.65 10.95 0.6 10.95 -9.55 8.45 L-10.95 8.1 -13.95 7.2 -15.85 6.3 -16.0 6.25 -16.15 6.15 -13.6 4.9 -11.85 3.8 Q-10.75 3.15 -9.55 3.15 -7.6 3.15 -3.8 4.75 0.0 6.3 3.5 6.3 5.8 6.3 8.75 5.15 11.65 4.0 12.65 4.0 L14.65 3.8 17.6 4.15 20.25 4.75 Q22.1 4.75 25.95 6.4 L26.7 6.75 M-6.85 2.1 Q-6.85 2.6 -9.75 2.6 -10.5 2.6 -10.5 2.05 -9.65 1.45 -9.0 1.45 -6.85 1.45 -6.85 2.1" fill="#7d4f4f" fill-rule="evenodd" stroke="none"/>
  </g>
  <radialGradient cx="0" cy="0" gradientTransform="matrix(0.0236, -0.0022, 3.0E-4, 0.0034, -4.4, -6.3)" gradientUnits="userSpaceOnUse" id="gradient0" r="819.2" spreadMethod="pad">
    <stop offset="0.47843137254901963" stop-color="#ffffff"></stop>
    <stop offset="0.8823529411764706" stop-color="#f2eaea"></stop>
  </radialGradient>
</svg>