<?xml version="1.0" encoding="UTF-8" standalone="no"?>
<svg xmlns:xlink="http://www.w3.org/1999/xlink" height="23.7px" width="50px" xmlns="http://www.w3.org/2000/svg">
  <g transform="matrix(1.0, 0.0, 0.0, 1.0, 25, 11.85)">
    <path d="M9.75 -9.65 L8.5 -9.65 7.0 -9.6 2.25 -8.8 -1.75 -7.35 Q-3.75 -6.55 -5.5 -5.05 -6.4 -4.35 -7.8 -3.6 L-11.4 -1.95 -9.0 -3.65 -6.7 -5.5 Q-4.5 -7.6 -1.9 -8.85 0.45 -10.1 3.25 -10.55 6.45 -11.1 9.85 -10.6 L12.0 -9.95 13.05 -9.3 9.75 -9.65 M-13.9 -2.9 L-14.5 -2.7 Q-17.9 -2.7 -20.3 -1.45 -22.7 -0.25 -22.7 1.5 -23.1 4.25 -21.4 6.25 L-21.95 4.9 -21.3 3.9 Q-19.75 2.15 -17.45 2.75 L-16.4 3.25 -15.85 4.25 -14.95 5.75 Q-14.1 7.15 -12.5 7.35 L-10.65 7.5 Q-8.9 7.2 -8.3 6.65 L-8.75 3.8 Q-6.9 0.1 -3.0 -1.6 0.4 -3.2 4.65 -3.45 12.3 -3.9 23.1 3.35 L23.45 3.6 23.4 4.05 23.15 4.15 23.2 4.15 23.05 4.2 Q22.2 4.9 16.8 6.45 L10.9 8.2 5.95 9.45 -4.1 10.85 -11.5 10.8 -16.1 10.7 -17.9 10.25 -19.45 9.3 -20.45 8.2 Q-20.95 7.55 -21.6 7.05 L-22.95 6.0 -23.25 5.7 Q-24.0 4.3 -24.0 3.0 -24.0 -3.25 -18.65 -3.25 L-15.0 -3.15 -13.9 -2.9 M0.15 -1.5 L-1.65 -0.9 Q-6.15 0.5 -7.55 4.45 L-7.4 5.25 Q-4.8 7.05 -1.55 7.05 2.15 7.05 7.9 3.5 L10.0 0.95 10.65 -0.5 10.7 -1.5 7.55 -2.1 Q3.9 -2.6 0.15 -1.5 M-18.95 3.4 L-20.85 4.25 Q-21.1 5.95 -20.0 7.25 -19.4 7.95 -18.35 8.0 -16.5 8.1 -14.65 7.15 L-16.65 4.1 -18.95 3.4" fill="#a36a6a" fill-rule="evenodd" stroke="none"/>
    <path d="M9.75 -9.65 L10.45 -8.95 Q11.1 -8.1 11.1 -7.05 11.1 -5.8 9.6 -4.6 L6.5 -4.0 2.0 -3.55 -7.1 -1.7 Q-8.85 -1.7 -8.85 -2.4 L-8.65 -3.15 -7.85 -3.55 -7.8 -3.6 Q-6.4 -4.35 -5.5 -5.05 -3.75 -6.55 -1.75 -7.35 L2.25 -8.8 7.0 -9.6 8.5 -9.65 9.75 -9.65" fill="url(#gradient0)" fill-rule="evenodd" stroke="none"/>
    <path d="M-7.8 -3.6 L-7.85 -3.55 -8.65 -3.15 -8.85 -2.4 Q-8.85 -1.7 -7.1 -1.7 L2.0 -3.55 6.5 -4.0 9.6 -4.6 Q11.1 -5.8 11.1 -7.05 11.1 -8.1 10.45 -8.95 L9.75 -9.65 13.05 -9.3 12.0 -9.95 17.35 -6.95 Q19.7 -5.3 21.2 -3.65 24.0 -0.4 24.0 3.2 24.0 4.15 23.5 4.15 L23.2 4.15 23.15 4.15 23.4 4.05 23.45 3.6 23.1 3.35 Q12.3 -3.9 4.65 -3.45 0.4 -3.2 -3.0 -1.6 -6.9 0.1 -8.75 3.8 -10.3 5.0 -12.5 5.0 -14.15 5.0 -15.85 4.25 L-16.4 3.25 -16.15 3.7 -13.35 3.85 Q-9.35 3.85 -8.2 1.8 -10.4 3.25 -13.45 3.25 L-17.3 2.7 -17.45 2.75 Q-19.75 2.15 -21.3 3.9 L-21.95 4.9 -21.4 6.25 Q-23.1 4.25 -22.7 1.5 L-18.45 1.1 Q-14.9 0.65 -14.65 -0.9 L-14.5 -2.7 -13.9 -2.9 -9.0 -3.65 -11.4 -1.95 -7.8 -3.6" fill="#e0cbcb" fill-rule="evenodd" stroke="none"/>
    <path d="M-14.5 -2.7 L-14.65 -0.9 Q-14.9 0.65 -18.45 1.1 L-22.7 1.5 Q-22.7 -0.25 -20.3 -1.45 -17.9 -2.7 -14.5 -2.7" fill="url(#gradient1)" fill-rule="evenodd" stroke="none"/>
    <path d="M-17.45 2.75 L-17.3 2.7 -13.45 3.25 Q-10.4 3.25 -8.2 1.8 -9.35 3.85 -13.35 3.85 L-16.15 3.7 -16.4 3.25 -17.45 2.75 M-15.85 4.25 Q-14.15 5.0 -12.5 5.0 -10.3 5.0 -8.75 3.8 L-8.3 6.65 Q-8.9 7.2 -10.65 7.5 L-12.5 7.35 Q-14.1 7.15 -14.95 5.75 L-15.85 4.25" fill="#cca9a9" fill-rule="evenodd" stroke="none"/>
  </g>
  <defs>
    <radialGradient cx="0" cy="0" gradientTransform="matrix(0.0131, -0.0027, 0.0015, 0.0073, -1.45, -8.4)" gradientUnits="userSpaceOnUse" id="gradient0" r="819.2" spreadMethod="pad">
      <stop offset="0.47843137254901963" stop-color="#ffffff"></stop>
      <stop offset="0.8823529411764706" stop-color="#f2eaea"></stop>
    </radialGradient>
    <radialGradient cx="0" cy="0" gradientTransform="matrix(0.0054, -0.0016, 9.0E-4, 0.003, -19.3, -1.5)" gradientUnits="userSpaceOnUse" id="gradient1" r="819.2" spreadMethod="pad">
      <stop offset="0.47843137254901963" stop-color="#ffffff"></stop>
      <stop offset="0.8823529411764706" stop-color="#f2eaea"></stop>
    </radialGradient>
  </defs>
</svg>