<?xml version="1.0" encoding="UTF-8" standalone="no"?>
<svg xmlns:xlink="http://www.w3.org/1999/xlink" height="14.6px" width="36.65px" xmlns="http://www.w3.org/2000/svg">
  <g transform="matrix(1.0, 0.0, 0.0, 1.0, 22.35, 4.85)">
    <path d="M-6.95 1.35 Q-5.5 -0.25 -2.85 -1.45 L0.7 -2.7 0.8 -2.7 6.1 -3.85 Q8.3 -3.85 10.8 -2.55 13.3 -1.25 13.3 -0.05 13.3 0.95 12.3 0.95 L11.55 0.65 Q12.25 2.6 7.1 5.6 L3.9 7.25 3.0 7.6 -0.25 8.5 -2.85 8.75 -3.1 8.75 Q-5.75 8.75 -7.1 8.0 -6.75 7.65 -5.7 7.45 L-2.05 6.8 Q3.25 5.6 3.25 1.85 L3.25 1.7 2.2 1.6 Q-3.0 1.6 -5.7 4.35 L-7.25 6.25 -8.15 7.1 -8.55 5.95 -7.55 3.95 -7.5 3.9 -8.3 3.7 Q-8.0 2.6 -7.25 1.7 L-6.85 1.45 -6.95 1.35 M-19.9 3.25 L-18.85 3.05 -18.7 3.05 Q-17.25 3.05 -16.45 4.15 L-15.8 4.75 -15.35 5.7 -15.4 5.8 -15.3 5.8 Q-14.5 6.55 -14.35 7.05 L-14.3 7.3 Q-14.3 8.15 -15.3 8.3 L-15.4 8.3 -16.05 8.4 -17.6 8.75 -19.0 8.5 -19.0 8.4 Q-17.45 6.1 -17.45 5.05 L-20.3 5.65 -21.3 6.05 -21.35 5.8 -21.35 5.7 -21.35 5.5 -21.35 5.4 -21.1 4.4 -20.95 4.15 -20.95 4.1 -20.6 3.7 -19.85 3.25 -19.9 3.25" fill="#c7c9da" fill-rule="evenodd" stroke="none"/>
    <path d="M-7.1 8.0 L-8.15 7.1 -7.25 6.25 -5.7 4.35 Q-3.0 1.6 2.2 1.6 L3.25 1.7 3.25 1.85 Q3.25 5.6 -2.05 6.8 L-5.7 7.45 Q-6.75 7.65 -7.1 8.0 M-8.55 5.95 L-8.6 5.55 -8.3 3.7 -7.5 3.9 -7.55 3.95 -8.55 5.95 M-7.25 1.7 L-6.95 1.35 -6.85 1.45 -7.25 1.7 M-15.35 5.7 L-15.3 5.8 -15.4 5.8 -15.35 5.7 M-19.0 8.5 L-20.5 7.4 -21.3 6.05 -20.3 5.65 -17.45 5.05 Q-17.45 6.1 -19.0 8.4 L-19.0 8.5 M-20.95 4.1 Q-20.6 3.5 -19.9 3.25 L-19.85 3.25 -20.6 3.7 -20.95 4.1" fill="#ffffff" fill-rule="evenodd" stroke="none"/>
  </g>
</svg>