<?xml version="1.0" encoding="UTF-8" standalone="no"?>
<svg xmlns:xlink="http://www.w3.org/1999/xlink" height="14.6px" width="36.65px" xmlns="http://www.w3.org/2000/svg">
  <g transform="matrix(1.0, 0.0, 0.0, 1.0, 22.35, 4.85)">
    <path d="M6.1 -3.85 Q8.3 -3.85 10.8 -2.55 13.3 -1.25 13.3 -0.05 13.3 0.95 12.3 0.95 L11.55 0.65 Q12.25 2.6 7.1 5.6 L3.9 7.25 3.0 7.6 -0.25 8.5 -2.85 8.75 -3.1 8.75 Q-5.75 8.75 -7.1 8.0 L-8.15 7.1 -8.55 5.95 -8.6 5.55 -8.3 3.7 Q-8.0 2.6 -7.25 1.7 L-6.95 1.35 Q-5.5 -0.25 -2.85 -1.45 L0.7 -2.7 0.8 -2.7 6.1 -3.85 M4.2 4.55 Q5.85 3.6 5.85 2.5 L5.7 1.65 2.9 2.65 -0.85 3.15 -3.9 2.85 Q-5.3 2.85 -5.3 4.05 -5.3 5.75 -1.0 5.75 2.2 5.75 4.2 4.55 M-18.7 3.05 Q-17.25 3.05 -16.45 4.15 L-15.8 4.75 -15.35 5.7 -15.3 5.8 Q-14.5 6.55 -14.35 7.05 L-14.3 7.3 Q-14.3 8.15 -15.3 8.3 L-15.4 8.3 -16.05 8.4 -17.6 8.75 -19.0 8.5 -20.5 7.4 Q-21.3 6.45 -21.35 5.8 L-21.35 5.7 -21.35 5.5 -21.35 5.4 -21.1 4.4 Q-20.8 3.55 -19.9 3.25 L-18.85 3.05 -18.7 3.05 M-16.25 5.7 Q-16.6 5.25 -17.4 5.25 -19.85 5.25 -19.85 6.3 -19.85 7.35 -18.3 7.35 -16.1 7.35 -16.1 6.15 L-16.25 5.7" fill="#ff0000" fill-rule="evenodd" stroke="none"/>
    <path d="M4.2 4.55 Q2.2 5.75 -1.0 5.75 -5.3 5.75 -5.3 4.05 -5.3 2.85 -3.9 2.85 L-0.85 3.15 2.9 2.65 5.7 1.65 5.85 2.5 Q5.85 3.6 4.2 4.55 M-16.25 5.7 L-16.1 6.15 Q-16.1 7.35 -18.3 7.35 -19.85 7.35 -19.85 6.3 -19.85 5.25 -17.4 5.25 -16.6 5.25 -16.25 5.7" fill="#ff00ff" fill-rule="evenodd" stroke="none"/>
    <path d="M-18.35 4.3 L-18.2 4.65 Q-18.2 5.1 -18.65 5.1 -20.3 5.1 -20.3 4.4 -20.3 3.95 -19.25 3.95 -18.6 3.95 -18.35 4.3 M-1.65 0.5 Q-1.65 -0.45 1.75 -0.45 3.1 -0.45 3.1 0.3 3.1 1.05 -0.45 1.05 -1.5 1.05 -1.65 0.5" fill="#ffffff" fill-opacity="0.7058824" fill-rule="evenodd" stroke="none"/>
  </g>
</svg>