<?xml version="1.0" encoding="UTF-8" standalone="no"?>
<svg xmlns:xlink="http://www.w3.org/1999/xlink" height="5.7px" width="27.15px" xmlns="http://www.w3.org/2000/svg">
  <g transform="matrix(1.0, 0.0, 0.0, 1.0, 24.5, -1.65)">
    <path d="M1.65 5.75 Q1.45 6.5 0.7 6.35 -0.2 6.15 -0.05 5.4 0.1 4.7 1.0 4.9 1.8 5.05 1.65 5.75 M-4.2 6.0 Q-5.15 5.8 -4.9 5.25 -4.65 3.95 -2.65 4.35 -1.45 4.6 -1.6 5.45 -1.8 6.45 -4.2 6.0 M-23.5 3.45 L-22.85 2.9 -21.7 2.7 -21.05 3.45 Q-21.15 3.95 -23.05 4.15 -23.6 4.0 -23.5 3.45" fill="#ffffff" fill-rule="evenodd" stroke="none"/>
  </g>
</svg>