<?xml version="1.0" encoding="UTF-8" standalone="no"?>
<svg xmlns:xlink="http://www.w3.org/1999/xlink" height="19.1px" width="44.9px" xmlns="http://www.w3.org/2000/svg">
  <g transform="matrix(1.0, 0.0, 0.0, 1.0, 22.45, 11.4)">
    <path d="M7.95 -9.5 L4.4 -8.8 0.25 -7.55 0.7 -8.0 0.75 -8.05 3.2 -9.35 4.3 -9.7 Q7.0 -10.6 9.75 -10.35 12.3 -10.1 14.85 -8.9 17.1 -7.75 18.75 -5.9 20.25 -4.2 20.75 -2.2 21.2 -0.25 20.2 1.55 18.55 4.6 15.1 5.6 L13.7 6.0 7.0 6.15 6.15 6.4 1.85 6.6 0.35 6.7 -2.25 6.65 Q-2.7 6.7 -2.85 6.35 L0.7 5.95 -2.3 6.0 -2.8 6.0 -6.05 5.95 -9.85 5.85 -14.0 5.6 Q-15.85 5.45 -17.25 4.7 L-18.7 3.25 Q-20.1 3.3 -20.8 2.0 -21.9 0.0 -21.15 -2.15 -20.5 -4.15 -18.8 -5.65 -17.5 -6.85 -15.7 -7.5 L-12.2 -8.05 Q-10.2 -8.15 -8.4 -7.4 L-10.6 -7.4 -12.7 -7.25 Q-14.7 -7.1 -16.35 -6.05 -18.25 -4.9 -19.55 -3.25 -20.35 -1.6 -20.1 0.25 L-19.95 0.85 -19.55 1.15 -18.8 1.05 -17.2 -1.35 Q-14.55 -2.75 -11.6 -2.45 L-9.75 -0.35 -9.1 -0.3 -8.75 0.2 -9.7 0.6 -8.95 2.85 -5.35 3.65 -1.2 2.9 -1.65 0.7 -1.4 0.05 -5.2 0.9 -4.1 0.5 -2.1 -0.75 -0.55 -1.85 2.2 -4.0 7.8 -4.95 11.9 -3.8 Q13.6 -3.1 15.1 -1.85 L17.05 -0.5 19.45 -1.4 Q19.0 -4.6 16.55 -6.65 13.65 -8.6 10.45 -9.25 L7.95 -9.55 7.9 -9.55 7.95 -9.5 M4.65 -3.7 Q2.75 -3.05 1.3 -1.95 L-0.4 0.35 0.75 1.7 Q2.0 2.95 4.0 3.15 L6.25 3.2 10.8 2.7 Q12.75 2.45 14.45 1.7 L14.45 0.0 Q13.2 -1.9 11.1 -2.75 L7.7 -3.8 4.65 -3.7 M20.85 -6.6 L21.45 -5.45 19.5 -7.15 20.85 -6.6 M-14.45 3.15 Q-12.05 2.6 -10.4 0.9 L-10.85 0.1 Q-11.95 -1.45 -13.85 -1.45 L-17.2 0.65 -17.2 2.85 -16.25 3.5 -14.45 3.15" fill="#a36a6a" fill-rule="evenodd" stroke="none"/>
    <path d="M-2.2 -7.25 L-2.8 -7.2 -3.45 -6.0 Q-2.65 -3.75 0.0 -3.8 L2.2 -4.0 -0.55 -1.85 -9.05 -1.55 Q-8.85 -0.25 -7.4 -0.45 L-2.1 -0.75 -4.1 0.5 -8.75 0.2 -9.1 -0.3 -9.75 -0.35 -11.6 -2.45 Q-14.55 -2.75 -17.2 -1.35 L-18.8 1.05 -19.55 1.15 -19.95 0.85 -20.1 0.25 Q-20.35 -1.6 -19.55 -3.25 -19.1 -2.3 -17.55 -2.3 L-12.5 -3.4 Q-8.65 -4.45 -8.65 -5.3 -8.65 -6.95 -10.6 -7.4 L-8.4 -7.4 -2.2 -7.25 M7.8 -4.95 L11.5 -7.05 10.45 -9.25 Q13.65 -8.6 16.55 -6.65 L17.35 -4.1 Q17.3 -3.25 16.7 -2.65 16.1 -1.95 15.1 -1.85 13.6 -3.1 11.9 -3.8 L7.8 -4.95" fill="#e0cbcb" fill-rule="evenodd" stroke="none"/>
    <path d="M7.95 -9.55 L7.95 -9.5 7.9 -9.55 7.95 -9.55 M0.7 -8.0 L0.65 -8.0 0.75 -8.05 0.7 -8.0 M-10.6 -7.4 Q-8.65 -6.95 -8.65 -5.3 -8.65 -4.45 -12.5 -3.4 L-17.55 -2.3 Q-19.1 -2.3 -19.55 -3.25 -18.25 -4.9 -16.35 -6.05 -14.7 -7.1 -12.7 -7.25 L-10.6 -7.4" fill="url(#gradient0)" fill-rule="evenodd" stroke="none"/>
    <path d="M7.95 -9.5 L7.95 -9.55 10.45 -9.25 11.5 -7.05 7.8 -4.95 2.2 -4.0 0.0 -3.8 Q-2.65 -3.75 -3.45 -6.0 L-2.8 -7.2 -2.2 -7.25 0.65 -8.0 0.7 -8.0 0.25 -7.55 4.4 -8.8 7.95 -9.5" fill="url(#gradient1)" fill-rule="evenodd" stroke="none"/>
    <path d="M15.1 -1.85 Q16.1 -1.95 16.7 -2.65 17.3 -3.25 17.35 -4.1 L16.55 -6.65 Q19.0 -4.6 19.45 -1.4 L17.05 -0.5 15.1 -1.85 M-8.75 0.2 L-4.1 0.5 -5.2 0.9 -1.4 0.05 -1.65 0.7 -1.2 2.9 -5.35 3.65 -8.95 2.85 -9.7 0.6 -8.75 0.2 M-2.1 -0.75 L-7.4 -0.45 Q-8.85 -0.25 -9.05 -1.55 L-0.55 -1.85 -2.1 -0.75" fill="#cca9a9" fill-rule="evenodd" stroke="none"/>
  </g>
  <defs>
    <radialGradient cx="0" cy="0" gradientTransform="matrix(0.0054, -0.0016, 9.0E-4, 0.003, -15.5, -5.75)" gradientUnits="userSpaceOnUse" id="gradient0" r="819.2" spreadMethod="pad">
      <stop offset="0.47843137254901963" stop-color="#ffffff"></stop>
      <stop offset="0.8823529411764706" stop-color="#f2eaea"></stop>
    </radialGradient>
    <radialGradient cx="0" cy="0" gradientTransform="matrix(0.01, -0.0027, 0.0014, 0.0052, 1.65, -7.85)" gradientUnits="userSpaceOnUse" id="gradient1" r="819.2" spreadMethod="pad">
      <stop offset="0.47843137254901963" stop-color="#ffffff"></stop>
      <stop offset="0.8823529411764706" stop-color="#f2eaea"></stop>
    </radialGradient>
  </defs>
</svg>