<?xml version="1.0" encoding="UTF-8" standalone="no"?>
<svg xmlns:xlink="http://www.w3.org/1999/xlink" height="31.8px" width="14.9px" xmlns="http://www.w3.org/2000/svg">
  <g transform="matrix(1.0, 0.0, 0.0, 1.0, -14.4, 39.5)">
    <path d="M18.95 -32.7 L18.05 -31.5 Q17.3 -31.5 17.3 -32.2 17.3 -32.55 17.85 -33.55 18.45 -34.8 19.1 -34.8 19.85 -34.8 19.7 -34.2 L18.95 -32.7 M16.0 -27.4 L15.4 -28.15 Q15.4 -29.5 16.55 -29.5 17.15 -29.5 17.15 -28.65 17.15 -27.4 16.0 -27.4" fill="#ffffff" fill-rule="evenodd" stroke="none"/>
    <path d="M20.3 -38.4 Q22.9 -39.0 24.5 -36.55 27.9 -31.6 28.25 -25.6 28.55 -21.2 27.2 -17.0 25.65 -12.2 22.0 -8.7 L21.8 -9.15 25.75 -17.35 Q28.15 -22.85 26.1 -29.85 24.0 -36.9 20.3 -38.4" fill="#ffffff" fill-opacity="0.49803922" fill-rule="evenodd" stroke="none"/>
  </g>
</svg>