<?xml version="1.0" encoding="UTF-8" standalone="no"?>
<svg xmlns:xlink="http://www.w3.org/1999/xlink" height="20.9px" width="27.25px" xmlns="http://www.w3.org/2000/svg">
  <g transform="matrix(1.0, 0.0, 0.0, 1.0, 15.65, 1.45)">
    <path d="M0.2 1.05 L0.2 1.15 1.1 4.75 0.9 5.45 0.55 9.85 Q0.55 10.85 2.05 11.75 3.55 12.65 3.55 13.3 3.55 15.2 0.6 16.85 -0.05 16.2 -0.15 14.6 -0.15 12.4 -1.0 11.7 -4.95 8.2 -4.95 5.95 -5.2 0.8 -0.9 0.8 L0.2 1.05" fill="#e0cbcb" fill-rule="evenodd" stroke="none"/>
    <path d="M0.6 16.85 Q3.55 15.2 3.55 13.3 3.55 12.65 2.05 11.75 0.55 10.85 0.55 9.85 L0.9 5.45 1.1 4.75 0.2 1.15 0.2 1.05 Q0.85 1.35 1.25 2.2 L1.25 2.25 Q1.95 4.7 2.8 6.55 L2.9 6.7 Q3.6 8.1 6.4 9.15 9.5 10.3 9.5 11.9 9.0 17.3 3.0 17.3 L1.0 17.15 0.6 16.85 M-6.05 5.95 Q-6.05 7.75 -5.4 8.8 L-4.55 9.9 -6.65 12.75 Q-10.05 16.35 -12.2 16.35 -13.5 16.35 -13.5 15.1 -13.5 13.55 -12.65 12.75 L-8.75 9.9 -6.05 5.95" fill="#cca9a9" fill-rule="evenodd" stroke="none"/>
    <path d="M0.6 16.85 L1.0 17.15 3.0 17.3 Q9.0 17.3 9.5 11.9 9.5 10.3 6.4 9.15 3.6 8.1 2.9 6.7 L2.8 6.55 Q1.95 4.7 1.25 2.25 L1.25 2.2 Q0.85 1.35 0.2 1.05 L-0.9 0.8 Q-5.2 0.8 -4.95 5.95 -4.95 8.2 -1.0 11.7 -0.15 12.4 -0.15 14.6 -0.05 16.2 0.6 16.85 M3.65 5.7 Q4.65 7.5 8.55 8.75 10.6 9.4 10.6 11.85 10.05 18.45 2.9 18.45 -1.05 18.45 -1.2 15.35 -1.2 12.95 -2.1 12.2 L-3.75 10.7 Q-8.35 17.55 -12.25 17.55 -14.5 17.55 -14.65 15.1 -14.65 12.55 -10.0 9.55 -9.1 9.0 -7.5 6.45 L-5.95 4.15 -5.9 3.35 Q-5.9 2.35 -4.9 1.2 -3.5 -0.45 -1.0 -0.45 1.4 -0.45 2.5 2.1 L3.65 5.7 M-6.05 5.95 L-6.05 5.9 -6.05 5.95 -8.75 9.9 -12.65 12.75 Q-13.5 13.55 -13.5 15.1 -13.5 16.35 -12.2 16.35 -10.05 16.35 -6.65 12.75 L-4.55 9.9 -5.4 8.8 Q-6.05 7.75 -6.05 5.95" fill="#a36a6a" fill-rule="evenodd" stroke="none"/>
  </g>
</svg>