<?xml version="1.0" encoding="UTF-8" standalone="no"?>
<svg xmlns:xlink="http://www.w3.org/1999/xlink" height="24.65px" width="16.9px" xmlns="http://www.w3.org/2000/svg">
  <g transform="matrix(1.0, 0.0, 0.0, 1.0, 21.75, 8.2)">
    <path d="M-15.25 8.0 Q-13.95 8.0 -13.2 8.95 -12.8 9.4 -12.7 9.85 -11.65 8.6 -10.65 8.6 -9.6 8.6 -8.05 11.35 L-5.85 14.15 Q-5.85 15.45 -7.1 15.45 -9.7 15.45 -11.7 13.35 L-13.2 11.25 Q-13.85 11.85 -15.25 12.5 -17.75 13.65 -19.85 13.65 -20.75 13.65 -20.75 12.75 -20.75 12.05 -19.8 11.45 L-17.9 10.2 -17.0 8.9 Q-16.35 8.0 -15.25 8.0" fill="#4b0101" fill-rule="evenodd" stroke="none"/>
    <path d="M-6.65 -6.6 Q-6.65 -6.25 -7.45 -5.25 -8.3 -4.1 -8.9 -4.05 L-9.05 -4.65 -8.6 -6.05 Q-8.05 -7.2 -7.2 -7.2 L-6.65 -6.6 M-13.45 2.85 L-13.4 3.3 Q-13.4 4.05 -14.15 4.05 -15.3 4.05 -15.3 3.1 -15.2 2.45 -14.4 2.45 -13.7 2.45 -13.45 2.85" fill="#ffffff" fill-rule="evenodd" stroke="none"/>
  </g>
</svg>