<?xml version="1.0" encoding="UTF-8" standalone="no"?>
<svg xmlns:xlink="http://www.w3.org/1999/xlink" height="11.45px" width="8.6px" xmlns="http://www.w3.org/2000/svg">
  <g transform="matrix(1.0, 0.0, 0.0, 1.0, -1.5, -1.9)">
    <path d="M9.05 5.8 L8.25 8.5 Q8.25 9.25 9.1 11.85 L9.1 11.9 9.05 12.2 8.65 12.35 Q7.6 12.35 6.2 8.5 L6.2 8.45 Q7.05 4.05 8.15 4.1 8.9 4.1 9.05 5.8 M6.5 2.95 L7.2 3.65 7.2 3.7 5.9 5.6 Q4.55 7.15 4.5 7.9 4.5 12.0 3.05 12.0 2.75 12.0 2.65 11.8 L2.6 11.75 2.5 10.85 2.85 8.55 2.55 6.65 2.6 6.6 Q5.35 2.9 6.4 2.9 L6.5 2.95" fill="#4b0101" fill-rule="evenodd" stroke="none"/>
  </g>
</svg>