<?xml version="1.0" encoding="UTF-8" standalone="no"?>
<svg xmlns:xlink="http://www.w3.org/1999/xlink" height="25.7px" width="50.65px" xmlns="http://www.w3.org/2000/svg">
  <g transform="matrix(1.0, 0.0, 0.0, 1.0, 23.45, 13.85)">
    <path d="M-10.4 0.85 L-5.45 -2.6 -2.05 -5.0 2.25 -7.65 5.5 -9.5 Q8.55 -10.8 11.6 -11.2 L13.35 -11.45 Q17.25 -10.95 17.25 -7.8 17.25 -5.95 14.2 -3.85 11.15 -1.75 7.05 -0.85 L5.0 -0.1 3.6 0.6 Q1.55 1.75 0.15 1.95 L-8.35 3.3 -9.35 3.45 Q-11.15 3.45 -10.9 1.85 L-10.75 1.1 -10.4 0.85" fill="url(#gradient0)" fill-rule="evenodd" stroke="none"/>
    <path d="M0.5 -8.6 Q2.95 -10.1 5.6 -11.05 10.35 -12.85 15.65 -12.85 19.0 -12.85 21.9 -10.55 L24.05 -8.2 Q24.7 -8.05 25.35 -6.6 L26.2 -4.2 Q26.2 -1.5 25.05 -0.3 24.1 0.55 22.55 0.55 21.5 0.55 21.3 0.0 18.8 2.15 14.5 4.1 10.05 6.15 4.6 7.4 -1.3 8.75 -8.35 9.25 L-15.9 9.5 -16.0 9.45 Q-16.3 10.75 -17.8 10.75 L-18.85 10.7 -19.1 10.7 -19.15 10.8 -19.15 10.85 -19.25 10.7 Q-21.5 10.7 -22.45 7.65 L-22.1 5.25 Q-21.6 3.3 -19.9 3.35 -17.95 3.4 -17.55 3.95 L-8.35 -2.15 -5.85 -3.75 Q-3.1 -6.4 0.5 -8.6 M13.35 -11.45 L11.6 -11.2 Q8.55 -10.8 5.5 -9.5 L2.25 -7.65 -2.05 -5.0 -5.45 -2.6 -10.4 0.85 -16.0 4.6 -16.1 6.55 -17.45 4.8 -20.65 5.2 Q-18.4 5.2 -18.25 7.55 L-18.75 9.9 -16.4 8.35 -12.45 8.35 -8.55 8.05 -4.65 7.65 -0.8 6.95 3.0 6.2 6.75 5.2 12.7 3.2 15.15 2.3 18.7 0.4 Q21.5 -1.45 22.85 -4.4 23.95 -6.75 22.3 -8.75 19.65 -10.65 16.55 -11.25 L13.35 -11.45 M16.35 -1.4 Q17.0 -1.15 16.55 -0.6 L15.45 0.85 14.85 0.4 16.35 -1.4 M-4.65 5.35 Q-4.3 6.05 -5.15 6.25 L-6.15 6.15 -6.05 5.05 -5.25 4.8 -4.65 5.35 M22.3 -0.3 Q25.3 -0.3 25.05 -4.15 25.05 -4.95 24.65 -5.8 L24.65 -5.95 Q24.55 -3.2 22.0 -0.65 L22.3 -0.3 M10.95 2.6 Q10.95 1.8 12.1 1.8 12.75 1.8 12.8 2.5 12.8 3.25 11.9 3.25 L11.1 3.0 10.95 2.7 10.95 2.6" fill="#a36a6a" fill-rule="evenodd" stroke="none"/>
    <path d="M-10.4 0.85 L-10.75 1.1 -10.9 1.85 Q-11.15 3.45 -9.35 3.45 L-8.35 3.3 0.15 1.95 Q1.55 1.75 3.6 0.6 L5.0 -0.1 7.05 -0.85 Q11.15 -1.75 14.2 -3.85 17.25 -5.95 17.25 -7.8 17.25 -10.95 13.35 -11.45 L16.55 -11.25 Q19.65 -10.65 22.3 -8.75 21.0 -5.15 20.2 -4.1 15.85 -2.2 15.15 -1.25 14.6 0.05 13.9 0.35 L9.45 1.7 7.75 1.45 Q6.1 1.45 4.85 2.85 L4.2 3.7 Q2.8 4.6 -0.3 4.4 L-3.1 5.25 -4.9 5.0 -5.0 5.0 -4.65 5.35 -5.25 4.8 -6.05 5.05 -6.4 5.1 -6.35 5.45 -8.35 5.85 -13.85 6.15 Q-14.6 6.15 -16.4 7.7 L-18.25 7.55 Q-18.4 5.2 -20.65 5.2 L-17.45 4.8 -16.1 6.55 -16.0 4.6 -10.4 0.85" fill="#e0cbcb" fill-rule="evenodd" stroke="none"/>
    <path d="M22.3 -8.75 Q23.95 -6.75 22.85 -4.4 21.5 -1.45 18.7 0.4 L15.15 2.3 12.7 3.2 6.75 5.2 3.0 6.2 -0.8 6.95 -4.65 7.65 -8.55 8.05 -12.45 8.35 -16.4 8.35 -18.75 9.9 -18.25 7.55 -16.4 7.7 Q-14.6 6.15 -13.85 6.15 L-8.35 5.85 -6.35 5.45 -6.4 5.1 -6.05 5.05 -6.15 6.15 -5.15 6.25 Q-4.3 6.05 -4.65 5.35 L-5.0 5.0 -4.9 5.0 -3.1 5.25 -0.3 4.4 Q2.8 4.6 4.2 3.7 L4.85 2.85 Q6.1 1.45 7.75 1.45 L9.45 1.7 13.9 0.35 Q14.6 0.05 15.15 -1.25 15.85 -2.2 20.2 -4.1 21.0 -5.15 22.3 -8.75 M16.35 -1.4 L14.85 0.4 15.45 0.85 16.55 -0.6 Q17.0 -1.15 16.35 -1.4 M22.3 -0.3 L22.0 -0.65 Q24.55 -3.2 24.65 -5.95 L24.65 -5.8 Q25.05 -4.95 25.05 -4.15 25.3 -0.3 22.3 -0.3 M10.95 2.6 L10.95 2.7 11.1 3.0 11.9 3.25 Q12.8 3.25 12.8 2.5 12.75 1.8 12.1 1.8 10.95 1.8 10.95 2.6" fill="#cca9a9" fill-rule="evenodd" stroke="none"/>
  </g>
  <defs>
    <radialGradient cx="0" cy="0" gradientTransform="matrix(0.0198, -0.0074, 0.003, 0.0079, 2.8, -6.35)" gradientUnits="userSpaceOnUse" id="gradient0" r="819.2" spreadMethod="pad">
      <stop offset="0.47843137254901963" stop-color="#ffffff"></stop>
      <stop offset="0.8823529411764706" stop-color="#f2eaea"></stop>
    </radialGradient>
  </defs>
</svg>