<?xml version="1.0" encoding="UTF-8" standalone="no"?>
<svg xmlns:xlink="http://www.w3.org/1999/xlink" height="25px" width="17.25px" xmlns="http://www.w3.org/2000/svg">
  <g transform="matrix(1.0, 0.0, 0.0, 1.0, 3.85, 8.3)">
    <path d="M8.4 13.35 Q6.5 14.15 4.3 14.1 1.75 14.5 -0.3 13.2 -1.1 12.6 -1.25 11.6 -1.4 10.8 -1.15 10.05 -0.5 8.0 -0.55 5.8 -0.65 3.3 -1.0 0.85 -1.15 -0.5 -0.8 -1.8 -0.15 -4.3 1.95 -5.45 3.7 -6.4 5.6 -5.7 L6.3 -5.2 Q7.1 -4.0 6.85 -2.6 6.45 -0.2 7.15 2.05 L5.3 5.15 Q5.3 6.05 7.15 6.7 9.0 7.3 9.0 10.4 9.0 11.7 8.3 13.1 L8.4 13.35 M4.8 0.45 Q4.35 -4.7 2.55 -4.7 -0.55 -4.7 -0.6 2.1 -0.2 5.7 1.85 5.7 4.4 5.7 4.8 0.45 M0.3 7.7 Q-0.3 8.45 -0.3 8.85 -0.5 10.8 1.35 10.8 L3.7 10.15 Q5.1 9.45 5.1 8.8 5.1 8.3 4.3 7.6 3.3 6.8 2.0 6.8 1.05 6.8 0.3 7.7" fill="#e0cbcb" fill-rule="evenodd" stroke="none"/>
    <path d="M7.15 2.05 Q7.55 3.1 8.3 4.3 9.5 6.1 10.4 8.2 10.8 9.1 10.8 10.1 10.8 12.65 8.4 13.35 L8.3 13.1 Q9.0 11.7 9.0 10.4 9.0 7.3 7.15 6.7 5.3 6.05 5.3 5.15 L7.15 2.05" fill="#cca9a9" fill-rule="evenodd" stroke="none"/>
    <path d="M7.15 2.05 Q6.45 -0.2 6.85 -2.6 7.1 -4.0 6.3 -5.2 L5.6 -5.7 Q3.7 -6.4 1.95 -5.45 -0.15 -4.3 -0.8 -1.8 -1.15 -0.5 -1.0 0.85 -0.65 3.3 -0.55 5.8 -0.5 8.0 -1.15 10.05 -1.4 10.8 -1.25 11.6 -1.1 12.6 -0.3 13.2 1.75 14.5 4.3 14.1 6.5 14.15 8.4 13.35 10.8 12.65 10.8 10.1 10.8 9.1 10.4 8.2 9.5 6.1 8.3 4.3 7.55 3.1 7.15 2.05 M1.4 -6.75 L5.75 -6.9 Q7.25 -6.4 7.75 -4.95 8.4 -2.85 8.2 -1.1 7.95 0.6 8.45 2.2 8.9 3.8 10.6 5.85 12.25 7.9 12.4 10.3 12.6 13.1 10.0 14.2 L7.8 14.95 Q5.55 15.7 3.4 15.7 1.05 15.75 -0.9 14.55 -2.8 13.3 -2.85 11.0 -2.85 9.6 -2.4 8.45 -1.6 6.35 -2.1 4.0 -2.55 1.75 -2.25 -0.35 -1.9 -2.75 -0.75 -4.75 0.0 -6.05 1.4 -6.75" fill="#a36a6a" fill-rule="evenodd" stroke="none"/>
    <path d="M0.3 7.7 Q1.05 6.8 2.0 6.8 3.3 6.8 4.3 7.6 5.1 8.3 5.1 8.8 5.1 9.45 3.7 10.15 L1.35 10.8 Q-0.5 10.8 -0.3 8.85 -0.3 8.45 0.3 7.7 M4.8 0.45 Q4.4 5.7 1.85 5.7 -0.2 5.7 -0.6 2.1 -0.55 -4.7 2.55 -4.7 4.35 -4.7 4.8 0.45" fill="url(#gradient0)" fill-rule="evenodd" stroke="none"/>
  </g>
  <defs>
    <radialGradient cx="0" cy="0" gradientTransform="matrix(0.019, -0.0093, 0.0037, 0.0076, -69.35, -10.1)" gradientUnits="userSpaceOnUse" id="gradient0" r="819.2" spreadMethod="pad">
      <stop offset="0.47843137254901963" stop-color="#ffffff"></stop>
      <stop offset="0.8823529411764706" stop-color="#f2eaea"></stop>
    </radialGradient>
  </defs>
</svg>