<?xml version="1.0" encoding="UTF-8" standalone="no"?>
<svg xmlns:xlink="http://www.w3.org/1999/xlink" height="38.2px" width="21.6px" xmlns="http://www.w3.org/2000/svg">
  <g transform="matrix(1.0, 0.0, 0.0, 1.0, 14.3, 22.35)">
    <path d="M3.15 -20.9 Q3.15 -20.35 2.4 -20.35 L1.7 -20.75 Q1.9 -21.1 2.65 -21.25 3.15 -21.25 3.15 -20.9 M4.1 13.8 L4.3 14.15 Q4.3 14.7 3.85 14.7 L3.6 14.4 Q3.6 13.8 4.1 13.8 M6.3 9.35 Q6.3 10.75 5.4 11.55 L5.2 10.5 Q5.25 8.75 5.95 8.75 6.3 8.75 6.3 9.35 M-4.45 -20.35 L-7.9 -19.25 Q-8.4 -19.25 -8.4 -19.6 -8.4 -20.15 -6.65 -20.75 L-4.0 -21.35 -3.85 -21.25 -3.3 -21.35 -2.8 -20.9 Q-2.8 -20.3 -4.05 -20.3 L-4.45 -20.35 M-13.3 -16.35 Q-13.3 -16.9 -12.1 -17.7 -10.85 -18.45 -10.2 -18.15 -10.55 -17.55 -11.5 -16.7 -12.45 -15.8 -12.9 -15.8 -13.4 -15.8 -13.3 -16.35 M-7.15 13.7 Q-5.35 13.7 -5.35 14.6 L-5.6 14.85 Q-7.55 14.85 -7.55 14.15 -7.55 13.7 -7.15 13.7 M-4.2 11.95 L-4.55 12.3 -5.9 11.55 Q-5.9 11.2 -5.5 11.2 -5.0 11.2 -4.2 11.95" fill="#ffffff" fill-rule="evenodd" stroke="none"/>
  </g>
</svg>