<?xml version="1.0" encoding="UTF-8" standalone="no"?>
<svg xmlns:xlink="http://www.w3.org/1999/xlink" height="24.9px" width="24.4px" xmlns="http://www.w3.org/2000/svg">
  <g transform="matrix(1.0, 0.0, 0.0, 1.0, -2.35, 13.05)">
    <path d="M9.85 -2.5 L7.5 -0.3 Q5.9 0.85 5.05 2.55 L4.55 3.7 Q4.4 4.2 4.55 4.65 L4.6 5.05 Q4.7 6.45 5.65 7.4 7.6 9.45 13.15 9.45 18.0 9.45 18.0 5.9 L17.75 3.1 Q17.75 0.95 20.2 -2.45 L21.95 -5.4 Q22.65 -6.95 22.65 -8.2 21.2 -11.25 18.45 -11.0 L15.1 -10.0 Q13.35 -9.2 12.6 -7.45 L11.55 -5.15 Q10.9 -3.65 9.85 -2.5 M17.7 -12.0 L18.35 -12.05 Q21.25 -12.05 22.8 -10.35 L23.7 -9.0 Q25.2 -9.0 25.75 -2.25 25.75 0.65 22.35 0.65 20.6 0.65 20.2 -0.15 18.9 2.05 18.9 4.0 L19.1 5.9 Q19.1 10.85 13.1 10.85 3.35 10.85 3.35 4.5 3.35 2.25 5.25 0.4 L9.75 -4.2 Q10.8 -5.5 11.85 -8.6 13.3 -11.25 17.7 -12.0 M22.05 -0.25 Q24.55 -0.25 24.75 -2.3 24.75 -4.15 23.8 -7.1 23.4 -4.65 21.4 -1.95 L20.75 -1.05 20.95 -0.7 Q21.1 -0.25 22.05 -0.25" fill="#a36a6a" fill-rule="evenodd" stroke="none"/>
    <path d="M7.5 -0.3 L9.85 -2.5 Q10.9 -1.8 12.7 -1.8 16.15 -1.8 18.25 -4.9 19.7 -7.05 19.7 -8.5 19.7 -9.3 19.15 -10.3 L18.45 -11.0 Q21.2 -11.25 22.65 -8.2 22.65 -6.95 21.95 -5.4 L19.25 -2.1 Q17.55 -0.3 15.45 -0.75 L14.85 -0.7 15.65 1.7 Q16.1 2.9 15.85 4.3 L15.3 5.65 Q12.7 4.2 9.65 4.15 7.0 3.75 4.6 5.05 L4.55 4.65 5.35 4.35 10.65 4.0 Q12.5 4.3 13.6 3.1 13.95 0.8 11.65 0.1 L7.5 -0.3" fill="#e0cbcb" fill-rule="evenodd" stroke="none"/>
    <path d="M4.6 5.05 Q7.0 3.75 9.65 4.15 12.7 4.2 15.3 5.65 L15.85 4.3 Q16.1 2.9 15.65 1.7 L14.85 -0.7 15.45 -0.75 Q17.55 -0.3 19.25 -2.1 L21.95 -5.4 20.2 -2.45 Q17.75 0.95 17.75 3.1 L18.0 5.9 Q18.0 9.45 13.15 9.45 7.6 9.45 5.65 7.4 4.7 6.45 4.6 5.05 M22.05 -0.25 Q21.1 -0.25 20.95 -0.7 L20.75 -1.05 21.4 -1.95 Q23.4 -4.65 23.8 -7.1 24.75 -4.15 24.75 -2.3 24.55 -0.25 22.05 -0.25" fill="#cca9a9" fill-rule="evenodd" stroke="none"/>
    <path d="M7.5 -0.3 L11.65 0.1 Q13.95 0.8 13.6 3.1 12.5 4.3 10.65 4.0 L5.35 4.35 4.55 4.65 Q4.4 4.2 4.55 3.7 L5.05 2.55 Q5.9 0.85 7.5 -0.3 M18.45 -11.0 L19.15 -10.3 Q19.7 -9.3 19.7 -8.5 19.7 -7.05 18.25 -4.9 16.15 -1.8 12.7 -1.8 10.9 -1.8 9.85 -2.5 10.9 -3.65 11.55 -5.15 L12.6 -7.45 Q13.35 -9.2 15.1 -10.0 L18.45 -11.0" fill="url(#gradient0)" fill-rule="evenodd" stroke="none"/>
  </g>
  <defs>
    <radialGradient cx="0" cy="0" gradientTransform="matrix(0.0198, -0.0074, 0.003, 0.0079, -33.7, -3.8)" gradientUnits="userSpaceOnUse" id="gradient0" r="819.2" spreadMethod="pad">
      <stop offset="0.47843137254901963" stop-color="#ffffff"></stop>
      <stop offset="0.8823529411764706" stop-color="#f2eaea"></stop>
    </radialGradient>
  </defs>
</svg>