<?xml version="1.0" encoding="UTF-8" standalone="no"?>
<svg xmlns:xlink="http://www.w3.org/1999/xlink" height="11.1px" width="18.55px" xmlns="http://www.w3.org/2000/svg">
  <g transform="matrix(1.0, 0.0, 0.0, 1.0, 15.55, 10.9)">
    <path d="M0.8 -3.5 Q-1.25 -3.5 -1.25 -4.25 -1.25 -4.95 1.4 -4.95 2.1 -4.95 2.0 -4.25 2.0 -3.5 0.8 -3.5 M-10.25 -8.15 L-13.35 -5.85 -13.95 -6.2 Q-13.95 -6.7 -12.95 -7.7 -11.9 -8.85 -10.95 -8.85 L-10.25 -8.15 M-11.15 -2.55 L-10.25 -1.8 Q-10.25 -1.1 -10.95 -1.1 -12.55 -1.1 -14.1 -2.6 -14.1 -3.2 -13.25 -3.2 -12.25 -3.2 -11.15 -2.55 M-4.4 -7.35 L-5.1 -7.2 Q-6.3 -7.2 -8.15 -6.45 L-8.55 -6.5 -8.7 -6.8 Q-8.7 -8.75 -4.4 -8.75 L-3.8 -8.05 Q-3.8 -7.6 -4.4 -7.35 M-5.15 -3.9 L-3.35 -1.4 Q-3.35 -0.8 -4.05 -0.8 -5.55 -0.8 -5.75 -3.35 -5.75 -3.9 -5.15 -3.9" fill="#a36a6a" fill-rule="evenodd" stroke="none"/>
    <path d="M1.55 -5.3 Q1.55 -4.55 0.35 -4.55 -1.7 -4.55 -1.7 -5.3 -1.7 -6.0 0.95 -6.0 1.65 -6.0 1.55 -5.3 M-13.4 -8.75 Q-12.35 -9.9 -11.4 -9.9 L-10.7 -9.2 -13.8 -6.9 Q-14.0 -6.9 -14.4 -7.25 -14.4 -7.75 -13.4 -8.75 M-14.55 -3.65 Q-14.55 -4.25 -13.7 -4.25 -12.7 -4.25 -11.6 -3.6 L-10.7 -2.85 Q-10.7 -2.15 -11.4 -2.15 -13.0 -2.15 -14.55 -3.65 M-4.25 -9.1 Q-4.25 -8.65 -4.85 -8.4 L-5.55 -8.25 Q-6.75 -8.25 -8.6 -7.5 L-9.0 -7.55 -9.15 -7.85 Q-9.15 -9.8 -4.85 -9.8 L-4.25 -9.1 M-5.6 -4.95 L-3.8 -2.45 Q-3.8 -1.85 -4.5 -1.85 -6.0 -1.85 -6.2 -4.4 -6.2 -4.95 -5.6 -4.95" fill="#ffffcc" fill-rule="evenodd" stroke="none"/>
  </g>
</svg>