<?xml version="1.0" encoding="UTF-8" standalone="no"?>
<svg xmlns:xlink="http://www.w3.org/1999/xlink" height="39px" width="75.55px" xmlns="http://www.w3.org/2000/svg">
  <g transform="matrix(1.0, 0.0, 0.0, 1.0, 42.8, 23.15)">
    <path d="M4.5 -8.75 L4.45 -8.0 3.45 -6.55 1.9 -4.5 Q0.6 -2.75 -1.5 -2.15 L-8.05 2.35 Q-8.65 2.75 -9.5 2.95 L-13.0 3.65 -16.2 3.95 -36.75 3.65 -37.65 3.1 -33.3 3.3 -29.75 3.1 -27.0 2.9 -23.8 2.85 -21.4 2.85 -17.2 2.95 -12.65 2.7 -11.55 2.6 Q-9.7 2.25 -8.2 1.4 L-3.35 -1.8 -1.7 -2.7 Q-0.15 -3.55 1.0 -4.9 L3.4 -7.65 4.5 -8.75 M-1.5 -2.15 L-1.55 -2.3 -1.5 -2.15 M27.05 -21.7 Q26.6 -22.25 27.35 -22.15 L29.2 -21.4 Q30.95 -20.3 31.55 -18.4 31.95 -17.25 31.6 -16.0 L30.65 -12.1 30.1 -9.7 29.55 -6.25 Q29.3 -4.2 28.0 -2.85 L26.45 -1.5 Q25.55 -1.0 24.6 -0.6 23.35 2.1 21.05 3.65 20.25 4.2 19.25 4.45 17.55 4.5 16.55 5.95 15.85 7.0 14.75 7.3 L12.0 8.15 11.0 7.95 Q8.7 10.1 5.7 10.75 -1.2 12.6 -8.5 13.25 L-18.0 13.9 -26.05 14.75 -27.95 14.85 -29.9 14.7 Q-33.15 14.35 -36.25 13.05 -38.45 12.15 -40.15 10.45 L-41.15 9.0 Q-42.15 6.45 -41.65 3.9 -41.55 3.35 -41.15 3.1 -40.15 2.25 -38.95 1.75 L-36.65 1.3 Q-35.35 1.0 -34.4 2.0 L-34.25 2.2 -35.55 2.25 Q-37.35 1.95 -39.1 2.7 -40.85 3.55 -40.9 5.6 -40.95 7.6 -40.05 9.3 L-38.9 10.55 -38.85 10.6 -34.75 12.5 Q-31.8 13.8 -28.0 13.8 L-18.7 13.35 -15.25 11.85 -12.55 10.75 Q-11.45 9.95 -7.45 9.35 -3.5 8.7 1.2 7.25 L1.75 7.1 5.05 6.2 Q7.4 5.75 9.05 3.95 10.0 2.95 10.4 1.6 10.9 0.0 12.35 -0.5 14.15 -0.4 15.15 1.25 16.95 0.95 17.8 -0.55 L18.1 -1.65 Q18.15 -4.05 19.7 -5.55 L19.95 -5.65 22.55 -3.65 Q23.7 -3.95 23.95 -5.05 24.1 -5.9 24.4 -6.75 24.85 -8.0 25.9 -8.45 L27.6 -7.7 Q28.7 -8.95 29.1 -10.65 L29.95 -13.85 30.75 -17.2 Q30.95 -18.25 30.2 -19.05 28.85 -20.55 27.05 -21.7 M18.65 1.1 L15.2 1.9 Q15.25 2.8 14.6 3.55 L13.55 4.4 12.45 5.1 11.35 7.6 Q13.25 7.3 14.9 6.2 17.65 4.35 18.65 1.1 M25.2 -3.2 L24.95 -1.7 Q26.1 -2.0 26.75 -2.85 L28.0 -4.6 Q29.15 -6.35 29.45 -8.55 L27.05 -4.75 Q26.4 -3.6 25.2 -3.2 M22.75 -2.85 L22.4 -1.55 Q22.0 0.0 20.35 0.65 L19.35 1.0 18.4 3.75 Q20.45 3.25 22.0 2.1 22.9 1.4 23.45 0.25 24.2 -1.4 24.55 -3.1 L22.75 -2.85 M1.45 8.05 L-0.6 8.7 -4.95 9.45 Q-10.75 10.5 -15.95 13.05 L-0.05 11.05 6.35 9.6 Q7.7 9.15 9.05 8.2 9.8 7.65 10.4 6.9 L11.7 5.3 9.4 4.9 8.3 5.55 5.35 6.95 1.45 8.05 1.2 7.25 1.45 8.05" fill="#a36a6a" fill-rule="evenodd" stroke="none"/>
    <path d="M-1.5 -2.15 Q0.6 -2.75 1.9 -4.5 L3.45 -6.55 4.45 -8.0 4.5 -8.75 6.35 -9.0 9.45 -9.7 15.65 -11.95 Q17.35 -12.55 19.0 -13.85 L21.65 -16.1 21.75 -16.1 21.7 -16.15 22.55 -17.15 22.65 -16.6 Q20.95 -15.15 19.3 -13.1 L17.45 -11.15 14.9 -9.3 11.25 -7.0 19.55 -10.0 19.85 -8.15 15.05 -3.25 Q11.8 -2.2 9.0 -0.7 7.5 0.15 6.15 1.35 L3.5 3.05 1.15 4.05 -6.4 6.95 -8.55 7.7 -13.1 8.3 -20.6 9.65 -29.3 10.2 -31.8 10.15 -36.75 9.15 -40.55 8.05 -40.05 9.3 Q-40.95 7.6 -40.9 5.6 -40.85 3.55 -39.1 2.7 -37.35 1.95 -35.55 2.25 L-34.25 2.2 -33.3 3.3 -37.65 3.1 -36.75 3.65 Q-38.2 4.0 -38.45 5.9 -38.3 7.55 -27.0 7.9 -15.7 8.2 -15.7 5.05 -15.7 4.65 -16.1 4.1 L-16.2 3.95 -13.0 3.65 -9.5 2.95 Q-8.65 2.75 -8.05 2.35 L-1.5 -2.15 -1.25 -1.35 -1.5 -2.15 M-38.9 10.55 L-38.8 10.6 -38.85 10.6 -38.9 10.55 M19.7 -5.55 L19.9 -5.7 19.95 -5.65 19.7 -5.55 M20.4 -10.65 L22.8 -12.7 21.05 -9.0 20.4 -10.65 M-36.3 6.45 L-36.3 6.5 -36.35 6.5 -36.3 6.45" fill="#e0cbcb" fill-rule="evenodd" stroke="none"/>
    <path d="M21.65 -16.1 L21.7 -16.15 21.75 -16.1 21.65 -16.1 M22.55 -17.15 L25.75 -19.6 Q26.7 -20.4 27.05 -21.7 28.85 -20.55 30.2 -19.05 30.95 -18.25 30.75 -17.2 L29.95 -13.85 29.1 -10.65 Q28.7 -8.95 27.6 -7.7 L25.9 -8.45 Q24.85 -8.0 24.4 -6.75 24.1 -5.9 23.95 -5.05 23.7 -3.95 22.55 -3.65 L19.95 -5.65 19.9 -5.7 19.7 -5.55 Q18.15 -4.05 18.1 -1.65 L17.8 -0.55 Q16.95 0.95 15.15 1.25 14.15 -0.4 12.35 -0.5 10.9 0.0 10.4 1.6 10.0 2.95 9.05 3.95 7.4 5.75 5.05 6.2 L1.75 7.1 1.2 7.25 Q-3.5 8.7 -7.45 9.35 -11.45 9.95 -12.55 10.75 L-15.25 11.85 -18.7 13.35 -28.0 13.8 Q-31.8 13.8 -34.75 12.5 L-38.85 10.6 -38.8 10.6 -38.9 10.55 -40.05 9.3 -40.55 8.05 -36.75 9.15 -31.8 10.15 -29.3 10.2 -20.6 9.65 -13.1 8.3 -8.55 7.7 -6.4 6.95 1.15 4.05 3.5 3.05 6.15 1.35 Q7.5 0.15 9.0 -0.7 11.8 -2.2 15.05 -3.25 L19.85 -8.15 19.55 -10.0 11.25 -7.0 14.9 -9.3 17.45 -11.15 19.3 -13.1 Q20.95 -15.15 22.65 -16.6 L22.55 -17.15 M20.4 -10.65 L21.05 -9.0 22.8 -12.7 20.4 -10.65 M22.75 -2.85 L24.55 -3.1 Q24.2 -1.4 23.45 0.25 22.9 1.4 22.0 2.1 20.45 3.25 18.4 3.75 L19.35 1.0 20.35 0.65 Q22.0 0.0 22.4 -1.55 L22.75 -2.85 M25.2 -3.2 Q26.4 -3.6 27.05 -4.75 L29.45 -8.55 Q29.15 -6.35 28.0 -4.6 L26.75 -2.85 Q26.1 -2.0 24.95 -1.7 L25.2 -3.2 M18.65 1.1 Q17.65 4.35 14.9 6.2 13.25 7.3 11.35 7.6 L12.45 5.1 13.55 4.4 14.6 3.55 Q15.25 2.8 15.2 1.9 L18.65 1.1 M1.45 8.05 L5.35 6.95 8.3 5.55 9.4 4.9 11.7 5.3 10.4 6.9 Q9.8 7.65 9.05 8.2 7.7 9.15 6.35 9.6 L-0.05 11.05 -15.95 13.05 Q-10.75 10.5 -4.95 9.45 L-0.6 8.7 1.45 8.05 1.8 9.3 1.45 8.05" fill="#cca9a9" fill-rule="evenodd" stroke="none"/>
    <path d="M-36.75 3.65 L-16.2 3.95 -16.1 4.1 Q-15.7 4.65 -15.7 5.05 -15.7 8.2 -27.0 7.9 -38.3 7.55 -38.45 5.9 -38.2 4.0 -36.75 3.65 M-36.3 6.45 L-36.35 6.5 -36.3 6.5 -36.3 6.45" fill="url(#gradient0)" fill-rule="evenodd" stroke="none"/>
  </g>
  <defs>
    <radialGradient cx="0" cy="0" gradientTransform="matrix(0.0237, 1.0E-4, 0.0, 0.0034, -30.4, 4.4)" gradientUnits="userSpaceOnUse" id="gradient0" r="819.2" spreadMethod="pad">
      <stop offset="0.47843137254901963" stop-color="#ffffff"></stop>
      <stop offset="0.8823529411764706" stop-color="#f2eaea"></stop>
    </radialGradient>
  </defs>
</svg>