<?xml version="1.0" encoding="UTF-8" standalone="no"?>
<svg xmlns:xlink="http://www.w3.org/1999/xlink" height="17.45px" width="16.4px" xmlns="http://www.w3.org/2000/svg">
  <g transform="matrix(1.0, 0.0, 0.0, 1.0, 0.6, 12.75)">
    <path d="M9.0 -9.8 L10.3 -9.7 Q11.45 -9.7 12.05 -8.15 12.05 -7.3 11.05 -7.3 L8.6 -9.05 Q8.6 -9.8 9.0 -9.8 M0.6 -9.55 Q0.6 -10.65 4.15 -10.65 4.6 -10.65 4.6 -9.8 4.6 -8.75 1.7 -8.75 L0.7 -8.9 0.6 -9.55 M4.7 -3.1 Q6.2 -3.1 6.95 -1.5 6.95 -0.6 6.1 -0.6 3.85 -0.6 2.9 -2.45 2.9 -3.15 3.55 -3.2 L4.7 -3.1 M11.15 -2.9 Q10.6 -3.5 10.6 -3.85 L10.65 -4.2 12.35 -4.05 Q12.8 -4.05 13.4 -3.5 L14.0 -2.65 Q14.0 -2.0 13.25 -2.0 11.95 -2.0 11.15 -2.9 M13.95 0.5 Q14.4 0.5 14.8 3.1 14.8 3.7 14.3 3.7 13.35 3.7 13.0 2.45 L12.8 1.1 Q12.8 0.5 13.95 0.5" fill="#a36a6a" fill-rule="evenodd" stroke="none"/>
    <path d="M10.1 -10.8 Q11.25 -10.8 11.85 -9.25 11.85 -8.4 10.85 -8.4 L8.4 -10.15 Q8.4 -10.9 8.8 -10.9 L10.1 -10.8 M0.5 -10.0 L0.4 -10.65 Q0.4 -11.75 3.95 -11.75 4.4 -11.75 4.4 -10.9 4.4 -9.85 1.5 -9.85 L0.5 -10.0 M4.5 -4.2 Q6.0 -4.2 6.75 -2.6 6.75 -1.7 5.9 -1.7 3.65 -1.7 2.7 -3.55 2.7 -4.25 3.35 -4.3 L4.5 -4.2 M10.95 -4.0 Q10.4 -4.6 10.4 -4.95 L10.45 -5.3 12.15 -5.15 Q12.6 -5.15 13.2 -4.6 L13.8 -3.75 Q13.8 -3.1 13.05 -3.1 11.75 -3.1 10.95 -4.0 M14.1 2.6 Q13.15 2.6 12.8 1.35 L12.6 0.0 Q12.6 -0.6 13.75 -0.6 14.2 -0.6 14.6 2.0 14.6 2.6 14.1 2.6" fill="#ffffcc" fill-rule="evenodd" stroke="none"/>
  </g>
</svg>