<?xml version="1.0" encoding="UTF-8" standalone="no"?>
<svg xmlns:xlink="http://www.w3.org/1999/xlink" height="13.05px" width="17.8px" xmlns="http://www.w3.org/2000/svg">
  <g transform="matrix(1.0, 0.0, 0.0, 1.0, 6.45, 11.35)">
    <path d="M4.95 -9.45 Q6.35 -9.45 6.35 -8.55 6.35 -7.65 3.4 -7.65 2.15 -7.65 2.15 -8.25 2.15 -9.45 4.95 -9.45 M5.0 -2.7 Q5.45 -2.7 7.2 0.0 7.2 0.7 6.7 0.7 5.25 0.7 4.35 -1.9 4.35 -2.7 5.0 -2.7 M1.05 -5.3 Q-0.2 -2.9 -0.65 -2.9 -1.45 -2.9 -1.5 -3.65 -0.5 -5.85 0.45 -5.85 1.05 -5.85 1.05 -5.3 M6.2 -5.6 Q6.2 -6.2 7.55 -6.2 8.6 -6.2 9.55 -5.5 L10.35 -4.55 Q10.35 -3.9 9.75 -3.9 9.2 -3.9 7.7 -4.6 6.2 -5.35 6.2 -5.6 M-4.1 -0.45 Q-5.1 -0.45 -5.0 -2.25 -5.0 -4.5 -3.9 -4.5 -3.45 -4.5 -3.45 -3.8 L-4.1 -0.45" fill="#a36a6a" fill-rule="evenodd" stroke="none"/>
    <path d="M9.1 -6.4 Q9.9 -5.85 9.9 -5.45 9.9 -4.8 9.3 -4.8 8.75 -4.8 7.25 -5.5 5.75 -6.25 5.75 -6.5 5.75 -7.1 7.1 -7.1 8.15 -7.1 9.1 -6.4 M4.5 -10.35 Q5.9 -10.35 5.9 -9.45 5.9 -8.55 2.95 -8.55 1.7 -8.55 1.7 -9.15 1.7 -10.35 4.5 -10.35 M0.6 -6.2 Q-0.65 -3.8 -1.1 -3.8 -1.9 -3.8 -1.95 -4.55 -0.95 -6.75 0.0 -6.75 0.6 -6.75 0.6 -6.2 M4.55 -3.6 Q5.0 -3.6 6.75 -0.9 6.75 -0.2 6.25 -0.2 4.8 -0.2 3.9 -2.8 3.9 -3.6 4.55 -3.6 M-3.9 -4.7 L-4.55 -1.35 Q-5.55 -1.35 -5.45 -3.15 -5.45 -5.4 -4.35 -5.4 -3.9 -5.4 -3.9 -4.7" fill="#ffffcc" fill-rule="evenodd" stroke="none"/>
  </g>
</svg>