<?xml version="1.0" encoding="UTF-8" standalone="no"?>
<svg xmlns:xlink="http://www.w3.org/1999/xlink" height="36.45px" width="45.3px" xmlns="http://www.w3.org/2000/svg">
  <g transform="matrix(1.0, 0.0, 0.0, 1.0, 22.5, 21.2)">
    <path d="M18.3 -17.45 L20.3 -14.75 19.55 -12.95 19.15 -11.8 18.3 -9.8 Q17.8 -8.95 16.35 -8.35 16.8 -9.15 16.05 -8.95 L15.8 -8.8 15.7 -8.15 12.45 -7.6 Q6.9 -7.05 4.8 -5.55 3.65 -4.7 2.2 -2.6 0.8 -0.6 -0.45 0.2 -7.95 5.6 -11.75 5.6 L-15.2 5.6 Q-15.45 5.65 -15.45 6.6 -15.4 8.8 -15.0 9.9 L-14.95 9.85 -14.9 10.35 -19.1 10.6 Q-20.0 10.85 -20.55 11.55 L-20.0 9.85 -17.7 8.3 -18.65 8.35 Q-16.55 2.45 -12.6 -1.95 L-12.75 -1.4 Q-12.75 0.25 -10.85 0.25 -9.9 0.25 -7.3 -1.6 L-4.4 -3.8 Q0.45 -6.5 3.75 -7.8 13.55 -11.75 13.55 -16.15 13.55 -18.25 10.65 -19.05 L9.95 -19.0 12.15 -19.15 Q16.05 -19.15 18.25 -17.4 L18.3 -17.45" fill="#e0cbcb" fill-rule="evenodd" stroke="none"/>
    <path d="M-12.6 -1.95 L-12.35 -2.35 -10.35 -5.0 -10.15 -5.25 -10.05 -5.4 Q-2.25 -15.15 5.65 -17.95 L9.95 -19.0 10.65 -19.05 Q13.55 -18.25 13.55 -16.15 13.55 -11.75 3.75 -7.8 0.45 -6.5 -4.4 -3.8 L-7.3 -1.6 Q-9.9 0.25 -10.85 0.25 -12.75 0.25 -12.75 -1.4 L-12.6 -1.95" fill="url(#gradient0)" fill-rule="evenodd" stroke="none"/>
    <path d="M18.25 -17.4 L18.25 -17.45 18.3 -17.45 18.25 -17.4 M20.3 -14.75 L20.4 -14.45 20.45 -14.2 20.75 -13.05 20.8 -12.0 Q20.8 -4.9 7.4 -0.2 2.95 1.35 -5.15 4.9 L-6.65 5.45 -13.95 10.4 -14.7 9.45 Q-14.75 9.4 -14.8 9.5 L-14.95 9.85 -15.0 9.9 Q-15.4 8.8 -15.45 6.6 -15.45 5.65 -15.2 5.6 L-11.75 5.6 Q-7.95 5.6 -0.45 0.2 0.8 -0.6 2.2 -2.6 3.65 -4.7 4.8 -5.55 6.9 -7.05 12.45 -7.6 L15.7 -8.15 15.9 -7.95 16.35 -8.35 Q17.8 -8.95 18.3 -9.8 L19.15 -11.8 19.75 -10.85 19.55 -12.95 20.3 -14.75 M-14.9 10.35 L-14.0 12.25 -14.8 13.25 Q-15.5 11.4 -17.55 11.2 L-18.45 11.4 -19.15 11.1 -20.55 11.55 Q-20.0 10.85 -19.1 10.6 L-14.9 10.35 M3.3 -0.65 L3.2 -0.95 Q3.1 -1.1 2.85 -1.1 2.45 -1.1 1.95 -0.15 L2.1 0.25 2.45 0.35 Q3.3 0.35 3.3 -0.65 M7.55 0.8 L5.75 2.55 Q2.25 6.15 0.35 6.15 -0.45 6.15 -0.45 5.1 L-0.1 3.9 7.55 0.8" fill="#cca9a9" fill-rule="evenodd" stroke="none"/>
    <path d="M18.3 -17.45 L18.25 -17.45 18.25 -17.4 Q16.05 -19.15 12.15 -19.15 L9.95 -19.0 5.65 -17.95 Q-2.25 -15.15 -10.05 -5.4 L-10.15 -5.25 -10.35 -5.0 -12.35 -2.35 -12.6 -1.95 Q-16.55 2.45 -18.65 8.35 L-17.7 8.3 -20.0 9.85 -20.55 11.55 -19.15 11.1 -18.45 11.4 -17.55 11.2 Q-15.5 11.4 -14.8 13.25 L-14.0 12.25 -14.9 10.35 -14.95 9.85 -14.8 9.5 Q-14.75 9.4 -14.7 9.45 L-13.95 10.4 -6.65 5.45 -5.15 4.9 Q2.95 1.35 7.4 -0.2 20.8 -4.9 20.8 -12.0 L20.75 -13.05 20.45 -14.2 20.4 -14.45 20.3 -14.75 18.3 -17.45 M3.3 -0.65 Q3.3 0.35 2.45 0.35 L2.1 0.25 1.95 -0.15 Q2.45 -1.1 2.85 -1.1 3.1 -1.1 3.2 -0.95 L3.3 -0.65 M15.7 -8.15 L15.8 -8.8 16.05 -8.95 Q16.8 -9.15 16.35 -8.35 L15.9 -7.95 15.7 -8.15 M19.15 -11.8 L19.55 -12.95 19.75 -10.85 19.15 -11.8 M21.8 -12.0 Q21.8 -4.45 9.6 0.05 2.7 7.2 1.05 7.2 -1.75 7.2 -1.35 5.15 L-1.3 4.4 -3.6 5.4 -9.7 8.0 -13.6 10.95 -13.0 12.0 Q-13.0 12.8 -13.25 13.05 L-14.5 13.95 -17.15 14.25 Q-19.5 14.25 -20.65 13.0 L-21.2 12.4 -21.5 11.0 Q-21.5 9.95 -21.2 9.6 L-19.65 8.45 -19.55 8.15 Q-18.35 3.0 -11.45 -5.7 0.0 -20.2 12.6 -20.2 18.55 -20.2 20.75 -16.4 21.8 -14.55 21.8 -12.0 M7.55 0.8 L-0.1 3.9 -0.45 5.1 Q-0.45 6.15 0.35 6.15 2.25 6.15 5.75 2.55 L7.55 0.8" fill="#a36a6a" fill-rule="evenodd" stroke="none"/>
  </g>
  <defs>
    <radialGradient cx="0" cy="0" gradientTransform="matrix(0.019, -0.0093, 0.0037, 0.0076, -1.4, -12.9)" gradientUnits="userSpaceOnUse" id="gradient0" r="819.2" spreadMethod="pad">
      <stop offset="0.47843137254901963" stop-color="#ffffff"></stop>
      <stop offset="0.8823529411764706" stop-color="#f2eaea"></stop>
    </radialGradient>
  </defs>
</svg>