<?xml version="1.0" encoding="UTF-8" standalone="no"?>
<svg xmlns:xlink="http://www.w3.org/1999/xlink" height="31.45px" width="17.95px" xmlns="http://www.w3.org/2000/svg">
  <g transform="matrix(1.0, 0.0, 0.0, 1.0, 9.85, 21.85)">
    <path d="M4.55 -20.5 Q4.55 -20.05 3.95 -20.05 L3.35 -20.4 4.15 -20.8 Q4.55 -20.8 4.55 -20.5 M5.3 7.75 L5.5 8.05 Q5.5 8.5 5.1 8.5 L4.9 8.25 Q4.9 7.75 5.3 7.75 M7.1 4.1 Q7.1 5.25 6.4 5.9 L6.2 5.1 Q6.25 3.65 6.85 3.65 L7.1 4.1 M-4.85 -19.45 Q-4.85 -19.9 -3.45 -20.4 L-1.25 -20.85 -1.15 -20.8 -0.7 -20.85 -0.3 -20.5 Q-0.3 -20.0 -1.35 -20.0 L-1.65 -20.05 -4.45 -19.15 Q-4.85 -19.15 -4.85 -19.45 M-7.85 -17.9 Q-6.85 -18.5 -6.3 -18.3 L-7.35 -17.05 -8.5 -16.35 Q-8.95 -16.35 -8.85 -16.8 -8.85 -17.25 -7.85 -17.9 M-2.6 8.6 Q-4.15 8.6 -4.15 8.05 -4.15 7.65 -3.8 7.65 -2.4 7.65 -2.4 8.4 L-2.6 8.6 M-1.45 6.25 L-1.7 6.5 Q-2.25 6.5 -2.85 5.9 L-2.5 5.65 Q-2.1 5.65 -1.45 6.25" fill="#ffffff" fill-rule="evenodd" stroke="none"/>
  </g>
</svg>