<?xml version="1.0" encoding="UTF-8" standalone="no"?>
<svg xmlns:xlink="http://www.w3.org/1999/xlink" height="23.9px" width="117.95px" xmlns="http://www.w3.org/2000/svg">
  <g id="shape0" transform="matrix(1.0, 0.0, 0.0, 1.0, 58.9, 18.1)">
    <path d="M58.05 -8.15 Q58.05 -3.8 47.8 -2.45 33.2 0.55 20.3 2.25 L-10.55 4.4 -35.55 4.8 Q-39.9 4.8 -48.9 2.5 -57.9 0.2 -57.9 -0.95 -57.9 -2.25 -53.25 -4.3 -48.6 -6.35 -43.35 -7.35 -41.2 -7.75 -36.35 -9.4 L-28.2 -11.85 Q-21.2 -13.45 -6.45 -15.15 10.1 -17.1 20.4 -17.1 35.7 -17.1 46.55 -14.7 58.05 -12.15 58.05 -8.15" fill="#660000" fill-rule="evenodd" stroke="none"/>
  </g>
</svg>