<?xml version="1.0" encoding="UTF-8" standalone="no"?>
<svg xmlns:xlink="http://www.w3.org/1999/xlink" height="545.3px" width="710.5px" xmlns="http://www.w3.org/2000/svg">
  <g transform="matrix(1.0, 0.0, 0.0, 1.0, 101.4, 97.0)">
    <clipPath id="clipPath0" transform="matrix(1.0, 0.0, 0.0, 1.0, 0.0, 0.0)">
      <path d="M-101.1 216.3 L-86.55 289.25 452.2 181.9 437.65 108.95 -101.1 216.3" fill="#000000" fill-rule="evenodd" stroke="none"/>
      <path d="M-101.1 216.3 L437.65 108.95 452.2 181.9 -86.55 289.25 -101.1 216.3 Z" fill="none" stroke="#000000" stroke-linecap="round" stroke-linejoin="round" stroke-opacity="0.0" stroke-width="1.0"/>
    </clipPath>
    <g clip-path="url(#clipPath0)">
      <use data-characterId="492" height="132.0" transform="matrix(1.0, 0.0, 0.0, 1.0, -68.4, 112.5)" width="602.55" xlink:href="#shape0"/>
    </g>
    <use data-characterId="493" height="103.85" transform="matrix(1.0, 0.0, 0.0, 1.0, 40.2, 129.45)" width="351.7" xlink:href="#shape1"/>
  </g>
  <defs>
    <g id="shape0" transform="matrix(1.0, 0.0, 0.0, 1.0, 68.4, -112.5)">
      <path d="M534.15 112.5 L233.2 178.85 Q-67.85 245.05 -68.4 244.5 -37.55 231.75 45.2 210.95 118.55 192.5 219.45 171.0 313.0 151.1 400.4 134.85 488.2 118.5 534.15 112.5" fill="#000000" fill-rule="evenodd" stroke="none"/>
    </g>
    <g id="shape1" transform="matrix(1.0, 0.0, 0.0, 1.0, -40.2, -129.45)">
      <path d="M216.5 156.4 L214.0 153.0 Q215.85 153.1 218.4 155.15 L223.5 159.4 Q226.75 160.75 232.55 161.4 239.4 162.2 251.2 166.1 L251.8 167.3 251.45 168.7 248.2 169.1 Q230.75 169.1 221.6 161.85 218.8 159.6 216.5 156.4" fill="url(#gradient0)" fill-rule="evenodd" stroke="none"/>
      <path d="M246.3 170.7 Q249.5 170.35 253.95 175.3 261.7 184.0 263.0 185.1 L274.05 193.4 Q280.3 198.5 282.5 202.4 282.3 203.0 281.3 203.4 271.45 196.2 262.9 189.25 246.1 175.6 246.1 172.0 L246.2 170.6 246.3 170.7" fill="url(#gradient1)" fill-rule="evenodd" stroke="none"/>
      <path d="M295.0 129.45 Q295.4 129.55 295.4 130.8 295.4 134.55 290.05 146.75 284.65 159.05 280.6 164.3 279.3 163.85 278.95 162.7 278.8 162.25 278.8 161.2 278.8 155.55 284.9 143.3 291.0 131.0 294.6 129.6 L295.0 129.45" fill="url(#gradient2)" fill-rule="evenodd" stroke="none"/>
      <path d="M331.15 142.8 Q323.75 149.95 319.6 153.0 L318.35 152.8 Q318.0 152.65 318.0 151.4 318.0 148.8 328.6 140.65 338.9 132.7 341.9 132.3 L331.15 142.8" fill="url(#gradient3)" fill-rule="evenodd" stroke="none"/>
      <path d="M334.7 152.8 L334.7 151.0 361.35 156.75 391.9 163.8 391.9 165.0 391.9 165.25 390.5 165.5 Q386.45 165.5 361.6 159.6 338.65 154.15 334.7 152.8" fill="url(#gradient4)" fill-rule="evenodd" stroke="none"/>
      <path d="M80.3 207.75 Q74.6 207.3 62.5 204.7 46.6 201.2 40.2 197.8 L40.4 197.45 40.6 197.2 62.3 198.7 Q81.5 201.3 82.7 207.2 L83.1 207.5 Q83.35 207.8 82.3 207.8 L81.3 207.2 80.3 207.75" fill="url(#gradient5)" fill-rule="evenodd" stroke="none"/>
      <path d="M82.3 207.8 L82.9 208.8 Q79.15 211.1 74.65 214.95 L66.95 221.7 Q57.1 229.95 46.6 233.3 L46.2 232.7 Q51.25 229.4 63.8 219.15 73.2 211.4 80.3 207.75 L81.3 207.2 82.3 207.8" fill="url(#gradient6)" fill-rule="evenodd" stroke="none"/>
      <path d="M127.35 199.75 Q127.7 200.35 127.7 201.8 127.7 203.45 120.25 213.7 111.9 225.15 106.2 228.5 L116.1 213.15 125.9 198.4 127.35 199.75" fill="url(#gradient7)" fill-rule="evenodd" stroke="none"/>
      <path d="M177.4 187.55 Q177.0 188.1 175.7 188.1 172.3 188.1 157.55 182.85 139.8 176.5 135.1 170.5 138.95 170.95 154.5 176.55 171.4 182.65 177.7 186.5 L177.4 187.55" fill="url(#gradient8)" fill-rule="evenodd" stroke="none"/>
    </g>
    <linearGradient gradientTransform="matrix(-0.0127, -0.0073, 0.0034, -0.006, 230.15, 160.55)" gradientUnits="userSpaceOnUse" id="gradient0" spreadMethod="pad" x1="-819.2" x2="819.2">
      <stop offset="0.0" stop-color="#000000"/>
      <stop offset="1.0" stop-color="#41ffc3" stop-opacity="0.9098039"/>
    </linearGradient>
    <linearGradient gradientTransform="matrix(0.0139, 0.0139, -0.0027, 0.0027, 264.25, 187.65)" gradientUnits="userSpaceOnUse" id="gradient1" spreadMethod="pad" x1="-819.2" x2="819.2">
      <stop offset="0.0" stop-color="#000000"/>
      <stop offset="1.0" stop-color="#41ffc3" stop-opacity="0.9098039"/>
    </linearGradient>
    <linearGradient gradientTransform="matrix(0.0051, -0.0088, 0.0039, 0.0023, 284.55, 150.7)" gradientUnits="userSpaceOnUse" id="gradient2" spreadMethod="pad" x1="-819.2" x2="819.2">
      <stop offset="0.0" stop-color="#000000"/>
      <stop offset="1.0" stop-color="#41ffc3" stop-opacity="0.9098039"/>
    </linearGradient>
    <linearGradient gradientTransform="matrix(0.0074, -0.0074, 0.0019, 0.0019, 329.3, 141.8)" gradientUnits="userSpaceOnUse" id="gradient3" spreadMethod="pad" x1="-819.2" x2="819.2">
      <stop offset="0.0" stop-color="#000000"/>
      <stop offset="1.0" stop-color="#41ffc3" stop-opacity="0.9098039"/>
    </linearGradient>
    <linearGradient gradientTransform="matrix(0.0202, 0.0053, -7.0E-4, 0.0025, 367.3, 159.35)" gradientUnits="userSpaceOnUse" id="gradient4" spreadMethod="pad" x1="-819.2" x2="819.2">
      <stop offset="0.0" stop-color="#000000"/>
      <stop offset="1.0" stop-color="#41ffc3" stop-opacity="0.9098039"/>
    </linearGradient>
    <linearGradient gradientTransform="matrix(-0.0168, -0.0045, 0.0011, -0.004, 61.5, 201.2)" gradientUnits="userSpaceOnUse" id="gradient5" spreadMethod="pad" x1="-819.2" x2="819.2">
      <stop offset="0.0" stop-color="#000000"/>
      <stop offset="1.0" stop-color="#41ffc3" stop-opacity="0.9098039"/>
    </linearGradient>
    <linearGradient gradientTransform="matrix(-0.0156, 0.0156, -0.0039, -0.0039, 65.5, 219.8)" gradientUnits="userSpaceOnUse" id="gradient6" spreadMethod="pad" x1="-819.2" x2="819.2">
      <stop offset="0.0" stop-color="#000000"/>
      <stop offset="1.0" stop-color="#41ffc3" stop-opacity="0.9098039"/>
    </linearGradient>
    <linearGradient gradientTransform="matrix(-0.0117, 0.0154, -0.0023, -0.0018, 117.4, 213.55)" gradientUnits="userSpaceOnUse" id="gradient7" spreadMethod="pad" x1="-819.2" x2="819.2">
      <stop offset="0.0" stop-color="#000000"/>
      <stop offset="1.0" stop-color="#41ffc3" stop-opacity="0.9098039"/>
    </linearGradient>
    <linearGradient gradientTransform="matrix(-0.0147, -0.0085, 0.0027, -0.0046, 153.0, 177.35)" gradientUnits="userSpaceOnUse" id="gradient8" spreadMethod="pad" x1="-819.2" x2="819.2">
      <stop offset="0.0" stop-color="#000000"/>
      <stop offset="1.0" stop-color="#41ffc3" stop-opacity="0.9098039"/>
    </linearGradient>
  </defs>
</svg>
