<?xml version="1.0" encoding="UTF-8" standalone="no"?>
<svg xmlns:xlink="http://www.w3.org/1999/xlink" height="545.3px" width="710.5px" xmlns="http://www.w3.org/2000/svg">
  <g transform="matrix(1.0, 0.0, 0.0, 1.0, 101.4, 97.0)">
    <use data-characterId="508" height="334.8" transform="matrix(1.0, 0.0, 0.0, 1.0, -68.4, 12.1)" width="602.55" xlink:href="#morphshape0"/>
  </g>
  <defs>
    <g id="morphshape0" transform="matrix(1.0, 0.0, 0.0, 1.0, 68.4, -12.1)">
      <path d="M-68.4 244.5 Q-56.8 248.75 -45.25 253.0 L-11.55 264.85 Q7.45 271.35 22.1 275.8 51.85 284.9 77.35 290.0 87.2 291.75 97.0 293.45 132.6 298.75 169.0 296.85 205.25 295.0 250.9 285.6 280.1 279.6 306.5 271.9 367.8 254.1 413.9 227.35 438.4 213.15 459.8 195.8 488.85 172.3 512.25 143.05 523.9 128.5 534.15 112.5 L528.0 110.55 Q464.35 90.75 406.65 79.6 364.9 71.5 326.25 67.95 292.35 64.85 260.8 65.25 221.0 65.75 185.0 71.8 141.55 79.1 103.65 94.55 62.25 111.4 27.0 138.3 10.4 150.95 -4.8 165.8 -20.65 181.2 -36.9 201.4 -52.45 220.75 -68.4 244.5" fill="#000000" fill-rule="evenodd" stroke="none"/>
      <path d="M-68.4 244.5 Q-52.45 220.75 -36.9 201.4 -20.65 181.2 -4.8 165.8 10.4 150.95 27.0 138.3 62.25 111.4 103.65 94.55 141.55 79.1 185.0 71.8 221.0 65.75 260.8 65.25 292.35 64.85 326.25 67.95 364.9 71.5 406.65 79.6 464.35 90.75 528.0 110.55 L534.15 112.5 Q523.9 128.5 512.25 143.05 488.85 172.3 459.8 195.8 438.4 213.15 413.9 227.35 367.8 254.1 306.5 271.9 280.1 279.6 250.9 285.6 205.25 295.0 169.0 296.85 132.6 298.75 97.0 293.45 87.2 291.75 77.35 290.0 51.85 284.9 22.1 275.8 7.45 271.35 -11.55 264.85 L-45.25 253.0 Q-56.8 248.75 -68.4 244.5 Z" fill="none" stroke="#000000" stroke-linecap="round" stroke-linejoin="round" stroke-opacity="0.0" stroke-width="1.0"/>
    </g>
  </defs>
</svg>
