<?xml version="1.0" encoding="UTF-8" standalone="no"?>
<svg xmlns:xlink="http://www.w3.org/1999/xlink" height="545.3px" width="710.5px" xmlns="http://www.w3.org/2000/svg">
  <g transform="matrix(1.0, 0.0, 0.0, 1.0, 101.4, 97.0)">
    <clipPath id="clipPath0" transform="matrix(1.0, 0.0, 0.0, 1.0, 0.0, 0.0)">
      <path d="M-100.9 216.25 L-86.35 289.2 361.7 199.95 347.15 127.0 -100.9 216.25" fill="#000000" fill-rule="evenodd" stroke="none"/>
      <path d="M-100.9 216.25 L347.15 127.0 361.7 199.95 -86.35 289.2 -100.9 216.25 Z" fill="none" stroke="#000000" stroke-linecap="round" stroke-linejoin="round" stroke-opacity="0.0" stroke-width="1.0"/>
    </clipPath>
    <g clip-path="url(#clipPath0)">
      <use data-characterId="492" height="132.0" transform="matrix(1.0, 0.0, 0.0, 1.0, -68.4, 112.5)" width="602.55" xlink:href="#shape0"/>
    </g>
  </g>
  <defs>
    <g id="shape0" transform="matrix(1.0, 0.0, 0.0, 1.0, 68.4, -112.5)">
      <path d="M534.15 112.5 L233.2 178.85 Q-67.85 245.05 -68.4 244.5 -37.55 231.75 45.2 210.95 118.55 192.5 219.45 171.0 313.0 151.1 400.4 134.85 488.2 118.5 534.15 112.5" fill="#000000" fill-rule="evenodd" stroke="none"/>
    </g>
  </defs>
</svg>
