<?xml version="1.0" encoding="UTF-8" standalone="no"?>
<svg xmlns:xlink="http://www.w3.org/1999/xlink" height="545.3px" width="710.5px" xmlns="http://www.w3.org/2000/svg">
  <g transform="matrix(1.0, 0.0, 0.0, 1.0, 101.4, 97.0)">
    <clipPath id="clipPath0" transform="matrix(1.0, 0.0, 0.0, 1.0, 0.0, 0.0)">
      <path d="M-101.35 216.35 L-86.8 289.3 555.55 161.35 541.0 88.4 -101.35 216.35" fill="#000000" fill-rule="evenodd" stroke="none"/>
      <path d="M-101.35 216.35 L541.0 88.4 555.55 161.35 -86.8 289.3 -101.35 216.35 Z" fill="none" stroke="#000000" stroke-linecap="round" stroke-linejoin="round" stroke-opacity="0.0" stroke-width="1.0"/>
    </clipPath>
    <g clip-path="url(#clipPath0)">
      <use data-characterId="492" height="132.0" transform="matrix(1.0, 0.0, 0.0, 1.0, -68.4, 112.5)" width="602.55" xlink:href="#shape0"/>
    </g>
    <use data-characterId="494" height="158.6" transform="matrix(1.0, 0.0, 0.0, 1.0, 20.05, 108.4)" width="391.45" xlink:href="#shape1"/>
  </g>
  <defs>
    <g id="shape0" transform="matrix(1.0, 0.0, 0.0, 1.0, 68.4, -112.5)">
      <path d="M534.15 112.5 L233.2 178.85 Q-67.85 245.05 -68.4 244.5 -37.55 231.75 45.2 210.95 118.55 192.5 219.45 171.0 313.0 151.1 400.4 134.85 488.2 118.5 534.15 112.5" fill="#000000" fill-rule="evenodd" stroke="none"/>
    </g>
    <g id="shape1" transform="matrix(1.0, 0.0, 0.0, 1.0, -20.05, -108.4)">
      <path d="M62.35 199.7 Q49.7 193.05 30.6 195.4 47.6 182.0 78.3 206.7 78.3 208.7 78.1 208.2 L77.6 208.55 77.1 209.2 Q75.05 208.4 70.7 205.2 65.7 201.5 62.35 199.7" fill="url(#gradient0)" fill-rule="evenodd" stroke="none"/>
      <path d="M77.85 211.15 Q78.3 211.85 78.3 213.15 78.3 213.7 50.0 233.65 21.85 253.55 21.5 253.55 L20.05 253.25 20.1 252.95 Q39.45 236.45 46.3 231.05 62.9 217.95 76.9 210.15 L77.85 211.15" fill="url(#gradient1)" fill-rule="evenodd" stroke="none"/>
      <path d="M132.0 198.85 Q132.5 199.4 132.5 200.7 132.5 203.1 120.3 217.5 L105.8 234.7 Q101.8 241.0 85.8 250.35 L71.55 258.4 Q62.8 263.4 57.4 267.0 L57.2 266.1 82.15 249.7 Q98.5 239.05 102.6 232.7 107.85 224.65 116.0 214.7 123.9 205.0 130.7 198.2 131.75 198.6 132.0 198.85" fill="url(#gradient2)" fill-rule="evenodd" stroke="none"/>
      <path d="M215.25 145.0 Q226.35 160.5 250.2 168.1 250.05 169.05 249.55 169.45 L247.5 169.9 Q225.75 169.9 213.2 148.85 209.15 142.05 206.6 133.95 204.8 128.15 204.8 126.4 L205.05 122.75 205.4 118.5 206.8 118.5 Q206.7 133.05 215.25 145.0" fill="url(#gradient3)" fill-rule="evenodd" stroke="none"/>
      <path d="M176.5 186.8 Q176.5 187.1 175.3 187.1 159.35 187.1 148.7 181.7 139.95 177.3 133.1 168.15 130.1 164.1 122.2 150.3 115.45 138.5 109.6 132.1 118.5 136.1 123.4 144.15 126.3 148.95 131.7 160.6 134.35 168.25 141.35 172.7 146.45 176.0 155.3 178.15 L168.65 181.3 Q175.05 183.25 176.5 186.5 L176.5 186.8" fill="url(#gradient4)" fill-rule="evenodd" stroke="none"/>
      <path d="M328.1 212.75 L325.8 213.1 Q295.1 213.1 284.6 208.15 280.7 206.3 277.2 202.7 L270.5 195.9 258.1 184.35 Q249.25 176.3 243.2 172.8 L243.0 171.0 Q253.75 173.2 260.95 180.25 265.15 184.35 272.7 193.85 280.55 202.05 291.8 206.0 306.75 211.25 331.8 211.1 330.4 212.2 328.1 212.75" fill="url(#gradient5)" fill-rule="evenodd" stroke="none"/>
      <path d="M302.8 112.0 Q303.1 111.95 303.1 113.2 303.1 116.5 294.95 136.05 286.3 156.8 281.3 163.2 L278.1 162.8 277.9 163.1 Q277.7 163.15 277.7 161.9 277.7 160.9 282.25 153.25 287.8 143.9 290.7 136.5 L295.7 123.85 Q298.95 116.5 302.5 112.3 L302.8 112.0" fill="url(#gradient6)" fill-rule="evenodd" stroke="none"/>
      <path d="M358.05 114.1 Q356.8 117.7 355.1 120.35 350.15 127.85 337.9 132.3 327.5 136.1 321.0 143.6 318.45 146.5 313.2 155.6 310.6 155.4 310.0 154.8 L309.8 153.9 313.2 147.55 Q315.35 143.25 317.15 140.8 322.85 132.95 334.3 129.3 344.75 126.0 351.05 118.3 L355.3 112.6 Q357.6 109.65 359.8 108.4 L358.05 114.1" fill="url(#gradient7)" fill-rule="evenodd" stroke="none"/>
      <path d="M339.3 152.6 Q341.55 149.35 349.05 152.65 353.6 154.65 359.2 158.6 360.75 159.3 363.95 161.65 367.35 164.2 369.9 165.5 378.8 170.1 393.9 170.1 396.95 170.1 402.7 167.8 409.6 165.0 410.5 164.8 L410.95 165.15 411.5 165.9 Q397.8 173.9 393.7 173.9 377.95 173.9 365.85 166.85 L354.6 160.0 Q347.1 155.6 339.3 152.6" fill="url(#gradient8)" fill-rule="evenodd" stroke="none"/>
    </g>
    <linearGradient gradientTransform="matrix(-0.0147, -0.0085, 0.0047, -0.0081, 61.25, 204.2)" gradientUnits="userSpaceOnUse" id="gradient0" spreadMethod="pad" x1="-819.2" x2="819.2">
      <stop offset="0.0" stop-color="#000000"/>
      <stop offset="1.0" stop-color="#41ffc3" stop-opacity="0.9098039"/>
    </linearGradient>
    <linearGradient gradientTransform="matrix(-0.0164, 0.0094, -0.0031, -0.0054, 61.95, 224.55)" gradientUnits="userSpaceOnUse" id="gradient1" spreadMethod="pad" x1="-819.2" x2="819.2">
      <stop offset="0.0" stop-color="#000000"/>
      <stop offset="1.0" stop-color="#41ffc3" stop-opacity="0.9098039"/>
    </linearGradient>
    <linearGradient gradientTransform="matrix(-0.0137, 0.0137, -0.0054, -0.0054, 113.5, 218.7)" gradientUnits="userSpaceOnUse" id="gradient2" spreadMethod="pad" x1="-819.2" x2="819.2">
      <stop offset="0.0" stop-color="#000000"/>
      <stop offset="1.0" stop-color="#41ffc3" stop-opacity="0.9098039"/>
    </linearGradient>
    <linearGradient gradientTransform="matrix(-0.0229, -0.0132, 0.0089, -0.0156, 225.0, 145.95)" gradientUnits="userSpaceOnUse" id="gradient3" spreadMethod="pad" x1="-819.2" x2="819.2">
      <stop offset="0.0" stop-color="#000000"/>
      <stop offset="1.0" stop-color="#41ffc3" stop-opacity="0.9098039"/>
    </linearGradient>
    <linearGradient gradientTransform="matrix(-0.0114, -0.0114, 0.008, -0.008, 149.5, 172.2)" gradientUnits="userSpaceOnUse" id="gradient4" spreadMethod="pad" x1="-819.2" x2="819.2">
      <stop offset="0.0" stop-color="#000000"/>
      <stop offset="1.0" stop-color="#41ffc3" stop-opacity="0.9098039"/>
    </linearGradient>
    <linearGradient gradientTransform="matrix(0.0143, 0.0143, -0.0154, 0.0154, 275.8, 180.3)" gradientUnits="userSpaceOnUse" id="gradient5" spreadMethod="pad" x1="-819.2" x2="819.2">
      <stop offset="0.0" stop-color="#000000"/>
      <stop offset="1.0" stop-color="#41ffc3" stop-opacity="0.9098039"/>
    </linearGradient>
    <linearGradient gradientTransform="matrix(0.0103, -0.0177, 0.0042, 0.0024, 291.05, 139.0)" gradientUnits="userSpaceOnUse" id="gradient6" spreadMethod="pad" x1="-819.2" x2="819.2">
      <stop offset="0.0" stop-color="#000000"/>
      <stop offset="1.0" stop-color="#41ffc3" stop-opacity="0.9098039"/>
    </linearGradient>
    <linearGradient gradientTransform="matrix(0.0152, -0.0152, 0.0057, 0.0057, 329.9, 136.9)" gradientUnits="userSpaceOnUse" id="gradient7" spreadMethod="pad" x1="-819.2" x2="819.2">
      <stop offset="0.0" stop-color="#000000"/>
      <stop offset="1.0" stop-color="#41ffc3" stop-opacity="0.9098039"/>
    </linearGradient>
    <linearGradient gradientTransform="matrix(0.0195, 0.0113, -0.0077, 0.0133, 372.6, 157.35)" gradientUnits="userSpaceOnUse" id="gradient8" spreadMethod="pad" x1="-819.2" x2="819.2">
      <stop offset="0.0" stop-color="#000000"/>
      <stop offset="1.0" stop-color="#41ffc3" stop-opacity="0.9098039"/>
    </linearGradient>
  </defs>
</svg>
