<?xml version="1.0" encoding="UTF-8" standalone="no"?>
<svg xmlns:xlink="http://www.w3.org/1999/xlink" height="545.3px" width="710.5px" xmlns="http://www.w3.org/2000/svg">
  <g transform="matrix(1.0, 0.0, 0.0, 1.0, 101.4, 97.0)">
    <use data-characterId="508" height="334.8" transform="matrix(1.0, 0.0, 0.0, 1.0, -68.4, 12.1)" width="602.55" xlink:href="#morphshape0"/>
  </g>
  <defs>
    <g id="morphshape0" transform="matrix(1.0, 0.0, 0.0, 1.0, 68.4, -12.1)">
      <path d="M-68.4 244.45 Q-59.75 247.75 -45.55 254.95 L-12.6 271.1 Q5.3 279.65 21.05 286.6 51.0 299.65 77.15 308.2 87.55 311.5 97.85 314.45 135.7 324.9 172.65 327.75 215.7 331.5 260.1 324.65 290.2 320.05 318.5 310.9 370.95 294.1 420.95 249.5 441.9 231.6 462.15 209.3 487.55 181.65 510.9 147.9 522.2 131.7 532.75 114.65 L532.05 111.8 Q485.65 94.75 411.0 66.45 359.75 47.2 328.95 40.05 293.2 30.85 260.9 29.95 224.85 29.05 182.05 37.1 147.65 43.45 104.2 73.15 69.75 95.2 32.5 129.85 16.3 144.8 0.8 161.05 -16.2 178.9 -33.1 199.05 -56.5 226.75 -68.4 244.5" fill="#000000" fill-opacity="0.3372549" fill-rule="evenodd" stroke="none"/>
      <path d="M-68.4 244.5 Q-56.5 226.75 -33.1 199.05 -16.2 178.9 0.8 161.05 16.3 144.8 32.5 129.85 69.75 95.2 104.2 73.15 147.65 43.45 182.05 37.1 224.85 29.05 260.9 29.95 293.2 30.85 328.95 40.05 359.75 47.2 411.0 66.45 485.65 94.75 532.05 111.8 L532.75 114.65 Q522.2 131.7 510.9 147.9 487.55 181.65 462.15 209.3 441.9 231.6 420.95 249.5 370.95 294.1 318.5 310.9 290.2 320.05 260.1 324.65 215.7 331.5 172.65 327.75 135.7 324.9 97.85 314.45 87.55 311.5 77.15 308.2 51.0 299.65 21.05 286.6 5.3 279.65 -12.6 271.1 L-45.55 254.95 Q-59.75 247.75 -68.4 244.45" fill="none" stroke="#000000" stroke-linecap="round" stroke-linejoin="round" stroke-opacity="0.0" stroke-width="1.0"/>
    </g>
  </defs>
</svg>
