<?xml version="1.0" encoding="UTF-8" standalone="no"?>
<svg xmlns:xlink="http://www.w3.org/1999/xlink" height="545.3px" width="710.5px" xmlns="http://www.w3.org/2000/svg">
  <g transform="matrix(1.0, 0.0, 0.0, 1.0, 101.4, 97.0)">
    <use data-characterId="496" height="232.15" transform="matrix(1.0, 0.0, 0.0, 1.0, -75.0, 65.2)" width="609.15" xlink:href="#morphshape0"/>
    <use data-characterId="499" height="335.7" transform="matrix(1.0, 0.0, 0.0, 1.0, -53.8, -1.2)" width="617.7" xlink:href="#shape0"/>
  </g>
  <defs>
    <g id="morphshape0" transform="matrix(1.0, 0.0, 0.0, 1.0, 75.0, -65.2)">
      <path d="M-72.9 242.5 Q-40.15 245.95 10.95 239.65 38.15 238.65 63.8 236.25 72.9 235.45 81.8 234.45 115.3 231.0 149.05 225.2 194.75 216.6 227.6 209.65 L231.05 208.9 Q314.75 191.15 385.65 169.25 399.9 164.75 413.85 159.9 486.2 136.8 528.5 112.85 L530.55 111.1 Q365.75 113.6 219.05 142.85 174.7 151.55 132.5 163.3 64.8 181.85 16.7 204.0 -59.25 227.65 -72.8 242.5" fill="#2fa983" fill-rule="evenodd" stroke="none"/>
      <path d="M-72.8 242.5 Q-59.25 227.65 16.7 204.0 64.8 181.85 132.5 163.3 174.7 151.55 219.05 142.85 365.75 113.6 530.55 111.1 L528.5 112.85 Q486.2 136.8 413.85 159.9 399.9 164.75 385.65 169.25 314.75 191.15 231.05 208.9 L227.6 209.65 Q194.75 216.6 149.05 225.2 115.3 231.0 81.8 234.45 72.9 235.45 63.8 236.25 38.15 238.65 10.95 239.65 -40.15 245.95 -72.9 242.5" fill="none" stroke="#000000" stroke-linecap="round" stroke-linejoin="round" stroke-opacity="0.0" stroke-width="1.0"/>
    </g>
    <g id="shape0" transform="matrix(1.0, 0.0, 0.0, 1.0, 53.8, 1.2)">
      <path d="M524.35 173.55 Q536.3 176.5 549.7 176.5 551.6 176.5 557.3 174.6 L563.7 172.5 563.9 173.1 Q559.15 176.05 556.1 177.25 551.8 178.9 547.1 178.9 537.7 178.9 528.5 176.65 L511.4 171.65 Q486.15 164.5 449.9 164.8 L448.7 165.25 Q447.5 165.45 447.5 164.2 447.5 160.05 474.3 163.15 495.65 165.65 505.7 168.1 L524.35 173.55 M358.3 18.9 Q351.3 30.25 336.1 40.0 323.7 47.95 315.35 59.45 308.4 69.1 304.6 80.7 L304.0 80.7 Q306.25 69.15 312.9 59.0 321.0 46.6 334.3 38.8 349.05 30.2 356.5 17.2 L361.55 7.25 Q364.3 1.75 366.8 -1.2 L363.15 8.85 Q360.9 14.6 358.3 18.9 M376.6 88.8 L375.8 88.6 Q383.65 80.65 400.4 67.6 L426.6 47.6 Q420.15 53.35 401.55 68.05 384.1 81.9 376.6 88.8 M423.2 258.8 L420.0 259.0 Q407.2 259.0 394.9 255.1 385.45 252.1 372.8 245.45 358.05 237.35 349.85 233.15 335.45 225.75 322.4 221.3 336.2 222.55 350.0 228.5 357.65 231.75 373.45 240.7 388.15 249.05 397.0 252.5 410.9 257.9 425.2 258.4 L423.2 258.8 M267.8 41.65 Q260.3 36.4 253.0 36.4 226.0 36.4 212.85 58.95 202.65 76.45 203.6 99.4 L202.6 99.4 Q202.0 92.2 202.0 84.1 202.0 63.85 213.7 51.05 223.55 40.3 239.45 36.8 253.6 33.7 265.2 37.45 276.9 41.2 276.9 49.0 276.9 51.85 274.25 56.7 270.25 63.9 263.6 63.9 L256.8 63.7 Q254.0 61.45 254.0 60.2 254.0 58.9 254.15 58.35 L254.4 57.5 256.2 57.5 256.1 57.65 256.0 59.3 256.05 61.25 Q256.25 61.7 257.6 61.7 266.3 61.7 271.25 56.0 274.6 52.15 274.6 49.4 274.6 46.35 267.8 41.65 M302.5 97.8 L302.1 98.2 301.7 97.8 301.7 88.2 302.3 88.2 302.5 97.8 M35.0 127.3 L64.9 129.85 93.2 132.25 Q106.45 134.25 109.6 138.2 L109.6 139.2 Q95.35 134.35 90.25 133.05 84.9 131.65 78.5 131.3 L33.5 128.1 Q15.45 125.9 13.1 120.9 L13.7 120.9 Q19.75 125.15 35.0 127.3 M13.5 193.9 Q15.65 193.0 16.3 193.0 19.1 193.0 19.5 193.8 L19.5 194.0 Q15.75 194.0 12.45 196.25 9.1 198.55 7.7 198.6 L-27.5 198.4 Q-39.1 197.8 -45.05 194.45 -46.45 193.7 -48.95 191.8 -50.95 190.25 -52.4 189.7 L-52.2 189.3 Q-51.25 189.15 -49.4 190.05 L-44.95 192.25 Q-37.25 195.75 -26.9 196.4 L7.3 196.4 13.5 193.9 M14.7 252.6 L14.7 253.0 Q-7.85 256.3 -26.1 266.85 L-39.95 275.5 Q-47.9 280.55 -53.8 283.1 -48.55 280.35 -40.35 274.8 L-26.4 265.65 Q-8.25 254.6 11.9 251.0 13.95 251.45 14.7 252.6 M38.6 294.5 Q36.4 296.7 30.25 304.5 24.85 311.3 20.15 315.45 5.4 328.45 -22.9 334.5 4.8 326.15 19.05 313.65 23.85 309.4 29.2 302.8 L38.0 292.1 Q45.9 283.55 61.4 271.0 75.9 259.25 85.2 253.4 79.4 259.5 62.1 273.95 44.1 288.95 38.6 294.5" fill="#2fa983" fill-rule="evenodd" stroke="none"/>
    </g>
  </defs>
</svg>
