<?xml version="1.0" encoding="UTF-8" standalone="no"?>
<svg xmlns:xlink="http://www.w3.org/1999/xlink" height="545.3px" width="710.5px" xmlns="http://www.w3.org/2000/svg">
  <g transform="matrix(1.0, 0.0, 0.0, 1.0, 101.4, 97.0)">
    <use data-characterId="496" height="232.15" transform="matrix(1.0, 0.0, 0.0, 1.0, -75.0, 65.2)" width="609.15" xlink:href="#morphshape0"/>
    <use data-characterId="503" height="345.2" transform="matrix(1.0, 0.0, 0.0, 1.0, -77.7, 2.7)" width="686.8" xlink:href="#shape0"/>
    <use data-characterId="500" height="120.55" transform="matrix(1.0, 0.0, 0.0, 1.0, -35.45, 115.4)" width="549.4" xlink:href="#morphshape1"/>
    <use data-characterId="502" height="545.3" transform="matrix(1.0, 0.0, 0.0, 1.0, 150.6, -97.0)" width="137.8" xlink:href="#morphshape2"/>
    <use data-characterId="504" height="406.0" transform="matrix(1.0, 0.0, 0.0, 1.0, 9.9, -27.4)" width="389.25" xlink:href="#morphshape3"/>
  </g>
  <defs>
    <g id="morphshape0" transform="matrix(1.0, 0.0, 0.0, 1.0, 75.0, -65.2)">
      <path d="M-70.5 243.5 Q-25.7 255.75 16.65 257.7 45.6 261.85 71.5 263.25 80.7 263.75 89.5 263.9 124.05 264.85 159.15 261.0 200.1 255.8 239.35 247.65 L242.9 246.9 Q332.05 228.1 399.85 198.35 414.0 192.05 427.45 185.05 491.55 153.8 531.4 112.7 L527.7 110.35 Q347.85 81.5 205.0 106.85 159.45 114.85 118.1 128.95 53.85 150.65 6.0 184.95 -47.5 211.85 -70.6 243.5" fill="#185542" fill-rule="evenodd" stroke="none"/>
      <path d="M-70.6 243.5 Q-47.5 211.85 6.0 184.95 53.85 150.65 118.1 128.95 159.45 114.85 205.0 106.85 347.85 81.5 527.7 110.35 L531.4 112.7 Q491.55 153.8 427.45 185.05 414.0 192.05 399.85 198.35 332.05 228.1 242.9 246.9 L239.35 247.65 Q200.1 255.8 159.15 261.0 124.05 264.85 89.5 263.9 80.7 263.75 71.5 263.25 45.6 261.85 16.65 257.7 -25.7 255.75 -70.5 243.5" fill="none" stroke="#000000" stroke-linecap="round" stroke-linejoin="round" stroke-opacity="0.0" stroke-width="1.0"/>
    </g>
    <g id="shape0" transform="matrix(1.0, 0.0, 0.0, 1.0, 77.7, -2.7)">
      <path d="M543.0 180.3 L542.8 179.3 Q568.95 177.85 588.7 175.45 L609.1 173.5 Q605.1 175.35 591.1 177.2 L563.5 180.3 543.0 180.3 M416.0 51.8 Q416.8 52.85 416.8 53.6 416.8 56.85 410.2 60.4 401.45 64.55 397.1 67.3 400.1 64.3 408.65 59.1 415.3 54.3 414.0 50.0 L414.6 50.0 416.0 51.8 M358.6 8.7 Q358.6 18.2 354.1 25.5 349.05 33.75 337.3 41.2 347.95 31.85 353.35 22.1 359.15 11.5 357.3 2.7 L358.1 2.7 Q358.6 4.5 358.6 8.7 M414.6 262.8 Q428.05 267.85 429.2 268.15 438.1 270.55 456.3 272.0 L452.1 272.4 446.7 272.6 Q438.45 272.6 427.3 268.95 417.0 265.55 414.6 262.8 M268.0 48.2 Q269.4 51.35 269.4 53.8 269.4 58.05 267.8 61.95 265.1 68.5 259.0 68.5 252.35 68.5 250.25 63.9 249.4 62.1 249.4 58.8 249.4 56.65 250.65 53.85 252.25 50.2 254.6 50.2 L256.05 50.4 256.0 50.6 256.2 51.4 Q254.25 52.45 252.5 55.35 251.0 57.8 251.0 58.7 251.0 61.1 251.8 62.9 253.45 66.5 257.8 66.5 267.15 66.5 268.3 59.45 268.7 57.1 268.2 53.4 L267.4 48.2 268.0 48.2 M-2.0 113.5 Q-7.35 111.8 -13.15 108.55 L-21.9 103.4 Q-19.4 103.85 -12.2 107.45 -5.3 110.95 -2.0 113.3 L-2.0 113.5 M-51.6 195.6 Q-52.7 195.1 -66.25 189.7 -73.1 187.0 -77.7 183.3 L-77.7 183.1 Q-69.3 185.95 -64.6 187.7 -56.15 190.9 -51.4 195.0 L-51.6 195.6 M-29.3 275.1 Q-28.25 275.35 -27.9 275.7 -36.1 280.75 -50.0 290.9 L-71.7 306.2 -72.1 305.8 -51.7 290.45 Q-38.25 280.2 -30.3 274.9 L-29.3 275.1 M-9.2 335.3 Q-21.65 338.0 -37.6 343.3 -47.55 346.55 -62.6 347.9 -63.4 347.7 -63.4 347.1 -50.95 345.95 -37.55 341.4 -23.3 336.6 -9.2 334.9 L-9.2 335.3" fill="#185541" fill-rule="evenodd" stroke="none"/>
    </g>
    <g id="morphshape1" transform="matrix(1.0, 0.0, 0.0, 1.0, 35.45, -115.4)">
      <path d="M-20.75 232.5 L-16.45 232.25 Q119.85 203.15 312.45 160.45 420.7 136.45 497.8 118.65 401.35 137.95 295.8 161.45 L-20.8 232.55" fill="#41ffc3" fill-rule="evenodd" stroke="none"/>
      <path d="M-20.8 232.55 L295.8 161.45 Q401.35 137.95 497.8 118.65 420.7 136.45 312.45 160.45 119.85 203.15 -16.45 232.25 L-20.75 232.5" fill="none" stroke="#000000" stroke-linecap="round" stroke-linejoin="round" stroke-opacity="0.0" stroke-width="1.0"/>
    </g>
    <g id="morphshape2" transform="matrix(1.0, 0.0, 0.0, 1.0, -150.6, 97.0)">
      <path d="M174.3 342.75 L175.5 340.5 Q197.7 255.95 227.95 135.45 246.05 63.8 258.05 15.0 240.6 75.55 223.35 144.15 L174.25 342.7" fill="#41ffc3" fill-rule="evenodd" stroke="none"/>
      <path d="M174.25 342.7 L223.35 144.15 Q240.6 75.55 258.05 15.0 246.05 63.8 227.95 135.45 197.7 255.95 175.5 340.5 L174.3 342.75" fill="none" stroke="#000000" stroke-linecap="round" stroke-linejoin="round" stroke-opacity="0.0" stroke-width="1.0"/>
    </g>
    <g id="morphshape3" transform="matrix(1.0, 0.0, 0.0, 1.0, -9.9, 27.4)">
      <path d="M199.35 161.15 Q205.95 170.9 217.6 182.4 L239.5 203.1 240.0 202.85 Q232.0 194.0 219.25 181.35 205.0 167.25 199.35 161.15" fill="#41ffc3" fill-rule="evenodd" stroke="none"/>
      <path d="M199.35 161.15 Q205.0 167.25 219.25 181.35 232.0 194.0 240.0 202.85 L239.5 203.1 217.6 182.4 Q205.95 170.9 199.35 161.15 Z" fill="none" stroke="#000000" stroke-linecap="round" stroke-linejoin="round" stroke-opacity="0.0" stroke-width="1.0"/>
    </g>
  </defs>
</svg>
