<?xml version="1.0" encoding="UTF-8" standalone="no"?>
<svg xmlns:xlink="http://www.w3.org/1999/xlink" height="545.3px" width="710.5px" xmlns="http://www.w3.org/2000/svg">
  <g transform="matrix(1.0, 0.0, 0.0, 1.0, 101.4, 97.0)">
    <use data-characterId="508" height="334.8" transform="matrix(1.0, 0.0, 0.0, 1.0, -68.4, 12.1)" width="602.55" xlink:href="#morphshape0"/>
  </g>
  <defs>
    <g id="morphshape0" transform="matrix(1.0, 0.0, 0.0, 1.0, 68.4, -12.1)">
      <path d="M-68.55 244.6 Q-60.65 247.7 -45.75 255.6 L-12.95 272.85 Q4.65 281.95 20.7 289.55 50.7 303.6 77.05 313.0 87.6 316.7 98.05 319.95 136.45 331.7 173.55 335.75 218.3 340.9 262.4 334.65 292.75 330.4 321.55 320.9 371.8 304.35 422.8 255.25 442.85 236.4 462.85 212.85 487.3 184.2 510.65 149.3 521.85 132.65 532.5 115.3 L533.15 112.2 Q491.1 95.8 412.2 63.2 358.55 41.2 329.7 33.15 293.45 22.4 261.0 21.15 225.85 19.9 181.35 28.45 149.25 34.55 104.45 67.8 71.75 91.15 34.0 127.75 17.9 143.3 2.3 159.9 -15.0 178.35 -32.1 198.45 -57.5 228.25 -68.4 244.5" fill="#000000" fill-opacity="0.16862746" fill-rule="evenodd" stroke="none"/>
      <path d="M-68.4 244.5 Q-57.5 228.25 -32.1 198.45 -15.0 178.35 2.3 159.9 17.9 143.3 34.0 127.75 71.75 91.15 104.45 67.8 149.25 34.55 181.35 28.45 225.85 19.9 261.0 21.15 293.45 22.4 329.7 33.15 358.55 41.2 412.2 63.2 491.1 95.8 533.15 112.2 L532.5 115.3 Q521.85 132.65 510.65 149.3 487.3 184.2 462.85 212.85 442.85 236.4 422.8 255.25 371.8 304.35 321.55 320.9 292.75 330.4 262.4 334.65 218.3 340.9 173.55 335.75 136.45 331.7 98.05 319.95 87.6 316.7 77.05 313.0 50.7 303.6 20.7 289.55 4.65 281.95 -12.95 272.85 L-45.75 255.6 Q-60.65 247.7 -68.55 244.6" fill="none" stroke="#000000" stroke-linecap="round" stroke-linejoin="round" stroke-opacity="0.0" stroke-width="1.0"/>
    </g>
  </defs>
</svg>
