<?xml version="1.0" encoding="UTF-8" standalone="no"?>
<svg xmlns:xlink="http://www.w3.org/1999/xlink" height="545.3px" width="710.5px" xmlns="http://www.w3.org/2000/svg">
  <g transform="matrix(1.0, 0.0, 0.0, 1.0, 101.4, 97.0)">
    <use data-characterId="496" height="232.15" transform="matrix(1.0, 0.0, 0.0, 1.0, -75.0, 65.2)" width="609.15" xlink:href="#morphshape0"/>
    <use data-characterId="498" height="312.45" transform="matrix(1.0, 0.0, 0.0, 1.0, -50.1, 16.5)" width="619.35" xlink:href="#shape0"/>
  </g>
  <defs>
    <g id="morphshape0" transform="matrix(1.0, 0.0, 0.0, 1.0, 75.0, -65.2)">
      <path d="M-74.0 241.9 Q-47.3 240.95 8.15 230.5 34.5 226.9 60.05 222.65 69.1 221.15 78.0 219.6 111.0 214.0 144.1 207.25 192.15 197.0 221.8 190.7 L225.25 190.0 Q306.2 172.8 378.6 154.8 392.95 151.2 407.1 147.4 483.55 128.35 527.1 112.95 L532.0 111.5 Q374.7 129.65 226.1 160.8 182.35 169.9 139.7 180.5 70.3 197.5 22.1 213.6 -65.1 235.6 -73.9 242.0" fill="#3bd4a3" fill-rule="evenodd" stroke="none"/>
      <path d="M-73.9 242.0 Q-65.1 235.6 22.1 213.6 70.3 197.5 139.7 180.5 182.35 169.9 226.1 160.8 374.7 129.65 532.0 111.5 L527.1 112.95 Q483.55 128.35 407.1 147.4 392.95 151.2 378.6 154.8 306.2 172.8 225.25 190.0 L221.8 190.7 Q192.15 197.0 144.1 207.25 111.0 214.0 78.0 219.6 69.1 221.15 60.05 222.65 34.5 226.9 8.15 230.5 -47.3 240.95 -74.0 241.9" fill="none" stroke="#000000" stroke-linecap="round" stroke-linejoin="round" stroke-opacity="0.0" stroke-width="1.0"/>
    </g>
    <g id="shape0" transform="matrix(1.0, 0.0, 0.0, 1.0, 50.1, -16.5)">
      <path d="M-25.8 268.2 L-27.0 267.9 Q-23.4 263.55 -14.35 259.4 -10.55 257.7 -3.7 255.25 -8.7 257.6 -14.2 260.85 -18.75 263.5 -25.8 268.2" fill="#3bd4a3" fill-rule="evenodd" stroke="none"/>
      <path d="M528.55 173.75 Q492.25 166.5 474.45 166.5 446.25 166.35 409.65 167.7 407.25 167.7 400.1 169.95 L393.15 172.2 Q390.55 172.2 378.25 166.5 364.8 160.25 363.45 159.9 L340.85 156.9 Q329.85 155.5 324.85 153.55 L322.0 152.0 321.95 152.0 321.9 151.95 321.25 152.15 319.6 152.4 318.25 151.9 Q317.8 151.55 317.8 150.2 317.8 147.55 328.1 138.2 337.2 129.9 341.1 127.5 354.5 119.1 355.95 114.85 356.25 113.95 356.4 110.85 356.5 108.05 357.7 105.4 362.3 95.3 378.75 82.55 387.3 75.95 409.1 61.9 403.55 66.9 394.8 73.75 L380.85 84.6 Q365.45 97.1 361.0 106.8 359.75 109.6 360.0 112.95 L360.4 118.05 Q359.75 123.5 346.1 128.9 337.7 132.2 330.75 139.0 324.45 145.15 323.05 150.5 L323.8 150.45 328.3 150.55 335.85 151.6 Q354.05 155.0 359.85 155.4 362.55 155.95 377.15 162.0 390.85 167.7 393.45 167.7 399.05 167.7 406.15 165.9 413.3 164.1 416.85 164.1 494.05 164.1 536.7 172.25 550.0 174.75 559.85 178.15 564.85 179.85 569.25 181.5 L569.25 181.8 Q565.65 181.5 553.55 178.95 L528.55 173.75 M335.5 36.2 Q325.5 48.55 318.45 55.2 309.95 63.25 307.3 74.25 306.65 76.85 305.65 83.4 304.75 89.15 303.75 92.4 301.55 99.45 299.65 111.6 297.5 125.3 296.2 130.55 290.65 152.55 272.4 167.1 L269.45 166.6 Q268.5 166.1 268.5 164.1 268.5 163.5 272.9 158.15 278.75 151.05 282.9 144.35 297.85 120.25 300.45 89.4 301.75 73.55 319.3 51.95 324.45 45.6 335.15 33.9 L350.55 16.5 Q343.1 26.8 335.5 36.2 M446.85 265.8 Q414.55 255.95 374.4 240.25 335.85 225.15 317.85 219.9 313.65 218.7 308.8 218.45 L301.45 218.35 Q293.6 217.95 288.15 211.8 L282.3 204.75 Q279.0 200.9 275.7 198.3 271.0 194.55 257.1 185.35 242.95 176.0 235.8 170.4 247.6 173.1 257.1 179.95 261.65 183.25 272.6 193.7 282.35 203.05 290.25 207.9 302.1 215.15 317.85 218.7 340.1 225.7 372.55 237.9 418.6 255.25 446.85 265.2 L446.85 265.8 M267.45 40.8 Q263.65 37.2 257.2 37.2 221.9 37.2 210.05 56.9 206.0 63.55 204.85 72.3 204.4 75.8 204.4 83.2 204.4 100.45 208.7 118.35 L211.65 129.5 Q213.0 134.3 213.0 135.6 213.0 137.15 208.2 143.8 203.4 150.45 203.4 153.8 203.4 161.35 216.55 167.55 L225.6 171.4 Q229.7 173.25 229.7 174.3 229.7 176.45 227.3 177.9 225.4 175.05 216.65 171.4 L206.0 166.9 Q202.95 164.85 201.2 160.55 199.8 157.0 199.8 153.8 199.8 149.15 204.5 142.5 209.2 135.8 209.2 135.3 L205.5 119.65 Q201.8 102.75 201.8 95.8 201.8 78.4 202.05 75.8 203.1 64.35 208.2 55.8 213.45 47.1 224.3 41.65 234.05 36.85 245.35 35.9 256.3 35.0 263.6 38.1 271.4 41.35 271.4 47.8 271.4 50.3 265.4 58.1 258.4 67.1 252.6 67.1 248.0 67.1 246.3 64.85 245.5 63.8 245.5 62.4 L245.7 60.55 245.9 59.7 246.5 59.5 247.8 62.75 Q248.7 64.9 248.9 64.9 257.4 64.9 264.65 57.5 270.6 51.35 270.6 47.7 270.6 43.85 267.45 40.8 M175.2 184.5 L174.6 186.3 174.3 186.65 174.0 187.2 Q153.85 181.2 146.95 178.75 136.3 174.85 129.6 168.0 126.45 164.85 124.3 156.7 122.1 148.3 118.8 144.6 115.85 141.3 95.35 136.55 L70.8 131.1 48.55 124.9 Q32.15 120.35 25.8 117.6 L26.2 117.45 27.3 117.3 Q35.85 119.95 52.45 123.85 L81.4 130.5 Q116.0 138.7 120.3 143.7 122.2 145.9 125.25 154.8 127.95 162.75 132.3 166.2 139.05 171.5 149.85 174.7 L160.7 177.65 Q168.15 179.65 174.3 181.8 174.3 183.15 175.2 184.5 M49.2 190.2 Q52.75 190.2 65.4 195.75 L79.8 202.2 80.1 203.55 79.8 205.8 76.2 206.7 Q75.2 206.45 61.95 200.1 49.3 194.1 47.7 194.1 45.95 194.1 41.65 195.15 L33.3 197.1 -2.1 197.1 -23.4 192.7 Q-32.95 190.75 -50.1 184.8 -40.2 188.0 -27.45 190.0 L-2.4 193.8 33.3 193.5 Q36.15 193.6 42.6 191.9 L49.2 190.2 M134.1 191.0 Q134.7 191.45 134.7 193.35 134.7 195.95 125.95 208.95 114.5 225.9 112.8 228.9 109.35 235.05 91.4 246.3 69.5 260.05 66.3 262.8 64.3 264.55 49.45 280.2 39.05 291.1 28.5 297.15 18.0 303.1 2.05 313.85 -15.45 325.65 -21.0 328.95 -9.6 318.0 22.95 293.95 54.7 270.4 65.4 259.8 68.5 256.75 75.8 251.7 L89.35 242.65 Q106.5 230.95 108.6 224.7 110.85 217.8 118.75 206.7 126.0 196.55 132.6 190.2 L134.1 191.0 M41.1 239.7 Q36.15 243.9 22.75 247.25 L10.3 250.35 Q18.95 247.3 23.1 245.55 33.05 241.4 37.8 237.0 48.7 227.05 66.35 217.25 86.4 206.1 97.8 205.8 L68.6 222.1 Q48.85 233.0 41.1 239.7" fill="#35bf93" fill-rule="evenodd" stroke="none"/>
    </g>
  </defs>
</svg>
