<?xml version="1.0" encoding="UTF-8" standalone="no"?>
<svg xmlns:xlink="http://www.w3.org/1999/xlink" height="17.75px" width="33.9px" xmlns="http://www.w3.org/2000/svg">
  <g id="shape0" transform="matrix(1.0, 0.0, 0.0, 1.0, 16.1, 7.35)">
    <path d="M-0.45 -3.0 L1.2 -3.4 2.95 -3.35 4.8 -2.85 5.5 -2.45 5.7 -2.25 5.0 -1.85 4.6 -1.55 5.0 -1.85 5.7 -2.25 6.5 -2.5 7.7 -2.65 8.3 -2.6 8.9 -2.4 9.35 -2.15 9.8 -1.8 10.15 -1.45 10.55 -0.85 10.15 -1.45 9.8 -1.8 11.55 -2.05 13.3 -1.6 14.1 -1.2 16.0 -0.9 16.2 -0.85 Q16.25 -0.8 16.45 -0.75 L16.2 -0.25 16.15 -0.2 15.85 0.0 15.5 0.1 13.6 0.0 Q13.3 0.0 13.15 -0.2 L12.85 -0.4 Q12.55 -0.45 12.4 -0.65 L12.25 -0.65 12.05 -0.5 11.5 0.1 11.1 0.4 10.3 0.7 9.55 0.8 7.55 0.5 Q7.45 0.55 7.35 0.4 7.25 0.45 7.5 0.7 L7.55 0.8 7.65 1.35 7.5 2.15 7.25 2.55 6.0 3.15 5.05 3.25 3.95 2.95 1.75 1.6 0.9 3.35 Q0.5 3.7 0.1 3.85 L-0.85 4.05 -1.5 4.0 -1.85 3.9 -1.95 3.8 -2.15 4.25 -2.75 5.15 -3.55 5.6 -4.15 5.55 -4.9 5.35 -5.55 5.05 -6.55 4.05 -6.95 3.5 -7.35 3.05 Q-7.4 2.9 -7.45 3.1 L-8.5 4.2 Q-8.65 4.45 -9.0 4.5 L-9.65 4.75 -10.0 4.85 -10.6 4.95 -10.95 4.85 -11.75 4.45 Q-12.05 4.1 -12.5 3.95 L-12.65 3.9 Q-12.6 3.35 -12.7 3.15 L-12.45 1.25 -12.1 0.1 -13.4 -0.25 Q-14.1 -0.3 -14.6 -0.7 -14.95 -1.0 -15.1 -1.85 L-15.05 -2.65 Q-14.75 -3.45 -14.6 -4.2 L-12.3 -6.3 -12.15 -6.25 Q-12.1 -6.2 -12.05 -6.3 L-10.6 -5.85 Q-9.15 -6.0 -7.75 -5.35 L-7.1 -5.6 -6.3 -5.7 -5.0 -5.65 -3.9 -5.45 -3.75 -5.4 -3.3 -5.2 -2.85 -5.05 -2.4 -4.8 -0.45 -3.0 -0.1 -2.5 -0.45 -3.0 M6.4 -0.4 L5.1 -0.75 4.8 -0.4 5.35 0.0 6.55 0.4 Q7.25 0.3 7.55 -0.25 L7.7 -1.2 7.45 -1.5 Q7.1 -1.6 6.9 -1.25 L6.7 -0.75 Q6.55 -0.3 6.4 -0.4 M14.75 -0.5 L14.1 -1.2 14.75 -0.5 M0.8 1.5 Q1.65 1.5 2.45 0.9 3.0 0.35 2.95 0.0 L2.8 -0.1 Q1.9 0.55 0.75 0.6 L0.05 0.2 Q0.05 -0.15 -0.35 -0.1 L-0.8 -0.05 -0.95 0.3 -0.6 0.9 Q-0.1 1.5 0.8 1.5 M-5.0 -3.1 L-5.65 -3.95 -6.55 -4.65 -7.75 -5.35 -6.55 -4.65 -5.65 -3.95 -5.0 -3.1 M-11.5 -5.0 L-10.9 -5.65 -10.6 -5.85 -10.9 -5.65 -11.5 -5.0" fill="#faf8f8" fill-rule="evenodd" stroke="none"/>
    <path d="M6.4 -0.4 Q6.55 -0.3 6.7 -0.75 L6.9 -1.25 Q7.1 -1.6 7.45 -1.5 L7.7 -1.2 7.55 -0.25 Q7.25 0.3 6.55 0.4 L5.35 0.0 4.8 -0.4 5.1 -0.75 6.4 -0.4 M16.45 -0.75 L16.65 -0.65 Q16.55 -0.5 16.8 -0.5 16.55 -0.05 16.65 0.05 L16.55 0.3 16.3 0.6 15.15 1.3 Q13.2 2.05 11.4 2.0 10.95 2.3 10.65 2.75 L9.35 3.75 Q8.85 4.3 8.55 5.2 L7.45 6.35 Q6.65 6.85 5.85 6.95 L4.65 7.15 3.95 7.25 2.85 8.15 1.4 8.85 0.0 9.1 -0.7 9.15 -2.0 9.1 -2.25 9.15 Q-2.5 9.1 -2.95 9.4 L-4.15 9.4 -5.65 9.05 -6.35 8.8 -7.0 8.5 Q-7.4 8.2 -8.0 8.05 L-8.8 7.3 -9.35 7.5 -10.35 8.15 -11.75 8.1 Q-12.15 7.85 -12.7 7.75 L-13.3 7.25 -13.5 6.6 -13.3 5.4 -12.65 3.9 -12.5 3.95 Q-12.05 4.1 -11.75 4.45 L-10.95 4.85 -10.6 4.95 -10.0 4.85 -9.65 4.75 -9.0 4.5 Q-8.65 4.45 -8.5 4.2 L-7.45 3.1 Q-7.4 2.9 -7.35 3.05 L-6.95 3.5 -6.55 4.05 -5.55 5.05 -4.9 5.35 -4.15 5.55 -3.55 5.6 -2.75 5.15 -2.15 4.25 -1.95 3.8 -1.85 3.9 -1.5 4.0 -0.85 4.05 0.1 3.85 Q0.5 3.7 0.9 3.35 L1.75 1.6 3.95 2.95 5.05 3.25 6.0 3.15 7.25 2.55 7.5 2.15 7.65 1.35 7.55 0.8 7.5 0.7 Q7.25 0.45 7.35 0.4 7.45 0.55 7.55 0.5 L9.55 0.8 10.3 0.7 11.1 0.4 11.5 0.1 12.05 -0.5 12.25 -0.65 12.4 -0.65 Q12.55 -0.45 12.85 -0.4 L13.15 -0.2 Q13.3 0.0 13.6 0.0 L15.5 0.1 15.85 0.0 16.15 -0.2 16.2 -0.25 16.45 -0.75 M9.55 2.95 L9.4 3.45 9.35 3.75 9.4 3.45 9.55 2.95 M12.05 0.5 L11.4 2.0 12.05 0.5 M-8.8 7.3 L-9.3 6.15 -9.65 4.75 -9.3 6.15 -8.8 7.3 M0.8 1.5 Q-0.1 1.5 -0.6 0.9 L-0.95 0.3 -0.8 -0.05 -0.35 -0.1 Q0.05 -0.15 0.05 0.2 L0.75 0.6 Q1.9 0.55 2.8 -0.1 L2.95 0.0 Q3.0 0.35 2.45 0.9 1.65 1.5 0.8 1.5 M4.65 6.35 Q4.4 6.55 4.3 6.9 L3.95 7.25 4.3 6.9 Q4.4 6.55 4.65 6.35 M-0.7 7.95 L-1.2 8.6 -1.7 8.95 Q-1.85 8.95 -2.0 9.1 -1.85 8.95 -1.7 8.95 L-1.2 8.6 -0.7 7.95 M-9.3 6.15 L-10.35 6.2 -10.7 6.1 Q-12.25 5.65 -12.6 4.2 L-12.65 3.9 -12.6 4.2 Q-12.25 5.65 -10.7 6.1 L-10.35 6.2 -9.3 6.15" fill="#d6baba" fill-rule="evenodd" stroke="none"/>
    <path d="M5.7 -2.25 L5.5 -2.45 4.8 -2.85 2.95 -3.35 1.2 -3.4 -0.45 -3.0 -0.1 -2.5 M5.7 -2.25 L5.0 -1.85 4.6 -1.55 M9.8 -1.8 L9.35 -2.15 8.9 -2.4 8.3 -2.6 7.7 -2.65 6.5 -2.5 5.7 -2.25 M9.8 -1.8 L10.15 -1.45 10.55 -0.85 M9.8 -1.8 L11.55 -2.05 13.3 -1.6 14.1 -1.2 16.0 -0.9 16.2 -0.85 Q16.25 -0.8 16.45 -0.75 L16.65 -0.65 Q16.55 -0.5 16.8 -0.5 16.55 -0.05 16.65 0.05 L16.55 0.3 16.3 0.6 15.15 1.3 Q13.2 2.05 11.4 2.0 10.95 2.3 10.65 2.75 L9.35 3.75 Q8.85 4.3 8.55 5.2 L7.45 6.35 Q6.65 6.85 5.85 6.95 L4.65 7.15 3.95 7.25 2.85 8.15 1.4 8.85 0.0 9.1 -0.7 9.15 -2.0 9.1 -2.25 9.15 Q-2.5 9.1 -2.95 9.4 L-4.15 9.4 -5.65 9.05 -6.35 8.8 -7.0 8.5 Q-7.4 8.2 -8.0 8.05 L-8.8 7.3 -9.35 7.5 -10.35 8.15 -11.75 8.1 Q-12.15 7.85 -12.7 7.75 L-13.3 7.25 -13.5 6.6 -13.3 5.4 -12.65 3.9 Q-12.6 3.35 -12.7 3.15 L-12.45 1.25 -12.1 0.1 -13.4 -0.25 Q-14.1 -0.3 -14.6 -0.7 -14.95 -1.0 -15.1 -1.85 L-15.05 -2.65 Q-14.75 -3.45 -14.6 -4.2 L-12.3 -6.3 -12.15 -6.25 Q-12.1 -6.2 -12.05 -6.3 L-10.6 -5.85 Q-9.15 -6.0 -7.75 -5.35 L-7.1 -5.6 -6.3 -5.7 -5.0 -5.65 -3.9 -5.45 -3.75 -5.4 -3.3 -5.2 -2.85 -5.05 -2.4 -4.8 -0.45 -3.0 M14.1 -1.2 L14.75 -0.5 M-9.65 4.75 L-9.3 6.15 -8.8 7.3 M11.4 2.0 L12.05 0.5 M9.35 3.75 L9.4 3.45 9.55 2.95 M3.95 7.25 L4.3 6.9 Q4.4 6.55 4.65 6.35 M-10.6 -5.85 L-10.9 -5.65 -11.5 -5.0 M-7.75 -5.35 L-6.55 -4.65 -5.65 -3.95 -5.0 -3.1 M-12.65 3.9 L-12.6 4.2 Q-12.25 5.65 -10.7 6.1 L-10.35 6.2 -9.3 6.15 M-2.0 9.1 Q-1.85 8.95 -1.7 8.95 L-1.2 8.6 -0.7 7.95" fill="none" stroke="#a36a6a" stroke-linecap="round" stroke-linejoin="round" stroke-width="1"/>
  </g>
</svg>