<?xml version="1.0" encoding="UTF-8" standalone="no"?>
<svg xmlns:xlink="http://www.w3.org/1999/xlink" height="19.8px" width="31.3px" xmlns="http://www.w3.org/2000/svg">
  <g id="shape0" transform="matrix(1.0, 0.0, 0.0, 1.0, 15.65, 9.9)">
    <path d="M-13.45 3.45 L-13.9 3.1 -14.55 1.8 -14.6 0.6 -14.65 -1.1 -14.3 -2.25 -13.8 -3.2 -13.65 -3.3 -11.75 -4.15 Q-12.3 -4.75 -11.4 -6.25 -10.5 -7.85 -8.4 -7.2 L-7.85 -7.75 -7.1 -8.3 -5.8 -8.8 -4.7 -8.8 -3.75 -8.3 Q-3.2 -7.95 -3.2 -7.7 L-3.25 -7.6 -3.2 -7.5 -3.25 -7.45 -2.7 -7.65 -2.15 -7.95 -1.2 -8.15 -0.35 -8.3 Q1.0 -8.3 2.15 -7.75 L3.0 -7.25 3.7 -6.4 4.2 -5.6 4.45 -5.1 4.5 -4.9 5.35 -5.0 Q6.4 -3.35 5.75 -1.55 L5.45 -0.95 Q4.95 -0.65 4.3 -0.65 L3.2 -0.65 Q3.9 0.95 2.8 2.5 1.95 3.8 0.65 4.05 L-1.9 3.85 -2.85 3.25 -3.3 4.15 -6.05 4.1 -6.2 4.15 -6.35 4.5 Q-8.0 5.65 -9.6 4.25 L-10.7 3.2 -10.55 3.2 -9.2 2.4 -8.55 1.8 -10.85 1.75 -12.3 1.85 Q-11.35 2.4 -11.25 2.95 -12.15 3.55 -13.4 3.5 L-13.4 3.45 -13.45 3.45 M4.0 -3.5 L4.0 -3.45 3.6 -3.1 2.55 -1.9 3.25 -2.05 3.9 -2.3 4.3 -2.6 4.45 -2.8 4.5 -3.2 4.5 -3.25 4.8 -4.55 4.6 -4.3 4.05 -3.55 4.0 -3.5 M-1.55 1.95 L-1.5 1.85 -1.35 1.3 -0.9 0.3 -1.05 0.4 -1.9 0.95 -2.8 1.45 Q-3.55 1.9 -4.45 2.0 -3.9 2.4 -3.2 2.45 L-2.9 2.55 -2.8 2.6 -2.15 2.55 -1.95 2.4 -1.55 1.95 M2.95 1.05 L3.2 0.25 2.35 1.15 1.65 1.7 1.05 2.15 1.0 2.2 0.35 2.55 0.35 2.6 0.65 2.65 1.3 2.5 1.8 2.35 2.0 2.2 2.6 1.7 2.95 1.05" fill="#faf8f8" fill-rule="evenodd" stroke="none"/>
    <path d="M5.35 -5.0 L5.7 -4.95 6.4 -4.75 Q7.1 -4.55 7.6 -4.15 L8.2 -3.3 8.8 -2.45 9.15 -1.5 9.15 -0.5 8.9 0.25 8.6 0.7 8.0 0.95 7.6 1.0 7.55 1.0 7.7 1.15 7.85 1.3 8.0 1.6 8.15 2.65 8.15 2.7 8.6 2.65 11.8 2.05 13.6 1.25 14.65 0.8 14.45 0.95 13.6 1.7 12.1 2.9 10.75 3.9 10.2 4.25 8.6 5.2 6.95 6.0 6.15 6.4 5.4 6.7 4.85 6.9 4.25 7.1 2.35 7.6 1.3 7.9 0.25 8.15 0.05 8.25 -0.1 8.35 -1.1 8.75 -2.1 8.85 -3.1 8.9 Q-3.9 8.9 -4.55 8.5 L-5.05 8.1 -5.45 7.75 -5.5 7.75 -5.75 7.9 -6.35 8.0 -7.95 8.35 -8.8 8.35 -8.85 8.35 -8.9 8.35 -8.9 8.3 -9.35 8.2 -10.0 8.05 -10.65 7.8 -11.15 7.45 -11.35 7.15 -11.65 6.05 -11.6 5.75 -11.5 5.6 -11.9 5.4 -12.3 5.2 -12.7 4.85 -12.85 4.7 -12.9 4.55 -13.25 3.6 -13.4 3.5 -13.45 3.45 -13.4 3.45 -13.4 3.5 Q-12.15 3.55 -11.25 2.95 -11.35 2.4 -12.3 1.85 L-10.85 1.75 -8.55 1.8 -9.2 2.4 -10.55 3.2 -10.7 3.2 -9.6 4.25 Q-8.0 5.65 -6.35 4.5 L-6.2 4.15 -6.05 4.1 -3.3 4.15 -2.85 3.25 -1.9 3.85 0.65 4.05 Q1.95 3.8 2.8 2.5 3.9 0.95 3.2 -0.65 L4.3 -0.65 Q4.95 -0.65 5.45 -0.95 L5.75 -1.55 Q6.4 -3.35 5.35 -5.0 M4.0 -3.5 L4.05 -3.55 4.6 -4.3 4.8 -4.55 4.5 -3.25 4.5 -3.2 4.45 -2.8 4.3 -2.6 3.9 -2.3 3.25 -2.05 2.55 -1.9 3.6 -3.1 4.0 -3.45 4.0 -3.5 M0.25 8.15 L0.5 7.9 0.75 7.4 0.9 7.1 1.2 7.0 1.5 7.05 3.6 7.0 4.85 6.8 6.15 6.35 7.2 5.45 7.8 4.7 8.2 3.55 8.15 2.7 8.2 3.55 7.8 4.7 7.2 5.45 6.15 6.35 4.85 6.8 3.6 7.0 1.5 7.05 1.2 7.0 0.9 7.1 0.75 7.4 0.5 7.9 0.25 8.15 M2.95 1.05 L2.6 1.7 2.0 2.2 1.8 2.35 1.3 2.5 0.65 2.65 0.35 2.6 0.35 2.55 1.0 2.2 1.05 2.15 1.65 1.7 2.35 1.15 3.2 0.25 2.95 1.05 M-1.55 1.95 L-1.95 2.4 -2.15 2.55 -2.8 2.6 -2.9 2.55 -3.2 2.45 Q-3.9 2.4 -4.45 2.0 -3.55 1.9 -2.8 1.45 L-1.9 0.95 -1.05 0.4 -0.9 0.3 -1.35 1.3 -1.5 1.85 -1.55 1.95 M-8.9 8.3 L-8.85 8.35 -8.9 8.3 M-8.1 5.6 L-9.0 5.8 -9.35 5.8 -9.45 5.85 -10.85 5.8 -11.35 5.65 -11.5 5.6 -11.35 5.65 -10.85 5.8 -9.45 5.85 -9.35 5.8 -9.0 5.8 -8.1 5.6" fill="#d6baba" fill-rule="evenodd" stroke="none"/>
    <path d="M-13.45 3.45 L-13.9 3.1 -14.55 1.8 -14.6 0.6 -14.65 -1.1 -14.3 -2.25 -13.8 -3.2 -13.65 -3.3 -11.75 -4.15 Q-12.3 -4.75 -11.4 -6.25 -10.5 -7.85 -8.4 -7.2 L-7.85 -7.75 -7.1 -8.3 -5.8 -8.8 -4.7 -8.8 -3.75 -8.3 Q-3.2 -7.95 -3.2 -7.7 L-3.25 -7.6 -3.2 -7.5 -3.25 -7.45 -2.7 -7.65 -2.15 -7.95 -1.2 -8.15 -0.35 -8.3 Q1.0 -8.3 2.15 -7.75 L3.0 -7.25 3.7 -6.4 4.2 -5.6 4.45 -5.1 4.5 -4.9 5.35 -5.0 5.7 -4.95 6.4 -4.75 Q7.1 -4.55 7.6 -4.15 L8.2 -3.3 8.8 -2.45 9.15 -1.5 9.15 -0.5 8.9 0.25 8.6 0.7 8.0 0.95 7.6 1.0 7.55 1.0 7.7 1.15 7.85 1.3 8.0 1.6 8.15 2.65 8.15 2.7 8.6 2.65 11.8 2.05 13.6 1.25 14.65 0.8 14.45 0.95 13.6 1.7 12.1 2.9 10.75 3.9 10.2 4.25 8.6 5.2 6.95 6.0 6.15 6.4 5.4 6.7 4.85 6.9 4.25 7.1 2.35 7.6 1.3 7.9 0.25 8.15 0.05 8.25 -0.1 8.35 -1.1 8.75 -2.1 8.85 -3.1 8.9 Q-3.9 8.9 -4.55 8.5 L-5.05 8.1 -5.45 7.75 -5.5 7.75 -5.75 7.9 -6.35 8.0 -7.95 8.35 -8.8 8.35 -8.85 8.35 -8.9 8.35 M-8.9 8.3 L-9.35 8.2 -10.0 8.05 -10.65 7.8 -11.15 7.45 -11.35 7.15 -11.65 6.05 -11.6 5.75 -11.5 5.6 -11.9 5.4 -12.3 5.2 -12.7 4.85 -12.85 4.7 -12.9 4.55 -13.25 3.6 -13.4 3.5 -13.45 3.45 M8.15 2.7 L8.2 3.55 7.8 4.7 7.2 5.45 6.15 6.35 4.85 6.8 3.6 7.0 1.5 7.05 1.2 7.0 0.9 7.1 0.75 7.4 0.5 7.9 0.25 8.15 M-11.5 5.6 L-11.35 5.65 -10.85 5.8 -9.45 5.85 -9.35 5.8 -9.0 5.8 -8.1 5.6 M-8.85 8.35 L-8.9 8.3" fill="none" stroke="#a36a6a" stroke-linecap="round" stroke-linejoin="round" stroke-width="1"/>
  </g>
</svg>