<?xml version="1.0" encoding="UTF-8" standalone="no"?>
<svg xmlns:xlink="http://www.w3.org/1999/xlink" height="19.8px" width="26.25px" xmlns="http://www.w3.org/2000/svg">
  <g id="shape0" transform="matrix(1.0, 0.0, 0.0, 1.0, 13.15, 9.9)">
    <path d="M-11.4 5.0 L-11.45 4.95 -11.75 4.6 -12.05 4.0 -12.15 3.2 -12.1 2.45 -11.8 1.85 -11.45 1.2 -11.15 0.85 -10.9 0.7 -10.85 0.7 -11.4 0.05 -11.7 -0.4 -11.75 -1.0 -11.4 -2.25 -10.9 -3.2 -10.75 -3.3 -8.85 -4.15 Q-9.4 -4.75 -8.5 -6.25 -7.6 -7.85 -5.5 -7.2 L-4.95 -7.75 -4.2 -8.3 Q-3.65 -8.7 -2.9 -8.8 L-1.8 -8.8 -0.85 -8.3 -0.3 -7.7 -0.35 -7.6 -0.3 -7.5 -0.35 -7.45 Q-0.05 -7.45 0.2 -7.65 L0.75 -7.95 1.7 -8.15 2.55 -8.3 3.95 -8.15 4.25 -8.05 4.85 -7.85 5.05 -7.75 5.9 -7.25 6.6 -6.4 6.8 -6.05 7.1 -5.6 7.35 -5.1 7.4 -4.9 8.25 -5.0 Q9.3 -3.35 8.65 -1.55 L8.35 -0.95 8.15 -0.85 7.2 -0.65 6.8 -0.65 6.1 -0.65 6.35 0.05 6.25 1.5 5.7 2.5 Q4.85 3.8 3.55 4.05 L1.0 3.85 0.05 3.25 -0.4 4.15 -3.15 4.1 -3.3 4.15 -3.45 4.5 Q-5.1 5.65 -6.7 4.25 L-7.8 3.2 -6.3 2.4 -5.65 1.8 -9.45 1.7 -8.35 2.95 -7.85 3.2 Q-9.35 4.65 -11.4 5.0 M1.55 1.3 Q1.7 0.7 2.0 0.3 L1.85 0.4 1.0 0.95 0.1 1.45 Q-0.65 1.9 -1.55 2.0 -1.0 2.4 -0.3 2.45 L0.0 2.55 0.1 2.6 0.75 2.55 0.95 2.4 1.35 1.95 1.4 1.85 1.55 1.3 M5.65 1.5 L5.85 1.05 6.1 0.25 5.25 1.15 4.85 1.5 4.55 1.7 3.95 2.15 3.9 2.2 3.25 2.55 3.25 2.6 3.55 2.65 4.2 2.5 4.7 2.35 4.9 2.2 5.5 1.7 5.65 1.5 M7.4 -3.2 L7.4 -3.25 7.7 -4.55 7.5 -4.3 6.95 -3.55 6.9 -3.5 6.9 -3.45 6.8 -3.3 6.5 -3.1 5.45 -1.9 6.15 -2.05 6.8 -2.3 7.2 -2.6 7.35 -2.8 7.4 -3.2" fill="#faf8f8" fill-rule="evenodd" stroke="none"/>
    <path d="M8.25 -5.0 L8.6 -4.95 9.3 -4.75 Q10.0 -4.55 10.5 -4.15 L11.1 -3.3 11.7 -2.45 12.05 -1.5 12.1 -0.85 12.05 -0.5 12.05 -0.3 11.9 0.05 11.8 0.25 11.5 0.7 10.9 0.95 10.5 1.0 10.45 1.0 10.6 1.15 10.75 1.3 10.9 1.5 10.9 1.6 11.05 2.65 11.1 3.55 10.7 4.7 10.1 5.45 Q9.15 6.55 7.75 6.8 L6.5 7.0 4.4 7.05 4.1 7.0 3.8 7.1 3.65 7.4 3.4 7.9 2.95 8.25 1.8 8.75 0.8 8.85 -0.2 8.9 Q-1.0 8.9 -1.65 8.5 L-2.15 8.1 -2.55 7.75 -2.6 7.75 -2.85 7.9 -3.45 8.0 -5.05 8.35 -5.9 8.35 -7.0 8.1 -7.95 7.55 -8.7 7.0 -9.05 6.35 -9.1 6.0 -10.1 5.95 -10.55 5.75 -11.2 5.25 -11.4 5.0 Q-9.35 4.65 -7.85 3.2 L-8.35 2.95 -9.45 1.7 -5.65 1.8 -6.3 2.4 -7.8 3.2 -6.7 4.25 Q-5.1 5.65 -3.45 4.5 L-3.3 4.15 -3.15 4.1 -0.4 4.15 0.05 3.25 1.0 3.85 3.55 4.05 Q4.85 3.8 5.7 2.5 L6.25 1.5 6.35 0.05 6.1 -0.65 6.8 -0.65 7.2 -0.65 8.15 -0.85 8.35 -0.95 8.65 -1.55 Q9.3 -3.35 8.25 -5.0 M7.4 -3.2 L7.35 -2.8 7.2 -2.6 6.8 -2.3 6.15 -2.05 5.45 -1.9 6.5 -3.1 6.8 -3.3 6.9 -3.45 6.9 -3.5 6.95 -3.55 7.5 -4.3 7.7 -4.55 7.4 -3.25 7.4 -3.2 M5.65 1.5 L5.5 1.7 4.9 2.2 4.7 2.35 4.2 2.5 3.55 2.65 3.25 2.6 3.25 2.55 3.9 2.2 3.95 2.15 4.55 1.7 4.85 1.5 5.25 1.15 6.1 0.25 5.85 1.05 5.65 1.5 M1.55 1.3 L1.4 1.85 1.35 1.95 0.95 2.4 0.75 2.55 0.1 2.6 0.0 2.55 -0.3 2.45 Q-1.0 2.4 -1.55 2.0 -0.65 1.9 0.1 1.45 L1.0 0.95 1.85 0.4 2.0 0.3 Q1.7 0.7 1.55 1.3" fill="#d6baba" fill-rule="evenodd" stroke="none"/>
    <path d="M-11.4 5.0 L-11.45 4.95 -11.75 4.6 -12.05 4.0 -12.15 3.2 -12.1 2.45 -11.8 1.85 -11.45 1.2 -11.15 0.85 -10.9 0.7 -10.85 0.7 -11.4 0.05 -11.7 -0.4 -11.75 -1.0 -11.4 -2.25 -10.9 -3.2 -10.75 -3.3 -8.85 -4.15 Q-9.4 -4.75 -8.5 -6.25 -7.6 -7.85 -5.5 -7.2 L-4.95 -7.75 -4.2 -8.3 Q-3.65 -8.7 -2.9 -8.8 L-1.8 -8.8 -0.85 -8.3 -0.3 -7.7 -0.35 -7.6 -0.3 -7.5 -0.35 -7.45 Q-0.05 -7.45 0.2 -7.65 L0.75 -7.95 1.7 -8.15 2.55 -8.3 3.95 -8.15 4.25 -8.05 4.85 -7.85 5.05 -7.75 5.9 -7.25 6.6 -6.4 6.8 -6.05 7.1 -5.6 7.35 -5.1 7.4 -4.9 8.25 -5.0 8.6 -4.95 9.3 -4.75 Q10.0 -4.55 10.5 -4.15 L11.1 -3.3 11.7 -2.45 12.05 -1.5 12.1 -0.85 12.05 -0.5 12.05 -0.3 11.9 0.05 11.8 0.25 11.5 0.7 10.9 0.95 10.5 1.0 10.45 1.0 10.6 1.15 10.75 1.3 10.9 1.5 10.9 1.6 11.05 2.65 11.1 3.55 10.7 4.7 10.1 5.45 Q9.15 6.55 7.75 6.8 L6.5 7.0 4.4 7.05 4.1 7.0 3.8 7.1 3.65 7.4 3.4 7.9 2.95 8.25 1.8 8.75 0.8 8.85 -0.2 8.9 Q-1.0 8.9 -1.65 8.5 L-2.15 8.1 -2.55 7.75 -2.6 7.75 -2.85 7.9 -3.45 8.0 -5.05 8.35 -5.9 8.35 -7.0 8.1 -7.95 7.55 -8.7 7.0 -9.05 6.35 -9.1 6.0 -10.1 5.95 -10.55 5.75 -11.2 5.25 -11.4 5.0 Z" fill="none" stroke="#a36a6a" stroke-linecap="round" stroke-linejoin="round" stroke-width="1"/>
  </g>
</svg>