<?xml version="1.0" encoding="UTF-8" standalone="no"?>
<svg xmlns:xlink="http://www.w3.org/1999/xlink" height="31.5px" width="25.85px" xmlns="http://www.w3.org/2000/svg">
  <g transform="matrix(1.0, 0.0, 0.0, 1.0, -5.3, -28.9)">
    <path d="M13.3 36.1 L12.35 38.45 12.45 39.7 12.3 41.25 12.75 40.85 12.85 40.95 Q14.35 37.6 15.45 36.75 L16.1 37.35 16.25 38.35 Q16.25 39.15 14.7 42.35 L14.75 42.8 14.65 43.35 15.05 44.05 15.75 45.85 Q16.65 44.25 17.3 43.9 L17.9 44.1 18.15 44.9 17.05 47.6 Q15.85 50.1 14.65 51.5 14.05 53.05 13.85 54.5 L12.6 54.6 Q10.5 54.6 8.2 49.6 L6.3 44.55 Q6.3 43.85 8.15 41.2 10.0 38.55 10.55 38.25 L10.85 37.95 Q11.35 36.5 12.2 34.7 14.55 29.75 16.25 29.9 L13.3 36.1 M21.9 47.05 L22.0 49.2 21.5 51.85 20.8 53.6 20.8 53.75 23.2 50.35 Q24.45 48.05 23.95 46.25 L24.2 46.0 25.15 45.75 26.3 45.95 26.4 47.5 28.4 47.3 Q28.9 44.75 29.35 44.25 30.0 44.65 30.15 45.45 L30.15 46.55 30.1 47.9 30.15 48.15 30.05 48.4 28.95 52.6 Q27.0 58.25 23.05 58.25 22.55 58.25 22.0 57.9 21.45 57.5 20.95 57.5 20.65 57.5 19.85 58.4 19.05 59.3 17.6 59.4 16.75 56.95 16.75 56.0 L17.95 52.4 18.8 49.8 18.9 48.25 Q19.25 45.6 20.3 44.65 21.55 45.5 21.9 47.05 M25.6 52.95 L25.4 53.85 26.25 53.15 25.6 52.95" fill="#000000" fill-rule="evenodd" stroke="none"/>
  </g>
</svg>