<?xml version="1.0" encoding="UTF-8" standalone="no"?>
<svg xmlns:xlink="http://www.w3.org/1999/xlink" height="96.35px" width="124.1px" xmlns="http://www.w3.org/2000/svg">
  <g transform="matrix(1.0, 0.0, 0.0, 1.0, 91.6, 33.3)">
    <path d="M-83.5 -27.65 Q-87.3 -30.05 -90.45 -31.7 L-90.6 -32.15 -90.6 -32.3 Q-86.15 -29.6 -78.8 -26.25 -72.9 -23.55 -67.85 -21.75 L-64.9 -19.95 Q-41.4 -6.85 -28.8 -0.9 L-29.05 0.75 Q-29.1 2.35 -27.95 3.85 -25.7 6.8 -19.7 6.8 -13.95 6.8 -11.2 4.45 L-10.55 3.85 -10.05 3.7 -9.4 4.05 -9.25 4.0 -9.8 3.6 Q-8.0 3.0 -6.5 1.6 L-6.25 1.35 -6.25 -0.7 -6.9 -7.0 Q-9.1 -14.0 -10.75 -20.9 L-10.6 -21.6 -7.1 -17.25 -3.95 -11.05 Q0.6 -2.3 4.2 2.0 L5.7 5.95 Q9.8 15.25 16.25 15.4 L17.7 17.2 16.8 21.1 Q15.65 25.4 15.65 26.15 15.65 26.95 16.4 31.25 L17.15 36.05 17.1 36.95 Q18.1 39.1 19.5 40.25 L19.95 41.0 19.5 40.65 19.4 42.1 19.6 42.3 Q19.7 42.5 18.9 42.5 L18.5 42.4 18.05 43.95 18.85 44.65 Q19.5 45.3 19.7 46.65 L20.65 46.85 20.65 47.7 22.35 45.0 Q21.8 44.3 21.0 42.45 L22.5 43.75 22.5 43.8 Q22.9 43.15 24.05 42.55 25.85 41.6 27.3 41.9 L27.5 42.15 27.65 42.85 27.75 42.65 27.95 42.3 27.95 42.35 28.1 44.45 29.25 45.55 28.95 47.4 Q28.95 48.7 29.7 50.05 30.4 51.25 31.5 51.95 L31.45 52.15 Q31.0 56.3 28.95 57.95 L27.95 57.15 Q25.6 60.5 22.05 60.5 L20.65 60.05 Q19.9 59.5 19.25 59.5 18.85 59.5 17.75 60.7 16.7 61.95 14.75 62.05 13.6 58.8 13.6 57.5 13.6 57.05 15.0 53.3 L13.7 51.95 Q12.9 51.05 11.75 50.6 L12.35 52.05 Q12.35 54.1 10.4 54.6 L10.35 56.25 10.55 56.45 9.8 56.55 Q8.6 56.55 7.8 55.7 L7.2 55.9 Q6.65 54.95 5.75 51.4 5.05 48.4 3.0 46.05 L1.95 44.85 -11.7 43.6 Q-10.7 43.5 -9.95 42.95 L-6.85 42.7 -0.6 42.15 -2.4 40.25 -2.9 39.8 -11.05 36.5 -11.1 36.45 Q-13.65 34.7 -17.0 33.8 L-19.65 33.2 -19.5 33.1 -43.6 23.3 -31.85 24.4 -29.0 26.45 -26.55 25.4 Q-22.9 26.7 -19.65 26.7 -17.95 26.7 -16.85 25.35 L-16.6 25.1 -22.7 17.7 Q-24.55 16.8 -26.65 16.1 L-29.45 13.55 -29.45 11.65 Q-29.45 7.85 -33.05 4.2 -36.15 0.95 -40.9 -1.1 -45.45 -3.05 -48.75 -2.8 L-49.5 -2.7 Q-56.55 -8.15 -59.5 -10.0 -72.5 -20.75 -83.5 -27.65 M-5.3 -0.25 L-5.3 0.3 -5.15 0.1 -5.2 -0.25 -5.3 -0.25 M-5.3 0.75 L-5.3 1.05 -5.15 1.1 -5.15 0.7 -5.3 0.75 M-8.65 4.45 L-8.3 4.65 -8.6 4.4 -8.65 4.45 M14.7 48.2 L14.6 47.85 14.3 47.8 14.7 48.2" fill="#000000" fill-rule="evenodd" stroke="none"/>
  </g>
</svg>