<?xml version="1.0" encoding="UTF-8" standalone="no"?>
<svg xmlns:xlink="http://www.w3.org/1999/xlink" height="30.2px" width="105.4px" xmlns="http://www.w3.org/2000/svg">
  <g transform="matrix(1.0, 0.0, 0.0, 1.0, 32.6, -44.5)">
    <use data-characterId="3357" height="30.2" transform="matrix(1.0, 0.0, 0.0, 1.0, -32.6, 44.5)" width="105.4" xlink:href="#morphshape0"/>
  </g>
  <defs>
    <g id="morphshape0" transform="matrix(1.0, 0.0, 0.0, 1.0, 32.6, -44.5)">
      <path d="M-26.2 59.6 Q-26.2 65.5 -12.65 69.65 0.9 73.95 20.15 73.95 39.35 73.95 52.85 69.65 66.45 65.5 66.45 59.6 66.45 53.65 52.85 49.45 39.35 45.3 20.15 45.3 0.9 45.3 -12.65 49.45 -26.2 53.65 -26.2 59.6" fill="#000000" fill-opacity="0.2509804" fill-rule="evenodd" stroke="none"/>
      <path d="M-26.2 59.6 Q-26.2 53.65 -12.65 49.45 0.9 45.3 20.15 45.3 39.35 45.3 52.85 49.45 66.45 53.65 66.45 59.6 66.45 65.5 52.85 69.65 39.35 73.95 20.15 73.95 0.9 73.95 -12.65 69.65 -26.2 65.5 -26.2 59.6 Z" fill="none" stroke="#000000" stroke-linecap="round" stroke-linejoin="round" stroke-opacity="0.0" stroke-width="1.0"/>
    </g>
  </defs>
</svg>
