<?xml version="1.0" encoding="UTF-8" standalone="no"?>
<svg xmlns:xlink="http://www.w3.org/1999/xlink" height="40.2px" width="54.4px" xmlns="http://www.w3.org/2000/svg">
  <g transform="matrix(1.0, 0.0, 0.0, 1.0, 3.35, -31.9)">
    <path d="M17.15 35.2 Q18.55 33.65 20.15 33.15 L23.85 33.3 Q27.2 34.65 27.25 38.05 L26.9 40.75 26.4 43.0 Q25.85 45.55 26.0 47.9 26.1 51.0 27.35 51.35 L30.0 51.55 34.0 51.5 34.95 51.55 35.95 51.35 41.3 50.95 41.7 51.1 41.85 51.8 Q41.85 52.4 40.6 52.85 L38.0 53.7 37.85 53.7 35.25 54.1 32.5 54.6 Q31.2 55.0 31.2 55.8 31.15 56.45 33.05 56.7 L37.35 57.1 41.6 57.6 42.55 57.9 47.15 57.35 49.95 58.15 50.05 58.65 Q49.65 59.5 49.05 59.65 L46.95 59.8 44.4 60.1 40.3 60.1 39.3 59.6 38.4 59.55 34.65 59.45 Q32.85 59.55 32.45 60.1 32.2 60.45 32.95 61.0 L34.4 62.1 Q35.25 62.8 35.2 63.35 L35.0 63.95 37.1 65.5 37.2 65.95 Q35.65 67.5 34.8 67.5 34.1 67.5 30.65 65.65 27.45 63.95 26.15 62.3 L26.0 62.35 Q25.5 62.55 25.05 63.3 L24.2 64.6 23.55 65.35 23.9 69.55 Q23.9 70.35 23.25 70.8 L22.4 71.1 Q19.45 71.1 18.75 68.45 L18.65 66.0 17.9 64.85 17.35 63.6 16.55 62.7 14.7 62.75 12.1 63.45 10.2 63.8 Q8.05 65.15 7.05 65.15 L4.35 65.0 4.2 64.9 Q4.05 64.8 4.05 64.1 4.05 62.85 7.25 61.9 L9.2 61.45 9.4 61.3 10.35 60.6 Q10.6 60.2 9.85 59.9 L7.75 59.4 5.55 59.25 5.5 59.25 Q4.6 60.1 3.65 60.1 L-1.1 59.9 Q-1.2 59.45 -2.35 59.05 -2.0 57.95 0.1 57.4 0.35 56.7 1.35 56.3 L4.35 55.7 7.5 55.35 Q9.0 55.15 9.1 54.65 9.3 54.25 8.5 54.05 L6.75 53.75 4.9 53.4 4.55 53.25 2.7 53.25 1.95 52.65 1.7 51.95 Q1.75 51.35 2.55 51.1 L10.5 50.7 11.15 51.0 12.55 50.75 Q13.8 50.5 14.35 49.45 14.8 48.55 14.8 47.0 L14.55 44.05 14.45 41.25 Q14.5 39.9 15.25 38.25 15.95 36.5 17.15 35.2" fill="#000000" fill-rule="evenodd" stroke="none"/>
  </g>
</svg>