<?xml version="1.0" encoding="UTF-8" standalone="no"?>
<svg xmlns:xlink="http://www.w3.org/1999/xlink" height="30.2px" width="105.4px" xmlns="http://www.w3.org/2000/svg">
  <g transform="matrix(1.0, 0.0, 0.0, 1.0, 32.6, -44.5)">
    <use data-characterId="3357" height="30.2" transform="matrix(1.0, 0.0, 0.0, 1.0, -32.6, 44.5)" width="105.4" xlink:href="#morphshape0"/>
  </g>
  <defs>
    <g id="morphshape0" transform="matrix(1.0, 0.0, 0.0, 1.0, 32.6, -44.5)">
      <path d="M-16.55 59.6 Q-16.55 65.0 -5.85 68.8 4.85 72.75 20.1 72.75 35.3 72.75 46.0 68.8 56.8 65.0 56.8 59.6 56.8 54.15 46.0 50.3 35.3 46.5 20.1 46.5 4.85 46.5 -5.85 50.3 -16.55 54.15 -16.55 59.6" fill="#000000" fill-opacity="0.627451" fill-rule="evenodd" stroke="none"/>
      <path d="M-16.55 59.6 Q-16.55 54.15 -5.85 50.3 4.85 46.5 20.1 46.5 35.3 46.5 46.0 50.3 56.8 54.15 56.8 59.6 56.8 65.0 46.0 68.8 35.3 72.75 20.1 72.75 4.85 72.75 -5.85 68.8 -16.55 65.0 -16.55 59.6 Z" fill="none" stroke="#000000" stroke-linecap="round" stroke-linejoin="round" stroke-opacity="0.0" stroke-width="1.0"/>
    </g>
  </defs>
</svg>
