<?xml version="1.0" encoding="UTF-8" standalone="no"?>
<svg xmlns:xlink="http://www.w3.org/1999/xlink" height="35.55px" width="45.5px" xmlns="http://www.w3.org/2000/svg">
  <g transform="matrix(1.0, 0.0, 0.0, 1.0, 1, 1)">
    <path d="M43.5 26.0 Q43.55 26.6 41.95 26.7 L38.4 26.65 34.65 26.55 Q32.85 26.65 32.45 27.2 32.2 27.55 32.95 28.1 L34.4 29.2 Q35.25 29.9 35.2 30.45 35.2 31.2 33.8 31.85 32.45 32.55 31.35 32.1 30.65 31.8 29.6 30.85 L28.0 29.5 26.0 29.45 Q25.5 29.65 25.05 30.4 L24.2 31.7 22.8 32.95 20.15 33.55 Q19.25 33.6 18.65 33.1 L17.9 31.95 17.35 30.7 16.55 29.8 14.7 29.85 12.1 30.55 9.6 30.95 Q8.45 31.05 8.15 30.5 7.85 29.9 8.3 29.35 8.55 28.95 9.4 28.4 L10.35 27.7 Q10.6 27.3 9.85 27.0 L7.75 26.5 4.4 26.25 1.35 25.8 Q0.05 25.5 0.0 25.05 -0.05 23.95 1.35 23.4 L4.35 22.8 7.5 22.45 Q9.0 22.25 9.1 21.75 9.3 21.35 8.5 21.15 L6.75 20.85 4.9 20.5 Q4.05 20.2 4.05 19.6 4.0 18.75 4.85 18.4 L6.95 18.1 9.7 18.15 12.55 17.85 Q13.8 17.6 14.35 16.55 14.8 15.65 14.8 14.1 L14.55 11.15 14.45 8.35 Q14.5 7.0 15.25 5.35 15.95 3.6 17.15 2.3 18.55 0.75 20.15 0.25 L23.85 0.4 Q27.2 1.75 27.25 5.15 L26.9 7.85 26.4 10.1 Q25.85 12.65 26.0 15.0 26.1 18.1 27.35 18.45 L30.0 18.65 34.0 18.6 37.6 18.9 Q39.2 19.2 39.2 19.8 39.25 20.45 38.0 20.75 L35.25 21.2 32.5 21.7 Q31.2 22.1 31.2 22.9 31.15 23.55 33.05 23.8 L37.35 24.2 41.6 24.7 Q43.55 25.1 43.5 26.0" fill="#000000" fill-rule="evenodd" stroke="none"/>
  </g>
</svg>