<?xml version="1.0" encoding="UTF-8" standalone="no"?>
<svg xmlns:xlink="http://www.w3.org/1999/xlink" height="69.35px" width="68.65px" xmlns="http://www.w3.org/2000/svg">
  <g transform="matrix(1.0, 0.0, 0.0, 1.0, -28.5, 1)">
    <path d="M83.7 23.85 L83.55 23.85 Q79.45 23.85 75.05 22.75 L71.45 21.65 68.75 22.2 66.05 22.7 65.25 22.25 62.75 20.7 Q59.55 19.0 58.7 18.5 57.5 17.8 57.5 17.35 57.5 16.5 59.75 13.9 62.2 11.05 64.7 9.3 L64.6 9.3 61.7 9.95 59.75 10.35 53.8 11.1 51.95 10.95 51.95 10.8 52.6 10.2 Q53.95 9.5 55.65 8.9 57.3 8.3 64.7 6.25 68.75 5.1 74.05 4.4 L80.1 3.4 80.45 3.3 Q79.45 4.0 74.65 9.4 L69.6 15.25 Q70.1 15.1 79.15 20.95 L83.7 23.85 M47.4 13.9 L48.35 13.15 49.6 12.75 54.0 12.3 56.7 12.6 57.55 12.85 57.85 12.9 58.0 12.9 52.45 17.85 46.7 22.65 46.7 22.7 Q48.2 21.6 50.6 20.65 53.6 19.5 56.15 19.5 58.5 19.5 59.4 21.15 60.05 22.35 60.05 25.0 L59.85 26.25 59.6 27.75 59.6 27.8 Q60.0 26.4 61.65 25.6 62.8 25.05 63.6 25.05 L65.6 25.45 68.8 25.8 Q69.15 25.8 69.65 25.3 70.15 24.75 71.15 24.75 80.8 24.75 92.9 29.15 L96.15 30.45 84.5 31.2 86.75 33.4 Q88.6 35.3 95.0 41.0 84.55 41.4 83.45 40.8 L83.65 41.1 86.25 45.6 Q88.8 50.2 88.85 52.65 L88.75 52.65 Q88.05 52.0 83.9 44.9 82.1 41.85 77.75 36.9 73.9 32.5 73.55 32.4 L62.75 31.85 62.75 31.6 64.15 27.95 64.1 27.95 56.35 30.85 Q49.55 33.2 47.35 33.6 L47.35 33.45 Q49.55 28.4 49.55 27.15 44.9 26.7 44.15 25.95 L40.25 30.5 Q36.6 34.4 35.0 34.4 L34.45 31.1 34.45 29.2 34.15 27.35 33.8 26.15 32.65 23.0 31.05 20.2 29.5 18.35 34.3 21.35 Q36.85 22.8 37.9 23.95 L38.55 23.1 Q40.4 20.95 42.6 11.15 L44.9 0.0 45.7 7.6 46.5 14.9 46.65 15.25 47.4 13.9" fill="#36769c" fill-rule="evenodd" stroke="none"/>
    <path d="M52.6 10.2 L51.95 10.8 51.95 10.95 53.8 11.1 59.75 10.35 61.7 9.95 64.6 9.3 64.7 9.3 Q62.2 11.05 59.75 13.9 57.5 16.5 57.5 17.35 57.5 17.8 58.7 18.5 59.55 19.0 62.75 20.7 L65.25 22.25 66.05 22.7 68.75 22.2 71.45 21.65 75.05 22.75 Q79.45 23.85 83.55 23.85 L83.7 23.85 90.65 28.1 92.9 29.15 Q80.8 24.75 71.15 24.75 70.15 24.75 69.65 25.3 69.15 25.8 68.8 25.8 L65.6 25.45 63.6 25.05 Q62.8 25.05 61.65 25.6 60.0 26.4 59.6 27.8 L59.6 27.75 59.85 26.25 60.05 25.0 Q60.05 22.35 59.4 21.15 58.5 19.5 56.15 19.5 53.6 19.5 50.6 20.65 48.2 21.6 46.7 22.7 L46.7 22.65 52.45 17.85 58.0 12.9 57.85 12.9 57.55 12.85 56.7 12.6 54.0 12.3 49.6 12.75 48.35 13.15 47.4 13.9 Q48.9 11.95 52.6 10.2" fill="#72add0" fill-rule="evenodd" stroke="none"/>
    <path d="M83.65 41.1 L88.1 48.05 Q90.2 53.2 95.05 59.3 94.5 58.7 88.15 57.5 87.7 57.4 85.8 62.25 83.9 67.05 84.05 67.35 L79.2 61.35 78.9 60.95 78.85 60.9 79.1 60.15 79.55 57.6 79.7 55.45 Q80.65 50.4 78.5 42.7 77.9 40.85 76.1 38.2 73.15 36.9 68.5 36.15 60.6 34.8 58.2 36.1 L60.9 31.8 57.85 32.65 51.55 35.5 48.6 36.7 48.2 36.8 Q45.95 37.45 43.2 38.95 L39.85 40.55 Q40.05 40.0 42.5 36.55 L45.05 33.05 44.9 32.7 40.55 33.9 Q38.4 35.75 36.25 38.7 L34.75 41.0 Q34.5 40.65 34.4 39.5 L34.4 39.4 Q34.2 37.85 34.25 34.85 L34.45 31.1 35.0 34.4 Q36.6 34.4 40.25 30.5 L44.15 25.95 Q44.9 26.7 49.55 27.15 49.55 28.4 47.35 33.45 L47.35 33.6 Q49.55 33.2 56.35 30.85 L64.1 27.95 64.15 27.95 62.75 31.6 62.75 31.85 73.55 32.4 Q73.9 32.5 77.75 36.9 82.1 41.85 83.9 44.9 88.05 52.0 88.75 52.65 L88.85 52.65 Q88.8 50.2 86.25 45.6 L83.65 41.1" fill="#2f5e79" fill-rule="evenodd" stroke="none"/>
    <path d="M79.1 60.15 L78.65 54.15 Q78.1 47.95 76.7 46.35 L69.7 38.75 Q68.4 37.8 63.85 37.8 L57.9 38.5 53.3 39.5 53.3 39.35 55.6 36.3 55.45 36.3 53.85 37.35 50.6 39.3 43.7 41.8 37.45 43.95 37.45 43.8 38.1 41.2 38.5 38.85 Q36.0 43.45 35.3 43.8 34.4 40.3 34.4 39.5 34.5 40.65 34.75 41.0 L36.25 38.7 Q38.4 35.75 40.55 33.9 L44.9 32.7 45.05 33.05 42.5 36.55 Q40.05 40.0 39.85 40.55 L43.2 38.95 Q45.95 37.45 48.2 36.8 L48.6 36.7 51.55 35.5 57.85 32.65 60.9 31.8 58.2 36.1 Q60.6 34.8 68.5 36.15 73.15 36.9 76.1 38.2 77.9 40.85 78.5 42.7 80.65 50.4 79.7 55.45 L79.55 57.6 79.1 60.15" fill="#695330" fill-opacity="0.67058825" fill-rule="evenodd" stroke="none"/>
    <path d="M83.7 23.85 L79.15 20.95 Q70.1 15.1 69.6 15.25 L74.65 9.4 Q79.45 4.0 80.45 3.3 L80.1 3.4 74.05 4.4 Q68.75 5.1 64.7 6.25 57.3 8.3 55.65 8.9 53.95 9.5 52.6 10.2 48.9 11.95 47.4 13.9 L46.65 15.25 46.5 14.9 45.7 7.6 44.9 0.0 42.6 11.15 Q40.4 20.95 38.55 23.1 L37.9 23.95 Q36.85 22.8 34.3 21.35 L29.5 18.35 31.05 20.2 32.65 23.0 33.8 26.15 34.15 27.35 34.45 29.2 34.45 31.1 34.25 34.85 Q34.2 37.85 34.4 39.4 L34.4 39.5 Q34.5 40.65 34.75 41.0 L36.25 38.7 Q38.4 35.75 40.55 33.9 L44.9 32.7 45.05 33.05 42.5 36.55 Q40.05 40.0 39.85 40.55 L43.2 38.95 Q45.95 37.45 48.2 36.8 L48.6 36.7 51.55 35.5 57.85 32.65 60.9 31.8 58.2 36.1 Q60.6 34.8 68.5 36.15 73.15 36.9 76.1 38.2 77.9 40.85 78.5 42.7 80.65 50.4 79.7 55.45 L79.55 57.6 79.1 60.15 78.85 60.9 78.9 60.95 79.2 61.35 84.05 67.35 Q83.9 67.05 85.8 62.25 87.7 57.4 88.15 57.5 94.5 58.7 95.05 59.3 90.2 53.2 88.1 48.05 L83.65 41.1 83.45 40.8 Q84.55 41.4 95.0 41.0 88.6 35.3 86.75 33.4 L84.5 31.2 96.15 30.45 92.9 29.15 90.65 28.1 83.7 23.85 Z" fill="none" stroke="#15384d" stroke-linecap="round" stroke-linejoin="round" stroke-width="1"/>
  </g>
</svg>