<?xml version="1.0" encoding="UTF-8" standalone="no"?>
<svg xmlns:xlink="http://www.w3.org/1999/xlink" height="32.1px" width="73.2px" xmlns="http://www.w3.org/2000/svg">
  <g transform="matrix(1.0, 0.0, 0.0, 1.0, 12.8, -38.55)">
    <path d="M49.4 46.55 L54.35 44.5 58.75 42.75 59.05 42.85 59.4 43.1 52.15 46.55 Q47.8 48.6 46.55 50.4 L45.75 50.35 45.75 49.65 Q45.75 48.85 46.8 47.65 L48.25 45.9 48.4 45.75 Q44.45 48.4 39.25 53.5 L38.8 53.3 38.65 52.75 Q38.65 51.75 44.2 47.45 49.95 43.0 52.0 43.05 L52.05 43.35 49.55 46.3 49.4 46.55 M8.75 47.85 Q8.75 48.05 8.35 48.05 7.25 48.05 4.3 45.6 1.3 43.1 0.1 41.1 L-0.15 41.15 0.05 44.0 Q0.05 44.25 -0.55 44.25 L-4.1 43.15 -11.75 42.9 -11.8 42.75 -9.6 41.85 -4.7 41.35 -2.5 41.65 -1.3 42.35 Q-2.15 37.45 1.8 41.1 L8.75 47.5 8.75 47.85 M22.15 68.9 Q20.4 69.8 19.5 69.65 19.7 69.15 20.4 68.55 21.2 67.9 22.05 67.65 L20.7 67.05 Q19.75 66.5 19.75 66.15 L19.8 65.6 Q20.65 65.5 22.2 66.25 23.85 67.0 23.85 67.55 L23.3 68.25 23.05 68.4 22.15 68.9 M40.1 62.85 Q40.1 63.6 38.15 65.05 L35.5 67.0 Q34.85 66.7 34.85 65.9 L35.35 65.3 36.15 64.35 34.65 64.8 Q33.5 64.35 33.5 64.2 33.5 63.5 35.8 62.85 38.05 62.15 39.85 62.35 L40.05 62.45 40.1 62.85 M3.0 57.5 L0.95 57.25 -1.75 55.75 -1.35 57.0 -2.05 57.4 -3.4 55.85 -4.35 54.25 Q-4.35 53.15 -0.85 54.55 2.1 55.75 3.5 56.75 L3.45 57.3 Q3.4 57.5 3.0 57.5 M9.1 65.65 L8.85 66.05 6.5 64.7 Q4.8 63.8 4.5 63.3 5.5 62.15 7.4 62.45 8.95 62.7 9.65 63.35 L9.4 63.8 8.0 64.05 Q8.7 64.3 9.1 65.65 M50.75 57.0 Q50.75 57.65 50.2 58.2 L48.25 59.85 48.25 59.9 50.4 59.5 50.5 59.65 49.2 60.55 Q48.2 61.25 47.65 61.25 L46.5 61.1 46.4 60.95 46.3 60.5 Q46.3 59.5 47.5 58.9 L47.65 58.75 45.0 59.35 43.75 59.35 Q43.5 59.3 43.5 58.7 L46.6 57.55 Q49.9 56.4 50.75 56.4 L50.75 57.0 M58.45 62.9 L58.05 62.75 58.25 62.75 58.45 62.9" fill="#000000" fill-rule="evenodd" stroke="none"/>
  </g>
</svg>