<?xml version="1.0" encoding="UTF-8" standalone="no"?>
<svg xmlns:xlink="http://www.w3.org/1999/xlink" height="36.4px" width="78.9px" xmlns="http://www.w3.org/2000/svg">
  <g transform="matrix(1.0, 0.0, 0.0, 1.0, 9.75, -38.25)">
    <path d="M49.8 44.0 Q46.4 46.6 39.0 54.0 L38.15 54.0 38.1 53.25 Q38.1 52.3 43.45 47.35 49.25 41.9 52.5 41.5 L52.6 41.8 49.6 47.0 Q51.4 46.75 59.45 42.75 L60.5 42.85 60.5 43.45 59.75 44.85 59.55 45.0 60.7 44.5 63.05 44.05 66.85 44.45 Q67.35 44.75 68.0 46.0 68.35 46.3 67.75 46.3 L66.0 45.85 64.1 45.35 Q61.7 45.35 60.3 46.2 L57.4 48.05 56.95 47.85 Q56.8 47.75 56.8 47.3 56.8 46.9 57.4 46.05 L58.4 44.5 58.4 44.35 52.05 47.45 Q47.65 49.55 47.15 50.75 L46.35 50.75 46.3 50.1 47.75 47.5 49.8 44.0 M1.3 44.35 Q0.6 44.35 -0.4 43.05 -1.45 41.75 -4.65 41.75 -5.05 41.75 -7.1 42.9 L-7.4 42.85 -5.55 41.6 Q-4.5 40.8 -1.65 41.0 L-1.7 40.25 -1.75 39.25 Q3.0 39.0 8.85 45.4 14.1 51.1 14.1 53.9 L14.05 54.25 13.8 54.55 Q12.55 54.1 11.7 52.75 L10.55 51.0 11.45 53.25 12.25 55.75 12.15 56.5 Q12.55 56.65 11.9 56.65 L8.1 50.85 Q3.95 44.75 1.85 43.4 L1.85 44.15 Q1.9 44.35 1.3 44.35 M21.55 69.5 Q24.3 69.6 25.65 71.15 26.4 71.95 27.0 73.4 L26.65 73.65 Q25.65 72.45 24.65 71.75 22.75 70.45 19.15 70.4 L18.95 70.2 18.85 69.7 Q18.85 69.0 20.2 68.45 L21.9 67.9 22.3 67.85 Q20.5 67.75 20.0 67.3 L20.0 66.5 Q21.3 66.2 22.4 66.5 23.05 66.65 24.75 67.35 24.15 68.4 21.55 69.5 M33.75 65.3 Q33.75 62.25 42.25 62.25 L42.65 62.4 42.85 62.95 Q42.85 63.55 41.75 64.6 L39.5 66.25 Q44.6 66.45 45.65 67.45 46.25 68.0 46.0 69.25 L45.75 69.6 44.45 69.35 44.4 68.85 Q44.0 68.05 37.6 68.05 L35.65 68.0 35.45 67.85 35.4 67.35 Q35.4 67.0 38.05 65.4 L41.15 63.5 Q37.85 63.3 35.9 64.5 L34.35 65.85 33.85 65.8 33.75 65.3 M3.5 56.9 L3.4 57.35 Q3.35 57.5 3.0 57.5 2.1 57.5 0.5 56.7 -1.45 55.75 -1.85 55.65 L-1.5 56.5 -1.25 57.35 Q-1.25 58.0 -1.55 58.0 -6.35 58.0 -8.75 56.8 L-6.3 56.8 -2.9 56.6 Q-3.3 55.8 -4.6 54.5 L-5.75 53.25 Q-5.75 52.2 -1.85 54.05 L3.4 56.6 3.5 56.9 M5.8 64.65 Q4.0 64.5 4.25 63.3 4.25 61.8 6.95 61.95 9.6 62.15 10.85 63.75 L10.95 64.15 10.55 64.3 8.9 63.9 7.0 63.25 6.15 63.3 7.65 64.3 Q8.55 65.1 8.5 65.85 L8.3 66.2 Q8.2 66.4 7.8 66.4 L5.25 65.9 3.15 65.1 3.15 64.8 5.3 64.75 5.8 64.65 M51.75 55.45 L50.7 57.3 49.55 58.9 Q53.75 59.35 55.3 60.9 56.15 61.75 57.05 63.35 L57.0 63.55 Q55.25 61.9 54.25 61.2 52.5 59.95 47.05 60.65 L46.85 60.5 46.75 60.05 47.85 58.7 49.4 56.8 49.4 56.65 46.7 58.4 Q44.5 59.8 44.1 60.25 L43.25 59.5 Q43.25 58.6 47.0 56.6 50.65 54.7 51.75 54.85 L51.75 55.45" fill="#000000" fill-rule="evenodd" stroke="none"/>
  </g>
</svg>