<?xml version="1.0" encoding="UTF-8" standalone="no"?>
<svg xmlns:xlink="http://www.w3.org/1999/xlink" height="21.8px" width="52.3px" xmlns="http://www.w3.org/2000/svg">
  <g transform="matrix(1.0, 0.0, 0.0, 1.0, 3.55, -38.85)">
    <path d="M38.65 53.0 Q38.65 52.35 42.35 49.8 46.15 47.15 47.75 46.85 L43.4 50.15 38.9 53.6 38.7 53.45 38.65 53.0 M3.75 58.8 Q2.9 58.8 0.7 57.9 -1.8 56.8 -2.55 55.75 -1.3 55.4 0.9 56.25 2.8 57.0 4.35 58.15 4.35 58.8 3.75 58.8 M7.3 50.65 Q5.5 49.0 2.95 45.5 L-1.25 39.85 Q4.45 41.7 7.55 50.25 L7.3 50.65 M47.25 57.85 L45.0 59.65 43.8 59.05 Q43.8 58.65 45.0 58.0 46.2 57.4 46.9 57.4 L47.25 57.85" fill="#000000" fill-rule="evenodd" stroke="none"/>
  </g>
</svg>