<?xml version="1.0" encoding="UTF-8" standalone="no"?>
<svg xmlns:xlink="http://www.w3.org/1999/xlink" height="9.65px" width="8.45px" xmlns="http://www.w3.org/2000/svg">
  <g transform="matrix(1.0, 0.0, 0.0, 1.0, 1.5, 1.5)">
    <path d="M5.45 3.15 Q5.45 5.1 5.25 5.5 4.75 6.65 2.65 6.65 L0.75 6.5 0.0 6.35 0.0 3.5 1.0 0.95 Q1.3 0.0 3.0 0.0 L4.25 0.05 5.25 0.3 5.45 3.15" fill="#33ffaa" fill-rule="evenodd" stroke="none"/>
    <path d="M5.45 3.15 Q5.45 5.1 5.25 5.5 4.75 6.65 2.65 6.65 L0.75 6.5 0.0 6.35 0.0 3.5 1.0 0.95 Q1.3 0.0 3.0 0.0 L4.25 0.05 5.25 0.3 5.45 3.15 Z" fill="none" stroke="#33ffaa" stroke-linecap="round" stroke-linejoin="round" stroke-width="1.0"/>
  </g>
</svg>