<?xml version="1.0" encoding="UTF-8" standalone="no"?>
<svg xmlns:xlink="http://www.w3.org/1999/xlink" height="21.55px" width="44.45px" xmlns="http://www.w3.org/2000/svg">
  <g transform="matrix(1.0, 0.0, 0.0, 1.0, -17.35, -44.55)">
    <path d="M41.15 47.2 L41.6 47.65 24.0 48.25 20.9 48.1 18.35 47.75 18.35 47.15 20.05 47.05 18.8 46.5 Q18.8 45.4 20.45 45.6 L26.15 46.7 27.05 46.65 Q27.05 46.55 31.85 46.55 L40.8 46.75 41.15 47.2 M33.0 53.6 Q32.7 52.7 32.7 52.05 L39.35 51.45 Q39.35 51.25 48.4 51.25 49.95 51.55 50.1 52.05 47.9 54.0 41.9 54.05 L35.65 53.7 33.0 53.6 M34.85 59.85 L34.25 59.05 34.15 58.1 36.9 57.9 36.9 57.7 60.35 57.7 60.6 57.8 Q60.8 57.9 60.8 58.5 60.8 59.05 60.3 59.6 L58.0 59.75 37.0 59.75 34.85 59.85 M32.0 64.55 L31.9 63.9 32.0 63.15 42.9 62.7 Q45.7 63.2 49.4 64.45 L49.4 64.55 45.3 64.9 41.8 65.1 33.2 64.65 32.0 64.55" fill="#000000" fill-rule="evenodd" stroke="none"/>
  </g>
</svg>