<?xml version="1.0" encoding="UTF-8" standalone="no"?>
<svg xmlns:xlink="http://www.w3.org/1999/xlink" height="20.25px" width="46.2px" xmlns="http://www.w3.org/2000/svg">
  <g transform="matrix(1.0, 0.0, 0.0, 1.0, -24.3, -45.75)">
    <path d="M51.55 48.5 L50.35 48.6 36.7 48.6 36.5 48.55 36.0 48.55 36.0 48.5 25.45 47.8 Q25.3 47.9 25.3 47.4 25.3 46.9 26.15 46.8 L32.15 46.85 37.5 46.9 37.9 47.25 39.35 47.35 50.0 47.35 52.3 47.65 Q52.5 47.1 53.55 47.45 L55.55 48.45 54.45 48.6 54.45 48.75 52.0 48.75 51.55 48.5 M36.9 64.8 L36.4 64.55 Q36.8 63.35 39.5 63.35 L42.8 63.6 43.35 63.25 51.25 63.55 51.05 63.85 45.8 64.4 42.8 65.0 41.05 64.7 38.25 64.8 36.9 64.8 M37.8 53.7 L37.65 53.6 37.6 53.25 37.7 52.9 38.05 52.85 41.4 52.5 41.4 52.4 46.85 52.4 47.7 52.45 Q48.4 52.0 49.6 51.95 L51.85 52.05 52.05 52.0 Q52.25 52.05 52.25 52.65 L52.25 52.85 54.65 52.8 55.05 53.1 54.45 53.65 53.7 54.15 51.65 54.35 50.85 54.2 47.95 54.2 47.35 53.8 39.75 53.95 37.8 53.7 M69.5 59.15 L69.5 59.25 64.25 59.75 56.25 59.75 55.95 59.6 55.05 59.7 44.35 59.85 44.2 59.75 44.15 59.4 45.9 58.1 50.95 58.25 53.4 57.8 Q54.7 57.55 54.95 58.25 L55.75 58.3 60.05 58.3 64.7 58.6 69.5 59.15" fill="#000000" fill-rule="evenodd" stroke="none"/>
  </g>
</svg>