<?xml version="1.0" encoding="UTF-8" standalone="no"?>
<svg xmlns:xlink="http://www.w3.org/1999/xlink" height="21.55px" width="16.15px" xmlns="http://www.w3.org/2000/svg">
  <g transform="matrix(1.0, 0.0, 0.0, 1.0, 8.1, 8.8)">
    <path d="M-0.55 -7.55 L-0.2 -7.35 0.4 -7.05 0.5 -7.0 0.35 -6.65 0.1 -6.45 -0.1 -6.45 0.15 -6.25 0.2 -5.75 0.65 -5.3 Q0.3 -5.05 0.25 -4.45 L0.55 -4.55 Q0.9 -4.55 1.0 -4.25 L1.05 -3.85 0.85 -3.0 Q0.6 -2.4 0.0 -2.4 -0.95 -2.4 -0.8 -3.15 L-0.4 -3.85 -0.6 -3.95 -0.9 -4.2 -1.1 -4.05 -0.9 -3.4 Q-0.95 -2.95 -2.0 -2.95 L-2.15 -3.05 -2.3 -3.2 -2.5 -3.15 -2.55 -2.75 -3.25 -2.75 -3.85 -3.2 -4.2 -3.7 -4.4 -3.45 Q-4.45 -3.3 -4.7 -3.3 L-5.1 -3.95 -5.4 -4.65 -5.55 -4.7 -6.25 -4.6 -6.25 -4.65 -6.0 -5.05 -5.7 -5.35 -5.2 -5.75 Q-5.0 -6.2 -4.55 -6.2 L-3.75 -6.05 -3.45 -6.35 Q-3.2 -6.7 -2.7 -6.7 L-1.5 -6.6 Q-1.35 -6.45 -1.25 -6.45 L-1.1 -6.65 -0.95 -6.85 -0.45 -6.65 -1.0 -7.25 Q-1.0 -7.55 -0.55 -7.55 M1.6 -6.0 L1.6 -5.95 1.7 -5.85 2.1 -5.1 Q2.05 -4.85 1.65 -4.85 L1.0 -5.8 Q1.0 -6.25 1.6 -6.0 M-6.3 -5.35 L-5.55 -6.15 -5.45 -6.2 -5.5 -6.15 -5.55 -6.15 -6.25 -5.3 -6.3 -5.35 M-5.05 -6.55 L-4.1 -7.15 -4.0 -6.95 -4.25 -6.6 -4.85 -6.25 -5.05 -6.55 M-3.0 -7.6 L-2.15 -7.75 -2.1 -7.55 -2.35 -7.25 Q-2.6 -7.1 -2.75 -7.1 L-3.05 -7.4 -3.0 -7.6 M-6.95 -2.9 Q-6.95 -3.55 -6.0 -3.4 -5.05 -3.3 -5.05 -2.45 L-5.3 -1.95 Q-5.55 -1.55 -6.0 -1.55 -6.65 -1.55 -6.85 -2.3 L-6.95 -2.9 M-4.45 -0.25 Q-4.65 -0.1 -4.8 -0.1 -5.3 -0.1 -5.3 -0.6 -5.3 -1.05 -4.8 -1.0 -4.3 -0.9 -4.3 -0.5 L-4.45 -0.25 M-3.05 -2.6 Q-2.25 -2.8 -2.25 -1.95 -2.25 -1.65 -2.6 -1.4 -2.9 -1.05 -3.25 -1.05 -3.85 -1.05 -3.9 -1.8 -3.9 -2.4 -3.05 -2.6 M-0.3 -1.05 Q-0.3 -0.5 -1.1 -0.5 -1.65 -0.5 -1.6 -1.0 -1.6 -1.45 -0.95 -1.55 -0.3 -1.75 -0.3 -1.05" fill="#8a3a06" fill-rule="evenodd" stroke="none"/>
    <path d="M0.5 -7.0 L1.5 -6.15 1.6 -6.0 Q1.0 -6.25 1.0 -5.8 L1.65 -4.85 Q2.05 -4.85 2.1 -5.1 3.9 -1.35 0.1 1.25 -0.95 1.9 -2.35 1.9 -5.85 1.9 -6.9 -1.6 -7.55 -3.75 -6.3 -5.35 L-6.25 -5.3 -5.55 -6.15 -5.5 -6.15 -5.45 -6.2 -5.4 -6.25 -5.3 -6.35 -5.25 -6.4 -5.05 -6.55 -4.85 -6.25 -4.25 -6.6 -4.0 -6.95 -4.1 -7.15 -3.0 -7.6 -3.05 -7.4 -2.75 -7.1 Q-2.6 -7.1 -2.35 -7.25 L-2.1 -7.55 -2.15 -7.75 -0.55 -7.55 Q-1.0 -7.55 -1.0 -7.25 L-0.45 -6.65 -0.95 -6.85 -1.1 -6.65 -1.25 -6.45 Q-1.35 -6.45 -1.5 -6.6 L-2.7 -6.7 Q-3.2 -6.7 -3.45 -6.35 L-3.75 -6.05 -4.55 -6.2 Q-5.0 -6.2 -5.2 -5.75 L-5.7 -5.35 -6.0 -5.05 -6.25 -4.65 -6.25 -4.6 -5.55 -4.7 -5.4 -4.65 -5.1 -3.95 -4.7 -3.3 Q-4.45 -3.3 -4.4 -3.45 L-4.2 -3.7 -3.85 -3.2 -3.25 -2.75 -2.55 -2.75 -2.5 -3.15 -2.3 -3.2 -2.15 -3.05 -2.0 -2.95 Q-0.95 -2.95 -0.9 -3.4 L-1.1 -4.05 -0.9 -4.2 -0.6 -3.95 -0.4 -3.85 -0.8 -3.15 Q-0.95 -2.4 0.0 -2.4 0.6 -2.4 0.85 -3.0 L1.05 -3.85 1.0 -4.25 Q0.9 -4.55 0.55 -4.55 L0.25 -4.45 Q0.3 -5.05 0.65 -5.3 L0.2 -5.75 0.15 -6.25 -0.1 -6.45 0.1 -6.45 0.35 -6.65 0.5 -7.0 M-0.3 -1.05 Q-0.3 -1.75 -0.95 -1.55 -1.6 -1.45 -1.6 -1.0 -1.65 -0.5 -1.1 -0.5 -0.3 -0.5 -0.3 -1.05 M-3.05 -2.6 Q-3.9 -2.4 -3.9 -1.8 -3.85 -1.05 -3.25 -1.05 -2.9 -1.05 -2.6 -1.4 -2.25 -1.65 -2.25 -1.95 -2.25 -2.8 -3.05 -2.6 M-4.45 -0.25 L-4.3 -0.5 Q-4.3 -0.9 -4.8 -1.0 -5.3 -1.05 -5.3 -0.6 -5.3 -0.1 -4.8 -0.1 -4.65 -0.1 -4.45 -0.25 M-6.95 -2.9 L-6.85 -2.3 Q-6.65 -1.55 -6.0 -1.55 -5.55 -1.55 -5.3 -1.95 L-5.05 -2.45 Q-5.05 -3.3 -6.0 -3.4 -6.95 -3.55 -6.95 -2.9" fill="#512204" fill-rule="evenodd" stroke="none"/>
    <path d="M-3.35 8.65 L-3.15 8.6 Q-2.9 8.6 -2.8 9.0 L-2.8 9.45 -2.9 10.15 -2.95 10.65 -3.35 11.55 -3.9 11.65 -4.25 11.75 Q-5.1 11.75 -5.25 10.6 -4.55 7.95 -4.05 8.6 L-3.35 8.65 M-3.45 10.35 L-3.85 10.4 -4.75 10.15 -4.85 10.8 -4.4 10.95 Q-3.7 10.95 -3.5 10.55 L-3.45 10.35" fill="#92a00a" fill-rule="evenodd" stroke="none"/>
    <path d="M-3.45 10.35 L-3.5 10.55 Q-3.7 10.95 -4.4 10.95 L-4.85 10.8 -4.75 10.15 -3.85 10.4 -3.45 10.35" fill="#b1c30b" fill-rule="evenodd" stroke="none"/>
    <path d="M-3.35 8.65 L-3.15 8.6 Q-2.9 8.6 -2.8 9.0 L-2.8 9.45 -2.9 10.15 -2.95 10.65 -3.35 11.55 -3.9 11.65 -4.25 11.75 Q-5.1 11.75 -5.25 10.6 -4.55 7.95 -4.05 8.6 L-3.35 8.65 Z" fill="none" stroke="#5e8206" stroke-linecap="round" stroke-linejoin="round" stroke-width="1"/>
    <path d="M-2.5 5.65 L-2.25 5.55 Q-1.9 5.55 -1.8 6.1 L-1.75 6.65 -1.9 7.55 -1.95 8.25 -2.45 9.4 -3.2 9.55 -3.65 9.65 Q-4.75 9.65 -4.95 8.15 -4.0 4.75 -3.35 5.55 L-2.5 5.65 M-3.8 8.65 Q-2.95 8.65 -2.7 8.1 L-2.6 7.85 -3.1 7.9 -4.3 7.55 -4.4 8.4 Q-4.4 8.65 -3.8 8.65" fill="#92a00a" fill-rule="evenodd" stroke="none"/>
    <path d="M-3.8 8.65 Q-4.4 8.65 -4.4 8.4 L-4.3 7.55 -3.1 7.9 -2.6 7.85 -2.7 8.1 Q-2.95 8.65 -3.8 8.65" fill="#b1c30b" fill-rule="evenodd" stroke="none"/>
    <path d="M-2.5 5.65 L-2.25 5.55 Q-1.9 5.55 -1.8 6.1 L-1.75 6.65 -1.9 7.55 -1.95 8.25 -2.45 9.4 -3.2 9.55 -3.65 9.65 Q-4.75 9.65 -4.95 8.15 -4.0 4.75 -3.35 5.55 L-2.5 5.65 Z" fill="none" stroke="#5e8206" stroke-linecap="round" stroke-linejoin="round" stroke-width="1"/>
    <path d="M-3.25 -5.1 L-3.25 -5.05 -3.9 -3.75 -4.65 -2.1 Q-4.65 -1.0 -3.35 -0.35 -1.9 0.45 0.55 0.45 3.3 0.45 4.5 -0.5 L5.5 -2.0 6.0 -2.8 6.1 -2.35 6.2 0.45 Q6.2 1.85 5.55 2.75 4.95 3.65 3.0 4.65 L-0.1 5.8 -1.25 6.8 -3.65 6.6 Q-5.25 6.55 -4.5 4.35 L-5.35 2.55 -5.85 -0.95 -4.95 -3.25 -4.75 -3.5 -4.4 -3.95 -3.35 -4.95 -3.25 -5.1" fill="#92a00a" fill-rule="evenodd" stroke="none"/>
    <path d="M6.0 -2.8 L5.5 -2.0 4.5 -0.5 Q3.3 0.45 0.55 0.45 -1.9 0.45 -3.35 -0.35 -4.65 -1.0 -4.65 -2.1 L-3.9 -3.75 -3.25 -5.05 -3.25 -5.1 -3.15 -5.15 -2.2 -5.85 Q-0.95 -6.45 1.35 -6.45 3.6 -6.45 4.4 -5.8 L4.8 -5.05 5.7 -3.25 6.0 -2.8" fill="#b1c30b" fill-rule="evenodd" stroke="none"/>
    <path d="M4.8 -5.05 L5.7 -3.25 6.1 -2.35 6.2 0.45 Q6.2 1.85 5.55 2.75 4.95 3.65 3.0 4.65 L-0.1 5.8 -1.25 6.8 -3.65 6.6 Q-5.25 6.55 -4.5 4.35 L-5.35 2.55 -5.85 -0.95 -4.95 -3.25 -3.15 -5.15 -2.2 -5.85 Q-0.95 -6.45 1.35 -6.45 3.6 -6.45 4.4 -5.8 L4.8 -5.05 Z" fill="none" stroke="#5e8206" stroke-linecap="round" stroke-linejoin="round" stroke-width="1"/>
    <path d="M3.45 -4.95 L2.95 -4.65 3.55 -3.95 3.0 -4.2 2.85 -3.95 2.65 -3.75 Q2.55 -3.75 2.4 -3.9 L1.0 -4.05 Q0.45 -4.05 0.2 -3.65 L-0.15 -3.3 -1.05 -3.5 -1.75 -2.95 Q-1.9 -2.5 -2.3 -2.5 L-2.65 -2.15 -2.95 -1.7 -2.95 -1.65 -2.15 -1.75 -1.95 -1.7 -1.65 -0.95 -1.2 -0.2 Q-0.95 -0.2 -0.85 -0.4 L-0.65 -0.65 -0.25 -0.1 0.4 0.4 1.2 0.4 1.25 -0.05 1.45 -0.1 1.65 0.05 1.8 0.15 Q3.0 0.15 3.05 -0.3 L2.85 -1.05 3.05 -1.2 3.4 -0.95 3.6 -0.85 Q3.15 -0.35 3.15 -0.05 3.0 0.8 4.05 0.8 4.7 0.8 5.0 0.1 L5.2 -0.85 5.15 -1.25 4.65 -1.6 4.35 -1.5 Q4.4 -2.15 4.8 -2.45 L4.3 -2.95 4.2 -3.55 3.95 -3.75 4.15 -3.75 4.45 -4.0 4.6 -4.35 5.7 -3.45 5.85 -3.2 5.8 -3.25 Q5.15 -3.55 5.15 -3.0 L5.9 -1.95 Q6.3 -1.95 6.4 -2.2 8.45 2.0 4.15 4.9 3.0 5.6 1.4 5.6 -2.5 5.6 -3.7 1.7 -4.4 -0.7 -3.05 -2.5 L-2.95 -2.45 Q-2.4 -2.75 -2.15 -3.4 L-2.1 -3.4 -2.05 -3.5 -2.0 -3.55 -1.85 -3.65 -1.8 -3.7 -1.6 -3.85 -1.35 -3.55 -0.7 -3.9 Q-0.4 -4.1 -0.4 -4.3 L-0.55 -4.55 0.7 -5.05 0.6 -4.8 Q0.6 -4.5 0.95 -4.5 L1.4 -4.65 1.7 -4.95 1.6 -5.2 3.45 -4.95 M0.4 2.3 L1.15 1.95 1.5 1.3 Q1.5 0.35 0.6 0.55 -0.3 0.8 -0.3 1.45 -0.25 2.3 0.4 2.3 M2.85 2.95 Q3.7 2.95 3.7 2.3 3.7 1.5 3.0 1.75 2.3 1.9 2.3 2.4 2.25 2.95 2.85 2.95 M-1.85 1.3 L-1.6 0.7 Q-1.6 -0.2 -2.65 -0.35 -3.75 -0.5 -3.75 0.2 L-3.65 0.9 Q-3.4 1.75 -2.65 1.75 -2.15 1.75 -1.85 1.3 M-0.75 2.95 Q-0.75 2.5 -1.3 2.4 -1.85 2.3 -1.85 2.8 -1.85 3.35 -1.3 3.35 L-0.95 3.2 -0.75 2.95" fill="#512204" fill-rule="evenodd" stroke="none"/>
    <path d="M4.6 -4.35 L4.45 -4.0 4.15 -3.75 3.95 -3.75 4.2 -3.55 4.3 -2.95 4.8 -2.45 Q4.4 -2.15 4.35 -1.5 L4.65 -1.6 5.15 -1.25 5.2 -0.85 5.0 0.1 Q4.7 0.8 4.05 0.8 3.0 0.8 3.15 -0.05 3.15 -0.35 3.6 -0.85 L3.4 -0.95 3.05 -1.2 2.85 -1.05 3.05 -0.3 Q3.0 0.15 1.8 0.15 L1.65 0.05 1.45 -0.1 1.25 -0.05 1.2 0.4 0.4 0.4 -0.25 -0.1 -0.65 -0.65 -0.85 -0.4 Q-0.95 -0.2 -1.2 -0.2 L-1.65 -0.95 -1.95 -1.7 -2.15 -1.75 -2.95 -1.65 -2.95 -1.7 -2.65 -2.15 -2.3 -2.5 Q-1.9 -2.5 -1.75 -2.95 L-1.05 -3.5 -0.15 -3.3 0.2 -3.65 Q0.45 -4.05 1.0 -4.05 L2.4 -3.9 Q2.55 -3.75 2.65 -3.75 L2.85 -3.95 3.0 -4.2 3.55 -3.95 2.95 -4.65 3.45 -4.95 3.85 -4.75 4.5 -4.4 4.6 -4.35 M1.6 -5.2 L1.7 -4.95 1.4 -4.65 0.95 -4.5 Q0.6 -4.5 0.6 -4.8 L0.7 -5.05 1.6 -5.2 M-0.55 -4.55 L-0.4 -4.3 Q-0.4 -4.1 -0.7 -3.9 L-1.35 -3.55 -1.6 -3.85 -0.55 -4.55 M-2.05 -3.5 L-2.1 -3.4 -2.15 -3.4 Q-2.4 -2.75 -2.95 -2.45 L-3.05 -2.5 -2.15 -3.45 -2.05 -3.5 M6.4 -2.2 Q6.3 -1.95 5.9 -1.95 L5.15 -3.0 Q5.15 -3.55 5.8 -3.25 L5.85 -3.2 5.95 -3.05 6.4 -2.2 M2.85 2.95 Q2.25 2.95 2.3 2.4 2.3 1.9 3.0 1.75 3.7 1.5 3.7 2.3 3.7 2.95 2.85 2.95 M0.4 2.3 Q-0.25 2.3 -0.3 1.45 -0.3 0.8 0.6 0.55 1.5 0.35 1.5 1.3 L1.15 1.95 0.4 2.3 M-0.75 2.95 L-0.95 3.2 -1.3 3.35 Q-1.85 3.35 -1.85 2.8 -1.85 2.3 -1.3 2.4 -0.75 2.5 -0.75 2.95 M-1.85 1.3 Q-2.15 1.75 -2.65 1.75 -3.4 1.75 -3.65 0.9 L-3.75 0.2 Q-3.75 -0.5 -2.65 -0.35 -1.6 -0.2 -1.6 0.7 L-1.85 1.3" fill="#8a3a06" fill-rule="evenodd" stroke="none"/>
  </g>
</svg>