<?xml version="1.0" encoding="UTF-8" standalone="no"?>
<svg xmlns:xlink="http://www.w3.org/1999/xlink" height="40.8px" width="58.2px" xmlns="http://www.w3.org/2000/svg">
  <g transform="matrix(1.0, 0.0, 0.0, 1.0, -0.7, 33.05)">
    <path d="M26.0 -27.65 L31.55 -20.65 30.95 -26.2 33.2 -23.45 33.4 -24.0 34.35 -23.05 35.1 -22.35 35.7 -21.6 36.75 -20.0 34.25 -29.1 38.4 -21.65 38.75 -22.6 Q44.9 -13.25 48.15 -2.6 45.6 -13.4 40.75 -23.6 L45.7 -16.65 43.4 -21.85 Q41.4 -26.1 37.5 -28.45 L39.5 -28.05 40.95 -27.5 42.25 -26.75 44.1 -25.15 43.45 -28.35 Q50.4 -16.25 51.45 -2.5 51.75 -14.15 46.15 -24.55 52.95 -17.4 53.4 -7.65 53.55 -4.35 52.5 -1.25 50.95 3.35 47.55 6.65 L46.3 6.75 45.6 -2.35 45.5 -1.4 45.25 -0.2 44.95 0.85 44.15 3.1 42.9 3.2 42.15 4.05 41.55 2.95 40.85 1.85 40.0 0.9 39.05 0.05 40.5 -0.6 37.45 -7.25 38.3 -4.15 Q38.95 -1.6 38.05 0.95 37.5 2.4 36.35 3.55 L35.05 3.65 34.7 2.75 35.75 -0.9 26.65 -19.5 27.95 -20.3 35.05 -7.7 Q31.1 -17.65 25.85 -27.25 L26.0 -27.65 M16.95 -14.4 L18.15 -13.4 Q18.85 -10.0 21.3 -7.7 17.95 -13.4 15.75 -19.75 23.0 -14.45 24.5 -5.55 25.35 -0.6 23.55 4.1 L22.4 4.05 21.85 2.95 Q23.5 -0.6 21.1 -3.75 19.4 -5.85 17.0 -7.05 L16.75 -6.6 Q19.55 -3.35 19.15 0.7 L18.75 4.15 18.2 4.15 15.95 -2.85 15.85 -2.4 13.85 -4.65 Q15.75 -0.5 14.55 3.85 11.1 0.15 10.35 -5.0 10.0 -1.4 11.0 2.15 L10.45 2.8 9.8 2.65 9.25 3.1 8.6 3.0 4.15 -5.95 4.3 -6.45 5.1 -6.3 5.45 -8.55 6.1 -8.95 7.95 -5.0 9.2 -6.8 7.35 -10.05 7.65 -10.8 11.15 -7.75 12.95 -8.45 9.75 -13.8 10.1 -14.65 Q13.45 -12.2 15.5 -8.6 L18.35 -9.05 15.45 -12.8 15.85 -14.1 16.95 -14.4 M19.75 -23.25 Q30.25 -15.05 31.3 -1.85 L31.6 4.0 30.55 2.75 29.95 3.1 29.1 3.1 28.6 2.35 29.1 1.65 20.35 -19.0 21.0 -20.05 19.25 -22.35 19.75 -23.25 M1.95 -4.05 Q5.25 -1.95 4.4 2.05 L1.7 -3.35 1.95 -4.05 M36.65 -15.4 L40.25 -7.95 Q39.55 -11.15 37.65 -14.0 L36.65 -15.4 M21.65 -16.35 Q26.25 -11.9 28.65 -5.95 26.65 -12.6 21.5 -17.4 L21.65 -16.35 M42.15 -30.4 L39.8 -32.05 41.5 -31.3 42.15 -30.4 M57.35 -1.6 L56.85 1.1 Q57.6 -13.8 49.95 -26.8 L52.3 -23.55 Q59.65 -13.6 57.35 -1.6" fill="#ffffff" fill-rule="evenodd" stroke="none"/>
  </g>
</svg>