<?xml version="1.0" encoding="UTF-8" standalone="no"?>
<svg xmlns:xlink="http://www.w3.org/1999/xlink" height="10.3px" width="11.55px" xmlns="http://www.w3.org/2000/svg">
  <g transform="matrix(1.0, 0.0, 0.0, 1.0, 5.75, 5.15)">
    <path d="M0.25 -0.5 L0.55 -1.15 0.35 -1.85 Q0.05 -2.35 -0.6 -2.35 -1.7 -2.35 -1.7 -0.95 -1.6 -0.15 -0.7 -0.15 -0.1 -0.15 0.25 -0.5 M-2.25 -1.7 Q-1.6 -3.1 -0.45 -2.9 0.9 -2.6 2.2 -1.45 3.4 -0.4 3.4 0.25 L3.05 1.5 Q2.45 2.75 1.4 2.75 -1.0 2.75 -2.05 1.7 -2.7 1.05 -2.7 0.15 L-2.25 -1.7 M2.55 1.4 L2.8 0.4 Q2.8 -0.75 1.5 -0.5 0.15 -0.2 0.15 1.0 L0.4 1.6 Q0.75 2.0 1.5 2.0 2.2 2.0 2.55 1.4 M-0.35 0.85 Q-0.35 0.45 -0.7 0.45 -1.2 0.45 -1.2 0.85 -1.2 1.25 -0.75 1.25 -0.35 1.25 -0.35 0.85" fill="#ff3300" fill-rule="evenodd" stroke="none"/>
    <path d="M0.95 4.1 L0.8 4.15 0.7 4.1 0.95 4.1 M1.5 -3.0 L2.45 -1.95 Q2.75 -1.65 3.55 -1.15 4.15 -0.65 4.15 0.05 4.15 0.75 3.4 1.7 2.35 3.05 0.55 3.05 -0.55 3.05 -2.2 1.85 -3.7 0.75 -3.7 0.3 -3.7 -0.5 -2.85 -2.0 -1.8 -3.8 -0.65 -3.65 0.9 -3.4 1.5 -3.0 M-2.25 -1.7 L-2.7 0.15 Q-2.7 1.05 -2.05 1.7 -1.0 2.75 1.4 2.75 2.45 2.75 3.05 1.5 L3.4 0.25 Q3.4 -0.4 2.2 -1.45 0.9 -2.6 -0.45 -2.9 -1.6 -3.1 -2.25 -1.7" fill="#8f1d01" fill-rule="evenodd" stroke="none"/>
    <path d="M0.7 4.1 L-0.75 3.1 -2.35 1.9 Q-3.3 1.35 -4.3 1.2 -4.75 1.1 -4.75 0.65 L-4.75 0.6 Q-4.7 -0.15 -3.15 -2.15 -1.3 -4.5 0.15 -4.1 L1.7 -2.95 3.25 -1.5 4.55 -0.15 4.8 1.1 2.9 2.65 0.95 4.1 0.7 4.1 M1.5 -3.0 Q0.9 -3.4 -0.65 -3.65 -1.8 -3.8 -2.85 -2.0 -3.7 -0.5 -3.7 0.3 -3.7 0.75 -2.2 1.85 -0.55 3.05 0.55 3.05 2.35 3.05 3.4 1.7 4.15 0.75 4.15 0.05 4.15 -0.65 3.55 -1.15 2.75 -1.65 2.45 -1.95 L1.5 -3.0" fill="#220600" fill-rule="evenodd" stroke="none"/>
    <path d="M0.25 -0.5 Q-0.1 -0.15 -0.7 -0.15 -1.6 -0.15 -1.7 -0.95 -1.7 -2.35 -0.6 -2.35 0.05 -2.35 0.35 -1.85 L0.55 -1.15 0.25 -0.5 M-0.35 0.85 Q-0.35 1.25 -0.75 1.25 -1.2 1.25 -1.2 0.85 -1.2 0.45 -0.7 0.45 -0.35 0.45 -0.35 0.85 M2.55 1.4 Q2.2 2.0 1.5 2.0 0.75 2.0 0.4 1.6 L0.15 1.0 Q0.15 -0.2 1.5 -0.5 2.8 -0.75 2.8 0.4 L2.55 1.4" fill="#ff9900" fill-rule="evenodd" stroke="none"/>
  </g>
</svg>