<?xml version="1.0" encoding="UTF-8" standalone="no"?>
<svg xmlns:xlink="http://www.w3.org/1999/xlink" height="18.3px" width="57.25px" xmlns="http://www.w3.org/2000/svg">
  <g transform="matrix(1.0, 0.0, 0.0, 1.0, 24, 16.15)">
    <path d="M23.15 -9.75 Q22.7 -9.75 22.55 -10.0 L22.5 -10.3 Q22.5 -10.85 23.2 -10.9 23.85 -10.95 23.85 -10.35 23.85 -9.75 23.15 -9.75 M31.6 1.15 L31.0 0.8 30.95 0.45 Q30.95 -0.2 31.6 -0.1 32.25 0.0 32.25 0.5 32.25 1.15 31.6 1.15 M-22.1 -4.2 L-22.5 -4.05 Q-23.0 -4.05 -23.0 -4.6 -23.0 -5.1 -22.4 -5.1 -21.85 -5.1 -21.85 -4.6 -21.85 -4.35 -22.1 -4.2 M-7.0 -15.15 Q-6.3 -15.2 -6.3 -14.5 -6.3 -13.8 -6.95 -13.8 -7.85 -13.8 -7.75 -14.45 -7.75 -15.1 -7.0 -15.15" fill="#000000" fill-rule="evenodd" stroke="none"/>
  </g>
</svg>