<?xml version="1.0" encoding="UTF-8" standalone="no"?>
<svg xmlns:xlink="http://www.w3.org/1999/xlink" height="20.5px" width="51.75px" xmlns="http://www.w3.org/2000/svg">
  <g transform="matrix(1.0, 0.0, 0.0, 1.0, 20.75, 20.8)">
    <path d="M19.65 -17.8 Q20.55 -17.8 20.55 -16.85 L20.35 -16.3 Q20.05 -15.95 19.6 -15.95 19.0 -15.95 18.8 -16.4 L18.7 -16.85 Q18.7 -17.8 19.65 -17.8 M17.7 -5.2 L17.65 -5.5 Q17.65 -6.0 18.25 -6.05 18.85 -6.1 18.85 -5.5 18.85 -4.9 18.25 -4.9 17.8 -4.9 17.7 -5.2 M29.7 -6.3 Q29.35 -5.85 28.85 -5.85 27.85 -5.85 27.85 -6.85 27.85 -7.75 28.95 -7.9 30.0 -8.05 30.0 -7.05 L29.7 -6.3 M-2.8 -19.25 Q-2.1 -19.25 -2.1 -18.6 -2.1 -17.95 -2.8 -17.95 -3.6 -17.95 -3.5 -18.65 -3.5 -19.25 -2.8 -19.25 M-5.5 -19.8 Q-4.6 -19.75 -4.6 -18.85 L-4.85 -18.3 Q-5.15 -18.0 -5.55 -18.0 -6.35 -18.0 -6.45 -18.8 -6.45 -19.8 -5.5 -19.8 M-18.9 -9.05 Q-19.75 -9.05 -19.75 -9.85 -19.75 -10.6 -18.9 -10.6 -18.1 -10.6 -18.1 -9.85 -18.1 -9.05 -18.9 -9.05 M-18.7 -1.3 Q-19.6 -1.3 -19.6 -2.0 -19.6 -2.7 -18.75 -2.7 -17.9 -2.7 -17.9 -2.0 -17.9 -1.3 -18.7 -1.3" fill="#000000" fill-rule="evenodd" stroke="none"/>
  </g>
</svg>