<?xml version="1.0" encoding="UTF-8" standalone="no"?>
<svg xmlns:xlink="http://www.w3.org/1999/xlink" height="14.8px" width="58.2px" xmlns="http://www.w3.org/2000/svg">
  <g transform="matrix(1.0, 0.0, 0.0, 1.0, 24.55, 13.75)">
    <path d="M24.35 -7.3 L24.0 -7.1 Q23.65 -7.1 23.55 -7.35 L23.5 -7.6 Q23.5 -8.1 24.0 -8.1 24.5 -8.1 24.5 -7.6 L24.35 -7.3 M31.35 -0.6 Q31.35 -1.3 32.0 -1.2 32.65 -1.1 32.65 -0.6 32.65 0.05 32.0 0.05 31.65 0.05 31.45 -0.3 L31.35 -0.6 M-23.1 -2.15 L-23.5 -2.3 -23.55 -2.6 Q-23.55 -2.9 -23.1 -3.0 -22.65 -3.1 -22.65 -2.6 L-22.75 -2.3 -23.1 -2.15 M-6.7 -12.2 Q-6.7 -11.65 -7.3 -11.65 -7.95 -11.65 -7.9 -12.25 -7.9 -12.75 -7.3 -12.75 -6.7 -12.75 -6.7 -12.2" fill="#000000" fill-rule="evenodd" stroke="none"/>
  </g>
</svg>