<?xml version="1.0" encoding="UTF-8" standalone="no"?>
<svg xmlns:xlink="http://www.w3.org/1999/xlink" height="26.85px" width="48.5px" xmlns="http://www.w3.org/2000/svg">
  <g transform="matrix(1.0, 0.0, 0.0, 1.0, 21.25, 23.55)">
    <path d="M14.75 -17.4 Q15.65 -17.4 16.15 -15.7 L15.65 -14.75 Q15.0 -14.0 14.2 -14.0 12.7 -14.0 12.7 -15.45 L13.1 -16.5 Q13.7 -17.4 14.75 -17.4 M14.9 -5.15 Q15.4 -5.15 15.5 -4.45 L15.2 -3.85 Q14.85 -3.5 14.45 -3.5 L13.85 -3.65 13.6 -3.8 Q13.1 -3.8 13.1 -4.15 13.1 -5.15 14.9 -5.15 M-5.5 -22.55 Q-4.9 -22.6 -4.9 -21.95 -4.9 -21.4 -5.45 -21.4 -6.1 -21.4 -6.1 -21.95 -6.1 -22.45 -5.5 -22.55 M-18.7 -14.75 Q-19.05 -14.2 -19.65 -14.2 -20.3 -14.2 -20.25 -15.05 -20.25 -16.1 -19.3 -16.5 -18.4 -16.85 -18.4 -15.4 L-18.7 -14.75 M-1.45 -8.6 Q-1.45 -9.1 -0.7 -9.15 0.05 -9.25 0.05 -8.55 0.05 -7.95 -0.6 -7.95 -1.45 -7.95 -1.45 -8.6 M-8.5 -6.75 Q-8.5 -6.1 -9.3 -6.1 -9.85 -6.1 -9.85 -6.6 -9.85 -7.05 -9.15 -7.2 -8.5 -7.4 -8.5 -6.75" fill="#ff9900" fill-rule="evenodd" stroke="none"/>
    <path d="M11.7 -13.55 Q12.35 -13.55 12.3 -12.7 12.3 -12.3 11.7 -11.85 11.05 -11.35 10.4 -11.35 9.3 -11.35 9.3 -12.05 L10.2 -12.85 Q11.2 -13.55 11.7 -13.55 M0.8 -3.4 L1.85 -2.0 6.55 -2.3 7.35 -2.55 7.75 -2.05 6.85 -1.45 6.65 -1.15 2.75 0.7 2.55 1.0 0.9 2.3 -5.2 -1.2 -0.1 -1.65 -0.6 -6.05 0.8 -3.4 M25.5 -5.9 Q24.5 -4.75 23.25 -4.75 21.0 -4.75 21.0 -5.75 21.0 -6.7 22.05 -7.45 23.25 -8.3 25.35 -8.3 26.25 -8.3 26.25 -7.35 26.25 -6.8 25.5 -5.9 M-3.05 -16.55 Q-2.05 -16.8 -1.3 -15.85 -0.65 -15.1 -0.65 -14.55 -0.65 -14.05 -1.1 -13.4 -1.7 -12.45 -2.8 -12.45 -4.0 -12.45 -4.55 -13.35 L-4.8 -14.25 -4.35 -15.5 Q-3.8 -16.3 -3.05 -16.55 M-12.6 -10.35 L-12.5 -10.45 -12.5 -10.55 -12.75 -10.55 -12.6 -10.35 M-11.1 -10.35 Q-11.1 -9.7 -11.6 -9.15 -12.3 -8.25 -13.8 -8.25 -15.1 -8.25 -15.2 -10.05 -15.2 -11.1 -13.15 -11.6 -11.1 -12.1 -11.1 -10.35 M-11.35 -1.0 L-11.1 -1.95 -10.25 -1.95 -9.7 -2.05 Q-9.25 -2.05 -9.0 -1.5 L-8.85 -0.95 -9.3 -0.2 Q-9.75 0.3 -10.2 0.3 -11.05 0.3 -11.3 -0.25 L-11.35 -1.0" fill="#ffcc00" fill-rule="evenodd" stroke="none"/>
  </g>
</svg>