<?xml version="1.0" encoding="UTF-8" standalone="no"?>
<svg xmlns:xlink="http://www.w3.org/1999/xlink" height="20.45px" width="53.45px" xmlns="http://www.w3.org/2000/svg">
  <g transform="matrix(1.0, 0.0, 0.0, 1.0, 22, 20.2)">
    <path d="M19.55 -15.7 Q19.55 -16.45 20.4 -16.5 21.2 -16.55 21.2 -15.7 L21.0 -15.2 Q20.75 -14.9 20.35 -14.9 19.95 -14.9 19.7 -15.3 L19.55 -15.7 M18.05 -5.0 L18.05 -5.3 Q18.05 -5.95 18.7 -5.95 19.35 -5.95 19.35 -5.35 19.35 -4.75 18.65 -4.75 18.15 -4.75 18.05 -5.0 M28.7 -5.15 L28.6 -5.6 Q28.6 -6.45 29.55 -6.45 30.45 -6.45 30.45 -5.55 L30.2 -5.0 Q29.9 -4.7 29.5 -4.7 28.9 -4.7 28.7 -5.15 M-21.0 -1.35 Q-21.0 -1.95 -20.25 -1.95 -19.55 -1.95 -19.55 -1.35 -19.55 -0.75 -20.3 -0.75 -20.95 -0.75 -21.0 -1.35 M-5.6 -17.85 Q-5.9 -17.55 -6.3 -17.55 -7.0 -17.55 -7.15 -18.35 -7.15 -19.2 -6.2 -19.2 -5.3 -19.2 -5.3 -18.45 -5.3 -18.15 -5.6 -17.85 M-3.0 -17.75 Q-3.65 -17.75 -3.6 -18.35 -3.6 -19.0 -2.9 -18.95 -2.25 -18.9 -2.25 -18.4 -2.25 -17.75 -3.0 -17.75 M-20.05 -8.05 Q-20.9 -8.05 -20.9 -8.85 -20.9 -9.65 -20.05 -9.65 -19.2 -9.65 -19.2 -8.85 -19.2 -8.05 -20.05 -8.05" fill="#000000" fill-rule="evenodd" stroke="none"/>
  </g>
</svg>