<?xml version="1.0" encoding="UTF-8" standalone="no"?>
<svg xmlns:xlink="http://www.w3.org/1999/xlink" height="27.35px" width="49.1px" xmlns="http://www.w3.org/2000/svg">
  <g transform="matrix(1.0, 0.0, 0.0, 1.0, 21.55, 24.45)">
    <path d="M14.15 -15.5 Q14.15 -16.05 14.75 -16.1 15.3 -16.2 15.3 -15.5 15.3 -14.95 14.75 -14.95 14.3 -14.95 14.2 -15.25 L14.15 -15.5 M-5.75 -22.6 Q-6.2 -22.6 -6.2 -23.05 -6.2 -23.5 -5.75 -23.45 -5.3 -23.4 -5.3 -23.05 L-5.45 -22.75 Q-5.6 -22.6 -5.75 -22.6 M-0.8 -13.65 L-1.15 -13.35 -1.55 -13.15 Q-2.05 -13.15 -2.05 -13.7 -2.05 -14.3 -1.45 -14.3 -0.95 -14.3 -0.8 -13.65 M-19.15 -15.45 Q-19.4 -14.95 -19.8 -14.95 -20.4 -14.95 -20.55 -16.1 -20.55 -16.75 -19.75 -16.9 -18.95 -17.05 -18.95 -16.0 L-19.15 -15.45 M-11.4 -10.7 L-11.6 -10.25 Q-11.8 -9.95 -12.1 -9.95 -12.8 -9.95 -12.8 -10.5 -12.8 -11.0 -12.1 -11.3 -11.4 -11.65 -11.4 -10.7 M-12.4 -8.75 Q-12.9 -8.75 -12.9 -9.25 -12.9 -9.75 -12.35 -9.7 -11.85 -9.65 -11.85 -9.25 -11.85 -8.75 -12.4 -8.75 M-11.35 -0.7 Q-10.9 -0.7 -10.9 -0.3 -10.9 0.15 -11.35 0.15 -11.85 0.15 -11.85 -0.3 -11.85 -0.7 -11.35 -0.7 M-0.75 -9.3 Q-1.35 -9.3 -1.35 -9.75 -1.35 -10.35 -0.7 -10.45 -0.05 -10.55 -0.05 -9.85 -0.05 -9.3 -0.75 -9.3 M-9.9 -7.2 Q-10.4 -7.2 -10.4 -7.7 -10.4 -8.2 -9.85 -8.2 -9.35 -8.2 -9.35 -7.65 -9.35 -7.2 -9.9 -7.2" fill="#ff9900" fill-rule="evenodd" stroke="none"/>
    <path d="M11.65 -13.7 Q12.7 -13.6 12.7 -12.9 12.7 -12.15 11.4 -12.15 10.8 -12.15 10.65 -12.55 10.55 -12.75 10.6 -12.9 10.6 -13.8 11.65 -13.7 M17.15 -18.5 Q18.2 -18.5 18.35 -17.25 18.35 -15.6 17.0 -15.6 16.05 -15.6 15.7 -16.25 L15.5 -16.95 Q15.5 -17.4 15.8 -17.85 16.2 -18.5 17.15 -18.5 M1.4 -1.5 L2.3 -1.8 Q2.7 -1.8 2.7 -1.35 L2.1 -0.8 Q1.45 -0.4 1.45 0.05 L1.8 0.75 2.15 1.45 2.0 1.75 1.7 1.9 Q1.1 1.9 -0.6 0.7 L-1.8 0.2 -2.4 -0.4 Q-2.4 -0.8 -1.75 -0.75 L0.1 -1.15 0.15 -2.25 -0.15 -3.65 -0.1 -3.8 Q0.65 -3.55 0.75 -2.7 L0.7 -1.25 1.4 -1.5 M16.25 -4.55 Q15.95 -4.2 15.6 -4.2 15.15 -4.2 14.95 -4.65 L14.85 -5.1 Q14.85 -5.8 15.7 -5.85 16.5 -5.9 16.5 -5.05 L16.25 -4.55 M26.2 -6.45 Q25.7 -5.7 25.0 -5.7 23.8 -5.7 23.5 -6.3 L23.4 -7.1 Q23.4 -8.35 24.5 -8.55 26.55 -8.75 26.55 -7.45 L26.2 -6.45 M21.45 -6.8 Q21.45 -7.5 22.3 -7.3 23.15 -7.1 23.15 -6.45 23.15 -5.8 22.35 -5.8 21.75 -5.8 21.55 -6.3 L21.45 -6.8 M-3.1 -17.75 Q-1.4 -17.75 -1.4 -16.25 -1.4 -15.85 -1.85 -15.1 -2.4 -14.1 -3.15 -14.1 -4.25 -14.1 -5.0 -15.85 L-4.65 -16.9 Q-4.1 -17.75 -3.1 -17.75 M-13.25 -9.85 Q-13.65 -9.1 -14.5 -9.1 -15.5 -9.1 -15.8 -9.85 L-15.9 -10.65 -15.65 -11.4 Q-15.2 -12.0 -14.3 -12.0 -13.45 -12.0 -13.15 -11.4 L-13.0 -10.75 -13.25 -9.85 M-11.75 -1.25 Q-12.2 -0.85 -12.85 -0.85 -13.9 -0.85 -13.95 -2.0 -13.95 -2.9 -12.65 -2.85 -11.4 -2.8 -11.4 -1.9 -11.4 -1.55 -11.75 -1.25" fill="#ff3300" fill-rule="evenodd" stroke="none"/>
  </g>
</svg>