<?xml version="1.0" encoding="UTF-8" standalone="no"?>
<svg xmlns:xlink="http://www.w3.org/1999/xlink" height="22.65px" width="41.05px" xmlns="http://www.w3.org/2000/svg">
  <g transform="matrix(1.0, 0.0, 0.0, 1.0, 14, 17.85)">
    <path d="M26.0 -7.3 L26.05 -6.05 5.15 1.85 7.25 3.8 -10.05 0.2 -9.7 -0.75 -4.85 -1.45 -13.0 -10.1 -3.75 -3.65 -3.75 -14.05 -0.05 -4.25 16.05 -16.85 8.2 -7.7 9.3 -6.6 7.25 -4.0 26.0 -7.3" fill="#ffcc00" fill-rule="evenodd" stroke="none"/>
    <path d="M3.1 -2.8 L4.7 -3.55 3.55 -2.1 14.1 -3.25 2.35 1.2 3.55 2.3 -5.85 0.0 Q-4.45 0.0 -3.2 -0.65 L-7.85 -5.5 -2.65 -1.9 -2.65 -6.3 -0.55 -2.25 5.05 -6.65 Q4.05 -5.15 3.1 -2.8" fill="#ffff00" fill-rule="evenodd" stroke="none"/>
  </g>
</svg>