<?xml version="1.0" encoding="UTF-8" standalone="no"?>
<svg xmlns:xlink="http://www.w3.org/1999/xlink" height="16.45px" width="57.8px" xmlns="http://www.w3.org/2000/svg">
  <g transform="matrix(1.0, 0.0, 0.0, 1.0, 24.35, 14.9)">
    <path d="M23.75 -8.3 Q23.2 -8.3 23.2 -8.85 23.2 -9.35 23.75 -9.35 24.25 -9.35 24.25 -8.85 24.25 -8.3 23.75 -8.3 M31.8 -0.7 Q32.45 -0.6 32.45 -0.1 L32.25 0.35 31.75 0.55 31.2 0.2 31.1 -0.1 Q31.1 -0.8 31.8 -0.7 M-7.05 -12.75 Q-7.75 -12.75 -7.7 -13.3 -7.7 -13.85 -7.05 -13.9 -6.4 -13.95 -6.4 -13.35 -6.4 -12.75 -7.05 -12.75 M-22.85 -3.0 Q-23.35 -3.0 -23.35 -3.55 -23.35 -4.1 -22.8 -3.95 -22.3 -3.8 -22.3 -3.5 -22.3 -3.0 -22.85 -3.0" fill="#000000" fill-rule="evenodd" stroke="none"/>
  </g>
</svg>