<?xml version="1.0" encoding="UTF-8" standalone="no"?>
<svg xmlns:xlink="http://www.w3.org/1999/xlink" height="42.95px" width="34.1px" xmlns="http://www.w3.org/2000/svg">
  <g transform="matrix(1.0, 0.0, 0.0, 1.0, 1, 1)">
    <path d="M18.8 16.25 L19.2 15.65 19.6 15.05 20.05 14.55 Q20.75 13.55 21.6 13.0 L22.25 12.55 22.75 12.4 23.0 12.3 22.85 12.35 23.95 12.0 24.3 12.0 24.1 12.05 24.0 12.15 Q24.95 12.0 25.35 12.6 L25.4 12.65 25.75 13.75 25.8 13.8 25.6 14.1 25.55 14.2 25.4 14.45 25.35 14.55 Q23.95 16.45 21.65 16.8 L21.6 16.8 19.85 16.6 18.8 16.25 M9.5 10.0 L9.5 9.9 9.45 9.55 9.55 9.5 10.4 8.75 10.45 8.7 Q11.1 8.35 11.9 9.0 L11.85 8.85 11.65 8.7 12.0 8.85 12.8 9.75 12.65 9.65 12.8 9.8 13.2 10.2 13.5 10.95 Q14.0 11.8 14.1 13.05 L14.25 13.7 14.3 14.45 14.35 15.15 13.25 14.9 Q12.3 14.75 11.6 14.25 L11.55 14.2 Q9.8 12.7 9.5 10.4 L9.5 10.3 9.5 10.0 M15.1 26.5 Q17.0 26.75 18.4 26.0 L14.95 27.85 Q13.1 28.7 11.7 27.15 10.25 25.55 9.45 23.65 10.25 24.85 11.75 25.55 13.2 26.2 15.1 26.5" fill="#000000" fill-rule="evenodd" stroke="none"/>
    <path d="M26.35 8.95 L25.3 8.2 23.9 7.4 Q24.8 6.15 26.75 6.3 28.1 6.4 28.5 7.0 L28.65 7.5 28.5 8.3 Q28.3 8.9 27.9 9.05 L26.45 9.05 26.35 8.95 M10.3 17.5 L11.0 17.05 Q11.55 16.85 11.55 17.55 L11.25 18.85 11.1 19.15 10.8 18.6 10.3 17.5 M22.1 6.5 L21.45 6.8 Q21.35 6.95 21.35 6.6 21.35 6.2 22.25 6.2 L22.1 6.5 M23.9 20.0 L23.7 20.15 Q23.4 20.05 23.4 19.7 23.4 18.9 24.4 18.95 25.4 19.0 25.4 19.8 L25.35 20.1 25.0 20.25 24.0 19.8 Q23.75 19.8 23.8 19.9 L23.9 20.0 M21.7 19.65 L21.95 19.55 22.05 19.55 22.1 19.7 22.05 19.85 21.75 19.85 21.7 19.65 M16.85 4.95 L16.8 5.15 16.5 5.15 16.4 4.85 16.7 4.7 16.75 4.75 16.85 4.95 M18.85 7.85 L18.65 7.35 Q18.65 7.2 18.8 7.1 19.0 6.95 19.35 7.1 L19.35 7.7 18.85 7.85 M19.8 19.75 Q19.75 20.05 19.3 20.05 18.5 20.05 18.5 19.2 L18.5 18.9 19.1 18.7 Q19.8 18.7 19.8 19.45 L19.8 19.75 M17.25 36.6 L17.0 36.9 16.55 36.75 17.25 36.6 M18.45 35.95 Q18.45 34.45 20.2 33.75 21.9 33.0 21.9 34.85 21.9 35.4 21.35 36.05 20.6 36.9 19.5 36.9 18.65 36.9 18.45 36.45 L18.45 35.95 M22.65 29.75 L22.2 30.6 Q21.85 31.1 22.05 31.4 L21.75 31.65 21.5 30.8 22.4 29.4 22.65 29.75" fill="#fcdede" fill-rule="evenodd" stroke="none"/>
    <path d="M28.5 7.0 Q28.9 6.7 29.0 6.7 L29.25 7.2 29.4 8.25 Q29.4 9.2 28.25 12.0 L26.85 15.2 26.15 17.1 25.9 17.95 Q25.5 18.5 24.7 18.6 L22.0 18.9 Q20.9 19.2 20.25 20.05 L19.1 22.1 21.65 21.3 24.05 20.7 24.75 20.95 24.9 21.55 Q24.9 22.8 23.4 25.45 22.1 27.75 21.0 29.0 L18.7 30.95 Q18.3 31.15 17.9 32.3 16.95 35.0 15.7 36.3 14.75 37.3 13.9 37.3 12.65 37.3 10.45 35.8 8.05 34.15 7.9 32.25 L8.1 31.9 7.9 31.5 Q7.95 29.0 6.45 25.65 4.8 22.6 4.8 22.2 4.8 19.25 5.8 17.6 6.75 16.0 8.35 16.0 L9.35 16.05 10.0 16.8 10.3 17.5 10.8 18.6 11.1 19.15 11.9 20.2 12.4 18.25 12.45 18.1 12.45 17.4 12.4 16.7 12.15 16.6 12.0 16.7 11.8 16.75 11.05 16.3 9.0 14.85 8.55 14.4 8.4 13.9 7.9 11.5 7.65 9.45 7.85 7.9 8.1 6.3 8.15 5.7 8.85 2.75 9.85 3.4 9.9 3.5 10.2 3.65 10.75 4.0 Q12.8 5.45 13.9 5.7 15.55 6.05 16.1 7.75 L17.1 11.05 Q17.35 11.0 17.85 10.4 L18.9 9.4 Q19.45 9.0 20.55 8.55 21.7 8.1 22.2 8.1 L25.55 9.15 26.35 8.95 26.45 9.05 27.9 9.05 Q28.3 8.9 28.5 8.3 L28.65 7.5 28.5 7.0 M21.25 10.65 L19.6 11.85 19.3 12.85 18.65 14.45 18.0 15.6 18.0 15.75 18.45 16.1 18.5 16.15 19.45 17.05 20.2 17.5 21.65 17.8 22.55 17.75 Q23.65 17.6 24.5 17.1 L24.55 17.0 25.35 15.95 25.4 15.9 25.7 15.4 26.65 13.9 26.75 13.7 26.9 12.95 27.1 12.2 27.25 11.75 27.85 10.35 28.8 9.0 28.9 8.9 27.25 9.55 27.1 9.6 25.8 10.0 25.4 10.05 25.35 10.05 25.1 10.05 23.8 9.8 23.55 9.75 23.45 9.8 22.5 10.05 21.6 10.45 21.25 10.65 M22.95 10.9 L23.6 11.05 20.7 12.5 20.5 12.4 Q20.6 11.85 21.4 11.1 22.3 10.2 23.05 10.55 L22.95 10.9 M25.85 10.7 L25.5 10.6 25.5 10.45 25.6 10.3 26.05 10.3 25.85 10.7 M21.8 24.15 L22.2 23.8 22.2 24.65 Q22.15 25.2 22.5 25.45 L22.65 25.4 23.45 22.7 Q23.45 22.1 23.2 22.05 L23.1 22.0 22.35 21.85 Q21.85 21.85 21.7 22.1 21.4 22.55 20.5 22.85 L19.7 23.3 19.75 23.5 19.95 23.55 20.8 23.25 21.4 23.35 21.35 23.4 21.2 23.65 18.75 23.9 Q17.4 25.25 15.0 24.8 12.5 24.35 11.05 23.3 9.55 22.2 9.65 20.15 L9.15 19.7 9.15 19.55 8.9 18.8 8.6 18.45 Q7.9 17.75 6.9 17.75 L6.6 19.2 6.4 20.35 Q6.4 20.85 6.6 20.95 L7.15 20.55 7.2 20.1 7.2 20.15 7.6 21.2 Q8.9 26.6 9.85 28.15 11.2 30.4 14.6 30.4 16.95 30.4 18.5 28.9 19.9 27.55 21.8 24.15 M13.15 8.45 L13.55 8.85 13.7 9.4 13.6 9.55 12.8 8.6 12.85 8.5 13.15 8.45 M10.45 5.25 L10.35 5.1 9.3 3.85 9.45 5.5 9.25 7.0 9.15 7.5 8.95 8.25 8.7 8.95 8.7 9.15 8.75 10.95 8.75 11.55 8.8 11.6 8.95 12.9 8.95 13.05 10.35 14.55 11.05 15.05 12.45 15.55 12.8 15.55 13.35 15.5 14.65 15.2 14.7 15.15 15.3 15.1 15.35 15.0 15.35 13.65 15.6 11.95 15.85 10.95 15.0 9.05 14.8 8.75 14.25 7.95 13.5 7.2 13.45 7.1 13.2 7.05 12.0 6.65 11.75 6.5 11.7 6.5 11.35 6.25 10.45 5.25 M11.85 7.85 L11.8 8.0 11.45 8.1 Q10.6 8.1 10.1 7.45 9.75 6.95 9.75 6.4 L9.8 6.05 Q10.45 6.15 11.1 6.85 L11.85 7.85 M15.6 19.35 Q15.45 19.05 15.45 18.6 15.45 17.9 15.9 17.25 L16.35 16.35 Q16.35 16.05 16.15 16.05 L15.8 16.05 15.15 16.2 15.45 16.65 15.25 17.35 14.75 17.95 14.5 17.9 14.5 17.15 14.75 16.6 15.15 16.25 Q14.75 16.4 14.25 16.85 13.5 17.55 13.45 17.9 13.2 17.95 13.2 18.35 13.2 18.7 13.5 19.05 L14.1 19.9 Q14.6 20.5 15.4 20.5 16.05 20.5 17.0 19.8 L17.55 19.4 17.5 19.4 16.4 19.45 15.6 19.35 M19.8 19.75 L19.8 19.45 Q19.8 18.7 19.1 18.7 L18.5 18.9 18.5 19.2 Q18.5 20.05 19.3 20.05 19.75 20.05 19.8 19.75 M10.0 31.95 L9.8 32.45 9.6 33.15 Q9.6 34.15 11.1 35.0 12.4 35.7 13.45 35.7 L14.2 35.1 Q14.7 34.4 14.7 33.7 L14.7 33.65 16.2 31.8 14.95 32.35 13.2 32.7 Q11.8 32.7 9.85 31.0 L10.0 31.95" fill="#d0b269" fill-rule="evenodd" stroke="none"/>
    <path d="M8.15 5.7 L1.2 34.25 21.1 39.85 30.45 6.65 9.25 1.15 8.85 2.75 8.15 5.7 M21.25 10.65 L21.6 10.45 22.5 10.05 23.45 9.8 23.55 9.75 23.8 9.8 25.1 10.05 25.35 10.05 25.4 10.05 25.8 10.0 27.1 9.6 27.25 9.55 28.9 8.9 28.8 9.0 27.85 10.35 27.25 11.75 27.1 12.2 26.9 12.95 26.75 13.7 26.65 13.9 25.7 15.4 25.4 15.9 25.35 15.95 24.55 17.0 24.5 17.1 Q23.65 17.6 22.55 17.75 L21.65 17.8 20.2 17.5 19.45 17.05 18.5 16.15 18.45 16.1 18.0 15.75 18.0 15.6 18.65 14.45 19.3 12.85 19.6 11.85 21.25 10.65 M22.95 10.9 L23.05 10.55 Q22.3 10.2 21.4 11.1 20.6 11.85 20.5 12.4 L20.7 12.5 23.6 11.05 22.95 10.9 M25.55 14.2 L25.6 14.1 25.8 13.8 25.75 13.75 25.4 12.65 25.35 12.6 Q24.95 12.0 24.0 12.15 L24.1 12.05 24.3 12.0 23.95 12.0 22.85 12.35 23.0 12.3 22.75 12.4 22.25 12.55 21.6 13.0 Q20.75 13.55 20.05 14.55 L19.6 15.05 19.2 15.65 18.8 16.25 Q18.9 16.25 19.85 16.8 L21.65 17.3 23.45 17.0 Q24.55 16.6 25.35 15.6 L25.4 15.55 25.6 15.25 25.8 14.95 25.75 14.9 25.55 14.2 M25.85 10.7 L26.05 10.3 25.6 10.3 25.5 10.45 25.5 10.6 25.85 10.7 M21.8 24.15 Q19.9 27.55 18.5 28.9 16.95 30.4 14.6 30.4 11.2 30.4 9.85 28.15 8.9 26.6 7.6 21.2 9.65 26.15 10.55 27.35 14.7 32.7 21.45 24.35 L21.8 24.15 M9.15 19.7 L9.65 20.15 Q9.55 22.2 11.05 23.3 12.5 24.35 15.0 24.8 17.4 25.25 18.75 23.9 L21.2 23.65 20.9 23.95 20.55 24.45 Q18.35 25.75 15.4 25.5 10.5 25.05 8.55 21.4 7.9 19.75 7.8 19.05 L8.85 19.95 9.1 19.9 9.15 19.7 M10.45 5.25 L11.35 6.25 11.7 6.5 11.75 6.5 12.0 6.65 13.2 7.05 13.45 7.1 13.5 7.2 14.25 7.95 14.8 8.75 15.0 9.05 15.85 10.95 15.6 11.95 15.35 13.65 15.35 15.0 15.3 15.1 14.7 15.15 14.65 15.2 13.35 15.5 12.8 15.55 12.45 15.55 11.05 15.05 10.35 14.55 8.95 13.05 8.95 12.9 8.8 11.6 8.75 11.55 8.75 10.95 8.7 9.15 8.7 8.95 8.95 8.25 9.15 7.5 9.25 7.0 9.45 5.5 9.3 3.85 10.35 5.1 10.45 5.25 M13.15 8.45 L12.85 8.5 12.8 8.6 13.6 9.55 13.7 9.4 13.55 8.85 13.15 8.45 M14.35 15.15 L14.3 14.45 14.25 13.7 14.1 13.05 Q14.0 11.8 13.5 10.95 L13.2 10.2 12.8 9.8 12.65 9.65 12.8 9.75 12.0 8.85 11.65 8.7 11.85 8.85 11.9 9.0 Q11.1 8.35 10.45 8.7 L10.4 8.75 9.55 9.5 9.45 9.55 9.5 9.9 9.5 10.0 Q9.25 10.2 8.95 10.5 L8.9 10.5 8.95 10.9 8.95 11.25 8.95 11.3 Q9.15 12.55 9.9 13.45 L11.3 14.6 Q12.05 15.05 13.15 15.1 L14.35 15.15 M11.85 7.85 L11.1 6.85 Q10.45 6.15 9.8 6.05 L9.75 6.4 Q9.75 6.95 10.1 7.45 10.6 8.1 11.45 8.1 L11.8 8.0 11.85 7.85 M13.45 17.9 Q13.5 17.55 14.25 16.85 14.75 16.4 15.15 16.25 L14.75 16.6 14.5 17.15 14.5 17.9 14.75 17.95 15.25 17.35 15.45 16.65 15.15 16.2 15.8 16.05 16.15 16.05 Q16.35 16.05 16.35 16.35 L15.9 17.25 Q15.45 17.9 15.45 18.6 15.45 19.05 15.6 19.35 15.0 19.15 14.6 18.7 L13.55 17.9 13.45 17.9 M10.0 31.95 Q10.2 33.15 10.55 33.65 11.15 34.4 12.8 34.4 13.8 34.4 14.7 33.65 L14.7 33.7 Q14.7 34.4 14.2 35.1 L13.45 35.7 Q12.4 35.7 11.1 35.0 9.6 34.15 9.6 33.15 L9.8 32.45 10.0 31.95 M32.1 5.8 L22.4 40.95 0.0 35.05 8.25 0.0 32.1 5.8" fill="#98782b" fill-rule="evenodd" stroke="none"/>
    <path d="M28.5 7.0 Q28.1 6.4 26.75 6.3 24.8 6.15 23.9 7.4 L25.3 8.2 26.35 8.95 25.55 9.15 22.2 8.1 Q21.7 8.1 20.55 8.55 19.45 9.0 18.9 9.4 L17.85 10.4 Q17.35 11.0 17.1 11.05 L16.1 7.75 Q15.55 6.05 13.9 5.7 12.8 5.45 10.75 4.0 L10.2 3.65 9.9 3.5 9.85 3.4 8.85 2.75 9.25 1.15 30.45 6.65 21.1 39.85 1.2 34.25 8.15 5.7 8.1 6.3 7.85 7.9 7.65 9.45 7.9 11.5 8.4 13.9 8.55 14.4 9.0 14.85 11.05 16.3 11.8 16.75 12.0 16.7 12.15 16.6 12.4 16.7 12.45 17.4 12.45 18.1 12.4 18.25 11.9 20.2 11.1 19.15 11.25 18.85 11.55 17.55 Q11.55 16.85 11.0 17.05 L10.3 17.5 10.0 16.8 9.35 16.05 8.35 16.0 Q6.75 16.0 5.8 17.6 4.8 19.25 4.8 22.2 4.8 22.6 6.45 25.65 7.95 29.0 7.9 31.5 L8.1 31.9 7.9 32.25 Q8.05 34.15 10.45 35.8 12.65 37.3 13.9 37.3 14.75 37.3 15.7 36.3 16.95 35.0 17.9 32.3 18.3 31.15 18.7 30.95 L21.0 29.0 Q22.1 27.75 23.4 25.45 24.9 22.8 24.9 21.55 L24.75 20.95 24.05 20.7 21.65 21.3 19.1 22.1 20.25 20.05 Q20.9 19.2 22.0 18.9 L24.7 18.6 Q25.5 18.5 25.9 17.95 L26.15 17.1 26.85 15.2 28.25 12.0 Q29.4 9.2 29.4 8.25 L29.25 7.2 29.0 6.7 Q28.9 6.7 28.5 7.0 M22.1 6.5 L22.25 6.2 Q21.35 6.2 21.35 6.6 21.35 6.95 21.45 6.8 L22.1 6.5 M23.9 20.0 L23.8 19.9 Q23.75 19.8 24.0 19.8 L25.0 20.25 25.35 20.1 25.4 19.8 Q25.4 19.0 24.4 18.95 23.4 18.9 23.4 19.7 23.4 20.05 23.7 20.15 L23.9 20.0 M21.7 19.65 L21.75 19.85 22.05 19.85 22.1 19.7 22.05 19.55 21.95 19.55 21.7 19.65 M16.85 4.95 L16.75 4.75 16.7 4.7 16.4 4.85 16.5 5.15 16.8 5.15 16.85 4.95 M18.85 7.85 L19.35 7.7 19.35 7.1 Q19.0 6.95 18.8 7.1 18.65 7.2 18.65 7.35 L18.85 7.85 M22.65 29.75 L22.4 29.4 21.5 30.8 21.75 31.65 22.05 31.4 Q21.85 31.1 22.2 30.6 L22.65 29.75 M18.45 35.95 L18.45 36.45 Q18.65 36.9 19.5 36.9 20.6 36.9 21.35 36.05 21.9 35.4 21.9 34.85 21.9 33.0 20.2 33.75 18.45 34.45 18.45 35.95 M17.25 36.6 L16.55 36.75 17.0 36.9 17.25 36.6" fill="#f3dfae" fill-rule="evenodd" stroke="none"/>
    <path d="M25.55 14.2 L25.75 14.9 25.8 14.95 25.6 15.25 25.4 15.55 25.35 15.6 Q24.55 16.6 23.45 17.0 L21.65 17.3 19.85 16.8 Q18.9 16.25 18.8 16.25 L19.85 16.6 21.6 16.8 21.65 16.8 Q23.95 16.45 25.35 14.55 L25.4 14.45 25.55 14.2 M21.2 23.65 L21.35 23.4 21.4 23.35 20.8 23.25 19.95 23.55 19.75 23.5 19.7 23.3 20.5 22.85 Q21.4 22.55 21.7 22.1 21.85 21.85 22.35 21.85 L23.1 22.0 23.2 22.05 Q23.45 22.1 23.45 22.7 L22.65 25.4 22.5 25.45 Q22.15 25.2 22.2 24.65 L22.2 23.8 21.8 24.15 21.45 24.35 Q14.7 32.7 10.55 27.35 9.65 26.15 7.6 21.2 L7.2 20.15 7.2 20.1 7.15 20.55 6.6 20.95 Q6.4 20.85 6.4 20.35 L6.6 19.2 6.9 17.75 Q7.9 17.75 8.6 18.45 L8.9 18.8 9.15 19.55 9.15 19.7 9.1 19.9 8.85 19.95 7.8 19.05 Q7.9 19.75 8.55 21.4 10.5 25.05 15.4 25.5 18.35 25.75 20.55 24.45 L20.9 23.95 21.2 23.65 M9.5 10.0 L9.5 10.3 9.5 10.4 Q9.8 12.7 11.55 14.2 L11.6 14.25 Q12.3 14.75 13.25 14.9 L14.35 15.15 13.15 15.1 Q12.05 15.05 11.3 14.6 L9.9 13.45 Q9.15 12.55 8.95 11.3 L8.95 11.25 8.95 10.9 8.9 10.5 8.95 10.5 Q9.25 10.2 9.5 10.0 M15.6 19.35 L16.4 19.45 17.5 19.4 17.55 19.4 17.0 19.8 Q16.05 20.5 15.4 20.5 14.6 20.5 14.1 19.9 L13.5 19.05 Q13.2 18.7 13.2 18.35 13.2 17.95 13.45 17.9 L13.55 17.9 14.6 18.7 Q15.0 19.15 15.6 19.35 M15.1 26.5 Q13.2 26.2 11.75 25.55 10.25 24.85 9.45 23.65 10.25 25.55 11.7 27.15 13.1 28.7 14.95 27.85 L18.4 26.0 Q17.0 26.75 15.1 26.5 M14.7 33.65 Q13.8 34.4 12.8 34.4 11.15 34.4 10.55 33.65 10.2 33.15 10.0 31.95 L9.85 31.0 Q11.8 32.7 13.2 32.7 L14.95 32.35 16.2 31.8 14.7 33.65" fill="#4d3b0e" fill-rule="evenodd" stroke="none"/>
  </g>
</svg>