<?xml version="1.0" encoding="UTF-8" standalone="no"?>
<svg xmlns:xlink="http://www.w3.org/1999/xlink" height="15.9px" width="14px" xmlns="http://www.w3.org/2000/svg">
  <g transform="matrix(1.0, 0.0, 0.0, 1.0, 7, 7)">
    <path d="M4.25 -4.25 Q6.0 -2.45 6.0 0.0 6.0 2.45 4.25 4.25 2.45 6.0 0.0 6.0 -2.45 6.0 -4.25 4.25 -6.0 2.45 -6.0 0.0 -6.0 -2.45 -4.25 -4.25 -2.45 -6.0 0.0 -6.0 2.45 -6.0 4.25 -4.25" fill="#ffffff" fill-opacity="0.6313726" fill-rule="evenodd" stroke="none"/>
    <path d="M2.45 3.85 Q1.85 3.85 1.4 3.35 L0.55 2.05 Q0.2 1.2 0.8 0.7 1.35 0.25 1.95 1.0 2.55 1.7 3.15 1.8 3.75 1.9 3.85 2.35 3.95 2.85 3.5 3.35 3.05 3.85 2.45 3.85" fill="#000000" fill-rule="evenodd" stroke="none"/>
    <path d="M-2.65 3.85 Q-3.25 3.85 -3.7 3.35 -4.15 2.85 -4.05 2.35 -3.95 1.9 -3.35 1.8 -2.75 1.7 -2.15 1.0 -1.55 0.25 -1.0 0.7 -0.4 1.2 -0.75 2.05 L-1.6 3.35 Q-2.05 3.85 -2.65 3.85" fill="#000000" fill-rule="evenodd" stroke="none"/>
    <path d="M1.05 5.3 L0.7 6.75 -0.15 7.4 Q-0.65 7.4 -1.0 6.75 -1.35 6.15 -1.35 5.3 -1.35 4.4 -1.0 3.75 -0.65 3.15 -0.15 3.15 0.35 3.15 0.7 3.75 1.05 4.4 1.05 5.3" fill="#000000" fill-rule="evenodd" stroke="none"/>
    <path d="M1.05 5.3 L0.7 6.75 -0.15 7.4 Q-0.65 7.4 -1.0 6.75 -1.35 6.15 -1.35 5.3 -1.35 4.4 -1.0 3.75 -0.65 3.15 -0.15 3.15 0.35 3.15 0.7 3.75 1.05 4.4 1.05 5.3 Z" fill="none" stroke="#ffffff" stroke-linecap="round" stroke-linejoin="round" stroke-width="1.0"/>
  </g>
</svg>