<?xml version="1.0" encoding="UTF-8" standalone="no"?>
<svg xmlns:xlink="http://www.w3.org/1999/xlink" height="177px" width="102px" xmlns="http://www.w3.org/2000/svg">
  <g transform="matrix(1.0, 0.0, 0.0, 1.0, 51, 151)">
    <path d="M35.4 -17.6 Q50.0 -10.25 50.0 0.0 50.0 3.25 48.5 6.25 45.4 12.65 35.4 17.75 20.75 25.0 0.0 25.0 -20.75 25.0 -35.35 17.75 -45.35 12.65 -48.5 6.25 -50.0 3.25 -50.0 0.0 -50.0 -10.25 -35.35 -17.6 -20.75 -25.0 0.0 -25.0 20.75 -25.0 35.4 -17.6" fill="#ff0000" fill-rule="evenodd" stroke="none"/>
    <path d="M-50.0 -150.0 L50.0 -150.0 50.0 0.0 -50.0 0.0 -50.0 -150.0" fill="#ff0000" fill-rule="evenodd" stroke="none"/>
  </g>
</svg>