<?xml version="1.0" encoding="UTF-8" standalone="no"?>
<svg xmlns:xlink="http://www.w3.org/1999/xlink" height="20.05px" width="34.6px" xmlns="http://www.w3.org/2000/svg">
  <g transform="matrix(1.0, 0.0, 0.0, 1.0, 17.3, 10.0)">
      <path d="M-17.3 0.0 Q-17.3 4.15 -12.25 7.1 -7.15 10.05 0.0 10.05 7.2 10.05 12.25 7.1 17.3 4.15 17.3 0.0 17.3 -4.15 12.25 -7.1 7.2 -10.0 0.0 -10.0 -7.15 -10.0 -12.25 -7.1 -17.3 -4.15 -17.3 0.0" fill="url(#gradient0)" fill-rule="evenodd" stroke="none"/>
      <path d="M-17.3 0.0 Q-17.3 -4.15 -12.25 -7.1 -7.15 -10.0 0.0 -10.0 7.2 -10.0 12.25 -7.1 17.3 -4.15 17.3 0.0 17.3 4.15 12.25 7.1 7.2 10.05 0.0 10.05 -7.15 10.05 -12.25 7.1 -17.3 4.15 -17.3 0.0 Z" fill="none" stroke="#000000" stroke-linecap="round" stroke-linejoin="round" stroke-opacity="0.0" stroke-width="1.0"/>
  </g>
  <defs>
    <radialGradient cx="0" cy="0" gradientTransform="matrix(0.0213, 0.0, 0.0, 0.0124, 0.0, 0.0)" gradientUnits="userSpaceOnUse" id="gradient0" r="819.2" spreadMethod="pad">
      <stop offset="0.33725490196078434" stop-color="#ffcc00"/>
      <stop offset="1.0" stop-color="#ffff00" stop-opacity="0.0"/>
    </radialGradient>
  </defs>
</svg>
