<?xml version="1.0" encoding="UTF-8" standalone="no"?>
<svg xmlns:xlink="http://www.w3.org/1999/xlink" height="99.7px" width="153.45px" xmlns="http://www.w3.org/2000/svg">
  <g transform="matrix(1.0, 0.0, 0.0, 1.0, 176.45, -11.3)">
    <path d="M-162.5 94.35 L-165.9 93.75 -166.4 93.75 Q-170.5 93.85 -172.45 95.4 -174.45 97.0 -175.15 97.0 L-175.45 97.0 Q-167.2 88.05 -156.15 88.05 -154.1 88.05 -138.5 91.8 -122.9 95.5 -115.65 95.5 -104.95 95.5 -94.9 85.9 -82.8 74.35 -80.9 55.3 L-79.3 50.2 -76.15 40.0 Q-70.15 27.85 -61.25 20.4 -53.15 13.65 -44.8 12.5 -36.65 11.4 -31.5 16.1 -28.0 19.3 -26.75 24.6 L-29.0 24.5 Q-54.4 24.5 -65.85 36.05 -73.3 43.6 -77.55 61.5 -80.1 72.4 -80.95 75.1 -83.2 82.4 -86.45 86.95 -94.75 98.5 -114.9 98.5 -129.55 98.5 -137.55 96.0 -145.55 93.5 -152.9 93.5 L-157.5 93.8 -162.5 94.35" fill="#f435b1" fill-rule="evenodd" stroke="none"/>
    <path d="M-26.75 24.6 Q-26.05 27.5 -26.05 31.05 -26.05 31.8 -25.1 31.85 L-24.0 32.0 Q-24.25 32.3 -29.0 34.5 -29.6 34.5 -29.5 33.8 -29.4 33.05 -30.05 33.05 -50.25 33.05 -59.55 44.35 -63.0 48.6 -66.85 56.65 L-74.05 71.75 -77.2 78.2 Q-80.9 85.4 -85.0 91.3 -98.05 110.0 -110.9 110.0 -120.5 110.0 -142.0 101.9 L-156.6 96.3 -162.5 94.35 -157.5 93.8 -152.9 93.5 Q-145.55 93.5 -137.55 96.0 -129.55 98.5 -114.9 98.5 -94.75 98.5 -86.45 86.95 -83.2 82.4 -80.95 75.1 -80.1 72.4 -77.55 61.5 -73.3 43.6 -65.85 36.05 -54.4 24.5 -29.0 24.5 L-26.75 24.6" fill="#aa15b1" fill-rule="evenodd" stroke="none"/>
  </g>
</svg>