<?xml version="1.0" encoding="UTF-8" standalone="no"?>
<svg xmlns:xlink="http://www.w3.org/1999/xlink" height="75.3px" width="105.8px" xmlns="http://www.w3.org/2000/svg">
  <g transform="matrix(1.0, 0.0, 0.0, 1.0, 130.55, -10.25)">
    <path d="M-128.15 84.55 L-129.15 84.3 -129.2 84.2 -129.45 84.1 -129.55 83.15 Q-129.55 80.8 -117.8 74.85 -105.0 68.3 -95.9 68.3 -94.3 68.3 -90.7 69.95 -87.1 71.55 -84.25 71.55 -79.2 71.55 -75.2 64.55 -72.05 59.1 -72.05 56.5 -72.05 53.1 -72.85 46.05 -73.65 39.0 -73.65 35.35 -73.65 21.0 -66.15 15.0 -59.8 9.9 -49.7 11.75 L-46.4 12.5 Q-43.0 14.65 -43.0 18.5 -43.0 20.8 -47.3 21.6 L-56.7 23.1 Q-70.4 26.55 -70.4 43.5 -70.4 45.95 -69.65 52.0 -68.9 58.05 -68.9 60.25 -68.9 66.75 -74.4 71.5 -79.55 76.0 -85.65 76.0 -88.65 76.0 -95.15 74.0 -101.7 72.0 -104.4 72.0 -110.3 72.0 -116.9 76.0 L-118.45 76.95 Q-120.65 78.35 -125.25 81.65 L-128.6 83.85 -128.15 84.55" fill="#f435b1" fill-rule="evenodd" stroke="none"/>
    <path d="M-46.4 12.5 Q-39.15 14.5 -33.25 19.5 -25.75 25.8 -25.75 32.35 -25.75 33.75 -27.0 34.5 L-33.05 29.1 Q-38.5 25.25 -45.65 25.25 -59.35 25.25 -63.0 41.8 -64.85 50.15 -64.0 59.4 -64.0 68.1 -65.85 72.55 -70.35 83.5 -84.65 83.5 -86.7 83.5 -95.05 80.65 -103.35 77.8 -104.75 77.8 -113.3 77.8 -121.55 81.2 -125.65 82.85 -128.15 84.55 L-128.6 83.85 -125.25 81.65 Q-120.65 78.35 -118.45 76.95 L-116.9 76.0 Q-110.3 72.0 -104.4 72.0 -101.7 72.0 -95.15 74.0 -88.65 76.0 -85.65 76.0 -79.55 76.0 -74.4 71.5 -68.9 66.75 -68.9 60.25 -68.9 58.05 -69.65 52.0 -70.4 45.95 -70.4 43.5 -70.4 26.55 -56.7 23.1 L-47.3 21.6 Q-43.0 20.8 -43.0 18.5 -43.0 14.65 -46.4 12.5 M-116.65 76.85 L-116.65 76.55 -116.9 76.8 -116.65 76.85" fill="#aa15b1" fill-rule="evenodd" stroke="none"/>
  </g>
</svg>