<?xml version="1.0" encoding="UTF-8" standalone="no"?>
<svg xmlns:xlink="http://www.w3.org/1999/xlink" height="153.3px" width="186.1px" xmlns="http://www.w3.org/2000/svg">
  <g transform="matrix(1.0, 0.0, 0.0, 1.0, 207.9, -6.5)">
    <path d="M-36.3 12.35 Q-28.7 15.1 -26.5 17.8 -25.15 19.85 -24.65 23.6 L-24.1 28.55 -22.8 27.75 -24.1 28.7 -24.0 29.8 -24.1 30.05 -24.75 30.3 -25.05 29.4 Q-56.65 51.7 -120.2 94.35 -177.45 133.55 -206.65 158.8 L-206.9 158.5 Q-193.3 145.95 -176.05 132.2 -163.05 121.0 -146.05 105.0 L-110.55 71.8 -73.4 38.8 -53.3 20.9 -43.8 12.8 -44.0 11.9 Q-44.0 10.55 -41.45 10.9 L-36.75 7.5 -36.3 7.8 -39.95 11.2 Q-38.45 11.6 -36.3 12.35" fill="#f435b1" fill-rule="evenodd" stroke="none"/>
  </g>
</svg>