<?xml version="1.0" encoding="UTF-8" standalone="no"?>
<svg xmlns:xlink="http://www.w3.org/1999/xlink" height="73.15px" width="79.2px" xmlns="http://www.w3.org/2000/svg">
  <g transform="matrix(1.0, 0.0, 0.0, 1.0, 1, 1)">
    <path d="M73.45 3.0 L69.2 10.75 Q65.55 17.1 65.55 18.1 65.55 19.25 70.35 22.75 L69.75 25.2 67.0 22.3 Q63.5 18.95 59.45 16.8 57.5 15.8 55.5 15.05 L56.75 13.35 58.45 13.95 Q59.3 14.4 60.55 15.3 L63.85 11.1 72.6 0.8 72.85 1.15 Q73.4 2.0 73.45 3.0" fill="#e02116" fill-rule="evenodd" stroke="none"/>
    <path d="M56.75 13.35 Q58.55 11.0 61.35 8.05 66.9 2.2 71.35 0.0 72.1 0.15 72.6 0.8 L63.85 11.1 60.55 15.3 Q59.3 14.4 58.45 13.95 L56.75 13.35" fill="#ff6633" fill-rule="evenodd" stroke="none"/>
    <path d="M73.45 3.0 L73.45 3.1 Q73.45 7.75 72.45 13.35 L70.35 22.75 Q65.55 19.25 65.55 18.1 65.55 17.1 69.2 10.75 L73.45 3.0" fill="#c4160c" fill-rule="evenodd" stroke="none"/>
    <path d="M0.4 40.0 Q0.6 37.65 1.15 35.5 L1.2 36.3 Q0.65 38.05 0.4 40.0 M2.3 31.9 Q5.1 24.7 11.35 20.1 17.5 19.3 23.45 21.35 29.6 23.65 33.3 29.1 35.0 31.6 37.75 31.55 43.05 30.9 46.65 26.85 46.1 22.75 43.4 19.55 39.85 15.25 35.15 12.3 L39.55 12.25 40.95 13.4 Q43.0 15.25 44.95 17.65 51.85 26.35 51.85 34.55 51.85 40.9 46.75 44.5 42.35 47.6 36.15 47.6 L35.1 47.55 Q34.25 36.9 29.35 30.1 23.9 22.5 15.65 22.5 9.4 22.5 4.9 28.0 3.25 30.0 2.3 31.9 M5.4 32.0 Q9.45 26.85 15.25 27.55 20.95 28.3 25.05 34.5 29.1 40.75 29.1 48.85 29.1 56.95 25.05 62.1 20.95 67.3 15.25 66.55 9.45 65.85 5.4 59.55 1.3 53.35 1.3 45.25 1.3 37.2 5.4 32.0 M15.25 28.85 Q9.85 28.2 6.05 33.0 2.25 37.85 2.25 45.4 2.25 52.95 6.05 58.75 9.85 64.6 15.25 65.25 20.6 65.95 24.4 61.1 28.2 56.3 28.2 48.75 28.2 41.2 24.4 35.35 20.6 29.55 15.25 28.85" fill="#5b0955" fill-rule="evenodd" stroke="none"/>
    <path d="M49.4 57.6 Q43.1 62.8 35.6 66.65 20.15 74.5 11.35 68.6 13.85 70.1 16.75 70.45 23.65 71.35 28.55 65.1 L30.0 63.05 Q34.55 60.5 39.75 58.15 47.15 54.85 49.65 54.85 50.85 54.85 51.7 55.4 L51.75 55.45 51.45 55.9 50.5 56.7 49.4 57.6 M1.15 35.5 Q1.6 33.6 2.3 31.9 3.25 30.0 4.9 28.0 9.4 22.5 15.65 22.5 23.9 22.5 29.35 30.1 34.25 36.9 35.1 47.55 L36.15 47.6 Q42.35 47.6 46.75 44.5 51.85 40.9 51.85 34.55 51.85 26.35 44.95 17.65 43.0 15.25 40.95 13.4 L39.55 12.25 39.95 12.3 40.55 12.4 43.0 13.05 43.05 13.05 44.6 13.65 Q50.05 16.3 53.45 23.05 58.2 32.5 57.2 41.0 L57.05 42.05 Q51.1 46.7 45.6 49.5 39.9 52.35 36.7 52.35 34.3 52.35 33.4 50.5 L33.4 49.2 33.35 47.25 Q33.2 44.25 32.55 41.45 L31.95 39.15 Q30.7 35.35 28.55 31.95 23.65 24.5 16.75 23.6 9.8 22.75 4.9 28.95 2.4 32.15 1.2 36.3 L1.15 35.5" fill="#2e0646" fill-rule="evenodd" stroke="none"/>
    <path d="M58.25 58.1 L58.15 58.05 Q55.0 56.85 52.6 56.85 51.3 56.85 49.4 57.6 L50.5 56.7 51.45 55.9 51.75 55.45 52.1 54.95 Q55.6 51.15 57.45 46.8 59.65 41.6 59.4 36.05 59.1 30.3 56.35 25.35 53.5 20.15 48.9 16.35 46.9 14.65 44.6 13.65 L43.05 13.05 43.45 13.0 48.55 13.35 Q60.55 18.25 66.45 25.5 L66.75 26.25 Q67.3 27.65 68.3 33.35 69.25 39.0 69.25 40.85 69.25 52.05 61.95 56.45 L58.25 58.1" fill="#0c1c5b" fill-rule="evenodd" stroke="none"/>
    <path d="M44.6 13.65 Q46.9 14.65 48.9 16.35 53.5 20.15 56.35 25.35 59.1 30.3 59.4 36.05 59.65 41.6 57.45 46.8 55.6 51.15 52.1 54.95 L51.75 55.45 51.7 55.4 Q50.85 54.85 49.65 54.85 47.15 54.85 39.75 58.15 34.55 60.5 30.0 63.05 33.1 57.85 33.4 50.5 34.3 52.35 36.7 52.35 39.9 52.35 45.6 49.5 51.1 46.7 57.05 42.05 L57.2 41.0 Q58.2 32.5 53.45 23.05 50.05 16.3 44.6 13.65" fill="#11042c" fill-rule="evenodd" stroke="none"/>
    <path d="M11.35 20.1 Q15.7 16.85 21.85 14.85 28.55 12.7 35.15 12.3 39.85 15.25 43.4 19.55 46.1 22.75 46.65 26.85 43.05 30.9 37.75 31.55 35.0 31.6 33.3 29.1 29.6 23.65 23.45 21.35 17.5 19.3 11.35 20.1" fill="#931c6a" fill-rule="evenodd" stroke="none"/>
    <path d="M10.8 32.3 L11.7 31.55 13.55 31.35 Q14.35 31.35 15.0 31.85 15.75 32.4 15.75 33.2 L15.45 34.8 Q15.1 36.0 15.1 36.95 14.7 39.85 13.6 39.85 L12.85 39.4 Q11.25 36.95 10.9 34.4 L10.8 32.3 M19.9 35.45 L20.15 35.2 21.1 35.85 Q22.0 36.65 22.0 37.15 22.0 37.55 19.65 39.35 L17.45 40.9 Q17.6 39.6 18.45 37.85 19.1 36.45 19.9 35.45 M5.25 43.45 L5.45 43.6 5.95 43.9 6.6 44.2 Q8.5 45.15 11.05 45.35 10.7 46.4 9.15 46.95 L5.85 47.45 Q5.0 47.45 4.6 47.1 4.1 46.65 4.1 45.5 L4.15 44.5 Q4.3 44.0 5.0 43.45 L5.25 43.45 M8.15 36.2 L8.8 36.2 8.85 36.45 8.2 36.4 8.85 37.7 9.75 38.7 Q10.25 39.3 10.25 40.15 L10.0 41.1 Q6.1 39.95 6.1 38.7 6.1 37.9 6.6 37.2 7.15 36.35 8.05 36.35 L8.2 36.4 8.15 36.2 M17.35 47.55 Q18.45 45.85 19.6 44.65 L21.3 43.1 22.45 42.4 23.45 42.0 Q24.15 42.05 24.5 42.6 24.85 43.05 24.85 43.75 24.85 45.85 23.25 45.85 L20.9 45.7 Q20.6 45.75 17.35 47.55 M23.35 52.65 Q23.75 53.3 23.75 53.95 L23.35 54.85 Q22.9 55.45 22.4 55.45 21.95 55.45 21.45 54.3 L21.0 52.95 19.95 51.6 19.4 51.0 19.35 50.85 19.25 50.7 19.3 50.7 Q20.8 50.9 22.9 52.35 L23.35 52.65 M12.2 51.0 L11.25 53.2 Q9.95 55.7 9.05 55.7 7.25 54.85 7.25 54.2 L8.9 53.0 12.2 51.0 M14.7 50.7 L14.7 50.55 14.9 50.75 16.2 53.55 Q17.25 55.6 17.25 56.8 L17.0 59.1 Q16.6 59.85 15.1 59.85 L14.0 59.85 Q13.6 59.75 13.6 58.95 13.6 58.0 14.25 55.75 14.85 53.5 14.85 51.9 L14.7 50.7" fill="#fff1b4" fill-rule="evenodd" stroke="none"/>
    <path d="M10.8 32.3 L10.85 31.5 10.9 31.3 Q14.95 28.75 18.25 31.95 L17.55 33.05 Q15.55 36.6 15.3 42.3 13.85 40.85 12.85 39.4 L13.6 39.85 Q14.7 39.85 15.1 36.95 15.1 36.0 15.45 34.8 L15.75 33.2 Q15.75 32.4 15.0 31.85 14.35 31.35 13.55 31.35 L11.7 31.55 10.8 32.3 M20.15 35.2 L20.6 34.65 Q22.0 34.65 23.15 35.75 24.25 36.85 24.05 38.65 L23.15 38.8 22.85 38.9 Q20.75 39.5 17.35 41.75 L17.35 41.7 17.45 40.9 19.65 39.35 Q22.0 37.55 22.0 37.15 22.0 36.65 21.1 35.85 L20.15 35.2 M24.65 41.65 L25.5 41.5 25.75 41.4 Q27.8 45.0 25.35 48.9 L25.2 48.8 24.75 48.55 Q24.1 48.15 23.3 47.95 L17.15 47.8 17.35 47.55 Q20.6 45.75 20.9 45.7 L23.25 45.85 Q24.85 45.85 24.85 43.75 24.85 43.05 24.5 42.6 24.15 42.05 23.45 42.0 L24.65 41.65 M24.65 53.75 L25.7 54.95 Q25.5 56.3 24.25 57.25 23.0 58.2 21.3 57.75 L21.3 56.8 Q21.05 54.75 19.5 51.25 L19.4 51.0 19.95 51.6 21.0 52.95 21.45 54.3 Q21.95 55.45 22.4 55.45 22.9 55.45 23.35 54.85 L23.75 53.95 Q23.75 53.3 23.35 52.65 L24.65 53.75 M19.25 59.85 L19.15 61.35 19.1 61.55 Q15.05 64.1 11.75 60.9 L12.5 59.75 Q14.4 56.25 14.7 50.7 L14.85 51.9 Q14.85 53.5 14.25 55.75 13.6 58.0 13.6 58.95 13.6 59.75 14.0 59.85 L15.1 59.85 Q16.6 59.85 17.0 59.1 L17.25 56.8 Q17.25 55.6 16.2 53.55 L14.9 50.75 Q19.1 55.05 19.25 59.85 M10.05 57.4 L9.65 57.85 Q8.25 57.9 7.15 56.8 5.95 55.75 6.1 53.95 L7.0 53.8 8.9 53.0 7.25 54.2 Q7.25 54.85 9.05 55.7 9.95 55.7 11.25 53.2 L12.2 51.0 12.65 50.65 12.65 50.7 Q12.75 52.25 11.65 54.55 11.0 56.2 10.05 57.4 M5.8 50.25 L4.65 50.25 4.45 50.25 Q2.45 46.35 4.6 42.95 L4.75 43.05 5.25 43.45 5.0 43.45 Q4.3 44.0 4.15 44.5 L4.1 45.5 Q4.1 46.65 4.6 47.1 5.0 47.45 5.85 47.45 L9.15 46.95 Q10.7 46.4 11.05 45.35 L12.45 45.4 12.4 45.45 10.45 47.75 10.15 48.05 8.6 49.35 Q7.25 50.1 5.8 50.25 M6.4 40.8 L5.05 39.9 Q4.95 38.55 6.0 37.3 6.8 36.35 8.15 36.2 L8.2 36.4 8.05 36.35 Q7.15 36.35 6.6 37.2 6.1 37.9 6.1 38.7 6.1 39.95 10.0 41.1 L10.25 40.15 Q10.25 39.3 9.75 38.7 L8.85 37.7 8.2 36.4 8.85 36.45 8.95 36.85 Q9.6 38.85 12.45 42.55 L12.4 42.55 Q10.85 42.7 8.5 41.8 L6.4 40.8" fill="#d0b181" fill-rule="evenodd" stroke="none"/>
    <path d="M17.55 33.05 L18.25 31.95 Q14.95 28.75 10.9 31.3 L10.85 31.5 10.8 32.3 10.9 34.4 Q10.1 34.55 9.55 35.6 L9.15 36.45 8.95 36.85 8.85 36.45 8.8 36.2 8.15 36.2 Q6.8 36.35 6.0 37.3 4.95 38.55 5.05 39.9 L6.4 40.8 6.4 40.95 6.1 42.1 Q5.8 42.7 5.8 43.1 5.8 43.5 5.95 43.9 L5.45 43.6 5.25 43.45 4.75 43.05 4.6 42.95 Q2.45 46.35 4.45 50.25 L4.65 50.25 5.8 50.25 6.25 50.65 Q7.0 51.3 7.0 52.0 L6.8 53.3 7.0 53.8 6.1 53.95 Q5.95 55.75 7.15 56.8 8.25 57.9 9.65 57.85 L10.05 57.4 10.4 57.5 Q11.35 57.8 11.65 58.35 L12.5 59.75 11.75 60.9 Q15.05 64.1 19.1 61.55 L19.15 61.35 19.25 59.85 19.65 58.75 20.05 56.8 Q20.4 57.0 21.3 56.8 L21.3 57.75 Q23.0 58.2 24.25 57.25 25.5 56.3 25.7 54.95 L24.65 53.75 24.85 53.3 24.85 52.3 24.5 50.6 24.15 49.6 24.75 48.55 25.2 48.8 25.35 48.9 Q27.8 45.0 25.75 41.4 L25.5 41.5 24.65 41.65 24.3 41.25 Q23.9 40.9 23.25 40.9 L23.15 38.8 24.05 38.65 Q24.25 36.85 23.15 35.75 22.0 34.65 20.6 34.65 L20.15 35.2 19.9 35.45 19.5 35.2 19.0 34.55 Q18.35 33.5 17.55 33.05 M15.25 28.85 Q20.6 29.55 24.4 35.35 28.2 41.2 28.2 48.75 28.2 56.3 24.4 61.1 20.6 65.95 15.25 65.25 9.85 64.6 6.05 58.75 2.25 52.95 2.25 45.4 2.25 37.85 6.05 33.0 9.85 28.2 15.25 28.85" fill="#2e228a" fill-rule="evenodd" stroke="none"/>
    <path d="M12.85 39.4 Q13.85 40.85 15.3 42.3 15.55 36.6 17.55 33.05 18.35 33.5 19.0 34.55 L19.5 35.2 19.9 35.45 Q19.1 36.45 18.45 37.85 17.6 39.6 17.45 40.9 L17.35 41.7 17.35 41.75 Q20.75 39.5 22.85 38.9 L23.15 38.8 23.25 40.9 Q23.9 40.9 24.3 41.25 L24.65 41.65 23.45 42.0 22.45 42.4 21.3 43.1 19.6 44.65 Q18.45 45.85 17.35 47.55 L17.15 47.8 23.3 47.95 Q24.1 48.15 24.75 48.55 L24.15 49.6 24.5 50.6 24.85 52.3 24.85 53.3 24.65 53.75 23.35 52.65 22.9 52.35 Q20.8 50.9 19.3 50.7 L19.25 50.7 19.35 50.85 19.4 51.0 19.5 51.25 Q21.05 54.75 21.3 56.8 20.4 57.0 20.05 56.8 L19.65 58.75 19.25 59.85 Q19.1 55.05 14.9 50.75 L14.7 50.55 14.7 50.7 Q14.4 56.25 12.5 59.75 L11.65 58.35 Q11.35 57.8 10.4 57.5 L10.05 57.4 Q11.0 56.2 11.65 54.55 12.75 52.25 12.65 50.7 L12.65 50.65 12.2 51.0 8.9 53.0 7.0 53.8 6.8 53.3 7.0 52.0 Q7.0 51.3 6.25 50.65 L5.8 50.25 Q7.25 50.1 8.6 49.35 L10.15 48.05 10.45 47.75 12.4 45.45 12.45 45.4 11.05 45.35 Q8.5 45.15 6.6 44.2 L5.95 43.9 Q5.8 43.5 5.8 43.1 5.8 42.7 6.1 42.1 L6.4 40.95 6.4 40.8 8.5 41.8 Q10.85 42.7 12.4 42.55 L12.45 42.55 Q9.6 38.85 8.95 36.85 L9.15 36.45 9.55 35.6 Q10.1 34.55 10.9 34.4 11.25 36.95 12.85 39.4" fill="#0b071e" fill-rule="evenodd" stroke="none"/>
    <path d="M11.35 68.6 Q9.65 67.6 8.15 66.15 6.4 64.45 4.9 62.1 0.0 54.6 0.0 44.9 L0.1 42.35 0.2 41.45 0.4 40.0 Q0.65 38.05 1.2 36.3 2.4 32.15 4.9 28.95 9.8 22.75 16.75 23.6 23.65 24.5 28.55 31.95 30.7 35.35 31.95 39.15 L32.55 41.45 Q33.2 44.25 33.35 47.25 L33.4 49.2 33.4 50.5 Q33.1 57.85 30.0 63.05 L28.55 65.1 Q23.65 71.35 16.75 70.45 13.85 70.1 11.35 68.6 M5.4 32.0 Q1.3 37.2 1.3 45.25 1.3 53.35 5.4 59.55 9.45 65.85 15.25 66.55 20.95 67.3 25.05 62.1 29.1 56.95 29.1 48.85 29.1 40.75 25.05 34.5 20.95 28.3 15.25 27.55 9.45 26.85 5.4 32.0" fill="#bf2b85" fill-rule="evenodd" stroke="none"/>
    <path d="M69.75 25.2 Q77.2 34.1 77.2 46.7 77.2 53.65 73.45 56.65 L72.65 57.25 Q69.4 59.2 63.35 59.2 61.35 59.2 58.25 58.1 L61.95 56.45 Q69.25 52.05 69.25 40.85 69.25 39.0 68.3 33.35 67.3 27.65 66.75 26.25 L66.45 25.5 Q60.55 18.25 48.55 13.35 52.15 13.85 55.5 15.05 57.5 15.8 59.45 16.8 63.5 18.95 67.0 22.3 L69.75 25.2" fill="#050e38" fill-rule="evenodd" stroke="none"/>
  </g>
</svg>