<?xml version="1.0" encoding="UTF-8" standalone="no"?>
<svg xmlns:xlink="http://www.w3.org/1999/xlink" height="46.45px" width="76.75px" xmlns="http://www.w3.org/2000/svg">
  <g transform="matrix(1.0, 0.0, 0.0, 1.0, 1, 1)">
    <path d="M48.65 7.7 L55.35 8.0 Q64.7 8.0 70.95 5.6 71.65 5.05 72.35 4.6 L72.55 4.9 Q74.75 8.2 74.75 13.25 L74.75 14.0 70.5 14.25 59.1 13.4 54.75 12.5 54.25 12.55 Q60.05 13.45 62.65 15.35 65.0 17.1 65.0 20.1 65.0 32.0 41.15 40.3 35.95 42.1 30.2 43.5 L26.85 44.3 Q23.25 44.6 19.6 44.2 L16.35 43.5 15.15 43.25 Q10.8 42.1 7.05 39.45 L3.95 37.2 Q1.55 35.3 0.5 32.55 -0.35 30.4 0.3 28.05 L0.35 28.0 6.6 28.5 Q13.6 28.5 23.4 26.85 36.6 24.6 47.5 20.25 L47.7 20.2 Q50.75 17.0 50.75 14.0 50.75 12.35 48.5 11.5 46.5 10.75 43.1 10.75 L39.6 10.95 43.1 9.95 Q45.95 9.0 48.65 7.7" fill="#050e38" fill-rule="evenodd" stroke="none"/>
    <path d="M48.65 7.7 L51.2 6.3 Q55.1 4.1 58.2 1.4 L58.95 0.75 Q61.3 0.0 64.1 0.0 67.95 0.0 71.0 3.0 L72.35 4.6 Q71.65 5.05 70.95 5.6 64.7 8.0 55.35 8.0 L48.65 7.7 M0.35 28.0 Q0.9 25.8 2.35 24.0 3.6 22.45 5.2 21.35 8.7 19.05 12.6 17.75 16.95 16.2 21.4 15.35 L24.15 14.7 33.75 12.4 39.6 10.95 43.1 10.75 Q46.5 10.75 48.5 11.5 50.75 12.35 50.75 14.0 50.75 17.0 47.7 20.2 L47.5 20.25 Q36.6 24.6 23.4 26.85 13.6 28.5 6.6 28.5 L0.35 28.0" fill="#0c1c5b" fill-rule="evenodd" stroke="none"/>
    <path d="M74.75 14.0 Q74.45 17.85 71.4 24.35 63.3 32.7 52.6 37.25 42.7 41.5 32.1 43.5 L30.4 43.8 26.85 44.3 30.2 43.5 Q35.95 42.1 41.15 40.3 65.0 32.0 65.0 20.1 65.0 17.1 62.65 15.35 60.05 13.45 54.25 12.55 L54.75 12.5 59.1 13.4 70.5 14.25 74.75 14.0" fill="#040925" fill-rule="evenodd" stroke="none"/>
  </g>
</svg>