<?xml version="1.0" encoding="UTF-8" standalone="no"?>
<svg xmlns:xlink="http://www.w3.org/1999/xlink" height="85px" width="49.15px" xmlns="http://www.w3.org/2000/svg">
  <g transform="matrix(1.0, 0.0, 0.0, 1.0, -3.4, 1)">
    <path d="M37.35 0.25 L40.05 4.25 Q42.3 7.9 43.8 11.7 L45.5 16.75 Q48.65 27.45 49.2 42.1 47.85 52.8 43.55 48.75 38.35 40.2 38.2 30.25 38.0 20.25 35.4 19.35 32.75 18.45 30.1 21.4 27.4 24.3 23.2 29.65 19.0 34.95 16.75 41.8 14.65 48.0 8.15 46.3 9.05 42.7 11.25 37.4 15.65 26.8 23.25 15.4 25.95 11.65 28.9 8.2 L32.5 4.25 Q35.6 1.05 37.35 0.25" fill="#ff6633" fill-rule="evenodd" stroke="none"/>
    <path d="M37.35 0.25 Q38.95 -0.5 39.4 0.85 L41.55 4.25 44.15 9.15 Q45.95 12.9 47.35 16.75 51.1 27.45 51.5 38.85 L51.55 41.5 51.4 53.4 51.0 57.0 48.8 56.25 49.1 52.4 Q49.4 47.15 49.2 42.1 48.65 27.45 45.5 16.75 L43.8 11.7 Q42.3 7.9 40.05 4.25 L37.35 0.25" fill="#7b0f09" fill-rule="evenodd" stroke="none"/>
    <path d="M49.2 42.1 Q49.4 47.15 49.1 52.4 L48.8 56.25 39.65 53.3 Q40.0 51.7 39.05 50.45 L38.5 49.85 Q32.1 43.15 34.7 33.25 35.8 29.15 32.8 26.15 23.95 33.6 20.0 45.85 L18.45 49.7 5.3 51.5 5.05 50.5 6.75 45.85 8.05 42.75 11.1 36.25 13.0 32.35 Q17.1 24.1 22.3 16.75 L23.25 15.4 Q15.65 26.8 11.25 37.4 9.05 42.7 8.15 46.3 14.65 48.0 16.75 41.8 19.0 34.95 23.2 29.65 27.4 24.3 30.1 21.4 32.75 18.45 35.4 19.35 38.0 20.25 38.2 30.25 38.35 40.2 43.55 48.75 47.85 52.8 49.2 42.1" fill="#e02116" fill-rule="evenodd" stroke="none"/>
    <path d="M9.8 62.4 L12.95 58.95 13.25 59.25 Q15.85 61.5 21.1 61.5 L29.1 59.8 29.55 58.55 Q31.55 52.75 31.55 49.85 L30.2 45.95 Q28.8 41.65 28.8 39.5 28.8 37.15 30.75 33.05 32.15 30.15 32.8 26.15 35.8 29.15 34.7 33.25 32.1 43.15 38.5 49.85 35.7 60.05 32.85 65.05 28.9 72.0 23.25 72.0 22.6 72.0 16.85 66.9 13.1 63.55 9.8 62.4" fill="#050e38" fill-rule="evenodd" stroke="none"/>
    <path d="M12.95 58.95 L14.9 56.8 Q16.8 54.2 17.9 51.3 L18.45 49.7 20.0 45.85 Q23.95 33.6 32.8 26.15 32.15 30.15 30.75 33.05 28.8 37.15 28.8 39.5 28.8 41.65 30.2 45.95 L31.55 49.85 Q31.55 52.75 29.55 58.55 L29.1 59.8 21.1 61.5 Q15.85 61.5 13.25 59.25 L12.95 58.95" fill="#0c1c5b" fill-rule="evenodd" stroke="none"/>
    <path d="M39.65 53.3 L38.55 57.55 Q35.7 67.4 30.75 76.25 29.45 78.6 27.85 80.6 23.7 83.0 18.15 83.0 10.7 83.0 6.85 77.0 5.6 75.05 4.9 72.8 4.4 71.25 4.4 70.75 4.4 68.45 5.15 66.45 6.95 64.4 9.35 62.85 L9.8 62.4 Q13.1 63.55 16.85 66.9 22.6 72.0 23.25 72.0 28.9 72.0 32.85 65.05 35.7 60.05 38.5 49.85 L39.05 50.45 Q40.0 51.7 39.65 53.3" fill="#040925" fill-rule="evenodd" stroke="none"/>
  </g>
</svg>