<?xml version="1.0" encoding="UTF-8" standalone="no"?>
<svg xmlns:xlink="http://www.w3.org/1999/xlink" height="13.55px" width="34.7px" xmlns="http://www.w3.org/2000/svg">
  <g transform="matrix(1.0, 0.0, 0.0, 1.0, 17.35, 7.9)">
    <path d="M3.2 -6.7 L4.1 -6.3 5.75 -5.55 Q8.4 -4.25 10.45 -2.85 11.95 -1.85 14.2 -1.7 L15.7 -1.9 16.25 -1.85 16.35 -1.75 Q14.5 0.05 12.95 0.7 L11.9 1.1 11.9 1.15 11.5 1.25 9.3 1.8 Q5.65 2.15 2.1 1.85 -2.65 1.5 -6.65 3.85 L-7.65 4.2 -10.65 4.65 -13.65 4.5 Q-16.35 3.75 -16.35 3.45 -16.35 3.1 -15.35 3.15 -14.15 3.15 -13.6 2.5 L-12.3 1.05 -11.2 -0.4 -9.95 -1.95 -6.8 -4.75 Q-3.75 -7.05 -1.15 -6.9 -0.25 -6.85 -0.05 -5.95 L-0.05 -4.6 1.0 -6.45 Q1.75 -7.2 3.2 -6.7 M3.15 -6.0 L2.75 -6.05 2.15 -6.05 1.8 -5.95 1.5 -5.85 0.9 -5.4 0.55 -4.65 0.25 -4.1 -0.3 -3.6 Q-0.65 -3.65 -0.9 -5.3 L-1.05 -6.1 Q-5.85 -4.9 -8.85 -1.65 -12.9 2.85 -14.2 3.6 L-14.3 3.65 -13.5 3.85 -13.4 3.85 -12.8 3.9 -12.75 3.9 -10.85 3.95 Q-8.6 3.9 -6.65 3.2 L-5.65 2.75 -6.65 1.3 -7.0 0.65 -7.95 -1.1 -8.35 -1.85 -8.3 -1.8 -8.2 -1.8 -7.7 -1.3 -6.65 0.1 -6.55 0.2 -6.4 0.4 Q-5.8 1.15 -5.45 2.2 L-5.4 2.65 -3.05 1.55 -3.4 -0.05 -3.65 -1.25 -4.0 -2.95 -4.15 -4.25 -4.2 -4.7 -4.05 -5.05 -3.8 -4.45 -3.65 -4.1 -2.85 -1.05 -2.65 -0.3 -2.6 0.0 -2.25 1.8 2.15 1.5 2.45 0.3 3.35 -1.8 4.1 -3.35 5.2 -5.15 4.1 -5.65 3.15 -6.0 M5.95 -4.65 L5.75 -4.8 5.2 -3.8 4.75 -2.85 4.75 -2.8 4.7 -2.75 3.35 0.35 2.85 1.55 6.5 1.85 6.7 0.5 6.95 0.0 8.95 -2.5 8.85 -1.95 7.55 0.35 7.5 0.55 7.1 1.9 9.3 1.4 11.45 0.85 11.4 0.4 Q11.4 -0.85 11.7 -1.3 10.3 -1.8 8.4 -3.0 L5.95 -4.65 M12.0 -1.2 L12.05 0.2 12.05 0.65 12.15 0.6 Q14.2 -0.1 15.15 -1.1 L15.15 -1.15 13.05 -1.05 12.0 -1.2 M-10.1 1.1 L-8.85 1.8 Q-8.0 2.5 -8.0 3.1 -8.0 3.45 -8.3 3.45 -8.6 3.45 -9.3 2.2 L-10.1 1.55 -10.4 1.3 -10.6 0.9 -10.35 1.0 -10.1 1.1 M-11.5 2.55 Q-10.05 2.95 -10.05 3.5 L-10.1 3.85 -10.25 3.9 Q-11.35 3.65 -11.95 3.05 L-12.3 2.5 -12.4 2.3 -11.5 2.55" fill="#a36a6a" fill-rule="evenodd" stroke="none"/>
    <path d="M3.15 -6.0 L4.1 -5.65 5.2 -5.15 4.1 -3.35 3.35 -1.8 2.45 0.3 2.15 1.5 -2.25 1.8 -2.6 0.0 -2.65 -0.3 -2.65 -0.75 -2.85 -3.6 -2.95 -4.75 -2.8 -4.85 -1.4 -5.1 -0.9 -5.3 Q-0.65 -3.65 -0.3 -3.6 L0.25 -4.1 0.25 -4.05 -0.2 -0.7 -0.15 -0.6 -0.1 -0.6 0.5 -2.75 1.0 -4.0 1.2 -4.5 1.9 -5.2 2.85 -5.7 3.15 -6.0 M-4.15 -4.25 L-4.0 -2.95 -3.65 -1.25 -3.4 -0.05 -3.05 1.55 -5.4 2.65 -5.45 2.2 Q-5.8 1.15 -6.4 0.4 L-6.8 -1.0 -7.0 -2.0 -6.75 -2.2 -5.05 -3.65 -4.15 -4.25 M-7.95 -1.1 L-7.0 0.65 -6.65 1.3 -5.65 2.75 -6.65 3.2 Q-8.6 3.9 -10.85 3.95 L-12.75 3.9 -12.4 3.5 -11.95 3.05 Q-11.35 3.65 -10.25 3.9 L-10.1 3.85 -10.05 3.5 Q-10.05 2.95 -11.5 2.55 L-11.25 2.1 -10.55 1.35 -10.4 1.3 -10.1 1.55 -9.3 2.2 Q-8.6 3.45 -8.3 3.45 -8.0 3.45 -8.0 3.1 -8.0 2.5 -8.85 1.8 L-10.1 1.1 -9.5 0.7 -8.3 -0.75 -7.95 -1.1 M4.7 -2.75 L4.15 -1.3 4.15 -0.85 4.2 -0.85 Q5.95 -3.9 5.95 -4.35 L5.95 -4.65 8.4 -3.0 Q10.3 -1.8 11.7 -1.3 11.4 -0.85 11.4 0.4 L11.45 0.85 9.3 1.4 7.1 1.9 7.5 0.55 7.55 0.35 8.85 -1.95 8.95 -2.5 6.95 0.0 6.7 0.5 6.5 1.85 2.85 1.55 3.35 0.35 4.7 -2.75 M12.0 -1.2 L13.05 -1.05 15.15 -1.15 15.15 -1.1 Q14.2 -0.1 12.15 0.6 L12.05 0.65 12.05 0.2 12.0 -1.2" fill="#cca9a9" fill-rule="evenodd" stroke="none"/>
    <path d="M0.25 -4.1 L0.55 -4.65 0.9 -5.4 1.5 -5.85 1.8 -5.95 2.15 -6.05 2.75 -6.05 3.15 -6.0 2.85 -5.7 1.9 -5.2 1.2 -4.5 1.0 -4.0 0.5 -2.75 -0.1 -0.6 -0.15 -0.6 -0.2 -0.7 0.25 -4.05 0.25 -4.1 M-2.65 -0.3 L-2.85 -1.05 -3.65 -4.1 -3.8 -4.45 -4.05 -5.05 -4.2 -4.7 -4.15 -4.25 -5.05 -3.65 -6.75 -2.2 -7.0 -2.0 -6.8 -1.0 -6.4 0.4 -6.55 0.2 -6.65 0.1 -7.7 -1.3 -8.2 -1.8 -8.3 -1.8 -8.35 -1.85 -7.95 -1.1 -8.3 -0.75 -9.5 0.7 -10.1 1.1 -10.35 1.0 -10.6 0.9 -10.4 1.3 -10.55 1.35 -11.25 2.1 -11.5 2.55 -12.4 2.3 -12.3 2.5 -11.95 3.05 -12.4 3.5 -12.75 3.9 -12.8 3.9 -13.4 3.85 -13.5 3.85 -14.3 3.65 -14.2 3.6 Q-12.9 2.85 -8.85 -1.65 -5.85 -4.9 -1.05 -6.1 L-0.9 -5.3 -1.4 -5.1 -2.8 -4.85 -2.95 -4.75 -2.85 -3.6 -2.65 -0.75 -2.65 -0.3 M5.95 -4.65 L5.95 -4.35 Q5.95 -3.9 4.2 -0.85 L4.15 -0.85 4.15 -1.3 4.7 -2.75 4.75 -2.8 4.75 -2.85 5.2 -3.8 5.75 -4.8 5.95 -4.65" fill="#f2eaea" fill-rule="evenodd" stroke="none"/>
  </g>
</svg>