<?xml version="1.0" encoding="UTF-8" standalone="no"?>
<svg xmlns:xlink="http://www.w3.org/1999/xlink" height="49px" width="47.3px" xmlns="http://www.w3.org/2000/svg">
  <g transform="matrix(1.0, 0.0, 0.0, 1.0, 1, -11.1)">
    <path d="M8.95 39.9 L8.7 37.05 8.05 34.05 Q7.35 32.0 5.65 29.85 L4.75 28.85 4.7 28.85 4.55 28.6 5.05 27.9 5.2 28.05 Q7.0 25.15 10.85 22.0 14.9 18.6 19.75 16.05 27.1 12.15 37.15 12.1 L44.65 12.7 44.7 12.7 45.3 12.9 Q43.8 13.75 43.0 14.45 41.05 15.6 39.65 16.85 34.3 21.35 34.3 27.75 34.3 28.75 34.7 29.7 L35.05 31.1 35.05 31.3 35.05 31.35 34.9 31.6 34.75 31.6 34.7 31.4 34.3 31.45 34.2 31.5 32.8 31.65 29.45 32.7 Q23.8 35.1 23.8 40.0 23.8 41.05 24.4 42.3 L25.25 44.2 25.25 44.25 25.45 44.9 22.45 45.95 Q20.65 46.45 19.75 46.85 L17.1 48.0 Q15.75 48.6 14.75 49.25 11.1 51.55 10.5 56.25 L10.35 56.35 10.25 56.25 10.15 56.05 10.15 55.65 Q10.15 53.7 11.05 52.2 11.95 50.65 14.4 48.6 15.35 47.8 20.35 45.85 22.6 45.0 23.95 44.7 L24.35 44.55 23.9 43.8 23.5 42.6 23.1 40.1 Q23.1 36.95 24.9 34.75 27.55 31.6 33.65 31.05 L34.25 31.0 34.4 31.0 34.25 30.65 34.2 30.55 Q33.6 29.2 33.6 27.6 33.6 20.9 39.05 16.25 40.85 14.8 43.25 13.4 L43.65 13.25 37.6 12.6 37.3 12.6 Q25.5 12.6 15.15 19.45 11.4 21.9 8.3 24.9 L5.3 28.15 5.55 28.35 5.8 28.65 Q7.65 30.6 8.7 33.75 L9.3 36.9 9.5 40.3 Q9.5 44.85 7.05 49.65 5.75 52.25 3.6 55.15 L3.35 55.5 3.1 55.8 2.6 56.45 2.1 57.05 0.45 59.0 0.4 59.0 0.35 58.9 0.25 58.8 4.95 51.55 8.0 45.8 Q8.7 44.15 8.7 43.2 L8.75 42.95 8.75 42.85 8.75 42.55 8.75 42.35 8.75 42.1 8.75 41.95 8.8 41.65 8.95 40.25 8.95 39.9" fill="#a36a6a" fill-rule="evenodd" stroke="none"/>
    <path d="M34.3 31.45 L34.3 31.6 34.2 31.5 34.3 31.45 M10.15 56.4 Q9.0 56.3 3.9 57.85 L0.45 59.0 2.1 57.05 2.6 56.45 3.1 55.8 3.1 55.85 3.15 55.85 4.15 56.05 Q6.3 56.05 7.2 53.0 L8.3 48.2 9.3 45.85 10.5 43.9 12.25 42.5 Q12.9 41.95 12.9 40.85 12.9 40.0 11.8 37.5 10.7 35.05 10.7 32.65 10.7 25.55 18.1 20.15 25.05 15.1 37.6 12.6 L43.65 13.25 43.25 13.4 38.1 14.05 32.4 14.85 Q30.7 15.2 27.8 17.25 24.2 19.75 24.2 21.9 24.2 23.65 25.8 25.15 26.85 26.05 29.3 27.4 31.75 28.75 34.2 30.55 L34.25 30.65 34.25 31.0 33.65 31.05 Q31.05 29.1 27.65 27.95 22.95 26.3 17.35 26.3 15.05 26.3 13.8 27.9 12.75 29.4 12.5 31.05 12.25 32.65 12.65 34.7 13.0 36.7 13.45 38.0 13.8 39.2 14.55 39.95 15.2 40.7 16.65 40.9 19.8 41.5 22.0 42.6 L23.9 43.8 24.35 44.55 23.95 44.7 23.35 44.3 Q20.4 42.7 18.1 42.7 14.15 42.7 11.8 44.45 9.0 46.65 9.0 51.25 9.0 52.95 9.3 54.1 9.5 55.25 10.15 56.4 M0.4 59.0 L0.0 59.1 0.35 58.9 0.4 59.0" fill="#e0cbcb" fill-rule="evenodd" stroke="none"/>
    <path d="M8.0 45.8 L8.75 42.95 8.7 43.2 Q8.7 44.15 8.0 45.8 M8.75 41.95 L8.95 39.9 8.95 40.25 8.8 41.65 8.75 41.95 M37.6 12.6 Q25.05 15.1 18.1 20.15 10.7 25.55 10.7 32.65 10.7 35.05 11.8 37.5 12.9 40.0 12.9 40.85 12.9 41.95 12.25 42.5 L10.5 43.9 9.3 45.85 8.3 48.2 7.2 53.0 Q6.3 56.05 4.15 56.05 L3.15 55.85 3.1 55.85 3.1 55.8 3.35 55.5 3.6 55.15 Q5.75 52.25 7.05 49.65 9.5 44.85 9.5 40.3 L9.3 36.9 8.7 33.75 Q7.65 30.6 5.8 28.65 L5.55 28.35 5.3 28.15 8.3 24.9 Q11.4 21.9 15.15 19.45 25.5 12.6 37.3 12.6 L37.6 12.6" fill="#f2eaea" fill-rule="evenodd" stroke="none"/>
    <path d="M34.3 31.6 L34.35 31.65 32.8 31.65 34.2 31.5 34.3 31.6 M10.25 56.25 L10.2 56.4 10.15 56.4 Q9.5 55.25 9.3 54.1 9.0 52.95 9.0 51.25 9.0 46.65 11.8 44.45 14.15 42.7 18.1 42.7 20.4 42.7 23.35 44.3 L23.95 44.7 Q22.6 45.0 20.35 45.85 15.35 47.8 14.4 48.6 11.95 50.65 11.05 52.2 10.15 53.7 10.15 55.65 L10.15 56.05 10.25 56.25 M34.2 30.55 Q31.75 28.75 29.3 27.4 26.85 26.05 25.8 25.15 24.2 23.65 24.2 21.9 24.2 19.75 27.8 17.25 30.7 15.2 32.4 14.85 L38.1 14.05 43.25 13.4 Q40.85 14.8 39.05 16.25 33.6 20.9 33.6 27.6 33.6 29.2 34.2 30.55 M33.65 31.05 Q27.55 31.6 24.9 34.75 23.1 36.95 23.1 40.1 L23.5 42.6 23.9 43.8 22.0 42.6 Q19.8 41.5 16.65 40.9 15.2 40.7 14.55 39.95 13.8 39.2 13.45 38.0 13.0 36.7 12.65 34.7 12.25 32.65 12.5 31.05 12.75 29.4 13.8 27.9 15.05 26.3 17.35 26.3 22.95 26.3 27.65 27.95 31.05 29.1 33.65 31.05" fill="#af7e7e" fill-rule="evenodd" stroke="none"/>
  </g>
</svg>