<?xml version="1.0" encoding="UTF-8" standalone="no"?>
<svg xmlns:xlink="http://www.w3.org/1999/xlink" height="33.8px" width="51.7px" xmlns="http://www.w3.org/2000/svg">
  <g transform="matrix(1.0, 0.0, 0.0, 1.0, 25.85, 16.9)">
    <path d="M-10.8 -9.1 L-9.8 -10.15 -10.1 -9.0 -10.65 -4.35 -9.85 -3.5 Q-9.35 -3.15 -8.75 -2.9 -6.25 -4.5 -4.2 -6.35 L-3.0 -7.15 Q-1.3 -8.05 0.45 -8.55 2.75 -9.3 5.15 -9.45 L9.9 -8.85 13.65 -8.45 17.55 -8.2 23.05 -7.6 23.45 -7.5 Q25.25 -5.75 24.75 -3.25 24.35 -1.05 22.65 0.7 L22.45 0.9 17.35 5.75 15.0 7.6 12.5 9.35 7.3 12.5 5.35 13.45 2.65 14.45 -0.65 15.35 -4.95 15.9 -8.65 15.3 -13.95 13.85 -15.85 13.35 Q-17.7 12.6 -19.3 11.45 -21.35 10.0 -22.85 7.9 -24.2 6.15 -24.65 3.9 L-24.8 1.0 -24.2 -3.2 -23.65 -5.7 -23.6 -5.3 -23.55 -5.4 -23.55 -5.45 Q-22.8 -8.25 -23.1 -5.2 L-23.15 -4.95 -23.4 -2.75 -23.5 -1.6 -23.6 -1.0 Q-23.8 0.8 -23.65 2.65 L-23.55 3.35 -23.45 3.85 -22.95 5.25 -21.45 7.95 -19.75 9.8 -17.45 11.35 Q-15.8 12.25 -14.25 12.8 L-11.7 13.4 -9.1 14.0 Q-6.8 14.85 -4.35 14.8 L-0.65 14.1 3.95 12.7 Q6.7 11.65 9.45 9.95 L12.8 7.95 14.2 6.95 15.3 6.1 15.85 5.55 17.35 4.25 Q18.95 3.3 20.15 1.75 L22.45 -0.7 Q23.4 -2.1 23.6 -3.85 23.9 -6.2 21.75 -6.6 L16.45 -7.4 13.65 -7.7 8.9 -8.05 4.75 -8.3 Q2.6 -8.3 0.5 -7.45 -1.75 -6.65 -3.75 -5.45 L-4.2 -5.1 -7.9 -2.25 -8.45 -1.95 -8.65 -1.85 Q-10.3 -2.0 -10.8 -2.7 L-11.0 -3.0 -11.6 -5.0 -11.6 -5.85 -11.5 -7.7 -11.5 -7.85 -11.55 -8.3 -11.25 -8.6 -10.8 -9.1" fill="#a36a6a" fill-rule="evenodd" stroke="none"/>
    <path d="M20.15 1.75 Q18.95 3.3 17.35 4.25 L15.85 5.55 15.3 6.1 15.1 5.75 Q15.1 5.45 15.4 5.3 L15.1 4.85 16.55 3.35 Q17.85 2.15 18.6 1.85 19.3 1.5 20.3 0.35 L21.15 -0.4 21.2 -0.4 20.95 0.15 20.4 1.0 Q20.2 1.3 20.15 1.75 M-23.55 3.35 L-23.65 2.65 Q-23.8 0.8 -23.6 -1.0 L-23.5 -1.6 -21.65 -2.4 Q-20.05 -3.25 -19.2 -3.25 -17.1 -3.25 -15.9 0.2 -15.05 2.6 -15.05 4.1 -15.05 4.45 -15.75 5.15 -16.6 6.05 -17.65 6.05 -19.3 6.05 -21.4 4.65 -22.85 3.65 -23.55 3.35" fill="#f2eaea" fill-rule="evenodd" stroke="none"/>
    <path d="M-10.8 -2.7 Q-10.3 -2.0 -8.65 -1.85 L-8.45 -1.95 -9.5 -0.45 Q-11.75 2.6 -11.75 6.25 L-11.45 8.5 Q-11.1 9.9 -10.4 10.35 L-10.55 10.25 -10.65 10.2 -10.75 10.15 Q-11.9 9.35 -12.65 9.1 L-13.3 8.95 -14.45 8.95 -14.95 9.0 -16.55 8.8 -16.55 8.45 -17.4 8.4 -19.4 7.4 -22.75 4.5 -23.45 3.85 -23.55 3.35 Q-22.85 3.65 -21.4 4.65 -19.3 6.05 -17.65 6.05 -16.6 6.05 -15.75 5.15 -15.05 4.45 -15.05 4.1 -15.05 2.6 -15.9 0.2 -17.1 -3.25 -19.2 -3.25 -20.05 -3.25 -21.65 -2.4 L-23.5 -1.6 -23.4 -2.75 -21.85 -3.8 Q-20.1 -5.05 -18.3 -5.05 -16.55 -5.05 -14.5 -3.85 -12.5 -2.65 -11.45 -2.65 L-10.8 -2.7 M17.05 0.5 L16.9 0.1 Q16.9 -0.4 18.8 -2.25 20.65 -4.05 20.65 -2.35 L19.7 -1.2 19.15 -0.85 17.35 0.3 17.05 0.5 M-9.95 10.55 L-9.65 10.55 Q-4.85 10.55 -1.6 7.5 0.85 4.4 1.55 4.4 2.4 4.4 2.5 5.2 2.5 6.2 0.8 7.8 L-1.4 8.7 -1.55 8.75 Q-6.85 10.9 -7.5 10.9 L-9.95 10.55" fill="#e0cbcb" fill-rule="evenodd" stroke="none"/>
    <path d="M-23.55 -5.45 L-23.6 -5.9 Q-23.6 -7.85 -22.45 -10.95 L-21.45 -13.25 Q-20.65 -14.5 -18.95 -15.2 L-14.05 -15.4 Q-12.65 -14.7 -12.0 -13.15 L-11.5 -11.55 -11.65 -11.25 -11.95 -10.15 -12.35 -7.9 -12.05 -6.2 -11.95 -6.25 -11.5 -7.7 -11.6 -5.85 -11.6 -5.0 -11.0 -3.0 -10.8 -2.7 -11.45 -2.65 Q-12.5 -2.65 -14.5 -3.85 -16.55 -5.05 -18.3 -5.05 -20.1 -5.05 -21.85 -3.8 L-23.4 -2.75 -23.15 -4.95 -23.1 -5.2 Q-22.8 -8.25 -23.55 -5.45 M-10.95 -9.75 L-10.8 -9.1 -11.25 -8.6 -10.95 -9.75 M15.3 6.1 L14.2 6.95 12.8 7.95 9.45 9.95 Q6.7 11.65 3.95 12.7 L-0.65 14.1 -4.35 14.8 Q-6.8 14.85 -9.1 14.0 L-11.7 13.4 -14.25 12.8 Q-15.8 12.25 -17.45 11.35 L-19.75 9.8 -21.45 7.95 -22.95 5.25 -23.45 3.85 -22.75 4.5 -19.4 7.4 -17.4 8.4 -16.55 8.45 -16.55 8.8 -14.95 9.0 -14.45 8.95 -13.3 8.95 -12.65 9.1 Q-11.9 9.35 -10.75 10.15 L-10.65 10.2 -10.55 10.25 -10.4 10.35 -9.95 10.55 -7.5 10.9 Q-6.85 10.9 -1.55 8.75 L-1.4 8.7 0.8 7.8 7.9 5.0 12.3 3.55 Q14.5 2.75 15.4 1.6 L17.05 0.5 17.35 0.3 19.15 -0.85 21.0 -1.8 21.7 -2.1 20.95 0.15 21.2 -0.4 21.15 -0.4 20.3 0.35 Q19.3 1.5 18.6 1.85 17.85 2.15 16.55 3.35 L15.1 4.85 15.4 5.3 Q15.1 5.45 15.1 5.75 L15.3 6.1" fill="#cca9a9" fill-rule="evenodd" stroke="none"/>
    <path d="M-8.45 -1.95 L-7.9 -2.25 -4.2 -5.1 -3.75 -5.45 Q-1.75 -6.65 0.5 -7.45 2.6 -8.3 4.75 -8.3 L8.9 -8.05 13.65 -7.7 16.45 -7.4 21.75 -6.6 Q23.9 -6.2 23.6 -3.85 23.4 -2.1 22.45 -0.7 L20.15 1.75 Q20.2 1.3 20.4 1.0 L20.95 0.15 21.7 -2.1 21.0 -1.8 19.15 -0.85 19.7 -1.2 20.65 -2.35 Q20.65 -4.05 18.8 -2.25 16.9 -0.4 16.9 0.1 L17.05 0.5 15.4 1.6 Q14.5 2.75 12.3 3.55 L7.9 5.0 0.8 7.8 Q2.5 6.2 2.5 5.2 2.4 4.4 1.55 4.4 0.85 4.4 -1.6 7.5 -4.85 10.55 -9.65 10.55 L-9.95 10.55 -10.4 10.35 Q-11.1 9.9 -11.45 8.5 L-11.75 6.25 Q-11.75 2.6 -9.5 -0.45 L-8.45 -1.95" fill="url(#gradient0)" fill-rule="evenodd" stroke="none"/>
    <path d="M-11.5 -11.55 L-11.4 -11.25 -11.25 -10.8 -11.2 -10.65 -11.05 -10.15 -10.95 -9.75 -11.25 -8.6 -11.55 -8.3 -11.5 -7.85 -11.5 -7.7 -11.95 -6.25 -12.05 -6.2 -12.35 -7.9 -11.95 -10.15 -11.65 -11.25 -11.5 -11.55" fill="url(#gradient1)" fill-rule="evenodd" stroke="none"/>
  </g>
  <defs>
    <radialGradient cx="0" cy="0" gradientTransform="matrix(0.0193, 0.0, 0.0, 0.0145, 5.5, -6.8)" gradientUnits="userSpaceOnUse" id="gradient0" r="819.2" spreadMethod="pad">
      <stop offset="0.0" stop-color="#ffffff"></stop>
      <stop offset="1.0" stop-color="#e0cbcb"></stop>
    </radialGradient>
    <radialGradient cx="0" cy="0" gradientTransform="matrix(0.0206, -0.0358, 0.0325, 0.0188, -2.4, -46.6)" gradientUnits="userSpaceOnUse" id="gradient1" r="819.2" spreadMethod="pad">
      <stop offset="0.47843137254901963" stop-color="#ffffff"></stop>
      <stop offset="0.8823529411764706" stop-color="#f2eaea"></stop>
    </radialGradient>
  </defs>
</svg>