<?xml version="1.0" encoding="UTF-8" standalone="no"?>
<svg xmlns:xlink="http://www.w3.org/1999/xlink" height="41.8px" width="61.7px" xmlns="http://www.w3.org/2000/svg">
  <g transform="matrix(1.0, 0.0, 0.0, 1.0, 30.85, 20.9)">
    <path d="M15.55 -1.1 L12.5 -0.65 8.2 -0.65 -11.2 -1.05 -15.95 -0.95 -26.8 0.25 -28.9 0.7 -28.9 0.6 -28.8 0.2 -28.75 0.1 -29.2 0.15 -29.85 0.2 Q-24.95 -1.05 -19.15 -1.85 -12.25 -2.45 -4.5 -2.0 L1.7 -1.8 8.2 -1.6 10.6 -1.55 14.25 -1.85 Q15.8 -2.15 17.2 -2.85 L16.55 -2.65 Q15.3 -3.7 14.4 -4.8 12.95 -6.55 12.55 -8.7 12.1 -11.2 12.75 -13.6 13.3 -15.8 14.9 -17.35 16.6 -18.9 18.75 -19.55 L23.0 -19.7 Q25.05 -19.1 26.5 -17.4 27.95 -15.65 28.75 -13.55 29.65 -11.25 29.8 -8.8 29.95 -6.75 29.6 -4.55 29.25 -2.25 28.1 -0.3 26.9 1.75 25.25 3.3 L21.65 6.1 Q19.75 7.35 17.7 8.1 L13.9 9.7 9.85 11.25 Q6.55 12.7 3.35 14.45 1.0 15.75 -1.1 17.4 L-2.35 18.3 -4.25 19.9 -4.85 19.75 Q-6.3 14.9 -9.35 10.75 -10.3 9.4 -11.7 8.7 L-10.45 8.65 -9.75 9.25 -8.55 10.4 -8.3 10.65 -8.05 10.9 -6.6 12.6 -5.95 13.5 -5.45 14.4 -5.4 14.55 -5.1 15.25 Q-4.25 17.2 -4.1 17.9 L-1.8 16.05 3.15 13.3 Q5.5 12.0 8.2 10.85 L12.3 9.1 Q14.45 8.1 16.45 7.25 18.9 6.3 21.2 4.95 24.15 3.2 26.1 0.4 27.45 -1.5 28.15 -3.6 29.15 -6.6 28.6 -9.7 L28.45 -10.55 28.45 -10.6 27.65 -13.65 27.65 -13.7 27.6 -13.9 26.95 -15.25 26.75 -15.55 26.55 -15.85 24.65 -17.75 Q23.05 -18.9 20.95 -18.75 L18.75 -18.6 Q17.5 -18.35 16.55 -17.6 14.05 -15.4 13.6 -12.0 L13.55 -10.55 13.7 -9.45 Q13.8 -8.6 14.15 -7.7 L14.15 -7.65 Q14.95 -5.55 16.75 -4.1 18.55 -2.65 21.2 -3.4 L21.85 -3.9 Q22.9 -5.0 23.2 -6.55 L23.3 -7.25 23.35 -7.65 23.3 -8.45 Q23.15 -9.8 22.35 -11.0 L21.4 -9.6 21.9 -8.35 22.15 -7.7 21.25 -8.1 20.6 -8.45 20.6 -8.6 20.55 -8.7 20.5 -9.2 20.7 -10.35 20.7 -10.4 20.75 -10.5 20.75 -10.55 20.85 -10.75 Q21.4 -11.75 22.65 -11.55 L23.35 -10.9 23.6 -10.6 24.1 -9.55 24.25 -9.0 24.3 -8.6 24.3 -8.55 24.3 -8.45 24.3 -8.0 Q24.35 -6.45 23.9 -5.2 23.35 -3.8 22.35 -3.1 21.05 -2.2 19.65 -2.05 L17.75 -2.2 17.4 -2.0 16.9 -1.65 16.9 -1.7 16.85 -1.65 15.55 -1.1" fill="#a36a6a" fill-rule="evenodd" stroke="none"/>
    <path d="M-28.9 0.7 L-26.8 0.25 -15.95 -0.95 -11.2 -1.05 8.2 -0.65 12.5 -0.65 15.55 -1.1 15.9 -0.75 Q15.9 0.3 11.05 2.85 L5.7 5.45 0.35 8.05 Q-4.15 10.0 -6.25 10.0 L-8.55 9.65 -9.7 9.25 -9.75 9.25 -10.45 8.65 -12.55 6.6 Q-14.15 5.3 -16.4 4.15 L-21.45 2.3 -27.25 1.45 Q-28.8 1.3 -28.9 0.7 M23.35 -10.9 L22.65 -11.55 Q21.4 -11.75 20.85 -10.75 L20.75 -10.55 Q18.05 -9.0 17.45 -9.0 16.25 -9.0 14.3 -10.1 L13.55 -10.55 13.6 -12.0 Q14.05 -15.4 16.55 -17.6 17.5 -18.35 18.75 -18.6 L20.95 -18.75 Q23.05 -18.9 24.65 -17.75 L26.55 -15.85 26.95 -14.8 26.95 -14.6 26.15 -12.35 25.1 -11.2 Q24.65 -10.75 24.25 -10.8 L23.35 -10.9 M19.25 -4.65 Q19.25 -5.25 20.15 -5.4 L21.45 -5.7 Q21.55 -5.3 21.0 -4.8 20.4 -4.3 19.7 -4.25 L19.25 -4.65 M27.15 -7.95 L27.35 -5.4 Q27.35 0.95 17.75 5.45 4.6 10.55 -2.55 14.75 L-2.7 14.75 Q-0.5 11.8 6.4 9.05 L17.4 4.65 Q22.6 1.95 25.15 -1.5 27.55 -4.75 27.05 -7.95 L27.15 -7.95" fill="#f2eaea" fill-rule="evenodd" stroke="none"/>
    <path d="M15.55 -1.1 L16.85 -1.65 16.9 -1.7 16.9 -1.65 17.4 -2.0 17.95 -1.45 Q19.4 -0.1 21.45 -0.1 20.3 0.75 19.05 1.15 12.55 3.3 3.5 8.4 -4.4 12.85 -4.95 12.85 L-6.85 12.25 -6.6 12.6 -8.05 10.9 -8.3 10.65 -8.55 10.4 -9.75 9.25 -9.7 9.25 -8.55 9.65 -6.25 10.0 Q-4.15 10.0 0.35 8.05 L5.7 5.45 11.05 2.85 Q15.9 0.3 15.9 -0.75 L15.55 -1.1 M24.3 -8.6 L24.25 -9.0 24.1 -9.55 23.6 -10.6 23.35 -10.9 24.25 -10.8 Q24.65 -10.75 25.1 -11.2 L26.15 -12.35 26.95 -14.6 26.95 -14.8 27.2 -14.05 27.2 -13.95 27.15 -13.35 26.75 -11.65 26.15 -10.0 Q25.9 -9.25 25.0 -8.95 L24.3 -8.6 M20.75 -10.55 L20.75 -10.5 20.7 -10.4 20.7 -10.35 20.5 -9.2 19.95 -8.65 Q19.1 -7.8 17.3 -7.8 14.85 -7.8 13.7 -9.45 L13.55 -10.55 14.3 -10.1 Q16.25 -9.0 17.45 -9.0 18.05 -9.0 20.75 -10.55 M21.9 -8.35 L21.4 -9.6 22.35 -11.0 Q23.15 -9.8 23.3 -8.45 L22.65 -8.25 21.9 -8.35" fill="#e0cbcb" fill-rule="evenodd" stroke="none"/>
    <path d="M17.4 -2.0 L17.75 -2.2 19.65 -2.05 Q21.05 -2.2 22.35 -3.1 23.35 -3.8 23.9 -5.2 24.35 -6.45 24.3 -8.0 L24.3 -8.45 24.3 -8.55 24.3 -8.6 25.0 -8.95 Q25.9 -9.25 26.15 -10.0 L26.75 -11.65 27.15 -13.35 27.2 -13.95 27.2 -14.05 26.95 -14.8 26.55 -15.85 26.75 -15.55 26.95 -15.25 27.6 -13.9 27.65 -13.7 27.65 -13.65 28.45 -10.6 28.45 -10.55 28.6 -9.7 Q29.15 -6.6 28.15 -3.6 27.45 -1.5 26.1 0.4 24.15 3.2 21.2 4.95 18.9 6.3 16.45 7.25 14.45 8.1 12.3 9.1 L8.2 10.85 Q5.5 12.0 3.15 13.3 L-1.8 16.05 -4.1 17.9 Q-4.25 17.2 -5.1 15.25 L-5.4 14.55 -5.45 14.4 -5.95 13.5 -6.6 12.6 -6.85 12.25 -4.95 12.85 Q-4.4 12.85 3.5 8.4 12.55 3.3 19.05 1.15 20.3 0.75 21.45 -0.1 19.4 -0.1 17.95 -1.45 L17.4 -2.0 M20.5 -9.2 L20.55 -8.7 20.6 -8.6 20.6 -8.45 21.25 -8.1 22.15 -7.7 21.9 -8.35 22.65 -8.25 23.3 -8.45 23.35 -7.65 23.3 -7.25 23.2 -6.55 Q22.9 -5.0 21.85 -3.9 L21.2 -3.4 Q18.55 -2.65 16.75 -4.1 14.95 -5.55 14.15 -7.65 L14.15 -7.7 Q13.8 -8.6 13.7 -9.45 14.85 -7.8 17.3 -7.8 19.1 -7.8 19.95 -8.65 L20.5 -9.2 M19.25 -4.65 L19.7 -4.25 Q20.4 -4.3 21.0 -4.8 21.55 -5.3 21.45 -5.7 L20.15 -5.4 Q19.25 -5.25 19.25 -4.65 M27.15 -7.95 L27.05 -7.95 Q27.55 -4.75 25.15 -1.5 22.6 1.95 17.4 4.65 L6.4 9.05 Q-0.5 11.8 -2.7 14.75 L-2.55 14.75 Q4.6 10.55 17.75 5.45 27.35 0.95 27.35 -5.4 L27.15 -7.95" fill="#cca9a9" fill-rule="evenodd" stroke="none"/>
  </g>
</svg>