<?xml version="1.0" encoding="UTF-8" standalone="no"?>
<svg xmlns:xlink="http://www.w3.org/1999/xlink" height="22.55px" width="18.05px" xmlns="http://www.w3.org/2000/svg">
  <g transform="matrix(1.0, 0.0, 0.0, 1.0, -17.75, 36)">
    <path d="M23.6 -32.35 L23.4 -32.75 Q23.4 -33.35 24.1 -33.15 24.75 -32.9 24.75 -32.35 24.75 -31.9 24.4 -31.9 23.9 -31.9 23.6 -32.35 M18.75 -34.4 Q18.75 -35.3 20.15 -34.8 21.3 -34.4 22.25 -33.65 L20.2 -33.95 18.75 -34.4 M34.45 -14.45 Q34.2 -14.45 34.1 -14.65 L34.05 -14.85 Q34.05 -15.1 34.35 -15.1 34.65 -15.1 34.8 -14.8 L34.45 -14.45" fill="#ffffff" fill-opacity="0.49803922" fill-rule="evenodd" stroke="none"/>
  </g>
</svg>