<?xml version="1.0" encoding="UTF-8" standalone="no"?>
<svg xmlns:xlink="http://www.w3.org/1999/xlink" height="52.5px" width="46.75px" xmlns="http://www.w3.org/2000/svg">
  <g transform="matrix(1.0, 0.0, 0.0, 1.0, 23.35, 26.25)">
    <path d="M-20.35 -14.25 Q-16.65 -19.35 -10.9 -22.05 -6.85 -23.9 -2.5 -24.65 L4.65 -25.2 Q9.35 -24.75 13.45 -22.2 17.9 -19.45 20.0 -14.8 22.1 -10.25 22.35 -5.15 22.55 -1.55 21.45 1.9 20.4 5.35 18.45 8.4 16.35 11.55 13.15 14.95 9.9 18.35 8.55 20.95 7.2 23.55 6.7 25.25 L6.75 24.9 6.75 24.75 6.85 24.1 6.9 23.7 Q7.8 17.85 12.45 13.65 L15.75 10.0 Q18.4 6.6 19.95 2.5 21.0 -0.35 21.25 -3.35 L21.3 -3.4 21.35 -4.55 21.3 -5.7 21.3 -6.0 Q21.15 -9.75 19.55 -13.4 L19.45 -13.65 19.35 -13.85 Q18.1 -16.4 16.3 -18.35 L15.45 -19.25 15.1 -19.6 Q12.25 -22.15 9.1 -23.15 5.95 -24.2 1.75 -24.15 -2.5 -24.15 -6.8 -22.55 -11.1 -21.0 -14.65 -18.55 L-19.8 -14.7 -20.35 -14.25" fill="#a36a6a" fill-rule="evenodd" stroke="none"/>
    <path d="M-11.4 16.45 L-12.65 15.7 -17.15 11.95 -17.55 11.45 Q-19.1 9.6 -19.8 7.3 L-20.05 6.65 -21.15 2.8 -21.5 1.25 -22.25 -4.0 -22.35 -5.9 -22.3 -8.4 -21.8 -10.9 -21.45 -12.15 -20.95 -13.45 -20.35 -14.25 -19.8 -14.7 -14.65 -18.55 Q-11.1 -21.0 -6.8 -22.55 -2.5 -24.15 1.75 -24.15 5.95 -24.2 9.1 -23.15 12.25 -22.15 15.1 -19.6 L15.45 -19.25 15.85 -18.45 Q18.0 -13.55 18.0 -9.7 18.0 -6.35 17.35 -4.25 L14.7 1.95 Q13.25 5.2 6.35 8.75 0.3 11.8 -0.05 13.0 L-1.2 13.4 -9.6 15.85 -11.4 16.45" fill="#f2eaea" fill-rule="evenodd" stroke="none"/>
    <path d="M-0.05 13.0 Q0.3 11.8 6.35 8.75 13.25 5.2 14.7 1.95 L17.35 -4.25 Q18.0 -6.35 18.0 -9.7 18.0 -13.55 15.85 -18.45 L15.45 -19.25 16.3 -18.35 Q18.1 -16.4 19.35 -13.85 L19.45 -13.65 19.55 -13.4 19.4 -13.65 19.55 -10.85 19.25 -6.1 Q18.85 -3.75 17.7 -1.1 16.8 1.25 14.75 4.3 11.9 8.65 9.9 8.65 8.1 8.65 8.05 9.55 L8.0 10.2 7.95 10.55 Q1.65 13.9 0.8 13.9 0.15 13.9 -0.05 13.55 L-0.1 13.15 -0.05 13.0" fill="#e0cbcb" fill-rule="evenodd" stroke="none"/>
    <path d="M6.75 24.9 L6.35 25.05 Q6.35 23.85 6.85 21.9 7.3 20.1 7.85 18.8 8.7 16.6 13.1 12.4 15.45 10.05 17.95 6.05 L19.15 2.95 20.1 -0.35 20.05 -0.7 18.45 2.4 16.9 5.5 14.8 8.7 12.1 11.7 Q9.1 14.15 7.2 17.75 5.4 21.2 5.4 24.15 L5.4 24.2 4.75 23.4 2.9 20.95 Q2.1 19.9 -0.25 19.45 L-0.55 19.4 -1.4 19.3 -2.25 19.25 -5.35 18.75 Q-7.75 18.4 -9.9 17.25 L-11.4 16.45 -9.6 15.85 -1.2 13.4 -0.05 13.0 -0.1 13.15 -0.05 13.55 Q0.15 13.9 0.8 13.9 1.65 13.9 7.95 10.55 L8.0 10.2 8.05 9.55 Q8.1 8.65 9.9 8.65 11.9 8.65 14.75 4.3 16.8 1.25 17.7 -1.1 18.85 -3.75 19.25 -6.1 L19.55 -10.85 19.4 -13.65 19.55 -13.4 Q21.15 -9.75 21.3 -6.0 L21.3 -5.7 21.35 -4.55 21.3 -3.4 21.25 -3.35 Q21.0 -0.35 19.95 2.5 18.4 6.6 15.75 10.0 L12.45 13.65 Q7.8 17.85 6.9 23.7 L6.85 24.1 6.75 24.75 6.75 24.9" fill="#cca9a9" fill-rule="evenodd" stroke="none"/>
    <path d="M6.35 25.05 L6.3 25.05 5.4 24.2 5.4 24.15 Q5.4 21.2 7.2 17.75 9.1 14.15 12.1 11.7 L14.8 8.7 16.9 5.5 18.45 2.4 20.05 -0.7 20.1 -0.35 19.15 2.95 17.95 6.05 Q15.45 10.05 13.1 12.4 8.7 16.6 7.85 18.8 7.3 20.1 6.85 21.9 6.35 23.85 6.35 25.05" fill="url(#gradient0)" fill-rule="evenodd" stroke="none"/>
  </g>
  <defs>
    <radialGradient cx="0" cy="0" gradientTransform="matrix(0.0206, -0.0358, 0.0325, 0.0188, -2.4, -46.6)" gradientUnits="userSpaceOnUse" id="gradient0" r="819.2" spreadMethod="pad">
      <stop offset="0.47843137254901963" stop-color="#ffffff"></stop>
      <stop offset="0.8823529411764706" stop-color="#f2eaea"></stop>
    </radialGradient>
  </defs>
</svg>