<?xml version="1.0" encoding="UTF-8" standalone="no"?>
<svg xmlns:xlink="http://www.w3.org/1999/xlink" height="30.55px" width="20.8px" xmlns="http://www.w3.org/2000/svg">
  <g transform="matrix(1.0, 0.0, 0.0, 1.0, 6.95, 16.45)">
    <path d="M0.5 -13.1 Q1.3 -11.3 2.75 -10.1 L3.0 -9.9 3.0 -9.95 Q2.7 -10.9 2.55 -11.8 L2.6 -12.55 2.7 -12.55 Q3.25 -11.15 4.3 -9.8 L5.0 -9.0 5.05 -8.95 4.85 -9.55 Q4.5 -10.85 4.3 -12.15 L4.5 -13.1 Q5.1 -11.3 6.15 -9.3 L6.45 -8.8 Q6.1 -10.1 6.0 -11.6 L6.05 -12.05 6.15 -12.05 Q7.3 -9.0 8.45 -7.8 L8.35 -8.1 7.95 -9.8 8.0 -11.15 8.1 -11.15 Q8.35 -8.7 11.25 -5.5 12.8 -3.55 12.8 0.1 12.95 2.0 12.35 2.0 12.0 2.0 11.35 -0.15 10.6 -2.6 10.25 -3.05 L7.45 -5.85 Q5.1 -7.65 3.5 -7.65 1.3 -7.65 -1.0 -5.25 L-3.35 -2.35 -3.45 -2.75 Q-3.45 -3.85 -3.0 -4.8 L-3.7 -4.7 Q-4.65 -4.7 -5.35 -5.4 L-5.95 -6.25 -5.15 -6.05 -4.05 -5.8 Q-3.6 -5.8 -2.55 -6.55 -3.5 -6.7 -3.85 -7.15 L-4.55 -8.2 -4.45 -8.4 Q-3.45 -7.65 -2.7 -7.65 L-1.6 -8.1 -2.2 -8.8 Q-2.8 -9.7 -2.8 -10.3 L-2.45 -11.3 Q-2.45 -10.5 -2.05 -9.9 -1.5 -9.1 -0.4 -9.0 L-0.75 -9.65 -1.25 -11.45 -1.15 -12.55 -1.05 -12.55 Q-0.7 -10.95 -0.25 -10.4 0.1 -9.9 1.2 -9.55 L1.55 -9.45 0.95 -10.45 Q0.45 -11.45 0.25 -12.6 0.25 -12.95 0.5 -13.1 M3.4 -9.65 L3.45 -9.6 3.75 -9.65 3.4 -9.65 M1.15 9.9 L0.7 9.55 0.1 9.8 -0.5 10.1 Q-0.8 10.3 -1.0 10.3 L-0.65 9.75 -0.2 9.2 0.15 9.05 -0.1 8.75 -0.2 8.75 -0.45 8.65 -1.85 8.9 -1.9 8.9 -0.75 7.95 -0.7 7.95 -1.0 7.6 1.0 8.7 Q2.6 9.6 4.1 9.6 L5.65 9.95 5.05 10.5 5.05 10.75 4.25 11.35 4.0 11.35 3.95 11.2 4.25 10.75 4.35 10.7 5.05 10.5 3.75 10.7 3.15 11.3 2.3 12.15 2.1 11.85 Q2.1 11.25 2.7 10.65 L1.4 10.05 1.75 10.3 1.3 10.5 0.6 11.2 0.6 10.9 Q0.6 10.35 1.15 9.9" fill="#000000" fill-opacity="0.49803922" fill-rule="evenodd" stroke="none"/>
    <path d="M6.15 -13.2 Q6.15 -12.0 6.9 -10.4 L7.55 -8.65 7.45 -8.25 Q7.25 -8.0 7.0 -8.0 5.9 -8.0 5.75 -12.1 5.75 -15.05 6.4 -15.1 L6.45 -14.9 6.4 -14.7 6.15 -13.2 M2.6 -14.3 Q2.6 -12.55 3.25 -11.0 L3.8 -9.7 4.2 -8.95 Q4.2 -8.4 3.75 -8.4 3.0 -8.4 2.55 -10.25 L2.15 -12.1 2.2 -12.7 2.15 -13.2 Q2.15 -14.8 2.7 -15.45 L2.7 -14.7 2.6 -14.3 M9.75 -7.9 Q9.85 -8.65 10.05 -8.8 L10.1 -8.2 Q10.1 -7.3 10.55 -6.3 L10.9 -5.35 Q10.9 -5.0 10.65 -5.0 10.1 -5.0 9.85 -6.05 L9.65 -7.05 9.75 -7.9 M0.3 -8.25 Q-0.1 -8.25 -0.65 -9.05 L-1.3 -10.3 -1.5 -11.3 -1.6 -12.45 -1.3 -14.15 -1.1 -12.75 -0.75 -11.45 -0.55 -10.8 -0.1 -10.1 Q0.8 -9.45 0.8 -8.85 0.8 -8.25 0.3 -8.25 M1.1 9.25 Q1.1 9.75 0.5 9.75 -0.3 9.8 -0.85 10.35 L-2.05 11.75 -2.1 11.35 Q-2.1 10.85 -1.35 9.95 -0.45 8.8 0.6 8.8 1.15 8.8 1.1 9.25 M2.7 12.15 L2.2 12.6 1.55 13.1 1.5 12.95 Q1.5 12.7 1.85 12.1 L2.3 11.45 3.3 10.7 Q4.25 10.2 4.25 10.95 L3.75 11.55 Q2.95 11.95 2.7 12.15 M-2.55 -7.85 Q-1.65 -7.45 -1.65 -7.05 -1.65 -6.55 -2.4 -6.55 L-3.65 -7.15 -4.8 -8.2 -5.45 -10.05 -5.35 -10.15 -4.85 -9.25 -3.9 -8.35 -2.55 -7.85" fill="#000000" fill-opacity="0.49803922" fill-rule="evenodd" stroke="none"/>
  </g>
</svg>