<?xml version="1.0" encoding="UTF-8" standalone="no"?>
<svg xmlns:xlink="http://www.w3.org/1999/xlink" height="26.1px" width="26.55px" xmlns="http://www.w3.org/2000/svg">
  <g transform="matrix(1.0, 0.0, 0.0, 1.0, 10.55, 12.95)">
    <path d="M5.7 -7.85 L5.8 -7.85 Q5.15 -8.55 5.15 -8.9 L5.4 -9.6 Q5.6 -8.85 6.25 -8.5 L7.65 -7.85 8.05 -7.85 8.0 -7.9 Q7.55 -8.55 7.55 -8.9 7.55 -9.5 7.9 -9.85 L8.25 -9.2 8.55 -8.5 9.3 -7.9 9.45 -7.75 10.1 -7.55 9.95 -7.75 Q9.45 -8.55 9.45 -9.0 L9.6 -9.25 11.35 -7.0 10.85 -7.25 12.4 -6.4 12.5 -6.35 12.45 -6.4 Q12.0 -7.15 12.0 -7.45 12.0 -8.0 12.25 -8.1 L12.4 -7.4 12.8 -6.75 13.9 -5.5 13.85 -5.45 Q15.0 -4.6 15.0 -4.05 L14.7 -3.85 Q14.5 -3.85 13.4 -4.65 L12.15 -5.55 9.2 -6.2 7.25 -6.4 Q2.85 -6.35 -0.95 -4.55 L-5.85 -1.7 -6.2 -1.7 -6.25 -1.85 -6.15 -2.0 -6.75 -1.95 Q-8.35 -1.95 -9.1 -2.85 -9.55 -3.4 -9.55 -4.05 L-9.5 -4.2 -9.45 -4.2 -9.0 -3.3 Q-8.6 -2.7 -7.55 -2.7 L-6.4 -2.95 -7.1 -3.5 -8.0 -4.8 -7.95 -4.9 -6.3 -3.85 -5.4 -3.65 -5.85 -3.75 -6.4 -5.45 -6.1 -6.05 -5.3 -4.7 Q-5.0 -4.25 -4.25 -4.15 L-3.85 -4.0 -4.8 -4.7 -5.25 -5.55 -5.05 -5.9 -4.6 -5.4 Q-4.35 -5.15 -3.85 -5.05 L-2.85 -4.8 -2.6 -5.0 -3.75 -5.7 Q-4.25 -6.25 -4.25 -6.75 L-4.1 -7.1 -3.4 -6.25 Q-2.75 -5.75 -1.95 -5.7 L-1.65 -5.7 -1.0 -6.05 Q-1.85 -6.25 -2.3 -6.8 L-2.65 -7.75 -2.45 -8.1 Q-2.1 -7.3 -0.5 -7.1 L0.75 -6.8 1.75 -7.1 1.05 -6.9 0.45 -7.3 Q-0.15 -7.8 -0.15 -8.3 L0.1 -8.85 Q0.45 -8.0 1.05 -7.7 1.6 -7.4 2.45 -7.3 L2.5 -7.3 3.35 -7.45 3.0 -7.8 Q2.4 -8.5 2.4 -8.95 L2.65 -9.45 Q3.35 -8.55 4.0 -8.25 L5.25 -7.8 5.7 -7.85 M10.75 6.5 L10.05 7.5 9.75 7.3 9.75 7.15 Q9.75 6.6 10.5 5.85 11.2 5.1 11.2 5.5 L10.75 6.5 M11.85 3.45 L13.65 2.3 Q12.85 3.7 10.85 5.2 L9.75 5.95 8.9 7.25 8.5 8.15 8.15 8.75 7.9 8.35 7.8 7.95 Q7.8 7.5 8.3 6.8 L6.7 7.45 7.3 7.25 7.25 7.25 Q6.4 8.2 6.25 9.3 L6.2 9.35 Q5.85 9.25 5.85 8.8 L6.0 8.0 5.9 8.05 Q5.1 8.65 5.05 8.75 L4.35 9.35 Q3.95 9.85 4.1 10.25 L3.95 10.3 3.7 9.65 Q3.7 9.0 4.15 8.4 L4.0 8.4 3.4 8.6 Q2.6 9.3 2.2 10.65 L2.05 10.7 1.95 10.15 2.0 9.7 2.2 8.8 1.65 8.9 1.55 8.95 Q0.85 9.55 0.2 11.1 L0.1 11.15 -0.1 10.6 0.45 9.1 0.55 9.0 0.25 9.0 -0.45 9.1 -1.1 9.7 -1.5 10.3 -1.8 11.0 -2.1 10.65 -1.55 9.45 -2.55 10.0 -3.2 10.45 -3.5 10.75 -3.75 10.45 Q-3.75 10.1 -3.05 9.55 L-3.0 9.55 -3.0 9.7 -3.1 9.3 Q-2.2 8.5 -1.45 8.3 L1.9 7.6 4.7 6.95 7.2 6.05 9.75 4.9 11.85 3.45" fill="#000000" fill-opacity="0.49803922" fill-rule="evenodd" stroke="none"/>
    <path d="M6.9 -8.3 L7.65 -7.55 Q7.65 -7.0 6.95 -7.0 5.95 -7.0 5.2 -8.85 4.65 -10.25 4.65 -11.0 L4.65 -11.45 5.05 -11.95 Q5.3 -10.35 5.65 -9.7 6.0 -9.0 6.9 -8.3 M9.3 -10.75 L9.7 -9.95 10.05 -9.1 11.6 -7.35 Q11.6 -6.95 11.15 -6.95 10.1 -6.95 9.45 -8.45 9.1 -9.15 9.0 -9.95 L9.3 -10.75 M1.9 -6.65 Q0.6 -6.65 -0.15 -8.0 -0.65 -8.9 -0.65 -9.55 L-0.75 -9.75 -0.45 -10.8 0.45 -8.75 Q0.8 -8.15 1.4 -7.95 L2.3 -7.6 2.55 -7.15 Q2.55 -6.65 1.9 -6.65 M2.6 9.85 L2.5 11.5 2.4 11.95 2.3 12.0 2.05 11.0 1.9 10.1 Q1.9 8.95 2.7 8.25 3.45 7.55 3.45 8.15 L2.6 9.85 M6.45 8.85 Q6.15 9.35 6.1 10.9 L6.0 10.95 Q5.8 10.75 5.8 9.7 L5.85 9.25 Q5.85 8.55 6.7 7.2 7.55 5.85 7.55 6.75 7.55 7.2 6.45 8.85 M-4.0 -6.85 Q-3.95 -6.7 -2.85 -6.1 -1.8 -5.5 -1.8 -5.35 -1.8 -5.0 -2.2 -5.0 -3.3 -5.0 -4.15 -6.0 -4.9 -6.85 -4.9 -7.5 L-4.8 -8.2 -4.3 -7.75 -4.0 -6.85 M-6.2 -6.8 L-5.9 -5.7 -4.9 -4.55 -4.05 -3.65 Q-4.05 -3.1 -4.75 -3.1 -5.7 -3.1 -6.5 -4.5 -7.1 -5.6 -7.1 -6.15 -7.1 -6.85 -6.55 -7.75 L-6.2 -6.8 M-0.1 9.05 L-1.5 10.65 -1.85 11.4 -2.3 12.15 -2.35 12.15 -2.4 11.95 -2.35 11.45 Q-1.75 8.7 -0.55 8.7 -0.1 8.7 -0.1 9.05" fill="#000000" fill-opacity="0.49803922" fill-rule="evenodd" stroke="none"/>
  </g>
</svg>