<?xml version="1.0" encoding="UTF-8" standalone="no"?>
<svg xmlns:xlink="http://www.w3.org/1999/xlink" height="25.4px" width="15.55px" xmlns="http://www.w3.org/2000/svg">
  <g transform="matrix(1.0, 0.0, 0.0, 1.0, 7.75, 12.7)">
    <path d="M6.8 -9.45 Q6.8 -8.75 6.25 -8.75 L5.65 -9.25 5.15 -9.8 4.35 -10.35 2.45 -10.6 1.55 -10.35 0.6 -10.05 -0.75 -9.4 0.15 -10.75 Q1.2 -11.55 3.65 -11.7 4.65 -11.75 5.75 -10.85 6.8 -10.05 6.8 -9.45 M-5.8 8.3 L-5.2 9.65 -4.7 10.25 -3.6 10.9 -3.45 10.9 -3.3 10.9 Q-1.05 10.9 -0.8 7.9 -0.8 6.7 -2.15 6.4 L-2.2 6.85 -2.65 7.15 Q-3.1 7.15 -3.25 6.0 L-3.3 4.85 -3.1 3.3 Q-2.75 2.5 -1.4 1.65 L3.2 -1.35 3.45 -1.05 3.45 -1.0 Q3.4 -0.35 2.5 0.3 L0.45 1.55 Q-2.35 3.25 -2.4 4.3 L-2.4 5.4 Q0.2 5.75 0.25 7.4 0.25 9.0 -0.45 10.3 -1.15 11.6 -3.0 11.7 -4.85 11.7 -5.85 10.15 -6.85 8.55 -6.75 7.05 -6.65 5.55 -6.35 4.8 L-5.1 2.3 -3.65 0.0 -3.05 -0.7 -3.0 -1.4 -2.6 -2.85 Q-2.2 -3.65 -1.2 -4.2 L-1.1 -4.2 -0.95 -4.2 -0.9 -4.05 -1.2 -3.3 -1.4 -2.85 Q-1.95 -1.55 -1.95 -0.7 -1.95 0.0 -2.1 0.15 L-3.25 1.3 -4.65 3.25 -5.5 4.8 -5.75 5.55 -5.95 6.8 -5.95 6.95 -5.95 7.05 -5.95 7.1 -5.85 8.1 -5.8 8.3" fill="#a36a6a" fill-rule="evenodd" stroke="none"/>
    <path d="M3.45 -1.0 L3.45 -1.05 3.2 -1.35 -1.4 1.65 Q-2.75 2.5 -3.1 3.3 L-3.3 4.85 -3.25 6.0 Q-3.1 7.15 -2.65 7.15 L-2.2 6.85 -2.15 6.4 Q-0.8 6.7 -0.8 7.9 -1.05 10.9 -3.3 10.9 L-3.45 10.9 -3.6 10.9 -4.7 10.25 -5.2 9.65 -5.8 8.3 -5.65 8.25 -5.1 8.0 Q-3.8 7.6 -4.05 6.05 L-4.1 5.05 -4.05 4.8 Q-3.95 3.6 -3.15 2.75 L0.15 -0.7 Q0.75 -1.4 2.9 -2.4 L3.35 -2.6 3.5 -1.7 3.5 -1.1 3.45 -1.0" fill="#cca9a9" fill-rule="evenodd" stroke="none"/>
    <path d="M3.4 -6.5 Q2.9 -5.85 1.95 -5.85 -0.55 -5.85 -0.55 -7.3 L-0.05 -8.45 Q0.6 -9.3 1.75 -9.3 2.7 -9.3 3.3 -8.6 L3.75 -7.55 Q3.75 -6.95 3.4 -6.5 M3.35 -2.6 L2.9 -2.4 Q0.75 -1.4 0.15 -0.7 L-3.15 2.75 Q-3.95 3.6 -4.05 4.8 L-4.5 4.45 Q-5.05 4.45 -5.5 4.8 L-4.65 3.25 -3.25 1.3 -2.1 0.15 Q-1.95 0.0 -1.95 -0.7 -1.95 -1.55 -1.4 -2.85 L-1.2 -3.3 -0.9 -4.05 -0.95 -4.2 -1.1 -4.2 -0.95 -4.35 -0.45 -4.65 -0.1 -4.75 0.4 -4.75 Q2.0 -4.75 2.9 -3.4 L3.35 -2.6 M-5.65 8.25 L-5.8 8.3 -5.85 8.1 -5.65 8.25" fill="#f2eaea" fill-rule="evenodd" stroke="none"/>
    <path d="M-4.05 4.8 L-4.1 5.05 -4.05 6.05 Q-3.8 7.6 -5.1 8.0 L-5.65 8.25 -5.85 8.1 -5.95 7.1 -5.95 7.05 -5.95 6.95 -5.95 6.8 -5.75 5.55 -5.5 4.8 Q-5.05 4.45 -4.5 4.45 L-4.05 4.8" fill="#e0cbcb" fill-rule="evenodd" stroke="none"/>
  </g>
</svg>