<?xml version="1.0" encoding="UTF-8" standalone="no"?>
<svg xmlns:xlink="http://www.w3.org/1999/xlink" height="15.7px" width="23.75px" xmlns="http://www.w3.org/2000/svg">
  <g transform="matrix(1.0, 0.0, 0.0, 1.0, 8.7, 5.95)">
    <path d="M11.9 -3.95 Q14.05 -2.35 14.05 0.45 14.05 4.35 11.0 5.7 L8.55 6.75 5.95 7.55 2.9 8.15 1.75 8.4 -2.9 8.7 -4.0 8.4 -5.95 7.4 Q-7.7 6.25 -7.7 5.55 -7.7 4.85 -5.85 3.05 L-3.55 0.95 Q-1.4 -1.2 3.0 -3.35 8.85 -6.2 11.9 -3.95 M8.1 -0.6 Q7.2 -1.4 6.2 -1.4 1.8 -1.4 -1.8 1.45 -6.1 4.8 -6.1 5.3 -6.1 5.9 -5.2 6.55 -4.2 7.25 -2.7 7.45 L-0.35 7.4 Q3.7 7.1 6.5 5.5 9.05 4.0 9.05 2.5 L8.9 0.45 8.1 -0.6" fill="#c7c9da" fill-rule="evenodd" stroke="none"/>
    <path d="M8.1 -0.6 L8.9 0.45 9.05 2.5 Q9.05 4.0 6.5 5.5 3.7 7.1 -0.35 7.4 L-2.7 7.45 Q-4.2 7.25 -5.2 6.55 -6.1 5.9 -6.1 5.3 -6.1 4.8 -1.8 1.45 1.8 -1.4 6.2 -1.4 7.2 -1.4 8.1 -0.6" fill="#ffffff" fill-rule="evenodd" stroke="none"/>
  </g>
</svg>