<?xml version="1.0" encoding="UTF-8" standalone="no"?>
<svg xmlns:xlink="http://www.w3.org/1999/xlink" height="21.9px" width="10.8px" xmlns="http://www.w3.org/2000/svg">
  <g transform="matrix(1.0, 0.0, 0.0, 1.0, 3.75, 14.3)">
    <path d="M2.5 -2.05 Q4.0 -2.05 4.0 0.35 4.0 1.0 3.6 1.5 3.1 2.05 2.2 2.05 1.25 2.05 0.7 1.3 L0.3 0.3 Q0.3 -0.4 0.7 -1.05 1.3 -2.05 2.5 -2.05 M-0.85 5.45 L-1.25 6.15 -2.1 6.6 Q-2.7 6.6 -2.75 5.45 -2.75 4.6 -1.85 4.6 -0.9 4.6 -0.85 5.45" fill="#ffffff" fill-rule="evenodd" stroke="none"/>
    <path d="M4.55 -12.65 Q4.55 -12.0 3.35 -12.0 L2.75 -12.2 2.7 -12.55 2.75 -12.95 3.4 -13.3 3.7 -13.3 Q4.55 -13.3 4.55 -12.65 M2.45 -12.6 Q2.45 -12.1 1.9 -12.1 1.5 -12.1 1.3 -12.4 1.15 -12.6 1.15 -12.75 1.15 -13.3 1.9 -13.3 2.45 -13.3 2.45 -12.6 M5.6 -11.65 Q5.15 -11.65 5.15 -12.1 5.15 -12.55 5.6 -12.5 L6.05 -12.1 Q6.05 -11.65 5.6 -11.65 M-0.65 -11.9 Q-0.65 -12.15 -0.25 -12.2 L0.1 -11.95 Q0.1 -11.7 -0.35 -11.7 L-0.65 -11.9 M-1.5 -11.65 L-1.8 -11.95 -1.5 -12.2 -1.2 -11.95 Q-1.2 -11.65 -1.5 -11.65" fill="#ffffff" fill-opacity="0.9019608" fill-rule="evenodd" stroke="none"/>
  </g>
</svg>