<?xml version="1.0" encoding="UTF-8" standalone="no"?>
<svg xmlns:xlink="http://www.w3.org/1999/xlink" height="12.3px" width="29.7px" xmlns="http://www.w3.org/2000/svg">
  <g transform="matrix(1.0, 0.0, 0.0, 1.0, 14.85, 6.15)">
    <path d="M-12.3 1.8 L-13.85 0.35 -13.4 -0.6 -12.9 -0.95 -10.25 -1.3 -8.85 -1.55 -6.7 -2.15 -2.15 -2.6 2.8 -3.65 5.0 -4.1 4.65 -4.0 4.55 -3.7 Q4.55 -2.5 -0.9 -1.3 L-6.65 -0.2 -8.65 0.25 -11.55 1.55 -12.3 1.8" fill="#f2eaea" fill-rule="evenodd" stroke="none"/>
    <path d="M-12.3 1.8 L-11.55 1.55 -8.65 0.25 -6.65 -0.2 -0.9 -1.3 Q4.55 -2.5 4.55 -3.7 L4.65 -4.0 5.0 -4.1 8.65 -4.65 8.7 -4.65 9.05 -4.65 9.25 -4.65 Q7.6 -4.25 7.6 -3.9 7.6 -3.5 8.9 -3.0 6.55 -1.4 0.2 0.15 L-8.85 1.7 -12.15 2.5 -12.3 1.8" fill="#e0cbcb" fill-rule="evenodd" stroke="none"/>
    <path d="M9.25 -4.65 L10.05 -4.6 9.15 -3.7 9.15 -3.65 9.2 -3.5 9.65 -3.35 9.9 -3.2 10.25 -3.3 11.25 -3.9 11.35 -3.25 Q10.65 -1.5 9.15 -0.45 6.9 1.2 4.2 1.7 L-2.55 2.9 -7.2 3.55 -10.95 3.9 -10.95 3.95 -11.9 4.0 -12.25 4.05 -12.25 3.5 -12.15 2.5 -8.85 1.7 0.2 0.15 Q6.55 -1.4 8.9 -3.0 7.6 -3.5 7.6 -3.9 7.6 -4.25 9.25 -4.65" fill="#cca9a9" fill-rule="evenodd" stroke="none"/>
    <path d="M10.05 -4.6 Q11.6 -5.75 13.6 -4.4 L13.85 -4.2 11.85 -4.2 Q12.0 -1.85 10.45 -0.2 9.2 1.05 7.5 1.75 L5.75 2.35 4.8 2.65 0.3 3.6 -4.95 4.45 -12.0 5.15 -12.6 4.05 -12.25 4.05 -11.9 4.0 -10.95 3.95 -10.95 3.9 -7.2 3.55 -2.55 2.9 4.2 1.7 Q6.9 1.2 9.15 -0.45 10.65 -1.5 11.35 -3.25 L11.25 -3.9 10.25 -3.3 9.9 -3.2 9.65 -3.35 9.2 -3.5 9.15 -3.65 9.15 -3.7 10.05 -4.6" fill="#a36a6a" fill-rule="evenodd" stroke="none"/>
  </g>
</svg>