<?xml version="1.0" encoding="UTF-8" standalone="no"?>
<svg xmlns:xlink="http://www.w3.org/1999/xlink" height="9.05px" width="28.9px" xmlns="http://www.w3.org/2000/svg">
  <g transform="matrix(1.0, 0.0, 0.0, 1.0, 16, 2.55)">
    <path d="M8.65 -1.15 Q8.7 -1.55 9.25 -1.55 10.55 -1.55 10.95 -0.5 L11.15 0.35 11.15 0.7 11.15 1.15 Q11.05 1.45 10.65 1.45 10.1 1.45 9.9 0.8 L9.8 0.1 9.1 -0.45 8.75 -0.7 8.6 -0.9 8.6 -1.0 8.65 -1.15" fill="#f2eaea" fill-rule="evenodd" stroke="none"/>
    <path d="M-0.85 3.45 L0.8 3.05 1.55 2.8 1.85 2.75 4.7 2.2 6.35 2.2 6.9 2.35 7.7 2.5 Q8.7 2.5 9.35 1.85 L9.8 0.85 Q9.8 0.0 8.5 -0.45 L7.15 -0.75 5.3 -0.9 4.05 -0.8 4.45 -1.0 7.5 -1.2 8.65 -1.15 8.6 -1.0 8.6 -0.9 8.75 -0.7 9.1 -0.45 9.8 0.1 9.9 0.8 Q10.1 1.45 10.65 1.45 11.05 1.45 11.15 1.15 L11.15 0.7 11.15 0.35 10.95 -0.5 11.3 -0.3 Q11.9 0.15 11.9 1.0 L11.8 1.55 11.8 1.3 Q11.8 0.8 11.6 0.95 L11.35 1.45 11.0 2.45 Q10.35 3.7 8.15 3.75 L8.05 3.75 6.75 3.65 6.5 3.7 Q6.15 3.75 6.15 4.05 L6.15 4.1 4.5 3.75 3.6 3.55 0.55 3.4 -0.85 3.45" fill="#e0cbcb" fill-rule="evenodd" stroke="none"/>
    <path d="M-3.1 3.8 L-1.8 3.35 2.2 1.95 2.25 1.95 2.75 1.75 3.9 1.0 Q4.9 0.45 6.5 0.45 L7.1 0.5 7.3 0.65 Q6.65 0.95 6.65 1.4 L6.65 1.6 Q6.7 1.8 7.05 1.8 L7.7 1.7 8.1 1.5 8.45 0.85 8.35 0.3 Q8.0 -0.6 6.55 -0.6 L5.2 -0.55 4.7 -0.45 3.8 -0.15 1.85 0.9 -2.3 2.4 -7.6 3.9 -9.25 4.25 -10.75 4.55 -13.55 4.7 -14.9 4.6 -14.95 4.35 -14.75 2.85 -14.6 2.5 Q-14.45 2.25 -14.15 2.3 L-11.3 2.3 -4.8 1.1 -1.45 0.55 0.8 0.0 4.05 -0.8 5.3 -0.9 7.15 -0.75 8.5 -0.45 Q9.8 0.0 9.8 0.85 L9.35 1.85 Q8.7 2.5 7.7 2.5 L6.9 2.35 6.35 2.2 4.7 2.2 1.85 2.75 1.55 2.8 0.8 3.05 -0.85 3.45 -3.1 3.8" fill="#cca9a9" fill-rule="evenodd" stroke="none"/>
    <path d="M-14.9 4.6 L-13.55 4.7 -10.75 4.55 -9.25 4.25 -7.6 3.9 -2.3 2.4 1.85 0.9 3.8 -0.15 4.7 -0.45 5.2 -0.55 6.55 -0.6 Q8.0 -0.6 8.35 0.3 L8.45 0.85 8.1 1.5 7.7 1.7 7.05 1.8 Q6.7 1.8 6.65 1.6 L6.65 1.4 Q6.65 0.95 7.3 0.65 L7.1 0.5 6.5 0.45 Q4.9 0.45 3.9 1.0 L2.75 1.75 2.25 1.95 2.2 1.95 -1.8 3.35 -3.1 3.8 Q-6.9 5.0 -11.3 5.5 L-12.75 5.5 -14.8 5.45 -15.0 5.35 -14.9 4.95 -14.9 4.9 -14.9 4.6 M11.8 1.55 Q11.65 4.65 7.7 4.65 L6.6 4.45 6.15 4.05 Q6.15 3.75 6.5 3.7 L6.75 3.65 8.05 3.75 8.15 3.75 Q10.35 3.7 11.0 2.45 L11.35 1.45 11.6 0.95 Q11.8 0.8 11.8 1.3 L11.8 1.55" fill="#a36a6a" fill-rule="evenodd" stroke="none"/>
  </g>
</svg>