<?xml version="1.0" encoding="UTF-8" standalone="no"?>
<svg xmlns:xlink="http://www.w3.org/1999/xlink" height="33.5px" width="35.3px" xmlns="http://www.w3.org/2000/svg">
  <g transform="matrix(1.0, 0.0, 0.0, 1.0, 27.95, 20.4)">
    <path d="M5.95 9.9 Q7.05 10.2 5.0 10.85 L-13.85 12.0 -17.3 12.1 Q-20.65 11.8 -23.1 9.7 -24.65 8.25 -25.55 6.15 -26.95 3.1 -26.95 0.2 L-26.45 -2.8 -26.65 -3.4 -26.9 -4.0 -26.75 -5.25 Q-26.3 -6.95 -24.6 -7.8 L-23.15 -8.15 -23.15 -8.1 -23.05 -8.2 -23.1 -8.4 Q-23.1 -9.8 -22.0 -10.6 L-21.75 -10.8 Q-20.4 -11.8 -17.75 -11.85 L-16.05 -11.7 -16.1 -11.7 -12.6 -13.3 Q-10.25 -14.35 -9.0 -15.3 -7.95 -16.05 -4.35 -19.35 L-4.3 -19.2 -4.45 -18.5 -4.8 -17.9 -4.9 -17.75 Q-5.8 -16.5 -8.0 -14.8 -10.85 -12.6 -13.35 -11.9 L-13.25 -11.95 -13.55 -11.8 Q-13.95 -11.55 -14.35 -11.45 L-12.1 -10.75 -9.8 -9.35 Q-9.85 -9.25 -10.0 -9.25 -10.15 -9.25 -11.95 -10.15 -14.1 -11.1 -16.15 -11.1 L-19.55 -10.7 -21.3 -10.2 -20.95 -10.3 Q-21.5 -10.1 -21.7 -9.75 L-22.05 -8.8 -22.15 -8.55 -20.55 -8.95 -16.75 -8.95 Q-14.75 -8.75 -13.75 -8.2 L-12.2 -7.15 -12.3 -7.05 Q-13.0 -7.25 -14.05 -7.8 L-16.75 -8.25 -20.6 -8.2 -21.75 -7.95 -22.2 -7.8 -21.7 -7.3 -21.35 -6.8 -21.4 -6.8 -21.25 -6.55 -21.35 -6.45 -21.75 -6.7 -22.05 -6.95 -22.1 -7.0 -23.1 -7.3 -23.25 -7.3 Q-24.8 -7.3 -25.6 -5.9 L-26.05 -4.45 -25.7 -3.65 Q-25.35 -3.05 -25.35 -2.75 -25.95 -1.15 -25.95 0.2 -25.95 1.15 -25.35 3.3 L-24.9 4.75 -24.75 5.2 Q-24.15 7.25 -22.55 8.6 -20.95 10.05 -18.9 10.85 L-16.2 11.2 -13.85 11.15 5.0 9.75 5.95 9.9 M-10.7 -5.3 L-10.25 -5.8 Q-9.55 -6.3 -8.75 -6.3 -7.05 -6.3 -6.1 -5.2 L-6.7 -6.75 Q-7.3 -7.75 -7.95 -8.25 L-7.95 -8.35 Q-6.65 -8.1 -5.85 -6.9 -5.2 -5.9 -5.2 -5.0 L-5.4 -4.4 -5.5 -4.25 Q-5.15 -3.4 -5.15 -2.4 -5.15 -1.4 -5.6 -0.6 -6.15 0.4 -7.25 0.65 L-7.65 0.7 -8.0 0.7 Q-8.95 0.7 -8.9 0.05 L-8.6 -0.25 -8.3 -0.15 -8.25 -0.15 -7.4 -0.25 Q-6.05 -0.65 -6.05 -2.45 -6.05 -3.5 -6.6 -4.3 -7.4 -5.5 -9.2 -5.5 L-10.05 -5.15 -10.4 -4.9 -10.6 -4.8 -10.65 -4.8 -10.85 -4.95 -10.7 -5.3 M-22.5 -4.3 L-22.6 -3.65 -23.0 -4.6 Q-23.3 -5.4 -23.65 -5.4 L-24.25 -4.95 -24.45 -4.55 -24.6 -4.5 Q-25.0 -4.5 -25.0 -5.25 -25.0 -6.25 -23.75 -6.25 -22.5 -6.25 -22.5 -4.3 M-11.6 -1.6 Q-11.6 -2.1 -10.7 -2.95 L-9.9 -3.5 -9.05 -3.85 -8.1 -4.0 Q-7.6 -4.0 -7.3 -3.45 L-7.05 -2.8 Q-7.05 -2.4 -7.5 -2.1 L-7.9 -1.9 -8.65 -1.8 -8.75 -1.8 -8.85 -1.8 Q-9.35 -1.85 -9.35 -2.15 L-9.1 -2.45 -8.8 -2.6 -8.05 -2.85 -8.5 -3.1 -9.4 -2.9 -10.4 -2.35 -11.55 -1.45 -11.6 -1.6" fill="#a36a6a" fill-rule="evenodd" stroke="none"/>
    <path d="M-4.45 -18.5 L-4.3 -19.0 -3.95 -19.05 Q-2.8 -19.05 -1.4 -18.15 L1.0 -15.6 2.45 -13.1 3.5 -10.65 4.95 -5.6 5.8 -0.6 5.8 3.45 5.75 4.3 5.9 6.55 -7.9 7.5 -7.7 6.6 Q-7.35 4.8 -7.25 2.8 L-7.2 2.0 -7.25 0.65 Q-6.15 0.4 -5.6 -0.6 -5.15 -1.4 -5.15 -2.4 -5.15 -3.4 -5.5 -4.25 L-5.4 -4.4 -5.2 -5.0 Q-5.2 -5.9 -5.85 -6.9 -6.65 -8.1 -7.95 -8.35 L-7.95 -8.25 Q-7.3 -7.75 -6.7 -6.75 L-6.1 -5.2 Q-7.05 -6.3 -8.75 -6.3 -9.55 -6.3 -10.25 -5.8 L-10.7 -5.3 -11.45 -5.7 -13.55 -6.4 -17.1 -7.25 -19.3 -7.4 -20.45 -7.1 -21.35 -6.8 -21.7 -7.3 -22.2 -7.8 -21.75 -7.95 -20.6 -8.2 -16.75 -8.25 -14.05 -7.8 Q-13.0 -7.25 -12.3 -7.05 L-12.2 -7.15 -13.75 -8.2 Q-14.75 -8.75 -16.75 -8.95 L-20.55 -8.95 -22.15 -8.55 -22.05 -8.8 -21.7 -9.75 Q-21.5 -10.1 -20.95 -10.3 L-21.3 -10.2 -19.55 -10.7 -16.15 -11.1 Q-14.1 -11.1 -11.95 -10.15 -10.15 -9.25 -10.0 -9.25 -9.85 -9.25 -9.8 -9.35 L-12.1 -10.75 -14.35 -11.45 Q-13.95 -11.55 -13.55 -11.8 L-13.25 -11.95 -13.35 -11.9 Q-10.85 -12.6 -8.0 -14.8 -5.8 -16.5 -4.9 -17.75 L-4.8 -17.9 -4.45 -18.5 M-9.05 -3.85 L-9.1 -3.9 -10.25 -4.95 -10.4 -4.9 -10.05 -5.15 -9.2 -5.5 Q-7.4 -5.5 -6.6 -4.3 -6.05 -3.5 -6.05 -2.45 -6.05 -0.65 -7.4 -0.25 L-7.9 -1.9 -7.5 -2.1 Q-7.05 -2.4 -7.05 -2.8 L-7.3 -3.45 Q-7.6 -4.0 -8.1 -4.0 L-9.05 -3.85" fill="#f2eaea" fill-rule="evenodd" stroke="none"/>
    <path d="M6.05 7.85 L6.05 8.2 6.05 9.3 5.95 9.9 5.0 9.75 -13.85 11.15 -16.2 11.2 -18.9 10.85 Q-20.95 10.05 -22.55 8.6 -24.15 7.25 -24.75 5.2 L-21.85 7.45 -21.4 7.7 -20.0 8.3 -18.6 8.6 -14.45 8.85 -13.65 8.85 3.6 8.25 6.05 7.85 M-24.45 -4.55 L-24.25 -4.95 -23.65 -5.4 Q-23.3 -5.4 -23.0 -4.6 L-22.6 -3.65 -22.5 -4.3 -22.4 -3.95 Q-22.4 -3.55 -22.85 -3.55 L-24.1 -4.05 -24.45 -4.55 M-8.85 -1.8 Q-10.15 -1.2 -11.15 -1.2 -11.6 -1.2 -11.6 -1.55 L-11.6 -1.6 -11.55 -1.45 -10.4 -2.35 -9.4 -2.9 -8.5 -3.1 -8.05 -2.85 -8.8 -2.6 -9.1 -2.45 -9.35 -2.15 Q-9.35 -1.85 -8.85 -1.8" fill="#cca9a9" fill-rule="evenodd" stroke="none"/>
    <path d="M-21.35 -6.8 L-20.45 -7.1 -19.3 -7.4 -17.1 -7.25 -13.55 -6.4 -11.45 -5.7 -10.7 -5.3 -10.85 -4.95 -10.65 -4.8 -10.6 -4.8 -10.4 -4.9 -10.25 -4.95 -9.1 -3.9 -9.05 -3.85 -9.9 -3.5 -10.7 -2.95 Q-11.6 -2.1 -11.6 -1.6 L-11.6 -1.55 Q-11.6 -1.2 -11.15 -1.2 -10.15 -1.2 -8.85 -1.8 L-8.75 -1.8 -8.65 -1.8 -7.9 -1.9 -7.4 -0.25 -8.25 -0.15 -8.3 -0.15 -8.6 -0.25 -8.9 0.05 Q-8.95 0.7 -8.0 0.7 L-7.65 0.7 -7.25 0.65 -7.2 2.0 -7.25 2.8 Q-7.35 4.8 -7.7 6.6 L-7.9 7.5 -15.2 7.95 -15.5 8.0 -17.55 8.0 -20.0 7.4 -22.0 6.4 -24.2 5.05 -24.9 4.75 -25.35 3.3 Q-25.95 1.15 -25.95 0.2 -25.95 -1.15 -25.35 -2.75 -25.35 -3.05 -25.7 -3.65 L-26.05 -4.45 -25.6 -5.9 Q-24.8 -7.3 -23.25 -7.3 L-23.1 -7.3 -22.1 -7.0 -22.05 -6.95 -21.75 -6.7 -21.35 -6.45 -21.25 -6.55 -21.4 -6.8 -21.35 -6.8 M-22.5 -4.3 Q-22.5 -6.25 -23.75 -6.25 -25.0 -6.25 -25.0 -5.25 -25.0 -4.5 -24.6 -4.5 L-24.45 -4.55 -24.1 -4.05 -22.85 -3.55 Q-22.4 -3.55 -22.4 -3.95 L-22.5 -4.3 M-21.85 7.45 L-20.0 8.3 -21.4 7.7 -21.85 7.45" fill="url(#gradient0)" fill-rule="evenodd" stroke="none"/>
    <path d="M5.9 6.55 L6.05 7.85 3.6 8.25 -13.65 8.85 -14.45 8.85 -18.6 8.6 -20.0 8.3 -21.85 7.45 -24.75 5.2 -24.9 4.75 -24.2 5.05 -22.0 6.4 -20.0 7.4 -17.55 8.0 -15.5 8.0 -15.2 7.95 -7.9 7.5 5.9 6.55" fill="#e0cbcb" fill-rule="evenodd" stroke="none"/>
  </g>
  <defs>
    <radialGradient cx="0" cy="0" fx="25.6" fy="0" gradientTransform="matrix(0.0143, 0.0, 0.0, 0.0143, -19.1, 3.7)" gradientUnits="userSpaceOnUse" id="gradient0" r="819.2" spreadMethod="pad">
      <stop offset="0.4745098039215686" stop-color="#e0cbcb"></stop>
      <stop offset="1.0" stop-color="#f2eaea"></stop>
    </radialGradient>
  </defs>
</svg>