<?xml version="1.0" encoding="UTF-8" standalone="no"?>
<svg xmlns:xlink="http://www.w3.org/1999/xlink" height="11.75px" width="18.55px" xmlns="http://www.w3.org/2000/svg">
  <g transform="matrix(1.0, 0.0, 0.0, 1.0, 18.6, 9.05)">
    <path d="M-11.7 -6.25 Q-11.7 -5.9 -12.2 -5.9 -12.9 -5.9 -12.9 -6.2 -12.9 -6.6 -12.15 -6.6 -11.7 -6.6 -11.7 -6.25 M-17.15 -2.45 L-17.6 -2.75 Q-17.6 -3.15 -17.1 -3.15 -16.6 -3.15 -16.6 -2.8 -16.6 -2.45 -17.15 -2.45 M-10.25 -6.05 L-10.25 -5.95 Q-10.25 -5.7 -10.5 -5.7 L-10.8 -5.95 Q-10.8 -6.15 -10.45 -6.15 L-10.25 -6.05 M-11.8 -3.35 Q-11.7 -3.75 -11.3 -3.6 L-11.25 -3.45 -11.5 -3.25 -11.8 -3.35 M-13.9 -3.5 L-14.25 -3.8 Q-14.25 -4.2 -13.2 -4.2 -12.4 -4.2 -12.4 -3.7 -12.4 -3.35 -13.05 -3.35 L-13.9 -3.5 M-12.9 -1.35 Q-11.6 -1.55 -11.6 -0.55 -11.6 0.4 -12.65 0.4 -14.25 0.4 -14.25 -0.5 -14.25 -1.25 -12.9 -1.35 M-11.25 -0.75 L-10.6 -1.1 Q-10.15 -1.1 -10.15 -0.7 -10.15 -0.25 -10.6 -0.25 -11.15 -0.25 -11.25 -0.75 M-1.65 -6.35 Q-1.65 -6.1 -1.9 -6.1 L-2.2 -6.3 -2.4 -6.55 Q-2.4 -6.85 -2.0 -6.7 -1.65 -6.6 -1.65 -6.35 M-4.5 -7.2 Q-5.1 -7.2 -5.1 -7.55 L-4.55 -7.85 -4.25 -7.7 -4.15 -7.5 Q-4.15 -7.2 -4.5 -7.2 M-7.05 -7.8 L-6.5 -8.05 Q-5.95 -8.1 -5.95 -7.7 -5.95 -7.3 -6.35 -7.3 -7.05 -7.3 -7.05 -7.8 M-6.4 -5.3 L-6.15 -5.2 -6.15 -4.95 -6.35 -4.9 -6.6 -5.25 -6.4 -5.3 M-9.3 -3.1 Q-9.3 -2.75 -9.7 -2.75 -10.4 -2.75 -10.4 -3.2 -10.4 -3.5 -9.9 -3.5 -9.3 -3.5 -9.3 -3.1 M-9.15 -6.0 Q-9.15 -6.4 -8.3 -6.25 -7.45 -6.1 -7.45 -5.7 -7.45 -5.35 -7.85 -5.35 L-8.7 -5.65 -9.15 -6.0 M-3.55 -0.85 Q-3.55 -1.55 -2.3 -1.4 -1.05 -1.25 -1.05 -0.5 -1.05 0.0 -1.8 0.0 L-2.9 -0.4 Q-3.55 -0.75 -3.55 -0.85 M-11.6 1.7 Q-11.95 1.7 -11.9 1.35 -11.9 0.95 -11.5 1.0 -11.15 1.1 -11.15 1.35 -11.15 1.7 -11.6 1.7" fill="#ffffff" fill-opacity="0.9019608" fill-rule="evenodd" stroke="none"/>
  </g>
</svg>