<?xml version="1.0" encoding="UTF-8" standalone="no"?>
<svg xmlns:xlink="http://www.w3.org/1999/xlink" height="12.85px" width="18.8px" xmlns="http://www.w3.org/2000/svg">
  <g transform="matrix(1.0, 0.0, 0.0, 1.0, 8.15, 11.9)">
    <path d="M6.1 -8.95 L5.8 -9.15 5.6 -9.4 Q5.6 -9.7 6.0 -9.55 L6.35 -9.2 6.1 -8.95 M3.75 -10.55 L3.85 -10.35 Q3.85 -10.05 3.5 -10.05 2.9 -10.05 2.9 -10.4 2.9 -10.7 3.45 -10.7 L3.75 -10.55 M2.05 -10.55 Q2.05 -10.15 1.65 -10.15 0.95 -10.15 0.95 -10.65 0.95 -10.9 1.5 -10.9 2.05 -10.95 2.05 -10.55 M1.3 -7.75 Q1.3 -8.15 2.15 -8.0 3.0 -7.85 3.0 -7.45 3.0 -7.1 2.6 -7.1 2.25 -7.1 1.75 -7.4 L1.3 -7.75 M0.2 -7.8 L0.2 -7.7 -0.05 -7.45 -0.35 -7.7 Q-0.35 -7.9 0.0 -7.9 L0.2 -7.8 M4.05 -7.05 L4.3 -6.95 4.3 -6.7 4.1 -6.65 Q3.85 -6.65 3.85 -7.0 L4.05 -7.05 M1.15 -4.85 Q1.15 -4.5 0.75 -4.5 0.05 -4.5 0.05 -4.95 0.05 -5.25 0.55 -5.25 1.15 -5.25 1.15 -4.85 M7.8 -1.75 L7.15 -2.2 Q7.15 -2.9 8.4 -2.75 9.65 -2.6 9.65 -1.85 9.65 -1.35 8.9 -1.35 8.5 -1.35 7.8 -1.75 M-1.75 -7.65 Q-2.45 -7.65 -2.45 -7.95 -2.45 -8.35 -1.7 -8.35 -1.25 -8.35 -1.25 -8.0 -1.25 -7.65 -1.75 -7.65 M-6.15 -4.55 Q-6.15 -4.2 -6.7 -4.2 -7.15 -4.2 -7.15 -4.5 -7.15 -4.9 -6.65 -4.9 -6.15 -4.9 -6.15 -4.55 M-0.8 -5.2 L-1.05 -5.0 -1.35 -5.1 Q-1.25 -5.5 -0.85 -5.35 L-0.8 -5.2 M-3.45 -5.25 L-3.8 -5.55 Q-3.8 -5.95 -2.75 -5.95 -1.95 -5.95 -1.95 -5.45 -1.95 -5.1 -2.6 -5.1 L-3.45 -5.25 M-2.2 -1.35 Q-3.8 -1.35 -3.8 -2.25 -3.8 -3.0 -2.45 -3.1 -1.15 -3.3 -1.15 -2.3 -1.15 -1.35 -2.2 -1.35 M-1.15 -0.05 Q-1.5 -0.05 -1.45 -0.4 -1.45 -0.8 -1.05 -0.75 -0.7 -0.65 -0.7 -0.4 -0.7 -0.05 -1.15 -0.05 M-0.8 -2.5 Q-0.8 -2.85 -0.15 -2.85 0.3 -2.85 0.3 -2.45 0.3 -2.0 -0.15 -2.0 -0.7 -2.0 -0.8 -2.5" fill="#ffffff" fill-opacity="0.9019608" fill-rule="evenodd" stroke="none"/>
  </g>
</svg>