<?xml version="1.0" encoding="UTF-8" standalone="no"?>
<svg xmlns:xlink="http://www.w3.org/1999/xlink" height="19.15px" width="6.9px" xmlns="http://www.w3.org/2000/svg">
  <g transform="matrix(1.0, 0.0, 0.0, 1.0, 11.7, 8.8)">
    <path d="M-6.9 -4.25 L-6.25 -2.2 Q-6.25 -1.85 -6.5 -1.9 L-7.15 1.15 -7.05 1.35 -7.2 1.7 -7.25 1.8 -7.35 2.6 -7.2 5.15 -6.9 6.8 Q-6.6 7.85 -6.6 9.15 -6.6 9.45 -6.85 9.35 L-7.2 8.9 -7.75 8.95 -8.0 8.5 -7.75 7.5 -7.95 7.1 -8.0 7.0 Q-8.85 6.8 -8.85 6.3 L-8.7 6.25 -8.8 6.0 -8.2 4.95 Q-8.7 4.75 -9.0 4.35 L-9.3 3.65 Q-9.3 3.35 -8.95 3.45 L-8.35 3.7 -8.25 2.95 -8.85 2.4 -9.05 1.7 -8.85 1.7 Q-8.6 1.75 -8.1 2.15 L-8.0 1.6 Q-8.8 1.1 -9.2 -0.3 -9.0 -0.25 -8.1 0.35 L-7.8 0.55 -7.8 0.4 -7.65 -0.1 -8.7 -1.15 Q-9.25 -1.95 -9.25 -2.4 -9.25 -2.95 -8.9 -2.5 L-8.35 -1.75 Q-7.7 -1.4 -7.4 -1.05 L-7.35 -1.15 -8.1 -2.7 -8.45 -4.4 -8.35 -4.9 Q-8.15 -3.45 -7.05 -1.8 L-7.0 -1.85 -6.85 -2.05 Q-7.45 -2.6 -7.45 -4.7 -7.45 -6.3 -7.1 -6.6 L-6.9 -5.35 -6.9 -4.25 M-5.85 -6.0 L-5.8 -5.3 -5.95 -4.15 Q-6.1 -3.0 -6.25 -3.0 -6.55 -3.1 -6.5 -3.85 L-5.85 -6.0" fill="#000000" fill-opacity="0.49803922" fill-rule="evenodd" stroke="none"/>
    <path d="M-10.25 -1.9 L-8.4 0.35 Q-7.85 0.35 -7.65 0.7 -7.5 0.95 -7.5 1.15 -7.5 1.6 -8.1 1.45 -9.2 1.15 -9.8 -0.2 L-10.3 -1.9 -10.25 -1.9 M-8.9 -7.75 L-8.75 -6.15 -8.45 -4.6 Q-7.95 -3.2 -6.55 -1.0 -6.55 -0.45 -7.0 -0.55 -7.55 -0.7 -8.15 -1.9 -8.65 -2.9 -8.75 -3.6 L-9.0 -5.1 -9.0 -6.3 -8.95 -7.8 -8.9 -7.75 M-7.75 6.15 Q-7.75 6.45 -8.25 6.65 L-9.25 6.75 -10.0 6.4 -10.45 5.8 Q-10.45 5.55 -10.05 5.65 L-9.5 5.95 -8.35 5.8 Q-7.75 5.7 -7.75 6.15 M-7.8 3.8 Q-7.55 3.95 -7.55 4.4 -7.55 5.05 -8.2 4.85 -9.45 4.55 -10.7 1.9 L-10.65 1.9 -9.0 3.2 -7.8 3.8" fill="#000000" fill-opacity="0.49803922" fill-rule="evenodd" stroke="none"/>
  </g>
</svg>