<?xml version="1.0" encoding="UTF-8" standalone="no"?>
<svg xmlns:xlink="http://www.w3.org/1999/xlink" height="41.9px" width="29.75px" xmlns="http://www.w3.org/2000/svg">
  <g transform="matrix(1.0, 0.0, 0.0, 1.0, 14.85, 20.95)">
    <path d="M13.9 -14.4 Q13.9 -11.4 10.95 -8.55 8.1 -5.8 5.4 -5.8 2.4 -5.8 0.8 -8.9 -0.25 -10.9 -0.25 -12.45 -0.25 -13.45 0.25 -14.65 0.75 -16.0 1.55 -16.9 2.2 -17.8 3.55 -18.7 4.0 -19.1 5.1 -19.5 L6.05 -19.8 6.8 -19.9 7.25 -19.95 8.8 -19.95 Q11.6 -19.95 13.0 -17.5 13.9 -15.9 13.9 -14.4 M11.95 -17.45 Q10.3 -19.85 7.35 -19.1 5.5 -19.45 3.0 -17.25 0.65 -15.2 0.65 -13.75 L0.85 -13.3 0.55 -12.5 Q0.55 -11.0 1.6 -9.15 3.0 -6.6 5.4 -6.6 8.0 -6.6 11.2 -10.0 L12.45 -12.0 Q13.1 -13.35 13.1 -14.35 13.1 -15.85 11.95 -17.45 M10.95 -1.65 Q12.65 -1.65 12.65 0.4 L10.4 6.2 Q9.1 8.9 7.15 11.35 5.75 13.05 4.55 13.8 2.75 14.9 -0.1 15.25 -0.7 15.3 -1.0 15.7 L-1.5 16.4 -2.4 17.7 -3.25 19.05 Q-4.0 19.95 -5.8 19.95 L-8.3 19.4 -9.75 18.85 Q-10.25 18.6 -10.35 17.45 -11.15 17.3 -12.05 16.3 -13.0 15.25 -13.0 14.7 -13.85 14.5 -13.85 13.05 -13.85 11.3 -13.0 10.3 L-11.8 9.15 Q-11.3 8.75 -10.7 8.9 -10.45 8.95 -10.3 9.1 -9.6 8.5 -8.6 8.2 L-7.5 8.5 -7.1 8.7 Q-6.35 8.2 -5.35 8.2 L-2.9 8.55 -0.75 8.8 Q0.9 8.8 5.85 3.85 L7.95 0.95 Q8.5 -0.3 8.95 -0.8 9.65 -1.65 10.6 -1.65 L10.95 -1.65 M-9.35 15.2 L-9.5 16.2 -9.55 16.7 -9.55 17.05 -9.5 17.05 -9.5 17.2 Q-9.4 18.15 -8.9 18.3 L-7.6 18.8 -5.75 19.05 Q-4.35 19.05 -3.8 18.45 L-3.1 17.2 -1.5 15.1 Q-1.3 14.65 0.35 14.3 L3.1 13.75 4.8 12.65 6.1 11.3 Q11.65 3.3 11.65 1.55 L11.9 0.4 Q11.85 -1.15 10.65 -0.9 9.8 -0.5 9.15 0.45 L8.3 1.9 6.25 4.55 3.3 7.25 1.7 8.55 0.05 9.4 Q-1.0 9.8 -1.0 9.6 L-1.65 9.5 -2.15 9.4 -2.5 9.35 -2.8 9.3 -3.3 9.25 -3.95 9.15 -5.3 8.95 Q-6.75 8.95 -7.7 10.25 -8.45 11.2 -8.65 12.45 L-9.05 14.1 -9.2 14.6 -9.35 15.2 M-9.65 13.25 L-9.3 12.0 Q-9.2 11.1 -8.4 9.95 L-7.7 9.15 -8.35 9.0 Q-9.75 9.0 -11.1 11.6 L-12.05 13.8 -12.2 14.65 -12.15 14.85 Q-12.05 15.45 -10.85 16.2 L-10.4 16.5 -10.2 15.2 -10.0 14.45 -9.65 13.25 M-12.85 11.45 L-13.05 12.15 -13.1 12.25 -13.15 13.05 -12.8 13.8 -12.5 12.9 -12.4 12.65 -12.4 12.6 -12.2 12.15 -11.75 11.1 -10.85 9.7 -11.9 10.1 -12.65 11.1 -12.85 11.45" fill="#a36a6a" fill-rule="evenodd" stroke="none"/>
    <path d="M11.95 -17.45 Q13.1 -15.85 13.1 -14.35 13.1 -13.35 12.45 -12.0 L11.2 -10.0 Q8.0 -6.6 5.4 -6.6 3.0 -6.6 1.6 -9.15 0.55 -11.0 0.55 -12.5 L0.85 -13.3 0.65 -13.75 Q0.65 -15.2 3.0 -17.25 5.5 -19.45 7.35 -19.1 10.3 -19.85 11.95 -17.45" fill="#f2eaea" fill-rule="evenodd" stroke="none"/>
    <path d="M-2.15 9.4 L-1.65 9.5 -1.0 9.6 Q-1.0 9.8 0.05 9.4 L1.7 8.55 3.3 7.25 6.25 4.55 8.3 1.9 9.15 0.45 Q9.8 -0.5 10.65 -0.9 11.85 -1.15 11.9 0.4 L11.65 1.55 Q11.65 3.3 6.1 11.3 L4.8 12.65 3.1 13.75 0.35 14.3 Q-1.3 14.65 -1.5 15.1 L-3.1 17.2 -3.8 18.45 Q-4.35 19.05 -5.75 19.05 L-7.6 18.8 -8.9 18.3 Q-9.4 18.15 -9.5 17.2 L-9.5 17.05 -9.55 17.05 -9.55 16.7 -9.5 16.2 -9.35 15.2 -8.7 15.45 -8.6 15.45 Q-7.1 15.4 -6.25 14.1 L-6.1 13.85 -5.65 13.05 -5.6 13.0 -4.7 11.75 Q-4.05 11.05 -3.45 9.55 L-3.3 9.25 -2.8 9.3 -2.5 9.35 -2.2 9.4 -2.2 9.5 -2.15 9.4 M-12.05 13.8 L-11.95 13.9 Q-11.65 14.25 -11.2 14.25 -10.65 14.25 -9.9 13.5 L-9.65 13.25 -10.0 14.45 -10.2 15.2 -10.4 16.5 -10.85 16.2 Q-12.05 15.45 -12.15 14.85 L-12.2 14.65 -12.05 13.8 M-12.2 12.15 L-12.4 12.6 -12.4 12.65 -12.5 12.9 -12.8 13.8 -13.15 13.05 -13.1 12.25 -13.05 12.15 -12.85 11.45 -12.2 12.15" fill="#cca9a9" fill-rule="evenodd" stroke="none"/>
    <path d="M-2.15 9.4 L-2.2 9.5 -2.2 9.4 -2.5 9.35 -2.15 9.4 M-3.3 9.25 L-3.45 9.55 Q-4.05 11.05 -4.7 11.75 L-5.6 13.0 -5.65 13.05 -6.1 13.85 -6.25 14.1 Q-7.1 15.4 -8.6 15.45 L-8.7 15.45 -9.35 15.2 -9.2 14.6 -9.05 14.1 -8.65 12.45 Q-8.45 11.2 -7.7 10.25 -6.75 8.95 -5.3 8.95 L-3.95 9.15 -3.3 9.25 M-12.05 13.8 L-11.1 11.6 Q-9.75 9.0 -8.35 9.0 L-7.7 9.15 -8.4 9.95 Q-9.2 11.1 -9.3 12.0 L-9.65 13.25 -9.9 13.5 Q-10.65 14.25 -11.2 14.25 -11.65 14.25 -11.95 13.9 L-12.05 13.8 M-12.2 12.15 L-12.85 11.45 -12.65 11.1 -11.9 10.1 -10.85 9.7 -11.75 11.1 -12.2 12.15" fill="#e0cbcb" fill-rule="evenodd" stroke="none"/>
  </g>
</svg>