<?xml version="1.0" encoding="UTF-8" standalone="no"?>
<svg xmlns:xlink="http://www.w3.org/1999/xlink" height="30.2px" width="27.45px" xmlns="http://www.w3.org/2000/svg">
  <g transform="matrix(1.0, 0.0, 0.0, 1.0, 13.65, 15)">
    <path d="M-2.45 13.65 L-2.3 12.55 -2.3 12.15 -2.3 11.95 -0.85 10.2 2.65 6.45 4.55 4.5 6.2 2.5 8.0 -0.4 Q9.05 -2.05 9.05 -1.0 9.05 0.55 3.0 6.65 2.1 7.4 1.3 8.5 L-0.2 10.55 -2.45 13.65 M8.0 -5.2 Q7.8 -5.85 6.95 -5.85 5.65 -5.85 3.9 -3.25 L3.5 -2.95 3.2 -3.8 Q3.0 -3.75 2.85 -2.65 L2.85 -2.5 1.45 -1.45 Q0.45 -0.7 -0.6 -0.7 -2.8 -0.7 -3.7 -2.55 L-4.0 -3.5 -3.95 -3.65 -3.85 -3.95 -3.3 -5.3 -3.25 -5.45 -2.6 -6.75 -1.0 -9.1 Q0.65 -10.8 2.8 -11.85 4.7 -12.8 6.85 -13.05 9.0 -13.3 10.15 -12.2 11.25 -11.1 11.55 -10.1 L11.4 -9.1 10.65 -7.65 9.2 -6.1 8.3 -5.4 8.0 -5.2 M9.4 -2.25 Q9.05 -2.25 9.05 -2.65 9.05 -3.1 9.45 -3.1 9.85 -3.1 9.85 -2.7 9.85 -2.25 9.4 -2.25 M3.7 2.4 Q2.45 3.95 0.75 3.95 0.0 3.95 0.1 3.2 0.1 2.35 1.9 1.55 4.0 0.65 4.45 -0.3 L4.7 0.2 Q4.7 1.15 3.7 2.4" fill="#f2eaea" fill-rule="evenodd" stroke="none"/>
    <path d="M-2.6 10.65 Q-3.35 8.3 -6.2 6.65 -7.55 5.9 -8.95 5.3 L-7.65 5.25 -7.55 5.2 -5.7 4.75 -4.75 4.35 -4.25 4.95 Q-4.25 5.95 -3.6 6.85 -2.65 8.15 -0.65 8.3 L-2.6 10.65 M8.05 -4.75 L8.0 -5.2 8.3 -5.4 9.2 -6.1 10.65 -7.65 11.4 -9.1 11.55 -10.1 11.85 -9.1 11.85 -9.05 11.75 -6.75 10.9 -5.35 Q9.9 -3.95 8.8 -3.95 L8.25 -4.45 8.05 -4.75 M3.9 -3.25 L3.55 -2.7 3.5 -2.95 3.9 -3.25 M2.85 -2.5 L2.8 -1.8 2.5 -1.4 1.85 -0.35 Q1.1 0.85 -0.5 1.5 L-2.0 1.5 Q-3.35 0.75 -3.75 -0.3 L-4.15 -2.25 -4.2 -2.9 -3.95 -3.65 -4.0 -3.5 -3.7 -2.55 Q-2.8 -0.7 -0.6 -0.7 0.45 -0.7 1.45 -1.45 L2.85 -2.5 M3.95 -2.35 L4.85 -3.3 Q6.0 -4.55 7.1 -5.1 L7.2 -4.5 6.95 -2.85 5.9 -2.1 4.4 -2.1 3.95 -2.35" fill="#e0cbcb" fill-rule="evenodd" stroke="none"/>
    <path d="M-8.95 5.3 L-9.0 5.3 -12.05 5.0 Q-12.45 4.85 -12.65 4.5 L-12.1 4.3 -9.55 4.5 Q-7.85 4.5 -5.65 3.75 L-5.15 3.6 Q-5.6 2.5 -5.6 0.95 -5.6 -3.65 -2.9 -8.1 L-1.55 -9.95 Q-0.15 -11.6 1.7 -12.5 3.8 -13.65 6.25 -13.9 8.65 -14.25 10.15 -13.15 11.65 -12.05 12.1 -11.15 L12.7 -9.35 12.8 -7.85 Q12.65 -1.9 8.85 2.35 L3.15 8.55 0.2 11.85 -2.3 14.2 -2.7 14.1 -2.45 13.8 -1.65 12.85 Q2.95 7.3 8.35 1.7 10.6 -1.15 11.4 -4.75 L11.75 -6.75 11.85 -9.05 11.85 -9.1 11.55 -10.1 Q11.25 -11.1 10.15 -12.2 9.0 -13.3 6.85 -13.05 4.7 -12.8 2.8 -11.85 0.65 -10.8 -1.0 -9.1 L-2.6 -6.75 -3.25 -5.45 -3.3 -5.3 -3.85 -3.95 -3.95 -3.65 -4.2 -2.9 -4.75 -0.25 -4.75 -0.2 -4.8 0.95 Q-4.8 2.5 -4.25 3.5 L-4.15 3.6 -4.15 3.7 -3.8 4.15 -3.0 4.75 -0.75 5.2 Q1.1 5.2 3.25 3.2 4.9 1.7 5.55 0.4 L6.25 -1.0 6.35 -1.3 6.85 -2.5 6.95 -2.85 7.2 -4.5 7.1 -5.1 Q6.0 -4.55 4.85 -3.3 L3.95 -2.35 3.65 -2.0 3.7 -0.85 3.7 -0.65 Q3.65 -0.15 3.4 -0.15 L3.0 -0.4 2.85 -0.7 2.8 -0.9 2.8 -1.05 2.75 -1.3 2.8 -1.8 2.85 -2.5 2.85 -2.65 Q3.0 -3.75 3.2 -3.8 L3.5 -2.95 3.55 -2.7 3.9 -3.25 Q5.65 -5.85 6.95 -5.85 7.8 -5.85 8.0 -5.2 L8.05 -4.75 8.0 -4.45 8.0 -4.0 8.0 -3.65 Q7.65 -0.35 4.55 2.85 1.45 6.1 -0.8 6.1 L-2.2 6.0 -2.4 5.95 -4.15 5.0 -4.25 4.95 -4.75 4.35 -5.7 4.75 -7.55 5.2 -7.65 5.25 -8.95 5.3" fill="#a36a6a" fill-rule="evenodd" stroke="none"/>
    <path d="M-2.45 13.8 L-2.45 13.65 -0.2 10.55 1.3 8.5 Q2.1 7.4 3.0 6.65 9.05 0.55 9.05 -1.0 9.05 -2.05 8.0 -0.4 L6.2 2.5 4.55 4.5 2.65 6.45 -0.85 10.2 -2.3 11.95 -2.3 12.15 -2.35 11.8 -2.6 10.65 -0.65 8.3 Q-2.65 8.15 -3.6 6.85 -4.25 5.95 -4.25 4.95 L-4.15 5.0 -2.4 5.95 -2.2 6.0 -0.8 6.1 Q1.45 6.1 4.55 2.85 7.65 -0.35 8.0 -3.65 L8.0 -4.0 8.0 -4.45 8.05 -4.75 8.25 -4.45 8.8 -3.95 Q9.9 -3.95 10.9 -5.35 L11.75 -6.75 11.4 -4.75 Q10.6 -1.15 8.35 1.7 2.95 7.3 -1.65 12.85 L-2.45 13.8 M2.8 -1.8 L2.75 -1.3 2.8 -1.05 2.8 -0.9 2.85 -0.7 3.0 -0.4 3.4 -0.15 Q3.65 -0.15 3.7 -0.65 L3.7 -0.85 3.65 -2.0 3.95 -2.35 4.4 -2.1 5.9 -2.1 6.95 -2.85 6.85 -2.5 6.35 -1.3 6.25 -1.0 5.55 0.4 Q4.9 1.7 3.25 3.2 1.1 5.2 -0.75 5.2 L-3.0 4.75 -3.8 4.15 -4.15 3.7 -4.15 3.6 -4.25 3.5 Q-4.8 2.5 -4.8 0.95 L-4.75 -0.2 -4.75 -0.25 -4.2 -2.9 -4.15 -2.25 -3.75 -0.3 Q-3.35 0.75 -2.0 1.5 L-0.5 1.5 Q1.1 0.85 1.85 -0.35 L2.5 -1.4 2.8 -1.8 M3.7 2.4 Q4.7 1.15 4.7 0.2 L4.45 -0.3 Q4.0 0.65 1.9 1.55 0.1 2.35 0.1 3.2 0.0 3.95 0.75 3.95 2.45 3.95 3.7 2.4 M9.4 -2.25 Q9.85 -2.25 9.85 -2.7 9.85 -3.1 9.45 -3.1 9.05 -3.1 9.05 -2.65 9.05 -2.25 9.4 -2.25" fill="#cca9a9" fill-rule="evenodd" stroke="none"/>
  </g>
</svg>