<?xml version="1.0" encoding="UTF-8" standalone="no"?>
<svg xmlns:xlink="http://www.w3.org/1999/xlink" height="42.5px" width="26.4px" xmlns="http://www.w3.org/2000/svg">
  <g transform="matrix(1.0, 0.0, 0.0, 1.0, 17, 29)">
    <path d="M-4.0 -26.0 L-4.2 -25.95 -3.05 -26.6 -0.75 -26.7 0.55 -25.8 1.45 -24.75 Q2.95 -21.4 2.95 -20.7 L2.95 -20.55 2.8 -21.05 2.15 -22.45 2.05 -22.65 Q0.2 -26.05 -3.3 -26.05 L-3.45 -26.05 -3.95 -26.0 -4.0 -26.0 M5.75 -20.95 Q7.25 -17.45 7.6 -13.65 8.15 -7.7 4.7 -3.0 L4.5 -2.7 3.6 -1.2 2.0 1.05 0.8 2.6 3.7 -1.95 5.95 -6.55 Q7.25 -9.9 7.25 -11.65 L6.95 -16.5 5.75 -20.15 5.75 -20.95 M-3.1 7.55 L-4.95 9.75 -5.75 10.55 -5.0 9.75 -3.1 7.55 M-7.65 8.45 L-4.6 4.65 -2.8 2.3 -0.15 -1.2 1.6 -3.35 3.9 -7.35 Q5.5 -10.45 5.65 -13.3 L5.75 -19.1 Q6.55 -16.2 6.55 -14.25 6.55 -9.45 3.15 -3.3 1.45 -0.25 -2.75 5.7 L-2.8 5.6 -6.45 9.75 -7.35 10.55 -7.65 8.45" fill="#cca9a9" fill-rule="evenodd" stroke="none"/>
    <path d="M-8.0 7.45 L-5.45 3.5 -5.6 3.75 -5.1 3.2 -4.65 3.5 -5.0 3.25 Q-4.65 2.4 -2.45 -0.05 -0.3 -2.5 2.6 -6.65 5.45 -10.85 5.25 -15.9 L4.85 -21.4 3.8 -23.9 2.25 -25.9 Q3.35 -25.0 4.35 -23.5 L4.55 -23.25 4.7 -23.0 5.75 -20.95 5.75 -20.15 5.65 -20.45 5.0 -21.8 4.9 -21.8 5.75 -19.1 5.65 -13.3 Q5.5 -10.45 3.9 -7.35 L1.6 -3.35 -0.15 -1.2 -2.8 2.3 -4.6 4.65 -7.65 8.45 -8.0 7.45" fill="#e0cbcb" fill-rule="evenodd" stroke="none"/>
    <path d="M2.25 -25.9 L2.2 -25.95 Q0.3 -27.45 -1.85 -27.45 -3.35 -27.45 -4.3 -26.85 -5.1 -26.3 -5.1 -25.7 L-4.95 -25.55 Q-4.5 -25.65 -4.25 -25.9 L-4.0 -26.0 -3.95 -26.0 -3.45 -26.05 -3.3 -26.05 Q0.2 -26.05 2.05 -22.65 L2.15 -22.45 2.8 -21.05 Q3.35 -19.45 3.35 -17.9 3.35 -15.9 2.4 -12.95 1.6 -10.55 0.45 -8.35 -0.95 -5.7 -3.9 -3.0 L-6.3 -1.2 -8.75 0.65 -10.0 1.1 -10.1 1.15 -11.55 1.55 -13.65 2.05 -16.0 1.6 -15.35 1.2 -15.0 1.15 -13.05 1.1 -11.55 0.6 -10.25 0.1 -9.1 -0.5 -7.4 -1.65 -5.5 -3.0 Q-2.45 -5.5 -0.35 -8.65 0.8 -10.4 1.7 -13.1 2.65 -15.95 2.65 -17.95 2.65 -19.75 1.55 -21.9 -0.2 -25.25 -3.55 -25.25 L-4.2 -25.1 -4.85 -24.95 Q-5.85 -24.95 -5.7 -25.9 -5.7 -26.8 -4.65 -27.4 -3.55 -28.0 -1.9 -28.0 1.9 -28.0 4.7 -24.1 L5.95 -21.95 Q8.6 -17.1 8.4 -11.45 8.2 -5.6 4.7 -0.85 L4.45 -0.55 3.9 0.25 1.65 3.1 0.3 4.95 -2.05 7.85 -3.75 9.75 -5.2 11.3 Q-6.05 12.0 -7.1 12.5 L-7.45 12.5 -7.15 11.85 -6.45 11.15 -6.1 10.85 -5.85 10.65 -5.75 10.55 -4.95 9.75 -3.1 7.55 -2.35 6.55 -1.5 5.75 -0.45 4.4 0.1 3.5 0.8 2.6 2.0 1.05 3.6 -1.2 4.5 -2.7 4.7 -3.0 Q8.15 -7.7 7.6 -13.65 7.25 -17.45 5.75 -20.95 L4.7 -23.0 4.55 -23.25 4.35 -23.5 Q3.35 -25.0 2.25 -25.9" fill="#a36a6a" fill-rule="evenodd" stroke="none"/>
    <path d="M0.8 2.6 L0.1 3.5 -0.45 4.4 -1.5 5.75 -2.35 6.55 -3.1 7.55 -5.0 9.75 -5.75 10.55 -5.85 10.65 -6.1 10.85 -6.45 11.15 -7.15 11.85 -7.35 10.55 -6.45 9.75 -2.8 5.6 -2.75 5.7 Q1.45 -0.25 3.15 -3.3 6.55 -9.45 6.55 -14.25 6.55 -16.2 5.75 -19.1 L4.9 -21.8 5.0 -21.8 5.65 -20.45 5.75 -20.15 6.95 -16.5 7.25 -11.65 Q7.25 -9.9 5.95 -6.55 L3.7 -1.95 0.8 2.6" fill="url(#gradient0)" fill-rule="evenodd" stroke="none"/>
    <path d="M-4.0 -26.0 L-4.25 -25.9 Q-4.5 -25.65 -4.95 -25.55 L-5.1 -25.7 Q-5.1 -26.3 -4.3 -26.85 -3.35 -27.45 -1.85 -27.45 0.3 -27.45 2.2 -25.95 L2.25 -25.9 3.8 -23.9 4.85 -21.4 5.25 -15.9 Q5.45 -10.85 2.6 -6.65 -0.3 -2.5 -2.45 -0.05 -4.65 2.4 -5.0 3.25 L-4.65 3.5 -5.1 3.2 -5.6 3.75 -5.45 3.5 -8.0 7.45 Q-8.55 5.65 -9.8 4.3 L-11.55 2.85 Q-12.55 2.25 -13.65 2.05 L-11.55 1.55 -10.1 1.15 -10.0 1.1 -8.75 0.65 -6.3 -1.2 -3.9 -3.0 Q-0.95 -5.7 0.45 -8.35 1.6 -10.55 2.4 -12.95 3.35 -15.9 3.35 -17.9 3.35 -19.45 2.8 -21.05 L2.95 -20.55 2.95 -20.7 Q2.95 -21.4 1.45 -24.75 L0.55 -25.8 -0.75 -26.7 -3.05 -26.6 -4.2 -25.95 -4.0 -26.0" fill="url(#gradient1)" fill-rule="evenodd" stroke="none"/>
  </g>
  <defs>
    <radialGradient cx="0" cy="0" gradientTransform="matrix(0.0206, -0.0391, 0.0325, 0.0182, -2.4, -49.7)" gradientUnits="userSpaceOnUse" id="gradient0" r="819.2" spreadMethod="pad">
      <stop offset="0.47843137254901963" stop-color="#ffffff"></stop>
      <stop offset="0.8823529411764706" stop-color="#f2eaea"></stop>
    </radialGradient>
    <radialGradient cx="0" cy="0" gradientTransform="matrix(0.0168, -0.0112, 0.0073, 0.013, -1.4, -6.25)" gradientUnits="userSpaceOnUse" id="gradient1" r="819.2" spreadMethod="pad">
      <stop offset="0.0" stop-color="#ffffff"></stop>
      <stop offset="0.8156862745098039" stop-color="#e0cbcb"></stop>
      <stop offset="1.0" stop-color="#eadcdc"></stop>
    </radialGradient>
  </defs>
</svg>