<?xml version="1.0" encoding="UTF-8" standalone="no"?>
<svg xmlns:xlink="http://www.w3.org/1999/xlink" height="52.8px" width="101.15px" xmlns="http://www.w3.org/2000/svg">
  <g transform="matrix(1.0, 0.0, 0.0, 1.0, 90.6, 83)">
    <path d="M9.55 -81.65 Q-14.45 -74.45 -27.2 -62.05 L-29.05 -60.15 Q-27.5 -59.5 -26.2 -58.2 -24.0 -56.0 -24.0 -54.35 L-24.05 -53.95 -24.15 -53.9 -24.15 -53.7 -24.65 -53.6 -27.15 -56.45 Q-28.6 -58.3 -30.15 -58.95 -33.2 -55.5 -36.2 -51.15 L-37.75 -48.7 Q-36.2 -48.15 -34.7 -47.2 -31.75 -45.35 -30.0 -42.65 -28.45 -40.2 -28.75 -38.5 L-28.9 -38.35 Q-29.5 -38.85 -32.1 -43.65 -34.65 -47.0 -38.35 -47.85 L-43.3 -40.5 -43.65 -40.4 -44.15 -40.45 -44.25 -40.85 Q-44.25 -43.55 -41.4 -48.15 -50.5 -48.0 -62.55 -40.95 -69.05 -37.15 -77.45 -31.2 L-77.8 -31.3 -77.95 -31.7 Q-77.95 -32.85 -67.3 -39.25 -57.6 -45.1 -52.65 -47.4 -46.15 -50.45 -40.55 -49.45 L-39.35 -51.2 Q-36.45 -55.3 -32.65 -59.3 -39.5 -59.2 -43.4 -57.4 -45.65 -56.4 -48.0 -54.6 L-48.4 -54.6 -48.45 -55.05 Q-40.45 -62.2 -32.85 -61.05 L-31.15 -60.85 -26.75 -65.0 Q-7.4 -82.2 9.55 -82.0 L9.55 -81.65" fill="#7f7c4e" fill-rule="evenodd" stroke="none"/>
    <path d="M-89.6 -46.75 Q-88.95 -48.85 -84.9 -50.9 -81.2 -52.75 -76.35 -53.8 L-70.3 -54.6 Q-69.3 -56.0 -65.9 -58.95 L-63.95 -60.6 Q-65.4 -61.4 -66.75 -61.4 -69.8 -61.4 -72.25 -60.65 L-74.85 -59.6 -75.3 -59.65 -75.45 -60.15 Q-75.45 -62.45 -70.05 -62.9 -65.9 -63.25 -63.1 -61.3 L-60.4 -63.5 Q-57.0 -66.15 -53.45 -67.95 -49.1 -70.15 -46.8 -69.8 -54.3 -67.25 -62.1 -60.5 L-61.25 -59.6 -61.4 -59.25 -61.3 -59.15 -61.8 -59.1 -62.85 -59.85 Q-65.55 -57.45 -68.3 -54.5 L-68.1 -54.5 Q-64.4 -54.1 -64.4 -51.9 L-64.5 -51.45 -64.6 -51.35 -65.0 -51.3 -66.7 -52.25 Q-68.3 -53.25 -72.9 -53.25 -77.7 -53.25 -82.15 -51.15 L-89.5 -46.7 -89.6 -46.75 M-70.1 -53.1 L-69.65 -53.05 -69.85 -52.9 -70.1 -53.1" fill="#c19b68" fill-rule="evenodd" stroke="none"/>
  </g>
</svg>