<?xml version="1.0" encoding="UTF-8" standalone="no"?>
<svg xmlns:xlink="http://www.w3.org/1999/xlink" height="52.15px" width="60.45px" xmlns="http://www.w3.org/2000/svg">
  <g transform="matrix(1.0, 0.0, 0.0, 1.0, 30.25, 26.05)">
    <path d="M-27.8 -16.6 Q-27.7 -18.3 -26.4 -19.75 -24.7 -21.6 -21.2 -22.75 L-13.2 -25.05 -1.45 -24.85 Q5.15 -24.85 12.75 -21.65 19.1 -18.9 21.5 -16.35 22.8 -15.0 23.45 -13.45 L24.25 -10.65 Q24.5 -9.6 25.55 -7.3 L26.3 -5.65 26.35 -4.6 27.75 -0.45 27.9 -0.1 23.15 1.85 Q18.4 3.6 18.75 6.2 L19.15 10.15 22.35 8.9 22.45 8.7 22.6 8.75 22.35 8.9 22.6 8.75 Q23.05 9.95 22.0 11.65 20.95 13.35 22.35 14.0 L24.9 14.1 Q26.05 13.55 26.25 13.7 L26.25 13.95 26.2 14.1 25.45 14.8 25.15 15.05 24.3 15.7 Q22.65 18.5 25.25 19.3 L24.6 20.65 24.95 20.45 Q22.25 22.05 16.8 23.45 L6.05 24.5 -5.4 24.9 Q-10.75 24.6 -16.0 22.85 -22.3 20.9 -27.6 15.65 L-28.55 14.65 Q-29.15 13.9 -29.2 12.45 L-29.2 12.35 -29.2 12.3 -29.2 11.25 -29.15 11.15 -28.7 10.5 Q-27.65 9.15 -26.3 8.6 L-26.8 7.55 Q-28.3 4.0 -27.2 0.3 L-26.8 -0.9 Q-24.65 -6.3 -27.2 -15.85 L-27.8 -16.6 M-19.75 3.9 L-19.75 3.85 Q-21.55 1.8 -24.05 1.9 -26.4 2.0 -26.4 3.5 -26.4 6.85 -21.6 10.6 L-20.85 11.15 Q-14.4 15.8 -3.6 15.8 -0.45 15.8 0.9 14.85 1.7 14.25 1.7 13.45 1.7 10.85 -2.55 10.25 -10.65 9.15 -14.65 7.65 -15.95 7.15 -17.55 5.85 L-19.75 3.9 M14.25 17.05 L6.25 19.15 0.05 19.55 Q-5.35 19.55 -8.2 18.5 L-12.95 17.15 Q-16.4 16.25 -16.75 15.9 -16.4 16.25 -12.95 17.15 L-8.2 18.5 Q-5.35 19.55 0.05 19.55 L6.25 19.15 14.25 17.05 M-18.2 17.5 L-19.2 16.85 -24.2 13.4 Q-24.85 12.95 -25.55 12.8 L-27.0 12.5 -27.15 13.4 Q-23.9 17.25 -19.5 19.3 -12.8 22.35 -5.65 22.95 -1.05 23.55 3.15 22.1 L-5.1 20.55 Q-11.7 19.5 -18.2 17.5 M-22.55 13.4 L-24.3 11.15 -25.45 10.05 -26.3 8.6 -25.45 10.05 -24.3 11.15 -22.55 13.4 M14.6 11.45 L19.15 10.15 14.6 11.45" fill="#d6baba" fill-rule="evenodd" stroke="none"/>
    <path d="M26.3 -5.65 L26.55 -5.05 26.35 -4.6 26.3 -5.65 M25.5 7.45 L25.55 7.5 25.5 7.5 25.5 7.45 M-27.6 15.65 L-28.55 14.9 Q-29.3 14.15 -29.2 12.45 -29.15 13.9 -28.55 14.65 L-27.6 15.65" fill="#eadebf" fill-rule="evenodd" stroke="none"/>
    <path d="M27.9 -0.1 L28.75 1.9 28.8 2.05 28.85 2.2 Q29.75 4.45 25.5 7.45 L25.5 7.5 25.3 7.6 23.6 8.3 23.25 8.45 22.6 8.75 23.25 8.45 23.6 8.3 25.3 7.6 25.5 7.5 25.55 7.5 26.45 8.5 Q27.7 10.0 28.5 11.95 L28.3 12.8 27.75 13.3 Q29.1 14.55 29.2 15.7 L29.2 15.75 Q29.2 17.0 28.7 17.8 L25.15 20.3 24.95 20.45 24.6 20.65 25.25 19.3 Q22.65 18.5 24.3 15.7 L25.15 15.05 25.45 14.8 26.2 14.1 26.25 13.95 26.25 13.7 Q26.05 13.55 24.9 14.1 L22.35 14.0 Q20.95 13.35 22.0 11.65 23.05 9.95 22.6 8.75 L22.45 8.7 22.35 8.9 19.15 10.15 18.75 6.2 Q18.4 3.6 23.15 1.85 L27.9 -0.1 M-19.75 3.9 L-17.55 5.85 Q-15.95 7.15 -14.65 7.65 -10.65 9.15 -2.55 10.25 1.7 10.85 1.7 13.45 1.7 14.25 0.9 14.85 -0.45 15.8 -3.6 15.8 -14.4 15.8 -20.85 11.15 L-21.6 10.6 Q-26.4 6.85 -26.4 3.5 -26.4 2.0 -24.05 1.9 -21.55 1.8 -19.75 3.85 L-19.75 3.9 M-18.2 17.5 Q-11.7 19.5 -5.1 20.55 L3.15 22.1 Q-1.05 23.55 -5.65 22.95 -12.8 22.35 -19.5 19.3 -23.9 17.25 -27.15 13.4 L-27.0 12.5 -25.55 12.8 Q-24.85 12.95 -24.2 13.4 L-19.2 16.85 -18.2 17.5 M27.75 13.3 L27.65 13.35 27.35 13.6 25.45 14.8 27.35 13.6 27.65 13.35 27.75 13.3" fill="#faf8f8" fill-rule="evenodd" stroke="none"/>
    <path d="M26.35 -4.6 L27.75 -0.45 27.9 -0.1 28.75 1.9 28.8 2.05 28.85 2.2 Q29.75 4.45 25.5 7.45 L25.55 7.5 26.45 8.5 Q27.7 10.0 28.5 11.95 L28.3 12.8 27.75 13.3 Q29.1 14.55 29.2 15.7 L29.2 15.75 Q29.2 17.0 28.7 17.8 L25.15 20.3 24.95 20.45 Q22.25 22.05 16.8 23.45 L6.05 24.5 -5.4 24.9 Q-10.75 24.6 -16.0 22.85 -22.3 20.9 -27.6 15.65 L-28.55 14.65 Q-29.15 13.9 -29.2 12.45 L-29.2 12.35 M-29.2 12.3 L-29.2 11.25 -29.15 11.15 -28.7 10.5 Q-27.65 9.15 -26.3 8.6 L-26.8 7.55 Q-28.3 4.0 -27.2 0.3 L-26.8 -0.9 Q-24.65 -6.3 -27.2 -15.85 L-27.8 -16.6 M26.3 -5.65 L26.35 -4.6 M-16.75 15.9 Q-16.4 16.25 -12.95 17.15 L-8.2 18.5 Q-5.35 19.55 0.05 19.55 L6.25 19.15 14.25 17.05 M-26.3 8.6 L-25.45 10.05 -24.3 11.15 -22.55 13.4 M22.6 8.75 L23.25 8.45 23.6 8.3 25.3 7.6 25.5 7.5 25.5 7.45 M22.6 8.75 L22.35 8.9 19.15 10.15 14.6 11.45 M25.45 14.8 L27.35 13.6 27.65 13.35 27.75 13.3 M25.45 14.8 L25.15 15.05" fill="none" stroke="#660000" stroke-linecap="round" stroke-linejoin="round" stroke-opacity="0.4" stroke-width="1"/>
  </g>
</svg>