<?xml version="1.0" encoding="UTF-8" standalone="no"?>
<svg xmlns:xlink="http://www.w3.org/1999/xlink" height="63.2px" width="86.1px" xmlns="http://www.w3.org/2000/svg">
  <g transform="matrix(1.0, 0.0, 0.0, 1.0, 41.25, 31.15)">
    <path d="M19.75 -26.35 L17.1 -24.9 Q15.5 -23.75 13.75 -23.5 L10.2 -22.65 10.2 -22.7 16.55 -26.85 19.15 -29.25 Q21.45 -30.85 21.45 -28.2 21.45 -27.4 19.75 -26.35 M-22.45 11.75 Q-22.45 9.85 -20.6 11.35 L-18.0 13.65 -20.5 13.3 Q-22.45 12.8 -22.45 11.75 M-25.75 7.0 L-23.65 9.7 -24.0 10.0 Q-25.65 10.0 -28.6 7.05 -28.6 6.2 -27.8 6.1 -26.9 6.0 -25.75 7.0" fill="#ffffff" fill-rule="evenodd" stroke="none"/>
    <path d="M-11.4 -4.05 L-11.45 -4.1 -11.35 -4.1 -11.4 -4.05" fill="#eadebf" fill-rule="evenodd" stroke="none"/>
    <path d="M37.15 -7.45 L36.8 -6.85 Q35.5 -5.05 33.45 -5.05 29.35 -5.05 28.0 -8.6 27.3 -10.5 26.8 -13.95 26.2 -15.5 24.05 -18.65 22.45 -20.95 22.45 -22.95 22.45 -25.2 24.75 -28.55 L26.05 -30.15 M18.05 -2.35 Q21.9 -0.25 21.9 2.05 21.9 4.5 20.7 5.85 18.15 8.75 10.65 8.75 2.8 8.75 -0.75 5.15 -2.9 2.95 -2.9 0.55 -2.9 -3.05 1.0 -4.5 4.35 -5.7 9.5 -5.0 14.4 -4.3 18.05 -2.35 M23.85 30.25 Q22.55 29.5 22.55 29.1 L22.75 26.45 22.9 24.45 Q22.9 20.8 25.3 18.6 27.8 16.3 35.85 12.8 38.1 11.8 39.1 9.85 40.4 7.4 41.25 6.65 42.65 5.45 43.85 5.05 M-19.2 26.15 Q-18.7 24.9 -16.15 24.05 -13.1 23.05 -9.15 23.25 0.95 23.7 0.95 30.1 L0.65 31.05 M-4.45 -23.8 Q-3.45 -23.1 -3.45 -22.05 -3.45 -20.35 -6.2 -18.5 -9.7 -16.15 -15.2 -16.15 -20.65 -16.15 -23.75 -18.55 L-25.15 -19.85 M-39.1 1.65 Q-40.25 -0.4 -40.25 -1.05 -40.25 -9.8 -34.2 -10.75 -29.55 -11.5 -21.8 -7.7 L-16.4 -2.55 M-15.5 -1.65 L-14.6 -0.7 Q-11.05 3.25 -11.05 6.25 L-11.15 7.5 Q-11.35 8.85 -12.05 9.9 -14.15 13.25 -19.9 13.25 -29.15 13.25 -35.55 6.5 L-36.7 5.2" fill="none" stroke="#660000" stroke-linecap="round" stroke-linejoin="round" stroke-opacity="0.2" stroke-width="1"/>
  </g>
</svg>