<?xml version="1.0" encoding="UTF-8" standalone="no"?>
<svg xmlns:xlink="http://www.w3.org/1999/xlink" height="25.85px" width="18.3px" xmlns="http://www.w3.org/2000/svg">
  <g transform="matrix(1.0, 0.0, 0.0, 1.0, 14.5, 18.7)">
    <path d="M-9.1 -1.85 Q-8.7 -2.9 -8.25 -2.9 -6.45 -2.9 -6.45 -0.9 -6.45 1.95 -8.25 1.95 L-9.0 1.6 Q-9.45 1.1 -9.45 0.15 L-9.1 -1.85" fill="#000000" fill-rule="evenodd" stroke="none"/>
    <path d="M-7.15 -15.15 Q-4.85 -15.25 -1.9 -13.65 2.8 -11.05 2.8 -5.75 2.8 -1.5 0.25 1.85 -2.5 5.45 -6.4 5.45 -9.25 5.45 -11.2 3.45 -13.5 1.1 -13.5 -3.35 -13.5 -7.05 -12.0 -10.85 L-10.7 -13.6 -9.8 -14.8 -7.15 -15.15 M-9.1 -1.85 L-9.45 0.15 Q-9.45 1.1 -9.0 1.6 L-8.25 1.95 Q-6.45 1.95 -6.45 -0.9 -6.45 -2.9 -8.25 -2.9 -8.7 -2.9 -9.1 -1.85" fill="#e1e1ea" fill-rule="evenodd" stroke="none"/>
    <path d="M-7.15 -15.15 L-9.8 -14.8 -10.7 -13.6 -12.0 -10.85 Q-13.5 -7.05 -13.5 -3.35 -13.5 1.1 -11.2 3.45 -9.25 5.45 -6.4 5.45 -2.5 5.45 0.25 1.85 2.8 -1.5 2.8 -5.75 2.8 -11.05 -1.9 -13.65 -4.85 -15.25 -7.15 -15.15 M-8.35 -16.4 Q-7.95 -16.5 -6.75 -17.05 L-3.75 -17.7 Q-0.7 -17.7 0.2 -14.35 M-9.1 -1.85 L-9.45 0.15 Q-9.45 1.1 -9.0 1.6 L-8.25 1.95 Q-6.45 1.95 -6.45 -0.9 -6.45 -2.9 -8.25 -2.9 -8.7 -2.9 -9.1 -1.85 M-12.35 4.5 L-7.5 6.15" fill="none" stroke="#660000" stroke-linecap="round" stroke-linejoin="round" stroke-opacity="0.4" stroke-width="1"/>
  </g>
</svg>