<?xml version="1.0" encoding="UTF-8" standalone="no"?>
<svg xmlns:xlink="http://www.w3.org/1999/xlink" height="47.4px" width="37.9px" xmlns="http://www.w3.org/2000/svg">
  <g transform="matrix(1.0, 0.0, 0.0, 1.0, 18.95, 23.7)">
    <path d="M-17.55 2.0 Q-18.15 -1.5 -17.9 -5.75 -17.6 -11.7 -13.5 -15.9 L-11.25 -17.9 Q-5.0 -22.7 1.75 -22.7 8.45 -22.7 13.45 -16.5 L15.3 -13.9 16.25 -12.0 16.1 -10.65 Q15.6 -8.3 14.15 -8.3 L12.9 -8.7 Q12.7 -8.8 12.55 -8.85 9.9 -8.85 5.85 -5.8 L4.95 -5.15 Q0.3 -1.45 -0.45 -1.45 L-0.95 -1.65 -1.5 -1.85 Q-1.85 -1.85 -3.0 -3.1 L-4.45 -4.55 -8.6 -5.1 -9.1 -5.1 Q-12.8 -5.0 -14.8 -3.45 -17.0 -1.7 -17.55 2.0 M10.65 3.7 L10.1 3.7 Q11.15 2.65 11.65 1.25 L11.75 0.9 11.9 -0.45 11.9 -1.1 11.5 -3.1 12.45 -3.3 Q14.05 -3.3 14.05 -1.4 L14.05 -0.9 14.0 -0.95 13.25 -1.25 11.9 -1.1 13.25 -1.25 14.0 -0.95 14.05 -0.9 Q13.9 0.3 13.05 1.6 L12.9 1.8 12.85 1.8 Q11.95 3.0 10.65 3.7 M-6.9 -7.85 L-9.55 -8.45 -6.9 -7.85 M11.65 1.25 L12.8 1.3 13.05 1.6 12.8 1.3 11.65 1.25" fill="#faf8f8" fill-rule="evenodd" stroke="none"/>
    <path d="M16.25 -12.0 Q18.7 -6.65 17.6 -3.2 16.3 0.85 14.2 2.35 L13.9 2.55 Q12.25 3.6 10.65 3.7 11.95 3.0 12.85 1.8 L12.9 1.8 13.05 1.6 Q13.9 0.3 14.05 -0.9 L14.05 -1.4 Q14.05 -3.3 12.45 -3.3 L11.5 -3.1 11.35 -3.45 Q10.45 -5.15 8.15 -5.8 7.6 -4.5 7.35 -3.2 6.4 1.05 8.6 5.15 L9.75 7.4 Q12.15 12.0 12.15 15.05 12.15 17.9 11.0 20.05 9.55 22.7 6.75 22.7 -0.3 22.7 -3.5 21.3 -6.1 20.2 -10.2 15.85 -13.8 12.0 -15.8 7.75 L-16.3 6.55 Q-17.15 4.45 -17.55 2.0 -17.0 -1.7 -14.8 -3.45 -12.8 -5.0 -9.1 -5.1 L-8.6 -5.1 -4.45 -4.55 -3.0 -3.1 Q-1.85 -1.85 -1.5 -1.85 L-0.95 -1.65 -0.45 -1.45 Q0.3 -1.45 4.95 -5.15 L5.85 -5.8 Q9.9 -8.85 12.55 -8.85 12.7 -8.8 12.9 -8.7 L14.15 -8.3 Q15.6 -8.3 16.1 -10.65 L16.25 -12.0 M8.15 -5.8 L8.95 -6.6 Q10.7 -8.0 12.9 -8.7 10.7 -8.0 8.95 -6.6 L8.15 -5.8 M14.55 -0.5 L14.05 -0.9 14.55 -0.5 M13.7 -6.55 Q12.55 -6.55 11.15 -5.8 12.55 -6.55 13.7 -6.55 M13.35 -4.3 L11.35 -3.45 13.35 -4.3 M13.4 2.2 L13.05 1.6 13.4 2.2 M0.95 15.35 L-2.05 15.25 Q-4.45 15.0 -5.35 14.5 -4.45 15.0 -2.05 15.25 L0.95 15.35 M-6.4 6.35 Q-7.65 6.6 -8.65 6.35 -7.65 6.6 -6.4 6.35 M-4.0 11.3 L-6.55 11.1 -9.15 10.7 -6.55 11.1 -4.0 11.3 M3.5 19.75 L1.9 20.1 0.2 20.2 1.9 20.1 3.5 19.75 M6.95 20.95 Q6.4 21.1 5.3 21.55 6.4 21.1 6.95 20.95" fill="#d6baba" fill-rule="evenodd" stroke="none"/>
    <path d="M-17.55 2.0 Q-18.15 -1.5 -17.9 -5.75 -17.6 -11.7 -13.5 -15.9 L-11.25 -17.9 Q-5.0 -22.7 1.75 -22.7 8.45 -22.7 13.45 -16.5 L15.3 -13.9 16.25 -12.0 Q18.7 -6.65 17.6 -3.2 16.3 0.85 14.2 2.35 L13.9 2.55 Q12.25 3.6 10.65 3.7 L10.1 3.7 Q11.15 2.65 11.65 1.25 L11.75 0.9 11.9 -0.45 11.9 -1.1 11.5 -3.1 11.35 -3.45 Q10.45 -5.15 8.15 -5.8 7.6 -4.5 7.35 -3.2 6.4 1.05 8.6 5.15 L9.75 7.4 Q12.15 12.0 12.15 15.05 12.15 17.9 11.0 20.05 9.55 22.7 6.75 22.7 -0.3 22.7 -3.5 21.3 -6.1 20.2 -10.2 15.85 -13.8 12.0 -15.8 7.75 L-16.3 6.55 Q-17.15 4.45 -17.55 2.0 M12.9 -8.7 Q10.7 -8.0 8.95 -6.6 L8.15 -5.8 M14.05 -0.9 L14.55 -0.5 M11.9 -1.1 L13.25 -1.25 14.0 -0.95 14.05 -0.9 M13.05 1.6 L13.4 2.2 M11.35 -3.45 L13.35 -4.3 M11.15 -5.8 Q12.55 -6.55 13.7 -6.55 M-9.55 -8.45 L-6.9 -7.85 M-9.15 10.7 L-6.55 11.1 -4.0 11.3 M-8.65 6.35 Q-7.65 6.6 -6.4 6.35 M-5.35 14.5 Q-4.45 15.0 -2.05 15.25 L0.95 15.35 M13.05 1.6 L12.8 1.3 11.65 1.25 M5.3 21.55 Q6.4 21.1 6.95 20.95 M0.2 20.2 L1.9 20.1 3.5 19.75" fill="none" stroke="#660000" stroke-linecap="round" stroke-linejoin="round" stroke-opacity="0.4" stroke-width="1"/>
  </g>
</svg>