<?xml version="1.0" encoding="UTF-8" standalone="no"?>
<svg xmlns:xlink="http://www.w3.org/1999/xlink" height="16px" width="12.65px" xmlns="http://www.w3.org/2000/svg">
  <g transform="matrix(1.0, 0.0, 0.0, 1.0, 1.35, 6.6)">
    <path d="M0.7 -2.95 L5.65 -2.15 10.1 -1.2 10.3 -0.35 10.3 0.65 8.9 0.45 Q7.5 0.45 6.0 1.05 L6.0 1.2 Q5.95 0.25 5.1 0.25 4.15 0.25 2.5 0.85 1.4 1.25 0.85 1.75 L0.8 1.15 0.7 -2.95" fill="#330000" fill-rule="evenodd" stroke="none"/>
    <path d="M10.1 -1.2 L5.65 -2.15 0.7 -2.95 0.7 -3.3 -0.35 -5.6 3.75 -5.2 6.35 -4.8 9.05 -4.1 Q9.4 -4.0 9.75 -2.75 L10.1 -1.2 M0.85 1.75 Q1.4 1.25 2.5 0.85 4.15 0.25 5.1 0.25 5.95 0.25 6.0 1.2 L6.0 1.25 Q6.0 2.0 5.35 2.4 L4.25 2.75 Q2.45 3.0 2.4 3.6 L4.3 3.9 Q6.4 4.2 10.3 6.0 L10.3 6.35 10.15 8.4 9.2 8.4 Q6.8 7.35 5.95 7.45 L4.3 7.2 3.05 6.75 Q2.55 6.65 1.7 5.1 0.95 3.75 0.85 1.75" fill="#f0f0f4" fill-rule="evenodd" stroke="none"/>
    <path d="M6.0 1.2 L6.0 1.05 Q7.5 0.45 8.9 0.45 L10.3 0.65 10.3 1.8 10.3 6.0 Q6.4 4.2 4.3 3.9 L2.4 3.6 Q2.45 3.0 4.25 2.75 L5.35 2.4 Q6.0 2.0 6.0 1.25 L6.0 1.2" fill="#990000" fill-rule="evenodd" stroke="none"/>
    <path d="M0.7 -2.95 L5.65 -2.15 10.1 -1.2 9.75 -2.75 Q9.4 -4.0 9.05 -4.1 L6.35 -4.8 3.75 -5.2 -0.35 -5.6 0.7 -3.3 0.7 -2.95 0.8 1.15 0.85 1.75 Q1.4 1.25 2.5 0.85 4.15 0.25 5.1 0.25 5.95 0.25 6.0 1.2 L6.0 1.25 Q6.0 2.0 5.35 2.4 L4.25 2.75 Q2.45 3.0 2.4 3.6 L4.3 3.9 Q6.4 4.2 10.3 6.0 L10.3 6.35 10.15 8.4 9.2 8.4 Q6.8 7.35 5.95 7.45 L4.3 7.2 3.05 6.75 Q2.55 6.65 1.7 5.1 0.95 3.75 0.85 1.75 M10.3 0.65 L10.3 -0.35 10.1 -1.2 M10.3 0.65 L10.3 1.8 10.3 6.0" fill="none" stroke="#660000" stroke-linecap="round" stroke-linejoin="round" stroke-opacity="0.4" stroke-width="1"/>
  </g>
</svg>