<?xml version="1.0" encoding="UTF-8" standalone="no"?>
<svg xmlns:xlink="http://www.w3.org/1999/xlink" height="9.35px" width="9.9px" xmlns="http://www.w3.org/2000/svg">
  <g transform="matrix(1.0, 0.0, 0.0, 1.0, 3.6, 5)">
    <path d="M2.85 2.8 L0.85 3.2 0.0 3.35 Q-2.6 3.35 -2.6 1.25 L-2.3 0.25 -2.05 -1.4 -2.15 -2.75 Q-2.15 -4.0 -1.2 -4.0 L0.85 -3.35 1.45 -3.0 2.15 -2.5 2.75 -2.2 3.3 -2.05 4.15 -1.65 4.6 -1.65 5.2 -1.1 5.3 -0.5 Q5.4 0.6 4.6 1.7 3.9 2.85 3.15 2.85 L2.85 2.8 M-0.5 -0.7 L-0.55 -0.85 -1.05 -1.65 -0.55 -0.85 -0.5 -0.7 -0.75 -0.3 -0.95 0.35 Q-0.95 1.05 -0.35 1.3 L-0.2 0.7 Q-0.2 0.0 -0.5 -0.7" fill="#faf8f8" fill-rule="evenodd" stroke="none"/>
    <path d="M-0.5 -0.7 Q-0.2 0.0 -0.2 0.7 L-0.35 1.3 Q-0.95 1.05 -0.95 0.35 L-0.75 -0.3 -0.5 -0.7" fill="#330000" fill-rule="evenodd" stroke="none"/>
    <path d="M3.3 -2.05 L2.75 -2.2 2.15 -2.5 1.45 -3.0 0.85 -3.35 -1.2 -4.0 Q-2.15 -4.0 -2.15 -2.75 L-2.05 -1.4 -2.3 0.25 -2.6 1.25 Q-2.6 3.35 0.0 3.35 L0.85 3.2 2.85 2.8 M-1.05 -1.65 L-0.55 -0.85 -0.5 -0.7 Q-0.2 0.0 -0.2 0.7 L-0.35 1.3 Q-0.95 1.05 -0.95 0.35 L-0.75 -0.3 -0.5 -0.7" fill="none" stroke="#660000" stroke-linecap="round" stroke-linejoin="round" stroke-opacity="0.4" stroke-width="1"/>
  </g>
</svg>