<?xml version="1.0" encoding="UTF-8" standalone="no"?>
<svg xmlns:xlink="http://www.w3.org/1999/xlink" height="23.2px" width="9.05px" xmlns="http://www.w3.org/2000/svg">
  <g transform="matrix(1.0, 0.0, 0.0, 1.0, 4.6, 12.9)">
    <path d="M-1.8 3.8 L-2.1 1.9 Q-2.1 0.0 -1.3 0.0 L-1.05 -0.15 Q-0.6 -0.15 -0.3 0.3 0.15 0.85 0.15 1.9 L-0.1 3.4 Q-0.45 4.5 -1.2 4.5 L-1.8 3.8" fill="#000000" fill-rule="evenodd" stroke="none"/>
    <path d="M1.45 -7.75 Q3.45 -5.8 3.45 -0.9 3.45 2.5 2.5 4.8 1.45 7.25 -0.45 7.25 -3.6 7.25 -3.6 -1.65 -3.6 -4.9 -3.15 -6.3 -2.8 -7.7 -1.6 -8.5 L-0.7 -8.75 Q0.45 -8.75 1.45 -7.75 M-1.8 3.8 L-1.2 4.5 Q-0.45 4.5 -0.1 3.4 L0.15 1.9 Q0.15 0.85 -0.3 0.3 -0.6 -0.15 -1.05 -0.15 L-1.3 0.0 Q-2.1 0.0 -2.1 1.9 L-1.8 3.8" fill="#e1e1ea" fill-rule="evenodd" stroke="none"/>
    <path d="M1.45 -7.75 Q0.45 -8.75 -0.7 -8.75 L-1.6 -8.5 Q-2.8 -7.7 -3.15 -6.3 -3.6 -4.9 -3.6 -1.65 -3.6 7.25 -0.45 7.25 1.45 7.25 2.5 4.8 3.45 2.5 3.45 -0.9 3.45 -5.8 1.45 -7.75 M-0.8 -10.55 Q-0.5 -11.9 1.15 -11.9 2.15 -11.9 2.7 -10.35 M-1.8 3.8 L-1.2 4.5 Q-0.45 4.5 -0.1 3.4 L0.15 1.9 Q0.15 0.85 -0.3 0.3 -0.6 -0.15 -1.05 -0.15 L-1.3 0.0 Q-2.1 0.0 -2.1 1.9 L-1.8 3.8 M-3.5 5.55 Q-3.7 7.5 -2.7 8.55 -2.05 9.3 -1.3 9.3 L-0.55 9.25" fill="none" stroke="#660000" stroke-linecap="round" stroke-linejoin="round" stroke-opacity="0.4" stroke-width="1"/>
  </g>
</svg>