<?xml version="1.0" encoding="UTF-8" standalone="no"?>
<svg xmlns:xlink="http://www.w3.org/1999/xlink" height="20.65px" width="53.35px" xmlns="http://www.w3.org/2000/svg">
  <g transform="matrix(1.0, 0.0, 0.0, 1.0, 24.1, -10.4)">
    <path d="M26.4 17.35 Q27.7 17.35 28.1 19.0 L28.25 20.75 Q28.25 23.6 24.55 26.15 20.8 28.65 14.6 29.3 L14.55 29.3 14.4 29.35 4.95 30.05 Q-11.15 30.05 -18.3 26.75 -23.1 24.55 -23.1 21.45 L-22.8 18.9 -22.75 18.9 -22.8 18.0 Q-22.8 17.2 -22.35 16.65 L-22.05 16.35 -22.3 16.6 -21.8 13.8 Q-21.3 11.6 -21.0 11.4 -20.6 11.55 -20.5 11.8 L-20.45 12.25 -20.5 14.6 -19.5 14.15 -16.3 13.5 -16.0 12.05 -15.85 12.05 Q-15.6 12.75 -15.6 13.4 L-8.45 12.1 -6.35 12.05 12.15 12.7 Q23.7 14.0 26.1 17.4 L26.4 17.35 M21.55 17.45 Q21.75 18.65 23.15 20.4 L24.3 22.05 24.7 21.5 Q25.55 20.2 25.55 19.05 25.55 15.95 22.35 14.95 L20.85 14.65 Q21.25 15.35 21.55 17.45 M20.3 20.0 L19.7 16.5 19.9 14.9 Q19.25 15.2 19.15 16.15 L17.75 15.8 Q11.55 14.45 2.4 14.1 L-12.95 14.55 -13.75 14.7 -14.5 14.8 -14.75 14.85 Q-15.0 14.2 -15.6 14.0 L-15.6 14.2 Q-15.6 15.4 -16.65 18.9 -17.4 21.45 -18.15 22.5 L-18.35 22.3 -18.0 22.6 -17.5 22.9 Q-16.45 23.5 -15.15 23.7 L-14.6 24.0 -14.6 23.95 Q-14.6 22.65 -12.9 18.8 -11.2 14.95 -11.2 17.3 -11.2 17.9 -12.3 20.65 -13.35 23.25 -14.15 24.15 L-12.0 24.65 -6.9 25.3 -5.25 25.9 -1.1 26.55 -0.45 25.4 1.25 22.25 1.65 19.4 Q1.85 17.7 2.9 17.25 5.05 16.3 5.55 18.05 L5.75 20.75 6.85 23.75 7.75 25.95 Q7.75 26.55 7.4 26.9 L5.95 26.75 5.85 27.2 Q7.45 27.15 8.35 26.5 9.25 25.75 10.35 25.75 L12.15 26.15 11.85 26.05 11.8 25.95 11.8 25.35 Q11.8 20.65 12.3 16.3 13.9 16.15 13.85 17.85 L13.45 19.65 Q13.2 24.8 12.75 26.05 L16.65 24.85 18.1 24.4 17.35 22.4 16.8 19.85 Q16.8 18.25 17.0 17.95 17.3 17.45 18.2 19.95 L19.0 22.25 19.55 24.0 21.65 23.45 22.55 23.25 Q21.1 22.6 20.3 20.0 M1.25 26.1 L1.2 26.0 0.75 26.75 1.2 26.8 1.25 26.1 M-16.95 13.95 L-17.6 14.05 -18.15 14.25 Q-19.45 14.75 -20.05 15.7 -20.65 16.5 -20.65 17.65 L-20.65 17.75 -20.65 17.9 Q-20.65 19.25 -19.75 20.7 L-19.45 21.15 -19.6 20.9 Q-18.2 16.2 -16.95 13.95" fill="#ffdec4" fill-rule="evenodd" stroke="none"/>
  </g>
</svg>