<?xml version="1.0" encoding="UTF-8" standalone="no"?>
<svg xmlns:xlink="http://www.w3.org/1999/xlink" height="22.25px" width="67.55px" xmlns="http://www.w3.org/2000/svg">
  <g transform="matrix(1.0, 0.0, 0.0, 1.0, 32.75, -7.85)">
    <path d="M32.5 12.25 L32.55 12.65 Q32.55 13.25 31.85 14.15 L30.85 15.2 31.65 15.4 Q33.8 16.05 33.8 17.3 33.8 19.8 29.25 21.5 L27.9 21.85 27.85 21.9 Q28.5 22.6 29.65 22.85 30.5 23.0 30.5 23.65 30.5 24.4 29.75 24.4 L23.55 24.25 20.85 24.35 Q16.8 25.55 8.55 27.4 L9.05 27.9 9.5 28.3 9.25 28.85 8.65 29.1 5.45 27.5 3.75 27.1 2.8 26.4 1.05 26.0 Q-0.65 26.0 -1.05 27.3 -1.45 28.6 -1.9 28.6 -2.45 28.6 -2.7 27.85 L-3.25 26.2 Q-4.55 23.8 -10.0 23.8 L-12.55 24.2 -14.9 24.55 Q-15.4 24.55 -16.15 25.0 -16.9 25.4 -17.35 25.4 -18.25 25.4 -18.45 24.95 L-18.5 24.45 -18.25 23.05 -20.8 21.55 -21.2 21.55 -24.2 21.9 -26.7 22.25 Q-30.85 22.25 -30.85 21.15 -30.85 20.5 -29.3 19.8 L-27.2 18.85 -27.25 18.75 Q-27.55 17.65 -28.9 15.35 L-30.1 13.1 -30.1 13.0 -30.35 12.65 -31.75 10.85 -31.05 10.15 -30.25 9.9 -28.75 9.95 Q-27.7 9.05 -25.8 8.85 L-8.1 9.45 13.6 10.45 Q17.35 10.85 24.7 13.35 L27.55 14.3 26.95 14.1 Q27.7 13.7 28.9 13.25 31.9 12.1 32.4 12.1 L32.5 12.25 M29.1 14.75 L29.85 14.95 29.75 14.7 29.7 14.55 29.1 14.75 M25.9 22.4 L25.55 22.5 26.15 22.6 25.9 22.4" fill="#ffdec4" fill-rule="evenodd" stroke="none"/>
  </g>
</svg>