<?xml version="1.0" encoding="UTF-8" standalone="no"?>
<svg xmlns:xlink="http://www.w3.org/1999/xlink" height="27.35px" width="77px" xmlns="http://www.w3.org/2000/svg">
  <g transform="matrix(1.0, 0.0, 0.0, 1.0, 36.15, -4.5)">
    <path d="M38.4 13.35 L38.35 12.7 Q38.35 11.9 39.1 11.8 39.85 11.7 39.85 12.6 39.85 13.55 39.1 13.55 L38.4 13.35 M34.75 18.25 Q34.75 22.0 27.5 24.95 20.2 27.85 6.8 27.7 L-6.6 27.15 Q-6.3 27.45 -6.3 28.0 -6.3 28.35 -6.75 28.9 -7.35 29.6 -8.15 29.6 -9.25 29.6 -9.25 28.4 -9.25 27.3 -8.35 27.0 -15.3 26.4 -21.8 23.4 -30.5 19.35 -30.5 13.95 L-30.1 14.2 -30.15 13.25 Q-30.15 11.6 -27.6 10.9 -24.05 9.95 -13.95 9.9 -3.9 10.3 13.1 12.5 L31.3 14.1 Q33.4 14.4 34.05 15.05 34.55 15.55 34.6 16.8 L34.75 18.25 M37.05 20.5 Q36.2 20.5 36.0 20.05 L35.95 19.55 Q35.95 18.8 37.5 18.5 39.0 18.25 39.0 19.35 39.0 20.5 37.05 20.5 M11.05 30.85 Q10.2 30.85 9.95 30.3 L9.9 29.9 Q9.9 28.9 11.2 28.95 12.5 28.95 12.5 29.95 12.5 30.85 11.05 30.85 M-34.25 11.55 Q-33.2 11.6 -31.25 12.6 -31.95 13.3 -32.2 13.3 -35.15 13.3 -35.15 12.25 -35.15 11.55 -34.25 11.55 M-32.2 7.95 L-32.6 8.1 -33.55 7.6 -34.7 6.6 -34.75 6.3 Q-34.75 5.0 -33.45 5.85 -32.2 6.7 -32.1 7.7 L-32.2 7.95 M-32.6 21.45 Q-32.6 20.25 -30.6 20.25 -28.65 20.25 -28.65 21.2 -28.65 21.65 -29.65 22.1 L-31.05 22.45 Q-32.6 22.45 -32.6 21.45" fill="#ffdec4" fill-rule="evenodd" stroke="none"/>
  </g>
</svg>