<?xml version="1.0" encoding="UTF-8" standalone="no"?>
<svg xmlns:xlink="http://www.w3.org/1999/xlink" height="113.5px" width="80.05px" xmlns="http://www.w3.org/2000/svg">
  <g transform="matrix(1.0, 0.0, 0.0, 1.0, 122.5, 44.8)">
    <path d="M-91.6 15.75 Q-94.2 17.65 -100.75 24.75 -105.8 30.2 -107.45 32.5 L-100.4 21.3 -92.45 8.6 Q-92.95 12.3 -91.6 15.75 M-43.45 7.15 Q-45.55 8.0 -55.55 9.8 -64.55 11.4 -65.3 12.15 L-59.45 29.75 Q-53.35 47.7 -50.35 53.3 -51.0 53.3 -51.0 52.7 L-61.95 37.6 -72.7 22.7 Q-72.2 25.0 -75.7 40.95 L-81.5 67.7 -82.1 67.7 -86.5 41.75 -90.45 17.95 Q-87.0 23.15 -78.2 23.15 -71.0 23.15 -67.25 15.25 -66.0 12.6 -65.35 9.4 -64.85 7.05 -64.85 5.75 -64.85 2.15 -65.65 -0.75 L-55.8 2.35 Q-45.8 5.55 -43.45 7.15 M-47.8 -30.75 L-47.25 -30.75 Q-47.65 -29.4 -54.45 -18.45 L-61.2 -7.5 -61.9 -7.65 -61.5 -7.05 -61.2 -7.5 -59.6 -7.1 Q-52.0 -5.3 -49.7 -5.8 L-49.7 -5.15 Q-51.95 -5.4 -57.75 -3.65 L-65.75 -1.1 Q-66.85 -4.6 -69.15 -7.0 -70.9 -8.8 -73.0 -9.7 -69.05 -12.7 -60.3 -19.8 -48.5 -29.4 -47.8 -30.75 M-121.5 -9.35 L-101.35 -7.55 -86.55 -7.05 -91.35 -17.55 -95.5 -25.95 -88.9 -17.2 -82.9 -9.25 Q-85.8 -7.85 -88.1 -5.05 -91.55 -0.8 -92.25 5.25 L-102.7 0.0 -121.5 -9.35 M-81.25 -26.95 Q-81.15 -35.0 -81.5 -43.2 L-81.5 -43.8 Q-80.75 -41.5 -77.7 -26.5 -75.0 -13.2 -74.65 -10.2 L-78.6 -10.4 Q-80.75 -10.2 -82.6 -9.35 -81.4 -14.5 -81.25 -26.95" fill="#ffffff" fill-rule="evenodd" stroke="none"/>
  </g>
</svg>