<?xml version="1.0" encoding="UTF-8" standalone="no"?>
<svg xmlns:xlink="http://www.w3.org/1999/xlink" height="133.05px" width="93.75px" xmlns="http://www.w3.org/2000/svg">
  <g transform="matrix(1.0, 0.0, 0.0, 1.0, 129.35, 54.6)">
    <path d="M-103.95 27.0 L-111.85 36.1 -103.55 22.95 -101.65 19.95 -100.05 22.85 -103.95 27.0 M-55.1 10.2 Q-54.5 7.6 -54.05 4.75 L-53.5 -0.15 -51.1 0.65 Q-39.35 4.45 -36.6 6.35 -39.1 7.3 -50.8 9.4 L-55.1 10.2 M-58.35 42.1 L-66.5 30.7 Q-62.25 27.3 -59.25 21.55 L-55.45 32.85 Q-48.3 54.0 -44.7 60.6 -45.45 60.6 -45.45 59.85 L-58.35 42.1 M-81.0 35.45 Q-76.1 35.45 -72.0 33.85 L-74.5 46.05 -81.3 77.45 -82.05 77.45 -87.2 47.0 -89.45 33.45 Q-85.5 35.45 -81.0 35.45 M-43.95 -8.9 L-43.95 -8.15 Q-46.6 -8.45 -53.4 -6.4 L-53.7 -6.3 Q-54.0 -8.4 -54.7 -10.25 -46.55 -8.35 -43.95 -8.9 M-56.4 -25.4 Q-42.55 -36.65 -41.75 -38.2 L-41.05 -38.2 Q-41.55 -36.65 -49.55 -23.75 L-56.05 -13.2 Q-58.05 -16.5 -61.45 -18.85 L-63.15 -19.9 -56.4 -25.4 M-87.85 -19.55 L-90.65 -17.95 -92.9 -22.75 -97.8 -32.6 -90.0 -22.35 -87.85 -19.55 M-103.45 -0.65 L-106.25 -2.05 Q-118.6 -8.35 -128.35 -13.05 -119.5 -11.75 -104.65 -10.95 L-98.5 -10.65 Q-101.9 -6.2 -103.45 -0.65 M-81.3 -52.9 L-81.3 -53.6 Q-80.4 -50.85 -76.85 -33.25 L-74.75 -22.65 -79.05 -22.25 -81.45 -21.8 Q-81.1 -26.8 -81.05 -33.75 -80.95 -43.25 -81.3 -52.9" fill="#ffffff" fill-rule="evenodd" stroke="none"/>
  </g>
</svg>