<?xml version="1.0" encoding="UTF-8" standalone="no"?>
<svg xmlns:xlink="http://www.w3.org/1999/xlink" height="91.45px" width="64.6px" xmlns="http://www.w3.org/2000/svg">
  <g transform="matrix(1.0, 0.0, 0.0, 1.0, 114.8, 33.8)">
    <path d="M-74.8 -0.75 Q-76.6 -1.95 -79.05 -1.05 -81.6 -0.1 -83.35 2.5 -85.25 5.35 -85.25 9.15 -85.35 10.4 -84.7 11.55 -83.5 13.8 -79.95 13.8 -75.65 13.8 -73.9 9.15 -72.9 6.6 -72.9 3.95 -72.9 0.55 -74.8 -0.75 M-82.15 -4.1 L-82.5 -4.6 -81.7 -3.3 -81.7 -3.8 -82.15 -4.1 M-81.7 -32.3 L-81.7 -32.8 Q-81.1 -30.9 -78.65 -18.9 -76.15 -6.75 -76.15 -5.3 -75.7 -5.3 -75.7 -4.85 L-64.7 -13.55 Q-55.2 -21.25 -54.7 -22.3 L-54.2 -22.3 Q-54.55 -21.25 -60.0 -12.4 L-65.45 -3.65 -65.95 -3.8 -65.65 -3.3 -65.45 -3.65 -64.15 -3.35 Q-58.05 -1.9 -56.2 -2.3 L-56.2 -1.8 Q-58.0 -1.95 -62.65 -0.55 L-69.7 1.7 -69.2 1.7 Q-65.1 2.9 -61.1 4.25 -53.05 6.85 -51.2 8.1 -52.85 8.75 -60.9 10.2 -68.1 11.5 -68.7 12.1 L-64.0 26.2 Q-59.15 40.65 -56.7 45.15 -57.2 45.15 -57.2 44.65 L-66.0 32.55 Q-74.05 21.2 -74.65 20.6 -74.25 22.45 -77.05 35.25 L-81.7 56.65 -82.2 56.65 -85.7 35.85 -89.2 14.65 Q-91.1 15.65 -97.15 22.2 L-102.55 28.45 -96.85 19.45 -89.2 7.1 -98.7 2.35 -113.8 -5.1 -97.6 -3.7 -85.75 -3.3 -89.6 -11.75 -92.95 -18.45 -87.6 -11.45 -82.65 -4.8 Q-81.6 -8.8 -81.5 -19.25 -81.45 -25.75 -81.7 -32.3" fill="#ffffff" fill-rule="evenodd" stroke="none"/>
  </g>
</svg>