<?xml version="1.0" encoding="UTF-8" standalone="no"?>
<svg xmlns:xlink="http://www.w3.org/1999/xlink" height="190.5px" width="184.85px" xmlns="http://www.w3.org/2000/svg">
  <g transform="matrix(1.0, 0.0, 0.0, 1.0, -3, -3.25)">
    <path d="M180.7 60.35 L186.85 79.65 184.6 122.7 169.5 152.65 141.75 181.65 87.85 192.75 37.8 177.05 14.25 150.85 4.0 120.65 4.0 83.2 20.9 40.55 51.15 15.05 84.35 4.25 130.5 7.55 164.5 28.95 180.7 60.35" fill="#627979" fill-rule="evenodd" stroke="none"/>
    <path d="M180.7 60.35 L164.5 28.95 130.5 7.55 84.35 4.25 51.15 15.05 20.9 40.55 4.0 83.2 4.0 120.65 14.25 150.85 37.8 177.05 87.85 192.75 141.75 181.65 169.5 152.65 184.6 122.7 186.85 79.65 180.7 60.35 Z" fill="none" stroke="#253131" stroke-linecap="round" stroke-linejoin="round" stroke-width="1"/>
    <path d="M157.95 39.25 L163.0 39.05 Q166.7 39.55 167.4 40.05 169.0 41.25 168.7 44.6 L167.6 57.45 167.5 58.35 Q166.5 69.0 166.6 72.3 L166.6 72.7 Q171.2 74.2 175.95 78.05 178.05 79.95 180.15 84.05 181.95 87.2 182.05 88.5 179.95 85.75 171.75 79.85 164.1 74.5 164.1 74.3 L164.1 73.9 Q164.2 68.7 165.3 61.45 L165.9 57.45 Q166.6 51.15 166.6 42.8 L164.7 41.05 158.85 40.85 158.65 40.85 157.95 39.25 M25.25 45.35 Q25.5 42.25 26.8 39.75 29.1 34.95 33.8 31.85 L51.2 28.4 Q57.2 21.6 60.95 19.75 64.85 17.95 72.5 15.65 L74.95 15.5 72.75 17.45 Q67.65 18.15 62.15 20.7 L59.5 22.3 Q58.5 22.4 55.7 26.9 L52.4 31.85 49.0 31.25 44.15 30.9 44.05 30.9 41.75 31.45 Q34.8 33.35 30.5 37.65 28.3 39.85 27.2 42.25 L26.45 44.55 25.25 45.35 M153.95 45.8 L155.15 47.9 Q155.95 48.9 156.45 49.0 L154.45 52.1 Q153.0 54.55 152.0 57.15 151.25 59.1 150.75 61.15 149.7 65.7 148.8 67.7 148.0 69.4 148.0 70.2 148.0 70.9 150.05 74.0 151.75 76.25 152.55 78.55 154.15 77.45 156.35 76.45 160.55 74.5 162.5 74.2 L162.4 74.9 Q162.4 75.3 165.6 77.55 163.8 78.35 162.4 78.35 155.95 78.35 150.75 82.55 L150.95 80.15 150.95 79.55 Q150.75 76.95 149.0 74.5 147.0 71.5 147.0 71.1 147.0 68.1 149.7 60.35 L150.9 57.1 Q152.95 51.55 154.55 49.8 154.05 48.2 152.75 46.5 L153.95 45.8 M174.15 106.25 L169.5 113.85 Q167.25 117.1 166.5 117.1 L161.2 116.4 Q158.4 115.75 153.7 113.65 L151.15 112.4 Q147.3 110.2 146.0 106.15 L145.8 105.35 Q145.3 103.15 145.5 100.35 L146.1 91.2 Q146.8 89.6 148.8 87.5 L148.2 90.9 Q147.6 94.9 147.6 97.2 147.6 101.85 148.1 105.05 148.4 107.75 148.8 108.15 150.25 109.8 157.45 112.7 L160.05 113.7 Q164.15 115.3 165.1 115.3 L166.65 113.8 174.15 106.25 M158.85 156.6 L155.05 160.85 155.55 158.9 156.15 155.5 155.45 150.45 Q155.05 147.55 156.75 145.55 L160.95 140.3 161.2 140.1 163.3 138.4 Q163.8 137.9 163.8 135.8 L161.6 120.6 161.7 120.5 Q162.8 119.4 162.8 119.0 L162.8 118.7 Q166.3 119.7 167.3 119.7 167.9 119.7 171.35 113.9 L175.45 106.65 178.15 101.95 180.75 97.3 181.55 96.95 181.8 99.35 181.85 99.65 Q180.4 102.2 177.55 108.65 L175.3 113.95 172.55 120.5 Q171.75 122.35 167.35 122.4 163.25 122.45 163.25 123.4 163.25 124.0 164.95 128.35 L165.05 128.65 Q166.6 132.85 166.6 136.8 166.6 137.65 162.2 142.8 L157.75 148.0 158.15 149.55 158.65 153.0 158.85 156.6 M122.15 23.05 Q127.5 25.15 128.65 26.6 130.35 28.7 131.05 32.45 L131.65 32.55 138.95 35.1 140.2 35.55 Q142.8 36.45 147.7 39.05 L151.85 41.35 Q151.95 41.05 155.25 40.0 L156.15 41.45 154.45 42.15 151.25 43.4 Q144.45 39.0 138.35 36.65 L137.35 36.25 Q131.75 34.15 128.65 35.15 L128.95 32.65 129.25 30.1 Q129.25 28.2 125.3 25.1 123.6 23.65 122.15 23.05 M121.15 91.6 L121.7 91.2 130.55 90.9 138.45 90.9 139.1 90.8 Q140.7 89.65 141.6 88.25 L145.0 83.15 Q147.75 78.7 147.75 77.4 147.75 76.1 146.75 74.75 145.45 73.0 143.25 72.75 143.65 70.15 146.0 60.85 L147.0 57.0 148.25 52.05 Q148.25 49.25 143.25 45.25 139.95 42.55 136.55 41.45 L131.5 40.65 Q130.15 40.65 128.85 41.9 L127.55 43.15 126.05 42.85 124.55 42.5 121.95 43.0 121.15 42.9 120.75 42.75 Q120.9 41.85 122.95 37.95 124.8 34.35 124.8 32.8 124.8 31.7 123.75 30.85 L121.15 28.85 117.6 24.15 Q115.75 21.55 113.3 21.55 111.5 21.55 110.1 22.45 L109.8 22.7 110.0 22.05 114.5 20.45 120.4 24.0 120.5 24.0 Q122.2 24.9 124.3 26.6 127.55 29.1 127.55 30.0 L127.4 33.35 126.9 35.85 Q124.7 37.35 124.3 41.25 126.9 37.95 129.85 37.65 133.3 37.25 137.4 39.2 L140.0 40.65 Q145.7 43.9 148.2 45.7 L149.3 47.0 Q151.05 48.8 151.05 49.9 L149.15 57.05 148.7 58.55 Q146.2 67.8 146.2 70.9 L148.2 74.0 Q149.95 76.85 149.95 79.85 L149.95 80.35 149.0 84.25 148.8 84.55 Q146.75 86.6 145.4 88.75 143.85 91.15 143.2 93.6 L142.5 93.6 134.1 93.05 129.35 92.6 121.15 91.6 M109.15 17.55 L109.55 18.15 110.05 19.65 107.95 20.5 100.5 43.1 86.05 58.55 85.65 57.65 84.85 56.15 84.6 55.7 83.05 53.3 82.3 52.3 80.3 49.3 78.7 46.6 Q80.4 47.2 82.3 48.8 L84.35 50.8 Q86.05 52.6 86.65 54.55 88.15 52.7 93.05 48.1 L98.1 43.0 98.6 42.25 Q104.5 26.4 104.8 23.8 105.15 20.0 109.15 17.55 M110.8 13.4 Q111.25 13.55 111.65 13.85 113.95 15.45 114.35 16.45 L121.0 13.95 122.5 15.45 112.85 18.75 112.85 18.05 111.55 16.35 111.45 16.25 109.75 14.5 Q110.55 14.25 110.8 13.6 L110.75 13.4 110.8 13.4 M104.15 13.2 L106.15 13.95 106.2 14.3 Q102.25 15.1 98.2 17.75 93.55 21.3 92.85 21.3 89.55 21.3 83.65 19.25 78.7 17.45 77.1 17.25 L76.6 17.15 76.45 17.15 77.75 15.95 Q80.05 16.55 82.85 17.85 89.65 20.9 96.6 16.85 101.3 14.2 104.15 13.2 M63.65 53.4 L74.4 47.0 76.4 40.35 77.2 37.85 77.9 35.75 79.0 32.55 Q79.1 32.15 82.75 27.8 L86.55 23.6 86.25 22.3 89.35 23.3 Q87.45 24.2 86.25 25.7 83.75 30.1 82.2 31.85 81.5 32.75 79.9 35.55 L78.9 37.35 78.8 37.45 Q75.6 42.8 75.6 44.3 L76.3 46.3 77.0 48.3 77.2 48.8 Q75.9 49.0 74.2 49.8 70.65 51.1 65.15 54.65 L63.65 53.4 M74.6 51.6 Q76.05 50.95 77.55 50.45 L82.9 57.95 87.9 65.35 89.35 67.8 Q90.1 69.45 94.95 76.85 99.7 84.15 100.75 85.3 102.5 87.2 106.4 89.05 103.55 93.0 99.35 100.25 97.1 104.1 93.95 108.55 L90.75 112.8 Q88.75 115.2 87.2 116.45 83.45 119.6 75.6 122.3 72.85 122.3 66.4 116.1 70.4 117.3 76.1 117.3 79.25 117.3 82.9 115.4 L87.25 112.75 89.1 111.4 Q92.65 108.8 97.65 100.85 102.25 93.55 102.25 91.85 102.25 90.55 99.05 86.5 L91.35 76.6 85.85 68.05 81.15 60.55 77.95 55.55 Q75.7 52.3 74.6 51.6 M96.25 54.25 L95.75 55.9 Q94.0 61.65 92.65 69.45 L90.75 65.75 89.45 63.3 Q88.25 61.35 87.25 60.25 L98.35 48.8 Q97.25 51.2 96.25 54.25 M96.6 110.65 L97.65 112.9 101.0 118.85 104.65 124.95 107.05 128.9 Q108.85 132.15 109.4 132.8 110.85 134.55 112.95 134.55 L117.15 134.1 119.05 134.25 120.15 134.4 120.8 134.4 124.1 134.5 125.0 123.85 Q125.3 122.15 128.35 117.1 L130.6 113.3 Q132.25 110.5 132.65 110.0 L133.75 108.65 Q134.55 107.65 137.85 106.65 L141.7 105.55 143.5 104.05 143.6 105.65 143.2 105.85 Q141.1 107.05 140.5 108.05 138.05 107.85 135.85 109.65 L134.65 110.6 Q133.65 111.75 132.6 113.35 130.8 116.05 128.85 120.1 126.5 122.95 126.1 128.75 125.6 134.7 124.0 137.0 L119.1 136.9 114.65 136.7 Q113.95 137.0 111.75 138.8 L111.1 139.45 110.8 139.0 104.4 128.45 103.75 127.35 Q97.1 116.1 96.25 112.85 L96.1 112.05 Q96.1 111.7 96.6 110.65 M50.6 33.35 L51.1 33.85 Q52.4 35.25 53.0 35.45 51.7 39.65 51.7 40.75 51.7 41.75 54.2 44.6 L55.8 46.4 57.8 48.5 62.35 53.1 63.05 53.65 64.65 54.95 64.1 55.25 63.25 55.65 61.85 56.65 56.2 60.35 Q52.55 62.6 52.2 62.45 L50.9 61.95 48.75 61.05 46.05 60.05 33.7 59.15 32.8 59.1 32.75 59.1 32.7 59.0 33.0 59.0 Q34.0 58.2 37.2 57.75 L39.75 57.45 44.65 56.85 45.05 56.85 47.45 57.65 Q49.6 58.35 53.5 60.05 L56.2 57.75 59.7 55.15 60.0 54.95 55.4 50.0 53.9 48.1 51.7 45.3 Q49.7 42.5 49.7 41.55 L50.3 37.75 50.8 34.55 50.6 33.35 M25.05 48.75 L25.25 48.55 26.15 47.55 26.15 47.6 Q26.35 49.5 28.2 54.05 L28.35 54.5 Q29.1 56.75 28.5 61.2 L24.9 63.95 23.9 61.65 25.3 60.05 Q26.75 58.45 26.75 57.5 L26.25 54.45 25.9 53.0 Q25.2 50.1 25.05 48.75 M21.75 63.6 L21.55 64.1 21.85 63.8 22.9 65.85 Q21.15 67.6 19.3 69.85 L16.95 72.9 14.6 76.35 12.9 72.3 15.65 70.1 18.05 67.55 Q20.0 65.2 20.0 64.2 20.0 62.5 18.5 59.4 L17.65 57.8 19.45 56.25 20.55 60.25 21.75 63.6 M24.5 103.05 L25.95 101.8 28.6 99.1 29.15 98.75 36.05 93.8 Q42.4 89.1 42.5 87.5 L43.35 71.35 Q43.45 69.15 45.9 65.95 L48.4 62.65 49.4 63.15 49.7 63.25 51.9 64.45 50.95 65.55 Q46.45 67.05 45.0 72.45 L45.0 72.9 Q45.0 74.85 44.5 76.6 L44.3 84.15 44.5 92.0 Q42.65 92.95 38.9 95.4 L30.35 101.3 Q27.05 103.7 26.0 104.95 L24.5 103.05 M16.45 124.05 Q18.8 121.2 18.8 120.8 L17.7 119.05 Q16.55 117.45 16.55 116.65 16.55 115.2 19.35 111.85 L19.4 111.75 21.6 108.9 22.1 108.05 22.25 107.65 21.4 105.9 20.15 104.1 20.0 103.9 16.05 97.8 Q14.2 94.85 13.5 94.45 L14.15 92.95 15.4 94.45 17.95 97.8 22.45 103.7 24.65 106.65 22.7 109.2 22.2 109.9 22.15 109.9 20.8 111.85 Q18.7 114.85 18.7 115.55 18.7 117.05 20.9 120.6 19.2 121.7 17.35 124.95 L16.45 124.05 M23.4 112.05 L28.1 120.15 Q34.25 130.5 36.9 133.05 L36.95 133.1 Q39.75 135.85 43.45 136.75 L52.8 137.55 Q59.7 137.55 63.15 134.1 66.8 130.45 66.8 122.65 66.8 121.8 63.7 118.8 60.65 115.9 59.75 113.0 L59.95 113.15 62.75 116.2 Q69.3 122.5 74.05 124.25 71.5 127.15 69.0 132.95 68.25 134.8 63.55 140.7 L55.85 140.7 Q44.15 139.95 39.05 138.25 37.55 137.75 36.45 137.05 L34.9 135.8 34.65 135.5 29.8 128.9 25.3 122.75 Q21.0 116.65 21.0 115.4 21.0 114.9 23.4 112.05 M78.95 165.35 Q78.35 163.6 77.0 161.9 73.45 158.0 70.9 154.6 68.15 150.9 67.0 150.05 66.35 149.55 64.75 149.35 L52.55 146.8 Q43.6 144.8 41.9 144.8 L40.4 145.0 40.0 145.1 40.05 144.3 40.2 141.65 56.55 143.45 66.25 145.0 Q67.65 148.05 72.8 155.25 L73.8 156.65 77.7 161.95 79.85 164.8 Q79.35 165.05 78.95 165.35 M80.9 162.15 L81.6 162.2 86.8 162.55 90.3 162.55 92.4 162.5 100.25 161.65 Q101.85 161.55 107.45 159.1 113.25 156.6 113.25 155.85 113.25 154.8 109.75 150.25 105.8 145.05 104.8 142.55 L102.2 137.4 100.85 134.95 98.25 130.25 Q95.55 125.2 94.0 118.45 93.4 115.8 92.75 114.7 L94.25 113.35 Q95.85 117.0 101.75 128.5 L102.65 130.25 Q108.55 141.65 111.15 144.35 L115.25 153.3 Q118.4 160.35 118.9 161.2 114.0 162.5 89.4 165.0 L83.35 165.6 81.6 163.1 80.9 162.15 M35.35 158.05 L35.3 157.7 Q34.75 152.4 34.75 151.0 35.05 145.1 34.75 143.9 34.45 142.7 31.4 140.45 L31.1 140.25 Q26.8 137.15 23.4 130.7 21.35 126.75 20.35 125.65 L22.15 122.55 27.6 129.9 32.85 137.25 33.3 137.95 33.9 139.1 Q34.55 140.05 36.2 140.65 L37.95 141.2 Q37.15 143.6 36.85 147.05 36.7 149.05 36.7 155.9 L36.75 158.25 35.35 158.05 M69.4 175.55 Q72.55 178.65 75.15 179.65 77.4 180.5 83.2 180.5 L83.45 180.5 87.45 179.85 89.3 179.15 Q89.15 178.55 88.55 171.5 88.4 169.6 88.05 168.5 L87.95 168.2 91.75 168.2 91.75 168.4 Q91.55 171.95 91.8 174.75 92.1 179.25 93.4 181.75 L86.6 182.75 82.3 183.5 78.9 184.35 Q77.9 184.75 74.7 182.6 L73.2 181.55 Q68.9 178.35 68.15 176.65 L68.1 176.5 68.15 176.45 69.4 175.55 M113.3 145.1 L113.45 145.0 113.7 145.25 114.45 146.05 Q118.3 150.35 118.8 152.05 121.7 149.75 130.35 146.35 139.0 142.9 143.25 142.45 145.9 142.15 148.3 145.3 149.7 147.2 151.05 150.35 L152.75 154.9 152.75 154.6 152.75 153.25 Q152.55 148.95 152.75 146.15 152.75 145.25 153.85 144.05 L155.05 142.8 158.25 139.2 Q160.35 136.7 160.35 135.7 L160.1 133.6 Q159.3 129.25 156.05 119.0 L155.25 116.5 156.05 117.5 157.05 119.4 158.45 122.15 Q158.45 123.85 160.15 129.15 L161.15 132.55 161.9 136.3 161.9 136.7 160.35 139.1 158.95 141.3 157.15 143.35 Q153.65 145.55 153.65 148.85 L154.15 152.45 154.75 155.8 154.25 158.6 Q153.9 159.9 154.15 161.8 L152.7 163.2 152.65 163.0 149.85 153.45 Q148.55 148.8 147.15 146.45 145.65 143.95 144.0 143.95 140.6 143.95 132.05 147.65 124.55 150.85 118.9 154.3 L116.35 150.75 Q114.05 147.4 113.05 145.25 L113.0 145.15 113.3 145.1 M142.1 146.45 L144.5 145.45 145.5 148.05 149.4 157.4 Q151.0 161.85 151.4 165.2 L143.8 172.1 143.1 172.65 Q140.15 174.75 134.9 176.15 130.55 177.3 128.15 177.3 121.8 177.3 118.95 175.5 L118.65 175.55 117.95 175.7 118.1 176.1 Q119.75 177.35 123.25 178.4 L116.9 176.55 115.15 175.95 112.85 175.15 112.25 173.6 112.5 176.1 Q112.5 178.0 111.9 179.55 L111.15 181.9 110.85 182.55 Q109.9 184.3 108.5 184.85 L107.15 185.1 Q96.8 185.1 94.8 178.4 L98.9 181.05 Q104.1 183.8 107.05 184.35 107.5 183.75 108.65 179.1 L109.75 174.35 Q109.75 173.25 108.75 171.35 L107.8 169.7 105.95 166.8 108.05 166.55 108.75 168.15 110.35 169.55 110.65 169.95 111.4 171.1 111.0 170.0 Q109.85 166.5 109.6 165.1 L111.35 165.05 112.95 165.0 113.0 167.45 Q112.95 169.25 113.75 170.2 L115.25 171.15 120.8 172.6 128.15 174.05 134.35 174.65 Q134.35 175.35 134.45 174.85 L134.35 174.65 134.35 174.6 137.7 174.55 139.65 172.35 140.9 171.15 Q145.75 166.8 147.1 164.75 147.75 163.8 147.75 162.55 L146.85 159.95 145.5 156.4 143.4 150.15 142.9 148.55 142.1 146.45" fill="#4d6464" fill-rule="evenodd" stroke="none"/>
    <path d="M157.95 39.25 L158.65 40.85 158.85 40.85 164.7 41.05 166.6 42.8 Q166.6 51.15 165.9 57.45 L165.3 61.45 Q164.2 68.7 164.1 73.9 L164.1 74.3 Q164.1 74.5 171.75 79.85 179.95 85.75 182.05 88.5 L182.15 88.6 Q183.5 90.5 184.3 93.1 L184.9 95.5 Q185.15 97.2 182.45 111.35 L182.4 111.6 181.95 114.0 Q179.15 128.25 176.65 135.2 174.1 142.45 164.85 153.95 L159.3 160.45 154.8 165.4 147.55 173.0 147.0 173.5 Q138.65 180.7 134.4 180.7 L131.25 180.2 131.15 180.2 128.35 180.2 Q123.5 180.0 120.4 178.8 118.25 178.05 115.8 177.65 L114.95 177.5 114.75 178.65 Q114.3 180.35 112.9 183.25 110.7 187.85 109.35 187.85 L105.65 187.7 Q97.8 187.05 94.6 183.45 L89.9 184.9 Q84.25 186.5 81.1 186.75 L80.15 186.75 Q77.1 186.75 71.5 183.7 L69.65 182.6 68.15 181.6 Q66.1 180.1 64.9 178.55 61.3 180.7 60.0 180.7 59.1 180.7 57.75 180.0 55.1 178.6 50.75 174.75 L43.55 168.05 Q40.4 165.75 38.75 163.95 37.65 162.7 37.2 161.7 L36.9 160.45 35.6 160.4 Q27.65 159.8 21.5 153.55 19.9 151.95 18.45 149.95 15.75 146.2 14.0 141.95 12.55 138.4 12.55 136.7 12.55 134.35 15.85 127.7 L14.15 126.75 Q11.35 124.7 8.55 119.5 L5.2 111.65 4.85 110.85 Q4.85 108.6 8.7 99.65 11.55 93.1 13.0 90.75 L10.9 86.75 11.0 85.55 Q11.3 82.3 13.5 78.25 11.85 77.8 10.25 71.85 L8.8 65.2 Q8.8 63.7 11.35 60.95 L13.2 59.1 Q14.8 57.65 16.7 56.15 17.75 55.25 18.95 54.4 L18.95 54.3 18.7 53.45 Q18.7 52.35 22.1 48.5 23.9 46.45 25.25 45.35 L26.45 44.55 27.2 42.25 Q28.3 39.85 30.5 37.65 34.8 33.35 41.75 31.45 L44.05 30.9 44.15 30.9 49.0 31.25 52.4 31.85 55.7 26.9 Q58.5 22.4 59.5 22.3 L62.15 20.7 Q67.65 18.15 72.75 17.45 L74.95 15.5 77.3 13.35 84.35 7.35 Q88.5 4.15 97.95 7.6 102.25 9.15 108.4 11.9 109.35 11.35 110.7 10.7 114.8 8.7 117.25 9.55 L118.9 10.25 118.95 10.1 119.0 10.3 119.35 10.5 123.45 13.0 125.55 14.4 132.05 12.15 137.1 14.9 Q145.7 20.35 149.05 24.85 L154.6 33.3 Q156.75 36.6 157.95 39.25 M162.5 74.2 L163.7 67.1 Q164.55 61.85 164.85 57.4 L165.0 53.1 Q165.0 47.5 164.1 43.0 L158.75 43.0 158.7 43.05 158.45 43.15 Q157.2 43.7 154.25 45.6 L153.95 45.8 152.75 46.5 Q154.05 48.2 154.55 49.8 152.95 51.55 150.9 57.1 L149.7 60.35 Q147.0 68.1 147.0 71.1 147.0 71.5 149.0 74.5 150.75 76.95 150.95 79.55 L150.95 80.15 150.75 82.55 Q155.95 78.35 162.4 78.35 163.8 78.35 165.6 77.55 162.4 75.3 162.4 74.9 L162.5 74.2 M174.15 106.25 Q175.15 104.55 177.65 98.0 179.85 91.5 179.75 91.0 172.75 80.25 169.4 79.75 166.95 79.45 161.15 80.9 154.3 82.6 151.25 85.25 149.85 86.45 148.8 87.5 146.8 89.6 146.1 91.2 L145.5 100.35 Q145.3 103.15 145.8 105.35 L146.0 106.15 Q147.3 110.2 151.15 112.4 L153.7 113.65 Q158.4 115.75 161.2 116.4 L166.5 117.1 Q167.25 117.1 169.5 113.85 L174.15 106.25 M181.85 99.65 L181.8 99.35 181.55 96.95 180.75 97.3 178.15 101.95 175.45 106.65 171.35 113.9 Q167.9 119.7 167.3 119.7 166.3 119.7 162.8 118.7 L162.8 119.0 Q162.8 119.4 161.7 120.5 L161.6 120.6 163.8 135.8 Q163.8 137.9 163.3 138.4 L161.2 140.1 160.95 140.3 156.75 145.55 Q155.05 147.55 155.45 150.45 L156.15 155.5 155.55 158.9 155.05 160.85 158.85 156.6 Q166.4 147.6 172.7 135.65 179.1 123.65 181.25 114.0 L181.6 112.2 Q182.35 108.25 182.35 104.7 L181.85 99.65 M155.25 40.0 L155.1 39.75 150.2 31.55 Q147.1 26.95 143.45 23.45 137.1 17.4 129.15 14.55 L126.35 16.0 126.2 16.25 125.4 16.5 118.25 20.15 122.15 23.05 Q123.6 23.65 125.3 25.1 129.25 28.2 129.25 30.1 L128.95 32.65 128.65 35.15 Q131.75 34.15 137.35 36.25 L138.35 36.65 Q144.45 39.0 151.25 43.4 L154.45 42.15 156.15 41.45 155.25 40.0 M121.15 91.6 L129.35 92.6 134.1 93.05 142.5 93.6 143.2 93.6 Q143.85 91.15 145.4 88.75 146.75 86.6 148.8 84.55 L149.0 84.25 149.95 80.35 149.95 79.85 Q149.95 76.85 148.2 74.0 L146.2 70.9 Q146.2 67.8 148.7 58.55 L149.15 57.05 151.05 49.9 Q151.05 48.8 149.3 47.0 L148.2 45.7 Q145.7 43.9 140.0 40.65 L137.4 39.2 Q133.3 37.25 129.85 37.65 126.9 37.95 124.3 41.25 124.7 37.35 126.9 35.85 L127.4 33.35 127.55 30.0 Q127.55 29.1 124.3 26.6 122.2 24.9 120.5 24.0 L120.4 24.0 114.5 20.45 110.0 22.05 109.8 22.7 103.6 41.75 103.6 41.9 103.7 42.8 99.45 56.0 99.35 56.2 Q95.0 70.05 95.0 72.85 L95.25 74.25 95.4 74.5 95.4 74.6 Q96.95 78.4 105.0 83.9 107.05 85.3 109.1 86.5 L109.4 86.6 109.5 86.7 Q113.7 89.1 117.8 90.55 L121.15 91.6 M78.7 46.6 L80.3 49.3 82.3 52.3 83.05 53.3 84.6 55.7 84.85 56.15 85.65 57.65 86.05 58.55 100.5 43.1 107.95 20.5 110.05 19.65 109.55 18.15 109.15 17.55 108.55 16.85 Q100.6 17.35 97.5 20.7 L94.8 25.4 90.65 23.8 84.25 31.85 Q82.5 34.15 81.2 36.15 L80.7 36.75 Q77.7 41.35 77.7 43.0 77.7 44.8 78.7 46.6 M121.0 13.95 L120.8 13.75 120.7 13.65 119.8 13.0 Q117.15 11.2 116.6 11.2 114.4 11.2 111.2 13.1 L110.8 13.4 110.75 13.4 110.8 13.6 Q110.55 14.25 109.75 14.5 L111.45 16.25 111.55 16.35 112.85 18.05 112.85 18.75 122.5 15.45 121.0 13.95 M77.75 15.95 L76.45 17.15 76.6 17.15 77.1 17.25 Q78.7 17.45 83.65 19.25 89.55 21.3 92.85 21.3 93.55 21.3 98.2 17.75 102.25 15.1 106.2 14.3 L106.15 13.95 104.15 13.2 100.35 11.45 Q93.7 8.3 89.55 8.3 86.05 8.3 80.75 13.2 L77.75 15.95 M86.25 22.3 L85.25 22.0 Q81.85 20.9 76.75 20.1 L72.25 19.5 72.15 19.45 Q68.25 19.9 62.75 22.0 61.65 22.4 60.65 22.9 58.5 25.1 57.9 26.6 L56.1 31.35 Q56.0 32.65 54.9 35.95 53.6 40.15 53.6 41.25 53.6 42.15 55.2 44.3 L56.6 45.8 59.3 48.8 62.95 52.7 63.65 53.4 65.15 54.65 Q70.65 51.1 74.2 49.8 75.9 49.0 77.2 48.8 L77.0 48.3 76.3 46.3 75.6 44.3 Q75.6 42.8 78.8 37.45 L78.9 37.35 79.9 35.55 Q81.5 32.75 82.2 31.85 83.75 30.1 86.25 25.7 87.45 24.2 89.35 23.3 L86.25 22.3 M96.25 54.25 Q97.25 51.2 98.35 48.8 L87.25 60.25 Q88.25 61.35 89.45 63.3 L90.75 65.75 92.65 69.45 Q94.0 61.65 95.75 55.9 L96.25 54.25 M66.4 116.1 Q72.85 122.3 75.6 122.3 83.45 119.6 87.2 116.45 88.75 115.2 90.75 112.8 L93.95 108.55 Q97.1 104.1 99.35 100.25 103.55 93.0 106.4 89.05 102.5 87.2 100.75 85.3 99.7 84.15 94.95 76.85 90.1 69.45 89.35 67.8 L87.9 65.35 82.9 57.95 77.55 50.45 Q76.05 50.95 74.6 51.6 70.75 53.15 67.0 55.3 L65.85 55.95 58.7 60.55 Q55.2 63.45 50.45 71.7 45.65 79.95 46.2 85.7 46.75 91.4 47.25 93.15 48.5 97.5 54.45 103.45 L57.15 106.25 62.85 112.4 64.8 114.55 66.4 116.1 M143.5 104.05 L143.5 103.15 143.5 101.65 143.9 97.1 142.5 96.6 142.3 96.5 Q140.5 95.8 130.55 95.0 L124.25 94.6 123.85 94.6 118.4 93.4 116.85 93.0 113.3 91.85 108.55 90.05 106.75 92.9 Q103.35 98.15 102.5 100.1 L98.85 106.55 96.6 110.65 Q96.1 111.7 96.1 112.05 L96.25 112.85 Q97.1 116.1 103.75 127.35 L104.4 128.45 110.8 139.0 111.1 139.45 111.75 138.8 Q113.95 137.0 114.65 136.7 L119.1 136.9 124.0 137.0 Q125.6 134.7 126.1 128.75 126.5 122.95 128.85 120.1 130.8 116.05 132.6 113.35 133.65 111.75 134.65 110.6 L135.85 109.65 Q138.05 107.85 140.5 108.05 141.1 107.05 143.2 105.85 L143.6 105.65 143.5 104.05 M32.7 59.0 L32.75 59.1 32.8 59.1 33.7 59.15 46.05 60.05 48.75 61.05 50.9 61.95 52.2 62.45 Q52.55 62.6 56.2 60.35 L61.85 56.65 63.25 55.65 64.1 55.25 64.65 54.95 63.05 53.65 62.35 53.1 57.8 48.5 55.8 46.4 54.2 44.6 Q51.7 41.75 51.7 40.75 51.7 39.65 53.0 35.45 52.4 35.25 51.1 33.85 L50.6 33.35 Q49.3 32.35 48.55 32.35 35.2 32.35 29.9 39.25 28.05 41.55 27.45 44.15 L27.55 44.1 Q27.55 44.4 27.45 44.15 L27.75 47.85 Q28.1 51.1 28.9 53.2 L29.5 54.5 30.75 57.0 30.75 56.95 32.7 59.0 M23.9 61.65 L24.9 63.95 28.5 61.2 Q29.1 56.75 28.35 54.5 L28.2 54.05 Q26.35 49.5 26.15 47.6 L26.15 47.55 25.25 48.55 25.05 48.75 24.0 49.95 Q21.45 52.9 21.45 53.25 L21.55 54.35 Q21.85 56.45 23.25 60.1 L23.9 61.65 M21.85 63.8 L21.75 63.6 20.55 60.25 19.45 56.25 17.65 57.8 15.2 59.8 Q13.25 61.55 12.25 62.85 11.0 64.35 11.0 65.3 11.0 67.3 12.6 71.5 L12.9 72.3 14.6 76.35 16.95 72.9 19.3 69.85 Q21.15 67.6 22.9 65.85 L21.85 63.8 M48.4 62.65 L47.85 62.4 Q46.3 61.65 45.05 61.45 L44.75 61.35 38.8 61.6 Q33.45 61.8 28.1 65.25 22.7 68.7 18.25 75.0 L18.05 75.25 Q13.75 81.35 13.75 86.35 13.75 88.95 19.8 97.05 L24.5 103.05 26.0 104.95 Q27.05 103.7 30.35 101.3 L38.9 95.4 Q42.65 92.95 44.5 92.0 L44.3 84.15 44.5 76.6 Q45.0 74.85 45.0 72.9 L45.0 72.45 Q46.45 67.05 50.95 65.55 L51.9 64.45 49.7 63.25 49.4 63.15 48.4 62.65 M16.45 124.05 L17.35 124.95 Q19.2 121.7 20.9 120.6 18.7 117.05 18.7 115.55 18.7 114.85 20.8 111.85 L22.15 109.9 22.2 109.9 22.7 109.2 24.65 106.65 22.45 103.7 17.95 97.8 15.4 94.45 14.15 92.95 13.5 94.45 11.1 99.65 Q7.25 108.15 7.25 110.65 L7.3 111.7 Q7.7 115.25 10.8 118.5 L16.45 124.05 M59.95 113.15 L59.7 112.9 59.2 112.35 55.55 108.35 52.1 104.6 47.8 99.95 Q44.95 97.0 43.95 96.8 41.6 96.35 39.2 96.75 37.2 97.05 31.3 103.3 L28.55 106.2 23.85 111.55 23.55 111.9 23.4 112.05 Q21.0 114.9 21.0 115.4 21.0 116.65 25.3 122.75 L29.8 128.9 34.65 135.5 34.9 135.8 36.45 137.05 Q37.55 137.75 39.05 138.25 44.15 139.95 55.85 140.7 L63.55 140.7 Q68.25 134.8 69.0 132.95 71.5 127.15 74.05 124.25 69.3 122.5 62.75 116.2 L59.95 113.15 M78.95 165.35 Q79.35 165.05 79.85 164.8 L77.7 161.95 73.8 156.65 72.8 155.25 Q67.65 148.05 66.25 145.0 L56.55 143.45 40.2 141.65 40.05 144.3 40.0 145.1 39.15 155.5 Q39.15 159.5 39.75 160.7 40.45 162.15 42.85 164.3 L46.05 166.95 52.55 173.0 55.6 175.7 Q58.05 177.7 58.9 177.7 L68.15 172.05 76.15 167.05 78.95 165.35 M92.75 114.7 L88.85 118.05 Q80.65 124.9 77.3 124.9 L76.75 124.9 73.1 132.25 Q68.6 141.7 68.6 144.0 68.6 145.0 75.25 154.25 L75.95 155.25 80.9 162.15 81.6 163.1 83.35 165.6 89.4 165.0 Q114.0 162.5 118.9 161.2 118.4 160.35 115.25 153.3 L111.15 144.35 Q108.55 141.65 102.65 130.25 L101.75 128.5 Q95.85 117.0 94.25 113.35 L92.75 114.7 M20.35 125.65 L18.9 128.3 Q15.05 135.45 15.05 136.95 15.05 141.9 21.9 149.45 L23.4 151.05 Q29.1 156.75 35.35 158.05 L36.75 158.25 36.7 155.9 Q36.7 149.05 36.85 147.05 37.15 143.6 37.95 141.2 L36.2 140.65 Q34.55 140.05 33.9 139.1 L33.3 137.95 32.85 137.25 27.6 129.9 22.15 122.55 20.35 125.65 M87.95 168.2 L82.5 168.2 82.0 167.55 81.6 167.05 81.3 166.7 80.45 167.45 79.2 168.4 72.6 173.3 69.4 175.55 68.15 176.45 68.1 176.5 68.15 176.65 Q68.9 178.35 73.2 181.55 L74.7 182.6 Q77.9 184.75 78.9 184.35 L82.3 183.5 86.6 182.75 93.4 181.75 Q92.1 179.25 91.8 174.75 91.55 171.95 91.75 168.4 L91.75 168.2 87.95 168.2 M155.25 116.5 L154.75 116.0 Q151.65 114.9 150.35 114.2 L150.35 114.1 148.95 113.55 Q146.15 112.45 145.1 111.4 L144.4 110.9 143.3 110.0 Q141.0 110.0 138.9 111.0 137.1 111.85 135.35 113.4 133.95 114.55 132.65 116.2 128.65 121.05 128.05 124.85 125.9 137.0 125.5 137.5 L123.4 137.7 118.6 137.3 114.35 137.4 Q112.25 138.3 111.35 139.8 112.55 141.75 113.3 145.1 L113.0 145.15 113.05 145.25 Q114.05 147.4 116.35 150.75 L118.9 154.3 Q124.55 150.85 132.05 147.65 140.6 143.95 144.0 143.95 145.65 143.95 147.15 146.45 148.55 148.8 149.85 153.45 L152.65 163.0 152.7 163.2 154.15 161.8 Q153.9 159.9 154.25 158.6 L154.75 155.8 154.15 152.45 153.65 148.85 Q153.65 145.55 157.15 143.35 L158.95 141.3 160.35 139.1 161.9 136.7 161.9 136.3 161.15 132.55 160.15 129.15 Q158.45 123.85 158.45 122.15 L157.05 119.4 156.05 117.5 155.25 116.5 M94.8 178.4 Q96.8 185.1 107.15 185.1 L108.5 184.85 Q109.9 184.3 110.85 182.55 L111.15 181.9 111.9 179.55 Q112.5 178.0 112.5 176.1 L112.25 173.6 112.85 175.15 115.15 175.95 116.9 176.55 123.25 178.4 Q119.75 177.35 118.1 176.1 L117.95 175.7 118.65 175.55 118.95 175.5 Q121.8 177.3 128.15 177.3 130.55 177.3 134.9 176.15 140.15 174.75 143.1 172.65 L143.8 172.1 151.4 165.2 Q151.0 161.85 149.4 157.4 L145.5 148.05 144.5 145.45 142.1 146.45 139.4 147.55 127.85 152.25 Q122.5 154.75 120.3 157.0 121.15 159.15 121.85 162.25 121.85 163.75 119.0 164.35 L112.95 165.0 111.35 165.05 109.6 165.1 Q109.85 166.5 111.0 170.0 L111.4 171.1 110.65 169.95 110.35 169.55 108.75 168.15 108.05 166.55 105.95 166.8 94.65 168.2 94.7 168.65 94.3 174.75 Q94.3 176.8 94.8 178.4" fill="#394848" fill-rule="evenodd" stroke="none"/>
  </g>
</svg>