<?xml version="1.0" encoding="UTF-8" standalone="no"?>
<svg xmlns:xlink="http://www.w3.org/1999/xlink" height="96.6px" width="73.6px" xmlns="http://www.w3.org/2000/svg">
  <g transform="matrix(1.0, 0.0, 0.0, 1.0, 0.8, -0.1)">
    <path d="M71.8 17.8 Q61.45 18.8 57.45 22.8 56.2 24.0 53.8 29.7 L53.35 30.8 53.0 31.6 52.95 31.55 52.35 32.7 56.4 32.25 Q63.8 31.9 65.6 35.0 L65.7 35.3 Q60.75 34.1 58.65 34.1 55.65 34.1 52.9 34.9 L50.6 35.5 49.75 36.6 47.45 39.75 47.15 40.65 47.0 41.75 47.0 42.2 Q47.15 42.5 46.15 42.5 L45.15 42.45 Q45.5 43.3 45.35 44.45 L44.6 49.3 Q44.9 52.0 46.25 54.2 47.95 55.4 49.55 57.5 L56.35 54.95 Q60.55 53.45 63.7 52.6 62.55 54.2 58.65 56.1 54.15 58.35 50.35 58.4 L50.75 58.7 50.3 58.5 52.55 62.25 58.2 73.1 58.2 73.4 Q55.2 71.75 54.25 68.7 53.6 65.35 52.8 63.8 51.75 61.7 48.9 58.7 L47.35 57.05 46.6 56.65 Q44.8 55.65 44.6 54.4 44.15 51.9 44.15 48.4 L44.4 42.3 44.3 42.3 Q44.1 42.6 44.05 42.2 L43.65 41.95 Q37.15 43.1 35.2 41.0 L34.8 40.0 34.15 42.3 34.1 42.9 33.85 43.2 33.05 45.25 32.0 47.85 32.0 48.1 31.25 52.5 30.95 53.95 30.95 54.1 30.45 59.55 30.45 59.65 30.4 63.7 Q30.65 66.1 32.95 67.7 34.7 68.95 35.05 70.35 L39.4 75.5 Q41.75 77.35 43.55 81.25 45.85 86.3 46.8 87.6 52.45 88.0 56.65 90.05 L60.9 92.7 60.4 93.2 Q57.8 91.65 55.8 90.75 52.2 89.2 46.5 88.9 45.0 87.3 42.8 82.95 L41.65 80.8 41.6 80.9 40.85 79.8 41.4 80.4 Q40.05 78.2 38.7 77.0 L32.65 71.05 Q31.0 69.15 30.15 67.55 L30.1 69.55 Q30.1 73.95 30.65 76.8 L30.8 77.05 30.85 77.15 30.9 77.25 30.95 77.4 31.05 77.6 31.1 77.65 31.25 77.9 33.5 82.85 33.65 83.15 38.75 90.35 39.75 91.05 40.8 91.65 41.1 91.8 41.1 91.9 42.5 92.7 45.3 94.7 45.05 95.45 44.2 95.7 Q41.7 94.75 40.3 93.6 L40.0 93.6 39.9 93.6 39.45 93.55 38.75 93.3 Q34.55 93.05 30.1 83.4 L26.4 73.2 26.45 72.85 Q23.15 74.85 17.0 75.3 17.75 74.55 22.4 72.85 25.55 71.7 26.65 70.75 L27.9 59.7 27.9 59.65 27.9 59.5 27.9 59.4 27.9 59.3 Q27.9 55.95 28.8 50.95 L29.1 49.3 29.1 49.05 29.1 48.45 29.1 47.95 Q29.15 45.6 29.35 43.55 28.25 44.65 25.9 45.4 22.4 46.45 21.3 47.9 L18.35 51.3 Q16.45 53.4 16.0 54.5 15.7 55.2 15.5 57.45 L16.7 58.8 15.05 61.25 Q13.25 63.2 11.0 63.2 10.1 63.2 9.25 62.4 8.4 61.6 7.3 61.6 6.8 61.6 4.9 64.3 3.0 66.95 1.8 66.9 L1.4 66.9 Q3.15 65.4 5.5 61.9 5.85 61.4 10.55 61.4 9.0 60.1 6.2 53.25 6.2 52.55 6.45 52.05 6.65 51.6 6.9 51.5 9.6 57.95 12.3 60.3 L14.1 59.3 Q14.9 58.1 14.9 57.2 L15.0 57.1 15.3 57.3 15.3 55.75 15.3 55.65 15.3 55.6 15.3 55.5 15.3 55.1 Q15.3 53.25 18.2 49.9 L21.95 46.05 22.15 45.8 20.8 46.0 Q18.65 46.0 18.0 45.0 L17.8 43.8 17.15 42.75 16.35 41.95 15.8 42.0 14.45 41.4 9.2 41.2 Q8.3 41.2 5.3 43.1 2.2 45.0 0.6 46.6 L0.2 46.5 Q5.6 39.65 10.8 39.45 L9.6 38.75 Q10.9 31.1 13.3 27.1 L13.4 27.55 Q11.65 29.4 11.6 32.65 11.55 36.9 11.2 37.9 13.6 38.45 15.1 39.35 16.75 40.3 16.8 41.4 L16.75 41.5 Q18.3 42.6 19.4 44.3 22.75 44.3 25.35 42.6 L27.7 40.6 28.0 40.65 28.05 40.65 28.25 40.2 28.4 39.7 29.7 36.95 30.4 36.1 31.35 35.55 31.75 34.7 31.9 34.45 33.5 27.65 33.4 26.1 32.2 26.2 30.6 26.4 Q27.0 26.4 24.0 23.55 L21.0 19.9 Q21.8 20.05 24.65 22.5 27.4 24.9 28.35 24.9 L30.8 24.4 33.2 23.9 Q33.8 23.9 34.3 24.55 35.45 20.2 36.55 16.85 L36.0 15.95 Q35.35 14.9 35.4 14.2 L37.5 14.1 37.95 12.95 Q39.2 12.3 40.55 11.05 41.3 9.5 42.35 8.0 44.5 4.9 47.0 2.8 L48.0 1.15 48.8 1.1 49.2 1.1 49.25 1.1 49.45 1.15 49.9 1.3 50.0 1.5 50.1 2.2 50.1 2.35 Q50.1 3.9 48.15 5.05 L46.8 6.85 42.6 12.7 43.2 12.95 Q43.6 13.25 43.6 13.9 L40.75 20.3 41.05 21.1 41.45 22.7 41.45 22.8 41.25 25.85 40.5 24.2 39.95 22.9 39.8 22.5 38.8 24.7 Q34.25 35.0 35.2 35.0 L35.45 35.0 35.4 35.3 34.85 36.95 35.4 37.5 35.85 38.35 36.0 38.7 Q36.35 39.65 38.55 39.95 L41.3 40.35 Q40.85 39.7 40.3 37.8 L39.7 35.25 39.95 34.0 Q40.35 32.85 40.9 32.5 L40.95 32.9 Q40.8 33.35 40.8 33.85 L41.4 36.4 42.0 39.4 41.9 40.3 41.6 40.4 43.2 40.8 43.45 40.9 43.5 40.9 43.6 40.85 44.75 40.35 45.2 40.05 47.45 37.0 49.1 34.7 49.85 33.65 Q51.6 30.9 52.55 28.65 L52.5 26.7 Q52.5 24.65 51.4 21.95 L50.3 18.9 Q50.3 15.4 52.1 15.1 L51.55 15.8 Q51.1 16.2 51.1 16.75 51.1 18.6 52.5 21.2 53.65 23.4 53.85 25.85 55.4 23.3 58.0 21.15 63.8 16.45 71.8 17.7 L71.8 17.8 M41.65 10.95 L42.2 10.1 41.65 10.2 41.6 10.65 41.65 10.95 M44.3 6.75 Q42.0 7.95 41.7 9.9 L44.3 6.75 M42.55 27.95 L44.6 29.6 44.6 29.8 Q43.55 29.3 42.55 27.95 M12.5 61.0 L13.3 60.3 12.45 60.55 12.5 61.0 M13.75 68.6 Q15.05 71.85 15.3 74.1 13.75 73.3 12.0 69.3 10.5 65.9 10.5 65.05 10.5 63.45 11.4 63.3 L13.75 68.6 M55.15 63.75 L55.8 65.6 55.4 65.7 55.15 63.75" fill="#283535" fill-rule="evenodd" stroke="none"/>
  </g>
</svg>