<?xml version="1.0" encoding="UTF-8" standalone="no"?>
<svg xmlns:xlink="http://www.w3.org/1999/xlink" height="170.25px" width="127.65px" xmlns="http://www.w3.org/2000/svg">
  <g transform="matrix(1.0, 0.0, 0.0, 1.0, 52.35, 74.65)">
    <path d="M38.9 -0.5 Q39.4 -0.1 39.4 1.2 L33.0 11.6 Q26.6 22.55 26.6 30.6 L25.4 44.95 24.2 59.4 Q24.2 61.9 24.5 64.25 L24.8 64.2 24.9 64.65 25.0 66.6 25.0 66.95 Q25.85 70.9 27.75 74.2 L31.05 79.7 31.0 75.5 Q31.0 56.7 37.3 33.6 44.85 5.9 55.4 3.0 47.15 11.7 40.6 36.5 34.6 59.2 34.6 75.6 L35.4 82.35 36.2 89.1 36.2 89.4 37.8 93.0 36.8 94.6 34.6 92.95 34.4 93.0 34.25 92.6 Q31.55 90.1 29.7 86.75 L25.4 77.4 22.85 71.75 Q21.0 74.7 19.2 75.4 L17.85 74.9 Q17.4 74.55 17.4 73.2 17.4 71.9 19.15 68.75 20.0 67.2 21.0 66.2 20.6 63.8 20.6 60.0 L20.65 56.2 20.4 56.2 Q18.2 56.2 15.85 55.05 13.9 54.1 12.6 52.8 12.7 51.5 14.2 50.65 15.65 49.75 17.55 49.75 19.55 49.75 20.9 50.5 21.6 38.95 24.05 27.05 28.75 3.9 37.6 -1.0 L38.9 -0.5 M18.9 21.35 Q21.05 22.05 22.2 23.8 L12.0 24.2 6.0 23.6 5.8 23.75 Q5.6 23.65 5.6 22.4 5.6 21.2 8.0 20.85 L12.4 20.6 Q16.65 20.6 18.9 21.35 M22.6 32.0 L22.45 33.95 22.4 34.4 22.0 35.0 18.2 32.6 Q19.1 30.9 20.8 30.35 22.6 29.75 22.6 32.0" fill="#283535" fill-rule="evenodd" stroke="none"/>
    <path d="M14.7 -60.35 L12.3 -73.65 41.6 -25.85 74.3 -51.4 Q54.5 -35.35 49.95 -11.25 40.6 -10.95 31.25 -5.95 19.15 0.5 12.05 12.65 3.35 27.6 3.35 49.45 L3.35 62.15 3.5 63.75 Q-15.95 61.9 -34.25 73.25 -16.75 61.05 -8.65 42.25 -26.9 24.0 -51.35 16.5 -28.6 19.95 -10.5 6.75 -8.0 4.9 -8.25 2.4 -10.95 -23.75 -30.4 -42.95 -9.55 -31.3 13.15 -29.95 L13.45 -30.45 Q18.55 -45.05 14.7 -60.35" fill="#ffffff" fill-rule="evenodd" stroke="none"/>
  </g>
</svg>