<?xml version="1.0" encoding="UTF-8" standalone="no"?>
<svg xmlns:xlink="http://www.w3.org/1999/xlink" height="177.8px" width="151.15px" xmlns="http://www.w3.org/2000/svg">
  <g transform="matrix(1.0, 0.0, 0.0, 1.0, 74.55, 103.1)">
    <path d="M-36.8 24.25 Q-53.45 11.95 -73.55 5.8 -50.05 9.4 -30.65 -1.9 -35.5 9.9 -36.8 24.25 M-32.7 58.9 L-31.2 64.25 Q-42.3 67.05 -53.05 73.7 -41.65 65.75 -33.55 55.45 L-32.7 58.9 M4.0 -50.4 Q10.1 -67.85 5.5 -86.15 L2.6 -102.1 35.05 -49.1 Q23.9 -47.8 12.7 -43.45 -8.95 -35.1 -21.65 -17.9 L-22.7 -16.4 Q-27.25 -44.35 -48.5 -65.3 -23.55 -51.35 3.65 -49.75 L4.0 -50.4 M47.1 -49.6 L43.8 -49.65 75.6 -74.45 Q62.2 -63.25 54.9 -48.8 L47.1 -49.6" fill="#ffffff" fill-rule="evenodd" stroke="none"/>
  </g>
</svg>