<?xml version="1.0" encoding="UTF-8" standalone="no"?>
<svg xmlns:xlink="http://www.w3.org/1999/xlink" height="87.05px" width="48.35px" xmlns="http://www.w3.org/2000/svg">
  <g transform="matrix(1.0, 0.0, 0.0, 1.0, 18.45, -20.9)">
    <path d="M6.1 54.25 Q5.7 46.45 8.25 37.4 9.1 33.15 10.1 31.05 11.75 27.05 13.95 26.25 L13.5 27.35 Q13.95 26.85 14.55 26.9 17.35 23.1 19.9 21.9 L17.6 24.4 14.5 29.9 Q14.1 30.75 13.85 32.0 L13.4 33.1 Q12.6 33.5 11.95 35.05 7.75 47.9 11.55 69.9 13.65 84.9 17.5 92.1 6.4 75.95 8.05 49.95 9.3 40.95 12.9 31.7 13.65 28.45 14.4 27.15 L14.2 27.15 Q12.4 29.45 9.35 37.9 6.7 45.85 6.45 49.95 6.1 52.0 6.1 54.25 M12.2 48.2 Q12.75 42.5 14.25 36.8 L14.35 36.3 Q14.45 35.05 14.7 34.0 15.0 32.75 15.65 32.1 L17.05 28.4 Q19.95 21.7 18.25 28.75 16.75 32.7 15.8 36.6 14.8 43.75 15.55 54.25 15.95 68.9 19.55 87.95 L19.05 86.65 18.15 85.8 18.0 85.85 Q18.85 87.7 20.05 89.55 L21.95 95.2 20.7 94.8 Q16.6 87.05 14.85 77.3 L15.75 80.2 17.95 83.75 17.2 81.35 Q15.25 74.15 13.5 64.15 12.8 60.1 12.45 57.0 12.15 52.2 12.2 48.2 M20.85 83.85 Q22.05 87.9 24.0 91.7 23.75 91.7 23.85 92.05 L23.2 92.25 23.15 92.25 Q23.85 93.25 24.1 94.2 L24.1 94.65 24.1 94.9 23.55 95.25 Q21.9 90.65 20.85 83.85 M4.35 83.95 L4.5 84.1 7.6 88.9 Q7.5 88.9 7.55 89.1 L8.15 89.95 7.85 90.25 4.35 83.95 M5.6 88.8 Q2.8 86.85 -1.6 78.05 -3.55 74.8 -8.1 59.95 -9.6 53.75 -9.7 49.3 L-9.9 47.65 Q-10.9 55.8 -8.45 65.35 L-7.25 69.7 Q-5.4 74.05 -2.1 79.95 1.05 85.2 4.55 90.45 L6.25 92.1 6.55 92.6 Q6.45 92.6 6.1 92.75 L5.55 92.7 Q-0.9 83.9 -5.95 73.05 -16.55 51.4 -8.5 35.1 L-7.55 33.0 -6.45 30.2 -6.65 30.35 Q-6.0 28.85 -5.55 28.55 -4.5 27.25 -3.8 27.95 L-4.2 28.8 -4.15 28.8 Q-3.0 27.05 -1.5 27.05 -2.55 28.35 -3.8 31.25 L-5.25 34.55 -5.95 35.9 Q-10.9 43.85 -4.4 66.95 0.0 80.3 5.6 88.8 M5.85 93.45 L5.9 93.5 6.8 94.4 6.9 94.65 Q7.25 94.85 6.4 94.8 4.0 94.75 0.2 90.1 -11.1 73.45 -14.2 62.75 -18.85 46.7 -11.5 33.65 L-12.25 34.15 -10.95 31.65 Q-9.35 29.4 -7.5 29.1 L-7.4 29.2 -7.6 29.7 -9.2 32.0 -10.85 34.25 Q-17.05 45.6 -13.65 61.1 -14.5 53.7 -13.95 50.3 -13.75 48.2 -13.15 45.9 -14.25 53.0 -11.95 61.45 L-11.45 64.3 Q-9.65 72.45 -6.0 79.0 L-6.6 77.4 Q-9.75 71.55 -11.45 63.85 L-11.85 61.75 -10.75 65.5 Q-4.05 83.8 5.85 93.45 M1.4 92.6 L5.0 97.3 5.05 97.7 Q1.15 93.75 -2.35 89.0 -0.45 91.2 1.4 92.6 M-6.05 42.55 Q-4.85 36.75 -1.65 30.35 -0.7 28.25 -0.2 27.7 0.95 25.85 1.85 25.8 1.65 26.6 -0.15 30.2 -7.15 45.65 -5.55 56.25 -7.0 48.4 -6.05 42.55 M-3.5 64.05 Q-1.0 70.45 3.9 79.4 3.5 79.3 3.5 79.75 2.7 79.5 1.1 76.85 L-1.25 70.9 Q-2.75 67.2 -3.5 64.05 M-5.3 31.35 L-5.15 30.75 -5.75 31.95 Q-5.7 31.85 -5.6 31.9 L-5.3 31.35" fill="#3f3f3f" fill-rule="evenodd" stroke="none"/>
    <path d="M13.4 33.1 L13.75 32.85 Q12.3 38.85 12.2 48.2 12.15 52.2 12.45 57.0 L13.05 65.0 Q13.75 71.35 14.85 77.3 16.6 87.05 20.7 94.8 L22.8 98.35 22.45 98.75 Q21.15 98.0 19.6 95.8 11.75 89.4 8.05 74.15 5.8 64.9 6.1 54.25 6.1 52.0 6.45 49.95 6.7 45.85 9.35 37.9 12.4 29.45 14.2 27.15 L14.4 27.15 Q13.65 28.45 12.9 31.7 9.3 40.95 8.05 49.95 6.4 75.95 17.5 92.1 13.65 84.9 11.55 69.9 7.75 47.9 11.95 35.05 12.6 33.5 13.4 33.1 M15.55 54.25 Q15.45 50.25 15.75 46.4 16.5 39.8 18.45 33.0 L18.3 32.6 18.45 31.8 Q18.8 30.45 19.75 30.05 20.2 30.4 20.0 31.3 19.8 32.3 20.0 32.65 18.05 39.4 17.45 45.95 16.75 51.7 20.05 78.2 L20.85 83.85 Q21.9 90.65 23.55 95.25 27.15 104.3 28.3 105.3 L28.9 106.5 28.75 106.95 Q24.05 101.1 21.95 95.2 L20.05 89.55 19.55 87.95 Q15.95 68.9 15.55 54.25 M4.35 83.95 L7.85 90.25 Q12.75 97.95 15.4 99.45 L15.05 99.85 Q10.75 96.65 5.6 88.8 0.0 80.3 -4.4 66.95 -10.9 43.85 -5.95 35.9 L-5.25 34.55 -3.85 31.7 -2.85 31.75 -3.2 32.3 Q-5.35 36.45 -6.05 42.55 -7.0 48.4 -5.55 56.25 L-3.5 64.05 Q-2.75 67.2 -1.25 70.9 L1.1 76.85 Q2.55 80.4 4.15 83.55 L4.35 83.95 M5.55 92.7 L5.75 93.0 5.85 93.45 Q-4.05 83.8 -10.75 65.5 L-11.85 61.75 -11.95 61.45 Q-14.25 53.0 -13.15 45.9 -12.4 40.1 -10.0 35.1 L-8.65 32.35 Q-7.85 31.15 -6.65 30.35 L-6.45 30.2 -7.55 33.0 -8.5 35.1 Q-16.55 51.4 -5.95 73.05 -0.9 83.9 5.55 92.7 M0.2 90.1 L2.05 92.65 Q1.85 92.75 2.0 93.0 L1.4 92.6 Q-0.45 91.2 -2.35 89.0 -8.6 82.05 -14.4 67.45 -20.3 48.25 -14.8 37.85 L-13.45 35.55 -12.25 34.15 -11.5 33.65 Q-18.85 46.7 -14.2 62.75 -11.1 73.45 0.2 90.1" fill="#c9b7a0" fill-rule="evenodd" stroke="none"/>
  </g>
</svg>