<?xml version="1.0" encoding="UTF-8" standalone="no"?>
<svg xmlns:xlink="http://www.w3.org/1999/xlink" height="24.65px" width="23.4px" xmlns="http://www.w3.org/2000/svg">
  <g transform="matrix(1.0, 0.0, 0.0, 1.0, -0.25, -55.85)">
    <path d="M20.55 69.1 Q20.6 69.55 19.75 70.3 L18.45 71.45 18.1 71.45 18.25 72.05 18.0 72.6 18.1 72.95 18.15 73.05 Q17.65 73.7 17.65 74.4 L17.9 76.45 18.15 77.3 17.65 79.3 17.25 79.5 Q17.0 79.1 16.9 78.0 L17.0 78.1 17.65 77.75 17.65 75.9 Q17.4 75.6 16.75 75.55 L16.5 74.5 16.4 74.5 16.25 74.5 16.4 74.15 13.6 74.45 12.05 74.3 10.8 73.25 10.8 73.1 10.9 72.8 10.65 72.8 Q10.35 72.35 9.4 72.35 8.5 72.3 8.2 72.8 L8.1 72.75 7.65 72.8 7.45 73.2 5.8 73.55 5.55 73.65 5.6 73.85 Q5.35 73.85 5.2 74.0 L5.1 74.0 5.1 74.15 5.0 74.45 5.0 74.65 4.9 75.4 Q4.95 75.6 4.5 75.65 L4.5 74.55 4.4 73.45 3.0 72.6 2.45 71.6 2.5 71.4 2.25 70.9 2.15 71.05 1.85 69.95 1.6 69.65 Q1.35 69.3 1.25 68.55 L1.6 68.55 1.65 69.05 Q1.85 69.65 2.45 69.7 L2.5 69.85 3.65 70.9 3.9 70.9 Q5.4 71.75 7.45 71.75 L8.1 71.7 10.25 71.9 10.75 71.75 12.6 71.55 12.8 71.75 13.2 71.7 13.25 71.6 13.3 71.55 14.9 71.3 15.5 71.35 17.85 70.45 18.5 70.6 Q18.95 70.6 20.15 69.0 L20.25 69.05 20.55 69.1" fill="#000000" fill-rule="evenodd" stroke="none"/>
    <path d="M20.85 66.2 Q20.85 65.8 21.0 65.55 21.45 65.8 21.45 66.35 L20.85 66.2 M16.3 57.8 L16.65 58.4 16.55 58.8 16.0 58.85 Q15.4 58.85 15.2 58.5 L15.15 58.15 15.2 57.6 Q15.9 57.4 16.3 57.8 M18.35 61.55 Q18.35 60.15 19.75 60.85 21.15 61.55 21.15 62.5 21.0 63.6 19.85 63.6 19.2 63.6 18.75 62.7 L18.35 61.55" fill="#ffffff" fill-rule="evenodd" stroke="none"/>
    <path d="M21.4 64.4 Q22.65 64.65 22.65 65.95 22.65 67.95 21.05 67.95 L21.0 67.95 21.3 67.15 Q21.3 66.05 20.35 66.9 L20.1 67.15 19.55 66.1 19.55 66.0 19.6 64.95 19.85 64.65 18.5 64.25 16.95 61.95 16.65 61.6 Q16.85 59.3 19.35 59.25 L22.35 61.65 22.35 61.95 Q22.35 63.85 21.4 64.4 M20.85 66.2 L21.45 66.35 Q21.45 65.8 21.0 65.55 20.85 65.8 20.85 66.2 M22.1 69.45 L22.05 69.8 21.6 69.9 21.15 69.75 21.15 69.45 21.4 69.15 Q21.7 69.0 22.05 69.15 L22.1 69.45 M13.95 58.6 Q13.95 57.15 15.45 57.15 16.55 57.15 17.2 57.95 L17.7 58.95 17.6 59.6 16.8 60.2 15.6 60.2 15.5 60.15 13.95 58.65 13.95 58.6 M12.55 57.65 L12.0 57.45 Q12.15 56.7 13.05 56.9 L13.1 57.6 12.55 57.65 M16.3 57.8 Q15.9 57.4 15.2 57.6 L15.15 58.15 15.2 58.5 Q15.4 58.85 16.0 58.85 L16.55 58.8 16.65 58.4 16.3 57.8 M18.35 61.55 L18.75 62.7 Q19.2 63.6 19.85 63.6 21.0 63.6 21.15 62.5 21.15 61.55 19.75 60.85 18.35 60.15 18.35 61.55" fill="#a8dcea" fill-rule="evenodd" stroke="none"/>
  </g>
</svg>