<?xml version="1.0" encoding="UTF-8" standalone="no"?>
<svg xmlns:xlink="http://www.w3.org/1999/xlink" height="81.65px" width="25.5px" xmlns="http://www.w3.org/2000/svg">
  <g transform="matrix(1.0, 0.0, 0.0, 1.0, -6.1, 19.3)">
    <path d="M25.0 -3.65 Q25.0 -4.7 24.25 -4.85 25.8 -6.35 26.5 -5.5 L26.3 -3.65 26.3 -2.6 Q26.4 -1.9 26.9 -1.7 L25.6 1.95 Q24.05 5.7 23.15 6.65 L21.25 6.5 Q21.55 7.55 24.55 8.75 24.6 9.3 24.25 9.85 L24.05 10.2 Q22.4 9.8 22.4 11.45 22.4 12.2 22.75 12.5 23.4 13.05 25.5 13.1 L25.6 13.15 25.55 13.5 25.65 14.1 Q25.85 14.6 26.5 14.6 L26.7 14.6 Q26.1 15.2 26.1 15.95 L26.15 16.6 Q26.35 17.2 27.05 17.2 27.55 17.2 28.35 15.25 28.95 16.05 28.95 16.85 L28.45 18.45 28.3 18.5 Q27.25 19.05 27.25 20.6 L27.25 20.8 26.9 21.45 26.05 22.95 26.1 24.55 25.85 25.8 26.05 28.55 Q27.05 30.3 27.05 31.45 L27.0 31.9 26.4 32.35 Q24.8 33.75 24.8 35.7 L24.8 36.75 Q24.95 37.7 25.8 37.7 L26.3 37.6 25.35 43.55 Q25.3 42.75 24.25 42.75 23.15 42.75 23.15 43.7 L23.2 44.3 Q23.4 44.8 24.15 44.8 24.7 44.8 25.05 44.35 L25.25 44.05 25.2 44.35 25.7 45.4 25.5 45.4 Q24.45 45.5 24.45 46.45 L24.5 47.05 Q24.65 47.6 25.35 47.6 25.85 47.6 26.2 47.05 L26.35 46.8 Q27.05 48.5 27.05 49.6 L26.85 50.65 26.6 50.55 Q25.35 50.2 25.35 52.15 L25.35 52.75 Q24.35 53.55 23.0 53.85 L22.9 54.2 22.2 54.0 Q21.05 54.0 21.05 55.05 L21.2 55.65 Q21.45 56.15 22.15 56.2 20.05 61.35 17.55 61.35 12.2 61.35 9.1 54.0 L8.9 53.3 Q8.3 52.25 8.0 50.8 L8.0 50.0 7.1 46.65 Q7.1 45.5 8.1 43.7 8.25 38.55 9.35 35.35 L9.45 36.0 Q9.75 36.95 10.45 36.95 11.1 36.95 11.3 36.4 L11.35 35.55 Q11.35 34.1 10.35 34.2 9.95 34.2 9.7 34.4 10.2 33.2 11.2 31.85 11.4 32.5 12.2 32.5 12.65 32.5 13.25 31.1 L13.8 29.15 13.8 28.6 15.9 25.2 15.95 25.5 Q16.2 25.95 16.85 25.95 17.35 25.95 17.9 25.55 18.45 25.15 18.45 24.7 18.45 23.55 17.15 23.9 16.55 24.05 16.25 24.3 L16.3 24.15 16.95 22.0 17.4 22.05 Q18.65 22.05 18.65 21.1 L18.3 20.55 17.95 20.05 17.75 18.45 18.2 18.5 Q19.6 18.5 19.6 14.5 19.6 13.7 18.9 13.2 18.25 12.75 17.8 13.8 L17.8 12.45 17.85 11.7 Q17.3 10.55 17.3 9.95 17.3 9.55 18.2 9.15 L18.4 8.1 Q19.05 5.35 20.15 3.85 L20.15 2.85 Q20.15 1.2 21.25 -0.8 21.4 -0.15 22.2 -0.15 L25.0 -3.65 M27.6 -15.95 L27.7 -15.5 Q27.95 -15.05 28.6 -15.05 L30.2 -17.45 30.6 -16.7 29.65 -14.8 29.1 -14.85 28.7 -14.35 25.85 -14.35 25.55 -14.9 Q25.25 -15.3 25.25 -16.7 25.25 -18.15 26.05 -18.3 L26.8 -18.25 27.45 -18.25 27.95 -18.25 Q27.6 -17.3 27.6 -15.95 M21.45 20.3 L22.35 20.3 22.9 18.75 22.75 18.65 21.45 20.3" fill="#f91313" fill-rule="evenodd" stroke="none"/>
  </g>
</svg>