<?xml version="1.0" encoding="UTF-8" standalone="no"?>
<svg xmlns:xlink="http://www.w3.org/1999/xlink" height="80.65px" width="34.35px" xmlns="http://www.w3.org/2000/svg">
  <g transform="matrix(1.0, 0.0, 0.0, 1.0, -19.3, 45.35)">
    <path d="M37.45 -16.45 Q37.1 -16.2 37.1 -15.2 L37.3 -14.05 37.4 -13.85 36.1 -13.85 35.85 -15.3 36.1 -16.7 37.45 -16.45 M52.65 -44.05 Q52.0 -43.9 52.0 -43.1 L52.05 -42.6 52.35 -42.15 51.85 -41.8 51.1 -41.25 Q50.6 -41.1 50.45 -41.65 L50.75 -41.55 Q51.8 -41.55 51.8 -44.0 L51.8 -44.35 Q52.4 -44.4 52.65 -44.05 M28.3 1.7 Q28.15 1.95 28.15 2.4 L28.35 3.1 Q28.7 3.75 29.35 3.75 L29.75 3.7 29.45 4.0 Q28.2 3.95 27.75 3.4 27.3 2.9 27.3 1.75 L28.3 1.7 M25.35 15.8 L25.25 17.8 24.1 19.0 23.15 18.55 Q22.9 18.3 22.9 16.7 L22.9 16.2 22.95 16.8 Q23.15 17.4 23.85 17.4 24.15 17.4 24.7 16.85 L25.2 16.05 Q25.2 15.15 24.05 14.95 23.0 14.8 22.9 15.9 L23.05 14.65 23.15 14.35 24.5 14.35 Q24.7 14.9 25.35 14.95 L25.35 15.8 M24.1 24.1 L25.4 24.6 25.75 25.25 25.4 25.15 Q24.45 25.15 24.45 27.15 L24.45 28.1 Q24.6 29.15 25.35 29.15 L25.4 29.15 25.25 29.45 24.3 32.15 23.6 33.6 Q23.15 34.05 22.2 34.3 L20.55 33.85 Q20.3 33.65 20.3 32.05 20.3 30.9 21.35 28.25 L22.55 25.8 Q22.9 26.5 23.5 26.5 L24.15 26.25 24.45 25.6 Q24.45 24.7 24.05 24.15 L24.1 24.1 M21.75 29.0 Q22.0 29.7 22.75 29.7 23.25 29.7 23.5 29.25 L23.7 28.6 Q23.7 27.8 22.7 27.7 21.65 27.6 21.65 28.55 L21.75 29.0" fill="#000000" fill-rule="evenodd" stroke="none"/>
  </g>
</svg>