<?xml version="1.0" encoding="UTF-8" standalone="no"?>
<svg xmlns:xlink="http://www.w3.org/1999/xlink" height="47.95px" width="27.45px" xmlns="http://www.w3.org/2000/svg">
  <g transform="matrix(1.0, 0.0, 0.0, 1.0, -31.15, 50.6)">
    <path d="M44.35 -28.7 Q44.6 -28.3 45.2 -28.3 45.6 -28.3 46.0 -28.6 L46.3 -28.85 46.55 -26.8 45.7 -26.1 Q45.65 -27.4 44.7 -27.65 L44.2 -27.65 44.35 -28.7 M57.6 -49.2 Q56.5 -48.9 56.5 -47.3 L56.7 -46.75 57.15 -46.4 55.9 -46.4 55.7 -46.6 Q55.45 -46.65 55.45 -48.05 55.45 -50.45 55.65 -49.15 L56.4 -49.25 57.6 -49.2 M35.85 -6.9 L35.45 -7.0 Q34.5 -6.9 34.5 -5.05 L34.5 -4.1 34.65 -3.65 32.4 -3.65 32.3 -4.4 Q32.15 -5.0 32.15 -6.4 32.15 -7.0 32.6 -7.8 L32.7 -7.35 Q32.9 -6.85 33.55 -6.85 34.45 -6.85 34.45 -7.9 34.45 -8.95 33.55 -8.95 L33.45 -8.95 33.7 -9.2 Q34.35 -8.75 35.8 -8.75 36.4 -8.75 37.0 -9.35 L37.25 -7.8 Q37.25 -6.55 36.75 -5.65 L36.75 -5.8 Q36.75 -6.9 35.85 -6.9" fill="#000000" fill-rule="evenodd" stroke="none"/>
  </g>
</svg>