<?xml version="1.0" encoding="UTF-8" standalone="no"?>
<svg xmlns:xlink="http://www.w3.org/1999/xlink" height="11.25px" width="18.55px" xmlns="http://www.w3.org/2000/svg">
  <g transform="matrix(1.0, 0.0, 0.0, 1.0, 11.55, 2.3)">
    <path d="M-2.75 0.95 L-4.15 2.15 -4.2 2.4 -5.45 2.1 -5.45 1.85 -6.2 1.85 -6.5 1.75 -6.45 1.85 Q-8.8 3.2 -10.0 1.85 L-10.0 1.55 -9.65 1.0 -8.45 0.05 Q-7.85 -0.6 -7.15 -0.75 -6.15 -1.05 -4.5 0.0 -3.35 0.55 -2.75 0.95" fill="#d7ac4a" fill-rule="evenodd" stroke="none"/>
    <path d="M-4.2 2.4 L-5.45 2.1 -5.45 1.85 -6.2 1.85 -6.5 1.75 -6.45 1.85 Q-8.8 3.2 -10.0 1.85 L-10.0 1.55 -9.65 1.0 -8.45 0.05 Q-7.85 -0.6 -7.15 -0.75 -6.15 -1.05 -4.5 0.0 -3.35 0.55 -2.75 0.95" fill="none" stroke="#956215" stroke-linecap="round" stroke-linejoin="round" stroke-width="1.0"/>
    <path d="M-0.65 1.2 L-0.95 1.45 -1.9 1.45 -1.95 1.45 Q-1.5 1.9 -1.6 2.25 -1.65 2.7 -4.5 3.45 L-4.2 3.85 -4.25 4.2 Q-4.3 4.55 -4.8 4.95 L-5.2 5.3 -5.1 5.7 Q-5.2 6.2 -6.4 6.0 -7.3 5.85 -7.55 5.25 L-7.55 4.55 -7.05 3.05 Q-6.9 2.2 -6.4 1.75 -5.75 1.0 -3.8 0.95 L-1.8 0.8 Q-0.55 0.75 -0.65 1.2" fill="#d7ac4a" fill-rule="evenodd" stroke="none"/>
    <path d="M-0.65 1.2 L-0.95 1.45 -1.9 1.45 -1.95 1.45 Q-1.5 1.9 -1.6 2.25 -1.65 2.7 -4.5 3.45 L-4.2 3.85 -4.25 4.2 Q-4.3 4.55 -4.8 4.95 L-5.2 5.3 -5.1 5.7 Q-5.2 6.2 -6.4 6.0 -7.3 5.85 -7.55 5.25 L-7.55 4.55 -7.05 3.05 Q-6.9 2.2 -6.4 1.75 -5.75 1.0 -3.8 0.95 L-1.8 0.8 Q-0.55 0.75 -0.65 1.2 Z" fill="none" stroke="#956215" stroke-linecap="round" stroke-linejoin="round" stroke-width="1.0"/>
    <path d="M-1.2 0.15 L0.0 -0.25 1.15 -0.7 1.3 -0.75 1.7 -0.6 3.5 0.2 4.55 0.7 5.35 1.25 5.4 1.85 5.5 3.1 5.4 4.25 5.0 5.1 4.25 5.65 3.4 5.85 3.05 5.65 2.9 4.8 2.6 3.55 2.0 2.75 1.1 2.7 0.4 3.05 -0.2 3.35 -0.85 3.8 -1.5 4.15 -2.15 4.85 -2.3 6.25 -2.65 6.95 Q-2.85 7.3 -3.3 7.45 L-3.6 7.45 Q-4.2 7.3 -4.45 6.65 L-4.8 5.3 -4.7 4.1 Q-4.55 3.5 -3.9 3.05 L-2.85 2.3 -2.15 1.55 -1.55 0.55 -1.25 0.2 -1.2 0.15" fill="#d7ac4a" fill-rule="evenodd" stroke="none"/>
    <path d="M-1.2 0.15 L-1.25 0.2 -1.55 0.55 -2.15 1.55 -2.85 2.3 -3.9 3.05 Q-4.55 3.5 -4.7 4.1 L-4.8 5.3 -4.45 6.65 Q-4.2 7.3 -3.6 7.45 L-3.3 7.45 Q-2.85 7.3 -2.65 6.95 L-2.3 6.25 -2.15 4.85 -1.5 4.15 -0.85 3.8 -0.2 3.35 0.4 3.05 1.1 2.7 2.0 2.75 2.6 3.55 2.9 4.8 3.05 5.65 3.4 5.85 4.25 5.65 5.0 5.1 5.4 4.25 5.5 3.1 5.4 1.85 5.35 1.25 4.55 0.7 3.5 0.2 1.7 -0.6" fill="none" stroke="#956215" stroke-linecap="round" stroke-linejoin="round" stroke-width="1.0"/>
  </g>
</svg>