<?xml version="1.0" encoding="UTF-8" standalone="no"?>
<svg xmlns:xlink="http://www.w3.org/1999/xlink" height="408.45px" width="450.25px" xmlns="http://www.w3.org/2000/svg">
  <g transform="matrix(1.0, 0.0, 0.0, 1.0, 38.05, -1.35)">
    <path d="M406.0 18.05 Q408.3 14.45 409.7 18.0 410.85 21.0 410.7 24.7 L410.5 33.25 Q410.5 39.55 410.0 45.85 L407.85 67.0 Q406.55 78.5 406.45 90.1 406.35 99.35 405.8 108.6 L404.6 128.45 403.3 148.95 401.95 174.0 Q401.35 186.6 402.7 199.1 L403.6 204.45 403.9 207.7 Q403.65 218.95 402.7 230.2 L400.65 255.3 Q400.4 257.95 401.05 260.45 403.05 260.7 402.8 262.65 402.5 264.55 402.5 266.55 L402.5 287.7 402.55 310.85 Q402.65 323.7 403.35 336.6 L403.75 347.2 403.7 372.25 403.25 395.4 403.4 400.65 403.9 403.3 M389.25 35.25 Q391.0 38.55 391.0 41.85 391.0 51.45 390.1 61.0 389.25 70.3 387.6 79.5 L383.8 100.75 Q381.9 111.25 380.15 121.85 378.75 130.1 378.0 138.4 377.35 145.0 378.15 151.55 378.4 153.9 379.7 156.1 381.2 160.2 381.25 162.8 L380.9 172.0 Q380.45 176.75 381.8 181.4 382.6 184.25 382.9 187.25 383.95 197.75 383.55 208.4 L382.95 230.85 Q386.15 244.4 384.35 256.75 383.65 261.6 383.65 266.55 L383.45 286.35 Q383.25 297.95 386.3 308.7 387.5 310.5 387.65 311.5 389.1 318.95 388.15 326.65 L386.85 336.65 385.55 349.1 384.7 363.0 384.05 375.55 Q383.7 384.05 385.05 392.05 L382.95 386.8 M366.9 45.85 Q366.9 44.5 367.5 43.45 368.65 45.15 368.8 47.15 369.7 59.4 369.3 71.6 369.0 80.2 368.3 88.8 L366.75 107.3 365.05 125.8 Q364.45 132.1 364.35 138.35 364.15 145.0 369.25 148.3 369.0 160.5 367.95 171.3 L365.7 193.85 364.8 203.1 Q366.8 204.45 366.9 202.3 366.9 222.85 367.2 243.4 367.3 253.4 366.65 263.25 366.2 270.85 366.2 278.45 L366.45 299.6 Q366.55 303.55 366.9 307.5 367.8 306.3 367.7 304.85 368.95 314.65 368.0 324.75 367.6 329.0 367.6 333.3 L367.85 349.75 368.1 360.35 368.3 370.25 Q367.45 364.8 364.8 359.7 M346.65 61.05 Q345.0 54.9 346.45 49.1 L346.65 45.15 M330.6 25.35 L330.7 28.0 Q331.2 62.75 328.6 98.05 L328.45 100.05 332.65 75.55 337.35 45.1 Q338.3 38.55 338.3 31.95 338.3 25.55 339.7 19.4 M348.75 37.9 Q349.1 35.3 350.05 33.2 352.55 48.2 351.2 64.35 L349.75 80.85 Q348.4 95.05 347.2 109.3 346.1 122.15 346.05 135.05 L345.85 148.3 Q345.75 154.95 347.25 161.5 348.6 167.05 349.3 172.7 350.85 185.25 348.9 197.8 346.25 214.6 344.1 231.5 343.55 236.15 343.35 240.75 L342.65 260.6 Q342.5 268.55 343.05 276.45 343.75 286.05 343.95 295.65 344.35 316.45 345.05 337.25 L345.45 353.1 Q345.6 359.7 345.9 366.3 346.15 372.6 346.9 378.85 347.2 381.5 348.75 383.5 349.1 382.5 348.75 381.5 M333.65 392.0 L332.95 386.95 332.3 382.35 332.25 382.2 332.25 382.1 332.25 382.0 331.65 375.95 331.6 375.55 331.6 375.2 331.5 374.05 331.3 369.15 331.3 368.1 Q329.8 356.55 331.65 345.1 L331.65 345.05 331.75 344.45 Q329.9 332.85 329.9 321.4 329.9 316.1 331.25 310.75 L331.25 310.65 329.85 305.55 328.9 301.5 Q327.2 292.05 327.2 282.4 L327.25 275.3 327.2 275.25 Q326.3 273.15 327.25 270.6 322.4 260.9 322.2 250.7 L321.95 231.5 Q321.95 219.3 322.3 207.05 322.65 194.3 323.9 181.5 L323.9 180.75 Q323.4 174.4 323.95 168.1 L323.95 167.9 323.95 167.5 323.95 167.1 Q324.05 160.35 324.4 153.55 L324.45 152.25 Q324.85 139.35 326.4 126.45 L327.4 113.25 328.25 103.0 328.45 100.35 328.45 100.05 M326.4 126.45 L325.6 135.7 324.7 148.3 324.45 152.25 M327.25 270.6 L327.35 262.6 Q327.7 244.7 329.65 226.9 330.6 217.8 328.35 209.1 L326.05 200.4 325.1 195.8 324.45 191.2 Q324.05 187.9 323.95 184.6 L323.9 181.5 323.9 181.3 323.9 180.75 Q323.75 175.05 323.9 169.4 L323.95 168.1 M331.25 310.65 Q331.6 297.85 329.85 285.05 L329.45 280.4 Q329.3 277.65 327.25 275.3 L327.25 270.6 M331.25 310.65 Q333.95 322.05 332.6 334.0 332.0 338.9 331.75 343.9 L331.75 344.45 331.75 344.65 331.65 345.05 M331.5 374.05 L331.5 373.55 331.3 369.15 M331.65 375.95 L331.6 375.2 M332.3 382.35 L332.25 382.1 M331.3 368.1 Q330.95 356.55 331.65 345.1 M246.95 19.4 Q248.3 29.45 247.7 39.9 L246.55 55.7 244.45 77.55 Q243.1 90.45 242.25 103.35 L241.35 117.9 240.65 131.75 Q240.3 139.05 240.2 146.3 239.95 159.5 240.15 172.7 L240.65 195.8 241.5 215.65 242.4 240.75 Q242.8 253.3 244.05 265.85 244.15 266.85 244.7 267.9 247.55 274.1 247.2 281.1 L246.85 289.7 Q246.55 302.55 245.75 315.45 L244.85 332.65 Q244.5 341.9 244.3 351.1 L243.35 374.9 Q242.9 383.3 243.8 391.45 244.5 392.4 244.15 394.05 L243.8 391.45 M276.25 19.4 Q276.25 29.95 275.6 40.5 275.2 47.8 274.15 55.1 L271.15 74.2 267.3 96.75 Q265.1 109.3 263.15 121.85 261.25 134.05 259.8 146.35 258.45 157.2 257.9 168.05 257.4 176.0 257.15 183.9 256.85 190.9 258.1 197.8 258.85 201.65 260.65 205.2 261.25 206.4 261.5 207.7 263.05 216.2 262.05 224.95 261.6 228.85 261.5 232.85 261.15 244.8 262.05 256.65 263.0 268.25 264.9 279.8 265.45 283.05 266.15 286.3 L267.6 292.4 269.35 300.9 Q271.5 313.1 271.45 325.35 L271.35 349.1 271.35 373.55 271.35 398.0 270.65 394.05 M294.4 34.6 Q295.1 42.5 295.1 51.1 295.1 63.35 294.15 75.55 L292.25 97.4 290.9 109.95 288.1 136.4 Q287.4 143.3 286.85 150.25 285.65 164.15 284.75 177.95 L283.85 191.2 282.85 214.35 Q282.55 223.25 282.55 232.15 282.55 239.75 283.15 247.3 284.9 250.35 285.45 253.3 L286.85 261.9 288.05 269.2 289.45 278.45 290.05 283.75 290.4 289.0 290.75 294.95 290.9 300.25 291.1 305.55 Q291.5 312.5 292.6 319.35 L294.85 331.35 295.95 337.25 Q298.6 352.65 298.3 368.3 298.25 370.6 298.75 372.85 300.2 379.1 300.8 385.45 L301.2 391.4 301.35 397.35 Q299.5 396.7 299.0 394.1 L297.9 390.1 M305.45 56.4 L305.2 58.4 Q304.9 61.0 305.05 63.7 L305.95 84.85 306.45 98.05 Q306.7 110.65 305.95 123.15 L305.25 137.7 Q304.85 149.45 307.2 160.9 L308.6 168.7 Q310.35 181.0 307.95 193.25 307.3 196.5 306.95 199.8 305.75 211.3 305.45 222.9 L304.85 234.15 Q304.3 241.25 305.55 248.15 L306.5 255.95 307.4 277.1 307.9 289.7 308.85 310.15 Q309.5 323.1 310.85 335.95 L311.9 347.2 Q312.95 360.0 312.9 372.9 M205.8 15.4 L205.55 33.95 Q205.45 37.9 204.95 41.85 L202.2 63.7 198.2 91.45 Q197.05 99.35 196.25 107.3 194.6 123.15 193.45 139.05 192.85 146.65 192.75 154.25 192.55 168.45 193.1 182.6 193.55 194.15 194.8 205.75 195.9 216.65 200.15 226.9 202.3 232.15 204.95 237.2 L206.9 240.25 Q208.3 242.15 208.05 244.75 206.9 257.05 204.5 269.2 202.05 281.7 200.4 294.3 199.15 303.9 198.3 313.45 L196.6 332.65 Q195.6 344.5 196.0 356.4 196.4 368.45 199.5 380.2 L201.85 389.55 Q202.3 391.75 202.35 394.05 202.55 398.45 201.6 402.65 200.5 402.5 200.05 400.7 M171.6 22.05 Q172.3 23.05 172.5 24.15 173.7 29.3 174.0 34.6 174.4 41.2 174.1 47.8 L172.85 66.3 170.95 87.45 Q169.85 99.05 169.0 110.6 L167.45 132.4 Q166.85 143.05 169.15 153.35 170.2 157.85 172.8 161.85 L175.0 164.2 Q176.95 165.65 177.0 168.05 177.6 181.0 175.7 193.85 173.85 206.7 172.4 219.6 L170.2 240.1 Q169.15 250.35 167.4 260.6 L167.45 261.75 167.85 269.0 168.2 275.15 Q168.65 282.4 169.4 289.6 L169.5 290.25 Q171.25 291.0 172.1 291.85 173.2 292.75 173.5 294.35 174.95 302.45 173.45 310.9 176.05 319.65 177.6 328.75 178.2 332.3 178.4 335.95 178.65 340.95 179.25 345.85 177.05 344.9 175.1 343.2 M221.15 27.3 Q224.0 41.1 222.95 53.75 L221.25 72.25 219.0 96.05 217.65 109.95 216.35 123.15 Q215.2 136.05 214.45 148.95 213.8 159.2 213.8 169.4 213.8 181.75 218.4 193.15 L220.3 198.5 Q221.7 203.2 221.4 208.4 220.75 218.6 219.55 228.85 L217.25 250.05 216.05 263.25 Q215.1 275.75 215.3 288.35 215.55 299.6 216.35 310.85 217.3 323.5 219.55 336.0 L220.55 341.9 Q222.25 353.35 222.35 364.95 L222.55 388.75 Q222.55 395.05 223.05 401.25 223.25 403.3 223.9 405.3 224.95 405.65 224.6 407.3 L223.9 405.3 M138.8 32.6 Q138.1 32.05 137.6 30.55 139.15 40.95 138.45 52.45 L136.6 74.9 Q135.6 84.45 136.95 93.95 137.1 95.05 138.4 95.45 141.75 95.55 141.6 94.1 143.0 94.75 142.65 97.45 142.3 100.7 142.25 104.0 142.05 124.15 142.65 144.3 143.0 155.2 143.0 166.15 143.0 191.95 144.75 217.65 L145.1 226.9 Q145.0 243.4 146.0 259.95 146.5 267.85 147.8 275.8 148.55 280.2 149.95 284.4 150.3 285.4 155.25 399.75 M167.45 261.75 L167.05 255.95 Q166.55 248.05 165.25 240.1 164.6 236.15 164.6 232.15 164.6 205.0 162.35 177.95 L161.5 164.8 Q159.9 137.45 160.3 109.95 L160.8 97.4 Q161.35 86.55 159.05 76.25 L156.95 77.55 Q154.0 67.7 151.9 57.1 151.35 54.4 151.25 51.8 151.15 47.3 148.2 45.2 148.05 46.9 147.15 48.45 M94.2 21.35 Q96.0 33.2 95.4 44.5 L94.15 63.0 92.35 86.15 Q91.4 98.7 90.85 111.25 90.35 122.15 90.3 133.1 90.2 145.4 95.3 156.7 96.3 158.85 98.05 160.5 99.8 162.5 99.65 163.5 98.25 174.25 97.4 185.25 96.55 196.15 95.95 207.05 L95.4 222.25 95.05 237.45 Q94.75 250.55 98.6 263.2 101.8 273.65 102.35 284.4 L102.6 294.95 Q102.6 306.2 102.75 317.45 102.85 329.65 103.5 341.9 104.05 352.85 106.1 363.65 106.4 365.3 106.3 404.25 M118.6 26.65 Q121.9 35.75 121.65 45.85 L121.25 62.35 120.6 84.15 119.9 96.75 118.05 120.5 Q117.0 133.5 119.4 146.3 121.05 144.65 120.75 143.65 120.85 140.65 122.7 141.35 127.8 147.05 127.5 153.55 127.35 157.6 127.95 161.55 128.4 165.15 128.45 168.7 128.7 194.55 127.3 220.25 125.35 254.65 127.4 289.0 127.7 294.3 128.4 299.6 L130.45 315.45 Q131.1 321.15 132.3 326.75 132.6 328.0 132.6 408.3 M50.25 17.4 Q48.55 27.8 49.9 38.6 50.6 44.5 50.9 50.45 51.3 58.7 51.3 67.0 L50.95 86.8 50.3 107.3 49.7 133.1 Q49.55 142.65 49.55 152.25 49.55 161.45 50.2 170.65 L50.55 172.8 Q50.95 174.35 50.9 176.0 50.35 188.9 49.3 201.75 L48.5 214.35 48.0 228.2 47.7 242.75 47.0 265.9 Q46.75 270.2 46.75 274.45 L46.15 272.45 Q44.65 273.8 44.35 275.75 43.25 284.0 43.45 292.3 43.65 301.65 42.85 310.85 42.55 313.8 42.55 316.8 L42.45 322.75 41.8 333.3 Q41.3 339.05 42.3 344.6 L43.05 348.35 43.65 350.55 Q46.05 356.45 45.4 363.0 L42.95 397.75 M75.35 16.75 L75.55 37.25 Q75.75 49.45 74.6 61.7 L72.75 83.5 Q71.85 94.75 71.3 106.0 70.85 115.9 71.35 125.75 71.85 135.4 74.05 144.8 76.05 153.9 78.7 162.9 80.3 168.65 80.5 174.65 80.7 185.3 79.5 195.8 L76.4 221.55 Q74.85 234.2 77.35 246.7 79.55 257.55 80.75 268.55 82.1 280.35 81.75 292.3 81.4 304.2 80.65 316.1 80.25 321.75 80.3 327.35 80.3 337.3 79.15 347.25 77.75 358.7 76.9 370.25 L75.2 392.75 Q74.65 399.75 76.05 405.95 M14.65 21.35 Q15.95 21.5 15.7 23.4 15.35 25.65 15.45 28.0 15.95 39.55 16.0 51.1 L15.9 67.65 15.55 87.45 15.25 106.0 Q15.05 116.95 16.7 127.8 18.1 136.75 19.95 145.7 L21.8 154.85 24.35 166.95 Q25.15 170.45 25.25 174.0 L25.55 184.6 Q25.6 197.15 24.7 209.7 23.85 221.7 25.15 233.5 25.6 237.7 27.3 241.05 27.9 242.4 27.8 244.05 26.85 255.3 25.2 266.55 23.6 276.75 23.5 287.05 L23.2 312.15 Q23.05 325.05 23.05 337.95 L23.05 362.35 Q21.15 363.1 21.25 364.95 L21.25 367.6 Q20.95 372.25 20.95 376.85 20.95 379.2 21.25 381.45 M119.4 146.3 Q121.4 146.95 121.8 148.1 123.0 151.3 121.4 150.95 119.9 148.95 119.4 146.3 M-4.9 9.5 Q-5.3 18.8 -4.65 28.05 -3.85 39.2 -4.0 50.45 -4.2 62.0 -4.9 73.6 L-5.55 86.15 -6.7 109.3 -6.85 125.8 Q-6.6 136.65 -2.75 146.3 -2.1 158.85 -2.5 170.05 -2.8 177.65 -3.6 185.25 -4.95 198.1 -5.15 211.0 -5.35 222.0 -4.3 232.85 -3.35 242.65 0.45 251.45 L0.7 276.45 0.7 302.25 Q0.7 314.8 0.35 327.35 0.3 329.7 2.1 329.85 L2.95 334.6 Q4.15 347.0 3.75 359.7 L3.5 376.2 M167.85 269.0 L168.35 277.65 Q167.75 282.4 169.1 286.9 L169.4 289.6 169.75 293.0 Q170.8 302.05 173.45 310.9 173.45 323.7 172.95 336.6 172.65 342.9 172.6 349.1 172.45 356.4 173.65 363.55 174.05 365.95 175.2 368.2 L176.5 370.25 Q179.75 375.1 178.85 381.55 178.55 383.8 178.7 386.15 179.2 395.8 180.65 405.3 L179.2 403.35 177.85 401.35 M-18.85 2.85 Q-19.55 4.2 -19.75 5.55 -20.25 8.8 -19.95 12.1 -19.4 18.0 -19.1 24.0 L-18.7 35.25 Q-18.35 48.2 -19.65 61.05 L-20.65 72.25 Q-21.35 81.3 -19.65 90.0 -18.85 92.75 -18.85 94.1 -18.85 105.0 -19.3 115.9 L-20.05 125.15 -21.25 137.7 Q-24.05 139.05 -24.2 141.0 -24.75 149.95 -26.0 158.85 -27.8 171.55 -30.85 184.05 -32.45 190.2 -33.45 196.5 -35.35 209.3 -34.95 222.25 L-34.8 227.55 Q-34.55 243.9 -36.45 259.95 -36.85 262.9 -35.6 265.2 L-34.05 267.05 Q-31.8 268.45 -31.7 271.85 -31.2 288.4 -32.4 304.9 -32.65 308.4 -29.95 309.3 -28.5 309.75 -28.3 311.5 -27.2 327.85 -27.65 344.55 -28.2 361.9 -25.1 378.85" fill="none" stroke="#f3e300" stroke-linecap="round" stroke-linejoin="round" stroke-width="1.0"/>
  </g>
</svg>