<?xml version="1.0" encoding="UTF-8" standalone="no"?>
<svg xmlns:xlink="http://www.w3.org/1999/xlink" height="46.05px" width="27.25px" xmlns="http://www.w3.org/2000/svg">
  <g transform="matrix(1.0, 0.0, 0.0, 1.0, 13.6, 23.05)">
    <path d="M3.95 -18.85 L4.2 -18.65 4.25 -18.65 5.2 -16.65 Q6.0 -14.5 7.1 -9.0 L8.7 -0.3 9.85 6.95 Q10.45 11.0 10.95 12.2 L11.8 15.05 Q12.15 16.65 12.65 17.8 L8.6 21.85 Q9.25 18.95 9.0 16.85 L5.9 15.55 Q3.45 14.55 -0.15 13.95 L-7.2 12.65 -12.6 12.0 Q-9.4 7.7 -9.45 0.55 L-9.45 -19.15 -9.45 -19.35 -9.45 -20.35 -9.5 -21.2 -9.15 -21.4 -8.8 -21.65 -5.15 -22.05 -1.1 -21.8 3.7 -18.95 3.95 -18.85 M6.45 -0.45 Q8.1 4.6 8.4 8.3 L9.0 13.35 9.15 15.75 9.0 16.85 9.15 15.75 9.0 13.35 8.4 8.3 Q8.1 4.6 6.45 -0.45" fill="#d6baba" fill-rule="evenodd" stroke="none"/>
    <path d="M4.25 -18.65 L3.95 -18.85 M-9.15 -21.4 L-9.5 -21.2 -9.45 -20.35 -9.45 -19.35 M-9.45 -19.15 L-9.45 0.55 Q-9.4 7.7 -12.6 12.0 L-7.2 12.65 -0.15 13.95 Q3.45 14.55 5.9 15.55 L9.0 16.85 9.15 15.75 9.0 13.35 8.4 8.3 Q8.1 4.6 6.45 -0.45 M4.25 -18.65 L5.2 -16.65 Q6.0 -14.5 7.1 -9.0 L8.7 -0.3 9.85 6.95 Q10.45 11.0 10.95 12.2 L11.8 15.05 Q12.15 16.65 12.65 17.8 L8.6 21.85 8.55 22.0 8.55 21.9 8.6 21.85 Q9.25 18.95 9.0 16.85" fill="none" stroke="#660000" stroke-linecap="round" stroke-linejoin="round" stroke-opacity="0.4" stroke-width="1"/>
  </g>
</svg>