<?xml version="1.0" encoding="UTF-8" standalone="no"?>
<svg xmlns:xlink="http://www.w3.org/1999/xlink" height="116.8px" width="128.45px" xmlns="http://www.w3.org/2000/svg">
  <g transform="matrix(1.0, 0.0, 0.0, 1.0, 139.8, -83.1)">
    <path d="M-21.0 97.45 Q-21.0 96.85 -21.25 96.5 L-21.75 96.0 -30.8 106.45 -30.8 106.4 Q-19.7 91.8 -15.25 84.1 -14.25 84.15 -13.4 84.55 -12.35 85.05 -12.35 85.9 -12.35 86.6 -21.0 97.45 M-45.0 126.1 L-31.65 110.7 Q-43.3 125.35 -48.05 132.5 L-48.5 132.25 Q-47.2 129.55 -45.0 126.1 M-101.65 132.35 L-98.0 132.6 -97.5 133.4 -97.9 134.05 -101.4 134.0 -101.65 132.35 M-136.5 193.75 L-138.8 193.05 Q-135.9 191.45 -134.9 191.3 -133.25 191.0 -131.5 192.5 -131.8 193.0 -133.3 193.75 L-136.5 193.75 M-85.5 169.6 L-86.5 169.5 -86.5 168.25 -86.1 168.25 -85.5 169.6 M-110.05 167.15 Q-110.05 167.8 -111.65 170.6 -113.25 173.4 -113.85 173.8 L-114.35 173.4 -112.85 169.5 Q-111.95 167.0 -110.55 166.6 L-110.3 166.4 Q-110.05 166.35 -110.05 167.15 M-106.35 190.4 Q-105.05 189.5 -104.5 189.35 -103.15 189.0 -99.85 189.35 -99.85 189.85 -99.25 190.55 L-99.05 191.0 -102.4 190.5 -106.35 190.4 M-118.65 191.85 L-118.65 191.5 Q-116.3 191.5 -115.0 192.25 L-115.25 192.9 Q-118.55 192.3 -118.65 191.85 M-81.25 192.35 Q-81.25 193.7 -83.15 195.95 L-86.0 198.9 -86.5 198.8 -84.4 195.15 Q-83.2 192.95 -81.25 192.35 M-83.9 190.15 L-84.0 189.25 Q-84.0 188.8 -82.8 187.75 -81.45 186.5 -80.25 186.5 L-79.85 186.65 Q-79.75 186.65 -79.75 187.4 -79.75 188.25 -80.65 189.1 -81.75 190.2 -83.65 190.4 L-83.9 190.15 M-68.35 150.95 Q-65.9 148.95 -61.55 149.35 -62.05 150.25 -64.0 151.45 -66.3 152.85 -69.5 154.05 -70.05 154.85 -70.05 153.6 -70.05 152.35 -68.35 150.95 M-65.25 183.4 L-65.75 182.85 -65.25 182.75 Q-64.6 183.0 -64.0 184.1 -63.5 185.05 -63.5 185.65 -63.5 186.8 -68.25 193.15 L-68.75 193.05 -66.5 188.25 Q-64.8 185.05 -64.8 184.6 -64.8 183.85 -65.25 183.4 M-51.0 193.3 Q-50.25 193.85 -49.65 195.25 L-48.75 197.6 Q-48.95 198.3 -49.65 198.65 -50.7 197.9 -51.35 196.45 -52.0 195.1 -52.0 194.0 L-51.85 193.25 -51.75 193.4 -51.0 193.3 M-52.0 188.5 Q-52.65 188.9 -52.65 187.65 L-52.05 186.6 Q-51.5 185.6 -51.5 184.15 -50.3 184.1 -49.65 184.85 -49.1 185.5 -49.1 186.6 -49.1 187.65 -49.75 188.25 -50.25 188.75 -51.0 188.75 -52.25 188.75 -52.0 188.5 M-27.8 191.0 L-28.3 191.75 Q-29.05 191.4 -29.9 190.05 -30.75 188.65 -30.75 187.6 -30.75 186.8 -30.45 186.75 L-29.75 186.75 Q-28.9 187.2 -28.3 188.5 -27.75 189.75 -27.8 191.0" fill="#63bc92" fill-rule="evenodd" stroke="none"/>
    <path d="M-21.0 97.45 L-21.0 97.55 Q-21.0 98.5 -30.7 109.6 L-31.65 110.7 -45.0 126.1 -45.1 126.2 -45.65 126.0 -44.75 124.45 -44.7 124.45 -36.55 115.3 Q-30.55 108.45 -30.55 107.7 -30.55 106.95 -30.8 106.45 L-21.75 96.0 -21.25 96.5 Q-21.0 96.85 -21.0 97.45 M-37.4 114.15 L-37.95 114.85 -38.4 115.45 -37.4 114.15" fill="#7cdeb0" fill-rule="evenodd" stroke="none"/>
    <path d="M-30.8 106.45 Q-30.55 106.95 -30.55 107.7 -30.55 108.45 -36.55 115.3 L-44.7 124.45 -44.75 124.45 -45.1 124.25 -40.95 118.75 -38.4 115.45 -37.95 114.85 -37.4 114.15 -36.25 112.8 -30.95 106.15 -30.8 106.4 -30.8 106.45" fill="#bcfadd" fill-rule="evenodd" stroke="none"/>
  </g>
</svg>