<?xml version="1.0" encoding="UTF-8" standalone="no"?>
<svg xmlns:xlink="http://www.w3.org/1999/xlink" height="33.65px" width="19.05px" xmlns="http://www.w3.org/2000/svg">
  <g transform="matrix(1.0, 0.0, 0.0, 1.0, 22.95, -77.9)">
    <path d="M-5.8 78.9 L-5.05 79.55 Q-4.9 79.8 -4.9 80.5 -4.9 82.25 -9.15 94.25 -13.4 106.3 -15.55 110.35 L-16.15 110.55 Q-16.9 110.3 -17.05 109.75 L-17.1 108.95 -16.55 105.7 -16.05 102.9 -16.3 100.4 -16.55 98.3 -17.2 97.7 -17.9 96.95 -16.75 93.1 -17.2 92.6 Q-17.55 92.05 -17.1 90.9 L-17.1 90.4 -19.5 92.95 Q-21.1 94.65 -21.95 95.05 -20.8 91.2 -16.25 86.3 -11.6 81.3 -8.15 81.35 L-7.3 81.25 -6.85 80.3 -5.8 78.9" fill="#63bc92" fill-rule="evenodd" stroke="none"/>
  </g>
</svg>