<?xml version="1.0" encoding="UTF-8" standalone="no"?>
<svg xmlns:xlink="http://www.w3.org/1999/xlink" height="45.4px" width="57.85px" xmlns="http://www.w3.org/2000/svg">
  <g transform="matrix(1.0, 0.0, 0.0, 1.0, 54.3, -69.4)">
    <path d="M-19.9 86.4 Q-19.9 85.45 -15.2 80.7 L-9.95 75.7 -9.35 75.85 Q-9.1 75.95 -9.1 76.55 L-9.45 77.5 -10.15 78.7 -10.05 78.8 -4.05 72.95 Q-0.9 70.05 2.45 70.45 L2.55 71.8 Q2.55 72.95 -0.25 80.6 L-3.85 90.0 -6.2 98.5 Q-8.8 106.0 -11.6 106.0 L-13.15 105.95 -12.15 102.7 -9.75 94.65 Q-7.35 94.85 -6.65 92.45 L-5.7 88.25 Q-2.4 80.95 -2.4 79.85 L-2.6 77.9 -2.9 75.8 Q-6.0 77.1 -7.6 82.4 L-10.35 91.25 -11.5 93.9 Q-12.3 95.1 -13.4 97.95 -14.75 101.45 -15.75 102.7 L-15.95 102.45 -13.05 95.85 Q-8.2 84.9 -8.2 80.75 L-8.3 79.55 -8.45 79.45 -9.35 79.35 Q-10.8 79.35 -14.2 83.75 L-14.35 84.0 -14.5 84.0 -15.3 83.55 -15.45 82.85 -17.7 85.85 -17.9 86.15 -15.55 84.9 -16.65 86.5 Q-17.25 87.15 -17.8 87.45 L-18.4 87.6 -18.75 87.6 -19.9 86.4 M-16.8 97.0 L-17.0 97.15 -16.5 96.25 -16.8 97.0 M-17.7 93.05 L-16.5 90.3 -16.15 89.9 -16.25 90.2 -17.7 93.05 M-26.2 85.05 L-25.6 84.25 Q-21.6 79.15 -19.35 78.1 -20.75 80.4 -22.95 83.15 L-21.4 81.95 Q-20.2 80.35 -19.35 79.95 L-19.75 81.1 -19.45 81.0 -18.8 81.1 Q-18.6 81.2 -18.55 81.65 L-16.9 79.25 -16.75 79.1 Q-16.65 79.1 -16.65 79.7 -16.65 81.0 -21.65 88.55 -22.45 88.45 -22.65 88.15 L-19.45 83.15 -19.4 83.05 -20.6 83.9 -21.05 84.2 -22.15 85.85 -22.6 85.8 -22.65 86.1 Q-22.65 86.9 -23.25 87.6 -23.9 88.35 -24.85 88.55 L-25.6 87.9 -25.75 86.9 -25.6 86.2 -26.35 87.05 -26.0 85.85 -26.2 85.05" fill="#63bc92" fill-rule="evenodd" stroke="none"/>
    <path d="M-13.15 105.95 Q-14.05 108.7 -14.9 110.45 -16.1 110.3 -16.35 109.4 L-16.45 108.1 Q-16.45 106.75 -13.7 99.5 L-11.5 93.9 -10.35 91.25 -7.6 82.4 Q-6.0 77.1 -2.9 75.8 L-2.6 77.9 -2.4 79.85 Q-2.4 80.95 -5.7 88.25 L-6.65 92.45 Q-7.35 94.85 -9.75 94.65 L-12.15 102.7 -13.15 105.95 M-15.95 102.45 L-19.05 109.25 -19.7 109.35 -20.8 109.15 -20.55 107.85 -20.45 108.05 -19.9 108.4 Q-16.85 102.45 -12.9 93.7 -8.7 84.35 -8.7 83.2 L-8.9 82.25 -9.55 81.9 Q-11.8 85.35 -16.25 95.65 L-16.5 96.25 -17.0 97.15 -26.5 113.8 -28.15 113.8 -28.25 112.85 Q-28.25 112.3 -23.25 103.2 L-17.7 93.05 -16.25 90.2 -16.15 89.9 -16.5 90.3 -20.8 95.35 -25.65 101.05 -25.7 101.05 -21.9 96.4 Q-17.7 91.2 -17.7 90.5 -17.7 89.85 -17.95 89.65 L-18.65 89.35 Q-21.9 92.5 -25.05 96.9 L-26.5 99.0 -25.75 97.25 -24.0 94.95 -30.75 103.5 Q-36.05 110.15 -37.45 110.15 L-38.6 109.95 -38.6 108.1 Q-37.85 105.25 -35.55 101.0 L-31.75 94.15 -31.75 93.9 -34.7 97.7 Q-36.25 99.6 -37.3 100.3 -35.4 98.3 -32.05 93.3 -28.15 87.4 -28.15 86.75 -28.15 86.15 -28.3 85.95 L-26.9 84.7 -26.25 85.0 -26.2 85.05 -26.0 85.85 -26.35 87.05 -26.4 87.1 Q-27.25 89.1 -29.85 94.5 -33.75 102.6 -35.3 105.1 L-35.3 105.3 Q-32.6 102.45 -24.8 92.65 L-19.9 86.4 -18.75 87.6 -18.4 87.6 -17.8 87.45 -17.8 87.55 -17.7 88.35 -17.7 88.55 -14.35 84.0 -14.2 83.75 Q-10.8 79.35 -9.35 79.35 L-8.45 79.45 -8.3 79.55 -8.2 80.75 Q-8.2 84.9 -13.05 95.85 L-15.95 102.45 M-38.45 100.65 Q-39.3 100.65 -39.1 100.45 L-39.4 100.25 -39.45 99.5 Q-39.45 97.95 -37.5 95.15 L-35.7 92.75 -32.25 88.75 Q-27.75 83.55 -27.75 83.15 -27.75 82.5 -27.95 82.3 L-28.35 81.9 Q-30.65 84.0 -35.05 89.2 -39.55 94.5 -39.55 95.2 -39.55 95.8 -39.35 95.85 L-39.1 95.8 -42.75 100.3 Q-47.9 106.65 -53.3 108.7 L-33.85 86.6 Q-22.25 73.35 -22.25 76.75 -22.25 77.3 -26.65 83.4 L-28.4 85.85 -29.0 85.65 Q-30.8 87.45 -34.7 93.4 -38.5 99.3 -38.5 100.1 L-38.45 100.65 M-3.2 81.8 Q-3.2 81.2 -3.5 81.1 L-4.15 81.0 Q-5.35 81.7 -7.5 86.2 -9.55 90.45 -9.55 91.55 L-8.4 92.6 Q-3.2 82.65 -3.2 81.8" fill="#7cdeb0" fill-rule="evenodd" stroke="none"/>
    <path d="M-20.55 107.85 L-20.6 107.1 Q-20.6 105.8 -16.8 97.0 L-16.5 96.25 -16.25 95.65 Q-11.8 85.35 -9.55 81.9 L-8.9 82.25 -8.7 83.2 Q-8.7 84.35 -12.9 93.7 -16.85 102.45 -19.9 108.4 L-20.45 108.05 -20.55 107.85 M-25.7 101.05 L-29.1 105.1 -29.8 105.0 Q-28.75 102.3 -26.5 99.0 L-25.05 96.9 Q-21.9 92.5 -18.65 89.35 L-17.95 89.65 Q-17.7 89.85 -17.7 90.5 -17.7 91.2 -21.9 96.4 L-25.7 101.05 M-37.3 100.3 L-38.1 101.05 -38.35 100.85 -38.45 100.65 -38.5 100.1 Q-38.5 99.3 -34.7 93.4 -30.8 87.45 -29.0 85.65 L-28.4 85.85 -28.35 85.9 -28.3 85.95 Q-28.15 86.15 -28.15 86.75 -28.15 87.4 -32.05 93.3 -35.4 98.3 -37.3 100.3 M-35.7 92.75 L-38.6 95.8 -39.1 95.8 -39.35 95.85 Q-39.55 95.8 -39.55 95.2 -39.55 94.5 -35.05 89.2 -30.65 84.0 -28.35 81.9 L-27.95 82.3 Q-27.75 82.5 -27.75 83.15 -27.75 83.55 -32.25 88.75 L-35.7 92.75 M-3.2 81.8 Q-3.2 82.65 -8.4 92.6 L-9.55 91.55 Q-9.55 90.45 -7.5 86.2 -5.35 81.7 -4.15 81.0 L-3.5 81.1 Q-3.2 81.2 -3.2 81.8" fill="#bcfadd" fill-rule="evenodd" stroke="none"/>
  </g>
</svg>