<?xml version="1.0" encoding="UTF-8" standalone="no"?>
<svg xmlns:xlink="http://www.w3.org/1999/xlink" height="89px" width="23.6px" xmlns="http://www.w3.org/2000/svg">
  <g transform="matrix(1.0, 0.0, 0.0, 1.0, 22.1, -100.35)">
    <path d="M0.5 182.25 Q0.5 185.0 0.1 187.55 L-1.35 187.85 Q-1.9 186.3 -1.9 184.25 -1.9 179.65 -0.45 178.0 0.0 178.55 0.3 180.05 L0.5 182.25 M-2.1 102.9 Q-1.4 103.85 -1.2 105.8 L-1.15 108.85 Q-1.15 113.9 -1.3 115.0 -1.6 116.9 -3.55 122.55 L-3.55 122.7 Q-4.55 121.8 -4.55 120.4 -3.05 112.5 -3.0 111.4 L-3.1 106.7 Q-3.1 103.9 -2.1 102.9 M-5.1 110.5 L-4.9 111.9 -5.3 115.3 -6.0 118.95 Q-6.35 118.5 -6.75 116.65 L-7.15 114.5 -6.65 109.0 -5.8 108.9 Q-5.4 109.45 -5.1 110.5 M-8.25 102.25 L-8.2 103.1 Q-8.2 104.95 -11.3 110.35 -14.4 115.8 -15.65 115.85 -15.3 114.0 -12.4 109.2 -9.7 104.65 -9.45 102.2 -9.3 101.9 -8.5 101.9 L-8.25 102.25 M-11.5 101.8 L-11.4 102.75 Q-11.4 104.05 -13.75 108.25 -16.25 112.75 -17.7 112.85 L-14.85 106.2 Q-12.95 101.75 -11.8 101.35 L-11.5 101.8 M-15.8 102.4 L-15.75 103.05 Q-15.75 104.2 -17.65 108.5 -19.7 113.25 -21.1 114.1 L-18.85 107.45 Q-17.5 103.05 -16.05 102.3 L-15.8 102.4 M-10.05 134.1 L-11.4 145.95 -12.5 140.35 -12.55 135.75 Q-12.55 132.4 -11.9 130.4 -11.3 128.4 -11.3 126.3 -11.3 124.55 -12.0 120.55 -12.75 116.5 -12.75 114.95 -12.75 114.3 -12.05 114.2 L-10.8 114.3 -9.95 120.35 Q-9.45 123.95 -9.45 126.4 -9.45 127.65 -9.8 131.6 L-9.95 131.45 -11.4 131.65 Q-11.4 133.55 -12.1 136.5 L-11.8 137.55 -11.5 137.55 -10.05 134.1 M-0.35 148.0 L-0.35 150.2 -0.85 150.7 Q-1.6 150.4 -2.05 149.55 L-2.5 148.1 -2.4 147.25 -2.3 146.8 -2.0 146.8 Q-1.5 146.95 -0.35 148.0 M-9.95 171.7 L-10.15 171.2 Q-11.15 171.2 -11.3 171.7 -11.15 172.05 -11.1 174.65 -11.0 176.3 -10.5 177.05 L-11.1 187.85 -11.6 188.35 -12.85 188.25 -12.95 185.3 -12.55 165.9 -12.5 165.35 -12.35 165.3 Q-9.6 165.25 -9.65 168.9 -9.65 170.2 -9.95 171.7" fill="#63bc92" fill-rule="evenodd" stroke="none"/>
    <path d="M-9.8 131.6 Q-9.65 131.85 -9.65 132.6 L-10.05 134.1 -11.5 137.55 -11.8 137.55 -12.1 136.5 Q-11.4 133.55 -11.4 131.65 L-9.95 131.45 -9.8 131.6 M-10.5 177.05 Q-11.0 176.3 -11.1 174.65 -11.15 172.05 -11.3 171.7 -11.15 171.2 -10.15 171.2 L-9.95 171.7 Q-9.65 172.65 -9.65 173.95 -9.65 175.4 -10.15 177.3 L-10.15 177.4 -10.5 177.05" fill="#bcfadd" fill-rule="evenodd" stroke="none"/>
  </g>
</svg>