<?xml version="1.0" encoding="UTF-8" standalone="no"?>
<svg xmlns:xlink="http://www.w3.org/1999/xlink" height="136.85px" width="113.8px" xmlns="http://www.w3.org/2000/svg">
  <g transform="matrix(1.0, 0.0, 0.0, 1.0, 108.7, -66.75)">
    <path d="M1.75 71.85 L3.4 71.7 3.7 71.8 3.8 72.2 4.1 73.45 Q4.1 74.1 -1.2 81.5 L-1.6 82.15 -1.4 82.2 -1.35 82.25 -8.5 95.05 Q-15.45 107.3 -24.45 124.85 L-28.35 132.8 -25.75 126.7 -18.0 105.8 -18.75 104.0 -18.0 101.65 -17.3 99.55 -18.75 98.35 Q-18.75 96.65 -18.2 94.45 L-19.15 93.45 Q-19.15 92.15 -18.5 90.5 L-17.4 87.7 -18.35 89.3 Q-19.05 90.5 -19.9 90.6 L-20.55 90.4 -20.8 89.6 -20.75 88.45 Q-20.65 88.0 -20.0 88.0 -19.6 88.0 -17.65 84.35 -15.5 80.4 -14.5 79.75 -13.4 80.25 -13.5 81.05 L-14.0 82.45 -13.9 82.55 -11.7 79.7 Q-10.45 78.0 -9.75 77.8 L-9.6 77.95 -9.4 77.8 -6.95 76.35 -4.15 74.9 -0.1 73.45 Q-0.15 72.95 -0.6 72.9 L-1.15 72.7 1.2 71.45 1.75 71.85 M-52.05 96.5 Q-44.4 88.85 -32.8 75.55 L-27.85 69.8 -26.1 67.75 -25.4 68.05 Q-25.15 68.25 -25.15 68.9 -25.15 69.55 -25.4 69.75 L-26.1 70.05 -25.55 70.35 -24.75 71.05 -26.1 72.65 -26.0 74.05 Q-26.0 74.4 -32.15 83.1 -39.0 92.8 -40.85 96.1 L-40.75 96.2 -32.35 84.55 Q-27.35 77.8 -21.95 73.15 L-21.3 73.35 Q-21.0 73.45 -21.0 74.1 -21.0 74.6 -25.05 80.2 L-31.15 88.55 -35.75 95.7 Q-38.75 99.9 -41.2 100.35 L-43.35 103.2 Q-45.2 105.6 -45.75 105.6 L-46.55 105.45 Q-46.85 105.75 -46.85 104.75 -46.85 102.55 -41.35 93.9 L-35.1 84.6 -35.0 84.3 -44.15 94.35 Q-45.55 92.75 -53.0 100.15 L-67.75 115.45 Q-72.7 120.1 -78.05 126.05 L-71.65 117.1 -70.95 116.2 -69.7 114.9 Q-60.1 105.1 -53.0 96.5 L-46.85 90.3 -52.05 96.4 -52.05 96.5 M-21.0 79.15 L-20.9 79.8 Q-20.9 80.5 -24.1 85.65 -27.4 91.0 -29.2 93.0 -25.8 83.25 -21.35 79.05 L-21.0 79.15 M-21.55 82.25 L-20.8 82.5 Q-20.6 82.65 -20.6 83.35 -20.6 83.95 -21.05 84.75 L-21.85 86.45 Q-21.45 86.2 -20.4 84.25 L-18.95 81.8 Q-17.7 82.65 -17.7 83.7 -17.7 85.0 -24.85 93.2 -26.1 91.55 -26.1 90.65 -26.1 89.6 -23.9 85.9 L-21.55 82.25 M-86.8 144.2 L-87.25 143.9 -87.4 143.1 Q-84.5 140.6 -82.15 141.1 L-82.05 141.55 Q-83.5 143.0 -86.8 144.2 M-89.2 172.85 L-79.75 160.45 -75.7 154.1 Q-72.95 150.05 -70.35 149.45 L-70.25 150.85 Q-70.25 154.65 -88.55 173.35 -89.2 173.85 -89.2 172.85 M-97.15 165.85 Q-97.15 167.1 -100.55 172.2 -104.15 177.6 -105.75 177.6 -107.25 177.6 -107.6 176.85 L-107.7 176.0 Q-107.7 175.15 -98.05 164.55 -97.55 164.75 -97.4 164.9 -97.15 165.2 -97.15 165.85 M-16.45 142.3 Q-16.45 143.1 -16.6 143.3 -17.1 143.85 -18.95 143.65 -19.25 144.2 -19.25 143.2 L-18.65 142.0 -17.2 140.45 -16.6 141.25 Q-16.45 141.6 -16.45 142.3 M-61.55 132.3 L-61.75 133.25 -62.05 133.5 -62.9 133.75 -63.65 133.6 -64.15 133.25 -64.25 132.75 Q-63.15 131.05 -62.0 131.65 L-61.55 132.3 M-49.45 145.2 L-47.2 145.35 -47.1 147.2 Q-47.1 147.9 -48.85 149.45 L-49.5 149.05 -49.75 148.0 -49.45 145.2 M-64.75 178.25 L-65.0 179.65 -65.0 179.75 Q-62.6 175.1 -62.0 174.4 -64.75 184.95 -70.35 191.65 L-72.0 191.55 -72.1 190.3 Q-72.1 189.1 -69.35 183.2 L-66.55 177.3 -65.8 177.0 Q-64.75 177.4 -64.75 178.25 M-30.95 191.45 Q-30.95 193.05 -31.75 197.35 L-32.3 197.85 -33.55 197.75 -33.65 196.05 Q-33.65 194.4 -33.15 192.25 -32.6 189.9 -31.9 189.4 L-31.15 190.65 -30.95 191.45 M-48.65 201.95 L-47.6 199.7 Q-46.55 197.7 -45.85 197.05 -45.55 197.35 -45.55 198.6 -45.55 203.3 -48.45 202.4 -48.65 202.95 -48.65 201.95" fill="#63bc92" fill-rule="evenodd" stroke="none"/>
  </g>
</svg>