<?xml version="1.0" encoding="UTF-8" standalone="no"?>
<svg xmlns:xlink="http://www.w3.org/1999/xlink" height="83.6px" width="43.5px" xmlns="http://www.w3.org/2000/svg">
  <g transform="matrix(1.0, 0.0, 0.0, 1.0, 42, -87.65)">
    <path d="M0.5 101.75 Q0.5 102.35 -0.1 103.6 -0.85 105.0 -1.05 106.15 L-1.45 106.0 -1.25 104.75 Q-1.25 102.95 -1.8 98.9 L-2.1 98.8 -2.7 101.15 -3.1 101.05 -2.6 98.15 Q-2.1 96.45 0.0 96.9 L0.5 101.75 M-26.0 95.15 L-31.35 99.8 -35.75 104.5 Q-38.25 107.2 -40.15 108.4 -37.55 103.7 -31.9 97.9 -26.3 92.1 -21.1 88.65 L-21.0 89.55 Q-21.0 90.55 -26.0 95.15 M-14.0 91.35 L-13.65 90.9 -12.95 91.9 Q-12.35 92.8 -12.35 93.3 -12.35 93.8 -22.15 105.15 L-37.15 122.55 -37.45 122.55 -25.85 106.65 -19.95 98.8 -23.65 102.7 -40.35 120.0 -41.0 119.55 -28.6 104.6 Q-20.6 95.25 -14.9 90.9 L-14.2 90.95 -14.0 91.35 M-8.4 104.75 Q-8.4 105.75 -11.4 109.1 -14.4 112.4 -15.75 112.95 -16.45 113.6 -16.45 112.6 L-13.1 108.9 Q-9.75 105.4 -9.75 102.3 L-8.9 102.3 Q-8.4 103.3 -8.4 104.75 M-3.3 110.9 Q-3.65 110.5 -4.55 111.1 -4.25 111.85 -4.4 112.95 L-4.45 112.85 -4.65 112.85 Q-4.3 109.2 -5.7 104.05 -5.0 102.85 -3.35 102.7 -3.2 104.55 -3.2 108.45 L-3.3 110.9 M-4.75 113.5 L-4.65 113.85 -4.7 113.9 -4.95 114.55 -4.75 113.5 M-5.65 116.45 L-5.4 116.55 -4.0 115.15 -5.1 118.15 -8.6 123.75 -8.4 121.7 -8.5 119.95 -6.75 118.1 -5.65 116.45 M-12.15 104.4 Q-12.0 104.5 -12.0 105.1 -12.0 106.35 -14.5 109.0 L-18.2 112.45 -18.85 112.25 -15.3 107.85 -12.35 104.45 -12.15 104.4 M-15.1 115.25 L-16.75 113.9 -16.55 113.55 -15.2 114.3 Q-14.8 113.3 -14.0 112.85 L-13.9 113.3 -14.55 114.4 -15.1 115.25 M-9.5 127.7 Q-9.6 129.6 -10.05 133.3 -10.75 139.65 -11.6 141.2 -11.8 141.0 -11.8 139.9 L-11.4 132.5 Q-12.1 134.8 -12.65 135.9 L-13.05 135.8 Q-11.6 129.6 -11.6 126.0 L-11.3 120.0 Q-11.3 118.9 -10.65 117.1 -10.05 115.3 -10.05 114.4 -10.05 113.9 -10.85 112.4 L-11.9 110.25 Q-10.3 107.5 -9.1 110.25 -8.2 112.35 -8.2 114.45 -8.2 115.65 -8.7 118.95 L-8.9 118.35 -9.95 118.45 Q-9.85 120.9 -10.25 124.95 L-9.75 127.75 -9.5 127.7 M-19.7 112.4 L-20.7 113.9 -21.45 113.95 Q-21.65 113.9 -21.65 113.3 -21.65 112.7 -21.0 112.15 L-19.35 111.1 Q-19.25 111.4 -19.7 112.4 M-3.35 134.15 Q-2.05 134.8 -1.7 136.55 -1.55 137.15 -1.55 138.85 -1.55 140.35 -2.7 142.1 -3.4 141.45 -3.9 138.7 L-4.25 135.3 -4.0 134.45 -3.35 134.15 M-9.95 161.45 L-9.85 163.75 -10.3 167.0 -11.0 170.25 Q-11.6 169.6 -12.1 166.8 L-12.45 163.4 Q-12.45 162.4 -12.05 161.0 -11.65 159.55 -11.2 159.2 -10.2 160.1 -9.95 161.45" fill="#63bc92" fill-rule="evenodd" stroke="none"/>
    <path d="M-4.65 112.85 L-4.45 112.85 -4.4 112.95 Q-4.25 111.85 -4.55 111.1 -3.65 110.5 -3.3 110.9 L-3.1 111.2 -3.0 112.45 Q-3.0 113.7 -3.5 114.5 L-4.0 115.15 -5.4 116.55 -5.65 116.45 -5.8 116.35 -4.95 114.55 -4.7 113.9 -4.65 113.85 -4.75 113.5 -4.8 112.85 -4.65 112.85 M-8.7 118.95 L-8.5 119.95 -8.4 121.7 -8.6 123.75 -9.2 127.65 -9.5 127.7 -9.75 127.75 -10.25 124.95 Q-9.85 120.9 -9.95 118.45 L-8.9 118.35 -8.7 118.95" fill="#bcfadd" fill-rule="evenodd" stroke="none"/>
  </g>
</svg>