<?xml version="1.0" encoding="UTF-8" standalone="no"?>
<svg xmlns:xlink="http://www.w3.org/1999/xlink" height="131.3px" width="37.6px" xmlns="http://www.w3.org/2000/svg">
  <g transform="matrix(1.0, 0.0, 0.0, 1.0, -96.25, -59.2)">
    <path d="M112.8 66.95 Q110.75 62.85 110.75 72.95 110.75 79.2 111.15 82.35 L111.4 82.55 112.55 82.7 Q114.15 82.7 114.65 80.85 L114.8 77.4 Q114.8 71.05 112.8 66.95 M112.4 60.75 Q114.25 62.35 115.7 67.5 117.2 72.85 117.2 78.2 L117.05 87.9 Q116.45 90.6 112.4 97.4 114.9 105.85 117.1 117.75 L120.95 140.8 Q125.9 170.25 132.85 186.2 L132.5 188.7 Q132.1 189.5 129.7 189.5 124.9 189.5 123.15 184.2 L121.85 180.05 Q121.05 177.8 119.75 176.95 119.75 182.5 119.4 186.95 117.15 188.05 111.25 188.05 L104.7 187.65 Q103.5 187.35 103.25 186.35 102.8 184.6 102.25 183.85 100.95 181.95 97.25 179.95 104.65 172.0 106.5 160.25 107.75 152.5 106.6 138.3 105.4 122.1 105.8 116.15 106.5 104.95 111.3 97.3 L108.0 96.9 Q107.6 90.75 107.6 78.75 107.6 67.45 109.15 62.85 110.4 59.0 112.4 60.75" fill="#97cbb1" fill-rule="evenodd" stroke="none"/>
    <path d="M112.8 66.95 Q114.8 71.05 114.8 77.4 L114.65 80.85 Q114.15 82.7 112.55 82.7 L111.4 82.55 111.15 82.35 Q110.75 79.2 110.75 72.95 110.75 62.85 112.8 66.95" fill="#b3e6cd" fill-rule="evenodd" stroke="none"/>
  </g>
</svg>