<?xml version="1.0" encoding="UTF-8" standalone="no"?>
<svg xmlns:xlink="http://www.w3.org/1999/xlink" height="161.95px" width="171.45px" xmlns="http://www.w3.org/2000/svg">
  <g transform="matrix(1.0, 0.0, 0.0, 1.0, -64, -38.3)">
    <path d="M204.1 145.95 L204.8 150.5 205.3 150.5 Q205.3 149.55 205.85 146.55 206.4 143.55 206.4 141.5 L206.85 141.15 Q207.25 140.75 208.85 140.75 212.15 140.75 213.35 145.15 214.0 147.5 214.3 151.75 L215.15 151.75 215.45 147.5 Q215.9 147.0 217.6 147.0 220.2 147.0 223.75 156.8 226.5 164.65 227.95 172.0 227.95 171.75 229.15 170.65 L231.75 168.75 Q233.1 169.25 234.2 170.75 L234.2 194.0 234.45 194.65 Q234.55 195.25 232.85 195.25 228.65 195.25 227.95 194.25 227.3 193.25 226.3 193.25 223.55 193.25 222.35 192.25 221.15 191.25 218.7 191.25 217.35 191.25 215.6 190.65 213.85 190.0 212.15 190.0 211.85 187.0 211.85 180.25 L211.6 179.75 Q210.45 180.05 209.4 180.5 L207.7 170.2 207.85 170.45 208.6 171.75 Q211.85 169.3 211.2 162.9 L209.4 154.5 209.4 154.75 Q209.25 157.1 208.35 162.25 207.5 167.05 207.5 168.25 L207.55 169.35 Q206.6 164.65 205.85 163.75 L204.8 163.75 Q204.8 169.5 204.25 180.0 L203.6 184.6 203.4 185.4 202.2 187.3 Q199.25 192.75 200.15 198.5 199.95 198.5 199.5 198.8 199.05 199.05 199.05 199.25 194.95 196.8 194.25 192.1 L194.7 191.75 195.45 173.55 196.05 161.35 195.7 153.85 Q195.15 147.65 193.9 143.75 190.95 148.55 189.7 166.0 189.25 172.0 189.1 177.8 L186.8 177.75 Q186.8 175.75 184.8 170.25 L184.9 170.25 Q186.55 170.25 187.0 169.65 L187.35 169.0 187.35 133.1 187.9 133.25 Q188.6 132.0 188.95 132.0 188.75 129.0 187.95 128.05 187.45 127.45 186.45 127.2 185.95 126.25 185.15 125.5 L184.1 126.95 183.5 127.0 183.75 127.6 Q181.35 132.0 180.6 140.6 180.25 144.65 180.25 158.1 L181.05 161.65 Q179.75 159.25 178.9 159.25 174.85 159.25 174.25 156.1 L174.25 159.25 173.2 159.65 171.8 160.25 168.05 152.5 167.7 151.75 168.55 152.25 170.15 151.75 Q171.0 146.75 171.0 135.1 L170.9 126.55 Q170.45 121.3 168.8 117.5 165.2 120.8 164.5 130.4 L163.65 130.75 163.5 130.95 Q163.35 131.45 163.35 133.0 163.35 133.9 164.3 136.05 164.15 141.2 164.45 148.85 L164.9 149.65 164.75 150.45 Q164.35 154.65 162.1 156.2 163.2 153.2 163.5 149.05 L163.35 135.25 Q163.35 133.0 162.85 130.55 162.3 127.55 161.2 125.5 155.95 130.9 155.35 144.5 155.0 151.45 155.75 158.1 L156.8 159.45 Q155.65 162.65 153.25 165.25 L150.0 165.0 Q149.35 154.5 148.9 150.75 L148.65 150.75 146.35 165.6 Q144.9 175.1 144.55 181.5 L141.7 181.85 Q139.6 181.8 138.85 181.25 138.3 182.75 138.3 188.0 L137.65 188.45 136.9 189.25 132.55 189.0 132.3 186.3 132.05 183.15 Q133.8 176.0 134.9 166.95 136.1 156.85 136.1 146.85 L135.65 141.05 135.0 133.75 Q131.85 141.35 129.95 155.3 129.25 160.55 127.65 178.0 L127.65 177.75 127.9 173.95 128.5 163.25 128.0 155.2 Q127.4 148.4 126.3 144.5 125.25 146.85 124.05 156.0 L124.1 154.35 Q124.8 151.55 124.6 149.0 124.15 144.2 120.05 143.8 121.5 139.0 123.55 134.0 L124.15 133.55 Q125.0 133.05 126.0 132.75 128.7 135.95 128.65 142.9 L128.5 153.5 128.5 153.75 131.2 141.0 Q133.4 130.7 133.4 129.5 133.4 127.3 132.45 126.5 130.95 125.3 129.85 122.25 129.55 122.75 129.55 125.0 L128.9 125.45 128.2 126.25 124.95 126.0 Q125.15 121.9 124.75 116.85 L127.1 117.0 Q127.8 115.75 128.2 115.75 L128.5 104.1 128.35 100.75 Q129.85 108.35 129.85 111.25 129.85 112.7 129.3 113.4 L128.75 114.25 Q131.3 111.5 132.85 105.3 133.95 100.8 133.95 98.0 133.95 92.65 133.75 91.25 133.35 87.35 131.45 84.75 L130.8 85.15 Q130.75 80.3 129.55 78.25 L129.55 86.15 128.25 87.5 Q126.85 89.25 126.85 90.1 126.85 91.95 127.4 95.35 125.75 90.35 121.95 88.75 L121.65 88.85 Q121.55 87.55 121.05 87.05 120.8 86.75 119.5 86.25 L119.45 86.3 117.85 78.25 117.85 78.5 117.45 87.9 Q117.3 88.45 117.3 89.35 L117.35 90.45 117.0 100.5 Q115.6 113.95 110.75 118.75 111.7 142.3 115.1 168.25 L115.4 168.25 Q117.15 155.6 117.75 152.65 118.5 148.95 119.65 145.15 L117.8 162.75 Q116.75 173.85 116.75 181.0 116.75 182.4 117.4 182.85 L116.2 185.25 111.85 185.0 Q110.5 169.55 108.6 158.0 L108.3 157.5 Q108.05 161.1 108.35 167.7 L108.6 178.5 107.95 178.8 Q107.5 179.05 107.5 179.25 L104.2 179.0 Q105.75 173.85 102.55 167.65 99.2 161.35 94.4 161.0 94.15 152.75 93.6 149.0 L93.3 158.5 91.15 159.25 Q88.95 157.2 87.15 152.35 L84.85 145.25 Q83.45 159.9 81.6 183.25 L80.55 183.65 79.15 184.25 Q76.45 183.4 76.55 182.25 L76.7 179.25 Q66.55 178.15 65.2 160.95 64.75 155.45 65.25 147.6 L65.8 138.25 Q65.8 132.35 69.05 123.65 72.35 114.9 72.35 105.75 L73.25 105.35 74.8 104.75 Q77.45 107.65 77.4 113.75 L77.25 124.25 78.95 116.3 81.05 106.5 81.75 106.15 84.05 105.75 Q88.1 105.75 88.95 113.25 L89.25 115.7 88.15 119.85 Q86.5 126.1 86.5 130.35 86.5 132.3 86.95 133.15 87.4 134.1 88.95 135.0 L90.5 134.2 91.15 133.75 Q91.15 130.3 92.1 124.0 L93.05 116.85 Q93.05 114.25 91.4 109.75 L90.8 109.75 90.85 102.75 91.8 102.35 93.3 101.75 Q95.1 103.55 95.4 105.9 L95.8 109.5 Q96.25 108.5 96.15 103.25 96.0 99.0 98.75 96.75 L101.15 98.25 100.15 106.5 99.25 112.95 Q98.3 112.2 97.15 111.75 98.1 114.55 98.55 118.15 L98.25 120.85 98.85 121.3 98.9 125.95 Q98.6 134.75 96.3 140.5 L98.15 141.95 Q99.75 142.85 102.05 143.0 L102.6 142.25 Q103.4 138.5 103.4 131.0 L103.25 122.65 103.55 122.45 Q104.2 122.0 104.5 122.0 104.5 116.7 105.6 106.6 L106.7 96.1 Q106.7 93.55 105.9 91.85 L104.95 90.4 104.9 87.9 Q104.7 80.0 107.5 75.75 110.75 77.25 111.55 81.15 112.0 83.35 112.15 87.5 L112.4 87.5 113.25 70.05 Q113.75 59.55 113.75 51.5 L114.2 51.15 Q114.6 50.75 116.2 50.75 118.75 50.75 119.6 54.15 120.05 55.85 120.05 58.0 L120.3 58.0 Q120.3 50.35 123.35 43.05 127.2 33.95 131.75 47.0 132.15 47.0 132.25 46.45 L132.3 44.75 132.6 44.25 Q133.05 43.75 134.75 43.75 135.45 43.75 140.85 52.15 147.0 61.85 149.2 69.0 156.35 68.3 156.85 73.85 L157.0 78.45 Q155.4 75.7 150.7 76.6 L150.3 73.0 150.35 76.7 150.0 76.75 150.4 78.25 150.55 81.25 150.8 81.25 150.8 80.2 152.35 87.0 Q154.1 95.0 154.1 96.25 154.1 100.65 154.3 101.55 154.65 102.85 155.75 104.2 L155.75 119.75 156.0 119.75 156.25 113.75 156.6 113.25 Q157.05 112.75 158.7 112.75 160.4 112.75 161.1 115.45 162.65 110.75 168.0 110.75 171.1 110.75 171.55 114.8 L171.55 112.75 171.85 112.25 Q172.3 111.75 174.0 111.75 176.7 111.75 178.4 119.3 179.4 123.45 180.8 131.5 181.25 130.7 181.05 128.9 L180.85 125.6 Q180.85 121.5 184.9 120.75 188.55 123.1 189.7 126.6 190.6 129.35 190.6 135.5 L190.6 135.75 Q191.15 134.5 191.15 130.0 L191.85 129.55 193.6 128.75 Q198.4 132.65 201.3 138.2 L201.95 139.6 Q201.8 141.2 201.8 143.0 L200.1 142.85 Q198.4 142.8 198.25 143.25 L198.5 144.0 199.35 145.4 Q200.1 146.25 201.8 146.25 L204.1 145.95 M131.0 186.45 L130.7 187.65 129.55 192.5 128.75 192.5 Q128.75 190.85 129.1 187.15 130.35 186.9 131.0 186.45 M127.6 186.7 L127.2 187.2 127.2 186.25 127.6 186.7 M157.95 84.5 L158.2 85.0 158.2 85.5 157.95 85.45 157.95 84.5 M171.5 118.95 L171.0 122.5 171.25 122.5 171.5 118.95 M174.55 149.7 L174.95 150.4 Q176.4 152.45 178.35 153.25 178.35 153.05 178.65 152.8 179.05 152.5 179.45 152.5 L179.7 140.5 Q180.75 135.95 180.7 132.4 180.5 125.4 175.05 125.5 L174.3 138.2 173.7 147.35 Q173.7 148.15 174.25 149.25 L174.25 154.25 Q174.65 151.35 174.55 149.7 M219.5 160.5 L218.95 162.0 218.95 177.75 219.2 178.0 Q219.85 176.8 220.95 173.25 222.2 169.25 222.2 167.75 222.2 165.25 219.5 160.25 L219.5 160.5 M212.4 171.75 L211.6 171.75 211.6 173.1 Q211.6 173.75 213.1 176.85 L214.6 180.25 212.7 182.75 Q212.15 185.0 218.7 185.0 L220.1 184.75 219.5 184.5 Q219.75 184.35 219.75 181.85 219.75 179.8 217.5 176.6 215.15 173.45 212.4 171.75 M135.55 54.25 L135.3 54.1 Q135.0 54.3 135.0 55.85 135.0 58.5 136.4 62.25 L139.05 59.55 Q140.45 57.9 140.45 57.5 140.45 55.8 139.75 55.0 139.25 54.45 138.0 54.0 L135.55 54.25 M142.65 104.55 L142.65 98.75 Q142.65 85.05 142.3 81.45 141.3 70.65 137.2 65.75 L136.4 65.75 136.1 66.4 Q135.85 66.9 135.85 68.35 L136.65 79.25 137.75 95.0 Q137.9 99.4 137.35 108.55 137.4 116.5 140.2 121.25 L140.7 121.15 140.7 121.3 Q141.4 124.15 144.0 125.25 L145.9 122.45 Q145.05 129.45 141.95 147.4 138.3 168.45 138.3 170.25 L139.65 173.1 Q141.4 176.05 143.45 177.25 L144.15 176.45 Q144.6 176.0 144.85 176.0 L147.5 155.75 Q149.2 143.5 149.2 135.85 149.2 133.8 147.1 120.35 149.45 116.0 149.45 114.5 149.45 104.55 147.75 94.1 L150.0 94.25 150.6 93.6 151.35 92.0 Q151.0 90.7 149.95 88.65 L148.35 85.25 147.0 85.25 147.05 88.45 147.0 89.6 145.9 84.5 Q145.9 89.95 143.2 102.05 L142.65 104.55 M121.65 90.05 Q123.85 94.8 123.9 102.85 L123.9 109.3 122.7 101.9 120.9 93.2 121.65 90.05 M71.0 128.25 Q70.7 131.25 70.7 138.0 70.7 144.75 71.0 147.75 L71.0 148.0 Q71.4 137.6 71.0 128.0 L71.0 128.25 M93.5 130.9 Q95.05 133.0 97.15 134.25 L97.95 132.75 Q97.3 129.85 96.55 128.55 95.2 126.25 91.95 126.75 91.65 128.5 93.5 130.9" fill="#96ccb2" fill-rule="evenodd" stroke="none"/>
    <path d="M209.4 180.5 L210.25 186.6 Q210.25 188.45 209.75 189.4 209.25 190.3 207.8 191.25 L204.25 190.75 203.6 190.15 Q202.85 189.5 202.85 188.0 L203.4 185.4 203.6 184.6 204.25 180.0 Q204.8 169.5 204.8 163.75 L205.85 163.75 Q206.6 164.65 207.55 169.35 L207.7 170.2 209.4 180.5 M194.25 192.1 L193.6 193.0 190.05 192.75 189.4 189.1 Q188.95 186.7 188.95 185.25 188.95 181.55 189.1 177.8 189.25 172.0 189.7 166.0 190.95 148.55 193.9 143.75 195.15 147.65 195.7 153.85 L196.05 161.35 195.45 173.55 194.7 191.75 194.25 192.1 M184.8 170.25 Q183.65 169.9 181.9 164.35 L181.05 161.65 180.25 158.1 Q180.25 144.65 180.6 140.6 181.35 132.0 183.75 127.6 184.25 129.3 184.1 131.1 184.45 132.3 187.35 133.1 L187.35 169.0 187.0 169.65 Q186.55 170.25 184.9 170.25 L184.8 170.25 M167.7 151.75 Q165.6 150.45 164.9 149.65 L164.45 148.85 Q164.15 141.2 164.3 136.05 165.15 138.15 166.9 141.5 L166.9 141.25 Q168.55 138.25 168.55 134.35 168.55 131.85 168.25 131.25 167.4 129.25 164.5 130.4 165.2 120.8 168.8 117.5 170.45 121.3 170.9 126.55 L171.0 135.1 Q171.0 146.75 170.15 151.75 L168.55 152.25 167.7 151.75 M162.1 156.2 Q160.9 159.4 158.7 161.25 L156.8 159.45 155.75 158.1 Q155.0 151.45 155.35 144.5 155.95 130.9 161.2 125.5 162.3 127.55 162.85 130.55 163.35 133.0 163.35 135.25 L163.5 149.05 Q163.2 153.2 162.1 156.2 M132.05 183.15 L131.2 186.25 131.0 186.45 Q130.35 186.9 129.1 187.15 L128.2 187.25 127.6 186.7 127.2 186.25 127.2 187.2 127.1 189.5 Q126.75 189.5 126.35 189.8 126.0 190.05 126.0 190.25 L121.65 190.0 Q121.4 189.1 121.4 186.6 L121.5 183.0 120.55 183.25 117.65 182.95 117.4 182.85 Q116.75 182.4 116.75 181.0 116.75 173.85 117.8 162.75 L119.65 145.15 119.75 143.75 120.05 143.8 Q124.15 144.2 124.6 149.0 124.8 151.55 124.1 154.35 L124.05 156.0 Q125.25 146.85 126.3 144.5 127.4 148.4 128.0 155.2 L128.5 163.25 127.9 173.95 127.65 177.75 127.65 178.0 Q129.25 160.55 129.95 155.3 131.85 141.35 135.0 133.75 L135.65 141.05 136.1 146.85 Q136.1 156.85 134.9 166.95 133.8 176.0 132.05 183.15 M89.25 115.7 L90.6 109.75 90.8 109.75 91.4 109.75 Q93.05 114.25 93.05 116.85 L92.1 124.0 Q91.15 130.3 91.15 133.75 L90.5 134.2 88.95 135.0 Q87.4 134.1 86.95 133.15 86.5 132.3 86.5 130.35 86.5 126.1 88.15 119.85 L89.25 115.7 M101.15 98.25 Q101.7 92.35 101.5 90.5 L104.95 90.4 105.9 91.85 Q106.7 93.55 106.7 96.1 L105.6 106.6 Q104.5 116.7 104.5 122.0 104.2 122.0 103.55 122.45 L103.25 122.65 103.4 131.0 Q103.4 138.5 102.6 142.25 L102.05 143.0 Q99.75 142.85 98.15 141.95 L96.3 140.5 Q98.6 134.75 98.9 125.95 L98.85 121.3 98.25 120.85 98.55 118.15 Q98.1 114.55 97.15 111.75 98.3 112.2 99.25 112.95 L100.15 106.5 101.15 98.25 M157.0 78.45 Q157.55 79.35 157.7 80.65 L157.95 84.5 157.95 85.45 157.95 85.65 Q158.1 88.65 159.0 90.0 L159.0 105.0 Q158.35 105.0 157.65 106.25 L155.75 104.2 Q154.65 102.85 154.3 101.55 154.1 100.65 154.1 96.25 154.1 95.0 152.35 87.0 L150.8 80.2 150.4 78.25 150.0 76.75 150.35 76.7 150.7 76.6 Q155.4 75.7 157.0 78.45 M174.25 149.25 Q173.7 148.15 173.7 147.35 L174.3 138.2 175.05 125.5 Q180.5 125.4 180.7 132.4 180.75 135.95 179.7 140.5 L179.45 152.5 Q179.05 152.5 178.65 152.8 178.35 153.05 178.35 153.25 176.4 152.45 174.95 150.4 L174.55 149.7 174.25 149.25 M184.1 126.95 L185.15 125.5 Q185.95 126.25 186.45 127.2 L184.1 126.95 M212.4 171.75 Q215.15 173.45 217.5 176.6 219.75 179.8 219.75 181.85 219.75 184.35 219.5 184.5 L220.1 184.75 218.7 185.0 Q212.15 185.0 212.7 182.75 L214.6 180.25 213.1 176.85 Q211.6 173.75 211.6 173.1 L211.6 171.75 212.4 171.75 M121.65 88.85 L121.95 88.75 Q125.75 90.35 127.4 95.35 126.85 91.95 126.85 90.1 126.85 89.25 128.25 87.5 L129.55 86.15 130.8 85.15 131.45 84.75 Q133.35 87.35 133.75 91.25 133.95 92.65 133.95 98.0 133.95 100.8 132.85 105.3 131.3 111.5 128.75 114.25 L129.3 113.4 Q129.85 112.7 129.85 111.25 129.85 108.35 128.35 100.75 L128.5 104.1 128.2 115.75 Q127.8 115.75 127.1 117.0 L124.75 116.85 123.85 116.75 123.9 109.3 123.9 102.85 Q123.85 94.8 121.65 90.05 L121.65 89.35 121.65 88.85 M140.7 121.15 L140.2 121.25 Q137.4 116.5 137.35 108.55 137.9 99.4 137.75 95.0 L136.65 79.25 135.85 68.35 Q135.85 66.9 136.1 66.4 L136.4 65.75 137.2 65.75 Q141.3 70.65 142.3 81.45 142.65 85.05 142.65 98.75 L142.65 104.55 142.35 120.5 Q142.1 120.5 141.5 120.8 L140.7 121.15 M147.1 120.35 Q149.2 133.8 149.2 135.85 149.2 143.5 147.5 155.75 L144.85 176.0 Q144.6 176.0 144.15 176.45 L143.45 177.25 Q141.4 176.05 139.65 173.1 L138.3 170.25 Q138.3 168.45 141.95 147.4 145.05 129.45 145.9 122.45 L146.2 119.75 147.0 119.75 147.1 120.35" fill="#65aa89" fill-rule="evenodd" stroke="none"/>
    <path d="M201.95 139.6 L202.05 138.75 203.95 138.75 204.85 139.75 Q205.05 140.35 205.05 142.1 L205.0 144.2 204.8 145.5 204.1 145.9 204.1 145.95 201.8 146.25 Q200.1 146.25 199.35 145.4 L198.5 144.0 198.25 143.25 Q198.4 142.8 200.1 142.85 L201.8 143.0 Q201.8 141.2 201.95 139.6 M164.3 136.05 Q163.35 133.9 163.35 133.0 163.35 131.45 163.5 130.95 L163.65 130.75 164.5 130.4 Q167.4 129.25 168.25 131.25 168.55 131.85 168.55 134.35 168.55 138.25 166.9 141.25 L166.9 141.5 Q165.15 138.15 164.3 136.05 M186.45 127.2 Q187.45 127.45 187.95 128.05 188.75 129.0 188.95 132.0 188.6 132.0 187.9 133.25 L187.35 133.1 Q184.45 132.3 184.1 131.1 184.25 129.3 183.75 127.6 L183.5 127.0 184.1 126.95 186.45 127.2 M119.45 86.3 L119.5 86.25 Q120.8 86.75 121.05 87.05 121.55 87.55 121.65 88.85 L121.65 89.35 121.65 90.05 120.9 93.2 120.05 95.0 118.1 95.0 117.75 92.55 117.35 90.45 117.3 89.35 Q117.3 88.45 117.45 87.9 L117.9 87.05 Q118.2 86.75 119.45 86.3 M135.55 54.25 L138.0 54.0 Q139.25 54.45 139.75 55.0 140.45 55.8 140.45 57.5 140.45 57.9 139.05 59.55 L136.4 62.25 Q135.0 58.5 135.0 55.85 135.0 54.3 135.3 54.1 L135.55 54.25 M147.0 89.6 L147.05 88.45 147.0 85.25 148.35 85.25 149.95 88.65 Q151.0 90.7 151.35 92.0 L150.6 93.6 150.0 94.25 147.75 94.1 146.75 94.0 146.45 92.1 147.0 89.6 M93.5 130.9 Q91.65 128.5 91.95 126.75 95.2 126.25 96.55 128.55 97.3 129.85 97.95 132.75 L97.15 134.25 Q95.05 133.0 93.5 130.9" fill="#c3f7dd" fill-rule="evenodd" stroke="none"/>
  </g>
</svg>