<?xml version="1.0" encoding="UTF-8" standalone="no"?>
<svg xmlns:xlink="http://www.w3.org/1999/xlink" height="36.85px" width="15px" xmlns="http://www.w3.org/2000/svg">
  <g transform="matrix(1.0, 0.0, 0.0, 1.0, -113.75, -143.4)">
    <path d="M121.25 144.9 Q123.75 146.4 125.7 151.25 127.75 156.2 127.75 161.25 127.75 169.5 127.5 170.35 126.75 172.85 121.25 179.25 L115.25 178.75 Q114.75 173.0 114.75 161.75 114.75 151.15 116.8 146.85 118.5 143.25 121.25 144.9 M119.9 165.3 L121.4 165.45 Q123.6 165.45 124.25 163.7 L124.5 160.5 Q124.5 154.55 121.75 150.7 119.0 146.85 119.0 156.3 119.0 162.15 119.55 165.15 L119.9 165.3" fill="#97cbb1" fill-rule="evenodd" stroke="none"/>
    <path d="M119.9 165.3 L119.55 165.15 Q119.0 162.15 119.0 156.3 119.0 146.85 121.75 150.7 124.5 154.55 124.5 160.5 L124.25 163.7 Q123.6 165.45 121.4 165.45 L119.9 165.3" fill="#b3e6cd" fill-rule="evenodd" stroke="none"/>
  </g>
</svg>