<?xml version="1.0" encoding="UTF-8" standalone="no"?>
<svg xmlns:xlink="http://www.w3.org/1999/xlink" height="145.45px" width="12.25px" xmlns="http://www.w3.org/2000/svg">
  <g transform="matrix(1.0, 0.0, 0.0, 1.0, -110.75, -47.05)">
    <path d="M115.0 49.65 Q116.05 47.35 117.85 48.4 119.45 49.35 120.7 52.45 122.0 55.65 122.0 58.85 L121.85 64.7 Q121.35 66.3 117.85 70.4 L114.0 70.1 Q113.65 66.4 113.65 59.2 113.65 52.4 115.0 49.65 M117.9 61.55 Q119.35 61.55 119.75 60.45 L119.9 58.4 Q119.9 54.6 118.15 52.1 116.4 49.65 116.4 55.7 116.4 59.45 116.75 61.35 L116.95 61.45 117.9 61.55 M119.45 124.2 L119.45 173.85 120.6 177.35 Q121.3 180.1 122.0 181.55 L122.0 190.2 Q121.65 190.2 120.8 190.7 L119.1 191.5 Q115.15 189.25 113.2 184.15 111.75 180.25 111.75 175.95 111.75 144.0 112.7 121.35 L115.45 121.0 Q118.35 121.2 119.45 124.2" fill="#97cbb1" fill-rule="evenodd" stroke="none"/>
    <path d="M117.9 61.55 L116.95 61.45 116.75 61.35 Q116.4 59.45 116.4 55.7 116.4 49.65 118.15 52.1 119.9 54.6 119.9 58.4 L119.75 60.45 Q119.35 61.55 117.9 61.55" fill="#b3e6cd" fill-rule="evenodd" stroke="none"/>
  </g>
</svg>