<?xml version="1.0" encoding="UTF-8" standalone="no"?>
<svg xmlns:xlink="http://www.w3.org/1999/xlink" height="43.2px" width="77.55px" xmlns="http://www.w3.org/2000/svg">
  <g transform="matrix(1.0, 0.0, 0.0, 1.0, 0.95, 1.4)">
    <path d="M24.6 0.1 Q24.3 0.15 27.85 1.8 L32.0 3.65 Q33.25 4.15 34.6 5.3 L35.95 6.2 Q37.05 6.2 38.25 7.0 L40.1 8.8 39.95 8.25 Q39.9 7.95 40.5 7.95 41.5 7.95 42.15 8.6 L42.3 8.7 42.45 9.5 Q42.45 10.5 42.1 10.2 L39.9 10.15 37.95 10.2 38.45 11.2 Q35.7 9.55 35.35 9.6 L36.35 10.95 Q37.95 12.7 38.1 15.0 38.1 15.65 37.8 15.7 L37.15 15.65 34.9 14.9 33.4 14.35 Q30.75 14.35 30.75 15.35 L30.6 16.15 29.7 16.2 28.75 16.3 Q28.5 16.25 28.5 15.6 28.5 15.05 28.1 15.0 L27.2 14.7 Q26.85 14.4 26.45 13.45 L25.75 12.3 Q25.2 11.8 24.0 11.5 L21.45 10.85 20.3 10.45 18.9 10.15 18.35 10.25 18.5 10.35 Q18.5 13.45 17.9 15.25 20.05 16.2 20.8 16.7 22.5 17.8 22.5 19.1 L22.05 20.2 Q21.4 20.95 19.95 20.95 18.65 20.95 17.3 20.15 L17.25 20.25 17.0 21.7 Q16.6 23.1 15.65 23.3 L19.95 27.8 Q20.7 27.15 21.15 27.1 22.45 26.95 25.9 28.0 L25.45 27.95 24.85 27.95 Q24.5 28.0 24.5 28.65 L24.55 29.35 24.9 29.5 25.95 29.45 26.4 28.55 Q27.55 29.1 28.1 30.2 L29.15 31.95 Q30.5 33.2 33.0 33.35 34.9 33.45 34.9 34.6 34.9 35.1 36.2 35.55 L38.75 36.0 40.1 37.35 40.8 37.75 41.45 37.75 Q41.65 38.1 41.65 37.15 41.7 36.5 41.4 36.1 40.75 35.25 39.55 35.5 39.65 34.65 38.1 32.35 40.1 33.25 40.45 33.65 41.05 34.4 42.6 38.15 L42.2 38.6 41.25 38.8 Q37.5 38.8 26.55 32.25 L27.55 32.45 28.3 32.25 Q28.3 32.0 28.65 31.65 26.95 30.8 23.4 29.65 L22.7 29.85 22.9 30.05 Q14.0 24.5 11.9 22.4 L10.45 21.3 Q9.35 20.55 8.75 19.6 7.9 18.25 6.15 17.5 4.4 16.75 3.75 15.8 2.6 14.15 1.55 13.7 0.95 13.45 0.3 11.55 0.95 7.2 2.2 5.1 4.05 1.95 7.65 1.6 L15.85 0.35 22.95 -0.4 24.6 0.1 M41.45 20.5 L43.45 20.1 Q45.25 20.1 46.3 21.7 L45.95 21.8 43.5 21.15 41.45 20.5 M40.65 16.1 L41.6 16.35 Q42.0 16.55 42.0 16.9 L41.65 17.45 42.5 17.7 42.8 18.25 42.5 18.85 41.65 19.05 40.85 18.85 Q40.5 18.6 40.5 18.25 40.5 17.9 40.8 17.7 L40.65 17.7 39.7 17.5 39.3 16.9 Q39.3 16.55 39.7 16.35 40.1 16.1 40.65 16.1 M43.8 15.35 Q44.1 15.05 44.5 15.05 44.9 15.05 45.2 15.35 L45.5 16.05 45.2 16.75 Q44.9 17.05 44.5 17.05 L43.8 16.75 Q43.5 16.45 43.5 16.05 43.5 15.65 43.8 15.35 M49.95 17.1 Q49.95 16.5 50.1 16.4 L50.7 16.2 51.6 16.1 Q55.25 16.1 55.65 19.5 L52.4 19.5 50.95 18.55 Q49.95 17.9 49.95 17.1 M45.85 17.6 L45.75 17.1 46.95 15.8 47.2 15.95 47.1 17.7 45.85 17.6 M49.55 11.45 L47.35 11.45 47.35 9.35 49.55 9.35 49.55 11.45 M52.55 18.4 L55.2 18.5 Q54.75 17.75 53.75 17.15 52.85 16.6 52.4 16.55 L52.2 16.45 Q52.0 16.5 52.0 17.1 52.0 17.8 52.55 18.4 M31.4 4.05 Q30.2 3.2 29.15 3.45 L28.05 4.3 Q27.75 4.45 27.75 4.5 27.75 5.6 28.9 6.3 30.3 7.15 32.55 6.75 L32.6 6.0 Q32.6 4.9 31.4 4.05 M31.15 10.35 Q30.2 10.35 29.5 10.8 28.8 11.25 28.8 11.9 28.8 12.55 29.5 13.0 L31.15 13.45 32.8 13.0 Q33.5 12.55 33.5 11.9 33.5 11.25 32.8 10.8 32.1 10.35 31.15 10.35 M23.6 2.2 L22.95 2.0 22.35 2.2 Q22.05 2.4 22.05 2.7 L22.35 3.2 22.95 3.4 23.6 3.2 23.85 2.7 23.6 2.2 M25.1 7.1 L25.65 7.35 26.85 6.85 27.0 6.8 26.05 6.5 24.95 6.75 25.1 7.1 M23.45 24.6 Q21.4 23.65 20.75 22.55 22.15 21.15 25.55 21.75 29.15 22.4 29.15 24.85 L29.1 25.35 29.0 25.35 29.0 25.4 26.55 25.45 Q25.3 25.45 23.45 24.6 M24.05 16.95 Q24.1 16.9 24.2 17.0 L25.6 18.85 24.25 18.25 Q23.85 18.05 23.85 17.65 23.85 17.05 24.05 16.95 M24.25 14.9 Q23.7 15.3 22.9 15.3 22.1 15.3 21.55 14.9 21.0 14.5 21.0 13.95 21.0 13.4 21.55 13.0 22.1 12.6 22.9 12.6 23.7 12.6 24.25 13.0 24.8 13.4 24.8 13.95 24.8 14.5 24.25 14.9 M25.3 24.05 Q26.9 24.9 27.5 24.65 L27.7 24.4 Q27.2 23.65 25.8 23.1 24.5 22.55 23.5 22.55 23.75 23.25 25.3 24.05 M29.9 23.6 L33.05 23.6 33.05 25.4 29.9 25.4 29.9 23.6 M36.65 21.4 Q36.35 21.4 36.15 21.2 L35.9 20.65 36.15 20.15 Q36.35 19.9 36.65 19.9 L37.2 20.15 37.4 20.65 37.2 21.2 36.65 21.4 M29.35 21.2 Q29.55 20.95 29.9 20.95 L30.5 21.2 30.7 21.75 30.5 22.35 29.9 22.55 29.35 22.35 29.1 21.75 Q29.1 21.4 29.35 21.2 M18.4 4.4 L17.25 4.1 15.4 4.25 Q15.9 4.55 15.75 5.15 L17.95 4.7 18.4 4.4 M12.55 5.25 Q12.3 5.3 12.3 5.95 12.3 6.3 14.05 7.45 16.0 8.75 17.45 9.0 L17.55 9.1 17.6 8.5 Q17.6 7.95 16.25 7.15 L13.0 5.25 12.55 5.25 M14.45 12.05 L14.3 12.4 14.1 13.3 Q14.1 15.25 15.95 15.25 16.95 15.25 16.55 15.1 L16.65 14.95 16.75 14.15 16.35 13.35 15.6 11.95 14.45 12.05 M8.55 5.5 L8.3 5.85 8.55 6.2 9.05 6.35 9.6 6.2 9.8 5.85 9.6 5.5 9.05 5.35 8.55 5.5 M7.05 10.25 L6.65 10.05 6.25 10.25 Q6.1 10.45 6.1 10.75 6.1 11.05 6.25 11.25 6.4 11.45 6.65 11.45 6.9 11.45 7.05 11.25 L7.2 10.75 7.05 10.25 M7.1 11.65 Q7.1 12.1 7.5 12.45 L8.45 12.75 9.4 12.45 Q9.8 12.1 9.8 11.65 9.8 11.2 9.4 10.9 9.0 10.55 8.45 10.55 7.9 10.55 7.5 10.9 7.1 11.2 7.1 11.65 M14.9 17.2 Q14.0 16.65 12.8 16.65 11.6 16.65 10.75 17.2 9.85 17.7 9.85 18.45 9.85 19.2 10.75 19.75 L12.8 20.25 14.9 19.75 Q15.75 19.2 15.75 18.45 15.75 17.7 14.9 17.2" fill="#ced971" fill-rule="evenodd" stroke="none"/>
    <path d="M38.75 36.0 L36.2 35.55 Q34.9 35.1 34.9 34.6 34.9 33.45 33.0 33.35 30.5 33.2 29.15 31.95 L28.1 30.2 Q27.55 29.1 26.4 28.55 L25.95 29.45 24.9 29.5 24.55 29.35 24.5 28.65 Q24.5 28.0 24.85 27.95 L25.45 27.95 25.9 28.0 Q22.45 26.95 21.15 27.1 20.7 27.15 19.95 27.8 L15.65 23.3 Q16.6 23.1 17.0 21.7 L17.25 20.25 17.3 20.15 Q18.65 20.95 19.95 20.95 21.4 20.95 22.05 20.2 L22.5 19.1 Q22.5 17.8 20.8 16.7 20.05 16.2 17.9 15.25 18.5 13.45 18.5 10.35 L18.35 10.25 18.9 10.15 20.3 10.45 21.45 10.85 24.0 11.5 Q25.2 11.8 25.75 12.3 L26.45 13.45 Q26.85 14.4 27.2 14.7 L28.1 15.0 Q28.5 15.05 28.5 15.6 28.5 16.25 28.75 16.3 L29.7 16.2 30.6 16.15 30.75 15.35 Q30.75 14.35 33.4 14.35 L34.9 14.9 37.15 15.65 37.8 15.7 Q38.1 15.65 38.1 15.0 37.95 12.7 36.35 10.95 L35.35 9.6 Q35.7 9.55 38.45 11.2 L37.95 10.2 39.9 10.15 42.1 10.2 Q42.45 10.5 42.45 9.5 L42.3 8.7 42.15 8.6 Q41.5 7.95 40.5 7.95 39.9 7.95 39.95 8.25 L40.1 8.8 38.25 7.0 Q37.05 6.2 35.95 6.2 L34.6 5.3 Q33.25 4.15 32.0 3.65 L27.85 1.8 Q24.3 0.15 24.6 0.1 L36.2 3.8 63.3 11.7 49.65 12.0 Q68.85 21.75 75.6 27.5 L72.95 27.8 62.5 27.0 55.7 26.45 51.8 26.1 46.0 26.35 38.55 26.7 43.2 34.35 Q46.7 40.1 46.8 40.8 L44.65 40.8 37.8 39.2 Q30.6 37.15 20.0 33.3 15.55 31.65 14.8 31.05 L13.25 29.15 9.15 25.3 Q5.75 21.9 4.85 19.85 L4.55 19.1 3.6 22.5 3.5 22.7 1.05 19.75 Q0.05 18.15 0.05 14.95 L0.3 11.55 Q0.95 13.45 1.55 13.7 2.6 14.15 3.75 15.8 4.4 16.75 6.15 17.5 7.9 18.25 8.75 19.6 9.35 20.55 10.45 21.3 L11.9 22.4 Q14.0 24.5 22.9 30.05 L24.95 31.3 26.55 32.25 Q37.5 38.8 41.25 38.8 L42.2 38.6 42.6 38.15 Q41.05 34.4 40.45 33.65 40.1 33.25 38.1 32.35 39.65 34.65 39.55 35.5 39.2 35.5 39.0 35.65 L38.75 36.0 M49.55 11.45 L49.55 9.35 47.35 9.35 47.35 11.45 49.55 11.45 M45.85 17.6 L47.1 17.7 47.2 15.95 46.95 15.8 45.75 17.1 45.85 17.6 M49.95 17.1 Q49.95 17.9 50.95 18.55 L52.4 19.5 55.65 19.5 Q55.25 16.1 51.6 16.1 L50.7 16.2 50.1 16.4 Q49.95 16.5 49.95 17.1 M43.8 15.35 Q43.5 15.65 43.5 16.05 43.5 16.45 43.8 16.75 L44.5 17.05 Q44.9 17.05 45.2 16.75 L45.5 16.05 45.2 15.35 Q44.9 15.05 44.5 15.05 44.1 15.05 43.8 15.35 M40.65 16.1 Q40.1 16.1 39.7 16.35 39.3 16.55 39.3 16.9 L39.7 17.5 40.65 17.7 40.8 17.7 Q40.5 17.9 40.5 18.25 40.5 18.6 40.85 18.85 L41.65 19.05 42.5 18.85 42.8 18.25 42.5 17.7 41.65 17.45 42.0 16.9 Q42.0 16.55 41.6 16.35 L40.65 16.1 M41.45 20.5 L43.5 21.15 45.95 21.8 46.3 21.7 Q45.25 20.1 43.45 20.1 L41.45 20.5 M24.25 14.9 Q24.8 14.5 24.8 13.95 24.8 13.4 24.25 13.0 23.7 12.6 22.9 12.6 22.1 12.6 21.55 13.0 21.0 13.4 21.0 13.95 21.0 14.5 21.55 14.9 22.1 15.3 22.9 15.3 23.7 15.3 24.25 14.9 M24.05 16.95 Q23.85 17.05 23.85 17.65 23.85 18.05 24.25 18.25 L25.6 18.85 24.2 17.0 Q24.1 16.9 24.05 16.95 M23.45 24.6 Q25.3 25.45 26.55 25.45 L29.0 25.4 29.0 25.35 29.1 25.35 29.15 24.85 Q29.15 22.4 25.55 21.75 22.15 21.15 20.75 22.55 21.4 23.65 23.45 24.6 M29.35 21.2 Q29.1 21.4 29.1 21.75 L29.35 22.35 29.9 22.55 30.5 22.35 30.7 21.75 30.5 21.2 29.9 20.95 Q29.55 20.95 29.35 21.2 M36.65 21.4 L37.2 21.2 37.4 20.65 37.2 20.15 36.65 19.9 Q36.35 19.9 36.15 20.15 L35.9 20.65 36.15 21.2 Q36.35 21.4 36.65 21.4 M29.9 23.6 L29.9 25.4 33.05 25.4 33.05 23.6 29.9 23.6" fill="#969f4e" fill-rule="evenodd" stroke="none"/>
    <path d="M22.9 30.05 L22.7 29.85 23.4 29.65 Q26.95 30.8 28.65 31.65 28.3 32.0 28.3 32.25 L27.55 32.45 26.55 32.25 24.95 31.3 22.9 30.05 M39.55 35.5 Q40.75 35.25 41.4 36.1 41.7 36.5 41.65 37.15 41.65 38.1 41.45 37.75 L40.8 37.75 40.1 37.35 38.75 36.0 39.0 35.65 Q39.2 35.5 39.55 35.5 M52.55 18.4 Q52.0 17.8 52.0 17.1 52.0 16.5 52.2 16.45 L52.4 16.55 Q52.85 16.6 53.75 17.15 54.75 17.75 55.2 18.5 L52.55 18.4 M25.1 7.1 L24.95 6.75 26.05 6.5 27.0 6.8 26.85 6.85 25.65 7.35 25.1 7.1 M23.6 2.2 L23.85 2.7 23.6 3.2 22.95 3.4 22.35 3.2 22.05 2.7 Q22.05 2.4 22.35 2.2 L22.95 2.0 23.6 2.2 M31.15 10.35 Q32.1 10.35 32.8 10.8 33.5 11.25 33.5 11.9 33.5 12.55 32.8 13.0 L31.15 13.45 29.5 13.0 Q28.8 12.55 28.8 11.9 28.8 11.25 29.5 10.8 30.2 10.35 31.15 10.35 M31.4 4.05 Q32.6 4.9 32.6 6.0 L32.55 6.75 Q30.3 7.15 28.9 6.3 27.75 5.6 27.75 4.5 27.75 4.45 28.05 4.3 L29.15 3.45 Q30.2 3.2 31.4 4.05 M25.3 24.05 Q23.75 23.25 23.5 22.55 24.5 22.55 25.8 23.1 27.2 23.65 27.7 24.4 L27.5 24.65 Q26.9 24.9 25.3 24.05 M7.1 11.65 Q7.1 11.2 7.5 10.9 7.9 10.55 8.45 10.55 9.0 10.55 9.4 10.9 9.8 11.2 9.8 11.65 9.8 12.1 9.4 12.45 L8.45 12.75 7.5 12.45 Q7.1 12.1 7.1 11.65 M7.05 10.25 L7.2 10.75 7.05 11.25 Q6.9 11.45 6.65 11.45 6.4 11.45 6.25 11.25 6.1 11.05 6.1 10.75 6.1 10.45 6.25 10.25 L6.65 10.05 7.05 10.25 M8.55 5.5 L9.05 5.35 9.6 5.5 9.8 5.85 9.6 6.2 9.05 6.35 8.55 6.2 8.3 5.85 8.55 5.5 M14.45 12.05 L15.6 11.95 16.35 13.35 16.75 14.15 16.65 14.95 16.55 15.1 Q16.95 15.25 15.95 15.25 14.1 15.25 14.1 13.3 L14.3 12.4 14.45 12.05 M12.55 5.25 L13.0 5.25 16.25 7.15 Q17.6 7.95 17.6 8.5 L17.55 9.1 17.45 9.0 Q16.0 8.75 14.05 7.45 12.3 6.3 12.3 5.95 12.3 5.3 12.55 5.25 M18.4 4.4 L17.95 4.7 15.75 5.15 Q15.9 4.55 15.4 4.25 L17.25 4.1 18.4 4.4 M14.9 17.2 Q15.75 17.7 15.75 18.45 15.75 19.2 14.9 19.75 L12.8 20.25 10.75 19.75 Q9.85 19.2 9.85 18.45 9.85 17.7 10.75 17.2 11.6 16.65 12.8 16.65 14.0 16.65 14.9 17.2" fill="#e8f09f" fill-rule="evenodd" stroke="none"/>
    <path d="M24.6 0.1 L22.95 -0.4 15.85 0.35 7.65 1.6 Q4.05 1.95 2.2 5.1 0.95 7.2 0.3 11.55 L0.05 14.95 Q0.05 18.15 1.05 19.75 L3.5 22.7 3.6 22.5 4.55 19.1 4.85 19.85 Q5.75 21.9 9.15 25.3 L13.25 29.15 14.8 31.05 Q15.55 31.65 20.0 33.3 30.6 37.15 37.8 39.2 L44.65 40.8 46.8 40.8 Q46.7 40.1 43.2 34.35 L38.55 26.7 46.0 26.35 51.8 26.1 55.7 26.45 62.5 27.0 72.95 27.8 75.6 27.5 Q68.85 21.75 49.65 12.0 L63.3 11.7 36.2 3.8 24.6 0.1 Z" fill="none" stroke="#595f27" stroke-linecap="round" stroke-linejoin="round" stroke-width="1"/>
  </g>
</svg>