<?xml version="1.0" encoding="UTF-8" standalone="no"?>
<svg xmlns:xlink="http://www.w3.org/1999/xlink" height="47.45px" width="141.0px" xmlns="http://www.w3.org/2000/svg">
  <g transform="matrix(1.0, 0.0, 0.0, 1.0, -4.35, -2.9)">
    <use data-characterId="3192" height="47.45" transform="matrix(1.0, 0.0, 0.0, 1.0, 4.35, 2.9)" width="141.0" xlink:href="#morphshape0"/>
    <use data-characterId="3193" height="37.5" transform="matrix(1.0, 0.0, 0.0, 1.0, 17.5, 9.15)" width="116.05" xlink:href="#morphshape1"/>
    <use data-characterId="3194" height="21.8" transform="matrix(1.0, 0.0, 0.0, 1.0, 37.6, 4.7)" width="75.1" xlink:href="#morphshape2"/>
    <use data-characterId="3195" height="35.65" transform="matrix(1.0, 0.0, 0.0, 1.0, 32.35, 6.65)" width="66.65" xlink:href="#morphshape3"/>
  </g>
  <defs>
    <g id="morphshape0" transform="matrix(1.0, 0.0, 0.0, 1.0, -4.35, -2.9)">
      <path d="M4.9 18.75 Q5.25 20.25 9.45 21.15 13.75 21.85 18.5 22.3 26.75 23.15 23.1 25.25 18.9 25.95 20.45 27.4 22.65 28.3 20.5 29.2 18.35 29.9 17.25 31.0 16.5 32.8 18.8 33.45 20.7 33.95 22.65 34.2 26.2 34.5 28.5 35.4 L31.5 36.55 Q29.45 38.55 34.25 39.45 33.95 40.35 42.1 40.3 42.35 41.3 45.85 41.55 43.1 43.15 46.05 44.55 49.3 46.05 54.4 46.2 58.2 46.3 63.05 47.7 68.25 49.1 68.2 49.65 67.4 50.2 71.8 49.0 76.9 47.75 80.7 47.6 L90.3 46.75 Q95.2 46.35 98.4 45.75 104.9 45.65 107.2 43.15 107.8 42.0 109.15 40.15 114.2 39.3 112.9 37.9 121.4 35.75 118.75 34.25 119.3 33.75 117.5 33.55 124.55 32.2 124.35 31.5 127.25 30.45 125.35 29.5 124.25 28.85 121.95 28.2 120.45 27.85 123.65 26.95 126.85 26.05 131.6 24.05 136.35 22.05 135.65 20.6 134.85 19.05 128.3 18.7 125.25 18.35 123.05 18.4 L122.4 18.4 121.85 18.15 Q125.2 16.5 122.5 15.0 123.35 14.4 119.4 13.9 118.0 13.55 116.1 13.5 117.2 10.05 110.15 7.95 99.2 4.25 77.6 3.55 61.55 2.85 40.35 5.35 21.4 7.7 16.65 10.7 11.3 12.0 12.4 12.75 13.5 13.45 17.75 14.1 21.85 14.65 19.6 14.95 17.55 15.0 15.65 15.2 L6.95 16.05 4.85 16.3 Q4.15 17.55 4.75 18.8" fill="#96e0bc" fill-opacity="0.7058824" fill-rule="evenodd" stroke="none"/>
      <path d="M4.75 18.8 Q4.15 17.55 4.85 16.3 L6.95 16.05 15.65 15.2 Q17.55 15.0 19.6 14.95 21.85 14.65 17.75 14.1 13.5 13.45 12.4 12.75 11.3 12.0 16.65 10.7 21.4 7.7 40.35 5.35 61.55 2.85 77.6 3.55 99.2 4.25 110.15 7.95 117.2 10.05 116.1 13.5 118.0 13.55 119.4 13.9 123.35 14.4 122.5 15.0 125.2 16.5 121.85 18.15 L122.4 18.4 123.05 18.4 Q125.25 18.35 128.3 18.7 134.85 19.05 135.65 20.6 136.35 22.05 131.6 24.05 126.85 26.05 123.65 26.95 120.45 27.85 121.95 28.2 124.25 28.85 125.35 29.5 127.25 30.45 124.35 31.5 124.55 32.2 117.5 33.55 119.3 33.75 118.75 34.25 121.4 35.75 112.9 37.9 114.2 39.3 109.15 40.15 107.8 42.0 107.2 43.15 104.9 45.65 98.4 45.75 95.2 46.35 90.3 46.75 L80.7 47.6 Q76.9 47.75 71.8 49.0 67.4 50.2 68.2 49.65 68.25 49.1 63.05 47.7 58.2 46.3 54.4 46.2 49.3 46.05 46.05 44.55 43.1 43.15 45.85 41.55 42.35 41.3 42.1 40.3 33.95 40.35 34.25 39.45 29.45 38.55 31.5 36.55 L28.5 35.4 Q26.2 34.5 22.65 34.2 20.7 33.95 18.8 33.45 16.5 32.8 17.25 31.0 18.35 29.9 20.5 29.2 22.65 28.3 20.45 27.4 18.9 25.95 23.1 25.25 26.75 23.15 18.5 22.3 13.75 21.85 9.45 21.15 5.25 20.25 4.9 18.75" fill="none" stroke="#000000" stroke-linecap="round" stroke-linejoin="round" stroke-opacity="0.0" stroke-width="1.0"/>
    </g>
    <g id="morphshape1" transform="matrix(1.0, 0.0, 0.0, 1.0, -17.5, -9.15)">
      <path d="M117.95 23.2 Q117.95 23.95 118.4 24.65 119.15 25.7 122.0 25.45 L121.25 23.25 Q120.25 22.9 117.95 23.2 M100.25 29.75 Q100.25 30.1 101.35 30.9 L104.65 31.0 106.8 30.0 Q109.0 28.95 109.4 28.45 L107.9 27.25 103.7 26.85 Q100.25 27.05 100.25 29.75 M86.0 36.15 L86.0 36.25 86.3 36.85 Q86.95 37.3 88.1 37.7 L90.1 38.1 93.0 38.2 93.45 38.05 93.7 37.8 93.9 37.25 93.9 36.8 Q93.85 36.1 93.4 35.75 92.6 35.1 89.05 35.0 87.55 35.2 86.2 35.7 L86.0 36.3 M76.1 39.9 L76.55 40.75 Q77.8 41.0 79.15 41.25 L81.75 41.4 85.6 41.25 86.3 41.05 86.75 40.65 86.9 39.9 86.85 39.4 Q86.7 38.6 86.0 38.15 84.85 37.4 80.05 37.5 78.05 37.8 76.55 39.05 L76.1 39.8 M62.25 33.85 L62.8 34.75 69.15 35.15 Q73.2 35.15 76.05 32.9 76.05 31.0 70.0 30.85 63.75 30.75 62.25 33.85 M60.1 41.95 Q60.15 42.45 60.35 42.7 L63.4 42.7 Q63.85 42.45 64.1 40.85 L60.6 41.05 Q60.1 41.4 60.1 41.95 M49.0 36.3 L50.2 37.5 Q52.25 38.65 56.55 38.65 58.1 38.65 59.85 36.5 59.85 33.55 54.45 33.6 49.0 33.65 49.0 36.3 M27.7 28.8 Q27.75 29.4 30.35 30.9 33.65 32.6 37.3 32.55 L41.15 32.3 Q42.3 31.7 42.95 29.7 42.8 26.8 35.2 26.25 27.55 25.7 27.7 28.75 M18.7 17.25 Q18.7 17.7 19.15 18.4 L20.1 19.35 26.95 19.45 Q28.15 18.55 28.15 18.0 28.15 16.15 23.45 16.05 18.7 16.0 18.7 17.25" fill="#bef0d8" fill-opacity="0.7058824" fill-rule="evenodd" stroke="none"/>
      <path d="M18.7 17.25 Q18.7 16.0 23.45 16.05 28.15 16.15 28.15 18.0 28.15 18.55 26.95 19.45 L20.1 19.35 19.15 18.4 Q18.7 17.7 18.7 17.25 M27.7 28.75 Q27.55 25.7 35.2 26.25 42.8 26.8 42.95 29.7 42.3 31.7 41.15 32.3 L37.3 32.55 Q33.65 32.6 30.35 30.9 27.75 29.4 27.7 28.8 M49.0 36.3 Q49.0 33.65 54.45 33.6 59.85 33.55 59.85 36.5 58.1 38.65 56.55 38.65 52.25 38.65 50.2 37.5 L49.0 36.3 M60.1 41.95 Q60.1 41.4 60.6 41.05 L64.1 40.85 Q63.85 42.45 63.4 42.7 L60.35 42.7 Q60.15 42.45 60.1 41.95 M62.25 33.85 Q63.75 30.75 70.0 30.85 76.05 31.0 76.05 32.9 73.2 35.15 69.15 35.15 L62.8 34.75 62.25 33.85 M76.1 39.8 L76.55 39.05 Q78.05 37.8 80.05 37.5 84.85 37.4 86.0 38.15 86.7 38.6 86.85 39.4 L86.9 39.9 86.75 40.65 86.3 41.05 85.6 41.25 81.75 41.4 79.15 41.25 Q77.8 41.0 76.55 40.75 L76.1 39.9 M86.0 36.3 L86.2 35.7 Q87.55 35.2 89.05 35.0 92.6 35.1 93.4 35.75 93.85 36.1 93.9 36.8 L93.9 37.25 93.7 37.8 93.45 38.05 93.0 38.2 90.1 38.1 88.1 37.7 Q86.95 37.3 86.3 36.85 L86.0 36.25 86.0 36.15 M100.25 29.75 Q100.25 27.05 103.7 26.85 L107.9 27.25 109.4 28.45 Q109.0 28.95 106.8 30.0 L104.65 31.0 101.35 30.9 Q100.25 30.1 100.25 29.75 M117.95 23.2 Q120.25 22.9 121.25 23.25 L122.0 25.45 Q119.15 25.7 118.4 24.65 117.95 23.95 117.95 23.2 Z" fill="none" stroke="#000000" stroke-linecap="round" stroke-linejoin="round" stroke-opacity="0.0" stroke-width="1.0"/>
    </g>
    <g id="morphshape2" transform="matrix(1.0, 0.0, 0.0, 1.0, -37.6, -4.7)">
      <path d="M102.65 15.6 Q102.65 16.75 102.9 17.15 L103.7 17.7 Q105.85 17.0 107.5 16.45 108.2 15.95 107.15 12.9 104.75 13.1 103.7 13.75 102.65 14.35 102.65 15.6 M90.6 20.95 Q90.6 22.0 91.2 22.6 L94.25 22.8 Q94.7 21.8 94.45 19.7 L90.7 19.6 90.6 20.95 M89.05 11.35 Q89.05 12.4 89.45 13.3 L95.4 13.3 Q96.45 12.25 96.45 8.75 91.75 8.3 90.1 9.15 89.05 9.75 89.05 11.35 M80.8 21.45 Q80.85 22.4 81.6 24.25 82.25 24.7 83.8 24.85 L84.6 23.65 Q85.1 22.95 84.4 21.15 L80.8 21.45 M78.0 8.25 Q77.6 10.15 78.4 11.65 79.4 13.4 81.65 13.4 82.8 13.4 84.0 11.65 83.15 9.25 81.5 8.6 L78.0 8.25 M66.15 13.15 L66.2 14.6 66.55 15.15 72.0 15.9 75.3 16.3 Q77.05 16.3 75.95 13.85 75.95 10.8 71.05 10.65 66.15 10.55 66.15 13.15 M55.9 13.45 L55.9 13.6 55.95 14.25 56.05 14.45 Q56.2 14.8 56.5 14.9 57.0 15.05 58.0 15.2 L60.15 14.6 Q60.4 13.4 60.35 11.8 59.9 10.7 59.5 9.85 58.55 9.55 57.6 9.7 55.95 10.65 55.95 13.4 M49.05 19.6 L49.15 20.7 49.45 21.05 Q49.9 21.15 50.35 21.15 L52.55 21.25 Q54.45 21.1 56.1 21.1 56.3 19.85 55.7 17.1 54.85 15.55 54.05 14.7 52.8 13.7 51.4 14.15 49.05 15.3 49.05 19.6 M38.4 11.05 L39.5 13.15 Q41.2 15.3 44.2 15.3 48.1 15.3 48.1 12.1 48.1 9.1 43.25 8.3 38.4 7.45 38.4 11.05" fill="#bef0d8" fill-opacity="0.7058824" fill-rule="evenodd" stroke="none"/>
      <path d="M38.4 11.05 Q38.4 7.45 43.25 8.3 48.1 9.1 48.1 12.1 48.1 15.3 44.2 15.3 41.2 15.3 39.5 13.15 L38.4 11.05 M49.05 19.6 Q49.05 15.3 51.4 14.15 52.8 13.7 54.05 14.7 54.85 15.55 55.7 17.1 56.3 19.85 56.1 21.1 54.45 21.1 52.55 21.25 L50.35 21.15 Q49.9 21.15 49.45 21.05 L49.15 20.7 49.05 19.6 M55.95 13.4 Q55.95 10.65 57.6 9.7 58.55 9.55 59.5 9.85 59.9 10.7 60.35 11.8 60.4 13.4 60.15 14.6 L58.0 15.2 Q57.0 15.05 56.5 14.9 56.2 14.8 56.05 14.45 L55.95 14.25 55.9 13.6 55.9 13.45 M66.15 13.15 Q66.15 10.55 71.05 10.65 75.95 10.8 75.95 13.85 77.05 16.3 75.3 16.3 L72.0 15.9 66.55 15.15 66.2 14.6 66.15 13.15 M78.0 8.25 L81.5 8.6 Q83.15 9.25 84.0 11.65 82.8 13.4 81.65 13.4 79.4 13.4 78.4 11.65 77.6 10.15 78.0 8.25 M80.8 21.45 L84.4 21.15 Q85.1 22.95 84.6 23.65 L83.8 24.85 Q82.25 24.7 81.6 24.25 80.85 22.4 80.8 21.45 M89.05 11.35 Q89.05 9.75 90.1 9.15 91.75 8.3 96.45 8.75 96.45 12.25 95.4 13.3 L89.45 13.3 Q89.05 12.4 89.05 11.35 M90.6 20.95 L90.7 19.6 94.45 19.7 Q94.7 21.8 94.25 22.8 L91.2 22.6 Q90.6 22.0 90.6 20.95 M102.65 15.6 Q102.65 14.35 103.7 13.75 104.75 13.1 107.15 12.9 108.2 15.95 107.5 16.45 105.85 17.0 103.7 17.7 L102.9 17.15 Q102.65 16.75 102.65 15.6 Z" fill="none" stroke="#000000" stroke-linecap="round" stroke-linejoin="round" stroke-opacity="0.0" stroke-width="1.0"/>
    </g>
    <g id="morphshape3" transform="matrix(1.0, 0.0, 0.0, 1.0, -32.35, -6.65)">
      <path d="M91.3 10.3 Q91.3 11.45 91.45 11.85 L91.9 12.6 93.9 12.6 94.4 12.1 94.55 10.9 94.3 9.4 Q94.0 8.95 91.45 8.9 91.3 8.55 91.3 10.3 M69.25 13.2 Q69.15 13.65 69.95 14.25 70.55 14.4 71.25 14.45 72.5 14.35 73.85 13.75 74.15 13.15 73.9 12.5 72.1 12.65 69.5 12.6 L69.2 13.25 M66.15 30.45 L66.45 32.4 Q66.65 33.45 67.1 34.3 L70.6 34.3 Q70.85 34.05 71.1 33.85 L70.7 30.75 67.15 30.2 Q66.35 30.15 66.15 30.45 M41.2 13.5 L41.4 14.85 41.75 15.35 43.3 15.4 Q44.35 15.4 44.95 14.95 45.15 14.8 45.15 13.05 45.15 11.9 44.8 11.35 L44.1 10.7 41.3 11.8 41.2 13.5 M33.55 29.2 L33.8 30.2 Q34.15 31.0 34.6 31.3 38.7 30.75 38.7 28.35 38.7 27.25 38.35 26.95 L37.5 26.6 35.75 26.85 33.9 27.0 33.55 29.2" fill="#ffffff" fill-opacity="0.7058824" fill-rule="evenodd" stroke="none"/>
      <path d="M33.55 29.2 L33.9 27.0 35.75 26.85 37.5 26.6 38.35 26.95 Q38.7 27.25 38.7 28.35 38.7 30.75 34.6 31.3 34.15 31.0 33.8 30.2 L33.55 29.2 M41.2 13.5 L41.3 11.8 44.1 10.7 44.8 11.35 Q45.15 11.9 45.15 13.05 45.15 14.8 44.95 14.95 44.35 15.4 43.3 15.4 L41.75 15.35 41.4 14.85 41.2 13.5 M66.15 30.45 Q66.35 30.15 67.15 30.2 L70.7 30.75 71.1 33.85 Q70.85 34.05 70.6 34.3 L67.1 34.3 Q66.65 33.45 66.45 32.4 L66.15 30.45 M69.2 13.25 L69.5 12.6 Q72.1 12.65 73.9 12.5 74.15 13.15 73.85 13.75 72.5 14.35 71.25 14.45 70.55 14.4 69.95 14.25 69.15 13.65 69.25 13.2 M91.3 10.3 Q91.3 8.55 91.45 8.9 94.0 8.95 94.3 9.4 L94.55 10.9 94.4 12.1 93.9 12.6 91.9 12.6 91.45 11.85 Q91.3 11.45 91.3 10.3 Z" fill="none" stroke="#000000" stroke-linecap="round" stroke-linejoin="round" stroke-opacity="0.0" stroke-width="1.0"/>
    </g>
  </defs>
</svg>
