<?xml version="1.0" encoding="UTF-8" standalone="no"?>
<svg xmlns:xlink="http://www.w3.org/1999/xlink" height="47.45px" width="141.0px" xmlns="http://www.w3.org/2000/svg">
  <g transform="matrix(1.0, 0.0, 0.0, 1.0, -4.35, -2.9)">
    <use data-characterId="3188" height="47.45" transform="matrix(1.0, 0.0, 0.0, 1.0, 4.35, 2.9)" width="141.0" xlink:href="#morphshape0"/>
    <use data-characterId="3189" height="37.5" transform="matrix(1.0, 0.0, 0.0, 1.0, 17.5, 9.15)" width="116.05" xlink:href="#morphshape1"/>
    <use data-characterId="3190" height="21.8" transform="matrix(1.0, 0.0, 0.0, 1.0, 37.6, 4.7)" width="75.1" xlink:href="#morphshape2"/>
    <use data-characterId="3191" height="35.65" transform="matrix(1.0, 0.0, 0.0, 1.0, 32.35, 6.65)" width="66.65" xlink:href="#morphshape3"/>
  </g>
  <defs>
    <g id="morphshape0" transform="matrix(1.0, 0.0, 0.0, 1.0, -4.35, -2.9)">
      <path d="M4.7 17.45 Q4.35 19.0 11.9 20.25 19.5 21.45 28.4 22.0 38.85 22.7 26.45 24.05 13.8 24.8 22.2 26.45 30.85 27.9 25.0 28.65 19.15 29.25 15.25 30.8 11.5 32.6 15.45 33.1 19.25 33.55 20.95 33.95 23.3 34.4 25.5 34.85 L34.75 35.65 Q29.7 37.35 31.6 38.1 22.65 40.6 38.3 40.25 40.85 40.75 51.0 39.6 42.95 42.3 44.3 43.45 45.75 44.65 52.7 45.05 60.1 45.3 67.9 46.15 76.8 46.9 71.25 48.55 65.35 50.2 68.5 49.7 73.35 49.2 77.6 49.15 L91.55 48.6 Q99.4 48.2 102.4 47.25 106.85 46.45 106.5 44.9 105.45 43.9 108.15 41.4 111.2 40.35 104.6 38.35 122.15 37.35 123.1 35.55 125.4 34.2 120.7 33.85 121.7 33.15 119.55 32.7 126.65 31.3 126.3 30.4 126.25 29.6 122.65 28.8 119.4 28.1 116.7 27.6 114.0 27.1 125.15 25.65 136.35 24.2 139.7 22.45 143.0 20.7 134.9 19.5 128.35 18.3 124.15 18.35 L122.55 18.4 122.2 18.3 Q123.45 17.5 122.1 16.75 131.0 15.6 125.8 14.6 121.65 13.65 116.15 13.5 116.6 12.0 113.55 11.1 104.0 6.95 91.55 4.9 81.5 2.85 57.35 3.95 38.3 4.95 22.4 8.4 6.2 11.05 8.8 12.05 11.4 13.0 23.1 13.85 34.75 14.6 29.5 14.85 24.3 14.95 19.2 15.1 L10.9 15.6 4.9 16.3 Q4.55 16.85 4.8 17.4" fill="#96e0bc" fill-opacity="0.7058824" fill-rule="evenodd" stroke="none"/>
      <path d="M4.8 17.4 Q4.55 16.85 4.9 16.3 L10.9 15.6 19.2 15.1 Q24.3 14.95 29.5 14.85 34.75 14.6 23.1 13.85 11.4 13.0 8.8 12.05 6.2 11.05 22.4 8.4 38.3 4.95 57.35 3.95 81.5 2.85 91.55 4.9 104.0 6.95 113.55 11.1 116.6 12.0 116.15 13.5 121.65 13.65 125.8 14.6 131.0 15.6 122.1 16.75 123.45 17.5 122.2 18.3 L122.55 18.4 124.15 18.35 Q128.35 18.3 134.9 19.5 143.0 20.7 139.7 22.45 136.35 24.2 125.15 25.65 114.0 27.1 116.7 27.6 119.4 28.1 122.65 28.8 126.25 29.6 126.3 30.4 126.65 31.3 119.55 32.7 121.7 33.15 120.7 33.85 125.4 34.2 123.1 35.55 122.15 37.35 104.6 38.35 111.2 40.35 108.15 41.4 105.45 43.9 106.5 44.9 106.85 46.45 102.4 47.25 99.4 48.2 91.55 48.6 L77.6 49.15 Q73.35 49.2 68.5 49.7 65.35 50.2 71.25 48.55 76.8 46.9 67.9 46.15 60.1 45.3 52.7 45.05 45.75 44.65 44.3 43.45 42.95 42.3 51.0 39.6 40.85 40.75 38.3 40.25 22.65 40.6 31.6 38.1 29.7 37.35 34.75 35.65 L25.5 34.85 Q23.3 34.4 20.95 33.95 19.25 33.55 15.45 33.1 11.5 32.6 15.25 30.8 19.15 29.25 25.0 28.65 30.85 27.9 22.2 26.45 13.8 24.8 26.45 24.05 38.85 22.7 28.4 22.0 19.5 21.45 11.9 20.25 4.35 19.0 4.7 17.45" fill="none" stroke="#000000" stroke-linecap="round" stroke-linejoin="round" stroke-opacity="0.0" stroke-width="1.0"/>
    </g>
    <g id="morphshape1" transform="matrix(1.0, 0.0, 0.0, 1.0, -17.5, -9.15)">
      <path d="M124.5 22.3 Q124.5 23.05 124.95 23.75 125.7 24.8 128.55 24.55 L127.8 22.35 Q126.8 22.0 124.5 22.3 M101.85 32.2 Q101.85 32.55 102.95 33.35 L106.25 33.45 108.4 32.45 Q110.6 31.4 111.0 30.9 L109.5 29.7 105.3 29.3 Q101.85 29.5 101.85 32.2 M88.4 41.35 L88.85 42.15 Q90.0 42.45 91.3 42.75 L93.8 42.95 97.45 42.85 98.1 42.65 98.5 42.3 98.65 41.6 98.6 41.1 Q98.45 40.35 97.8 39.9 96.7 39.2 92.15 39.25 90.25 39.55 88.75 40.65 L88.35 41.4 M78.0 34.9 L78.0 34.95 78.3 35.6 Q79.05 36.0 80.25 36.35 L82.35 36.7 85.45 36.75 85.95 36.6 86.25 36.3 86.45 35.7 86.45 35.25 Q86.4 34.5 85.9 34.15 85.05 33.45 81.25 33.4 79.65 33.6 78.3 34.25 L78.05 34.85 M61.7 38.0 L62.25 38.9 68.6 39.3 Q72.65 39.3 75.5 37.05 75.5 35.15 69.45 35.0 63.2 34.9 61.7 38.0 M56.8 41.25 Q56.9 41.7 57.05 42.0 L60.1 42.0 Q60.55 41.75 60.8 40.15 L57.3 40.35 Q56.8 40.7 56.8 41.25 M49.0 34.9 L50.2 36.1 Q52.25 37.25 56.55 37.25 58.1 37.25 59.85 35.1 59.85 32.15 54.45 32.2 49.0 32.25 49.0 34.9 M30.25 29.65 Q30.4 30.2 33.15 31.4 36.6 32.2 40.2 32.25 L44.0 31.6 Q45.05 30.85 45.45 28.8 44.95 25.95 37.35 26.3 29.7 26.65 30.2 29.65 M20.95 13.35 Q20.95 13.8 21.4 14.5 L22.35 15.45 29.2 15.55 Q30.4 14.65 30.4 14.1 30.4 12.25 25.7 12.15 20.95 12.1 20.95 13.35" fill="#bef0d8" fill-opacity="0.7058824" fill-rule="evenodd" stroke="none"/>
      <path d="M20.95 13.35 Q20.95 12.1 25.7 12.15 30.4 12.25 30.4 14.1 30.4 14.65 29.2 15.55 L22.35 15.45 21.4 14.5 Q20.95 13.8 20.95 13.35 M30.2 29.65 Q29.7 26.65 37.35 26.3 44.95 25.95 45.45 28.8 45.05 30.85 44.0 31.6 L40.2 32.25 Q36.6 32.2 33.15 31.4 30.4 30.2 30.25 29.65 M49.0 34.9 Q49.0 32.25 54.45 32.2 59.85 32.15 59.85 35.1 58.1 37.25 56.55 37.25 52.25 37.25 50.2 36.1 L49.0 34.9 M56.8 41.25 Q56.8 40.7 57.3 40.35 L60.8 40.15 Q60.55 41.75 60.1 42.0 L57.05 42.0 Q56.9 41.7 56.8 41.25 M61.7 38.0 Q63.2 34.9 69.45 35.0 75.5 35.15 75.5 37.05 72.65 39.3 68.6 39.3 L62.25 38.9 61.7 38.0 M78.05 34.85 L78.3 34.25 Q79.65 33.6 81.25 33.4 85.05 33.45 85.9 34.15 86.4 34.5 86.45 35.25 L86.45 35.7 86.25 36.3 85.95 36.6 85.45 36.75 82.35 36.7 80.25 36.35 Q79.05 36.0 78.3 35.6 L78.0 34.95 78.0 34.9 M88.35 41.4 L88.75 40.65 Q90.25 39.55 92.15 39.25 96.7 39.2 97.8 39.9 98.45 40.35 98.6 41.1 L98.65 41.6 98.5 42.3 98.1 42.65 97.45 42.85 93.8 42.95 91.3 42.75 Q90.0 42.45 88.85 42.15 L88.4 41.35 M101.85 32.2 Q101.85 29.5 105.3 29.3 L109.5 29.7 111.0 30.9 Q110.6 31.4 108.4 32.45 L106.25 33.45 102.95 33.35 Q101.85 32.55 101.85 32.2 M124.5 22.3 Q126.8 22.0 127.8 22.35 L128.55 24.55 Q125.7 24.8 124.95 23.75 124.5 23.05 124.5 22.3 Z" fill="none" stroke="#000000" stroke-linecap="round" stroke-linejoin="round" stroke-opacity="0.0" stroke-width="1.0"/>
    </g>
    <g id="morphshape2" transform="matrix(1.0, 0.0, 0.0, 1.0, -37.6, -4.7)">
      <path d="M105.45 17.65 Q105.45 18.8 105.7 19.2 L106.5 19.75 Q109.2 19.0 110.3 18.5 111.0 18.0 109.95 14.95 107.55 15.15 106.5 15.8 105.45 16.4 105.45 17.65 M92.65 18.45 Q92.65 19.5 93.25 20.1 L96.3 20.3 Q96.75 19.3 96.5 17.2 L92.75 17.1 92.65 18.45 M91.35 10.0 Q91.35 11.05 91.75 11.95 L97.7 11.95 Q98.75 10.9 98.75 7.4 94.05 6.95 92.4 7.8 91.35 8.4 91.35 10.0 M83.05 18.35 Q83.1 19.3 83.85 21.15 84.5 21.6 86.05 21.75 L86.85 20.55 Q87.35 19.85 86.65 18.05 L83.05 18.35 M76.5 12.15 Q76.1 14.05 76.9 15.55 77.9 17.3 80.15 17.3 81.3 17.3 82.5 15.55 81.65 13.15 80.0 12.5 L76.5 12.15 M64.85 10.85 L64.9 12.3 65.25 12.85 70.7 13.6 74.0 14.0 Q75.75 14.0 74.65 11.55 74.65 8.5 69.75 8.35 64.85 8.25 64.85 10.85 M56.05 18.95 L56.15 20.0 56.4 20.35 Q56.8 20.5 57.25 20.55 58.15 20.6 59.3 20.65 L62.55 20.4 Q62.75 19.15 62.25 16.6 61.5 15.15 60.8 14.3 59.6 13.45 58.3 13.85 56.1 14.95 56.1 18.95 M51.15 12.9 L51.15 13.05 51.2 13.8 51.35 14.0 Q51.55 14.3 51.85 14.35 L53.5 14.6 Q55.05 14.15 55.9 14.1 56.15 12.9 56.0 11.1 55.45 9.9 54.95 9.05 53.95 8.6 52.9 8.8 51.1 9.8 51.1 12.85 M39.9 12.8 L41.0 14.9 Q42.7 17.05 45.7 17.05 49.6 17.05 49.6 13.85 49.6 10.85 44.75 10.05 39.9 9.2 39.9 12.8" fill="#bef0d8" fill-opacity="0.7058824" fill-rule="evenodd" stroke="none"/>
      <path d="M39.9 12.8 Q39.9 9.2 44.75 10.05 49.6 10.85 49.6 13.85 49.6 17.05 45.7 17.05 42.7 17.05 41.0 14.9 L39.9 12.8 M51.1 12.85 Q51.1 9.8 52.9 8.8 53.95 8.6 54.95 9.05 55.45 9.9 56.0 11.1 56.15 12.9 55.9 14.1 55.05 14.15 53.5 14.6 L51.85 14.35 Q51.55 14.3 51.35 14.0 L51.2 13.8 51.15 13.05 51.15 12.9 M56.1 18.95 Q56.1 14.95 58.3 13.85 59.6 13.45 60.8 14.3 61.5 15.15 62.25 16.6 62.75 19.15 62.55 20.4 L59.3 20.65 Q58.15 20.6 57.25 20.55 56.8 20.5 56.4 20.35 L56.15 20.0 56.05 18.95 M64.85 10.85 Q64.85 8.25 69.75 8.35 74.65 8.5 74.65 11.55 75.75 14.0 74.0 14.0 L70.7 13.6 65.25 12.85 64.9 12.3 64.85 10.85 M76.5 12.15 L80.0 12.5 Q81.65 13.15 82.5 15.55 81.3 17.3 80.15 17.3 77.9 17.3 76.9 15.55 76.1 14.05 76.5 12.15 M83.05 18.35 L86.65 18.05 Q87.35 19.85 86.85 20.55 L86.05 21.75 Q84.5 21.6 83.85 21.15 83.1 19.3 83.05 18.35 M91.35 10.0 Q91.35 8.4 92.4 7.8 94.05 6.95 98.75 7.4 98.75 10.9 97.7 11.95 L91.75 11.95 Q91.35 11.05 91.35 10.0 M92.65 18.45 L92.75 17.1 96.5 17.2 Q96.75 19.3 96.3 20.3 L93.25 20.1 Q92.65 19.5 92.65 18.45 M105.45 17.65 Q105.45 16.4 106.5 15.8 107.55 15.15 109.95 14.95 111.0 18.0 110.3 18.5 109.2 19.0 106.5 19.75 L105.7 19.2 Q105.45 18.8 105.45 17.65 Z" fill="none" stroke="#000000" stroke-linecap="round" stroke-linejoin="round" stroke-opacity="0.0" stroke-width="1.0"/>
    </g>
    <g id="morphshape3" transform="matrix(1.0, 0.0, 0.0, 1.0, -32.35, -6.65)">
      <path d="M95.3 8.35 Q95.3 9.5 95.45 9.9 L95.9 10.65 97.9 10.65 98.4 10.15 98.55 8.95 98.3 7.45 Q98.0 7.0 95.45 6.95 95.3 6.6 95.3 8.35 M68.85 10.6 Q68.6 10.95 69.15 11.85 69.5 12.3 70.3 12.6 L73.05 12.95 Q73.55 12.5 73.55 11.8 73.35 11.35 69.4 10.15 L68.85 10.6 M65.95 35.4 L66.25 37.35 Q66.45 38.4 66.9 39.25 L70.4 39.25 Q70.6 38.95 70.9 38.8 L70.5 35.7 66.95 35.15 Q66.15 35.1 65.95 35.4 M43.15 14.55 L43.35 15.9 43.7 16.4 45.25 16.45 Q46.3 16.45 46.9 16.0 47.1 15.85 47.1 14.1 47.1 12.95 46.75 12.4 L46.05 11.75 43.25 12.85 43.15 14.55 M35.8 29.2 L36.05 30.2 Q36.4 31.0 36.85 31.3 40.95 30.75 40.95 28.35 40.95 27.25 40.6 26.95 L39.75 26.6 38.0 26.85 36.15 27.0 35.8 29.2" fill="#ffffff" fill-opacity="0.7058824" fill-rule="evenodd" stroke="none"/>
      <path d="M35.8 29.2 L36.15 27.0 38.0 26.85 39.75 26.6 40.6 26.95 Q40.95 27.25 40.95 28.35 40.95 30.75 36.85 31.3 36.4 31.0 36.05 30.2 L35.8 29.2 M43.15 14.55 L43.25 12.85 46.05 11.75 46.75 12.4 Q47.1 12.95 47.1 14.1 47.1 15.85 46.9 16.0 46.3 16.45 45.25 16.45 L43.7 16.4 43.35 15.9 43.15 14.55 M65.95 35.4 Q66.15 35.1 66.95 35.15 L70.5 35.7 70.9 38.8 Q70.6 38.95 70.4 39.25 L66.9 39.25 Q66.45 38.4 66.25 37.35 L65.95 35.4 M68.85 10.6 L69.4 10.15 Q73.35 11.35 73.55 11.8 73.55 12.5 73.05 12.95 L70.3 12.6 Q69.5 12.3 69.15 11.85 68.6 10.95 68.85 10.6 M95.3 8.35 Q95.3 6.6 95.45 6.95 98.0 7.0 98.3 7.45 L98.55 8.95 98.4 10.15 97.9 10.65 95.9 10.65 95.45 9.9 Q95.3 9.5 95.3 8.35 Z" fill="none" stroke="#000000" stroke-linecap="round" stroke-linejoin="round" stroke-opacity="0.0" stroke-width="1.0"/>
    </g>
  </defs>
</svg>
