<?xml version="1.0" encoding="UTF-8" standalone="no"?>
<svg xmlns:xlink="http://www.w3.org/1999/xlink" height="47.45px" width="141.0px" xmlns="http://www.w3.org/2000/svg">
  <g transform="matrix(1.0, 0.0, 0.0, 1.0, -4.35, -2.9)">
    <use data-characterId="3188" height="47.45" transform="matrix(1.0, 0.0, 0.0, 1.0, 4.35, 2.9)" width="141.0" xlink:href="#morphshape0"/>
    <use data-characterId="3189" height="37.5" transform="matrix(1.0, 0.0, 0.0, 1.0, 17.5, 9.15)" width="116.05" xlink:href="#morphshape1"/>
    <use data-characterId="3190" height="21.8" transform="matrix(1.0, 0.0, 0.0, 1.0, 37.6, 4.7)" width="75.1" xlink:href="#morphshape2"/>
    <use data-characterId="3191" height="35.65" transform="matrix(1.0, 0.0, 0.0, 1.0, 32.35, 6.65)" width="66.65" xlink:href="#morphshape3"/>
  </g>
  <defs>
    <g id="morphshape0" transform="matrix(1.0, 0.0, 0.0, 1.0, -4.35, -2.9)">
      <path d="M5.05 18.2 Q5.0 19.7 11.0 20.8 17.05 21.75 24.05 22.25 33.45 23.05 25.1 24.75 16.4 25.45 21.6 27.0 27.25 28.2 23.15 29.0 19.0 29.65 16.4 31.0 14.0 32.8 17.2 33.35 20.1 33.8 21.9 34.15 24.8 34.5 27.05 35.15 L33.4 36.1 Q29.7 37.95 32.95 38.75 28.0 40.5 40.2 40.3 41.7 41.0 48.75 40.5 43.15 42.7 45.25 43.95 47.55 45.3 53.65 45.6 59.4 45.8 65.85 46.9 73.0 47.95 70.0 49.1 66.45 50.25 70.2 49.4 75.15 48.55 79.2 48.45 L91.1 47.75 Q97.6 47.35 100.7 46.55 106.1 46.1 107.0 44.1 106.7 43.0 108.75 40.8 112.7 39.85 108.55 38.15 121.9 36.6 121.2 34.95 122.7 34.0 119.35 33.75 123.15 32.75 121.9 32.2 127.05 30.95 125.95 30.05 125.4 29.3 122.4 28.55 119.95 28.0 120.0 27.3 120.05 26.6 128.25 24.9 136.45 23.2 137.95 21.6 139.35 19.95 132.0 19.15 127.05 18.35 123.75 18.4 L122.6 18.45 122.15 18.3 Q124.35 17.1 122.35 16.0 127.5 15.1 122.9 14.35 120.0 13.65 116.15 13.55 116.9 11.15 112.0 9.7 101.8 5.75 85.1 4.3 72.3 2.85 49.5 4.6 30.5 6.25 19.75 9.5 8.6 11.55 10.5 12.45 12.4 13.3 20.65 14.05 28.8 14.7 24.95 14.95 21.2 15.0 17.55 15.15 L9.05 15.8 4.85 16.3 Q4.35 17.15 4.8 18.05" fill="#96e0bc" fill-opacity="0.7058824" fill-rule="evenodd" stroke="none"/>
      <path d="M4.8 18.05 Q4.35 17.15 4.85 16.3 L9.05 15.8 17.55 15.15 Q21.2 15.0 24.95 14.95 28.8 14.7 20.65 14.05 12.4 13.3 10.5 12.45 8.6 11.55 19.75 9.5 30.5 6.25 49.5 4.6 72.3 2.85 85.1 4.3 101.8 5.75 112.0 9.7 116.9 11.15 116.15 13.55 120.0 13.65 122.9 14.35 127.5 15.1 122.35 16.0 124.35 17.1 122.15 18.3 L122.6 18.45 123.75 18.4 Q127.05 18.35 132.0 19.15 139.35 19.95 137.95 21.6 136.45 23.2 128.25 24.9 120.05 26.6 120.0 27.3 119.95 28.0 122.4 28.55 125.4 29.3 125.95 30.05 127.05 30.95 121.9 32.2 123.15 32.75 119.35 33.75 122.7 34.0 121.2 34.95 121.9 36.6 108.55 38.15 112.7 39.85 108.75 40.8 106.7 43.0 107.0 44.1 106.1 46.1 100.7 46.55 97.6 47.35 91.1 47.75 L79.2 48.45 Q75.15 48.55 70.2 49.4 66.45 50.25 70.0 49.1 73.0 47.95 65.85 46.9 59.4 45.8 53.65 45.6 47.55 45.3 45.25 43.95 43.15 42.7 48.75 40.5 41.7 41.0 40.2 40.3 28.0 40.5 32.95 38.75 29.7 37.95 33.4 36.1 L27.05 35.15 Q24.8 34.5 21.9 34.15 20.1 33.8 17.2 33.35 14.0 32.8 16.4 31.0 19.0 29.65 23.15 29.0 27.25 28.2 21.6 27.0 16.4 25.45 25.1 24.75 33.45 23.05 24.05 22.25 17.05 21.75 11.0 20.8 5.0 19.7 5.05 18.2" fill="none" stroke="#000000" stroke-linecap="round" stroke-linejoin="round" stroke-opacity="0.0" stroke-width="1.0"/>
    </g>
    <g id="morphshape1" transform="matrix(1.0, 0.0, 0.0, 1.0, -17.5, -9.15)">
      <path d="M121.45 22.7 Q121.45 23.45 121.9 24.15 122.65 25.2 125.5 24.95 L124.75 22.75 Q123.75 22.4 121.45 22.7 M101.1 31.05 Q101.1 31.4 102.2 32.2 L105.5 32.3 107.65 31.3 Q109.85 30.25 110.25 29.75 L108.75 28.55 104.55 28.15 Q101.1 28.35 101.1 31.05 M87.2 39.0 L87.55 39.75 Q88.45 40.1 89.7 40.45 L91.95 40.75 95.25 40.75 95.8 40.6 96.15 40.3 96.35 39.65 96.35 39.2 Q96.25 38.45 95.7 38.05 94.75 37.35 90.65 37.35 88.95 37.6 87.55 38.4 L87.25 39.05 M77.2 37.2 L77.2 37.25 77.6 37.95 Q78.6 38.3 79.85 38.6 L82.2 38.85 85.65 38.8 86.25 38.6 86.6 38.25 86.75 37.6 86.7 37.1 Q86.6 36.35 86.0 35.95 85.0 35.25 80.75 35.25 78.95 35.5 77.5 36.45 L77.15 37.15 M61.95 36.1 L62.5 37.0 68.85 37.4 Q72.9 37.4 75.75 35.15 75.75 33.25 69.7 33.1 63.45 33.0 61.95 36.1 M58.35 41.55 Q58.4 42.0 58.6 42.3 L61.65 42.3 Q62.1 42.05 62.35 40.45 L58.85 40.65 Q58.35 41.0 58.35 41.55 M49.0 35.55 L50.2 36.75 Q52.25 37.9 56.55 37.9 58.1 37.9 59.85 35.75 59.85 32.8 54.45 32.85 49.0 32.9 49.0 35.55 M29.0 29.15 Q29.1 29.75 31.8 31.1 35.2 32.3 38.85 32.3 L42.7 31.85 Q43.8 31.2 44.3 29.2 43.95 26.35 36.35 26.3 28.7 26.25 29.05 29.25 M19.9 15.15 Q19.9 15.6 20.35 16.3 L21.3 17.25 28.15 17.35 Q29.35 16.45 29.35 15.9 29.35 14.05 24.65 13.95 19.9 13.9 19.9 15.15" fill="#bef0d8" fill-opacity="0.7058824" fill-rule="evenodd" stroke="none"/>
      <path d="M19.9 15.15 Q19.9 13.9 24.65 13.95 29.35 14.05 29.35 15.9 29.35 16.45 28.15 17.35 L21.3 17.25 20.35 16.3 Q19.9 15.6 19.9 15.15 M29.05 29.25 Q28.7 26.25 36.35 26.3 43.95 26.35 44.3 29.2 43.8 31.2 42.7 31.85 L38.85 32.3 Q35.2 32.3 31.8 31.1 29.1 29.75 29.0 29.15 M49.0 35.55 Q49.0 32.9 54.45 32.85 59.85 32.8 59.85 35.75 58.1 37.9 56.55 37.9 52.25 37.9 50.2 36.75 L49.0 35.55 M58.35 41.55 Q58.35 41.0 58.85 40.65 L62.35 40.45 Q62.1 42.05 61.65 42.3 L58.6 42.3 Q58.4 42.0 58.35 41.55 M61.95 36.1 Q63.45 33.0 69.7 33.1 75.75 33.25 75.75 35.15 72.9 37.4 68.85 37.4 L62.5 37.0 61.95 36.1 M77.15 37.15 L77.5 36.45 Q78.95 35.5 80.75 35.25 85.0 35.25 86.0 35.95 86.6 36.35 86.7 37.1 L86.75 37.6 86.6 38.25 86.25 38.6 85.65 38.8 82.2 38.85 79.85 38.6 Q78.6 38.3 77.6 37.95 L77.2 37.25 77.2 37.2 M87.25 39.05 L87.55 38.4 Q88.95 37.6 90.65 37.35 94.75 37.35 95.7 38.05 96.25 38.45 96.35 39.2 L96.35 39.65 96.15 40.3 95.8 40.6 95.25 40.75 91.95 40.75 89.7 40.45 Q88.45 40.1 87.55 39.75 L87.2 39.0 M101.1 31.05 Q101.1 28.35 104.55 28.15 L108.75 28.55 110.25 29.75 Q109.85 30.25 107.65 31.3 L105.5 32.3 102.2 32.2 Q101.1 31.4 101.1 31.05 M121.45 22.7 Q123.75 22.4 124.75 22.75 L125.5 24.95 Q122.65 25.2 121.9 24.15 121.45 23.45 121.45 22.7 Z" fill="none" stroke="#000000" stroke-linecap="round" stroke-linejoin="round" stroke-opacity="0.0" stroke-width="1.0"/>
    </g>
    <g id="morphshape2" transform="matrix(1.0, 0.0, 0.0, 1.0, -37.6, -4.7)">
      <path d="M104.15 16.7 Q104.15 17.85 104.4 18.25 L105.2 18.8 Q107.65 18.1 109.0 17.55 109.7 17.05 108.65 14.0 106.25 14.2 105.2 14.85 104.15 15.45 104.15 16.7 M91.7 19.6 Q91.7 20.65 92.3 21.25 L95.35 21.45 Q95.8 20.45 95.55 18.35 L91.8 18.25 91.7 19.6 M90.3 10.6 Q90.3 11.65 90.7 12.55 L96.65 12.55 Q97.7 11.5 97.7 8.0 93.0 7.55 91.35 8.4 90.3 9.0 90.3 10.6 M82.0 19.8 Q82.05 20.75 82.8 22.6 83.45 23.05 85.0 23.2 L85.8 22.0 Q86.3 21.3 85.6 19.5 L82.0 19.8 M77.2 10.35 Q76.8 12.25 77.6 13.75 78.6 15.5 80.85 15.5 82.0 15.5 83.2 13.75 82.35 11.35 80.7 10.7 L77.2 10.35 M65.45 11.9 L65.5 13.35 65.85 13.9 71.3 14.65 74.6 15.05 Q76.35 15.05 75.25 12.6 75.25 9.55 70.35 9.4 65.45 9.3 65.45 11.9 M56.0 16.4 L56.05 17.35 56.25 17.6 Q56.55 17.85 56.9 17.9 57.6 18.0 58.7 18.1 L61.45 17.7 Q61.7 16.5 61.4 14.4 60.8 13.1 60.25 12.25 59.15 11.65 58.0 11.95 56.05 13.0 56.05 16.4 M50.2 16.0 L50.2 16.1 50.3 17.0 50.5 17.3 Q50.8 17.5 51.2 17.55 L53.1 17.75 Q54.8 17.45 56.0 17.4 56.2 16.15 55.85 13.9 55.15 12.55 54.5 11.7 53.4 11.0 52.2 11.3 50.15 12.35 50.15 16.0 M39.2 12.0 L40.3 14.1 Q42.0 16.25 45.0 16.25 48.9 16.25 48.9 13.05 48.9 10.05 44.05 9.25 39.2 8.4 39.2 12.0" fill="#bef0d8" fill-opacity="0.7058824" fill-rule="evenodd" stroke="none"/>
      <path d="M39.2 12.0 Q39.2 8.4 44.05 9.25 48.9 10.05 48.9 13.05 48.9 16.25 45.0 16.25 42.0 16.25 40.3 14.1 L39.2 12.0 M50.15 16.0 Q50.15 12.35 52.2 11.3 53.4 11.0 54.5 11.7 55.15 12.55 55.85 13.9 56.2 16.15 56.0 17.4 54.8 17.45 53.1 17.75 L51.2 17.55 Q50.8 17.5 50.5 17.3 L50.3 17.0 50.2 16.1 50.2 16.0 M56.05 16.4 Q56.05 13.0 58.0 11.95 59.15 11.65 60.25 12.25 60.8 13.1 61.4 14.4 61.7 16.5 61.45 17.7 L58.7 18.1 Q57.6 18.0 56.9 17.9 56.55 17.85 56.25 17.6 L56.05 17.35 56.0 16.4 M65.45 11.9 Q65.45 9.3 70.35 9.4 75.25 9.55 75.25 12.6 76.35 15.05 74.6 15.05 L71.3 14.65 65.85 13.9 65.5 13.35 65.45 11.9 M77.2 10.35 L80.7 10.7 Q82.35 11.35 83.2 13.75 82.0 15.5 80.85 15.5 78.6 15.5 77.6 13.75 76.8 12.25 77.2 10.35 M82.0 19.8 L85.6 19.5 Q86.3 21.3 85.8 22.0 L85.0 23.2 Q83.45 23.05 82.8 22.6 82.05 20.75 82.0 19.8 M90.3 10.6 Q90.3 9.0 91.35 8.4 93.0 7.55 97.7 8.0 97.7 11.5 96.65 12.55 L90.7 12.55 Q90.3 11.65 90.3 10.6 M91.7 19.6 L91.8 18.25 95.55 18.35 Q95.8 20.45 95.35 21.45 L92.3 21.25 Q91.7 20.65 91.7 19.6 M104.15 16.7 Q104.15 15.45 105.2 14.85 106.25 14.2 108.65 14.0 109.7 17.05 109.0 17.55 107.65 18.1 105.2 18.8 L104.4 18.25 Q104.15 17.85 104.15 16.7 Z" fill="none" stroke="#000000" stroke-linecap="round" stroke-linejoin="round" stroke-opacity="0.0" stroke-width="1.0"/>
    </g>
    <g id="morphshape3" transform="matrix(1.0, 0.0, 0.0, 1.0, -32.35, -6.65)">
      <path d="M95.05 8.55 Q95.05 9.7 95.2 10.1 L95.65 10.85 97.65 10.85 98.15 10.35 98.3 9.15 98.05 7.65 Q97.75 7.2 95.2 7.15 95.05 6.8 95.05 8.55 M69.05 11.6 Q68.8 11.95 69.35 12.85 69.8 13.25 70.5 13.6 L73.25 13.95 Q73.75 13.5 73.75 12.8 73.55 12.35 69.6 11.15 L69.05 11.6 M66.05 33.5 L66.35 35.45 Q66.55 36.5 67.0 37.35 L70.5 37.35 Q70.75 37.1 71.0 36.9 L70.6 33.8 67.05 33.25 Q66.25 33.2 66.05 33.5 M42.25 14.05 L42.45 15.4 42.8 15.9 44.35 15.95 Q45.4 15.95 46.0 15.5 46.2 15.35 46.2 13.6 46.2 12.45 45.85 11.9 L45.15 11.25 42.35 12.35 42.25 14.05 M34.75 29.2 L35.0 30.2 Q35.35 31.0 35.8 31.3 39.9 30.75 39.9 28.35 39.9 27.25 39.55 26.95 L38.7 26.6 36.95 26.85 35.1 27.0 34.75 29.2" fill="#ffffff" fill-opacity="0.7058824" fill-rule="evenodd" stroke="none"/>
      <path d="M34.75 29.2 L35.1 27.0 36.95 26.85 38.7 26.6 39.55 26.95 Q39.9 27.25 39.9 28.35 39.9 30.75 35.8 31.3 35.35 31.0 35.0 30.2 L34.75 29.2 M42.25 14.05 L42.35 12.35 45.15 11.25 45.85 11.9 Q46.2 12.45 46.2 13.6 46.2 15.35 46.0 15.5 45.4 15.95 44.35 15.95 L42.8 15.9 42.45 15.4 42.25 14.05 M66.05 33.5 Q66.25 33.2 67.05 33.25 L70.6 33.8 71.0 36.9 Q70.75 37.1 70.5 37.35 L67.0 37.35 Q66.55 36.5 66.35 35.45 L66.05 33.5 M69.05 11.6 L69.6 11.15 Q73.55 12.35 73.75 12.8 73.75 13.5 73.25 13.95 L70.5 13.6 Q69.8 13.25 69.35 12.85 68.8 11.95 69.05 11.6 M95.05 8.55 Q95.05 6.8 95.2 7.15 97.75 7.2 98.05 7.65 L98.3 9.15 98.15 10.35 97.65 10.85 95.65 10.85 95.2 10.1 Q95.05 9.7 95.05 8.55 Z" fill="none" stroke="#000000" stroke-linecap="round" stroke-linejoin="round" stroke-opacity="0.0" stroke-width="1.0"/>
    </g>
  </defs>
</svg>
