<?xml version="1.0" encoding="UTF-8" standalone="no"?>
<svg xmlns:xlink="http://www.w3.org/1999/xlink" height="47.45px" width="141.0px" xmlns="http://www.w3.org/2000/svg">
  <g transform="matrix(1.0, 0.0, 0.0, 1.0, -4.35, -2.9)">
    <use data-characterId="3192" height="47.45" transform="matrix(1.0, 0.0, 0.0, 1.0, 4.35, 2.9)" width="141.0" xlink:href="#morphshape0"/>
    <use data-characterId="3193" height="37.5" transform="matrix(1.0, 0.0, 0.0, 1.0, 17.5, 9.15)" width="116.05" xlink:href="#morphshape1"/>
    <use data-characterId="3194" height="21.8" transform="matrix(1.0, 0.0, 0.0, 1.0, 37.6, 4.7)" width="75.1" xlink:href="#morphshape2"/>
    <use data-characterId="3195" height="35.65" transform="matrix(1.0, 0.0, 0.0, 1.0, 32.35, 6.65)" width="66.65" xlink:href="#morphshape3"/>
  </g>
  <defs>
    <g id="morphshape0" transform="matrix(1.0, 0.0, 0.0, 1.0, -4.35, -2.9)">
      <path d="M4.75 17.45 Q4.45 19.0 11.7 20.25 19.0 21.4 27.55 21.95 37.8 22.7 26.2 24.15 14.35 24.9 22.1 26.55 30.15 27.95 24.65 28.7 19.1 29.3 15.45 30.8 11.95 32.6 15.75 33.1 19.35 33.55 21.05 33.95 23.55 34.35 25.75 34.85 L34.45 35.7 Q29.65 37.4 31.8 38.15 23.65 40.5 38.65 40.2 41.0 40.75 50.55 39.75 43.0 42.35 44.5 43.55 46.15 44.8 52.95 45.15 60.0 45.4 67.55 46.3 76.1 47.1 71.05 48.65 65.6 50.2 68.85 49.6 73.7 49.0 77.9 48.95 L91.45 48.35 Q99.05 47.95 102.05 47.0 106.65 46.3 106.55 44.65 105.65 43.6 108.2 41.15 111.4 40.1 105.3 38.15 122.0 37.05 122.6 35.3 124.75 34.05 120.3 33.75 121.85 33.0 119.9 32.55 126.6 31.2 126.1 30.3 125.95 29.5 122.5 28.7 119.4 28.05 117.25 27.5 115.1 26.95 125.7 25.45 136.3 23.95 139.3 22.25 142.25 20.5 134.3 19.4 128.05 18.3 124.0 18.35 L122.45 18.4 122.1 18.3 Q123.55 17.4 122.05 16.6 130.2 15.5 125.1 14.55 121.2 13.65 116.05 13.5 116.55 11.8 113.15 10.8 103.45 6.7 90.2 4.75 79.6 2.8 55.7 4.0 36.65 5.15 21.75 8.55 6.55 11.1 9.0 12.1 11.45 13.05 22.5 13.9 33.45 14.65 28.5 14.9 23.6 15.0 18.8 15.15 L10.5 15.65 4.85 16.3 Q4.5 16.9 4.8 17.5" fill="#96e0bc" fill-opacity="0.7058824" fill-rule="evenodd" stroke="none"/>
      <path d="M4.8 17.5 Q4.5 16.9 4.85 16.3 L10.5 15.65 18.8 15.15 Q23.6 15.0 28.5 14.9 33.45 14.65 22.5 13.9 11.45 13.05 9.0 12.1 6.55 11.1 21.75 8.55 36.65 5.15 55.7 4.0 79.6 2.8 90.2 4.75 103.45 6.7 113.15 10.8 116.55 11.8 116.05 13.5 121.2 13.65 125.1 14.55 130.2 15.5 122.05 16.6 123.55 17.4 122.1 18.3 L122.45 18.4 124.0 18.35 Q128.05 18.3 134.3 19.4 142.25 20.5 139.3 22.25 136.3 23.95 125.7 25.45 115.1 26.95 117.25 27.5 119.4 28.05 122.5 28.7 125.95 29.5 126.1 30.3 126.6 31.2 119.9 32.55 121.85 33.0 120.3 33.75 124.75 34.05 122.6 35.3 122.0 37.05 105.3 38.15 111.4 40.1 108.2 41.15 105.65 43.6 106.55 44.65 106.65 46.3 102.05 47.0 99.05 47.95 91.45 48.35 L77.9 48.95 Q73.7 49.0 68.85 49.6 65.6 50.2 71.05 48.65 76.1 47.1 67.55 46.3 60.0 45.4 52.95 45.15 46.15 44.8 44.5 43.55 43.0 42.35 50.55 39.75 41.0 40.75 38.65 40.2 23.65 40.5 31.8 38.15 29.65 37.4 34.45 35.7 L25.75 34.85 Q23.55 34.35 21.05 33.95 19.35 33.55 15.75 33.1 11.95 32.6 15.45 30.8 19.1 29.3 24.65 28.7 30.15 27.95 22.1 26.55 14.35 24.9 26.2 24.15 37.8 22.7 27.55 21.95 19.0 21.4 11.7 20.25 4.45 19.0 4.75 17.45" fill="none" stroke="#000000" stroke-linecap="round" stroke-linejoin="round" stroke-opacity="0.0" stroke-width="1.0"/>
    </g>
    <g id="morphshape1" transform="matrix(1.0, 0.0, 0.0, 1.0, -17.5, -9.15)">
      <path d="M123.9 22.4 Q123.9 23.15 124.35 23.85 125.1 24.9 127.95 24.65 L127.2 22.45 Q126.2 22.1 123.9 22.4 M101.7 32.0 Q101.7 32.35 102.8 33.15 L106.1 33.25 108.25 32.25 Q110.45 31.2 110.85 30.7 L109.35 29.5 105.15 29.1 Q101.7 29.3 101.7 32.0 M88.15 41.0 L88.15 41.05 88.55 41.8 Q89.65 42.1 90.95 42.4 L93.4 42.6 97.0 42.5 97.65 42.3 98.05 41.95 98.2 41.25 98.15 40.75 Q98.0 40.0 97.35 39.55 96.3 38.85 91.85 38.9 90.0 39.2 88.55 40.25 L88.15 40.95 M77.9 35.25 L78.25 35.95 Q79.05 36.35 80.25 36.7 L82.4 37.05 85.55 37.1 86.05 36.95 86.35 36.65 86.55 36.05 86.55 35.6 Q86.5 34.85 86.0 34.5 85.1 33.8 81.2 33.75 79.55 33.95 78.15 34.65 L77.9 35.3 M61.75 37.65 L62.3 38.55 68.65 38.95 Q72.7 38.95 75.55 36.7 75.55 34.8 69.5 34.65 63.25 34.55 61.75 37.65 M57.1 41.3 Q57.2 41.75 57.35 42.05 L60.4 42.05 Q60.85 41.8 61.1 40.2 L57.6 40.4 Q57.1 40.75 57.1 41.3 M49.0 35.05 L50.2 36.25 Q52.25 37.4 56.55 37.4 58.1 37.4 59.85 35.25 59.85 32.3 54.45 32.35 49.0 32.4 49.0 35.05 M29.95 29.55 Q30.1 30.1 32.85 31.3 36.3 32.2 39.9 32.25 L43.7 31.6 Q44.75 30.9 45.2 28.85 44.75 26.0 37.15 26.3 29.5 26.55 29.95 29.55 M20.75 13.7 Q20.75 14.15 21.2 14.85 L22.15 15.8 29.0 15.9 Q30.2 15.0 30.2 14.45 30.2 12.6 25.5 12.5 20.75 12.45 20.75 13.7" fill="#bef0d8" fill-opacity="0.7058824" fill-rule="evenodd" stroke="none"/>
      <path d="M20.75 13.7 Q20.75 12.45 25.5 12.5 30.2 12.6 30.2 14.45 30.2 15.0 29.0 15.9 L22.15 15.8 21.2 14.85 Q20.75 14.15 20.75 13.7 M29.95 29.55 Q29.5 26.55 37.15 26.3 44.75 26.0 45.2 28.85 44.75 30.9 43.7 31.6 L39.9 32.25 Q36.3 32.2 32.85 31.3 30.1 30.1 29.95 29.55 M49.0 35.05 Q49.0 32.4 54.45 32.35 59.85 32.3 59.85 35.25 58.1 37.4 56.55 37.4 52.25 37.4 50.2 36.25 L49.0 35.05 M57.1 41.3 Q57.1 40.75 57.6 40.4 L61.1 40.2 Q60.85 41.8 60.4 42.05 L57.35 42.05 Q57.2 41.75 57.1 41.3 M61.75 37.65 Q63.25 34.55 69.5 34.65 75.55 34.8 75.55 36.7 72.7 38.95 68.65 38.95 L62.3 38.55 61.75 37.65 M77.9 35.3 L78.15 34.65 Q79.55 33.95 81.2 33.75 85.1 33.8 86.0 34.5 86.5 34.85 86.55 35.6 L86.55 36.05 86.35 36.65 86.05 36.95 85.55 37.1 82.4 37.05 80.25 36.7 Q79.05 36.35 78.25 35.95 L77.9 35.25 M88.15 40.95 L88.55 40.25 Q90.0 39.2 91.85 38.9 96.3 38.85 97.35 39.55 98.0 40.0 98.15 40.75 L98.2 41.25 98.05 41.95 97.65 42.3 97.0 42.5 93.4 42.6 90.95 42.4 Q89.65 42.1 88.55 41.8 L88.15 41.05 88.15 41.0 M101.7 32.0 Q101.7 29.3 105.15 29.1 L109.35 29.5 110.85 30.7 Q110.45 31.2 108.25 32.25 L106.1 33.25 102.8 33.15 Q101.7 32.35 101.7 32.0 M123.9 22.4 Q126.2 22.1 127.2 22.45 L127.95 24.65 Q125.1 24.9 124.35 23.85 123.9 23.15 123.9 22.4 Z" fill="none" stroke="#000000" stroke-linecap="round" stroke-linejoin="round" stroke-opacity="0.0" stroke-width="1.0"/>
    </g>
    <g id="morphshape2" transform="matrix(1.0, 0.0, 0.0, 1.0, -37.6, -4.7)">
      <path d="M105.2 17.5 Q105.2 18.65 105.45 19.05 L106.25 19.6 Q108.9 18.85 110.05 18.35 110.75 17.85 109.7 14.8 107.3 15.0 106.25 15.65 105.2 16.25 105.2 17.5 M92.5 18.65 Q92.5 19.7 93.1 20.3 L96.15 20.5 Q96.6 19.5 96.35 17.4 L92.6 17.3 92.5 18.65 M91.15 10.1 Q91.15 11.15 91.55 12.05 L97.5 12.05 Q98.55 11.0 98.55 7.5 93.85 7.05 92.2 7.9 91.15 8.5 91.15 10.1 M82.85 18.6 Q82.9 19.55 83.65 21.4 84.3 21.85 85.85 22.0 L86.65 20.8 Q87.15 20.1 86.45 18.3 L82.85 18.6 M76.65 11.8 Q76.25 13.7 77.05 15.2 78.05 16.95 80.3 16.95 81.45 16.95 82.65 15.2 81.8 12.8 80.15 12.15 L76.65 11.8 M64.95 11.05 L65.0 12.5 65.35 13.05 70.8 13.8 74.1 14.2 Q75.85 14.2 74.75 11.75 74.75 8.7 69.85 8.55 64.95 8.45 64.95 11.05 M56.15 18.55 L56.15 18.6 56.25 19.55 56.5 19.85 Q56.85 20.0 57.25 20.05 58.15 20.1 59.3 20.15 L62.45 19.85 Q62.65 18.6 62.2 16.15 61.45 14.7 60.75 13.85 59.55 13.05 58.25 13.45 56.1 14.55 56.1 18.45 M50.85 13.45 L50.9 14.35 51.05 14.6 Q51.3 14.9 51.65 14.95 L53.35 15.2 Q54.95 14.8 55.85 14.75 56.1 13.55 55.9 11.65 55.35 10.45 54.85 9.6 53.85 9.1 52.8 9.3 50.95 10.3 50.95 13.45 M39.75 12.6 L40.85 14.7 Q42.55 16.85 45.55 16.85 49.45 16.85 49.45 13.65 49.45 10.65 44.6 9.85 39.75 9.0 39.75 12.6" fill="#bef0d8" fill-opacity="0.7058824" fill-rule="evenodd" stroke="none"/>
      <path d="M39.75 12.6 Q39.75 9.0 44.6 9.85 49.45 10.65 49.45 13.65 49.45 16.85 45.55 16.85 42.55 16.85 40.85 14.7 L39.75 12.6 M50.95 13.45 Q50.95 10.3 52.8 9.3 53.85 9.1 54.85 9.6 55.35 10.45 55.9 11.65 56.1 13.55 55.85 14.75 54.95 14.8 53.35 15.2 L51.65 14.95 Q51.3 14.9 51.05 14.6 L50.9 14.35 50.85 13.45 M56.1 18.45 Q56.1 14.55 58.25 13.45 59.55 13.05 60.75 13.85 61.45 14.7 62.2 16.15 62.65 18.6 62.45 19.85 L59.3 20.15 Q58.15 20.1 57.25 20.05 56.85 20.0 56.5 19.85 L56.25 19.55 56.15 18.6 56.15 18.55 M64.95 11.05 Q64.95 8.45 69.85 8.55 74.75 8.7 74.75 11.75 75.85 14.2 74.1 14.2 L70.8 13.8 65.35 13.05 65.0 12.5 64.95 11.05 M76.65 11.8 L80.15 12.15 Q81.8 12.8 82.65 15.2 81.45 16.95 80.3 16.95 78.05 16.95 77.05 15.2 76.25 13.7 76.65 11.8 M82.85 18.6 L86.45 18.3 Q87.15 20.1 86.65 20.8 L85.85 22.0 Q84.3 21.85 83.65 21.4 82.9 19.55 82.85 18.6 M91.15 10.1 Q91.15 8.5 92.2 7.9 93.85 7.05 98.55 7.5 98.55 11.0 97.5 12.05 L91.55 12.05 Q91.15 11.15 91.15 10.1 M92.5 18.65 L92.6 17.3 96.35 17.4 Q96.6 19.5 96.15 20.5 L93.1 20.3 Q92.5 19.7 92.5 18.65 M105.2 17.5 Q105.2 16.25 106.25 15.65 107.3 15.0 109.7 14.8 110.75 17.85 110.05 18.35 108.9 18.85 106.25 19.6 L105.45 19.05 Q105.2 18.65 105.2 17.5 Z" fill="none" stroke="#000000" stroke-linecap="round" stroke-linejoin="round" stroke-opacity="0.0" stroke-width="1.0"/>
    </g>
    <g id="morphshape3" transform="matrix(1.0, 0.0, 0.0, 1.0, -32.35, -6.65)">
      <path d="M93.6 9.15 Q93.6 10.3 93.75 10.7 L94.2 11.45 96.2 11.45 96.7 10.95 96.85 9.75 96.6 8.25 Q96.3 7.8 93.75 7.75 93.6 7.4 93.6 9.15 M68.8 11.0 Q68.6 11.4 69.3 12.15 69.7 12.45 70.5 12.65 71.85 12.7 73.2 12.5 73.6 12.0 73.45 11.3 72.5 11.15 69.2 10.5 L68.8 11.05 M65.95 34.55 L66.25 36.5 Q66.45 37.55 66.9 38.4 L70.4 38.4 Q70.6 38.1 70.9 37.95 L70.5 34.85 66.95 34.3 Q66.15 34.25 65.95 34.55 M42.95 14.45 L43.15 15.8 43.5 16.3 45.05 16.35 Q46.1 16.35 46.7 15.9 46.9 15.75 46.9 14.0 46.9 12.85 46.55 12.3 L45.85 11.65 43.05 12.75 42.95 14.45 M35.6 29.2 L35.85 30.2 Q36.2 31.0 36.65 31.3 40.75 30.75 40.75 28.35 40.75 27.25 40.4 26.95 L39.55 26.6 37.8 26.85 35.95 27.0 35.6 29.2" fill="#ffffff" fill-opacity="0.7058824" fill-rule="evenodd" stroke="none"/>
      <path d="M35.6 29.2 L35.95 27.0 37.8 26.85 39.55 26.6 40.4 26.95 Q40.75 27.25 40.75 28.35 40.75 30.75 36.65 31.3 36.2 31.0 35.85 30.2 L35.6 29.2 M42.95 14.45 L43.05 12.75 45.85 11.65 46.55 12.3 Q46.9 12.85 46.9 14.0 46.9 15.75 46.7 15.9 46.1 16.35 45.05 16.35 L43.5 16.3 43.15 15.8 42.95 14.45 M65.95 34.55 Q66.15 34.25 66.95 34.3 L70.5 34.85 70.9 37.95 Q70.6 38.1 70.4 38.4 L66.9 38.4 Q66.45 37.55 66.25 36.5 L65.95 34.55 M68.8 11.05 L69.2 10.5 Q72.5 11.15 73.45 11.3 73.6 12.0 73.2 12.5 71.85 12.7 70.5 12.65 69.7 12.45 69.3 12.15 68.6 11.4 68.8 11.0 M93.6 9.15 Q93.6 7.4 93.75 7.75 96.3 7.8 96.6 8.25 L96.85 9.75 96.7 10.95 96.2 11.45 94.2 11.45 93.75 10.7 Q93.6 10.3 93.6 9.15 Z" fill="none" stroke="#000000" stroke-linecap="round" stroke-linejoin="round" stroke-opacity="0.0" stroke-width="1.0"/>
    </g>
  </defs>
</svg>
