<?xml version="1.0" encoding="UTF-8" standalone="no"?>
<svg xmlns:xlink="http://www.w3.org/1999/xlink" height="47.45px" width="141.0px" xmlns="http://www.w3.org/2000/svg">
  <g transform="matrix(1.0, 0.0, 0.0, 1.0, -4.35, -2.9)">
    <use data-characterId="3188" height="47.45" transform="matrix(1.0, 0.0, 0.0, 1.0, 4.35, 2.9)" width="141.0" xlink:href="#morphshape0"/>
    <use data-characterId="3189" height="37.5" transform="matrix(1.0, 0.0, 0.0, 1.0, 17.5, 9.15)" width="116.05" xlink:href="#morphshape1"/>
    <use data-characterId="3190" height="21.8" transform="matrix(1.0, 0.0, 0.0, 1.0, 37.6, 4.7)" width="75.1" xlink:href="#morphshape2"/>
    <use data-characterId="3191" height="35.65" transform="matrix(1.0, 0.0, 0.0, 1.0, 32.35, 6.65)" width="66.65" xlink:href="#morphshape3"/>
  </g>
  <defs>
    <g id="morphshape0" transform="matrix(1.0, 0.0, 0.0, 1.0, -4.35, -2.9)">
      <path d="M4.8 19.2 Q5.4 20.65 8.4 21.4 11.5 21.95 14.75 22.35 22.2 23.25 21.7 25.65 20.55 26.3 19.65 27.65 19.5 28.4 18.7 29.35 17.9 30.1 17.85 31.05 18.15 32.85 19.85 33.55 21.1 34.05 23.15 34.25 27.15 34.5 29.5 35.55 L30.3 36.8 Q29.3 38.9 35.15 39.85 37.95 40.2 43.4 40.25 42.85 41.4 43.95 42.15 43.1 43.4 46.65 44.85 50.55 46.45 54.95 46.55 57.5 46.6 61.3 48.2 65.15 49.8 67.1 50.0 68.1 50.2 72.95 48.75 78.15 47.2 81.8 47.0 L89.8 46.05 Q93.65 45.65 96.9 45.2 104.15 45.35 107.4 42.5 108.6 41.3 109.45 39.7 115.2 38.95 115.8 37.8 121.1 35.25 117.2 33.85 117.15 33.6 116.35 33.45 125.6 31.9 126.1 31.1 127.55 30.15 125.1 29.2 123.6 28.6 121.75 28.0 120.9 27.75 126.2 26.7 131.5 25.65 133.95 23.45 136.4 21.25 134.25 19.9 132.0 18.45 126.0 18.35 124.2 18.25 122.7 18.3 L122.4 18.3 121.75 18.0 Q125.85 16.05 122.65 14.3 120.65 13.9 117.15 13.55 116.7 13.4 116.1 13.4 117.4 9.25 108.9 6.75 97.45 3.2 72.55 3.0 54.4 2.8 34.25 5.8 15.35 8.65 14.6 11.5 13.15 12.3 13.75 12.95 14.35 13.55 15.95 14.15 17.35 14.6 16.15 14.9 15.25 14.95 14.45 15.15 L5.55 16.15 4.85 16.25 Q4.0 17.75 4.75 19.3" fill="#96e0bc" fill-opacity="0.7058824" fill-rule="evenodd" stroke="none"/>
      <path d="M4.75 19.3 Q4.0 17.75 4.85 16.25 L5.55 16.15 14.45 15.15 Q15.25 14.95 16.15 14.9 17.35 14.6 15.95 14.15 14.35 13.55 13.75 12.95 13.15 12.3 14.6 11.5 15.35 8.65 34.25 5.8 54.4 2.8 72.55 3.0 97.45 3.2 108.9 6.75 117.4 9.25 116.1 13.4 116.7 13.4 117.15 13.55 120.65 13.9 122.65 14.3 125.85 16.05 121.75 18.0 L122.4 18.3 122.7 18.3 Q124.2 18.25 126.0 18.35 132.0 18.45 134.25 19.9 136.4 21.25 133.95 23.45 131.5 25.65 126.2 26.7 120.9 27.75 121.75 28.0 123.6 28.6 125.1 29.2 127.55 30.15 126.1 31.1 125.6 31.9 116.35 33.45 117.15 33.6 117.2 33.85 121.1 35.25 115.8 37.8 115.2 38.95 109.45 39.7 108.6 41.3 107.4 42.5 104.15 45.35 96.9 45.2 93.65 45.65 89.8 46.05 L81.8 47.0 Q78.15 47.2 72.95 48.75 68.1 50.2 67.1 50.0 65.15 49.8 61.3 48.2 57.5 46.6 54.95 46.55 50.55 46.45 46.65 44.85 43.1 43.4 43.95 42.15 42.85 41.4 43.4 40.25 37.95 40.2 35.15 39.85 29.3 38.9 30.3 36.8 L29.5 35.55 Q27.15 34.5 23.15 34.25 21.1 34.05 19.85 33.55 18.15 32.85 17.85 31.05 17.9 30.1 18.7 29.35 19.5 28.4 19.65 27.65 20.55 26.3 21.7 25.65 22.2 23.25 14.75 22.35 11.5 21.95 8.4 21.4 5.4 20.65 4.8 19.2" fill="none" stroke="#000000" stroke-linecap="round" stroke-linejoin="round" stroke-opacity="0.0" stroke-width="1.0"/>
    </g>
    <g id="morphshape1" transform="matrix(1.0, 0.0, 0.0, 1.0, -17.5, -9.15)">
      <path d="M115.6 23.5 Q115.6 24.25 116.05 24.95 116.8 26.0 119.65 25.75 L118.9 23.55 Q117.9 23.2 115.6 23.5 M99.7 28.9 Q99.7 29.25 100.8 30.05 L104.1 30.15 106.25 29.15 Q108.45 28.1 108.85 27.6 L107.35 26.4 103.15 26.0 Q99.7 26.2 99.7 28.9 M85.05 34.4 L85.3 35.0 Q85.8 35.5 86.9 35.95 L88.75 36.4 91.4 36.55 91.8 36.45 92.0 36.25 92.2 35.75 92.2 35.3 Q92.2 34.6 91.8 34.3 91.1 33.65 87.9 33.5 86.55 33.65 85.25 33.9 L85.15 34.45 M75.5 41.7 L75.5 41.7 76.0 42.55 Q77.4 42.75 78.8 42.95 L81.55 43.05 85.65 42.85 86.4 42.6 86.9 42.15 87.05 41.35 87.0 40.85 Q86.8 40.05 86.05 39.55 84.8 38.8 79.65 38.95 77.5 39.3 75.95 40.8 L75.4 41.6 M62.45 32.35 L63.0 33.25 69.35 33.65 Q73.4 33.65 76.25 31.4 76.25 29.5 70.2 29.35 63.95 29.25 62.45 32.35 M61.3 42.2 Q61.3 42.7 61.55 42.95 L64.6 42.95 Q65.05 42.7 65.3 41.1 L61.8 41.3 Q61.3 41.65 61.3 42.2 M49.0 36.8 L50.2 38.0 Q52.25 39.15 56.55 39.15 58.1 39.15 59.85 37.0 59.85 34.05 54.45 34.1 49.0 34.15 49.0 36.8 M26.8 28.45 Q26.8 29.05 29.35 30.65 32.6 32.65 36.25 32.55 L40.15 32.5 Q41.35 31.95 42.05 30.0 42.0 27.1 34.4 26.25 26.75 25.4 26.8 28.45 M17.85 18.65 Q17.85 19.1 18.3 19.8 L19.25 20.75 26.1 20.85 Q27.3 19.95 27.3 19.4 27.3 17.55 22.6 17.45 17.85 17.4 17.85 18.65" fill="#bef0d8" fill-opacity="0.7058824" fill-rule="evenodd" stroke="none"/>
      <path d="M17.85 18.65 Q17.85 17.4 22.6 17.45 27.3 17.55 27.3 19.4 27.3 19.95 26.1 20.85 L19.25 20.75 18.3 19.8 Q17.85 19.1 17.85 18.65 M26.8 28.45 Q26.75 25.4 34.4 26.25 42.0 27.1 42.05 30.0 41.35 31.95 40.15 32.5 L36.25 32.55 Q32.6 32.65 29.35 30.65 26.8 29.05 26.8 28.45 M49.0 36.8 Q49.0 34.15 54.45 34.1 59.85 34.05 59.85 37.0 58.1 39.15 56.55 39.15 52.25 39.15 50.2 38.0 L49.0 36.8 M61.3 42.2 Q61.3 41.65 61.8 41.3 L65.3 41.1 Q65.05 42.7 64.6 42.95 L61.55 42.95 Q61.3 42.7 61.3 42.2 M62.45 32.35 Q63.95 29.25 70.2 29.35 76.25 29.5 76.25 31.4 73.4 33.65 69.35 33.65 L63.0 33.25 62.45 32.35 M75.4 41.6 L75.95 40.8 Q77.5 39.3 79.65 38.95 84.8 38.8 86.05 39.55 86.8 40.05 87.0 40.85 L87.05 41.35 86.9 42.15 86.4 42.6 85.65 42.85 81.55 43.05 78.8 42.95 Q77.4 42.75 76.0 42.55 L75.5 41.7 75.5 41.7 M85.15 34.45 L85.25 33.9 Q86.55 33.65 87.9 33.5 91.1 33.65 91.8 34.3 92.2 34.6 92.2 35.3 L92.2 35.75 92.0 36.25 91.8 36.45 91.4 36.55 88.75 36.4 86.9 35.95 Q85.8 35.5 85.3 35.0 L85.05 34.4 M99.7 28.9 Q99.7 26.2 103.15 26.0 L107.35 26.4 108.85 27.6 Q108.45 28.1 106.25 29.15 L104.1 30.15 100.8 30.05 Q99.7 29.25 99.7 28.9 M115.6 23.5 Q117.9 23.2 118.9 23.55 L119.65 25.75 Q116.8 26.0 116.05 24.95 115.6 24.25 115.6 23.5 Z" fill="none" stroke="#000000" stroke-linecap="round" stroke-linejoin="round" stroke-opacity="0.0" stroke-width="1.0"/>
    </g>
    <g id="morphshape2" transform="matrix(1.0, 0.0, 0.0, 1.0, -37.6, -4.7)">
      <path d="M101.65 14.85 Q101.65 16.0 101.9 16.4 L102.7 16.95 Q104.7 16.3 106.5 15.7 107.2 15.2 106.15 12.15 103.75 12.35 102.7 13.0 101.65 13.6 101.65 14.85 M89.85 21.9 Q89.85 22.95 90.45 23.55 L93.5 23.75 Q93.95 22.75 93.7 20.65 L89.95 20.55 89.85 21.9 M88.25 11.85 Q88.25 12.9 88.65 13.8 L94.6 13.8 Q95.65 12.75 95.65 9.25 90.95 8.8 89.3 9.65 88.25 10.25 88.25 11.85 M79.95 22.6 Q80.0 23.55 80.75 25.4 81.4 25.85 82.95 26.0 L83.75 24.8 Q84.25 24.1 83.55 22.3 L79.95 22.6 M78.5 6.85 Q78.1 8.75 78.9 10.25 79.9 12.0 82.15 12.0 83.3 12.0 84.5 10.25 83.65 7.85 82.0 7.2 L78.5 6.85 M66.65 13.95 L66.7 15.4 67.05 15.95 72.5 16.7 75.8 17.1 Q77.55 17.1 76.45 14.65 76.45 11.6 71.55 11.45 66.65 11.35 66.65 13.95 M55.9 11.35 L55.95 12.1 56.0 12.25 Q56.1 12.65 56.35 12.75 56.65 12.95 57.6 13.15 L59.35 12.45 Q59.6 11.3 59.7 10.05 59.35 9.1 59.05 8.25 58.2 8.15 57.4 8.2 55.9 9.1 55.9 11.4 M48.35 22.05 L48.35 22.05 48.45 23.25 48.8 23.65 Q49.3 23.7 49.8 23.7 L52.2 23.75 Q54.2 23.7 56.1 23.7 56.3 22.4 55.55 19.3 54.6 17.6 53.7 16.75 52.35 15.55 50.8 16.1 48.3 17.3 48.3 22.05 M37.85 10.45 L38.95 12.55 Q40.65 14.7 43.65 14.7 47.55 14.7 47.55 11.5 47.55 8.5 42.7 7.7 37.85 6.85 37.85 10.45" fill="#bef0d8" fill-opacity="0.7058824" fill-rule="evenodd" stroke="none"/>
      <path d="M37.85 10.45 Q37.85 6.85 42.7 7.7 47.55 8.5 47.55 11.5 47.55 14.7 43.65 14.7 40.65 14.7 38.95 12.55 L37.85 10.45 M48.3 22.05 Q48.3 17.3 50.8 16.1 52.35 15.55 53.7 16.75 54.6 17.6 55.55 19.3 56.3 22.4 56.1 23.7 54.2 23.7 52.2 23.75 L49.8 23.7 Q49.3 23.7 48.8 23.65 L48.45 23.25 48.35 22.05 48.35 22.05 M55.9 11.4 Q55.9 9.1 57.4 8.2 58.2 8.15 59.05 8.25 59.35 9.1 59.7 10.05 59.6 11.3 59.35 12.45 L57.6 13.15 Q56.65 12.95 56.35 12.75 56.1 12.65 56.0 12.25 L55.95 12.1 55.9 11.35 M66.65 13.95 Q66.65 11.35 71.55 11.45 76.45 11.6 76.45 14.65 77.55 17.1 75.8 17.1 L72.5 16.7 67.05 15.95 66.7 15.4 66.65 13.95 M78.5 6.85 L82.0 7.2 Q83.65 7.85 84.5 10.25 83.3 12.0 82.15 12.0 79.9 12.0 78.9 10.25 78.1 8.75 78.5 6.85 M79.95 22.6 L83.55 22.3 Q84.25 24.1 83.75 24.8 L82.95 26.0 Q81.4 25.85 80.75 25.4 80.0 23.55 79.95 22.6 M88.25 11.85 Q88.25 10.25 89.3 9.65 90.95 8.8 95.65 9.25 95.65 12.75 94.6 13.8 L88.65 13.8 Q88.25 12.9 88.25 11.85 M89.85 21.9 L89.95 20.55 93.7 20.65 Q93.95 22.75 93.5 23.75 L90.45 23.55 Q89.85 22.95 89.85 21.9 M101.65 14.85 Q101.65 13.6 102.7 13.0 103.75 12.35 106.15 12.15 107.2 15.2 106.5 15.7 104.7 16.3 102.7 16.95 L101.9 16.4 Q101.65 16.0 101.65 14.85 Z" fill="none" stroke="#000000" stroke-linecap="round" stroke-linejoin="round" stroke-opacity="0.0" stroke-width="1.0"/>
    </g>
    <g id="morphshape3" transform="matrix(1.0, 0.0, 0.0, 1.0, -32.35, -6.65)">
      <path d="M94.5 8.85 Q94.5 10.0 94.65 10.4 L95.1 11.15 97.1 11.15 97.6 10.65 97.75 9.45 97.5 7.95 Q97.2 7.5 94.65 7.45 94.5 7.1 94.5 8.85 M69.5 13.5 Q69.25 13.85 69.8 14.75 70.35 15.15 70.95 15.5 L73.7 15.85 Q74.2 15.4 74.2 14.7 74.0 14.25 70.05 13.05 L69.5 13.5 M66.25 29.9 L66.55 31.85 Q66.75 32.9 67.2 33.75 L70.7 33.75 Q70.95 33.5 71.2 33.3 L70.8 30.2 67.25 29.65 Q66.45 29.6 66.25 29.9 M40.5 13.1 L40.7 14.45 41.05 14.95 42.6 15.0 Q43.65 15.0 44.25 14.55 44.45 14.4 44.45 12.65 44.45 11.5 44.1 10.95 L43.4 10.3 40.6 11.4 40.5 13.1 M32.75 29.2 L33.0 30.2 Q33.35 31.0 33.8 31.3 37.9 30.75 37.9 28.35 37.9 27.25 37.55 26.95 L36.7 26.6 34.95 26.85 33.1 27.0 32.75 29.2" fill="#ffffff" fill-opacity="0.7058824" fill-rule="evenodd" stroke="none"/>
      <path d="M32.75 29.2 L33.1 27.0 34.95 26.85 36.7 26.6 37.55 26.95 Q37.9 27.25 37.9 28.35 37.9 30.75 33.8 31.3 33.35 31.0 33.0 30.2 L32.75 29.2 M40.5 13.1 L40.6 11.4 43.4 10.3 44.1 10.95 Q44.45 11.5 44.45 12.65 44.45 14.4 44.25 14.55 43.65 15.0 42.6 15.0 L41.05 14.95 40.7 14.45 40.5 13.1 M66.25 29.9 Q66.45 29.6 67.25 29.65 L70.8 30.2 71.2 33.3 Q70.95 33.5 70.7 33.75 L67.2 33.75 Q66.75 32.9 66.55 31.85 L66.25 29.9 M69.5 13.5 L70.05 13.05 Q74.0 14.25 74.2 14.7 74.2 15.4 73.7 15.85 L70.95 15.5 Q70.35 15.15 69.8 14.75 69.25 13.85 69.5 13.5 M94.5 8.85 Q94.5 7.1 94.65 7.45 97.2 7.5 97.5 7.95 L97.75 9.45 97.6 10.65 97.1 11.15 95.1 11.15 94.65 10.4 Q94.5 10.0 94.5 8.85 Z" fill="none" stroke="#000000" stroke-linecap="round" stroke-linejoin="round" stroke-opacity="0.0" stroke-width="1.0"/>
    </g>
  </defs>
</svg>
