<?xml version="1.0" encoding="UTF-8" standalone="no"?>
<svg xmlns:xlink="http://www.w3.org/1999/xlink" height="47.45px" width="141.0px" xmlns="http://www.w3.org/2000/svg">
  <g transform="matrix(1.0, 0.0, 0.0, 1.0, -4.35, -2.9)">
    <use data-characterId="3188" height="47.45" transform="matrix(1.0, 0.0, 0.0, 1.0, 4.35, 2.9)" width="141.0" xlink:href="#morphshape0"/>
    <use data-characterId="3189" height="37.5" transform="matrix(1.0, 0.0, 0.0, 1.0, 17.5, 9.15)" width="116.05" xlink:href="#morphshape1"/>
    <use data-characterId="3190" height="21.8" transform="matrix(1.0, 0.0, 0.0, 1.0, 37.6, 4.7)" width="75.1" xlink:href="#morphshape2"/>
    <use data-characterId="3191" height="35.65" transform="matrix(1.0, 0.0, 0.0, 1.0, 32.35, 6.65)" width="66.65" xlink:href="#morphshape3"/>
  </g>
  <defs>
    <g id="morphshape0" transform="matrix(1.0, 0.0, 0.0, 1.0, -4.35, -2.9)">
      <path d="M4.9 18.4 Q5.05 19.9 10.05 20.9 15.1 21.7 20.85 22.2 29.6 23.05 23.85 25.0 17.65 25.7 20.8 27.2 24.55 28.25 21.55 29.1 18.5 29.8 16.75 31.0 15.25 32.8 17.95 33.4 20.3 33.85 22.2 34.15 25.5 34.45 27.75 35.25 L32.25 36.3 Q29.45 38.2 33.55 39.05 31.2 40.35 41.15 40.25 41.95 41.1 47.05 41.05 43.05 42.95 45.6 44.3 48.45 45.75 54.0 45.95 58.65 46.1 64.2 47.35 70.25 48.6 68.9 49.45 66.85 50.3 70.95 49.25 76.0 48.15 79.9 48.05 L90.5 47.25 Q96.1 46.85 99.25 46.15 105.25 45.9 106.95 43.6 107.15 42.45 108.8 40.45 113.35 39.55 110.8 38.0 121.45 36.1 119.65 34.55 120.65 33.85 118.15 33.65 123.75 32.45 123.1 31.8 127.0 30.65 125.45 29.75 124.6 29.05 122.0 28.35 120.1 27.9 121.9 27.1 123.7 26.3 130.0 24.45 136.3 22.6 136.6 21.1 136.8 19.5 129.9 18.95 126.0 18.4 123.3 18.45 L122.4 18.5 121.9 18.3 Q124.75 16.85 122.35 15.55 125.1 14.8 120.85 14.2 118.8 13.7 116.05 13.65 117.0 10.65 110.9 8.85 100.25 5.05 80.85 4.0 66.25 2.95 44.35 5.1 25.35 7.15 17.95 10.25 10.05 11.9 11.5 12.7 12.95 13.45 19.0 14.15 24.9 14.75 21.95 15.0 19.15 15.05 16.45 15.2 L7.85 15.95 4.85 16.3 Q4.25 17.35 4.8 18.45" fill="#96e0bc" fill-opacity="0.7058824" fill-rule="evenodd" stroke="none"/>
      <path d="M4.8 18.45 Q4.25 17.35 4.85 16.3 L7.85 15.95 16.45 15.2 Q19.15 15.05 21.95 15.0 24.9 14.75 19.0 14.15 12.95 13.45 11.5 12.7 10.05 11.9 17.95 10.25 25.35 7.15 44.35 5.1 66.25 2.95 80.85 4.0 100.25 5.05 110.9 8.85 117.0 10.65 116.05 13.65 118.8 13.7 120.85 14.2 125.1 14.8 122.35 15.55 124.75 16.85 121.9 18.3 L122.4 18.5 123.3 18.45 Q126.0 18.4 129.9 18.95 136.8 19.5 136.6 21.1 136.3 22.6 130.0 24.45 123.7 26.3 121.9 27.1 120.1 27.9 122.0 28.35 124.6 29.05 125.45 29.75 127.0 30.65 123.1 31.8 123.75 32.45 118.15 33.65 120.65 33.85 119.65 34.55 121.45 36.1 110.8 38.0 113.35 39.55 108.8 40.45 107.15 42.45 106.95 43.6 105.25 45.9 99.25 46.15 96.1 46.85 90.5 47.25 L79.9 48.05 Q76.0 48.15 70.95 49.25 66.85 50.3 68.9 49.45 70.25 48.6 64.2 47.35 58.65 46.1 54.0 45.95 48.45 45.75 45.6 44.3 43.05 42.95 47.05 41.05 41.95 41.1 41.15 40.25 31.2 40.35 33.55 39.05 29.45 38.2 32.25 36.3 L27.75 35.25 Q25.5 34.45 22.2 34.15 20.3 33.85 17.95 33.4 15.25 32.8 16.75 31.0 18.5 29.8 21.55 29.1 24.55 28.25 20.8 27.2 17.65 25.7 23.85 25.0 29.6 23.05 20.85 22.2 15.1 21.7 10.05 20.9 5.05 19.9 4.9 18.4" fill="none" stroke="#000000" stroke-linecap="round" stroke-linejoin="round" stroke-opacity="0.0" stroke-width="1.0"/>
    </g>
    <g id="morphshape1" transform="matrix(1.0, 0.0, 0.0, 1.0, -17.5, -9.15)">
      <path d="M119.5 23.0 Q119.5 23.75 119.95 24.45 120.7 25.5 123.55 25.25 L122.8 23.05 Q121.8 22.7 119.5 23.0 M100.65 30.35 Q100.65 30.7 101.75 31.5 L105.05 31.6 107.2 30.6 Q109.4 29.55 109.8 29.05 L108.3 27.85 104.1 27.45 Q100.65 27.65 100.65 30.35 M86.5 37.55 L86.8 38.25 Q87.55 38.65 88.75 39.0 L90.85 39.35 93.95 39.4 94.45 39.25 94.75 38.95 94.95 38.35 94.95 37.9 Q94.9 37.15 94.4 36.8 93.55 36.1 89.75 36.05 88.15 36.25 86.8 36.9 L86.55 37.5 M76.65 38.6 L76.65 38.65 77.1 39.4 Q78.25 39.7 79.55 40.0 L82.05 40.2 85.7 40.1 86.35 39.9 86.75 39.55 86.9 38.85 86.85 38.35 Q86.7 37.6 86.05 37.15 84.95 36.45 80.4 36.5 78.5 36.8 77.0 37.9 L76.6 38.65 M62.1 34.85 L62.65 35.75 69.0 36.15 Q73.05 36.15 75.9 33.9 75.9 32.0 69.85 31.85 63.6 31.75 62.1 34.85 M59.35 41.75 Q59.4 42.2 59.6 42.5 L62.65 42.5 Q63.1 42.25 63.35 40.65 L59.85 40.85 Q59.35 41.2 59.35 41.75 M49.0 36.0 L50.2 37.2 Q52.25 38.35 56.55 38.35 58.1 38.35 59.85 36.2 59.85 33.25 54.45 33.3 49.0 33.35 49.0 36.0 M28.25 28.95 Q28.3 29.55 30.95 30.95 34.3 32.45 37.95 32.4 L41.8 32.05 Q42.95 31.45 43.55 29.45 43.3 26.6 35.7 26.3 28.05 25.95 28.3 28.95 M19.2 16.3 Q19.2 16.75 19.65 17.45 L20.6 18.4 27.45 18.5 Q28.65 17.6 28.65 17.05 28.65 15.2 23.95 15.1 19.2 15.05 19.2 16.3" fill="#bef0d8" fill-opacity="0.7058824" fill-rule="evenodd" stroke="none"/>
      <path d="M19.2 16.3 Q19.2 15.05 23.95 15.1 28.65 15.2 28.65 17.05 28.65 17.6 27.45 18.5 L20.6 18.4 19.65 17.45 Q19.2 16.75 19.2 16.3 M28.3 28.95 Q28.05 25.95 35.7 26.3 43.3 26.6 43.55 29.45 42.95 31.45 41.8 32.05 L37.95 32.4 Q34.3 32.45 30.95 30.95 28.3 29.55 28.25 28.95 M49.0 36.0 Q49.0 33.35 54.45 33.3 59.85 33.25 59.85 36.2 58.1 38.35 56.55 38.35 52.25 38.35 50.2 37.2 L49.0 36.0 M59.35 41.75 Q59.35 41.2 59.85 40.85 L63.35 40.65 Q63.1 42.25 62.65 42.5 L59.6 42.5 Q59.4 42.2 59.35 41.75 M62.1 34.85 Q63.6 31.75 69.85 31.85 75.9 32.0 75.9 33.9 73.05 36.15 69.0 36.15 L62.65 35.75 62.1 34.85 M76.6 38.65 L77.0 37.9 Q78.5 36.8 80.4 36.5 84.95 36.45 86.05 37.15 86.7 37.6 86.85 38.35 L86.9 38.85 86.75 39.55 86.35 39.9 85.7 40.1 82.05 40.2 79.55 40.0 Q78.25 39.7 77.1 39.4 L76.65 38.65 76.65 38.6 M86.55 37.5 L86.8 36.9 Q88.15 36.25 89.75 36.05 93.55 36.1 94.4 36.8 94.9 37.15 94.95 37.9 L94.95 38.35 94.75 38.95 94.45 39.25 93.95 39.4 90.85 39.35 88.75 39.0 Q87.55 38.65 86.8 38.25 L86.5 37.55 M100.65 30.35 Q100.65 27.65 104.1 27.45 L108.3 27.85 109.8 29.05 Q109.4 29.55 107.2 30.6 L105.05 31.6 101.75 31.5 Q100.65 30.7 100.65 30.35 M119.5 23.0 Q121.8 22.7 122.8 23.05 L123.55 25.25 Q120.7 25.5 119.95 24.45 119.5 23.75 119.5 23.0 Z" fill="none" stroke="#000000" stroke-linecap="round" stroke-linejoin="round" stroke-opacity="0.0" stroke-width="1.0"/>
    </g>
    <g id="morphshape2" transform="matrix(1.0, 0.0, 0.0, 1.0, -37.6, -4.7)">
      <path d="M103.3 16.1 Q103.3 17.25 103.55 17.65 L104.35 18.2 Q106.65 17.5 108.15 16.95 108.85 16.45 107.8 13.4 105.4 13.6 104.35 14.25 103.3 14.85 103.3 16.1 M91.1 20.35 Q91.1 21.4 91.7 22.0 L94.75 22.2 Q95.2 21.2 94.95 19.1 L91.2 19.0 91.1 20.35 M89.6 11.0 Q89.6 12.05 90.0 12.95 L95.95 12.95 Q97.0 11.9 97.0 8.4 92.3 7.95 90.65 8.8 89.6 9.4 89.6 11.0 M81.3 20.7 Q81.35 21.65 82.1 23.5 82.75 23.95 84.3 24.1 L85.1 22.9 Q85.6 22.2 84.9 20.4 L81.3 20.7 M77.65 9.15 Q77.25 11.05 78.05 12.55 79.05 14.3 81.3 14.3 82.45 14.3 83.65 12.55 82.8 10.15 81.15 9.5 L77.65 9.15 M65.85 12.6 L65.9 14.05 66.25 14.6 71.7 15.35 75.0 15.75 Q76.75 15.75 75.65 13.3 75.65 10.25 70.75 10.1 65.85 10.0 65.85 12.6 M56.05 14.75 L56.1 15.65 56.25 15.85 Q56.45 16.15 56.75 16.2 57.35 16.35 58.4 16.5 L60.8 16.0 Q61.05 14.8 60.9 13.0 60.35 11.8 59.85 10.95 58.85 10.5 57.8 10.7 56.0 11.7 56.0 14.75 M49.5 17.95 L49.5 18.0 49.6 19.0 49.85 19.35 Q50.25 19.5 50.7 19.55 L52.75 19.7 Q54.55 19.5 56.0 19.45 56.2 18.2 55.7 15.65 54.95 14.2 54.25 13.35 53.05 12.5 51.75 12.9 49.55 14.0 49.55 18.0 M38.75 11.45 L39.85 13.55 Q41.55 15.7 44.55 15.7 48.45 15.7 48.45 12.5 48.45 9.5 43.6 8.7 38.75 7.85 38.75 11.45" fill="#bef0d8" fill-opacity="0.7058824" fill-rule="evenodd" stroke="none"/>
      <path d="M38.75 11.45 Q38.75 7.85 43.6 8.7 48.45 9.5 48.45 12.5 48.45 15.7 44.55 15.7 41.55 15.7 39.85 13.55 L38.75 11.45 M49.55 18.0 Q49.55 14.0 51.75 12.9 53.05 12.5 54.25 13.35 54.95 14.2 55.7 15.65 56.2 18.2 56.0 19.45 54.55 19.5 52.75 19.7 L50.7 19.55 Q50.25 19.5 49.85 19.35 L49.6 19.0 49.5 18.0 49.5 17.95 M56.0 14.75 Q56.0 11.7 57.8 10.7 58.85 10.5 59.85 10.95 60.35 11.8 60.9 13.0 61.05 14.8 60.8 16.0 L58.4 16.5 Q57.35 16.35 56.75 16.2 56.45 16.15 56.25 15.85 L56.1 15.65 56.05 14.75 M65.85 12.6 Q65.85 10.0 70.75 10.1 75.65 10.25 75.65 13.3 76.75 15.75 75.0 15.75 L71.7 15.35 66.25 14.6 65.9 14.05 65.85 12.6 M77.65 9.15 L81.15 9.5 Q82.8 10.15 83.65 12.55 82.45 14.3 81.3 14.3 79.05 14.3 78.05 12.55 77.25 11.05 77.65 9.15 M81.3 20.7 L84.9 20.4 Q85.6 22.2 85.1 22.9 L84.3 24.1 Q82.75 23.95 82.1 23.5 81.35 21.65 81.3 20.7 M89.6 11.0 Q89.6 9.4 90.65 8.8 92.3 7.95 97.0 8.4 97.0 11.9 95.95 12.95 L90.0 12.95 Q89.6 12.05 89.6 11.0 M91.1 20.35 L91.2 19.0 94.95 19.1 Q95.2 21.2 94.75 22.2 L91.7 22.0 Q91.1 21.4 91.1 20.35 M103.3 16.1 Q103.3 14.85 104.35 14.25 105.4 13.6 107.8 13.4 108.85 16.45 108.15 16.95 106.65 17.5 104.35 18.2 L103.55 17.65 Q103.3 17.25 103.3 16.1 Z" fill="none" stroke="#000000" stroke-linecap="round" stroke-linejoin="round" stroke-opacity="0.0" stroke-width="1.0"/>
    </g>
    <g id="morphshape3" transform="matrix(1.0, 0.0, 0.0, 1.0, -32.35, -6.65)">
      <path d="M94.85 8.65 Q94.85 9.8 95.0 10.2 L95.45 10.95 97.45 10.95 97.95 10.45 98.1 9.25 97.85 7.75 Q97.55 7.3 95.0 7.25 94.85 6.9 94.85 8.65 M69.2 12.25 Q68.95 12.6 69.5 13.5 70.0 13.9 70.65 14.25 L73.4 14.6 Q73.9 14.15 73.9 13.45 73.7 13.0 69.75 11.8 L69.2 12.25 M66.1 32.3 L66.4 34.25 Q66.6 35.3 67.05 36.15 L70.55 36.15 Q70.8 35.9 71.05 35.7 L70.65 32.6 67.1 32.05 Q66.3 32.0 66.1 32.3 M41.65 13.75 L41.85 15.1 42.2 15.6 43.75 15.65 Q44.8 15.65 45.4 15.2 45.6 15.05 45.6 13.3 45.6 12.15 45.25 11.6 L44.55 10.95 41.75 12.05 41.65 13.75 M34.1 29.2 L34.35 30.2 Q34.7 31.0 35.15 31.3 39.25 30.75 39.25 28.35 39.25 27.25 38.9 26.95 L38.05 26.6 36.3 26.85 34.45 27.0 34.1 29.2" fill="#ffffff" fill-opacity="0.7058824" fill-rule="evenodd" stroke="none"/>
      <path d="M34.1 29.2 L34.45 27.0 36.3 26.85 38.05 26.6 38.9 26.95 Q39.25 27.25 39.25 28.35 39.25 30.75 35.15 31.3 34.7 31.0 34.35 30.2 L34.1 29.2 M41.65 13.75 L41.75 12.05 44.55 10.95 45.25 11.6 Q45.6 12.15 45.6 13.3 45.6 15.05 45.4 15.2 44.8 15.65 43.75 15.65 L42.2 15.6 41.85 15.1 41.65 13.75 M66.1 32.3 Q66.3 32.0 67.1 32.05 L70.65 32.6 71.05 35.7 Q70.8 35.9 70.55 36.15 L67.05 36.15 Q66.6 35.3 66.4 34.25 L66.1 32.3 M69.2 12.25 L69.75 11.8 Q73.7 13.0 73.9 13.45 73.9 14.15 73.4 14.6 L70.65 14.25 Q70.0 13.9 69.5 13.5 68.95 12.6 69.2 12.25 M94.85 8.65 Q94.85 6.9 95.0 7.25 97.55 7.3 97.85 7.75 L98.1 9.25 97.95 10.45 97.45 10.95 95.45 10.95 95.0 10.2 Q94.85 9.8 94.85 8.65 Z" fill="none" stroke="#000000" stroke-linecap="round" stroke-linejoin="round" stroke-opacity="0.0" stroke-width="1.0"/>
    </g>
  </defs>
</svg>
