<?xml version="1.0" encoding="UTF-8" standalone="no"?>
<svg xmlns:xlink="http://www.w3.org/1999/xlink" height="47.45px" width="141.0px" xmlns="http://www.w3.org/2000/svg">
  <g transform="matrix(1.0, 0.0, 0.0, 1.0, -4.35, -2.9)">
    <use data-characterId="3192" height="47.45" transform="matrix(1.0, 0.0, 0.0, 1.0, 4.35, 2.9)" width="141.0" xlink:href="#morphshape0"/>
    <use data-characterId="3193" height="37.5" transform="matrix(1.0, 0.0, 0.0, 1.0, 17.5, 9.15)" width="116.05" xlink:href="#morphshape1"/>
    <use data-characterId="3194" height="21.8" transform="matrix(1.0, 0.0, 0.0, 1.0, 37.6, 4.7)" width="75.1" xlink:href="#morphshape2"/>
    <use data-characterId="3195" height="35.65" transform="matrix(1.0, 0.0, 0.0, 1.0, 32.35, 6.65)" width="66.65" xlink:href="#morphshape3"/>
  </g>
  <defs>
    <g id="morphshape0" transform="matrix(1.0, 0.0, 0.0, 1.0, -4.35, -2.9)">
      <path d="M4.9 18.25 Q4.95 19.75 10.55 20.8 16.2 21.7 22.65 22.2 31.8 23.0 24.55 24.8 16.85 25.5 21.2 27.05 26.05 28.2 22.4 29.05 18.7 29.7 16.45 31.0 14.45 32.8 17.45 33.4 20.15 33.85 22.0 34.15 25.05 34.5 27.3 35.2 L32.9 36.2 Q29.6 38.05 33.2 38.9 29.35 40.45 40.6 40.3 41.8 41.1 48.05 40.8 43.1 42.85 45.4 44.15 47.9 45.55 53.75 45.8 59.05 45.95 65.1 47.1 71.8 48.25 69.5 49.25 66.6 50.25 70.5 49.35 75.5 48.4 79.5 48.3 L90.9 47.55 Q97.0 47.15 100.1 46.4 105.75 46.0 106.95 43.9 106.85 42.8 108.75 40.7 112.95 39.75 109.45 38.1 121.7 36.4 120.55 34.8 121.85 33.95 118.85 33.7 123.4 32.6 122.4 32.0 127.05 30.8 125.8 29.9 125.15 29.2 122.3 28.5 120.1 28.0 120.85 27.25 121.6 26.5 129.0 24.75 136.4 23.0 137.4 21.45 138.3 19.8 131.1 19.1 126.6 18.4 123.55 18.45 L122.5 18.5 122.05 18.3 Q124.55 17.0 122.4 15.8 126.55 14.95 122.1 14.25 119.55 13.65 116.15 13.55 117.0 10.9 111.6 9.3 101.2 5.4 83.4 4.15 69.85 2.9 47.45 4.8 28.45 6.6 19.1 9.8 9.3 11.65 11.0 12.5 12.7 13.3 20.05 14.05 27.25 14.7 23.75 14.95 20.4 15.0 17.15 15.15 L8.6 15.85 4.9 16.3 Q4.35 17.25 4.8 18.2" fill="#96e0bc" fill-opacity="0.7058824" fill-rule="evenodd" stroke="none"/>
      <path d="M4.8 18.2 Q4.35 17.25 4.9 16.3 L8.6 15.85 17.15 15.15 Q20.4 15.0 23.75 14.95 27.25 14.7 20.05 14.05 12.7 13.3 11.0 12.5 9.3 11.65 19.1 9.8 28.45 6.6 47.45 4.8 69.85 2.9 83.4 4.15 101.2 5.4 111.6 9.3 117.0 10.9 116.15 13.55 119.55 13.65 122.1 14.25 126.55 14.95 122.4 15.8 124.55 17.0 122.05 18.3 L122.5 18.5 123.55 18.45 Q126.6 18.4 131.1 19.1 138.3 19.8 137.4 21.45 136.4 23.0 129.0 24.75 121.6 26.5 120.85 27.25 120.1 28.0 122.3 28.5 125.15 29.2 125.8 29.9 127.05 30.8 122.4 32.0 123.4 32.6 118.85 33.7 121.85 33.95 120.55 34.8 121.7 36.4 109.45 38.1 112.95 39.75 108.75 40.7 106.85 42.8 106.95 43.9 105.75 46.0 100.1 46.4 97.0 47.15 90.9 47.55 L79.5 48.3 Q75.5 48.4 70.5 49.35 66.6 50.25 69.5 49.25 71.8 48.25 65.1 47.1 59.05 45.95 53.75 45.8 47.9 45.55 45.4 44.15 43.1 42.85 48.05 40.8 41.8 41.1 40.6 40.3 29.35 40.45 33.2 38.9 29.6 38.05 32.9 36.2 L27.3 35.2 Q25.05 34.5 22.0 34.15 20.15 33.85 17.45 33.4 14.45 32.8 16.45 31.0 18.7 29.7 22.4 29.05 26.05 28.2 21.2 27.05 16.85 25.5 24.55 24.8 31.8 23.0 22.65 22.2 16.2 21.7 10.55 20.8 4.95 19.75 4.9 18.25" fill="none" stroke="#000000" stroke-linecap="round" stroke-linejoin="round" stroke-opacity="0.0" stroke-width="1.0"/>
    </g>
    <g id="morphshape1" transform="matrix(1.0, 0.0, 0.0, 1.0, -17.5, -9.15)">
      <path d="M120.65 22.85 Q120.65 23.6 121.1 24.3 121.85 25.35 124.7 25.1 L123.95 22.9 Q122.95 22.55 120.65 22.85 M100.9 30.75 Q100.9 31.1 102.0 31.9 L105.3 32.0 107.45 31.0 Q109.65 29.95 110.05 29.45 L108.55 28.25 104.35 27.85 Q100.9 28.05 100.9 30.75 M86.95 38.4 L86.95 38.45 87.3 39.1 Q88.15 39.5 89.35 39.85 L91.55 40.15 94.75 40.15 95.3 40.0 95.6 39.7 95.8 39.1 95.8 38.65 Q95.7 37.9 95.15 37.5 94.25 36.8 90.3 36.75 88.65 37.0 87.25 37.75 L86.95 38.4 M76.9 37.75 L77.3 38.55 Q78.35 38.85 79.65 39.15 L82.05 39.4 85.6 39.35 86.2 39.15 86.6 38.8 86.75 38.1 86.7 37.6 Q86.6 36.85 86.0 36.45 84.95 35.75 80.55 35.8 78.7 36.05 77.25 37.05 L76.9 37.75 M62.0 35.55 L62.55 36.45 68.9 36.85 Q72.95 36.85 75.8 34.6 75.8 32.7 69.75 32.55 63.5 32.45 62.0 35.55 M58.75 41.65 Q58.8 42.1 59.0 42.4 L62.05 42.4 Q62.5 42.15 62.75 40.55 L59.25 40.75 Q58.75 41.1 58.75 41.65 M49.0 35.75 L50.2 36.95 Q52.25 38.1 56.55 38.1 58.1 38.1 59.85 35.95 59.85 33.0 54.45 33.05 49.0 33.1 49.0 35.75 M28.75 29.05 Q28.85 29.65 31.5 31.0 34.85 32.35 38.5 32.35 L42.35 31.95 Q43.45 31.3 44.0 29.3 43.7 26.45 36.1 26.3 28.45 26.1 28.75 29.1 M19.6 15.65 Q19.6 16.1 20.05 16.8 L21.0 17.75 27.85 17.85 Q29.05 16.95 29.05 16.4 29.05 14.55 24.35 14.45 19.6 14.4 19.6 15.65" fill="#bef0d8" fill-opacity="0.7058824" fill-rule="evenodd" stroke="none"/>
      <path d="M19.6 15.65 Q19.6 14.4 24.35 14.45 29.05 14.55 29.05 16.4 29.05 16.95 27.85 17.85 L21.0 17.75 20.05 16.8 Q19.6 16.1 19.6 15.65 M28.75 29.1 Q28.45 26.1 36.1 26.3 43.7 26.45 44.0 29.3 43.45 31.3 42.35 31.95 L38.5 32.35 Q34.85 32.35 31.5 31.0 28.85 29.65 28.75 29.05 M49.0 35.75 Q49.0 33.1 54.45 33.05 59.85 33.0 59.85 35.95 58.1 38.1 56.55 38.1 52.25 38.1 50.2 36.95 L49.0 35.75 M58.75 41.65 Q58.75 41.1 59.25 40.75 L62.75 40.55 Q62.5 42.15 62.05 42.4 L59.0 42.4 Q58.8 42.1 58.75 41.65 M62.0 35.55 Q63.5 32.45 69.75 32.55 75.8 32.7 75.8 34.6 72.95 36.85 68.9 36.85 L62.55 36.45 62.0 35.55 M76.9 37.75 L77.25 37.05 Q78.7 36.05 80.55 35.8 84.95 35.75 86.0 36.45 86.6 36.85 86.7 37.6 L86.75 38.1 86.6 38.8 86.2 39.15 85.6 39.35 82.05 39.4 79.65 39.15 Q78.35 38.85 77.3 38.55 L76.9 37.75 M86.95 38.4 L87.25 37.75 Q88.65 37.0 90.3 36.75 94.25 36.8 95.15 37.5 95.7 37.9 95.8 38.65 L95.8 39.1 95.6 39.7 95.3 40.0 94.75 40.15 91.55 40.15 89.35 39.85 Q88.15 39.5 87.3 39.1 L86.95 38.45 86.95 38.4 M100.9 30.75 Q100.9 28.05 104.35 27.85 L108.55 28.25 110.05 29.45 Q109.65 29.95 107.45 31.0 L105.3 32.0 102.0 31.9 Q100.9 31.1 100.9 30.75 M120.65 22.85 Q122.95 22.55 123.95 22.9 L124.7 25.1 Q121.85 25.35 121.1 24.3 120.65 23.6 120.65 22.85 Z" fill="none" stroke="#000000" stroke-linecap="round" stroke-linejoin="round" stroke-opacity="0.0" stroke-width="1.0"/>
    </g>
    <g id="morphshape2" transform="matrix(1.0, 0.0, 0.0, 1.0, -37.6, -4.7)">
      <path d="M103.8 16.45 Q103.8 17.6 104.05 18.0 L104.85 18.55 Q107.25 17.85 108.65 17.3 109.35 16.8 108.3 13.75 105.9 13.95 104.85 14.6 103.8 15.2 103.8 16.45 M91.45 19.9 Q91.45 20.95 92.05 21.55 L95.1 21.75 Q95.55 20.75 95.3 18.65 L91.55 18.55 91.45 19.9 M90.0 10.8 Q90.0 11.85 90.4 12.75 L96.35 12.75 Q97.4 11.7 97.4 8.2 92.7 7.75 91.05 8.6 90.0 9.2 90.0 10.8 M81.7 20.15 Q81.75 21.1 82.5 22.95 83.15 23.4 84.7 23.55 L85.5 22.35 Q86.0 21.65 85.3 19.85 L81.7 20.15 M77.4 9.85 Q77.0 11.75 77.8 13.25 78.8 15.0 81.05 15.0 82.2 15.0 83.4 13.25 82.55 10.85 80.9 10.2 L77.4 9.85 M65.6 12.2 L65.65 13.65 66.0 14.2 71.45 14.95 74.75 15.35 Q76.5 15.35 75.4 12.9 75.4 9.85 70.5 9.7 65.6 9.6 65.6 12.2 M56.1 15.85 L56.1 15.95 56.15 16.75 56.3 17.0 Q56.55 17.25 56.9 17.3 57.55 17.4 58.6 17.5 L61.2 17.05 Q61.45 15.85 61.2 13.85 60.6 12.6 60.05 11.75 59.0 11.2 57.9 11.45 56.0 12.45 56.0 15.7 M49.85 16.75 L49.95 17.75 50.2 18.05 Q50.55 18.25 50.95 18.3 L52.9 18.45 Q54.65 18.2 55.95 18.15 56.15 16.9 55.75 14.55 55.05 13.15 54.4 12.3 53.25 11.55 52.0 11.9 49.9 13.0 49.9 16.8 M39.0 11.75 L40.1 13.85 Q41.8 16.0 44.8 16.0 48.7 16.0 48.7 12.8 48.7 9.8 43.85 9.0 39.0 8.15 39.0 11.75" fill="#bef0d8" fill-opacity="0.7058824" fill-rule="evenodd" stroke="none"/>
      <path d="M39.0 11.75 Q39.0 8.15 43.85 9.0 48.7 9.8 48.7 12.8 48.7 16.0 44.8 16.0 41.8 16.0 40.1 13.85 L39.0 11.75 M49.9 16.8 Q49.9 13.0 52.0 11.9 53.25 11.55 54.4 12.3 55.05 13.15 55.75 14.55 56.15 16.9 55.95 18.15 54.65 18.2 52.9 18.45 L50.95 18.3 Q50.55 18.25 50.2 18.05 L49.95 17.75 49.85 16.75 M56.0 15.7 Q56.0 12.45 57.9 11.45 59.0 11.2 60.05 11.75 60.6 12.6 61.2 13.85 61.45 15.85 61.2 17.05 L58.6 17.5 Q57.55 17.4 56.9 17.3 56.55 17.25 56.3 17.0 L56.15 16.75 56.1 15.95 56.1 15.85 M65.6 12.2 Q65.6 9.6 70.5 9.7 75.4 9.85 75.4 12.9 76.5 15.35 74.75 15.35 L71.45 14.95 66.0 14.2 65.65 13.65 65.6 12.2 M77.4 9.85 L80.9 10.2 Q82.55 10.85 83.4 13.25 82.2 15.0 81.05 15.0 78.8 15.0 77.8 13.25 77.0 11.75 77.4 9.85 M81.7 20.15 L85.3 19.85 Q86.0 21.65 85.5 22.35 L84.7 23.55 Q83.15 23.4 82.5 22.95 81.75 21.1 81.7 20.15 M90.0 10.8 Q90.0 9.2 91.05 8.6 92.7 7.75 97.4 8.2 97.4 11.7 96.35 12.75 L90.4 12.75 Q90.0 11.85 90.0 10.8 M91.45 19.9 L91.55 18.55 95.3 18.65 Q95.55 20.75 95.1 21.75 L92.05 21.55 Q91.45 20.95 91.45 19.9 M103.8 16.45 Q103.8 15.2 104.85 14.6 105.9 13.95 108.3 13.75 109.35 16.8 108.65 17.3 107.25 17.85 104.85 18.55 L104.05 18.0 Q103.8 17.6 103.8 16.45 Z" fill="none" stroke="#000000" stroke-linecap="round" stroke-linejoin="round" stroke-opacity="0.0" stroke-width="1.0"/>
    </g>
    <g id="morphshape3" transform="matrix(1.0, 0.0, 0.0, 1.0, -32.35, -6.65)">
      <path d="M92.35 9.8 Q92.35 10.95 92.5 11.35 L92.95 12.1 94.95 12.1 95.45 11.6 95.6 10.4 95.35 8.9 Q95.05 8.45 92.5 8.4 92.35 8.05 92.35 9.8 M69.05 12.3 Q68.9 12.7 69.65 13.35 70.15 13.55 70.9 13.65 72.2 13.6 73.55 13.15 73.9 12.6 73.7 11.95 72.3 11.95 69.4 11.65 L69.05 12.25 M66.05 32.3 L66.35 34.25 Q66.55 35.3 67.0 36.15 L70.5 36.15 Q70.75 35.9 71.0 35.7 L70.6 32.6 67.05 32.05 Q66.25 32.0 66.05 32.3 M42.0 13.95 L42.2 15.3 42.55 15.8 44.1 15.85 Q45.15 15.85 45.75 15.4 45.95 15.25 45.95 13.5 45.95 12.35 45.6 11.8 L44.9 11.15 42.1 12.25 42.0 13.95 M34.5 29.2 L34.75 30.2 Q35.1 31.0 35.55 31.3 39.65 30.75 39.65 28.35 39.65 27.25 39.3 26.95 L38.45 26.6 36.7 26.85 34.85 27.0 34.5 29.2" fill="#ffffff" fill-opacity="0.7058824" fill-rule="evenodd" stroke="none"/>
      <path d="M34.5 29.2 L34.85 27.0 36.7 26.85 38.45 26.6 39.3 26.95 Q39.65 27.25 39.65 28.35 39.65 30.75 35.55 31.3 35.1 31.0 34.75 30.2 L34.5 29.2 M42.0 13.95 L42.1 12.25 44.9 11.15 45.6 11.8 Q45.95 12.35 45.95 13.5 45.95 15.25 45.75 15.4 45.15 15.85 44.1 15.85 L42.55 15.8 42.2 15.3 42.0 13.95 M66.05 32.3 Q66.25 32.0 67.05 32.05 L70.6 32.6 71.0 35.7 Q70.75 35.9 70.5 36.15 L67.0 36.15 Q66.55 35.3 66.35 34.25 L66.05 32.3 M69.05 12.25 L69.4 11.65 Q72.3 11.95 73.7 11.95 73.9 12.6 73.55 13.15 72.2 13.6 70.9 13.65 70.15 13.55 69.65 13.35 68.9 12.7 69.05 12.3 M92.35 9.8 Q92.35 8.05 92.5 8.4 95.05 8.45 95.35 8.9 L95.6 10.4 95.45 11.6 94.95 12.1 92.95 12.1 92.5 11.35 Q92.35 10.95 92.35 9.8 Z" fill="none" stroke="#000000" stroke-linecap="round" stroke-linejoin="round" stroke-opacity="0.0" stroke-width="1.0"/>
    </g>
  </defs>
</svg>
