<?xml version="1.0" encoding="UTF-8" standalone="no"?>
<svg xmlns:xlink="http://www.w3.org/1999/xlink" height="47.45px" width="141.0px" xmlns="http://www.w3.org/2000/svg">
  <g transform="matrix(1.0, 0.0, 0.0, 1.0, -4.35, -2.9)">
    <use data-characterId="3192" height="47.45" transform="matrix(1.0, 0.0, 0.0, 1.0, 4.35, 2.9)" width="141.0" xlink:href="#morphshape0"/>
    <use data-characterId="3193" height="37.5" transform="matrix(1.0, 0.0, 0.0, 1.0, 17.5, 9.15)" width="116.05" xlink:href="#morphshape1"/>
    <use data-characterId="3194" height="21.8" transform="matrix(1.0, 0.0, 0.0, 1.0, 37.6, 4.7)" width="75.1" xlink:href="#morphshape2"/>
    <use data-characterId="3195" height="35.65" transform="matrix(1.0, 0.0, 0.0, 1.0, 32.35, 6.65)" width="66.65" xlink:href="#morphshape3"/>
  </g>
  <defs>
    <g id="morphshape0" transform="matrix(1.0, 0.0, 0.0, 1.0, -4.35, -2.9)">
      <path d="M5.05 16.65 Q4.3 18.25 13.55 19.7 22.85 21.15 33.9 21.75 45.45 22.4 28.5 23.4 11.5 24.2 23.4 26.0 35.4 27.7 27.65 28.35 19.85 28.9 14.5 30.65 9.2 32.45 14.0 32.9 18.75 33.3 20.3 33.8 22.05 34.3 24.2 34.55 L36.65 35.2 Q30.05 36.75 30.45 37.4 17.05 40.7 36.6 40.2 40.35 40.4 53.95 38.55 43.2 41.85 43.7 42.9 44.25 43.95 52.2 44.45 61.4 44.8 70.7 45.35 81.5 45.8 73.1 48.05 64.55 50.3 67.05 50.15 71.75 50.0 76.25 50.0 L92.4 49.6 Q101.75 49.2 104.65 48.05 108.0 46.9 106.3 45.8 104.35 44.85 107.7 42.0 109.7 40.8 100.35 38.45 122.5 38.0 125.25 36.05 128.45 34.3 122.25 33.9 120.1 33.5 117.0 33.2 126.2 31.65 126.6 30.8 127.1 29.95 122.85 29.05 118.7 28.2 112.95 27.9 107.25 27.6 121.7 26.45 136.2 25.3 141.65 23.4 147.1 21.5 138.25 19.9 129.85 18.3 124.6 18.35 L122.5 18.45 122.3 18.4 Q122.45 18.05 121.75 17.7 134.75 16.25 128.9 15.0 123.35 13.75 116.0 13.55 116.15 13.0 115.15 12.7 106.3 8.35 98.6 5.6 91.6 2.85 65.95 3.2 46.85 3.55 25.2 7.2 3.45 10.55 6.8 11.7 10.15 12.8 25.7 13.75 41.25 14.65 34.5 14.85 27.7 14.95 20.95 15.05 L12.9 15.35 4.9 16.3 Q4.75 16.45 4.85 16.65" fill="#96e0bc" fill-opacity="0.7058824" fill-rule="evenodd" stroke="none"/>
      <path d="M4.85 16.65 Q4.75 16.45 4.9 16.3 L12.9 15.35 20.95 15.05 Q27.7 14.95 34.5 14.85 41.25 14.65 25.7 13.75 10.15 12.8 6.8 11.7 3.45 10.55 25.2 7.2 46.85 3.55 65.95 3.2 91.6 2.85 98.6 5.6 106.3 8.35 115.15 12.7 116.15 13.0 116.0 13.55 123.35 13.75 128.9 15.0 134.75 16.25 121.75 17.7 122.45 18.05 122.3 18.4 L122.5 18.45 124.6 18.35 Q129.85 18.3 138.25 19.9 147.1 21.5 141.65 23.4 136.2 25.3 121.7 26.45 107.25 27.6 112.95 27.9 118.7 28.2 122.85 29.05 127.1 29.95 126.6 30.8 126.2 31.65 117.0 33.2 120.1 33.5 122.25 33.9 128.45 34.3 125.25 36.05 122.5 38.0 100.35 38.45 109.7 40.8 107.7 42.0 104.35 44.85 106.3 45.8 108.0 46.9 104.65 48.05 101.75 49.2 92.4 49.6 L76.25 50.0 Q71.75 50.0 67.05 50.15 64.55 50.3 73.1 48.05 81.5 45.8 70.7 45.35 61.4 44.8 52.2 44.45 44.25 43.95 43.7 42.9 43.2 41.85 53.95 38.55 40.35 40.4 36.6 40.2 17.05 40.7 30.45 37.4 30.05 36.75 36.65 35.2 L24.2 34.55 Q22.05 34.3 20.3 33.8 18.75 33.3 14.0 32.9 9.2 32.45 14.5 30.65 19.85 28.9 27.65 28.35 35.4 27.7 23.4 26.0 11.5 24.2 28.5 23.4 45.45 22.4 33.9 21.75 22.85 21.15 13.55 19.7 4.3 18.25 5.05 16.65" fill="none" stroke="#000000" stroke-linecap="round" stroke-linejoin="round" stroke-opacity="0.0" stroke-width="1.0"/>
    </g>
    <g id="morphshape1" transform="matrix(1.0, 0.0, 0.0, 1.0, -17.5, -9.15)">
      <path d="M127.85 21.85 Q127.85 22.6 128.3 23.3 129.05 24.35 131.9 24.1 L131.15 21.9 Q130.15 21.55 127.85 21.85 M102.65 33.45 Q102.65 33.8 103.75 34.6 L107.05 34.7 109.2 33.7 Q111.4 32.65 111.8 32.15 L110.3 30.95 106.1 30.55 Q102.65 30.75 102.65 33.45 M89.6 44.05 L89.6 44.05 90.1 44.9 Q91.5 45.15 92.9 45.4 L95.65 45.5 99.7 45.3 100.45 45.05 100.9 44.65 101.05 43.85 101.0 43.35 Q100.8 42.55 100.05 42.05 98.8 41.3 93.75 41.45 91.65 41.8 90.1 43.25 L89.55 44.05 M79.0 32.35 L79.25 33.0 Q79.75 33.45 80.85 33.85 L82.7 34.3 85.4 34.45 85.8 34.35 86.05 34.1 86.25 33.6 86.25 33.15 Q86.25 32.45 85.85 32.15 85.15 31.5 81.85 31.35 80.45 31.5 79.15 31.8 L79.05 32.35 M61.4 40.15 L61.95 41.05 68.3 41.45 Q72.35 41.45 75.2 39.2 75.2 37.3 69.15 37.15 62.9 37.05 61.4 40.15 M55.1 40.85 Q55.25 41.25 55.35 41.6 L58.4 41.6 Q58.85 41.35 59.1 39.75 L55.6 39.95 Q55.1 40.3 55.1 40.85 M49.0 34.2 L50.2 35.4 Q52.25 36.55 56.55 36.55 58.1 36.55 59.85 34.4 59.85 31.45 54.45 31.5 49.0 31.55 49.0 34.2 M31.55 30.05 Q31.75 30.6 34.55 31.65 38.1 32.0 41.7 32.1 L45.45 31.2 Q46.45 30.4 46.75 28.3 46.1 25.5 38.5 26.35 30.85 27.15 31.5 30.1 M22.1 11.3 Q22.1 11.75 22.55 12.45 L23.5 13.4 30.35 13.5 Q31.55 12.6 31.55 12.05 31.55 10.2 26.85 10.1 22.1 10.05 22.1 11.3" fill="#bef0d8" fill-opacity="0.7058824" fill-rule="evenodd" stroke="none"/>
      <path d="M22.1 11.3 Q22.1 10.05 26.85 10.1 31.55 10.2 31.55 12.05 31.55 12.6 30.35 13.5 L23.5 13.4 22.55 12.45 Q22.1 11.75 22.1 11.3 M31.5 30.1 Q30.85 27.15 38.5 26.35 46.1 25.5 46.75 28.3 46.45 30.4 45.45 31.2 L41.7 32.1 Q38.1 32.0 34.55 31.65 31.75 30.6 31.55 30.05 M49.0 34.2 Q49.0 31.55 54.45 31.5 59.85 31.45 59.85 34.4 58.1 36.55 56.55 36.55 52.25 36.55 50.2 35.4 L49.0 34.2 M55.1 40.85 Q55.1 40.3 55.6 39.95 L59.1 39.75 Q58.85 41.35 58.4 41.6 L55.35 41.6 Q55.25 41.25 55.1 40.85 M61.4 40.15 Q62.9 37.05 69.15 37.15 75.2 37.3 75.2 39.2 72.35 41.45 68.3 41.45 L61.95 41.05 61.4 40.15 M79.05 32.35 L79.15 31.8 Q80.45 31.5 81.85 31.35 85.15 31.5 85.85 32.15 86.25 32.45 86.25 33.15 L86.25 33.6 86.05 34.1 85.8 34.35 85.4 34.45 82.7 34.3 80.85 33.85 Q79.75 33.45 79.25 33.0 L79.0 32.35 M89.55 44.05 L90.1 43.25 Q91.65 41.8 93.75 41.45 98.8 41.3 100.05 42.05 100.8 42.55 101.0 43.35 L101.05 43.85 100.9 44.65 100.45 45.05 99.7 45.3 95.65 45.5 92.9 45.4 Q91.5 45.15 90.1 44.9 L89.6 44.05 89.6 44.05 M102.65 33.45 Q102.65 30.75 106.1 30.55 L110.3 30.95 111.8 32.15 Q111.4 32.65 109.2 33.7 L107.05 34.7 103.75 34.6 Q102.65 33.8 102.65 33.45 M127.85 21.85 Q130.15 21.55 131.15 21.9 L131.9 24.1 Q129.05 24.35 128.3 23.3 127.85 22.6 127.85 21.85 Z" fill="none" stroke="#000000" stroke-linecap="round" stroke-linejoin="round" stroke-opacity="0.0" stroke-width="1.0"/>
    </g>
    <g id="morphshape2" transform="matrix(1.0, 0.0, 0.0, 1.0, -37.6, -4.7)">
      <path d="M106.85 18.75 Q106.85 19.9 107.1 20.3 L107.9 20.85 Q110.85 20.05 111.7 19.6 112.4 19.1 111.35 16.05 108.95 16.25 107.9 16.9 106.85 17.5 106.85 18.75 M93.75 17.15 Q93.75 18.2 94.35 18.8 L97.4 19.0 Q97.85 18.0 97.6 15.9 L93.85 15.8 93.75 17.15 M92.55 9.3 Q92.55 10.35 92.95 11.25 L98.9 11.25 Q99.95 10.2 99.95 6.7 95.25 6.25 93.6 7.1 92.55 7.7 92.55 9.3 M84.2 16.75 Q84.25 17.7 85.0 19.55 85.65 20.0 87.2 20.15 L88.0 18.95 Q88.5 18.25 87.8 16.45 L84.2 16.75 M75.75 14.15 Q75.35 16.05 76.15 17.55 77.15 19.3 79.4 19.3 80.55 19.3 81.75 17.55 80.9 15.15 79.25 14.5 L75.75 14.15 M64.2 9.65 L64.25 11.1 64.6 11.65 70.05 12.4 73.35 12.8 Q75.1 12.8 74.0 10.35 74.0 7.3 69.1 7.15 64.2 7.05 64.2 9.65 M56.15 21.9 L56.15 21.9 56.25 23.05 56.6 23.45 Q57.1 23.5 57.6 23.5 58.75 23.5 59.95 23.5 L63.75 23.4 Q63.95 22.1 63.2 19.1 62.3 17.45 61.45 16.6 60.1 15.45 58.6 16.0 56.15 17.15 56.15 21.8 M52.2 9.45 L52.25 10.2 52.3 10.35 Q52.4 10.75 52.65 10.85 L54.0 11.2 Q55.4 10.6 55.85 10.5 56.1 9.35 56.2 8.0 55.8 7.0 55.45 6.15 54.6 6.0 53.75 6.05 52.2 7.0 52.2 9.4 M40.7 13.65 L41.8 15.75 Q43.5 17.9 46.5 17.9 50.4 17.9 50.4 14.7 50.4 11.7 45.55 10.9 40.7 10.05 40.7 13.65" fill="#bef0d8" fill-opacity="0.7058824" fill-rule="evenodd" stroke="none"/>
      <path d="M40.7 13.65 Q40.7 10.05 45.55 10.9 50.4 11.7 50.4 14.7 50.4 17.9 46.5 17.9 43.5 17.9 41.8 15.75 L40.7 13.65 M52.2 9.4 Q52.2 7.0 53.75 6.05 54.6 6.0 55.45 6.15 55.8 7.0 56.2 8.0 56.1 9.35 55.85 10.5 55.4 10.6 54.0 11.2 L52.65 10.85 Q52.4 10.75 52.3 10.35 L52.25 10.2 52.2 9.45 M56.15 21.8 Q56.15 17.15 58.6 16.0 60.1 15.45 61.45 16.6 62.3 17.45 63.2 19.1 63.95 22.1 63.75 23.4 L59.95 23.5 Q58.75 23.5 57.6 23.5 57.1 23.5 56.6 23.45 L56.25 23.05 56.15 21.9 56.15 21.9 M64.2 9.65 Q64.2 7.05 69.1 7.15 74.0 7.3 74.0 10.35 75.1 12.8 73.35 12.8 L70.05 12.4 64.6 11.65 64.25 11.1 64.2 9.65 M75.75 14.15 L79.25 14.5 Q80.9 15.15 81.75 17.55 80.55 19.3 79.4 19.3 77.15 19.3 76.15 17.55 75.35 16.05 75.75 14.15 M84.2 16.75 L87.8 16.45 Q88.5 18.25 88.0 18.95 L87.2 20.15 Q85.65 20.0 85.0 19.55 84.25 17.7 84.2 16.75 M92.55 9.3 Q92.55 7.7 93.6 7.1 95.25 6.25 99.95 6.7 99.95 10.2 98.9 11.25 L92.95 11.25 Q92.55 10.35 92.55 9.3 M93.75 17.15 L93.85 15.8 97.6 15.9 Q97.85 18.0 97.4 19.0 L94.35 18.8 Q93.75 18.2 93.75 17.15 M106.85 18.75 Q106.85 17.5 107.9 16.9 108.95 16.25 111.35 16.05 112.4 19.1 111.7 19.6 110.85 20.05 107.9 20.85 L107.1 20.3 Q106.85 19.9 106.85 18.75 Z" fill="none" stroke="#000000" stroke-linecap="round" stroke-linejoin="round" stroke-opacity="0.0" stroke-width="1.0"/>
    </g>
    <g id="morphshape3" transform="matrix(1.0, 0.0, 0.0, 1.0, -32.35, -6.65)">
      <path d="M95.15 8.4 Q95.15 9.55 95.3 9.95 L95.75 10.7 97.75 10.7 98.25 10.2 98.4 9.0 98.15 7.5 Q97.85 7.05 95.3 7.0 95.15 6.65 95.15 8.4 M68.55 9.6 Q68.3 9.95 68.9 10.8 69.2 11.2 70.05 11.45 71.45 11.6 72.8 11.65 73.25 11.2 73.2 10.5 72.8 10.15 69.05 9.1 L68.55 9.6 M65.8 37.3 L66.1 39.25 Q66.3 40.3 66.75 41.15 L70.25 41.15 Q70.45 40.85 70.75 40.7 L70.35 37.6 66.8 37.05 Q66.0 37.0 65.8 37.3 M44.15 15.1 L44.35 16.45 44.7 16.95 46.25 17.0 Q47.3 17.0 47.9 16.55 48.1 16.4 48.1 14.65 48.1 13.5 47.75 12.95 L47.05 12.3 44.25 13.4 44.15 15.1 M37.0 29.2 L37.25 30.2 Q37.6 31.0 38.05 31.3 42.15 30.75 42.15 28.35 42.15 27.25 41.8 26.95 L40.95 26.6 39.2 26.85 37.35 27.0 37.0 29.2" fill="#ffffff" fill-opacity="0.7058824" fill-rule="evenodd" stroke="none"/>
      <path d="M37.0 29.2 L37.35 27.0 39.2 26.85 40.95 26.6 41.8 26.95 Q42.15 27.25 42.15 28.35 42.15 30.75 38.05 31.3 37.6 31.0 37.25 30.2 L37.0 29.2 M44.15 15.1 L44.25 13.4 47.05 12.3 47.75 12.95 Q48.1 13.5 48.1 14.65 48.1 16.4 47.9 16.55 47.3 17.0 46.25 17.0 L44.7 16.95 44.35 16.45 44.15 15.1 M65.8 37.3 Q66.0 37.0 66.8 37.05 L70.35 37.6 70.75 40.7 Q70.45 40.85 70.25 41.15 L66.75 41.15 Q66.3 40.3 66.1 39.25 L65.8 37.3 M68.55 9.6 L69.05 9.1 Q72.8 10.15 73.2 10.5 73.25 11.2 72.8 11.65 71.45 11.6 70.05 11.45 69.2 11.2 68.9 10.8 68.3 9.95 68.55 9.6 M95.15 8.4 Q95.15 6.65 95.3 7.0 97.85 7.05 98.15 7.5 L98.4 9.0 98.25 10.2 97.75 10.7 95.75 10.7 95.3 9.95 Q95.15 9.55 95.15 8.4 Z" fill="none" stroke="#000000" stroke-linecap="round" stroke-linejoin="round" stroke-opacity="0.0" stroke-width="1.0"/>
    </g>
  </defs>
</svg>
