<?xml version="1.0" encoding="UTF-8" standalone="no"?>
<svg xmlns:xlink="http://www.w3.org/1999/xlink" height="47.45px" width="141.0px" xmlns="http://www.w3.org/2000/svg">
  <g transform="matrix(1.0, 0.0, 0.0, 1.0, -4.35, -2.9)">
    <use data-characterId="3188" height="47.45" transform="matrix(1.0, 0.0, 0.0, 1.0, 4.35, 2.9)" width="141.0" xlink:href="#morphshape0"/>
    <use data-characterId="3189" height="37.5" transform="matrix(1.0, 0.0, 0.0, 1.0, 17.5, 9.15)" width="116.05" xlink:href="#morphshape1"/>
    <use data-characterId="3190" height="21.8" transform="matrix(1.0, 0.0, 0.0, 1.0, 37.6, 4.7)" width="75.1" xlink:href="#morphshape2"/>
    <use data-characterId="3191" height="35.65" transform="matrix(1.0, 0.0, 0.0, 1.0, 32.35, 6.65)" width="66.65" xlink:href="#morphshape3"/>
  </g>
  <defs>
    <g id="morphshape0" transform="matrix(1.0, 0.0, 0.0, 1.0, -4.35, -2.9)">
      <path d="M4.95 16.35 Q4.15 17.95 13.8 19.45 23.45 20.95 35.0 21.6 46.8 22.2 28.85 23.1 10.85 23.9 23.55 25.7 36.3 27.5 28.15 28.1 19.95 28.65 14.25 30.45 8.6 32.25 13.6 32.65 18.55 33.05 20.1 33.6 21.7 34.15 23.8 34.35 L36.95 34.95 Q30.0 36.45 30.05 37.05 15.65 40.55 36.05 40.05 40.05 40.2 54.4 38.2 43.05 41.6 43.35 42.65 43.7 43.7 51.85 44.2 61.5 44.6 71.15 45.1 82.35 45.5 73.35 47.85 64.25 50.2 66.6 50.1 71.3 50.05 75.85 50.1 L92.5 49.7 Q102.2 49.3 105.1 48.1 108.25 46.9 106.25 45.95 104.1 45.05 107.6 42.15 109.35 40.95 99.4 38.55 122.6 38.25 125.8 36.3 129.2 34.45 122.7 34.0 119.85 33.65 116.5 33.35 126.2 31.75 126.8 30.9 127.4 30.0 123.0 29.05 118.65 28.15 112.25 27.9 105.9 27.65 121.1 26.55 136.35 25.45 142.25 23.55 148.15 21.65 139.1 19.95 130.3 18.25 124.8 18.3 L122.6 18.4 122.4 18.4 Q122.35 18.15 121.8 17.9 135.75 16.4 129.75 15.1 123.9 13.8 116.15 13.6 116.25 13.3 115.7 13.15 107.0 8.75 100.35 5.85 94.05 2.95 68.05 3.15 48.9 3.35 26.0 7.05 3.0 10.55 6.5 11.7 10.0 12.8 26.4 13.75 42.8 14.65 35.7 14.85 28.5 14.95 21.35 15.05 L13.35 15.3 4.9 16.3 Q4.8 16.4 4.85 16.5" fill="#96e0bc" fill-opacity="0.7058824" fill-rule="evenodd" stroke="none"/>
      <path d="M4.85 16.5 Q4.8 16.4 4.9 16.3 L13.35 15.3 21.35 15.05 Q28.5 14.95 35.7 14.85 42.8 14.65 26.4 13.75 10.0 12.8 6.5 11.7 3.0 10.55 26.0 7.05 48.9 3.35 68.05 3.15 94.05 2.95 100.35 5.85 107.0 8.75 115.7 13.15 116.25 13.3 116.15 13.6 123.9 13.8 129.75 15.1 135.75 16.4 121.8 17.9 122.35 18.15 122.4 18.4 L122.6 18.4 124.8 18.3 Q130.3 18.25 139.1 19.95 148.15 21.65 142.25 23.55 136.35 25.45 121.1 26.55 105.9 27.65 112.25 27.9 118.65 28.15 123.0 29.05 127.4 30.0 126.8 30.9 126.2 31.75 116.5 33.35 119.85 33.65 122.7 34.0 129.2 34.45 125.8 36.3 122.6 38.25 99.4 38.55 109.35 40.95 107.6 42.15 104.1 45.05 106.25 45.95 108.25 46.9 105.1 48.1 102.2 49.3 92.5 49.7 L75.85 50.1 Q71.3 50.05 66.6 50.1 64.25 50.2 73.35 47.85 82.35 45.5 71.15 45.1 61.5 44.6 51.85 44.2 43.7 43.7 43.35 42.65 43.05 41.6 54.4 38.2 40.05 40.2 36.05 40.05 15.65 40.55 30.05 37.05 30.0 36.45 36.95 34.95 L23.8 34.35 Q21.7 34.15 20.1 33.6 18.55 33.05 13.6 32.65 8.6 32.25 14.25 30.45 19.95 28.65 28.15 28.1 36.3 27.5 23.55 25.7 10.85 23.9 28.85 23.1 46.8 22.2 35.0 21.6 23.45 20.95 13.8 19.45 4.15 17.95 4.95 16.35" fill="none" stroke="#000000" stroke-linecap="round" stroke-linejoin="round" stroke-opacity="0.0" stroke-width="1.0"/>
    </g>
    <g id="morphshape1" transform="matrix(1.0, 0.0, 0.0, 1.0, -17.5, -9.15)">
      <path d="M128.65 21.75 Q128.65 22.5 129.1 23.2 129.85 24.25 132.7 24.0 L131.95 21.8 Q130.95 21.45 128.65 21.75 M102.85 33.75 Q102.85 34.1 103.95 34.9 L107.25 35.0 109.4 34.0 Q111.6 32.95 112.0 32.45 L110.5 31.25 106.3 30.85 Q102.85 31.05 102.85 33.75 M89.75 44.6 L90.3 45.5 Q91.75 45.7 93.2 45.9 L96.0 46.0 100.15 45.8 100.9 45.55 101.4 45.1 101.55 44.25 101.5 43.75 Q101.3 42.95 100.55 42.45 99.3 41.7 94.15 41.9 92.0 42.25 90.4 43.75 L89.85 44.6 M79.4 31.75 L79.4 31.85 79.6 32.35 Q80.05 32.85 81.1 33.3 L82.9 33.75 85.5 33.9 85.9 33.8 86.1 33.6 86.3 33.15 86.3 32.7 Q86.3 32.0 85.9 31.7 85.2 31.05 82.0 30.85 80.65 31.0 79.4 31.25 L79.3 31.75 M61.35 40.65 L61.9 41.55 68.25 41.95 Q72.3 41.95 75.15 39.7 75.15 37.8 69.1 37.65 62.85 37.55 61.35 40.65 M54.75 40.8 Q54.9 41.2 55.0 41.55 L58.05 41.55 Q58.5 41.3 58.75 39.7 L55.25 39.9 Q54.75 40.25 54.75 40.8 M49.0 34.05 L50.2 35.25 Q52.25 36.4 56.55 36.4 58.1 36.4 59.85 34.25 59.85 31.3 54.45 31.35 49.0 31.4 49.0 34.05 M31.7 30.2 Q31.9 30.75 34.75 31.75 38.35 32.0 41.95 32.1 L45.7 31.15 Q46.7 30.3 47.0 28.2 46.3 25.4 38.7 26.35 31.05 27.25 31.75 30.2 M22.35 10.85 Q22.35 11.3 22.8 12.0 L23.75 12.95 30.6 13.05 Q31.8 12.15 31.8 11.6 31.8 9.75 27.1 9.65 22.35 9.6 22.35 10.85" fill="#bef0d8" fill-opacity="0.7058824" fill-rule="evenodd" stroke="none"/>
      <path d="M22.35 10.85 Q22.35 9.6 27.1 9.65 31.8 9.75 31.8 11.6 31.8 12.15 30.6 13.05 L23.75 12.95 22.8 12.0 Q22.35 11.3 22.35 10.85 M31.75 30.2 Q31.05 27.25 38.7 26.35 46.3 25.4 47.0 28.2 46.7 30.3 45.7 31.15 L41.95 32.1 Q38.35 32.0 34.75 31.75 31.9 30.75 31.7 30.2 M49.0 34.05 Q49.0 31.4 54.45 31.35 59.85 31.3 59.85 34.25 58.1 36.4 56.55 36.4 52.25 36.4 50.2 35.25 L49.0 34.05 M54.75 40.8 Q54.75 40.25 55.25 39.9 L58.75 39.7 Q58.5 41.3 58.05 41.55 L55.0 41.55 Q54.9 41.2 54.75 40.8 M61.35 40.65 Q62.85 37.55 69.1 37.65 75.15 37.8 75.15 39.7 72.3 41.95 68.25 41.95 L61.9 41.55 61.35 40.65 M79.3 31.75 L79.4 31.25 Q80.65 31.0 82.0 30.85 85.2 31.05 85.9 31.7 86.3 32.0 86.3 32.7 L86.3 33.15 86.1 33.6 85.9 33.8 85.5 33.9 82.9 33.75 81.1 33.3 Q80.05 32.85 79.6 32.35 L79.4 31.85 79.4 31.75 M89.85 44.6 L90.4 43.75 Q92.0 42.25 94.15 41.9 99.3 41.7 100.55 42.45 101.3 42.95 101.5 43.75 L101.55 44.25 101.4 45.1 100.9 45.55 100.15 45.8 96.0 46.0 93.2 45.9 Q91.75 45.7 90.3 45.5 L89.75 44.6 M102.85 33.75 Q102.85 31.05 106.3 30.85 L110.5 31.25 112.0 32.45 Q111.6 32.95 109.4 34.0 L107.25 35.0 103.95 34.9 Q102.85 34.1 102.85 33.75 M128.65 21.75 Q130.95 21.45 131.95 21.8 L132.7 24.0 Q129.85 24.25 129.1 23.2 128.65 22.5 128.65 21.75 Z" fill="none" stroke="#000000" stroke-linecap="round" stroke-linejoin="round" stroke-opacity="0.0" stroke-width="1.0"/>
    </g>
    <g id="morphshape2" transform="matrix(1.0, 0.0, 0.0, 1.0, -37.6, -4.7)">
      <path d="M107.2 18.95 Q107.2 20.1 107.45 20.5 L108.25 21.05 Q111.3 20.25 112.05 19.8 112.75 19.3 111.7 16.25 109.3 16.45 108.25 17.1 107.2 17.7 107.2 18.95 M93.95 16.85 Q93.95 17.9 94.55 18.5 L97.6 18.7 Q98.05 17.7 97.8 15.6 L94.05 15.5 93.95 16.85 M92.8 9.15 Q92.8 10.2 93.2 11.1 L99.15 11.1 Q100.2 10.05 100.2 6.55 95.5 6.1 93.85 6.95 92.8 7.55 92.8 9.15 M84.45 16.35 Q84.5 17.3 85.25 19.15 85.9 19.6 87.45 19.75 L88.25 18.55 Q88.75 17.85 88.05 16.05 L84.45 16.35 M75.6 14.6 Q75.2 16.5 76.0 18.0 77.0 19.75 79.25 19.75 80.4 19.75 81.6 18.0 80.75 15.6 79.1 14.95 L75.6 14.6 M64.0 9.4 L64.05 10.85 64.4 11.4 69.85 12.15 73.15 12.55 Q74.9 12.55 73.8 10.1 73.8 7.05 68.9 6.9 64.0 6.8 64.0 9.4 M56.15 22.45 L56.25 23.65 56.65 24.1 Q57.15 24.15 57.7 24.15 58.9 24.15 60.15 24.15 L64.1 24.1 Q64.3 22.8 63.5 19.65 62.55 17.95 61.65 17.1 60.3 15.9 58.75 16.45 56.2 17.65 56.2 22.45 M52.4 8.6 L52.4 8.8 52.45 9.35 52.45 9.45 Q52.55 9.85 52.75 9.95 L54.05 10.35 Q55.4 9.75 55.75 9.65 56.0 8.5 56.15 7.3 55.8 6.35 55.5 5.5 54.65 5.4 53.85 5.45 52.4 6.35 52.4 8.6 M40.85 13.85 L41.95 15.95 Q43.65 18.1 46.65 18.1 50.55 18.1 50.55 14.9 50.55 11.9 45.7 11.1 40.85 10.25 40.85 13.85" fill="#bef0d8" fill-opacity="0.7058824" fill-rule="evenodd" stroke="none"/>
      <path d="M40.85 13.85 Q40.85 10.25 45.7 11.1 50.55 11.9 50.55 14.9 50.55 18.1 46.65 18.1 43.65 18.1 41.95 15.95 L40.85 13.85 M52.4 8.6 Q52.4 6.35 53.85 5.45 54.65 5.4 55.5 5.5 55.8 6.35 56.15 7.3 56.0 8.5 55.75 9.65 55.4 9.75 54.05 10.35 L52.75 9.95 Q52.55 9.85 52.45 9.45 L52.45 9.35 52.4 8.8 52.4 8.6 M56.2 22.45 Q56.2 17.65 58.75 16.45 60.3 15.9 61.65 17.1 62.55 17.95 63.5 19.65 64.3 22.8 64.1 24.1 L60.15 24.15 Q58.9 24.15 57.7 24.15 57.15 24.15 56.65 24.1 L56.25 23.65 56.15 22.45 M64.0 9.4 Q64.0 6.8 68.9 6.9 73.8 7.05 73.8 10.1 74.9 12.55 73.15 12.55 L69.85 12.15 64.4 11.4 64.05 10.85 64.0 9.4 M75.6 14.6 L79.1 14.95 Q80.75 15.6 81.6 18.0 80.4 19.75 79.25 19.75 77.0 19.75 76.0 18.0 75.2 16.5 75.6 14.6 M84.45 16.35 L88.05 16.05 Q88.75 17.85 88.25 18.55 L87.45 19.75 Q85.9 19.6 85.25 19.15 84.5 17.3 84.45 16.35 M92.8 9.15 Q92.8 7.55 93.85 6.95 95.5 6.1 100.2 6.55 100.2 10.05 99.15 11.1 L93.2 11.1 Q92.8 10.2 92.8 9.15 M93.95 16.85 L94.05 15.5 97.8 15.6 Q98.05 17.7 97.6 18.7 L94.55 18.5 Q93.95 17.9 93.95 16.85 M107.2 18.95 Q107.2 17.7 108.25 17.1 109.3 16.45 111.7 16.25 112.75 19.3 112.05 19.8 111.3 20.25 108.25 21.05 L107.45 20.5 Q107.2 20.1 107.2 18.95 Z" fill="none" stroke="#000000" stroke-linecap="round" stroke-linejoin="round" stroke-opacity="0.0" stroke-width="1.0"/>
    </g>
    <g id="morphshape3" transform="matrix(1.0, 0.0, 0.0, 1.0, -32.35, -6.65)">
      <path d="M95.65 8.15 Q95.65 9.3 95.8 9.7 L96.25 10.45 98.25 10.45 98.75 9.95 98.9 8.75 98.65 7.25 Q98.35 6.8 95.8 6.75 95.65 6.4 95.65 8.15 M68.5 9.3 Q68.25 9.65 68.8 10.55 69.05 11.0 69.95 11.3 L72.7 11.65 Q73.2 11.2 73.2 10.5 73.0 10.05 69.05 8.85 L68.5 9.3 M65.8 37.9 L66.1 39.85 Q66.3 40.9 66.75 41.75 L70.25 41.75 Q70.45 41.45 70.75 41.3 L70.35 38.2 66.8 37.65 Q66.0 37.6 65.8 37.9 M44.4 15.2 L44.6 16.55 44.95 17.05 46.5 17.1 Q47.55 17.1 48.15 16.65 48.35 16.5 48.35 14.75 48.35 13.6 48.0 13.05 L47.3 12.4 44.5 13.5 44.4 15.2 M37.25 29.2 L37.5 30.2 Q37.85 31.0 38.3 31.3 42.4 30.75 42.4 28.35 42.4 27.25 42.05 26.95 L41.2 26.6 39.45 26.85 37.6 27.0 37.25 29.2" fill="#ffffff" fill-opacity="0.7058824" fill-rule="evenodd" stroke="none"/>
      <path d="M37.25 29.2 L37.6 27.0 39.45 26.85 41.2 26.6 42.05 26.95 Q42.4 27.25 42.4 28.35 42.4 30.75 38.3 31.3 37.85 31.0 37.5 30.2 L37.25 29.2 M44.4 15.2 L44.5 13.5 47.3 12.4 48.0 13.05 Q48.35 13.6 48.35 14.75 48.35 16.5 48.15 16.65 47.55 17.1 46.5 17.1 L44.95 17.05 44.6 16.55 44.4 15.2 M65.8 37.9 Q66.0 37.6 66.8 37.65 L70.35 38.2 70.75 41.3 Q70.45 41.45 70.25 41.75 L66.75 41.75 Q66.3 40.9 66.1 39.85 L65.8 37.9 M68.5 9.3 L69.05 8.85 Q73.0 10.05 73.2 10.5 73.2 11.2 72.7 11.65 L69.95 11.3 Q69.05 11.0 68.8 10.55 68.25 9.65 68.5 9.3 M95.65 8.15 Q95.65 6.4 95.8 6.75 98.35 6.8 98.65 7.25 L98.9 8.75 98.75 9.95 98.25 10.45 96.25 10.45 95.8 9.7 Q95.65 9.3 95.65 8.15 Z" fill="none" stroke="#000000" stroke-linecap="round" stroke-linejoin="round" stroke-opacity="0.0" stroke-width="1.0"/>
    </g>
  </defs>
</svg>
