<?xml version="1.0" encoding="UTF-8" standalone="no"?>
<svg xmlns:xlink="http://www.w3.org/1999/xlink" height="47.45px" width="141.0px" xmlns="http://www.w3.org/2000/svg">
  <g transform="matrix(1.0, 0.0, 0.0, 1.0, -4.35, -2.9)">
    <use data-characterId="3192" height="47.45" transform="matrix(1.0, 0.0, 0.0, 1.0, 4.35, 2.9)" width="141.0" xlink:href="#morphshape0"/>
    <use data-characterId="3193" height="37.5" transform="matrix(1.0, 0.0, 0.0, 1.0, 17.5, 9.15)" width="116.05" xlink:href="#morphshape1"/>
    <use data-characterId="3194" height="21.8" transform="matrix(1.0, 0.0, 0.0, 1.0, 37.6, 4.7)" width="75.1" xlink:href="#morphshape2"/>
    <use data-characterId="3195" height="35.65" transform="matrix(1.0, 0.0, 0.0, 1.0, 32.35, 6.65)" width="66.65" xlink:href="#morphshape3"/>
  </g>
  <defs>
    <g id="morphshape0" transform="matrix(1.0, 0.0, 0.0, 1.0, -4.35, -2.9)">
      <path d="M4.65 17.55 Q4.25 19.1 11.95 20.4 19.7 21.6 28.8 22.15 39.35 22.85 26.55 24.2 13.5 24.95 22.2 26.65 31.15 28.1 25.15 28.85 19.1 29.45 15.05 31.0 11.15 32.8 15.2 33.3 19.05 33.75 20.75 34.15 23.05 34.6 25.25 35.05 L34.8 35.85 Q29.6 37.5 31.35 38.25 22.0 40.8 38.0 40.45 40.65 40.9 51.1 39.7 42.8 42.45 44.05 43.6 45.45 44.8 52.5 45.2 60.05 45.45 68.0 46.25 77.05 47.0 71.25 48.7 65.1 50.4 68.2 49.9 73.05 49.4 77.3 49.35 L91.45 48.8 Q99.45 48.4 102.45 47.4 106.8 46.6 106.35 45.1 105.2 44.1 107.95 41.55 110.9 40.45 104.05 38.4 122.0 37.45 123.1 35.65 125.5 34.3 120.65 33.95 121.35 33.25 119.15 32.8 126.4 31.4 126.1 30.5 126.1 29.7 122.45 28.9 119.1 28.2 116.15 27.7 113.2 27.2 124.65 25.8 136.15 24.4 139.7 22.65 143.2 20.85 135.05 19.65 128.3 18.45 124.0 18.5 L122.35 18.55 122.05 18.45 Q123.2 17.7 121.9 17.0 131.15 15.8 125.9 14.8 121.65 13.8 116.0 13.65 116.45 12.2 113.6 11.35 104.1 7.2 92.1 5.05 82.3 2.9 58.0 3.9 38.95 4.85 22.55 8.3 5.85 11.05 8.5 12.05 11.15 13.0 23.2 13.85 35.2 14.65 29.85 14.9 24.5 15.0 19.25 15.15 L11.0 15.6 4.85 16.3 Q4.55 16.8 4.8 17.3" fill="#96e0bc" fill-opacity="0.7058824" fill-rule="evenodd" stroke="none"/>
      <path d="M4.8 17.3 Q4.55 16.8 4.85 16.3 L11.0 15.6 19.25 15.15 Q24.5 15.0 29.85 14.9 35.2 14.65 23.2 13.85 11.15 13.0 8.5 12.05 5.85 11.05 22.55 8.3 38.95 4.85 58.0 3.9 82.3 2.9 92.1 5.05 104.1 7.2 113.6 11.35 116.45 12.2 116.0 13.65 121.65 13.8 125.9 14.8 131.15 15.8 121.9 17.0 123.2 17.7 122.05 18.45 L122.35 18.55 124.0 18.5 Q128.3 18.45 135.05 19.65 143.2 20.85 139.7 22.65 136.15 24.4 124.65 25.8 113.2 27.2 116.15 27.7 119.1 28.2 122.45 28.9 126.1 29.7 126.1 30.5 126.4 31.4 119.15 32.8 121.35 33.25 120.65 33.95 125.5 34.3 123.1 35.65 122.0 37.45 104.05 38.4 110.9 40.45 107.95 41.55 105.2 44.1 106.35 45.1 106.8 46.6 102.45 47.4 99.45 48.4 91.45 48.8 L77.3 49.35 Q73.05 49.4 68.2 49.9 65.1 50.4 71.25 48.7 77.05 47.0 68.0 46.25 60.05 45.45 52.5 45.2 45.45 44.8 44.05 43.6 42.8 42.45 51.1 39.7 40.65 40.9 38.0 40.45 22.0 40.8 31.35 38.25 29.6 37.5 34.8 35.85 L25.25 35.05 Q23.05 34.6 20.75 34.15 19.05 33.75 15.2 33.3 11.15 32.8 15.05 31.0 19.1 29.45 25.15 28.85 31.15 28.1 22.2 26.65 13.5 24.95 26.55 24.2 39.35 22.85 28.8 22.15 19.7 21.6 11.95 20.4 4.25 19.1 4.65 17.55" fill="none" stroke="#000000" stroke-linecap="round" stroke-linejoin="round" stroke-opacity="0.0" stroke-width="1.0"/>
    </g>
    <g id="morphshape1" transform="matrix(1.0, 0.0, 0.0, 1.0, -17.5, -9.15)">
      <path d="M124.8 22.3 Q124.8 23.05 125.25 23.75 126.0 24.8 128.85 24.55 L128.1 22.35 Q127.1 22.0 124.8 22.3 M101.9 32.3 Q101.9 32.65 103.0 33.45 L106.3 33.55 108.45 32.55 Q110.65 31.5 111.05 31.0 L109.55 29.8 105.35 29.4 Q101.9 29.6 101.9 32.3 M88.55 41.55 L88.55 41.6 89.0 42.35 Q90.15 42.65 91.45 42.95 L93.95 43.15 97.65 43.05 98.3 42.85 98.7 42.5 98.85 41.8 98.8 41.3 Q98.65 40.55 98.0 40.1 96.9 39.4 92.3 39.45 90.4 39.75 88.9 40.9 L88.45 41.65 M78.05 34.75 L78.35 35.45 Q79.1 35.85 80.3 36.2 L82.4 36.55 85.45 36.6 85.95 36.45 86.25 36.15 86.45 35.55 86.45 35.1 Q86.4 34.35 85.9 34.0 85.05 33.3 81.3 33.25 79.7 33.45 78.35 34.05 L78.15 34.65 M61.65 38.2 L62.2 39.1 68.55 39.5 Q72.6 39.5 75.45 37.25 75.45 35.35 69.4 35.2 63.15 35.1 61.65 38.2 M56.65 41.2 Q56.75 41.65 56.9 41.95 L59.95 41.95 Q60.4 41.7 60.65 40.1 L57.15 40.3 Q56.65 40.65 56.65 41.2 M49.0 34.85 L50.2 36.05 Q52.25 37.2 56.55 37.2 58.1 37.2 59.85 35.05 59.85 32.1 54.45 32.15 49.0 32.2 49.0 34.85 M30.35 29.7 Q30.5 30.25 33.25 31.4 36.7 32.2 40.3 32.25 L44.1 31.55 Q45.15 30.8 45.55 28.75 45.05 25.9 37.45 26.3 29.8 26.65 30.3 29.65 M21.05 13.15 Q21.05 13.6 21.5 14.3 L22.45 15.25 29.3 15.35 Q30.5 14.45 30.5 13.9 30.5 12.05 25.8 11.95 21.05 11.9 21.05 13.15" fill="#bef0d8" fill-opacity="0.7058824" fill-rule="evenodd" stroke="none"/>
      <path d="M21.05 13.15 Q21.05 11.9 25.8 11.95 30.5 12.05 30.5 13.9 30.5 14.45 29.3 15.35 L22.45 15.25 21.5 14.3 Q21.05 13.6 21.05 13.15 M30.3 29.65 Q29.8 26.65 37.45 26.3 45.05 25.9 45.55 28.75 45.15 30.8 44.1 31.55 L40.3 32.25 Q36.7 32.2 33.25 31.4 30.5 30.25 30.35 29.7 M49.0 34.85 Q49.0 32.2 54.45 32.15 59.85 32.1 59.85 35.05 58.1 37.2 56.55 37.2 52.25 37.2 50.2 36.05 L49.0 34.85 M56.65 41.2 Q56.65 40.65 57.15 40.3 L60.65 40.1 Q60.4 41.7 59.95 41.95 L56.9 41.95 Q56.75 41.65 56.65 41.2 M61.65 38.2 Q63.15 35.1 69.4 35.2 75.45 35.35 75.45 37.25 72.6 39.5 68.55 39.5 L62.2 39.1 61.65 38.2 M78.15 34.65 L78.35 34.05 Q79.7 33.45 81.3 33.25 85.05 33.3 85.9 34.0 86.4 34.35 86.45 35.1 L86.45 35.55 86.25 36.15 85.95 36.45 85.45 36.6 82.4 36.55 80.3 36.2 Q79.1 35.85 78.35 35.45 L78.05 34.75 M88.45 41.65 L88.9 40.9 Q90.4 39.75 92.3 39.45 96.9 39.4 98.0 40.1 98.65 40.55 98.8 41.3 L98.85 41.8 98.7 42.5 98.3 42.85 97.65 43.05 93.95 43.15 91.45 42.95 Q90.15 42.65 89.0 42.35 L88.55 41.6 88.55 41.55 M101.9 32.3 Q101.9 29.6 105.35 29.4 L109.55 29.8 111.05 31.0 Q110.65 31.5 108.45 32.55 L106.3 33.55 103.0 33.45 Q101.9 32.65 101.9 32.3 M124.8 22.3 Q127.1 22.0 128.1 22.35 L128.85 24.55 Q126.0 24.8 125.25 23.75 124.8 23.05 124.8 22.3 Z" fill="none" stroke="#000000" stroke-linecap="round" stroke-linejoin="round" stroke-opacity="0.0" stroke-width="1.0"/>
    </g>
    <g id="morphshape2" transform="matrix(1.0, 0.0, 0.0, 1.0, -37.6, -4.7)">
      <path d="M105.55 17.75 Q105.55 18.9 105.8 19.3 L106.6 19.85 Q109.3 19.1 110.4 18.6 111.1 18.1 110.05 15.05 107.65 15.25 106.6 15.9 105.55 16.5 105.55 17.75 M92.75 18.3 Q92.75 19.35 93.35 19.95 L96.4 20.15 Q96.85 19.15 96.6 17.05 L92.85 16.95 92.75 18.3 M91.45 9.9 Q91.45 10.95 91.85 11.85 L97.8 11.85 Q98.85 10.8 98.85 7.3 94.15 6.85 92.5 7.7 91.45 8.3 91.45 9.9 M83.15 18.2 Q83.2 19.15 83.95 21.0 84.6 21.45 86.15 21.6 L86.95 20.4 Q87.45 19.7 86.75 17.9 L83.15 18.2 M76.45 12.3 Q76.05 14.2 76.85 15.7 77.85 17.45 80.1 17.45 81.25 17.45 82.45 15.7 81.6 13.3 79.95 12.65 L76.45 12.3 M64.8 10.75 L64.85 12.2 65.2 12.75 70.65 13.5 73.95 13.9 Q75.7 13.9 74.6 11.45 74.6 8.4 69.7 8.25 64.8 8.15 64.8 10.75 M56.1 19.3 L56.1 19.35 56.2 20.35 56.45 20.7 Q56.85 20.85 57.3 20.9 58.25 20.95 59.4 21.0 L62.7 20.75 Q62.9 19.5 62.4 16.9 61.6 15.4 60.85 14.55 59.65 13.65 58.3 14.05 56.1 15.15 56.1 19.2 M51.2 12.55 L51.25 13.4 51.4 13.6 Q51.6 13.9 51.9 13.95 L53.5 14.2 Q55.05 13.75 55.85 13.7 56.1 12.5 55.95 10.75 55.45 9.6 55.0 8.75 54.0 8.35 53.0 8.55 51.2 9.55 51.2 12.55 M39.95 12.85 L41.05 14.95 Q42.75 17.1 45.75 17.1 49.65 17.1 49.65 13.9 49.65 10.9 44.8 10.1 39.95 9.25 39.95 12.85" fill="#bef0d8" fill-opacity="0.7058824" fill-rule="evenodd" stroke="none"/>
      <path d="M39.95 12.85 Q39.95 9.25 44.8 10.1 49.65 10.9 49.65 13.9 49.65 17.1 45.75 17.1 42.75 17.1 41.05 14.95 L39.95 12.85 M51.2 12.55 Q51.2 9.55 53.0 8.55 54.0 8.35 55.0 8.75 55.45 9.6 55.95 10.75 56.1 12.5 55.85 13.7 55.05 13.75 53.5 14.2 L51.9 13.95 Q51.6 13.9 51.4 13.6 L51.25 13.4 51.2 12.55 M56.1 19.2 Q56.1 15.15 58.3 14.05 59.65 13.65 60.85 14.55 61.6 15.4 62.4 16.9 62.9 19.5 62.7 20.75 L59.4 21.0 Q58.25 20.95 57.3 20.9 56.85 20.85 56.45 20.7 L56.2 20.35 56.1 19.35 56.1 19.3 M64.8 10.75 Q64.8 8.15 69.7 8.25 74.6 8.4 74.6 11.45 75.7 13.9 73.95 13.9 L70.65 13.5 65.2 12.75 64.85 12.2 64.8 10.75 M76.45 12.3 L79.95 12.65 Q81.6 13.3 82.45 15.7 81.25 17.45 80.1 17.45 77.85 17.45 76.85 15.7 76.05 14.2 76.45 12.3 M83.15 18.2 L86.75 17.9 Q87.45 19.7 86.95 20.4 L86.15 21.6 Q84.6 21.45 83.95 21.0 83.2 19.15 83.15 18.2 M91.45 9.9 Q91.45 8.3 92.5 7.7 94.15 6.85 98.85 7.3 98.85 10.8 97.8 11.85 L91.85 11.85 Q91.45 10.95 91.45 9.9 M92.75 18.3 L92.85 16.95 96.6 17.05 Q96.85 19.15 96.4 20.15 L93.35 19.95 Q92.75 19.35 92.75 18.3 M105.55 17.75 Q105.55 16.5 106.6 15.9 107.65 15.25 110.05 15.05 111.1 18.1 110.4 18.6 109.3 19.1 106.6 19.85 L105.8 19.3 Q105.55 18.9 105.55 17.75 Z" fill="none" stroke="#000000" stroke-linecap="round" stroke-linejoin="round" stroke-opacity="0.0" stroke-width="1.0"/>
    </g>
    <g id="morphshape3" transform="matrix(1.0, 0.0, 0.0, 1.0, -32.35, -6.65)">
      <path d="M93.95 9.0 Q93.95 10.15 94.1 10.55 L94.55 11.3 96.55 11.3 97.05 10.8 97.2 9.6 96.95 8.1 Q96.65 7.65 94.1 7.6 93.95 7.25 93.95 9.0 M68.8 10.75 Q68.6 11.15 69.25 11.9 69.65 12.2 70.45 12.4 71.8 12.45 73.15 12.3 73.55 11.8 73.45 11.1 72.6 10.9 69.2 10.15 L68.75 10.7 M65.9 35.2 L66.2 37.15 Q66.4 38.2 66.85 39.05 L70.35 39.05 Q70.55 38.75 70.85 38.6 L70.45 35.5 66.9 34.95 Q66.1 34.9 65.9 35.2 M43.25 14.6 L43.45 15.95 43.8 16.45 45.35 16.5 Q46.4 16.5 47.0 16.05 47.2 15.9 47.2 14.15 47.2 13.0 46.85 12.45 L46.15 11.8 43.35 12.9 43.25 14.6 M35.9 29.2 L36.15 30.2 Q36.5 31.0 36.95 31.3 41.05 30.75 41.05 28.35 41.05 27.25 40.7 26.95 L39.85 26.6 38.1 26.85 36.25 27.0 35.9 29.2" fill="#ffffff" fill-opacity="0.7058824" fill-rule="evenodd" stroke="none"/>
      <path d="M35.9 29.2 L36.25 27.0 38.1 26.85 39.85 26.6 40.7 26.95 Q41.05 27.25 41.05 28.35 41.05 30.75 36.95 31.3 36.5 31.0 36.15 30.2 L35.9 29.2 M43.25 14.6 L43.35 12.9 46.15 11.8 46.85 12.45 Q47.2 13.0 47.2 14.15 47.2 15.9 47.0 16.05 46.4 16.5 45.35 16.5 L43.8 16.45 43.45 15.95 43.25 14.6 M65.9 35.2 Q66.1 34.9 66.9 34.95 L70.45 35.5 70.85 38.6 Q70.55 38.75 70.35 39.05 L66.85 39.05 Q66.4 38.2 66.2 37.15 L65.9 35.2 M68.75 10.7 L69.2 10.15 Q72.6 10.9 73.45 11.1 73.55 11.8 73.15 12.3 71.8 12.45 70.45 12.4 69.65 12.2 69.25 11.9 68.6 11.15 68.8 10.75 M93.95 9.0 Q93.95 7.25 94.1 7.6 96.65 7.65 96.95 8.1 L97.2 9.6 97.05 10.8 96.55 11.3 94.55 11.3 94.1 10.55 Q93.95 10.15 93.95 9.0 Z" fill="none" stroke="#000000" stroke-linecap="round" stroke-linejoin="round" stroke-opacity="0.0" stroke-width="1.0"/>
    </g>
  </defs>
</svg>
