<?xml version="1.0" encoding="UTF-8" standalone="no"?>
<svg xmlns:xlink="http://www.w3.org/1999/xlink" height="47.45px" width="141.0px" xmlns="http://www.w3.org/2000/svg">
  <g transform="matrix(1.0, 0.0, 0.0, 1.0, -4.35, -2.9)">
    <use data-characterId="3188" height="47.45" transform="matrix(1.0, 0.0, 0.0, 1.0, 4.35, 2.9)" width="141.0" xlink:href="#morphshape0"/>
    <use data-characterId="3189" height="37.5" transform="matrix(1.0, 0.0, 0.0, 1.0, 17.5, 9.15)" width="116.05" xlink:href="#morphshape1"/>
    <use data-characterId="3190" height="21.8" transform="matrix(1.0, 0.0, 0.0, 1.0, 37.6, 4.7)" width="75.1" xlink:href="#morphshape2"/>
    <use data-characterId="3191" height="35.65" transform="matrix(1.0, 0.0, 0.0, 1.0, 32.35, 6.65)" width="66.65" xlink:href="#morphshape3"/>
  </g>
  <defs>
    <g id="morphshape0" transform="matrix(1.0, 0.0, 0.0, 1.0, -4.35, -2.9)">
      <path d="M4.9 18.7 Q5.2 20.2 9.55 21.1 13.95 21.8 18.85 22.25 27.2 23.1 23.2 25.2 18.7 25.9 20.5 27.35 22.95 28.3 20.65 29.2 18.35 29.9 17.15 31.05 16.25 32.85 18.6 33.5 20.6 34.0 22.55 34.25 26.05 34.55 28.35 35.4 L31.6 36.5 Q29.4 38.5 34.1 39.4 33.45 40.4 41.9 40.35 42.25 41.3 46.0 41.5 43.05 43.15 45.95 44.55 49.15 46.05 54.3 46.2 58.25 46.3 63.2 47.7 68.55 49.05 68.3 49.65 67.3 50.25 71.65 49.1 76.75 47.85 80.55 47.7 L90.3 46.85 Q95.3 46.45 98.5 45.85 104.95 45.7 107.15 43.25 107.7 42.1 109.1 40.25 114.05 39.4 112.55 38.0 121.45 35.9 118.95 34.4 119.6 33.85 117.65 33.65 124.5 32.35 124.2 31.65 127.3 30.55 125.45 29.6 124.4 28.95 122.05 28.3 120.5 27.9 123.45 27.0 126.4 26.1 131.4 24.1 136.4 22.1 135.9 20.65 135.25 19.1 128.65 18.7 125.45 18.3 123.15 18.35 L122.45 18.35 121.9 18.1 Q125.15 16.5 122.5 15.05 123.65 14.45 119.65 13.95 118.1 13.55 116.05 13.5 117.1 10.15 110.2 8.1 99.3 4.35 78.05 3.6 62.25 2.85 40.95 5.3 22.0 7.6 16.8 10.65 11.05 12.0 12.25 12.75 13.45 13.45 18.0 14.1 22.4 14.65 20.0 14.95 17.85 15.0 15.8 15.2 L7.1 16.05 4.85 16.3 Q4.15 17.5 4.75 18.75" fill="#96e0bc" fill-opacity="0.7058824" fill-rule="evenodd" stroke="none"/>
      <path d="M4.75 18.75 Q4.15 17.5 4.85 16.3 L7.1 16.05 15.8 15.2 Q17.85 15.0 20.0 14.95 22.4 14.65 18.0 14.1 13.45 13.45 12.25 12.75 11.05 12.0 16.8 10.65 22.0 7.6 40.95 5.3 62.25 2.85 78.05 3.6 99.3 4.35 110.2 8.1 117.1 10.15 116.05 13.5 118.1 13.55 119.65 13.95 123.65 14.45 122.5 15.05 125.15 16.5 121.9 18.1 L122.45 18.35 123.15 18.35 Q125.45 18.3 128.65 18.7 135.25 19.1 135.9 20.65 136.4 22.1 131.4 24.1 126.4 26.1 123.45 27.0 120.5 27.9 122.05 28.3 124.4 28.95 125.45 29.6 127.3 30.55 124.2 31.65 124.5 32.35 117.65 33.65 119.6 33.85 118.95 34.4 121.45 35.9 112.55 38.0 114.05 39.4 109.1 40.25 107.7 42.1 107.15 43.25 104.95 45.7 98.5 45.85 95.3 46.45 90.3 46.85 L80.55 47.7 Q76.75 47.85 71.65 49.1 67.3 50.25 68.3 49.65 68.55 49.05 63.2 47.7 58.25 46.3 54.3 46.2 49.15 46.05 45.95 44.55 43.05 43.15 46.0 41.5 42.25 41.3 41.9 40.35 33.45 40.4 34.1 39.4 29.4 38.5 31.6 36.5 L28.35 35.4 Q26.05 34.55 22.55 34.25 20.6 34.0 18.6 33.5 16.25 32.85 17.15 31.05 18.35 29.9 20.65 29.2 22.95 28.3 20.5 27.35 18.7 25.9 23.2 25.2 27.2 23.1 18.85 22.25 13.95 21.8 9.55 21.1 5.2 20.2 4.9 18.7" fill="none" stroke="#000000" stroke-linecap="round" stroke-linejoin="round" stroke-opacity="0.0" stroke-width="1.0"/>
    </g>
    <g id="morphshape1" transform="matrix(1.0, 0.0, 0.0, 1.0, -17.5, -9.15)">
      <path d="M118.2 23.15 Q118.2 23.9 118.65 24.6 119.4 25.65 122.25 25.4 L121.5 23.2 Q120.5 22.85 118.2 23.15 M100.35 29.85 Q100.35 30.2 101.45 31.0 L104.75 31.1 106.9 30.1 Q109.1 29.05 109.5 28.55 L108.0 27.35 103.8 26.95 Q100.35 27.15 100.35 29.85 M86.1 36.4 L86.4 37.05 Q87.05 37.5 88.2 37.9 L90.2 38.3 93.15 38.4 93.6 38.25 93.85 38.0 94.05 37.45 94.05 37.0 Q94.0 36.3 93.55 35.95 92.75 35.3 89.15 35.2 87.65 35.4 86.3 35.9 L86.1 36.5 M76.2 39.75 L76.2 39.75 76.65 40.55 Q77.9 40.8 79.25 41.05 L81.85 41.2 85.65 41.05 86.35 40.85 86.8 40.45 86.95 39.7 86.9 39.2 Q86.75 38.4 86.05 37.95 84.9 37.2 80.15 37.3 78.15 37.6 76.65 38.85 L76.2 39.6 M62.25 34.0 L62.8 34.9 69.15 35.3 Q73.2 35.3 76.05 33.05 76.05 31.15 70.0 31.0 63.75 30.9 62.25 34.0 M60.0 41.9 Q60.05 42.4 60.25 42.65 L63.3 42.65 Q63.75 42.4 64.0 40.8 L60.5 41.0 Q60.0 41.35 60.0 41.9 M49.0 36.25 L50.2 37.45 Q52.25 38.6 56.55 38.6 58.1 38.6 59.85 36.45 59.85 33.5 54.45 33.55 49.0 33.6 49.0 36.25 M27.8 28.8 Q27.85 29.4 30.45 30.9 33.75 32.55 37.4 32.5 L41.25 32.25 Q42.4 31.65 43.05 29.65 42.85 26.75 35.25 26.25 27.6 25.75 27.8 28.8 M18.75 17.1 Q18.75 17.55 19.2 18.25 L20.15 19.2 27.0 19.3 Q28.2 18.4 28.2 17.85 28.2 16.0 23.5 15.9 18.75 15.85 18.75 17.1" fill="#bef0d8" fill-opacity="0.7058824" fill-rule="evenodd" stroke="none"/>
      <path d="M18.75 17.1 Q18.75 15.85 23.5 15.9 28.2 16.0 28.2 17.85 28.2 18.4 27.0 19.3 L20.15 19.2 19.2 18.25 Q18.75 17.55 18.75 17.1 M27.8 28.8 Q27.6 25.75 35.25 26.25 42.85 26.75 43.05 29.65 42.4 31.65 41.25 32.25 L37.4 32.5 Q33.75 32.55 30.45 30.9 27.85 29.4 27.8 28.8 M49.0 36.25 Q49.0 33.6 54.45 33.55 59.85 33.5 59.85 36.45 58.1 38.6 56.55 38.6 52.25 38.6 50.2 37.45 L49.0 36.25 M60.0 41.9 Q60.0 41.35 60.5 41.0 L64.0 40.8 Q63.75 42.4 63.3 42.65 L60.25 42.65 Q60.05 42.4 60.0 41.9 M62.25 34.0 Q63.75 30.9 70.0 31.0 76.05 31.15 76.05 33.05 73.2 35.3 69.15 35.3 L62.8 34.9 62.25 34.0 M76.2 39.6 L76.65 38.85 Q78.15 37.6 80.15 37.3 84.9 37.2 86.05 37.95 86.75 38.4 86.9 39.2 L86.95 39.7 86.8 40.45 86.35 40.85 85.65 41.05 81.85 41.2 79.25 41.05 Q77.9 40.8 76.65 40.55 L76.2 39.75 76.2 39.75 M86.1 36.5 L86.3 35.9 Q87.65 35.4 89.15 35.2 92.75 35.3 93.55 35.95 94.0 36.3 94.05 37.0 L94.05 37.45 93.85 38.0 93.6 38.25 93.15 38.4 90.2 38.3 88.2 37.9 Q87.05 37.5 86.4 37.05 L86.1 36.4 M100.35 29.85 Q100.35 27.15 103.8 26.95 L108.0 27.35 109.5 28.55 Q109.1 29.05 106.9 30.1 L104.75 31.1 101.45 31.0 Q100.35 30.2 100.35 29.85 M118.2 23.15 Q120.5 22.85 121.5 23.2 L122.25 25.4 Q119.4 25.65 118.65 24.6 118.2 23.9 118.2 23.15 Z" fill="none" stroke="#000000" stroke-linecap="round" stroke-linejoin="round" stroke-opacity="0.0" stroke-width="1.0"/>
    </g>
    <g id="morphshape2" transform="matrix(1.0, 0.0, 0.0, 1.0, -37.6, -4.7)">
      <path d="M102.75 15.65 Q102.75 16.8 103.0 17.2 L103.8 17.75 Q106.0 17.05 107.6 16.5 108.3 16.0 107.25 12.95 104.85 13.15 103.8 13.8 102.75 14.4 102.75 15.65 M90.65 20.85 Q90.65 21.9 91.25 22.5 L94.3 22.7 Q94.75 21.7 94.5 19.6 L90.75 19.5 90.65 20.85 M89.15 11.3 Q89.15 12.35 89.55 13.25 L95.5 13.25 Q96.55 12.2 96.55 8.7 91.85 8.25 90.2 9.1 89.15 9.7 89.15 11.3 M80.85 21.35 Q80.9 22.3 81.65 24.15 82.3 24.6 83.85 24.75 L84.65 23.55 Q85.15 22.85 84.45 21.05 L80.85 21.35 M77.9 8.4 Q77.5 10.3 78.3 11.8 79.3 13.55 81.55 13.55 82.7 13.55 83.9 11.8 83.05 9.4 81.4 8.75 L77.9 8.4 M66.1 13.05 L66.15 14.5 66.5 15.05 71.95 15.8 75.25 16.2 Q77.0 16.2 75.9 13.75 75.9 10.7 71.0 10.55 66.1 10.45 66.1 13.05 M55.9 13.6 L55.95 14.45 56.05 14.65 Q56.2 15.0 56.5 15.1 57.0 15.25 58.0 15.4 L60.2 14.85 Q60.45 13.65 60.4 12.0 59.95 10.9 59.55 10.05 58.6 9.75 57.65 9.9 55.95 10.85 55.95 13.65 M49.15 19.35 L49.15 19.4 49.25 20.45 49.55 20.8 Q50.0 20.9 50.45 20.9 L52.65 21.0 Q54.5 20.85 56.1 20.85 56.3 19.6 55.7 16.9 54.85 15.35 54.05 14.5 52.8 13.5 51.4 13.95 49.1 15.1 49.1 19.35 M38.45 11.1 L39.55 13.2 Q41.25 15.35 44.25 15.35 48.15 15.35 48.15 12.15 48.15 9.15 43.3 8.35 38.45 7.5 38.45 11.1" fill="#bef0d8" fill-opacity="0.7058824" fill-rule="evenodd" stroke="none"/>
      <path d="M38.45 11.1 Q38.45 7.5 43.3 8.35 48.15 9.15 48.15 12.15 48.15 15.35 44.25 15.35 41.25 15.35 39.55 13.2 L38.45 11.1 M49.1 19.35 Q49.1 15.1 51.4 13.95 52.8 13.5 54.05 14.5 54.85 15.35 55.7 16.9 56.3 19.6 56.1 20.85 54.5 20.85 52.65 21.0 L50.45 20.9 Q50.0 20.9 49.55 20.8 L49.25 20.45 49.15 19.4 49.15 19.35 M55.95 13.65 Q55.95 10.85 57.65 9.9 58.6 9.75 59.55 10.05 59.95 10.9 60.4 12.0 60.45 13.65 60.2 14.85 L58.0 15.4 Q57.0 15.25 56.5 15.1 56.2 15.0 56.05 14.65 L55.95 14.45 55.9 13.6 M66.1 13.05 Q66.1 10.45 71.0 10.55 75.9 10.7 75.9 13.75 77.0 16.2 75.25 16.2 L71.95 15.8 66.5 15.05 66.15 14.5 66.1 13.05 M77.9 8.4 L81.4 8.75 Q83.05 9.4 83.9 11.8 82.7 13.55 81.55 13.55 79.3 13.55 78.3 11.8 77.5 10.3 77.9 8.4 M80.85 21.35 L84.45 21.05 Q85.15 22.85 84.65 23.55 L83.85 24.75 Q82.3 24.6 81.65 24.15 80.9 22.3 80.85 21.35 M89.15 11.3 Q89.15 9.7 90.2 9.1 91.85 8.25 96.55 8.7 96.55 12.2 95.5 13.25 L89.55 13.25 Q89.15 12.35 89.15 11.3 M90.65 20.85 L90.75 19.5 94.5 19.6 Q94.75 21.7 94.3 22.7 L91.25 22.5 Q90.65 21.9 90.65 20.85 M102.75 15.65 Q102.75 14.4 103.8 13.8 104.85 13.15 107.25 12.95 108.3 16.0 107.6 16.5 106.0 17.05 103.8 17.75 L103.0 17.2 Q102.75 16.8 102.75 15.65 Z" fill="none" stroke="#000000" stroke-linecap="round" stroke-linejoin="round" stroke-opacity="0.0" stroke-width="1.0"/>
    </g>
    <g id="morphshape3" transform="matrix(1.0, 0.0, 0.0, 1.0, -32.35, -6.65)">
      <path d="M94.75 8.7 Q94.75 9.85 94.9 10.25 L95.35 11.0 97.35 11.0 97.85 10.5 98.0 9.3 97.75 7.8 Q97.45 7.35 94.9 7.3 94.75 6.95 94.75 8.7 M69.3 12.65 Q69.05 13.0 69.6 13.9 70.1 14.3 70.75 14.65 L73.5 15.0 Q74.0 14.55 74.0 13.85 73.8 13.4 69.85 12.2 L69.3 12.65 M66.15 31.5 L66.45 33.45 Q66.65 34.5 67.1 35.35 L70.6 35.35 Q70.85 35.1 71.1 34.9 L70.7 31.8 67.15 31.25 Q66.35 31.2 66.15 31.5 M41.25 13.55 L41.45 14.9 41.8 15.4 43.35 15.45 Q44.4 15.45 45.0 15.0 45.2 14.85 45.2 13.1 45.2 11.95 44.85 11.4 L44.15 10.75 41.35 11.85 41.25 13.55 M33.65 29.2 L33.9 30.2 Q34.25 31.0 34.7 31.3 38.8 30.75 38.8 28.35 38.8 27.25 38.45 26.95 L37.6 26.6 35.85 26.85 34.0 27.0 33.65 29.2" fill="#ffffff" fill-opacity="0.7058824" fill-rule="evenodd" stroke="none"/>
      <path d="M33.65 29.2 L34.0 27.0 35.85 26.85 37.6 26.6 38.45 26.95 Q38.8 27.25 38.8 28.35 38.8 30.75 34.7 31.3 34.25 31.0 33.9 30.2 L33.65 29.2 M41.25 13.55 L41.35 11.85 44.15 10.75 44.85 11.4 Q45.2 11.95 45.2 13.1 45.2 14.85 45.0 15.0 44.4 15.45 43.35 15.45 L41.8 15.4 41.45 14.9 41.25 13.55 M66.15 31.5 Q66.35 31.2 67.15 31.25 L70.7 31.8 71.1 34.9 Q70.85 35.1 70.6 35.35 L67.1 35.35 Q66.65 34.5 66.45 33.45 L66.15 31.5 M69.3 12.65 L69.85 12.2 Q73.8 13.4 74.0 13.85 74.0 14.55 73.5 15.0 L70.75 14.65 Q70.1 14.3 69.6 13.9 69.05 13.0 69.3 12.65 M94.75 8.7 Q94.75 6.95 94.9 7.3 97.45 7.35 97.75 7.8 L98.0 9.3 97.85 10.5 97.35 11.0 95.35 11.0 94.9 10.25 Q94.75 9.85 94.75 8.7 Z" fill="none" stroke="#000000" stroke-linecap="round" stroke-linejoin="round" stroke-opacity="0.0" stroke-width="1.0"/>
    </g>
  </defs>
</svg>
