<?xml version="1.0" encoding="UTF-8" standalone="no"?>
<svg xmlns:xlink="http://www.w3.org/1999/xlink" height="47.45px" width="141.0px" xmlns="http://www.w3.org/2000/svg">
  <g transform="matrix(1.0, 0.0, 0.0, 1.0, -4.35, -2.9)">
    <use data-characterId="3192" height="47.45" transform="matrix(1.0, 0.0, 0.0, 1.0, 4.35, 2.9)" width="141.0" xlink:href="#morphshape0"/>
    <use data-characterId="3193" height="37.5" transform="matrix(1.0, 0.0, 0.0, 1.0, 17.5, 9.15)" width="116.05" xlink:href="#morphshape1"/>
    <use data-characterId="3194" height="21.8" transform="matrix(1.0, 0.0, 0.0, 1.0, 37.6, 4.7)" width="75.1" xlink:href="#morphshape2"/>
    <use data-characterId="3195" height="35.65" transform="matrix(1.0, 0.0, 0.0, 1.0, 32.35, 6.65)" width="66.65" xlink:href="#morphshape3"/>
  </g>
  <defs>
    <g id="morphshape0" transform="matrix(1.0, 0.0, 0.0, 1.0, -4.35, -2.9)">
      <path d="M4.7 19.15 Q5.15 20.6 8.8 21.45 12.55 22.05 16.6 22.5 24.5 23.4 22.3 25.65 19.5 26.3 19.9 27.7 21.0 28.55 19.5 29.5 17.95 30.2 17.35 31.25 17.1 33.05 19.15 33.7 20.75 34.2 22.75 34.4 26.5 34.65 28.8 35.6 L30.8 36.8 Q29.25 38.85 34.55 39.8 35.7 40.45 42.6 40.45 42.45 41.5 44.85 42.0 42.95 43.45 46.15 44.85 49.7 46.4 54.45 46.55 57.7 46.6 62.05 48.1 66.6 49.6 67.5 50.0 67.55 50.4 72.15 49.1 77.3 47.7 81.0 47.55 L89.85 46.65 Q94.25 46.25 97.5 45.7 104.35 45.7 107.1 43.05 108.0 41.85 109.15 40.1 114.55 39.3 114.15 38.0 121.2 35.65 118.0 34.2 118.3 33.8 116.95 33.65 125.0 32.2 125.1 31.45 127.35 30.45 125.2 29.5 123.95 28.85 121.85 28.25 120.65 27.95 124.85 27.0 129.0 26.05 132.7 23.95 136.4 21.85 135.05 20.45 133.55 18.95 127.25 18.7 124.8 18.45 122.95 18.5 L122.45 18.5 121.85 18.25 Q125.55 16.45 122.65 14.8 122.15 14.3 118.4 13.9 117.45 13.65 116.15 13.6 117.35 9.85 109.65 7.55 98.45 3.9 75.35 3.4 58.35 2.9 37.65 5.65 18.7 8.2 15.8 11.15 12.25 12.25 13.1 12.95 13.95 13.6 16.95 14.2 19.8 14.7 18.05 15.0 16.5 15.05 15.1 15.25 L6.3 16.15 4.85 16.3 Q4.1 17.65 4.75 19.05" fill="#96e0bc" fill-opacity="0.7058824" fill-rule="evenodd" stroke="none"/>
      <path d="M4.75 19.05 Q4.1 17.65 4.85 16.3 L6.3 16.15 15.1 15.25 Q16.5 15.05 18.05 15.0 19.8 14.7 16.95 14.2 13.95 13.6 13.1 12.95 12.25 12.25 15.8 11.15 18.7 8.2 37.65 5.65 58.35 2.9 75.35 3.4 98.45 3.9 109.65 7.55 117.35 9.85 116.15 13.6 117.45 13.65 118.4 13.9 122.15 14.3 122.65 14.8 125.55 16.45 121.85 18.25 L122.45 18.5 122.95 18.5 Q124.8 18.45 127.25 18.7 133.55 18.95 135.05 20.45 136.4 21.85 132.7 23.95 129.0 26.05 124.85 27.0 120.65 27.95 121.85 28.25 123.95 28.85 125.2 29.5 127.35 30.45 125.1 31.45 125.0 32.2 116.95 33.65 118.3 33.8 118.0 34.2 121.2 35.65 114.15 38.0 114.55 39.3 109.15 40.1 108.0 41.85 107.1 43.05 104.35 45.7 97.5 45.7 94.25 46.25 89.85 46.65 L81.0 47.55 Q77.3 47.7 72.15 49.1 67.55 50.4 67.5 50.0 66.6 49.6 62.05 48.1 57.7 46.6 54.45 46.55 49.7 46.4 46.15 44.85 42.95 43.45 44.85 42.0 42.45 41.5 42.6 40.45 35.7 40.45 34.55 39.8 29.25 38.85 30.8 36.8 L28.8 35.6 Q26.5 34.65 22.75 34.4 20.75 34.2 19.15 33.7 17.1 33.05 17.35 31.25 17.95 30.2 19.5 29.5 21.0 28.55 19.9 27.7 19.5 26.3 22.3 25.65 24.5 23.4 16.6 22.5 12.55 22.05 8.8 21.45 5.15 20.6 4.7 19.15" fill="none" stroke="#000000" stroke-linecap="round" stroke-linejoin="round" stroke-opacity="0.0" stroke-width="1.0"/>
    </g>
    <g id="morphshape1" transform="matrix(1.0, 0.0, 0.0, 1.0, -17.5, -9.15)">
      <path d="M116.85 23.35 Q116.85 24.1 117.3 24.8 118.05 25.85 120.9 25.6 L120.15 23.4 Q119.15 23.05 116.85 23.35 M100.0 29.35 Q100.0 29.7 101.1 30.5 L104.4 30.6 106.55 29.6 Q108.75 28.55 109.15 28.05 L107.65 26.85 103.45 26.45 Q100.0 26.65 100.0 29.35 M85.7 35.35 L85.7 35.45 85.95 36.0 Q86.5 36.45 87.6 36.85 L89.5 37.3 92.25 37.45 92.65 37.35 92.9 37.1 93.1 36.6 93.1 36.15 Q93.05 35.45 92.65 35.1 91.9 34.45 88.5 34.3 87.05 34.5 85.75 34.9 L85.6 35.45 M75.7 40.75 L76.2 41.6 Q77.55 41.85 78.95 42.1 L81.65 42.2 85.65 42.0 86.4 41.75 86.85 41.35 87.0 40.55 86.95 40.05 Q86.8 39.25 86.05 38.8 84.85 38.05 79.9 38.2 77.85 38.5 76.3 39.85 L75.8 40.65 M62.35 33.15 L62.9 34.05 69.25 34.45 Q73.3 34.45 76.15 32.2 76.15 30.3 70.1 30.15 63.85 30.05 62.35 33.15 M60.65 42.05 Q60.65 42.55 60.9 42.8 L63.95 42.8 Q64.4 42.55 64.65 40.95 L61.15 41.15 Q60.65 41.5 60.65 42.05 M49.0 36.55 L50.2 37.75 Q52.25 38.9 56.55 38.9 58.1 38.9 59.85 36.75 59.85 33.8 54.45 33.85 49.0 33.9 49.0 36.55 M27.3 28.55 Q27.35 29.15 29.95 30.7 33.2 32.55 36.85 32.5 L40.75 32.35 Q41.9 31.8 42.55 29.85 42.45 26.95 34.85 26.25 27.2 25.55 27.3 28.6 M18.3 17.9 Q18.3 18.35 18.75 19.05 L19.7 20.0 26.55 20.1 Q27.75 19.2 27.75 18.65 27.75 16.8 23.05 16.7 18.3 16.65 18.3 17.9" fill="#bef0d8" fill-opacity="0.7058824" fill-rule="evenodd" stroke="none"/>
      <path d="M18.3 17.9 Q18.3 16.65 23.05 16.7 27.75 16.8 27.75 18.65 27.75 19.2 26.55 20.1 L19.7 20.0 18.75 19.05 Q18.3 18.35 18.3 17.9 M27.3 28.6 Q27.2 25.55 34.85 26.25 42.45 26.95 42.55 29.85 41.9 31.8 40.75 32.35 L36.85 32.5 Q33.2 32.55 29.95 30.7 27.35 29.15 27.3 28.55 M49.0 36.55 Q49.0 33.9 54.45 33.85 59.85 33.8 59.85 36.75 58.1 38.9 56.55 38.9 52.25 38.9 50.2 37.75 L49.0 36.55 M60.65 42.05 Q60.65 41.5 61.15 41.15 L64.65 40.95 Q64.4 42.55 63.95 42.8 L60.9 42.8 Q60.65 42.55 60.65 42.05 M62.35 33.15 Q63.85 30.05 70.1 30.15 76.15 30.3 76.15 32.2 73.3 34.45 69.25 34.45 L62.9 34.05 62.35 33.15 M75.8 40.65 L76.3 39.85 Q77.85 38.5 79.9 38.2 84.85 38.05 86.05 38.8 86.8 39.25 86.95 40.05 L87.0 40.55 86.85 41.35 86.4 41.75 85.65 42.0 81.65 42.2 78.95 42.1 Q77.55 41.85 76.2 41.6 L75.7 40.75 M85.6 35.45 L85.75 34.9 Q87.05 34.5 88.5 34.3 91.9 34.45 92.65 35.1 93.05 35.45 93.1 36.15 L93.1 36.6 92.9 37.1 92.65 37.35 92.25 37.45 89.5 37.3 87.6 36.85 Q86.5 36.45 85.95 36.0 L85.7 35.45 85.7 35.35 M100.0 29.35 Q100.0 26.65 103.45 26.45 L107.65 26.85 109.15 28.05 Q108.75 28.55 106.55 29.6 L104.4 30.6 101.1 30.5 Q100.0 29.7 100.0 29.35 M116.85 23.35 Q119.15 23.05 120.15 23.4 L120.9 25.6 Q118.05 25.85 117.3 24.8 116.85 24.1 116.85 23.35 Z" fill="none" stroke="#000000" stroke-linecap="round" stroke-linejoin="round" stroke-opacity="0.0" stroke-width="1.0"/>
    </g>
    <g id="morphshape2" transform="matrix(1.0, 0.0, 0.0, 1.0, -37.6, -4.7)">
      <path d="M102.2 15.25 Q102.2 16.4 102.45 16.8 L103.25 17.35 Q105.35 16.7 107.05 16.1 107.75 15.6 106.7 12.55 104.3 12.75 103.25 13.4 102.2 14.0 102.2 15.25 M90.25 21.4 Q90.25 22.45 90.85 23.05 L93.9 23.25 Q94.35 22.25 94.1 20.15 L90.35 20.05 90.25 21.4 M88.65 11.55 Q88.65 12.6 89.05 13.5 L95.0 13.5 Q96.05 12.45 96.05 8.95 91.35 8.5 89.7 9.35 88.65 9.95 88.65 11.55 M80.4 22.0 Q80.45 22.95 81.2 24.8 81.85 25.25 83.4 25.4 L84.2 24.2 Q84.7 23.5 84.0 21.7 L80.4 22.0 M78.25 7.6 Q77.85 9.5 78.65 11.0 79.65 12.75 81.9 12.75 83.05 12.75 84.25 11.0 83.4 8.6 81.75 7.95 L78.25 7.6 M66.4 13.55 L66.45 15.0 66.8 15.55 72.25 16.3 75.55 16.7 Q77.3 16.7 76.2 14.25 76.2 11.2 71.3 11.05 66.4 10.95 66.4 13.55 M55.95 12.55 L55.95 12.7 56.0 13.3 56.05 13.45 Q56.2 13.85 56.45 13.95 56.85 14.1 57.85 14.25 L59.8 13.6 Q60.05 12.45 60.1 11.0 59.7 9.95 59.35 9.1 58.45 8.9 57.55 9.0 55.95 9.95 55.95 12.5 M48.7 20.8 L48.8 21.95 49.15 22.35 Q49.6 22.4 50.1 22.4 L52.4 22.45 Q54.35 22.35 56.1 22.35 56.3 21.05 55.6 18.15 54.7 16.55 53.85 15.7 52.55 14.6 51.1 15.1 48.7 16.25 48.7 20.75 M38.15 10.75 L39.25 12.85 Q40.95 15.0 43.95 15.0 47.85 15.0 47.85 11.8 47.85 8.8 43.0 8.0 38.15 7.15 38.15 10.75" fill="#bef0d8" fill-opacity="0.7058824" fill-rule="evenodd" stroke="none"/>
      <path d="M38.15 10.75 Q38.15 7.15 43.0 8.0 47.85 8.8 47.85 11.8 47.85 15.0 43.95 15.0 40.95 15.0 39.25 12.85 L38.15 10.75 M48.7 20.75 Q48.7 16.25 51.1 15.1 52.55 14.6 53.85 15.7 54.7 16.55 55.6 18.15 56.3 21.05 56.1 22.35 54.35 22.35 52.4 22.45 L50.1 22.4 Q49.6 22.4 49.15 22.35 L48.8 21.95 48.7 20.8 M55.95 12.5 Q55.95 9.95 57.55 9.0 58.45 8.9 59.35 9.1 59.7 9.95 60.1 11.0 60.05 12.45 59.8 13.6 L57.85 14.25 Q56.85 14.1 56.45 13.95 56.2 13.85 56.05 13.45 L56.0 13.3 55.95 12.7 55.95 12.55 M66.4 13.55 Q66.4 10.95 71.3 11.05 76.2 11.2 76.2 14.25 77.3 16.7 75.55 16.7 L72.25 16.3 66.8 15.55 66.45 15.0 66.4 13.55 M78.25 7.6 L81.75 7.95 Q83.4 8.6 84.25 11.0 83.05 12.75 81.9 12.75 79.65 12.75 78.65 11.0 77.85 9.5 78.25 7.6 M80.4 22.0 L84.0 21.7 Q84.7 23.5 84.2 24.2 L83.4 25.4 Q81.85 25.25 81.2 24.8 80.45 22.95 80.4 22.0 M88.65 11.55 Q88.65 9.95 89.7 9.35 91.35 8.5 96.05 8.95 96.05 12.45 95.0 13.5 L89.05 13.5 Q88.65 12.6 88.65 11.55 M90.25 21.4 L90.35 20.05 94.1 20.15 Q94.35 22.25 93.9 23.25 L90.85 23.05 Q90.25 22.45 90.25 21.4 M102.2 15.25 Q102.2 14.0 103.25 13.4 104.3 12.75 106.7 12.55 107.75 15.6 107.05 16.1 105.35 16.7 103.25 17.35 L102.45 16.8 Q102.2 16.4 102.2 15.25 Z" fill="none" stroke="#000000" stroke-linecap="round" stroke-linejoin="round" stroke-opacity="0.0" stroke-width="1.0"/>
    </g>
    <g id="morphshape3" transform="matrix(1.0, 0.0, 0.0, 1.0, -32.35, -6.65)">
      <path d="M90.9 10.5 Q90.9 11.65 91.05 12.05 L91.5 12.8 93.5 12.8 94.0 12.3 94.15 11.1 93.9 9.6 Q93.6 9.15 91.05 9.1 90.9 8.75 90.9 10.5 M69.25 13.7 Q69.15 14.15 70.0 14.7 70.65 14.8 71.35 14.85 72.6 14.7 73.95 14.0 74.25 13.4 73.95 12.75 72.0 12.95 69.55 13.0 L69.3 13.65 M66.2 29.7 L66.5 31.65 Q66.7 32.7 67.15 33.55 L70.65 33.55 Q70.9 33.3 71.15 33.1 L70.75 30.0 67.2 29.45 Q66.4 29.4 66.2 29.7 M40.85 13.35 L41.05 14.7 41.4 15.2 42.95 15.25 Q44.0 15.25 44.6 14.8 44.8 14.65 44.8 12.9 44.8 11.75 44.45 11.2 L43.75 10.55 40.95 11.65 40.85 13.35 M33.15 29.2 L33.4 30.2 Q33.75 31.0 34.2 31.3 38.3 30.75 38.3 28.35 38.3 27.25 37.95 26.95 L37.1 26.6 35.35 26.85 33.5 27.0 33.15 29.2" fill="#ffffff" fill-opacity="0.7058824" fill-rule="evenodd" stroke="none"/>
      <path d="M33.15 29.2 L33.5 27.0 35.35 26.85 37.1 26.6 37.95 26.95 Q38.3 27.25 38.3 28.35 38.3 30.75 34.2 31.3 33.75 31.0 33.4 30.2 L33.15 29.2 M40.85 13.35 L40.95 11.65 43.75 10.55 44.45 11.2 Q44.8 11.75 44.8 12.9 44.8 14.65 44.6 14.8 44.0 15.25 42.95 15.25 L41.4 15.2 41.05 14.7 40.85 13.35 M66.2 29.7 Q66.4 29.4 67.2 29.45 L70.75 30.0 71.15 33.1 Q70.9 33.3 70.65 33.55 L67.15 33.55 Q66.7 32.7 66.5 31.65 L66.2 29.7 M69.3 13.65 L69.55 13.0 Q72.0 12.95 73.95 12.75 74.25 13.4 73.95 14.0 72.6 14.7 71.35 14.85 70.65 14.8 70.0 14.7 69.15 14.15 69.25 13.7 M90.9 10.5 Q90.9 8.75 91.05 9.1 93.6 9.15 93.9 9.6 L94.15 11.1 94.0 12.3 93.5 12.8 91.5 12.8 91.05 12.05 Q90.9 11.65 90.9 10.5 Z" fill="none" stroke="#000000" stroke-linecap="round" stroke-linejoin="round" stroke-opacity="0.0" stroke-width="1.0"/>
    </g>
  </defs>
</svg>
