<?xml version="1.0" encoding="UTF-8" standalone="no"?>
<svg xmlns:xlink="http://www.w3.org/1999/xlink" height="47.45px" width="141.0px" xmlns="http://www.w3.org/2000/svg">
  <g transform="matrix(1.0, 0.0, 0.0, 1.0, -4.35, -2.9)">
    <use data-characterId="3188" height="47.45" transform="matrix(1.0, 0.0, 0.0, 1.0, 4.35, 2.9)" width="141.0" xlink:href="#morphshape0"/>
    <use data-characterId="3189" height="37.5" transform="matrix(1.0, 0.0, 0.0, 1.0, 17.5, 9.15)" width="116.05" xlink:href="#morphshape1"/>
    <use data-characterId="3190" height="21.8" transform="matrix(1.0, 0.0, 0.0, 1.0, 37.6, 4.7)" width="75.1" xlink:href="#morphshape2"/>
    <use data-characterId="3191" height="35.65" transform="matrix(1.0, 0.0, 0.0, 1.0, 32.35, 6.65)" width="66.65" xlink:href="#morphshape3"/>
  </g>
  <defs>
    <g id="morphshape0" transform="matrix(1.0, 0.0, 0.0, 1.0, -4.35, -2.9)">
      <path d="M4.85 17.4 Q4.65 18.95 11.3 20.1 18.0 21.15 25.8 21.7 35.65 22.45 25.55 24.0 15.15 24.75 21.7 26.35 28.65 27.65 23.8 28.45 18.9 29.1 15.75 30.5 12.8 32.3 16.3 32.85 19.6 33.3 21.35 33.65 24.05 34.05 26.25 34.65 L33.85 35.55 Q29.6 37.3 32.25 38.1 25.6 40.2 39.25 39.95 41.2 40.55 49.6 39.8 42.95 42.25 44.7 43.45 46.65 44.75 53.1 45.1 59.55 45.3 66.55 46.3 74.45 47.25 70.35 48.65 65.8 50.05 69.3 49.35 74.2 48.65 78.35 48.6 L91.15 47.95 Q98.2 47.55 101.25 46.7 106.25 46.1 106.6 44.3 106.0 43.25 108.35 40.9 111.9 39.9 106.7 38.05 121.85 36.75 121.85 35.05 123.7 33.95 119.75 33.65 122.35 32.75 120.75 32.25 126.75 30.95 126.0 30.05 125.65 29.3 122.4 28.55 119.6 27.95 118.45 27.35 117.3 26.75 126.75 25.15 136.25 23.55 138.55 21.9 140.8 20.2 133.1 19.25 127.45 18.3 123.75 18.35 L122.4 18.4 122.0 18.25 Q123.8 17.2 122.1 16.25 128.85 15.25 124.0 14.4 120.6 13.6 116.05 13.5 116.7 11.45 112.6 10.25 102.65 6.25 87.8 4.55 76.15 2.85 52.8 4.3 33.75 5.65 20.8 8.95 7.5 11.25 9.7 12.2 11.9 13.1 21.65 13.9 31.3 14.6 26.85 14.85 22.5 14.95 18.25 15.1 L9.85 15.7 4.9 16.3 Q4.45 17.0 4.8 17.75" fill="#96e0bc" fill-opacity="0.7058824" fill-rule="evenodd" stroke="none"/>
      <path d="M4.8 17.75 Q4.45 17.0 4.9 16.3 L9.85 15.7 18.25 15.1 Q22.5 14.95 26.85 14.85 31.3 14.6 21.65 13.9 11.9 13.1 9.7 12.2 7.5 11.25 20.8 8.95 33.75 5.65 52.8 4.3 76.15 2.85 87.8 4.55 102.65 6.25 112.6 10.25 116.7 11.45 116.05 13.5 120.6 13.6 124.0 14.4 128.85 15.25 122.1 16.25 123.8 17.2 122.0 18.25 L122.4 18.4 123.75 18.35 Q127.45 18.3 133.1 19.25 140.8 20.2 138.55 21.9 136.25 23.55 126.75 25.15 117.3 26.75 118.45 27.35 119.6 27.95 122.4 28.55 125.65 29.3 126.0 30.05 126.75 30.95 120.75 32.25 122.35 32.75 119.75 33.65 123.7 33.95 121.85 35.05 121.85 36.75 106.7 38.05 111.9 39.9 108.35 40.9 106.0 43.25 106.6 44.3 106.25 46.1 101.25 46.7 98.2 47.55 91.15 47.95 L78.35 48.6 Q74.2 48.65 69.3 49.35 65.8 50.05 70.35 48.65 74.45 47.25 66.55 46.3 59.55 45.3 53.1 45.1 46.65 44.75 44.7 43.45 42.95 42.25 49.6 39.8 41.2 40.55 39.25 39.95 25.6 40.2 32.25 38.1 29.6 37.3 33.85 35.55 L26.25 34.65 Q24.05 34.05 21.35 33.65 19.6 33.3 16.3 32.85 12.8 32.3 15.75 30.5 18.9 29.1 23.8 28.45 28.65 27.65 21.7 26.35 15.15 24.75 25.55 24.0 35.65 22.45 25.8 21.7 18.0 21.15 11.3 20.1 4.65 18.95 4.85 17.4" fill="none" stroke="#000000" stroke-linecap="round" stroke-linejoin="round" stroke-opacity="0.0" stroke-width="1.0"/>
    </g>
    <g id="morphshape1" transform="matrix(1.0, 0.0, 0.0, 1.0, -17.5, -9.15)">
      <path d="M122.75 22.55 Q122.75 23.3 123.2 24.0 123.95 25.05 126.8 24.8 L126.05 22.6 Q125.05 22.25 122.75 22.55 M101.45 31.55 Q101.45 31.9 102.55 32.7 L105.85 32.8 108.0 31.8 Q110.2 30.75 110.6 30.25 L109.1 29.05 104.9 28.65 Q101.45 28.85 101.45 31.55 M87.8 40.1 L88.2 40.85 Q89.2 41.2 90.45 41.5 L92.8 41.75 96.25 41.7 96.85 41.5 97.2 41.15 97.35 40.5 97.3 40.0 Q97.2 39.25 96.6 38.85 95.6 38.15 91.3 38.15 89.5 38.4 88.05 39.35 L87.7 40.05 M77.45 36.15 L77.45 36.2 77.8 36.9 Q78.7 37.25 79.95 37.6 L82.2 37.9 85.5 37.9 86.05 37.75 86.4 37.45 86.6 36.8 86.6 36.35 Q86.5 35.6 85.95 35.2 85.0 34.5 80.95 34.5 79.25 34.75 77.85 35.55 L77.55 36.2 M61.85 36.9 L62.4 37.8 68.75 38.2 Q72.8 38.2 75.65 35.95 75.65 34.05 69.6 33.9 63.35 33.8 61.85 36.9 M57.7 41.4 Q57.8 41.85 57.95 42.15 L61.0 42.15 Q61.45 41.9 61.7 40.3 L58.2 40.5 Q57.7 40.85 57.7 41.4 M49.0 35.3 L50.2 36.5 Q52.25 37.65 56.55 37.65 58.1 37.65 59.85 35.5 59.85 32.55 54.45 32.6 49.0 32.65 49.0 35.3 M29.65 29.45 Q29.75 30.0 32.45 31.25 35.85 32.3 39.45 32.3 L43.25 31.75 Q44.35 31.05 44.8 29.0 44.4 26.15 36.8 26.3 29.15 26.4 29.55 29.4 M20.35 14.35 Q20.35 14.8 20.8 15.5 L21.75 16.45 28.6 16.55 Q29.8 15.65 29.8 15.1 29.8 13.25 25.1 13.15 20.35 13.1 20.35 14.35" fill="#bef0d8" fill-opacity="0.7058824" fill-rule="evenodd" stroke="none"/>
      <path d="M20.35 14.35 Q20.35 13.1 25.1 13.15 29.8 13.25 29.8 15.1 29.8 15.65 28.6 16.55 L21.75 16.45 20.8 15.5 Q20.35 14.8 20.35 14.35 M29.55 29.4 Q29.15 26.4 36.8 26.3 44.4 26.15 44.8 29.0 44.35 31.05 43.25 31.75 L39.45 32.3 Q35.85 32.3 32.45 31.25 29.75 30.0 29.65 29.45 M49.0 35.3 Q49.0 32.65 54.45 32.6 59.85 32.55 59.85 35.5 58.1 37.65 56.55 37.65 52.25 37.65 50.2 36.5 L49.0 35.3 M57.7 41.4 Q57.7 40.85 58.2 40.5 L61.7 40.3 Q61.45 41.9 61.0 42.15 L57.95 42.15 Q57.8 41.85 57.7 41.4 M61.85 36.9 Q63.35 33.8 69.6 33.9 75.65 34.05 75.65 35.95 72.8 38.2 68.75 38.2 L62.4 37.8 61.85 36.9 M77.55 36.2 L77.85 35.55 Q79.25 34.75 80.95 34.5 85.0 34.5 85.95 35.2 86.5 35.6 86.6 36.35 L86.6 36.8 86.4 37.45 86.05 37.75 85.5 37.9 82.2 37.9 79.95 37.6 Q78.7 37.25 77.8 36.9 L77.45 36.2 77.45 36.15 M87.7 40.05 L88.05 39.35 Q89.5 38.4 91.3 38.15 95.6 38.15 96.6 38.85 97.2 39.25 97.3 40.0 L97.35 40.5 97.2 41.15 96.85 41.5 96.25 41.7 92.8 41.75 90.45 41.5 Q89.2 41.2 88.2 40.85 L87.8 40.1 M101.45 31.55 Q101.45 28.85 104.9 28.65 L109.1 29.05 110.6 30.25 Q110.2 30.75 108.0 31.8 L105.85 32.8 102.55 32.7 Q101.45 31.9 101.45 31.55 M122.75 22.55 Q125.05 22.25 126.05 22.6 L126.8 24.8 Q123.95 25.05 123.2 24.0 122.75 23.3 122.75 22.55 Z" fill="none" stroke="#000000" stroke-linecap="round" stroke-linejoin="round" stroke-opacity="0.0" stroke-width="1.0"/>
    </g>
    <g id="morphshape2" transform="matrix(1.0, 0.0, 0.0, 1.0, -37.6, -4.7)">
      <path d="M104.7 17.1 Q104.7 18.25 104.95 18.65 L105.75 19.2 Q108.3 18.45 109.55 17.95 110.25 17.45 109.2 14.4 106.8 14.6 105.75 15.25 104.7 15.85 104.7 17.1 M92.1 19.1 Q92.1 20.15 92.7 20.75 L95.75 20.95 Q96.2 19.95 95.95 17.85 L92.2 17.75 92.1 19.1 M90.75 10.35 Q90.75 11.4 91.15 12.3 L97.1 12.3 Q98.15 11.25 98.15 7.75 93.45 7.3 91.8 8.15 90.75 8.75 90.75 10.35 M82.45 19.15 Q82.5 20.1 83.25 21.95 83.9 22.4 85.45 22.55 L86.25 21.35 Q86.75 20.65 86.05 18.85 L82.45 19.15 M76.9 11.1 Q76.5 13.0 77.3 14.5 78.3 16.25 80.55 16.25 81.7 16.25 82.9 14.5 82.05 12.1 80.4 11.45 L76.9 11.1 M65.2 11.45 L65.25 12.9 65.6 13.45 71.05 14.2 74.35 14.6 Q76.1 14.6 75.0 12.15 75.0 9.1 70.1 8.95 65.2 8.85 65.2 11.45 M56.1 17.5 L56.2 18.5 56.4 18.8 Q56.75 19.0 57.15 19.05 57.95 19.15 59.05 19.25 L62.0 18.9 Q62.2 17.65 61.8 15.35 61.1 14.0 60.45 13.15 59.3 12.45 58.1 12.8 56.05 13.85 56.05 17.5 M50.5 14.65 L50.5 14.75 50.55 15.6 50.75 15.85 Q51.0 16.1 51.35 16.15 L53.15 16.35 Q54.8 16.0 55.85 15.95 56.1 14.75 55.85 12.7 55.25 11.4 54.7 10.55 53.65 9.95 52.5 10.2 50.55 11.25 50.55 14.65 M39.5 12.35 L40.6 14.45 Q42.3 16.6 45.3 16.6 49.2 16.6 49.2 13.4 49.2 10.4 44.35 9.6 39.5 8.75 39.5 12.35" fill="#bef0d8" fill-opacity="0.7058824" fill-rule="evenodd" stroke="none"/>
      <path d="M39.5 12.35 Q39.5 8.75 44.35 9.6 49.2 10.4 49.2 13.4 49.2 16.6 45.3 16.6 42.3 16.6 40.6 14.45 L39.5 12.35 M50.55 14.65 Q50.55 11.25 52.5 10.2 53.65 9.95 54.7 10.55 55.25 11.4 55.85 12.7 56.1 14.75 55.85 15.95 54.8 16.0 53.15 16.35 L51.35 16.15 Q51.0 16.1 50.75 15.85 L50.55 15.6 50.5 14.75 50.5 14.65 M56.05 17.5 Q56.05 13.85 58.1 12.8 59.3 12.45 60.45 13.15 61.1 14.0 61.8 15.35 62.2 17.65 62.0 18.9 L59.05 19.25 Q57.95 19.15 57.15 19.05 56.75 19.0 56.4 18.8 L56.2 18.5 56.1 17.5 M65.2 11.45 Q65.2 8.85 70.1 8.95 75.0 9.1 75.0 12.15 76.1 14.6 74.35 14.6 L71.05 14.2 65.6 13.45 65.25 12.9 65.2 11.45 M76.9 11.1 L80.4 11.45 Q82.05 12.1 82.9 14.5 81.7 16.25 80.55 16.25 78.3 16.25 77.3 14.5 76.5 13.0 76.9 11.1 M82.45 19.15 L86.05 18.85 Q86.75 20.65 86.25 21.35 L85.45 22.55 Q83.9 22.4 83.25 21.95 82.5 20.1 82.45 19.15 M90.75 10.35 Q90.75 8.75 91.8 8.15 93.45 7.3 98.15 7.75 98.15 11.25 97.1 12.3 L91.15 12.3 Q90.75 11.4 90.75 10.35 M92.1 19.1 L92.2 17.75 95.95 17.85 Q96.2 19.95 95.75 20.95 L92.7 20.75 Q92.1 20.15 92.1 19.1 M104.7 17.1 Q104.7 15.85 105.75 15.25 106.8 14.6 109.2 14.4 110.25 17.45 109.55 17.95 108.3 18.45 105.75 19.2 L104.95 18.65 Q104.7 18.25 104.7 17.1 Z" fill="none" stroke="#000000" stroke-linecap="round" stroke-linejoin="round" stroke-opacity="0.0" stroke-width="1.0"/>
    </g>
    <g id="morphshape3" transform="matrix(1.0, 0.0, 0.0, 1.0, -32.35, -6.65)">
      <path d="M95.15 8.45 Q95.15 9.6 95.3 10.0 L95.75 10.75 97.75 10.75 98.25 10.25 98.4 9.05 98.15 7.55 Q97.85 7.1 95.3 7.05 95.15 6.7 95.15 8.45 M68.95 11.2 Q68.7 11.55 69.25 12.45 69.65 12.9 70.4 13.2 L73.15 13.55 Q73.65 13.1 73.65 12.4 73.45 11.95 69.5 10.75 L68.95 11.2 M66.0 34.3 L66.3 36.25 Q66.5 37.3 66.95 38.15 L70.45 38.15 Q70.65 37.85 70.95 37.7 L70.55 34.6 67.0 34.05 Q66.2 34.0 66.0 34.3 M42.65 14.25 L42.85 15.6 43.2 16.1 44.75 16.15 Q45.8 16.15 46.4 15.7 46.6 15.55 46.6 13.8 46.6 12.65 46.25 12.1 L45.55 11.45 42.75 12.55 42.65 14.25 M35.2 29.2 L35.45 30.2 Q35.8 31.0 36.25 31.3 40.35 30.75 40.35 28.35 40.35 27.25 40.0 26.95 L39.15 26.6 37.4 26.85 35.55 27.0 35.2 29.2" fill="#ffffff" fill-opacity="0.7058824" fill-rule="evenodd" stroke="none"/>
      <path d="M35.2 29.2 L35.55 27.0 37.4 26.85 39.15 26.6 40.0 26.95 Q40.35 27.25 40.35 28.35 40.35 30.75 36.25 31.3 35.8 31.0 35.45 30.2 L35.2 29.2 M42.65 14.25 L42.75 12.55 45.55 11.45 46.25 12.1 Q46.6 12.65 46.6 13.8 46.6 15.55 46.4 15.7 45.8 16.15 44.75 16.15 L43.2 16.1 42.85 15.6 42.65 14.25 M66.0 34.3 Q66.2 34.0 67.0 34.05 L70.55 34.6 70.95 37.7 Q70.65 37.85 70.45 38.15 L66.95 38.15 Q66.5 37.3 66.3 36.25 L66.0 34.3 M68.95 11.2 L69.5 10.75 Q73.45 11.95 73.65 12.4 73.65 13.1 73.15 13.55 L70.4 13.2 Q69.65 12.9 69.25 12.45 68.7 11.55 68.95 11.2 M95.15 8.45 Q95.15 6.7 95.3 7.05 97.85 7.1 98.15 7.55 L98.4 9.05 98.25 10.25 97.75 10.75 95.75 10.75 95.3 10.0 Q95.15 9.6 95.15 8.45 Z" fill="none" stroke="#000000" stroke-linecap="round" stroke-linejoin="round" stroke-opacity="0.0" stroke-width="1.0"/>
    </g>
  </defs>
</svg>
