<?xml version="1.0" encoding="UTF-8" standalone="no"?>
<svg xmlns:xlink="http://www.w3.org/1999/xlink" height="47.45px" width="141.0px" xmlns="http://www.w3.org/2000/svg">
  <g transform="matrix(1.0, 0.0, 0.0, 1.0, -4.35, -2.9)">
    <use data-characterId="3188" height="47.45" transform="matrix(1.0, 0.0, 0.0, 1.0, 4.35, 2.9)" width="141.0" xlink:href="#morphshape0"/>
    <use data-characterId="3189" height="37.5" transform="matrix(1.0, 0.0, 0.0, 1.0, 17.5, 9.15)" width="116.05" xlink:href="#morphshape1"/>
    <use data-characterId="3190" height="21.8" transform="matrix(1.0, 0.0, 0.0, 1.0, 37.6, 4.7)" width="75.1" xlink:href="#morphshape2"/>
    <use data-characterId="3191" height="35.65" transform="matrix(1.0, 0.0, 0.0, 1.0, 32.35, 6.65)" width="66.65" xlink:href="#morphshape3"/>
  </g>
  <defs>
    <g id="morphshape0" transform="matrix(1.0, 0.0, 0.0, 1.0, -4.35, -2.9)">
      <path d="M4.75 18.45 Q4.75 19.95 10.65 21.05 16.6 22.0 23.45 22.5 32.8 23.3 24.75 25.05 16.3 25.75 21.3 27.3 26.75 28.5 22.75 29.3 18.75 29.95 16.25 31.3 13.95 33.1 17.1 33.65 19.95 34.1 21.8 34.45 24.75 34.8 27.0 35.45 L33.15 36.4 Q29.55 38.25 32.9 39.05 28.25 40.75 40.2 40.55 41.6 41.3 48.45 40.85 43.05 43.0 45.2 44.3 47.55 45.65 53.6 45.9 59.2 46.1 65.55 47.2 72.6 48.25 69.8 49.35 66.4 50.45 70.15 49.6 75.15 48.7 79.15 48.6 L90.9 47.9 Q97.3 47.5 100.4 46.7 105.85 46.25 106.85 44.2 106.6 43.1 108.6 40.95 112.65 40.0 108.7 38.3 121.75 36.7 120.9 35.05 122.35 34.1 119.1 33.85 123.1 32.85 121.9 32.25 126.9 31.0 125.75 30.1 125.2 29.35 122.25 28.6 119.9 28.05 120.15 27.35 120.4 26.65 128.4 24.95 136.4 23.25 137.75 21.65 139.0 20.0 131.7 19.2 126.9 18.4 123.7 18.45 L122.55 18.5 122.1 18.35 Q124.4 17.15 122.35 16.05 127.25 15.15 122.65 14.4 119.85 13.75 116.15 13.65 116.9 11.2 111.85 9.7 101.6 5.75 84.6 4.35 71.6 2.95 48.9 4.75 29.9 6.45 19.55 9.7 8.75 11.7 10.6 12.55 12.45 13.35 20.45 14.1 28.35 14.75 24.6 15.0 20.95 15.05 17.4 15.2 L8.9 15.85 4.85 16.3 Q4.35 17.2 4.8 18.1" fill="#96e0bc" fill-opacity="0.7058824" fill-rule="evenodd" stroke="none"/>
      <path d="M4.8 18.1 Q4.35 17.2 4.85 16.3 L8.9 15.85 17.4 15.2 Q20.95 15.05 24.6 15.0 28.35 14.75 20.45 14.1 12.45 13.35 10.6 12.55 8.75 11.7 19.55 9.7 29.9 6.45 48.9 4.75 71.6 2.95 84.6 4.35 101.6 5.75 111.85 9.7 116.9 11.2 116.15 13.65 119.85 13.75 122.65 14.4 127.25 15.15 122.35 16.05 124.4 17.15 122.1 18.35 L122.55 18.5 123.7 18.45 Q126.9 18.4 131.7 19.2 139.0 20.0 137.75 21.65 136.4 23.25 128.4 24.95 120.4 26.65 120.15 27.35 119.9 28.05 122.25 28.6 125.2 29.35 125.75 30.1 126.9 31.0 121.9 32.25 123.1 32.85 119.1 33.85 122.35 34.1 120.9 35.05 121.75 36.7 108.7 38.3 112.65 40.0 108.6 40.95 106.6 43.1 106.85 44.2 105.85 46.25 100.4 46.7 97.3 47.5 90.9 47.9 L79.15 48.6 Q75.15 48.7 70.15 49.6 66.4 50.45 69.8 49.35 72.6 48.25 65.55 47.2 59.2 46.1 53.6 45.9 47.55 45.65 45.2 44.3 43.05 43.0 48.45 40.85 41.6 41.3 40.2 40.55 28.25 40.75 32.9 39.05 29.55 38.25 33.15 36.4 L27.0 35.45 Q24.75 34.8 21.8 34.45 19.95 34.1 17.1 33.65 13.95 33.1 16.25 31.3 18.75 29.95 22.75 29.3 26.75 28.5 21.3 27.3 16.3 25.75 24.75 25.05 32.8 23.3 23.45 22.5 16.6 22.0 10.65 21.05 4.75 19.95 4.75 18.45" fill="none" stroke="#000000" stroke-linecap="round" stroke-linejoin="round" stroke-opacity="0.0" stroke-width="1.0"/>
    </g>
    <g id="morphshape1" transform="matrix(1.0, 0.0, 0.0, 1.0, -17.5, -9.15)">
      <path d="M121.25 22.75 Q121.25 23.5 121.7 24.2 122.45 25.25 125.3 25.0 L124.55 22.8 Q123.55 22.45 121.25 22.75 M101.05 31.0 Q101.05 31.35 102.15 32.15 L105.45 32.25 107.6 31.25 Q109.8 30.2 110.2 29.7 L108.7 28.5 104.5 28.1 Q101.05 28.3 101.05 31.0 M87.1 38.8 L87.45 39.55 Q88.35 39.9 89.6 40.25 L91.85 40.55 95.15 40.55 95.7 40.4 96.05 40.1 96.25 39.45 96.25 39.0 Q96.15 38.25 95.6 37.85 94.65 37.15 90.6 37.15 88.9 37.4 87.5 38.2 L87.2 38.85 M77.2 37.35 L77.2 37.4 77.6 38.1 Q78.6 38.45 79.85 38.75 L82.2 39.0 85.65 38.95 86.25 38.75 86.6 38.4 86.75 37.75 86.7 37.25 Q86.6 36.5 86.0 36.1 85.0 35.4 80.7 35.4 78.9 35.65 77.45 36.6 L77.1 37.3 M61.95 35.95 L62.5 36.85 68.85 37.25 Q72.9 37.25 75.75 35.0 75.75 33.1 69.7 32.95 63.45 32.85 61.95 35.95 M58.45 41.6 Q58.5 42.05 58.7 42.35 L61.75 42.35 Q62.2 42.1 62.45 40.5 L58.95 40.7 Q58.45 41.05 58.45 41.6 M49.0 35.6 L50.2 36.8 Q52.25 37.95 56.55 37.95 58.1 37.95 59.85 35.8 59.85 32.85 54.45 32.9 49.0 32.95 49.0 35.6 M28.85 29.15 Q28.95 29.75 31.65 31.1 35.05 32.35 38.7 32.35 L42.55 31.9 Q43.65 31.25 44.2 29.25 43.85 26.4 36.25 26.3 28.6 26.2 28.95 29.2 M19.8 15.3 Q19.8 15.75 20.25 16.45 L21.2 17.4 28.05 17.5 Q29.25 16.6 29.25 16.05 29.25 14.2 24.55 14.1 19.8 14.05 19.8 15.3" fill="#bef0d8" fill-opacity="0.7058824" fill-rule="evenodd" stroke="none"/>
      <path d="M19.8 15.3 Q19.8 14.05 24.55 14.1 29.25 14.2 29.25 16.05 29.25 16.6 28.05 17.5 L21.2 17.4 20.25 16.45 Q19.8 15.75 19.8 15.3 M28.95 29.2 Q28.6 26.2 36.25 26.3 43.85 26.4 44.2 29.25 43.65 31.25 42.55 31.9 L38.7 32.35 Q35.05 32.35 31.65 31.1 28.95 29.75 28.85 29.15 M49.0 35.6 Q49.0 32.95 54.45 32.9 59.85 32.85 59.85 35.8 58.1 37.95 56.55 37.95 52.25 37.95 50.2 36.8 L49.0 35.6 M58.45 41.6 Q58.45 41.05 58.95 40.7 L62.45 40.5 Q62.2 42.1 61.75 42.35 L58.7 42.35 Q58.5 42.05 58.45 41.6 M61.95 35.95 Q63.45 32.85 69.7 32.95 75.75 33.1 75.75 35.0 72.9 37.25 68.85 37.25 L62.5 36.85 61.95 35.95 M77.1 37.3 L77.45 36.6 Q78.9 35.65 80.7 35.4 85.0 35.4 86.0 36.1 86.6 36.5 86.7 37.25 L86.75 37.75 86.6 38.4 86.25 38.75 85.65 38.95 82.2 39.0 79.85 38.75 Q78.6 38.45 77.6 38.1 L77.2 37.4 77.2 37.35 M87.2 38.85 L87.5 38.2 Q88.9 37.4 90.6 37.15 94.65 37.15 95.6 37.85 96.15 38.25 96.25 39.0 L96.25 39.45 96.05 40.1 95.7 40.4 95.15 40.55 91.85 40.55 89.6 40.25 Q88.35 39.9 87.45 39.55 L87.1 38.8 M101.05 31.0 Q101.05 28.3 104.5 28.1 L108.7 28.5 110.2 29.7 Q109.8 30.2 107.6 31.25 L105.45 32.25 102.15 32.15 Q101.05 31.35 101.05 31.0 M121.25 22.75 Q123.55 22.45 124.55 22.8 L125.3 25.0 Q122.45 25.25 121.7 24.2 121.25 23.5 121.25 22.75 Z" fill="none" stroke="#000000" stroke-linecap="round" stroke-linejoin="round" stroke-opacity="0.0" stroke-width="1.0"/>
    </g>
    <g id="morphshape2" transform="matrix(1.0, 0.0, 0.0, 1.0, -37.6, -4.7)">
      <path d="M104.05 16.65 Q104.05 17.8 104.3 18.2 L105.1 18.75 Q107.55 18.05 108.9 17.5 109.6 17.0 108.55 13.95 106.15 14.15 105.1 14.8 104.05 15.4 104.05 16.65 M91.65 19.7 Q91.65 20.75 92.25 21.35 L95.3 21.55 Q95.75 20.55 95.5 18.45 L91.75 18.35 91.65 19.7 M90.2 10.65 Q90.2 11.7 90.6 12.6 L96.55 12.6 Q97.6 11.55 97.6 8.05 92.9 7.6 91.25 8.45 90.2 9.05 90.2 10.65 M81.9 19.9 Q81.95 20.85 82.7 22.7 83.35 23.15 84.9 23.3 L85.7 22.1 Q86.2 21.4 85.5 19.6 L81.9 19.9 M77.25 10.2 Q76.85 12.1 77.65 13.6 78.65 15.35 80.9 15.35 82.05 15.35 83.25 13.6 82.4 11.2 80.75 10.55 L77.25 10.2 M65.5 12.0 L65.55 13.45 65.9 14.0 71.35 14.75 74.65 15.15 Q76.4 15.15 75.3 12.7 75.3 9.65 70.4 9.5 65.5 9.4 65.5 12.0 M56.0 16.2 L56.05 17.15 56.25 17.4 Q56.5 17.65 56.85 17.7 57.55 17.8 58.65 17.9 L61.35 17.5 Q61.6 16.3 61.35 14.25 60.75 12.95 60.2 12.1 59.15 11.5 58.0 11.75 56.05 12.8 56.05 16.2 M50.15 16.2 L50.15 16.3 50.25 17.2 50.45 17.5 Q50.8 17.7 51.2 17.75 L53.1 17.95 Q54.8 17.65 56.05 17.6 56.25 16.35 55.85 14.05 55.15 12.7 54.5 11.85 53.35 11.15 52.15 11.5 50.1 12.55 50.1 16.2 M39.15 11.9 L40.25 14.0 Q41.95 16.15 44.95 16.15 48.85 16.15 48.85 12.95 48.85 9.95 44.0 9.15 39.15 8.3 39.15 11.9" fill="#bef0d8" fill-opacity="0.7058824" fill-rule="evenodd" stroke="none"/>
      <path d="M39.15 11.9 Q39.15 8.3 44.0 9.15 48.85 9.95 48.85 12.95 48.85 16.15 44.95 16.15 41.95 16.15 40.25 14.0 L39.15 11.9 M50.1 16.2 Q50.1 12.55 52.15 11.5 53.35 11.15 54.5 11.85 55.15 12.7 55.85 14.05 56.25 16.35 56.05 17.6 54.8 17.65 53.1 17.95 L51.2 17.75 Q50.8 17.7 50.45 17.5 L50.25 17.2 50.15 16.3 50.15 16.2 M56.05 16.2 Q56.05 12.8 58.0 11.75 59.15 11.5 60.2 12.1 60.75 12.95 61.35 14.25 61.6 16.3 61.35 17.5 L58.65 17.9 Q57.55 17.8 56.85 17.7 56.5 17.65 56.25 17.4 L56.05 17.15 56.0 16.2 M65.5 12.0 Q65.5 9.4 70.4 9.5 75.3 9.65 75.3 12.7 76.4 15.15 74.65 15.15 L71.35 14.75 65.9 14.0 65.55 13.45 65.5 12.0 M77.25 10.2 L80.75 10.55 Q82.4 11.2 83.25 13.6 82.05 15.35 80.9 15.35 78.65 15.35 77.65 13.6 76.85 12.1 77.25 10.2 M81.9 19.9 L85.5 19.6 Q86.2 21.4 85.7 22.1 L84.9 23.3 Q83.35 23.15 82.7 22.7 81.95 20.85 81.9 19.9 M90.2 10.65 Q90.2 9.05 91.25 8.45 92.9 7.6 97.6 8.05 97.6 11.55 96.55 12.6 L90.6 12.6 Q90.2 11.7 90.2 10.65 M91.65 19.7 L91.75 18.35 95.5 18.45 Q95.75 20.55 95.3 21.55 L92.25 21.35 Q91.65 20.75 91.65 19.7 M104.05 16.65 Q104.05 15.4 105.1 14.8 106.15 14.15 108.55 13.95 109.6 17.0 108.9 17.5 107.55 18.05 105.1 18.75 L104.3 18.2 Q104.05 17.8 104.05 16.65 Z" fill="none" stroke="#000000" stroke-linecap="round" stroke-linejoin="round" stroke-opacity="0.0" stroke-width="1.0"/>
    </g>
    <g id="morphshape3" transform="matrix(1.0, 0.0, 0.0, 1.0, -32.35, -6.65)">
      <path d="M95.0 8.55 Q95.0 9.7 95.15 10.1 L95.6 10.85 97.6 10.85 98.1 10.35 98.25 9.15 98.0 7.65 Q97.7 7.2 95.15 7.15 95.0 6.8 95.0 8.55 M69.1 11.65 Q68.85 12.0 69.4 12.9 69.85 13.3 70.55 13.65 L73.3 14.0 Q73.8 13.55 73.8 12.85 73.6 12.4 69.65 11.2 L69.1 11.65 M66.05 33.4 L66.35 35.35 Q66.55 36.4 67.0 37.25 L70.5 37.25 Q70.75 37.0 71.0 36.8 L70.6 33.7 67.05 33.15 Q66.25 33.1 66.05 33.4 M42.15 14.05 L42.35 15.4 42.7 15.9 44.25 15.95 Q45.3 15.95 45.9 15.5 46.1 15.35 46.1 13.6 46.1 12.45 45.75 11.9 L45.05 11.25 42.25 12.35 42.15 14.05 M34.7 29.2 L34.95 30.2 Q35.3 31.0 35.75 31.3 39.85 30.75 39.85 28.35 39.85 27.25 39.5 26.95 L38.65 26.6 36.9 26.85 35.05 27.0 34.7 29.2" fill="#ffffff" fill-opacity="0.7058824" fill-rule="evenodd" stroke="none"/>
      <path d="M34.7 29.2 L35.05 27.0 36.9 26.85 38.65 26.6 39.5 26.95 Q39.85 27.25 39.85 28.35 39.85 30.75 35.75 31.3 35.3 31.0 34.95 30.2 L34.7 29.2 M42.15 14.05 L42.25 12.35 45.05 11.25 45.75 11.9 Q46.1 12.45 46.1 13.6 46.1 15.35 45.9 15.5 45.3 15.95 44.25 15.95 L42.7 15.9 42.35 15.4 42.15 14.05 M66.05 33.4 Q66.25 33.1 67.05 33.15 L70.6 33.7 71.0 36.8 Q70.75 37.0 70.5 37.25 L67.0 37.25 Q66.55 36.4 66.35 35.35 L66.05 33.4 M69.1 11.65 L69.65 11.2 Q73.6 12.4 73.8 12.85 73.8 13.55 73.3 14.0 L70.55 13.65 Q69.85 13.3 69.4 12.9 68.85 12.0 69.1 11.65 M95.0 8.55 Q95.0 6.8 95.15 7.15 97.7 7.2 98.0 7.65 L98.25 9.15 98.1 10.35 97.6 10.85 95.6 10.85 95.15 10.1 Q95.0 9.7 95.0 8.55 Z" fill="none" stroke="#000000" stroke-linecap="round" stroke-linejoin="round" stroke-opacity="0.0" stroke-width="1.0"/>
    </g>
  </defs>
</svg>
