<?xml version="1.0" encoding="UTF-8" standalone="no"?>
<svg xmlns:xlink="http://www.w3.org/1999/xlink" height="47.45px" width="141.0px" xmlns="http://www.w3.org/2000/svg">
  <g transform="matrix(1.0, 0.0, 0.0, 1.0, -4.35, -2.9)">
    <use data-characterId="3192" height="47.45" transform="matrix(1.0, 0.0, 0.0, 1.0, 4.35, 2.9)" width="141.0" xlink:href="#morphshape0"/>
    <use data-characterId="3193" height="37.5" transform="matrix(1.0, 0.0, 0.0, 1.0, 17.5, 9.15)" width="116.05" xlink:href="#morphshape1"/>
    <use data-characterId="3194" height="21.8" transform="matrix(1.0, 0.0, 0.0, 1.0, 37.6, 4.7)" width="75.1" xlink:href="#morphshape2"/>
    <use data-characterId="3195" height="35.65" transform="matrix(1.0, 0.0, 0.0, 1.0, 32.35, 6.65)" width="66.65" xlink:href="#morphshape3"/>
  </g>
  <defs>
    <g id="morphshape0" transform="matrix(1.0, 0.0, 0.0, 1.0, -4.35, -2.9)">
      <path d="M4.6 16.95 Q4.1 18.5 12.35 19.85 20.65 21.15 30.45 21.75 41.35 22.45 27.1 23.65 12.65 24.4 22.5 26.1 32.55 27.65 25.95 28.35 19.3 28.95 14.8 30.55 10.4 32.35 14.7 32.8 18.9 33.2 20.55 33.65 22.65 34.1 24.8 34.5 L35.35 35.25 Q29.65 36.85 30.9 37.55 20.1 40.4 37.35 40.0 40.4 40.4 52.0 38.95 42.85 41.9 43.85 43.0 44.95 44.15 52.3 44.6 60.45 44.9 68.85 45.6 78.5 46.25 71.8 48.15 64.8 50.05 67.7 49.7 72.5 49.35 76.85 49.35 L91.7 48.85 Q100.15 48.45 103.1 47.4 107.1 46.45 106.2 45.1 104.8 44.1 107.75 41.45 110.35 40.35 102.65 38.2 122.1 37.4 123.8 35.55 126.5 34.05 121.2 33.7 120.9 33.1 118.35 32.7 126.3 31.25 126.25 30.4 126.4 29.55 122.55 28.7 118.95 27.95 115.0 27.55 111.1 27.15 123.6 25.85 136.15 24.55 140.35 22.75 144.55 20.95 136.15 19.6 128.85 18.25 124.2 18.3 L122.4 18.4 122.1 18.35 Q122.9 17.75 121.8 17.2 132.4 15.9 126.95 14.8 122.25 13.75 116.0 13.6 116.35 12.5 114.15 11.85 104.9 7.65 94.4 5.3 85.6 2.95 60.85 3.75 41.75 4.5 23.5 8.0 5.05 10.95 7.95 12.0 10.85 13.0 24.15 13.9 37.4 14.7 31.55 14.9 25.7 15.0 19.9 15.1 L11.7 15.5 4.9 16.3 Q4.65 16.7 4.85 17.1" fill="#96e0bc" fill-opacity="0.7058824" fill-rule="evenodd" stroke="none"/>
      <path d="M4.85 17.1 Q4.65 16.7 4.9 16.3 L11.7 15.5 19.9 15.1 Q25.7 15.0 31.55 14.9 37.4 14.7 24.15 13.9 10.85 13.0 7.95 12.0 5.05 10.95 23.5 8.0 41.75 4.5 60.85 3.75 85.6 2.95 94.4 5.3 104.9 7.65 114.15 11.85 116.35 12.5 116.0 13.6 122.25 13.75 126.95 14.8 132.4 15.9 121.8 17.2 122.9 17.75 122.1 18.35 L122.4 18.4 124.2 18.3 Q128.85 18.25 136.15 19.6 144.55 20.95 140.35 22.75 136.15 24.55 123.6 25.85 111.1 27.15 115.0 27.55 118.95 27.95 122.55 28.7 126.4 29.55 126.25 30.4 126.3 31.25 118.35 32.7 120.9 33.1 121.2 33.7 126.5 34.05 123.8 35.55 122.1 37.4 102.65 38.2 110.35 40.35 107.75 41.45 104.8 44.1 106.2 45.1 107.1 46.45 103.1 47.4 100.15 48.45 91.7 48.85 L76.85 49.35 Q72.5 49.35 67.7 49.7 64.8 50.05 71.8 48.15 78.5 46.25 68.85 45.6 60.45 44.9 52.3 44.6 44.95 44.15 43.85 43.0 42.85 41.9 52.0 38.95 40.4 40.4 37.35 40.0 20.1 40.4 30.9 37.55 29.65 36.85 35.35 35.25 L24.8 34.5 Q22.65 34.1 20.55 33.65 18.9 33.2 14.7 32.8 10.4 32.35 14.8 30.55 19.3 28.95 25.95 28.35 32.55 27.65 22.5 26.1 12.65 24.4 27.1 23.65 41.35 22.45 30.45 21.75 20.65 21.15 12.35 19.85 4.1 18.5 4.6 16.95" fill="none" stroke="#000000" stroke-linecap="round" stroke-linejoin="round" stroke-opacity="0.0" stroke-width="1.0"/>
    </g>
    <g id="morphshape1" transform="matrix(1.0, 0.0, 0.0, 1.0, -17.5, -9.15)">
      <path d="M125.9 22.15 Q125.9 22.9 126.35 23.6 127.1 24.65 129.95 24.4 L129.2 22.2 Q128.2 21.85 125.9 22.15 M102.2 32.7 Q102.2 33.05 103.3 33.85 L106.6 33.95 108.75 32.95 Q110.95 31.9 111.35 31.4 L109.85 30.2 105.65 29.8 Q102.2 30.0 102.2 32.7 M88.8 42.65 L88.8 42.65 89.25 43.45 Q90.5 43.7 91.85 43.95 L94.45 44.1 98.3 43.95 99.0 43.75 99.45 43.35 99.6 42.6 99.55 42.1 Q99.4 41.3 98.7 40.85 97.55 40.1 92.8 40.2 90.8 40.5 89.3 41.75 L88.85 42.5 M78.55 33.7 L78.85 34.35 Q79.5 34.8 80.65 35.2 L82.65 35.6 85.55 35.7 86.0 35.55 86.25 35.3 86.45 34.75 86.45 34.3 Q86.4 33.6 85.95 33.25 85.15 32.6 81.55 32.5 80.05 32.7 78.7 33.2 L78.5 33.8 M61.55 38.9 L62.1 39.8 68.45 40.2 Q72.5 40.2 75.35 37.95 75.35 36.05 69.3 35.9 63.05 35.8 61.55 38.9 M56.1 41.1 Q56.2 41.5 56.35 41.85 L59.4 41.85 Q59.85 41.6 60.1 40.0 L56.6 40.2 Q56.1 40.55 56.1 41.1 M49.0 34.6 L50.2 35.8 Q52.25 36.95 56.55 36.95 58.1 36.95 59.85 34.8 59.85 31.85 54.45 31.9 49.0 31.95 49.0 34.6 M30.75 29.8 Q30.9 30.35 33.7 31.45 37.2 32.1 40.8 32.15 L44.6 31.4 Q45.65 30.65 46.0 28.6 45.45 25.8 37.85 26.35 30.2 26.85 30.75 29.8 M21.4 12.5 Q21.4 12.95 21.85 13.65 L22.8 14.6 29.65 14.7 Q30.85 13.8 30.85 13.25 30.85 11.4 26.15 11.3 21.4 11.25 21.4 12.5" fill="#bef0d8" fill-opacity="0.7058824" fill-rule="evenodd" stroke="none"/>
      <path d="M21.4 12.5 Q21.4 11.25 26.15 11.3 30.85 11.4 30.85 13.25 30.85 13.8 29.65 14.7 L22.8 14.6 21.85 13.65 Q21.4 12.95 21.4 12.5 M30.75 29.8 Q30.2 26.85 37.85 26.35 45.45 25.8 46.0 28.6 45.65 30.65 44.6 31.4 L40.8 32.15 Q37.2 32.1 33.7 31.45 30.9 30.35 30.75 29.8 M49.0 34.6 Q49.0 31.95 54.45 31.9 59.85 31.85 59.85 34.8 58.1 36.95 56.55 36.95 52.25 36.95 50.2 35.8 L49.0 34.6 M56.1 41.1 Q56.1 40.55 56.6 40.2 L60.1 40.0 Q59.85 41.6 59.4 41.85 L56.35 41.85 Q56.2 41.5 56.1 41.1 M61.55 38.9 Q63.05 35.8 69.3 35.9 75.35 36.05 75.35 37.95 72.5 40.2 68.45 40.2 L62.1 39.8 61.55 38.9 M78.5 33.8 L78.7 33.2 Q80.05 32.7 81.55 32.5 85.15 32.6 85.95 33.25 86.4 33.6 86.45 34.3 L86.45 34.75 86.25 35.3 86.0 35.55 85.55 35.7 82.65 35.6 80.65 35.2 Q79.5 34.8 78.85 34.35 L78.55 33.7 M88.85 42.5 L89.3 41.75 Q90.8 40.5 92.8 40.2 97.55 40.1 98.7 40.85 99.4 41.3 99.55 42.1 L99.6 42.6 99.45 43.35 99.0 43.75 98.3 43.95 94.45 44.1 91.85 43.95 Q90.5 43.7 89.25 43.45 L88.8 42.65 88.8 42.65 M102.2 32.7 Q102.2 30.0 105.65 29.8 L109.85 30.2 111.35 31.4 Q110.95 31.9 108.75 32.95 L106.6 33.95 103.3 33.85 Q102.2 33.05 102.2 32.7 M125.9 22.15 Q128.2 21.85 129.2 22.2 L129.95 24.4 Q127.1 24.65 126.35 23.6 125.9 22.9 125.9 22.15 Z" fill="none" stroke="#000000" stroke-linecap="round" stroke-linejoin="round" stroke-opacity="0.0" stroke-width="1.0"/>
    </g>
    <g id="morphshape2" transform="matrix(1.0, 0.0, 0.0, 1.0, -37.6, -4.7)">
      <path d="M106.0 18.1 Q106.0 19.25 106.25 19.65 L107.05 20.2 Q109.85 19.45 110.85 18.95 111.55 18.45 110.5 15.4 108.1 15.6 107.05 16.25 106.0 16.85 106.0 18.1 M93.1 17.9 Q93.1 18.95 93.7 19.55 L96.75 19.75 Q97.2 18.75 96.95 16.65 L93.2 16.55 93.1 17.9 M91.85 9.7 Q91.85 10.75 92.25 11.65 L98.2 11.65 Q99.25 10.6 99.25 7.1 94.55 6.65 92.9 7.5 91.85 8.1 91.85 9.7 M83.5 17.65 Q83.55 18.6 84.3 20.45 84.95 20.9 86.5 21.05 L87.3 19.85 Q87.8 19.15 87.1 17.35 L83.5 17.65 M76.2 12.95 Q75.8 14.85 76.6 16.35 77.6 18.1 79.85 18.1 81.0 18.1 82.2 16.35 81.35 13.95 79.7 13.3 L76.2 12.95 M64.55 10.35 L64.6 11.8 64.95 12.35 70.4 13.1 73.7 13.5 Q75.45 13.5 74.35 11.05 74.35 8.0 69.45 7.85 64.55 7.75 64.55 10.35 M56.15 20.25 L56.15 20.3 56.25 21.35 56.55 21.7 Q57.0 21.8 57.45 21.8 58.45 21.85 59.65 21.9 L63.15 21.7 Q63.35 20.45 62.75 17.7 61.9 16.15 61.1 15.3 59.85 14.3 58.45 14.75 56.15 15.9 56.15 20.15 M51.5 11.35 L51.55 12.2 51.65 12.4 Q51.8 12.75 52.1 12.85 L53.6 13.15 Q55.1 12.65 55.8 12.55 56.05 11.35 56.0 9.75 55.55 8.65 55.15 7.8 54.2 7.5 53.25 7.65 51.55 8.6 51.55 11.4 M40.2 13.15 L41.3 15.25 Q43.0 17.4 46.0 17.4 49.9 17.4 49.9 14.2 49.9 11.2 45.05 10.4 40.2 9.55 40.2 13.15" fill="#bef0d8" fill-opacity="0.7058824" fill-rule="evenodd" stroke="none"/>
      <path d="M40.2 13.15 Q40.2 9.55 45.05 10.4 49.9 11.2 49.9 14.2 49.9 17.4 46.0 17.4 43.0 17.4 41.3 15.25 L40.2 13.15 M51.55 11.4 Q51.55 8.6 53.25 7.65 54.2 7.5 55.15 7.8 55.55 8.65 56.0 9.75 56.05 11.35 55.8 12.55 55.1 12.65 53.6 13.15 L52.1 12.85 Q51.8 12.75 51.65 12.4 L51.55 12.2 51.5 11.35 M56.15 20.15 Q56.15 15.9 58.45 14.75 59.85 14.3 61.1 15.3 61.9 16.15 62.75 17.7 63.35 20.45 63.15 21.7 L59.65 21.9 Q58.45 21.85 57.45 21.8 57.0 21.8 56.55 21.7 L56.25 21.35 56.15 20.3 56.15 20.25 M64.55 10.35 Q64.55 7.75 69.45 7.85 74.35 8.0 74.35 11.05 75.45 13.5 73.7 13.5 L70.4 13.1 64.95 12.35 64.6 11.8 64.55 10.35 M76.2 12.95 L79.7 13.3 Q81.35 13.95 82.2 16.35 81.0 18.1 79.85 18.1 77.6 18.1 76.6 16.35 75.8 14.85 76.2 12.95 M83.5 17.65 L87.1 17.35 Q87.8 19.15 87.3 19.85 L86.5 21.05 Q84.95 20.9 84.3 20.45 83.55 18.6 83.5 17.65 M91.85 9.7 Q91.85 8.1 92.9 7.5 94.55 6.65 99.25 7.1 99.25 10.6 98.2 11.65 L92.25 11.65 Q91.85 10.75 91.85 9.7 M93.1 17.9 L93.2 16.55 96.95 16.65 Q97.2 18.75 96.75 19.75 L93.7 19.55 Q93.1 18.95 93.1 17.9 M106.0 18.1 Q106.0 16.85 107.05 16.25 108.1 15.6 110.5 15.4 111.55 18.45 110.85 18.95 109.85 19.45 107.05 20.2 L106.25 19.65 Q106.0 19.25 106.0 18.1 Z" fill="none" stroke="#000000" stroke-linecap="round" stroke-linejoin="round" stroke-opacity="0.0" stroke-width="1.0"/>
    </g>
    <g id="morphshape3" transform="matrix(1.0, 0.0, 0.0, 1.0, -32.35, -6.65)">
      <path d="M94.35 8.8 Q94.35 9.95 94.5 10.35 L94.95 11.1 96.95 11.1 97.45 10.6 97.6 9.4 97.35 7.9 Q97.05 7.45 94.5 7.4 94.35 7.05 94.35 8.8 M68.7 10.4 Q68.5 10.75 69.15 11.55 69.5 11.9 70.35 12.15 71.7 12.25 73.05 12.15 73.5 11.65 73.4 10.95 72.7 10.7 69.15 9.85 L68.7 10.35 M65.9 35.95 L66.2 37.9 Q66.4 38.95 66.85 39.8 L70.35 39.8 Q70.55 39.5 70.85 39.35 L70.45 36.25 66.9 35.7 Q66.1 35.65 65.9 35.95 M43.55 14.75 L43.75 16.1 44.1 16.6 45.65 16.65 Q46.7 16.65 47.3 16.2 47.5 16.05 47.5 14.3 47.5 13.15 47.15 12.6 L46.45 11.95 43.65 13.05 43.55 14.75 M36.3 29.2 L36.55 30.2 Q36.9 31.0 37.35 31.3 41.45 30.75 41.45 28.35 41.45 27.25 41.1 26.95 L40.25 26.6 38.5 26.85 36.65 27.0 36.3 29.2" fill="#ffffff" fill-opacity="0.7058824" fill-rule="evenodd" stroke="none"/>
      <path d="M36.3 29.2 L36.65 27.0 38.5 26.85 40.25 26.6 41.1 26.95 Q41.45 27.25 41.45 28.35 41.45 30.75 37.35 31.3 36.9 31.0 36.55 30.2 L36.3 29.2 M43.55 14.75 L43.65 13.05 46.45 11.95 47.15 12.6 Q47.5 13.15 47.5 14.3 47.5 16.05 47.3 16.2 46.7 16.65 45.65 16.65 L44.1 16.6 43.75 16.1 43.55 14.75 M65.9 35.95 Q66.1 35.65 66.9 35.7 L70.45 36.25 70.85 39.35 Q70.55 39.5 70.35 39.8 L66.85 39.8 Q66.4 38.95 66.2 37.9 L65.9 35.95 M68.7 10.35 L69.15 9.85 Q72.7 10.7 73.4 10.95 73.5 11.65 73.05 12.15 71.7 12.25 70.35 12.15 69.5 11.9 69.15 11.55 68.5 10.75 68.7 10.4 M94.35 8.8 Q94.35 7.05 94.5 7.4 97.05 7.45 97.35 7.9 L97.6 9.4 97.45 10.6 96.95 11.1 94.95 11.1 94.5 10.35 Q94.35 9.95 94.35 8.8 Z" fill="none" stroke="#000000" stroke-linecap="round" stroke-linejoin="round" stroke-opacity="0.0" stroke-width="1.0"/>
    </g>
  </defs>
</svg>
