<?xml version="1.0" encoding="UTF-8" standalone="no"?>
<svg xmlns:xlink="http://www.w3.org/1999/xlink" height="47.45px" width="141.0px" xmlns="http://www.w3.org/2000/svg">
  <g transform="matrix(1.0, 0.0, 0.0, 1.0, -4.35, -2.9)">
    <use data-characterId="3192" height="47.45" transform="matrix(1.0, 0.0, 0.0, 1.0, 4.35, 2.9)" width="141.0" xlink:href="#morphshape0"/>
    <use data-characterId="3193" height="37.5" transform="matrix(1.0, 0.0, 0.0, 1.0, 17.5, 9.15)" width="116.05" xlink:href="#morphshape1"/>
    <use data-characterId="3194" height="21.8" transform="matrix(1.0, 0.0, 0.0, 1.0, 37.6, 4.7)" width="75.1" xlink:href="#morphshape2"/>
    <use data-characterId="3195" height="35.65" transform="matrix(1.0, 0.0, 0.0, 1.0, 32.35, 6.65)" width="66.65" xlink:href="#morphshape3"/>
  </g>
  <defs>
    <g id="morphshape0" transform="matrix(1.0, 0.0, 0.0, 1.0, -4.35, -2.9)">
      <path d="M4.6 16.9 Q3.95 18.45 12.75 19.85 21.6 21.2 32.1 21.8 43.35 22.45 27.65 23.55 11.8 24.3 22.75 26.05 33.85 27.7 26.65 28.35 19.4 28.95 14.45 30.65 9.55 32.45 14.1 32.9 18.6 33.3 20.2 33.8 22.1 34.3 24.25 34.6 L35.85 35.3 Q29.65 36.85 30.45 37.5 18.25 40.6 36.75 40.15 40.15 40.45 52.85 38.8 42.85 41.95 43.55 43.05 44.35 44.15 52.0 44.6 60.75 44.95 69.65 45.55 79.9 46.1 72.3 48.2 64.45 50.3 67.15 50.05 71.9 49.8 76.3 49.8 L91.85 49.35 Q100.8 48.95 103.75 47.85 107.4 46.8 106.05 45.6 104.35 44.65 107.55 41.9 109.85 40.75 101.25 38.5 122.2 37.9 124.5 36.0 127.5 34.35 121.7 33.95 120.4 33.45 117.55 33.1 126.2 31.6 126.4 30.75 126.75 29.9 122.7 29.0 118.8 28.2 113.9 27.85 109.0 27.5 122.6 26.3 136.2 25.1 141.1 23.25 145.95 21.4 137.3 19.9 129.4 18.4 124.45 18.45 L122.45 18.55 122.2 18.5 Q122.65 18.0 121.8 17.55 133.7 16.15 128.05 15.0 122.9 13.85 116.05 13.7 116.3 12.9 114.75 12.45 105.7 8.15 96.7 5.55 88.9 2.95 63.65 3.5 44.55 4.0 24.45 7.6 4.2 10.8 7.35 11.9 10.5 12.95 25.0 13.85 39.5 14.7 33.15 14.9 26.75 15.0 20.45 15.1 L12.35 15.45 4.9 16.3 Q4.7 16.55 4.85 16.85" fill="#96e0bc" fill-opacity="0.7058824" fill-rule="evenodd" stroke="none"/>
      <path d="M4.85 16.85 Q4.7 16.55 4.9 16.3 L12.35 15.45 20.45 15.1 Q26.75 15.0 33.15 14.9 39.5 14.7 25.0 13.85 10.5 12.95 7.35 11.9 4.2 10.8 24.45 7.6 44.55 4.0 63.65 3.5 88.9 2.95 96.7 5.55 105.7 8.15 114.75 12.45 116.3 12.9 116.05 13.7 122.9 13.85 128.05 15.0 133.7 16.15 121.8 17.55 122.65 18.0 122.2 18.5 L122.45 18.55 124.45 18.45 Q129.4 18.4 137.3 19.9 145.95 21.4 141.1 23.25 136.2 25.1 122.6 26.3 109.0 27.5 113.9 27.85 118.8 28.2 122.7 29.0 126.75 29.9 126.4 30.75 126.2 31.6 117.55 33.1 120.4 33.45 121.7 33.95 127.5 34.35 124.5 36.0 122.2 37.9 101.25 38.5 109.85 40.75 107.55 41.9 104.35 44.65 106.05 45.6 107.4 46.8 103.75 47.85 100.8 48.95 91.85 49.35 L76.3 49.8 Q71.9 49.8 67.15 50.05 64.45 50.3 72.3 48.2 79.9 46.1 69.65 45.55 60.75 44.95 52.0 44.6 44.35 44.15 43.55 43.05 42.85 41.95 52.85 38.8 40.15 40.45 36.75 40.15 18.25 40.6 30.45 37.5 29.65 36.85 35.85 35.3 L24.25 34.6 Q22.1 34.3 20.2 33.8 18.6 33.3 14.1 32.9 9.55 32.45 14.45 30.65 19.4 28.95 26.65 28.35 33.85 27.7 22.75 26.05 11.8 24.3 27.65 23.55 43.35 22.45 32.1 21.8 21.6 21.2 12.75 19.85 3.95 18.45 4.6 16.9" fill="none" stroke="#000000" stroke-linecap="round" stroke-linejoin="round" stroke-opacity="0.0" stroke-width="1.0"/>
    </g>
    <g id="morphshape1" transform="matrix(1.0, 0.0, 0.0, 1.0, -17.5, -9.15)">
      <path d="M126.95 22.0 Q126.95 22.75 127.4 23.45 128.15 24.5 131.0 24.25 L130.25 22.05 Q129.25 21.7 126.95 22.0 M102.45 33.1 Q102.45 33.45 103.55 34.25 L106.85 34.35 109.0 33.35 Q111.2 32.3 111.6 31.8 L110.1 30.6 105.9 30.2 Q102.45 30.4 102.45 33.1 M89.25 43.3 L89.25 43.3 89.75 44.15 Q91.05 44.4 92.45 44.65 L95.1 44.8 99.05 44.65 99.75 44.45 100.2 44.05 100.35 43.25 100.3 42.75 Q100.15 41.95 99.45 41.5 98.25 40.75 93.35 40.9 91.3 41.2 89.75 42.55 L89.25 43.35 M78.8 33.05 L79.05 33.7 Q79.65 34.15 80.75 34.55 L82.7 34.95 85.5 35.05 85.95 34.9 86.2 34.65 86.4 34.15 86.4 33.7 Q86.35 33.0 85.9 32.65 85.15 32.0 81.7 31.85 80.25 32.05 78.95 32.45 L78.8 33.0 M61.45 39.6 L62.0 40.5 68.35 40.9 Q72.4 40.9 75.25 38.65 75.25 36.75 69.2 36.6 62.95 36.5 61.45 39.6 M55.55 40.95 Q55.65 41.35 55.8 41.7 L58.85 41.7 Q59.3 41.45 59.55 39.85 L56.05 40.05 Q55.55 40.4 55.55 40.95 M49.0 34.4 L50.2 35.6 Q52.25 36.75 56.55 36.75 58.1 36.75 59.85 34.6 59.85 31.65 54.45 31.7 49.0 31.75 49.0 34.4 M31.1 30.0 Q31.25 30.55 34.05 31.6 37.6 32.1 41.2 32.15 L45.0 31.3 Q46.05 30.5 46.4 28.45 45.8 25.65 38.2 26.35 30.55 27.0 31.15 29.95 M21.8 11.85 Q21.8 12.3 22.25 13.0 L23.2 13.95 30.05 14.05 Q31.25 13.15 31.25 12.6 31.25 10.75 26.55 10.65 21.8 10.6 21.8 11.85" fill="#bef0d8" fill-opacity="0.7058824" fill-rule="evenodd" stroke="none"/>
      <path d="M21.8 11.85 Q21.8 10.6 26.55 10.65 31.25 10.75 31.25 12.6 31.25 13.15 30.05 14.05 L23.2 13.95 22.25 13.0 Q21.8 12.3 21.8 11.85 M31.15 29.95 Q30.55 27.0 38.2 26.35 45.8 25.65 46.4 28.45 46.05 30.5 45.0 31.3 L41.2 32.15 Q37.6 32.1 34.05 31.6 31.25 30.55 31.1 30.0 M49.0 34.4 Q49.0 31.75 54.45 31.7 59.85 31.65 59.85 34.6 58.1 36.75 56.55 36.75 52.25 36.75 50.2 35.6 L49.0 34.4 M55.55 40.95 Q55.55 40.4 56.05 40.05 L59.55 39.85 Q59.3 41.45 58.85 41.7 L55.8 41.7 Q55.65 41.35 55.55 40.95 M61.45 39.6 Q62.95 36.5 69.2 36.6 75.25 36.75 75.25 38.65 72.4 40.9 68.35 40.9 L62.0 40.5 61.45 39.6 M78.8 33.0 L78.95 32.45 Q80.25 32.05 81.7 31.85 85.15 32.0 85.9 32.65 86.35 33.0 86.4 33.7 L86.4 34.15 86.2 34.65 85.95 34.9 85.5 35.05 82.7 34.95 80.75 34.55 Q79.65 34.15 79.05 33.7 L78.8 33.05 M89.25 43.35 L89.75 42.55 Q91.3 41.2 93.35 40.9 98.25 40.75 99.45 41.5 100.15 41.95 100.3 42.75 L100.35 43.25 100.2 44.05 99.75 44.45 99.05 44.65 95.1 44.8 92.45 44.65 Q91.05 44.4 89.75 44.15 L89.25 43.3 89.25 43.3 M102.45 33.1 Q102.45 30.4 105.9 30.2 L110.1 30.6 111.6 31.8 Q111.2 32.3 109.0 33.35 L106.85 34.35 103.55 34.25 Q102.45 33.45 102.45 33.1 M126.95 22.0 Q129.25 21.7 130.25 22.05 L131.0 24.25 Q128.15 24.5 127.4 23.45 126.95 22.75 126.95 22.0 Z" fill="none" stroke="#000000" stroke-linecap="round" stroke-linejoin="round" stroke-opacity="0.0" stroke-width="1.0"/>
    </g>
    <g id="morphshape2" transform="matrix(1.0, 0.0, 0.0, 1.0, -37.6, -4.7)">
      <path d="M106.5 18.45 Q106.5 19.6 106.75 20.0 L107.55 20.55 Q110.45 19.8 111.35 19.3 112.05 18.8 111.0 15.75 108.6 15.95 107.55 16.6 106.5 17.2 106.5 18.45 M93.45 17.5 Q93.45 18.55 94.05 19.15 L97.1 19.35 Q97.55 18.35 97.3 16.25 L93.55 16.15 93.45 17.5 M92.2 9.45 Q92.2 10.5 92.6 11.4 L98.55 11.4 Q99.6 10.35 99.6 6.85 94.9 6.4 93.25 7.25 92.2 7.85 92.2 9.45 M83.9 17.15 Q83.95 18.1 84.7 19.95 85.35 20.4 86.9 20.55 L87.7 19.35 Q88.2 18.65 87.5 16.85 L83.9 17.15 M75.95 13.6 Q75.55 15.5 76.35 17.0 77.35 18.75 79.6 18.75 80.75 18.75 81.95 17.0 81.1 14.6 79.45 13.95 L75.95 13.6 M64.35 10.0 L64.4 11.45 64.75 12.0 70.2 12.75 73.5 13.15 Q75.25 13.15 74.15 10.7 74.15 7.65 69.25 7.5 64.35 7.4 64.35 10.0 M56.15 21.05 L56.15 21.1 56.25 22.2 56.6 22.6 Q57.05 22.7 57.55 22.7 58.65 22.75 59.85 22.8 L63.5 22.65 Q63.7 21.4 63.05 18.5 62.15 16.9 61.3 16.05 60.0 14.95 58.55 15.45 56.15 16.6 56.15 21.05 M51.9 10.3 L51.95 11.1 52.0 11.25 Q52.15 11.6 52.4 11.7 L53.8 12.05 Q55.25 11.5 55.8 11.4 56.05 10.2 56.05 8.75 55.65 7.7 55.3 6.85 54.4 6.65 53.5 6.75 51.9 7.7 51.9 10.3 M40.45 13.45 L41.55 15.55 Q43.25 17.7 46.25 17.7 50.15 17.7 50.15 14.5 50.15 11.5 45.3 10.7 40.45 9.85 40.45 13.45" fill="#bef0d8" fill-opacity="0.7058824" fill-rule="evenodd" stroke="none"/>
      <path d="M40.45 13.45 Q40.45 9.85 45.3 10.7 50.15 11.5 50.15 14.5 50.15 17.7 46.25 17.7 43.25 17.7 41.55 15.55 L40.45 13.45 M51.9 10.3 Q51.9 7.7 53.5 6.75 54.4 6.65 55.3 6.85 55.65 7.7 56.05 8.75 56.05 10.2 55.8 11.4 55.25 11.5 53.8 12.05 L52.4 11.7 Q52.15 11.6 52.0 11.25 L51.95 11.1 51.9 10.3 M56.15 21.05 Q56.15 16.6 58.55 15.45 60.0 14.95 61.3 16.05 62.15 16.9 63.05 18.5 63.7 21.4 63.5 22.65 L59.85 22.8 Q58.65 22.75 57.55 22.7 57.05 22.7 56.6 22.6 L56.25 22.2 56.15 21.1 56.15 21.05 M64.35 10.0 Q64.35 7.4 69.25 7.5 74.15 7.65 74.15 10.7 75.25 13.15 73.5 13.15 L70.2 12.75 64.75 12.0 64.4 11.45 64.35 10.0 M75.95 13.6 L79.45 13.95 Q81.1 14.6 81.95 17.0 80.75 18.75 79.6 18.75 77.35 18.75 76.35 17.0 75.55 15.5 75.95 13.6 M83.9 17.15 L87.5 16.85 Q88.2 18.65 87.7 19.35 L86.9 20.55 Q85.35 20.4 84.7 19.95 83.95 18.1 83.9 17.15 M92.2 9.45 Q92.2 7.85 93.25 7.25 94.9 6.4 99.6 6.85 99.6 10.35 98.55 11.4 L92.6 11.4 Q92.2 10.5 92.2 9.45 M93.45 17.5 L93.55 16.15 97.3 16.25 Q97.55 18.35 97.1 19.35 L94.05 19.15 Q93.45 18.55 93.45 17.5 M106.5 18.45 Q106.5 17.2 107.55 16.6 108.6 15.95 111.0 15.75 112.05 18.8 111.35 19.3 110.45 19.8 107.55 20.55 L106.75 20.0 Q106.5 19.6 106.5 18.45 Z" fill="none" stroke="#000000" stroke-linecap="round" stroke-linejoin="round" stroke-opacity="0.0" stroke-width="1.0"/>
    </g>
    <g id="morphshape3" transform="matrix(1.0, 0.0, 0.0, 1.0, -32.35, -6.65)">
      <path d="M94.8 8.6 Q94.8 9.75 94.95 10.15 L95.4 10.9 97.4 10.9 97.9 10.4 98.05 9.2 97.8 7.7 Q97.5 7.25 94.95 7.2 94.8 6.85 94.8 8.6 M68.6 9.9 Q68.4 10.25 69.0 11.1 69.35 11.5 70.2 11.75 71.55 11.9 72.9 11.9 73.35 11.4 73.3 10.7 72.75 10.4 69.1 9.45 L68.6 9.95 M65.85 36.7 L66.15 38.65 Q66.35 39.7 66.8 40.55 L70.3 40.55 Q70.5 40.25 70.8 40.1 L70.4 37.0 66.85 36.45 Q66.05 36.4 65.85 36.7 M43.9 14.95 L44.1 16.3 44.45 16.8 46.0 16.85 Q47.05 16.85 47.65 16.4 47.85 16.25 47.85 14.5 47.85 13.35 47.5 12.8 L46.8 12.15 44.0 13.25 43.9 14.95 M36.65 29.2 L36.9 30.2 Q37.25 31.0 37.7 31.3 41.8 30.75 41.8 28.35 41.8 27.25 41.45 26.95 L40.6 26.6 38.85 26.85 37.0 27.0 36.65 29.2" fill="#ffffff" fill-opacity="0.7058824" fill-rule="evenodd" stroke="none"/>
      <path d="M36.65 29.2 L37.0 27.0 38.85 26.85 40.6 26.6 41.45 26.95 Q41.8 27.25 41.8 28.35 41.8 30.75 37.7 31.3 37.25 31.0 36.9 30.2 L36.65 29.2 M43.9 14.95 L44.0 13.25 46.8 12.15 47.5 12.8 Q47.85 13.35 47.85 14.5 47.85 16.25 47.65 16.4 47.05 16.85 46.0 16.85 L44.45 16.8 44.1 16.3 43.9 14.95 M65.85 36.7 Q66.05 36.4 66.85 36.45 L70.4 37.0 70.8 40.1 Q70.5 40.25 70.3 40.55 L66.8 40.55 Q66.35 39.7 66.15 38.65 L65.85 36.7 M68.6 9.95 L69.1 9.45 Q72.75 10.4 73.3 10.7 73.35 11.4 72.9 11.9 71.55 11.9 70.2 11.75 69.35 11.5 69.0 11.1 68.4 10.25 68.6 9.9 M94.8 8.6 Q94.8 6.85 94.95 7.2 97.5 7.25 97.8 7.7 L98.05 9.2 97.9 10.4 97.4 10.9 95.4 10.9 94.95 10.15 Q94.8 9.75 94.8 8.6 Z" fill="none" stroke="#000000" stroke-linecap="round" stroke-linejoin="round" stroke-opacity="0.0" stroke-width="1.0"/>
    </g>
  </defs>
</svg>
