<?xml version="1.0" encoding="UTF-8" standalone="no"?>
<svg xmlns:xlink="http://www.w3.org/1999/xlink" height="47.45px" width="141.0px" xmlns="http://www.w3.org/2000/svg">
  <g transform="matrix(1.0, 0.0, 0.0, 1.0, -4.35, -2.9)">
    <use data-characterId="3192" height="47.45" transform="matrix(1.0, 0.0, 0.0, 1.0, 4.35, 2.9)" width="141.0" xlink:href="#morphshape0"/>
    <use data-characterId="3193" height="37.5" transform="matrix(1.0, 0.0, 0.0, 1.0, 17.5, 9.15)" width="116.05" xlink:href="#morphshape1"/>
    <use data-characterId="3194" height="21.8" transform="matrix(1.0, 0.0, 0.0, 1.0, 37.6, 4.7)" width="75.1" xlink:href="#morphshape2"/>
    <use data-characterId="3195" height="35.65" transform="matrix(1.0, 0.0, 0.0, 1.0, 32.35, 6.65)" width="66.65" xlink:href="#morphshape3"/>
  </g>
  <defs>
    <g id="morphshape0" transform="matrix(1.0, 0.0, 0.0, 1.0, -4.35, -2.9)">
      <path d="M4.95 16.65 Q4.2 18.25 13.65 19.75 23.1 21.2 34.4 21.85 46.1 22.5 28.7 23.45 11.25 24.25 23.55 26.05 35.9 27.8 27.95 28.45 19.95 29.0 14.45 30.75 9.0 32.55 13.9 33.0 18.75 33.4 20.3 33.9 22.0 34.4 24.1 34.65 L36.9 35.25 Q30.15 36.75 30.35 37.4 16.45 40.8 36.4 40.3 40.25 40.5 54.2 38.55 43.15 41.9 43.55 42.95 44.0 44.0 52.05 44.5 61.45 44.85 70.95 45.35 81.95 45.75 73.25 48.05 64.45 50.35 66.9 50.2 71.6 50.1 76.1 50.15 L92.5 49.75 Q102.05 49.35 104.95 48.15 108.2 47.0 106.35 45.95 104.3 45.0 107.75 42.15 109.65 40.95 100.0 38.55 122.65 38.2 125.6 36.25 128.9 34.45 122.55 34.05 120.05 33.7 116.8 33.4 126.25 31.8 126.75 30.95 127.3 30.1 123.0 29.2 118.75 28.3 112.7 28.0 106.7 27.7 121.5 26.6 136.35 25.5 142.0 23.6 147.65 21.7 138.7 20.05 130.15 18.4 124.8 18.45 L122.65 18.55 122.45 18.5 Q122.5 18.2 121.9 17.9 135.35 16.4 129.45 15.15 123.75 13.85 116.2 13.65 116.3 13.25 115.55 13.0 106.8 8.65 99.6 5.8 92.95 2.95 67.1 3.2 47.95 3.45 25.7 7.1 3.35 10.55 6.75 11.7 10.15 12.8 26.1 13.75 42.05 14.65 35.1 14.85 28.1 14.95 21.15 15.05 L13.1 15.3 4.9 16.25 Q4.8 16.4 4.85 16.55" fill="#96e0bc" fill-opacity="0.7058824" fill-rule="evenodd" stroke="none"/>
      <path d="M4.85 16.55 Q4.8 16.4 4.9 16.25 L13.1 15.3 21.15 15.05 Q28.1 14.95 35.1 14.85 42.05 14.65 26.1 13.75 10.15 12.8 6.75 11.7 3.35 10.55 25.7 7.1 47.95 3.45 67.1 3.2 92.95 2.95 99.6 5.8 106.8 8.65 115.55 13.0 116.3 13.25 116.2 13.65 123.75 13.85 129.45 15.15 135.35 16.4 121.9 17.9 122.5 18.2 122.45 18.5 L122.65 18.55 124.8 18.45 Q130.15 18.4 138.7 20.05 147.65 21.7 142.0 23.6 136.35 25.5 121.5 26.6 106.7 27.7 112.7 28.0 118.75 28.3 123.0 29.2 127.3 30.1 126.75 30.95 126.25 31.8 116.8 33.4 120.05 33.7 122.55 34.05 128.9 34.45 125.6 36.25 122.65 38.2 100.0 38.55 109.65 40.95 107.75 42.15 104.3 45.0 106.35 45.95 108.2 47.0 104.95 48.15 102.05 49.35 92.5 49.75 L76.1 50.15 Q71.6 50.1 66.9 50.2 64.45 50.35 73.25 48.05 81.95 45.75 70.95 45.35 61.45 44.85 52.05 44.5 44.0 44.0 43.55 42.95 43.15 41.9 54.2 38.55 40.25 40.5 36.4 40.3 16.45 40.8 30.35 37.4 30.15 36.75 36.9 35.25 L24.1 34.65 Q22.0 34.4 20.3 33.9 18.75 33.4 13.9 33.0 9.0 32.55 14.45 30.75 19.95 29.0 27.95 28.45 35.9 27.8 23.55 26.05 11.25 24.25 28.7 23.45 46.1 22.5 34.4 21.85 23.1 21.2 13.65 19.75 4.2 18.25 4.95 16.65" fill="none" stroke="#000000" stroke-linecap="round" stroke-linejoin="round" stroke-opacity="0.0" stroke-width="1.0"/>
    </g>
    <g id="morphshape1" transform="matrix(1.0, 0.0, 0.0, 1.0, -17.5, -9.15)">
      <path d="M128.25 21.8 Q128.25 22.55 128.7 23.25 129.45 24.3 132.3 24.05 L131.55 21.85 Q130.55 21.5 128.25 21.8 M102.75 33.6 Q102.75 33.95 103.85 34.75 L107.15 34.85 109.3 33.85 Q111.5 32.8 111.9 32.3 L110.4 31.1 106.2 30.7 Q102.75 30.9 102.75 33.6 M89.75 44.35 L89.75 44.35 90.25 45.2 Q91.65 45.45 93.05 45.65 L95.8 45.75 99.9 45.55 100.65 45.3 101.1 44.85 101.25 44.05 101.2 43.55 Q101.0 42.75 100.25 42.25 99.0 41.5 93.9 41.65 91.8 42.0 90.25 43.5 L89.7 44.3 M79.1 32.0 L79.35 32.65 Q79.85 33.1 80.95 33.55 L82.8 34.0 85.45 34.15 85.85 34.05 86.1 33.85 86.3 33.35 86.3 32.9 Q86.3 32.2 85.9 31.9 85.2 31.25 81.95 31.1 80.55 31.25 79.25 31.5 L79.15 32.05 M61.35 40.4 L61.9 41.3 68.25 41.7 Q72.3 41.7 75.15 39.45 75.15 37.55 69.1 37.4 62.85 37.3 61.35 40.4 M54.95 40.85 Q55.1 41.25 55.2 41.6 L58.25 41.6 Q58.7 41.35 58.95 39.75 L55.45 39.95 Q54.95 40.3 54.95 40.85 M49.0 34.1 L50.2 35.3 Q52.25 36.45 56.55 36.45 58.1 36.45 59.85 34.3 59.85 31.35 54.45 31.4 49.0 31.45 49.0 34.1 M31.65 30.1 Q31.85 30.65 34.65 31.65 38.2 31.95 41.8 32.05 L45.55 31.15 Q46.55 30.35 46.85 28.25 46.15 25.45 38.55 26.35 30.9 27.2 31.6 30.15 M22.2 11.1 Q22.2 11.55 22.65 12.25 L23.6 13.2 30.45 13.3 Q31.65 12.4 31.65 11.85 31.65 10.0 26.95 9.9 22.2 9.85 22.2 11.1" fill="#bef0d8" fill-opacity="0.7058824" fill-rule="evenodd" stroke="none"/>
      <path d="M22.2 11.1 Q22.2 9.85 26.95 9.9 31.65 10.0 31.65 11.85 31.65 12.4 30.45 13.3 L23.6 13.2 22.65 12.25 Q22.2 11.55 22.2 11.1 M31.6 30.15 Q30.9 27.2 38.55 26.35 46.15 25.45 46.85 28.25 46.55 30.35 45.55 31.15 L41.8 32.05 Q38.2 31.95 34.65 31.65 31.85 30.65 31.65 30.1 M49.0 34.1 Q49.0 31.45 54.45 31.4 59.85 31.35 59.85 34.3 58.1 36.45 56.55 36.45 52.25 36.45 50.2 35.3 L49.0 34.1 M54.95 40.85 Q54.95 40.3 55.45 39.95 L58.95 39.75 Q58.7 41.35 58.25 41.6 L55.2 41.6 Q55.1 41.25 54.95 40.85 M61.35 40.4 Q62.85 37.3 69.1 37.4 75.15 37.55 75.15 39.45 72.3 41.7 68.25 41.7 L61.9 41.3 61.35 40.4 M79.15 32.05 L79.25 31.5 Q80.55 31.25 81.95 31.1 85.2 31.25 85.9 31.9 86.3 32.2 86.3 32.9 L86.3 33.35 86.1 33.85 85.85 34.05 85.45 34.15 82.8 34.0 80.95 33.55 Q79.85 33.1 79.35 32.65 L79.1 32.0 M89.7 44.3 L90.25 43.5 Q91.8 42.0 93.9 41.65 99.0 41.5 100.25 42.25 101.0 42.75 101.2 43.55 L101.25 44.05 101.1 44.85 100.65 45.3 99.9 45.55 95.8 45.75 93.05 45.65 Q91.65 45.45 90.25 45.2 L89.75 44.35 89.75 44.35 M102.75 33.6 Q102.75 30.9 106.2 30.7 L110.4 31.1 111.9 32.3 Q111.5 32.8 109.3 33.85 L107.15 34.85 103.85 34.75 Q102.75 33.95 102.75 33.6 M128.25 21.8 Q130.55 21.5 131.55 21.85 L132.3 24.05 Q129.45 24.3 128.7 23.25 128.25 22.55 128.25 21.8 Z" fill="none" stroke="#000000" stroke-linecap="round" stroke-linejoin="round" stroke-opacity="0.0" stroke-width="1.0"/>
    </g>
    <g id="morphshape2" transform="matrix(1.0, 0.0, 0.0, 1.0, -37.6, -4.7)">
      <path d="M107.0 18.85 Q107.0 20.0 107.25 20.4 L108.05 20.95 Q111.05 20.15 111.85 19.7 112.55 19.2 111.5 16.15 109.1 16.35 108.05 17.0 107.0 17.6 107.0 18.85 M93.85 17.0 Q93.85 18.05 94.45 18.65 L97.5 18.85 Q97.95 17.85 97.7 15.75 L93.95 15.65 93.85 17.0 M92.65 9.2 Q92.65 10.25 93.05 11.15 L99.0 11.15 Q100.05 10.1 100.05 6.6 95.35 6.15 93.7 7.0 92.65 7.6 92.65 9.2 M84.3 16.55 Q84.35 17.5 85.1 19.35 85.75 19.8 87.3 19.95 L88.1 18.75 Q88.6 18.05 87.9 16.25 L84.3 16.55 M75.7 14.35 Q75.3 16.25 76.1 17.75 77.1 19.5 79.35 19.5 80.5 19.5 81.7 17.75 80.85 15.35 79.2 14.7 L75.7 14.35 M64.1 9.55 L64.15 11.0 64.5 11.55 69.95 12.3 73.25 12.7 Q75.0 12.7 73.9 10.25 73.9 7.2 69.0 7.05 64.1 6.95 64.1 9.55 M56.25 22.25 L56.25 22.25 56.35 23.45 56.7 23.85 Q57.2 23.9 57.7 23.9 58.85 23.9 60.05 23.9 L63.95 23.85 Q64.15 22.55 63.4 19.5 62.45 17.8 61.55 16.95 60.2 15.75 58.65 16.3 56.15 17.45 56.15 22.15 M52.25 8.95 L52.3 9.7 52.35 9.85 Q52.45 10.25 52.7 10.35 L54.0 10.7 Q55.35 10.1 55.75 10.0 56.0 8.85 56.1 7.55 55.75 6.6 55.45 5.75 54.6 5.65 53.8 5.7 52.3 6.65 52.3 9.0 M40.75 13.75 L41.85 15.85 Q43.55 18.0 46.55 18.0 50.45 18.0 50.45 14.8 50.45 11.8 45.6 11.0 40.75 10.15 40.75 13.75" fill="#bef0d8" fill-opacity="0.7058824" fill-rule="evenodd" stroke="none"/>
      <path d="M40.75 13.75 Q40.75 10.15 45.6 11.0 50.45 11.8 50.45 14.8 50.45 18.0 46.55 18.0 43.55 18.0 41.85 15.85 L40.75 13.75 M52.3 9.0 Q52.3 6.65 53.8 5.7 54.6 5.65 55.45 5.75 55.75 6.6 56.1 7.55 56.0 8.85 55.75 10.0 55.35 10.1 54.0 10.7 L52.7 10.35 Q52.45 10.25 52.35 9.85 L52.3 9.7 52.25 8.95 M56.15 22.15 Q56.15 17.45 58.65 16.3 60.2 15.75 61.55 16.95 62.45 17.8 63.4 19.5 64.15 22.55 63.95 23.85 L60.05 23.9 Q58.85 23.9 57.7 23.9 57.2 23.9 56.7 23.85 L56.35 23.45 56.25 22.25 56.25 22.25 M64.1 9.55 Q64.1 6.95 69.0 7.05 73.9 7.2 73.9 10.25 75.0 12.7 73.25 12.7 L69.95 12.3 64.5 11.55 64.15 11.0 64.1 9.55 M75.7 14.35 L79.2 14.7 Q80.85 15.35 81.7 17.75 80.5 19.5 79.35 19.5 77.1 19.5 76.1 17.75 75.3 16.25 75.7 14.35 M84.3 16.55 L87.9 16.25 Q88.6 18.05 88.1 18.75 L87.3 19.95 Q85.75 19.8 85.1 19.35 84.35 17.5 84.3 16.55 M92.65 9.2 Q92.65 7.6 93.7 7.0 95.35 6.15 100.05 6.6 100.05 10.1 99.0 11.15 L93.05 11.15 Q92.65 10.25 92.65 9.2 M93.85 17.0 L93.95 15.65 97.7 15.75 Q97.95 17.85 97.5 18.85 L94.45 18.65 Q93.85 18.05 93.85 17.0 M107.0 18.85 Q107.0 17.6 108.05 17.0 109.1 16.35 111.5 16.15 112.55 19.2 111.85 19.7 111.05 20.15 108.05 20.95 L107.25 20.4 Q107.0 20.0 107.0 18.85 Z" fill="none" stroke="#000000" stroke-linecap="round" stroke-linejoin="round" stroke-opacity="0.0" stroke-width="1.0"/>
    </g>
    <g id="morphshape3" transform="matrix(1.0, 0.0, 0.0, 1.0, -32.35, -6.65)">
      <path d="M95.25 8.35 Q95.25 9.5 95.4 9.9 L95.85 10.65 97.85 10.65 98.35 10.15 98.5 8.95 98.25 7.45 Q97.95 7.0 95.4 6.95 95.25 6.6 95.25 8.35 M68.45 9.55 Q68.2 9.9 68.8 10.75 69.1 11.15 70.0 11.4 71.4 11.55 72.75 11.6 73.25 11.15 73.2 10.45 72.85 10.05 69.05 9.0 L68.55 9.45 M65.8 37.55 L66.1 39.5 Q66.3 40.55 66.75 41.4 L70.25 41.4 Q70.45 41.1 70.75 40.95 L70.35 37.85 66.8 37.3 Q66.0 37.25 65.8 37.55 M44.25 15.15 L44.45 16.5 44.8 17.0 46.35 17.05 Q47.4 17.05 48.0 16.6 48.2 16.45 48.2 14.7 48.2 13.55 47.85 13.0 L47.15 12.35 44.35 13.45 44.25 15.15 M37.1 29.2 L37.35 30.2 Q37.7 31.0 38.15 31.3 42.25 30.75 42.25 28.35 42.25 27.25 41.9 26.95 L41.05 26.6 39.3 26.85 37.45 27.0 37.1 29.2" fill="#ffffff" fill-opacity="0.7058824" fill-rule="evenodd" stroke="none"/>
      <path d="M37.1 29.2 L37.45 27.0 39.3 26.85 41.05 26.6 41.9 26.95 Q42.25 27.25 42.25 28.35 42.25 30.75 38.15 31.3 37.7 31.0 37.35 30.2 L37.1 29.2 M44.25 15.15 L44.35 13.45 47.15 12.35 47.85 13.0 Q48.2 13.55 48.2 14.7 48.2 16.45 48.0 16.6 47.4 17.05 46.35 17.05 L44.8 17.0 44.45 16.5 44.25 15.15 M65.8 37.55 Q66.0 37.25 66.8 37.3 L70.35 37.85 70.75 40.95 Q70.45 41.1 70.25 41.4 L66.75 41.4 Q66.3 40.55 66.1 39.5 L65.8 37.55 M68.55 9.45 L69.05 9.0 Q72.85 10.05 73.2 10.45 73.25 11.15 72.75 11.6 71.4 11.55 70.0 11.4 69.1 11.15 68.8 10.75 68.2 9.9 68.45 9.55 M95.25 8.35 Q95.25 6.6 95.4 6.95 97.95 7.0 98.25 7.45 L98.5 8.95 98.35 10.15 97.85 10.65 95.85 10.65 95.4 9.9 Q95.25 9.5 95.25 8.35 Z" fill="none" stroke="#000000" stroke-linecap="round" stroke-linejoin="round" stroke-opacity="0.0" stroke-width="1.0"/>
    </g>
  </defs>
</svg>
