<?xml version="1.0" encoding="UTF-8" standalone="no"?>
<svg xmlns:xlink="http://www.w3.org/1999/xlink" height="47.45px" width="141.0px" xmlns="http://www.w3.org/2000/svg">
  <g transform="matrix(1.0, 0.0, 0.0, 1.0, -4.35, -2.9)">
    <use data-characterId="3188" height="47.45" transform="matrix(1.0, 0.0, 0.0, 1.0, 4.35, 2.9)" width="141.0" xlink:href="#morphshape0"/>
    <use data-characterId="3189" height="37.5" transform="matrix(1.0, 0.0, 0.0, 1.0, 17.5, 9.15)" width="116.05" xlink:href="#morphshape1"/>
    <use data-characterId="3190" height="21.8" transform="matrix(1.0, 0.0, 0.0, 1.0, 37.6, 4.7)" width="75.1" xlink:href="#morphshape2"/>
    <use data-characterId="3191" height="35.65" transform="matrix(1.0, 0.0, 0.0, 1.0, 32.35, 6.65)" width="66.65" xlink:href="#morphshape3"/>
  </g>
  <defs>
    <g id="morphshape0" transform="matrix(1.0, 0.0, 0.0, 1.0, -4.35, -2.9)">
      <path d="M4.85 16.6 Q4.15 18.2 13.35 19.65 22.55 21.05 33.55 21.65 45.05 22.3 28.25 23.3 11.4 24.1 23.2 25.9 35.1 27.6 27.45 28.25 19.75 28.8 14.45 30.55 9.2 32.35 13.95 32.8 18.65 33.2 20.2 33.7 21.95 34.2 24.1 34.45 L36.45 35.1 Q29.9 36.65 30.35 37.3 17.1 40.6 36.5 40.15 40.2 40.4 53.7 38.55 43.05 41.8 43.6 42.85 44.2 43.95 52.1 44.45 61.25 44.8 70.5 45.35 81.2 45.8 72.9 48.0 64.45 50.2 67.0 50.0 71.7 49.85 76.2 49.85 L92.3 49.4 Q101.6 49.0 104.5 47.85 107.9 46.75 106.25 45.65 104.35 44.7 107.7 41.85 109.75 40.65 100.5 38.3 122.5 37.85 125.2 35.95 128.4 34.2 122.25 33.8 120.2 33.4 117.1 33.1 126.25 31.55 126.65 30.7 127.1 29.85 122.9 28.95 118.75 28.1 113.1 27.8 107.5 27.5 121.85 26.35 136.25 25.2 141.65 23.35 147.0 21.45 138.15 19.85 129.85 18.25 124.65 18.3 L122.55 18.4 122.35 18.35 Q122.55 17.95 121.85 17.6 134.7 16.15 128.9 14.95 123.4 13.7 116.1 13.5 116.25 12.95 115.2 12.65 106.35 8.3 98.45 5.55 91.35 2.8 65.75 3.2 46.65 3.55 25.2 7.2 3.6 10.55 6.9 11.7 10.2 12.8 25.6 13.75 41.0 14.65 34.3 14.85 27.55 14.95 20.85 15.05 L12.8 15.35 4.9 16.3 Q4.75 16.5 4.85 16.7" fill="#96e0bc" fill-opacity="0.7058824" fill-rule="evenodd" stroke="none"/>
      <path d="M4.85 16.7 Q4.75 16.5 4.9 16.3 L12.8 15.35 20.85 15.05 Q27.55 14.95 34.3 14.85 41.0 14.65 25.6 13.75 10.2 12.8 6.9 11.7 3.6 10.55 25.2 7.2 46.65 3.55 65.75 3.2 91.35 2.8 98.45 5.55 106.35 8.3 115.2 12.65 116.25 12.95 116.1 13.5 123.4 13.7 128.9 14.95 134.7 16.15 121.85 17.6 122.55 17.95 122.35 18.35 L122.55 18.4 124.65 18.3 Q129.85 18.25 138.15 19.85 147.0 21.45 141.65 23.35 136.25 25.2 121.85 26.35 107.5 27.5 113.1 27.8 118.75 28.1 122.9 28.95 127.1 29.85 126.65 30.7 126.25 31.55 117.1 33.1 120.2 33.4 122.25 33.8 128.4 34.2 125.2 35.95 122.5 37.85 100.5 38.3 109.75 40.65 107.7 41.85 104.35 44.7 106.25 45.65 107.9 46.75 104.5 47.85 101.6 49.0 92.3 49.4 L76.2 49.85 Q71.7 49.85 67.0 50.0 64.45 50.2 72.9 48.0 81.2 45.8 70.5 45.35 61.25 44.8 52.1 44.45 44.2 43.95 43.6 42.85 43.05 41.8 53.7 38.55 40.2 40.4 36.5 40.15 17.1 40.6 30.35 37.3 29.9 36.65 36.45 35.1 L24.1 34.45 Q21.95 34.2 20.2 33.7 18.65 33.2 13.95 32.8 9.2 32.35 14.45 30.55 19.75 28.8 27.45 28.25 35.1 27.6 23.2 25.9 11.4 24.1 28.25 23.3 45.05 22.3 33.55 21.65 22.55 21.05 13.35 19.65 4.15 18.2 4.85 16.6" fill="none" stroke="#000000" stroke-linecap="round" stroke-linejoin="round" stroke-opacity="0.0" stroke-width="1.0"/>
    </g>
    <g id="morphshape1" transform="matrix(1.0, 0.0, 0.0, 1.0, -17.5, -9.15)">
      <path d="M127.75 21.9 Q127.75 22.65 128.2 23.35 128.95 24.4 131.8 24.15 L131.05 21.95 Q130.05 21.6 127.75 21.9 M102.65 33.4 Q102.65 33.75 103.75 34.55 L107.05 34.65 109.2 33.65 Q111.4 32.6 111.8 32.1 L110.3 30.9 106.1 30.5 Q102.65 30.7 102.65 33.4 M89.6 43.95 L90.1 44.8 Q91.45 45.05 92.85 45.3 L95.55 45.4 99.6 45.2 100.35 44.95 100.8 44.55 100.95 43.75 100.9 43.25 Q100.7 42.45 99.95 41.95 98.75 41.2 93.7 41.35 91.6 41.7 90.05 43.15 L89.5 43.95 M78.95 32.4 L78.95 32.5 79.2 33.05 Q79.75 33.5 80.85 33.9 L82.75 34.35 85.45 34.5 85.85 34.4 86.1 34.15 86.3 33.65 86.3 33.2 Q86.3 32.5 85.9 32.2 85.15 31.55 81.85 31.4 80.45 31.55 79.15 31.85 L79.05 32.4 M61.4 40.1 L61.95 41.0 68.3 41.4 Q72.35 41.4 75.2 39.15 75.2 37.25 69.15 37.1 62.9 37.0 61.4 40.1 M55.2 40.9 Q55.35 41.3 55.45 41.65 L58.5 41.65 Q58.95 41.4 59.2 39.8 L55.7 40.0 Q55.2 40.35 55.2 40.9 M49.0 34.2 L50.2 35.4 Q52.25 36.55 56.55 36.55 58.1 36.55 59.85 34.4 59.85 31.45 54.45 31.5 49.0 31.55 49.0 34.2 M31.5 30.05 Q31.7 30.6 34.5 31.65 38.05 32.05 41.65 32.15 L45.4 31.25 Q46.4 30.45 46.7 28.35 46.05 25.55 38.45 26.35 30.8 27.1 31.45 30.05 M22.05 11.4 Q22.05 11.85 22.5 12.55 L23.45 13.5 30.3 13.6 Q31.5 12.7 31.5 12.15 31.5 10.3 26.8 10.2 22.05 10.15 22.05 11.4" fill="#bef0d8" fill-opacity="0.7058824" fill-rule="evenodd" stroke="none"/>
      <path d="M22.05 11.4 Q22.05 10.15 26.8 10.2 31.5 10.3 31.5 12.15 31.5 12.7 30.3 13.6 L23.45 13.5 22.5 12.55 Q22.05 11.85 22.05 11.4 M31.45 30.05 Q30.8 27.1 38.45 26.35 46.05 25.55 46.7 28.35 46.4 30.45 45.4 31.25 L41.65 32.15 Q38.05 32.05 34.5 31.65 31.7 30.6 31.5 30.05 M49.0 34.2 Q49.0 31.55 54.45 31.5 59.85 31.45 59.85 34.4 58.1 36.55 56.55 36.55 52.25 36.55 50.2 35.4 L49.0 34.2 M55.2 40.9 Q55.2 40.35 55.7 40.0 L59.2 39.8 Q58.95 41.4 58.5 41.65 L55.45 41.65 Q55.35 41.3 55.2 40.9 M61.4 40.1 Q62.9 37.0 69.15 37.1 75.2 37.25 75.2 39.15 72.35 41.4 68.3 41.4 L61.95 41.0 61.4 40.1 M79.05 32.4 L79.15 31.85 Q80.45 31.55 81.85 31.4 85.15 31.55 85.9 32.2 86.3 32.5 86.3 33.2 L86.3 33.65 86.1 34.15 85.85 34.4 85.45 34.5 82.75 34.35 80.85 33.9 Q79.75 33.5 79.2 33.05 L78.95 32.5 78.95 32.4 M89.5 43.95 L90.05 43.15 Q91.6 41.7 93.7 41.35 98.75 41.2 99.95 41.95 100.7 42.45 100.9 43.25 L100.95 43.75 100.8 44.55 100.35 44.95 99.6 45.2 95.55 45.4 92.85 45.3 Q91.45 45.05 90.1 44.8 L89.6 43.95 M102.65 33.4 Q102.65 30.7 106.1 30.5 L110.3 30.9 111.8 32.1 Q111.4 32.6 109.2 33.65 L107.05 34.65 103.75 34.55 Q102.65 33.75 102.65 33.4 M127.75 21.9 Q130.05 21.6 131.05 21.95 L131.8 24.15 Q128.95 24.4 128.2 23.35 127.75 22.65 127.75 21.9 Z" fill="none" stroke="#000000" stroke-linecap="round" stroke-linejoin="round" stroke-opacity="0.0" stroke-width="1.0"/>
    </g>
    <g id="morphshape2" transform="matrix(1.0, 0.0, 0.0, 1.0, -37.6, -4.7)">
      <path d="M106.8 18.7 Q106.8 19.85 107.05 20.25 L107.85 20.8 Q110.8 20.0 111.65 19.55 112.35 19.05 111.3 16.0 108.9 16.2 107.85 16.85 106.8 17.45 106.8 18.7 M93.7 17.15 Q93.7 18.2 94.3 18.8 L97.35 19.0 Q97.8 18.0 97.55 15.9 L93.8 15.8 93.7 17.15 M92.5 9.3 Q92.5 10.35 92.9 11.25 L98.85 11.25 Q99.9 10.2 99.9 6.7 95.2 6.25 93.55 7.1 92.5 7.7 92.5 9.3 M84.15 16.8 Q84.2 17.75 84.95 19.6 85.6 20.05 87.15 20.2 L87.95 19.0 Q88.45 18.3 87.75 16.5 L84.15 16.8 M75.8 14.05 Q75.4 15.95 76.2 17.45 77.2 19.2 79.45 19.2 80.6 19.2 81.8 17.45 80.95 15.05 79.3 14.4 L75.8 14.05 M64.2 9.7 L64.25 11.15 64.6 11.7 70.05 12.45 73.35 12.85 Q75.1 12.85 74.0 10.4 74.0 7.35 69.1 7.2 64.2 7.1 64.2 9.7 M56.15 21.85 L56.25 23.05 56.6 23.45 Q57.1 23.5 57.6 23.5 58.75 23.5 59.95 23.5 L63.75 23.4 Q63.95 22.1 63.2 19.1 62.3 17.45 61.45 16.6 60.1 15.45 58.6 16.0 56.15 17.15 56.15 21.75 M52.15 9.4 L52.15 9.6 52.2 10.2 52.25 10.35 Q52.35 10.75 52.6 10.85 L53.95 11.2 Q55.35 10.65 55.8 10.55 56.05 9.4 56.15 8.05 55.75 7.05 55.4 6.2 54.55 6.05 53.7 6.1 52.15 7.05 52.15 9.5 M40.65 13.65 L41.75 15.75 Q43.45 17.9 46.45 17.9 50.35 17.9 50.35 14.7 50.35 11.7 45.5 10.9 40.65 10.05 40.65 13.65" fill="#bef0d8" fill-opacity="0.7058824" fill-rule="evenodd" stroke="none"/>
      <path d="M40.65 13.65 Q40.65 10.05 45.5 10.9 50.35 11.7 50.35 14.7 50.35 17.9 46.45 17.9 43.45 17.9 41.75 15.75 L40.65 13.65 M52.15 9.5 Q52.15 7.05 53.7 6.1 54.55 6.05 55.4 6.2 55.75 7.05 56.15 8.05 56.05 9.4 55.8 10.55 55.35 10.65 53.95 11.2 L52.6 10.85 Q52.35 10.75 52.25 10.35 L52.2 10.2 52.15 9.6 52.15 9.4 M56.15 21.75 Q56.15 17.15 58.6 16.0 60.1 15.45 61.45 16.6 62.3 17.45 63.2 19.1 63.95 22.1 63.75 23.4 L59.95 23.5 Q58.75 23.5 57.6 23.5 57.1 23.5 56.6 23.45 L56.25 23.05 56.15 21.85 M64.2 9.7 Q64.2 7.1 69.1 7.2 74.0 7.35 74.0 10.4 75.1 12.85 73.35 12.85 L70.05 12.45 64.6 11.7 64.25 11.15 64.2 9.7 M75.8 14.05 L79.3 14.4 Q80.95 15.05 81.8 17.45 80.6 19.2 79.45 19.2 77.2 19.2 76.2 17.45 75.4 15.95 75.8 14.05 M84.15 16.8 L87.75 16.5 Q88.45 18.3 87.95 19.0 L87.15 20.2 Q85.6 20.05 84.95 19.6 84.2 17.75 84.15 16.8 M92.5 9.3 Q92.5 7.7 93.55 7.1 95.2 6.25 99.9 6.7 99.9 10.2 98.85 11.25 L92.9 11.25 Q92.5 10.35 92.5 9.3 M93.7 17.15 L93.8 15.8 97.55 15.9 Q97.8 18.0 97.35 19.0 L94.3 18.8 Q93.7 18.2 93.7 17.15 M106.8 18.7 Q106.8 17.45 107.85 16.85 108.9 16.2 111.3 16.0 112.35 19.05 111.65 19.55 110.8 20.0 107.85 20.8 L107.05 20.25 Q106.8 19.85 106.8 18.7 Z" fill="none" stroke="#000000" stroke-linecap="round" stroke-linejoin="round" stroke-opacity="0.0" stroke-width="1.0"/>
    </g>
    <g id="morphshape3" transform="matrix(1.0, 0.0, 0.0, 1.0, -32.35, -6.65)">
      <path d="M95.6 8.2 Q95.6 9.35 95.75 9.75 L96.2 10.5 98.2 10.5 98.7 10.0 98.85 8.8 98.6 7.3 Q98.3 6.85 95.75 6.8 95.6 6.45 95.6 8.2 M68.6 9.55 Q68.35 9.9 68.9 10.8 69.2 11.25 70.05 11.55 L72.8 11.9 Q73.3 11.45 73.3 10.75 73.1 10.3 69.15 9.1 L68.6 9.55 M65.8 37.4 L66.1 39.35 Q66.3 40.4 66.75 41.25 L70.25 41.25 Q70.45 40.95 70.75 40.8 L70.35 37.7 66.8 37.15 Q66.0 37.1 65.8 37.4 M44.15 15.05 L44.35 16.4 44.7 16.9 46.25 16.95 Q47.3 16.95 47.9 16.5 48.1 16.35 48.1 14.6 48.1 13.45 47.75 12.9 L47.05 12.25 44.25 13.35 44.15 15.05 M36.95 29.2 L37.2 30.2 Q37.55 31.0 38.0 31.3 42.1 30.75 42.1 28.35 42.1 27.25 41.75 26.95 L40.9 26.6 39.15 26.85 37.3 27.0 36.95 29.2" fill="#ffffff" fill-opacity="0.7058824" fill-rule="evenodd" stroke="none"/>
      <path d="M36.95 29.2 L37.3 27.0 39.15 26.85 40.9 26.6 41.75 26.95 Q42.1 27.25 42.1 28.35 42.1 30.75 38.0 31.3 37.55 31.0 37.2 30.2 L36.95 29.2 M44.15 15.05 L44.25 13.35 47.05 12.25 47.75 12.9 Q48.1 13.45 48.1 14.6 48.1 16.35 47.9 16.5 47.3 16.95 46.25 16.95 L44.7 16.9 44.35 16.4 44.15 15.05 M65.8 37.4 Q66.0 37.1 66.8 37.15 L70.35 37.7 70.75 40.8 Q70.45 40.95 70.25 41.25 L66.75 41.25 Q66.3 40.4 66.1 39.35 L65.8 37.4 M68.6 9.55 L69.15 9.1 Q73.1 10.3 73.3 10.75 73.3 11.45 72.8 11.9 L70.05 11.55 Q69.2 11.25 68.9 10.8 68.35 9.9 68.6 9.55 M95.6 8.2 Q95.6 6.45 95.75 6.8 98.3 6.85 98.6 7.3 L98.85 8.8 98.7 10.0 98.2 10.5 96.2 10.5 95.75 9.75 Q95.6 9.35 95.6 8.2 Z" fill="none" stroke="#000000" stroke-linecap="round" stroke-linejoin="round" stroke-opacity="0.0" stroke-width="1.0"/>
    </g>
  </defs>
</svg>
