<?xml version="1.0" encoding="UTF-8" standalone="no"?>
<svg xmlns:xlink="http://www.w3.org/1999/xlink" height="47.45px" width="141.0px" xmlns="http://www.w3.org/2000/svg">
  <g transform="matrix(1.0, 0.0, 0.0, 1.0, -4.35, -2.9)">
    <use data-characterId="3192" height="47.45" transform="matrix(1.0, 0.0, 0.0, 1.0, 4.35, 2.9)" width="141.0" xlink:href="#morphshape0"/>
    <use data-characterId="3193" height="37.5" transform="matrix(1.0, 0.0, 0.0, 1.0, 17.5, 9.15)" width="116.05" xlink:href="#morphshape1"/>
    <use data-characterId="3194" height="21.8" transform="matrix(1.0, 0.0, 0.0, 1.0, 37.6, 4.7)" width="75.1" xlink:href="#morphshape2"/>
    <use data-characterId="3195" height="35.65" transform="matrix(1.0, 0.0, 0.0, 1.0, 32.35, 6.65)" width="66.65" xlink:href="#morphshape3"/>
  </g>
  <defs>
    <g id="morphshape0" transform="matrix(1.0, 0.0, 0.0, 1.0, -4.35, -2.9)">
      <path d="M5.0 18.9 Q5.3 20.4 9.6 21.3 13.95 22.0 18.8 22.45 27.1 23.3 23.2 25.4 18.8 26.1 20.5 27.55 22.85 28.5 20.6 29.4 18.35 30.1 17.2 31.25 16.35 33.05 18.7 33.7 20.65 34.2 22.6 34.45 26.15 34.75 28.45 35.6 L31.65 36.7 Q29.5 38.7 34.25 39.6 33.75 40.55 42.1 40.5 42.4 41.45 46.05 41.7 43.15 43.35 46.05 44.75 49.25 46.25 54.4 46.4 58.3 46.5 63.25 47.9 68.55 49.25 68.35 49.85 67.4 50.45 71.75 49.25 76.85 48.0 80.65 47.85 L90.35 47.0 Q95.35 46.6 98.55 46.0 105.0 45.9 107.25 43.4 107.8 42.25 109.2 40.4 114.2 39.55 112.75 38.15 121.5 36.05 118.95 34.55 119.55 34.0 117.65 33.8 124.55 32.5 124.3 31.8 127.35 30.7 125.5 29.75 124.45 29.1 122.1 28.45 120.55 28.05 123.6 27.15 126.6 26.25 131.55 24.25 136.5 22.25 135.95 20.8 135.25 19.25 128.65 18.85 125.5 18.45 123.25 18.5 L122.55 18.5 122.0 18.25 Q125.3 16.6 122.65 15.1 123.7 14.5 119.7 14.0 118.2 13.6 116.2 13.55 117.25 10.15 110.3 8.1 99.35 4.35 78.0 3.6 62.15 2.85 40.85 5.3 21.9 7.6 16.85 10.65 11.2 12.0 12.35 12.75 13.5 13.45 17.95 14.1 22.25 14.65 19.9 14.95 17.75 15.0 15.75 15.2 L7.05 16.05 4.85 16.3 Q4.15 17.5 4.75 18.75" fill="#96e0bc" fill-opacity="0.7058824" fill-rule="evenodd" stroke="none"/>
      <path d="M4.75 18.75 Q4.15 17.5 4.85 16.3 L7.05 16.05 15.75 15.2 Q17.75 15.0 19.9 14.95 22.25 14.65 17.95 14.1 13.5 13.45 12.35 12.75 11.2 12.0 16.85 10.65 21.9 7.6 40.85 5.3 62.15 2.85 78.0 3.6 99.35 4.35 110.3 8.1 117.25 10.15 116.2 13.55 118.2 13.6 119.7 14.0 123.7 14.5 122.65 15.1 125.3 16.6 122.0 18.25 L122.55 18.5 123.25 18.5 Q125.5 18.45 128.65 18.85 135.25 19.25 135.95 20.8 136.5 22.25 131.55 24.25 126.6 26.25 123.6 27.15 120.55 28.05 122.1 28.45 124.45 29.1 125.5 29.75 127.35 30.7 124.3 31.8 124.55 32.5 117.65 33.8 119.55 34.0 118.95 34.55 121.5 36.05 112.75 38.15 114.2 39.55 109.2 40.4 107.8 42.25 107.25 43.4 105.0 45.9 98.55 46.0 95.35 46.6 90.35 47.0 L80.65 47.85 Q76.85 48.0 71.75 49.25 67.4 50.45 68.35 49.85 68.55 49.25 63.25 47.9 58.3 46.5 54.4 46.4 49.25 46.25 46.05 44.75 43.15 43.35 46.05 41.7 42.4 41.45 42.1 40.5 33.75 40.55 34.25 39.6 29.5 38.7 31.65 36.7 L28.45 35.6 Q26.15 34.75 22.6 34.45 20.65 34.2 18.7 33.7 16.35 33.05 17.2 31.25 18.35 30.1 20.6 29.4 22.85 28.5 20.5 27.55 18.8 26.1 23.2 25.4 27.1 23.3 18.8 22.45 13.95 22.0 9.6 21.3 5.3 20.4 5.0 18.9" fill="none" stroke="#000000" stroke-linecap="round" stroke-linejoin="round" stroke-opacity="0.0" stroke-width="1.0"/>
    </g>
    <g id="morphshape1" transform="matrix(1.0, 0.0, 0.0, 1.0, -17.5, -9.15)">
      <path d="M118.1 23.15 Q118.1 23.9 118.55 24.6 119.3 25.65 122.15 25.4 L121.4 23.2 Q120.4 22.85 118.1 23.15 M100.3 29.85 Q100.3 30.2 101.4 31.0 L104.7 31.1 106.85 30.1 Q109.05 29.05 109.45 28.55 L107.95 27.35 103.75 26.95 Q100.3 27.15 100.3 29.85 M86.1 36.25 L86.1 36.35 86.4 36.95 Q87.05 37.4 88.2 37.8 L90.2 38.2 93.1 38.3 93.55 38.15 93.8 37.9 94.0 37.35 94.0 36.9 Q93.95 36.2 93.5 35.85 92.7 35.2 89.1 35.1 87.6 35.3 86.25 35.8 L86.05 36.4 M76.1 39.8 L76.55 40.65 Q77.8 40.9 79.15 41.15 L81.75 41.3 85.6 41.15 86.3 40.95 86.75 40.55 86.9 39.8 86.85 39.3 Q86.7 38.5 86.0 38.05 84.85 37.3 80.1 37.4 78.1 37.7 76.6 38.95 L76.15 39.7 M62.25 33.95 L62.8 34.85 69.15 35.25 Q73.2 35.25 76.05 33.0 76.05 31.1 70.0 30.95 63.75 30.85 62.25 33.95 M60.05 41.9 Q60.1 42.4 60.3 42.65 L63.35 42.65 Q63.8 42.4 64.05 40.8 L60.55 41.0 Q60.05 41.35 60.05 41.9 M49.0 36.3 L50.2 37.5 Q52.25 38.65 56.55 38.65 58.1 38.65 59.85 36.5 59.85 33.55 54.45 33.6 49.0 33.65 49.0 36.3 M27.75 28.8 Q27.8 29.4 30.4 30.9 33.7 32.55 37.35 32.5 L41.2 32.25 Q42.35 31.65 43.0 29.65 42.8 26.75 35.2 26.25 27.55 25.75 27.75 28.8 M18.75 17.15 Q18.75 17.6 19.2 18.3 L20.15 19.25 27.0 19.35 Q28.2 18.45 28.2 17.9 28.2 16.05 23.5 15.95 18.75 15.9 18.75 17.15" fill="#bef0d8" fill-opacity="0.7058824" fill-rule="evenodd" stroke="none"/>
      <path d="M18.75 17.15 Q18.75 15.9 23.5 15.95 28.2 16.05 28.2 17.9 28.2 18.45 27.0 19.35 L20.15 19.25 19.2 18.3 Q18.75 17.6 18.75 17.15 M27.75 28.8 Q27.55 25.75 35.2 26.25 42.8 26.75 43.0 29.65 42.35 31.65 41.2 32.25 L37.35 32.5 Q33.7 32.55 30.4 30.9 27.8 29.4 27.75 28.8 M49.0 36.3 Q49.0 33.65 54.45 33.6 59.85 33.55 59.85 36.5 58.1 38.65 56.55 38.65 52.25 38.65 50.2 37.5 L49.0 36.3 M60.05 41.9 Q60.05 41.35 60.55 41.0 L64.05 40.8 Q63.8 42.4 63.35 42.65 L60.3 42.65 Q60.1 42.4 60.05 41.9 M62.25 33.95 Q63.75 30.85 70.0 30.95 76.05 31.1 76.05 33.0 73.2 35.25 69.15 35.25 L62.8 34.85 62.25 33.95 M76.15 39.7 L76.6 38.95 Q78.1 37.7 80.1 37.4 84.85 37.3 86.0 38.05 86.7 38.5 86.85 39.3 L86.9 39.8 86.75 40.55 86.3 40.95 85.6 41.15 81.75 41.3 79.15 41.15 Q77.8 40.9 76.55 40.65 L76.1 39.8 M86.05 36.4 L86.25 35.8 Q87.6 35.3 89.1 35.1 92.7 35.2 93.5 35.85 93.95 36.2 94.0 36.9 L94.0 37.35 93.8 37.9 93.55 38.15 93.1 38.3 90.2 38.2 88.2 37.8 Q87.05 37.4 86.4 36.95 L86.1 36.35 86.1 36.25 M100.3 29.85 Q100.3 27.15 103.75 26.95 L107.95 27.35 109.45 28.55 Q109.05 29.05 106.85 30.1 L104.7 31.1 101.4 31.0 Q100.3 30.2 100.3 29.85 M118.1 23.15 Q120.4 22.85 121.4 23.2 L122.15 25.4 Q119.3 25.65 118.55 24.6 118.1 23.9 118.1 23.15 Z" fill="none" stroke="#000000" stroke-linecap="round" stroke-linejoin="round" stroke-opacity="0.0" stroke-width="1.0"/>
    </g>
    <g id="morphshape2" transform="matrix(1.0, 0.0, 0.0, 1.0, -37.6, -4.7)">
      <path d="M102.75 15.65 Q102.75 16.8 103.0 17.2 L103.8 17.75 Q106.0 17.05 107.6 16.5 108.3 16.0 107.25 12.95 104.85 13.15 103.8 13.8 102.75 14.4 102.75 15.65 M90.65 20.9 Q90.65 21.95 91.25 22.55 L94.3 22.75 Q94.75 21.75 94.5 19.65 L90.75 19.55 90.65 20.9 M89.1 11.3 Q89.1 12.35 89.5 13.25 L95.45 13.25 Q96.5 12.2 96.5 8.7 91.8 8.25 90.15 9.1 89.1 9.7 89.1 11.3 M80.85 21.4 Q80.9 22.35 81.65 24.2 82.3 24.65 83.85 24.8 L84.65 23.6 Q85.15 22.9 84.45 21.1 L80.85 21.4 M77.95 8.35 Q77.55 10.25 78.35 11.75 79.35 13.5 81.6 13.5 82.75 13.5 83.95 11.75 83.1 9.35 81.45 8.7 L77.95 8.35 M66.15 13.1 L66.2 14.55 66.55 15.1 72.0 15.85 75.3 16.25 Q77.05 16.25 75.95 13.8 75.95 10.75 71.05 10.6 66.15 10.5 66.15 13.1 M55.95 13.45 L55.95 13.6 56.0 14.3 56.1 14.5 Q56.25 14.85 56.55 14.95 57.05 15.1 58.05 15.25 L60.2 14.7 Q60.45 13.5 60.4 11.9 59.95 10.8 59.55 9.95 58.6 9.65 57.65 9.8 55.95 10.75 55.95 13.55 M49.15 19.5 L49.25 20.6 49.55 20.95 Q50.0 21.05 50.45 21.05 L52.65 21.15 Q54.5 21.0 56.1 21.0 56.3 19.75 55.7 17.0 54.85 15.45 54.05 14.6 52.8 13.6 51.4 14.05 49.1 15.2 49.1 19.45 M38.45 11.1 L39.55 13.2 Q41.25 15.35 44.25 15.35 48.15 15.35 48.15 12.15 48.15 9.15 43.3 8.35 38.45 7.5 38.45 11.1" fill="#bef0d8" fill-opacity="0.7058824" fill-rule="evenodd" stroke="none"/>
      <path d="M38.45 11.1 Q38.45 7.5 43.3 8.35 48.15 9.15 48.15 12.15 48.15 15.35 44.25 15.35 41.25 15.35 39.55 13.2 L38.45 11.1 M49.1 19.45 Q49.1 15.2 51.4 14.05 52.8 13.6 54.05 14.6 54.85 15.45 55.7 17.0 56.3 19.75 56.1 21.0 54.5 21.0 52.65 21.15 L50.45 21.05 Q50.0 21.05 49.55 20.95 L49.25 20.6 49.15 19.5 M55.95 13.55 Q55.95 10.75 57.65 9.8 58.6 9.65 59.55 9.95 59.95 10.8 60.4 11.9 60.45 13.5 60.2 14.7 L58.05 15.25 Q57.05 15.1 56.55 14.95 56.25 14.85 56.1 14.5 L56.0 14.3 55.95 13.6 55.95 13.45 M66.15 13.1 Q66.15 10.5 71.05 10.6 75.95 10.75 75.95 13.8 77.05 16.25 75.3 16.25 L72.0 15.85 66.55 15.1 66.2 14.55 66.15 13.1 M77.95 8.35 L81.45 8.7 Q83.1 9.35 83.95 11.75 82.75 13.5 81.6 13.5 79.35 13.5 78.35 11.75 77.55 10.25 77.95 8.35 M80.85 21.4 L84.45 21.1 Q85.15 22.9 84.65 23.6 L83.85 24.8 Q82.3 24.65 81.65 24.2 80.9 22.35 80.85 21.4 M89.1 11.3 Q89.1 9.7 90.15 9.1 91.8 8.25 96.5 8.7 96.5 12.2 95.45 13.25 L89.5 13.25 Q89.1 12.35 89.1 11.3 M90.65 20.9 L90.75 19.55 94.5 19.65 Q94.75 21.75 94.3 22.75 L91.25 22.55 Q90.65 21.95 90.65 20.9 M102.75 15.65 Q102.75 14.4 103.8 13.8 104.85 13.15 107.25 12.95 108.3 16.0 107.6 16.5 106.0 17.05 103.8 17.75 L103.0 17.2 Q102.75 16.8 102.75 15.65 Z" fill="none" stroke="#000000" stroke-linecap="round" stroke-linejoin="round" stroke-opacity="0.0" stroke-width="1.0"/>
    </g>
    <g id="morphshape3" transform="matrix(1.0, 0.0, 0.0, 1.0, -32.35, -6.65)">
      <path d="M91.4 10.25 Q91.4 11.4 91.55 11.8 L92.0 12.55 94.0 12.55 94.5 12.05 94.65 10.85 94.4 9.35 Q94.1 8.9 91.55 8.85 91.4 8.5 91.4 10.25 M69.2 13.1 Q69.1 13.55 69.9 14.15 70.5 14.3 71.2 14.35 72.45 14.25 73.8 13.65 74.1 13.05 73.85 12.4 72.1 12.55 69.5 12.5 L69.2 13.15 M66.15 30.55 L66.45 32.5 Q66.65 33.55 67.1 34.4 L70.6 34.4 Q70.85 34.15 71.1 33.95 L70.7 30.85 67.15 30.3 Q66.35 30.25 66.15 30.55 M41.25 13.55 L41.45 14.9 41.8 15.4 43.35 15.45 Q44.4 15.45 45.0 15.0 45.2 14.85 45.2 13.1 45.2 11.95 44.85 11.4 L44.15 10.75 41.35 11.85 41.25 13.55 M33.6 29.2 L33.85 30.2 Q34.2 31.0 34.65 31.3 38.75 30.75 38.75 28.35 38.75 27.25 38.4 26.95 L37.55 26.6 35.8 26.85 33.95 27.0 33.6 29.2" fill="#ffffff" fill-opacity="0.7058824" fill-rule="evenodd" stroke="none"/>
      <path d="M33.6 29.2 L33.95 27.0 35.8 26.85 37.55 26.6 38.4 26.95 Q38.75 27.25 38.75 28.35 38.75 30.75 34.65 31.3 34.2 31.0 33.85 30.2 L33.6 29.2 M41.25 13.55 L41.35 11.85 44.15 10.75 44.85 11.4 Q45.2 11.95 45.2 13.1 45.2 14.85 45.0 15.0 44.4 15.45 43.35 15.45 L41.8 15.4 41.45 14.9 41.25 13.55 M66.15 30.55 Q66.35 30.25 67.15 30.3 L70.7 30.85 71.1 33.95 Q70.85 34.15 70.6 34.4 L67.1 34.4 Q66.65 33.55 66.45 32.5 L66.15 30.55 M69.2 13.15 L69.5 12.5 Q72.1 12.55 73.85 12.4 74.1 13.05 73.8 13.65 72.45 14.25 71.2 14.35 70.5 14.3 69.9 14.15 69.1 13.55 69.2 13.1 M91.4 10.25 Q91.4 8.5 91.55 8.85 94.1 8.9 94.4 9.35 L94.65 10.85 94.5 12.05 94.0 12.55 92.0 12.55 91.55 11.8 Q91.4 11.4 91.4 10.25 Z" fill="none" stroke="#000000" stroke-linecap="round" stroke-linejoin="round" stroke-opacity="0.0" stroke-width="1.0"/>
    </g>
  </defs>
</svg>
