<?xml version="1.0" encoding="UTF-8" standalone="no"?>
<svg xmlns:xlink="http://www.w3.org/1999/xlink" height="47.45px" width="141.0px" xmlns="http://www.w3.org/2000/svg">
  <g transform="matrix(1.0, 0.0, 0.0, 1.0, -4.35, -2.9)">
    <use data-characterId="3188" height="47.45" transform="matrix(1.0, 0.0, 0.0, 1.0, 4.35, 2.9)" width="141.0" xlink:href="#morphshape0"/>
    <use data-characterId="3189" height="37.5" transform="matrix(1.0, 0.0, 0.0, 1.0, 17.5, 9.15)" width="116.05" xlink:href="#morphshape1"/>
    <use data-characterId="3190" height="21.8" transform="matrix(1.0, 0.0, 0.0, 1.0, 37.6, 4.7)" width="75.1" xlink:href="#morphshape2"/>
    <use data-characterId="3191" height="35.65" transform="matrix(1.0, 0.0, 0.0, 1.0, 32.35, 6.65)" width="66.65" xlink:href="#morphshape3"/>
  </g>
  <defs>
    <g id="morphshape0" transform="matrix(1.0, 0.0, 0.0, 1.0, -4.35, -2.9)">
      <path d="M4.65 18.85 Q4.95 20.35 9.4 21.25 13.9 22.0 18.95 22.45 27.35 23.3 23.05 25.35 18.25 26.05 20.3 27.5 22.95 28.45 20.55 29.35 18.15 30.05 16.85 31.2 15.85 33.0 18.3 33.6 20.35 34.05 22.3 34.3 25.8 34.6 28.1 35.45 L31.55 36.55 Q29.25 38.5 33.85 39.4 32.95 40.45 41.65 40.4 42.05 41.35 46.05 41.5 42.9 43.2 45.75 44.55 48.9 46.05 54.1 46.25 58.2 46.35 63.25 47.7 68.7 49.05 68.25 49.7 67.05 50.35 71.35 49.2 76.45 48.0 80.25 47.85 L90.15 47.0 Q95.25 46.6 98.45 46.0 104.8 45.85 106.9 43.4 107.4 42.25 108.85 40.35 113.75 39.5 112.1 38.05 121.25 36.0 118.9 34.5 119.6 33.9 117.6 33.7 124.2 32.4 123.85 31.7 127.1 30.6 125.3 29.7 124.3 29.0 121.9 28.35 120.3 27.95 123.1 27.1 125.85 26.25 131.05 24.3 136.3 22.35 135.9 20.9 135.4 19.35 128.75 18.9 125.45 18.45 123.1 18.5 L122.4 18.55 121.85 18.35 Q125.05 16.75 122.45 15.3 123.9 14.65 119.85 14.1 118.25 13.7 116.1 13.65 117.15 10.35 110.4 8.35 99.55 4.6 78.6 3.8 63.0 3.0 41.6 5.4 22.65 7.65 17.1 10.7 11.0 12.1 12.2 12.85 13.4 13.55 18.2 14.2 22.85 14.75 20.4 15.0 18.1 15.05 15.95 15.2 L7.25 16.05 4.9 16.3 Q4.2 17.5 4.8 18.7" fill="#96e0bc" fill-opacity="0.7058824" fill-rule="evenodd" stroke="none"/>
      <path d="M4.8 18.7 Q4.2 17.5 4.9 16.3 L7.25 16.05 15.95 15.2 Q18.1 15.05 20.4 15.0 22.85 14.75 18.2 14.2 13.4 13.55 12.2 12.85 11.0 12.1 17.1 10.7 22.65 7.65 41.6 5.4 63.0 3.0 78.6 3.8 99.55 4.6 110.4 8.35 117.15 10.35 116.1 13.65 118.25 13.7 119.85 14.1 123.9 14.65 122.45 15.3 125.05 16.75 121.85 18.35 L122.4 18.55 123.1 18.5 Q125.45 18.45 128.75 18.9 135.4 19.35 135.9 20.9 136.3 22.35 131.05 24.3 125.85 26.25 123.1 27.1 120.3 27.95 121.9 28.35 124.3 29.0 125.3 29.7 127.1 30.6 123.85 31.7 124.2 32.4 117.6 33.7 119.6 33.9 118.9 34.5 121.25 36.0 112.1 38.05 113.75 39.5 108.85 40.35 107.4 42.25 106.9 43.4 104.8 45.85 98.45 46.0 95.25 46.6 90.15 47.0 L80.25 47.85 Q76.45 48.0 71.35 49.2 67.05 50.35 68.25 49.7 68.7 49.05 63.25 47.7 58.2 46.35 54.1 46.25 48.9 46.05 45.75 44.55 42.9 43.2 46.05 41.5 42.05 41.35 41.65 40.4 32.95 40.45 33.85 39.4 29.25 38.5 31.55 36.55 L28.1 35.45 Q25.8 34.6 22.3 34.3 20.35 34.05 18.3 33.6 15.85 33.0 16.85 31.2 18.15 30.05 20.55 29.35 22.95 28.45 20.3 27.5 18.25 26.05 23.05 25.35 27.35 23.3 18.95 22.45 13.9 22.0 9.4 21.25 4.95 20.35 4.65 18.85" fill="none" stroke="#000000" stroke-linecap="round" stroke-linejoin="round" stroke-opacity="0.0" stroke-width="1.0"/>
    </g>
    <g id="morphshape1" transform="matrix(1.0, 0.0, 0.0, 1.0, -17.5, -9.15)">
      <path d="M118.4 23.15 Q118.4 23.9 118.85 24.6 119.6 25.65 122.45 25.4 L121.7 23.2 Q120.7 22.85 118.4 23.15 M100.4 29.95 Q100.4 30.3 101.5 31.1 L104.8 31.2 106.95 30.2 Q109.15 29.15 109.55 28.65 L108.05 27.45 103.85 27.05 Q100.4 27.25 100.4 29.95 M86.1 36.6 L86.4 37.3 Q87.1 37.7 88.25 38.1 L90.3 38.5 93.25 38.6 93.7 38.45 94.0 38.2 94.2 37.65 94.2 37.2 Q94.15 36.45 93.7 36.1 92.9 35.4 89.25 35.3 87.7 35.5 86.35 36.05 L86.15 36.65 M76.3 39.45 L76.3 39.5 76.75 40.3 Q77.95 40.6 79.3 40.85 L81.85 41.0 85.65 40.85 86.35 40.65 86.75 40.25 86.9 39.5 86.85 39.0 Q86.7 38.25 86.0 37.8 84.85 37.1 80.15 37.2 78.2 37.5 76.7 38.7 L76.25 39.45 M62.2 34.15 L62.75 35.05 69.1 35.45 Q73.15 35.45 76.0 33.2 76.0 31.3 69.95 31.15 63.7 31.05 62.2 34.15 M59.9 41.9 Q59.95 42.35 60.15 42.65 L63.2 42.65 Q63.65 42.4 63.9 40.8 L60.4 41.0 Q59.9 41.35 59.9 41.9 M49.0 36.2 L50.2 37.4 Q52.25 38.55 56.55 38.55 58.1 38.55 59.85 36.4 59.85 33.45 54.45 33.5 49.0 33.55 49.0 36.2 M27.9 28.8 Q27.95 29.4 30.6 30.85 33.9 32.5 37.55 32.45 L41.4 32.2 Q42.55 31.6 43.15 29.6 42.95 26.75 35.35 26.3 27.7 25.8 27.9 28.8 M18.85 16.95 Q18.85 17.4 19.3 18.1 L20.25 19.05 27.1 19.15 Q28.3 18.25 28.3 17.7 28.3 15.85 23.6 15.75 18.85 15.7 18.85 16.95" fill="#bef0d8" fill-opacity="0.7058824" fill-rule="evenodd" stroke="none"/>
      <path d="M18.85 16.95 Q18.85 15.7 23.6 15.75 28.3 15.85 28.3 17.7 28.3 18.25 27.1 19.15 L20.25 19.05 19.3 18.1 Q18.85 17.4 18.85 16.95 M27.9 28.8 Q27.7 25.8 35.35 26.3 42.95 26.75 43.15 29.6 42.55 31.6 41.4 32.2 L37.55 32.45 Q33.9 32.5 30.6 30.85 27.95 29.4 27.9 28.8 M49.0 36.2 Q49.0 33.55 54.45 33.5 59.85 33.45 59.85 36.4 58.1 38.55 56.55 38.55 52.25 38.55 50.2 37.4 L49.0 36.2 M59.9 41.9 Q59.9 41.35 60.4 41.0 L63.9 40.8 Q63.65 42.4 63.2 42.65 L60.15 42.65 Q59.95 42.35 59.9 41.9 M62.2 34.15 Q63.7 31.05 69.95 31.15 76.0 31.3 76.0 33.2 73.15 35.45 69.1 35.45 L62.75 35.05 62.2 34.15 M76.25 39.45 L76.7 38.7 Q78.2 37.5 80.15 37.2 84.85 37.1 86.0 37.8 86.7 38.25 86.85 39.0 L86.9 39.5 86.75 40.25 86.35 40.65 85.65 40.85 81.85 41.0 79.3 40.85 Q77.95 40.6 76.75 40.3 L76.3 39.5 76.3 39.45 M86.15 36.65 L86.35 36.05 Q87.7 35.5 89.25 35.3 92.9 35.4 93.7 36.1 94.15 36.45 94.2 37.2 L94.2 37.65 94.0 38.2 93.7 38.45 93.25 38.6 90.3 38.5 88.25 38.1 Q87.1 37.7 86.4 37.3 L86.1 36.6 M100.4 29.95 Q100.4 27.25 103.85 27.05 L108.05 27.45 109.55 28.65 Q109.15 29.15 106.95 30.2 L104.8 31.2 101.5 31.1 Q100.4 30.3 100.4 29.95 M118.4 23.15 Q120.7 22.85 121.7 23.2 L122.45 25.4 Q119.6 25.65 118.85 24.6 118.4 23.9 118.4 23.15 Z" fill="none" stroke="#000000" stroke-linecap="round" stroke-linejoin="round" stroke-opacity="0.0" stroke-width="1.0"/>
    </g>
    <g id="morphshape2" transform="matrix(1.0, 0.0, 0.0, 1.0, -37.6, -4.7)">
      <path d="M102.85 15.75 Q102.85 16.9 103.1 17.3 L103.9 17.85 Q106.1 17.15 107.7 16.6 108.4 16.1 107.35 13.05 104.95 13.25 103.9 13.9 102.85 14.5 102.85 15.75 M90.75 20.8 Q90.75 21.85 91.35 22.45 L94.4 22.65 Q94.85 21.65 94.6 19.55 L90.85 19.45 90.75 20.8 M89.2 11.25 Q89.2 12.3 89.6 13.2 L95.55 13.2 Q96.6 12.15 96.6 8.65 91.9 8.2 90.25 9.05 89.2 9.65 89.2 11.25 M80.95 21.25 Q81.0 22.2 81.75 24.05 82.4 24.5 83.95 24.65 L84.75 23.45 Q85.25 22.75 84.55 20.95 L80.95 21.25 M77.9 8.5 Q77.5 10.4 78.3 11.9 79.3 13.65 81.55 13.65 82.7 13.65 83.9 11.9 83.05 9.5 81.4 8.85 L77.9 8.5 M66.05 13.0 L66.1 14.45 66.45 15.0 71.9 15.75 75.2 16.15 Q76.95 16.15 75.85 13.7 75.85 10.65 70.95 10.5 66.05 10.4 66.05 13.0 M55.95 13.75 L56.0 14.6 56.1 14.8 Q56.3 15.15 56.6 15.2 57.1 15.35 58.15 15.5 L60.35 14.95 Q60.6 13.75 60.55 12.1 60.05 11.0 59.6 10.15 58.65 9.8 57.7 9.95 56.0 10.95 56.0 13.8 M49.25 19.15 L49.25 19.2 49.35 20.25 49.65 20.6 Q50.05 20.7 50.5 20.75 L52.65 20.85 Q54.5 20.7 56.1 20.65 56.3 19.4 55.7 16.7 54.9 15.15 54.15 14.3 52.9 13.35 51.5 13.8 49.2 14.9 49.2 19.1 M38.5 11.2 L39.6 13.3 Q41.3 15.45 44.3 15.45 48.2 15.45 48.2 12.25 48.2 9.25 43.35 8.45 38.5 7.6 38.5 11.2" fill="#bef0d8" fill-opacity="0.7058824" fill-rule="evenodd" stroke="none"/>
      <path d="M38.5 11.2 Q38.5 7.6 43.35 8.45 48.2 9.25 48.2 12.25 48.2 15.45 44.3 15.45 41.3 15.45 39.6 13.3 L38.5 11.2 M49.2 19.1 Q49.2 14.9 51.5 13.8 52.9 13.35 54.15 14.3 54.9 15.15 55.7 16.7 56.3 19.4 56.1 20.65 54.5 20.7 52.65 20.85 L50.5 20.75 Q50.05 20.7 49.65 20.6 L49.35 20.25 49.25 19.2 49.25 19.15 M56.0 13.8 Q56.0 10.95 57.7 9.95 58.65 9.8 59.6 10.15 60.05 11.0 60.55 12.1 60.6 13.75 60.35 14.95 L58.15 15.5 Q57.1 15.35 56.6 15.2 56.3 15.15 56.1 14.8 L56.0 14.6 55.95 13.75 M66.05 13.0 Q66.05 10.4 70.95 10.5 75.85 10.65 75.85 13.7 76.95 16.15 75.2 16.15 L71.9 15.75 66.45 15.0 66.1 14.45 66.05 13.0 M77.9 8.5 L81.4 8.85 Q83.05 9.5 83.9 11.9 82.7 13.65 81.55 13.65 79.3 13.65 78.3 11.9 77.5 10.4 77.9 8.5 M80.95 21.25 L84.55 20.95 Q85.25 22.75 84.75 23.45 L83.95 24.65 Q82.4 24.5 81.75 24.05 81.0 22.2 80.95 21.25 M89.2 11.25 Q89.2 9.65 90.25 9.05 91.9 8.2 96.6 8.65 96.6 12.15 95.55 13.2 L89.6 13.2 Q89.2 12.3 89.2 11.25 M90.75 20.8 L90.85 19.45 94.6 19.55 Q94.85 21.65 94.4 22.65 L91.35 22.45 Q90.75 21.85 90.75 20.8 M102.85 15.75 Q102.85 14.5 103.9 13.9 104.95 13.25 107.35 13.05 108.4 16.1 107.7 16.6 106.1 17.15 103.9 17.85 L103.1 17.3 Q102.85 16.9 102.85 15.75 Z" fill="none" stroke="#000000" stroke-linecap="round" stroke-linejoin="round" stroke-opacity="0.0" stroke-width="1.0"/>
    </g>
    <g id="morphshape3" transform="matrix(1.0, 0.0, 0.0, 1.0, -32.35, -6.65)">
      <path d="M94.75 8.7 Q94.75 9.85 94.9 10.25 L95.35 11.0 97.35 11.0 97.85 10.5 98.0 9.3 97.75 7.8 Q97.45 7.35 94.9 7.3 94.75 6.95 94.75 8.7 M69.3 12.6 Q69.05 12.95 69.6 13.85 70.1 14.25 70.75 14.6 L73.5 14.95 Q74.0 14.5 74.0 13.8 73.8 13.35 69.85 12.15 L69.3 12.6 M66.15 31.65 L66.45 33.6 Q66.65 34.65 67.1 35.5 L70.6 35.5 Q70.85 35.25 71.1 35.05 L70.7 31.95 67.15 31.4 Q66.35 31.35 66.15 31.65 M41.3 13.6 L41.5 14.95 41.85 15.45 43.4 15.5 Q44.45 15.5 45.05 15.05 45.25 14.9 45.25 13.15 45.25 12.0 44.9 11.45 L44.2 10.8 41.4 11.9 41.3 13.6 M33.7 29.2 L33.95 30.2 Q34.3 31.0 34.75 31.3 38.85 30.75 38.85 28.35 38.85 27.25 38.5 26.95 L37.65 26.6 35.9 26.85 34.05 27.0 33.7 29.2" fill="#ffffff" fill-opacity="0.7058824" fill-rule="evenodd" stroke="none"/>
      <path d="M33.7 29.2 L34.05 27.0 35.9 26.85 37.65 26.6 38.5 26.95 Q38.85 27.25 38.85 28.35 38.85 30.75 34.75 31.3 34.3 31.0 33.95 30.2 L33.7 29.2 M41.3 13.6 L41.4 11.9 44.2 10.8 44.9 11.45 Q45.25 12.0 45.25 13.15 45.25 14.9 45.05 15.05 44.45 15.5 43.4 15.5 L41.85 15.45 41.5 14.95 41.3 13.6 M66.15 31.65 Q66.35 31.35 67.15 31.4 L70.7 31.95 71.1 35.05 Q70.85 35.25 70.6 35.5 L67.1 35.5 Q66.65 34.65 66.45 33.6 L66.15 31.65 M69.3 12.6 L69.85 12.15 Q73.8 13.35 74.0 13.8 74.0 14.5 73.5 14.95 L70.75 14.6 Q70.1 14.25 69.6 13.85 69.05 12.95 69.3 12.6 M94.75 8.7 Q94.75 6.95 94.9 7.3 97.45 7.35 97.75 7.8 L98.0 9.3 97.85 10.5 97.35 11.0 95.35 11.0 94.9 10.25 Q94.75 9.85 94.75 8.7 Z" fill="none" stroke="#000000" stroke-linecap="round" stroke-linejoin="round" stroke-opacity="0.0" stroke-width="1.0"/>
    </g>
  </defs>
</svg>
