<?xml version="1.0" encoding="UTF-8" standalone="no"?>
<svg xmlns:xlink="http://www.w3.org/1999/xlink" height="47.45px" width="141.0px" xmlns="http://www.w3.org/2000/svg">
  <g transform="matrix(1.0, 0.0, 0.0, 1.0, -4.35, -2.9)">
    <use data-characterId="3192" height="47.45" transform="matrix(1.0, 0.0, 0.0, 1.0, 4.35, 2.9)" width="141.0" xlink:href="#morphshape0"/>
    <use data-characterId="3193" height="37.5" transform="matrix(1.0, 0.0, 0.0, 1.0, 17.5, 9.15)" width="116.05" xlink:href="#morphshape1"/>
    <use data-characterId="3194" height="21.8" transform="matrix(1.0, 0.0, 0.0, 1.0, 37.6, 4.7)" width="75.1" xlink:href="#morphshape2"/>
    <use data-characterId="3195" height="35.65" transform="matrix(1.0, 0.0, 0.0, 1.0, 32.35, 6.65)" width="66.65" xlink:href="#morphshape3"/>
  </g>
  <defs>
    <g id="morphshape0" transform="matrix(1.0, 0.0, 0.0, 1.0, -4.35, -2.9)">
      <path d="M4.8 16.7 Q4.1 18.3 13.3 19.75 22.5 21.15 33.45 21.75 44.95 22.4 28.25 23.4 11.5 24.2 23.2 26.0 35.0 27.7 27.35 28.35 19.65 28.9 14.4 30.65 9.2 32.45 13.95 32.9 18.65 33.3 20.2 33.8 22.0 34.3 24.15 34.55 L36.45 35.2 Q29.95 36.75 30.4 37.4 17.25 40.65 36.6 40.2 40.25 40.45 53.65 38.65 43.05 41.9 43.6 42.95 44.2 44.05 52.1 44.55 61.2 44.9 70.45 45.45 81.15 45.9 72.9 48.1 64.5 50.3 67.05 50.1 71.75 49.95 76.2 49.95 L92.25 49.5 Q101.55 49.1 104.45 47.95 107.85 46.85 106.25 45.75 104.35 44.8 107.7 42.0 109.75 40.8 100.55 38.45 122.45 38.0 125.1 36.1 128.25 34.35 122.15 33.95 120.15 33.55 117.1 33.25 126.2 31.7 126.6 30.85 127.05 30.0 122.85 29.1 118.75 28.25 113.2 27.95 107.65 27.65 121.95 26.5 136.3 25.35 141.65 23.5 146.95 21.6 138.1 20.0 129.8 18.4 124.6 18.45 L122.5 18.55 122.3 18.5 Q122.55 18.1 121.85 17.75 134.65 16.3 128.85 15.1 123.4 13.85 116.15 13.65 116.3 13.05 115.2 12.7 106.3 8.35 98.35 5.6 91.2 2.85 65.6 3.25 46.5 3.6 25.15 7.25 3.7 10.6 7.0 11.75 10.3 12.85 25.65 13.8 40.95 14.7 34.25 14.9 27.5 15.0 20.85 15.1 L12.8 15.4 4.9 16.3 Q4.75 16.5 4.85 16.7" fill="#96e0bc" fill-opacity="0.7058824" fill-rule="evenodd" stroke="none"/>
      <path d="M4.85 16.7 Q4.75 16.5 4.9 16.3 L12.8 15.4 20.85 15.1 Q27.5 15.0 34.25 14.9 40.95 14.7 25.65 13.8 10.3 12.85 7.0 11.75 3.7 10.6 25.15 7.25 46.5 3.6 65.6 3.25 91.2 2.85 98.35 5.6 106.3 8.35 115.2 12.7 116.3 13.05 116.15 13.65 123.4 13.85 128.85 15.1 134.65 16.3 121.85 17.75 122.55 18.1 122.3 18.5 L122.5 18.55 124.6 18.45 Q129.8 18.4 138.1 20.0 146.95 21.6 141.65 23.5 136.3 25.35 121.95 26.5 107.65 27.65 113.2 27.95 118.75 28.25 122.85 29.1 127.05 30.0 126.6 30.85 126.2 31.7 117.1 33.25 120.15 33.55 122.15 33.95 128.25 34.35 125.1 36.1 122.45 38.0 100.55 38.45 109.75 40.8 107.7 42.0 104.35 44.8 106.25 45.75 107.85 46.85 104.45 47.95 101.55 49.1 92.25 49.5 L76.2 49.95 Q71.75 49.95 67.05 50.1 64.5 50.3 72.9 48.1 81.15 45.9 70.45 45.45 61.2 44.9 52.1 44.55 44.2 44.05 43.6 42.95 43.05 41.9 53.65 38.65 40.25 40.45 36.6 40.2 17.25 40.65 30.4 37.4 29.95 36.75 36.45 35.2 L24.15 34.55 Q22.0 34.3 20.2 33.8 18.65 33.3 13.95 32.9 9.2 32.45 14.4 30.65 19.65 28.9 27.35 28.35 35.0 27.7 23.2 26.0 11.5 24.2 28.25 23.4 44.95 22.4 33.45 21.75 22.5 21.15 13.3 19.75 4.1 18.3 4.8 16.7" fill="none" stroke="#000000" stroke-linecap="round" stroke-linejoin="round" stroke-opacity="0.0" stroke-width="1.0"/>
    </g>
    <g id="morphshape1" transform="matrix(1.0, 0.0, 0.0, 1.0, -17.5, -9.15)">
      <path d="M127.7 21.9 Q127.7 22.65 128.15 23.35 128.9 24.4 131.75 24.15 L131.0 21.95 Q130.0 21.6 127.7 21.9 M102.6 33.4 Q102.6 33.75 103.7 34.55 L107.0 34.65 109.15 33.65 Q111.35 32.6 111.75 32.1 L110.25 30.9 106.05 30.5 Q102.6 30.7 102.6 33.4 M89.6 43.9 L89.6 43.9 90.1 44.75 Q91.45 45.0 92.85 45.25 L95.55 45.35 99.6 45.15 100.35 44.9 100.8 44.5 100.95 43.7 100.9 43.2 Q100.7 42.4 99.95 41.9 98.75 41.15 93.7 41.3 91.6 41.65 90.05 43.1 L89.5 43.9 M78.9 32.45 L79.15 33.1 Q79.7 33.55 80.8 33.95 L82.7 34.4 85.4 34.55 85.8 34.45 86.05 34.2 86.25 33.7 86.25 33.25 Q86.25 32.55 85.85 32.25 85.1 31.6 81.8 31.45 80.4 31.6 79.1 31.9 L79.0 32.45 M61.4 40.05 L61.95 40.95 68.3 41.35 Q72.35 41.35 75.2 39.1 75.2 37.2 69.15 37.05 62.9 36.95 61.4 40.05 M55.2 40.9 Q55.35 41.3 55.45 41.65 L58.5 41.65 Q58.95 41.4 59.2 39.8 L55.7 40.0 Q55.2 40.35 55.2 40.9 M49.0 34.25 L50.2 35.45 Q52.25 36.6 56.55 36.6 58.1 36.6 59.85 34.45 59.85 31.5 54.45 31.55 49.0 31.6 49.0 34.25 M31.45 30.05 Q31.65 30.6 34.45 31.65 38.0 32.05 41.6 32.15 L45.35 31.25 Q46.35 30.45 46.65 28.35 46.0 25.55 38.4 26.35 30.75 27.1 31.4 30.05 M22.05 11.45 Q22.05 11.9 22.5 12.6 L23.45 13.55 30.3 13.65 Q31.5 12.75 31.5 12.2 31.5 10.35 26.8 10.25 22.05 10.2 22.05 11.45" fill="#bef0d8" fill-opacity="0.7058824" fill-rule="evenodd" stroke="none"/>
      <path d="M22.05 11.45 Q22.05 10.2 26.8 10.25 31.5 10.35 31.5 12.2 31.5 12.75 30.3 13.65 L23.45 13.55 22.5 12.6 Q22.05 11.9 22.05 11.45 M31.4 30.05 Q30.75 27.1 38.4 26.35 46.0 25.55 46.65 28.35 46.35 30.45 45.35 31.25 L41.6 32.15 Q38.0 32.05 34.45 31.65 31.65 30.6 31.45 30.05 M49.0 34.25 Q49.0 31.6 54.45 31.55 59.85 31.5 59.85 34.45 58.1 36.6 56.55 36.6 52.25 36.6 50.2 35.45 L49.0 34.25 M55.2 40.9 Q55.2 40.35 55.7 40.0 L59.2 39.8 Q58.95 41.4 58.5 41.65 L55.45 41.65 Q55.35 41.3 55.2 40.9 M61.4 40.05 Q62.9 36.95 69.15 37.05 75.2 37.2 75.2 39.1 72.35 41.35 68.3 41.35 L61.95 40.95 61.4 40.05 M79.0 32.45 L79.1 31.9 Q80.4 31.6 81.8 31.45 85.1 31.6 85.85 32.25 86.25 32.55 86.25 33.25 L86.25 33.7 86.05 34.2 85.8 34.45 85.4 34.55 82.7 34.4 80.8 33.95 Q79.7 33.55 79.15 33.1 L78.9 32.45 M89.5 43.9 L90.05 43.1 Q91.6 41.65 93.7 41.3 98.75 41.15 99.95 41.9 100.7 42.4 100.9 43.2 L100.95 43.7 100.8 44.5 100.35 44.9 99.6 45.15 95.55 45.35 92.85 45.25 Q91.45 45.0 90.1 44.75 L89.6 43.9 89.6 43.9 M102.6 33.4 Q102.6 30.7 106.05 30.5 L110.25 30.9 111.75 32.1 Q111.35 32.6 109.15 33.65 L107.0 34.65 103.7 34.55 Q102.6 33.75 102.6 33.4 M127.7 21.9 Q130.0 21.6 131.0 21.95 L131.75 24.15 Q128.9 24.4 128.15 23.35 127.7 22.65 127.7 21.9 Z" fill="none" stroke="#000000" stroke-linecap="round" stroke-linejoin="round" stroke-opacity="0.0" stroke-width="1.0"/>
    </g>
    <g id="morphshape2" transform="matrix(1.0, 0.0, 0.0, 1.0, -37.6, -4.7)">
      <path d="M106.8 18.7 Q106.8 19.85 107.05 20.25 L107.85 20.8 Q110.8 20.0 111.65 19.55 112.35 19.05 111.3 16.0 108.9 16.2 107.85 16.85 106.8 17.45 106.8 18.7 M93.7 17.2 Q93.7 18.25 94.3 18.85 L97.35 19.05 Q97.8 18.05 97.55 15.95 L93.8 15.85 93.7 17.2 M92.45 9.3 Q92.45 10.35 92.85 11.25 L98.8 11.25 Q99.85 10.2 99.85 6.7 95.15 6.25 93.5 7.1 92.45 7.7 92.45 9.3 M84.15 16.8 Q84.2 17.75 84.95 19.6 85.6 20.05 87.15 20.2 L87.95 19.0 Q88.45 18.3 87.75 16.5 L84.15 16.8 M75.8 14.05 Q75.4 15.95 76.2 17.45 77.2 19.2 79.45 19.2 80.6 19.2 81.8 17.45 80.95 15.05 79.3 14.4 L75.8 14.05 M64.2 9.75 L64.25 11.2 64.6 11.75 70.05 12.5 73.35 12.9 Q75.1 12.9 74.0 10.45 74.0 7.4 69.1 7.25 64.2 7.15 64.2 9.75 M56.1 21.8 L56.1 21.8 56.2 22.95 56.55 23.35 Q57.05 23.4 57.55 23.4 58.7 23.4 59.9 23.4 L63.7 23.3 Q63.9 22.0 63.2 19.0 62.3 17.35 61.45 16.5 60.1 15.35 58.6 15.9 56.15 17.05 56.15 21.65 M52.2 9.5 L52.25 10.25 52.3 10.4 Q52.4 10.8 52.65 10.9 L54.0 11.25 Q55.4 10.7 55.85 10.6 56.1 9.45 56.15 8.1 55.75 7.1 55.4 6.25 54.55 6.1 53.7 6.15 52.15 7.1 52.15 9.55 M40.65 13.6 L41.75 15.7 Q43.45 17.85 46.45 17.85 50.35 17.85 50.35 14.65 50.35 11.65 45.5 10.85 40.65 10.0 40.65 13.6" fill="#bef0d8" fill-opacity="0.7058824" fill-rule="evenodd" stroke="none"/>
      <path d="M40.65 13.6 Q40.65 10.0 45.5 10.85 50.35 11.65 50.35 14.65 50.35 17.85 46.45 17.85 43.45 17.85 41.75 15.7 L40.65 13.6 M52.15 9.55 Q52.15 7.1 53.7 6.15 54.55 6.1 55.4 6.25 55.75 7.1 56.15 8.1 56.1 9.45 55.85 10.6 55.4 10.7 54.0 11.25 L52.65 10.9 Q52.4 10.8 52.3 10.4 L52.25 10.25 52.2 9.5 M56.15 21.65 Q56.15 17.05 58.6 15.9 60.1 15.35 61.45 16.5 62.3 17.35 63.2 19.0 63.9 22.0 63.7 23.3 L59.9 23.4 Q58.7 23.4 57.55 23.4 57.05 23.4 56.55 23.35 L56.2 22.95 56.1 21.8 56.1 21.8 M64.2 9.75 Q64.2 7.15 69.1 7.25 74.0 7.4 74.0 10.45 75.1 12.9 73.35 12.9 L70.05 12.5 64.6 11.75 64.25 11.2 64.2 9.75 M75.8 14.05 L79.3 14.4 Q80.95 15.05 81.8 17.45 80.6 19.2 79.45 19.2 77.2 19.2 76.2 17.45 75.4 15.95 75.8 14.05 M84.15 16.8 L87.75 16.5 Q88.45 18.3 87.95 19.0 L87.15 20.2 Q85.6 20.05 84.95 19.6 84.2 17.75 84.15 16.8 M92.45 9.3 Q92.45 7.7 93.5 7.1 95.15 6.25 99.85 6.7 99.85 10.2 98.8 11.25 L92.85 11.25 Q92.45 10.35 92.45 9.3 M93.7 17.2 L93.8 15.85 97.55 15.95 Q97.8 18.05 97.35 19.05 L94.3 18.85 Q93.7 18.25 93.7 17.2 M106.8 18.7 Q106.8 17.45 107.85 16.85 108.9 16.2 111.3 16.0 112.35 19.05 111.65 19.55 110.8 20.0 107.85 20.8 L107.05 20.25 Q106.8 19.85 106.8 18.7 Z" fill="none" stroke="#000000" stroke-linecap="round" stroke-linejoin="round" stroke-opacity="0.0" stroke-width="1.0"/>
    </g>
    <g id="morphshape3" transform="matrix(1.0, 0.0, 0.0, 1.0, -32.35, -6.65)">
      <path d="M95.05 8.45 Q95.05 9.6 95.2 10.0 L95.65 10.75 97.65 10.75 98.15 10.25 98.3 9.05 98.05 7.55 Q97.75 7.1 95.2 7.05 95.05 6.7 95.05 8.45 M68.6 9.6 Q68.35 9.95 68.95 10.8 69.25 11.2 70.1 11.45 71.5 11.6 72.85 11.65 73.3 11.2 73.25 10.5 72.8 10.15 69.05 9.15 L68.55 9.65 M65.8 37.2 L66.1 39.15 Q66.3 40.2 66.75 41.05 L70.25 41.05 Q70.45 40.75 70.75 40.6 L70.35 37.5 66.8 36.95 Q66.0 36.9 65.8 37.2 M44.1 15.05 L44.3 16.4 44.65 16.9 46.2 16.95 Q47.25 16.95 47.85 16.5 48.05 16.35 48.05 14.6 48.05 13.45 47.7 12.9 L47.0 12.25 44.2 13.35 44.1 15.05 M36.9 29.2 L37.15 30.2 Q37.5 31.0 37.95 31.3 42.05 30.75 42.05 28.35 42.05 27.25 41.7 26.95 L40.85 26.6 39.1 26.85 37.25 27.0 36.9 29.2" fill="#ffffff" fill-opacity="0.7058824" fill-rule="evenodd" stroke="none"/>
      <path d="M36.9 29.2 L37.25 27.0 39.1 26.85 40.85 26.6 41.7 26.95 Q42.05 27.25 42.05 28.35 42.05 30.75 37.95 31.3 37.5 31.0 37.15 30.2 L36.9 29.2 M44.1 15.05 L44.2 13.35 47.0 12.25 47.7 12.9 Q48.05 13.45 48.05 14.6 48.05 16.35 47.85 16.5 47.25 16.95 46.2 16.95 L44.65 16.9 44.3 16.4 44.1 15.05 M65.8 37.2 Q66.0 36.9 66.8 36.95 L70.35 37.5 70.75 40.6 Q70.45 40.75 70.25 41.05 L66.75 41.05 Q66.3 40.2 66.1 39.15 L65.8 37.2 M68.55 9.65 L69.05 9.15 Q72.8 10.15 73.25 10.5 73.3 11.2 72.85 11.65 71.5 11.6 70.1 11.45 69.25 11.2 68.95 10.8 68.35 9.95 68.6 9.6 M95.05 8.45 Q95.05 6.7 95.2 7.05 97.75 7.1 98.05 7.55 L98.3 9.05 98.15 10.25 97.65 10.75 95.65 10.75 95.2 10.0 Q95.05 9.6 95.05 8.45 Z" fill="none" stroke="#000000" stroke-linecap="round" stroke-linejoin="round" stroke-opacity="0.0" stroke-width="1.0"/>
    </g>
  </defs>
</svg>
