<?xml version="1.0" encoding="UTF-8" standalone="no"?>
<svg xmlns:xlink="http://www.w3.org/1999/xlink" height="47.45px" width="141.0px" xmlns="http://www.w3.org/2000/svg">
  <g transform="matrix(1.0, 0.0, 0.0, 1.0, -4.35, -2.9)">
    <use data-characterId="3188" height="47.45" transform="matrix(1.0, 0.0, 0.0, 1.0, 4.35, 2.9)" width="141.0" xlink:href="#morphshape0"/>
    <use data-characterId="3189" height="37.5" transform="matrix(1.0, 0.0, 0.0, 1.0, 17.5, 9.15)" width="116.05" xlink:href="#morphshape1"/>
    <use data-characterId="3190" height="21.8" transform="matrix(1.0, 0.0, 0.0, 1.0, 37.6, 4.7)" width="75.1" xlink:href="#morphshape2"/>
    <use data-characterId="3191" height="35.65" transform="matrix(1.0, 0.0, 0.0, 1.0, 32.35, 6.65)" width="66.65" xlink:href="#morphshape3"/>
  </g>
  <defs>
    <g id="morphshape0" transform="matrix(1.0, 0.0, 0.0, 1.0, -4.35, -2.9)">
      <path d="M4.7 17.6 Q4.45 19.15 11.55 20.35 18.7 21.45 27.05 22.0 37.2 22.75 25.95 24.2 14.4 24.95 21.9 26.6 29.7 28.0 24.35 28.75 19.0 29.4 15.45 30.9 12.1 32.7 15.85 33.2 19.4 33.65 21.15 34.05 23.7 34.45 25.9 34.95 L34.3 35.8 Q29.65 37.5 31.9 38.25 24.1 40.55 38.75 40.25 41.0 40.8 50.3 39.85 42.95 42.4 44.5 43.6 46.2 44.85 52.9 45.2 59.8 45.45 67.2 46.35 75.6 47.2 70.8 48.7 65.55 50.2 68.85 49.6 73.75 49.0 77.95 48.95 L91.3 48.35 Q98.75 47.95 101.8 47.05 106.5 46.35 106.5 44.65 105.65 43.6 108.15 41.2 111.45 40.15 105.55 38.2 121.9 37.05 122.35 35.3 124.45 34.05 120.15 33.75 121.95 32.95 120.05 32.45 126.6 31.1 126.05 30.2 125.85 29.4 122.45 28.6 119.45 27.95 117.55 27.4 115.65 26.85 125.95 25.35 136.3 23.85 139.15 22.15 141.9 20.4 134.0 19.3 127.9 18.2 123.95 18.25 L122.45 18.3 122.1 18.2 Q123.65 17.3 122.1 16.45 129.9 15.35 124.85 14.45 121.1 13.6 116.1 13.5 116.65 11.75 113.05 10.7 103.3 6.6 89.65 4.7 78.8 2.8 55.05 4.05 36.0 5.25 21.6 8.65 6.85 11.15 9.25 12.1 11.65 13.0 22.4 13.8 33.05 14.55 28.2 14.8 23.4 14.9 18.7 15.05 L10.35 15.6 4.9 16.25 Q4.5 16.9 4.8 17.55" fill="#96e0bc" fill-opacity="0.7058824" fill-rule="evenodd" stroke="none"/>
      <path d="M4.8 17.55 Q4.5 16.9 4.9 16.25 L10.35 15.6 18.7 15.05 Q23.4 14.9 28.2 14.8 33.05 14.55 22.4 13.8 11.65 13.0 9.25 12.1 6.85 11.15 21.6 8.65 36.0 5.25 55.05 4.05 78.8 2.8 89.65 4.7 103.3 6.6 113.05 10.7 116.65 11.75 116.1 13.5 121.1 13.6 124.85 14.45 129.9 15.35 122.1 16.45 123.65 17.3 122.1 18.2 L122.45 18.3 123.95 18.25 Q127.9 18.2 134.0 19.3 141.9 20.4 139.15 22.15 136.3 23.85 125.95 25.35 115.65 26.85 117.55 27.4 119.45 27.95 122.45 28.6 125.85 29.4 126.05 30.2 126.6 31.1 120.05 32.45 121.95 32.95 120.15 33.75 124.45 34.05 122.35 35.3 121.9 37.05 105.55 38.2 111.45 40.15 108.15 41.2 105.65 43.6 106.5 44.65 106.5 46.35 101.8 47.05 98.75 47.95 91.3 48.35 L77.95 48.95 Q73.75 49.0 68.85 49.6 65.55 50.2 70.8 48.7 75.6 47.2 67.2 46.35 59.8 45.45 52.9 45.2 46.2 44.85 44.5 43.6 42.95 42.4 50.3 39.85 41.0 40.8 38.75 40.25 24.1 40.55 31.9 38.25 29.65 37.5 34.3 35.8 L25.9 34.95 Q23.7 34.45 21.15 34.05 19.4 33.65 15.85 33.2 12.1 32.7 15.45 30.9 19.0 29.4 24.35 28.75 29.7 28.0 21.9 26.6 14.4 24.95 25.95 24.2 37.2 22.75 27.05 22.0 18.7 21.45 11.55 20.35 4.45 19.15 4.7 17.6" fill="none" stroke="#000000" stroke-linecap="round" stroke-linejoin="round" stroke-opacity="0.0" stroke-width="1.0"/>
    </g>
    <g id="morphshape1" transform="matrix(1.0, 0.0, 0.0, 1.0, -17.5, -9.15)">
      <path d="M123.65 22.45 Q123.65 23.2 124.1 23.9 124.85 24.95 127.7 24.7 L126.95 22.5 Q125.95 22.15 123.65 22.45 M101.65 31.9 Q101.65 32.25 102.75 33.05 L106.05 33.15 108.2 32.15 Q110.4 31.1 110.8 30.6 L109.3 29.4 105.1 29.0 Q101.65 29.2 101.65 31.9 M88.1 40.65 L88.5 41.45 Q89.55 41.75 90.85 42.05 L93.25 42.3 96.8 42.25 97.4 42.05 97.8 41.7 97.95 41.0 97.9 40.5 Q97.8 39.75 97.2 39.35 96.15 38.65 91.75 38.7 89.9 38.95 88.45 40.0 L88.05 40.7 M77.75 35.55 L77.75 35.6 78.1 36.25 Q78.95 36.65 80.15 37.0 L82.35 37.3 85.55 37.3 86.1 37.15 86.4 36.85 86.6 36.25 86.6 35.8 Q86.5 35.05 85.95 34.65 85.05 33.95 81.1 33.9 79.45 34.15 78.05 34.85 L77.8 35.5 M61.75 37.45 L62.3 38.35 68.65 38.75 Q72.7 38.75 75.55 36.5 75.55 34.6 69.5 34.45 63.25 34.35 61.75 37.45 M57.25 41.35 Q57.35 41.8 57.5 42.1 L60.55 42.1 Q61.0 41.85 61.25 40.25 L57.75 40.45 Q57.25 40.8 57.25 41.35 M49.0 35.1 L50.2 36.3 Q52.25 37.45 56.55 37.45 58.1 37.45 59.85 35.3 59.85 32.35 54.45 32.4 49.0 32.45 49.0 35.1 M29.85 29.55 Q29.95 30.1 32.7 31.3 36.15 32.25 39.75 32.25 L43.55 31.65 Q44.65 30.95 45.1 28.9 44.65 26.05 37.05 26.3 29.4 26.5 29.85 29.5 M20.65 13.85 Q20.65 14.3 21.1 15.0 L22.05 15.95 28.9 16.05 Q30.1 15.15 30.1 14.6 30.1 12.75 25.4 12.65 20.65 12.6 20.65 13.85" fill="#bef0d8" fill-opacity="0.7058824" fill-rule="evenodd" stroke="none"/>
      <path d="M20.65 13.85 Q20.65 12.6 25.4 12.65 30.1 12.75 30.1 14.6 30.1 15.15 28.9 16.05 L22.05 15.95 21.1 15.0 Q20.65 14.3 20.65 13.85 M29.85 29.5 Q29.4 26.5 37.05 26.3 44.65 26.05 45.1 28.9 44.65 30.95 43.55 31.65 L39.75 32.25 Q36.15 32.25 32.7 31.3 29.95 30.1 29.85 29.55 M49.0 35.1 Q49.0 32.45 54.45 32.4 59.85 32.35 59.85 35.3 58.1 37.45 56.55 37.45 52.25 37.45 50.2 36.3 L49.0 35.1 M57.25 41.35 Q57.25 40.8 57.75 40.45 L61.25 40.25 Q61.0 41.85 60.55 42.1 L57.5 42.1 Q57.35 41.8 57.25 41.35 M61.75 37.45 Q63.25 34.35 69.5 34.45 75.55 34.6 75.55 36.5 72.7 38.75 68.65 38.75 L62.3 38.35 61.75 37.45 M77.8 35.5 L78.05 34.85 Q79.45 34.15 81.1 33.9 85.05 33.95 85.95 34.65 86.5 35.05 86.6 35.8 L86.6 36.25 86.4 36.85 86.1 37.15 85.55 37.3 82.35 37.3 80.15 37.0 Q78.95 36.65 78.1 36.25 L77.75 35.6 77.75 35.55 M88.05 40.7 L88.45 40.0 Q89.9 38.95 91.75 38.7 96.15 38.65 97.2 39.35 97.8 39.75 97.9 40.5 L97.95 41.0 97.8 41.7 97.4 42.05 96.8 42.25 93.25 42.3 90.85 42.05 Q89.55 41.75 88.5 41.45 L88.1 40.65 M101.65 31.9 Q101.65 29.2 105.1 29.0 L109.3 29.4 110.8 30.6 Q110.4 31.1 108.2 32.15 L106.05 33.15 102.75 33.05 Q101.65 32.25 101.65 31.9 M123.65 22.45 Q125.95 22.15 126.95 22.5 L127.7 24.7 Q124.85 24.95 124.1 23.9 123.65 23.2 123.65 22.45 Z" fill="none" stroke="#000000" stroke-linecap="round" stroke-linejoin="round" stroke-opacity="0.0" stroke-width="1.0"/>
    </g>
    <g id="morphshape2" transform="matrix(1.0, 0.0, 0.0, 1.0, -37.6, -4.7)">
      <path d="M105.05 17.4 Q105.05 18.55 105.3 18.95 L106.1 19.5 Q108.75 18.75 109.9 18.25 110.6 17.75 109.55 14.7 107.15 14.9 106.1 15.55 105.05 16.15 105.05 17.4 M92.4 18.75 Q92.4 19.8 93.0 20.4 L96.05 20.6 Q96.5 19.6 96.25 17.5 L92.5 17.4 92.4 18.75 M91.05 10.15 Q91.05 11.2 91.45 12.1 L97.4 12.1 Q98.45 11.05 98.45 7.55 93.75 7.1 92.1 7.95 91.05 8.55 91.05 10.15 M82.75 18.75 Q82.8 19.7 83.55 21.55 84.2 22.0 85.75 22.15 L86.55 20.95 Q87.05 20.25 86.35 18.45 L82.75 18.75 M76.7 11.6 Q76.3 13.5 77.1 15.0 78.1 16.75 80.35 16.75 81.5 16.75 82.7 15.0 81.85 12.6 80.2 11.95 L76.7 11.6 M65.0 11.15 L65.05 12.6 65.4 13.15 70.85 13.9 74.15 14.3 Q75.9 14.3 74.8 11.85 74.8 8.8 69.9 8.65 65.0 8.55 65.0 11.15 M56.15 18.15 L56.25 19.2 56.5 19.5 Q56.85 19.7 57.25 19.75 58.1 19.85 59.25 19.95 L62.35 19.65 Q62.55 18.4 62.1 16.0 61.35 14.6 60.65 13.75 59.5 12.95 58.25 13.3 56.1 14.4 56.1 18.25 M50.8 13.8 L50.8 13.9 50.85 14.7 51.0 14.95 Q51.25 15.2 51.6 15.25 L53.3 15.5 Q54.9 15.1 55.85 15.05 56.1 13.85 55.9 11.9 55.35 10.65 54.85 9.8 53.8 9.3 52.7 9.55 50.85 10.55 50.85 13.75 M39.7 12.55 L40.8 14.65 Q42.5 16.8 45.5 16.8 49.4 16.8 49.4 13.6 49.4 10.6 44.55 9.8 39.7 8.95 39.7 12.55" fill="#bef0d8" fill-opacity="0.7058824" fill-rule="evenodd" stroke="none"/>
      <path d="M39.7 12.55 Q39.7 8.95 44.55 9.8 49.4 10.6 49.4 13.6 49.4 16.8 45.5 16.8 42.5 16.8 40.8 14.65 L39.7 12.55 M50.85 13.75 Q50.85 10.55 52.7 9.55 53.8 9.3 54.85 9.8 55.35 10.65 55.9 11.9 56.1 13.85 55.85 15.05 54.9 15.1 53.3 15.5 L51.6 15.25 Q51.25 15.2 51.0 14.95 L50.85 14.7 50.8 13.9 50.8 13.8 M56.1 18.25 Q56.1 14.4 58.25 13.3 59.5 12.95 60.65 13.75 61.35 14.6 62.1 16.0 62.55 18.4 62.35 19.65 L59.25 19.95 Q58.1 19.85 57.25 19.75 56.85 19.7 56.5 19.5 L56.25 19.2 56.15 18.15 M65.0 11.15 Q65.0 8.55 69.9 8.65 74.8 8.8 74.8 11.85 75.9 14.3 74.15 14.3 L70.85 13.9 65.4 13.15 65.05 12.6 65.0 11.15 M76.7 11.6 L80.2 11.95 Q81.85 12.6 82.7 15.0 81.5 16.75 80.35 16.75 78.1 16.75 77.1 15.0 76.3 13.5 76.7 11.6 M82.75 18.75 L86.35 18.45 Q87.05 20.25 86.55 20.95 L85.75 22.15 Q84.2 22.0 83.55 21.55 82.8 19.7 82.75 18.75 M91.05 10.15 Q91.05 8.55 92.1 7.95 93.75 7.1 98.45 7.55 98.45 11.05 97.4 12.1 L91.45 12.1 Q91.05 11.2 91.05 10.15 M92.4 18.75 L92.5 17.4 96.25 17.5 Q96.5 19.6 96.05 20.6 L93.0 20.4 Q92.4 19.8 92.4 18.75 M105.05 17.4 Q105.05 16.15 106.1 15.55 107.15 14.9 109.55 14.7 110.6 17.75 109.9 18.25 108.75 18.75 106.1 19.5 L105.3 18.95 Q105.05 18.55 105.05 17.4 Z" fill="none" stroke="#000000" stroke-linecap="round" stroke-linejoin="round" stroke-opacity="0.0" stroke-width="1.0"/>
    </g>
    <g id="morphshape3" transform="matrix(1.0, 0.0, 0.0, 1.0, -32.35, -6.65)">
      <path d="M95.2 8.4 Q95.2 9.55 95.35 9.95 L95.8 10.7 97.8 10.7 98.3 10.2 98.45 9.0 98.2 7.5 Q97.9 7.05 95.35 7.0 95.2 6.65 95.2 8.4 M68.9 10.9 Q68.65 11.25 69.2 12.15 69.6 12.6 70.35 12.9 L73.1 13.25 Q73.6 12.8 73.6 12.1 73.4 11.65 69.45 10.45 L68.9 10.9 M65.95 34.85 L66.25 36.8 Q66.45 37.85 66.9 38.7 L70.4 38.7 Q70.6 38.4 70.9 38.25 L70.5 35.15 66.95 34.6 Q66.15 34.55 65.95 34.85 M42.9 14.4 L43.1 15.75 43.45 16.25 45.0 16.3 Q46.05 16.3 46.65 15.85 46.85 15.7 46.85 13.95 46.85 12.8 46.5 12.25 L45.8 11.6 43.0 12.7 42.9 14.4 M35.5 29.2 L35.75 30.2 Q36.1 31.0 36.55 31.3 40.65 30.75 40.65 28.35 40.65 27.25 40.3 26.95 L39.45 26.6 37.7 26.85 35.85 27.0 35.5 29.2" fill="#ffffff" fill-opacity="0.7058824" fill-rule="evenodd" stroke="none"/>
      <path d="M35.5 29.2 L35.85 27.0 37.7 26.85 39.45 26.6 40.3 26.95 Q40.65 27.25 40.65 28.35 40.65 30.75 36.55 31.3 36.1 31.0 35.75 30.2 L35.5 29.2 M42.9 14.4 L43.0 12.7 45.8 11.6 46.5 12.25 Q46.85 12.8 46.85 13.95 46.85 15.7 46.65 15.85 46.05 16.3 45.0 16.3 L43.45 16.25 43.1 15.75 42.9 14.4 M65.95 34.85 Q66.15 34.55 66.95 34.6 L70.5 35.15 70.9 38.25 Q70.6 38.4 70.4 38.7 L66.9 38.7 Q66.45 37.85 66.25 36.8 L65.95 34.85 M68.9 10.9 L69.45 10.45 Q73.4 11.65 73.6 12.1 73.6 12.8 73.1 13.25 L70.35 12.9 Q69.6 12.6 69.2 12.15 68.65 11.25 68.9 10.9 M95.2 8.4 Q95.2 6.65 95.35 7.0 97.9 7.05 98.2 7.5 L98.45 9.0 98.3 10.2 97.8 10.7 95.8 10.7 95.35 9.95 Q95.2 9.55 95.2 8.4 Z" fill="none" stroke="#000000" stroke-linecap="round" stroke-linejoin="round" stroke-opacity="0.0" stroke-width="1.0"/>
    </g>
  </defs>
</svg>
