<?xml version="1.0" encoding="UTF-8" standalone="no"?>
<svg xmlns:xlink="http://www.w3.org/1999/xlink" height="47.45px" width="141.0px" xmlns="http://www.w3.org/2000/svg">
  <g transform="matrix(1.0, 0.0, 0.0, 1.0, -4.35, -2.9)">
    <use data-characterId="3188" height="47.45" transform="matrix(1.0, 0.0, 0.0, 1.0, 4.35, 2.9)" width="141.0" xlink:href="#morphshape0"/>
    <use data-characterId="3189" height="37.5" transform="matrix(1.0, 0.0, 0.0, 1.0, 17.5, 9.15)" width="116.05" xlink:href="#morphshape1"/>
    <use data-characterId="3190" height="21.8" transform="matrix(1.0, 0.0, 0.0, 1.0, 37.6, 4.7)" width="75.1" xlink:href="#morphshape2"/>
    <use data-characterId="3191" height="35.65" transform="matrix(1.0, 0.0, 0.0, 1.0, 32.35, 6.65)" width="66.65" xlink:href="#morphshape3"/>
  </g>
  <defs>
    <g id="morphshape0" transform="matrix(1.0, 0.0, 0.0, 1.0, -4.35, -2.9)">
      <path d="M4.85 19.35 Q5.5 20.8 8.15 21.5 10.9 22.0 13.75 22.4 21.0 23.35 21.35 25.8 21.05 26.45 19.45 27.75 18.7 28.45 18.25 29.45 17.8 30.2 18.0 31.15 18.6 32.95 20.15 33.65 21.2 34.15 23.3 34.3 27.4 34.5 29.75 35.55 L29.9 36.85 Q29.2 39.0 35.35 40.0 39.05 40.2 43.75 40.3 42.95 41.5 43.4 42.4 43.05 43.5 46.75 45.0 50.85 46.65 55.05 46.7 57.25 46.7 60.75 48.35 64.25 50.0 66.75 50.05 68.25 50.1 73.2 48.6 78.45 47.0 82.05 46.8 L89.65 45.8 Q93.2 45.4 96.5 45.0 103.95 45.2 107.45 42.25 108.85 41.0 109.6 39.45 115.55 38.75 116.7 37.65 121.1 35.0 116.85 33.65 116.6 33.5 116.1 33.4 125.95 31.8 126.6 30.95 127.65 30.05 125.05 29.1 123.45 28.5 121.7 27.95 121.05 27.75 126.95 26.7 132.8 25.65 134.6 23.4 136.45 21.15 133.9 19.85 131.2 18.45 125.35 18.45 123.9 18.45 122.6 18.5 L122.4 18.5 121.7 18.2 Q126.0 16.15 122.7 14.3 119.9 13.95 116.5 13.65 116.3 13.55 116.05 13.55 117.4 9.25 108.5 6.65 96.9 3.1 71.1 3.0 52.35 2.9 32.5 6.05 13.6 9.0 13.95 11.85 13.6 12.55 14.05 13.15 14.5 13.7 15.35 14.25 16.0 14.65 15.1 14.95 14.5 15.0 14.05 15.2 L5.15 16.25 4.85 16.3 Q3.95 17.85 4.75 19.45" fill="#96e0bc" fill-opacity="0.7058824" fill-rule="evenodd" stroke="none"/>
      <path d="M4.75 19.45 Q3.95 17.85 4.85 16.3 L5.15 16.25 14.05 15.2 Q14.5 15.0 15.1 14.95 16.0 14.65 15.35 14.25 14.5 13.7 14.05 13.15 13.6 12.55 13.95 11.85 13.6 9.0 32.5 6.05 52.35 2.9 71.1 3.0 96.9 3.1 108.5 6.65 117.4 9.25 116.05 13.55 116.3 13.55 116.5 13.65 119.9 13.95 122.7 14.3 126.0 16.15 121.7 18.2 L122.4 18.5 122.6 18.5 Q123.9 18.45 125.35 18.45 131.2 18.45 133.9 19.85 136.45 21.15 134.6 23.4 132.8 25.65 126.95 26.7 121.05 27.75 121.7 27.95 123.45 28.5 125.05 29.1 127.65 30.05 126.6 30.95 125.95 31.8 116.1 33.4 116.6 33.5 116.85 33.65 121.1 35.0 116.7 37.65 115.55 38.75 109.6 39.45 108.85 41.0 107.45 42.25 103.95 45.2 96.5 45.0 93.2 45.4 89.65 45.8 L82.05 46.8 Q78.45 47.0 73.2 48.6 68.25 50.1 66.75 50.05 64.25 50.0 60.75 48.35 57.25 46.7 55.05 46.7 50.85 46.65 46.75 45.0 43.05 43.5 43.4 42.4 42.95 41.5 43.75 40.3 39.05 40.2 35.35 40.0 29.2 39.0 29.9 36.85 L29.75 35.55 Q27.4 34.5 23.3 34.3 21.2 34.15 20.15 33.65 18.6 32.95 18.0 31.15 17.8 30.2 18.25 29.45 18.7 28.45 19.45 27.75 21.05 26.45 21.35 25.8 21.0 23.35 13.75 22.4 10.9 22.0 8.15 21.5 5.5 20.8 4.85 19.35" fill="none" stroke="#000000" stroke-linecap="round" stroke-linejoin="round" stroke-opacity="0.0" stroke-width="1.0"/>
    </g>
    <g id="morphshape1" transform="matrix(1.0, 0.0, 0.0, 1.0, -17.5, -9.15)">
      <path d="M114.95 23.6 Q114.95 24.35 115.4 25.05 116.15 26.1 119.0 25.85 L118.25 23.65 Q117.25 23.3 114.95 23.6 M99.55 28.65 Q99.55 29.0 100.65 29.8 L103.95 29.9 106.1 28.9 Q108.3 27.85 108.7 27.35 L107.2 26.15 103.0 25.75 Q99.55 25.95 99.55 28.65 M84.85 33.9 L85.05 34.5 Q85.5 35.0 86.55 35.45 L88.35 35.95 90.9 36.15 91.25 36.05 91.45 35.85 91.65 35.4 91.65 34.95 Q91.65 34.25 91.3 33.95 90.65 33.3 87.55 33.1 86.2 33.25 84.95 33.45 L84.9 33.95 M75.3 42.1 L75.3 42.1 75.85 43.0 Q77.3 43.2 78.75 43.4 L81.55 43.45 85.75 43.2 86.55 42.95 87.05 42.5 87.2 41.65 87.15 41.15 Q86.95 40.35 86.15 39.85 84.85 39.1 79.6 39.3 77.45 39.65 75.85 41.2 L75.25 42.05 M62.5 31.95 L63.05 32.85 69.4 33.25 Q73.45 33.25 76.3 31.0 76.3 29.1 70.25 28.95 64.0 28.85 62.5 31.95 M61.65 42.25 Q61.65 42.75 61.9 43.0 L64.95 43.0 Q65.4 42.75 65.65 41.15 L62.15 41.35 Q61.65 41.7 61.65 42.25 M49.0 36.95 L50.2 38.15 Q52.25 39.3 56.55 39.3 58.1 39.3 59.85 37.15 59.85 34.2 54.45 34.25 49.0 34.3 49.0 36.95 M26.55 28.35 Q26.55 28.95 29.1 30.6 32.3 32.7 35.95 32.6 L39.85 32.55 Q41.05 32.05 41.8 30.1 41.8 27.2 34.2 26.25 26.55 25.3 26.55 28.35 M17.65 19.05 Q17.65 19.5 18.1 20.2 L19.05 21.15 25.9 21.25 Q27.1 20.35 27.1 19.8 27.1 17.95 22.4 17.85 17.65 17.8 17.65 19.05" fill="#bef0d8" fill-opacity="0.7058824" fill-rule="evenodd" stroke="none"/>
      <path d="M17.65 19.05 Q17.65 17.8 22.4 17.85 27.1 17.95 27.1 19.8 27.1 20.35 25.9 21.25 L19.05 21.15 18.1 20.2 Q17.65 19.5 17.65 19.05 M26.55 28.35 Q26.55 25.3 34.2 26.25 41.8 27.2 41.8 30.1 41.05 32.05 39.85 32.55 L35.95 32.6 Q32.3 32.7 29.1 30.6 26.55 28.95 26.55 28.35 M49.0 36.95 Q49.0 34.3 54.45 34.25 59.85 34.2 59.85 37.15 58.1 39.3 56.55 39.3 52.25 39.3 50.2 38.15 L49.0 36.95 M61.65 42.25 Q61.65 41.7 62.15 41.35 L65.65 41.15 Q65.4 42.75 64.95 43.0 L61.9 43.0 Q61.65 42.75 61.65 42.25 M62.5 31.95 Q64.0 28.85 70.25 28.95 76.3 29.1 76.3 31.0 73.45 33.25 69.4 33.25 L63.05 32.85 62.5 31.95 M75.25 42.05 L75.85 41.2 Q77.45 39.65 79.6 39.3 84.85 39.1 86.15 39.85 86.95 40.35 87.15 41.15 L87.2 41.65 87.05 42.5 86.55 42.95 85.75 43.2 81.55 43.45 78.75 43.4 Q77.3 43.2 75.85 43.0 L75.3 42.1 75.3 42.1 M84.9 33.95 L84.95 33.45 Q86.2 33.25 87.55 33.1 90.65 33.3 91.3 33.95 91.65 34.25 91.65 34.95 L91.65 35.4 91.45 35.85 91.25 36.05 90.9 36.15 88.35 35.95 86.55 35.45 Q85.5 35.0 85.05 34.5 L84.85 33.9 M99.55 28.65 Q99.55 25.95 103.0 25.75 L107.2 26.15 108.7 27.35 Q108.3 27.85 106.1 28.9 L103.95 29.9 100.65 29.8 Q99.55 29.0 99.55 28.65 M114.95 23.6 Q117.25 23.3 118.25 23.65 L119.0 25.85 Q116.15 26.1 115.4 25.05 114.95 24.35 114.95 23.6 Z" fill="none" stroke="#000000" stroke-linecap="round" stroke-linejoin="round" stroke-opacity="0.0" stroke-width="1.0"/>
    </g>
    <g id="morphshape2" transform="matrix(1.0, 0.0, 0.0, 1.0, -37.6, -4.7)">
      <path d="M101.4 14.65 Q101.4 15.8 101.65 16.2 L102.45 16.75 Q104.4 16.1 106.25 15.5 106.95 15.0 105.9 11.95 103.5 12.15 102.45 12.8 101.4 13.4 101.4 14.65 M89.65 22.15 Q89.65 23.2 90.25 23.8 L93.3 24.0 Q93.75 23.0 93.5 20.9 L89.75 20.8 89.65 22.15 M88.0 11.95 Q88.0 13.0 88.4 13.9 L94.35 13.9 Q95.4 12.85 95.4 9.35 90.7 8.9 89.05 9.75 88.0 10.35 88.0 11.95 M79.75 22.9 Q79.8 23.85 80.55 25.7 81.2 26.15 82.75 26.3 L83.55 25.1 Q84.05 24.4 83.35 22.6 L79.75 22.9 M78.65 6.45 Q78.25 8.35 79.05 9.85 80.05 11.6 82.3 11.6 83.45 11.6 84.65 9.85 83.8 7.45 82.15 6.8 L78.65 6.45 M66.75 14.2 L66.8 15.65 67.15 16.2 72.6 16.95 75.9 17.35 Q77.65 17.35 76.55 14.9 76.55 11.85 71.65 11.7 66.75 11.6 66.75 14.2 M55.9 10.85 L55.95 11.55 55.95 11.65 Q56.0 12.1 56.2 12.2 56.5 12.4 57.45 12.6 L59.05 11.85 Q59.3 10.7 59.45 9.55 59.15 8.65 58.9 7.8 58.1 7.75 57.35 7.75 55.9 8.65 55.9 10.85 M48.1 22.7 L48.1 22.7 48.2 23.95 48.6 24.4 Q49.15 24.4 49.7 24.4 L52.15 24.4 Q54.2 24.4 56.2 24.4 56.4 23.1 55.6 19.9 54.6 18.15 53.65 17.3 52.25 16.05 50.65 16.65 48.1 17.85 48.1 22.7 M37.7 10.25 L38.8 12.35 Q40.5 14.5 43.5 14.5 47.4 14.5 47.4 11.3 47.4 8.3 42.55 7.5 37.7 6.65 37.7 10.25" fill="#bef0d8" fill-opacity="0.7058824" fill-rule="evenodd" stroke="none"/>
      <path d="M37.7 10.25 Q37.7 6.65 42.55 7.5 47.4 8.3 47.4 11.3 47.4 14.5 43.5 14.5 40.5 14.5 38.8 12.35 L37.7 10.25 M48.1 22.7 Q48.1 17.85 50.65 16.65 52.25 16.05 53.65 17.3 54.6 18.15 55.6 19.9 56.4 23.1 56.2 24.4 54.2 24.4 52.15 24.4 L49.7 24.4 Q49.15 24.4 48.6 24.4 L48.2 23.95 48.1 22.7 48.1 22.7 M55.9 10.85 Q55.9 8.65 57.35 7.75 58.1 7.75 58.9 7.8 59.15 8.65 59.45 9.55 59.3 10.7 59.05 11.85 L57.45 12.6 Q56.5 12.4 56.2 12.2 56.0 12.1 55.95 11.65 L55.95 11.55 55.9 10.85 M66.75 14.2 Q66.75 11.6 71.65 11.7 76.55 11.85 76.55 14.9 77.65 17.35 75.9 17.35 L72.6 16.95 67.15 16.2 66.8 15.65 66.75 14.2 M78.65 6.45 L82.15 6.8 Q83.8 7.45 84.65 9.85 83.45 11.6 82.3 11.6 80.05 11.6 79.05 9.85 78.25 8.35 78.65 6.45 M79.75 22.9 L83.35 22.6 Q84.05 24.4 83.55 25.1 L82.75 26.3 Q81.2 26.15 80.55 25.7 79.8 23.85 79.75 22.9 M88.0 11.95 Q88.0 10.35 89.05 9.75 90.7 8.9 95.4 9.35 95.4 12.85 94.35 13.9 L88.4 13.9 Q88.0 13.0 88.0 11.95 M89.65 22.15 L89.75 20.8 93.5 20.9 Q93.75 23.0 93.3 24.0 L90.25 23.8 Q89.65 23.2 89.65 22.15 M101.4 14.65 Q101.4 13.4 102.45 12.8 103.5 12.15 105.9 11.95 106.95 15.0 106.25 15.5 104.4 16.1 102.45 16.75 L101.65 16.2 Q101.4 15.8 101.4 14.65 Z" fill="none" stroke="#000000" stroke-linecap="round" stroke-linejoin="round" stroke-opacity="0.0" stroke-width="1.0"/>
    </g>
    <g id="morphshape3" transform="matrix(1.0, 0.0, 0.0, 1.0, -32.35, -6.65)">
      <path d="M94.45 8.9 Q94.45 10.05 94.6 10.45 L95.05 11.2 97.05 11.2 97.55 10.7 97.7 9.5 97.45 8.0 Q97.15 7.55 94.6 7.5 94.45 7.15 94.45 8.9 M69.55 13.7 Q69.3 14.05 69.85 14.95 70.45 15.35 71.0 15.7 L73.75 16.05 Q74.25 15.6 74.25 14.9 74.05 14.45 70.1 13.25 L69.55 13.7 M66.3 29.5 L66.6 31.45 Q66.8 32.5 67.25 33.35 L70.75 33.35 Q71.0 33.1 71.25 32.9 L70.85 29.8 67.3 29.25 Q66.5 29.2 66.3 29.5 M40.3 13.0 L40.5 14.35 40.85 14.85 42.4 14.9 Q43.45 14.9 44.05 14.45 44.25 14.3 44.25 12.55 44.25 11.4 43.9 10.85 L43.2 10.2 40.4 11.3 40.3 13.0 M32.5 29.2 L32.75 30.2 Q33.1 31.0 33.55 31.3 37.65 30.75 37.65 28.35 37.65 27.25 37.3 26.95 L36.45 26.6 34.7 26.85 32.85 27.0 32.5 29.2" fill="#ffffff" fill-opacity="0.7058824" fill-rule="evenodd" stroke="none"/>
      <path d="M32.5 29.2 L32.85 27.0 34.7 26.85 36.45 26.6 37.3 26.95 Q37.65 27.25 37.65 28.35 37.65 30.75 33.55 31.3 33.1 31.0 32.75 30.2 L32.5 29.2 M40.3 13.0 L40.4 11.3 43.2 10.2 43.9 10.85 Q44.25 11.4 44.25 12.55 44.25 14.3 44.05 14.45 43.45 14.9 42.4 14.9 L40.85 14.85 40.5 14.35 40.3 13.0 M66.3 29.5 Q66.5 29.2 67.3 29.25 L70.85 29.8 71.25 32.9 Q71.0 33.1 70.75 33.35 L67.25 33.35 Q66.8 32.5 66.6 31.45 L66.3 29.5 M69.55 13.7 L70.1 13.25 Q74.05 14.45 74.25 14.9 74.25 15.6 73.75 16.05 L71.0 15.7 Q70.45 15.35 69.85 14.95 69.3 14.05 69.55 13.7 M94.45 8.9 Q94.45 7.15 94.6 7.5 97.15 7.55 97.45 8.0 L97.7 9.5 97.55 10.7 97.05 11.2 95.05 11.2 94.6 10.45 Q94.45 10.05 94.45 8.9 Z" fill="none" stroke="#000000" stroke-linecap="round" stroke-linejoin="round" stroke-opacity="0.0" stroke-width="1.0"/>
    </g>
  </defs>
</svg>
