<?xml version="1.0" encoding="UTF-8" standalone="no"?>
<svg xmlns:xlink="http://www.w3.org/1999/xlink" height="47.45px" width="141.0px" xmlns="http://www.w3.org/2000/svg">
  <g transform="matrix(1.0, 0.0, 0.0, 1.0, -4.35, -2.9)">
    <use data-characterId="3188" height="47.45" transform="matrix(1.0, 0.0, 0.0, 1.0, 4.35, 2.9)" width="141.0" xlink:href="#morphshape0"/>
    <use data-characterId="3189" height="37.5" transform="matrix(1.0, 0.0, 0.0, 1.0, 17.5, 9.15)" width="116.05" xlink:href="#morphshape1"/>
    <use data-characterId="3190" height="21.8" transform="matrix(1.0, 0.0, 0.0, 1.0, 37.6, 4.7)" width="75.1" xlink:href="#morphshape2"/>
    <use data-characterId="3191" height="35.65" transform="matrix(1.0, 0.0, 0.0, 1.0, 32.35, 6.65)" width="66.65" xlink:href="#morphshape3"/>
  </g>
  <defs>
    <g id="morphshape0" transform="matrix(1.0, 0.0, 0.0, 1.0, -4.35, -2.9)">
      <path d="M5.05 17.45 Q4.85 19.0 11.6 20.2 18.4 21.25 26.35 21.8 36.3 22.55 25.9 24.1 15.2 24.85 22.0 26.45 29.15 27.8 24.15 28.55 19.15 29.2 15.9 30.65 12.85 32.45 16.4 33.0 19.75 33.45 21.5 33.85 24.15 34.25 26.35 34.8 L34.15 35.7 Q29.8 37.45 32.35 38.2 25.4 40.35 39.3 40.1 41.3 40.7 49.9 39.9 43.1 42.35 44.8 43.55 46.7 44.85 53.25 45.2 59.8 45.45 66.9 46.4 74.95 47.3 70.7 48.7 65.95 50.1 69.4 49.45 74.3 48.75 78.45 48.7 L91.35 48.05 Q98.5 47.65 101.55 46.75 106.45 46.1 106.75 44.3 106.05 43.25 108.4 40.9 111.9 39.9 106.55 38.05 122.0 36.75 122.1 35.05 124.0 33.9 119.95 33.6 122.35 32.75 120.65 32.25 126.75 30.95 126.05 30.05 125.75 29.3 122.45 28.5 119.6 27.9 118.25 27.3 116.95 26.7 126.65 25.15 136.35 23.6 138.8 21.95 141.15 20.25 133.4 19.25 127.65 18.25 123.9 18.3 L122.5 18.35 122.1 18.2 Q123.85 17.2 122.15 16.3 129.15 15.25 124.25 14.4 120.75 13.6 116.1 13.5 116.7 11.55 112.7 10.4 102.8 6.35 88.25 4.6 76.8 2.85 53.35 4.25 34.3 5.6 21.0 8.95 7.35 11.3 9.6 12.25 11.85 13.15 21.85 13.95 31.75 14.65 27.2 14.9 22.75 15.0 18.35 15.15 L9.95 15.7 4.85 16.3 Q4.45 17.0 4.8 17.7" fill="#96e0bc" fill-opacity="0.7058824" fill-rule="evenodd" stroke="none"/>
      <path d="M4.8 17.7 Q4.45 17.0 4.85 16.3 L9.95 15.7 18.35 15.15 Q22.75 15.0 27.2 14.9 31.75 14.65 21.85 13.95 11.85 13.15 9.6 12.25 7.35 11.3 21.0 8.95 34.3 5.6 53.35 4.25 76.8 2.85 88.25 4.6 102.8 6.35 112.7 10.4 116.7 11.55 116.1 13.5 120.75 13.6 124.25 14.4 129.15 15.25 122.15 16.3 123.85 17.2 122.1 18.2 L122.5 18.35 123.9 18.3 Q127.65 18.25 133.4 19.25 141.15 20.25 138.8 21.95 136.35 23.6 126.65 25.15 116.95 26.7 118.25 27.3 119.6 27.9 122.45 28.5 125.75 29.3 126.05 30.05 126.75 30.95 120.65 32.25 122.35 32.75 119.95 33.6 124.0 33.9 122.1 35.05 122.0 36.75 106.55 38.05 111.9 39.9 108.4 40.9 106.05 43.25 106.75 44.3 106.45 46.1 101.55 46.75 98.5 47.65 91.35 48.05 L78.45 48.7 Q74.3 48.75 69.4 49.45 65.95 50.1 70.7 48.7 74.95 47.3 66.9 46.4 59.8 45.45 53.25 45.2 46.7 44.85 44.8 43.55 43.1 42.35 49.9 39.9 41.3 40.7 39.3 40.1 25.4 40.35 32.35 38.2 29.8 37.45 34.15 35.7 L26.35 34.8 Q24.15 34.25 21.5 33.85 19.75 33.45 16.4 33.0 12.85 32.45 15.9 30.65 19.15 29.2 24.15 28.55 29.15 27.8 22.0 26.45 15.2 24.85 25.9 24.1 36.3 22.55 26.35 21.8 18.4 21.25 11.6 20.2 4.85 19.0 5.05 17.45" fill="none" stroke="#000000" stroke-linecap="round" stroke-linejoin="round" stroke-opacity="0.0" stroke-width="1.0"/>
    </g>
    <g id="morphshape1" transform="matrix(1.0, 0.0, 0.0, 1.0, -17.5, -9.15)">
      <path d="M123.0 22.5 Q123.0 23.25 123.45 23.95 124.2 25.0 127.05 24.75 L126.3 22.55 Q125.3 22.2 123.0 22.5 M101.5 31.65 Q101.5 32.0 102.6 32.8 L105.9 32.9 108.05 31.9 Q110.25 30.85 110.65 30.35 L109.15 29.15 104.95 28.75 Q101.5 28.95 101.5 31.65 M87.8 40.25 L88.2 41.0 Q89.2 41.35 90.5 41.65 L92.85 41.9 96.35 41.85 96.95 41.65 97.3 41.3 97.45 40.6 97.4 40.1 Q97.3 39.35 96.7 38.95 95.7 38.25 91.4 38.3 89.6 38.55 88.15 39.5 L87.8 40.2 M77.6 36.0 L77.6 36.05 77.95 36.7 Q78.85 37.05 80.05 37.4 L82.3 37.7 85.55 37.7 86.1 37.55 86.45 37.25 86.65 36.65 86.65 36.2 Q86.55 35.45 86.0 35.05 85.05 34.35 81.0 34.3 79.3 34.55 77.9 35.35 L77.6 36.0 M61.8 37.05 L62.35 37.95 68.7 38.35 Q72.75 38.35 75.6 36.1 75.6 34.2 69.55 34.05 63.3 33.95 61.8 37.05 M57.6 41.4 Q57.7 41.85 57.85 42.15 L60.9 42.15 Q61.35 41.9 61.6 40.3 L58.1 40.5 Q57.6 40.85 57.6 41.4 M49.0 35.25 L50.2 36.45 Q52.25 37.6 56.55 37.6 58.1 37.6 59.85 35.45 59.85 32.5 54.45 32.55 49.0 32.6 49.0 35.25 M29.65 29.5 Q29.75 30.05 32.45 31.3 35.9 32.3 39.5 32.3 L43.3 31.75 Q44.4 31.05 44.85 29.0 44.45 26.15 36.85 26.3 29.2 26.45 29.6 29.45 M20.4 14.25 Q20.4 14.7 20.85 15.4 L21.8 16.35 28.65 16.45 Q29.85 15.55 29.85 15.0 29.85 13.15 25.15 13.05 20.4 13.0 20.4 14.25" fill="#bef0d8" fill-opacity="0.7058824" fill-rule="evenodd" stroke="none"/>
      <path d="M20.4 14.25 Q20.4 13.0 25.15 13.05 29.85 13.15 29.85 15.0 29.85 15.55 28.65 16.45 L21.8 16.35 20.85 15.4 Q20.4 14.7 20.4 14.25 M29.6 29.45 Q29.2 26.45 36.85 26.3 44.45 26.15 44.85 29.0 44.4 31.05 43.3 31.75 L39.5 32.3 Q35.9 32.3 32.45 31.3 29.75 30.05 29.65 29.5 M49.0 35.25 Q49.0 32.6 54.45 32.55 59.85 32.5 59.85 35.45 58.1 37.6 56.55 37.6 52.25 37.6 50.2 36.45 L49.0 35.25 M57.6 41.4 Q57.6 40.85 58.1 40.5 L61.6 40.3 Q61.35 41.9 60.9 42.15 L57.85 42.15 Q57.7 41.85 57.6 41.4 M61.8 37.05 Q63.3 33.95 69.55 34.05 75.6 34.2 75.6 36.1 72.75 38.35 68.7 38.35 L62.35 37.95 61.8 37.05 M77.6 36.0 L77.9 35.35 Q79.3 34.55 81.0 34.3 85.05 34.35 86.0 35.05 86.55 35.45 86.65 36.2 L86.65 36.65 86.45 37.25 86.1 37.55 85.55 37.7 82.3 37.7 80.05 37.4 Q78.85 37.05 77.95 36.7 L77.6 36.05 77.6 36.0 M87.8 40.2 L88.15 39.5 Q89.6 38.55 91.4 38.3 95.7 38.25 96.7 38.95 97.3 39.35 97.4 40.1 L97.45 40.6 97.3 41.3 96.95 41.65 96.35 41.85 92.85 41.9 90.5 41.65 Q89.2 41.35 88.2 41.0 L87.8 40.25 M101.5 31.65 Q101.5 28.95 104.95 28.75 L109.15 29.15 110.65 30.35 Q110.25 30.85 108.05 31.9 L105.9 32.9 102.6 32.8 Q101.5 32.0 101.5 31.65 M123.0 22.5 Q125.3 22.2 126.3 22.55 L127.05 24.75 Q124.2 25.0 123.45 23.95 123.0 23.25 123.0 22.5 Z" fill="none" stroke="#000000" stroke-linecap="round" stroke-linejoin="round" stroke-opacity="0.0" stroke-width="1.0"/>
    </g>
    <g id="morphshape2" transform="matrix(1.0, 0.0, 0.0, 1.0, -37.6, -4.7)">
      <path d="M104.8 17.2 Q104.8 18.35 105.05 18.75 L105.85 19.3 Q108.45 18.55 109.65 18.05 110.35 17.55 109.3 14.5 106.9 14.7 105.85 15.35 104.8 15.95 104.8 17.2 M92.2 19.0 Q92.2 20.05 92.8 20.65 L95.85 20.85 Q96.3 19.85 96.05 17.75 L92.3 17.65 92.2 19.0 M90.8 10.3 Q90.8 11.35 91.2 12.25 L97.15 12.25 Q98.2 11.2 98.2 7.7 93.5 7.25 91.85 8.1 90.8 8.7 90.8 10.3 M82.5 19.05 Q82.55 20.0 83.3 21.85 83.95 22.3 85.5 22.45 L86.3 21.25 Q86.8 20.55 86.1 18.75 L82.5 19.05 M76.85 11.25 Q76.45 13.15 77.25 14.65 78.25 16.4 80.5 16.4 81.65 16.4 82.85 14.65 82.0 12.25 80.35 11.6 L76.85 11.25 M65.15 11.4 L65.2 12.85 65.55 13.4 71.0 14.15 74.3 14.55 Q76.05 14.55 74.95 12.1 74.95 9.05 70.05 8.9 65.15 8.8 65.15 11.4 M56.1 17.75 L56.2 18.75 56.45 19.05 Q56.8 19.25 57.2 19.3 58.0 19.4 59.1 19.5 L62.1 19.15 Q62.3 17.9 61.9 15.6 61.2 14.2 60.55 13.35 59.4 12.6 58.15 12.95 56.05 14.0 56.05 17.7 M50.6 14.3 L50.6 14.4 50.65 15.25 50.8 15.5 Q51.05 15.75 51.4 15.8 L53.15 16.05 Q54.8 15.7 55.85 15.65 56.1 14.45 55.85 12.4 55.25 11.15 54.7 10.3 53.65 9.75 52.55 10.0 50.65 11.05 50.65 14.4 M39.55 12.4 L40.65 14.5 Q42.35 16.65 45.35 16.65 49.25 16.65 49.25 13.45 49.25 10.45 44.4 9.65 39.55 8.8 39.55 12.4" fill="#bef0d8" fill-opacity="0.7058824" fill-rule="evenodd" stroke="none"/>
      <path d="M39.55 12.4 Q39.55 8.8 44.4 9.65 49.25 10.45 49.25 13.45 49.25 16.65 45.35 16.65 42.35 16.65 40.65 14.5 L39.55 12.4 M50.65 14.4 Q50.65 11.05 52.55 10.0 53.65 9.75 54.7 10.3 55.25 11.15 55.85 12.4 56.1 14.45 55.85 15.65 54.8 15.7 53.15 16.05 L51.4 15.8 Q51.05 15.75 50.8 15.5 L50.65 15.25 50.6 14.4 50.6 14.3 M56.05 17.7 Q56.05 14.0 58.15 12.95 59.4 12.6 60.55 13.35 61.2 14.2 61.9 15.6 62.3 17.9 62.1 19.15 L59.1 19.5 Q58.0 19.4 57.2 19.3 56.8 19.25 56.45 19.05 L56.2 18.75 56.1 17.75 M65.15 11.4 Q65.15 8.8 70.05 8.9 74.95 9.05 74.95 12.1 76.05 14.55 74.3 14.55 L71.0 14.15 65.55 13.4 65.2 12.85 65.15 11.4 M76.85 11.25 L80.35 11.6 Q82.0 12.25 82.85 14.65 81.65 16.4 80.5 16.4 78.25 16.4 77.25 14.65 76.45 13.15 76.85 11.25 M82.5 19.05 L86.1 18.75 Q86.8 20.55 86.3 21.25 L85.5 22.45 Q83.95 22.3 83.3 21.85 82.55 20.0 82.5 19.05 M90.8 10.3 Q90.8 8.7 91.85 8.1 93.5 7.25 98.2 7.7 98.2 11.2 97.15 12.25 L91.2 12.25 Q90.8 11.35 90.8 10.3 M92.2 19.0 L92.3 17.65 96.05 17.75 Q96.3 19.85 95.85 20.85 L92.8 20.65 Q92.2 20.05 92.2 19.0 M104.8 17.2 Q104.8 15.95 105.85 15.35 106.9 14.7 109.3 14.5 110.35 17.55 109.65 18.05 108.45 18.55 105.85 19.3 L105.05 18.75 Q104.8 18.35 104.8 17.2 Z" fill="none" stroke="#000000" stroke-linecap="round" stroke-linejoin="round" stroke-opacity="0.0" stroke-width="1.0"/>
    </g>
    <g id="morphshape3" transform="matrix(1.0, 0.0, 0.0, 1.0, -32.35, -6.65)">
      <path d="M95.15 8.45 Q95.15 9.6 95.3 10.0 L95.75 10.75 97.75 10.75 98.25 10.25 98.4 9.05 98.15 7.55 Q97.85 7.1 95.3 7.05 95.15 6.7 95.15 8.45 M68.95 11.1 Q68.7 11.45 69.25 12.35 69.65 12.8 70.4 13.1 L73.15 13.45 Q73.65 13.0 73.65 12.3 73.45 11.85 69.5 10.65 L68.95 11.1 M66.0 34.45 L66.3 36.4 Q66.5 37.45 66.95 38.3 L70.45 38.3 Q70.65 38.0 70.95 37.85 L70.55 34.75 67.0 34.2 Q66.2 34.15 66.0 34.45 M42.7 14.3 L42.9 15.65 43.25 16.15 44.8 16.2 Q45.85 16.2 46.45 15.75 46.65 15.6 46.65 13.85 46.65 12.7 46.3 12.15 L45.6 11.5 42.8 12.6 42.7 14.3 M35.3 29.2 L35.55 30.2 Q35.9 31.0 36.35 31.3 40.45 30.75 40.45 28.35 40.45 27.25 40.1 26.95 L39.25 26.6 37.5 26.85 35.65 27.0 35.3 29.2" fill="#ffffff" fill-opacity="0.7058824" fill-rule="evenodd" stroke="none"/>
      <path d="M35.3 29.2 L35.65 27.0 37.5 26.85 39.25 26.6 40.1 26.95 Q40.45 27.25 40.45 28.35 40.45 30.75 36.35 31.3 35.9 31.0 35.55 30.2 L35.3 29.2 M42.7 14.3 L42.8 12.6 45.6 11.5 46.3 12.15 Q46.65 12.7 46.65 13.85 46.65 15.6 46.45 15.75 45.85 16.2 44.8 16.2 L43.25 16.15 42.9 15.65 42.7 14.3 M66.0 34.45 Q66.2 34.15 67.0 34.2 L70.55 34.75 70.95 37.85 Q70.65 38.0 70.45 38.3 L66.95 38.3 Q66.5 37.45 66.3 36.4 L66.0 34.45 M68.95 11.1 L69.5 10.65 Q73.45 11.85 73.65 12.3 73.65 13.0 73.15 13.45 L70.4 13.1 Q69.65 12.8 69.25 12.35 68.7 11.45 68.95 11.1 M95.15 8.45 Q95.15 6.7 95.3 7.05 97.85 7.1 98.15 7.55 L98.4 9.05 98.25 10.25 97.75 10.75 95.75 10.75 95.3 10.0 Q95.15 9.6 95.15 8.45 Z" fill="none" stroke="#000000" stroke-linecap="round" stroke-linejoin="round" stroke-opacity="0.0" stroke-width="1.0"/>
    </g>
  </defs>
</svg>
