<?xml version="1.0" encoding="UTF-8" standalone="no"?>
<svg xmlns:xlink="http://www.w3.org/1999/xlink" height="47.45px" width="141.0px" xmlns="http://www.w3.org/2000/svg">
  <g transform="matrix(1.0, 0.0, 0.0, 1.0, -4.35, -2.9)">
    <use data-characterId="3188" height="47.45" transform="matrix(1.0, 0.0, 0.0, 1.0, 4.35, 2.9)" width="141.0" xlink:href="#morphshape0"/>
    <use data-characterId="3189" height="37.5" transform="matrix(1.0, 0.0, 0.0, 1.0, 17.5, 9.15)" width="116.05" xlink:href="#morphshape1"/>
    <use data-characterId="3190" height="21.8" transform="matrix(1.0, 0.0, 0.0, 1.0, 37.6, 4.7)" width="75.1" xlink:href="#morphshape2"/>
    <use data-characterId="3191" height="35.65" transform="matrix(1.0, 0.0, 0.0, 1.0, 32.35, 6.65)" width="66.65" xlink:href="#morphshape3"/>
  </g>
  <defs>
    <g id="morphshape0" transform="matrix(1.0, 0.0, 0.0, 1.0, -4.35, -2.9)">
      <path d="M4.95 18.9 Q5.2 20.4 9.85 21.35 14.6 22.1 19.9 22.55 28.45 23.4 23.6 25.4 18.25 26.1 20.75 27.55 23.85 28.55 21.2 29.45 18.55 30.15 17.1 31.35 15.9 33.15 18.45 33.75 20.65 34.2 22.6 34.45 26.0 34.75 28.3 35.55 L32.2 36.65 Q29.7 38.6 34.1 39.5 32.6 40.65 41.8 40.55 42.35 41.45 46.75 41.5 43.25 43.25 46.0 44.6 49.0 46.05 54.35 46.25 58.65 46.35 63.9 47.65 69.6 48.95 68.8 49.65 67.25 50.35 71.45 49.25 76.55 48.1 80.4 47.95 L90.6 47.15 Q95.9 46.75 99.05 46.1 105.25 45.9 107.2 43.5 107.6 42.35 109.15 40.4 113.9 39.55 111.9 38.1 121.65 36.1 119.5 34.55 120.3 33.9 118.1 33.7 124.3 32.45 123.8 31.75 127.3 30.65 125.6 29.75 124.65 29.05 122.15 28.4 120.45 28.0 122.85 27.15 125.2 26.3 130.85 24.4 136.5 22.5 136.4 21.0 136.15 19.45 129.4 18.95 125.85 18.45 123.35 18.5 L122.55 18.55 122.0 18.35 Q125.05 16.8 122.55 15.4 124.5 14.7 120.35 14.15 118.55 13.7 116.15 13.65 117.15 10.5 110.65 8.6 99.9 4.8 79.55 3.9 64.35 3.0 42.75 5.3 23.8 7.45 17.5 10.55 10.65 12.05 11.95 12.8 13.25 13.5 18.55 14.2 23.7 14.75 21.05 15.0 18.55 15.05 16.2 15.2 L7.55 16.0 4.9 16.3 Q4.25 17.45 4.8 18.6" fill="#96e0bc" fill-opacity="0.7058824" fill-rule="evenodd" stroke="none"/>
      <path d="M4.8 18.6 Q4.25 17.45 4.9 16.3 L7.55 16.0 16.2 15.2 Q18.55 15.05 21.05 15.0 23.7 14.75 18.55 14.2 13.25 13.5 11.95 12.8 10.65 12.05 17.5 10.55 23.8 7.45 42.75 5.3 64.35 3.0 79.55 3.9 99.9 4.8 110.65 8.6 117.15 10.5 116.15 13.65 118.55 13.7 120.35 14.15 124.5 14.7 122.55 15.4 125.05 16.8 122.0 18.35 L122.55 18.55 123.35 18.5 Q125.85 18.45 129.4 18.95 136.15 19.45 136.4 21.0 136.5 22.5 130.85 24.4 125.2 26.3 122.85 27.15 120.45 28.0 122.15 28.4 124.65 29.05 125.6 29.75 127.3 30.65 123.8 31.75 124.3 32.45 118.1 33.7 120.3 33.9 119.5 34.55 121.65 36.1 111.9 38.1 113.9 39.55 109.15 40.4 107.6 42.35 107.2 43.5 105.25 45.9 99.05 46.1 95.9 46.75 90.6 47.15 L80.4 47.95 Q76.55 48.1 71.45 49.25 67.25 50.35 68.8 49.65 69.6 48.95 63.9 47.65 58.65 46.35 54.35 46.25 49.0 46.05 46.0 44.6 43.25 43.25 46.75 41.5 42.35 41.45 41.8 40.55 32.6 40.65 34.1 39.5 29.7 38.6 32.2 36.65 L28.3 35.55 Q26.0 34.75 22.6 34.45 20.65 34.2 18.45 33.75 15.9 33.15 17.1 31.35 18.55 30.15 21.2 29.45 23.85 28.55 20.75 27.55 18.25 26.1 23.6 25.4 28.45 23.4 19.9 22.55 14.6 22.1 9.85 21.35 5.2 20.4 4.95 18.9" fill="none" stroke="#000000" stroke-linecap="round" stroke-linejoin="round" stroke-opacity="0.0" stroke-width="1.0"/>
    </g>
    <g id="morphshape1" transform="matrix(1.0, 0.0, 0.0, 1.0, -17.5, -9.15)">
      <path d="M118.85 23.05 Q118.85 23.8 119.3 24.5 120.05 25.55 122.9 25.3 L122.15 23.1 Q121.15 22.75 118.85 23.05 M100.5 30.1 Q100.5 30.45 101.6 31.25 L104.9 31.35 107.05 30.35 Q109.25 29.3 109.65 28.8 L108.15 27.6 103.95 27.2 Q100.5 27.4 100.5 30.1 M86.3 37.05 L86.6 37.75 Q87.3 38.15 88.45 38.55 L90.5 38.9 93.5 38.95 94.0 38.8 94.3 38.55 94.5 38.0 94.5 37.55 Q94.45 36.8 93.95 36.45 93.1 35.75 89.4 35.65 87.85 35.85 86.5 36.4 L86.3 37.0 M76.4 39.0 L76.4 39.05 76.85 39.85 Q78.05 40.15 79.4 40.4 L81.95 40.6 85.7 40.5 86.35 40.3 86.75 39.9 86.9 39.15 86.85 38.65 Q86.7 37.9 86.05 37.45 84.95 36.75 80.3 36.85 78.35 37.15 76.85 38.35 L76.4 39.1 M62.15 34.4 L62.7 35.3 69.05 35.7 Q73.1 35.7 75.95 33.45 75.95 31.55 69.9 31.4 63.65 31.3 62.15 34.4 M59.65 41.85 Q59.7 42.3 59.9 42.6 L62.95 42.6 Q63.4 42.35 63.65 40.75 L60.15 40.95 Q59.65 41.3 59.65 41.85 M49.0 36.1 L50.2 37.3 Q52.25 38.45 56.55 38.45 58.1 38.45 59.85 36.3 59.85 33.35 54.45 33.4 49.0 33.45 49.0 36.1 M28.05 28.9 Q28.1 29.5 30.75 30.95 34.05 32.5 37.7 32.45 L41.55 32.15 Q42.7 31.55 43.3 29.55 43.1 26.7 35.5 26.3 27.85 25.9 28.05 28.9 M19.0 16.7 Q19.0 17.15 19.45 17.85 L20.4 18.8 27.25 18.9 Q28.45 18.0 28.45 17.45 28.45 15.6 23.75 15.5 19.0 15.45 19.0 16.7" fill="#bef0d8" fill-opacity="0.7058824" fill-rule="evenodd" stroke="none"/>
      <path d="M19.0 16.7 Q19.0 15.45 23.75 15.5 28.45 15.6 28.45 17.45 28.45 18.0 27.25 18.9 L20.4 18.8 19.45 17.85 Q19.0 17.15 19.0 16.7 M28.05 28.9 Q27.85 25.9 35.5 26.3 43.1 26.7 43.3 29.55 42.7 31.55 41.55 32.15 L37.7 32.45 Q34.05 32.5 30.75 30.95 28.1 29.5 28.05 28.9 M49.0 36.1 Q49.0 33.45 54.45 33.4 59.85 33.35 59.85 36.3 58.1 38.45 56.55 38.45 52.25 38.45 50.2 37.3 L49.0 36.1 M59.65 41.85 Q59.65 41.3 60.15 40.95 L63.65 40.75 Q63.4 42.35 62.95 42.6 L59.9 42.6 Q59.7 42.3 59.65 41.85 M62.15 34.4 Q63.65 31.3 69.9 31.4 75.95 31.55 75.95 33.45 73.1 35.7 69.05 35.7 L62.7 35.3 62.15 34.4 M76.4 39.1 L76.85 38.35 Q78.35 37.15 80.3 36.85 84.95 36.75 86.05 37.45 86.7 37.9 86.85 38.65 L86.9 39.15 86.75 39.9 86.35 40.3 85.7 40.5 81.95 40.6 79.4 40.4 Q78.05 40.15 76.85 39.85 L76.4 39.05 76.4 39.0 M86.3 37.0 L86.5 36.4 Q87.85 35.85 89.4 35.65 93.1 35.75 93.95 36.45 94.45 36.8 94.5 37.55 L94.5 38.0 94.3 38.55 94.0 38.8 93.5 38.95 90.5 38.9 88.45 38.55 Q87.3 38.15 86.6 37.75 L86.3 37.05 M100.5 30.1 Q100.5 27.4 103.95 27.2 L108.15 27.6 109.65 28.8 Q109.25 29.3 107.05 30.35 L104.9 31.35 101.6 31.25 Q100.5 30.45 100.5 30.1 M118.85 23.05 Q121.15 22.75 122.15 23.1 L122.9 25.3 Q120.05 25.55 119.3 24.5 118.85 23.8 118.85 23.05 Z" fill="none" stroke="#000000" stroke-linecap="round" stroke-linejoin="round" stroke-opacity="0.0" stroke-width="1.0"/>
    </g>
    <g id="morphshape2" transform="matrix(1.0, 0.0, 0.0, 1.0, -37.6, -4.7)">
      <path d="M103.05 15.9 Q103.05 17.05 103.3 17.45 L104.1 18.0 Q106.35 17.3 107.9 16.75 108.6 16.25 107.55 13.2 105.15 13.4 104.1 14.05 103.05 14.65 103.05 15.9 M90.9 20.6 Q90.9 21.65 91.5 22.25 L94.55 22.45 Q95.0 21.45 94.75 19.35 L91.0 19.25 90.9 20.6 M89.35 11.15 Q89.35 12.2 89.75 13.1 L95.7 13.1 Q96.75 12.05 96.75 8.55 92.05 8.1 90.4 8.95 89.35 9.55 89.35 11.15 M81.1 21.05 Q81.15 22.0 81.9 23.85 82.55 24.3 84.1 24.45 L84.9 23.25 Q85.4 22.55 84.7 20.75 L81.1 21.05 M77.8 8.8 Q77.4 10.7 78.2 12.2 79.2 13.95 81.45 13.95 82.6 13.95 83.8 12.2 82.95 9.8 81.3 9.15 L77.8 8.8 M66.0 12.85 L66.05 14.3 66.4 14.85 71.85 15.6 75.15 16.0 Q76.9 16.0 75.8 13.55 75.8 10.5 70.9 10.35 66.0 10.25 66.0 12.85 M55.95 14.25 L56.0 15.1 56.1 15.3 Q56.3 15.6 56.6 15.65 57.15 15.8 58.2 15.95 L60.5 15.4 Q60.75 14.2 60.65 12.5 60.15 11.35 59.7 10.5 58.75 10.1 57.75 10.25 56.0 11.25 56.0 14.2 M49.35 18.65 L49.35 18.7 49.45 19.75 49.75 20.1 Q50.15 20.25 50.6 20.3 L52.7 20.4 Q54.55 20.2 56.1 20.15 56.3 18.9 55.75 16.25 54.95 14.75 54.2 13.9 52.95 13.0 51.6 13.45 49.35 14.55 49.35 18.65 M38.6 11.3 L39.7 13.4 Q41.4 15.55 44.4 15.55 48.3 15.55 48.3 12.35 48.3 9.35 43.45 8.55 38.6 7.7 38.6 11.3" fill="#bef0d8" fill-opacity="0.7058824" fill-rule="evenodd" stroke="none"/>
      <path d="M38.6 11.3 Q38.6 7.7 43.45 8.55 48.3 9.35 48.3 12.35 48.3 15.55 44.4 15.55 41.4 15.55 39.7 13.4 L38.6 11.3 M49.35 18.65 Q49.35 14.55 51.6 13.45 52.95 13.0 54.2 13.9 54.95 14.75 55.75 16.25 56.3 18.9 56.1 20.15 54.55 20.2 52.7 20.4 L50.6 20.3 Q50.15 20.25 49.75 20.1 L49.45 19.75 49.35 18.7 49.35 18.65 M56.0 14.2 Q56.0 11.25 57.75 10.25 58.75 10.1 59.7 10.5 60.15 11.35 60.65 12.5 60.75 14.2 60.5 15.4 L58.2 15.95 Q57.15 15.8 56.6 15.65 56.3 15.6 56.1 15.3 L56.0 15.1 55.95 14.25 M66.0 12.85 Q66.0 10.25 70.9 10.35 75.8 10.5 75.8 13.55 76.9 16.0 75.15 16.0 L71.85 15.6 66.4 14.85 66.05 14.3 66.0 12.85 M77.8 8.8 L81.3 9.15 Q82.95 9.8 83.8 12.2 82.6 13.95 81.45 13.95 79.2 13.95 78.2 12.2 77.4 10.7 77.8 8.8 M81.1 21.05 L84.7 20.75 Q85.4 22.55 84.9 23.25 L84.1 24.45 Q82.55 24.3 81.9 23.85 81.15 22.0 81.1 21.05 M89.35 11.15 Q89.35 9.55 90.4 8.95 92.05 8.1 96.75 8.55 96.75 12.05 95.7 13.1 L89.75 13.1 Q89.35 12.2 89.35 11.15 M90.9 20.6 L91.0 19.25 94.75 19.35 Q95.0 21.45 94.55 22.45 L91.5 22.25 Q90.9 21.65 90.9 20.6 M103.05 15.9 Q103.05 14.65 104.1 14.05 105.15 13.4 107.55 13.2 108.6 16.25 107.9 16.75 106.35 17.3 104.1 18.0 L103.3 17.45 Q103.05 17.05 103.05 15.9 Z" fill="none" stroke="#000000" stroke-linecap="round" stroke-linejoin="round" stroke-opacity="0.0" stroke-width="1.0"/>
    </g>
    <g id="morphshape3" transform="matrix(1.0, 0.0, 0.0, 1.0, -32.35, -6.65)">
      <path d="M94.8 8.65 Q94.8 9.8 94.95 10.2 L95.4 10.95 97.4 10.95 97.9 10.45 98.05 9.25 97.8 7.75 Q97.5 7.3 94.95 7.25 94.8 6.9 94.8 8.65 M69.25 12.45 Q69.0 12.8 69.55 13.7 70.05 14.1 70.7 14.45 L73.45 14.8 Q73.95 14.35 73.95 13.65 73.75 13.2 69.8 12.0 L69.25 12.45 M66.15 31.9 L66.45 33.85 Q66.65 34.9 67.1 35.75 L70.6 35.75 Q70.85 35.5 71.1 35.3 L70.7 32.2 67.15 31.65 Q66.35 31.6 66.15 31.9 M41.45 13.65 L41.65 15.0 42.0 15.5 43.55 15.55 Q44.6 15.55 45.2 15.1 45.4 14.95 45.4 13.2 45.4 12.05 45.05 11.5 L44.35 10.85 41.55 11.95 41.45 13.65 M33.85 29.2 L34.1 30.2 Q34.45 31.0 34.9 31.3 39.0 30.75 39.0 28.35 39.0 27.25 38.65 26.95 L37.8 26.6 36.05 26.85 34.2 27.0 33.85 29.2" fill="#ffffff" fill-opacity="0.7058824" fill-rule="evenodd" stroke="none"/>
      <path d="M33.85 29.2 L34.2 27.0 36.05 26.85 37.8 26.6 38.65 26.95 Q39.0 27.25 39.0 28.35 39.0 30.75 34.9 31.3 34.45 31.0 34.1 30.2 L33.85 29.2 M41.45 13.65 L41.55 11.95 44.35 10.85 45.05 11.5 Q45.4 12.05 45.4 13.2 45.4 14.95 45.2 15.1 44.6 15.55 43.55 15.55 L42.0 15.5 41.65 15.0 41.45 13.65 M66.15 31.9 Q66.35 31.6 67.15 31.65 L70.7 32.2 71.1 35.3 Q70.85 35.5 70.6 35.75 L67.1 35.75 Q66.65 34.9 66.45 33.85 L66.15 31.9 M69.25 12.45 L69.8 12.0 Q73.75 13.2 73.95 13.65 73.95 14.35 73.45 14.8 L70.7 14.45 Q70.05 14.1 69.55 13.7 69.0 12.8 69.25 12.45 M94.8 8.65 Q94.8 6.9 94.95 7.25 97.5 7.3 97.8 7.75 L98.05 9.25 97.9 10.45 97.4 10.95 95.4 10.95 94.95 10.2 Q94.8 9.8 94.8 8.65 Z" fill="none" stroke="#000000" stroke-linecap="round" stroke-linejoin="round" stroke-opacity="0.0" stroke-width="1.0"/>
    </g>
  </defs>
</svg>
