<?xml version="1.0" encoding="UTF-8" standalone="no"?>
<svg xmlns:xlink="http://www.w3.org/1999/xlink" height="47.45px" width="141.0px" xmlns="http://www.w3.org/2000/svg">
  <g transform="matrix(1.0, 0.0, 0.0, 1.0, -4.35, -2.9)">
    <use data-characterId="3188" height="47.45" transform="matrix(1.0, 0.0, 0.0, 1.0, 4.35, 2.9)" width="141.0" xlink:href="#morphshape0"/>
    <use data-characterId="3189" height="37.5" transform="matrix(1.0, 0.0, 0.0, 1.0, 17.5, 9.15)" width="116.05" xlink:href="#morphshape1"/>
    <use data-characterId="3190" height="21.8" transform="matrix(1.0, 0.0, 0.0, 1.0, 37.6, 4.7)" width="75.1" xlink:href="#morphshape2"/>
    <use data-characterId="3191" height="35.65" transform="matrix(1.0, 0.0, 0.0, 1.0, 32.35, 6.65)" width="66.65" xlink:href="#morphshape3"/>
  </g>
  <defs>
    <g id="morphshape0" transform="matrix(1.0, 0.0, 0.0, 1.0, -4.35, -2.9)">
      <path d="M5.05 17.65 Q4.8 19.2 11.7 20.4 18.65 21.5 26.75 22.05 36.75 22.8 26.1 24.3 15.15 25.05 22.15 26.65 29.55 28.0 24.45 28.75 19.3 29.4 15.95 30.85 12.8 32.65 16.4 33.2 19.8 33.65 21.55 34.05 24.15 34.45 26.35 35.0 L34.35 35.85 Q29.9 37.6 32.35 38.35 25.1 40.55 39.25 40.25 41.35 40.85 50.2 40.0 43.2 42.5 44.85 43.7 46.65 44.95 53.25 45.3 59.9 45.55 67.1 46.5 75.25 47.4 70.8 48.85 65.9 50.3 69.3 49.65 74.2 49.0 78.35 48.95 L91.4 48.35 Q98.65 47.95 101.7 47.05 106.55 46.4 106.75 44.65 106.0 43.6 108.4 41.25 111.85 40.25 106.3 38.35 122.05 37.1 122.25 35.35 124.2 34.2 120.05 33.9 122.25 33.05 120.5 32.55 126.75 31.2 126.1 30.3 125.85 29.55 122.5 28.75 119.6 28.1 118.05 27.5 116.55 26.9 126.45 25.35 136.35 23.8 138.9 22.1 141.4 20.4 133.6 19.4 127.75 18.4 123.95 18.45 L122.5 18.5 122.1 18.35 Q123.75 17.4 122.1 16.5 129.4 15.45 124.45 14.55 120.85 13.7 116.05 13.6 116.65 11.7 112.8 10.55 102.95 6.5 88.7 4.7 77.45 2.9 53.9 4.25 34.85 5.55 21.15 8.9 7.1 11.3 9.4 12.25 11.7 13.15 21.95 13.95 32.1 14.65 27.45 14.9 22.9 15.0 18.4 15.15 L10.05 15.7 4.85 16.3 Q4.45 16.95 4.8 17.65" fill="#96e0bc" fill-opacity="0.7058824" fill-rule="evenodd" stroke="none"/>
      <path d="M4.8 17.65 Q4.45 16.95 4.85 16.3 L10.05 15.7 18.4 15.15 Q22.9 15.0 27.45 14.9 32.1 14.65 21.95 13.95 11.7 13.15 9.4 12.25 7.1 11.3 21.15 8.9 34.85 5.55 53.9 4.25 77.45 2.9 88.7 4.7 102.95 6.5 112.8 10.55 116.65 11.7 116.05 13.6 120.85 13.7 124.45 14.55 129.4 15.45 122.1 16.5 123.75 17.4 122.1 18.35 L122.5 18.5 123.95 18.45 Q127.75 18.4 133.6 19.4 141.4 20.4 138.9 22.1 136.35 23.8 126.45 25.35 116.55 26.9 118.05 27.5 119.6 28.1 122.5 28.75 125.85 29.55 126.1 30.3 126.75 31.2 120.5 32.55 122.25 33.05 120.05 33.9 124.2 34.2 122.25 35.35 122.05 37.1 106.3 38.35 111.85 40.25 108.4 41.25 106.0 43.6 106.75 44.65 106.55 46.4 101.7 47.05 98.65 47.95 91.4 48.35 L78.35 48.95 Q74.2 49.0 69.3 49.65 65.9 50.3 70.8 48.85 75.25 47.4 67.1 46.5 59.9 45.55 53.25 45.3 46.65 44.95 44.85 43.7 43.2 42.5 50.2 40.0 41.35 40.85 39.25 40.25 25.1 40.55 32.35 38.35 29.9 37.6 34.35 35.85 L26.35 35.0 Q24.15 34.45 21.55 34.05 19.8 33.65 16.4 33.2 12.8 32.65 15.95 30.85 19.3 29.4 24.45 28.75 29.55 28.0 22.15 26.65 15.15 25.05 26.1 24.3 36.75 22.8 26.75 22.05 18.65 21.5 11.7 20.4 4.8 19.2 5.05 17.65" fill="none" stroke="#000000" stroke-linecap="round" stroke-linejoin="round" stroke-opacity="0.0" stroke-width="1.0"/>
    </g>
    <g id="morphshape1" transform="matrix(1.0, 0.0, 0.0, 1.0, -17.5, -9.15)">
      <path d="M123.2 22.5 Q123.2 23.25 123.65 23.95 124.4 25.0 127.25 24.75 L126.5 22.55 Q125.5 22.2 123.2 22.5 M101.55 31.7 Q101.55 32.05 102.65 32.85 L105.95 32.95 108.1 31.95 Q110.3 30.9 110.7 30.4 L109.2 29.2 105.0 28.8 Q101.55 29.0 101.55 31.7 M87.9 40.4 L88.3 41.15 Q89.35 41.5 90.65 41.8 L93.05 42.05 96.55 42.0 97.15 41.8 97.5 41.45 97.65 40.75 97.6 40.25 Q97.5 39.5 96.9 39.1 95.85 38.4 91.5 38.45 89.7 38.7 88.25 39.7 L87.9 40.4 M77.7 35.9 L77.7 35.95 78.05 36.6 Q78.9 36.95 80.1 37.3 L82.3 37.6 85.55 37.6 86.1 37.45 86.45 37.15 86.65 36.55 86.65 36.1 Q86.55 35.35 86.0 34.95 85.1 34.25 81.1 34.2 79.4 34.45 78.0 35.2 L77.7 35.85 M61.8 37.2 L62.35 38.1 68.7 38.5 Q72.75 38.5 75.6 36.25 75.6 34.35 69.55 34.2 63.3 34.1 61.8 37.2 M57.45 41.35 Q57.55 41.8 57.7 42.1 L60.75 42.1 Q61.2 41.85 61.45 40.25 L57.95 40.45 Q57.45 40.8 57.45 41.35 M49.0 35.2 L50.2 36.4 Q52.25 37.55 56.55 37.55 58.1 37.55 59.85 35.4 59.85 32.45 54.45 32.5 49.0 32.55 49.0 35.2 M29.75 29.5 Q29.85 30.05 32.55 31.3 36.0 32.3 39.6 32.3 L43.4 31.7 Q44.5 31.0 44.95 28.95 44.5 26.1 36.9 26.3 29.25 26.45 29.7 29.45 M20.5 14.1 Q20.5 14.55 20.95 15.25 L21.9 16.2 28.75 16.3 Q29.95 15.4 29.95 14.85 29.95 13.0 25.25 12.9 20.5 12.85 20.5 14.1" fill="#bef0d8" fill-opacity="0.7058824" fill-rule="evenodd" stroke="none"/>
      <path d="M20.5 14.1 Q20.5 12.85 25.25 12.9 29.95 13.0 29.95 14.85 29.95 15.4 28.75 16.3 L21.9 16.2 20.95 15.25 Q20.5 14.55 20.5 14.1 M29.7 29.45 Q29.25 26.45 36.9 26.3 44.5 26.1 44.95 28.95 44.5 31.0 43.4 31.7 L39.6 32.3 Q36.0 32.3 32.55 31.3 29.85 30.05 29.75 29.5 M49.0 35.2 Q49.0 32.55 54.45 32.5 59.85 32.45 59.85 35.4 58.1 37.55 56.55 37.55 52.25 37.55 50.2 36.4 L49.0 35.2 M57.45 41.35 Q57.45 40.8 57.95 40.45 L61.45 40.25 Q61.2 41.85 60.75 42.1 L57.7 42.1 Q57.55 41.8 57.45 41.35 M61.8 37.2 Q63.3 34.1 69.55 34.2 75.6 34.35 75.6 36.25 72.75 38.5 68.7 38.5 L62.35 38.1 61.8 37.2 M77.7 35.85 L78.0 35.2 Q79.4 34.45 81.1 34.2 85.1 34.25 86.0 34.95 86.55 35.35 86.65 36.1 L86.65 36.55 86.45 37.15 86.1 37.45 85.55 37.6 82.3 37.6 80.1 37.3 Q78.9 36.95 78.05 36.6 L77.7 35.95 77.7 35.9 M87.9 40.4 L88.25 39.7 Q89.7 38.7 91.5 38.45 95.85 38.4 96.9 39.1 97.5 39.5 97.6 40.25 L97.65 40.75 97.5 41.45 97.15 41.8 96.55 42.0 93.05 42.05 90.65 41.8 Q89.35 41.5 88.3 41.15 L87.9 40.4 M101.55 31.7 Q101.55 29.0 105.0 28.8 L109.2 29.2 110.7 30.4 Q110.3 30.9 108.1 31.95 L105.95 32.95 102.65 32.85 Q101.55 32.05 101.55 31.7 M123.2 22.5 Q125.5 22.2 126.5 22.55 L127.25 24.75 Q124.4 25.0 123.65 23.95 123.2 23.25 123.2 22.5 Z" fill="none" stroke="#000000" stroke-linecap="round" stroke-linejoin="round" stroke-opacity="0.0" stroke-width="1.0"/>
    </g>
    <g id="morphshape2" transform="matrix(1.0, 0.0, 0.0, 1.0, -37.6, -4.7)">
      <path d="M104.9 17.25 Q104.9 18.4 105.15 18.8 L105.95 19.35 Q108.55 18.6 109.75 18.1 110.45 17.6 109.4 14.55 107.0 14.75 105.95 15.4 104.9 16.0 104.9 17.25 M92.25 18.95 Q92.25 20.0 92.85 20.6 L95.9 20.8 Q96.35 19.8 96.1 17.7 L92.35 17.6 92.25 18.95 M90.9 10.25 Q90.9 11.3 91.3 12.2 L97.25 12.2 Q98.3 11.15 98.3 7.65 93.6 7.2 91.95 8.05 90.9 8.65 90.9 10.25 M82.6 18.95 Q82.65 19.9 83.4 21.75 84.05 22.2 85.6 22.35 L86.4 21.15 Q86.9 20.45 86.2 18.65 L82.6 18.95 M76.8 11.35 Q76.4 13.25 77.2 14.75 78.2 16.5 80.45 16.5 81.6 16.5 82.8 14.75 81.95 12.35 80.3 11.7 L76.8 11.35 M65.1 11.3 L65.15 12.75 65.5 13.3 70.95 14.05 74.25 14.45 Q76.0 14.45 74.9 12.0 74.9 8.95 70.0 8.8 65.1 8.7 65.1 11.3 M56.0 17.85 L56.1 18.85 56.35 19.15 Q56.7 19.35 57.1 19.4 57.95 19.5 59.05 19.6 L62.1 19.3 Q62.3 18.05 61.9 15.7 61.2 14.3 60.55 13.45 59.4 12.7 58.15 13.05 56.05 14.1 56.05 17.85 M50.75 14.2 L50.75 14.3 50.8 15.1 50.95 15.35 Q51.2 15.6 51.55 15.65 L53.3 15.9 Q54.9 15.5 55.9 15.45 56.15 14.25 55.9 12.25 55.3 11.0 54.75 10.15 53.7 9.6 52.6 9.85 50.7 10.9 50.7 14.2 M39.6 12.45 L40.7 14.55 Q42.4 16.7 45.4 16.7 49.3 16.7 49.3 13.5 49.3 10.5 44.45 9.7 39.6 8.85 39.6 12.45" fill="#bef0d8" fill-opacity="0.7058824" fill-rule="evenodd" stroke="none"/>
      <path d="M39.6 12.45 Q39.6 8.85 44.45 9.7 49.3 10.5 49.3 13.5 49.3 16.7 45.4 16.7 42.4 16.7 40.7 14.55 L39.6 12.45 M50.7 14.2 Q50.7 10.9 52.6 9.85 53.7 9.6 54.75 10.15 55.3 11.0 55.9 12.25 56.15 14.25 55.9 15.45 54.9 15.5 53.3 15.9 L51.55 15.65 Q51.2 15.6 50.95 15.35 L50.8 15.1 50.75 14.3 50.75 14.2 M56.05 17.85 Q56.05 14.1 58.15 13.05 59.4 12.7 60.55 13.45 61.2 14.3 61.9 15.7 62.3 18.05 62.1 19.3 L59.05 19.6 Q57.95 19.5 57.1 19.4 56.7 19.35 56.35 19.15 L56.1 18.85 56.0 17.85 M65.1 11.3 Q65.1 8.7 70.0 8.8 74.9 8.95 74.9 12.0 76.0 14.45 74.25 14.45 L70.95 14.05 65.5 13.3 65.15 12.75 65.1 11.3 M76.8 11.35 L80.3 11.7 Q81.95 12.35 82.8 14.75 81.6 16.5 80.45 16.5 78.2 16.5 77.2 14.75 76.4 13.25 76.8 11.35 M82.6 18.95 L86.2 18.65 Q86.9 20.45 86.4 21.15 L85.6 22.35 Q84.05 22.2 83.4 21.75 82.65 19.9 82.6 18.95 M90.9 10.25 Q90.9 8.65 91.95 8.05 93.6 7.2 98.3 7.65 98.3 11.15 97.25 12.2 L91.3 12.2 Q90.9 11.3 90.9 10.25 M92.25 18.95 L92.35 17.6 96.1 17.7 Q96.35 19.8 95.9 20.8 L92.85 20.6 Q92.25 20.0 92.25 18.95 M104.9 17.25 Q104.9 16.0 105.95 15.4 107.0 14.75 109.4 14.55 110.45 17.6 109.75 18.1 108.55 18.6 105.95 19.35 L105.15 18.8 Q104.9 18.4 104.9 17.25 Z" fill="none" stroke="#000000" stroke-linecap="round" stroke-linejoin="round" stroke-opacity="0.0" stroke-width="1.0"/>
    </g>
    <g id="morphshape3" transform="matrix(1.0, 0.0, 0.0, 1.0, -32.35, -6.65)">
      <path d="M95.2 8.45 Q95.2 9.6 95.35 10.0 L95.8 10.75 97.8 10.75 98.3 10.25 98.45 9.05 98.2 7.55 Q97.9 7.1 95.35 7.05 95.2 6.7 95.2 8.45 M68.95 11.05 Q68.7 11.4 69.25 12.3 69.65 12.75 70.4 13.05 L73.15 13.4 Q73.65 12.95 73.65 12.25 73.45 11.8 69.5 10.6 L68.95 11.05 M66.0 34.6 L66.3 36.55 Q66.5 37.6 66.95 38.45 L70.45 38.45 Q70.65 38.15 70.95 38.0 L70.55 34.9 67.0 34.35 Q66.2 34.3 66.0 34.6 M42.75 14.35 L42.95 15.7 43.3 16.2 44.85 16.25 Q45.9 16.25 46.5 15.8 46.7 15.65 46.7 13.9 46.7 12.75 46.35 12.2 L45.65 11.55 42.85 12.65 42.75 14.35 M35.35 29.2 L35.6 30.2 Q35.95 31.0 36.4 31.3 40.5 30.75 40.5 28.35 40.5 27.25 40.15 26.95 L39.3 26.6 37.55 26.85 35.7 27.0 35.35 29.2" fill="#ffffff" fill-opacity="0.7058824" fill-rule="evenodd" stroke="none"/>
      <path d="M35.35 29.2 L35.7 27.0 37.55 26.85 39.3 26.6 40.15 26.95 Q40.5 27.25 40.5 28.35 40.5 30.75 36.4 31.3 35.95 31.0 35.6 30.2 L35.35 29.2 M42.75 14.35 L42.85 12.65 45.65 11.55 46.35 12.2 Q46.7 12.75 46.7 13.9 46.7 15.65 46.5 15.8 45.9 16.25 44.85 16.25 L43.3 16.2 42.95 15.7 42.75 14.35 M66.0 34.6 Q66.2 34.3 67.0 34.35 L70.55 34.9 70.95 38.0 Q70.65 38.15 70.45 38.45 L66.95 38.45 Q66.5 37.6 66.3 36.55 L66.0 34.6 M68.95 11.05 L69.5 10.6 Q73.45 11.8 73.65 12.25 73.65 12.95 73.15 13.4 L70.4 13.05 Q69.65 12.75 69.25 12.3 68.7 11.4 68.95 11.05 M95.2 8.45 Q95.2 6.7 95.35 7.05 97.9 7.1 98.2 7.55 L98.45 9.05 98.3 10.25 97.8 10.75 95.8 10.75 95.35 10.0 Q95.2 9.6 95.2 8.45 Z" fill="none" stroke="#000000" stroke-linecap="round" stroke-linejoin="round" stroke-opacity="0.0" stroke-width="1.0"/>
    </g>
  </defs>
</svg>
