<?xml version="1.0" encoding="UTF-8" standalone="no"?>
<svg xmlns:xlink="http://www.w3.org/1999/xlink" height="47.45px" width="141.0px" xmlns="http://www.w3.org/2000/svg">
  <g transform="matrix(1.0, 0.0, 0.0, 1.0, -4.35, -2.9)">
    <use data-characterId="3188" height="47.45" transform="matrix(1.0, 0.0, 0.0, 1.0, 4.35, 2.9)" width="141.0" xlink:href="#morphshape0"/>
    <use data-characterId="3189" height="37.5" transform="matrix(1.0, 0.0, 0.0, 1.0, 17.5, 9.15)" width="116.05" xlink:href="#morphshape1"/>
    <use data-characterId="3190" height="21.8" transform="matrix(1.0, 0.0, 0.0, 1.0, 37.6, 4.7)" width="75.1" xlink:href="#morphshape2"/>
    <use data-characterId="3191" height="35.65" transform="matrix(1.0, 0.0, 0.0, 1.0, 32.35, 6.65)" width="66.65" xlink:href="#morphshape3"/>
  </g>
  <defs>
    <g id="morphshape0" transform="matrix(1.0, 0.0, 0.0, 1.0, -4.35, -2.9)">
      <path d="M5.0 17.8 Q4.85 19.35 11.3 20.5 17.8 21.5 25.35 22.05 35.05 22.8 25.55 24.4 15.7 25.15 21.8 26.75 28.3 28.05 23.7 28.85 19.05 29.5 16.1 30.9 13.35 32.7 16.75 33.25 19.9 33.7 21.7 34.05 24.45 34.45 26.65 35.05 L33.85 35.95 Q29.8 37.75 32.65 38.55 26.55 40.55 39.7 40.3 41.5 40.95 49.45 40.3 43.15 42.65 45.0 43.9 47.05 45.2 53.4 45.5 59.6 45.7 66.4 46.7 74.05 47.65 70.35 48.95 66.1 50.25 69.65 49.5 74.6 48.75 78.7 48.7 L91.2 48.05 Q98.05 47.65 101.1 46.8 106.2 46.25 106.75 44.35 106.25 43.3 108.5 41.0 112.2 40.0 107.35 38.2 121.9 36.8 121.65 35.1 123.4 34.05 119.65 33.75 122.65 32.85 121.15 32.3 126.85 31.0 126.0 30.1 125.6 29.35 122.45 28.6 119.8 28.0 119.05 27.35 118.3 26.7 127.35 25.1 136.4 23.5 138.45 21.85 140.4 20.15 132.8 19.25 127.4 18.35 123.85 18.4 L122.55 18.45 122.15 18.3 Q124.1 17.2 122.3 16.2 128.5 15.2 123.7 14.4 120.45 13.65 116.15 13.55 116.8 11.4 112.4 10.1 102.35 6.1 86.9 4.5 74.85 2.9 51.7 4.45 32.65 5.9 20.45 9.2 7.85 11.4 9.95 12.3 12.05 13.15 21.3 13.95 30.45 14.65 26.2 14.9 22.05 15.0 18.0 15.15 L9.55 15.75 4.85 16.3 Q4.4 17.05 4.8 17.85" fill="#96e0bc" fill-opacity="0.7058824" fill-rule="evenodd" stroke="none"/>
      <path d="M4.8 17.85 Q4.4 17.05 4.85 16.3 L9.55 15.75 18.0 15.15 Q22.05 15.0 26.2 14.9 30.45 14.65 21.3 13.95 12.05 13.15 9.95 12.3 7.85 11.4 20.45 9.2 32.65 5.9 51.7 4.45 74.85 2.9 86.9 4.5 102.35 6.1 112.4 10.1 116.8 11.4 116.15 13.55 120.45 13.65 123.7 14.4 128.5 15.2 122.3 16.2 124.1 17.2 122.15 18.3 L122.55 18.45 123.85 18.4 Q127.4 18.35 132.8 19.25 140.4 20.15 138.45 21.85 136.4 23.5 127.35 25.1 118.3 26.7 119.05 27.35 119.8 28.0 122.45 28.6 125.6 29.35 126.0 30.1 126.85 31.0 121.15 32.3 122.65 32.85 119.65 33.75 123.4 34.05 121.65 35.1 121.9 36.8 107.35 38.2 112.2 40.0 108.5 41.0 106.25 43.3 106.75 44.35 106.2 46.25 101.1 46.8 98.05 47.65 91.2 48.05 L78.7 48.7 Q74.6 48.75 69.65 49.5 66.1 50.25 70.35 48.95 74.05 47.65 66.4 46.7 59.6 45.7 53.4 45.5 47.05 45.2 45.0 43.9 43.15 42.65 49.45 40.3 41.5 40.95 39.7 40.3 26.55 40.55 32.65 38.55 29.8 37.75 33.85 35.95 L26.65 35.05 Q24.45 34.45 21.7 34.05 19.9 33.7 16.75 33.25 13.35 32.7 16.1 30.9 19.05 29.5 23.7 28.85 28.3 28.05 21.8 26.75 15.7 25.15 25.55 24.4 35.05 22.8 25.35 22.05 17.8 21.5 11.3 20.5 4.85 19.35 5.0 17.8" fill="none" stroke="#000000" stroke-linecap="round" stroke-linejoin="round" stroke-opacity="0.0" stroke-width="1.0"/>
    </g>
    <g id="morphshape1" transform="matrix(1.0, 0.0, 0.0, 1.0, -17.5, -9.15)">
      <path d="M122.35 22.6 Q122.35 23.35 122.8 24.05 123.55 25.1 126.4 24.85 L125.65 22.65 Q124.65 22.3 122.35 22.6 M101.35 31.4 Q101.35 31.75 102.45 32.55 L105.75 32.65 107.9 31.65 Q110.1 30.6 110.5 30.1 L109.0 28.9 104.8 28.5 Q101.35 28.7 101.35 31.4 M87.65 39.8 L88.05 40.55 Q89.0 40.9 90.25 41.2 L92.55 41.45 95.95 41.4 96.55 41.2 96.9 40.85 97.05 40.2 97.0 39.7 Q96.9 38.95 96.3 38.55 95.3 37.85 91.1 37.85 89.35 38.1 87.9 39.0 L87.55 39.7 M77.3 36.4 L77.3 36.45 77.65 37.15 Q78.6 37.5 79.85 37.85 L82.15 38.15 85.5 38.15 86.05 38.0 86.4 37.7 86.6 37.05 86.6 36.6 Q86.5 35.85 85.95 35.45 85.0 34.75 80.85 34.75 79.1 35.0 77.7 35.85 L77.4 36.5 M61.85 36.65 L62.4 37.55 68.75 37.95 Q72.8 37.95 75.65 35.7 75.65 33.8 69.6 33.65 63.35 33.55 61.85 36.65 M57.9 41.45 Q58.0 41.9 58.15 42.2 L61.2 42.2 Q61.65 41.95 61.9 40.35 L58.4 40.55 Q57.9 40.9 57.9 41.45 M49.0 35.4 L50.2 36.6 Q52.25 37.75 56.55 37.75 58.1 37.75 59.85 35.6 59.85 32.65 54.45 32.7 49.0 32.75 49.0 35.4 M29.4 29.4 Q29.5 29.95 32.2 31.25 35.6 32.35 39.2 32.35 L43.0 31.85 Q44.1 31.15 44.6 29.1 44.2 26.25 36.6 26.3 28.95 26.35 29.35 29.35 M20.2 14.65 Q20.2 15.1 20.65 15.8 L21.6 16.75 28.45 16.85 Q29.65 15.95 29.65 15.4 29.65 13.55 24.95 13.45 20.2 13.4 20.2 14.65" fill="#bef0d8" fill-opacity="0.7058824" fill-rule="evenodd" stroke="none"/>
      <path d="M20.2 14.65 Q20.2 13.4 24.95 13.45 29.65 13.55 29.65 15.4 29.65 15.95 28.45 16.85 L21.6 16.75 20.65 15.8 Q20.2 15.1 20.2 14.65 M29.35 29.35 Q28.95 26.35 36.6 26.3 44.2 26.25 44.6 29.1 44.1 31.15 43.0 31.85 L39.2 32.35 Q35.6 32.35 32.2 31.25 29.5 29.95 29.4 29.4 M49.0 35.4 Q49.0 32.75 54.45 32.7 59.85 32.65 59.85 35.6 58.1 37.75 56.55 37.75 52.25 37.75 50.2 36.6 L49.0 35.4 M57.9 41.45 Q57.9 40.9 58.4 40.55 L61.9 40.35 Q61.65 41.95 61.2 42.2 L58.15 42.2 Q58.0 41.9 57.9 41.45 M61.85 36.65 Q63.35 33.55 69.6 33.65 75.65 33.8 75.65 35.7 72.8 37.95 68.75 37.95 L62.4 37.55 61.85 36.65 M77.4 36.5 L77.7 35.85 Q79.1 35.0 80.85 34.75 85.0 34.75 85.95 35.45 86.5 35.85 86.6 36.6 L86.6 37.05 86.4 37.7 86.05 38.0 85.5 38.15 82.15 38.15 79.85 37.85 Q78.6 37.5 77.65 37.15 L77.3 36.45 77.3 36.4 M87.55 39.7 L87.9 39.0 Q89.35 38.1 91.1 37.85 95.3 37.85 96.3 38.55 96.9 38.95 97.0 39.7 L97.05 40.2 96.9 40.85 96.55 41.2 95.95 41.4 92.55 41.45 90.25 41.2 Q89.0 40.9 88.05 40.55 L87.65 39.8 M101.35 31.4 Q101.35 28.7 104.8 28.5 L109.0 28.9 110.5 30.1 Q110.1 30.6 107.9 31.65 L105.75 32.65 102.45 32.55 Q101.35 31.75 101.35 31.4 M122.35 22.6 Q124.65 22.3 125.65 22.65 L126.4 24.85 Q123.55 25.1 122.8 24.05 122.35 23.35 122.35 22.6 Z" fill="none" stroke="#000000" stroke-linecap="round" stroke-linejoin="round" stroke-opacity="0.0" stroke-width="1.0"/>
    </g>
    <g id="morphshape2" transform="matrix(1.0, 0.0, 0.0, 1.0, -37.6, -4.7)">
      <path d="M104.5 17.0 Q104.5 18.15 104.75 18.55 L105.55 19.1 Q108.1 18.35 109.35 17.85 110.05 17.35 109.0 14.3 106.6 14.5 105.55 15.15 104.5 15.75 104.5 17.0 M92.0 19.25 Q92.0 20.3 92.6 20.9 L95.65 21.1 Q96.1 20.1 95.85 18.0 L92.1 17.9 92.0 19.25 M90.6 10.45 Q90.6 11.5 91.0 12.4 L96.95 12.4 Q98.0 11.35 98.0 7.85 93.3 7.4 91.65 8.25 90.6 8.85 90.6 10.45 M82.3 19.35 Q82.35 20.3 83.1 22.15 83.75 22.6 85.3 22.75 L86.1 21.55 Q86.6 20.85 85.9 19.05 L82.3 19.35 M77.0 10.85 Q76.6 12.75 77.4 14.25 78.4 16.0 80.65 16.0 81.8 16.0 83.0 14.25 82.15 11.85 80.5 11.2 L77.0 10.85 M65.3 11.6 L65.35 13.05 65.7 13.6 71.15 14.35 74.45 14.75 Q76.2 14.75 75.1 12.3 75.1 9.25 70.2 9.1 65.3 9.0 65.3 11.6 M56.05 17.15 L56.15 18.15 56.35 18.45 Q56.65 18.65 57.05 18.7 57.8 18.8 58.9 18.9 L61.8 18.55 Q62.0 17.3 61.65 15.1 61.0 13.75 60.4 12.9 59.3 12.2 58.1 12.5 56.05 13.55 56.05 17.15 M50.5 15.1 L50.5 15.2 50.55 16.05 50.75 16.3 Q51.05 16.55 51.4 16.6 L53.2 16.8 Q54.85 16.45 55.95 16.4 56.2 15.2 55.9 13.05 55.25 11.75 54.65 10.9 53.55 10.3 52.4 10.6 50.45 11.65 50.45 15.1 M39.4 12.2 L40.5 14.3 Q42.2 16.45 45.2 16.45 49.1 16.45 49.1 13.25 49.1 10.25 44.25 9.45 39.4 8.6 39.4 12.2" fill="#bef0d8" fill-opacity="0.7058824" fill-rule="evenodd" stroke="none"/>
      <path d="M39.4 12.2 Q39.4 8.6 44.25 9.45 49.1 10.25 49.1 13.25 49.1 16.45 45.2 16.45 42.2 16.45 40.5 14.3 L39.4 12.2 M50.45 15.1 Q50.45 11.65 52.4 10.6 53.55 10.3 54.65 10.9 55.25 11.75 55.9 13.05 56.2 15.2 55.95 16.4 54.85 16.45 53.2 16.8 L51.4 16.6 Q51.05 16.55 50.75 16.3 L50.55 16.05 50.5 15.2 50.5 15.1 M56.05 17.15 Q56.05 13.55 58.1 12.5 59.3 12.2 60.4 12.9 61.0 13.75 61.65 15.1 62.0 17.3 61.8 18.55 L58.9 18.9 Q57.8 18.8 57.05 18.7 56.65 18.65 56.35 18.45 L56.15 18.15 56.05 17.15 M65.3 11.6 Q65.3 9.0 70.2 9.1 75.1 9.25 75.1 12.3 76.2 14.75 74.45 14.75 L71.15 14.35 65.7 13.6 65.35 13.05 65.3 11.6 M77.0 10.85 L80.5 11.2 Q82.15 11.85 83.0 14.25 81.8 16.0 80.65 16.0 78.4 16.0 77.4 14.25 76.6 12.75 77.0 10.85 M82.3 19.35 L85.9 19.05 Q86.6 20.85 86.1 21.55 L85.3 22.75 Q83.75 22.6 83.1 22.15 82.35 20.3 82.3 19.35 M90.6 10.45 Q90.6 8.85 91.65 8.25 93.3 7.4 98.0 7.85 98.0 11.35 96.95 12.4 L91.0 12.4 Q90.6 11.5 90.6 10.45 M92.0 19.25 L92.1 17.9 95.85 18.0 Q96.1 20.1 95.65 21.1 L92.6 20.9 Q92.0 20.3 92.0 19.25 M104.5 17.0 Q104.5 15.75 105.55 15.15 106.6 14.5 109.0 14.3 110.05 17.35 109.35 17.85 108.1 18.35 105.55 19.1 L104.75 18.55 Q104.5 18.15 104.5 17.0 Z" fill="none" stroke="#000000" stroke-linecap="round" stroke-linejoin="round" stroke-opacity="0.0" stroke-width="1.0"/>
    </g>
    <g id="morphshape3" transform="matrix(1.0, 0.0, 0.0, 1.0, -32.35, -6.65)">
      <path d="M95.1 8.5 Q95.1 9.65 95.25 10.05 L95.7 10.8 97.7 10.8 98.2 10.3 98.35 9.1 98.1 7.6 Q97.8 7.15 95.25 7.1 95.1 6.75 95.1 8.5 M69.0 11.3 Q68.75 11.65 69.3 12.55 69.7 13.0 70.45 13.3 L73.2 13.65 Q73.7 13.2 73.7 12.5 73.5 12.05 69.55 10.85 L69.0 11.3 M66.0 34.05 L66.3 36.0 Q66.5 37.05 66.95 37.9 L70.45 37.9 Q70.65 37.6 70.95 37.45 L70.55 34.35 67.0 33.8 Q66.2 33.75 66.0 34.05 M42.5 14.2 L42.7 15.55 43.05 16.05 44.6 16.1 Q45.65 16.1 46.25 15.65 46.45 15.5 46.45 13.75 46.45 12.6 46.1 12.05 L45.4 11.4 42.6 12.5 42.5 14.2 M35.05 29.2 L35.3 30.2 Q35.65 31.0 36.1 31.3 40.2 30.75 40.2 28.35 40.2 27.25 39.85 26.95 L39.0 26.6 37.25 26.85 35.4 27.0 35.05 29.2" fill="#ffffff" fill-opacity="0.7058824" fill-rule="evenodd" stroke="none"/>
      <path d="M35.05 29.2 L35.4 27.0 37.25 26.85 39.0 26.6 39.85 26.95 Q40.2 27.25 40.2 28.35 40.2 30.75 36.1 31.3 35.65 31.0 35.3 30.2 L35.05 29.2 M42.5 14.2 L42.6 12.5 45.4 11.4 46.1 12.05 Q46.45 12.6 46.45 13.75 46.45 15.5 46.25 15.65 45.65 16.1 44.6 16.1 L43.05 16.05 42.7 15.55 42.5 14.2 M66.0 34.05 Q66.2 33.75 67.0 33.8 L70.55 34.35 70.95 37.45 Q70.65 37.6 70.45 37.9 L66.95 37.9 Q66.5 37.05 66.3 36.0 L66.0 34.05 M69.0 11.3 L69.55 10.85 Q73.5 12.05 73.7 12.5 73.7 13.2 73.2 13.65 L70.45 13.3 Q69.7 13.0 69.3 12.55 68.75 11.65 69.0 11.3 M95.1 8.5 Q95.1 6.75 95.25 7.1 97.8 7.15 98.1 7.6 L98.35 9.1 98.2 10.3 97.7 10.8 95.7 10.8 95.25 10.05 Q95.1 9.65 95.1 8.5 Z" fill="none" stroke="#000000" stroke-linecap="round" stroke-linejoin="round" stroke-opacity="0.0" stroke-width="1.0"/>
    </g>
  </defs>
</svg>
