<?xml version="1.0" encoding="UTF-8" standalone="no"?>
<svg xmlns:xlink="http://www.w3.org/1999/xlink" height="47.45px" width="141.0px" xmlns="http://www.w3.org/2000/svg">
  <g transform="matrix(1.0, 0.0, 0.0, 1.0, -4.35, -2.9)">
    <use data-characterId="3188" height="47.45" transform="matrix(1.0, 0.0, 0.0, 1.0, 4.35, 2.9)" width="141.0" xlink:href="#morphshape0"/>
    <use data-characterId="3189" height="37.5" transform="matrix(1.0, 0.0, 0.0, 1.0, 17.5, 9.15)" width="116.05" xlink:href="#morphshape1"/>
    <use data-characterId="3190" height="21.8" transform="matrix(1.0, 0.0, 0.0, 1.0, 37.6, 4.7)" width="75.1" xlink:href="#morphshape2"/>
    <use data-characterId="3191" height="35.65" transform="matrix(1.0, 0.0, 0.0, 1.0, 32.35, 6.65)" width="66.65" xlink:href="#morphshape3"/>
  </g>
  <defs>
    <g id="morphshape0" transform="matrix(1.0, 0.0, 0.0, 1.0, -4.35, -2.9)">
      <path d="M4.6 17.45 Q4.2 19.0 11.85 20.3 19.55 21.5 28.6 22.05 39.1 22.75 26.4 24.1 13.45 24.85 22.05 26.5 30.95 27.95 25.0 28.7 19.0 29.3 15.0 30.85 11.15 32.65 15.15 33.15 19.0 33.6 20.7 34.0 23.05 34.45 25.25 34.9 L34.7 35.7 Q29.55 37.35 31.35 38.1 22.1 40.65 38.0 40.3 40.65 40.75 51.05 39.55 42.85 42.3 44.15 43.45 45.55 44.65 52.6 45.05 60.1 45.3 68.0 46.1 77.0 46.85 71.25 48.55 65.15 50.25 68.25 49.75 73.1 49.25 77.35 49.2 L91.45 48.65 Q99.4 48.25 102.4 47.25 106.75 46.45 106.35 44.9 105.25 43.9 108.0 41.4 110.95 40.35 104.15 38.3 122.0 37.3 123.05 35.5 125.4 34.15 120.6 33.8 121.4 33.1 119.2 32.65 126.4 31.25 126.1 30.35 126.1 29.55 122.45 28.75 119.15 28.05 116.25 27.55 113.35 27.05 124.75 25.65 136.15 24.25 139.65 22.5 143.1 20.75 134.95 19.55 128.25 18.35 123.95 18.4 L122.3 18.45 121.95 18.35 Q123.15 17.6 121.85 16.9 131.0 15.7 125.75 14.7 121.55 13.75 115.95 13.6 116.4 12.15 113.5 11.3 104.0 7.15 91.85 5.05 82.0 2.95 57.75 4.0 38.7 4.95 22.45 8.4 5.9 11.1 8.55 12.1 11.2 13.05 23.15 13.9 35.05 14.65 29.7 14.9 24.4 15.0 19.2 15.15 L10.95 15.6 4.85 16.3 Q4.55 16.8 4.8 17.35" fill="#96e0bc" fill-opacity="0.7058824" fill-rule="evenodd" stroke="none"/>
      <path d="M4.8 17.35 Q4.55 16.8 4.85 16.3 L10.95 15.6 19.2 15.15 Q24.4 15.0 29.7 14.9 35.05 14.65 23.15 13.9 11.2 13.05 8.55 12.1 5.9 11.1 22.45 8.4 38.7 4.95 57.75 4.0 82.0 2.95 91.85 5.05 104.0 7.15 113.5 11.3 116.4 12.15 115.95 13.6 121.55 13.75 125.75 14.7 131.0 15.7 121.85 16.9 123.15 17.6 121.95 18.35 L122.3 18.45 123.95 18.4 Q128.25 18.35 134.95 19.55 143.1 20.75 139.65 22.5 136.15 24.25 124.75 25.65 113.35 27.05 116.25 27.55 119.15 28.05 122.45 28.75 126.1 29.55 126.1 30.35 126.4 31.25 119.2 32.65 121.4 33.1 120.6 33.8 125.4 34.15 123.05 35.5 122.0 37.3 104.15 38.3 110.95 40.35 108.0 41.4 105.25 43.9 106.35 44.9 106.75 46.45 102.4 47.25 99.4 48.25 91.45 48.65 L77.35 49.2 Q73.1 49.25 68.25 49.75 65.15 50.25 71.25 48.55 77.0 46.85 68.0 46.1 60.1 45.3 52.6 45.05 45.55 44.65 44.15 43.45 42.85 42.3 51.05 39.55 40.65 40.75 38.0 40.3 22.1 40.65 31.35 38.1 29.55 37.35 34.7 35.7 L25.25 34.9 Q23.05 34.45 20.7 34.0 19.0 33.6 15.15 33.15 11.15 32.65 15.0 30.85 19.0 29.3 25.0 28.7 30.95 27.95 22.05 26.5 13.45 24.85 26.4 24.1 39.1 22.75 28.6 22.05 19.55 21.5 11.85 20.3 4.2 19.0 4.6 17.45" fill="none" stroke="#000000" stroke-linecap="round" stroke-linejoin="round" stroke-opacity="0.0" stroke-width="1.0"/>
    </g>
    <g id="morphshape1" transform="matrix(1.0, 0.0, 0.0, 1.0, -17.5, -9.15)">
      <path d="M124.7 22.3 Q124.7 23.05 125.15 23.75 125.9 24.8 128.75 24.55 L128.0 22.35 Q127.0 22.0 124.7 22.3 M101.9 32.3 Q101.9 32.65 103.0 33.45 L106.3 33.55 108.45 32.55 Q110.65 31.5 111.05 31.0 L109.55 29.8 105.35 29.4 Q101.9 29.6 101.9 32.3 M88.5 41.45 L88.95 42.25 Q90.1 42.55 91.4 42.85 L93.9 43.05 97.6 42.95 98.25 42.75 98.65 42.4 98.8 41.7 98.75 41.2 Q98.6 40.45 97.95 40.0 96.85 39.3 92.25 39.35 90.35 39.65 88.85 40.8 L88.45 41.55 M78.1 34.8 L78.1 34.85 78.4 35.5 Q79.15 35.9 80.35 36.25 L82.45 36.6 85.5 36.65 86.0 36.5 86.3 36.2 86.5 35.6 86.5 35.15 Q86.45 34.4 85.95 34.05 85.1 33.35 81.35 33.3 79.75 33.5 78.4 34.1 L78.15 34.7 M61.65 38.15 L62.2 39.05 68.55 39.45 Q72.6 39.45 75.45 37.2 75.45 35.3 69.4 35.15 63.15 35.05 61.65 38.15 M56.7 41.2 Q56.8 41.65 56.95 41.95 L60.0 41.95 Q60.45 41.7 60.7 40.1 L57.2 40.3 Q56.7 40.65 56.7 41.2 M49.0 34.85 L50.2 36.05 Q52.25 37.2 56.55 37.2 58.1 37.2 59.85 35.05 59.85 32.1 54.45 32.15 49.0 32.2 49.0 34.85 M30.35 29.7 Q30.5 30.25 33.25 31.4 36.7 32.2 40.3 32.25 L44.1 31.55 Q45.15 30.8 45.55 28.75 45.05 25.9 37.45 26.3 29.8 26.65 30.3 29.65 M21.0 13.2 Q21.0 13.65 21.45 14.35 L22.4 15.3 29.25 15.4 Q30.45 14.5 30.45 13.95 30.45 12.1 25.75 12.0 21.0 11.95 21.0 13.2" fill="#bef0d8" fill-opacity="0.7058824" fill-rule="evenodd" stroke="none"/>
      <path d="M21.0 13.2 Q21.0 11.95 25.75 12.0 30.45 12.1 30.45 13.95 30.45 14.5 29.25 15.4 L22.4 15.3 21.45 14.35 Q21.0 13.65 21.0 13.2 M30.3 29.65 Q29.8 26.65 37.45 26.3 45.05 25.9 45.55 28.75 45.15 30.8 44.1 31.55 L40.3 32.25 Q36.7 32.2 33.25 31.4 30.5 30.25 30.35 29.7 M49.0 34.85 Q49.0 32.2 54.45 32.15 59.85 32.1 59.85 35.05 58.1 37.2 56.55 37.2 52.25 37.2 50.2 36.05 L49.0 34.85 M56.7 41.2 Q56.7 40.65 57.2 40.3 L60.7 40.1 Q60.45 41.7 60.0 41.95 L56.95 41.95 Q56.8 41.65 56.7 41.2 M61.65 38.15 Q63.15 35.05 69.4 35.15 75.45 35.3 75.45 37.2 72.6 39.45 68.55 39.45 L62.2 39.05 61.65 38.15 M78.15 34.7 L78.4 34.1 Q79.75 33.5 81.35 33.3 85.1 33.35 85.95 34.05 86.45 34.4 86.5 35.15 L86.5 35.6 86.3 36.2 86.0 36.5 85.5 36.65 82.45 36.6 80.35 36.25 Q79.15 35.9 78.4 35.5 L78.1 34.85 78.1 34.8 M88.45 41.55 L88.85 40.8 Q90.35 39.65 92.25 39.35 96.85 39.3 97.95 40.0 98.6 40.45 98.75 41.2 L98.8 41.7 98.65 42.4 98.25 42.75 97.6 42.95 93.9 43.05 91.4 42.85 Q90.1 42.55 88.95 42.25 L88.5 41.45 M101.9 32.3 Q101.9 29.6 105.35 29.4 L109.55 29.8 111.05 31.0 Q110.65 31.5 108.45 32.55 L106.3 33.55 103.0 33.45 Q101.9 32.65 101.9 32.3 M124.7 22.3 Q127.0 22.0 128.0 22.35 L128.75 24.55 Q125.9 24.8 125.15 23.75 124.7 23.05 124.7 22.3 Z" fill="none" stroke="#000000" stroke-linecap="round" stroke-linejoin="round" stroke-opacity="0.0" stroke-width="1.0"/>
    </g>
    <g id="morphshape2" transform="matrix(1.0, 0.0, 0.0, 1.0, -37.6, -4.7)">
      <path d="M105.55 17.75 Q105.55 18.9 105.8 19.3 L106.6 19.85 Q109.3 19.1 110.4 18.6 111.1 18.1 110.05 15.05 107.65 15.25 106.6 15.9 105.55 16.5 105.55 17.75 M92.75 18.35 Q92.75 19.4 93.35 20.0 L96.4 20.2 Q96.85 19.2 96.6 17.1 L92.85 17.0 92.75 18.35 M91.45 9.95 Q91.45 11.0 91.85 11.9 L97.8 11.9 Q98.85 10.85 98.85 7.35 94.15 6.9 92.5 7.75 91.45 8.35 91.45 9.95 M83.1 18.25 Q83.15 19.2 83.9 21.05 84.55 21.5 86.1 21.65 L86.9 20.45 Q87.4 19.75 86.7 17.95 L83.1 18.25 M76.45 12.25 Q76.05 14.15 76.85 15.65 77.85 17.4 80.1 17.4 81.25 17.4 82.45 15.65 81.6 13.25 79.95 12.6 L76.45 12.25 M64.8 10.75 L64.85 12.2 65.2 12.75 70.65 13.5 73.95 13.9 Q75.7 13.9 74.6 11.45 74.6 8.4 69.7 8.25 64.8 8.15 64.8 10.75 M56.1 19.2 L56.2 20.25 56.45 20.6 Q56.85 20.75 57.3 20.8 58.25 20.85 59.4 20.9 L62.7 20.65 Q62.9 19.4 62.4 16.85 61.6 15.35 60.85 14.5 59.65 13.6 58.3 14.0 56.1 15.1 56.1 19.15 M51.2 12.65 L51.2 12.8 51.25 13.55 51.4 13.75 Q51.6 14.05 51.9 14.1 L53.5 14.35 Q55.05 13.9 55.85 13.85 56.1 12.65 55.95 10.85 55.45 9.7 55.0 8.85 54.0 8.45 53.0 8.65 51.2 9.65 51.2 12.65 M39.95 12.85 L41.05 14.95 Q42.75 17.1 45.75 17.1 49.65 17.1 49.65 13.9 49.65 10.9 44.8 10.1 39.95 9.25 39.95 12.85" fill="#bef0d8" fill-opacity="0.7058824" fill-rule="evenodd" stroke="none"/>
      <path d="M39.95 12.85 Q39.95 9.25 44.8 10.1 49.65 10.9 49.65 13.9 49.65 17.1 45.75 17.1 42.75 17.1 41.05 14.95 L39.95 12.85 M51.2 12.65 Q51.2 9.65 53.0 8.65 54.0 8.45 55.0 8.85 55.45 9.7 55.95 10.85 56.1 12.65 55.85 13.85 55.05 13.9 53.5 14.35 L51.9 14.1 Q51.6 14.05 51.4 13.75 L51.25 13.55 51.2 12.8 51.2 12.65 M56.1 19.15 Q56.1 15.1 58.3 14.0 59.65 13.6 60.85 14.5 61.6 15.35 62.4 16.85 62.9 19.4 62.7 20.65 L59.4 20.9 Q58.25 20.85 57.3 20.8 56.85 20.75 56.45 20.6 L56.2 20.25 56.1 19.2 M64.8 10.75 Q64.8 8.15 69.7 8.25 74.6 8.4 74.6 11.45 75.7 13.9 73.95 13.9 L70.65 13.5 65.2 12.75 64.85 12.2 64.8 10.75 M76.45 12.25 L79.95 12.6 Q81.6 13.25 82.45 15.65 81.25 17.4 80.1 17.4 77.85 17.4 76.85 15.65 76.05 14.15 76.45 12.25 M83.1 18.25 L86.7 17.95 Q87.4 19.75 86.9 20.45 L86.1 21.65 Q84.55 21.5 83.9 21.05 83.15 19.2 83.1 18.25 M91.45 9.95 Q91.45 8.35 92.5 7.75 94.15 6.9 98.85 7.35 98.85 10.85 97.8 11.9 L91.85 11.9 Q91.45 11.0 91.45 9.95 M92.75 18.35 L92.85 17.0 96.6 17.1 Q96.85 19.2 96.4 20.2 L93.35 20.0 Q92.75 19.4 92.75 18.35 M105.55 17.75 Q105.55 16.5 106.6 15.9 107.65 15.25 110.05 15.05 111.1 18.1 110.4 18.6 109.3 19.1 106.6 19.85 L105.8 19.3 Q105.55 18.9 105.55 17.75 Z" fill="none" stroke="#000000" stroke-linecap="round" stroke-linejoin="round" stroke-opacity="0.0" stroke-width="1.0"/>
    </g>
    <g id="morphshape3" transform="matrix(1.0, 0.0, 0.0, 1.0, -32.35, -6.65)">
      <path d="M95.3 8.35 Q95.3 9.5 95.45 9.9 L95.9 10.65 97.9 10.65 98.4 10.15 98.55 8.95 98.3 7.45 Q98.0 7.0 95.45 6.95 95.3 6.6 95.3 8.35 M68.8 10.55 Q68.55 10.9 69.1 11.8 69.45 12.25 70.25 12.55 L73.0 12.9 Q73.5 12.45 73.5 11.75 73.3 11.3 69.35 10.1 L68.8 10.55 M65.95 35.5 L66.25 37.45 Q66.45 38.5 66.9 39.35 L70.4 39.35 Q70.6 39.05 70.9 38.9 L70.5 35.8 66.95 35.25 Q66.15 35.2 65.95 35.5 M43.2 14.6 L43.4 15.95 43.75 16.45 45.3 16.5 Q46.35 16.5 46.95 16.05 47.15 15.9 47.15 14.15 47.15 13.0 46.8 12.45 L46.1 11.8 43.3 12.9 43.2 14.6 M35.9 29.2 L36.15 30.2 Q36.5 31.0 36.95 31.3 41.05 30.75 41.05 28.35 41.05 27.25 40.7 26.95 L39.85 26.6 38.1 26.85 36.25 27.0 35.9 29.2" fill="#ffffff" fill-opacity="0.7058824" fill-rule="evenodd" stroke="none"/>
      <path d="M35.9 29.2 L36.25 27.0 38.1 26.85 39.85 26.6 40.7 26.95 Q41.05 27.25 41.05 28.35 41.05 30.75 36.95 31.3 36.5 31.0 36.15 30.2 L35.9 29.2 M43.2 14.6 L43.3 12.9 46.1 11.8 46.8 12.45 Q47.15 13.0 47.15 14.15 47.15 15.9 46.95 16.05 46.35 16.5 45.3 16.5 L43.75 16.45 43.4 15.95 43.2 14.6 M65.95 35.5 Q66.15 35.2 66.95 35.25 L70.5 35.8 70.9 38.9 Q70.6 39.05 70.4 39.35 L66.9 39.35 Q66.45 38.5 66.25 37.45 L65.95 35.5 M68.8 10.55 L69.35 10.1 Q73.3 11.3 73.5 11.75 73.5 12.45 73.0 12.9 L70.25 12.55 Q69.45 12.25 69.1 11.8 68.55 10.9 68.8 10.55 M95.3 8.35 Q95.3 6.6 95.45 6.95 98.0 7.0 98.3 7.45 L98.55 8.95 98.4 10.15 97.9 10.65 95.9 10.65 95.45 9.9 Q95.3 9.5 95.3 8.35 Z" fill="none" stroke="#000000" stroke-linecap="round" stroke-linejoin="round" stroke-opacity="0.0" stroke-width="1.0"/>
    </g>
  </defs>
</svg>
