<?xml version="1.0" encoding="UTF-8" standalone="no"?>
<svg xmlns:xlink="http://www.w3.org/1999/xlink" height="47.45px" width="141.0px" xmlns="http://www.w3.org/2000/svg">
  <g transform="matrix(1.0, 0.0, 0.0, 1.0, -4.35, -2.9)">
    <use data-characterId="3188" height="47.45" transform="matrix(1.0, 0.0, 0.0, 1.0, 4.35, 2.9)" width="141.0" xlink:href="#morphshape0"/>
    <use data-characterId="3189" height="37.5" transform="matrix(1.0, 0.0, 0.0, 1.0, 17.5, 9.15)" width="116.05" xlink:href="#morphshape1"/>
    <use data-characterId="3190" height="21.8" transform="matrix(1.0, 0.0, 0.0, 1.0, 37.6, 4.7)" width="75.1" xlink:href="#morphshape2"/>
    <use data-characterId="3191" height="35.65" transform="matrix(1.0, 0.0, 0.0, 1.0, 32.35, 6.65)" width="66.65" xlink:href="#morphshape3"/>
  </g>
  <defs>
    <g id="morphshape0" transform="matrix(1.0, 0.0, 0.0, 1.0, -4.35, -2.9)">
      <path d="M4.8 16.65 Q4.0 18.25 13.55 19.75 23.1 21.2 34.5 21.85 46.25 22.5 28.6 23.4 10.9 24.2 23.35 26.0 35.9 27.75 27.85 28.4 19.75 28.95 14.15 30.75 8.6 32.55 13.55 32.95 18.45 33.35 20.0 33.85 21.65 34.35 23.75 34.55 L36.7 35.15 Q29.85 36.65 30.0 37.3 15.9 40.75 36.05 40.25 39.95 40.45 54.1 38.5 42.9 41.85 43.25 42.9 43.65 43.95 51.75 44.45 61.25 44.8 70.8 45.3 81.9 45.7 73.05 48.0 64.1 50.3 66.5 50.2 71.2 50.15 75.7 50.2 L92.25 49.8 Q101.85 49.4 104.75 48.2 107.95 47.0 106.05 46.0 104.0 45.05 107.5 42.15 109.35 40.95 99.6 38.55 122.5 38.2 125.55 36.25 128.9 34.45 122.5 34.05 119.85 33.7 116.55 33.4 126.1 31.8 126.65 30.95 127.25 30.05 122.9 29.15 118.6 28.25 112.4 28.0 106.2 27.75 121.2 26.65 136.25 25.55 142.05 23.65 147.8 21.75 138.8 20.1 130.15 18.45 124.75 18.5 L122.55 18.6 122.35 18.6 Q122.35 18.3 121.8 18.0 135.45 16.5 129.5 15.25 123.75 13.95 116.1 13.75 116.2 13.4 115.55 13.2 106.8 8.8 99.85 5.9 93.35 3.0 67.45 3.25 48.3 3.45 25.75 7.15 3.1 10.65 6.55 11.8 10.0 12.9 26.15 13.85 42.3 14.75 35.3 14.95 28.2 15.05 21.2 15.15 L13.2 15.4 4.9 16.35 Q4.8 16.45 4.85 16.55" fill="#96e0bc" fill-opacity="0.7058824" fill-rule="evenodd" stroke="none"/>
      <path d="M4.85 16.55 Q4.8 16.45 4.9 16.35 L13.2 15.4 21.2 15.15 Q28.2 15.05 35.3 14.95 42.3 14.75 26.15 13.85 10.0 12.9 6.55 11.8 3.1 10.65 25.75 7.15 48.3 3.45 67.45 3.25 93.35 3.0 99.85 5.9 106.8 8.8 115.55 13.2 116.2 13.4 116.1 13.75 123.75 13.95 129.5 15.25 135.45 16.5 121.8 18.0 122.35 18.3 122.35 18.6 L122.55 18.6 124.75 18.5 Q130.15 18.45 138.8 20.1 147.8 21.75 142.05 23.65 136.25 25.55 121.2 26.65 106.2 27.75 112.4 28.0 118.6 28.25 122.9 29.15 127.25 30.05 126.65 30.95 126.1 31.8 116.55 33.4 119.85 33.7 122.5 34.05 128.9 34.45 125.55 36.25 122.5 38.2 99.6 38.55 109.35 40.95 107.5 42.15 104.0 45.05 106.05 46.0 107.95 47.0 104.75 48.2 101.85 49.4 92.25 49.8 L75.7 50.2 Q71.2 50.15 66.5 50.2 64.1 50.3 73.05 48.0 81.9 45.7 70.8 45.3 61.25 44.8 51.75 44.45 43.65 43.95 43.25 42.9 42.9 41.85 54.1 38.5 39.95 40.45 36.05 40.25 15.9 40.75 30.0 37.3 29.85 36.65 36.7 35.15 L23.75 34.55 Q21.65 34.35 20.0 33.85 18.45 33.35 13.55 32.95 8.6 32.55 14.15 30.75 19.75 28.95 27.85 28.4 35.9 27.75 23.35 26.0 10.9 24.2 28.6 23.4 46.25 22.5 34.5 21.85 23.1 21.2 13.55 19.75 4.0 18.25 4.8 16.65" fill="none" stroke="#000000" stroke-linecap="round" stroke-linejoin="round" stroke-opacity="0.0" stroke-width="1.0"/>
    </g>
    <g id="morphshape1" transform="matrix(1.0, 0.0, 0.0, 1.0, -17.5, -9.15)">
      <path d="M128.4 21.8 Q128.4 22.55 128.85 23.25 129.6 24.3 132.45 24.05 L131.7 21.85 Q130.7 21.5 128.4 21.8 M102.8 33.65 Q102.8 34.0 103.9 34.8 L107.2 34.9 109.35 33.9 Q111.55 32.85 111.95 32.35 L110.45 31.15 106.25 30.75 Q102.8 30.95 102.8 33.65 M89.85 44.5 L90.35 45.4 Q91.75 45.6 93.15 45.8 L95.9 45.9 100.0 45.7 100.75 45.45 101.25 45.0 101.4 44.2 101.35 43.7 Q101.15 42.9 100.4 42.4 99.15 41.65 94.0 41.8 91.85 42.15 90.3 43.65 L89.75 44.45 M79.15 31.8 L79.15 31.9 79.4 32.45 Q79.9 32.95 81.0 33.4 L82.85 33.85 85.5 34.0 85.9 33.9 86.1 33.7 86.3 33.2 86.3 32.75 Q86.3 32.05 85.9 31.75 85.2 31.1 82.0 30.95 80.65 31.1 79.35 31.35 L79.25 31.9 M61.35 40.5 L61.9 41.4 68.25 41.8 Q72.3 41.8 75.15 39.55 75.15 37.65 69.1 37.5 62.85 37.4 61.35 40.5 M54.85 40.8 Q55.0 41.2 55.1 41.55 L58.15 41.55 Q58.6 41.3 58.85 39.7 L55.35 39.9 Q54.85 40.25 54.85 40.8 M49.0 34.1 L50.2 35.3 Q52.25 36.45 56.55 36.45 58.1 36.45 59.85 34.3 59.85 31.35 54.45 31.4 49.0 31.45 49.0 34.1 M31.7 30.15 Q31.9 30.7 34.75 31.7 38.3 32.0 41.9 32.1 L45.65 31.15 Q46.65 30.35 46.95 28.25 46.25 25.45 38.65 26.35 31.0 27.2 31.7 30.15 M22.3 11.0 Q22.3 11.45 22.75 12.15 L23.7 13.1 30.55 13.2 Q31.75 12.3 31.75 11.75 31.75 9.9 27.05 9.8 22.3 9.75 22.3 11.0" fill="#bef0d8" fill-opacity="0.7058824" fill-rule="evenodd" stroke="none"/>
      <path d="M22.3 11.0 Q22.3 9.75 27.05 9.8 31.75 9.9 31.75 11.75 31.75 12.3 30.55 13.2 L23.7 13.1 22.75 12.15 Q22.3 11.45 22.3 11.0 M31.7 30.15 Q31.0 27.2 38.65 26.35 46.25 25.45 46.95 28.25 46.65 30.35 45.65 31.15 L41.9 32.1 Q38.3 32.0 34.75 31.7 31.9 30.7 31.7 30.15 M49.0 34.1 Q49.0 31.45 54.45 31.4 59.85 31.35 59.85 34.3 58.1 36.45 56.55 36.45 52.25 36.45 50.2 35.3 L49.0 34.1 M54.85 40.8 Q54.85 40.25 55.35 39.9 L58.85 39.7 Q58.6 41.3 58.15 41.55 L55.1 41.55 Q55.0 41.2 54.85 40.8 M61.35 40.5 Q62.85 37.4 69.1 37.5 75.15 37.65 75.15 39.55 72.3 41.8 68.25 41.8 L61.9 41.4 61.35 40.5 M79.25 31.9 L79.35 31.35 Q80.65 31.1 82.0 30.95 85.2 31.1 85.9 31.75 86.3 32.05 86.3 32.75 L86.3 33.2 86.1 33.7 85.9 33.9 85.5 34.0 82.85 33.85 81.0 33.4 Q79.9 32.95 79.4 32.45 L79.15 31.9 79.15 31.8 M89.75 44.45 L90.3 43.65 Q91.85 42.15 94.0 41.8 99.15 41.65 100.4 42.4 101.15 42.9 101.35 43.7 L101.4 44.2 101.25 45.0 100.75 45.45 100.0 45.7 95.9 45.9 93.15 45.8 Q91.75 45.6 90.35 45.4 L89.85 44.5 M102.8 33.65 Q102.8 30.95 106.25 30.75 L110.45 31.15 111.95 32.35 Q111.55 32.85 109.35 33.9 L107.2 34.9 103.9 34.8 Q102.8 34.0 102.8 33.65 M128.4 21.8 Q130.7 21.5 131.7 21.85 L132.45 24.05 Q129.6 24.3 128.85 23.25 128.4 22.55 128.4 21.8 Z" fill="none" stroke="#000000" stroke-linecap="round" stroke-linejoin="round" stroke-opacity="0.0" stroke-width="1.0"/>
    </g>
    <g id="morphshape2" transform="matrix(1.0, 0.0, 0.0, 1.0, -37.6, -4.7)">
      <path d="M107.1 18.9 Q107.1 20.05 107.35 20.45 L108.15 21.0 Q111.15 20.2 111.95 19.75 112.65 19.25 111.6 16.2 109.2 16.4 108.15 17.05 107.1 17.65 107.1 18.9 M93.9 16.9 Q93.9 17.95 94.5 18.55 L97.55 18.75 Q98.0 17.75 97.75 15.65 L94.0 15.55 93.9 16.9 M92.7 9.15 Q92.7 10.2 93.1 11.1 L99.05 11.1 Q100.1 10.05 100.1 6.55 95.4 6.1 93.75 6.95 92.7 7.55 92.7 9.15 M84.4 16.45 Q84.45 17.4 85.2 19.25 85.85 19.7 87.4 19.85 L88.2 18.65 Q88.7 17.95 88.0 16.15 L84.4 16.45 M75.65 14.45 Q75.25 16.35 76.05 17.85 77.05 19.6 79.3 19.6 80.45 19.6 81.65 17.85 80.8 15.45 79.15 14.8 L75.65 14.45 M64.05 9.5 L64.1 10.95 64.45 11.5 69.9 12.25 73.2 12.65 Q74.95 12.65 73.85 10.2 73.85 7.15 68.95 7.0 64.05 6.9 64.05 9.5 M56.2 22.35 L56.3 23.55 56.65 23.95 Q57.15 24.0 57.65 24.0 58.85 24.0 60.1 24.0 L64.0 23.95 Q64.2 22.65 63.45 19.55 62.5 17.85 61.6 17.0 60.25 15.8 58.7 16.35 56.2 17.55 56.2 22.3 M52.3 8.8 L52.3 9.0 52.35 9.55 52.4 9.7 Q52.5 10.1 52.75 10.2 L54.05 10.55 Q55.4 9.95 55.8 9.85 56.05 8.7 56.15 7.45 55.8 6.5 55.5 5.65 54.65 5.55 53.85 5.6 52.35 6.5 52.35 8.8 M40.8 13.8 L41.9 15.9 Q43.6 18.05 46.6 18.05 50.5 18.05 50.5 14.85 50.5 11.85 45.65 11.05 40.8 10.2 40.8 13.8" fill="#bef0d8" fill-opacity="0.7058824" fill-rule="evenodd" stroke="none"/>
      <path d="M40.8 13.8 Q40.8 10.2 45.65 11.05 50.5 11.85 50.5 14.85 50.5 18.05 46.6 18.05 43.6 18.05 41.9 15.9 L40.8 13.8 M52.35 8.8 Q52.35 6.5 53.85 5.6 54.65 5.55 55.5 5.65 55.8 6.5 56.15 7.45 56.05 8.7 55.8 9.85 55.4 9.95 54.05 10.55 L52.75 10.2 Q52.5 10.1 52.4 9.7 L52.35 9.55 52.3 9.0 52.3 8.8 M56.2 22.3 Q56.2 17.55 58.7 16.35 60.25 15.8 61.6 17.0 62.5 17.85 63.45 19.55 64.2 22.65 64.0 23.95 L60.1 24.0 Q58.85 24.0 57.65 24.0 57.15 24.0 56.65 23.95 L56.3 23.55 56.2 22.35 M64.05 9.5 Q64.05 6.9 68.95 7.0 73.85 7.15 73.85 10.2 74.95 12.65 73.2 12.65 L69.9 12.25 64.45 11.5 64.1 10.95 64.05 9.5 M75.65 14.45 L79.15 14.8 Q80.8 15.45 81.65 17.85 80.45 19.6 79.3 19.6 77.05 19.6 76.05 17.85 75.25 16.35 75.65 14.45 M84.4 16.45 L88.0 16.15 Q88.7 17.95 88.2 18.65 L87.4 19.85 Q85.85 19.7 85.2 19.25 84.45 17.4 84.4 16.45 M92.7 9.15 Q92.7 7.55 93.75 6.95 95.4 6.1 100.1 6.55 100.1 10.05 99.05 11.1 L93.1 11.1 Q92.7 10.2 92.7 9.15 M93.9 16.9 L94.0 15.55 97.75 15.65 Q98.0 17.75 97.55 18.75 L94.5 18.55 Q93.9 17.95 93.9 16.9 M107.1 18.9 Q107.1 17.65 108.15 17.05 109.2 16.4 111.6 16.2 112.65 19.25 111.95 19.75 111.15 20.2 108.15 21.0 L107.35 20.45 Q107.1 20.05 107.1 18.9 Z" fill="none" stroke="#000000" stroke-linecap="round" stroke-linejoin="round" stroke-opacity="0.0" stroke-width="1.0"/>
    </g>
    <g id="morphshape3" transform="matrix(1.0, 0.0, 0.0, 1.0, -32.35, -6.65)">
      <path d="M95.65 8.15 Q95.65 9.3 95.8 9.7 L96.25 10.45 98.25 10.45 98.75 9.95 98.9 8.75 98.65 7.25 Q98.35 6.8 95.8 6.75 95.65 6.4 95.65 8.15 M68.55 9.35 Q68.3 9.7 68.85 10.6 69.15 11.05 70.0 11.35 L72.75 11.7 Q73.25 11.25 73.25 10.55 73.05 10.1 69.1 8.9 L68.55 9.35 M65.8 37.8 L66.1 39.75 Q66.3 40.8 66.75 41.65 L70.25 41.65 Q70.45 41.35 70.75 41.2 L70.35 38.1 66.8 37.55 Q66.0 37.5 65.8 37.8 M44.3 15.2 L44.5 16.55 44.85 17.05 46.4 17.1 Q47.45 17.1 48.05 16.65 48.25 16.5 48.25 14.75 48.25 13.6 47.9 13.05 L47.2 12.4 44.4 13.5 44.3 15.2 M37.15 29.2 L37.4 30.2 Q37.75 31.0 38.2 31.3 42.3 30.75 42.3 28.35 42.3 27.25 41.95 26.95 L41.1 26.6 39.35 26.85 37.5 27.0 37.15 29.2" fill="#ffffff" fill-opacity="0.7058824" fill-rule="evenodd" stroke="none"/>
      <path d="M37.15 29.2 L37.5 27.0 39.35 26.85 41.1 26.6 41.95 26.95 Q42.3 27.25 42.3 28.35 42.3 30.75 38.2 31.3 37.75 31.0 37.4 30.2 L37.15 29.2 M44.3 15.2 L44.4 13.5 47.2 12.4 47.9 13.05 Q48.25 13.6 48.25 14.75 48.25 16.5 48.05 16.65 47.45 17.1 46.4 17.1 L44.85 17.05 44.5 16.55 44.3 15.2 M65.8 37.8 Q66.0 37.5 66.8 37.55 L70.35 38.1 70.75 41.2 Q70.45 41.35 70.25 41.65 L66.75 41.65 Q66.3 40.8 66.1 39.75 L65.8 37.8 M68.55 9.35 L69.1 8.9 Q73.05 10.1 73.25 10.55 73.25 11.25 72.75 11.7 L70.0 11.35 Q69.15 11.05 68.85 10.6 68.3 9.7 68.55 9.35 M95.65 8.15 Q95.65 6.4 95.8 6.75 98.35 6.8 98.65 7.25 L98.9 8.75 98.75 9.95 98.25 10.45 96.25 10.45 95.8 9.7 Q95.65 9.3 95.65 8.15 Z" fill="none" stroke="#000000" stroke-linecap="round" stroke-linejoin="round" stroke-opacity="0.0" stroke-width="1.0"/>
    </g>
  </defs>
</svg>
