<?xml version="1.0" encoding="UTF-8" standalone="no"?>
<svg xmlns:xlink="http://www.w3.org/1999/xlink" height="47.45px" width="141.0px" xmlns="http://www.w3.org/2000/svg">
  <g transform="matrix(1.0, 0.0, 0.0, 1.0, -4.35, -2.9)">
    <use data-characterId="3188" height="47.45" transform="matrix(1.0, 0.0, 0.0, 1.0, 4.35, 2.9)" width="141.0" xlink:href="#morphshape0"/>
    <use data-characterId="3189" height="37.5" transform="matrix(1.0, 0.0, 0.0, 1.0, 17.5, 9.15)" width="116.05" xlink:href="#morphshape1"/>
    <use data-characterId="3190" height="21.8" transform="matrix(1.0, 0.0, 0.0, 1.0, 37.6, 4.7)" width="75.1" xlink:href="#morphshape2"/>
    <use data-characterId="3191" height="35.65" transform="matrix(1.0, 0.0, 0.0, 1.0, 32.35, 6.65)" width="66.65" xlink:href="#morphshape3"/>
  </g>
  <defs>
    <g id="morphshape0" transform="matrix(1.0, 0.0, 0.0, 1.0, -4.35, -2.9)">
      <path d="M4.65 19.5 Q5.25 20.95 8.15 21.7 11.15 22.2 14.25 22.6 21.65 23.55 21.45 25.95 20.6 26.6 19.45 27.95 19.1 28.65 18.4 29.65 17.7 30.4 17.75 31.35 18.15 33.15 19.8 33.85 21.0 34.35 23.05 34.5 27.1 34.7 29.45 35.75 L30.05 37.0 Q29.15 39.1 35.1 40.1 38.2 40.4 43.4 40.45 42.75 41.65 43.65 42.45 42.95 43.65 46.55 45.1 50.5 46.7 54.85 46.8 57.25 46.8 60.95 48.4 64.7 50.0 66.8 50.15 67.95 50.3 72.85 48.85 78.05 47.3 81.65 47.1 L89.55 46.15 Q93.3 45.75 96.55 45.3 103.85 45.45 107.2 42.55 108.5 41.3 109.35 39.7 115.2 38.95 116.0 37.8 121.0 35.2 116.95 33.8 116.85 33.6 116.15 33.5 125.6 31.95 126.15 31.15 127.45 30.2 124.95 29.25 123.45 28.65 121.65 28.1 120.85 27.85 126.35 26.8 131.8 25.75 134.05 23.55 136.3 21.35 134.05 20.0 131.65 18.55 125.7 18.5 124.05 18.45 122.65 18.5 L122.35 18.5 121.7 18.2 Q125.85 16.2 122.65 14.4 120.35 14.0 116.9 13.7 116.55 13.55 116.05 13.55 117.35 9.35 108.75 6.8 97.25 3.25 72.05 3.05 53.7 2.85 33.65 5.9 14.75 8.75 14.35 11.6 13.25 12.4 13.8 13.05 14.35 13.65 15.7 14.25 16.85 14.7 15.75 15.0 14.95 15.05 14.3 15.25 L5.4 16.25 4.85 16.3 Q4.0 17.8 4.75 19.35" fill="#96e0bc" fill-opacity="0.7058824" fill-rule="evenodd" stroke="none"/>
      <path d="M4.75 19.35 Q4.0 17.8 4.85 16.3 L5.4 16.25 14.3 15.25 Q14.95 15.05 15.75 15.0 16.85 14.7 15.7 14.25 14.35 13.65 13.8 13.05 13.25 12.4 14.35 11.6 14.75 8.75 33.65 5.9 53.7 2.85 72.05 3.05 97.25 3.25 108.75 6.8 117.35 9.35 116.05 13.55 116.55 13.55 116.9 13.7 120.35 14.0 122.65 14.4 125.85 16.2 121.7 18.2 L122.35 18.5 122.65 18.5 Q124.05 18.45 125.7 18.5 131.65 18.55 134.05 20.0 136.3 21.35 134.05 23.55 131.8 25.75 126.35 26.8 120.85 27.85 121.65 28.1 123.45 28.65 124.95 29.25 127.45 30.2 126.15 31.15 125.6 31.95 116.15 33.5 116.85 33.6 116.95 33.8 121.0 35.2 116.0 37.8 115.2 38.95 109.35 39.7 108.5 41.3 107.2 42.55 103.85 45.45 96.55 45.3 93.3 45.75 89.55 46.15 L81.65 47.1 Q78.05 47.3 72.85 48.85 67.95 50.3 66.8 50.15 64.7 50.0 60.95 48.4 57.25 46.8 54.85 46.8 50.5 46.7 46.55 45.1 42.95 43.65 43.65 42.45 42.75 41.65 43.4 40.45 38.2 40.4 35.1 40.1 29.15 39.1 30.05 37.0 L29.45 35.75 Q27.1 34.7 23.05 34.5 21.0 34.35 19.8 33.85 18.15 33.15 17.75 31.35 17.7 30.4 18.4 29.65 19.1 28.65 19.45 27.95 20.6 26.6 21.45 25.95 21.65 23.55 14.25 22.6 11.15 22.2 8.15 21.7 5.25 20.95 4.65 19.5" fill="none" stroke="#000000" stroke-linecap="round" stroke-linejoin="round" stroke-opacity="0.0" stroke-width="1.0"/>
    </g>
    <g id="morphshape1" transform="matrix(1.0, 0.0, 0.0, 1.0, -17.5, -9.15)">
      <path d="M115.35 23.55 Q115.35 24.3 115.8 25.0 116.55 26.05 119.4 25.8 L118.65 23.6 Q117.65 23.25 115.35 23.55 M99.65 28.8 Q99.65 29.15 100.75 29.95 L104.05 30.05 106.2 29.05 Q108.4 28.0 108.8 27.5 L107.3 26.3 103.1 25.9 Q99.65 26.1 99.65 28.8 M85.15 34.3 L85.35 34.9 Q85.8 35.4 86.85 35.85 L88.65 36.3 91.25 36.45 91.65 36.35 91.85 36.15 92.05 35.7 92.05 35.25 Q92.05 34.55 91.65 34.25 90.95 33.6 87.75 33.4 86.4 33.55 85.15 33.8 L85.05 34.3 M75.25 41.75 L75.25 41.75 75.8 42.65 Q77.25 42.85 78.7 43.05 L81.5 43.15 85.65 42.95 86.4 42.7 86.9 42.25 87.05 41.4 87.0 40.9 Q86.8 40.1 86.05 39.6 84.8 38.85 79.65 39.05 77.5 39.4 75.9 40.9 L75.35 41.75 M62.45 32.2 L63.0 33.1 69.35 33.5 Q73.4 33.5 76.25 31.25 76.25 29.35 70.2 29.2 63.95 29.1 62.45 32.2 M61.4 42.2 Q61.4 42.7 61.65 42.95 L64.7 42.95 Q65.15 42.7 65.4 41.1 L61.9 41.3 Q61.4 41.65 61.4 42.2 M49.0 36.85 L50.2 38.05 Q52.25 39.2 56.55 39.2 58.1 39.2 59.85 37.05 59.85 34.1 54.45 34.15 49.0 34.2 49.0 36.85 M26.8 28.4 Q26.8 29.0 29.35 30.6 32.55 32.65 36.2 32.55 L40.1 32.5 Q41.3 32.0 42.0 30.05 41.95 27.15 34.35 26.25 26.7 25.35 26.75 28.4 M17.8 18.8 Q17.8 19.25 18.25 19.95 L19.2 20.9 26.05 21.0 Q27.25 20.1 27.25 19.55 27.25 17.7 22.55 17.6 17.8 17.55 17.8 18.8" fill="#bef0d8" fill-opacity="0.7058824" fill-rule="evenodd" stroke="none"/>
      <path d="M17.8 18.8 Q17.8 17.55 22.55 17.6 27.25 17.7 27.25 19.55 27.25 20.1 26.05 21.0 L19.2 20.9 18.25 19.95 Q17.8 19.25 17.8 18.8 M26.75 28.4 Q26.7 25.35 34.35 26.25 41.95 27.15 42.0 30.05 41.3 32.0 40.1 32.5 L36.2 32.55 Q32.55 32.65 29.35 30.6 26.8 29.0 26.8 28.4 M49.0 36.85 Q49.0 34.2 54.45 34.15 59.85 34.1 59.85 37.05 58.1 39.2 56.55 39.2 52.25 39.2 50.2 38.05 L49.0 36.85 M61.4 42.2 Q61.4 41.65 61.9 41.3 L65.4 41.1 Q65.15 42.7 64.7 42.95 L61.65 42.95 Q61.4 42.7 61.4 42.2 M62.45 32.2 Q63.95 29.1 70.2 29.2 76.25 29.35 76.25 31.25 73.4 33.5 69.35 33.5 L63.0 33.1 62.45 32.2 M75.35 41.75 L75.9 40.9 Q77.5 39.4 79.65 39.05 84.8 38.85 86.05 39.6 86.8 40.1 87.0 40.9 L87.05 41.4 86.9 42.25 86.4 42.7 85.65 42.95 81.5 43.15 78.7 43.05 Q77.25 42.85 75.8 42.65 L75.25 41.75 75.25 41.75 M85.05 34.3 L85.15 33.8 Q86.4 33.55 87.75 33.4 90.95 33.6 91.65 34.25 92.05 34.55 92.05 35.25 L92.05 35.7 91.85 36.15 91.65 36.35 91.25 36.45 88.65 36.3 86.85 35.85 Q85.8 35.4 85.35 34.9 L85.15 34.3 M99.65 28.8 Q99.65 26.1 103.1 25.9 L107.3 26.3 108.8 27.5 Q108.4 28.0 106.2 29.05 L104.05 30.05 100.75 29.95 Q99.65 29.15 99.65 28.8 M115.35 23.55 Q117.65 23.25 118.65 23.6 L119.4 25.8 Q116.55 26.05 115.8 25.0 115.35 24.3 115.35 23.55 Z" fill="none" stroke="#000000" stroke-linecap="round" stroke-linejoin="round" stroke-opacity="0.0" stroke-width="1.0"/>
    </g>
    <g id="morphshape2" transform="matrix(1.0, 0.0, 0.0, 1.0, -37.6, -4.7)">
      <path d="M101.55 14.8 Q101.55 15.95 101.8 16.35 L102.6 16.9 Q104.55 16.25 106.4 15.65 107.1 15.15 106.05 12.1 103.65 12.3 102.6 12.95 101.55 13.55 101.55 14.8 M89.8 21.95 Q89.8 23.0 90.4 23.6 L93.45 23.8 Q93.9 22.8 93.65 20.7 L89.9 20.6 89.8 21.95 M88.15 11.85 Q88.15 12.9 88.55 13.8 L94.5 13.8 Q95.55 12.75 95.55 9.25 90.85 8.8 89.2 9.65 88.15 10.25 88.15 11.85 M79.9 22.7 Q79.95 23.65 80.7 25.5 81.35 25.95 82.9 26.1 L83.7 24.9 Q84.2 24.2 83.5 22.4 L79.9 22.7 M78.55 6.7 Q78.15 8.6 78.95 10.1 79.95 11.85 82.2 11.85 83.35 11.85 84.55 10.1 83.7 7.7 82.05 7.05 L78.55 6.7 M66.7 14.05 L66.75 15.5 67.1 16.05 72.55 16.8 75.85 17.2 Q77.6 17.2 76.5 14.75 76.5 11.7 71.6 11.55 66.7 11.45 66.7 14.05 M55.95 11.25 L56.0 12.0 56.0 12.1 Q56.1 12.5 56.3 12.6 56.6 12.8 57.55 13.0 L59.25 12.3 Q59.5 11.15 59.65 9.95 59.3 9.0 59.0 8.15 58.15 8.05 57.35 8.1 55.9 9.0 55.9 11.25 M48.25 22.25 L48.25 22.25 48.35 23.45 48.75 23.9 Q49.25 23.95 49.8 23.95 L52.2 23.95 Q54.2 23.9 56.15 23.9 56.35 22.6 55.55 19.45 54.6 17.75 53.7 16.9 52.35 15.7 50.8 16.25 48.25 17.45 48.25 22.25 M37.8 10.4 L38.9 12.5 Q40.6 14.65 43.6 14.65 47.5 14.65 47.5 11.45 47.5 8.45 42.65 7.65 37.8 6.8 37.8 10.4" fill="#bef0d8" fill-opacity="0.7058824" fill-rule="evenodd" stroke="none"/>
      <path d="M37.8 10.4 Q37.8 6.8 42.65 7.65 47.5 8.45 47.5 11.45 47.5 14.65 43.6 14.65 40.6 14.65 38.9 12.5 L37.8 10.4 M48.25 22.25 Q48.25 17.45 50.8 16.25 52.35 15.7 53.7 16.9 54.6 17.75 55.55 19.45 56.35 22.6 56.15 23.9 54.2 23.9 52.2 23.95 L49.8 23.95 Q49.25 23.95 48.75 23.9 L48.35 23.45 48.25 22.25 48.25 22.25 M55.9 11.25 Q55.9 9.0 57.35 8.1 58.15 8.05 59.0 8.15 59.3 9.0 59.65 9.95 59.5 11.15 59.25 12.3 L57.55 13.0 Q56.6 12.8 56.3 12.6 56.1 12.5 56.0 12.1 L56.0 12.0 55.95 11.25 M66.7 14.05 Q66.7 11.45 71.6 11.55 76.5 11.7 76.5 14.75 77.6 17.2 75.85 17.2 L72.55 16.8 67.1 16.05 66.75 15.5 66.7 14.05 M78.55 6.7 L82.05 7.05 Q83.7 7.7 84.55 10.1 83.35 11.85 82.2 11.85 79.95 11.85 78.95 10.1 78.15 8.6 78.55 6.7 M79.9 22.7 L83.5 22.4 Q84.2 24.2 83.7 24.9 L82.9 26.1 Q81.35 25.95 80.7 25.5 79.95 23.65 79.9 22.7 M88.15 11.85 Q88.15 10.25 89.2 9.65 90.85 8.8 95.55 9.25 95.55 12.75 94.5 13.8 L88.55 13.8 Q88.15 12.9 88.15 11.85 M89.8 21.95 L89.9 20.6 93.65 20.7 Q93.9 22.8 93.45 23.8 L90.4 23.6 Q89.8 23.0 89.8 21.95 M101.55 14.8 Q101.55 13.55 102.6 12.95 103.65 12.3 106.05 12.1 107.1 15.15 106.4 15.65 104.55 16.25 102.6 16.9 L101.8 16.35 Q101.55 15.95 101.55 14.8 Z" fill="none" stroke="#000000" stroke-linecap="round" stroke-linejoin="round" stroke-opacity="0.0" stroke-width="1.0"/>
    </g>
    <g id="morphshape3" transform="matrix(1.0, 0.0, 0.0, 1.0, -32.35, -6.65)">
      <path d="M94.5 8.85 Q94.5 10.0 94.65 10.4 L95.1 11.15 97.1 11.15 97.6 10.65 97.75 9.45 97.5 7.95 Q97.2 7.5 94.65 7.45 94.5 7.1 94.5 8.85 M69.55 13.55 Q69.3 13.9 69.85 14.8 70.45 15.2 71.0 15.55 L73.75 15.9 Q74.25 15.45 74.25 14.75 74.05 14.3 70.1 13.1 L69.55 13.55 M66.25 29.8 L66.55 31.75 Q66.75 32.8 67.2 33.65 L70.7 33.65 Q70.95 33.4 71.2 33.2 L70.8 30.1 67.25 29.55 Q66.45 29.5 66.25 29.8 M40.4 13.1 L40.6 14.45 40.95 14.95 42.5 15.0 Q43.55 15.0 44.15 14.55 44.35 14.4 44.35 12.65 44.35 11.5 44.0 10.95 L43.3 10.3 40.5 11.4 40.4 13.1 M32.65 29.2 L32.9 30.2 Q33.25 31.0 33.7 31.3 37.8 30.75 37.8 28.35 37.8 27.25 37.45 26.95 L36.6 26.6 34.85 26.85 33.0 27.0 32.65 29.2" fill="#ffffff" fill-opacity="0.7058824" fill-rule="evenodd" stroke="none"/>
      <path d="M32.65 29.2 L33.0 27.0 34.85 26.85 36.6 26.6 37.45 26.95 Q37.8 27.25 37.8 28.35 37.8 30.75 33.7 31.3 33.25 31.0 32.9 30.2 L32.65 29.2 M40.4 13.1 L40.5 11.4 43.3 10.3 44.0 10.95 Q44.35 11.5 44.35 12.65 44.35 14.4 44.15 14.55 43.55 15.0 42.5 15.0 L40.95 14.95 40.6 14.45 40.4 13.1 M66.25 29.8 Q66.45 29.5 67.25 29.55 L70.8 30.1 71.2 33.2 Q70.95 33.4 70.7 33.65 L67.2 33.65 Q66.75 32.8 66.55 31.75 L66.25 29.8 M69.55 13.55 L70.1 13.1 Q74.05 14.3 74.25 14.75 74.25 15.45 73.75 15.9 L71.0 15.55 Q70.45 15.2 69.85 14.8 69.3 13.9 69.55 13.55 M94.5 8.85 Q94.5 7.1 94.65 7.45 97.2 7.5 97.5 7.95 L97.75 9.45 97.6 10.65 97.1 11.15 95.1 11.15 94.65 10.4 Q94.5 10.0 94.5 8.85 Z" fill="none" stroke="#000000" stroke-linecap="round" stroke-linejoin="round" stroke-opacity="0.0" stroke-width="1.0"/>
    </g>
  </defs>
</svg>
