<?xml version="1.0" encoding="UTF-8" standalone="no"?>
<svg xmlns:xlink="http://www.w3.org/1999/xlink" height="47.45px" width="141.0px" xmlns="http://www.w3.org/2000/svg">
  <g transform="matrix(1.0, 0.0, 0.0, 1.0, -4.35, -2.9)">
    <use data-characterId="3188" height="47.45" transform="matrix(1.0, 0.0, 0.0, 1.0, 4.35, 2.9)" width="141.0" xlink:href="#morphshape0"/>
    <use data-characterId="3189" height="37.5" transform="matrix(1.0, 0.0, 0.0, 1.0, 17.5, 9.15)" width="116.05" xlink:href="#morphshape1"/>
    <use data-characterId="3190" height="21.8" transform="matrix(1.0, 0.0, 0.0, 1.0, 37.6, 4.7)" width="75.1" xlink:href="#morphshape2"/>
    <use data-characterId="3191" height="35.65" transform="matrix(1.0, 0.0, 0.0, 1.0, 32.35, 6.65)" width="66.65" xlink:href="#morphshape3"/>
  </g>
  <defs>
    <g id="morphshape0" transform="matrix(1.0, 0.0, 0.0, 1.0, -4.35, -2.9)">
      <path d="M5.0 18.4 Q5.2 19.9 10.1 20.85 15.05 21.65 20.65 22.15 29.35 23.0 23.9 24.95 18.0 25.65 20.95 27.15 24.45 28.2 21.55 29.05 18.65 29.75 17.0 30.95 15.6 32.75 18.25 33.35 20.55 33.8 22.45 34.1 25.75 34.4 28.0 35.2 L32.3 36.25 Q29.6 38.2 33.8 39.05 31.75 40.3 41.45 40.2 42.15 41.1 47.0 41.1 43.15 42.95 45.75 44.3 48.65 45.75 54.1 45.95 58.65 46.1 64.1 47.4 70.05 48.65 68.9 49.45 67.05 50.25 71.2 49.2 76.25 48.1 80.15 48.0 L90.6 47.2 Q96.1 46.8 99.25 46.15 105.35 45.9 107.1 43.6 107.35 42.45 108.95 40.45 113.6 39.55 111.25 38.05 121.6 36.15 119.7 34.6 120.65 33.9 118.25 33.7 124.05 32.5 123.45 31.85 127.25 30.7 125.65 29.8 124.75 29.1 122.2 28.4 120.35 27.95 122.35 27.15 124.35 26.35 130.4 24.45 136.5 22.55 136.65 21.05 136.7 19.45 129.85 18.9 126.1 18.35 123.5 18.4 L122.65 18.45 122.15 18.25 Q125.05 16.75 122.6 15.4 125.1 14.7 120.9 14.1 118.9 13.6 116.25 13.55 117.2 10.5 110.95 8.65 100.25 4.85 80.55 3.85 65.75 2.85 43.95 5.05 24.95 7.15 17.9 10.25 10.35 11.85 11.75 12.65 13.15 13.4 18.95 14.1 24.6 14.7 21.75 14.95 19.05 15.0 16.45 15.15 L7.8 15.95 4.9 16.3 Q4.25 17.4 4.8 18.5" fill="#96e0bc" fill-opacity="0.7058824" fill-rule="evenodd" stroke="none"/>
      <path d="M4.8 18.5 Q4.25 17.4 4.9 16.3 L7.8 15.95 16.45 15.15 Q19.05 15.0 21.75 14.95 24.6 14.7 18.95 14.1 13.15 13.4 11.75 12.65 10.35 11.85 17.9 10.25 24.95 7.15 43.95 5.05 65.75 2.85 80.55 3.85 100.25 4.85 110.95 8.65 117.2 10.5 116.25 13.55 118.9 13.6 120.9 14.1 125.1 14.7 122.6 15.4 125.05 16.75 122.15 18.25 L122.65 18.45 123.5 18.4 Q126.1 18.35 129.85 18.9 136.7 19.45 136.65 21.05 136.5 22.55 130.4 24.45 124.35 26.35 122.35 27.15 120.35 27.95 122.2 28.4 124.75 29.1 125.65 29.8 127.25 30.7 123.45 31.85 124.05 32.5 118.25 33.7 120.65 33.9 119.7 34.6 121.6 36.15 111.25 38.05 113.6 39.55 108.95 40.45 107.35 42.45 107.1 43.6 105.35 45.9 99.25 46.15 96.1 46.8 90.6 47.2 L80.15 48.0 Q76.25 48.1 71.2 49.2 67.05 50.25 68.9 49.45 70.05 48.65 64.1 47.4 58.65 46.1 54.1 45.95 48.65 45.75 45.75 44.3 43.15 42.95 47.0 41.1 42.15 41.1 41.45 40.2 31.75 40.3 33.8 39.05 29.6 38.2 32.3 36.25 L28.0 35.2 Q25.75 34.4 22.45 34.1 20.55 33.8 18.25 33.35 15.6 32.75 17.0 30.95 18.65 29.75 21.55 29.05 24.45 28.2 20.95 27.15 18.0 25.65 23.9 24.95 29.35 23.0 20.65 22.15 15.05 21.65 10.1 20.85 5.2 19.9 5.0 18.4" fill="none" stroke="#000000" stroke-linecap="round" stroke-linejoin="round" stroke-opacity="0.0" stroke-width="1.0"/>
    </g>
    <g id="morphshape1" transform="matrix(1.0, 0.0, 0.0, 1.0, -17.5, -9.15)">
      <path d="M119.3 23.0 Q119.3 23.75 119.75 24.45 120.5 25.5 123.35 25.25 L122.6 23.05 Q121.6 22.7 119.3 23.0 M100.6 30.25 Q100.6 30.6 101.7 31.4 L105.0 31.5 107.15 30.5 Q109.35 29.45 109.75 28.95 L108.25 27.75 104.05 27.35 Q100.6 27.55 100.6 30.25 M86.4 37.45 L86.7 38.15 Q87.45 38.55 88.65 38.9 L90.75 39.25 93.8 39.3 94.3 39.15 94.6 38.85 94.8 38.25 94.8 37.8 Q94.75 37.05 94.25 36.7 93.4 36.0 89.65 35.95 88.05 36.15 86.7 36.75 L86.45 37.35 M76.55 38.7 L76.55 38.75 77.0 39.5 Q78.15 39.8 79.45 40.1 L81.95 40.3 85.65 40.2 86.3 40.0 86.7 39.65 86.85 38.95 86.8 38.45 Q86.65 37.7 86.0 37.25 84.9 36.55 80.3 36.6 78.4 36.9 76.9 38.05 L76.5 38.8 M62.15 34.7 L62.7 35.6 69.05 36.0 Q73.1 36.0 75.95 33.75 75.95 31.85 69.9 31.7 63.65 31.6 62.15 34.7 M59.45 41.8 Q59.5 42.25 59.7 42.55 L62.75 42.55 Q63.2 42.3 63.45 40.7 L59.95 40.9 Q59.45 41.25 59.45 41.8 M49.0 36.05 L50.2 37.25 Q52.25 38.4 56.55 38.4 58.1 38.4 59.85 36.25 59.85 33.3 54.45 33.35 49.0 33.4 49.0 36.05 M28.15 28.9 Q28.2 29.5 30.85 30.95 34.2 32.45 37.85 32.4 L41.7 32.1 Q42.85 31.5 43.45 29.5 43.2 26.65 35.6 26.3 27.95 25.95 28.2 28.95 M19.15 16.45 Q19.15 16.9 19.6 17.6 L20.55 18.55 27.4 18.65 Q28.6 17.75 28.6 17.2 28.6 15.35 23.9 15.25 19.15 15.2 19.15 16.45" fill="#bef0d8" fill-opacity="0.7058824" fill-rule="evenodd" stroke="none"/>
      <path d="M19.15 16.45 Q19.15 15.2 23.9 15.25 28.6 15.35 28.6 17.2 28.6 17.75 27.4 18.65 L20.55 18.55 19.6 17.6 Q19.15 16.9 19.15 16.45 M28.2 28.95 Q27.95 25.95 35.6 26.3 43.2 26.65 43.45 29.5 42.85 31.5 41.7 32.1 L37.85 32.4 Q34.2 32.45 30.85 30.95 28.2 29.5 28.15 28.9 M49.0 36.05 Q49.0 33.4 54.45 33.35 59.85 33.3 59.85 36.25 58.1 38.4 56.55 38.4 52.25 38.4 50.2 37.25 L49.0 36.05 M59.45 41.8 Q59.45 41.25 59.95 40.9 L63.45 40.7 Q63.2 42.3 62.75 42.55 L59.7 42.55 Q59.5 42.25 59.45 41.8 M62.15 34.7 Q63.65 31.6 69.9 31.7 75.95 31.85 75.95 33.75 73.1 36.0 69.05 36.0 L62.7 35.6 62.15 34.7 M76.5 38.8 L76.9 38.05 Q78.4 36.9 80.3 36.6 84.9 36.55 86.0 37.25 86.65 37.7 86.8 38.45 L86.85 38.95 86.7 39.65 86.3 40.0 85.65 40.2 81.95 40.3 79.45 40.1 Q78.15 39.8 77.0 39.5 L76.55 38.75 76.55 38.7 M86.45 37.35 L86.7 36.75 Q88.05 36.15 89.65 35.95 93.4 36.0 94.25 36.7 94.75 37.05 94.8 37.8 L94.8 38.25 94.6 38.85 94.3 39.15 93.8 39.3 90.75 39.25 88.65 38.9 Q87.45 38.55 86.7 38.15 L86.4 37.45 M100.6 30.25 Q100.6 27.55 104.05 27.35 L108.25 27.75 109.75 28.95 Q109.35 29.45 107.15 30.5 L105.0 31.5 101.7 31.4 Q100.6 30.6 100.6 30.25 M119.3 23.0 Q121.6 22.7 122.6 23.05 L123.35 25.25 Q120.5 25.5 119.75 24.45 119.3 23.75 119.3 23.0 Z" fill="none" stroke="#000000" stroke-linecap="round" stroke-linejoin="round" stroke-opacity="0.0" stroke-width="1.0"/>
    </g>
    <g id="morphshape2" transform="matrix(1.0, 0.0, 0.0, 1.0, -37.6, -4.7)">
      <path d="M103.2 16.0 Q103.2 17.15 103.45 17.55 L104.25 18.1 Q106.55 17.4 108.05 16.85 108.75 16.35 107.7 13.3 105.3 13.5 104.25 14.15 103.2 14.75 103.2 16.0 M91.0 20.45 Q91.0 21.5 91.6 22.1 L94.65 22.3 Q95.1 21.3 94.85 19.2 L91.1 19.1 91.0 20.45 M89.5 11.05 Q89.5 12.1 89.9 13.0 L95.85 13.0 Q96.9 11.95 96.9 8.45 92.2 8.0 90.55 8.85 89.5 9.45 89.5 11.05 M81.25 20.8 Q81.3 21.75 82.05 23.6 82.7 24.05 84.25 24.2 L85.05 23.0 Q85.55 22.3 84.85 20.5 L81.25 20.8 M77.7 9.05 Q77.3 10.95 78.1 12.45 79.1 14.2 81.35 14.2 82.5 14.2 83.7 12.45 82.85 10.05 81.2 9.4 L77.7 9.05 M65.9 12.7 L65.95 14.15 66.3 14.7 71.75 15.45 75.05 15.85 Q76.8 15.85 75.7 13.4 75.7 10.35 70.8 10.2 65.9 10.1 65.9 12.7 M56.0 14.5 L56.05 15.4 56.2 15.6 Q56.4 15.9 56.7 15.95 57.25 16.1 58.3 16.25 L60.65 15.75 Q60.9 14.55 60.75 12.75 60.25 11.6 59.8 10.75 58.8 10.35 57.8 10.55 56.0 11.55 56.0 14.55 M49.45 18.2 L49.45 18.25 49.55 19.25 49.8 19.6 Q50.2 19.75 50.65 19.8 L52.75 19.95 Q54.55 19.75 56.05 19.7 56.25 18.45 55.75 15.9 54.95 14.4 54.2 13.55 53.0 12.65 51.65 13.05 49.45 14.15 49.45 18.2 M38.7 11.4 L39.8 13.5 Q41.5 15.65 44.5 15.65 48.4 15.65 48.4 12.45 48.4 9.45 43.55 8.65 38.7 7.8 38.7 11.4" fill="#bef0d8" fill-opacity="0.7058824" fill-rule="evenodd" stroke="none"/>
      <path d="M38.7 11.4 Q38.7 7.8 43.55 8.65 48.4 9.45 48.4 12.45 48.4 15.65 44.5 15.65 41.5 15.65 39.8 13.5 L38.7 11.4 M49.45 18.2 Q49.45 14.15 51.65 13.05 53.0 12.65 54.2 13.55 54.95 14.4 55.75 15.9 56.25 18.45 56.05 19.7 54.55 19.75 52.75 19.95 L50.65 19.8 Q50.2 19.75 49.8 19.6 L49.55 19.25 49.45 18.25 49.45 18.2 M56.0 14.55 Q56.0 11.55 57.8 10.55 58.8 10.35 59.8 10.75 60.25 11.6 60.75 12.75 60.9 14.55 60.65 15.75 L58.3 16.25 Q57.25 16.1 56.7 15.95 56.4 15.9 56.2 15.6 L56.05 15.4 56.0 14.5 M65.9 12.7 Q65.9 10.1 70.8 10.2 75.7 10.35 75.7 13.4 76.8 15.85 75.05 15.85 L71.75 15.45 66.3 14.7 65.95 14.15 65.9 12.7 M77.7 9.05 L81.2 9.4 Q82.85 10.05 83.7 12.45 82.5 14.2 81.35 14.2 79.1 14.2 78.1 12.45 77.3 10.95 77.7 9.05 M81.25 20.8 L84.85 20.5 Q85.55 22.3 85.05 23.0 L84.25 24.2 Q82.7 24.05 82.05 23.6 81.3 21.75 81.25 20.8 M89.5 11.05 Q89.5 9.45 90.55 8.85 92.2 8.0 96.9 8.45 96.9 11.95 95.85 13.0 L89.9 13.0 Q89.5 12.1 89.5 11.05 M91.0 20.45 L91.1 19.1 94.85 19.2 Q95.1 21.3 94.65 22.3 L91.6 22.1 Q91.0 21.5 91.0 20.45 M103.2 16.0 Q103.2 14.75 104.25 14.15 105.3 13.5 107.7 13.3 108.75 16.35 108.05 16.85 106.55 17.4 104.25 18.1 L103.45 17.55 Q103.2 17.15 103.2 16.0 Z" fill="none" stroke="#000000" stroke-linecap="round" stroke-linejoin="round" stroke-opacity="0.0" stroke-width="1.0"/>
    </g>
    <g id="morphshape3" transform="matrix(1.0, 0.0, 0.0, 1.0, -32.35, -6.65)">
      <path d="M94.85 8.65 Q94.85 9.8 95.0 10.2 L95.45 10.95 97.45 10.95 97.95 10.45 98.1 9.25 97.85 7.75 Q97.55 7.3 95.0 7.25 94.85 6.9 94.85 8.65 M69.25 12.3 Q69.0 12.65 69.55 13.55 70.05 13.95 70.7 14.3 L73.45 14.65 Q73.95 14.2 73.95 13.5 73.75 13.05 69.8 11.85 L69.25 12.3 M66.1 32.2 L66.4 34.15 Q66.6 35.2 67.05 36.05 L70.55 36.05 Q70.8 35.8 71.05 35.6 L70.65 32.5 67.1 31.95 Q66.3 31.9 66.1 32.2 M41.6 13.7 L41.8 15.05 42.15 15.55 43.7 15.6 Q44.75 15.6 45.35 15.15 45.55 15.0 45.55 13.25 45.55 12.1 45.2 11.55 L44.5 10.9 41.7 12.0 41.6 13.7 M34.0 29.2 L34.25 30.2 Q34.6 31.0 35.05 31.3 39.15 30.75 39.15 28.35 39.15 27.25 38.8 26.95 L37.95 26.6 36.2 26.85 34.35 27.0 34.0 29.2" fill="#ffffff" fill-opacity="0.7058824" fill-rule="evenodd" stroke="none"/>
      <path d="M34.0 29.2 L34.35 27.0 36.2 26.85 37.95 26.6 38.8 26.95 Q39.15 27.25 39.15 28.35 39.15 30.75 35.05 31.3 34.6 31.0 34.25 30.2 L34.0 29.2 M41.6 13.7 L41.7 12.0 44.5 10.9 45.2 11.55 Q45.55 12.1 45.55 13.25 45.55 15.0 45.35 15.15 44.75 15.6 43.7 15.6 L42.15 15.55 41.8 15.05 41.6 13.7 M66.1 32.2 Q66.3 31.9 67.1 31.95 L70.65 32.5 71.05 35.6 Q70.8 35.8 70.55 36.05 L67.05 36.05 Q66.6 35.2 66.4 34.15 L66.1 32.2 M69.25 12.3 L69.8 11.85 Q73.75 13.05 73.95 13.5 73.95 14.2 73.45 14.65 L70.7 14.3 Q70.05 13.95 69.55 13.55 69.0 12.65 69.25 12.3 M94.85 8.65 Q94.85 6.9 95.0 7.25 97.55 7.3 97.85 7.75 L98.1 9.25 97.95 10.45 97.45 10.95 95.45 10.95 95.0 10.2 Q94.85 9.8 94.85 8.65 Z" fill="none" stroke="#000000" stroke-linecap="round" stroke-linejoin="round" stroke-opacity="0.0" stroke-width="1.0"/>
    </g>
  </defs>
</svg>
