<?xml version="1.0" encoding="UTF-8" standalone="no"?>
<svg xmlns:xlink="http://www.w3.org/1999/xlink" height="47.45px" width="141.0px" xmlns="http://www.w3.org/2000/svg">
  <g transform="matrix(1.0, 0.0, 0.0, 1.0, -4.35, -2.9)">
    <use data-characterId="3188" height="47.45" transform="matrix(1.0, 0.0, 0.0, 1.0, 4.35, 2.9)" width="141.0" xlink:href="#morphshape0"/>
    <use data-characterId="3189" height="37.5" transform="matrix(1.0, 0.0, 0.0, 1.0, 17.5, 9.15)" width="116.05" xlink:href="#morphshape1"/>
    <use data-characterId="3190" height="21.8" transform="matrix(1.0, 0.0, 0.0, 1.0, 37.6, 4.7)" width="75.1" xlink:href="#morphshape2"/>
    <use data-characterId="3191" height="35.65" transform="matrix(1.0, 0.0, 0.0, 1.0, 32.35, 6.65)" width="66.65" xlink:href="#morphshape3"/>
  </g>
  <defs>
    <g id="morphshape0" transform="matrix(1.0, 0.0, 0.0, 1.0, -4.35, -2.9)">
      <path d="M4.95 18.9 Q5.35 20.4 9.15 21.25 13.0 21.9 17.2 22.35 25.15 23.25 22.6 25.45 19.5 26.15 20.15 27.55 21.5 28.4 19.85 29.35 18.15 30.05 17.45 31.1 17.05 32.9 19.15 33.55 20.85 34.05 22.85 34.25 26.55 34.5 28.85 35.45 L31.1 36.6 Q29.4 38.65 34.6 39.6 35.4 40.35 42.6 40.35 42.55 41.4 45.2 41.85 43.1 43.35 46.25 44.75 49.75 46.3 54.6 46.45 57.95 46.5 62.4 47.95 67.1 49.4 67.75 49.85 67.55 50.3 72.1 49.0 77.25 47.65 81.0 47.5 L90.05 46.6 Q94.55 46.2 97.75 45.65 104.5 45.65 107.15 43.0 108.0 41.8 109.2 40.05 114.5 39.25 113.9 37.95 121.3 35.65 118.2 34.2 118.55 33.8 117.1 33.65 124.95 32.25 125.0 31.5 127.4 30.45 125.3 29.5 124.05 28.85 121.9 28.25 120.65 27.9 124.6 26.95 128.5 26.0 132.45 23.95 136.4 21.9 135.2 20.5 133.9 19.0 127.55 18.75 124.95 18.5 123.0 18.55 L122.45 18.55 121.85 18.3 Q125.45 16.55 122.6 14.95 122.45 14.4 118.65 13.95 117.55 13.65 116.1 13.6 117.25 9.9 109.7 7.65 98.55 4.0 75.8 3.45 59.0 2.9 38.2 5.6 19.25 8.1 15.9 11.05 11.95 12.2 12.9 12.9 13.85 13.55 17.15 14.2 20.3 14.7 18.4 15.0 16.75 15.05 15.25 15.25 L6.45 16.15 4.85 16.35 Q4.1 17.65 4.75 19.0" fill="#96e0bc" fill-opacity="0.7058824" fill-rule="evenodd" stroke="none"/>
      <path d="M4.75 19.0 Q4.1 17.65 4.85 16.35 L6.45 16.15 15.25 15.25 Q16.75 15.05 18.4 15.0 20.3 14.7 17.15 14.2 13.85 13.55 12.9 12.9 11.95 12.2 15.9 11.05 19.25 8.1 38.2 5.6 59.0 2.9 75.8 3.45 98.55 4.0 109.7 7.65 117.25 9.9 116.1 13.6 117.55 13.65 118.65 13.95 122.45 14.4 122.6 14.95 125.45 16.55 121.85 18.3 L122.45 18.55 123.0 18.55 Q124.95 18.5 127.55 18.75 133.9 19.0 135.2 20.5 136.4 21.9 132.45 23.95 128.5 26.0 124.6 26.95 120.65 27.9 121.9 28.25 124.05 28.85 125.3 29.5 127.4 30.45 125.0 31.5 124.95 32.25 117.1 33.65 118.55 33.8 118.2 34.2 121.3 35.65 113.9 37.95 114.5 39.25 109.2 40.05 108.0 41.8 107.15 43.0 104.5 45.65 97.75 45.65 94.55 46.2 90.05 46.6 L81.0 47.5 Q77.25 47.65 72.1 49.0 67.55 50.3 67.75 49.85 67.1 49.4 62.4 47.95 57.95 46.5 54.6 46.45 49.75 46.3 46.25 44.75 43.1 43.35 45.2 41.85 42.55 41.4 42.6 40.35 35.4 40.35 34.6 39.6 29.4 38.65 31.1 36.6 L28.85 35.45 Q26.55 34.5 22.85 34.25 20.85 34.05 19.15 33.55 17.05 32.9 17.45 31.1 18.15 30.05 19.85 29.35 21.5 28.4 20.15 27.55 19.5 26.15 22.6 25.45 25.15 23.25 17.2 22.35 13.0 21.9 9.15 21.25 5.35 20.4 4.95 18.9" fill="none" stroke="#000000" stroke-linecap="round" stroke-linejoin="round" stroke-opacity="0.0" stroke-width="1.0"/>
    </g>
    <g id="morphshape1" transform="matrix(1.0, 0.0, 0.0, 1.0, -17.5, -9.15)">
      <path d="M117.1 23.3 Q117.1 24.05 117.55 24.75 118.3 25.8 121.15 25.55 L120.4 23.35 Q119.4 23.0 117.1 23.3 M100.1 29.45 Q100.1 29.8 101.2 30.6 L104.5 30.7 106.65 29.7 Q108.85 28.65 109.25 28.15 L107.75 26.95 103.55 26.55 Q100.1 26.75 100.1 29.45 M85.7 35.7 L85.95 36.35 Q86.55 36.8 87.65 37.2 L89.6 37.6 92.4 37.7 92.85 37.55 93.1 37.3 93.3 36.8 93.3 36.35 Q93.25 35.65 92.8 35.3 92.05 34.65 88.6 34.5 87.15 34.7 85.85 35.1 L85.7 35.65 M75.85 40.4 L75.85 40.4 76.35 41.25 Q77.65 41.5 79.05 41.75 L81.7 41.9 85.65 41.75 86.35 41.55 86.8 41.15 86.95 40.35 86.9 39.85 Q86.75 39.05 86.05 38.6 84.85 37.85 79.95 38.0 77.9 38.3 76.35 39.65 L75.85 40.45 M62.3 33.3 L62.85 34.2 69.2 34.6 Q73.25 34.6 76.1 32.35 76.1 30.45 70.05 30.3 63.8 30.2 62.3 33.3 M60.55 42.0 Q60.6 42.5 60.8 42.75 L63.85 42.75 Q64.3 42.5 64.55 40.9 L61.05 41.1 Q60.55 41.45 60.55 42.0 M49.0 36.5 L50.2 37.7 Q52.25 38.85 56.55 38.85 58.1 38.85 59.85 36.7 59.85 33.75 54.45 33.8 49.0 33.85 49.0 36.5 M27.45 28.6 Q27.5 29.2 30.1 30.75 33.35 32.55 37.0 32.5 L40.85 32.35 Q42.0 31.8 42.65 29.8 42.5 26.9 34.9 26.25 27.25 25.6 27.4 28.65 M18.4 17.75 Q18.4 18.2 18.85 18.9 L19.8 19.85 26.65 19.95 Q27.85 19.05 27.85 18.5 27.85 16.65 23.15 16.55 18.4 16.5 18.4 17.75" fill="#bef0d8" fill-opacity="0.7058824" fill-rule="evenodd" stroke="none"/>
      <path d="M18.4 17.75 Q18.4 16.5 23.15 16.55 27.85 16.65 27.85 18.5 27.85 19.05 26.65 19.95 L19.8 19.85 18.85 18.9 Q18.4 18.2 18.4 17.75 M27.4 28.65 Q27.25 25.6 34.9 26.25 42.5 26.9 42.65 29.8 42.0 31.8 40.85 32.35 L37.0 32.5 Q33.35 32.55 30.1 30.75 27.5 29.2 27.45 28.6 M49.0 36.5 Q49.0 33.85 54.45 33.8 59.85 33.75 59.85 36.7 58.1 38.85 56.55 38.85 52.25 38.85 50.2 37.7 L49.0 36.5 M60.55 42.0 Q60.55 41.45 61.05 41.1 L64.55 40.9 Q64.3 42.5 63.85 42.75 L60.8 42.75 Q60.6 42.5 60.55 42.0 M62.3 33.3 Q63.8 30.2 70.05 30.3 76.1 30.45 76.1 32.35 73.25 34.6 69.2 34.6 L62.85 34.2 62.3 33.3 M75.85 40.45 L76.35 39.65 Q77.9 38.3 79.95 38.0 84.85 37.85 86.05 38.6 86.75 39.05 86.9 39.85 L86.95 40.35 86.8 41.15 86.35 41.55 85.65 41.75 81.7 41.9 79.05 41.75 Q77.65 41.5 76.35 41.25 L75.85 40.4 75.85 40.4 M85.7 35.65 L85.85 35.1 Q87.15 34.7 88.6 34.5 92.05 34.65 92.8 35.3 93.25 35.65 93.3 36.35 L93.3 36.8 93.1 37.3 92.85 37.55 92.4 37.7 89.6 37.6 87.65 37.2 Q86.55 36.8 85.95 36.35 L85.7 35.7 M100.1 29.45 Q100.1 26.75 103.55 26.55 L107.75 26.95 109.25 28.15 Q108.85 28.65 106.65 29.7 L104.5 30.7 101.2 30.6 Q100.1 29.8 100.1 29.45 M117.1 23.3 Q119.4 23.0 120.4 23.35 L121.15 25.55 Q118.3 25.8 117.55 24.75 117.1 24.05 117.1 23.3 Z" fill="none" stroke="#000000" stroke-linecap="round" stroke-linejoin="round" stroke-opacity="0.0" stroke-width="1.0"/>
    </g>
    <g id="morphshape2" transform="matrix(1.0, 0.0, 0.0, 1.0, -37.6, -4.7)">
      <path d="M102.3 15.35 Q102.3 16.5 102.55 16.9 L103.35 17.45 Q105.45 16.75 107.15 16.2 107.85 15.7 106.8 12.65 104.4 12.85 103.35 13.5 102.3 14.1 102.3 15.35 M90.35 21.3 Q90.35 22.35 90.95 22.95 L94.0 23.15 Q94.45 22.15 94.2 20.05 L90.45 19.95 90.35 21.3 M88.75 11.5 Q88.75 12.55 89.15 13.45 L95.1 13.45 Q96.15 12.4 96.15 8.9 91.45 8.45 89.8 9.3 88.75 9.9 88.75 11.5 M80.5 21.85 Q80.55 22.8 81.3 24.65 81.95 25.1 83.5 25.25 L84.3 24.05 Q84.8 23.35 84.1 21.55 L80.5 21.85 M78.15 7.75 Q77.75 9.65 78.55 11.15 79.55 12.9 81.8 12.9 82.95 12.9 84.15 11.15 83.3 8.75 81.65 8.1 L78.15 7.75 M66.35 13.45 L66.4 14.9 66.75 15.45 72.2 16.2 75.5 16.6 Q77.25 16.6 76.15 14.15 76.15 11.1 71.25 10.95 66.35 10.85 66.35 13.45 M55.95 12.75 L56.0 13.55 56.05 13.7 Q56.2 14.05 56.45 14.15 56.85 14.3 57.85 14.45 L59.85 13.85 Q60.1 12.65 60.1 11.2 59.7 10.15 59.35 9.3 58.45 9.05 57.55 9.15 55.95 10.1 55.95 12.7 M48.85 20.4 L48.85 20.45 48.95 21.55 49.3 21.95 Q49.75 22.05 50.25 22.05 L52.5 22.1 Q54.4 22.0 56.15 22.0 56.35 20.75 55.7 17.85 54.8 16.25 53.95 15.4 52.65 14.35 51.2 14.85 48.8 16.0 48.8 20.45 M38.2 10.85 L39.3 12.95 Q41.0 15.1 44.0 15.1 47.9 15.1 47.9 11.9 47.9 8.9 43.05 8.1 38.2 7.25 38.2 10.85" fill="#bef0d8" fill-opacity="0.7058824" fill-rule="evenodd" stroke="none"/>
      <path d="M38.2 10.85 Q38.2 7.25 43.05 8.1 47.9 8.9 47.9 11.9 47.9 15.1 44.0 15.1 41.0 15.1 39.3 12.95 L38.2 10.85 M48.8 20.45 Q48.8 16.0 51.2 14.85 52.65 14.35 53.95 15.4 54.8 16.25 55.7 17.85 56.35 20.75 56.15 22.0 54.4 22.0 52.5 22.1 L50.25 22.05 Q49.75 22.05 49.3 21.95 L48.95 21.55 48.85 20.45 48.85 20.4 M55.95 12.7 Q55.95 10.1 57.55 9.15 58.45 9.05 59.35 9.3 59.7 10.15 60.1 11.2 60.1 12.65 59.85 13.85 L57.85 14.45 Q56.85 14.3 56.45 14.15 56.2 14.05 56.05 13.7 L56.0 13.55 55.95 12.75 M66.35 13.45 Q66.35 10.85 71.25 10.95 76.15 11.1 76.15 14.15 77.25 16.6 75.5 16.6 L72.2 16.2 66.75 15.45 66.4 14.9 66.35 13.45 M78.15 7.75 L81.65 8.1 Q83.3 8.75 84.15 11.15 82.95 12.9 81.8 12.9 79.55 12.9 78.55 11.15 77.75 9.65 78.15 7.75 M80.5 21.85 L84.1 21.55 Q84.8 23.35 84.3 24.05 L83.5 25.25 Q81.95 25.1 81.3 24.65 80.55 22.8 80.5 21.85 M88.75 11.5 Q88.75 9.9 89.8 9.3 91.45 8.45 96.15 8.9 96.15 12.4 95.1 13.45 L89.15 13.45 Q88.75 12.55 88.75 11.5 M90.35 21.3 L90.45 19.95 94.2 20.05 Q94.45 22.15 94.0 23.15 L90.95 22.95 Q90.35 22.35 90.35 21.3 M102.3 15.35 Q102.3 14.1 103.35 13.5 104.4 12.85 106.8 12.65 107.85 15.7 107.15 16.2 105.45 16.75 103.35 17.45 L102.55 16.9 Q102.3 16.5 102.3 15.35 Z" fill="none" stroke="#000000" stroke-linecap="round" stroke-linejoin="round" stroke-opacity="0.0" stroke-width="1.0"/>
    </g>
    <g id="morphshape3" transform="matrix(1.0, 0.0, 0.0, 1.0, -32.35, -6.65)">
      <path d="M94.65 8.75 Q94.65 9.9 94.8 10.3 L95.25 11.05 97.25 11.05 97.75 10.55 97.9 9.35 97.65 7.85 Q97.35 7.4 94.8 7.35 94.65 7.0 94.65 8.75 M69.4 13.0 Q69.15 13.35 69.7 14.25 70.25 14.65 70.85 15.0 L73.6 15.35 Q74.1 14.9 74.1 14.2 73.9 13.75 69.95 12.55 L69.4 13.0 M66.2 30.85 L66.5 32.8 Q66.7 33.85 67.15 34.7 L70.65 34.7 Q70.9 34.45 71.15 34.25 L70.75 31.15 67.2 30.6 Q66.4 30.55 66.2 30.85 M40.95 13.35 L41.15 14.7 41.5 15.2 43.05 15.25 Q44.1 15.25 44.7 14.8 44.9 14.65 44.9 12.9 44.9 11.75 44.55 11.2 L43.85 10.55 41.05 11.65 40.95 13.35 M33.25 29.2 L33.5 30.2 Q33.85 31.0 34.3 31.3 38.4 30.75 38.4 28.35 38.4 27.25 38.05 26.95 L37.2 26.6 35.45 26.85 33.6 27.0 33.25 29.2" fill="#ffffff" fill-opacity="0.7058824" fill-rule="evenodd" stroke="none"/>
      <path d="M33.25 29.2 L33.6 27.0 35.45 26.85 37.2 26.6 38.05 26.95 Q38.4 27.25 38.4 28.35 38.4 30.75 34.3 31.3 33.85 31.0 33.5 30.2 L33.25 29.2 M40.95 13.35 L41.05 11.65 43.85 10.55 44.55 11.2 Q44.9 11.75 44.9 12.9 44.9 14.65 44.7 14.8 44.1 15.25 43.05 15.25 L41.5 15.2 41.15 14.7 40.95 13.35 M66.2 30.85 Q66.4 30.55 67.2 30.6 L70.75 31.15 71.15 34.25 Q70.9 34.45 70.65 34.7 L67.15 34.7 Q66.7 33.85 66.5 32.8 L66.2 30.85 M69.4 13.0 L69.95 12.55 Q73.9 13.75 74.1 14.2 74.1 14.9 73.6 15.35 L70.85 15.0 Q70.25 14.65 69.7 14.25 69.15 13.35 69.4 13.0 M94.65 8.75 Q94.65 7.0 94.8 7.35 97.35 7.4 97.65 7.85 L97.9 9.35 97.75 10.55 97.25 11.05 95.25 11.05 94.8 10.3 Q94.65 9.9 94.65 8.75 Z" fill="none" stroke="#000000" stroke-linecap="round" stroke-linejoin="round" stroke-opacity="0.0" stroke-width="1.0"/>
    </g>
  </defs>
</svg>
