<?xml version="1.0" encoding="UTF-8" standalone="no"?>
<svg xmlns:xlink="http://www.w3.org/1999/xlink" height="47.45px" width="141.0px" xmlns="http://www.w3.org/2000/svg">
  <g transform="matrix(1.0, 0.0, 0.0, 1.0, -4.35, -2.9)">
    <use data-characterId="3192" height="47.45" transform="matrix(1.0, 0.0, 0.0, 1.0, 4.35, 2.9)" width="141.0" xlink:href="#morphshape0"/>
    <use data-characterId="3193" height="37.5" transform="matrix(1.0, 0.0, 0.0, 1.0, 17.5, 9.15)" width="116.05" xlink:href="#morphshape1"/>
    <use data-characterId="3194" height="21.8" transform="matrix(1.0, 0.0, 0.0, 1.0, 37.6, 4.7)" width="75.1" xlink:href="#morphshape2"/>
    <use data-characterId="3195" height="35.65" transform="matrix(1.0, 0.0, 0.0, 1.0, 32.35, 6.65)" width="66.65" xlink:href="#morphshape3"/>
  </g>
  <defs>
    <g id="morphshape0" transform="matrix(1.0, 0.0, 0.0, 1.0, -4.35, -2.9)">
      <path d="M4.7 16.8 Q4.0 18.4 13.1 19.85 22.2 21.25 33.05 21.85 44.5 22.5 28.05 23.55 11.5 24.35 23.05 26.15 34.7 27.85 27.15 28.5 19.6 29.1 14.4 30.8 9.25 32.6 13.95 33.05 18.6 33.45 20.2 33.95 22.0 34.45 24.15 34.75 L36.25 35.4 Q29.8 36.95 30.35 37.6 17.4 40.8 36.5 40.35 40.1 40.6 53.35 38.8 42.9 42.0 43.5 43.05 44.15 44.15 52.0 44.65 61.0 45.0 70.15 45.55 80.75 46.05 72.65 48.2 64.4 50.35 67.0 50.15 71.75 49.95 76.2 49.95 L92.15 49.5 Q101.35 49.1 104.25 47.95 107.75 46.85 106.2 45.7 104.35 44.75 107.65 41.95 109.75 40.75 100.7 38.45 122.35 37.95 124.9 36.05 128.0 34.35 121.95 33.95 120.15 33.5 117.15 33.15 126.15 31.6 126.5 30.75 126.95 29.9 122.8 29.0 118.75 28.15 113.35 27.85 108.0 27.55 122.1 26.4 136.25 25.25 141.45 23.4 146.65 21.5 137.85 19.95 129.65 18.4 124.5 18.45 L122.45 18.55 122.25 18.5 Q122.55 18.1 121.8 17.7 134.35 16.25 128.6 15.05 123.2 13.85 116.05 13.7 116.25 13.05 115.05 12.7 106.15 8.4 97.9 5.7 90.6 3.0 65.1 3.45 46.0 3.85 25.0 7.45 3.85 10.75 7.1 11.85 10.35 12.9 25.5 13.85 40.6 14.75 34.0 14.95 27.35 15.05 20.75 15.15 L12.65 15.45 4.9 16.35 Q4.75 16.55 4.85 16.75" fill="#96e0bc" fill-opacity="0.7058824" fill-rule="evenodd" stroke="none"/>
      <path d="M4.85 16.75 Q4.75 16.55 4.9 16.35 L12.65 15.45 20.75 15.15 Q27.35 15.05 34.0 14.95 40.6 14.75 25.5 13.85 10.35 12.9 7.1 11.85 3.85 10.75 25.0 7.45 46.0 3.85 65.1 3.45 90.6 3.0 97.9 5.7 106.15 8.4 115.05 12.7 116.25 13.05 116.05 13.7 123.2 13.85 128.6 15.05 134.35 16.25 121.8 17.7 122.55 18.1 122.25 18.5 L122.45 18.55 124.5 18.45 Q129.65 18.4 137.85 19.95 146.65 21.5 141.45 23.4 136.25 25.25 122.1 26.4 108.0 27.55 113.35 27.85 118.75 28.15 122.8 29.0 126.95 29.9 126.5 30.75 126.15 31.6 117.15 33.15 120.15 33.5 121.95 33.95 128.0 34.35 124.9 36.05 122.35 37.95 100.7 38.45 109.75 40.75 107.65 41.95 104.35 44.75 106.2 45.7 107.75 46.85 104.25 47.95 101.35 49.1 92.15 49.5 L76.2 49.95 Q71.75 49.95 67.0 50.15 64.4 50.35 72.65 48.2 80.75 46.05 70.15 45.55 61.0 45.0 52.0 44.65 44.15 44.15 43.5 43.05 42.9 42.0 53.35 38.8 40.1 40.6 36.5 40.35 17.4 40.8 30.35 37.6 29.8 36.95 36.25 35.4 L24.15 34.75 Q22.0 34.45 20.2 33.95 18.6 33.45 13.95 33.05 9.25 32.6 14.4 30.8 19.6 29.1 27.15 28.5 34.7 27.85 23.05 26.15 11.5 24.35 28.05 23.55 44.5 22.5 33.05 21.85 22.2 21.25 13.1 19.85 4.0 18.4 4.7 16.8" fill="none" stroke="#000000" stroke-linecap="round" stroke-linejoin="round" stroke-opacity="0.0" stroke-width="1.0"/>
    </g>
    <g id="morphshape1" transform="matrix(1.0, 0.0, 0.0, 1.0, -17.5, -9.15)">
      <path d="M127.5 21.9 Q127.5 22.65 127.95 23.35 128.7 24.4 131.55 24.15 L130.8 21.95 Q129.8 21.6 127.5 21.9 M102.55 33.3 Q102.55 33.65 103.65 34.45 L106.95 34.55 109.1 33.55 Q111.3 32.5 111.7 32.0 L110.2 30.8 106.0 30.4 Q102.55 30.6 102.55 33.3 M89.5 43.8 L89.5 43.8 90.0 44.65 Q91.35 44.9 92.75 45.15 L95.45 45.25 99.45 45.05 100.2 44.8 100.65 44.4 100.8 43.6 100.75 43.1 Q100.6 42.3 99.85 41.85 98.65 41.1 93.65 41.25 91.55 41.55 90.0 42.95 L89.45 43.75 M78.9 32.55 L79.15 33.2 Q79.7 33.65 80.8 34.05 L82.7 34.5 85.45 34.65 85.85 34.55 86.1 34.3 86.3 33.8 86.3 33.35 Q86.25 32.65 85.85 32.3 85.1 31.65 81.75 31.5 80.35 31.7 79.05 32.05 L78.95 32.6 M61.4 39.95 L61.95 40.85 68.3 41.25 Q72.35 41.25 75.2 39.0 75.2 37.1 69.15 36.95 62.9 36.85 61.4 39.95 M55.3 40.9 Q55.45 41.3 55.55 41.65 L58.6 41.65 Q59.05 41.4 59.3 39.8 L55.8 40.0 Q55.3 40.35 55.3 40.9 M49.0 34.25 L50.2 35.45 Q52.25 36.6 56.55 36.6 58.1 36.6 59.85 34.45 59.85 31.5 54.45 31.55 49.0 31.6 49.0 34.25 M31.4 30.05 Q31.55 30.6 34.35 31.65 37.9 32.05 41.5 32.1 L45.25 31.25 Q46.3 30.45 46.6 28.35 45.95 25.55 38.35 26.35 30.7 27.1 31.35 30.05 M21.95 11.55 Q21.95 12.0 22.4 12.7 L23.35 13.65 30.2 13.75 Q31.4 12.85 31.4 12.3 31.4 10.45 26.7 10.35 21.95 10.3 21.95 11.55" fill="#bef0d8" fill-opacity="0.7058824" fill-rule="evenodd" stroke="none"/>
      <path d="M21.95 11.55 Q21.95 10.3 26.7 10.35 31.4 10.45 31.4 12.3 31.4 12.85 30.2 13.75 L23.35 13.65 22.4 12.7 Q21.95 12.0 21.95 11.55 M31.35 30.05 Q30.7 27.1 38.35 26.35 45.95 25.55 46.6 28.35 46.3 30.45 45.25 31.25 L41.5 32.1 Q37.9 32.05 34.35 31.65 31.55 30.6 31.4 30.05 M49.0 34.25 Q49.0 31.6 54.45 31.55 59.85 31.5 59.85 34.45 58.1 36.6 56.55 36.6 52.25 36.6 50.2 35.45 L49.0 34.25 M55.3 40.9 Q55.3 40.35 55.8 40.0 L59.3 39.8 Q59.05 41.4 58.6 41.65 L55.55 41.65 Q55.45 41.3 55.3 40.9 M61.4 39.95 Q62.9 36.85 69.15 36.95 75.2 37.1 75.2 39.0 72.35 41.25 68.3 41.25 L61.95 40.85 61.4 39.95 M78.95 32.6 L79.05 32.05 Q80.35 31.7 81.75 31.5 85.1 31.65 85.85 32.3 86.25 32.65 86.3 33.35 L86.3 33.8 86.1 34.3 85.85 34.55 85.45 34.65 82.7 34.5 80.8 34.05 Q79.7 33.65 79.15 33.2 L78.9 32.55 M89.45 43.75 L90.0 42.95 Q91.55 41.55 93.65 41.25 98.65 41.1 99.85 41.85 100.6 42.3 100.75 43.1 L100.8 43.6 100.65 44.4 100.2 44.8 99.45 45.05 95.45 45.25 92.75 45.15 Q91.35 44.9 90.0 44.65 L89.5 43.8 89.5 43.8 M102.55 33.3 Q102.55 30.6 106.0 30.4 L110.2 30.8 111.7 32.0 Q111.3 32.5 109.1 33.55 L106.95 34.55 103.65 34.45 Q102.55 33.65 102.55 33.3 M127.5 21.9 Q129.8 21.6 130.8 21.95 L131.55 24.15 Q128.7 24.4 127.95 23.35 127.5 22.65 127.5 21.9 Z" fill="none" stroke="#000000" stroke-linecap="round" stroke-linejoin="round" stroke-opacity="0.0" stroke-width="1.0"/>
    </g>
    <g id="morphshape2" transform="matrix(1.0, 0.0, 0.0, 1.0, -37.6, -4.7)">
      <path d="M106.7 18.6 Q106.7 19.75 106.95 20.15 L107.75 20.7 Q110.7 19.9 111.55 19.45 112.25 18.95 111.2 15.9 108.8 16.1 107.75 16.75 106.7 17.35 106.7 18.6 M93.6 17.25 Q93.6 18.3 94.2 18.9 L97.25 19.1 Q97.7 18.1 97.45 16.0 L93.7 15.9 93.6 17.25 M92.4 9.35 Q92.4 10.4 92.8 11.3 L98.75 11.3 Q99.8 10.25 99.8 6.75 95.1 6.3 93.45 7.15 92.4 7.75 92.4 9.35 M84.05 16.9 Q84.1 17.85 84.85 19.7 85.5 20.15 87.05 20.3 L87.85 19.1 Q88.35 18.4 87.65 16.6 L84.05 16.9 M75.85 13.9 Q75.45 15.8 76.25 17.3 77.25 19.05 79.5 19.05 80.65 19.05 81.85 17.3 81.0 14.9 79.35 14.25 L75.85 13.9 M64.25 9.8 L64.3 11.25 64.65 11.8 70.1 12.55 73.4 12.95 Q75.15 12.95 74.05 10.5 74.05 7.45 69.15 7.3 64.25 7.2 64.25 9.8 M56.15 21.55 L56.15 21.6 56.25 22.75 56.6 23.15 Q57.1 23.2 57.6 23.2 58.7 23.25 59.9 23.3 L63.65 23.2 Q63.85 21.9 63.15 18.95 62.25 17.3 61.4 16.45 60.1 15.3 58.6 15.8 56.15 16.95 56.15 21.5 M52.1 9.65 L52.15 10.4 52.2 10.55 Q52.3 10.95 52.55 11.05 L53.9 11.4 Q55.3 10.85 55.8 10.75 56.05 9.6 56.1 8.2 55.7 7.2 55.35 6.35 54.45 6.2 53.6 6.3 52.05 7.25 52.05 9.75 M40.6 13.6 L41.7 15.7 Q43.4 17.85 46.4 17.85 50.3 17.85 50.3 14.65 50.3 11.65 45.45 10.85 40.6 10.0 40.6 13.6" fill="#bef0d8" fill-opacity="0.7058824" fill-rule="evenodd" stroke="none"/>
      <path d="M40.6 13.6 Q40.6 10.0 45.45 10.85 50.3 11.65 50.3 14.65 50.3 17.85 46.4 17.85 43.4 17.85 41.7 15.7 L40.6 13.6 M52.05 9.75 Q52.05 7.25 53.6 6.3 54.45 6.2 55.35 6.35 55.7 7.2 56.1 8.2 56.05 9.6 55.8 10.75 55.3 10.85 53.9 11.4 L52.55 11.05 Q52.3 10.95 52.2 10.55 L52.15 10.4 52.1 9.65 M56.15 21.5 Q56.15 16.95 58.6 15.8 60.1 15.3 61.4 16.45 62.25 17.3 63.15 18.95 63.85 21.9 63.65 23.2 L59.9 23.3 Q58.7 23.25 57.6 23.2 57.1 23.2 56.6 23.15 L56.25 22.75 56.15 21.6 56.15 21.55 M64.25 9.8 Q64.25 7.2 69.15 7.3 74.05 7.45 74.05 10.5 75.15 12.95 73.4 12.95 L70.1 12.55 64.65 11.8 64.3 11.25 64.25 9.8 M75.85 13.9 L79.35 14.25 Q81.0 14.9 81.85 17.3 80.65 19.05 79.5 19.05 77.25 19.05 76.25 17.3 75.45 15.8 75.85 13.9 M84.05 16.9 L87.65 16.6 Q88.35 18.4 87.85 19.1 L87.05 20.3 Q85.5 20.15 84.85 19.7 84.1 17.85 84.05 16.9 M92.4 9.35 Q92.4 7.75 93.45 7.15 95.1 6.3 99.8 6.75 99.8 10.25 98.75 11.3 L92.8 11.3 Q92.4 10.4 92.4 9.35 M93.6 17.25 L93.7 15.9 97.45 16.0 Q97.7 18.1 97.25 19.1 L94.2 18.9 Q93.6 18.3 93.6 17.25 M106.7 18.6 Q106.7 17.35 107.75 16.75 108.8 16.1 111.2 15.9 112.25 18.95 111.55 19.45 110.7 19.9 107.75 20.7 L106.95 20.15 Q106.7 19.75 106.7 18.6 Z" fill="none" stroke="#000000" stroke-linecap="round" stroke-linejoin="round" stroke-opacity="0.0" stroke-width="1.0"/>
    </g>
    <g id="morphshape3" transform="matrix(1.0, 0.0, 0.0, 1.0, -32.35, -6.65)">
      <path d="M95.0 8.5 Q95.0 9.65 95.15 10.05 L95.6 10.8 97.6 10.8 98.1 10.3 98.25 9.1 98.0 7.6 Q97.7 7.15 95.15 7.1 95.0 6.75 95.0 8.5 M68.6 9.8 Q68.4 10.15 69.0 11.0 69.3 11.4 70.15 11.65 71.5 11.8 72.85 11.8 73.3 11.3 73.25 10.6 72.8 10.25 69.1 9.25 L68.6 9.75 M65.8 37.05 L66.1 39.0 Q66.3 40.05 66.75 40.9 L70.25 40.9 Q70.45 40.6 70.75 40.45 L70.35 37.35 66.8 36.8 Q66.0 36.75 65.8 37.05 M44.05 15.05 L44.25 16.4 44.6 16.9 46.15 16.95 Q47.2 16.95 47.8 16.5 48.0 16.35 48.0 14.6 48.0 13.45 47.65 12.9 L46.95 12.25 44.15 13.35 44.05 15.05 M36.85 29.2 L37.1 30.2 Q37.45 31.0 37.9 31.3 42.0 30.75 42.0 28.35 42.0 27.25 41.65 26.95 L40.8 26.6 39.05 26.85 37.2 27.0 36.85 29.2" fill="#ffffff" fill-opacity="0.7058824" fill-rule="evenodd" stroke="none"/>
      <path d="M36.85 29.2 L37.2 27.0 39.05 26.85 40.8 26.6 41.65 26.95 Q42.0 27.25 42.0 28.35 42.0 30.75 37.9 31.3 37.45 31.0 37.1 30.2 L36.85 29.2 M44.05 15.05 L44.15 13.35 46.95 12.25 47.65 12.9 Q48.0 13.45 48.0 14.6 48.0 16.35 47.8 16.5 47.2 16.95 46.15 16.95 L44.6 16.9 44.25 16.4 44.05 15.05 M65.8 37.05 Q66.0 36.75 66.8 36.8 L70.35 37.35 70.75 40.45 Q70.45 40.6 70.25 40.9 L66.75 40.9 Q66.3 40.05 66.1 39.0 L65.8 37.05 M68.6 9.75 L69.1 9.25 Q72.8 10.25 73.25 10.6 73.3 11.3 72.85 11.8 71.5 11.8 70.15 11.65 69.3 11.4 69.0 11.0 68.4 10.15 68.6 9.8 M95.0 8.5 Q95.0 6.75 95.15 7.1 97.7 7.15 98.0 7.6 L98.25 9.1 98.1 10.3 97.6 10.8 95.6 10.8 95.15 10.05 Q95.0 9.65 95.0 8.5 Z" fill="none" stroke="#000000" stroke-linecap="round" stroke-linejoin="round" stroke-opacity="0.0" stroke-width="1.0"/>
    </g>
  </defs>
</svg>
