<?xml version="1.0" encoding="UTF-8" standalone="no"?>
<svg xmlns:xlink="http://www.w3.org/1999/xlink" height="47.45px" width="141.0px" xmlns="http://www.w3.org/2000/svg">
  <g transform="matrix(1.0, 0.0, 0.0, 1.0, -4.35, -2.9)">
    <use data-characterId="3192" height="47.45" transform="matrix(1.0, 0.0, 0.0, 1.0, 4.35, 2.9)" width="141.0" xlink:href="#morphshape0"/>
    <use data-characterId="3193" height="37.5" transform="matrix(1.0, 0.0, 0.0, 1.0, 17.5, 9.15)" width="116.05" xlink:href="#morphshape1"/>
    <use data-characterId="3194" height="21.8" transform="matrix(1.0, 0.0, 0.0, 1.0, 37.6, 4.7)" width="75.1" xlink:href="#morphshape2"/>
    <use data-characterId="3195" height="35.65" transform="matrix(1.0, 0.0, 0.0, 1.0, 32.35, 6.65)" width="66.65" xlink:href="#morphshape3"/>
  </g>
  <defs>
    <g id="morphshape0" transform="matrix(1.0, 0.0, 0.0, 1.0, -4.35, -2.9)">
      <path d="M4.95 17.65 Q4.7 19.2 11.55 20.4 18.45 21.5 26.5 22.05 36.5 22.8 25.85 24.3 14.9 25.05 21.9 26.65 29.25 28.0 24.15 28.75 19.05 29.4 15.7 30.85 12.55 32.65 16.15 33.2 19.55 33.65 21.3 34.05 23.9 34.45 26.1 35.0 L34.1 35.85 Q29.65 37.6 32.15 38.35 24.95 40.55 39.1 40.25 41.2 40.85 50.0 40.0 43.05 42.5 44.7 43.7 46.55 44.95 53.15 45.3 59.8 45.55 67.0 46.5 75.15 47.4 70.7 48.85 65.8 50.3 69.2 49.65 74.1 49.0 78.25 48.95 L91.3 48.35 Q98.55 47.95 101.6 47.05 106.45 46.4 106.65 44.65 105.9 43.6 108.3 41.25 111.75 40.25 106.2 38.35 121.9 37.1 122.1 35.35 124.05 34.2 119.95 33.9 122.15 33.05 120.4 32.55 126.65 31.2 125.95 30.3 125.7 29.55 122.35 28.75 119.45 28.1 117.95 27.5 116.45 26.9 126.3 25.35 136.2 23.8 138.75 22.1 141.25 20.4 133.5 19.4 127.65 18.4 123.85 18.45 L122.45 18.5 122.05 18.35 Q123.7 17.4 122.05 16.5 129.3 15.45 124.35 14.55 120.75 13.7 116.0 13.6 116.6 11.7 112.75 10.55 102.9 6.5 88.6 4.7 77.35 2.9 53.8 4.25 34.75 5.55 21.1 8.9 7.1 11.3 9.4 12.25 11.7 13.15 21.9 13.95 32.05 14.65 27.4 14.9 22.85 15.0 18.4 15.15 L10.05 15.7 4.85 16.3 Q4.45 16.95 4.8 17.65" fill="#96e0bc" fill-opacity="0.7058824" fill-rule="evenodd" stroke="none"/>
      <path d="M4.8 17.65 Q4.45 16.95 4.85 16.3 L10.05 15.7 18.4 15.15 Q22.85 15.0 27.4 14.9 32.05 14.65 21.9 13.95 11.7 13.15 9.4 12.25 7.1 11.3 21.1 8.9 34.75 5.55 53.8 4.25 77.35 2.9 88.6 4.7 102.9 6.5 112.75 10.55 116.6 11.7 116.0 13.6 120.75 13.7 124.35 14.55 129.3 15.45 122.05 16.5 123.7 17.4 122.05 18.35 L122.45 18.5 123.85 18.45 Q127.65 18.4 133.5 19.4 141.25 20.4 138.75 22.1 136.2 23.8 126.3 25.35 116.45 26.9 117.95 27.5 119.45 28.1 122.35 28.75 125.7 29.55 125.95 30.3 126.65 31.2 120.4 32.55 122.15 33.05 119.95 33.9 124.05 34.2 122.1 35.35 121.9 37.1 106.2 38.35 111.75 40.25 108.3 41.25 105.9 43.6 106.65 44.65 106.45 46.4 101.6 47.05 98.55 47.95 91.3 48.35 L78.25 48.95 Q74.1 49.0 69.2 49.65 65.8 50.3 70.7 48.85 75.15 47.4 67.0 46.5 59.8 45.55 53.15 45.3 46.55 44.95 44.7 43.7 43.05 42.5 50.0 40.0 41.2 40.85 39.1 40.25 24.95 40.55 32.15 38.35 29.65 37.6 34.1 35.85 L26.1 35.0 Q23.9 34.45 21.3 34.05 19.55 33.65 16.15 33.2 12.55 32.65 15.7 30.85 19.05 29.4 24.15 28.75 29.25 28.0 21.9 26.65 14.9 25.05 25.85 24.3 36.5 22.8 26.5 22.05 18.45 21.5 11.55 20.4 4.7 19.2 4.95 17.65" fill="none" stroke="#000000" stroke-linecap="round" stroke-linejoin="round" stroke-opacity="0.0" stroke-width="1.0"/>
    </g>
    <g id="morphshape1" transform="matrix(1.0, 0.0, 0.0, 1.0, -17.5, -9.15)">
      <path d="M123.15 22.5 Q123.15 23.25 123.6 23.95 124.35 25.0 127.2 24.75 L126.45 22.55 Q125.45 22.2 123.15 22.5 M101.55 31.7 Q101.55 32.05 102.65 32.85 L105.95 32.95 108.1 31.95 Q110.3 30.9 110.7 30.4 L109.2 29.2 105.0 28.8 Q101.55 29.0 101.55 31.7 M87.85 40.3 L87.85 40.35 88.25 41.1 Q89.3 41.45 90.6 41.75 L93.0 42.0 96.5 41.95 97.1 41.75 97.45 41.4 97.6 40.7 97.55 40.2 Q97.45 39.45 96.85 39.05 95.8 38.35 91.45 38.4 89.65 38.65 88.2 39.65 L87.85 40.35 M77.65 35.85 L78.0 36.6 Q78.85 36.95 80.05 37.3 L82.25 37.6 85.5 37.6 86.05 37.45 86.4 37.15 86.6 36.55 86.6 36.1 Q86.5 35.35 85.95 34.95 85.05 34.25 81.05 34.2 79.35 34.45 77.95 35.2 L77.65 35.85 M61.8 37.15 L62.35 38.05 68.7 38.45 Q72.75 38.45 75.6 36.2 75.6 34.3 69.55 34.15 63.3 34.05 61.8 37.15 M57.5 41.35 Q57.6 41.8 57.75 42.1 L60.8 42.1 Q61.25 41.85 61.5 40.25 L58.0 40.45 Q57.5 40.8 57.5 41.35 M49.0 35.2 L50.2 36.4 Q52.25 37.55 56.55 37.55 58.1 37.55 59.85 35.4 59.85 32.45 54.45 32.5 49.0 32.55 49.0 35.2 M29.75 29.5 Q29.85 30.05 32.55 31.3 36.0 32.3 39.6 32.3 L43.4 31.7 Q44.5 31.0 44.95 28.95 44.5 26.1 36.9 26.3 29.25 26.45 29.7 29.45 M20.5 14.1 Q20.5 14.55 20.95 15.25 L21.9 16.2 28.75 16.3 Q29.95 15.4 29.95 14.85 29.95 13.0 25.25 12.9 20.5 12.85 20.5 14.1" fill="#bef0d8" fill-opacity="0.7058824" fill-rule="evenodd" stroke="none"/>
      <path d="M20.5 14.1 Q20.5 12.85 25.25 12.9 29.95 13.0 29.95 14.85 29.95 15.4 28.75 16.3 L21.9 16.2 20.95 15.25 Q20.5 14.55 20.5 14.1 M29.7 29.45 Q29.25 26.45 36.9 26.3 44.5 26.1 44.95 28.95 44.5 31.0 43.4 31.7 L39.6 32.3 Q36.0 32.3 32.55 31.3 29.85 30.05 29.75 29.5 M49.0 35.2 Q49.0 32.55 54.45 32.5 59.85 32.45 59.85 35.4 58.1 37.55 56.55 37.55 52.25 37.55 50.2 36.4 L49.0 35.2 M57.5 41.35 Q57.5 40.8 58.0 40.45 L61.5 40.25 Q61.25 41.85 60.8 42.1 L57.75 42.1 Q57.6 41.8 57.5 41.35 M61.8 37.15 Q63.3 34.05 69.55 34.15 75.6 34.3 75.6 36.2 72.75 38.45 68.7 38.45 L62.35 38.05 61.8 37.15 M77.65 35.85 L77.95 35.2 Q79.35 34.45 81.05 34.2 85.05 34.25 85.95 34.95 86.5 35.35 86.6 36.1 L86.6 36.55 86.4 37.15 86.05 37.45 85.5 37.6 82.25 37.6 80.05 37.3 Q78.85 36.95 78.0 36.6 L77.65 35.85 M87.85 40.35 L88.2 39.65 Q89.65 38.65 91.45 38.4 95.8 38.35 96.85 39.05 97.45 39.45 97.55 40.2 L97.6 40.7 97.45 41.4 97.1 41.75 96.5 41.95 93.0 42.0 90.6 41.75 Q89.3 41.45 88.25 41.1 L87.85 40.35 87.85 40.3 M101.55 31.7 Q101.55 29.0 105.0 28.8 L109.2 29.2 110.7 30.4 Q110.3 30.9 108.1 31.95 L105.95 32.95 102.65 32.85 Q101.55 32.05 101.55 31.7 M123.15 22.5 Q125.45 22.2 126.45 22.55 L127.2 24.75 Q124.35 25.0 123.6 23.95 123.15 23.25 123.15 22.5 Z" fill="none" stroke="#000000" stroke-linecap="round" stroke-linejoin="round" stroke-opacity="0.0" stroke-width="1.0"/>
    </g>
    <g id="morphshape2" transform="matrix(1.0, 0.0, 0.0, 1.0, -37.6, -4.7)">
      <path d="M104.85 17.25 Q104.85 18.4 105.1 18.8 L105.9 19.35 Q108.5 18.6 109.7 18.1 110.4 17.6 109.35 14.55 106.95 14.75 105.9 15.4 104.85 16.0 104.85 17.25 M92.25 18.95 Q92.25 20.0 92.85 20.6 L95.9 20.8 Q96.35 19.8 96.1 17.7 L92.35 17.6 92.25 18.95 M90.9 10.25 Q90.9 11.3 91.3 12.2 L97.25 12.2 Q98.3 11.15 98.3 7.65 93.6 7.2 91.95 8.05 90.9 8.65 90.9 10.25 M82.6 18.95 Q82.65 19.9 83.4 21.75 84.05 22.2 85.6 22.35 L86.4 21.15 Q86.9 20.45 86.2 18.65 L82.6 18.95 M76.8 11.35 Q76.4 13.25 77.2 14.75 78.2 16.5 80.45 16.5 81.6 16.5 82.8 14.75 81.95 12.35 80.3 11.7 L76.8 11.35 M65.1 11.3 L65.15 12.75 65.5 13.3 70.95 14.05 74.25 14.45 Q76.0 14.45 74.9 12.0 74.9 8.95 70.0 8.8 65.1 8.7 65.1 11.3 M56.05 17.8 L56.05 17.9 56.15 18.85 56.4 19.15 Q56.75 19.35 57.15 19.4 58.0 19.5 59.1 19.6 L62.1 19.3 Q62.3 18.05 61.9 15.7 61.2 14.3 60.55 13.45 59.4 12.7 58.15 13.05 56.05 14.1 56.05 17.85 M50.75 14.15 L50.8 15.1 50.95 15.35 Q51.2 15.6 51.55 15.65 L53.3 15.9 Q54.9 15.5 55.9 15.45 56.15 14.25 55.9 12.25 55.3 11.0 54.75 10.15 53.7 9.6 52.6 9.85 50.7 10.9 50.7 14.2 M39.6 12.45 L40.7 14.55 Q42.4 16.7 45.4 16.7 49.3 16.7 49.3 13.5 49.3 10.5 44.45 9.7 39.6 8.85 39.6 12.45" fill="#bef0d8" fill-opacity="0.7058824" fill-rule="evenodd" stroke="none"/>
      <path d="M39.6 12.45 Q39.6 8.85 44.45 9.7 49.3 10.5 49.3 13.5 49.3 16.7 45.4 16.7 42.4 16.7 40.7 14.55 L39.6 12.45 M50.7 14.2 Q50.7 10.9 52.6 9.85 53.7 9.6 54.75 10.15 55.3 11.0 55.9 12.25 56.15 14.25 55.9 15.45 54.9 15.5 53.3 15.9 L51.55 15.65 Q51.2 15.6 50.95 15.35 L50.8 15.1 50.75 14.15 M56.05 17.85 Q56.05 14.1 58.15 13.05 59.4 12.7 60.55 13.45 61.2 14.3 61.9 15.7 62.3 18.05 62.1 19.3 L59.1 19.6 Q58.0 19.5 57.15 19.4 56.75 19.35 56.4 19.15 L56.15 18.85 56.05 17.9 56.05 17.8 M65.1 11.3 Q65.1 8.7 70.0 8.8 74.9 8.95 74.9 12.0 76.0 14.45 74.25 14.45 L70.95 14.05 65.5 13.3 65.15 12.75 65.1 11.3 M76.8 11.35 L80.3 11.7 Q81.95 12.35 82.8 14.75 81.6 16.5 80.45 16.5 78.2 16.5 77.2 14.75 76.4 13.25 76.8 11.35 M82.6 18.95 L86.2 18.65 Q86.9 20.45 86.4 21.15 L85.6 22.35 Q84.05 22.2 83.4 21.75 82.65 19.9 82.6 18.95 M90.9 10.25 Q90.9 8.65 91.95 8.05 93.6 7.2 98.3 7.65 98.3 11.15 97.25 12.2 L91.3 12.2 Q90.9 11.3 90.9 10.25 M92.25 18.95 L92.35 17.6 96.1 17.7 Q96.35 19.8 95.9 20.8 L92.85 20.6 Q92.25 20.0 92.25 18.95 M104.85 17.25 Q104.85 16.0 105.9 15.4 106.95 14.75 109.35 14.55 110.4 17.6 109.7 18.1 108.5 18.6 105.9 19.35 L105.1 18.8 Q104.85 18.4 104.85 17.25 Z" fill="none" stroke="#000000" stroke-linecap="round" stroke-linejoin="round" stroke-opacity="0.0" stroke-width="1.0"/>
    </g>
    <g id="morphshape3" transform="matrix(1.0, 0.0, 0.0, 1.0, -32.35, -6.65)">
      <path d="M93.35 9.3 Q93.35 10.45 93.5 10.85 L93.95 11.6 95.95 11.6 96.45 11.1 96.6 9.9 96.35 8.4 Q96.05 7.95 93.5 7.9 93.35 7.55 93.35 9.3 M68.8 11.25 Q68.65 11.65 69.35 12.4 69.8 12.7 70.6 12.85 71.9 12.9 73.25 12.65 73.65 12.1 73.5 11.4 72.45 11.3 69.25 10.75 L68.85 11.3 M66.0 34.05 L66.3 36.0 Q66.5 37.05 66.95 37.9 L70.45 37.9 Q70.65 37.6 70.95 37.45 L70.55 34.35 67.0 33.8 Q66.2 33.75 66.0 34.05 M42.75 14.35 L42.95 15.7 43.3 16.2 44.85 16.25 Q45.9 16.25 46.5 15.8 46.7 15.65 46.7 13.9 46.7 12.75 46.35 12.2 L45.65 11.55 42.85 12.65 42.75 14.35 M35.35 29.2 L35.6 30.2 Q35.95 31.0 36.4 31.3 40.5 30.75 40.5 28.35 40.5 27.25 40.15 26.95 L39.3 26.6 37.55 26.85 35.7 27.0 35.35 29.2" fill="#ffffff" fill-opacity="0.7058824" fill-rule="evenodd" stroke="none"/>
      <path d="M35.35 29.2 L35.7 27.0 37.55 26.85 39.3 26.6 40.15 26.95 Q40.5 27.25 40.5 28.35 40.5 30.75 36.4 31.3 35.95 31.0 35.6 30.2 L35.35 29.2 M42.75 14.35 L42.85 12.65 45.65 11.55 46.35 12.2 Q46.7 12.75 46.7 13.9 46.7 15.65 46.5 15.8 45.9 16.25 44.85 16.25 L43.3 16.2 42.95 15.7 42.75 14.35 M66.0 34.05 Q66.2 33.75 67.0 33.8 L70.55 34.35 70.95 37.45 Q70.65 37.6 70.45 37.9 L66.95 37.9 Q66.5 37.05 66.3 36.0 L66.0 34.05 M68.85 11.3 L69.25 10.75 Q72.45 11.3 73.5 11.4 73.65 12.1 73.25 12.65 71.9 12.9 70.6 12.85 69.8 12.7 69.35 12.4 68.65 11.65 68.8 11.25 M93.35 9.3 Q93.35 7.55 93.5 7.9 96.05 7.95 96.35 8.4 L96.6 9.9 96.45 11.1 95.95 11.6 93.95 11.6 93.5 10.85 Q93.35 10.45 93.35 9.3 Z" fill="none" stroke="#000000" stroke-linecap="round" stroke-linejoin="round" stroke-opacity="0.0" stroke-width="1.0"/>
    </g>
  </defs>
</svg>
