<?xml version="1.0" encoding="UTF-8" standalone="no"?>
<svg xmlns:xlink="http://www.w3.org/1999/xlink" height="47.45px" width="141.0px" xmlns="http://www.w3.org/2000/svg">
  <g transform="matrix(1.0, 0.0, 0.0, 1.0, -4.35, -2.9)">
    <use data-characterId="3188" height="47.45" transform="matrix(1.0, 0.0, 0.0, 1.0, 4.35, 2.9)" width="141.0" xlink:href="#morphshape0"/>
    <use data-characterId="3189" height="37.5" transform="matrix(1.0, 0.0, 0.0, 1.0, 17.5, 9.15)" width="116.05" xlink:href="#morphshape1"/>
    <use data-characterId="3190" height="21.8" transform="matrix(1.0, 0.0, 0.0, 1.0, 37.6, 4.7)" width="75.1" xlink:href="#morphshape2"/>
    <use data-characterId="3191" height="35.65" transform="matrix(1.0, 0.0, 0.0, 1.0, 32.35, 6.65)" width="66.65" xlink:href="#morphshape3"/>
  </g>
  <defs>
    <g id="morphshape0" transform="matrix(1.0, 0.0, 0.0, 1.0, -4.35, -2.9)">
      <path d="M4.8 18.95 Q5.2 20.45 9.2 21.3 13.3 21.95 17.8 22.4 25.9 23.3 22.8 25.45 19.1 26.15 20.25 27.55 22.05 28.45 20.15 29.35 18.25 30.05 17.35 31.15 16.75 32.95 18.95 33.6 20.75 34.1 22.75 34.35 26.4 34.6 28.7 35.5 L31.35 36.65 Q29.45 38.65 34.45 39.55 34.7 40.4 42.4 40.35 42.5 41.35 45.6 41.7 43.15 43.25 46.2 44.65 49.55 46.15 54.5 46.3 58.1 46.4 62.75 47.85 67.7 49.25 68.0 49.75 67.5 50.25 71.95 49.0 77.1 47.7 80.85 47.55 L90.15 46.7 Q94.85 46.3 98.05 45.75 104.7 45.7 107.15 43.15 107.85 41.95 109.1 40.15 114.25 39.35 113.3 38.0 121.3 35.8 118.45 34.3 118.9 33.8 117.25 33.65 124.7 32.3 124.6 31.55 127.3 30.5 125.3 29.55 124.15 28.9 121.9 28.25 120.55 27.9 124.1 27.0 127.65 26.1 132.0 24.05 136.4 22.0 135.5 20.55 134.45 19.05 128.0 18.7 125.15 18.35 123.05 18.4 L122.45 18.4 121.85 18.15 Q125.35 16.45 122.55 14.9 122.9 14.35 119.0 13.9 117.75 13.6 116.1 13.55 117.2 10.0 109.9 7.85 98.85 4.15 76.7 3.5 60.3 2.85 39.3 5.45 20.35 7.9 16.3 10.9 11.6 12.15 12.65 12.85 13.7 13.5 17.5 14.15 21.15 14.65 19.05 14.95 17.2 15.0 15.45 15.2 L6.7 16.1 4.85 16.3 Q4.1 17.6 4.75 18.9" fill="#96e0bc" fill-opacity="0.7058824" fill-rule="evenodd" stroke="none"/>
      <path d="M4.75 18.9 Q4.1 17.6 4.85 16.3 L6.7 16.1 15.45 15.2 Q17.2 15.0 19.05 14.95 21.15 14.65 17.5 14.15 13.7 13.5 12.65 12.85 11.6 12.15 16.3 10.9 20.35 7.9 39.3 5.45 60.3 2.85 76.7 3.5 98.85 4.15 109.9 7.85 117.2 10.0 116.1 13.55 117.75 13.6 119.0 13.9 122.9 14.35 122.55 14.9 125.35 16.45 121.85 18.15 L122.45 18.4 123.05 18.4 Q125.15 18.35 128.0 18.7 134.45 19.05 135.5 20.55 136.4 22.0 132.0 24.05 127.65 26.1 124.1 27.0 120.55 27.9 121.9 28.25 124.15 28.9 125.3 29.55 127.3 30.5 124.6 31.55 124.7 32.3 117.25 33.65 118.9 33.8 118.45 34.3 121.3 35.8 113.3 38.0 114.25 39.35 109.1 40.15 107.85 41.95 107.15 43.15 104.7 45.7 98.05 45.75 94.85 46.3 90.15 46.7 L80.85 47.55 Q77.1 47.7 71.95 49.0 67.5 50.25 68.0 49.75 67.7 49.25 62.75 47.85 58.1 46.4 54.5 46.3 49.55 46.15 46.2 44.65 43.15 43.25 45.6 41.7 42.5 41.35 42.4 40.35 34.7 40.4 34.45 39.55 29.45 38.65 31.35 36.65 L28.7 35.5 Q26.4 34.6 22.75 34.35 20.75 34.1 18.95 33.6 16.75 32.95 17.35 31.15 18.25 30.05 20.15 29.35 22.05 28.45 20.25 27.55 19.1 26.15 22.8 25.45 25.9 23.3 17.8 22.4 13.3 21.95 9.2 21.3 5.2 20.45 4.8 18.95" fill="none" stroke="#000000" stroke-linecap="round" stroke-linejoin="round" stroke-opacity="0.0" stroke-width="1.0"/>
    </g>
    <g id="morphshape1" transform="matrix(1.0, 0.0, 0.0, 1.0, -17.5, -9.15)">
      <path d="M117.55 23.25 Q117.55 24.0 118.0 24.7 118.75 25.75 121.6 25.5 L120.85 23.3 Q119.85 22.95 117.55 23.25 M100.2 29.65 Q100.2 30.0 101.3 30.8 L104.6 30.9 106.75 29.9 Q108.95 28.85 109.35 28.35 L107.85 27.15 103.65 26.75 Q100.2 26.95 100.2 29.65 M85.9 35.95 L86.15 36.6 Q86.75 37.05 87.9 37.45 L89.85 37.85 92.7 37.95 93.15 37.8 93.4 37.55 93.6 37.0 93.6 36.55 Q93.55 35.85 93.1 35.5 92.3 34.85 88.8 34.75 87.3 34.95 86.0 35.4 L85.85 35.95 M75.95 40.15 L75.95 40.15 76.45 40.95 Q77.75 41.2 79.1 41.45 L81.75 41.6 85.65 41.45 86.35 41.25 86.8 40.85 86.95 40.1 86.9 39.6 Q86.75 38.8 86.05 38.35 84.9 37.6 80.05 37.7 78.05 38.0 76.5 39.3 L76.0 40.1 M62.3 33.6 L62.85 34.5 69.2 34.9 Q73.25 34.9 76.1 32.65 76.1 30.75 70.05 30.6 63.8 30.5 62.3 33.6 M60.3 42.0 Q60.35 42.5 60.55 42.75 L63.6 42.75 Q64.05 42.5 64.3 40.9 L60.8 41.1 Q60.3 41.45 60.3 42.0 M49.0 36.4 L50.2 37.6 Q52.25 38.75 56.55 38.75 58.1 38.75 59.85 36.6 59.85 33.65 54.45 33.7 49.0 33.75 49.0 36.4 M27.55 28.7 Q27.6 29.3 30.2 30.8 33.5 32.55 37.15 32.5 L41.0 32.3 Q42.15 31.75 42.8 29.75 42.65 26.85 35.05 26.25 27.4 25.65 27.55 28.7 M18.55 17.5 Q18.55 17.95 19.0 18.65 L19.95 19.6 26.8 19.7 Q28.0 18.8 28.0 18.25 28.0 16.4 23.3 16.3 18.55 16.25 18.55 17.5" fill="#bef0d8" fill-opacity="0.7058824" fill-rule="evenodd" stroke="none"/>
      <path d="M18.55 17.5 Q18.55 16.25 23.3 16.3 28.0 16.4 28.0 18.25 28.0 18.8 26.8 19.7 L19.95 19.6 19.0 18.65 Q18.55 17.95 18.55 17.5 M27.55 28.7 Q27.4 25.65 35.05 26.25 42.65 26.85 42.8 29.75 42.15 31.75 41.0 32.3 L37.15 32.5 Q33.5 32.55 30.2 30.8 27.6 29.3 27.55 28.7 M49.0 36.4 Q49.0 33.75 54.45 33.7 59.85 33.65 59.85 36.6 58.1 38.75 56.55 38.75 52.25 38.75 50.2 37.6 L49.0 36.4 M60.3 42.0 Q60.3 41.45 60.8 41.1 L64.3 40.9 Q64.05 42.5 63.6 42.75 L60.55 42.75 Q60.35 42.5 60.3 42.0 M62.3 33.6 Q63.8 30.5 70.05 30.6 76.1 30.75 76.1 32.65 73.25 34.9 69.2 34.9 L62.85 34.5 62.3 33.6 M76.0 40.1 L76.5 39.3 Q78.05 38.0 80.05 37.7 84.9 37.6 86.05 38.35 86.75 38.8 86.9 39.6 L86.95 40.1 86.8 40.85 86.35 41.25 85.65 41.45 81.75 41.6 79.1 41.45 Q77.75 41.2 76.45 40.95 L75.95 40.15 75.95 40.15 M85.85 35.95 L86.0 35.4 Q87.3 34.95 88.8 34.75 92.3 34.85 93.1 35.5 93.55 35.85 93.6 36.55 L93.6 37.0 93.4 37.55 93.15 37.8 92.7 37.95 89.85 37.85 87.9 37.45 Q86.75 37.05 86.15 36.6 L85.9 35.95 M100.2 29.65 Q100.2 26.95 103.65 26.75 L107.85 27.15 109.35 28.35 Q108.95 28.85 106.75 29.9 L104.6 30.9 101.3 30.8 Q100.2 30.0 100.2 29.65 M117.55 23.25 Q119.85 22.95 120.85 23.3 L121.6 25.5 Q118.75 25.75 118.0 24.7 117.55 24.0 117.55 23.25 Z" fill="none" stroke="#000000" stroke-linecap="round" stroke-linejoin="round" stroke-opacity="0.0" stroke-width="1.0"/>
    </g>
    <g id="morphshape2" transform="matrix(1.0, 0.0, 0.0, 1.0, -37.6, -4.7)">
      <path d="M102.5 15.45 Q102.5 16.6 102.75 17.0 L103.55 17.55 Q105.7 16.85 107.35 16.3 108.05 15.8 107.0 12.75 104.6 12.95 103.55 13.6 102.5 14.2 102.5 15.45 M90.45 21.1 Q90.45 22.15 91.05 22.75 L94.1 22.95 Q94.55 21.95 94.3 19.85 L90.55 19.75 90.45 21.1 M88.9 11.4 Q88.9 12.45 89.3 13.35 L95.25 13.35 Q96.3 12.3 96.3 8.8 91.6 8.35 89.95 9.2 88.9 9.8 88.9 11.4 M80.65 21.65 Q80.7 22.6 81.45 24.45 82.1 24.9 83.65 25.05 L84.45 23.85 Q84.95 23.15 84.25 21.35 L80.65 21.65 M78.05 8.0 Q77.65 9.9 78.45 11.4 79.45 13.15 81.7 13.15 82.85 13.15 84.05 11.4 83.2 9.0 81.55 8.35 L78.05 8.0 M66.25 13.3 L66.3 14.75 66.65 15.3 72.1 16.05 75.4 16.45 Q77.15 16.45 76.05 14.0 76.05 10.95 71.15 10.8 66.25 10.7 66.25 13.3 M55.95 13.15 L56.0 13.95 56.1 14.1 Q56.25 14.45 56.5 14.55 56.95 14.7 57.95 14.85 L60.0 14.25 Q60.25 13.05 60.25 11.5 59.8 10.45 59.4 9.6 58.5 9.35 57.6 9.45 55.95 10.4 55.95 13.1 M48.9 19.95 L48.9 20.0 49.0 21.1 49.3 21.5 Q49.75 21.6 50.25 21.6 L52.5 21.7 Q54.4 21.55 56.1 21.55 56.3 20.3 55.65 17.5 54.8 15.9 54.0 15.05 52.7 14.0 51.25 14.5 48.9 15.65 48.9 20.0 M38.3 10.95 L39.4 13.05 Q41.1 15.2 44.1 15.2 48.0 15.2 48.0 12.0 48.0 9.0 43.15 8.2 38.3 7.35 38.3 10.95" fill="#bef0d8" fill-opacity="0.7058824" fill-rule="evenodd" stroke="none"/>
      <path d="M38.3 10.95 Q38.3 7.35 43.15 8.2 48.0 9.0 48.0 12.0 48.0 15.2 44.1 15.2 41.1 15.2 39.4 13.05 L38.3 10.95 M48.9 20.0 Q48.9 15.65 51.25 14.5 52.7 14.0 54.0 15.05 54.8 15.9 55.65 17.5 56.3 20.3 56.1 21.55 54.4 21.55 52.5 21.7 L50.25 21.6 Q49.75 21.6 49.3 21.5 L49.0 21.1 48.9 20.0 48.9 19.95 M55.95 13.1 Q55.95 10.4 57.6 9.45 58.5 9.35 59.4 9.6 59.8 10.45 60.25 11.5 60.25 13.05 60.0 14.25 L57.95 14.85 Q56.95 14.7 56.5 14.55 56.25 14.45 56.1 14.1 L56.0 13.95 55.95 13.15 M66.25 13.3 Q66.25 10.7 71.15 10.8 76.05 10.95 76.05 14.0 77.15 16.45 75.4 16.45 L72.1 16.05 66.65 15.3 66.3 14.75 66.25 13.3 M78.05 8.0 L81.55 8.35 Q83.2 9.0 84.05 11.4 82.85 13.15 81.7 13.15 79.45 13.15 78.45 11.4 77.65 9.9 78.05 8.0 M80.65 21.65 L84.25 21.35 Q84.95 23.15 84.45 23.85 L83.65 25.05 Q82.1 24.9 81.45 24.45 80.7 22.6 80.65 21.65 M88.9 11.4 Q88.9 9.8 89.95 9.2 91.6 8.35 96.3 8.8 96.3 12.3 95.25 13.35 L89.3 13.35 Q88.9 12.45 88.9 11.4 M90.45 21.1 L90.55 19.75 94.3 19.85 Q94.55 21.95 94.1 22.95 L91.05 22.75 Q90.45 22.15 90.45 21.1 M102.5 15.45 Q102.5 14.2 103.55 13.6 104.6 12.95 107.0 12.75 108.05 15.8 107.35 16.3 105.7 16.85 103.55 17.55 L102.75 17.0 Q102.5 16.6 102.5 15.45 Z" fill="none" stroke="#000000" stroke-linecap="round" stroke-linejoin="round" stroke-opacity="0.0" stroke-width="1.0"/>
    </g>
    <g id="morphshape3" transform="matrix(1.0, 0.0, 0.0, 1.0, -32.35, -6.65)">
      <path d="M94.65 8.75 Q94.65 9.9 94.8 10.3 L95.25 11.05 97.25 11.05 97.75 10.55 97.9 9.35 97.65 7.85 Q97.35 7.4 94.8 7.35 94.65 7.0 94.65 8.75 M69.35 12.85 Q69.1 13.2 69.65 14.1 70.2 14.5 70.8 14.85 L73.55 15.2 Q74.05 14.75 74.05 14.05 73.85 13.6 69.9 12.4 L69.35 12.85 M66.2 31.1 L66.5 33.05 Q66.7 34.1 67.15 34.95 L70.65 34.95 Q70.9 34.7 71.15 34.5 L70.75 31.4 67.2 30.85 Q66.4 30.8 66.2 31.1 M41.05 13.45 L41.25 14.8 41.6 15.3 43.15 15.35 Q44.2 15.35 44.8 14.9 45.0 14.75 45.0 13.0 45.0 11.85 44.65 11.3 L43.95 10.65 41.15 11.75 41.05 13.45 M33.4 29.2 L33.65 30.2 Q34.0 31.0 34.45 31.3 38.55 30.75 38.55 28.35 38.55 27.25 38.2 26.95 L37.35 26.6 35.6 26.85 33.75 27.0 33.4 29.2" fill="#ffffff" fill-opacity="0.7058824" fill-rule="evenodd" stroke="none"/>
      <path d="M33.4 29.2 L33.75 27.0 35.6 26.85 37.35 26.6 38.2 26.95 Q38.55 27.25 38.55 28.35 38.55 30.75 34.45 31.3 34.0 31.0 33.65 30.2 L33.4 29.2 M41.05 13.45 L41.15 11.75 43.95 10.65 44.65 11.3 Q45.0 11.85 45.0 13.0 45.0 14.75 44.8 14.9 44.2 15.35 43.15 15.35 L41.6 15.3 41.25 14.8 41.05 13.45 M66.2 31.1 Q66.4 30.8 67.2 30.85 L70.75 31.4 71.15 34.5 Q70.9 34.7 70.65 34.95 L67.15 34.95 Q66.7 34.1 66.5 33.05 L66.2 31.1 M69.35 12.85 L69.9 12.4 Q73.85 13.6 74.05 14.05 74.05 14.75 73.55 15.2 L70.8 14.85 Q70.2 14.5 69.65 14.1 69.1 13.2 69.35 12.85 M94.65 8.75 Q94.65 7.0 94.8 7.35 97.35 7.4 97.65 7.85 L97.9 9.35 97.75 10.55 97.25 11.05 95.25 11.05 94.8 10.3 Q94.65 9.9 94.65 8.75 Z" fill="none" stroke="#000000" stroke-linecap="round" stroke-linejoin="round" stroke-opacity="0.0" stroke-width="1.0"/>
    </g>
  </defs>
</svg>
