<?xml version="1.0" encoding="UTF-8" standalone="no"?>
<svg xmlns:xlink="http://www.w3.org/1999/xlink" height="47.45px" width="141.0px" xmlns="http://www.w3.org/2000/svg">
  <g transform="matrix(1.0, 0.0, 0.0, 1.0, -4.35, -2.9)">
    <use data-characterId="3192" height="47.45" transform="matrix(1.0, 0.0, 0.0, 1.0, 4.35, 2.9)" width="141.0" xlink:href="#morphshape0"/>
    <use data-characterId="3193" height="37.5" transform="matrix(1.0, 0.0, 0.0, 1.0, 17.5, 9.15)" width="116.05" xlink:href="#morphshape1"/>
    <use data-characterId="3194" height="21.8" transform="matrix(1.0, 0.0, 0.0, 1.0, 37.6, 4.7)" width="75.1" xlink:href="#morphshape2"/>
    <use data-characterId="3195" height="35.65" transform="matrix(1.0, 0.0, 0.0, 1.0, 32.35, 6.65)" width="66.65" xlink:href="#morphshape3"/>
  </g>
  <defs>
    <g id="morphshape0" transform="matrix(1.0, 0.0, 0.0, 1.0, -4.35, -2.9)">
      <path d="M4.55 18.7 Q4.8 20.2 9.35 21.15 14.0 21.9 19.2 22.35 27.7 23.2 23.1 25.25 18.0 25.95 20.3 27.4 23.2 28.4 20.65 29.3 18.1 30.0 16.7 31.15 15.6 32.95 18.1 33.55 20.25 34.0 22.2 34.25 25.65 34.55 27.95 35.4 L31.65 36.5 Q29.25 38.45 33.75 39.35 32.5 40.45 41.45 40.35 41.95 41.3 46.2 41.4 42.85 43.15 45.6 44.5 48.65 45.95 53.95 46.15 58.15 46.25 63.3 47.6 68.9 48.9 68.25 49.6 66.85 50.3 71.1 49.2 76.2 48.0 80.05 47.85 L90.1 47.05 Q95.3 46.65 98.5 46.0 104.8 45.8 106.8 43.4 107.25 42.25 108.75 40.35 113.6 39.5 111.75 38.05 121.25 36.0 119.0 34.45 119.75 33.85 117.6 33.65 124.0 32.4 123.6 31.7 127.0 30.6 125.25 29.7 124.25 29.0 121.8 28.35 120.15 27.95 122.7 27.1 125.25 26.25 130.7 24.3 136.15 22.35 135.9 20.85 135.55 19.3 128.85 18.85 125.4 18.4 123.0 18.45 L122.25 18.5 121.7 18.3 Q124.8 16.75 122.25 15.35 124.0 14.7 119.9 14.15 118.2 13.75 115.9 13.7 116.9 10.45 110.3 8.5 99.5 4.75 78.9 3.9 63.55 3.05 42.05 5.4 23.1 7.6 17.15 10.65 10.65 12.1 11.95 12.85 13.25 13.55 18.3 14.2 23.25 14.75 20.65 15.0 18.25 15.05 16.0 15.2 L7.35 16.0 4.85 16.3 Q4.2 17.45 4.8 18.65" fill="#96e0bc" fill-opacity="0.7058824" fill-rule="evenodd" stroke="none"/>
      <path d="M4.8 18.65 Q4.2 17.45 4.85 16.3 L7.35 16.0 16.0 15.2 Q18.25 15.05 20.65 15.0 23.25 14.75 18.3 14.2 13.25 13.55 11.95 12.85 10.65 12.1 17.15 10.65 23.1 7.6 42.05 5.4 63.55 3.05 78.9 3.9 99.5 4.75 110.3 8.5 116.9 10.45 115.9 13.7 118.2 13.75 119.9 14.15 124.0 14.7 122.25 15.35 124.8 16.75 121.7 18.3 L122.25 18.5 123.0 18.45 Q125.4 18.4 128.85 18.85 135.55 19.3 135.9 20.85 136.15 22.35 130.7 24.3 125.25 26.25 122.7 27.1 120.15 27.95 121.8 28.35 124.25 29.0 125.25 29.7 127.0 30.6 123.6 31.7 124.0 32.4 117.6 33.65 119.75 33.85 119.0 34.45 121.25 36.0 111.75 38.05 113.6 39.5 108.75 40.35 107.25 42.25 106.8 43.4 104.8 45.8 98.5 46.0 95.3 46.65 90.1 47.05 L80.05 47.85 Q76.2 48.0 71.1 49.2 66.85 50.3 68.25 49.6 68.9 48.9 63.3 47.6 58.15 46.25 53.95 46.15 48.65 45.95 45.6 44.5 42.85 43.15 46.2 41.4 41.95 41.3 41.45 40.35 32.5 40.45 33.75 39.35 29.25 38.45 31.65 36.5 L27.95 35.4 Q25.65 34.55 22.2 34.25 20.25 34.0 18.1 33.55 15.6 32.95 16.7 31.15 18.1 30.0 20.65 29.3 23.2 28.4 20.3 27.4 18.0 25.95 23.1 25.25 27.7 23.2 19.2 22.35 14.0 21.9 9.35 21.15 4.8 20.2 4.55 18.7" fill="none" stroke="#000000" stroke-linecap="round" stroke-linejoin="round" stroke-opacity="0.0" stroke-width="1.0"/>
    </g>
    <g id="morphshape1" transform="matrix(1.0, 0.0, 0.0, 1.0, -17.5, -9.15)">
      <path d="M118.65 23.1 Q118.65 23.85 119.1 24.55 119.85 25.6 122.7 25.35 L121.95 23.15 Q120.95 22.8 118.65 23.1 M100.45 30.05 Q100.45 30.4 101.55 31.2 L104.85 31.3 107.0 30.3 Q109.2 29.25 109.6 28.75 L108.1 27.55 103.9 27.15 Q100.45 27.35 100.45 30.05 M86.2 36.85 L86.2 36.9 86.5 37.5 Q87.2 37.9 88.35 38.3 L90.4 38.7 93.4 38.8 93.85 38.65 94.15 38.4 94.35 37.85 94.35 37.4 Q94.3 36.65 93.85 36.3 93.0 35.6 89.35 35.5 87.8 35.7 86.45 36.25 L86.25 36.85 M76.4 39.3 L76.85 40.1 Q78.05 40.4 79.4 40.65 L81.95 40.8 85.7 40.65 86.4 40.45 86.8 40.05 86.95 39.3 86.9 38.8 Q86.75 38.05 86.05 37.6 84.95 36.9 80.25 37.0 78.3 37.3 76.8 38.5 L76.35 39.25 M62.2 34.3 L62.75 35.2 69.1 35.6 Q73.15 35.6 76.0 33.35 76.0 31.45 69.95 31.3 63.7 31.2 62.2 34.3 M59.75 41.85 Q59.8 42.3 60.0 42.6 L63.05 42.6 Q63.5 42.35 63.75 40.75 L60.25 40.95 Q59.75 41.3 59.75 41.85 M49.0 36.15 L50.2 37.35 Q52.25 38.5 56.55 38.5 58.1 38.5 59.85 36.35 59.85 33.4 54.45 33.45 49.0 33.5 49.0 36.15 M28.0 28.9 Q28.05 29.5 30.7 30.95 34.0 32.55 37.65 32.5 L41.5 32.2 Q42.65 31.6 43.25 29.6 43.05 26.75 35.45 26.3 27.8 25.85 28.0 28.85 M18.95 16.8 Q18.95 17.25 19.4 17.95 L20.35 18.9 27.2 19.0 Q28.4 18.1 28.4 17.55 28.4 15.7 23.7 15.6 18.95 15.55 18.95 16.8" fill="#bef0d8" fill-opacity="0.7058824" fill-rule="evenodd" stroke="none"/>
      <path d="M18.95 16.8 Q18.95 15.55 23.7 15.6 28.4 15.7 28.4 17.55 28.4 18.1 27.2 19.0 L20.35 18.9 19.4 17.95 Q18.95 17.25 18.95 16.8 M28.0 28.85 Q27.8 25.85 35.45 26.3 43.05 26.75 43.25 29.6 42.65 31.6 41.5 32.2 L37.65 32.5 Q34.0 32.55 30.7 30.95 28.05 29.5 28.0 28.9 M49.0 36.15 Q49.0 33.5 54.45 33.45 59.85 33.4 59.85 36.35 58.1 38.5 56.55 38.5 52.25 38.5 50.2 37.35 L49.0 36.15 M59.75 41.85 Q59.75 41.3 60.25 40.95 L63.75 40.75 Q63.5 42.35 63.05 42.6 L60.0 42.6 Q59.8 42.3 59.75 41.85 M62.2 34.3 Q63.7 31.2 69.95 31.3 76.0 31.45 76.0 33.35 73.15 35.6 69.1 35.6 L62.75 35.2 62.2 34.3 M76.35 39.25 L76.8 38.5 Q78.3 37.3 80.25 37.0 84.95 36.9 86.05 37.6 86.75 38.05 86.9 38.8 L86.95 39.3 86.8 40.05 86.4 40.45 85.7 40.65 81.95 40.8 79.4 40.65 Q78.05 40.4 76.85 40.1 L76.4 39.3 M86.25 36.85 L86.45 36.25 Q87.8 35.7 89.35 35.5 93.0 35.6 93.85 36.3 94.3 36.65 94.35 37.4 L94.35 37.85 94.15 38.4 93.85 38.65 93.4 38.8 90.4 38.7 88.35 38.3 Q87.2 37.9 86.5 37.5 L86.2 36.9 86.2 36.85 M100.45 30.05 Q100.45 27.35 103.9 27.15 L108.1 27.55 109.6 28.75 Q109.2 29.25 107.0 30.3 L104.85 31.3 101.55 31.2 Q100.45 30.4 100.45 30.05 M118.65 23.1 Q120.95 22.8 121.95 23.15 L122.7 25.35 Q119.85 25.6 119.1 24.55 118.65 23.85 118.65 23.1 Z" fill="none" stroke="#000000" stroke-linecap="round" stroke-linejoin="round" stroke-opacity="0.0" stroke-width="1.0"/>
    </g>
    <g id="morphshape2" transform="matrix(1.0, 0.0, 0.0, 1.0, -37.6, -4.7)">
      <path d="M102.95 15.8 Q102.95 16.95 103.2 17.35 L104.0 17.9 Q106.25 17.2 107.8 16.65 108.5 16.15 107.45 13.1 105.05 13.3 104.0 13.95 102.95 14.55 102.95 15.8 M90.8 20.7 Q90.8 21.75 91.4 22.35 L94.45 22.55 Q94.9 21.55 94.65 19.45 L90.9 19.35 90.8 20.7 M89.3 11.2 Q89.3 12.25 89.7 13.15 L95.65 13.15 Q96.7 12.1 96.7 8.6 92.0 8.15 90.35 9.0 89.3 9.6 89.3 11.2 M81.05 21.1 Q81.1 22.05 81.85 23.9 82.5 24.35 84.05 24.5 L84.85 23.3 Q85.35 22.6 84.65 20.8 L81.05 21.1 M77.8 8.65 Q77.4 10.55 78.2 12.05 79.2 13.8 81.45 13.8 82.6 13.8 83.8 12.05 82.95 9.65 81.3 9.0 L77.8 8.65 M66.0 12.9 L66.05 14.35 66.4 14.9 71.85 15.65 75.15 16.05 Q76.9 16.05 75.8 13.6 75.8 10.55 70.9 10.4 66.0 10.3 66.0 12.9 M56.0 14.0 L56.0 14.15 56.05 14.85 56.15 15.05 Q56.35 15.4 56.65 15.45 57.2 15.6 58.25 15.75 L60.5 15.2 Q60.75 14.0 60.65 12.3 60.15 11.15 59.7 10.3 58.75 9.95 57.75 10.1 56.0 11.1 56.0 14.0 M49.2 18.9 L49.3 20.0 49.6 20.35 Q50.0 20.45 50.45 20.5 L52.6 20.6 Q54.45 20.4 56.0 20.35 56.2 19.1 55.65 16.45 54.85 14.95 54.1 14.1 52.85 13.15 51.5 13.6 49.25 14.7 49.25 18.85 M38.55 11.25 L39.65 13.35 Q41.35 15.5 44.35 15.5 48.25 15.5 48.25 12.3 48.25 9.3 43.4 8.5 38.55 7.65 38.55 11.25" fill="#bef0d8" fill-opacity="0.7058824" fill-rule="evenodd" stroke="none"/>
      <path d="M38.55 11.25 Q38.55 7.65 43.4 8.5 48.25 9.3 48.25 12.3 48.25 15.5 44.35 15.5 41.35 15.5 39.65 13.35 L38.55 11.25 M49.25 18.85 Q49.25 14.7 51.5 13.6 52.85 13.15 54.1 14.1 54.85 14.95 55.65 16.45 56.2 19.1 56.0 20.35 54.45 20.4 52.6 20.6 L50.45 20.5 Q50.0 20.45 49.6 20.35 L49.3 20.0 49.2 18.9 M56.0 14.0 Q56.0 11.1 57.75 10.1 58.75 9.95 59.7 10.3 60.15 11.15 60.65 12.3 60.75 14.0 60.5 15.2 L58.25 15.75 Q57.2 15.6 56.65 15.45 56.35 15.4 56.15 15.05 L56.05 14.85 56.0 14.15 56.0 14.0 M66.0 12.9 Q66.0 10.3 70.9 10.4 75.8 10.55 75.8 13.6 76.9 16.05 75.15 16.05 L71.85 15.65 66.4 14.9 66.05 14.35 66.0 12.9 M77.8 8.65 L81.3 9.0 Q82.95 9.65 83.8 12.05 82.6 13.8 81.45 13.8 79.2 13.8 78.2 12.05 77.4 10.55 77.8 8.65 M81.05 21.1 L84.65 20.8 Q85.35 22.6 84.85 23.3 L84.05 24.5 Q82.5 24.35 81.85 23.9 81.1 22.05 81.05 21.1 M89.3 11.2 Q89.3 9.6 90.35 9.0 92.0 8.15 96.7 8.6 96.7 12.1 95.65 13.15 L89.7 13.15 Q89.3 12.25 89.3 11.2 M90.8 20.7 L90.9 19.35 94.65 19.45 Q94.9 21.55 94.45 22.55 L91.4 22.35 Q90.8 21.75 90.8 20.7 M102.95 15.8 Q102.95 14.55 104.0 13.95 105.05 13.3 107.45 13.1 108.5 16.15 107.8 16.65 106.25 17.2 104.0 17.9 L103.2 17.35 Q102.95 16.95 102.95 15.8 Z" fill="none" stroke="#000000" stroke-linecap="round" stroke-linejoin="round" stroke-opacity="0.0" stroke-width="1.0"/>
    </g>
    <g id="morphshape3" transform="matrix(1.0, 0.0, 0.0, 1.0, -32.35, -6.65)">
      <path d="M91.6 10.15 Q91.6 11.3 91.75 11.7 L92.2 12.45 94.2 12.45 94.7 11.95 94.85 10.75 94.6 9.25 Q94.3 8.8 91.75 8.75 91.6 8.4 91.6 10.15 M69.2 12.95 Q69.1 13.35 69.9 13.95 70.5 14.1 71.2 14.2 72.45 14.1 73.8 13.55 74.1 12.95 73.85 12.3 72.15 12.45 69.45 12.35 L69.15 13.0 M66.15 30.95 L66.45 32.9 Q66.65 33.95 67.1 34.8 L70.6 34.8 Q70.85 34.55 71.1 34.35 L70.7 31.25 67.15 30.7 Q66.35 30.65 66.15 30.95 M41.4 13.6 L41.6 14.95 41.95 15.45 43.5 15.5 Q44.55 15.5 45.15 15.05 45.35 14.9 45.35 13.15 45.35 12.0 45.0 11.45 L44.3 10.8 41.5 11.9 41.4 13.6 M33.8 29.2 L34.05 30.2 Q34.4 31.0 34.85 31.3 38.95 30.75 38.95 28.35 38.95 27.25 38.6 26.95 L37.75 26.6 36.0 26.85 34.15 27.0 33.8 29.2" fill="#ffffff" fill-opacity="0.7058824" fill-rule="evenodd" stroke="none"/>
      <path d="M33.8 29.2 L34.15 27.0 36.0 26.85 37.75 26.6 38.6 26.95 Q38.95 27.25 38.95 28.35 38.95 30.75 34.85 31.3 34.4 31.0 34.05 30.2 L33.8 29.2 M41.4 13.6 L41.5 11.9 44.3 10.8 45.0 11.45 Q45.35 12.0 45.35 13.15 45.35 14.9 45.15 15.05 44.55 15.5 43.5 15.5 L41.95 15.45 41.6 14.95 41.4 13.6 M66.15 30.95 Q66.35 30.65 67.15 30.7 L70.7 31.25 71.1 34.35 Q70.85 34.55 70.6 34.8 L67.1 34.8 Q66.65 33.95 66.45 32.9 L66.15 30.95 M69.15 13.0 L69.45 12.35 Q72.15 12.45 73.85 12.3 74.1 12.95 73.8 13.55 72.45 14.1 71.2 14.2 70.5 14.1 69.9 13.95 69.1 13.35 69.2 12.95 M91.6 10.15 Q91.6 8.4 91.75 8.75 94.3 8.8 94.6 9.25 L94.85 10.75 94.7 11.95 94.2 12.45 92.2 12.45 91.75 11.7 Q91.6 11.3 91.6 10.15 Z" fill="none" stroke="#000000" stroke-linecap="round" stroke-linejoin="round" stroke-opacity="0.0" stroke-width="1.0"/>
    </g>
  </defs>
</svg>
