<?xml version="1.0" encoding="UTF-8" standalone="no"?>
<svg xmlns:xlink="http://www.w3.org/1999/xlink" height="47.45px" width="141.0px" xmlns="http://www.w3.org/2000/svg">
  <g transform="matrix(1.0, 0.0, 0.0, 1.0, -4.35, -2.9)">
    <use data-characterId="3188" height="47.45" transform="matrix(1.0, 0.0, 0.0, 1.0, 4.35, 2.9)" width="141.0" xlink:href="#morphshape0"/>
    <use data-characterId="3189" height="37.5" transform="matrix(1.0, 0.0, 0.0, 1.0, 17.5, 9.15)" width="116.05" xlink:href="#morphshape1"/>
    <use data-characterId="3190" height="21.8" transform="matrix(1.0, 0.0, 0.0, 1.0, 37.6, 4.7)" width="75.1" xlink:href="#morphshape2"/>
    <use data-characterId="3191" height="35.65" transform="matrix(1.0, 0.0, 0.0, 1.0, 32.35, 6.65)" width="66.65" xlink:href="#morphshape3"/>
  </g>
  <defs>
    <g id="morphshape0" transform="matrix(1.0, 0.0, 0.0, 1.0, -4.35, -2.9)">
      <path d="M5.1 17.15 Q4.65 18.7 12.65 20.0 20.65 21.25 30.1 21.85 40.8 22.55 27.2 23.8 13.45 24.55 22.75 26.25 32.25 27.75 25.95 28.45 19.6 29.05 15.35 30.65 11.2 32.45 15.35 32.95 19.4 33.4 21.05 33.85 23.25 34.3 25.4 34.7 L35.5 35.45 Q30.05 37.1 31.55 37.8 21.45 40.5 38.1 40.15 40.95 40.55 52.0 39.25 43.25 42.1 44.35 43.25 45.6 44.45 52.8 44.85 60.65 45.15 68.85 45.9 78.2 46.6 71.9 48.4 65.3 50.2 68.3 49.75 73.1 49.35 77.4 49.35 L91.9 48.8 Q100.15 48.4 103.1 47.4 107.25 46.55 106.55 45.1 105.25 44.1 108.1 41.5 110.85 40.4 103.55 38.3 122.3 37.45 123.7 35.65 126.25 34.2 121.15 33.85 121.35 33.2 118.95 32.8 126.6 31.35 126.45 30.45 126.55 29.65 122.8 28.8 119.3 28.05 115.8 27.6 112.35 27.15 124.35 25.8 136.4 24.45 140.3 22.7 144.15 20.9 135.85 19.6 128.8 18.3 124.3 18.35 L122.55 18.4 122.25 18.3 Q123.2 17.6 122.0 16.95 131.95 15.7 126.6 14.65 122.1 13.6 116.1 13.45 116.5 12.2 114.0 11.45 104.6 7.25 93.4 5.0 84.15 2.75 59.6 3.65 40.5 4.5 23.1 8.0 5.5 10.85 8.3 11.9 11.1 12.9 23.8 13.8 36.45 14.6 30.8 14.85 25.2 14.95 19.65 15.1 L11.4 15.55 4.9 16.3 Q4.6 16.75 4.8 17.2" fill="#96e0bc" fill-opacity="0.7058824" fill-rule="evenodd" stroke="none"/>
      <path d="M4.8 17.2 Q4.6 16.75 4.9 16.3 L11.4 15.55 19.65 15.1 Q25.2 14.95 30.8 14.85 36.45 14.6 23.8 13.8 11.1 12.9 8.3 11.9 5.5 10.85 23.1 8.0 40.5 4.5 59.6 3.65 84.15 2.75 93.4 5.0 104.6 7.25 114.0 11.45 116.5 12.2 116.1 13.45 122.1 13.6 126.6 14.65 131.95 15.7 122.0 16.95 123.2 17.6 122.25 18.3 L122.55 18.4 124.3 18.35 Q128.8 18.3 135.85 19.6 144.15 20.9 140.3 22.7 136.4 24.45 124.35 25.8 112.35 27.15 115.8 27.6 119.3 28.05 122.8 28.8 126.55 29.65 126.45 30.45 126.6 31.35 118.95 32.8 121.35 33.2 121.15 33.85 126.25 34.2 123.7 35.65 122.3 37.45 103.55 38.3 110.85 40.4 108.1 41.5 105.25 44.1 106.55 45.1 107.25 46.55 103.1 47.4 100.15 48.4 91.9 48.8 L77.4 49.35 Q73.1 49.35 68.3 49.75 65.3 50.2 71.9 48.4 78.2 46.6 68.85 45.9 60.65 45.15 52.8 44.85 45.6 44.45 44.35 43.25 43.25 42.1 52.0 39.25 40.95 40.55 38.1 40.15 21.45 40.5 31.55 37.8 30.05 37.1 35.5 35.45 L25.4 34.7 Q23.25 34.3 21.05 33.85 19.4 33.4 15.35 32.95 11.2 32.45 15.35 30.65 19.6 29.05 25.95 28.45 32.25 27.75 22.75 26.25 13.45 24.55 27.2 23.8 40.8 22.55 30.1 21.85 20.65 21.25 12.65 20.0 4.65 18.7 5.1 17.15" fill="none" stroke="#000000" stroke-linecap="round" stroke-linejoin="round" stroke-opacity="0.0" stroke-width="1.0"/>
    </g>
    <g id="morphshape1" transform="matrix(1.0, 0.0, 0.0, 1.0, -17.5, -9.15)">
      <path d="M125.35 22.2 Q125.35 22.95 125.8 23.65 126.55 24.7 129.4 24.45 L128.65 22.25 Q127.65 21.9 125.35 22.2 M102.05 32.5 Q102.05 32.85 103.15 33.65 L106.45 33.75 108.6 32.75 Q110.8 31.7 111.2 31.2 L109.7 30.0 105.5 29.6 Q102.05 29.8 102.05 32.5 M88.7 42.15 L89.15 42.95 Q90.35 43.25 91.7 43.5 L94.25 43.65 98.0 43.5 98.7 43.3 99.1 42.9 99.25 42.15 99.2 41.65 Q99.05 40.9 98.35 40.45 97.25 39.75 92.55 39.85 90.6 40.15 89.1 41.35 L88.65 42.1 M78.25 34.2 L78.25 34.25 78.55 34.85 Q79.25 35.25 80.4 35.65 L82.45 36.05 85.45 36.15 85.9 36.0 86.2 35.75 86.4 35.2 86.4 34.75 Q86.35 34.0 85.9 33.65 85.05 32.95 81.4 32.85 79.85 33.05 78.5 33.6 L78.3 34.2 M61.6 38.55 L62.15 39.45 68.5 39.85 Q72.55 39.85 75.4 37.6 75.4 35.7 69.35 35.55 63.1 35.45 61.6 38.55 M56.4 41.15 Q56.5 41.6 56.65 41.9 L59.7 41.9 Q60.15 41.65 60.4 40.05 L56.9 40.25 Q56.4 40.6 56.4 41.15 M49.0 34.75 L50.2 35.95 Q52.25 37.1 56.55 37.1 58.1 37.1 59.85 34.95 59.85 32.0 54.45 32.05 49.0 32.1 49.0 34.75 M30.55 29.7 Q30.7 30.25 33.45 31.4 36.95 32.1 40.55 32.15 L44.35 31.45 Q45.4 30.7 45.8 28.65 45.25 25.8 37.65 26.3 30.0 26.75 30.55 29.75 M21.25 12.8 Q21.25 13.25 21.7 13.95 L22.65 14.9 29.5 15.0 Q30.7 14.1 30.7 13.55 30.7 11.7 26.0 11.6 21.25 11.55 21.25 12.8" fill="#bef0d8" fill-opacity="0.7058824" fill-rule="evenodd" stroke="none"/>
      <path d="M21.25 12.8 Q21.25 11.55 26.0 11.6 30.7 11.7 30.7 13.55 30.7 14.1 29.5 15.0 L22.65 14.9 21.7 13.95 Q21.25 13.25 21.25 12.8 M30.55 29.75 Q30.0 26.75 37.65 26.3 45.25 25.8 45.8 28.65 45.4 30.7 44.35 31.45 L40.55 32.15 Q36.95 32.1 33.45 31.4 30.7 30.25 30.55 29.7 M49.0 34.75 Q49.0 32.1 54.45 32.05 59.85 32.0 59.85 34.95 58.1 37.1 56.55 37.1 52.25 37.1 50.2 35.95 L49.0 34.75 M56.4 41.15 Q56.4 40.6 56.9 40.25 L60.4 40.05 Q60.15 41.65 59.7 41.9 L56.65 41.9 Q56.5 41.6 56.4 41.15 M61.6 38.55 Q63.1 35.45 69.35 35.55 75.4 35.7 75.4 37.6 72.55 39.85 68.5 39.85 L62.15 39.45 61.6 38.55 M78.3 34.2 L78.5 33.6 Q79.85 33.05 81.4 32.85 85.05 32.95 85.9 33.65 86.35 34.0 86.4 34.75 L86.4 35.2 86.2 35.75 85.9 36.0 85.45 36.15 82.45 36.05 80.4 35.65 Q79.25 35.25 78.55 34.85 L78.25 34.25 78.25 34.2 M88.65 42.1 L89.1 41.35 Q90.6 40.15 92.55 39.85 97.25 39.75 98.35 40.45 99.05 40.9 99.2 41.65 L99.25 42.15 99.1 42.9 98.7 43.3 98.0 43.5 94.25 43.65 91.7 43.5 Q90.35 43.25 89.15 42.95 L88.7 42.15 M102.05 32.5 Q102.05 29.8 105.5 29.6 L109.7 30.0 111.2 31.2 Q110.8 31.7 108.6 32.75 L106.45 33.75 103.15 33.65 Q102.05 32.85 102.05 32.5 M125.35 22.2 Q127.65 21.9 128.65 22.25 L129.4 24.45 Q126.55 24.7 125.8 23.65 125.35 22.95 125.35 22.2 Z" fill="none" stroke="#000000" stroke-linecap="round" stroke-linejoin="round" stroke-opacity="0.0" stroke-width="1.0"/>
    </g>
    <g id="morphshape2" transform="matrix(1.0, 0.0, 0.0, 1.0, -37.6, -4.7)">
      <path d="M105.8 17.95 Q105.8 19.1 106.05 19.5 L106.85 20.05 Q109.6 19.3 110.65 18.8 111.35 18.3 110.3 15.25 107.9 15.45 106.85 16.1 105.8 16.7 105.8 17.95 M92.95 18.1 Q92.95 19.15 93.55 19.75 L96.6 19.95 Q97.05 18.95 96.8 16.85 L93.05 16.75 92.95 18.1 M91.65 9.8 Q91.65 10.85 92.05 11.75 L98.0 11.75 Q99.05 10.7 99.05 7.2 94.35 6.75 92.7 7.6 91.65 8.2 91.65 9.8 M83.35 17.9 Q83.4 18.85 84.15 20.7 84.8 21.15 86.35 21.3 L87.15 20.1 Q87.65 19.4 86.95 17.6 L83.35 17.9 M76.3 12.65 Q75.9 14.55 76.7 16.05 77.7 17.8 79.95 17.8 81.1 17.8 82.3 16.05 81.45 13.65 79.8 13.0 L76.3 12.65 M64.7 10.55 L64.75 12.0 65.1 12.55 70.55 13.3 73.85 13.7 Q75.6 13.7 74.5 11.25 74.5 8.2 69.6 8.05 64.7 7.95 64.7 10.55 M56.1 19.7 L56.2 20.8 56.5 21.15 Q56.9 21.25 57.35 21.3 58.3 21.35 59.45 21.4 L62.85 21.2 Q63.05 19.95 62.5 17.3 61.7 15.8 60.95 14.95 59.7 14.0 58.35 14.45 56.1 15.55 56.1 19.7 M51.45 11.9 L51.45 12.05 51.5 12.75 51.6 12.95 Q51.8 13.3 52.1 13.35 L53.65 13.65 Q55.15 13.2 55.9 13.15 56.15 11.95 56.05 10.25 55.55 9.1 55.1 8.25 54.15 7.9 53.15 8.05 51.4 9.05 51.4 11.95 M40.1 13.0 L41.2 15.1 Q42.9 17.25 45.9 17.25 49.8 17.25 49.8 14.05 49.8 11.05 44.95 10.25 40.1 9.4 40.1 13.0" fill="#bef0d8" fill-opacity="0.7058824" fill-rule="evenodd" stroke="none"/>
      <path d="M40.1 13.0 Q40.1 9.4 44.95 10.25 49.8 11.05 49.8 14.05 49.8 17.25 45.9 17.25 42.9 17.25 41.2 15.1 L40.1 13.0 M51.4 11.95 Q51.4 9.05 53.15 8.05 54.15 7.9 55.1 8.25 55.55 9.1 56.05 10.25 56.15 11.95 55.9 13.15 55.15 13.2 53.65 13.65 L52.1 13.35 Q51.8 13.3 51.6 12.95 L51.5 12.75 51.45 12.05 51.45 11.9 M56.1 19.7 Q56.1 15.55 58.35 14.45 59.7 14.0 60.95 14.95 61.7 15.8 62.5 17.3 63.05 19.95 62.85 21.2 L59.45 21.4 Q58.3 21.35 57.35 21.3 56.9 21.25 56.5 21.15 L56.2 20.8 56.1 19.7 M64.7 10.55 Q64.7 7.95 69.6 8.05 74.5 8.2 74.5 11.25 75.6 13.7 73.85 13.7 L70.55 13.3 65.1 12.55 64.75 12.0 64.7 10.55 M76.3 12.65 L79.8 13.0 Q81.45 13.65 82.3 16.05 81.1 17.8 79.95 17.8 77.7 17.8 76.7 16.05 75.9 14.55 76.3 12.65 M83.35 17.9 L86.95 17.6 Q87.65 19.4 87.15 20.1 L86.35 21.3 Q84.8 21.15 84.15 20.7 83.4 18.85 83.35 17.9 M91.65 9.8 Q91.65 8.2 92.7 7.6 94.35 6.75 99.05 7.2 99.05 10.7 98.0 11.75 L92.05 11.75 Q91.65 10.85 91.65 9.8 M92.95 18.1 L93.05 16.75 96.8 16.85 Q97.05 18.95 96.6 19.95 L93.55 19.75 Q92.95 19.15 92.95 18.1 M105.8 17.95 Q105.8 16.7 106.85 16.1 107.9 15.45 110.3 15.25 111.35 18.3 110.65 18.8 109.6 19.3 106.85 20.05 L106.05 19.5 Q105.8 19.1 105.8 17.95 Z" fill="none" stroke="#000000" stroke-linecap="round" stroke-linejoin="round" stroke-opacity="0.0" stroke-width="1.0"/>
    </g>
    <g id="morphshape3" transform="matrix(1.0, 0.0, 0.0, 1.0, -32.35, -6.65)">
      <path d="M95.4 8.3 Q95.4 9.45 95.55 9.85 L96.0 10.6 98.0 10.6 98.5 10.1 98.65 8.9 98.4 7.4 Q98.1 6.95 95.55 6.9 95.4 6.55 95.4 8.3 M68.75 10.35 Q68.5 10.7 69.05 11.6 69.4 12.05 70.2 12.35 L72.95 12.7 Q73.45 12.25 73.45 11.55 73.25 11.1 69.3 9.9 L68.75 10.35 M65.9 35.9 L66.2 37.85 Q66.4 38.9 66.85 39.75 L70.35 39.75 Q70.55 39.45 70.85 39.3 L70.45 36.2 66.9 35.65 Q66.1 35.6 65.9 35.9 M43.4 14.7 L43.6 16.05 43.95 16.55 45.5 16.6 Q46.55 16.6 47.15 16.15 47.35 16.0 47.35 14.25 47.35 13.1 47.0 12.55 L46.3 11.9 43.5 13.0 43.4 14.7 M36.1 29.2 L36.35 30.2 Q36.7 31.0 37.15 31.3 41.25 30.75 41.25 28.35 41.25 27.25 40.9 26.95 L40.05 26.6 38.3 26.85 36.45 27.0 36.1 29.2" fill="#ffffff" fill-opacity="0.7058824" fill-rule="evenodd" stroke="none"/>
      <path d="M36.1 29.2 L36.45 27.0 38.3 26.85 40.05 26.6 40.9 26.95 Q41.25 27.25 41.25 28.35 41.25 30.75 37.15 31.3 36.7 31.0 36.35 30.2 L36.1 29.2 M43.4 14.7 L43.5 13.0 46.3 11.9 47.0 12.55 Q47.35 13.1 47.35 14.25 47.35 16.0 47.15 16.15 46.55 16.6 45.5 16.6 L43.95 16.55 43.6 16.05 43.4 14.7 M65.9 35.9 Q66.1 35.6 66.9 35.65 L70.45 36.2 70.85 39.3 Q70.55 39.45 70.35 39.75 L66.85 39.75 Q66.4 38.9 66.2 37.85 L65.9 35.9 M68.75 10.35 L69.3 9.9 Q73.25 11.1 73.45 11.55 73.45 12.25 72.95 12.7 L70.2 12.35 Q69.4 12.05 69.05 11.6 68.5 10.7 68.75 10.35 M95.4 8.3 Q95.4 6.55 95.55 6.9 98.1 6.95 98.4 7.4 L98.65 8.9 98.5 10.1 98.0 10.6 96.0 10.6 95.55 9.85 Q95.4 9.45 95.4 8.3 Z" fill="none" stroke="#000000" stroke-linecap="round" stroke-linejoin="round" stroke-opacity="0.0" stroke-width="1.0"/>
    </g>
  </defs>
</svg>
