<?xml version="1.0" encoding="UTF-8" standalone="no"?>
<svg xmlns:xlink="http://www.w3.org/1999/xlink" height="47.45px" width="141.0px" xmlns="http://www.w3.org/2000/svg">
  <g transform="matrix(1.0, 0.0, 0.0, 1.0, -4.35, -2.9)">
    <use data-characterId="3192" height="47.45" transform="matrix(1.0, 0.0, 0.0, 1.0, 4.35, 2.9)" width="141.0" xlink:href="#morphshape0"/>
    <use data-characterId="3193" height="37.5" transform="matrix(1.0, 0.0, 0.0, 1.0, 17.5, 9.15)" width="116.05" xlink:href="#morphshape1"/>
    <use data-characterId="3194" height="21.8" transform="matrix(1.0, 0.0, 0.0, 1.0, 37.6, 4.7)" width="75.1" xlink:href="#morphshape2"/>
    <use data-characterId="3195" height="35.65" transform="matrix(1.0, 0.0, 0.0, 1.0, 32.35, 6.65)" width="66.65" xlink:href="#morphshape3"/>
  </g>
  <defs>
    <g id="morphshape0" transform="matrix(1.0, 0.0, 0.0, 1.0, -4.35, -2.9)">
      <path d="M5.05 17.15 Q4.6 18.7 12.6 20.0 20.6 21.25 30.05 21.85 40.75 22.55 27.2 23.8 13.45 24.55 22.7 26.25 32.2 27.75 25.9 28.45 19.55 29.05 15.3 30.65 11.15 32.45 15.3 32.95 19.3 33.4 20.95 33.85 23.15 34.3 25.3 34.7 L35.35 35.45 Q29.9 37.1 31.4 37.8 21.35 40.5 38.0 40.15 40.85 40.55 51.85 39.25 43.15 42.1 44.3 43.25 45.55 44.45 52.75 44.85 60.6 45.15 68.8 45.9 78.15 46.6 71.9 48.4 65.35 50.2 68.35 49.75 73.15 49.35 77.45 49.35 L91.95 48.8 Q100.2 48.4 103.15 47.4 107.3 46.55 106.65 45.1 105.35 44.1 108.2 41.5 110.95 40.4 103.65 38.3 122.35 37.45 123.75 35.65 126.3 34.2 121.25 33.85 121.45 33.2 119.05 32.8 126.65 31.35 126.5 30.45 126.6 29.65 122.85 28.8 119.35 28.05 115.9 27.6 112.45 27.15 124.45 25.8 136.5 24.45 140.4 22.7 144.25 20.9 135.95 19.6 128.95 18.3 124.45 18.35 L122.7 18.4 122.4 18.3 Q123.4 17.6 122.2 16.95 132.1 15.7 126.75 14.65 122.25 13.6 116.3 13.45 116.7 12.2 114.15 11.45 104.75 7.25 93.5 5.0 84.2 2.75 59.65 3.65 40.55 4.5 23.2 8.0 5.6 10.85 8.35 11.9 11.1 12.9 23.8 13.8 36.4 14.6 30.8 14.85 25.2 14.95 19.65 15.1 L11.4 15.55 4.9 16.3 Q4.6 16.75 4.8 17.2" fill="#96e0bc" fill-opacity="0.7058824" fill-rule="evenodd" stroke="none"/>
      <path d="M4.8 17.2 Q4.6 16.75 4.9 16.3 L11.4 15.55 19.65 15.1 Q25.2 14.95 30.8 14.85 36.4 14.6 23.8 13.8 11.1 12.9 8.35 11.9 5.6 10.85 23.2 8.0 40.55 4.5 59.65 3.65 84.2 2.75 93.5 5.0 104.75 7.25 114.15 11.45 116.7 12.2 116.3 13.45 122.25 13.6 126.75 14.65 132.1 15.7 122.2 16.95 123.4 17.6 122.4 18.3 L122.7 18.4 124.45 18.35 Q128.95 18.3 135.95 19.6 144.25 20.9 140.4 22.7 136.5 24.45 124.45 25.8 112.45 27.15 115.9 27.6 119.35 28.05 122.85 28.8 126.6 29.65 126.5 30.45 126.65 31.35 119.05 32.8 121.45 33.2 121.25 33.85 126.3 34.2 123.75 35.65 122.35 37.45 103.65 38.3 110.95 40.4 108.2 41.5 105.35 44.1 106.65 45.1 107.3 46.55 103.15 47.4 100.2 48.4 91.95 48.8 L77.45 49.35 Q73.15 49.35 68.35 49.75 65.35 50.2 71.9 48.4 78.15 46.6 68.8 45.9 60.6 45.15 52.75 44.85 45.55 44.45 44.3 43.25 43.15 42.1 51.85 39.25 40.85 40.55 38.0 40.15 21.35 40.5 31.4 37.8 29.9 37.1 35.35 35.45 L25.3 34.7 Q23.15 34.3 20.95 33.85 19.3 33.4 15.3 32.95 11.15 32.45 15.3 30.65 19.55 29.05 25.9 28.45 32.2 27.75 22.7 26.25 13.45 24.55 27.2 23.8 40.75 22.55 30.05 21.85 20.6 21.25 12.6 20.0 4.6 18.7 5.05 17.15" fill="none" stroke="#000000" stroke-linecap="round" stroke-linejoin="round" stroke-opacity="0.0" stroke-width="1.0"/>
    </g>
    <g id="morphshape1" transform="matrix(1.0, 0.0, 0.0, 1.0, -17.5, -9.15)">
      <path d="M125.35 22.2 Q125.35 22.95 125.8 23.65 126.55 24.7 129.4 24.45 L128.65 22.25 Q127.65 21.9 125.35 22.2 M102.05 32.5 Q102.05 32.85 103.15 33.65 L106.45 33.75 108.6 32.75 Q110.8 31.7 111.2 31.2 L109.7 30.0 105.5 29.6 Q102.05 29.8 102.05 32.5 M88.7 42.05 L88.7 42.1 89.15 42.9 Q90.35 43.2 91.7 43.45 L94.25 43.6 98.0 43.45 98.7 43.25 99.1 42.85 99.25 42.1 99.2 41.6 Q99.05 40.85 98.35 40.4 97.25 39.7 92.55 39.8 90.6 40.1 89.1 41.3 L88.65 42.05 M78.25 34.2 L78.55 34.9 Q79.25 35.3 80.4 35.7 L82.45 36.1 85.45 36.2 85.9 36.05 86.2 35.8 86.4 35.25 86.4 34.8 Q86.35 34.05 85.9 33.7 85.05 33.0 81.4 32.9 79.85 33.1 78.5 33.65 L78.3 34.25 M61.6 38.55 L62.15 39.45 68.5 39.85 Q72.55 39.85 75.4 37.6 75.4 35.7 69.35 35.55 63.1 35.45 61.6 38.55 M56.4 41.15 Q56.5 41.6 56.65 41.9 L59.7 41.9 Q60.15 41.65 60.4 40.05 L56.9 40.25 Q56.4 40.6 56.4 41.15 M49.0 34.75 L50.2 35.95 Q52.25 37.1 56.55 37.1 58.1 37.1 59.85 34.95 59.85 32.0 54.45 32.05 49.0 32.1 49.0 34.75 M30.5 29.7 Q30.65 30.25 33.4 31.4 36.9 32.1 40.5 32.15 L44.3 31.45 Q45.35 30.7 45.75 28.65 45.2 25.8 37.6 26.3 29.95 26.75 30.5 29.75 M21.2 12.85 Q21.2 13.3 21.65 14.0 L22.6 14.95 29.45 15.05 Q30.65 14.15 30.65 13.6 30.65 11.75 25.95 11.65 21.2 11.6 21.2 12.85" fill="#bef0d8" fill-opacity="0.7058824" fill-rule="evenodd" stroke="none"/>
      <path d="M21.2 12.85 Q21.2 11.6 25.95 11.65 30.65 11.75 30.65 13.6 30.65 14.15 29.45 15.05 L22.6 14.95 21.65 14.0 Q21.2 13.3 21.2 12.85 M30.5 29.75 Q29.95 26.75 37.6 26.3 45.2 25.8 45.75 28.65 45.35 30.7 44.3 31.45 L40.5 32.15 Q36.9 32.1 33.4 31.4 30.65 30.25 30.5 29.7 M49.0 34.75 Q49.0 32.1 54.45 32.05 59.85 32.0 59.85 34.95 58.1 37.1 56.55 37.1 52.25 37.1 50.2 35.95 L49.0 34.75 M56.4 41.15 Q56.4 40.6 56.9 40.25 L60.4 40.05 Q60.15 41.65 59.7 41.9 L56.65 41.9 Q56.5 41.6 56.4 41.15 M61.6 38.55 Q63.1 35.45 69.35 35.55 75.4 35.7 75.4 37.6 72.55 39.85 68.5 39.85 L62.15 39.45 61.6 38.55 M78.3 34.25 L78.5 33.65 Q79.85 33.1 81.4 32.9 85.05 33.0 85.9 33.7 86.35 34.05 86.4 34.8 L86.4 35.25 86.2 35.8 85.9 36.05 85.45 36.2 82.45 36.1 80.4 35.7 Q79.25 35.3 78.55 34.9 L78.25 34.2 M88.65 42.05 L89.1 41.3 Q90.6 40.1 92.55 39.8 97.25 39.7 98.35 40.4 99.05 40.85 99.2 41.6 L99.25 42.1 99.1 42.85 98.7 43.25 98.0 43.45 94.25 43.6 91.7 43.45 Q90.35 43.2 89.15 42.9 L88.7 42.1 88.7 42.05 M102.05 32.5 Q102.05 29.8 105.5 29.6 L109.7 30.0 111.2 31.2 Q110.8 31.7 108.6 32.75 L106.45 33.75 103.15 33.65 Q102.05 32.85 102.05 32.5 M125.35 22.2 Q127.65 21.9 128.65 22.25 L129.4 24.45 Q126.55 24.7 125.8 23.65 125.35 22.95 125.35 22.2 Z" fill="none" stroke="#000000" stroke-linecap="round" stroke-linejoin="round" stroke-opacity="0.0" stroke-width="1.0"/>
    </g>
    <g id="morphshape2" transform="matrix(1.0, 0.0, 0.0, 1.0, -37.6, -4.7)">
      <path d="M105.8 17.95 Q105.8 19.1 106.05 19.5 L106.85 20.05 Q109.6 19.3 110.65 18.8 111.35 18.3 110.3 15.25 107.9 15.45 106.85 16.1 105.8 16.7 105.8 17.95 M92.95 18.1 Q92.95 19.15 93.55 19.75 L96.6 19.95 Q97.05 18.95 96.8 16.85 L93.05 16.75 92.95 18.1 M91.65 9.8 Q91.65 10.85 92.05 11.75 L98.0 11.75 Q99.05 10.7 99.05 7.2 94.35 6.75 92.7 7.6 91.65 8.2 91.65 9.8 M83.3 17.95 Q83.35 18.9 84.1 20.75 84.75 21.2 86.3 21.35 L87.1 20.15 Q87.6 19.45 86.9 17.65 L83.3 17.95 M76.35 12.65 Q75.95 14.55 76.75 16.05 77.75 17.8 80.0 17.8 81.15 17.8 82.35 16.05 81.5 13.65 79.85 13.0 L76.35 12.65 M64.7 10.55 L64.75 12.0 65.1 12.55 70.55 13.3 73.85 13.7 Q75.6 13.7 74.5 11.25 74.5 8.2 69.6 8.05 64.7 7.95 64.7 10.55 M56.1 19.7 L56.1 19.75 56.2 20.8 56.5 21.15 Q56.9 21.25 57.35 21.3 58.3 21.35 59.45 21.4 L62.85 21.2 Q63.05 19.95 62.5 17.3 61.7 15.8 60.95 14.95 59.7 14.0 58.35 14.45 56.1 15.55 56.1 19.7 M51.45 11.95 L51.5 12.8 51.6 13.0 Q51.8 13.35 52.1 13.4 L53.65 13.7 Q55.15 13.25 55.9 13.2 56.15 12.0 56.05 10.3 55.55 9.15 55.1 8.3 54.15 7.95 53.15 8.1 51.4 9.1 51.4 12.0 M40.1 13.0 L41.2 15.1 Q42.9 17.25 45.9 17.25 49.8 17.25 49.8 14.05 49.8 11.05 44.95 10.25 40.1 9.4 40.1 13.0" fill="#bef0d8" fill-opacity="0.7058824" fill-rule="evenodd" stroke="none"/>
      <path d="M40.1 13.0 Q40.1 9.4 44.95 10.25 49.8 11.05 49.8 14.05 49.8 17.25 45.9 17.25 42.9 17.25 41.2 15.1 L40.1 13.0 M51.4 12.0 Q51.4 9.1 53.15 8.1 54.15 7.95 55.1 8.3 55.55 9.15 56.05 10.3 56.15 12.0 55.9 13.2 55.15 13.25 53.65 13.7 L52.1 13.4 Q51.8 13.35 51.6 13.0 L51.5 12.8 51.45 11.95 M56.1 19.7 Q56.1 15.55 58.35 14.45 59.7 14.0 60.95 14.95 61.7 15.8 62.5 17.3 63.05 19.95 62.85 21.2 L59.45 21.4 Q58.3 21.35 57.35 21.3 56.9 21.25 56.5 21.15 L56.2 20.8 56.1 19.75 56.1 19.7 M64.7 10.55 Q64.7 7.95 69.6 8.05 74.5 8.2 74.5 11.25 75.6 13.7 73.85 13.7 L70.55 13.3 65.1 12.55 64.75 12.0 64.7 10.55 M76.35 12.65 L79.85 13.0 Q81.5 13.65 82.35 16.05 81.15 17.8 80.0 17.8 77.75 17.8 76.75 16.05 75.95 14.55 76.35 12.65 M83.3 17.95 L86.9 17.65 Q87.6 19.45 87.1 20.15 L86.3 21.35 Q84.75 21.2 84.1 20.75 83.35 18.9 83.3 17.95 M91.65 9.8 Q91.65 8.2 92.7 7.6 94.35 6.75 99.05 7.2 99.05 10.7 98.0 11.75 L92.05 11.75 Q91.65 10.85 91.65 9.8 M92.95 18.1 L93.05 16.75 96.8 16.85 Q97.05 18.95 96.6 19.95 L93.55 19.75 Q92.95 19.15 92.95 18.1 M105.8 17.95 Q105.8 16.7 106.85 16.1 107.9 15.45 110.3 15.25 111.35 18.3 110.65 18.8 109.6 19.3 106.85 20.05 L106.05 19.5 Q105.8 19.1 105.8 17.95 Z" fill="none" stroke="#000000" stroke-linecap="round" stroke-linejoin="round" stroke-opacity="0.0" stroke-width="1.0"/>
    </g>
    <g id="morphshape3" transform="matrix(1.0, 0.0, 0.0, 1.0, -32.35, -6.65)">
      <path d="M94.15 8.9 Q94.15 10.05 94.3 10.45 L94.75 11.2 96.75 11.2 97.25 10.7 97.4 9.5 97.15 8.0 Q96.85 7.55 94.3 7.5 94.15 7.15 94.15 8.9 M68.7 10.55 Q68.5 10.95 69.15 11.75 69.5 12.1 70.35 12.3 71.7 12.4 73.05 12.25 73.5 11.75 73.4 11.05 72.65 10.8 69.2 10.0 L68.75 10.5 M65.9 35.55 L66.2 37.5 Q66.4 38.55 66.85 39.4 L70.35 39.4 Q70.55 39.1 70.85 38.95 L70.45 35.85 66.9 35.3 Q66.1 35.25 65.9 35.55 M43.4 14.7 L43.6 16.05 43.95 16.55 45.5 16.6 Q46.55 16.6 47.15 16.15 47.35 16.0 47.35 14.25 47.35 13.1 47.0 12.55 L46.3 11.9 43.5 13.0 43.4 14.7 M36.1 29.2 L36.35 30.2 Q36.7 31.0 37.15 31.3 41.25 30.75 41.25 28.35 41.25 27.25 40.9 26.95 L40.05 26.6 38.3 26.85 36.45 27.0 36.1 29.2" fill="#ffffff" fill-opacity="0.7058824" fill-rule="evenodd" stroke="none"/>
      <path d="M36.1 29.2 L36.45 27.0 38.3 26.85 40.05 26.6 40.9 26.95 Q41.25 27.25 41.25 28.35 41.25 30.75 37.15 31.3 36.7 31.0 36.35 30.2 L36.1 29.2 M43.4 14.7 L43.5 13.0 46.3 11.9 47.0 12.55 Q47.35 13.1 47.35 14.25 47.35 16.0 47.15 16.15 46.55 16.6 45.5 16.6 L43.95 16.55 43.6 16.05 43.4 14.7 M65.9 35.55 Q66.1 35.25 66.9 35.3 L70.45 35.85 70.85 38.95 Q70.55 39.1 70.35 39.4 L66.85 39.4 Q66.4 38.55 66.2 37.5 L65.9 35.55 M68.75 10.5 L69.2 10.0 Q72.65 10.8 73.4 11.05 73.5 11.75 73.05 12.25 71.7 12.4 70.35 12.3 69.5 12.1 69.15 11.75 68.5 10.95 68.7 10.55 M94.15 8.9 Q94.15 7.15 94.3 7.5 96.85 7.55 97.15 8.0 L97.4 9.5 97.25 10.7 96.75 11.2 94.75 11.2 94.3 10.45 Q94.15 10.05 94.15 8.9 Z" fill="none" stroke="#000000" stroke-linecap="round" stroke-linejoin="round" stroke-opacity="0.0" stroke-width="1.0"/>
    </g>
  </defs>
</svg>
