<?xml version="1.0" encoding="UTF-8" standalone="no"?>
<svg xmlns:xlink="http://www.w3.org/1999/xlink" height="47.45px" width="141.0px" xmlns="http://www.w3.org/2000/svg">
  <g transform="matrix(1.0, 0.0, 0.0, 1.0, -4.35, -2.9)">
    <use data-characterId="3188" height="47.45" transform="matrix(1.0, 0.0, 0.0, 1.0, 4.35, 2.9)" width="141.0" xlink:href="#morphshape0"/>
    <use data-characterId="3189" height="37.5" transform="matrix(1.0, 0.0, 0.0, 1.0, 17.5, 9.15)" width="116.05" xlink:href="#morphshape1"/>
    <use data-characterId="3190" height="21.8" transform="matrix(1.0, 0.0, 0.0, 1.0, 37.6, 4.7)" width="75.1" xlink:href="#morphshape2"/>
    <use data-characterId="3191" height="35.65" transform="matrix(1.0, 0.0, 0.0, 1.0, 32.35, 6.65)" width="66.65" xlink:href="#morphshape3"/>
  </g>
  <defs>
    <g id="morphshape0" transform="matrix(1.0, 0.0, 0.0, 1.0, -4.35, -2.9)">
      <path d="M5.05 16.8 Q4.4 18.4 13.3 19.8 22.2 21.15 32.8 21.75 44.1 22.4 28.2 23.45 12.2 24.25 23.3 26.0 34.55 27.65 27.25 28.3 19.9 28.9 14.9 30.6 9.95 32.4 14.55 32.85 19.05 33.25 20.65 33.75 22.55 34.25 24.7 34.55 L36.45 35.2 Q30.2 36.75 30.9 37.4 18.5 40.55 37.15 40.1 40.6 40.4 53.4 38.7 43.25 41.85 43.95 42.95 44.7 44.05 52.4 44.5 61.2 44.85 70.15 45.45 80.5 45.95 72.75 48.05 64.8 50.15 67.45 49.9 72.2 49.7 76.65 49.7 L92.3 49.25 Q101.3 48.85 104.2 47.75 107.8 46.7 106.4 45.5 104.65 44.55 107.85 41.8 110.1 40.65 101.4 38.4 122.5 37.85 124.85 35.95 127.85 34.3 122.0 33.9 120.55 33.45 117.65 33.1 126.4 31.55 126.65 30.7 127.0 29.85 122.9 28.95 118.95 28.1 113.9 27.75 108.9 27.4 122.6 26.2 136.35 25.0 141.35 23.15 146.3 21.3 137.6 19.8 129.65 18.3 124.65 18.35 L122.65 18.45 122.4 18.4 Q122.8 17.95 121.95 17.5 134.0 16.1 128.3 14.95 123.1 13.75 116.15 13.6 116.35 12.85 114.9 12.4 105.9 8.1 97.1 5.5 89.4 2.9 64.1 3.4 45.0 3.9 24.65 7.5 4.15 10.7 7.3 11.8 10.45 12.85 25.15 13.8 39.8 14.65 33.4 14.85 26.95 14.95 20.55 15.05 L12.45 15.4 4.9 16.3 Q4.7 16.55 4.85 16.8" fill="#96e0bc" fill-opacity="0.7058824" fill-rule="evenodd" stroke="none"/>
      <path d="M4.85 16.8 Q4.7 16.55 4.9 16.3 L12.45 15.4 20.55 15.05 Q26.95 14.95 33.4 14.85 39.8 14.65 25.15 13.8 10.45 12.85 7.3 11.8 4.15 10.7 24.65 7.5 45.0 3.9 64.1 3.4 89.4 2.9 97.1 5.5 105.9 8.1 114.9 12.4 116.35 12.85 116.15 13.6 123.1 13.75 128.3 14.95 134.0 16.1 121.95 17.5 122.8 17.95 122.4 18.4 L122.65 18.45 124.65 18.35 Q129.65 18.3 137.6 19.8 146.3 21.3 141.35 23.15 136.35 25.0 122.6 26.2 108.9 27.4 113.9 27.75 118.95 28.1 122.9 28.95 127.0 29.85 126.65 30.7 126.4 31.55 117.65 33.1 120.55 33.45 122.0 33.9 127.85 34.3 124.85 35.95 122.5 37.85 101.4 38.4 110.1 40.65 107.85 41.8 104.65 44.55 106.4 45.5 107.8 46.7 104.2 47.75 101.3 48.85 92.3 49.25 L76.65 49.7 Q72.2 49.7 67.45 49.9 64.8 50.15 72.75 48.05 80.5 45.95 70.15 45.45 61.2 44.85 52.4 44.5 44.7 44.05 43.95 42.95 43.25 41.85 53.4 38.7 40.6 40.4 37.15 40.1 18.5 40.55 30.9 37.4 30.2 36.75 36.45 35.2 L24.7 34.55 Q22.55 34.25 20.65 33.75 19.05 33.25 14.55 32.85 9.95 32.4 14.9 30.6 19.9 28.9 27.25 28.3 34.55 27.65 23.3 26.0 12.2 24.25 28.2 23.45 44.1 22.4 32.8 21.75 22.2 21.15 13.3 19.8 4.4 18.4 5.05 16.8" fill="none" stroke="#000000" stroke-linecap="round" stroke-linejoin="round" stroke-opacity="0.0" stroke-width="1.0"/>
    </g>
    <g id="morphshape1" transform="matrix(1.0, 0.0, 0.0, 1.0, -17.5, -9.15)">
      <path d="M127.1 21.95 Q127.1 22.7 127.55 23.4 128.3 24.45 131.15 24.2 L130.4 22.0 Q129.4 21.65 127.1 21.95 M102.5 33.15 Q102.5 33.5 103.6 34.3 L106.9 34.4 109.05 33.4 Q111.25 32.35 111.65 31.85 L110.15 30.65 105.95 30.25 Q102.5 30.45 102.5 33.15 M89.35 43.55 L89.85 44.4 Q91.15 44.65 92.55 44.9 L95.2 45.0 99.15 44.8 99.9 44.55 100.35 44.15 100.5 43.35 100.45 42.85 Q100.3 42.05 99.55 41.6 98.35 40.85 93.4 41.0 91.35 41.3 89.8 42.65 L89.3 43.45 M78.8 32.8 L78.8 32.9 79.05 33.45 Q79.65 33.9 80.75 34.3 L82.7 34.75 85.5 34.9 85.9 34.8 86.15 34.55 86.35 34.05 86.35 33.6 Q86.3 32.9 85.9 32.55 85.15 31.9 81.75 31.75 80.3 31.95 79.0 32.35 L78.85 32.9 M61.45 39.7 L62.0 40.6 68.35 41.0 Q72.4 41.0 75.25 38.75 75.25 36.85 69.2 36.7 62.95 36.6 61.45 39.7 M55.5 40.95 Q55.65 41.35 55.75 41.7 L58.8 41.7 Q59.25 41.45 59.5 39.85 L56.0 40.05 Q55.5 40.4 55.5 40.95 M49.0 34.35 L50.2 35.55 Q52.25 36.7 56.55 36.7 58.1 36.7 59.85 34.55 59.85 31.6 54.45 31.65 49.0 31.7 49.0 34.35 M31.2 30.1 Q31.35 30.65 34.15 31.7 37.7 32.15 41.3 32.2 L45.05 31.35 Q46.1 30.55 46.45 28.45 45.8 25.65 38.2 26.35 30.55 27.05 31.2 30.0 M21.85 11.8 Q21.85 12.25 22.3 12.95 L23.25 13.9 30.1 14.0 Q31.3 13.1 31.3 12.55 31.3 10.7 26.6 10.6 21.85 10.55 21.85 11.8" fill="#bef0d8" fill-opacity="0.7058824" fill-rule="evenodd" stroke="none"/>
      <path d="M21.85 11.8 Q21.85 10.55 26.6 10.6 31.3 10.7 31.3 12.55 31.3 13.1 30.1 14.0 L23.25 13.9 22.3 12.95 Q21.85 12.25 21.85 11.8 M31.2 30.0 Q30.55 27.05 38.2 26.35 45.8 25.65 46.45 28.45 46.1 30.55 45.05 31.35 L41.3 32.2 Q37.7 32.15 34.15 31.7 31.35 30.65 31.2 30.1 M49.0 34.35 Q49.0 31.7 54.45 31.65 59.85 31.6 59.85 34.55 58.1 36.7 56.55 36.7 52.25 36.7 50.2 35.55 L49.0 34.35 M55.5 40.95 Q55.5 40.4 56.0 40.05 L59.5 39.85 Q59.25 41.45 58.8 41.7 L55.75 41.7 Q55.65 41.35 55.5 40.95 M61.45 39.7 Q62.95 36.6 69.2 36.7 75.25 36.85 75.25 38.75 72.4 41.0 68.35 41.0 L62.0 40.6 61.45 39.7 M78.85 32.9 L79.0 32.35 Q80.3 31.95 81.75 31.75 85.15 31.9 85.9 32.55 86.3 32.9 86.35 33.6 L86.35 34.05 86.15 34.55 85.9 34.8 85.5 34.9 82.7 34.75 80.75 34.3 Q79.65 33.9 79.05 33.45 L78.8 32.9 78.8 32.8 M89.3 43.45 L89.8 42.65 Q91.35 41.3 93.4 41.0 98.35 40.85 99.55 41.6 100.3 42.05 100.45 42.85 L100.5 43.35 100.35 44.15 99.9 44.55 99.15 44.8 95.2 45.0 92.55 44.9 Q91.15 44.65 89.85 44.4 L89.35 43.55 M102.5 33.15 Q102.5 30.45 105.95 30.25 L110.15 30.65 111.65 31.85 Q111.25 32.35 109.05 33.4 L106.9 34.4 103.6 34.3 Q102.5 33.5 102.5 33.15 M127.1 21.95 Q129.4 21.65 130.4 22.0 L131.15 24.2 Q128.3 24.45 127.55 23.4 127.1 22.7 127.1 21.95 Z" fill="none" stroke="#000000" stroke-linecap="round" stroke-linejoin="round" stroke-opacity="0.0" stroke-width="1.0"/>
    </g>
    <g id="morphshape2" transform="matrix(1.0, 0.0, 0.0, 1.0, -37.6, -4.7)">
      <path d="M106.55 18.5 Q106.55 19.65 106.8 20.05 L107.6 20.6 Q110.5 19.8 111.4 19.35 112.1 18.85 111.05 15.8 108.65 16.0 107.6 16.65 106.55 17.25 106.55 18.5 M93.5 17.4 Q93.5 18.45 94.1 19.05 L97.15 19.25 Q97.6 18.25 97.35 16.15 L93.6 16.05 93.5 17.4 M92.25 9.45 Q92.25 10.5 92.65 11.4 L98.6 11.4 Q99.65 10.35 99.65 6.85 94.95 6.4 93.3 7.25 92.25 7.85 92.25 9.45 M83.95 17.1 Q84.0 18.05 84.75 19.9 85.4 20.35 86.95 20.5 L87.75 19.3 Q88.25 18.6 87.55 16.8 L83.95 17.1 M75.95 13.7 Q75.55 15.6 76.35 17.1 77.35 18.85 79.6 18.85 80.75 18.85 81.95 17.1 81.1 14.7 79.45 14.05 L75.95 13.7 M64.35 9.95 L64.4 11.4 64.75 11.95 70.2 12.7 73.5 13.1 Q75.25 13.1 74.15 10.65 74.15 7.6 69.25 7.45 64.35 7.35 64.35 9.95 M56.15 21.2 L56.25 22.35 56.6 22.75 Q57.05 22.8 57.55 22.8 58.65 22.85 59.85 22.9 L63.55 22.8 Q63.75 21.5 63.05 18.6 62.15 17.0 61.3 16.15 60.0 15.05 58.55 15.55 56.15 16.7 56.15 21.2 M51.95 10.15 L51.95 10.3 52.0 10.9 52.05 11.05 Q52.2 11.45 52.45 11.55 L53.85 11.9 Q55.25 11.35 55.8 11.25 56.05 10.1 56.1 8.65 55.7 7.6 55.35 6.75 54.45 6.55 53.55 6.65 51.95 7.6 51.95 10.15 M40.5 13.45 L41.6 15.55 Q43.3 17.7 46.3 17.7 50.2 17.7 50.2 14.5 50.2 11.5 45.35 10.7 40.5 9.85 40.5 13.45" fill="#bef0d8" fill-opacity="0.7058824" fill-rule="evenodd" stroke="none"/>
      <path d="M40.5 13.45 Q40.5 9.85 45.35 10.7 50.2 11.5 50.2 14.5 50.2 17.7 46.3 17.7 43.3 17.7 41.6 15.55 L40.5 13.45 M51.95 10.15 Q51.95 7.6 53.55 6.65 54.45 6.55 55.35 6.75 55.7 7.6 56.1 8.65 56.05 10.1 55.8 11.25 55.25 11.35 53.85 11.9 L52.45 11.55 Q52.2 11.45 52.05 11.05 L52.0 10.9 51.95 10.3 51.95 10.15 M56.15 21.2 Q56.15 16.7 58.55 15.55 60.0 15.05 61.3 16.15 62.15 17.0 63.05 18.6 63.75 21.5 63.55 22.8 L59.85 22.9 Q58.65 22.85 57.55 22.8 57.05 22.8 56.6 22.75 L56.25 22.35 56.15 21.2 M64.35 9.95 Q64.35 7.35 69.25 7.45 74.15 7.6 74.15 10.65 75.25 13.1 73.5 13.1 L70.2 12.7 64.75 11.95 64.4 11.4 64.35 9.95 M75.95 13.7 L79.45 14.05 Q81.1 14.7 81.95 17.1 80.75 18.85 79.6 18.85 77.35 18.85 76.35 17.1 75.55 15.6 75.95 13.7 M83.95 17.1 L87.55 16.8 Q88.25 18.6 87.75 19.3 L86.95 20.5 Q85.4 20.35 84.75 19.9 84.0 18.05 83.95 17.1 M92.25 9.45 Q92.25 7.85 93.3 7.25 94.95 6.4 99.65 6.85 99.65 10.35 98.6 11.4 L92.65 11.4 Q92.25 10.5 92.25 9.45 M93.5 17.4 L93.6 16.05 97.35 16.15 Q97.6 18.25 97.15 19.25 L94.1 19.05 Q93.5 18.45 93.5 17.4 M106.55 18.5 Q106.55 17.25 107.6 16.65 108.65 16.0 111.05 15.8 112.1 18.85 111.4 19.35 110.5 19.8 107.6 20.6 L106.8 20.05 Q106.55 19.65 106.55 18.5 Z" fill="none" stroke="#000000" stroke-linecap="round" stroke-linejoin="round" stroke-opacity="0.0" stroke-width="1.0"/>
    </g>
    <g id="morphshape3" transform="matrix(1.0, 0.0, 0.0, 1.0, -32.35, -6.65)">
      <path d="M95.55 8.25 Q95.55 9.4 95.7 9.8 L96.15 10.55 98.15 10.55 98.65 10.05 98.8 8.85 98.55 7.35 Q98.25 6.9 95.7 6.85 95.55 6.5 95.55 8.25 M68.65 9.75 Q68.4 10.1 68.95 11.0 69.25 11.45 70.1 11.75 L72.85 12.1 Q73.35 11.65 73.35 10.95 73.15 10.5 69.2 9.3 L68.65 9.75 M65.85 37.0 L66.15 38.95 Q66.35 40.0 66.8 40.85 L70.3 40.85 Q70.5 40.55 70.8 40.4 L70.4 37.3 66.85 36.75 Q66.05 36.7 65.85 37.0 M43.95 14.95 L44.15 16.3 44.5 16.8 46.05 16.85 Q47.1 16.85 47.7 16.4 47.9 16.25 47.9 14.5 47.9 13.35 47.55 12.8 L46.85 12.15 44.05 13.25 43.95 14.95 M36.7 29.2 L36.95 30.2 Q37.3 31.0 37.75 31.3 41.85 30.75 41.85 28.35 41.85 27.25 41.5 26.95 L40.65 26.6 38.9 26.85 37.05 27.0 36.7 29.2" fill="#ffffff" fill-opacity="0.7058824" fill-rule="evenodd" stroke="none"/>
      <path d="M36.7 29.2 L37.05 27.0 38.9 26.85 40.65 26.6 41.5 26.95 Q41.85 27.25 41.85 28.35 41.85 30.75 37.75 31.3 37.3 31.0 36.95 30.2 L36.7 29.2 M43.95 14.95 L44.05 13.25 46.85 12.15 47.55 12.8 Q47.9 13.35 47.9 14.5 47.9 16.25 47.7 16.4 47.1 16.85 46.05 16.85 L44.5 16.8 44.15 16.3 43.95 14.95 M65.85 37.0 Q66.05 36.7 66.85 36.75 L70.4 37.3 70.8 40.4 Q70.5 40.55 70.3 40.85 L66.8 40.85 Q66.35 40.0 66.15 38.95 L65.85 37.0 M68.65 9.75 L69.2 9.3 Q73.15 10.5 73.35 10.95 73.35 11.65 72.85 12.1 L70.1 11.75 Q69.25 11.45 68.95 11.0 68.4 10.1 68.65 9.75 M95.55 8.25 Q95.55 6.5 95.7 6.85 98.25 6.9 98.55 7.35 L98.8 8.85 98.65 10.05 98.15 10.55 96.15 10.55 95.7 9.8 Q95.55 9.4 95.55 8.25 Z" fill="none" stroke="#000000" stroke-linecap="round" stroke-linejoin="round" stroke-opacity="0.0" stroke-width="1.0"/>
    </g>
  </defs>
</svg>
