<?xml version="1.0" encoding="UTF-8" standalone="no"?>
<svg xmlns:xlink="http://www.w3.org/1999/xlink" height="47.45px" width="141.0px" xmlns="http://www.w3.org/2000/svg">
  <g transform="matrix(1.0, 0.0, 0.0, 1.0, -4.35, -2.9)">
    <use data-characterId="3192" height="47.45" transform="matrix(1.0, 0.0, 0.0, 1.0, 4.35, 2.9)" width="141.0" xlink:href="#morphshape0"/>
    <use data-characterId="3193" height="37.5" transform="matrix(1.0, 0.0, 0.0, 1.0, 17.5, 9.15)" width="116.05" xlink:href="#morphshape1"/>
    <use data-characterId="3194" height="21.8" transform="matrix(1.0, 0.0, 0.0, 1.0, 37.6, 4.7)" width="75.1" xlink:href="#morphshape2"/>
    <use data-characterId="3195" height="35.65" transform="matrix(1.0, 0.0, 0.0, 1.0, 32.35, 6.65)" width="66.65" xlink:href="#morphshape3"/>
  </g>
  <defs>
    <g id="morphshape0" transform="matrix(1.0, 0.0, 0.0, 1.0, -4.35, -2.9)">
      <path d="M4.75 16.55 Q3.85 18.15 13.85 19.7 23.85 21.25 35.85 21.9 47.9 22.5 29.05 23.3 10.2 24.1 23.6 25.95 37.0 27.8 28.45 28.4 19.85 28.95 13.9 30.8 7.95 32.6 13.1 33.0 18.25 33.4 19.75 33.95 21.25 34.5 23.35 34.65 L37.2 35.2 Q29.95 36.65 29.7 37.25 14.4 40.9 35.6 40.35 39.85 40.45 54.9 38.3 43.0 41.8 43.15 42.8 43.3 43.8 51.65 44.35 61.65 44.75 71.6 45.15 83.2 45.45 73.6 47.9 63.95 50.35 66.2 50.35 70.85 50.4 75.45 50.45 L92.6 50.1 Q102.6 49.7 105.45 48.45 108.35 47.15 106.05 46.25 103.75 45.35 107.4 42.35 108.95 41.1 98.45 38.6 122.6 38.4 126.15 36.4 129.75 34.45 122.95 34.0 119.45 33.75 115.9 33.5 126.05 31.85 126.8 31.0 127.5 30.1 123.0 29.15 118.45 28.2 111.4 28.0 104.4 27.8 120.25 26.8 136.15 25.8 142.5 23.85 148.85 21.9 139.65 20.1 130.5 18.3 124.8 18.35 L122.5 18.45 122.35 18.45 Q122.05 18.3 121.65 18.15 136.45 16.55 130.35 15.2 124.2 13.8 116.05 13.6 116.05 13.5 115.95 13.45 107.4 9.0 101.7 5.95 96.05 2.9 69.75 2.95 50.6 3.0 26.5 6.75 2.35 10.4 6.0 11.6 9.65 12.75 26.85 13.75 44.05 14.7 36.65 14.9 29.15 15.0 21.7 15.1 L13.75 15.3 4.9 16.35 Q4.85 16.35 4.85 16.35" fill="#96e0bc" fill-opacity="0.7058824" fill-rule="evenodd" stroke="none"/>
      <path d="M4.85 16.35 Q4.85 16.35 4.9 16.35 L13.75 15.3 21.7 15.1 Q29.15 15.0 36.65 14.9 44.05 14.7 26.85 13.75 9.65 12.75 6.0 11.6 2.35 10.4 26.5 6.75 50.6 3.0 69.75 2.95 96.05 2.9 101.7 5.95 107.4 9.0 115.95 13.45 116.05 13.5 116.05 13.6 124.2 13.8 130.35 15.2 136.45 16.55 121.65 18.15 122.05 18.3 122.35 18.45 L122.5 18.45 124.8 18.35 Q130.5 18.3 139.65 20.1 148.85 21.9 142.5 23.85 136.15 25.8 120.25 26.8 104.4 27.8 111.4 28.0 118.45 28.2 123.0 29.15 127.5 30.1 126.8 31.0 126.05 31.85 115.9 33.5 119.45 33.75 122.95 34.0 129.75 34.45 126.15 36.4 122.6 38.4 98.45 38.6 108.95 41.1 107.4 42.35 103.75 45.35 106.05 46.25 108.35 47.15 105.45 48.45 102.6 49.7 92.6 50.1 L75.45 50.45 Q70.85 50.4 66.2 50.35 63.95 50.35 73.6 47.9 83.2 45.45 71.6 45.15 61.65 44.75 51.65 44.35 43.3 43.8 43.15 42.8 43.0 41.8 54.9 38.3 39.85 40.45 35.6 40.35 14.4 40.9 29.7 37.25 29.95 36.65 37.2 35.2 L23.35 34.65 Q21.25 34.5 19.75 33.95 18.25 33.4 13.1 33.0 7.95 32.6 13.9 30.8 19.85 28.95 28.45 28.4 37.0 27.8 23.6 25.95 10.2 24.1 29.05 23.3 47.9 22.5 35.85 21.9 23.85 21.25 13.85 19.7 3.85 18.15 4.75 16.55" fill="none" stroke="#000000" stroke-linecap="round" stroke-linejoin="round" stroke-opacity="0.0" stroke-width="1.0"/>
    </g>
    <g id="morphshape1" transform="matrix(1.0, 0.0, 0.0, 1.0, -17.5, -9.15)">
      <path d="M129.3 21.65 Q129.3 22.4 129.75 23.1 130.5 24.15 133.35 23.9 L132.6 21.7 Q131.6 21.35 129.3 21.65 M103.0 34.0 Q103.0 34.35 104.1 35.15 L107.4 35.25 109.55 34.25 Q111.75 33.2 112.15 32.7 L110.65 31.5 106.45 31.1 Q103.0 31.3 103.0 34.0 M90.05 45.15 L90.05 45.15 90.6 46.05 Q92.1 46.25 93.55 46.45 L96.4 46.5 100.65 46.25 101.45 46.0 101.95 45.55 102.1 44.7 102.05 44.2 Q101.85 43.4 101.05 42.9 99.75 42.15 94.5 42.35 92.3 42.7 90.7 44.3 L90.1 45.15 M79.55 31.25 L79.75 31.85 Q80.15 32.35 81.2 32.8 L82.95 33.3 85.45 33.5 85.8 33.4 86.0 33.2 86.2 32.75 86.2 32.3 Q86.2 31.6 85.85 31.3 85.2 30.65 82.1 30.45 80.8 30.6 79.55 30.75 L79.5 31.25 M61.25 41.1 L61.8 42.0 68.15 42.4 Q72.2 42.4 75.05 40.15 75.05 38.25 69.0 38.1 62.75 38.0 61.25 41.1 M54.4 40.7 Q54.55 41.1 54.65 41.45 L57.7 41.45 Q58.15 41.2 58.4 39.6 L54.9 39.8 Q54.4 40.15 54.4 40.7 M49.0 33.9 L50.2 35.1 Q52.25 36.25 56.55 36.25 58.1 36.25 59.85 34.1 59.85 31.15 54.45 31.2 49.0 31.25 49.0 33.9 M32.05 30.3 Q32.25 30.85 35.1 31.8 38.7 31.95 42.3 32.05 L46.05 31.05 Q47.05 30.2 47.3 28.1 46.55 25.3 38.95 26.35 31.3 27.35 32.05 30.3 M22.6 10.45 Q22.6 10.9 23.05 11.6 L24.0 12.55 30.85 12.65 Q32.05 11.75 32.05 11.2 32.05 9.35 27.35 9.25 22.6 9.2 22.6 10.45" fill="#bef0d8" fill-opacity="0.7058824" fill-rule="evenodd" stroke="none"/>
      <path d="M22.6 10.45 Q22.6 9.2 27.35 9.25 32.05 9.35 32.05 11.2 32.05 11.75 30.85 12.65 L24.0 12.55 23.05 11.6 Q22.6 10.9 22.6 10.45 M32.05 30.3 Q31.3 27.35 38.95 26.35 46.55 25.3 47.3 28.1 47.05 30.2 46.05 31.05 L42.3 32.05 Q38.7 31.95 35.1 31.8 32.25 30.85 32.05 30.3 M49.0 33.9 Q49.0 31.25 54.45 31.2 59.85 31.15 59.85 34.1 58.1 36.25 56.55 36.25 52.25 36.25 50.2 35.1 L49.0 33.9 M54.4 40.7 Q54.4 40.15 54.9 39.8 L58.4 39.6 Q58.15 41.2 57.7 41.45 L54.65 41.45 Q54.55 41.1 54.4 40.7 M61.25 41.1 Q62.75 38.0 69.0 38.1 75.05 38.25 75.05 40.15 72.2 42.4 68.15 42.4 L61.8 42.0 61.25 41.1 M79.5 31.25 L79.55 30.75 Q80.8 30.6 82.1 30.45 85.2 30.65 85.85 31.3 86.2 31.6 86.2 32.3 L86.2 32.75 86.0 33.2 85.8 33.4 85.45 33.5 82.95 33.3 81.2 32.8 Q80.15 32.35 79.75 31.85 L79.55 31.25 M90.1 45.15 L90.7 44.3 Q92.3 42.7 94.5 42.35 99.75 42.15 101.05 42.9 101.85 43.4 102.05 44.2 L102.1 44.7 101.95 45.55 101.45 46.0 100.65 46.25 96.4 46.5 93.55 46.45 Q92.1 46.25 90.6 46.05 L90.05 45.15 90.05 45.15 M103.0 34.0 Q103.0 31.3 106.45 31.1 L110.65 31.5 112.15 32.7 Q111.75 33.2 109.55 34.25 L107.4 35.25 104.1 35.15 Q103.0 34.35 103.0 34.0 M129.3 21.65 Q131.6 21.35 132.6 21.7 L133.35 23.9 Q130.5 24.15 129.75 23.1 129.3 22.4 129.3 21.65 Z" fill="none" stroke="#000000" stroke-linecap="round" stroke-linejoin="round" stroke-opacity="0.0" stroke-width="1.0"/>
    </g>
    <g id="morphshape2" transform="matrix(1.0, 0.0, 0.0, 1.0, -37.6, -4.7)">
      <path d="M107.45 19.2 Q107.45 20.35 107.7 20.75 L108.5 21.3 Q111.6 20.5 112.3 20.05 113.0 19.55 111.95 16.5 109.55 16.7 108.5 17.35 107.45 17.95 107.45 19.2 M94.2 16.55 Q94.2 17.6 94.8 18.2 L97.85 18.4 Q98.3 17.4 98.05 15.3 L94.3 15.2 94.2 16.55 M93.05 9.0 Q93.05 10.05 93.45 10.95 L99.4 10.95 Q100.45 9.9 100.45 6.4 95.75 5.95 94.1 6.8 93.05 7.4 93.05 9.0 M84.7 16.05 Q84.75 17.0 85.5 18.85 86.15 19.3 87.7 19.45 L88.5 18.25 Q89.0 17.55 88.3 15.75 L84.7 16.05 M75.45 15.0 Q75.05 16.9 75.85 18.4 76.85 20.15 79.1 20.15 80.25 20.15 81.45 18.4 80.6 16.0 78.95 15.35 L75.45 15.0 M63.9 9.15 L63.95 10.6 64.3 11.15 69.75 11.9 73.05 12.3 Q74.8 12.3 73.7 9.85 73.7 6.8 68.8 6.65 63.9 6.55 63.9 9.15 M56.25 23.05 L56.25 23.05 56.35 24.3 56.75 24.75 Q57.3 24.75 57.85 24.75 59.1 24.75 60.35 24.75 L64.4 24.75 Q64.6 23.45 63.75 20.25 62.75 18.5 61.8 17.65 60.4 16.35 58.8 16.95 56.2 18.15 56.2 23.05 M52.65 7.9 L52.7 8.6 52.7 8.7 Q52.75 9.15 52.95 9.25 L54.15 9.65 Q55.45 9.0 55.7 8.9 55.95 7.75 56.15 6.6 55.85 5.7 55.6 4.85 54.8 4.85 54.05 4.85 52.65 5.75 52.65 7.9 M41.0 14.05 L42.1 16.15 Q43.8 18.3 46.8 18.3 50.7 18.3 50.7 15.1 50.7 12.1 45.85 11.3 41.0 10.45 41.0 14.05" fill="#bef0d8" fill-opacity="0.7058824" fill-rule="evenodd" stroke="none"/>
      <path d="M41.0 14.05 Q41.0 10.45 45.85 11.3 50.7 12.1 50.7 15.1 50.7 18.3 46.8 18.3 43.8 18.3 42.1 16.15 L41.0 14.05 M52.65 7.9 Q52.65 5.75 54.05 4.85 54.8 4.85 55.6 4.85 55.85 5.7 56.15 6.6 55.95 7.75 55.7 8.9 55.45 9.0 54.15 9.65 L52.95 9.25 Q52.75 9.15 52.7 8.7 L52.7 8.6 52.65 7.9 M56.2 23.05 Q56.2 18.15 58.8 16.95 60.4 16.35 61.8 17.65 62.75 18.5 63.75 20.25 64.6 23.45 64.4 24.75 L60.35 24.75 Q59.1 24.75 57.85 24.75 57.3 24.75 56.75 24.75 L56.35 24.3 56.25 23.05 56.25 23.05 M63.9 9.15 Q63.9 6.55 68.8 6.65 73.7 6.8 73.7 9.85 74.8 12.3 73.05 12.3 L69.75 11.9 64.3 11.15 63.95 10.6 63.9 9.15 M75.45 15.0 L78.95 15.35 Q80.6 16.0 81.45 18.4 80.25 20.15 79.1 20.15 76.85 20.15 75.85 18.4 75.05 16.9 75.45 15.0 M84.7 16.05 L88.3 15.75 Q89.0 17.55 88.5 18.25 L87.7 19.45 Q86.15 19.3 85.5 18.85 84.75 17.0 84.7 16.05 M93.05 9.0 Q93.05 7.4 94.1 6.8 95.75 5.95 100.45 6.4 100.45 9.9 99.4 10.95 L93.45 10.95 Q93.05 10.05 93.05 9.0 M94.2 16.55 L94.3 15.2 98.05 15.3 Q98.3 17.4 97.85 18.4 L94.8 18.2 Q94.2 17.6 94.2 16.55 M107.45 19.2 Q107.45 17.95 108.5 17.35 109.55 16.7 111.95 16.5 113.0 19.55 112.3 20.05 111.6 20.5 108.5 21.3 L107.7 20.75 Q107.45 20.35 107.45 19.2 Z" fill="none" stroke="#000000" stroke-linecap="round" stroke-linejoin="round" stroke-opacity="0.0" stroke-width="1.0"/>
    </g>
    <g id="morphshape3" transform="matrix(1.0, 0.0, 0.0, 1.0, -32.35, -6.65)">
      <path d="M95.7 8.15 Q95.7 9.3 95.85 9.7 L96.3 10.45 98.3 10.45 98.8 9.95 98.95 8.75 98.7 7.25 Q98.4 6.8 95.85 6.75 95.7 6.4 95.7 8.15 M68.45 9.05 Q68.2 9.4 68.75 10.3 69.0 10.75 69.9 11.05 71.3 11.25 72.65 11.4 73.15 10.95 73.15 10.25 72.95 9.8 69.0 8.6 L68.45 9.05 M65.75 38.3 L66.05 40.25 Q66.25 41.3 66.7 42.15 L70.2 42.15 Q70.4 41.85 70.7 41.7 L70.3 38.6 66.75 38.05 Q65.95 38.0 65.75 38.3 M44.6 15.3 L44.8 16.65 45.15 17.15 46.7 17.2 Q47.75 17.2 48.35 16.75 48.55 16.6 48.55 14.85 48.55 13.7 48.2 13.15 L47.5 12.5 44.7 13.6 44.6 15.3 M37.5 29.2 L37.75 30.2 Q38.1 31.0 38.55 31.3 42.65 30.75 42.65 28.35 42.65 27.25 42.3 26.95 L41.45 26.6 39.7 26.85 37.85 27.0 37.5 29.2" fill="#ffffff" fill-opacity="0.7058824" fill-rule="evenodd" stroke="none"/>
      <path d="M37.5 29.2 L37.85 27.0 39.7 26.85 41.45 26.6 42.3 26.95 Q42.65 27.25 42.65 28.35 42.65 30.75 38.55 31.3 38.1 31.0 37.75 30.2 L37.5 29.2 M44.6 15.3 L44.7 13.6 47.5 12.5 48.2 13.15 Q48.55 13.7 48.55 14.85 48.55 16.6 48.35 16.75 47.75 17.2 46.7 17.2 L45.15 17.15 44.8 16.65 44.6 15.3 M65.75 38.3 Q65.95 38.0 66.75 38.05 L70.3 38.6 70.7 41.7 Q70.4 41.85 70.2 42.15 L66.7 42.15 Q66.25 41.3 66.05 40.25 L65.75 38.3 M68.45 9.05 L69.0 8.6 Q72.95 9.8 73.15 10.25 73.15 10.95 72.65 11.4 71.3 11.25 69.9 11.05 69.0 10.75 68.75 10.3 68.2 9.4 68.45 9.05 M95.7 8.15 Q95.7 6.4 95.85 6.75 98.4 6.8 98.7 7.25 L98.95 8.75 98.8 9.95 98.3 10.45 96.3 10.45 95.85 9.7 Q95.7 9.3 95.7 8.15 Z" fill="none" stroke="#000000" stroke-linecap="round" stroke-linejoin="round" stroke-opacity="0.0" stroke-width="1.0"/>
    </g>
  </defs>
</svg>
