<?xml version="1.0" encoding="UTF-8" standalone="no"?>
<svg xmlns:xlink="http://www.w3.org/1999/xlink" height="47.45px" width="141.0px" xmlns="http://www.w3.org/2000/svg">
  <g transform="matrix(1.0, 0.0, 0.0, 1.0, -4.35, -2.9)">
    <use data-characterId="3192" height="47.45" transform="matrix(1.0, 0.0, 0.0, 1.0, 4.35, 2.9)" width="141.0" xlink:href="#morphshape0"/>
    <use data-characterId="3193" height="37.5" transform="matrix(1.0, 0.0, 0.0, 1.0, 17.5, 9.15)" width="116.05" xlink:href="#morphshape1"/>
    <use data-characterId="3194" height="21.8" transform="matrix(1.0, 0.0, 0.0, 1.0, 37.6, 4.7)" width="75.1" xlink:href="#morphshape2"/>
    <use data-characterId="3195" height="35.65" transform="matrix(1.0, 0.0, 0.0, 1.0, 32.35, 6.65)" width="66.65" xlink:href="#morphshape3"/>
  </g>
  <defs>
    <g id="morphshape0" transform="matrix(1.0, 0.0, 0.0, 1.0, -4.35, -2.9)">
      <path d="M4.9 18.0 Q4.8 19.55 11.1 20.7 17.45 21.7 24.85 22.25 34.5 23.0 25.3 24.65 15.75 25.4 21.6 27.0 27.9 28.25 23.4 29.05 18.9 29.7 16.05 31.1 13.4 32.9 16.75 33.45 19.85 33.9 21.65 34.25 24.45 34.65 26.65 35.25 L33.6 36.15 Q29.65 37.95 32.6 38.75 26.85 40.65 39.75 40.4 41.45 41.05 49.15 40.45 43.05 42.75 45.0 44.0 47.15 45.3 53.45 45.6 59.5 45.8 66.2 46.85 73.75 47.85 70.2 49.1 66.15 50.35 69.75 49.6 74.7 48.8 78.8 48.75 L91.15 48.1 Q97.9 47.7 100.95 46.85 106.15 46.3 106.8 44.4 106.35 43.35 108.55 41.1 112.3 40.1 107.65 38.3 121.85 36.85 121.45 35.15 123.1 34.1 119.45 33.8 122.65 32.85 121.2 32.3 126.75 31.0 125.8 30.1 125.35 29.35 122.25 28.6 119.65 28.0 119.1 27.35 118.55 26.7 127.35 25.05 136.2 23.4 138.1 21.75 139.9 20.05 132.4 19.15 127.15 18.25 123.65 18.3 L122.4 18.35 122.0 18.2 Q124.0 17.1 122.15 16.1 128.1 15.15 123.35 14.35 120.2 13.6 116.05 13.5 116.75 11.3 112.25 9.95 102.15 5.95 86.35 4.4 74.1 2.85 51.05 4.45 32.0 5.95 20.2 9.25 8.0 11.4 10.05 12.3 12.1 13.15 21.1 13.95 30.0 14.65 25.85 14.9 21.8 15.0 17.85 15.15 L9.4 15.75 4.85 16.3 Q4.4 17.1 4.8 17.9" fill="#96e0bc" fill-opacity="0.7058824" fill-rule="evenodd" stroke="none"/>
      <path d="M4.8 17.9 Q4.4 17.1 4.85 16.3 L9.4 15.75 17.85 15.15 Q21.8 15.0 25.85 14.9 30.0 14.65 21.1 13.95 12.1 13.15 10.05 12.3 8.0 11.4 20.2 9.25 32.0 5.95 51.05 4.45 74.1 2.85 86.35 4.4 102.15 5.95 112.25 9.95 116.75 11.3 116.05 13.5 120.2 13.6 123.35 14.35 128.1 15.15 122.15 16.1 124.0 17.1 122.0 18.2 L122.4 18.35 123.65 18.3 Q127.15 18.25 132.4 19.15 139.9 20.05 138.1 21.75 136.2 23.4 127.35 25.05 118.55 26.7 119.1 27.35 119.65 28.0 122.25 28.6 125.35 29.35 125.8 30.1 126.75 31.0 121.2 32.3 122.65 32.85 119.45 33.8 123.1 34.1 121.45 35.15 121.85 36.85 107.65 38.3 112.3 40.1 108.55 41.1 106.35 43.35 106.8 44.4 106.15 46.3 100.95 46.85 97.9 47.7 91.15 48.1 L78.8 48.75 Q74.7 48.8 69.75 49.6 66.15 50.35 70.2 49.1 73.75 47.85 66.2 46.85 59.5 45.8 53.45 45.6 47.15 45.3 45.0 44.0 43.05 42.75 49.15 40.45 41.45 41.05 39.75 40.4 26.85 40.65 32.6 38.75 29.65 37.95 33.6 36.15 L26.65 35.25 Q24.45 34.65 21.65 34.25 19.85 33.9 16.75 33.45 13.4 32.9 16.05 31.1 18.9 29.7 23.4 29.05 27.9 28.25 21.6 27.0 15.75 25.4 25.3 24.65 34.5 23.0 24.85 22.25 17.45 21.7 11.1 20.7 4.8 19.55 4.9 18.0" fill="none" stroke="#000000" stroke-linecap="round" stroke-linejoin="round" stroke-opacity="0.0" stroke-width="1.0"/>
    </g>
    <g id="morphshape1" transform="matrix(1.0, 0.0, 0.0, 1.0, -17.5, -9.15)">
      <path d="M122.1 22.65 Q122.1 23.4 122.55 24.1 123.3 25.15 126.15 24.9 L125.4 22.7 Q124.4 22.35 122.1 22.65 M101.25 31.3 Q101.25 31.65 102.35 32.45 L105.65 32.55 107.8 31.55 Q110.0 30.5 110.4 30.0 L108.9 28.8 104.7 28.4 Q101.25 28.6 101.25 31.3 M87.6 39.6 L87.6 39.65 88.0 40.35 Q88.95 40.7 90.2 41.0 L92.5 41.25 95.9 41.2 96.5 41.0 96.85 40.65 97.0 40.0 96.95 39.5 Q96.85 38.75 96.25 38.35 95.25 37.65 91.05 37.65 89.3 37.9 87.85 38.8 L87.5 39.5 M77.25 36.6 L77.6 37.35 Q78.55 37.7 79.8 38.05 L82.1 38.35 85.45 38.35 86.0 38.2 86.35 37.9 86.55 37.25 86.55 36.8 Q86.45 36.05 85.9 35.65 84.95 34.95 80.8 34.95 79.05 35.2 77.65 36.05 L77.35 36.7 M61.9 36.5 L62.45 37.4 68.8 37.8 Q72.85 37.8 75.7 35.55 75.7 33.65 69.65 33.5 63.4 33.4 61.9 36.5 M58.05 41.5 Q58.15 41.95 58.3 42.25 L61.35 42.25 Q61.8 42.0 62.05 40.4 L58.55 40.6 Q58.05 40.95 58.05 41.5 M49.0 35.45 L50.2 36.65 Q52.25 37.8 56.55 37.8 58.1 37.8 59.85 35.65 59.85 32.7 54.45 32.75 49.0 32.8 49.0 35.45 M29.35 29.35 Q29.45 29.9 32.15 31.2 35.55 32.35 39.15 32.35 L42.95 31.85 Q44.05 31.15 44.55 29.1 44.15 26.25 36.55 26.3 28.9 26.3 29.3 29.3 M20.1 14.75 Q20.1 15.2 20.55 15.9 L21.5 16.85 28.35 16.95 Q29.55 16.05 29.55 15.5 29.55 13.65 24.85 13.55 20.1 13.5 20.1 14.75" fill="#bef0d8" fill-opacity="0.7058824" fill-rule="evenodd" stroke="none"/>
      <path d="M20.1 14.75 Q20.1 13.5 24.85 13.55 29.55 13.65 29.55 15.5 29.55 16.05 28.35 16.95 L21.5 16.85 20.55 15.9 Q20.1 15.2 20.1 14.75 M29.3 29.3 Q28.9 26.3 36.55 26.3 44.15 26.25 44.55 29.1 44.05 31.15 42.95 31.85 L39.15 32.35 Q35.55 32.35 32.15 31.2 29.45 29.9 29.35 29.35 M49.0 35.45 Q49.0 32.8 54.45 32.75 59.85 32.7 59.85 35.65 58.1 37.8 56.55 37.8 52.25 37.8 50.2 36.65 L49.0 35.45 M58.05 41.5 Q58.05 40.95 58.55 40.6 L62.05 40.4 Q61.8 42.0 61.35 42.25 L58.3 42.25 Q58.15 41.95 58.05 41.5 M61.9 36.5 Q63.4 33.4 69.65 33.5 75.7 33.65 75.7 35.55 72.85 37.8 68.8 37.8 L62.45 37.4 61.9 36.5 M77.35 36.7 L77.65 36.05 Q79.05 35.2 80.8 34.95 84.95 34.95 85.9 35.65 86.45 36.05 86.55 36.8 L86.55 37.25 86.35 37.9 86.0 38.2 85.45 38.35 82.1 38.35 79.8 38.05 Q78.55 37.7 77.6 37.35 L77.25 36.6 M87.5 39.5 L87.85 38.8 Q89.3 37.9 91.05 37.65 95.25 37.65 96.25 38.35 96.85 38.75 96.95 39.5 L97.0 40.0 96.85 40.65 96.5 41.0 95.9 41.2 92.5 41.25 90.2 41.0 Q88.95 40.7 88.0 40.35 L87.6 39.65 87.6 39.6 M101.25 31.3 Q101.25 28.6 104.7 28.4 L108.9 28.8 110.4 30.0 Q110.0 30.5 107.8 31.55 L105.65 32.55 102.35 32.45 Q101.25 31.65 101.25 31.3 M122.1 22.65 Q124.4 22.35 125.4 22.7 L126.15 24.9 Q123.3 25.15 122.55 24.1 122.1 23.4 122.1 22.65 Z" fill="none" stroke="#000000" stroke-linecap="round" stroke-linejoin="round" stroke-opacity="0.0" stroke-width="1.0"/>
    </g>
    <g id="morphshape2" transform="matrix(1.0, 0.0, 0.0, 1.0, -37.6, -4.7)">
      <path d="M104.4 16.9 Q104.4 18.05 104.65 18.45 L105.45 19.0 Q107.95 18.25 109.25 17.75 109.95 17.25 108.9 14.2 106.5 14.4 105.45 15.05 104.4 15.65 104.4 16.9 M91.9 19.35 Q91.9 20.4 92.5 21.0 L95.55 21.2 Q96.0 20.2 95.75 18.1 L92.0 18.0 91.9 19.35 M90.5 10.5 Q90.5 11.55 90.9 12.45 L96.85 12.45 Q97.9 11.4 97.9 7.9 93.2 7.45 91.55 8.3 90.5 8.9 90.5 10.5 M82.2 19.5 Q82.25 20.45 83.0 22.3 83.65 22.75 85.2 22.9 L86.0 21.7 Q86.5 21.0 85.8 19.2 L82.2 19.5 M77.05 10.7 Q76.65 12.6 77.45 14.1 78.45 15.85 80.7 15.85 81.85 15.85 83.05 14.1 82.2 11.7 80.55 11.05 L77.05 10.7 M65.35 11.7 L65.4 13.15 65.75 13.7 71.2 14.45 74.5 14.85 Q76.25 14.85 75.15 12.4 75.15 9.35 70.25 9.2 65.35 9.1 65.35 11.7 M56.05 16.95 L56.05 17.05 56.15 17.95 56.35 18.25 Q56.65 18.45 57.05 18.5 57.8 18.6 58.9 18.7 L61.75 18.35 Q61.95 17.1 61.6 14.9 60.95 13.55 60.35 12.7 59.25 12.05 58.05 12.35 56.05 13.4 56.05 16.95 M50.35 15.35 L50.4 16.3 50.6 16.55 Q50.9 16.8 51.25 16.85 L53.1 17.05 Q54.75 16.7 55.9 16.65 56.15 15.45 55.85 13.3 55.2 12.0 54.6 11.15 53.5 10.5 52.35 10.8 50.35 11.85 50.35 15.35 M39.35 12.15 L40.45 14.25 Q42.15 16.4 45.15 16.4 49.05 16.4 49.05 13.2 49.05 10.2 44.2 9.4 39.35 8.55 39.35 12.15" fill="#bef0d8" fill-opacity="0.7058824" fill-rule="evenodd" stroke="none"/>
      <path d="M39.35 12.15 Q39.35 8.55 44.2 9.4 49.05 10.2 49.05 13.2 49.05 16.4 45.15 16.4 42.15 16.4 40.45 14.25 L39.35 12.15 M50.35 15.35 Q50.35 11.85 52.35 10.8 53.5 10.5 54.6 11.15 55.2 12.0 55.85 13.3 56.15 15.45 55.9 16.65 54.75 16.7 53.1 17.05 L51.25 16.85 Q50.9 16.8 50.6 16.55 L50.4 16.3 50.35 15.35 M56.05 16.95 Q56.05 13.4 58.05 12.35 59.25 12.05 60.35 12.7 60.95 13.55 61.6 14.9 61.95 17.1 61.75 18.35 L58.9 18.7 Q57.8 18.6 57.05 18.5 56.65 18.45 56.35 18.25 L56.15 17.95 56.05 17.05 56.05 16.95 M65.35 11.7 Q65.35 9.1 70.25 9.2 75.15 9.35 75.15 12.4 76.25 14.85 74.5 14.85 L71.2 14.45 65.75 13.7 65.4 13.15 65.35 11.7 M77.05 10.7 L80.55 11.05 Q82.2 11.7 83.05 14.1 81.85 15.85 80.7 15.85 78.45 15.85 77.45 14.1 76.65 12.6 77.05 10.7 M82.2 19.5 L85.8 19.2 Q86.5 21.0 86.0 21.7 L85.2 22.9 Q83.65 22.75 83.0 22.3 82.25 20.45 82.2 19.5 M90.5 10.5 Q90.5 8.9 91.55 8.3 93.2 7.45 97.9 7.9 97.9 11.4 96.85 12.45 L90.9 12.45 Q90.5 11.55 90.5 10.5 M91.9 19.35 L92.0 18.0 95.75 18.1 Q96.0 20.2 95.55 21.2 L92.5 21.0 Q91.9 20.4 91.9 19.35 M104.4 16.9 Q104.4 15.65 105.45 15.05 106.5 14.4 108.9 14.2 109.95 17.25 109.25 17.75 107.95 18.25 105.45 19.0 L104.65 18.45 Q104.4 18.05 104.4 16.9 Z" fill="none" stroke="#000000" stroke-linecap="round" stroke-linejoin="round" stroke-opacity="0.0" stroke-width="1.0"/>
    </g>
    <g id="morphshape3" transform="matrix(1.0, 0.0, 0.0, 1.0, -32.35, -6.65)">
      <path d="M92.9 9.5 Q92.9 10.65 93.05 11.05 L93.5 11.8 95.5 11.8 96.0 11.3 96.15 10.1 95.9 8.6 Q95.6 8.15 93.05 8.1 92.9 7.75 92.9 9.5 M68.95 11.75 Q68.8 12.15 69.5 12.85 69.95 13.1 70.75 13.25 72.05 13.25 73.4 12.9 73.8 12.35 73.65 11.65 72.45 11.6 69.35 11.15 L68.95 11.7 M66.0 33.3 L66.3 35.25 Q66.5 36.3 66.95 37.15 L70.45 37.15 Q70.65 36.85 70.95 36.7 L70.55 33.6 67.0 33.05 Q66.2 33.0 66.0 33.3 M42.45 14.15 L42.65 15.5 43.0 16.0 44.55 16.05 Q45.6 16.05 46.2 15.6 46.4 15.45 46.4 13.7 46.4 12.55 46.05 12.0 L45.35 11.35 42.55 12.45 42.45 14.15 M35.0 29.2 L35.25 30.2 Q35.6 31.0 36.05 31.3 40.15 30.75 40.15 28.35 40.15 27.25 39.8 26.95 L38.95 26.6 37.2 26.85 35.35 27.0 35.0 29.2" fill="#ffffff" fill-opacity="0.7058824" fill-rule="evenodd" stroke="none"/>
      <path d="M35.0 29.2 L35.35 27.0 37.2 26.85 38.95 26.6 39.8 26.95 Q40.15 27.25 40.15 28.35 40.15 30.75 36.05 31.3 35.6 31.0 35.25 30.2 L35.0 29.2 M42.45 14.15 L42.55 12.45 45.35 11.35 46.05 12.0 Q46.4 12.55 46.4 13.7 46.4 15.45 46.2 15.6 45.6 16.05 44.55 16.05 L43.0 16.0 42.65 15.5 42.45 14.15 M66.0 33.3 Q66.2 33.0 67.0 33.05 L70.55 33.6 70.95 36.7 Q70.65 36.85 70.45 37.15 L66.95 37.15 Q66.5 36.3 66.3 35.25 L66.0 33.3 M68.95 11.7 L69.35 11.15 Q72.45 11.6 73.65 11.65 73.8 12.35 73.4 12.9 72.05 13.25 70.75 13.25 69.95 13.1 69.5 12.85 68.8 12.15 68.95 11.75 M92.9 9.5 Q92.9 7.75 93.05 8.1 95.6 8.15 95.9 8.6 L96.15 10.1 96.0 11.3 95.5 11.8 93.5 11.8 93.05 11.05 Q92.9 10.65 92.9 9.5 Z" fill="none" stroke="#000000" stroke-linecap="round" stroke-linejoin="round" stroke-opacity="0.0" stroke-width="1.0"/>
    </g>
  </defs>
</svg>
