<?xml version="1.0" encoding="UTF-8" standalone="no"?>
<svg xmlns:xlink="http://www.w3.org/1999/xlink" height="47.45px" width="141.0px" xmlns="http://www.w3.org/2000/svg">
  <g transform="matrix(1.0, 0.0, 0.0, 1.0, -4.35, -2.9)">
    <use data-characterId="3192" height="47.45" transform="matrix(1.0, 0.0, 0.0, 1.0, 4.35, 2.9)" width="141.0" xlink:href="#morphshape0"/>
    <use data-characterId="3193" height="37.5" transform="matrix(1.0, 0.0, 0.0, 1.0, 17.5, 9.15)" width="116.05" xlink:href="#morphshape1"/>
    <use data-characterId="3194" height="21.8" transform="matrix(1.0, 0.0, 0.0, 1.0, 37.6, 4.7)" width="75.1" xlink:href="#morphshape2"/>
    <use data-characterId="3195" height="35.65" transform="matrix(1.0, 0.0, 0.0, 1.0, 32.35, 6.65)" width="66.65" xlink:href="#morphshape3"/>
  </g>
  <defs>
    <g id="morphshape0" transform="matrix(1.0, 0.0, 0.0, 1.0, -4.35, -2.9)">
      <path d="M4.75 16.35 Q3.95 17.95 13.7 19.45 23.45 20.95 35.1 21.6 46.95 22.2 28.8 23.1 10.65 23.9 23.5 25.7 36.4 27.5 28.15 28.1 19.85 28.65 14.1 30.45 8.4 32.25 13.4 32.65 18.4 33.05 19.95 33.6 21.55 34.15 23.65 34.35 L36.95 34.95 Q29.95 36.45 29.9 37.05 15.3 40.6 35.85 40.1 39.9 40.25 54.4 38.2 42.95 41.65 43.25 42.65 43.55 43.7 51.75 44.25 61.45 44.65 71.15 45.1 82.45 45.45 73.3 47.85 64.05 50.25 66.4 50.2 71.1 50.15 75.65 50.2 L92.4 49.8 Q102.15 49.4 105.0 48.2 108.1 46.95 106.05 46.0 103.9 45.1 107.45 42.15 109.15 40.95 99.1 38.5 122.5 38.2 125.75 36.25 129.2 34.4 122.6 33.95 119.6 33.65 116.2 33.35 126.0 31.75 126.65 30.9 127.3 30.0 122.9 29.05 118.5 28.15 111.95 27.9 105.45 27.65 120.8 26.6 136.2 25.55 142.2 23.65 148.2 21.75 139.1 20.05 130.25 18.35 124.7 18.4 L122.45 18.5 122.25 18.5 Q122.15 18.25 121.65 18.0 135.75 16.45 129.75 15.15 123.85 13.8 116.0 13.6 116.05 13.35 115.6 13.2 106.95 8.8 100.5 5.85 94.35 2.9 68.3 3.05 49.15 3.2 26.0 6.9 2.75 10.45 6.3 11.6 9.85 12.7 26.45 13.7 43.0 14.6 35.85 14.8 28.6 14.9 21.4 15.0 L13.4 15.25 4.9 16.25 Q4.8 16.35 4.85 16.45" fill="#96e0bc" fill-opacity="0.7058824" fill-rule="evenodd" stroke="none"/>
      <path d="M4.85 16.45 Q4.8 16.35 4.9 16.25 L13.4 15.25 21.4 15.0 Q28.6 14.9 35.85 14.8 43.0 14.6 26.45 13.7 9.85 12.7 6.3 11.6 2.75 10.45 26.0 6.9 49.15 3.2 68.3 3.05 94.35 2.9 100.5 5.85 106.95 8.8 115.6 13.2 116.05 13.35 116.0 13.6 123.85 13.8 129.75 15.15 135.75 16.45 121.65 18.0 122.15 18.25 122.25 18.5 L122.45 18.5 124.7 18.4 Q130.25 18.35 139.1 20.05 148.2 21.75 142.2 23.65 136.2 25.55 120.8 26.6 105.45 27.65 111.95 27.9 118.5 28.15 122.9 29.05 127.3 30.0 126.65 30.9 126.0 31.75 116.2 33.35 119.6 33.65 122.6 33.95 129.2 34.4 125.75 36.25 122.5 38.2 99.1 38.5 109.15 40.95 107.45 42.15 103.9 45.1 106.05 46.0 108.1 46.95 105.0 48.2 102.15 49.4 92.4 49.8 L75.65 50.2 Q71.1 50.15 66.4 50.2 64.05 50.25 73.3 47.85 82.45 45.45 71.15 45.1 61.45 44.65 51.75 44.25 43.55 43.7 43.25 42.65 42.95 41.65 54.4 38.2 39.9 40.25 35.85 40.1 15.3 40.6 29.9 37.05 29.95 36.45 36.95 34.95 L23.65 34.35 Q21.55 34.15 19.95 33.6 18.4 33.05 13.4 32.65 8.4 32.25 14.1 30.45 19.85 28.65 28.15 28.1 36.4 27.5 23.5 25.7 10.65 23.9 28.8 23.1 46.95 22.2 35.1 21.6 23.45 20.95 13.7 19.45 3.95 17.95 4.75 16.35" fill="none" stroke="#000000" stroke-linecap="round" stroke-linejoin="round" stroke-opacity="0.0" stroke-width="1.0"/>
    </g>
    <g id="morphshape1" transform="matrix(1.0, 0.0, 0.0, 1.0, -17.5, -9.15)">
      <path d="M128.8 21.75 Q128.8 22.5 129.25 23.2 130.0 24.25 132.85 24.0 L132.1 21.8 Q131.1 21.45 128.8 21.75 M102.9 33.8 Q102.9 34.15 104.0 34.95 L107.3 35.05 109.45 34.05 Q111.65 33.0 112.05 32.5 L110.55 31.3 106.35 30.9 Q102.9 31.1 102.9 33.8 M89.85 44.8 L89.85 44.8 90.4 45.7 Q91.85 45.9 93.3 46.1 L96.1 46.15 100.25 45.9 101.05 45.65 101.55 45.2 101.7 44.35 101.65 43.85 Q101.45 43.05 100.65 42.55 99.4 41.8 94.2 42.0 92.05 42.35 90.45 43.9 L89.9 44.75 M79.4 31.6 L79.6 32.2 Q80.05 32.7 81.1 33.15 L82.9 33.65 85.5 33.85 85.85 33.75 86.05 33.55 86.25 33.1 86.25 32.65 Q86.25 31.95 85.9 31.65 85.2 31.0 82.05 30.8 80.7 30.95 79.45 31.15 L79.35 31.65 M61.3 40.75 L61.85 41.65 68.2 42.05 Q72.25 42.05 75.1 39.8 75.1 37.9 69.05 37.75 62.8 37.65 61.3 40.75 M54.65 40.8 Q54.8 41.2 54.9 41.55 L57.95 41.55 Q58.4 41.3 58.65 39.7 L55.15 39.9 Q54.65 40.25 54.65 40.8 M49.0 34.0 L50.2 35.2 Q52.25 36.35 56.55 36.35 58.1 36.35 59.85 34.2 59.85 31.25 54.45 31.3 49.0 31.35 49.0 34.0 M31.85 30.2 Q32.05 30.75 34.9 31.75 38.5 32.0 42.1 32.1 L45.85 31.15 Q46.85 30.3 47.1 28.2 46.4 25.4 38.8 26.35 31.15 27.25 31.85 30.2 M22.4 10.8 Q22.4 11.25 22.85 11.95 L23.8 12.9 30.65 13.0 Q31.85 12.1 31.85 11.55 31.85 9.7 27.15 9.6 22.4 9.55 22.4 10.8" fill="#bef0d8" fill-opacity="0.7058824" fill-rule="evenodd" stroke="none"/>
      <path d="M22.4 10.8 Q22.4 9.55 27.15 9.6 31.85 9.7 31.85 11.55 31.85 12.1 30.65 13.0 L23.8 12.9 22.85 11.95 Q22.4 11.25 22.4 10.8 M31.85 30.2 Q31.15 27.25 38.8 26.35 46.4 25.4 47.1 28.2 46.85 30.3 45.85 31.15 L42.1 32.1 Q38.5 32.0 34.9 31.75 32.05 30.75 31.85 30.2 M49.0 34.0 Q49.0 31.35 54.45 31.3 59.85 31.25 59.85 34.2 58.1 36.35 56.55 36.35 52.25 36.35 50.2 35.2 L49.0 34.0 M54.65 40.8 Q54.65 40.25 55.15 39.9 L58.65 39.7 Q58.4 41.3 57.95 41.55 L54.9 41.55 Q54.8 41.2 54.65 40.8 M61.3 40.75 Q62.8 37.65 69.05 37.75 75.1 37.9 75.1 39.8 72.25 42.05 68.2 42.05 L61.85 41.65 61.3 40.75 M79.35 31.65 L79.45 31.15 Q80.7 30.95 82.05 30.8 85.2 31.0 85.9 31.65 86.25 31.95 86.25 32.65 L86.25 33.1 86.05 33.55 85.85 33.75 85.5 33.85 82.9 33.65 81.1 33.15 Q80.05 32.7 79.6 32.2 L79.4 31.6 M89.9 44.75 L90.45 43.9 Q92.05 42.35 94.2 42.0 99.4 41.8 100.65 42.55 101.45 43.05 101.65 43.85 L101.7 44.35 101.55 45.2 101.05 45.65 100.25 45.9 96.1 46.15 93.3 46.1 Q91.85 45.9 90.4 45.7 L89.85 44.8 89.85 44.8 M102.9 33.8 Q102.9 31.1 106.35 30.9 L110.55 31.3 112.05 32.5 Q111.65 33.0 109.45 34.05 L107.3 35.05 104.0 34.95 Q102.9 34.15 102.9 33.8 M128.8 21.75 Q131.1 21.45 132.1 21.8 L132.85 24.0 Q130.0 24.25 129.25 23.2 128.8 22.5 128.8 21.75 Z" fill="none" stroke="#000000" stroke-linecap="round" stroke-linejoin="round" stroke-opacity="0.0" stroke-width="1.0"/>
    </g>
    <g id="morphshape2" transform="matrix(1.0, 0.0, 0.0, 1.0, -37.6, -4.7)">
      <path d="M107.25 19.0 Q107.25 20.15 107.5 20.55 L108.3 21.1 Q111.35 20.3 112.1 19.85 112.8 19.35 111.75 16.3 109.35 16.5 108.3 17.15 107.25 17.75 107.25 19.0 M94.0 16.8 Q94.0 17.85 94.6 18.45 L97.65 18.65 Q98.1 17.65 97.85 15.55 L94.1 15.45 94.0 16.8 M92.85 9.1 Q92.85 10.15 93.25 11.05 L99.2 11.05 Q100.25 10.0 100.25 6.5 95.55 6.05 93.9 6.9 92.85 7.5 92.85 9.1 M84.5 16.3 Q84.55 17.25 85.3 19.1 85.95 19.55 87.5 19.7 L88.3 18.5 Q88.8 17.8 88.1 16.0 L84.5 16.3 M75.55 14.65 Q75.15 16.55 75.95 18.05 76.95 19.8 79.2 19.8 80.35 19.8 81.55 18.05 80.7 15.65 79.05 15.0 L75.55 14.65 M64.0 9.35 L64.05 10.8 64.4 11.35 69.85 12.1 73.15 12.5 Q74.9 12.5 73.8 10.05 73.8 7.0 68.9 6.85 64.0 6.75 64.0 9.35 M56.05 22.7 L56.05 22.7 56.15 23.9 56.55 24.35 Q57.1 24.35 57.65 24.35 58.85 24.35 60.1 24.35 L64.1 24.3 Q64.3 23.0 63.5 19.85 62.55 18.15 61.65 17.3 60.3 16.05 58.75 16.6 56.2 17.8 56.2 22.6 M52.55 8.35 L52.6 9.1 52.6 9.2 Q52.65 9.65 52.85 9.75 L54.1 10.15 Q55.45 9.55 55.8 9.45 56.05 8.3 56.2 7.1 55.85 6.15 55.55 5.3 54.7 5.25 53.9 5.3 52.45 6.2 52.45 8.45 M40.9 13.9 L42.0 16.0 Q43.7 18.15 46.7 18.15 50.6 18.15 50.6 14.95 50.6 11.95 45.75 11.15 40.9 10.3 40.9 13.9" fill="#bef0d8" fill-opacity="0.7058824" fill-rule="evenodd" stroke="none"/>
      <path d="M40.9 13.9 Q40.9 10.3 45.75 11.15 50.6 11.95 50.6 14.95 50.6 18.15 46.7 18.15 43.7 18.15 42.0 16.0 L40.9 13.9 M52.45 8.45 Q52.45 6.2 53.9 5.3 54.7 5.25 55.55 5.3 55.85 6.15 56.2 7.1 56.05 8.3 55.8 9.45 55.45 9.55 54.1 10.15 L52.85 9.75 Q52.65 9.65 52.6 9.2 L52.6 9.1 52.55 8.35 M56.2 22.6 Q56.2 17.8 58.75 16.6 60.3 16.05 61.65 17.3 62.55 18.15 63.5 19.85 64.3 23.0 64.1 24.3 L60.1 24.35 Q58.85 24.35 57.65 24.35 57.1 24.35 56.55 24.35 L56.15 23.9 56.05 22.7 56.05 22.7 M64.0 9.35 Q64.0 6.75 68.9 6.85 73.8 7.0 73.8 10.05 74.9 12.5 73.15 12.5 L69.85 12.1 64.4 11.35 64.05 10.8 64.0 9.35 M75.55 14.65 L79.05 15.0 Q80.7 15.65 81.55 18.05 80.35 19.8 79.2 19.8 76.95 19.8 75.95 18.05 75.15 16.55 75.55 14.65 M84.5 16.3 L88.1 16.0 Q88.8 17.8 88.3 18.5 L87.5 19.7 Q85.95 19.55 85.3 19.1 84.55 17.25 84.5 16.3 M92.85 9.1 Q92.85 7.5 93.9 6.9 95.55 6.05 100.25 6.5 100.25 10.0 99.2 11.05 L93.25 11.05 Q92.85 10.15 92.85 9.1 M94.0 16.8 L94.1 15.45 97.85 15.55 Q98.1 17.65 97.65 18.65 L94.6 18.45 Q94.0 17.85 94.0 16.8 M107.25 19.0 Q107.25 17.75 108.3 17.15 109.35 16.5 111.75 16.3 112.8 19.35 112.1 19.85 111.35 20.3 108.3 21.1 L107.5 20.55 Q107.25 20.15 107.25 19.0 Z" fill="none" stroke="#000000" stroke-linecap="round" stroke-linejoin="round" stroke-opacity="0.0" stroke-width="1.0"/>
    </g>
    <g id="morphshape3" transform="matrix(1.0, 0.0, 0.0, 1.0, -32.35, -6.65)">
      <path d="M95.45 8.25 Q95.45 9.4 95.6 9.8 L96.05 10.55 98.05 10.55 98.55 10.05 98.7 8.85 98.45 7.35 Q98.15 6.9 95.6 6.85 95.45 6.5 95.45 8.25 M68.5 9.2 Q68.25 9.55 68.8 10.45 69.05 10.9 69.95 11.2 71.35 11.4 72.7 11.5 73.2 11.05 73.2 10.35 72.9 9.95 69.05 8.8 L68.5 9.25 M65.8 37.95 L66.1 39.9 Q66.3 40.95 66.75 41.8 L70.25 41.8 Q70.45 41.5 70.75 41.35 L70.35 38.25 66.8 37.7 Q66.0 37.65 65.8 37.95 M44.45 15.25 L44.65 16.6 45.0 17.1 46.55 17.15 Q47.6 17.15 48.2 16.7 48.4 16.55 48.4 14.8 48.4 13.65 48.05 13.1 L47.35 12.45 44.55 13.55 44.45 15.25 M37.3 29.2 L37.55 30.2 Q37.9 31.0 38.35 31.3 42.45 30.75 42.45 28.35 42.45 27.25 42.1 26.95 L41.25 26.6 39.5 26.85 37.65 27.0 37.3 29.2" fill="#ffffff" fill-opacity="0.7058824" fill-rule="evenodd" stroke="none"/>
      <path d="M37.3 29.2 L37.65 27.0 39.5 26.85 41.25 26.6 42.1 26.95 Q42.45 27.25 42.45 28.35 42.45 30.75 38.35 31.3 37.9 31.0 37.55 30.2 L37.3 29.2 M44.45 15.25 L44.55 13.55 47.35 12.45 48.05 13.1 Q48.4 13.65 48.4 14.8 48.4 16.55 48.2 16.7 47.6 17.15 46.55 17.15 L45.0 17.1 44.65 16.6 44.45 15.25 M65.8 37.95 Q66.0 37.65 66.8 37.7 L70.35 38.25 70.75 41.35 Q70.45 41.5 70.25 41.8 L66.75 41.8 Q66.3 40.95 66.1 39.9 L65.8 37.95 M68.5 9.25 L69.05 8.8 Q72.9 9.95 73.2 10.35 73.2 11.05 72.7 11.5 71.35 11.4 69.95 11.2 69.05 10.9 68.8 10.45 68.25 9.55 68.5 9.2 M95.45 8.25 Q95.45 6.5 95.6 6.85 98.15 6.9 98.45 7.35 L98.7 8.85 98.55 10.05 98.05 10.55 96.05 10.55 95.6 9.8 Q95.45 9.4 95.45 8.25 Z" fill="none" stroke="#000000" stroke-linecap="round" stroke-linejoin="round" stroke-opacity="0.0" stroke-width="1.0"/>
    </g>
  </defs>
</svg>
