<?xml version="1.0" encoding="UTF-8" standalone="no"?>
<svg xmlns:xlink="http://www.w3.org/1999/xlink" height="47.45px" width="141.0px" xmlns="http://www.w3.org/2000/svg">
  <g transform="matrix(1.0, 0.0, 0.0, 1.0, -4.35, -2.9)">
    <use data-characterId="3192" height="47.45" transform="matrix(1.0, 0.0, 0.0, 1.0, 4.35, 2.9)" width="141.0" xlink:href="#morphshape0"/>
    <use data-characterId="3193" height="37.5" transform="matrix(1.0, 0.0, 0.0, 1.0, 17.5, 9.15)" width="116.05" xlink:href="#morphshape1"/>
    <use data-characterId="3194" height="21.8" transform="matrix(1.0, 0.0, 0.0, 1.0, 37.6, 4.7)" width="75.1" xlink:href="#morphshape2"/>
    <use data-characterId="3195" height="35.65" transform="matrix(1.0, 0.0, 0.0, 1.0, 32.35, 6.65)" width="66.65" xlink:href="#morphshape3"/>
  </g>
  <defs>
    <g id="morphshape0" transform="matrix(1.0, 0.0, 0.0, 1.0, -4.35, -2.9)">
      <path d="M4.85 17.5 Q4.5 19.05 12.0 20.3 19.55 21.5 28.45 22.05 38.85 22.75 26.5 24.1 13.95 24.85 22.25 26.5 30.85 27.95 25.05 28.7 19.2 29.3 15.35 30.85 11.6 32.65 15.55 33.15 19.3 33.6 21.0 34.0 23.4 34.45 25.6 34.9 L34.8 35.7 Q29.75 37.4 31.65 38.15 22.8 40.65 38.4 40.3 40.95 40.8 51.05 39.7 43.05 42.4 44.4 43.55 45.9 44.75 52.85 45.15 60.2 45.4 67.95 46.25 76.8 47.0 71.3 48.65 65.45 50.3 68.6 49.8 73.45 49.3 77.7 49.25 L91.6 48.7 Q99.4 48.3 102.4 47.35 106.85 46.55 106.55 44.95 105.5 43.95 108.15 41.45 111.2 40.4 104.65 38.4 122.1 37.35 123.0 35.55 125.3 34.2 120.65 33.85 121.7 33.15 119.6 32.7 126.65 31.3 126.25 30.4 126.2 29.6 122.65 28.8 119.4 28.1 116.75 27.6 114.1 27.1 125.2 25.65 136.35 24.2 139.7 22.45 143.0 20.7 134.95 19.5 128.4 18.3 124.2 18.35 L122.6 18.4 122.25 18.3 Q123.5 17.5 122.1 16.75 130.9 15.6 125.7 14.6 121.6 13.65 116.15 13.5 116.6 11.95 113.5 11.05 103.9 6.9 91.4 4.85 81.3 2.8 57.2 3.9 38.15 4.95 22.35 8.4 6.25 11.05 8.8 12.05 11.35 13.0 23.0 13.85 34.6 14.6 29.4 14.85 24.25 14.95 19.15 15.1 L10.85 15.6 4.9 16.3 Q4.55 16.85 4.8 17.4" fill="#96e0bc" fill-opacity="0.7058824" fill-rule="evenodd" stroke="none"/>
      <path d="M4.8 17.4 Q4.55 16.85 4.9 16.3 L10.85 15.6 19.15 15.1 Q24.25 14.95 29.4 14.85 34.6 14.6 23.0 13.85 11.35 13.0 8.8 12.05 6.25 11.05 22.35 8.4 38.15 4.95 57.2 3.9 81.3 2.8 91.4 4.85 103.9 6.9 113.5 11.05 116.6 11.95 116.15 13.5 121.6 13.65 125.7 14.6 130.9 15.6 122.1 16.75 123.5 17.5 122.25 18.3 L122.6 18.4 124.2 18.35 Q128.4 18.3 134.95 19.5 143.0 20.7 139.7 22.45 136.35 24.2 125.2 25.65 114.1 27.1 116.75 27.6 119.4 28.1 122.65 28.8 126.2 29.6 126.25 30.4 126.65 31.3 119.6 32.7 121.7 33.15 120.65 33.85 125.3 34.2 123.0 35.55 122.1 37.35 104.65 38.4 111.2 40.4 108.15 41.45 105.5 43.95 106.55 44.95 106.85 46.55 102.4 47.35 99.4 48.3 91.6 48.7 L77.7 49.25 Q73.45 49.3 68.6 49.8 65.45 50.3 71.3 48.65 76.8 47.0 67.95 46.25 60.2 45.4 52.85 45.15 45.9 44.75 44.4 43.55 43.05 42.4 51.05 39.7 40.95 40.8 38.4 40.3 22.8 40.65 31.65 38.15 29.75 37.4 34.8 35.7 L25.6 34.9 Q23.4 34.45 21.0 34.0 19.3 33.6 15.55 33.15 11.6 32.65 15.35 30.85 19.2 29.3 25.05 28.7 30.85 27.95 22.25 26.5 13.95 24.85 26.5 24.1 38.85 22.75 28.45 22.05 19.55 21.5 12.0 20.3 4.5 19.05 4.85 17.5" fill="none" stroke="#000000" stroke-linecap="round" stroke-linejoin="round" stroke-opacity="0.0" stroke-width="1.0"/>
    </g>
    <g id="morphshape1" transform="matrix(1.0, 0.0, 0.0, 1.0, -17.5, -9.15)">
      <path d="M124.45 22.3 Q124.45 23.05 124.9 23.75 125.65 24.8 128.5 24.55 L127.75 22.35 Q126.75 22.0 124.45 22.3 M101.85 32.2 Q101.85 32.55 102.95 33.35 L106.25 33.45 108.4 32.45 Q110.6 31.4 111.0 30.9 L109.5 29.7 105.3 29.3 Q101.85 29.5 101.85 32.2 M88.4 41.3 L88.4 41.35 88.85 42.1 Q90.0 42.4 91.3 42.7 L93.8 42.9 97.45 42.8 98.1 42.6 98.5 42.25 98.65 41.55 98.6 41.05 Q98.45 40.3 97.8 39.85 96.7 39.15 92.15 39.2 90.25 39.5 88.75 40.6 L88.35 41.35 M78.0 34.95 L78.3 35.65 Q79.05 36.05 80.25 36.4 L82.35 36.75 85.45 36.8 85.95 36.65 86.25 36.35 86.45 35.75 86.45 35.3 Q86.4 34.55 85.9 34.2 85.05 33.5 81.25 33.45 79.65 33.65 78.3 34.3 L78.05 34.9 M61.7 38.0 L62.25 38.9 68.6 39.3 Q72.65 39.3 75.5 37.05 75.5 35.15 69.45 35.0 63.2 34.9 61.7 38.0 M56.85 41.25 Q56.95 41.7 57.1 42.0 L60.15 42.0 Q60.6 41.75 60.85 40.15 L57.35 40.35 Q56.85 40.7 56.85 41.25 M49.0 34.95 L50.2 36.15 Q52.25 37.3 56.55 37.3 58.1 37.3 59.85 35.15 59.85 32.2 54.45 32.25 49.0 32.3 49.0 34.95 M30.25 29.65 Q30.4 30.2 33.15 31.4 36.6 32.2 40.2 32.25 L44.0 31.6 Q45.05 30.85 45.45 28.8 44.95 25.95 37.35 26.3 29.7 26.65 30.2 29.65 M20.9 13.35 Q20.9 13.8 21.35 14.5 L22.3 15.45 29.15 15.55 Q30.35 14.65 30.35 14.1 30.35 12.25 25.65 12.15 20.9 12.1 20.9 13.35" fill="#bef0d8" fill-opacity="0.7058824" fill-rule="evenodd" stroke="none"/>
      <path d="M20.9 13.35 Q20.9 12.1 25.65 12.15 30.35 12.25 30.35 14.1 30.35 14.65 29.15 15.55 L22.3 15.45 21.35 14.5 Q20.9 13.8 20.9 13.35 M30.2 29.65 Q29.7 26.65 37.35 26.3 44.95 25.95 45.45 28.8 45.05 30.85 44.0 31.6 L40.2 32.25 Q36.6 32.2 33.15 31.4 30.4 30.2 30.25 29.65 M49.0 34.95 Q49.0 32.3 54.45 32.25 59.85 32.2 59.85 35.15 58.1 37.3 56.55 37.3 52.25 37.3 50.2 36.15 L49.0 34.95 M56.85 41.25 Q56.85 40.7 57.35 40.35 L60.85 40.15 Q60.6 41.75 60.15 42.0 L57.1 42.0 Q56.95 41.7 56.85 41.25 M61.7 38.0 Q63.2 34.9 69.45 35.0 75.5 35.15 75.5 37.05 72.65 39.3 68.6 39.3 L62.25 38.9 61.7 38.0 M78.05 34.9 L78.3 34.3 Q79.65 33.65 81.25 33.45 85.05 33.5 85.9 34.2 86.4 34.55 86.45 35.3 L86.45 35.75 86.25 36.35 85.95 36.65 85.45 36.8 82.35 36.75 80.25 36.4 Q79.05 36.05 78.3 35.65 L78.0 34.95 M88.35 41.35 L88.75 40.6 Q90.25 39.5 92.15 39.2 96.7 39.15 97.8 39.85 98.45 40.3 98.6 41.05 L98.65 41.55 98.5 42.25 98.1 42.6 97.45 42.8 93.8 42.9 91.3 42.7 Q90.0 42.4 88.85 42.1 L88.4 41.35 88.4 41.3 M101.85 32.2 Q101.85 29.5 105.3 29.3 L109.5 29.7 111.0 30.9 Q110.6 31.4 108.4 32.45 L106.25 33.45 102.95 33.35 Q101.85 32.55 101.85 32.2 M124.45 22.3 Q126.75 22.0 127.75 22.35 L128.5 24.55 Q125.65 24.8 124.9 23.75 124.45 23.05 124.45 22.3 Z" fill="none" stroke="#000000" stroke-linecap="round" stroke-linejoin="round" stroke-opacity="0.0" stroke-width="1.0"/>
    </g>
    <g id="morphshape2" transform="matrix(1.0, 0.0, 0.0, 1.0, -37.6, -4.7)">
      <path d="M105.4 17.65 Q105.4 18.8 105.65 19.2 L106.45 19.75 Q109.15 19.0 110.25 18.5 110.95 18.0 109.9 14.95 107.5 15.15 106.45 15.8 105.4 16.4 105.4 17.65 M92.65 18.45 Q92.65 19.5 93.25 20.1 L96.3 20.3 Q96.75 19.3 96.5 17.2 L92.75 17.1 92.65 18.45 M91.35 10.0 Q91.35 11.05 91.75 11.95 L97.7 11.95 Q98.75 10.9 98.75 7.4 94.05 6.95 92.4 7.8 91.35 8.4 91.35 10.0 M83.0 18.35 Q83.05 19.3 83.8 21.15 84.45 21.6 86.0 21.75 L86.8 20.55 Q87.3 19.85 86.6 18.05 L83.0 18.35 M76.55 12.1 Q76.15 14.0 76.95 15.5 77.95 17.25 80.2 17.25 81.35 17.25 82.55 15.5 81.7 13.1 80.05 12.45 L76.55 12.1 M64.85 10.85 L64.9 12.3 65.25 12.85 70.7 13.6 74.0 14.0 Q75.75 14.0 74.65 11.55 74.65 8.5 69.75 8.35 64.85 8.25 64.85 10.85 M56.05 18.85 L56.05 18.9 56.15 19.9 56.4 20.25 Q56.8 20.4 57.25 20.45 58.15 20.5 59.3 20.55 L62.55 20.3 Q62.75 19.05 62.25 16.55 61.5 15.1 60.8 14.25 59.6 13.4 58.3 13.8 56.1 14.9 56.1 18.9 M51.15 13.0 L51.2 13.9 51.35 14.1 Q51.55 14.4 51.85 14.45 L53.5 14.7 Q55.05 14.25 55.9 14.2 56.15 13.0 56.0 11.15 55.45 9.95 54.95 9.1 53.95 8.65 52.9 8.85 51.1 9.85 51.1 12.9 M39.9 12.75 L41.0 14.85 Q42.7 17.0 45.7 17.0 49.6 17.0 49.6 13.8 49.6 10.8 44.75 10.0 39.9 9.15 39.9 12.75" fill="#bef0d8" fill-opacity="0.7058824" fill-rule="evenodd" stroke="none"/>
      <path d="M39.9 12.75 Q39.9 9.15 44.75 10.0 49.6 10.8 49.6 13.8 49.6 17.0 45.7 17.0 42.7 17.0 41.0 14.85 L39.9 12.75 M51.1 12.9 Q51.1 9.85 52.9 8.85 53.95 8.65 54.95 9.1 55.45 9.95 56.0 11.15 56.15 13.0 55.9 14.2 55.05 14.25 53.5 14.7 L51.85 14.45 Q51.55 14.4 51.35 14.1 L51.2 13.9 51.15 13.0 M56.1 18.9 Q56.1 14.9 58.3 13.8 59.6 13.4 60.8 14.25 61.5 15.1 62.25 16.55 62.75 19.05 62.55 20.3 L59.3 20.55 Q58.15 20.5 57.25 20.45 56.8 20.4 56.4 20.25 L56.15 19.9 56.05 18.9 56.05 18.85 M64.85 10.85 Q64.85 8.25 69.75 8.35 74.65 8.5 74.65 11.55 75.75 14.0 74.0 14.0 L70.7 13.6 65.25 12.85 64.9 12.3 64.85 10.85 M76.55 12.1 L80.05 12.45 Q81.7 13.1 82.55 15.5 81.35 17.25 80.2 17.25 77.95 17.25 76.95 15.5 76.15 14.0 76.55 12.1 M83.0 18.35 L86.6 18.05 Q87.3 19.85 86.8 20.55 L86.0 21.75 Q84.45 21.6 83.8 21.15 83.05 19.3 83.0 18.35 M91.35 10.0 Q91.35 8.4 92.4 7.8 94.05 6.95 98.75 7.4 98.75 10.9 97.7 11.95 L91.75 11.95 Q91.35 11.05 91.35 10.0 M92.65 18.45 L92.75 17.1 96.5 17.2 Q96.75 19.3 96.3 20.3 L93.25 20.1 Q92.65 19.5 92.65 18.45 M105.4 17.65 Q105.4 16.4 106.45 15.8 107.5 15.15 109.9 14.95 110.95 18.0 110.25 18.5 109.15 19.0 106.45 19.75 L105.65 19.2 Q105.4 18.8 105.4 17.65 Z" fill="none" stroke="#000000" stroke-linecap="round" stroke-linejoin="round" stroke-opacity="0.0" stroke-width="1.0"/>
    </g>
    <g id="morphshape3" transform="matrix(1.0, 0.0, 0.0, 1.0, -32.35, -6.65)">
      <path d="M93.8 9.05 Q93.8 10.2 93.95 10.6 L94.4 11.35 96.4 11.35 96.9 10.85 97.05 9.65 96.8 8.15 Q96.5 7.7 93.95 7.65 93.8 7.3 93.8 9.05 M68.85 10.9 Q68.65 11.3 69.3 12.05 69.7 12.35 70.5 12.55 71.85 12.6 73.2 12.4 73.6 11.9 73.5 11.2 72.6 11.0 69.25 10.3 L68.8 10.85 M65.95 34.95 L66.25 36.9 Q66.45 37.95 66.9 38.8 L70.4 38.8 Q70.6 38.5 70.9 38.35 L70.5 35.25 66.95 34.7 Q66.15 34.65 65.95 34.95 M43.15 14.55 L43.35 15.9 43.7 16.4 45.25 16.45 Q46.3 16.45 46.9 16.0 47.1 15.85 47.1 14.1 47.1 12.95 46.75 12.4 L46.05 11.75 43.25 12.85 43.15 14.55 M35.8 29.2 L36.05 30.2 Q36.4 31.0 36.85 31.3 40.95 30.75 40.95 28.35 40.95 27.25 40.6 26.95 L39.75 26.6 38.0 26.85 36.15 27.0 35.8 29.2" fill="#ffffff" fill-opacity="0.7058824" fill-rule="evenodd" stroke="none"/>
      <path d="M35.8 29.2 L36.15 27.0 38.0 26.85 39.75 26.6 40.6 26.95 Q40.95 27.25 40.95 28.35 40.95 30.75 36.85 31.3 36.4 31.0 36.05 30.2 L35.8 29.2 M43.15 14.55 L43.25 12.85 46.05 11.75 46.75 12.4 Q47.1 12.95 47.1 14.1 47.1 15.85 46.9 16.0 46.3 16.45 45.25 16.45 L43.7 16.4 43.35 15.9 43.15 14.55 M65.95 34.95 Q66.15 34.65 66.95 34.7 L70.5 35.25 70.9 38.35 Q70.6 38.5 70.4 38.8 L66.9 38.8 Q66.45 37.95 66.25 36.9 L65.95 34.95 M68.8 10.85 L69.25 10.3 Q72.6 11.0 73.5 11.2 73.6 11.9 73.2 12.4 71.85 12.6 70.5 12.55 69.7 12.35 69.3 12.05 68.65 11.3 68.85 10.9 M93.8 9.05 Q93.8 7.3 93.95 7.65 96.5 7.7 96.8 8.15 L97.05 9.65 96.9 10.85 96.4 11.35 94.4 11.35 93.95 10.6 Q93.8 10.2 93.8 9.05 Z" fill="none" stroke="#000000" stroke-linecap="round" stroke-linejoin="round" stroke-opacity="0.0" stroke-width="1.0"/>
    </g>
  </defs>
</svg>
