<?xml version="1.0" encoding="UTF-8" standalone="no"?>
<svg xmlns:xlink="http://www.w3.org/1999/xlink" height="47.45px" width="141.0px" xmlns="http://www.w3.org/2000/svg">
  <g transform="matrix(1.0, 0.0, 0.0, 1.0, -4.35, -2.9)">
    <use data-characterId="3192" height="47.45" transform="matrix(1.0, 0.0, 0.0, 1.0, 4.35, 2.9)" width="141.0" xlink:href="#morphshape0"/>
    <use data-characterId="3193" height="37.5" transform="matrix(1.0, 0.0, 0.0, 1.0, 17.5, 9.15)" width="116.05" xlink:href="#morphshape1"/>
    <use data-characterId="3194" height="21.8" transform="matrix(1.0, 0.0, 0.0, 1.0, 37.6, 4.7)" width="75.1" xlink:href="#morphshape2"/>
    <use data-characterId="3195" height="35.65" transform="matrix(1.0, 0.0, 0.0, 1.0, 32.35, 6.65)" width="66.65" xlink:href="#morphshape3"/>
  </g>
  <defs>
    <g id="morphshape0" transform="matrix(1.0, 0.0, 0.0, 1.0, -4.35, -2.9)">
      <path d="M4.8 17.45 Q4.5 19.0 11.65 20.2 18.85 21.35 27.25 21.9 37.4 22.65 26.05 24.1 14.4 24.85 21.95 26.5 29.85 27.9 24.45 28.65 19.05 29.3 15.5 30.8 12.1 32.6 15.85 33.1 19.4 33.55 21.15 33.95 23.65 34.35 25.85 34.85 L34.35 35.7 Q29.65 37.4 31.9 38.15 24.0 40.45 38.75 40.15 41.05 40.7 50.4 39.75 43.0 42.35 44.55 43.55 46.25 44.8 53.0 45.15 59.95 45.4 67.4 46.3 75.85 47.15 70.95 48.7 65.65 50.25 68.95 49.65 73.85 49.05 78.05 49.0 L91.45 48.4 Q98.95 48.0 101.95 47.1 106.65 46.4 106.65 44.7 105.8 43.65 108.3 41.25 111.55 40.2 105.6 38.25 122.05 37.1 122.55 35.35 124.65 34.1 120.3 33.8 122.0 33.0 120.1 32.5 126.7 31.15 126.15 30.25 125.95 29.45 122.5 28.65 119.45 28.0 117.45 27.45 115.45 26.9 125.85 25.4 136.3 23.9 139.2 22.2 142.05 20.45 134.15 19.35 128.0 18.25 124.0 18.3 L122.5 18.35 122.15 18.25 Q123.65 17.35 122.1 16.55 130.05 15.45 125.0 14.5 121.2 13.6 116.15 13.5 116.7 11.75 113.15 10.7 103.4 6.6 89.85 4.7 79.1 2.8 55.3 4.05 36.25 5.25 21.7 8.65 6.8 11.15 9.2 12.1 11.6 13.0 22.45 13.85 33.2 14.6 28.3 14.85 23.5 14.95 18.75 15.1 L10.4 15.65 4.9 16.3 Q4.5 16.9 4.8 17.55" fill="#96e0bc" fill-opacity="0.7058824" fill-rule="evenodd" stroke="none"/>
      <path d="M4.8 17.55 Q4.5 16.9 4.9 16.3 L10.4 15.65 18.75 15.1 Q23.5 14.95 28.3 14.85 33.2 14.6 22.45 13.85 11.6 13.0 9.2 12.1 6.8 11.15 21.7 8.65 36.25 5.25 55.3 4.05 79.1 2.8 89.85 4.7 103.4 6.6 113.15 10.7 116.7 11.75 116.15 13.5 121.2 13.6 125.0 14.5 130.05 15.45 122.1 16.55 123.65 17.35 122.15 18.25 L122.5 18.35 124.0 18.3 Q128.0 18.25 134.15 19.35 142.05 20.45 139.2 22.2 136.3 23.9 125.85 25.4 115.45 26.9 117.45 27.45 119.45 28.0 122.5 28.65 125.95 29.45 126.15 30.25 126.7 31.15 120.1 32.5 122.0 33.0 120.3 33.8 124.65 34.1 122.55 35.35 122.05 37.1 105.6 38.25 111.55 40.2 108.3 41.25 105.8 43.65 106.65 44.7 106.65 46.4 101.95 47.1 98.95 48.0 91.45 48.4 L78.05 49.0 Q73.85 49.05 68.95 49.65 65.65 50.25 70.95 48.7 75.85 47.15 67.4 46.3 59.95 45.4 53.0 45.15 46.25 44.8 44.55 43.55 43.0 42.35 50.4 39.75 41.05 40.7 38.75 40.15 24.0 40.45 31.9 38.15 29.65 37.4 34.35 35.7 L25.85 34.85 Q23.65 34.35 21.15 33.95 19.4 33.55 15.85 33.1 12.1 32.6 15.5 30.8 19.05 29.3 24.45 28.65 29.85 27.9 21.95 26.5 14.4 24.85 26.05 24.1 37.4 22.65 27.25 21.9 18.85 21.35 11.65 20.2 4.5 19.0 4.8 17.45" fill="none" stroke="#000000" stroke-linecap="round" stroke-linejoin="round" stroke-opacity="0.0" stroke-width="1.0"/>
    </g>
    <g id="morphshape1" transform="matrix(1.0, 0.0, 0.0, 1.0, -17.5, -9.15)">
      <path d="M123.7 22.4 Q123.7 23.15 124.15 23.85 124.9 24.9 127.75 24.65 L127.0 22.45 Q126.0 22.1 123.7 22.4 M101.65 31.9 Q101.65 32.25 102.75 33.05 L106.05 33.15 108.2 32.15 Q110.4 31.1 110.8 30.6 L109.3 29.4 105.1 29.0 Q101.65 29.2 101.65 31.9 M88.0 40.85 L88.0 40.9 88.4 41.65 Q89.5 41.95 90.8 42.25 L93.25 42.45 96.85 42.35 97.5 42.15 97.9 41.8 98.05 41.1 98.0 40.6 Q97.9 39.85 97.25 39.45 96.2 38.75 91.75 38.8 89.9 39.05 88.45 40.1 L88.05 40.8 M77.9 35.4 L78.25 36.1 Q79.05 36.5 80.25 36.85 L82.4 37.2 85.55 37.25 86.05 37.1 86.35 36.8 86.55 36.2 86.55 35.75 Q86.45 35.0 85.95 34.6 85.05 33.9 81.15 33.85 79.5 34.1 78.1 34.8 L77.85 35.45 M61.75 37.5 L62.3 38.4 68.65 38.8 Q72.7 38.8 75.55 36.55 75.55 34.65 69.5 34.5 63.25 34.4 61.75 37.5 M57.2 41.3 Q57.3 41.75 57.45 42.05 L60.5 42.05 Q60.95 41.8 61.2 40.2 L57.7 40.4 Q57.2 40.75 57.2 41.3 M49.0 35.1 L50.2 36.3 Q52.25 37.45 56.55 37.45 58.1 37.45 59.85 35.3 59.85 32.35 54.45 32.4 49.0 32.45 49.0 35.1 M29.9 29.6 Q30.0 30.15 32.75 31.35 36.2 32.25 39.8 32.25 L43.6 31.65 Q44.7 30.95 45.15 28.9 44.7 26.05 37.1 26.3 29.45 26.55 29.9 29.55 M20.65 13.8 Q20.65 14.25 21.1 14.95 L22.05 15.9 28.9 16.0 Q30.1 15.1 30.1 14.55 30.1 12.7 25.4 12.6 20.65 12.55 20.65 13.8" fill="#bef0d8" fill-opacity="0.7058824" fill-rule="evenodd" stroke="none"/>
      <path d="M20.65 13.8 Q20.65 12.55 25.4 12.6 30.1 12.7 30.1 14.55 30.1 15.1 28.9 16.0 L22.05 15.9 21.1 14.95 Q20.65 14.25 20.65 13.8 M29.9 29.55 Q29.45 26.55 37.1 26.3 44.7 26.05 45.15 28.9 44.7 30.95 43.6 31.65 L39.8 32.25 Q36.2 32.25 32.75 31.35 30.0 30.15 29.9 29.6 M49.0 35.1 Q49.0 32.45 54.45 32.4 59.85 32.35 59.85 35.3 58.1 37.45 56.55 37.45 52.25 37.45 50.2 36.3 L49.0 35.1 M57.2 41.3 Q57.2 40.75 57.7 40.4 L61.2 40.2 Q60.95 41.8 60.5 42.05 L57.45 42.05 Q57.3 41.75 57.2 41.3 M61.75 37.5 Q63.25 34.4 69.5 34.5 75.55 34.65 75.55 36.55 72.7 38.8 68.65 38.8 L62.3 38.4 61.75 37.5 M77.85 35.45 L78.1 34.8 Q79.5 34.1 81.15 33.85 85.05 33.9 85.95 34.6 86.45 35.0 86.55 35.75 L86.55 36.2 86.35 36.8 86.05 37.1 85.55 37.25 82.4 37.2 80.25 36.85 Q79.05 36.5 78.25 36.1 L77.9 35.4 M88.05 40.8 L88.45 40.1 Q89.9 39.05 91.75 38.8 96.2 38.75 97.25 39.45 97.9 39.85 98.0 40.6 L98.05 41.1 97.9 41.8 97.5 42.15 96.85 42.35 93.25 42.45 90.8 42.25 Q89.5 41.95 88.4 41.65 L88.0 40.9 88.0 40.85 M101.65 31.9 Q101.65 29.2 105.1 29.0 L109.3 29.4 110.8 30.6 Q110.4 31.1 108.2 32.15 L106.05 33.15 102.75 33.05 Q101.65 32.25 101.65 31.9 M123.7 22.4 Q126.0 22.1 127.0 22.45 L127.75 24.65 Q124.9 24.9 124.15 23.85 123.7 23.15 123.7 22.4 Z" fill="none" stroke="#000000" stroke-linecap="round" stroke-linejoin="round" stroke-opacity="0.0" stroke-width="1.0"/>
    </g>
    <g id="morphshape2" transform="matrix(1.0, 0.0, 0.0, 1.0, -37.6, -4.7)">
      <path d="M105.1 17.4 Q105.1 18.55 105.35 18.95 L106.15 19.5 Q108.8 18.75 109.95 18.25 110.65 17.75 109.6 14.7 107.2 14.9 106.15 15.55 105.1 16.15 105.1 17.4 M92.4 18.75 Q92.4 19.8 93.0 20.4 L96.05 20.6 Q96.5 19.6 96.25 17.5 L92.5 17.4 92.4 18.75 M91.1 10.15 Q91.1 11.2 91.5 12.1 L97.45 12.1 Q98.5 11.05 98.5 7.55 93.8 7.1 92.15 7.95 91.1 8.55 91.1 10.15 M82.75 18.7 Q82.8 19.65 83.55 21.5 84.2 21.95 85.75 22.1 L86.55 20.9 Q87.05 20.2 86.35 18.4 L82.75 18.7 M76.7 11.65 Q76.3 13.55 77.1 15.05 78.1 16.8 80.35 16.8 81.5 16.8 82.7 15.05 81.85 12.65 80.2 12.0 L76.7 11.65 M65.0 11.1 L65.05 12.55 65.4 13.1 70.85 13.85 74.15 14.25 Q75.9 14.25 74.8 11.8 74.8 8.75 69.9 8.6 65.0 8.5 65.0 11.1 M56.15 18.25 L56.15 18.35 56.25 19.3 56.5 19.6 Q56.85 19.75 57.25 19.8 58.1 19.9 59.25 20.0 L62.35 19.7 Q62.55 18.45 62.1 16.05 61.35 14.65 60.65 13.8 59.5 13.0 58.25 13.35 56.1 14.45 56.1 18.3 M50.8 13.65 L50.85 14.55 51.0 14.8 Q51.25 15.1 51.6 15.15 L53.3 15.4 Q54.9 15.0 55.85 14.95 56.1 13.75 55.9 11.8 55.35 10.55 54.85 9.7 53.8 9.2 52.7 9.45 50.85 10.45 50.85 13.65 M39.7 12.6 L40.8 14.7 Q42.5 16.85 45.5 16.85 49.4 16.85 49.4 13.65 49.4 10.65 44.55 9.85 39.7 9.0 39.7 12.6" fill="#bef0d8" fill-opacity="0.7058824" fill-rule="evenodd" stroke="none"/>
      <path d="M39.7 12.6 Q39.7 9.0 44.55 9.85 49.4 10.65 49.4 13.65 49.4 16.85 45.5 16.85 42.5 16.85 40.8 14.7 L39.7 12.6 M50.85 13.65 Q50.85 10.45 52.7 9.45 53.8 9.2 54.85 9.7 55.35 10.55 55.9 11.8 56.1 13.75 55.85 14.95 54.9 15.0 53.3 15.4 L51.6 15.15 Q51.25 15.1 51.0 14.8 L50.85 14.55 50.8 13.65 M56.1 18.3 Q56.1 14.45 58.25 13.35 59.5 13.0 60.65 13.8 61.35 14.65 62.1 16.05 62.55 18.45 62.35 19.7 L59.25 20.0 Q58.1 19.9 57.25 19.8 56.85 19.75 56.5 19.6 L56.25 19.3 56.15 18.35 56.15 18.25 M65.0 11.1 Q65.0 8.5 69.9 8.6 74.8 8.75 74.8 11.8 75.9 14.25 74.15 14.25 L70.85 13.85 65.4 13.1 65.05 12.55 65.0 11.1 M76.7 11.65 L80.2 12.0 Q81.85 12.65 82.7 15.05 81.5 16.8 80.35 16.8 78.1 16.8 77.1 15.05 76.3 13.55 76.7 11.65 M82.75 18.7 L86.35 18.4 Q87.05 20.2 86.55 20.9 L85.75 22.1 Q84.2 21.95 83.55 21.5 82.8 19.65 82.75 18.7 M91.1 10.15 Q91.1 8.55 92.15 7.95 93.8 7.1 98.5 7.55 98.5 11.05 97.45 12.1 L91.5 12.1 Q91.1 11.2 91.1 10.15 M92.4 18.75 L92.5 17.4 96.25 17.5 Q96.5 19.6 96.05 20.6 L93.0 20.4 Q92.4 19.8 92.4 18.75 M105.1 17.4 Q105.1 16.15 106.15 15.55 107.2 14.9 109.6 14.7 110.65 17.75 109.95 18.25 108.8 18.75 106.15 19.5 L105.35 18.95 Q105.1 18.55 105.1 17.4 Z" fill="none" stroke="#000000" stroke-linecap="round" stroke-linejoin="round" stroke-opacity="0.0" stroke-width="1.0"/>
    </g>
    <g id="morphshape3" transform="matrix(1.0, 0.0, 0.0, 1.0, -32.35, -6.65)">
      <path d="M93.55 9.2 Q93.55 10.35 93.7 10.75 L94.15 11.5 96.15 11.5 96.65 11.0 96.8 9.8 96.55 8.3 Q96.25 7.85 93.7 7.8 93.55 7.45 93.55 9.2 M68.9 11.1 Q68.75 11.5 69.45 12.25 69.85 12.55 70.65 12.75 71.95 12.8 73.3 12.55 73.7 12.0 73.55 11.3 72.55 11.15 69.25 10.55 L68.85 11.1 M65.95 34.45 L66.25 36.4 Q66.45 37.45 66.9 38.3 L70.4 38.3 Q70.6 38.0 70.9 37.85 L70.5 34.75 66.95 34.2 Q66.15 34.15 65.95 34.45 M42.9 14.4 L43.1 15.75 43.45 16.25 45.0 16.3 Q46.05 16.3 46.65 15.85 46.85 15.7 46.85 13.95 46.85 12.8 46.5 12.25 L45.8 11.6 43.0 12.7 42.9 14.4 M35.55 29.2 L35.8 30.2 Q36.15 31.0 36.6 31.3 40.7 30.75 40.7 28.35 40.7 27.25 40.35 26.95 L39.5 26.6 37.75 26.85 35.9 27.0 35.55 29.2" fill="#ffffff" fill-opacity="0.7058824" fill-rule="evenodd" stroke="none"/>
      <path d="M35.55 29.2 L35.9 27.0 37.75 26.85 39.5 26.6 40.35 26.95 Q40.7 27.25 40.7 28.35 40.7 30.75 36.6 31.3 36.15 31.0 35.8 30.2 L35.55 29.2 M42.9 14.4 L43.0 12.7 45.8 11.6 46.5 12.25 Q46.85 12.8 46.85 13.95 46.85 15.7 46.65 15.85 46.05 16.3 45.0 16.3 L43.45 16.25 43.1 15.75 42.9 14.4 M65.95 34.45 Q66.15 34.15 66.95 34.2 L70.5 34.75 70.9 37.85 Q70.6 38.0 70.4 38.3 L66.9 38.3 Q66.45 37.45 66.25 36.4 L65.95 34.45 M68.85 11.1 L69.25 10.55 Q72.55 11.15 73.55 11.3 73.7 12.0 73.3 12.55 71.95 12.8 70.65 12.75 69.85 12.55 69.45 12.25 68.75 11.5 68.9 11.1 M93.55 9.2 Q93.55 7.45 93.7 7.8 96.25 7.85 96.55 8.3 L96.8 9.8 96.65 11.0 96.15 11.5 94.15 11.5 93.7 10.75 Q93.55 10.35 93.55 9.2 Z" fill="none" stroke="#000000" stroke-linecap="round" stroke-linejoin="round" stroke-opacity="0.0" stroke-width="1.0"/>
    </g>
  </defs>
</svg>
