<?xml version="1.0" encoding="UTF-8" standalone="no"?>
<svg xmlns:xlink="http://www.w3.org/1999/xlink" height="47.45px" width="141.0px" xmlns="http://www.w3.org/2000/svg">
  <g transform="matrix(1.0, 0.0, 0.0, 1.0, -4.35, -2.9)">
    <use data-characterId="3188" height="47.45" transform="matrix(1.0, 0.0, 0.0, 1.0, 4.35, 2.9)" width="141.0" xlink:href="#morphshape0"/>
    <use data-characterId="3189" height="37.5" transform="matrix(1.0, 0.0, 0.0, 1.0, 17.5, 9.15)" width="116.05" xlink:href="#morphshape1"/>
    <use data-characterId="3190" height="21.8" transform="matrix(1.0, 0.0, 0.0, 1.0, 37.6, 4.7)" width="75.1" xlink:href="#morphshape2"/>
    <use data-characterId="3191" height="35.65" transform="matrix(1.0, 0.0, 0.0, 1.0, 32.35, 6.65)" width="66.65" xlink:href="#morphshape3"/>
  </g>
  <defs>
    <g id="morphshape0" transform="matrix(1.0, 0.0, 0.0, 1.0, -4.35, -2.9)">
      <path d="M4.85 16.7 Q4.15 18.3 13.25 19.75 22.35 21.15 33.2 21.75 44.65 22.4 28.15 23.4 11.55 24.2 23.1 26.0 34.75 27.7 27.2 28.35 19.6 28.95 14.4 30.7 9.25 32.5 13.95 32.95 18.6 33.35 20.2 33.85 22.0 34.35 24.15 34.6 L36.3 35.25 Q29.85 36.8 30.35 37.45 17.4 40.7 36.55 40.25 40.15 40.5 53.4 38.7 42.9 41.9 43.5 42.95 44.15 44.05 52.0 44.55 61.05 44.9 70.2 45.45 80.8 45.95 72.7 48.1 64.4 50.25 66.95 50.05 71.7 49.9 76.15 49.9 L92.1 49.45 Q101.3 49.05 104.2 47.9 107.65 46.8 106.1 45.65 104.25 44.7 107.55 41.9 109.65 40.7 100.6 38.4 122.3 37.9 124.9 36.0 128.05 34.3 122.0 33.9 120.15 33.45 117.1 33.1 126.1 31.55 126.45 30.7 126.9 29.85 122.75 28.95 118.7 28.1 113.25 27.8 107.85 27.5 122.0 26.35 136.2 25.2 141.45 23.35 146.65 21.45 137.85 19.9 129.65 18.35 124.5 18.4 L122.45 18.5 122.25 18.45 Q122.55 18.05 121.8 17.65 134.4 16.2 128.6 15.0 123.2 13.8 116.05 13.65 116.25 13.05 115.05 12.7 106.15 8.35 97.95 5.65 90.65 2.95 65.15 3.35 46.05 3.75 25.0 7.4 3.8 10.7 7.05 11.8 10.3 12.85 25.5 13.8 40.65 14.7 34.05 14.9 27.4 15.0 20.8 15.1 L12.7 15.4 4.9 16.3 Q4.75 16.5 4.85 16.7" fill="#96e0bc" fill-opacity="0.7058824" fill-rule="evenodd" stroke="none"/>
      <path d="M4.85 16.7 Q4.75 16.5 4.9 16.3 L12.7 15.4 20.8 15.1 Q27.4 15.0 34.05 14.9 40.65 14.7 25.5 13.8 10.3 12.85 7.05 11.8 3.8 10.7 25.0 7.4 46.05 3.75 65.15 3.35 90.65 2.95 97.95 5.65 106.15 8.35 115.05 12.7 116.25 13.05 116.05 13.65 123.2 13.8 128.6 15.0 134.4 16.2 121.8 17.65 122.55 18.05 122.25 18.45 L122.45 18.5 124.5 18.4 Q129.65 18.35 137.85 19.9 146.65 21.45 141.45 23.35 136.2 25.2 122.0 26.35 107.85 27.5 113.25 27.8 118.7 28.1 122.75 28.95 126.9 29.85 126.45 30.7 126.1 31.55 117.1 33.1 120.15 33.45 122.0 33.9 128.05 34.3 124.9 36.0 122.3 37.9 100.6 38.4 109.65 40.7 107.55 41.9 104.25 44.7 106.1 45.65 107.65 46.8 104.2 47.9 101.3 49.05 92.1 49.45 L76.15 49.9 Q71.7 49.9 66.95 50.05 64.4 50.25 72.7 48.1 80.8 45.95 70.2 45.45 61.05 44.9 52.0 44.55 44.15 44.05 43.5 42.95 42.9 41.9 53.4 38.7 40.15 40.5 36.55 40.25 17.4 40.7 30.35 37.45 29.85 36.8 36.3 35.25 L24.15 34.6 Q22.0 34.35 20.2 33.85 18.6 33.35 13.95 32.95 9.25 32.5 14.4 30.7 19.6 28.95 27.2 28.35 34.75 27.7 23.1 26.0 11.55 24.2 28.15 23.4 44.65 22.4 33.2 21.75 22.35 21.15 13.25 19.75 4.15 18.3 4.85 16.7 Z" fill="none" stroke="#000000" stroke-linecap="round" stroke-linejoin="round" stroke-opacity="0.0" stroke-width="1.0"/>
    </g>
    <g id="morphshape1" transform="matrix(1.0, 0.0, 0.0, 1.0, -17.5, -9.15)">
      <path d="M127.55 21.9 Q127.55 22.65 128.0 23.35 128.75 24.4 131.6 24.15 L130.85 21.95 Q129.85 21.6 127.55 21.9 M102.6 33.35 Q102.6 33.7 103.7 34.5 L107.0 34.6 109.15 33.6 Q111.35 32.55 111.75 32.05 L110.25 30.85 106.05 30.45 Q102.6 30.65 102.6 33.35 M89.5 43.8 L90.0 44.65 Q91.35 44.9 92.75 45.15 L95.45 45.25 99.45 45.05 100.2 44.8 100.65 44.4 100.8 43.6 100.75 43.1 Q100.6 42.3 99.85 41.85 98.65 41.1 93.65 41.25 91.55 41.55 90.0 42.95 L89.45 43.75 M78.9 32.5 L78.9 32.6 79.15 33.15 Q79.7 33.6 80.8 34.0 L82.7 34.45 85.45 34.6 85.85 34.5 86.1 34.25 86.3 33.75 86.3 33.3 Q86.25 32.6 85.85 32.25 85.1 31.6 81.75 31.45 80.35 31.65 79.05 32.0 L78.95 32.55 M61.4 39.95 L61.95 40.85 68.3 41.25 Q72.35 41.25 75.2 39.0 75.2 37.1 69.15 36.95 62.9 36.85 61.4 39.95 M55.3 40.9 Q55.45 41.3 55.55 41.65 L58.6 41.65 Q59.05 41.4 59.3 39.8 L55.8 40.0 Q55.3 40.35 55.3 40.9 M49.0 34.25 L50.2 35.45 Q52.25 36.6 56.55 36.6 58.1 36.6 59.85 34.45 59.85 31.5 54.45 31.55 49.0 31.6 49.0 34.25 M31.4 30.05 Q31.55 30.6 34.35 31.65 37.9 32.05 41.5 32.1 L45.25 31.25 Q46.3 30.45 46.6 28.35 45.95 25.55 38.35 26.35 30.7 27.1 31.35 30.05 M22.0 11.5 Q22.0 11.95 22.45 12.65 L23.4 13.6 30.25 13.7 Q31.45 12.8 31.45 12.25 31.45 10.4 26.75 10.3 22.0 10.25 22.0 11.5" fill="#bef0d8" fill-opacity="0.7058824" fill-rule="evenodd" stroke="none"/>
      <path d="M22.0 11.5 Q22.0 10.25 26.75 10.3 31.45 10.4 31.45 12.25 31.45 12.8 30.25 13.7 L23.4 13.6 22.45 12.65 Q22.0 11.95 22.0 11.5 M31.35 30.05 Q30.7 27.1 38.35 26.35 45.95 25.55 46.6 28.35 46.3 30.45 45.25 31.25 L41.5 32.1 Q37.9 32.05 34.35 31.65 31.55 30.6 31.4 30.05 M49.0 34.25 Q49.0 31.6 54.45 31.55 59.85 31.5 59.85 34.45 58.1 36.6 56.55 36.6 52.25 36.6 50.2 35.45 L49.0 34.25 M55.3 40.9 Q55.3 40.35 55.8 40.0 L59.3 39.8 Q59.05 41.4 58.6 41.65 L55.55 41.65 Q55.45 41.3 55.3 40.9 M61.4 39.95 Q62.9 36.85 69.15 36.95 75.2 37.1 75.2 39.0 72.35 41.25 68.3 41.25 L61.95 40.85 61.4 39.95 M78.95 32.55 L79.05 32.0 Q80.35 31.65 81.75 31.45 85.1 31.6 85.85 32.25 86.25 32.6 86.3 33.3 L86.3 33.75 86.1 34.25 85.85 34.5 85.45 34.6 82.7 34.45 80.8 34.0 Q79.7 33.6 79.15 33.15 L78.9 32.6 78.9 32.5 M89.45 43.75 L90.0 42.95 Q91.55 41.55 93.65 41.25 98.65 41.1 99.85 41.85 100.6 42.3 100.75 43.1 L100.8 43.6 100.65 44.4 100.2 44.8 99.45 45.05 95.45 45.25 92.75 45.15 Q91.35 44.9 90.0 44.65 L89.5 43.8 M102.6 33.35 Q102.6 30.65 106.05 30.45 L110.25 30.85 111.75 32.05 Q111.35 32.55 109.15 33.6 L107.0 34.6 103.7 34.5 Q102.6 33.7 102.6 33.35 M127.55 21.9 Q129.85 21.6 130.85 21.95 L131.6 24.15 Q128.75 24.4 128.0 23.35 127.55 22.65 127.55 21.9 Z" fill="none" stroke="#000000" stroke-linecap="round" stroke-linejoin="round" stroke-opacity="0.0" stroke-width="1.0"/>
    </g>
    <g id="morphshape2" transform="matrix(1.0, 0.0, 0.0, 1.0, -37.6, -4.7)">
      <path d="M106.7 18.65 Q106.7 19.8 106.95 20.2 L107.75 20.75 Q110.7 19.95 111.55 19.5 112.25 19.0 111.2 15.95 108.8 16.15 107.75 16.8 106.7 17.4 106.7 18.65 M93.65 17.25 Q93.65 18.3 94.25 18.9 L97.3 19.1 Q97.75 18.1 97.5 16.0 L93.75 15.9 93.65 17.25 M92.4 9.35 Q92.4 10.4 92.8 11.3 L98.75 11.3 Q99.8 10.25 99.8 6.75 95.1 6.3 93.45 7.15 92.4 7.75 92.4 9.35 M84.1 16.9 Q84.15 17.85 84.9 19.7 85.55 20.15 87.1 20.3 L87.9 19.1 Q88.4 18.4 87.7 16.6 L84.1 16.9 M75.85 13.95 Q75.45 15.85 76.25 17.35 77.25 19.1 79.5 19.1 80.65 19.1 81.85 17.35 81.0 14.95 79.35 14.3 L75.85 13.95 M64.25 9.8 L64.3 11.25 64.65 11.8 70.1 12.55 73.4 12.95 Q75.15 12.95 74.05 10.5 74.05 7.45 69.15 7.3 64.25 7.2 64.25 9.8 M56.15 21.55 L56.25 22.75 56.6 23.15 Q57.1 23.2 57.6 23.2 58.7 23.25 59.9 23.3 L63.65 23.2 Q63.85 21.9 63.15 18.95 62.25 17.3 61.4 16.45 60.1 15.3 58.6 15.8 56.15 16.95 56.15 21.55 M52.15 9.65 L52.15 9.8 52.2 10.4 52.25 10.55 Q52.35 10.95 52.6 11.05 L53.95 11.4 Q55.35 10.85 55.85 10.75 56.1 9.6 56.15 8.2 55.75 7.2 55.4 6.35 54.5 6.2 53.65 6.3 52.1 7.25 52.1 9.7 M40.6 13.6 L41.7 15.7 Q43.4 17.85 46.4 17.85 50.3 17.85 50.3 14.65 50.3 11.65 45.45 10.85 40.6 10.0 40.6 13.6" fill="#bef0d8" fill-opacity="0.7058824" fill-rule="evenodd" stroke="none"/>
      <path d="M40.6 13.6 Q40.6 10.0 45.45 10.85 50.3 11.65 50.3 14.65 50.3 17.85 46.4 17.85 43.4 17.85 41.7 15.7 L40.6 13.6 M52.1 9.7 Q52.1 7.25 53.65 6.3 54.5 6.2 55.4 6.35 55.75 7.2 56.15 8.2 56.1 9.6 55.85 10.75 55.35 10.85 53.95 11.4 L52.6 11.05 Q52.35 10.95 52.25 10.55 L52.2 10.4 52.15 9.8 52.15 9.65 M56.15 21.55 Q56.15 16.95 58.6 15.8 60.1 15.3 61.4 16.45 62.25 17.3 63.15 18.95 63.85 21.9 63.65 23.2 L59.9 23.3 Q58.7 23.25 57.6 23.2 57.1 23.2 56.6 23.15 L56.25 22.75 56.15 21.55 M64.25 9.8 Q64.25 7.2 69.15 7.3 74.05 7.45 74.05 10.5 75.15 12.95 73.4 12.95 L70.1 12.55 64.65 11.8 64.3 11.25 64.25 9.8 M75.85 13.95 L79.35 14.3 Q81.0 14.95 81.85 17.35 80.65 19.1 79.5 19.1 77.25 19.1 76.25 17.35 75.45 15.85 75.85 13.95 M84.1 16.9 L87.7 16.6 Q88.4 18.4 87.9 19.1 L87.1 20.3 Q85.55 20.15 84.9 19.7 84.15 17.85 84.1 16.9 M92.4 9.35 Q92.4 7.75 93.45 7.15 95.1 6.3 99.8 6.75 99.8 10.25 98.75 11.3 L92.8 11.3 Q92.4 10.4 92.4 9.35 M93.65 17.25 L93.75 15.9 97.5 16.0 Q97.75 18.1 97.3 19.1 L94.25 18.9 Q93.65 18.3 93.65 17.25 M106.7 18.65 Q106.7 17.4 107.75 16.8 108.8 16.15 111.2 15.95 112.25 19.0 111.55 19.5 110.7 19.95 107.75 20.75 L106.95 20.2 Q106.7 19.8 106.7 18.65 Z" fill="none" stroke="#000000" stroke-linecap="round" stroke-linejoin="round" stroke-opacity="0.0" stroke-width="1.0"/>
    </g>
    <g id="morphshape3" transform="matrix(1.0, 0.0, 0.0, 1.0, -32.35, -6.65)">
      <path d="M95.55 8.2 Q95.55 9.35 95.7 9.75 L96.15 10.5 98.15 10.5 98.65 10.0 98.8 8.8 98.55 7.3 Q98.25 6.85 95.7 6.8 95.55 6.45 95.55 8.2 M68.6 9.65 Q68.35 10.0 68.9 10.9 69.2 11.35 70.05 11.65 L72.8 12.0 Q73.3 11.55 73.3 10.85 73.1 10.4 69.15 9.2 L68.6 9.65 M65.8 37.25 L66.1 39.2 Q66.3 40.25 66.75 41.1 L70.25 41.1 Q70.45 40.8 70.75 40.65 L70.35 37.55 66.8 37.0 Q66.0 36.95 65.8 37.25 M44.05 15.05 L44.25 16.4 44.6 16.9 46.15 16.95 Q47.2 16.95 47.8 16.5 48.0 16.35 48.0 14.6 48.0 13.45 47.65 12.9 L46.95 12.25 44.15 13.35 44.05 15.05 M36.85 29.2 L37.1 30.2 Q37.45 31.0 37.9 31.3 42.0 30.75 42.0 28.35 42.0 27.25 41.65 26.95 L40.8 26.6 39.05 26.85 37.2 27.0 36.85 29.2" fill="#ffffff" fill-opacity="0.7058824" fill-rule="evenodd" stroke="none"/>
      <path d="M36.85 29.2 L37.2 27.0 39.05 26.85 40.8 26.6 41.65 26.95 Q42.0 27.25 42.0 28.35 42.0 30.75 37.9 31.3 37.45 31.0 37.1 30.2 L36.85 29.2 M44.05 15.05 L44.15 13.35 46.95 12.25 47.65 12.9 Q48.0 13.45 48.0 14.6 48.0 16.35 47.8 16.5 47.2 16.95 46.15 16.95 L44.6 16.9 44.25 16.4 44.05 15.05 M65.8 37.25 Q66.0 36.95 66.8 37.0 L70.35 37.55 70.75 40.65 Q70.45 40.8 70.25 41.1 L66.75 41.1 Q66.3 40.25 66.1 39.2 L65.8 37.25 M68.6 9.65 L69.15 9.2 Q73.1 10.4 73.3 10.85 73.3 11.55 72.8 12.0 L70.05 11.65 Q69.2 11.35 68.9 10.9 68.35 10.0 68.6 9.65 M95.55 8.2 Q95.55 6.45 95.7 6.8 98.25 6.85 98.55 7.3 L98.8 8.8 98.65 10.0 98.15 10.5 96.15 10.5 95.7 9.75 Q95.55 9.35 95.55 8.2 Z" fill="none" stroke="#000000" stroke-linecap="round" stroke-linejoin="round" stroke-opacity="0.0" stroke-width="1.0"/>
    </g>
  </defs>
</svg>
