<?xml version="1.0" encoding="UTF-8" standalone="no"?>
<svg xmlns:xlink="http://www.w3.org/1999/xlink" height="47.45px" width="141.0px" xmlns="http://www.w3.org/2000/svg">
  <g transform="matrix(1.0, 0.0, 0.0, 1.0, -4.35, -2.9)">
    <use data-characterId="3192" height="47.45" transform="matrix(1.0, 0.0, 0.0, 1.0, 4.35, 2.9)" width="141.0" xlink:href="#morphshape0"/>
    <use data-characterId="3193" height="37.5" transform="matrix(1.0, 0.0, 0.0, 1.0, 17.5, 9.15)" width="116.05" xlink:href="#morphshape1"/>
    <use data-characterId="3194" height="21.8" transform="matrix(1.0, 0.0, 0.0, 1.0, 37.6, 4.7)" width="75.1" xlink:href="#morphshape2"/>
    <use data-characterId="3195" height="35.65" transform="matrix(1.0, 0.0, 0.0, 1.0, 32.35, 6.65)" width="66.65" xlink:href="#morphshape3"/>
  </g>
  <defs>
    <g id="morphshape0" transform="matrix(1.0, 0.0, 0.0, 1.0, -4.35, -2.9)">
      <path d="M4.85 19.3 Q5.55 20.75 8.1 21.45 10.75 21.9 13.4 22.3 20.55 23.25 21.25 25.75 21.25 26.4 19.4 27.7 18.4 28.35 18.1 29.35 17.8 30.1 18.1 31.0 18.8 32.8 20.3 33.5 21.3 34.0 23.4 34.15 27.55 34.35 29.9 35.45 L29.8 36.75 Q29.2 38.9 35.45 39.9 39.45 40.05 43.85 40.15 42.95 41.4 43.15 42.35 43.0 43.45 46.75 44.95 50.9 46.6 55.05 46.65 57.1 46.65 60.5 48.35 63.85 50.05 66.55 50.1 68.25 50.15 73.25 48.6 78.5 46.95 82.05 46.75 L89.45 45.75 Q92.9 45.35 96.2 44.95 103.75 45.2 107.4 42.25 108.85 41.0 109.55 39.5 115.6 38.8 116.95 37.75 121.0 35.05 116.6 33.7 116.3 33.6 115.9 33.5 126.0 31.85 126.75 31.0 127.6 30.1 124.95 29.15 123.35 28.55 121.65 28.0 121.05 27.8 127.2 26.7 133.3 25.6 134.9 23.3 136.5 21.0 133.8 19.7 130.95 18.3 125.15 18.35 123.85 18.4 122.65 18.45 L122.45 18.45 121.75 18.15 Q126.15 16.05 122.8 14.15 119.65 13.85 116.3 13.6 116.25 13.55 116.15 13.55 117.55 9.15 108.5 6.5 96.85 3.0 70.7 2.95 51.7 2.9 31.95 6.1 13.05 9.1 13.85 11.9 13.9 12.55 14.3 13.15 14.7 13.7 15.25 14.25 15.6 14.65 14.8 14.95 14.3 15.0 13.95 15.2 L5.0 16.25 4.85 16.25 Q3.95 17.85 4.75 19.5" fill="#96e0bc" fill-opacity="0.7058824" fill-rule="evenodd" stroke="none"/>
      <path d="M4.75 19.5 Q3.95 17.85 4.85 16.25 L5.0 16.25 13.95 15.2 Q14.3 15.0 14.8 14.95 15.6 14.65 15.25 14.25 14.7 13.7 14.3 13.15 13.9 12.55 13.85 11.9 13.05 9.1 31.95 6.1 51.7 2.9 70.7 2.95 96.85 3.0 108.5 6.5 117.55 9.15 116.15 13.55 116.25 13.55 116.3 13.6 119.65 13.85 122.8 14.15 126.15 16.05 121.75 18.15 L122.45 18.45 122.65 18.45 Q123.85 18.4 125.15 18.35 130.95 18.3 133.8 19.7 136.5 21.0 134.9 23.3 133.3 25.6 127.2 26.7 121.05 27.8 121.65 28.0 123.35 28.55 124.95 29.15 127.6 30.1 126.75 31.0 126.0 31.85 115.9 33.5 116.3 33.6 116.6 33.7 121.0 35.05 116.95 37.75 115.6 38.8 109.55 39.5 108.85 41.0 107.4 42.25 103.75 45.2 96.2 44.95 92.9 45.35 89.45 45.75 L82.05 46.75 Q78.5 46.95 73.25 48.6 68.25 50.15 66.55 50.1 63.85 50.05 60.5 48.35 57.1 46.65 55.05 46.65 50.9 46.6 46.75 44.95 43.0 43.45 43.15 42.35 42.95 41.4 43.85 40.15 39.45 40.05 35.45 39.9 29.2 38.9 29.8 36.75 L29.9 35.45 Q27.55 34.35 23.4 34.15 21.3 34.0 20.3 33.5 18.8 32.8 18.1 31.0 17.8 30.1 18.1 29.35 18.4 28.35 19.4 27.7 21.25 26.4 21.25 25.75 20.55 23.25 13.4 22.3 10.75 21.9 8.1 21.45 5.55 20.75 4.85 19.3" fill="none" stroke="#000000" stroke-linecap="round" stroke-linejoin="round" stroke-opacity="0.0" stroke-width="1.0"/>
    </g>
    <g id="morphshape1" transform="matrix(1.0, 0.0, 0.0, 1.0, -17.5, -9.15)">
      <path d="M114.7 23.65 Q114.7 24.4 115.15 25.1 115.9 26.15 118.75 25.9 L118.0 23.7 Q117.0 23.35 114.7 23.65 M99.5 28.55 Q99.5 28.9 100.6 29.7 L103.9 29.8 106.05 28.8 Q108.25 27.75 108.65 27.25 L107.15 26.05 102.95 25.65 Q99.5 25.85 99.5 28.55 M84.85 33.75 L84.85 33.85 85.05 34.35 Q85.45 34.85 86.5 35.3 L88.25 35.8 90.75 36.0 91.1 35.9 91.3 35.7 91.5 35.25 91.5 34.8 Q91.5 34.1 91.15 33.8 90.5 33.15 87.4 32.95 86.1 33.1 84.85 33.25 L84.8 33.75 M75.1 42.25 L75.65 43.15 Q77.15 43.35 78.6 43.55 L81.45 43.6 85.7 43.35 86.5 43.1 87.0 42.65 87.15 41.8 87.1 41.3 Q86.9 40.5 86.1 40.0 84.8 39.25 79.55 39.45 77.35 39.8 75.75 41.4 L75.15 42.25 M62.55 31.75 L63.1 32.65 69.45 33.05 Q73.5 33.05 76.35 30.8 76.35 28.9 70.3 28.75 64.05 28.65 62.55 31.75 M61.75 42.3 Q61.75 42.8 62.0 43.05 L65.05 43.05 Q65.5 42.8 65.75 41.2 L62.25 41.4 Q61.75 41.75 61.75 42.3 M49.0 37.0 L50.2 38.2 Q52.25 39.35 56.55 39.35 58.1 39.35 59.85 37.2 59.85 34.25 54.45 34.3 49.0 34.35 49.0 37.0 M26.45 28.3 Q26.45 28.9 29.0 30.55 32.2 32.7 35.85 32.6 L39.75 32.6 Q40.95 32.1 41.7 30.15 41.7 27.25 34.1 26.25 26.45 25.25 26.45 28.3 M17.55 19.2 Q17.55 19.65 18.0 20.35 L18.95 21.3 25.8 21.4 Q27.0 20.5 27.0 19.95 27.0 18.1 22.3 18.0 17.55 17.95 17.55 19.2" fill="#bef0d8" fill-opacity="0.7058824" fill-rule="evenodd" stroke="none"/>
      <path d="M17.55 19.2 Q17.55 17.95 22.3 18.0 27.0 18.1 27.0 19.95 27.0 20.5 25.8 21.4 L18.95 21.3 18.0 20.35 Q17.55 19.65 17.55 19.2 M26.45 28.3 Q26.45 25.25 34.1 26.25 41.7 27.25 41.7 30.15 40.95 32.1 39.75 32.6 L35.85 32.6 Q32.2 32.7 29.0 30.55 26.45 28.9 26.45 28.3 M49.0 37.0 Q49.0 34.35 54.45 34.3 59.85 34.25 59.85 37.2 58.1 39.35 56.55 39.35 52.25 39.35 50.2 38.2 L49.0 37.0 M61.75 42.3 Q61.75 41.75 62.25 41.4 L65.75 41.2 Q65.5 42.8 65.05 43.05 L62.0 43.05 Q61.75 42.8 61.75 42.3 M62.55 31.75 Q64.05 28.65 70.3 28.75 76.35 28.9 76.35 30.8 73.5 33.05 69.45 33.05 L63.1 32.65 62.55 31.75 M75.15 42.25 L75.75 41.4 Q77.35 39.8 79.55 39.45 84.8 39.25 86.1 40.0 86.9 40.5 87.1 41.3 L87.15 41.8 87.0 42.65 86.5 43.1 85.7 43.35 81.45 43.6 78.6 43.55 Q77.15 43.35 75.65 43.15 L75.1 42.25 M84.8 33.75 L84.85 33.25 Q86.1 33.1 87.4 32.95 90.5 33.15 91.15 33.8 91.5 34.1 91.5 34.8 L91.5 35.25 91.3 35.7 91.1 35.9 90.75 36.0 88.25 35.8 86.5 35.3 Q85.45 34.85 85.05 34.35 L84.85 33.85 84.85 33.75 M99.5 28.55 Q99.5 25.85 102.95 25.65 L107.15 26.05 108.65 27.25 Q108.25 27.75 106.05 28.8 L103.9 29.8 100.6 29.7 Q99.5 28.9 99.5 28.55 M114.7 23.65 Q117.0 23.35 118.0 23.7 L118.75 25.9 Q115.9 26.15 115.15 25.1 114.7 24.4 114.7 23.65 Z" fill="none" stroke="#000000" stroke-linecap="round" stroke-linejoin="round" stroke-opacity="0.0" stroke-width="1.0"/>
    </g>
    <g id="morphshape2" transform="matrix(1.0, 0.0, 0.0, 1.0, -37.6, -4.7)">
      <path d="M101.3 14.55 Q101.3 15.7 101.55 16.1 L102.35 16.65 Q104.25 16.0 106.15 15.4 106.85 14.9 105.8 11.85 103.4 12.05 102.35 12.7 101.3 13.3 101.3 14.55 M89.55 22.25 Q89.55 23.3 90.15 23.9 L93.2 24.1 Q93.65 23.1 93.4 21.0 L89.65 20.9 89.55 22.25 M87.9 12.0 Q87.9 13.05 88.3 13.95 L94.25 13.95 Q95.3 12.9 95.3 9.4 90.6 8.95 88.95 9.8 87.9 10.4 87.9 12.0 M79.65 23.0 Q79.7 23.95 80.45 25.8 81.1 26.25 82.65 26.4 L83.45 25.2 Q83.95 24.5 83.25 22.7 L79.65 23.0 M78.7 6.3 Q78.3 8.2 79.1 9.7 80.1 11.45 82.35 11.45 83.5 11.45 84.7 9.7 83.85 7.3 82.2 6.65 L78.7 6.3 M66.8 14.3 L66.85 15.75 67.2 16.3 72.65 17.05 75.95 17.45 Q77.7 17.45 76.6 15.0 76.6 11.95 71.7 11.8 66.8 11.7 66.8 14.3 M55.85 10.65 L55.85 10.85 55.9 11.35 55.9 11.45 Q55.95 11.9 56.15 12.0 56.4 12.2 57.35 12.4 L58.95 11.65 Q59.2 10.5 59.4 9.35 59.1 8.45 58.85 7.6 58.05 7.6 57.3 7.6 55.9 8.5 55.9 10.65 M48.0 22.95 L48.1 24.2 48.5 24.65 Q49.05 24.65 49.6 24.65 L52.1 24.65 Q54.15 24.65 56.2 24.65 56.4 23.35 55.55 20.15 54.55 18.4 53.6 17.55 52.2 16.25 50.6 16.85 48.0 18.05 48.0 22.95 M37.65 10.2 L38.75 12.3 Q40.45 14.45 43.45 14.45 47.35 14.45 47.35 11.25 47.35 8.25 42.5 7.45 37.65 6.6 37.65 10.2" fill="#bef0d8" fill-opacity="0.7058824" fill-rule="evenodd" stroke="none"/>
      <path d="M37.65 10.2 Q37.65 6.6 42.5 7.45 47.35 8.25 47.35 11.25 47.35 14.45 43.45 14.45 40.45 14.45 38.75 12.3 L37.65 10.2 M48.0 22.95 Q48.0 18.05 50.6 16.85 52.2 16.25 53.6 17.55 54.55 18.4 55.55 20.15 56.4 23.35 56.2 24.65 54.15 24.65 52.1 24.65 L49.6 24.65 Q49.05 24.65 48.5 24.65 L48.1 24.2 48.0 22.95 M55.9 10.65 Q55.9 8.5 57.3 7.6 58.05 7.6 58.85 7.6 59.1 8.45 59.4 9.35 59.2 10.5 58.95 11.65 L57.35 12.4 Q56.4 12.2 56.15 12.0 55.95 11.9 55.9 11.45 L55.9 11.35 55.85 10.85 55.85 10.65 M66.8 14.3 Q66.8 11.7 71.7 11.8 76.6 11.95 76.6 15.0 77.7 17.45 75.95 17.45 L72.65 17.05 67.2 16.3 66.85 15.75 66.8 14.3 M78.7 6.3 L82.2 6.65 Q83.85 7.3 84.7 9.7 83.5 11.45 82.35 11.45 80.1 11.45 79.1 9.7 78.3 8.2 78.7 6.3 M79.65 23.0 L83.25 22.7 Q83.95 24.5 83.45 25.2 L82.65 26.4 Q81.1 26.25 80.45 25.8 79.7 23.95 79.65 23.0 M87.9 12.0 Q87.9 10.4 88.95 9.8 90.6 8.95 95.3 9.4 95.3 12.9 94.25 13.95 L88.3 13.95 Q87.9 13.05 87.9 12.0 M89.55 22.25 L89.65 20.9 93.4 21.0 Q93.65 23.1 93.2 24.1 L90.15 23.9 Q89.55 23.3 89.55 22.25 M101.3 14.55 Q101.3 13.3 102.35 12.7 103.4 12.05 105.8 11.85 106.85 14.9 106.15 15.4 104.25 16.0 102.35 16.65 L101.55 16.1 Q101.3 15.7 101.3 14.55 Z" fill="none" stroke="#000000" stroke-linecap="round" stroke-linejoin="round" stroke-opacity="0.0" stroke-width="1.0"/>
    </g>
    <g id="morphshape3" transform="matrix(1.0, 0.0, 0.0, 1.0, -32.35, -6.65)">
      <path d="M90.05 10.9 Q90.05 12.05 90.2 12.45 L90.65 13.2 92.65 13.2 93.15 12.7 93.3 11.5 93.05 10.0 Q92.75 9.55 90.2 9.5 90.05 9.15 90.05 10.9 M69.45 14.45 Q69.4 14.9 70.3 15.4 71.0 15.45 71.65 15.45 72.85 15.25 74.2 14.4 74.45 13.75 74.1 13.1 71.85 13.45 69.65 13.75 L69.45 14.45 M66.3 28.2 L66.6 30.15 Q66.8 31.2 67.25 32.05 L70.75 32.05 Q71.0 31.8 71.25 31.6 L70.85 28.5 67.3 27.95 Q66.5 27.9 66.3 28.2 M40.2 13.0 L40.4 14.35 40.75 14.85 42.3 14.9 Q43.35 14.9 43.95 14.45 44.15 14.3 44.15 12.55 44.15 11.4 43.8 10.85 L43.1 10.2 40.3 11.3 40.2 13.0 M32.4 29.2 L32.65 30.2 Q33.0 31.0 33.45 31.3 37.55 30.75 37.55 28.35 37.55 27.25 37.2 26.95 L36.35 26.6 34.6 26.85 32.75 27.0 32.4 29.2" fill="#ffffff" fill-opacity="0.7058824" fill-rule="evenodd" stroke="none"/>
      <path d="M32.4 29.2 L32.75 27.0 34.6 26.85 36.35 26.6 37.2 26.95 Q37.55 27.25 37.55 28.35 37.55 30.75 33.45 31.3 33.0 31.0 32.65 30.2 L32.4 29.2 M40.2 13.0 L40.3 11.3 43.1 10.2 43.8 10.85 Q44.15 11.4 44.15 12.55 44.15 14.3 43.95 14.45 43.35 14.9 42.3 14.9 L40.75 14.85 40.4 14.35 40.2 13.0 M66.3 28.2 Q66.5 27.9 67.3 27.95 L70.85 28.5 71.25 31.6 Q71.0 31.8 70.75 32.05 L67.25 32.05 Q66.8 31.2 66.6 30.15 L66.3 28.2 M69.45 14.45 L69.65 13.75 Q71.85 13.45 74.1 13.1 74.45 13.75 74.2 14.4 72.85 15.25 71.65 15.45 71.0 15.45 70.3 15.4 69.4 14.9 69.45 14.45 M90.05 10.9 Q90.05 9.15 90.2 9.5 92.75 9.55 93.05 10.0 L93.3 11.5 93.15 12.7 92.65 13.2 90.65 13.2 90.2 12.45 Q90.05 12.05 90.05 10.9 Z" fill="none" stroke="#000000" stroke-linecap="round" stroke-linejoin="round" stroke-opacity="0.0" stroke-width="1.0"/>
    </g>
  </defs>
</svg>
