<?xml version="1.0" encoding="UTF-8" standalone="no"?>
<svg xmlns:xlink="http://www.w3.org/1999/xlink" height="47.45px" width="141.0px" xmlns="http://www.w3.org/2000/svg">
  <g transform="matrix(1.0, 0.0, 0.0, 1.0, -4.35, -2.9)">
    <use data-characterId="3192" height="47.45" transform="matrix(1.0, 0.0, 0.0, 1.0, 4.35, 2.9)" width="141.0" xlink:href="#morphshape0"/>
    <use data-characterId="3193" height="37.5" transform="matrix(1.0, 0.0, 0.0, 1.0, 17.5, 9.15)" width="116.05" xlink:href="#morphshape1"/>
    <use data-characterId="3194" height="21.8" transform="matrix(1.0, 0.0, 0.0, 1.0, 37.6, 4.7)" width="75.1" xlink:href="#morphshape2"/>
    <use data-characterId="3195" height="35.65" transform="matrix(1.0, 0.0, 0.0, 1.0, 32.35, 6.65)" width="66.65" xlink:href="#morphshape3"/>
  </g>
  <defs>
    <g id="morphshape0" transform="matrix(1.0, 0.0, 0.0, 1.0, -4.35, -2.9)">
      <path d="M5.05 16.5 Q4.2 18.1 14.0 19.6 23.85 21.1 35.6 21.75 47.5 22.35 29.1 23.2 10.7 24.0 23.75 25.85 36.8 27.65 28.45 28.25 20.05 28.8 14.25 30.6 8.45 32.4 13.5 32.8 18.55 33.2 20.05 33.75 21.6 34.3 23.7 34.5 L37.2 35.1 Q30.1 36.6 30.0 37.2 15.15 40.75 35.95 40.2 40.05 40.35 54.75 38.25 43.15 41.7 43.4 42.7 43.65 43.7 51.9 44.25 61.7 44.65 71.5 45.1 82.9 45.45 73.6 47.85 64.2 50.25 66.5 50.2 71.15 50.2 75.7 50.25 L92.6 49.9 Q102.45 49.5 105.3 48.3 108.3 47.05 106.15 46.1 103.95 45.2 107.55 42.25 109.2 41.0 99.0 38.55 122.65 38.3 126.0 36.3 129.5 34.4 122.85 33.95 119.7 33.65 116.25 33.4 126.15 31.8 126.8 30.95 127.45 30.05 123.0 29.1 118.55 28.2 111.85 27.95 105.2 27.7 120.7 26.65 136.25 25.6 142.35 23.65 148.45 21.7 139.35 19.95 130.4 18.2 124.8 18.25 L122.55 18.35 122.4 18.35 Q122.2 18.15 121.75 17.95 136.1 16.4 130.05 15.1 124.05 13.75 116.1 13.55 116.15 13.35 115.8 13.25 107.2 8.85 101.0 5.85 95.0 2.85 68.85 2.95 49.7 3.05 26.2 6.75 2.65 10.35 6.25 11.55 9.85 12.7 26.65 13.7 43.45 14.65 36.2 14.85 28.85 14.95 21.55 15.05 L13.55 15.3 4.9 16.3 Q4.8 16.35 4.85 16.4" fill="#96e0bc" fill-opacity="0.7058824" fill-rule="evenodd" stroke="none"/>
      <path d="M4.85 16.4 Q4.8 16.35 4.9 16.3 L13.55 15.3 21.55 15.05 Q28.85 14.95 36.2 14.85 43.45 14.65 26.65 13.7 9.85 12.7 6.25 11.55 2.65 10.35 26.2 6.75 49.7 3.05 68.85 2.95 95.0 2.85 101.0 5.85 107.2 8.85 115.8 13.25 116.15 13.35 116.1 13.55 124.05 13.75 130.05 15.1 136.1 16.4 121.75 17.95 122.2 18.15 122.4 18.35 L122.55 18.35 124.8 18.25 Q130.4 18.2 139.35 19.95 148.45 21.7 142.35 23.65 136.25 25.6 120.7 26.65 105.2 27.7 111.85 27.95 118.55 28.2 123.0 29.1 127.45 30.05 126.8 30.95 126.15 31.8 116.25 33.4 119.7 33.65 122.85 33.95 129.5 34.4 126.0 36.3 122.65 38.3 99.0 38.55 109.2 41.0 107.55 42.25 103.95 45.2 106.15 46.1 108.3 47.05 105.3 48.3 102.45 49.5 92.6 49.9 L75.7 50.25 Q71.15 50.2 66.5 50.2 64.2 50.25 73.6 47.85 82.9 45.45 71.5 45.1 61.7 44.65 51.9 44.25 43.65 43.7 43.4 42.7 43.15 41.7 54.75 38.25 40.05 40.35 35.95 40.2 15.15 40.75 30.0 37.2 30.1 36.6 37.2 35.1 L23.7 34.5 Q21.6 34.3 20.05 33.75 18.55 33.2 13.5 32.8 8.45 32.4 14.25 30.6 20.05 28.8 28.45 28.25 36.8 27.65 23.75 25.85 10.7 24.0 29.1 23.2 47.5 22.35 35.6 21.75 23.85 21.1 14.0 19.6 4.2 18.1 5.05 16.5" fill="none" stroke="#000000" stroke-linecap="round" stroke-linejoin="round" stroke-opacity="0.0" stroke-width="1.0"/>
    </g>
    <g id="morphshape1" transform="matrix(1.0, 0.0, 0.0, 1.0, -17.5, -9.15)">
      <path d="M128.95 21.7 Q128.95 22.45 129.4 23.15 130.15 24.2 133.0 23.95 L132.25 21.75 Q131.25 21.4 128.95 21.7 M102.9 33.85 Q102.9 34.2 104.0 35.0 L107.3 35.1 109.45 34.1 Q111.65 33.05 112.05 32.55 L110.55 31.35 106.35 30.95 Q102.9 31.15 102.9 33.85 M89.95 44.95 L89.95 44.95 90.5 45.85 Q91.95 46.05 93.4 46.25 L96.2 46.3 100.4 46.05 101.2 45.8 101.7 45.35 101.85 44.5 101.8 44.0 Q101.6 43.2 100.8 42.7 99.5 41.95 94.3 42.15 92.15 42.5 90.55 44.05 L89.95 44.9 M79.4 31.45 L79.6 32.05 Q80.05 32.55 81.1 33.0 L82.9 33.5 85.45 33.7 85.8 33.6 86.0 33.4 86.2 32.95 86.2 32.5 Q86.2 31.8 85.85 31.5 85.2 30.85 82.05 30.65 80.7 30.8 79.45 31.0 L79.4 31.5 M61.3 40.85 L61.85 41.75 68.2 42.15 Q72.25 42.15 75.1 39.9 75.1 38.0 69.05 37.85 62.8 37.75 61.3 40.85 M54.55 40.75 Q54.7 41.15 54.8 41.5 L57.85 41.5 Q58.3 41.25 58.55 39.65 L55.05 39.85 Q54.55 40.2 54.55 40.75 M49.0 33.95 L50.2 35.15 Q52.25 36.3 56.55 36.3 58.1 36.3 59.85 34.15 59.85 31.2 54.45 31.25 49.0 31.3 49.0 33.95 M31.9 30.2 Q32.1 30.75 34.95 31.75 38.55 31.95 42.15 32.05 L45.9 31.1 Q46.9 30.25 47.15 28.15 46.45 25.35 38.85 26.35 31.2 27.3 31.9 30.25 M22.45 10.65 Q22.45 11.1 22.9 11.8 L23.85 12.75 30.7 12.85 Q31.9 11.95 31.9 11.4 31.9 9.55 27.2 9.45 22.45 9.4 22.45 10.65" fill="#bef0d8" fill-opacity="0.7058824" fill-rule="evenodd" stroke="none"/>
      <path d="M22.45 10.65 Q22.45 9.4 27.2 9.45 31.9 9.55 31.9 11.4 31.9 11.95 30.7 12.85 L23.85 12.75 22.9 11.8 Q22.45 11.1 22.45 10.65 M31.9 30.25 Q31.2 27.3 38.85 26.35 46.45 25.35 47.15 28.15 46.9 30.25 45.9 31.1 L42.15 32.05 Q38.55 31.95 34.95 31.75 32.1 30.75 31.9 30.2 M49.0 33.95 Q49.0 31.3 54.45 31.25 59.85 31.2 59.85 34.15 58.1 36.3 56.55 36.3 52.25 36.3 50.2 35.15 L49.0 33.95 M54.55 40.75 Q54.55 40.2 55.05 39.85 L58.55 39.65 Q58.3 41.25 57.85 41.5 L54.8 41.5 Q54.7 41.15 54.55 40.75 M61.3 40.85 Q62.8 37.75 69.05 37.85 75.1 38.0 75.1 39.9 72.25 42.15 68.2 42.15 L61.85 41.75 61.3 40.85 M79.4 31.5 L79.45 31.0 Q80.7 30.8 82.05 30.65 85.2 30.85 85.85 31.5 86.2 31.8 86.2 32.5 L86.2 32.95 86.0 33.4 85.8 33.6 85.45 33.7 82.9 33.5 81.1 33.0 Q80.05 32.55 79.6 32.05 L79.4 31.45 M89.95 44.9 L90.55 44.05 Q92.15 42.5 94.3 42.15 99.5 41.95 100.8 42.7 101.6 43.2 101.8 44.0 L101.85 44.5 101.7 45.35 101.2 45.8 100.4 46.05 96.2 46.3 93.4 46.25 Q91.95 46.05 90.5 45.85 L89.95 44.95 89.95 44.95 M102.9 33.85 Q102.9 31.15 106.35 30.95 L110.55 31.35 112.05 32.55 Q111.65 33.05 109.45 34.1 L107.3 35.1 104.0 35.0 Q102.9 34.2 102.9 33.85 M128.95 21.7 Q131.25 21.4 132.25 21.75 L133.0 23.95 Q130.15 24.2 129.4 23.15 128.95 22.45 128.95 21.7 Z" fill="none" stroke="#000000" stroke-linecap="round" stroke-linejoin="round" stroke-opacity="0.0" stroke-width="1.0"/>
    </g>
    <g id="morphshape2" transform="matrix(1.0, 0.0, 0.0, 1.0, -37.6, -4.7)">
      <path d="M107.3 19.1 Q107.3 20.25 107.55 20.65 L108.35 21.2 Q111.4 20.4 112.15 19.95 112.85 19.45 111.8 16.4 109.4 16.6 108.35 17.25 107.3 17.85 107.3 19.1 M94.1 16.7 Q94.1 17.75 94.7 18.35 L97.75 18.55 Q98.2 17.55 97.95 15.45 L94.2 15.35 94.1 16.7 M92.9 9.05 Q92.9 10.1 93.3 11.0 L99.25 11.0 Q100.3 9.95 100.3 6.45 95.6 6.0 93.95 6.85 92.9 7.45 92.9 9.05 M84.55 16.2 Q84.6 17.15 85.35 19.0 86.0 19.45 87.55 19.6 L88.35 18.4 Q88.85 17.7 88.15 15.9 L84.55 16.2 M75.5 14.8 Q75.1 16.7 75.9 18.2 76.9 19.95 79.15 19.95 80.3 19.95 81.5 18.2 80.65 15.8 79.0 15.15 L75.5 14.8 M63.95 9.3 L64.0 10.75 64.35 11.3 69.8 12.05 73.1 12.45 Q74.85 12.45 73.75 10.0 73.75 6.95 68.85 6.8 63.95 6.7 63.95 9.3 M56.1 22.75 L56.1 22.75 56.2 23.95 56.6 24.4 Q57.15 24.4 57.7 24.4 58.9 24.4 60.15 24.4 L64.15 24.35 Q64.35 23.05 63.55 19.9 62.6 18.2 61.7 17.35 60.3 16.1 58.75 16.7 56.2 17.9 56.2 22.75 M52.65 8.35 L52.7 9.05 52.7 9.15 Q52.75 9.6 52.95 9.7 L54.2 10.1 Q55.55 9.45 55.85 9.35 56.1 8.2 56.25 7.0 55.9 6.05 55.6 5.2 54.8 5.15 54.0 5.15 52.55 6.05 52.55 8.25 M40.95 13.95 L42.05 16.05 Q43.75 18.2 46.75 18.2 50.65 18.2 50.65 15.0 50.65 12.0 45.8 11.2 40.95 10.35 40.95 13.95" fill="#bef0d8" fill-opacity="0.7058824" fill-rule="evenodd" stroke="none"/>
      <path d="M40.95 13.95 Q40.95 10.35 45.8 11.2 50.65 12.0 50.65 15.0 50.65 18.2 46.75 18.2 43.75 18.2 42.05 16.05 L40.95 13.95 M52.55 8.25 Q52.55 6.05 54.0 5.15 54.8 5.15 55.6 5.2 55.9 6.05 56.25 7.0 56.1 8.2 55.85 9.35 55.55 9.45 54.2 10.1 L52.95 9.7 Q52.75 9.6 52.7 9.15 L52.7 9.05 52.65 8.35 M56.2 22.75 Q56.2 17.9 58.75 16.7 60.3 16.1 61.7 17.35 62.6 18.2 63.55 19.9 64.35 23.05 64.15 24.35 L60.15 24.4 Q58.9 24.4 57.7 24.4 57.15 24.4 56.6 24.4 L56.2 23.95 56.1 22.75 56.1 22.75 M63.95 9.3 Q63.95 6.7 68.85 6.8 73.75 6.95 73.75 10.0 74.85 12.45 73.1 12.45 L69.8 12.05 64.35 11.3 64.0 10.75 63.95 9.3 M75.5 14.8 L79.0 15.15 Q80.65 15.8 81.5 18.2 80.3 19.95 79.15 19.95 76.9 19.95 75.9 18.2 75.1 16.7 75.5 14.8 M84.55 16.2 L88.15 15.9 Q88.85 17.7 88.35 18.4 L87.55 19.6 Q86.0 19.45 85.35 19.0 84.6 17.15 84.55 16.2 M92.9 9.05 Q92.9 7.45 93.95 6.85 95.6 6.0 100.3 6.45 100.3 9.95 99.25 11.0 L93.3 11.0 Q92.9 10.1 92.9 9.05 M94.1 16.7 L94.2 15.35 97.95 15.45 Q98.2 17.55 97.75 18.55 L94.7 18.35 Q94.1 17.75 94.1 16.7 M107.3 19.1 Q107.3 17.85 108.35 17.25 109.4 16.6 111.8 16.4 112.85 19.45 112.15 19.95 111.4 20.4 108.35 21.2 L107.55 20.65 Q107.3 20.25 107.3 19.1 Z" fill="none" stroke="#000000" stroke-linecap="round" stroke-linejoin="round" stroke-opacity="0.0" stroke-width="1.0"/>
    </g>
    <g id="morphshape3" transform="matrix(1.0, 0.0, 0.0, 1.0, -32.35, -6.65)">
      <path d="M95.55 8.2 Q95.55 9.35 95.7 9.75 L96.15 10.5 98.15 10.5 98.65 10.0 98.8 8.8 98.55 7.3 Q98.25 6.85 95.7 6.8 95.55 6.45 95.55 8.2 M68.5 9.15 Q68.25 9.5 68.8 10.4 69.05 10.85 69.95 11.15 71.35 11.35 72.7 11.45 73.2 11.0 73.2 10.3 72.95 9.9 69.05 8.75 L68.5 9.2 M65.75 38.05 L66.05 40.0 Q66.25 41.05 66.7 41.9 L70.2 41.9 Q70.4 41.6 70.7 41.45 L70.3 38.35 66.75 37.8 Q65.95 37.75 65.75 38.05 M44.5 15.25 L44.7 16.6 45.05 17.1 46.6 17.15 Q47.65 17.15 48.25 16.7 48.45 16.55 48.45 14.8 48.45 13.65 48.1 13.1 L47.4 12.45 44.6 13.55 44.5 15.25 M37.35 29.2 L37.6 30.2 Q37.95 31.0 38.4 31.3 42.5 30.75 42.5 28.35 42.5 27.25 42.15 26.95 L41.3 26.6 39.55 26.85 37.7 27.0 37.35 29.2" fill="#ffffff" fill-opacity="0.7058824" fill-rule="evenodd" stroke="none"/>
      <path d="M37.35 29.2 L37.7 27.0 39.55 26.85 41.3 26.6 42.15 26.95 Q42.5 27.25 42.5 28.35 42.5 30.75 38.4 31.3 37.95 31.0 37.6 30.2 L37.35 29.2 M44.5 15.25 L44.6 13.55 47.4 12.45 48.1 13.1 Q48.45 13.65 48.45 14.8 48.45 16.55 48.25 16.7 47.65 17.15 46.6 17.15 L45.05 17.1 44.7 16.6 44.5 15.25 M65.75 38.05 Q65.95 37.75 66.75 37.8 L70.3 38.35 70.7 41.45 Q70.4 41.6 70.2 41.9 L66.7 41.9 Q66.25 41.05 66.05 40.0 L65.75 38.05 M68.5 9.2 L69.05 8.75 Q72.95 9.9 73.2 10.3 73.2 11.0 72.7 11.45 71.35 11.35 69.95 11.15 69.05 10.85 68.8 10.4 68.25 9.5 68.5 9.15 M95.55 8.2 Q95.55 6.45 95.7 6.8 98.25 6.85 98.55 7.3 L98.8 8.8 98.65 10.0 98.15 10.5 96.15 10.5 95.7 9.75 Q95.55 9.35 95.55 8.2 Z" fill="none" stroke="#000000" stroke-linecap="round" stroke-linejoin="round" stroke-opacity="0.0" stroke-width="1.0"/>
    </g>
  </defs>
</svg>
