<?xml version="1.0" encoding="UTF-8" standalone="no"?>
<svg xmlns:xlink="http://www.w3.org/1999/xlink" height="47.45px" width="141.0px" xmlns="http://www.w3.org/2000/svg">
  <g transform="matrix(1.0, 0.0, 0.0, 1.0, -4.35, -2.9)">
    <use data-characterId="3192" height="47.45" transform="matrix(1.0, 0.0, 0.0, 1.0, 4.35, 2.9)" width="141.0" xlink:href="#morphshape0"/>
    <use data-characterId="3193" height="37.5" transform="matrix(1.0, 0.0, 0.0, 1.0, 17.5, 9.15)" width="116.05" xlink:href="#morphshape1"/>
    <use data-characterId="3194" height="21.8" transform="matrix(1.0, 0.0, 0.0, 1.0, 37.6, 4.7)" width="75.1" xlink:href="#morphshape2"/>
    <use data-characterId="3195" height="35.65" transform="matrix(1.0, 0.0, 0.0, 1.0, 32.35, 6.65)" width="66.65" xlink:href="#morphshape3"/>
  </g>
  <defs>
    <g id="morphshape0" transform="matrix(1.0, 0.0, 0.0, 1.0, -4.35, -2.9)">
      <path d="M4.85 16.4 Q4.05 18.0 13.7 19.5 23.35 21.0 34.85 21.65 46.65 22.25 28.75 23.15 10.8 23.95 23.45 25.75 36.15 27.55 28.0 28.15 19.8 28.7 14.15 30.5 8.5 32.3 13.45 32.7 18.4 33.1 19.95 33.65 21.55 34.2 23.65 34.4 L36.8 35.0 Q29.85 36.5 29.9 37.1 15.55 40.6 35.9 40.1 39.9 40.25 54.25 38.25 42.95 41.65 43.25 42.7 43.6 43.75 51.75 44.25 61.35 44.65 71.0 45.15 82.2 45.55 73.2 47.9 64.1 50.25 66.45 50.15 71.15 50.1 75.7 50.15 L92.35 49.75 Q102.05 49.35 104.95 48.15 108.1 46.95 106.1 45.95 104.0 45.05 107.5 42.15 109.3 40.95 99.4 38.55 122.55 38.25 125.7 36.3 129.1 34.45 122.6 34.0 119.8 33.65 116.45 33.35 126.15 31.75 126.75 30.9 127.35 30.0 122.95 29.05 118.6 28.15 112.2 27.9 105.85 27.65 121.0 26.55 136.2 25.45 142.1 23.55 148.0 21.65 138.95 19.95 130.2 18.25 124.75 18.3 L122.55 18.4 122.35 18.4 Q122.3 18.15 121.75 17.9 135.65 16.4 129.65 15.1 123.8 13.8 116.05 13.6 116.15 13.3 115.6 13.15 106.9 8.75 100.2 5.85 93.9 2.95 67.9 3.15 48.75 3.35 25.9 7.05 2.95 10.55 6.45 11.7 9.95 12.8 26.3 13.75 42.65 14.65 35.55 14.85 28.4 14.95 21.3 15.05 L13.3 15.3 4.9 16.3 Q4.8 16.4 4.85 16.5" fill="#96e0bc" fill-opacity="0.7058824" fill-rule="evenodd" stroke="none"/>
      <path d="M4.85 16.5 Q4.8 16.4 4.9 16.3 L13.3 15.3 21.3 15.05 Q28.4 14.95 35.55 14.85 42.65 14.65 26.3 13.75 9.95 12.8 6.45 11.7 2.95 10.55 25.9 7.05 48.75 3.35 67.9 3.15 93.9 2.95 100.2 5.85 106.9 8.75 115.6 13.15 116.15 13.3 116.05 13.6 123.8 13.8 129.65 15.1 135.65 16.4 121.75 17.9 122.3 18.15 122.35 18.4 L122.55 18.4 124.75 18.3 Q130.2 18.25 138.95 19.95 148.0 21.65 142.1 23.55 136.2 25.45 121.0 26.55 105.85 27.65 112.2 27.9 118.6 28.15 122.95 29.05 127.35 30.0 126.75 30.9 126.15 31.75 116.45 33.35 119.8 33.65 122.6 34.0 129.1 34.45 125.7 36.3 122.55 38.25 99.4 38.55 109.3 40.95 107.5 42.15 104.0 45.05 106.1 45.95 108.1 46.95 104.95 48.15 102.05 49.35 92.35 49.75 L75.7 50.15 Q71.15 50.1 66.45 50.15 64.1 50.25 73.2 47.9 82.2 45.55 71.0 45.15 61.35 44.65 51.75 44.25 43.6 43.75 43.25 42.7 42.95 41.65 54.25 38.25 39.9 40.25 35.9 40.1 15.55 40.6 29.9 37.1 29.85 36.5 36.8 35.0 L23.65 34.4 Q21.55 34.2 19.95 33.65 18.4 33.1 13.45 32.7 8.5 32.3 14.15 30.5 19.8 28.7 28.0 28.15 36.15 27.55 23.45 25.75 10.8 23.95 28.75 23.15 46.65 22.25 34.85 21.65 23.35 21.0 13.7 19.5 4.05 18.0 4.85 16.4" fill="none" stroke="#000000" stroke-linecap="round" stroke-linejoin="round" stroke-opacity="0.0" stroke-width="1.0"/>
    </g>
    <g id="morphshape1" transform="matrix(1.0, 0.0, 0.0, 1.0, -17.5, -9.15)">
      <path d="M128.6 21.75 Q128.6 22.5 129.05 23.2 129.8 24.25 132.65 24.0 L131.9 21.8 Q130.9 21.45 128.6 21.75 M102.85 33.7 Q102.85 34.05 103.95 34.85 L107.25 34.95 109.4 33.95 Q111.6 32.9 112.0 32.4 L110.5 31.2 106.3 30.8 Q102.85 31.0 102.85 33.7 M89.7 44.6 L89.7 44.6 90.25 45.5 Q91.7 45.7 93.15 45.9 L95.95 46.0 100.1 45.8 100.85 45.55 101.35 45.1 101.5 44.25 101.45 43.75 Q101.25 42.95 100.5 42.45 99.25 41.7 94.1 41.9 91.95 42.25 90.35 43.75 L89.8 44.6 M79.4 31.8 L79.6 32.4 Q80.05 32.9 81.1 33.35 L82.9 33.8 85.5 33.95 85.9 33.85 86.1 33.65 86.3 33.2 86.3 32.75 Q86.3 32.05 85.9 31.75 85.2 31.1 82.0 30.9 80.65 31.05 79.4 31.3 L79.3 31.8 M61.35 40.6 L61.9 41.5 68.25 41.9 Q72.3 41.9 75.15 39.65 75.15 37.75 69.1 37.6 62.85 37.5 61.35 40.6 M54.75 40.8 Q54.9 41.2 55.0 41.55 L58.05 41.55 Q58.5 41.3 58.75 39.7 L55.25 39.9 Q54.75 40.25 54.75 40.8 M49.0 34.05 L50.2 35.25 Q52.25 36.4 56.55 36.4 58.1 36.4 59.85 34.25 59.85 31.3 54.45 31.35 49.0 31.4 49.0 34.05 M31.7 30.2 Q31.9 30.75 34.75 31.75 38.35 32.0 41.95 32.1 L45.7 31.15 Q46.7 30.3 47.0 28.2 46.3 25.4 38.7 26.35 31.05 27.25 31.75 30.2 M22.35 10.9 Q22.35 11.35 22.8 12.05 L23.75 13.0 30.6 13.1 Q31.8 12.2 31.8 11.65 31.8 9.8 27.1 9.7 22.35 9.65 22.35 10.9" fill="#bef0d8" fill-opacity="0.7058824" fill-rule="evenodd" stroke="none"/>
      <path d="M22.35 10.9 Q22.35 9.65 27.1 9.7 31.8 9.8 31.8 11.65 31.8 12.2 30.6 13.1 L23.75 13.0 22.8 12.05 Q22.35 11.35 22.35 10.9 M31.75 30.2 Q31.05 27.25 38.7 26.35 46.3 25.4 47.0 28.2 46.7 30.3 45.7 31.15 L41.95 32.1 Q38.35 32.0 34.75 31.75 31.9 30.75 31.7 30.2 M49.0 34.05 Q49.0 31.4 54.45 31.35 59.85 31.3 59.85 34.25 58.1 36.4 56.55 36.4 52.25 36.4 50.2 35.25 L49.0 34.05 M54.75 40.8 Q54.75 40.25 55.25 39.9 L58.75 39.7 Q58.5 41.3 58.05 41.55 L55.0 41.55 Q54.9 41.2 54.75 40.8 M61.35 40.6 Q62.85 37.5 69.1 37.6 75.15 37.75 75.15 39.65 72.3 41.9 68.25 41.9 L61.9 41.5 61.35 40.6 M79.3 31.8 L79.4 31.3 Q80.65 31.05 82.0 30.9 85.2 31.1 85.9 31.75 86.3 32.05 86.3 32.75 L86.3 33.2 86.1 33.65 85.9 33.85 85.5 33.95 82.9 33.8 81.1 33.35 Q80.05 32.9 79.6 32.4 L79.4 31.8 M89.8 44.6 L90.35 43.75 Q91.95 42.25 94.1 41.9 99.25 41.7 100.5 42.45 101.25 42.95 101.45 43.75 L101.5 44.25 101.35 45.1 100.85 45.55 100.1 45.8 95.95 46.0 93.15 45.9 Q91.7 45.7 90.25 45.5 L89.7 44.6 89.7 44.6 M102.85 33.7 Q102.85 31.0 106.3 30.8 L110.5 31.2 112.0 32.4 Q111.6 32.9 109.4 33.95 L107.25 34.95 103.95 34.85 Q102.85 34.05 102.85 33.7 M128.6 21.75 Q130.9 21.45 131.9 21.8 L132.65 24.0 Q129.8 24.25 129.05 23.2 128.6 22.5 128.6 21.75 Z" fill="none" stroke="#000000" stroke-linecap="round" stroke-linejoin="round" stroke-opacity="0.0" stroke-width="1.0"/>
    </g>
    <g id="morphshape2" transform="matrix(1.0, 0.0, 0.0, 1.0, -37.6, -4.7)">
      <path d="M107.15 18.95 Q107.15 20.1 107.4 20.5 L108.2 21.05 Q111.25 20.25 112.0 19.8 112.7 19.3 111.65 16.25 109.25 16.45 108.2 17.1 107.15 17.7 107.15 18.95 M93.95 16.85 Q93.95 17.9 94.55 18.5 L97.6 18.7 Q98.05 17.7 97.8 15.6 L94.05 15.5 93.95 16.85 M92.8 9.15 Q92.8 10.2 93.2 11.1 L99.15 11.1 Q100.2 10.05 100.2 6.55 95.5 6.1 93.85 6.95 92.8 7.55 92.8 9.15 M84.45 16.4 Q84.5 17.35 85.25 19.2 85.9 19.65 87.45 19.8 L88.25 18.6 Q88.75 17.9 88.05 16.1 L84.45 16.4 M75.6 14.55 Q75.2 16.45 76.0 17.95 77.0 19.7 79.25 19.7 80.4 19.7 81.6 17.95 80.75 15.55 79.1 14.9 L75.6 14.55 M64.05 9.4 L64.1 10.85 64.45 11.4 69.9 12.15 73.2 12.55 Q74.95 12.55 73.85 10.1 73.85 7.05 68.95 6.9 64.05 6.8 64.05 9.4 M56.15 22.4 L56.15 22.4 56.25 23.6 56.65 24.05 Q57.15 24.1 57.7 24.1 58.9 24.1 60.15 24.1 L64.1 24.05 Q64.3 22.75 63.5 19.65 62.55 17.95 61.65 17.1 60.3 15.9 58.75 16.45 56.2 17.65 56.2 22.45 M52.4 8.7 L52.45 9.45 52.45 9.55 Q52.55 9.95 52.75 10.05 L54.05 10.45 Q55.4 9.85 55.75 9.75 56.0 8.6 56.15 7.35 55.8 6.4 55.5 5.55 54.65 5.45 53.85 5.5 52.4 6.4 52.4 8.65 M40.85 13.85 L41.95 15.95 Q43.65 18.1 46.65 18.1 50.55 18.1 50.55 14.9 50.55 11.9 45.7 11.1 40.85 10.25 40.85 13.85" fill="#bef0d8" fill-opacity="0.7058824" fill-rule="evenodd" stroke="none"/>
      <path d="M40.85 13.85 Q40.85 10.25 45.7 11.1 50.55 11.9 50.55 14.9 50.55 18.1 46.65 18.1 43.65 18.1 41.95 15.95 L40.85 13.85 M52.4 8.65 Q52.4 6.4 53.85 5.5 54.65 5.45 55.5 5.55 55.8 6.4 56.15 7.35 56.0 8.6 55.75 9.75 55.4 9.85 54.05 10.45 L52.75 10.05 Q52.55 9.95 52.45 9.55 L52.45 9.45 52.4 8.7 M56.2 22.45 Q56.2 17.65 58.75 16.45 60.3 15.9 61.65 17.1 62.55 17.95 63.5 19.65 64.3 22.75 64.1 24.05 L60.15 24.1 Q58.9 24.1 57.7 24.1 57.15 24.1 56.65 24.05 L56.25 23.6 56.15 22.4 56.15 22.4 M64.05 9.4 Q64.05 6.8 68.95 6.9 73.85 7.05 73.85 10.1 74.95 12.55 73.2 12.55 L69.9 12.15 64.45 11.4 64.1 10.85 64.05 9.4 M75.6 14.55 L79.1 14.9 Q80.75 15.55 81.6 17.95 80.4 19.7 79.25 19.7 77.0 19.7 76.0 17.95 75.2 16.45 75.6 14.55 M84.45 16.4 L88.05 16.1 Q88.75 17.9 88.25 18.6 L87.45 19.8 Q85.9 19.65 85.25 19.2 84.5 17.35 84.45 16.4 M92.8 9.15 Q92.8 7.55 93.85 6.95 95.5 6.1 100.2 6.55 100.2 10.05 99.15 11.1 L93.2 11.1 Q92.8 10.2 92.8 9.15 M93.95 16.85 L94.05 15.5 97.8 15.6 Q98.05 17.7 97.6 18.7 L94.55 18.5 Q93.95 17.9 93.95 16.85 M107.15 18.95 Q107.15 17.7 108.2 17.1 109.25 16.45 111.65 16.25 112.7 19.3 112.0 19.8 111.25 20.25 108.2 21.05 L107.4 20.5 Q107.15 20.1 107.15 18.95 Z" fill="none" stroke="#000000" stroke-linecap="round" stroke-linejoin="round" stroke-opacity="0.0" stroke-width="1.0"/>
    </g>
    <g id="morphshape3" transform="matrix(1.0, 0.0, 0.0, 1.0, -32.35, -6.65)">
      <path d="M95.4 8.25 Q95.4 9.4 95.55 9.8 L96.0 10.55 98.0 10.55 98.5 10.05 98.65 8.85 98.4 7.35 Q98.1 6.9 95.55 6.85 95.4 6.5 95.4 8.25 M68.45 9.25 Q68.2 9.6 68.75 10.5 69.05 10.95 69.95 11.25 71.35 11.45 72.7 11.55 73.2 11.1 73.2 10.4 72.9 10.0 69.05 8.9 L68.5 9.35 M65.8 37.8 L66.1 39.75 Q66.3 40.8 66.75 41.65 L70.25 41.65 Q70.45 41.35 70.75 41.2 L70.35 38.1 66.8 37.55 Q66.0 37.5 65.8 37.8 M44.4 15.2 L44.6 16.55 44.95 17.05 46.5 17.1 Q47.55 17.1 48.15 16.65 48.35 16.5 48.35 14.75 48.35 13.6 48.0 13.05 L47.3 12.4 44.5 13.5 44.4 15.2 M37.25 29.2 L37.5 30.2 Q37.85 31.0 38.3 31.3 42.4 30.75 42.4 28.35 42.4 27.25 42.05 26.95 L41.2 26.6 39.45 26.85 37.6 27.0 37.25 29.2" fill="#ffffff" fill-opacity="0.7058824" fill-rule="evenodd" stroke="none"/>
      <path d="M37.25 29.2 L37.6 27.0 39.45 26.85 41.2 26.6 42.05 26.95 Q42.4 27.25 42.4 28.35 42.4 30.75 38.3 31.3 37.85 31.0 37.5 30.2 L37.25 29.2 M44.4 15.2 L44.5 13.5 47.3 12.4 48.0 13.05 Q48.35 13.6 48.35 14.75 48.35 16.5 48.15 16.65 47.55 17.1 46.5 17.1 L44.95 17.05 44.6 16.55 44.4 15.2 M65.8 37.8 Q66.0 37.5 66.8 37.55 L70.35 38.1 70.75 41.2 Q70.45 41.35 70.25 41.65 L66.75 41.65 Q66.3 40.8 66.1 39.75 L65.8 37.8 M68.5 9.35 L69.05 8.9 Q72.9 10.0 73.2 10.4 73.2 11.1 72.7 11.55 71.35 11.45 69.95 11.25 69.05 10.95 68.75 10.5 68.2 9.6 68.45 9.25 M95.4 8.25 Q95.4 6.5 95.55 6.85 98.1 6.9 98.4 7.35 L98.65 8.85 98.5 10.05 98.0 10.55 96.0 10.55 95.55 9.8 Q95.4 9.4 95.4 8.25 Z" fill="none" stroke="#000000" stroke-linecap="round" stroke-linejoin="round" stroke-opacity="0.0" stroke-width="1.0"/>
    </g>
  </defs>
</svg>
