<?xml version="1.0" encoding="UTF-8" standalone="no"?>
<svg xmlns:xlink="http://www.w3.org/1999/xlink" height="47.45px" width="141.0px" xmlns="http://www.w3.org/2000/svg">
  <g transform="matrix(1.0, 0.0, 0.0, 1.0, -4.35, -2.9)">
    <use data-characterId="3192" height="47.45" transform="matrix(1.0, 0.0, 0.0, 1.0, 4.35, 2.9)" width="141.0" xlink:href="#morphshape0"/>
    <use data-characterId="3193" height="37.5" transform="matrix(1.0, 0.0, 0.0, 1.0, 17.5, 9.15)" width="116.05" xlink:href="#morphshape1"/>
    <use data-characterId="3194" height="21.8" transform="matrix(1.0, 0.0, 0.0, 1.0, 37.6, 4.7)" width="75.1" xlink:href="#morphshape2"/>
    <use data-characterId="3195" height="35.65" transform="matrix(1.0, 0.0, 0.0, 1.0, 32.35, 6.65)" width="66.65" xlink:href="#morphshape3"/>
  </g>
  <defs>
    <g id="morphshape0" transform="matrix(1.0, 0.0, 0.0, 1.0, -4.35, -2.9)">
      <path d="M4.95 18.3 Q5.15 19.8 10.0 20.75 14.9 21.55 20.45 22.05 29.1 22.9 23.75 24.85 17.95 25.55 20.8 27.0 24.25 28.05 21.4 28.9 18.55 29.6 16.95 30.8 15.6 32.6 18.2 33.2 20.5 33.65 22.4 33.95 25.75 34.25 28.0 35.05 L32.2 36.1 Q29.55 38.05 33.8 38.9 31.85 40.15 41.45 40.05 42.15 40.95 46.95 40.95 43.2 42.8 45.85 44.15 48.75 45.6 54.2 45.8 58.7 45.95 64.1 47.25 70.0 48.5 68.9 49.3 67.1 50.1 71.25 49.05 76.3 47.95 80.2 47.85 L90.6 47.05 Q96.05 46.65 99.2 46.0 105.3 45.75 107.1 43.4 107.4 42.25 109.0 40.3 113.65 39.45 111.35 37.95 121.6 36.0 119.65 34.45 120.55 33.75 118.2 33.55 124.1 32.35 123.5 31.7 127.25 30.55 125.65 29.65 124.75 28.95 122.2 28.25 120.4 27.8 122.45 27.0 124.5 26.2 130.5 24.3 136.5 22.4 136.6 20.9 136.6 19.35 129.75 18.8 126.05 18.25 123.45 18.3 L122.6 18.35 122.05 18.15 Q125.0 16.65 122.55 15.3 124.95 14.6 120.75 14.0 118.8 13.55 116.2 13.5 117.15 10.45 110.85 8.6 100.15 4.8 80.3 3.85 65.45 2.9 43.7 5.15 24.7 7.25 17.8 10.35 10.4 11.9 11.8 12.7 13.2 13.45 18.9 14.15 24.45 14.7 21.6 14.95 18.95 15.0 16.4 15.15 L7.75 15.95 4.9 16.3 Q4.25 17.4 4.8 18.55" fill="#96e0bc" fill-opacity="0.7058824" fill-rule="evenodd" stroke="none"/>
      <path d="M4.8 18.55 Q4.25 17.4 4.9 16.3 L7.75 15.95 16.4 15.15 Q18.95 15.0 21.6 14.95 24.45 14.7 18.9 14.15 13.2 13.45 11.8 12.7 10.4 11.9 17.8 10.35 24.7 7.25 43.7 5.15 65.45 2.9 80.3 3.85 100.15 4.8 110.85 8.6 117.15 10.45 116.2 13.5 118.8 13.55 120.75 14.0 124.95 14.6 122.55 15.3 125.0 16.65 122.05 18.15 L122.6 18.35 123.45 18.3 Q126.05 18.25 129.75 18.8 136.6 19.35 136.6 20.9 136.5 22.4 130.5 24.3 124.5 26.2 122.45 27.0 120.4 27.8 122.2 28.25 124.75 28.95 125.65 29.65 127.25 30.55 123.5 31.7 124.1 32.35 118.2 33.55 120.55 33.75 119.65 34.45 121.6 36.0 111.35 37.95 113.65 39.45 109.0 40.3 107.4 42.25 107.1 43.4 105.3 45.75 99.2 46.0 96.05 46.65 90.6 47.05 L80.2 47.85 Q76.3 47.95 71.25 49.05 67.1 50.1 68.9 49.3 70.0 48.5 64.1 47.25 58.7 45.95 54.2 45.8 48.75 45.6 45.85 44.15 43.2 42.8 46.95 40.95 42.15 40.95 41.45 40.05 31.85 40.15 33.8 38.9 29.55 38.05 32.2 36.1 L28.0 35.05 Q25.75 34.25 22.4 33.95 20.5 33.65 18.2 33.2 15.6 32.6 16.95 30.8 18.55 29.6 21.4 28.9 24.25 28.05 20.8 27.0 17.95 25.55 23.75 24.85 29.1 22.9 20.45 22.05 14.9 21.55 10.0 20.75 5.15 19.8 4.95 18.3" fill="none" stroke="#000000" stroke-linecap="round" stroke-linejoin="round" stroke-opacity="0.0" stroke-width="1.0"/>
    </g>
    <g id="morphshape1" transform="matrix(1.0, 0.0, 0.0, 1.0, -17.5, -9.15)">
      <path d="M119.2 23.0 Q119.2 23.75 119.65 24.45 120.4 25.5 123.25 25.25 L122.5 23.05 Q121.5 22.7 119.2 23.0 M100.6 30.25 Q100.6 30.6 101.7 31.4 L105.0 31.5 107.15 30.5 Q109.35 29.45 109.75 28.95 L108.25 27.75 104.05 27.35 Q100.6 27.55 100.6 30.25 M86.35 37.35 L86.35 37.4 86.65 38.05 Q87.4 38.45 88.6 38.8 L90.7 39.15 93.75 39.2 94.25 39.05 94.55 38.75 94.75 38.15 94.75 37.7 Q94.7 36.95 94.2 36.6 93.35 35.9 89.6 35.85 88.0 36.05 86.65 36.65 L86.45 37.25 M76.6 38.75 L77.05 39.55 Q78.2 39.85 79.5 40.15 L82.0 40.35 85.7 40.25 86.35 40.05 86.75 39.7 86.9 39.0 86.85 38.5 Q86.7 37.75 86.05 37.3 84.95 36.6 80.35 36.65 78.45 36.95 76.95 38.1 L76.5 38.85 M62.15 34.65 L62.7 35.55 69.05 35.95 Q73.1 35.95 75.95 33.7 75.95 31.8 69.9 31.65 63.65 31.55 62.15 34.65 M59.5 41.8 Q59.55 42.25 59.75 42.55 L62.8 42.55 Q63.25 42.3 63.5 40.7 L60.0 40.9 Q59.5 41.25 59.5 41.8 M49.0 36.05 L50.2 37.25 Q52.25 38.4 56.55 38.4 58.1 38.4 59.85 36.25 59.85 33.3 54.45 33.35 49.0 33.4 49.0 36.05 M28.15 28.9 Q28.2 29.5 30.85 30.95 34.2 32.45 37.85 32.4 L41.7 32.1 Q42.85 31.5 43.45 29.5 43.2 26.65 35.6 26.3 27.95 25.95 28.2 28.95 M19.1 16.5 Q19.1 16.95 19.55 17.65 L20.5 18.6 27.35 18.7 Q28.55 17.8 28.55 17.25 28.55 15.4 23.85 15.3 19.1 15.25 19.1 16.5" fill="#bef0d8" fill-opacity="0.7058824" fill-rule="evenodd" stroke="none"/>
      <path d="M19.1 16.5 Q19.1 15.25 23.85 15.3 28.55 15.4 28.55 17.25 28.55 17.8 27.35 18.7 L20.5 18.6 19.55 17.65 Q19.1 16.95 19.1 16.5 M28.2 28.95 Q27.95 25.95 35.6 26.3 43.2 26.65 43.45 29.5 42.85 31.5 41.7 32.1 L37.85 32.4 Q34.2 32.45 30.85 30.95 28.2 29.5 28.15 28.9 M49.0 36.05 Q49.0 33.4 54.45 33.35 59.85 33.3 59.85 36.25 58.1 38.4 56.55 38.4 52.25 38.4 50.2 37.25 L49.0 36.05 M59.5 41.8 Q59.5 41.25 60.0 40.9 L63.5 40.7 Q63.25 42.3 62.8 42.55 L59.75 42.55 Q59.55 42.25 59.5 41.8 M62.15 34.65 Q63.65 31.55 69.9 31.65 75.95 31.8 75.95 33.7 73.1 35.95 69.05 35.95 L62.7 35.55 62.15 34.65 M76.5 38.85 L76.95 38.1 Q78.45 36.95 80.35 36.65 84.95 36.6 86.05 37.3 86.7 37.75 86.85 38.5 L86.9 39.0 86.75 39.7 86.35 40.05 85.7 40.25 82.0 40.35 79.5 40.15 Q78.2 39.85 77.05 39.55 L76.6 38.75 M86.45 37.25 L86.65 36.65 Q88.0 36.05 89.6 35.85 93.35 35.9 94.2 36.6 94.7 36.95 94.75 37.7 L94.75 38.15 94.55 38.75 94.25 39.05 93.75 39.2 90.7 39.15 88.6 38.8 Q87.4 38.45 86.65 38.05 L86.35 37.4 86.35 37.35 M100.6 30.25 Q100.6 27.55 104.05 27.35 L108.25 27.75 109.75 28.95 Q109.35 29.45 107.15 30.5 L105.0 31.5 101.7 31.4 Q100.6 30.6 100.6 30.25 M119.2 23.0 Q121.5 22.7 122.5 23.05 L123.25 25.25 Q120.4 25.5 119.65 24.45 119.2 23.75 119.2 23.0 Z" fill="none" stroke="#000000" stroke-linecap="round" stroke-linejoin="round" stroke-opacity="0.0" stroke-width="1.0"/>
    </g>
    <g id="morphshape2" transform="matrix(1.0, 0.0, 0.0, 1.0, -37.6, -4.7)">
      <path d="M103.2 16.0 Q103.2 17.15 103.45 17.55 L104.25 18.1 Q106.55 17.4 108.05 16.85 108.75 16.35 107.7 13.3 105.3 13.5 104.25 14.15 103.2 14.75 103.2 16.0 M91.0 20.5 Q91.0 21.55 91.6 22.15 L94.65 22.35 Q95.1 21.35 94.85 19.25 L91.1 19.15 91.0 20.5 M89.5 11.1 Q89.5 12.15 89.9 13.05 L95.85 13.05 Q96.9 12.0 96.9 8.5 92.2 8.05 90.55 8.9 89.5 9.5 89.5 11.1 M81.2 20.85 Q81.25 21.8 82.0 23.65 82.65 24.1 84.2 24.25 L85.0 23.05 Q85.5 22.35 84.8 20.55 L81.2 20.85 M77.7 9.0 Q77.3 10.9 78.1 12.4 79.1 14.15 81.35 14.15 82.5 14.15 83.7 12.4 82.85 10.0 81.2 9.35 L77.7 9.0 M65.9 12.7 L65.95 14.15 66.3 14.7 71.75 15.45 75.05 15.85 Q76.8 15.85 75.7 13.4 75.7 10.35 70.8 10.2 65.9 10.1 65.9 12.7 M56.0 14.4 L56.0 14.55 56.05 15.3 56.2 15.5 Q56.4 15.8 56.7 15.85 57.25 16.0 58.3 16.15 L60.65 15.65 Q60.9 14.45 60.75 12.7 60.25 11.55 59.8 10.7 58.8 10.3 57.8 10.5 56.0 11.5 56.0 14.5 M49.45 18.3 L49.55 19.4 49.8 19.75 Q50.2 19.9 50.65 19.95 L52.75 20.1 Q54.55 19.9 56.05 19.85 56.25 18.6 55.75 16.0 54.95 14.5 54.2 13.65 53.0 12.75 51.65 13.15 49.45 14.25 49.45 18.3 M38.7 11.4 L39.8 13.5 Q41.5 15.65 44.5 15.65 48.4 15.65 48.4 12.45 48.4 9.45 43.55 8.65 38.7 7.8 38.7 11.4" fill="#bef0d8" fill-opacity="0.7058824" fill-rule="evenodd" stroke="none"/>
      <path d="M38.7 11.4 Q38.7 7.8 43.55 8.65 48.4 9.45 48.4 12.45 48.4 15.65 44.5 15.65 41.5 15.65 39.8 13.5 L38.7 11.4 M49.45 18.3 Q49.45 14.25 51.65 13.15 53.0 12.75 54.2 13.65 54.95 14.5 55.75 16.0 56.25 18.6 56.05 19.85 54.55 19.9 52.75 20.1 L50.65 19.95 Q50.2 19.9 49.8 19.75 L49.55 19.4 49.45 18.3 M56.0 14.5 Q56.0 11.5 57.8 10.5 58.8 10.3 59.8 10.7 60.25 11.55 60.75 12.7 60.9 14.45 60.65 15.65 L58.3 16.15 Q57.25 16.0 56.7 15.85 56.4 15.8 56.2 15.5 L56.05 15.3 56.0 14.55 56.0 14.4 M65.9 12.7 Q65.9 10.1 70.8 10.2 75.7 10.35 75.7 13.4 76.8 15.85 75.05 15.85 L71.75 15.45 66.3 14.7 65.95 14.15 65.9 12.7 M77.7 9.0 L81.2 9.35 Q82.85 10.0 83.7 12.4 82.5 14.15 81.35 14.15 79.1 14.15 78.1 12.4 77.3 10.9 77.7 9.0 M81.2 20.85 L84.8 20.55 Q85.5 22.35 85.0 23.05 L84.2 24.25 Q82.65 24.1 82.0 23.65 81.25 21.8 81.2 20.85 M89.5 11.1 Q89.5 9.5 90.55 8.9 92.2 8.05 96.9 8.5 96.9 12.0 95.85 13.05 L89.9 13.05 Q89.5 12.15 89.5 11.1 M91.0 20.5 L91.1 19.15 94.85 19.25 Q95.1 21.35 94.65 22.35 L91.6 22.15 Q91.0 21.55 91.0 20.5 M103.2 16.0 Q103.2 14.75 104.25 14.15 105.3 13.5 107.7 13.3 108.75 16.35 108.05 16.85 106.55 17.4 104.25 18.1 L103.45 17.55 Q103.2 17.15 103.2 16.0 Z" fill="none" stroke="#000000" stroke-linecap="round" stroke-linejoin="round" stroke-opacity="0.0" stroke-width="1.0"/>
    </g>
    <g id="morphshape3" transform="matrix(1.0, 0.0, 0.0, 1.0, -32.35, -6.65)">
      <path d="M91.8 10.05 Q91.8 11.2 91.95 11.6 L92.4 12.35 94.4 12.35 94.9 11.85 95.05 10.65 94.8 9.15 Q94.5 8.7 91.95 8.65 91.8 8.3 91.8 10.05 M69.1 12.75 Q69.0 13.15 69.8 13.8 70.35 14.0 71.1 14.1 72.35 14.05 73.7 13.5 74.05 12.9 73.8 12.25 72.2 12.35 69.45 12.2 L69.15 12.8 M66.15 31.3 L66.45 33.25 Q66.65 34.3 67.1 35.15 L70.6 35.15 Q70.85 34.9 71.1 34.7 L70.7 31.6 67.15 31.05 Q66.35 31.0 66.15 31.3 M41.55 13.7 L41.75 15.05 42.1 15.55 43.65 15.6 Q44.7 15.6 45.3 15.15 45.5 15.0 45.5 13.25 45.5 12.1 45.15 11.55 L44.45 10.9 41.65 12.0 41.55 13.7 M34.0 29.2 L34.25 30.2 Q34.6 31.0 35.05 31.3 39.15 30.75 39.15 28.35 39.15 27.25 38.8 26.95 L37.95 26.6 36.2 26.85 34.35 27.0 34.0 29.2" fill="#ffffff" fill-opacity="0.7058824" fill-rule="evenodd" stroke="none"/>
      <path d="M34.0 29.2 L34.35 27.0 36.2 26.85 37.95 26.6 38.8 26.95 Q39.15 27.25 39.15 28.35 39.15 30.75 35.05 31.3 34.6 31.0 34.25 30.2 L34.0 29.2 M41.55 13.7 L41.65 12.0 44.45 10.9 45.15 11.55 Q45.5 12.1 45.5 13.25 45.5 15.0 45.3 15.15 44.7 15.6 43.65 15.6 L42.1 15.55 41.75 15.05 41.55 13.7 M66.15 31.3 Q66.35 31.0 67.15 31.05 L70.7 31.6 71.1 34.7 Q70.85 34.9 70.6 35.15 L67.1 35.15 Q66.65 34.3 66.45 33.25 L66.15 31.3 M69.15 12.8 L69.45 12.2 Q72.2 12.35 73.8 12.25 74.05 12.9 73.7 13.5 72.35 14.05 71.1 14.1 70.35 14.0 69.8 13.8 69.0 13.15 69.1 12.75 M91.8 10.05 Q91.8 8.3 91.95 8.65 94.5 8.7 94.8 9.15 L95.05 10.65 94.9 11.85 94.4 12.35 92.4 12.35 91.95 11.6 Q91.8 11.2 91.8 10.05 Z" fill="none" stroke="#000000" stroke-linecap="round" stroke-linejoin="round" stroke-opacity="0.0" stroke-width="1.0"/>
    </g>
  </defs>
</svg>
