<?xml version="1.0" encoding="UTF-8" standalone="no"?>
<svg xmlns:xlink="http://www.w3.org/1999/xlink" height="47.45px" width="141.0px" xmlns="http://www.w3.org/2000/svg">
  <g transform="matrix(1.0, 0.0, 0.0, 1.0, -4.35, -2.9)">
    <use data-characterId="3192" height="47.45" transform="matrix(1.0, 0.0, 0.0, 1.0, 4.35, 2.9)" width="141.0" xlink:href="#morphshape0"/>
    <use data-characterId="3193" height="37.5" transform="matrix(1.0, 0.0, 0.0, 1.0, 17.5, 9.15)" width="116.05" xlink:href="#morphshape1"/>
    <use data-characterId="3194" height="21.8" transform="matrix(1.0, 0.0, 0.0, 1.0, 37.6, 4.7)" width="75.1" xlink:href="#morphshape2"/>
    <use data-characterId="3195" height="35.65" transform="matrix(1.0, 0.0, 0.0, 1.0, 32.35, 6.65)" width="66.65" xlink:href="#morphshape3"/>
  </g>
  <defs>
    <g id="morphshape0" transform="matrix(1.0, 0.0, 0.0, 1.0, -4.35, -2.9)">
      <path d="M4.7 17.1 Q4.15 18.65 12.5 20.0 20.85 21.3 30.75 21.9 41.7 22.6 27.2 23.8 12.55 24.55 22.55 26.25 32.75 27.85 26.05 28.55 19.3 29.15 14.75 30.8 10.25 32.6 14.6 33.05 18.85 33.45 20.5 33.9 22.6 34.35 24.75 34.7 L35.5 35.4 Q29.7 37.0 30.9 37.7 19.9 40.6 37.35 40.2 40.45 40.55 52.2 39.1 42.9 42.1 43.85 43.2 44.9 44.35 52.3 44.8 60.55 45.1 69.05 45.8 78.8 46.4 71.95 48.35 64.8 50.3 67.65 49.95 72.45 49.6 76.8 49.6 L91.75 49.1 Q100.3 48.7 103.25 47.65 107.2 46.7 106.25 45.35 104.8 44.35 107.8 41.7 110.35 40.6 102.5 38.45 122.2 37.7 124.0 35.85 126.75 34.3 121.35 33.95 120.9 33.4 118.3 33.0 126.4 31.5 126.4 30.65 126.6 29.8 122.7 28.95 119.05 28.15 114.95 27.75 110.85 27.35 123.55 26.05 136.3 24.75 140.65 22.95 144.95 21.15 136.5 19.75 129.1 18.35 124.4 18.4 L122.55 18.5 122.25 18.45 Q123.0 17.85 121.95 17.3 132.75 16.0 127.25 14.9 122.45 13.8 116.1 13.65 116.4 12.6 114.3 12.0 105.05 7.75 94.8 5.35 86.2 2.95 61.35 3.7 42.25 4.4 23.7 7.95 4.95 10.95 7.9 12.0 10.85 13.0 24.35 13.9 37.8 14.7 31.85 14.9 25.9 15.0 20.0 15.1 L11.8 15.5 4.9 16.3 Q4.65 16.65 4.85 17.05" fill="#96e0bc" fill-opacity="0.7058824" fill-rule="evenodd" stroke="none"/>
      <path d="M4.85 17.05 Q4.65 16.65 4.9 16.3 L11.8 15.5 20.0 15.1 Q25.9 15.0 31.85 14.9 37.8 14.7 24.35 13.9 10.85 13.0 7.9 12.0 4.95 10.95 23.7 7.95 42.25 4.4 61.35 3.7 86.2 2.95 94.8 5.35 105.05 7.75 114.3 12.0 116.4 12.6 116.1 13.65 122.45 13.8 127.25 14.9 132.75 16.0 121.95 17.3 123.0 17.85 122.25 18.45 L122.55 18.5 124.4 18.4 Q129.1 18.35 136.5 19.75 144.95 21.15 140.65 22.95 136.3 24.75 123.55 26.05 110.85 27.35 114.95 27.75 119.05 28.15 122.7 28.95 126.6 29.8 126.4 30.65 126.4 31.5 118.3 33.0 120.9 33.4 121.35 33.95 126.75 34.3 124.0 35.85 122.2 37.7 102.5 38.45 110.35 40.6 107.8 41.7 104.8 44.35 106.25 45.35 107.2 46.7 103.25 47.65 100.3 48.7 91.75 49.1 L76.8 49.6 Q72.45 49.6 67.65 49.95 64.8 50.3 71.95 48.35 78.8 46.4 69.05 45.8 60.55 45.1 52.3 44.8 44.9 44.35 43.85 43.2 42.9 42.1 52.2 39.1 40.45 40.55 37.35 40.2 19.9 40.6 30.9 37.7 29.7 37.0 35.5 35.4 L24.75 34.7 Q22.6 34.35 20.5 33.9 18.85 33.45 14.6 33.05 10.25 32.6 14.75 30.8 19.3 29.15 26.05 28.55 32.75 27.85 22.55 26.25 12.55 24.55 27.2 23.8 41.7 22.6 30.75 21.9 20.85 21.3 12.5 20.0 4.15 18.65 4.7 17.1" fill="none" stroke="#000000" stroke-linecap="round" stroke-linejoin="round" stroke-opacity="0.0" stroke-width="1.0"/>
    </g>
    <g id="morphshape1" transform="matrix(1.0, 0.0, 0.0, 1.0, -17.5, -9.15)">
      <path d="M126.05 22.1 Q126.05 22.85 126.5 23.55 127.25 24.6 130.1 24.35 L129.35 22.15 Q128.35 21.8 126.05 22.1 M102.25 32.8 Q102.25 33.15 103.35 33.95 L106.65 34.05 108.8 33.05 Q111.0 32.0 111.4 31.5 L109.9 30.3 105.7 29.9 Q102.25 30.1 102.25 32.8 M88.9 42.75 L88.9 42.75 89.35 43.55 Q90.6 43.8 91.95 44.05 L94.55 44.2 98.4 44.05 99.1 43.85 99.55 43.45 99.7 42.7 99.65 42.2 Q99.5 41.4 98.8 40.95 97.65 40.2 92.85 40.3 90.85 40.6 89.35 41.85 L88.9 42.6 M78.55 33.6 L78.85 34.25 Q79.5 34.7 80.65 35.1 L82.65 35.5 85.55 35.6 86.0 35.45 86.25 35.2 86.45 34.65 86.45 34.2 Q86.4 33.5 85.95 33.15 85.15 32.5 81.6 32.4 80.1 32.6 78.75 33.1 L78.55 33.7 M61.55 39.0 L62.1 39.9 68.45 40.3 Q72.5 40.3 75.35 38.05 75.35 36.15 69.3 36.0 63.05 35.9 61.55 39.0 M56.05 41.05 Q56.15 41.45 56.3 41.8 L59.35 41.8 Q59.8 41.55 60.05 39.95 L56.55 40.15 Q56.05 40.5 56.05 41.05 M49.0 34.6 L50.2 35.8 Q52.25 36.95 56.55 36.95 58.1 36.95 59.85 34.8 59.85 31.85 54.45 31.9 49.0 31.95 49.0 34.6 M30.8 29.8 Q30.95 30.35 33.75 31.45 37.25 32.05 40.85 32.1 L44.65 31.35 Q45.7 30.6 46.05 28.55 45.45 25.75 37.85 26.35 30.2 26.9 30.8 29.85 M21.45 12.4 Q21.45 12.85 21.9 13.55 L22.85 14.5 29.7 14.6 Q30.9 13.7 30.9 13.15 30.9 11.3 26.2 11.2 21.45 11.15 21.45 12.4" fill="#bef0d8" fill-opacity="0.7058824" fill-rule="evenodd" stroke="none"/>
      <path d="M21.45 12.4 Q21.45 11.15 26.2 11.2 30.9 11.3 30.9 13.15 30.9 13.7 29.7 14.6 L22.85 14.5 21.9 13.55 Q21.45 12.85 21.45 12.4 M30.8 29.85 Q30.2 26.9 37.85 26.35 45.45 25.75 46.05 28.55 45.7 30.6 44.65 31.35 L40.85 32.1 Q37.25 32.05 33.75 31.45 30.95 30.35 30.8 29.8 M49.0 34.6 Q49.0 31.95 54.45 31.9 59.85 31.85 59.85 34.8 58.1 36.95 56.55 36.95 52.25 36.95 50.2 35.8 L49.0 34.6 M56.05 41.05 Q56.05 40.5 56.55 40.15 L60.05 39.95 Q59.8 41.55 59.35 41.8 L56.3 41.8 Q56.15 41.45 56.05 41.05 M61.55 39.0 Q63.05 35.9 69.3 36.0 75.35 36.15 75.35 38.05 72.5 40.3 68.45 40.3 L62.1 39.9 61.55 39.0 M78.55 33.7 L78.75 33.1 Q80.1 32.6 81.6 32.4 85.15 32.5 85.95 33.15 86.4 33.5 86.45 34.2 L86.45 34.65 86.25 35.2 86.0 35.45 85.55 35.6 82.65 35.5 80.65 35.1 Q79.5 34.7 78.85 34.25 L78.55 33.6 M88.9 42.6 L89.35 41.85 Q90.85 40.6 92.85 40.3 97.65 40.2 98.8 40.95 99.5 41.4 99.65 42.2 L99.7 42.7 99.55 43.45 99.1 43.85 98.4 44.05 94.55 44.2 91.95 44.05 Q90.6 43.8 89.35 43.55 L88.9 42.75 88.9 42.75 M102.25 32.8 Q102.25 30.1 105.7 29.9 L109.9 30.3 111.4 31.5 Q111.0 32.0 108.8 33.05 L106.65 34.05 103.35 33.95 Q102.25 33.15 102.25 32.8 M126.05 22.1 Q128.35 21.8 129.35 22.15 L130.1 24.35 Q127.25 24.6 126.5 23.55 126.05 22.85 126.05 22.1 Z" fill="none" stroke="#000000" stroke-linecap="round" stroke-linejoin="round" stroke-opacity="0.0" stroke-width="1.0"/>
    </g>
    <g id="morphshape2" transform="matrix(1.0, 0.0, 0.0, 1.0, -37.6, -4.7)">
      <path d="M106.1 18.15 Q106.1 19.3 106.35 19.7 L107.15 20.25 Q110.0 19.5 110.95 19.0 111.65 18.5 110.6 15.45 108.2 15.65 107.15 16.3 106.1 16.9 106.1 18.15 M93.15 17.85 Q93.15 18.9 93.75 19.5 L96.8 19.7 Q97.25 18.7 97.0 16.6 L93.25 16.5 93.15 17.85 M91.9 9.65 Q91.9 10.7 92.3 11.6 L98.25 11.6 Q99.3 10.55 99.3 7.05 94.6 6.6 92.95 7.45 91.9 8.05 91.9 9.65 M83.55 17.6 Q83.6 18.55 84.35 20.4 85.0 20.85 86.55 21.0 L87.35 19.8 Q87.85 19.1 87.15 17.3 L83.55 17.6 M76.15 13.05 Q75.75 14.95 76.55 16.45 77.55 18.2 79.8 18.2 80.95 18.2 82.15 16.45 81.3 14.05 79.65 13.4 L76.15 13.05 M64.55 10.3 L64.6 11.75 64.95 12.3 70.4 13.05 73.7 13.45 Q75.45 13.45 74.35 11.0 74.35 7.95 69.45 7.8 64.55 7.7 64.55 10.3 M56.2 20.25 L56.2 20.3 56.3 21.4 56.6 21.75 Q57.05 21.85 57.5 21.85 58.5 21.9 59.7 21.95 L63.2 21.8 Q63.4 20.55 62.8 17.8 61.95 16.25 61.15 15.4 59.9 14.4 58.5 14.85 56.15 16.0 56.15 20.3 M51.6 11.25 L51.65 12.1 51.75 12.3 Q51.9 12.65 52.2 12.75 L53.7 13.05 Q55.15 12.55 55.8 12.45 56.05 11.25 56.0 9.65 55.55 8.55 55.15 7.7 54.2 7.4 53.25 7.55 51.6 8.5 51.6 11.25 M40.25 13.2 L41.35 15.3 Q43.05 17.45 46.05 17.45 49.95 17.45 49.95 14.25 49.95 11.25 45.1 10.45 40.25 9.6 40.25 13.2" fill="#bef0d8" fill-opacity="0.7058824" fill-rule="evenodd" stroke="none"/>
      <path d="M40.25 13.2 Q40.25 9.6 45.1 10.45 49.95 11.25 49.95 14.25 49.95 17.45 46.05 17.45 43.05 17.45 41.35 15.3 L40.25 13.2 M51.6 11.25 Q51.6 8.5 53.25 7.55 54.2 7.4 55.15 7.7 55.55 8.55 56.0 9.65 56.05 11.25 55.8 12.45 55.15 12.55 53.7 13.05 L52.2 12.75 Q51.9 12.65 51.75 12.3 L51.65 12.1 51.6 11.25 M56.15 20.3 Q56.15 16.0 58.5 14.85 59.9 14.4 61.15 15.4 61.95 16.25 62.8 17.8 63.4 20.55 63.2 21.8 L59.7 21.95 Q58.5 21.9 57.5 21.85 57.05 21.85 56.6 21.75 L56.3 21.4 56.2 20.3 56.2 20.25 M64.55 10.3 Q64.55 7.7 69.45 7.8 74.35 7.95 74.35 11.0 75.45 13.45 73.7 13.45 L70.4 13.05 64.95 12.3 64.6 11.75 64.55 10.3 M76.15 13.05 L79.65 13.4 Q81.3 14.05 82.15 16.45 80.95 18.2 79.8 18.2 77.55 18.2 76.55 16.45 75.75 14.95 76.15 13.05 M83.55 17.6 L87.15 17.3 Q87.85 19.1 87.35 19.8 L86.55 21.0 Q85.0 20.85 84.35 20.4 83.6 18.55 83.55 17.6 M91.9 9.65 Q91.9 8.05 92.95 7.45 94.6 6.6 99.3 7.05 99.3 10.55 98.25 11.6 L92.3 11.6 Q91.9 10.7 91.9 9.65 M93.15 17.85 L93.25 16.5 97.0 16.6 Q97.25 18.7 96.8 19.7 L93.75 19.5 Q93.15 18.9 93.15 17.85 M106.1 18.15 Q106.1 16.9 107.15 16.3 108.2 15.65 110.6 15.45 111.65 18.5 110.95 19.0 110.0 19.5 107.15 20.25 L106.35 19.7 Q106.1 19.3 106.1 18.15 Z" fill="none" stroke="#000000" stroke-linecap="round" stroke-linejoin="round" stroke-opacity="0.0" stroke-width="1.0"/>
    </g>
    <g id="morphshape3" transform="matrix(1.0, 0.0, 0.0, 1.0, -32.35, -6.65)">
      <path d="M94.45 8.75 Q94.45 9.9 94.6 10.3 L95.05 11.05 97.05 11.05 97.55 10.55 97.7 9.35 97.45 7.85 Q97.15 7.4 94.6 7.35 94.45 7.0 94.45 8.75 M68.65 10.3 Q68.45 10.65 69.1 11.45 69.45 11.8 70.3 12.05 71.65 12.15 73.0 12.05 73.45 11.55 73.35 10.85 72.7 10.6 69.15 9.75 L68.7 10.25 M65.9 36.05 L66.2 38.0 Q66.4 39.05 66.85 39.9 L70.35 39.9 Q70.55 39.6 70.85 39.45 L70.45 36.35 66.9 35.8 Q66.1 35.75 65.9 36.05 M43.6 14.8 L43.8 16.15 44.15 16.65 45.7 16.7 Q46.75 16.7 47.35 16.25 47.55 16.1 47.55 14.35 47.55 13.2 47.2 12.65 L46.5 12.0 43.7 13.1 43.6 14.8 M36.35 29.2 L36.6 30.2 Q36.95 31.0 37.4 31.3 41.5 30.75 41.5 28.35 41.5 27.25 41.15 26.95 L40.3 26.6 38.55 26.85 36.7 27.0 36.35 29.2" fill="#ffffff" fill-opacity="0.7058824" fill-rule="evenodd" stroke="none"/>
      <path d="M36.35 29.2 L36.7 27.0 38.55 26.85 40.3 26.6 41.15 26.95 Q41.5 27.25 41.5 28.35 41.5 30.75 37.4 31.3 36.95 31.0 36.6 30.2 L36.35 29.2 M43.6 14.8 L43.7 13.1 46.5 12.0 47.2 12.65 Q47.55 13.2 47.55 14.35 47.55 16.1 47.35 16.25 46.75 16.7 45.7 16.7 L44.15 16.65 43.8 16.15 43.6 14.8 M65.9 36.05 Q66.1 35.75 66.9 35.8 L70.45 36.35 70.85 39.45 Q70.55 39.6 70.35 39.9 L66.85 39.9 Q66.4 39.05 66.2 38.0 L65.9 36.05 M68.7 10.25 L69.15 9.75 Q72.7 10.6 73.35 10.85 73.45 11.55 73.0 12.05 71.65 12.15 70.3 12.05 69.45 11.8 69.1 11.45 68.45 10.65 68.65 10.3 M94.45 8.75 Q94.45 7.0 94.6 7.35 97.15 7.4 97.45 7.85 L97.7 9.35 97.55 10.55 97.05 11.05 95.05 11.05 94.6 10.3 Q94.45 9.9 94.45 8.75 Z" fill="none" stroke="#000000" stroke-linecap="round" stroke-linejoin="round" stroke-opacity="0.0" stroke-width="1.0"/>
    </g>
  </defs>
</svg>
