<?xml version="1.0" encoding="UTF-8" standalone="no"?>
<svg xmlns:xlink="http://www.w3.org/1999/xlink" height="47.45px" width="141.0px" xmlns="http://www.w3.org/2000/svg">
  <g transform="matrix(1.0, 0.0, 0.0, 1.0, -4.35, -2.9)">
    <use data-characterId="3188" height="47.45" transform="matrix(1.0, 0.0, 0.0, 1.0, 4.35, 2.9)" width="141.0" xlink:href="#morphshape0"/>
    <use data-characterId="3189" height="37.5" transform="matrix(1.0, 0.0, 0.0, 1.0, 17.5, 9.15)" width="116.05" xlink:href="#morphshape1"/>
    <use data-characterId="3190" height="21.8" transform="matrix(1.0, 0.0, 0.0, 1.0, 37.6, 4.7)" width="75.1" xlink:href="#morphshape2"/>
    <use data-characterId="3191" height="35.65" transform="matrix(1.0, 0.0, 0.0, 1.0, 32.35, 6.65)" width="66.65" xlink:href="#morphshape3"/>
  </g>
  <defs>
    <g id="morphshape0" transform="matrix(1.0, 0.0, 0.0, 1.0, -4.35, -2.9)">
      <path d="M5.0 16.65 Q4.25 18.25 13.7 19.75 23.15 21.2 34.4 21.85 46.05 22.5 28.7 23.45 11.3 24.25 23.55 26.05 35.85 27.8 27.95 28.45 20.0 29.0 14.5 30.75 9.05 32.55 13.9 33.0 18.75 33.4 20.3 33.9 22.0 34.4 24.1 34.65 L36.85 35.25 Q30.1 36.75 30.35 37.4 16.5 40.8 36.4 40.3 40.25 40.5 54.15 38.6 43.15 41.95 43.55 43.0 44.0 44.05 52.05 44.55 61.45 44.9 70.9 45.4 81.85 45.8 73.2 48.1 64.4 50.4 66.85 50.25 71.55 50.15 76.05 50.2 L92.45 49.8 Q101.95 49.4 104.85 48.2 108.1 47.05 106.3 46.0 104.3 45.05 107.75 42.2 109.65 41.0 100.05 38.65 122.65 38.25 125.6 36.3 128.9 34.5 122.55 34.1 120.1 33.75 116.9 33.45 126.3 31.85 126.8 31.0 127.35 30.15 123.05 29.25 118.8 28.35 112.75 28.05 106.75 27.75 121.55 26.65 136.35 25.55 142.0 23.65 147.65 21.75 138.7 20.1 130.15 18.45 124.8 18.5 L122.65 18.6 122.45 18.55 Q122.5 18.25 121.9 17.95 135.3 16.45 129.4 15.2 123.75 13.9 116.2 13.7 116.3 13.25 115.5 13.0 106.7 8.65 99.45 5.8 92.75 2.95 66.95 3.25 47.8 3.5 25.6 7.15 3.3 10.6 6.7 11.75 10.1 12.85 26.0 13.8 41.9 14.7 35.0 14.9 28.05 15.0 21.15 15.1 L13.1 15.35 4.9 16.3 Q4.8 16.45 4.85 16.6" fill="#96e0bc" fill-opacity="0.7058824" fill-rule="evenodd" stroke="none"/>
      <path d="M4.85 16.6 Q4.8 16.45 4.9 16.3 L13.1 15.35 21.15 15.1 Q28.05 15.0 35.0 14.9 41.9 14.7 26.0 13.8 10.1 12.85 6.7 11.75 3.3 10.6 25.6 7.15 47.8 3.5 66.95 3.25 92.75 2.95 99.45 5.8 106.7 8.65 115.5 13.0 116.3 13.25 116.2 13.7 123.75 13.9 129.4 15.2 135.3 16.45 121.9 17.95 122.5 18.25 122.45 18.55 L122.65 18.6 124.8 18.5 Q130.15 18.45 138.7 20.1 147.65 21.75 142.0 23.65 136.35 25.55 121.55 26.65 106.75 27.75 112.75 28.05 118.8 28.35 123.05 29.25 127.35 30.15 126.8 31.0 126.3 31.85 116.9 33.45 120.1 33.75 122.55 34.1 128.9 34.5 125.6 36.3 122.65 38.25 100.05 38.65 109.65 41.0 107.75 42.2 104.3 45.05 106.3 46.0 108.1 47.05 104.85 48.2 101.95 49.4 92.45 49.8 L76.05 50.2 Q71.55 50.15 66.85 50.25 64.4 50.4 73.2 48.1 81.85 45.8 70.9 45.4 61.45 44.9 52.05 44.55 44.0 44.05 43.55 43.0 43.15 41.95 54.15 38.6 40.25 40.5 36.4 40.3 16.5 40.8 30.35 37.4 30.1 36.75 36.85 35.25 L24.1 34.65 Q22.0 34.4 20.3 33.9 18.75 33.4 13.9 33.0 9.05 32.55 14.5 30.75 20.0 29.0 27.95 28.45 35.85 27.8 23.55 26.05 11.3 24.25 28.7 23.45 46.05 22.5 34.4 21.85 23.15 21.2 13.7 19.75 4.25 18.25 5.0 16.65" fill="none" stroke="#000000" stroke-linecap="round" stroke-linejoin="round" stroke-opacity="0.0" stroke-width="1.0"/>
    </g>
    <g id="morphshape1" transform="matrix(1.0, 0.0, 0.0, 1.0, -17.5, -9.15)">
      <path d="M128.2 21.8 Q128.2 22.55 128.65 23.25 129.4 24.3 132.25 24.05 L131.5 21.85 Q130.5 21.5 128.2 21.8 M102.75 33.55 Q102.75 33.9 103.85 34.7 L107.15 34.8 109.3 33.8 Q111.5 32.75 111.9 32.25 L110.4 31.05 106.2 30.65 Q102.75 30.85 102.75 33.55 M89.75 44.4 L90.25 45.25 Q91.65 45.5 93.05 45.7 L95.8 45.8 99.9 45.6 100.65 45.35 101.1 44.9 101.25 44.1 101.2 43.6 Q101.0 42.8 100.25 42.3 99.0 41.55 93.9 41.7 91.8 42.05 90.25 43.5 L89.7 44.3 M79.1 32.0 L79.1 32.1 79.35 32.65 Q79.85 33.1 80.95 33.55 L82.8 34.0 85.45 34.15 85.85 34.05 86.1 33.85 86.3 33.35 86.3 32.9 Q86.3 32.2 85.9 31.9 85.2 31.25 81.95 31.1 80.55 31.25 79.25 31.55 L79.15 32.1 M61.35 40.35 L61.9 41.25 68.25 41.65 Q72.3 41.65 75.15 39.4 75.15 37.5 69.1 37.35 62.85 37.25 61.35 40.35 M54.95 40.85 Q55.1 41.25 55.2 41.6 L58.25 41.6 Q58.7 41.35 58.95 39.75 L55.45 39.95 Q54.95 40.3 54.95 40.85 M49.0 34.15 L50.2 35.35 Q52.25 36.5 56.55 36.5 58.1 36.5 59.85 34.35 59.85 31.4 54.45 31.45 49.0 31.5 49.0 34.15 M31.65 30.15 Q31.85 30.7 34.65 31.7 38.2 32.0 41.8 32.1 L45.55 31.2 Q46.55 30.4 46.85 28.3 46.15 25.5 38.55 26.35 30.9 27.2 31.6 30.15 M22.2 11.15 Q22.2 11.6 22.65 12.3 L23.6 13.25 30.45 13.35 Q31.65 12.45 31.65 11.9 31.65 10.05 26.95 9.95 22.2 9.9 22.2 11.15" fill="#bef0d8" fill-opacity="0.7058824" fill-rule="evenodd" stroke="none"/>
      <path d="M22.2 11.15 Q22.2 9.9 26.95 9.95 31.65 10.05 31.65 11.9 31.65 12.45 30.45 13.35 L23.6 13.25 22.65 12.3 Q22.2 11.6 22.2 11.15 M31.6 30.15 Q30.9 27.2 38.55 26.35 46.15 25.5 46.85 28.3 46.55 30.4 45.55 31.2 L41.8 32.1 Q38.2 32.0 34.65 31.7 31.85 30.7 31.65 30.15 M49.0 34.15 Q49.0 31.5 54.45 31.45 59.85 31.4 59.85 34.35 58.1 36.5 56.55 36.5 52.25 36.5 50.2 35.35 L49.0 34.15 M54.95 40.85 Q54.95 40.3 55.45 39.95 L58.95 39.75 Q58.7 41.35 58.25 41.6 L55.2 41.6 Q55.1 41.25 54.95 40.85 M61.35 40.35 Q62.85 37.25 69.1 37.35 75.15 37.5 75.15 39.4 72.3 41.65 68.25 41.65 L61.9 41.25 61.35 40.35 M79.15 32.1 L79.25 31.55 Q80.55 31.25 81.95 31.1 85.2 31.25 85.9 31.9 86.3 32.2 86.3 32.9 L86.3 33.35 86.1 33.85 85.85 34.05 85.45 34.15 82.8 34.0 80.95 33.55 Q79.85 33.1 79.35 32.65 L79.1 32.1 79.1 32.0 M89.7 44.3 L90.25 43.5 Q91.8 42.05 93.9 41.7 99.0 41.55 100.25 42.3 101.0 42.8 101.2 43.6 L101.25 44.1 101.1 44.9 100.65 45.35 99.9 45.6 95.8 45.8 93.05 45.7 Q91.65 45.5 90.25 45.25 L89.75 44.4 M102.75 33.55 Q102.75 30.85 106.2 30.65 L110.4 31.05 111.9 32.25 Q111.5 32.75 109.3 33.8 L107.15 34.8 103.85 34.7 Q102.75 33.9 102.75 33.55 M128.2 21.8 Q130.5 21.5 131.5 21.85 L132.25 24.05 Q129.4 24.3 128.65 23.25 128.2 22.55 128.2 21.8 Z" fill="none" stroke="#000000" stroke-linecap="round" stroke-linejoin="round" stroke-opacity="0.0" stroke-width="1.0"/>
    </g>
    <g id="morphshape2" transform="matrix(1.0, 0.0, 0.0, 1.0, -37.6, -4.7)">
      <path d="M107.0 18.85 Q107.0 20.0 107.25 20.4 L108.05 20.95 Q111.05 20.15 111.85 19.7 112.55 19.2 111.5 16.15 109.1 16.35 108.05 17.0 107.0 17.6 107.0 18.85 M93.85 17.0 Q93.85 18.05 94.45 18.65 L97.5 18.85 Q97.95 17.85 97.7 15.75 L93.95 15.65 93.85 17.0 M92.65 9.2 Q92.65 10.25 93.05 11.15 L99.0 11.15 Q100.05 10.1 100.05 6.6 95.35 6.15 93.7 7.0 92.65 7.6 92.65 9.2 M84.3 16.55 Q84.35 17.5 85.1 19.35 85.75 19.8 87.3 19.95 L88.1 18.75 Q88.6 18.05 87.9 16.25 L84.3 16.55 M75.7 14.35 Q75.3 16.25 76.1 17.75 77.1 19.5 79.35 19.5 80.5 19.5 81.7 17.75 80.85 15.35 79.2 14.7 L75.7 14.35 M64.1 9.55 L64.15 11.0 64.5 11.55 69.95 12.3 73.25 12.7 Q75.0 12.7 73.9 10.25 73.9 7.2 69.0 7.05 64.1 6.95 64.1 9.55 M56.25 22.2 L56.35 23.4 56.7 23.8 Q57.2 23.85 57.7 23.85 58.85 23.85 60.05 23.85 L63.95 23.8 Q64.15 22.5 63.4 19.45 62.45 17.75 61.55 16.9 60.2 15.7 58.65 16.25 56.15 17.4 56.15 22.1 M52.25 9.0 L52.25 9.2 52.3 9.75 52.35 9.9 Q52.45 10.3 52.7 10.4 L54.0 10.75 Q55.35 10.15 55.75 10.05 56.0 8.9 56.1 7.6 55.75 6.65 55.45 5.8 54.6 5.7 53.8 5.75 52.3 6.7 52.3 9.05 M40.75 13.75 L41.85 15.85 Q43.55 18.0 46.55 18.0 50.45 18.0 50.45 14.8 50.45 11.8 45.6 11.0 40.75 10.15 40.75 13.75" fill="#bef0d8" fill-opacity="0.7058824" fill-rule="evenodd" stroke="none"/>
      <path d="M40.75 13.75 Q40.75 10.15 45.6 11.0 50.45 11.8 50.45 14.8 50.45 18.0 46.55 18.0 43.55 18.0 41.85 15.85 L40.75 13.75 M52.3 9.05 Q52.3 6.7 53.8 5.75 54.6 5.7 55.45 5.8 55.75 6.65 56.1 7.6 56.0 8.9 55.75 10.05 55.35 10.15 54.0 10.75 L52.7 10.4 Q52.45 10.3 52.35 9.9 L52.3 9.75 52.25 9.2 52.25 9.0 M56.15 22.1 Q56.15 17.4 58.65 16.25 60.2 15.7 61.55 16.9 62.45 17.75 63.4 19.45 64.15 22.5 63.95 23.8 L60.05 23.85 Q58.85 23.85 57.7 23.85 57.2 23.85 56.7 23.8 L56.35 23.4 56.25 22.2 M64.1 9.55 Q64.1 6.95 69.0 7.05 73.9 7.2 73.9 10.25 75.0 12.7 73.25 12.7 L69.95 12.3 64.5 11.55 64.15 11.0 64.1 9.55 M75.7 14.35 L79.2 14.7 Q80.85 15.35 81.7 17.75 80.5 19.5 79.35 19.5 77.1 19.5 76.1 17.75 75.3 16.25 75.7 14.35 M84.3 16.55 L87.9 16.25 Q88.6 18.05 88.1 18.75 L87.3 19.95 Q85.75 19.8 85.1 19.35 84.35 17.5 84.3 16.55 M92.65 9.2 Q92.65 7.6 93.7 7.0 95.35 6.15 100.05 6.6 100.05 10.1 99.0 11.15 L93.05 11.15 Q92.65 10.25 92.65 9.2 M93.85 17.0 L93.95 15.65 97.7 15.75 Q97.95 17.85 97.5 18.85 L94.45 18.65 Q93.85 18.05 93.85 17.0 M107.0 18.85 Q107.0 17.6 108.05 17.0 109.1 16.35 111.5 16.15 112.55 19.2 111.85 19.7 111.05 20.15 108.05 20.95 L107.25 20.4 Q107.0 20.0 107.0 18.85 Z" fill="none" stroke="#000000" stroke-linecap="round" stroke-linejoin="round" stroke-opacity="0.0" stroke-width="1.0"/>
    </g>
    <g id="morphshape3" transform="matrix(1.0, 0.0, 0.0, 1.0, -32.35, -6.65)">
      <path d="M95.65 8.15 Q95.65 9.3 95.8 9.7 L96.25 10.45 98.25 10.45 98.75 9.95 98.9 8.75 98.65 7.25 Q98.35 6.8 95.8 6.75 95.65 6.4 95.65 8.15 M68.55 9.4 Q68.3 9.75 68.85 10.65 69.15 11.1 70.0 11.4 L72.75 11.75 Q73.25 11.3 73.25 10.6 73.05 10.15 69.1 8.95 L68.55 9.4 M65.8 37.65 L66.1 39.6 Q66.3 40.65 66.75 41.5 L70.25 41.5 Q70.45 41.2 70.75 41.05 L70.35 37.95 66.8 37.4 Q66.0 37.35 65.8 37.65 M44.25 15.15 L44.45 16.5 44.8 17.0 46.35 17.05 Q47.4 17.05 48.0 16.6 48.2 16.45 48.2 14.7 48.2 13.55 47.85 13.0 L47.15 12.35 44.35 13.45 44.25 15.15 M37.1 29.2 L37.35 30.2 Q37.7 31.0 38.15 31.3 42.25 30.75 42.25 28.35 42.25 27.25 41.9 26.95 L41.05 26.6 39.3 26.85 37.45 27.0 37.1 29.2" fill="#ffffff" fill-opacity="0.7058824" fill-rule="evenodd" stroke="none"/>
      <path d="M37.1 29.2 L37.45 27.0 39.3 26.85 41.05 26.6 41.9 26.95 Q42.25 27.25 42.25 28.35 42.25 30.75 38.15 31.3 37.7 31.0 37.35 30.2 L37.1 29.2 M44.25 15.15 L44.35 13.45 47.15 12.35 47.85 13.0 Q48.2 13.55 48.2 14.7 48.2 16.45 48.0 16.6 47.4 17.05 46.35 17.05 L44.8 17.0 44.45 16.5 44.25 15.15 M65.8 37.65 Q66.0 37.35 66.8 37.4 L70.35 37.95 70.75 41.05 Q70.45 41.2 70.25 41.5 L66.75 41.5 Q66.3 40.65 66.1 39.6 L65.8 37.65 M68.55 9.4 L69.1 8.95 Q73.05 10.15 73.25 10.6 73.25 11.3 72.75 11.75 L70.0 11.4 Q69.15 11.1 68.85 10.65 68.3 9.75 68.55 9.4 M95.65 8.15 Q95.65 6.4 95.8 6.75 98.35 6.8 98.65 7.25 L98.9 8.75 98.75 9.95 98.25 10.45 96.25 10.45 95.8 9.7 Q95.65 9.3 95.65 8.15 Z" fill="none" stroke="#000000" stroke-linecap="round" stroke-linejoin="round" stroke-opacity="0.0" stroke-width="1.0"/>
    </g>
  </defs>
</svg>
