<?xml version="1.0" encoding="UTF-8" standalone="no"?>
<svg xmlns:xlink="http://www.w3.org/1999/xlink" height="47.45px" width="141.0px" xmlns="http://www.w3.org/2000/svg">
  <g transform="matrix(1.0, 0.0, 0.0, 1.0, -4.35, -2.9)">
    <use data-characterId="3192" height="47.45" transform="matrix(1.0, 0.0, 0.0, 1.0, 4.35, 2.9)" width="141.0" xlink:href="#morphshape0"/>
    <use data-characterId="3193" height="37.5" transform="matrix(1.0, 0.0, 0.0, 1.0, 17.5, 9.15)" width="116.05" xlink:href="#morphshape1"/>
    <use data-characterId="3194" height="21.8" transform="matrix(1.0, 0.0, 0.0, 1.0, 37.6, 4.7)" width="75.1" xlink:href="#morphshape2"/>
    <use data-characterId="3195" height="35.65" transform="matrix(1.0, 0.0, 0.0, 1.0, 32.35, 6.65)" width="66.65" xlink:href="#morphshape3"/>
  </g>
  <defs>
    <g id="morphshape0" transform="matrix(1.0, 0.0, 0.0, 1.0, -4.35, -2.9)">
      <path d="M4.95 17.9 Q4.8 19.45 11.2 20.6 17.65 21.6 25.15 22.15 34.85 22.9 25.4 24.5 15.65 25.25 21.7 26.85 28.15 28.1 23.55 28.9 18.95 29.55 16.0 30.95 13.25 32.75 16.65 33.3 19.8 33.75 21.6 34.1 24.4 34.5 26.6 35.1 L33.75 36.0 Q29.7 37.8 32.6 38.6 26.6 40.55 39.7 40.3 41.45 40.95 49.35 40.3 43.1 42.65 45.0 43.9 47.1 45.2 53.45 45.5 59.6 45.7 66.4 46.75 74.05 47.7 70.35 49.0 66.15 50.3 69.7 49.55 74.65 48.8 78.75 48.75 L91.2 48.1 Q98.05 47.7 101.1 46.85 106.25 46.3 106.8 44.4 106.3 43.35 108.55 41.05 112.25 40.05 107.45 38.25 121.9 36.85 121.6 35.15 123.3 34.1 119.6 33.8 122.65 32.9 121.15 32.35 126.8 31.05 125.9 30.15 125.5 29.4 122.35 28.65 119.7 28.05 119.0 27.4 118.3 26.75 127.3 25.1 136.3 23.45 138.3 21.8 140.2 20.1 132.65 19.2 127.3 18.3 123.75 18.35 L122.45 18.4 122.05 18.25 Q124.0 17.15 122.2 16.15 128.35 15.2 123.55 14.4 120.35 13.65 116.1 13.55 116.75 11.4 112.35 10.1 102.3 6.1 86.75 4.5 74.65 2.9 51.5 4.45 32.45 5.9 20.35 9.2 7.85 11.4 9.95 12.3 12.05 13.15 21.25 13.95 30.35 14.65 26.15 14.9 22.0 15.0 17.95 15.15 L9.5 15.75 4.85 16.3 Q4.4 17.05 4.8 17.85" fill="#96e0bc" fill-opacity="0.7058824" fill-rule="evenodd" stroke="none"/>
      <path d="M4.8 17.85 Q4.4 17.05 4.85 16.3 L9.5 15.75 17.95 15.15 Q22.0 15.0 26.15 14.9 30.35 14.65 21.25 13.95 12.05 13.15 9.95 12.3 7.85 11.4 20.35 9.2 32.45 5.9 51.5 4.45 74.65 2.9 86.75 4.5 102.3 6.1 112.35 10.1 116.75 11.4 116.1 13.55 120.35 13.65 123.55 14.4 128.35 15.2 122.2 16.15 124.0 17.15 122.05 18.25 L122.45 18.4 123.75 18.35 Q127.3 18.3 132.65 19.2 140.2 20.1 138.3 21.8 136.3 23.45 127.3 25.1 118.3 26.75 119.0 27.4 119.7 28.05 122.35 28.65 125.5 29.4 125.9 30.15 126.8 31.05 121.15 32.35 122.65 32.9 119.6 33.8 123.3 34.1 121.6 35.15 121.9 36.85 107.45 38.25 112.25 40.05 108.55 41.05 106.3 43.35 106.8 44.4 106.25 46.3 101.1 46.85 98.05 47.7 91.2 48.1 L78.75 48.75 Q74.65 48.8 69.7 49.55 66.15 50.3 70.35 49.0 74.05 47.7 66.4 46.75 59.6 45.7 53.45 45.5 47.1 45.2 45.0 43.9 43.1 42.65 49.35 40.3 41.45 40.95 39.7 40.3 26.6 40.55 32.6 38.6 29.7 37.8 33.75 36.0 L26.6 35.1 Q24.4 34.5 21.6 34.1 19.8 33.75 16.65 33.3 13.25 32.75 16.0 30.95 18.95 29.55 23.55 28.9 28.15 28.1 21.7 26.85 15.65 25.25 25.4 24.5 34.85 22.9 25.15 22.15 17.65 21.6 11.2 20.6 4.8 19.45 4.95 17.9" fill="none" stroke="#000000" stroke-linecap="round" stroke-linejoin="round" stroke-opacity="0.0" stroke-width="1.0"/>
    </g>
    <g id="morphshape1" transform="matrix(1.0, 0.0, 0.0, 1.0, -17.5, -9.15)">
      <path d="M122.25 22.6 Q122.25 23.35 122.7 24.05 123.45 25.1 126.3 24.85 L125.55 22.65 Q124.55 22.3 122.25 22.6 M101.3 31.4 Q101.3 31.75 102.4 32.55 L105.7 32.65 107.85 31.65 Q110.05 30.6 110.45 30.1 L108.95 28.9 104.75 28.5 Q101.3 28.7 101.3 31.4 M87.65 39.75 L87.65 39.8 88.05 40.5 Q89.0 40.85 90.25 41.15 L92.55 41.4 95.95 41.35 96.55 41.15 96.9 40.8 97.05 40.15 97.0 39.65 Q96.9 38.9 96.3 38.5 95.3 37.8 91.1 37.8 89.35 38.05 87.9 38.95 L87.55 39.65 M77.3 36.45 L77.65 37.2 Q78.6 37.55 79.85 37.9 L82.15 38.2 85.5 38.2 86.05 38.05 86.4 37.75 86.6 37.1 86.6 36.65 Q86.5 35.9 85.95 35.5 85.0 34.8 80.85 34.8 79.1 35.05 77.7 35.9 L77.4 36.55 M61.9 36.6 L62.45 37.5 68.8 37.9 Q72.85 37.9 75.7 35.65 75.7 33.75 69.65 33.6 63.4 33.5 61.9 36.6 M57.95 41.45 Q58.05 41.9 58.2 42.2 L61.25 42.2 Q61.7 41.95 61.95 40.35 L58.45 40.55 Q57.95 40.9 57.95 41.45 M49.0 35.4 L50.2 36.6 Q52.25 37.75 56.55 37.75 58.1 37.75 59.85 35.6 59.85 32.65 54.45 32.7 49.0 32.75 49.0 35.4 M29.4 29.4 Q29.5 29.95 32.2 31.25 35.6 32.35 39.2 32.35 L43.0 31.85 Q44.1 31.15 44.6 29.1 44.2 26.25 36.6 26.3 28.95 26.35 29.35 29.35 M20.15 14.65 Q20.15 15.1 20.6 15.8 L21.55 16.75 28.4 16.85 Q29.6 15.95 29.6 15.4 29.6 13.55 24.9 13.45 20.15 13.4 20.15 14.65" fill="#bef0d8" fill-opacity="0.7058824" fill-rule="evenodd" stroke="none"/>
      <path d="M20.15 14.65 Q20.15 13.4 24.9 13.45 29.6 13.55 29.6 15.4 29.6 15.95 28.4 16.85 L21.55 16.75 20.6 15.8 Q20.15 15.1 20.15 14.65 M29.35 29.35 Q28.95 26.35 36.6 26.3 44.2 26.25 44.6 29.1 44.1 31.15 43.0 31.85 L39.2 32.35 Q35.6 32.35 32.2 31.25 29.5 29.95 29.4 29.4 M49.0 35.4 Q49.0 32.75 54.45 32.7 59.85 32.65 59.85 35.6 58.1 37.75 56.55 37.75 52.25 37.75 50.2 36.6 L49.0 35.4 M57.95 41.45 Q57.95 40.9 58.45 40.55 L61.95 40.35 Q61.7 41.95 61.25 42.2 L58.2 42.2 Q58.05 41.9 57.95 41.45 M61.9 36.6 Q63.4 33.5 69.65 33.6 75.7 33.75 75.7 35.65 72.85 37.9 68.8 37.9 L62.45 37.5 61.9 36.6 M77.4 36.55 L77.7 35.9 Q79.1 35.05 80.85 34.8 85.0 34.8 85.95 35.5 86.5 35.9 86.6 36.65 L86.6 37.1 86.4 37.75 86.05 38.05 85.5 38.2 82.15 38.2 79.85 37.9 Q78.6 37.55 77.65 37.2 L77.3 36.45 M87.55 39.65 L87.9 38.95 Q89.35 38.05 91.1 37.8 95.3 37.8 96.3 38.5 96.9 38.9 97.0 39.65 L97.05 40.15 96.9 40.8 96.55 41.15 95.95 41.35 92.55 41.4 90.25 41.15 Q89.0 40.85 88.05 40.5 L87.65 39.8 87.65 39.75 M101.3 31.4 Q101.3 28.7 104.75 28.5 L108.95 28.9 110.45 30.1 Q110.05 30.6 107.85 31.65 L105.7 32.65 102.4 32.55 Q101.3 31.75 101.3 31.4 M122.25 22.6 Q124.55 22.3 125.55 22.65 L126.3 24.85 Q123.45 25.1 122.7 24.05 122.25 23.35 122.25 22.6 Z" fill="none" stroke="#000000" stroke-linecap="round" stroke-linejoin="round" stroke-opacity="0.0" stroke-width="1.0"/>
    </g>
    <g id="morphshape2" transform="matrix(1.0, 0.0, 0.0, 1.0, -37.6, -4.7)">
      <path d="M104.5 16.95 Q104.5 18.1 104.75 18.5 L105.55 19.05 Q108.05 18.3 109.35 17.8 110.05 17.3 109.0 14.25 106.6 14.45 105.55 15.1 104.5 15.7 104.5 16.95 M91.95 19.3 Q91.95 20.35 92.55 20.95 L95.6 21.15 Q96.05 20.15 95.8 18.05 L92.05 17.95 91.95 19.3 M90.55 10.45 Q90.55 11.5 90.95 12.4 L96.9 12.4 Q97.95 11.35 97.95 7.85 93.25 7.4 91.6 8.25 90.55 8.85 90.55 10.45 M82.25 19.4 Q82.3 20.35 83.05 22.2 83.7 22.65 85.25 22.8 L86.05 21.6 Q86.55 20.9 85.85 19.1 L82.25 19.4 M77.0 10.8 Q76.6 12.7 77.4 14.2 78.4 15.95 80.65 15.95 81.8 15.95 83.0 14.2 82.15 11.8 80.5 11.15 L77.0 10.8 M65.3 11.65 L65.35 13.1 65.7 13.65 71.15 14.4 74.45 14.8 Q76.2 14.8 75.1 12.35 75.1 9.3 70.2 9.15 65.3 9.05 65.3 11.65 M56.05 17.05 L56.05 17.15 56.15 18.05 56.35 18.35 Q56.65 18.55 57.05 18.6 57.8 18.7 58.9 18.8 L61.75 18.45 Q61.95 17.2 61.6 15.0 60.95 13.65 60.35 12.8 59.25 12.15 58.05 12.45 56.05 13.5 56.05 17.1 M50.45 15.2 L50.5 16.15 50.7 16.4 Q51.0 16.65 51.35 16.7 L53.2 16.9 Q54.85 16.55 55.95 16.5 56.2 15.3 55.9 13.15 55.25 11.85 54.65 11.0 53.55 10.35 52.4 10.65 50.4 11.7 50.4 15.15 M39.4 12.2 L40.5 14.3 Q42.2 16.45 45.2 16.45 49.1 16.45 49.1 13.25 49.1 10.25 44.25 9.45 39.4 8.6 39.4 12.2" fill="#bef0d8" fill-opacity="0.7058824" fill-rule="evenodd" stroke="none"/>
      <path d="M39.4 12.2 Q39.4 8.6 44.25 9.45 49.1 10.25 49.1 13.25 49.1 16.45 45.2 16.45 42.2 16.45 40.5 14.3 L39.4 12.2 M50.4 15.15 Q50.4 11.7 52.4 10.65 53.55 10.35 54.65 11.0 55.25 11.85 55.9 13.15 56.2 15.3 55.95 16.5 54.85 16.55 53.2 16.9 L51.35 16.7 Q51.0 16.65 50.7 16.4 L50.5 16.15 50.45 15.2 M56.05 17.1 Q56.05 13.5 58.05 12.45 59.25 12.15 60.35 12.8 60.95 13.65 61.6 15.0 61.95 17.2 61.75 18.45 L58.9 18.8 Q57.8 18.7 57.05 18.6 56.65 18.55 56.35 18.35 L56.15 18.05 56.05 17.15 56.05 17.05 M65.3 11.65 Q65.3 9.05 70.2 9.15 75.1 9.3 75.1 12.35 76.2 14.8 74.45 14.8 L71.15 14.4 65.7 13.65 65.35 13.1 65.3 11.65 M77.0 10.8 L80.5 11.15 Q82.15 11.8 83.0 14.2 81.8 15.95 80.65 15.95 78.4 15.95 77.4 14.2 76.6 12.7 77.0 10.8 M82.25 19.4 L85.85 19.1 Q86.55 20.9 86.05 21.6 L85.25 22.8 Q83.7 22.65 83.05 22.2 82.3 20.35 82.25 19.4 M90.55 10.45 Q90.55 8.85 91.6 8.25 93.25 7.4 97.95 7.85 97.95 11.35 96.9 12.4 L90.95 12.4 Q90.55 11.5 90.55 10.45 M91.95 19.3 L92.05 17.95 95.8 18.05 Q96.05 20.15 95.6 21.15 L92.55 20.95 Q91.95 20.35 91.95 19.3 M104.5 16.95 Q104.5 15.7 105.55 15.1 106.6 14.45 109.0 14.25 110.05 17.3 109.35 17.8 108.05 18.3 105.55 19.05 L104.75 18.5 Q104.5 18.1 104.5 16.95 Z" fill="none" stroke="#000000" stroke-linecap="round" stroke-linejoin="round" stroke-opacity="0.0" stroke-width="1.0"/>
    </g>
    <g id="morphshape3" transform="matrix(1.0, 0.0, 0.0, 1.0, -32.35, -6.65)">
      <path d="M93.0 9.45 Q93.0 10.6 93.15 11.0 L93.6 11.75 95.6 11.75 96.1 11.25 96.25 10.05 96.0 8.55 Q95.7 8.1 93.15 8.05 93.0 7.7 93.0 9.45 M68.95 11.75 Q68.8 12.15 69.5 12.85 69.95 13.1 70.75 13.25 72.05 13.25 73.4 12.9 73.8 12.35 73.65 11.65 72.45 11.6 69.35 11.1 L68.95 11.65 M66.0 33.45 L66.3 35.4 Q66.5 36.45 66.95 37.3 L70.45 37.3 Q70.65 37.0 70.95 36.85 L70.55 33.75 67.0 33.2 Q66.2 33.15 66.0 33.45 M42.5 14.2 L42.7 15.55 43.05 16.05 44.6 16.1 Q45.65 16.1 46.25 15.65 46.45 15.5 46.45 13.75 46.45 12.6 46.1 12.05 L45.4 11.4 42.6 12.5 42.5 14.2 M35.05 29.2 L35.3 30.2 Q35.65 31.0 36.1 31.3 40.2 30.75 40.2 28.35 40.2 27.25 39.85 26.95 L39.0 26.6 37.25 26.85 35.4 27.0 35.05 29.2" fill="#ffffff" fill-opacity="0.7058824" fill-rule="evenodd" stroke="none"/>
      <path d="M35.05 29.2 L35.4 27.0 37.25 26.85 39.0 26.6 39.85 26.95 Q40.2 27.25 40.2 28.35 40.2 30.75 36.1 31.3 35.65 31.0 35.3 30.2 L35.05 29.2 M42.5 14.2 L42.6 12.5 45.4 11.4 46.1 12.05 Q46.45 12.6 46.45 13.75 46.45 15.5 46.25 15.65 45.65 16.1 44.6 16.1 L43.05 16.05 42.7 15.55 42.5 14.2 M66.0 33.45 Q66.2 33.15 67.0 33.2 L70.55 33.75 70.95 36.85 Q70.65 37.0 70.45 37.3 L66.95 37.3 Q66.5 36.45 66.3 35.4 L66.0 33.45 M68.95 11.65 L69.35 11.1 Q72.45 11.6 73.65 11.65 73.8 12.35 73.4 12.9 72.05 13.25 70.75 13.25 69.95 13.1 69.5 12.85 68.8 12.15 68.95 11.75 M93.0 9.45 Q93.0 7.7 93.15 8.05 95.7 8.1 96.0 8.55 L96.25 10.05 96.1 11.25 95.6 11.75 93.6 11.75 93.15 11.0 Q93.0 10.6 93.0 9.45 Z" fill="none" stroke="#000000" stroke-linecap="round" stroke-linejoin="round" stroke-opacity="0.0" stroke-width="1.0"/>
    </g>
  </defs>
</svg>
