<?xml version="1.0" encoding="UTF-8" standalone="no"?>
<svg xmlns:xlink="http://www.w3.org/1999/xlink" height="47.45px" width="141.0px" xmlns="http://www.w3.org/2000/svg">
  <g transform="matrix(1.0, 0.0, 0.0, 1.0, -4.35, -2.9)">
    <use data-characterId="3192" height="47.45" transform="matrix(1.0, 0.0, 0.0, 1.0, 4.35, 2.9)" width="141.0" xlink:href="#morphshape0"/>
    <use data-characterId="3193" height="37.5" transform="matrix(1.0, 0.0, 0.0, 1.0, 17.5, 9.15)" width="116.05" xlink:href="#morphshape1"/>
    <use data-characterId="3194" height="21.8" transform="matrix(1.0, 0.0, 0.0, 1.0, 37.6, 4.7)" width="75.1" xlink:href="#morphshape2"/>
    <use data-characterId="3195" height="35.65" transform="matrix(1.0, 0.0, 0.0, 1.0, 32.35, 6.65)" width="66.65" xlink:href="#morphshape3"/>
  </g>
  <defs>
    <g id="morphshape0" transform="matrix(1.0, 0.0, 0.0, 1.0, -4.35, -2.9)">
      <path d="M4.8 19.15 Q5.3 20.6 8.65 21.4 12.1 22.0 15.8 22.45 23.5 23.35 22.05 25.65 19.95 26.3 19.8 27.65 20.4 28.45 19.2 29.4 18.0 30.15 17.6 31.15 17.55 32.95 19.45 33.6 20.9 34.1 22.95 34.3 26.8 34.55 29.1 35.55 L30.55 36.75 Q29.2 38.8 34.75 39.75 36.6 40.3 42.85 40.3 42.55 41.4 44.4 42.0 42.95 43.35 46.3 44.8 50.0 46.35 54.6 46.45 57.55 46.5 61.65 48.05 65.9 49.6 67.25 49.9 67.7 50.2 72.4 48.85 77.6 47.4 81.3 47.25 L89.8 46.35 Q93.95 45.95 97.2 45.45 104.25 45.5 107.2 42.75 108.25 41.55 109.25 39.85 114.8 39.1 114.85 37.9 121.15 35.45 117.65 34.0 117.8 33.7 116.7 33.55 125.3 32.05 125.55 31.25 127.45 30.25 125.15 29.3 123.8 28.65 121.8 28.05 120.75 27.75 125.4 26.75 130.05 25.75 133.2 23.6 136.35 21.45 134.65 20.05 132.85 18.6 126.7 18.45 124.55 18.3 122.85 18.35 L122.45 18.35 121.8 18.1 Q125.65 16.25 122.6 14.55 121.45 14.1 117.8 13.7 117.05 13.5 116.05 13.5 117.3 9.6 109.25 7.25 97.95 3.65 74.05 3.3 56.55 2.95 36.1 5.8 17.15 8.5 15.2 11.4 12.55 12.35 13.3 13.0 14.05 13.6 16.45 14.2 18.7 14.65 17.2 14.95 15.95 15.0 14.8 15.2 L5.95 16.15 4.85 16.3 Q4.05 17.7 4.75 19.15" fill="#96e0bc" fill-opacity="0.7058824" fill-rule="evenodd" stroke="none"/>
      <path d="M4.75 19.15 Q4.05 17.7 4.85 16.3 L5.95 16.15 14.8 15.2 Q15.95 15.0 17.2 14.95 18.7 14.65 16.45 14.2 14.05 13.6 13.3 13.0 12.55 12.35 15.2 11.4 17.15 8.5 36.1 5.8 56.55 2.95 74.05 3.3 97.95 3.65 109.25 7.25 117.3 9.6 116.05 13.5 117.05 13.5 117.8 13.7 121.45 14.1 122.6 14.55 125.65 16.25 121.8 18.1 L122.45 18.35 122.85 18.35 Q124.55 18.3 126.7 18.45 132.85 18.6 134.65 20.05 136.35 21.45 133.2 23.6 130.05 25.75 125.4 26.75 120.75 27.75 121.8 28.05 123.8 28.65 125.15 29.3 127.45 30.25 125.55 31.25 125.3 32.05 116.7 33.55 117.8 33.7 117.65 34.0 121.15 35.45 114.85 37.9 114.8 39.1 109.25 39.85 108.25 41.55 107.2 42.75 104.25 45.5 97.2 45.45 93.95 45.95 89.8 46.35 L81.3 47.25 Q77.6 47.4 72.4 48.85 67.7 50.2 67.25 49.9 65.9 49.6 61.65 48.05 57.55 46.5 54.6 46.45 50.0 46.35 46.3 44.8 42.95 43.35 44.4 42.0 42.55 41.4 42.85 40.3 36.6 40.3 34.75 39.75 29.2 38.8 30.55 36.75 L29.1 35.55 Q26.8 34.55 22.95 34.3 20.9 34.1 19.45 33.6 17.55 32.95 17.6 31.15 18.0 30.15 19.2 29.4 20.4 28.45 19.8 27.65 19.95 26.3 22.05 25.65 23.5 23.35 15.8 22.45 12.1 22.0 8.65 21.4 5.3 20.6 4.8 19.15" fill="none" stroke="#000000" stroke-linecap="round" stroke-linejoin="round" stroke-opacity="0.0" stroke-width="1.0"/>
    </g>
    <g id="morphshape1" transform="matrix(1.0, 0.0, 0.0, 1.0, -17.5, -9.15)">
      <path d="M116.3 23.4 Q116.3 24.15 116.75 24.85 117.5 25.9 120.35 25.65 L119.6 23.45 Q118.6 23.1 116.3 23.4 M99.9 29.15 Q99.9 29.5 101.0 30.3 L104.3 30.4 106.45 29.4 Q108.65 28.35 109.05 27.85 L107.55 26.65 103.35 26.25 Q99.9 26.45 99.9 29.15 M85.3 35.0 L85.3 35.1 85.55 35.65 Q86.1 36.1 87.2 36.5 L89.1 36.95 91.8 37.1 92.2 37.0 92.45 36.75 92.65 36.25 92.65 35.8 Q92.65 35.1 92.25 34.8 91.5 34.15 88.2 34.0 86.8 34.15 85.5 34.45 L85.4 35.0 M75.75 41.05 L76.25 41.9 Q77.6 42.15 79.0 42.4 L81.7 42.5 85.75 42.3 86.5 42.05 86.95 41.65 87.1 40.85 87.05 40.35 Q86.85 39.55 86.1 39.05 84.9 38.3 79.85 38.45 77.75 38.8 76.2 40.25 L75.65 41.05 M62.4 32.8 L62.95 33.7 69.3 34.1 Q73.35 34.1 76.2 31.85 76.2 29.95 70.15 29.8 63.9 29.7 62.4 32.8 M60.95 42.1 Q60.95 42.6 61.2 42.85 L64.25 42.85 Q64.7 42.6 64.95 41.0 L61.45 41.2 Q60.95 41.55 60.95 42.1 M49.0 36.65 L50.2 37.85 Q52.25 39.0 56.55 39.0 58.1 39.0 59.85 36.85 59.85 33.9 54.45 33.95 49.0 34.0 49.0 36.65 M27.05 28.55 Q27.05 29.15 29.65 30.7 32.9 32.6 36.55 32.5 L40.45 32.4 Q41.65 31.85 42.35 29.9 42.25 27.0 34.65 26.25 27.0 25.5 27.1 28.55 M18.1 18.2 Q18.1 18.65 18.55 19.35 L19.5 20.3 26.35 20.4 Q27.55 19.5 27.55 18.95 27.55 17.1 22.85 17.0 18.1 16.95 18.1 18.2" fill="#bef0d8" fill-opacity="0.7058824" fill-rule="evenodd" stroke="none"/>
      <path d="M18.1 18.2 Q18.1 16.95 22.85 17.0 27.55 17.1 27.55 18.95 27.55 19.5 26.35 20.4 L19.5 20.3 18.55 19.35 Q18.1 18.65 18.1 18.2 M27.1 28.55 Q27.0 25.5 34.65 26.25 42.25 27.0 42.35 29.9 41.65 31.85 40.45 32.4 L36.55 32.5 Q32.9 32.6 29.65 30.7 27.05 29.15 27.05 28.55 M49.0 36.65 Q49.0 34.0 54.45 33.95 59.85 33.9 59.85 36.85 58.1 39.0 56.55 39.0 52.25 39.0 50.2 37.85 L49.0 36.65 M60.95 42.1 Q60.95 41.55 61.45 41.2 L64.95 41.0 Q64.7 42.6 64.25 42.85 L61.2 42.85 Q60.95 42.6 60.95 42.1 M62.4 32.8 Q63.9 29.7 70.15 29.8 76.2 29.95 76.2 31.85 73.35 34.1 69.3 34.1 L62.95 33.7 62.4 32.8 M75.65 41.05 L76.2 40.25 Q77.75 38.8 79.85 38.45 84.9 38.3 86.1 39.05 86.85 39.55 87.05 40.35 L87.1 40.85 86.95 41.65 86.5 42.05 85.75 42.3 81.7 42.5 79.0 42.4 Q77.6 42.15 76.25 41.9 L75.75 41.05 M85.4 35.0 L85.5 34.45 Q86.8 34.15 88.2 34.0 91.5 34.15 92.25 34.8 92.65 35.1 92.65 35.8 L92.65 36.25 92.45 36.75 92.2 37.0 91.8 37.1 89.1 36.95 87.2 36.5 Q86.1 36.1 85.55 35.65 L85.3 35.1 85.3 35.0 M99.9 29.15 Q99.9 26.45 103.35 26.25 L107.55 26.65 109.05 27.85 Q108.65 28.35 106.45 29.4 L104.3 30.4 101.0 30.3 Q99.9 29.5 99.9 29.15 M116.3 23.4 Q118.6 23.1 119.6 23.45 L120.35 25.65 Q117.5 25.9 116.75 24.85 116.3 24.15 116.3 23.4 Z" fill="none" stroke="#000000" stroke-linecap="round" stroke-linejoin="round" stroke-opacity="0.0" stroke-width="1.0"/>
    </g>
    <g id="morphshape2" transform="matrix(1.0, 0.0, 0.0, 1.0, -37.6, -4.7)">
      <path d="M101.95 15.05 Q101.95 16.2 102.2 16.6 L103.0 17.15 Q105.05 16.5 106.8 15.9 107.5 15.4 106.45 12.35 104.05 12.55 103.0 13.2 101.95 13.8 101.95 15.05 M90.05 21.6 Q90.05 22.65 90.65 23.25 L93.7 23.45 Q94.15 22.45 93.9 20.35 L90.15 20.25 90.05 21.6 M88.5 11.7 Q88.5 12.75 88.9 13.65 L94.85 13.65 Q95.9 12.6 95.9 9.1 91.2 8.65 89.55 9.5 88.5 10.1 88.5 11.7 M80.2 22.25 Q80.25 23.2 81.0 25.05 81.65 25.5 83.2 25.65 L84.0 24.45 Q84.5 23.75 83.8 21.95 L80.2 22.25 M78.35 7.25 Q77.95 9.15 78.75 10.65 79.75 12.4 82.0 12.4 83.15 12.4 84.35 10.65 83.5 8.25 81.85 7.6 L78.35 7.25 M66.5 13.7 L66.55 15.15 66.9 15.7 72.35 16.45 75.65 16.85 Q77.4 16.85 76.3 14.4 76.3 11.35 71.4 11.2 66.5 11.1 66.5 13.7 M56.0 11.9 L56.0 12.1 56.05 12.7 56.1 12.85 Q56.2 13.25 56.45 13.35 56.8 13.55 57.8 13.75 L59.65 13.1 Q59.9 11.95 59.95 10.6 59.55 9.6 59.2 8.75 58.35 8.6 57.5 8.65 55.95 9.6 55.95 12.05 M48.45 21.35 L48.55 22.55 48.9 22.95 Q49.4 23.0 49.9 23.0 L52.25 23.05 Q54.2 22.95 56.05 22.95 56.25 21.65 55.55 18.65 54.65 17.0 53.8 16.15 52.45 15.0 50.95 15.55 48.5 16.7 48.5 21.3 M38.0 10.65 L39.1 12.75 Q40.8 14.9 43.8 14.9 47.7 14.9 47.7 11.7 47.7 8.7 42.85 7.9 38.0 7.05 38.0 10.65" fill="#bef0d8" fill-opacity="0.7058824" fill-rule="evenodd" stroke="none"/>
      <path d="M38.0 10.65 Q38.0 7.05 42.85 7.9 47.7 8.7 47.7 11.7 47.7 14.9 43.8 14.9 40.8 14.9 39.1 12.75 L38.0 10.65 M48.5 21.3 Q48.5 16.7 50.95 15.55 52.45 15.0 53.8 16.15 54.65 17.0 55.55 18.65 56.25 21.65 56.05 22.95 54.2 22.95 52.25 23.05 L49.9 23.0 Q49.4 23.0 48.9 22.95 L48.55 22.55 48.45 21.35 M55.95 12.05 Q55.95 9.6 57.5 8.65 58.35 8.6 59.2 8.75 59.55 9.6 59.95 10.6 59.9 11.95 59.65 13.1 L57.8 13.75 Q56.8 13.55 56.45 13.35 56.2 13.25 56.1 12.85 L56.05 12.7 56.0 12.1 56.0 11.9 M66.5 13.7 Q66.5 11.1 71.4 11.2 76.3 11.35 76.3 14.4 77.4 16.85 75.65 16.85 L72.35 16.45 66.9 15.7 66.55 15.15 66.5 13.7 M78.35 7.25 L81.85 7.6 Q83.5 8.25 84.35 10.65 83.15 12.4 82.0 12.4 79.75 12.4 78.75 10.65 77.95 9.15 78.35 7.25 M80.2 22.25 L83.8 21.95 Q84.5 23.75 84.0 24.45 L83.2 25.65 Q81.65 25.5 81.0 25.05 80.25 23.2 80.2 22.25 M88.5 11.7 Q88.5 10.1 89.55 9.5 91.2 8.65 95.9 9.1 95.9 12.6 94.85 13.65 L88.9 13.65 Q88.5 12.75 88.5 11.7 M90.05 21.6 L90.15 20.25 93.9 20.35 Q94.15 22.45 93.7 23.45 L90.65 23.25 Q90.05 22.65 90.05 21.6 M101.95 15.05 Q101.95 13.8 103.0 13.2 104.05 12.55 106.45 12.35 107.5 15.4 106.8 15.9 105.05 16.5 103.0 17.15 L102.2 16.6 Q101.95 16.2 101.95 15.05 Z" fill="none" stroke="#000000" stroke-linecap="round" stroke-linejoin="round" stroke-opacity="0.0" stroke-width="1.0"/>
    </g>
    <g id="morphshape3" transform="matrix(1.0, 0.0, 0.0, 1.0, -32.35, -6.65)">
      <path d="M90.7 10.6 Q90.7 11.75 90.85 12.15 L91.3 12.9 93.3 12.9 93.8 12.4 93.95 11.2 93.7 9.7 Q93.4 9.25 90.85 9.2 90.7 8.85 90.7 10.6 M69.3 13.9 Q69.25 14.35 70.1 14.9 70.75 15.0 71.45 15.05 72.65 14.9 74.0 14.15 74.3 13.5 74.0 12.85 72.0 13.1 69.6 13.2 L69.35 13.85 M66.25 29.3 L66.55 31.25 Q66.75 32.3 67.2 33.15 L70.7 33.15 Q70.95 32.9 71.2 32.7 L70.8 29.6 67.25 29.05 Q66.45 29.0 66.25 29.3 M40.7 13.25 L40.9 14.6 41.25 15.1 42.8 15.15 Q43.85 15.15 44.45 14.7 44.65 14.55 44.65 12.8 44.65 11.65 44.3 11.1 L43.6 10.45 40.8 11.55 40.7 13.25 M33.0 29.2 L33.25 30.2 Q33.6 31.0 34.05 31.3 38.15 30.75 38.15 28.35 38.15 27.25 37.8 26.95 L36.95 26.6 35.2 26.85 33.35 27.0 33.0 29.2" fill="#ffffff" fill-opacity="0.7058824" fill-rule="evenodd" stroke="none"/>
      <path d="M33.0 29.2 L33.35 27.0 35.2 26.85 36.95 26.6 37.8 26.95 Q38.15 27.25 38.15 28.35 38.15 30.75 34.05 31.3 33.6 31.0 33.25 30.2 L33.0 29.2 M40.7 13.25 L40.8 11.55 43.6 10.45 44.3 11.1 Q44.65 11.65 44.65 12.8 44.65 14.55 44.45 14.7 43.85 15.15 42.8 15.15 L41.25 15.1 40.9 14.6 40.7 13.25 M66.25 29.3 Q66.45 29.0 67.25 29.05 L70.8 29.6 71.2 32.7 Q70.95 32.9 70.7 33.15 L67.2 33.15 Q66.75 32.3 66.55 31.25 L66.25 29.3 M69.35 13.85 L69.6 13.2 Q72.0 13.1 74.0 12.85 74.3 13.5 74.0 14.15 72.65 14.9 71.45 15.05 70.75 15.0 70.1 14.9 69.25 14.35 69.3 13.9 M90.7 10.6 Q90.7 8.85 90.85 9.2 93.4 9.25 93.7 9.7 L93.95 11.2 93.8 12.4 93.3 12.9 91.3 12.9 90.85 12.15 Q90.7 11.75 90.7 10.6 Z" fill="none" stroke="#000000" stroke-linecap="round" stroke-linejoin="round" stroke-opacity="0.0" stroke-width="1.0"/>
    </g>
  </defs>
</svg>
