<?xml version="1.0" encoding="UTF-8" standalone="no"?>
<svg xmlns:xlink="http://www.w3.org/1999/xlink" height="47.45px" width="141.0px" xmlns="http://www.w3.org/2000/svg">
  <g transform="matrix(1.0, 0.0, 0.0, 1.0, -4.35, -2.9)">
    <use data-characterId="3188" height="47.45" transform="matrix(1.0, 0.0, 0.0, 1.0, 4.35, 2.9)" width="141.0" xlink:href="#morphshape0"/>
    <use data-characterId="3189" height="37.5" transform="matrix(1.0, 0.0, 0.0, 1.0, 17.5, 9.15)" width="116.05" xlink:href="#morphshape1"/>
    <use data-characterId="3190" height="21.8" transform="matrix(1.0, 0.0, 0.0, 1.0, 37.6, 4.7)" width="75.1" xlink:href="#morphshape2"/>
    <use data-characterId="3191" height="35.65" transform="matrix(1.0, 0.0, 0.0, 1.0, 32.35, 6.65)" width="66.65" xlink:href="#morphshape3"/>
  </g>
  <defs>
    <g id="morphshape0" transform="matrix(1.0, 0.0, 0.0, 1.0, -4.35, -2.9)">
      <path d="M4.75 19.15 Q5.25 20.6 8.7 21.4 12.25 22.0 16.05 22.45 23.8 23.35 22.15 25.65 19.9 26.3 19.9 27.65 20.65 28.45 19.35 29.4 18.05 30.1 17.6 31.1 17.5 32.9 19.45 33.55 20.95 34.05 22.95 34.25 26.8 34.5 29.1 35.5 L30.7 36.7 Q29.3 38.75 34.8 39.7 36.45 40.25 42.9 40.25 42.65 41.35 44.65 41.95 43.1 43.35 46.4 44.8 50.05 46.35 54.7 46.45 57.7 46.5 61.9 48.05 66.25 49.55 67.45 49.9 67.8 50.25 72.5 48.9 77.65 47.45 81.35 47.3 L89.95 46.4 Q94.2 46.0 97.45 45.5 104.45 45.55 107.35 42.85 108.35 41.65 109.4 39.95 114.9 39.2 114.8 37.95 121.3 35.55 117.85 34.1 118.0 33.75 116.85 33.6 125.3 32.15 125.55 31.4 127.55 30.4 125.3 29.45 123.95 28.8 121.9 28.2 120.8 27.9 125.35 26.9 129.85 25.9 133.15 23.75 136.45 21.6 134.85 20.2 133.15 18.75 126.95 18.55 124.7 18.35 122.95 18.4 L122.5 18.4 121.85 18.15 Q125.65 16.3 122.65 14.65 121.7 14.2 118.05 13.8 117.25 13.55 116.15 13.5 117.35 9.6 109.4 7.25 98.1 3.65 74.45 3.25 57.1 2.85 36.55 5.7 17.6 8.35 15.35 11.25 12.45 12.25 13.25 12.95 14.05 13.6 16.6 14.2 19.0 14.65 17.4 14.95 16.05 15.0 14.85 15.2 L6.05 16.15 4.85 16.3 Q4.05 17.7 4.75 19.15" fill="#96e0bc" fill-opacity="0.7058824" fill-rule="evenodd" stroke="none"/>
      <path d="M4.75 19.15 Q4.05 17.7 4.85 16.3 L6.05 16.15 14.85 15.2 Q16.05 15.0 17.4 14.95 19.0 14.65 16.6 14.2 14.05 13.6 13.25 12.95 12.45 12.25 15.35 11.25 17.6 8.35 36.55 5.7 57.1 2.85 74.45 3.25 98.1 3.65 109.4 7.25 117.35 9.6 116.15 13.5 117.25 13.55 118.05 13.8 121.7 14.2 122.65 14.65 125.65 16.3 121.85 18.15 L122.5 18.4 122.95 18.4 Q124.7 18.35 126.95 18.55 133.15 18.75 134.85 20.2 136.45 21.6 133.15 23.75 129.85 25.9 125.35 26.9 120.8 27.9 121.9 28.2 123.95 28.8 125.3 29.45 127.55 30.4 125.55 31.4 125.3 32.15 116.85 33.6 118.0 33.75 117.85 34.1 121.3 35.55 114.8 37.95 114.9 39.2 109.4 39.95 108.35 41.65 107.35 42.85 104.45 45.55 97.45 45.5 94.2 46.0 89.95 46.4 L81.35 47.3 Q77.65 47.45 72.5 48.9 67.8 50.25 67.45 49.9 66.25 49.55 61.9 48.05 57.7 46.5 54.7 46.45 50.05 46.35 46.4 44.8 43.1 43.35 44.65 41.95 42.65 41.35 42.9 40.25 36.45 40.25 34.8 39.7 29.3 38.75 30.7 36.7 L29.1 35.5 Q26.8 34.5 22.95 34.25 20.95 34.05 19.45 33.55 17.5 32.9 17.6 31.1 18.05 30.1 19.35 29.4 20.65 28.45 19.9 27.65 19.9 26.3 22.15 25.65 23.8 23.35 16.05 22.45 12.25 22.0 8.7 21.4 5.25 20.6 4.75 19.15 Z" fill="none" stroke="#000000" stroke-linecap="round" stroke-linejoin="round" stroke-opacity="0.0" stroke-width="1.0"/>
    </g>
    <g id="morphshape1" transform="matrix(1.0, 0.0, 0.0, 1.0, -17.5, -9.15)">
      <path d="M116.45 23.4 Q116.45 24.15 116.9 24.85 117.65 25.9 120.5 25.65 L119.75 23.45 Q118.75 23.1 116.45 23.4 M99.9 29.2 Q99.9 29.55 101.0 30.35 L104.3 30.45 106.45 29.45 Q108.65 28.4 109.05 27.9 L107.55 26.7 103.35 26.3 Q99.9 26.5 99.9 29.2 M85.4 35.1 L85.65 35.75 Q86.2 36.2 87.3 36.6 L89.2 37.05 91.95 37.2 92.35 37.1 92.6 36.85 92.8 36.35 92.8 35.9 Q92.75 35.2 92.35 34.85 91.6 34.2 88.25 34.05 86.85 34.25 85.55 34.6 L85.45 35.15 M75.75 41.0 L75.75 41.0 76.25 41.85 Q77.6 42.1 79.0 42.35 L81.7 42.45 85.7 42.25 86.45 42.0 86.9 41.6 87.05 40.8 87.0 40.3 Q86.85 39.5 86.1 39.05 84.9 38.3 79.9 38.45 77.8 38.75 76.25 40.15 L75.7 40.95 M62.4 32.9 L62.95 33.8 69.3 34.2 Q73.35 34.2 76.2 31.95 76.2 30.05 70.15 29.9 63.9 29.8 62.4 32.9 M60.85 42.1 Q60.85 42.6 61.1 42.85 L64.15 42.85 Q64.6 42.6 64.85 41.0 L61.35 41.2 Q60.85 41.55 60.85 42.1 M49.0 36.65 L50.2 37.85 Q52.25 39.0 56.55 39.0 58.1 39.0 59.85 36.85 59.85 33.9 54.45 33.95 49.0 34.0 49.0 36.65 M27.1 28.55 Q27.15 29.15 29.75 30.7 33.0 32.6 36.65 32.55 L40.55 32.4 Q41.7 31.85 42.4 29.9 42.3 27.0 34.7 26.25 27.05 25.5 27.15 28.55 M18.15 18.15 Q18.15 18.6 18.6 19.3 L19.55 20.25 26.4 20.35 Q27.6 19.45 27.6 18.9 27.6 17.05 22.9 16.95 18.15 16.9 18.15 18.15" fill="#bef0d8" fill-opacity="0.7058824" fill-rule="evenodd" stroke="none"/>
      <path d="M18.15 18.15 Q18.15 16.9 22.9 16.95 27.6 17.05 27.6 18.9 27.6 19.45 26.4 20.35 L19.55 20.25 18.6 19.3 Q18.15 18.6 18.15 18.15 M27.15 28.55 Q27.05 25.5 34.7 26.25 42.3 27.0 42.4 29.9 41.7 31.85 40.55 32.4 L36.65 32.55 Q33.0 32.6 29.75 30.7 27.15 29.15 27.1 28.55 M49.0 36.65 Q49.0 34.0 54.45 33.95 59.85 33.9 59.85 36.85 58.1 39.0 56.55 39.0 52.25 39.0 50.2 37.85 L49.0 36.65 M60.85 42.1 Q60.85 41.55 61.35 41.2 L64.85 41.0 Q64.6 42.6 64.15 42.85 L61.1 42.85 Q60.85 42.6 60.85 42.1 M62.4 32.9 Q63.9 29.8 70.15 29.9 76.2 30.05 76.2 31.95 73.35 34.2 69.3 34.2 L62.95 33.8 62.4 32.9 M75.7 40.95 L76.25 40.15 Q77.8 38.75 79.9 38.45 84.9 38.3 86.1 39.05 86.85 39.5 87.0 40.3 L87.05 40.8 86.9 41.6 86.45 42.0 85.7 42.25 81.7 42.45 79.0 42.35 Q77.6 42.1 76.25 41.85 L75.75 41.0 75.75 41.0 M85.45 35.15 L85.55 34.6 Q86.85 34.25 88.25 34.05 91.6 34.2 92.35 34.85 92.75 35.2 92.8 35.9 L92.8 36.35 92.6 36.85 92.35 37.1 91.95 37.2 89.2 37.05 87.3 36.6 Q86.2 36.2 85.65 35.75 L85.4 35.1 M99.9 29.2 Q99.9 26.5 103.35 26.3 L107.55 26.7 109.05 27.9 Q108.65 28.4 106.45 29.45 L104.3 30.45 101.0 30.35 Q99.9 29.55 99.9 29.2 M116.45 23.4 Q118.75 23.1 119.75 23.45 L120.5 25.65 Q117.65 25.9 116.9 24.85 116.45 24.15 116.45 23.4 Z" fill="none" stroke="#000000" stroke-linecap="round" stroke-linejoin="round" stroke-opacity="0.0" stroke-width="1.0"/>
    </g>
    <g id="morphshape2" transform="matrix(1.0, 0.0, 0.0, 1.0, -37.6, -4.7)">
      <path d="M102.05 15.1 Q102.05 16.25 102.3 16.65 L103.1 17.2 Q105.15 16.55 106.9 15.95 107.6 15.45 106.55 12.4 104.15 12.6 103.1 13.25 102.05 13.85 102.05 15.1 M90.1 21.55 Q90.1 22.6 90.7 23.2 L93.75 23.4 Q94.2 22.4 93.95 20.3 L90.2 20.2 90.1 21.55 M88.55 11.65 Q88.55 12.7 88.95 13.6 L94.9 13.6 Q95.95 12.55 95.95 9.05 91.25 8.6 89.6 9.45 88.55 10.05 88.55 11.65 M80.25 22.15 Q80.3 23.1 81.05 24.95 81.7 25.4 83.25 25.55 L84.05 24.35 Q84.55 23.65 83.85 21.85 L80.25 22.15 M78.3 7.35 Q77.9 9.25 78.7 10.75 79.7 12.5 81.95 12.5 83.1 12.5 84.3 10.75 83.45 8.35 81.8 7.7 L78.3 7.35 M66.45 13.65 L66.5 15.1 66.85 15.65 72.3 16.4 75.6 16.8 Q77.35 16.8 76.25 14.35 76.25 11.3 71.35 11.15 66.45 11.05 66.45 13.65 M55.95 12.15 L56.0 12.9 56.05 13.05 Q56.15 13.45 56.4 13.55 56.8 13.7 57.8 13.85 L59.7 13.2 Q59.95 12.05 60.0 10.65 59.6 9.65 59.25 8.8 58.35 8.65 57.5 8.75 55.95 9.7 55.95 12.15 M48.5 21.2 L48.5 21.25 48.6 22.4 48.95 22.8 Q49.45 22.85 49.95 22.85 L52.3 22.9 Q54.25 22.8 56.05 22.8 56.25 21.5 55.55 18.55 54.65 16.9 53.8 16.05 52.5 14.9 51.0 15.4 48.55 16.55 48.55 21.15 M38.05 10.65 L39.15 12.75 Q40.85 14.9 43.85 14.9 47.75 14.9 47.75 11.7 47.75 8.7 42.9 7.9 38.05 7.05 38.05 10.65" fill="#bef0d8" fill-opacity="0.7058824" fill-rule="evenodd" stroke="none"/>
      <path d="M38.05 10.65 Q38.05 7.05 42.9 7.9 47.75 8.7 47.75 11.7 47.75 14.9 43.85 14.9 40.85 14.9 39.15 12.75 L38.05 10.65 M48.55 21.15 Q48.55 16.55 51.0 15.4 52.5 14.9 53.8 16.05 54.65 16.9 55.55 18.55 56.25 21.5 56.05 22.8 54.25 22.8 52.3 22.9 L49.95 22.85 Q49.45 22.85 48.95 22.8 L48.6 22.4 48.5 21.25 48.5 21.2 M55.95 12.15 Q55.95 9.7 57.5 8.75 58.35 8.65 59.25 8.8 59.6 9.65 60.0 10.65 59.95 12.05 59.7 13.2 L57.8 13.85 Q56.8 13.7 56.4 13.55 56.15 13.45 56.05 13.05 L56.0 12.9 55.95 12.15 M66.45 13.65 Q66.45 11.05 71.35 11.15 76.25 11.3 76.25 14.35 77.35 16.8 75.6 16.8 L72.3 16.4 66.85 15.65 66.5 15.1 66.45 13.65 M78.3 7.35 L81.8 7.7 Q83.45 8.35 84.3 10.75 83.1 12.5 81.95 12.5 79.7 12.5 78.7 10.75 77.9 9.25 78.3 7.35 M80.25 22.15 L83.85 21.85 Q84.55 23.65 84.05 24.35 L83.25 25.55 Q81.7 25.4 81.05 24.95 80.3 23.1 80.25 22.15 M88.55 11.65 Q88.55 10.05 89.6 9.45 91.25 8.6 95.95 9.05 95.95 12.55 94.9 13.6 L88.95 13.6 Q88.55 12.7 88.55 11.65 M90.1 21.55 L90.2 20.2 93.95 20.3 Q94.2 22.4 93.75 23.4 L90.7 23.2 Q90.1 22.6 90.1 21.55 M102.05 15.1 Q102.05 13.85 103.1 13.25 104.15 12.6 106.55 12.4 107.6 15.45 106.9 15.95 105.15 16.55 103.1 17.2 L102.3 16.65 Q102.05 16.25 102.05 15.1 Z" fill="none" stroke="#000000" stroke-linecap="round" stroke-linejoin="round" stroke-opacity="0.0" stroke-width="1.0"/>
    </g>
    <g id="morphshape3" transform="matrix(1.0, 0.0, 0.0, 1.0, -32.35, -6.65)">
      <path d="M94.6 8.8 Q94.6 9.95 94.75 10.35 L95.2 11.1 97.2 11.1 97.7 10.6 97.85 9.4 97.6 7.9 Q97.3 7.45 94.75 7.4 94.6 7.05 94.6 8.8 M69.45 13.2 Q69.2 13.55 69.75 14.45 70.3 14.85 70.9 15.2 L73.65 15.55 Q74.15 15.1 74.15 14.4 73.95 13.95 70.0 12.75 L69.45 13.2 M66.25 30.45 L66.55 32.4 Q66.75 33.45 67.2 34.3 L70.7 34.3 Q70.95 34.05 71.2 33.85 L70.8 30.75 67.25 30.2 Q66.45 30.15 66.25 30.45 M40.75 13.25 L40.95 14.6 41.3 15.1 42.85 15.15 Q43.9 15.15 44.5 14.7 44.7 14.55 44.7 12.8 44.7 11.65 44.35 11.1 L43.65 10.45 40.85 11.55 40.75 13.25 M33.05 29.2 L33.3 30.2 Q33.65 31.0 34.1 31.3 38.2 30.75 38.2 28.35 38.2 27.25 37.85 26.95 L37.0 26.6 35.25 26.85 33.4 27.0 33.05 29.2" fill="#ffffff" fill-opacity="0.7058824" fill-rule="evenodd" stroke="none"/>
      <path d="M33.05 29.2 L33.4 27.0 35.25 26.85 37.0 26.6 37.85 26.95 Q38.2 27.25 38.2 28.35 38.2 30.75 34.1 31.3 33.65 31.0 33.3 30.2 L33.05 29.2 M40.75 13.25 L40.85 11.55 43.65 10.45 44.35 11.1 Q44.7 11.65 44.7 12.8 44.7 14.55 44.5 14.7 43.9 15.15 42.85 15.15 L41.3 15.1 40.95 14.6 40.75 13.25 M66.25 30.45 Q66.45 30.15 67.25 30.2 L70.8 30.75 71.2 33.85 Q70.95 34.05 70.7 34.3 L67.2 34.3 Q66.75 33.45 66.55 32.4 L66.25 30.45 M69.45 13.2 L70.0 12.75 Q73.95 13.95 74.15 14.4 74.15 15.1 73.65 15.55 L70.9 15.2 Q70.3 14.85 69.75 14.45 69.2 13.55 69.45 13.2 M94.6 8.8 Q94.6 7.05 94.75 7.4 97.3 7.45 97.6 7.9 L97.85 9.4 97.7 10.6 97.2 11.1 95.2 11.1 94.75 10.35 Q94.6 9.95 94.6 8.8 Z" fill="none" stroke="#000000" stroke-linecap="round" stroke-linejoin="round" stroke-opacity="0.0" stroke-width="1.0"/>
    </g>
  </defs>
</svg>
