<?xml version="1.0" encoding="UTF-8" standalone="no"?>
<svg xmlns:xlink="http://www.w3.org/1999/xlink" height="47.45px" width="141.0px" xmlns="http://www.w3.org/2000/svg">
  <g transform="matrix(1.0, 0.0, 0.0, 1.0, -4.35, -2.9)">
    <use data-characterId="3188" height="47.45" transform="matrix(1.0, 0.0, 0.0, 1.0, 4.35, 2.9)" width="141.0" xlink:href="#morphshape0"/>
    <use data-characterId="3189" height="37.5" transform="matrix(1.0, 0.0, 0.0, 1.0, 17.5, 9.15)" width="116.05" xlink:href="#morphshape1"/>
    <use data-characterId="3190" height="21.8" transform="matrix(1.0, 0.0, 0.0, 1.0, 37.6, 4.7)" width="75.1" xlink:href="#morphshape2"/>
    <use data-characterId="3191" height="35.65" transform="matrix(1.0, 0.0, 0.0, 1.0, 32.35, 6.65)" width="66.65" xlink:href="#morphshape3"/>
  </g>
  <defs>
    <g id="morphshape0" transform="matrix(1.0, 0.0, 0.0, 1.0, -4.35, -2.9)">
      <path d="M4.5 18.7 Q4.75 20.2 9.3 21.15 13.95 21.9 19.15 22.35 27.65 23.2 23.1 25.25 18.0 25.95 20.25 27.4 23.15 28.4 20.6 29.3 18.05 30.0 16.65 31.15 15.55 32.95 18.05 33.55 20.15 34.0 22.1 34.25 25.55 34.55 27.85 35.4 L31.5 36.5 Q29.1 38.45 33.6 39.35 32.4 40.45 41.35 40.35 41.85 41.3 46.05 41.4 42.75 43.15 45.55 44.5 48.6 45.95 53.9 46.15 58.1 46.25 63.25 47.6 68.85 48.9 68.25 49.6 66.9 50.3 71.15 49.2 76.25 48.0 80.1 47.85 L90.15 47.05 Q95.35 46.65 98.55 46.0 104.85 45.8 106.9 43.4 107.35 42.25 108.85 40.35 113.7 39.5 111.85 38.05 121.3 36.0 119.05 34.45 119.8 33.85 117.7 33.65 124.1 32.4 123.7 31.7 127.05 30.6 125.3 29.7 124.3 29.0 121.85 28.35 120.2 27.95 122.8 27.1 125.35 26.25 130.8 24.3 136.25 22.35 136.0 20.85 135.65 19.3 128.95 18.85 125.55 18.4 123.15 18.45 L122.4 18.5 121.85 18.3 Q125.0 16.75 122.45 15.35 124.15 14.7 120.05 14.15 118.35 13.75 116.1 13.7 117.1 10.45 110.45 8.5 99.65 4.75 79.0 3.9 63.6 3.05 42.1 5.4 23.15 7.6 17.25 10.65 10.75 12.1 12.0 12.85 13.25 13.55 18.3 14.2 23.2 14.75 20.65 15.0 18.25 15.05 16.0 15.2 L7.35 16.0 4.85 16.3 Q4.2 17.45 4.8 18.65" fill="#96e0bc" fill-opacity="0.7058824" fill-rule="evenodd" stroke="none"/>
      <path d="M4.8 18.65 Q4.2 17.45 4.85 16.3 L7.35 16.0 16.0 15.2 Q18.25 15.05 20.65 15.0 23.2 14.75 18.3 14.2 13.25 13.55 12.0 12.85 10.75 12.1 17.25 10.65 23.15 7.6 42.1 5.4 63.6 3.05 79.0 3.9 99.65 4.75 110.45 8.5 117.1 10.45 116.1 13.7 118.35 13.75 120.05 14.15 124.15 14.7 122.45 15.35 125.0 16.75 121.85 18.3 L122.4 18.5 123.15 18.45 Q125.55 18.4 128.95 18.85 135.65 19.3 136.0 20.85 136.25 22.35 130.8 24.3 125.35 26.25 122.8 27.1 120.2 27.95 121.85 28.35 124.3 29.0 125.3 29.7 127.05 30.6 123.7 31.7 124.1 32.4 117.7 33.65 119.8 33.85 119.05 34.45 121.3 36.0 111.85 38.05 113.7 39.5 108.85 40.35 107.35 42.25 106.9 43.4 104.85 45.8 98.55 46.0 95.35 46.65 90.15 47.05 L80.1 47.85 Q76.25 48.0 71.15 49.2 66.9 50.3 68.25 49.6 68.85 48.9 63.25 47.6 58.1 46.25 53.9 46.15 48.6 45.95 45.55 44.5 42.75 43.15 46.05 41.4 41.85 41.3 41.35 40.35 32.4 40.45 33.6 39.35 29.1 38.45 31.5 36.5 L27.85 35.4 Q25.55 34.55 22.1 34.25 20.15 34.0 18.05 33.55 15.55 32.95 16.65 31.15 18.05 30.0 20.6 29.3 23.15 28.4 20.25 27.4 18.0 25.95 23.1 25.25 27.65 23.2 19.15 22.35 13.95 21.9 9.3 21.15 4.75 20.2 4.5 18.7" fill="none" stroke="#000000" stroke-linecap="round" stroke-linejoin="round" stroke-opacity="0.0" stroke-width="1.0"/>
    </g>
    <g id="morphshape1" transform="matrix(1.0, 0.0, 0.0, 1.0, -17.5, -9.15)">
      <path d="M118.65 23.1 Q118.65 23.85 119.1 24.55 119.85 25.6 122.7 25.35 L121.95 23.15 Q120.95 22.8 118.65 23.1 M100.45 30.05 Q100.45 30.4 101.55 31.2 L104.85 31.3 107.0 30.3 Q109.2 29.25 109.6 28.75 L108.1 27.55 103.9 27.15 Q100.45 27.35 100.45 30.05 M86.2 36.75 L86.5 37.45 Q87.2 37.85 88.35 38.25 L90.4 38.65 93.4 38.75 93.85 38.6 94.15 38.35 94.35 37.8 94.35 37.35 Q94.3 36.6 93.85 36.25 93.0 35.55 89.35 35.45 87.8 35.65 86.45 36.2 L86.25 36.8 M76.4 39.3 L76.4 39.35 76.85 40.15 Q78.05 40.45 79.4 40.7 L81.95 40.85 85.7 40.7 86.4 40.5 86.8 40.1 86.95 39.35 86.9 38.85 Q86.75 38.1 86.05 37.65 84.95 36.95 80.25 37.05 78.3 37.35 76.8 38.55 L76.35 39.3 M62.2 34.3 L62.75 35.2 69.1 35.6 Q73.15 35.6 76.0 33.35 76.0 31.45 69.95 31.3 63.7 31.2 62.2 34.3 M59.75 41.85 Q59.8 42.3 60.0 42.6 L63.05 42.6 Q63.5 42.35 63.75 40.75 L60.25 40.95 Q59.75 41.3 59.75 41.85 M49.0 36.15 L50.2 37.35 Q52.25 38.5 56.55 38.5 58.1 38.5 59.85 36.35 59.85 33.4 54.45 33.45 49.0 33.5 49.0 36.15 M27.95 28.9 Q28.0 29.5 30.65 30.95 33.95 32.55 37.6 32.5 L41.45 32.2 Q42.6 31.6 43.2 29.6 43.0 26.75 35.4 26.3 27.75 25.85 27.95 28.85 M18.9 16.85 Q18.9 17.3 19.35 18.0 L20.3 18.95 27.15 19.05 Q28.35 18.15 28.35 17.6 28.35 15.75 23.65 15.65 18.9 15.6 18.9 16.85" fill="#bef0d8" fill-opacity="0.7058824" fill-rule="evenodd" stroke="none"/>
      <path d="M18.9 16.85 Q18.9 15.6 23.65 15.65 28.35 15.75 28.35 17.6 28.35 18.15 27.15 19.05 L20.3 18.95 19.35 18.0 Q18.9 17.3 18.9 16.85 M27.95 28.85 Q27.75 25.85 35.4 26.3 43.0 26.75 43.2 29.6 42.6 31.6 41.45 32.2 L37.6 32.5 Q33.95 32.55 30.65 30.95 28.0 29.5 27.95 28.9 M49.0 36.15 Q49.0 33.5 54.45 33.45 59.85 33.4 59.85 36.35 58.1 38.5 56.55 38.5 52.25 38.5 50.2 37.35 L49.0 36.15 M59.75 41.85 Q59.75 41.3 60.25 40.95 L63.75 40.75 Q63.5 42.35 63.05 42.6 L60.0 42.6 Q59.8 42.3 59.75 41.85 M62.2 34.3 Q63.7 31.2 69.95 31.3 76.0 31.45 76.0 33.35 73.15 35.6 69.1 35.6 L62.75 35.2 62.2 34.3 M76.35 39.3 L76.8 38.55 Q78.3 37.35 80.25 37.05 84.95 36.95 86.05 37.65 86.75 38.1 86.9 38.85 L86.95 39.35 86.8 40.1 86.4 40.5 85.7 40.7 81.95 40.85 79.4 40.7 Q78.05 40.45 76.85 40.15 L76.4 39.35 76.4 39.3 M86.25 36.8 L86.45 36.2 Q87.8 35.65 89.35 35.45 93.0 35.55 93.85 36.25 94.3 36.6 94.35 37.35 L94.35 37.8 94.15 38.35 93.85 38.6 93.4 38.75 90.4 38.65 88.35 38.25 Q87.2 37.85 86.5 37.45 L86.2 36.75 M100.45 30.05 Q100.45 27.35 103.9 27.15 L108.1 27.55 109.6 28.75 Q109.2 29.25 107.0 30.3 L104.85 31.3 101.55 31.2 Q100.45 30.4 100.45 30.05 M118.65 23.1 Q120.95 22.8 121.95 23.15 L122.7 25.35 Q119.85 25.6 119.1 24.55 118.65 23.85 118.65 23.1 Z" fill="none" stroke="#000000" stroke-linecap="round" stroke-linejoin="round" stroke-opacity="0.0" stroke-width="1.0"/>
    </g>
    <g id="morphshape2" transform="matrix(1.0, 0.0, 0.0, 1.0, -37.6, -4.7)">
      <path d="M102.95 15.8 Q102.95 16.95 103.2 17.35 L104.0 17.9 Q106.25 17.2 107.8 16.65 108.5 16.15 107.45 13.1 105.05 13.3 104.0 13.95 102.95 14.55 102.95 15.8 M90.8 20.7 Q90.8 21.75 91.4 22.35 L94.45 22.55 Q94.9 21.55 94.65 19.45 L90.9 19.35 90.8 20.7 M89.3 11.2 Q89.3 12.25 89.7 13.15 L95.65 13.15 Q96.7 12.1 96.7 8.6 92.0 8.15 90.35 9.0 89.3 9.6 89.3 11.2 M81.0 21.15 Q81.05 22.1 81.8 23.95 82.45 24.4 84.0 24.55 L84.8 23.35 Q85.3 22.65 84.6 20.85 L81.0 21.15 M77.85 8.65 Q77.45 10.55 78.25 12.05 79.25 13.8 81.5 13.8 82.65 13.8 83.85 12.05 83.0 9.65 81.35 9.0 L77.85 8.65 M66.0 12.9 L66.05 14.35 66.4 14.9 71.85 15.65 75.15 16.05 Q76.9 16.05 75.8 13.6 75.8 10.55 70.9 10.4 66.0 10.3 66.0 12.9 M56.0 14.0 L56.05 14.85 56.15 15.05 Q56.35 15.4 56.65 15.45 57.2 15.6 58.25 15.75 L60.5 15.2 Q60.75 14.0 60.65 12.3 60.15 11.15 59.7 10.3 58.75 9.95 57.75 10.1 56.0 11.1 56.0 14.0 M49.2 18.95 L49.2 19.0 49.3 20.05 49.6 20.4 Q50.0 20.5 50.45 20.55 L52.6 20.65 Q54.45 20.45 56.0 20.4 56.2 19.15 55.65 16.5 54.85 15.0 54.1 14.15 52.85 13.2 51.5 13.65 49.25 14.75 49.25 18.9 M38.55 11.25 L39.65 13.35 Q41.35 15.5 44.35 15.5 48.25 15.5 48.25 12.3 48.25 9.3 43.4 8.5 38.55 7.65 38.55 11.25" fill="#bef0d8" fill-opacity="0.7058824" fill-rule="evenodd" stroke="none"/>
      <path d="M38.55 11.25 Q38.55 7.65 43.4 8.5 48.25 9.3 48.25 12.3 48.25 15.5 44.35 15.5 41.35 15.5 39.65 13.35 L38.55 11.25 M49.25 18.9 Q49.25 14.75 51.5 13.65 52.85 13.2 54.1 14.15 54.85 15.0 55.65 16.5 56.2 19.15 56.0 20.4 54.45 20.45 52.6 20.65 L50.45 20.55 Q50.0 20.5 49.6 20.4 L49.3 20.05 49.2 19.0 49.2 18.95 M56.0 14.0 Q56.0 11.1 57.75 10.1 58.75 9.95 59.7 10.3 60.15 11.15 60.65 12.3 60.75 14.0 60.5 15.2 L58.25 15.75 Q57.2 15.6 56.65 15.45 56.35 15.4 56.15 15.05 L56.05 14.85 56.0 14.0 M66.0 12.9 Q66.0 10.3 70.9 10.4 75.8 10.55 75.8 13.6 76.9 16.05 75.15 16.05 L71.85 15.65 66.4 14.9 66.05 14.35 66.0 12.9 M77.85 8.65 L81.35 9.0 Q83.0 9.65 83.85 12.05 82.65 13.8 81.5 13.8 79.25 13.8 78.25 12.05 77.45 10.55 77.85 8.65 M81.0 21.15 L84.6 20.85 Q85.3 22.65 84.8 23.35 L84.0 24.55 Q82.45 24.4 81.8 23.95 81.05 22.1 81.0 21.15 M89.3 11.2 Q89.3 9.6 90.35 9.0 92.0 8.15 96.7 8.6 96.7 12.1 95.65 13.15 L89.7 13.15 Q89.3 12.25 89.3 11.2 M90.8 20.7 L90.9 19.35 94.65 19.45 Q94.9 21.55 94.45 22.55 L91.4 22.35 Q90.8 21.75 90.8 20.7 M102.95 15.8 Q102.95 14.55 104.0 13.95 105.05 13.3 107.45 13.1 108.5 16.15 107.8 16.65 106.25 17.2 104.0 17.9 L103.2 17.35 Q102.95 16.95 102.95 15.8 Z" fill="none" stroke="#000000" stroke-linecap="round" stroke-linejoin="round" stroke-opacity="0.0" stroke-width="1.0"/>
    </g>
    <g id="morphshape3" transform="matrix(1.0, 0.0, 0.0, 1.0, -32.35, -6.65)">
      <path d="M94.75 8.7 Q94.75 9.85 94.9 10.25 L95.35 11.0 97.35 11.0 97.85 10.5 98.0 9.3 97.75 7.8 Q97.45 7.35 94.9 7.3 94.75 6.95 94.75 8.7 M69.3 12.5 Q69.05 12.85 69.6 13.75 70.1 14.15 70.75 14.5 L73.5 14.85 Q74.0 14.4 74.0 13.7 73.8 13.25 69.85 12.05 L69.3 12.5 M66.15 31.8 L66.45 33.75 Q66.65 34.8 67.1 35.65 L70.6 35.65 Q70.85 35.4 71.1 35.2 L70.7 32.1 67.15 31.55 Q66.35 31.5 66.15 31.8 M41.4 13.6 L41.6 14.95 41.95 15.45 43.5 15.5 Q44.55 15.5 45.15 15.05 45.35 14.9 45.35 13.15 45.35 12.0 45.0 11.45 L44.3 10.8 41.5 11.9 41.4 13.6 M33.8 29.2 L34.05 30.2 Q34.4 31.0 34.85 31.3 38.95 30.75 38.95 28.35 38.95 27.25 38.6 26.95 L37.75 26.6 36.0 26.85 34.15 27.0 33.8 29.2" fill="#ffffff" fill-opacity="0.7058824" fill-rule="evenodd" stroke="none"/>
      <path d="M33.8 29.2 L34.15 27.0 36.0 26.85 37.75 26.6 38.6 26.95 Q38.95 27.25 38.95 28.35 38.95 30.75 34.85 31.3 34.4 31.0 34.05 30.2 L33.8 29.2 M41.4 13.6 L41.5 11.9 44.3 10.8 45.0 11.45 Q45.35 12.0 45.35 13.15 45.35 14.9 45.15 15.05 44.55 15.5 43.5 15.5 L41.95 15.45 41.6 14.95 41.4 13.6 M66.15 31.8 Q66.35 31.5 67.15 31.55 L70.7 32.1 71.1 35.2 Q70.85 35.4 70.6 35.65 L67.1 35.65 Q66.65 34.8 66.45 33.75 L66.15 31.8 M69.3 12.5 L69.85 12.05 Q73.8 13.25 74.0 13.7 74.0 14.4 73.5 14.85 L70.75 14.5 Q70.1 14.15 69.6 13.75 69.05 12.85 69.3 12.5 M94.75 8.7 Q94.75 6.95 94.9 7.3 97.45 7.35 97.75 7.8 L98.0 9.3 97.85 10.5 97.35 11.0 95.35 11.0 94.9 10.25 Q94.75 9.85 94.75 8.7 Z" fill="none" stroke="#000000" stroke-linecap="round" stroke-linejoin="round" stroke-opacity="0.0" stroke-width="1.0"/>
    </g>
  </defs>
</svg>
