<?xml version="1.0" encoding="UTF-8" standalone="no"?>
<svg xmlns:xlink="http://www.w3.org/1999/xlink" height="47.45px" width="141.0px" xmlns="http://www.w3.org/2000/svg">
  <g transform="matrix(1.0, 0.0, 0.0, 1.0, -4.35, -2.9)">
    <use data-characterId="3192" height="47.45" transform="matrix(1.0, 0.0, 0.0, 1.0, 4.35, 2.9)" width="141.0" xlink:href="#morphshape0"/>
    <use data-characterId="3193" height="37.5" transform="matrix(1.0, 0.0, 0.0, 1.0, 17.5, 9.15)" width="116.05" xlink:href="#morphshape1"/>
    <use data-characterId="3194" height="21.8" transform="matrix(1.0, 0.0, 0.0, 1.0, 37.6, 4.7)" width="75.1" xlink:href="#morphshape2"/>
    <use data-characterId="3195" height="35.65" transform="matrix(1.0, 0.0, 0.0, 1.0, 32.35, 6.65)" width="66.65" xlink:href="#morphshape3"/>
  </g>
  <defs>
    <g id="morphshape0" transform="matrix(1.0, 0.0, 0.0, 1.0, -4.35, -2.9)">
      <path d="M4.7 17.35 Q4.3 18.9 12.1 20.2 19.95 21.4 29.15 21.95 39.75 22.65 26.7 23.95 13.45 24.7 22.35 26.4 31.5 27.9 25.4 28.6 19.25 29.2 15.15 30.75 11.15 32.55 15.2 33.05 19.1 33.5 20.8 33.95 23.1 34.4 25.3 34.85 L35.0 35.65 Q29.7 37.3 31.35 38.0 21.75 40.6 37.95 40.25 40.65 40.7 51.3 39.45 42.9 42.25 44.1 43.4 45.45 44.6 52.55 45.0 60.2 45.3 68.2 46.1 77.35 46.8 71.4 48.55 65.1 50.3 68.15 49.85 73.0 49.4 77.3 49.35 L91.55 48.8 Q99.6 48.4 102.6 47.4 106.9 46.55 106.35 45.05 105.15 44.05 107.95 41.5 110.85 40.4 103.85 38.35 122.05 37.4 123.25 35.6 125.7 34.2 120.8 33.85 121.35 33.2 119.1 32.75 126.5 31.35 126.25 30.45 126.3 29.65 122.6 28.8 119.2 28.1 116.05 27.65 112.95 27.2 124.6 25.8 136.25 24.4 139.9 22.65 143.5 20.85 135.3 19.6 128.45 18.35 124.1 18.4 L122.4 18.45 122.1 18.35 Q123.2 17.6 121.95 16.9 131.4 15.7 126.1 14.7 121.75 13.7 116.0 13.55 116.4 12.15 113.65 11.35 104.2 7.2 92.45 5.05 82.85 2.9 58.5 3.9 39.45 4.8 22.75 8.25 5.75 11.0 8.45 12.0 11.15 12.95 23.4 13.8 35.6 14.6 30.15 14.85 24.7 14.95 19.35 15.1 L11.1 15.55 4.85 16.3 Q4.55 16.8 4.8 17.3" fill="#96e0bc" fill-opacity="0.7058824" fill-rule="evenodd" stroke="none"/>
      <path d="M4.8 17.3 Q4.55 16.8 4.85 16.3 L11.1 15.55 19.35 15.1 Q24.7 14.95 30.15 14.85 35.6 14.6 23.4 13.8 11.15 12.95 8.45 12.0 5.75 11.0 22.75 8.25 39.45 4.8 58.5 3.9 82.85 2.9 92.45 5.05 104.2 7.2 113.65 11.35 116.4 12.15 116.0 13.55 121.75 13.7 126.1 14.7 131.4 15.7 121.95 16.9 123.2 17.6 122.1 18.35 L122.4 18.45 124.1 18.4 Q128.45 18.35 135.3 19.6 143.5 20.85 139.9 22.65 136.25 24.4 124.6 25.8 112.95 27.2 116.05 27.65 119.2 28.1 122.6 28.8 126.3 29.65 126.25 30.45 126.5 31.35 119.1 32.75 121.35 33.2 120.8 33.85 125.7 34.2 123.25 35.6 122.05 37.4 103.85 38.35 110.85 40.4 107.95 41.5 105.15 44.05 106.35 45.05 106.9 46.55 102.6 47.4 99.6 48.4 91.55 48.8 L77.3 49.35 Q73.0 49.4 68.15 49.85 65.1 50.3 71.4 48.55 77.35 46.8 68.2 46.1 60.2 45.3 52.55 45.0 45.45 44.6 44.1 43.4 42.9 42.25 51.3 39.45 40.65 40.7 37.95 40.25 21.75 40.6 31.35 38.0 29.7 37.3 35.0 35.65 L25.3 34.85 Q23.1 34.4 20.8 33.95 19.1 33.5 15.2 33.05 11.15 32.55 15.15 30.75 19.25 29.2 25.4 28.6 31.5 27.9 22.35 26.4 13.45 24.7 26.7 23.95 39.75 22.65 29.15 21.95 19.95 21.4 12.1 20.2 4.3 18.9 4.7 17.35" fill="none" stroke="#000000" stroke-linecap="round" stroke-linejoin="round" stroke-opacity="0.0" stroke-width="1.0"/>
    </g>
    <g id="morphshape1" transform="matrix(1.0, 0.0, 0.0, 1.0, -17.5, -9.15)">
      <path d="M125.0 22.25 Q125.0 23.0 125.45 23.7 126.2 24.75 129.05 24.5 L128.3 22.3 Q127.3 21.95 125.0 22.25 M101.95 32.4 Q101.95 32.75 103.05 33.55 L106.35 33.65 108.5 32.65 Q110.7 31.6 111.1 31.1 L109.6 29.9 105.4 29.5 Q101.95 29.7 101.95 32.4 M88.6 41.65 L88.6 41.7 89.05 42.5 Q90.2 42.8 91.55 43.1 L94.05 43.3 97.75 43.2 98.4 43.0 98.8 42.65 98.95 41.9 98.9 41.4 Q98.75 40.65 98.1 40.2 97.0 39.5 92.4 39.6 90.45 39.9 88.95 41.05 L88.5 41.8 M78.1 34.6 L78.4 35.3 Q79.15 35.7 80.3 36.05 L82.4 36.4 85.45 36.45 85.95 36.3 86.25 36.0 86.45 35.45 86.45 35.0 Q86.4 34.25 85.9 33.9 85.05 33.2 81.3 33.1 79.75 33.3 78.4 33.9 L78.2 34.5 M61.65 38.3 L62.2 39.2 68.55 39.6 Q72.6 39.6 75.45 37.35 75.45 35.45 69.4 35.3 63.15 35.2 61.65 38.3 M56.55 41.2 Q56.65 41.65 56.8 41.95 L59.85 41.95 Q60.3 41.7 60.55 40.1 L57.05 40.3 Q56.55 40.65 56.55 41.2 M49.0 34.8 L50.2 36.0 Q52.25 37.15 56.55 37.15 58.1 37.15 59.85 35.0 59.85 32.05 54.45 32.1 49.0 32.15 49.0 34.8 M30.4 29.7 Q30.55 30.25 33.3 31.4 36.8 32.15 40.4 32.2 L44.2 31.5 Q45.25 30.75 45.65 28.7 45.15 25.85 37.55 26.3 29.9 26.7 30.4 29.7 M21.1 13.05 Q21.1 13.5 21.55 14.2 L22.5 15.15 29.35 15.25 Q30.55 14.35 30.55 13.8 30.55 11.95 25.85 11.85 21.1 11.8 21.1 13.05" fill="#bef0d8" fill-opacity="0.7058824" fill-rule="evenodd" stroke="none"/>
      <path d="M21.1 13.05 Q21.1 11.8 25.85 11.85 30.55 11.95 30.55 13.8 30.55 14.35 29.35 15.25 L22.5 15.15 21.55 14.2 Q21.1 13.5 21.1 13.05 M30.4 29.7 Q29.9 26.7 37.55 26.3 45.15 25.85 45.65 28.7 45.25 30.75 44.2 31.5 L40.4 32.2 Q36.8 32.15 33.3 31.4 30.55 30.25 30.4 29.7 M49.0 34.8 Q49.0 32.15 54.45 32.1 59.85 32.05 59.85 35.0 58.1 37.15 56.55 37.15 52.25 37.15 50.2 36.0 L49.0 34.8 M56.55 41.2 Q56.55 40.65 57.05 40.3 L60.55 40.1 Q60.3 41.7 59.85 41.95 L56.8 41.95 Q56.65 41.65 56.55 41.2 M61.65 38.3 Q63.15 35.2 69.4 35.3 75.45 35.45 75.45 37.35 72.6 39.6 68.55 39.6 L62.2 39.2 61.65 38.3 M78.2 34.5 L78.4 33.9 Q79.75 33.3 81.3 33.1 85.05 33.2 85.9 33.9 86.4 34.25 86.45 35.0 L86.45 35.45 86.25 36.0 85.95 36.3 85.45 36.45 82.4 36.4 80.3 36.05 Q79.15 35.7 78.4 35.3 L78.1 34.6 M88.5 41.8 L88.95 41.05 Q90.45 39.9 92.4 39.6 97.0 39.5 98.1 40.2 98.75 40.65 98.9 41.4 L98.95 41.9 98.8 42.65 98.4 43.0 97.75 43.2 94.05 43.3 91.55 43.1 Q90.2 42.8 89.05 42.5 L88.6 41.7 88.6 41.65 M101.95 32.4 Q101.95 29.7 105.4 29.5 L109.6 29.9 111.1 31.1 Q110.7 31.6 108.5 32.65 L106.35 33.65 103.05 33.55 Q101.95 32.75 101.95 32.4 M125.0 22.25 Q127.3 21.95 128.3 22.3 L129.05 24.5 Q126.2 24.75 125.45 23.7 125.0 23.0 125.0 22.25 Z" fill="none" stroke="#000000" stroke-linecap="round" stroke-linejoin="round" stroke-opacity="0.0" stroke-width="1.0"/>
    </g>
    <g id="morphshape2" transform="matrix(1.0, 0.0, 0.0, 1.0, -37.6, -4.7)">
      <path d="M105.65 17.8 Q105.65 18.95 105.9 19.35 L106.7 19.9 Q109.45 19.15 110.5 18.65 111.2 18.15 110.15 15.1 107.75 15.3 106.7 15.95 105.65 16.55 105.65 17.8 M92.8 18.25 Q92.8 19.3 93.4 19.9 L96.45 20.1 Q96.9 19.1 96.65 17.0 L92.9 16.9 92.8 18.25 M91.5 9.9 Q91.5 10.95 91.9 11.85 L97.85 11.85 Q98.9 10.8 98.9 7.3 94.2 6.85 92.55 7.7 91.5 8.3 91.5 9.9 M83.2 18.1 Q83.25 19.05 84.0 20.9 84.65 21.35 86.2 21.5 L87.0 20.3 Q87.5 19.6 86.8 17.8 L83.2 18.1 M76.4 12.4 Q76.0 14.3 76.8 15.8 77.8 17.55 80.05 17.55 81.2 17.55 82.4 15.8 81.55 13.4 79.9 12.75 L76.4 12.4 M64.75 10.7 L64.8 12.15 65.15 12.7 70.6 13.45 73.9 13.85 Q75.65 13.85 74.55 11.4 74.55 8.35 69.65 8.2 64.75 8.1 64.75 10.7 M56.1 19.4 L56.1 19.45 56.2 20.45 56.5 20.8 Q56.9 20.95 57.35 21.0 58.3 21.05 59.45 21.1 L62.8 20.85 Q63.0 19.6 62.45 17.0 61.65 15.5 60.9 14.65 59.7 13.75 58.35 14.15 56.1 15.25 56.1 19.35 M51.2 12.35 L51.25 13.2 51.35 13.4 Q51.55 13.7 51.85 13.75 L53.45 14.05 Q55.0 13.6 55.8 13.55 56.05 12.35 55.95 10.6 55.45 9.45 55.0 8.6 54.0 8.2 53.0 8.4 51.25 9.4 51.25 12.35 M40.0 12.9 L41.1 15.0 Q42.8 17.15 45.8 17.15 49.7 17.15 49.7 13.95 49.7 10.95 44.85 10.15 40.0 9.3 40.0 12.9" fill="#bef0d8" fill-opacity="0.7058824" fill-rule="evenodd" stroke="none"/>
      <path d="M40.0 12.9 Q40.0 9.3 44.85 10.15 49.7 10.95 49.7 13.95 49.7 17.15 45.8 17.15 42.8 17.15 41.1 15.0 L40.0 12.9 M51.25 12.35 Q51.25 9.4 53.0 8.4 54.0 8.2 55.0 8.6 55.45 9.45 55.95 10.6 56.05 12.35 55.8 13.55 55.0 13.6 53.45 14.05 L51.85 13.75 Q51.55 13.7 51.35 13.4 L51.25 13.2 51.2 12.35 M56.1 19.35 Q56.1 15.25 58.35 14.15 59.7 13.75 60.9 14.65 61.65 15.5 62.45 17.0 63.0 19.6 62.8 20.85 L59.45 21.1 Q58.3 21.05 57.35 21.0 56.9 20.95 56.5 20.8 L56.2 20.45 56.1 19.45 56.1 19.4 M64.75 10.7 Q64.75 8.1 69.65 8.2 74.55 8.35 74.55 11.4 75.65 13.85 73.9 13.85 L70.6 13.45 65.15 12.7 64.8 12.15 64.75 10.7 M76.4 12.4 L79.9 12.75 Q81.55 13.4 82.4 15.8 81.2 17.55 80.05 17.55 77.8 17.55 76.8 15.8 76.0 14.3 76.4 12.4 M83.2 18.1 L86.8 17.8 Q87.5 19.6 87.0 20.3 L86.2 21.5 Q84.65 21.35 84.0 20.9 83.25 19.05 83.2 18.1 M91.5 9.9 Q91.5 8.3 92.55 7.7 94.2 6.85 98.9 7.3 98.9 10.8 97.85 11.85 L91.9 11.85 Q91.5 10.95 91.5 9.9 M92.8 18.25 L92.9 16.9 96.65 17.0 Q96.9 19.1 96.45 20.1 L93.4 19.9 Q92.8 19.3 92.8 18.25 M105.65 17.8 Q105.65 16.55 106.7 15.95 107.75 15.3 110.15 15.1 111.2 18.15 110.5 18.65 109.45 19.15 106.7 19.9 L105.9 19.35 Q105.65 18.95 105.65 17.8 Z" fill="none" stroke="#000000" stroke-linecap="round" stroke-linejoin="round" stroke-opacity="0.0" stroke-width="1.0"/>
    </g>
    <g id="morphshape3" transform="matrix(1.0, 0.0, 0.0, 1.0, -32.35, -6.65)">
      <path d="M94.0 8.95 Q94.0 10.1 94.15 10.5 L94.6 11.25 96.6 11.25 97.1 10.75 97.25 9.55 97.0 8.05 Q96.7 7.6 94.15 7.55 94.0 7.2 94.0 8.95 M68.75 10.55 Q68.55 10.95 69.2 11.75 69.6 12.1 70.4 12.3 71.75 12.4 73.1 12.25 73.5 11.75 73.4 11.05 72.6 10.85 69.2 10.1 L68.75 10.65 M65.9 35.3 L66.2 37.25 Q66.4 38.3 66.85 39.15 L70.35 39.15 Q70.55 38.85 70.85 38.7 L70.45 35.6 66.9 35.05 Q66.1 35.0 65.9 35.3 M43.3 14.65 L43.5 16.0 43.85 16.5 45.4 16.55 Q46.45 16.55 47.05 16.1 47.25 15.95 47.25 14.2 47.25 13.05 46.9 12.5 L46.2 11.85 43.4 12.95 43.3 14.65 M36.0 29.2 L36.25 30.2 Q36.6 31.0 37.05 31.3 41.15 30.75 41.15 28.35 41.15 27.25 40.8 26.95 L39.95 26.6 38.2 26.85 36.35 27.0 36.0 29.2" fill="#ffffff" fill-opacity="0.7058824" fill-rule="evenodd" stroke="none"/>
      <path d="M36.0 29.2 L36.35 27.0 38.2 26.85 39.95 26.6 40.8 26.95 Q41.15 27.25 41.15 28.35 41.15 30.75 37.05 31.3 36.6 31.0 36.25 30.2 L36.0 29.2 M43.3 14.65 L43.4 12.95 46.2 11.85 46.9 12.5 Q47.25 13.05 47.25 14.2 47.25 15.95 47.05 16.1 46.45 16.55 45.4 16.55 L43.85 16.5 43.5 16.0 43.3 14.65 M65.9 35.3 Q66.1 35.0 66.9 35.05 L70.45 35.6 70.85 38.7 Q70.55 38.85 70.35 39.15 L66.85 39.15 Q66.4 38.3 66.2 37.25 L65.9 35.3 M68.75 10.65 L69.2 10.1 Q72.6 10.85 73.4 11.05 73.5 11.75 73.1 12.25 71.75 12.4 70.4 12.3 69.6 12.1 69.2 11.75 68.55 10.95 68.75 10.55 M94.0 8.95 Q94.0 7.2 94.15 7.55 96.7 7.6 97.0 8.05 L97.25 9.55 97.1 10.75 96.6 11.25 94.6 11.25 94.15 10.5 Q94.0 10.1 94.0 8.95 Z" fill="none" stroke="#000000" stroke-linecap="round" stroke-linejoin="round" stroke-opacity="0.0" stroke-width="1.0"/>
    </g>
  </defs>
</svg>
