<?xml version="1.0" encoding="UTF-8" standalone="no"?>
<svg xmlns:xlink="http://www.w3.org/1999/xlink" height="47.45px" width="141.0px" xmlns="http://www.w3.org/2000/svg">
  <g transform="matrix(1.0, 0.0, 0.0, 1.0, -4.35, -2.9)">
    <use data-characterId="3188" height="47.45" transform="matrix(1.0, 0.0, 0.0, 1.0, 4.35, 2.9)" width="141.0" xlink:href="#morphshape0"/>
    <use data-characterId="3189" height="37.5" transform="matrix(1.0, 0.0, 0.0, 1.0, 17.5, 9.15)" width="116.05" xlink:href="#morphshape1"/>
    <use data-characterId="3190" height="21.8" transform="matrix(1.0, 0.0, 0.0, 1.0, 37.6, 4.7)" width="75.1" xlink:href="#morphshape2"/>
    <use data-characterId="3191" height="35.65" transform="matrix(1.0, 0.0, 0.0, 1.0, 32.35, 6.65)" width="66.65" xlink:href="#morphshape3"/>
  </g>
  <defs>
    <g id="morphshape0" transform="matrix(1.0, 0.0, 0.0, 1.0, -4.35, -2.9)">
      <path d="M4.7 17.95 Q4.6 19.5 10.95 20.65 17.35 21.65 24.75 22.2 34.4 22.95 25.2 24.6 15.65 25.35 21.55 26.95 27.85 28.2 23.35 29.0 18.85 29.65 16.0 31.05 13.35 32.85 16.7 33.4 19.8 33.85 21.6 34.2 24.4 34.6 26.6 35.2 L33.6 36.1 Q29.65 37.9 32.6 38.7 26.8 40.65 39.7 40.4 41.4 41.05 49.15 40.45 43.05 42.75 44.95 44.0 47.05 45.3 53.35 45.6 59.45 45.8 66.15 46.85 73.7 47.85 70.15 49.1 66.1 50.35 69.7 49.6 74.65 48.8 78.75 48.75 L91.1 48.1 Q97.85 47.7 100.9 46.85 106.1 46.3 106.75 44.4 106.3 43.35 108.5 41.1 112.25 40.1 107.6 38.3 121.85 36.85 121.5 35.15 123.2 34.1 119.55 33.8 122.75 32.85 121.3 32.3 126.85 31.0 125.95 30.1 125.5 29.35 122.4 28.6 119.8 28.0 119.25 27.35 118.7 26.7 127.55 25.05 136.4 23.4 138.3 21.75 140.1 20.05 132.55 19.15 127.25 18.25 123.75 18.3 L122.5 18.35 122.1 18.2 Q124.1 17.1 122.25 16.1 128.2 15.15 123.45 14.35 120.3 13.6 116.1 13.5 116.8 11.3 112.3 9.95 102.2 5.95 86.45 4.4 74.2 2.85 51.15 4.45 32.1 5.95 20.25 9.25 8.0 11.4 10.05 12.3 12.1 13.15 21.1 13.95 30.0 14.65 25.85 14.9 21.8 15.0 17.85 15.15 L9.4 15.75 4.85 16.3 Q4.4 17.1 4.8 17.9" fill="#96e0bc" fill-opacity="0.7058824" fill-rule="evenodd" stroke="none"/>
      <path d="M4.8 17.9 Q4.4 17.1 4.85 16.3 L9.4 15.75 17.85 15.15 Q21.8 15.0 25.85 14.9 30.0 14.65 21.1 13.95 12.1 13.15 10.05 12.3 8.0 11.4 20.25 9.25 32.1 5.95 51.15 4.45 74.2 2.85 86.45 4.4 102.2 5.95 112.3 9.95 116.8 11.3 116.1 13.5 120.3 13.6 123.45 14.35 128.2 15.15 122.25 16.1 124.1 17.1 122.1 18.2 L122.5 18.35 123.75 18.3 Q127.25 18.25 132.55 19.15 140.1 20.05 138.3 21.75 136.4 23.4 127.55 25.05 118.7 26.7 119.25 27.35 119.8 28.0 122.4 28.6 125.5 29.35 125.95 30.1 126.85 31.0 121.3 32.3 122.75 32.85 119.55 33.8 123.2 34.1 121.5 35.15 121.85 36.85 107.6 38.3 112.25 40.1 108.5 41.1 106.3 43.35 106.75 44.4 106.1 46.3 100.9 46.85 97.85 47.7 91.1 48.1 L78.75 48.75 Q74.65 48.8 69.7 49.6 66.1 50.35 70.15 49.1 73.7 47.85 66.15 46.85 59.45 45.8 53.35 45.6 47.05 45.3 44.95 44.0 43.05 42.75 49.15 40.45 41.4 41.05 39.7 40.4 26.8 40.65 32.6 38.7 29.65 37.9 33.6 36.1 L26.6 35.2 Q24.4 34.6 21.6 34.2 19.8 33.85 16.7 33.4 13.35 32.85 16.0 31.05 18.85 29.65 23.35 29.0 27.85 28.2 21.55 26.95 15.65 25.35 25.2 24.6 34.4 22.95 24.75 22.2 17.35 21.65 10.95 20.65 4.6 19.5 4.7 17.95" fill="none" stroke="#000000" stroke-linecap="round" stroke-linejoin="round" stroke-opacity="0.0" stroke-width="1.0"/>
    </g>
    <g id="morphshape1" transform="matrix(1.0, 0.0, 0.0, 1.0, -17.5, -9.15)">
      <path d="M122.1 22.65 Q122.1 23.4 122.55 24.1 123.3 25.15 126.15 24.9 L125.4 22.7 Q124.4 22.35 122.1 22.65 M101.3 31.3 Q101.3 31.65 102.4 32.45 L105.7 32.55 107.85 31.55 Q110.05 30.5 110.45 30.0 L108.95 28.8 104.75 28.4 Q101.3 28.6 101.3 31.3 M87.6 39.65 L88.0 40.4 Q88.95 40.75 90.2 41.05 L92.5 41.3 95.9 41.25 96.5 41.05 96.85 40.7 97.0 40.05 96.95 39.55 Q96.85 38.8 96.25 38.4 95.25 37.7 91.05 37.7 89.3 37.95 87.85 38.85 L87.5 39.55 M77.25 36.55 L77.25 36.6 77.6 37.3 Q78.55 37.65 79.8 38.0 L82.1 38.3 85.45 38.3 86.0 38.15 86.35 37.85 86.55 37.2 86.55 36.75 Q86.45 36.0 85.9 35.6 84.95 34.9 80.8 34.9 79.05 35.15 77.65 36.0 L77.35 36.65 M61.9 36.5 L62.45 37.4 68.8 37.8 Q72.85 37.8 75.7 35.55 75.7 33.65 69.65 33.5 63.4 33.4 61.9 36.5 M58.0 41.5 Q58.1 41.95 58.25 42.25 L61.3 42.25 Q61.75 42.0 62.0 40.4 L58.5 40.6 Q58.0 40.95 58.0 41.5 M49.0 35.45 L50.2 36.65 Q52.25 37.8 56.55 37.8 58.1 37.8 59.85 35.65 59.85 32.7 54.45 32.75 49.0 32.8 49.0 35.45 M29.35 29.35 Q29.45 29.9 32.15 31.2 35.55 32.35 39.15 32.35 L42.95 31.85 Q44.05 31.15 44.55 29.1 44.15 26.25 36.55 26.3 28.9 26.3 29.3 29.3 M20.1 14.75 Q20.1 15.2 20.55 15.9 L21.5 16.85 28.35 16.95 Q29.55 16.05 29.55 15.5 29.55 13.65 24.85 13.55 20.1 13.5 20.1 14.75" fill="#bef0d8" fill-opacity="0.7058824" fill-rule="evenodd" stroke="none"/>
      <path d="M20.1 14.75 Q20.1 13.5 24.85 13.55 29.55 13.65 29.55 15.5 29.55 16.05 28.35 16.95 L21.5 16.85 20.55 15.9 Q20.1 15.2 20.1 14.75 M29.3 29.3 Q28.9 26.3 36.55 26.3 44.15 26.25 44.55 29.1 44.05 31.15 42.95 31.85 L39.15 32.35 Q35.55 32.35 32.15 31.2 29.45 29.9 29.35 29.35 M49.0 35.45 Q49.0 32.8 54.45 32.75 59.85 32.7 59.85 35.65 58.1 37.8 56.55 37.8 52.25 37.8 50.2 36.65 L49.0 35.45 M58.0 41.5 Q58.0 40.95 58.5 40.6 L62.0 40.4 Q61.75 42.0 61.3 42.25 L58.25 42.25 Q58.1 41.95 58.0 41.5 M61.9 36.5 Q63.4 33.4 69.65 33.5 75.7 33.65 75.7 35.55 72.85 37.8 68.8 37.8 L62.45 37.4 61.9 36.5 M77.35 36.65 L77.65 36.0 Q79.05 35.15 80.8 34.9 84.95 34.9 85.9 35.6 86.45 36.0 86.55 36.75 L86.55 37.2 86.35 37.85 86.0 38.15 85.45 38.3 82.1 38.3 79.8 38.0 Q78.55 37.65 77.6 37.3 L77.25 36.6 77.25 36.55 M87.5 39.55 L87.85 38.85 Q89.3 37.95 91.05 37.7 95.25 37.7 96.25 38.4 96.85 38.8 96.95 39.55 L97.0 40.05 96.85 40.7 96.5 41.05 95.9 41.25 92.5 41.3 90.2 41.05 Q88.95 40.75 88.0 40.4 L87.6 39.65 M101.3 31.3 Q101.3 28.6 104.75 28.4 L108.95 28.8 110.45 30.0 Q110.05 30.5 107.85 31.55 L105.7 32.55 102.4 32.45 Q101.3 31.65 101.3 31.3 M122.1 22.65 Q124.4 22.35 125.4 22.7 L126.15 24.9 Q123.3 25.15 122.55 24.1 122.1 23.4 122.1 22.65 Z" fill="none" stroke="#000000" stroke-linecap="round" stroke-linejoin="round" stroke-opacity="0.0" stroke-width="1.0"/>
    </g>
    <g id="morphshape2" transform="matrix(1.0, 0.0, 0.0, 1.0, -37.6, -4.7)">
      <path d="M104.4 16.9 Q104.4 18.05 104.65 18.45 L105.45 19.0 Q107.95 18.25 109.25 17.75 109.95 17.25 108.9 14.2 106.5 14.4 105.45 15.05 104.4 15.65 104.4 16.9 M91.9 19.35 Q91.9 20.4 92.5 21.0 L95.55 21.2 Q96.0 20.2 95.75 18.1 L92.0 18.0 91.9 19.35 M90.5 10.5 Q90.5 11.55 90.9 12.45 L96.85 12.45 Q97.9 11.4 97.9 7.9 93.2 7.45 91.55 8.3 90.5 8.9 90.5 10.5 M82.2 19.45 Q82.25 20.4 83.0 22.25 83.65 22.7 85.2 22.85 L86.0 21.65 Q86.5 20.95 85.8 19.15 L82.2 19.45 M77.05 10.7 Q76.65 12.6 77.45 14.1 78.45 15.85 80.7 15.85 81.85 15.85 83.05 14.1 82.2 11.7 80.55 11.05 L77.05 10.7 M65.35 11.7 L65.4 13.15 65.75 13.7 71.2 14.45 74.5 14.85 Q76.25 14.85 75.15 12.4 75.15 9.35 70.25 9.2 65.35 9.1 65.35 11.7 M56.05 16.95 L56.15 17.95 56.35 18.25 Q56.65 18.45 57.05 18.5 57.8 18.6 58.9 18.7 L61.75 18.35 Q61.95 17.1 61.6 14.9 60.95 13.55 60.35 12.7 59.25 12.05 58.05 12.35 56.05 13.4 56.05 16.95 M50.35 15.3 L50.35 15.4 50.4 16.25 50.6 16.5 Q50.9 16.75 51.25 16.8 L53.1 17.0 Q54.75 16.65 55.9 16.6 56.15 15.4 55.85 13.25 55.2 11.95 54.6 11.1 53.5 10.45 52.35 10.75 50.35 11.8 50.35 15.3 M39.35 12.15 L40.45 14.25 Q42.15 16.4 45.15 16.4 49.05 16.4 49.05 13.2 49.05 10.2 44.2 9.4 39.35 8.55 39.35 12.15" fill="#bef0d8" fill-opacity="0.7058824" fill-rule="evenodd" stroke="none"/>
      <path d="M39.35 12.15 Q39.35 8.55 44.2 9.4 49.05 10.2 49.05 13.2 49.05 16.4 45.15 16.4 42.15 16.4 40.45 14.25 L39.35 12.15 M50.35 15.3 Q50.35 11.8 52.35 10.75 53.5 10.45 54.6 11.1 55.2 11.95 55.85 13.25 56.15 15.4 55.9 16.6 54.75 16.65 53.1 17.0 L51.25 16.8 Q50.9 16.75 50.6 16.5 L50.4 16.25 50.35 15.4 50.35 15.3 M56.05 16.95 Q56.05 13.4 58.05 12.35 59.25 12.05 60.35 12.7 60.95 13.55 61.6 14.9 61.95 17.1 61.75 18.35 L58.9 18.7 Q57.8 18.6 57.05 18.5 56.65 18.45 56.35 18.25 L56.15 17.95 56.05 16.95 M65.35 11.7 Q65.35 9.1 70.25 9.2 75.15 9.35 75.15 12.4 76.25 14.85 74.5 14.85 L71.2 14.45 65.75 13.7 65.4 13.15 65.35 11.7 M77.05 10.7 L80.55 11.05 Q82.2 11.7 83.05 14.1 81.85 15.85 80.7 15.85 78.45 15.85 77.45 14.1 76.65 12.6 77.05 10.7 M82.2 19.45 L85.8 19.15 Q86.5 20.95 86.0 21.65 L85.2 22.85 Q83.65 22.7 83.0 22.25 82.25 20.4 82.2 19.45 M90.5 10.5 Q90.5 8.9 91.55 8.3 93.2 7.45 97.9 7.9 97.9 11.4 96.85 12.45 L90.9 12.45 Q90.5 11.55 90.5 10.5 M91.9 19.35 L92.0 18.0 95.75 18.1 Q96.0 20.2 95.55 21.2 L92.5 21.0 Q91.9 20.4 91.9 19.35 M104.4 16.9 Q104.4 15.65 105.45 15.05 106.5 14.4 108.9 14.2 109.95 17.25 109.25 17.75 107.95 18.25 105.45 19.0 L104.65 18.45 Q104.4 18.05 104.4 16.9 Z" fill="none" stroke="#000000" stroke-linecap="round" stroke-linejoin="round" stroke-opacity="0.0" stroke-width="1.0"/>
    </g>
    <g id="morphshape3" transform="matrix(1.0, 0.0, 0.0, 1.0, -32.35, -6.65)">
      <path d="M95.1 8.5 Q95.1 9.65 95.25 10.05 L95.7 10.8 97.7 10.8 98.2 10.3 98.35 9.1 98.1 7.6 Q97.8 7.15 95.25 7.1 95.1 6.75 95.1 8.5 M69.0 11.4 Q68.75 11.75 69.3 12.65 69.7 13.1 70.45 13.4 L73.2 13.75 Q73.7 13.3 73.7 12.6 73.5 12.15 69.55 10.95 L69.0 11.4 M66.0 33.9 L66.3 35.85 Q66.5 36.9 66.95 37.75 L70.45 37.75 Q70.65 37.45 70.95 37.3 L70.55 34.2 67.0 33.65 Q66.2 33.6 66.0 33.9 M42.45 14.15 L42.65 15.5 43.0 16.0 44.55 16.05 Q45.6 16.05 46.2 15.6 46.4 15.45 46.4 13.7 46.4 12.55 46.05 12.0 L45.35 11.35 42.55 12.45 42.45 14.15 M35.0 29.2 L35.25 30.2 Q35.6 31.0 36.05 31.3 40.15 30.75 40.15 28.35 40.15 27.25 39.8 26.95 L38.95 26.6 37.2 26.85 35.35 27.0 35.0 29.2" fill="#ffffff" fill-opacity="0.7058824" fill-rule="evenodd" stroke="none"/>
      <path d="M35.0 29.2 L35.35 27.0 37.2 26.85 38.95 26.6 39.8 26.95 Q40.15 27.25 40.15 28.35 40.15 30.75 36.05 31.3 35.6 31.0 35.25 30.2 L35.0 29.2 M42.45 14.15 L42.55 12.45 45.35 11.35 46.05 12.0 Q46.4 12.55 46.4 13.7 46.4 15.45 46.2 15.6 45.6 16.05 44.55 16.05 L43.0 16.0 42.65 15.5 42.45 14.15 M66.0 33.9 Q66.2 33.6 67.0 33.65 L70.55 34.2 70.95 37.3 Q70.65 37.45 70.45 37.75 L66.95 37.75 Q66.5 36.9 66.3 35.85 L66.0 33.9 M69.0 11.4 L69.55 10.95 Q73.5 12.15 73.7 12.6 73.7 13.3 73.2 13.75 L70.45 13.4 Q69.7 13.1 69.3 12.65 68.75 11.75 69.0 11.4 M95.1 8.5 Q95.1 6.75 95.25 7.1 97.8 7.15 98.1 7.6 L98.35 9.1 98.2 10.3 97.7 10.8 95.7 10.8 95.25 10.05 Q95.1 9.65 95.1 8.5 Z" fill="none" stroke="#000000" stroke-linecap="round" stroke-linejoin="round" stroke-opacity="0.0" stroke-width="1.0"/>
    </g>
  </defs>
</svg>
