<?xml version="1.0" encoding="UTF-8" standalone="no"?>
<svg xmlns:xlink="http://www.w3.org/1999/xlink" height="47.45px" width="141.0px" xmlns="http://www.w3.org/2000/svg">
  <g transform="matrix(1.0, 0.0, 0.0, 1.0, -4.35, -2.9)">
    <use data-characterId="3192" height="47.45" transform="matrix(1.0, 0.0, 0.0, 1.0, 4.35, 2.9)" width="141.0" xlink:href="#morphshape0"/>
    <use data-characterId="3193" height="37.5" transform="matrix(1.0, 0.0, 0.0, 1.0, 17.5, 9.15)" width="116.05" xlink:href="#morphshape1"/>
    <use data-characterId="3194" height="21.8" transform="matrix(1.0, 0.0, 0.0, 1.0, 37.6, 4.7)" width="75.1" xlink:href="#morphshape2"/>
    <use data-characterId="3195" height="35.65" transform="matrix(1.0, 0.0, 0.0, 1.0, 32.35, 6.65)" width="66.65" xlink:href="#morphshape3"/>
  </g>
  <defs>
    <g id="morphshape0" transform="matrix(1.0, 0.0, 0.0, 1.0, -4.35, -2.9)">
      <path d="M5.05 16.35 Q4.2 17.95 14.1 19.5 24.0 21.0 35.85 21.65 47.85 22.25 29.25 23.1 10.6 23.9 23.8 25.75 37.05 27.55 28.6 28.15 20.1 28.7 14.2 30.55 8.3 32.35 13.4 32.75 18.5 33.15 20.0 33.7 21.5 34.25 23.6 34.4 L37.25 34.95 Q30.05 36.4 29.85 37.0 14.8 40.6 35.8 40.05 39.95 40.2 54.85 38.1 43.1 41.6 43.3 42.6 43.5 43.6 51.8 44.15 61.7 44.55 71.6 45.0 83.1 45.35 73.65 47.8 64.15 50.25 66.4 50.2 71.05 50.2 75.6 50.25 L92.6 49.9 Q102.55 49.5 105.4 48.25 108.35 47.0 106.15 46.1 103.9 45.2 107.55 42.25 109.15 41.0 98.8 38.55 122.7 38.35 126.15 36.35 129.7 34.45 122.95 34.0 119.65 33.7 116.15 33.45 126.15 31.8 126.85 30.95 127.55 30.05 123.05 29.1 118.55 28.15 111.7 27.95 104.85 27.75 120.55 26.7 136.3 25.65 142.55 23.7 148.75 21.75 139.6 20.0 130.55 18.25 124.9 18.3 L122.6 18.4 122.45 18.4 Q122.2 18.2 121.8 18.0 136.35 16.45 130.25 15.15 124.2 13.8 116.15 13.6 116.2 13.45 116.0 13.4 107.4 8.95 101.45 5.9 95.6 2.85 69.35 2.95 50.2 3.0 26.4 6.75 2.55 10.4 6.15 11.6 9.75 12.75 26.75 13.75 43.75 14.7 36.4 14.9 28.95 15.0 21.6 15.1 L13.65 15.3 4.9 16.3 Q4.85 16.35 4.85 16.4" fill="#96e0bc" fill-opacity="0.7058824" fill-rule="evenodd" stroke="none"/>
      <path d="M4.85 16.4 Q4.85 16.35 4.9 16.3 L13.65 15.3 21.6 15.1 Q28.95 15.0 36.4 14.9 43.75 14.7 26.75 13.75 9.75 12.75 6.15 11.6 2.55 10.4 26.4 6.75 50.2 3.0 69.35 2.95 95.6 2.85 101.45 5.9 107.4 8.95 116.0 13.4 116.2 13.45 116.15 13.6 124.2 13.8 130.25 15.15 136.35 16.45 121.8 18.0 122.2 18.2 122.45 18.4 L122.6 18.4 124.9 18.3 Q130.55 18.25 139.6 20.0 148.75 21.75 142.55 23.7 136.3 25.65 120.55 26.7 104.85 27.75 111.7 27.95 118.55 28.15 123.05 29.1 127.55 30.05 126.85 30.95 126.15 31.8 116.15 33.45 119.65 33.7 122.95 34.0 129.7 34.45 126.15 36.35 122.7 38.35 98.8 38.55 109.15 41.0 107.55 42.25 103.9 45.2 106.15 46.1 108.35 47.0 105.4 48.25 102.55 49.5 92.6 49.9 L75.6 50.25 Q71.05 50.2 66.4 50.2 64.15 50.25 73.65 47.8 83.1 45.35 71.6 45.0 61.7 44.55 51.8 44.15 43.5 43.6 43.3 42.6 43.1 41.6 54.85 38.1 39.95 40.2 35.8 40.05 14.8 40.6 29.85 37.0 30.05 36.4 37.25 34.95 L23.6 34.4 Q21.5 34.25 20.0 33.7 18.5 33.15 13.4 32.75 8.3 32.35 14.2 30.55 20.1 28.7 28.6 28.15 37.05 27.55 23.8 25.75 10.6 23.9 29.25 23.1 47.85 22.25 35.85 21.65 24.0 21.0 14.1 19.5 4.2 17.95 5.05 16.35" fill="none" stroke="#000000" stroke-linecap="round" stroke-linejoin="round" stroke-opacity="0.0" stroke-width="1.0"/>
    </g>
    <g id="morphshape1" transform="matrix(1.0, 0.0, 0.0, 1.0, -17.5, -9.15)">
      <path d="M129.15 21.7 Q129.15 22.45 129.6 23.15 130.35 24.2 133.2 23.95 L132.45 21.75 Q131.45 21.4 129.15 21.7 M102.95 33.9 Q102.95 34.25 104.05 35.05 L107.35 35.15 109.5 34.15 Q111.7 33.1 112.1 32.6 L110.6 31.4 106.4 31.0 Q102.95 31.2 102.95 33.9 M90.1 45.05 L90.1 45.05 90.65 45.95 Q92.1 46.15 93.55 46.35 L96.35 46.4 100.55 46.15 101.35 45.9 101.85 45.45 102.0 44.6 101.95 44.1 Q101.75 43.3 100.95 42.8 99.65 42.05 94.4 42.25 92.2 42.6 90.6 44.15 L90.0 45.0 M79.35 31.3 L79.55 31.9 Q80.0 32.4 81.05 32.85 L82.85 33.35 85.4 33.55 85.75 33.45 85.95 33.25 86.15 32.8 86.15 32.35 Q86.15 31.65 85.8 31.35 85.15 30.7 82.05 30.5 80.75 30.65 79.5 30.85 L79.45 31.35 M61.3 40.95 L61.85 41.85 68.2 42.25 Q72.25 42.25 75.1 40.0 75.1 38.1 69.05 37.95 62.8 37.85 61.3 40.95 M54.5 40.75 Q54.65 41.15 54.75 41.5 L57.8 41.5 Q58.25 41.25 58.5 39.65 L55.0 39.85 Q54.5 40.2 54.5 40.75 M49.0 33.95 L50.2 35.15 Q52.25 36.3 56.55 36.3 58.1 36.3 59.85 34.15 59.85 31.2 54.45 31.25 49.0 31.3 49.0 33.95 M31.95 30.3 Q32.15 30.85 35.0 31.8 38.6 32.0 42.2 32.1 L45.95 31.1 Q46.95 30.25 47.2 28.15 46.45 25.35 38.85 26.35 31.2 27.3 31.95 30.25 M22.55 10.55 Q22.55 11.0 23.0 11.7 L23.95 12.65 30.8 12.75 Q32.0 11.85 32.0 11.3 32.0 9.45 27.3 9.35 22.55 9.3 22.55 10.55" fill="#bef0d8" fill-opacity="0.7058824" fill-rule="evenodd" stroke="none"/>
      <path d="M22.55 10.55 Q22.55 9.3 27.3 9.35 32.0 9.45 32.0 11.3 32.0 11.85 30.8 12.75 L23.95 12.65 23.0 11.7 Q22.55 11.0 22.55 10.55 M31.95 30.25 Q31.2 27.3 38.85 26.35 46.45 25.35 47.2 28.15 46.95 30.25 45.95 31.1 L42.2 32.1 Q38.6 32.0 35.0 31.8 32.15 30.85 31.95 30.3 M49.0 33.95 Q49.0 31.3 54.45 31.25 59.85 31.2 59.85 34.15 58.1 36.3 56.55 36.3 52.25 36.3 50.2 35.15 L49.0 33.95 M54.5 40.75 Q54.5 40.2 55.0 39.85 L58.5 39.65 Q58.25 41.25 57.8 41.5 L54.75 41.5 Q54.65 41.15 54.5 40.75 M61.3 40.95 Q62.8 37.85 69.05 37.95 75.1 38.1 75.1 40.0 72.25 42.25 68.2 42.25 L61.85 41.85 61.3 40.95 M79.45 31.35 L79.5 30.85 Q80.75 30.65 82.05 30.5 85.15 30.7 85.8 31.35 86.15 31.65 86.15 32.35 L86.15 32.8 85.95 33.25 85.75 33.45 85.4 33.55 82.85 33.35 81.05 32.85 Q80.0 32.4 79.55 31.9 L79.35 31.3 M90.0 45.0 L90.6 44.15 Q92.2 42.6 94.4 42.25 99.65 42.05 100.95 42.8 101.75 43.3 101.95 44.1 L102.0 44.6 101.85 45.45 101.35 45.9 100.55 46.15 96.35 46.4 93.55 46.35 Q92.1 46.15 90.65 45.95 L90.1 45.05 90.1 45.05 M102.95 33.9 Q102.95 31.2 106.4 31.0 L110.6 31.4 112.1 32.6 Q111.7 33.1 109.5 34.15 L107.35 35.15 104.05 35.05 Q102.95 34.25 102.95 33.9 M129.15 21.7 Q131.45 21.4 132.45 21.75 L133.2 23.95 Q130.35 24.2 129.6 23.15 129.15 22.45 129.15 21.7 Z" fill="none" stroke="#000000" stroke-linecap="round" stroke-linejoin="round" stroke-opacity="0.0" stroke-width="1.0"/>
    </g>
    <g id="morphshape2" transform="matrix(1.0, 0.0, 0.0, 1.0, -37.6, -4.7)">
      <path d="M107.4 19.15 Q107.4 20.3 107.65 20.7 L108.45 21.25 Q111.5 20.45 112.25 20.0 112.95 19.5 111.9 16.45 109.5 16.65 108.45 17.3 107.4 17.9 107.4 19.15 M94.15 16.65 Q94.15 17.7 94.75 18.3 L97.8 18.5 Q98.25 17.5 98.0 15.4 L94.25 15.3 94.15 16.65 M92.95 9.0 Q92.95 10.05 93.35 10.95 L99.3 10.95 Q100.35 9.9 100.35 6.4 95.65 5.95 94.0 6.8 92.95 7.4 92.95 9.0 M84.65 16.1 Q84.7 17.05 85.45 18.9 86.1 19.35 87.65 19.5 L88.45 18.3 Q88.95 17.6 88.25 15.8 L84.65 16.1 M75.5 14.9 Q75.1 16.8 75.9 18.3 76.9 20.05 79.15 20.05 80.3 20.05 81.5 18.3 80.65 15.9 79.0 15.25 L75.5 14.9 M63.9 9.25 L63.95 10.7 64.3 11.25 69.75 12.0 73.05 12.4 Q74.8 12.4 73.7 9.95 73.7 6.9 68.8 6.75 63.9 6.65 63.9 9.25 M56.15 22.85 L56.15 22.85 56.25 24.1 56.65 24.55 Q57.2 24.55 57.75 24.55 59.0 24.55 60.25 24.55 L64.3 24.55 Q64.5 23.25 63.7 20.05 62.7 18.3 61.75 17.45 60.35 16.2 58.75 16.8 56.2 18.0 56.2 22.9 M52.6 8.1 L52.65 8.8 52.65 8.9 Q52.7 9.35 52.9 9.45 L54.15 9.85 Q55.45 9.2 55.75 9.1 56.0 7.95 56.15 6.8 55.85 5.9 55.6 5.05 54.8 5.0 54.05 5.0 52.6 5.9 52.6 8.05 M40.95 14.0 L42.05 16.1 Q43.75 18.25 46.75 18.25 50.65 18.25 50.65 15.05 50.65 12.05 45.8 11.25 40.95 10.4 40.95 14.0" fill="#bef0d8" fill-opacity="0.7058824" fill-rule="evenodd" stroke="none"/>
      <path d="M40.95 14.0 Q40.95 10.4 45.8 11.25 50.65 12.05 50.65 15.05 50.65 18.25 46.75 18.25 43.75 18.25 42.05 16.1 L40.95 14.0 M52.6 8.05 Q52.6 5.9 54.05 5.0 54.8 5.0 55.6 5.05 55.85 5.9 56.15 6.8 56.0 7.95 55.75 9.1 55.45 9.2 54.15 9.85 L52.9 9.45 Q52.7 9.35 52.65 8.9 L52.65 8.8 52.6 8.1 M56.2 22.9 Q56.2 18.0 58.75 16.8 60.35 16.2 61.75 17.45 62.7 18.3 63.7 20.05 64.5 23.25 64.3 24.55 L60.25 24.55 Q59.0 24.55 57.75 24.55 57.2 24.55 56.65 24.55 L56.25 24.1 56.15 22.85 56.15 22.85 M63.9 9.25 Q63.9 6.65 68.8 6.75 73.7 6.9 73.7 9.95 74.8 12.4 73.05 12.4 L69.75 12.0 64.3 11.25 63.95 10.7 63.9 9.25 M75.5 14.9 L79.0 15.25 Q80.65 15.9 81.5 18.3 80.3 20.05 79.15 20.05 76.9 20.05 75.9 18.3 75.1 16.8 75.5 14.9 M84.65 16.1 L88.25 15.8 Q88.95 17.6 88.45 18.3 L87.65 19.5 Q86.1 19.35 85.45 18.9 84.7 17.05 84.65 16.1 M92.95 9.0 Q92.95 7.4 94.0 6.8 95.65 5.95 100.35 6.4 100.35 9.9 99.3 10.95 L93.35 10.95 Q92.95 10.05 92.95 9.0 M94.15 16.65 L94.25 15.3 98.0 15.4 Q98.25 17.5 97.8 18.5 L94.75 18.3 Q94.15 17.7 94.15 16.65 M107.4 19.15 Q107.4 17.9 108.45 17.3 109.5 16.65 111.9 16.45 112.95 19.5 112.25 20.0 111.5 20.45 108.45 21.25 L107.65 20.7 Q107.4 20.3 107.4 19.15 Z" fill="none" stroke="#000000" stroke-linecap="round" stroke-linejoin="round" stroke-opacity="0.0" stroke-width="1.0"/>
    </g>
    <g id="morphshape3" transform="matrix(1.0, 0.0, 0.0, 1.0, -32.35, -6.65)">
      <path d="M95.6 8.15 Q95.6 9.3 95.75 9.7 L96.2 10.45 98.2 10.45 98.7 9.95 98.85 8.75 98.6 7.25 Q98.3 6.8 95.75 6.75 95.6 6.4 95.6 8.15 M68.45 9.1 Q68.2 9.45 68.75 10.35 69.0 10.8 69.9 11.1 71.3 11.3 72.65 11.45 73.15 11.0 73.15 10.3 72.9 9.85 69.0 8.7 L68.45 9.15 M65.75 38.2 L66.05 40.15 Q66.25 41.2 66.7 42.05 L70.2 42.05 Q70.4 41.75 70.7 41.6 L70.3 38.5 66.75 37.95 Q65.95 37.9 65.75 38.2 M44.55 15.3 L44.75 16.65 45.1 17.15 46.65 17.2 Q47.7 17.2 48.3 16.75 48.5 16.6 48.5 14.85 48.5 13.7 48.15 13.15 L47.45 12.5 44.65 13.6 44.55 15.3 M37.4 29.2 L37.65 30.2 Q38.0 31.0 38.45 31.3 42.55 30.75 42.55 28.35 42.55 27.25 42.2 26.95 L41.35 26.6 39.6 26.85 37.75 27.0 37.4 29.2" fill="#ffffff" fill-opacity="0.7058824" fill-rule="evenodd" stroke="none"/>
      <path d="M37.4 29.2 L37.75 27.0 39.6 26.85 41.35 26.6 42.2 26.95 Q42.55 27.25 42.55 28.35 42.55 30.75 38.45 31.3 38.0 31.0 37.65 30.2 L37.4 29.2 M44.55 15.3 L44.65 13.6 47.45 12.5 48.15 13.15 Q48.5 13.7 48.5 14.85 48.5 16.6 48.3 16.75 47.7 17.2 46.65 17.2 L45.1 17.15 44.75 16.65 44.55 15.3 M65.75 38.2 Q65.95 37.9 66.75 37.95 L70.3 38.5 70.7 41.6 Q70.4 41.75 70.2 42.05 L66.7 42.05 Q66.25 41.2 66.05 40.15 L65.75 38.2 M68.45 9.15 L69.0 8.7 Q72.9 9.85 73.15 10.3 73.15 11.0 72.65 11.45 71.3 11.3 69.9 11.1 69.0 10.8 68.75 10.35 68.2 9.45 68.45 9.1 M95.6 8.15 Q95.6 6.4 95.75 6.75 98.3 6.8 98.6 7.25 L98.85 8.75 98.7 9.95 98.2 10.45 96.2 10.45 95.75 9.7 Q95.6 9.3 95.6 8.15 Z" fill="none" stroke="#000000" stroke-linecap="round" stroke-linejoin="round" stroke-opacity="0.0" stroke-width="1.0"/>
    </g>
  </defs>
</svg>
