<?xml version="1.0" encoding="UTF-8" standalone="no"?>
<svg xmlns:xlink="http://www.w3.org/1999/xlink" height="47.45px" width="141.0px" xmlns="http://www.w3.org/2000/svg">
  <g transform="matrix(1.0, 0.0, 0.0, 1.0, -4.35, -2.9)">
    <use data-characterId="3192" height="47.45" transform="matrix(1.0, 0.0, 0.0, 1.0, 4.35, 2.9)" width="141.0" xlink:href="#morphshape0"/>
    <use data-characterId="3193" height="37.5" transform="matrix(1.0, 0.0, 0.0, 1.0, 17.5, 9.15)" width="116.05" xlink:href="#morphshape1"/>
    <use data-characterId="3194" height="21.8" transform="matrix(1.0, 0.0, 0.0, 1.0, 37.6, 4.7)" width="75.1" xlink:href="#morphshape2"/>
    <use data-characterId="3195" height="35.65" transform="matrix(1.0, 0.0, 0.0, 1.0, 32.35, 6.65)" width="66.65" xlink:href="#morphshape3"/>
  </g>
  <defs>
    <g id="morphshape0" transform="matrix(1.0, 0.0, 0.0, 1.0, -4.35, -2.9)">
      <path d="M4.65 19.3 Q5.2 20.75 8.4 21.55 11.7 22.1 15.15 22.5 22.75 23.4 21.75 25.75 20.15 26.4 19.6 27.75 19.85 28.5 18.85 29.45 17.85 30.2 17.65 31.2 17.8 33.0 19.6 33.65 20.95 34.15 23.0 34.35 26.95 34.6 29.3 35.6 L30.4 36.85 Q29.25 38.95 34.95 39.9 37.3 40.35 43.15 40.4 42.7 41.55 44.15 42.25 43.0 43.55 46.45 45.0 50.25 46.6 54.75 46.7 57.5 46.75 61.45 48.3 65.5 49.85 67.15 50.1 67.9 50.35 72.7 48.95 77.9 47.45 81.55 47.25 L89.8 46.3 Q93.8 45.9 97.05 45.4 104.2 45.5 107.3 42.7 108.45 41.5 109.4 39.85 115.05 39.1 115.4 37.9 121.2 35.4 117.5 34.0 117.55 33.7 116.6 33.55 125.5 32.05 125.9 31.25 127.55 30.3 125.2 29.35 123.8 28.7 121.85 28.1 120.9 27.85 125.9 26.85 130.85 25.85 133.65 23.7 136.45 21.55 134.55 20.2 132.5 18.75 126.4 18.6 124.4 18.45 122.8 18.5 L122.45 18.5 121.8 18.25 Q125.8 16.35 122.7 14.6 121.1 14.15 117.55 13.8 116.95 13.6 116.15 13.6 117.4 9.55 109.15 7.1 97.75 3.5 73.35 3.2 55.5 2.9 35.2 5.85 16.3 8.6 14.95 11.5 12.9 12.4 13.55 13.05 14.2 13.65 16.2 14.25 18.0 14.7 16.65 15.0 15.55 15.05 14.6 15.25 L5.75 16.2 4.85 16.3 Q4.05 17.75 4.75 19.25" fill="#96e0bc" fill-opacity="0.7058824" fill-rule="evenodd" stroke="none"/>
      <path d="M4.75 19.25 Q4.05 17.75 4.85 16.3 L5.75 16.2 14.6 15.25 Q15.55 15.05 16.65 15.0 18.0 14.7 16.2 14.25 14.2 13.65 13.55 13.05 12.9 12.4 14.95 11.5 16.3 8.6 35.2 5.85 55.5 2.9 73.35 3.2 97.75 3.5 109.15 7.1 117.4 9.55 116.15 13.6 116.95 13.6 117.55 13.8 121.1 14.15 122.7 14.6 125.8 16.35 121.8 18.25 L122.45 18.5 122.8 18.5 Q124.4 18.45 126.4 18.6 132.5 18.75 134.55 20.2 136.45 21.55 133.65 23.7 130.85 25.85 125.9 26.85 120.9 27.85 121.85 28.1 123.8 28.7 125.2 29.35 127.55 30.3 125.9 31.25 125.5 32.05 116.6 33.55 117.55 33.7 117.5 34.0 121.2 35.4 115.4 37.9 115.05 39.1 109.4 39.85 108.45 41.5 107.3 42.7 104.2 45.5 97.05 45.4 93.8 45.9 89.8 46.3 L81.55 47.25 Q77.9 47.45 72.7 48.95 67.9 50.35 67.15 50.1 65.5 49.85 61.45 48.3 57.5 46.75 54.75 46.7 50.25 46.6 46.45 45.0 43.0 43.55 44.15 42.25 42.7 41.55 43.15 40.4 37.3 40.35 34.95 39.9 29.25 38.95 30.4 36.85 L29.3 35.6 Q26.95 34.6 23.0 34.35 20.95 34.15 19.6 33.65 17.8 33.0 17.65 31.2 17.85 30.2 18.85 29.45 19.85 28.5 19.6 27.75 20.15 26.4 21.75 25.75 22.75 23.4 15.15 22.5 11.7 22.1 8.4 21.55 5.2 20.75 4.65 19.3" fill="none" stroke="#000000" stroke-linecap="round" stroke-linejoin="round" stroke-opacity="0.0" stroke-width="1.0"/>
    </g>
    <g id="morphshape1" transform="matrix(1.0, 0.0, 0.0, 1.0, -17.5, -9.15)">
      <path d="M115.95 23.45 Q115.95 24.2 116.4 24.9 117.15 25.95 120.0 25.7 L119.25 23.5 Q118.25 23.15 115.95 23.45 M99.8 29.05 Q99.8 29.4 100.9 30.2 L104.2 30.3 106.35 29.3 Q108.55 28.25 108.95 27.75 L107.45 26.55 103.25 26.15 Q99.8 26.35 99.8 29.05 M85.2 34.65 L85.2 34.75 85.45 35.3 Q85.95 35.75 87.05 36.2 L88.9 36.65 91.55 36.8 91.95 36.7 92.2 36.5 92.4 36.0 92.4 35.55 Q92.4 34.85 92.0 34.55 91.3 33.9 88.05 33.75 86.65 33.9 85.35 34.2 L85.25 34.75 M75.6 41.4 L76.1 42.25 Q77.5 42.5 78.9 42.7 L81.65 42.8 85.75 42.6 86.5 42.35 86.95 41.9 87.1 41.1 87.05 40.6 Q86.85 39.8 86.1 39.3 84.85 38.55 79.75 38.7 77.65 39.05 76.1 40.5 L75.55 41.3 M62.4 32.55 L62.95 33.45 69.3 33.85 Q73.35 33.85 76.2 31.6 76.2 29.7 70.15 29.55 63.9 29.45 62.4 32.55 M61.1 42.15 Q61.1 42.65 61.35 42.9 L64.4 42.9 Q64.85 42.65 65.1 41.05 L61.6 41.25 Q61.1 41.6 61.1 42.15 M49.0 36.75 L50.2 37.95 Q52.25 39.1 56.55 39.1 58.1 39.1 59.85 36.95 59.85 34.0 54.45 34.05 49.0 34.1 49.0 36.75 M26.9 28.5 Q26.9 29.1 29.5 30.7 32.75 32.65 36.4 32.55 L40.3 32.45 Q41.5 31.9 42.2 29.95 42.15 27.05 34.55 26.25 26.9 25.45 26.95 28.5 M18.0 18.45 Q18.0 18.9 18.45 19.6 L19.4 20.55 26.25 20.65 Q27.45 19.75 27.45 19.2 27.45 17.35 22.75 17.25 18.0 17.2 18.0 18.45" fill="#bef0d8" fill-opacity="0.7058824" fill-rule="evenodd" stroke="none"/>
      <path d="M18.0 18.45 Q18.0 17.2 22.75 17.25 27.45 17.35 27.45 19.2 27.45 19.75 26.25 20.65 L19.4 20.55 18.45 19.6 Q18.0 18.9 18.0 18.45 M26.95 28.5 Q26.9 25.45 34.55 26.25 42.15 27.05 42.2 29.95 41.5 31.9 40.3 32.45 L36.4 32.55 Q32.75 32.65 29.5 30.7 26.9 29.1 26.9 28.5 M49.0 36.75 Q49.0 34.1 54.45 34.05 59.85 34.0 59.85 36.95 58.1 39.1 56.55 39.1 52.25 39.1 50.2 37.95 L49.0 36.75 M61.1 42.15 Q61.1 41.6 61.6 41.25 L65.1 41.05 Q64.85 42.65 64.4 42.9 L61.35 42.9 Q61.1 42.65 61.1 42.15 M62.4 32.55 Q63.9 29.45 70.15 29.55 76.2 29.7 76.2 31.6 73.35 33.85 69.3 33.85 L62.95 33.45 62.4 32.55 M75.55 41.3 L76.1 40.5 Q77.65 39.05 79.75 38.7 84.85 38.55 86.1 39.3 86.85 39.8 87.05 40.6 L87.1 41.1 86.95 41.9 86.5 42.35 85.75 42.6 81.65 42.8 78.9 42.7 Q77.5 42.5 76.1 42.25 L75.6 41.4 M85.25 34.75 L85.35 34.2 Q86.65 33.9 88.05 33.75 91.3 33.9 92.0 34.55 92.4 34.85 92.4 35.55 L92.4 36.0 92.2 36.5 91.95 36.7 91.55 36.8 88.9 36.65 87.05 36.2 Q85.95 35.75 85.45 35.3 L85.2 34.75 85.2 34.65 M99.8 29.05 Q99.8 26.35 103.25 26.15 L107.45 26.55 108.95 27.75 Q108.55 28.25 106.35 29.3 L104.2 30.3 100.9 30.2 Q99.8 29.4 99.8 29.05 M115.95 23.45 Q118.25 23.15 119.25 23.5 L120.0 25.7 Q117.15 25.95 116.4 24.9 115.95 24.2 115.95 23.45 Z" fill="none" stroke="#000000" stroke-linecap="round" stroke-linejoin="round" stroke-opacity="0.0" stroke-width="1.0"/>
    </g>
    <g id="morphshape2" transform="matrix(1.0, 0.0, 0.0, 1.0, -37.6, -4.7)">
      <path d="M101.8 14.95 Q101.8 16.1 102.05 16.5 L102.85 17.05 Q104.85 16.4 106.65 15.8 107.35 15.3 106.3 12.25 103.9 12.45 102.85 13.1 101.8 13.7 101.8 14.95 M89.95 21.75 Q89.95 22.8 90.55 23.4 L93.6 23.6 Q94.05 22.6 93.8 20.5 L90.05 20.4 89.95 21.75 M88.35 11.75 Q88.35 12.8 88.75 13.7 L94.7 13.7 Q95.75 12.65 95.75 9.15 91.05 8.7 89.4 9.55 88.35 10.15 88.35 11.75 M80.1 22.4 Q80.15 23.35 80.9 25.2 81.55 25.65 83.1 25.8 L83.9 24.6 Q84.4 23.9 83.7 22.1 L80.1 22.4 M78.45 7.05 Q78.05 8.95 78.85 10.45 79.85 12.2 82.1 12.2 83.25 12.2 84.45 10.45 83.6 8.05 81.95 7.4 L78.45 7.05 M66.55 13.85 L66.6 15.3 66.95 15.85 72.4 16.6 75.7 17.0 Q77.45 17.0 76.35 14.55 76.35 11.5 71.45 11.35 66.55 11.25 66.55 13.85 M55.85 11.7 L55.85 11.9 55.9 12.45 55.95 12.6 Q56.05 13.0 56.3 13.1 56.65 13.3 57.65 13.5 L59.45 12.8 Q59.7 11.65 59.8 10.35 59.45 9.35 59.15 8.5 58.3 8.35 57.45 8.4 55.95 9.35 55.95 11.7 M48.45 21.6 L48.55 22.8 48.9 23.2 Q49.4 23.25 49.9 23.25 L52.25 23.3 Q54.25 23.25 56.15 23.25 56.35 21.95 55.6 18.9 54.65 17.25 53.75 16.4 52.4 15.25 50.9 15.8 48.4 16.95 48.4 21.65 M37.95 10.55 L39.05 12.65 Q40.75 14.8 43.75 14.8 47.65 14.8 47.65 11.6 47.65 8.6 42.8 7.8 37.95 6.95 37.95 10.55" fill="#bef0d8" fill-opacity="0.7058824" fill-rule="evenodd" stroke="none"/>
      <path d="M37.95 10.55 Q37.95 6.95 42.8 7.8 47.65 8.6 47.65 11.6 47.65 14.8 43.75 14.8 40.75 14.8 39.05 12.65 L37.95 10.55 M48.4 21.65 Q48.4 16.95 50.9 15.8 52.4 15.25 53.75 16.4 54.65 17.25 55.6 18.9 56.35 21.95 56.15 23.25 54.25 23.25 52.25 23.3 L49.9 23.25 Q49.4 23.25 48.9 23.2 L48.55 22.8 48.45 21.6 M55.95 11.7 Q55.95 9.35 57.45 8.4 58.3 8.35 59.15 8.5 59.45 9.35 59.8 10.35 59.7 11.65 59.45 12.8 L57.65 13.5 Q56.65 13.3 56.3 13.1 56.05 13.0 55.95 12.6 L55.9 12.45 55.85 11.9 55.85 11.7 M66.55 13.85 Q66.55 11.25 71.45 11.35 76.35 11.5 76.35 14.55 77.45 17.0 75.7 17.0 L72.4 16.6 66.95 15.85 66.6 15.3 66.55 13.85 M78.45 7.05 L81.95 7.4 Q83.6 8.05 84.45 10.45 83.25 12.2 82.1 12.2 79.85 12.2 78.85 10.45 78.05 8.95 78.45 7.05 M80.1 22.4 L83.7 22.1 Q84.4 23.9 83.9 24.6 L83.1 25.8 Q81.55 25.65 80.9 25.2 80.15 23.35 80.1 22.4 M88.35 11.75 Q88.35 10.15 89.4 9.55 91.05 8.7 95.75 9.15 95.75 12.65 94.7 13.7 L88.75 13.7 Q88.35 12.8 88.35 11.75 M89.95 21.75 L90.05 20.4 93.8 20.5 Q94.05 22.6 93.6 23.6 L90.55 23.4 Q89.95 22.8 89.95 21.75 M101.8 14.95 Q101.8 13.7 102.85 13.1 103.9 12.45 106.3 12.25 107.35 15.3 106.65 15.8 104.85 16.4 102.85 17.05 L102.05 16.5 Q101.8 16.1 101.8 14.95 Z" fill="none" stroke="#000000" stroke-linecap="round" stroke-linejoin="round" stroke-opacity="0.0" stroke-width="1.0"/>
    </g>
    <g id="morphshape3" transform="matrix(1.0, 0.0, 0.0, 1.0, -32.35, -6.65)">
      <path d="M90.55 10.7 Q90.55 11.85 90.7 12.25 L91.15 13.0 93.15 13.0 93.65 12.5 93.8 11.3 93.55 9.8 Q93.25 9.35 90.7 9.3 90.55 8.95 90.55 10.7 M69.4 13.9 Q69.35 14.35 70.2 14.9 70.85 15.0 71.5 15.05 72.7 14.9 74.05 14.15 74.3 13.5 74.0 12.85 71.95 13.1 69.6 13.25 L69.35 13.95 M66.25 29.05 L66.55 31.0 Q66.75 32.05 67.2 32.9 L70.7 32.9 Q70.95 32.65 71.2 32.45 L70.8 29.35 67.25 28.8 Q66.45 28.75 66.25 29.05 M40.6 13.2 L40.8 14.55 41.15 15.05 42.7 15.1 Q43.75 15.1 44.35 14.65 44.55 14.5 44.55 12.75 44.55 11.6 44.2 11.05 L43.5 10.4 40.7 11.5 40.6 13.2 M32.85 29.2 L33.1 30.2 Q33.45 31.0 33.9 31.3 38.0 30.75 38.0 28.35 38.0 27.25 37.65 26.95 L36.8 26.6 35.05 26.85 33.2 27.0 32.85 29.2" fill="#ffffff" fill-opacity="0.7058824" fill-rule="evenodd" stroke="none"/>
      <path d="M32.85 29.2 L33.2 27.0 35.05 26.85 36.8 26.6 37.65 26.95 Q38.0 27.25 38.0 28.35 38.0 30.75 33.9 31.3 33.45 31.0 33.1 30.2 L32.85 29.2 M40.6 13.2 L40.7 11.5 43.5 10.4 44.2 11.05 Q44.55 11.6 44.55 12.75 44.55 14.5 44.35 14.65 43.75 15.1 42.7 15.1 L41.15 15.05 40.8 14.55 40.6 13.2 M66.25 29.05 Q66.45 28.75 67.25 28.8 L70.8 29.35 71.2 32.45 Q70.95 32.65 70.7 32.9 L67.2 32.9 Q66.75 32.05 66.55 31.0 L66.25 29.05 M69.35 13.95 L69.6 13.25 Q71.95 13.1 74.0 12.85 74.3 13.5 74.05 14.15 72.7 14.9 71.5 15.05 70.85 15.0 70.2 14.9 69.35 14.35 69.4 13.9 M90.55 10.7 Q90.55 8.95 90.7 9.3 93.25 9.35 93.55 9.8 L93.8 11.3 93.65 12.5 93.15 13.0 91.15 13.0 90.7 12.25 Q90.55 11.85 90.55 10.7 Z" fill="none" stroke="#000000" stroke-linecap="round" stroke-linejoin="round" stroke-opacity="0.0" stroke-width="1.0"/>
    </g>
  </defs>
</svg>
