<?xml version="1.0" encoding="UTF-8" standalone="no"?>
<svg xmlns:xlink="http://www.w3.org/1999/xlink" height="47.45px" width="141.0px" xmlns="http://www.w3.org/2000/svg">
  <g transform="matrix(1.0, 0.0, 0.0, 1.0, -4.35, -2.9)">
    <use data-characterId="3192" height="47.45" transform="matrix(1.0, 0.0, 0.0, 1.0, 4.35, 2.9)" width="141.0" xlink:href="#morphshape0"/>
    <use data-characterId="3193" height="37.5" transform="matrix(1.0, 0.0, 0.0, 1.0, 17.5, 9.15)" width="116.05" xlink:href="#morphshape1"/>
    <use data-characterId="3194" height="21.8" transform="matrix(1.0, 0.0, 0.0, 1.0, 37.6, 4.7)" width="75.1" xlink:href="#morphshape2"/>
    <use data-characterId="3195" height="35.65" transform="matrix(1.0, 0.0, 0.0, 1.0, 32.35, 6.65)" width="66.65" xlink:href="#morphshape3"/>
  </g>
  <defs>
    <g id="morphshape0" transform="matrix(1.0, 0.0, 0.0, 1.0, -4.35, -2.9)">
      <path d="M5.05 17.45 Q4.85 19.0 11.55 20.15 18.3 21.2 26.15 21.75 36.0 22.5 25.85 24.05 15.4 24.8 22.0 26.4 29.0 27.7 24.1 28.5 19.2 29.15 16.05 30.6 13.05 32.4 16.6 32.95 19.9 33.4 21.65 33.75 24.35 34.15 26.55 34.7 L34.2 35.6 Q29.9 37.35 32.55 38.15 25.85 40.25 39.6 40.0 41.55 40.6 50.0 39.85 43.3 42.3 45.05 43.5 47.0 44.8 53.5 45.15 59.95 45.35 67.0 46.35 74.95 47.25 70.8 48.65 66.2 50.05 69.65 49.35 74.55 48.65 78.7 48.6 L91.5 47.95 Q98.6 47.55 101.65 46.7 106.6 46.1 106.95 44.3 106.3 43.25 108.65 40.9 112.2 39.9 106.95 38.05 122.15 36.75 122.15 35.05 124.0 33.9 120.05 33.6 122.6 32.75 120.95 32.25 126.95 30.95 126.2 30.05 125.9 29.3 122.65 28.55 119.85 27.95 118.65 27.35 117.45 26.75 126.95 25.15 136.5 23.55 138.85 21.9 141.1 20.2 133.4 19.2 127.75 18.2 124.05 18.25 L122.7 18.3 122.3 18.15 Q124.1 17.15 122.4 16.2 129.2 15.2 124.3 14.35 120.85 13.55 116.3 13.45 116.9 11.45 112.8 10.25 102.85 6.2 88.05 4.5 76.45 2.8 53.05 4.25 34.0 5.6 20.95 8.95 7.55 11.25 9.75 12.2 11.95 13.1 21.75 13.9 31.45 14.6 27.0 14.85 22.6 14.95 18.3 15.1 L9.9 15.7 4.9 16.3 Q4.45 17.0 4.8 17.75" fill="#96e0bc" fill-opacity="0.7058824" fill-rule="evenodd" stroke="none"/>
      <path d="M4.8 17.75 Q4.45 17.0 4.9 16.3 L9.9 15.7 18.3 15.1 Q22.6 14.95 27.0 14.85 31.45 14.6 21.75 13.9 11.95 13.1 9.75 12.2 7.55 11.25 20.95 8.95 34.0 5.6 53.05 4.25 76.45 2.8 88.05 4.5 102.85 6.2 112.8 10.25 116.9 11.45 116.3 13.45 120.85 13.55 124.3 14.35 129.2 15.2 122.4 16.2 124.1 17.15 122.3 18.15 L122.7 18.3 124.05 18.25 Q127.75 18.2 133.4 19.2 141.1 20.2 138.85 21.9 136.5 23.55 126.95 25.15 117.45 26.75 118.65 27.35 119.85 27.95 122.65 28.55 125.9 29.3 126.2 30.05 126.95 30.95 120.95 32.25 122.6 32.75 120.05 33.6 124.0 33.9 122.15 35.05 122.15 36.75 106.95 38.05 112.2 39.9 108.65 40.9 106.3 43.25 106.95 44.3 106.6 46.1 101.65 46.7 98.6 47.55 91.5 47.95 L78.7 48.6 Q74.55 48.65 69.65 49.35 66.2 50.05 70.8 48.65 74.95 47.25 67.0 46.35 59.95 45.35 53.5 45.15 47.0 44.8 45.05 43.5 43.3 42.3 50.0 39.85 41.55 40.6 39.6 40.0 25.85 40.25 32.55 38.15 29.9 37.35 34.2 35.6 L26.55 34.7 Q24.35 34.15 21.65 33.75 19.9 33.4 16.6 32.95 13.05 32.4 16.05 30.6 19.2 29.15 24.1 28.5 29.0 27.7 22.0 26.4 15.4 24.8 25.85 24.05 36.0 22.5 26.15 21.75 18.3 21.2 11.55 20.15 4.85 19.0 5.05 17.45" fill="none" stroke="#000000" stroke-linecap="round" stroke-linejoin="round" stroke-opacity="0.0" stroke-width="1.0"/>
    </g>
    <g id="morphshape1" transform="matrix(1.0, 0.0, 0.0, 1.0, -17.5, -9.15)">
      <path d="M122.8 22.55 Q122.8 23.3 123.25 24.0 124.0 25.05 126.85 24.8 L126.1 22.6 Q125.1 22.25 122.8 22.55 M101.45 31.6 Q101.45 31.95 102.55 32.75 L105.85 32.85 108.0 31.85 Q110.2 30.8 110.6 30.3 L109.1 29.1 104.9 28.7 Q101.45 28.9 101.45 31.6 M87.85 40.15 L87.85 40.2 88.25 40.9 Q89.25 41.25 90.5 41.55 L92.85 41.8 96.3 41.75 96.9 41.55 97.25 41.2 97.4 40.55 97.35 40.05 Q97.25 39.3 96.65 38.9 95.65 38.2 91.35 38.2 89.55 38.45 88.1 39.4 L87.75 40.1 M77.45 36.1 L77.8 36.85 Q78.7 37.2 79.95 37.55 L82.2 37.85 85.5 37.85 86.05 37.7 86.4 37.4 86.6 36.75 86.6 36.3 Q86.5 35.55 85.95 35.15 85.0 34.45 80.95 34.45 79.25 34.7 77.85 35.5 L77.55 36.15 M61.85 36.95 L62.4 37.85 68.75 38.25 Q72.8 38.25 75.65 36.0 75.65 34.1 69.6 33.95 63.35 33.85 61.85 36.95 M57.65 41.4 Q57.75 41.85 57.9 42.15 L60.95 42.15 Q61.4 41.9 61.65 40.3 L58.15 40.5 Q57.65 40.85 57.65 41.4 M49.0 35.3 L50.2 36.5 Q52.25 37.65 56.55 37.65 58.1 37.65 59.85 35.5 59.85 32.55 54.45 32.6 49.0 32.65 49.0 35.3 M29.65 29.45 Q29.75 30.0 32.45 31.25 35.85 32.3 39.45 32.3 L43.25 31.75 Q44.35 31.05 44.8 29.0 44.4 26.15 36.8 26.3 29.15 26.4 29.55 29.4 M20.35 14.35 Q20.35 14.8 20.8 15.5 L21.75 16.45 28.6 16.55 Q29.8 15.65 29.8 15.1 29.8 13.25 25.1 13.15 20.35 13.1 20.35 14.35" fill="#bef0d8" fill-opacity="0.7058824" fill-rule="evenodd" stroke="none"/>
      <path d="M20.35 14.35 Q20.35 13.1 25.1 13.15 29.8 13.25 29.8 15.1 29.8 15.65 28.6 16.55 L21.75 16.45 20.8 15.5 Q20.35 14.8 20.35 14.35 M29.55 29.4 Q29.15 26.4 36.8 26.3 44.4 26.15 44.8 29.0 44.35 31.05 43.25 31.75 L39.45 32.3 Q35.85 32.3 32.45 31.25 29.75 30.0 29.65 29.45 M49.0 35.3 Q49.0 32.65 54.45 32.6 59.85 32.55 59.85 35.5 58.1 37.65 56.55 37.65 52.25 37.65 50.2 36.5 L49.0 35.3 M57.65 41.4 Q57.65 40.85 58.15 40.5 L61.65 40.3 Q61.4 41.9 60.95 42.15 L57.9 42.15 Q57.75 41.85 57.65 41.4 M61.85 36.95 Q63.35 33.85 69.6 33.95 75.65 34.1 75.65 36.0 72.8 38.25 68.75 38.25 L62.4 37.85 61.85 36.95 M77.55 36.15 L77.85 35.5 Q79.25 34.7 80.95 34.45 85.0 34.45 85.95 35.15 86.5 35.55 86.6 36.3 L86.6 36.75 86.4 37.4 86.05 37.7 85.5 37.85 82.2 37.85 79.95 37.55 Q78.7 37.2 77.8 36.85 L77.45 36.1 M87.75 40.1 L88.1 39.4 Q89.55 38.45 91.35 38.2 95.65 38.2 96.65 38.9 97.25 39.3 97.35 40.05 L97.4 40.55 97.25 41.2 96.9 41.55 96.3 41.75 92.85 41.8 90.5 41.55 Q89.25 41.25 88.25 40.9 L87.85 40.2 87.85 40.15 M101.45 31.6 Q101.45 28.9 104.9 28.7 L109.1 29.1 110.6 30.3 Q110.2 30.8 108.0 31.85 L105.85 32.85 102.55 32.75 Q101.45 31.95 101.45 31.6 M122.8 22.55 Q125.1 22.25 126.1 22.6 L126.85 24.8 Q124.0 25.05 123.25 24.0 122.8 23.3 122.8 22.55 Z" fill="none" stroke="#000000" stroke-linecap="round" stroke-linejoin="round" stroke-opacity="0.0" stroke-width="1.0"/>
    </g>
    <g id="morphshape2" transform="matrix(1.0, 0.0, 0.0, 1.0, -37.6, -4.7)">
      <path d="M104.7 17.15 Q104.7 18.3 104.95 18.7 L105.75 19.25 Q108.3 18.5 109.55 18.0 110.25 17.5 109.2 14.45 106.8 14.65 105.75 15.3 104.7 15.9 104.7 17.15 M92.15 19.1 Q92.15 20.15 92.75 20.75 L95.8 20.95 Q96.25 19.95 96.0 17.85 L92.25 17.75 92.15 19.1 M90.75 10.35 Q90.75 11.4 91.15 12.3 L97.1 12.3 Q98.15 11.25 98.15 7.75 93.45 7.3 91.8 8.15 90.75 8.75 90.75 10.35 M82.45 19.15 Q82.5 20.1 83.25 21.95 83.9 22.4 85.45 22.55 L86.25 21.35 Q86.75 20.65 86.05 18.85 L82.45 19.15 M76.9 11.15 Q76.5 13.05 77.3 14.55 78.3 16.3 80.55 16.3 81.7 16.3 82.9 14.55 82.05 12.15 80.4 11.5 L76.9 11.15 M65.2 11.45 L65.25 12.9 65.6 13.45 71.05 14.2 74.35 14.6 Q76.1 14.6 75.0 12.15 75.0 9.1 70.1 8.95 65.2 8.85 65.2 11.45 M56.1 17.5 L56.1 17.6 56.2 18.5 56.4 18.8 Q56.75 19.0 57.15 19.05 57.95 19.15 59.05 19.25 L62.0 18.9 Q62.2 17.65 61.8 15.35 61.1 14.0 60.45 13.15 59.3 12.45 58.1 12.8 56.05 13.85 56.05 17.55 M50.55 14.65 L50.6 15.6 50.8 15.85 Q51.05 16.1 51.4 16.15 L53.2 16.35 Q54.85 16.0 55.9 15.95 56.15 14.75 55.9 12.7 55.3 11.4 54.75 10.55 53.7 9.95 52.55 10.2 50.6 11.25 50.6 14.6 M39.5 12.35 L40.6 14.45 Q42.3 16.6 45.3 16.6 49.2 16.6 49.2 13.4 49.2 10.4 44.35 9.6 39.5 8.75 39.5 12.35" fill="#bef0d8" fill-opacity="0.7058824" fill-rule="evenodd" stroke="none"/>
      <path d="M39.5 12.35 Q39.5 8.75 44.35 9.6 49.2 10.4 49.2 13.4 49.2 16.6 45.3 16.6 42.3 16.6 40.6 14.45 L39.5 12.35 M50.6 14.6 Q50.6 11.25 52.55 10.2 53.7 9.95 54.75 10.55 55.3 11.4 55.9 12.7 56.15 14.75 55.9 15.95 54.85 16.0 53.2 16.35 L51.4 16.15 Q51.05 16.1 50.8 15.85 L50.6 15.6 50.55 14.65 M56.05 17.55 Q56.05 13.85 58.1 12.8 59.3 12.45 60.45 13.15 61.1 14.0 61.8 15.35 62.2 17.65 62.0 18.9 L59.05 19.25 Q57.95 19.15 57.15 19.05 56.75 19.0 56.4 18.8 L56.2 18.5 56.1 17.6 56.1 17.5 M65.2 11.45 Q65.2 8.85 70.1 8.95 75.0 9.1 75.0 12.15 76.1 14.6 74.35 14.6 L71.05 14.2 65.6 13.45 65.25 12.9 65.2 11.45 M76.9 11.15 L80.4 11.5 Q82.05 12.15 82.9 14.55 81.7 16.3 80.55 16.3 78.3 16.3 77.3 14.55 76.5 13.05 76.9 11.15 M82.45 19.15 L86.05 18.85 Q86.75 20.65 86.25 21.35 L85.45 22.55 Q83.9 22.4 83.25 21.95 82.5 20.1 82.45 19.15 M90.75 10.35 Q90.75 8.75 91.8 8.15 93.45 7.3 98.15 7.75 98.15 11.25 97.1 12.3 L91.15 12.3 Q90.75 11.4 90.75 10.35 M92.15 19.1 L92.25 17.75 96.0 17.85 Q96.25 19.95 95.8 20.95 L92.75 20.75 Q92.15 20.15 92.15 19.1 M104.7 17.15 Q104.7 15.9 105.75 15.3 106.8 14.65 109.2 14.45 110.25 17.5 109.55 18.0 108.3 18.5 105.75 19.25 L104.95 18.7 Q104.7 18.3 104.7 17.15 Z" fill="none" stroke="#000000" stroke-linecap="round" stroke-linejoin="round" stroke-opacity="0.0" stroke-width="1.0"/>
    </g>
    <g id="morphshape3" transform="matrix(1.0, 0.0, 0.0, 1.0, -32.35, -6.65)">
      <path d="M93.2 9.35 Q93.2 10.5 93.35 10.9 L93.8 11.65 95.8 11.65 96.3 11.15 96.45 9.95 96.2 8.45 Q95.9 8.0 93.35 7.95 93.2 7.6 93.2 9.35 M68.85 11.6 Q68.7 12.0 69.4 12.7 69.85 12.95 70.65 13.1 71.95 13.1 73.3 12.8 73.7 12.25 73.55 11.55 72.45 11.45 69.3 10.9 L68.9 11.45 M66.0 33.8 L66.3 35.75 Q66.5 36.8 66.95 37.65 L70.45 37.65 Q70.65 37.35 70.95 37.2 L70.55 34.1 67.0 33.55 Q66.2 33.5 66.0 33.8 M42.65 14.3 L42.85 15.65 43.2 16.15 44.75 16.2 Q45.8 16.2 46.4 15.75 46.6 15.6 46.6 13.85 46.6 12.7 46.25 12.15 L45.55 11.5 42.75 12.6 42.65 14.3 M35.25 29.2 L35.5 30.2 Q35.85 31.0 36.3 31.3 40.4 30.75 40.4 28.35 40.4 27.25 40.05 26.95 L39.2 26.6 37.45 26.85 35.6 27.0 35.25 29.2" fill="#ffffff" fill-opacity="0.7058824" fill-rule="evenodd" stroke="none"/>
      <path d="M35.25 29.2 L35.6 27.0 37.45 26.85 39.2 26.6 40.05 26.95 Q40.4 27.25 40.4 28.35 40.4 30.75 36.3 31.3 35.85 31.0 35.5 30.2 L35.25 29.2 M42.65 14.3 L42.75 12.6 45.55 11.5 46.25 12.15 Q46.6 12.7 46.6 13.85 46.6 15.6 46.4 15.75 45.8 16.2 44.75 16.2 L43.2 16.15 42.85 15.65 42.65 14.3 M66.0 33.8 Q66.2 33.5 67.0 33.55 L70.55 34.1 70.95 37.2 Q70.65 37.35 70.45 37.65 L66.95 37.65 Q66.5 36.8 66.3 35.75 L66.0 33.8 M68.9 11.45 L69.3 10.9 Q72.45 11.45 73.55 11.55 73.7 12.25 73.3 12.8 71.95 13.1 70.65 13.1 69.85 12.95 69.4 12.7 68.7 12.0 68.85 11.6 M93.2 9.35 Q93.2 7.6 93.35 7.95 95.9 8.0 96.2 8.45 L96.45 9.95 96.3 11.15 95.8 11.65 93.8 11.65 93.35 10.9 Q93.2 10.5 93.2 9.35 Z" fill="none" stroke="#000000" stroke-linecap="round" stroke-linejoin="round" stroke-opacity="0.0" stroke-width="1.0"/>
    </g>
  </defs>
</svg>
