<?xml version="1.0" encoding="UTF-8" standalone="no"?>
<svg xmlns:xlink="http://www.w3.org/1999/xlink" height="47.45px" width="141.0px" xmlns="http://www.w3.org/2000/svg">
  <g transform="matrix(1.0, 0.0, 0.0, 1.0, -4.35, -2.9)">
    <use data-characterId="3192" height="47.45" transform="matrix(1.0, 0.0, 0.0, 1.0, 4.35, 2.9)" width="141.0" xlink:href="#morphshape0"/>
    <use data-characterId="3193" height="37.5" transform="matrix(1.0, 0.0, 0.0, 1.0, 17.5, 9.15)" width="116.05" xlink:href="#morphshape1"/>
    <use data-characterId="3194" height="21.8" transform="matrix(1.0, 0.0, 0.0, 1.0, 37.6, 4.7)" width="75.1" xlink:href="#morphshape2"/>
    <use data-characterId="3195" height="35.65" transform="matrix(1.0, 0.0, 0.0, 1.0, 32.35, 6.65)" width="66.65" xlink:href="#morphshape3"/>
  </g>
  <defs>
    <g id="morphshape0" transform="matrix(1.0, 0.0, 0.0, 1.0, -4.35, -2.9)">
      <path d="M4.6 17.15 Q4.05 18.7 12.5 20.05 20.95 21.35 31.0 21.95 42.0 22.65 27.25 23.8 12.35 24.55 22.55 26.3 32.95 27.9 26.15 28.6 19.3 29.2 14.65 30.85 10.1 32.65 14.5 33.1 18.8 33.5 20.45 33.95 22.5 34.4 24.65 34.75 L35.55 35.45 Q29.7 37.05 30.8 37.75 19.55 40.65 37.2 40.25 40.35 40.6 52.3 39.1 42.85 42.1 43.75 43.2 44.75 44.35 52.2 44.8 60.55 45.1 69.15 45.8 79.0 46.4 72.0 48.35 64.75 50.3 67.55 49.95 72.35 49.65 76.7 49.65 L91.8 49.15 Q100.45 48.75 103.4 47.7 107.3 46.75 106.25 45.45 104.75 44.45 107.8 41.8 110.3 40.65 102.3 38.45 122.25 37.75 124.15 35.9 126.95 34.35 121.5 34.0 120.85 33.45 118.2 33.05 126.4 31.55 126.45 30.7 126.7 29.85 122.8 29.0 119.1 28.2 114.85 27.8 110.6 27.4 123.45 26.1 136.35 24.8 140.8 23.0 145.2 21.15 136.7 19.75 129.2 18.35 124.45 18.4 L122.6 18.5 122.35 18.45 Q123.05 17.9 122.05 17.35 133.05 16.05 127.5 14.95 122.65 13.85 116.2 13.7 116.5 12.7 114.5 12.1 105.3 7.85 95.3 5.4 86.85 2.95 61.9 3.65 42.8 4.3 23.95 7.85 4.9 10.9 7.85 11.95 10.8 12.95 24.5 13.85 38.15 14.7 32.1 14.9 26.05 15.0 20.1 15.1 L11.95 15.5 4.95 16.3 Q4.7 16.65 4.85 17.0" fill="#96e0bc" fill-opacity="0.7058824" fill-rule="evenodd" stroke="none"/>
      <path d="M4.85 17.0 Q4.7 16.65 4.95 16.3 L11.95 15.5 20.1 15.1 Q26.05 15.0 32.1 14.9 38.15 14.7 24.5 13.85 10.8 12.95 7.85 11.95 4.9 10.9 23.95 7.85 42.8 4.3 61.9 3.65 86.85 2.95 95.3 5.4 105.3 7.85 114.5 12.1 116.5 12.7 116.2 13.7 122.65 13.85 127.5 14.95 133.05 16.05 122.05 17.35 123.05 17.9 122.35 18.45 L122.6 18.5 124.45 18.4 Q129.2 18.35 136.7 19.75 145.2 21.15 140.8 23.0 136.35 24.8 123.45 26.1 110.6 27.4 114.85 27.8 119.1 28.2 122.8 29.0 126.7 29.85 126.45 30.7 126.4 31.55 118.2 33.05 120.85 33.45 121.5 34.0 126.95 34.35 124.15 35.9 122.25 37.75 102.3 38.45 110.3 40.65 107.8 41.8 104.75 44.45 106.25 45.45 107.3 46.75 103.4 47.7 100.45 48.75 91.8 49.15 L76.7 49.65 Q72.35 49.65 67.55 49.95 64.75 50.3 72.0 48.35 79.0 46.4 69.15 45.8 60.55 45.1 52.2 44.8 44.75 44.35 43.75 43.2 42.85 42.1 52.3 39.1 40.35 40.6 37.2 40.25 19.55 40.65 30.8 37.75 29.7 37.05 35.55 35.45 L24.65 34.75 Q22.5 34.4 20.45 33.95 18.8 33.5 14.5 33.1 10.1 32.65 14.65 30.85 19.3 29.2 26.15 28.6 32.95 27.9 22.55 26.3 12.35 24.55 27.25 23.8 42.0 22.65 31.0 21.95 20.95 21.35 12.5 20.05 4.05 18.7 4.6 17.15" fill="none" stroke="#000000" stroke-linecap="round" stroke-linejoin="round" stroke-opacity="0.0" stroke-width="1.0"/>
    </g>
    <g id="morphshape1" transform="matrix(1.0, 0.0, 0.0, 1.0, -17.5, -9.15)">
      <path d="M126.25 22.1 Q126.25 22.85 126.7 23.55 127.45 24.6 130.3 24.35 L129.55 22.15 Q128.55 21.8 126.25 22.1 M102.25 32.85 Q102.25 33.2 103.35 34.0 L106.65 34.1 108.8 33.1 Q111.0 32.05 111.4 31.55 L109.9 30.35 105.7 29.95 Q102.25 30.15 102.25 32.85 M89.05 42.85 L89.05 42.85 89.5 43.65 Q90.75 43.9 92.1 44.15 L94.7 44.3 98.55 44.15 99.25 43.95 99.7 43.55 99.85 42.8 99.8 42.3 Q99.65 41.5 98.95 41.05 97.8 40.3 93.0 40.4 91.0 40.7 89.5 42.0 L89.0 42.75 M78.55 33.5 L78.85 34.15 Q79.5 34.6 80.65 35.0 L82.65 35.4 85.55 35.5 86.0 35.35 86.25 35.1 86.45 34.55 86.45 34.1 Q86.4 33.4 85.95 33.05 85.15 32.4 81.6 32.3 80.1 32.5 78.75 32.95 L78.6 33.55 M61.55 39.15 L62.1 40.05 68.45 40.45 Q72.5 40.45 75.35 38.2 75.35 36.3 69.3 36.15 63.05 36.05 61.55 39.15 M55.95 41.05 Q56.05 41.45 56.2 41.8 L59.25 41.8 Q59.7 41.55 59.95 39.95 L56.45 40.15 Q55.95 40.5 55.95 41.05 M49.0 34.55 L50.2 35.75 Q52.25 36.9 56.55 36.9 58.1 36.9 59.85 34.75 59.85 31.8 54.45 31.85 49.0 31.9 49.0 34.55 M30.85 29.85 Q31.0 30.4 33.8 31.5 37.3 32.1 40.9 32.15 L44.7 31.35 Q45.75 30.6 46.1 28.55 45.5 25.75 37.9 26.35 30.25 26.9 30.85 29.85 M21.55 12.3 Q21.55 12.75 22.0 13.45 L22.95 14.4 29.8 14.5 Q31.0 13.6 31.0 13.05 31.0 11.2 26.3 11.1 21.55 11.05 21.55 12.3" fill="#bef0d8" fill-opacity="0.7058824" fill-rule="evenodd" stroke="none"/>
      <path d="M21.55 12.3 Q21.55 11.05 26.3 11.1 31.0 11.2 31.0 13.05 31.0 13.6 29.8 14.5 L22.95 14.4 22.0 13.45 Q21.55 12.75 21.55 12.3 M30.85 29.85 Q30.25 26.9 37.9 26.35 45.5 25.75 46.1 28.55 45.75 30.6 44.7 31.35 L40.9 32.15 Q37.3 32.1 33.8 31.5 31.0 30.4 30.85 29.85 M49.0 34.55 Q49.0 31.9 54.45 31.85 59.85 31.8 59.85 34.75 58.1 36.9 56.55 36.9 52.25 36.9 50.2 35.75 L49.0 34.55 M55.95 41.05 Q55.95 40.5 56.45 40.15 L59.95 39.95 Q59.7 41.55 59.25 41.8 L56.2 41.8 Q56.05 41.45 55.95 41.05 M61.55 39.15 Q63.05 36.05 69.3 36.15 75.35 36.3 75.35 38.2 72.5 40.45 68.45 40.45 L62.1 40.05 61.55 39.15 M78.6 33.55 L78.75 32.95 Q80.1 32.5 81.6 32.3 85.15 32.4 85.95 33.05 86.4 33.4 86.45 34.1 L86.45 34.55 86.25 35.1 86.0 35.35 85.55 35.5 82.65 35.4 80.65 35.0 Q79.5 34.6 78.85 34.15 L78.55 33.5 M89.0 42.75 L89.5 42.0 Q91.0 40.7 93.0 40.4 97.8 40.3 98.95 41.05 99.65 41.5 99.8 42.3 L99.85 42.8 99.7 43.55 99.25 43.95 98.55 44.15 94.7 44.3 92.1 44.15 Q90.75 43.9 89.5 43.65 L89.05 42.85 89.05 42.85 M102.25 32.85 Q102.25 30.15 105.7 29.95 L109.9 30.35 111.4 31.55 Q111.0 32.05 108.8 33.1 L106.65 34.1 103.35 34.0 Q102.25 33.2 102.25 32.85 M126.25 22.1 Q128.55 21.8 129.55 22.15 L130.3 24.35 Q127.45 24.6 126.7 23.55 126.25 22.85 126.25 22.1 Z" fill="none" stroke="#000000" stroke-linecap="round" stroke-linejoin="round" stroke-opacity="0.0" stroke-width="1.0"/>
    </g>
    <g id="morphshape2" transform="matrix(1.0, 0.0, 0.0, 1.0, -37.6, -4.7)">
      <path d="M106.15 18.2 Q106.15 19.35 106.4 19.75 L107.2 20.3 Q110.05 19.55 111.0 19.05 111.7 18.55 110.65 15.5 108.25 15.7 107.2 16.35 106.15 16.95 106.15 18.2 M93.2 17.75 Q93.2 18.8 93.8 19.4 L96.85 19.6 Q97.3 18.6 97.05 16.5 L93.3 16.4 93.2 17.75 M91.95 9.6 Q91.95 10.65 92.35 11.55 L98.3 11.55 Q99.35 10.5 99.35 7.0 94.65 6.55 93.0 7.4 91.95 8.0 91.95 9.6 M83.65 17.5 Q83.7 18.45 84.45 20.3 85.1 20.75 86.65 20.9 L87.45 19.7 Q87.95 19.0 87.25 17.2 L83.65 17.5 M76.15 13.15 Q75.75 15.05 76.55 16.55 77.55 18.3 79.8 18.3 80.95 18.3 82.15 16.55 81.3 14.15 79.65 13.5 L76.15 13.15 M64.5 10.25 L64.55 11.7 64.9 12.25 70.35 13.0 73.65 13.4 Q75.4 13.4 74.3 10.95 74.3 7.9 69.4 7.75 64.5 7.65 64.5 10.25 M56.1 20.4 L56.1 20.45 56.2 21.55 56.5 21.9 Q56.95 22.0 57.4 22.0 58.45 22.05 59.65 22.1 L63.2 21.95 Q63.4 20.7 62.8 17.9 61.95 16.35 61.15 15.5 59.9 14.5 58.5 14.95 56.15 16.1 56.15 20.45 M51.65 11.1 L51.7 11.9 51.8 12.1 Q51.95 12.45 52.25 12.55 L53.75 12.85 Q55.2 12.35 55.85 12.25 56.1 11.05 56.05 9.5 55.6 8.4 55.2 7.55 54.25 7.25 53.3 7.4 51.65 8.35 51.65 11.05 M40.3 13.25 L41.4 15.35 Q43.1 17.5 46.1 17.5 50.0 17.5 50.0 14.3 50.0 11.3 45.15 10.5 40.3 9.65 40.3 13.25" fill="#bef0d8" fill-opacity="0.7058824" fill-rule="evenodd" stroke="none"/>
      <path d="M40.3 13.25 Q40.3 9.65 45.15 10.5 50.0 11.3 50.0 14.3 50.0 17.5 46.1 17.5 43.1 17.5 41.4 15.35 L40.3 13.25 M51.65 11.05 Q51.65 8.35 53.3 7.4 54.25 7.25 55.2 7.55 55.6 8.4 56.05 9.5 56.1 11.05 55.85 12.25 55.2 12.35 53.75 12.85 L52.25 12.55 Q51.95 12.45 51.8 12.1 L51.7 11.9 51.65 11.1 M56.15 20.45 Q56.15 16.1 58.5 14.95 59.9 14.5 61.15 15.5 61.95 16.35 62.8 17.9 63.4 20.7 63.2 21.95 L59.65 22.1 Q58.45 22.05 57.4 22.0 56.95 22.0 56.5 21.9 L56.2 21.55 56.1 20.45 56.1 20.4 M64.5 10.25 Q64.5 7.65 69.4 7.75 74.3 7.9 74.3 10.95 75.4 13.4 73.65 13.4 L70.35 13.0 64.9 12.25 64.55 11.7 64.5 10.25 M76.15 13.15 L79.65 13.5 Q81.3 14.15 82.15 16.55 80.95 18.3 79.8 18.3 77.55 18.3 76.55 16.55 75.75 15.05 76.15 13.15 M83.65 17.5 L87.25 17.2 Q87.95 19.0 87.45 19.7 L86.65 20.9 Q85.1 20.75 84.45 20.3 83.7 18.45 83.65 17.5 M91.95 9.6 Q91.95 8.0 93.0 7.4 94.65 6.55 99.35 7.0 99.35 10.5 98.3 11.55 L92.35 11.55 Q91.95 10.65 91.95 9.6 M93.2 17.75 L93.3 16.4 97.05 16.5 Q97.3 18.6 96.85 19.6 L93.8 19.4 Q93.2 18.8 93.2 17.75 M106.15 18.2 Q106.15 16.95 107.2 16.35 108.25 15.7 110.65 15.5 111.7 18.55 111.0 19.05 110.05 19.55 107.2 20.3 L106.4 19.75 Q106.15 19.35 106.15 18.2 Z" fill="none" stroke="#000000" stroke-linecap="round" stroke-linejoin="round" stroke-opacity="0.0" stroke-width="1.0"/>
    </g>
    <g id="morphshape3" transform="matrix(1.0, 0.0, 0.0, 1.0, -32.35, -6.65)">
      <path d="M94.5 8.7 Q94.5 9.85 94.65 10.25 L95.1 11.0 97.1 11.0 97.6 10.5 97.75 9.3 97.5 7.8 Q97.2 7.35 94.65 7.3 94.5 6.95 94.5 8.7 M68.6 10.25 Q68.4 10.6 69.05 11.4 69.4 11.75 70.25 12.0 71.6 12.1 72.95 12.05 73.4 11.55 73.3 10.85 72.65 10.55 69.1 9.7 L68.65 10.2 M65.85 36.2 L66.15 38.15 Q66.35 39.2 66.8 40.05 L70.3 40.05 Q70.5 39.75 70.8 39.6 L70.4 36.5 66.85 35.95 Q66.05 35.9 65.85 36.2 M43.65 14.85 L43.85 16.2 44.2 16.7 45.75 16.75 Q46.8 16.75 47.4 16.3 47.6 16.15 47.6 14.4 47.6 13.25 47.25 12.7 L46.55 12.05 43.75 13.15 43.65 14.85 M36.4 29.2 L36.65 30.2 Q37.0 31.0 37.45 31.3 41.55 30.75 41.55 28.35 41.55 27.25 41.2 26.95 L40.35 26.6 38.6 26.85 36.75 27.0 36.4 29.2" fill="#ffffff" fill-opacity="0.7058824" fill-rule="evenodd" stroke="none"/>
      <path d="M36.4 29.2 L36.75 27.0 38.6 26.85 40.35 26.6 41.2 26.95 Q41.55 27.25 41.55 28.35 41.55 30.75 37.45 31.3 37.0 31.0 36.65 30.2 L36.4 29.2 M43.65 14.85 L43.75 13.15 46.55 12.05 47.25 12.7 Q47.6 13.25 47.6 14.4 47.6 16.15 47.4 16.3 46.8 16.75 45.75 16.75 L44.2 16.7 43.85 16.2 43.65 14.85 M65.85 36.2 Q66.05 35.9 66.85 35.95 L70.4 36.5 70.8 39.6 Q70.5 39.75 70.3 40.05 L66.8 40.05 Q66.35 39.2 66.15 38.15 L65.85 36.2 M68.65 10.2 L69.1 9.7 Q72.65 10.55 73.3 10.85 73.4 11.55 72.95 12.05 71.6 12.1 70.25 12.0 69.4 11.75 69.05 11.4 68.4 10.6 68.6 10.25 M94.5 8.7 Q94.5 6.95 94.65 7.3 97.2 7.35 97.5 7.8 L97.75 9.3 97.6 10.5 97.1 11.0 95.1 11.0 94.65 10.25 Q94.5 9.85 94.5 8.7 Z" fill="none" stroke="#000000" stroke-linecap="round" stroke-linejoin="round" stroke-opacity="0.0" stroke-width="1.0"/>
    </g>
  </defs>
</svg>
