<?xml version="1.0" encoding="UTF-8" standalone="no"?>
<svg xmlns:xlink="http://www.w3.org/1999/xlink" height="47.45px" width="141.0px" xmlns="http://www.w3.org/2000/svg">
  <g transform="matrix(1.0, 0.0, 0.0, 1.0, -4.35, -2.9)">
    <use data-characterId="3188" height="47.45" transform="matrix(1.0, 0.0, 0.0, 1.0, 4.35, 2.9)" width="141.0" xlink:href="#morphshape0"/>
    <use data-characterId="3189" height="37.5" transform="matrix(1.0, 0.0, 0.0, 1.0, 17.5, 9.15)" width="116.05" xlink:href="#morphshape1"/>
    <use data-characterId="3190" height="21.8" transform="matrix(1.0, 0.0, 0.0, 1.0, 37.6, 4.7)" width="75.1" xlink:href="#morphshape2"/>
    <use data-characterId="3191" height="35.65" transform="matrix(1.0, 0.0, 0.0, 1.0, 32.35, 6.65)" width="66.65" xlink:href="#morphshape3"/>
  </g>
  <defs>
    <g id="morphshape0" transform="matrix(1.0, 0.0, 0.0, 1.0, -4.35, -2.9)">
      <path d="M4.55 19.05 Q5.0 20.5 8.65 21.35 12.4 22.0 16.45 22.45 24.35 23.35 22.1 25.6 19.25 26.25 19.7 27.65 20.85 28.5 19.3 29.45 17.75 30.15 17.1 31.2 16.8 33.0 18.85 33.65 20.5 34.15 22.5 34.35 26.25 34.6 28.55 35.55 L30.55 36.75 Q28.95 38.8 34.25 39.75 35.35 40.4 42.3 40.4 42.2 41.45 44.65 41.95 42.75 43.4 45.95 44.8 49.5 46.35 54.3 46.5 57.55 46.55 61.95 48.05 66.55 49.55 67.4 49.95 67.4 50.35 72.0 49.05 77.15 47.65 80.85 47.5 L89.75 46.6 Q94.2 46.2 97.45 45.65 104.3 45.65 107.05 43.0 107.95 41.8 109.1 40.05 114.45 39.25 114.0 37.95 121.1 35.6 117.9 34.15 118.2 33.75 116.85 33.6 124.9 32.15 125.0 31.4 127.25 30.4 125.1 29.45 123.85 28.8 121.75 28.2 120.55 27.9 124.7 26.95 128.8 26.0 132.55 23.9 136.3 21.8 134.95 20.4 133.5 18.9 127.2 18.65 124.7 18.4 122.8 18.45 L122.3 18.45 121.7 18.2 Q125.4 16.4 122.5 14.8 122.1 14.3 118.35 13.85 117.35 13.6 116.05 13.55 117.25 9.8 109.55 7.55 98.35 3.9 75.3 3.4 58.35 2.9 37.6 5.65 18.65 8.2 15.7 11.15 12.1 12.25 13.0 12.95 13.9 13.6 16.95 14.2 19.85 14.7 18.05 15.0 16.5 15.05 15.1 15.25 L6.3 16.15 4.85 16.3 Q4.1 17.65 4.75 19.05" fill="#96e0bc" fill-opacity="0.7058824" fill-rule="evenodd" stroke="none"/>
      <path d="M4.75 19.05 Q4.1 17.65 4.85 16.3 L6.3 16.15 15.1 15.25 Q16.5 15.05 18.05 15.0 19.85 14.7 16.95 14.2 13.9 13.6 13.0 12.95 12.1 12.25 15.7 11.15 18.65 8.2 37.6 5.65 58.35 2.9 75.3 3.4 98.35 3.9 109.55 7.55 117.25 9.8 116.05 13.55 117.35 13.6 118.35 13.85 122.1 14.3 122.5 14.8 125.4 16.4 121.7 18.2 L122.3 18.45 122.8 18.45 Q124.7 18.4 127.2 18.65 133.5 18.9 134.95 20.4 136.3 21.8 132.55 23.9 128.8 26.0 124.7 26.95 120.55 27.9 121.75 28.2 123.85 28.8 125.1 29.45 127.25 30.4 125.0 31.4 124.9 32.15 116.85 33.6 118.2 33.75 117.9 34.15 121.1 35.6 114.0 37.95 114.45 39.25 109.1 40.05 107.95 41.8 107.05 43.0 104.3 45.65 97.45 45.65 94.2 46.2 89.75 46.6 L80.85 47.5 Q77.15 47.65 72.0 49.05 67.4 50.35 67.4 49.95 66.55 49.55 61.95 48.05 57.55 46.55 54.3 46.5 49.5 46.35 45.95 44.8 42.75 43.4 44.65 41.95 42.2 41.45 42.3 40.4 35.35 40.4 34.25 39.75 28.95 38.8 30.55 36.75 L28.55 35.55 Q26.25 34.6 22.5 34.35 20.5 34.15 18.85 33.65 16.8 33.0 17.1 31.2 17.75 30.15 19.3 29.45 20.85 28.5 19.7 27.65 19.25 26.25 22.1 25.6 24.35 23.35 16.45 22.45 12.4 22.0 8.65 21.35 5.0 20.5 4.55 19.05" fill="none" stroke="#000000" stroke-linecap="round" stroke-linejoin="round" stroke-opacity="0.0" stroke-width="1.0"/>
    </g>
    <g id="morphshape1" transform="matrix(1.0, 0.0, 0.0, 1.0, -17.5, -9.15)">
      <path d="M116.9 23.35 Q116.9 24.1 117.35 24.8 118.1 25.85 120.95 25.6 L120.2 23.4 Q119.2 23.05 116.9 23.35 M100.0 29.4 Q100.0 29.75 101.1 30.55 L104.4 30.65 106.55 29.65 Q108.75 28.6 109.15 28.1 L107.65 26.9 103.45 26.5 Q100.0 26.7 100.0 29.4 M85.55 35.35 L85.8 36.0 Q86.4 36.45 87.5 36.85 L89.45 37.3 92.25 37.45 92.65 37.35 92.9 37.1 93.1 36.6 93.1 36.15 Q93.05 35.45 92.65 35.1 91.9 34.45 88.5 34.3 87.05 34.5 85.75 34.9 L85.6 35.45 M75.85 40.7 L75.85 40.7 76.35 41.55 Q77.65 41.8 79.05 42.05 L81.7 42.15 85.65 41.95 86.4 41.7 86.85 41.3 87.0 40.5 86.95 40.0 Q86.8 39.2 86.05 38.75 84.85 38.0 79.9 38.15 77.85 38.45 76.3 39.8 L75.8 40.6 M62.35 33.15 L62.9 34.05 69.25 34.45 Q73.3 34.45 76.15 32.2 76.15 30.3 70.1 30.15 63.85 30.05 62.35 33.15 M60.65 42.05 Q60.65 42.55 60.9 42.8 L63.95 42.8 Q64.4 42.55 64.65 40.95 L61.15 41.15 Q60.65 41.5 60.65 42.05 M49.0 36.55 L50.2 37.75 Q52.25 38.9 56.55 38.9 58.1 38.9 59.85 36.75 59.85 33.8 54.45 33.85 49.0 33.9 49.0 36.55 M27.3 28.5 Q27.35 29.1 29.95 30.65 33.2 32.5 36.85 32.45 L40.75 32.3 Q41.9 31.75 42.55 29.8 42.45 26.9 34.85 26.25 27.2 25.55 27.3 28.6 M18.3 17.85 Q18.3 18.3 18.75 19.0 L19.7 19.95 26.55 20.05 Q27.75 19.15 27.75 18.6 27.75 16.75 23.05 16.65 18.3 16.6 18.3 17.85" fill="#bef0d8" fill-opacity="0.7058824" fill-rule="evenodd" stroke="none"/>
      <path d="M18.3 17.85 Q18.3 16.6 23.05 16.65 27.75 16.75 27.75 18.6 27.75 19.15 26.55 20.05 L19.7 19.95 18.75 19.0 Q18.3 18.3 18.3 17.85 M27.3 28.6 Q27.2 25.55 34.85 26.25 42.45 26.9 42.55 29.8 41.9 31.75 40.75 32.3 L36.85 32.45 Q33.2 32.5 29.95 30.65 27.35 29.1 27.3 28.5 M49.0 36.55 Q49.0 33.9 54.45 33.85 59.85 33.8 59.85 36.75 58.1 38.9 56.55 38.9 52.25 38.9 50.2 37.75 L49.0 36.55 M60.65 42.05 Q60.65 41.5 61.15 41.15 L64.65 40.95 Q64.4 42.55 63.95 42.8 L60.9 42.8 Q60.65 42.55 60.65 42.05 M62.35 33.15 Q63.85 30.05 70.1 30.15 76.15 30.3 76.15 32.2 73.3 34.45 69.25 34.45 L62.9 34.05 62.35 33.15 M75.8 40.6 L76.3 39.8 Q77.85 38.45 79.9 38.15 84.85 38.0 86.05 38.75 86.8 39.2 86.95 40.0 L87.0 40.5 86.85 41.3 86.4 41.7 85.65 41.95 81.7 42.15 79.05 42.05 Q77.65 41.8 76.35 41.55 L75.85 40.7 75.85 40.7 M85.6 35.45 L85.75 34.9 Q87.05 34.5 88.5 34.3 91.9 34.45 92.65 35.1 93.05 35.45 93.1 36.15 L93.1 36.6 92.9 37.1 92.65 37.35 92.25 37.45 89.45 37.3 87.5 36.85 Q86.4 36.45 85.8 36.0 L85.55 35.35 M100.0 29.4 Q100.0 26.7 103.45 26.5 L107.65 26.9 109.15 28.1 Q108.75 28.6 106.55 29.65 L104.4 30.65 101.1 30.55 Q100.0 29.75 100.0 29.4 M116.9 23.35 Q119.2 23.05 120.2 23.4 L120.95 25.6 Q118.1 25.85 117.35 24.8 116.9 24.1 116.9 23.35 Z" fill="none" stroke="#000000" stroke-linecap="round" stroke-linejoin="round" stroke-opacity="0.0" stroke-width="1.0"/>
    </g>
    <g id="morphshape2" transform="matrix(1.0, 0.0, 0.0, 1.0, -37.6, -4.7)">
      <path d="M102.2 15.25 Q102.2 16.4 102.45 16.8 L103.25 17.35 Q105.35 16.7 107.05 16.1 107.75 15.6 106.7 12.55 104.3 12.75 103.25 13.4 102.2 14.0 102.2 15.25 M90.25 21.4 Q90.25 22.45 90.85 23.05 L93.9 23.25 Q94.35 22.25 94.1 20.15 L90.35 20.05 90.25 21.4 M88.7 11.55 Q88.7 12.6 89.1 13.5 L95.05 13.5 Q96.1 12.45 96.1 8.95 91.4 8.5 89.75 9.35 88.7 9.95 88.7 11.55 M80.4 21.95 Q80.45 22.9 81.2 24.75 81.85 25.2 83.4 25.35 L84.2 24.15 Q84.7 23.45 84.0 21.65 L80.4 21.95 M78.2 7.6 Q77.8 9.5 78.6 11.0 79.6 12.75 81.85 12.75 83.0 12.75 84.2 11.0 83.35 8.6 81.7 7.95 L78.2 7.6 M66.35 13.5 L66.4 14.95 66.75 15.5 72.2 16.25 75.5 16.65 Q77.25 16.65 76.15 14.2 76.15 11.15 71.25 11.0 66.35 10.9 66.35 13.5 M55.95 12.5 L56.0 13.3 56.05 13.45 Q56.2 13.85 56.45 13.95 56.85 14.1 57.85 14.25 L59.8 13.6 Q60.05 12.45 60.1 11.0 59.7 9.95 59.35 9.1 58.45 8.9 57.55 9.0 55.95 9.95 55.95 12.5 M48.7 20.7 L48.7 20.75 48.8 21.9 49.15 22.3 Q49.6 22.35 50.1 22.35 L52.4 22.4 Q54.35 22.3 56.1 22.3 56.3 21.0 55.6 18.1 54.7 16.5 53.85 15.65 52.55 14.55 51.1 15.05 48.7 16.2 48.7 20.7 M38.15 10.8 L39.25 12.9 Q40.95 15.05 43.95 15.05 47.85 15.05 47.85 11.85 47.85 8.85 43.0 8.05 38.15 7.2 38.15 10.8" fill="#bef0d8" fill-opacity="0.7058824" fill-rule="evenodd" stroke="none"/>
      <path d="M38.15 10.8 Q38.15 7.2 43.0 8.05 47.85 8.85 47.85 11.85 47.85 15.05 43.95 15.05 40.95 15.05 39.25 12.9 L38.15 10.8 M48.7 20.7 Q48.7 16.2 51.1 15.05 52.55 14.55 53.85 15.65 54.7 16.5 55.6 18.1 56.3 21.0 56.1 22.3 54.35 22.3 52.4 22.4 L50.1 22.35 Q49.6 22.35 49.15 22.3 L48.8 21.9 48.7 20.75 48.7 20.7 M55.95 12.5 Q55.95 9.95 57.55 9.0 58.45 8.9 59.35 9.1 59.7 9.95 60.1 11.0 60.05 12.45 59.8 13.6 L57.85 14.25 Q56.85 14.1 56.45 13.95 56.2 13.85 56.05 13.45 L56.0 13.3 55.95 12.5 M66.35 13.5 Q66.35 10.9 71.25 11.0 76.15 11.15 76.15 14.2 77.25 16.65 75.5 16.65 L72.2 16.25 66.75 15.5 66.4 14.95 66.35 13.5 M78.2 7.6 L81.7 7.95 Q83.35 8.6 84.2 11.0 83.0 12.75 81.85 12.75 79.6 12.75 78.6 11.0 77.8 9.5 78.2 7.6 M80.4 21.95 L84.0 21.65 Q84.7 23.45 84.2 24.15 L83.4 25.35 Q81.85 25.2 81.2 24.75 80.45 22.9 80.4 21.95 M88.7 11.55 Q88.7 9.95 89.75 9.35 91.4 8.5 96.1 8.95 96.1 12.45 95.05 13.5 L89.1 13.5 Q88.7 12.6 88.7 11.55 M90.25 21.4 L90.35 20.05 94.1 20.15 Q94.35 22.25 93.9 23.25 L90.85 23.05 Q90.25 22.45 90.25 21.4 M102.2 15.25 Q102.2 14.0 103.25 13.4 104.3 12.75 106.7 12.55 107.75 15.6 107.05 16.1 105.35 16.7 103.25 17.35 L102.45 16.8 Q102.2 16.4 102.2 15.25 Z" fill="none" stroke="#000000" stroke-linecap="round" stroke-linejoin="round" stroke-opacity="0.0" stroke-width="1.0"/>
    </g>
    <g id="morphshape3" transform="matrix(1.0, 0.0, 0.0, 1.0, -32.35, -6.65)">
      <path d="M94.6 8.75 Q94.6 9.9 94.75 10.3 L95.2 11.05 97.2 11.05 97.7 10.55 97.85 9.35 97.6 7.85 Q97.3 7.4 94.75 7.35 94.6 7.0 94.6 8.75 M69.4 13.1 Q69.15 13.45 69.7 14.35 70.25 14.75 70.85 15.1 L73.6 15.45 Q74.1 15.0 74.1 14.3 73.9 13.85 69.95 12.65 L69.4 13.1 M66.2 30.7 L66.5 32.65 Q66.7 33.7 67.15 34.55 L70.65 34.55 Q70.9 34.3 71.15 34.1 L70.75 31.0 67.2 30.45 Q66.4 30.4 66.2 30.7 M40.85 13.35 L41.05 14.7 41.4 15.2 42.95 15.25 Q44.0 15.25 44.6 14.8 44.8 14.65 44.8 12.9 44.8 11.75 44.45 11.2 L43.75 10.55 40.95 11.65 40.85 13.35 M33.2 29.2 L33.45 30.2 Q33.8 31.0 34.25 31.3 38.35 30.75 38.35 28.35 38.35 27.25 38.0 26.95 L37.15 26.6 35.4 26.85 33.55 27.0 33.2 29.2" fill="#ffffff" fill-opacity="0.7058824" fill-rule="evenodd" stroke="none"/>
      <path d="M33.2 29.2 L33.55 27.0 35.4 26.85 37.15 26.6 38.0 26.95 Q38.35 27.25 38.35 28.35 38.35 30.75 34.25 31.3 33.8 31.0 33.45 30.2 L33.2 29.2 M40.85 13.35 L40.95 11.65 43.75 10.55 44.45 11.2 Q44.8 11.75 44.8 12.9 44.8 14.65 44.6 14.8 44.0 15.25 42.95 15.25 L41.4 15.2 41.05 14.7 40.85 13.35 M66.2 30.7 Q66.4 30.4 67.2 30.45 L70.75 31.0 71.15 34.1 Q70.9 34.3 70.65 34.55 L67.15 34.55 Q66.7 33.7 66.5 32.65 L66.2 30.7 M69.4 13.1 L69.95 12.65 Q73.9 13.85 74.1 14.3 74.1 15.0 73.6 15.45 L70.85 15.1 Q70.25 14.75 69.7 14.35 69.15 13.45 69.4 13.1 M94.6 8.75 Q94.6 7.0 94.75 7.35 97.3 7.4 97.6 7.85 L97.85 9.35 97.7 10.55 97.2 11.05 95.2 11.05 94.75 10.3 Q94.6 9.9 94.6 8.75 Z" fill="none" stroke="#000000" stroke-linecap="round" stroke-linejoin="round" stroke-opacity="0.0" stroke-width="1.0"/>
    </g>
  </defs>
</svg>
