<?xml version="1.0" encoding="UTF-8" standalone="no"?>
<svg xmlns:xlink="http://www.w3.org/1999/xlink" height="47.45px" width="141.0px" xmlns="http://www.w3.org/2000/svg">
  <g transform="matrix(1.0, 0.0, 0.0, 1.0, -4.35, -2.9)">
    <use data-characterId="3192" height="47.45" transform="matrix(1.0, 0.0, 0.0, 1.0, 4.35, 2.9)" width="141.0" xlink:href="#morphshape0"/>
    <use data-characterId="3193" height="37.5" transform="matrix(1.0, 0.0, 0.0, 1.0, 17.5, 9.15)" width="116.05" xlink:href="#morphshape1"/>
    <use data-characterId="3194" height="21.8" transform="matrix(1.0, 0.0, 0.0, 1.0, 37.6, 4.7)" width="75.1" xlink:href="#morphshape2"/>
    <use data-characterId="3195" height="35.65" transform="matrix(1.0, 0.0, 0.0, 1.0, 32.35, 6.65)" width="66.65" xlink:href="#morphshape3"/>
  </g>
  <defs>
    <g id="morphshape0" transform="matrix(1.0, 0.0, 0.0, 1.0, -4.35, -2.9)">
      <path d="M4.5 18.85 Q4.8 20.35 9.3 21.3 13.85 22.05 18.95 22.5 27.4 23.35 23.05 25.4 18.15 26.1 20.25 27.55 22.95 28.5 20.5 29.4 18.05 30.1 16.75 31.25 15.75 33.05 18.2 33.65 20.3 34.1 22.25 34.35 25.7 34.65 28.0 35.5 L31.55 36.6 Q29.25 38.55 33.8 39.45 32.8 40.5 41.55 40.45 42.0 41.4 46.05 41.55 42.85 43.25 45.65 44.6 48.75 46.1 54.0 46.3 58.1 46.4 63.2 47.75 68.7 49.1 68.2 49.75 66.95 50.4 71.25 49.25 76.35 48.05 80.2 47.9 L90.15 47.05 Q95.3 46.65 98.5 46.0 104.85 45.85 106.95 43.4 107.45 42.25 108.9 40.35 113.8 39.5 112.1 38.05 121.35 36.0 119.0 34.5 119.7 33.9 117.65 33.7 124.2 32.4 123.85 31.7 127.1 30.6 125.35 29.7 124.35 29.0 121.95 28.35 120.35 27.95 123.05 27.1 125.75 26.25 131.05 24.3 136.35 22.35 136.0 20.9 135.55 19.35 128.85 18.9 125.5 18.45 123.15 18.5 L122.4 18.55 121.85 18.35 Q125.05 16.75 122.45 15.3 123.95 14.65 119.9 14.1 118.25 13.7 116.05 13.65 117.1 10.35 110.4 8.35 99.55 4.6 78.7 3.8 63.15 3.0 41.7 5.4 22.75 7.65 17.1 10.7 10.9 12.1 12.15 12.85 13.4 13.55 18.25 14.2 22.95 14.75 20.45 15.0 18.15 15.05 15.95 15.2 L7.25 16.0 4.85 16.3 Q4.2 17.5 4.8 18.7" fill="#96e0bc" fill-opacity="0.7058824" fill-rule="evenodd" stroke="none"/>
      <path d="M4.8 18.7 Q4.2 17.5 4.85 16.3 L7.25 16.0 15.95 15.2 Q18.15 15.05 20.45 15.0 22.95 14.75 18.25 14.2 13.4 13.55 12.15 12.85 10.9 12.1 17.1 10.7 22.75 7.65 41.7 5.4 63.15 3.0 78.7 3.8 99.55 4.6 110.4 8.35 117.1 10.35 116.05 13.65 118.25 13.7 119.9 14.1 123.95 14.65 122.45 15.3 125.05 16.75 121.85 18.35 L122.4 18.55 123.15 18.5 Q125.5 18.45 128.85 18.9 135.55 19.35 136.0 20.9 136.35 22.35 131.05 24.3 125.75 26.25 123.05 27.1 120.35 27.95 121.95 28.35 124.35 29.0 125.35 29.7 127.1 30.6 123.85 31.7 124.2 32.4 117.65 33.7 119.7 33.9 119.0 34.5 121.35 36.0 112.1 38.05 113.8 39.5 108.9 40.35 107.45 42.25 106.95 43.4 104.85 45.85 98.5 46.0 95.3 46.65 90.15 47.05 L80.2 47.9 Q76.35 48.05 71.25 49.25 66.95 50.4 68.2 49.75 68.7 49.1 63.2 47.75 58.1 46.4 54.0 46.3 48.75 46.1 45.65 44.6 42.85 43.25 46.05 41.55 42.0 41.4 41.55 40.45 32.8 40.5 33.8 39.45 29.25 38.55 31.55 36.6 L28.0 35.5 Q25.7 34.65 22.25 34.35 20.3 34.1 18.2 33.65 15.75 33.05 16.75 31.25 18.05 30.1 20.5 29.4 22.95 28.5 20.25 27.55 18.15 26.1 23.05 25.4 27.4 23.35 18.95 22.5 13.85 22.05 9.3 21.3 4.8 20.35 4.5 18.85" fill="none" stroke="#000000" stroke-linecap="round" stroke-linejoin="round" stroke-opacity="0.0" stroke-width="1.0"/>
    </g>
    <g id="morphshape1" transform="matrix(1.0, 0.0, 0.0, 1.0, -17.5, -9.15)">
      <path d="M118.5 23.1 Q118.5 23.85 118.95 24.55 119.7 25.6 122.55 25.35 L121.8 23.15 Q120.8 22.8 118.5 23.1 M100.4 29.95 Q100.4 30.3 101.5 31.1 L104.8 31.2 106.95 30.2 Q109.15 29.15 109.55 28.65 L108.05 27.45 103.85 27.05 Q100.4 27.25 100.4 29.95 M86.15 36.7 L86.15 36.75 86.45 37.35 Q87.15 37.75 88.3 38.15 L90.35 38.55 93.3 38.65 93.75 38.5 94.05 38.25 94.25 37.7 94.25 37.25 Q94.2 36.5 93.75 36.15 92.95 35.45 89.3 35.35 87.75 35.55 86.4 36.1 L86.2 36.7 M76.35 39.45 L76.8 40.25 Q78.0 40.55 79.35 40.8 L81.9 40.95 85.7 40.8 86.4 40.6 86.8 40.2 86.95 39.45 86.9 38.95 Q86.75 38.2 86.05 37.75 84.9 37.05 80.2 37.15 78.25 37.45 76.75 38.65 L76.3 39.4 M62.2 34.2 L62.75 35.1 69.1 35.5 Q73.15 35.5 76.0 33.25 76.0 31.35 69.95 31.2 63.7 31.1 62.2 34.2 M59.85 41.9 Q59.9 42.35 60.1 42.65 L63.15 42.65 Q63.6 42.4 63.85 40.8 L60.35 41.0 Q59.85 41.35 59.85 41.9 M49.0 36.2 L50.2 37.4 Q52.25 38.55 56.55 38.55 58.1 38.55 59.85 36.4 59.85 33.45 54.45 33.5 49.0 33.55 49.0 36.2 M27.9 28.85 Q27.95 29.45 30.6 30.9 33.9 32.5 37.55 32.45 L41.4 32.2 Q42.55 31.6 43.15 29.6 42.95 26.75 35.35 26.3 27.7 25.85 27.9 28.85 M18.85 16.95 Q18.85 17.4 19.3 18.1 L20.25 19.05 27.1 19.15 Q28.3 18.25 28.3 17.7 28.3 15.85 23.6 15.75 18.85 15.7 18.85 16.95" fill="#bef0d8" fill-opacity="0.7058824" fill-rule="evenodd" stroke="none"/>
      <path d="M18.85 16.95 Q18.85 15.7 23.6 15.75 28.3 15.85 28.3 17.7 28.3 18.25 27.1 19.15 L20.25 19.05 19.3 18.1 Q18.85 17.4 18.85 16.95 M27.9 28.85 Q27.7 25.85 35.35 26.3 42.95 26.75 43.15 29.6 42.55 31.6 41.4 32.2 L37.55 32.45 Q33.9 32.5 30.6 30.9 27.95 29.45 27.9 28.85 M49.0 36.2 Q49.0 33.55 54.45 33.5 59.85 33.45 59.85 36.4 58.1 38.55 56.55 38.55 52.25 38.55 50.2 37.4 L49.0 36.2 M59.85 41.9 Q59.85 41.35 60.35 41.0 L63.85 40.8 Q63.6 42.4 63.15 42.65 L60.1 42.65 Q59.9 42.35 59.85 41.9 M62.2 34.2 Q63.7 31.1 69.95 31.2 76.0 31.35 76.0 33.25 73.15 35.5 69.1 35.5 L62.75 35.1 62.2 34.2 M76.3 39.4 L76.75 38.65 Q78.25 37.45 80.2 37.15 84.9 37.05 86.05 37.75 86.75 38.2 86.9 38.95 L86.95 39.45 86.8 40.2 86.4 40.6 85.7 40.8 81.9 40.95 79.35 40.8 Q78.0 40.55 76.8 40.25 L76.35 39.45 M86.2 36.7 L86.4 36.1 Q87.75 35.55 89.3 35.35 92.95 35.45 93.75 36.15 94.2 36.5 94.25 37.25 L94.25 37.7 94.05 38.25 93.75 38.5 93.3 38.65 90.35 38.55 88.3 38.15 Q87.15 37.75 86.45 37.35 L86.15 36.75 86.15 36.7 M100.4 29.95 Q100.4 27.25 103.85 27.05 L108.05 27.45 109.55 28.65 Q109.15 29.15 106.95 30.2 L104.8 31.2 101.5 31.1 Q100.4 30.3 100.4 29.95 M118.5 23.1 Q120.8 22.8 121.8 23.15 L122.55 25.35 Q119.7 25.6 118.95 24.55 118.5 23.85 118.5 23.1 Z" fill="none" stroke="#000000" stroke-linecap="round" stroke-linejoin="round" stroke-opacity="0.0" stroke-width="1.0"/>
    </g>
    <g id="morphshape2" transform="matrix(1.0, 0.0, 0.0, 1.0, -37.6, -4.7)">
      <path d="M102.9 15.75 Q102.9 16.9 103.15 17.3 L103.95 17.85 Q106.15 17.15 107.75 16.6 108.45 16.1 107.4 13.05 105.0 13.25 103.95 13.9 102.9 14.5 102.9 15.75 M90.75 20.75 Q90.75 21.8 91.35 22.4 L94.4 22.6 Q94.85 21.6 94.6 19.5 L90.85 19.4 90.75 20.75 M89.25 11.25 Q89.25 12.3 89.65 13.2 L95.6 13.2 Q96.65 12.15 96.65 8.65 91.95 8.2 90.3 9.05 89.25 9.65 89.25 11.25 M80.95 21.2 Q81.0 22.15 81.75 24.0 82.4 24.45 83.95 24.6 L84.75 23.4 Q85.25 22.7 84.55 20.9 L80.95 21.2 M77.85 8.55 Q77.45 10.45 78.25 11.95 79.25 13.7 81.5 13.7 82.65 13.7 83.85 11.95 83.0 9.55 81.35 8.9 L77.85 8.55 M66.05 12.95 L66.1 14.4 66.45 14.95 71.9 15.7 75.2 16.1 Q76.95 16.1 75.85 13.65 75.85 10.6 70.95 10.45 66.05 10.35 66.05 12.95 M56.0 13.85 L56.0 14.0 56.05 14.7 56.15 14.9 Q56.35 15.25 56.65 15.3 57.15 15.45 58.2 15.6 L60.45 15.05 Q60.7 13.85 60.6 12.2 60.1 11.05 59.65 10.2 58.7 9.85 57.7 10.0 56.0 11.0 56.0 13.85 M49.2 19.05 L49.3 20.15 49.6 20.5 Q50.0 20.6 50.45 20.65 L52.6 20.75 Q54.45 20.6 56.0 20.55 56.2 19.3 55.65 16.6 54.85 15.1 54.1 14.25 52.85 13.3 51.5 13.75 49.2 14.85 49.2 19.05 M38.5 11.2 L39.6 13.3 Q41.3 15.45 44.3 15.45 48.2 15.45 48.2 12.25 48.2 9.25 43.35 8.45 38.5 7.6 38.5 11.2" fill="#bef0d8" fill-opacity="0.7058824" fill-rule="evenodd" stroke="none"/>
      <path d="M38.5 11.2 Q38.5 7.6 43.35 8.45 48.2 9.25 48.2 12.25 48.2 15.45 44.3 15.45 41.3 15.45 39.6 13.3 L38.5 11.2 M49.2 19.05 Q49.2 14.85 51.5 13.75 52.85 13.3 54.1 14.25 54.85 15.1 55.65 16.6 56.2 19.3 56.0 20.55 54.45 20.6 52.6 20.75 L50.45 20.65 Q50.0 20.6 49.6 20.5 L49.3 20.15 49.2 19.05 M56.0 13.85 Q56.0 11.0 57.7 10.0 58.7 9.85 59.65 10.2 60.1 11.05 60.6 12.2 60.7 13.85 60.45 15.05 L58.2 15.6 Q57.15 15.45 56.65 15.3 56.35 15.25 56.15 14.9 L56.05 14.7 56.0 14.0 56.0 13.85 M66.05 12.95 Q66.05 10.35 70.95 10.45 75.85 10.6 75.85 13.65 76.95 16.1 75.2 16.1 L71.9 15.7 66.45 14.95 66.1 14.4 66.05 12.95 M77.85 8.55 L81.35 8.9 Q83.0 9.55 83.85 11.95 82.65 13.7 81.5 13.7 79.25 13.7 78.25 11.95 77.45 10.45 77.85 8.55 M80.95 21.2 L84.55 20.9 Q85.25 22.7 84.75 23.4 L83.95 24.6 Q82.4 24.45 81.75 24.0 81.0 22.15 80.95 21.2 M89.25 11.25 Q89.25 9.65 90.3 9.05 91.95 8.2 96.65 8.65 96.65 12.15 95.6 13.2 L89.65 13.2 Q89.25 12.3 89.25 11.25 M90.75 20.75 L90.85 19.4 94.6 19.5 Q94.85 21.6 94.4 22.6 L91.35 22.4 Q90.75 21.8 90.75 20.75 M102.9 15.75 Q102.9 14.5 103.95 13.9 105.0 13.25 107.4 13.05 108.45 16.1 107.75 16.6 106.15 17.15 103.95 17.85 L103.15 17.3 Q102.9 16.9 102.9 15.75 Z" fill="none" stroke="#000000" stroke-linecap="round" stroke-linejoin="round" stroke-opacity="0.0" stroke-width="1.0"/>
    </g>
    <g id="morphshape3" transform="matrix(1.0, 0.0, 0.0, 1.0, -32.35, -6.65)">
      <path d="M91.5 10.2 Q91.5 11.35 91.65 11.75 L92.1 12.5 94.1 12.5 94.6 12.0 94.75 10.8 94.5 9.3 Q94.2 8.85 91.65 8.8 91.5 8.45 91.5 10.2 M69.2 13.05 Q69.1 13.45 69.9 14.05 70.5 14.2 71.2 14.3 72.45 14.2 73.8 13.6 74.1 13.0 73.85 12.35 72.15 12.5 69.5 12.4 L69.2 13.05 M66.15 30.8 L66.45 32.75 Q66.65 33.8 67.1 34.65 L70.6 34.65 Q70.85 34.4 71.1 34.2 L70.7 31.1 67.15 30.55 Q66.35 30.5 66.15 30.8 M41.35 13.6 L41.55 14.95 41.9 15.45 43.45 15.5 Q44.5 15.5 45.1 15.05 45.3 14.9 45.3 13.15 45.3 12.0 44.95 11.45 L44.25 10.8 41.45 11.9 41.35 13.6 M33.75 29.2 L34.0 30.2 Q34.35 31.0 34.8 31.3 38.9 30.75 38.9 28.35 38.9 27.25 38.55 26.95 L37.7 26.6 35.95 26.85 34.1 27.0 33.75 29.2" fill="#ffffff" fill-opacity="0.7058824" fill-rule="evenodd" stroke="none"/>
      <path d="M33.75 29.2 L34.1 27.0 35.95 26.85 37.7 26.6 38.55 26.95 Q38.9 27.25 38.9 28.35 38.9 30.75 34.8 31.3 34.35 31.0 34.0 30.2 L33.75 29.2 M41.35 13.6 L41.45 11.9 44.25 10.8 44.95 11.45 Q45.3 12.0 45.3 13.15 45.3 14.9 45.1 15.05 44.5 15.5 43.45 15.5 L41.9 15.45 41.55 14.95 41.35 13.6 M66.15 30.8 Q66.35 30.5 67.15 30.55 L70.7 31.1 71.1 34.2 Q70.85 34.4 70.6 34.65 L67.1 34.65 Q66.65 33.8 66.45 32.75 L66.15 30.8 M69.2 13.05 L69.5 12.4 Q72.15 12.5 73.85 12.35 74.1 13.0 73.8 13.6 72.45 14.2 71.2 14.3 70.5 14.2 69.9 14.05 69.1 13.45 69.2 13.05 M91.5 10.2 Q91.5 8.45 91.65 8.8 94.2 8.85 94.5 9.3 L94.75 10.8 94.6 12.0 94.1 12.5 92.1 12.5 91.65 11.75 Q91.5 11.35 91.5 10.2 Z" fill="none" stroke="#000000" stroke-linecap="round" stroke-linejoin="round" stroke-opacity="0.0" stroke-width="1.0"/>
    </g>
  </defs>
</svg>
