<?xml version="1.0" encoding="UTF-8" standalone="no"?>
<svg xmlns:xlink="http://www.w3.org/1999/xlink" height="47.45px" width="141.0px" xmlns="http://www.w3.org/2000/svg">
  <g transform="matrix(1.0, 0.0, 0.0, 1.0, -4.35, -2.9)">
    <use data-characterId="3188" height="47.45" transform="matrix(1.0, 0.0, 0.0, 1.0, 4.35, 2.9)" width="141.0" xlink:href="#morphshape0"/>
    <use data-characterId="3189" height="37.5" transform="matrix(1.0, 0.0, 0.0, 1.0, 17.5, 9.15)" width="116.05" xlink:href="#morphshape1"/>
    <use data-characterId="3190" height="21.8" transform="matrix(1.0, 0.0, 0.0, 1.0, 37.6, 4.7)" width="75.1" xlink:href="#morphshape2"/>
    <use data-characterId="3191" height="35.65" transform="matrix(1.0, 0.0, 0.0, 1.0, 32.35, 6.65)" width="66.65" xlink:href="#morphshape3"/>
  </g>
  <defs>
    <g id="morphshape0" transform="matrix(1.0, 0.0, 0.0, 1.0, -4.35, -2.9)">
      <path d="M4.85 18.25 Q4.9 19.75 10.45 20.8 16.05 21.7 22.5 22.2 31.65 23.0 24.45 24.8 16.85 25.5 21.15 27.0 25.95 28.15 22.3 29.0 18.65 29.65 16.45 30.95 14.45 32.75 17.4 33.35 20.05 33.8 21.9 34.1 25.0 34.45 27.25 35.15 L32.8 36.15 Q29.5 38.0 33.15 38.85 29.35 40.4 40.55 40.25 41.75 41.05 47.95 40.75 43.05 42.8 45.35 44.1 47.9 45.5 53.75 45.75 59.0 45.9 65.05 47.05 71.75 48.2 69.5 49.2 66.6 50.2 70.5 49.3 75.5 48.35 79.5 48.25 L90.85 47.5 Q96.95 47.1 100.05 46.35 105.7 45.95 106.95 43.8 106.9 42.7 108.8 40.6 113.05 39.7 109.6 38.05 121.75 36.35 120.55 34.75 121.8 33.9 118.8 33.65 123.4 32.55 122.4 31.95 127.0 30.75 125.7 29.85 125.0 29.15 122.15 28.45 119.95 27.95 120.75 27.2 121.55 26.45 128.9 24.7 136.25 22.95 137.2 21.4 138.05 19.8 130.9 19.1 126.45 18.4 123.45 18.45 L122.4 18.5 121.9 18.3 Q124.4 17.0 122.25 15.8 126.35 14.95 121.9 14.25 119.4 13.65 116.05 13.55 116.9 10.9 111.45 9.3 101.05 5.4 83.15 4.15 69.55 2.9 47.15 4.85 28.15 6.65 18.9 9.85 9.2 11.7 10.9 12.55 12.6 13.35 19.85 14.1 27.0 14.7 23.55 14.95 20.25 15.0 17.05 15.15 L8.5 15.85 4.85 16.3 Q4.3 17.25 4.8 18.25" fill="#96e0bc" fill-opacity="0.7058824" fill-rule="evenodd" stroke="none"/>
      <path d="M4.8 18.25 Q4.3 17.25 4.85 16.3 L8.5 15.85 17.05 15.15 Q20.25 15.0 23.55 14.95 27.0 14.7 19.85 14.1 12.6 13.35 10.9 12.55 9.2 11.7 18.9 9.85 28.15 6.65 47.15 4.85 69.55 2.9 83.15 4.15 101.05 5.4 111.45 9.3 116.9 10.9 116.05 13.55 119.4 13.65 121.9 14.25 126.35 14.95 122.25 15.8 124.4 17.0 121.9 18.3 L122.4 18.5 123.45 18.45 Q126.45 18.4 130.9 19.1 138.05 19.8 137.2 21.4 136.25 22.95 128.9 24.7 121.55 26.45 120.75 27.2 119.95 27.95 122.15 28.45 125.0 29.15 125.7 29.85 127.0 30.75 122.4 31.95 123.4 32.55 118.8 33.65 121.8 33.9 120.55 34.75 121.75 36.35 109.6 38.05 113.05 39.7 108.8 40.6 106.9 42.7 106.95 43.8 105.7 45.95 100.05 46.35 96.95 47.1 90.85 47.5 L79.5 48.25 Q75.5 48.35 70.5 49.3 66.6 50.2 69.5 49.2 71.75 48.2 65.05 47.05 59.0 45.9 53.75 45.75 47.9 45.5 45.35 44.1 43.05 42.8 47.95 40.75 41.75 41.05 40.55 40.25 29.35 40.4 33.15 38.85 29.5 38.0 32.8 36.15 L27.25 35.15 Q25.0 34.45 21.9 34.1 20.05 33.8 17.4 33.35 14.45 32.75 16.45 30.95 18.65 29.65 22.3 29.0 25.95 28.15 21.15 27.0 16.85 25.5 24.45 24.8 31.65 23.0 22.5 22.2 16.05 21.7 10.45 20.8 4.9 19.75 4.85 18.25" fill="none" stroke="#000000" stroke-linecap="round" stroke-linejoin="round" stroke-opacity="0.0" stroke-width="1.0"/>
    </g>
    <g id="morphshape1" transform="matrix(1.0, 0.0, 0.0, 1.0, -17.5, -9.15)">
      <path d="M120.6 22.85 Q120.6 23.6 121.05 24.3 121.8 25.35 124.65 25.1 L123.9 22.9 Q122.9 22.55 120.6 22.85 M100.9 30.75 Q100.9 31.1 102.0 31.9 L105.3 32.0 107.45 31.0 Q109.65 29.95 110.05 29.45 L108.55 28.25 104.35 27.85 Q100.9 28.05 100.9 30.75 M86.9 38.35 L87.25 39.05 Q88.1 39.45 89.3 39.8 L91.5 40.1 94.7 40.1 95.25 39.95 95.55 39.65 95.75 39.05 95.75 38.6 Q95.65 37.85 95.1 37.45 94.2 36.75 90.25 36.7 88.6 36.95 87.2 37.7 L86.95 38.35 M76.95 37.8 L76.95 37.85 77.35 38.6 Q78.4 38.9 79.7 39.2 L82.1 39.45 85.65 39.4 86.25 39.2 86.65 38.85 86.8 38.15 86.75 37.65 Q86.65 36.9 86.05 36.5 85.0 35.8 80.6 35.85 78.75 36.1 77.3 37.1 L76.9 37.8 M62.0 35.55 L62.55 36.45 68.9 36.85 Q72.95 36.85 75.8 34.6 75.8 32.7 69.75 32.55 63.5 32.45 62.0 35.55 M58.8 41.65 Q58.85 42.1 59.05 42.4 L62.1 42.4 Q62.55 42.15 62.8 40.55 L59.3 40.75 Q58.8 41.1 58.8 41.65 M49.0 35.75 L50.2 36.95 Q52.25 38.1 56.55 38.1 58.1 38.1 59.85 35.95 59.85 33.0 54.45 33.05 49.0 33.1 49.0 35.75 M28.7 29.05 Q28.8 29.65 31.45 31.0 34.8 32.35 38.45 32.35 L42.3 31.95 Q43.4 31.3 43.95 29.3 43.65 26.45 36.05 26.3 28.4 26.1 28.7 29.1 M19.6 15.65 Q19.6 16.1 20.05 16.8 L21.0 17.75 27.85 17.85 Q29.05 16.95 29.05 16.4 29.05 14.55 24.35 14.45 19.6 14.4 19.6 15.65" fill="#bef0d8" fill-opacity="0.7058824" fill-rule="evenodd" stroke="none"/>
      <path d="M19.6 15.65 Q19.6 14.4 24.35 14.45 29.05 14.55 29.05 16.4 29.05 16.95 27.85 17.85 L21.0 17.75 20.05 16.8 Q19.6 16.1 19.6 15.65 M28.7 29.1 Q28.4 26.1 36.05 26.3 43.65 26.45 43.95 29.3 43.4 31.3 42.3 31.95 L38.45 32.35 Q34.8 32.35 31.45 31.0 28.8 29.65 28.7 29.05 M49.0 35.75 Q49.0 33.1 54.45 33.05 59.85 33.0 59.85 35.95 58.1 38.1 56.55 38.1 52.25 38.1 50.2 36.95 L49.0 35.75 M58.8 41.65 Q58.8 41.1 59.3 40.75 L62.8 40.55 Q62.55 42.15 62.1 42.4 L59.05 42.4 Q58.85 42.1 58.8 41.65 M62.0 35.55 Q63.5 32.45 69.75 32.55 75.8 32.7 75.8 34.6 72.95 36.85 68.9 36.85 L62.55 36.45 62.0 35.55 M76.9 37.8 L77.3 37.1 Q78.75 36.1 80.6 35.85 85.0 35.8 86.05 36.5 86.65 36.9 86.75 37.65 L86.8 38.15 86.65 38.85 86.25 39.2 85.65 39.4 82.1 39.45 79.7 39.2 Q78.4 38.9 77.35 38.6 L76.95 37.85 76.95 37.8 M86.95 38.35 L87.2 37.7 Q88.6 36.95 90.25 36.7 94.2 36.75 95.1 37.45 95.65 37.85 95.75 38.6 L95.75 39.05 95.55 39.65 95.25 39.95 94.7 40.1 91.5 40.1 89.3 39.8 Q88.1 39.45 87.25 39.05 L86.9 38.35 M100.9 30.75 Q100.9 28.05 104.35 27.85 L108.55 28.25 110.05 29.45 Q109.65 29.95 107.45 31.0 L105.3 32.0 102.0 31.9 Q100.9 31.1 100.9 30.75 M120.6 22.85 Q122.9 22.55 123.9 22.9 L124.65 25.1 Q121.8 25.35 121.05 24.3 120.6 23.6 120.6 22.85 Z" fill="none" stroke="#000000" stroke-linecap="round" stroke-linejoin="round" stroke-opacity="0.0" stroke-width="1.0"/>
    </g>
    <g id="morphshape2" transform="matrix(1.0, 0.0, 0.0, 1.0, -37.6, -4.7)">
      <path d="M103.8 16.45 Q103.8 17.6 104.05 18.0 L104.85 18.55 Q107.25 17.85 108.65 17.3 109.35 16.8 108.3 13.75 105.9 13.95 104.85 14.6 103.8 15.2 103.8 16.45 M91.45 19.95 Q91.45 21.0 92.05 21.6 L95.1 21.8 Q95.55 20.8 95.3 18.7 L91.55 18.6 91.45 19.95 M90.0 10.8 Q90.0 11.85 90.4 12.75 L96.35 12.75 Q97.4 11.7 97.4 8.2 92.7 7.75 91.05 8.6 90.0 9.2 90.0 10.8 M81.7 20.2 Q81.75 21.15 82.5 23.0 83.15 23.45 84.7 23.6 L85.5 22.4 Q86.0 21.7 85.3 19.9 L81.7 20.2 M77.4 9.8 Q77.0 11.7 77.8 13.2 78.8 14.95 81.05 14.95 82.2 14.95 83.4 13.2 82.55 10.8 80.9 10.15 L77.4 9.8 M65.65 12.2 L65.7 13.65 66.05 14.2 71.5 14.95 74.8 15.35 Q76.55 15.35 75.45 12.9 75.45 9.85 70.55 9.7 65.65 9.6 65.65 12.2 M56.1 15.75 L56.15 16.65 56.3 16.9 Q56.55 17.15 56.9 17.2 57.55 17.3 58.6 17.4 L61.2 16.95 Q61.45 15.75 61.2 13.8 60.6 12.55 60.05 11.7 59.0 11.15 57.9 11.4 56.0 12.4 56.0 15.65 M49.85 16.85 L49.85 16.95 49.95 17.9 50.2 18.2 Q50.55 18.4 50.95 18.45 L52.9 18.6 Q54.65 18.35 55.95 18.3 56.15 17.05 55.75 14.65 55.05 13.25 54.4 12.4 53.25 11.65 52.0 12.0 49.9 13.1 49.9 16.9 M39.0 11.75 L40.1 13.85 Q41.8 16.0 44.8 16.0 48.7 16.0 48.7 12.8 48.7 9.8 43.85 9.0 39.0 8.15 39.0 11.75" fill="#bef0d8" fill-opacity="0.7058824" fill-rule="evenodd" stroke="none"/>
      <path d="M39.0 11.75 Q39.0 8.15 43.85 9.0 48.7 9.8 48.7 12.8 48.7 16.0 44.8 16.0 41.8 16.0 40.1 13.85 L39.0 11.75 M49.9 16.9 Q49.9 13.1 52.0 12.0 53.25 11.65 54.4 12.4 55.05 13.25 55.75 14.65 56.15 17.05 55.95 18.3 54.65 18.35 52.9 18.6 L50.95 18.45 Q50.55 18.4 50.2 18.2 L49.95 17.9 49.85 16.95 49.85 16.85 M56.0 15.65 Q56.0 12.4 57.9 11.4 59.0 11.15 60.05 11.7 60.6 12.55 61.2 13.8 61.45 15.75 61.2 16.95 L58.6 17.4 Q57.55 17.3 56.9 17.2 56.55 17.15 56.3 16.9 L56.15 16.65 56.1 15.75 M65.65 12.2 Q65.65 9.6 70.55 9.7 75.45 9.85 75.45 12.9 76.55 15.35 74.8 15.35 L71.5 14.95 66.05 14.2 65.7 13.65 65.65 12.2 M77.4 9.8 L80.9 10.15 Q82.55 10.8 83.4 13.2 82.2 14.95 81.05 14.95 78.8 14.95 77.8 13.2 77.0 11.7 77.4 9.8 M81.7 20.2 L85.3 19.9 Q86.0 21.7 85.5 22.4 L84.7 23.6 Q83.15 23.45 82.5 23.0 81.75 21.15 81.7 20.2 M90.0 10.8 Q90.0 9.2 91.05 8.6 92.7 7.75 97.4 8.2 97.4 11.7 96.35 12.75 L90.4 12.75 Q90.0 11.85 90.0 10.8 M91.45 19.95 L91.55 18.6 95.3 18.7 Q95.55 20.8 95.1 21.8 L92.05 21.6 Q91.45 21.0 91.45 19.95 M103.8 16.45 Q103.8 15.2 104.85 14.6 105.9 13.95 108.3 13.75 109.35 16.8 108.65 17.3 107.25 17.85 104.85 18.55 L104.05 18.0 Q103.8 17.6 103.8 16.45 Z" fill="none" stroke="#000000" stroke-linecap="round" stroke-linejoin="round" stroke-opacity="0.0" stroke-width="1.0"/>
    </g>
    <g id="morphshape3" transform="matrix(1.0, 0.0, 0.0, 1.0, -32.35, -6.65)">
      <path d="M94.95 8.6 Q94.95 9.75 95.1 10.15 L95.55 10.9 97.55 10.9 98.05 10.4 98.2 9.2 97.95 7.7 Q97.65 7.25 95.1 7.2 94.95 6.85 94.95 8.6 M69.15 11.9 Q68.9 12.25 69.45 13.15 69.9 13.55 70.6 13.9 L73.35 14.25 Q73.85 13.8 73.85 13.1 73.65 12.65 69.7 11.45 L69.15 11.9 M66.1 33.0 L66.4 34.95 Q66.6 36.0 67.05 36.85 L70.55 36.85 Q70.8 36.6 71.05 36.4 L70.65 33.3 67.1 32.75 Q66.3 32.7 66.1 33.0 M42.0 13.9 L42.2 15.25 42.55 15.75 44.1 15.8 Q45.15 15.8 45.75 15.35 45.95 15.2 45.95 13.45 45.95 12.3 45.6 11.75 L44.9 11.1 42.1 12.2 42.0 13.9 M34.45 29.2 L34.7 30.2 Q35.05 31.0 35.5 31.3 39.6 30.75 39.6 28.35 39.6 27.25 39.25 26.95 L38.4 26.6 36.65 26.85 34.8 27.0 34.45 29.2" fill="#ffffff" fill-opacity="0.7058824" fill-rule="evenodd" stroke="none"/>
      <path d="M34.45 29.2 L34.8 27.0 36.65 26.85 38.4 26.6 39.25 26.95 Q39.6 27.25 39.6 28.35 39.6 30.75 35.5 31.3 35.05 31.0 34.7 30.2 L34.45 29.2 M42.0 13.9 L42.1 12.2 44.9 11.1 45.6 11.75 Q45.95 12.3 45.95 13.45 45.95 15.2 45.75 15.35 45.15 15.8 44.1 15.8 L42.55 15.75 42.2 15.25 42.0 13.9 M66.1 33.0 Q66.3 32.7 67.1 32.75 L70.65 33.3 71.05 36.4 Q70.8 36.6 70.55 36.85 L67.05 36.85 Q66.6 36.0 66.4 34.95 L66.1 33.0 M69.15 11.9 L69.7 11.45 Q73.65 12.65 73.85 13.1 73.85 13.8 73.35 14.25 L70.6 13.9 Q69.9 13.55 69.45 13.15 68.9 12.25 69.15 11.9 M94.95 8.6 Q94.95 6.85 95.1 7.2 97.65 7.25 97.95 7.7 L98.2 9.2 98.05 10.4 97.55 10.9 95.55 10.9 95.1 10.15 Q94.95 9.75 94.95 8.6 Z" fill="none" stroke="#000000" stroke-linecap="round" stroke-linejoin="round" stroke-opacity="0.0" stroke-width="1.0"/>
    </g>
  </defs>
</svg>
