<?xml version="1.0" encoding="UTF-8" standalone="no"?>
<svg xmlns:xlink="http://www.w3.org/1999/xlink" height="47.45px" width="141.0px" xmlns="http://www.w3.org/2000/svg">
  <g transform="matrix(1.0, 0.0, 0.0, 1.0, -4.35, -2.9)">
    <use data-characterId="3188" height="47.45" transform="matrix(1.0, 0.0, 0.0, 1.0, 4.35, 2.9)" width="141.0" xlink:href="#morphshape0"/>
    <use data-characterId="3189" height="37.5" transform="matrix(1.0, 0.0, 0.0, 1.0, 17.5, 9.15)" width="116.05" xlink:href="#morphshape1"/>
    <use data-characterId="3190" height="21.8" transform="matrix(1.0, 0.0, 0.0, 1.0, 37.6, 4.7)" width="75.1" xlink:href="#morphshape2"/>
    <use data-characterId="3191" height="35.65" transform="matrix(1.0, 0.0, 0.0, 1.0, 32.35, 6.65)" width="66.65" xlink:href="#morphshape3"/>
  </g>
  <defs>
    <g id="morphshape0" transform="matrix(1.0, 0.0, 0.0, 1.0, -4.35, -2.9)">
      <path d="M4.9 18.2 Q5.0 19.7 10.2 20.7 15.5 21.55 21.5 22.05 30.4 22.85 24.1 24.75 17.35 25.45 20.95 26.95 25.1 28.05 21.85 28.9 18.55 29.6 16.6 30.85 14.9 32.65 17.7 33.25 20.2 33.7 22.1 34.0 25.3 34.35 27.55 35.1 L32.45 36.15 Q29.45 38.05 33.35 38.9 30.45 40.3 40.9 40.15 41.85 41.0 47.4 40.85 43.05 42.8 45.5 44.1 48.2 45.5 53.85 45.75 58.75 45.9 64.5 47.15 70.8 48.35 69.1 49.25 66.75 50.15 70.75 49.15 75.8 48.1 79.75 48.0 L90.65 47.25 Q96.45 46.85 99.6 46.15 105.5 45.85 107.0 43.65 107.1 42.55 108.85 40.5 113.3 39.6 110.4 38.0 121.65 36.2 120.1 34.6 121.2 33.85 118.5 33.6 123.7 32.45 122.9 31.8 127.1 30.65 125.65 29.75 124.85 29.05 122.15 28.35 120.15 27.9 121.55 27.15 122.95 26.4 129.65 24.55 136.4 22.7 136.95 21.15 137.4 19.55 130.4 18.95 126.3 18.35 123.5 18.4 L122.55 18.45 122.05 18.25 Q124.75 16.85 122.45 15.6 125.75 14.85 121.4 14.2 119.15 13.65 116.15 13.6 117.05 10.75 111.2 9.05 100.65 5.2 81.85 4.1 67.65 3.0 45.55 5.05 26.55 7.0 18.4 10.15 9.75 11.85 11.3 12.65 12.85 13.4 19.4 14.1 25.8 14.7 22.65 14.95 19.65 15.0 16.75 15.15 L8.15 15.9 4.9 16.3 Q4.3 17.3 4.8 18.35" fill="#96e0bc" fill-opacity="0.7058824" fill-rule="evenodd" stroke="none"/>
      <path d="M4.8 18.35 Q4.3 17.3 4.9 16.3 L8.15 15.9 16.75 15.15 Q19.65 15.0 22.65 14.95 25.8 14.7 19.4 14.1 12.85 13.4 11.3 12.65 9.75 11.85 18.4 10.15 26.55 7.0 45.55 5.05 67.65 3.0 81.85 4.1 100.65 5.2 111.2 9.05 117.05 10.75 116.15 13.6 119.15 13.65 121.4 14.2 125.75 14.85 122.45 15.6 124.75 16.85 122.05 18.25 L122.55 18.45 123.5 18.4 Q126.3 18.35 130.4 18.95 137.4 19.55 136.95 21.15 136.4 22.7 129.65 24.55 122.95 26.4 121.55 27.15 120.15 27.9 122.15 28.35 124.85 29.05 125.65 29.75 127.1 30.65 122.9 31.8 123.7 32.45 118.5 33.6 121.2 33.85 120.1 34.6 121.65 36.2 110.4 38.0 113.3 39.6 108.85 40.5 107.1 42.55 107.0 43.65 105.5 45.85 99.6 46.15 96.45 46.85 90.65 47.25 L79.75 48.0 Q75.8 48.1 70.75 49.15 66.75 50.15 69.1 49.25 70.8 48.35 64.5 47.15 58.75 45.9 53.85 45.75 48.2 45.5 45.5 44.1 43.05 42.8 47.4 40.85 41.85 41.0 40.9 40.15 30.45 40.3 33.35 38.9 29.45 38.05 32.45 36.15 L27.55 35.1 Q25.3 34.35 22.1 34.0 20.2 33.7 17.7 33.25 14.9 32.65 16.6 30.85 18.55 29.6 21.85 28.9 25.1 28.05 20.95 26.95 17.35 25.45 24.1 24.75 30.4 22.85 21.5 22.05 15.5 21.55 10.2 20.7 5.0 19.7 4.9 18.2" fill="none" stroke="#000000" stroke-linecap="round" stroke-linejoin="round" stroke-opacity="0.0" stroke-width="1.0"/>
    </g>
    <g id="morphshape1" transform="matrix(1.0, 0.0, 0.0, 1.0, -17.5, -9.15)">
      <path d="M119.95 22.95 Q119.95 23.7 120.4 24.4 121.15 25.45 124.0 25.2 L123.25 23.0 Q122.25 22.65 119.95 22.95 M100.75 30.5 Q100.75 30.85 101.85 31.65 L105.15 31.75 107.3 30.75 Q109.5 29.7 109.9 29.2 L108.4 28.0 104.2 27.6 Q100.75 27.8 100.75 30.5 M86.65 37.8 L87.0 38.5 Q87.8 38.9 89.0 39.25 L91.15 39.6 94.3 39.65 94.8 39.5 95.1 39.2 95.3 38.6 95.3 38.15 Q95.25 37.4 94.75 37.05 93.85 36.35 90.0 36.3 88.35 36.5 86.95 37.2 L86.7 37.85 M76.75 38.35 L76.75 38.4 77.15 39.15 Q78.25 39.45 79.55 39.75 L82.0 39.95 85.6 39.85 86.25 39.65 86.65 39.3 86.8 38.6 86.75 38.1 Q86.6 37.35 85.95 36.9 84.9 36.2 80.4 36.25 78.55 36.55 77.1 37.6 L76.7 38.3 M62.1 35.1 L62.65 36.0 69.0 36.4 Q73.05 36.4 75.9 34.15 75.9 32.25 69.85 32.1 63.6 32.0 62.1 35.1 M59.1 41.7 Q59.15 42.15 59.35 42.45 L62.4 42.45 Q62.85 42.2 63.1 40.6 L59.6 40.8 Q59.1 41.15 59.1 41.7 M49.0 35.9 L50.2 37.1 Q52.25 38.25 56.55 38.25 58.1 38.25 59.85 36.1 59.85 33.15 54.45 33.2 49.0 33.25 49.0 35.9 M28.45 29.0 Q28.5 29.6 31.15 31.0 34.5 32.45 38.15 32.4 L42.0 32.05 Q43.15 31.4 43.7 29.4 43.45 26.55 35.85 26.3 28.2 26.0 28.45 29.0 M19.35 16.05 Q19.35 16.5 19.8 17.2 L20.75 18.15 27.6 18.25 Q28.8 17.35 28.8 16.8 28.8 14.95 24.1 14.85 19.35 14.8 19.35 16.05" fill="#bef0d8" fill-opacity="0.7058824" fill-rule="evenodd" stroke="none"/>
      <path d="M19.35 16.05 Q19.35 14.8 24.1 14.85 28.8 14.95 28.8 16.8 28.8 17.35 27.6 18.25 L20.75 18.15 19.8 17.2 Q19.35 16.5 19.35 16.05 M28.45 29.0 Q28.2 26.0 35.85 26.3 43.45 26.55 43.7 29.4 43.15 31.4 42.0 32.05 L38.15 32.4 Q34.5 32.45 31.15 31.0 28.5 29.6 28.45 29.0 M49.0 35.9 Q49.0 33.25 54.45 33.2 59.85 33.15 59.85 36.1 58.1 38.25 56.55 38.25 52.25 38.25 50.2 37.1 L49.0 35.9 M59.1 41.7 Q59.1 41.15 59.6 40.8 L63.1 40.6 Q62.85 42.2 62.4 42.45 L59.35 42.45 Q59.15 42.15 59.1 41.7 M62.1 35.1 Q63.6 32.0 69.85 32.1 75.9 32.25 75.9 34.15 73.05 36.4 69.0 36.4 L62.65 36.0 62.1 35.1 M76.7 38.3 L77.1 37.6 Q78.55 36.55 80.4 36.25 84.9 36.2 85.95 36.9 86.6 37.35 86.75 38.1 L86.8 38.6 86.65 39.3 86.25 39.65 85.6 39.85 82.0 39.95 79.55 39.75 Q78.25 39.45 77.15 39.15 L76.75 38.4 76.75 38.35 M86.7 37.85 L86.95 37.2 Q88.35 36.5 90.0 36.3 93.85 36.35 94.75 37.05 95.25 37.4 95.3 38.15 L95.3 38.6 95.1 39.2 94.8 39.5 94.3 39.65 91.15 39.6 89.0 39.25 Q87.8 38.9 87.0 38.5 L86.65 37.8 M100.75 30.5 Q100.75 27.8 104.2 27.6 L108.4 28.0 109.9 29.2 Q109.5 29.7 107.3 30.75 L105.15 31.75 101.85 31.65 Q100.75 30.85 100.75 30.5 M119.95 22.95 Q122.25 22.65 123.25 23.0 L124.0 25.2 Q121.15 25.45 120.4 24.4 119.95 23.7 119.95 22.95 Z" fill="none" stroke="#000000" stroke-linecap="round" stroke-linejoin="round" stroke-opacity="0.0" stroke-width="1.0"/>
    </g>
    <g id="morphshape2" transform="matrix(1.0, 0.0, 0.0, 1.0, -37.6, -4.7)">
      <path d="M103.5 16.2 Q103.5 17.35 103.75 17.75 L104.55 18.3 Q106.9 17.6 108.35 17.05 109.05 16.55 108.0 13.5 105.6 13.7 104.55 14.35 103.5 14.95 103.5 16.2 M91.2 20.2 Q91.2 21.25 91.8 21.85 L94.85 22.05 Q95.3 21.05 95.05 18.95 L91.3 18.85 91.2 20.2 M89.75 10.95 Q89.75 12.0 90.15 12.9 L96.1 12.9 Q97.15 11.85 97.15 8.35 92.45 7.9 90.8 8.75 89.75 9.35 89.75 10.95 M81.45 20.5 Q81.5 21.45 82.25 23.3 82.9 23.75 84.45 23.9 L85.25 22.7 Q85.75 22.0 85.05 20.2 L81.45 20.5 M77.55 9.4 Q77.15 11.3 77.95 12.8 78.95 14.55 81.2 14.55 82.35 14.55 83.55 12.8 82.7 10.4 81.05 9.75 L77.55 9.4 M65.75 12.45 L65.8 13.9 66.15 14.45 71.6 15.2 74.9 15.6 Q76.65 15.6 75.55 13.15 75.55 10.1 70.65 9.95 65.75 9.85 65.75 12.45 M56.0 15.05 L56.05 15.95 56.2 16.2 Q56.45 16.5 56.8 16.55 57.4 16.7 58.45 16.85 L60.9 16.35 Q61.15 15.15 60.95 13.25 60.4 12.05 59.9 11.2 58.9 10.75 57.85 10.95 56.0 11.95 56.0 15.1 M49.65 17.6 L49.65 17.65 49.75 18.65 50.0 18.95 Q50.35 19.1 50.75 19.15 L52.8 19.3 Q54.6 19.05 56.0 19.0 56.2 17.75 55.75 15.3 55.0 13.85 54.3 13.0 53.1 12.15 51.8 12.55 49.65 13.65 49.65 17.55 M38.85 11.6 L39.95 13.7 Q41.65 15.85 44.65 15.85 48.55 15.85 48.55 12.65 48.55 9.65 43.7 8.85 38.85 8.0 38.85 11.6" fill="#bef0d8" fill-opacity="0.7058824" fill-rule="evenodd" stroke="none"/>
      <path d="M38.85 11.6 Q38.85 8.0 43.7 8.85 48.55 9.65 48.55 12.65 48.55 15.85 44.65 15.85 41.65 15.85 39.95 13.7 L38.85 11.6 M49.65 17.55 Q49.65 13.65 51.8 12.55 53.1 12.15 54.3 13.0 55.0 13.85 55.75 15.3 56.2 17.75 56.0 19.0 54.6 19.05 52.8 19.3 L50.75 19.15 Q50.35 19.1 50.0 18.95 L49.75 18.65 49.65 17.65 49.65 17.6 M56.0 15.1 Q56.0 11.95 57.85 10.95 58.9 10.75 59.9 11.2 60.4 12.05 60.95 13.25 61.15 15.15 60.9 16.35 L58.45 16.85 Q57.4 16.7 56.8 16.55 56.45 16.5 56.2 16.2 L56.05 15.95 56.0 15.05 M65.75 12.45 Q65.75 9.85 70.65 9.95 75.55 10.1 75.55 13.15 76.65 15.6 74.9 15.6 L71.6 15.2 66.15 14.45 65.8 13.9 65.75 12.45 M77.55 9.4 L81.05 9.75 Q82.7 10.4 83.55 12.8 82.35 14.55 81.2 14.55 78.95 14.55 77.95 12.8 77.15 11.3 77.55 9.4 M81.45 20.5 L85.05 20.2 Q85.75 22.0 85.25 22.7 L84.45 23.9 Q82.9 23.75 82.25 23.3 81.5 21.45 81.45 20.5 M89.75 10.95 Q89.75 9.35 90.8 8.75 92.45 7.9 97.15 8.35 97.15 11.85 96.1 12.9 L90.15 12.9 Q89.75 12.0 89.75 10.95 M91.2 20.2 L91.3 18.85 95.05 18.95 Q95.3 21.05 94.85 22.05 L91.8 21.85 Q91.2 21.25 91.2 20.2 M103.5 16.2 Q103.5 14.95 104.55 14.35 105.6 13.7 108.0 13.5 109.05 16.55 108.35 17.05 106.9 17.6 104.55 18.3 L103.75 17.75 Q103.5 17.35 103.5 16.2 Z" fill="none" stroke="#000000" stroke-linecap="round" stroke-linejoin="round" stroke-opacity="0.0" stroke-width="1.0"/>
    </g>
    <g id="morphshape3" transform="matrix(1.0, 0.0, 0.0, 1.0, -32.35, -6.65)">
      <path d="M94.9 8.6 Q94.9 9.75 95.05 10.15 L95.5 10.9 97.5 10.9 98.0 10.4 98.15 9.2 97.9 7.7 Q97.6 7.25 95.05 7.2 94.9 6.85 94.9 8.6 M69.2 12.1 Q68.95 12.45 69.5 13.35 69.95 13.75 70.65 14.1 L73.4 14.45 Q73.9 14.0 73.9 13.3 73.7 12.85 69.75 11.65 L69.2 12.1 M66.1 32.6 L66.4 34.55 Q66.6 35.6 67.05 36.45 L70.55 36.45 Q70.8 36.2 71.05 36.0 L70.65 32.9 67.1 32.35 Q66.3 32.3 66.1 32.6 M41.8 13.8 L42.0 15.15 42.35 15.65 43.9 15.7 Q44.95 15.7 45.55 15.25 45.75 15.1 45.75 13.35 45.75 12.2 45.4 11.65 L44.7 11.0 41.9 12.1 41.8 13.8 M34.25 29.2 L34.5 30.2 Q34.85 31.0 35.3 31.3 39.4 30.75 39.4 28.35 39.4 27.25 39.05 26.95 L38.2 26.6 36.45 26.85 34.6 27.0 34.25 29.2" fill="#ffffff" fill-opacity="0.7058824" fill-rule="evenodd" stroke="none"/>
      <path d="M34.25 29.2 L34.6 27.0 36.45 26.85 38.2 26.6 39.05 26.95 Q39.4 27.25 39.4 28.35 39.4 30.75 35.3 31.3 34.85 31.0 34.5 30.2 L34.25 29.2 M41.8 13.8 L41.9 12.1 44.7 11.0 45.4 11.65 Q45.75 12.2 45.75 13.35 45.75 15.1 45.55 15.25 44.95 15.7 43.9 15.7 L42.35 15.65 42.0 15.15 41.8 13.8 M66.1 32.6 Q66.3 32.3 67.1 32.35 L70.65 32.9 71.05 36.0 Q70.8 36.2 70.55 36.45 L67.05 36.45 Q66.6 35.6 66.4 34.55 L66.1 32.6 M69.2 12.1 L69.75 11.65 Q73.7 12.85 73.9 13.3 73.9 14.0 73.4 14.45 L70.65 14.1 Q69.95 13.75 69.5 13.35 68.95 12.45 69.2 12.1 M94.9 8.6 Q94.9 6.85 95.05 7.2 97.6 7.25 97.9 7.7 L98.15 9.2 98.0 10.4 97.5 10.9 95.5 10.9 95.05 10.15 Q94.9 9.75 94.9 8.6 Z" fill="none" stroke="#000000" stroke-linecap="round" stroke-linejoin="round" stroke-opacity="0.0" stroke-width="1.0"/>
    </g>
  </defs>
</svg>
