<?xml version="1.0" encoding="UTF-8" standalone="no"?>
<svg xmlns:xlink="http://www.w3.org/1999/xlink" height="47.45px" width="141.0px" xmlns="http://www.w3.org/2000/svg">
  <g transform="matrix(1.0, 0.0, 0.0, 1.0, -4.35, -2.9)">
    <use data-characterId="3188" height="47.45" transform="matrix(1.0, 0.0, 0.0, 1.0, 4.35, 2.9)" width="141.0" xlink:href="#morphshape0"/>
    <use data-characterId="3189" height="37.5" transform="matrix(1.0, 0.0, 0.0, 1.0, 17.5, 9.15)" width="116.05" xlink:href="#morphshape1"/>
    <use data-characterId="3190" height="21.8" transform="matrix(1.0, 0.0, 0.0, 1.0, 37.6, 4.7)" width="75.1" xlink:href="#morphshape2"/>
    <use data-characterId="3191" height="35.65" transform="matrix(1.0, 0.0, 0.0, 1.0, 32.35, 6.65)" width="66.65" xlink:href="#morphshape3"/>
  </g>
  <defs>
    <g id="morphshape0" transform="matrix(1.0, 0.0, 0.0, 1.0, -4.35, -2.9)">
      <path d="M4.7 19.0 Q5.15 20.45 8.7 21.25 12.35 21.85 16.3 22.3 24.1 23.2 22.15 25.45 19.6 26.1 19.8 27.5 20.75 28.3 19.35 29.25 17.9 29.95 17.35 31.0 17.15 32.8 19.15 33.45 20.7 33.95 22.7 34.15 26.5 34.4 28.8 35.35 L30.6 36.55 Q29.1 38.6 34.5 39.55 35.9 40.15 42.6 40.15 42.4 41.25 44.6 41.8 42.85 43.2 46.1 44.65 49.7 46.2 54.4 46.3 57.55 46.35 61.85 47.85 66.3 49.35 67.3 49.7 67.45 50.05 72.1 48.7 77.25 47.3 80.95 47.15 L89.7 46.25 Q94.05 45.85 97.3 45.35 104.2 45.4 107.0 42.7 107.95 41.5 109.05 39.8 114.5 39.0 114.25 37.75 121.05 35.4 117.75 33.95 118.0 33.6 116.75 33.45 125.0 32.0 125.15 31.25 127.3 30.25 125.1 29.3 123.8 28.65 121.75 28.05 120.6 27.75 124.95 26.8 129.25 25.85 132.75 23.75 136.3 21.65 134.85 20.25 133.25 18.75 127.0 18.55 124.65 18.35 122.85 18.4 L122.4 18.4 121.8 18.15 Q125.55 16.35 122.6 14.7 121.9 14.2 118.2 13.8 117.3 13.55 116.1 13.5 117.3 9.7 109.5 7.4 98.25 3.75 74.9 3.3 57.75 2.85 37.1 5.65 18.15 8.25 15.55 11.2 12.3 12.25 13.15 12.95 14.0 13.6 16.8 14.2 19.45 14.7 17.75 15.0 16.3 15.05 15.0 15.25 L6.2 16.2 4.85 16.35 Q4.05 17.7 4.75 19.1" fill="#96e0bc" fill-opacity="0.7058824" fill-rule="evenodd" stroke="none"/>
      <path d="M4.75 19.1 Q4.05 17.7 4.85 16.35 L6.2 16.2 15.0 15.25 Q16.3 15.05 17.75 15.0 19.45 14.7 16.8 14.2 14.0 13.6 13.15 12.95 12.3 12.25 15.55 11.2 18.15 8.25 37.1 5.65 57.75 2.85 74.9 3.3 98.25 3.75 109.5 7.4 117.3 9.7 116.1 13.5 117.3 13.55 118.2 13.8 121.9 14.2 122.6 14.7 125.55 16.35 121.8 18.15 L122.4 18.4 122.85 18.4 Q124.65 18.35 127.0 18.55 133.25 18.75 134.85 20.25 136.3 21.65 132.75 23.75 129.25 25.85 124.95 26.8 120.6 27.75 121.75 28.05 123.8 28.65 125.1 29.3 127.3 30.25 125.15 31.25 125.0 32.0 116.75 33.45 118.0 33.6 117.75 33.95 121.05 35.4 114.25 37.75 114.5 39.0 109.05 39.8 107.95 41.5 107.0 42.7 104.2 45.4 97.3 45.35 94.05 45.85 89.7 46.25 L80.95 47.15 Q77.25 47.3 72.1 48.7 67.45 50.05 67.3 49.7 66.3 49.35 61.85 47.85 57.55 46.35 54.4 46.3 49.7 46.2 46.1 44.65 42.85 43.2 44.6 41.8 42.4 41.25 42.6 40.15 35.9 40.15 34.5 39.55 29.1 38.6 30.6 36.55 L28.8 35.35 Q26.5 34.4 22.7 34.15 20.7 33.95 19.15 33.45 17.15 32.8 17.35 31.0 17.9 29.95 19.35 29.25 20.75 28.3 19.8 27.5 19.6 26.1 22.15 25.45 24.1 23.2 16.3 22.3 12.35 21.85 8.7 21.25 5.15 20.45 4.7 19.0" fill="none" stroke="#000000" stroke-linecap="round" stroke-linejoin="round" stroke-opacity="0.0" stroke-width="1.0"/>
    </g>
    <g id="morphshape1" transform="matrix(1.0, 0.0, 0.0, 1.0, -17.5, -9.15)">
      <path d="M116.65 23.35 Q116.65 24.1 117.1 24.8 117.85 25.85 120.7 25.6 L119.95 23.4 Q118.95 23.05 116.65 23.35 M99.95 29.3 Q99.95 29.65 101.05 30.45 L104.35 30.55 106.5 29.55 Q108.7 28.5 109.1 28.0 L107.6 26.8 103.4 26.4 Q99.95 26.6 99.95 29.3 M85.65 35.25 L85.9 35.9 Q86.45 36.35 87.55 36.75 L89.45 37.2 92.2 37.35 92.6 37.25 92.85 37.0 93.05 36.5 93.05 36.05 Q93.0 35.35 92.6 35.0 91.85 34.35 88.45 34.2 87.0 34.4 85.7 34.75 L85.55 35.3 M75.65 40.8 L75.65 40.8 76.15 41.65 Q77.5 41.9 78.9 42.15 L81.6 42.25 85.6 42.05 86.35 41.8 86.8 41.4 86.95 40.6 86.9 40.1 Q86.75 39.3 86.0 38.85 84.8 38.1 79.85 38.25 77.8 38.55 76.25 39.95 L75.75 40.75 M62.35 33.05 L62.9 33.95 69.25 34.35 Q73.3 34.35 76.15 32.1 76.15 30.2 70.1 30.05 63.85 29.95 62.35 33.05 M60.75 42.05 Q60.75 42.55 61.0 42.8 L64.05 42.8 Q64.5 42.55 64.75 40.95 L61.25 41.15 Q60.75 41.5 60.75 42.05 M49.0 36.6 L50.2 37.8 Q52.25 38.95 56.55 38.95 58.1 38.95 59.85 36.8 59.85 33.85 54.45 33.9 49.0 33.95 49.0 36.6 M27.2 28.55 Q27.25 29.15 29.85 30.7 33.1 32.55 36.75 32.5 L40.65 32.35 Q41.8 31.8 42.5 29.85 42.4 26.95 34.8 26.25 27.15 25.55 27.25 28.6 M18.25 18.0 Q18.25 18.45 18.7 19.15 L19.65 20.1 26.5 20.2 Q27.7 19.3 27.7 18.75 27.7 16.9 23.0 16.8 18.25 16.75 18.25 18.0" fill="#bef0d8" fill-opacity="0.7058824" fill-rule="evenodd" stroke="none"/>
      <path d="M18.25 18.0 Q18.25 16.75 23.0 16.8 27.7 16.9 27.7 18.75 27.7 19.3 26.5 20.2 L19.65 20.1 18.7 19.15 Q18.25 18.45 18.25 18.0 M27.25 28.6 Q27.15 25.55 34.8 26.25 42.4 26.95 42.5 29.85 41.8 31.8 40.65 32.35 L36.75 32.5 Q33.1 32.55 29.85 30.7 27.25 29.15 27.2 28.55 M49.0 36.6 Q49.0 33.95 54.45 33.9 59.85 33.85 59.85 36.8 58.1 38.95 56.55 38.95 52.25 38.95 50.2 37.8 L49.0 36.6 M60.75 42.05 Q60.75 41.5 61.25 41.15 L64.75 40.95 Q64.5 42.55 64.05 42.8 L61.0 42.8 Q60.75 42.55 60.75 42.05 M62.35 33.05 Q63.85 29.95 70.1 30.05 76.15 30.2 76.15 32.1 73.3 34.35 69.25 34.35 L62.9 33.95 62.35 33.05 M75.75 40.75 L76.25 39.95 Q77.8 38.55 79.85 38.25 84.8 38.1 86.0 38.85 86.75 39.3 86.9 40.1 L86.95 40.6 86.8 41.4 86.35 41.8 85.6 42.05 81.6 42.25 78.9 42.15 Q77.5 41.9 76.15 41.65 L75.65 40.8 75.65 40.8 M85.55 35.3 L85.7 34.75 Q87.0 34.4 88.45 34.2 91.85 34.35 92.6 35.0 93.0 35.35 93.05 36.05 L93.05 36.5 92.85 37.0 92.6 37.25 92.2 37.35 89.45 37.2 87.55 36.75 Q86.45 36.35 85.9 35.9 L85.65 35.25 M99.95 29.3 Q99.95 26.6 103.4 26.4 L107.6 26.8 109.1 28.0 Q108.7 28.5 106.5 29.55 L104.35 30.55 101.05 30.45 Q99.95 29.65 99.95 29.3 M116.65 23.35 Q118.95 23.05 119.95 23.4 L120.7 25.6 Q117.85 25.85 117.1 24.8 116.65 24.1 116.65 23.35 Z" fill="none" stroke="#000000" stroke-linecap="round" stroke-linejoin="round" stroke-opacity="0.0" stroke-width="1.0"/>
    </g>
    <g id="morphshape2" transform="matrix(1.0, 0.0, 0.0, 1.0, -37.6, -4.7)">
      <path d="M102.1 15.2 Q102.1 16.35 102.35 16.75 L103.15 17.3 Q105.2 16.65 106.95 16.05 107.65 15.55 106.6 12.5 104.2 12.7 103.15 13.35 102.1 13.95 102.1 15.2 M90.2 21.45 Q90.2 22.5 90.8 23.1 L93.85 23.3 Q94.3 22.3 94.05 20.2 L90.3 20.1 90.2 21.45 M88.6 11.6 Q88.6 12.65 89.0 13.55 L94.95 13.55 Q96.0 12.5 96.0 9.0 91.3 8.55 89.65 9.4 88.6 10.0 88.6 11.6 M80.35 22.05 Q80.4 23.0 81.15 24.85 81.8 25.3 83.35 25.45 L84.15 24.25 Q84.65 23.55 83.95 21.75 L80.35 22.05 M78.25 7.5 Q77.85 9.4 78.65 10.9 79.65 12.65 81.9 12.65 83.05 12.65 84.25 10.9 83.4 8.5 81.75 7.85 L78.25 7.5 M66.4 13.6 L66.45 15.05 66.8 15.6 72.25 16.35 75.55 16.75 Q77.3 16.75 76.2 14.3 76.2 11.25 71.3 11.1 66.4 11.0 66.4 13.6 M55.95 12.3 L56.0 13.1 56.05 13.25 Q56.15 13.65 56.4 13.75 56.8 13.9 57.8 14.05 L59.7 13.4 Q59.95 12.25 60.0 10.85 59.6 9.85 59.25 9.0 58.35 8.8 57.5 8.9 55.95 9.85 55.95 12.35 M48.65 20.95 L48.65 21.0 48.75 22.15 49.1 22.55 Q49.6 22.6 50.1 22.6 L52.4 22.65 Q54.35 22.55 56.15 22.55 56.35 21.25 55.65 18.3 54.75 16.65 53.9 15.8 52.6 14.7 51.1 15.2 48.65 16.35 48.65 20.9 M38.1 10.7 L39.2 12.8 Q40.9 14.95 43.9 14.95 47.8 14.95 47.8 11.75 47.8 8.75 42.95 7.95 38.1 7.1 38.1 10.7" fill="#bef0d8" fill-opacity="0.7058824" fill-rule="evenodd" stroke="none"/>
      <path d="M38.1 10.7 Q38.1 7.1 42.95 7.95 47.8 8.75 47.8 11.75 47.8 14.95 43.9 14.95 40.9 14.95 39.2 12.8 L38.1 10.7 M48.65 20.9 Q48.65 16.35 51.1 15.2 52.6 14.7 53.9 15.8 54.75 16.65 55.65 18.3 56.35 21.25 56.15 22.55 54.35 22.55 52.4 22.65 L50.1 22.6 Q49.6 22.6 49.1 22.55 L48.75 22.15 48.65 21.0 48.65 20.95 M55.95 12.35 Q55.95 9.85 57.5 8.9 58.35 8.8 59.25 9.0 59.6 9.85 60.0 10.85 59.95 12.25 59.7 13.4 L57.8 14.05 Q56.8 13.9 56.4 13.75 56.15 13.65 56.05 13.25 L56.0 13.1 55.95 12.3 M66.4 13.6 Q66.4 11.0 71.3 11.1 76.2 11.25 76.2 14.3 77.3 16.75 75.55 16.75 L72.25 16.35 66.8 15.6 66.45 15.05 66.4 13.6 M78.25 7.5 L81.75 7.85 Q83.4 8.5 84.25 10.9 83.05 12.65 81.9 12.65 79.65 12.65 78.65 10.9 77.85 9.4 78.25 7.5 M80.35 22.05 L83.95 21.75 Q84.65 23.55 84.15 24.25 L83.35 25.45 Q81.8 25.3 81.15 24.85 80.4 23.0 80.35 22.05 M88.6 11.6 Q88.6 10.0 89.65 9.4 91.3 8.55 96.0 9.0 96.0 12.5 94.95 13.55 L89.0 13.55 Q88.6 12.65 88.6 11.6 M90.2 21.45 L90.3 20.1 94.05 20.2 Q94.3 22.3 93.85 23.3 L90.8 23.1 Q90.2 22.5 90.2 21.45 M102.1 15.2 Q102.1 13.95 103.15 13.35 104.2 12.7 106.6 12.5 107.65 15.55 106.95 16.05 105.2 16.65 103.15 17.3 L102.35 16.75 Q102.1 16.35 102.1 15.2 Z" fill="none" stroke="#000000" stroke-linecap="round" stroke-linejoin="round" stroke-opacity="0.0" stroke-width="1.0"/>
    </g>
    <g id="morphshape3" transform="matrix(1.0, 0.0, 0.0, 1.0, -32.35, -6.65)">
      <path d="M94.6 8.8 Q94.6 9.95 94.75 10.35 L95.2 11.1 97.2 11.1 97.7 10.6 97.85 9.4 97.6 7.9 Q97.3 7.45 94.75 7.4 94.6 7.05 94.6 8.8 M69.45 13.15 Q69.2 13.5 69.75 14.4 70.3 14.8 70.9 15.15 L73.65 15.5 Q74.15 15.05 74.15 14.35 73.95 13.9 70.0 12.7 L69.45 13.15 M66.2 30.6 L66.5 32.55 Q66.7 33.6 67.15 34.45 L70.65 34.45 Q70.9 34.2 71.15 34.0 L70.75 30.9 67.2 30.35 Q66.4 30.3 66.2 30.6 M40.8 13.3 L41.0 14.65 41.35 15.15 42.9 15.2 Q43.95 15.2 44.55 14.75 44.75 14.6 44.75 12.85 44.75 11.7 44.4 11.15 L43.7 10.5 40.9 11.6 40.8 13.3 M33.1 29.2 L33.35 30.2 Q33.7 31.0 34.15 31.3 38.25 30.75 38.25 28.35 38.25 27.25 37.9 26.95 L37.05 26.6 35.3 26.85 33.45 27.0 33.1 29.2" fill="#ffffff" fill-opacity="0.7058824" fill-rule="evenodd" stroke="none"/>
      <path d="M33.1 29.2 L33.45 27.0 35.3 26.85 37.05 26.6 37.9 26.95 Q38.25 27.25 38.25 28.35 38.25 30.75 34.15 31.3 33.7 31.0 33.35 30.2 L33.1 29.2 M40.8 13.3 L40.9 11.6 43.7 10.5 44.4 11.15 Q44.75 11.7 44.75 12.85 44.75 14.6 44.55 14.75 43.95 15.2 42.9 15.2 L41.35 15.15 41.0 14.65 40.8 13.3 M66.2 30.6 Q66.4 30.3 67.2 30.35 L70.75 30.9 71.15 34.0 Q70.9 34.2 70.65 34.45 L67.15 34.45 Q66.7 33.6 66.5 32.55 L66.2 30.6 M69.45 13.15 L70.0 12.7 Q73.95 13.9 74.15 14.35 74.15 15.05 73.65 15.5 L70.9 15.15 Q70.3 14.8 69.75 14.4 69.2 13.5 69.45 13.15 M94.6 8.8 Q94.6 7.05 94.75 7.4 97.3 7.45 97.6 7.9 L97.85 9.4 97.7 10.6 97.2 11.1 95.2 11.1 94.75 10.35 Q94.6 9.95 94.6 8.8 Z" fill="none" stroke="#000000" stroke-linecap="round" stroke-linejoin="round" stroke-opacity="0.0" stroke-width="1.0"/>
    </g>
  </defs>
</svg>
