<?xml version="1.0" encoding="UTF-8" standalone="no"?>
<svg xmlns:xlink="http://www.w3.org/1999/xlink" height="47.45px" width="141.0px" xmlns="http://www.w3.org/2000/svg">
  <g transform="matrix(1.0, 0.0, 0.0, 1.0, -4.35, -2.9)">
    <use data-characterId="3192" height="47.45" transform="matrix(1.0, 0.0, 0.0, 1.0, 4.35, 2.9)" width="141.0" xlink:href="#morphshape0"/>
    <use data-characterId="3193" height="37.5" transform="matrix(1.0, 0.0, 0.0, 1.0, 17.5, 9.15)" width="116.05" xlink:href="#morphshape1"/>
    <use data-characterId="3194" height="21.8" transform="matrix(1.0, 0.0, 0.0, 1.0, 37.6, 4.7)" width="75.1" xlink:href="#morphshape2"/>
    <use data-characterId="3195" height="35.65" transform="matrix(1.0, 0.0, 0.0, 1.0, 32.35, 6.65)" width="66.65" xlink:href="#morphshape3"/>
  </g>
  <defs>
    <g id="morphshape0" transform="matrix(1.0, 0.0, 0.0, 1.0, -4.35, -2.9)">
      <path d="M4.85 16.3 Q3.95 17.9 14.05 19.45 24.15 21.0 36.25 21.65 48.35 22.25 29.25 23.05 10.15 23.85 23.75 25.7 37.35 27.55 28.7 28.15 20.0 28.7 13.95 30.55 7.9 32.35 13.1 32.75 18.3 33.15 19.8 33.7 21.25 34.25 23.35 34.4 L37.35 34.95 Q30.0 36.4 29.65 37.0 14.1 40.7 35.5 40.15 39.8 40.25 55.05 38.05 43.0 41.6 43.1 42.6 43.2 43.6 51.6 44.15 61.7 44.55 71.75 44.95 83.45 45.25 73.7 47.75 63.9 50.25 66.1 50.25 70.75 50.3 75.35 50.35 L92.6 50.0 Q102.7 49.6 105.55 48.35 108.4 47.05 106.05 46.2 103.7 45.3 107.4 42.3 108.9 41.05 98.25 38.55 122.65 38.4 126.3 36.4 129.95 34.45 123.05 34.0 119.4 33.75 115.8 33.5 126.05 31.85 126.85 31.0 127.6 30.1 123.05 29.15 118.45 28.2 111.25 28.0 104.1 27.8 120.15 26.8 136.25 25.8 142.7 23.85 149.15 21.9 139.9 20.1 130.65 18.3 124.9 18.35 L122.55 18.45 122.4 18.45 Q122.05 18.3 121.7 18.15 136.7 16.55 130.55 15.2 124.35 13.8 116.1 13.6 116.1 13.55 116.1 13.55 107.6 9.1 102.15 6.0 96.65 2.9 70.25 2.9 51.1 2.9 26.7 6.65 2.25 10.35 5.95 11.55 9.65 12.7 27.05 13.7 44.45 14.65 36.95 14.85 29.35 14.95 21.8 15.05 L13.85 15.25 4.9 16.3 Q4.85 16.3 4.85 16.3" fill="#96e0bc" fill-opacity="0.7058824" fill-rule="evenodd" stroke="none"/>
      <path d="M4.85 16.3 Q4.85 16.3 4.9 16.3 L13.85 15.25 21.8 15.05 Q29.35 14.95 36.95 14.85 44.45 14.65 27.05 13.7 9.65 12.7 5.95 11.55 2.25 10.35 26.7 6.65 51.1 2.9 70.25 2.9 96.65 2.9 102.15 6.0 107.6 9.1 116.1 13.55 116.1 13.55 116.1 13.6 124.35 13.8 130.55 15.2 136.7 16.55 121.7 18.15 122.05 18.3 122.4 18.45 L122.55 18.45 124.9 18.35 Q130.65 18.3 139.9 20.1 149.15 21.9 142.7 23.85 136.25 25.8 120.15 26.8 104.1 27.8 111.25 28.0 118.45 28.2 123.05 29.15 127.6 30.1 126.85 31.0 126.05 31.85 115.8 33.5 119.4 33.75 123.05 34.0 129.95 34.45 126.3 36.4 122.65 38.4 98.25 38.55 108.9 41.05 107.4 42.3 103.7 45.3 106.05 46.2 108.4 47.05 105.55 48.35 102.7 49.6 92.6 50.0 L75.35 50.35 Q70.75 50.3 66.1 50.25 63.9 50.25 73.7 47.75 83.45 45.25 71.75 44.95 61.7 44.55 51.6 44.15 43.2 43.6 43.1 42.6 43.0 41.6 55.05 38.05 39.8 40.25 35.5 40.15 14.1 40.7 29.65 37.0 30.0 36.4 37.35 34.95 L23.35 34.4 Q21.25 34.25 19.8 33.7 18.3 33.15 13.1 32.75 7.9 32.35 13.95 30.55 20.0 28.7 28.7 28.15 37.35 27.55 23.75 25.7 10.15 23.85 29.25 23.05 48.35 22.25 36.25 21.65 24.15 21.0 14.05 19.45 3.95 17.9 4.85 16.3 Z" fill="none" stroke="#000000" stroke-linecap="round" stroke-linejoin="round" stroke-opacity="0.0" stroke-width="1.0"/>
    </g>
    <g id="morphshape1" transform="matrix(1.0, 0.0, 0.0, 1.0, -17.5, -9.15)">
      <path d="M129.5 21.65 Q129.5 22.4 129.95 23.1 130.7 24.15 133.55 23.9 L132.8 21.7 Q131.8 21.35 129.5 21.65 M103.05 34.05 Q103.05 34.4 104.15 35.2 L107.45 35.3 109.6 34.3 Q111.8 33.25 112.2 32.75 L110.7 31.55 106.5 31.15 Q103.05 31.35 103.05 34.05 M90.15 45.3 L90.15 45.3 90.7 46.2 Q92.2 46.4 93.65 46.6 L96.5 46.65 100.75 46.4 101.55 46.15 102.05 45.7 102.2 44.85 102.15 44.35 Q101.95 43.55 101.15 43.05 99.85 42.3 94.55 42.5 92.35 42.85 90.75 44.45 L90.15 45.3 M79.55 31.1 L79.75 31.7 Q80.15 32.2 81.2 32.65 L82.95 33.15 85.45 33.35 85.8 33.25 86.0 33.05 86.2 32.6 86.2 32.15 Q86.2 31.45 85.85 31.15 85.2 30.5 82.15 30.3 80.85 30.45 79.6 30.6 L79.55 31.1 M61.25 41.2 L61.8 42.1 68.15 42.5 Q72.2 42.5 75.05 40.25 75.05 38.35 69.0 38.2 62.75 38.1 61.25 41.2 M54.3 40.7 Q54.45 41.1 54.55 41.45 L57.6 41.45 Q58.05 41.2 58.3 39.6 L54.8 39.8 Q54.3 40.15 54.3 40.7 M49.0 33.85 L50.2 35.05 Q52.25 36.2 56.55 36.2 58.1 36.2 59.85 34.05 59.85 31.1 54.45 31.15 49.0 31.2 49.0 33.85 M32.1 30.3 Q32.3 30.85 35.15 31.8 38.75 31.95 42.35 32.05 L46.1 31.05 Q47.1 30.2 47.35 28.1 46.6 25.3 39.0 26.35 31.35 27.35 32.1 30.3 M22.65 10.35 Q22.65 10.8 23.1 11.5 L24.05 12.45 30.9 12.55 Q32.1 11.65 32.1 11.1 32.1 9.25 27.4 9.15 22.65 9.1 22.65 10.35" fill="#bef0d8" fill-opacity="0.7058824" fill-rule="evenodd" stroke="none"/>
      <path d="M22.65 10.35 Q22.65 9.1 27.4 9.15 32.1 9.25 32.1 11.1 32.1 11.65 30.9 12.55 L24.05 12.45 23.1 11.5 Q22.65 10.8 22.65 10.35 M32.1 30.3 Q31.35 27.35 39.0 26.35 46.6 25.3 47.35 28.1 47.1 30.2 46.1 31.05 L42.35 32.05 Q38.75 31.95 35.15 31.8 32.3 30.85 32.1 30.3 M49.0 33.85 Q49.0 31.2 54.45 31.15 59.85 31.1 59.85 34.05 58.1 36.2 56.55 36.2 52.25 36.2 50.2 35.05 L49.0 33.85 M54.3 40.7 Q54.3 40.15 54.8 39.8 L58.3 39.6 Q58.05 41.2 57.6 41.45 L54.55 41.45 Q54.45 41.1 54.3 40.7 M61.25 41.2 Q62.75 38.1 69.0 38.2 75.05 38.35 75.05 40.25 72.2 42.5 68.15 42.5 L61.8 42.1 61.25 41.2 M79.55 31.1 L79.6 30.6 Q80.85 30.45 82.15 30.3 85.2 30.5 85.85 31.15 86.2 31.45 86.2 32.15 L86.2 32.6 86.0 33.05 85.8 33.25 85.45 33.35 82.95 33.15 81.2 32.65 Q80.15 32.2 79.75 31.7 L79.55 31.1 M90.15 45.3 L90.75 44.45 Q92.35 42.85 94.55 42.5 99.85 42.3 101.15 43.05 101.95 43.55 102.15 44.35 L102.2 44.85 102.05 45.7 101.55 46.15 100.75 46.4 96.5 46.65 93.65 46.6 Q92.2 46.4 90.7 46.2 L90.15 45.3 90.15 45.3 M103.05 34.05 Q103.05 31.35 106.5 31.15 L110.7 31.55 112.2 32.75 Q111.8 33.25 109.6 34.3 L107.45 35.3 104.15 35.2 Q103.05 34.4 103.05 34.05 M129.5 21.65 Q131.8 21.35 132.8 21.7 L133.55 23.9 Q130.7 24.15 129.95 23.1 129.5 22.4 129.5 21.65 Z" fill="none" stroke="#000000" stroke-linecap="round" stroke-linejoin="round" stroke-opacity="0.0" stroke-width="1.0"/>
    </g>
    <g id="morphshape2" transform="matrix(1.0, 0.0, 0.0, 1.0, -37.6, -4.7)">
      <path d="M107.55 19.25 Q107.55 20.4 107.8 20.8 L108.6 21.35 Q111.7 20.55 112.4 20.1 113.1 19.6 112.05 16.55 109.65 16.75 108.6 17.4 107.55 18.0 107.55 19.25 M94.25 16.5 Q94.25 17.55 94.85 18.15 L97.9 18.35 Q98.35 17.35 98.1 15.25 L94.35 15.15 94.25 16.5 M93.1 8.95 Q93.1 10.0 93.5 10.9 L99.45 10.9 Q100.5 9.85 100.5 6.35 95.8 5.9 94.15 6.75 93.1 7.35 93.1 8.95 M84.75 15.95 Q84.8 16.9 85.55 18.75 86.2 19.2 87.75 19.35 L88.55 18.15 Q89.05 17.45 88.35 15.65 L84.75 15.95 M75.4 15.1 Q75.0 17.0 75.8 18.5 76.8 20.25 79.05 20.25 80.2 20.25 81.4 18.5 80.55 16.1 78.9 15.45 L75.4 15.1 M63.85 9.1 L63.9 10.55 64.25 11.1 69.7 11.85 73.0 12.25 Q74.75 12.25 73.65 9.8 73.65 6.75 68.75 6.6 63.85 6.5 63.85 9.1 M56.2 23.2 L56.2 23.2 56.3 24.45 56.7 24.9 Q57.25 24.9 57.8 24.9 59.05 24.9 60.3 24.9 L64.4 24.9 Q64.6 23.6 63.75 20.35 62.75 18.6 61.8 17.75 60.4 16.45 58.8 17.05 56.2 18.25 56.2 23.2 M52.7 7.7 L52.75 8.4 52.75 8.5 Q52.8 8.95 53.0 9.05 L54.2 9.45 Q55.5 8.8 55.75 8.7 56.0 7.55 56.2 6.45 55.9 5.55 55.65 4.7 54.85 4.7 54.1 4.7 52.7 5.6 52.7 7.7 M41.05 14.1 L42.15 16.2 Q43.85 18.35 46.85 18.35 50.75 18.35 50.75 15.15 50.75 12.15 45.9 11.35 41.05 10.5 41.05 14.1" fill="#bef0d8" fill-opacity="0.7058824" fill-rule="evenodd" stroke="none"/>
      <path d="M41.05 14.1 Q41.05 10.5 45.9 11.35 50.75 12.15 50.75 15.15 50.75 18.35 46.85 18.35 43.85 18.35 42.15 16.2 L41.05 14.1 M52.7 7.7 Q52.7 5.6 54.1 4.7 54.85 4.7 55.65 4.7 55.9 5.55 56.2 6.45 56.0 7.55 55.75 8.7 55.5 8.8 54.2 9.45 L53.0 9.05 Q52.8 8.95 52.75 8.5 L52.75 8.4 52.7 7.7 M56.2 23.2 Q56.2 18.25 58.8 17.05 60.4 16.45 61.8 17.75 62.75 18.6 63.75 20.35 64.6 23.6 64.4 24.9 L60.3 24.9 Q59.05 24.9 57.8 24.9 57.25 24.9 56.7 24.9 L56.3 24.45 56.2 23.2 56.2 23.2 M63.85 9.1 Q63.85 6.5 68.75 6.6 73.65 6.75 73.65 9.8 74.75 12.25 73.0 12.25 L69.7 11.85 64.25 11.1 63.9 10.55 63.85 9.1 M75.4 15.1 L78.9 15.45 Q80.55 16.1 81.4 18.5 80.2 20.25 79.05 20.25 76.8 20.25 75.8 18.5 75.0 17.0 75.4 15.1 M84.75 15.95 L88.35 15.65 Q89.05 17.45 88.55 18.15 L87.75 19.35 Q86.2 19.2 85.55 18.75 84.8 16.9 84.75 15.95 M93.1 8.95 Q93.1 7.35 94.15 6.75 95.8 5.9 100.5 6.35 100.5 9.85 99.45 10.9 L93.5 10.9 Q93.1 10.0 93.1 8.95 M94.25 16.5 L94.35 15.15 98.1 15.25 Q98.35 17.35 97.9 18.35 L94.85 18.15 Q94.25 17.55 94.25 16.5 M107.55 19.25 Q107.55 18.0 108.6 17.4 109.65 16.75 112.05 16.55 113.1 19.6 112.4 20.1 111.7 20.55 108.6 21.35 L107.8 20.8 Q107.55 20.4 107.55 19.25 Z" fill="none" stroke="#000000" stroke-linecap="round" stroke-linejoin="round" stroke-opacity="0.0" stroke-width="1.0"/>
    </g>
    <g id="morphshape3" transform="matrix(1.0, 0.0, 0.0, 1.0, -32.35, -6.65)">
      <path d="M95.75 8.1 Q95.75 9.25 95.9 9.65 L96.35 10.4 98.35 10.4 98.85 9.9 99.0 8.7 98.75 7.2 Q98.45 6.75 95.9 6.7 95.75 6.35 95.75 8.1 M68.45 9.0 Q68.2 9.35 68.75 10.25 69.0 10.7 69.9 11.0 71.3 11.2 72.65 11.35 73.15 10.9 73.15 10.2 72.95 9.75 69.0 8.55 L68.45 9.0 M65.75 38.45 L66.05 40.4 Q66.25 41.45 66.7 42.3 L70.2 42.3 Q70.4 42.0 70.7 41.85 L70.3 38.75 66.75 38.2 Q65.95 38.15 65.75 38.45 M44.65 15.35 L44.85 16.7 45.2 17.2 46.75 17.25 Q47.8 17.25 48.4 16.8 48.6 16.65 48.6 14.9 48.6 13.75 48.25 13.2 L47.55 12.55 44.75 13.65 44.65 15.35 M37.55 29.2 L37.8 30.2 Q38.15 31.0 38.6 31.3 42.7 30.75 42.7 28.35 42.7 27.25 42.35 26.95 L41.5 26.6 39.75 26.85 37.9 27.0 37.55 29.2" fill="#ffffff" fill-opacity="0.7058824" fill-rule="evenodd" stroke="none"/>
      <path d="M37.55 29.2 L37.9 27.0 39.75 26.85 41.5 26.6 42.35 26.95 Q42.7 27.25 42.7 28.35 42.7 30.75 38.6 31.3 38.15 31.0 37.8 30.2 L37.55 29.2 M44.65 15.35 L44.75 13.65 47.55 12.55 48.25 13.2 Q48.6 13.75 48.6 14.9 48.6 16.65 48.4 16.8 47.8 17.25 46.75 17.25 L45.2 17.2 44.85 16.7 44.65 15.35 M65.75 38.45 Q65.95 38.15 66.75 38.2 L70.3 38.75 70.7 41.85 Q70.4 42.0 70.2 42.3 L66.7 42.3 Q66.25 41.45 66.05 40.4 L65.75 38.45 M68.45 9.0 L69.0 8.55 Q72.95 9.75 73.15 10.2 73.15 10.9 72.65 11.35 71.3 11.2 69.9 11.0 69.0 10.7 68.75 10.25 68.2 9.35 68.45 9.0 M95.75 8.1 Q95.75 6.35 95.9 6.7 98.45 6.75 98.75 7.2 L99.0 8.7 98.85 9.9 98.35 10.4 96.35 10.4 95.9 9.65 Q95.75 9.25 95.75 8.1 Z" fill="none" stroke="#000000" stroke-linecap="round" stroke-linejoin="round" stroke-opacity="0.0" stroke-width="1.0"/>
    </g>
  </defs>
</svg>
