<?xml version="1.0" encoding="UTF-8" standalone="no"?>
<svg xmlns:xlink="http://www.w3.org/1999/xlink" height="47.45px" width="141.0px" xmlns="http://www.w3.org/2000/svg">
  <g transform="matrix(1.0, 0.0, 0.0, 1.0, -4.35, -2.9)">
    <use data-characterId="3188" height="47.45" transform="matrix(1.0, 0.0, 0.0, 1.0, 4.35, 2.9)" width="141.0" xlink:href="#morphshape0"/>
    <use data-characterId="3189" height="37.5" transform="matrix(1.0, 0.0, 0.0, 1.0, 17.5, 9.15)" width="116.05" xlink:href="#morphshape1"/>
    <use data-characterId="3190" height="21.8" transform="matrix(1.0, 0.0, 0.0, 1.0, 37.6, 4.7)" width="75.1" xlink:href="#morphshape2"/>
    <use data-characterId="3191" height="35.65" transform="matrix(1.0, 0.0, 0.0, 1.0, 32.35, 6.65)" width="66.65" xlink:href="#morphshape3"/>
  </g>
  <defs>
    <g id="morphshape0" transform="matrix(1.0, 0.0, 0.0, 1.0, -4.35, -2.9)">
      <path d="M4.9 17.9 Q4.8 19.4 11.0 20.5 17.25 21.5 24.5 22.0 34.05 22.8 25.1 24.45 15.8 25.15 21.45 26.7 27.55 27.95 23.2 28.75 18.8 29.4 16.0 30.75 13.4 32.55 16.7 33.1 19.75 33.55 21.55 33.9 24.4 34.25 26.65 34.9 L33.4 35.85 Q29.5 37.65 32.55 38.45 27.05 40.3 39.75 40.1 41.4 40.8 48.9 40.2 42.95 42.5 44.95 43.75 47.15 45.1 53.35 45.4 59.3 45.6 65.95 46.65 73.35 47.65 70.0 48.9 66.1 50.15 69.75 49.35 74.7 48.55 78.75 48.45 L90.95 47.75 Q97.65 47.35 100.75 46.55 106.0 46.05 106.7 44.1 106.3 43.0 108.45 40.75 112.3 39.8 107.8 38.05 121.75 36.6 121.25 34.95 122.85 33.95 119.3 33.7 122.7 32.75 121.35 32.2 126.8 30.95 125.8 30.05 125.35 29.3 122.25 28.55 119.7 28.0 119.35 27.35 119.0 26.7 127.6 25.05 136.25 23.4 138.0 21.8 139.7 20.15 132.25 19.3 127.1 18.45 123.7 18.5 L122.45 18.55 122.0 18.4 Q124.1 17.25 122.2 16.2 127.9 15.25 123.2 14.45 120.15 13.75 116.1 13.65 116.8 11.35 112.15 10.0 102.05 6.05 85.95 4.5 73.55 2.95 50.55 4.6 31.55 6.15 20.1 9.4 8.25 11.55 10.25 12.45 12.25 13.3 21.0 14.05 29.65 14.7 25.6 14.95 21.65 15.0 17.8 15.15 L9.35 15.8 4.9 16.3 Q4.4 17.1 4.8 17.95" fill="#96e0bc" fill-opacity="0.7058824" fill-rule="evenodd" stroke="none"/>
      <path d="M4.8 17.95 Q4.4 17.1 4.9 16.3 L9.35 15.8 17.8 15.15 Q21.65 15.0 25.6 14.95 29.65 14.7 21.0 14.05 12.25 13.3 10.25 12.45 8.25 11.55 20.1 9.4 31.55 6.15 50.55 4.6 73.55 2.95 85.95 4.5 102.05 6.05 112.15 10.0 116.8 11.35 116.1 13.65 120.15 13.75 123.2 14.45 127.9 15.25 122.2 16.2 124.1 17.25 122.0 18.4 L122.45 18.55 123.7 18.5 Q127.1 18.45 132.25 19.3 139.7 20.15 138.0 21.8 136.25 23.4 127.6 25.05 119.0 26.7 119.35 27.35 119.7 28.0 122.25 28.55 125.35 29.3 125.8 30.05 126.8 30.95 121.35 32.2 122.7 32.75 119.3 33.7 122.85 33.95 121.25 34.95 121.75 36.6 107.8 38.05 112.3 39.8 108.45 40.75 106.3 43.0 106.7 44.1 106.0 46.05 100.75 46.55 97.65 47.35 90.95 47.75 L78.75 48.45 Q74.7 48.55 69.75 49.35 66.1 50.15 70.0 48.9 73.35 47.65 65.95 46.65 59.3 45.6 53.35 45.4 47.15 45.1 44.95 43.75 42.95 42.5 48.9 40.2 41.4 40.8 39.75 40.1 27.05 40.3 32.55 38.45 29.5 37.65 33.4 35.85 L26.65 34.9 Q24.4 34.25 21.55 33.9 19.75 33.55 16.7 33.1 13.4 32.55 16.0 30.75 18.8 29.4 23.2 28.75 27.55 27.95 21.45 26.7 15.8 25.15 25.1 24.45 34.05 22.8 24.5 22.0 17.25 21.5 11.0 20.5 4.8 19.4 4.9 17.9" fill="none" stroke="#000000" stroke-linecap="round" stroke-linejoin="round" stroke-opacity="0.0" stroke-width="1.0"/>
    </g>
    <g id="morphshape1" transform="matrix(1.0, 0.0, 0.0, 1.0, -17.5, -9.15)">
      <path d="M121.9 22.65 Q121.9 23.4 122.35 24.1 123.1 25.15 125.95 24.9 L125.2 22.7 Q124.2 22.35 121.9 22.65 M101.2 31.25 Q101.2 31.6 102.3 32.4 L105.6 32.5 107.75 31.5 Q109.95 30.45 110.35 29.95 L108.85 28.75 104.65 28.35 Q101.2 28.55 101.2 31.25 M87.3 39.25 L87.65 40.0 Q88.6 40.35 89.85 40.7 L92.15 41.0 95.5 41.0 96.05 40.85 96.4 40.55 96.6 39.9 96.6 39.45 Q96.5 38.7 95.95 38.3 95.0 37.6 90.85 37.6 89.1 37.85 87.7 38.7 L87.4 39.35 M77.4 36.95 L77.4 37.0 77.8 37.7 Q78.75 38.05 80.0 38.35 L82.3 38.6 85.7 38.55 86.3 38.35 86.65 38.0 86.8 37.35 86.75 36.85 Q86.65 36.1 86.05 35.7 85.05 35.0 80.85 35.0 79.1 35.25 77.65 36.15 L77.3 36.85 M61.9 36.35 L62.45 37.25 68.8 37.65 Q72.85 37.65 75.7 35.4 75.7 33.5 69.65 33.35 63.4 33.25 61.9 36.35 M58.15 41.5 Q58.2 41.95 58.4 42.25 L61.45 42.25 Q61.9 42.0 62.15 40.4 L58.65 40.6 Q58.15 40.95 58.15 41.5 M49.0 35.45 L50.2 36.65 Q52.25 37.8 56.55 37.8 58.1 37.8 59.85 35.65 59.85 32.7 54.45 32.75 49.0 32.8 49.0 35.45 M29.15 29.25 Q29.25 29.85 31.95 31.15 35.35 32.3 39.0 32.3 L42.85 31.8 Q43.95 31.15 44.45 29.15 44.1 26.3 36.5 26.3 28.85 26.3 29.2 29.3 M20.05 14.9 Q20.05 15.35 20.5 16.05 L21.45 17.0 28.3 17.1 Q29.5 16.2 29.5 15.65 29.5 13.8 24.8 13.7 20.05 13.65 20.05 14.9" fill="#bef0d8" fill-opacity="0.7058824" fill-rule="evenodd" stroke="none"/>
      <path d="M20.05 14.9 Q20.05 13.65 24.8 13.7 29.5 13.8 29.5 15.65 29.5 16.2 28.3 17.1 L21.45 17.0 20.5 16.05 Q20.05 15.35 20.05 14.9 M29.2 29.3 Q28.85 26.3 36.5 26.3 44.1 26.3 44.45 29.15 43.95 31.15 42.85 31.8 L39.0 32.3 Q35.35 32.3 31.95 31.15 29.25 29.85 29.15 29.25 M49.0 35.45 Q49.0 32.8 54.45 32.75 59.85 32.7 59.85 35.65 58.1 37.8 56.55 37.8 52.25 37.8 50.2 36.65 L49.0 35.45 M58.15 41.5 Q58.15 40.95 58.65 40.6 L62.15 40.4 Q61.9 42.0 61.45 42.25 L58.4 42.25 Q58.2 41.95 58.15 41.5 M61.9 36.35 Q63.4 33.25 69.65 33.35 75.7 33.5 75.7 35.4 72.85 37.65 68.8 37.65 L62.45 37.25 61.9 36.35 M77.3 36.85 L77.65 36.15 Q79.1 35.25 80.85 35.0 85.05 35.0 86.05 35.7 86.65 36.1 86.75 36.85 L86.8 37.35 86.65 38.0 86.3 38.35 85.7 38.55 82.3 38.6 80.0 38.35 Q78.75 38.05 77.8 37.7 L77.4 37.0 77.4 36.95 M87.4 39.35 L87.7 38.7 Q89.1 37.85 90.85 37.6 95.0 37.6 95.95 38.3 96.5 38.7 96.6 39.45 L96.6 39.9 96.4 40.55 96.05 40.85 95.5 41.0 92.15 41.0 89.85 40.7 Q88.6 40.35 87.65 40.0 L87.3 39.25 M101.2 31.25 Q101.2 28.55 104.65 28.35 L108.85 28.75 110.35 29.95 Q109.95 30.45 107.75 31.5 L105.6 32.5 102.3 32.4 Q101.2 31.6 101.2 31.25 M121.9 22.65 Q124.2 22.35 125.2 22.7 L125.95 24.9 Q123.1 25.15 122.35 24.1 121.9 23.4 121.9 22.65 Z" fill="none" stroke="#000000" stroke-linecap="round" stroke-linejoin="round" stroke-opacity="0.0" stroke-width="1.0"/>
    </g>
    <g id="morphshape2" transform="matrix(1.0, 0.0, 0.0, 1.0, -37.6, -4.7)">
      <path d="M104.35 16.85 Q104.35 18.0 104.6 18.4 L105.4 18.95 Q107.9 18.25 109.2 17.7 109.9 17.2 108.85 14.15 106.45 14.35 105.4 15.0 104.35 15.6 104.35 16.85 M91.85 19.45 Q91.85 20.5 92.45 21.1 L95.5 21.3 Q95.95 20.3 95.7 18.2 L91.95 18.1 91.85 19.45 M90.45 10.5 Q90.45 11.55 90.85 12.45 L96.8 12.45 Q97.85 11.4 97.85 7.9 93.15 7.45 91.5 8.3 90.45 8.9 90.45 10.5 M82.15 19.6 Q82.2 20.55 82.95 22.4 83.6 22.85 85.15 23.0 L85.95 21.8 Q86.45 21.1 85.75 19.3 L82.15 19.6 M77.1 10.6 Q76.7 12.5 77.5 14.0 78.5 15.75 80.75 15.75 81.9 15.75 83.1 14.0 82.25 11.6 80.6 10.95 L77.1 10.6 M65.35 11.75 L65.4 13.2 65.75 13.75 71.2 14.5 74.5 14.9 Q76.25 14.9 75.15 12.45 75.15 9.4 70.25 9.25 65.35 9.15 65.35 11.75 M56.05 16.75 L56.1 17.7 56.3 17.95 Q56.6 18.2 56.95 18.25 57.7 18.35 58.8 18.45 L61.6 18.05 Q61.85 16.85 61.55 14.7 60.9 13.4 60.3 12.55 59.2 11.9 58.05 12.2 56.05 13.25 56.05 16.75 M50.3 15.55 L50.3 15.65 50.4 16.55 50.6 16.85 Q50.9 17.05 51.3 17.1 L53.15 17.3 Q54.85 17.0 56.0 16.95 56.2 15.7 55.85 13.5 55.2 12.15 54.6 11.3 53.5 10.65 52.3 10.95 50.3 12.0 50.3 15.55 M39.3 12.1 L40.4 14.2 Q42.1 16.35 45.1 16.35 49.0 16.35 49.0 13.15 49.0 10.15 44.15 9.35 39.3 8.5 39.3 12.1" fill="#bef0d8" fill-opacity="0.7058824" fill-rule="evenodd" stroke="none"/>
      <path d="M39.3 12.1 Q39.3 8.5 44.15 9.35 49.0 10.15 49.0 13.15 49.0 16.35 45.1 16.35 42.1 16.35 40.4 14.2 L39.3 12.1 M50.3 15.55 Q50.3 12.0 52.3 10.95 53.5 10.65 54.6 11.3 55.2 12.15 55.85 13.5 56.2 15.7 56.0 16.95 54.85 17.0 53.15 17.3 L51.3 17.1 Q50.9 17.05 50.6 16.85 L50.4 16.55 50.3 15.65 50.3 15.55 M56.05 16.75 Q56.05 13.25 58.05 12.2 59.2 11.9 60.3 12.55 60.9 13.4 61.55 14.7 61.85 16.85 61.6 18.05 L58.8 18.45 Q57.7 18.35 56.95 18.25 56.6 18.2 56.3 17.95 L56.1 17.7 56.05 16.75 M65.35 11.75 Q65.35 9.15 70.25 9.25 75.15 9.4 75.15 12.45 76.25 14.9 74.5 14.9 L71.2 14.5 65.75 13.75 65.4 13.2 65.35 11.75 M77.1 10.6 L80.6 10.95 Q82.25 11.6 83.1 14.0 81.9 15.75 80.75 15.75 78.5 15.75 77.5 14.0 76.7 12.5 77.1 10.6 M82.15 19.6 L85.75 19.3 Q86.45 21.1 85.95 21.8 L85.15 23.0 Q83.6 22.85 82.95 22.4 82.2 20.55 82.15 19.6 M90.45 10.5 Q90.45 8.9 91.5 8.3 93.15 7.45 97.85 7.9 97.85 11.4 96.8 12.45 L90.85 12.45 Q90.45 11.55 90.45 10.5 M91.85 19.45 L91.95 18.1 95.7 18.2 Q95.95 20.3 95.5 21.3 L92.45 21.1 Q91.85 20.5 91.85 19.45 M104.35 16.85 Q104.35 15.6 105.4 15.0 106.45 14.35 108.85 14.15 109.9 17.2 109.2 17.7 107.9 18.25 105.4 18.95 L104.6 18.4 Q104.35 18.0 104.35 16.85 Z" fill="none" stroke="#000000" stroke-linecap="round" stroke-linejoin="round" stroke-opacity="0.0" stroke-width="1.0"/>
    </g>
    <g id="morphshape3" transform="matrix(1.0, 0.0, 0.0, 1.0, -32.35, -6.65)">
      <path d="M95.05 8.5 Q95.05 9.65 95.2 10.05 L95.65 10.8 97.65 10.8 98.15 10.3 98.3 9.1 98.05 7.6 Q97.75 7.15 95.2 7.1 95.05 6.75 95.05 8.5 M69.05 11.45 Q68.8 11.8 69.35 12.7 69.8 13.1 70.5 13.45 L73.25 13.8 Q73.75 13.35 73.75 12.65 73.55 12.2 69.6 11.0 L69.05 11.45 M66.05 33.8 L66.35 35.75 Q66.55 36.8 67.0 37.65 L70.5 37.65 Q70.75 37.4 71.0 37.2 L70.6 34.1 67.05 33.55 Q66.25 33.5 66.05 33.8 M42.35 14.15 L42.55 15.5 42.9 16.0 44.45 16.05 Q45.5 16.05 46.1 15.6 46.3 15.45 46.3 13.7 46.3 12.55 45.95 12.0 L45.25 11.35 42.45 12.45 42.35 14.15 M34.9 29.2 L35.15 30.2 Q35.5 31.0 35.95 31.3 40.05 30.75 40.05 28.35 40.05 27.25 39.7 26.95 L38.85 26.6 37.1 26.85 35.25 27.0 34.9 29.2" fill="#ffffff" fill-opacity="0.7058824" fill-rule="evenodd" stroke="none"/>
      <path d="M34.9 29.2 L35.25 27.0 37.1 26.85 38.85 26.6 39.7 26.95 Q40.05 27.25 40.05 28.35 40.05 30.75 35.95 31.3 35.5 31.0 35.15 30.2 L34.9 29.2 M42.35 14.15 L42.45 12.45 45.25 11.35 45.95 12.0 Q46.3 12.55 46.3 13.7 46.3 15.45 46.1 15.6 45.5 16.05 44.45 16.05 L42.9 16.0 42.55 15.5 42.35 14.15 M66.05 33.8 Q66.25 33.5 67.05 33.55 L70.6 34.1 71.0 37.2 Q70.75 37.4 70.5 37.65 L67.0 37.65 Q66.55 36.8 66.35 35.75 L66.05 33.8 M69.05 11.45 L69.6 11.0 Q73.55 12.2 73.75 12.65 73.75 13.35 73.25 13.8 L70.5 13.45 Q69.8 13.1 69.35 12.7 68.8 11.8 69.05 11.45 M95.05 8.5 Q95.05 6.75 95.2 7.1 97.75 7.15 98.05 7.6 L98.3 9.1 98.15 10.3 97.65 10.8 95.65 10.8 95.2 10.05 Q95.05 9.65 95.05 8.5 Z" fill="none" stroke="#000000" stroke-linecap="round" stroke-linejoin="round" stroke-opacity="0.0" stroke-width="1.0"/>
    </g>
  </defs>
</svg>
