<?xml version="1.0" encoding="UTF-8" standalone="no"?>
<svg xmlns:xlink="http://www.w3.org/1999/xlink" height="47.45px" width="141.0px" xmlns="http://www.w3.org/2000/svg">
  <g transform="matrix(1.0, 0.0, 0.0, 1.0, -4.35, -2.9)">
    <use data-characterId="3192" height="47.45" transform="matrix(1.0, 0.0, 0.0, 1.0, 4.35, 2.9)" width="141.0" xlink:href="#morphshape0"/>
    <use data-characterId="3193" height="37.5" transform="matrix(1.0, 0.0, 0.0, 1.0, 17.5, 9.15)" width="116.05" xlink:href="#morphshape1"/>
    <use data-characterId="3194" height="21.8" transform="matrix(1.0, 0.0, 0.0, 1.0, 37.6, 4.7)" width="75.1" xlink:href="#morphshape2"/>
    <use data-characterId="3195" height="35.65" transform="matrix(1.0, 0.0, 0.0, 1.0, 32.35, 6.65)" width="66.65" xlink:href="#morphshape3"/>
  </g>
  <defs>
    <g id="morphshape0" transform="matrix(1.0, 0.0, 0.0, 1.0, -4.35, -2.9)">
      <path d="M4.85 17.3 Q4.5 18.85 11.95 20.1 19.4 21.25 28.15 21.8 38.5 22.5 26.4 23.9 14.05 24.65 22.2 26.3 30.65 27.75 24.95 28.5 19.2 29.1 15.4 30.6 11.75 32.4 15.65 32.9 19.35 33.35 21.05 33.75 23.45 34.2 25.65 34.7 L34.65 35.5 Q29.7 37.2 31.7 37.95 23.05 40.4 38.45 40.1 40.9 40.6 50.8 39.5 42.95 42.2 44.35 43.35 45.9 44.6 52.8 45.0 60.05 45.25 67.75 46.1 76.5 46.9 71.15 48.55 65.4 50.2 68.6 49.65 73.45 49.1 77.7 49.05 L91.45 48.45 Q99.2 48.05 102.2 47.1 106.7 46.35 106.45 44.75 105.45 43.75 108.1 41.25 111.2 40.2 104.8 38.2 122.0 37.15 122.8 35.4 125.05 34.1 120.45 33.75 121.65 33.0 119.6 32.55 126.55 31.15 126.15 30.25 126.05 29.45 122.5 28.65 119.3 27.95 116.8 27.45 114.35 26.95 125.3 25.5 136.25 24.05 139.45 22.35 142.6 20.6 134.55 19.45 128.1 18.3 123.95 18.35 L122.35 18.4 122.0 18.3 Q123.35 17.45 121.95 16.7 130.55 15.55 125.4 14.6 121.35 13.65 116.0 13.5 116.5 11.9 113.3 10.95 103.7 6.85 90.95 4.85 80.7 2.85 56.65 4.0 37.6 5.05 22.1 8.45 6.3 11.05 8.85 12.05 11.4 13.0 22.85 13.85 34.2 14.6 29.1 14.85 24.0 14.95 19.0 15.1 L10.7 15.6 4.85 16.3 Q4.5 16.85 4.8 17.45" fill="#96e0bc" fill-opacity="0.7058824" fill-rule="evenodd" stroke="none"/>
      <path d="M4.8 17.45 Q4.5 16.85 4.85 16.3 L10.7 15.6 19.0 15.1 Q24.0 14.95 29.1 14.85 34.2 14.6 22.85 13.85 11.4 13.0 8.85 12.05 6.3 11.05 22.1 8.45 37.6 5.05 56.65 4.0 80.7 2.85 90.95 4.85 103.7 6.85 113.3 10.95 116.5 11.9 116.0 13.5 121.35 13.65 125.4 14.6 130.55 15.55 121.95 16.7 123.35 17.45 122.0 18.3 L122.35 18.4 123.95 18.35 Q128.1 18.3 134.55 19.45 142.6 20.6 139.45 22.35 136.25 24.05 125.3 25.5 114.35 26.95 116.8 27.45 119.3 27.95 122.5 28.65 126.05 29.45 126.15 30.25 126.55 31.15 119.6 32.55 121.65 33.0 120.45 33.75 125.05 34.1 122.8 35.4 122.0 37.15 104.8 38.2 111.2 40.2 108.1 41.25 105.45 43.75 106.45 44.75 106.7 46.35 102.2 47.1 99.2 48.05 91.45 48.45 L77.7 49.05 Q73.45 49.1 68.6 49.65 65.4 50.2 71.15 48.55 76.5 46.9 67.75 46.1 60.05 45.25 52.8 45.0 45.9 44.6 44.35 43.35 42.95 42.2 50.8 39.5 40.9 40.6 38.45 40.1 23.05 40.4 31.7 37.95 29.7 37.2 34.65 35.5 L25.65 34.7 Q23.45 34.2 21.05 33.75 19.35 33.35 15.65 32.9 11.75 32.4 15.4 30.6 19.2 29.1 24.95 28.5 30.65 27.75 22.2 26.3 14.05 24.65 26.4 23.9 38.5 22.5 28.15 21.8 19.4 21.25 11.95 20.1 4.5 18.85 4.85 17.3" fill="none" stroke="#000000" stroke-linecap="round" stroke-linejoin="round" stroke-opacity="0.0" stroke-width="1.0"/>
    </g>
    <g id="morphshape1" transform="matrix(1.0, 0.0, 0.0, 1.0, -17.5, -9.15)">
      <path d="M124.25 22.35 Q124.25 23.1 124.7 23.8 125.45 24.85 128.3 24.6 L127.55 22.4 Q126.55 22.05 124.25 22.35 M101.8 32.1 Q101.8 32.45 102.9 33.25 L106.2 33.35 108.35 32.35 Q110.55 31.3 110.95 30.8 L109.45 29.6 105.25 29.2 Q101.8 29.4 101.8 32.1 M88.3 41.15 L88.3 41.2 88.75 41.95 Q89.85 42.25 91.15 42.55 L93.6 42.75 97.25 42.65 97.9 42.45 98.3 42.1 98.45 41.4 98.4 40.9 Q98.25 40.15 97.6 39.7 96.55 39.0 92.05 39.05 90.15 39.35 88.65 40.45 L88.25 41.2 M77.95 35.1 L78.25 35.8 Q79.05 36.2 80.25 36.55 L82.4 36.9 85.5 36.95 86.0 36.8 86.3 36.5 86.5 35.9 86.5 35.45 Q86.45 34.7 85.95 34.35 85.05 33.65 81.2 33.6 79.6 33.8 78.25 34.45 L78.0 35.05 M61.7 37.85 L62.25 38.75 68.6 39.15 Q72.65 39.15 75.5 36.9 75.5 35.0 69.45 34.85 63.2 34.75 61.7 37.85 M56.95 41.25 Q57.05 41.7 57.2 42.0 L60.25 42.0 Q60.7 41.75 60.95 40.15 L57.45 40.35 Q56.95 40.7 56.95 41.25 M49.0 34.95 L50.2 36.15 Q52.25 37.3 56.55 37.3 58.1 37.3 59.85 35.15 59.85 32.2 54.45 32.25 49.0 32.3 49.0 34.95 M30.15 29.6 Q30.3 30.15 33.05 31.35 36.5 32.2 40.1 32.25 L43.9 31.6 Q44.95 30.85 45.35 28.8 44.85 25.95 37.25 26.3 29.6 26.6 30.1 29.6 M20.85 13.5 Q20.85 13.95 21.3 14.65 L22.25 15.6 29.1 15.7 Q30.3 14.8 30.3 14.25 30.3 12.4 25.6 12.3 20.85 12.25 20.85 13.5" fill="#bef0d8" fill-opacity="0.7058824" fill-rule="evenodd" stroke="none"/>
      <path d="M20.85 13.5 Q20.85 12.25 25.6 12.3 30.3 12.4 30.3 14.25 30.3 14.8 29.1 15.7 L22.25 15.6 21.3 14.65 Q20.85 13.95 20.85 13.5 M30.1 29.6 Q29.6 26.6 37.25 26.3 44.85 25.95 45.35 28.8 44.95 30.85 43.9 31.6 L40.1 32.25 Q36.5 32.2 33.05 31.35 30.3 30.15 30.15 29.6 M49.0 34.95 Q49.0 32.3 54.45 32.25 59.85 32.2 59.85 35.15 58.1 37.3 56.55 37.3 52.25 37.3 50.2 36.15 L49.0 34.95 M56.95 41.25 Q56.95 40.7 57.45 40.35 L60.95 40.15 Q60.7 41.75 60.25 42.0 L57.2 42.0 Q57.05 41.7 56.95 41.25 M61.7 37.85 Q63.2 34.75 69.45 34.85 75.5 35.0 75.5 36.9 72.65 39.15 68.6 39.15 L62.25 38.75 61.7 37.85 M78.0 35.05 L78.25 34.45 Q79.6 33.8 81.2 33.6 85.05 33.65 85.95 34.35 86.45 34.7 86.5 35.45 L86.5 35.9 86.3 36.5 86.0 36.8 85.5 36.95 82.4 36.9 80.25 36.55 Q79.05 36.2 78.25 35.8 L77.95 35.1 M88.25 41.2 L88.65 40.45 Q90.15 39.35 92.05 39.05 96.55 39.0 97.6 39.7 98.25 40.15 98.4 40.9 L98.45 41.4 98.3 42.1 97.9 42.45 97.25 42.65 93.6 42.75 91.15 42.55 Q89.85 42.25 88.75 41.95 L88.3 41.2 88.3 41.15 M101.8 32.1 Q101.8 29.4 105.25 29.2 L109.45 29.6 110.95 30.8 Q110.55 31.3 108.35 32.35 L106.2 33.35 102.9 33.25 Q101.8 32.45 101.8 32.1 M124.25 22.35 Q126.55 22.05 127.55 22.4 L128.3 24.6 Q125.45 24.85 124.7 23.8 124.25 23.1 124.25 22.35 Z" fill="none" stroke="#000000" stroke-linecap="round" stroke-linejoin="round" stroke-opacity="0.0" stroke-width="1.0"/>
    </g>
    <g id="morphshape2" transform="matrix(1.0, 0.0, 0.0, 1.0, -37.6, -4.7)">
      <path d="M105.35 17.6 Q105.35 18.75 105.6 19.15 L106.4 19.7 Q109.1 18.95 110.2 18.45 110.9 17.95 109.85 14.9 107.45 15.1 106.4 15.75 105.35 16.35 105.35 17.6 M92.6 18.55 Q92.6 19.6 93.2 20.2 L96.25 20.4 Q96.7 19.4 96.45 17.3 L92.7 17.2 92.6 18.55 M91.25 10.05 Q91.25 11.1 91.65 12.0 L97.6 12.0 Q98.65 10.95 98.65 7.45 93.95 7.0 92.3 7.85 91.25 8.45 91.25 10.05 M82.95 18.45 Q83.0 19.4 83.75 21.25 84.4 21.7 85.95 21.85 L86.75 20.65 Q87.25 19.95 86.55 18.15 L82.95 18.45 M76.55 12.0 Q76.15 13.9 76.95 15.4 77.95 17.15 80.2 17.15 81.35 17.15 82.55 15.4 81.7 13.0 80.05 12.35 L76.55 12.0 M64.9 10.95 L64.95 12.4 65.3 12.95 70.75 13.7 74.05 14.1 Q75.8 14.1 74.7 11.65 74.7 8.6 69.8 8.45 64.9 8.35 64.9 10.95 M56.1 18.75 L56.1 18.8 56.2 19.8 56.45 20.15 Q56.85 20.3 57.3 20.35 58.2 20.4 59.35 20.45 L62.55 20.2 Q62.75 18.95 62.25 16.45 61.5 15.0 60.8 14.15 59.6 13.3 58.3 13.7 56.1 14.8 56.1 18.75 M51.05 13.1 L51.1 14.0 51.25 14.2 Q51.45 14.5 51.75 14.55 L53.4 14.8 Q54.95 14.4 55.85 14.35 56.1 13.15 55.95 11.3 55.4 10.1 54.9 9.25 53.9 8.8 52.85 9.0 51.05 10.0 51.05 13.1 M39.85 12.7 L40.95 14.8 Q42.65 16.95 45.65 16.95 49.55 16.95 49.55 13.75 49.55 10.75 44.7 9.95 39.85 9.1 39.85 12.7" fill="#bef0d8" fill-opacity="0.7058824" fill-rule="evenodd" stroke="none"/>
      <path d="M39.85 12.7 Q39.85 9.1 44.7 9.95 49.55 10.75 49.55 13.75 49.55 16.95 45.65 16.95 42.65 16.95 40.95 14.8 L39.85 12.7 M51.05 13.1 Q51.05 10.0 52.85 9.0 53.9 8.8 54.9 9.25 55.4 10.1 55.95 11.3 56.1 13.15 55.85 14.35 54.95 14.4 53.4 14.8 L51.75 14.55 Q51.45 14.5 51.25 14.2 L51.1 14.0 51.05 13.1 M56.1 18.75 Q56.1 14.8 58.3 13.7 59.6 13.3 60.8 14.15 61.5 15.0 62.25 16.45 62.75 18.95 62.55 20.2 L59.35 20.45 Q58.2 20.4 57.3 20.35 56.85 20.3 56.45 20.15 L56.2 19.8 56.1 18.8 56.1 18.75 M64.9 10.95 Q64.9 8.35 69.8 8.45 74.7 8.6 74.7 11.65 75.8 14.1 74.05 14.1 L70.75 13.7 65.3 12.95 64.95 12.4 64.9 10.95 M76.55 12.0 L80.05 12.35 Q81.7 13.0 82.55 15.4 81.35 17.15 80.2 17.15 77.95 17.15 76.95 15.4 76.15 13.9 76.55 12.0 M82.95 18.45 L86.55 18.15 Q87.25 19.95 86.75 20.65 L85.95 21.85 Q84.4 21.7 83.75 21.25 83.0 19.4 82.95 18.45 M91.25 10.05 Q91.25 8.45 92.3 7.85 93.95 7.0 98.65 7.45 98.65 10.95 97.6 12.0 L91.65 12.0 Q91.25 11.1 91.25 10.05 M92.6 18.55 L92.7 17.2 96.45 17.3 Q96.7 19.4 96.25 20.4 L93.2 20.2 Q92.6 19.6 92.6 18.55 M105.35 17.6 Q105.35 16.35 106.4 15.75 107.45 15.1 109.85 14.9 110.9 17.95 110.2 18.45 109.1 18.95 106.4 19.7 L105.6 19.15 Q105.35 18.75 105.35 17.6 Z" fill="none" stroke="#000000" stroke-linecap="round" stroke-linejoin="round" stroke-opacity="0.0" stroke-width="1.0"/>
    </g>
    <g id="morphshape3" transform="matrix(1.0, 0.0, 0.0, 1.0, -32.35, -6.65)">
      <path d="M93.75 9.1 Q93.75 10.25 93.9 10.65 L94.35 11.4 96.35 11.4 96.85 10.9 97.0 9.7 96.75 8.2 Q96.45 7.75 93.9 7.7 93.75 7.35 93.75 9.1 M68.85 10.9 Q68.65 11.3 69.3 12.05 69.7 12.35 70.5 12.55 71.85 12.6 73.2 12.4 73.6 11.9 73.5 11.2 72.6 11.05 69.25 10.35 L68.8 10.9 M65.95 34.8 L66.25 36.75 Q66.45 37.8 66.9 38.65 L70.4 38.65 Q70.6 38.35 70.9 38.2 L70.5 35.1 66.95 34.55 Q66.15 34.5 65.95 34.8 M43.1 14.5 L43.3 15.85 43.65 16.35 45.2 16.4 Q46.25 16.4 46.85 15.95 47.05 15.8 47.05 14.05 47.05 12.9 46.7 12.35 L46.0 11.7 43.2 12.8 43.1 14.5 M35.75 29.2 L36.0 30.2 Q36.35 31.0 36.8 31.3 40.9 30.75 40.9 28.35 40.9 27.25 40.55 26.95 L39.7 26.6 37.95 26.85 36.1 27.0 35.75 29.2" fill="#ffffff" fill-opacity="0.7058824" fill-rule="evenodd" stroke="none"/>
      <path d="M35.75 29.2 L36.1 27.0 37.95 26.85 39.7 26.6 40.55 26.95 Q40.9 27.25 40.9 28.35 40.9 30.75 36.8 31.3 36.35 31.0 36.0 30.2 L35.75 29.2 M43.1 14.5 L43.2 12.8 46.0 11.7 46.7 12.35 Q47.05 12.9 47.05 14.05 47.05 15.8 46.85 15.95 46.25 16.4 45.2 16.4 L43.65 16.35 43.3 15.85 43.1 14.5 M65.95 34.8 Q66.15 34.5 66.95 34.55 L70.5 35.1 70.9 38.2 Q70.6 38.35 70.4 38.65 L66.9 38.65 Q66.45 37.8 66.25 36.75 L65.95 34.8 M68.8 10.9 L69.25 10.35 Q72.6 11.05 73.5 11.2 73.6 11.9 73.2 12.4 71.85 12.6 70.5 12.55 69.7 12.35 69.3 12.05 68.65 11.3 68.85 10.9 M93.75 9.1 Q93.75 7.35 93.9 7.7 96.45 7.75 96.75 8.2 L97.0 9.7 96.85 10.9 96.35 11.4 94.35 11.4 93.9 10.65 Q93.75 10.25 93.75 9.1 Z" fill="none" stroke="#000000" stroke-linecap="round" stroke-linejoin="round" stroke-opacity="0.0" stroke-width="1.0"/>
    </g>
  </defs>
</svg>
