<?xml version="1.0" encoding="UTF-8" standalone="no"?>
<svg xmlns:xlink="http://www.w3.org/1999/xlink" height="47.45px" width="141.0px" xmlns="http://www.w3.org/2000/svg">
  <g transform="matrix(1.0, 0.0, 0.0, 1.0, -4.35, -2.9)">
    <use data-characterId="3188" height="47.45" transform="matrix(1.0, 0.0, 0.0, 1.0, 4.35, 2.9)" width="141.0" xlink:href="#morphshape0"/>
    <use data-characterId="3189" height="37.5" transform="matrix(1.0, 0.0, 0.0, 1.0, 17.5, 9.15)" width="116.05" xlink:href="#morphshape1"/>
    <use data-characterId="3190" height="21.8" transform="matrix(1.0, 0.0, 0.0, 1.0, 37.6, 4.7)" width="75.1" xlink:href="#morphshape2"/>
    <use data-characterId="3191" height="35.65" transform="matrix(1.0, 0.0, 0.0, 1.0, 32.35, 6.65)" width="66.65" xlink:href="#morphshape3"/>
  </g>
  <defs>
    <g id="morphshape0" transform="matrix(1.0, 0.0, 0.0, 1.0, -4.35, -2.9)">
      <path d="M4.95 18.7 Q5.3 20.2 9.4 21.1 13.6 21.8 18.25 22.25 26.45 23.1 23.05 25.25 19.1 25.95 20.45 27.35 22.45 28.25 20.4 29.15 18.35 29.85 17.35 30.95 16.65 32.75 18.9 33.4 20.75 33.9 22.7 34.15 26.3 34.45 28.6 35.35 L31.45 36.5 Q29.45 38.5 34.35 39.4 34.3 40.3 42.25 40.25 42.45 41.25 45.75 41.55 43.15 43.15 46.15 44.55 49.45 46.05 54.5 46.2 58.2 46.3 62.95 47.7 68.05 49.1 68.15 49.65 67.45 50.2 71.9 49.0 77.0 47.7 80.8 47.55 L90.25 46.7 Q95.05 46.3 98.25 45.7 104.8 45.6 107.2 43.05 107.85 41.9 109.15 40.05 114.25 39.25 113.1 37.9 121.4 35.7 118.65 34.2 119.15 33.7 117.4 33.5 124.65 32.15 124.5 31.45 127.3 30.4 125.35 29.45 124.2 28.8 121.9 28.15 120.45 27.8 123.8 26.9 127.15 26.0 131.75 24.0 136.35 22.0 135.55 20.55 134.65 19.05 128.15 18.7 125.2 18.35 123.05 18.4 L122.4 18.4 121.8 18.15 Q125.2 16.45 122.45 14.95 123.1 14.35 119.2 13.85 117.85 13.5 116.05 13.45 117.15 9.95 110.0 7.85 99.0 4.15 77.15 3.5 60.95 2.85 39.85 5.4 20.9 7.8 16.45 10.8 11.4 12.05 12.5 12.8 13.6 13.5 17.65 14.15 21.55 14.65 19.35 14.95 17.4 15.0 15.55 15.2 L6.8 16.05 4.8 16.3 Q4.1 17.55 4.75 18.85" fill="#96e0bc" fill-opacity="0.7058824" fill-rule="evenodd" stroke="none"/>
      <path d="M4.75 18.85 Q4.1 17.55 4.8 16.3 L6.8 16.05 15.55 15.2 Q17.4 15.0 19.35 14.95 21.55 14.65 17.65 14.15 13.6 13.5 12.5 12.8 11.4 12.05 16.45 10.8 20.9 7.8 39.85 5.4 60.95 2.85 77.15 3.5 99.0 4.15 110.0 7.85 117.15 9.95 116.05 13.45 117.85 13.5 119.2 13.85 123.1 14.35 122.45 14.95 125.2 16.45 121.8 18.15 L122.4 18.4 123.05 18.4 Q125.2 18.35 128.15 18.7 134.65 19.05 135.55 20.55 136.35 22.0 131.75 24.0 127.15 26.0 123.8 26.9 120.45 27.8 121.9 28.15 124.2 28.8 125.35 29.45 127.3 30.4 124.5 31.45 124.65 32.15 117.4 33.5 119.15 33.7 118.65 34.2 121.4 35.7 113.1 37.9 114.25 39.25 109.15 40.05 107.85 41.9 107.2 43.05 104.8 45.6 98.25 45.7 95.05 46.3 90.25 46.7 L80.8 47.55 Q77.0 47.7 71.9 49.0 67.45 50.2 68.15 49.65 68.05 49.1 62.95 47.7 58.2 46.3 54.5 46.2 49.45 46.05 46.15 44.55 43.15 43.15 45.75 41.55 42.45 41.25 42.25 40.25 34.3 40.3 34.35 39.4 29.45 38.5 31.45 36.5 L28.6 35.35 Q26.3 34.45 22.7 34.15 20.75 33.9 18.9 33.4 16.65 32.75 17.35 30.95 18.35 29.85 20.4 29.15 22.45 28.25 20.45 27.35 19.1 25.95 23.05 25.25 26.45 23.1 18.25 22.25 13.6 21.8 9.4 21.1 5.3 20.2 4.95 18.7" fill="none" stroke="#000000" stroke-linecap="round" stroke-linejoin="round" stroke-opacity="0.0" stroke-width="1.0"/>
    </g>
    <g id="morphshape1" transform="matrix(1.0, 0.0, 0.0, 1.0, -17.5, -9.15)">
      <path d="M117.75 23.2 Q117.75 23.95 118.2 24.65 118.95 25.7 121.8 25.45 L121.05 23.25 Q120.05 22.9 117.75 23.2 M100.25 29.7 Q100.25 30.05 101.35 30.85 L104.65 30.95 106.8 29.95 Q109.0 28.9 109.4 28.4 L107.9 27.2 103.7 26.8 Q100.25 27.0 100.25 29.7 M85.85 36.1 L86.15 36.75 Q86.8 37.2 87.95 37.6 L89.95 38.0 92.85 38.1 93.3 37.95 93.55 37.7 93.75 37.15 93.75 36.7 Q93.7 36.0 93.25 35.65 92.45 35.0 88.9 34.9 87.4 35.1 86.05 35.55 L85.9 36.15 M76.1 40.05 L76.1 40.05 76.55 40.85 Q77.8 41.1 79.15 41.35 L81.75 41.5 85.6 41.35 86.3 41.15 86.75 40.75 86.9 40.0 86.85 39.5 Q86.7 38.7 86.0 38.25 84.85 37.5 80.05 37.6 78.05 37.9 76.55 39.2 L76.05 39.95 M62.25 33.75 L62.8 34.65 69.15 35.05 Q73.2 35.05 76.05 32.8 76.05 30.9 70.0 30.75 63.75 30.65 62.25 33.75 M60.2 41.95 Q60.25 42.45 60.45 42.7 L63.5 42.7 Q63.95 42.45 64.2 40.85 L60.7 41.05 Q60.2 41.4 60.2 41.95 M49.0 36.35 L50.2 37.55 Q52.25 38.7 56.55 38.7 58.1 38.7 59.85 36.55 59.85 33.6 54.45 33.65 49.0 33.7 49.0 36.35 M27.65 28.75 Q27.7 29.35 30.3 30.85 33.6 32.55 37.25 32.5 L41.1 32.3 Q42.25 31.7 42.9 29.7 42.75 26.8 35.15 26.25 27.5 25.7 27.65 28.75 M18.6 17.35 Q18.6 17.8 19.05 18.5 L20.0 19.45 26.85 19.55 Q28.05 18.65 28.05 18.1 28.05 16.25 23.35 16.15 18.6 16.1 18.6 17.35" fill="#bef0d8" fill-opacity="0.7058824" fill-rule="evenodd" stroke="none"/>
      <path d="M18.6 17.35 Q18.6 16.1 23.35 16.15 28.05 16.25 28.05 18.1 28.05 18.65 26.85 19.55 L20.0 19.45 19.05 18.5 Q18.6 17.8 18.6 17.35 M27.65 28.75 Q27.5 25.7 35.15 26.25 42.75 26.8 42.9 29.7 42.25 31.7 41.1 32.3 L37.25 32.5 Q33.6 32.55 30.3 30.85 27.7 29.35 27.65 28.75 M49.0 36.35 Q49.0 33.7 54.45 33.65 59.85 33.6 59.85 36.55 58.1 38.7 56.55 38.7 52.25 38.7 50.2 37.55 L49.0 36.35 M60.2 41.95 Q60.2 41.4 60.7 41.05 L64.2 40.85 Q63.95 42.45 63.5 42.7 L60.45 42.7 Q60.25 42.45 60.2 41.95 M62.25 33.75 Q63.75 30.65 70.0 30.75 76.05 30.9 76.05 32.8 73.2 35.05 69.15 35.05 L62.8 34.65 62.25 33.75 M76.05 39.95 L76.55 39.2 Q78.05 37.9 80.05 37.6 84.85 37.5 86.0 38.25 86.7 38.7 86.85 39.5 L86.9 40.0 86.75 40.75 86.3 41.15 85.6 41.35 81.75 41.5 79.15 41.35 Q77.8 41.1 76.55 40.85 L76.1 40.05 76.1 40.05 M85.9 36.15 L86.05 35.55 Q87.4 35.1 88.9 34.9 92.45 35.0 93.25 35.65 93.7 36.0 93.75 36.7 L93.75 37.15 93.55 37.7 93.3 37.95 92.85 38.1 89.95 38.0 87.95 37.6 Q86.8 37.2 86.15 36.75 L85.85 36.1 M100.25 29.7 Q100.25 27.0 103.7 26.8 L107.9 27.2 109.4 28.4 Q109.0 28.9 106.8 29.95 L104.65 30.95 101.35 30.85 Q100.25 30.05 100.25 29.7 M117.75 23.2 Q120.05 22.9 121.05 23.25 L121.8 25.45 Q118.95 25.7 118.2 24.65 117.75 23.95 117.75 23.2 Z" fill="none" stroke="#000000" stroke-linecap="round" stroke-linejoin="round" stroke-opacity="0.0" stroke-width="1.0"/>
    </g>
    <g id="morphshape2" transform="matrix(1.0, 0.0, 0.0, 1.0, -37.6, -4.7)">
      <path d="M102.6 15.55 Q102.6 16.7 102.85 17.1 L103.65 17.65 Q105.8 16.95 107.45 16.4 108.15 15.9 107.1 12.85 104.7 13.05 103.65 13.7 102.6 14.3 102.6 15.55 M90.55 21.05 Q90.55 22.1 91.15 22.7 L94.2 22.9 Q94.65 21.9 94.4 19.8 L90.65 19.7 90.55 21.05 M89.0 11.4 Q89.0 12.45 89.4 13.35 L95.35 13.35 Q96.4 12.3 96.4 8.8 91.7 8.35 90.05 9.2 89.0 9.8 89.0 11.4 M80.7 21.55 Q80.75 22.5 81.5 24.35 82.15 24.8 83.7 24.95 L84.5 23.75 Q85.0 23.05 84.3 21.25 L80.7 21.55 M78.0 8.15 Q77.6 10.05 78.4 11.55 79.4 13.3 81.65 13.3 82.8 13.3 84.0 11.55 83.15 9.15 81.5 8.5 L78.0 8.15 M66.2 13.2 L66.25 14.65 66.6 15.2 72.05 15.95 75.35 16.35 Q77.1 16.35 76.0 13.9 76.0 10.85 71.1 10.7 66.2 10.6 66.2 13.2 M56.0 13.3 L56.05 14.1 56.15 14.3 Q56.3 14.65 56.6 14.75 57.05 14.9 58.05 15.05 L60.15 14.45 Q60.4 13.25 60.35 11.7 59.9 10.6 59.5 9.75 58.55 9.45 57.6 9.6 55.95 10.55 55.95 13.25 M49.0 19.75 L49.0 19.8 49.1 20.9 49.4 21.25 Q49.85 21.35 50.3 21.35 L52.5 21.45 Q54.4 21.3 56.05 21.3 56.25 20.05 55.65 17.25 54.8 15.7 54.0 14.85 52.75 13.85 51.35 14.3 49.0 15.45 49.0 19.8 M38.35 11.0 L39.45 13.1 Q41.15 15.25 44.15 15.25 48.05 15.25 48.05 12.05 48.05 9.05 43.2 8.25 38.35 7.4 38.35 11.0" fill="#bef0d8" fill-opacity="0.7058824" fill-rule="evenodd" stroke="none"/>
      <path d="M38.35 11.0 Q38.35 7.4 43.2 8.25 48.05 9.05 48.05 12.05 48.05 15.25 44.15 15.25 41.15 15.25 39.45 13.1 L38.35 11.0 M49.0 19.8 Q49.0 15.45 51.35 14.3 52.75 13.85 54.0 14.85 54.8 15.7 55.65 17.25 56.25 20.05 56.05 21.3 54.4 21.3 52.5 21.45 L50.3 21.35 Q49.85 21.35 49.4 21.25 L49.1 20.9 49.0 19.8 49.0 19.75 M55.95 13.25 Q55.95 10.55 57.6 9.6 58.55 9.45 59.5 9.75 59.9 10.6 60.35 11.7 60.4 13.25 60.15 14.45 L58.05 15.05 Q57.05 14.9 56.6 14.75 56.3 14.65 56.15 14.3 L56.05 14.1 56.0 13.3 M66.2 13.2 Q66.2 10.6 71.1 10.7 76.0 10.85 76.0 13.9 77.1 16.35 75.35 16.35 L72.05 15.95 66.6 15.2 66.25 14.65 66.2 13.2 M78.0 8.15 L81.5 8.5 Q83.15 9.15 84.0 11.55 82.8 13.3 81.65 13.3 79.4 13.3 78.4 11.55 77.6 10.05 78.0 8.15 M80.7 21.55 L84.3 21.25 Q85.0 23.05 84.5 23.75 L83.7 24.95 Q82.15 24.8 81.5 24.35 80.75 22.5 80.7 21.55 M89.0 11.4 Q89.0 9.8 90.05 9.2 91.7 8.35 96.4 8.8 96.4 12.3 95.35 13.35 L89.4 13.35 Q89.0 12.45 89.0 11.4 M90.55 21.05 L90.65 19.7 94.4 19.8 Q94.65 21.9 94.2 22.9 L91.15 22.7 Q90.55 22.1 90.55 21.05 M102.6 15.55 Q102.6 14.3 103.65 13.7 104.7 13.05 107.1 12.85 108.15 15.9 107.45 16.4 105.8 16.95 103.65 17.65 L102.85 17.1 Q102.6 16.7 102.6 15.55 Z" fill="none" stroke="#000000" stroke-linecap="round" stroke-linejoin="round" stroke-opacity="0.0" stroke-width="1.0"/>
    </g>
    <g id="morphshape3" transform="matrix(1.0, 0.0, 0.0, 1.0, -32.35, -6.65)">
      <path d="M94.7 8.75 Q94.7 9.9 94.85 10.3 L95.3 11.05 97.3 11.05 97.8 10.55 97.95 9.35 97.7 7.85 Q97.4 7.4 94.85 7.35 94.7 7.0 94.7 8.75 M69.35 12.8 Q69.1 13.15 69.65 14.05 70.15 14.45 70.8 14.8 L73.55 15.15 Q74.05 14.7 74.05 14.0 73.85 13.55 69.9 12.35 L69.35 12.8 M66.2 31.25 L66.5 33.2 Q66.7 34.25 67.15 35.1 L70.65 35.1 Q70.9 34.85 71.15 34.65 L70.75 31.55 67.2 31.0 Q66.4 30.95 66.2 31.25 M41.15 13.45 L41.35 14.8 41.7 15.3 43.25 15.35 Q44.3 15.35 44.9 14.9 45.1 14.75 45.1 13.0 45.1 11.85 44.75 11.3 L44.05 10.65 41.25 11.75 41.15 13.45 M33.5 29.2 L33.75 30.2 Q34.1 31.0 34.55 31.3 38.65 30.75 38.65 28.35 38.65 27.25 38.3 26.95 L37.45 26.6 35.7 26.85 33.85 27.0 33.5 29.2" fill="#ffffff" fill-opacity="0.7058824" fill-rule="evenodd" stroke="none"/>
      <path d="M33.5 29.2 L33.85 27.0 35.7 26.85 37.45 26.6 38.3 26.95 Q38.65 27.25 38.65 28.35 38.65 30.75 34.55 31.3 34.1 31.0 33.75 30.2 L33.5 29.2 M41.15 13.45 L41.25 11.75 44.05 10.65 44.75 11.3 Q45.1 11.85 45.1 13.0 45.1 14.75 44.9 14.9 44.3 15.35 43.25 15.35 L41.7 15.3 41.35 14.8 41.15 13.45 M66.2 31.25 Q66.4 30.95 67.2 31.0 L70.75 31.55 71.15 34.65 Q70.9 34.85 70.65 35.1 L67.15 35.1 Q66.7 34.25 66.5 33.2 L66.2 31.25 M69.35 12.8 L69.9 12.35 Q73.85 13.55 74.05 14.0 74.05 14.7 73.55 15.15 L70.8 14.8 Q70.15 14.45 69.65 14.05 69.1 13.15 69.35 12.8 M94.7 8.75 Q94.7 7.0 94.85 7.35 97.4 7.4 97.7 7.85 L97.95 9.35 97.8 10.55 97.3 11.05 95.3 11.05 94.85 10.3 Q94.7 9.9 94.7 8.75 Z" fill="none" stroke="#000000" stroke-linecap="round" stroke-linejoin="round" stroke-opacity="0.0" stroke-width="1.0"/>
    </g>
  </defs>
</svg>
