<?xml version="1.0" encoding="UTF-8" standalone="no"?>
<svg xmlns:xlink="http://www.w3.org/1999/xlink" height="47.45px" width="141.0px" xmlns="http://www.w3.org/2000/svg">
  <g transform="matrix(1.0, 0.0, 0.0, 1.0, -4.35, -2.9)">
    <use data-characterId="3188" height="47.45" transform="matrix(1.0, 0.0, 0.0, 1.0, 4.35, 2.9)" width="141.0" xlink:href="#morphshape0"/>
    <use data-characterId="3189" height="37.5" transform="matrix(1.0, 0.0, 0.0, 1.0, 17.5, 9.15)" width="116.05" xlink:href="#morphshape1"/>
    <use data-characterId="3190" height="21.8" transform="matrix(1.0, 0.0, 0.0, 1.0, 37.6, 4.7)" width="75.1" xlink:href="#morphshape2"/>
    <use data-characterId="3191" height="35.65" transform="matrix(1.0, 0.0, 0.0, 1.0, 32.35, 6.65)" width="66.65" xlink:href="#morphshape3"/>
  </g>
  <defs>
    <g id="morphshape0" transform="matrix(1.0, 0.0, 0.0, 1.0, -4.35, -2.9)">
      <path d="M4.6 17.3 Q4.2 18.85 11.95 20.15 19.75 21.35 28.95 21.9 39.55 22.6 26.55 23.9 13.35 24.65 22.2 26.35 31.3 27.85 25.2 28.55 19.1 29.15 15.0 30.7 11.05 32.5 15.1 33.0 19.0 33.45 20.7 33.9 23.0 34.35 25.2 34.8 L34.85 35.6 Q29.6 37.25 31.3 37.95 21.8 40.55 37.95 40.2 40.65 40.65 51.25 39.4 42.85 42.2 44.1 43.35 45.45 44.55 52.55 44.95 60.15 45.25 68.15 46.05 77.3 46.8 71.4 48.55 65.15 50.3 68.2 49.85 73.05 49.4 77.35 49.35 L91.55 48.8 Q99.6 48.4 102.6 47.4 106.9 46.55 106.4 45.05 105.2 44.05 107.95 41.5 110.85 40.4 103.9 38.35 122.05 37.4 123.2 35.6 125.65 34.2 120.75 33.85 121.35 33.15 119.1 32.7 126.45 31.3 126.2 30.4 126.2 29.6 122.55 28.75 119.2 28.05 116.1 27.6 113.05 27.15 124.65 25.75 136.3 24.35 139.95 22.6 143.55 20.8 135.35 19.55 128.55 18.3 124.2 18.35 L122.5 18.4 122.2 18.3 Q123.3 17.55 122.0 16.85 131.4 15.65 126.1 14.65 121.8 13.65 116.05 13.5 116.5 12.1 113.7 11.3 104.25 7.15 92.4 5.0 82.75 2.85 58.4 3.85 39.35 4.8 22.7 8.25 5.8 11.0 8.5 12.0 11.2 12.95 23.4 13.8 35.55 14.6 30.1 14.85 24.7 14.95 19.35 15.1 L11.1 15.55 4.85 16.3 Q4.55 16.8 4.8 17.3" fill="#96e0bc" fill-opacity="0.7058824" fill-rule="evenodd" stroke="none"/>
      <path d="M4.8 17.3 Q4.55 16.8 4.85 16.3 L11.1 15.55 19.35 15.1 Q24.7 14.95 30.1 14.85 35.55 14.6 23.4 13.8 11.2 12.95 8.5 12.0 5.8 11.0 22.7 8.25 39.35 4.8 58.4 3.85 82.75 2.85 92.4 5.0 104.25 7.15 113.7 11.3 116.5 12.1 116.05 13.5 121.8 13.65 126.1 14.65 131.4 15.65 122.0 16.85 123.3 17.55 122.2 18.3 L122.5 18.4 124.2 18.35 Q128.55 18.3 135.35 19.55 143.55 20.8 139.95 22.6 136.3 24.35 124.65 25.75 113.05 27.15 116.1 27.6 119.2 28.05 122.55 28.75 126.2 29.6 126.2 30.4 126.45 31.3 119.1 32.7 121.35 33.15 120.75 33.85 125.65 34.2 123.2 35.6 122.05 37.4 103.9 38.35 110.85 40.4 107.95 41.5 105.2 44.05 106.4 45.05 106.9 46.55 102.6 47.4 99.6 48.4 91.55 48.8 L77.35 49.35 Q73.05 49.4 68.2 49.85 65.15 50.3 71.4 48.55 77.3 46.8 68.15 46.05 60.15 45.25 52.55 44.95 45.45 44.55 44.1 43.35 42.85 42.2 51.25 39.4 40.65 40.65 37.95 40.2 21.8 40.55 31.3 37.95 29.6 37.25 34.85 35.6 L25.2 34.8 Q23.0 34.35 20.7 33.9 19.0 33.45 15.1 33.0 11.05 32.5 15.0 30.7 19.1 29.15 25.2 28.55 31.3 27.85 22.2 26.35 13.35 24.65 26.55 23.9 39.55 22.6 28.95 21.9 19.75 21.35 11.95 20.15 4.2 18.85 4.6 17.3" fill="none" stroke="#000000" stroke-linecap="round" stroke-linejoin="round" stroke-opacity="0.0" stroke-width="1.0"/>
    </g>
    <g id="morphshape1" transform="matrix(1.0, 0.0, 0.0, 1.0, -17.5, -9.15)">
      <path d="M124.95 22.25 Q124.95 23.0 125.4 23.7 126.15 24.75 129.0 24.5 L128.25 22.3 Q127.25 21.95 124.95 22.25 M101.95 32.35 Q101.95 32.7 103.05 33.5 L106.35 33.6 108.5 32.6 Q110.7 31.55 111.1 31.05 L109.6 29.85 105.4 29.45 Q101.95 29.65 101.95 32.35 M88.6 41.65 L89.05 42.45 Q90.2 42.75 91.55 43.05 L94.05 43.25 97.75 43.15 98.4 42.95 98.8 42.6 98.95 41.85 98.9 41.35 Q98.75 40.6 98.1 40.15 97.0 39.45 92.4 39.55 90.45 39.85 88.95 41.0 L88.5 41.75 M78.1 34.7 L78.1 34.75 78.4 35.35 Q79.15 35.75 80.3 36.1 L82.4 36.45 85.45 36.5 85.95 36.35 86.25 36.05 86.45 35.5 86.45 35.05 Q86.4 34.3 85.9 33.95 85.05 33.25 81.3 33.15 79.75 33.35 78.4 33.95 L78.2 34.55 M61.65 38.3 L62.2 39.2 68.55 39.6 Q72.6 39.6 75.45 37.35 75.45 35.45 69.4 35.3 63.15 35.2 61.65 38.3 M56.6 41.2 Q56.7 41.65 56.85 41.95 L59.9 41.95 Q60.35 41.7 60.6 40.1 L57.1 40.3 Q56.6 40.65 56.6 41.2 M49.0 34.8 L50.2 36.0 Q52.25 37.15 56.55 37.15 58.1 37.15 59.85 35.0 59.85 32.05 54.45 32.1 49.0 32.15 49.0 34.8 M30.35 29.7 Q30.5 30.25 33.25 31.4 36.75 32.15 40.35 32.2 L44.15 31.5 Q45.2 30.75 45.6 28.7 45.1 25.85 37.5 26.3 29.85 26.7 30.35 29.7 M21.1 13.05 Q21.1 13.5 21.55 14.2 L22.5 15.15 29.35 15.25 Q30.55 14.35 30.55 13.8 30.55 11.95 25.85 11.85 21.1 11.8 21.1 13.05" fill="#bef0d8" fill-opacity="0.7058824" fill-rule="evenodd" stroke="none"/>
      <path d="M21.1 13.05 Q21.1 11.8 25.85 11.85 30.55 11.95 30.55 13.8 30.55 14.35 29.35 15.25 L22.5 15.15 21.55 14.2 Q21.1 13.5 21.1 13.05 M30.35 29.7 Q29.85 26.7 37.5 26.3 45.1 25.85 45.6 28.7 45.2 30.75 44.15 31.5 L40.35 32.2 Q36.75 32.15 33.25 31.4 30.5 30.25 30.35 29.7 M49.0 34.8 Q49.0 32.15 54.45 32.1 59.85 32.05 59.85 35.0 58.1 37.15 56.55 37.15 52.25 37.15 50.2 36.0 L49.0 34.8 M56.6 41.2 Q56.6 40.65 57.1 40.3 L60.6 40.1 Q60.35 41.7 59.9 41.95 L56.85 41.95 Q56.7 41.65 56.6 41.2 M61.65 38.3 Q63.15 35.2 69.4 35.3 75.45 35.45 75.45 37.35 72.6 39.6 68.55 39.6 L62.2 39.2 61.65 38.3 M78.2 34.55 L78.4 33.95 Q79.75 33.35 81.3 33.15 85.05 33.25 85.9 33.95 86.4 34.3 86.45 35.05 L86.45 35.5 86.25 36.05 85.95 36.35 85.45 36.5 82.4 36.45 80.3 36.1 Q79.15 35.75 78.4 35.35 L78.1 34.75 78.1 34.7 M88.5 41.75 L88.95 41.0 Q90.45 39.85 92.4 39.55 97.0 39.45 98.1 40.15 98.75 40.6 98.9 41.35 L98.95 41.85 98.8 42.6 98.4 42.95 97.75 43.15 94.05 43.25 91.55 43.05 Q90.2 42.75 89.05 42.45 L88.6 41.65 M101.95 32.35 Q101.95 29.65 105.4 29.45 L109.6 29.85 111.1 31.05 Q110.7 31.55 108.5 32.6 L106.35 33.6 103.05 33.5 Q101.95 32.7 101.95 32.35 M124.95 22.25 Q127.25 21.95 128.25 22.3 L129.0 24.5 Q126.15 24.75 125.4 23.7 124.95 23.0 124.95 22.25 Z" fill="none" stroke="#000000" stroke-linecap="round" stroke-linejoin="round" stroke-opacity="0.0" stroke-width="1.0"/>
    </g>
    <g id="morphshape2" transform="matrix(1.0, 0.0, 0.0, 1.0, -37.6, -4.7)">
      <path d="M105.6 17.8 Q105.6 18.95 105.85 19.35 L106.65 19.9 Q109.4 19.15 110.45 18.65 111.15 18.15 110.1 15.1 107.7 15.3 106.65 15.95 105.6 16.55 105.6 17.8 M92.8 18.25 Q92.8 19.3 93.4 19.9 L96.45 20.1 Q96.9 19.1 96.65 17.0 L92.9 16.9 92.8 18.25 M91.5 9.9 Q91.5 10.95 91.9 11.85 L97.85 11.85 Q98.9 10.8 98.9 7.3 94.2 6.85 92.55 7.7 91.5 8.3 91.5 9.9 M83.2 18.15 Q83.25 19.1 84.0 20.95 84.65 21.4 86.2 21.55 L87.0 20.35 Q87.5 19.65 86.8 17.85 L83.2 18.15 M76.4 12.4 Q76.0 14.3 76.8 15.8 77.8 17.55 80.05 17.55 81.2 17.55 82.4 15.8 81.55 13.4 79.9 12.75 L76.4 12.4 M64.75 10.7 L64.8 12.15 65.15 12.7 70.6 13.45 73.9 13.85 Q75.65 13.85 74.55 11.4 74.55 8.35 69.65 8.2 64.75 8.1 64.75 10.7 M56.15 19.35 L56.25 20.45 56.55 20.8 Q56.95 20.95 57.4 21.0 58.35 21.05 59.5 21.1 L62.8 20.85 Q63.0 19.6 62.45 17.0 61.65 15.5 60.9 14.65 59.7 13.75 58.35 14.15 56.1 15.25 56.1 19.35 M51.2 12.35 L51.2 12.5 51.25 13.25 51.35 13.45 Q51.55 13.75 51.85 13.8 L53.45 14.1 Q55.0 13.65 55.8 13.6 56.05 12.4 55.95 10.65 55.45 9.5 55.0 8.65 54.0 8.25 53.0 8.45 51.25 9.45 51.25 12.4 M40.0 12.9 L41.1 15.0 Q42.8 17.15 45.8 17.15 49.7 17.15 49.7 13.95 49.7 10.95 44.85 10.15 40.0 9.3 40.0 12.9" fill="#bef0d8" fill-opacity="0.7058824" fill-rule="evenodd" stroke="none"/>
      <path d="M40.0 12.9 Q40.0 9.3 44.85 10.15 49.7 10.95 49.7 13.95 49.7 17.15 45.8 17.15 42.8 17.15 41.1 15.0 L40.0 12.9 M51.25 12.4 Q51.25 9.45 53.0 8.45 54.0 8.25 55.0 8.65 55.45 9.5 55.95 10.65 56.05 12.4 55.8 13.6 55.0 13.65 53.45 14.1 L51.85 13.8 Q51.55 13.75 51.35 13.45 L51.25 13.25 51.2 12.5 51.2 12.35 M56.1 19.35 Q56.1 15.25 58.35 14.15 59.7 13.75 60.9 14.65 61.65 15.5 62.45 17.0 63.0 19.6 62.8 20.85 L59.5 21.1 Q58.35 21.05 57.4 21.0 56.95 20.95 56.55 20.8 L56.25 20.45 56.15 19.35 M64.75 10.7 Q64.75 8.1 69.65 8.2 74.55 8.35 74.55 11.4 75.65 13.85 73.9 13.85 L70.6 13.45 65.15 12.7 64.8 12.15 64.75 10.7 M76.4 12.4 L79.9 12.75 Q81.55 13.4 82.4 15.8 81.2 17.55 80.05 17.55 77.8 17.55 76.8 15.8 76.0 14.3 76.4 12.4 M83.2 18.15 L86.8 17.85 Q87.5 19.65 87.0 20.35 L86.2 21.55 Q84.65 21.4 84.0 20.95 83.25 19.1 83.2 18.15 M91.5 9.9 Q91.5 8.3 92.55 7.7 94.2 6.85 98.9 7.3 98.9 10.8 97.85 11.85 L91.9 11.85 Q91.5 10.95 91.5 9.9 M92.8 18.25 L92.9 16.9 96.65 17.0 Q96.9 19.1 96.45 20.1 L93.4 19.9 Q92.8 19.3 92.8 18.25 M105.6 17.8 Q105.6 16.55 106.65 15.95 107.7 15.3 110.1 15.1 111.15 18.15 110.45 18.65 109.4 19.15 106.65 19.9 L105.85 19.35 Q105.6 18.95 105.6 17.8 Z" fill="none" stroke="#000000" stroke-linecap="round" stroke-linejoin="round" stroke-opacity="0.0" stroke-width="1.0"/>
    </g>
    <g id="morphshape3" transform="matrix(1.0, 0.0, 0.0, 1.0, -32.35, -6.65)">
      <path d="M95.35 8.35 Q95.35 9.5 95.5 9.9 L95.95 10.65 97.95 10.65 98.45 10.15 98.6 8.95 98.35 7.45 Q98.05 7.0 95.5 6.95 95.35 6.6 95.35 8.35 M68.8 10.5 Q68.55 10.85 69.1 11.75 69.45 12.2 70.25 12.5 L73.0 12.85 Q73.5 12.4 73.5 11.7 73.3 11.25 69.35 10.05 L68.8 10.5 M65.9 35.65 L66.2 37.6 Q66.4 38.65 66.85 39.5 L70.35 39.5 Q70.55 39.2 70.85 39.05 L70.45 35.95 66.9 35.4 Q66.1 35.35 65.9 35.65 M43.3 14.6 L43.5 15.95 43.85 16.45 45.4 16.5 Q46.45 16.5 47.05 16.05 47.25 15.9 47.25 14.15 47.25 13.0 46.9 12.45 L46.2 11.8 43.4 12.9 43.3 14.6 M35.95 29.2 L36.2 30.2 Q36.55 31.0 37.0 31.3 41.1 30.75 41.1 28.35 41.1 27.25 40.75 26.95 L39.9 26.6 38.15 26.85 36.3 27.0 35.95 29.2" fill="#ffffff" fill-opacity="0.7058824" fill-rule="evenodd" stroke="none"/>
      <path d="M35.95 29.2 L36.3 27.0 38.15 26.85 39.9 26.6 40.75 26.95 Q41.1 27.25 41.1 28.35 41.1 30.75 37.0 31.3 36.55 31.0 36.2 30.2 L35.95 29.2 M43.3 14.6 L43.4 12.9 46.2 11.8 46.9 12.45 Q47.25 13.0 47.25 14.15 47.25 15.9 47.05 16.05 46.45 16.5 45.4 16.5 L43.85 16.45 43.5 15.95 43.3 14.6 M65.9 35.65 Q66.1 35.35 66.9 35.4 L70.45 35.95 70.85 39.05 Q70.55 39.2 70.35 39.5 L66.85 39.5 Q66.4 38.65 66.2 37.6 L65.9 35.65 M68.8 10.5 L69.35 10.05 Q73.3 11.25 73.5 11.7 73.5 12.4 73.0 12.85 L70.25 12.5 Q69.45 12.2 69.1 11.75 68.55 10.85 68.8 10.5 M95.35 8.35 Q95.35 6.6 95.5 6.95 98.05 7.0 98.35 7.45 L98.6 8.95 98.45 10.15 97.95 10.65 95.95 10.65 95.5 9.9 Q95.35 9.5 95.35 8.35 Z" fill="none" stroke="#000000" stroke-linecap="round" stroke-linejoin="round" stroke-opacity="0.0" stroke-width="1.0"/>
    </g>
  </defs>
</svg>
