<?xml version="1.0" encoding="UTF-8" standalone="no"?>
<svg xmlns:xlink="http://www.w3.org/1999/xlink" height="47.45px" width="141.0px" xmlns="http://www.w3.org/2000/svg">
  <g transform="matrix(1.0, 0.0, 0.0, 1.0, -4.35, -2.9)">
    <use data-characterId="3188" height="47.45" transform="matrix(1.0, 0.0, 0.0, 1.0, 4.35, 2.9)" width="141.0" xlink:href="#morphshape0"/>
    <use data-characterId="3189" height="37.5" transform="matrix(1.0, 0.0, 0.0, 1.0, 17.5, 9.15)" width="116.05" xlink:href="#morphshape1"/>
    <use data-characterId="3190" height="21.8" transform="matrix(1.0, 0.0, 0.0, 1.0, 37.6, 4.7)" width="75.1" xlink:href="#morphshape2"/>
    <use data-characterId="3191" height="35.65" transform="matrix(1.0, 0.0, 0.0, 1.0, 32.35, 6.65)" width="66.65" xlink:href="#morphshape3"/>
  </g>
  <defs>
    <g id="morphshape0" transform="matrix(1.0, 0.0, 0.0, 1.0, -4.35, -2.9)">
      <path d="M4.65 16.95 Q4.2 18.5 12.1 19.8 20.0 21.05 29.35 21.65 40.0 22.35 26.7 23.65 13.2 24.4 22.25 26.1 31.55 27.6 25.35 28.3 19.1 28.9 14.9 30.45 10.85 32.25 14.95 32.75 18.9 33.2 20.55 33.65 22.8 34.1 24.95 34.55 L34.8 35.3 Q29.45 36.95 31.05 37.65 21.25 40.3 37.65 39.95 40.45 40.4 51.3 39.15 42.75 42.0 43.9 43.15 45.2 44.35 52.35 44.75 60.1 45.05 68.2 45.85 77.45 46.55 71.35 48.35 64.95 50.15 68.0 49.7 72.8 49.25 77.1 49.25 L91.45 48.7 Q99.6 48.3 102.6 47.3 106.85 46.45 106.25 45.0 105.0 44.0 107.8 41.45 110.65 40.35 103.5 38.25 121.95 37.35 123.25 35.55 125.75 34.15 120.75 33.8 121.15 33.15 118.85 32.75 126.35 31.3 126.15 30.4 126.2 29.6 122.5 28.75 119.05 28.0 115.75 27.55 112.5 27.1 124.3 25.7 136.15 24.3 139.9 22.55 143.65 20.75 135.4 19.5 128.5 18.25 124.1 18.3 L122.4 18.35 122.1 18.25 Q123.15 17.55 121.9 16.9 131.6 15.7 126.3 14.65 121.9 13.65 116.05 13.5 116.45 12.15 113.8 11.35 104.35 7.2 92.85 5.0 83.4 2.8 58.95 3.75 39.85 4.65 22.85 8.1 5.6 10.9 8.35 11.95 11.1 12.95 23.55 13.8 35.95 14.6 30.4 14.85 24.9 14.95 19.45 15.1 L11.2 15.55 4.85 16.3 Q4.55 16.75 4.8 17.25" fill="#96e0bc" fill-opacity="0.7058824" fill-rule="evenodd" stroke="none"/>
      <path d="M4.8 17.25 Q4.55 16.75 4.85 16.3 L11.2 15.55 19.45 15.1 Q24.9 14.95 30.4 14.85 35.95 14.6 23.55 13.8 11.1 12.95 8.35 11.95 5.6 10.9 22.85 8.1 39.85 4.65 58.95 3.75 83.4 2.8 92.85 5.0 104.35 7.2 113.8 11.35 116.45 12.15 116.05 13.5 121.9 13.65 126.3 14.65 131.6 15.7 121.9 16.9 123.15 17.55 122.1 18.25 L122.4 18.35 124.1 18.3 Q128.5 18.25 135.4 19.5 143.65 20.75 139.9 22.55 136.15 24.3 124.3 25.7 112.5 27.1 115.75 27.55 119.05 28.0 122.5 28.75 126.2 29.6 126.15 30.4 126.35 31.3 118.85 32.75 121.15 33.15 120.75 33.8 125.75 34.15 123.25 35.55 121.95 37.35 103.5 38.25 110.65 40.35 107.8 41.45 105.0 44.0 106.25 45.0 106.85 46.45 102.6 47.3 99.6 48.3 91.45 48.7 L77.1 49.25 Q72.8 49.25 68.0 49.7 64.95 50.15 71.35 48.35 77.45 46.55 68.2 45.85 60.1 45.05 52.35 44.75 45.2 44.35 43.9 43.15 42.75 42.0 51.3 39.15 40.45 40.4 37.65 39.95 21.25 40.3 31.05 37.65 29.45 36.95 34.8 35.3 L24.95 34.55 Q22.8 34.1 20.55 33.65 18.9 33.2 14.95 32.75 10.85 32.25 14.9 30.45 19.1 28.9 25.35 28.3 31.55 27.6 22.25 26.1 13.2 24.4 26.7 23.65 40.0 22.35 29.35 21.65 20.0 21.05 12.1 19.8 4.2 18.5 4.65 16.95" fill="none" stroke="#000000" stroke-linecap="round" stroke-linejoin="round" stroke-opacity="0.0" stroke-width="1.0"/>
    </g>
    <g id="morphshape1" transform="matrix(1.0, 0.0, 0.0, 1.0, -17.5, -9.15)">
      <path d="M125.15 22.25 Q125.15 23.0 125.6 23.7 126.35 24.75 129.2 24.5 L128.45 22.3 Q127.45 21.95 125.15 22.25 M102.0 32.45 Q102.0 32.8 103.1 33.6 L106.4 33.7 108.55 32.7 Q110.75 31.65 111.15 31.15 L109.65 29.95 105.45 29.55 Q102.0 29.75 102.0 32.45 M88.6 41.85 L89.05 42.65 Q90.25 42.95 91.6 43.2 L94.15 43.4 97.9 43.3 98.55 43.1 98.95 42.7 99.1 41.95 99.05 41.45 Q98.9 40.7 98.25 40.25 97.15 39.55 92.5 39.65 90.55 39.95 89.05 41.15 L88.6 41.9 M78.25 34.5 L78.25 34.55 78.55 35.15 Q79.25 35.55 80.4 35.95 L82.45 36.3 85.45 36.35 85.95 36.2 86.25 35.95 86.45 35.4 86.45 34.95 Q86.4 34.2 85.9 33.85 85.05 33.15 81.35 33.05 79.8 33.25 78.45 33.8 L78.25 34.4 M61.65 38.45 L62.2 39.35 68.55 39.75 Q72.6 39.75 75.45 37.5 75.45 35.6 69.4 35.45 63.15 35.35 61.65 38.45 M56.5 41.15 Q56.6 41.6 56.75 41.9 L59.8 41.9 Q60.25 41.65 60.5 40.05 L57.0 40.25 Q56.5 40.6 56.5 41.15 M49.0 34.8 L50.2 36.0 Q52.25 37.15 56.55 37.15 58.1 37.15 59.85 35.0 59.85 32.05 54.45 32.1 49.0 32.15 49.0 34.8 M30.45 29.7 Q30.6 30.25 33.35 31.4 36.85 32.15 40.45 32.2 L44.25 31.5 Q45.3 30.75 45.7 28.7 45.15 25.85 37.55 26.3 29.9 26.7 30.45 29.7 M21.15 12.95 Q21.15 13.4 21.6 14.1 L22.55 15.05 29.4 15.15 Q30.6 14.25 30.6 13.7 30.6 11.85 25.9 11.75 21.15 11.7 21.15 12.95" fill="#bef0d8" fill-opacity="0.7058824" fill-rule="evenodd" stroke="none"/>
      <path d="M21.15 12.95 Q21.15 11.7 25.9 11.75 30.6 11.85 30.6 13.7 30.6 14.25 29.4 15.15 L22.55 15.05 21.6 14.1 Q21.15 13.4 21.15 12.95 M30.45 29.7 Q29.9 26.7 37.55 26.3 45.15 25.85 45.7 28.7 45.3 30.75 44.25 31.5 L40.45 32.2 Q36.85 32.15 33.35 31.4 30.6 30.25 30.45 29.7 M49.0 34.8 Q49.0 32.15 54.45 32.1 59.85 32.05 59.85 35.0 58.1 37.15 56.55 37.15 52.25 37.15 50.2 36.0 L49.0 34.8 M56.5 41.15 Q56.5 40.6 57.0 40.25 L60.5 40.05 Q60.25 41.65 59.8 41.9 L56.75 41.9 Q56.6 41.6 56.5 41.15 M61.65 38.45 Q63.15 35.35 69.4 35.45 75.45 35.6 75.45 37.5 72.6 39.75 68.55 39.75 L62.2 39.35 61.65 38.45 M78.25 34.4 L78.45 33.8 Q79.8 33.25 81.35 33.05 85.05 33.15 85.9 33.85 86.4 34.2 86.45 34.95 L86.45 35.4 86.25 35.95 85.95 36.2 85.45 36.35 82.45 36.3 80.4 35.95 Q79.25 35.55 78.55 35.15 L78.25 34.55 78.25 34.5 M88.6 41.9 L89.05 41.15 Q90.55 39.95 92.5 39.65 97.15 39.55 98.25 40.25 98.9 40.7 99.05 41.45 L99.1 41.95 98.95 42.7 98.55 43.1 97.9 43.3 94.15 43.4 91.6 43.2 Q90.25 42.95 89.05 42.65 L88.6 41.85 M102.0 32.45 Q102.0 29.75 105.45 29.55 L109.65 29.95 111.15 31.15 Q110.75 31.65 108.55 32.7 L106.4 33.7 103.1 33.6 Q102.0 32.8 102.0 32.45 M125.15 22.25 Q127.45 21.95 128.45 22.3 L129.2 24.5 Q126.35 24.75 125.6 23.7 125.15 23.0 125.15 22.25 Z" fill="none" stroke="#000000" stroke-linecap="round" stroke-linejoin="round" stroke-opacity="0.0" stroke-width="1.0"/>
    </g>
    <g id="morphshape2" transform="matrix(1.0, 0.0, 0.0, 1.0, -37.6, -4.7)">
      <path d="M105.7 17.85 Q105.7 19.0 105.95 19.4 L106.75 19.95 Q109.5 19.2 110.55 18.7 111.25 18.2 110.2 15.15 107.8 15.35 106.75 16.0 105.7 16.6 105.7 17.85 M92.85 18.2 Q92.85 19.25 93.45 19.85 L96.5 20.05 Q96.95 19.05 96.7 16.95 L92.95 16.85 92.85 18.2 M91.6 9.85 Q91.6 10.9 92.0 11.8 L97.95 11.8 Q99.0 10.75 99.0 7.25 94.3 6.8 92.65 7.65 91.6 8.25 91.6 9.85 M83.25 18.0 Q83.3 18.95 84.05 20.8 84.7 21.25 86.25 21.4 L87.05 20.2 Q87.55 19.5 86.85 17.7 L83.25 18.0 M76.35 12.5 Q75.95 14.4 76.75 15.9 77.75 17.65 80.0 17.65 81.15 17.65 82.35 15.9 81.5 13.5 79.85 12.85 L76.35 12.5 M64.7 10.6 L64.75 12.05 65.1 12.6 70.55 13.35 73.85 13.75 Q75.6 13.75 74.5 11.3 74.5 8.25 69.6 8.1 64.7 8.0 64.7 10.6 M56.15 19.45 L56.25 20.55 56.55 20.9 Q56.95 21.05 57.4 21.1 58.35 21.15 59.5 21.2 L62.85 21.0 Q63.05 19.75 62.5 17.1 61.7 15.6 60.95 14.75 59.7 13.85 58.35 14.3 56.1 15.4 56.1 19.5 M51.3 12.2 L51.3 12.35 51.35 13.05 51.45 13.25 Q51.65 13.55 51.95 13.6 L53.55 13.9 Q55.05 13.45 55.8 13.4 56.05 12.2 55.95 10.5 55.45 9.35 55.0 8.5 54.05 8.1 53.05 8.25 51.3 9.25 51.3 12.2 M40.05 12.95 L41.15 15.05 Q42.85 17.2 45.85 17.2 49.75 17.2 49.75 14.0 49.75 11.0 44.9 10.2 40.05 9.35 40.05 12.95" fill="#bef0d8" fill-opacity="0.7058824" fill-rule="evenodd" stroke="none"/>
      <path d="M40.05 12.95 Q40.05 9.35 44.9 10.2 49.75 11.0 49.75 14.0 49.75 17.2 45.85 17.2 42.85 17.2 41.15 15.05 L40.05 12.95 M51.3 12.2 Q51.3 9.25 53.05 8.25 54.05 8.1 55.0 8.5 55.45 9.35 55.95 10.5 56.05 12.2 55.8 13.4 55.05 13.45 53.55 13.9 L51.95 13.6 Q51.65 13.55 51.45 13.25 L51.35 13.05 51.3 12.35 51.3 12.2 M56.1 19.5 Q56.1 15.4 58.35 14.3 59.7 13.85 60.95 14.75 61.7 15.6 62.5 17.1 63.05 19.75 62.85 21.0 L59.5 21.2 Q58.35 21.15 57.4 21.1 56.95 21.05 56.55 20.9 L56.25 20.55 56.15 19.45 M64.7 10.6 Q64.7 8.0 69.6 8.1 74.5 8.25 74.5 11.3 75.6 13.75 73.85 13.75 L70.55 13.35 65.1 12.6 64.75 12.05 64.7 10.6 M76.35 12.5 L79.85 12.85 Q81.5 13.5 82.35 15.9 81.15 17.65 80.0 17.65 77.75 17.65 76.75 15.9 75.95 14.4 76.35 12.5 M83.25 18.0 L86.85 17.7 Q87.55 19.5 87.05 20.2 L86.25 21.4 Q84.7 21.25 84.05 20.8 83.3 18.95 83.25 18.0 M91.6 9.85 Q91.6 8.25 92.65 7.65 94.3 6.8 99.0 7.25 99.0 10.75 97.95 11.8 L92.0 11.8 Q91.6 10.9 91.6 9.85 M92.85 18.2 L92.95 16.85 96.7 16.95 Q96.95 19.05 96.5 20.05 L93.45 19.85 Q92.85 19.25 92.85 18.2 M105.7 17.85 Q105.7 16.6 106.75 16.0 107.8 15.35 110.2 15.15 111.25 18.2 110.55 18.7 109.5 19.2 106.75 19.95 L105.95 19.4 Q105.7 19.0 105.7 17.85 Z" fill="none" stroke="#000000" stroke-linecap="round" stroke-linejoin="round" stroke-opacity="0.0" stroke-width="1.0"/>
    </g>
    <g id="morphshape3" transform="matrix(1.0, 0.0, 0.0, 1.0, -32.35, -6.65)">
      <path d="M95.35 8.35 Q95.35 9.5 95.5 9.9 L95.95 10.65 97.95 10.65 98.45 10.15 98.6 8.95 98.35 7.45 Q98.05 7.0 95.5 6.95 95.35 6.6 95.35 8.35 M68.8 10.4 Q68.55 10.75 69.1 11.65 69.45 12.1 70.25 12.4 L73.0 12.75 Q73.5 12.3 73.5 11.6 73.3 11.15 69.35 9.95 L68.8 10.4 M65.9 35.8 L66.2 37.75 Q66.4 38.8 66.85 39.65 L70.35 39.65 Q70.55 39.35 70.85 39.2 L70.45 36.1 66.9 35.55 Q66.1 35.5 65.9 35.8 M43.35 14.65 L43.55 16.0 43.9 16.5 45.45 16.55 Q46.5 16.55 47.1 16.1 47.3 15.95 47.3 14.2 47.3 13.05 46.95 12.5 L46.25 11.85 43.45 12.95 43.35 14.65 M36.05 29.2 L36.3 30.2 Q36.65 31.0 37.1 31.3 41.2 30.75 41.2 28.35 41.2 27.25 40.85 26.95 L40.0 26.6 38.25 26.85 36.4 27.0 36.05 29.2" fill="#ffffff" fill-opacity="0.7058824" fill-rule="evenodd" stroke="none"/>
      <path d="M36.05 29.2 L36.4 27.0 38.25 26.85 40.0 26.6 40.85 26.95 Q41.2 27.25 41.2 28.35 41.2 30.75 37.1 31.3 36.65 31.0 36.3 30.2 L36.05 29.2 M43.35 14.65 L43.45 12.95 46.25 11.85 46.95 12.5 Q47.3 13.05 47.3 14.2 47.3 15.95 47.1 16.1 46.5 16.55 45.45 16.55 L43.9 16.5 43.55 16.0 43.35 14.65 M65.9 35.8 Q66.1 35.5 66.9 35.55 L70.45 36.1 70.85 39.2 Q70.55 39.35 70.35 39.65 L66.85 39.65 Q66.4 38.8 66.2 37.75 L65.9 35.8 M68.8 10.4 L69.35 9.95 Q73.3 11.15 73.5 11.6 73.5 12.3 73.0 12.75 L70.25 12.4 Q69.45 12.1 69.1 11.65 68.55 10.75 68.8 10.4 M95.35 8.35 Q95.35 6.6 95.5 6.95 98.05 7.0 98.35 7.45 L98.6 8.95 98.45 10.15 97.95 10.65 95.95 10.65 95.5 9.9 Q95.35 9.5 95.35 8.35 Z" fill="none" stroke="#000000" stroke-linecap="round" stroke-linejoin="round" stroke-opacity="0.0" stroke-width="1.0"/>
    </g>
  </defs>
</svg>
