<?xml version="1.0" encoding="UTF-8" standalone="no"?>
<svg xmlns:xlink="http://www.w3.org/1999/xlink" height="47.45px" width="141.0px" xmlns="http://www.w3.org/2000/svg">
  <g transform="matrix(1.0, 0.0, 0.0, 1.0, -4.35, -2.9)">
    <use data-characterId="3192" height="47.45" transform="matrix(1.0, 0.0, 0.0, 1.0, 4.35, 2.9)" width="141.0" xlink:href="#morphshape0"/>
    <use data-characterId="3193" height="37.5" transform="matrix(1.0, 0.0, 0.0, 1.0, 17.5, 9.15)" width="116.05" xlink:href="#morphshape1"/>
    <use data-characterId="3194" height="21.8" transform="matrix(1.0, 0.0, 0.0, 1.0, 37.6, 4.7)" width="75.1" xlink:href="#morphshape2"/>
    <use data-characterId="3195" height="35.65" transform="matrix(1.0, 0.0, 0.0, 1.0, 32.35, 6.65)" width="66.65" xlink:href="#morphshape3"/>
  </g>
  <defs>
    <g id="morphshape0" transform="matrix(1.0, 0.0, 0.0, 1.0, -4.35, -2.9)">
      <path d="M4.65 19.2 Q5.2 20.65 8.3 21.4 11.5 21.95 14.85 22.35 22.35 23.25 21.6 25.6 20.2 26.25 19.45 27.6 19.5 28.35 18.6 29.3 17.7 30.05 17.55 31.05 17.75 32.85 19.5 33.5 20.8 34.0 22.85 34.2 26.8 34.45 29.15 35.45 L30.1 36.7 Q29.0 38.8 34.8 39.75 37.4 40.15 43.05 40.2 42.55 41.35 43.85 42.1 42.85 43.35 46.35 44.8 50.2 46.4 54.65 46.5 57.3 46.55 61.15 48.15 65.1 49.75 66.9 49.95 67.75 50.15 72.55 48.75 77.75 47.25 81.4 47.05 L89.55 46.1 Q93.45 45.7 96.7 45.25 103.9 45.35 107.1 42.55 108.3 41.35 109.2 39.7 114.9 38.95 115.4 37.8 120.95 35.25 117.15 33.85 117.15 33.6 116.3 33.45 125.4 31.9 125.85 31.1 127.4 30.15 125.0 29.2 123.55 28.55 121.65 27.95 120.75 27.7 125.9 26.7 131.0 25.7 133.65 23.5 136.3 21.3 134.3 19.95 132.15 18.5 126.1 18.4 124.2 18.3 122.65 18.35 L122.3 18.35 121.65 18.1 Q125.7 16.15 122.55 14.4 120.75 14.0 117.2 13.65 116.7 13.5 116.0 13.5 117.3 9.4 108.9 6.95 97.45 3.35 72.8 3.1 54.8 2.85 34.6 5.85 15.7 8.65 14.65 11.55 12.9 12.4 13.55 13.05 14.2 13.65 16.0 14.25 17.6 14.7 16.35 15.0 15.35 15.05 14.5 15.25 L5.65 16.25 4.85 16.35 Q4.0 17.8 4.75 19.3" fill="#96e0bc" fill-opacity="0.7058824" fill-rule="evenodd" stroke="none"/>
      <path d="M4.75 19.3 Q4.0 17.8 4.85 16.35 L5.65 16.25 14.5 15.25 Q15.35 15.05 16.35 15.0 17.6 14.7 16.0 14.25 14.2 13.65 13.55 13.05 12.9 12.4 14.65 11.55 15.7 8.65 34.6 5.85 54.8 2.85 72.8 3.1 97.45 3.35 108.9 6.95 117.3 9.4 116.0 13.5 116.7 13.5 117.2 13.65 120.75 14.0 122.55 14.4 125.7 16.15 121.65 18.1 L122.3 18.35 122.65 18.35 Q124.2 18.3 126.1 18.4 132.15 18.5 134.3 19.95 136.3 21.3 133.65 23.5 131.0 25.7 125.9 26.7 120.75 27.7 121.65 27.95 123.55 28.55 125.0 29.2 127.4 30.15 125.85 31.1 125.4 31.9 116.3 33.45 117.15 33.6 117.15 33.85 120.95 35.25 115.4 37.8 114.9 38.95 109.2 39.7 108.3 41.35 107.1 42.55 103.9 45.35 96.7 45.25 93.45 45.7 89.55 46.1 L81.4 47.05 Q77.75 47.25 72.55 48.75 67.75 50.15 66.9 49.95 65.1 49.75 61.15 48.15 57.3 46.55 54.65 46.5 50.2 46.4 46.35 44.8 42.85 43.35 43.85 42.1 42.55 41.35 43.05 40.2 37.4 40.15 34.8 39.75 29.0 38.8 30.1 36.7 L29.15 35.45 Q26.8 34.45 22.85 34.2 20.8 34.0 19.5 33.5 17.75 32.85 17.55 31.05 17.7 30.05 18.6 29.3 19.5 28.35 19.45 27.6 20.2 26.25 21.6 25.6 22.35 23.25 14.85 22.35 11.5 21.95 8.3 21.4 5.2 20.65 4.65 19.2" fill="none" stroke="#000000" stroke-linecap="round" stroke-linejoin="round" stroke-opacity="0.0" stroke-width="1.0"/>
    </g>
    <g id="morphshape1" transform="matrix(1.0, 0.0, 0.0, 1.0, -17.5, -9.15)">
      <path d="M115.75 23.5 Q115.75 24.25 116.2 24.95 116.95 26.0 119.8 25.75 L119.05 23.55 Q118.05 23.2 115.75 23.5 M99.75 28.95 Q99.75 29.3 100.85 30.1 L104.15 30.2 106.3 29.2 Q108.5 28.15 108.9 27.65 L107.4 26.45 103.2 26.05 Q99.75 26.25 99.75 28.95 M85.15 34.55 L85.15 34.65 85.4 35.2 Q85.9 35.65 87.0 36.1 L88.85 36.55 91.5 36.7 91.9 36.6 92.15 36.4 92.35 35.9 92.35 35.45 Q92.35 34.75 91.95 34.45 91.25 33.8 88.0 33.65 86.6 33.8 85.3 34.05 L85.2 34.6 M75.55 41.5 L76.05 42.35 Q77.45 42.6 78.85 42.8 L81.6 42.9 85.7 42.7 86.45 42.45 86.9 42.0 87.05 41.2 87.0 40.7 Q86.8 39.9 86.05 39.4 84.8 38.65 79.7 38.8 77.6 39.15 76.05 40.65 L75.5 41.45 M62.45 32.45 L63.0 33.35 69.35 33.75 Q73.4 33.75 76.25 31.5 76.25 29.6 70.2 29.45 63.95 29.35 62.45 32.45 M61.2 42.15 Q61.2 42.65 61.45 42.9 L64.5 42.9 Q64.95 42.65 65.2 41.05 L61.7 41.25 Q61.2 41.6 61.2 42.15 M49.0 36.8 L50.2 38.0 Q52.25 39.15 56.55 39.15 58.1 39.15 59.85 37.0 59.85 34.05 54.45 34.1 49.0 34.15 49.0 36.8 M26.85 28.5 Q26.85 29.1 29.45 30.7 32.7 32.7 36.35 32.6 L40.25 32.5 Q41.45 31.95 42.15 30.0 42.1 27.1 34.5 26.25 26.85 25.4 26.9 28.45 M17.95 18.55 Q17.95 19.0 18.4 19.7 L19.35 20.65 26.2 20.75 Q27.4 19.85 27.4 19.3 27.4 17.45 22.7 17.35 17.95 17.3 17.95 18.55" fill="#bef0d8" fill-opacity="0.7058824" fill-rule="evenodd" stroke="none"/>
      <path d="M17.95 18.55 Q17.95 17.3 22.7 17.35 27.4 17.45 27.4 19.3 27.4 19.85 26.2 20.75 L19.35 20.65 18.4 19.7 Q17.95 19.0 17.95 18.55 M26.9 28.45 Q26.85 25.4 34.5 26.25 42.1 27.1 42.15 30.0 41.45 31.95 40.25 32.5 L36.35 32.6 Q32.7 32.7 29.45 30.7 26.85 29.1 26.85 28.5 M49.0 36.8 Q49.0 34.15 54.45 34.1 59.85 34.05 59.85 37.0 58.1 39.15 56.55 39.15 52.25 39.15 50.2 38.0 L49.0 36.8 M61.2 42.15 Q61.2 41.6 61.7 41.25 L65.2 41.05 Q64.95 42.65 64.5 42.9 L61.45 42.9 Q61.2 42.65 61.2 42.15 M62.45 32.45 Q63.95 29.35 70.2 29.45 76.25 29.6 76.25 31.5 73.4 33.75 69.35 33.75 L63.0 33.35 62.45 32.45 M75.5 41.45 L76.05 40.65 Q77.6 39.15 79.7 38.8 84.8 38.65 86.05 39.4 86.8 39.9 87.0 40.7 L87.05 41.2 86.9 42.0 86.45 42.45 85.7 42.7 81.6 42.9 78.85 42.8 Q77.45 42.6 76.05 42.35 L75.55 41.5 M85.2 34.6 L85.3 34.05 Q86.6 33.8 88.0 33.65 91.25 33.8 91.95 34.45 92.35 34.75 92.35 35.45 L92.35 35.9 92.15 36.4 91.9 36.6 91.5 36.7 88.85 36.55 87.0 36.1 Q85.9 35.65 85.4 35.2 L85.15 34.65 85.15 34.55 M99.75 28.95 Q99.75 26.25 103.2 26.05 L107.4 26.45 108.9 27.65 Q108.5 28.15 106.3 29.2 L104.15 30.2 100.85 30.1 Q99.75 29.3 99.75 28.95 M115.75 23.5 Q118.05 23.2 119.05 23.55 L119.8 25.75 Q116.95 26.0 116.2 24.95 115.75 24.25 115.75 23.5 Z" fill="none" stroke="#000000" stroke-linecap="round" stroke-linejoin="round" stroke-opacity="0.0" stroke-width="1.0"/>
    </g>
    <g id="morphshape2" transform="matrix(1.0, 0.0, 0.0, 1.0, -37.6, -4.7)">
      <path d="M101.75 14.9 Q101.75 16.05 102.0 16.45 L102.8 17.0 Q104.8 16.35 106.6 15.75 107.3 15.25 106.25 12.2 103.85 12.4 102.8 13.05 101.75 13.65 101.75 14.9 M89.9 21.8 Q89.9 22.85 90.5 23.45 L93.55 23.65 Q94.0 22.65 93.75 20.55 L90.0 20.45 89.9 21.8 M88.3 11.8 Q88.3 12.85 88.7 13.75 L94.65 13.75 Q95.7 12.7 95.7 9.2 91.0 8.75 89.35 9.6 88.3 10.2 88.3 11.8 M80.05 22.5 Q80.1 23.45 80.85 25.3 81.5 25.75 83.05 25.9 L83.85 24.7 Q84.35 24.0 83.65 22.2 L80.05 22.5 M78.45 6.95 Q78.05 8.85 78.85 10.35 79.85 12.1 82.1 12.1 83.25 12.1 84.45 10.35 83.6 7.95 81.95 7.3 L78.45 6.95 M66.6 13.9 L66.65 15.35 67.0 15.9 72.45 16.65 75.75 17.05 Q77.5 17.05 76.4 14.6 76.4 11.55 71.5 11.4 66.6 11.3 66.6 13.9 M55.85 11.45 L55.85 11.65 55.9 12.2 55.95 12.35 Q56.05 12.75 56.3 12.85 56.65 13.05 57.65 13.25 L59.4 12.55 Q59.65 11.4 59.75 10.1 59.4 9.15 59.1 8.3 58.25 8.2 57.45 8.25 55.95 9.2 55.95 11.55 M48.4 21.9 L48.5 23.1 48.85 23.5 Q49.35 23.55 49.85 23.55 L52.25 23.6 Q54.25 23.55 56.15 23.55 56.35 22.25 55.6 19.2 54.65 17.5 53.75 16.65 52.4 15.45 50.85 16.0 48.35 17.15 48.35 21.85 M37.9 10.5 L39.0 12.6 Q40.7 14.75 43.7 14.75 47.6 14.75 47.6 11.55 47.6 8.55 42.75 7.75 37.9 6.9 37.9 10.5" fill="#bef0d8" fill-opacity="0.7058824" fill-rule="evenodd" stroke="none"/>
      <path d="M37.9 10.5 Q37.9 6.9 42.75 7.75 47.6 8.55 47.6 11.55 47.6 14.75 43.7 14.75 40.7 14.75 39.0 12.6 L37.9 10.5 M48.35 21.85 Q48.35 17.15 50.85 16.0 52.4 15.45 53.75 16.65 54.65 17.5 55.6 19.2 56.35 22.25 56.15 23.55 54.25 23.55 52.25 23.6 L49.85 23.55 Q49.35 23.55 48.85 23.5 L48.5 23.1 48.4 21.9 M55.95 11.55 Q55.95 9.2 57.45 8.25 58.25 8.2 59.1 8.3 59.4 9.15 59.75 10.1 59.65 11.4 59.4 12.55 L57.65 13.25 Q56.65 13.05 56.3 12.85 56.05 12.75 55.95 12.35 L55.9 12.2 55.85 11.65 55.85 11.45 M66.6 13.9 Q66.6 11.3 71.5 11.4 76.4 11.55 76.4 14.6 77.5 17.05 75.75 17.05 L72.45 16.65 67.0 15.9 66.65 15.35 66.6 13.9 M78.45 6.95 L81.95 7.3 Q83.6 7.95 84.45 10.35 83.25 12.1 82.1 12.1 79.85 12.1 78.85 10.35 78.05 8.85 78.45 6.95 M80.05 22.5 L83.65 22.2 Q84.35 24.0 83.85 24.7 L83.05 25.9 Q81.5 25.75 80.85 25.3 80.1 23.45 80.05 22.5 M88.3 11.8 Q88.3 10.2 89.35 9.6 91.0 8.75 95.7 9.2 95.7 12.7 94.65 13.75 L88.7 13.75 Q88.3 12.85 88.3 11.8 M89.9 21.8 L90.0 20.45 93.75 20.55 Q94.0 22.65 93.55 23.65 L90.5 23.45 Q89.9 22.85 89.9 21.8 M101.75 14.9 Q101.75 13.65 102.8 13.05 103.85 12.4 106.25 12.2 107.3 15.25 106.6 15.75 104.8 16.35 102.8 17.0 L102.0 16.45 Q101.75 16.05 101.75 14.9 Z" fill="none" stroke="#000000" stroke-linecap="round" stroke-linejoin="round" stroke-opacity="0.0" stroke-width="1.0"/>
    </g>
    <g id="morphshape3" transform="matrix(1.0, 0.0, 0.0, 1.0, -32.35, -6.65)">
      <path d="M90.5 10.7 Q90.5 11.85 90.65 12.25 L91.1 13.0 93.1 13.0 93.6 12.5 93.75 11.3 93.5 9.8 Q93.2 9.35 90.65 9.3 90.5 8.95 90.5 10.7 M69.45 13.95 Q69.4 14.4 70.25 14.95 70.9 15.05 71.55 15.1 72.75 14.95 74.1 14.2 74.35 13.55 74.05 12.9 71.95 13.2 69.6 13.35 L69.35 14.05 M66.25 28.95 L66.55 30.9 Q66.75 31.95 67.2 32.8 L70.7 32.8 Q70.95 32.55 71.2 32.35 L70.8 29.25 67.25 28.7 Q66.45 28.65 66.25 28.95 M40.55 13.15 L40.75 14.5 41.1 15.0 42.65 15.05 Q43.7 15.05 44.3 14.6 44.5 14.45 44.5 12.7 44.5 11.55 44.15 11.0 L43.45 10.35 40.65 11.45 40.55 13.15 M32.8 29.2 L33.05 30.2 Q33.4 31.0 33.85 31.3 37.95 30.75 37.95 28.35 37.95 27.25 37.6 26.95 L36.75 26.6 35.0 26.85 33.15 27.0 32.8 29.2" fill="#ffffff" fill-opacity="0.7058824" fill-rule="evenodd" stroke="none"/>
      <path d="M32.8 29.2 L33.15 27.0 35.0 26.85 36.75 26.6 37.6 26.95 Q37.95 27.25 37.95 28.35 37.95 30.75 33.85 31.3 33.4 31.0 33.05 30.2 L32.8 29.2 M40.55 13.15 L40.65 11.45 43.45 10.35 44.15 11.0 Q44.5 11.55 44.5 12.7 44.5 14.45 44.3 14.6 43.7 15.05 42.65 15.05 L41.1 15.0 40.75 14.5 40.55 13.15 M66.25 28.95 Q66.45 28.65 67.25 28.7 L70.8 29.25 71.2 32.35 Q70.95 32.55 70.7 32.8 L67.2 32.8 Q66.75 31.95 66.55 30.9 L66.25 28.95 M69.35 14.05 L69.6 13.35 Q71.95 13.2 74.05 12.9 74.35 13.55 74.1 14.2 72.75 14.95 71.55 15.1 70.9 15.05 70.25 14.95 69.4 14.4 69.45 13.95 M90.5 10.7 Q90.5 8.95 90.65 9.3 93.2 9.35 93.5 9.8 L93.75 11.3 93.6 12.5 93.1 13.0 91.1 13.0 90.65 12.25 Q90.5 11.85 90.5 10.7 Z" fill="none" stroke="#000000" stroke-linecap="round" stroke-linejoin="round" stroke-opacity="0.0" stroke-width="1.0"/>
    </g>
  </defs>
</svg>
