<?xml version="1.0" encoding="UTF-8" standalone="no"?>
<svg xmlns:xlink="http://www.w3.org/1999/xlink" height="47.45px" width="141.0px" xmlns="http://www.w3.org/2000/svg">
  <g transform="matrix(1.0, 0.0, 0.0, 1.0, -4.35, -2.9)">
    <use data-characterId="3192" height="47.45" transform="matrix(1.0, 0.0, 0.0, 1.0, 4.35, 2.9)" width="141.0" xlink:href="#morphshape0"/>
    <use data-characterId="3193" height="37.5" transform="matrix(1.0, 0.0, 0.0, 1.0, 17.5, 9.15)" width="116.05" xlink:href="#morphshape1"/>
    <use data-characterId="3194" height="21.8" transform="matrix(1.0, 0.0, 0.0, 1.0, 37.6, 4.7)" width="75.1" xlink:href="#morphshape2"/>
    <use data-characterId="3195" height="35.65" transform="matrix(1.0, 0.0, 0.0, 1.0, 32.35, 6.65)" width="66.65" xlink:href="#morphshape3"/>
  </g>
  <defs>
    <g id="morphshape0" transform="matrix(1.0, 0.0, 0.0, 1.0, -4.35, -2.9)">
      <path d="M5.05 17.6 Q4.9 19.15 11.5 20.3 18.15 21.35 25.9 21.9 35.7 22.65 25.8 24.25 15.55 25.0 22.0 26.6 28.8 27.9 24.0 28.7 19.2 29.35 16.1 30.75 13.2 32.55 16.7 33.1 19.95 33.55 21.7 33.9 24.4 34.3 26.6 34.9 L34.1 35.8 Q29.9 37.55 32.6 38.35 26.1 40.4 39.65 40.15 41.55 40.8 49.8 40.05 43.25 42.45 45.05 43.7 47.05 45.0 53.5 45.3 59.85 45.5 66.8 46.5 74.65 47.45 70.65 48.8 66.2 50.15 69.7 49.45 74.6 48.7 78.7 48.65 L91.4 48.0 Q98.4 47.6 101.45 46.75 106.45 46.15 106.85 44.3 106.25 43.25 108.55 40.95 112.15 39.95 107.05 38.1 122.0 36.75 121.9 35.05 123.7 33.95 119.8 33.65 122.5 32.75 120.9 32.25 126.8 30.95 126.0 30.05 125.65 29.3 122.45 28.55 119.7 27.95 118.7 27.35 117.7 26.75 127.05 25.15 136.4 23.55 138.6 21.9 140.75 20.2 133.1 19.25 127.55 18.3 123.9 18.35 L122.55 18.4 122.15 18.25 Q124.0 17.2 122.25 16.25 128.85 15.25 124.0 14.4 120.65 13.6 116.2 13.5 116.85 11.45 112.65 10.2 102.7 6.2 87.65 4.5 75.9 2.8 52.6 4.3 33.55 5.7 20.8 9.0 7.7 11.3 9.85 12.25 12.0 13.15 21.6 13.95 31.1 14.65 26.7 14.9 22.4 15.0 18.2 15.15 L9.8 15.75 4.9 16.3 Q4.45 17.05 4.8 17.8" fill="#96e0bc" fill-opacity="0.7058824" fill-rule="evenodd" stroke="none"/>
      <path d="M4.8 17.8 Q4.45 17.05 4.9 16.3 L9.8 15.75 18.2 15.15 Q22.4 15.0 26.7 14.9 31.1 14.65 21.6 13.95 12.0 13.15 9.85 12.25 7.7 11.3 20.8 9.0 33.55 5.7 52.6 4.3 75.9 2.8 87.65 4.5 102.7 6.2 112.65 10.2 116.85 11.45 116.2 13.5 120.65 13.6 124.0 14.4 128.85 15.25 122.25 16.25 124.0 17.2 122.15 18.25 L122.55 18.4 123.9 18.35 Q127.55 18.3 133.1 19.25 140.75 20.2 138.6 21.9 136.4 23.55 127.05 25.15 117.7 26.75 118.7 27.35 119.7 27.95 122.45 28.55 125.65 29.3 126.0 30.05 126.8 30.95 120.9 32.25 122.5 32.75 119.8 33.65 123.7 33.95 121.9 35.05 122.0 36.75 107.05 38.1 112.15 39.95 108.55 40.95 106.25 43.25 106.85 44.3 106.45 46.15 101.45 46.75 98.4 47.6 91.4 48.0 L78.7 48.65 Q74.6 48.7 69.7 49.45 66.2 50.15 70.65 48.8 74.65 47.45 66.8 46.5 59.85 45.5 53.5 45.3 47.05 45.0 45.05 43.7 43.25 42.45 49.8 40.05 41.55 40.8 39.65 40.15 26.1 40.4 32.6 38.35 29.9 37.55 34.1 35.8 L26.6 34.9 Q24.4 34.3 21.7 33.9 19.95 33.55 16.7 33.1 13.2 32.55 16.1 30.75 19.2 29.35 24.0 28.7 28.8 27.9 22.0 26.6 15.55 25.0 25.8 24.25 35.7 22.65 25.9 21.9 18.15 21.35 11.5 20.3 4.9 19.15 5.05 17.6" fill="none" stroke="#000000" stroke-linecap="round" stroke-linejoin="round" stroke-opacity="0.0" stroke-width="1.0"/>
    </g>
    <g id="morphshape1" transform="matrix(1.0, 0.0, 0.0, 1.0, -17.5, -9.15)">
      <path d="M122.65 22.55 Q122.65 23.3 123.1 24.0 123.85 25.05 126.7 24.8 L125.95 22.6 Q124.95 22.25 122.65 22.55 M101.4 31.5 Q101.4 31.85 102.5 32.65 L105.8 32.75 107.95 31.75 Q110.15 30.7 110.55 30.2 L109.05 29.0 104.85 28.6 Q101.4 28.8 101.4 31.5 M87.75 40.0 L87.75 40.05 88.15 40.75 Q89.15 41.1 90.4 41.4 L92.75 41.65 96.2 41.6 96.8 41.4 97.15 41.05 97.3 40.4 97.25 39.9 Q97.15 39.15 96.55 38.75 95.55 38.05 91.3 38.05 89.5 38.3 88.05 39.25 L87.7 39.95 M77.45 36.2 L77.8 36.95 Q78.7 37.3 79.95 37.65 L82.2 37.95 85.5 37.95 86.05 37.8 86.4 37.5 86.6 36.85 86.6 36.4 Q86.5 35.65 85.95 35.25 85.0 34.55 80.9 34.55 79.2 34.8 77.8 35.6 L77.5 36.25 M61.85 36.85 L62.4 37.75 68.75 38.15 Q72.8 38.15 75.65 35.9 75.65 34.0 69.6 33.85 63.35 33.75 61.85 36.85 M57.75 41.45 Q57.85 41.9 58.0 42.2 L61.05 42.2 Q61.5 41.95 61.75 40.35 L58.25 40.55 Q57.75 40.9 57.75 41.45 M49.0 35.3 L50.2 36.5 Q52.25 37.65 56.55 37.65 58.1 37.65 59.85 35.5 59.85 32.55 54.45 32.6 49.0 32.65 49.0 35.3 M29.55 29.5 Q29.65 30.05 32.35 31.3 35.75 32.35 39.35 32.35 L43.15 31.8 Q44.25 31.1 44.75 29.05 44.35 26.2 36.75 26.3 29.1 26.4 29.5 29.4 M20.3 14.45 Q20.3 14.9 20.75 15.6 L21.7 16.55 28.55 16.65 Q29.75 15.75 29.75 15.2 29.75 13.35 25.05 13.25 20.3 13.2 20.3 14.45" fill="#bef0d8" fill-opacity="0.7058824" fill-rule="evenodd" stroke="none"/>
      <path d="M20.3 14.45 Q20.3 13.2 25.05 13.25 29.75 13.35 29.75 15.2 29.75 15.75 28.55 16.65 L21.7 16.55 20.75 15.6 Q20.3 14.9 20.3 14.45 M29.5 29.4 Q29.1 26.4 36.75 26.3 44.35 26.2 44.75 29.05 44.25 31.1 43.15 31.8 L39.35 32.35 Q35.75 32.35 32.35 31.3 29.65 30.05 29.55 29.5 M49.0 35.3 Q49.0 32.65 54.45 32.6 59.85 32.55 59.85 35.5 58.1 37.65 56.55 37.65 52.25 37.65 50.2 36.5 L49.0 35.3 M57.75 41.45 Q57.75 40.9 58.25 40.55 L61.75 40.35 Q61.5 41.95 61.05 42.2 L58.0 42.2 Q57.85 41.9 57.75 41.45 M61.85 36.85 Q63.35 33.75 69.6 33.85 75.65 34.0 75.65 35.9 72.8 38.15 68.75 38.15 L62.4 37.75 61.85 36.85 M77.5 36.25 L77.8 35.6 Q79.2 34.8 80.9 34.55 85.0 34.55 85.95 35.25 86.5 35.65 86.6 36.4 L86.6 36.85 86.4 37.5 86.05 37.8 85.5 37.95 82.2 37.95 79.95 37.65 Q78.7 37.3 77.8 36.95 L77.45 36.2 M87.7 39.95 L88.05 39.25 Q89.5 38.3 91.3 38.05 95.55 38.05 96.55 38.75 97.15 39.15 97.25 39.9 L97.3 40.4 97.15 41.05 96.8 41.4 96.2 41.6 92.75 41.65 90.4 41.4 Q89.15 41.1 88.15 40.75 L87.75 40.05 87.75 40.0 M101.4 31.5 Q101.4 28.8 104.85 28.6 L109.05 29.0 110.55 30.2 Q110.15 30.7 107.95 31.75 L105.8 32.75 102.5 32.65 Q101.4 31.85 101.4 31.5 M122.65 22.55 Q124.95 22.25 125.95 22.6 L126.7 24.8 Q123.85 25.05 123.1 24.0 122.65 23.3 122.65 22.55 Z" fill="none" stroke="#000000" stroke-linecap="round" stroke-linejoin="round" stroke-opacity="0.0" stroke-width="1.0"/>
    </g>
    <g id="morphshape2" transform="matrix(1.0, 0.0, 0.0, 1.0, -37.6, -4.7)">
      <path d="M104.65 17.1 Q104.65 18.25 104.9 18.65 L105.7 19.2 Q108.25 18.45 109.5 17.95 110.2 17.45 109.15 14.4 106.75 14.6 105.7 15.25 104.65 15.85 104.65 17.1 M92.1 19.15 Q92.1 20.2 92.7 20.8 L95.75 21.0 Q96.2 20.0 95.95 17.9 L92.2 17.8 92.1 19.15 M90.7 10.35 Q90.7 11.4 91.1 12.3 L97.05 12.3 Q98.1 11.25 98.1 7.75 93.4 7.3 91.75 8.15 90.7 8.75 90.7 10.35 M82.4 19.2 Q82.45 20.15 83.2 22.0 83.85 22.45 85.4 22.6 L86.2 21.4 Q86.7 20.7 86.0 18.9 L82.4 19.2 M76.95 11.05 Q76.55 12.95 77.35 14.45 78.35 16.2 80.6 16.2 81.75 16.2 82.95 14.45 82.1 12.05 80.45 11.4 L76.95 11.05 M65.2 11.5 L65.25 12.95 65.6 13.5 71.05 14.25 74.35 14.65 Q76.1 14.65 75.0 12.2 75.0 9.15 70.1 9.0 65.2 8.9 65.2 11.5 M56.1 17.35 L56.1 17.45 56.2 18.35 56.4 18.65 Q56.7 18.85 57.1 18.9 57.9 19.0 59.0 19.1 L61.95 18.75 Q62.15 17.5 61.8 15.25 61.1 13.9 60.45 13.05 59.3 12.35 58.1 12.7 56.05 13.75 56.05 17.4 M50.5 14.8 L50.55 15.75 50.75 16.0 Q51.05 16.25 51.4 16.3 L53.2 16.5 Q54.85 16.15 55.9 16.1 56.15 14.9 55.85 12.8 55.25 11.5 54.7 10.65 53.65 10.05 52.5 10.3 50.55 11.35 50.55 14.75 M39.45 12.3 L40.55 14.4 Q42.25 16.55 45.25 16.55 49.15 16.55 49.15 13.35 49.15 10.35 44.3 9.55 39.45 8.7 39.45 12.3" fill="#bef0d8" fill-opacity="0.7058824" fill-rule="evenodd" stroke="none"/>
      <path d="M39.45 12.3 Q39.45 8.7 44.3 9.55 49.15 10.35 49.15 13.35 49.15 16.55 45.25 16.55 42.25 16.55 40.55 14.4 L39.45 12.3 M50.55 14.75 Q50.55 11.35 52.5 10.3 53.65 10.05 54.7 10.65 55.25 11.5 55.85 12.8 56.15 14.9 55.9 16.1 54.85 16.15 53.2 16.5 L51.4 16.3 Q51.05 16.25 50.75 16.0 L50.55 15.75 50.5 14.8 M56.05 17.4 Q56.05 13.75 58.1 12.7 59.3 12.35 60.45 13.05 61.1 13.9 61.8 15.25 62.15 17.5 61.95 18.75 L59.0 19.1 Q57.9 19.0 57.1 18.9 56.7 18.85 56.4 18.65 L56.2 18.35 56.1 17.45 56.1 17.35 M65.2 11.5 Q65.2 8.9 70.1 9.0 75.0 9.15 75.0 12.2 76.1 14.65 74.35 14.65 L71.05 14.25 65.6 13.5 65.25 12.95 65.2 11.5 M76.95 11.05 L80.45 11.4 Q82.1 12.05 82.95 14.45 81.75 16.2 80.6 16.2 78.35 16.2 77.35 14.45 76.55 12.95 76.95 11.05 M82.4 19.2 L86.0 18.9 Q86.7 20.7 86.2 21.4 L85.4 22.6 Q83.85 22.45 83.2 22.0 82.45 20.15 82.4 19.2 M90.7 10.35 Q90.7 8.75 91.75 8.15 93.4 7.3 98.1 7.75 98.1 11.25 97.05 12.3 L91.1 12.3 Q90.7 11.4 90.7 10.35 M92.1 19.15 L92.2 17.8 95.95 17.9 Q96.2 20.0 95.75 21.0 L92.7 20.8 Q92.1 20.2 92.1 19.15 M104.65 17.1 Q104.65 15.85 105.7 15.25 106.75 14.6 109.15 14.4 110.2 17.45 109.5 17.95 108.25 18.45 105.7 19.2 L104.9 18.65 Q104.65 18.25 104.65 17.1 Z" fill="none" stroke="#000000" stroke-linecap="round" stroke-linejoin="round" stroke-opacity="0.0" stroke-width="1.0"/>
    </g>
    <g id="morphshape3" transform="matrix(1.0, 0.0, 0.0, 1.0, -32.35, -6.65)">
      <path d="M93.1 9.4 Q93.1 10.55 93.25 10.95 L93.7 11.7 95.7 11.7 96.2 11.2 96.35 10.0 96.1 8.5 Q95.8 8.05 93.25 8.0 93.1 7.65 93.1 9.4 M68.9 11.6 Q68.75 12.0 69.45 12.7 69.9 12.95 70.7 13.1 72.0 13.1 73.35 12.8 73.75 12.25 73.6 11.55 72.45 11.45 69.3 10.95 L68.9 11.5 M66.0 33.7 L66.3 35.65 Q66.5 36.7 66.95 37.55 L70.45 37.55 Q70.65 37.25 70.95 37.1 L70.55 34.0 67.0 33.45 Q66.2 33.4 66.0 33.7 M42.6 14.25 L42.8 15.6 43.15 16.1 44.7 16.15 Q45.75 16.15 46.35 15.7 46.55 15.55 46.55 13.8 46.55 12.65 46.2 12.1 L45.5 11.45 42.7 12.55 42.6 14.25 M35.15 29.2 L35.4 30.2 Q35.75 31.0 36.2 31.3 40.3 30.75 40.3 28.35 40.3 27.25 39.95 26.95 L39.1 26.6 37.35 26.85 35.5 27.0 35.15 29.2" fill="#ffffff" fill-opacity="0.7058824" fill-rule="evenodd" stroke="none"/>
      <path d="M35.15 29.2 L35.5 27.0 37.35 26.85 39.1 26.6 39.95 26.95 Q40.3 27.25 40.3 28.35 40.3 30.75 36.2 31.3 35.75 31.0 35.4 30.2 L35.15 29.2 M42.6 14.25 L42.7 12.55 45.5 11.45 46.2 12.1 Q46.55 12.65 46.55 13.8 46.55 15.55 46.35 15.7 45.75 16.15 44.7 16.15 L43.15 16.1 42.8 15.6 42.6 14.25 M66.0 33.7 Q66.2 33.4 67.0 33.45 L70.55 34.0 70.95 37.1 Q70.65 37.25 70.45 37.55 L66.95 37.55 Q66.5 36.7 66.3 35.65 L66.0 33.7 M68.9 11.5 L69.3 10.95 Q72.45 11.45 73.6 11.55 73.75 12.25 73.35 12.8 72.0 13.1 70.7 13.1 69.9 12.95 69.45 12.7 68.75 12.0 68.9 11.6 M93.1 9.4 Q93.1 7.65 93.25 8.0 95.8 8.05 96.1 8.5 L96.35 10.0 96.2 11.2 95.7 11.7 93.7 11.7 93.25 10.95 Q93.1 10.55 93.1 9.4 Z" fill="none" stroke="#000000" stroke-linecap="round" stroke-linejoin="round" stroke-opacity="0.0" stroke-width="1.0"/>
    </g>
  </defs>
</svg>
