<?xml version="1.0" encoding="UTF-8" standalone="no"?>
<svg xmlns:xlink="http://www.w3.org/1999/xlink" height="47.45px" width="141.0px" xmlns="http://www.w3.org/2000/svg">
  <g transform="matrix(1.0, 0.0, 0.0, 1.0, -4.35, -2.9)">
    <use data-characterId="3188" height="47.45" transform="matrix(1.0, 0.0, 0.0, 1.0, 4.35, 2.9)" width="141.0" xlink:href="#morphshape0"/>
    <use data-characterId="3189" height="37.5" transform="matrix(1.0, 0.0, 0.0, 1.0, 17.5, 9.15)" width="116.05" xlink:href="#morphshape1"/>
    <use data-characterId="3190" height="21.8" transform="matrix(1.0, 0.0, 0.0, 1.0, 37.6, 4.7)" width="75.1" xlink:href="#morphshape2"/>
    <use data-characterId="3191" height="35.65" transform="matrix(1.0, 0.0, 0.0, 1.0, 32.35, 6.65)" width="66.65" xlink:href="#morphshape3"/>
  </g>
  <defs>
    <g id="morphshape0" transform="matrix(1.0, 0.0, 0.0, 1.0, -4.35, -2.9)">
      <path d="M4.7 17.15 Q4.2 18.7 12.4 20.05 20.65 21.35 30.4 21.95 41.25 22.65 27.1 23.85 12.75 24.6 22.5 26.3 32.45 27.85 25.9 28.55 19.3 29.15 14.85 30.75 10.5 32.55 14.8 33.0 18.95 33.4 20.6 33.85 22.75 34.3 24.9 34.7 L35.4 35.45 Q29.75 37.05 31.05 37.75 20.4 40.55 37.55 40.15 40.55 40.55 52.05 39.15 42.95 42.1 43.95 43.2 45.05 44.35 52.4 44.8 60.5 45.1 68.9 45.8 78.5 46.45 71.85 48.35 64.9 50.25 67.8 49.85 72.6 49.5 76.95 49.5 L91.75 49.0 Q100.2 48.6 103.15 47.55 107.15 46.65 106.3 45.25 104.9 44.25 107.85 41.6 110.5 40.5 102.85 38.35 122.15 37.55 123.8 35.7 126.45 34.2 121.2 33.85 120.95 33.25 118.45 32.85 126.35 31.4 126.3 30.55 126.45 29.7 122.6 28.85 119.0 28.1 115.15 27.7 111.3 27.3 123.75 26.0 136.25 24.7 140.4 22.9 144.55 21.1 136.15 19.75 128.9 18.4 124.3 18.45 L122.5 18.55 122.2 18.5 Q123.05 17.85 121.95 17.25 132.45 15.95 127.0 14.85 122.35 13.8 116.15 13.65 116.5 12.5 114.25 11.85 104.95 7.65 94.35 5.3 85.5 2.95 60.75 3.75 41.65 4.5 23.55 8.0 5.2 10.95 8.05 12.0 10.9 13.0 24.1 13.9 37.25 14.7 31.45 14.9 25.6 15.0 19.85 15.1 L11.65 15.5 4.9 16.3 Q4.65 16.7 4.85 17.1" fill="#96e0bc" fill-opacity="0.7058824" fill-rule="evenodd" stroke="none"/>
      <path d="M4.85 17.1 Q4.65 16.7 4.9 16.3 L11.65 15.5 19.85 15.1 Q25.6 15.0 31.45 14.9 37.25 14.7 24.1 13.9 10.9 13.0 8.05 12.0 5.2 10.95 23.55 8.0 41.65 4.5 60.75 3.75 85.5 2.95 94.35 5.3 104.95 7.65 114.25 11.85 116.5 12.5 116.15 13.65 122.35 13.8 127.0 14.85 132.45 15.95 121.95 17.25 123.05 17.85 122.2 18.5 L122.5 18.55 124.3 18.45 Q128.9 18.4 136.15 19.75 144.55 21.1 140.4 22.9 136.25 24.7 123.75 26.0 111.3 27.3 115.15 27.7 119.0 28.1 122.6 28.85 126.45 29.7 126.3 30.55 126.35 31.4 118.45 32.85 120.95 33.25 121.2 33.85 126.45 34.2 123.8 35.7 122.15 37.55 102.85 38.35 110.5 40.5 107.85 41.6 104.9 44.25 106.3 45.25 107.15 46.65 103.15 47.55 100.2 48.6 91.75 49.0 L76.95 49.5 Q72.6 49.5 67.8 49.85 64.9 50.25 71.85 48.35 78.5 46.45 68.9 45.8 60.5 45.1 52.4 44.8 45.05 44.35 43.95 43.2 42.95 42.1 52.05 39.15 40.55 40.55 37.55 40.15 20.4 40.55 31.05 37.75 29.75 37.05 35.4 35.45 L24.9 34.7 Q22.75 34.3 20.6 33.85 18.95 33.4 14.8 33.0 10.5 32.55 14.85 30.75 19.3 29.15 25.9 28.55 32.45 27.85 22.5 26.3 12.75 24.6 27.1 23.85 41.25 22.65 30.4 21.95 20.65 21.35 12.4 20.05 4.2 18.7 4.7 17.15" fill="none" stroke="#000000" stroke-linecap="round" stroke-linejoin="round" stroke-opacity="0.0" stroke-width="1.0"/>
    </g>
    <g id="morphshape1" transform="matrix(1.0, 0.0, 0.0, 1.0, -17.5, -9.15)">
      <path d="M125.8 22.15 Q125.8 22.9 126.25 23.6 127.0 24.65 129.85 24.4 L129.1 22.2 Q128.1 21.85 125.8 22.15 M102.15 32.7 Q102.15 33.05 103.25 33.85 L106.55 33.95 108.7 32.95 Q110.9 31.9 111.3 31.4 L109.8 30.2 105.6 29.8 Q102.15 30.0 102.15 32.7 M88.8 42.5 L89.25 43.35 Q90.5 43.6 91.85 43.85 L94.45 44.0 98.25 43.85 98.95 43.65 99.4 43.25 99.55 42.5 99.5 42.0 Q99.35 41.2 98.65 40.75 97.5 40.0 92.75 40.1 90.75 40.4 89.25 41.65 L88.8 42.4 M78.45 33.75 L78.45 33.85 78.75 34.45 Q79.4 34.9 80.55 35.3 L82.55 35.7 85.5 35.8 85.95 35.65 86.2 35.4 86.4 34.85 86.4 34.4 Q86.35 33.7 85.9 33.35 85.1 32.7 81.5 32.6 80.0 32.8 78.65 33.3 L78.45 33.9 M61.55 38.85 L62.1 39.75 68.45 40.15 Q72.5 40.15 75.35 37.9 75.35 36.0 69.3 35.85 63.05 35.75 61.55 38.85 M56.15 41.1 Q56.25 41.5 56.4 41.85 L59.45 41.85 Q59.9 41.6 60.15 40.0 L56.65 40.2 Q56.15 40.55 56.15 41.1 M49.0 34.65 L50.2 35.85 Q52.25 37.0 56.55 37.0 58.1 37.0 59.85 34.85 59.85 31.9 54.45 31.95 49.0 32.0 49.0 34.65 M30.7 29.8 Q30.85 30.35 33.65 31.45 37.15 32.1 40.75 32.15 L44.55 31.4 Q45.6 30.65 45.95 28.6 45.4 25.8 37.8 26.35 30.15 26.85 30.7 29.8 M21.4 12.55 Q21.4 13.0 21.85 13.7 L22.8 14.65 29.65 14.75 Q30.85 13.85 30.85 13.3 30.85 11.45 26.15 11.35 21.4 11.3 21.4 12.55" fill="#bef0d8" fill-opacity="0.7058824" fill-rule="evenodd" stroke="none"/>
      <path d="M21.4 12.55 Q21.4 11.3 26.15 11.35 30.85 11.45 30.85 13.3 30.85 13.85 29.65 14.75 L22.8 14.65 21.85 13.7 Q21.4 13.0 21.4 12.55 M30.7 29.8 Q30.15 26.85 37.8 26.35 45.4 25.8 45.95 28.6 45.6 30.65 44.55 31.4 L40.75 32.15 Q37.15 32.1 33.65 31.45 30.85 30.35 30.7 29.8 M49.0 34.65 Q49.0 32.0 54.45 31.95 59.85 31.9 59.85 34.85 58.1 37.0 56.55 37.0 52.25 37.0 50.2 35.85 L49.0 34.65 M56.15 41.1 Q56.15 40.55 56.65 40.2 L60.15 40.0 Q59.9 41.6 59.45 41.85 L56.4 41.85 Q56.25 41.5 56.15 41.1 M61.55 38.85 Q63.05 35.75 69.3 35.85 75.35 36.0 75.35 37.9 72.5 40.15 68.45 40.15 L62.1 39.75 61.55 38.85 M78.45 33.9 L78.65 33.3 Q80.0 32.8 81.5 32.6 85.1 32.7 85.9 33.35 86.35 33.7 86.4 34.4 L86.4 34.85 86.2 35.4 85.95 35.65 85.5 35.8 82.55 35.7 80.55 35.3 Q79.4 34.9 78.75 34.45 L78.45 33.85 78.45 33.75 M88.8 42.4 L89.25 41.65 Q90.75 40.4 92.75 40.1 97.5 40.0 98.65 40.75 99.35 41.2 99.5 42.0 L99.55 42.5 99.4 43.25 98.95 43.65 98.25 43.85 94.45 44.0 91.85 43.85 Q90.5 43.6 89.25 43.35 L88.8 42.5 M102.15 32.7 Q102.15 30.0 105.6 29.8 L109.8 30.2 111.3 31.4 Q110.9 31.9 108.7 32.95 L106.55 33.95 103.25 33.85 Q102.15 33.05 102.15 32.7 M125.8 22.15 Q128.1 21.85 129.1 22.2 L129.85 24.4 Q127.0 24.65 126.25 23.6 125.8 22.9 125.8 22.15 Z" fill="none" stroke="#000000" stroke-linecap="round" stroke-linejoin="round" stroke-opacity="0.0" stroke-width="1.0"/>
    </g>
    <g id="morphshape2" transform="matrix(1.0, 0.0, 0.0, 1.0, -37.6, -4.7)">
      <path d="M106.0 18.1 Q106.0 19.25 106.25 19.65 L107.05 20.2 Q109.85 19.45 110.85 18.95 111.55 18.45 110.5 15.4 108.1 15.6 107.05 16.25 106.0 16.85 106.0 18.1 M93.1 17.95 Q93.1 19.0 93.7 19.6 L96.75 19.8 Q97.2 18.8 96.95 16.7 L93.2 16.6 93.1 17.95 M91.8 9.7 Q91.8 10.75 92.2 11.65 L98.15 11.65 Q99.2 10.6 99.2 7.1 94.5 6.65 92.85 7.5 91.8 8.1 91.8 9.7 M83.5 17.7 Q83.55 18.65 84.3 20.5 84.95 20.95 86.5 21.1 L87.3 19.9 Q87.8 19.2 87.1 17.4 L83.5 17.7 M76.25 12.9 Q75.85 14.8 76.65 16.3 77.65 18.05 79.9 18.05 81.05 18.05 82.25 16.3 81.4 13.9 79.75 13.25 L76.25 12.9 M64.6 10.4 L64.65 11.85 65.0 12.4 70.45 13.15 73.75 13.55 Q75.5 13.55 74.4 11.1 74.4 8.05 69.5 7.9 64.6 7.8 64.6 10.4 M56.2 20.1 L56.3 21.2 56.6 21.55 Q57.05 21.65 57.5 21.65 58.5 21.7 59.7 21.75 L63.15 21.55 Q63.35 20.3 62.75 17.6 61.9 16.05 61.1 15.2 59.85 14.2 58.45 14.65 56.15 15.8 56.15 20.05 M51.5 11.5 L51.5 11.65 51.55 12.35 51.65 12.55 Q51.8 12.9 52.1 13.0 L53.6 13.3 Q55.1 12.8 55.8 12.7 56.05 11.5 56.0 9.85 55.55 8.75 55.15 7.9 54.2 7.6 53.25 7.75 51.55 8.7 51.55 11.5 M40.2 13.15 L41.3 15.25 Q43.0 17.4 46.0 17.4 49.9 17.4 49.9 14.2 49.9 11.2 45.05 10.4 40.2 9.55 40.2 13.15" fill="#bef0d8" fill-opacity="0.7058824" fill-rule="evenodd" stroke="none"/>
      <path d="M40.2 13.15 Q40.2 9.55 45.05 10.4 49.9 11.2 49.9 14.2 49.9 17.4 46.0 17.4 43.0 17.4 41.3 15.25 L40.2 13.15 M51.55 11.5 Q51.55 8.7 53.25 7.75 54.2 7.6 55.15 7.9 55.55 8.75 56.0 9.85 56.05 11.5 55.8 12.7 55.1 12.8 53.6 13.3 L52.1 13.0 Q51.8 12.9 51.65 12.55 L51.55 12.35 51.5 11.65 51.5 11.5 M56.15 20.05 Q56.15 15.8 58.45 14.65 59.85 14.2 61.1 15.2 61.9 16.05 62.75 17.6 63.35 20.3 63.15 21.55 L59.7 21.75 Q58.5 21.7 57.5 21.65 57.05 21.65 56.6 21.55 L56.3 21.2 56.2 20.1 M64.6 10.4 Q64.6 7.8 69.5 7.9 74.4 8.05 74.4 11.1 75.5 13.55 73.75 13.55 L70.45 13.15 65.0 12.4 64.65 11.85 64.6 10.4 M76.25 12.9 L79.75 13.25 Q81.4 13.9 82.25 16.3 81.05 18.05 79.9 18.05 77.65 18.05 76.65 16.3 75.85 14.8 76.25 12.9 M83.5 17.7 L87.1 17.4 Q87.8 19.2 87.3 19.9 L86.5 21.1 Q84.95 20.95 84.3 20.5 83.55 18.65 83.5 17.7 M91.8 9.7 Q91.8 8.1 92.85 7.5 94.5 6.65 99.2 7.1 99.2 10.6 98.15 11.65 L92.2 11.65 Q91.8 10.75 91.8 9.7 M93.1 17.95 L93.2 16.6 96.95 16.7 Q97.2 18.8 96.75 19.8 L93.7 19.6 Q93.1 19.0 93.1 17.95 M106.0 18.1 Q106.0 16.85 107.05 16.25 108.1 15.6 110.5 15.4 111.55 18.45 110.85 18.95 109.85 19.45 107.05 20.2 L106.25 19.65 Q106.0 19.25 106.0 18.1 Z" fill="none" stroke="#000000" stroke-linecap="round" stroke-linejoin="round" stroke-opacity="0.0" stroke-width="1.0"/>
    </g>
    <g id="morphshape3" transform="matrix(1.0, 0.0, 0.0, 1.0, -32.35, -6.65)">
      <path d="M95.4 8.3 Q95.4 9.45 95.55 9.85 L96.0 10.6 98.0 10.6 98.5 10.1 98.65 8.9 98.4 7.4 Q98.1 6.95 95.55 6.9 95.4 6.55 95.4 8.3 M68.75 10.2 Q68.5 10.55 69.05 11.45 69.4 11.9 70.2 12.2 L72.95 12.55 Q73.45 12.1 73.45 11.4 73.25 10.95 69.3 9.75 L68.75 10.2 M65.9 36.2 L66.2 38.15 Q66.4 39.2 66.85 40.05 L70.35 40.05 Q70.55 39.75 70.85 39.6 L70.45 36.5 66.9 35.95 Q66.1 35.9 65.9 36.2 M43.55 14.75 L43.75 16.1 44.1 16.6 45.65 16.65 Q46.7 16.65 47.3 16.2 47.5 16.05 47.5 14.3 47.5 13.15 47.15 12.6 L46.45 11.95 43.65 13.05 43.55 14.75 M36.25 29.2 L36.5 30.2 Q36.85 31.0 37.3 31.3 41.4 30.75 41.4 28.35 41.4 27.25 41.05 26.95 L40.2 26.6 38.45 26.85 36.6 27.0 36.25 29.2" fill="#ffffff" fill-opacity="0.7058824" fill-rule="evenodd" stroke="none"/>
      <path d="M36.25 29.2 L36.6 27.0 38.45 26.85 40.2 26.6 41.05 26.95 Q41.4 27.25 41.4 28.35 41.4 30.75 37.3 31.3 36.85 31.0 36.5 30.2 L36.25 29.2 M43.55 14.75 L43.65 13.05 46.45 11.95 47.15 12.6 Q47.5 13.15 47.5 14.3 47.5 16.05 47.3 16.2 46.7 16.65 45.65 16.65 L44.1 16.6 43.75 16.1 43.55 14.75 M65.9 36.2 Q66.1 35.9 66.9 35.95 L70.45 36.5 70.85 39.6 Q70.55 39.75 70.35 40.05 L66.85 40.05 Q66.4 39.2 66.2 38.15 L65.9 36.2 M68.75 10.2 L69.3 9.75 Q73.25 10.95 73.45 11.4 73.45 12.1 72.95 12.55 L70.2 12.2 Q69.4 11.9 69.05 11.45 68.5 10.55 68.75 10.2 M95.4 8.3 Q95.4 6.55 95.55 6.9 98.1 6.95 98.4 7.4 L98.65 8.9 98.5 10.1 98.0 10.6 96.0 10.6 95.55 9.85 Q95.4 9.45 95.4 8.3 Z" fill="none" stroke="#000000" stroke-linecap="round" stroke-linejoin="round" stroke-opacity="0.0" stroke-width="1.0"/>
    </g>
  </defs>
</svg>
