<?xml version="1.0" encoding="UTF-8" standalone="no"?>
<svg xmlns:xlink="http://www.w3.org/1999/xlink" height="47.45px" width="141.0px" xmlns="http://www.w3.org/2000/svg">
  <g transform="matrix(1.0, 0.0, 0.0, 1.0, -4.35, -2.9)">
    <use data-characterId="3192" height="47.45" transform="matrix(1.0, 0.0, 0.0, 1.0, 4.35, 2.9)" width="141.0" xlink:href="#morphshape0"/>
    <use data-characterId="3193" height="37.5" transform="matrix(1.0, 0.0, 0.0, 1.0, 17.5, 9.15)" width="116.05" xlink:href="#morphshape1"/>
    <use data-characterId="3194" height="21.8" transform="matrix(1.0, 0.0, 0.0, 1.0, 37.6, 4.7)" width="75.1" xlink:href="#morphshape2"/>
    <use data-characterId="3195" height="35.65" transform="matrix(1.0, 0.0, 0.0, 1.0, 32.35, 6.65)" width="66.65" xlink:href="#morphshape3"/>
  </g>
  <defs>
    <g id="morphshape0" transform="matrix(1.0, 0.0, 0.0, 1.0, -4.35, -2.9)">
      <path d="M4.7 16.8 Q4.15 18.35 12.7 19.75 21.25 21.05 31.4 21.65 42.5 22.3 27.5 23.45 12.35 24.2 22.75 25.95 33.3 27.55 26.4 28.25 19.45 28.85 14.7 30.5 10.05 32.3 14.5 32.75 18.85 33.15 20.45 33.6 22.45 34.1 24.6 34.45 L35.7 35.15 Q29.75 36.75 30.75 37.45 19.25 40.4 37.15 40.0 40.35 40.35 52.5 38.8 42.9 41.85 43.75 42.95 44.7 44.1 52.2 44.55 60.65 44.85 69.3 45.5 79.25 46.1 72.1 48.1 64.7 50.1 67.5 49.8 72.25 49.5 76.65 49.5 L91.85 49.0 Q100.55 48.6 103.5 47.5 107.3 46.5 106.2 45.2 104.65 44.25 107.75 41.55 110.2 40.4 102.05 38.2 122.25 37.5 124.25 35.65 127.1 34.1 121.55 33.7 120.75 33.15 118.05 32.8 126.35 31.3 126.45 30.45 126.7 29.6 122.75 28.75 119.0 27.95 114.55 27.55 110.15 27.15 123.2 25.9 136.3 24.65 140.85 22.85 145.35 21.0 136.8 19.6 129.2 18.2 124.4 18.25 L122.5 18.35 122.25 18.3 Q122.9 17.75 121.95 17.25 133.2 15.9 127.65 14.8 122.7 13.7 116.15 13.55 116.45 12.6 114.6 12.05 105.45 7.8 95.7 5.35 87.4 2.9 62.4 3.55 43.3 4.15 24.1 7.7 4.75 10.75 7.75 11.85 10.75 12.9 24.65 13.8 38.5 14.65 32.4 14.85 26.25 14.95 20.2 15.05 L12.05 15.4 4.9 16.25 Q4.7 16.6 4.85 16.95" fill="#96e0bc" fill-opacity="0.7058824" fill-rule="evenodd" stroke="none"/>
      <path d="M4.85 16.95 Q4.7 16.6 4.9 16.25 L12.05 15.4 20.2 15.05 Q26.25 14.95 32.4 14.85 38.5 14.65 24.65 13.8 10.75 12.9 7.75 11.85 4.75 10.75 24.1 7.7 43.3 4.15 62.4 3.55 87.4 2.9 95.7 5.35 105.45 7.8 114.6 12.05 116.45 12.6 116.15 13.55 122.7 13.7 127.65 14.8 133.2 15.9 121.95 17.25 122.9 17.75 122.25 18.3 L122.5 18.35 124.4 18.25 Q129.2 18.2 136.8 19.6 145.35 21.0 140.85 22.85 136.3 24.65 123.2 25.9 110.15 27.15 114.55 27.55 119.0 27.95 122.75 28.75 126.7 29.6 126.45 30.45 126.35 31.3 118.05 32.8 120.75 33.15 121.55 33.7 127.1 34.1 124.25 35.65 122.25 37.5 102.05 38.2 110.2 40.4 107.75 41.55 104.65 44.25 106.2 45.2 107.3 46.5 103.5 47.5 100.55 48.6 91.85 49.0 L76.65 49.5 Q72.25 49.5 67.5 49.8 64.7 50.1 72.1 48.1 79.25 46.1 69.3 45.5 60.65 44.85 52.2 44.55 44.7 44.1 43.75 42.95 42.9 41.85 52.5 38.8 40.35 40.35 37.15 40.0 19.25 40.4 30.75 37.45 29.75 36.75 35.7 35.15 L24.6 34.45 Q22.45 34.1 20.45 33.6 18.85 33.15 14.5 32.75 10.05 32.3 14.7 30.5 19.45 28.85 26.4 28.25 33.3 27.55 22.75 25.95 12.35 24.2 27.5 23.45 42.5 22.3 31.4 21.65 21.25 21.05 12.7 19.75 4.15 18.35 4.7 16.8" fill="none" stroke="#000000" stroke-linecap="round" stroke-linejoin="round" stroke-opacity="0.0" stroke-width="1.0"/>
    </g>
    <g id="morphshape1" transform="matrix(1.0, 0.0, 0.0, 1.0, -17.5, -9.15)">
      <path d="M126.45 22.05 Q126.45 22.8 126.9 23.5 127.65 24.55 130.5 24.3 L129.75 22.1 Q128.75 21.75 126.45 22.05 M102.3 32.9 Q102.3 33.25 103.4 34.05 L106.7 34.15 108.85 33.15 Q111.05 32.1 111.45 31.6 L109.95 30.4 105.75 30.0 Q102.3 30.2 102.3 32.9 M89.1 42.95 L89.1 42.95 89.6 43.75 Q90.85 44.0 92.2 44.25 L94.8 44.4 98.7 44.25 99.4 44.05 99.85 43.65 100.0 42.9 99.95 42.4 Q99.8 41.6 99.1 41.15 97.95 40.4 93.1 40.5 91.1 40.8 89.55 42.1 L89.05 42.9 M78.6 33.4 L78.85 34.05 Q79.5 34.5 80.65 34.9 L82.65 35.3 85.5 35.4 85.95 35.25 86.2 35.0 86.4 34.45 86.4 34.0 Q86.35 33.3 85.9 32.95 85.1 32.3 81.6 32.2 80.1 32.4 78.8 32.85 L78.65 33.4 M61.5 39.25 L62.05 40.15 68.4 40.55 Q72.45 40.55 75.3 38.3 75.3 36.4 69.25 36.25 63.0 36.15 61.5 39.25 M55.85 41.05 Q55.95 41.45 56.1 41.8 L59.15 41.8 Q59.6 41.55 59.85 39.95 L56.35 40.15 Q55.85 40.5 55.85 41.05 M49.0 34.5 L50.2 35.7 Q52.25 36.85 56.55 36.85 58.1 36.85 59.85 34.7 59.85 31.75 54.45 31.8 49.0 31.85 49.0 34.5 M30.95 29.9 Q31.1 30.45 33.9 31.55 37.4 32.1 41.0 32.15 L44.8 31.35 Q45.85 30.55 46.2 28.5 45.6 25.7 38.0 26.35 30.35 26.95 30.95 29.9 M21.6 12.2 Q21.6 12.65 22.05 13.35 L23.0 14.3 29.85 14.4 Q31.05 13.5 31.05 12.95 31.05 11.1 26.35 11.0 21.6 10.95 21.6 12.2" fill="#bef0d8" fill-opacity="0.7058824" fill-rule="evenodd" stroke="none"/>
      <path d="M21.6 12.2 Q21.6 10.95 26.35 11.0 31.05 11.1 31.05 12.95 31.05 13.5 29.85 14.4 L23.0 14.3 22.05 13.35 Q21.6 12.65 21.6 12.2 M30.95 29.9 Q30.35 26.95 38.0 26.35 45.6 25.7 46.2 28.5 45.85 30.55 44.8 31.35 L41.0 32.15 Q37.4 32.1 33.9 31.55 31.1 30.45 30.95 29.9 M49.0 34.5 Q49.0 31.85 54.45 31.8 59.85 31.75 59.85 34.7 58.1 36.85 56.55 36.85 52.25 36.85 50.2 35.7 L49.0 34.5 M55.85 41.05 Q55.85 40.5 56.35 40.15 L59.85 39.95 Q59.6 41.55 59.15 41.8 L56.1 41.8 Q55.95 41.45 55.85 41.05 M61.5 39.25 Q63.0 36.15 69.25 36.25 75.3 36.4 75.3 38.3 72.45 40.55 68.4 40.55 L62.05 40.15 61.5 39.25 M78.65 33.4 L78.8 32.85 Q80.1 32.4 81.6 32.2 85.1 32.3 85.9 32.95 86.35 33.3 86.4 34.0 L86.4 34.45 86.2 35.0 85.95 35.25 85.5 35.4 82.65 35.3 80.65 34.9 Q79.5 34.5 78.85 34.05 L78.6 33.4 M89.05 42.9 L89.55 42.1 Q91.1 40.8 93.1 40.5 97.95 40.4 99.1 41.15 99.8 41.6 99.95 42.4 L100.0 42.9 99.85 43.65 99.4 44.05 98.7 44.25 94.8 44.4 92.2 44.25 Q90.85 44.0 89.6 43.75 L89.1 42.95 89.1 42.95 M102.3 32.9 Q102.3 30.2 105.75 30.0 L109.95 30.4 111.45 31.6 Q111.05 32.1 108.85 33.15 L106.7 34.15 103.4 34.05 Q102.3 33.25 102.3 32.9 M126.45 22.05 Q128.75 21.75 129.75 22.1 L130.5 24.3 Q127.65 24.55 126.9 23.5 126.45 22.8 126.45 22.05 Z" fill="none" stroke="#000000" stroke-linecap="round" stroke-linejoin="round" stroke-opacity="0.0" stroke-width="1.0"/>
    </g>
    <g id="morphshape2" transform="matrix(1.0, 0.0, 0.0, 1.0, -37.6, -4.7)">
      <path d="M106.25 18.3 Q106.25 19.45 106.5 19.85 L107.3 20.4 Q110.15 19.65 111.1 19.15 111.8 18.65 110.75 15.6 108.35 15.8 107.3 16.45 106.25 17.05 106.25 18.3 M93.3 17.7 Q93.3 18.75 93.9 19.35 L96.95 19.55 Q97.4 18.55 97.15 16.45 L93.4 16.35 93.3 17.7 M92.0 9.6 Q92.0 10.65 92.4 11.55 L98.35 11.55 Q99.4 10.5 99.4 7.0 94.7 6.55 93.05 7.4 92.0 8.0 92.0 9.6 M83.7 17.4 Q83.75 18.35 84.5 20.2 85.15 20.65 86.7 20.8 L87.5 19.6 Q88.0 18.9 87.3 17.1 L83.7 17.4 M76.1 13.3 Q75.7 15.2 76.5 16.7 77.5 18.45 79.75 18.45 80.9 18.45 82.1 16.7 81.25 14.3 79.6 13.65 L76.1 13.3 M64.45 10.2 L64.5 11.65 64.85 12.2 70.3 12.95 73.6 13.35 Q75.35 13.35 74.25 10.9 74.25 7.85 69.35 7.7 64.45 7.6 64.45 10.2 M56.15 20.55 L56.15 20.6 56.25 21.7 56.55 22.1 Q57.0 22.2 57.5 22.2 58.55 22.25 59.75 22.3 L63.35 22.15 Q63.55 20.9 62.9 18.1 62.05 16.5 61.25 15.65 59.95 14.6 58.5 15.1 56.15 16.25 56.15 20.6 M51.75 10.9 L51.8 11.7 51.9 11.85 Q52.05 12.2 52.3 12.3 L53.75 12.6 Q55.2 12.1 55.8 12.0 56.05 10.8 56.05 9.25 55.6 8.2 55.2 7.35 54.3 7.1 53.4 7.2 51.75 8.15 51.75 10.85 M40.35 13.3 L41.45 15.4 Q43.15 17.55 46.15 17.55 50.05 17.55 50.05 14.35 50.05 11.35 45.2 10.55 40.35 9.7 40.35 13.3" fill="#bef0d8" fill-opacity="0.7058824" fill-rule="evenodd" stroke="none"/>
      <path d="M40.35 13.3 Q40.35 9.7 45.2 10.55 50.05 11.35 50.05 14.35 50.05 17.55 46.15 17.55 43.15 17.55 41.45 15.4 L40.35 13.3 M51.75 10.85 Q51.75 8.15 53.4 7.2 54.3 7.1 55.2 7.35 55.6 8.2 56.05 9.25 56.05 10.8 55.8 12.0 55.2 12.1 53.75 12.6 L52.3 12.3 Q52.05 12.2 51.9 11.85 L51.8 11.7 51.75 10.9 M56.15 20.6 Q56.15 16.25 58.5 15.1 59.95 14.6 61.25 15.65 62.05 16.5 62.9 18.1 63.55 20.9 63.35 22.15 L59.75 22.3 Q58.55 22.25 57.5 22.2 57.0 22.2 56.55 22.1 L56.25 21.7 56.15 20.6 56.15 20.55 M64.45 10.2 Q64.45 7.6 69.35 7.7 74.25 7.85 74.25 10.9 75.35 13.35 73.6 13.35 L70.3 12.95 64.85 12.2 64.5 11.65 64.45 10.2 M76.1 13.3 L79.6 13.65 Q81.25 14.3 82.1 16.7 80.9 18.45 79.75 18.45 77.5 18.45 76.5 16.7 75.7 15.2 76.1 13.3 M83.7 17.4 L87.3 17.1 Q88.0 18.9 87.5 19.6 L86.7 20.8 Q85.15 20.65 84.5 20.2 83.75 18.35 83.7 17.4 M92.0 9.6 Q92.0 8.0 93.05 7.4 94.7 6.55 99.4 7.0 99.4 10.5 98.35 11.55 L92.4 11.55 Q92.0 10.65 92.0 9.6 M93.3 17.7 L93.4 16.35 97.15 16.45 Q97.4 18.55 96.95 19.55 L93.9 19.35 Q93.3 18.75 93.3 17.7 M106.25 18.3 Q106.25 17.05 107.3 16.45 108.35 15.8 110.75 15.6 111.8 18.65 111.1 19.15 110.15 19.65 107.3 20.4 L106.5 19.85 Q106.25 19.45 106.25 18.3 Z" fill="none" stroke="#000000" stroke-linecap="round" stroke-linejoin="round" stroke-opacity="0.0" stroke-width="1.0"/>
    </g>
    <g id="morphshape3" transform="matrix(1.0, 0.0, 0.0, 1.0, -32.35, -6.65)">
      <path d="M94.55 8.7 Q94.55 9.85 94.7 10.25 L95.15 11.0 97.15 11.0 97.65 10.5 97.8 9.3 97.55 7.8 Q97.25 7.35 94.7 7.3 94.55 6.95 94.55 8.7 M68.65 10.25 Q68.45 10.6 69.05 11.4 69.4 11.75 70.25 12.0 71.6 12.1 72.95 12.05 73.4 11.55 73.35 10.85 72.75 10.55 69.15 9.65 L68.65 10.15 M65.85 36.3 L66.15 38.25 Q66.35 39.3 66.8 40.15 L70.3 40.15 Q70.5 39.85 70.8 39.7 L70.4 36.6 66.85 36.05 Q66.05 36.0 65.85 36.3 M43.75 14.85 L43.95 16.2 44.3 16.7 45.85 16.75 Q46.9 16.75 47.5 16.3 47.7 16.15 47.7 14.4 47.7 13.25 47.35 12.7 L46.65 12.05 43.85 13.15 43.75 14.85 M36.5 29.2 L36.75 30.2 Q37.1 31.0 37.55 31.3 41.65 30.75 41.65 28.35 41.65 27.25 41.3 26.95 L40.45 26.6 38.7 26.85 36.85 27.0 36.5 29.2" fill="#ffffff" fill-opacity="0.7058824" fill-rule="evenodd" stroke="none"/>
      <path d="M36.5 29.2 L36.85 27.0 38.7 26.85 40.45 26.6 41.3 26.95 Q41.65 27.25 41.65 28.35 41.65 30.75 37.55 31.3 37.1 31.0 36.75 30.2 L36.5 29.2 M43.75 14.85 L43.85 13.15 46.65 12.05 47.35 12.7 Q47.7 13.25 47.7 14.4 47.7 16.15 47.5 16.3 46.9 16.75 45.85 16.75 L44.3 16.7 43.95 16.2 43.75 14.85 M65.85 36.3 Q66.05 36.0 66.85 36.05 L70.4 36.6 70.8 39.7 Q70.5 39.85 70.3 40.15 L66.8 40.15 Q66.35 39.3 66.15 38.25 L65.85 36.3 M68.65 10.15 L69.15 9.65 Q72.75 10.55 73.35 10.85 73.4 11.55 72.95 12.05 71.6 12.1 70.25 12.0 69.4 11.75 69.05 11.4 68.45 10.6 68.65 10.25 M94.55 8.7 Q94.55 6.95 94.7 7.3 97.25 7.35 97.55 7.8 L97.8 9.3 97.65 10.5 97.15 11.0 95.15 11.0 94.7 10.25 Q94.55 9.85 94.55 8.7 Z" fill="none" stroke="#000000" stroke-linecap="round" stroke-linejoin="round" stroke-opacity="0.0" stroke-width="1.0"/>
    </g>
  </defs>
</svg>
