<?xml version="1.0" encoding="UTF-8" standalone="no"?>
<svg xmlns:xlink="http://www.w3.org/1999/xlink" height="47.45px" width="141.0px" xmlns="http://www.w3.org/2000/svg">
  <g transform="matrix(1.0, 0.0, 0.0, 1.0, -4.35, -2.9)">
    <use data-characterId="3188" height="47.45" transform="matrix(1.0, 0.0, 0.0, 1.0, 4.35, 2.9)" width="141.0" xlink:href="#morphshape0"/>
    <use data-characterId="3189" height="37.5" transform="matrix(1.0, 0.0, 0.0, 1.0, 17.5, 9.15)" width="116.05" xlink:href="#morphshape1"/>
    <use data-characterId="3190" height="21.8" transform="matrix(1.0, 0.0, 0.0, 1.0, 37.6, 4.7)" width="75.1" xlink:href="#morphshape2"/>
    <use data-characterId="3191" height="35.65" transform="matrix(1.0, 0.0, 0.0, 1.0, 32.35, 6.65)" width="66.65" xlink:href="#morphshape3"/>
  </g>
  <defs>
    <g id="morphshape0" transform="matrix(1.0, 0.0, 0.0, 1.0, -4.35, -2.9)">
      <path d="M4.6 19.5 Q5.25 20.95 8.05 21.7 10.95 22.2 13.9 22.6 21.2 23.55 21.3 26.0 20.7 26.65 19.35 27.95 18.8 28.65 18.25 29.65 17.7 30.4 17.8 31.35 18.3 33.15 19.9 33.85 21.05 34.35 23.1 34.5 27.2 34.7 29.55 35.75 L29.9 37.0 Q29.1 39.1 35.15 40.1 38.55 40.35 43.5 40.4 42.8 41.6 43.45 42.45 42.95 43.6 46.6 45.1 50.6 46.7 54.9 46.75 57.2 46.75 60.8 48.4 64.4 50.05 66.7 50.15 68.05 50.25 73.0 48.75 78.2 47.15 81.8 46.95 L89.55 46.0 Q93.2 45.6 96.5 45.15 103.9 45.35 107.35 42.45 108.7 41.2 109.5 39.65 115.4 38.95 116.35 37.85 121.05 35.2 116.9 33.8 116.7 33.6 116.1 33.5 125.75 31.9 126.35 31.1 127.5 30.15 124.95 29.2 123.4 28.6 121.6 28.05 120.85 27.8 126.55 26.75 132.2 25.7 134.25 23.45 136.3 21.2 133.9 19.85 131.35 18.45 125.45 18.4 123.9 18.35 122.55 18.4 L122.3 18.4 121.6 18.1 Q125.85 16.1 122.6 14.3 120.05 13.95 116.65 13.65 116.4 13.55 116.05 13.55 117.4 9.3 108.65 6.7 97.1 3.15 71.6 3.0 53.05 2.85 33.1 5.95 14.2 8.85 14.2 11.7 13.45 12.45 13.95 13.1 14.45 13.7 15.55 14.25 16.45 14.65 15.45 14.95 14.75 15.0 14.2 15.2 L5.3 16.2 4.85 16.25 Q4.0 17.8 4.75 19.4" fill="#96e0bc" fill-opacity="0.7058824" fill-rule="evenodd" stroke="none"/>
      <path d="M4.75 19.4 Q4.0 17.8 4.85 16.25 L5.3 16.2 14.2 15.2 Q14.75 15.0 15.45 14.95 16.45 14.65 15.55 14.25 14.45 13.7 13.95 13.1 13.45 12.45 14.2 11.7 14.2 8.85 33.1 5.95 53.05 2.85 71.6 3.0 97.1 3.15 108.65 6.7 117.4 9.3 116.05 13.55 116.4 13.55 116.65 13.65 120.05 13.95 122.6 14.3 125.85 16.1 121.6 18.1 L122.3 18.4 122.55 18.4 Q123.9 18.35 125.45 18.4 131.35 18.45 133.9 19.85 136.3 21.2 134.25 23.45 132.2 25.7 126.55 26.75 120.85 27.8 121.6 28.05 123.4 28.6 124.95 29.2 127.5 30.15 126.35 31.1 125.75 31.9 116.1 33.5 116.7 33.6 116.9 33.8 121.05 35.2 116.35 37.85 115.4 38.95 109.5 39.65 108.7 41.2 107.35 42.45 103.9 45.35 96.5 45.15 93.2 45.6 89.55 46.0 L81.8 46.95 Q78.2 47.15 73.0 48.75 68.05 50.25 66.7 50.15 64.4 50.05 60.8 48.4 57.2 46.75 54.9 46.75 50.6 46.7 46.6 45.1 42.95 43.6 43.45 42.45 42.8 41.6 43.5 40.4 38.55 40.35 35.15 40.1 29.1 39.1 29.9 37.0 L29.55 35.75 Q27.2 34.7 23.1 34.5 21.05 34.35 19.9 33.85 18.3 33.15 17.8 31.35 17.7 30.4 18.25 29.65 18.8 28.65 19.35 27.95 20.7 26.65 21.3 26.0 21.2 23.55 13.9 22.6 10.95 22.2 8.05 21.7 5.25 20.95 4.6 19.5" fill="none" stroke="#000000" stroke-linecap="round" stroke-linejoin="round" stroke-opacity="0.0" stroke-width="1.0"/>
    </g>
    <g id="morphshape1" transform="matrix(1.0, 0.0, 0.0, 1.0, -17.5, -9.15)">
      <path d="M115.15 23.55 Q115.15 24.3 115.6 25.0 116.35 26.05 119.2 25.8 L118.45 23.6 Q117.45 23.25 115.15 23.55 M99.6 28.75 Q99.6 29.1 100.7 29.9 L104.0 30.0 106.15 29.0 Q108.35 27.95 108.75 27.45 L107.25 26.25 103.05 25.85 Q99.6 26.05 99.6 28.75 M85.0 34.05 L85.2 34.65 Q85.65 35.15 86.7 35.6 L88.5 36.1 91.1 36.3 91.45 36.2 91.65 36.0 91.85 35.55 91.85 35.1 Q91.85 34.4 91.5 34.1 90.8 33.45 87.65 33.25 86.3 33.4 85.05 33.6 L85.0 34.1 M75.3 41.95 L75.3 41.95 75.85 42.85 Q77.3 43.05 78.75 43.25 L81.55 43.3 85.7 43.05 86.5 42.8 87.0 42.35 87.15 41.5 87.1 41.0 Q86.9 40.2 86.1 39.7 84.85 38.95 79.65 39.15 77.5 39.5 75.9 41.05 L75.3 41.9 M62.5 32.05 L63.05 32.95 69.4 33.35 Q73.45 33.35 76.3 31.1 76.3 29.2 70.25 29.05 64.0 28.95 62.5 32.05 M61.5 42.25 Q61.5 42.75 61.75 43.0 L64.8 43.0 Q65.25 42.75 65.5 41.15 L62.0 41.35 Q61.5 41.7 61.5 42.25 M49.0 36.9 L50.2 38.1 Q52.25 39.25 56.55 39.25 58.1 39.25 59.85 37.1 59.85 34.15 54.45 34.2 49.0 34.25 49.0 36.9 M26.65 28.4 Q26.65 29.0 29.2 30.6 32.4 32.65 36.05 32.55 L39.95 32.5 Q41.15 32.0 41.9 30.05 41.85 27.15 34.25 26.25 26.6 25.35 26.65 28.4 M17.7 18.9 Q17.7 19.35 18.15 20.05 L19.1 21.0 25.95 21.1 Q27.15 20.2 27.15 19.65 27.15 17.8 22.45 17.7 17.7 17.65 17.7 18.9" fill="#bef0d8" fill-opacity="0.7058824" fill-rule="evenodd" stroke="none"/>
      <path d="M17.7 18.9 Q17.7 17.65 22.45 17.7 27.15 17.8 27.15 19.65 27.15 20.2 25.95 21.1 L19.1 21.0 18.15 20.05 Q17.7 19.35 17.7 18.9 M26.65 28.4 Q26.6 25.35 34.25 26.25 41.85 27.15 41.9 30.05 41.15 32.0 39.95 32.5 L36.05 32.55 Q32.4 32.65 29.2 30.6 26.65 29.0 26.65 28.4 M49.0 36.9 Q49.0 34.25 54.45 34.2 59.85 34.15 59.85 37.1 58.1 39.25 56.55 39.25 52.25 39.25 50.2 38.1 L49.0 36.9 M61.5 42.25 Q61.5 41.7 62.0 41.35 L65.5 41.15 Q65.25 42.75 64.8 43.0 L61.75 43.0 Q61.5 42.75 61.5 42.25 M62.5 32.05 Q64.0 28.95 70.25 29.05 76.3 29.2 76.3 31.1 73.45 33.35 69.4 33.35 L63.05 32.95 62.5 32.05 M75.3 41.9 L75.9 41.05 Q77.5 39.5 79.65 39.15 84.85 38.95 86.1 39.7 86.9 40.2 87.1 41.0 L87.15 41.5 87.0 42.35 86.5 42.8 85.7 43.05 81.55 43.3 78.75 43.25 Q77.3 43.05 75.85 42.85 L75.3 41.95 75.3 41.95 M85.0 34.1 L85.05 33.6 Q86.3 33.4 87.65 33.25 90.8 33.45 91.5 34.1 91.85 34.4 91.85 35.1 L91.85 35.55 91.65 36.0 91.45 36.2 91.1 36.3 88.5 36.1 86.7 35.6 Q85.65 35.15 85.2 34.65 L85.0 34.05 M99.6 28.75 Q99.6 26.05 103.05 25.85 L107.25 26.25 108.75 27.45 Q108.35 27.95 106.15 29.0 L104.0 30.0 100.7 29.9 Q99.6 29.1 99.6 28.75 M115.15 23.55 Q117.45 23.25 118.45 23.6 L119.2 25.8 Q116.35 26.05 115.6 25.0 115.15 24.3 115.15 23.55 Z" fill="none" stroke="#000000" stroke-linecap="round" stroke-linejoin="round" stroke-opacity="0.0" stroke-width="1.0"/>
    </g>
    <g id="morphshape2" transform="matrix(1.0, 0.0, 0.0, 1.0, -37.6, -4.7)">
      <path d="M101.5 14.7 Q101.5 15.85 101.75 16.25 L102.55 16.8 Q104.5 16.15 106.35 15.55 107.05 15.05 106.0 12.0 103.6 12.2 102.55 12.85 101.5 13.45 101.5 14.7 M89.7 22.05 Q89.7 23.1 90.3 23.7 L93.35 23.9 Q93.8 22.9 93.55 20.8 L89.8 20.7 89.7 22.05 M88.1 11.9 Q88.1 12.95 88.5 13.85 L94.45 13.85 Q95.5 12.8 95.5 9.3 90.8 8.85 89.15 9.7 88.1 10.3 88.1 11.9 M79.8 22.8 Q79.85 23.75 80.6 25.6 81.25 26.05 82.8 26.2 L83.6 25.0 Q84.1 24.3 83.4 22.5 L79.8 22.8 M78.6 6.6 Q78.2 8.5 79.0 10.0 80.0 11.75 82.25 11.75 83.4 11.75 84.6 10.0 83.75 7.6 82.1 6.95 L78.6 6.6 M66.7 14.1 L66.75 15.55 67.1 16.1 72.55 16.85 75.85 17.25 Q77.6 17.25 76.5 14.8 76.5 11.75 71.6 11.6 66.7 11.5 66.7 14.1 M56.05 11.05 L56.1 11.75 56.1 11.85 Q56.15 12.3 56.35 12.4 56.65 12.6 57.6 12.8 L59.25 12.1 Q59.5 10.95 59.65 9.75 59.3 8.8 59.0 7.95 58.15 7.9 57.35 7.95 55.9 8.85 55.9 11.05 M48.05 22.55 L48.05 22.55 48.15 23.75 48.55 24.2 Q49.1 24.2 49.65 24.2 L52.1 24.2 Q54.1 24.15 56.05 24.15 56.25 22.85 55.45 19.7 54.5 18.0 53.6 17.15 52.25 15.9 50.7 16.45 48.15 17.65 48.15 22.5 M37.75 10.3 L38.85 12.4 Q40.55 14.55 43.55 14.55 47.45 14.55 47.45 11.35 47.45 8.35 42.6 7.55 37.75 6.7 37.75 10.3" fill="#bef0d8" fill-opacity="0.7058824" fill-rule="evenodd" stroke="none"/>
      <path d="M37.75 10.3 Q37.75 6.7 42.6 7.55 47.45 8.35 47.45 11.35 47.45 14.55 43.55 14.55 40.55 14.55 38.85 12.4 L37.75 10.3 M48.15 22.5 Q48.15 17.65 50.7 16.45 52.25 15.9 53.6 17.15 54.5 18.0 55.45 19.7 56.25 22.85 56.05 24.15 54.1 24.15 52.1 24.2 L49.65 24.2 Q49.1 24.2 48.55 24.2 L48.15 23.75 48.05 22.55 48.05 22.55 M55.9 11.05 Q55.9 8.85 57.35 7.95 58.15 7.9 59.0 7.95 59.3 8.8 59.65 9.75 59.5 10.95 59.25 12.1 L57.6 12.8 Q56.65 12.6 56.35 12.4 56.15 12.3 56.1 11.85 L56.1 11.75 56.05 11.05 M66.7 14.1 Q66.7 11.5 71.6 11.6 76.5 11.75 76.5 14.8 77.6 17.25 75.85 17.25 L72.55 16.85 67.1 16.1 66.75 15.55 66.7 14.1 M78.6 6.6 L82.1 6.95 Q83.75 7.6 84.6 10.0 83.4 11.75 82.25 11.75 80.0 11.75 79.0 10.0 78.2 8.5 78.6 6.6 M79.8 22.8 L83.4 22.5 Q84.1 24.3 83.6 25.0 L82.8 26.2 Q81.25 26.05 80.6 25.6 79.85 23.75 79.8 22.8 M88.1 11.9 Q88.1 10.3 89.15 9.7 90.8 8.85 95.5 9.3 95.5 12.8 94.45 13.85 L88.5 13.85 Q88.1 12.95 88.1 11.9 M89.7 22.05 L89.8 20.7 93.55 20.8 Q93.8 22.9 93.35 23.9 L90.3 23.7 Q89.7 23.1 89.7 22.05 M101.5 14.7 Q101.5 13.45 102.55 12.85 103.6 12.2 106.0 12.0 107.05 15.05 106.35 15.55 104.5 16.15 102.55 16.8 L101.75 16.25 Q101.5 15.85 101.5 14.7 Z" fill="none" stroke="#000000" stroke-linecap="round" stroke-linejoin="round" stroke-opacity="0.0" stroke-width="1.0"/>
    </g>
    <g id="morphshape3" transform="matrix(1.0, 0.0, 0.0, 1.0, -32.35, -6.65)">
      <path d="M94.45 8.85 Q94.45 10.0 94.6 10.4 L95.05 11.15 97.05 11.15 97.55 10.65 97.7 9.45 97.45 7.95 Q97.15 7.5 94.6 7.45 94.45 7.1 94.45 8.85 M69.55 13.65 Q69.3 14.0 69.85 14.9 70.45 15.3 71.0 15.65 L73.75 16.0 Q74.25 15.55 74.25 14.85 74.05 14.4 70.1 13.2 L69.55 13.65 M66.3 29.65 L66.6 31.6 Q66.8 32.65 67.25 33.5 L70.75 33.5 Q71.0 33.25 71.25 33.05 L70.85 29.95 67.3 29.4 Q66.5 29.35 66.3 29.65 M40.35 13.05 L40.55 14.4 40.9 14.9 42.45 14.95 Q43.5 14.95 44.1 14.5 44.3 14.35 44.3 12.6 44.3 11.45 43.95 10.9 L43.25 10.25 40.45 11.35 40.35 13.05 M32.6 29.2 L32.85 30.2 Q33.2 31.0 33.65 31.3 37.75 30.75 37.75 28.35 37.75 27.25 37.4 26.95 L36.55 26.6 34.8 26.85 32.95 27.0 32.6 29.2" fill="#ffffff" fill-opacity="0.7058824" fill-rule="evenodd" stroke="none"/>
      <path d="M32.6 29.2 L32.95 27.0 34.8 26.85 36.55 26.6 37.4 26.95 Q37.75 27.25 37.75 28.35 37.75 30.75 33.65 31.3 33.2 31.0 32.85 30.2 L32.6 29.2 M40.35 13.05 L40.45 11.35 43.25 10.25 43.95 10.9 Q44.3 11.45 44.3 12.6 44.3 14.35 44.1 14.5 43.5 14.95 42.45 14.95 L40.9 14.9 40.55 14.4 40.35 13.05 M66.3 29.65 Q66.5 29.35 67.3 29.4 L70.85 29.95 71.25 33.05 Q71.0 33.25 70.75 33.5 L67.25 33.5 Q66.8 32.65 66.6 31.6 L66.3 29.65 M69.55 13.65 L70.1 13.2 Q74.05 14.4 74.25 14.85 74.25 15.55 73.75 16.0 L71.0 15.65 Q70.45 15.3 69.85 14.9 69.3 14.0 69.55 13.65 M94.45 8.85 Q94.45 7.1 94.6 7.45 97.15 7.5 97.45 7.95 L97.7 9.45 97.55 10.65 97.05 11.15 95.05 11.15 94.6 10.4 Q94.45 10.0 94.45 8.85 Z" fill="none" stroke="#000000" stroke-linecap="round" stroke-linejoin="round" stroke-opacity="0.0" stroke-width="1.0"/>
    </g>
  </defs>
</svg>
