<?xml version="1.0" encoding="UTF-8" standalone="no"?>
<svg xmlns:xlink="http://www.w3.org/1999/xlink" height="47.45px" width="141.0px" xmlns="http://www.w3.org/2000/svg">
  <g transform="matrix(1.0, 0.0, 0.0, 1.0, -4.35, -2.9)">
    <use data-characterId="3192" height="47.45" transform="matrix(1.0, 0.0, 0.0, 1.0, 4.35, 2.9)" width="141.0" xlink:href="#morphshape0"/>
    <use data-characterId="3193" height="37.5" transform="matrix(1.0, 0.0, 0.0, 1.0, 17.5, 9.15)" width="116.05" xlink:href="#morphshape1"/>
    <use data-characterId="3194" height="21.8" transform="matrix(1.0, 0.0, 0.0, 1.0, 37.6, 4.7)" width="75.1" xlink:href="#morphshape2"/>
    <use data-characterId="3195" height="35.65" transform="matrix(1.0, 0.0, 0.0, 1.0, 32.35, 6.65)" width="66.65" xlink:href="#morphshape3"/>
  </g>
  <defs>
    <g id="morphshape0" transform="matrix(1.0, 0.0, 0.0, 1.0, -4.35, -2.9)">
      <path d="M4.95 16.55 Q4.2 18.15 13.55 19.6 22.9 21.05 34.1 21.7 45.7 22.35 28.55 23.3 11.3 24.1 23.4 25.9 35.55 27.65 27.7 28.3 19.8 28.85 14.35 30.6 8.95 32.4 13.8 32.85 18.6 33.25 20.15 33.75 21.85 34.25 23.95 34.5 L36.6 35.1 Q29.9 36.6 30.2 37.25 16.55 40.6 36.3 40.1 40.1 40.3 53.9 38.4 43.0 41.7 43.45 42.75 43.95 43.8 51.95 44.3 61.25 44.65 70.65 45.2 81.55 45.65 73.0 47.9 64.3 50.15 66.75 50.0 71.45 49.9 75.95 49.95 L92.25 49.55 Q101.7 49.15 104.6 48.0 107.9 46.85 106.15 45.8 104.15 44.85 107.55 42.0 109.5 40.8 100.0 38.45 122.4 38.05 125.25 36.1 128.5 34.35 122.25 33.95 119.95 33.55 116.75 33.25 126.1 31.65 126.55 30.8 127.05 29.95 122.8 29.05 118.6 28.15 112.7 27.85 106.85 27.55 121.5 26.4 136.2 25.25 141.75 23.35 147.3 21.45 138.4 19.85 129.95 18.25 124.65 18.3 L122.5 18.4 122.3 18.35 Q122.4 18.0 121.75 17.7 135.0 16.25 129.1 15.0 123.5 13.75 116.05 13.55 116.2 13.1 115.3 12.85 106.5 8.5 99.05 5.7 92.25 2.9 66.5 3.2 47.35 3.5 25.4 7.15 3.35 10.55 6.75 11.7 10.15 12.8 25.9 13.75 41.65 14.65 34.8 14.85 27.9 14.95 21.05 15.05 L13.0 15.35 4.9 16.3 Q4.75 16.45 4.85 16.6" fill="#96e0bc" fill-opacity="0.7058824" fill-rule="evenodd" stroke="none"/>
      <path d="M4.85 16.6 Q4.75 16.45 4.9 16.3 L13.0 15.35 21.05 15.05 Q27.9 14.95 34.8 14.85 41.65 14.65 25.9 13.75 10.15 12.8 6.75 11.7 3.35 10.55 25.4 7.15 47.35 3.5 66.5 3.2 92.25 2.9 99.05 5.7 106.5 8.5 115.3 12.85 116.2 13.1 116.05 13.55 123.5 13.75 129.1 15.0 135.0 16.25 121.75 17.7 122.4 18.0 122.3 18.35 L122.5 18.4 124.65 18.3 Q129.95 18.25 138.4 19.85 147.3 21.45 141.75 23.35 136.2 25.25 121.5 26.4 106.85 27.55 112.7 27.85 118.6 28.15 122.8 29.05 127.05 29.95 126.55 30.8 126.1 31.65 116.75 33.25 119.95 33.55 122.25 33.95 128.5 34.35 125.25 36.1 122.4 38.05 100.0 38.45 109.5 40.8 107.55 42.0 104.15 44.85 106.15 45.8 107.9 46.85 104.6 48.0 101.7 49.15 92.25 49.55 L75.95 49.95 Q71.45 49.9 66.75 50.0 64.3 50.15 73.0 47.9 81.55 45.65 70.65 45.2 61.25 44.65 51.95 44.3 43.95 43.8 43.45 42.75 43.0 41.7 53.9 38.4 40.1 40.3 36.3 40.1 16.55 40.6 30.2 37.25 29.9 36.6 36.6 35.1 L23.95 34.5 Q21.85 34.25 20.15 33.75 18.6 33.25 13.8 32.85 8.95 32.4 14.35 30.6 19.8 28.85 27.7 28.3 35.55 27.65 23.4 25.9 11.3 24.1 28.55 23.3 45.7 22.35 34.1 21.7 22.9 21.05 13.55 19.6 4.2 18.15 4.95 16.55" fill="none" stroke="#000000" stroke-linecap="round" stroke-linejoin="round" stroke-opacity="0.0" stroke-width="1.0"/>
    </g>
    <g id="morphshape1" transform="matrix(1.0, 0.0, 0.0, 1.0, -17.5, -9.15)">
      <path d="M128.05 21.85 Q128.05 22.6 128.5 23.3 129.25 24.35 132.1 24.1 L131.35 21.9 Q130.35 21.55 128.05 21.85 M102.7 33.5 Q102.7 33.85 103.8 34.65 L107.1 34.75 109.25 33.75 Q111.45 32.7 111.85 32.2 L110.35 31.0 106.15 30.6 Q102.7 30.8 102.7 33.5 M89.7 44.25 L89.7 44.25 90.2 45.1 Q91.6 45.35 93.0 45.55 L95.75 45.65 99.85 45.45 100.6 45.2 101.05 44.75 101.2 43.95 101.15 43.45 Q100.95 42.65 100.2 42.15 98.95 41.4 93.85 41.55 91.75 41.9 90.2 43.35 L89.65 44.15 M79.05 32.1 L79.3 32.75 Q79.8 33.2 80.9 33.65 L82.75 34.1 85.4 34.25 85.8 34.15 86.05 33.95 86.25 33.45 86.25 33.0 Q86.25 32.3 85.85 32.0 85.15 31.35 81.9 31.2 80.5 31.35 79.2 31.65 L79.1 32.2 M61.4 40.3 L61.95 41.2 68.3 41.6 Q72.35 41.6 75.2 39.35 75.2 37.45 69.15 37.3 62.9 37.2 61.4 40.3 M55.05 40.85 Q55.2 41.25 55.3 41.6 L58.35 41.6 Q58.8 41.35 59.05 39.75 L55.55 39.95 Q55.05 40.3 55.05 40.85 M49.0 34.15 L50.2 35.35 Q52.25 36.5 56.55 36.5 58.1 36.5 59.85 34.35 59.85 31.4 54.45 31.45 49.0 31.5 49.0 34.15 M31.6 30.1 Q31.8 30.65 34.6 31.65 38.15 32.0 41.75 32.1 L45.5 31.2 Q46.5 30.4 46.8 28.3 46.1 25.5 38.5 26.35 30.85 27.15 31.55 30.1 M22.15 11.2 Q22.15 11.65 22.6 12.35 L23.55 13.3 30.4 13.4 Q31.6 12.5 31.6 11.95 31.6 10.1 26.9 10.0 22.15 9.95 22.15 11.2" fill="#bef0d8" fill-opacity="0.7058824" fill-rule="evenodd" stroke="none"/>
      <path d="M22.15 11.2 Q22.15 9.95 26.9 10.0 31.6 10.1 31.6 11.95 31.6 12.5 30.4 13.4 L23.55 13.3 22.6 12.35 Q22.15 11.65 22.15 11.2 M31.55 30.1 Q30.85 27.15 38.5 26.35 46.1 25.5 46.8 28.3 46.5 30.4 45.5 31.2 L41.75 32.1 Q38.15 32.0 34.6 31.65 31.8 30.65 31.6 30.1 M49.0 34.15 Q49.0 31.5 54.45 31.45 59.85 31.4 59.85 34.35 58.1 36.5 56.55 36.5 52.25 36.5 50.2 35.35 L49.0 34.15 M55.05 40.85 Q55.05 40.3 55.55 39.95 L59.05 39.75 Q58.8 41.35 58.35 41.6 L55.3 41.6 Q55.2 41.25 55.05 40.85 M61.4 40.3 Q62.9 37.2 69.15 37.3 75.2 37.45 75.2 39.35 72.35 41.6 68.3 41.6 L61.95 41.2 61.4 40.3 M79.1 32.2 L79.2 31.65 Q80.5 31.35 81.9 31.2 85.15 31.35 85.85 32.0 86.25 32.3 86.25 33.0 L86.25 33.45 86.05 33.95 85.8 34.15 85.4 34.25 82.75 34.1 80.9 33.65 Q79.8 33.2 79.3 32.75 L79.05 32.1 M89.65 44.15 L90.2 43.35 Q91.75 41.9 93.85 41.55 98.95 41.4 100.2 42.15 100.95 42.65 101.15 43.45 L101.2 43.95 101.05 44.75 100.6 45.2 99.85 45.45 95.75 45.65 93.0 45.55 Q91.6 45.35 90.2 45.1 L89.7 44.25 89.7 44.25 M102.7 33.5 Q102.7 30.8 106.15 30.6 L110.35 31.0 111.85 32.2 Q111.45 32.7 109.25 33.75 L107.1 34.75 103.8 34.65 Q102.7 33.85 102.7 33.5 M128.05 21.85 Q130.35 21.55 131.35 21.9 L132.1 24.1 Q129.25 24.35 128.5 23.3 128.05 22.6 128.05 21.85 Z" fill="none" stroke="#000000" stroke-linecap="round" stroke-linejoin="round" stroke-opacity="0.0" stroke-width="1.0"/>
    </g>
    <g id="morphshape2" transform="matrix(1.0, 0.0, 0.0, 1.0, -37.6, -4.7)">
      <path d="M106.95 18.8 Q106.95 19.95 107.2 20.35 L108.0 20.9 Q111.0 20.1 111.8 19.65 112.5 19.15 111.45 16.1 109.05 16.3 108.0 16.95 106.95 17.55 106.95 18.8 M93.8 17.05 Q93.8 18.1 94.4 18.7 L97.45 18.9 Q97.9 17.9 97.65 15.8 L93.9 15.7 93.8 17.05 M92.6 9.25 Q92.6 10.3 93.0 11.2 L98.95 11.2 Q100.0 10.15 100.0 6.65 95.3 6.2 93.65 7.05 92.6 7.65 92.6 9.25 M84.25 16.65 Q84.3 17.6 85.05 19.45 85.7 19.9 87.25 20.05 L88.05 18.85 Q88.55 18.15 87.85 16.35 L84.25 16.65 M75.7 14.25 Q75.3 16.15 76.1 17.65 77.1 19.4 79.35 19.4 80.5 19.4 81.7 17.65 80.85 15.25 79.2 14.6 L75.7 14.25 M64.15 9.6 L64.2 11.05 64.55 11.6 70.0 12.35 73.3 12.75 Q75.05 12.75 73.95 10.3 73.95 7.25 69.05 7.1 64.15 7.0 64.15 9.6 M56.25 22.0 L56.25 22.0 56.35 23.2 56.7 23.6 Q57.2 23.65 57.7 23.65 58.85 23.65 60.05 23.65 L63.9 23.6 Q64.1 22.3 63.35 19.25 62.4 17.6 61.5 16.75 60.15 15.6 58.65 16.15 56.15 17.3 56.15 22.0 M52.2 9.25 L52.25 10.0 52.3 10.15 Q52.4 10.55 52.65 10.65 L54.0 11.0 Q55.35 10.4 55.75 10.3 56.0 9.15 56.1 7.85 55.75 6.85 55.45 6.0 54.6 5.85 53.75 5.9 52.25 6.85 52.25 9.2 M40.7 13.7 L41.8 15.8 Q43.5 17.95 46.5 17.95 50.4 17.95 50.4 14.75 50.4 11.75 45.55 10.95 40.7 10.1 40.7 13.7" fill="#bef0d8" fill-opacity="0.7058824" fill-rule="evenodd" stroke="none"/>
      <path d="M40.7 13.7 Q40.7 10.1 45.55 10.95 50.4 11.75 50.4 14.75 50.4 17.95 46.5 17.95 43.5 17.95 41.8 15.8 L40.7 13.7 M52.25 9.2 Q52.25 6.85 53.75 5.9 54.6 5.85 55.45 6.0 55.75 6.85 56.1 7.85 56.0 9.15 55.75 10.3 55.35 10.4 54.0 11.0 L52.65 10.65 Q52.4 10.55 52.3 10.15 L52.25 10.0 52.2 9.25 M56.15 22.0 Q56.15 17.3 58.65 16.15 60.15 15.6 61.5 16.75 62.4 17.6 63.35 19.25 64.1 22.3 63.9 23.6 L60.05 23.65 Q58.85 23.65 57.7 23.65 57.2 23.65 56.7 23.6 L56.35 23.2 56.25 22.0 56.25 22.0 M64.15 9.6 Q64.15 7.0 69.05 7.1 73.95 7.25 73.95 10.3 75.05 12.75 73.3 12.75 L70.0 12.35 64.55 11.6 64.2 11.05 64.15 9.6 M75.7 14.25 L79.2 14.6 Q80.85 15.25 81.7 17.65 80.5 19.4 79.35 19.4 77.1 19.4 76.1 17.65 75.3 16.15 75.7 14.25 M84.25 16.65 L87.85 16.35 Q88.55 18.15 88.05 18.85 L87.25 20.05 Q85.7 19.9 85.05 19.45 84.3 17.6 84.25 16.65 M92.6 9.25 Q92.6 7.65 93.65 7.05 95.3 6.2 100.0 6.65 100.0 10.15 98.95 11.2 L93.0 11.2 Q92.6 10.3 92.6 9.25 M93.8 17.05 L93.9 15.7 97.65 15.8 Q97.9 17.9 97.45 18.9 L94.4 18.7 Q93.8 18.1 93.8 17.05 M106.95 18.8 Q106.95 17.55 108.0 16.95 109.05 16.3 111.45 16.1 112.5 19.15 111.8 19.65 111.0 20.1 108.0 20.9 L107.2 20.35 Q106.95 19.95 106.95 18.8 Z" fill="none" stroke="#000000" stroke-linecap="round" stroke-linejoin="round" stroke-opacity="0.0" stroke-width="1.0"/>
    </g>
    <g id="morphshape3" transform="matrix(1.0, 0.0, 0.0, 1.0, -32.35, -6.65)">
      <path d="M95.2 8.35 Q95.2 9.5 95.35 9.9 L95.8 10.65 97.8 10.65 98.3 10.15 98.45 8.95 98.2 7.45 Q97.9 7.0 95.35 6.95 95.2 6.6 95.2 8.35 M68.5 9.6 Q68.25 9.95 68.85 10.8 69.15 11.2 70.05 11.45 71.45 11.6 72.8 11.65 73.3 11.2 73.25 10.5 72.85 10.15 69.05 9.1 L68.55 9.55 M65.8 37.45 L66.1 39.4 Q66.3 40.45 66.75 41.3 L70.25 41.3 Q70.45 41.0 70.75 40.85 L70.35 37.75 66.8 37.2 Q66.0 37.15 65.8 37.45 M44.2 15.1 L44.4 16.45 44.75 16.95 46.3 17.0 Q47.35 17.0 47.95 16.55 48.15 16.4 48.15 14.65 48.15 13.5 47.8 12.95 L47.1 12.3 44.3 13.4 44.2 15.1 M37.05 29.2 L37.3 30.2 Q37.65 31.0 38.1 31.3 42.2 30.75 42.2 28.35 42.2 27.25 41.85 26.95 L41.0 26.6 39.25 26.85 37.4 27.0 37.05 29.2" fill="#ffffff" fill-opacity="0.7058824" fill-rule="evenodd" stroke="none"/>
      <path d="M37.05 29.2 L37.4 27.0 39.25 26.85 41.0 26.6 41.85 26.95 Q42.2 27.25 42.2 28.35 42.2 30.75 38.1 31.3 37.65 31.0 37.3 30.2 L37.05 29.2 M44.2 15.1 L44.3 13.4 47.1 12.3 47.8 12.95 Q48.15 13.5 48.15 14.65 48.15 16.4 47.95 16.55 47.35 17.0 46.3 17.0 L44.75 16.95 44.4 16.45 44.2 15.1 M65.8 37.45 Q66.0 37.15 66.8 37.2 L70.35 37.75 70.75 40.85 Q70.45 41.0 70.25 41.3 L66.75 41.3 Q66.3 40.45 66.1 39.4 L65.8 37.45 M68.55 9.55 L69.05 9.1 Q72.85 10.15 73.25 10.5 73.3 11.2 72.8 11.65 71.45 11.6 70.05 11.45 69.15 11.2 68.85 10.8 68.25 9.95 68.5 9.6 M95.2 8.35 Q95.2 6.6 95.35 6.95 97.9 7.0 98.2 7.45 L98.45 8.95 98.3 10.15 97.8 10.65 95.8 10.65 95.35 9.9 Q95.2 9.5 95.2 8.35 Z" fill="none" stroke="#000000" stroke-linecap="round" stroke-linejoin="round" stroke-opacity="0.0" stroke-width="1.0"/>
    </g>
  </defs>
</svg>
