<?xml version="1.0" encoding="UTF-8" standalone="no"?>
<svg xmlns:xlink="http://www.w3.org/1999/xlink" height="47.45px" width="141.0px" xmlns="http://www.w3.org/2000/svg">
  <g transform="matrix(1.0, 0.0, 0.0, 1.0, -4.35, -2.9)">
    <use data-characterId="3192" height="47.45" transform="matrix(1.0, 0.0, 0.0, 1.0, 4.35, 2.9)" width="141.0" xlink:href="#morphshape0"/>
    <use data-characterId="3193" height="37.5" transform="matrix(1.0, 0.0, 0.0, 1.0, 17.5, 9.15)" width="116.05" xlink:href="#morphshape1"/>
    <use data-characterId="3194" height="21.8" transform="matrix(1.0, 0.0, 0.0, 1.0, 37.6, 4.7)" width="75.1" xlink:href="#morphshape2"/>
    <use data-characterId="3195" height="35.65" transform="matrix(1.0, 0.0, 0.0, 1.0, 32.35, 6.65)" width="66.65" xlink:href="#morphshape3"/>
  </g>
  <defs>
    <g id="morphshape0" transform="matrix(1.0, 0.0, 0.0, 1.0, -4.35, -2.9)">
      <path d="M4.55 18.25 Q4.5 19.75 10.45 20.85 16.45 21.8 23.35 22.3 32.75 23.1 24.5 24.8 15.9 25.5 21.0 27.05 26.6 28.25 22.55 29.05 18.45 29.7 15.9 31.05 13.55 32.85 16.7 33.4 19.6 33.85 21.45 34.2 24.4 34.55 26.65 35.2 L32.9 36.15 Q29.25 38.0 32.55 38.8 27.75 40.55 39.8 40.35 41.25 41.05 48.25 40.6 42.75 42.8 44.85 44.05 47.15 45.4 53.2 45.7 58.9 45.9 65.3 47.0 72.4 48.05 69.5 49.2 66.0 50.35 69.75 49.5 74.75 48.65 78.8 48.55 L90.65 47.85 Q97.1 47.45 100.2 46.65 105.65 46.2 106.6 44.2 106.35 43.1 108.4 40.9 112.4 39.95 108.35 38.25 121.6 36.7 120.85 35.05 122.35 34.1 119.05 33.85 122.95 32.85 121.75 32.25 126.85 31.0 125.75 30.1 125.2 29.35 122.2 28.6 119.8 28.05 119.9 27.35 120.0 26.65 128.1 24.95 136.25 23.25 137.7 21.65 139.05 20.0 131.7 19.2 126.8 18.4 123.55 18.45 L122.4 18.5 121.95 18.35 Q124.2 17.15 122.2 16.05 127.25 15.15 122.65 14.4 119.8 13.75 116.0 13.65 116.75 11.2 111.8 9.75 101.55 5.8 84.75 4.4 71.85 3.0 49.1 4.75 30.1 6.4 19.55 9.65 8.55 11.65 10.45 12.5 12.35 13.3 20.5 14.05 28.55 14.7 24.75 14.95 21.05 15.0 17.45 15.15 L8.95 15.8 4.85 16.3 Q4.35 17.15 4.8 18.05" fill="#96e0bc" fill-opacity="0.7058824" fill-rule="evenodd" stroke="none"/>
      <path d="M4.8 18.05 Q4.35 17.15 4.85 16.3 L8.95 15.8 17.45 15.15 Q21.05 15.0 24.75 14.95 28.55 14.7 20.5 14.05 12.35 13.3 10.45 12.5 8.55 11.65 19.55 9.65 30.1 6.4 49.1 4.75 71.85 3.0 84.75 4.4 101.55 5.8 111.8 9.75 116.75 11.2 116.0 13.65 119.8 13.75 122.65 14.4 127.25 15.15 122.2 16.05 124.2 17.15 121.95 18.35 L122.4 18.5 123.55 18.45 Q126.8 18.4 131.7 19.2 139.05 20.0 137.7 21.65 136.25 23.25 128.1 24.95 120.0 26.65 119.9 27.35 119.8 28.05 122.2 28.6 125.2 29.35 125.75 30.1 126.85 31.0 121.75 32.25 122.95 32.85 119.05 33.85 122.35 34.1 120.85 35.05 121.6 36.7 108.35 38.25 112.4 39.95 108.4 40.9 106.35 43.1 106.6 44.2 105.65 46.2 100.2 46.65 97.1 47.45 90.65 47.85 L78.8 48.55 Q74.75 48.65 69.75 49.5 66.0 50.35 69.5 49.2 72.4 48.05 65.3 47.0 58.9 45.9 53.2 45.7 47.15 45.4 44.85 44.05 42.75 42.8 48.25 40.6 41.25 41.05 39.8 40.35 27.75 40.55 32.55 38.8 29.25 38.0 32.9 36.15 L26.65 35.2 Q24.4 34.55 21.45 34.2 19.6 33.85 16.7 33.4 13.55 32.85 15.9 31.05 18.45 29.7 22.55 29.05 26.6 28.25 21.0 27.05 15.9 25.5 24.5 24.8 32.75 23.1 23.35 22.3 16.45 21.8 10.45 20.85 4.5 19.75 4.55 18.25" fill="none" stroke="#000000" stroke-linecap="round" stroke-linejoin="round" stroke-opacity="0.0" stroke-width="1.0"/>
    </g>
    <g id="morphshape1" transform="matrix(1.0, 0.0, 0.0, 1.0, -17.5, -9.15)">
      <path d="M121.35 22.75 Q121.35 23.5 121.8 24.2 122.55 25.25 125.4 25.0 L124.65 22.8 Q123.65 22.45 121.35 22.75 M101.1 31.05 Q101.1 31.4 102.2 32.2 L105.5 32.3 107.65 31.3 Q109.85 30.25 110.25 29.75 L108.75 28.55 104.55 28.15 Q101.1 28.35 101.1 31.05 M87.15 38.9 L87.15 38.95 87.5 39.65 Q88.4 40.0 89.65 40.35 L91.9 40.65 95.2 40.65 95.75 40.5 96.1 40.2 96.3 39.55 96.3 39.1 Q96.2 38.35 95.65 37.95 94.7 37.25 90.6 37.25 88.9 37.5 87.5 38.3 L87.2 38.95 M77.2 37.3 L77.6 38.05 Q78.6 38.4 79.85 38.7 L82.2 38.95 85.65 38.9 86.25 38.7 86.6 38.35 86.75 37.7 86.7 37.2 Q86.6 36.45 86.0 36.05 85.0 35.35 80.75 35.35 78.95 35.6 77.5 36.55 L77.15 37.25 M61.95 36.0 L62.5 36.9 68.85 37.3 Q72.9 37.3 75.75 35.05 75.75 33.15 69.7 33.0 63.45 32.9 61.95 36.0 M58.4 41.55 Q58.45 42.0 58.65 42.3 L61.7 42.3 Q62.15 42.05 62.4 40.45 L58.9 40.65 Q58.4 41.0 58.4 41.55 M49.0 35.6 L50.2 36.8 Q52.25 37.95 56.55 37.95 58.1 37.95 59.85 35.8 59.85 32.85 54.45 32.9 49.0 32.95 49.0 35.6 M28.95 29.1 Q29.05 29.7 31.75 31.05 35.15 32.3 38.8 32.3 L42.65 31.85 Q43.75 31.2 44.25 29.2 43.9 26.35 36.3 26.3 28.65 26.2 29.0 29.2 M19.85 15.2 Q19.85 15.65 20.3 16.35 L21.25 17.3 28.1 17.4 Q29.3 16.5 29.3 15.95 29.3 14.1 24.6 14.0 19.85 13.95 19.85 15.2" fill="#bef0d8" fill-opacity="0.7058824" fill-rule="evenodd" stroke="none"/>
      <path d="M19.85 15.2 Q19.85 13.95 24.6 14.0 29.3 14.1 29.3 15.95 29.3 16.5 28.1 17.4 L21.25 17.3 20.3 16.35 Q19.85 15.65 19.85 15.2 M29.0 29.2 Q28.65 26.2 36.3 26.3 43.9 26.35 44.25 29.2 43.75 31.2 42.65 31.85 L38.8 32.3 Q35.15 32.3 31.75 31.05 29.05 29.7 28.95 29.1 M49.0 35.6 Q49.0 32.95 54.45 32.9 59.85 32.85 59.85 35.8 58.1 37.95 56.55 37.95 52.25 37.95 50.2 36.8 L49.0 35.6 M58.4 41.55 Q58.4 41.0 58.9 40.65 L62.4 40.45 Q62.15 42.05 61.7 42.3 L58.65 42.3 Q58.45 42.0 58.4 41.55 M61.95 36.0 Q63.45 32.9 69.7 33.0 75.75 33.15 75.75 35.05 72.9 37.3 68.85 37.3 L62.5 36.9 61.95 36.0 M77.15 37.25 L77.5 36.55 Q78.95 35.6 80.75 35.35 85.0 35.35 86.0 36.05 86.6 36.45 86.7 37.2 L86.75 37.7 86.6 38.35 86.25 38.7 85.65 38.9 82.2 38.95 79.85 38.7 Q78.6 38.4 77.6 38.05 L77.2 37.3 M87.2 38.95 L87.5 38.3 Q88.9 37.5 90.6 37.25 94.7 37.25 95.65 37.95 96.2 38.35 96.3 39.1 L96.3 39.55 96.1 40.2 95.75 40.5 95.2 40.65 91.9 40.65 89.65 40.35 Q88.4 40.0 87.5 39.65 L87.15 38.95 87.15 38.9 M101.1 31.05 Q101.1 28.35 104.55 28.15 L108.75 28.55 110.25 29.75 Q109.85 30.25 107.65 31.3 L105.5 32.3 102.2 32.2 Q101.1 31.4 101.1 31.05 M121.35 22.75 Q123.65 22.45 124.65 22.8 L125.4 25.0 Q122.55 25.25 121.8 24.2 121.35 23.5 121.35 22.75 Z" fill="none" stroke="#000000" stroke-linecap="round" stroke-linejoin="round" stroke-opacity="0.0" stroke-width="1.0"/>
    </g>
    <g id="morphshape2" transform="matrix(1.0, 0.0, 0.0, 1.0, -37.6, -4.7)">
      <path d="M104.1 16.65 Q104.1 17.8 104.35 18.2 L105.15 18.75 Q107.6 18.05 108.95 17.5 109.65 17.0 108.6 13.95 106.2 14.15 105.15 14.8 104.1 15.4 104.1 16.65 M91.65 19.65 Q91.65 20.7 92.25 21.3 L95.3 21.5 Q95.75 20.5 95.5 18.4 L91.75 18.3 91.65 19.65 M90.25 10.65 Q90.25 11.7 90.65 12.6 L96.6 12.6 Q97.65 11.55 97.65 8.05 92.95 7.6 91.3 8.45 90.25 9.05 90.25 10.65 M81.95 19.85 Q82.0 20.8 82.75 22.65 83.4 23.1 84.95 23.25 L85.75 22.05 Q86.25 21.35 85.55 19.55 L81.95 19.85 M77.2 10.25 Q76.8 12.15 77.6 13.65 78.6 15.4 80.85 15.4 82.0 15.4 83.2 13.65 82.35 11.25 80.7 10.6 L77.2 10.25 M65.5 11.95 L65.55 13.4 65.9 13.95 71.35 14.7 74.65 15.1 Q76.4 15.1 75.3 12.65 75.3 9.6 70.4 9.45 65.5 9.35 65.5 11.95 M56.0 16.35 L56.0 16.45 56.05 17.3 56.25 17.55 Q56.55 17.8 56.9 17.85 57.6 17.95 58.7 18.05 L61.4 17.65 Q61.65 16.45 61.35 14.35 60.75 13.05 60.2 12.2 59.15 11.6 58.0 11.85 56.05 12.9 56.05 16.3 M50.15 16.05 L50.25 17.05 50.45 17.35 Q50.75 17.55 51.15 17.6 L53.05 17.8 Q54.75 17.5 56.0 17.45 56.2 16.2 55.85 13.95 55.15 12.6 54.5 11.75 53.35 11.05 52.15 11.4 50.1 12.45 50.1 16.1 M39.2 11.95 L40.3 14.05 Q42.0 16.2 45.0 16.2 48.9 16.2 48.9 13.0 48.9 10.0 44.05 9.2 39.2 8.35 39.2 11.95" fill="#bef0d8" fill-opacity="0.7058824" fill-rule="evenodd" stroke="none"/>
      <path d="M39.2 11.95 Q39.2 8.35 44.05 9.2 48.9 10.0 48.9 13.0 48.9 16.2 45.0 16.2 42.0 16.2 40.3 14.05 L39.2 11.95 M50.1 16.1 Q50.1 12.45 52.15 11.4 53.35 11.05 54.5 11.75 55.15 12.6 55.85 13.95 56.2 16.2 56.0 17.45 54.75 17.5 53.05 17.8 L51.15 17.6 Q50.75 17.55 50.45 17.35 L50.25 17.05 50.15 16.05 M56.05 16.3 Q56.05 12.9 58.0 11.85 59.15 11.6 60.2 12.2 60.75 13.05 61.35 14.35 61.65 16.45 61.4 17.65 L58.7 18.05 Q57.6 17.95 56.9 17.85 56.55 17.8 56.25 17.55 L56.05 17.3 56.0 16.45 56.0 16.35 M65.5 11.95 Q65.5 9.35 70.4 9.45 75.3 9.6 75.3 12.65 76.4 15.1 74.65 15.1 L71.35 14.7 65.9 13.95 65.55 13.4 65.5 11.95 M77.2 10.25 L80.7 10.6 Q82.35 11.25 83.2 13.65 82.0 15.4 80.85 15.4 78.6 15.4 77.6 13.65 76.8 12.15 77.2 10.25 M81.95 19.85 L85.55 19.55 Q86.25 21.35 85.75 22.05 L84.95 23.25 Q83.4 23.1 82.75 22.65 82.0 20.8 81.95 19.85 M90.25 10.65 Q90.25 9.05 91.3 8.45 92.95 7.6 97.65 8.05 97.65 11.55 96.6 12.6 L90.65 12.6 Q90.25 11.7 90.25 10.65 M91.65 19.65 L91.75 18.3 95.5 18.4 Q95.75 20.5 95.3 21.5 L92.25 21.3 Q91.65 20.7 91.65 19.65 M104.1 16.65 Q104.1 15.4 105.15 14.8 106.2 14.15 108.6 13.95 109.65 17.0 108.95 17.5 107.6 18.05 105.15 18.75 L104.35 18.2 Q104.1 17.8 104.1 16.65 Z" fill="none" stroke="#000000" stroke-linecap="round" stroke-linejoin="round" stroke-opacity="0.0" stroke-width="1.0"/>
    </g>
    <g id="morphshape3" transform="matrix(1.0, 0.0, 0.0, 1.0, -32.35, -6.65)">
      <path d="M92.65 9.65 Q92.65 10.8 92.8 11.2 L93.25 11.95 95.25 11.95 95.75 11.45 95.9 10.25 95.65 8.75 Q95.35 8.3 92.8 8.25 92.65 7.9 92.65 9.65 M69.0 11.9 Q68.85 12.3 69.6 13.0 70.1 13.25 70.85 13.4 72.15 13.4 73.5 13.0 73.85 12.45 73.65 11.8 72.35 11.8 69.35 11.4 L69.0 12.0 M66.05 32.8 L66.35 34.75 Q66.55 35.8 67.0 36.65 L70.5 36.65 Q70.75 36.4 71.0 36.2 L70.6 33.1 67.05 32.55 Q66.25 32.5 66.05 32.8 M42.2 14.05 L42.4 15.4 42.75 15.9 44.3 15.95 Q45.35 15.95 45.95 15.5 46.15 15.35 46.15 13.6 46.15 12.45 45.8 11.9 L45.1 11.25 42.3 12.35 42.2 14.05 M34.75 29.2 L35.0 30.2 Q35.35 31.0 35.8 31.3 39.9 30.75 39.9 28.35 39.9 27.25 39.55 26.95 L38.7 26.6 36.95 26.85 35.1 27.0 34.75 29.2" fill="#ffffff" fill-opacity="0.7058824" fill-rule="evenodd" stroke="none"/>
      <path d="M34.75 29.2 L35.1 27.0 36.95 26.85 38.7 26.6 39.55 26.95 Q39.9 27.25 39.9 28.35 39.9 30.75 35.8 31.3 35.35 31.0 35.0 30.2 L34.75 29.2 M42.2 14.05 L42.3 12.35 45.1 11.25 45.8 11.9 Q46.15 12.45 46.15 13.6 46.15 15.35 45.95 15.5 45.35 15.95 44.3 15.95 L42.75 15.9 42.4 15.4 42.2 14.05 M66.05 32.8 Q66.25 32.5 67.05 32.55 L70.6 33.1 71.0 36.2 Q70.75 36.4 70.5 36.65 L67.0 36.65 Q66.55 35.8 66.35 34.75 L66.05 32.8 M69.0 12.0 L69.35 11.4 Q72.35 11.8 73.65 11.8 73.85 12.45 73.5 13.0 72.15 13.4 70.85 13.4 70.1 13.25 69.6 13.0 68.85 12.3 69.0 11.9 M92.65 9.65 Q92.65 7.9 92.8 8.25 95.35 8.3 95.65 8.75 L95.9 10.25 95.75 11.45 95.25 11.95 93.25 11.95 92.8 11.2 Q92.65 10.8 92.65 9.65 Z" fill="none" stroke="#000000" stroke-linecap="round" stroke-linejoin="round" stroke-opacity="0.0" stroke-width="1.0"/>
    </g>
  </defs>
</svg>
