<?xml version="1.0" encoding="UTF-8" standalone="no"?>
<svg xmlns:xlink="http://www.w3.org/1999/xlink" height="47.45px" width="141.0px" xmlns="http://www.w3.org/2000/svg">
  <g transform="matrix(1.0, 0.0, 0.0, 1.0, -4.35, -2.9)">
    <use data-characterId="3188" height="47.45" transform="matrix(1.0, 0.0, 0.0, 1.0, 4.35, 2.9)" width="141.0" xlink:href="#morphshape0"/>
    <use data-characterId="3189" height="37.5" transform="matrix(1.0, 0.0, 0.0, 1.0, 17.5, 9.15)" width="116.05" xlink:href="#morphshape1"/>
    <use data-characterId="3190" height="21.8" transform="matrix(1.0, 0.0, 0.0, 1.0, 37.6, 4.7)" width="75.1" xlink:href="#morphshape2"/>
    <use data-characterId="3191" height="35.65" transform="matrix(1.0, 0.0, 0.0, 1.0, 32.35, 6.65)" width="66.65" xlink:href="#morphshape3"/>
  </g>
  <defs>
    <g id="morphshape0" transform="matrix(1.0, 0.0, 0.0, 1.0, -4.35, -2.9)">
      <path d="M4.8 16.95 Q4.2 18.5 12.85 19.9 21.55 21.25 31.85 21.85 43.0 22.5 27.7 23.6 12.25 24.35 22.9 26.1 33.7 27.7 26.65 28.4 19.55 29.0 14.7 30.65 9.95 32.45 14.45 32.9 18.85 33.3 20.45 33.75 22.4 34.25 24.55 34.6 L35.85 35.3 Q29.8 36.9 30.7 37.6 18.9 40.6 37.05 40.15 40.35 40.45 52.75 38.85 42.95 41.95 43.75 43.05 44.6 44.15 52.2 44.6 60.75 44.9 69.55 45.55 79.65 46.1 72.25 48.15 64.65 50.2 67.4 49.9 72.15 49.65 76.55 49.65 L91.95 49.2 Q100.8 48.8 103.75 47.7 107.5 46.7 106.3 45.45 104.7 44.5 107.85 41.8 110.2 40.65 101.85 38.4 122.35 37.75 124.45 35.85 127.35 34.25 121.7 33.85 120.65 33.35 117.9 33.0 126.35 31.5 126.5 30.65 126.8 29.8 122.8 28.95 118.95 28.15 114.3 27.8 109.65 27.45 122.95 26.2 136.3 24.95 141.0 23.1 145.7 21.25 137.1 19.8 129.35 18.35 124.45 18.4 L122.5 18.5 122.25 18.45 Q122.8 17.95 121.9 17.45 133.45 16.1 127.85 14.95 122.8 13.8 116.1 13.65 116.35 12.75 114.65 12.25 105.55 8.0 96.15 5.5 88.1 3.0 62.95 3.6 43.85 4.15 24.25 7.7 4.45 10.8 7.5 11.9 10.55 12.95 24.75 13.85 38.9 14.7 32.7 14.9 26.45 15.0 20.3 15.1 L12.15 15.45 4.9 16.3 Q4.7 16.6 4.85 16.9" fill="#96e0bc" fill-opacity="0.7058824" fill-rule="evenodd" stroke="none"/>
      <path d="M4.85 16.9 Q4.7 16.6 4.9 16.3 L12.15 15.45 20.3 15.1 Q26.45 15.0 32.7 14.9 38.9 14.7 24.75 13.85 10.55 12.95 7.5 11.9 4.45 10.8 24.25 7.7 43.85 4.15 62.95 3.6 88.1 3.0 96.15 5.5 105.55 8.0 114.65 12.25 116.35 12.75 116.1 13.65 122.8 13.8 127.85 14.95 133.45 16.1 121.9 17.45 122.8 17.95 122.25 18.45 L122.5 18.5 124.45 18.4 Q129.35 18.35 137.1 19.8 145.7 21.25 141.0 23.1 136.3 24.95 122.95 26.2 109.65 27.45 114.3 27.8 118.95 28.15 122.8 28.95 126.8 29.8 126.5 30.65 126.35 31.5 117.9 33.0 120.65 33.35 121.7 33.85 127.35 34.25 124.45 35.85 122.35 37.75 101.85 38.4 110.2 40.65 107.85 41.8 104.7 44.5 106.3 45.45 107.5 46.7 103.75 47.7 100.8 48.8 91.95 49.2 L76.55 49.65 Q72.15 49.65 67.4 49.9 64.65 50.2 72.25 48.15 79.65 46.1 69.55 45.55 60.75 44.9 52.2 44.6 44.6 44.15 43.75 43.05 42.95 41.95 52.75 38.85 40.35 40.45 37.05 40.15 18.9 40.6 30.7 37.6 29.8 36.9 35.85 35.3 L24.55 34.6 Q22.4 34.25 20.45 33.75 18.85 33.3 14.45 32.9 9.95 32.45 14.7 30.65 19.55 29.0 26.65 28.4 33.7 27.7 22.9 26.1 12.25 24.35 27.7 23.6 43.0 22.5 31.85 21.85 21.55 21.25 12.85 19.9 4.2 18.5 4.8 16.95" fill="none" stroke="#000000" stroke-linecap="round" stroke-linejoin="round" stroke-opacity="0.0" stroke-width="1.0"/>
    </g>
    <g id="morphshape1" transform="matrix(1.0, 0.0, 0.0, 1.0, -17.5, -9.15)">
      <path d="M126.65 22.05 Q126.65 22.8 127.1 23.5 127.85 24.55 130.7 24.3 L129.95 22.1 Q128.95 21.75 126.65 22.05 M102.35 33.0 Q102.35 33.35 103.45 34.15 L106.75 34.25 108.9 33.25 Q111.1 32.2 111.5 31.7 L110.0 30.5 105.8 30.1 Q102.35 30.3 102.35 33.0 M89.25 43.05 L89.75 43.9 Q91.05 44.15 92.4 44.4 L95.05 44.55 98.95 44.4 99.65 44.2 100.1 43.8 100.25 43.05 100.2 42.55 Q100.05 41.75 99.35 41.3 98.15 40.55 93.25 40.65 91.2 40.95 89.65 42.3 L89.15 43.1 M78.6 33.25 L78.6 33.35 78.85 33.95 Q79.45 34.4 80.6 34.8 L82.55 35.2 85.4 35.3 85.85 35.15 86.1 34.9 86.3 34.35 86.3 33.9 Q86.25 33.2 85.8 32.85 85.05 32.2 81.6 32.1 80.15 32.3 78.85 32.7 L78.7 33.25 M61.5 39.4 L62.05 40.3 68.4 40.7 Q72.45 40.7 75.3 38.45 75.3 36.55 69.25 36.4 63.0 36.3 61.5 39.4 M55.7 41.0 Q55.8 41.4 55.95 41.75 L59.0 41.75 Q59.45 41.5 59.7 39.9 L56.2 40.1 Q55.7 40.45 55.7 41.0 M49.0 34.45 L50.2 35.65 Q52.25 36.8 56.55 36.8 58.1 36.8 59.85 34.65 59.85 31.7 54.45 31.75 49.0 31.8 49.0 34.45 M31.05 29.9 Q31.2 30.45 34.0 31.55 37.5 32.1 41.1 32.15 L44.9 31.35 Q45.95 30.55 46.3 28.5 45.7 25.7 38.1 26.35 30.45 26.95 31.05 29.9 M21.7 12.05 Q21.7 12.5 22.15 13.2 L23.1 14.15 29.95 14.25 Q31.15 13.35 31.15 12.8 31.15 10.95 26.45 10.85 21.7 10.8 21.7 12.05" fill="#bef0d8" fill-opacity="0.7058824" fill-rule="evenodd" stroke="none"/>
      <path d="M21.7 12.05 Q21.7 10.8 26.45 10.85 31.15 10.95 31.15 12.8 31.15 13.35 29.95 14.25 L23.1 14.15 22.15 13.2 Q21.7 12.5 21.7 12.05 M31.05 29.9 Q30.45 26.95 38.1 26.35 45.7 25.7 46.3 28.5 45.95 30.55 44.9 31.35 L41.1 32.15 Q37.5 32.1 34.0 31.55 31.2 30.45 31.05 29.9 M49.0 34.45 Q49.0 31.8 54.45 31.75 59.85 31.7 59.85 34.65 58.1 36.8 56.55 36.8 52.25 36.8 50.2 35.65 L49.0 34.45 M55.7 41.0 Q55.7 40.45 56.2 40.1 L59.7 39.9 Q59.45 41.5 59.0 41.75 L55.95 41.75 Q55.8 41.4 55.7 41.0 M61.5 39.4 Q63.0 36.3 69.25 36.4 75.3 36.55 75.3 38.45 72.45 40.7 68.4 40.7 L62.05 40.3 61.5 39.4 M78.7 33.25 L78.85 32.7 Q80.15 32.3 81.6 32.1 85.05 32.2 85.8 32.85 86.25 33.2 86.3 33.9 L86.3 34.35 86.1 34.9 85.85 35.15 85.4 35.3 82.55 35.2 80.6 34.8 Q79.45 34.4 78.85 33.95 L78.6 33.35 78.6 33.25 M89.15 43.1 L89.65 42.3 Q91.2 40.95 93.25 40.65 98.15 40.55 99.35 41.3 100.05 41.75 100.2 42.55 L100.25 43.05 100.1 43.8 99.65 44.2 98.95 44.4 95.05 44.55 92.4 44.4 Q91.05 44.15 89.75 43.9 L89.25 43.05 M102.35 33.0 Q102.35 30.3 105.8 30.1 L110.0 30.5 111.5 31.7 Q111.1 32.2 108.9 33.25 L106.75 34.25 103.45 34.15 Q102.35 33.35 102.35 33.0 M126.65 22.05 Q128.95 21.75 129.95 22.1 L130.7 24.3 Q127.85 24.55 127.1 23.5 126.65 22.8 126.65 22.05 Z" fill="none" stroke="#000000" stroke-linecap="round" stroke-linejoin="round" stroke-opacity="0.0" stroke-width="1.0"/>
    </g>
    <g id="morphshape2" transform="matrix(1.0, 0.0, 0.0, 1.0, -37.6, -4.7)">
      <path d="M106.35 18.35 Q106.35 19.5 106.6 19.9 L107.4 20.45 Q110.25 19.7 111.2 19.2 111.9 18.7 110.85 15.65 108.45 15.85 107.4 16.5 106.35 17.1 106.35 18.35 M93.35 17.6 Q93.35 18.65 93.95 19.25 L97.0 19.45 Q97.45 18.45 97.2 16.35 L93.45 16.25 93.35 17.6 M92.1 9.55 Q92.1 10.6 92.5 11.5 L98.45 11.5 Q99.5 10.45 99.5 6.95 94.8 6.5 93.15 7.35 92.1 7.95 92.1 9.55 M83.8 17.3 Q83.85 18.25 84.6 20.1 85.25 20.55 86.8 20.7 L87.6 19.5 Q88.1 18.8 87.4 17.0 L83.8 17.3 M76.05 13.4 Q75.65 15.3 76.45 16.8 77.45 18.55 79.7 18.55 80.85 18.55 82.05 16.8 81.2 14.4 79.55 13.75 L76.05 13.4 M64.4 10.1 L64.45 11.55 64.8 12.1 70.25 12.85 73.55 13.25 Q75.3 13.25 74.2 10.8 74.2 7.75 69.3 7.6 64.4 7.5 64.4 10.1 M56.15 20.75 L56.25 21.9 56.55 22.3 Q57.0 22.4 57.5 22.4 58.55 22.45 59.75 22.5 L63.35 22.35 Q63.55 21.1 62.9 18.25 62.05 16.65 61.25 15.8 59.95 14.75 58.5 15.25 56.15 16.4 56.15 20.8 M51.8 10.7 L51.8 10.85 51.85 11.5 51.95 11.65 Q52.1 12.0 52.35 12.1 L53.8 12.4 Q55.25 11.85 55.85 11.75 56.1 10.55 56.1 9.05 55.65 8.0 55.25 7.15 54.35 6.9 53.45 7.0 51.8 7.95 51.8 10.6 M40.4 13.35 L41.5 15.45 Q43.2 17.6 46.2 17.6 50.1 17.6 50.1 14.4 50.1 11.4 45.25 10.6 40.4 9.75 40.4 13.35" fill="#bef0d8" fill-opacity="0.7058824" fill-rule="evenodd" stroke="none"/>
      <path d="M40.4 13.35 Q40.4 9.75 45.25 10.6 50.1 11.4 50.1 14.4 50.1 17.6 46.2 17.6 43.2 17.6 41.5 15.45 L40.4 13.35 M51.8 10.6 Q51.8 7.95 53.45 7.0 54.35 6.9 55.25 7.15 55.65 8.0 56.1 9.05 56.1 10.55 55.85 11.75 55.25 11.85 53.8 12.4 L52.35 12.1 Q52.1 12.0 51.95 11.65 L51.85 11.5 51.8 10.85 51.8 10.7 M56.15 20.8 Q56.15 16.4 58.5 15.25 59.95 14.75 61.25 15.8 62.05 16.65 62.9 18.25 63.55 21.1 63.35 22.35 L59.75 22.5 Q58.55 22.45 57.5 22.4 57.0 22.4 56.55 22.3 L56.25 21.9 56.15 20.75 M64.4 10.1 Q64.4 7.5 69.3 7.6 74.2 7.75 74.2 10.8 75.3 13.25 73.55 13.25 L70.25 12.85 64.8 12.1 64.45 11.55 64.4 10.1 M76.05 13.4 L79.55 13.75 Q81.2 14.4 82.05 16.8 80.85 18.55 79.7 18.55 77.45 18.55 76.45 16.8 75.65 15.3 76.05 13.4 M83.8 17.3 L87.4 17.0 Q88.1 18.8 87.6 19.5 L86.8 20.7 Q85.25 20.55 84.6 20.1 83.85 18.25 83.8 17.3 M92.1 9.55 Q92.1 7.95 93.15 7.35 94.8 6.5 99.5 6.95 99.5 10.45 98.45 11.5 L92.5 11.5 Q92.1 10.6 92.1 9.55 M93.35 17.6 L93.45 16.25 97.2 16.35 Q97.45 18.45 97.0 19.45 L93.95 19.25 Q93.35 18.65 93.35 17.6 M106.35 18.35 Q106.35 17.1 107.4 16.5 108.45 15.85 110.85 15.65 111.9 18.7 111.2 19.2 110.25 19.7 107.4 20.45 L106.6 19.9 Q106.35 19.5 106.35 18.35 Z" fill="none" stroke="#000000" stroke-linecap="round" stroke-linejoin="round" stroke-opacity="0.0" stroke-width="1.0"/>
    </g>
    <g id="morphshape3" transform="matrix(1.0, 0.0, 0.0, 1.0, -32.35, -6.65)">
      <path d="M95.5 8.25 Q95.5 9.4 95.65 9.8 L96.1 10.55 98.1 10.55 98.6 10.05 98.75 8.85 98.5 7.35 Q98.2 6.9 95.65 6.85 95.5 6.5 95.5 8.25 M68.65 9.9 Q68.4 10.25 68.95 11.15 69.25 11.6 70.1 11.9 L72.85 12.25 Q73.35 11.8 73.35 11.1 73.15 10.65 69.2 9.45 L68.65 9.9 M65.85 36.7 L66.15 38.65 Q66.35 39.7 66.8 40.55 L70.3 40.55 Q70.5 40.25 70.8 40.1 L70.4 37.0 66.85 36.45 Q66.05 36.4 65.85 36.7 M43.8 14.9 L44.0 16.25 44.35 16.75 45.9 16.8 Q46.95 16.8 47.55 16.35 47.75 16.2 47.75 14.45 47.75 13.3 47.4 12.75 L46.7 12.1 43.9 13.2 43.8 14.9 M36.55 29.2 L36.8 30.2 Q37.15 31.0 37.6 31.3 41.7 30.75 41.7 28.35 41.7 27.25 41.35 26.95 L40.5 26.6 38.75 26.85 36.9 27.0 36.55 29.2" fill="#ffffff" fill-opacity="0.7058824" fill-rule="evenodd" stroke="none"/>
      <path d="M36.55 29.2 L36.9 27.0 38.75 26.85 40.5 26.6 41.35 26.95 Q41.7 27.25 41.7 28.35 41.7 30.75 37.6 31.3 37.15 31.0 36.8 30.2 L36.55 29.2 M43.8 14.9 L43.9 13.2 46.7 12.1 47.4 12.75 Q47.75 13.3 47.75 14.45 47.75 16.2 47.55 16.35 46.95 16.8 45.9 16.8 L44.35 16.75 44.0 16.25 43.8 14.9 M65.85 36.7 Q66.05 36.4 66.85 36.45 L70.4 37.0 70.8 40.1 Q70.5 40.25 70.3 40.55 L66.8 40.55 Q66.35 39.7 66.15 38.65 L65.85 36.7 M68.65 9.9 L69.2 9.45 Q73.15 10.65 73.35 11.1 73.35 11.8 72.85 12.25 L70.1 11.9 Q69.25 11.6 68.95 11.15 68.4 10.25 68.65 9.9 M95.5 8.25 Q95.5 6.5 95.65 6.85 98.2 6.9 98.5 7.35 L98.75 8.85 98.6 10.05 98.1 10.55 96.1 10.55 95.65 9.8 Q95.5 9.4 95.5 8.25 Z" fill="none" stroke="#000000" stroke-linecap="round" stroke-linejoin="round" stroke-opacity="0.0" stroke-width="1.0"/>
    </g>
  </defs>
</svg>
