<?xml version="1.0" encoding="UTF-8" standalone="no"?>
<svg xmlns:xlink="http://www.w3.org/1999/xlink" height="47.45px" width="141.0px" xmlns="http://www.w3.org/2000/svg">
  <g transform="matrix(1.0, 0.0, 0.0, 1.0, -4.35, -2.9)">
    <use data-characterId="3192" height="47.45" transform="matrix(1.0, 0.0, 0.0, 1.0, 4.35, 2.9)" width="141.0" xlink:href="#morphshape0"/>
    <use data-characterId="3193" height="37.5" transform="matrix(1.0, 0.0, 0.0, 1.0, 17.5, 9.15)" width="116.05" xlink:href="#morphshape1"/>
    <use data-characterId="3194" height="21.8" transform="matrix(1.0, 0.0, 0.0, 1.0, 37.6, 4.7)" width="75.1" xlink:href="#morphshape2"/>
    <use data-characterId="3195" height="35.65" transform="matrix(1.0, 0.0, 0.0, 1.0, 32.35, 6.65)" width="66.65" xlink:href="#morphshape3"/>
  </g>
  <defs>
    <g id="morphshape0" transform="matrix(1.0, 0.0, 0.0, 1.0, -4.35, -2.9)">
      <path d="M4.7 17.7 Q4.4 19.25 11.75 20.5 19.1 21.65 27.75 22.2 38.05 22.95 26.2 24.35 14.1 25.1 22.05 26.75 30.3 28.15 24.7 28.9 19.05 29.5 15.35 31.0 11.8 32.8 15.65 33.3 19.3 33.75 21.0 34.15 23.45 34.55 25.65 35.05 L34.5 35.85 Q29.65 37.55 31.7 38.3 23.3 40.7 38.5 40.4 40.9 40.9 50.65 39.85 42.95 42.5 44.4 43.7 46.0 44.95 52.85 45.3 60.0 45.55 67.6 46.4 76.25 47.2 71.05 48.8 65.45 50.4 68.7 49.85 73.55 49.3 77.75 49.25 L91.4 48.65 Q99.05 48.25 102.05 47.3 106.6 46.55 106.45 44.9 105.5 43.85 108.1 41.4 111.25 40.35 105.0 38.35 121.95 37.25 122.65 35.5 124.85 34.2 120.35 33.9 121.7 33.15 119.7 32.7 126.5 31.3 126.05 30.4 125.95 29.6 122.45 28.8 119.3 28.1 117.0 27.55 114.7 27.0 125.45 25.55 136.25 24.1 139.35 22.4 142.4 20.65 134.4 19.5 128.05 18.35 123.95 18.4 L122.4 18.45 122.05 18.35 Q123.45 17.5 122.0 16.7 130.35 15.55 125.25 14.6 121.3 13.7 116.05 13.55 116.55 11.9 113.25 10.9 103.6 6.8 90.6 4.8 80.15 2.8 56.2 3.95 37.15 5.05 21.95 8.45 6.45 11.05 8.95 12.05 11.45 13.0 22.7 13.85 33.85 14.6 28.8 14.85 23.8 14.95 18.9 15.1 L10.6 15.6 4.85 16.25 Q4.5 16.85 4.8 17.45" fill="#96e0bc" fill-opacity="0.7058824" fill-rule="evenodd" stroke="none"/>
      <path d="M4.8 17.45 Q4.5 16.85 4.85 16.25 L10.6 15.6 18.9 15.1 Q23.8 14.95 28.8 14.85 33.85 14.6 22.7 13.85 11.45 13.0 8.95 12.05 6.45 11.05 21.95 8.45 37.15 5.05 56.2 3.95 80.15 2.8 90.6 4.8 103.6 6.8 113.25 10.9 116.55 11.9 116.05 13.55 121.3 13.7 125.25 14.6 130.35 15.55 122.0 16.7 123.45 17.5 122.05 18.35 L122.4 18.45 123.95 18.4 Q128.05 18.35 134.4 19.5 142.4 20.65 139.35 22.4 136.25 24.1 125.45 25.55 114.7 27.0 117.0 27.55 119.3 28.1 122.45 28.8 125.95 29.6 126.05 30.4 126.5 31.3 119.7 32.7 121.7 33.15 120.35 33.9 124.85 34.2 122.65 35.5 121.95 37.25 105.0 38.35 111.25 40.35 108.1 41.4 105.5 43.85 106.45 44.9 106.6 46.55 102.05 47.3 99.05 48.25 91.4 48.65 L77.75 49.25 Q73.55 49.3 68.7 49.85 65.45 50.4 71.05 48.8 76.25 47.2 67.6 46.4 60.0 45.55 52.85 45.3 46.0 44.95 44.4 43.7 42.95 42.5 50.65 39.85 40.9 40.9 38.5 40.4 23.3 40.7 31.7 38.3 29.65 37.55 34.5 35.85 L25.65 35.05 Q23.45 34.55 21.0 34.15 19.3 33.75 15.65 33.3 11.8 32.8 15.35 31.0 19.05 29.5 24.7 28.9 30.3 28.15 22.05 26.75 14.1 25.1 26.2 24.35 38.05 22.95 27.75 22.2 19.1 21.65 11.75 20.5 4.4 19.25 4.7 17.7" fill="none" stroke="#000000" stroke-linecap="round" stroke-linejoin="round" stroke-opacity="0.0" stroke-width="1.0"/>
    </g>
    <g id="morphshape1" transform="matrix(1.0, 0.0, 0.0, 1.0, -17.5, -9.15)">
      <path d="M124.1 22.35 Q124.1 23.1 124.55 23.8 125.3 24.85 128.15 24.6 L127.4 22.4 Q126.4 22.05 124.1 22.35 M101.75 32.05 Q101.75 32.4 102.85 33.2 L106.15 33.3 108.3 32.3 Q110.5 31.25 110.9 30.75 L109.4 29.55 105.2 29.15 Q101.75 29.35 101.75 32.05 M88.25 41.05 L88.25 41.1 88.65 41.85 Q89.75 42.15 91.05 42.45 L93.5 42.65 97.1 42.55 97.75 42.35 98.15 42.0 98.3 41.3 98.25 40.8 Q98.1 40.05 97.45 39.6 96.4 38.9 91.9 38.95 90.05 39.25 88.6 40.35 L88.2 41.05 M77.9 35.2 L78.25 35.9 Q79.05 36.3 80.25 36.65 L82.4 37.0 85.55 37.05 86.05 36.9 86.35 36.6 86.55 36.0 86.55 35.55 Q86.5 34.8 86.0 34.45 85.1 33.75 81.25 33.7 79.6 33.9 78.2 34.55 L77.95 35.2 M61.7 37.75 L62.25 38.65 68.6 39.05 Q72.65 39.05 75.5 36.8 75.5 34.9 69.45 34.75 63.2 34.65 61.7 37.75 M57.05 41.3 Q57.15 41.75 57.3 42.05 L60.35 42.05 Q60.8 41.8 61.05 40.2 L57.55 40.4 Q57.05 40.75 57.05 41.3 M49.0 35.0 L50.2 36.2 Q52.25 37.35 56.55 37.35 58.1 37.35 59.85 35.2 59.85 32.25 54.45 32.3 49.0 32.35 49.0 35.0 M30.05 29.6 Q30.2 30.15 32.95 31.35 36.4 32.2 40.0 32.25 L43.8 31.6 Q44.85 30.9 45.3 28.85 44.8 26.0 37.2 26.3 29.55 26.6 30.05 29.6 M20.8 13.6 Q20.8 14.05 21.25 14.75 L22.2 15.7 29.05 15.8 Q30.25 14.9 30.25 14.35 30.25 12.5 25.55 12.4 20.8 12.35 20.8 13.6" fill="#bef0d8" fill-opacity="0.7058824" fill-rule="evenodd" stroke="none"/>
      <path d="M20.8 13.6 Q20.8 12.35 25.55 12.4 30.25 12.5 30.25 14.35 30.25 14.9 29.05 15.8 L22.2 15.7 21.25 14.75 Q20.8 14.05 20.8 13.6 M30.05 29.6 Q29.55 26.6 37.2 26.3 44.8 26.0 45.3 28.85 44.85 30.9 43.8 31.6 L40.0 32.25 Q36.4 32.2 32.95 31.35 30.2 30.15 30.05 29.6 M49.0 35.0 Q49.0 32.35 54.45 32.3 59.85 32.25 59.85 35.2 58.1 37.35 56.55 37.35 52.25 37.35 50.2 36.2 L49.0 35.0 M57.05 41.3 Q57.05 40.75 57.55 40.4 L61.05 40.2 Q60.8 41.8 60.35 42.05 L57.3 42.05 Q57.15 41.75 57.05 41.3 M61.7 37.75 Q63.2 34.65 69.45 34.75 75.5 34.9 75.5 36.8 72.65 39.05 68.6 39.05 L62.25 38.65 61.7 37.75 M77.95 35.2 L78.2 34.55 Q79.6 33.9 81.25 33.7 85.1 33.75 86.0 34.45 86.5 34.8 86.55 35.55 L86.55 36.0 86.35 36.6 86.05 36.9 85.55 37.05 82.4 37.0 80.25 36.65 Q79.05 36.3 78.25 35.9 L77.9 35.2 M88.2 41.05 L88.6 40.35 Q90.05 39.25 91.9 38.95 96.4 38.9 97.45 39.6 98.1 40.05 98.25 40.8 L98.3 41.3 98.15 42.0 97.75 42.35 97.1 42.55 93.5 42.65 91.05 42.45 Q89.75 42.15 88.65 41.85 L88.25 41.1 88.25 41.05 M101.75 32.05 Q101.75 29.35 105.2 29.15 L109.4 29.55 110.9 30.75 Q110.5 31.25 108.3 32.3 L106.15 33.3 102.85 33.2 Q101.75 32.4 101.75 32.05 M124.1 22.35 Q126.4 22.05 127.4 22.4 L128.15 24.6 Q125.3 24.85 124.55 23.8 124.1 23.1 124.1 22.35 Z" fill="none" stroke="#000000" stroke-linecap="round" stroke-linejoin="round" stroke-opacity="0.0" stroke-width="1.0"/>
    </g>
    <g id="morphshape2" transform="matrix(1.0, 0.0, 0.0, 1.0, -37.6, -4.7)">
      <path d="M105.25 17.55 Q105.25 18.7 105.5 19.1 L106.3 19.65 Q108.95 18.9 110.1 18.4 110.8 17.9 109.75 14.85 107.35 15.05 106.3 15.7 105.25 16.3 105.25 17.55 M92.55 18.6 Q92.55 19.65 93.15 20.25 L96.2 20.45 Q96.65 19.45 96.4 17.35 L92.65 17.25 92.55 18.6 M91.2 10.05 Q91.2 11.1 91.6 12.0 L97.55 12.0 Q98.6 10.95 98.6 7.45 93.9 7.0 92.25 7.85 91.2 8.45 91.2 10.05 M82.9 18.55 Q82.95 19.5 83.7 21.35 84.35 21.8 85.9 21.95 L86.7 20.75 Q87.2 20.05 86.5 18.25 L82.9 18.55 M76.6 11.9 Q76.2 13.8 77.0 15.3 78.0 17.05 80.25 17.05 81.4 17.05 82.6 15.3 81.75 12.9 80.1 12.25 L76.6 11.9 M64.95 11.0 L65.0 12.45 65.35 13.0 70.8 13.75 74.1 14.15 Q75.85 14.15 74.75 11.7 74.75 8.65 69.85 8.5 64.95 8.4 64.95 11.0 M56.1 18.65 L56.1 18.7 56.2 19.7 56.45 20.0 Q56.8 20.15 57.2 20.2 58.1 20.25 59.25 20.3 L62.45 20.05 Q62.65 18.8 62.2 16.35 61.45 14.9 60.75 14.05 59.55 13.2 58.25 13.6 56.1 14.7 56.1 18.6 M51.0 13.25 L51.05 14.15 51.2 14.4 Q51.45 14.7 51.8 14.75 L53.45 15.0 Q55.0 14.6 55.9 14.55 56.15 13.35 55.95 11.45 55.4 10.25 54.9 9.4 53.9 8.95 52.85 9.15 51.0 10.15 51.0 13.3 M39.8 12.65 L40.9 14.75 Q42.6 16.9 45.6 16.9 49.5 16.9 49.5 13.7 49.5 10.7 44.65 9.9 39.8 9.05 39.8 12.65" fill="#bef0d8" fill-opacity="0.7058824" fill-rule="evenodd" stroke="none"/>
      <path d="M39.8 12.65 Q39.8 9.05 44.65 9.9 49.5 10.7 49.5 13.7 49.5 16.9 45.6 16.9 42.6 16.9 40.9 14.75 L39.8 12.65 M51.0 13.3 Q51.0 10.15 52.85 9.15 53.9 8.95 54.9 9.4 55.4 10.25 55.95 11.45 56.15 13.35 55.9 14.55 55.0 14.6 53.45 15.0 L51.8 14.75 Q51.45 14.7 51.2 14.4 L51.05 14.15 51.0 13.25 M56.1 18.6 Q56.1 14.7 58.25 13.6 59.55 13.2 60.75 14.05 61.45 14.9 62.2 16.35 62.65 18.8 62.45 20.05 L59.25 20.3 Q58.1 20.25 57.2 20.2 56.8 20.15 56.45 20.0 L56.2 19.7 56.1 18.7 56.1 18.65 M64.95 11.0 Q64.95 8.4 69.85 8.5 74.75 8.65 74.75 11.7 75.85 14.15 74.1 14.15 L70.8 13.75 65.35 13.0 65.0 12.45 64.95 11.0 M76.6 11.9 L80.1 12.25 Q81.75 12.9 82.6 15.3 81.4 17.05 80.25 17.05 78.0 17.05 77.0 15.3 76.2 13.8 76.6 11.9 M82.9 18.55 L86.5 18.25 Q87.2 20.05 86.7 20.75 L85.9 21.95 Q84.35 21.8 83.7 21.35 82.95 19.5 82.9 18.55 M91.2 10.05 Q91.2 8.45 92.25 7.85 93.9 7.0 98.6 7.45 98.6 10.95 97.55 12.0 L91.6 12.0 Q91.2 11.1 91.2 10.05 M92.55 18.6 L92.65 17.25 96.4 17.35 Q96.65 19.45 96.2 20.45 L93.15 20.25 Q92.55 19.65 92.55 18.6 M105.25 17.55 Q105.25 16.3 106.3 15.7 107.35 15.05 109.75 14.85 110.8 17.9 110.1 18.4 108.95 18.9 106.3 19.65 L105.5 19.1 Q105.25 18.7 105.25 17.55 Z" fill="none" stroke="#000000" stroke-linecap="round" stroke-linejoin="round" stroke-opacity="0.0" stroke-width="1.0"/>
    </g>
    <g id="morphshape3" transform="matrix(1.0, 0.0, 0.0, 1.0, -32.35, -6.65)">
      <path d="M93.65 9.15 Q93.65 10.3 93.8 10.7 L94.25 11.45 96.25 11.45 96.75 10.95 96.9 9.75 96.65 8.25 Q96.35 7.8 93.8 7.75 93.65 7.4 93.65 9.15 M68.8 10.95 Q68.6 11.35 69.3 12.1 69.7 12.4 70.5 12.6 71.85 12.65 73.2 12.45 73.6 11.95 73.45 11.25 72.5 11.1 69.2 10.45 L68.8 11.0 M65.95 34.7 L66.25 36.65 Q66.45 37.7 66.9 38.55 L70.4 38.55 Q70.6 38.25 70.9 38.1 L70.5 35.0 66.95 34.45 Q66.15 34.4 65.95 34.7 M43.0 14.5 L43.2 15.85 43.55 16.35 45.1 16.4 Q46.15 16.4 46.75 15.95 46.95 15.8 46.95 14.05 46.95 12.9 46.6 12.35 L45.9 11.7 43.1 12.8 43.0 14.5 M35.65 29.2 L35.9 30.2 Q36.25 31.0 36.7 31.3 40.8 30.75 40.8 28.35 40.8 27.25 40.45 26.95 L39.6 26.6 37.85 26.85 36.0 27.0 35.65 29.2" fill="#ffffff" fill-opacity="0.7058824" fill-rule="evenodd" stroke="none"/>
      <path d="M35.65 29.2 L36.0 27.0 37.85 26.85 39.6 26.6 40.45 26.95 Q40.8 27.25 40.8 28.35 40.8 30.75 36.7 31.3 36.25 31.0 35.9 30.2 L35.65 29.2 M43.0 14.5 L43.1 12.8 45.9 11.7 46.6 12.35 Q46.95 12.9 46.95 14.05 46.95 15.8 46.75 15.95 46.15 16.4 45.1 16.4 L43.55 16.35 43.2 15.85 43.0 14.5 M65.95 34.7 Q66.15 34.4 66.95 34.45 L70.5 35.0 70.9 38.1 Q70.6 38.25 70.4 38.55 L66.9 38.55 Q66.45 37.7 66.25 36.65 L65.95 34.7 M68.8 11.0 L69.2 10.45 Q72.5 11.1 73.45 11.25 73.6 11.95 73.2 12.45 71.85 12.65 70.5 12.6 69.7 12.4 69.3 12.1 68.6 11.35 68.8 10.95 M93.65 9.15 Q93.65 7.4 93.8 7.75 96.35 7.8 96.65 8.25 L96.9 9.75 96.75 10.95 96.25 11.45 94.25 11.45 93.8 10.7 Q93.65 10.3 93.65 9.15 Z" fill="none" stroke="#000000" stroke-linecap="round" stroke-linejoin="round" stroke-opacity="0.0" stroke-width="1.0"/>
    </g>
  </defs>
</svg>
