<?xml version="1.0" encoding="UTF-8" standalone="no"?>
<svg xmlns:xlink="http://www.w3.org/1999/xlink" height="47.45px" width="141.0px" xmlns="http://www.w3.org/2000/svg">
  <g transform="matrix(1.0, 0.0, 0.0, 1.0, -4.35, -2.9)">
    <use data-characterId="3192" height="47.45" transform="matrix(1.0, 0.0, 0.0, 1.0, 4.35, 2.9)" width="141.0" xlink:href="#morphshape0"/>
    <use data-characterId="3193" height="37.5" transform="matrix(1.0, 0.0, 0.0, 1.0, 17.5, 9.15)" width="116.05" xlink:href="#morphshape1"/>
    <use data-characterId="3194" height="21.8" transform="matrix(1.0, 0.0, 0.0, 1.0, 37.6, 4.7)" width="75.1" xlink:href="#morphshape2"/>
    <use data-characterId="3195" height="35.65" transform="matrix(1.0, 0.0, 0.0, 1.0, 32.35, 6.65)" width="66.65" xlink:href="#morphshape3"/>
  </g>
  <defs>
    <g id="morphshape0" transform="matrix(1.0, 0.0, 0.0, 1.0, -4.35, -2.9)">
      <path d="M4.75 16.85 Q4.15 18.4 12.85 19.8 21.6 21.15 31.95 21.75 43.15 22.4 27.65 23.5 12.05 24.25 22.8 26.0 33.75 27.65 26.65 28.3 19.5 28.9 14.6 30.6 9.8 32.4 14.3 32.85 18.75 33.25 20.35 33.75 22.3 34.25 24.45 34.55 L35.85 35.25 Q29.75 36.85 30.6 37.5 18.65 40.55 36.95 40.1 40.3 40.4 52.8 38.8 42.95 41.9 43.7 43.0 44.55 44.1 52.15 44.55 60.8 44.9 69.65 45.55 79.8 46.1 72.35 48.15 64.65 50.2 67.35 49.9 72.1 49.65 76.5 49.65 L91.95 49.2 Q100.85 48.8 103.8 47.7 107.5 46.7 106.25 45.45 104.6 44.5 107.75 41.75 110.1 40.6 101.65 38.35 122.35 37.75 124.55 35.85 127.5 34.25 121.8 33.85 120.65 33.35 117.85 33.0 126.4 31.5 126.55 30.65 126.85 29.8 122.8 28.9 118.95 28.1 114.2 27.75 109.45 27.4 122.85 26.15 136.3 24.9 141.1 23.05 145.85 21.2 137.25 19.75 129.45 18.3 124.55 18.35 L122.6 18.45 122.35 18.4 Q122.85 17.9 121.95 17.45 133.65 16.1 128.0 14.95 122.9 13.8 116.15 13.65 116.4 12.8 114.75 12.3 105.65 8.0 96.4 5.45 88.45 2.9 63.25 3.5 44.15 4.05 24.35 7.65 4.4 10.8 7.5 11.9 10.6 12.95 24.9 13.85 39.2 14.7 32.95 14.9 26.65 15.0 20.4 15.1 L12.25 15.45 4.9 16.3 Q4.7 16.6 4.85 16.9" fill="#96e0bc" fill-opacity="0.7058824" fill-rule="evenodd" stroke="none"/>
      <path d="M4.85 16.9 Q4.7 16.6 4.9 16.3 L12.25 15.45 20.4 15.1 Q26.65 15.0 32.95 14.9 39.2 14.7 24.9 13.85 10.6 12.95 7.5 11.9 4.4 10.8 24.35 7.65 44.15 4.05 63.25 3.5 88.45 2.9 96.4 5.45 105.65 8.0 114.75 12.3 116.4 12.8 116.15 13.65 122.9 13.8 128.0 14.95 133.65 16.1 121.95 17.45 122.85 17.9 122.35 18.4 L122.6 18.45 124.55 18.35 Q129.45 18.3 137.25 19.75 145.85 21.2 141.1 23.05 136.3 24.9 122.85 26.15 109.45 27.4 114.2 27.75 118.95 28.1 122.8 28.9 126.85 29.8 126.55 30.65 126.4 31.5 117.85 33.0 120.65 33.35 121.8 33.85 127.5 34.25 124.55 35.85 122.35 37.75 101.65 38.35 110.1 40.6 107.75 41.75 104.6 44.5 106.25 45.45 107.5 46.7 103.8 47.7 100.85 48.8 91.95 49.2 L76.5 49.65 Q72.1 49.65 67.35 49.9 64.65 50.2 72.35 48.15 79.8 46.1 69.65 45.55 60.8 44.9 52.15 44.55 44.55 44.1 43.7 43.0 42.95 41.9 52.8 38.8 40.3 40.4 36.95 40.1 18.65 40.55 30.6 37.5 29.75 36.85 35.85 35.25 L24.45 34.55 Q22.3 34.25 20.35 33.75 18.75 33.25 14.3 32.85 9.8 32.4 14.6 30.6 19.5 28.9 26.65 28.3 33.75 27.65 22.8 26.0 12.05 24.25 27.65 23.5 43.15 22.4 31.95 21.75 21.6 21.15 12.85 19.8 4.15 18.4 4.75 16.85" fill="none" stroke="#000000" stroke-linecap="round" stroke-linejoin="round" stroke-opacity="0.0" stroke-width="1.0"/>
    </g>
    <g id="morphshape1" transform="matrix(1.0, 0.0, 0.0, 1.0, -17.5, -9.15)">
      <path d="M126.8 22.0 Q126.8 22.75 127.25 23.45 128.0 24.5 130.85 24.25 L130.1 22.05 Q129.1 21.7 126.8 22.0 M102.4 33.05 Q102.4 33.4 103.5 34.2 L106.8 34.3 108.95 33.3 Q111.15 32.25 111.55 31.75 L110.05 30.55 105.85 30.15 Q102.4 30.35 102.4 33.05 M89.15 43.15 L89.15 43.15 89.65 44.0 Q90.95 44.25 92.35 44.5 L95.0 44.65 98.95 44.5 99.65 44.3 100.1 43.9 100.25 43.1 100.2 42.6 Q100.05 41.8 99.35 41.35 98.15 40.6 93.25 40.75 91.2 41.05 89.65 42.4 L89.15 43.2 M78.75 33.2 L79.0 33.85 Q79.6 34.3 80.7 34.7 L82.65 35.1 85.45 35.2 85.9 35.05 86.15 34.8 86.35 34.3 86.35 33.85 Q86.3 33.15 85.85 32.8 85.1 32.15 81.65 32.0 80.2 32.2 78.9 32.6 L78.75 33.15 M61.5 39.45 L62.05 40.35 68.4 40.75 Q72.45 40.75 75.3 38.5 75.3 36.6 69.25 36.45 63.0 36.35 61.5 39.45 M55.65 41.0 Q55.75 41.4 55.9 41.75 L58.95 41.75 Q59.4 41.5 59.65 39.9 L56.15 40.1 Q55.65 40.45 55.65 41.0 M49.0 34.45 L50.2 35.65 Q52.25 36.8 56.55 36.8 58.1 36.8 59.85 34.65 59.85 31.7 54.45 31.75 49.0 31.8 49.0 34.45 M31.0 29.9 Q31.15 30.45 33.95 31.55 37.5 32.05 41.1 32.1 L44.9 31.3 Q45.95 30.5 46.3 28.45 45.7 25.65 38.1 26.35 30.45 27.0 31.05 29.95 M21.7 11.95 Q21.7 12.4 22.15 13.1 L23.1 14.05 29.95 14.15 Q31.15 13.25 31.15 12.7 31.15 10.85 26.45 10.75 21.7 10.7 21.7 11.95" fill="#bef0d8" fill-opacity="0.7058824" fill-rule="evenodd" stroke="none"/>
      <path d="M21.7 11.95 Q21.7 10.7 26.45 10.75 31.15 10.85 31.15 12.7 31.15 13.25 29.95 14.15 L23.1 14.05 22.15 13.1 Q21.7 12.4 21.7 11.95 M31.05 29.95 Q30.45 27.0 38.1 26.35 45.7 25.65 46.3 28.45 45.95 30.5 44.9 31.3 L41.1 32.1 Q37.5 32.05 33.95 31.55 31.15 30.45 31.0 29.9 M49.0 34.45 Q49.0 31.8 54.45 31.75 59.85 31.7 59.85 34.65 58.1 36.8 56.55 36.8 52.25 36.8 50.2 35.65 L49.0 34.45 M55.65 41.0 Q55.65 40.45 56.15 40.1 L59.65 39.9 Q59.4 41.5 58.95 41.75 L55.9 41.75 Q55.75 41.4 55.65 41.0 M61.5 39.45 Q63.0 36.35 69.25 36.45 75.3 36.6 75.3 38.5 72.45 40.75 68.4 40.75 L62.05 40.35 61.5 39.45 M78.75 33.15 L78.9 32.6 Q80.2 32.2 81.65 32.0 85.1 32.15 85.85 32.8 86.3 33.15 86.35 33.85 L86.35 34.3 86.15 34.8 85.9 35.05 85.45 35.2 82.65 35.1 80.7 34.7 Q79.6 34.3 79.0 33.85 L78.75 33.2 M89.15 43.2 L89.65 42.4 Q91.2 41.05 93.25 40.75 98.15 40.6 99.35 41.35 100.05 41.8 100.2 42.6 L100.25 43.1 100.1 43.9 99.65 44.3 98.95 44.5 95.0 44.65 92.35 44.5 Q90.95 44.25 89.65 44.0 L89.15 43.15 89.15 43.15 M102.4 33.05 Q102.4 30.35 105.85 30.15 L110.05 30.55 111.55 31.75 Q111.15 32.25 108.95 33.3 L106.8 34.3 103.5 34.2 Q102.4 33.4 102.4 33.05 M126.8 22.0 Q129.1 21.7 130.1 22.05 L130.85 24.25 Q128.0 24.5 127.25 23.45 126.8 22.75 126.8 22.0 Z" fill="none" stroke="#000000" stroke-linecap="round" stroke-linejoin="round" stroke-opacity="0.0" stroke-width="1.0"/>
    </g>
    <g id="morphshape2" transform="matrix(1.0, 0.0, 0.0, 1.0, -37.6, -4.7)">
      <path d="M106.4 18.4 Q106.4 19.55 106.65 19.95 L107.45 20.5 Q110.35 19.75 111.25 19.25 111.95 18.75 110.9 15.7 108.5 15.9 107.45 16.55 106.4 17.15 106.4 18.4 M93.4 17.55 Q93.4 18.6 94.0 19.2 L97.05 19.4 Q97.5 18.4 97.25 16.3 L93.5 16.2 93.4 17.55 M92.15 9.5 Q92.15 10.55 92.55 11.45 L98.5 11.45 Q99.55 10.4 99.55 6.9 94.85 6.45 93.2 7.3 92.15 7.9 92.15 9.5 M83.8 17.25 Q83.85 18.2 84.6 20.05 85.25 20.5 86.8 20.65 L87.6 19.45 Q88.1 18.75 87.4 16.95 L83.8 17.25 M76.0 13.5 Q75.6 15.4 76.4 16.9 77.4 18.65 79.65 18.65 80.8 18.65 82.0 16.9 81.15 14.5 79.5 13.85 L76.0 13.5 M64.4 10.05 L64.45 11.5 64.8 12.05 70.25 12.8 73.55 13.2 Q75.3 13.2 74.2 10.75 74.2 7.7 69.3 7.55 64.4 7.45 64.4 10.05 M56.1 20.8 L56.1 20.85 56.2 21.95 56.55 22.35 Q57.0 22.45 57.5 22.45 58.55 22.5 59.75 22.55 L63.4 22.4 Q63.6 21.15 62.95 18.3 62.1 16.7 61.3 15.85 60.0 14.8 58.55 15.3 56.15 16.45 56.15 20.9 M51.85 10.6 L51.9 11.4 51.95 11.55 Q52.1 11.9 52.35 12.0 L53.8 12.35 Q55.25 11.8 55.85 11.7 56.1 10.5 56.1 9.0 55.65 7.95 55.25 7.1 54.35 6.85 53.45 6.95 51.85 7.9 51.85 10.5 M40.45 13.4 L41.55 15.5 Q43.25 17.65 46.25 17.65 50.15 17.65 50.15 14.45 50.15 11.45 45.3 10.65 40.45 9.8 40.45 13.4" fill="#bef0d8" fill-opacity="0.7058824" fill-rule="evenodd" stroke="none"/>
      <path d="M40.45 13.4 Q40.45 9.8 45.3 10.65 50.15 11.45 50.15 14.45 50.15 17.65 46.25 17.65 43.25 17.65 41.55 15.5 L40.45 13.4 M51.85 10.5 Q51.85 7.9 53.45 6.95 54.35 6.85 55.25 7.1 55.65 7.95 56.1 9.0 56.1 10.5 55.85 11.7 55.25 11.8 53.8 12.35 L52.35 12.0 Q52.1 11.9 51.95 11.55 L51.9 11.4 51.85 10.6 M56.15 20.9 Q56.15 16.45 58.55 15.3 60.0 14.8 61.3 15.85 62.1 16.7 62.95 18.3 63.6 21.15 63.4 22.4 L59.75 22.55 Q58.55 22.5 57.5 22.45 57.0 22.45 56.55 22.35 L56.2 21.95 56.1 20.85 56.1 20.8 M64.4 10.05 Q64.4 7.45 69.3 7.55 74.2 7.7 74.2 10.75 75.3 13.2 73.55 13.2 L70.25 12.8 64.8 12.05 64.45 11.5 64.4 10.05 M76.0 13.5 L79.5 13.85 Q81.15 14.5 82.0 16.9 80.8 18.65 79.65 18.65 77.4 18.65 76.4 16.9 75.6 15.4 76.0 13.5 M83.8 17.25 L87.4 16.95 Q88.1 18.75 87.6 19.45 L86.8 20.65 Q85.25 20.5 84.6 20.05 83.85 18.2 83.8 17.25 M92.15 9.5 Q92.15 7.9 93.2 7.3 94.85 6.45 99.55 6.9 99.55 10.4 98.5 11.45 L92.55 11.45 Q92.15 10.55 92.15 9.5 M93.4 17.55 L93.5 16.2 97.25 16.3 Q97.5 18.4 97.05 19.4 L94.0 19.2 Q93.4 18.6 93.4 17.55 M106.4 18.4 Q106.4 17.15 107.45 16.55 108.5 15.9 110.9 15.7 111.95 18.75 111.25 19.25 110.35 19.75 107.45 20.5 L106.65 19.95 Q106.4 19.55 106.4 18.4 Z" fill="none" stroke="#000000" stroke-linecap="round" stroke-linejoin="round" stroke-opacity="0.0" stroke-width="1.0"/>
    </g>
    <g id="morphshape3" transform="matrix(1.0, 0.0, 0.0, 1.0, -32.35, -6.65)">
      <path d="M94.7 8.6 Q94.7 9.75 94.85 10.15 L95.3 10.9 97.3 10.9 97.8 10.4 97.95 9.2 97.7 7.7 Q97.4 7.25 94.85 7.2 94.7 6.85 94.7 8.6 M68.65 10.0 Q68.45 10.35 69.05 11.2 69.4 11.6 70.25 11.85 71.6 12.0 72.95 11.95 73.4 11.45 73.35 10.75 72.8 10.45 69.15 9.5 L68.65 10.0 M65.85 36.55 L66.15 38.5 Q66.35 39.55 66.8 40.4 L70.3 40.4 Q70.5 40.1 70.8 39.95 L70.4 36.85 66.85 36.3 Q66.05 36.25 65.85 36.55 M43.85 14.9 L44.05 16.25 44.4 16.75 45.95 16.8 Q47.0 16.8 47.6 16.35 47.8 16.2 47.8 14.45 47.8 13.3 47.45 12.75 L46.75 12.1 43.95 13.2 43.85 14.9 M36.6 29.2 L36.85 30.2 Q37.2 31.0 37.65 31.3 41.75 30.75 41.75 28.35 41.75 27.25 41.4 26.95 L40.55 26.6 38.8 26.85 36.95 27.0 36.6 29.2" fill="#ffffff" fill-opacity="0.7058824" fill-rule="evenodd" stroke="none"/>
      <path d="M36.6 29.2 L36.95 27.0 38.8 26.85 40.55 26.6 41.4 26.95 Q41.75 27.25 41.75 28.35 41.75 30.75 37.65 31.3 37.2 31.0 36.85 30.2 L36.6 29.2 M43.85 14.9 L43.95 13.2 46.75 12.1 47.45 12.75 Q47.8 13.3 47.8 14.45 47.8 16.2 47.6 16.35 47.0 16.8 45.95 16.8 L44.4 16.75 44.05 16.25 43.85 14.9 M65.85 36.55 Q66.05 36.25 66.85 36.3 L70.4 36.85 70.8 39.95 Q70.5 40.1 70.3 40.4 L66.8 40.4 Q66.35 39.55 66.15 38.5 L65.85 36.55 M68.65 10.0 L69.15 9.5 Q72.8 10.45 73.35 10.75 73.4 11.45 72.95 11.95 71.6 12.0 70.25 11.85 69.4 11.6 69.05 11.2 68.45 10.35 68.65 10.0 M94.7 8.6 Q94.7 6.85 94.85 7.2 97.4 7.25 97.7 7.7 L97.95 9.2 97.8 10.4 97.3 10.9 95.3 10.9 94.85 10.15 Q94.7 9.75 94.7 8.6 Z" fill="none" stroke="#000000" stroke-linecap="round" stroke-linejoin="round" stroke-opacity="0.0" stroke-width="1.0"/>
    </g>
  </defs>
</svg>
