<?xml version="1.0" encoding="UTF-8" standalone="no"?>
<svg xmlns:xlink="http://www.w3.org/1999/xlink" height="47.45px" width="141.0px" xmlns="http://www.w3.org/2000/svg">
  <g transform="matrix(1.0, 0.0, 0.0, 1.0, -4.35, -2.9)">
    <use data-characterId="3188" height="47.45" transform="matrix(1.0, 0.0, 0.0, 1.0, 4.35, 2.9)" width="141.0" xlink:href="#morphshape0"/>
    <use data-characterId="3189" height="37.5" transform="matrix(1.0, 0.0, 0.0, 1.0, 17.5, 9.15)" width="116.05" xlink:href="#morphshape1"/>
    <use data-characterId="3190" height="21.8" transform="matrix(1.0, 0.0, 0.0, 1.0, 37.6, 4.7)" width="75.1" xlink:href="#morphshape2"/>
    <use data-characterId="3191" height="35.65" transform="matrix(1.0, 0.0, 0.0, 1.0, 32.35, 6.65)" width="66.65" xlink:href="#morphshape3"/>
  </g>
  <defs>
    <g id="morphshape0" transform="matrix(1.0, 0.0, 0.0, 1.0, -4.35, -2.9)">
      <path d="M4.9 16.85 Q4.25 18.45 13.25 19.9 22.25 21.3 32.95 21.9 44.35 22.55 28.15 23.6 11.85 24.4 23.2 26.15 34.65 27.85 27.2 28.5 19.75 29.1 14.65 30.8 9.6 32.6 14.25 33.05 18.85 33.45 20.45 33.95 22.3 34.45 24.45 34.75 L36.4 35.4 Q30.05 36.95 30.65 37.6 17.95 40.8 36.85 40.35 40.4 40.6 53.45 38.85 43.15 42.05 43.8 43.1 44.5 44.2 52.3 44.7 61.2 45.05 70.25 45.65 80.75 46.15 72.85 48.3 64.75 50.45 67.35 50.25 72.1 50.05 76.55 50.05 L92.35 49.6 Q101.45 49.2 104.35 48.05 107.9 46.95 106.45 45.8 104.65 44.85 107.9 42.05 110.05 40.9 101.15 38.6 122.55 38.05 125.0 36.15 128.05 34.45 122.1 34.05 120.45 33.6 117.5 33.25 126.35 31.7 126.65 30.85 127.05 30.0 122.9 29.1 118.9 28.25 113.65 27.9 108.45 27.55 122.4 26.35 136.35 25.15 141.45 23.3 146.55 21.45 137.8 19.9 129.7 18.35 124.6 18.4 L122.55 18.5 122.3 18.45 Q122.65 18.0 121.85 17.6 134.2 16.2 128.45 15.0 123.15 13.8 116.1 13.65 116.3 12.95 114.95 12.55 106.0 8.25 97.5 5.6 90.0 2.95 64.6 3.4 45.5 3.85 24.8 7.45 3.95 10.7 7.15 11.8 10.35 12.85 25.3 13.8 40.2 14.65 33.7 14.85 27.15 14.95 20.65 15.05 L12.55 15.35 4.9 16.25 Q4.75 16.5 4.85 16.75" fill="#96e0bc" fill-opacity="0.7058824" fill-rule="evenodd" stroke="none"/>
      <path d="M4.85 16.75 Q4.75 16.5 4.9 16.25 L12.55 15.35 20.65 15.05 Q27.15 14.95 33.7 14.85 40.2 14.65 25.3 13.8 10.35 12.85 7.15 11.8 3.95 10.7 24.8 7.45 45.5 3.85 64.6 3.4 90.0 2.95 97.5 5.6 106.0 8.25 114.95 12.55 116.3 12.95 116.1 13.65 123.15 13.8 128.45 15.0 134.2 16.2 121.85 17.6 122.65 18.0 122.3 18.45 L122.55 18.5 124.6 18.4 Q129.7 18.35 137.8 19.9 146.55 21.45 141.45 23.3 136.35 25.15 122.4 26.35 108.45 27.55 113.65 27.9 118.9 28.25 122.9 29.1 127.05 30.0 126.65 30.85 126.35 31.7 117.5 33.25 120.45 33.6 122.1 34.05 128.05 34.45 125.0 36.15 122.55 38.05 101.15 38.6 110.05 40.9 107.9 42.05 104.65 44.85 106.45 45.8 107.9 46.95 104.35 48.05 101.45 49.2 92.35 49.6 L76.55 50.05 Q72.1 50.05 67.35 50.25 64.75 50.45 72.85 48.3 80.75 46.15 70.25 45.65 61.2 45.05 52.3 44.7 44.5 44.2 43.8 43.1 43.15 42.05 53.45 38.85 40.4 40.6 36.85 40.35 17.95 40.8 30.65 37.6 30.05 36.95 36.4 35.4 L24.45 34.75 Q22.3 34.45 20.45 33.95 18.85 33.45 14.25 33.05 9.6 32.6 14.65 30.8 19.75 29.1 27.2 28.5 34.65 27.85 23.2 26.15 11.85 24.4 28.15 23.6 44.35 22.55 32.95 21.9 22.25 21.3 13.25 19.9 4.25 18.45 4.9 16.85" fill="none" stroke="#000000" stroke-linecap="round" stroke-linejoin="round" stroke-opacity="0.0" stroke-width="1.0"/>
    </g>
    <g id="morphshape1" transform="matrix(1.0, 0.0, 0.0, 1.0, -17.5, -9.15)">
      <path d="M127.35 21.95 Q127.35 22.7 127.8 23.4 128.55 24.45 131.4 24.2 L130.65 22.0 Q129.65 21.65 127.35 21.95 M102.55 33.25 Q102.55 33.6 103.65 34.4 L106.95 34.5 109.1 33.5 Q111.3 32.45 111.7 31.95 L110.2 30.75 106.0 30.35 Q102.55 30.55 102.55 33.25 M89.25 43.65 L89.75 44.5 Q91.1 44.75 92.5 45.0 L95.2 45.1 99.2 44.9 99.95 44.65 100.4 44.25 100.55 43.45 100.5 42.95 Q100.35 42.15 99.6 41.7 98.4 40.95 93.45 41.1 91.4 41.4 89.85 42.8 L89.35 43.6 M79.0 32.7 L79.0 32.8 79.25 33.35 Q79.8 33.8 80.9 34.2 L82.8 34.65 85.55 34.8 85.95 34.7 86.2 34.45 86.4 33.95 86.4 33.5 Q86.35 32.8 85.95 32.45 85.2 31.8 81.8 31.65 80.35 31.85 79.05 32.2 L78.9 32.75 M61.45 39.8 L62.0 40.7 68.35 41.1 Q72.4 41.1 75.25 38.85 75.25 36.95 69.2 36.8 62.95 36.7 61.45 39.8 M55.4 40.95 Q55.55 41.35 55.65 41.7 L58.7 41.7 Q59.15 41.45 59.4 39.85 L55.9 40.05 Q55.4 40.4 55.4 40.95 M49.0 34.3 L50.2 35.5 Q52.25 36.65 56.55 36.65 58.1 36.65 59.85 34.5 59.85 31.55 54.45 31.6 49.0 31.65 49.0 34.3 M31.3 30.05 Q31.45 30.6 34.25 31.65 37.8 32.1 41.4 32.15 L45.15 31.3 Q46.2 30.5 46.5 28.4 45.85 25.6 38.25 26.35 30.6 27.05 31.25 30.0 M21.9 11.65 Q21.9 12.1 22.35 12.8 L23.3 13.75 30.15 13.85 Q31.35 12.95 31.35 12.4 31.35 10.55 26.65 10.45 21.9 10.4 21.9 11.65" fill="#bef0d8" fill-opacity="0.7058824" fill-rule="evenodd" stroke="none"/>
      <path d="M21.9 11.65 Q21.9 10.4 26.65 10.45 31.35 10.55 31.35 12.4 31.35 12.95 30.15 13.85 L23.3 13.75 22.35 12.8 Q21.9 12.1 21.9 11.65 M31.25 30.0 Q30.6 27.05 38.25 26.35 45.85 25.6 46.5 28.4 46.2 30.5 45.15 31.3 L41.4 32.15 Q37.8 32.1 34.25 31.65 31.45 30.6 31.3 30.05 M49.0 34.3 Q49.0 31.65 54.45 31.6 59.85 31.55 59.85 34.5 58.1 36.65 56.55 36.65 52.25 36.65 50.2 35.5 L49.0 34.3 M55.4 40.95 Q55.4 40.4 55.9 40.05 L59.4 39.85 Q59.15 41.45 58.7 41.7 L55.65 41.7 Q55.55 41.35 55.4 40.95 M61.45 39.8 Q62.95 36.7 69.2 36.8 75.25 36.95 75.25 38.85 72.4 41.1 68.35 41.1 L62.0 40.7 61.45 39.8 M78.9 32.75 L79.05 32.2 Q80.35 31.85 81.8 31.65 85.2 31.8 85.95 32.45 86.35 32.8 86.4 33.5 L86.4 33.95 86.2 34.45 85.95 34.7 85.55 34.8 82.8 34.65 80.9 34.2 Q79.8 33.8 79.25 33.35 L79.0 32.8 79.0 32.7 M89.35 43.6 L89.85 42.8 Q91.4 41.4 93.45 41.1 98.4 40.95 99.6 41.7 100.35 42.15 100.5 42.95 L100.55 43.45 100.4 44.25 99.95 44.65 99.2 44.9 95.2 45.1 92.5 45.0 Q91.1 44.75 89.75 44.5 L89.25 43.65 M102.55 33.25 Q102.55 30.55 106.0 30.35 L110.2 30.75 111.7 31.95 Q111.3 32.45 109.1 33.5 L106.95 34.5 103.65 34.4 Q102.55 33.6 102.55 33.25 M127.35 21.95 Q129.65 21.65 130.65 22.0 L131.4 24.2 Q128.55 24.45 127.8 23.4 127.35 22.7 127.35 21.95 Z" fill="none" stroke="#000000" stroke-linecap="round" stroke-linejoin="round" stroke-opacity="0.0" stroke-width="1.0"/>
    </g>
    <g id="morphshape2" transform="matrix(1.0, 0.0, 0.0, 1.0, -37.6, -4.7)">
      <path d="M106.65 18.55 Q106.65 19.7 106.9 20.1 L107.7 20.65 Q110.65 19.85 111.5 19.4 112.2 18.9 111.15 15.85 108.75 16.05 107.7 16.7 106.65 17.3 106.65 18.55 M93.55 17.35 Q93.55 18.4 94.15 19.0 L97.2 19.2 Q97.65 18.2 97.4 16.1 L93.65 16.0 93.55 17.35 M92.35 9.4 Q92.35 10.45 92.75 11.35 L98.7 11.35 Q99.75 10.3 99.75 6.8 95.05 6.35 93.4 7.2 92.35 7.8 92.35 9.4 M84.0 17.0 Q84.05 17.95 84.8 19.8 85.45 20.25 87.0 20.4 L87.8 19.2 Q88.3 18.5 87.6 16.7 L84.0 17.0 M75.9 13.8 Q75.5 15.7 76.3 17.2 77.3 18.95 79.55 18.95 80.7 18.95 81.9 17.2 81.05 14.8 79.4 14.15 L75.9 13.8 M64.3 9.85 L64.35 11.3 64.7 11.85 70.15 12.6 73.45 13.0 Q75.2 13.0 74.1 10.55 74.1 7.5 69.2 7.35 64.3 7.25 64.3 9.85 M56.15 21.4 L56.25 22.55 56.6 22.95 Q57.1 23.0 57.6 23.0 58.7 23.05 59.9 23.1 L63.65 23.0 Q63.85 21.7 63.15 18.75 62.25 17.1 61.4 16.25 60.1 15.15 58.6 15.65 56.15 16.8 56.15 21.35 M52.0 9.9 L52.0 10.05 52.05 10.65 52.1 10.8 Q52.2 11.2 52.45 11.3 L53.85 11.65 Q55.25 11.1 55.75 11.0 56.0 9.85 56.05 8.45 55.65 7.45 55.3 6.6 54.4 6.4 53.55 6.5 52.0 7.45 52.0 9.95 M40.55 13.55 L41.65 15.65 Q43.35 17.8 46.35 17.8 50.25 17.8 50.25 14.6 50.25 11.6 45.4 10.8 40.55 9.95 40.55 13.55" fill="#bef0d8" fill-opacity="0.7058824" fill-rule="evenodd" stroke="none"/>
      <path d="M40.55 13.55 Q40.55 9.95 45.4 10.8 50.25 11.6 50.25 14.6 50.25 17.8 46.35 17.8 43.35 17.8 41.65 15.65 L40.55 13.55 M52.0 9.95 Q52.0 7.45 53.55 6.5 54.4 6.4 55.3 6.6 55.65 7.45 56.05 8.45 56.0 9.85 55.75 11.0 55.25 11.1 53.85 11.65 L52.45 11.3 Q52.2 11.2 52.1 10.8 L52.05 10.65 52.0 10.05 52.0 9.9 M56.15 21.35 Q56.15 16.8 58.6 15.65 60.1 15.15 61.4 16.25 62.25 17.1 63.15 18.75 63.85 21.7 63.65 23.0 L59.9 23.1 Q58.7 23.05 57.6 23.0 57.1 23.0 56.6 22.95 L56.25 22.55 56.15 21.4 M64.3 9.85 Q64.3 7.25 69.2 7.35 74.1 7.5 74.1 10.55 75.2 13.0 73.45 13.0 L70.15 12.6 64.7 11.85 64.35 11.3 64.3 9.85 M75.9 13.8 L79.4 14.15 Q81.05 14.8 81.9 17.2 80.7 18.95 79.55 18.95 77.3 18.95 76.3 17.2 75.5 15.7 75.9 13.8 M84.0 17.0 L87.6 16.7 Q88.3 18.5 87.8 19.2 L87.0 20.4 Q85.45 20.25 84.8 19.8 84.05 17.95 84.0 17.0 M92.35 9.4 Q92.35 7.8 93.4 7.2 95.05 6.35 99.75 6.8 99.75 10.3 98.7 11.35 L92.75 11.35 Q92.35 10.45 92.35 9.4 M93.55 17.35 L93.65 16.0 97.4 16.1 Q97.65 18.2 97.2 19.2 L94.15 19.0 Q93.55 18.4 93.55 17.35 M106.65 18.55 Q106.65 17.3 107.7 16.7 108.75 16.05 111.15 15.85 112.2 18.9 111.5 19.4 110.65 19.85 107.7 20.65 L106.9 20.1 Q106.65 19.7 106.65 18.55 Z" fill="none" stroke="#000000" stroke-linecap="round" stroke-linejoin="round" stroke-opacity="0.0" stroke-width="1.0"/>
    </g>
    <g id="morphshape3" transform="matrix(1.0, 0.0, 0.0, 1.0, -32.35, -6.65)">
      <path d="M95.55 8.2 Q95.55 9.35 95.7 9.75 L96.15 10.5 98.15 10.5 98.65 10.0 98.8 8.8 98.55 7.3 Q98.25 6.85 95.7 6.8 95.55 6.45 95.55 8.2 M68.6 9.7 Q68.35 10.05 68.9 10.95 69.2 11.4 70.05 11.7 L72.8 12.05 Q73.3 11.6 73.3 10.9 73.1 10.45 69.15 9.25 L68.6 9.7 M65.85 37.1 L66.15 39.05 Q66.35 40.1 66.8 40.95 L70.3 40.95 Q70.5 40.65 70.8 40.5 L70.4 37.4 66.85 36.85 Q66.05 36.8 65.85 37.1 M44.0 15.0 L44.2 16.35 44.55 16.85 46.1 16.9 Q47.15 16.9 47.75 16.45 47.95 16.3 47.95 14.55 47.95 13.4 47.6 12.85 L46.9 12.2 44.1 13.3 44.0 15.0 M36.8 29.2 L37.05 30.2 Q37.4 31.0 37.85 31.3 41.95 30.75 41.95 28.35 41.95 27.25 41.6 26.95 L40.75 26.6 39.0 26.85 37.15 27.0 36.8 29.2" fill="#ffffff" fill-opacity="0.7058824" fill-rule="evenodd" stroke="none"/>
      <path d="M36.8 29.2 L37.15 27.0 39.0 26.85 40.75 26.6 41.6 26.95 Q41.95 27.25 41.95 28.35 41.95 30.75 37.85 31.3 37.4 31.0 37.05 30.2 L36.8 29.2 M44.0 15.0 L44.1 13.3 46.9 12.2 47.6 12.85 Q47.95 13.4 47.95 14.55 47.95 16.3 47.75 16.45 47.15 16.9 46.1 16.9 L44.55 16.85 44.2 16.35 44.0 15.0 M65.85 37.1 Q66.05 36.8 66.85 36.85 L70.4 37.4 70.8 40.5 Q70.5 40.65 70.3 40.95 L66.8 40.95 Q66.35 40.1 66.15 39.05 L65.85 37.1 M68.6 9.7 L69.15 9.25 Q73.1 10.45 73.3 10.9 73.3 11.6 72.8 12.05 L70.05 11.7 Q69.2 11.4 68.9 10.95 68.35 10.05 68.6 9.7 M95.55 8.2 Q95.55 6.45 95.7 6.8 98.25 6.85 98.55 7.3 L98.8 8.8 98.65 10.0 98.15 10.5 96.15 10.5 95.7 9.75 Q95.55 9.35 95.55 8.2 Z" fill="none" stroke="#000000" stroke-linecap="round" stroke-linejoin="round" stroke-opacity="0.0" stroke-width="1.0"/>
    </g>
  </defs>
</svg>
