<?xml version="1.0" encoding="UTF-8" standalone="no"?>
<svg xmlns:xlink="http://www.w3.org/1999/xlink" height="47.45px" width="141.0px" xmlns="http://www.w3.org/2000/svg">
  <g transform="matrix(1.0, 0.0, 0.0, 1.0, -4.35, -2.9)">
    <use data-characterId="3192" height="47.45" transform="matrix(1.0, 0.0, 0.0, 1.0, 4.35, 2.9)" width="141.0" xlink:href="#morphshape0"/>
    <use data-characterId="3193" height="37.5" transform="matrix(1.0, 0.0, 0.0, 1.0, 17.5, 9.15)" width="116.05" xlink:href="#morphshape1"/>
    <use data-characterId="3194" height="21.8" transform="matrix(1.0, 0.0, 0.0, 1.0, 37.6, 4.7)" width="75.1" xlink:href="#morphshape2"/>
    <use data-characterId="3195" height="35.65" transform="matrix(1.0, 0.0, 0.0, 1.0, 32.35, 6.65)" width="66.65" xlink:href="#morphshape3"/>
  </g>
  <defs>
    <g id="morphshape0" transform="matrix(1.0, 0.0, 0.0, 1.0, -4.35, -2.9)">
      <path d="M4.8 18.4 Q4.9 19.9 10.3 20.95 15.75 21.8 22.0 22.3 31.05 23.1 24.25 24.95 17.05 25.65 21.05 27.15 25.55 28.25 22.1 29.1 18.6 29.75 16.5 31.0 14.65 32.8 17.55 33.4 20.15 33.85 22.0 34.15 25.15 34.5 27.4 35.25 L32.65 36.25 Q29.5 38.15 33.25 39.0 29.85 40.5 40.7 40.35 41.75 41.15 47.65 40.9 43.0 42.9 45.35 44.2 47.95 45.6 53.7 45.85 58.8 46.0 64.7 47.2 71.2 48.35 69.2 49.3 66.55 50.25 70.5 49.3 75.5 48.3 79.45 48.2 L90.6 47.45 Q96.55 47.05 99.7 46.3 105.45 45.95 106.8 43.8 106.8 42.7 108.65 40.6 113.0 39.7 109.8 38.1 121.55 36.35 120.2 34.75 121.4 33.95 118.55 33.7 123.45 32.6 122.55 32.0 126.95 30.8 125.6 29.9 124.9 29.2 122.15 28.5 120.05 28.0 121.15 27.25 122.25 26.5 129.3 24.7 136.35 22.9 137.1 21.35 137.75 19.75 130.65 19.1 126.35 18.45 123.45 18.5 L122.45 18.55 121.95 18.35 Q124.55 17.0 122.35 15.75 126.05 14.95 121.65 14.3 119.25 13.75 116.05 13.65 116.9 10.9 111.3 9.25 100.85 5.4 82.55 4.2 68.65 3.0 46.4 5.0 27.4 6.85 18.65 10.0 9.45 11.8 11.1 12.65 12.75 13.45 19.65 14.15 26.45 14.75 23.15 15.0 19.95 15.05 16.9 15.2 L8.35 15.9 4.85 16.3 Q4.3 17.3 4.8 18.3" fill="#96e0bc" fill-opacity="0.7058824" fill-rule="evenodd" stroke="none"/>
      <path d="M4.8 18.3 Q4.3 17.3 4.85 16.3 L8.35 15.9 16.9 15.2 Q19.95 15.05 23.15 15.0 26.45 14.75 19.65 14.15 12.75 13.45 11.1 12.65 9.45 11.8 18.65 10.0 27.4 6.85 46.4 5.0 68.65 3.0 82.55 4.2 100.85 5.4 111.3 9.25 116.9 10.9 116.05 13.65 119.25 13.75 121.65 14.3 126.05 14.95 122.35 15.75 124.55 17.0 121.95 18.35 L122.45 18.55 123.45 18.5 Q126.35 18.45 130.65 19.1 137.75 19.75 137.1 21.35 136.35 22.9 129.3 24.7 122.25 26.5 121.15 27.25 120.05 28.0 122.15 28.5 124.9 29.2 125.6 29.9 126.95 30.8 122.55 32.0 123.45 32.6 118.55 33.7 121.4 33.95 120.2 34.75 121.55 36.35 109.8 38.1 113.0 39.7 108.65 40.6 106.8 42.7 106.8 43.8 105.45 45.95 99.7 46.3 96.55 47.05 90.6 47.45 L79.45 48.2 Q75.5 48.3 70.5 49.3 66.55 50.25 69.2 49.3 71.2 48.35 64.7 47.2 58.8 46.0 53.7 45.85 47.95 45.6 45.35 44.2 43.0 42.9 47.65 40.9 41.75 41.15 40.7 40.35 29.85 40.5 33.25 39.0 29.5 38.15 32.65 36.25 L27.4 35.25 Q25.15 34.5 22.0 34.15 20.15 33.85 17.55 33.4 14.65 32.8 16.5 31.0 18.6 29.75 22.1 29.1 25.55 28.25 21.05 27.15 17.05 25.65 24.25 24.95 31.05 23.1 22.0 22.3 15.75 21.8 10.3 20.95 4.9 19.9 4.8 18.4" fill="none" stroke="#000000" stroke-linecap="round" stroke-linejoin="round" stroke-opacity="0.0" stroke-width="1.0"/>
    </g>
    <g id="morphshape1" transform="matrix(1.0, 0.0, 0.0, 1.0, -17.5, -9.15)">
      <path d="M120.3 22.9 Q120.3 23.65 120.75 24.35 121.5 25.4 124.35 25.15 L123.6 22.95 Q122.6 22.6 120.3 22.9 M100.85 30.65 Q100.85 31.0 101.95 31.8 L105.25 31.9 107.4 30.9 Q109.6 29.85 110.0 29.35 L108.5 28.15 104.3 27.75 Q100.85 27.95 100.85 30.65 M86.9 38.05 L86.9 38.1 87.25 38.75 Q88.05 39.15 89.25 39.5 L91.4 39.85 94.55 39.9 95.05 39.75 95.35 39.45 95.55 38.85 95.55 38.4 Q95.45 37.65 94.95 37.25 94.05 36.55 90.15 36.5 88.5 36.75 87.1 37.45 L86.85 38.1 M76.75 38.1 L77.15 38.9 Q78.25 39.2 79.55 39.5 L82.0 39.7 85.6 39.6 86.25 39.4 86.65 39.05 86.8 38.35 86.75 37.85 Q86.65 37.1 86.0 36.7 84.95 36.0 80.5 36.05 78.65 36.3 77.2 37.35 L76.8 38.05 M62.05 35.35 L62.6 36.25 68.95 36.65 Q73.0 36.65 75.85 34.4 75.85 32.5 69.8 32.35 63.55 32.25 62.05 35.35 M58.95 41.7 Q59.0 42.15 59.2 42.45 L62.25 42.45 Q62.7 42.2 62.95 40.6 L59.45 40.8 Q58.95 41.15 58.95 41.7 M49.0 35.8 L50.2 37.0 Q52.25 38.15 56.55 38.15 58.1 38.15 59.85 36.0 59.85 33.05 54.45 33.1 49.0 33.15 49.0 35.8 M28.6 29.0 Q28.7 29.6 31.35 31.0 34.7 32.4 38.35 32.4 L42.2 32.0 Q43.3 31.35 43.85 29.35 43.55 26.5 35.95 26.3 28.3 26.05 28.6 29.05 M19.5 15.85 Q19.5 16.3 19.95 17.0 L20.9 17.95 27.75 18.05 Q28.95 17.15 28.95 16.6 28.95 14.75 24.25 14.65 19.5 14.6 19.5 15.85" fill="#bef0d8" fill-opacity="0.7058824" fill-rule="evenodd" stroke="none"/>
      <path d="M19.5 15.85 Q19.5 14.6 24.25 14.65 28.95 14.75 28.95 16.6 28.95 17.15 27.75 18.05 L20.9 17.95 19.95 17.0 Q19.5 16.3 19.5 15.85 M28.6 29.05 Q28.3 26.05 35.95 26.3 43.55 26.5 43.85 29.35 43.3 31.35 42.2 32.0 L38.35 32.4 Q34.7 32.4 31.35 31.0 28.7 29.6 28.6 29.0 M49.0 35.8 Q49.0 33.15 54.45 33.1 59.85 33.05 59.85 36.0 58.1 38.15 56.55 38.15 52.25 38.15 50.2 37.0 L49.0 35.8 M58.95 41.7 Q58.95 41.15 59.45 40.8 L62.95 40.6 Q62.7 42.2 62.25 42.45 L59.2 42.45 Q59.0 42.15 58.95 41.7 M62.05 35.35 Q63.55 32.25 69.8 32.35 75.85 32.5 75.85 34.4 73.0 36.65 68.95 36.65 L62.6 36.25 62.05 35.35 M76.8 38.05 L77.2 37.35 Q78.65 36.3 80.5 36.05 84.95 36.0 86.0 36.7 86.65 37.1 86.75 37.85 L86.8 38.35 86.65 39.05 86.25 39.4 85.6 39.6 82.0 39.7 79.55 39.5 Q78.25 39.2 77.15 38.9 L76.75 38.1 M86.85 38.1 L87.1 37.45 Q88.5 36.75 90.15 36.5 94.05 36.55 94.95 37.25 95.45 37.65 95.55 38.4 L95.55 38.85 95.35 39.45 95.05 39.75 94.55 39.9 91.4 39.85 89.25 39.5 Q88.05 39.15 87.25 38.75 L86.9 38.1 86.9 38.05 M100.85 30.65 Q100.85 27.95 104.3 27.75 L108.5 28.15 110.0 29.35 Q109.6 29.85 107.4 30.9 L105.25 31.9 101.95 31.8 Q100.85 31.0 100.85 30.65 M120.3 22.9 Q122.6 22.6 123.6 22.95 L124.35 25.15 Q121.5 25.4 120.75 24.35 120.3 23.65 120.3 22.9 Z" fill="none" stroke="#000000" stroke-linecap="round" stroke-linejoin="round" stroke-opacity="0.0" stroke-width="1.0"/>
    </g>
    <g id="morphshape2" transform="matrix(1.0, 0.0, 0.0, 1.0, -37.6, -4.7)">
      <path d="M103.65 16.35 Q103.65 17.5 103.9 17.9 L104.7 18.45 Q107.05 17.75 108.5 17.2 109.2 16.7 108.15 13.65 105.75 13.85 104.7 14.5 103.65 15.1 103.65 16.35 M91.35 20.05 Q91.35 21.1 91.95 21.7 L95.0 21.9 Q95.45 20.9 95.2 18.8 L91.45 18.7 91.35 20.05 M89.85 10.85 Q89.85 11.9 90.25 12.8 L96.2 12.8 Q97.25 11.75 97.25 8.25 92.55 7.8 90.9 8.65 89.85 9.25 89.85 10.85 M81.6 20.35 Q81.65 21.3 82.4 23.15 83.05 23.6 84.6 23.75 L85.4 22.55 Q85.9 21.85 85.2 20.05 L81.6 20.35 M77.45 9.65 Q77.05 11.55 77.85 13.05 78.85 14.8 81.1 14.8 82.25 14.8 83.45 13.05 82.6 10.65 80.95 10.0 L77.45 9.65 M65.7 12.35 L65.75 13.8 66.1 14.35 71.55 15.1 74.85 15.5 Q76.6 15.5 75.5 13.05 75.5 10.0 70.6 9.85 65.7 9.75 65.7 12.35 M55.95 15.45 L55.95 15.55 56.0 16.35 56.15 16.6 Q56.4 16.9 56.75 16.95 57.4 17.05 58.45 17.15 L61.0 16.7 Q61.25 15.5 61.05 13.55 60.5 12.3 60.0 11.45 58.95 10.95 57.85 11.2 56.0 12.2 56.0 15.4 M49.85 17.2 L49.95 18.25 50.2 18.55 Q50.55 18.7 50.95 18.75 L52.95 18.9 Q54.7 18.65 56.05 18.6 56.25 17.35 55.8 14.95 55.05 13.55 54.35 12.7 53.2 11.9 51.95 12.25 49.8 13.35 49.8 17.2 M38.95 11.65 L40.05 13.75 Q41.75 15.9 44.75 15.9 48.65 15.9 48.65 12.7 48.65 9.7 43.8 8.9 38.95 8.05 38.95 11.65" fill="#bef0d8" fill-opacity="0.7058824" fill-rule="evenodd" stroke="none"/>
      <path d="M38.95 11.65 Q38.95 8.05 43.8 8.9 48.65 9.7 48.65 12.7 48.65 15.9 44.75 15.9 41.75 15.9 40.05 13.75 L38.95 11.65 M49.8 17.2 Q49.8 13.35 51.95 12.25 53.2 11.9 54.35 12.7 55.05 13.55 55.8 14.95 56.25 17.35 56.05 18.6 54.7 18.65 52.95 18.9 L50.95 18.75 Q50.55 18.7 50.2 18.55 L49.95 18.25 49.85 17.2 M56.0 15.4 Q56.0 12.2 57.85 11.2 58.95 10.95 60.0 11.45 60.5 12.3 61.05 13.55 61.25 15.5 61.0 16.7 L58.45 17.15 Q57.4 17.05 56.75 16.95 56.4 16.9 56.15 16.6 L56.0 16.35 55.95 15.55 55.95 15.45 M65.7 12.35 Q65.7 9.75 70.6 9.85 75.5 10.0 75.5 13.05 76.6 15.5 74.85 15.5 L71.55 15.1 66.1 14.35 65.75 13.8 65.7 12.35 M77.45 9.65 L80.95 10.0 Q82.6 10.65 83.45 13.05 82.25 14.8 81.1 14.8 78.85 14.8 77.85 13.05 77.05 11.55 77.45 9.65 M81.6 20.35 L85.2 20.05 Q85.9 21.85 85.4 22.55 L84.6 23.75 Q83.05 23.6 82.4 23.15 81.65 21.3 81.6 20.35 M89.85 10.85 Q89.85 9.25 90.9 8.65 92.55 7.8 97.25 8.25 97.25 11.75 96.2 12.8 L90.25 12.8 Q89.85 11.9 89.85 10.85 M91.35 20.05 L91.45 18.7 95.2 18.8 Q95.45 20.9 95.0 21.9 L91.95 21.7 Q91.35 21.1 91.35 20.05 M103.65 16.35 Q103.65 15.1 104.7 14.5 105.75 13.85 108.15 13.65 109.2 16.7 108.5 17.2 107.05 17.75 104.7 18.45 L103.9 17.9 Q103.65 17.5 103.65 16.35 Z" fill="none" stroke="#000000" stroke-linecap="round" stroke-linejoin="round" stroke-opacity="0.0" stroke-width="1.0"/>
    </g>
    <g id="morphshape3" transform="matrix(1.0, 0.0, 0.0, 1.0, -32.35, -6.65)">
      <path d="M92.2 9.85 Q92.2 11.0 92.35 11.4 L92.8 12.15 94.8 12.15 95.3 11.65 95.45 10.45 95.2 8.95 Q94.9 8.5 92.35 8.45 92.2 8.1 92.2 9.85 M69.0 12.4 Q68.85 12.8 69.6 13.45 70.15 13.65 70.9 13.75 72.2 13.7 73.55 13.25 73.9 12.7 73.7 12.05 72.25 12.1 69.4 11.8 L69.05 12.4 M66.1 32.05 L66.4 34.0 Q66.6 35.05 67.05 35.9 L70.55 35.9 Q70.8 35.65 71.05 35.45 L70.65 32.35 67.1 31.8 Q66.3 31.75 66.1 32.05 M41.9 13.9 L42.1 15.25 42.45 15.75 44.0 15.8 Q45.05 15.8 45.65 15.35 45.85 15.2 45.85 13.45 45.85 12.3 45.5 11.75 L44.8 11.1 42.0 12.2 41.9 13.9 M34.35 29.2 L34.6 30.2 Q34.95 31.0 35.4 31.3 39.5 30.75 39.5 28.35 39.5 27.25 39.15 26.95 L38.3 26.6 36.55 26.85 34.7 27.0 34.35 29.2" fill="#ffffff" fill-opacity="0.7058824" fill-rule="evenodd" stroke="none"/>
      <path d="M34.35 29.2 L34.7 27.0 36.55 26.85 38.3 26.6 39.15 26.95 Q39.5 27.25 39.5 28.35 39.5 30.75 35.4 31.3 34.95 31.0 34.6 30.2 L34.35 29.2 M41.9 13.9 L42.0 12.2 44.8 11.1 45.5 11.75 Q45.85 12.3 45.85 13.45 45.85 15.2 45.65 15.35 45.05 15.8 44.0 15.8 L42.45 15.75 42.1 15.25 41.9 13.9 M66.1 32.05 Q66.3 31.75 67.1 31.8 L70.65 32.35 71.05 35.45 Q70.8 35.65 70.55 35.9 L67.05 35.9 Q66.6 35.05 66.4 34.0 L66.1 32.05 M69.05 12.4 L69.4 11.8 Q72.25 12.1 73.7 12.05 73.9 12.7 73.55 13.25 72.2 13.7 70.9 13.75 70.15 13.65 69.6 13.45 68.85 12.8 69.0 12.4 M92.2 9.85 Q92.2 8.1 92.35 8.45 94.9 8.5 95.2 8.95 L95.45 10.45 95.3 11.65 94.8 12.15 92.8 12.15 92.35 11.4 Q92.2 11.0 92.2 9.85 Z" fill="none" stroke="#000000" stroke-linecap="round" stroke-linejoin="round" stroke-opacity="0.0" stroke-width="1.0"/>
    </g>
  </defs>
</svg>
