<?xml version="1.0" encoding="UTF-8" standalone="no"?>
<svg xmlns:xlink="http://www.w3.org/1999/xlink" height="47.45px" width="141.0px" xmlns="http://www.w3.org/2000/svg">
  <g transform="matrix(1.0, 0.0, 0.0, 1.0, -4.35, -2.9)">
    <use data-characterId="3192" height="47.45" transform="matrix(1.0, 0.0, 0.0, 1.0, 4.35, 2.9)" width="141.0" xlink:href="#morphshape0"/>
    <use data-characterId="3193" height="37.5" transform="matrix(1.0, 0.0, 0.0, 1.0, 17.5, 9.15)" width="116.05" xlink:href="#morphshape1"/>
    <use data-characterId="3194" height="21.8" transform="matrix(1.0, 0.0, 0.0, 1.0, 37.6, 4.7)" width="75.1" xlink:href="#morphshape2"/>
    <use data-characterId="3195" height="35.65" transform="matrix(1.0, 0.0, 0.0, 1.0, 32.35, 6.65)" width="66.65" xlink:href="#morphshape3"/>
  </g>
  <defs>
    <g id="morphshape0" transform="matrix(1.0, 0.0, 0.0, 1.0, -4.35, -2.9)">
      <path d="M4.9 18.5 Q5.1 20.0 9.85 20.95 14.65 21.75 20.1 22.25 28.7 23.1 23.6 25.1 18.0 25.8 20.65 27.25 23.9 28.25 21.15 29.15 18.4 29.85 16.85 31.05 15.6 32.85 18.2 33.45 20.45 33.9 22.35 34.15 25.7 34.45 27.95 35.25 L32.0 36.3 Q29.45 38.25 33.8 39.15 32.1 40.35 41.5 40.25 42.15 41.15 46.75 41.2 43.1 43.0 45.8 44.35 48.75 45.8 54.15 46.0 58.55 46.1 63.9 47.4 69.7 48.7 68.75 49.45 67.1 50.2 71.3 49.1 76.35 47.95 80.2 47.85 L90.5 47.05 Q95.9 46.65 99.05 46.0 105.2 45.8 107.1 43.45 107.45 42.3 109.0 40.35 113.7 39.5 111.55 38.0 121.55 36.05 119.5 34.5 120.35 33.85 118.05 33.65 124.1 32.4 123.55 31.75 127.15 30.6 125.5 29.7 124.55 29.0 122.05 28.35 120.3 27.9 122.55 27.05 124.75 26.2 130.55 24.3 136.4 22.4 136.4 20.9 136.3 19.35 129.5 18.85 125.9 18.35 123.35 18.4 L122.55 18.45 122.0 18.25 Q125.0 16.75 122.5 15.4 124.7 14.7 120.55 14.1 118.7 13.65 116.2 13.6 117.2 10.5 110.8 8.6 100.05 4.8 79.95 3.85 64.9 2.9 43.2 5.15 24.2 7.3 17.6 10.4 10.5 11.95 11.85 12.75 13.2 13.5 18.7 14.2 24.05 14.75 21.3 15.0 18.75 15.05 16.3 15.2 L7.65 16.0 4.9 16.3 Q4.25 17.4 4.8 18.55" fill="#96e0bc" fill-opacity="0.7058824" fill-rule="evenodd" stroke="none"/>
      <path d="M4.8 18.55 Q4.25 17.4 4.9 16.3 L7.65 16.0 16.3 15.2 Q18.75 15.05 21.3 15.0 24.05 14.75 18.7 14.2 13.2 13.5 11.85 12.75 10.5 11.95 17.6 10.4 24.2 7.3 43.2 5.15 64.9 2.9 79.95 3.85 100.05 4.8 110.8 8.6 117.2 10.5 116.2 13.6 118.7 13.65 120.55 14.1 124.7 14.7 122.5 15.4 125.0 16.75 122.0 18.25 L122.55 18.45 123.35 18.4 Q125.9 18.35 129.5 18.85 136.3 19.35 136.4 20.9 136.4 22.4 130.55 24.3 124.75 26.2 122.55 27.05 120.3 27.9 122.05 28.35 124.55 29.0 125.5 29.7 127.15 30.6 123.55 31.75 124.1 32.4 118.05 33.65 120.35 33.85 119.5 34.5 121.55 36.05 111.55 38.0 113.7 39.5 109.0 40.35 107.45 42.3 107.1 43.45 105.2 45.8 99.05 46.0 95.9 46.65 90.5 47.05 L80.2 47.85 Q76.35 47.95 71.3 49.1 67.1 50.2 68.75 49.45 69.7 48.7 63.9 47.4 58.55 46.1 54.15 46.0 48.75 45.8 45.8 44.35 43.1 43.0 46.75 41.2 42.15 41.15 41.5 40.25 32.1 40.35 33.8 39.15 29.45 38.25 32.0 36.3 L27.95 35.25 Q25.7 34.45 22.35 34.15 20.45 33.9 18.2 33.45 15.6 32.85 16.85 31.05 18.4 29.85 21.15 29.15 23.9 28.25 20.65 27.25 18.0 25.8 23.6 25.1 28.7 23.1 20.1 22.25 14.65 21.75 9.85 20.95 5.1 20.0 4.9 18.5" fill="none" stroke="#000000" stroke-linecap="round" stroke-linejoin="round" stroke-opacity="0.0" stroke-width="1.0"/>
    </g>
    <g id="morphshape1" transform="matrix(1.0, 0.0, 0.0, 1.0, -17.5, -9.15)">
      <path d="M119.0 23.05 Q119.0 23.8 119.45 24.5 120.2 25.55 123.05 25.3 L122.3 23.1 Q121.3 22.75 119.0 23.05 M100.55 30.15 Q100.55 30.5 101.65 31.3 L104.95 31.4 107.1 30.4 Q109.3 29.35 109.7 28.85 L108.2 27.65 104.0 27.25 Q100.55 27.45 100.55 30.15 M86.3 37.25 L86.3 37.3 86.6 37.9 Q87.35 38.3 88.5 38.65 L90.6 39.0 93.65 39.05 94.15 38.9 94.45 38.6 94.65 38.05 94.65 37.6 Q94.6 36.85 94.1 36.5 93.25 35.8 89.5 35.7 87.95 35.9 86.6 36.5 L86.4 37.1 M76.55 38.9 L77.0 39.7 Q78.15 40.0 79.5 40.3 L82.0 40.5 85.7 40.4 86.35 40.2 86.75 39.85 86.9 39.1 86.85 38.6 Q86.7 37.85 86.05 37.4 84.95 36.7 80.35 36.8 78.4 37.1 76.9 38.25 L76.45 39.0 M62.15 34.55 L62.7 35.45 69.05 35.85 Q73.1 35.85 75.95 33.6 75.95 31.7 69.9 31.55 63.65 31.45 62.15 34.55 M59.6 41.8 Q59.65 42.25 59.85 42.55 L62.9 42.55 Q63.35 42.3 63.6 40.7 L60.1 40.9 Q59.6 41.25 59.6 41.8 M49.0 36.1 L50.2 37.3 Q52.25 38.45 56.55 38.45 58.1 38.45 59.85 36.3 59.85 33.35 54.45 33.4 49.0 33.45 49.0 36.1 M28.1 28.9 Q28.15 29.5 30.8 30.95 34.1 32.5 37.75 32.45 L41.6 32.15 Q42.75 31.55 43.35 29.55 43.1 26.7 35.5 26.3 27.85 25.9 28.1 28.9 M19.05 16.6 Q19.05 17.05 19.5 17.75 L20.45 18.7 27.3 18.8 Q28.5 17.9 28.5 17.35 28.5 15.5 23.8 15.4 19.05 15.35 19.05 16.6" fill="#bef0d8" fill-opacity="0.7058824" fill-rule="evenodd" stroke="none"/>
      <path d="M19.05 16.6 Q19.05 15.35 23.8 15.4 28.5 15.5 28.5 17.35 28.5 17.9 27.3 18.8 L20.45 18.7 19.5 17.75 Q19.05 17.05 19.05 16.6 M28.1 28.9 Q27.85 25.9 35.5 26.3 43.1 26.7 43.35 29.55 42.75 31.55 41.6 32.15 L37.75 32.45 Q34.1 32.5 30.8 30.95 28.15 29.5 28.1 28.9 M49.0 36.1 Q49.0 33.45 54.45 33.4 59.85 33.35 59.85 36.3 58.1 38.45 56.55 38.45 52.25 38.45 50.2 37.3 L49.0 36.1 M59.6 41.8 Q59.6 41.25 60.1 40.9 L63.6 40.7 Q63.35 42.3 62.9 42.55 L59.85 42.55 Q59.65 42.25 59.6 41.8 M62.15 34.55 Q63.65 31.45 69.9 31.55 75.95 31.7 75.95 33.6 73.1 35.85 69.05 35.85 L62.7 35.45 62.15 34.55 M76.45 39.0 L76.9 38.25 Q78.4 37.1 80.35 36.8 84.95 36.7 86.05 37.4 86.7 37.85 86.85 38.6 L86.9 39.1 86.75 39.85 86.35 40.2 85.7 40.4 82.0 40.5 79.5 40.3 Q78.15 40.0 77.0 39.7 L76.55 38.9 M86.4 37.1 L86.6 36.5 Q87.95 35.9 89.5 35.7 93.25 35.8 94.1 36.5 94.6 36.85 94.65 37.6 L94.65 38.05 94.45 38.6 94.15 38.9 93.65 39.05 90.6 39.0 88.5 38.65 Q87.35 38.3 86.6 37.9 L86.3 37.3 86.3 37.25 M100.55 30.15 Q100.55 27.45 104.0 27.25 L108.2 27.65 109.7 28.85 Q109.3 29.35 107.1 30.4 L104.95 31.4 101.65 31.3 Q100.55 30.5 100.55 30.15 M119.0 23.05 Q121.3 22.75 122.3 23.1 L123.05 25.3 Q120.2 25.55 119.45 24.5 119.0 23.8 119.0 23.05 Z" fill="none" stroke="#000000" stroke-linecap="round" stroke-linejoin="round" stroke-opacity="0.0" stroke-width="1.0"/>
    </g>
    <g id="morphshape2" transform="matrix(1.0, 0.0, 0.0, 1.0, -37.6, -4.7)">
      <path d="M103.1 15.95 Q103.1 17.1 103.35 17.5 L104.15 18.05 Q106.4 17.35 107.95 16.8 108.65 16.3 107.6 13.25 105.2 13.45 104.15 14.1 103.1 14.7 103.1 15.95 M90.95 20.55 Q90.95 21.6 91.55 22.2 L94.6 22.4 Q95.05 21.4 94.8 19.3 L91.05 19.2 90.95 20.55 M89.45 11.1 Q89.45 12.15 89.85 13.05 L95.8 13.05 Q96.85 12.0 96.85 8.5 92.15 8.05 90.5 8.9 89.45 9.5 89.45 11.1 M81.15 20.95 Q81.2 21.9 81.95 23.75 82.6 24.2 84.15 24.35 L84.95 23.15 Q85.45 22.45 84.75 20.65 L81.15 20.95 M77.75 8.9 Q77.35 10.8 78.15 12.3 79.15 14.05 81.4 14.05 82.55 14.05 83.75 12.3 82.9 9.9 81.25 9.25 L77.75 8.9 M65.95 12.75 L66.0 14.2 66.35 14.75 71.8 15.5 75.1 15.9 Q76.85 15.9 75.75 13.45 75.75 10.4 70.85 10.25 65.95 10.15 65.95 12.75 M56.0 14.3 L56.0 14.45 56.05 15.2 56.15 15.4 Q56.35 15.7 56.65 15.75 57.2 15.9 58.25 16.05 L60.55 15.55 Q60.8 14.35 60.7 12.6 60.2 11.45 59.75 10.6 58.75 10.2 57.75 10.4 56.0 11.4 56.0 14.35 M49.45 18.5 L49.55 19.6 49.85 19.95 Q50.25 20.1 50.7 20.15 L52.8 20.25 Q54.6 20.05 56.1 20.0 56.3 18.75 55.75 16.15 54.95 14.65 54.2 13.8 53.0 12.9 51.65 13.3 49.4 14.4 49.4 18.5 M38.65 11.35 L39.75 13.45 Q41.45 15.6 44.45 15.6 48.35 15.6 48.35 12.4 48.35 9.4 43.5 8.6 38.65 7.75 38.65 11.35" fill="#bef0d8" fill-opacity="0.7058824" fill-rule="evenodd" stroke="none"/>
      <path d="M38.65 11.35 Q38.65 7.75 43.5 8.6 48.35 9.4 48.35 12.4 48.35 15.6 44.45 15.6 41.45 15.6 39.75 13.45 L38.65 11.35 M49.4 18.5 Q49.4 14.4 51.65 13.3 53.0 12.9 54.2 13.8 54.95 14.65 55.75 16.15 56.3 18.75 56.1 20.0 54.6 20.05 52.8 20.25 L50.7 20.15 Q50.25 20.1 49.85 19.95 L49.55 19.6 49.45 18.5 M56.0 14.35 Q56.0 11.4 57.75 10.4 58.75 10.2 59.75 10.6 60.2 11.45 60.7 12.6 60.8 14.35 60.55 15.55 L58.25 16.05 Q57.2 15.9 56.65 15.75 56.35 15.7 56.15 15.4 L56.05 15.2 56.0 14.45 56.0 14.3 M65.95 12.75 Q65.95 10.15 70.85 10.25 75.75 10.4 75.75 13.45 76.85 15.9 75.1 15.9 L71.8 15.5 66.35 14.75 66.0 14.2 65.95 12.75 M77.75 8.9 L81.25 9.25 Q82.9 9.9 83.75 12.3 82.55 14.05 81.4 14.05 79.15 14.05 78.15 12.3 77.35 10.8 77.75 8.9 M81.15 20.95 L84.75 20.65 Q85.45 22.45 84.95 23.15 L84.15 24.35 Q82.6 24.2 81.95 23.75 81.2 21.9 81.15 20.95 M89.45 11.1 Q89.45 9.5 90.5 8.9 92.15 8.05 96.85 8.5 96.85 12.0 95.8 13.05 L89.85 13.05 Q89.45 12.15 89.45 11.1 M90.95 20.55 L91.05 19.2 94.8 19.3 Q95.05 21.4 94.6 22.4 L91.55 22.2 Q90.95 21.6 90.95 20.55 M103.1 15.95 Q103.1 14.7 104.15 14.1 105.2 13.45 107.6 13.25 108.65 16.3 107.95 16.8 106.4 17.35 104.15 18.05 L103.35 17.5 Q103.1 17.1 103.1 15.95 Z" fill="none" stroke="#000000" stroke-linecap="round" stroke-linejoin="round" stroke-opacity="0.0" stroke-width="1.0"/>
    </g>
    <g id="morphshape3" transform="matrix(1.0, 0.0, 0.0, 1.0, -32.35, -6.65)">
      <path d="M91.75 10.1 Q91.75 11.25 91.9 11.65 L92.35 12.4 94.35 12.4 94.85 11.9 95.0 10.7 94.75 9.2 Q94.45 8.75 91.9 8.7 91.75 8.35 91.75 10.1 M69.15 12.95 Q69.05 13.35 69.85 13.95 70.4 14.1 71.15 14.2 72.4 14.1 73.75 13.55 74.1 12.95 73.85 12.3 72.2 12.4 69.45 12.25 L69.15 12.85 M66.15 31.2 L66.45 33.15 Q66.65 34.2 67.1 35.05 L70.6 35.05 Q70.85 34.8 71.1 34.6 L70.7 31.5 67.15 30.95 Q66.35 30.9 66.15 31.2 M41.5 13.65 L41.7 15.0 42.05 15.5 43.6 15.55 Q44.65 15.55 45.25 15.1 45.45 14.95 45.45 13.2 45.45 12.05 45.1 11.5 L44.4 10.85 41.6 11.95 41.5 13.65 M33.9 29.2 L34.15 30.2 Q34.5 31.0 34.95 31.3 39.05 30.75 39.05 28.35 39.05 27.25 38.7 26.95 L37.85 26.6 36.1 26.85 34.25 27.0 33.9 29.2" fill="#ffffff" fill-opacity="0.7058824" fill-rule="evenodd" stroke="none"/>
      <path d="M33.9 29.2 L34.25 27.0 36.1 26.85 37.85 26.6 38.7 26.95 Q39.05 27.25 39.05 28.35 39.05 30.75 34.95 31.3 34.5 31.0 34.15 30.2 L33.9 29.2 M41.5 13.65 L41.6 11.95 44.4 10.85 45.1 11.5 Q45.45 12.05 45.45 13.2 45.45 14.95 45.25 15.1 44.65 15.55 43.6 15.55 L42.05 15.5 41.7 15.0 41.5 13.65 M66.15 31.2 Q66.35 30.9 67.15 30.95 L70.7 31.5 71.1 34.6 Q70.85 34.8 70.6 35.05 L67.1 35.05 Q66.65 34.2 66.45 33.15 L66.15 31.2 M69.15 12.85 L69.45 12.25 Q72.2 12.4 73.85 12.3 74.1 12.95 73.75 13.55 72.4 14.1 71.15 14.2 70.4 14.1 69.85 13.95 69.05 13.35 69.15 12.95 M91.75 10.1 Q91.75 8.35 91.9 8.7 94.45 8.75 94.75 9.2 L95.0 10.7 94.85 11.9 94.35 12.4 92.35 12.4 91.9 11.65 Q91.75 11.25 91.75 10.1 Z" fill="none" stroke="#000000" stroke-linecap="round" stroke-linejoin="round" stroke-opacity="0.0" stroke-width="1.0"/>
    </g>
  </defs>
</svg>
