<?xml version="1.0" encoding="UTF-8" standalone="no"?>
<svg xmlns:xlink="http://www.w3.org/1999/xlink" height="47.45px" width="141.0px" xmlns="http://www.w3.org/2000/svg">
  <g transform="matrix(1.0, 0.0, 0.0, 1.0, -4.35, -2.9)">
    <use data-characterId="3192" height="47.45" transform="matrix(1.0, 0.0, 0.0, 1.0, 4.35, 2.9)" width="141.0" xlink:href="#morphshape0"/>
    <use data-characterId="3193" height="37.5" transform="matrix(1.0, 0.0, 0.0, 1.0, 17.5, 9.15)" width="116.05" xlink:href="#morphshape1"/>
    <use data-characterId="3194" height="21.8" transform="matrix(1.0, 0.0, 0.0, 1.0, 37.6, 4.7)" width="75.1" xlink:href="#morphshape2"/>
    <use data-characterId="3195" height="35.65" transform="matrix(1.0, 0.0, 0.0, 1.0, 32.35, 6.65)" width="66.65" xlink:href="#morphshape3"/>
  </g>
  <defs>
    <g id="morphshape0" transform="matrix(1.0, 0.0, 0.0, 1.0, -4.35, -2.9)">
      <path d="M4.7 17.85 Q4.6 19.35 10.85 20.45 17.15 21.45 24.4 21.95 33.95 22.75 25.0 24.4 15.7 25.1 21.4 26.65 27.5 27.9 23.15 28.7 18.75 29.35 15.95 30.7 13.35 32.5 16.65 33.05 19.7 33.5 21.5 33.85 24.35 34.2 26.6 34.85 L33.4 35.8 Q29.5 37.6 32.55 38.4 27.0 40.3 39.7 40.1 41.35 40.8 48.9 40.2 42.95 42.5 44.9 43.75 47.05 45.1 53.25 45.4 59.25 45.6 65.9 46.65 73.3 47.65 69.95 48.9 66.05 50.15 69.7 49.35 74.65 48.55 78.7 48.45 L90.9 47.75 Q97.6 47.35 100.7 46.55 105.95 46.05 106.65 44.1 106.25 43.0 108.4 40.75 112.25 39.8 107.75 38.05 121.75 36.6 121.3 34.95 122.95 33.95 119.4 33.7 122.8 32.75 121.45 32.2 126.9 30.95 125.95 30.05 125.5 29.3 122.4 28.55 119.85 28.0 119.5 27.35 119.15 26.7 127.8 25.05 136.45 23.4 138.2 21.8 139.9 20.15 132.4 19.3 127.2 18.45 123.8 18.5 L122.55 18.55 122.1 18.4 Q124.2 17.25 122.3 16.2 128.0 15.25 123.3 14.45 120.25 13.75 116.15 13.65 116.85 11.35 112.2 10.0 102.1 6.05 86.05 4.5 73.65 2.95 50.65 4.6 31.65 6.15 20.15 9.4 8.25 11.55 10.25 12.45 12.25 13.3 21.0 14.05 29.65 14.7 25.6 14.95 21.65 15.0 17.8 15.15 L9.35 15.8 4.9 16.3 Q4.4 17.1 4.8 17.95" fill="#96e0bc" fill-opacity="0.7058824" fill-rule="evenodd" stroke="none"/>
      <path d="M4.8 17.95 Q4.4 17.1 4.9 16.3 L9.35 15.8 17.8 15.15 Q21.65 15.0 25.6 14.95 29.65 14.7 21.0 14.05 12.25 13.3 10.25 12.45 8.25 11.55 20.15 9.4 31.65 6.15 50.65 4.6 73.65 2.95 86.05 4.5 102.1 6.05 112.2 10.0 116.85 11.35 116.15 13.65 120.25 13.75 123.3 14.45 128.0 15.25 122.3 16.2 124.2 17.25 122.1 18.4 L122.55 18.55 123.8 18.5 Q127.2 18.45 132.4 19.3 139.9 20.15 138.2 21.8 136.45 23.4 127.8 25.05 119.15 26.7 119.5 27.35 119.85 28.0 122.4 28.55 125.5 29.3 125.95 30.05 126.9 30.95 121.45 32.2 122.8 32.75 119.4 33.7 122.95 33.95 121.3 34.95 121.75 36.6 107.75 38.05 112.25 39.8 108.4 40.75 106.25 43.0 106.65 44.1 105.95 46.05 100.7 46.55 97.6 47.35 90.9 47.75 L78.7 48.45 Q74.65 48.55 69.7 49.35 66.05 50.15 69.95 48.9 73.3 47.65 65.9 46.65 59.25 45.6 53.25 45.4 47.05 45.1 44.9 43.75 42.95 42.5 48.9 40.2 41.35 40.8 39.7 40.1 27.0 40.3 32.55 38.4 29.5 37.6 33.4 35.8 L26.6 34.85 Q24.35 34.2 21.5 33.85 19.7 33.5 16.65 33.05 13.35 32.5 15.95 30.7 18.75 29.35 23.15 28.7 27.5 27.9 21.4 26.65 15.7 25.1 25.0 24.4 33.95 22.75 24.4 21.95 17.15 21.45 10.85 20.45 4.6 19.35 4.7 17.85" fill="none" stroke="#000000" stroke-linecap="round" stroke-linejoin="round" stroke-opacity="0.0" stroke-width="1.0"/>
    </g>
    <g id="morphshape1" transform="matrix(1.0, 0.0, 0.0, 1.0, -17.5, -9.15)">
      <path d="M121.9 22.65 Q121.9 23.4 122.35 24.1 123.1 25.15 125.95 24.9 L125.2 22.7 Q124.2 22.35 121.9 22.65 M101.25 31.25 Q101.25 31.6 102.35 32.4 L105.65 32.5 107.8 31.5 Q110.0 30.45 110.4 29.95 L108.9 28.75 104.7 28.35 Q101.25 28.55 101.25 31.25 M87.3 39.3 L87.3 39.35 87.65 40.05 Q88.6 40.4 89.85 40.75 L92.15 41.05 95.5 41.05 96.05 40.9 96.4 40.6 96.6 39.95 96.6 39.5 Q96.5 38.75 95.95 38.35 95.0 37.65 90.85 37.65 89.1 37.9 87.7 38.75 L87.4 39.4 M77.4 36.9 L77.8 37.65 Q78.75 38.0 80.0 38.3 L82.3 38.55 85.7 38.5 86.3 38.3 86.65 37.95 86.8 37.3 86.75 36.8 Q86.65 36.05 86.05 35.65 85.05 34.95 80.85 34.95 79.1 35.2 77.65 36.1 L77.3 36.8 M61.9 36.35 L62.45 37.25 68.8 37.65 Q72.85 37.65 75.7 35.4 75.7 33.5 69.65 33.35 63.4 33.25 61.9 36.35 M58.1 41.5 Q58.15 41.95 58.35 42.25 L61.4 42.25 Q61.85 42.0 62.1 40.4 L58.6 40.6 Q58.1 40.95 58.1 41.5 M49.0 35.45 L50.2 36.65 Q52.25 37.8 56.55 37.8 58.1 37.8 59.85 35.65 59.85 32.7 54.45 32.75 49.0 32.8 49.0 35.45 M29.15 29.25 Q29.25 29.85 31.95 31.15 35.35 32.3 39.0 32.3 L42.85 31.8 Q43.95 31.15 44.45 29.15 44.1 26.3 36.5 26.3 28.85 26.3 29.2 29.3 M20.05 14.9 Q20.05 15.35 20.5 16.05 L21.45 17.0 28.3 17.1 Q29.5 16.2 29.5 15.65 29.5 13.8 24.8 13.7 20.05 13.65 20.05 14.9" fill="#bef0d8" fill-opacity="0.7058824" fill-rule="evenodd" stroke="none"/>
      <path d="M20.05 14.9 Q20.05 13.65 24.8 13.7 29.5 13.8 29.5 15.65 29.5 16.2 28.3 17.1 L21.45 17.0 20.5 16.05 Q20.05 15.35 20.05 14.9 M29.2 29.3 Q28.85 26.3 36.5 26.3 44.1 26.3 44.45 29.15 43.95 31.15 42.85 31.8 L39.0 32.3 Q35.35 32.3 31.95 31.15 29.25 29.85 29.15 29.25 M49.0 35.45 Q49.0 32.8 54.45 32.75 59.85 32.7 59.85 35.65 58.1 37.8 56.55 37.8 52.25 37.8 50.2 36.65 L49.0 35.45 M58.1 41.5 Q58.1 40.95 58.6 40.6 L62.1 40.4 Q61.85 42.0 61.4 42.25 L58.35 42.25 Q58.15 41.95 58.1 41.5 M61.9 36.35 Q63.4 33.25 69.65 33.35 75.7 33.5 75.7 35.4 72.85 37.65 68.8 37.65 L62.45 37.25 61.9 36.35 M77.3 36.8 L77.65 36.1 Q79.1 35.2 80.85 34.95 85.05 34.95 86.05 35.65 86.65 36.05 86.75 36.8 L86.8 37.3 86.65 37.95 86.3 38.3 85.7 38.5 82.3 38.55 80.0 38.3 Q78.75 38.0 77.8 37.65 L77.4 36.9 M87.4 39.4 L87.7 38.75 Q89.1 37.9 90.85 37.65 95.0 37.65 95.95 38.35 96.5 38.75 96.6 39.5 L96.6 39.95 96.4 40.6 96.05 40.9 95.5 41.05 92.15 41.05 89.85 40.75 Q88.6 40.4 87.65 40.05 L87.3 39.35 87.3 39.3 M101.25 31.25 Q101.25 28.55 104.7 28.35 L108.9 28.75 110.4 29.95 Q110.0 30.45 107.8 31.5 L105.65 32.5 102.35 32.4 Q101.25 31.6 101.25 31.25 M121.9 22.65 Q124.2 22.35 125.2 22.7 L125.95 24.9 Q123.1 25.15 122.35 24.1 121.9 23.4 121.9 22.65 Z" fill="none" stroke="#000000" stroke-linecap="round" stroke-linejoin="round" stroke-opacity="0.0" stroke-width="1.0"/>
    </g>
    <g id="morphshape2" transform="matrix(1.0, 0.0, 0.0, 1.0, -37.6, -4.7)">
      <path d="M104.35 16.85 Q104.35 18.0 104.6 18.4 L105.4 18.95 Q107.9 18.25 109.2 17.7 109.9 17.2 108.85 14.15 106.45 14.35 105.4 15.0 104.35 15.6 104.35 16.85 M91.85 19.45 Q91.85 20.5 92.45 21.1 L95.5 21.3 Q95.95 20.3 95.7 18.2 L91.95 18.1 91.85 19.45 M90.45 10.5 Q90.45 11.55 90.85 12.45 L96.8 12.45 Q97.85 11.4 97.85 7.9 93.15 7.45 91.5 8.3 90.45 8.9 90.45 10.5 M82.15 19.55 Q82.2 20.5 82.95 22.35 83.6 22.8 85.15 22.95 L85.95 21.75 Q86.45 21.05 85.75 19.25 L82.15 19.55 M77.1 10.6 Q76.7 12.5 77.5 14.0 78.5 15.75 80.75 15.75 81.9 15.75 83.1 14.0 82.25 11.6 80.6 10.95 L77.1 10.6 M65.35 11.75 L65.4 13.2 65.75 13.75 71.2 14.5 74.5 14.9 Q76.25 14.9 75.15 12.45 75.15 9.4 70.25 9.25 65.35 9.15 65.35 11.75 M56.05 16.75 L56.05 16.85 56.1 17.7 56.3 17.95 Q56.6 18.2 56.95 18.25 57.7 18.35 58.8 18.45 L61.6 18.05 Q61.85 16.85 61.55 14.7 60.9 13.4 60.3 12.55 59.2 11.9 58.05 12.2 56.05 13.25 56.05 16.75 M50.3 15.5 L50.4 16.5 50.6 16.8 Q50.9 17.0 51.3 17.05 L53.15 17.25 Q54.85 16.95 56.0 16.9 56.2 15.65 55.85 13.45 55.2 12.1 54.6 11.25 53.5 10.6 52.3 10.9 50.3 11.95 50.3 15.5 M39.3 12.1 L40.4 14.2 Q42.1 16.35 45.1 16.35 49.0 16.35 49.0 13.15 49.0 10.15 44.15 9.35 39.3 8.5 39.3 12.1" fill="#bef0d8" fill-opacity="0.7058824" fill-rule="evenodd" stroke="none"/>
      <path d="M39.3 12.1 Q39.3 8.5 44.15 9.35 49.0 10.15 49.0 13.15 49.0 16.35 45.1 16.35 42.1 16.35 40.4 14.2 L39.3 12.1 M50.3 15.5 Q50.3 11.95 52.3 10.9 53.5 10.6 54.6 11.25 55.2 12.1 55.85 13.45 56.2 15.65 56.0 16.9 54.85 16.95 53.15 17.25 L51.3 17.05 Q50.9 17.0 50.6 16.8 L50.4 16.5 50.3 15.5 M56.05 16.75 Q56.05 13.25 58.05 12.2 59.2 11.9 60.3 12.55 60.9 13.4 61.55 14.7 61.85 16.85 61.6 18.05 L58.8 18.45 Q57.7 18.35 56.95 18.25 56.6 18.2 56.3 17.95 L56.1 17.7 56.05 16.85 56.05 16.75 M65.35 11.75 Q65.35 9.15 70.25 9.25 75.15 9.4 75.15 12.45 76.25 14.9 74.5 14.9 L71.2 14.5 65.75 13.75 65.4 13.2 65.35 11.75 M77.1 10.6 L80.6 10.95 Q82.25 11.6 83.1 14.0 81.9 15.75 80.75 15.75 78.5 15.75 77.5 14.0 76.7 12.5 77.1 10.6 M82.15 19.55 L85.75 19.25 Q86.45 21.05 85.95 21.75 L85.15 22.95 Q83.6 22.8 82.95 22.35 82.2 20.5 82.15 19.55 M90.45 10.5 Q90.45 8.9 91.5 8.3 93.15 7.45 97.85 7.9 97.85 11.4 96.8 12.45 L90.85 12.45 Q90.45 11.55 90.45 10.5 M91.85 19.45 L91.95 18.1 95.7 18.2 Q95.95 20.3 95.5 21.3 L92.45 21.1 Q91.85 20.5 91.85 19.45 M104.35 16.85 Q104.35 15.6 105.4 15.0 106.45 14.35 108.85 14.15 109.9 17.2 109.2 17.7 107.9 18.25 105.4 18.95 L104.6 18.4 Q104.35 18.0 104.35 16.85 Z" fill="none" stroke="#000000" stroke-linecap="round" stroke-linejoin="round" stroke-opacity="0.0" stroke-width="1.0"/>
    </g>
    <g id="morphshape3" transform="matrix(1.0, 0.0, 0.0, 1.0, -32.35, -6.65)">
      <path d="M92.85 9.55 Q92.85 10.7 93.0 11.1 L93.45 11.85 95.45 11.85 95.95 11.35 96.1 10.15 95.85 8.65 Q95.55 8.2 93.0 8.15 92.85 7.8 92.85 9.55 M68.95 11.75 Q68.8 12.15 69.55 12.85 70.05 13.1 70.8 13.25 72.1 13.25 73.45 12.9 73.8 12.35 73.6 11.7 72.35 11.65 69.3 11.2 L68.95 11.8 M66.05 33.2 L66.35 35.15 Q66.55 36.2 67.0 37.05 L70.5 37.05 Q70.75 36.8 71.0 36.6 L70.6 33.5 67.05 32.95 Q66.25 32.9 66.05 33.2 M42.35 14.15 L42.55 15.5 42.9 16.0 44.45 16.05 Q45.5 16.05 46.1 15.6 46.3 15.45 46.3 13.7 46.3 12.55 45.95 12.0 L45.25 11.35 42.45 12.45 42.35 14.15 M34.9 29.2 L35.15 30.2 Q35.5 31.0 35.95 31.3 40.05 30.75 40.05 28.35 40.05 27.25 39.7 26.95 L38.85 26.6 37.1 26.85 35.25 27.0 34.9 29.2" fill="#ffffff" fill-opacity="0.7058824" fill-rule="evenodd" stroke="none"/>
      <path d="M34.9 29.2 L35.25 27.0 37.1 26.85 38.85 26.6 39.7 26.95 Q40.05 27.25 40.05 28.35 40.05 30.75 35.95 31.3 35.5 31.0 35.15 30.2 L34.9 29.2 M42.35 14.15 L42.45 12.45 45.25 11.35 45.95 12.0 Q46.3 12.55 46.3 13.7 46.3 15.45 46.1 15.6 45.5 16.05 44.45 16.05 L42.9 16.0 42.55 15.5 42.35 14.15 M66.05 33.2 Q66.25 32.9 67.05 32.95 L70.6 33.5 71.0 36.6 Q70.75 36.8 70.5 37.05 L67.0 37.05 Q66.55 36.2 66.35 35.15 L66.05 33.2 M68.95 11.8 L69.3 11.2 Q72.35 11.65 73.6 11.7 73.8 12.35 73.45 12.9 72.1 13.25 70.8 13.25 70.05 13.1 69.55 12.85 68.8 12.15 68.95 11.75 M92.85 9.55 Q92.85 7.8 93.0 8.15 95.55 8.2 95.85 8.65 L96.1 10.15 95.95 11.35 95.45 11.85 93.45 11.85 93.0 11.1 Q92.85 10.7 92.85 9.55 Z" fill="none" stroke="#000000" stroke-linecap="round" stroke-linejoin="round" stroke-opacity="0.0" stroke-width="1.0"/>
    </g>
  </defs>
</svg>
