<?xml version="1.0" encoding="UTF-8" standalone="no"?>
<svg xmlns:xlink="http://www.w3.org/1999/xlink" height="47.45px" width="141.0px" xmlns="http://www.w3.org/2000/svg">
  <g transform="matrix(1.0, 0.0, 0.0, 1.0, -4.35, -2.9)">
    <use data-characterId="3192" height="47.45" transform="matrix(1.0, 0.0, 0.0, 1.0, 4.35, 2.9)" width="141.0" xlink:href="#morphshape0"/>
    <use data-characterId="3193" height="37.5" transform="matrix(1.0, 0.0, 0.0, 1.0, 17.5, 9.15)" width="116.05" xlink:href="#morphshape1"/>
    <use data-characterId="3194" height="21.8" transform="matrix(1.0, 0.0, 0.0, 1.0, 37.6, 4.7)" width="75.1" xlink:href="#morphshape2"/>
    <use data-characterId="3195" height="35.65" transform="matrix(1.0, 0.0, 0.0, 1.0, 32.35, 6.65)" width="66.65" xlink:href="#morphshape3"/>
  </g>
  <defs>
    <g id="morphshape0" transform="matrix(1.0, 0.0, 0.0, 1.0, -4.35, -2.9)">
      <path d="M5.1 17.0 Q4.6 18.55 12.65 19.85 20.75 21.1 30.3 21.7 41.05 22.4 27.25 23.65 13.3 24.4 22.75 26.1 32.45 27.65 26.05 28.35 19.6 28.95 15.25 30.55 11.0 32.35 15.2 32.85 19.25 33.3 20.9 33.75 23.1 34.2 25.25 34.6 L35.45 35.35 Q29.9 37.0 31.35 37.7 21.05 40.45 37.9 40.05 40.8 40.45 52.0 39.1 43.15 42.0 44.25 43.15 45.45 44.3 52.7 44.7 60.65 45.0 68.9 45.75 78.35 46.4 71.95 48.25 65.25 50.1 68.2 49.7 73.0 49.3 77.3 49.3 L91.9 48.8 Q100.2 48.4 103.15 47.4 107.25 46.5 106.5 45.1 105.15 44.1 108.05 41.5 110.75 40.4 103.3 38.3 122.25 37.45 123.75 35.6 126.35 34.15 121.2 33.8 121.25 33.2 118.8 32.8 126.55 31.35 126.4 30.45 126.5 29.65 122.7 28.8 119.15 28.05 115.55 27.6 111.95 27.15 124.1 25.8 136.3 24.45 140.3 22.65 144.25 20.85 135.95 19.55 128.85 18.25 124.3 18.3 L122.55 18.35 122.25 18.25 Q123.15 17.6 122.0 17.0 132.15 15.75 126.75 14.7 122.2 13.65 116.15 13.5 116.5 12.3 114.05 11.6 104.7 7.4 93.7 5.1 84.6 2.8 60.0 3.65 40.9 4.45 23.25 7.95 5.35 10.85 8.15 11.9 10.95 12.9 23.85 13.8 36.7 14.6 31.0 14.85 25.3 14.95 19.7 15.1 L11.5 15.55 4.9 16.3 Q4.6 16.7 4.8 17.15" fill="#96e0bc" fill-opacity="0.7058824" fill-rule="evenodd" stroke="none"/>
      <path d="M4.8 17.15 Q4.6 16.7 4.9 16.3 L11.5 15.55 19.7 15.1 Q25.3 14.95 31.0 14.85 36.7 14.6 23.85 13.8 10.95 12.9 8.15 11.9 5.35 10.85 23.25 7.95 40.9 4.45 60.0 3.65 84.6 2.8 93.7 5.1 104.7 7.4 114.05 11.6 116.5 12.3 116.15 13.5 122.2 13.65 126.75 14.7 132.15 15.75 122.0 17.0 123.15 17.6 122.25 18.25 L122.55 18.35 124.3 18.3 Q128.85 18.25 135.95 19.55 144.25 20.85 140.3 22.65 136.3 24.45 124.1 25.8 111.95 27.15 115.55 27.6 119.15 28.05 122.7 28.8 126.5 29.65 126.4 30.45 126.55 31.35 118.8 32.8 121.25 33.2 121.2 33.8 126.35 34.15 123.75 35.6 122.25 37.45 103.3 38.3 110.75 40.4 108.05 41.5 105.15 44.1 106.5 45.1 107.25 46.5 103.15 47.4 100.2 48.4 91.9 48.8 L77.3 49.3 Q73.0 49.3 68.2 49.7 65.25 50.1 71.95 48.25 78.35 46.4 68.9 45.75 60.65 45.0 52.7 44.7 45.45 44.3 44.25 43.15 43.15 42.0 52.0 39.1 40.8 40.45 37.9 40.05 21.05 40.45 31.35 37.7 29.9 37.0 35.45 35.35 L25.25 34.6 Q23.1 34.2 20.9 33.75 19.25 33.3 15.2 32.85 11.0 32.35 15.25 30.55 19.6 28.95 26.05 28.35 32.45 27.65 22.75 26.1 13.3 24.4 27.25 23.65 41.05 22.4 30.3 21.7 20.75 21.1 12.65 19.85 4.6 18.55 5.1 17.0" fill="none" stroke="#000000" stroke-linecap="round" stroke-linejoin="round" stroke-opacity="0.0" stroke-width="1.0"/>
    </g>
    <g id="morphshape1" transform="matrix(1.0, 0.0, 0.0, 1.0, -17.5, -9.15)">
      <path d="M125.5 22.2 Q125.5 22.95 125.95 23.65 126.7 24.7 129.55 24.45 L128.8 22.25 Q127.8 21.9 125.5 22.2 M102.1 32.6 Q102.1 32.95 103.2 33.75 L106.5 33.85 108.65 32.85 Q110.85 31.8 111.25 31.3 L109.75 30.1 105.55 29.7 Q102.1 29.9 102.1 32.6 M88.75 42.2 L88.75 42.25 89.2 43.05 Q90.4 43.35 91.75 43.6 L94.3 43.75 98.1 43.6 98.8 43.4 99.2 43.0 99.35 42.25 99.3 41.75 Q99.15 41.0 98.45 40.55 97.3 39.85 92.6 39.95 90.65 40.25 89.15 41.45 L88.7 42.2 M78.3 34.05 L78.6 34.75 Q79.3 35.15 80.45 35.55 L82.5 35.95 85.45 36.05 85.9 35.9 86.2 35.65 86.4 35.1 86.4 34.65 Q86.35 33.9 85.9 33.55 85.1 32.85 81.45 32.75 79.9 32.95 78.55 33.5 L78.35 34.1 M61.6 38.65 L62.15 39.55 68.5 39.95 Q72.55 39.95 75.4 37.7 75.4 35.8 69.35 35.65 63.1 35.55 61.6 38.65 M56.3 41.1 Q56.4 41.55 56.55 41.85 L59.6 41.85 Q60.05 41.6 60.3 40.0 L56.8 40.2 Q56.3 40.55 56.3 41.1 M49.0 34.7 L50.2 35.9 Q52.25 37.05 56.55 37.05 58.1 37.05 59.85 34.9 59.85 31.95 54.45 32.0 49.0 32.05 49.0 34.7 M30.6 29.75 Q30.75 30.3 33.5 31.45 37.0 32.15 40.6 32.2 L44.4 31.45 Q45.45 30.7 45.85 28.65 45.3 25.8 37.7 26.3 30.05 26.75 30.6 29.75 M21.3 12.7 Q21.3 13.15 21.75 13.85 L22.7 14.8 29.55 14.9 Q30.75 14.0 30.75 13.45 30.75 11.6 26.05 11.5 21.3 11.45 21.3 12.7" fill="#bef0d8" fill-opacity="0.7058824" fill-rule="evenodd" stroke="none"/>
      <path d="M21.3 12.7 Q21.3 11.45 26.05 11.5 30.75 11.6 30.75 13.45 30.75 14.0 29.55 14.9 L22.7 14.8 21.75 13.85 Q21.3 13.15 21.3 12.7 M30.6 29.75 Q30.05 26.75 37.7 26.3 45.3 25.8 45.85 28.65 45.45 30.7 44.4 31.45 L40.6 32.2 Q37.0 32.15 33.5 31.45 30.75 30.3 30.6 29.75 M49.0 34.7 Q49.0 32.05 54.45 32.0 59.85 31.95 59.85 34.9 58.1 37.05 56.55 37.05 52.25 37.05 50.2 35.9 L49.0 34.7 M56.3 41.1 Q56.3 40.55 56.8 40.2 L60.3 40.0 Q60.05 41.6 59.6 41.85 L56.55 41.85 Q56.4 41.55 56.3 41.1 M61.6 38.65 Q63.1 35.55 69.35 35.65 75.4 35.8 75.4 37.7 72.55 39.95 68.5 39.95 L62.15 39.55 61.6 38.65 M78.35 34.1 L78.55 33.5 Q79.9 32.95 81.45 32.75 85.1 32.85 85.9 33.55 86.35 33.9 86.4 34.65 L86.4 35.1 86.2 35.65 85.9 35.9 85.45 36.05 82.5 35.95 80.45 35.55 Q79.3 35.15 78.6 34.75 L78.3 34.05 M88.7 42.2 L89.15 41.45 Q90.65 40.25 92.6 39.95 97.3 39.85 98.45 40.55 99.15 41.0 99.3 41.75 L99.35 42.25 99.2 43.0 98.8 43.4 98.1 43.6 94.3 43.75 91.75 43.6 Q90.4 43.35 89.2 43.05 L88.75 42.25 88.75 42.2 M102.1 32.6 Q102.1 29.9 105.55 29.7 L109.75 30.1 111.25 31.3 Q110.85 31.8 108.65 32.85 L106.5 33.85 103.2 33.75 Q102.1 32.95 102.1 32.6 M125.5 22.2 Q127.8 21.9 128.8 22.25 L129.55 24.45 Q126.7 24.7 125.95 23.65 125.5 22.95 125.5 22.2 Z" fill="none" stroke="#000000" stroke-linecap="round" stroke-linejoin="round" stroke-opacity="0.0" stroke-width="1.0"/>
    </g>
    <g id="morphshape2" transform="matrix(1.0, 0.0, 0.0, 1.0, -37.6, -4.7)">
      <path d="M105.85 18.0 Q105.85 19.15 106.1 19.55 L106.9 20.1 Q109.7 19.35 110.7 18.85 111.4 18.35 110.35 15.3 107.95 15.5 106.9 16.15 105.85 16.75 105.85 18.0 M93.0 18.05 Q93.0 19.1 93.6 19.7 L96.65 19.9 Q97.1 18.9 96.85 16.8 L93.1 16.7 93.0 18.05 M91.7 9.75 Q91.7 10.8 92.1 11.7 L98.05 11.7 Q99.1 10.65 99.1 7.15 94.4 6.7 92.75 7.55 91.7 8.15 91.7 9.75 M83.4 17.85 Q83.45 18.8 84.2 20.65 84.85 21.1 86.4 21.25 L87.2 20.05 Q87.7 19.35 87.0 17.55 L83.4 17.85 M76.3 12.75 Q75.9 14.65 76.7 16.15 77.7 17.9 79.95 17.9 81.1 17.9 82.3 16.15 81.45 13.75 79.8 13.1 L76.3 12.75 M64.65 10.5 L64.7 11.95 65.05 12.5 70.5 13.25 73.8 13.65 Q75.55 13.65 74.45 11.2 74.45 8.15 69.55 8.0 64.65 7.9 64.65 10.5 M56.1 19.85 L56.1 19.9 56.2 20.95 56.5 21.3 Q56.9 21.4 57.35 21.45 58.35 21.5 59.5 21.55 L62.9 21.35 Q63.1 20.1 62.55 17.4 61.75 15.9 61.0 15.05 59.75 14.1 58.4 14.55 56.1 15.65 56.1 19.85 M51.45 11.8 L51.5 12.65 51.6 12.85 Q51.8 13.2 52.1 13.25 L53.65 13.55 Q55.15 13.05 55.9 13.0 56.15 11.8 56.05 10.15 55.55 9.0 55.1 8.15 54.15 7.8 53.15 7.95 51.45 8.95 51.45 11.8 M40.15 13.05 L41.25 15.15 Q42.95 17.3 45.95 17.3 49.85 17.3 49.85 14.1 49.85 11.1 45.0 10.3 40.15 9.45 40.15 13.05" fill="#bef0d8" fill-opacity="0.7058824" fill-rule="evenodd" stroke="none"/>
      <path d="M40.15 13.05 Q40.15 9.45 45.0 10.3 49.85 11.1 49.85 14.1 49.85 17.3 45.95 17.3 42.95 17.3 41.25 15.15 L40.15 13.05 M51.45 11.8 Q51.45 8.95 53.15 7.95 54.15 7.8 55.1 8.15 55.55 9.0 56.05 10.15 56.15 11.8 55.9 13.0 55.15 13.05 53.65 13.55 L52.1 13.25 Q51.8 13.2 51.6 12.85 L51.5 12.65 51.45 11.8 M56.1 19.85 Q56.1 15.65 58.4 14.55 59.75 14.1 61.0 15.05 61.75 15.9 62.55 17.4 63.1 20.1 62.9 21.35 L59.5 21.55 Q58.35 21.5 57.35 21.45 56.9 21.4 56.5 21.3 L56.2 20.95 56.1 19.9 56.1 19.85 M64.65 10.5 Q64.65 7.9 69.55 8.0 74.45 8.15 74.45 11.2 75.55 13.65 73.8 13.65 L70.5 13.25 65.05 12.5 64.7 11.95 64.65 10.5 M76.3 12.75 L79.8 13.1 Q81.45 13.75 82.3 16.15 81.1 17.9 79.95 17.9 77.7 17.9 76.7 16.15 75.9 14.65 76.3 12.75 M83.4 17.85 L87.0 17.55 Q87.7 19.35 87.2 20.05 L86.4 21.25 Q84.85 21.1 84.2 20.65 83.45 18.8 83.4 17.85 M91.7 9.75 Q91.7 8.15 92.75 7.55 94.4 6.7 99.1 7.15 99.1 10.65 98.05 11.7 L92.1 11.7 Q91.7 10.8 91.7 9.75 M93.0 18.05 L93.1 16.7 96.85 16.8 Q97.1 18.9 96.65 19.9 L93.6 19.7 Q93.0 19.1 93.0 18.05 M105.85 18.0 Q105.85 16.75 106.9 16.15 107.95 15.5 110.35 15.3 111.4 18.35 110.7 18.85 109.7 19.35 106.9 20.1 L106.1 19.55 Q105.85 19.15 105.85 18.0 Z" fill="none" stroke="#000000" stroke-linecap="round" stroke-linejoin="round" stroke-opacity="0.0" stroke-width="1.0"/>
    </g>
    <g id="morphshape3" transform="matrix(1.0, 0.0, 0.0, 1.0, -32.35, -6.65)">
      <path d="M94.25 8.85 Q94.25 10.0 94.4 10.4 L94.85 11.15 96.85 11.15 97.35 10.65 97.5 9.45 97.25 7.95 Q96.95 7.5 94.4 7.45 94.25 7.1 94.25 8.85 M68.7 10.45 Q68.5 10.85 69.15 11.65 69.5 12.0 70.35 12.2 71.7 12.3 73.05 12.2 73.5 11.7 73.4 11.0 72.65 10.75 69.15 9.95 L68.7 10.45 M65.9 35.7 L66.2 37.65 Q66.4 38.7 66.85 39.55 L70.35 39.55 Q70.55 39.25 70.85 39.1 L70.45 36.0 66.9 35.45 Q66.1 35.4 65.9 35.7 M43.45 14.7 L43.65 16.05 44.0 16.55 45.55 16.6 Q46.6 16.6 47.2 16.15 47.4 16.0 47.4 14.25 47.4 13.1 47.05 12.55 L46.35 11.9 43.55 13.0 43.45 14.7 M36.15 29.2 L36.4 30.2 Q36.75 31.0 37.2 31.3 41.3 30.75 41.3 28.35 41.3 27.25 40.95 26.95 L40.1 26.6 38.35 26.85 36.5 27.0 36.15 29.2" fill="#ffffff" fill-opacity="0.7058824" fill-rule="evenodd" stroke="none"/>
      <path d="M36.15 29.2 L36.5 27.0 38.35 26.85 40.1 26.6 40.95 26.95 Q41.3 27.25 41.3 28.35 41.3 30.75 37.2 31.3 36.75 31.0 36.4 30.2 L36.15 29.2 M43.45 14.7 L43.55 13.0 46.35 11.9 47.05 12.55 Q47.4 13.1 47.4 14.25 47.4 16.0 47.2 16.15 46.6 16.6 45.55 16.6 L44.0 16.55 43.65 16.05 43.45 14.7 M65.9 35.7 Q66.1 35.4 66.9 35.45 L70.45 36.0 70.85 39.1 Q70.55 39.25 70.35 39.55 L66.85 39.55 Q66.4 38.7 66.2 37.65 L65.9 35.7 M68.7 10.45 L69.15 9.95 Q72.65 10.75 73.4 11.0 73.5 11.7 73.05 12.2 71.7 12.3 70.35 12.2 69.5 12.0 69.15 11.65 68.5 10.85 68.7 10.45 M94.25 8.85 Q94.25 7.1 94.4 7.45 96.95 7.5 97.25 7.95 L97.5 9.45 97.35 10.65 96.85 11.15 94.85 11.15 94.4 10.4 Q94.25 10.0 94.25 8.85 Z" fill="none" stroke="#000000" stroke-linecap="round" stroke-linejoin="round" stroke-opacity="0.0" stroke-width="1.0"/>
    </g>
  </defs>
</svg>
