<?xml version="1.0" encoding="UTF-8" standalone="no"?>
<svg xmlns:xlink="http://www.w3.org/1999/xlink" height="47.45px" width="141.0px" xmlns="http://www.w3.org/2000/svg">
  <g transform="matrix(1.0, 0.0, 0.0, 1.0, -4.35, -2.9)">
    <use data-characterId="3192" height="47.45" transform="matrix(1.0, 0.0, 0.0, 1.0, 4.35, 2.9)" width="141.0" xlink:href="#morphshape0"/>
    <use data-characterId="3193" height="37.5" transform="matrix(1.0, 0.0, 0.0, 1.0, 17.5, 9.15)" width="116.05" xlink:href="#morphshape1"/>
    <use data-characterId="3194" height="21.8" transform="matrix(1.0, 0.0, 0.0, 1.0, 37.6, 4.7)" width="75.1" xlink:href="#morphshape2"/>
    <use data-characterId="3195" height="35.65" transform="matrix(1.0, 0.0, 0.0, 1.0, 32.35, 6.65)" width="66.65" xlink:href="#morphshape3"/>
  </g>
  <defs>
    <g id="morphshape0" transform="matrix(1.0, 0.0, 0.0, 1.0, -4.35, -2.9)">
      <path d="M5.0 18.95 Q5.45 20.45 9.2 21.3 13.0 21.95 17.15 22.4 25.1 23.3 22.65 25.5 19.65 26.2 20.25 27.6 21.55 28.45 19.9 29.4 18.25 30.1 17.55 31.15 17.2 32.95 19.3 33.6 20.95 34.1 22.95 34.3 26.7 34.55 29.0 35.5 L31.15 36.65 Q29.5 38.7 34.7 39.65 35.6 40.35 42.7 40.35 42.65 41.4 45.2 41.85 43.15 43.3 46.35 44.7 49.85 46.25 54.7 46.4 58.0 46.45 62.45 47.95 67.15 49.4 67.85 49.8 67.75 50.2 72.3 48.9 77.45 47.55 81.2 47.4 L90.2 46.5 Q94.7 46.1 97.9 45.55 104.7 45.55 107.4 42.9 108.25 41.7 109.4 39.95 114.7 39.15 114.15 37.85 121.4 35.55 118.25 34.1 118.55 33.7 117.15 33.55 125.05 32.15 125.1 31.4 127.45 30.35 125.35 29.4 124.1 28.75 121.95 28.15 120.7 27.8 124.7 26.85 128.7 25.9 132.55 23.8 136.45 21.7 135.2 20.3 133.85 18.8 127.5 18.55 124.95 18.3 123.0 18.35 L122.5 18.35 121.9 18.1 Q125.55 16.35 122.65 14.75 122.4 14.25 118.6 13.8 117.55 13.5 116.15 13.45 117.3 9.75 109.7 7.5 98.55 3.85 75.7 3.35 58.85 2.85 38.05 5.55 19.1 8.1 15.9 11.05 12.05 12.15 12.95 12.85 13.85 13.5 17.1 14.15 20.15 14.65 18.3 14.95 16.7 15.0 15.2 15.2 L6.4 16.1 4.85 16.3 Q4.1 17.65 4.75 19.0" fill="#96e0bc" fill-opacity="0.7058824" fill-rule="evenodd" stroke="none"/>
      <path d="M4.75 19.0 Q4.1 17.65 4.85 16.3 L6.4 16.1 15.2 15.2 Q16.7 15.0 18.3 14.95 20.15 14.65 17.1 14.15 13.85 13.5 12.95 12.85 12.05 12.15 15.9 11.05 19.1 8.1 38.05 5.55 58.85 2.85 75.7 3.35 98.55 3.85 109.7 7.5 117.3 9.75 116.15 13.45 117.55 13.5 118.6 13.8 122.4 14.25 122.65 14.75 125.55 16.35 121.9 18.1 L122.5 18.35 123.0 18.35 Q124.95 18.3 127.5 18.55 133.85 18.8 135.2 20.3 136.45 21.7 132.55 23.8 128.7 25.9 124.7 26.85 120.7 27.8 121.95 28.15 124.1 28.75 125.35 29.4 127.45 30.35 125.1 31.4 125.05 32.15 117.15 33.55 118.55 33.7 118.25 34.1 121.4 35.55 114.15 37.85 114.7 39.15 109.4 39.95 108.25 41.7 107.4 42.9 104.7 45.55 97.9 45.55 94.7 46.1 90.2 46.5 L81.2 47.4 Q77.45 47.55 72.3 48.9 67.75 50.2 67.85 49.8 67.15 49.4 62.45 47.95 58.0 46.45 54.7 46.4 49.85 46.25 46.35 44.7 43.15 43.3 45.2 41.85 42.65 41.4 42.7 40.35 35.6 40.35 34.7 39.65 29.5 38.7 31.15 36.65 L29.0 35.5 Q26.7 34.55 22.95 34.3 20.95 34.1 19.3 33.6 17.2 32.95 17.55 31.15 18.25 30.1 19.9 29.4 21.55 28.45 20.25 27.6 19.65 26.2 22.65 25.5 25.1 23.3 17.15 22.4 13.0 21.95 9.2 21.3 5.45 20.45 5.0 18.95" fill="none" stroke="#000000" stroke-linecap="round" stroke-linejoin="round" stroke-opacity="0.0" stroke-width="1.0"/>
    </g>
    <g id="morphshape1" transform="matrix(1.0, 0.0, 0.0, 1.0, -17.5, -9.15)">
      <path d="M117.05 23.3 Q117.05 24.05 117.5 24.75 118.25 25.8 121.1 25.55 L120.35 23.35 Q119.35 23.0 117.05 23.3 M100.05 29.45 Q100.05 29.8 101.15 30.6 L104.45 30.7 106.6 29.7 Q108.8 28.65 109.2 28.15 L107.7 26.95 103.5 26.55 Q100.05 26.75 100.05 29.45 M85.65 35.6 L85.65 35.7 85.9 36.25 Q86.5 36.7 87.6 37.1 L89.55 37.5 92.35 37.6 92.8 37.45 93.05 37.2 93.25 36.7 93.25 36.25 Q93.2 35.55 92.75 35.2 92.0 34.55 88.55 34.4 87.1 34.6 85.8 35.0 L85.65 35.55 M75.85 40.45 L76.35 41.3 Q77.65 41.55 79.05 41.8 L81.7 41.95 85.65 41.8 86.35 41.6 86.8 41.2 86.95 40.4 86.9 39.9 Q86.75 39.1 86.05 38.65 84.85 37.9 79.95 38.05 77.9 38.35 76.35 39.7 L75.85 40.5 M62.35 33.25 L62.9 34.15 69.25 34.55 Q73.3 34.55 76.15 32.3 76.15 30.4 70.1 30.25 63.85 30.15 62.35 33.25 M60.6 42.05 Q60.65 42.55 60.85 42.8 L63.9 42.8 Q64.35 42.55 64.6 40.95 L61.1 41.15 Q60.6 41.5 60.6 42.05 M49.0 36.5 L50.2 37.7 Q52.25 38.85 56.55 38.85 58.1 38.85 59.85 36.7 59.85 33.75 54.45 33.8 49.0 33.85 49.0 36.5 M27.4 28.6 Q27.45 29.2 30.05 30.75 33.3 32.55 36.95 32.5 L40.8 32.35 Q41.95 31.8 42.6 29.8 42.45 26.9 34.85 26.25 27.2 25.6 27.35 28.65 M18.35 17.8 Q18.35 18.25 18.8 18.95 L19.75 19.9 26.6 20.0 Q27.8 19.1 27.8 18.55 27.8 16.7 23.1 16.6 18.35 16.55 18.35 17.8" fill="#bef0d8" fill-opacity="0.7058824" fill-rule="evenodd" stroke="none"/>
      <path d="M18.35 17.8 Q18.35 16.55 23.1 16.6 27.8 16.7 27.8 18.55 27.8 19.1 26.6 20.0 L19.75 19.9 18.8 18.95 Q18.35 18.25 18.35 17.8 M27.35 28.65 Q27.2 25.6 34.85 26.25 42.45 26.9 42.6 29.8 41.95 31.8 40.8 32.35 L36.95 32.5 Q33.3 32.55 30.05 30.75 27.45 29.2 27.4 28.6 M49.0 36.5 Q49.0 33.85 54.45 33.8 59.85 33.75 59.85 36.7 58.1 38.85 56.55 38.85 52.25 38.85 50.2 37.7 L49.0 36.5 M60.6 42.05 Q60.6 41.5 61.1 41.15 L64.6 40.95 Q64.35 42.55 63.9 42.8 L60.85 42.8 Q60.65 42.55 60.6 42.05 M62.35 33.25 Q63.85 30.15 70.1 30.25 76.15 30.4 76.15 32.3 73.3 34.55 69.25 34.55 L62.9 34.15 62.35 33.25 M75.85 40.5 L76.35 39.7 Q77.9 38.35 79.95 38.05 84.85 37.9 86.05 38.65 86.75 39.1 86.9 39.9 L86.95 40.4 86.8 41.2 86.35 41.6 85.65 41.8 81.7 41.95 79.05 41.8 Q77.65 41.55 76.35 41.3 L75.85 40.45 M85.65 35.55 L85.8 35.0 Q87.1 34.6 88.55 34.4 92.0 34.55 92.75 35.2 93.2 35.55 93.25 36.25 L93.25 36.7 93.05 37.2 92.8 37.45 92.35 37.6 89.55 37.5 87.6 37.1 Q86.5 36.7 85.9 36.25 L85.65 35.7 85.65 35.6 M100.05 29.45 Q100.05 26.75 103.5 26.55 L107.7 26.95 109.2 28.15 Q108.8 28.65 106.6 29.7 L104.45 30.7 101.15 30.6 Q100.05 29.8 100.05 29.45 M117.05 23.3 Q119.35 23.0 120.35 23.35 L121.1 25.55 Q118.25 25.8 117.5 24.75 117.05 24.05 117.05 23.3 Z" fill="none" stroke="#000000" stroke-linecap="round" stroke-linejoin="round" stroke-opacity="0.0" stroke-width="1.0"/>
    </g>
    <g id="morphshape2" transform="matrix(1.0, 0.0, 0.0, 1.0, -37.6, -4.7)">
      <path d="M102.25 15.3 Q102.25 16.45 102.5 16.85 L103.3 17.4 Q105.4 16.7 107.1 16.15 107.8 15.65 106.75 12.6 104.35 12.8 103.3 13.45 102.25 14.05 102.25 15.3 M90.3 21.3 Q90.3 22.35 90.9 22.95 L93.95 23.15 Q94.4 22.15 94.15 20.05 L90.4 19.95 90.3 21.3 M88.75 11.55 Q88.75 12.6 89.15 13.5 L95.1 13.5 Q96.15 12.45 96.15 8.95 91.45 8.5 89.8 9.35 88.75 9.95 88.75 11.55 M80.45 21.9 Q80.5 22.85 81.25 24.7 81.9 25.15 83.45 25.3 L84.25 24.1 Q84.75 23.4 84.05 21.6 L80.45 21.9 M78.2 7.7 Q77.8 9.6 78.6 11.1 79.6 12.85 81.85 12.85 83.0 12.85 84.2 11.1 83.35 8.7 81.7 8.05 L78.2 7.7 M66.35 13.45 L66.4 14.9 66.75 15.45 72.2 16.2 75.5 16.6 Q77.25 16.6 76.15 14.15 76.15 11.1 71.25 10.95 66.35 10.85 66.35 13.45 M55.95 12.65 L55.95 12.8 56.0 13.45 56.05 13.6 Q56.2 13.95 56.45 14.05 56.85 14.2 57.85 14.35 L59.85 13.75 Q60.1 12.55 60.1 11.1 59.7 10.05 59.35 9.2 58.45 9.0 57.55 9.1 55.95 10.05 55.95 12.65 M48.75 20.55 L48.85 21.7 49.2 22.1 Q49.65 22.2 50.15 22.2 L52.45 22.25 Q54.35 22.15 56.1 22.15 56.3 20.9 55.65 18.0 54.75 16.4 53.9 15.55 52.6 14.45 51.15 14.95 48.75 16.1 48.75 20.55 M38.2 10.8 L39.3 12.9 Q41.0 15.05 44.0 15.05 47.9 15.05 47.9 11.85 47.9 8.85 43.05 8.05 38.2 7.2 38.2 10.8" fill="#bef0d8" fill-opacity="0.7058824" fill-rule="evenodd" stroke="none"/>
      <path d="M38.2 10.8 Q38.2 7.2 43.05 8.05 47.9 8.85 47.9 11.85 47.9 15.05 44.0 15.05 41.0 15.05 39.3 12.9 L38.2 10.8 M48.75 20.55 Q48.75 16.1 51.15 14.95 52.6 14.45 53.9 15.55 54.75 16.4 55.65 18.0 56.3 20.9 56.1 22.15 54.35 22.15 52.45 22.25 L50.15 22.2 Q49.65 22.2 49.2 22.1 L48.85 21.7 48.75 20.55 M55.95 12.65 Q55.95 10.05 57.55 9.1 58.45 9.0 59.35 9.2 59.7 10.05 60.1 11.1 60.1 12.55 59.85 13.75 L57.85 14.35 Q56.85 14.2 56.45 14.05 56.2 13.95 56.05 13.6 L56.0 13.45 55.95 12.8 55.95 12.65 M66.35 13.45 Q66.35 10.85 71.25 10.95 76.15 11.1 76.15 14.15 77.25 16.6 75.5 16.6 L72.2 16.2 66.75 15.45 66.4 14.9 66.35 13.45 M78.2 7.7 L81.7 8.05 Q83.35 8.7 84.2 11.1 83.0 12.85 81.85 12.85 79.6 12.85 78.6 11.1 77.8 9.6 78.2 7.7 M80.45 21.9 L84.05 21.6 Q84.75 23.4 84.25 24.1 L83.45 25.3 Q81.9 25.15 81.25 24.7 80.5 22.85 80.45 21.9 M88.75 11.55 Q88.75 9.95 89.8 9.35 91.45 8.5 96.15 8.95 96.15 12.45 95.1 13.5 L89.15 13.5 Q88.75 12.6 88.75 11.55 M90.3 21.3 L90.4 19.95 94.15 20.05 Q94.4 22.15 93.95 23.15 L90.9 22.95 Q90.3 22.35 90.3 21.3 M102.25 15.3 Q102.25 14.05 103.3 13.45 104.35 12.8 106.75 12.6 107.8 15.65 107.1 16.15 105.4 16.7 103.3 17.4 L102.5 16.85 Q102.25 16.45 102.25 15.3 Z" fill="none" stroke="#000000" stroke-linecap="round" stroke-linejoin="round" stroke-opacity="0.0" stroke-width="1.0"/>
    </g>
    <g id="morphshape3" transform="matrix(1.0, 0.0, 0.0, 1.0, -32.35, -6.65)">
      <path d="M90.95 10.45 Q90.95 11.6 91.1 12.0 L91.55 12.75 93.55 12.75 94.05 12.25 94.2 11.05 93.95 9.55 Q93.65 9.1 91.1 9.05 90.95 8.7 90.95 10.45 M69.3 13.6 Q69.2 14.05 70.05 14.6 70.65 14.7 71.35 14.75 72.6 14.6 73.95 13.9 74.25 13.3 73.95 12.65 72.05 12.85 69.55 12.9 L69.3 13.55 M66.2 29.8 L66.5 31.75 Q66.7 32.8 67.15 33.65 L70.65 33.65 Q70.9 33.4 71.15 33.2 L70.75 30.1 67.2 29.55 Q66.4 29.5 66.2 29.8 M40.9 13.35 L41.1 14.7 41.45 15.2 43.0 15.25 Q44.05 15.25 44.65 14.8 44.85 14.65 44.85 12.9 44.85 11.75 44.5 11.2 L43.8 10.55 41.0 11.65 40.9 13.35 M33.25 29.2 L33.5 30.2 Q33.85 31.0 34.3 31.3 38.4 30.75 38.4 28.35 38.4 27.25 38.05 26.95 L37.2 26.6 35.45 26.85 33.6 27.0 33.25 29.2" fill="#ffffff" fill-opacity="0.7058824" fill-rule="evenodd" stroke="none"/>
      <path d="M33.25 29.2 L33.6 27.0 35.45 26.85 37.2 26.6 38.05 26.95 Q38.4 27.25 38.4 28.35 38.4 30.75 34.3 31.3 33.85 31.0 33.5 30.2 L33.25 29.2 M40.9 13.35 L41.0 11.65 43.8 10.55 44.5 11.2 Q44.85 11.75 44.85 12.9 44.85 14.65 44.65 14.8 44.05 15.25 43.0 15.25 L41.45 15.2 41.1 14.7 40.9 13.35 M66.2 29.8 Q66.4 29.5 67.2 29.55 L70.75 30.1 71.15 33.2 Q70.9 33.4 70.65 33.65 L67.15 33.65 Q66.7 32.8 66.5 31.75 L66.2 29.8 M69.3 13.55 L69.55 12.9 Q72.05 12.85 73.95 12.65 74.25 13.3 73.95 13.9 72.6 14.6 71.35 14.75 70.65 14.7 70.05 14.6 69.2 14.05 69.3 13.6 M90.95 10.45 Q90.95 8.7 91.1 9.05 93.65 9.1 93.95 9.55 L94.2 11.05 94.05 12.25 93.55 12.75 91.55 12.75 91.1 12.0 Q90.95 11.6 90.95 10.45 Z" fill="none" stroke="#000000" stroke-linecap="round" stroke-linejoin="round" stroke-opacity="0.0" stroke-width="1.0"/>
    </g>
  </defs>
</svg>
