<?xml version="1.0" encoding="UTF-8" standalone="no"?>
<svg xmlns:xlink="http://www.w3.org/1999/xlink" height="47.45px" width="141.0px" xmlns="http://www.w3.org/2000/svg">
  <g transform="matrix(1.0, 0.0, 0.0, 1.0, -4.35, -2.9)">
    <use data-characterId="3196" height="47.35" transform="matrix(1.0, 0.0, 0.0, 1.0, 4.35, 2.9)" width="131.1" xlink:href="#shape0"/>
  </g>
  <defs>
    <g id="shape0" transform="matrix(1.0, 0.0, 0.0, 1.0, -4.35, -2.9)">
      <path d="M121.7 18.15 L122.4 18.45 122.55 18.45 124.9 18.35 Q130.65 18.3 133.6 19.7 136.4 21.0 135.0 23.3 133.6 25.6 127.35 26.7 121.05 27.8 121.6 28.0 L124.9 29.15 Q127.6 30.1 126.85 31.0 126.05 31.85 115.8 33.5 L116.45 33.7 Q120.95 35.05 117.15 37.8 115.65 38.85 109.55 39.55 108.9 41.05 107.4 42.3 103.7 45.3 96.1 45.05 L89.45 45.85 82.15 46.85 Q78.6 47.05 73.35 48.7 68.3 50.25 66.45 50.25 63.6 50.25 60.35 48.55 57.05 46.85 55.1 46.85 51.0 46.8 46.8 45.15 43.0 43.65 43.0 42.6 43.0 41.6 43.95 40.35 L35.5 40.15 Q29.15 39.15 29.65 37.0 L29.9 35.7 Q27.55 34.6 23.35 34.4 21.25 34.25 20.3 33.75 18.85 33.05 18.05 31.25 17.65 30.35 17.85 29.6 18.05 28.6 19.25 27.95 21.3 26.65 21.05 26.0 20.1 23.5 13.0 22.55 L7.9 21.7 Q5.45 21.0 4.75 19.55 3.95 17.9 4.85 16.3 L4.9 16.3 13.85 15.25 Q14.1 15.05 14.5 15.0 15.2 14.7 15.05 14.3 L14.35 13.2 13.65 12.0 Q12.55 9.2 31.45 6.15 51.1 2.9 70.25 2.9 96.65 2.9 108.35 6.4 117.5 9.1 116.1 13.55 L116.1 13.6 122.75 14.15 Q126.15 16.05 121.7 18.15" fill="#96e0bc" fill-opacity="0.7058824" fill-rule="evenodd" stroke="none"/>
      <path d="M117.8 23.7 Q118.65 24.0 118.65 24.95 L118.55 25.9 117.25 26.15 Q115.7 26.15 114.95 25.1 114.5 24.4 114.5 23.65 116.8 23.35 117.8 23.7 M99.45 28.5 Q99.45 25.8 102.9 25.6 L107.1 26.0 108.5 26.8 108.6 27.2 Q108.2 27.7 106.0 28.75 L103.85 29.75 100.55 29.65 99.75 29.1 Q99.45 28.85 99.45 28.5 M91.2 35.55 L90.65 35.85 Q88.15 35.85 86.4 35.15 84.75 34.45 84.75 33.6 L84.8 33.1 84.95 32.9 87.35 32.8 Q90.2 32.8 91.05 33.65 91.4 33.95 91.4 34.65 L91.2 35.55 M81.45 43.75 L75.65 43.3 75.1 42.4 Q76.7 39.35 81.95 39.4 87.15 39.4 87.15 41.95 87.15 42.95 86.5 43.25 L81.45 43.75 M41.3 31.55 L39.7 32.6 35.8 32.6 Q32.15 32.7 28.95 30.55 26.4 28.9 26.4 28.3 26.4 25.25 34.05 26.25 41.65 27.25 41.65 30.15 41.65 31.05 41.3 31.55 M54.45 34.35 Q59.85 34.3 59.85 37.25 59.85 38.0 59.05 38.65 58.1 39.4 56.55 39.4 52.25 39.4 50.2 38.25 L49.0 37.05 Q49.0 34.4 54.45 34.35 M75.25 32.1 Q73.5 32.95 69.45 32.95 L63.1 32.55 62.55 31.65 Q64.05 28.55 70.3 28.65 76.35 28.8 76.35 30.7 76.35 31.55 75.25 32.1 M65.85 41.2 L65.95 42.0 65.85 42.8 65.15 43.05 62.1 43.05 62.0 42.9 Q61.85 42.8 61.85 42.3 61.85 41.75 62.35 41.4 L65.85 41.2 M25.75 21.5 L18.9 21.4 17.95 20.45 Q17.5 19.75 17.5 19.3 17.5 18.05 22.25 18.1 26.95 18.2 26.95 20.05 26.95 20.6 25.75 21.5" fill="#bef0d8" fill-opacity="0.7058824" fill-rule="evenodd" stroke="none"/>
      <path d="M101.45 16.05 Q101.2 15.65 101.2 14.5 101.2 13.25 102.25 12.65 103.3 12.0 105.7 11.8 L106.4 12.2 Q106.75 12.45 106.75 13.55 106.75 14.85 106.05 15.35 L102.25 16.6 101.45 16.05 M95.6 11.2 Q95.25 12.95 94.2 14.0 L88.25 14.0 88.05 13.55 87.85 12.05 Q87.85 10.45 88.9 9.85 90.55 9.0 95.25 9.45 L95.6 11.2 M84.15 10.75 Q83.55 11.35 82.4 11.35 80.15 11.35 79.15 9.6 78.35 8.1 78.75 6.2 L82.25 6.55 Q83.9 7.2 84.75 9.6 L84.15 10.75 M89.6 20.95 L89.65 20.9 93.35 21.05 93.7 22.4 93.15 24.15 90.1 23.95 89.65 23.5 Q89.5 23.35 89.5 22.3 L89.6 20.95 M83.8 22.65 L83.9 23.6 Q83.9 24.6 83.4 25.3 L82.6 26.5 Q81.05 26.35 80.4 25.9 L79.7 25.0 79.6 23.1 83.2 22.8 83.2 22.65 83.8 22.65 M66.85 14.35 Q66.85 11.75 71.75 11.85 76.65 12.0 76.65 15.05 L76.6 16.2 76.35 16.95 Q77.75 17.5 76.0 17.5 L72.7 17.1 67.25 16.35 66.9 15.8 66.85 14.35 M58.95 11.6 L57.4 12.25 Q56.45 12.05 56.2 11.85 55.9 11.65 55.9 10.5 55.9 8.35 57.4 7.5 L58.85 7.5 59.4 9.25 58.95 11.6 M47.3 11.2 Q47.3 14.4 43.4 14.4 40.4 14.4 38.7 12.25 L37.6 10.15 Q37.6 6.55 42.45 7.4 47.3 8.2 47.3 11.2 M47.95 23.15 Q47.95 18.2 50.55 17.0 53.45 15.7 56.5 22.2 L56.15 24.85 48.45 24.85 48.05 24.4 47.95 23.15" fill="#bef0d8" fill-opacity="0.7058824" fill-rule="evenodd" stroke="none"/>
      <path d="M93.25 11.55 L93.1 12.75 92.95 12.6 92.6 13.25 90.6 13.25 90.15 12.5 Q90.0 12.1 90.0 10.95 90.0 9.2 90.15 9.55 90.55 9.4 92.7 9.55 L93.0 10.05 93.25 11.55 M74.2 14.45 Q72.85 15.3 71.65 15.5 L70.3 15.45 Q69.4 14.95 69.45 14.5 L69.65 13.8 Q70.8 13.15 72.35 13.05 L74.1 13.15 Q74.45 13.8 74.2 14.45 M41.5 10.45 L43.05 10.15 43.75 10.8 Q44.1 11.35 44.1 12.5 44.1 14.25 43.9 14.4 L43.6 14.65 42.25 14.85 40.7 14.8 40.5 14.7 40.35 14.3 40.15 12.95 40.25 11.25 40.65 10.3 41.5 10.45 M71.1 31.3 L70.75 31.9 67.25 31.9 Q66.8 31.05 66.6 30.0 L66.3 28.05 Q66.5 27.75 67.3 27.8 L70.85 28.35 71.15 28.8 71.4 30.25 71.25 31.45 71.1 31.3 M34.55 26.85 L36.3 26.6 37.15 26.95 Q37.5 27.25 37.5 28.35 37.5 30.75 33.4 31.3 32.95 31.0 32.6 30.2 L32.35 29.2 32.7 27.0 34.55 26.85" fill="#ffffff" fill-opacity="0.7058824" fill-rule="evenodd" stroke="none"/>
    </g>
  </defs>
</svg>
