<?xml version="1.0" encoding="UTF-8" standalone="no"?>
<svg xmlns:xlink="http://www.w3.org/1999/xlink" height="47.45px" width="141.0px" xmlns="http://www.w3.org/2000/svg">
  <g transform="matrix(1.0, 0.0, 0.0, 1.0, -4.35, -2.9)">
    <use data-characterId="3188" height="47.45" transform="matrix(1.0, 0.0, 0.0, 1.0, 4.35, 2.9)" width="141.0" xlink:href="#morphshape0"/>
    <use data-characterId="3189" height="37.5" transform="matrix(1.0, 0.0, 0.0, 1.0, 17.5, 9.15)" width="116.05" xlink:href="#morphshape1"/>
    <use data-characterId="3190" height="21.8" transform="matrix(1.0, 0.0, 0.0, 1.0, 37.6, 4.7)" width="75.1" xlink:href="#morphshape2"/>
    <use data-characterId="3191" height="35.65" transform="matrix(1.0, 0.0, 0.0, 1.0, 32.35, 6.65)" width="66.65" xlink:href="#morphshape3"/>
  </g>
  <defs>
    <g id="morphshape0" transform="matrix(1.0, 0.0, 0.0, 1.0, -4.35, -2.9)">
      <path d="M4.8 19.25 Q5.3 20.7 8.65 21.5 12.1 22.1 15.75 22.55 23.45 23.45 22.1 25.75 20.1 26.4 19.85 27.75 20.35 28.55 19.15 29.5 17.95 30.25 17.6 31.25 17.6 33.05 19.5 33.7 20.95 34.2 23.0 34.4 26.9 34.65 29.2 35.65 L30.6 36.85 Q29.3 38.9 34.85 39.85 36.8 40.35 43.0 40.35 42.65 41.45 44.4 42.1 43.0 43.45 46.35 44.9 50.05 46.45 54.65 46.55 57.55 46.6 61.65 48.15 65.9 49.7 67.3 50.0 67.8 50.3 72.5 48.95 77.7 47.5 81.35 47.35 L89.8 46.45 Q93.95 46.05 97.2 45.55 104.25 45.6 107.25 42.85 108.3 41.65 109.3 40.0 114.85 39.25 114.95 38.05 121.15 35.6 117.6 34.15 117.7 33.85 116.65 33.7 125.3 32.2 125.6 31.4 127.45 30.4 125.15 29.45 123.8 28.8 121.8 28.2 120.8 27.9 125.55 26.9 130.25 25.9 133.35 23.75 136.45 21.6 134.7 20.2 132.85 18.75 126.7 18.6 124.55 18.45 122.85 18.5 L122.45 18.5 121.8 18.25 Q125.7 16.4 122.65 14.7 121.45 14.25 117.8 13.85 117.1 13.65 116.15 13.65 117.4 9.7 109.3 7.3 97.95 3.7 74.0 3.35 56.45 3.0 36.0 5.85 17.05 8.55 15.2 11.45 12.65 12.4 13.4 13.05 14.15 13.65 16.5 14.25 18.65 14.7 17.15 15.0 15.9 15.05 14.8 15.25 L5.95 16.2 4.85 16.3 Q4.05 17.7 4.75 19.15" fill="#96e0bc" fill-opacity="0.7058824" fill-rule="evenodd" stroke="none"/>
      <path d="M4.75 19.15 Q4.05 17.7 4.85 16.3 L5.95 16.2 14.8 15.25 Q15.9 15.05 17.15 15.0 18.65 14.7 16.5 14.25 14.15 13.65 13.4 13.05 12.65 12.4 15.2 11.45 17.05 8.55 36.0 5.85 56.45 3.0 74.0 3.35 97.95 3.7 109.3 7.3 117.4 9.7 116.15 13.65 117.1 13.65 117.8 13.85 121.45 14.25 122.65 14.7 125.7 16.4 121.8 18.25 L122.45 18.5 122.85 18.5 Q124.55 18.45 126.7 18.6 132.85 18.75 134.7 20.2 136.45 21.6 133.35 23.75 130.25 25.9 125.55 26.9 120.8 27.9 121.8 28.2 123.8 28.8 125.15 29.45 127.45 30.4 125.6 31.4 125.3 32.2 116.65 33.7 117.7 33.85 117.6 34.15 121.15 35.6 114.95 38.05 114.85 39.25 109.3 40.0 108.3 41.65 107.25 42.85 104.25 45.6 97.2 45.55 93.95 46.05 89.8 46.45 L81.35 47.35 Q77.7 47.5 72.5 48.95 67.8 50.3 67.3 50.0 65.9 49.7 61.65 48.15 57.55 46.6 54.65 46.55 50.05 46.45 46.35 44.9 43.0 43.45 44.4 42.1 42.65 41.45 43.0 40.35 36.8 40.35 34.85 39.85 29.3 38.9 30.6 36.85 L29.2 35.65 Q26.9 34.65 23.0 34.4 20.95 34.2 19.5 33.7 17.6 33.05 17.6 31.25 17.95 30.25 19.15 29.5 20.35 28.55 19.85 27.75 20.1 26.4 22.1 25.75 23.45 23.45 15.75 22.55 12.1 22.1 8.65 21.5 5.3 20.7 4.8 19.25" fill="none" stroke="#000000" stroke-linecap="round" stroke-linejoin="round" stroke-opacity="0.0" stroke-width="1.0"/>
    </g>
    <g id="morphshape1" transform="matrix(1.0, 0.0, 0.0, 1.0, -17.5, -9.15)">
      <path d="M116.25 23.4 Q116.25 24.15 116.7 24.85 117.45 25.9 120.3 25.65 L119.55 23.45 Q118.55 23.1 116.25 23.4 M99.85 29.15 Q99.85 29.5 100.95 30.3 L104.25 30.4 106.4 29.4 Q108.6 28.35 109.0 27.85 L107.5 26.65 103.3 26.25 Q99.85 26.45 99.85 29.15 M85.3 34.95 L85.55 35.6 Q86.1 36.05 87.2 36.45 L89.1 36.9 91.8 37.05 92.2 36.95 92.45 36.7 92.65 36.2 92.65 35.75 Q92.65 35.05 92.25 34.75 91.5 34.1 88.2 33.95 86.8 34.1 85.5 34.4 L85.4 34.95 M75.7 41.1 L75.7 41.1 76.2 41.95 Q77.55 42.2 78.95 42.45 L81.65 42.55 85.7 42.35 86.45 42.1 86.9 41.7 87.05 40.9 87.0 40.4 Q86.8 39.6 86.05 39.1 84.85 38.35 79.8 38.5 77.7 38.85 76.15 40.3 L75.6 41.1 M62.4 32.75 L62.95 33.65 69.3 34.05 Q73.35 34.05 76.2 31.8 76.2 29.9 70.15 29.75 63.9 29.65 62.4 32.75 M60.95 42.1 Q60.95 42.6 61.2 42.85 L64.25 42.85 Q64.7 42.6 64.95 41.0 L61.45 41.2 Q60.95 41.55 60.95 42.1 M49.0 36.7 L50.2 37.9 Q52.25 39.05 56.55 39.05 58.1 39.05 59.85 36.9 59.85 33.95 54.45 34.0 49.0 34.05 49.0 36.7 M27.0 28.55 Q27.0 29.15 29.6 30.7 32.85 32.6 36.5 32.5 L40.4 32.4 Q41.6 31.85 42.3 29.9 42.2 27.0 34.6 26.25 26.95 25.5 27.05 28.55 M18.1 18.25 Q18.1 18.7 18.55 19.4 L19.5 20.35 26.35 20.45 Q27.55 19.55 27.55 19.0 27.55 17.15 22.85 17.05 18.1 17.0 18.1 18.25" fill="#bef0d8" fill-opacity="0.7058824" fill-rule="evenodd" stroke="none"/>
      <path d="M18.1 18.25 Q18.1 17.0 22.85 17.05 27.55 17.15 27.55 19.0 27.55 19.55 26.35 20.45 L19.5 20.35 18.55 19.4 Q18.1 18.7 18.1 18.25 M27.05 28.55 Q26.95 25.5 34.6 26.25 42.2 27.0 42.3 29.9 41.6 31.85 40.4 32.4 L36.5 32.5 Q32.85 32.6 29.6 30.7 27.0 29.15 27.0 28.55 M49.0 36.7 Q49.0 34.05 54.45 34.0 59.85 33.95 59.85 36.9 58.1 39.05 56.55 39.05 52.25 39.05 50.2 37.9 L49.0 36.7 M60.95 42.1 Q60.95 41.55 61.45 41.2 L64.95 41.0 Q64.7 42.6 64.25 42.85 L61.2 42.85 Q60.95 42.6 60.95 42.1 M62.4 32.75 Q63.9 29.65 70.15 29.75 76.2 29.9 76.2 31.8 73.35 34.05 69.3 34.05 L62.95 33.65 62.4 32.75 M75.6 41.1 L76.15 40.3 Q77.7 38.85 79.8 38.5 84.85 38.35 86.05 39.1 86.8 39.6 87.0 40.4 L87.05 40.9 86.9 41.7 86.45 42.1 85.7 42.35 81.65 42.55 78.95 42.45 Q77.55 42.2 76.2 41.95 L75.7 41.1 75.7 41.1 M85.4 34.95 L85.5 34.4 Q86.8 34.1 88.2 33.95 91.5 34.1 92.25 34.75 92.65 35.05 92.65 35.75 L92.65 36.2 92.45 36.7 92.2 36.95 91.8 37.05 89.1 36.9 87.2 36.45 Q86.1 36.05 85.55 35.6 L85.3 34.95 M99.85 29.15 Q99.85 26.45 103.3 26.25 L107.5 26.65 109.0 27.85 Q108.6 28.35 106.4 29.4 L104.25 30.4 100.95 30.3 Q99.85 29.5 99.85 29.15 M116.25 23.4 Q118.55 23.1 119.55 23.45 L120.3 25.65 Q117.45 25.9 116.7 24.85 116.25 24.15 116.25 23.4 Z" fill="none" stroke="#000000" stroke-linecap="round" stroke-linejoin="round" stroke-opacity="0.0" stroke-width="1.0"/>
    </g>
    <g id="morphshape2" transform="matrix(1.0, 0.0, 0.0, 1.0, -37.6, -4.7)">
      <path d="M101.95 15.05 Q101.95 16.2 102.2 16.6 L103.0 17.15 Q105.05 16.5 106.8 15.9 107.5 15.4 106.45 12.35 104.05 12.55 103.0 13.2 101.95 13.8 101.95 15.05 M90.05 21.65 Q90.05 22.7 90.65 23.3 L93.7 23.5 Q94.15 22.5 93.9 20.4 L90.15 20.3 90.05 21.65 M88.45 11.7 Q88.45 12.75 88.85 13.65 L94.8 13.65 Q95.85 12.6 95.85 9.1 91.15 8.65 89.5 9.5 88.45 10.1 88.45 11.7 M80.2 22.25 Q80.25 23.2 81.0 25.05 81.65 25.5 83.2 25.65 L84.0 24.45 Q84.5 23.75 83.8 21.95 L80.2 22.25 M78.35 7.25 Q77.95 9.15 78.75 10.65 79.75 12.4 82.0 12.4 83.15 12.4 84.35 10.65 83.5 8.25 81.85 7.6 L78.35 7.25 M66.5 13.75 L66.55 15.2 66.9 15.75 72.35 16.5 75.65 16.9 Q77.4 16.9 76.3 14.45 76.3 11.4 71.4 11.25 66.5 11.15 66.5 13.75 M55.95 11.85 L56.0 12.6 56.05 12.75 Q56.15 13.15 56.4 13.25 56.75 13.45 57.75 13.65 L59.6 13.0 Q59.85 11.85 59.95 10.5 59.55 9.5 59.2 8.65 58.35 8.5 57.5 8.55 55.95 9.5 55.95 11.95 M48.5 21.45 L48.5 21.45 48.6 22.6 48.95 23.0 Q49.45 23.05 49.95 23.05 L52.3 23.1 Q54.25 23.0 56.1 23.0 56.3 21.7 55.55 18.7 54.65 17.05 53.8 16.2 52.45 15.05 50.95 15.6 48.5 16.75 48.5 21.35 M38.0 10.6 L39.1 12.7 Q40.8 14.85 43.8 14.85 47.7 14.85 47.7 11.65 47.7 8.65 42.85 7.85 38.0 7.0 38.0 10.6" fill="#bef0d8" fill-opacity="0.7058824" fill-rule="evenodd" stroke="none"/>
      <path d="M38.0 10.6 Q38.0 7.0 42.85 7.85 47.7 8.65 47.7 11.65 47.7 14.85 43.8 14.85 40.8 14.85 39.1 12.7 L38.0 10.6 M48.5 21.35 Q48.5 16.75 50.95 15.6 52.45 15.05 53.8 16.2 54.65 17.05 55.55 18.7 56.3 21.7 56.1 23.0 54.25 23.0 52.3 23.1 L49.95 23.05 Q49.45 23.05 48.95 23.0 L48.6 22.6 48.5 21.45 48.5 21.45 M55.95 11.95 Q55.95 9.5 57.5 8.55 58.35 8.5 59.2 8.65 59.55 9.5 59.95 10.5 59.85 11.85 59.6 13.0 L57.75 13.65 Q56.75 13.45 56.4 13.25 56.15 13.15 56.05 12.75 L56.0 12.6 55.95 11.85 M66.5 13.75 Q66.5 11.15 71.4 11.25 76.3 11.4 76.3 14.45 77.4 16.9 75.65 16.9 L72.35 16.5 66.9 15.75 66.55 15.2 66.5 13.75 M78.35 7.25 L81.85 7.6 Q83.5 8.25 84.35 10.65 83.15 12.4 82.0 12.4 79.75 12.4 78.75 10.65 77.95 9.15 78.35 7.25 M80.2 22.25 L83.8 21.95 Q84.5 23.75 84.0 24.45 L83.2 25.65 Q81.65 25.5 81.0 25.05 80.25 23.2 80.2 22.25 M88.45 11.7 Q88.45 10.1 89.5 9.5 91.15 8.65 95.85 9.1 95.85 12.6 94.8 13.65 L88.85 13.65 Q88.45 12.75 88.45 11.7 M90.05 21.65 L90.15 20.3 93.9 20.4 Q94.15 22.5 93.7 23.5 L90.65 23.3 Q90.05 22.7 90.05 21.65 M101.95 15.05 Q101.95 13.8 103.0 13.2 104.05 12.55 106.45 12.35 107.5 15.4 106.8 15.9 105.05 16.5 103.0 17.15 L102.2 16.6 Q101.95 16.2 101.95 15.05 Z" fill="none" stroke="#000000" stroke-linecap="round" stroke-linejoin="round" stroke-opacity="0.0" stroke-width="1.0"/>
    </g>
    <g id="morphshape3" transform="matrix(1.0, 0.0, 0.0, 1.0, -32.35, -6.65)">
      <path d="M94.55 8.8 Q94.55 9.95 94.7 10.35 L95.15 11.1 97.15 11.1 97.65 10.6 97.8 9.4 97.55 7.9 Q97.25 7.45 94.7 7.4 94.55 7.05 94.55 8.8 M69.45 13.3 Q69.2 13.65 69.75 14.55 70.3 14.95 70.9 15.3 L73.65 15.65 Q74.15 15.2 74.15 14.5 73.95 14.05 70.0 12.85 L69.45 13.3 M66.25 30.3 L66.55 32.25 Q66.75 33.3 67.2 34.15 L70.7 34.15 Q70.95 33.9 71.2 33.7 L70.8 30.6 67.25 30.05 Q66.45 30.0 66.25 30.3 M40.65 13.25 L40.85 14.6 41.2 15.1 42.75 15.15 Q43.8 15.15 44.4 14.7 44.6 14.55 44.6 12.8 44.6 11.65 44.25 11.1 L43.55 10.45 40.75 11.55 40.65 13.25 M32.95 29.2 L33.2 30.2 Q33.55 31.0 34.0 31.3 38.1 30.75 38.1 28.35 38.1 27.25 37.75 26.95 L36.9 26.6 35.15 26.85 33.3 27.0 32.95 29.2" fill="#ffffff" fill-opacity="0.7058824" fill-rule="evenodd" stroke="none"/>
      <path d="M32.95 29.2 L33.3 27.0 35.15 26.85 36.9 26.6 37.75 26.95 Q38.1 27.25 38.1 28.35 38.1 30.75 34.0 31.3 33.55 31.0 33.2 30.2 L32.95 29.2 M40.65 13.25 L40.75 11.55 43.55 10.45 44.25 11.1 Q44.6 11.65 44.6 12.8 44.6 14.55 44.4 14.7 43.8 15.15 42.75 15.15 L41.2 15.1 40.85 14.6 40.65 13.25 M66.25 30.3 Q66.45 30.0 67.25 30.05 L70.8 30.6 71.2 33.7 Q70.95 33.9 70.7 34.15 L67.2 34.15 Q66.75 33.3 66.55 32.25 L66.25 30.3 M69.45 13.3 L70.0 12.85 Q73.95 14.05 74.15 14.5 74.15 15.2 73.65 15.65 L70.9 15.3 Q70.3 14.95 69.75 14.55 69.2 13.65 69.45 13.3 M94.55 8.8 Q94.55 7.05 94.7 7.4 97.25 7.45 97.55 7.9 L97.8 9.4 97.65 10.6 97.15 11.1 95.15 11.1 94.7 10.35 Q94.55 9.95 94.55 8.8 Z" fill="none" stroke="#000000" stroke-linecap="round" stroke-linejoin="round" stroke-opacity="0.0" stroke-width="1.0"/>
    </g>
  </defs>
</svg>
