<?xml version="1.0" encoding="UTF-8" standalone="no"?>
<svg xmlns:xlink="http://www.w3.org/1999/xlink" height="47.45px" width="141.0px" xmlns="http://www.w3.org/2000/svg">
  <g transform="matrix(1.0, 0.0, 0.0, 1.0, -4.35, -2.9)">
    <use data-characterId="3192" height="47.45" transform="matrix(1.0, 0.0, 0.0, 1.0, 4.35, 2.9)" width="141.0" xlink:href="#morphshape0"/>
    <use data-characterId="3193" height="37.5" transform="matrix(1.0, 0.0, 0.0, 1.0, 17.5, 9.15)" width="116.05" xlink:href="#morphshape1"/>
    <use data-characterId="3194" height="21.8" transform="matrix(1.0, 0.0, 0.0, 1.0, 37.6, 4.7)" width="75.1" xlink:href="#morphshape2"/>
    <use data-characterId="3195" height="35.65" transform="matrix(1.0, 0.0, 0.0, 1.0, 32.35, 6.65)" width="66.65" xlink:href="#morphshape3"/>
  </g>
  <defs>
    <g id="morphshape0" transform="matrix(1.0, 0.0, 0.0, 1.0, -4.35, -2.9)">
      <path d="M4.85 19.0 Q5.25 20.5 9.1 21.35 13.0 22.0 17.3 22.45 25.3 23.35 22.65 25.55 19.4 26.25 20.2 27.65 21.65 28.5 19.9 29.45 18.15 30.15 17.4 31.2 16.95 33.0 19.1 33.65 20.8 34.15 22.8 34.35 26.5 34.6 28.8 35.55 L31.15 36.7 Q29.4 38.7 34.55 39.65 35.2 40.4 42.5 40.4 42.5 41.45 45.25 41.85 43.05 43.35 46.2 44.75 49.65 46.3 54.55 46.45 57.95 46.5 62.45 47.95 67.25 49.4 67.8 49.85 67.55 50.3 72.1 49.05 77.25 47.7 81.0 47.55 L90.1 46.65 Q94.65 46.25 97.85 45.7 104.6 45.65 107.2 43.05 108.0 41.85 109.2 40.1 114.45 39.3 113.75 38.0 121.25 35.7 118.2 34.25 118.55 33.8 117.05 33.65 124.8 32.25 124.8 31.5 127.25 30.45 125.2 29.5 124.0 28.85 121.85 28.25 120.55 27.9 124.4 26.95 128.25 26.0 132.3 23.95 136.35 21.9 135.2 20.5 133.95 19.0 127.55 18.7 124.9 18.4 122.9 18.45 L122.35 18.45 121.75 18.2 Q125.35 16.45 122.5 14.85 122.45 14.3 118.65 13.85 117.55 13.55 116.05 13.5 117.2 9.85 109.7 7.65 98.6 4.0 76.0 3.45 59.3 2.9 38.45 5.55 19.5 8.05 16.0 11.0 11.85 12.15 12.8 12.85 13.75 13.5 17.2 14.15 20.45 14.65 18.5 14.95 16.8 15.0 15.25 15.2 L6.5 16.1 4.85 16.3 Q4.1 17.6 4.75 18.95" fill="#96e0bc" fill-opacity="0.7058824" fill-rule="evenodd" stroke="none"/>
      <path d="M4.75 18.95 Q4.1 17.6 4.85 16.3 L6.5 16.1 15.25 15.2 Q16.8 15.0 18.5 14.95 20.45 14.65 17.2 14.15 13.75 13.5 12.8 12.85 11.85 12.15 16.0 11.0 19.5 8.05 38.45 5.55 59.3 2.9 76.0 3.45 98.6 4.0 109.7 7.65 117.2 9.85 116.05 13.5 117.55 13.55 118.65 13.85 122.45 14.3 122.5 14.85 125.35 16.45 121.75 18.2 L122.35 18.45 122.9 18.45 Q124.9 18.4 127.55 18.7 133.95 19.0 135.2 20.5 136.35 21.9 132.3 23.95 128.25 26.0 124.4 26.95 120.55 27.9 121.85 28.25 124.0 28.85 125.2 29.5 127.25 30.45 124.8 31.5 124.8 32.25 117.05 33.65 118.55 33.8 118.2 34.25 121.25 35.7 113.75 38.0 114.45 39.3 109.2 40.1 108.0 41.85 107.2 43.05 104.6 45.65 97.85 45.7 94.65 46.25 90.1 46.65 L81.0 47.55 Q77.25 47.7 72.1 49.05 67.55 50.3 67.8 49.85 67.25 49.4 62.45 47.95 57.95 46.5 54.55 46.45 49.65 46.3 46.2 44.75 43.05 43.35 45.25 41.85 42.5 41.45 42.5 40.4 35.2 40.4 34.55 39.65 29.4 38.7 31.15 36.7 L28.8 35.55 Q26.5 34.6 22.8 34.35 20.8 34.15 19.1 33.65 16.95 33.0 17.4 31.2 18.15 30.15 19.9 29.45 21.65 28.5 20.2 27.65 19.4 26.25 22.65 25.55 25.3 23.35 17.3 22.45 13.0 22.0 9.1 21.35 5.25 20.5 4.85 19.0" fill="none" stroke="#000000" stroke-linecap="round" stroke-linejoin="round" stroke-opacity="0.0" stroke-width="1.0"/>
    </g>
    <g id="morphshape1" transform="matrix(1.0, 0.0, 0.0, 1.0, -17.5, -9.15)">
      <path d="M117.2 23.3 Q117.2 24.05 117.65 24.75 118.4 25.8 121.25 25.55 L120.5 23.35 Q119.5 23.0 117.2 23.3 M100.1 29.5 Q100.1 29.85 101.2 30.65 L104.5 30.75 106.65 29.75 Q108.85 28.7 109.25 28.2 L107.75 27.0 103.55 26.6 Q100.1 26.8 100.1 29.5 M85.75 35.75 L85.75 35.85 86.0 36.4 Q86.6 36.85 87.7 37.25 L89.65 37.65 92.45 37.75 92.9 37.6 93.15 37.35 93.35 36.85 93.35 36.4 Q93.3 35.7 92.85 35.35 92.1 34.7 88.65 34.55 87.2 34.75 85.9 35.15 L85.75 35.7 M75.9 40.3 L76.4 41.15 Q77.7 41.4 79.1 41.65 L81.75 41.8 85.7 41.65 86.4 41.45 86.85 41.05 87.0 40.25 86.95 39.75 Q86.8 38.95 86.1 38.5 84.9 37.75 80.0 37.9 77.95 38.2 76.4 39.55 L75.9 40.35 M62.3 33.4 L62.85 34.3 69.2 34.7 Q73.25 34.7 76.1 32.45 76.1 30.55 70.05 30.4 63.8 30.3 62.3 33.4 M60.5 42.0 Q60.55 42.5 60.75 42.75 L63.8 42.75 Q64.25 42.5 64.5 40.9 L61.0 41.1 Q60.5 41.45 60.5 42.0 M49.0 36.45 L50.2 37.65 Q52.25 38.8 56.55 38.8 58.1 38.8 59.85 36.65 59.85 33.7 54.45 33.75 49.0 33.8 49.0 36.45 M27.5 28.7 Q27.55 29.3 30.15 30.8 33.4 32.6 37.05 32.55 L40.9 32.35 Q42.05 31.8 42.7 29.8 42.55 26.9 34.95 26.25 27.3 25.6 27.45 28.65 M18.45 17.7 Q18.45 18.15 18.9 18.85 L19.85 19.8 26.7 19.9 Q27.9 19.0 27.9 18.45 27.9 16.6 23.2 16.5 18.45 16.45 18.45 17.7" fill="#bef0d8" fill-opacity="0.7058824" fill-rule="evenodd" stroke="none"/>
      <path d="M18.45 17.7 Q18.45 16.45 23.2 16.5 27.9 16.6 27.9 18.45 27.9 19.0 26.7 19.9 L19.85 19.8 18.9 18.85 Q18.45 18.15 18.45 17.7 M27.45 28.65 Q27.3 25.6 34.95 26.25 42.55 26.9 42.7 29.8 42.05 31.8 40.9 32.35 L37.05 32.55 Q33.4 32.6 30.15 30.8 27.55 29.3 27.5 28.7 M49.0 36.45 Q49.0 33.8 54.45 33.75 59.85 33.7 59.85 36.65 58.1 38.8 56.55 38.8 52.25 38.8 50.2 37.65 L49.0 36.45 M60.5 42.0 Q60.5 41.45 61.0 41.1 L64.5 40.9 Q64.25 42.5 63.8 42.75 L60.75 42.75 Q60.55 42.5 60.5 42.0 M62.3 33.4 Q63.8 30.3 70.05 30.4 76.1 30.55 76.1 32.45 73.25 34.7 69.2 34.7 L62.85 34.3 62.3 33.4 M75.9 40.35 L76.4 39.55 Q77.95 38.2 80.0 37.9 84.9 37.75 86.1 38.5 86.8 38.95 86.95 39.75 L87.0 40.25 86.85 41.05 86.4 41.45 85.7 41.65 81.75 41.8 79.1 41.65 Q77.7 41.4 76.4 41.15 L75.9 40.3 M85.75 35.7 L85.9 35.15 Q87.2 34.75 88.65 34.55 92.1 34.7 92.85 35.35 93.3 35.7 93.35 36.4 L93.35 36.85 93.15 37.35 92.9 37.6 92.45 37.75 89.65 37.65 87.7 37.25 Q86.6 36.85 86.0 36.4 L85.75 35.85 85.75 35.75 M100.1 29.5 Q100.1 26.8 103.55 26.6 L107.75 27.0 109.25 28.2 Q108.85 28.7 106.65 29.75 L104.5 30.75 101.2 30.65 Q100.1 29.85 100.1 29.5 M117.2 23.3 Q119.5 23.0 120.5 23.35 L121.25 25.55 Q118.4 25.8 117.65 24.75 117.2 24.05 117.2 23.3 Z" fill="none" stroke="#000000" stroke-linecap="round" stroke-linejoin="round" stroke-opacity="0.0" stroke-width="1.0"/>
    </g>
    <g id="morphshape2" transform="matrix(1.0, 0.0, 0.0, 1.0, -37.6, -4.7)">
      <path d="M102.35 15.35 Q102.35 16.5 102.6 16.9 L103.4 17.45 Q105.5 16.75 107.2 16.2 107.9 15.7 106.85 12.65 104.45 12.85 103.4 13.5 102.35 14.1 102.35 15.35 M90.35 21.25 Q90.35 22.3 90.95 22.9 L94.0 23.1 Q94.45 22.1 94.2 20.0 L90.45 19.9 90.35 21.25 M88.8 11.5 Q88.8 12.55 89.2 13.45 L95.15 13.45 Q96.2 12.4 96.2 8.9 91.5 8.45 89.85 9.3 88.8 9.9 88.8 11.5 M80.55 21.8 Q80.6 22.75 81.35 24.6 82.0 25.05 83.55 25.2 L84.35 24.0 Q84.85 23.3 84.15 21.5 L80.55 21.8 M78.15 7.8 Q77.75 9.7 78.55 11.2 79.55 12.95 81.8 12.95 82.95 12.95 84.15 11.2 83.3 8.8 81.65 8.15 L78.15 7.8 M66.3 13.4 L66.35 14.85 66.7 15.4 72.15 16.15 75.45 16.55 Q77.2 16.55 76.1 14.1 76.1 11.05 71.2 10.9 66.3 10.8 66.3 13.4 M56.0 12.9 L56.0 13.05 56.05 13.7 56.1 13.85 Q56.25 14.2 56.5 14.3 56.95 14.45 57.95 14.6 L59.95 14.0 Q60.2 12.8 60.2 11.3 59.75 10.25 59.35 9.4 58.45 9.15 57.55 9.25 55.95 10.2 55.95 12.8 M48.8 20.25 L48.9 21.4 49.25 21.8 Q49.7 21.9 50.2 21.9 L52.45 21.95 Q54.35 21.85 56.05 21.85 56.25 20.6 55.6 17.75 54.75 16.15 53.95 15.3 52.65 14.25 51.2 14.75 48.8 15.9 48.8 20.35 M38.2 10.85 L39.3 12.95 Q41.0 15.1 44.0 15.1 47.9 15.1 47.9 11.9 47.9 8.9 43.05 8.1 38.2 7.25 38.2 10.85" fill="#bef0d8" fill-opacity="0.7058824" fill-rule="evenodd" stroke="none"/>
      <path d="M38.2 10.85 Q38.2 7.25 43.05 8.1 47.9 8.9 47.9 11.9 47.9 15.1 44.0 15.1 41.0 15.1 39.3 12.95 L38.2 10.85 M48.8 20.35 Q48.8 15.9 51.2 14.75 52.65 14.25 53.95 15.3 54.75 16.15 55.6 17.75 56.25 20.6 56.05 21.85 54.35 21.85 52.45 21.95 L50.2 21.9 Q49.7 21.9 49.25 21.8 L48.9 21.4 48.8 20.25 M55.95 12.8 Q55.95 10.2 57.55 9.25 58.45 9.15 59.35 9.4 59.75 10.25 60.2 11.3 60.2 12.8 59.95 14.0 L57.95 14.6 Q56.95 14.45 56.5 14.3 56.25 14.2 56.1 13.85 L56.05 13.7 56.0 13.05 56.0 12.9 M66.3 13.4 Q66.3 10.8 71.2 10.9 76.1 11.05 76.1 14.1 77.2 16.55 75.45 16.55 L72.15 16.15 66.7 15.4 66.35 14.85 66.3 13.4 M78.15 7.8 L81.65 8.15 Q83.3 8.8 84.15 11.2 82.95 12.95 81.8 12.95 79.55 12.95 78.55 11.2 77.75 9.7 78.15 7.8 M80.55 21.8 L84.15 21.5 Q84.85 23.3 84.35 24.0 L83.55 25.2 Q82.0 25.05 81.35 24.6 80.6 22.75 80.55 21.8 M88.8 11.5 Q88.8 9.9 89.85 9.3 91.5 8.45 96.2 8.9 96.2 12.4 95.15 13.45 L89.2 13.45 Q88.8 12.55 88.8 11.5 M90.35 21.25 L90.45 19.9 94.2 20.0 Q94.45 22.1 94.0 23.1 L90.95 22.9 Q90.35 22.3 90.35 21.25 M102.35 15.35 Q102.35 14.1 103.4 13.5 104.45 12.85 106.85 12.65 107.9 15.7 107.2 16.2 105.5 16.75 103.4 17.45 L102.6 16.9 Q102.35 16.5 102.35 15.35 Z" fill="none" stroke="#000000" stroke-linecap="round" stroke-linejoin="round" stroke-opacity="0.0" stroke-width="1.0"/>
    </g>
    <g id="morphshape3" transform="matrix(1.0, 0.0, 0.0, 1.0, -32.35, -6.65)">
      <path d="M91.05 10.45 Q91.05 11.6 91.2 12.0 L91.65 12.75 93.65 12.75 94.15 12.25 94.3 11.05 94.05 9.55 Q93.75 9.1 91.2 9.05 91.05 8.7 91.05 10.45 M69.25 13.5 Q69.15 13.95 70.0 14.5 70.6 14.6 71.3 14.65 72.55 14.5 73.9 13.85 74.2 13.25 73.9 12.6 72.0 12.8 69.5 12.85 L69.25 13.5 M66.2 29.95 L66.5 31.9 Q66.7 32.95 67.15 33.8 L70.65 33.8 Q70.9 33.55 71.15 33.35 L70.75 30.25 67.2 29.7 Q66.4 29.65 66.2 29.95 M40.95 13.4 L41.15 14.75 41.5 15.25 43.05 15.3 Q44.1 15.3 44.7 14.85 44.9 14.7 44.9 12.95 44.9 11.8 44.55 11.25 L43.85 10.6 41.05 11.7 40.95 13.4 M33.3 29.2 L33.55 30.2 Q33.9 31.0 34.35 31.3 38.45 30.75 38.45 28.35 38.45 27.25 38.1 26.95 L37.25 26.6 35.5 26.85 33.65 27.0 33.3 29.2" fill="#ffffff" fill-opacity="0.7058824" fill-rule="evenodd" stroke="none"/>
      <path d="M33.3 29.2 L33.65 27.0 35.5 26.85 37.25 26.6 38.1 26.95 Q38.45 27.25 38.45 28.35 38.45 30.75 34.35 31.3 33.9 31.0 33.55 30.2 L33.3 29.2 M40.95 13.4 L41.05 11.7 43.85 10.6 44.55 11.25 Q44.9 11.8 44.9 12.95 44.9 14.7 44.7 14.85 44.1 15.3 43.05 15.3 L41.5 15.25 41.15 14.75 40.95 13.4 M66.2 29.95 Q66.4 29.65 67.2 29.7 L70.75 30.25 71.15 33.35 Q70.9 33.55 70.65 33.8 L67.15 33.8 Q66.7 32.95 66.5 31.9 L66.2 29.95 M69.25 13.5 L69.5 12.85 Q72.0 12.8 73.9 12.6 74.2 13.25 73.9 13.85 72.55 14.5 71.3 14.65 70.6 14.6 70.0 14.5 69.15 13.95 69.25 13.5 M91.05 10.45 Q91.05 8.7 91.2 9.05 93.75 9.1 94.05 9.55 L94.3 11.05 94.15 12.25 93.65 12.75 91.65 12.75 91.2 12.0 Q91.05 11.6 91.05 10.45 Z" fill="none" stroke="#000000" stroke-linecap="round" stroke-linejoin="round" stroke-opacity="0.0" stroke-width="1.0"/>
    </g>
  </defs>
</svg>
