<?xml version="1.0" encoding="UTF-8" standalone="no"?>
<svg xmlns:xlink="http://www.w3.org/1999/xlink" height="47.45px" width="141.0px" xmlns="http://www.w3.org/2000/svg">
  <g transform="matrix(1.0, 0.0, 0.0, 1.0, -4.35, -2.9)">
    <use data-characterId="3188" height="47.45" transform="matrix(1.0, 0.0, 0.0, 1.0, 4.35, 2.9)" width="141.0" xlink:href="#morphshape0"/>
    <use data-characterId="3189" height="37.5" transform="matrix(1.0, 0.0, 0.0, 1.0, 17.5, 9.15)" width="116.05" xlink:href="#morphshape1"/>
    <use data-characterId="3190" height="21.8" transform="matrix(1.0, 0.0, 0.0, 1.0, 37.6, 4.7)" width="75.1" xlink:href="#morphshape2"/>
    <use data-characterId="3191" height="35.65" transform="matrix(1.0, 0.0, 0.0, 1.0, 32.35, 6.65)" width="66.65" xlink:href="#morphshape3"/>
  </g>
  <defs>
    <g id="morphshape0" transform="matrix(1.0, 0.0, 0.0, 1.0, -4.35, -2.9)">
      <path d="M4.95 16.6 Q4.2 18.2 13.5 19.65 22.85 21.1 34.0 21.7 45.6 22.35 28.55 23.3 11.4 24.1 23.4 25.9 35.5 27.65 27.7 28.3 19.85 28.85 14.45 30.6 9.1 32.4 13.9 32.85 18.65 33.25 20.2 33.75 21.95 34.25 24.1 34.5 L36.65 35.15 Q30.0 36.65 30.35 37.3 16.8 40.65 36.45 40.15 40.2 40.35 53.9 38.45 43.05 41.75 43.55 42.8 44.05 43.85 52.0 44.35 61.25 44.7 70.6 45.25 81.45 45.7 73.0 47.95 64.4 50.2 66.9 50.05 71.6 49.95 76.1 49.95 L92.35 49.55 Q101.75 49.15 104.65 48.0 108.0 46.85 106.25 45.8 104.3 44.85 107.7 42.0 109.65 40.8 100.25 38.45 122.55 38.05 125.35 36.1 128.6 34.35 122.35 33.95 120.1 33.55 116.95 33.25 126.25 31.7 126.7 30.85 127.2 30.0 122.95 29.1 118.75 28.25 112.9 27.95 107.1 27.65 121.65 26.5 136.25 25.35 141.75 23.45 147.25 21.55 138.35 19.95 129.9 18.35 124.6 18.4 L122.45 18.5 122.25 18.45 Q122.4 18.1 121.75 17.75 134.9 16.3 129.05 15.05 123.5 13.8 116.1 13.6 116.25 13.1 115.3 12.85 106.5 8.5 98.9 5.7 92.0 2.9 66.3 3.25 47.2 3.55 25.4 7.2 3.45 10.6 6.8 11.75 10.15 12.85 25.8 13.8 41.45 14.7 34.65 14.9 27.8 15.0 21.0 15.1 L12.95 15.4 4.9 16.35 Q4.75 16.5 4.85 16.65" fill="#96e0bc" fill-opacity="0.7058824" fill-rule="evenodd" stroke="none"/>
      <path d="M4.85 16.65 Q4.75 16.5 4.9 16.35 L12.95 15.4 21.0 15.1 Q27.8 15.0 34.65 14.9 41.45 14.7 25.8 13.8 10.15 12.85 6.8 11.75 3.45 10.6 25.4 7.2 47.2 3.55 66.3 3.25 92.0 2.9 98.9 5.7 106.5 8.5 115.3 12.85 116.25 13.1 116.1 13.6 123.5 13.8 129.05 15.05 134.9 16.3 121.75 17.75 122.4 18.1 122.25 18.45 L122.45 18.5 124.6 18.4 Q129.9 18.35 138.35 19.95 147.25 21.55 141.75 23.45 136.25 25.35 121.65 26.5 107.1 27.65 112.9 27.95 118.75 28.25 122.95 29.1 127.2 30.0 126.7 30.85 126.25 31.7 116.95 33.25 120.1 33.55 122.35 33.95 128.6 34.35 125.35 36.1 122.55 38.05 100.25 38.45 109.65 40.8 107.7 42.0 104.3 44.85 106.25 45.8 108.0 46.85 104.65 48.0 101.75 49.15 92.35 49.55 L76.1 49.95 Q71.6 49.95 66.9 50.05 64.4 50.2 73.0 47.95 81.45 45.7 70.6 45.25 61.25 44.7 52.0 44.35 44.05 43.85 43.55 42.8 43.05 41.75 53.9 38.45 40.2 40.35 36.45 40.15 16.8 40.65 30.35 37.3 30.0 36.65 36.65 35.15 L24.1 34.5 Q21.95 34.25 20.2 33.75 18.65 33.25 13.9 32.85 9.1 32.4 14.45 30.6 19.85 28.85 27.7 28.3 35.5 27.65 23.4 25.9 11.4 24.1 28.55 23.3 45.6 22.35 34.0 21.7 22.85 21.1 13.5 19.65 4.2 18.2 4.95 16.6" fill="none" stroke="#000000" stroke-linecap="round" stroke-linejoin="round" stroke-opacity="0.0" stroke-width="1.0"/>
    </g>
    <g id="morphshape1" transform="matrix(1.0, 0.0, 0.0, 1.0, -17.5, -9.15)">
      <path d="M128.0 21.85 Q128.0 22.6 128.45 23.3 129.2 24.35 132.05 24.1 L131.3 21.9 Q130.3 21.55 128.0 21.85 M102.7 33.5 Q102.7 33.85 103.8 34.65 L107.1 34.75 109.25 33.75 Q111.45 32.7 111.85 32.2 L110.35 31.0 106.15 30.6 Q102.7 30.8 102.7 33.5 M89.65 44.1 L90.15 44.95 Q91.55 45.2 92.95 45.45 L95.7 45.55 99.75 45.35 100.5 45.1 100.95 44.7 101.1 43.9 101.05 43.4 Q100.85 42.6 100.1 42.1 98.85 41.35 93.8 41.5 91.7 41.85 90.15 43.3 L89.6 44.1 M79.05 32.25 L79.05 32.35 79.3 32.9 Q79.8 33.35 80.9 33.75 L82.75 34.2 85.45 34.35 85.85 34.25 86.1 34.0 86.3 33.5 86.3 33.05 Q86.3 32.35 85.9 32.05 85.2 31.4 81.9 31.25 80.5 31.4 79.2 31.7 L79.1 32.25 M61.4 40.25 L61.95 41.15 68.3 41.55 Q72.35 41.55 75.2 39.3 75.2 37.4 69.15 37.25 62.9 37.15 61.4 40.25 M55.05 40.85 Q55.2 41.25 55.3 41.6 L58.35 41.6 Q58.8 41.35 59.05 39.75 L55.55 39.95 Q55.05 40.3 55.05 40.85 M49.0 34.15 L50.2 35.35 Q52.25 36.5 56.55 36.5 58.1 36.5 59.85 34.35 59.85 31.4 54.45 31.45 49.0 31.5 49.0 34.15 M31.55 30.1 Q31.75 30.65 34.55 31.65 38.1 32.0 41.7 32.1 L45.45 31.2 Q46.45 30.4 46.75 28.3 46.1 25.5 38.5 26.35 30.85 27.15 31.5 30.1 M22.15 11.25 Q22.15 11.7 22.6 12.4 L23.55 13.35 30.4 13.45 Q31.6 12.55 31.6 12.0 31.6 10.15 26.9 10.05 22.15 10.0 22.15 11.25" fill="#bef0d8" fill-opacity="0.7058824" fill-rule="evenodd" stroke="none"/>
      <path d="M22.15 11.25 Q22.15 10.0 26.9 10.05 31.6 10.15 31.6 12.0 31.6 12.55 30.4 13.45 L23.55 13.35 22.6 12.4 Q22.15 11.7 22.15 11.25 M31.5 30.1 Q30.85 27.15 38.5 26.35 46.1 25.5 46.75 28.3 46.45 30.4 45.45 31.2 L41.7 32.1 Q38.1 32.0 34.55 31.65 31.75 30.65 31.55 30.1 M49.0 34.15 Q49.0 31.5 54.45 31.45 59.85 31.4 59.85 34.35 58.1 36.5 56.55 36.5 52.25 36.5 50.2 35.35 L49.0 34.15 M55.05 40.85 Q55.05 40.3 55.55 39.95 L59.05 39.75 Q58.8 41.35 58.35 41.6 L55.3 41.6 Q55.2 41.25 55.05 40.85 M61.4 40.25 Q62.9 37.15 69.15 37.25 75.2 37.4 75.2 39.3 72.35 41.55 68.3 41.55 L61.95 41.15 61.4 40.25 M79.1 32.25 L79.2 31.7 Q80.5 31.4 81.9 31.25 85.2 31.4 85.9 32.05 86.3 32.35 86.3 33.05 L86.3 33.5 86.1 34.0 85.85 34.25 85.45 34.35 82.75 34.2 80.9 33.75 Q79.8 33.35 79.3 32.9 L79.05 32.35 79.05 32.25 M89.6 44.1 L90.15 43.3 Q91.7 41.85 93.8 41.5 98.85 41.35 100.1 42.1 100.85 42.6 101.05 43.4 L101.1 43.9 100.95 44.7 100.5 45.1 99.75 45.35 95.7 45.55 92.95 45.45 Q91.55 45.2 90.15 44.95 L89.65 44.1 M102.7 33.5 Q102.7 30.8 106.15 30.6 L110.35 31.0 111.85 32.2 Q111.45 32.7 109.25 33.75 L107.1 34.75 103.8 34.65 Q102.7 33.85 102.7 33.5 M128.0 21.85 Q130.3 21.55 131.3 21.9 L132.05 24.1 Q129.2 24.35 128.45 23.3 128.0 22.6 128.0 21.85 Z" fill="none" stroke="#000000" stroke-linecap="round" stroke-linejoin="round" stroke-opacity="0.0" stroke-width="1.0"/>
    </g>
    <g id="morphshape2" transform="matrix(1.0, 0.0, 0.0, 1.0, -37.6, -4.7)">
      <path d="M106.9 18.75 Q106.9 19.9 107.15 20.3 L107.95 20.85 Q110.95 20.05 111.75 19.6 112.45 19.1 111.4 16.05 109.0 16.25 107.95 16.9 106.9 17.5 106.9 18.75 M93.75 17.1 Q93.75 18.15 94.35 18.75 L97.4 18.95 Q97.85 17.95 97.6 15.85 L93.85 15.75 93.75 17.1 M92.55 9.25 Q92.55 10.3 92.95 11.2 L98.9 11.2 Q99.95 10.15 99.95 6.65 95.25 6.2 93.6 7.05 92.55 7.65 92.55 9.25 M84.25 16.7 Q84.3 17.65 85.05 19.5 85.7 19.95 87.25 20.1 L88.05 18.9 Q88.55 18.2 87.85 16.4 L84.25 16.7 M75.75 14.2 Q75.35 16.1 76.15 17.6 77.15 19.35 79.4 19.35 80.55 19.35 81.75 17.6 80.9 15.2 79.25 14.55 L75.75 14.2 M64.15 9.65 L64.2 11.1 64.55 11.65 70.0 12.4 73.3 12.8 Q75.05 12.8 73.95 10.35 73.95 7.3 69.05 7.15 64.15 7.05 64.15 9.65 M56.25 22.0 L56.35 23.2 56.7 23.6 Q57.2 23.65 57.7 23.65 58.85 23.65 60.05 23.65 L63.9 23.55 Q64.1 22.25 63.35 19.2 62.4 17.55 61.5 16.7 60.15 15.55 58.65 16.1 56.15 17.25 56.15 21.9 M52.05 9.2 L52.05 9.4 52.1 10.0 52.15 10.15 Q52.25 10.55 52.5 10.65 L53.85 11.0 Q55.25 10.4 55.7 10.3 55.95 9.15 56.05 7.85 55.7 6.85 55.4 6.0 54.55 5.85 53.7 5.9 52.2 6.85 52.2 9.25 M40.7 13.7 L41.8 15.8 Q43.5 17.95 46.5 17.95 50.4 17.95 50.4 14.75 50.4 11.75 45.55 10.95 40.7 10.1 40.7 13.7" fill="#bef0d8" fill-opacity="0.7058824" fill-rule="evenodd" stroke="none"/>
      <path d="M40.7 13.7 Q40.7 10.1 45.55 10.95 50.4 11.75 50.4 14.75 50.4 17.95 46.5 17.95 43.5 17.95 41.8 15.8 L40.7 13.7 M52.2 9.25 Q52.2 6.85 53.7 5.9 54.55 5.85 55.4 6.0 55.7 6.85 56.05 7.85 55.95 9.15 55.7 10.3 55.25 10.4 53.85 11.0 L52.5 10.65 Q52.25 10.55 52.15 10.15 L52.1 10.0 52.05 9.4 52.05 9.2 M56.15 21.9 Q56.15 17.25 58.65 16.1 60.15 15.55 61.5 16.7 62.4 17.55 63.35 19.2 64.1 22.25 63.9 23.55 L60.05 23.65 Q58.85 23.65 57.7 23.65 57.2 23.65 56.7 23.6 L56.35 23.2 56.25 22.0 M64.15 9.65 Q64.15 7.05 69.05 7.15 73.95 7.3 73.95 10.35 75.05 12.8 73.3 12.8 L70.0 12.4 64.55 11.65 64.2 11.1 64.15 9.65 M75.75 14.2 L79.25 14.55 Q80.9 15.2 81.75 17.6 80.55 19.35 79.4 19.35 77.15 19.35 76.15 17.6 75.35 16.1 75.75 14.2 M84.25 16.7 L87.85 16.4 Q88.55 18.2 88.05 18.9 L87.25 20.1 Q85.7 19.95 85.05 19.5 84.3 17.65 84.25 16.7 M92.55 9.25 Q92.55 7.65 93.6 7.05 95.25 6.2 99.95 6.65 99.95 10.15 98.9 11.2 L92.95 11.2 Q92.55 10.3 92.55 9.25 M93.75 17.1 L93.85 15.75 97.6 15.85 Q97.85 17.95 97.4 18.95 L94.35 18.75 Q93.75 18.15 93.75 17.1 M106.9 18.75 Q106.9 17.5 107.95 16.9 109.0 16.25 111.4 16.05 112.45 19.1 111.75 19.6 110.95 20.05 107.95 20.85 L107.15 20.3 Q106.9 19.9 106.9 18.75 Z" fill="none" stroke="#000000" stroke-linecap="round" stroke-linejoin="round" stroke-opacity="0.0" stroke-width="1.0"/>
    </g>
    <g id="morphshape3" transform="matrix(1.0, 0.0, 0.0, 1.0, -32.35, -6.65)">
      <path d="M95.6 8.2 Q95.6 9.35 95.75 9.75 L96.2 10.5 98.2 10.5 98.7 10.0 98.85 8.8 98.6 7.3 Q98.3 6.85 95.75 6.8 95.6 6.45 95.6 8.2 M68.55 9.5 Q68.3 9.85 68.85 10.75 69.15 11.2 70.0 11.5 L72.75 11.85 Q73.25 11.4 73.25 10.7 73.05 10.25 69.1 9.05 L68.55 9.5 M65.8 37.5 L66.1 39.45 Q66.3 40.5 66.75 41.35 L70.25 41.35 Q70.45 41.05 70.75 40.9 L70.35 37.8 66.8 37.25 Q66.0 37.2 65.8 37.5 M44.2 15.1 L44.4 16.45 44.75 16.95 46.3 17.0 Q47.35 17.0 47.95 16.55 48.15 16.4 48.15 14.65 48.15 13.5 47.8 12.95 L47.1 12.3 44.3 13.4 44.2 15.1 M37.0 29.2 L37.25 30.2 Q37.6 31.0 38.05 31.3 42.15 30.75 42.15 28.35 42.15 27.25 41.8 26.95 L40.95 26.6 39.2 26.85 37.35 27.0 37.0 29.2" fill="#ffffff" fill-opacity="0.7058824" fill-rule="evenodd" stroke="none"/>
      <path d="M37.0 29.2 L37.35 27.0 39.2 26.85 40.95 26.6 41.8 26.95 Q42.15 27.25 42.15 28.35 42.15 30.75 38.05 31.3 37.6 31.0 37.25 30.2 L37.0 29.2 M44.2 15.1 L44.3 13.4 47.1 12.3 47.8 12.95 Q48.15 13.5 48.15 14.65 48.15 16.4 47.95 16.55 47.35 17.0 46.3 17.0 L44.75 16.95 44.4 16.45 44.2 15.1 M65.8 37.5 Q66.0 37.2 66.8 37.25 L70.35 37.8 70.75 40.9 Q70.45 41.05 70.25 41.35 L66.75 41.35 Q66.3 40.5 66.1 39.45 L65.8 37.5 M68.55 9.5 L69.1 9.05 Q73.05 10.25 73.25 10.7 73.25 11.4 72.75 11.85 L70.0 11.5 Q69.15 11.2 68.85 10.75 68.3 9.85 68.55 9.5 M95.6 8.2 Q95.6 6.45 95.75 6.8 98.3 6.85 98.6 7.3 L98.85 8.8 98.7 10.0 98.2 10.5 96.2 10.5 95.75 9.75 Q95.6 9.35 95.6 8.2 Z" fill="none" stroke="#000000" stroke-linecap="round" stroke-linejoin="round" stroke-opacity="0.0" stroke-width="1.0"/>
    </g>
  </defs>
</svg>
