<?xml version="1.0" encoding="UTF-8" standalone="no"?>
<svg xmlns:xlink="http://www.w3.org/1999/xlink" height="47.45px" width="141.0px" xmlns="http://www.w3.org/2000/svg">
  <g transform="matrix(1.0, 0.0, 0.0, 1.0, -4.35, -2.9)">
    <use data-characterId="3192" height="47.45" transform="matrix(1.0, 0.0, 0.0, 1.0, 4.35, 2.9)" width="141.0" xlink:href="#morphshape0"/>
    <use data-characterId="3193" height="37.5" transform="matrix(1.0, 0.0, 0.0, 1.0, 17.5, 9.15)" width="116.05" xlink:href="#morphshape1"/>
    <use data-characterId="3194" height="21.8" transform="matrix(1.0, 0.0, 0.0, 1.0, 37.6, 4.7)" width="75.1" xlink:href="#morphshape2"/>
    <use data-characterId="3195" height="35.65" transform="matrix(1.0, 0.0, 0.0, 1.0, 32.35, 6.65)" width="66.65" xlink:href="#morphshape3"/>
  </g>
  <defs>
    <g id="morphshape0" transform="matrix(1.0, 0.0, 0.0, 1.0, -4.35, -2.9)">
      <path d="M4.85 17.2 Q4.35 18.75 12.5 20.1 20.7 21.35 30.4 21.95 41.25 22.65 27.2 23.9 13.0 24.65 22.65 26.35 32.5 27.9 26.0 28.6 19.45 29.2 15.05 30.8 10.75 32.6 15.0 33.1 19.1 33.55 20.75 34.0 22.9 34.45 25.05 34.85 L35.45 35.6 Q29.85 37.25 31.2 37.95 20.65 40.75 37.7 40.35 40.65 40.75 52.05 39.35 43.05 42.25 44.1 43.4 45.25 44.55 52.55 44.95 60.6 45.25 68.95 46.0 78.5 46.65 71.95 48.5 65.1 50.35 68.0 49.95 72.8 49.55 77.15 49.55 L91.9 49.05 Q100.3 48.65 103.25 47.6 107.3 46.7 106.5 45.3 105.1 44.3 108.05 41.7 110.7 40.6 103.1 38.45 122.3 37.65 123.9 35.8 126.55 34.3 121.3 33.95 121.15 33.35 118.65 32.95 126.5 31.5 126.4 30.6 126.55 29.8 122.75 28.95 119.15 28.2 115.35 27.75 111.6 27.3 123.95 25.95 136.35 24.6 140.45 22.8 144.5 21.0 136.15 19.65 128.95 18.3 124.35 18.35 L122.55 18.4 122.25 18.3 Q123.1 17.65 122.0 17.05 132.35 15.8 126.9 14.75 122.25 13.7 116.1 13.55 116.45 12.4 114.15 11.7 104.85 7.5 94.1 5.2 85.15 2.9 60.45 3.7 41.35 4.45 23.4 7.95 5.2 10.85 8.05 11.9 10.9 12.9 24.0 13.8 37.05 14.6 31.25 14.85 25.45 14.95 19.75 15.1 L11.55 15.5 4.85 16.3 Q4.6 16.7 4.8 17.1" fill="#96e0bc" fill-opacity="0.7058824" fill-rule="evenodd" stroke="none"/>
      <path d="M4.8 17.1 Q4.6 16.7 4.85 16.3 L11.55 15.5 19.75 15.1 Q25.45 14.95 31.25 14.85 37.05 14.6 24.0 13.8 10.9 12.9 8.05 11.9 5.2 10.85 23.4 7.95 41.35 4.45 60.45 3.7 85.15 2.9 94.1 5.2 104.85 7.5 114.15 11.7 116.45 12.4 116.1 13.55 122.25 13.7 126.9 14.75 132.35 15.8 122.0 17.05 123.1 17.65 122.25 18.3 L122.55 18.4 124.35 18.35 Q128.95 18.3 136.15 19.65 144.5 21.0 140.45 22.8 136.35 24.6 123.95 25.95 111.6 27.3 115.35 27.75 119.15 28.2 122.75 28.95 126.55 29.8 126.4 30.6 126.5 31.5 118.65 32.95 121.15 33.35 121.3 33.95 126.55 34.3 123.9 35.8 122.3 37.65 103.1 38.45 110.7 40.6 108.05 41.7 105.1 44.3 106.5 45.3 107.3 46.7 103.25 47.6 100.3 48.65 91.9 49.05 L77.15 49.55 Q72.8 49.55 68.0 49.95 65.1 50.35 71.95 48.5 78.5 46.65 68.95 46.0 60.6 45.25 52.55 44.95 45.25 44.55 44.1 43.4 43.05 42.25 52.05 39.35 40.65 40.75 37.7 40.35 20.65 40.75 31.2 37.95 29.85 37.25 35.45 35.6 L25.05 34.85 Q22.9 34.45 20.75 34.0 19.1 33.55 15.0 33.1 10.75 32.6 15.05 30.8 19.45 29.2 26.0 28.6 32.5 27.9 22.65 26.35 13.0 24.65 27.2 23.9 41.25 22.65 30.4 21.95 20.7 21.35 12.5 20.1 4.35 18.75 4.85 17.2" fill="none" stroke="#000000" stroke-linecap="round" stroke-linejoin="round" stroke-opacity="0.0" stroke-width="1.0"/>
    </g>
    <g id="morphshape1" transform="matrix(1.0, 0.0, 0.0, 1.0, -17.5, -9.15)">
      <path d="M125.7 22.15 Q125.7 22.9 126.15 23.6 126.9 24.65 129.75 24.4 L129.0 22.2 Q128.0 21.85 125.7 22.15 M102.15 32.65 Q102.15 33.0 103.25 33.8 L106.55 33.9 108.7 32.9 Q110.9 31.85 111.3 31.35 L109.8 30.15 105.6 29.75 Q102.15 29.95 102.15 32.65 M88.9 42.3 L88.9 42.35 89.35 43.15 Q90.55 43.45 91.9 43.7 L94.45 43.85 98.25 43.7 98.95 43.5 99.35 43.1 99.5 42.35 99.45 41.85 Q99.3 41.1 98.6 40.65 97.45 39.95 92.7 40.05 90.75 40.35 89.25 41.6 L88.8 42.35 M78.3 33.95 L78.6 34.65 Q79.3 35.05 80.45 35.45 L82.5 35.85 85.45 35.95 85.9 35.8 86.2 35.55 86.4 35.0 86.4 34.55 Q86.35 33.8 85.9 33.45 85.1 32.75 81.5 32.65 79.95 32.85 78.6 33.35 L78.4 33.95 M61.6 38.8 L62.15 39.7 68.5 40.1 Q72.55 40.1 75.4 37.85 75.4 35.95 69.35 35.8 63.1 35.7 61.6 38.8 M56.2 41.1 Q56.3 41.55 56.45 41.85 L59.5 41.85 Q59.95 41.6 60.2 40.0 L56.7 40.2 Q56.2 40.55 56.2 41.1 M49.0 34.65 L50.2 35.85 Q52.25 37.0 56.55 37.0 58.1 37.0 59.85 34.85 59.85 31.9 54.45 31.95 49.0 32.0 49.0 34.65 M30.65 29.75 Q30.8 30.3 33.55 31.45 37.05 32.1 40.65 32.15 L44.45 31.4 Q45.5 30.65 45.9 28.6 45.35 25.75 37.75 26.3 30.1 26.8 30.65 29.8 M21.35 12.6 Q21.35 13.05 21.8 13.75 L22.75 14.7 29.6 14.8 Q30.8 13.9 30.8 13.35 30.8 11.5 26.1 11.4 21.35 11.35 21.35 12.6" fill="#bef0d8" fill-opacity="0.7058824" fill-rule="evenodd" stroke="none"/>
      <path d="M21.35 12.6 Q21.35 11.35 26.1 11.4 30.8 11.5 30.8 13.35 30.8 13.9 29.6 14.8 L22.75 14.7 21.8 13.75 Q21.35 13.05 21.35 12.6 M30.65 29.8 Q30.1 26.8 37.75 26.3 45.35 25.75 45.9 28.6 45.5 30.65 44.45 31.4 L40.65 32.15 Q37.05 32.1 33.55 31.45 30.8 30.3 30.65 29.75 M49.0 34.65 Q49.0 32.0 54.45 31.95 59.85 31.9 59.85 34.85 58.1 37.0 56.55 37.0 52.25 37.0 50.2 35.85 L49.0 34.65 M56.2 41.1 Q56.2 40.55 56.7 40.2 L60.2 40.0 Q59.95 41.6 59.5 41.85 L56.45 41.85 Q56.3 41.55 56.2 41.1 M61.6 38.8 Q63.1 35.7 69.35 35.8 75.4 35.95 75.4 37.85 72.55 40.1 68.5 40.1 L62.15 39.7 61.6 38.8 M78.4 33.95 L78.6 33.35 Q79.95 32.85 81.5 32.65 85.1 32.75 85.9 33.45 86.35 33.8 86.4 34.55 L86.4 35.0 86.2 35.55 85.9 35.8 85.45 35.95 82.5 35.85 80.45 35.45 Q79.3 35.05 78.6 34.65 L78.3 33.95 M88.8 42.35 L89.25 41.6 Q90.75 40.35 92.7 40.05 97.45 39.95 98.6 40.65 99.3 41.1 99.45 41.85 L99.5 42.35 99.35 43.1 98.95 43.5 98.25 43.7 94.45 43.85 91.9 43.7 Q90.55 43.45 89.35 43.15 L88.9 42.35 88.9 42.3 M102.15 32.65 Q102.15 29.95 105.6 29.75 L109.8 30.15 111.3 31.35 Q110.9 31.85 108.7 32.9 L106.55 33.9 103.25 33.8 Q102.15 33.0 102.15 32.65 M125.7 22.15 Q128.0 21.85 129.0 22.2 L129.75 24.4 Q126.9 24.65 126.15 23.6 125.7 22.9 125.7 22.15 Z" fill="none" stroke="#000000" stroke-linecap="round" stroke-linejoin="round" stroke-opacity="0.0" stroke-width="1.0"/>
    </g>
    <g id="morphshape2" transform="matrix(1.0, 0.0, 0.0, 1.0, -37.6, -4.7)">
      <path d="M105.95 18.05 Q105.95 19.2 106.2 19.6 L107.0 20.15 Q109.8 19.4 110.8 18.9 111.5 18.4 110.45 15.35 108.05 15.55 107.0 16.2 105.95 16.8 105.95 18.05 M93.05 17.95 Q93.05 19.0 93.65 19.6 L96.7 19.8 Q97.15 18.8 96.9 16.7 L93.15 16.6 93.05 17.95 M91.75 9.75 Q91.75 10.8 92.15 11.7 L98.1 11.7 Q99.15 10.65 99.15 7.15 94.45 6.7 92.8 7.55 91.75 8.15 91.75 9.75 M83.45 17.75 Q83.5 18.7 84.25 20.55 84.9 21.0 86.45 21.15 L87.25 19.95 Q87.75 19.25 87.05 17.45 L83.45 17.75 M76.25 12.85 Q75.85 14.75 76.65 16.25 77.65 18.0 79.9 18.0 81.05 18.0 82.25 16.25 81.4 13.85 79.75 13.2 L76.25 12.85 M64.6 10.45 L64.65 11.9 65.0 12.45 70.45 13.2 73.75 13.6 Q75.5 13.6 74.4 11.15 74.4 8.1 69.5 7.95 64.6 7.85 64.6 10.45 M56.15 20.0 L56.15 20.05 56.25 21.1 56.55 21.45 Q56.95 21.55 57.4 21.6 58.4 21.65 59.55 21.7 L63.0 21.5 Q63.2 20.25 62.6 17.55 61.8 16.0 61.05 15.15 59.8 14.2 58.4 14.65 56.1 15.75 56.1 20.0 M51.45 11.6 L51.5 12.45 51.6 12.65 Q51.8 13.0 52.1 13.05 L53.65 13.35 Q55.15 12.85 55.85 12.8 56.1 11.6 56.05 9.95 55.55 8.85 55.1 8.0 54.15 7.65 53.2 7.8 51.5 8.8 51.5 11.6 M40.2 13.1 L41.3 15.2 Q43.0 17.35 46.0 17.35 49.9 17.35 49.9 14.15 49.9 11.15 45.05 10.35 40.2 9.5 40.2 13.1" fill="#bef0d8" fill-opacity="0.7058824" fill-rule="evenodd" stroke="none"/>
      <path d="M40.2 13.1 Q40.2 9.5 45.05 10.35 49.9 11.15 49.9 14.15 49.9 17.35 46.0 17.35 43.0 17.35 41.3 15.2 L40.2 13.1 M51.5 11.6 Q51.5 8.8 53.2 7.8 54.15 7.65 55.1 8.0 55.55 8.85 56.05 9.95 56.1 11.6 55.85 12.8 55.15 12.85 53.65 13.35 L52.1 13.05 Q51.8 13.0 51.6 12.65 L51.5 12.45 51.45 11.6 M56.1 20.0 Q56.1 15.75 58.4 14.65 59.8 14.2 61.05 15.15 61.8 16.0 62.6 17.55 63.2 20.25 63.0 21.5 L59.55 21.7 Q58.4 21.65 57.4 21.6 56.95 21.55 56.55 21.45 L56.25 21.1 56.15 20.05 56.15 20.0 M64.6 10.45 Q64.6 7.85 69.5 7.95 74.4 8.1 74.4 11.15 75.5 13.6 73.75 13.6 L70.45 13.2 65.0 12.45 64.65 11.9 64.6 10.45 M76.25 12.85 L79.75 13.2 Q81.4 13.85 82.25 16.25 81.05 18.0 79.9 18.0 77.65 18.0 76.65 16.25 75.85 14.75 76.25 12.85 M83.45 17.75 L87.05 17.45 Q87.75 19.25 87.25 19.95 L86.45 21.15 Q84.9 21.0 84.25 20.55 83.5 18.7 83.45 17.75 M91.75 9.75 Q91.75 8.15 92.8 7.55 94.45 6.7 99.15 7.15 99.15 10.65 98.1 11.7 L92.15 11.7 Q91.75 10.8 91.75 9.75 M93.05 17.95 L93.15 16.6 96.9 16.7 Q97.15 18.8 96.7 19.8 L93.65 19.6 Q93.05 19.0 93.05 17.95 M105.95 18.05 Q105.95 16.8 107.0 16.2 108.05 15.55 110.45 15.35 111.5 18.4 110.8 18.9 109.8 19.4 107.0 20.15 L106.2 19.6 Q105.95 19.2 105.95 18.05 Z" fill="none" stroke="#000000" stroke-linecap="round" stroke-linejoin="round" stroke-opacity="0.0" stroke-width="1.0"/>
    </g>
    <g id="morphshape3" transform="matrix(1.0, 0.0, 0.0, 1.0, -32.35, -6.65)">
      <path d="M94.3 8.8 Q94.3 9.95 94.45 10.35 L94.9 11.1 96.9 11.1 97.4 10.6 97.55 9.4 97.3 7.9 Q97.0 7.45 94.45 7.4 94.3 7.05 94.3 8.8 M68.65 10.4 Q68.45 10.8 69.1 11.6 69.45 11.95 70.3 12.15 71.65 12.25 73.0 12.15 73.45 11.65 73.35 10.95 72.65 10.7 69.15 9.9 L68.7 10.4 M65.9 35.8 L66.2 37.75 Q66.4 38.8 66.85 39.65 L70.35 39.65 Q70.55 39.35 70.85 39.2 L70.45 36.1 66.9 35.55 Q66.1 35.5 65.9 35.8 M43.5 14.75 L43.7 16.1 44.05 16.6 45.6 16.65 Q46.65 16.65 47.25 16.2 47.45 16.05 47.45 14.3 47.45 13.15 47.1 12.6 L46.4 11.95 43.6 13.05 43.5 14.75 M36.25 29.2 L36.5 30.2 Q36.85 31.0 37.3 31.3 41.4 30.75 41.4 28.35 41.4 27.25 41.05 26.95 L40.2 26.6 38.45 26.85 36.6 27.0 36.25 29.2" fill="#ffffff" fill-opacity="0.7058824" fill-rule="evenodd" stroke="none"/>
      <path d="M36.25 29.2 L36.6 27.0 38.45 26.85 40.2 26.6 41.05 26.95 Q41.4 27.25 41.4 28.35 41.4 30.75 37.3 31.3 36.85 31.0 36.5 30.2 L36.25 29.2 M43.5 14.75 L43.6 13.05 46.4 11.95 47.1 12.6 Q47.45 13.15 47.45 14.3 47.45 16.05 47.25 16.2 46.65 16.65 45.6 16.65 L44.05 16.6 43.7 16.1 43.5 14.75 M65.9 35.8 Q66.1 35.5 66.9 35.55 L70.45 36.1 70.85 39.2 Q70.55 39.35 70.35 39.65 L66.85 39.65 Q66.4 38.8 66.2 37.75 L65.9 35.8 M68.7 10.4 L69.15 9.9 Q72.65 10.7 73.35 10.95 73.45 11.65 73.0 12.15 71.65 12.25 70.3 12.15 69.45 11.95 69.1 11.6 68.45 10.8 68.65 10.4 M94.3 8.8 Q94.3 7.05 94.45 7.4 97.0 7.45 97.3 7.9 L97.55 9.4 97.4 10.6 96.9 11.1 94.9 11.1 94.45 10.35 Q94.3 9.95 94.3 8.8 Z" fill="none" stroke="#000000" stroke-linecap="round" stroke-linejoin="round" stroke-opacity="0.0" stroke-width="1.0"/>
    </g>
  </defs>
</svg>
