<?xml version="1.0" encoding="UTF-8" standalone="no"?>
<svg xmlns:xlink="http://www.w3.org/1999/xlink" height="47.45px" width="141.0px" xmlns="http://www.w3.org/2000/svg">
  <g transform="matrix(1.0, 0.0, 0.0, 1.0, -4.35, -2.9)">
    <use data-characterId="3188" height="47.45" transform="matrix(1.0, 0.0, 0.0, 1.0, 4.35, 2.9)" width="141.0" xlink:href="#morphshape0"/>
    <use data-characterId="3189" height="37.5" transform="matrix(1.0, 0.0, 0.0, 1.0, 17.5, 9.15)" width="116.05" xlink:href="#morphshape1"/>
    <use data-characterId="3190" height="21.8" transform="matrix(1.0, 0.0, 0.0, 1.0, 37.6, 4.7)" width="75.1" xlink:href="#morphshape2"/>
    <use data-characterId="3191" height="35.65" transform="matrix(1.0, 0.0, 0.0, 1.0, 32.35, 6.65)" width="66.65" xlink:href="#morphshape3"/>
  </g>
  <defs>
    <g id="morphshape0" transform="matrix(1.0, 0.0, 0.0, 1.0, -4.35, -2.9)">
      <path d="M4.8 16.9 Q4.2 18.45 12.75 19.85 21.3 21.2 31.45 21.8 42.55 22.45 27.5 23.6 12.35 24.35 22.75 26.1 33.35 27.7 26.4 28.4 19.4 29.0 14.65 30.65 10.0 32.45 14.45 32.9 18.8 33.3 20.4 33.75 22.4 34.25 24.55 34.6 L35.65 35.3 Q29.7 36.9 30.7 37.6 19.15 40.55 37.05 40.15 40.3 40.5 52.45 38.95 42.85 42.0 43.7 43.1 44.65 44.25 52.2 44.7 60.65 45.0 69.35 45.65 79.35 46.25 72.15 48.25 64.7 50.25 67.5 49.95 72.25 49.65 76.65 49.65 L91.9 49.15 Q100.65 48.75 103.6 47.65 107.4 46.65 106.3 45.35 104.75 44.4 107.85 41.7 110.3 40.55 102.1 38.35 122.3 37.65 124.3 35.8 127.15 34.25 121.6 33.85 120.75 33.3 118.05 32.95 126.35 31.45 126.45 30.6 126.7 29.75 122.75 28.9 118.95 28.1 114.5 27.7 110.05 27.3 123.15 26.05 136.25 24.8 140.8 23.0 145.35 21.15 136.8 19.75 129.2 18.35 124.4 18.4 L122.5 18.5 122.25 18.45 Q122.85 17.9 121.9 17.4 133.2 16.05 127.65 14.9 122.7 13.75 116.1 13.6 116.4 12.65 114.55 12.1 105.4 7.85 95.7 5.4 87.45 2.95 62.4 3.6 43.3 4.2 24.05 7.75 4.65 10.8 7.65 11.9 10.65 12.95 24.6 13.85 38.5 14.7 32.4 14.9 26.25 15.0 20.2 15.1 L12.05 15.45 4.9 16.3 Q4.7 16.6 4.85 16.95" fill="#96e0bc" fill-opacity="0.7058824" fill-rule="evenodd" stroke="none"/>
      <path d="M4.85 16.95 Q4.7 16.6 4.9 16.3 L12.05 15.45 20.2 15.1 Q26.25 15.0 32.4 14.9 38.5 14.7 24.6 13.85 10.65 12.95 7.65 11.9 4.65 10.8 24.05 7.75 43.3 4.2 62.4 3.6 87.45 2.95 95.7 5.4 105.4 7.85 114.55 12.1 116.4 12.65 116.1 13.6 122.7 13.75 127.65 14.9 133.2 16.05 121.9 17.4 122.85 17.9 122.25 18.45 L122.5 18.5 124.4 18.4 Q129.2 18.35 136.8 19.75 145.35 21.15 140.8 23.0 136.25 24.8 123.15 26.05 110.05 27.3 114.5 27.7 118.95 28.1 122.75 28.9 126.7 29.75 126.45 30.6 126.35 31.45 118.05 32.95 120.75 33.3 121.6 33.85 127.15 34.25 124.3 35.8 122.3 37.65 102.1 38.35 110.3 40.55 107.85 41.7 104.75 44.4 106.3 45.35 107.4 46.65 103.6 47.65 100.65 48.75 91.9 49.15 L76.65 49.65 Q72.25 49.65 67.5 49.95 64.7 50.25 72.15 48.25 79.35 46.25 69.35 45.65 60.65 45.0 52.2 44.7 44.65 44.25 43.7 43.1 42.85 42.0 52.45 38.95 40.3 40.5 37.05 40.15 19.15 40.55 30.7 37.6 29.7 36.9 35.65 35.3 L24.55 34.6 Q22.4 34.25 20.4 33.75 18.8 33.3 14.45 32.9 10.0 32.45 14.65 30.65 19.4 29.0 26.4 28.4 33.35 27.7 22.75 26.1 12.35 24.35 27.5 23.6 42.55 22.45 31.45 21.8 21.3 21.2 12.75 19.85 4.2 18.45 4.8 16.9" fill="none" stroke="#000000" stroke-linecap="round" stroke-linejoin="round" stroke-opacity="0.0" stroke-width="1.0"/>
    </g>
    <g id="morphshape1" transform="matrix(1.0, 0.0, 0.0, 1.0, -17.5, -9.15)">
      <path d="M126.45 22.05 Q126.45 22.8 126.9 23.5 127.65 24.55 130.5 24.3 L129.75 22.1 Q128.75 21.75 126.45 22.05 M102.3 32.9 Q102.3 33.25 103.4 34.05 L106.7 34.15 108.85 33.15 Q111.05 32.1 111.45 31.6 L109.95 30.4 105.75 30.0 Q102.3 30.2 102.3 32.9 M89.0 42.95 L89.5 43.8 Q90.8 44.05 92.15 44.3 L94.8 44.45 98.7 44.3 99.4 44.1 99.85 43.7 100.0 42.95 99.95 42.45 Q99.8 41.65 99.1 41.2 97.95 40.45 93.1 40.55 91.1 40.85 89.55 42.15 L89.05 42.95 M78.7 33.35 L78.7 33.45 78.95 34.05 Q79.55 34.5 80.7 34.9 L82.65 35.3 85.5 35.4 85.95 35.25 86.2 35.0 86.4 34.45 86.4 34.0 Q86.35 33.3 85.9 32.95 85.1 32.3 81.6 32.2 80.1 32.4 78.8 32.85 L78.65 33.4 M61.5 39.25 L62.05 40.15 68.4 40.55 Q72.45 40.55 75.3 38.3 75.3 36.4 69.25 36.25 63.0 36.15 61.5 39.25 M55.85 41.0 Q55.95 41.4 56.1 41.75 L59.15 41.75 Q59.6 41.5 59.85 39.9 L56.35 40.1 Q55.85 40.45 55.85 41.0 M49.0 34.5 L50.2 35.7 Q52.25 36.85 56.55 36.85 58.1 36.85 59.85 34.7 59.85 31.75 54.45 31.8 49.0 31.85 49.0 34.5 M30.95 29.9 Q31.1 30.45 33.9 31.55 37.4 32.1 41.0 32.15 L44.8 31.35 Q45.85 30.55 46.2 28.5 45.6 25.7 38.0 26.35 30.35 26.95 30.95 29.9 M21.6 12.15 Q21.6 12.6 22.05 13.3 L23.0 14.25 29.85 14.35 Q31.05 13.45 31.05 12.9 31.05 11.05 26.35 10.95 21.6 10.9 21.6 12.15" fill="#bef0d8" fill-opacity="0.7058824" fill-rule="evenodd" stroke="none"/>
      <path d="M21.6 12.15 Q21.6 10.9 26.35 10.95 31.05 11.05 31.05 12.9 31.05 13.45 29.85 14.35 L23.0 14.25 22.05 13.3 Q21.6 12.6 21.6 12.15 M30.95 29.9 Q30.35 26.95 38.0 26.35 45.6 25.7 46.2 28.5 45.85 30.55 44.8 31.35 L41.0 32.15 Q37.4 32.1 33.9 31.55 31.1 30.45 30.95 29.9 M49.0 34.5 Q49.0 31.85 54.45 31.8 59.85 31.75 59.85 34.7 58.1 36.85 56.55 36.85 52.25 36.85 50.2 35.7 L49.0 34.5 M55.85 41.0 Q55.85 40.45 56.35 40.1 L59.85 39.9 Q59.6 41.5 59.15 41.75 L56.1 41.75 Q55.95 41.4 55.85 41.0 M61.5 39.25 Q63.0 36.15 69.25 36.25 75.3 36.4 75.3 38.3 72.45 40.55 68.4 40.55 L62.05 40.15 61.5 39.25 M78.65 33.4 L78.8 32.85 Q80.1 32.4 81.6 32.2 85.1 32.3 85.9 32.95 86.35 33.3 86.4 34.0 L86.4 34.45 86.2 35.0 85.95 35.25 85.5 35.4 82.65 35.3 80.7 34.9 Q79.55 34.5 78.95 34.05 L78.7 33.45 78.7 33.35 M89.05 42.95 L89.55 42.15 Q91.1 40.85 93.1 40.55 97.95 40.45 99.1 41.2 99.8 41.65 99.95 42.45 L100.0 42.95 99.85 43.7 99.4 44.1 98.7 44.3 94.8 44.45 92.15 44.3 Q90.8 44.05 89.5 43.8 L89.0 42.95 M102.3 32.9 Q102.3 30.2 105.75 30.0 L109.95 30.4 111.45 31.6 Q111.05 32.1 108.85 33.15 L106.7 34.15 103.4 34.05 Q102.3 33.25 102.3 32.9 M126.45 22.05 Q128.75 21.75 129.75 22.1 L130.5 24.3 Q127.65 24.55 126.9 23.5 126.45 22.8 126.45 22.05 Z" fill="none" stroke="#000000" stroke-linecap="round" stroke-linejoin="round" stroke-opacity="0.0" stroke-width="1.0"/>
    </g>
    <g id="morphshape2" transform="matrix(1.0, 0.0, 0.0, 1.0, -37.6, -4.7)">
      <path d="M106.25 18.3 Q106.25 19.45 106.5 19.85 L107.3 20.4 Q110.15 19.65 111.1 19.15 111.8 18.65 110.75 15.6 108.35 15.8 107.3 16.45 106.25 17.05 106.25 18.3 M93.3 17.7 Q93.3 18.75 93.9 19.35 L96.95 19.55 Q97.4 18.55 97.15 16.45 L93.4 16.35 93.3 17.7 M92.05 9.6 Q92.05 10.65 92.45 11.55 L98.4 11.55 Q99.45 10.5 99.45 7.0 94.75 6.55 93.1 7.4 92.05 8.0 92.05 9.6 M83.7 17.4 Q83.75 18.35 84.5 20.2 85.15 20.65 86.7 20.8 L87.5 19.6 Q88.0 18.9 87.3 17.1 L83.7 17.4 M76.1 13.3 Q75.7 15.2 76.5 16.7 77.5 18.45 79.75 18.45 80.9 18.45 82.1 16.7 81.25 14.3 79.6 13.65 L76.1 13.3 M64.45 10.15 L64.5 11.6 64.85 12.15 70.3 12.9 73.6 13.3 Q75.35 13.3 74.25 10.85 74.25 7.8 69.35 7.65 64.45 7.55 64.45 10.15 M56.15 20.55 L56.25 21.7 56.55 22.1 Q57.0 22.2 57.5 22.2 58.55 22.25 59.75 22.3 L63.35 22.15 Q63.55 20.9 62.9 18.1 62.05 16.5 61.25 15.65 59.95 14.6 58.5 15.1 56.15 16.25 56.15 20.6 M51.75 10.9 L51.75 11.05 51.8 11.7 51.9 11.85 Q52.05 12.2 52.3 12.3 L53.75 12.6 Q55.2 12.1 55.8 12.0 56.05 10.8 56.05 9.25 55.6 8.2 55.2 7.35 54.3 7.1 53.4 7.2 51.75 8.15 51.75 10.85 M40.35 13.3 L41.45 15.4 Q43.15 17.55 46.15 17.55 50.05 17.55 50.05 14.35 50.05 11.35 45.2 10.55 40.35 9.7 40.35 13.3" fill="#bef0d8" fill-opacity="0.7058824" fill-rule="evenodd" stroke="none"/>
      <path d="M40.35 13.3 Q40.35 9.7 45.2 10.55 50.05 11.35 50.05 14.35 50.05 17.55 46.15 17.55 43.15 17.55 41.45 15.4 L40.35 13.3 M51.75 10.85 Q51.75 8.15 53.4 7.2 54.3 7.1 55.2 7.35 55.6 8.2 56.05 9.25 56.05 10.8 55.8 12.0 55.2 12.1 53.75 12.6 L52.3 12.3 Q52.05 12.2 51.9 11.85 L51.8 11.7 51.75 11.05 51.75 10.9 M56.15 20.6 Q56.15 16.25 58.5 15.1 59.95 14.6 61.25 15.65 62.05 16.5 62.9 18.1 63.55 20.9 63.35 22.15 L59.75 22.3 Q58.55 22.25 57.5 22.2 57.0 22.2 56.55 22.1 L56.25 21.7 56.15 20.55 M64.45 10.15 Q64.45 7.55 69.35 7.65 74.25 7.8 74.25 10.85 75.35 13.3 73.6 13.3 L70.3 12.9 64.85 12.15 64.5 11.6 64.45 10.15 M76.1 13.3 L79.6 13.65 Q81.25 14.3 82.1 16.7 80.9 18.45 79.75 18.45 77.5 18.45 76.5 16.7 75.7 15.2 76.1 13.3 M83.7 17.4 L87.3 17.1 Q88.0 18.9 87.5 19.6 L86.7 20.8 Q85.15 20.65 84.5 20.2 83.75 18.35 83.7 17.4 M92.05 9.6 Q92.05 8.0 93.1 7.4 94.75 6.55 99.45 7.0 99.45 10.5 98.4 11.55 L92.45 11.55 Q92.05 10.65 92.05 9.6 M93.3 17.7 L93.4 16.35 97.15 16.45 Q97.4 18.55 96.95 19.55 L93.9 19.35 Q93.3 18.75 93.3 17.7 M106.25 18.3 Q106.25 17.05 107.3 16.45 108.35 15.8 110.75 15.6 111.8 18.65 111.1 19.15 110.15 19.65 107.3 20.4 L106.5 19.85 Q106.25 19.45 106.25 18.3 Z" fill="none" stroke="#000000" stroke-linecap="round" stroke-linejoin="round" stroke-opacity="0.0" stroke-width="1.0"/>
    </g>
    <g id="morphshape3" transform="matrix(1.0, 0.0, 0.0, 1.0, -32.35, -6.65)">
      <path d="M95.5 8.25 Q95.5 9.4 95.65 9.8 L96.1 10.55 98.1 10.55 98.6 10.05 98.75 8.85 98.5 7.35 Q98.2 6.9 95.65 6.85 95.5 6.5 95.5 8.25 M68.7 10.0 Q68.45 10.35 69.0 11.25 69.3 11.7 70.15 12.0 L72.9 12.35 Q73.4 11.9 73.4 11.2 73.2 10.75 69.25 9.55 L68.7 10.0 M65.85 36.6 L66.15 38.55 Q66.35 39.6 66.8 40.45 L70.3 40.45 Q70.5 40.15 70.8 40.0 L70.4 36.9 66.85 36.35 Q66.05 36.3 65.85 36.6 M43.75 14.85 L43.95 16.2 44.3 16.7 45.85 16.75 Q46.9 16.75 47.5 16.3 47.7 16.15 47.7 14.4 47.7 13.25 47.35 12.7 L46.65 12.05 43.85 13.15 43.75 14.85 M36.5 29.2 L36.75 30.2 Q37.1 31.0 37.55 31.3 41.65 30.75 41.65 28.35 41.65 27.25 41.3 26.95 L40.45 26.6 38.7 26.85 36.85 27.0 36.5 29.2" fill="#ffffff" fill-opacity="0.7058824" fill-rule="evenodd" stroke="none"/>
      <path d="M36.5 29.2 L36.85 27.0 38.7 26.85 40.45 26.6 41.3 26.95 Q41.65 27.25 41.65 28.35 41.65 30.75 37.55 31.3 37.1 31.0 36.75 30.2 L36.5 29.2 M43.75 14.85 L43.85 13.15 46.65 12.05 47.35 12.7 Q47.7 13.25 47.7 14.4 47.7 16.15 47.5 16.3 46.9 16.75 45.85 16.75 L44.3 16.7 43.95 16.2 43.75 14.85 M65.85 36.6 Q66.05 36.3 66.85 36.35 L70.4 36.9 70.8 40.0 Q70.5 40.15 70.3 40.45 L66.8 40.45 Q66.35 39.6 66.15 38.55 L65.85 36.6 M68.7 10.0 L69.25 9.55 Q73.2 10.75 73.4 11.2 73.4 11.9 72.9 12.35 L70.15 12.0 Q69.3 11.7 69.0 11.25 68.45 10.35 68.7 10.0 M95.5 8.25 Q95.5 6.5 95.65 6.85 98.2 6.9 98.5 7.35 L98.75 8.85 98.6 10.05 98.1 10.55 96.1 10.55 95.65 9.8 Q95.5 9.4 95.5 8.25 Z" fill="none" stroke="#000000" stroke-linecap="round" stroke-linejoin="round" stroke-opacity="0.0" stroke-width="1.0"/>
    </g>
  </defs>
</svg>
