<?xml version="1.0" encoding="UTF-8" standalone="no"?>
<svg xmlns:xlink="http://www.w3.org/1999/xlink" height="47.45px" width="141.0px" xmlns="http://www.w3.org/2000/svg">
  <g transform="matrix(1.0, 0.0, 0.0, 1.0, -4.35, -2.9)">
    <use data-characterId="3192" height="47.45" transform="matrix(1.0, 0.0, 0.0, 1.0, 4.35, 2.9)" width="141.0" xlink:href="#morphshape0"/>
    <use data-characterId="3193" height="37.5" transform="matrix(1.0, 0.0, 0.0, 1.0, 17.5, 9.15)" width="116.05" xlink:href="#morphshape1"/>
    <use data-characterId="3194" height="21.8" transform="matrix(1.0, 0.0, 0.0, 1.0, 37.6, 4.7)" width="75.1" xlink:href="#morphshape2"/>
    <use data-characterId="3195" height="35.65" transform="matrix(1.0, 0.0, 0.0, 1.0, 32.35, 6.65)" width="66.65" xlink:href="#morphshape3"/>
  </g>
  <defs>
    <g id="morphshape0" transform="matrix(1.0, 0.0, 0.0, 1.0, -4.35, -2.9)">
      <path d="M4.9 19.05 Q5.25 20.55 9.25 21.4 13.35 22.1 17.85 22.55 25.95 23.45 22.8 25.6 19.1 26.3 20.25 27.7 22.1 28.6 20.15 29.5 18.2 30.2 17.3 31.3 16.7 33.1 18.9 33.75 20.7 34.25 22.7 34.5 26.35 34.75 28.65 35.65 L31.3 36.8 Q29.4 38.8 34.4 39.7 34.6 40.55 42.3 40.5 42.45 41.5 45.55 41.85 43.1 43.4 46.15 44.8 49.5 46.3 54.5 46.45 58.1 46.55 62.8 48.0 67.8 49.4 68.05 49.9 67.5 50.4 71.95 49.15 77.1 47.85 80.85 47.7 L90.2 46.85 Q94.95 46.45 98.15 45.9 104.8 45.85 107.25 43.3 107.95 42.1 109.2 40.3 114.35 39.5 113.35 38.15 121.35 35.95 118.5 34.45 118.95 33.95 117.3 33.8 124.7 32.45 124.6 31.7 127.3 30.65 125.3 29.7 124.15 29.05 121.9 28.4 120.5 28.05 124.05 27.15 127.55 26.25 131.95 24.2 136.35 22.15 135.45 20.7 134.45 19.2 128.0 18.85 125.15 18.5 123.05 18.55 L122.45 18.55 121.85 18.3 Q125.3 16.6 122.5 15.05 122.9 14.5 119.0 14.0 117.75 13.65 116.05 13.6 117.15 10.05 109.85 7.9 98.8 4.2 76.7 3.55 60.35 2.9 39.3 5.5 20.35 7.95 16.25 10.95 11.5 12.2 12.55 12.9 13.6 13.55 17.45 14.2 21.15 14.7 19.05 15.0 17.2 15.05 15.45 15.25 L6.7 16.15 4.85 16.35 Q4.1 17.6 4.75 18.9" fill="#96e0bc" fill-opacity="0.7058824" fill-rule="evenodd" stroke="none"/>
      <path d="M4.75 18.9 Q4.1 17.6 4.85 16.35 L6.7 16.15 15.45 15.25 Q17.2 15.05 19.05 15.0 21.15 14.7 17.45 14.2 13.6 13.55 12.55 12.9 11.5 12.2 16.25 10.95 20.35 7.95 39.3 5.5 60.35 2.9 76.7 3.55 98.8 4.2 109.85 7.9 117.15 10.05 116.05 13.6 117.75 13.65 119.0 14.0 122.9 14.5 122.5 15.05 125.3 16.6 121.85 18.3 L122.45 18.55 123.05 18.55 Q125.15 18.5 128.0 18.85 134.45 19.2 135.45 20.7 136.35 22.15 131.95 24.2 127.55 26.25 124.05 27.15 120.5 28.05 121.9 28.4 124.15 29.05 125.3 29.7 127.3 30.65 124.6 31.7 124.7 32.45 117.3 33.8 118.95 33.95 118.5 34.45 121.35 35.95 113.35 38.15 114.35 39.5 109.2 40.3 107.95 42.1 107.25 43.3 104.8 45.85 98.15 45.9 94.95 46.45 90.2 46.85 L80.85 47.7 Q77.1 47.85 71.95 49.15 67.5 50.4 68.05 49.9 67.8 49.4 62.8 48.0 58.1 46.55 54.5 46.45 49.5 46.3 46.15 44.8 43.1 43.4 45.55 41.85 42.45 41.5 42.3 40.5 34.6 40.55 34.4 39.7 29.4 38.8 31.3 36.8 L28.65 35.65 Q26.35 34.75 22.7 34.5 20.7 34.25 18.9 33.75 16.7 33.1 17.3 31.3 18.2 30.2 20.15 29.5 22.1 28.6 20.25 27.7 19.1 26.3 22.8 25.6 25.95 23.45 17.85 22.55 13.35 22.1 9.25 21.4 5.25 20.55 4.9 19.05" fill="none" stroke="#000000" stroke-linecap="round" stroke-linejoin="round" stroke-opacity="0.0" stroke-width="1.0"/>
    </g>
    <g id="morphshape1" transform="matrix(1.0, 0.0, 0.0, 1.0, -17.5, -9.15)">
      <path d="M117.55 23.25 Q117.55 24.0 118.0 24.7 118.75 25.75 121.6 25.5 L120.85 23.3 Q119.85 22.95 117.55 23.25 M100.2 29.65 Q100.2 30.0 101.3 30.8 L104.6 30.9 106.75 29.9 Q108.95 28.85 109.35 28.35 L107.85 27.15 103.65 26.75 Q100.2 26.95 100.2 29.65 M85.8 35.95 L85.8 36.05 86.05 36.65 Q86.7 37.1 87.85 37.5 L89.85 37.9 92.7 38.0 93.15 37.85 93.4 37.6 93.6 37.05 93.6 36.6 Q93.55 35.9 93.1 35.55 92.3 34.9 88.8 34.8 87.3 35.0 86.0 35.45 L85.85 36.0 M76.05 40.1 L76.55 40.95 Q77.8 41.2 79.15 41.45 L81.75 41.6 85.65 41.45 86.35 41.25 86.8 40.85 86.95 40.1 86.9 39.6 Q86.75 38.8 86.05 38.35 84.9 37.6 80.05 37.7 78.05 38.0 76.5 39.3 L76.0 40.1 M62.3 33.6 L62.85 34.5 69.2 34.9 Q73.25 34.9 76.1 32.65 76.1 30.75 70.05 30.6 63.8 30.5 62.3 33.6 M60.3 41.95 Q60.35 42.45 60.55 42.7 L63.6 42.7 Q64.05 42.45 64.3 40.85 L60.8 41.05 Q60.3 41.4 60.3 41.95 M49.0 36.4 L50.2 37.6 Q52.25 38.75 56.55 38.75 58.1 38.75 59.85 36.6 59.85 33.65 54.45 33.7 49.0 33.75 49.0 36.4 M27.55 28.7 Q27.6 29.3 30.2 30.8 33.5 32.55 37.15 32.5 L41.0 32.3 Q42.15 31.75 42.8 29.75 42.65 26.85 35.05 26.25 27.4 25.65 27.55 28.7 M18.55 17.45 Q18.55 17.9 19.0 18.6 L19.95 19.55 26.8 19.65 Q28.0 18.75 28.0 18.2 28.0 16.35 23.3 16.25 18.55 16.2 18.55 17.45" fill="#bef0d8" fill-opacity="0.7058824" fill-rule="evenodd" stroke="none"/>
      <path d="M18.55 17.45 Q18.55 16.2 23.3 16.25 28.0 16.35 28.0 18.2 28.0 18.75 26.8 19.65 L19.95 19.55 19.0 18.6 Q18.55 17.9 18.55 17.45 M27.55 28.7 Q27.4 25.65 35.05 26.25 42.65 26.85 42.8 29.75 42.15 31.75 41.0 32.3 L37.15 32.5 Q33.5 32.55 30.2 30.8 27.6 29.3 27.55 28.7 M49.0 36.4 Q49.0 33.75 54.45 33.7 59.85 33.65 59.85 36.6 58.1 38.75 56.55 38.75 52.25 38.75 50.2 37.6 L49.0 36.4 M60.3 41.95 Q60.3 41.4 60.8 41.05 L64.3 40.85 Q64.05 42.45 63.6 42.7 L60.55 42.7 Q60.35 42.45 60.3 41.95 M62.3 33.6 Q63.8 30.5 70.05 30.6 76.1 30.75 76.1 32.65 73.25 34.9 69.2 34.9 L62.85 34.5 62.3 33.6 M76.0 40.1 L76.5 39.3 Q78.05 38.0 80.05 37.7 84.9 37.6 86.05 38.35 86.75 38.8 86.9 39.6 L86.95 40.1 86.8 40.85 86.35 41.25 85.65 41.45 81.75 41.6 79.15 41.45 Q77.8 41.2 76.55 40.95 L76.05 40.1 M85.85 36.0 L86.0 35.45 Q87.3 35.0 88.8 34.8 92.3 34.9 93.1 35.55 93.55 35.9 93.6 36.6 L93.6 37.05 93.4 37.6 93.15 37.85 92.7 38.0 89.85 37.9 87.85 37.5 Q86.7 37.1 86.05 36.65 L85.8 36.05 85.8 35.95 M100.2 29.65 Q100.2 26.95 103.65 26.75 L107.85 27.15 109.35 28.35 Q108.95 28.85 106.75 29.9 L104.6 30.9 101.3 30.8 Q100.2 30.0 100.2 29.65 M117.55 23.25 Q119.85 22.95 120.85 23.3 L121.6 25.5 Q118.75 25.75 118.0 24.7 117.55 24.0 117.55 23.25 Z" fill="none" stroke="#000000" stroke-linecap="round" stroke-linejoin="round" stroke-opacity="0.0" stroke-width="1.0"/>
    </g>
    <g id="morphshape2" transform="matrix(1.0, 0.0, 0.0, 1.0, -37.6, -4.7)">
      <path d="M102.5 15.45 Q102.5 16.6 102.75 17.0 L103.55 17.55 Q105.7 16.85 107.35 16.3 108.05 15.8 107.0 12.75 104.6 12.95 103.55 13.6 102.5 14.2 102.5 15.45 M90.45 21.1 Q90.45 22.15 91.05 22.75 L94.1 22.95 Q94.55 21.95 94.3 19.85 L90.55 19.75 90.45 21.1 M88.95 11.4 Q88.95 12.45 89.35 13.35 L95.3 13.35 Q96.35 12.3 96.35 8.8 91.65 8.35 90.0 9.2 88.95 9.8 88.95 11.4 M80.65 21.65 Q80.7 22.6 81.45 24.45 82.1 24.9 83.65 25.05 L84.45 23.85 Q84.95 23.15 84.25 21.35 L80.65 21.65 M78.05 8.0 Q77.65 9.9 78.45 11.4 79.45 13.15 81.7 13.15 82.85 13.15 84.05 11.4 83.2 9.0 81.55 8.35 L78.05 8.0 M66.25 13.25 L66.3 14.7 66.65 15.25 72.1 16.0 75.4 16.4 Q77.15 16.4 76.05 13.95 76.05 10.9 71.15 10.75 66.25 10.65 66.25 13.25 M55.95 13.15 L55.95 13.3 56.0 13.95 56.1 14.1 Q56.25 14.45 56.5 14.55 56.95 14.7 57.95 14.85 L60.0 14.25 Q60.25 13.05 60.25 11.5 59.8 10.45 59.4 9.6 58.5 9.35 57.6 9.45 55.95 10.4 55.95 13.1 M48.9 19.95 L49.0 21.1 49.3 21.5 Q49.75 21.6 50.25 21.6 L52.5 21.7 Q54.4 21.55 56.1 21.55 56.3 20.3 55.65 17.5 54.8 15.9 54.0 15.05 52.7 14.0 51.25 14.5 48.9 15.65 48.9 20.0 M38.3 10.95 L39.4 13.05 Q41.1 15.2 44.1 15.2 48.0 15.2 48.0 12.0 48.0 9.0 43.15 8.2 38.3 7.35 38.3 10.95" fill="#bef0d8" fill-opacity="0.7058824" fill-rule="evenodd" stroke="none"/>
      <path d="M38.3 10.95 Q38.3 7.35 43.15 8.2 48.0 9.0 48.0 12.0 48.0 15.2 44.1 15.2 41.1 15.2 39.4 13.05 L38.3 10.95 M48.9 20.0 Q48.9 15.65 51.25 14.5 52.7 14.0 54.0 15.05 54.8 15.9 55.65 17.5 56.3 20.3 56.1 21.55 54.4 21.55 52.5 21.7 L50.25 21.6 Q49.75 21.6 49.3 21.5 L49.0 21.1 48.9 19.95 M55.95 13.1 Q55.95 10.4 57.6 9.45 58.5 9.35 59.4 9.6 59.8 10.45 60.25 11.5 60.25 13.05 60.0 14.25 L57.95 14.85 Q56.95 14.7 56.5 14.55 56.25 14.45 56.1 14.1 L56.0 13.95 55.95 13.3 55.95 13.15 M66.25 13.25 Q66.25 10.65 71.15 10.75 76.05 10.9 76.05 13.95 77.15 16.4 75.4 16.4 L72.1 16.0 66.65 15.25 66.3 14.7 66.25 13.25 M78.05 8.0 L81.55 8.35 Q83.2 9.0 84.05 11.4 82.85 13.15 81.7 13.15 79.45 13.15 78.45 11.4 77.65 9.9 78.05 8.0 M80.65 21.65 L84.25 21.35 Q84.95 23.15 84.45 23.85 L83.65 25.05 Q82.1 24.9 81.45 24.45 80.7 22.6 80.65 21.65 M88.95 11.4 Q88.95 9.8 90.0 9.2 91.65 8.35 96.35 8.8 96.35 12.3 95.3 13.35 L89.35 13.35 Q88.95 12.45 88.95 11.4 M90.45 21.1 L90.55 19.75 94.3 19.85 Q94.55 21.95 94.1 22.95 L91.05 22.75 Q90.45 22.15 90.45 21.1 M102.5 15.45 Q102.5 14.2 103.55 13.6 104.6 12.95 107.0 12.75 108.05 15.8 107.35 16.3 105.7 16.85 103.55 17.55 L102.75 17.0 Q102.5 16.6 102.5 15.45 Z" fill="none" stroke="#000000" stroke-linecap="round" stroke-linejoin="round" stroke-opacity="0.0" stroke-width="1.0"/>
    </g>
    <g id="morphshape3" transform="matrix(1.0, 0.0, 0.0, 1.0, -32.35, -6.65)">
      <path d="M91.2 10.35 Q91.2 11.5 91.35 11.9 L91.8 12.65 93.8 12.65 94.3 12.15 94.45 10.95 94.2 9.45 Q93.9 9.0 91.35 8.95 91.2 8.6 91.2 10.35 M69.25 13.25 Q69.15 13.7 70.0 14.3 70.6 14.45 71.3 14.5 72.55 14.4 73.9 13.75 74.2 13.15 73.9 12.5 72.05 12.7 69.5 12.7 L69.25 13.35 M66.2 30.2 L66.5 32.15 Q66.7 33.2 67.15 34.05 L70.65 34.05 Q70.9 33.8 71.15 33.6 L70.75 30.5 67.2 29.95 Q66.4 29.9 66.2 30.2 M41.05 13.45 L41.25 14.8 41.6 15.3 43.15 15.35 Q44.2 15.35 44.8 14.9 45.0 14.75 45.0 13.0 45.0 11.85 44.65 11.3 L43.95 10.65 41.15 11.75 41.05 13.45 M33.4 29.2 L33.65 30.2 Q34.0 31.0 34.45 31.3 38.55 30.75 38.55 28.35 38.55 27.25 38.2 26.95 L37.35 26.6 35.6 26.85 33.75 27.0 33.4 29.2" fill="#ffffff" fill-opacity="0.7058824" fill-rule="evenodd" stroke="none"/>
      <path d="M33.4 29.2 L33.75 27.0 35.6 26.85 37.35 26.6 38.2 26.95 Q38.55 27.25 38.55 28.35 38.55 30.75 34.45 31.3 34.0 31.0 33.65 30.2 L33.4 29.2 M41.05 13.45 L41.15 11.75 43.95 10.65 44.65 11.3 Q45.0 11.85 45.0 13.0 45.0 14.75 44.8 14.9 44.2 15.35 43.15 15.35 L41.6 15.3 41.25 14.8 41.05 13.45 M66.2 30.2 Q66.4 29.9 67.2 29.95 L70.75 30.5 71.15 33.6 Q70.9 33.8 70.65 34.05 L67.15 34.05 Q66.7 33.2 66.5 32.15 L66.2 30.2 M69.25 13.35 L69.5 12.7 Q72.05 12.7 73.9 12.5 74.2 13.15 73.9 13.75 72.55 14.4 71.3 14.5 70.6 14.45 70.0 14.3 69.15 13.7 69.25 13.25 M91.2 10.35 Q91.2 8.6 91.35 8.95 93.9 9.0 94.2 9.45 L94.45 10.95 94.3 12.15 93.8 12.65 91.8 12.65 91.35 11.9 Q91.2 11.5 91.2 10.35 Z" fill="none" stroke="#000000" stroke-linecap="round" stroke-linejoin="round" stroke-opacity="0.0" stroke-width="1.0"/>
    </g>
  </defs>
</svg>
