<?xml version="1.0" encoding="UTF-8" standalone="no"?>
<svg xmlns:xlink="http://www.w3.org/1999/xlink" height="47.45px" width="141.0px" xmlns="http://www.w3.org/2000/svg">
  <g transform="matrix(1.0, 0.0, 0.0, 1.0, -4.35, -2.9)">
    <use data-characterId="3192" height="47.45" transform="matrix(1.0, 0.0, 0.0, 1.0, 4.35, 2.9)" width="141.0" xlink:href="#morphshape0"/>
    <use data-characterId="3193" height="37.5" transform="matrix(1.0, 0.0, 0.0, 1.0, 17.5, 9.15)" width="116.05" xlink:href="#morphshape1"/>
    <use data-characterId="3194" height="21.8" transform="matrix(1.0, 0.0, 0.0, 1.0, 37.6, 4.7)" width="75.1" xlink:href="#morphshape2"/>
    <use data-characterId="3195" height="35.65" transform="matrix(1.0, 0.0, 0.0, 1.0, 32.35, 6.65)" width="66.65" xlink:href="#morphshape3"/>
  </g>
  <defs>
    <g id="morphshape0" transform="matrix(1.0, 0.0, 0.0, 1.0, -4.35, -2.9)">
      <path d="M4.75 19.0 Q5.2 20.45 8.75 21.25 12.4 21.85 16.35 22.3 24.15 23.2 22.2 25.45 19.65 26.1 19.85 27.5 20.8 28.3 19.4 29.25 17.95 29.95 17.4 31.0 17.2 32.8 19.2 33.45 20.75 33.95 22.75 34.15 26.55 34.4 28.85 35.35 L30.65 36.55 Q29.15 38.6 34.55 39.55 35.95 40.15 42.65 40.15 42.45 41.25 44.65 41.8 42.9 43.2 46.15 44.65 49.75 46.2 54.45 46.3 57.6 46.35 61.9 47.85 66.35 49.35 67.4 49.7 67.55 50.05 72.2 48.7 77.35 47.3 81.05 47.15 L89.8 46.25 Q94.15 45.85 97.4 45.35 104.3 45.4 107.15 42.7 108.1 41.5 109.2 39.8 114.65 39.0 114.4 37.75 121.2 35.4 117.9 33.95 118.15 33.6 116.9 33.45 125.15 32.0 125.3 31.25 127.4 30.25 125.2 29.3 123.9 28.65 121.85 28.05 120.7 27.75 125.05 26.8 129.35 25.85 132.85 23.75 136.4 21.65 134.95 20.25 133.35 18.75 127.1 18.55 124.75 18.35 122.95 18.4 L122.5 18.4 121.9 18.15 Q125.65 16.35 122.7 14.7 122.0 14.2 118.3 13.8 117.4 13.55 116.2 13.5 117.4 9.7 109.55 7.4 98.3 3.75 74.95 3.3 57.75 2.85 37.1 5.65 18.15 8.25 15.55 11.2 12.3 12.25 13.15 12.95 14.0 13.6 16.8 14.2 19.45 14.7 17.75 15.0 16.3 15.05 15.0 15.25 L6.2 16.2 4.85 16.35 Q4.05 17.7 4.75 19.1" fill="#96e0bc" fill-opacity="0.7058824" fill-rule="evenodd" stroke="none"/>
      <path d="M4.75 19.1 Q4.05 17.7 4.85 16.35 L6.2 16.2 15.0 15.25 Q16.3 15.05 17.75 15.0 19.45 14.7 16.8 14.2 14.0 13.6 13.15 12.95 12.3 12.25 15.55 11.2 18.15 8.25 37.1 5.65 57.75 2.85 74.95 3.3 98.3 3.75 109.55 7.4 117.4 9.7 116.2 13.5 117.4 13.55 118.3 13.8 122.0 14.2 122.7 14.7 125.65 16.35 121.9 18.15 L122.5 18.4 122.95 18.4 Q124.75 18.35 127.1 18.55 133.35 18.75 134.95 20.25 136.4 21.65 132.85 23.75 129.35 25.85 125.05 26.8 120.7 27.75 121.85 28.05 123.9 28.65 125.2 29.3 127.4 30.25 125.3 31.25 125.15 32.0 116.9 33.45 118.15 33.6 117.9 33.95 121.2 35.4 114.4 37.75 114.65 39.0 109.2 39.8 108.1 41.5 107.15 42.7 104.3 45.4 97.4 45.35 94.15 45.85 89.8 46.25 L81.05 47.15 Q77.35 47.3 72.2 48.7 67.55 50.05 67.4 49.7 66.35 49.35 61.9 47.85 57.6 46.35 54.45 46.3 49.75 46.2 46.15 44.65 42.9 43.2 44.65 41.8 42.45 41.25 42.65 40.15 35.95 40.15 34.55 39.55 29.15 38.6 30.65 36.55 L28.85 35.35 Q26.55 34.4 22.75 34.15 20.75 33.95 19.2 33.45 17.2 32.8 17.4 31.0 17.95 29.95 19.4 29.25 20.8 28.3 19.85 27.5 19.65 26.1 22.2 25.45 24.15 23.2 16.35 22.3 12.4 21.85 8.75 21.25 5.2 20.45 4.75 19.0" fill="none" stroke="#000000" stroke-linecap="round" stroke-linejoin="round" stroke-opacity="0.0" stroke-width="1.0"/>
    </g>
    <g id="morphshape1" transform="matrix(1.0, 0.0, 0.0, 1.0, -17.5, -9.15)">
      <path d="M116.65 23.35 Q116.65 24.1 117.1 24.8 117.85 25.85 120.7 25.6 L119.95 23.4 Q118.95 23.05 116.65 23.35 M99.95 29.3 Q99.95 29.65 101.05 30.45 L104.35 30.55 106.5 29.55 Q108.7 28.5 109.1 28.0 L107.6 26.8 103.4 26.4 Q99.95 26.6 99.95 29.3 M85.65 35.25 L85.65 35.35 85.9 35.9 Q86.45 36.35 87.55 36.75 L89.45 37.2 92.2 37.35 92.6 37.25 92.85 37.0 93.05 36.5 93.05 36.05 Q93.0 35.35 92.6 35.0 91.85 34.35 88.45 34.2 87.0 34.4 85.7 34.75 L85.55 35.3 M75.65 40.8 L76.15 41.65 Q77.5 41.9 78.9 42.15 L81.6 42.25 85.6 42.05 86.35 41.8 86.8 41.4 86.95 40.6 86.9 40.1 Q86.75 39.3 86.0 38.85 84.8 38.1 79.85 38.25 77.8 38.55 76.25 39.95 L75.75 40.75 M62.35 33.05 L62.9 33.95 69.25 34.35 Q73.3 34.35 76.15 32.1 76.15 30.2 70.1 30.05 63.85 29.95 62.35 33.05 M60.75 42.05 Q60.75 42.55 61.0 42.8 L64.05 42.8 Q64.5 42.55 64.75 40.95 L61.25 41.15 Q60.75 41.5 60.75 42.05 M49.0 36.6 L50.2 37.8 Q52.25 38.95 56.55 38.95 58.1 38.95 59.85 36.8 59.85 33.85 54.45 33.9 49.0 33.95 49.0 36.6 M27.15 28.55 Q27.2 29.15 29.8 30.7 33.05 32.55 36.7 32.5 L40.6 32.35 Q41.75 31.8 42.45 29.85 42.35 26.95 34.75 26.25 27.1 25.55 27.2 28.6 M18.25 18.0 Q18.25 18.45 18.7 19.15 L19.65 20.1 26.5 20.2 Q27.7 19.3 27.7 18.75 27.7 16.9 23.0 16.8 18.25 16.75 18.25 18.0" fill="#bef0d8" fill-opacity="0.7058824" fill-rule="evenodd" stroke="none"/>
      <path d="M18.25 18.0 Q18.25 16.75 23.0 16.8 27.7 16.9 27.7 18.75 27.7 19.3 26.5 20.2 L19.65 20.1 18.7 19.15 Q18.25 18.45 18.25 18.0 M27.2 28.6 Q27.1 25.55 34.75 26.25 42.35 26.95 42.45 29.85 41.75 31.8 40.6 32.35 L36.7 32.5 Q33.05 32.55 29.8 30.7 27.2 29.15 27.15 28.55 M49.0 36.6 Q49.0 33.95 54.45 33.9 59.85 33.85 59.85 36.8 58.1 38.95 56.55 38.95 52.25 38.95 50.2 37.8 L49.0 36.6 M60.75 42.05 Q60.75 41.5 61.25 41.15 L64.75 40.95 Q64.5 42.55 64.05 42.8 L61.0 42.8 Q60.75 42.55 60.75 42.05 M62.35 33.05 Q63.85 29.95 70.1 30.05 76.15 30.2 76.15 32.1 73.3 34.35 69.25 34.35 L62.9 33.95 62.35 33.05 M75.75 40.75 L76.25 39.95 Q77.8 38.55 79.85 38.25 84.8 38.1 86.0 38.85 86.75 39.3 86.9 40.1 L86.95 40.6 86.8 41.4 86.35 41.8 85.6 42.05 81.6 42.25 78.9 42.15 Q77.5 41.9 76.15 41.65 L75.65 40.8 M85.55 35.3 L85.7 34.75 Q87.0 34.4 88.45 34.2 91.85 34.35 92.6 35.0 93.0 35.35 93.05 36.05 L93.05 36.5 92.85 37.0 92.6 37.25 92.2 37.35 89.45 37.2 87.55 36.75 Q86.45 36.35 85.9 35.9 L85.65 35.35 85.65 35.25 M99.95 29.3 Q99.95 26.6 103.4 26.4 L107.6 26.8 109.1 28.0 Q108.7 28.5 106.5 29.55 L104.35 30.55 101.05 30.45 Q99.95 29.65 99.95 29.3 M116.65 23.35 Q118.95 23.05 119.95 23.4 L120.7 25.6 Q117.85 25.85 117.1 24.8 116.65 24.1 116.65 23.35 Z" fill="none" stroke="#000000" stroke-linecap="round" stroke-linejoin="round" stroke-opacity="0.0" stroke-width="1.0"/>
    </g>
    <g id="morphshape2" transform="matrix(1.0, 0.0, 0.0, 1.0, -37.6, -4.7)">
      <path d="M102.1 15.2 Q102.1 16.35 102.35 16.75 L103.15 17.3 Q105.2 16.65 106.95 16.05 107.65 15.55 106.6 12.5 104.2 12.7 103.15 13.35 102.1 13.95 102.1 15.2 M90.2 21.45 Q90.2 22.5 90.8 23.1 L93.85 23.3 Q94.3 22.3 94.05 20.2 L90.3 20.1 90.2 21.45 M88.6 11.6 Q88.6 12.65 89.0 13.55 L94.95 13.55 Q96.0 12.5 96.0 9.0 91.3 8.55 89.65 9.4 88.6 10.0 88.6 11.6 M80.35 22.05 Q80.4 23.0 81.15 24.85 81.8 25.3 83.35 25.45 L84.15 24.25 Q84.65 23.55 83.95 21.75 L80.35 22.05 M78.25 7.5 Q77.85 9.4 78.65 10.9 79.65 12.65 81.9 12.65 83.05 12.65 84.25 10.9 83.4 8.5 81.75 7.85 L78.25 7.5 M66.4 13.6 L66.45 15.05 66.8 15.6 72.25 16.35 75.55 16.75 Q77.3 16.75 76.2 14.3 76.2 11.25 71.3 11.1 66.4 11.0 66.4 13.6 M55.95 12.35 L55.95 12.5 56.0 13.1 56.05 13.25 Q56.15 13.65 56.4 13.75 56.8 13.9 57.8 14.05 L59.7 13.4 Q59.95 12.25 60.0 10.85 59.6 9.85 59.25 9.0 58.35 8.8 57.5 8.9 55.95 9.85 55.95 12.35 M48.65 21.0 L48.75 22.15 49.1 22.55 Q49.6 22.6 50.1 22.6 L52.4 22.65 Q54.35 22.55 56.15 22.55 56.35 21.25 55.65 18.3 54.75 16.65 53.9 15.8 52.6 14.7 51.1 15.2 48.65 16.35 48.65 20.9 M38.1 10.7 L39.2 12.8 Q40.9 14.95 43.9 14.95 47.8 14.95 47.8 11.75 47.8 8.75 42.95 7.95 38.1 7.1 38.1 10.7" fill="#bef0d8" fill-opacity="0.7058824" fill-rule="evenodd" stroke="none"/>
      <path d="M38.1 10.7 Q38.1 7.1 42.95 7.95 47.8 8.75 47.8 11.75 47.8 14.95 43.9 14.95 40.9 14.95 39.2 12.8 L38.1 10.7 M48.65 20.9 Q48.65 16.35 51.1 15.2 52.6 14.7 53.9 15.8 54.75 16.65 55.65 18.3 56.35 21.25 56.15 22.55 54.35 22.55 52.4 22.65 L50.1 22.6 Q49.6 22.6 49.1 22.55 L48.75 22.15 48.65 21.0 M55.95 12.35 Q55.95 9.85 57.5 8.9 58.35 8.8 59.25 9.0 59.6 9.85 60.0 10.85 59.95 12.25 59.7 13.4 L57.8 14.05 Q56.8 13.9 56.4 13.75 56.15 13.65 56.05 13.25 L56.0 13.1 55.95 12.5 55.95 12.35 M66.4 13.6 Q66.4 11.0 71.3 11.1 76.2 11.25 76.2 14.3 77.3 16.75 75.55 16.75 L72.25 16.35 66.8 15.6 66.45 15.05 66.4 13.6 M78.25 7.5 L81.75 7.85 Q83.4 8.5 84.25 10.9 83.05 12.65 81.9 12.65 79.65 12.65 78.65 10.9 77.85 9.4 78.25 7.5 M80.35 22.05 L83.95 21.75 Q84.65 23.55 84.15 24.25 L83.35 25.45 Q81.8 25.3 81.15 24.85 80.4 23.0 80.35 22.05 M88.6 11.6 Q88.6 10.0 89.65 9.4 91.3 8.55 96.0 9.0 96.0 12.5 94.95 13.55 L89.0 13.55 Q88.6 12.65 88.6 11.6 M90.2 21.45 L90.3 20.1 94.05 20.2 Q94.3 22.3 93.85 23.3 L90.8 23.1 Q90.2 22.5 90.2 21.45 M102.1 15.2 Q102.1 13.95 103.15 13.35 104.2 12.7 106.6 12.5 107.65 15.55 106.95 16.05 105.2 16.65 103.15 17.3 L102.35 16.75 Q102.1 16.35 102.1 15.2 Z" fill="none" stroke="#000000" stroke-linecap="round" stroke-linejoin="round" stroke-opacity="0.0" stroke-width="1.0"/>
    </g>
    <g id="morphshape3" transform="matrix(1.0, 0.0, 0.0, 1.0, -32.35, -6.65)">
      <path d="M90.85 10.55 Q90.85 11.7 91.0 12.1 L91.45 12.85 93.45 12.85 93.95 12.35 94.1 11.15 93.85 9.65 Q93.55 9.2 91.0 9.15 90.85 8.8 90.85 10.55 M69.25 13.65 Q69.15 14.1 70.0 14.65 70.65 14.75 71.35 14.8 72.6 14.65 73.95 13.95 74.25 13.35 73.95 12.7 72.0 12.95 69.55 13.05 L69.3 13.7 M66.2 29.55 L66.5 31.5 Q66.7 32.55 67.15 33.4 L70.65 33.4 Q70.9 33.15 71.15 32.95 L70.75 29.85 67.2 29.3 Q66.4 29.25 66.2 29.55 M40.8 13.3 L41.0 14.65 41.35 15.15 42.9 15.2 Q43.95 15.2 44.55 14.75 44.75 14.6 44.75 12.85 44.75 11.7 44.4 11.15 L43.7 10.5 40.9 11.6 40.8 13.3 M33.1 29.2 L33.35 30.2 Q33.7 31.0 34.15 31.3 38.25 30.75 38.25 28.35 38.25 27.25 37.9 26.95 L37.05 26.6 35.3 26.85 33.45 27.0 33.1 29.2" fill="#ffffff" fill-opacity="0.7058824" fill-rule="evenodd" stroke="none"/>
      <path d="M33.1 29.2 L33.45 27.0 35.3 26.85 37.05 26.6 37.9 26.95 Q38.25 27.25 38.25 28.35 38.25 30.75 34.15 31.3 33.7 31.0 33.35 30.2 L33.1 29.2 M40.8 13.3 L40.9 11.6 43.7 10.5 44.4 11.15 Q44.75 11.7 44.75 12.85 44.75 14.6 44.55 14.75 43.95 15.2 42.9 15.2 L41.35 15.15 41.0 14.65 40.8 13.3 M66.2 29.55 Q66.4 29.25 67.2 29.3 L70.75 29.85 71.15 32.95 Q70.9 33.15 70.65 33.4 L67.15 33.4 Q66.7 32.55 66.5 31.5 L66.2 29.55 M69.3 13.7 L69.55 13.05 Q72.0 12.95 73.95 12.7 74.25 13.35 73.95 13.95 72.6 14.65 71.35 14.8 70.65 14.75 70.0 14.65 69.15 14.1 69.25 13.65 M90.85 10.55 Q90.85 8.8 91.0 9.15 93.55 9.2 93.85 9.65 L94.1 11.15 93.95 12.35 93.45 12.85 91.45 12.85 91.0 12.1 Q90.85 11.7 90.85 10.55 Z" fill="none" stroke="#000000" stroke-linecap="round" stroke-linejoin="round" stroke-opacity="0.0" stroke-width="1.0"/>
    </g>
  </defs>
</svg>
