<?xml version="1.0" encoding="UTF-8" standalone="no"?>
<svg xmlns:xlink="http://www.w3.org/1999/xlink" height="47.45px" width="141.0px" xmlns="http://www.w3.org/2000/svg">
  <g transform="matrix(1.0, 0.0, 0.0, 1.0, -4.35, -2.9)">
    <use data-characterId="3188" height="47.45" transform="matrix(1.0, 0.0, 0.0, 1.0, 4.35, 2.9)" width="141.0" xlink:href="#morphshape0"/>
    <use data-characterId="3189" height="37.5" transform="matrix(1.0, 0.0, 0.0, 1.0, 17.5, 9.15)" width="116.05" xlink:href="#morphshape1"/>
    <use data-characterId="3190" height="21.8" transform="matrix(1.0, 0.0, 0.0, 1.0, 37.6, 4.7)" width="75.1" xlink:href="#morphshape2"/>
    <use data-characterId="3191" height="35.65" transform="matrix(1.0, 0.0, 0.0, 1.0, 32.35, 6.65)" width="66.65" xlink:href="#morphshape3"/>
  </g>
  <defs>
    <g id="morphshape0" transform="matrix(1.0, 0.0, 0.0, 1.0, -4.35, -2.9)">
      <path d="M4.65 19.25 Q5.2 20.7 8.45 21.5 11.75 22.05 15.25 22.5 22.85 23.4 21.75 25.75 20.05 26.4 19.6 27.75 19.9 28.5 18.85 29.45 17.8 30.2 17.55 31.2 17.65 33.0 19.5 33.65 20.9 34.15 22.95 34.35 26.85 34.6 29.15 35.6 L30.35 36.8 Q29.15 38.9 34.8 39.85 37.05 40.3 43.0 40.35 42.6 41.5 44.15 42.2 42.95 43.5 46.35 44.95 50.15 46.55 54.7 46.65 57.5 46.7 61.5 48.25 65.6 49.8 67.15 50.05 67.8 50.3 72.55 48.9 77.75 47.4 81.4 47.25 L89.7 46.3 Q93.75 45.9 97.0 45.4 104.1 45.5 107.2 42.7 108.3 41.5 109.25 39.85 114.9 39.1 115.15 37.9 121.05 35.4 117.4 34.0 117.45 33.7 116.5 33.55 125.35 32.05 125.7 31.25 127.4 30.25 125.05 29.3 123.65 28.65 121.7 28.05 120.75 27.75 125.7 26.75 130.6 25.75 133.5 23.6 136.4 21.45 134.55 20.1 132.55 18.65 126.45 18.5 124.45 18.35 122.85 18.4 L122.5 18.4 121.85 18.15 Q125.8 16.25 122.7 14.55 121.2 14.1 117.6 13.75 116.95 13.55 116.1 13.55 117.35 9.55 109.15 7.1 97.75 3.5 73.5 3.2 55.75 2.9 35.4 5.8 16.45 8.55 14.95 11.45 12.8 12.35 13.5 13.0 14.2 13.6 16.3 14.2 18.2 14.65 16.8 14.95 15.65 15.0 14.65 15.2 L5.8 16.15 4.85 16.25 Q4.05 17.7 4.75 19.2" fill="#96e0bc" fill-opacity="0.7058824" fill-rule="evenodd" stroke="none"/>
      <path d="M4.75 19.2 Q4.05 17.7 4.85 16.25 L5.8 16.15 14.65 15.2 Q15.65 15.0 16.8 14.95 18.2 14.65 16.3 14.2 14.2 13.6 13.5 13.0 12.8 12.35 14.95 11.45 16.45 8.55 35.4 5.8 55.75 2.9 73.5 3.2 97.75 3.5 109.15 7.1 117.35 9.55 116.1 13.55 116.95 13.55 117.6 13.75 121.2 14.1 122.7 14.55 125.8 16.25 121.85 18.15 L122.5 18.4 122.85 18.4 Q124.45 18.35 126.45 18.5 132.55 18.65 134.55 20.1 136.4 21.45 133.5 23.6 130.6 25.75 125.7 26.75 120.75 27.75 121.7 28.05 123.65 28.65 125.05 29.3 127.4 30.25 125.7 31.25 125.35 32.05 116.5 33.55 117.45 33.7 117.4 34.0 121.05 35.4 115.15 37.9 114.9 39.1 109.25 39.85 108.3 41.5 107.2 42.7 104.1 45.5 97.0 45.4 93.75 45.9 89.7 46.3 L81.4 47.25 Q77.75 47.4 72.55 48.9 67.8 50.3 67.15 50.05 65.6 49.8 61.5 48.25 57.5 46.7 54.7 46.65 50.15 46.55 46.35 44.95 42.95 43.5 44.15 42.2 42.6 41.5 43.0 40.35 37.05 40.3 34.8 39.85 29.15 38.9 30.35 36.8 L29.15 35.6 Q26.85 34.6 22.95 34.35 20.9 34.15 19.5 33.65 17.65 33.0 17.55 31.2 17.8 30.2 18.85 29.45 19.9 28.5 19.6 27.75 20.05 26.4 21.75 25.75 22.85 23.4 15.25 22.5 11.75 22.05 8.45 21.5 5.2 20.7 4.65 19.25" fill="none" stroke="#000000" stroke-linecap="round" stroke-linejoin="round" stroke-opacity="0.0" stroke-width="1.0"/>
    </g>
    <g id="morphshape1" transform="matrix(1.0, 0.0, 0.0, 1.0, -17.5, -9.15)">
      <path d="M116.0 23.45 Q116.0 24.2 116.45 24.9 117.2 25.95 120.05 25.7 L119.3 23.5 Q118.3 23.15 116.0 23.45 M99.8 29.05 Q99.8 29.4 100.9 30.2 L104.2 30.3 106.35 29.3 Q108.55 28.25 108.95 27.75 L107.45 26.55 103.25 26.15 Q99.8 26.35 99.8 29.05 M85.25 34.8 L85.5 35.45 Q86.0 35.9 87.1 36.3 L88.95 36.75 91.65 36.9 92.05 36.8 92.3 36.55 92.5 36.05 92.5 35.6 Q92.5 34.9 92.1 34.6 91.4 33.95 88.1 33.8 86.7 33.95 85.4 34.25 L85.3 34.8 M75.6 41.25 L75.6 41.25 76.1 42.1 Q77.5 42.35 78.9 42.6 L81.65 42.7 85.7 42.5 86.45 42.25 86.9 41.85 87.05 41.05 87.0 40.55 Q86.8 39.75 86.05 39.25 84.8 38.5 79.75 38.65 77.65 39.0 76.1 40.45 L75.55 41.25 M62.4 32.6 L62.95 33.5 69.3 33.9 Q73.35 33.9 76.2 31.65 76.2 29.75 70.15 29.6 63.9 29.5 62.4 32.6 M61.1 42.15 Q61.1 42.65 61.35 42.9 L64.4 42.9 Q64.85 42.65 65.1 41.05 L61.6 41.25 Q61.1 41.6 61.1 42.15 M49.0 36.75 L50.2 37.95 Q52.25 39.1 56.55 39.1 58.1 39.1 59.85 36.95 59.85 34.0 54.45 34.05 49.0 34.1 49.0 36.75 M26.95 28.5 Q26.95 29.1 29.55 30.7 32.8 32.65 36.45 32.55 L40.35 32.45 Q41.55 31.9 42.25 29.95 42.15 27.05 34.55 26.25 26.9 25.45 27.0 28.5 M18.0 18.4 Q18.0 18.85 18.45 19.55 L19.4 20.5 26.25 20.6 Q27.45 19.7 27.45 19.15 27.45 17.3 22.75 17.2 18.0 17.15 18.0 18.4" fill="#bef0d8" fill-opacity="0.7058824" fill-rule="evenodd" stroke="none"/>
      <path d="M18.0 18.4 Q18.0 17.15 22.75 17.2 27.45 17.3 27.45 19.15 27.45 19.7 26.25 20.6 L19.4 20.5 18.45 19.55 Q18.0 18.85 18.0 18.4 M27.0 28.5 Q26.9 25.45 34.55 26.25 42.15 27.05 42.25 29.95 41.55 31.9 40.35 32.45 L36.45 32.55 Q32.8 32.65 29.55 30.7 26.95 29.1 26.95 28.5 M49.0 36.75 Q49.0 34.1 54.45 34.05 59.85 34.0 59.85 36.95 58.1 39.1 56.55 39.1 52.25 39.1 50.2 37.95 L49.0 36.75 M61.1 42.15 Q61.1 41.6 61.6 41.25 L65.1 41.05 Q64.85 42.65 64.4 42.9 L61.35 42.9 Q61.1 42.65 61.1 42.15 M62.4 32.6 Q63.9 29.5 70.15 29.6 76.2 29.75 76.2 31.65 73.35 33.9 69.3 33.9 L62.95 33.5 62.4 32.6 M75.55 41.25 L76.1 40.45 Q77.65 39.0 79.75 38.65 84.8 38.5 86.05 39.25 86.8 39.75 87.0 40.55 L87.05 41.05 86.9 41.85 86.45 42.25 85.7 42.5 81.65 42.7 78.9 42.6 Q77.5 42.35 76.1 42.1 L75.6 41.25 75.6 41.25 M85.3 34.8 L85.4 34.25 Q86.7 33.95 88.1 33.8 91.4 33.95 92.1 34.6 92.5 34.9 92.5 35.6 L92.5 36.05 92.3 36.55 92.05 36.8 91.65 36.9 88.95 36.75 87.1 36.3 Q86.0 35.9 85.5 35.45 L85.25 34.8 M99.8 29.05 Q99.8 26.35 103.25 26.15 L107.45 26.55 108.95 27.75 Q108.55 28.25 106.35 29.3 L104.2 30.3 100.9 30.2 Q99.8 29.4 99.8 29.05 M116.0 23.45 Q118.3 23.15 119.3 23.5 L120.05 25.7 Q117.2 25.95 116.45 24.9 116.0 24.2 116.0 23.45 Z" fill="none" stroke="#000000" stroke-linecap="round" stroke-linejoin="round" stroke-opacity="0.0" stroke-width="1.0"/>
    </g>
    <g id="morphshape2" transform="matrix(1.0, 0.0, 0.0, 1.0, -37.6, -4.7)">
      <path d="M101.85 15.0 Q101.85 16.15 102.1 16.55 L102.9 17.1 Q104.9 16.45 106.7 15.85 107.4 15.35 106.35 12.3 103.95 12.5 102.9 13.15 101.85 13.75 101.85 15.0 M90.0 21.7 Q90.0 22.75 90.6 23.35 L93.65 23.55 Q94.1 22.55 93.85 20.45 L90.1 20.35 90.0 21.7 M88.4 11.75 Q88.4 12.8 88.8 13.7 L94.75 13.7 Q95.8 12.65 95.8 9.15 91.1 8.7 89.45 9.55 88.4 10.15 88.4 11.75 M80.1 22.35 Q80.15 23.3 80.9 25.15 81.55 25.6 83.1 25.75 L83.9 24.55 Q84.4 23.85 83.7 22.05 L80.1 22.35 M78.4 7.1 Q78.0 9.0 78.8 10.5 79.8 12.25 82.05 12.25 83.2 12.25 84.4 10.5 83.55 8.1 81.9 7.45 L78.4 7.1 M66.55 13.8 L66.6 15.25 66.95 15.8 72.4 16.55 75.7 16.95 Q77.45 16.95 76.35 14.5 76.35 11.45 71.45 11.3 66.55 11.2 66.55 13.8 M55.85 11.7 L55.9 12.45 55.95 12.6 Q56.05 13.0 56.3 13.1 56.65 13.3 57.65 13.5 L59.45 12.85 Q59.7 11.7 59.8 10.4 59.45 9.4 59.15 8.55 58.3 8.4 57.45 8.45 55.95 9.4 55.95 11.8 M48.6 21.65 L48.6 21.65 48.7 22.8 49.05 23.2 Q49.55 23.25 50.05 23.25 L52.4 23.3 Q54.35 23.25 56.2 23.25 56.4 21.95 55.65 18.9 54.7 17.25 53.8 16.4 52.45 15.25 50.95 15.8 48.45 16.95 48.45 21.6 M37.95 10.55 L39.05 12.65 Q40.75 14.8 43.75 14.8 47.65 14.8 47.65 11.6 47.65 8.6 42.8 7.8 37.95 6.95 37.95 10.55" fill="#bef0d8" fill-opacity="0.7058824" fill-rule="evenodd" stroke="none"/>
      <path d="M37.95 10.55 Q37.95 6.95 42.8 7.8 47.65 8.6 47.65 11.6 47.65 14.8 43.75 14.8 40.75 14.8 39.05 12.65 L37.95 10.55 M48.45 21.6 Q48.45 16.95 50.95 15.8 52.45 15.25 53.8 16.4 54.7 17.25 55.65 18.9 56.4 21.95 56.2 23.25 54.35 23.25 52.4 23.3 L50.05 23.25 Q49.55 23.25 49.05 23.2 L48.7 22.8 48.6 21.65 48.6 21.65 M55.95 11.8 Q55.95 9.4 57.45 8.45 58.3 8.4 59.15 8.55 59.45 9.4 59.8 10.4 59.7 11.7 59.45 12.85 L57.65 13.5 Q56.65 13.3 56.3 13.1 56.05 13.0 55.95 12.6 L55.9 12.45 55.85 11.7 M66.55 13.8 Q66.55 11.2 71.45 11.3 76.35 11.45 76.35 14.5 77.45 16.95 75.7 16.95 L72.4 16.55 66.95 15.8 66.6 15.25 66.55 13.8 M78.4 7.1 L81.9 7.45 Q83.55 8.1 84.4 10.5 83.2 12.25 82.05 12.25 79.8 12.25 78.8 10.5 78.0 9.0 78.4 7.1 M80.1 22.35 L83.7 22.05 Q84.4 23.85 83.9 24.55 L83.1 25.75 Q81.55 25.6 80.9 25.15 80.15 23.3 80.1 22.35 M88.4 11.75 Q88.4 10.15 89.45 9.55 91.1 8.7 95.8 9.15 95.8 12.65 94.75 13.7 L88.8 13.7 Q88.4 12.8 88.4 11.75 M90.0 21.7 L90.1 20.35 93.85 20.45 Q94.1 22.55 93.65 23.55 L90.6 23.35 Q90.0 22.75 90.0 21.7 M101.85 15.0 Q101.85 13.75 102.9 13.15 103.95 12.5 106.35 12.3 107.4 15.35 106.7 15.85 104.9 16.45 102.9 17.1 L102.1 16.55 Q101.85 16.15 101.85 15.0 Z" fill="none" stroke="#000000" stroke-linecap="round" stroke-linejoin="round" stroke-opacity="0.0" stroke-width="1.0"/>
    </g>
    <g id="morphshape3" transform="matrix(1.0, 0.0, 0.0, 1.0, -32.35, -6.65)">
      <path d="M94.55 8.8 Q94.55 9.95 94.7 10.35 L95.15 11.1 97.15 11.1 97.65 10.6 97.8 9.4 97.55 7.9 Q97.25 7.45 94.7 7.4 94.55 7.05 94.55 8.8 M69.5 13.35 Q69.25 13.7 69.8 14.6 70.35 15.0 70.95 15.35 L73.7 15.7 Q74.2 15.25 74.2 14.55 74.0 14.1 70.05 12.9 L69.5 13.35 M66.25 30.2 L66.55 32.15 Q66.75 33.2 67.2 34.05 L70.7 34.05 Q70.95 33.8 71.2 33.6 L70.8 30.5 67.25 29.95 Q66.45 29.9 66.25 30.2 M40.6 13.2 L40.8 14.55 41.15 15.05 42.7 15.1 Q43.75 15.1 44.35 14.65 44.55 14.5 44.55 12.75 44.55 11.6 44.2 11.05 L43.5 10.4 40.7 11.5 40.6 13.2 M32.9 29.2 L33.15 30.2 Q33.5 31.0 33.95 31.3 38.05 30.75 38.05 28.35 38.05 27.25 37.7 26.95 L36.85 26.6 35.1 26.85 33.25 27.0 32.9 29.2" fill="#ffffff" fill-opacity="0.7058824" fill-rule="evenodd" stroke="none"/>
      <path d="M32.9 29.2 L33.25 27.0 35.1 26.85 36.85 26.6 37.7 26.95 Q38.05 27.25 38.05 28.35 38.05 30.75 33.95 31.3 33.5 31.0 33.15 30.2 L32.9 29.2 M40.6 13.2 L40.7 11.5 43.5 10.4 44.2 11.05 Q44.55 11.6 44.55 12.75 44.55 14.5 44.35 14.65 43.75 15.1 42.7 15.1 L41.15 15.05 40.8 14.55 40.6 13.2 M66.25 30.2 Q66.45 29.9 67.25 29.95 L70.8 30.5 71.2 33.6 Q70.95 33.8 70.7 34.05 L67.2 34.05 Q66.75 33.2 66.55 32.15 L66.25 30.2 M69.5 13.35 L70.05 12.9 Q74.0 14.1 74.2 14.55 74.2 15.25 73.7 15.7 L70.95 15.35 Q70.35 15.0 69.8 14.6 69.25 13.7 69.5 13.35 M94.55 8.8 Q94.55 7.05 94.7 7.4 97.25 7.45 97.55 7.9 L97.8 9.4 97.65 10.6 97.15 11.1 95.15 11.1 94.7 10.35 Q94.55 9.95 94.55 8.8 Z" fill="none" stroke="#000000" stroke-linecap="round" stroke-linejoin="round" stroke-opacity="0.0" stroke-width="1.0"/>
    </g>
  </defs>
</svg>
