<?xml version="1.0" encoding="UTF-8" standalone="no"?>
<svg xmlns:xlink="http://www.w3.org/1999/xlink" height="47.45px" width="141.0px" xmlns="http://www.w3.org/2000/svg">
  <g transform="matrix(1.0, 0.0, 0.0, 1.0, -4.35, -2.9)">
    <use data-characterId="3192" height="47.45" transform="matrix(1.0, 0.0, 0.0, 1.0, 4.35, 2.9)" width="141.0" xlink:href="#morphshape0"/>
    <use data-characterId="3193" height="37.5" transform="matrix(1.0, 0.0, 0.0, 1.0, 17.5, 9.15)" width="116.05" xlink:href="#morphshape1"/>
    <use data-characterId="3194" height="21.8" transform="matrix(1.0, 0.0, 0.0, 1.0, 37.6, 4.7)" width="75.1" xlink:href="#morphshape2"/>
    <use data-characterId="3195" height="35.65" transform="matrix(1.0, 0.0, 0.0, 1.0, 32.35, 6.65)" width="66.65" xlink:href="#morphshape3"/>
  </g>
  <defs>
    <g id="morphshape0" transform="matrix(1.0, 0.0, 0.0, 1.0, -4.35, -2.9)">
      <path d="M4.7 18.35 Q4.7 19.85 10.45 20.9 16.25 21.85 22.95 22.35 32.2 23.15 24.45 24.9 16.3 25.6 21.05 27.15 26.25 28.3 22.4 29.15 18.5 29.8 16.1 31.1 13.95 32.9 17.05 33.45 19.85 33.9 21.7 34.2 24.7 34.55 26.95 35.25 L32.9 36.2 Q29.45 38.05 32.9 38.9 28.55 40.55 40.2 40.35 41.55 41.1 48.15 40.7 42.9 42.85 45.1 44.15 47.5 45.5 53.45 45.75 58.95 45.9 65.2 47.05 72.1 48.15 69.5 49.25 66.3 50.35 70.1 49.45 75.1 48.55 79.1 48.45 L90.7 47.75 Q97.0 47.35 100.1 46.6 105.65 46.2 106.75 44.15 106.6 43.05 108.55 40.9 112.65 39.95 108.9 38.25 121.65 36.65 120.7 35.0 122.1 34.1 118.95 33.85 123.15 32.8 122.05 32.2 126.9 30.95 125.7 30.05 125.1 29.3 122.2 28.6 119.9 28.05 120.35 27.35 120.8 26.65 128.55 24.9 136.35 23.15 137.55 21.55 138.7 19.9 131.45 19.15 126.75 18.4 123.6 18.45 L122.5 18.5 122.05 18.35 Q124.4 17.1 122.3 15.95 126.9 15.1 122.35 14.35 119.65 13.7 116.05 13.6 116.85 11.05 111.65 9.5 101.35 5.6 84.05 4.25 70.8 2.9 48.2 4.75 29.2 6.5 19.25 9.7 8.85 11.65 10.65 12.5 12.45 13.3 20.2 14.05 27.85 14.7 24.2 14.95 20.7 15.0 17.3 15.15 L8.8 15.85 4.9 16.3 Q4.35 17.2 4.8 18.15" fill="#96e0bc" fill-opacity="0.7058824" fill-rule="evenodd" stroke="none"/>
      <path d="M4.8 18.15 Q4.35 17.2 4.9 16.3 L8.8 15.85 17.3 15.15 Q20.7 15.0 24.2 14.95 27.85 14.7 20.2 14.05 12.45 13.3 10.65 12.5 8.85 11.65 19.25 9.7 29.2 6.5 48.2 4.75 70.8 2.9 84.05 4.25 101.35 5.6 111.65 9.5 116.85 11.05 116.05 13.6 119.65 13.7 122.35 14.35 126.9 15.1 122.3 15.95 124.4 17.1 122.05 18.35 L122.5 18.5 123.6 18.45 Q126.75 18.4 131.45 19.15 138.7 19.9 137.55 21.55 136.35 23.15 128.55 24.9 120.8 26.65 120.35 27.35 119.9 28.05 122.2 28.6 125.1 29.3 125.7 30.05 126.9 30.95 122.05 32.2 123.15 32.8 118.95 33.85 122.1 34.1 120.7 35.0 121.65 36.65 108.9 38.25 112.65 39.95 108.55 40.9 106.6 43.05 106.75 44.15 105.65 46.2 100.1 46.6 97.0 47.35 90.7 47.75 L79.1 48.45 Q75.1 48.55 70.1 49.45 66.3 50.35 69.5 49.25 72.1 48.15 65.2 47.05 58.95 45.9 53.45 45.75 47.5 45.5 45.1 44.15 42.9 42.85 48.15 40.7 41.55 41.1 40.2 40.35 28.55 40.55 32.9 38.9 29.45 38.05 32.9 36.2 L26.95 35.25 Q24.7 34.55 21.7 34.2 19.85 33.9 17.05 33.45 13.95 32.9 16.1 31.1 18.5 29.8 22.4 29.15 26.25 28.3 21.05 27.15 16.3 25.6 24.45 24.9 32.2 23.15 22.95 22.35 16.25 21.85 10.45 20.9 4.7 19.85 4.7 18.35" fill="none" stroke="#000000" stroke-linecap="round" stroke-linejoin="round" stroke-opacity="0.0" stroke-width="1.0"/>
    </g>
    <g id="morphshape1" transform="matrix(1.0, 0.0, 0.0, 1.0, -17.5, -9.15)">
      <path d="M121.0 22.8 Q121.0 23.55 121.45 24.25 122.2 25.3 125.05 25.05 L124.3 22.85 Q123.3 22.5 121.0 22.8 M101.0 30.9 Q101.0 31.25 102.1 32.05 L105.4 32.15 107.55 31.15 Q109.75 30.1 110.15 29.6 L108.65 28.4 104.45 28.0 Q101.0 28.2 101.0 30.9 M87.1 38.65 L87.1 38.7 87.45 39.35 Q88.35 39.7 89.55 40.05 L91.8 40.35 95.05 40.35 95.6 40.2 95.95 39.9 96.15 39.3 96.15 38.85 Q96.05 38.1 95.5 37.7 94.55 37.0 90.5 36.95 88.8 37.2 87.4 38.0 L87.1 38.65 M77.05 37.55 L77.45 38.3 Q78.45 38.65 79.75 38.95 L82.1 39.2 85.6 39.15 86.2 38.95 86.55 38.6 86.7 37.9 86.65 37.4 Q86.55 36.65 85.95 36.25 84.95 35.55 80.65 35.6 78.85 35.85 77.4 36.8 L77.05 37.5 M62.0 35.8 L62.55 36.7 68.9 37.1 Q72.95 37.1 75.8 34.85 75.8 32.95 69.75 32.8 63.5 32.7 62.0 35.8 M58.6 41.6 Q58.65 42.05 58.85 42.35 L61.9 42.35 Q62.35 42.1 62.6 40.5 L59.1 40.7 Q58.6 41.05 58.6 41.6 M49.0 35.65 L50.2 36.85 Q52.25 38.0 56.55 38.0 58.1 38.0 59.85 35.85 59.85 32.9 54.45 32.95 49.0 33.0 49.0 35.65 M28.8 29.1 Q28.9 29.7 31.6 31.05 34.95 32.35 38.6 32.35 L42.45 31.9 Q43.55 31.25 44.1 29.25 43.75 26.4 36.15 26.3 28.5 26.15 28.85 29.15 M19.75 15.4 Q19.75 15.85 20.2 16.55 L21.15 17.5 28.0 17.6 Q29.2 16.7 29.2 16.15 29.2 14.3 24.5 14.2 19.75 14.15 19.75 15.4" fill="#bef0d8" fill-opacity="0.7058824" fill-rule="evenodd" stroke="none"/>
      <path d="M19.75 15.4 Q19.75 14.15 24.5 14.2 29.2 14.3 29.2 16.15 29.2 16.7 28.0 17.6 L21.15 17.5 20.2 16.55 Q19.75 15.85 19.75 15.4 M28.85 29.15 Q28.5 26.15 36.15 26.3 43.75 26.4 44.1 29.25 43.55 31.25 42.45 31.9 L38.6 32.35 Q34.95 32.35 31.6 31.05 28.9 29.7 28.8 29.1 M49.0 35.65 Q49.0 33.0 54.45 32.95 59.85 32.9 59.85 35.85 58.1 38.0 56.55 38.0 52.25 38.0 50.2 36.85 L49.0 35.65 M58.6 41.6 Q58.6 41.05 59.1 40.7 L62.6 40.5 Q62.35 42.1 61.9 42.35 L58.85 42.35 Q58.65 42.05 58.6 41.6 M62.0 35.8 Q63.5 32.7 69.75 32.8 75.8 32.95 75.8 34.85 72.95 37.1 68.9 37.1 L62.55 36.7 62.0 35.8 M77.05 37.5 L77.4 36.8 Q78.85 35.85 80.65 35.6 84.95 35.55 85.95 36.25 86.55 36.65 86.65 37.4 L86.7 37.9 86.55 38.6 86.2 38.95 85.6 39.15 82.1 39.2 79.75 38.95 Q78.45 38.65 77.45 38.3 L77.05 37.55 M87.1 38.65 L87.4 38.0 Q88.8 37.2 90.5 36.95 94.55 37.0 95.5 37.7 96.05 38.1 96.15 38.85 L96.15 39.3 95.95 39.9 95.6 40.2 95.05 40.35 91.8 40.35 89.55 40.05 Q88.35 39.7 87.45 39.35 L87.1 38.7 87.1 38.65 M101.0 30.9 Q101.0 28.2 104.45 28.0 L108.65 28.4 110.15 29.6 Q109.75 30.1 107.55 31.15 L105.4 32.15 102.1 32.05 Q101.0 31.25 101.0 30.9 M121.0 22.8 Q123.3 22.5 124.3 22.85 L125.05 25.05 Q122.2 25.3 121.45 24.25 121.0 23.55 121.0 22.8 Z" fill="none" stroke="#000000" stroke-linecap="round" stroke-linejoin="round" stroke-opacity="0.0" stroke-width="1.0"/>
    </g>
    <g id="morphshape2" transform="matrix(1.0, 0.0, 0.0, 1.0, -37.6, -4.7)">
      <path d="M103.95 16.55 Q103.95 17.7 104.2 18.1 L105.0 18.65 Q107.4 17.95 108.8 17.4 109.5 16.9 108.45 13.85 106.05 14.05 105.0 14.7 103.95 15.3 103.95 16.55 M91.55 19.8 Q91.55 20.85 92.15 21.45 L95.2 21.65 Q95.65 20.65 95.4 18.55 L91.65 18.45 91.55 19.8 M90.15 10.7 Q90.15 11.75 90.55 12.65 L96.5 12.65 Q97.55 11.6 97.55 8.1 92.85 7.65 91.2 8.5 90.15 9.1 90.15 10.7 M81.85 20.0 Q81.9 20.95 82.65 22.8 83.3 23.25 84.85 23.4 L85.65 22.2 Q86.15 21.5 85.45 19.7 L81.85 20.0 M77.3 10.05 Q76.9 11.95 77.7 13.45 78.7 15.2 80.95 15.2 82.1 15.2 83.3 13.45 82.45 11.05 80.8 10.4 L77.3 10.05 M65.55 12.05 L65.6 13.5 65.95 14.05 71.4 14.8 74.7 15.2 Q76.45 15.2 75.35 12.75 75.35 9.7 70.45 9.55 65.55 9.45 65.55 12.05 M56.0 15.95 L56.0 16.05 56.05 16.9 56.2 17.15 Q56.45 17.4 56.8 17.45 57.5 17.55 58.6 17.65 L61.25 17.25 Q61.5 16.05 61.25 14.0 60.65 12.75 60.1 11.9 59.05 11.35 57.95 11.6 56.05 12.65 56.05 16.0 M50.05 16.55 L50.15 17.55 50.4 17.85 Q50.75 18.05 51.15 18.1 L53.1 18.25 Q54.8 17.95 56.05 17.9 56.25 16.65 55.85 14.35 55.15 12.95 54.5 12.1 53.35 11.35 52.1 11.7 50.0 12.75 50.0 16.45 M39.1 11.85 L40.2 13.95 Q41.9 16.1 44.9 16.1 48.8 16.1 48.8 12.9 48.8 9.9 43.95 9.1 39.1 8.25 39.1 11.85" fill="#bef0d8" fill-opacity="0.7058824" fill-rule="evenodd" stroke="none"/>
      <path d="M39.1 11.85 Q39.1 8.25 43.95 9.1 48.8 9.9 48.8 12.9 48.8 16.1 44.9 16.1 41.9 16.1 40.2 13.95 L39.1 11.85 M50.0 16.45 Q50.0 12.75 52.1 11.7 53.35 11.35 54.5 12.1 55.15 12.95 55.85 14.35 56.25 16.65 56.05 17.9 54.8 17.95 53.1 18.25 L51.15 18.1 Q50.75 18.05 50.4 17.85 L50.15 17.55 50.05 16.55 M56.05 16.0 Q56.05 12.65 57.95 11.6 59.05 11.35 60.1 11.9 60.65 12.75 61.25 14.0 61.5 16.05 61.25 17.25 L58.6 17.65 Q57.5 17.55 56.8 17.45 56.45 17.4 56.2 17.15 L56.05 16.9 56.0 16.05 56.0 15.95 M65.55 12.05 Q65.55 9.45 70.45 9.55 75.35 9.7 75.35 12.75 76.45 15.2 74.7 15.2 L71.4 14.8 65.95 14.05 65.6 13.5 65.55 12.05 M77.3 10.05 L80.8 10.4 Q82.45 11.05 83.3 13.45 82.1 15.2 80.95 15.2 78.7 15.2 77.7 13.45 76.9 11.95 77.3 10.05 M81.85 20.0 L85.45 19.7 Q86.15 21.5 85.65 22.2 L84.85 23.4 Q83.3 23.25 82.65 22.8 81.9 20.95 81.85 20.0 M90.15 10.7 Q90.15 9.1 91.2 8.5 92.85 7.65 97.55 8.1 97.55 11.6 96.5 12.65 L90.55 12.65 Q90.15 11.75 90.15 10.7 M91.55 19.8 L91.65 18.45 95.4 18.55 Q95.65 20.65 95.2 21.65 L92.15 21.45 Q91.55 20.85 91.55 19.8 M103.95 16.55 Q103.95 15.3 105.0 14.7 106.05 14.05 108.45 13.85 109.5 16.9 108.8 17.4 107.4 17.95 105.0 18.65 L104.2 18.1 Q103.95 17.7 103.95 16.55 Z" fill="none" stroke="#000000" stroke-linecap="round" stroke-linejoin="round" stroke-opacity="0.0" stroke-width="1.0"/>
    </g>
    <g id="morphshape3" transform="matrix(1.0, 0.0, 0.0, 1.0, -32.35, -6.65)">
      <path d="M92.5 9.7 Q92.5 10.85 92.65 11.25 L93.1 12.0 95.1 12.0 95.6 11.5 95.75 10.3 95.5 8.8 Q95.2 8.35 92.65 8.3 92.5 7.95 92.5 9.7 M69.0 12.1 Q68.85 12.5 69.6 13.15 70.1 13.35 70.85 13.5 72.15 13.45 73.5 13.05 73.85 12.5 73.65 11.85 72.3 11.85 69.35 11.5 L69.0 12.1 M66.05 32.55 L66.35 34.5 Q66.55 35.55 67.0 36.4 L70.5 36.4 Q70.75 36.15 71.0 35.95 L70.6 32.85 67.05 32.3 Q66.25 32.25 66.05 32.55 M42.1 14.0 L42.3 15.35 42.65 15.85 44.2 15.9 Q45.25 15.9 45.85 15.45 46.05 15.3 46.05 13.55 46.05 12.4 45.7 11.85 L45.0 11.2 42.2 12.3 42.1 14.0 M34.6 29.2 L34.85 30.2 Q35.2 31.0 35.65 31.3 39.75 30.75 39.75 28.35 39.75 27.25 39.4 26.95 L38.55 26.6 36.8 26.85 34.95 27.0 34.6 29.2" fill="#ffffff" fill-opacity="0.7058824" fill-rule="evenodd" stroke="none"/>
      <path d="M34.6 29.2 L34.95 27.0 36.8 26.85 38.55 26.6 39.4 26.95 Q39.75 27.25 39.75 28.35 39.75 30.75 35.65 31.3 35.2 31.0 34.85 30.2 L34.6 29.2 M42.1 14.0 L42.2 12.3 45.0 11.2 45.7 11.85 Q46.05 12.4 46.05 13.55 46.05 15.3 45.85 15.45 45.25 15.9 44.2 15.9 L42.65 15.85 42.3 15.35 42.1 14.0 M66.05 32.55 Q66.25 32.25 67.05 32.3 L70.6 32.85 71.0 35.95 Q70.75 36.15 70.5 36.4 L67.0 36.4 Q66.55 35.55 66.35 34.5 L66.05 32.55 M69.0 12.1 L69.35 11.5 Q72.3 11.85 73.65 11.85 73.85 12.5 73.5 13.05 72.15 13.45 70.85 13.5 70.1 13.35 69.6 13.15 68.85 12.5 69.0 12.1 M92.5 9.7 Q92.5 7.95 92.65 8.3 95.2 8.35 95.5 8.8 L95.75 10.3 95.6 11.5 95.1 12.0 93.1 12.0 92.65 11.25 Q92.5 10.85 92.5 9.7 Z" fill="none" stroke="#000000" stroke-linecap="round" stroke-linejoin="round" stroke-opacity="0.0" stroke-width="1.0"/>
    </g>
  </defs>
</svg>
