<?xml version="1.0" encoding="UTF-8" standalone="no"?>
<svg xmlns:xlink="http://www.w3.org/1999/xlink" height="47.45px" width="141.0px" xmlns="http://www.w3.org/2000/svg">
  <g transform="matrix(1.0, 0.0, 0.0, 1.0, -4.35, -2.9)">
    <use data-characterId="3188" height="47.45" transform="matrix(1.0, 0.0, 0.0, 1.0, 4.35, 2.9)" width="141.0" xlink:href="#morphshape0"/>
    <use data-characterId="3189" height="37.5" transform="matrix(1.0, 0.0, 0.0, 1.0, 17.5, 9.15)" width="116.05" xlink:href="#morphshape1"/>
    <use data-characterId="3190" height="21.8" transform="matrix(1.0, 0.0, 0.0, 1.0, 37.6, 4.7)" width="75.1" xlink:href="#morphshape2"/>
    <use data-characterId="3191" height="35.65" transform="matrix(1.0, 0.0, 0.0, 1.0, 32.35, 6.65)" width="66.65" xlink:href="#morphshape3"/>
  </g>
  <defs>
    <g id="morphshape0" transform="matrix(1.0, 0.0, 0.0, 1.0, -4.35, -2.9)">
      <path d="M4.55 18.2 Q4.6 19.7 10.25 20.75 15.95 21.65 22.5 22.15 31.7 22.95 24.2 24.75 16.3 25.45 20.85 27.0 25.85 28.15 22.1 29.0 18.35 29.65 16.05 30.95 13.95 32.75 17.0 33.3 19.75 33.75 21.6 34.05 24.65 34.4 26.9 35.1 L32.65 36.1 Q29.25 37.95 32.8 38.8 28.75 40.4 40.2 40.25 41.45 41.0 47.85 40.65 42.8 42.75 45.05 44.05 47.55 45.45 53.45 45.7 58.85 45.85 65.0 47.0 71.8 48.1 69.35 49.15 66.3 50.2 70.15 49.3 75.15 48.35 79.15 48.25 L90.65 47.5 Q96.85 47.1 99.95 46.35 105.55 45.95 106.7 43.85 106.6 42.75 108.55 40.6 112.7 39.65 109.1 38.0 121.55 36.35 120.5 34.75 121.85 33.85 118.8 33.6 123.2 32.55 122.15 31.95 126.9 30.75 125.65 29.85 125.0 29.1 122.15 28.4 119.9 27.9 120.55 27.2 121.15 26.5 128.7 24.75 136.3 23.0 137.4 21.45 138.4 19.8 131.2 19.05 126.6 18.3 123.5 18.35 L122.45 18.4 122.0 18.25 Q124.45 16.95 122.35 15.8 126.7 14.95 122.2 14.25 119.6 13.65 116.15 13.55 116.95 10.95 111.65 9.4 101.3 5.5 83.7 4.2 70.3 2.9 47.8 4.8 28.8 6.55 19.2 9.75 9.15 11.65 10.9 12.5 12.65 13.3 20.15 14.05 27.55 14.7 24.0 14.95 20.55 15.0 17.25 15.15 L8.7 15.85 4.9 16.3 Q4.35 17.25 4.8 18.2" fill="#96e0bc" fill-opacity="0.7058824" fill-rule="evenodd" stroke="none"/>
      <path d="M4.8 18.2 Q4.35 17.25 4.9 16.3 L8.7 15.85 17.25 15.15 Q20.55 15.0 24.0 14.95 27.55 14.7 20.15 14.05 12.65 13.3 10.9 12.5 9.15 11.65 19.2 9.75 28.8 6.55 47.8 4.8 70.3 2.9 83.7 4.2 101.3 5.5 111.65 9.4 116.95 10.95 116.15 13.55 119.6 13.65 122.2 14.25 126.7 14.95 122.35 15.8 124.45 16.95 122.0 18.25 L122.45 18.4 123.5 18.35 Q126.6 18.3 131.2 19.05 138.4 19.8 137.4 21.45 136.3 23.0 128.7 24.75 121.15 26.5 120.55 27.2 119.9 27.9 122.15 28.4 125.0 29.1 125.65 29.85 126.9 30.75 122.15 31.95 123.2 32.55 118.8 33.6 121.85 33.85 120.5 34.75 121.55 36.35 109.1 38.0 112.7 39.65 108.55 40.6 106.6 42.75 106.7 43.85 105.55 45.95 99.95 46.35 96.85 47.1 90.65 47.5 L79.15 48.25 Q75.15 48.35 70.15 49.3 66.3 50.2 69.35 49.15 71.8 48.1 65.0 47.0 58.85 45.85 53.45 45.7 47.55 45.45 45.05 44.05 42.8 42.75 47.85 40.65 41.45 41.0 40.2 40.25 28.75 40.4 32.8 38.8 29.25 37.95 32.65 36.1 L26.9 35.1 Q24.65 34.4 21.6 34.05 19.75 33.75 17.0 33.3 13.95 32.75 16.05 30.95 18.35 29.65 22.1 29.0 25.85 28.15 20.85 27.0 16.3 25.45 24.2 24.75 31.7 22.95 22.5 22.15 15.95 21.65 10.25 20.75 4.6 19.7 4.55 18.2" fill="none" stroke="#000000" stroke-linecap="round" stroke-linejoin="round" stroke-opacity="0.0" stroke-width="1.0"/>
    </g>
    <g id="morphshape1" transform="matrix(1.0, 0.0, 0.0, 1.0, -17.5, -9.15)">
      <path d="M120.8 22.8 Q120.8 23.55 121.25 24.25 122.0 25.3 124.85 25.05 L124.1 22.85 Q123.1 22.5 120.8 22.8 M100.95 30.85 Q100.95 31.2 102.05 32.0 L105.35 32.1 107.5 31.1 Q109.7 30.05 110.1 29.55 L108.6 28.35 104.4 27.95 Q100.95 28.15 100.95 30.85 M87.0 38.5 L87.35 39.25 Q88.2 39.6 89.4 39.95 L91.6 40.25 94.85 40.25 95.4 40.1 95.75 39.8 95.95 39.2 95.95 38.75 Q95.85 38.0 95.3 37.6 94.4 36.9 90.4 36.85 88.7 37.1 87.3 37.85 L87.0 38.5 M76.95 37.6 L76.95 37.65 77.35 38.4 Q78.4 38.75 79.7 39.05 L82.1 39.3 85.6 39.25 86.2 39.05 86.55 38.7 86.7 38.0 86.65 37.5 Q86.55 36.75 85.95 36.35 84.9 35.65 80.55 35.7 78.75 35.95 77.3 36.95 L76.95 37.65 M62.0 35.65 L62.55 36.55 68.9 36.95 Q72.95 36.95 75.8 34.7 75.8 32.8 69.75 32.65 63.5 32.55 62.0 35.65 M58.7 41.65 Q58.75 42.1 58.95 42.4 L62.0 42.4 Q62.45 42.15 62.7 40.55 L59.2 40.75 Q58.7 41.1 58.7 41.65 M49.0 35.7 L50.2 36.9 Q52.25 38.05 56.55 38.05 58.1 38.05 59.85 35.9 59.85 32.95 54.45 33.0 49.0 33.05 49.0 35.7 M28.75 29.1 Q28.85 29.7 31.55 31.05 34.9 32.35 38.55 32.35 L42.4 31.95 Q43.5 31.3 44.05 29.3 43.75 26.45 36.15 26.3 28.5 26.15 28.8 29.15 M19.65 15.55 Q19.65 16.0 20.1 16.7 L21.05 17.65 27.9 17.75 Q29.1 16.85 29.1 16.3 29.1 14.45 24.4 14.35 19.65 14.3 19.65 15.55" fill="#bef0d8" fill-opacity="0.7058824" fill-rule="evenodd" stroke="none"/>
      <path d="M19.65 15.55 Q19.65 14.3 24.4 14.35 29.1 14.45 29.1 16.3 29.1 16.85 27.9 17.75 L21.05 17.65 20.1 16.7 Q19.65 16.0 19.65 15.55 M28.8 29.15 Q28.5 26.15 36.15 26.3 43.75 26.45 44.05 29.3 43.5 31.3 42.4 31.95 L38.55 32.35 Q34.9 32.35 31.55 31.05 28.85 29.7 28.75 29.1 M49.0 35.7 Q49.0 33.05 54.45 33.0 59.85 32.95 59.85 35.9 58.1 38.05 56.55 38.05 52.25 38.05 50.2 36.9 L49.0 35.7 M58.7 41.65 Q58.7 41.1 59.2 40.75 L62.7 40.55 Q62.45 42.15 62.0 42.4 L58.95 42.4 Q58.75 42.1 58.7 41.65 M62.0 35.65 Q63.5 32.55 69.75 32.65 75.8 32.8 75.8 34.7 72.95 36.95 68.9 36.95 L62.55 36.55 62.0 35.65 M76.95 37.65 L77.3 36.95 Q78.75 35.95 80.55 35.7 84.9 35.65 85.95 36.35 86.55 36.75 86.65 37.5 L86.7 38.0 86.55 38.7 86.2 39.05 85.6 39.25 82.1 39.3 79.7 39.05 Q78.4 38.75 77.35 38.4 L76.95 37.65 76.95 37.6 M87.0 38.5 L87.3 37.85 Q88.7 37.1 90.4 36.85 94.4 36.9 95.3 37.6 95.85 38.0 95.95 38.75 L95.95 39.2 95.75 39.8 95.4 40.1 94.85 40.25 91.6 40.25 89.4 39.95 Q88.2 39.6 87.35 39.25 L87.0 38.5 M100.95 30.85 Q100.95 28.15 104.4 27.95 L108.6 28.35 110.1 29.55 Q109.7 30.05 107.5 31.1 L105.35 32.1 102.05 32.0 Q100.95 31.2 100.95 30.85 M120.8 22.8 Q123.1 22.5 124.1 22.85 L124.85 25.05 Q122.0 25.3 121.25 24.25 120.8 23.55 120.8 22.8 Z" fill="none" stroke="#000000" stroke-linecap="round" stroke-linejoin="round" stroke-opacity="0.0" stroke-width="1.0"/>
    </g>
    <g id="morphshape2" transform="matrix(1.0, 0.0, 0.0, 1.0, -37.6, -4.7)">
      <path d="M103.85 16.5 Q103.85 17.65 104.1 18.05 L104.9 18.6 Q107.3 17.9 108.7 17.35 109.4 16.85 108.35 13.8 105.95 14.0 104.9 14.65 103.85 15.25 103.85 16.5 M91.5 19.85 Q91.5 20.9 92.1 21.5 L95.15 21.7 Q95.6 20.7 95.35 18.6 L91.6 18.5 91.5 19.85 M90.05 10.75 Q90.05 11.8 90.45 12.7 L96.4 12.7 Q97.45 11.65 97.45 8.15 92.75 7.7 91.1 8.55 90.05 9.15 90.05 10.75 M81.75 20.1 Q81.8 21.05 82.55 22.9 83.2 23.35 84.75 23.5 L85.55 22.3 Q86.05 21.6 85.35 19.8 L81.75 20.1 M77.35 9.95 Q76.95 11.85 77.75 13.35 78.75 15.1 81.0 15.1 82.15 15.1 83.35 13.35 82.5 10.95 80.85 10.3 L77.35 9.95 M65.6 12.15 L65.65 13.6 66.0 14.15 71.45 14.9 74.75 15.3 Q76.5 15.3 75.4 12.85 75.4 9.8 70.5 9.65 65.6 9.55 65.6 12.15 M56.1 15.85 L56.15 16.8 56.3 17.05 Q56.55 17.3 56.9 17.35 57.55 17.45 58.65 17.55 L61.25 17.1 Q61.5 15.9 61.25 13.9 60.65 12.65 60.1 11.8 59.05 11.25 57.95 11.5 56.05 12.55 56.05 15.85 M49.9 16.65 L49.9 16.75 50.0 17.7 50.25 18.0 Q50.6 18.2 51.0 18.25 L52.95 18.4 Q54.7 18.15 56.0 18.1 56.2 16.85 55.8 14.5 55.1 13.1 54.45 12.25 53.3 11.5 52.05 11.85 49.95 12.9 49.95 16.65 M39.05 11.8 L40.15 13.9 Q41.85 16.05 44.85 16.05 48.75 16.05 48.75 12.85 48.75 9.85 43.9 9.05 39.05 8.2 39.05 11.8" fill="#bef0d8" fill-opacity="0.7058824" fill-rule="evenodd" stroke="none"/>
      <path d="M39.05 11.8 Q39.05 8.2 43.9 9.05 48.75 9.85 48.75 12.85 48.75 16.05 44.85 16.05 41.85 16.05 40.15 13.9 L39.05 11.8 M49.95 16.65 Q49.95 12.9 52.05 11.85 53.3 11.5 54.45 12.25 55.1 13.1 55.8 14.5 56.2 16.85 56.0 18.1 54.7 18.15 52.95 18.4 L51.0 18.25 Q50.6 18.2 50.25 18.0 L50.0 17.7 49.9 16.75 49.9 16.65 M56.05 15.85 Q56.05 12.55 57.95 11.5 59.05 11.25 60.1 11.8 60.65 12.65 61.25 13.9 61.5 15.9 61.25 17.1 L58.65 17.55 Q57.55 17.45 56.9 17.35 56.55 17.3 56.3 17.05 L56.15 16.8 56.1 15.85 M65.6 12.15 Q65.6 9.55 70.5 9.65 75.4 9.8 75.4 12.85 76.5 15.3 74.75 15.3 L71.45 14.9 66.0 14.15 65.65 13.6 65.6 12.15 M77.35 9.95 L80.85 10.3 Q82.5 10.95 83.35 13.35 82.15 15.1 81.0 15.1 78.75 15.1 77.75 13.35 76.95 11.85 77.35 9.95 M81.75 20.1 L85.35 19.8 Q86.05 21.6 85.55 22.3 L84.75 23.5 Q83.2 23.35 82.55 22.9 81.8 21.05 81.75 20.1 M90.05 10.75 Q90.05 9.15 91.1 8.55 92.75 7.7 97.45 8.15 97.45 11.65 96.4 12.7 L90.45 12.7 Q90.05 11.8 90.05 10.75 M91.5 19.85 L91.6 18.5 95.35 18.6 Q95.6 20.7 95.15 21.7 L92.1 21.5 Q91.5 20.9 91.5 19.85 M103.85 16.5 Q103.85 15.25 104.9 14.65 105.95 14.0 108.35 13.8 109.4 16.85 108.7 17.35 107.3 17.9 104.9 18.6 L104.1 18.05 Q103.85 17.65 103.85 16.5 Z" fill="none" stroke="#000000" stroke-linecap="round" stroke-linejoin="round" stroke-opacity="0.0" stroke-width="1.0"/>
    </g>
    <g id="morphshape3" transform="matrix(1.0, 0.0, 0.0, 1.0, -32.35, -6.65)">
      <path d="M94.95 8.55 Q94.95 9.7 95.1 10.1 L95.55 10.85 97.55 10.85 98.05 10.35 98.2 9.15 97.95 7.65 Q97.65 7.2 95.1 7.15 94.95 6.8 94.95 8.55 M69.1 11.8 Q68.85 12.15 69.4 13.05 69.85 13.45 70.55 13.8 L73.3 14.15 Q73.8 13.7 73.8 13.0 73.6 12.55 69.65 11.35 L69.1 11.8 M66.05 33.1 L66.35 35.05 Q66.55 36.1 67.0 36.95 L70.5 36.95 Q70.75 36.7 71.0 36.5 L70.6 33.4 67.05 32.85 Q66.25 32.8 66.05 33.1 M42.05 13.95 L42.25 15.3 42.6 15.8 44.15 15.85 Q45.2 15.85 45.8 15.4 46.0 15.25 46.0 13.5 46.0 12.35 45.65 11.8 L44.95 11.15 42.15 12.25 42.05 13.95 M34.55 29.2 L34.8 30.2 Q35.15 31.0 35.6 31.3 39.7 30.75 39.7 28.35 39.7 27.25 39.35 26.95 L38.5 26.6 36.75 26.85 34.9 27.0 34.55 29.2" fill="#ffffff" fill-opacity="0.7058824" fill-rule="evenodd" stroke="none"/>
      <path d="M34.55 29.2 L34.9 27.0 36.75 26.85 38.5 26.6 39.35 26.95 Q39.7 27.25 39.7 28.35 39.7 30.75 35.6 31.3 35.15 31.0 34.8 30.2 L34.55 29.2 M42.05 13.95 L42.15 12.25 44.95 11.15 45.65 11.8 Q46.0 12.35 46.0 13.5 46.0 15.25 45.8 15.4 45.2 15.85 44.15 15.85 L42.6 15.8 42.25 15.3 42.05 13.95 M66.05 33.1 Q66.25 32.8 67.05 32.85 L70.6 33.4 71.0 36.5 Q70.75 36.7 70.5 36.95 L67.0 36.95 Q66.55 36.1 66.35 35.05 L66.05 33.1 M69.1 11.8 L69.65 11.35 Q73.6 12.55 73.8 13.0 73.8 13.7 73.3 14.15 L70.55 13.8 Q69.85 13.45 69.4 13.05 68.85 12.15 69.1 11.8 M94.95 8.55 Q94.95 6.8 95.1 7.15 97.65 7.2 97.95 7.65 L98.2 9.15 98.05 10.35 97.55 10.85 95.55 10.85 95.1 10.1 Q94.95 9.7 94.95 8.55 Z" fill="none" stroke="#000000" stroke-linecap="round" stroke-linejoin="round" stroke-opacity="0.0" stroke-width="1.0"/>
    </g>
  </defs>
</svg>
