<?xml version="1.0" encoding="UTF-8" standalone="no"?>
<svg xmlns:xlink="http://www.w3.org/1999/xlink" height="47.45px" width="141.0px" xmlns="http://www.w3.org/2000/svg">
  <g transform="matrix(1.0, 0.0, 0.0, 1.0, -4.35, -2.9)">
    <use data-characterId="3188" height="47.45" transform="matrix(1.0, 0.0, 0.0, 1.0, 4.35, 2.9)" width="141.0" xlink:href="#morphshape0"/>
    <use data-characterId="3189" height="37.5" transform="matrix(1.0, 0.0, 0.0, 1.0, 17.5, 9.15)" width="116.05" xlink:href="#morphshape1"/>
    <use data-characterId="3190" height="21.8" transform="matrix(1.0, 0.0, 0.0, 1.0, 37.6, 4.7)" width="75.1" xlink:href="#morphshape2"/>
    <use data-characterId="3191" height="35.65" transform="matrix(1.0, 0.0, 0.0, 1.0, 32.35, 6.65)" width="66.65" xlink:href="#morphshape3"/>
  </g>
  <defs>
    <g id="morphshape0" transform="matrix(1.0, 0.0, 0.0, 1.0, -4.35, -2.9)">
      <path d="M4.95 17.0 Q4.45 18.55 12.55 19.9 20.7 21.15 30.3 21.75 41.1 22.45 27.25 23.7 13.2 24.45 22.7 26.15 32.45 27.7 26.0 28.4 19.5 29.0 15.15 30.6 10.9 32.4 15.1 32.9 19.2 33.35 20.85 33.8 23.0 34.25 25.15 34.65 L35.45 35.4 Q29.9 37.05 31.3 37.75 20.9 40.5 37.8 40.1 40.75 40.5 52.0 39.15 43.1 42.05 44.15 43.2 45.3 44.35 52.6 44.75 60.55 45.05 68.85 45.8 78.35 46.45 71.9 48.3 65.15 50.15 68.1 49.75 72.9 49.35 77.25 49.35 L91.9 48.85 Q100.25 48.45 103.2 47.4 107.3 46.5 106.55 45.1 105.2 44.1 108.1 41.5 110.8 40.4 103.3 38.3 122.35 37.45 123.85 35.6 126.45 34.15 121.25 33.8 121.25 33.2 118.8 32.8 126.55 31.35 126.45 30.45 126.55 29.65 122.75 28.8 119.2 28.05 115.5 27.6 111.85 27.15 124.1 25.8 136.35 24.45 140.4 22.65 144.4 20.85 136.05 19.55 128.9 18.25 124.35 18.3 L122.55 18.35 122.25 18.25 Q123.15 17.6 122.0 17.0 132.2 15.75 126.8 14.7 122.2 13.65 116.1 13.5 116.45 12.3 114.05 11.6 104.7 7.4 93.8 5.1 84.75 2.8 60.1 3.65 41.0 4.45 23.25 7.95 5.25 10.85 8.1 11.9 10.95 12.9 23.9 13.8 36.8 14.6 31.05 14.85 25.35 14.95 19.7 15.1 L11.5 15.5 4.85 16.3 Q4.6 16.7 4.8 17.15" fill="#96e0bc" fill-opacity="0.7058824" fill-rule="evenodd" stroke="none"/>
      <path d="M4.8 17.15 Q4.6 16.7 4.85 16.3 L11.5 15.5 19.7 15.1 Q25.35 14.95 31.05 14.85 36.8 14.6 23.9 13.8 10.95 12.9 8.1 11.9 5.25 10.85 23.25 7.95 41.0 4.45 60.1 3.65 84.75 2.8 93.8 5.1 104.7 7.4 114.05 11.6 116.45 12.3 116.1 13.5 122.2 13.65 126.8 14.7 132.2 15.75 122.0 17.0 123.15 17.6 122.25 18.25 L122.55 18.35 124.35 18.3 Q128.9 18.25 136.05 19.55 144.4 20.85 140.4 22.65 136.35 24.45 124.1 25.8 111.85 27.15 115.5 27.6 119.2 28.05 122.75 28.8 126.55 29.65 126.45 30.45 126.55 31.35 118.8 32.8 121.25 33.2 121.25 33.8 126.45 34.15 123.85 35.6 122.35 37.45 103.3 38.3 110.8 40.4 108.1 41.5 105.2 44.1 106.55 45.1 107.3 46.5 103.2 47.4 100.25 48.45 91.9 48.85 L77.25 49.35 Q72.9 49.35 68.1 49.75 65.15 50.15 71.9 48.3 78.35 46.45 68.85 45.8 60.55 45.05 52.6 44.75 45.3 44.35 44.15 43.2 43.1 42.05 52.0 39.15 40.75 40.5 37.8 40.1 20.9 40.5 31.3 37.75 29.9 37.05 35.45 35.4 L25.15 34.65 Q23.0 34.25 20.85 33.8 19.2 33.35 15.1 32.9 10.9 32.4 15.15 30.6 19.5 29.0 26.0 28.4 32.45 27.7 22.7 26.15 13.2 24.45 27.25 23.7 41.1 22.45 30.3 21.75 20.7 21.15 12.55 19.9 4.45 18.55 4.95 17.0" fill="none" stroke="#000000" stroke-linecap="round" stroke-linejoin="round" stroke-opacity="0.0" stroke-width="1.0"/>
    </g>
    <g id="morphshape1" transform="matrix(1.0, 0.0, 0.0, 1.0, -17.5, -9.15)">
      <path d="M125.6 22.15 Q125.6 22.9 126.05 23.6 126.8 24.65 129.65 24.4 L128.9 22.2 Q127.9 21.85 125.6 22.15 M102.1 32.6 Q102.1 32.95 103.2 33.75 L106.5 33.85 108.65 32.85 Q110.85 31.8 111.25 31.3 L109.75 30.1 105.55 29.7 Q102.1 29.9 102.1 32.6 M88.8 42.3 L89.25 43.1 Q90.45 43.4 91.8 43.65 L94.35 43.8 98.15 43.65 98.85 43.45 99.25 43.05 99.4 42.3 99.35 41.8 Q99.2 41.05 98.5 40.6 97.35 39.9 92.65 40.0 90.7 40.3 89.2 41.5 L88.75 42.25 M78.35 34.05 L78.35 34.1 78.65 34.7 Q79.35 35.1 80.5 35.5 L82.55 35.9 85.5 36.0 85.95 35.85 86.25 35.6 86.45 35.05 86.45 34.6 Q86.4 33.85 85.95 33.5 85.15 32.8 81.5 32.7 79.95 32.9 78.6 33.45 L78.4 34.05 M61.6 38.7 L62.15 39.6 68.5 40.0 Q72.55 40.0 75.4 37.75 75.4 35.85 69.35 35.7 63.1 35.6 61.6 38.7 M56.25 41.1 Q56.35 41.55 56.5 41.85 L59.55 41.85 Q60.0 41.6 60.25 40.0 L56.75 40.2 Q56.25 40.55 56.25 41.1 M49.0 34.7 L50.2 35.9 Q52.25 37.05 56.55 37.05 58.1 37.05 59.85 34.9 59.85 31.95 54.45 32.0 49.0 32.05 49.0 34.7 M30.6 29.8 Q30.75 30.35 33.5 31.5 37.0 32.15 40.6 32.2 L44.4 31.45 Q45.45 30.7 45.85 28.65 45.3 25.8 37.7 26.3 30.05 26.8 30.6 29.8 M21.3 12.7 Q21.3 13.15 21.75 13.85 L22.7 14.8 29.55 14.9 Q30.75 14.0 30.75 13.45 30.75 11.6 26.05 11.5 21.3 11.45 21.3 12.7" fill="#bef0d8" fill-opacity="0.7058824" fill-rule="evenodd" stroke="none"/>
      <path d="M21.3 12.7 Q21.3 11.45 26.05 11.5 30.75 11.6 30.75 13.45 30.75 14.0 29.55 14.9 L22.7 14.8 21.75 13.85 Q21.3 13.15 21.3 12.7 M30.6 29.8 Q30.05 26.8 37.7 26.3 45.3 25.8 45.85 28.65 45.45 30.7 44.4 31.45 L40.6 32.2 Q37.0 32.15 33.5 31.5 30.75 30.35 30.6 29.8 M49.0 34.7 Q49.0 32.05 54.45 32.0 59.85 31.95 59.85 34.9 58.1 37.05 56.55 37.05 52.25 37.05 50.2 35.9 L49.0 34.7 M56.25 41.1 Q56.25 40.55 56.75 40.2 L60.25 40.0 Q60.0 41.6 59.55 41.85 L56.5 41.85 Q56.35 41.55 56.25 41.1 M61.6 38.7 Q63.1 35.6 69.35 35.7 75.4 35.85 75.4 37.75 72.55 40.0 68.5 40.0 L62.15 39.6 61.6 38.7 M78.4 34.05 L78.6 33.45 Q79.95 32.9 81.5 32.7 85.15 32.8 85.95 33.5 86.4 33.85 86.45 34.6 L86.45 35.05 86.25 35.6 85.95 35.85 85.5 36.0 82.55 35.9 80.5 35.5 Q79.35 35.1 78.65 34.7 L78.35 34.1 78.35 34.05 M88.75 42.25 L89.2 41.5 Q90.7 40.3 92.65 40.0 97.35 39.9 98.5 40.6 99.2 41.05 99.35 41.8 L99.4 42.3 99.25 43.05 98.85 43.45 98.15 43.65 94.35 43.8 91.8 43.65 Q90.45 43.4 89.25 43.1 L88.8 42.3 M102.1 32.6 Q102.1 29.9 105.55 29.7 L109.75 30.1 111.25 31.3 Q110.85 31.8 108.65 32.85 L106.5 33.85 103.2 33.75 Q102.1 32.95 102.1 32.6 M125.6 22.15 Q127.9 21.85 128.9 22.2 L129.65 24.4 Q126.8 24.65 126.05 23.6 125.6 22.9 125.6 22.15 Z" fill="none" stroke="#000000" stroke-linecap="round" stroke-linejoin="round" stroke-opacity="0.0" stroke-width="1.0"/>
    </g>
    <g id="morphshape2" transform="matrix(1.0, 0.0, 0.0, 1.0, -37.6, -4.7)">
      <path d="M105.9 18.0 Q105.9 19.15 106.15 19.55 L106.95 20.1 Q109.75 19.35 110.75 18.85 111.45 18.35 110.4 15.3 108.0 15.5 106.95 16.15 105.9 16.75 105.9 18.0 M93.0 18.0 Q93.0 19.05 93.6 19.65 L96.65 19.85 Q97.1 18.85 96.85 16.75 L93.1 16.65 93.0 18.0 M91.75 9.75 Q91.75 10.8 92.15 11.7 L98.1 11.7 Q99.15 10.65 99.15 7.15 94.45 6.7 92.8 7.55 91.75 8.15 91.75 9.75 M83.4 17.8 Q83.45 18.75 84.2 20.6 84.85 21.05 86.4 21.2 L87.2 20.0 Q87.7 19.3 87.0 17.5 L83.4 17.8 M76.25 12.8 Q75.85 14.7 76.65 16.2 77.65 17.95 79.9 17.95 81.05 17.95 82.25 16.2 81.4 13.8 79.75 13.15 L76.25 12.8 M64.65 10.45 L64.7 11.9 65.05 12.45 70.5 13.2 73.8 13.6 Q75.55 13.6 74.45 11.15 74.45 8.1 69.55 7.95 64.65 7.85 64.65 10.45 M56.15 19.95 L56.25 21.05 56.55 21.4 Q56.95 21.5 57.4 21.55 58.4 21.6 59.55 21.65 L63.0 21.45 Q63.2 20.2 62.6 17.5 61.8 15.95 61.05 15.1 59.8 14.15 58.4 14.6 56.1 15.7 56.1 19.9 M51.4 11.7 L51.4 11.85 51.45 12.55 51.55 12.75 Q51.75 13.1 52.05 13.15 L53.6 13.45 Q55.1 12.95 55.8 12.9 56.05 11.7 56.0 10.05 55.5 8.95 55.05 8.1 54.1 7.75 53.15 7.9 51.45 8.9 51.45 11.75 M40.15 13.05 L41.25 15.15 Q42.95 17.3 45.95 17.3 49.85 17.3 49.85 14.1 49.85 11.1 45.0 10.3 40.15 9.45 40.15 13.05" fill="#bef0d8" fill-opacity="0.7058824" fill-rule="evenodd" stroke="none"/>
      <path d="M40.15 13.05 Q40.15 9.45 45.0 10.3 49.85 11.1 49.85 14.1 49.85 17.3 45.95 17.3 42.95 17.3 41.25 15.15 L40.15 13.05 M51.45 11.75 Q51.45 8.9 53.15 7.9 54.1 7.75 55.05 8.1 55.5 8.95 56.0 10.05 56.05 11.7 55.8 12.9 55.1 12.95 53.6 13.45 L52.05 13.15 Q51.75 13.1 51.55 12.75 L51.45 12.55 51.4 11.85 51.4 11.7 M56.1 19.9 Q56.1 15.7 58.4 14.6 59.8 14.15 61.05 15.1 61.8 15.95 62.6 17.5 63.2 20.2 63.0 21.45 L59.55 21.65 Q58.4 21.6 57.4 21.55 56.95 21.5 56.55 21.4 L56.25 21.05 56.15 19.95 M64.65 10.45 Q64.65 7.85 69.55 7.95 74.45 8.1 74.45 11.15 75.55 13.6 73.8 13.6 L70.5 13.2 65.05 12.45 64.7 11.9 64.65 10.45 M76.25 12.8 L79.75 13.15 Q81.4 13.8 82.25 16.2 81.05 17.95 79.9 17.95 77.65 17.95 76.65 16.2 75.85 14.7 76.25 12.8 M83.4 17.8 L87.0 17.5 Q87.7 19.3 87.2 20.0 L86.4 21.2 Q84.85 21.05 84.2 20.6 83.45 18.75 83.4 17.8 M91.75 9.75 Q91.75 8.15 92.8 7.55 94.45 6.7 99.15 7.15 99.15 10.65 98.1 11.7 L92.15 11.7 Q91.75 10.8 91.75 9.75 M93.0 18.0 L93.1 16.65 96.85 16.75 Q97.1 18.85 96.65 19.85 L93.6 19.65 Q93.0 19.05 93.0 18.0 M105.9 18.0 Q105.9 16.75 106.95 16.15 108.0 15.5 110.4 15.3 111.45 18.35 110.75 18.85 109.75 19.35 106.95 20.1 L106.15 19.55 Q105.9 19.15 105.9 18.0 Z" fill="none" stroke="#000000" stroke-linecap="round" stroke-linejoin="round" stroke-opacity="0.0" stroke-width="1.0"/>
    </g>
    <g id="morphshape3" transform="matrix(1.0, 0.0, 0.0, 1.0, -32.35, -6.65)">
      <path d="M95.4 8.3 Q95.4 9.45 95.55 9.85 L96.0 10.6 98.0 10.6 98.5 10.1 98.65 8.9 98.4 7.4 Q98.1 6.95 95.55 6.9 95.4 6.55 95.4 8.3 M68.75 10.25 Q68.5 10.6 69.05 11.5 69.4 11.95 70.2 12.25 L72.95 12.6 Q73.45 12.15 73.45 11.45 73.25 11.0 69.3 9.8 L68.75 10.25 M65.9 36.05 L66.2 38.0 Q66.4 39.05 66.85 39.9 L70.35 39.9 Q70.55 39.6 70.85 39.45 L70.45 36.35 66.9 35.8 Q66.1 35.75 65.9 36.05 M43.5 14.7 L43.7 16.05 44.05 16.55 45.6 16.6 Q46.65 16.6 47.25 16.15 47.45 16.0 47.45 14.25 47.45 13.1 47.1 12.55 L46.4 11.9 43.6 13.0 43.5 14.7 M36.2 29.2 L36.45 30.2 Q36.8 31.0 37.25 31.3 41.35 30.75 41.35 28.35 41.35 27.25 41.0 26.95 L40.15 26.6 38.4 26.85 36.55 27.0 36.2 29.2" fill="#ffffff" fill-opacity="0.7058824" fill-rule="evenodd" stroke="none"/>
      <path d="M36.2 29.2 L36.55 27.0 38.4 26.85 40.15 26.6 41.0 26.95 Q41.35 27.25 41.35 28.35 41.35 30.75 37.25 31.3 36.8 31.0 36.45 30.2 L36.2 29.2 M43.5 14.7 L43.6 13.0 46.4 11.9 47.1 12.55 Q47.45 13.1 47.45 14.25 47.45 16.0 47.25 16.15 46.65 16.6 45.6 16.6 L44.05 16.55 43.7 16.05 43.5 14.7 M65.9 36.05 Q66.1 35.75 66.9 35.8 L70.45 36.35 70.85 39.45 Q70.55 39.6 70.35 39.9 L66.85 39.9 Q66.4 39.05 66.2 38.0 L65.9 36.05 M68.75 10.25 L69.3 9.8 Q73.25 11.0 73.45 11.45 73.45 12.15 72.95 12.6 L70.2 12.25 Q69.4 11.95 69.05 11.5 68.5 10.6 68.75 10.25 M95.4 8.3 Q95.4 6.55 95.55 6.9 98.1 6.95 98.4 7.4 L98.65 8.9 98.5 10.1 98.0 10.6 96.0 10.6 95.55 9.85 Q95.4 9.45 95.4 8.3 Z" fill="none" stroke="#000000" stroke-linecap="round" stroke-linejoin="round" stroke-opacity="0.0" stroke-width="1.0"/>
    </g>
  </defs>
</svg>
