<?xml version="1.0" encoding="UTF-8" standalone="no"?>
<svg xmlns:xlink="http://www.w3.org/1999/xlink" height="47.45px" width="141.0px" xmlns="http://www.w3.org/2000/svg">
  <g transform="matrix(1.0, 0.0, 0.0, 1.0, -4.35, -2.9)">
    <use data-characterId="3192" height="47.45" transform="matrix(1.0, 0.0, 0.0, 1.0, 4.35, 2.9)" width="141.0" xlink:href="#morphshape0"/>
    <use data-characterId="3193" height="37.5" transform="matrix(1.0, 0.0, 0.0, 1.0, 17.5, 9.15)" width="116.05" xlink:href="#morphshape1"/>
    <use data-characterId="3194" height="21.8" transform="matrix(1.0, 0.0, 0.0, 1.0, 37.6, 4.7)" width="75.1" xlink:href="#morphshape2"/>
    <use data-characterId="3195" height="35.65" transform="matrix(1.0, 0.0, 0.0, 1.0, 32.35, 6.65)" width="66.65" xlink:href="#morphshape3"/>
  </g>
  <defs>
    <g id="morphshape0" transform="matrix(1.0, 0.0, 0.0, 1.0, -4.35, -2.9)">
      <path d="M4.55 19.5 Q5.2 20.95 7.85 21.65 10.6 22.15 13.4 22.55 20.6 23.5 21.05 25.95 20.85 26.6 19.2 27.9 18.35 28.6 17.95 29.6 17.55 30.35 17.8 31.25 18.45 33.05 20.0 33.75 21.05 34.25 23.15 34.4 27.3 34.6 29.65 35.7 L29.75 37.0 Q29.1 39.15 35.3 40.15 39.05 40.35 43.65 40.45 42.85 41.65 43.2 42.55 42.9 43.65 46.6 45.15 50.7 46.8 54.9 46.85 57.05 46.85 60.5 48.5 63.95 50.15 66.5 50.2 68.05 50.25 73.05 48.75 78.3 47.15 81.9 46.95 L89.45 45.95 Q92.95 45.55 96.25 45.15 103.75 45.35 107.3 42.4 108.7 41.15 109.4 39.6 115.4 38.9 116.6 37.8 120.9 35.1 116.6 33.75 116.35 33.6 115.9 33.5 125.8 31.9 126.5 31.05 127.5 30.15 124.9 29.2 123.3 28.6 121.6 28.05 120.95 27.85 126.9 26.75 132.85 25.65 134.6 23.4 136.35 21.15 133.75 19.85 131.05 18.45 125.2 18.45 123.8 18.45 122.55 18.5 L122.35 18.5 121.65 18.2 Q126.0 16.15 122.65 14.3 119.75 13.95 116.4 13.65 116.25 13.55 116.05 13.55 117.4 9.2 108.45 6.55 96.85 3.05 70.95 3.0 52.15 2.95 32.35 6.1 13.45 9.1 13.95 11.9 13.7 12.55 14.15 13.15 14.6 13.7 15.35 14.25 15.9 14.65 15.05 14.95 14.5 15.0 14.05 15.2 L5.1 16.25 4.85 16.3 Q3.95 17.85 4.75 19.45" fill="#96e0bc" fill-opacity="0.7058824" fill-rule="evenodd" stroke="none"/>
      <path d="M4.75 19.45 Q3.95 17.85 4.85 16.3 L5.1 16.25 14.05 15.2 Q14.5 15.0 15.05 14.95 15.9 14.65 15.35 14.25 14.6 13.7 14.15 13.15 13.7 12.55 13.95 11.9 13.45 9.1 32.35 6.1 52.15 2.95 70.95 3.0 96.85 3.05 108.45 6.55 117.4 9.2 116.05 13.55 116.25 13.55 116.4 13.65 119.75 13.95 122.65 14.3 126.0 16.15 121.65 18.2 L122.35 18.5 122.55 18.5 Q123.8 18.45 125.2 18.45 131.05 18.45 133.75 19.85 136.35 21.15 134.6 23.4 132.85 25.65 126.9 26.75 120.95 27.85 121.6 28.05 123.3 28.6 124.9 29.2 127.5 30.15 126.5 31.05 125.8 31.9 115.9 33.5 116.35 33.6 116.6 33.75 120.9 35.1 116.6 37.8 115.4 38.9 109.4 39.6 108.7 41.15 107.3 42.4 103.75 45.35 96.25 45.15 92.95 45.55 89.45 45.95 L81.9 46.95 Q78.3 47.15 73.05 48.75 68.05 50.25 66.5 50.2 63.95 50.15 60.5 48.5 57.05 46.85 54.9 46.85 50.7 46.8 46.6 45.15 42.9 43.65 43.2 42.55 42.85 41.65 43.65 40.45 39.05 40.35 35.3 40.15 29.1 39.15 29.75 37.0 L29.65 35.7 Q27.3 34.6 23.15 34.4 21.05 34.25 20.0 33.75 18.45 33.05 17.8 31.25 17.55 30.35 17.95 29.6 18.35 28.6 19.2 27.9 20.85 26.6 21.05 25.95 20.6 23.5 13.4 22.55 10.6 22.15 7.85 21.65 5.2 20.95 4.55 19.5" fill="none" stroke="#000000" stroke-linecap="round" stroke-linejoin="round" stroke-opacity="0.0" stroke-width="1.0"/>
    </g>
    <g id="morphshape1" transform="matrix(1.0, 0.0, 0.0, 1.0, -17.5, -9.15)">
      <path d="M114.85 23.6 Q114.85 24.35 115.3 25.05 116.05 26.1 118.9 25.85 L118.15 23.65 Q117.15 23.3 114.85 23.6 M99.55 28.65 Q99.55 29.0 100.65 29.8 L103.95 29.9 106.1 28.9 Q108.3 27.85 108.7 27.35 L107.2 26.15 103.0 25.75 Q99.55 25.95 99.55 28.65 M84.8 33.85 L84.8 33.95 85.0 34.45 Q85.45 34.95 86.5 35.4 L88.3 35.9 90.85 36.1 91.2 36.0 91.4 35.8 91.6 35.35 91.6 34.9 Q91.6 34.2 91.25 33.9 90.6 33.25 87.5 33.05 86.2 33.2 84.95 33.4 L84.9 33.9 M75.3 42.2 L75.85 43.1 Q77.3 43.3 78.75 43.5 L81.55 43.55 85.75 43.3 86.55 43.05 87.05 42.6 87.2 41.75 87.15 41.25 Q86.95 40.45 86.15 39.95 84.85 39.2 79.6 39.4 77.4 39.75 75.8 41.3 L75.2 42.15 M62.5 31.9 L63.05 32.8 69.4 33.2 Q73.45 33.2 76.3 30.95 76.3 29.05 70.25 28.9 64.0 28.8 62.5 31.9 M61.65 42.25 Q61.65 42.75 61.9 43.0 L64.95 43.0 Q65.4 42.75 65.65 41.15 L62.15 41.35 Q61.65 41.7 61.65 42.25 M49.0 36.95 L50.2 38.15 Q52.25 39.3 56.55 39.3 58.1 39.3 59.85 37.15 59.85 34.2 54.45 34.25 49.0 34.3 49.0 36.95 M26.55 28.3 Q26.55 28.9 29.1 30.55 32.3 32.65 35.95 32.55 L39.85 32.55 Q41.05 32.05 41.8 30.1 41.8 27.2 34.2 26.25 26.55 25.3 26.55 28.35 M17.6 19.1 Q17.6 19.55 18.05 20.25 L19.0 21.2 25.85 21.3 Q27.05 20.4 27.05 19.85 27.05 18.0 22.35 17.9 17.6 17.85 17.6 19.1" fill="#bef0d8" fill-opacity="0.7058824" fill-rule="evenodd" stroke="none"/>
      <path d="M17.6 19.1 Q17.6 17.85 22.35 17.9 27.05 18.0 27.05 19.85 27.05 20.4 25.85 21.3 L19.0 21.2 18.05 20.25 Q17.6 19.55 17.6 19.1 M26.55 28.35 Q26.55 25.3 34.2 26.25 41.8 27.2 41.8 30.1 41.05 32.05 39.85 32.55 L35.95 32.55 Q32.3 32.65 29.1 30.55 26.55 28.9 26.55 28.3 M49.0 36.95 Q49.0 34.3 54.45 34.25 59.85 34.2 59.85 37.15 58.1 39.3 56.55 39.3 52.25 39.3 50.2 38.15 L49.0 36.95 M61.65 42.25 Q61.65 41.7 62.15 41.35 L65.65 41.15 Q65.4 42.75 64.95 43.0 L61.9 43.0 Q61.65 42.75 61.65 42.25 M62.5 31.9 Q64.0 28.8 70.25 28.9 76.3 29.05 76.3 30.95 73.45 33.2 69.4 33.2 L63.05 32.8 62.5 31.9 M75.2 42.15 L75.8 41.3 Q77.4 39.75 79.6 39.4 84.85 39.2 86.15 39.95 86.95 40.45 87.15 41.25 L87.2 41.75 87.05 42.6 86.55 43.05 85.75 43.3 81.55 43.55 78.75 43.5 Q77.3 43.3 75.85 43.1 L75.3 42.2 M84.9 33.9 L84.95 33.4 Q86.2 33.2 87.5 33.05 90.6 33.25 91.25 33.9 91.6 34.2 91.6 34.9 L91.6 35.35 91.4 35.8 91.2 36.0 90.85 36.1 88.3 35.9 86.5 35.4 Q85.45 34.95 85.0 34.45 L84.8 33.95 84.8 33.85 M99.55 28.65 Q99.55 25.95 103.0 25.75 L107.2 26.15 108.7 27.35 Q108.3 27.85 106.1 28.9 L103.95 29.9 100.65 29.8 Q99.55 29.0 99.55 28.65 M114.85 23.6 Q117.15 23.3 118.15 23.65 L118.9 25.85 Q116.05 26.1 115.3 25.05 114.85 24.35 114.85 23.6 Z" fill="none" stroke="#000000" stroke-linecap="round" stroke-linejoin="round" stroke-opacity="0.0" stroke-width="1.0"/>
    </g>
    <g id="morphshape2" transform="matrix(1.0, 0.0, 0.0, 1.0, -37.6, -4.7)">
      <path d="M101.35 14.6 Q101.35 15.75 101.6 16.15 L102.4 16.7 Q104.35 16.05 106.2 15.45 106.9 14.95 105.85 11.9 103.45 12.1 102.4 12.75 101.35 13.35 101.35 14.6 M89.6 22.15 Q89.6 23.2 90.2 23.8 L93.25 24.0 Q93.7 23.0 93.45 20.9 L89.7 20.8 89.6 22.15 M88.0 12.0 Q88.0 13.05 88.4 13.95 L94.35 13.95 Q95.4 12.9 95.4 9.4 90.7 8.95 89.05 9.8 88.0 10.4 88.0 12.0 M79.7 22.95 Q79.75 23.9 80.5 25.75 81.15 26.2 82.7 26.35 L83.5 25.15 Q84.0 24.45 83.3 22.65 L79.7 22.95 M78.65 6.4 Q78.25 8.3 79.05 9.8 80.05 11.55 82.3 11.55 83.45 11.55 84.65 9.8 83.8 7.4 82.15 6.75 L78.65 6.4 M66.8 14.2 L66.85 15.65 67.2 16.2 72.65 16.95 75.95 17.35 Q77.7 17.35 76.6 14.9 76.6 11.85 71.7 11.7 66.8 11.6 66.8 14.2 M55.95 10.85 L55.95 11.05 56.0 11.55 56.0 11.65 Q56.05 12.1 56.25 12.2 56.5 12.4 57.45 12.6 L59.05 11.85 Q59.3 10.7 59.45 9.55 59.15 8.65 58.9 7.8 58.1 7.75 57.35 7.75 55.9 8.65 55.9 10.8 M48.05 22.75 L48.15 24.0 48.55 24.45 Q49.1 24.45 49.65 24.45 L52.1 24.45 Q54.15 24.45 56.15 24.45 56.35 23.15 55.55 19.95 54.55 18.2 53.6 17.35 52.2 16.1 50.6 16.7 48.05 17.9 48.05 22.8 M37.7 10.25 L38.8 12.35 Q40.5 14.5 43.5 14.5 47.4 14.5 47.4 11.3 47.4 8.3 42.55 7.5 37.7 6.65 37.7 10.25" fill="#bef0d8" fill-opacity="0.7058824" fill-rule="evenodd" stroke="none"/>
      <path d="M37.7 10.25 Q37.7 6.65 42.55 7.5 47.4 8.3 47.4 11.3 47.4 14.5 43.5 14.5 40.5 14.5 38.8 12.35 L37.7 10.25 M48.05 22.8 Q48.05 17.9 50.6 16.7 52.2 16.1 53.6 17.35 54.55 18.2 55.55 19.95 56.35 23.15 56.15 24.45 54.15 24.45 52.1 24.45 L49.65 24.45 Q49.1 24.45 48.55 24.45 L48.15 24.0 48.05 22.75 M55.9 10.8 Q55.9 8.65 57.35 7.75 58.1 7.75 58.9 7.8 59.15 8.65 59.45 9.55 59.3 10.7 59.05 11.85 L57.45 12.6 Q56.5 12.4 56.25 12.2 56.05 12.1 56.0 11.65 L56.0 11.55 55.95 11.05 55.95 10.85 M66.8 14.2 Q66.8 11.6 71.7 11.7 76.6 11.85 76.6 14.9 77.7 17.35 75.95 17.35 L72.65 16.95 67.2 16.2 66.85 15.65 66.8 14.2 M78.65 6.4 L82.15 6.75 Q83.8 7.4 84.65 9.8 83.45 11.55 82.3 11.55 80.05 11.55 79.05 9.8 78.25 8.3 78.65 6.4 M79.7 22.95 L83.3 22.65 Q84.0 24.45 83.5 25.15 L82.7 26.35 Q81.15 26.2 80.5 25.75 79.75 23.9 79.7 22.95 M88.0 12.0 Q88.0 10.4 89.05 9.8 90.7 8.95 95.4 9.4 95.4 12.9 94.35 13.95 L88.4 13.95 Q88.0 13.05 88.0 12.0 M89.6 22.15 L89.7 20.8 93.45 20.9 Q93.7 23.0 93.25 24.0 L90.2 23.8 Q89.6 23.2 89.6 22.15 M101.35 14.6 Q101.35 13.35 102.4 12.75 103.45 12.1 105.85 11.9 106.9 14.95 106.2 15.45 104.35 16.05 102.4 16.7 L101.6 16.15 Q101.35 15.75 101.35 14.6 Z" fill="none" stroke="#000000" stroke-linecap="round" stroke-linejoin="round" stroke-opacity="0.0" stroke-width="1.0"/>
    </g>
    <g id="morphshape3" transform="matrix(1.0, 0.0, 0.0, 1.0, -32.35, -6.65)">
      <path d="M90.15 10.9 Q90.15 12.05 90.3 12.45 L90.75 13.2 92.75 13.2 93.25 12.7 93.4 11.5 93.15 10.0 Q92.85 9.55 90.3 9.5 90.15 9.15 90.15 10.9 M69.45 14.4 Q69.4 14.85 70.3 15.35 71.0 15.4 71.65 15.4 72.85 15.2 74.2 14.35 74.45 13.7 74.1 13.05 71.9 13.4 69.65 13.65 L69.45 14.35 M66.3 28.3 L66.6 30.25 Q66.8 31.3 67.25 32.15 L70.75 32.15 Q71.0 31.9 71.25 31.7 L70.85 28.6 67.3 28.05 Q66.5 28.0 66.3 28.3 M40.25 13.0 L40.45 14.35 40.8 14.85 42.35 14.9 Q43.4 14.9 44.0 14.45 44.2 14.3 44.2 12.55 44.2 11.4 43.85 10.85 L43.15 10.2 40.35 11.3 40.25 13.0 M32.5 29.2 L32.75 30.2 Q33.1 31.0 33.55 31.3 37.65 30.75 37.65 28.35 37.65 27.25 37.3 26.95 L36.45 26.6 34.7 26.85 32.85 27.0 32.5 29.2" fill="#ffffff" fill-opacity="0.7058824" fill-rule="evenodd" stroke="none"/>
      <path d="M32.5 29.2 L32.85 27.0 34.7 26.85 36.45 26.6 37.3 26.95 Q37.65 27.25 37.65 28.35 37.65 30.75 33.55 31.3 33.1 31.0 32.75 30.2 L32.5 29.2 M40.25 13.0 L40.35 11.3 43.15 10.2 43.85 10.85 Q44.2 11.4 44.2 12.55 44.2 14.3 44.0 14.45 43.4 14.9 42.35 14.9 L40.8 14.85 40.45 14.35 40.25 13.0 M66.3 28.3 Q66.5 28.0 67.3 28.05 L70.85 28.6 71.25 31.7 Q71.0 31.9 70.75 32.15 L67.25 32.15 Q66.8 31.3 66.6 30.25 L66.3 28.3 M69.45 14.35 L69.65 13.65 Q71.9 13.4 74.1 13.05 74.45 13.7 74.2 14.35 72.85 15.2 71.65 15.4 71.0 15.4 70.3 15.35 69.4 14.85 69.45 14.4 M90.15 10.9 Q90.15 9.15 90.3 9.5 92.85 9.55 93.15 10.0 L93.4 11.5 93.25 12.7 92.75 13.2 90.75 13.2 90.3 12.45 Q90.15 12.05 90.15 10.9 Z" fill="none" stroke="#000000" stroke-linecap="round" stroke-linejoin="round" stroke-opacity="0.0" stroke-width="1.0"/>
    </g>
  </defs>
</svg>
