<?xml version="1.0" encoding="UTF-8" standalone="no"?>
<svg xmlns:xlink="http://www.w3.org/1999/xlink" height="47.45px" width="141.0px" xmlns="http://www.w3.org/2000/svg">
  <g transform="matrix(1.0, 0.0, 0.0, 1.0, -4.35, -2.9)">
    <use data-characterId="3192" height="47.45" transform="matrix(1.0, 0.0, 0.0, 1.0, 4.35, 2.9)" width="141.0" xlink:href="#morphshape0"/>
    <use data-characterId="3193" height="37.5" transform="matrix(1.0, 0.0, 0.0, 1.0, 17.5, 9.15)" width="116.05" xlink:href="#morphshape1"/>
    <use data-characterId="3194" height="21.8" transform="matrix(1.0, 0.0, 0.0, 1.0, 37.6, 4.7)" width="75.1" xlink:href="#morphshape2"/>
    <use data-characterId="3195" height="35.65" transform="matrix(1.0, 0.0, 0.0, 1.0, 32.35, 6.65)" width="66.65" xlink:href="#morphshape3"/>
  </g>
  <defs>
    <g id="morphshape0" transform="matrix(1.0, 0.0, 0.0, 1.0, -4.35, -2.9)">
      <path d="M4.75 19.45 Q5.35 20.9 8.25 21.65 11.25 22.15 14.4 22.55 21.8 23.5 21.55 25.9 20.65 26.55 19.55 27.9 19.25 28.6 18.55 29.6 17.85 30.35 17.85 31.3 18.25 33.1 19.95 33.8 21.15 34.3 23.2 34.45 27.25 34.65 29.6 35.7 L30.2 36.95 Q29.3 39.05 35.25 40.05 38.3 40.35 43.55 40.4 42.9 41.6 43.8 42.4 43.05 43.6 46.65 45.05 50.6 46.65 54.95 46.75 57.4 46.75 61.1 48.35 64.85 49.95 66.95 50.1 68.1 50.25 73.0 48.8 78.2 47.25 81.8 47.05 L89.7 46.1 Q93.45 45.7 96.7 45.25 104.0 45.4 107.35 42.55 108.6 41.3 109.45 39.7 115.25 38.95 116.0 37.8 121.05 35.2 117.05 33.8 116.95 33.6 116.25 33.5 125.65 31.95 126.2 31.15 127.5 30.2 125.0 29.25 123.5 28.65 121.7 28.1 120.9 27.85 126.4 26.8 131.85 25.75 134.15 23.55 136.45 21.35 134.2 20.0 131.8 18.55 125.85 18.5 124.15 18.45 122.7 18.5 L122.4 18.5 121.75 18.2 Q125.9 16.2 122.7 14.4 120.45 14.0 117.0 13.7 116.65 13.55 116.15 13.55 117.45 9.35 108.85 6.8 97.35 3.25 72.2 3.05 53.85 2.85 33.8 5.9 14.9 8.75 14.45 11.6 13.3 12.4 13.85 13.05 14.4 13.65 15.8 14.25 17.0 14.7 15.9 15.0 15.05 15.05 14.35 15.25 L5.45 16.25 4.85 16.3 Q4.0 17.8 4.75 19.35" fill="#96e0bc" fill-opacity="0.7058824" fill-rule="evenodd" stroke="none"/>
      <path d="M4.75 19.35 Q4.0 17.8 4.85 16.3 L5.45 16.25 14.35 15.25 Q15.05 15.05 15.9 15.0 17.0 14.7 15.8 14.25 14.4 13.65 13.85 13.05 13.3 12.4 14.45 11.6 14.9 8.75 33.8 5.9 53.85 2.85 72.2 3.05 97.35 3.25 108.85 6.8 117.45 9.35 116.15 13.55 116.65 13.55 117.0 13.7 120.45 14.0 122.7 14.4 125.9 16.2 121.75 18.2 L122.4 18.5 122.7 18.5 Q124.15 18.45 125.85 18.5 131.8 18.55 134.2 20.0 136.45 21.35 134.15 23.55 131.85 25.75 126.4 26.8 120.9 27.85 121.7 28.1 123.5 28.65 125.0 29.25 127.5 30.2 126.2 31.15 125.65 31.95 116.25 33.5 116.95 33.6 117.05 33.8 121.05 35.2 116.0 37.8 115.25 38.95 109.45 39.7 108.6 41.3 107.35 42.55 104.0 45.4 96.7 45.25 93.45 45.7 89.7 46.1 L81.8 47.05 Q78.2 47.25 73.0 48.8 68.1 50.25 66.95 50.1 64.85 49.95 61.1 48.35 57.4 46.75 54.95 46.75 50.6 46.65 46.65 45.05 43.05 43.6 43.8 42.4 42.9 41.6 43.55 40.4 38.3 40.35 35.25 40.05 29.3 39.05 30.2 36.95 L29.6 35.7 Q27.25 34.65 23.2 34.45 21.15 34.3 19.95 33.8 18.25 33.1 17.85 31.3 17.85 30.35 18.55 29.6 19.25 28.6 19.55 27.9 20.65 26.55 21.55 25.9 21.8 23.5 14.4 22.55 11.25 22.15 8.25 21.65 5.35 20.9 4.75 19.45" fill="none" stroke="#000000" stroke-linecap="round" stroke-linejoin="round" stroke-opacity="0.0" stroke-width="1.0"/>
    </g>
    <g id="morphshape1" transform="matrix(1.0, 0.0, 0.0, 1.0, -17.5, -9.15)">
      <path d="M115.4 23.55 Q115.4 24.3 115.85 25.0 116.6 26.05 119.45 25.8 L118.7 23.6 Q117.7 23.25 115.4 23.55 M99.65 28.85 Q99.65 29.2 100.75 30.0 L104.05 30.1 106.2 29.1 Q108.4 28.05 108.8 27.55 L107.3 26.35 103.1 25.95 Q99.65 26.15 99.65 28.85 M85.2 34.3 L85.2 34.4 85.4 34.9 Q85.85 35.4 86.9 35.85 L88.7 36.3 91.3 36.45 91.7 36.35 91.9 36.15 92.1 35.7 92.1 35.25 Q92.1 34.55 91.7 34.25 91.0 33.6 87.8 33.4 86.45 33.55 85.2 33.8 L85.1 34.3 M75.25 41.7 L75.8 42.6 Q77.25 42.8 78.7 43.0 L81.5 43.1 85.65 42.9 86.4 42.65 86.9 42.2 87.05 41.35 87.0 40.85 Q86.8 40.05 86.05 39.55 84.8 38.8 79.65 39.0 77.5 39.35 75.9 40.85 L75.35 41.7 M62.45 32.25 L63.0 33.15 69.35 33.55 Q73.4 33.55 76.25 31.3 76.25 29.4 70.2 29.25 63.95 29.15 62.45 32.25 M61.4 42.2 Q61.4 42.7 61.65 42.95 L64.7 42.95 Q65.15 42.7 65.4 41.1 L61.9 41.3 Q61.4 41.65 61.4 42.2 M49.0 36.85 L50.2 38.05 Q52.25 39.2 56.55 39.2 58.1 39.2 59.85 37.05 59.85 34.1 54.45 34.15 49.0 34.2 49.0 36.85 M26.8 28.4 Q26.8 29.0 29.35 30.6 32.55 32.65 36.2 32.55 L40.1 32.5 Q41.3 32.0 42.0 30.05 41.95 27.15 34.35 26.25 26.7 25.35 26.75 28.4 M17.8 18.75 Q17.8 19.2 18.25 19.9 L19.2 20.85 26.05 20.95 Q27.25 20.05 27.25 19.5 27.25 17.65 22.55 17.55 17.8 17.5 17.8 18.75" fill="#bef0d8" fill-opacity="0.7058824" fill-rule="evenodd" stroke="none"/>
      <path d="M17.8 18.75 Q17.8 17.5 22.55 17.55 27.25 17.65 27.25 19.5 27.25 20.05 26.05 20.95 L19.2 20.85 18.25 19.9 Q17.8 19.2 17.8 18.75 M26.75 28.4 Q26.7 25.35 34.35 26.25 41.95 27.15 42.0 30.05 41.3 32.0 40.1 32.5 L36.2 32.55 Q32.55 32.65 29.35 30.6 26.8 29.0 26.8 28.4 M49.0 36.85 Q49.0 34.2 54.45 34.15 59.85 34.1 59.85 37.05 58.1 39.2 56.55 39.2 52.25 39.2 50.2 38.05 L49.0 36.85 M61.4 42.2 Q61.4 41.65 61.9 41.3 L65.4 41.1 Q65.15 42.7 64.7 42.95 L61.65 42.95 Q61.4 42.7 61.4 42.2 M62.45 32.25 Q63.95 29.15 70.2 29.25 76.25 29.4 76.25 31.3 73.4 33.55 69.35 33.55 L63.0 33.15 62.45 32.25 M75.35 41.7 L75.9 40.85 Q77.5 39.35 79.65 39.0 84.8 38.8 86.05 39.55 86.8 40.05 87.0 40.85 L87.05 41.35 86.9 42.2 86.4 42.65 85.65 42.9 81.5 43.1 78.7 43.0 Q77.25 42.8 75.8 42.6 L75.25 41.7 M85.1 34.3 L85.2 33.8 Q86.45 33.55 87.8 33.4 91.0 33.6 91.7 34.25 92.1 34.55 92.1 35.25 L92.1 35.7 91.9 36.15 91.7 36.35 91.3 36.45 88.7 36.3 86.9 35.85 Q85.85 35.4 85.4 34.9 L85.2 34.4 85.2 34.3 M99.65 28.85 Q99.65 26.15 103.1 25.95 L107.3 26.35 108.8 27.55 Q108.4 28.05 106.2 29.1 L104.05 30.1 100.75 30.0 Q99.65 29.2 99.65 28.85 M115.4 23.55 Q117.7 23.25 118.7 23.6 L119.45 25.8 Q116.6 26.05 115.85 25.0 115.4 24.3 115.4 23.55 Z" fill="none" stroke="#000000" stroke-linecap="round" stroke-linejoin="round" stroke-opacity="0.0" stroke-width="1.0"/>
    </g>
    <g id="morphshape2" transform="matrix(1.0, 0.0, 0.0, 1.0, -37.6, -4.7)">
      <path d="M101.6 14.8 Q101.6 15.95 101.85 16.35 L102.65 16.9 Q104.6 16.25 106.45 15.65 107.15 15.15 106.1 12.1 103.7 12.3 102.65 12.95 101.6 13.55 101.6 14.8 M89.8 21.95 Q89.8 23.0 90.4 23.6 L93.45 23.8 Q93.9 22.8 93.65 20.7 L89.9 20.6 89.8 21.95 M88.15 11.85 Q88.15 12.9 88.55 13.8 L94.5 13.8 Q95.55 12.75 95.55 9.25 90.85 8.8 89.2 9.65 88.15 10.25 88.15 11.85 M79.9 22.65 Q79.95 23.6 80.7 25.45 81.35 25.9 82.9 26.05 L83.7 24.85 Q84.2 24.15 83.5 22.35 L79.9 22.65 M78.55 6.75 Q78.15 8.65 78.95 10.15 79.95 11.9 82.2 11.9 83.35 11.9 84.55 10.15 83.7 7.75 82.05 7.1 L78.55 6.75 M66.65 14.05 L66.7 15.5 67.05 16.05 72.5 16.8 75.8 17.2 Q77.55 17.2 76.45 14.75 76.45 11.7 71.55 11.55 66.65 11.45 66.65 14.05 M55.95 11.3 L55.95 11.5 56.0 12.05 56.0 12.15 Q56.1 12.55 56.3 12.65 56.6 12.85 57.55 13.05 L59.25 12.35 Q59.5 11.2 59.65 9.95 59.3 9.0 59.0 8.15 58.15 8.05 57.35 8.1 55.9 9.0 55.9 11.25 M48.25 22.15 L48.35 23.35 48.75 23.8 Q49.25 23.85 49.8 23.85 L52.2 23.85 Q54.2 23.8 56.15 23.8 56.35 22.5 55.55 19.4 54.6 17.7 53.7 16.85 52.35 15.65 50.8 16.2 48.25 17.4 48.25 22.2 M37.8 10.4 L38.9 12.5 Q40.6 14.65 43.6 14.65 47.5 14.65 47.5 11.45 47.5 8.45 42.65 7.65 37.8 6.8 37.8 10.4" fill="#bef0d8" fill-opacity="0.7058824" fill-rule="evenodd" stroke="none"/>
      <path d="M37.8 10.4 Q37.8 6.8 42.65 7.65 47.5 8.45 47.5 11.45 47.5 14.65 43.6 14.65 40.6 14.65 38.9 12.5 L37.8 10.4 M48.25 22.2 Q48.25 17.4 50.8 16.2 52.35 15.65 53.7 16.85 54.6 17.7 55.55 19.4 56.35 22.5 56.15 23.8 54.2 23.8 52.2 23.85 L49.8 23.85 Q49.25 23.85 48.75 23.8 L48.35 23.35 48.25 22.15 M55.9 11.25 Q55.9 9.0 57.35 8.1 58.15 8.05 59.0 8.15 59.3 9.0 59.65 9.95 59.5 11.2 59.25 12.35 L57.55 13.05 Q56.6 12.85 56.3 12.65 56.1 12.55 56.0 12.15 L56.0 12.05 55.95 11.5 55.95 11.3 M66.65 14.05 Q66.65 11.45 71.55 11.55 76.45 11.7 76.45 14.75 77.55 17.2 75.8 17.2 L72.5 16.8 67.05 16.05 66.7 15.5 66.65 14.05 M78.55 6.75 L82.05 7.1 Q83.7 7.75 84.55 10.15 83.35 11.9 82.2 11.9 79.95 11.9 78.95 10.15 78.15 8.65 78.55 6.75 M79.9 22.65 L83.5 22.35 Q84.2 24.15 83.7 24.85 L82.9 26.05 Q81.35 25.9 80.7 25.45 79.95 23.6 79.9 22.65 M88.15 11.85 Q88.15 10.25 89.2 9.65 90.85 8.8 95.55 9.25 95.55 12.75 94.5 13.8 L88.55 13.8 Q88.15 12.9 88.15 11.85 M89.8 21.95 L89.9 20.6 93.65 20.7 Q93.9 22.8 93.45 23.8 L90.4 23.6 Q89.8 23.0 89.8 21.95 M101.6 14.8 Q101.6 13.55 102.65 12.95 103.7 12.3 106.1 12.1 107.15 15.15 106.45 15.65 104.6 16.25 102.65 16.9 L101.85 16.35 Q101.6 15.95 101.6 14.8 Z" fill="none" stroke="#000000" stroke-linecap="round" stroke-linejoin="round" stroke-opacity="0.0" stroke-width="1.0"/>
    </g>
    <g id="morphshape3" transform="matrix(1.0, 0.0, 0.0, 1.0, -32.35, -6.65)">
      <path d="M90.35 10.8 Q90.35 11.95 90.5 12.35 L90.95 13.1 92.95 13.1 93.45 12.6 93.6 11.4 93.35 9.9 Q93.05 9.45 90.5 9.4 90.35 9.05 90.35 10.8 M69.45 14.25 Q69.4 14.7 70.3 15.2 70.95 15.25 71.6 15.25 72.8 15.05 74.15 14.25 74.4 13.6 74.05 12.95 71.9 13.25 69.6 13.45 L69.4 14.15 M66.25 28.7 L66.55 30.65 Q66.75 31.7 67.2 32.55 L70.7 32.55 Q70.95 32.3 71.2 32.1 L70.8 29.0 67.25 28.45 Q66.45 28.4 66.25 28.7 M40.4 13.1 L40.6 14.45 40.95 14.95 42.5 15.0 Q43.55 15.0 44.15 14.55 44.35 14.4 44.35 12.65 44.35 11.5 44.0 10.95 L43.3 10.3 40.5 11.4 40.4 13.1 M32.65 29.2 L32.9 30.2 Q33.25 31.0 33.7 31.3 37.8 30.75 37.8 28.35 37.8 27.25 37.45 26.95 L36.6 26.6 34.85 26.85 33.0 27.0 32.65 29.2" fill="#ffffff" fill-opacity="0.7058824" fill-rule="evenodd" stroke="none"/>
      <path d="M32.65 29.2 L33.0 27.0 34.85 26.85 36.6 26.6 37.45 26.95 Q37.8 27.25 37.8 28.35 37.8 30.75 33.7 31.3 33.25 31.0 32.9 30.2 L32.65 29.2 M40.4 13.1 L40.5 11.4 43.3 10.3 44.0 10.95 Q44.35 11.5 44.35 12.65 44.35 14.4 44.15 14.55 43.55 15.0 42.5 15.0 L40.95 14.95 40.6 14.45 40.4 13.1 M66.25 28.7 Q66.45 28.4 67.25 28.45 L70.8 29.0 71.2 32.1 Q70.95 32.3 70.7 32.55 L67.2 32.55 Q66.75 31.7 66.55 30.65 L66.25 28.7 M69.4 14.15 L69.6 13.45 Q71.9 13.25 74.05 12.95 74.4 13.6 74.15 14.25 72.8 15.05 71.6 15.25 70.95 15.25 70.3 15.2 69.4 14.7 69.45 14.25 M90.35 10.8 Q90.35 9.05 90.5 9.4 93.05 9.45 93.35 9.9 L93.6 11.4 93.45 12.6 92.95 13.1 90.95 13.1 90.5 12.35 Q90.35 11.95 90.35 10.8 Z" fill="none" stroke="#000000" stroke-linecap="round" stroke-linejoin="round" stroke-opacity="0.0" stroke-width="1.0"/>
    </g>
  </defs>
</svg>
