<?xml version="1.0" encoding="UTF-8" standalone="no"?>
<svg xmlns:xlink="http://www.w3.org/1999/xlink" height="47.45px" width="141.0px" xmlns="http://www.w3.org/2000/svg">
  <g transform="matrix(1.0, 0.0, 0.0, 1.0, -4.35, -2.9)">
    <use data-characterId="3188" height="47.45" transform="matrix(1.0, 0.0, 0.0, 1.0, 4.35, 2.9)" width="141.0" xlink:href="#morphshape0"/>
    <use data-characterId="3189" height="37.5" transform="matrix(1.0, 0.0, 0.0, 1.0, 17.5, 9.15)" width="116.05" xlink:href="#morphshape1"/>
    <use data-characterId="3190" height="21.8" transform="matrix(1.0, 0.0, 0.0, 1.0, 37.6, 4.7)" width="75.1" xlink:href="#morphshape2"/>
    <use data-characterId="3191" height="35.65" transform="matrix(1.0, 0.0, 0.0, 1.0, 32.35, 6.65)" width="66.65" xlink:href="#morphshape3"/>
  </g>
  <defs>
    <g id="morphshape0" transform="matrix(1.0, 0.0, 0.0, 1.0, -4.35, -2.9)">
      <path d="M5.0 18.55 Q5.2 20.05 10.0 21.0 14.85 21.8 20.3 22.3 28.9 23.15 23.75 25.15 18.1 25.85 20.8 27.3 24.1 28.3 21.35 29.2 18.55 29.9 17.0 31.1 15.7 32.9 18.3 33.5 20.55 33.95 22.45 34.2 25.8 34.5 28.05 35.3 L32.15 36.35 Q29.55 38.3 33.85 39.2 32.05 40.4 41.5 40.3 42.15 41.2 46.8 41.25 43.15 43.05 45.8 44.4 48.75 45.85 54.15 46.05 58.6 46.15 63.95 47.45 69.75 48.7 68.75 49.45 67.05 50.2 71.25 49.1 76.3 47.95 80.15 47.85 L90.5 47.05 Q95.9 46.65 99.05 46.0 105.2 45.8 107.05 43.45 107.4 42.3 109.0 40.35 113.7 39.5 111.5 38.0 121.55 36.05 119.55 34.5 120.4 33.85 118.1 33.65 124.1 32.45 123.55 31.8 127.2 30.65 125.55 29.75 124.65 29.05 122.1 28.4 120.3 27.95 122.5 27.1 124.65 26.25 130.5 24.35 136.35 22.45 136.35 20.95 136.25 19.4 129.45 18.9 125.8 18.4 123.25 18.45 L122.45 18.5 121.9 18.3 Q124.9 16.8 122.45 15.45 124.7 14.75 120.55 14.15 118.65 13.7 116.15 13.65 117.1 10.55 110.75 8.65 100.0 4.85 80.0 3.9 65.0 2.95 43.3 5.2 24.3 7.3 17.65 10.4 10.45 11.95 11.8 12.75 13.15 13.5 18.7 14.2 24.1 14.75 21.35 15.0 18.75 15.05 16.3 15.2 L7.65 16.0 4.9 16.3 Q4.25 17.4 4.8 18.55" fill="#96e0bc" fill-opacity="0.7058824" fill-rule="evenodd" stroke="none"/>
      <path d="M4.8 18.55 Q4.25 17.4 4.9 16.3 L7.65 16.0 16.3 15.2 Q18.75 15.05 21.35 15.0 24.1 14.75 18.7 14.2 13.15 13.5 11.8 12.75 10.45 11.95 17.65 10.4 24.3 7.3 43.3 5.2 65.0 2.95 80.0 3.9 100.0 4.85 110.75 8.65 117.1 10.55 116.15 13.65 118.65 13.7 120.55 14.15 124.7 14.75 122.45 15.45 124.9 16.8 121.9 18.3 L122.45 18.5 123.25 18.45 Q125.8 18.4 129.45 18.9 136.25 19.4 136.35 20.95 136.35 22.45 130.5 24.35 124.65 26.25 122.5 27.1 120.3 27.95 122.1 28.4 124.65 29.05 125.55 29.75 127.2 30.65 123.55 31.8 124.1 32.45 118.1 33.65 120.4 33.85 119.55 34.5 121.55 36.05 111.5 38.0 113.7 39.5 109.0 40.35 107.4 42.3 107.05 43.45 105.2 45.8 99.05 46.0 95.9 46.65 90.5 47.05 L80.15 47.85 Q76.3 47.95 71.25 49.1 67.05 50.2 68.75 49.45 69.75 48.7 63.95 47.45 58.6 46.15 54.15 46.05 48.75 45.85 45.8 44.4 43.15 43.05 46.8 41.25 42.15 41.2 41.5 40.3 32.05 40.4 33.85 39.2 29.55 38.3 32.15 36.35 L28.05 35.3 Q25.8 34.5 22.45 34.2 20.55 33.95 18.3 33.5 15.7 32.9 17.0 31.1 18.55 29.9 21.35 29.2 24.1 28.3 20.8 27.3 18.1 25.85 23.75 25.15 28.9 23.15 20.3 22.3 14.85 21.8 10.0 21.0 5.2 20.05 5.0 18.55" fill="none" stroke="#000000" stroke-linecap="round" stroke-linejoin="round" stroke-opacity="0.0" stroke-width="1.0"/>
    </g>
    <g id="morphshape1" transform="matrix(1.0, 0.0, 0.0, 1.0, -17.5, -9.15)">
      <path d="M119.05 23.05 Q119.05 23.8 119.5 24.5 120.25 25.55 123.1 25.3 L122.35 23.1 Q121.35 22.75 119.05 23.05 M100.55 30.2 Q100.55 30.55 101.65 31.35 L104.95 31.45 107.1 30.45 Q109.3 29.4 109.7 28.9 L108.2 27.7 104.0 27.3 Q100.55 27.5 100.55 30.2 M86.3 37.25 L86.6 37.95 Q87.35 38.35 88.5 38.7 L90.6 39.05 93.65 39.1 94.15 38.95 94.45 38.65 94.65 38.1 94.65 37.65 Q94.6 36.9 94.1 36.55 93.25 35.85 89.5 35.75 87.95 35.95 86.6 36.55 L86.4 37.15 M76.55 38.8 L76.55 38.85 77.0 39.65 Q78.15 39.95 79.5 40.25 L82.0 40.45 85.7 40.35 86.35 40.15 86.75 39.8 86.9 39.05 86.85 38.55 Q86.7 37.8 86.05 37.35 84.95 36.65 80.35 36.75 78.4 37.05 76.9 38.2 L76.45 38.95 M62.15 34.55 L62.7 35.45 69.05 35.85 Q73.1 35.85 75.95 33.6 75.95 31.7 69.9 31.55 63.65 31.45 62.15 34.55 M59.55 41.8 Q59.6 42.25 59.8 42.55 L62.85 42.55 Q63.3 42.3 63.55 40.7 L60.05 40.9 Q59.55 41.25 59.55 41.8 M49.0 36.1 L50.2 37.3 Q52.25 38.45 56.55 38.45 58.1 38.45 59.85 36.3 59.85 33.35 54.45 33.4 49.0 33.45 49.0 36.1 M28.15 28.9 Q28.2 29.5 30.85 30.95 34.15 32.5 37.8 32.45 L41.65 32.15 Q42.8 31.55 43.4 29.55 43.15 26.7 35.55 26.3 27.9 25.9 28.15 28.9 M19.05 16.6 Q19.05 17.05 19.5 17.75 L20.45 18.7 27.3 18.8 Q28.5 17.9 28.5 17.35 28.5 15.5 23.8 15.4 19.05 15.35 19.05 16.6" fill="#bef0d8" fill-opacity="0.7058824" fill-rule="evenodd" stroke="none"/>
      <path d="M19.05 16.6 Q19.05 15.35 23.8 15.4 28.5 15.5 28.5 17.35 28.5 17.9 27.3 18.8 L20.45 18.7 19.5 17.75 Q19.05 17.05 19.05 16.6 M28.15 28.9 Q27.9 25.9 35.55 26.3 43.15 26.7 43.4 29.55 42.8 31.55 41.65 32.15 L37.8 32.45 Q34.15 32.5 30.85 30.95 28.2 29.5 28.15 28.9 M49.0 36.1 Q49.0 33.45 54.45 33.4 59.85 33.35 59.85 36.3 58.1 38.45 56.55 38.45 52.25 38.45 50.2 37.3 L49.0 36.1 M59.55 41.8 Q59.55 41.25 60.05 40.9 L63.55 40.7 Q63.3 42.3 62.85 42.55 L59.8 42.55 Q59.6 42.25 59.55 41.8 M62.15 34.55 Q63.65 31.45 69.9 31.55 75.95 31.7 75.95 33.6 73.1 35.85 69.05 35.85 L62.7 35.45 62.15 34.55 M76.45 38.95 L76.9 38.2 Q78.4 37.05 80.35 36.75 84.95 36.65 86.05 37.35 86.7 37.8 86.85 38.55 L86.9 39.05 86.75 39.8 86.35 40.15 85.7 40.35 82.0 40.45 79.5 40.25 Q78.15 39.95 77.0 39.65 L76.55 38.85 76.55 38.8 M86.4 37.15 L86.6 36.55 Q87.95 35.95 89.5 35.75 93.25 35.85 94.1 36.55 94.6 36.9 94.65 37.65 L94.65 38.1 94.45 38.65 94.15 38.95 93.65 39.1 90.6 39.05 88.5 38.7 Q87.35 38.35 86.6 37.95 L86.3 37.25 M100.55 30.2 Q100.55 27.5 104.0 27.3 L108.2 27.7 109.7 28.9 Q109.3 29.4 107.1 30.45 L104.95 31.45 101.65 31.35 Q100.55 30.55 100.55 30.2 M119.05 23.05 Q121.35 22.75 122.35 23.1 L123.1 25.3 Q120.25 25.55 119.5 24.5 119.05 23.8 119.05 23.05 Z" fill="none" stroke="#000000" stroke-linecap="round" stroke-linejoin="round" stroke-opacity="0.0" stroke-width="1.0"/>
    </g>
    <g id="morphshape2" transform="matrix(1.0, 0.0, 0.0, 1.0, -37.6, -4.7)">
      <path d="M103.15 15.95 Q103.15 17.1 103.4 17.5 L104.2 18.05 Q106.45 17.35 108.0 16.8 108.7 16.3 107.65 13.25 105.25 13.45 104.2 14.1 103.15 14.7 103.15 15.95 M90.95 20.55 Q90.95 21.6 91.55 22.2 L94.6 22.4 Q95.05 21.4 94.8 19.3 L91.05 19.2 90.95 20.55 M89.45 11.1 Q89.45 12.15 89.85 13.05 L95.8 13.05 Q96.85 12.0 96.85 8.5 92.15 8.05 90.5 8.9 89.45 9.5 89.45 11.1 M81.15 20.9 Q81.2 21.85 81.95 23.7 82.6 24.15 84.15 24.3 L84.95 23.1 Q85.45 22.4 84.75 20.6 L81.15 20.9 M77.75 8.9 Q77.35 10.8 78.15 12.3 79.15 14.05 81.4 14.05 82.55 14.05 83.75 12.3 82.9 9.9 81.25 9.25 L77.75 8.9 M65.95 12.75 L66.0 14.2 66.35 14.75 71.8 15.5 75.1 15.9 Q76.85 15.9 75.75 13.45 75.75 10.4 70.85 10.25 65.95 10.15 65.95 12.75 M55.95 14.35 L56.0 15.2 56.1 15.4 Q56.3 15.7 56.6 15.75 57.15 15.9 58.2 16.05 L60.55 15.55 Q60.8 14.35 60.7 12.6 60.2 11.45 59.75 10.6 58.75 10.2 57.75 10.4 56.0 11.4 56.0 14.35 M49.45 18.5 L49.45 18.55 49.55 19.55 49.85 19.9 Q50.25 20.05 50.7 20.1 L52.8 20.2 Q54.6 20.0 56.1 19.95 56.3 18.7 55.75 16.1 54.95 14.6 54.2 13.75 53.0 12.85 51.65 13.25 49.4 14.35 49.4 18.45 M38.65 11.35 L39.75 13.45 Q41.45 15.6 44.45 15.6 48.35 15.6 48.35 12.4 48.35 9.4 43.5 8.6 38.65 7.75 38.65 11.35" fill="#bef0d8" fill-opacity="0.7058824" fill-rule="evenodd" stroke="none"/>
      <path d="M38.65 11.35 Q38.65 7.75 43.5 8.6 48.35 9.4 48.35 12.4 48.35 15.6 44.45 15.6 41.45 15.6 39.75 13.45 L38.65 11.35 M49.4 18.45 Q49.4 14.35 51.65 13.25 53.0 12.85 54.2 13.75 54.95 14.6 55.75 16.1 56.3 18.7 56.1 19.95 54.6 20.0 52.8 20.2 L50.7 20.1 Q50.25 20.05 49.85 19.9 L49.55 19.55 49.45 18.55 49.45 18.5 M56.0 14.35 Q56.0 11.4 57.75 10.4 58.75 10.2 59.75 10.6 60.2 11.45 60.7 12.6 60.8 14.35 60.55 15.55 L58.2 16.05 Q57.15 15.9 56.6 15.75 56.3 15.7 56.1 15.4 L56.0 15.2 55.95 14.35 M65.95 12.75 Q65.95 10.15 70.85 10.25 75.75 10.4 75.75 13.45 76.85 15.9 75.1 15.9 L71.8 15.5 66.35 14.75 66.0 14.2 65.95 12.75 M77.75 8.9 L81.25 9.25 Q82.9 9.9 83.75 12.3 82.55 14.05 81.4 14.05 79.15 14.05 78.15 12.3 77.35 10.8 77.75 8.9 M81.15 20.9 L84.75 20.6 Q85.45 22.4 84.95 23.1 L84.15 24.3 Q82.6 24.15 81.95 23.7 81.2 21.85 81.15 20.9 M89.45 11.1 Q89.45 9.5 90.5 8.9 92.15 8.05 96.85 8.5 96.85 12.0 95.8 13.05 L89.85 13.05 Q89.45 12.15 89.45 11.1 M90.95 20.55 L91.05 19.2 94.8 19.3 Q95.05 21.4 94.6 22.4 L91.55 22.2 Q90.95 21.6 90.95 20.55 M103.15 15.95 Q103.15 14.7 104.2 14.1 105.25 13.45 107.65 13.25 108.7 16.3 108.0 16.8 106.45 17.35 104.2 18.05 L103.4 17.5 Q103.15 17.1 103.15 15.95 Z" fill="none" stroke="#000000" stroke-linecap="round" stroke-linejoin="round" stroke-opacity="0.0" stroke-width="1.0"/>
    </g>
    <g id="morphshape3" transform="matrix(1.0, 0.0, 0.0, 1.0, -32.35, -6.65)">
      <path d="M94.8 8.65 Q94.8 9.8 94.95 10.2 L95.4 10.95 97.4 10.95 97.9 10.45 98.05 9.25 97.8 7.75 Q97.5 7.3 94.95 7.25 94.8 6.9 94.8 8.65 M69.25 12.35 Q69.0 12.7 69.55 13.6 70.05 14.0 70.7 14.35 L73.45 14.7 Q73.95 14.25 73.95 13.55 73.75 13.1 69.8 11.9 L69.25 12.35 M66.15 32.05 L66.45 34.0 Q66.65 35.05 67.1 35.9 L70.6 35.9 Q70.85 35.65 71.1 35.45 L70.7 32.35 67.15 31.8 Q66.35 31.75 66.15 32.05 M41.5 13.7 L41.7 15.05 42.05 15.55 43.6 15.6 Q44.65 15.6 45.25 15.15 45.45 15.0 45.45 13.25 45.45 12.1 45.1 11.55 L44.4 10.9 41.6 12.0 41.5 13.7 M33.95 29.2 L34.2 30.2 Q34.55 31.0 35.0 31.3 39.1 30.75 39.1 28.35 39.1 27.25 38.75 26.95 L37.9 26.6 36.15 26.85 34.3 27.0 33.95 29.2" fill="#ffffff" fill-opacity="0.7058824" fill-rule="evenodd" stroke="none"/>
      <path d="M33.95 29.2 L34.3 27.0 36.15 26.85 37.9 26.6 38.75 26.95 Q39.1 27.25 39.1 28.35 39.1 30.75 35.0 31.3 34.55 31.0 34.2 30.2 L33.95 29.2 M41.5 13.7 L41.6 12.0 44.4 10.9 45.1 11.55 Q45.45 12.1 45.45 13.25 45.45 15.0 45.25 15.15 44.65 15.6 43.6 15.6 L42.05 15.55 41.7 15.05 41.5 13.7 M66.15 32.05 Q66.35 31.75 67.15 31.8 L70.7 32.35 71.1 35.45 Q70.85 35.65 70.6 35.9 L67.1 35.9 Q66.65 35.05 66.45 34.0 L66.15 32.05 M69.25 12.35 L69.8 11.9 Q73.75 13.1 73.95 13.55 73.95 14.25 73.45 14.7 L70.7 14.35 Q70.05 14.0 69.55 13.6 69.0 12.7 69.25 12.35 M94.8 8.65 Q94.8 6.9 94.95 7.25 97.5 7.3 97.8 7.75 L98.05 9.25 97.9 10.45 97.4 10.95 95.4 10.95 94.95 10.2 Q94.8 9.8 94.8 8.65 Z" fill="none" stroke="#000000" stroke-linecap="round" stroke-linejoin="round" stroke-opacity="0.0" stroke-width="1.0"/>
    </g>
  </defs>
</svg>
