<?xml version="1.0" encoding="UTF-8" standalone="no"?>
<svg xmlns:xlink="http://www.w3.org/1999/xlink" height="47.45px" width="141.0px" xmlns="http://www.w3.org/2000/svg">
  <g transform="matrix(1.0, 0.0, 0.0, 1.0, -4.35, -2.9)">
    <use data-characterId="3188" height="47.45" transform="matrix(1.0, 0.0, 0.0, 1.0, 4.35, 2.9)" width="141.0" xlink:href="#morphshape0"/>
    <use data-characterId="3189" height="37.5" transform="matrix(1.0, 0.0, 0.0, 1.0, 17.5, 9.15)" width="116.05" xlink:href="#morphshape1"/>
    <use data-characterId="3190" height="21.8" transform="matrix(1.0, 0.0, 0.0, 1.0, 37.6, 4.7)" width="75.1" xlink:href="#morphshape2"/>
    <use data-characterId="3191" height="35.65" transform="matrix(1.0, 0.0, 0.0, 1.0, 32.35, 6.65)" width="66.65" xlink:href="#morphshape3"/>
  </g>
  <defs>
    <g id="morphshape0" transform="matrix(1.0, 0.0, 0.0, 1.0, -4.35, -2.9)">
      <path d="M4.9 16.5 Q4.0 18.1 14.0 19.65 24.0 21.2 35.95 21.85 48.0 22.45 29.2 23.25 10.4 24.05 23.75 25.9 37.15 27.75 28.6 28.35 20.0 28.9 14.05 30.75 8.1 32.55 13.25 32.95 18.4 33.35 19.9 33.9 21.4 34.45 23.5 34.6 L37.3 35.15 Q30.05 36.6 29.8 37.2 14.55 40.85 35.7 40.3 39.9 40.4 54.95 38.25 43.05 41.75 43.2 42.75 43.35 43.75 51.7 44.3 61.7 44.7 71.65 45.1 83.25 45.4 73.7 47.85 64.05 50.3 66.3 50.3 70.95 50.35 75.55 50.4 L92.65 50.05 Q102.65 49.65 105.5 48.4 108.4 47.1 106.15 46.2 103.85 45.3 107.5 42.3 109.05 41.05 98.6 38.55 122.7 38.35 126.25 36.35 129.85 34.45 123.05 34.0 119.6 33.75 116.05 33.5 126.15 31.85 126.9 31.0 127.6 30.1 123.1 29.15 118.55 28.2 111.55 28.0 104.6 27.8 120.45 26.8 136.35 25.8 142.65 23.85 148.95 21.9 139.75 20.15 130.6 18.4 124.9 18.45 L122.6 18.55 122.45 18.55 Q122.15 18.35 121.75 18.15 136.5 16.55 130.4 15.2 124.3 13.8 116.15 13.6 116.15 13.5 116.0 13.45 107.45 9.0 101.7 5.95 96.0 2.9 69.7 2.95 50.55 3.0 26.5 6.75 2.4 10.4 6.05 11.6 9.7 12.75 26.85 13.75 44.0 14.7 36.6 14.9 29.1 15.0 21.65 15.1 L13.7 15.3 4.9 16.35 Q4.85 16.35 4.85 16.35" fill="#96e0bc" fill-opacity="0.7058824" fill-rule="evenodd" stroke="none"/>
      <path d="M4.85 16.35 Q4.85 16.35 4.9 16.35 L13.7 15.3 21.65 15.1 Q29.1 15.0 36.6 14.9 44.0 14.7 26.85 13.75 9.7 12.75 6.05 11.6 2.4 10.4 26.5 6.75 50.55 3.0 69.7 2.95 96.0 2.9 101.7 5.95 107.45 9.0 116.0 13.45 116.15 13.5 116.15 13.6 124.3 13.8 130.4 15.2 136.5 16.55 121.75 18.15 122.15 18.35 122.45 18.55 L122.6 18.55 124.9 18.45 Q130.6 18.4 139.75 20.15 148.95 21.9 142.65 23.85 136.35 25.8 120.45 26.8 104.6 27.8 111.55 28.0 118.55 28.2 123.1 29.15 127.6 30.1 126.9 31.0 126.15 31.85 116.05 33.5 119.6 33.75 123.05 34.0 129.85 34.45 126.25 36.35 122.7 38.35 98.6 38.55 109.05 41.05 107.5 42.3 103.85 45.3 106.15 46.2 108.4 47.1 105.5 48.4 102.65 49.65 92.65 50.05 L75.55 50.4 Q70.95 50.35 66.3 50.3 64.05 50.3 73.7 47.85 83.25 45.4 71.65 45.1 61.7 44.7 51.7 44.3 43.35 43.75 43.2 42.75 43.05 41.75 54.95 38.25 39.9 40.4 35.7 40.3 14.55 40.85 29.8 37.2 30.05 36.6 37.3 35.15 L23.5 34.6 Q21.4 34.45 19.9 33.9 18.4 33.35 13.25 32.95 8.1 32.55 14.05 30.75 20.0 28.9 28.6 28.35 37.15 27.75 23.75 25.9 10.4 24.05 29.2 23.25 48.0 22.45 35.95 21.85 24.0 21.2 14.0 19.65 4.0 18.1 4.9 16.5" fill="none" stroke="#000000" stroke-linecap="round" stroke-linejoin="round" stroke-opacity="0.0" stroke-width="1.0"/>
    </g>
    <g id="morphshape1" transform="matrix(1.0, 0.0, 0.0, 1.0, -17.5, -9.15)">
      <path d="M129.3 21.7 Q129.3 22.45 129.75 23.15 130.5 24.2 133.35 23.95 L132.6 21.75 Q131.6 21.4 129.3 21.7 M103.0 33.95 Q103.0 34.3 104.1 35.1 L107.4 35.2 109.55 34.2 Q111.75 33.15 112.15 32.65 L110.65 31.45 106.45 31.05 Q103.0 31.25 103.0 33.95 M90.05 45.15 L90.6 46.05 Q92.1 46.25 93.55 46.45 L96.4 46.5 100.6 46.25 101.4 46.0 101.9 45.55 102.05 44.7 102.0 44.2 Q101.8 43.4 101.0 42.9 99.7 42.15 94.45 42.35 92.25 42.7 90.65 44.3 L90.05 45.15 M79.5 31.25 L79.5 31.35 79.7 31.85 Q80.1 32.35 81.15 32.8 L82.9 33.3 85.45 33.5 85.8 33.4 86.0 33.2 86.2 32.75 86.2 32.3 Q86.2 31.6 85.85 31.3 85.2 30.65 82.1 30.45 80.8 30.6 79.55 30.75 L79.5 31.25 M61.25 41.05 L61.8 41.95 68.15 42.35 Q72.2 42.35 75.05 40.1 75.05 38.2 69.0 38.05 62.75 37.95 61.25 41.05 M54.4 40.7 Q54.55 41.1 54.65 41.45 L57.7 41.45 Q58.15 41.2 58.4 39.6 L54.9 39.8 Q54.4 40.15 54.4 40.7 M49.0 33.9 L50.2 35.1 Q52.25 36.25 56.55 36.25 58.1 36.25 59.85 34.1 59.85 31.15 54.45 31.2 49.0 31.25 49.0 33.9 M32.0 30.3 Q32.2 30.85 35.05 31.8 38.65 32.0 42.25 32.1 L46.0 31.1 Q47.0 30.25 47.25 28.15 46.5 25.35 38.9 26.35 31.25 27.3 32.0 30.25 M22.6 10.5 Q22.6 10.95 23.05 11.65 L24.0 12.6 30.85 12.7 Q32.05 11.8 32.05 11.25 32.05 9.4 27.35 9.3 22.6 9.25 22.6 10.5" fill="#bef0d8" fill-opacity="0.7058824" fill-rule="evenodd" stroke="none"/>
      <path d="M22.6 10.5 Q22.6 9.25 27.35 9.3 32.05 9.4 32.05 11.25 32.05 11.8 30.85 12.7 L24.0 12.6 23.05 11.65 Q22.6 10.95 22.6 10.5 M32.0 30.25 Q31.25 27.3 38.9 26.35 46.5 25.35 47.25 28.15 47.0 30.25 46.0 31.1 L42.25 32.1 Q38.65 32.0 35.05 31.8 32.2 30.85 32.0 30.3 M49.0 33.9 Q49.0 31.25 54.45 31.2 59.85 31.15 59.85 34.1 58.1 36.25 56.55 36.25 52.25 36.25 50.2 35.1 L49.0 33.9 M54.4 40.7 Q54.4 40.15 54.9 39.8 L58.4 39.6 Q58.15 41.2 57.7 41.45 L54.65 41.45 Q54.55 41.1 54.4 40.7 M61.25 41.05 Q62.75 37.95 69.0 38.05 75.05 38.2 75.05 40.1 72.2 42.35 68.15 42.35 L61.8 41.95 61.25 41.05 M79.5 31.25 L79.55 30.75 Q80.8 30.6 82.1 30.45 85.2 30.65 85.85 31.3 86.2 31.6 86.2 32.3 L86.2 32.75 86.0 33.2 85.8 33.4 85.45 33.5 82.9 33.3 81.15 32.8 Q80.1 32.35 79.7 31.85 L79.5 31.35 79.5 31.25 M90.05 45.15 L90.65 44.3 Q92.25 42.7 94.45 42.35 99.7 42.15 101.0 42.9 101.8 43.4 102.0 44.2 L102.05 44.7 101.9 45.55 101.4 46.0 100.6 46.25 96.4 46.5 93.55 46.45 Q92.1 46.25 90.6 46.05 L90.05 45.15 M103.0 33.95 Q103.0 31.25 106.45 31.05 L110.65 31.45 112.15 32.65 Q111.75 33.15 109.55 34.2 L107.4 35.2 104.1 35.1 Q103.0 34.3 103.0 33.95 M129.3 21.7 Q131.6 21.4 132.6 21.75 L133.35 23.95 Q130.5 24.2 129.75 23.15 129.3 22.45 129.3 21.7 Z" fill="none" stroke="#000000" stroke-linecap="round" stroke-linejoin="round" stroke-opacity="0.0" stroke-width="1.0"/>
    </g>
    <g id="morphshape2" transform="matrix(1.0, 0.0, 0.0, 1.0, -37.6, -4.7)">
      <path d="M107.45 19.2 Q107.45 20.35 107.7 20.75 L108.5 21.3 Q111.6 20.5 112.3 20.05 113.0 19.55 111.95 16.5 109.55 16.7 108.5 17.35 107.45 17.95 107.45 19.2 M94.2 16.6 Q94.2 17.65 94.8 18.25 L97.85 18.45 Q98.3 17.45 98.05 15.35 L94.3 15.25 94.2 16.6 M93.0 9.0 Q93.0 10.05 93.4 10.95 L99.35 10.95 Q100.4 9.9 100.4 6.4 95.7 5.95 94.05 6.8 93.0 7.4 93.0 9.0 M84.7 16.05 Q84.75 17.0 85.5 18.85 86.15 19.3 87.7 19.45 L88.5 18.25 Q89.0 17.55 88.3 15.75 L84.7 16.05 M75.45 14.95 Q75.05 16.85 75.85 18.35 76.85 20.1 79.1 20.1 80.25 20.1 81.45 18.35 80.6 15.95 78.95 15.3 L75.45 14.95 M63.9 9.2 L63.95 10.65 64.3 11.2 69.75 11.95 73.05 12.35 Q74.8 12.35 73.7 9.9 73.7 6.85 68.8 6.7 63.9 6.6 63.9 9.2 M56.25 23.0 L56.35 24.25 56.75 24.7 Q57.3 24.7 57.85 24.7 59.1 24.7 60.35 24.7 L64.4 24.7 Q64.6 23.4 63.75 20.2 62.75 18.45 61.8 17.6 60.4 16.3 58.8 16.9 56.2 18.1 56.2 23.0 M52.6 7.9 L52.6 8.1 52.65 8.6 52.65 8.7 Q52.7 9.15 52.9 9.25 L54.1 9.65 Q55.4 9.0 55.7 8.9 55.95 7.75 56.15 6.6 55.85 5.7 55.6 4.85 54.8 4.85 54.05 4.85 52.65 5.75 52.65 7.9 M41.0 14.05 L42.1 16.15 Q43.8 18.3 46.8 18.3 50.7 18.3 50.7 15.1 50.7 12.1 45.85 11.3 41.0 10.45 41.0 14.05" fill="#bef0d8" fill-opacity="0.7058824" fill-rule="evenodd" stroke="none"/>
      <path d="M41.0 14.05 Q41.0 10.45 45.85 11.3 50.7 12.1 50.7 15.1 50.7 18.3 46.8 18.3 43.8 18.3 42.1 16.15 L41.0 14.05 M52.65 7.9 Q52.65 5.75 54.05 4.85 54.8 4.85 55.6 4.85 55.85 5.7 56.15 6.6 55.95 7.75 55.7 8.9 55.4 9.0 54.1 9.65 L52.9 9.25 Q52.7 9.15 52.65 8.7 L52.65 8.6 52.6 8.1 52.6 7.9 M56.2 23.0 Q56.2 18.1 58.8 16.9 60.4 16.3 61.8 17.6 62.75 18.45 63.75 20.2 64.6 23.4 64.4 24.7 L60.35 24.7 Q59.1 24.7 57.85 24.7 57.3 24.7 56.75 24.7 L56.35 24.25 56.25 23.0 M63.9 9.2 Q63.9 6.6 68.8 6.7 73.7 6.85 73.7 9.9 74.8 12.35 73.05 12.35 L69.75 11.95 64.3 11.2 63.95 10.65 63.9 9.2 M75.45 14.95 L78.95 15.3 Q80.6 15.95 81.45 18.35 80.25 20.1 79.1 20.1 76.85 20.1 75.85 18.35 75.05 16.85 75.45 14.95 M84.7 16.05 L88.3 15.75 Q89.0 17.55 88.5 18.25 L87.7 19.45 Q86.15 19.3 85.5 18.85 84.75 17.0 84.7 16.05 M93.0 9.0 Q93.0 7.4 94.05 6.8 95.7 5.95 100.4 6.4 100.4 9.9 99.35 10.95 L93.4 10.95 Q93.0 10.05 93.0 9.0 M94.2 16.6 L94.3 15.25 98.05 15.35 Q98.3 17.45 97.85 18.45 L94.8 18.25 Q94.2 17.65 94.2 16.6 M107.45 19.2 Q107.45 17.95 108.5 17.35 109.55 16.7 111.95 16.5 113.0 19.55 112.3 20.05 111.6 20.5 108.5 21.3 L107.7 20.75 Q107.45 20.35 107.45 19.2 Z" fill="none" stroke="#000000" stroke-linecap="round" stroke-linejoin="round" stroke-opacity="0.0" stroke-width="1.0"/>
    </g>
    <g id="morphshape3" transform="matrix(1.0, 0.0, 0.0, 1.0, -32.35, -6.65)">
      <path d="M95.75 8.1 Q95.75 9.25 95.9 9.65 L96.35 10.4 98.35 10.4 98.85 9.9 99.0 8.7 98.75 7.2 Q98.45 6.75 95.9 6.7 95.75 6.35 95.75 8.1 M68.45 9.05 Q68.2 9.4 68.75 10.3 69.0 10.75 69.9 11.05 L72.65 11.4 Q73.15 10.95 73.15 10.25 72.95 9.8 69.0 8.6 L68.45 9.05 M65.75 38.3 L66.05 40.25 Q66.25 41.3 66.7 42.15 L70.2 42.15 Q70.4 41.85 70.7 41.7 L70.3 38.6 66.75 38.05 Q65.95 38.0 65.75 38.3 M44.6 15.3 L44.8 16.65 45.15 17.15 46.7 17.2 Q47.75 17.2 48.35 16.75 48.55 16.6 48.55 14.85 48.55 13.7 48.2 13.15 L47.5 12.5 44.7 13.6 44.6 15.3 M37.45 29.2 L37.7 30.2 Q38.05 31.0 38.5 31.3 42.6 30.75 42.6 28.35 42.6 27.25 42.25 26.95 L41.4 26.6 39.65 26.85 37.8 27.0 37.45 29.2" fill="#ffffff" fill-opacity="0.7058824" fill-rule="evenodd" stroke="none"/>
      <path d="M37.45 29.2 L37.8 27.0 39.65 26.85 41.4 26.6 42.25 26.95 Q42.6 27.25 42.6 28.35 42.6 30.75 38.5 31.3 38.05 31.0 37.7 30.2 L37.45 29.2 M44.6 15.3 L44.7 13.6 47.5 12.5 48.2 13.15 Q48.55 13.7 48.55 14.85 48.55 16.6 48.35 16.75 47.75 17.2 46.7 17.2 L45.15 17.15 44.8 16.65 44.6 15.3 M65.75 38.3 Q65.95 38.0 66.75 38.05 L70.3 38.6 70.7 41.7 Q70.4 41.85 70.2 42.15 L66.7 42.15 Q66.25 41.3 66.05 40.25 L65.75 38.3 M68.45 9.05 L69.0 8.6 Q72.95 9.8 73.15 10.25 73.15 10.95 72.65 11.4 L69.9 11.05 Q69.0 10.75 68.75 10.3 68.2 9.4 68.45 9.05 M95.75 8.1 Q95.75 6.35 95.9 6.7 98.45 6.75 98.75 7.2 L99.0 8.7 98.85 9.9 98.35 10.4 96.35 10.4 95.9 9.65 Q95.75 9.25 95.75 8.1 Z" fill="none" stroke="#000000" stroke-linecap="round" stroke-linejoin="round" stroke-opacity="0.0" stroke-width="1.0"/>
    </g>
  </defs>
</svg>
