<?xml version="1.0" encoding="UTF-8" standalone="no"?>
<svg xmlns:xlink="http://www.w3.org/1999/xlink" height="47.45px" width="141.0px" xmlns="http://www.w3.org/2000/svg">
  <g transform="matrix(1.0, 0.0, 0.0, 1.0, -4.35, -2.9)">
    <use data-characterId="3192" height="47.45" transform="matrix(1.0, 0.0, 0.0, 1.0, 4.35, 2.9)" width="141.0" xlink:href="#morphshape0"/>
    <use data-characterId="3193" height="37.5" transform="matrix(1.0, 0.0, 0.0, 1.0, 17.5, 9.15)" width="116.05" xlink:href="#morphshape1"/>
    <use data-characterId="3194" height="21.8" transform="matrix(1.0, 0.0, 0.0, 1.0, 37.6, 4.7)" width="75.1" xlink:href="#morphshape2"/>
    <use data-characterId="3195" height="35.65" transform="matrix(1.0, 0.0, 0.0, 1.0, 32.35, 6.65)" width="66.65" xlink:href="#morphshape3"/>
  </g>
  <defs>
    <g id="morphshape0" transform="matrix(1.0, 0.0, 0.0, 1.0, -4.35, -2.9)">
      <path d="M4.7 17.6 Q4.45 19.15 11.4 20.35 18.4 21.45 26.6 22.0 36.65 22.75 25.75 24.25 14.6 25.0 21.8 26.6 29.35 27.95 24.15 28.7 18.95 29.35 15.55 30.8 12.3 32.6 15.95 33.1 19.4 33.55 21.15 33.95 23.75 34.35 25.95 34.9 L34.1 35.75 Q29.55 37.5 31.95 38.25 24.5 40.5 38.85 40.2 41.0 40.75 50.0 39.85 42.9 42.4 44.5 43.6 46.3 44.85 52.95 45.2 59.7 45.45 67.0 46.4 75.25 47.25 70.65 48.75 65.6 50.25 68.95 49.6 73.85 48.95 78.0 48.9 L91.15 48.3 Q98.5 47.9 101.55 47.0 106.35 46.35 106.5 44.6 105.75 43.55 108.2 41.15 111.6 40.15 105.95 38.25 121.9 37.05 122.2 35.3 124.2 34.1 120.0 33.8 122.05 33.0 120.25 32.5 126.6 31.15 125.95 30.25 125.7 29.45 122.35 28.65 119.4 28.0 117.75 27.45 116.1 26.9 126.15 25.35 136.25 23.8 138.9 22.1 141.5 20.4 133.7 19.35 127.75 18.3 123.9 18.35 L122.45 18.4 122.05 18.3 Q123.65 17.35 122.05 16.5 129.55 15.45 124.55 14.55 120.9 13.7 116.05 13.6 116.6 11.75 112.85 10.65 103.05 6.6 89.0 4.75 77.9 2.9 54.25 4.25 35.2 5.5 21.25 8.85 6.95 11.3 9.3 12.25 11.65 13.15 22.05 13.95 32.4 14.65 27.7 14.9 23.05 15.0 18.5 15.15 L10.15 15.7 4.85 16.3 Q4.45 16.95 4.8 17.65" fill="#96e0bc" fill-opacity="0.7058824" fill-rule="evenodd" stroke="none"/>
      <path d="M4.8 17.65 Q4.45 16.95 4.85 16.3 L10.15 15.7 18.5 15.15 Q23.05 15.0 27.7 14.9 32.4 14.65 22.05 13.95 11.65 13.15 9.3 12.25 6.95 11.3 21.25 8.85 35.2 5.5 54.25 4.25 77.9 2.9 89.0 4.75 103.05 6.6 112.85 10.65 116.6 11.75 116.05 13.6 120.9 13.7 124.55 14.55 129.55 15.45 122.05 16.5 123.65 17.35 122.05 18.3 L122.45 18.4 123.9 18.35 Q127.75 18.3 133.7 19.35 141.5 20.4 138.9 22.1 136.25 23.8 126.15 25.35 116.1 26.9 117.75 27.45 119.4 28.0 122.35 28.65 125.7 29.45 125.95 30.25 126.6 31.15 120.25 32.5 122.05 33.0 120.0 33.8 124.2 34.1 122.2 35.3 121.9 37.05 105.95 38.25 111.6 40.15 108.2 41.15 105.75 43.55 106.5 44.6 106.35 46.35 101.55 47.0 98.5 47.9 91.15 48.3 L78.0 48.9 Q73.85 48.95 68.95 49.6 65.6 50.25 70.65 48.75 75.25 47.25 67.0 46.4 59.7 45.45 52.95 45.2 46.3 44.85 44.5 43.6 42.9 42.4 50.0 39.85 41.0 40.75 38.85 40.2 24.5 40.5 31.95 38.25 29.55 37.5 34.1 35.75 L25.95 34.9 Q23.75 34.35 21.15 33.95 19.4 33.55 15.95 33.1 12.3 32.6 15.55 30.8 18.95 29.35 24.15 28.7 29.35 27.95 21.8 26.6 14.6 25.0 25.75 24.25 36.65 22.75 26.6 22.0 18.4 21.45 11.4 20.35 4.45 19.15 4.7 17.6" fill="none" stroke="#000000" stroke-linecap="round" stroke-linejoin="round" stroke-opacity="0.0" stroke-width="1.0"/>
    </g>
    <g id="morphshape1" transform="matrix(1.0, 0.0, 0.0, 1.0, -17.5, -9.15)">
      <path d="M123.35 22.45 Q123.35 23.2 123.8 23.9 124.55 24.95 127.4 24.7 L126.65 22.5 Q125.65 22.15 123.35 22.45 M101.6 31.8 Q101.6 32.15 102.7 32.95 L106.0 33.05 108.15 32.05 Q110.35 31.0 110.75 30.5 L109.25 29.3 105.05 28.9 Q101.6 29.1 101.6 31.8 M87.95 40.5 L87.95 40.55 88.35 41.3 Q89.4 41.6 90.7 41.9 L93.1 42.15 96.65 42.1 97.25 41.9 97.65 41.55 97.8 40.85 97.75 40.35 Q97.65 39.6 97.05 39.2 96.0 38.5 91.6 38.55 89.75 38.8 88.3 39.8 L87.95 40.5 M77.75 35.75 L78.1 36.45 Q78.95 36.85 80.15 37.2 L82.35 37.5 85.55 37.5 86.1 37.35 86.4 37.05 86.6 36.45 86.6 36.0 Q86.5 35.25 85.95 34.85 85.05 34.15 81.1 34.1 79.45 34.35 78.05 35.1 L77.75 35.75 M61.8 37.3 L62.35 38.2 68.7 38.6 Q72.75 38.6 75.6 36.35 75.6 34.45 69.55 34.3 63.3 34.2 61.8 37.3 M57.4 41.35 Q57.5 41.8 57.65 42.1 L60.7 42.1 Q61.15 41.85 61.4 40.25 L57.9 40.45 Q57.4 40.8 57.4 41.35 M49.0 35.15 L50.2 36.35 Q52.25 37.5 56.55 37.5 58.1 37.5 59.85 35.35 59.85 32.4 54.45 32.45 49.0 32.5 49.0 35.15 M29.75 29.55 Q29.85 30.1 32.6 31.35 36.05 32.3 39.65 32.3 L43.45 31.7 Q44.55 31.0 45.0 28.95 44.55 26.1 36.95 26.3 29.3 26.5 29.75 29.5 M20.55 14.0 Q20.55 14.45 21.0 15.15 L21.95 16.1 28.8 16.2 Q30.0 15.3 30.0 14.75 30.0 12.9 25.3 12.8 20.55 12.75 20.55 14.0" fill="#bef0d8" fill-opacity="0.7058824" fill-rule="evenodd" stroke="none"/>
      <path d="M20.55 14.0 Q20.55 12.75 25.3 12.8 30.0 12.9 30.0 14.75 30.0 15.3 28.8 16.2 L21.95 16.1 21.0 15.15 Q20.55 14.45 20.55 14.0 M29.75 29.5 Q29.3 26.5 36.95 26.3 44.55 26.1 45.0 28.95 44.55 31.0 43.45 31.7 L39.65 32.3 Q36.05 32.3 32.6 31.35 29.85 30.1 29.75 29.55 M49.0 35.15 Q49.0 32.5 54.45 32.45 59.85 32.4 59.85 35.35 58.1 37.5 56.55 37.5 52.25 37.5 50.2 36.35 L49.0 35.15 M57.4 41.35 Q57.4 40.8 57.9 40.45 L61.4 40.25 Q61.15 41.85 60.7 42.1 L57.65 42.1 Q57.5 41.8 57.4 41.35 M61.8 37.3 Q63.3 34.2 69.55 34.3 75.6 34.45 75.6 36.35 72.75 38.6 68.7 38.6 L62.35 38.2 61.8 37.3 M77.75 35.75 L78.05 35.1 Q79.45 34.35 81.1 34.1 85.05 34.15 85.95 34.85 86.5 35.25 86.6 36.0 L86.6 36.45 86.4 37.05 86.1 37.35 85.55 37.5 82.35 37.5 80.15 37.2 Q78.95 36.85 78.1 36.45 L77.75 35.75 M87.95 40.5 L88.3 39.8 Q89.75 38.8 91.6 38.55 96.0 38.5 97.05 39.2 97.65 39.6 97.75 40.35 L97.8 40.85 97.65 41.55 97.25 41.9 96.65 42.1 93.1 42.15 90.7 41.9 Q89.4 41.6 88.35 41.3 L87.95 40.55 87.95 40.5 M101.6 31.8 Q101.6 29.1 105.05 28.9 L109.25 29.3 110.75 30.5 Q110.35 31.0 108.15 32.05 L106.0 33.05 102.7 32.95 Q101.6 32.15 101.6 31.8 M123.35 22.45 Q125.65 22.15 126.65 22.5 L127.4 24.7 Q124.55 24.95 123.8 23.9 123.35 23.2 123.35 22.45 Z" fill="none" stroke="#000000" stroke-linecap="round" stroke-linejoin="round" stroke-opacity="0.0" stroke-width="1.0"/>
    </g>
    <g id="morphshape2" transform="matrix(1.0, 0.0, 0.0, 1.0, -37.6, -4.7)">
      <path d="M104.95 17.3 Q104.95 18.45 105.2 18.85 L106.0 19.4 Q108.6 18.65 109.8 18.15 110.5 17.65 109.45 14.6 107.05 14.8 106.0 15.45 104.95 16.05 104.95 17.3 M92.3 18.9 Q92.3 19.95 92.9 20.55 L95.95 20.75 Q96.4 19.75 96.15 17.65 L92.4 17.55 92.3 18.9 M90.95 10.2 Q90.95 11.25 91.35 12.15 L97.3 12.15 Q98.35 11.1 98.35 7.6 93.65 7.15 92.0 8.0 90.95 8.6 90.95 10.2 M82.65 18.9 Q82.7 19.85 83.45 21.7 84.1 22.15 85.65 22.3 L86.45 21.1 Q86.95 20.4 86.25 18.6 L82.65 18.9 M76.75 11.45 Q76.35 13.35 77.15 14.85 78.15 16.6 80.4 16.6 81.55 16.6 82.75 14.85 81.9 12.45 80.25 11.8 L76.75 11.45 M65.1 11.25 L65.15 12.7 65.5 13.25 70.95 14.0 74.25 14.4 Q76.0 14.4 74.9 11.95 74.9 8.9 70.0 8.75 65.1 8.65 65.1 11.25 M56.0 17.85 L56.0 17.95 56.1 18.9 56.35 19.2 Q56.7 19.4 57.1 19.45 57.95 19.55 59.1 19.65 L62.15 19.35 Q62.35 18.1 61.95 15.75 61.25 14.35 60.6 13.5 59.45 12.75 58.2 13.1 56.1 14.2 56.1 18.0 M50.8 14.1 L50.85 15.05 51.0 15.3 Q51.25 15.55 51.6 15.6 L53.35 15.85 Q54.95 15.45 55.95 15.4 56.2 14.2 55.95 12.2 55.35 10.95 54.8 10.1 53.75 9.55 52.65 9.8 50.75 10.8 50.75 14.05 M39.65 12.5 L40.75 14.6 Q42.45 16.75 45.45 16.75 49.35 16.75 49.35 13.55 49.35 10.55 44.5 9.75 39.65 8.9 39.65 12.5" fill="#bef0d8" fill-opacity="0.7058824" fill-rule="evenodd" stroke="none"/>
      <path d="M39.65 12.5 Q39.65 8.9 44.5 9.75 49.35 10.55 49.35 13.55 49.35 16.75 45.45 16.75 42.45 16.75 40.75 14.6 L39.65 12.5 M50.75 14.05 Q50.75 10.8 52.65 9.8 53.75 9.55 54.8 10.1 55.35 10.95 55.95 12.2 56.2 14.2 55.95 15.4 54.95 15.45 53.35 15.85 L51.6 15.6 Q51.25 15.55 51.0 15.3 L50.85 15.05 50.8 14.1 M56.1 18.0 Q56.1 14.2 58.2 13.1 59.45 12.75 60.6 13.5 61.25 14.35 61.95 15.75 62.35 18.1 62.15 19.35 L59.1 19.65 Q57.95 19.55 57.1 19.45 56.7 19.4 56.35 19.2 L56.1 18.9 56.0 17.95 56.0 17.85 M65.1 11.25 Q65.1 8.65 70.0 8.75 74.9 8.9 74.9 11.95 76.0 14.4 74.25 14.4 L70.95 14.0 65.5 13.25 65.15 12.7 65.1 11.25 M76.75 11.45 L80.25 11.8 Q81.9 12.45 82.75 14.85 81.55 16.6 80.4 16.6 78.15 16.6 77.15 14.85 76.35 13.35 76.75 11.45 M82.65 18.9 L86.25 18.6 Q86.95 20.4 86.45 21.1 L85.65 22.3 Q84.1 22.15 83.45 21.7 82.7 19.85 82.65 18.9 M90.95 10.2 Q90.95 8.6 92.0 8.0 93.65 7.15 98.35 7.6 98.35 11.1 97.3 12.15 L91.35 12.15 Q90.95 11.25 90.95 10.2 M92.3 18.9 L92.4 17.55 96.15 17.65 Q96.4 19.75 95.95 20.75 L92.9 20.55 Q92.3 19.95 92.3 18.9 M104.95 17.3 Q104.95 16.05 106.0 15.45 107.05 14.8 109.45 14.6 110.5 17.65 109.8 18.15 108.6 18.65 106.0 19.4 L105.2 18.85 Q104.95 18.45 104.95 17.3 Z" fill="none" stroke="#000000" stroke-linecap="round" stroke-linejoin="round" stroke-opacity="0.0" stroke-width="1.0"/>
    </g>
    <g id="morphshape3" transform="matrix(1.0, 0.0, 0.0, 1.0, -32.35, -6.65)">
      <path d="M93.4 9.25 Q93.4 10.4 93.55 10.8 L94.0 11.55 96.0 11.55 96.5 11.05 96.65 9.85 96.4 8.35 Q96.1 7.9 93.55 7.85 93.4 7.5 93.4 9.25 M68.85 11.2 Q68.7 11.6 69.4 12.35 69.85 12.65 70.65 12.85 71.95 12.9 73.3 12.65 73.7 12.1 73.55 11.4 72.5 11.3 69.25 10.7 L68.85 11.25 M66.0 34.2 L66.3 36.15 Q66.5 37.2 66.95 38.05 L70.45 38.05 Q70.65 37.75 70.95 37.6 L70.55 34.5 67.0 33.95 Q66.2 33.9 66.0 34.2 M42.8 14.35 L43.0 15.7 43.35 16.2 44.9 16.25 Q45.95 16.25 46.55 15.8 46.75 15.65 46.75 13.9 46.75 12.75 46.4 12.2 L45.7 11.55 42.9 12.65 42.8 14.35 M35.4 29.2 L35.65 30.2 Q36.0 31.0 36.45 31.3 40.55 30.75 40.55 28.35 40.55 27.25 40.2 26.95 L39.35 26.6 37.6 26.85 35.75 27.0 35.4 29.2" fill="#ffffff" fill-opacity="0.7058824" fill-rule="evenodd" stroke="none"/>
      <path d="M35.4 29.2 L35.75 27.0 37.6 26.85 39.35 26.6 40.2 26.95 Q40.55 27.25 40.55 28.35 40.55 30.75 36.45 31.3 36.0 31.0 35.65 30.2 L35.4 29.2 M42.8 14.35 L42.9 12.65 45.7 11.55 46.4 12.2 Q46.75 12.75 46.75 13.9 46.75 15.65 46.55 15.8 45.95 16.25 44.9 16.25 L43.35 16.2 43.0 15.7 42.8 14.35 M66.0 34.2 Q66.2 33.9 67.0 33.95 L70.55 34.5 70.95 37.6 Q70.65 37.75 70.45 38.05 L66.95 38.05 Q66.5 37.2 66.3 36.15 L66.0 34.2 M68.85 11.25 L69.25 10.7 Q72.5 11.3 73.55 11.4 73.7 12.1 73.3 12.65 71.95 12.9 70.65 12.85 69.85 12.65 69.4 12.35 68.7 11.6 68.85 11.2 M93.4 9.25 Q93.4 7.5 93.55 7.85 96.1 7.9 96.4 8.35 L96.65 9.85 96.5 11.05 96.0 11.55 94.0 11.55 93.55 10.8 Q93.4 10.4 93.4 9.25 Z" fill="none" stroke="#000000" stroke-linecap="round" stroke-linejoin="round" stroke-opacity="0.0" stroke-width="1.0"/>
    </g>
  </defs>
</svg>
