<?xml version="1.0" encoding="UTF-8" standalone="no"?>
<svg xmlns:xlink="http://www.w3.org/1999/xlink" height="47.45px" width="141.0px" xmlns="http://www.w3.org/2000/svg">
  <g transform="matrix(1.0, 0.0, 0.0, 1.0, -4.35, -2.9)">
    <use data-characterId="3192" height="47.45" transform="matrix(1.0, 0.0, 0.0, 1.0, 4.35, 2.9)" width="141.0" xlink:href="#morphshape0"/>
    <use data-characterId="3193" height="37.5" transform="matrix(1.0, 0.0, 0.0, 1.0, 17.5, 9.15)" width="116.05" xlink:href="#morphshape1"/>
    <use data-characterId="3194" height="21.8" transform="matrix(1.0, 0.0, 0.0, 1.0, 37.6, 4.7)" width="75.1" xlink:href="#morphshape2"/>
    <use data-characterId="3195" height="35.65" transform="matrix(1.0, 0.0, 0.0, 1.0, 32.35, 6.65)" width="66.65" xlink:href="#morphshape3"/>
  </g>
  <defs>
    <g id="morphshape0" transform="matrix(1.0, 0.0, 0.0, 1.0, -4.35, -2.9)">
      <path d="M4.7 17.5 Q4.55 19.05 11.05 20.2 17.6 21.25 25.2 21.8 34.95 22.55 25.25 24.15 15.25 24.9 21.5 26.5 28.15 27.8 23.45 28.6 18.75 29.25 15.75 30.65 12.9 32.45 16.35 33.0 19.55 33.45 21.35 33.8 24.1 34.2 26.3 34.8 L33.6 35.7 Q29.45 37.5 32.25 38.3 26.0 40.3 39.3 40.05 41.15 40.7 49.25 40.0 42.85 42.4 44.7 43.65 46.75 44.95 53.15 45.25 59.4 45.45 66.3 46.45 74.05 47.4 70.2 48.75 65.85 50.1 69.4 49.35 74.35 48.6 78.45 48.55 L91.0 47.9 Q97.95 47.5 101.0 46.65 106.1 46.1 106.6 44.25 106.05 43.2 108.3 40.9 111.95 39.9 107.0 38.1 121.7 36.75 121.5 35.05 123.25 33.95 119.45 33.65 122.35 32.75 120.8 32.2 126.6 30.9 125.75 30.0 125.35 29.25 122.15 28.5 119.45 27.9 118.6 27.3 117.75 26.7 126.9 25.1 136.1 23.5 138.2 21.85 140.25 20.15 132.65 19.2 127.2 18.25 123.6 18.3 L122.3 18.35 121.9 18.2 Q123.8 17.15 122.0 16.2 128.4 15.2 123.6 14.35 120.3 13.6 115.95 13.5 116.6 11.4 112.3 10.15 102.3 6.15 87.0 4.5 75.1 2.85 51.85 4.4 32.8 5.85 20.4 9.15 7.6 11.4 9.75 12.3 11.9 13.15 21.3 13.95 30.6 14.65 26.3 14.9 22.1 15.0 18.0 15.15 L9.6 15.75 4.85 16.3 Q4.4 17.05 4.8 17.85" fill="#96e0bc" fill-opacity="0.7058824" fill-rule="evenodd" stroke="none"/>
      <path d="M4.8 17.85 Q4.4 17.05 4.85 16.3 L9.6 15.75 18.0 15.15 Q22.1 15.0 26.3 14.9 30.6 14.65 21.3 13.95 11.9 13.15 9.75 12.3 7.6 11.4 20.4 9.15 32.8 5.85 51.85 4.4 75.1 2.85 87.0 4.5 102.3 6.15 112.3 10.15 116.6 11.4 115.95 13.5 120.3 13.6 123.6 14.35 128.4 15.2 122.0 16.2 123.8 17.15 121.9 18.2 L122.3 18.35 123.6 18.3 Q127.2 18.25 132.65 19.2 140.25 20.15 138.2 21.85 136.1 23.5 126.9 25.1 117.75 26.7 118.6 27.3 119.45 27.9 122.15 28.5 125.35 29.25 125.75 30.0 126.6 30.9 120.8 32.2 122.35 32.75 119.45 33.65 123.25 33.95 121.5 35.05 121.7 36.75 107.0 38.1 111.95 39.9 108.3 40.9 106.05 43.2 106.6 44.25 106.1 46.1 101.0 46.65 97.95 47.5 91.0 47.9 L78.45 48.55 Q74.35 48.6 69.4 49.35 65.85 50.1 70.2 48.75 74.05 47.4 66.3 46.45 59.4 45.45 53.15 45.25 46.75 44.95 44.7 43.65 42.85 42.4 49.25 40.0 41.15 40.7 39.3 40.05 26.0 40.3 32.25 38.3 29.45 37.5 33.6 35.7 L26.3 34.8 Q24.1 34.2 21.35 33.8 19.55 33.45 16.35 33.0 12.9 32.45 15.75 30.65 18.75 29.25 23.45 28.6 28.15 27.8 21.5 26.5 15.25 24.9 25.25 24.15 34.95 22.55 25.2 21.8 17.6 21.25 11.05 20.2 4.55 19.05 4.7 17.5" fill="none" stroke="#000000" stroke-linecap="round" stroke-linejoin="round" stroke-opacity="0.0" stroke-width="1.0"/>
    </g>
    <g id="morphshape1" transform="matrix(1.0, 0.0, 0.0, 1.0, -17.5, -9.15)">
      <path d="M122.45 22.6 Q122.45 23.35 122.9 24.05 123.65 25.1 126.5 24.85 L125.75 22.65 Q124.75 22.3 122.45 22.6 M101.35 31.45 Q101.35 31.8 102.45 32.6 L105.75 32.7 107.9 31.7 Q110.1 30.65 110.5 30.15 L109.0 28.95 104.8 28.55 Q101.35 28.75 101.35 31.45 M87.65 39.9 L87.65 39.95 88.05 40.65 Q89.05 41.0 90.3 41.3 L92.65 41.55 96.1 41.5 96.7 41.3 97.05 40.95 97.2 40.3 97.15 39.8 Q97.05 39.05 96.45 38.65 95.45 37.95 91.2 37.95 89.4 38.2 87.95 39.1 L87.6 39.8 M77.4 36.3 L77.75 37.05 Q78.65 37.4 79.9 37.75 L82.15 38.05 85.45 38.05 86.0 37.9 86.35 37.6 86.55 36.95 86.55 36.5 Q86.45 35.75 85.9 35.35 84.95 34.65 80.85 34.65 79.15 34.9 77.75 35.75 L77.45 36.4 M61.85 36.7 L62.4 37.6 68.75 38.0 Q72.8 38.0 75.65 35.75 75.65 33.85 69.6 33.7 63.35 33.6 61.85 36.7 M57.85 41.45 Q57.95 41.9 58.1 42.2 L61.15 42.2 Q61.6 41.95 61.85 40.35 L58.35 40.55 Q57.85 40.9 57.85 41.45 M49.0 35.35 L50.2 36.55 Q52.25 37.7 56.55 37.7 58.1 37.7 59.85 35.55 59.85 32.6 54.45 32.65 49.0 32.7 49.0 35.35 M29.45 29.4 Q29.55 29.95 32.25 31.25 35.65 32.35 39.25 32.35 L43.05 31.8 Q44.15 31.1 44.65 29.05 44.25 26.2 36.65 26.3 29.0 26.35 29.4 29.35 M20.25 14.55 Q20.25 15.0 20.7 15.7 L21.65 16.65 28.5 16.75 Q29.7 15.85 29.7 15.3 29.7 13.45 25.0 13.35 20.25 13.3 20.25 14.55" fill="#bef0d8" fill-opacity="0.7058824" fill-rule="evenodd" stroke="none"/>
      <path d="M20.25 14.55 Q20.25 13.3 25.0 13.35 29.7 13.45 29.7 15.3 29.7 15.85 28.5 16.75 L21.65 16.65 20.7 15.7 Q20.25 15.0 20.25 14.55 M29.4 29.35 Q29.0 26.35 36.65 26.3 44.25 26.2 44.65 29.05 44.15 31.1 43.05 31.8 L39.25 32.35 Q35.65 32.35 32.25 31.25 29.55 29.95 29.45 29.4 M49.0 35.35 Q49.0 32.7 54.45 32.65 59.85 32.6 59.85 35.55 58.1 37.7 56.55 37.7 52.25 37.7 50.2 36.55 L49.0 35.35 M57.85 41.45 Q57.85 40.9 58.35 40.55 L61.85 40.35 Q61.6 41.95 61.15 42.2 L58.1 42.2 Q57.95 41.9 57.85 41.45 M61.85 36.7 Q63.35 33.6 69.6 33.7 75.65 33.85 75.65 35.75 72.8 38.0 68.75 38.0 L62.4 37.6 61.85 36.7 M77.45 36.4 L77.75 35.75 Q79.15 34.9 80.85 34.65 84.95 34.65 85.9 35.35 86.45 35.75 86.55 36.5 L86.55 36.95 86.35 37.6 86.0 37.9 85.45 38.05 82.15 38.05 79.9 37.75 Q78.65 37.4 77.75 37.05 L77.4 36.3 M87.6 39.8 L87.95 39.1 Q89.4 38.2 91.2 37.95 95.45 37.95 96.45 38.65 97.05 39.05 97.15 39.8 L97.2 40.3 97.05 40.95 96.7 41.3 96.1 41.5 92.65 41.55 90.3 41.3 Q89.05 41.0 88.05 40.65 L87.65 39.95 87.65 39.9 M101.35 31.45 Q101.35 28.75 104.8 28.55 L109.0 28.95 110.5 30.15 Q110.1 30.65 107.9 31.7 L105.75 32.7 102.45 32.6 Q101.35 31.8 101.35 31.45 M122.45 22.6 Q124.75 22.3 125.75 22.65 L126.5 24.85 Q123.65 25.1 122.9 24.05 122.45 23.35 122.45 22.6 Z" fill="none" stroke="#000000" stroke-linecap="round" stroke-linejoin="round" stroke-opacity="0.0" stroke-width="1.0"/>
    </g>
    <g id="morphshape2" transform="matrix(1.0, 0.0, 0.0, 1.0, -37.6, -4.7)">
      <path d="M104.55 17.0 Q104.55 18.15 104.8 18.55 L105.6 19.1 Q108.15 18.35 109.4 17.85 110.1 17.35 109.05 14.3 106.65 14.5 105.6 15.15 104.55 15.75 104.55 17.0 M92.0 19.25 Q92.0 20.3 92.6 20.9 L95.65 21.1 Q96.1 20.1 95.85 18.0 L92.1 17.9 92.0 19.25 M90.65 10.4 Q90.65 11.45 91.05 12.35 L97.0 12.35 Q98.05 11.3 98.05 7.8 93.35 7.35 91.7 8.2 90.65 8.8 90.65 10.4 M82.35 19.3 Q82.4 20.25 83.15 22.1 83.8 22.55 85.35 22.7 L86.15 21.5 Q86.65 20.8 85.95 19.0 L82.35 19.3 M76.95 10.9 Q76.55 12.8 77.35 14.3 78.35 16.05 80.6 16.05 81.75 16.05 82.95 14.3 82.1 11.9 80.45 11.25 L76.95 10.9 M65.25 11.55 L65.3 13.0 65.65 13.55 71.1 14.3 74.4 14.7 Q76.15 14.7 75.05 12.25 75.05 9.2 70.15 9.05 65.25 8.95 65.25 11.55 M56.0 17.3 L56.0 17.4 56.1 18.3 56.3 18.6 Q56.6 18.8 57.0 18.85 57.8 18.95 58.9 19.05 L61.8 18.7 Q62.0 17.45 61.65 15.2 61.0 13.85 60.4 13.0 59.3 12.3 58.1 12.6 56.05 13.65 56.05 17.25 M50.5 14.9 L50.55 15.85 50.75 16.1 Q51.05 16.35 51.4 16.4 L53.2 16.6 Q54.85 16.25 55.95 16.2 56.2 15.0 55.9 12.9 55.25 11.6 54.65 10.75 53.55 10.15 52.4 10.45 50.45 11.5 50.45 14.95 M39.45 12.25 L40.55 14.35 Q42.25 16.5 45.25 16.5 49.15 16.5 49.15 13.3 49.15 10.3 44.3 9.5 39.45 8.65 39.45 12.25" fill="#bef0d8" fill-opacity="0.7058824" fill-rule="evenodd" stroke="none"/>
      <path d="M39.45 12.25 Q39.45 8.65 44.3 9.5 49.15 10.3 49.15 13.3 49.15 16.5 45.25 16.5 42.25 16.5 40.55 14.35 L39.45 12.25 M50.45 14.95 Q50.45 11.5 52.4 10.45 53.55 10.15 54.65 10.75 55.25 11.6 55.9 12.9 56.2 15.0 55.95 16.2 54.85 16.25 53.2 16.6 L51.4 16.4 Q51.05 16.35 50.75 16.1 L50.55 15.85 50.5 14.9 M56.05 17.25 Q56.05 13.65 58.1 12.6 59.3 12.3 60.4 13.0 61.0 13.85 61.65 15.2 62.0 17.45 61.8 18.7 L58.9 19.05 Q57.8 18.95 57.0 18.85 56.6 18.8 56.3 18.6 L56.1 18.3 56.0 17.4 56.0 17.3 M65.25 11.55 Q65.25 8.95 70.15 9.05 75.05 9.2 75.05 12.25 76.15 14.7 74.4 14.7 L71.1 14.3 65.65 13.55 65.3 13.0 65.25 11.55 M76.95 10.9 L80.45 11.25 Q82.1 11.9 82.95 14.3 81.75 16.05 80.6 16.05 78.35 16.05 77.35 14.3 76.55 12.8 76.95 10.9 M82.35 19.3 L85.95 19.0 Q86.65 20.8 86.15 21.5 L85.35 22.7 Q83.8 22.55 83.15 22.1 82.4 20.25 82.35 19.3 M90.65 10.4 Q90.65 8.8 91.7 8.2 93.35 7.35 98.05 7.8 98.05 11.3 97.0 12.35 L91.05 12.35 Q90.65 11.45 90.65 10.4 M92.0 19.25 L92.1 17.9 95.85 18.0 Q96.1 20.1 95.65 21.1 L92.6 20.9 Q92.0 20.3 92.0 19.25 M104.55 17.0 Q104.55 15.75 105.6 15.15 106.65 14.5 109.05 14.3 110.1 17.35 109.4 17.85 108.15 18.35 105.6 19.1 L104.8 18.55 Q104.55 18.15 104.55 17.0 Z" fill="none" stroke="#000000" stroke-linecap="round" stroke-linejoin="round" stroke-opacity="0.0" stroke-width="1.0"/>
    </g>
    <g id="morphshape3" transform="matrix(1.0, 0.0, 0.0, 1.0, -32.35, -6.65)">
      <path d="M93.05 9.45 Q93.05 10.6 93.2 11.0 L93.65 11.75 95.65 11.75 96.15 11.25 96.3 10.05 96.05 8.55 Q95.75 8.1 93.2 8.05 93.05 7.7 93.05 9.45 M68.9 11.65 Q68.75 12.05 69.45 12.75 69.9 13.0 70.7 13.15 72.0 13.15 73.35 12.85 73.75 12.3 73.6 11.6 72.45 11.55 69.3 11.05 L68.9 11.6 M66.0 33.55 L66.3 35.5 Q66.5 36.55 66.95 37.4 L70.45 37.4 Q70.65 37.1 70.95 36.95 L70.55 33.85 67.0 33.3 Q66.2 33.25 66.0 33.55 M42.55 14.2 L42.75 15.55 43.1 16.05 44.65 16.1 Q45.7 16.1 46.3 15.65 46.5 15.5 46.5 13.75 46.5 12.6 46.15 12.05 L45.45 11.4 42.65 12.5 42.55 14.2 M35.1 29.2 L35.35 30.2 Q35.7 31.0 36.15 31.3 40.25 30.75 40.25 28.35 40.25 27.25 39.9 26.95 L39.05 26.6 37.3 26.85 35.45 27.0 35.1 29.2" fill="#ffffff" fill-opacity="0.7058824" fill-rule="evenodd" stroke="none"/>
      <path d="M35.1 29.2 L35.45 27.0 37.3 26.85 39.05 26.6 39.9 26.95 Q40.25 27.25 40.25 28.35 40.25 30.75 36.15 31.3 35.7 31.0 35.35 30.2 L35.1 29.2 M42.55 14.2 L42.65 12.5 45.45 11.4 46.15 12.05 Q46.5 12.6 46.5 13.75 46.5 15.5 46.3 15.65 45.7 16.1 44.65 16.1 L43.1 16.05 42.75 15.55 42.55 14.2 M66.0 33.55 Q66.2 33.25 67.0 33.3 L70.55 33.85 70.95 36.95 Q70.65 37.1 70.45 37.4 L66.95 37.4 Q66.5 36.55 66.3 35.5 L66.0 33.55 M68.9 11.6 L69.3 11.05 Q72.45 11.55 73.6 11.6 73.75 12.3 73.35 12.85 72.0 13.15 70.7 13.15 69.9 13.0 69.45 12.75 68.75 12.05 68.9 11.65 M93.05 9.45 Q93.05 7.7 93.2 8.05 95.75 8.1 96.05 8.55 L96.3 10.05 96.15 11.25 95.65 11.75 93.65 11.75 93.2 11.0 Q93.05 10.6 93.05 9.45 Z" fill="none" stroke="#000000" stroke-linecap="round" stroke-linejoin="round" stroke-opacity="0.0" stroke-width="1.0"/>
    </g>
  </defs>
</svg>
