<?xml version="1.0" encoding="UTF-8" standalone="no"?>
<svg xmlns:xlink="http://www.w3.org/1999/xlink" height="47.45px" width="141.0px" xmlns="http://www.w3.org/2000/svg">
  <g transform="matrix(1.0, 0.0, 0.0, 1.0, -4.35, -2.9)">
    <use data-characterId="3192" height="47.45" transform="matrix(1.0, 0.0, 0.0, 1.0, 4.35, 2.9)" width="141.0" xlink:href="#morphshape0"/>
    <use data-characterId="3193" height="37.5" transform="matrix(1.0, 0.0, 0.0, 1.0, 17.5, 9.15)" width="116.05" xlink:href="#morphshape1"/>
    <use data-characterId="3194" height="21.8" transform="matrix(1.0, 0.0, 0.0, 1.0, 37.6, 4.7)" width="75.1" xlink:href="#morphshape2"/>
    <use data-characterId="3195" height="35.65" transform="matrix(1.0, 0.0, 0.0, 1.0, 32.35, 6.65)" width="66.65" xlink:href="#morphshape3"/>
  </g>
  <defs>
    <g id="morphshape0" transform="matrix(1.0, 0.0, 0.0, 1.0, -4.35, -2.9)">
      <path d="M5.0 16.9 Q4.55 18.45 12.45 19.75 20.35 21.0 29.7 21.6 40.35 22.3 27.05 23.6 13.55 24.35 22.6 26.05 31.9 27.55 25.7 28.25 19.45 28.85 15.25 30.45 11.2 32.25 15.3 32.75 19.25 33.2 20.9 33.65 23.15 34.1 25.3 34.5 L35.2 35.25 Q29.85 36.9 31.45 37.6 21.65 40.25 38.1 39.9 40.9 40.35 51.75 39.1 43.2 41.95 44.35 43.1 45.65 44.3 52.8 44.7 60.55 45.0 68.65 45.8 77.9 46.5 71.8 48.3 65.35 50.1 68.35 49.65 73.15 49.2 77.45 49.2 L91.8 48.65 Q99.95 48.25 102.95 47.25 107.15 46.4 106.55 44.95 105.3 43.95 108.1 41.4 110.95 40.3 103.8 38.2 122.25 37.3 123.55 35.5 126.05 34.1 121.05 33.75 121.4 33.1 119.05 32.7 126.55 31.25 126.35 30.35 126.4 29.55 122.7 28.7 119.25 27.95 115.95 27.5 112.65 27.05 124.45 25.65 136.3 24.25 140.1 22.5 143.85 20.7 135.6 19.45 128.7 18.2 124.3 18.25 L122.6 18.3 122.3 18.2 Q123.35 17.5 122.1 16.85 131.8 15.65 126.45 14.6 122.05 13.6 116.2 13.45 116.6 12.15 113.95 11.35 104.5 7.15 93.0 4.95 83.55 2.75 59.1 3.7 40.0 4.6 22.95 8.1 5.65 10.9 8.4 11.95 11.15 12.95 23.6 13.8 36.0 14.6 30.45 14.85 24.95 14.95 19.5 15.1 L11.25 15.55 4.85 16.3 Q4.55 16.75 4.8 17.25" fill="#96e0bc" fill-opacity="0.7058824" fill-rule="evenodd" stroke="none"/>
      <path d="M4.8 17.25 Q4.55 16.75 4.85 16.3 L11.25 15.55 19.5 15.1 Q24.95 14.95 30.45 14.85 36.0 14.6 23.6 13.8 11.15 12.95 8.4 11.95 5.65 10.9 22.95 8.1 40.0 4.6 59.1 3.7 83.55 2.75 93.0 4.95 104.5 7.15 113.95 11.35 116.6 12.15 116.2 13.45 122.05 13.6 126.45 14.6 131.8 15.65 122.1 16.85 123.35 17.5 122.3 18.2 L122.6 18.3 124.3 18.25 Q128.7 18.2 135.6 19.45 143.85 20.7 140.1 22.5 136.3 24.25 124.45 25.65 112.65 27.05 115.95 27.5 119.25 27.95 122.7 28.7 126.4 29.55 126.35 30.35 126.55 31.25 119.05 32.7 121.4 33.1 121.05 33.75 126.05 34.1 123.55 35.5 122.25 37.3 103.8 38.2 110.95 40.3 108.1 41.4 105.3 43.95 106.55 44.95 107.15 46.4 102.95 47.25 99.95 48.25 91.8 48.65 L77.45 49.2 Q73.15 49.2 68.35 49.65 65.35 50.1 71.8 48.3 77.9 46.5 68.65 45.8 60.55 45.0 52.8 44.7 45.65 44.3 44.35 43.1 43.2 41.95 51.75 39.1 40.9 40.35 38.1 39.9 21.65 40.25 31.45 37.6 29.85 36.9 35.2 35.25 L25.3 34.5 Q23.15 34.1 20.9 33.65 19.25 33.2 15.3 32.75 11.2 32.25 15.25 30.45 19.45 28.85 25.7 28.25 31.9 27.55 22.6 26.05 13.55 24.35 27.05 23.6 40.35 22.3 29.7 21.6 20.35 21.0 12.45 19.75 4.55 18.45 5.0 16.9" fill="none" stroke="#000000" stroke-linecap="round" stroke-linejoin="round" stroke-opacity="0.0" stroke-width="1.0"/>
    </g>
    <g id="morphshape1" transform="matrix(1.0, 0.0, 0.0, 1.0, -17.5, -9.15)">
      <path d="M125.15 22.25 Q125.15 23.0 125.6 23.7 126.35 24.75 129.2 24.5 L128.45 22.3 Q127.45 21.95 125.15 22.25 M102.0 32.45 Q102.0 32.8 103.1 33.6 L106.4 33.7 108.55 32.7 Q110.75 31.65 111.15 31.15 L109.65 29.95 105.45 29.55 Q102.0 29.75 102.0 32.45 M88.6 41.8 L88.6 41.85 89.05 42.65 Q90.25 42.95 91.6 43.2 L94.15 43.4 97.9 43.3 98.55 43.1 98.95 42.7 99.1 41.95 99.05 41.45 Q98.9 40.7 98.25 40.25 97.15 39.55 92.5 39.65 90.55 39.95 89.05 41.15 L88.6 41.9 M78.25 34.4 L78.55 35.1 Q79.25 35.5 80.4 35.9 L82.45 36.25 85.45 36.3 85.95 36.15 86.25 35.9 86.45 35.35 86.45 34.9 Q86.4 34.15 85.9 33.8 85.05 33.1 81.35 33.0 79.8 33.2 78.45 33.75 L78.25 34.35 M61.65 38.45 L62.2 39.35 68.55 39.75 Q72.6 39.75 75.45 37.5 75.45 35.6 69.4 35.45 63.15 35.35 61.65 38.45 M56.5 41.15 Q56.6 41.6 56.75 41.9 L59.8 41.9 Q60.25 41.65 60.5 40.05 L57.0 40.25 Q56.5 40.6 56.5 41.15 M49.0 34.8 L50.2 36.0 Q52.25 37.15 56.55 37.15 58.1 37.15 59.85 35.0 59.85 32.05 54.45 32.1 49.0 32.15 49.0 34.8 M30.45 29.7 Q30.6 30.25 33.35 31.4 36.85 32.15 40.45 32.2 L44.25 31.5 Q45.3 30.75 45.7 28.7 45.15 25.85 37.55 26.3 29.9 26.7 30.45 29.7 M21.15 12.95 Q21.15 13.4 21.6 14.1 L22.55 15.05 29.4 15.15 Q30.6 14.25 30.6 13.7 30.6 11.85 25.9 11.75 21.15 11.7 21.15 12.95" fill="#bef0d8" fill-opacity="0.7058824" fill-rule="evenodd" stroke="none"/>
      <path d="M21.15 12.95 Q21.15 11.7 25.9 11.75 30.6 11.85 30.6 13.7 30.6 14.25 29.4 15.15 L22.55 15.05 21.6 14.1 Q21.15 13.4 21.15 12.95 M30.45 29.7 Q29.9 26.7 37.55 26.3 45.15 25.85 45.7 28.7 45.3 30.75 44.25 31.5 L40.45 32.2 Q36.85 32.15 33.35 31.4 30.6 30.25 30.45 29.7 M49.0 34.8 Q49.0 32.15 54.45 32.1 59.85 32.05 59.85 35.0 58.1 37.15 56.55 37.15 52.25 37.15 50.2 36.0 L49.0 34.8 M56.5 41.15 Q56.5 40.6 57.0 40.25 L60.5 40.05 Q60.25 41.65 59.8 41.9 L56.75 41.9 Q56.6 41.6 56.5 41.15 M61.65 38.45 Q63.15 35.35 69.4 35.45 75.45 35.6 75.45 37.5 72.6 39.75 68.55 39.75 L62.2 39.35 61.65 38.45 M78.25 34.35 L78.45 33.75 Q79.8 33.2 81.35 33.0 85.05 33.1 85.9 33.8 86.4 34.15 86.45 34.9 L86.45 35.35 86.25 35.9 85.95 36.15 85.45 36.3 82.45 36.25 80.4 35.9 Q79.25 35.5 78.55 35.1 L78.25 34.4 M88.6 41.9 L89.05 41.15 Q90.55 39.95 92.5 39.65 97.15 39.55 98.25 40.25 98.9 40.7 99.05 41.45 L99.1 41.95 98.95 42.7 98.55 43.1 97.9 43.3 94.15 43.4 91.6 43.2 Q90.25 42.95 89.05 42.65 L88.6 41.85 88.6 41.8 M102.0 32.45 Q102.0 29.75 105.45 29.55 L109.65 29.95 111.15 31.15 Q110.75 31.65 108.55 32.7 L106.4 33.7 103.1 33.6 Q102.0 32.8 102.0 32.45 M125.15 22.25 Q127.45 21.95 128.45 22.3 L129.2 24.5 Q126.35 24.75 125.6 23.7 125.15 23.0 125.15 22.25 Z" fill="none" stroke="#000000" stroke-linecap="round" stroke-linejoin="round" stroke-opacity="0.0" stroke-width="1.0"/>
    </g>
    <g id="morphshape2" transform="matrix(1.0, 0.0, 0.0, 1.0, -37.6, -4.7)">
      <path d="M105.7 17.9 Q105.7 19.05 105.95 19.45 L106.75 20.0 Q109.5 19.25 110.55 18.75 111.25 18.25 110.2 15.2 107.8 15.4 106.75 16.05 105.7 16.65 105.7 17.9 M92.9 18.2 Q92.9 19.25 93.5 19.85 L96.55 20.05 Q97.0 19.05 96.75 16.95 L93.0 16.85 92.9 18.2 M91.6 9.85 Q91.6 10.9 92.0 11.8 L97.95 11.8 Q99.0 10.75 99.0 7.25 94.3 6.8 92.65 7.65 91.6 8.25 91.6 9.85 M83.25 18.0 Q83.3 18.95 84.05 20.8 84.7 21.25 86.25 21.4 L87.05 20.2 Q87.55 19.5 86.85 17.7 L83.25 18.0 M76.35 12.55 Q75.95 14.45 76.75 15.95 77.75 17.7 80.0 17.7 81.15 17.7 82.35 15.95 81.5 13.55 79.85 12.9 L76.35 12.55 M64.7 10.6 L64.75 12.05 65.1 12.6 70.55 13.35 73.85 13.75 Q75.6 13.75 74.5 11.3 74.5 8.25 69.6 8.1 64.7 8.0 64.7 10.6 M56.15 19.45 L56.15 19.5 56.25 20.55 56.55 20.9 Q56.95 21.05 57.4 21.1 58.35 21.15 59.5 21.2 L62.85 21.0 Q63.05 19.75 62.5 17.1 61.7 15.6 60.95 14.75 59.7 13.85 58.35 14.3 56.1 15.4 56.1 19.55 M51.35 12.2 L51.4 13.05 51.5 13.25 Q51.7 13.55 52.0 13.6 L53.6 13.9 Q55.1 13.45 55.85 13.4 56.1 12.2 56.0 10.5 55.5 9.35 55.05 8.5 54.1 8.1 53.1 8.25 51.35 9.25 51.35 12.15 M40.05 12.95 L41.15 15.05 Q42.85 17.2 45.85 17.2 49.75 17.2 49.75 14.0 49.75 11.0 44.9 10.2 40.05 9.35 40.05 12.95" fill="#bef0d8" fill-opacity="0.7058824" fill-rule="evenodd" stroke="none"/>
      <path d="M40.05 12.95 Q40.05 9.35 44.9 10.2 49.75 11.0 49.75 14.0 49.75 17.2 45.85 17.2 42.85 17.2 41.15 15.05 L40.05 12.95 M51.35 12.15 Q51.35 9.25 53.1 8.25 54.1 8.1 55.05 8.5 55.5 9.35 56.0 10.5 56.1 12.2 55.85 13.4 55.1 13.45 53.6 13.9 L52.0 13.6 Q51.7 13.55 51.5 13.25 L51.4 13.05 51.35 12.2 M56.1 19.55 Q56.1 15.4 58.35 14.3 59.7 13.85 60.95 14.75 61.7 15.6 62.5 17.1 63.05 19.75 62.85 21.0 L59.5 21.2 Q58.35 21.15 57.4 21.1 56.95 21.05 56.55 20.9 L56.25 20.55 56.15 19.5 56.15 19.45 M64.7 10.6 Q64.7 8.0 69.6 8.1 74.5 8.25 74.5 11.3 75.6 13.75 73.85 13.75 L70.55 13.35 65.1 12.6 64.75 12.05 64.7 10.6 M76.35 12.55 L79.85 12.9 Q81.5 13.55 82.35 15.95 81.15 17.7 80.0 17.7 77.75 17.7 76.75 15.95 75.95 14.45 76.35 12.55 M83.25 18.0 L86.85 17.7 Q87.55 19.5 87.05 20.2 L86.25 21.4 Q84.7 21.25 84.05 20.8 83.3 18.95 83.25 18.0 M91.6 9.85 Q91.6 8.25 92.65 7.65 94.3 6.8 99.0 7.25 99.0 10.75 97.95 11.8 L92.0 11.8 Q91.6 10.9 91.6 9.85 M92.9 18.2 L93.0 16.85 96.75 16.95 Q97.0 19.05 96.55 20.05 L93.5 19.85 Q92.9 19.25 92.9 18.2 M105.7 17.9 Q105.7 16.65 106.75 16.05 107.8 15.4 110.2 15.2 111.25 18.25 110.55 18.75 109.5 19.25 106.75 20.0 L105.95 19.45 Q105.7 19.05 105.7 17.9 Z" fill="none" stroke="#000000" stroke-linecap="round" stroke-linejoin="round" stroke-opacity="0.0" stroke-width="1.0"/>
    </g>
    <g id="morphshape3" transform="matrix(1.0, 0.0, 0.0, 1.0, -32.35, -6.65)">
      <path d="M94.1 8.9 Q94.1 10.05 94.25 10.45 L94.7 11.2 96.7 11.2 97.2 10.7 97.35 9.5 97.1 8.0 Q96.8 7.55 94.25 7.5 94.1 7.15 94.1 8.9 M68.7 10.55 Q68.5 10.95 69.15 11.75 69.55 12.1 70.4 12.3 71.75 12.4 73.1 12.25 73.55 11.75 73.45 11.05 72.65 10.85 69.2 10.1 L68.75 10.6 M65.9 35.45 L66.2 37.4 Q66.4 38.45 66.85 39.3 L70.35 39.3 Q70.55 39.0 70.85 38.85 L70.45 35.75 66.9 35.2 Q66.1 35.15 65.9 35.45 M43.35 14.65 L43.55 16.0 43.9 16.5 45.45 16.55 Q46.5 16.55 47.1 16.1 47.3 15.95 47.3 14.2 47.3 13.05 46.95 12.5 L46.25 11.85 43.45 12.95 43.35 14.65 M36.05 29.2 L36.3 30.2 Q36.65 31.0 37.1 31.3 41.2 30.75 41.2 28.35 41.2 27.25 40.85 26.95 L40.0 26.6 38.25 26.85 36.4 27.0 36.05 29.2" fill="#ffffff" fill-opacity="0.7058824" fill-rule="evenodd" stroke="none"/>
      <path d="M36.05 29.2 L36.4 27.0 38.25 26.85 40.0 26.6 40.85 26.95 Q41.2 27.25 41.2 28.35 41.2 30.75 37.1 31.3 36.65 31.0 36.3 30.2 L36.05 29.2 M43.35 14.65 L43.45 12.95 46.25 11.85 46.95 12.5 Q47.3 13.05 47.3 14.2 47.3 15.95 47.1 16.1 46.5 16.55 45.45 16.55 L43.9 16.5 43.55 16.0 43.35 14.65 M65.9 35.45 Q66.1 35.15 66.9 35.2 L70.45 35.75 70.85 38.85 Q70.55 39.0 70.35 39.3 L66.85 39.3 Q66.4 38.45 66.2 37.4 L65.9 35.45 M68.75 10.6 L69.2 10.1 Q72.65 10.85 73.45 11.05 73.55 11.75 73.1 12.25 71.75 12.4 70.4 12.3 69.55 12.1 69.15 11.75 68.5 10.95 68.7 10.55 M94.1 8.9 Q94.1 7.15 94.25 7.5 96.8 7.55 97.1 8.0 L97.35 9.5 97.2 10.7 96.7 11.2 94.7 11.2 94.25 10.45 Q94.1 10.05 94.1 8.9 Z" fill="none" stroke="#000000" stroke-linecap="round" stroke-linejoin="round" stroke-opacity="0.0" stroke-width="1.0"/>
    </g>
  </defs>
</svg>
