<?xml version="1.0" encoding="UTF-8" standalone="no"?>
<svg xmlns:xlink="http://www.w3.org/1999/xlink" height="47.45px" width="141.0px" xmlns="http://www.w3.org/2000/svg">
  <g transform="matrix(1.0, 0.0, 0.0, 1.0, -4.35, -2.9)">
    <use data-characterId="3188" height="47.45" transform="matrix(1.0, 0.0, 0.0, 1.0, 4.35, 2.9)" width="141.0" xlink:href="#morphshape0"/>
    <use data-characterId="3189" height="37.5" transform="matrix(1.0, 0.0, 0.0, 1.0, 17.5, 9.15)" width="116.05" xlink:href="#morphshape1"/>
    <use data-characterId="3190" height="21.8" transform="matrix(1.0, 0.0, 0.0, 1.0, 37.6, 4.7)" width="75.1" xlink:href="#morphshape2"/>
    <use data-characterId="3191" height="35.65" transform="matrix(1.0, 0.0, 0.0, 1.0, 32.35, 6.65)" width="66.65" xlink:href="#morphshape3"/>
  </g>
  <defs>
    <g id="morphshape0" transform="matrix(1.0, 0.0, 0.0, 1.0, -4.35, -2.9)">
      <path d="M4.6 19.2 Q5.15 20.65 8.25 21.4 11.45 21.95 14.85 22.35 22.4 23.25 21.6 25.6 20.15 26.25 19.45 27.6 19.55 28.35 18.6 29.3 17.65 30.05 17.5 31.05 17.7 32.85 19.5 33.5 20.8 34.0 22.85 34.2 26.8 34.45 29.15 35.45 L30.15 36.7 Q29.05 38.8 34.8 39.75 37.35 40.15 43.05 40.2 42.55 41.35 43.9 42.05 42.85 43.3 46.35 44.75 50.2 46.35 54.65 46.45 57.3 46.5 61.2 48.1 65.2 49.7 66.95 49.9 67.8 50.1 72.6 48.7 77.8 47.2 81.45 47.0 L89.6 46.05 Q93.55 45.65 96.8 45.2 104.0 45.3 107.15 42.5 108.3 41.3 109.2 39.65 114.9 38.9 115.35 37.7 120.95 35.2 117.15 33.8 117.15 33.55 116.3 33.4 125.35 31.85 125.75 31.05 127.35 30.1 124.95 29.15 123.5 28.5 121.6 27.9 120.7 27.65 125.85 26.65 130.95 25.65 133.6 23.45 136.3 21.25 134.3 19.9 132.15 18.45 126.1 18.35 124.2 18.25 122.65 18.3 L122.3 18.3 121.65 18.05 Q125.7 16.1 122.55 14.35 120.8 13.95 117.25 13.6 116.7 13.45 116.0 13.45 117.3 9.4 108.95 6.95 97.55 3.35 72.95 3.1 55.0 2.85 34.75 5.8 15.85 8.6 14.75 11.5 12.95 12.35 13.6 13.0 14.25 13.6 16.1 14.2 17.75 14.65 16.45 14.95 15.4 15.0 14.5 15.2 L5.65 16.2 4.85 16.3 Q4.0 17.75 4.75 19.25" fill="#96e0bc" fill-opacity="0.7058824" fill-rule="evenodd" stroke="none"/>
      <path d="M4.75 19.25 Q4.0 17.75 4.85 16.3 L5.65 16.2 14.5 15.2 Q15.4 15.0 16.45 14.95 17.75 14.65 16.1 14.2 14.25 13.6 13.6 13.0 12.95 12.35 14.75 11.5 15.85 8.6 34.75 5.8 55.0 2.85 72.95 3.1 97.55 3.35 108.95 6.95 117.3 9.4 116.0 13.45 116.7 13.45 117.25 13.6 120.8 13.95 122.55 14.35 125.7 16.1 121.65 18.05 L122.3 18.3 122.65 18.3 Q124.2 18.25 126.1 18.35 132.15 18.45 134.3 19.9 136.3 21.25 133.6 23.45 130.95 25.65 125.85 26.65 120.7 27.65 121.6 27.9 123.5 28.5 124.95 29.15 127.35 30.1 125.75 31.05 125.35 31.85 116.3 33.4 117.15 33.55 117.15 33.8 120.95 35.2 115.35 37.7 114.9 38.9 109.2 39.65 108.3 41.3 107.15 42.5 104.0 45.3 96.8 45.2 93.55 45.65 89.6 46.05 L81.45 47.0 Q77.8 47.2 72.6 48.7 67.8 50.1 66.95 49.9 65.2 49.7 61.2 48.1 57.3 46.5 54.65 46.45 50.2 46.35 46.35 44.75 42.85 43.3 43.9 42.05 42.55 41.35 43.05 40.2 37.35 40.15 34.8 39.75 29.05 38.8 30.15 36.7 L29.15 35.45 Q26.8 34.45 22.85 34.2 20.8 34.0 19.5 33.5 17.7 32.85 17.5 31.05 17.65 30.05 18.6 29.3 19.55 28.35 19.45 27.6 20.15 26.25 21.6 25.6 22.4 23.25 14.85 22.35 11.45 21.95 8.25 21.4 5.15 20.65 4.6 19.2" fill="none" stroke="#000000" stroke-linecap="round" stroke-linejoin="round" stroke-opacity="0.0" stroke-width="1.0"/>
    </g>
    <g id="morphshape1" transform="matrix(1.0, 0.0, 0.0, 1.0, -17.5, -9.15)">
      <path d="M115.8 23.5 Q115.8 24.25 116.25 24.95 117.0 26.0 119.85 25.75 L119.1 23.55 Q118.1 23.2 115.8 23.5 M99.75 29.0 Q99.75 29.35 100.85 30.15 L104.15 30.25 106.3 29.25 Q108.5 28.2 108.9 27.7 L107.4 26.5 103.2 26.1 Q99.75 26.3 99.75 29.0 M85.15 34.5 L85.4 35.15 Q85.9 35.6 87.0 36.05 L88.85 36.5 91.5 36.65 91.9 36.55 92.15 36.35 92.35 35.85 92.35 35.4 Q92.35 34.7 91.95 34.4 91.25 33.75 88.0 33.6 86.6 33.75 85.3 34.05 L85.2 34.6 M75.55 41.5 L75.55 41.5 76.05 42.35 Q77.45 42.6 78.85 42.8 L81.6 42.9 85.7 42.7 86.45 42.45 86.9 42.0 87.05 41.2 87.0 40.7 Q86.8 39.9 86.05 39.4 84.8 38.65 79.7 38.8 77.6 39.15 76.05 40.6 L75.5 41.4 M62.45 32.5 L63.0 33.4 69.35 33.8 Q73.4 33.8 76.25 31.55 76.25 29.65 70.2 29.5 63.95 29.4 62.45 32.5 M61.2 42.15 Q61.2 42.65 61.45 42.9 L64.5 42.9 Q64.95 42.65 65.2 41.05 L61.7 41.25 Q61.2 41.6 61.2 42.15 M49.0 36.75 L50.2 37.95 Q52.25 39.1 56.55 39.1 58.1 39.1 59.85 36.95 59.85 34.0 54.45 34.05 49.0 34.1 49.0 36.75 M26.85 28.45 Q26.85 29.05 29.45 30.65 32.7 32.65 36.35 32.55 L40.25 32.45 Q41.45 31.9 42.15 29.95 42.1 27.05 34.5 26.25 26.85 25.4 26.9 28.45 M17.95 18.5 Q17.95 18.95 18.4 19.65 L19.35 20.6 26.2 20.7 Q27.4 19.8 27.4 19.25 27.4 17.4 22.7 17.3 17.95 17.25 17.95 18.5" fill="#bef0d8" fill-opacity="0.7058824" fill-rule="evenodd" stroke="none"/>
      <path d="M17.95 18.5 Q17.95 17.25 22.7 17.3 27.4 17.4 27.4 19.25 27.4 19.8 26.2 20.7 L19.35 20.6 18.4 19.65 Q17.95 18.95 17.95 18.5 M26.9 28.45 Q26.85 25.4 34.5 26.25 42.1 27.05 42.15 29.95 41.45 31.9 40.25 32.45 L36.35 32.55 Q32.7 32.65 29.45 30.65 26.85 29.05 26.85 28.45 M49.0 36.75 Q49.0 34.1 54.45 34.05 59.85 34.0 59.85 36.95 58.1 39.1 56.55 39.1 52.25 39.1 50.2 37.95 L49.0 36.75 M61.2 42.15 Q61.2 41.6 61.7 41.25 L65.2 41.05 Q64.95 42.65 64.5 42.9 L61.45 42.9 Q61.2 42.65 61.2 42.15 M62.45 32.5 Q63.95 29.4 70.2 29.5 76.25 29.65 76.25 31.55 73.4 33.8 69.35 33.8 L63.0 33.4 62.45 32.5 M75.5 41.4 L76.05 40.6 Q77.6 39.15 79.7 38.8 84.8 38.65 86.05 39.4 86.8 39.9 87.0 40.7 L87.05 41.2 86.9 42.0 86.45 42.45 85.7 42.7 81.6 42.9 78.85 42.8 Q77.45 42.6 76.05 42.35 L75.55 41.5 75.55 41.5 M85.2 34.6 L85.3 34.05 Q86.6 33.75 88.0 33.6 91.25 33.75 91.95 34.4 92.35 34.7 92.35 35.4 L92.35 35.85 92.15 36.35 91.9 36.55 91.5 36.65 88.85 36.5 87.0 36.05 Q85.9 35.6 85.4 35.15 L85.15 34.5 M99.75 29.0 Q99.75 26.3 103.2 26.1 L107.4 26.5 108.9 27.7 Q108.5 28.2 106.3 29.25 L104.15 30.25 100.85 30.15 Q99.75 29.35 99.75 29.0 M115.8 23.5 Q118.1 23.2 119.1 23.55 L119.85 25.75 Q117.0 26.0 116.25 24.95 115.8 24.25 115.8 23.5 Z" fill="none" stroke="#000000" stroke-linecap="round" stroke-linejoin="round" stroke-opacity="0.0" stroke-width="1.0"/>
    </g>
    <g id="morphshape2" transform="matrix(1.0, 0.0, 0.0, 1.0, -37.6, -4.7)">
      <path d="M101.75 14.9 Q101.75 16.05 102.0 16.45 L102.8 17.0 Q104.8 16.35 106.6 15.75 107.3 15.25 106.25 12.2 103.85 12.4 102.8 13.05 101.75 13.65 101.75 14.9 M89.9 21.8 Q89.9 22.85 90.5 23.45 L93.55 23.65 Q94.0 22.65 93.75 20.55 L90.0 20.45 89.9 21.8 M88.3 11.8 Q88.3 12.85 88.7 13.75 L94.65 13.75 Q95.7 12.7 95.7 9.2 91.0 8.75 89.35 9.6 88.3 10.2 88.3 11.8 M80.05 22.5 Q80.1 23.45 80.85 25.3 81.5 25.75 83.05 25.9 L83.85 24.7 Q84.35 24.0 83.65 22.2 L80.05 22.5 M78.45 6.95 Q78.05 8.85 78.85 10.35 79.85 12.1 82.1 12.1 83.25 12.1 84.45 10.35 83.6 7.95 81.95 7.3 L78.45 6.95 M66.6 13.9 L66.65 15.35 67.0 15.9 72.45 16.65 75.75 17.05 Q77.5 17.05 76.4 14.6 76.4 11.55 71.5 11.4 66.6 11.3 66.6 13.9 M55.85 11.5 L55.9 12.25 55.95 12.4 Q56.05 12.8 56.3 12.9 56.65 13.1 57.65 13.3 L59.4 12.6 Q59.65 11.45 59.75 10.15 59.4 9.2 59.1 8.35 58.25 8.25 57.45 8.3 55.95 9.25 55.95 11.6 M48.4 21.85 L48.4 21.85 48.5 23.05 48.85 23.45 Q49.35 23.5 49.85 23.5 L52.25 23.55 Q54.25 23.5 56.15 23.5 56.35 22.2 55.6 19.15 54.65 17.45 53.75 16.6 52.4 15.4 50.85 15.95 48.35 17.1 48.35 21.8 M37.9 10.5 L39.0 12.6 Q40.7 14.75 43.7 14.75 47.6 14.75 47.6 11.55 47.6 8.55 42.75 7.75 37.9 6.9 37.9 10.5" fill="#bef0d8" fill-opacity="0.7058824" fill-rule="evenodd" stroke="none"/>
      <path d="M37.9 10.5 Q37.9 6.9 42.75 7.75 47.6 8.55 47.6 11.55 47.6 14.75 43.7 14.75 40.7 14.75 39.0 12.6 L37.9 10.5 M48.35 21.8 Q48.35 17.1 50.85 15.95 52.4 15.4 53.75 16.6 54.65 17.45 55.6 19.15 56.35 22.2 56.15 23.5 54.25 23.5 52.25 23.55 L49.85 23.5 Q49.35 23.5 48.85 23.45 L48.5 23.05 48.4 21.85 48.4 21.85 M55.95 11.6 Q55.95 9.25 57.45 8.3 58.25 8.25 59.1 8.35 59.4 9.2 59.75 10.15 59.65 11.45 59.4 12.6 L57.65 13.3 Q56.65 13.1 56.3 12.9 56.05 12.8 55.95 12.4 L55.9 12.25 55.85 11.5 M66.6 13.9 Q66.6 11.3 71.5 11.4 76.4 11.55 76.4 14.6 77.5 17.05 75.75 17.05 L72.45 16.65 67.0 15.9 66.65 15.35 66.6 13.9 M78.45 6.95 L81.95 7.3 Q83.6 7.95 84.45 10.35 83.25 12.1 82.1 12.1 79.85 12.1 78.85 10.35 78.05 8.85 78.45 6.95 M80.05 22.5 L83.65 22.2 Q84.35 24.0 83.85 24.7 L83.05 25.9 Q81.5 25.75 80.85 25.3 80.1 23.45 80.05 22.5 M88.3 11.8 Q88.3 10.2 89.35 9.6 91.0 8.75 95.7 9.2 95.7 12.7 94.65 13.75 L88.7 13.75 Q88.3 12.85 88.3 11.8 M89.9 21.8 L90.0 20.45 93.75 20.55 Q94.0 22.65 93.55 23.65 L90.5 23.45 Q89.9 22.85 89.9 21.8 M101.75 14.9 Q101.75 13.65 102.8 13.05 103.85 12.4 106.25 12.2 107.3 15.25 106.6 15.75 104.8 16.35 102.8 17.0 L102.0 16.45 Q101.75 16.05 101.75 14.9 Z" fill="none" stroke="#000000" stroke-linecap="round" stroke-linejoin="round" stroke-opacity="0.0" stroke-width="1.0"/>
    </g>
    <g id="morphshape3" transform="matrix(1.0, 0.0, 0.0, 1.0, -32.35, -6.65)">
      <path d="M94.5 8.85 Q94.5 10.0 94.65 10.4 L95.1 11.15 97.1 11.15 97.6 10.65 97.75 9.45 97.5 7.95 Q97.2 7.5 94.65 7.45 94.5 7.1 94.5 8.85 M69.5 13.45 Q69.25 13.8 69.8 14.7 70.35 15.1 70.95 15.45 L73.7 15.8 Q74.2 15.35 74.2 14.65 74.0 14.2 70.05 13.0 L69.5 13.45 M66.25 30.05 L66.55 32.0 Q66.75 33.05 67.2 33.9 L70.7 33.9 Q70.95 33.65 71.2 33.45 L70.8 30.35 67.25 29.8 Q66.45 29.75 66.25 30.05 M40.55 13.15 L40.75 14.5 41.1 15.0 42.65 15.05 Q43.7 15.05 44.3 14.6 44.5 14.45 44.5 12.7 44.5 11.55 44.15 11.0 L43.45 10.35 40.65 11.45 40.55 13.15 M32.8 29.2 L33.05 30.2 Q33.4 31.0 33.85 31.3 37.95 30.75 37.95 28.35 37.95 27.25 37.6 26.95 L36.75 26.6 35.0 26.85 33.15 27.0 32.8 29.2" fill="#ffffff" fill-opacity="0.7058824" fill-rule="evenodd" stroke="none"/>
      <path d="M32.8 29.2 L33.15 27.0 35.0 26.85 36.75 26.6 37.6 26.95 Q37.95 27.25 37.95 28.35 37.95 30.75 33.85 31.3 33.4 31.0 33.05 30.2 L32.8 29.2 M40.55 13.15 L40.65 11.45 43.45 10.35 44.15 11.0 Q44.5 11.55 44.5 12.7 44.5 14.45 44.3 14.6 43.7 15.05 42.65 15.05 L41.1 15.0 40.75 14.5 40.55 13.15 M66.25 30.05 Q66.45 29.75 67.25 29.8 L70.8 30.35 71.2 33.45 Q70.95 33.65 70.7 33.9 L67.2 33.9 Q66.75 33.05 66.55 32.0 L66.25 30.05 M69.5 13.45 L70.05 13.0 Q74.0 14.2 74.2 14.65 74.2 15.35 73.7 15.8 L70.95 15.45 Q70.35 15.1 69.8 14.7 69.25 13.8 69.5 13.45 M94.5 8.85 Q94.5 7.1 94.65 7.45 97.2 7.5 97.5 7.95 L97.75 9.45 97.6 10.65 97.1 11.15 95.1 11.15 94.65 10.4 Q94.5 10.0 94.5 8.85 Z" fill="none" stroke="#000000" stroke-linecap="round" stroke-linejoin="round" stroke-opacity="0.0" stroke-width="1.0"/>
    </g>
  </defs>
</svg>
