<?xml version="1.0" encoding="UTF-8" standalone="no"?>
<svg xmlns:xlink="http://www.w3.org/1999/xlink" height="47.45px" width="141.0px" xmlns="http://www.w3.org/2000/svg">
  <g transform="matrix(1.0, 0.0, 0.0, 1.0, -4.35, -2.9)">
    <use data-characterId="3192" height="47.45" transform="matrix(1.0, 0.0, 0.0, 1.0, 4.35, 2.9)" width="141.0" xlink:href="#morphshape0"/>
    <use data-characterId="3193" height="37.5" transform="matrix(1.0, 0.0, 0.0, 1.0, 17.5, 9.15)" width="116.05" xlink:href="#morphshape1"/>
    <use data-characterId="3194" height="21.8" transform="matrix(1.0, 0.0, 0.0, 1.0, 37.6, 4.7)" width="75.1" xlink:href="#morphshape2"/>
    <use data-characterId="3195" height="35.65" transform="matrix(1.0, 0.0, 0.0, 1.0, 32.35, 6.65)" width="66.65" xlink:href="#morphshape3"/>
  </g>
  <defs>
    <g id="morphshape0" transform="matrix(1.0, 0.0, 0.0, 1.0, -4.35, -2.9)">
      <path d="M4.95 17.4 Q4.55 18.95 12.15 20.2 19.8 21.4 28.8 21.95 39.25 22.65 26.65 24.0 13.85 24.75 22.35 26.4 31.15 27.85 25.25 28.6 19.3 29.2 15.35 30.75 11.55 32.55 15.55 33.05 19.35 33.5 21.05 33.9 23.4 34.35 25.6 34.8 L34.95 35.6 Q29.85 37.3 31.7 38.05 22.6 40.6 38.4 40.25 41.0 40.7 51.3 39.55 43.15 42.3 44.45 43.45 45.9 44.65 52.9 45.05 60.35 45.3 68.2 46.1 77.15 46.85 71.5 48.55 65.5 50.25 68.65 49.75 73.5 49.25 77.75 49.2 L91.75 48.65 Q99.65 48.25 102.65 47.3 107.05 46.5 106.65 44.95 105.55 43.95 108.25 41.45 111.25 40.4 104.55 38.35 122.25 37.35 123.25 35.55 125.6 34.2 120.85 33.85 121.7 33.15 119.55 32.7 126.7 31.3 126.35 30.4 126.3 29.6 122.7 28.8 119.4 28.1 116.6 27.6 113.8 27.1 125.1 25.7 136.4 24.3 139.85 22.55 143.25 20.8 135.15 19.6 128.5 18.4 124.25 18.45 L122.6 18.5 122.25 18.4 Q123.45 17.6 122.1 16.9 131.15 15.7 125.95 14.7 121.75 13.75 116.2 13.6 116.65 12.1 113.65 11.2 104.1 7.05 91.85 4.95 81.9 2.85 57.7 3.9 38.65 4.9 22.55 8.35 6.15 11.05 8.75 12.05 11.35 13.0 23.2 13.85 35.0 14.6 29.7 14.85 24.45 14.95 19.25 15.1 L10.95 15.6 4.9 16.3 Q4.55 16.8 4.8 17.35" fill="#96e0bc" fill-opacity="0.7058824" fill-rule="evenodd" stroke="none"/>
      <path d="M4.8 17.35 Q4.55 16.8 4.9 16.3 L10.95 15.6 19.25 15.1 Q24.45 14.95 29.7 14.85 35.0 14.6 23.2 13.85 11.35 13.0 8.75 12.05 6.15 11.05 22.55 8.35 38.65 4.9 57.7 3.9 81.9 2.85 91.85 4.95 104.1 7.05 113.65 11.2 116.65 12.1 116.2 13.6 121.75 13.75 125.95 14.7 131.15 15.7 122.1 16.9 123.45 17.6 122.25 18.4 L122.6 18.5 124.25 18.45 Q128.5 18.4 135.15 19.6 143.25 20.8 139.85 22.55 136.4 24.3 125.1 25.7 113.8 27.1 116.6 27.6 119.4 28.1 122.7 28.8 126.3 29.6 126.35 30.4 126.7 31.3 119.55 32.7 121.7 33.15 120.85 33.85 125.6 34.2 123.25 35.55 122.25 37.35 104.55 38.35 111.25 40.4 108.25 41.45 105.55 43.95 106.65 44.95 107.05 46.5 102.65 47.3 99.65 48.25 91.75 48.65 L77.75 49.2 Q73.5 49.25 68.65 49.75 65.5 50.25 71.5 48.55 77.15 46.85 68.2 46.1 60.35 45.3 52.9 45.05 45.9 44.65 44.45 43.45 43.15 42.3 51.3 39.55 41.0 40.7 38.4 40.25 22.6 40.6 31.7 38.05 29.85 37.3 34.95 35.6 L25.6 34.8 Q23.4 34.35 21.05 33.9 19.35 33.5 15.55 33.05 11.55 32.55 15.35 30.75 19.3 29.2 25.25 28.6 31.15 27.85 22.35 26.4 13.85 24.75 26.65 24.0 39.25 22.65 28.8 21.95 19.8 21.4 12.15 20.2 4.55 18.95 4.95 17.4" fill="none" stroke="#000000" stroke-linecap="round" stroke-linejoin="round" stroke-opacity="0.0" stroke-width="1.0"/>
    </g>
    <g id="morphshape1" transform="matrix(1.0, 0.0, 0.0, 1.0, -17.5, -9.15)">
      <path d="M124.6 22.3 Q124.6 23.05 125.05 23.75 125.8 24.8 128.65 24.55 L127.9 22.35 Q126.9 22.0 124.6 22.3 M101.9 32.25 Q101.9 32.6 103.0 33.4 L106.3 33.5 108.45 32.5 Q110.65 31.45 111.05 30.95 L109.55 29.75 105.35 29.35 Q101.9 29.55 101.9 32.25 M88.4 41.4 L88.4 41.45 88.85 42.2 Q90.0 42.5 91.3 42.8 L93.8 43.0 97.5 42.9 98.15 42.7 98.55 42.35 98.7 41.65 98.65 41.15 Q98.5 40.4 97.85 39.95 96.75 39.25 92.2 39.3 90.3 39.6 88.8 40.75 L88.4 41.5 M78.1 34.9 L78.4 35.6 Q79.15 36.0 80.35 36.35 L82.45 36.7 85.5 36.75 86.0 36.6 86.3 36.3 86.5 35.7 86.5 35.25 Q86.45 34.5 85.95 34.15 85.1 33.45 81.3 33.4 79.7 33.6 78.35 34.2 L78.1 34.8 M61.65 38.1 L62.2 39.0 68.55 39.4 Q72.6 39.4 75.45 37.15 75.45 35.25 69.4 35.1 63.15 35.0 61.65 38.1 M56.75 41.2 Q56.85 41.65 57.0 41.95 L60.05 41.95 Q60.5 41.7 60.75 40.1 L57.25 40.3 Q56.75 40.65 56.75 41.2 M49.0 34.9 L50.2 36.1 Q52.25 37.25 56.55 37.25 58.1 37.25 59.85 35.1 59.85 32.15 54.45 32.2 49.0 32.25 49.0 34.9 M30.3 29.6 Q30.45 30.15 33.2 31.35 36.65 32.15 40.25 32.2 L44.05 31.55 Q45.1 30.8 45.5 28.75 45.0 25.9 37.4 26.3 29.75 26.65 30.25 29.65 M20.95 13.25 Q20.95 13.7 21.4 14.4 L22.35 15.35 29.2 15.45 Q30.4 14.55 30.4 14.0 30.4 12.15 25.7 12.05 20.95 12.0 20.95 13.25" fill="#bef0d8" fill-opacity="0.7058824" fill-rule="evenodd" stroke="none"/>
      <path d="M20.95 13.25 Q20.95 12.0 25.7 12.05 30.4 12.15 30.4 14.0 30.4 14.55 29.2 15.45 L22.35 15.35 21.4 14.4 Q20.95 13.7 20.95 13.25 M30.25 29.65 Q29.75 26.65 37.4 26.3 45.0 25.9 45.5 28.75 45.1 30.8 44.05 31.55 L40.25 32.2 Q36.65 32.15 33.2 31.35 30.45 30.15 30.3 29.6 M49.0 34.9 Q49.0 32.25 54.45 32.2 59.85 32.15 59.85 35.1 58.1 37.25 56.55 37.25 52.25 37.25 50.2 36.1 L49.0 34.9 M56.75 41.2 Q56.75 40.65 57.25 40.3 L60.75 40.1 Q60.5 41.7 60.05 41.95 L57.0 41.95 Q56.85 41.65 56.75 41.2 M61.65 38.1 Q63.15 35.0 69.4 35.1 75.45 35.25 75.45 37.15 72.6 39.4 68.55 39.4 L62.2 39.0 61.65 38.1 M78.1 34.8 L78.35 34.2 Q79.7 33.6 81.3 33.4 85.1 33.45 85.95 34.15 86.45 34.5 86.5 35.25 L86.5 35.7 86.3 36.3 86.0 36.6 85.5 36.75 82.45 36.7 80.35 36.35 Q79.15 36.0 78.4 35.6 L78.1 34.9 M88.4 41.5 L88.8 40.75 Q90.3 39.6 92.2 39.3 96.75 39.25 97.85 39.95 98.5 40.4 98.65 41.15 L98.7 41.65 98.55 42.35 98.15 42.7 97.5 42.9 93.8 43.0 91.3 42.8 Q90.0 42.5 88.85 42.2 L88.4 41.45 88.4 41.4 M101.9 32.25 Q101.9 29.55 105.35 29.35 L109.55 29.75 111.05 30.95 Q110.65 31.45 108.45 32.5 L106.3 33.5 103.0 33.4 Q101.9 32.6 101.9 32.25 M124.6 22.3 Q126.9 22.0 127.9 22.35 L128.65 24.55 Q125.8 24.8 125.05 23.75 124.6 23.05 124.6 22.3 Z" fill="none" stroke="#000000" stroke-linecap="round" stroke-linejoin="round" stroke-opacity="0.0" stroke-width="1.0"/>
    </g>
    <g id="morphshape2" transform="matrix(1.0, 0.0, 0.0, 1.0, -37.6, -4.7)">
      <path d="M105.5 17.7 Q105.5 18.85 105.75 19.25 L106.55 19.8 Q109.25 19.05 110.35 18.55 111.05 18.05 110.0 15.0 107.6 15.2 106.55 15.85 105.5 16.45 105.5 17.7 M92.7 18.4 Q92.7 19.45 93.3 20.05 L96.35 20.25 Q96.8 19.25 96.55 17.15 L92.8 17.05 92.7 18.4 M91.4 9.95 Q91.4 11.0 91.8 11.9 L97.75 11.9 Q98.8 10.85 98.8 7.35 94.1 6.9 92.45 7.75 91.4 8.35 91.4 9.95 M83.05 18.3 Q83.1 19.25 83.85 21.1 84.5 21.55 86.05 21.7 L86.85 20.5 Q87.35 19.8 86.65 18.0 L83.05 18.3 M76.5 12.2 Q76.1 14.1 76.9 15.6 77.9 17.35 80.15 17.35 81.3 17.35 82.5 15.6 81.65 13.2 80.0 12.55 L76.5 12.2 M64.85 10.8 L64.9 12.25 65.25 12.8 70.7 13.55 74.0 13.95 Q75.75 13.95 74.65 11.5 74.65 8.45 69.75 8.3 64.85 8.2 64.85 10.8 M56.05 19.1 L56.05 19.15 56.15 20.15 56.4 20.5 Q56.8 20.65 57.25 20.7 58.15 20.75 59.3 20.8 L62.55 20.55 Q62.75 19.3 62.25 16.75 61.5 15.3 60.8 14.45 59.6 13.55 58.3 13.95 56.1 15.05 56.1 19.05 M51.25 12.75 L51.3 13.65 51.45 13.85 Q51.65 14.15 51.95 14.2 L53.55 14.45 Q55.1 14.0 55.95 13.95 56.2 12.75 56.05 10.95 55.5 9.75 55.0 8.9 54.0 8.5 52.95 8.7 51.15 9.7 51.15 12.75 M39.95 12.8 L41.05 14.9 Q42.75 17.05 45.75 17.05 49.65 17.05 49.65 13.85 49.65 10.85 44.8 10.05 39.95 9.2 39.95 12.8" fill="#bef0d8" fill-opacity="0.7058824" fill-rule="evenodd" stroke="none"/>
      <path d="M39.95 12.8 Q39.95 9.2 44.8 10.05 49.65 10.85 49.65 13.85 49.65 17.05 45.75 17.05 42.75 17.05 41.05 14.9 L39.95 12.8 M51.15 12.75 Q51.15 9.7 52.95 8.7 54.0 8.5 55.0 8.9 55.5 9.75 56.05 10.95 56.2 12.75 55.95 13.95 55.1 14.0 53.55 14.45 L51.95 14.2 Q51.65 14.15 51.45 13.85 L51.3 13.65 51.25 12.75 M56.1 19.05 Q56.1 15.05 58.3 13.95 59.6 13.55 60.8 14.45 61.5 15.3 62.25 16.75 62.75 19.3 62.55 20.55 L59.3 20.8 Q58.15 20.75 57.25 20.7 56.8 20.65 56.4 20.5 L56.15 20.15 56.05 19.15 56.05 19.1 M64.85 10.8 Q64.85 8.2 69.75 8.3 74.65 8.45 74.65 11.5 75.75 13.95 74.0 13.95 L70.7 13.55 65.25 12.8 64.9 12.25 64.85 10.8 M76.5 12.2 L80.0 12.55 Q81.65 13.2 82.5 15.6 81.3 17.35 80.15 17.35 77.9 17.35 76.9 15.6 76.1 14.1 76.5 12.2 M83.05 18.3 L86.65 18.0 Q87.35 19.8 86.85 20.5 L86.05 21.7 Q84.5 21.55 83.85 21.1 83.1 19.25 83.05 18.3 M91.4 9.95 Q91.4 8.35 92.45 7.75 94.1 6.9 98.8 7.35 98.8 10.85 97.75 11.9 L91.8 11.9 Q91.4 11.0 91.4 9.95 M92.7 18.4 L92.8 17.05 96.55 17.15 Q96.8 19.25 96.35 20.25 L93.3 20.05 Q92.7 19.45 92.7 18.4 M105.5 17.7 Q105.5 16.45 106.55 15.85 107.6 15.2 110.0 15.0 111.05 18.05 110.35 18.55 109.25 19.05 106.55 19.8 L105.75 19.25 Q105.5 18.85 105.5 17.7 Z" fill="none" stroke="#000000" stroke-linecap="round" stroke-linejoin="round" stroke-opacity="0.0" stroke-width="1.0"/>
    </g>
    <g id="morphshape3" transform="matrix(1.0, 0.0, 0.0, 1.0, -32.35, -6.65)">
      <path d="M93.9 9.05 Q93.9 10.2 94.05 10.6 L94.5 11.35 96.5 11.35 97.0 10.85 97.15 9.65 96.9 8.15 Q96.6 7.7 94.05 7.65 93.9 7.3 93.9 9.05 M68.85 10.85 Q68.65 11.25 69.3 12.0 69.7 12.3 70.5 12.5 71.85 12.55 73.2 12.35 73.6 11.85 73.5 11.15 72.65 10.95 69.25 10.25 L68.8 10.8 M65.95 35.05 L66.25 37.0 Q66.45 38.05 66.9 38.9 L70.4 38.9 Q70.6 38.6 70.9 38.45 L70.5 35.35 66.95 34.8 Q66.15 34.75 65.95 35.05 M43.2 14.55 L43.4 15.9 43.75 16.4 45.3 16.45 Q46.35 16.45 46.95 16.0 47.15 15.85 47.15 14.1 47.15 12.95 46.8 12.4 L46.1 11.75 43.3 12.85 43.2 14.55 M35.85 29.2 L36.1 30.2 Q36.45 31.0 36.9 31.3 41.0 30.75 41.0 28.35 41.0 27.25 40.65 26.95 L39.8 26.6 38.05 26.85 36.2 27.0 35.85 29.2" fill="#ffffff" fill-opacity="0.7058824" fill-rule="evenodd" stroke="none"/>
      <path d="M35.85 29.2 L36.2 27.0 38.05 26.85 39.8 26.6 40.65 26.95 Q41.0 27.25 41.0 28.35 41.0 30.75 36.9 31.3 36.45 31.0 36.1 30.2 L35.85 29.2 M43.2 14.55 L43.3 12.85 46.1 11.75 46.8 12.4 Q47.15 12.95 47.15 14.1 47.15 15.85 46.95 16.0 46.35 16.45 45.3 16.45 L43.75 16.4 43.4 15.9 43.2 14.55 M65.95 35.05 Q66.15 34.75 66.95 34.8 L70.5 35.35 70.9 38.45 Q70.6 38.6 70.4 38.9 L66.9 38.9 Q66.45 38.05 66.25 37.0 L65.95 35.05 M68.8 10.8 L69.25 10.25 Q72.65 10.95 73.5 11.15 73.6 11.85 73.2 12.35 71.85 12.55 70.5 12.5 69.7 12.3 69.3 12.0 68.65 11.25 68.85 10.85 M93.9 9.05 Q93.9 7.3 94.05 7.65 96.6 7.7 96.9 8.15 L97.15 9.65 97.0 10.85 96.5 11.35 94.5 11.35 94.05 10.6 Q93.9 10.2 93.9 9.05 Z" fill="none" stroke="#000000" stroke-linecap="round" stroke-linejoin="round" stroke-opacity="0.0" stroke-width="1.0"/>
    </g>
  </defs>
</svg>
