<?xml version="1.0" encoding="UTF-8" standalone="no"?>
<svg xmlns:xlink="http://www.w3.org/1999/xlink" height="47.45px" width="141.0px" xmlns="http://www.w3.org/2000/svg">
  <g transform="matrix(1.0, 0.0, 0.0, 1.0, -4.35, -2.9)">
    <use data-characterId="3188" height="47.45" transform="matrix(1.0, 0.0, 0.0, 1.0, 4.35, 2.9)" width="141.0" xlink:href="#morphshape0"/>
    <use data-characterId="3189" height="37.5" transform="matrix(1.0, 0.0, 0.0, 1.0, 17.5, 9.15)" width="116.05" xlink:href="#morphshape1"/>
    <use data-characterId="3190" height="21.8" transform="matrix(1.0, 0.0, 0.0, 1.0, 37.6, 4.7)" width="75.1" xlink:href="#morphshape2"/>
    <use data-characterId="3191" height="35.65" transform="matrix(1.0, 0.0, 0.0, 1.0, 32.35, 6.65)" width="66.65" xlink:href="#morphshape3"/>
  </g>
  <defs>
    <g id="morphshape0" transform="matrix(1.0, 0.0, 0.0, 1.0, -4.35, -2.9)">
      <path d="M5.1 17.25 Q4.55 18.8 12.9 20.15 21.25 21.45 31.15 22.05 42.1 22.75 27.65 23.95 13.05 24.7 23.0 26.4 33.15 27.95 26.45 28.65 19.7 29.25 15.15 30.9 10.7 32.7 15.05 33.15 19.25 33.55 20.9 34.0 23.0 34.45 25.15 34.8 L35.85 35.5 Q30.1 37.1 31.3 37.8 20.35 40.65 37.75 40.25 40.85 40.6 52.55 39.15 43.3 42.1 44.25 43.2 45.3 44.35 52.7 44.8 60.9 45.1 69.4 45.8 79.15 46.4 72.3 48.3 65.2 50.2 68.05 49.85 72.85 49.5 77.2 49.5 L92.15 49.0 Q100.7 48.6 103.65 47.55 107.6 46.6 106.65 45.25 105.2 44.25 108.2 41.6 110.75 40.5 102.9 38.35 122.5 37.6 124.25 35.75 126.95 34.25 121.6 33.9 121.15 33.35 118.55 32.95 126.6 31.45 126.6 30.6 126.8 29.75 122.9 28.9 119.25 28.1 115.2 27.7 111.15 27.3 123.8 26.0 136.5 24.7 140.8 22.9 145.05 21.1 136.6 19.75 129.2 18.4 124.5 18.45 L122.65 18.55 122.35 18.5 Q123.1 17.9 122.05 17.35 132.8 16.05 127.3 14.95 122.55 13.85 116.2 13.7 116.5 12.65 114.4 12.0 105.15 7.75 94.85 5.35 86.2 2.95 61.35 3.7 42.25 4.4 23.75 7.95 5.05 10.95 7.95 12.0 10.85 13.0 24.3 13.9 37.7 14.7 31.8 14.9 25.85 15.0 20.0 15.1 L11.8 15.5 4.9 16.3 Q4.65 16.65 4.85 17.05" fill="#96e0bc" fill-opacity="0.7058824" fill-rule="evenodd" stroke="none"/>
      <path d="M4.85 17.05 Q4.65 16.65 4.9 16.3 L11.8 15.5 20.0 15.1 Q25.85 15.0 31.8 14.9 37.7 14.7 24.3 13.9 10.85 13.0 7.95 12.0 5.05 10.95 23.75 7.95 42.25 4.4 61.35 3.7 86.2 2.95 94.85 5.35 105.15 7.75 114.4 12.0 116.5 12.65 116.2 13.7 122.55 13.85 127.3 14.95 132.8 16.05 122.05 17.35 123.1 17.9 122.35 18.5 L122.65 18.55 124.5 18.45 Q129.2 18.4 136.6 19.75 145.05 21.1 140.8 22.9 136.5 24.7 123.8 26.0 111.15 27.3 115.2 27.7 119.25 28.1 122.9 28.9 126.8 29.75 126.6 30.6 126.6 31.45 118.55 32.95 121.15 33.35 121.6 33.9 126.95 34.25 124.25 35.75 122.5 37.6 102.9 38.35 110.75 40.5 108.2 41.6 105.2 44.25 106.65 45.25 107.6 46.6 103.65 47.55 100.7 48.6 92.15 49.0 L77.2 49.5 Q72.85 49.5 68.05 49.85 65.2 50.2 72.3 48.3 79.15 46.4 69.4 45.8 60.9 45.1 52.7 44.8 45.3 44.35 44.25 43.2 43.3 42.1 52.55 39.15 40.85 40.6 37.75 40.25 20.35 40.65 31.3 37.8 30.1 37.1 35.85 35.5 L25.15 34.8 Q23.0 34.45 20.9 34.0 19.25 33.55 15.05 33.15 10.7 32.7 15.15 30.9 19.7 29.25 26.45 28.65 33.15 27.95 23.0 26.4 13.05 24.7 27.65 23.95 42.1 22.75 31.15 22.05 21.25 21.45 12.9 20.15 4.55 18.8 5.1 17.25" fill="none" stroke="#000000" stroke-linecap="round" stroke-linejoin="round" stroke-opacity="0.0" stroke-width="1.0"/>
    </g>
    <g id="morphshape1" transform="matrix(1.0, 0.0, 0.0, 1.0, -17.5, -9.15)">
      <path d="M126.0 22.1 Q126.0 22.85 126.45 23.55 127.2 24.6 130.05 24.35 L129.3 22.15 Q128.3 21.8 126.0 22.1 M102.2 32.75 Q102.2 33.1 103.3 33.9 L106.6 34.0 108.75 33.0 Q110.95 31.95 111.35 31.45 L109.85 30.25 105.65 29.85 Q102.2 30.05 102.2 32.75 M88.9 42.7 L89.35 43.55 Q90.6 43.8 91.95 44.05 L94.55 44.2 98.4 44.05 99.1 43.85 99.55 43.45 99.7 42.7 99.65 42.2 Q99.5 41.4 98.8 40.95 97.65 40.2 92.85 40.3 90.85 40.6 89.35 41.85 L88.9 42.6 M78.5 33.55 L78.5 33.65 78.8 34.25 Q79.45 34.7 80.6 35.1 L82.6 35.5 85.5 35.6 85.95 35.45 86.2 35.2 86.4 34.65 86.4 34.2 Q86.35 33.5 85.9 33.15 85.1 32.5 81.55 32.4 80.05 32.6 78.7 33.1 L78.5 33.7 M61.55 39.0 L62.1 39.9 68.45 40.3 Q72.5 40.3 75.35 38.05 75.35 36.15 69.3 36.0 63.05 35.9 61.55 39.0 M56.05 41.05 Q56.15 41.45 56.3 41.8 L59.35 41.8 Q59.8 41.55 60.05 39.95 L56.55 40.15 Q56.05 40.5 56.05 41.05 M49.0 34.6 L50.2 35.8 Q52.25 36.95 56.55 36.95 58.1 36.95 59.85 34.8 59.85 31.85 54.45 31.9 49.0 31.95 49.0 34.6 M30.8 29.85 Q30.95 30.4 33.75 31.5 37.25 32.1 40.85 32.15 L44.65 31.4 Q45.7 30.65 46.05 28.6 45.45 25.8 37.85 26.35 30.2 26.9 30.8 29.85 M21.45 12.45 Q21.45 12.9 21.9 13.6 L22.85 14.55 29.7 14.65 Q30.9 13.75 30.9 13.2 30.9 11.35 26.2 11.25 21.45 11.2 21.45 12.45" fill="#bef0d8" fill-opacity="0.7058824" fill-rule="evenodd" stroke="none"/>
      <path d="M21.45 12.45 Q21.45 11.2 26.2 11.25 30.9 11.35 30.9 13.2 30.9 13.75 29.7 14.65 L22.85 14.55 21.9 13.6 Q21.45 12.9 21.45 12.45 M30.8 29.85 Q30.2 26.9 37.85 26.35 45.45 25.8 46.05 28.6 45.7 30.65 44.65 31.4 L40.85 32.15 Q37.25 32.1 33.75 31.5 30.95 30.4 30.8 29.85 M49.0 34.6 Q49.0 31.95 54.45 31.9 59.85 31.85 59.85 34.8 58.1 36.95 56.55 36.95 52.25 36.95 50.2 35.8 L49.0 34.6 M56.05 41.05 Q56.05 40.5 56.55 40.15 L60.05 39.95 Q59.8 41.55 59.35 41.8 L56.3 41.8 Q56.15 41.45 56.05 41.05 M61.55 39.0 Q63.05 35.9 69.3 36.0 75.35 36.15 75.35 38.05 72.5 40.3 68.45 40.3 L62.1 39.9 61.55 39.0 M78.5 33.7 L78.7 33.1 Q80.05 32.6 81.55 32.4 85.1 32.5 85.9 33.15 86.35 33.5 86.4 34.2 L86.4 34.65 86.2 35.2 85.95 35.45 85.5 35.6 82.6 35.5 80.6 35.1 Q79.45 34.7 78.8 34.25 L78.5 33.65 78.5 33.55 M88.9 42.6 L89.35 41.85 Q90.85 40.6 92.85 40.3 97.65 40.2 98.8 40.95 99.5 41.4 99.65 42.2 L99.7 42.7 99.55 43.45 99.1 43.85 98.4 44.05 94.55 44.2 91.95 44.05 Q90.6 43.8 89.35 43.55 L88.9 42.7 M102.2 32.75 Q102.2 30.05 105.65 29.85 L109.85 30.25 111.35 31.45 Q110.95 31.95 108.75 33.0 L106.6 34.0 103.3 33.9 Q102.2 33.1 102.2 32.75 M126.0 22.1 Q128.3 21.8 129.3 22.15 L130.05 24.35 Q127.2 24.6 126.45 23.55 126.0 22.85 126.0 22.1 Z" fill="none" stroke="#000000" stroke-linecap="round" stroke-linejoin="round" stroke-opacity="0.0" stroke-width="1.0"/>
    </g>
    <g id="morphshape2" transform="matrix(1.0, 0.0, 0.0, 1.0, -37.6, -4.7)">
      <path d="M106.1 18.15 Q106.1 19.3 106.35 19.7 L107.15 20.25 Q109.95 19.5 110.95 19.0 111.65 18.5 110.6 15.45 108.2 15.65 107.15 16.3 106.1 16.9 106.1 18.15 M93.15 17.85 Q93.15 18.9 93.75 19.5 L96.8 19.7 Q97.25 18.7 97.0 16.6 L93.25 16.5 93.15 17.85 M91.9 9.65 Q91.9 10.7 92.3 11.6 L98.25 11.6 Q99.3 10.55 99.3 7.05 94.6 6.6 92.95 7.45 91.9 8.05 91.9 9.65 M83.55 17.6 Q83.6 18.55 84.35 20.4 85.0 20.85 86.55 21.0 L87.35 19.8 Q87.85 19.1 87.15 17.3 L83.55 17.6 M76.2 13.05 Q75.8 14.95 76.6 16.45 77.6 18.2 79.85 18.2 81.0 18.2 82.2 16.45 81.35 14.05 79.7 13.4 L76.2 13.05 M64.55 10.3 L64.6 11.75 64.95 12.3 70.4 13.05 73.7 13.45 Q75.45 13.45 74.35 11.0 74.35 7.95 69.45 7.8 64.55 7.7 64.55 10.3 M56.15 20.25 L56.25 21.35 56.55 21.7 Q57.0 21.8 57.45 21.8 58.45 21.85 59.65 21.9 L63.15 21.75 Q63.35 20.5 62.75 17.75 61.9 16.2 61.1 15.35 59.85 14.35 58.45 14.8 56.15 15.95 56.15 20.25 M51.65 11.35 L51.65 11.5 51.7 12.15 51.8 12.35 Q51.95 12.7 52.25 12.8 L53.75 13.1 Q55.2 12.6 55.85 12.5 56.1 11.3 56.05 9.7 55.6 8.6 55.2 7.75 54.25 7.45 53.3 7.6 51.6 8.55 51.6 11.3 M40.25 13.2 L41.35 15.3 Q43.05 17.45 46.05 17.45 49.95 17.45 49.95 14.25 49.95 11.25 45.1 10.45 40.25 9.6 40.25 13.2" fill="#bef0d8" fill-opacity="0.7058824" fill-rule="evenodd" stroke="none"/>
      <path d="M40.25 13.2 Q40.25 9.6 45.1 10.45 49.95 11.25 49.95 14.25 49.95 17.45 46.05 17.45 43.05 17.45 41.35 15.3 L40.25 13.2 M51.6 11.3 Q51.6 8.55 53.3 7.6 54.25 7.45 55.2 7.75 55.6 8.6 56.05 9.7 56.1 11.3 55.85 12.5 55.2 12.6 53.75 13.1 L52.25 12.8 Q51.95 12.7 51.8 12.35 L51.7 12.15 51.65 11.5 51.65 11.35 M56.15 20.25 Q56.15 15.95 58.45 14.8 59.85 14.35 61.1 15.35 61.9 16.2 62.75 17.75 63.35 20.5 63.15 21.75 L59.65 21.9 Q58.45 21.85 57.45 21.8 57.0 21.8 56.55 21.7 L56.25 21.35 56.15 20.25 M64.55 10.3 Q64.55 7.7 69.45 7.8 74.35 7.95 74.35 11.0 75.45 13.45 73.7 13.45 L70.4 13.05 64.95 12.3 64.6 11.75 64.55 10.3 M76.2 13.05 L79.7 13.4 Q81.35 14.05 82.2 16.45 81.0 18.2 79.85 18.2 77.6 18.2 76.6 16.45 75.8 14.95 76.2 13.05 M83.55 17.6 L87.15 17.3 Q87.85 19.1 87.35 19.8 L86.55 21.0 Q85.0 20.85 84.35 20.4 83.6 18.55 83.55 17.6 M91.9 9.65 Q91.9 8.05 92.95 7.45 94.6 6.6 99.3 7.05 99.3 10.55 98.25 11.6 L92.3 11.6 Q91.9 10.7 91.9 9.65 M93.15 17.85 L93.25 16.5 97.0 16.6 Q97.25 18.7 96.8 19.7 L93.75 19.5 Q93.15 18.9 93.15 17.85 M106.1 18.15 Q106.1 16.9 107.15 16.3 108.2 15.65 110.6 15.45 111.65 18.5 110.95 19.0 109.95 19.5 107.15 20.25 L106.35 19.7 Q106.1 19.3 106.1 18.15 Z" fill="none" stroke="#000000" stroke-linecap="round" stroke-linejoin="round" stroke-opacity="0.0" stroke-width="1.0"/>
    </g>
    <g id="morphshape3" transform="matrix(1.0, 0.0, 0.0, 1.0, -32.35, -6.65)">
      <path d="M95.45 8.3 Q95.45 9.45 95.6 9.85 L96.05 10.6 98.05 10.6 98.55 10.1 98.7 8.9 98.45 7.4 Q98.15 6.95 95.6 6.9 95.45 6.55 95.45 8.3 M68.7 10.1 Q68.45 10.45 69.0 11.35 69.35 11.8 70.15 12.1 L72.9 12.45 Q73.4 12.0 73.4 11.3 73.2 10.85 69.25 9.65 L68.7 10.1 M65.9 36.3 L66.2 38.25 Q66.4 39.3 66.85 40.15 L70.35 40.15 Q70.55 39.85 70.85 39.7 L70.45 36.6 66.9 36.05 Q66.1 36.0 65.9 36.3 M43.6 14.8 L43.8 16.15 44.15 16.65 45.7 16.7 Q46.75 16.7 47.35 16.25 47.55 16.1 47.55 14.35 47.55 13.2 47.2 12.65 L46.5 12.0 43.7 13.1 43.6 14.8 M36.35 29.2 L36.6 30.2 Q36.95 31.0 37.4 31.3 41.5 30.75 41.5 28.35 41.5 27.25 41.15 26.95 L40.3 26.6 38.55 26.85 36.7 27.0 36.35 29.2" fill="#ffffff" fill-opacity="0.7058824" fill-rule="evenodd" stroke="none"/>
      <path d="M36.35 29.2 L36.7 27.0 38.55 26.85 40.3 26.6 41.15 26.95 Q41.5 27.25 41.5 28.35 41.5 30.75 37.4 31.3 36.95 31.0 36.6 30.2 L36.35 29.2 M43.6 14.8 L43.7 13.1 46.5 12.0 47.2 12.65 Q47.55 13.2 47.55 14.35 47.55 16.1 47.35 16.25 46.75 16.7 45.7 16.7 L44.15 16.65 43.8 16.15 43.6 14.8 M65.9 36.3 Q66.1 36.0 66.9 36.05 L70.45 36.6 70.85 39.7 Q70.55 39.85 70.35 40.15 L66.85 40.15 Q66.4 39.3 66.2 38.25 L65.9 36.3 M68.7 10.1 L69.25 9.65 Q73.2 10.85 73.4 11.3 73.4 12.0 72.9 12.45 L70.15 12.1 Q69.35 11.8 69.0 11.35 68.45 10.45 68.7 10.1 M95.45 8.3 Q95.45 6.55 95.6 6.9 98.15 6.95 98.45 7.4 L98.7 8.9 98.55 10.1 98.05 10.6 96.05 10.6 95.6 9.85 Q95.45 9.45 95.45 8.3 Z" fill="none" stroke="#000000" stroke-linecap="round" stroke-linejoin="round" stroke-opacity="0.0" stroke-width="1.0"/>
    </g>
  </defs>
</svg>
