<?xml version="1.0" encoding="UTF-8" standalone="no"?>
<svg xmlns:xlink="http://www.w3.org/1999/xlink" height="47.45px" width="141.0px" xmlns="http://www.w3.org/2000/svg">
  <g transform="matrix(1.0, 0.0, 0.0, 1.0, -4.35, -2.9)">
    <use data-characterId="3188" height="47.45" transform="matrix(1.0, 0.0, 0.0, 1.0, 4.35, 2.9)" width="141.0" xlink:href="#morphshape0"/>
    <use data-characterId="3189" height="37.5" transform="matrix(1.0, 0.0, 0.0, 1.0, 17.5, 9.15)" width="116.05" xlink:href="#morphshape1"/>
    <use data-characterId="3190" height="21.8" transform="matrix(1.0, 0.0, 0.0, 1.0, 37.6, 4.7)" width="75.1" xlink:href="#morphshape2"/>
    <use data-characterId="3191" height="35.65" transform="matrix(1.0, 0.0, 0.0, 1.0, 32.35, 6.65)" width="66.65" xlink:href="#morphshape3"/>
  </g>
  <defs>
    <g id="morphshape0" transform="matrix(1.0, 0.0, 0.0, 1.0, -4.35, -2.9)">
      <path d="M4.65 16.95 Q4.05 18.5 12.8 19.9 21.6 21.25 32.05 21.85 43.3 22.5 27.7 23.6 11.95 24.35 22.85 26.1 33.9 27.75 26.7 28.4 19.5 29.0 14.55 30.7 9.7 32.5 14.25 32.95 18.7 33.35 20.3 33.85 22.25 34.35 24.4 34.65 L35.9 35.35 Q29.75 36.9 30.55 37.55 18.45 40.6 36.85 40.15 40.25 40.45 52.85 38.8 42.9 41.9 43.65 43.0 44.45 44.1 52.1 44.55 60.8 44.9 69.7 45.55 79.95 46.1 72.4 48.15 64.65 50.2 67.35 49.95 72.1 49.7 76.5 49.7 L92.0 49.25 Q100.95 48.85 103.9 47.75 107.6 46.7 106.3 45.5 104.6 44.55 107.75 41.8 110.05 40.65 101.5 38.4 122.3 37.8 124.55 35.9 127.5 34.25 121.75 33.85 120.5 33.35 117.65 33.0 126.25 31.5 126.45 30.65 126.8 29.8 122.75 28.9 118.85 28.1 114.0 27.75 109.2 27.4 122.7 26.15 136.25 24.9 141.1 23.05 145.9 21.2 137.25 19.7 129.4 18.2 124.45 18.25 L122.5 18.35 122.25 18.3 Q122.75 17.8 121.85 17.35 133.65 16.0 128.0 14.85 122.9 13.7 116.1 13.55 116.35 12.75 114.75 12.3 105.7 8.0 96.6 5.45 88.75 2.9 63.5 3.45 44.4 4.0 24.45 7.6 4.3 10.75 7.4 11.85 10.5 12.9 24.95 13.8 39.35 14.65 33.05 14.85 26.7 14.95 20.4 15.05 L12.3 15.4 4.9 16.25 Q4.7 16.55 4.85 16.85" fill="#96e0bc" fill-opacity="0.7058824" fill-rule="evenodd" stroke="none"/>
      <path d="M4.85 16.85 Q4.7 16.55 4.9 16.25 L12.3 15.4 20.4 15.05 Q26.7 14.95 33.05 14.85 39.35 14.65 24.95 13.8 10.5 12.9 7.4 11.85 4.3 10.75 24.45 7.6 44.4 4.0 63.5 3.45 88.75 2.9 96.6 5.45 105.7 8.0 114.75 12.3 116.35 12.75 116.1 13.55 122.9 13.7 128.0 14.85 133.65 16.0 121.85 17.35 122.75 17.8 122.25 18.3 L122.5 18.35 124.45 18.25 Q129.4 18.2 137.25 19.7 145.9 21.2 141.1 23.05 136.25 24.9 122.7 26.15 109.2 27.4 114.0 27.75 118.85 28.1 122.75 28.9 126.8 29.8 126.45 30.65 126.25 31.5 117.65 33.0 120.5 33.35 121.75 33.85 127.5 34.25 124.55 35.9 122.3 37.8 101.5 38.4 110.05 40.65 107.75 41.8 104.6 44.55 106.3 45.5 107.6 46.7 103.9 47.75 100.95 48.85 92.0 49.25 L76.5 49.7 Q72.1 49.7 67.35 49.95 64.65 50.2 72.4 48.15 79.95 46.1 69.7 45.55 60.8 44.9 52.1 44.55 44.45 44.1 43.65 43.0 42.9 41.9 52.85 38.8 40.25 40.45 36.85 40.15 18.45 40.6 30.55 37.55 29.75 36.9 35.9 35.35 L24.4 34.65 Q22.25 34.35 20.3 33.85 18.7 33.35 14.25 32.95 9.7 32.5 14.55 30.7 19.5 29.0 26.7 28.4 33.9 27.75 22.85 26.1 11.95 24.35 27.7 23.6 43.3 22.5 32.05 21.85 21.6 21.25 12.8 19.9 4.05 18.5 4.65 16.95" fill="none" stroke="#000000" stroke-linecap="round" stroke-linejoin="round" stroke-opacity="0.0" stroke-width="1.0"/>
    </g>
    <g id="morphshape1" transform="matrix(1.0, 0.0, 0.0, 1.0, -17.5, -9.15)">
      <path d="M126.9 22.0 Q126.9 22.75 127.35 23.45 128.1 24.5 130.95 24.25 L130.2 22.05 Q129.2 21.7 126.9 22.0 M102.4 33.1 Q102.4 33.45 103.5 34.25 L106.8 34.35 108.95 33.35 Q111.15 32.3 111.55 31.8 L110.05 30.6 105.85 30.2 Q102.4 30.4 102.4 33.1 M89.2 43.2 L89.7 44.05 Q91.0 44.3 92.4 44.55 L95.05 44.7 99.0 44.55 99.7 44.35 100.15 43.95 100.3 43.15 100.25 42.65 Q100.1 41.85 99.4 41.4 98.2 40.65 93.3 40.8 91.25 41.1 89.7 42.45 L89.2 43.25 M78.8 33.1 L78.8 33.2 79.05 33.75 Q79.65 34.2 80.75 34.6 L82.7 35.0 85.5 35.1 85.95 34.95 86.2 34.7 86.4 34.2 86.4 33.75 Q86.35 33.05 85.9 32.7 85.15 32.05 81.7 31.9 80.25 32.1 78.95 32.5 L78.8 33.05 M61.5 39.55 L62.05 40.45 68.4 40.85 Q72.45 40.85 75.3 38.6 75.3 36.7 69.25 36.55 63.0 36.45 61.5 39.55 M55.6 41.0 Q55.7 41.4 55.85 41.75 L58.9 41.75 Q59.35 41.5 59.6 39.9 L56.1 40.1 Q55.6 40.45 55.6 41.0 M49.0 34.4 L50.2 35.6 Q52.25 36.75 56.55 36.75 58.1 36.75 59.85 34.6 59.85 31.65 54.45 31.7 49.0 31.75 49.0 34.4 M31.05 30.0 Q31.2 30.55 34.0 31.6 37.55 32.1 41.15 32.15 L44.95 31.3 Q46.0 30.5 46.35 28.45 45.75 25.65 38.15 26.35 30.5 27.0 31.1 29.95 M21.75 11.9 Q21.75 12.35 22.2 13.05 L23.15 14.0 30.0 14.1 Q31.2 13.2 31.2 12.65 31.2 10.8 26.5 10.7 21.75 10.65 21.75 11.9" fill="#bef0d8" fill-opacity="0.7058824" fill-rule="evenodd" stroke="none"/>
      <path d="M21.75 11.9 Q21.75 10.65 26.5 10.7 31.2 10.8 31.2 12.65 31.2 13.2 30.0 14.1 L23.15 14.0 22.2 13.05 Q21.75 12.35 21.75 11.9 M31.1 29.95 Q30.5 27.0 38.15 26.35 45.75 25.65 46.35 28.45 46.0 30.5 44.95 31.3 L41.15 32.15 Q37.55 32.1 34.0 31.6 31.2 30.55 31.05 30.0 M49.0 34.4 Q49.0 31.75 54.45 31.7 59.85 31.65 59.85 34.6 58.1 36.75 56.55 36.75 52.25 36.75 50.2 35.6 L49.0 34.4 M55.6 41.0 Q55.6 40.45 56.1 40.1 L59.6 39.9 Q59.35 41.5 58.9 41.75 L55.85 41.75 Q55.7 41.4 55.6 41.0 M61.5 39.55 Q63.0 36.45 69.25 36.55 75.3 36.7 75.3 38.6 72.45 40.85 68.4 40.85 L62.05 40.45 61.5 39.55 M78.8 33.05 L78.95 32.5 Q80.25 32.1 81.7 31.9 85.15 32.05 85.9 32.7 86.35 33.05 86.4 33.75 L86.4 34.2 86.2 34.7 85.95 34.95 85.5 35.1 82.7 35.0 80.75 34.6 Q79.65 34.2 79.05 33.75 L78.8 33.2 78.8 33.1 M89.2 43.25 L89.7 42.45 Q91.25 41.1 93.3 40.8 98.2 40.65 99.4 41.4 100.1 41.85 100.25 42.65 L100.3 43.15 100.15 43.95 99.7 44.35 99.0 44.55 95.05 44.7 92.4 44.55 Q91.0 44.3 89.7 44.05 L89.2 43.2 M102.4 33.1 Q102.4 30.4 105.85 30.2 L110.05 30.6 111.55 31.8 Q111.15 32.3 108.95 33.35 L106.8 34.35 103.5 34.25 Q102.4 33.45 102.4 33.1 M126.9 22.0 Q129.2 21.7 130.2 22.05 L130.95 24.25 Q128.1 24.5 127.35 23.45 126.9 22.75 126.9 22.0 Z" fill="none" stroke="#000000" stroke-linecap="round" stroke-linejoin="round" stroke-opacity="0.0" stroke-width="1.0"/>
    </g>
    <g id="morphshape2" transform="matrix(1.0, 0.0, 0.0, 1.0, -37.6, -4.7)">
      <path d="M106.45 18.4 Q106.45 19.55 106.7 19.95 L107.5 20.5 Q110.4 19.75 111.3 19.25 112.0 18.75 110.95 15.7 108.55 15.9 107.5 16.55 106.45 17.15 106.45 18.4 M93.4 17.5 Q93.4 18.55 94.0 19.15 L97.05 19.35 Q97.5 18.35 97.25 16.25 L93.5 16.15 93.4 17.5 M92.2 9.5 Q92.2 10.55 92.6 11.45 L98.55 11.45 Q99.6 10.4 99.6 6.9 94.9 6.45 93.25 7.3 92.2 7.9 92.2 9.5 M83.85 17.2 Q83.9 18.15 84.65 20.0 85.3 20.45 86.85 20.6 L87.65 19.4 Q88.15 18.7 87.45 16.9 L83.85 17.2 M76.0 13.55 Q75.6 15.45 76.4 16.95 77.4 18.7 79.65 18.7 80.8 18.7 82.0 16.95 81.15 14.55 79.5 13.9 L76.0 13.55 M64.35 10.0 L64.4 11.45 64.75 12.0 70.2 12.75 73.5 13.15 Q75.25 13.15 74.15 10.7 74.15 7.65 69.25 7.5 64.35 7.4 64.35 10.0 M56.15 20.95 L56.25 22.1 56.6 22.5 Q57.05 22.6 57.55 22.6 58.65 22.65 59.85 22.7 L63.5 22.55 Q63.7 21.3 63.05 18.4 62.15 16.8 61.3 15.95 60.0 14.9 58.55 15.4 56.15 16.55 56.15 21.0 M51.8 10.45 L51.8 10.6 51.85 11.25 51.9 11.4 Q52.05 11.75 52.3 11.85 L53.75 12.2 Q55.2 11.65 55.75 11.55 56.0 10.35 56.0 8.9 55.6 7.85 55.25 7.0 54.35 6.75 53.45 6.85 51.85 7.8 51.85 10.4 M40.45 13.4 L41.55 15.5 Q43.25 17.65 46.25 17.65 50.15 17.65 50.15 14.45 50.15 11.45 45.3 10.65 40.45 9.8 40.45 13.4" fill="#bef0d8" fill-opacity="0.7058824" fill-rule="evenodd" stroke="none"/>
      <path d="M40.45 13.4 Q40.45 9.8 45.3 10.65 50.15 11.45 50.15 14.45 50.15 17.65 46.25 17.65 43.25 17.65 41.55 15.5 L40.45 13.4 M51.85 10.4 Q51.85 7.8 53.45 6.85 54.35 6.75 55.25 7.0 55.6 7.85 56.0 8.9 56.0 10.35 55.75 11.55 55.2 11.65 53.75 12.2 L52.3 11.85 Q52.05 11.75 51.9 11.4 L51.85 11.25 51.8 10.6 51.8 10.45 M56.15 21.0 Q56.15 16.55 58.55 15.4 60.0 14.9 61.3 15.95 62.15 16.8 63.05 18.4 63.7 21.3 63.5 22.55 L59.85 22.7 Q58.65 22.65 57.55 22.6 57.05 22.6 56.6 22.5 L56.25 22.1 56.15 20.95 M64.35 10.0 Q64.35 7.4 69.25 7.5 74.15 7.65 74.15 10.7 75.25 13.15 73.5 13.15 L70.2 12.75 64.75 12.0 64.4 11.45 64.35 10.0 M76.0 13.55 L79.5 13.9 Q81.15 14.55 82.0 16.95 80.8 18.7 79.65 18.7 77.4 18.7 76.4 16.95 75.6 15.45 76.0 13.55 M83.85 17.2 L87.45 16.9 Q88.15 18.7 87.65 19.4 L86.85 20.6 Q85.3 20.45 84.65 20.0 83.9 18.15 83.85 17.2 M92.2 9.5 Q92.2 7.9 93.25 7.3 94.9 6.45 99.6 6.9 99.6 10.4 98.55 11.45 L92.6 11.45 Q92.2 10.55 92.2 9.5 M93.4 17.5 L93.5 16.15 97.25 16.25 Q97.5 18.35 97.05 19.35 L94.0 19.15 Q93.4 18.55 93.4 17.5 M106.45 18.4 Q106.45 17.15 107.5 16.55 108.55 15.9 110.95 15.7 112.0 18.75 111.3 19.25 110.4 19.75 107.5 20.5 L106.7 19.95 Q106.45 19.55 106.45 18.4 Z" fill="none" stroke="#000000" stroke-linecap="round" stroke-linejoin="round" stroke-opacity="0.0" stroke-width="1.0"/>
    </g>
    <g id="morphshape3" transform="matrix(1.0, 0.0, 0.0, 1.0, -32.35, -6.65)">
      <path d="M95.5 8.25 Q95.5 9.4 95.65 9.8 L96.1 10.55 98.1 10.55 98.6 10.05 98.75 8.85 98.5 7.35 Q98.2 6.9 95.65 6.85 95.5 6.5 95.5 8.25 M68.65 9.85 Q68.4 10.2 68.95 11.1 69.25 11.55 70.1 11.85 L72.85 12.2 Q73.35 11.75 73.35 11.05 73.15 10.6 69.2 9.4 L68.65 9.85 M65.85 36.85 L66.15 38.8 Q66.35 39.85 66.8 40.7 L70.3 40.7 Q70.5 40.4 70.8 40.25 L70.4 37.15 66.85 36.6 Q66.05 36.55 65.85 36.85 M43.85 14.95 L44.05 16.3 44.4 16.8 45.95 16.85 Q47.0 16.85 47.6 16.4 47.8 16.25 47.8 14.5 47.8 13.35 47.45 12.8 L46.75 12.15 43.95 13.25 43.85 14.95 M36.65 29.2 L36.9 30.2 Q37.25 31.0 37.7 31.3 41.8 30.75 41.8 28.35 41.8 27.25 41.45 26.95 L40.6 26.6 38.85 26.85 37.0 27.0 36.65 29.2" fill="#ffffff" fill-opacity="0.7058824" fill-rule="evenodd" stroke="none"/>
      <path d="M36.65 29.2 L37.0 27.0 38.85 26.85 40.6 26.6 41.45 26.95 Q41.8 27.25 41.8 28.35 41.8 30.75 37.7 31.3 37.25 31.0 36.9 30.2 L36.65 29.2 M43.85 14.95 L43.95 13.25 46.75 12.15 47.45 12.8 Q47.8 13.35 47.8 14.5 47.8 16.25 47.6 16.4 47.0 16.85 45.95 16.85 L44.4 16.8 44.05 16.3 43.85 14.95 M65.85 36.85 Q66.05 36.55 66.85 36.6 L70.4 37.15 70.8 40.25 Q70.5 40.4 70.3 40.7 L66.8 40.7 Q66.35 39.85 66.15 38.8 L65.85 36.85 M68.65 9.85 L69.2 9.4 Q73.15 10.6 73.35 11.05 73.35 11.75 72.85 12.2 L70.1 11.85 Q69.25 11.55 68.95 11.1 68.4 10.2 68.65 9.85 M95.5 8.25 Q95.5 6.5 95.65 6.85 98.2 6.9 98.5 7.35 L98.75 8.85 98.6 10.05 98.1 10.55 96.1 10.55 95.65 9.8 Q95.5 9.4 95.5 8.25 Z" fill="none" stroke="#000000" stroke-linecap="round" stroke-linejoin="round" stroke-opacity="0.0" stroke-width="1.0"/>
    </g>
  </defs>
</svg>
