<?xml version="1.0" encoding="UTF-8" standalone="no"?>
<svg xmlns:xlink="http://www.w3.org/1999/xlink" height="47.45px" width="141.0px" xmlns="http://www.w3.org/2000/svg">
  <g transform="matrix(1.0, 0.0, 0.0, 1.0, -4.35, -2.9)">
    <use data-characterId="3188" height="47.45" transform="matrix(1.0, 0.0, 0.0, 1.0, 4.35, 2.9)" width="141.0" xlink:href="#morphshape0"/>
    <use data-characterId="3189" height="37.5" transform="matrix(1.0, 0.0, 0.0, 1.0, 17.5, 9.15)" width="116.05" xlink:href="#morphshape1"/>
    <use data-characterId="3190" height="21.8" transform="matrix(1.0, 0.0, 0.0, 1.0, 37.6, 4.7)" width="75.1" xlink:href="#morphshape2"/>
    <use data-characterId="3191" height="35.65" transform="matrix(1.0, 0.0, 0.0, 1.0, 32.35, 6.65)" width="66.65" xlink:href="#morphshape3"/>
  </g>
  <defs>
    <g id="morphshape0" transform="matrix(1.0, 0.0, 0.0, 1.0, -4.35, -2.9)">
      <path d="M4.8 18.9 Q5.2 20.4 9.1 21.25 13.05 21.9 17.4 22.35 25.45 23.25 22.6 25.45 19.2 26.15 20.1 27.55 21.7 28.45 19.9 29.35 18.1 30.05 17.3 31.15 16.8 32.95 18.95 33.6 20.7 34.1 22.7 34.35 26.4 34.6 28.7 35.5 L31.15 36.65 Q29.35 38.65 34.45 39.55 34.95 40.35 42.4 40.35 42.45 41.4 45.3 41.8 43.05 43.3 46.15 44.7 49.6 46.25 54.5 46.4 58.0 46.5 62.55 47.95 67.4 49.4 67.9 49.85 67.55 50.3 72.05 49.05 77.2 47.7 80.95 47.55 L90.1 46.65 Q94.7 46.25 97.9 45.7 104.6 45.65 107.15 43.05 107.9 41.85 109.1 40.05 114.35 39.25 113.55 37.95 121.25 35.7 118.3 34.25 118.7 33.8 117.15 33.65 124.8 32.25 124.75 31.5 127.3 30.45 125.25 29.5 124.05 28.85 121.85 28.2 120.55 27.85 124.3 26.9 128.05 25.95 132.2 23.9 136.35 21.85 135.3 20.45 134.1 18.95 127.7 18.65 125.0 18.35 123.0 18.4 L122.45 18.4 121.85 18.15 Q125.4 16.4 122.55 14.85 122.65 14.3 118.8 13.85 117.65 13.55 116.1 13.5 117.25 9.9 109.8 7.7 98.7 4.0 76.25 3.4 59.65 2.8 38.75 5.45 19.8 7.95 16.1 10.95 11.8 12.15 12.8 12.85 13.8 13.5 17.35 14.15 20.75 14.65 18.75 14.95 17.0 15.0 15.35 15.2 L6.6 16.1 4.85 16.3 Q4.1 17.6 4.75 18.95" fill="#96e0bc" fill-opacity="0.7058824" fill-rule="evenodd" stroke="none"/>
      <path d="M4.75 18.95 Q4.1 17.6 4.85 16.3 L6.6 16.1 15.35 15.2 Q17.0 15.0 18.75 14.95 20.75 14.65 17.35 14.15 13.8 13.5 12.8 12.85 11.8 12.15 16.1 10.95 19.8 7.95 38.75 5.45 59.65 2.8 76.25 3.4 98.7 4.0 109.8 7.7 117.25 9.9 116.1 13.5 117.65 13.55 118.8 13.85 122.65 14.3 122.55 14.85 125.4 16.4 121.85 18.15 L122.45 18.4 123.0 18.4 Q125.0 18.35 127.7 18.65 134.1 18.95 135.3 20.45 136.35 21.85 132.2 23.9 128.05 25.95 124.3 26.9 120.55 27.85 121.85 28.2 124.05 28.85 125.25 29.5 127.3 30.45 124.75 31.5 124.8 32.25 117.15 33.65 118.7 33.8 118.3 34.25 121.25 35.7 113.55 37.95 114.35 39.25 109.1 40.05 107.9 41.85 107.15 43.05 104.6 45.65 97.9 45.7 94.7 46.25 90.1 46.65 L80.95 47.55 Q77.2 47.7 72.05 49.05 67.55 50.3 67.9 49.85 67.4 49.4 62.55 47.95 58.0 46.5 54.5 46.4 49.6 46.25 46.15 44.7 43.05 43.3 45.3 41.8 42.45 41.4 42.4 40.35 34.95 40.35 34.45 39.55 29.35 38.65 31.15 36.65 L28.7 35.5 Q26.4 34.6 22.7 34.35 20.7 34.1 18.95 33.6 16.8 32.95 17.3 31.15 18.1 30.05 19.9 29.35 21.7 28.45 20.1 27.55 19.2 26.15 22.6 25.45 25.45 23.25 17.4 22.35 13.05 21.9 9.1 21.25 5.2 20.4 4.8 18.9" fill="none" stroke="#000000" stroke-linecap="round" stroke-linejoin="round" stroke-opacity="0.0" stroke-width="1.0"/>
    </g>
    <g id="morphshape1" transform="matrix(1.0, 0.0, 0.0, 1.0, -17.5, -9.15)">
      <path d="M117.35 23.25 Q117.35 24.0 117.8 24.7 118.55 25.75 121.4 25.5 L120.65 23.3 Q119.65 22.95 117.35 23.25 M100.15 29.55 Q100.15 29.9 101.25 30.7 L104.55 30.8 106.7 29.8 Q108.9 28.75 109.3 28.25 L107.8 27.05 103.6 26.65 Q100.15 26.85 100.15 29.55 M85.65 35.85 L85.9 36.5 Q86.5 36.95 87.65 37.35 L89.6 37.75 92.45 37.85 92.9 37.7 93.15 37.45 93.35 36.9 93.35 36.45 Q93.3 35.75 92.85 35.4 92.1 34.75 88.65 34.65 87.2 34.85 85.9 35.25 L85.75 35.8 M76.05 40.25 L76.05 40.25 76.55 41.05 Q77.85 41.3 79.2 41.55 L81.85 41.7 85.75 41.55 86.45 41.35 86.9 40.95 87.05 40.2 87.0 39.7 Q86.85 38.9 86.15 38.45 84.95 37.7 80.05 37.8 78.0 38.1 76.45 39.45 L75.95 40.25 M62.3 33.45 L62.85 34.35 69.2 34.75 Q73.25 34.75 76.1 32.5 76.1 30.6 70.05 30.45 63.8 30.35 62.3 33.45 M60.45 42.0 Q60.5 42.5 60.7 42.75 L63.75 42.75 Q64.2 42.5 64.45 40.9 L60.95 41.1 Q60.45 41.45 60.45 42.0 M49.0 36.45 L50.2 37.65 Q52.25 38.8 56.55 38.8 58.1 38.8 59.85 36.65 59.85 33.7 54.45 33.75 49.0 33.8 49.0 36.45 M27.45 28.7 Q27.5 29.3 30.1 30.8 33.4 32.55 37.05 32.5 L40.9 32.3 Q42.05 31.75 42.7 29.75 42.55 26.85 34.95 26.25 27.3 25.65 27.45 28.7 M18.45 17.6 Q18.45 18.05 18.9 18.75 L19.85 19.7 26.7 19.8 Q27.9 18.9 27.9 18.35 27.9 16.5 23.2 16.4 18.45 16.35 18.45 17.6" fill="#bef0d8" fill-opacity="0.7058824" fill-rule="evenodd" stroke="none"/>
      <path d="M18.45 17.6 Q18.45 16.35 23.2 16.4 27.9 16.5 27.9 18.35 27.9 18.9 26.7 19.8 L19.85 19.7 18.9 18.75 Q18.45 18.05 18.45 17.6 M27.45 28.7 Q27.3 25.65 34.95 26.25 42.55 26.85 42.7 29.75 42.05 31.75 40.9 32.3 L37.05 32.5 Q33.4 32.55 30.1 30.8 27.5 29.3 27.45 28.7 M49.0 36.45 Q49.0 33.8 54.45 33.75 59.85 33.7 59.85 36.65 58.1 38.8 56.55 38.8 52.25 38.8 50.2 37.65 L49.0 36.45 M60.45 42.0 Q60.45 41.45 60.95 41.1 L64.45 40.9 Q64.2 42.5 63.75 42.75 L60.7 42.75 Q60.5 42.5 60.45 42.0 M62.3 33.45 Q63.8 30.35 70.05 30.45 76.1 30.6 76.1 32.5 73.25 34.75 69.2 34.75 L62.85 34.35 62.3 33.45 M75.95 40.25 L76.45 39.45 Q78.0 38.1 80.05 37.8 84.95 37.7 86.15 38.45 86.85 38.9 87.0 39.7 L87.05 40.2 86.9 40.95 86.45 41.35 85.75 41.55 81.85 41.7 79.2 41.55 Q77.85 41.3 76.55 41.05 L76.05 40.25 76.05 40.25 M85.75 35.8 L85.9 35.25 Q87.2 34.85 88.65 34.65 92.1 34.75 92.85 35.4 93.3 35.75 93.35 36.45 L93.35 36.9 93.15 37.45 92.9 37.7 92.45 37.85 89.6 37.75 87.65 37.35 Q86.5 36.95 85.9 36.5 L85.65 35.85 M100.15 29.55 Q100.15 26.85 103.6 26.65 L107.8 27.05 109.3 28.25 Q108.9 28.75 106.7 29.8 L104.55 30.8 101.25 30.7 Q100.15 29.9 100.15 29.55 M117.35 23.25 Q119.65 22.95 120.65 23.3 L121.4 25.5 Q118.55 25.75 117.8 24.7 117.35 24.0 117.35 23.25 Z" fill="none" stroke="#000000" stroke-linecap="round" stroke-linejoin="round" stroke-opacity="0.0" stroke-width="1.0"/>
    </g>
    <g id="morphshape2" transform="matrix(1.0, 0.0, 0.0, 1.0, -37.6, -4.7)">
      <path d="M102.4 15.4 Q102.4 16.55 102.65 16.95 L103.45 17.5 Q105.6 16.8 107.25 16.25 107.95 15.75 106.9 12.7 104.5 12.9 103.45 13.55 102.4 14.15 102.4 15.4 M90.4 21.2 Q90.4 22.25 91.0 22.85 L94.05 23.05 Q94.5 22.05 94.25 19.95 L90.5 19.85 90.4 21.2 M88.85 11.45 Q88.85 12.5 89.25 13.4 L95.2 13.4 Q96.25 12.35 96.25 8.85 91.55 8.4 89.9 9.25 88.85 9.85 88.85 11.45 M80.55 21.75 Q80.6 22.7 81.35 24.55 82.0 25.0 83.55 25.15 L84.35 23.95 Q84.85 23.25 84.15 21.45 L80.55 21.75 M78.1 7.9 Q77.7 9.8 78.5 11.3 79.5 13.05 81.75 13.05 82.9 13.05 84.1 11.3 83.25 8.9 81.6 8.25 L78.1 7.9 M66.3 13.35 L66.35 14.8 66.7 15.35 72.15 16.1 75.45 16.5 Q77.2 16.5 76.1 14.05 76.1 11.0 71.2 10.85 66.3 10.75 66.3 13.35 M55.95 12.95 L56.0 13.75 56.1 13.9 Q56.25 14.25 56.5 14.35 56.95 14.5 57.95 14.65 L60.0 14.05 Q60.25 12.85 60.25 11.35 59.8 10.3 59.4 9.45 58.5 9.2 57.6 9.3 55.95 10.25 55.95 12.9 M48.85 20.15 L48.85 20.2 48.95 21.3 49.25 21.7 Q49.7 21.8 50.2 21.8 L52.45 21.9 Q54.35 21.8 56.05 21.8 56.25 20.55 55.6 17.7 54.75 16.1 53.95 15.25 52.65 14.2 51.2 14.7 48.85 15.85 48.85 20.25 M38.25 10.9 L39.35 13.0 Q41.05 15.15 44.05 15.15 47.95 15.15 47.95 11.95 47.95 8.95 43.1 8.15 38.25 7.3 38.25 10.9" fill="#bef0d8" fill-opacity="0.7058824" fill-rule="evenodd" stroke="none"/>
      <path d="M38.25 10.9 Q38.25 7.3 43.1 8.15 47.95 8.95 47.95 11.95 47.95 15.15 44.05 15.15 41.05 15.15 39.35 13.0 L38.25 10.9 M48.85 20.25 Q48.85 15.85 51.2 14.7 52.65 14.2 53.95 15.25 54.75 16.1 55.6 17.7 56.25 20.55 56.05 21.8 54.35 21.8 52.45 21.9 L50.2 21.8 Q49.7 21.8 49.25 21.7 L48.95 21.3 48.85 20.2 48.85 20.15 M55.95 12.9 Q55.95 10.25 57.6 9.3 58.5 9.2 59.4 9.45 59.8 10.3 60.25 11.35 60.25 12.85 60.0 14.05 L57.95 14.65 Q56.95 14.5 56.5 14.35 56.25 14.25 56.1 13.9 L56.0 13.75 55.95 12.95 M66.3 13.35 Q66.3 10.75 71.2 10.85 76.1 11.0 76.1 14.05 77.2 16.5 75.45 16.5 L72.15 16.1 66.7 15.35 66.35 14.8 66.3 13.35 M78.1 7.9 L81.6 8.25 Q83.25 8.9 84.1 11.3 82.9 13.05 81.75 13.05 79.5 13.05 78.5 11.3 77.7 9.8 78.1 7.9 M80.55 21.75 L84.15 21.45 Q84.85 23.25 84.35 23.95 L83.55 25.15 Q82.0 25.0 81.35 24.55 80.6 22.7 80.55 21.75 M88.85 11.45 Q88.85 9.85 89.9 9.25 91.55 8.4 96.25 8.85 96.25 12.35 95.2 13.4 L89.25 13.4 Q88.85 12.5 88.85 11.45 M90.4 21.2 L90.5 19.85 94.25 19.95 Q94.5 22.05 94.05 23.05 L91.0 22.85 Q90.4 22.25 90.4 21.2 M102.4 15.4 Q102.4 14.15 103.45 13.55 104.5 12.9 106.9 12.7 107.95 15.75 107.25 16.25 105.6 16.8 103.45 17.5 L102.65 16.95 Q102.4 16.55 102.4 15.4 Z" fill="none" stroke="#000000" stroke-linecap="round" stroke-linejoin="round" stroke-opacity="0.0" stroke-width="1.0"/>
    </g>
    <g id="morphshape3" transform="matrix(1.0, 0.0, 0.0, 1.0, -32.35, -6.65)">
      <path d="M94.65 8.75 Q94.65 9.9 94.8 10.3 L95.25 11.05 97.25 11.05 97.75 10.55 97.9 9.35 97.65 7.85 Q97.35 7.4 94.8 7.35 94.65 7.0 94.65 8.75 M69.4 12.95 Q69.15 13.3 69.7 14.2 70.25 14.6 70.85 14.95 L73.6 15.3 Q74.1 14.85 74.1 14.15 73.9 13.7 69.95 12.5 L69.4 12.95 M66.2 31.0 L66.5 32.95 Q66.7 34.0 67.15 34.85 L70.65 34.85 Q70.9 34.6 71.15 34.4 L70.75 31.3 67.2 30.75 Q66.4 30.7 66.2 31.0 M41.0 13.4 L41.2 14.75 41.55 15.25 43.1 15.3 Q44.15 15.3 44.75 14.85 44.95 14.7 44.95 12.95 44.95 11.8 44.6 11.25 L43.9 10.6 41.1 11.7 41.0 13.4 M33.35 29.2 L33.6 30.2 Q33.95 31.0 34.4 31.3 38.5 30.75 38.5 28.35 38.5 27.25 38.15 26.95 L37.3 26.6 35.55 26.85 33.7 27.0 33.35 29.2" fill="#ffffff" fill-opacity="0.7058824" fill-rule="evenodd" stroke="none"/>
      <path d="M33.35 29.2 L33.7 27.0 35.55 26.85 37.3 26.6 38.15 26.95 Q38.5 27.25 38.5 28.35 38.5 30.75 34.4 31.3 33.95 31.0 33.6 30.2 L33.35 29.2 M41.0 13.4 L41.1 11.7 43.9 10.6 44.6 11.25 Q44.95 11.8 44.95 12.95 44.95 14.7 44.75 14.85 44.15 15.3 43.1 15.3 L41.55 15.25 41.2 14.75 41.0 13.4 M66.2 31.0 Q66.4 30.7 67.2 30.75 L70.75 31.3 71.15 34.4 Q70.9 34.6 70.65 34.85 L67.15 34.85 Q66.7 34.0 66.5 32.95 L66.2 31.0 M69.4 12.95 L69.95 12.5 Q73.9 13.7 74.1 14.15 74.1 14.85 73.6 15.3 L70.85 14.95 Q70.25 14.6 69.7 14.2 69.15 13.3 69.4 12.95 M94.65 8.75 Q94.65 7.0 94.8 7.35 97.35 7.4 97.65 7.85 L97.9 9.35 97.75 10.55 97.25 11.05 95.25 11.05 94.8 10.3 Q94.65 9.9 94.65 8.75 Z" fill="none" stroke="#000000" stroke-linecap="round" stroke-linejoin="round" stroke-opacity="0.0" stroke-width="1.0"/>
    </g>
  </defs>
</svg>
