<?xml version="1.0" encoding="UTF-8" standalone="no"?>
<svg xmlns:xlink="http://www.w3.org/1999/xlink" height="47.45px" width="141.0px" xmlns="http://www.w3.org/2000/svg">
  <g transform="matrix(1.0, 0.0, 0.0, 1.0, -4.35, -2.9)">
    <use data-characterId="3188" height="47.45" transform="matrix(1.0, 0.0, 0.0, 1.0, 4.35, 2.9)" width="141.0" xlink:href="#morphshape0"/>
    <use data-characterId="3189" height="37.5" transform="matrix(1.0, 0.0, 0.0, 1.0, 17.5, 9.15)" width="116.05" xlink:href="#morphshape1"/>
    <use data-characterId="3190" height="21.8" transform="matrix(1.0, 0.0, 0.0, 1.0, 37.6, 4.7)" width="75.1" xlink:href="#morphshape2"/>
    <use data-characterId="3191" height="35.65" transform="matrix(1.0, 0.0, 0.0, 1.0, 32.35, 6.65)" width="66.65" xlink:href="#morphshape3"/>
  </g>
  <defs>
    <g id="morphshape0" transform="matrix(1.0, 0.0, 0.0, 1.0, -4.35, -2.9)">
      <path d="M4.7 17.65 Q4.4 19.2 11.75 20.45 19.1 21.6 27.75 22.15 38.05 22.9 26.2 24.3 14.1 25.05 22.05 26.7 30.3 28.1 24.7 28.85 19.1 29.45 15.4 30.95 11.85 32.75 15.7 33.25 19.35 33.7 21.05 34.1 23.5 34.5 25.7 35.0 L34.55 35.8 Q29.7 37.5 31.8 38.25 23.4 40.65 38.55 40.35 40.95 40.85 50.65 39.8 42.95 42.45 44.4 43.65 46.0 44.9 52.85 45.25 60.0 45.5 67.6 46.35 76.25 47.15 71.05 48.75 65.45 50.35 68.7 49.8 73.55 49.25 77.75 49.2 L91.4 48.6 Q99.05 48.2 102.05 47.25 106.6 46.5 106.45 44.85 105.5 43.8 108.1 41.35 111.25 40.3 105.0 38.35 121.95 37.25 122.65 35.5 124.85 34.2 120.35 33.9 121.75 33.15 119.75 32.7 126.55 31.3 126.1 30.4 126.0 29.6 122.5 28.8 119.35 28.1 117.05 27.55 114.75 27.0 125.5 25.55 136.25 24.1 139.35 22.4 142.4 20.65 134.4 19.5 128.05 18.35 123.95 18.4 L122.4 18.45 122.05 18.35 Q123.45 17.5 122.0 16.7 130.35 15.55 125.25 14.6 121.3 13.7 116.05 13.55 116.55 11.9 113.25 10.9 103.6 6.8 90.55 4.8 80.1 2.8 56.15 4.0 37.1 5.1 21.95 8.5 6.5 11.1 9.0 12.1 11.5 13.05 22.7 13.9 33.85 14.65 28.8 14.9 23.8 15.0 18.9 15.15 L10.6 15.65 4.85 16.3 Q4.5 16.9 4.8 17.5" fill="#96e0bc" fill-opacity="0.7058824" fill-rule="evenodd" stroke="none"/>
      <path d="M4.8 17.5 Q4.5 16.9 4.85 16.3 L10.6 15.65 18.9 15.15 Q23.8 15.0 28.8 14.9 33.85 14.65 22.7 13.9 11.5 13.05 9.0 12.1 6.5 11.1 21.95 8.5 37.1 5.1 56.15 4.0 80.1 2.8 90.55 4.8 103.6 6.8 113.25 10.9 116.55 11.9 116.05 13.55 121.3 13.7 125.25 14.6 130.35 15.55 122.0 16.7 123.45 17.5 122.05 18.35 L122.4 18.45 123.95 18.4 Q128.05 18.35 134.4 19.5 142.4 20.65 139.35 22.4 136.25 24.1 125.5 25.55 114.75 27.0 117.05 27.55 119.35 28.1 122.5 28.8 126.0 29.6 126.1 30.4 126.55 31.3 119.75 32.7 121.75 33.15 120.35 33.9 124.85 34.2 122.65 35.5 121.95 37.25 105.0 38.35 111.25 40.3 108.1 41.35 105.5 43.8 106.45 44.85 106.6 46.5 102.05 47.25 99.05 48.2 91.4 48.6 L77.75 49.2 Q73.55 49.25 68.7 49.8 65.45 50.35 71.05 48.75 76.25 47.15 67.6 46.35 60.0 45.5 52.85 45.25 46.0 44.9 44.4 43.65 42.95 42.45 50.65 39.8 40.95 40.85 38.55 40.35 23.4 40.65 31.8 38.25 29.7 37.5 34.55 35.8 L25.7 35.0 Q23.5 34.5 21.05 34.1 19.35 33.7 15.7 33.25 11.85 32.75 15.4 30.95 19.1 29.45 24.7 28.85 30.3 28.1 22.05 26.7 14.1 25.05 26.2 24.3 38.05 22.9 27.75 22.15 19.1 21.6 11.75 20.45 4.4 19.2 4.7 17.65" fill="none" stroke="#000000" stroke-linecap="round" stroke-linejoin="round" stroke-opacity="0.0" stroke-width="1.0"/>
    </g>
    <g id="morphshape1" transform="matrix(1.0, 0.0, 0.0, 1.0, -17.5, -9.15)">
      <path d="M124.05 22.35 Q124.05 23.1 124.5 23.8 125.25 24.85 128.1 24.6 L127.35 22.4 Q126.35 22.05 124.05 22.35 M101.75 32.05 Q101.75 32.4 102.85 33.2 L106.15 33.3 108.3 32.3 Q110.5 31.25 110.9 30.75 L109.4 29.55 105.2 29.15 Q101.75 29.35 101.75 32.05 M88.25 41.1 L88.65 41.9 Q89.75 42.2 91.05 42.5 L93.5 42.7 97.1 42.6 97.75 42.4 98.15 42.05 98.3 41.35 98.25 40.85 Q98.1 40.1 97.45 39.65 96.4 38.95 91.9 39.0 90.05 39.3 88.6 40.35 L88.2 41.05 M77.9 35.15 L77.9 35.2 78.25 35.85 Q79.05 36.25 80.25 36.6 L82.4 36.95 85.55 37.0 86.05 36.85 86.35 36.55 86.55 35.95 86.55 35.5 Q86.5 34.75 86.0 34.4 85.1 33.7 81.25 33.65 79.6 33.85 78.2 34.55 L77.95 35.2 M61.7 37.75 L62.25 38.65 68.6 39.05 Q72.65 39.05 75.5 36.8 75.5 34.9 69.45 34.75 63.2 34.65 61.7 37.75 M57.05 41.3 Q57.15 41.75 57.3 42.05 L60.35 42.05 Q60.8 41.8 61.05 40.2 L57.55 40.4 Q57.05 40.75 57.05 41.3 M49.0 35.0 L50.2 36.2 Q52.25 37.35 56.55 37.35 58.1 37.35 59.85 35.2 59.85 32.25 54.45 32.3 49.0 32.35 49.0 35.0 M30.05 29.6 Q30.2 30.15 32.95 31.35 36.4 32.2 40.0 32.25 L43.8 31.6 Q44.85 30.9 45.3 28.85 44.8 26.0 37.2 26.3 29.55 26.6 30.05 29.6 M20.8 13.6 Q20.8 14.05 21.25 14.75 L22.2 15.7 29.05 15.8 Q30.25 14.9 30.25 14.35 30.25 12.5 25.55 12.4 20.8 12.35 20.8 13.6" fill="#bef0d8" fill-opacity="0.7058824" fill-rule="evenodd" stroke="none"/>
      <path d="M20.8 13.6 Q20.8 12.35 25.55 12.4 30.25 12.5 30.25 14.35 30.25 14.9 29.05 15.8 L22.2 15.7 21.25 14.75 Q20.8 14.05 20.8 13.6 M30.05 29.6 Q29.55 26.6 37.2 26.3 44.8 26.0 45.3 28.85 44.85 30.9 43.8 31.6 L40.0 32.25 Q36.4 32.2 32.95 31.35 30.2 30.15 30.05 29.6 M49.0 35.0 Q49.0 32.35 54.45 32.3 59.85 32.25 59.85 35.2 58.1 37.35 56.55 37.35 52.25 37.35 50.2 36.2 L49.0 35.0 M57.05 41.3 Q57.05 40.75 57.55 40.4 L61.05 40.2 Q60.8 41.8 60.35 42.05 L57.3 42.05 Q57.15 41.75 57.05 41.3 M61.7 37.75 Q63.2 34.65 69.45 34.75 75.5 34.9 75.5 36.8 72.65 39.05 68.6 39.05 L62.25 38.65 61.7 37.75 M77.95 35.2 L78.2 34.55 Q79.6 33.85 81.25 33.65 85.1 33.7 86.0 34.4 86.5 34.75 86.55 35.5 L86.55 35.95 86.35 36.55 86.05 36.85 85.55 37.0 82.4 36.95 80.25 36.6 Q79.05 36.25 78.25 35.85 L77.9 35.2 77.9 35.15 M88.2 41.05 L88.6 40.35 Q90.05 39.3 91.9 39.0 96.4 38.95 97.45 39.65 98.1 40.1 98.25 40.85 L98.3 41.35 98.15 42.05 97.75 42.4 97.1 42.6 93.5 42.7 91.05 42.5 Q89.75 42.2 88.65 41.9 L88.25 41.1 M101.75 32.05 Q101.75 29.35 105.2 29.15 L109.4 29.55 110.9 30.75 Q110.5 31.25 108.3 32.3 L106.15 33.3 102.85 33.2 Q101.75 32.4 101.75 32.05 M124.05 22.35 Q126.35 22.05 127.35 22.4 L128.1 24.6 Q125.25 24.85 124.5 23.8 124.05 23.1 124.05 22.35 Z" fill="none" stroke="#000000" stroke-linecap="round" stroke-linejoin="round" stroke-opacity="0.0" stroke-width="1.0"/>
    </g>
    <g id="morphshape2" transform="matrix(1.0, 0.0, 0.0, 1.0, -37.6, -4.7)">
      <path d="M105.25 17.55 Q105.25 18.7 105.5 19.1 L106.3 19.65 Q108.95 18.9 110.1 18.4 110.8 17.9 109.75 14.85 107.35 15.05 106.3 15.7 105.25 16.3 105.25 17.55 M92.55 18.6 Q92.55 19.65 93.15 20.25 L96.2 20.45 Q96.65 19.45 96.4 17.35 L92.65 17.25 92.55 18.6 M91.2 10.05 Q91.2 11.1 91.6 12.0 L97.55 12.0 Q98.6 10.95 98.6 7.45 93.9 7.0 92.25 7.85 91.2 8.45 91.2 10.05 M82.9 18.55 Q82.95 19.5 83.7 21.35 84.35 21.8 85.9 21.95 L86.7 20.75 Q87.2 20.05 86.5 18.25 L82.9 18.55 M76.6 11.9 Q76.2 13.8 77.0 15.3 78.0 17.05 80.25 17.05 81.4 17.05 82.6 15.3 81.75 12.9 80.1 12.25 L76.6 11.9 M64.95 11.0 L65.0 12.45 65.35 13.0 70.8 13.75 74.1 14.15 Q75.85 14.15 74.75 11.7 74.75 8.65 69.85 8.5 64.95 8.4 64.95 11.0 M56.1 18.65 L56.2 19.7 56.45 20.0 Q56.8 20.15 57.2 20.2 58.1 20.25 59.25 20.3 L62.45 20.05 Q62.65 18.8 62.2 16.35 61.45 14.9 60.75 14.05 59.55 13.2 58.25 13.6 56.1 14.7 56.1 18.6 M51.0 13.25 L51.0 13.4 51.05 14.15 51.2 14.4 Q51.45 14.7 51.8 14.75 L53.45 15.0 Q55.0 14.6 55.9 14.55 56.15 13.35 55.95 11.45 55.4 10.25 54.9 9.4 53.9 8.95 52.85 9.15 51.0 10.15 51.0 13.3 M39.8 12.65 L40.9 14.75 Q42.6 16.9 45.6 16.9 49.5 16.9 49.5 13.7 49.5 10.7 44.65 9.9 39.8 9.05 39.8 12.65" fill="#bef0d8" fill-opacity="0.7058824" fill-rule="evenodd" stroke="none"/>
      <path d="M39.8 12.65 Q39.8 9.05 44.65 9.9 49.5 10.7 49.5 13.7 49.5 16.9 45.6 16.9 42.6 16.9 40.9 14.75 L39.8 12.65 M51.0 13.3 Q51.0 10.15 52.85 9.15 53.9 8.95 54.9 9.4 55.4 10.25 55.95 11.45 56.15 13.35 55.9 14.55 55.0 14.6 53.45 15.0 L51.8 14.75 Q51.45 14.7 51.2 14.4 L51.05 14.15 51.0 13.4 51.0 13.25 M56.1 18.6 Q56.1 14.7 58.25 13.6 59.55 13.2 60.75 14.05 61.45 14.9 62.2 16.35 62.65 18.8 62.45 20.05 L59.25 20.3 Q58.1 20.25 57.2 20.2 56.8 20.15 56.45 20.0 L56.2 19.7 56.1 18.65 M64.95 11.0 Q64.95 8.4 69.85 8.5 74.75 8.65 74.75 11.7 75.85 14.15 74.1 14.15 L70.8 13.75 65.35 13.0 65.0 12.45 64.95 11.0 M76.6 11.9 L80.1 12.25 Q81.75 12.9 82.6 15.3 81.4 17.05 80.25 17.05 78.0 17.05 77.0 15.3 76.2 13.8 76.6 11.9 M82.9 18.55 L86.5 18.25 Q87.2 20.05 86.7 20.75 L85.9 21.95 Q84.35 21.8 83.7 21.35 82.95 19.5 82.9 18.55 M91.2 10.05 Q91.2 8.45 92.25 7.85 93.9 7.0 98.6 7.45 98.6 10.95 97.55 12.0 L91.6 12.0 Q91.2 11.1 91.2 10.05 M92.55 18.6 L92.65 17.25 96.4 17.35 Q96.65 19.45 96.2 20.45 L93.15 20.25 Q92.55 19.65 92.55 18.6 M105.25 17.55 Q105.25 16.3 106.3 15.7 107.35 15.05 109.75 14.85 110.8 17.9 110.1 18.4 108.95 18.9 106.3 19.65 L105.5 19.1 Q105.25 18.7 105.25 17.55 Z" fill="none" stroke="#000000" stroke-linecap="round" stroke-linejoin="round" stroke-opacity="0.0" stroke-width="1.0"/>
    </g>
    <g id="morphshape3" transform="matrix(1.0, 0.0, 0.0, 1.0, -32.35, -6.65)">
      <path d="M95.25 8.4 Q95.25 9.55 95.4 9.95 L95.85 10.7 97.85 10.7 98.35 10.2 98.5 9.0 98.25 7.5 Q97.95 7.05 95.4 7.0 95.25 6.65 95.25 8.4 M68.85 10.75 Q68.6 11.1 69.15 12.0 69.55 12.45 70.3 12.75 L73.05 13.1 Q73.55 12.65 73.55 11.95 73.35 11.5 69.4 10.3 L68.85 10.75 M65.95 35.1 L66.25 37.05 Q66.45 38.1 66.9 38.95 L70.4 38.95 Q70.6 38.65 70.9 38.5 L70.5 35.4 66.95 34.85 Q66.15 34.8 65.95 35.1 M43.0 14.5 L43.2 15.85 43.55 16.35 45.1 16.4 Q46.15 16.4 46.75 15.95 46.95 15.8 46.95 14.05 46.95 12.9 46.6 12.35 L45.9 11.7 43.1 12.8 43.0 14.5 M35.65 29.2 L35.9 30.2 Q36.25 31.0 36.7 31.3 40.8 30.75 40.8 28.35 40.8 27.25 40.45 26.95 L39.6 26.6 37.85 26.85 36.0 27.0 35.65 29.2" fill="#ffffff" fill-opacity="0.7058824" fill-rule="evenodd" stroke="none"/>
      <path d="M35.65 29.2 L36.0 27.0 37.85 26.85 39.6 26.6 40.45 26.95 Q40.8 27.25 40.8 28.35 40.8 30.75 36.7 31.3 36.25 31.0 35.9 30.2 L35.65 29.2 M43.0 14.5 L43.1 12.8 45.9 11.7 46.6 12.35 Q46.95 12.9 46.95 14.05 46.95 15.8 46.75 15.95 46.15 16.4 45.1 16.4 L43.55 16.35 43.2 15.85 43.0 14.5 M65.95 35.1 Q66.15 34.8 66.95 34.85 L70.5 35.4 70.9 38.5 Q70.6 38.65 70.4 38.95 L66.9 38.95 Q66.45 38.1 66.25 37.05 L65.95 35.1 M68.85 10.75 L69.4 10.3 Q73.35 11.5 73.55 11.95 73.55 12.65 73.05 13.1 L70.3 12.75 Q69.55 12.45 69.15 12.0 68.6 11.1 68.85 10.75 M95.25 8.4 Q95.25 6.65 95.4 7.0 97.95 7.05 98.25 7.5 L98.5 9.0 98.35 10.2 97.85 10.7 95.85 10.7 95.4 9.95 Q95.25 9.55 95.25 8.4 Z" fill="none" stroke="#000000" stroke-linecap="round" stroke-linejoin="round" stroke-opacity="0.0" stroke-width="1.0"/>
    </g>
  </defs>
</svg>
