<?xml version="1.0" encoding="UTF-8" standalone="no"?>
<svg xmlns:xlink="http://www.w3.org/1999/xlink" height="47.45px" width="141.0px" xmlns="http://www.w3.org/2000/svg">
  <g transform="matrix(1.0, 0.0, 0.0, 1.0, -4.35, -2.9)">
    <use data-characterId="3188" height="47.45" transform="matrix(1.0, 0.0, 0.0, 1.0, 4.35, 2.9)" width="141.0" xlink:href="#morphshape0"/>
    <use data-characterId="3189" height="37.5" transform="matrix(1.0, 0.0, 0.0, 1.0, 17.5, 9.15)" width="116.05" xlink:href="#morphshape1"/>
    <use data-characterId="3190" height="21.8" transform="matrix(1.0, 0.0, 0.0, 1.0, 37.6, 4.7)" width="75.1" xlink:href="#morphshape2"/>
    <use data-characterId="3191" height="35.65" transform="matrix(1.0, 0.0, 0.0, 1.0, 32.35, 6.65)" width="66.65" xlink:href="#morphshape3"/>
  </g>
  <defs>
    <g id="morphshape0" transform="matrix(1.0, 0.0, 0.0, 1.0, -4.35, -2.9)">
      <path d="M4.75 16.5 Q3.9 18.1 13.8 19.65 23.7 21.15 35.5 21.8 47.45 22.4 28.95 23.25 10.4 24.05 23.55 25.9 36.7 27.7 28.3 28.3 19.85 28.85 14.0 30.65 8.15 32.45 13.25 32.85 18.35 33.25 19.85 33.8 21.4 34.35 23.5 34.55 L37.1 35.1 Q29.95 36.55 29.8 37.15 14.8 40.75 35.7 40.2 39.85 40.35 54.65 38.25 42.95 41.75 43.15 42.75 43.35 43.75 51.65 44.3 61.5 44.7 71.35 45.15 82.8 45.5 73.4 47.95 63.95 50.4 66.25 50.35 70.9 50.35 75.45 50.4 L92.4 50.05 Q102.3 49.65 105.15 48.4 108.15 47.15 106.0 46.25 103.75 45.35 107.35 42.4 109.0 41.15 98.7 38.7 122.5 38.45 125.9 36.45 129.45 34.55 122.75 34.1 119.5 33.8 116.05 33.55 126.0 31.9 126.7 31.05 127.4 30.15 122.95 29.2 118.45 28.25 111.65 28.0 104.9 27.75 120.55 26.7 136.2 25.65 142.4 23.7 148.6 21.75 139.45 20.0 130.45 18.25 124.85 18.3 L122.55 18.4 122.4 18.4 Q122.2 18.2 121.75 18.0 136.2 16.45 130.15 15.15 124.15 13.8 116.15 13.6 116.2 13.4 115.95 13.3 107.35 8.9 101.3 5.9 95.4 2.9 69.2 3.0 50.05 3.1 26.4 6.8 2.65 10.4 6.25 11.6 9.85 12.75 26.75 13.75 43.65 14.7 36.35 14.9 28.95 15.0 21.6 15.1 L13.6 15.3 4.9 16.3 Q4.85 16.35 4.85 16.4" fill="#96e0bc" fill-opacity="0.7058824" fill-rule="evenodd" stroke="none"/>
      <path d="M4.85 16.4 Q4.85 16.35 4.9 16.3 L13.6 15.3 21.6 15.1 Q28.95 15.0 36.35 14.9 43.65 14.7 26.75 13.75 9.85 12.75 6.25 11.6 2.65 10.4 26.4 6.8 50.05 3.1 69.2 3.0 95.4 2.9 101.3 5.9 107.35 8.9 115.95 13.3 116.2 13.4 116.15 13.6 124.15 13.8 130.15 15.15 136.2 16.45 121.75 18.0 122.2 18.2 122.4 18.4 L122.55 18.4 124.85 18.3 Q130.45 18.25 139.45 20.0 148.6 21.75 142.4 23.7 136.2 25.65 120.55 26.7 104.9 27.75 111.65 28.0 118.45 28.25 122.95 29.2 127.4 30.15 126.7 31.05 126.0 31.9 116.05 33.55 119.5 33.8 122.75 34.1 129.45 34.55 125.9 36.45 122.5 38.45 98.7 38.7 109.0 41.15 107.35 42.4 103.75 45.35 106.0 46.25 108.15 47.15 105.15 48.4 102.3 49.65 92.4 50.05 L75.45 50.4 Q70.9 50.35 66.25 50.35 63.95 50.4 73.4 47.95 82.8 45.5 71.35 45.15 61.5 44.7 51.65 44.3 43.35 43.75 43.15 42.75 42.95 41.75 54.65 38.25 39.85 40.35 35.7 40.2 14.8 40.75 29.8 37.15 29.95 36.55 37.1 35.1 L23.5 34.55 Q21.4 34.35 19.85 33.8 18.35 33.25 13.25 32.85 8.15 32.45 14.0 30.65 19.85 28.85 28.3 28.3 36.7 27.7 23.55 25.9 10.4 24.05 28.95 23.25 47.45 22.4 35.5 21.8 23.7 21.15 13.8 19.65 3.9 18.1 4.75 16.5" fill="none" stroke="#000000" stroke-linecap="round" stroke-linejoin="round" stroke-opacity="0.0" stroke-width="1.0"/>
    </g>
    <g id="morphshape1" transform="matrix(1.0, 0.0, 0.0, 1.0, -17.5, -9.15)">
      <path d="M129.05 21.7 Q129.05 22.45 129.5 23.15 130.25 24.2 133.1 23.95 L132.35 21.75 Q131.35 21.4 129.05 21.7 M102.95 33.9 Q102.95 34.25 104.05 35.05 L107.35 35.15 109.5 34.15 Q111.7 33.1 112.1 32.6 L110.6 31.4 106.4 31.0 Q102.95 31.2 102.95 33.9 M90.05 45.0 L90.6 45.9 Q92.05 46.1 93.5 46.3 L96.3 46.35 100.5 46.1 101.3 45.85 101.8 45.4 101.95 44.55 101.9 44.05 Q101.7 43.25 100.9 42.75 99.6 42.0 94.35 42.2 92.2 42.55 90.6 44.1 L90.0 44.95 M79.35 31.4 L79.35 31.5 79.55 32.0 Q80.0 32.5 81.05 32.95 L82.85 33.45 85.4 33.65 85.75 33.55 85.95 33.35 86.15 32.9 86.15 32.45 Q86.15 31.75 85.8 31.45 85.15 30.8 82.05 30.6 80.7 30.75 79.45 30.95 L79.4 31.45 M61.3 40.9 L61.85 41.8 68.2 42.2 Q72.25 42.2 75.1 39.95 75.1 38.05 69.05 37.9 62.8 37.8 61.3 40.9 M54.5 40.75 Q54.65 41.15 54.75 41.5 L57.8 41.5 Q58.25 41.25 58.5 39.65 L55.0 39.85 Q54.5 40.2 54.5 40.75 M49.0 33.95 L50.2 35.15 Q52.25 36.3 56.55 36.3 58.1 36.3 59.85 34.15 59.85 31.2 54.45 31.25 49.0 31.3 49.0 33.95 M31.95 30.25 Q32.15 30.8 35.0 31.75 38.6 31.95 42.2 32.05 L45.95 31.1 Q46.95 30.25 47.2 28.15 46.45 25.35 38.85 26.35 31.2 27.3 31.95 30.25 M22.5 10.6 Q22.5 11.05 22.95 11.75 L23.9 12.7 30.75 12.8 Q31.95 11.9 31.95 11.35 31.95 9.5 27.25 9.4 22.5 9.35 22.5 10.6" fill="#bef0d8" fill-opacity="0.7058824" fill-rule="evenodd" stroke="none"/>
      <path d="M22.5 10.6 Q22.5 9.35 27.25 9.4 31.95 9.5 31.95 11.35 31.95 11.9 30.75 12.8 L23.9 12.7 22.95 11.75 Q22.5 11.05 22.5 10.6 M31.95 30.25 Q31.2 27.3 38.85 26.35 46.45 25.35 47.2 28.15 46.95 30.25 45.95 31.1 L42.2 32.05 Q38.6 31.95 35.0 31.75 32.15 30.8 31.95 30.25 M49.0 33.95 Q49.0 31.3 54.45 31.25 59.85 31.2 59.85 34.15 58.1 36.3 56.55 36.3 52.25 36.3 50.2 35.15 L49.0 33.95 M54.5 40.75 Q54.5 40.2 55.0 39.85 L58.5 39.65 Q58.25 41.25 57.8 41.5 L54.75 41.5 Q54.65 41.15 54.5 40.75 M61.3 40.9 Q62.8 37.8 69.05 37.9 75.1 38.05 75.1 39.95 72.25 42.2 68.2 42.2 L61.85 41.8 61.3 40.9 M79.4 31.45 L79.45 30.95 Q80.7 30.75 82.05 30.6 85.15 30.8 85.8 31.45 86.15 31.75 86.15 32.45 L86.15 32.9 85.95 33.35 85.75 33.55 85.4 33.65 82.85 33.45 81.05 32.95 Q80.0 32.5 79.55 32.0 L79.35 31.5 79.35 31.4 M90.0 44.95 L90.6 44.1 Q92.2 42.55 94.35 42.2 99.6 42.0 100.9 42.75 101.7 43.25 101.9 44.05 L101.95 44.55 101.8 45.4 101.3 45.85 100.5 46.1 96.3 46.35 93.5 46.3 Q92.05 46.1 90.6 45.9 L90.05 45.0 M102.95 33.9 Q102.95 31.2 106.4 31.0 L110.6 31.4 112.1 32.6 Q111.7 33.1 109.5 34.15 L107.35 35.15 104.05 35.05 Q102.95 34.25 102.95 33.9 M129.05 21.7 Q131.35 21.4 132.35 21.75 L133.1 23.95 Q130.25 24.2 129.5 23.15 129.05 22.45 129.05 21.7 Z" fill="none" stroke="#000000" stroke-linecap="round" stroke-linejoin="round" stroke-opacity="0.0" stroke-width="1.0"/>
    </g>
    <g id="morphshape2" transform="matrix(1.0, 0.0, 0.0, 1.0, -37.6, -4.7)">
      <path d="M107.35 19.1 Q107.35 20.25 107.6 20.65 L108.4 21.2 Q111.45 20.4 112.2 19.95 112.9 19.45 111.85 16.4 109.45 16.6 108.4 17.25 107.35 17.85 107.35 19.1 M94.1 16.65 Q94.1 17.7 94.7 18.3 L97.75 18.5 Q98.2 17.5 97.95 15.4 L94.2 15.3 94.1 16.65 M92.95 9.05 Q92.95 10.1 93.35 11.0 L99.3 11.0 Q100.35 9.95 100.35 6.45 95.65 6.0 94.0 6.85 92.95 7.45 92.95 9.05 M84.6 16.15 Q84.65 17.1 85.4 18.95 86.05 19.4 87.6 19.55 L88.4 18.35 Q88.9 17.65 88.2 15.85 L84.6 16.15 M75.5 14.85 Q75.1 16.75 75.9 18.25 76.9 20.0 79.15 20.0 80.3 20.0 81.5 18.25 80.65 15.85 79.0 15.2 L75.5 14.85 M63.95 9.25 L64.0 10.7 64.35 11.25 69.8 12.0 73.1 12.4 Q74.85 12.4 73.75 9.95 73.75 6.9 68.85 6.75 63.95 6.65 63.95 9.25 M56.2 22.85 L56.3 24.1 56.7 24.55 Q57.25 24.55 57.8 24.55 59.0 24.55 60.25 24.55 L64.3 24.55 Q64.5 23.25 63.7 20.05 62.7 18.3 61.75 17.45 60.35 16.2 58.75 16.8 56.2 18.0 56.2 22.85 M52.55 8.15 L52.55 8.35 52.6 8.85 52.6 8.95 Q52.65 9.4 52.85 9.5 L54.1 9.9 Q55.4 9.25 55.7 9.15 55.95 8.0 56.1 6.85 55.8 5.95 55.55 5.1 54.75 5.05 54.0 5.05 52.55 5.95 52.55 8.15 M40.95 14.0 L42.05 16.1 Q43.75 18.25 46.75 18.25 50.65 18.25 50.65 15.05 50.65 12.05 45.8 11.25 40.95 10.4 40.95 14.0" fill="#bef0d8" fill-opacity="0.7058824" fill-rule="evenodd" stroke="none"/>
      <path d="M40.95 14.0 Q40.95 10.4 45.8 11.25 50.65 12.05 50.65 15.05 50.65 18.25 46.75 18.25 43.75 18.25 42.05 16.1 L40.95 14.0 M52.55 8.15 Q52.55 5.95 54.0 5.05 54.75 5.05 55.55 5.1 55.8 5.95 56.1 6.85 55.95 8.0 55.7 9.15 55.4 9.25 54.1 9.9 L52.85 9.5 Q52.65 9.4 52.6 8.95 L52.6 8.85 52.55 8.35 52.55 8.15 M56.2 22.85 Q56.2 18.0 58.75 16.8 60.35 16.2 61.75 17.45 62.7 18.3 63.7 20.05 64.5 23.25 64.3 24.55 L60.25 24.55 Q59.0 24.55 57.8 24.55 57.25 24.55 56.7 24.55 L56.3 24.1 56.2 22.85 M63.95 9.25 Q63.95 6.65 68.85 6.75 73.75 6.9 73.75 9.95 74.85 12.4 73.1 12.4 L69.8 12.0 64.35 11.25 64.0 10.7 63.95 9.25 M75.5 14.85 L79.0 15.2 Q80.65 15.85 81.5 18.25 80.3 20.0 79.15 20.0 76.9 20.0 75.9 18.25 75.1 16.75 75.5 14.85 M84.6 16.15 L88.2 15.85 Q88.9 17.65 88.4 18.35 L87.6 19.55 Q86.05 19.4 85.4 18.95 84.65 17.1 84.6 16.15 M92.95 9.05 Q92.95 7.45 94.0 6.85 95.65 6.0 100.35 6.45 100.35 9.95 99.3 11.0 L93.35 11.0 Q92.95 10.1 92.95 9.05 M94.1 16.65 L94.2 15.3 97.95 15.4 Q98.2 17.5 97.75 18.5 L94.7 18.3 Q94.1 17.7 94.1 16.65 M107.35 19.1 Q107.35 17.85 108.4 17.25 109.45 16.6 111.85 16.4 112.9 19.45 112.2 19.95 111.45 20.4 108.4 21.2 L107.6 20.65 Q107.35 20.25 107.35 19.1 Z" fill="none" stroke="#000000" stroke-linecap="round" stroke-linejoin="round" stroke-opacity="0.0" stroke-width="1.0"/>
    </g>
    <g id="morphshape3" transform="matrix(1.0, 0.0, 0.0, 1.0, -32.35, -6.65)">
      <path d="M95.7 8.1 Q95.7 9.25 95.85 9.65 L96.3 10.4 98.3 10.4 98.8 9.9 98.95 8.7 98.7 7.2 Q98.4 6.75 95.85 6.7 95.7 6.35 95.7 8.1 M68.5 9.15 Q68.25 9.5 68.8 10.4 69.05 10.85 69.95 11.15 L72.7 11.5 Q73.2 11.05 73.2 10.35 73.0 9.9 69.05 8.7 L68.5 9.15 M65.75 38.2 L66.05 40.15 Q66.25 41.2 66.7 42.05 L70.2 42.05 Q70.4 41.75 70.7 41.6 L70.3 38.5 66.75 37.95 Q65.95 37.9 65.75 38.2 M44.5 15.3 L44.7 16.65 45.05 17.15 46.6 17.2 Q47.65 17.2 48.25 16.75 48.45 16.6 48.45 14.85 48.45 13.7 48.1 13.15 L47.4 12.5 44.6 13.6 44.5 15.3 M37.4 29.2 L37.65 30.2 Q38.0 31.0 38.45 31.3 42.55 30.75 42.55 28.35 42.55 27.25 42.2 26.95 L41.35 26.6 39.6 26.85 37.75 27.0 37.4 29.2" fill="#ffffff" fill-opacity="0.7058824" fill-rule="evenodd" stroke="none"/>
      <path d="M37.4 29.2 L37.75 27.0 39.6 26.85 41.35 26.6 42.2 26.95 Q42.55 27.25 42.55 28.35 42.55 30.75 38.45 31.3 38.0 31.0 37.65 30.2 L37.4 29.2 M44.5 15.3 L44.6 13.6 47.4 12.5 48.1 13.15 Q48.45 13.7 48.45 14.85 48.45 16.6 48.25 16.75 47.65 17.2 46.6 17.2 L45.05 17.15 44.7 16.65 44.5 15.3 M65.75 38.2 Q65.95 37.9 66.75 37.95 L70.3 38.5 70.7 41.6 Q70.4 41.75 70.2 42.05 L66.7 42.05 Q66.25 41.2 66.05 40.15 L65.75 38.2 M68.5 9.15 L69.05 8.7 Q73.0 9.9 73.2 10.35 73.2 11.05 72.7 11.5 L69.95 11.15 Q69.05 10.85 68.8 10.4 68.25 9.5 68.5 9.15 M95.7 8.1 Q95.7 6.35 95.85 6.7 98.4 6.75 98.7 7.2 L98.95 8.7 98.8 9.9 98.3 10.4 96.3 10.4 95.85 9.65 Q95.7 9.25 95.7 8.1 Z" fill="none" stroke="#000000" stroke-linecap="round" stroke-linejoin="round" stroke-opacity="0.0" stroke-width="1.0"/>
    </g>
  </defs>
</svg>
