<?xml version="1.0" encoding="UTF-8" standalone="no"?>
<svg xmlns:xlink="http://www.w3.org/1999/xlink" height="58.5px" width="475.55px" xmlns="http://www.w3.org/2000/svg">
  <g transform="matrix(1.0, 0.0, 0.0, 1.0, 20.25, -23.5)">
    <use data-characterId="553" height="57.6" transform="matrix(1.0, 0.0, 0.0, 1.0, -20.25, 24.4)" width="475.55" xlink:href="#shape0"/>
  </g>
  <defs>
    <g id="shape0" transform="matrix(1.0, 0.0, 0.0, 1.0, 20.25, -24.4)">
      <path d="M455.3 44.9 Q454.15 51.0 450.8 57.0 L449.0 60.5 Q444.55 63.05 439.0 63.25 L437.9 63.25 Q437.75 61.55 438.0 61.0 L439.0 58.0 Q434.65 51.85 429.65 51.3 L427.9 52.45 Q426.15 53.45 420.0 56.5 L419.05 55.85 419.5 58.5 420.0 58.95 413.25 58.0 404.0 57.5 Q399.35 58.0 396.65 60.8 L396.3 60.1 Q389.4 61.75 380.5 61.75 L375.2 61.55 Q374.75 62.55 374.6 63.95 L374.2 67.85 372.6 67.3 Q365.4 65.0 362.0 65.0 L353.5 66.0 345.0 67.0 345.0 66.0 Q342.25 57.0 338.55 54.15 L337.0 54.25 Q336.45 54.25 335.3 52.85 333.3 52.7 331.1 53.9 327.8 55.7 325.35 60.1 L324.35 62.15 Q322.8 61.5 321.9 60.8 L321.05 60.0 320.0 60.0 316.1 59.95 Q314.6 65.0 307.95 70.05 304.45 72.7 301.0 74.25 300.95 71.15 300.0 69.95 299.4 69.1 296.0 67.0 L294.85 67.05 Q293.85 61.35 287.8 58.5 281.35 55.5 272.0 56.75 262.7 58.0 256.2 62.7 253.05 65.0 251.3 67.65 248.9 66.6 247.45 65.15 246.0 63.7 245.5 61.95 L242.05 61.85 Q242.5 64.05 242.5 66.5 L242.3 70.45 Q238.8 69.0 235.0 69.0 L223.65 67.3 Q215.75 61.35 207.6 59.45 201.05 57.9 197.1 60.1 193.15 62.3 193.0 67.55 L188.9 68.8 Q186.15 66.35 181.9 64.5 176.0 62.0 169.9 61.7 163.4 61.45 159.45 63.95 L157.8 65.25 Q155.85 64.45 153.0 65.6 150.95 66.45 149.15 68.0 149.0 66.35 148.05 65.05 144.85 61.0 133.0 61.0 122.75 61.0 120.45 62.6 119.0 63.6 119.0 68.5 L119.05 70.25 113.0 70.5 106.8 70.3 Q109.0 68.15 109.0 65.75 109.0 62.8 108.5 62.55 L108.0 62.0 Q101.75 61.05 99.4 62.05 97.0 63.05 97.0 66.75 L97.1 68.3 Q94.85 67.35 93.55 66.0 91.95 64.35 91.6 61.85 L91.5 58.7 Q88.5 56.95 87.45 53.55 86.9 51.75 87.05 49.95 84.25 51.9 83.65 55.0 L80.9 55.0 Q80.4 57.5 78.0 60.55 74.85 64.5 72.0 64.5 55.45 64.5 48.0 56.55 L46.4 54.6 45.65 54.55 35.0 54.0 Q32.5 54.0 31.5 56.25 30.6 58.3 28.45 58.5 L28.5 61.0 Q28.5 66.0 28.0 65.5 L27.2 65.65 27.0 65.75 27.0 60.0 Q24.9 57.0 21.65 55.5 L21.6 55.0 20.35 55.0 19.25 54.65 Q14.9 53.55 10.0 54.8 5.85 55.85 2.9 58.15 L2.0 56.5 Q2.75 55.05 3.45 54.15 L-0.45 55.55 Q-3.3 51.4 -6.8 51.45 -11.0 51.55 -11.0 56.75 L-11.0 57.9 -13.5 58.25 Q-17.55 58.25 -19.25 55.3 -20.25 53.55 -20.25 51.5 -20.25 46.4 -17.4 43.2 -15.65 41.3 -13.15 40.75 L-13.2 40.55 -10.35 38.15 -8.35 36.4 Q-3.35 34.85 2.75 33.75 13.1 28.65 21.2 27.9 L22.0 27.7 30.45 28.1 37.0 28.5 Q43.95 28.5 74.85 24.4 93.4 27.5 109.0 27.5 121.25 27.5 155.2 24.4 L218.0 32.5 224.85 31.6 234.9 29.65 Q251.2 26.75 271.75 26.75 L279.45 27.05 292.25 28.0 Q295.75 28.3 299.05 29.45 L303.0 30.5 329.15 26.25 341.0 26.5 348.25 25.85 349.55 26.0 370.0 28.5 386.55 28.5 393.0 30.25 Q417.65 36.6 434.45 37.4 438.0 39.0 442.5 40.55 L443.1 40.0 443.55 40.9 446.55 41.9 453.8 44.05 455.3 44.9 M77.15 81.9 L78.0 82.0 76.1 82.0 77.15 81.9 M12.9 66.05 L13.0 66.0 13.05 66.05 12.9 66.05 M94.5 82.0 L94.5 81.9 97.9 82.0 94.5 82.0 M169.0 71.5 L169.1 71.85 168.65 71.9 169.0 71.5" fill="#c9e2ff" fill-rule="evenodd" stroke="none"/>
      <path d="M422.5 45.5 L422.5 50.0 421.45 51.25 Q420.05 52.5 417.0 52.5 412.2 52.5 407.55 48.0 403.5 44.1 403.5 42.0 403.5 39.15 403.65 39.05 L404.5 38.0 Q407.25 38.0 412.85 40.25 418.75 42.65 422.5 45.5 M377.25 37.75 Q377.5 35.5 380.0 35.5 381.7 35.5 388.75 40.7 394.4 44.85 400.5 50.0 394.05 55.5 390.2 54.4 L387.55 52.95 Q386.05 52.0 385.0 52.0 376.6 52.0 375.4 55.25 L374.7 57.5 Q374.1 58.5 372.0 58.5 354.65 58.5 347.55 52.05 343.5 48.4 343.5 43.75 343.5 40.55 348.65 38.7 354.2 36.7 358.5 40.0 362.35 32.4 364.4 30.8 366.0 29.55 367.25 31.85 L369.75 36.95 Q371.65 40.0 374.5 40.0 377.0 40.0 377.25 37.75 M335.85 42.75 Q338.5 45.2 338.5 47.75 338.5 53.7 334.15 56.05 329.45 58.5 317.0 58.5 L310.05 58.4 306.65 58.05 306.65 56.7 Q306.65 49.25 306.0 47.05 L302.75 40.05 Q303.7 39.5 306.0 39.5 309.0 39.5 310.8 41.55 L313.0 44.0 Q319.5 36.45 329.3 39.2 333.2 40.35 335.85 42.75 M300.7 45.25 L302.45 52.9 Q301.55 53.5 299.0 53.5 297.05 53.5 288.85 49.8 280.8 46.2 277.15 42.5 278.5 44.85 278.5 47.5 278.5 50.55 277.95 51.0 277.25 51.0 277.0 51.5 L274.0 52.5 272.1 51.6 272.5 52.5 Q272.75 53.0 272.4 53.5 271.65 54.5 268.5 54.5 264.55 54.5 260.55 49.05 257.5 43.9 257.5 44.5 257.5 39.7 259.55 39.35 259.8 36.8 262.45 35.9 265.2 35.0 269.0 36.25 272.9 37.55 275.55 40.35 L276.0 36.5 278.9 35.8 284.0 35.5 Q292.9 35.5 297.2 39.9 298.35 41.05 300.7 45.25 M250.0 58.0 L243.05 56.55 Q236.9 54.85 227.5 54.0 226.05 55.45 223.05 56.8 219.35 58.5 216.0 58.5 206.7 58.5 201.5 54.0 200.05 52.7 199.1 51.4 L198.55 52.2 Q197.35 53.8 196.0 54.5 188.35 50.0 187.6 46.55 L183.35 50.85 Q179.75 54.0 177.75 54.0 175.1 54.0 173.45 53.4 171.0 52.45 168.0 52.0 167.5 51.0 167.5 46.0 167.5 36.95 174.75 38.4 180.15 39.5 187.5 45.6 187.55 42.3 188.65 41.15 189.3 40.4 192.0 39.5 L196.65 44.7 197.7 46.1 Q198.2 45.35 200.15 43.9 203.25 41.65 206.9 40.1 217.5 35.6 224.5 41.0 225.15 40.15 226.2 37.6 227.5 35.5 230.0 35.5 235.45 35.5 238.3 36.65 240.55 37.6 242.7 40.1 L247.35 45.75 Q251.1 49.75 256.5 53.5 255.9 55.4 254.95 56.3 253.25 58.0 250.0 58.0 M153.95 39.05 Q155.5 43.25 155.5 46.0 155.5 50.05 138.55 53.6 124.7 56.5 118.0 56.5 L107.9 56.25 101.5 56.0 Q100.25 55.2 99.95 54.7 99.5 54.0 99.5 50.75 99.5 49.55 100.55 48.05 L95.0 48.5 94.25 47.65 Q93.5 46.75 93.5 43.75 93.5 40.6 97.45 39.7 101.2 38.85 103.5 40.5 L103.65 41.45 Q103.9 42.55 104.5 43.5 L104.35 44.15 108.45 41.05 Q116.55 35.5 118.0 35.5 121.15 35.5 123.2 37.55 L125.0 40.0 Q130.7 36.35 137.2 34.4 144.6 32.15 152.0 32.5 152.2 34.4 153.95 39.05 M85.3 47.8 Q84.15 48.5 80.75 48.5 L75.7 48.45 69.5 48.0 67.95 47.05 Q67.5 46.65 67.5 43.5 67.5 41.7 69.25 40.0 71.1 38.2 73.75 37.65 80.6 36.1 86.0 43.0 L86.5 46.0 Q86.05 47.4 85.3 47.8 M43.7 46.8 Q41.35 45.85 40.0 44.5 L39.5 41.5 Q42.55 37.1 50.2 34.55 56.4 32.5 62.0 32.5 L62.25 34.55 62.5 39.25 Q62.5 44.25 60.1 46.05 57.5 48.0 50.0 48.0 46.6 48.0 43.7 46.8 M22.6 44.35 Q17.1 48.5 16.0 48.5 8.85 48.5 5.55 43.45 3.5 40.4 3.5 37.5 3.5 36.2 6.15 34.5 8.95 32.7 12.8 31.9 23.15 29.8 30.5 37.0 28.45 39.9 22.6 44.35" fill="#ffffff" fill-rule="evenodd" stroke="none"/>
    </g>
  </defs>
</svg>
