<?xml version="1.0" encoding="UTF-8" standalone="no"?>
<svg xmlns:xlink="http://www.w3.org/1999/xlink" height="217.7px" width="465px" xmlns="http://www.w3.org/2000/svg">
  <g transform="matrix(1.0, 0.0, 0.0, 1.0, -6.6, 42.35)">
    <path d="M20.25 -26.1 Q19.0 -26.1 18.15 -26.65 17.25 -27.25 16.0 -27.25 13.95 -27.25 13.3 -29.75 12.95 -31.0 13.0 -32.35 13.0 -34.55 14.65 -35.3 16.15 -35.95 18.3 -35.25 23.6 -33.6 23.6 -29.5 L23.5 -27.45 23.35 -27.25 22.65 -26.65 Q21.8 -26.1 20.25 -26.1 M28.5 -38.85 L31.2 -38.65 35.0 -38.1 Q36.7 -38.1 41.75 -41.0 46.0 -42.55 46.0 -36.75 46.0 -34.5 43.75 -32.8 41.7 -31.25 39.6 -31.25 38.25 -31.25 34.65 -33.0 29.75 -35.4 28.5 -38.85 M34.55 -11.5 Q35.75 -11.0 37.1 -10.6 37.9 -9.95 37.9 -6.65 37.9 -1.5 37.4 -1.25 L35.35 -0.55 Q33.9 0.2 33.55 0.75 L30.3 -0.2 Q28.95 -1.25 28.95 -4.6 28.95 -7.1 31.75 -9.0 34.55 -10.9 34.55 -11.5 M69.0 -34.5 L69.9 -34.6 72.25 -34.75 Q82.5 -34.75 85.75 -32.25 87.75 -30.7 87.75 -26.6 87.75 -24.15 86.5 -23.1 85.3 -22.1 82.85 -22.1 76.15 -22.1 72.1 -27.65 69.7 -30.95 69.0 -34.5 M76.1 -6.05 Q75.85 -7.4 75.85 -10.5 L78.6 -10.85 85.8 -10.5 86.35 -11.25 Q86.85 -11.4 86.85 -8.2 L86.6 -4.35 86.35 -4.35 83.95 -3.55 Q81.2 -2.8 77.9 -2.8 76.55 -3.85 76.1 -6.05 M150.6 -12.4 Q149.75 -9.85 146.0 -9.85 140.3 -9.85 138.25 -15.2 137.25 -17.9 137.35 -20.6 137.35 -21.6 139.45 -22.7 141.65 -23.9 144.1 -24.1 150.85 -24.55 150.85 -17.0 L150.6 -12.4 M199.25 -16.25 L197.5 -16.25 Q197.25 -17.0 197.25 -19.0 L198.15 -19.05 Q198.95 -18.95 199.75 -18.5 199.75 -17.0 199.25 -16.25 M197.25 -22.5 Q197.25 -25.0 197.5 -24.1 L202.75 -23.45 Q206.9 -22.8 207.75 -22.35 207.25 -21.65 206.7 -18.1 206.4 -16.0 203.6 -16.0 203.1 -16.0 200.25 -18.7 197.25 -21.55 197.25 -22.5 M225.6 -23.95 Q229.0 -27.55 234.1 -26.1 L234.35 -20.85 Q234.35 -17.3 233.4 -15.5 232.05 -13.0 228.5 -13.0 224.55 -13.0 223.3 -15.15 222.75 -16.05 222.75 -17.6 222.75 -21.05 225.6 -23.95 M303.35 -7.6 Q302.6 -8.35 302.6 -9.85 304.35 -11.15 306.25 -9.1 305.75 -7.6 303.35 -7.6 M470.6 27.5 L470.5 31.4 Q470.1 33.15 467.85 34.85 464.25 33.35 463.35 31.4 463.0 30.65 463.0 28.35 463.0 26.7 464.4 25.05 466.45 22.55 470.35 22.6 L470.6 27.5 M425.85 20.65 Q425.35 24.1 422.5 24.1 419.8 24.1 417.25 20.85 415.1 18.2 415.1 17.0 415.1 14.5 416.8 12.65 418.35 10.9 420.5 10.6 422.7 10.25 424.15 11.7 425.85 13.35 425.85 16.75 L425.85 20.65 M405.0 30.0 L404.55 29.7 404.5 28.1 Q404.5 27.05 405.9 26.05 407.25 25.0 407.25 24.6 L408.6 25.05 Q409.0 25.4 409.0 27.0 L408.95 28.65 408.75 29.0 408.0 30.25 405.0 30.0 M439.6 72.05 Q441.1 73.2 441.1 75.6 441.1 78.0 439.3 81.45 437.9 84.2 438.85 87.5 L438.25 88.25 Q435.95 87.5 433.5 82.95 431.5 79.2 431.5 78.25 431.5 72.45 436.3 71.45 438.25 71.0 439.6 72.05 M469.1 94.1 L466.25 93.85 Q465.75 93.1 465.75 90.85 467.5 90.85 469.85 92.6 L469.1 94.1 M336.45 61.9 Q337.0 62.55 337.0 64.25 337.0 65.85 336.2 66.6 L334.5 67.6 332.1 67.6 Q331.8 66.7 332.65 64.6 333.6 62.3 335.0 61.0 L336.45 61.9 M334.5 105.25 Q334.75 105.2 334.75 106.75 334.75 109.25 334.5 108.6 334.1 108.6 333.35 109.05 L331.85 109.75 330.5 109.35 Q330.1 109.15 330.1 107.6 330.1 106.1 330.25 105.75 L330.6 104.85 Q332.35 104.85 334.25 105.6 L334.5 105.25 M440.4 112.3 L440.6 114.5 Q439.85 115.25 438.0 115.5 L437.15 115.05 Q437.0 114.9 437.0 113.25 L437.05 111.4 437.25 110.5 438.85 110.25 Q440.0 111.1 440.4 112.3 M307.5 23.05 Q307.0 22.9 307.0 21.35 307.0 20.5 308.15 19.45 309.15 18.45 310.0 18.25 310.4 18.65 310.9 18.7 311.25 18.95 311.25 20.5 L311.2 21.95 311.0 22.1 310.5 22.85 308.0 22.85 Q307.75 23.1 307.5 23.05 M246.85 58.0 L246.3 58.4 Q245.65 58.85 244.6 59.0 243.85 57.9 243.85 56.75 244.05 56.15 245.05 56.05 246.1 55.95 246.85 56.5 L246.85 58.0 M301.85 56.25 Q301.0 57.5 297.25 57.5 L296.9 57.7 Q296.5 57.55 296.5 56.0 296.5 54.7 297.65 54.35 299.05 53.9 301.6 55.5 L301.85 56.25 M228.05 9.15 L226.0 9.35 Q222.35 9.35 220.85 8.1 221.45 2.3 225.4 2.65 226.9 2.8 228.05 3.9 229.25 5.1 229.25 6.6 229.25 8.65 228.05 9.15 M200.15 69.75 L200.25 72.1 200.2 74.1 200.0 74.75 199.25 76.0 Q194.5 74.35 194.5 73.1 194.5 70.45 195.3 69.35 196.55 67.5 200.0 68.75 L200.15 69.75 M191.5 130.7 L190.35 131.5 188.55 131.45 Q188.1 131.35 188.1 129.75 188.1 128.4 188.35 127.5 L188.6 126.0 190.85 125.75 Q192.1 126.7 192.1 130.25 L191.5 130.7 M258.35 100.75 Q258.1 101.45 257.45 101.8 L254.25 102.25 Q253.0 101.5 253.0 100.75 L253.25 98.75 Q254.85 98.2 258.1 99.25 L258.35 100.75 M146.1 14.45 L147.85 16.0 147.15 18.4 Q146.3 20.25 144.5 20.25 L141.8 20.05 Q141.0 19.85 140.0 19.25 L139.75 18.95 Q139.5 18.8 139.5 17.35 139.5 14.2 140.8 13.5 L144.5 13.25 146.1 14.45 M83.1 42.5 Q83.75 43.3 83.75 45.0 83.75 47.65 79.35 49.85 L77.25 49.55 Q76.6 49.35 76.6 47.75 76.6 46.55 78.05 44.65 79.45 42.85 81.35 41.5 82.6 41.95 83.1 42.5 M145.15 68.35 L145.25 71.25 145.15 71.65 Q145.0 72.0 143.5 72.0 141.05 72.0 140.3 70.5 140.0 69.95 140.0 68.75 140.0 67.1 140.75 66.65 141.75 66.1 145.0 66.6 L145.15 68.35 M14.25 29.05 Q14.75 29.2 14.75 30.75 14.75 32.2 14.0 32.85 12.9 33.85 9.35 34.6 L8.8 33.85 Q8.6 33.45 8.6 31.85 8.6 30.1 10.25 29.5 L13.75 29.25 14.25 29.05 M11.6 72.25 Q11.35 72.95 10.4 73.65 9.3 74.5 8.1 74.5 7.6 73.75 7.6 70.25 L8.65 70.2 Q9.75 70.3 10.85 70.75 L11.6 72.25 M48.25 78.35 Q48.05 78.95 46.7 79.8 45.25 80.65 44.0 80.85 43.75 81.1 43.5 81.05 43.0 80.9 43.0 79.35 43.0 77.6 43.4 76.85 43.75 76.25 44.75 75.75 46.4 76.65 48.25 78.35 M62.95 113.1 L61.5 115.25 59.5 115.25 59.15 114.8 Q58.75 114.45 58.75 113.0 58.75 111.4 59.4 110.9 60.4 110.5 61.0 110.25 L61.9 110.6 63.6 111.5 62.95 113.1 M127.25 174.35 Q126.25 174.0 125.95 172.95 L125.75 171.0 126.8 170.95 Q127.8 171.05 128.75 171.5 128.75 173.75 127.25 174.35" fill="#ffffff" fill-rule="evenodd" stroke="none"/>
  </g>
</svg>