<?xml version="1.0" encoding="UTF-8" standalone="no"?>
<svg xmlns:xlink="http://www.w3.org/1999/xlink" height="58.5px" width="475.55px" xmlns="http://www.w3.org/2000/svg">
  <g transform="matrix(1.0, 0.0, 0.0, 1.0, 20.25, -23.5)">
    <use data-characterId="550" height="58.5" transform="matrix(1.0, 0.0, 0.0, 1.0, -20.25, 23.5)" width="475.55" xlink:href="#morphshape0"/>
    <use data-characterId="551" height="32.75" transform="matrix(1.0, 0.0, 0.0, 1.0, 0.85, 30.4)" width="423.9" xlink:href="#morphshape1"/>
  </g>
  <defs>
    <g id="morphshape0" transform="matrix(1.0, 0.0, 0.0, 1.0, 20.25, -23.5)">
      <path d="M94.5 81.9 L97.9 82.0 94.5 82.0 94.5 81.9 M82.25 81.9 L84.65 81.95 82.95 81.9 82.25 81.95 M-20.3 51.8 L-20.25 52.15 -20.25 52.45 Q-20.15 54.05 -19.4 55.45 L-19.3 55.65 -18.8 56.4 Q-17.15 58.35 -14.05 58.5 L-13.35 58.55 -13.2 58.85 -13.2 58.85 -12.95 59.3 -12.9 59.35 -12.75 59.7 -12.3 60.6 -12.15 60.95 -10.95 62.15 -9.5 63.2 -8.75 63.7 Q-5.85 65.65 -1.35 67.6 L2.3 68.3 3.65 68.95 5.2 69.45 9.8 69.7 10.85 69.9 Q17.75 71.15 22.9 71.65 L26.65 71.65 34.5 70.9 35.55 70.95 35.9 70.85 36.75 70.7 Q38.1 70.5 39.4 69.9 42.15 69.1 44.6 68.2 L48.2 66.65 49.0 66.45 50.4 66.1 58.7 64.3 60.5 64.55 Q61.95 64.7 63.55 64.8 L67.25 65.65 68.65 65.8 Q71.0 66.1 73.8 64.45 L76.35 64.2 Q78.7 65.5 81.85 65.85 84.65 69.9 91.5 70.2 94.15 70.3 96.2 71.25 L99.55 73.25 102.45 74.8 Q105.8 75.45 109.9 74.8 L110.1 74.75 Q112.9 74.1 114.65 72.75 116.4 72.25 117.85 70.85 L117.85 70.85 Q118.1 70.8 118.4 70.5 L118.6 70.2 118.75 70.0 Q119.35 69.35 120.1 68.9 L120.6 68.5 120.8 68.4 Q121.85 67.7 123.05 67.8 L124.95 67.95 125.5 67.85 127.7 68.45 Q132.0 69.35 137.25 70.1 L140.55 70.55 146.4 70.7 Q148.55 70.6 150.1 70.05 L151.25 69.25 152.15 68.2 152.2 68.2 153.7 66.9 153.75 66.8 155.0 65.55 Q156.3 64.3 157.5 63.5 L157.6 63.5 161.6 63.25 164.3 63.4 164.85 63.35 165.65 63.3 Q167.9 62.95 170.35 63.55 L172.9 64.25 175.2 65.1 Q177.85 66.3 180.0 67.7 L182.7 67.4 182.8 67.4 183.95 67.1 Q185.3 67.6 186.85 67.9 190.65 69.25 195.5 69.65 L199.45 69.6 199.95 69.55 201.95 69.2 Q203.55 68.25 204.75 66.9 L205.45 66.0 206.7 64.0 208.0 64.25 208.65 64.4 210.2 64.6 210.85 64.7 Q212.45 65.45 214.05 66.3 L214.2 66.35 Q215.4 67.75 217.7 69.6 L217.8 69.7 218.45 70.25 220.55 71.9 Q222.75 73.55 225.1 74.85 227.1 75.95 229.2 76.8 233.2 78.3 237.55 78.95 L238.25 78.95 241.7 78.65 244.35 77.85 Q246.55 77.05 249.4 76.3 251.1 75.8 252.9 75.35 L260.0 73.65 260.45 73.5 Q267.55 71.6 271.75 69.6 270.95 69.35 269.65 68.4 L269.2 67.9 267.6 66.9 267.2 66.55 266.9 66.1 266.6 65.7 Q267.05 65.45 267.4 65.3 L267.65 65.1 269.05 64.15 269.15 64.15 Q270.3 63.2 272.35 62.25 L275.55 60.7 278.25 60.2 279.0 59.9 279.1 59.95 279.8 60.0 280.95 60.05 281.3 59.6 282.25 60.05 282.25 60.05 Q284.7 61.5 286.4 63.25 L287.75 64.5 288.25 64.95 288.45 65.3 288.85 66.0 289.6 67.2 289.8 67.55 290.5 67.55 290.65 68.1 Q291.3 69.85 292.75 71.25 L294.9 73.05 299.3 75.15 300.45 75.65 Q305.8 75.55 311.0 75.7 L315.45 75.4 315.95 75.35 Q318.45 74.35 321.05 72.4 L321.95 71.8 322.65 71.1 Q324.2 69.95 325.1 68.85 L325.35 68.6 325.7 67.95 326.1 67.25 326.25 66.95 Q326.75 66.1 327.1 65.3 328.1 64.2 329.1 63.25 L329.85 62.7 330.25 62.3 331.2 61.1 331.7 60.3 Q332.45 57.75 332.7 57.45 L332.6 56.95 332.2 56.6 333.45 56.6 334.15 56.75 334.8 56.75 335.05 56.95 336.0 57.65 Q336.25 57.8 336.45 57.8 L338.0 57.8 338.75 58.25 340.15 58.8 Q340.65 59.1 341.15 59.4 343.4 60.55 345.2 63.0 L345.9 63.8 346.25 64.1 346.55 64.75 347.95 64.75 Q348.9 64.9 349.75 64.9 L351.3 64.85 354.85 65.05 355.65 65.1 357.0 65.2 358.05 64.8 Q358.45 64.65 358.9 64.6 L360.3 64.8 361.05 64.9 362.85 64.85 366.6 65.15 370.4 65.6 371.8 65.7 373.3 65.95 374.8 66.25 376.2 63.5 376.45 62.95 377.0 62.2 377.3 61.95 377.35 61.95 377.45 62.0 Q380.15 62.15 384.8 62.2 L385.75 62.2 386.85 62.15 388.5 62.0 389.85 61.35 391.5 60.95 393.35 60.5 393.75 60.45 397.45 60.1 397.9 60.6 398.7 60.15 399.95 59.6 400.05 59.45 401.4 58.4 402.4 58.25 404.9 57.65 411.35 57.1 412.9 57.0 413.2 57.0 413.55 57.15 413.95 57.1 Q417.1 57.3 420.35 58.0 L420.1 57.75 420.25 57.35 420.55 56.3 421.4 56.85 421.65 56.85 423.2 56.8 424.65 56.7 425.35 56.45 425.75 56.35 428.7 55.35 430.45 54.55 431.8 54.65 432.05 54.65 Q433.1 54.6 434.1 54.8 L434.95 55.2 435.05 55.25 Q436.5 55.55 437.95 56.25 L439.3 56.9 439.2 58.0 439.2 58.2 Q439.25 58.3 439.45 58.9 L439.6 59.25 440.65 59.0 443.2 58.4 443.35 58.3 Q443.65 58.25 443.95 58.3 L444.8 58.05 444.85 58.05 Q445.15 57.8 445.5 57.75 L445.55 57.7 445.85 57.4 445.9 57.35 446.1 57.3 446.3 57.05 Q446.6 55.85 446.9 54.5 L447.0 54.2 447.1 53.65 447.35 52.1 Q448.1 48.2 447.65 44.15 L447.4 43.0 447.35 42.95 446.85 42.75 445.9 42.35 443.9 41.85 439.9 40.7 438.85 40.35 436.7 39.7 Q436.35 39.5 436.0 39.35 L435.95 39.25 435.85 39.15 435.45 38.75 435.25 38.85 434.8 39.1 Q430.5 37.75 426.85 36.4 L426.75 36.4 423.15 36.2 Q420.65 36.0 418.35 36.3 417.2 36.4 416.0 36.4 L407.65 35.05 407.5 35.05 406.6 34.8 405.45 34.4 402.9 33.1 398.25 32.3 395.35 31.9 385.65 30.9 384.65 30.9 Q382.85 31.05 381.45 32.3 380.65 33.05 379.7 33.4 L379.15 33.3 376.05 32.75 375.1 32.9 Q373.85 33.2 372.5 33.3 L372.15 32.65 371.95 32.45 Q371.4 31.15 370.45 29.6 L367.65 29.55 363.8 29.4 345.3 27.4 345.25 27.45 344.85 28.45 344.8 28.45 Q344.0 31.35 342.55 32.35 341.8 33.0 340.55 33.25 L339.65 33.4 338.6 33.5 333.3 33.4 330.2 33.0 328.25 32.75 324.25 32.5 322.25 31.95 321.7 31.8 318.75 31.7 314.95 31.6 311.45 31.95 307.55 32.95 305.15 33.55 301.8 34.05 300.65 33.6 299.05 33.1 298.0 32.8 Q295.8 32.2 293.9 31.95 L293.7 31.7 293.65 31.65 292.85 30.1 293.65 29.2 291.9 28.8 291.15 28.65 Q288.15 27.95 285.0 27.7 L284.55 27.65 276.85 27.3 272.95 27.2 272.15 27.25 268.0 27.25 261.85 27.3 256.65 27.75 Q252.8 28.35 249.5 29.0 L245.15 29.25 243.55 29.35 Q241.25 29.5 239.3 29.3 L238.65 29.25 237.85 29.05 Q235.2 29.6 232.9 30.25 L230.85 31.0 229.45 31.55 Q226.7 32.8 225.1 34.2 L223.2 34.1 221.2 33.75 221.1 33.75 219.85 33.2 Q217.55 32.1 216.65 29.4 L216.3 28.1 Q214.15 27.85 211.8 27.95 205.35 28.15 200.25 30.2 L200.1 30.25 170.25 26.4 159.5 25.4 150.4 24.8 136.6 25.95 129.95 27.3 128.1 27.65 128.0 27.65 120.7 27.6 116.85 29.85 115.6 30.45 114.05 31.2 114.0 31.2 112.7 30.85 Q106.9 29.25 103.9 29.3 L103.05 29.15 99.35 28.6 95.95 27.95 Q92.9 27.65 91.35 29.05 L88.95 28.85 87.4 28.8 84.85 26.9 Q81.6 24.25 79.0 23.7 L78.65 23.65 70.35 23.85 67.25 24.0 60.2 24.45 57.55 24.75 46.5 26.6 39.05 27.35 38.9 27.35 31.0 27.8 29.9 27.9 24.35 28.35 21.9 28.65 21.05 28.8 18.9 29.3 Q17.35 29.75 15.85 30.3 L15.75 30.25 Q15.15 30.25 14.7 30.2 13.4 30.8 12.4 31.65 L12.35 31.5 Q11.95 30.75 12.15 30.0 9.1 31.0 5.75 32.45 L5.3 32.65 1.45 34.1 -6.15 35.85 -6.45 35.95 -8.9 36.95 -9.15 37.15 -9.25 37.25 -10.9 38.65 -12.0 39.65 -12.2 39.9 -12.2 39.9 -12.35 40.0 -13.6 40.8 -13.65 40.95 Q-15.4 41.45 -16.7 42.65 L-16.85 42.75 -17.6 43.5 Q-20.25 46.6 -20.25 51.5" fill="#c9e2ff" fill-rule="evenodd" stroke="none"/>
      <path d="M-20.25 51.5 Q-20.25 46.6 -17.6 43.5 L-16.85 42.75 -16.7 42.65 Q-15.4 41.45 -13.65 40.95 L-13.6 40.8 -12.35 40.0 -12.2 39.9 -12.2 39.9 -12.0 39.65 -10.9 38.65 -9.25 37.25 -9.15 37.15 -8.9 36.95 -6.45 35.95 -6.15 35.85 1.45 34.1 5.3 32.65 5.75 32.45 Q9.1 31.0 12.15 30.0 11.95 30.75 12.35 31.5 L12.4 31.65 Q13.4 30.8 14.7 30.2 15.15 30.25 15.75 30.25 L15.85 30.3 Q17.35 29.75 18.9 29.3 L21.05 28.8 21.9 28.65 24.35 28.35 29.9 27.9 31.0 27.8 38.9 27.35 39.05 27.35 46.5 26.6 57.55 24.75 60.2 24.45 67.25 24.0 70.35 23.85 78.65 23.65 79.0 23.7 Q81.6 24.25 84.85 26.9 L87.4 28.8 88.95 28.85 91.35 29.05 Q92.9 27.65 95.95 27.95 L99.35 28.6 103.05 29.15 103.9 29.3 Q106.9 29.25 112.7 30.85 L114.0 31.2 114.05 31.2 115.6 30.45 116.85 29.85 120.7 27.6 128.0 27.65 128.1 27.65 129.95 27.3 136.6 25.95 150.4 24.8 159.5 25.4 170.25 26.4 200.1 30.25 200.25 30.2 Q205.35 28.15 211.8 27.95 214.15 27.85 216.3 28.1 L216.65 29.4 Q217.55 32.1 219.85 33.2 L221.1 33.75 221.2 33.75 223.2 34.1 225.1 34.2 Q226.7 32.8 229.45 31.55 L230.85 31.0 232.9 30.25 Q235.2 29.6 237.85 29.05 L238.65 29.25 239.3 29.3 Q241.25 29.5 243.55 29.35 L245.15 29.25 249.5 29.0 Q252.8 28.35 256.65 27.75 L261.85 27.3 268.0 27.25 272.15 27.25 272.95 27.2 276.85 27.3 284.55 27.65 285.0 27.7 Q288.15 27.95 291.15 28.65 L291.9 28.8 293.65 29.2 292.85 30.1 293.65 31.65 293.7 31.7 293.9 31.95 Q295.8 32.2 298.0 32.8 L299.05 33.1 300.65 33.6 301.8 34.05 305.15 33.55 307.55 32.95 311.45 31.95 314.95 31.6 318.75 31.7 321.7 31.8 322.25 31.95 324.25 32.5 328.25 32.75 330.2 33.0 333.3 33.4 338.6 33.5 339.65 33.4 340.55 33.25 Q341.8 33.0 342.55 32.35 344.0 31.35 344.8 28.45 L344.85 28.45 345.25 27.45 345.3 27.4 363.8 29.4 367.65 29.55 370.45 29.6 Q371.4 31.15 371.95 32.45 L372.15 32.65 372.5 33.3 Q373.85 33.2 375.1 32.9 L376.05 32.75 379.15 33.3 379.7 33.4 Q380.65 33.05 381.45 32.3 382.85 31.05 384.65 30.9 L385.65 30.9 395.35 31.9 398.25 32.3 402.9 33.1 405.45 34.4 406.6 34.8 407.5 35.05 407.65 35.05 416.0 36.4 Q417.2 36.4 418.35 36.3 420.65 36.0 423.15 36.2 L426.75 36.4 426.85 36.4 Q430.5 37.75 434.8 39.1 L435.25 38.85 435.45 38.75 435.85 39.15 435.95 39.25 436.0 39.35 Q436.35 39.5 436.7 39.7 L438.85 40.35 439.9 40.7 443.9 41.85 445.9 42.35 446.85 42.75 447.35 42.95 447.4 43.0 447.65 44.15 Q448.1 48.2 447.35 52.1 L447.1 53.65 447.0 54.2 446.9 54.5 Q446.6 55.85 446.3 57.05 L446.1 57.3 445.9 57.35 445.85 57.4 445.55 57.7 445.5 57.75 Q445.15 57.8 444.85 58.05 L444.8 58.05 443.95 58.3 Q443.65 58.25 443.35 58.3 L443.2 58.4 440.65 59.0 439.6 59.25 439.45 58.9 Q439.25 58.3 439.2 58.2 L439.2 58.0 439.3 56.9 437.95 56.25 Q436.5 55.55 435.05 55.25 L434.95 55.2 434.1 54.8 Q433.1 54.6 432.05 54.65 L431.8 54.65 430.45 54.55 428.7 55.35 425.75 56.35 425.35 56.45 424.65 56.7 423.2 56.8 421.65 56.85 421.4 56.85 420.55 56.3 420.25 57.35 420.1 57.75 420.35 58.0 Q417.1 57.3 413.95 57.1 L413.55 57.15 413.2 57.0 412.9 57.0 411.35 57.1 404.9 57.65 402.4 58.25 401.4 58.4 400.05 59.45 399.95 59.6 398.7 60.15 397.9 60.6 397.45 60.1 393.75 60.45 393.35 60.5 391.5 60.95 389.85 61.35 388.5 62.0 386.85 62.15 385.75 62.2 384.8 62.2 Q380.15 62.15 377.45 62.0 L377.35 61.95 377.3 61.95 377.0 62.2 376.45 62.95 376.2 63.5 374.8 66.25 373.3 65.95 371.8 65.7 370.4 65.6 366.6 65.15 362.85 64.85 361.05 64.9 360.3 64.8 358.9 64.6 Q358.45 64.65 358.05 64.8 L357.0 65.2 355.65 65.1 354.85 65.05 351.3 64.85 349.75 64.9 Q348.9 64.9 347.95 64.75 L346.55 64.75 346.25 64.1 345.9 63.8 345.2 63.0 Q343.4 60.55 341.15 59.4 340.65 59.1 340.15 58.8 L338.75 58.25 338.0 57.8 336.45 57.8 Q336.25 57.8 336.0 57.65 L335.05 56.95 334.8 56.75 334.15 56.75 333.45 56.6 332.2 56.6 332.6 56.95 332.7 57.45 Q332.45 57.75 331.7 60.3 L331.2 61.1 330.25 62.3 329.85 62.7 329.1 63.25 Q328.1 64.2 327.1 65.3 326.75 66.1 326.25 66.95 L326.1 67.25 325.7 67.95 325.35 68.6 325.1 68.85 Q324.2 69.95 322.65 71.1 L321.95 71.8 321.05 72.4 Q318.45 74.35 315.95 75.35 L315.45 75.4 311.0 75.7 Q305.8 75.55 300.45 75.65 L299.3 75.15 294.9 73.05 292.75 71.25 Q291.3 69.85 290.65 68.1 L290.5 67.55 289.8 67.55 289.6 67.2 288.85 66.0 288.45 65.3 288.25 64.95 287.75 64.5 286.4 63.25 Q284.7 61.5 282.25 60.05 L282.25 60.05 281.3 59.6 280.95 60.05 279.8 60.0 279.1 59.95 279.0 59.9 278.25 60.2 275.55 60.7 272.35 62.25 Q270.3 63.2 269.15 64.15 L269.05 64.15 267.65 65.1 267.4 65.3 Q267.05 65.45 266.6 65.7 L266.9 66.1 267.2 66.55 267.6 66.9 269.2 67.9 269.65 68.4 Q270.95 69.35 271.75 69.6 267.55 71.6 260.45 73.5 L260.0 73.65 252.9 75.35 Q251.1 75.8 249.4 76.3 246.55 77.05 244.35 77.85 L241.7 78.65 238.25 78.95 237.55 78.95 Q233.2 78.3 229.2 76.8 227.1 75.95 225.1 74.85 222.75 73.55 220.55 71.9 L218.45 70.25 217.8 69.7 217.7 69.6 Q215.4 67.75 214.2 66.35 L214.05 66.3 Q212.45 65.45 210.85 64.7 L210.2 64.6 208.65 64.4 208.0 64.25 206.7 64.0 205.45 66.0 204.75 66.9 Q203.55 68.25 201.95 69.2 L199.95 69.55 199.45 69.6 195.5 69.65 Q190.65 69.25 186.85 67.9 185.3 67.6 183.95 67.1 L182.8 67.4 182.7 67.4 180.0 67.7 Q177.85 66.3 175.2 65.1 L172.9 64.25 170.35 63.55 Q167.9 62.95 165.65 63.3 L164.85 63.35 164.3 63.4 161.6 63.25 157.6 63.5 157.5 63.5 Q156.3 64.3 155.0 65.55 L153.75 66.8 153.7 66.9 152.2 68.2 152.15 68.2 151.25 69.25 150.1 70.05 Q148.55 70.6 146.4 70.7 L140.55 70.55 137.25 70.1 Q132.0 69.35 127.7 68.45 L125.5 67.85 124.95 67.95 123.05 67.8 Q121.85 67.7 120.8 68.4 L120.6 68.5 120.1 68.9 Q119.35 69.35 118.75 70.0 L118.6 70.2 118.4 70.5 Q118.1 70.8 117.85 70.85 L117.85 70.85 Q116.4 72.25 114.65 72.75 112.9 74.1 110.1 74.75 L109.9 74.8 Q105.8 75.45 102.45 74.8 L99.55 73.25 96.2 71.25 Q94.15 70.3 91.5 70.2 84.65 69.9 81.85 65.85 78.7 65.5 76.35 64.2 L73.8 64.45 Q71.0 66.1 68.65 65.8 L67.25 65.65 63.55 64.8 Q61.95 64.7 60.5 64.55 L58.7 64.3 50.4 66.1 49.0 66.45 48.2 66.65 44.6 68.2 Q42.15 69.1 39.4 69.9 38.1 70.5 36.75 70.7 L35.9 70.85 35.55 70.95 34.5 70.9 26.65 71.65 22.9 71.65 Q17.75 71.15 10.85 69.9 L9.8 69.7 5.2 69.45 3.65 68.95 2.3 68.3 -1.35 67.6 Q-5.85 65.65 -8.75 63.7 L-9.5 63.2 -10.95 62.15 -12.15 60.95 -12.3 60.6 -12.75 59.7 -12.9 59.35 -12.95 59.3 -13.2 58.85 -13.2 58.85 -13.35 58.55 -14.05 58.5 Q-17.15 58.35 -18.8 56.4 L-19.3 55.65 -19.4 55.45 Q-20.15 54.05 -20.25 52.45 L-20.25 52.15 -20.3 51.8 M82.25 81.95 L82.95 81.9 84.65 81.95 82.25 81.9 M94.5 81.9 L94.5 82.0 97.9 82.0 94.5 81.9 Z" fill="none" stroke="#000000" stroke-linecap="round" stroke-linejoin="round" stroke-opacity="0.0" stroke-width="1.0"/>
    </g>
    <g id="morphshape1" transform="matrix(1.0, 0.0, 0.0, 1.0, -0.85, -30.4)">
      <path d="M405.75 42.2 Q405.75 44.45 409.8 48.55 414.45 53.25 419.25 53.25 422.3 53.25 424.75 50.65 L424.75 45.9 Q421.0 42.9 415.1 40.4 409.5 38.0 405.9 39.1 405.75 39.25 405.75 42.2 M372.4 41.0 L372.4 41.0 Q374.2 43.0 375.95 45.0 379.15 49.2 380.05 53.4 381.7 52.4 384.95 52.1 385.8 52.05 386.65 52.0 L388.0 52.0 Q389.05 52.0 390.55 52.95 L393.2 54.4 393.7 54.5 Q394.45 54.55 395.15 54.55 L396.7 54.2 Q399.15 53.45 402.25 51.05 L403.5 50.0 398.4 45.8 Q396.25 44.15 394.15 42.55 392.95 41.6 391.75 40.7 391.15 40.25 390.55 39.85 389.1 38.85 387.7 37.85 L384.9 36.2 Q383.6 35.5 382.9 35.5 380.5 35.55 380.25 37.75 380.1 39.3 378.8 39.8 378.15 39.9 377.5 40.0 375.25 40.0 373.05 37.4 372.9 39.65 372.4 41.0 M343.5 43.75 Q343.5 46.7 345.1 49.25 346.05 50.7 347.55 52.05 L350.75 54.35 351.7 54.85 354.15 55.9 Q356.55 56.8 359.5 57.4 L367.1 58.35 Q368.0 56.05 369.9 53.85 L371.45 52.25 Q370.0 50.0 368.55 47.75 367.15 45.9 365.75 44.1 363.7 41.95 361.65 39.8 L359.55 38.0 Q359.0 39.0 358.5 40.0 354.8 37.15 350.1 38.3 349.4 38.45 347.55 39.15 345.25 40.15 344.25 41.55 343.5 42.55 343.5 43.75 M259.55 39.3 L259.55 39.3 259.6 39.35 Q263.2 42.0 266.15 46.0 L267.05 47.3 Q269.85 51.4 270.35 54.4 271.9 54.15 272.4 53.5 272.75 53.0 272.5 52.5 L272.1 51.6 273.4 52.2 274.0 52.5 277.0 51.5 Q277.25 51.0 277.95 51.0 L278.35 49.9 Q278.45 49.1 278.5 48.35 L278.5 47.5 278.5 46.85 Q278.35 45.1 277.65 43.5 L277.15 42.5 280.15 45.0 Q280.85 45.45 281.5 45.9 283.75 47.35 286.65 48.8 L288.85 49.8 Q291.6 50.95 294.3 52.1 297.8 53.5 299.0 53.5 L299.7 53.5 Q301.4 54.9 303.45 55.1 L303.5 57.5 310.05 58.4 313.45 58.5 317.0 58.5 Q325.3 58.5 330.15 57.4 332.6 56.85 334.15 56.05 L335.2 55.4 Q338.5 52.95 338.5 47.75 338.5 46.25 337.6 44.8 L335.85 42.75 Q333.3 40.45 329.6 39.3 L329.3 39.2 Q319.5 36.45 313.0 44.0 L310.8 41.55 310.05 40.8 Q308.4 39.5 306.0 39.5 L302.9 39.95 301.75 39.3 Q299.25 38.0 297.45 38.15 296.9 38.2 295.85 38.75 294.2 37.5 292.1 36.75 288.7 35.5 284.0 35.5 282.15 35.6 280.3 35.65 L278.9 35.8 276.0 36.5 275.55 40.35 274.15 39.05 Q271.95 37.25 267.25 35.75 264.85 35.85 262.45 35.9 259.85 36.8 259.55 39.3 M169.5 48.6 L169.6 49.05 Q170.7 54.35 171.35 55.6 L171.35 55.6 Q174.4 56.1 177.05 57.15 L177.15 57.2 Q178.9 57.9 181.5 57.9 L181.6 57.9 Q183.6 57.9 186.45 54.25 L186.85 53.75 189.75 49.25 190.3 50.4 Q192.5 54.0 199.95 58.5 L200.05 58.4 Q201.2 57.55 201.95 55.8 L202.15 55.4 202.35 54.9 202.65 55.2 Q203.95 56.5 205.25 57.8 L205.35 57.9 206.5 58.8 Q206.7 54.35 218.55 59.75 L219.75 60.3 Q222.05 61.45 224.35 62.6 L227.0 61.45 227.5 61.15 Q230.2 59.6 231.35 57.9 L231.55 57.9 Q240.95 58.9 247.45 60.85 L248.4 61.15 Q253.15 62.55 254.75 62.55 L256.25 62.45 Q258.35 62.05 259.3 60.6 L259.45 60.45 257.5 59.75 Q255.8 59.05 254.4 58.0 252.05 56.2 250.6 53.45 249.25 51.0 248.85 47.8 L248.15 47.05 243.35 41.75 242.85 41.25 Q240.4 38.75 238.05 37.75 234.95 36.4 229.6 36.4 L228.75 36.5 Q226.95 36.85 226.3 38.85 L226.0 40.4 225.35 42.8 224.15 42.0 222.85 41.2 Q222.4 42.3 221.25 43.2 219.35 44.7 216.75 44.7 214.9 44.7 212.75 41.55 L211.85 40.0 Q209.8 40.55 207.65 41.75 L207.55 41.75 Q204.25 43.55 201.1 46.7 200.0 48.0 199.7 48.7 L199.05 47.85 197.75 46.4 Q195.1 43.7 192.5 41.05 190.0 42.1 189.4 43.3 188.8 44.7 189.4 48.15 181.0 41.35 175.0 39.75 167.45 38.05 169.5 48.6 M96.5 46.0 Q96.5 49.3 97.0 50.7 L97.25 51.25 97.65 51.9 98.0 52.4 103.55 51.8 103.35 52.1 Q102.5 53.95 102.5 55.4 L102.5 55.7 102.55 57.75 Q103.25 57.15 104.3 56.8 105.35 56.4 106.8 56.2 L111.35 56.05 Q112.7 56.4 113.7 57.5 L114.6 58.7 Q115.5 60.3 115.5 61.5 L115.45 63.0 121.0 63.15 121.3 63.15 130.3 62.05 Q130.95 60.65 132.35 58.75 135.0 55.1 138.05 52.75 139.95 51.25 141.45 50.75 146.25 49.1 146.3 57.8 153.8 55.2 156.7 52.5 158.5 50.8 158.5 49.0 158.5 47.15 158.1 44.8 L156.95 39.7 156.3 37.15 Q155.15 32.85 155.0 30.85 149.3 30.5 143.6 32.2 L140.2 33.4 Q134.6 35.7 129.6 39.6 L128.0 40.95 127.25 39.4 126.2 37.65 Q124.65 35.55 122.45 35.05 121.7 34.95 121.0 34.9 119.6 34.9 111.85 41.95 L111.45 42.35 107.35 46.55 107.5 45.65 Q107.1 44.55 106.75 43.5 L106.5 41.65 Q104.2 39.4 100.45 40.55 96.5 41.8 96.5 46.0 M65.6 45.35 Q65.75 50.45 68.25 52.6 L76.0 53.35 82.25 53.4 Q86.45 53.4 87.8 52.3 88.75 51.65 89.2 49.4 L88.4 44.55 Q81.4 33.45 73.0 35.95 69.8 36.85 67.55 39.75 65.5 42.45 65.6 45.35 M35.35 41.5 L35.85 44.5 Q37.2 45.85 39.55 46.8 42.45 48.0 45.85 48.0 53.35 48.0 55.95 46.05 58.35 44.25 58.35 39.25 58.35 36.3 57.85 32.5 52.25 32.5 46.05 34.55 38.4 37.1 35.35 41.5 M0.85 43.7 Q0.85 46.6 2.9 49.65 6.2 54.7 13.35 54.7 14.45 54.7 19.95 50.55 25.8 46.1 27.85 43.2 20.5 36.0 10.15 38.1 6.3 38.9 3.5 40.7 0.85 42.4 0.85 43.7" fill="#ffffff" fill-rule="evenodd" stroke="none"/>
      <path d="M0.85 43.7 Q0.85 42.4 3.5 40.7 6.3 38.9 10.15 38.1 20.5 36.0 27.85 43.2 25.8 46.1 19.95 50.55 14.45 54.7 13.35 54.7 6.2 54.7 2.9 49.65 0.85 46.6 0.85 43.7 M35.35 41.5 Q38.4 37.1 46.05 34.55 52.25 32.5 57.85 32.5 58.35 36.3 58.35 39.25 58.35 44.25 55.95 46.05 53.35 48.0 45.85 48.0 42.45 48.0 39.55 46.8 37.2 45.85 35.85 44.5 L35.35 41.5 M65.6 45.35 Q65.5 42.45 67.55 39.75 69.8 36.85 73.0 35.95 81.4 33.45 88.4 44.55 L89.2 49.4 Q88.75 51.65 87.8 52.3 86.45 53.4 82.25 53.4 L76.0 53.35 68.25 52.6 Q65.75 50.45 65.6 45.35 M96.5 46.0 Q96.5 41.8 100.45 40.55 104.2 39.4 106.5 41.65 L106.75 43.5 Q107.1 44.55 107.5 45.65 L107.35 46.55 111.45 42.35 111.85 41.95 Q119.6 34.9 121.0 34.9 121.7 34.95 122.45 35.05 124.65 35.55 126.2 37.65 L127.25 39.4 128.0 40.95 129.6 39.6 Q134.6 35.7 140.2 33.4 L143.6 32.2 Q149.3 30.5 155.0 30.85 155.15 32.85 156.3 37.15 L156.95 39.7 158.1 44.8 Q158.5 47.15 158.5 49.0 158.5 50.8 156.7 52.5 153.8 55.2 146.3 57.8 146.25 49.1 141.45 50.75 139.95 51.25 138.05 52.75 135.0 55.1 132.35 58.75 130.95 60.65 130.3 62.05 L121.3 63.15 121.0 63.15 115.45 63.0 115.5 61.5 Q115.5 60.3 114.6 58.7 L113.7 57.5 Q112.7 56.4 111.35 56.05 L106.8 56.2 Q105.35 56.4 104.3 56.8 103.25 57.15 102.55 57.75 L102.5 55.7 102.5 55.4 Q102.5 53.95 103.35 52.1 L103.55 51.8 98.0 52.4 97.65 51.9 97.25 51.25 97.0 50.7 Q96.5 49.3 96.5 46.0 M169.5 48.6 Q167.45 38.05 175.0 39.75 181.0 41.35 189.4 48.15 188.8 44.7 189.4 43.3 190.0 42.1 192.5 41.05 195.1 43.7 197.75 46.4 L199.05 47.85 199.7 48.7 Q200.0 48.0 201.1 46.7 204.25 43.55 207.55 41.75 L207.65 41.75 Q209.8 40.55 211.85 40.0 L212.75 41.55 Q214.9 44.7 216.75 44.7 219.35 44.7 221.25 43.2 222.4 42.3 222.85 41.2 L224.15 42.0 225.35 42.8 226.0 40.4 226.3 38.85 Q226.95 36.85 228.75 36.5 L229.6 36.4 Q234.95 36.4 238.05 37.75 240.4 38.75 242.85 41.25 L243.35 41.75 248.15 47.05 248.85 47.8 Q249.25 51.0 250.6 53.45 252.05 56.2 254.4 58.0 255.8 59.05 257.5 59.75 L259.45 60.45 259.3 60.6 Q258.35 62.05 256.25 62.45 L254.75 62.55 Q253.15 62.55 248.4 61.15 L247.45 60.85 Q240.95 58.9 231.55 57.9 L231.35 57.9 Q230.2 59.6 227.5 61.15 L227.0 61.45 224.35 62.6 Q222.05 61.45 219.75 60.3 L218.55 59.75 Q206.7 54.35 206.5 58.8 L205.35 57.9 205.25 57.8 Q203.95 56.5 202.65 55.2 L202.35 54.9 202.15 55.4 201.95 55.8 Q201.2 57.55 200.05 58.4 L199.95 58.5 Q192.5 54.0 190.3 50.4 L189.75 49.25 186.85 53.75 186.45 54.25 Q183.6 57.9 181.6 57.9 L181.5 57.9 Q178.9 57.9 177.15 57.2 L177.05 57.15 Q174.4 56.1 171.35 55.6 L171.35 55.6 Q170.7 54.35 169.6 49.05 L169.5 48.6 M259.55 39.3 Q259.85 36.8 262.45 35.9 264.85 35.85 267.25 35.75 271.95 37.25 274.15 39.05 L275.55 40.35 276.0 36.5 278.9 35.8 280.3 35.65 Q282.15 35.6 284.0 35.5 288.7 35.5 292.1 36.75 294.2 37.5 295.85 38.75 296.9 38.2 297.45 38.15 299.25 38.0 301.75 39.3 L302.9 39.95 306.0 39.5 Q308.4 39.5 310.05 40.8 L310.8 41.55 313.0 44.0 Q319.5 36.45 329.3 39.2 L329.6 39.3 Q333.3 40.45 335.85 42.75 L337.6 44.8 Q338.5 46.25 338.5 47.75 338.5 52.95 335.2 55.4 L334.15 56.05 Q332.6 56.85 330.15 57.4 325.3 58.5 317.0 58.5 L313.45 58.5 310.05 58.4 303.5 57.5 303.45 55.1 Q301.4 54.9 299.7 53.5 L299.0 53.5 Q297.8 53.5 294.3 52.1 291.6 50.95 288.85 49.8 L286.65 48.8 Q283.75 47.35 281.5 45.9 280.85 45.45 280.15 45.0 L277.15 42.5 277.65 43.5 Q278.35 45.1 278.5 46.85 L278.5 47.5 278.5 48.35 Q278.45 49.1 278.35 49.9 L277.95 51.0 Q277.25 51.0 277.0 51.5 L274.0 52.5 273.4 52.2 272.1 51.6 272.5 52.5 Q272.75 53.0 272.4 53.5 271.9 54.15 270.35 54.4 269.85 51.4 267.05 47.3 L266.15 46.0 Q263.2 42.0 259.6 39.35 L259.55 39.3 259.55 39.3 M343.5 43.75 Q343.5 42.55 344.25 41.55 345.25 40.15 347.55 39.15 349.4 38.45 350.1 38.3 354.8 37.15 358.5 40.0 359.0 39.0 359.55 38.0 L361.65 39.8 Q363.7 41.95 365.75 44.1 367.15 45.9 368.55 47.75 370.0 50.0 371.45 52.25 L369.9 53.85 Q368.0 56.05 367.1 58.35 L359.5 57.4 Q356.55 56.8 354.15 55.9 L351.7 54.85 350.75 54.35 347.55 52.05 Q346.05 50.7 345.1 49.25 343.5 46.7 343.5 43.75 M372.4 41.0 Q372.9 39.65 373.05 37.4 375.25 40.0 377.5 40.0 378.15 39.9 378.8 39.8 380.1 39.3 380.25 37.75 380.5 35.55 382.9 35.5 383.6 35.5 384.9 36.2 L387.7 37.85 Q389.1 38.85 390.55 39.85 391.15 40.25 391.75 40.7 392.95 41.6 394.15 42.55 396.25 44.15 398.4 45.8 L403.5 50.0 402.25 51.05 Q399.15 53.45 396.7 54.2 L395.15 54.55 Q394.45 54.55 393.7 54.5 L393.2 54.4 390.55 52.95 Q389.05 52.0 388.0 52.0 L386.65 52.0 Q385.8 52.05 384.95 52.1 381.7 52.4 380.05 53.4 379.15 49.2 375.95 45.0 374.2 43.0 372.4 41.0 L372.4 41.0 M405.75 42.2 Q405.75 39.25 405.9 39.1 409.5 38.0 415.1 40.4 421.0 42.9 424.75 45.9 L424.75 50.65 Q422.3 53.25 419.25 53.25 414.45 53.25 409.8 48.55 405.75 44.45 405.75 42.2 Z" fill="none" stroke="#000000" stroke-linecap="round" stroke-linejoin="round" stroke-opacity="0.0" stroke-width="1.0"/>
    </g>
  </defs>
</svg>
