<?xml version="1.0" encoding="UTF-8" standalone="no"?>
<svg xmlns:xlink="http://www.w3.org/1999/xlink" height="231.35px" width="488.25px" xmlns="http://www.w3.org/2000/svg">
  <g transform="matrix(1.0, 0.0, 0.0, 1.0, -1.75, 36.35)">
    <path d="M22.05 -27.75 L20.0 -24.85 21.95 -23.7 23.6 -22.6 23.1 -21.0 Q17.95 -19.95 14.5 -23.45 11.85 -26.1 11.85 -28.1 11.85 -29.95 13.55 -31.45 15.1 -32.8 17.25 -33.25 22.6 -34.35 22.6 -29.5 22.6 -28.6 22.05 -27.75 M33.25 -25.85 Q33.25 -37.5 46.75 -34.75 48.7 -33.15 49.55 -31.65 50.1 -30.7 50.1 -30.1 50.1 -27.55 47.5 -22.9 44.35 -17.25 40.75 -17.25 35.75 -17.25 34.0 -21.4 33.15 -23.5 33.25 -25.85 M76.25 -23.6 L76.85 -24.3 78.85 -24.6 Q80.2 -24.6 80.9 -23.55 L81.6 -21.85 Q85.7 -25.4 88.05 -24.85 90.2 -24.35 91.85 -20.0 L91.6 -18.5 Q90.55 -17.5 88.7 -17.2 L85.45 -17.0 Q87.25 -16.95 86.1 -16.45 85.45 -16.15 85.3 -17.0 L85.25 -17.75 Q84.1 -16.5 82.35 -16.3 78.85 -15.9 76.0 -22.1 L76.25 -23.6 M194.75 -19.0 Q194.75 -15.55 192.35 -11.85 L188.35 -12.1 188.25 -12.75 Q188.1 -13.7 188.1 -15.25 188.1 -18.4 188.75 -19.9 190.2 -23.2 194.5 -23.1 L194.75 -19.0 M266.45 -5.2 L267.75 -4.75 268.0 -4.1 268.25 -2.1 Q268.25 -0.05 267.95 0.5 267.5 1.25 265.75 1.25 L263.5 1.05 261.85 0.25 261.6 -0.4 Q261.35 -0.9 261.35 -2.35 261.35 -4.15 262.1 -4.75 262.8 -5.25 264.75 -5.25 L266.45 -5.2 M349.15 -22.75 Q349.5 -21.95 349.5 -20.0 349.5 -17.55 348.55 -15.0 347.35 -11.85 345.6 -11.85 342.45 -11.85 341.85 -14.45 341.55 -15.8 341.85 -17.35 341.85 -20.2 342.3 -20.95 343.15 -22.3 347.25 -24.6 348.7 -23.7 349.15 -22.75 M488.35 78.95 Q489.0 79.6 489.0 81.25 489.0 83.95 486.75 86.75 L483.1 86.75 482.75 86.3 Q482.35 85.85 482.35 84.35 482.35 82.45 483.7 80.8 L486.75 78.1 Q488.05 78.6 488.35 78.95 M431.9 47.2 L432.0 49.75 Q432.0 52.65 431.65 53.35 430.55 55.5 426.1 56.25 425.75 56.75 426.15 57.85 L427.1 60.0 426.35 61.5 Q422.65 61.25 421.6 58.25 421.25 57.25 421.25 54.75 421.25 52.25 423.6 49.55 426.65 46.0 431.75 46.0 L431.9 47.2 M479.75 54.0 Q479.75 59.2 477.5 61.75 475.9 61.0 475.45 58.35 L475.25 53.6 Q475.25 52.7 475.65 51.45 476.3 49.55 477.5 48.6 478.7 49.9 479.3 51.6 L479.75 54.0 M327.4 17.9 L328.1 19.0 Q327.6 20.55 326.25 20.85 324.75 20.6 323.25 20.0 324.45 17.65 326.25 16.75 L327.4 17.9 M331.6 58.0 L331.0 58.4 329.85 59.0 328.5 58.75 Q328.1 58.55 328.1 57.0 328.1 55.45 328.6 55.3 L329.85 55.25 Q331.6 55.95 331.6 58.0 M454.35 135.85 L453.1 137.35 450.0 137.35 Q449.75 137.6 449.75 135.1 449.75 133.5 450.4 133.0 450.8 132.65 452.0 132.35 453.9 133.05 454.35 135.85 M447.25 102.25 Q447.25 103.8 446.3 104.85 L445.0 106.1 441.6 106.1 441.25 105.8 Q440.85 105.5 440.85 104.0 440.85 103.45 441.75 102.25 442.95 100.65 445.0 99.5 L446.6 100.15 Q447.25 100.65 447.25 102.25 M252.25 70.5 L251.9 70.0 Q251.5 69.5 251.5 68.0 251.5 66.45 251.75 66.25 L252.0 66.35 253.85 66.75 Q255.6 67.35 257.0 69.25 L256.85 70.3 Q256.6 70.75 255.0 70.75 L252.7 70.65 252.25 70.5 M220.45 19.5 Q221.1 19.9 221.1 21.5 221.1 23.15 219.5 25.1 L217.6 27.0 215.25 26.75 Q215.5 23.8 216.0 22.5 216.8 20.25 218.85 19.0 L220.45 19.5 M194.5 103.25 L194.25 107.1 Q193.75 107.85 192.35 108.35 L190.55 108.3 Q190.1 108.25 190.1 106.75 190.1 105.5 190.5 103.75 191.1 100.9 192.35 99.75 193.55 100.15 193.95 100.75 194.5 101.5 194.5 103.25 M189.85 145.85 Q189.35 145.85 188.8 146.15 188.35 146.4 188.35 146.6 L185.5 146.35 185.25 144.35 Q186.1 141.25 187.75 141.25 189.15 142.45 189.85 145.85 M263.75 118.8 L264.0 120.6 Q264.0 122.1 263.45 122.85 262.6 123.7 262.1 124.5 L259.05 122.4 Q258.6 122.05 258.6 121.35 258.6 119.05 259.35 118.5 L263.5 118.35 263.75 118.8 M270.15 166.65 Q270.5 167.05 270.5 168.6 270.5 171.1 270.25 169.75 L269.75 170.5 267.5 170.5 267.05 170.2 267.0 168.6 Q267.0 166.9 267.65 166.35 268.1 166.0 269.25 166.0 L270.15 166.65 M145.1 35.15 Q145.75 35.85 145.75 37.5 145.75 38.4 144.95 39.6 144.05 41.05 142.5 42.0 141.1 41.55 140.7 41.15 140.0 40.45 140.0 38.75 140.0 37.75 140.85 36.6 141.8 35.3 143.5 34.25 L145.1 35.15 M111.15 8.4 L111.25 10.75 Q111.25 13.4 109.7 15.65 107.55 18.25 106.35 20.0 L104.15 17.9 Q102.5 15.95 102.5 14.75 102.5 13.65 104.0 11.4 105.6 8.95 105.85 7.35 107.85 6.85 111.0 7.35 L111.15 8.4 M82.1 30.9 Q81.85 31.25 80.35 31.25 77.95 31.25 77.4 29.85 L77.35 28.1 Q77.35 27.45 78.5 25.55 79.65 23.55 80.35 23.1 L82.0 23.75 Q82.75 24.25 82.75 25.85 L82.6 28.25 82.25 30.5 82.1 30.9 M81.85 70.25 L80.6 70.25 80.35 70.6 Q80.1 70.65 80.1 69.1 80.1 67.35 81.45 66.7 82.15 66.35 83.0 66.35 83.65 67.3 81.85 70.25 M33.5 25.5 Q33.75 25.7 33.75 27.25 33.75 28.85 33.0 30.25 L31.5 32.5 27.25 32.25 27.0 31.65 Q26.75 31.0 26.75 29.5 26.75 27.5 28.05 26.15 29.8 24.3 33.25 25.6 L33.5 25.5 M8.15 62.0 L8.85 63.1 8.6 64.6 7.6 65.85 Q5.75 65.5 5.25 62.6 5.6 62.05 6.45 61.75 L7.6 61.5 8.15 62.0 M40.5 122.35 L38.6 122.1 38.1 120.25 38.6 118.85 40.1 118.85 Q41.0 119.6 41.5 121.1 L40.5 122.35 M5.75 116.0 L3.0 116.0 2.75 114.85 Q3.8 113.05 4.45 112.95 4.9 112.85 6.25 113.75 6.25 115.25 5.75 116.0 M52.75 191.55 L53.35 192.6 Q52.85 193.5 51.85 194.0 50.1 193.75 49.35 192.85 49.35 192.25 50.3 191.7 51.25 191.1 52.35 191.1 L52.75 191.55 M143.75 114.1 L141.8 116.85 Q140.05 119.05 139.5 119.1 L137.95 118.6 Q137.35 118.2 137.35 116.6 137.35 114.8 139.0 113.55 140.75 112.25 143.5 112.25 L143.75 114.1 M140.65 159.95 Q141.0 160.5 141.0 162.1 L140.95 163.9 140.75 164.35 Q140.0 165.1 138.0 165.1 L138.0 160.6 Q138.2 160.0 138.7 159.5 139.2 159.0 139.75 159.0 L140.65 159.95" fill="#ffffff" fill-rule="evenodd" stroke="none"/>
  </g>
</svg>