<?xml version="1.0" encoding="UTF-8" standalone="no"?>
<svg xmlns:xlink="http://www.w3.org/1999/xlink" height="58.5px" width="475.55px" xmlns="http://www.w3.org/2000/svg">
  <g transform="matrix(1.0, 0.0, 0.0, 1.0, 20.25, -23.5)">
    <use data-characterId="548" height="58.5" transform="matrix(1.0, 0.0, 0.0, 1.0, -20.25, 23.5)" width="475.55" xlink:href="#morphshape0"/>
    <use data-characterId="549" height="32.75" transform="matrix(1.0, 0.0, 0.0, 1.0, 0.85, 30.4)" width="423.9" xlink:href="#morphshape1"/>
  </g>
  <defs>
    <g id="morphshape0" transform="matrix(1.0, 0.0, 0.0, 1.0, 20.25, -23.5)">
      <path d="M94.5 81.9 L97.9 82.0 94.5 82.0 94.5 81.9 M76.1 82.0 L77.15 81.9 76.1 82.0 M-20.25 51.5 L-20.25 51.5 Q-20.25 53.25 -19.5 54.8 L-19.25 55.3 Q-17.65 58.05 -14.05 58.25 L-13.5 58.25 -13.3 58.25 -12.7 58.2 -11.0 57.9 -11.0 56.75 Q-11.0 54.25 -10.05 52.95 -9.0 51.5 -6.8 51.45 -3.3 51.4 -0.45 55.55 L3.45 54.15 Q2.75 55.05 2.0 56.5 L2.9 58.15 Q5.85 55.85 10.0 54.8 14.9 53.55 19.25 54.65 L20.35 55.0 20.95 55.0 21.6 55.0 21.65 55.5 Q24.9 57.0 27.0 60.0 L27.0 65.75 27.2 65.65 28.0 65.5 Q28.5 66.0 28.5 61.0 L28.45 58.5 Q29.75 58.4 30.6 57.65 L31.5 56.25 Q32.5 54.0 35.0 54.0 L44.8 54.45 45.65 54.55 46.4 54.6 48.0 56.55 48.8 57.4 Q50.95 59.45 53.85 60.9 L56.15 61.95 Q58.75 63.0 61.8 63.6 66.9 64.05 72.0 64.5 L73.55 64.2 Q75.4 63.55 77.3 61.35 L78.0 60.55 79.8 57.9 Q80.65 56.35 80.9 55.0 82.3 55.0 83.65 55.0 84.25 51.95 86.95 50.05 L87.05 49.95 Q86.9 51.75 87.45 53.55 88.5 56.9 91.4 58.6 L91.5 58.7 91.6 61.85 91.7 62.35 Q92.0 64.0 92.9 65.2 L93.55 66.0 Q94.85 67.35 97.1 68.3 L97.0 66.75 Q97.0 63.05 99.4 62.05 100.35 61.65 101.95 61.55 L108.0 62.0 108.5 62.55 Q108.9 62.75 109.0 64.65 L109.0 65.75 Q109.0 67.7 107.6 69.45 L106.8 70.3 107.2 70.3 107.2 70.3 109.0 70.45 Q111.0 70.5 113.0 70.5 L119.05 70.25 119.05 69.55 119.0 68.5 Q119.0 63.6 120.45 62.6 121.65 61.75 125.1 61.35 129.0 61.15 132.9 61.0 L133.0 61.0 136.95 61.1 Q145.4 61.7 148.05 65.05 L148.45 65.65 Q149.05 66.7 149.15 68.0 150.95 66.45 153.0 65.6 155.25 64.7 156.95 65.0 L157.8 65.25 159.45 63.95 160.15 63.55 Q163.6 61.7 168.7 61.7 L168.9 61.7 169.9 61.7 Q173.95 61.9 177.9 63.05 179.9 63.8 181.9 64.5 186.15 66.35 188.9 68.8 L193.0 67.55 Q193.05 65.65 193.6 64.15 194.55 61.5 197.1 60.1 200.95 57.95 207.3 59.35 L207.6 59.45 Q215.75 61.35 223.65 67.3 L224.95 67.4 Q230.0 68.2 235.0 69.0 L237.05 69.15 238.25 69.3 239.9 69.65 Q241.1 70.05 242.3 70.45 L242.5 66.5 Q242.5 64.05 242.05 61.85 L244.55 61.95 245.4 61.95 245.5 61.95 245.85 62.9 Q246.4 64.1 247.45 65.15 248.9 66.6 251.3 67.65 252.3 66.15 253.75 64.8 L254.35 64.25 254.85 63.75 256.2 62.7 Q257.2 62.05 258.15 61.4 262.25 58.95 267.3 57.65 L272.0 56.75 Q278.25 55.9 283.25 56.95 285.7 57.5 287.8 58.5 292.65 60.8 294.25 64.9 L294.85 67.05 296.0 67.0 Q299.4 69.1 300.0 69.95 L300.5 70.95 Q300.95 72.15 301.0 74.25 L301.6 73.95 Q303.05 73.15 304.5 72.4 305.7 71.6 306.85 70.85 L307.95 70.05 308.45 69.65 309.7 68.65 Q314.8 64.3 316.1 59.95 L319.0 60.0 320.0 60.0 321.05 60.0 321.9 60.8 Q322.8 61.5 324.35 62.15 L325.35 60.1 326.2 58.7 Q328.35 55.4 331.1 53.9 L332.5 53.25 335.3 52.85 Q336.45 54.25 337.0 54.25 L338.55 54.15 Q340.1 55.35 341.45 57.6 L342.15 58.85 343.7 62.25 Q344.1 63.35 344.5 64.45 L344.5 64.45 345.0 66.0 345.0 67.0 350.05 66.5 353.5 66.0 355.0 65.75 362.0 65.0 363.2 65.05 363.95 65.15 Q366.9 65.55 371.6 67.0 L372.6 67.3 374.2 67.85 374.6 63.95 Q374.75 62.55 375.2 61.55 L375.7 61.55 380.5 61.75 382.1 61.75 382.5 61.75 385.2 61.65 386.2 61.55 Q390.5 61.0 394.75 60.45 L396.3 60.1 396.5 60.45 396.65 60.8 Q399.35 58.0 404.0 57.5 405.45 57.35 407.3 57.45 L410.35 57.65 Q411.45 57.8 412.55 57.9 L413.25 58.0 413.65 58.1 Q416.85 58.55 420.0 58.95 L419.5 58.5 419.05 55.85 420.0 56.5 420.1 56.5 423.7 54.65 427.9 52.45 429.65 51.3 Q432.65 51.65 435.4 54.0 L436.4 54.9 Q437.75 56.2 439.0 58.0 L438.0 60.9 438.0 61.0 Q437.75 61.55 437.9 63.25 L438.3 63.25 439.0 63.25 439.0 63.25 439.7 63.2 Q444.3 62.9 448.1 60.95 L449.0 60.5 450.8 57.0 Q454.15 51.0 455.3 44.9 L453.8 44.05 453.3 43.85 450.6 43.15 446.55 41.9 443.55 40.9 443.1 40.0 443.0 40.1 442.5 40.55 Q438.0 39.0 434.45 37.4 L431.2 37.2 Q428.65 36.95 426.15 36.7 425.0 36.55 423.85 36.4 L415.75 35.2 414.65 35.0 Q412.15 34.55 409.7 34.1 L402.95 32.65 393.0 30.25 386.55 28.5 383.75 28.5 382.15 28.5 Q379.5 28.5 376.9 28.5 374.75 28.5 372.6 28.5 L370.0 28.5 349.55 26.0 348.25 25.85 Q344.6 26.2 341.0 26.5 L340.15 26.5 Q337.1 26.45 334.05 26.45 L331.05 26.35 329.15 26.25 325.35 26.85 322.55 27.3 319.6 27.8 316.85 28.25 Q313.25 28.85 309.7 29.4 L303.0 30.5 299.05 29.45 Q297.8 29.0 296.55 28.7 L292.25 28.0 292.05 28.0 285.9 27.45 279.45 27.05 271.75 26.75 268.2 26.75 Q260.45 27.1 252.75 27.45 249.2 27.8 245.7 28.1 242.75 28.5 239.8 28.85 237.35 29.25 234.9 29.65 L234.1 29.8 232.5 30.1 Q230.3 30.55 228.1 30.95 L224.85 31.6 Q221.4 32.05 218.0 32.5 217.0 32.35 216.0 32.2 L215.8 32.2 165.1 25.75 155.2 24.4 134.0 26.2 Q130.65 26.45 127.3 26.7 L125.35 26.8 125.25 26.8 Q119.4 27.1 113.55 27.4 L109.0 27.5 Q104.75 27.4 100.55 27.3 L96.5 27.05 93.0 26.75 Q89.3 26.35 85.65 26.0 L74.85 24.4 66.95 25.4 64.2 25.75 Q54.3 26.9 44.45 28.05 L37.0 28.5 30.45 28.1 29.45 28.05 Q25.7 27.85 22.0 27.7 L21.2 27.9 Q20.2 28.05 19.25 28.15 17.75 28.45 16.25 28.7 L16.05 28.8 Q14.7 29.15 13.35 29.5 8.4 30.95 2.75 33.75 L2.35 33.85 Q-3.5 34.9 -8.35 36.4 L-8.45 36.5 -10.35 38.15 -10.45 38.25 -13.2 40.55 -13.15 40.75 -13.15 40.75 -13.25 40.75 Q-15.7 41.35 -17.4 43.2 L-17.5 43.3 Q-20.25 46.45 -20.25 51.5" fill="#c9e2ff" fill-rule="evenodd" stroke="none"/>
      <path d="M-20.25 51.5 Q-20.25 46.45 -17.5 43.3 L-17.4 43.2 Q-15.7 41.35 -13.25 40.75 L-13.15 40.75 -13.15 40.75 -13.2 40.55 -10.45 38.25 -10.35 38.15 -8.45 36.5 -8.35 36.4 Q-3.5 34.9 2.35 33.85 L2.75 33.75 Q8.4 30.95 13.35 29.5 14.7 29.15 16.05 28.8 L16.25 28.7 Q17.75 28.45 19.25 28.15 20.2 28.05 21.2 27.9 L22.0 27.7 Q25.7 27.85 29.45 28.05 L30.45 28.1 37.0 28.5 44.45 28.05 Q54.3 26.9 64.2 25.75 L66.95 25.4 74.85 24.4 85.65 26.0 Q89.3 26.35 93.0 26.75 L96.5 27.05 100.55 27.3 Q104.75 27.4 109.0 27.5 L113.55 27.4 Q119.4 27.1 125.25 26.8 L125.35 26.8 127.3 26.7 Q130.65 26.45 134.0 26.2 L155.2 24.4 165.1 25.75 215.8 32.2 216.0 32.2 Q217.0 32.35 218.0 32.5 221.4 32.05 224.85 31.6 L228.1 30.95 Q230.3 30.55 232.5 30.1 L234.1 29.8 234.9 29.65 Q237.35 29.25 239.8 28.85 242.75 28.5 245.7 28.1 249.2 27.8 252.75 27.45 260.45 27.1 268.2 26.75 L271.75 26.75 279.45 27.05 285.9 27.45 292.05 28.0 292.25 28.0 296.55 28.7 Q297.8 29.0 299.05 29.45 L303.0 30.5 309.7 29.4 Q313.25 28.85 316.85 28.25 L319.6 27.8 322.55 27.3 325.35 26.85 329.15 26.25 331.05 26.35 334.05 26.45 Q337.1 26.45 340.15 26.5 L341.0 26.5 Q344.6 26.2 348.25 25.85 L349.55 26.0 370.0 28.5 372.6 28.5 Q374.75 28.5 376.9 28.5 379.5 28.5 382.15 28.5 L383.75 28.5 386.55 28.5 393.0 30.25 402.95 32.65 409.7 34.1 Q412.15 34.55 414.65 35.0 L415.75 35.2 423.85 36.4 Q425.0 36.55 426.15 36.7 428.65 36.95 431.2 37.2 L434.45 37.4 Q438.0 39.0 442.5 40.55 L443.0 40.1 443.1 40.0 443.55 40.9 446.55 41.9 450.6 43.15 453.3 43.85 453.8 44.05 455.3 44.9 Q454.15 51.0 450.8 57.0 L449.0 60.5 448.1 60.95 Q444.3 62.9 439.7 63.2 L439.0 63.25 439.0 63.25 438.3 63.25 437.9 63.25 Q437.75 61.55 438.0 61.0 L438.0 60.9 439.0 58.0 Q437.75 56.2 436.4 54.9 L435.4 54.0 Q432.65 51.65 429.65 51.3 L427.9 52.45 423.7 54.65 420.1 56.5 420.0 56.5 419.05 55.85 419.5 58.5 420.0 58.95 Q416.85 58.55 413.65 58.1 L413.25 58.0 412.55 57.9 Q411.45 57.8 410.35 57.65 L407.3 57.45 Q405.45 57.35 404.0 57.5 399.35 58.0 396.65 60.8 L396.5 60.45 396.3 60.1 394.75 60.45 Q390.5 61.0 386.2 61.55 L385.2 61.65 382.5 61.75 382.1 61.75 380.5 61.75 375.7 61.55 375.2 61.55 Q374.75 62.55 374.6 63.95 L374.2 67.85 372.6 67.3 371.6 67.0 Q366.9 65.55 363.95 65.15 L363.2 65.05 362.0 65.0 355.0 65.75 353.5 66.0 350.05 66.5 345.0 67.0 345.0 66.0 344.5 64.45 344.5 64.45 Q344.1 63.35 343.7 62.25 L342.15 58.85 341.45 57.6 Q340.1 55.35 338.55 54.15 L337.0 54.25 Q336.45 54.25 335.3 52.85 L332.5 53.25 331.1 53.9 Q328.35 55.4 326.2 58.7 L325.35 60.1 324.35 62.15 Q322.8 61.5 321.9 60.8 L321.05 60.0 320.0 60.0 319.0 60.0 316.1 59.95 Q314.8 64.3 309.7 68.65 L308.45 69.65 307.95 70.05 306.85 70.85 Q305.7 71.6 304.5 72.4 303.05 73.15 301.6 73.95 L301.0 74.25 Q300.95 72.15 300.5 70.95 L300.0 69.95 Q299.4 69.1 296.0 67.0 L294.85 67.05 294.25 64.9 Q292.65 60.8 287.8 58.5 285.7 57.5 283.25 56.95 278.25 55.9 272.0 56.75 L267.3 57.65 Q262.25 58.95 258.15 61.4 257.2 62.05 256.2 62.7 L254.85 63.75 254.35 64.25 253.75 64.8 Q252.3 66.15 251.3 67.65 248.9 66.6 247.45 65.15 246.4 64.1 245.85 62.9 L245.5 61.95 245.4 61.95 244.55 61.95 242.05 61.85 Q242.5 64.05 242.5 66.5 L242.3 70.45 Q241.1 70.05 239.9 69.65 L238.25 69.3 237.05 69.15 235.0 69.0 Q230.0 68.2 224.95 67.4 L223.65 67.3 Q215.75 61.35 207.6 59.45 L207.3 59.35 Q200.95 57.95 197.1 60.1 194.55 61.5 193.6 64.15 193.05 65.65 193.0 67.55 L188.9 68.8 Q186.15 66.35 181.9 64.5 179.9 63.8 177.9 63.05 173.95 61.9 169.9 61.7 L168.9 61.7 168.7 61.7 Q163.6 61.7 160.15 63.55 L159.45 63.95 157.8 65.25 156.95 65.0 Q155.25 64.7 153.0 65.6 150.95 66.45 149.15 68.0 149.05 66.7 148.45 65.65 L148.05 65.05 Q145.4 61.7 136.95 61.1 L133.0 61.0 132.9 61.0 Q129.0 61.15 125.1 61.35 121.65 61.75 120.45 62.6 119.0 63.6 119.0 68.5 L119.05 69.55 119.05 70.25 113.0 70.5 Q111.0 70.5 109.0 70.45 L107.2 70.3 107.2 70.3 106.8 70.3 107.6 69.45 Q109.0 67.7 109.0 65.75 L109.0 64.65 Q108.9 62.75 108.5 62.55 L108.0 62.0 101.95 61.55 Q100.35 61.65 99.4 62.05 97.0 63.05 97.0 66.75 L97.1 68.3 Q94.85 67.35 93.55 66.0 L92.9 65.2 Q92.0 64.0 91.7 62.35 L91.6 61.85 91.5 58.7 91.4 58.6 Q88.5 56.9 87.45 53.55 86.9 51.75 87.05 49.95 L86.95 50.05 Q84.25 51.95 83.65 55.0 82.3 55.0 80.9 55.0 80.65 56.35 79.8 57.9 L78.0 60.55 77.3 61.35 Q75.4 63.55 73.55 64.2 L72.0 64.5 Q66.9 64.05 61.8 63.6 58.75 63.0 56.15 61.95 L53.85 60.9 Q50.95 59.45 48.8 57.4 L48.0 56.55 46.4 54.6 45.65 54.55 44.8 54.45 35.0 54.0 Q32.5 54.0 31.5 56.25 L30.6 57.65 Q29.75 58.4 28.45 58.5 L28.5 61.0 Q28.5 66.0 28.0 65.5 L27.2 65.65 27.0 65.75 27.0 60.0 Q24.9 57.0 21.65 55.5 L21.6 55.0 20.95 55.0 20.35 55.0 19.25 54.65 Q14.9 53.55 10.0 54.8 5.85 55.85 2.9 58.15 L2.0 56.5 Q2.75 55.05 3.45 54.15 L-0.45 55.55 Q-3.3 51.4 -6.8 51.45 -9.0 51.5 -10.05 52.95 -11.0 54.25 -11.0 56.75 L-11.0 57.9 -12.7 58.2 -13.3 58.25 -13.5 58.25 -14.05 58.25 Q-17.65 58.05 -19.25 55.3 L-19.5 54.8 Q-20.25 53.25 -20.25 51.5 L-20.25 51.5 M76.1 82.0 L77.15 81.9 76.1 82.0 M94.5 81.9 L94.5 82.0 97.9 82.0 94.5 81.9 Z" fill="none" stroke="#000000" stroke-linecap="round" stroke-linejoin="round" stroke-opacity="0.0" stroke-width="1.0"/>
    </g>
    <g id="morphshape1" transform="matrix(1.0, 0.0, 0.0, 1.0, -0.85, -30.4)">
      <path d="M403.5 42.0 Q403.5 44.1 407.55 48.0 412.2 52.5 417.0 52.5 420.05 52.5 422.5 50.0 L422.5 45.5 Q418.75 42.65 412.85 40.25 407.25 38.0 403.65 39.05 403.5 39.15 403.5 42.0 M343.5 43.75 L343.5 43.85 Q343.55 48.45 347.55 52.05 352.6 56.65 362.9 57.95 367.45 58.25 372.0 58.5 374.1 58.5 374.7 57.5 L375.4 55.25 Q376.15 53.3 379.5 52.5 L384.3 52.0 385.0 52.0 Q386.05 52.0 387.55 52.95 L390.2 54.4 Q394.05 55.5 400.5 50.0 L398.25 48.1 388.75 40.7 Q381.7 35.5 380.0 35.5 377.5 35.5 376.8 39.05 376.1 40.0 374.5 40.0 371.65 40.0 369.75 36.95 L367.25 31.85 Q366.05 29.65 364.4 30.8 362.95 31.9 360.65 36.0 359.55 38.0 358.5 40.0 357.55 39.25 356.5 38.8 352.95 37.15 347.25 39.25 343.5 41.0 343.5 43.75 M302.75 40.05 L302.75 40.05 Q304.4 43.55 306.0 47.05 306.4 48.4 306.55 51.7 L306.65 56.7 306.65 58.05 310.05 58.4 Q313.55 58.45 317.0 58.5 L327.25 57.9 Q331.75 57.3 334.15 56.05 L336.3 54.35 Q338.25 52.25 338.5 47.75 338.5 45.2 335.85 42.75 333.2 40.35 329.3 39.2 L325.8 38.55 Q324.2 38.4 322.65 38.55 317.15 39.2 313.0 44.0 311.9 42.75 310.8 41.55 309.0 39.5 306.0 39.5 303.7 39.5 302.75 40.05 M257.5 44.5 L257.55 44.45 257.55 44.45 Q257.9 44.55 260.55 49.05 L261.25 49.9 Q263.2 52.35 265.1 53.45 265.75 53.75 266.4 54.05 266.7 54.15 267.0 54.25 L267.6 54.4 268.5 54.5 268.95 54.5 271.05 54.25 Q271.4 54.1 271.7 54.0 L272.4 53.5 Q272.75 53.0 272.5 52.5 L272.35 52.1 272.1 51.6 Q273.05 52.05 274.0 52.5 L274.7 52.3 277.0 51.5 Q277.25 51.0 277.95 51.0 278.5 50.55 278.5 47.5 L278.4 45.95 Q278.1 44.15 277.15 42.5 278.35 43.5 279.55 44.5 L279.85 44.8 Q280.9 45.55 281.9 46.25 L283.15 46.95 286.85 48.9 288.85 49.8 291.05 50.75 Q297.3 53.5 299.0 53.5 300.35 53.35 301.7 53.25 L302.45 52.9 Q301.8 50.05 301.2 47.25 300.95 46.25 300.7 45.25 L299.85 43.85 Q298.15 40.85 297.2 39.9 L297.2 39.9 Q293.55 36.25 286.9 35.6 L284.65 35.5 284.0 35.5 Q282.7 35.55 281.4 35.55 L279.45 35.7 278.7 35.85 Q277.35 36.2 276.0 36.5 275.95 37.05 275.9 37.6 275.7 39.0 275.55 40.35 273.75 38.45 271.3 37.2 270.2 36.65 269.0 36.25 L268.35 36.05 266.25 35.65 263.7 35.6 262.45 35.9 Q260.45 36.6 259.55 39.35 258.25 39.55 257.8 41.6 257.5 42.75 257.5 44.5 M167.5 46.0 L167.5 46.0 Q167.5 51.0 168.0 52.0 L168.1 52.0 Q171.0 52.45 173.45 53.4 L173.65 53.5 Q175.7 53.75 177.75 54.0 L177.75 54.0 Q179.6 54.0 182.85 51.25 L183.35 50.85 186.75 47.55 187.6 46.55 Q188.35 49.95 195.9 54.4 L196.0 54.5 Q197.2 53.5 198.35 52.5 L198.55 52.2 198.85 51.8 199.1 51.4 Q200.05 52.7 201.5 54.0 L201.5 54.0 202.55 54.85 Q207.25 58.25 214.8 58.5 L216.0 58.5 Q218.3 58.5 220.7 57.7 L223.05 56.8 223.55 56.55 Q226.1 55.35 227.4 54.1 L227.5 54.0 Q236.3 54.8 242.25 56.35 L243.05 56.55 Q245.85 57.2 248.6 57.85 L250.0 58.0 Q251.9 58.0 253.25 57.4 L253.55 57.3 254.95 56.3 Q255.9 55.4 256.5 53.5 254.35 51.85 252.2 50.25 250.1 48.35 248.0 46.45 L247.35 45.75 243.2 40.7 242.7 40.1 Q240.6 37.65 238.3 36.65 235.65 35.6 230.8 35.5 L230.0 35.5 Q228.2 35.5 227.0 36.6 L226.2 37.6 225.3 39.75 224.5 41.0 223.7 40.4 Q222.65 39.7 221.55 39.25 219.55 38.35 217.25 38.1 214.8 38.25 212.4 38.35 L210.75 38.75 Q208.9 39.25 206.9 40.1 L206.5 40.3 Q203.35 41.65 200.15 43.9 199.3 44.6 198.45 45.25 L197.7 46.1 196.65 44.7 Q194.75 42.25 191.7 39.6 189.65 40.3 188.65 41.15 187.6 42.25 187.5 45.6 180.15 39.5 174.35 38.3 167.5 37.2 167.5 46.0 M93.5 43.75 L93.5 43.75 Q93.5 46.75 94.25 47.65 L94.55 48.0 95.0 48.5 95.3 48.5 100.25 48.15 100.55 48.05 Q99.6 49.4 99.5 50.55 L99.5 50.75 99.55 52.8 Q99.65 54.25 99.95 54.7 100.25 55.2 101.5 56.0 L105.5 56.15 Q106.7 56.2 107.9 56.25 L109.4 56.25 Q110.6 56.3 111.75 56.35 L112.95 56.4 117.7 56.5 118.0 56.5 125.6 55.9 Q127.2 55.65 128.75 55.45 132.2 54.8 135.6 54.2 137.1 53.9 138.55 53.6 143.1 52.4 147.65 51.25 155.5 48.75 155.5 46.0 155.25 44.25 155.05 42.55 154.5 40.8 153.95 39.05 L152.5 34.75 152.0 32.5 Q149.45 32.4 146.9 32.6 142.05 32.95 137.2 34.4 L134.25 35.4 Q129.4 37.2 125.0 40.0 L124.05 38.6 123.2 37.55 121.8 36.45 Q120.15 35.5 118.0 35.5 117.65 35.5 116.9 35.85 114.55 36.9 108.45 41.05 L108.15 41.25 104.45 43.75 104.3 43.1 Q103.85 42.35 103.65 41.45 L102.8 40.05 Q100.7 38.95 97.45 39.7 93.5 40.6 93.5 43.75 M67.5 43.5 Q67.5 46.65 69.5 48.0 L75.7 48.45 80.75 48.5 Q84.15 48.5 85.3 47.8 86.05 47.4 86.5 46.0 L86.0 43.0 Q80.6 36.1 73.75 37.65 71.1 38.2 69.25 40.0 67.5 41.7 67.5 43.5 M39.5 41.5 L40.0 44.5 Q41.35 45.85 43.7 46.8 46.6 48.0 50.0 48.0 57.5 48.0 60.1 46.05 62.5 44.25 62.5 39.25 62.5 36.3 62.0 32.5 56.4 32.5 50.2 34.55 42.55 37.1 39.5 41.5 M3.5 37.5 Q3.5 40.4 5.55 43.45 8.85 48.5 16.0 48.5 17.1 48.5 22.6 44.35 28.45 39.9 30.5 37.0 23.15 29.8 12.8 31.9 8.95 32.7 6.15 34.5 3.5 36.2 3.5 37.5" fill="#ffffff" fill-rule="evenodd" stroke="none"/>
      <path d="M3.5 37.5 Q3.5 36.2 6.15 34.5 8.95 32.7 12.8 31.9 23.15 29.8 30.5 37.0 28.45 39.9 22.6 44.35 17.1 48.5 16.0 48.5 8.85 48.5 5.55 43.45 3.5 40.4 3.5 37.5 M39.5 41.5 Q42.55 37.1 50.2 34.55 56.4 32.5 62.0 32.5 62.5 36.3 62.5 39.25 62.5 44.25 60.1 46.05 57.5 48.0 50.0 48.0 46.6 48.0 43.7 46.8 41.35 45.85 40.0 44.5 L39.5 41.5 M67.5 43.5 Q67.5 41.7 69.25 40.0 71.1 38.2 73.75 37.65 80.6 36.1 86.0 43.0 L86.5 46.0 Q86.05 47.4 85.3 47.8 84.15 48.5 80.75 48.5 L75.7 48.45 69.5 48.0 Q67.5 46.65 67.5 43.5 M93.5 43.75 Q93.5 40.6 97.45 39.7 100.7 38.95 102.8 40.05 L103.65 41.45 Q103.85 42.35 104.3 43.1 L104.45 43.75 108.15 41.25 108.45 41.05 Q114.55 36.9 116.9 35.85 117.65 35.5 118.0 35.5 120.15 35.5 121.8 36.45 L123.2 37.55 124.05 38.6 125.0 40.0 Q129.4 37.2 134.25 35.4 L137.2 34.4 Q142.05 32.95 146.9 32.6 149.45 32.4 152.0 32.5 L152.5 34.75 153.95 39.05 Q154.5 40.8 155.05 42.55 155.25 44.25 155.5 46.0 155.5 48.75 147.65 51.25 143.1 52.4 138.55 53.6 137.1 53.9 135.6 54.2 132.2 54.8 128.75 55.45 127.2 55.65 125.6 55.9 L118.0 56.5 117.7 56.5 112.95 56.4 111.75 56.35 Q110.6 56.3 109.4 56.25 L107.9 56.25 Q106.7 56.2 105.5 56.15 L101.5 56.0 Q100.25 55.2 99.95 54.7 99.65 54.25 99.55 52.8 L99.5 50.75 99.5 50.55 Q99.6 49.4 100.55 48.05 L100.25 48.15 95.3 48.5 95.0 48.5 94.55 48.0 94.25 47.65 Q93.5 46.75 93.5 43.75 L93.5 43.75 M167.5 46.0 Q167.5 37.2 174.35 38.3 180.15 39.5 187.5 45.6 187.6 42.25 188.65 41.15 189.65 40.3 191.7 39.6 194.75 42.25 196.65 44.7 L197.7 46.1 198.45 45.25 Q199.3 44.6 200.15 43.9 203.35 41.65 206.5 40.3 L206.9 40.1 Q208.9 39.25 210.75 38.75 L212.4 38.35 Q214.8 38.25 217.25 38.1 219.55 38.35 221.55 39.25 222.65 39.7 223.7 40.4 L224.5 41.0 225.3 39.75 226.2 37.6 227.0 36.6 Q228.2 35.5 230.0 35.5 L230.8 35.5 Q235.65 35.6 238.3 36.65 240.6 37.65 242.7 40.1 L243.2 40.7 247.35 45.75 248.0 46.45 Q250.1 48.35 252.2 50.25 254.35 51.85 256.5 53.5 255.9 55.4 254.95 56.3 L253.55 57.3 253.25 57.4 Q251.9 58.0 250.0 58.0 L248.6 57.85 Q245.85 57.2 243.05 56.55 L242.25 56.35 Q236.3 54.8 227.5 54.0 L227.4 54.1 Q226.1 55.35 223.55 56.55 L223.05 56.8 220.7 57.7 Q218.3 58.5 216.0 58.5 L214.8 58.5 Q207.25 58.25 202.55 54.85 L201.5 54.0 201.5 54.0 Q200.05 52.7 199.1 51.4 L198.85 51.8 198.55 52.2 198.35 52.5 Q197.2 53.5 196.0 54.5 L195.9 54.4 Q188.35 49.95 187.6 46.55 L186.75 47.55 183.35 50.85 182.85 51.25 Q179.6 54.0 177.75 54.0 L177.75 54.0 Q175.7 53.75 173.65 53.5 L173.45 53.4 Q171.0 52.45 168.1 52.0 L168.0 52.0 Q167.5 51.0 167.5 46.0 L167.5 46.0 M257.5 44.5 Q257.5 42.75 257.8 41.6 258.25 39.55 259.55 39.35 260.45 36.6 262.45 35.9 L263.7 35.6 266.25 35.65 268.35 36.05 269.0 36.25 Q270.2 36.65 271.3 37.2 273.75 38.45 275.55 40.35 275.7 39.0 275.9 37.6 275.95 37.05 276.0 36.5 277.35 36.2 278.7 35.85 L279.45 35.7 281.4 35.55 Q282.7 35.55 284.0 35.5 L284.65 35.5 286.9 35.6 Q293.55 36.25 297.2 39.9 L297.2 39.9 Q298.15 40.85 299.85 43.85 L300.7 45.25 Q300.95 46.25 301.2 47.25 301.8 50.05 302.45 52.9 L301.7 53.25 Q300.35 53.35 299.0 53.5 297.3 53.5 291.05 50.75 L288.85 49.8 286.85 48.9 283.15 46.95 281.9 46.25 Q280.9 45.55 279.85 44.8 L279.55 44.5 Q278.35 43.5 277.15 42.5 278.1 44.15 278.4 45.95 L278.5 47.5 Q278.5 50.55 277.95 51.0 277.25 51.0 277.0 51.5 L274.7 52.3 274.0 52.5 Q273.05 52.05 272.1 51.6 L272.35 52.1 272.5 52.5 Q272.75 53.0 272.4 53.5 L271.7 54.0 Q271.4 54.1 271.05 54.25 L268.95 54.5 268.5 54.5 267.6 54.4 267.0 54.25 Q266.7 54.15 266.4 54.05 265.75 53.75 265.1 53.45 263.2 52.35 261.25 49.9 L260.55 49.05 Q257.9 44.55 257.55 44.45 L257.55 44.45 257.5 44.5 M302.75 40.05 Q303.7 39.5 306.0 39.5 309.0 39.5 310.8 41.55 311.9 42.75 313.0 44.0 317.15 39.2 322.65 38.55 324.2 38.4 325.8 38.55 L329.3 39.2 Q333.2 40.35 335.85 42.75 338.5 45.2 338.5 47.75 338.25 52.25 336.3 54.35 L334.15 56.05 Q331.75 57.3 327.25 57.9 L317.0 58.5 Q313.55 58.45 310.05 58.4 L306.65 58.05 306.65 56.7 306.55 51.7 Q306.4 48.4 306.0 47.05 304.4 43.55 302.75 40.05 L302.75 40.05 M343.5 43.75 Q343.5 41.0 347.25 39.25 352.95 37.15 356.5 38.8 357.55 39.25 358.5 40.0 359.55 38.0 360.65 36.0 362.95 31.9 364.4 30.8 366.05 29.65 367.25 31.85 L369.75 36.95 Q371.65 40.0 374.5 40.0 376.1 40.0 376.8 39.05 377.5 35.5 380.0 35.5 381.7 35.5 388.75 40.7 L398.25 48.1 400.5 50.0 Q394.05 55.5 390.2 54.4 L387.55 52.95 Q386.05 52.0 385.0 52.0 L384.3 52.0 379.5 52.5 Q376.15 53.3 375.4 55.25 L374.7 57.5 Q374.1 58.5 372.0 58.5 367.45 58.25 362.9 57.95 352.6 56.65 347.55 52.05 343.55 48.45 343.5 43.85 L343.5 43.75 M403.5 42.0 Q403.5 39.15 403.65 39.05 407.25 38.0 412.85 40.25 418.75 42.65 422.5 45.5 L422.5 50.0 Q420.05 52.5 417.0 52.5 412.2 52.5 407.55 48.0 403.5 44.1 403.5 42.0 Z" fill="none" stroke="#000000" stroke-linecap="round" stroke-linejoin="round" stroke-opacity="0.0" stroke-width="1.0"/>
    </g>
  </defs>
</svg>
