<?xml version="1.0" encoding="UTF-8" standalone="no"?>
<svg xmlns:xlink="http://www.w3.org/1999/xlink" height="195.75px" width="447.5px" xmlns="http://www.w3.org/2000/svg">
  <g transform="matrix(1.0, 0.0, 0.0, 1.0, -7.85, 14.75)">
    <path d="M43.85 -4.2 L45.75 -3.75 Q46.0 -4.0 46.0 -1.5 46.0 -0.15 44.05 3.0 41.95 6.25 40.75 6.25 L35.6 6.0 Q35.35 4.5 35.35 1.85 35.35 -0.7 36.6 -2.25 38.2 -4.25 41.6 -4.25 L43.85 -4.2 M172.4 -5.65 Q171.55 -4.1 170.25 -3.0 L168.7 -4.75 Q167.75 -5.75 167.75 -7.25 167.75 -8.0 168.95 -9.45 170.05 -10.7 171.0 -11.35 L172.6 -10.55 Q173.25 -9.9 173.25 -8.25 173.25 -7.15 172.4 -5.65 M199.5 -13.75 Q204.4 -13.9 205.5 -11.3 205.85 -10.45 205.85 -5.85 L205.6 -0.5 203.6 0.25 Q200.45 -0.7 199.55 -4.35 199.25 -5.65 199.25 -9.0 199.25 -11.6 199.5 -13.75 M353.5 -3.1 L352.95 1.95 352.25 8.6 Q351.9 8.6 351.55 8.9 L351.25 9.35 348.25 9.1 347.55 4.15 Q347.0 1.0 347.0 -0.35 347.0 -1.95 348.45 -3.55 350.25 -5.6 353.25 -5.75 353.5 -5.6 353.5 -3.1 M429.3 70.05 L430.75 70.5 430.9 70.7 431.0 72.75 Q431.0 74.55 430.2 77.65 429.35 81.0 428.1 83.5 L423.95 78.75 Q421.25 75.4 421.25 75.1 421.25 73.7 424.0 71.75 426.55 70.0 427.6 70.0 L429.3 70.05 M325.0 28.5 Q324.7 30.25 322.75 30.75 320.05 29.15 319.5 27.5 320.1 26.9 321.65 26.7 L324.5 27.0 325.0 28.5 M356.6 41.3 L356.85 43.0 355.4 43.4 352.0 43.75 Q351.0 42.75 351.0 40.0 L353.75 39.7 Q354.9 39.8 356.35 40.75 L356.6 41.3 M330.6 79.0 Q329.0 80.25 327.85 80.6 L326.1 79.55 Q325.5 78.75 325.5 77.0 325.5 74.15 328.1 73.75 330.75 73.3 333.25 76.0 332.6 77.5 330.6 79.0 M430.05 114.0 L428.6 114.25 Q425.45 114.25 424.55 111.3 424.25 110.3 424.25 107.85 427.2 104.9 429.1 107.75 430.5 109.85 430.5 112.1 430.5 113.65 430.2 113.85 L429.85 113.75 430.05 114.0 M442.0 128.65 L439.6 129.0 438.75 128.35 Q438.5 127.95 438.5 126.35 438.5 124.8 439.7 124.35 L440.85 124.0 Q442.1 124.5 443.1 126.0 L443.0 126.55 Q442.85 127.3 442.85 128.25 L442.0 128.65 M453.35 169.25 Q452.2 171.25 450.5 171.25 447.95 171.25 446.8 169.75 446.0 168.75 446.0 167.5 446.0 162.45 450.2 162.25 451.85 162.15 453.05 163.1 454.35 164.15 454.35 165.75 454.35 167.55 453.35 169.25 M272.1 15.0 L272.1 15.75 270.75 17.25 268.5 17.25 267.7 16.8 Q267.5 16.55 267.5 15.0 267.5 13.45 268.65 13.15 L269.75 13.0 Q271.7 13.8 272.1 15.0 M257.4 98.2 Q256.15 99.55 255.0 100.0 255.0 98.05 253.25 93.85 L253.5 91.85 Q256.15 90.55 257.7 92.35 258.85 93.65 258.85 95.25 258.85 96.6 257.4 98.2 M201.25 55.5 Q203.35 55.5 205.4 56.5 207.65 57.6 207.75 59.0 L206.6 61.0 Q203.25 59.6 201.25 57.75 L201.25 55.5 M266.0 125.0 L266.0 133.35 265.25 133.8 263.75 134.6 Q261.35 132.05 261.35 128.75 261.35 124.85 263.75 122.85 265.5 123.55 266.0 125.0 M117.2 36.6 Q116.7 37.6 115.0 37.6 110.7 37.6 109.35 36.4 108.6 35.7 108.6 34.0 108.6 31.65 110.0 29.75 111.3 27.95 113.05 27.55 117.5 26.45 117.5 33.75 117.5 35.95 117.2 36.6 M85.95 50.3 Q86.5 50.65 86.5 52.25 86.5 53.8 85.8 55.1 L84.5 57.0 81.6 56.75 Q81.35 56.85 81.35 54.35 81.35 53.9 82.2 52.5 83.25 50.75 84.5 49.85 L85.95 50.3 M138.25 56.1 Q138.25 54.6 139.4 54.05 L140.5 53.6 Q141.75 54.25 142.75 55.75 L141.5 58.75 138.75 58.75 138.5 58.1 Q138.25 57.55 138.25 56.1 M144.1 98.05 Q145.3 98.2 146.85 99.0 L147.1 99.75 Q146.7 101.05 144.5 101.75 L142.15 101.5 Q141.5 101.25 141.5 99.6 141.5 98.05 141.75 97.85 L142.0 98.0 144.1 98.05 M31.1 70.25 Q31.75 70.45 31.75 72.0 31.75 74.15 31.4 75.5 30.95 77.3 29.75 78.85 L27.25 78.85 Q26.9 78.3 26.8 77.6 L26.75 75.0 Q26.75 74.5 27.9 72.45 29.0 70.35 29.5 70.0 L31.1 70.25 M12.5 143.25 L11.85 144.75 11.25 144.9 Q10.6 145.1 10.6 145.25 L9.25 145.2 Q8.85 145.1 8.85 143.5 8.85 141.9 9.65 141.95 L11.6 142.5 12.5 143.25 M37.6 180.0 L36.6 179.5 Q37.3 178.4 37.85 178.1 L39.85 177.85 Q39.35 179.3 37.6 180.0 M91.85 105.6 L91.75 107.1 Q91.6 107.25 91.6 107.85 L90.95 108.3 89.5 109.1 Q88.2 108.6 87.9 108.3 87.25 107.65 87.25 106.0 87.25 104.35 87.9 103.65 88.25 103.25 89.5 102.75 L91.2 103.45 Q91.85 103.95 91.85 105.6" fill="#ffffff" fill-rule="evenodd" stroke="none"/>
  </g>
</svg>