<?xml version="1.0" encoding="UTF-8" standalone="no"?>
<svg xmlns:xlink="http://www.w3.org/1999/xlink" height="183.55px" width="413.6px" xmlns="http://www.w3.org/2000/svg">
  <g transform="matrix(1.0, 0.0, 0.0, 1.0, -27.5, 35.95)">
    <path d="M31.0 -24.05 Q30.25 -25.6 30.25 -27.35 30.25 -30.4 32.15 -32.75 35.0 -36.2 40.75 -34.25 L40.75 -28.15 Q40.8 -23.7 42.0 -22.1 40.9 -21.0 36.1 -21.0 32.4 -21.0 31.0 -24.05 M58.75 -14.25 Q58.75 -16.9 61.1 -20.85 64.35 -26.4 69.25 -24.1 L69.5 -17.6 Q70.15 -14.15 69.55 -12.6 68.55 -9.85 62.5 -9.85 59.8 -9.85 59.05 -11.85 58.75 -12.6 58.75 -14.25 M99.75 -9.35 L101.55 -7.65 Q102.75 -6.4 102.75 -5.75 102.75 -4.2 102.4 -3.7 L102.0 -3.5 Q101.55 -2.8 100.8 -2.45 L97.5 -2.0 96.7 -2.45 Q96.5 -2.7 96.5 -4.25 96.5 -4.6 98.05 -6.95 L99.75 -9.35 M138.75 -15.25 Q138.75 -14.1 137.6 -10.65 136.35 -6.75 135.35 -6.75 L132.25 -6.85 131.0 -7.0 130.2 -7.75 Q130.0 -8.15 130.0 -9.75 130.0 -11.0 130.9 -13.0 131.75 -15.0 131.75 -16.25 131.75 -18.3 134.9 -18.85 L138.5 -19.0 138.75 -15.25 M274.1 -5.25 L273.85 -0.2 Q273.05 2.25 269.25 2.25 L266.8 2.15 266.25 2.0 266.0 1.75 Q265.75 1.5 265.75 0.0 265.75 -1.25 266.65 -3.6 267.5 -6.0 267.5 -7.25 267.5 -10.3 267.9 -10.7 L273.85 -10.85 274.1 -5.25 M310.75 -16.85 Q310.75 -13.55 309.5 -10.35 307.75 -5.75 304.35 -5.75 303.05 -5.75 300.95 -8.15 299.0 -10.35 299.0 -10.85 299.0 -12.9 302.15 -16.65 306.0 -21.3 310.5 -21.0 L310.75 -16.85 M404.5 -27.85 Q404.5 -26.2 402.35 -22.85 400.35 -19.7 399.1 -19.0 397.9 -20.5 397.2 -22.3 396.5 -24.1 396.5 -25.6 396.5 -28.95 397.4 -30.05 399.0 -32.0 404.25 -31.25 L404.5 -27.85 M439.1 -0.95 Q437.85 2.25 435.75 2.25 431.65 2.25 430.1 0.05 429.35 -1.05 429.35 -2.5 429.35 -5.6 431.05 -8.05 432.55 -10.25 434.75 -11.1 L438.4 -10.9 Q440.1 -9.75 440.1 -6.75 440.1 -3.6 439.1 -0.95 M419.65 32.75 L419.75 35.1 Q419.75 37.6 419.2 39.1 418.5 41.05 416.75 42.0 L414.8 38.15 Q413.35 35.3 413.1 33.5 416.6 31.4 419.5 31.75 L419.65 32.75 M388.25 7.7 Q387.35 10.4 387.6 11.6 L386.6 13.0 Q382.5 10.05 382.5 8.5 382.5 7.2 383.85 4.15 385.35 0.75 386.85 -0.25 L388.85 1.2 Q389.25 1.8 389.25 3.6 389.25 4.7 388.25 7.7 M372.6 19.25 Q371.6 21.4 371.6 24.6 371.25 24.6 370.9 24.9 370.6 25.15 370.6 25.35 L367.75 25.1 Q367.5 23.6 367.5 20.85 367.5 17.95 367.8 17.7 368.15 17.45 371.85 17.75 L372.6 19.25 M357.6 30.05 Q356.45 32.75 354.75 32.75 L352.8 32.5 352.75 32.25 352.0 31.5 352.0 21.6 Q355.7 20.05 357.4 21.95 358.6 23.3 358.6 25.75 358.6 27.8 357.6 30.05 M363.4 77.05 L363.5 79.1 Q363.5 80.4 363.0 81.9 362.5 83.4 362.5 84.5 362.0 84.5 361.25 85.25 L358.6 85.0 358.35 80.0 Q358.35 77.1 358.7 76.85 359.15 76.5 363.25 76.85 L363.4 77.05 M439.1 130.6 Q439.1 133.95 438.8 134.55 437.9 136.35 433.75 137.35 432.4 136.9 432.05 136.55 431.5 135.95 431.5 134.25 431.5 133.25 432.1 132.75 L434.5 131.0 Q433.7 130.4 433.15 129.4 432.5 128.3 432.5 127.25 433.85 125.9 438.85 126.5 L439.1 130.6 M302.5 24.0 L302.6 26.25 Q302.6 27.2 301.55 28.7 L299.25 31.75 296.25 31.5 Q296.0 31.0 296.0 28.5 296.0 26.2 296.85 24.65 298.4 21.65 302.35 23.6 L302.5 24.0 M270.9 45.25 L276.85 45.0 277.1 50.75 Q277.25 54.25 277.75 56.5 L276.85 57.75 Q275.35 56.85 272.9 52.95 270.5 49.15 270.5 47.85 270.5 45.65 270.9 45.25 M200.75 6.1 L198.9 8.65 197.5 10.35 Q191.6 10.35 191.6 5.85 L192.1 2.75 Q193.85 2.4 200.5 5.0 L200.75 6.1 M129.75 12.45 Q126.0 10.95 126.0 8.6 126.0 7.25 127.8 5.5 L131.25 2.75 Q133.55 3.95 135.05 7.35 136.3 10.15 136.6 13.25 136.35 14.0 134.6 14.25 L129.75 12.45 M151.25 36.6 Q152.0 37.45 152.0 39.1 152.0 40.15 151.0 41.15 L148.6 43.0 146.9 42.3 Q146.35 41.8 146.35 40.1 146.35 39.4 146.85 38.45 147.7 36.8 149.6 35.6 150.8 36.1 151.25 36.6 M119.1 69.5 L119.35 71.35 119.1 73.25 118.35 73.65 117.0 74.25 115.3 73.65 Q114.75 73.15 114.75 71.5 114.75 70.0 115.5 69.5 116.45 68.9 119.1 69.5 M94.85 80.35 Q94.25 80.35 93.6 81.6 L90.85 79.8 Q90.0 79.1 90.0 78.35 90.0 76.85 90.75 75.3 91.5 73.75 92.6 73.0 94.45 73.75 94.85 75.0 L94.85 80.35 M31.5 41.5 Q37.6 31.5 39.8 30.4 42.0 29.25 42.0 36.25 42.0 40.85 38.85 45.0 32.25 42.25 31.5 41.5 M34.5 114.0 L33.85 115.3 Q33.15 116.0 31.5 116.0 L29.3 115.75 29.0 115.5 Q28.5 114.75 28.5 112.5 L31.45 112.3 Q33.1 112.4 34.25 113.25 L34.5 114.0 M90.6 146.6 L88.15 144.1 Q86.5 142.15 86.5 141.35 86.5 139.8 86.75 139.6 L87.0 139.75 88.65 139.65 91.35 139.75 91.6 140.4 91.85 142.35 91.6 145.85 Q91.25 145.85 90.9 146.15 90.6 146.4 90.6 146.6" fill="#ffffff" fill-rule="evenodd" stroke="none"/>
  </g>
</svg>