<?xml version="1.0" encoding="UTF-8" standalone="no"?>
<svg xmlns:xlink="http://www.w3.org/1999/xlink" height="4.8px" width="5.05px" xmlns="http://www.w3.org/2000/svg">
  <g transform="matrix(1.0, 0.0, 0.0, 1.0, 1.85, 4.3)">
    <path d="M1.2 -3.25 L1.7 -3.25 2.05 -3.15 Q2.35 -2.4 2.1 -1.6 L1.85 -1.25 Q1.45 -0.9 0.55 -0.7 L-0.2 -0.95 -0.2 -1.05 Q1.6 -1.05 1.6 -2.4 L1.4 -3.0 1.2 -3.25" fill="#cdd2d6" fill-rule="evenodd" stroke="none"/>
    <path d="M1.2 -3.25 L1.4 -3.0 1.6 -2.4 Q1.6 -1.05 -0.2 -1.05 L-0.3 -1.6 -0.2 -2.2 0.3 -2.95 0.5 -3.1 1.2 -3.25" fill="#eef3f7" fill-rule="evenodd" stroke="none"/>
    <path d="M-0.2 -1.05 L-0.2 -0.95 0.55 -0.7 Q1.45 -0.9 1.85 -1.25 L2.1 -1.6 Q2.35 -2.4 2.05 -3.15 L1.7 -3.25 1.2 -3.25 0.5 -3.1 0.3 -2.95 -0.2 -2.2 -0.45 -1.65 -0.45 -1.6 -0.85 -0.5 M-0.2 -1.05 L-0.3 -1.6 -0.2 -2.2" fill="none" stroke="#a36a6a" stroke-linecap="round" stroke-linejoin="round" stroke-width="1"/>
    <path d="M1.0 -1.6 Q0.55 -1.6 0.55 -2.05 0.55 -2.5 1.0 -2.5 L1.4 -2.15 Q1.4 -1.6 1.0 -1.6" fill="#660000" fill-rule="evenodd" stroke="none"/>
  </g>
</svg>