<?xml version="1.0" encoding="UTF-8" standalone="no"?>
<svg xmlns:xlink="http://www.w3.org/1999/xlink" height="6.85px" width="11.05px" xmlns="http://www.w3.org/2000/svg">
  <g id="shape0" transform="matrix(1.0, 0.0, 0.0, 1.0, 5.5, 3.4)">
    <path d="M4.35 2.15 L4.55 2.4 3.65 2.45 1.0 2.25 Q-4.5 1.95 -4.5 0.4 -4.05 -0.6 -4.05 -1.05 L-4.5 -1.95 -4.25 -2.2 -4.05 -2.35 -2.6 -2.15 -2.35 -2.05 -1.85 -1.35 Q-1.55 -1.0 -1.1 -0.9 L-1.8 -0.7 Q-3.1 -0.25 -3.1 0.25 -3.1 0.55 0.1 1.4 L3.95 2.2 4.35 2.15 M-2.45 0.2 L-2.4 0.25 -2.45 0.2" fill="#d6baba" fill-rule="evenodd" stroke="none"/>
    <path d="M-1.1 -0.9 L-0.9 -0.85 -0.1 -0.75 1.05 -0.35 3.15 1.15 3.9 1.75 4.35 2.15 3.95 2.2 0.1 1.4 Q-3.1 0.55 -3.1 0.25 -3.1 -0.25 -1.8 -0.7 L-1.1 -0.9 M-2.45 0.2 L-2.4 0.25 -2.45 0.2" fill="#faf8f8" fill-rule="evenodd" stroke="none"/>
    <path d="M4.35 2.15 L4.55 2.4 3.65 2.45 1.0 2.25 Q-4.5 1.95 -4.5 0.4 -4.05 -0.6 -4.05 -1.05 L-4.5 -1.95 M-2.35 -2.05 L-1.85 -1.35 Q-1.55 -1.0 -1.1 -0.9 L-0.9 -0.85 -0.1 -0.75 1.05 -0.35 3.15 1.15 3.9 1.75 4.35 2.15" fill="none" stroke="#a36a6a" stroke-linecap="round" stroke-linejoin="round" stroke-width="1"/>
  </g>
</svg>