<?xml version="1.0" encoding="UTF-8" standalone="no"?>
<svg xmlns:xlink="http://www.w3.org/1999/xlink" height="6.45px" width="11.3px" xmlns="http://www.w3.org/2000/svg">
  <g id="shape0" transform="matrix(1.0, 0.0, 0.0, 1.0, 5.5, 3.4)">
    <path d="M4.4 0.9 L3.95 1.15 Q3.15 1.8 2.35 1.95 L-1.1 2.05 Q-4.5 1.6 -4.5 0.4 -4.05 -0.6 -4.05 -1.05 L-4.5 -1.95 -4.25 -2.2 -4.05 -2.35 -2.6 -2.15 -2.35 -2.05 -1.85 -1.35 Q-1.55 -1.0 -1.1 -0.9 L-1.8 -0.7 Q-3.1 -0.25 -3.1 0.25 -3.1 0.5 -1.1 1.1 L-0.1 1.35 0.0 1.3 0.75 1.4 3.6 0.9 4.75 0.6 4.4 0.9" fill="#d6baba" fill-rule="evenodd" stroke="none"/>
    <path d="M-0.9 -0.85 L0.45 -1.05 1.2 -0.9 Q1.95 -0.45 2.15 0.35 L2.15 0.4 2.2 0.4 2.7 0.8 2.75 0.85 2.75 0.8 4.8 0.55 4.4 0.9 4.75 0.6 3.6 0.9 0.75 1.4 0.0 1.3 -0.1 1.35 -1.1 1.1 Q-3.1 0.5 -3.1 0.25 -3.1 -0.25 -1.8 -0.7 L-1.1 -0.9 -0.95 -0.85 -0.9 -0.85" fill="#faf8f8" fill-rule="evenodd" stroke="none"/>
    <path d="M-0.9 -0.85 L0.45 -1.05 1.2 -0.9 Q1.95 -0.45 2.15 0.35 L2.2 0.4 2.7 0.8 2.75 0.8 4.8 0.55 4.4 0.9 3.95 1.15 Q3.15 1.8 2.35 1.95 L-1.1 2.05 Q-4.5 1.6 -4.5 0.4 -4.05 -0.6 -4.05 -1.05 L-4.5 -1.95 M-2.35 -2.05 L-1.85 -1.35 Q-1.55 -1.0 -1.1 -0.9 L-0.95 -0.85 -0.9 -0.85 -0.95 -0.85 M2.7 0.8 L2.75 0.85 M2.15 0.4 L2.2 0.4" fill="none" stroke="#a36a6a" stroke-linecap="round" stroke-linejoin="round" stroke-width="1"/>
  </g>
</svg>