<?xml version="1.0" encoding="UTF-8" standalone="no"?>
<svg xmlns:xlink="http://www.w3.org/1999/xlink" height="5px" width="9.05px" xmlns="http://www.w3.org/2000/svg">
  <g id="shape0" transform="matrix(1.0, 0.0, 0.0, 1.0, 8.7, 3.4)">
    <path d="M-0.8 -1.55 L-0.95 -0.8 Q-0.95 -0.55 -1.25 -0.6 L-1.65 -0.55 -2.95 0.6 -6.65 0.4 -7.25 -1.55 -7.7 -2.4 -0.7 -2.15 -0.65 -1.9 -0.7 -1.6 -0.8 -1.55 M-3.75 -1.2 L-3.9 -1.5 Q-4.35 -0.75 -4.05 0.2 L-3.9 0.15 Q-3.7 -0.25 -3.65 -0.75 L-3.75 -1.2 M-0.7 -1.6 L-0.7 -2.15 -0.7 -1.6 M-1.6 -1.8 Q-1.9 -1.3 -1.5 -1.45 -1.3 -1.6 -1.6 -1.8" fill="#d6baba" fill-rule="evenodd" stroke="none"/>
    <path d="M-3.75 -1.2 L-3.65 -0.75 Q-3.7 -0.25 -3.9 0.15 L-4.05 0.2 Q-4.35 -0.75 -3.9 -1.5 L-3.75 -1.2 M-1.6 -1.8 Q-1.3 -1.6 -1.5 -1.45 -1.9 -1.3 -1.6 -1.8" fill="#faf8f8" fill-rule="evenodd" stroke="none"/>
    <path d="M-0.8 -1.55 L-0.95 -0.8 Q-0.95 -0.55 -1.25 -0.6 L-1.65 -0.55 -2.95 0.6 -6.65 0.4 -7.25 -1.55 -7.7 -2.4" fill="none" stroke="#a36a6a" stroke-linecap="round" stroke-linejoin="round" stroke-width="1"/>
  </g>
</svg>