<?xml version="1.0" encoding="UTF-8" standalone="no"?>
<svg xmlns:xlink="http://www.w3.org/1999/xlink" height="19.95px" width="47.2px" xmlns="http://www.w3.org/2000/svg">
  <g transform="matrix(1.0, 0.0, 0.0, 1.0, 18, 20.45)">
    <path d="M18.85 -17.2 Q18.55 -16.8 18.1 -16.8 17.6 -16.8 17.3 -17.35 L17.1 -17.9 Q17.1 -18.8 18.1 -18.85 19.05 -18.95 19.05 -17.85 L18.85 -17.2 M17.2 -5.15 L16.95 -5.05 Q16.5 -5.05 16.35 -5.4 L16.3 -5.6 Q16.3 -6.15 16.9 -6.15 17.45 -6.15 17.45 -5.6 L17.2 -5.15 M27.95 -7.65 Q27.6 -7.1 27.0 -7.1 26.1 -7.1 26.1 -8.1 26.1 -9.0 27.15 -9.3 28.2 -9.55 28.2 -8.4 L27.95 -7.65 M-4.3 -17.35 Q-5.35 -17.35 -5.35 -18.35 -5.35 -19.5 -4.15 -19.45 -3.05 -19.4 -3.0 -18.4 L-3.0 -18.55 -2.8 -18.55 Q-2.15 -18.5 -2.15 -18.0 -2.15 -17.25 -2.85 -17.25 -3.35 -17.25 -3.45 -17.6 L-4.3 -17.35 M-17.0 -10.95 Q-17.0 -11.8 -16.05 -11.85 -15.1 -11.9 -15.1 -10.95 -15.1 -10.05 -16.05 -10.05 -17.05 -10.05 -17.0 -10.95 M-16.45 -1.85 L-16.6 -2.3 Q-16.6 -3.2 -15.7 -3.25 -14.85 -3.25 -14.85 -2.4 -14.85 -1.5 -15.7 -1.5 -16.2 -1.5 -16.45 -1.85" fill="#000000" fill-rule="evenodd" stroke="none"/>
  </g>
</svg>