<?xml version="1.0" encoding="UTF-8" standalone="no"?>
<svg xmlns:xlink="http://www.w3.org/1999/xlink" height="20.25px" width="49.85px" xmlns="http://www.w3.org/2000/svg">
  <g transform="matrix(1.0, 0.0, 0.0, 1.0, 19.65, 20.8)">
    <path d="M19.55 -17.05 Q19.25 -16.7 18.85 -16.7 18.35 -16.7 18.05 -17.15 L17.85 -17.65 Q17.85 -18.45 18.85 -18.5 19.8 -18.55 19.8 -17.6 L19.55 -17.05 M17.6 -5.3 Q17.05 -5.3 16.95 -5.65 L16.95 -5.85 Q16.95 -6.4 17.5 -6.4 18.05 -6.4 18.05 -5.85 18.05 -5.3 17.6 -5.3 M28.1 -6.8 Q27.6 -6.8 27.35 -7.25 L27.2 -7.7 Q27.2 -8.55 28.2 -8.7 29.2 -8.8 29.2 -7.75 29.2 -6.8 28.1 -6.8 M-4.6 -17.8 Q-5.6 -17.8 -5.6 -18.65 -5.6 -19.8 -4.65 -19.8 -3.7 -19.8 -3.7 -18.75 -3.7 -17.8 -4.6 -17.8 M-2.85 -17.7 Q-3.55 -17.7 -3.5 -18.4 -3.5 -19.0 -2.85 -19.0 -2.2 -19.0 -2.2 -18.35 -2.2 -17.7 -2.85 -17.7 M-16.85 -10.05 Q-17.15 -9.65 -17.65 -9.65 -18.7 -9.65 -18.65 -10.6 -18.65 -11.55 -17.65 -11.55 -16.65 -11.55 -16.65 -10.6 L-16.85 -10.05 M-17.5 -3.1 Q-16.65 -3.1 -16.65 -2.35 -16.65 -1.55 -17.55 -1.55 -18.4 -1.55 -18.4 -2.35 -18.4 -3.1 -17.5 -3.1" fill="#000000" fill-rule="evenodd" stroke="none"/>
  </g>
</svg>