<?xml version="1.0" encoding="UTF-8" standalone="no"?>
<svg xmlns:xlink="http://www.w3.org/1999/xlink" height="20.35px" width="55.6px" xmlns="http://www.w3.org/2000/svg">
  <g transform="matrix(1.0, 0.0, 0.0, 1.0, 23.45, 19.5)">
    <path d="M19.65 -4.6 Q19.65 -4.05 19.1 -4.05 18.6 -4.05 18.6 -4.6 18.6 -5.1 19.15 -5.1 19.65 -5.1 19.65 -4.6 M21.1 -14.15 Q20.5 -14.15 20.35 -14.45 L20.3 -14.85 Q20.3 -15.45 21.05 -15.5 21.8 -15.55 21.8 -14.85 21.8 -14.15 21.1 -14.15 M29.7 -3.45 L29.6 -3.85 Q29.6 -4.6 30.4 -4.6 31.15 -4.65 31.15 -3.85 31.15 -3.05 30.35 -3.05 29.9 -3.05 29.7 -3.45 M-21.25 -0.75 Q-21.25 -0.15 -21.85 -0.15 -22.5 -0.15 -22.45 -0.75 -22.45 -1.25 -21.85 -1.3 -21.25 -1.35 -21.25 -0.75 M-21.75 -7.75 Q-21.75 -8.4 -20.9 -8.45 -20.1 -8.5 -20.1 -7.7 -20.1 -7.4 -20.35 -7.2 -20.55 -7.0 -20.8 -7.0 -21.75 -7.0 -21.75 -7.75 M-5.75 -17.65 Q-5.75 -17.35 -6.0 -17.1 -6.25 -16.8 -6.65 -16.8 -7.55 -16.8 -7.55 -17.6 -7.55 -18.5 -6.65 -18.5 -5.75 -18.5 -5.75 -17.65 M-2.2 -17.6 Q-2.2 -16.95 -2.85 -16.95 -3.55 -16.95 -3.5 -17.65 -3.5 -18.25 -2.85 -18.25 -2.2 -18.25 -2.2 -17.6" fill="#000000" fill-rule="evenodd" stroke="none"/>
  </g>
</svg>