<?xml version="1.0" encoding="UTF-8" standalone="no"?>
<svg xmlns:xlink="http://www.w3.org/1999/xlink" height="19.65px" width="57.15px" xmlns="http://www.w3.org/2000/svg">
  <g transform="matrix(1.0, 0.0, 0.0, 1.0, 24.45, 18.45)">
    <path d="M20.1 -4.1 Q20.1 -3.6 19.6 -3.6 19.1 -3.6 19.1 -4.15 19.1 -4.5 19.6 -4.55 20.1 -4.6 20.1 -4.1 M22.2 -12.95 Q22.0 -12.65 21.6 -12.65 20.9 -12.65 20.9 -13.35 20.9 -13.95 21.65 -13.95 22.35 -13.95 22.35 -13.35 L22.2 -12.95 M31.7 -2.1 Q31.7 -1.25 30.85 -1.25 30.0 -1.25 30.0 -2.1 30.0 -2.9 30.85 -2.9 31.7 -2.9 31.7 -2.1 M-22.45 -0.25 Q-22.45 0.2 -22.9 0.2 -23.45 0.2 -23.45 -0.2 -23.45 -0.65 -22.95 -0.65 -22.45 -0.65 -22.45 -0.25 M-20.95 -6.6 Q-20.95 -5.95 -21.6 -5.95 -22.3 -5.95 -22.25 -6.6 -22.25 -7.3 -21.6 -7.2 -20.95 -7.1 -20.95 -6.6 M-2.75 -17.1 L-2.65 -16.7 Q-2.65 -16.35 -3.1 -16.3 L-3.5 -16.7 Q-3.5 -17.25 -2.75 -17.1 M-6.05 -16.7 Q-6.05 -15.95 -6.8 -15.95 -7.6 -15.95 -7.6 -16.7 -7.6 -17.45 -6.8 -17.45 -6.05 -17.5 -6.05 -16.7" fill="#000000" fill-rule="evenodd" stroke="none"/>
  </g>
</svg>