<?xml version="1.0" encoding="UTF-8" standalone="no"?>
<svg xmlns:xlink="http://www.w3.org/1999/xlink" height="19.55px" width="59.1px" xmlns="http://www.w3.org/2000/svg">
  <g transform="matrix(1.0, 0.0, 0.0, 1.0, 26, 17.8)">
    <path d="M22.95 -11.3 Q22.7 -11.05 22.5 -11.05 22.05 -11.05 21.9 -11.4 L21.85 -11.7 Q21.85 -12.35 22.5 -12.35 23.15 -12.35 23.15 -11.7 L22.95 -11.3 M31.35 -0.05 Q30.9 -0.05 30.75 -0.4 L30.65 -0.75 Q30.65 -1.35 31.4 -1.35 32.1 -1.35 32.1 -0.75 31.95 -0.05 31.35 -0.05 M-21.4 -5.75 Q-21.4 -5.2 -22.05 -5.2 -22.85 -5.2 -22.65 -5.75 -22.65 -6.3 -22.0 -6.3 -21.4 -6.3 -21.4 -5.75 M-3.05 -16.8 Q-2.6 -16.8 -2.6 -16.35 -2.6 -15.9 -3.0 -15.9 -3.55 -15.9 -3.55 -16.3 -3.55 -16.8 -3.05 -16.8 M-6.3 -15.6 Q-6.3 -14.8 -7.1 -14.8 -7.8 -14.8 -7.85 -15.6 -7.85 -16.35 -7.05 -16.35 -6.3 -16.4 -6.3 -15.6 M-24.5 0.75 Q-24.9 0.75 -25.0 0.2 L-24.5 -0.2 Q-24.0 -0.25 -24.0 0.2 -24.0 0.75 -24.5 0.75" fill="#000000" fill-rule="evenodd" stroke="none"/>
  </g>
</svg>