<?xml version="1.0" encoding="UTF-8" standalone="no"?>
<svg xmlns:xlink="http://www.w3.org/1999/xlink" height="8.05px" width="9.4px" xmlns="http://www.w3.org/2000/svg">
  <g transform="matrix(1.0, 0.0, 0.0, 1.0, 3.75, 4.25)">
    <path d="M4.65 -0.6 L3.0 1.3 0.9 2.8 Q-0.15 2.8 -0.25 2.05 -0.35 1.15 -1.0 0.95 L-2.6 0.25 -2.75 -0.6 Q-2.75 -1.3 -2.1 -2.1 -1.15 -3.25 0.55 -3.25 2.4 -3.25 4.65 -0.6 M2.5 -1.5 Q1.8 -2.25 0.85 -2.25 -0.75 -2.25 -0.75 -1.1 0.6 1.1 1.2 1.1 2.15 1.1 2.65 0.4 3.0 -0.1 3.0 -0.55 L2.5 -1.5" fill="#220600" fill-rule="evenodd" stroke="none"/>
    <path d="M2.5 -1.5 L3.0 -0.55 Q3.0 -0.1 2.65 0.4 2.15 1.1 1.2 1.1 0.6 1.1 -0.75 -1.1 -0.75 -2.25 0.85 -2.25 1.8 -2.25 2.5 -1.5" fill="#8f1d01" fill-rule="evenodd" stroke="none"/>
  </g>
</svg>