<?xml version="1.0" encoding="UTF-8" standalone="no"?>
<svg xmlns:xlink="http://www.w3.org/1999/xlink" height="30.65px" width="64.35px" xmlns="http://www.w3.org/2000/svg">
  <g transform="matrix(1.0, 0.0, 0.0, 1.0, 36.8, 15.1)">
    <path d="M6.3 -0.25 L6.0 -0.5 6.0 -0.8 6.0 -0.9 4.9 0.3 4.65 0.3 4.6 0.1 Q4.6 -0.25 5.7 -1.35 6.85 -2.4 6.95 -1.7 L7.4 -1.9 7.8 -1.55 7.5 -0.8 Q8.15 -0.65 8.25 -0.4 L8.4 0.05 8.95 0.5 9.35 0.95 9.0 1.25 8.45 0.85 Q7.75 0.7 7.7 0.45 L7.6 0.0 Q7.45 -0.35 7.15 -0.2 6.85 -0.1 6.7 -0.4 L6.3 -0.25 M17.7 -6.65 Q19.0 -6.65 20.3 -6.1 L22.15 -5.8 24.05 -5.55 23.95 -5.4 23.6 -5.5 22.65 -5.4 19.55 -5.85 17.4 -6.45 17.15 -6.55 17.7 -6.65 M14.6 -5.5 Q15.25 -5.5 16.1 -4.7 L17.0 -3.5 17.0 -3.2 16.8 -3.15 Q16.85 -3.7 16.1 -4.35 L14.05 -5.5 14.6 -5.5 M11.1 1.65 Q11.8 2.0 12.15 2.65 12.55 3.45 13.25 3.7 L14.35 4.0 13.9 4.25 12.8 4.05 Q11.85 3.75 11.65 3.25 L11.0 2.55 10.5 2.2 10.3 1.95 Q10.3 1.3 11.1 1.65 M11.8 5.55 Q12.25 6.5 14.2 7.1 L14.95 6.95 15.1 7.1 14.75 7.4 14.15 7.55 Q11.9 6.6 11.55 5.95 L11.0 4.7 Q10.7 4.2 10.3 4.2 11.0 4.15 11.35 4.55 L11.8 5.55 M8.1 2.2 Q7.7 1.8 6.25 1.6 5.35 1.6 4.75 2.0 L3.55 2.9 2.45 3.55 Q1.8 3.9 1.5 4.2 L-0.2 5.6 -2.1 6.65 1.15 3.5 Q4.9 1.1 6.3 1.1 L7.6 1.5 8.6 2.0 8.6 2.2 8.1 2.2 M0.55 11.2 L0.45 12.75 Q0.45 13.0 1.95 13.45 3.4 13.95 3.4 14.3 L3.35 14.4 0.55 13.45 Q0.0 13.1 -0.05 12.65 L0.05 11.85 -0.1 10.3 -0.4 9.5 Q-0.5 9.25 -1.15 9.05 L-1.95 8.8 Q-1.75 8.4 -1.1 8.5 -0.55 8.55 -0.25 8.8 L0.3 9.6 0.55 11.2 M-10.65 -1.5 L-8.7 -1.95 -7.55 -1.9 Q-7.55 -1.75 -7.9 -1.6 L-7.6 -1.45 -7.45 -1.15 -7.55 -1.0 -7.55 -0.7 -7.55 -0.5 -7.45 0.0 -7.5 0.15 -7.2 3.05 -6.05 7.35 -6.1 7.4 Q-6.75 6.7 -7.4 5.05 -8.05 3.4 -8.05 2.4 L-8.0 0.25 -8.15 -0.55 Q-8.35 -0.45 -8.6 -0.7 L-9.1 -1.0 -9.95 -0.9 -10.6 -0.75 -12.15 0.0 -13.45 0.5 -18.25 1.65 -21.5 1.95 -25.25 1.7 -26.1 1.95 -26.95 2.2 Q-27.75 2.2 -28.45 1.3 -29.1 0.35 -29.8 0.35 L-32.75 1.15 -35.0 2.15 -35.3 2.0 -34.5 1.25 Q-33.95 0.8 -33.35 0.65 L-31.75 0.05 Q-30.9 -0.35 -30.0 -0.35 -29.0 -0.35 -28.15 0.65 -27.35 1.6 -27.0 1.6 L-24.95 0.75 -22.2 0.95 -17.6 0.45 -14.9 -0.2 Q-13.95 -0.35 -12.65 -0.95 L-10.65 -1.5 M-5.95 11.35 Q-5.95 10.85 -4.95 9.85 -4.5 9.4 -3.65 9.2 -2.85 9.0 -2.85 9.35 L-3.65 9.8 Q-4.75 10.35 -5.8 11.65 L-5.95 11.35 M-2.2 6.8 L-2.25 6.8 -2.2 6.75 -2.2 6.8" fill="#ffffff" fill-opacity="0.8" fill-rule="evenodd" stroke="none"/>
  </g>
</svg>