<?xml version="1.0" encoding="UTF-8" standalone="no"?>
<svg xmlns:xlink="http://www.w3.org/1999/xlink" height="40.75px" width="42.8px" xmlns="http://www.w3.org/2000/svg">
  <g transform="matrix(1.0, 0.0, 0.0, 1.0, 17.3, 22.3)">
    <path d="M0.4 -13.75 L0.5 -13.8 Q2.85 -14.25 2.85 -16.75 2.7 -18.95 0.5 -18.95 -0.35 -18.95 -1.7 -17.5 -2.9 -16.15 -2.9 -15.65 -2.85 -14.05 -1.2 -13.8 L-1.05 -13.7 Q-3.65 -13.95 -3.65 -16.85 -3.65 -17.75 -2.5 -19.35 -1.05 -21.3 0.7 -21.3 2.6 -21.3 3.35 -17.95 3.35 -14.3 0.4 -13.75 M2.45 -8.9 Q2.45 -12.1 4.6 -14.9 7.9 -19.3 15.0 -19.1 21.05 -16.3 23.15 -12.65 24.5 -10.3 24.5 -6.2 24.5 -3.65 21.5 -1.8 18.65 0.0 15.2 0.0 8.3 0.0 4.8 -3.85 2.45 -6.4 2.45 -8.9 M2.25 -5.9 L2.05 -4.1 Q2.05 -2.1 -2.35 0.8 -6.95 3.8 -10.95 3.8 -15.4 3.8 -16.3 -2.15 -15.4 -13.2 -7.35 -13.2 0.2 -13.2 1.85 -9.0 2.4 -7.65 2.25 -5.9 M7.45 -11.65 Q5.45 -9.5 5.45 -8.05 5.45 -6.5 7.35 -4.95 9.6 -3.05 13.05 -3.05 15.75 -3.05 17.1 -5.0 18.0 -6.25 18.0 -7.55 18.0 -9.6 17.05 -11.35 15.55 -14.1 12.3 -14.1 9.75 -14.1 7.45 -11.65 M20.5 8.2 Q16.15 8.2 16.15 4.6 16.15 3.65 16.95 2.65 18.15 1.15 20.5 1.15 22.95 1.15 23.15 4.55 23.1 8.2 20.5 8.2 M19.55 2.55 Q18.85 2.55 17.85 3.75 16.95 4.85 16.95 5.35 16.95 7.3 19.05 7.3 21.65 7.3 21.65 5.2 21.15 2.55 19.55 2.55 M3.4 14.4 Q5.65 14.4 8.5 12.65 11.4 10.9 11.4 9.4 10.85 3.4 7.45 3.4 -1.45 3.4 -1.45 9.1 -0.5 14.4 3.4 14.4 M16.4 11.6 Q16.4 14.15 13.35 15.9 10.65 17.45 7.75 17.45 -2.25 17.45 -2.25 8.5 -2.25 6.95 -0.45 4.9 1.95 2.15 5.6 2.15 16.4 2.15 16.4 11.6 M-12.0 -9.0 Q-13.55 -7.35 -13.55 -5.3 -13.55 -0.15 -6.0 -0.15 -3.7 -0.15 -2.15 -2.35 -1.0 -4.0 -1.0 -5.0 -1.9 -11.5 -4.35 -11.5 -9.6 -11.5 -12.0 -9.0 M-5.4 8.5 Q-5.75 7.6 -6.4 7.6 -8.75 7.6 -8.75 9.45 -8.7 11.3 -6.95 11.3 -5.2 11.3 -5.2 9.45 L-5.4 8.5 M-4.7 11.4 Q-5.75 12.8 -7.1 12.8 -9.8 12.8 -9.8 9.3 -9.8 5.75 -7.45 5.75 -3.85 5.75 -3.85 9.25 -3.85 10.25 -4.7 11.4" fill="#ba2501" fill-rule="evenodd" stroke="none"/>
    <path d="M-1.2 -13.8 Q-2.85 -14.05 -2.9 -15.65 -2.9 -16.15 -1.7 -17.5 -0.35 -18.95 0.5 -18.95 2.7 -18.95 2.85 -16.75 2.85 -14.25 0.5 -13.8 L0.5 -13.85 Q1.75 -14.1 1.75 -15.65 1.75 -17.35 0.0 -17.35 -1.85 -17.35 -1.85 -15.65 L-1.7 -14.8 Q-1.65 -14.1 -1.2 -13.8 M7.45 -11.65 Q9.75 -14.1 12.3 -14.1 15.55 -14.1 17.05 -11.35 18.0 -9.6 18.0 -7.55 18.0 -6.25 17.1 -5.0 15.75 -3.05 13.05 -3.05 9.6 -3.05 7.35 -4.95 5.45 -6.5 5.45 -8.05 5.45 -9.5 7.45 -11.65 M16.2 -8.0 Q16.2 -9.1 15.45 -10.3 14.25 -12.25 11.75 -12.25 7.75 -12.25 7.75 -7.55 7.7 -3.3 11.6 -3.3 13.6 -3.3 15.0 -5.15 16.2 -6.7 16.2 -8.0 M18.6 5.0 L18.35 5.8 Q18.35 7.0 19.55 7.0 21.0 7.0 21.0 5.4 20.95 4.3 19.9 4.3 19.0 4.3 18.6 5.0 M19.55 2.55 Q21.15 2.55 21.65 5.2 21.65 7.3 19.05 7.3 16.95 7.3 16.95 5.35 16.95 4.85 17.85 3.75 18.85 2.55 19.55 2.55 M1.35 8.35 Q1.2 11.45 4.5 11.45 7.25 11.45 8.85 9.4 10.0 7.9 10.0 6.5 10.1 3.8 6.85 3.8 4.45 3.8 2.75 5.55 1.35 7.0 1.35 8.35 M3.4 14.4 Q-0.5 14.4 -1.45 9.1 -1.45 3.4 7.45 3.4 10.85 3.4 11.4 9.4 11.4 10.9 8.5 12.65 5.65 14.4 3.4 14.4 M-12.0 -9.0 Q-9.6 -11.5 -4.35 -11.5 -1.9 -11.5 -1.0 -5.0 -1.0 -4.0 -2.15 -2.35 -3.7 -0.15 -6.0 -0.15 -13.55 -0.15 -13.55 -5.3 -13.55 -7.35 -12.0 -9.0 M-5.5 -9.2 Q-8.75 -9.2 -9.6 -8.25 -10.05 -7.7 -10.05 -5.85 -10.45 -1.6 -6.0 -1.6 -3.3 -1.6 -2.9 -5.45 -3.1 -9.2 -5.5 -9.2 M-5.55 8.75 Q-5.85 8.15 -6.6 8.15 -7.65 8.15 -7.65 9.2 -7.55 10.35 -6.4 10.35 -5.4 10.35 -5.4 9.4 -5.4 9.05 -5.55 8.75 M-5.4 8.5 L-5.2 9.45 Q-5.2 11.3 -6.95 11.3 -8.7 11.3 -8.75 9.45 -8.75 7.6 -6.4 7.6 -5.75 7.6 -5.4 8.5" fill="#ff6600" fill-rule="evenodd" stroke="none"/>
    <path d="M0.5 -13.85 Q0.9 -14.15 0.9 -14.85 0.8 -16.2 -0.4 -16.2 -1.7 -16.2 -1.7 -14.9 L-1.7 -14.8 -1.85 -15.65 Q-1.85 -17.35 0.0 -17.35 1.75 -17.35 1.75 -15.65 1.75 -14.1 0.5 -13.85 M16.2 -8.0 Q16.2 -6.7 15.0 -5.15 13.6 -3.3 11.6 -3.3 7.7 -3.3 7.75 -7.55 7.75 -12.25 11.75 -12.25 14.25 -12.25 15.45 -10.3 16.2 -9.1 16.2 -8.0 M14.6 -8.1 Q14.6 -9.85 12.65 -9.85 11.5 -9.85 10.7 -8.8 10.05 -8.0 10.05 -7.45 L10.25 -6.55 Q10.65 -5.65 11.8 -5.65 13.15 -5.65 14.0 -6.7 14.6 -7.5 14.6 -8.1 M18.6 5.0 Q19.0 4.3 19.9 4.3 20.95 4.3 21.0 5.4 21.0 7.0 19.55 7.0 18.35 7.0 18.35 5.8 L18.6 5.0 M1.35 8.35 Q1.35 7.0 2.75 5.55 4.45 3.8 6.85 3.8 10.1 3.8 10.0 6.5 10.0 7.9 8.85 9.4 7.25 11.45 4.5 11.45 1.2 11.45 1.35 8.35 M4.5 6.75 Q3.8 7.55 3.8 8.05 3.8 9.7 5.4 9.7 6.4 9.7 7.3 8.9 8.15 8.15 8.15 7.5 8.05 5.8 6.5 5.8 5.35 5.8 4.5 6.75 M-5.5 -9.2 Q-3.1 -9.2 -2.9 -5.45 -3.3 -1.6 -6.0 -1.6 -10.45 -1.6 -10.05 -5.85 -10.05 -7.7 -9.6 -8.25 -8.75 -9.2 -5.5 -9.2 M-8.85 -5.55 Q-8.85 -3.65 -6.75 -3.65 -5.0 -3.65 -5.0 -6.05 -5.05 -7.9 -6.75 -7.9 -8.45 -7.9 -8.85 -5.55 M-5.55 8.75 Q-5.4 9.05 -5.4 9.4 -5.4 10.35 -6.4 10.35 -7.55 10.35 -7.65 9.2 -7.65 8.15 -6.6 8.15 -5.85 8.15 -5.55 8.75" fill="#fedf67" fill-rule="evenodd" stroke="none"/>
    <path d="M0.5 -13.8 L0.4 -13.75 -0.4 -13.6 -1.05 -13.7 -1.2 -13.8 Q-1.65 -14.1 -1.7 -14.8 L-1.7 -14.9 Q-1.7 -16.2 -0.4 -16.2 0.8 -16.2 0.9 -14.85 0.9 -14.15 0.5 -13.85 L0.5 -13.8 M14.6 -8.1 Q14.6 -7.5 14.0 -6.7 13.15 -5.65 11.8 -5.65 10.65 -5.65 10.25 -6.55 L10.05 -7.45 Q10.05 -8.0 10.7 -8.8 11.5 -9.85 12.65 -9.85 14.6 -9.85 14.6 -8.1 M4.5 6.75 Q5.35 5.8 6.5 5.8 8.05 5.8 8.15 7.5 8.15 8.15 7.3 8.9 6.4 9.7 5.4 9.7 3.8 9.7 3.8 8.05 3.8 7.55 4.5 6.75 M-8.85 -5.55 Q-8.45 -7.9 -6.75 -7.9 -5.05 -7.9 -5.0 -6.05 -5.0 -3.65 -6.75 -3.65 -8.85 -3.65 -8.85 -5.55" fill="#fefd89" fill-rule="evenodd" stroke="none"/>
  </g>
</svg>