<?xml version="1.0" encoding="UTF-8" standalone="no"?>
<svg xmlns:xlink="http://www.w3.org/1999/xlink" height="44.9px" width="48.9px" xmlns="http://www.w3.org/2000/svg">
  <g transform="matrix(1.0, 0.0, 0.0, 1.0, 19.05, 27.5)">
    <path d="M6.65 -25.2 Q6.65 -24.0 5.4 -24.0 4.0 -24.0 4.15 -25.25 4.15 -26.5 5.4 -26.5 6.65 -26.5 6.65 -25.2 M15.9 -14.15 Q16.3 -13.25 17.4 -13.25 19.05 -13.25 19.05 -14.95 19.05 -16.75 17.4 -16.75 15.7 -16.75 15.7 -15.1 L15.9 -14.15 M19.75 -21.45 Q22.35 -21.45 22.4 -16.6 22.4 -14.3 21.6 -12.25 20.2 -8.7 17.0 -8.7 13.15 -8.7 12.3 -14.2 12.3 -16.2 13.65 -18.3 15.7 -21.45 19.75 -21.45 M28.85 -6.35 Q28.85 -5.05 27.2 -5.05 26.5 -5.05 26.2 -5.6 L26.05 -6.15 Q26.05 -7.55 27.35 -7.55 28.95 -7.55 28.85 -6.35 M24.25 7.1 Q25.65 7.1 25.7 8.65 25.7 10.15 24.25 10.15 23.3 10.15 22.95 9.4 L22.8 8.65 Q22.8 7.1 24.25 7.1 M13.8 11.8 Q13.8 13.85 12.3 13.85 11.5 13.85 11.15 13.2 L10.95 12.5 Q10.95 10.9 12.85 10.9 13.85 10.9 13.8 11.8 M7.6 6.6 Q7.6 7.3 6.9 8.4 6.05 9.7 4.95 9.7 3.2 9.7 2.75 7.05 2.75 6.55 3.7 5.5 4.75 4.35 5.6 4.35 7.5 4.35 7.6 6.6 M-11.6 -14.25 Q-9.2 -14.25 -9.4 -11.15 -9.4 -10.35 -10.5 -8.85 -11.85 -6.95 -13.55 -6.95 -15.8 -6.95 -18.05 -10.1 -18.05 -11.8 -15.8 -13.1 -13.75 -14.25 -11.6 -14.25 M-4.0 -2.25 Q-4.0 -0.25 -6.3 -0.25 -8.0 -0.25 -8.0 -1.95 -8.0 -4.0 -6.0 -4.0 -4.0 -4.0 -4.0 -2.25 M-12.45 4.9 L-12.35 6.3 Q-12.35 6.8 -13.2 7.85 -14.2 9.05 -15.1 9.05 -16.7 9.05 -17.4 6.0 -17.4 3.55 -13.85 3.55 -12.75 3.55 -12.45 4.9 M-5.2 14.3 Q-5.2 14.85 -5.9 15.55 -6.75 16.4 -7.85 16.4 -9.5 16.4 -9.5 14.75 -9.5 12.75 -6.75 12.75 -5.2 12.75 -5.2 14.3" fill="#ba2501" fill-rule="evenodd" stroke="none"/>
    <path d="M15.9 -14.15 L15.7 -15.1 Q15.7 -16.75 17.4 -16.75 19.05 -16.75 19.05 -14.95 19.05 -13.25 17.4 -13.25 16.3 -13.25 15.9 -14.15" fill="#ff6600" fill-rule="evenodd" stroke="none"/>
  </g>
</svg>