<?xml version="1.0" encoding="UTF-8" standalone="no"?>
<svg xmlns:xlink="http://www.w3.org/1999/xlink" height="39.2px" width="66.1px" xmlns="http://www.w3.org/2000/svg">
  <g transform="matrix(1.0, 0.0, 0.0, 1.0, 46.55, 18.9)">
    <path d="M-42.2 -0.7 Q-43.25 0.05 -43.25 0.65 L-43.9 0.15 -43.95 -0.3 Q-43.3 -1.3 -42.2 -0.7 M-43.95 -3.15 L-35.85 -3.65 -32.2 -2.3 -33.15 -1.6 -33.65 -1.3 Q-36.15 -0.4 -38.45 -1.25 L-43.6 -2.95 -43.95 -3.15 M-11.5 17.05 L-11.5 17.1 -11.65 17.05 -11.5 17.05 M-37.45 7.25 L-45.55 5.0 -37.8 5.7 Q-36.4 6.45 -37.45 7.25" fill="url(#gradient0)" fill-rule="evenodd" stroke="none"/>
    <path d="M-11.5 17.05 L-10.5 16.8 -12.1 13.9 -25.9 11.45 -17.75 10.75 -34.5 5.4 Q-33.35 3.85 -30.5 4.5 L-24.55 5.75 -20.35 6.7 -19.1 7.1 -18.15 7.35 -30.3 2.9 -21.05 2.3 -29.0 -2.25 -21.4 -3.95 -35.4 -8.55 -32.75 -8.45 -13.1 -11.4 -16.35 -12.65 -13.0 -13.3 -5.1 -15.8 -6.0 -15.8 -6.85 -15.65 Q-8.3 -15.05 -8.95 -16.3 L-9.05 -16.65 Q-1.6 -19.5 6.2 -15.8 L4.55 -17.6 Q13.4 -15.2 16.4 -6.55 L16.9 -9.65 Q19.3 -6.9 18.2 -3.35 17.65 -1.5 17.7 0.4 17.95 6.5 13.9 10.6 L13.55 10.3 14.1 7.65 Q10.2 15.6 2.1 19.3 L0.9 19.15 1.1 18.65 1.9 18.2 Q-5.05 19.05 -11.5 17.1 L-11.5 17.05" fill="url(#gradient1)" fill-rule="evenodd" stroke="none"/>
    <path d="M13.5 -3.0 L0.5 -5.3 Q6.8 -7.65 12.3 -3.95 L13.5 -3.0 M-12.3 -9.9 L-14.15 -10.5 1.3 -12.4 -0.15 -11.6 Q-5.75 -7.75 -12.3 -9.9 M-4.55 8.1 L-20.1 4.4 Q-12.6 3.6 -6.05 7.2 L-4.55 8.1" fill="#ff8d19" fill-rule="evenodd" stroke="none"/>
  </g>
  <defs>
    <radialGradient cx="0" cy="0" gradientTransform="matrix(-0.0123, 0.0261, 0.0261, 0.0123, 1.45, -0.95)" gradientUnits="userSpaceOnUse" id="gradient0" r="819.2" spreadMethod="pad">
      <stop offset="0.0" stop-color="#ffffff"></stop>
      <stop offset="0.4980392156862745" stop-color="#ffce0b"></stop>
      <stop offset="1.0" stop-color="#ff2f2f"></stop>
    </radialGradient>
    <radialGradient cx="0" cy="0" gradientTransform="matrix(-0.0123, 0.0261, 0.0261, 0.0123, 1.45, -0.95)" gradientUnits="userSpaceOnUse" id="gradient1" r="819.2" spreadMethod="pad">
      <stop offset="0.34901960784313724" stop-color="#ffffff"></stop>
      <stop offset="0.5176470588235295" stop-color="#ffce0b"></stop>
      <stop offset="0.7568627450980392" stop-color="#ff2f2f"></stop>
    </radialGradient>
  </defs>
</svg>