<?xml version="1.0" encoding="UTF-8" standalone="no"?>
<svg xmlns:xlink="http://www.w3.org/1999/xlink" height="11.65px" width="11.65px" xmlns="http://www.w3.org/2000/svg">
  <g transform="matrix(1.0, 0.0, 0.0, 1.0, 8.35, 5.6)">
    <path d="M-2.55 -4.6 Q-0.55 -4.6 0.9 -3.15 2.3 -1.75 2.3 0.25 2.3 2.25 0.9 3.65 -0.55 5.05 -2.55 5.05 -4.55 5.05 -5.95 3.65 -7.35 2.25 -7.35 0.25 -7.35 -1.75 -5.95 -3.15 -4.55 -4.6 -2.55 -4.6" fill="url(#gradient0)" fill-rule="evenodd" stroke="none"/>
    <path d="M-1.6 -0.65 L-1.05 -0.45 -0.8 0.15 -1.05 0.65 Q-1.3 0.85 -1.6 0.85 L-2.15 0.65 -2.35 0.1 -2.15 -0.45 -1.6 -0.65" fill="#ffffff" fill-rule="evenodd" stroke="none"/>
    <path d="M-4.4 -3.0 L-4.3 -3.25 -4.0 -3.4 -3.75 -3.25 -3.65 -3.0 -3.75 -2.75 Q-3.85 -2.6 -4.0 -2.6 -4.2 -2.6 -4.3 -2.75 L-4.4 -3.0" fill="#ffffff" fill-rule="evenodd" stroke="none"/>
    <path d="M-6.6 -0.4 L-6.5 -0.15 -6.6 0.1 -6.85 0.25 -7.15 0.1 -7.25 -0.15 -7.15 -0.4 -6.85 -0.55 -6.6 -0.4" fill="#ffffff" fill-rule="evenodd" stroke="none"/>
    <path d="M0.95 -2.6 L1.05 -2.85 1.35 -3.0 1.6 -2.85 1.7 -2.6 1.6 -2.35 1.35 -2.2 Q1.15 -2.2 1.05 -2.35 L0.95 -2.6" fill="#ffffff" fill-rule="evenodd" stroke="none"/>
    <path d="M0.95 3.75 L1.05 3.5 Q1.15 3.35 1.35 3.35 L1.6 3.5 1.7 3.75 1.6 4.0 1.35 4.15 Q1.15 4.15 1.05 4.0 L0.95 3.75" fill="#ffffff" fill-rule="evenodd" stroke="none"/>
  </g>
  <defs>
    <radialGradient cx="0" cy="0" gradientTransform="matrix(0.0067, 0.0, 0.0, 0.0067, -2.55, 0.25)" gradientUnits="userSpaceOnUse" id="gradient0" r="819.2" spreadMethod="pad">
      <stop offset="0.0" stop-color="#ffffff"></stop>
      <stop offset="1.0" stop-color="#ffffff" stop-opacity="0.0"></stop>
    </radialGradient>
  </defs>
</svg>