<?xml version="1.0" encoding="UTF-8" standalone="no"?>
<svg xmlns:xlink="http://www.w3.org/1999/xlink" height="8.55px" width="8.05px" xmlns="http://www.w3.org/2000/svg">
  <g transform="matrix(1.0, 0.0, 0.0, 1.0, 3.85, 6.8)">
    <path d="M2.7 -4.85 L2.4 -3.4 2.8 -2.5 Q3.2 -1.6 3.2 -0.75 L2.05 0.75 1.9 0.7 1.85 0.55 2.1 -0.95 2.15 -2.35 2.05 -2.8 2.2 -3.15 2.1 -3.35 2.3 -4.55 2.45 -5.8 2.6 -5.8 2.7 -4.85 M-1.55 -4.75 L-1.7 -3.75 -1.85 -3.2 -1.7 -2.5 -1.65 -1.55 -1.0 -0.05 -1.1 0.1 -1.4 0.15 -1.35 0.5 -1.55 0.75 Q-2.05 0.75 -2.85 -2.15 L-2.6 -2.8 -2.1 -3.6 Q-2.0 -4.85 -1.55 -5.05 L-1.55 -4.75" fill="#ffe300" fill-rule="evenodd" stroke="none"/>
  </g>
</svg>