<?xml version="1.0" encoding="UTF-8" standalone="no"?>
<svg xmlns:xlink="http://www.w3.org/1999/xlink" height="6.4px" width="7.15px" xmlns="http://www.w3.org/2000/svg">
  <g transform="matrix(1.0, 0.0, 0.0, 1.0, 3.45, 12.5)">
    <path d="M1.4 -10.35 L1.75 -10.75 1.85 -8.85 1.7 -8.25 1.55 -8.2 Q1.5 -8.2 1.3 -8.35 L1.05 -8.75 0.75 -8.75 0.7 -8.9 1.2 -9.85 1.4 -10.35 M2.25 -7.85 Q2.25 -8.3 2.55 -8.45 L2.7 -7.5 2.65 -7.15 2.5 -7.1 Q2.25 -7.1 2.25 -7.85 M-1.55 -9.35 Q-1.55 -9.1 -1.9 -9.1 -2.45 -9.1 -2.45 -10.15 -2.45 -11.3 -2.15 -11.5 -1.85 -11.7 -1.9 -9.65 -1.55 -9.55 -1.55 -9.35" fill="#ff9900" fill-rule="evenodd" stroke="none"/>
  </g>
</svg>