<?xml version="1.0" encoding="UTF-8" standalone="no"?>
<svg xmlns:xlink="http://www.w3.org/1999/xlink" height="21.65px" width="53.7px" xmlns="http://www.w3.org/2000/svg">
  <g transform="matrix(1.0, 0.0, 0.0, 1.0, 26.85, 10.8)">
    <path d="M13.9 -0.3 Q16.2 -1.3 16.2 -3.2 16.2 -5.15 13.05 -6.0 L2.8 -6.55 -5.9 -5.8 Q-8.55 -4.95 -8.55 -2.9 -8.55 -1.3 -5.25 -0.3 -1.55 0.75 5.55 0.75 11.35 0.75 13.9 -0.3 M0.0 9.85 Q-10.7 9.9 -18.3 7.0 -25.85 4.15 -25.85 0.05 -25.85 -4.05 -18.3 -6.9 -10.75 -9.75 -0.05 -9.8 10.65 -9.8 18.25 -6.95 25.85 -4.05 25.85 0.05 25.85 4.1 18.25 6.95 10.7 9.85 0.0 9.85 M-16.65 -2.55 Q-18.05 -3.7 -19.05 -2.7 -19.8 -1.95 -19.8 -0.75 -19.8 -0.1 -19.25 0.55 -18.2 1.65 -15.85 1.65 -13.55 1.65 -12.7 1.1 -12.15 0.75 -12.15 -0.05 -12.15 -1.4 -13.8 -1.75 L-16.65 -2.55 M0.4 5.75 L6.9 5.3 Q8.15 4.95 8.15 3.9 8.15 2.75 6.35 2.6 L-8.55 1.95 -7.65 1.95 Q-10.65 1.55 -10.65 3.3 -10.65 5.75 0.4 5.75" fill="#ffdec4" fill-rule="evenodd" stroke="none"/>
    <path d="M13.9 -0.3 Q11.35 0.75 5.55 0.75 -1.55 0.75 -5.25 -0.3 -8.55 -1.3 -8.55 -2.9 -8.55 -4.95 -5.9 -5.8 L2.8 -6.55 13.05 -6.0 Q16.2 -5.15 16.2 -3.2 16.2 -1.3 13.9 -0.3 M0.4 5.75 Q-10.65 5.75 -10.65 3.3 -10.65 1.55 -7.65 1.95 L-8.55 1.95 6.35 2.6 Q8.15 2.75 8.15 3.9 8.15 4.95 6.9 5.3 L0.4 5.75 M-16.65 -2.55 L-13.8 -1.75 Q-12.15 -1.4 -12.15 -0.05 -12.15 0.75 -12.7 1.1 -13.55 1.65 -15.85 1.65 -18.2 1.65 -19.25 0.55 -19.8 -0.1 -19.8 -0.75 -19.8 -1.95 -19.05 -2.7 -18.05 -3.7 -16.65 -2.55" fill="#ffdec4" fill-opacity="0.49803922" fill-rule="evenodd" stroke="none"/>
  </g>
</svg>