<?xml version="1.0" encoding="UTF-8" standalone="no"?>
<svg xmlns:xlink="http://www.w3.org/1999/xlink" height="14.75px" width="50.65px" xmlns="http://www.w3.org/2000/svg">
  <g transform="matrix(1.0, 0.0, 0.0, 1.0, 25.35, 7.35)">
    <path d="M3.3 -0.7 L0.6 -0.6 -0.65 -0.8 Q-1.1 -0.8 -1.1 -0.5 -1.1 -0.15 -0.4 0.1 L2.95 0.5 5.05 0.35 5.35 -0.1 Q5.35 -0.7 3.3 -0.7 M-22.85 -2.5 L-22.7 -2.55 -22.75 -2.65 Q-22.75 -4.5 -18.85 -6.1 -14.95 -7.75 -14.95 -4.35 -14.95 -4.05 -15.3 -3.45 -14.2 -4.1 -12.55 -4.1 -11.65 -4.1 -11.15 -3.25 L-10.45 -2.45 Q-8.95 -2.45 -7.7 -3.6 -6.45 -4.8 -3.8 -4.8 L-0.7 -4.45 0.05 -4.6 Q1.15 -4.65 1.75 -4.15 2.75 -4.7 3.8 -4.7 L11.0 -3.95 13.75 -3.2 15.3 -4.4 16.95 -5.95 17.5 -6.45 18.2 -7.35 Q26.55 -4.0 25.1 0.55 L22.75 0.35 Q23.2 0.75 23.2 1.45 23.2 2.1 22.65 2.6 21.9 3.2 20.4 3.2 L19.15 3.05 Q19.0 4.1 17.85 5.25 16.15 6.95 13.55 6.95 L11.4 6.65 10.4 6.3 9.55 6.85 Q8.65 7.4 7.75 7.4 6.05 7.4 5.2 6.0 L5.0 5.4 4.15 5.4 Q2.85 5.4 1.75 4.5 L1.8 5.25 Q1.8 5.95 1.4 6.25 0.6 6.85 -2.05 6.85 -5.5 6.85 -6.7 6.05 -7.85 6.7 -10.6 6.7 -15.9 6.7 -18.4 4.85 -20.0 3.65 -20.0 2.35 L-19.95 1.95 -21.6 2.1 Q-24.15 2.1 -25.0 0.7 L-25.35 -0.7 Q-25.35 -1.65 -24.6 -2.05 L-23.35 -2.45 -23.55 -1.9 Q-23.55 0.3 -20.45 0.3 L-18.8 0.25 Q-18.95 0.9 -18.4 0.9 L-18.0 0.6 -17.85 0.1 Q-17.85 -0.55 -18.45 -0.65 L-21.65 -1.55 -21.5 -2.05 Q-21.45 -2.45 -21.95 -2.45 L-22.85 -2.5 M4.05 3.05 Q4.05 2.9 3.55 2.9 2.9 2.9 2.15 2.1 1.55 1.6 1.1 1.7 0.65 1.75 0.65 2.2 1.55 3.6 2.7 3.6 4.05 3.6 4.05 3.05 M8.8 5.75 Q9.3 5.75 9.3 5.25 9.3 4.65 8.1 4.3 6.9 3.9 6.9 4.65 L7.7 5.15 Q8.6 5.75 8.8 5.75 M-12.7 4.8 Q-12.0 4.8 -11.1 4.2 L-10.3 3.5 Q-10.3 3.1 -13.15 2.95 -16.4 2.8 -17.25 1.95 L-16.85 1.25 -17.15 0.85 -17.8 1.45 -18.4 1.2 -18.8 1.45 -18.95 1.8 Q-18.95 2.45 -17.0 3.55 -14.8 4.8 -12.7 4.8 M-3.75 4.4 L-2.25 3.3 Q-2.3 2.75 -2.85 2.75 L-4.8 2.95 Q-6.3 2.95 -7.5 2.05 L-8.1 2.5 -8.4 3.2 Q-8.4 3.7 -7.6 3.7 -6.95 3.7 -6.15 4.05 L-3.75 4.4 M-10.75 -0.65 Q-10.75 -0.4 -10.15 -0.15 L-8.5 0.2 Q-7.0 0.2 -7.0 -0.3 -7.0 -0.5 -8.85 -0.75 L-10.75 -0.65 M23.0 -1.95 L23.1 -1.8 22.95 -1.75 22.75 -1.8 23.0 -1.95 M18.7 -0.95 Q18.3 -0.85 18.3 -0.3 L18.5 0.25 18.5 0.85 Q18.35 1.2 16.7 1.55 16.1 1.65 15.3 2.25 L14.15 3.2 11.85 4.05 Q10.75 4.25 10.75 4.75 L10.8 5.05 11.15 5.15 11.8 5.0 12.8 4.85 Q13.45 4.85 13.6 5.15 L14.2 5.4 15.95 4.2 Q17.65 2.95 18.1 2.85 18.9 2.55 19.6 1.4 20.35 1.9 21.15 1.9 22.25 1.9 22.5 -0.6 L22.85 -0.6 Q23.3 -0.6 23.8 -1.0 L24.25 -1.65 22.85 -3.9 22.9 -4.0 Q22.9 -4.85 21.25 -5.35 19.55 -5.8 19.55 -4.5 L20.25 -4.0 Q21.2 -3.2 21.6 -2.95 L21.0 -2.6 20.95 -2.25 21.05 -1.7 18.7 -0.95" fill="#ff0000" fill-rule="evenodd" stroke="none"/>
    <path d="M3.3 -0.7 Q5.35 -0.7 5.35 -0.1 L5.05 0.35 2.95 0.5 -0.4 0.1 Q-1.1 -0.15 -1.1 -0.5 -1.1 -0.8 -0.65 -0.8 L0.6 -0.6 3.3 -0.7 M-23.35 -2.45 L-23.0 -2.55 -22.85 -2.5 -21.95 -2.45 Q-21.45 -2.45 -21.5 -2.05 L-21.65 -1.55 -18.45 -0.65 Q-17.85 -0.55 -17.85 0.1 L-18.0 0.6 -18.4 0.9 Q-18.95 0.9 -18.8 0.25 L-20.45 0.3 Q-23.55 0.3 -23.55 -1.9 L-23.35 -2.45 M18.7 -0.95 L21.05 -1.7 20.95 -2.25 21.0 -2.6 21.6 -2.95 Q21.2 -3.2 20.25 -4.0 L19.55 -4.5 Q19.55 -5.8 21.25 -5.35 22.9 -4.85 22.9 -4.0 L22.85 -3.9 24.25 -1.65 23.8 -1.0 Q23.3 -0.6 22.85 -0.6 L22.5 -0.6 Q22.25 1.9 21.15 1.9 20.35 1.9 19.6 1.4 18.9 2.55 18.1 2.85 17.65 2.95 15.95 4.2 L14.2 5.4 13.6 5.15 Q13.45 4.85 12.8 4.85 L11.8 5.0 11.15 5.15 10.8 5.05 10.75 4.75 Q10.75 4.25 11.85 4.05 L14.15 3.2 15.3 2.25 Q16.1 1.65 16.7 1.55 18.35 1.2 18.5 0.85 L18.5 0.25 18.3 -0.3 Q18.3 -0.85 18.7 -0.95 M23.0 -1.95 L22.75 -1.8 22.95 -1.75 23.1 -1.8 23.0 -1.95 M-10.75 -0.65 L-8.85 -0.75 Q-7.0 -0.5 -7.0 -0.3 -7.0 0.2 -8.5 0.2 L-10.15 -0.15 Q-10.75 -0.4 -10.75 -0.65 M-3.75 4.4 L-6.15 4.05 Q-6.95 3.7 -7.6 3.7 -8.4 3.7 -8.4 3.2 L-8.1 2.5 -7.5 2.05 Q-6.3 2.95 -4.8 2.95 L-2.85 2.75 Q-2.3 2.75 -2.25 3.3 L-3.75 4.4 M-12.7 4.8 Q-14.8 4.8 -17.0 3.55 -18.95 2.45 -18.95 1.8 L-18.8 1.45 -18.4 1.2 -17.8 1.45 -17.15 0.85 -16.85 1.25 -17.25 1.95 Q-16.4 2.8 -13.15 2.95 -10.3 3.1 -10.3 3.5 L-11.1 4.2 Q-12.0 4.8 -12.7 4.8 M8.8 5.75 Q8.6 5.75 7.7 5.15 L6.9 4.65 Q6.9 3.9 8.1 4.3 9.3 4.65 9.3 5.25 9.3 5.75 8.8 5.75 M4.05 3.05 Q4.05 3.6 2.7 3.6 1.55 3.6 0.65 2.2 0.65 1.75 1.1 1.7 1.55 1.6 2.15 2.1 2.9 2.9 3.55 2.9 4.05 2.9 4.05 3.05" fill="#ff9900" fill-rule="evenodd" stroke="none"/>
  </g>
</svg>
