<?xml version="1.0" encoding="UTF-8" standalone="no"?>
<svg xmlns:xlink="http://www.w3.org/1999/xlink" height="23.35px" width="72.35px" xmlns="http://www.w3.org/2000/svg">
  <g transform="matrix(1.0, 0.0, 0.0, 1.0, 59.15, 15.7)">
    <path d="M9.2 -8.6 L10.65 -6.9 12.2 -5.4 12.0 -5.0 11.6 -4.8 10.9 -5.1 Q10.7 -5.1 10.6 -4.9 L9.85 -4.7 Q8.75 -4.7 6.4 -8.4 L5.0 -10.7 4.3 -12.1 Q4.3 -12.85 5.35 -12.45 L6.45 -11.85 9.2 -8.6" fill="#ffcc00" fill-rule="evenodd" stroke="none"/>
    <path d="M7.45 -1.65 L7.8 -2.0 8.5 -1.85 8.9 -2.15 Q9.4 -2.4 10.3 -1.85 L11.65 -0.75 11.5 -0.55 11.2 -0.45 9.4 -0.85 Q7.75 -1.3 7.45 -1.65 M5.75 -6.2 L-2.3 -6.45 -2.4 -6.8 -0.45 -7.4 1.65 -7.85 4.45 -7.4 Q6.65 -7.05 6.65 -6.7 6.65 -6.2 5.75 -6.2 M-54.95 -8.25 L-57.8 -7.7 -58.05 -7.7 -58.15 -8.0 Q-58.15 -9.3 -50.95 -10.05 L-35.25 -9.4 Q-49.9 -9.6 -53.15 -8.9 L-54.95 -8.25 M-57.0 -3.25 L-56.9 -3.25 Q-54.0 -2.0 -46.15 -2.0 L-35.95 -2.35 -35.0 -2.3 -39.3 -1.7 -46.25 -1.4 Q-50.35 -1.4 -53.9 -2.25 -56.4 -2.8 -57.0 -3.25 M-24.45 -0.1 L-26.8 0.55 -29.25 1.1 -29.6 0.95 -29.65 0.8 Q-29.65 0.3 -28.0 0.1 L-24.7 -0.25 -24.45 -0.1 M-16.1 -14.3 L-19.9 -13.6 Q-20.35 -13.6 -20.55 -13.9 -20.1 -14.3 -18.85 -14.55 L-16.1 -14.3 M-6.1 1.9 L-6.05 2.0 -7.0 2.45 -11.55 2.65 -12.05 2.55 -12.7 2.6 -13.15 2.6 -13.2 2.45 -9.95 1.5 -9.05 1.5 Q-8.6 1.6 -8.55 1.95 L-6.7 2.0 -6.1 1.9 M-8.45 5.85 Q-15.3 5.85 -16.7 6.65 L-17.25 6.65 -17.3 6.55 -13.6 5.65 -5.15 4.95 -7.25 5.45 -6.8 5.45 -6.75 5.6 Q-7.0 6.1 -7.65 6.05 L-8.45 5.85 M11.75 2.85 L11.45 4.0 Q11.35 4.25 10.85 4.25 L10.45 4.2 10.25 4.0 10.15 3.0 Q10.15 1.85 10.9 0.85 12.05 0.9 12.05 1.9 L11.75 2.85" fill="#ffcc00" fill-rule="evenodd" stroke="none"/>
  </g>
</svg>