<?xml version="1.0" encoding="UTF-8" standalone="no"?>
<svg xmlns:xlink="http://www.w3.org/1999/xlink" height="27.25px" width="46.75px" xmlns="http://www.w3.org/2000/svg">
  <g transform="matrix(1.0, 0.0, 0.0, 1.0, 33.5, 12.15)">
    <path d="M8.35 -4.15 L7.85 -4.1 5.9 -4.35 1.0 -4.65 -2.75 -4.25 -4.2 -3.9 Q-4.6 -3.9 -4.6 -4.25 -4.6 -4.7 -3.7 -5.15 L-2.3 -5.6 -1.0 -5.85 -0.75 -6.3 0.6 -6.4 2.05 -6.1 Q8.4 -5.15 8.4 -4.4 L8.35 -4.15 M11.95 2.8 L11.65 2.4 11.6 2.4 Q11.45 3.4 10.85 3.6 10.5 3.25 10.5 2.95 L10.75 1.5 10.75 0.15 Q11.4 -0.85 11.9 0.45 L12.25 2.0 Q12.25 2.7 11.95 2.8 M8.9 3.1 L8.55 4.0 7.7 4.65 7.45 4.6 7.35 4.4 7.85 3.65 Q8.3 3.1 8.8 2.9 L8.9 3.1 M0.85 1.15 L-4.5 1.25 Q-5.25 1.25 -4.95 0.35 L-11.6 0.9 -12.05 0.45 Q-12.05 -0.6 -4.3 -0.6 L-0.6 -0.25 2.3 0.55 Q1.95 1.05 0.85 1.15 M-27.4 -8.4 L-27.25 -8.75 Q-24.2 -9.65 -18.9 -10.2 L-13.4 -10.95 Q-10.65 -11.3 -6.7 -11.1 -9.75 -11.15 -14.95 -9.85 -20.9 -8.35 -25.6 -8.35 L-27.4 -8.4 M-17.8 -9.9 L-18.45 -9.9 -18.75 -9.85 -17.8 -9.9" fill="#ffcc00" fill-rule="evenodd" stroke="none"/>
    <path d="M-11.7 -7.1 Q-10.9 -7.35 -10.9 -6.15 -10.9 -5.7 -11.15 -5.5 L-10.65 -5.5 -11.35 -5.05 -12.95 -5.2 -13.8 -5.2 -19.55 -5.85 Q-22.15 -6.5 -21.45 -6.95 L-18.25 -6.75 -17.85 -6.65 -17.85 -6.75 -17.2 -6.75 -16.3 -6.8 -15.35 -6.65 -15.45 -6.6 -15.2 -6.6 -13.2 -6.55 -11.7 -7.1 M-4.65 -0.55 Q-7.4 0.45 -9.65 0.45 L-10.6 0.35 -11.1 0.35 -13.0 0.35 -13.1 0.1 Q-9.15 -1.1 -6.8 -1.45 L-4.1 -1.95 Q-2.55 -2.2 -0.55 -1.9 L-4.65 -0.55 M-17.0 3.7 L-18.0 4.5 Q-18.9 5.0 -19.05 5.25 L-19.65 6.1 -19.95 7.05 -20.1 7.15 Q-20.4 7.15 -20.55 6.6 -20.55 5.7 -19.55 4.9 -18.6 4.1 -17.0 3.7 M-29.5 13.4 L-31.95 14.1 -32.5 13.95 -29.6 13.1 -27.2 12.05 Q-27.6 12.6 -29.5 13.4 M3.4 10.85 Q2.45 10.85 2.05 9.7 2.2 9.35 3.0 8.95 L2.8 8.8 Q2.8 8.3 5.0 7.35 7.2 6.4 7.2 7.5 7.2 8.3 6.1 8.7 L5.55 8.85 5.65 9.3 Q5.65 9.8 4.8 10.35 4.0 10.85 3.4 10.85" fill="#ffcc00" fill-rule="evenodd" stroke="none"/>
  </g>
</svg>