<?xml version="1.0" encoding="UTF-8" standalone="no"?>
<svg xmlns:xlink="http://www.w3.org/1999/xlink" height="27.05px" width="42.25px" xmlns="http://www.w3.org/2000/svg">
  <g transform="matrix(1.0, 0.0, 0.0, 1.0, 29.2, 13.55)">
    <path d="M0.6 -10.9 L0.0 -11.05 -0.25 -11.0 -0.1 -10.9 -0.15 -10.85 -0.8 -11.05 -2.25 -11.15 -9.25 -10.6 -12.05 -10.0 -15.15 -9.35 -17.95 -8.8 -18.55 -8.85 -18.6 -9.15 Q-18.6 -9.9 -16.15 -10.75 -13.7 -11.6 -11.65 -11.6 L-11.5 -11.7 -11.75 -11.9 Q-11.4 -12.4 -9.4 -12.5 L-4.4 -12.5 -0.5 -11.85 2.0 -11.2 Q1.8 -10.75 1.4 -10.75 L0.6 -10.9 M5.5 -4.2 Q4.0 -4.4 4.0 -4.85 4.0 -5.7 5.4 -5.65 6.75 -5.55 8.65 -4.65 9.5 -4.35 10.8 -2.45 L10.75 -2.0 10.4 -1.95 Q10.05 -1.95 8.0 -3.6 L5.5 -4.2 M6.45 -0.6 L6.55 -0.35 3.75 0.45 3.3 0.35 3.05 0.25 2.15 0.25 1.4 0.45 0.8 0.6 0.2 0.6 0.15 0.3 0.25 0.05 -0.15 0.05 -0.6 0.05 Q-0.9 0.05 -0.9 -0.3 L2.75 -0.25 Q5.05 -0.05 6.2 -0.6 L6.45 -0.6 M11.25 -0.5 Q11.65 -0.5 12.05 0.5 L12.0 0.8 11.7 0.95 Q11.3 0.95 10.9 0.2 L10.9 -0.45 11.25 -0.5 M-15.05 -10.45 L-16.85 -9.8 -15.0 -10.3 -15.05 -10.45" fill="#ffcc00" fill-rule="evenodd" stroke="none"/>
    <path d="M5.4 -1.95 L5.55 -1.75 5.65 -1.7 5.5 -1.55 4.75 -1.85 -6.2 -0.4 Q-7.05 -0.4 -7.05 -0.95 -7.05 -1.5 -0.7 -2.4 L5.65 -2.25 5.55 -2.1 5.4 -1.95 M9.7 5.9 Q9.7 6.55 9.05 7.25 8.35 8.05 7.55 8.05 6.9 8.05 6.6 7.65 L6.4 7.2 Q6.4 6.9 7.7 6.2 9.05 5.5 9.6 5.6 L9.65 5.55 9.7 5.9 M-12.6 -4.65 L-14.1 -4.6 -14.4 -4.65 -14.5 -4.85 Q-14.5 -5.25 -4.9 -6.65 L-4.8 -6.3 Q-4.8 -5.8 -7.75 -5.0 -10.55 -4.2 -11.95 -4.2 -12.35 -4.2 -12.5 -4.5 L-12.6 -4.65 M-14.05 2.95 Q-14.35 3.35 -15.6 3.5 L-15.9 3.6 -16.6 3.75 -17.75 4.45 -19.3 5.05 -19.85 5.45 -20.45 5.7 Q-20.75 5.7 -20.75 5.25 -20.75 5.05 -19.65 4.6 L-18.35 4.15 -17.0 3.65 -16.75 3.55 -17.15 3.55 -17.65 3.75 -17.9 3.75 -17.95 3.6 -17.9 3.55 -19.25 3.35 -16.5 3.1 -16.45 3.05 Q-16.1 2.55 -15.8 2.7 L-15.5 3.05 -14.1 2.9 -14.05 2.95 M-28.2 12.35 Q-23.0 7.9 -20.8 7.4 L-28.05 12.5 -28.2 12.35" fill="#ffcc00" fill-rule="evenodd" stroke="none"/>
  </g>
</svg>