<?xml version="1.0" encoding="UTF-8" standalone="no"?>
<svg xmlns:xlink="http://www.w3.org/1999/xlink" height="28.3px" width="78.65px" xmlns="http://www.w3.org/2000/svg">
  <g transform="matrix(1.0, 0.0, 0.0, 1.0, 65.85, 14.5)">
    <path d="M11.7 -1.95 Q11.4 1.65 10.9 1.65 L10.6 1.55 10.55 1.25 Q10.55 0.7 10.9 -0.8 L11.4 -2.4 11.7 -1.95" fill="#ffcc00" fill-rule="evenodd" stroke="none"/>
    <path d="M2.75 -11.15 L-3.8 -10.45 -8.45 -9.65 -9.05 -10.2 Q-9.05 -10.95 -6.25 -11.7 -5.55 -11.85 -5.3 -12.45 -5.05 -13.0 -4.4 -13.2 -1.85 -13.8 0.75 -13.1 2.65 -12.6 5.4 -11.05 L4.2 -11.0 2.75 -11.15 M1.65 -2.5 Q0.1 -2.5 -3.35 -3.45 L-12.15 -4.15 -12.25 -4.45 -11.95 -4.75 -9.3 -4.8 Q-6.4 -4.8 -2.15 -3.8 L2.8 -2.6 1.65 -2.5 M11.8 -1.35 L11.5 -1.25 Q11.1 -1.25 10.5 -2.35 L9.95 -3.6 Q9.95 -4.25 10.6 -4.3 11.25 -4.35 11.35 -3.8 11.55 -2.6 11.8 -2.15 L11.8 -1.35 M-4.25 -0.05 L-3.5 0.0 -0.85 -0.2 -0.8 -0.1 -1.75 0.05 -13.85 0.65 -14.65 0.65 -14.7 0.35 Q-14.7 -0.55 -4.2 -0.65 -4.0 -0.4 -4.25 -0.05 M-2.1 2.45 Q-2.05 2.3 -1.85 2.3 L-1.1 2.35 -0.9 2.3 -0.25 2.3 0.2 2.35 4.35 2.05 7.0 1.7 7.25 1.95 7.15 2.2 7.35 2.55 Q7.35 3.25 5.55 3.7 L1.9 4.1 Q0.0 4.1 0.0 3.5 0.0 3.2 0.3 3.2 L0.25 3.05 -1.2 2.95 -1.5 3.0 -2.45 2.85 -2.1 2.45 M-9.05 4.7 L-14.55 5.2 -12.75 5.1 -12.7 5.25 Q-12.7 5.8 -17.1 6.45 L-21.5 7.0 -21.9 6.95 -21.95 6.9 Q-21.45 6.4 -19.9 6.0 L-19.9 5.95 Q-19.9 5.45 -17.55 5.0 L-14.65 4.5 Q-8.45 3.15 -6.7 5.05 L-9.05 4.7 M-9.15 7.9 Q-10.9 8.1 -11.9 7.4 L-11.95 7.25 -11.7 6.95 -11.3 6.95 -14.85 6.5 Q-13.45 5.9 -4.3 7.6 L-4.25 7.65 -4.75 7.9 -6.05 7.7 -9.15 7.9 M-23.05 6.75 L-23.45 6.55 -24.85 6.45 -30.9 6.5 -31.3 6.65 -32.0 6.55 -32.55 6.4 -23.0 6.65 -23.05 6.75 M-39.35 12.2 L-43.15 12.8 -45.2 12.5 -47.15 12.45 -47.55 12.15 Q-47.55 11.7 -45.95 11.7 L-41.25 12.1 -39.0 11.55 -37.1 11.0 Q-37.5 11.6 -39.35 12.2 M-56.8 5.05 L-59.85 5.75 -64.2 6.35 -64.75 6.3 -64.85 6.15 Q-64.45 5.7 -61.05 5.3 L-57.65 4.95 -56.8 5.05 M6.5 2.7 L6.15 2.75 5.6 3.05 6.5 2.7" fill="#ffcc00" fill-rule="evenodd" stroke="none"/>
  </g>
</svg>