<?xml version="1.0" encoding="UTF-8" standalone="no"?>
<svg xmlns:xlink="http://www.w3.org/1999/xlink" height="32.35px" width="58.35px" xmlns="http://www.w3.org/2000/svg">
  <g transform="matrix(1.0, 0.0, 0.0, 1.0, 45.75, 10.3)">
    <path d="M4.1 -3.75 Q4.6 -3.5 5.55 -3.35 L5.65 -3.0 Q5.65 -2.65 4.85 -2.55 L4.65 -2.5 5.35 -2.3 5.4 -2.15 5.2 -1.85 4.6 -1.85 1.5 -2.2 -2.3 -2.6 -6.35 -2.0 Q-6.9 -2.0 -6.9 -2.35 L-6.5 -2.75 -4.9 -3.1 -2.65 -3.4 Q-2.6 -4.0 -2.15 -4.0 L-1.25 -3.8 Q-1.25 -3.7 -1.0 -3.7 L1.25 -3.85 3.35 -4.0 4.1 -3.75 M11.6 -0.6 L11.55 -0.4 11.25 -0.3 Q11.1 -0.3 10.95 -0.45 L10.9 -0.6 10.95 -0.8 11.5 -0.8 11.6 -0.6 M11.25 1.05 Q11.25 1.35 10.05 2.3 L8.45 3.45 Q8.0 3.4 8.0 3.1 L9.15 1.9 Q10.45 0.8 11.2 0.8 L11.25 1.05 M4.95 8.05 L5.4 7.95 5.5 8.25 5.1 8.45 6.7 8.1 6.75 8.4 Q6.75 8.95 2.7 10.9 -1.7 13.0 -4.3 13.0 L-5.1 12.9 -5.3 12.65 -1.6 11.5 0.55 10.9 -1.05 10.95 -2.15 11.1 -2.65 11.05 -2.75 10.95 -7.7 10.35 -11.4 9.7 -11.45 9.4 Q-11.45 8.95 -10.35 8.95 L-7.1 9.15 -4.1 9.3 0.8 8.95 Q1.1 8.45 2.0 8.45 L2.5 8.6 4.9 7.95 4.95 8.05 M3.65 9.45 L3.55 9.8 5.35 8.9 Q4.25 8.9 3.6 9.25 L3.65 9.45 M-32.35 -8.9 L-34.7 -8.55 -36.1 -8.1 -36.25 -8.1 Q-33.65 -9.45 -30.1 -9.3 -26.75 -9.15 -25.55 -8.0 L-25.45 -7.85 -29.05 -8.25 -32.35 -8.5 -32.35 -8.9 M-8.25 6.4 L-9.0 6.6 -18.25 6.2 -16.9 6.35 -19.65 6.3 Q-20.25 6.3 -20.25 5.9 -20.25 5.8 -18.2 5.05 L-9.45 5.65 -7.6 6.45 -7.35 6.6 -8.25 6.4 M-1.25 10.05 L0.3 9.5 -2.4 9.95 -1.7 10.05 -1.25 10.05 M-37.05 1.55 Q-36.95 1.5 -36.95 1.6 L-40.15 2.25 -44.3 1.85 -44.1 1.6 -41.05 1.35 -38.25 1.1 -36.7 1.35 Q-37.15 1.25 -37.15 1.5 L-37.05 1.55 M-37.6 1.55 L-40.05 1.7 -39.35 1.75 -37.95 1.7 -37.6 1.55" fill="#ffcc00" fill-rule="evenodd" stroke="none"/>
    <path d="M-18.8 20.1 L-18.95 19.0 Q-18.95 17.4 -16.5 15.4 -14.15 13.55 -11.8 12.95 L-16.45 17.4 Q-17.85 18.6 -17.85 20.9 L-18.1 21.05 -18.8 20.1 M-23.95 6.65 L-34.25 7.95 -44.2 9.4 -44.65 9.35 -44.75 8.95 Q-44.75 7.9 -37.15 6.95 L-24.2 6.4 -23.95 6.65 M-29.4 0.45 L-32.35 1.35 -35.3 2.05 -35.35 1.9 Q-35.35 1.3 -32.8 0.8 L-29.4 0.45" fill="#ffcc00" fill-rule="evenodd" stroke="none"/>
  </g>
</svg>