<?xml version="1.0" encoding="UTF-8" standalone="no"?>
<svg xmlns:xlink="http://www.w3.org/1999/xlink" height="34.8px" width="36.75px" xmlns="http://www.w3.org/2000/svg">
  <g transform="matrix(1.0, 0.0, 0.0, 1.0, 1, 1)">
    <path d="M23.55 3.35 L25.2 5.75 25.2 5.8 25.3 6.8 25.25 6.85 25.6 7.05 26.95 8.45 27.0 8.55 27.1 8.75 27.2 9.3 27.0 9.85 Q25.5 11.65 25.2 13.9 L24.95 16.6 Q24.85 17.5 25.0 18.4 L25.0 18.45 25.5 21.1 25.5 21.15 Q26.05 23.6 28.4 24.1 L28.3 24.05 Q29.6 24.15 30.55 23.35 L31.75 22.1 31.8 22.1 32.4 21.0 32.45 20.9 32.65 20.55 33.05 20.05 33.75 19.95 Q34.05 19.95 34.3 20.25 L34.55 20.85 34.75 24.95 34.6 25.6 Q32.35 28.7 28.1 28.2 L27.65 28.05 Q25.05 26.35 22.7 24.1 L22.7 24.05 21.95 23.1 21.45 22.05 Q21.25 21.5 21.2 20.95 20.4 20.05 19.05 19.9 L19.0 19.9 16.95 19.55 16.85 21.75 17.1 21.55 17.65 21.45 18.15 21.65 Q19.85 22.85 20.9 25.05 L20.9 25.1 22.2 28.0 22.45 28.6 22.45 29.1 22.0 30.3 21.7 30.8 21.4 31.2 Q21.1 31.5 20.7 31.5 L20.35 31.5 20.0 31.45 19.2 30.85 Q17.9 29.1 17.3 27.1 L16.65 25.0 16.45 28.95 16.15 29.65 Q14.4 31.35 12.15 32.4 L10.7 32.8 10.1 32.7 9.7 32.25 7.4 27.25 6.9 27.15 6.95 27.25 6.9 27.8 6.55 28.3 Q3.8 30.2 0.9 29.8 L0.25 29.45 0.0 28.8 0.0 28.7 0.0 28.6 Q0.1 27.35 1.55 26.6 L1.55 26.65 3.35 25.1 3.85 24.2 4.2 23.75 7.85 20.8 7.95 20.7 8.1 20.55 Q8.35 20.3 8.65 20.3 L9.25 20.35 10.0 20.85 11.45 22.25 12.0 23.0 12.15 22.4 12.45 19.2 7.2 20.5 6.45 20.4 6.0 19.8 6.05 19.1 Q6.25 18.6 5.75 18.35 L5.35 17.9 5.2 17.3 5.5 16.75 Q5.7 16.5 6.05 16.5 L8.0 16.15 7.55 15.8 7.15 15.15 Q7.1 14.7 7.35 14.4 L8.05 13.5 8.05 13.45 6.35 13.5 5.9 13.4 5.5 13.1 4.65 12.0 4.45 11.4 Q4.45 11.0 4.7 10.75 4.95 10.5 5.3 10.45 L9.45 9.8 13.35 9.25 Q12.4 8.75 12.1 8.4 11.75 8.05 11.75 7.7 11.55 7.2 11.85 6.8 L10.45 7.55 10.4 7.55 7.0 7.7 6.4 7.3 Q6.15 6.95 6.2 6.6 L6.25 6.05 6.35 5.7 6.4 5.6 Q6.45 5.35 6.65 5.2 8.35 3.4 10.45 2.05 L10.5 2.05 Q11.45 1.45 12.5 1.05 L12.55 1.05 13.5 0.6 Q14.15 0.15 15.0 0.1 L16.3 0.2 16.8 0.6 16.95 1.2 16.9 2.25 19.05 2.15 Q19.35 1.65 19.9 1.6 L21.5 1.8 21.45 1.8 Q22.75 2.35 23.55 3.35 M21.05 2.7 L20.05 2.6 19.9 2.7 19.85 3.1 14.75 3.2 15.85 2.4 15.95 1.1 Q15.55 0.95 15.2 1.1 14.55 1.1 14.0 1.45 L12.85 2.0 11.0 2.9 Q9.0 4.2 7.35 5.9 L7.25 6.15 7.2 6.7 10.1 6.6 Q11.0 6.3 11.55 5.75 L12.6 5.0 Q14.45 4.15 16.45 3.9 L17.55 3.95 Q19.45 4.35 21.2 5.1 L22.75 5.95 Q23.45 6.6 24.3 6.6 L24.3 6.25 22.75 3.95 Q22.1 3.15 21.05 2.7 M23.25 11.05 L22.4 14.8 Q21.95 16.6 22.0 18.35 L22.05 19.35 Q19.9 17.5 17.25 16.6 18.7 15.4 19.85 13.8 L21.0 12.1 19.9 11.85 22.7 11.25 23.25 11.05 M26.2 9.2 L26.1 9.0 24.95 7.8 18.6 9.35 15.5 9.95 12.35 10.4 9.6 10.8 5.45 11.4 6.3 12.5 13.6 12.35 13.6 13.95 10.35 14.85 8.85 14.1 8.15 15.0 10.35 16.75 6.2 17.45 Q7.6 18.15 6.95 19.5 L13.45 17.9 13.1 22.55 Q12.55 25.75 10.8 28.25 9.85 26.9 9.45 25.2 L11.45 23.9 10.65 22.85 9.4 21.65 8.8 21.25 8.5 21.5 4.75 24.55 4.15 25.65 Q3.4 26.75 2.0 27.5 1.1 27.95 1.0 28.7 L1.0 28.8 Q3.55 29.15 5.95 27.45 L5.85 27.0 Q5.95 26.35 6.7 26.1 L8.05 26.3 10.6 31.8 11.7 31.5 Q13.8 30.5 15.45 28.9 L16.0 18.35 19.15 18.9 Q21.05 19.1 22.1 20.5 L22.4 21.7 22.75 22.5 23.4 23.35 28.2 27.2 Q31.85 27.65 33.75 25.0 L33.55 20.9 33.3 21.4 32.55 22.7 31.2 24.1 Q29.9 25.2 28.2 25.05 25.2 24.5 24.5 21.35 L24.0 18.55 23.95 16.5 24.2 13.8 Q24.55 11.25 26.2 9.2 M21.9 12.6 L21.85 12.65 20.65 14.4 19.1 16.25 21.0 17.35 Q21.1 15.95 21.45 14.6 L21.9 12.6 M17.65 5.85 L17.1 5.85 Q15.15 6.95 12.8 7.3 12.55 7.45 12.9 7.75 L15.8 7.55 16.45 7.3 20.15 7.45 Q19.3 6.6 17.7 5.95 L17.65 5.85 M18.35 12.1 L18.7 12.45 18.75 12.8 Q18.4 13.35 17.8 13.35 L16.2 13.55 16.2 12.65 17.35 12.2 18.35 12.1 M12.4 15.55 L13.55 15.8 12.65 16.15 11.25 15.6 12.4 15.55 M17.4 22.6 L17.25 22.9 17.2 23.35 18.25 26.8 Q18.8 28.65 20.0 30.25 L20.35 30.5 20.7 30.5 20.8 30.35 21.05 29.9 21.45 28.85 21.3 28.45 20.0 25.5 Q19.05 23.55 17.55 22.45 L17.4 22.6" fill="#b60000" fill-rule="evenodd" stroke="none"/>
    <path d="M23.25 11.05 L22.7 11.25 19.9 11.85 21.0 12.1 19.85 13.8 Q18.7 15.4 17.25 16.6 19.9 17.5 22.05 19.35 L22.0 18.35 Q21.95 16.6 22.4 14.8 L23.25 11.05 M21.05 2.7 Q22.1 3.15 22.75 3.95 L24.3 6.25 24.3 6.6 Q23.45 6.6 22.75 5.95 L21.2 5.1 Q19.45 4.35 17.55 3.95 L16.45 3.9 Q14.45 4.15 12.6 5.0 L11.55 5.75 Q11.0 6.3 10.1 6.6 L7.2 6.7 7.25 6.15 7.35 5.9 Q9.0 4.2 11.0 2.9 L12.85 2.0 14.0 1.45 Q14.55 1.1 15.2 1.1 15.55 0.95 15.95 1.1 L15.85 2.4 14.75 3.2 19.85 3.1 19.9 2.7 20.05 2.6 21.05 2.7 M26.2 9.2 Q24.55 11.25 24.2 13.8 L23.95 16.5 24.0 18.55 24.5 21.35 Q25.2 24.5 28.2 25.05 29.9 25.2 31.2 24.1 L32.55 22.7 33.3 21.4 33.55 20.9 33.75 25.0 Q31.85 27.65 28.2 27.2 L23.4 23.35 22.75 22.5 22.4 21.7 22.1 20.5 Q21.05 19.1 19.15 18.9 L16.0 18.35 15.45 28.9 Q13.8 30.5 11.7 31.5 L10.6 31.8 8.05 26.3 6.7 26.1 Q5.95 26.35 5.85 27.0 L5.95 27.45 Q3.55 29.15 1.0 28.8 L1.0 28.7 Q1.1 27.95 2.0 27.5 3.4 26.75 4.15 25.65 L4.75 24.55 8.5 21.5 8.8 21.25 9.4 21.65 10.65 22.85 11.45 23.9 9.45 25.2 Q9.85 26.9 10.8 28.25 12.55 25.75 13.1 22.55 L13.45 17.9 6.95 19.5 Q7.6 18.15 6.2 17.45 L10.35 16.75 8.15 15.0 8.85 14.1 10.35 14.85 13.6 13.95 13.6 12.35 6.3 12.5 5.45 11.4 9.6 10.8 12.35 10.4 15.5 9.95 18.6 9.35 24.95 7.8 26.1 9.0 26.2 9.2 M17.4 22.6 L17.55 22.45 Q19.05 23.55 20.0 25.5 L21.3 28.45 21.45 28.85 21.05 29.9 20.8 30.35 20.7 30.5 20.35 30.5 20.0 30.25 Q18.8 28.65 18.25 26.8 L17.2 23.35 17.25 22.9 17.4 22.6 M12.4 15.55 L11.25 15.6 12.65 16.15 13.55 15.8 12.4 15.55 M18.35 12.1 L17.35 12.2 16.2 12.65 16.2 13.55 17.8 13.35 Q18.4 13.35 18.75 12.8 L18.7 12.45 18.35 12.1 M17.65 5.85 L17.7 5.95 Q19.3 6.6 20.15 7.45 L16.45 7.3 15.8 7.55 12.9 7.75 Q12.55 7.45 12.8 7.3 15.15 6.95 17.1 5.85 L17.65 5.85" fill="#000000" fill-rule="evenodd" stroke="none"/>
  </g>
</svg>