<?xml version="1.0" encoding="UTF-8" standalone="no"?>
<svg xmlns:xlink="http://www.w3.org/1999/xlink" height="34.65px" width="35.8px" xmlns="http://www.w3.org/2000/svg">
  <g id="shape0" transform="matrix(1.0, 0.0, 0.0, 1.0, 17.95, 17.1)">
    <path d="M0.0 -17.1 Q4.0 -17.1 6.8 -14.3 9.6 -11.5 9.6 -7.5 9.6 -4.2 7.7 -1.7 8.1 -1.1 8.1 -0.3 8.1 0.8 7.35 1.55 6.6 2.3 5.5 2.3 L4.45 2.3 4.45 3.25 -4.45 3.25 -4.45 2.3 -5.5 2.3 Q-6.6 2.3 -7.35 1.55 -8.1 0.8 -8.1 -0.3 -8.1 -1.1 -7.7 -1.7 -9.6 -4.2 -9.6 -7.5 -9.6 -11.5 -6.8 -14.3 -4.0 -17.1 0.0 -17.1 M0.45 -0.1 L2.3 -0.1 0.45 -1.35 0.45 -0.1 M0.9 -2.7 L6.25 -1.95 7.25 -5.55 6.15 -6.1 0.75 -3.4 0.9 -2.7 M-0.45 -1.35 L-2.3 -0.1 -0.45 -0.1 -0.45 -1.35 M-6.15 -6.1 L-7.25 -5.55 -6.25 -1.95 -0.9 -2.7 -0.75 -3.4 -6.15 -6.1 M2.8 3.7 L4.2 3.7 4.2 5.5 2.8 5.5 2.8 3.7 M0.5 3.7 L1.8 3.7 1.8 5.5 0.5 5.5 0.5 3.7 M-2.8 3.7 L-2.8 5.5 -4.2 5.5 -4.2 3.7 -2.8 3.7 M-0.5 3.7 L-0.5 5.5 -1.8 5.5 -1.8 3.7 -0.5 3.7" fill="#ffffff" fill-rule="evenodd" stroke="none"/>
  </g>
  <g id="shape1" transform="matrix(0.9181, 0.3909, -0.3909, 0.9181, 15.3, 26)">
    <path d="M-11.85 -1.3 Q-0.25 -0.4 11.3 -1.3 L11.3 1.35 Q-0.2 0.65 -11.85 1.35 L-11.85 -1.3" fill="#ffffff" fill-rule="evenodd" stroke="none"/>
    <path d="M-11.25 -2.0 Q-10.5 -1.3 -10.85 -0.45 L-11.25 0.0 -11.0 0.25 Q-10.55 0.8 -10.6 1.35 L-11.0 1.9 Q-12.05 3.05 -13.95 2.95 L-14.3 2.6 Q-14.95 1.8 -14.6 0.9 L-13.95 0.45 -14.4 0.2 -15.1 -0.25 -15.1 -1.5 -14.5 -2.25 -13.0 -2.8 Q-11.8 -2.75 -11.25 -2.0" fill="#ffffff" fill-rule="evenodd" stroke="none"/>
    <path d="M14.5 -2.35 L15.1 -1.6 15.1 -0.35 14.4 0.1 13.95 0.35 14.6 0.8 Q14.95 1.7 14.3 2.5 L13.95 2.85 Q12.05 2.95 11.05 1.8 L10.6 1.25 Q10.55 0.7 11.05 0.15 L11.25 -0.1 10.85 -0.55 Q10.5 -1.4 11.25 -2.1 11.8 -2.85 13.0 -2.9 L14.5 -2.35" fill="#ffffff" fill-rule="evenodd" stroke="none"/>
  </g>
  <g id="shape1" transform="matrix(-0.9181, 0.3909, 0.3909, 0.9181, 20.9, 26)">
    <path d="M-11.85 -1.3 Q-0.25 -0.4 11.3 -1.3 L11.3 1.35 Q-0.2 0.65 -11.85 1.35 L-11.85 -1.3" fill="#ffffff" fill-rule="evenodd" stroke="none"/>
    <path d="M-11.25 -2.0 Q-10.5 -1.3 -10.85 -0.45 L-11.25 0.0 -11.0 0.25 Q-10.55 0.8 -10.6 1.35 L-11.0 1.9 Q-12.05 3.05 -13.95 2.95 L-14.3 2.6 Q-14.95 1.8 -14.6 0.9 L-13.95 0.45 -14.4 0.2 -15.1 -0.25 -15.1 -1.5 -14.5 -2.25 -13.0 -2.8 Q-11.8 -2.75 -11.25 -2.0" fill="#ffffff" fill-rule="evenodd" stroke="none"/>
    <path d="M14.5 -2.35 L15.1 -1.6 15.1 -0.35 14.4 0.1 13.95 0.35 14.6 0.8 Q14.95 1.7 14.3 2.5 L13.95 2.85 Q12.05 2.95 11.05 1.8 L10.6 1.25 Q10.55 0.7 11.05 0.15 L11.25 -0.1 10.85 -0.55 Q10.5 -1.4 11.25 -2.1 11.8 -2.85 13.0 -2.9 L14.5 -2.35" fill="#ffffff" fill-rule="evenodd" stroke="none"/>
  </g>
</svg>
