<?xml version="1.0" encoding="UTF-8" standalone="no"?>
<svg xmlns:xlink="http://www.w3.org/1999/xlink" height="19.15px" width="41.3px" xmlns="http://www.w3.org/2000/svg">
  <g transform="matrix(1.0, 0.0, 0.0, 1.0, 21.2, -7.65)">
    <path d="M18.1 14.35 Q17.3 14.35 17.3 13.65 17.3 13.25 18.2 13.0 19.1 12.75 19.1 13.5 19.05 14.35 18.1 14.35 M-14.0 11.25 Q-14.75 11.25 -15.2 10.6 -15.6 10.0 -15.6 9.45 -15.6 8.7 -13.95 8.65 -12.3 8.6 -12.3 10.2 L-12.45 10.75 Q-12.85 11.25 -14.0 11.25 M7.3 25.1 L7.25 25.45 5.55 25.65 5.2 25.55 5.0 25.2 Q6.2 24.4 6.85 24.5 7.3 24.55 7.3 25.1 M-15.15 13.3 L-14.5 13.25 Q-12.1 13.35 -12.1 14.6 L-12.15 15.0 Q-12.25 15.35 -12.7 15.4 L-11.8 16.0 Q-11.65 16.2 -11.65 16.6 L-12.75 17.8 Q-14.05 19.0 -15.0 19.0 -16.45 19.0 -16.45 18.05 L-16.45 16.75 -16.95 15.05 Q-16.95 13.45 -15.15 13.3 M-10.75 22.5 L-12.7 20.85 Q-12.7 19.5 -10.9 19.65 -9.1 19.85 -9.1 20.7 L-9.55 21.55 Q-10.1 22.5 -10.75 22.5 M-5.75 23.3 Q-4.5 23.55 -4.5 24.4 -4.5 25.05 -5.95 25.05 -6.5 25.05 -6.8 24.55 L-7.05 23.9 Q-7.05 23.05 -5.75 23.3" fill="#ffffcc" fill-opacity="0.49803922" fill-rule="evenodd" stroke="none"/>
    <path d="M15.85 20.4 L14.55 19.65 12.9 19.3 Q12.2 19.3 9.95 20.45 L7.45 21.7 4.55 22.2 1.25 22.35 M18.5 15.55 L17.0 15.0 15.7 14.7 Q15.4 14.7 15.05 15.05 14.65 15.4 14.6 15.7 M14.9 25.6 L13.5 25.2 12.15 24.75 Q11.75 24.75 11.25 25.25 10.75 25.75 9.4 25.8 M0.95 24.85 L0.05 25.0 M-17.85 11.65 L-20.2 11.4 M-15.15 13.3 L-14.45 12.6 Q-14.35 12.45 -13.85 12.45 -12.1 12.45 -10.6 13.3 M-14.95 22.5 L-15.55 22.55 -16.9 22.5 M-8.85 19.95 Q-10.25 18.85 -11.65 18.85 L-13.45 19.25 -14.65 19.8 M0.65 23.2 L-2.65 22.65 -6.7 22.35" fill="none" stroke="#660000" stroke-linecap="round" stroke-linejoin="round" stroke-opacity="0.4" stroke-width="1"/>
  </g>
</svg>