<?xml version="1.0" encoding="UTF-8" standalone="no"?>
<svg xmlns:xlink="http://www.w3.org/1999/xlink" height="30.3px" width="15.75px" xmlns="http://www.w3.org/2000/svg">
  <g transform="matrix(1.0, 0.0, 0.0, 1.0, 7.2, 21.2)">
    <path d="M-4.5 -7.45 L-4.3 -8.05 -4.35 -7.65 -4.55 -0.35 -4.5 0.05 -3.7 4.15 -3.55 4.7 -2.95 7.35 -5.9 6.15 -6.1 4.6 -6.2 1.35 -6.15 -0.95 Q-5.85 -2.0 -5.75 -3.75 L-5.45 -4.65 -4.5 -7.45 M-4.95 5.95 L-3.55 4.7 -4.95 5.95" fill="#d6b687" fill-rule="evenodd" stroke="none"/>
    <path d="M6.35 -11.2 L4.15 -15.65 Q3.15 -17.6 2.1 -17.6 L1.4 -17.15 Q0.95 -16.65 0.95 -16.0 L1.15 -14.5 0.15 -11.6 Q-0.6 -9.9 -1.55 -8.55 -2.45 -7.3 -2.85 -7.15 -2.45 -7.3 -1.55 -8.55 -0.6 -9.9 0.15 -11.6 L1.15 -14.5 0.95 -16.0 Q0.95 -16.65 1.4 -17.15 L2.1 -17.6 Q3.15 -17.6 4.15 -15.65 L6.35 -11.2 M-4.5 -7.45 L-3.3 -11.25 Q-2.6 -13.35 -2.2 -15.6 L-1.15 -20.15 -0.6 -20.2 Q1.3 -20.35 2.8 -19.0 4.15 -17.75 5.05 -16.05 L6.3 -13.0 Q6.85 -11.35 7.0 -9.7 L7.45 -5.8 Q7.65 -4.45 7.45 -3.05 7.55 -5.85 6.15 -7.8 4.9 -9.55 3.4 -9.55 1.75 -9.55 -0.1 -5.55 -2.15 -1.05 -4.5 0.05 -2.15 -1.05 -0.1 -5.55 1.75 -9.55 3.4 -9.55 4.9 -9.55 6.15 -7.8 7.55 -5.85 7.45 -3.05 L7.3 -2.4 Q6.85 -0.7 6.8 1.05 L6.7 4.8 6.35 5.25 4.8 6.55 3.6 7.35 2.15 7.9 -1.7 7.8 -2.95 7.35 -3.55 4.7 -3.7 4.15 -4.5 0.05 -4.55 -0.35 -4.35 -7.65 -4.3 -8.05 -4.5 -7.45 M-6.15 -0.95 L-6.1 -1.55 -5.75 -3.75 Q-5.85 -2.0 -6.15 -0.95 M5.95 1.6 L4.9 0.25 Q4.15 -0.5 3.65 -0.5 1.45 -0.5 0.15 0.9 L-3.55 4.7 0.15 0.9 Q1.45 -0.5 3.65 -0.5 4.15 -0.5 4.9 0.25 L5.95 1.6 M5.6 4.45 L4.35 3.35 Q4.0 3.35 3.65 3.75 L2.3 4.95 Q1.15 5.7 -1.15 6.85 1.15 5.7 2.3 4.95 L3.65 3.75 Q4.0 3.35 4.35 3.35 L5.6 4.45" fill="#bf8348" fill-rule="evenodd" stroke="none"/>
    <path d="M7.45 -3.05 Q7.65 -4.45 7.45 -5.8 L7.0 -9.7 Q6.85 -11.35 6.3 -13.0 L5.05 -16.05 Q4.15 -17.75 2.8 -19.0 1.3 -20.35 -0.6 -20.2 L-1.15 -20.15 -2.2 -15.6 Q-2.6 -13.35 -3.3 -11.25 L-4.5 -7.45 -5.45 -4.65 -5.75 -3.75 -6.1 -1.55 -6.15 -0.95 -6.2 1.35 -6.1 4.6 -5.9 6.15 M7.45 -3.05 L7.3 -2.4 Q6.85 -0.7 6.8 1.05 L6.7 4.8" fill="none" stroke="#660000" stroke-linecap="round" stroke-linejoin="round" stroke-opacity="0.4" stroke-width="1"/>
    <path d="M-2.85 -7.15 Q-2.45 -7.3 -1.55 -8.55 -0.6 -9.9 0.15 -11.6 L1.15 -14.5 0.95 -16.0 Q0.95 -16.65 1.4 -17.15 L2.1 -17.6 Q3.15 -17.6 4.15 -15.65 L6.35 -11.2 M-4.5 0.05 Q-2.15 -1.05 -0.1 -5.55 1.75 -9.55 3.4 -9.55 4.9 -9.55 6.15 -7.8 7.55 -5.85 7.45 -3.05 M-1.15 6.85 Q1.15 5.7 2.3 4.95 L3.65 3.75 Q4.0 3.35 4.35 3.35 L5.6 4.45 M-3.55 4.7 L0.15 0.9 Q1.45 -0.5 3.65 -0.5 4.15 -0.5 4.9 0.25 L5.95 1.6 M-3.55 4.7 L-4.95 5.95" fill="none" stroke="#660000" stroke-linecap="round" stroke-linejoin="round" stroke-opacity="0.09803922" stroke-width="1"/>
  </g>
</svg>