<?xml version="1.0" encoding="UTF-8" standalone="no"?>
<svg xmlns:xlink="http://www.w3.org/1999/xlink" height="29.5px" width="18.25px" xmlns="http://www.w3.org/2000/svg">
  <g id="shape0" transform="matrix(1.0, 0.0, 0.0, 1.0, 1, 1)">
    <path d="M8.85 6.3 L8.9 5.25 Q9.05 3.65 9.55 2.75 L9.95 2.9 Q9.6 5.0 9.4 7.5 L9.45 7.4 9.45 7.2 9.65 6.3 10.1 7.05 10.4 8.4 10.35 10.05 10.3 10.55 10.45 12.8 Q10.5 9.75 10.85 8.4 L11.0 7.95 11.25 8.4 11.3 9.15 11.15 12.65 11.0 12.3 10.85 12.3 10.85 13.65 11.05 14.25 11.0 15.05 11.1 16.5 Q10.3 13.6 10.25 11.1 L9.95 11.1 Q9.8 11.55 9.8 12.25 9.8 13.35 10.15 14.7 10.55 16.2 11.15 16.65 L11.15 16.9 11.45 18.6 11.2 18.75 11.05 18.6 11.45 20.15 11.6 20.55 11.45 20.75 Q10.25 18.85 9.95 16.25 L9.85 14.2 9.8 14.4 Q9.8 19.25 10.55 19.5 10.55 19.8 10.15 19.8 9.85 19.8 9.7 19.45 L9.9 21.3 10.25 23.4 9.75 21.85 9.8 22.75 9.8 22.95 9.5 22.95 Q8.6 18.5 8.6 13.35 L8.75 9.6 8.75 7.95 8.85 6.3 M8.7 21.75 L9.35 24.8 9.25 24.9 Q8.15 22.85 7.7 19.3 L7.6 16.65 Q7.25 15.55 7.25 13.45 L7.65 6.5 Q7.0 9.45 7.0 15.25 L7.05 18.95 Q7.15 20.4 7.6 23.15 L7.75 23.15 Q8.2 26.05 8.75 27.45 L8.55 27.5 Q7.85 27.5 7.45 25.15 L7.0 21.6 Q6.65 18.65 6.65 15.9 L6.95 7.95 7.55 3.5 Q8.0 1.0 9.05 1.05 8.45 2.85 8.1 4.95 L8.05 5.05 7.75 17.1 7.7 16.95 7.75 17.7 Q7.9 19.15 8.2 20.35 L8.6 22.55 8.75 22.35 8.55 21.4 8.7 21.75 M8.2 4.65 L8.65 3.2 8.85 3.25 8.9 3.5 8.45 6.75 8.5 5.6 8.4 5.3 Q8.55 4.5 8.8 4.05 L8.65 3.9 8.2 4.65 M13.1 13.45 L12.95 13.05 Q12.2 10.95 12.2 9.95 12.2 9.55 12.5 9.3 L13.35 12.3 Q13.8 14.15 14.6 15.3 L14.45 15.45 Q14.15 15.45 13.85 15.0 L13.85 14.9 13.1 13.45 M12.25 12.75 Q12.5 14.85 13.1 16.25 12.4 16.5 11.85 13.75 11.5 11.8 11.45 10.5 L11.45 10.25 11.45 9.7 11.75 9.15 12.1 11.25 11.8 11.25 12.25 12.75 M14.95 11.25 L15.75 12.05 16.15 12.95 16.0 13.05 Q15.75 13.05 15.25 12.3 L14.75 11.45 14.8 11.25 14.95 11.25 M13.75 11.25 L13.6 10.8 Q14.45 10.7 14.95 12.65 L14.95 12.95 14.7 13.05 Q14.5 13.05 14.2 12.45 L14.75 12.65 14.8 12.6 Q14.3 11.25 13.75 11.25 M2.6 1.0 L2.95 0.55 3.15 0.0 3.3 0.05 3.35 0.3 2.7 2.95 2.7 2.85 2.6 2.55 2.25 3.05 2.6 1.0 M2.45 5.6 L2.85 4.35 2.85 4.25 2.9 4.25 3.0 4.05 2.9 4.65 2.65 7.75 2.45 11.65 2.4 12.7 2.4 13.0 2.4 13.35 2.4 13.55 2.45 15.2 2.45 16.75 2.5 17.2 Q2.65 18.75 3.2 20.75 L3.0 21.0 2.75 20.4 Q2.45 19.6 2.3 18.8 L2.3 19.1 2.6 21.85 3.3 24.0 3.35 24.15 3.35 24.2 3.3 24.3 2.7 23.15 2.45 23.15 2.4 22.4 2.3 22.25 2.3 22.1 1.6 19.15 Q1.35 17.2 1.35 13.65 1.35 11.6 1.7 6.65 L2.2 0.9 2.25 0.45 2.35 0.55 2.35 0.7 1.75 13.65 Q1.75 16.15 2.0 18.25 L1.95 16.15 1.95 15.65 1.95 14.6 1.95 12.95 2.0 8.75 Q2.1 7.55 2.5 5.9 L2.4 6.05 2.45 5.6 M3.5 3.05 L3.6 2.75 4.05 3.0 Q3.6 3.95 3.45 5.5 L3.4 6.3 3.8 5.6 3.85 5.55 3.9 5.75 3.65 8.0 Q3.4 8.85 3.4 10.05 L3.6 16.35 3.65 16.75 4.2 21.05 4.1 21.2 3.7 19.5 3.8 22.4 3.65 22.5 3.05 16.85 3.0 16.4 2.75 11.45 2.8 7.05 Q3.0 4.7 3.5 3.05 M2.2 24.55 L2.2 24.7 2.1 24.65 2.1 24.75 2.0 24.6 2.1 24.6 2.2 24.55 M1.75 24.25 L1.45 23.7 2.25 26.1 2.1 26.25 Q0.7 24.25 0.25 21.45 0.0 19.8 0.0 16.55 0.0 13.95 0.25 11.5 0.4 9.4 0.7 7.35 L1.35 4.15 1.15 7.75 Q0.8 10.75 0.75 13.3 L0.75 13.65 0.7 15.45 Q0.7 17.55 1.25 20.25 L1.25 20.3 1.3 20.5 1.55 22.6 1.75 24.25 M9.25 12.25 L9.2 10.5 9.05 10.5 8.75 12.2 8.65 13.6 8.7 15.55 Q8.8 16.3 9.25 17.05 L9.45 17.35 9.5 17.4 9.55 17.25 9.55 17.1 9.45 16.7 9.25 15.0 9.2 13.55 9.25 12.25" fill="#cdb1b1" fill-rule="evenodd" stroke="none"/>
    <path d="M11.15 12.65 L11.45 13.65 11.75 14.6 11.6 14.75 11.45 14.75 11.1 14.4 11.05 14.25 10.85 13.65 10.85 12.3 11.0 12.3 11.15 12.65 M11.1 16.5 L11.15 16.65 Q10.55 16.2 10.15 14.7 9.8 13.35 9.8 12.25 9.8 11.55 9.95 11.1 L10.25 11.1 Q10.3 13.6 11.1 16.5 M8.75 9.6 L8.45 11.25 8.45 18.95 Q8.7 20.85 9.35 22.55 L9.2 22.7 8.7 21.75 8.55 21.4 8.75 22.35 8.6 22.55 8.2 20.35 Q7.9 19.15 7.75 17.7 L7.7 16.95 7.75 17.1 8.05 5.05 8.1 4.95 8.2 4.65 8.65 3.9 8.8 4.05 Q8.55 4.5 8.4 5.3 L8.5 5.6 8.45 6.75 8.4 7.85 8.85 6.3 8.75 7.95 8.75 9.6 M7.7 19.3 L7.85 23.15 7.75 23.15 7.6 23.15 Q7.15 20.4 7.05 18.95 L7.0 15.25 Q7.0 9.45 7.65 6.5 L7.25 13.45 Q7.25 15.55 7.6 16.65 L7.7 19.3 M13.85 15.0 Q13.8 15.15 13.55 15.15 13.2 15.15 12.55 13.5 L12.25 12.75 11.8 11.25 12.1 11.25 12.95 13.1 13.1 13.45 13.85 14.9 13.85 15.0 M14.2 12.45 Q13.75 12.1 13.6 11.25 L13.75 11.25 Q14.3 11.25 14.8 12.6 L14.75 12.65 14.2 12.45 M2.7 2.95 L2.6 3.75 2.45 5.6 2.4 6.05 2.5 5.9 Q2.1 7.55 2.0 8.75 L1.95 12.95 1.95 14.6 1.95 15.65 1.95 16.15 2.0 18.25 Q1.75 16.15 1.75 13.65 L2.35 0.7 2.4 0.6 2.55 0.6 2.6 0.9 2.6 1.0 2.25 3.05 2.6 2.55 2.7 2.85 2.7 2.95 M3.0 4.05 L3.5 1.65 3.6 1.7 3.6 1.95 3.5 3.05 Q3.0 4.7 2.8 7.05 L2.75 11.45 3.0 16.4 3.15 20.3 4.2 27.15 4.2 27.35 3.35 24.2 3.35 24.15 3.3 24.0 Q2.95 22.3 2.75 20.4 L3.0 21.0 3.2 20.75 Q2.65 18.75 2.5 17.2 L2.45 15.2 2.4 13.55 2.4 13.35 2.4 13.0 2.4 12.7 2.45 11.65 2.65 7.75 2.9 4.65 3.0 4.05 M2.3 22.25 L2.55 24.45 2.55 24.5 2.05 22.9 2.25 24.5 2.2 24.55 2.1 24.6 2.0 24.6 1.8 24.6 1.75 24.25 1.55 22.6 1.3 20.5 1.25 20.3 1.25 20.25 1.25 20.0 1.15 19.25 Q0.75 16.1 0.75 13.9 L0.75 13.65 0.75 13.3 Q0.8 10.75 1.15 7.75 L1.35 4.15 Q1.6 1.9 2.2 0.9 L1.7 6.65 Q1.35 11.6 1.35 13.65 1.35 17.2 1.6 19.15 L2.3 22.1 2.3 22.25 M9.25 12.25 L9.2 13.55 9.25 15.0 9.45 16.7 9.55 17.1 9.55 17.25 9.5 17.4 9.45 17.35 9.25 17.05 Q8.8 16.3 8.7 15.55 L8.65 13.6 8.75 12.2 9.05 10.5 9.2 10.5 9.25 12.25" fill="#f3d4d4" fill-rule="evenodd" stroke="none"/>
  </g>
</svg>