<?xml version="1.0" encoding="UTF-8" standalone="no"?>
<svg xmlns:xlink="http://www.w3.org/1999/xlink" height="11.4px" width="13px" xmlns="http://www.w3.org/2000/svg">
  <g id="shape0" transform="matrix(1.0, 0.0, 0.0, 1.0, 0.9, -0.4)">
    <path d="M11.05 5.15 L10.7 6.45 10.65 6.5 10.3 6.9 Q8.55 7.25 7.2 8.2 5.8 9.15 4.2 7.95 L4.1 7.8 3.0 7.25 2.9 7.15 1.6 6.0 2.35 6.6 3.2 7.0 3.3 7.05 5.6 7.65 Q6.5 7.6 8.6 6.6 L10.35 6.0 Q10.85 5.8 11.05 5.15" fill="#e5c3c3" fill-rule="evenodd" stroke="none"/>
    <path d="M0.3 3.15 Q0.3 3.05 0.5 3.05 L1.25 3.5 Q1.9 3.9 2.85 3.9 4.0 3.9 5.7 2.95 7.45 1.95 8.5 1.95 9.6 1.95 10.5 3.3 11.25 4.55 11.1 5.1 L11.05 5.15 Q10.85 5.8 10.35 6.0 L8.6 6.6 Q6.5 7.6 5.6 7.65 L3.3 7.05 3.2 7.0 2.35 6.6 1.6 6.0 1.45 5.85 0.9 4.95 0.4 3.65 0.3 3.15 M10.3 6.9 L9.05 8.2 Q7.8 9.55 6.5 9.55 5.05 9.55 4.2 8.05 L4.2 8.0 4.15 7.95 4.1 7.85 4.25 8.1 4.2 7.95 Q5.8 9.15 7.2 8.2 8.55 7.25 10.3 6.9" fill="#f3d4d4" fill-rule="evenodd" stroke="none"/>
    <path d="M4.2 8.05 L4.45 8.65 4.4 9.9 4.3 10.15 4.1 10.8 M1.6 6.0 L2.9 7.15 3.0 7.25 4.1 7.8 4.2 7.95 4.25 8.1 4.1 7.85 4.15 7.95 M0.3 3.15 L0.2 2.8 0.1 2.35 0.1 2.2 0.1 1.8 0.15 1.4 M1.6 6.0 L1.45 5.85 0.9 4.95 0.4 3.65 0.3 3.15" fill="none" stroke="#a36a6a" stroke-linecap="round" stroke-linejoin="round" stroke-width="1"/>
  </g>
</svg>