<?xml version="1.0" encoding="UTF-8" standalone="no"?>
<svg xmlns:xlink="http://www.w3.org/1999/xlink" height="7.4px" width="9.8px" xmlns="http://www.w3.org/2000/svg">
  <g transform="matrix(1.0, 0.0, 0.0, 1.0, 3.5, 2.1)">
    <path d="M0.1 -0.4 L0.1 -0.05 -0.6 0.15 0.15 0.35 0.05 0.4 0.05 0.85 -0.3 0.9 Q-1.25 0.9 -1.25 0.15 L-1.1 -0.65 -0.7 -0.7 0.1 -0.4 M0.35 -0.4 L0.75 -0.4 Q2.4 -0.15 3.9 1.1 5.0 2.05 5.3 2.75 L4.55 4.3 Q2.2 1.35 0.25 1.2 L0.25 1.15 0.4 0.35 0.4 0.3 0.5 0.2 0.4 0.15 0.35 -0.4 M-1.1 1.2 L-2.1 1.45 -2.45 1.6 -2.5 1.6 -2.0 -0.3 -1.8 -0.45 -1.5 -0.45 -1.6 0.4 Q-1.6 0.95 -1.1 1.2" fill="#835c13" fill-rule="evenodd" stroke="none"/>
    <path d="M0.1 -0.4 L-0.7 -0.7 -1.1 -0.65 -1.25 0.15 Q-1.25 0.9 -0.3 0.9 L0.05 0.85 0.05 0.4 0.15 0.35 -0.6 0.15 0.1 -0.05 0.1 -0.4 M-1.5 -0.45 L-1.5 -0.55 -1.3 -1.05 -0.6 -1.05 0.1 -0.9 0.35 -0.4 0.4 0.15 0.4 0.3 0.4 0.35 0.05 0.4 0.4 0.35 0.25 1.15 0.25 1.2 -0.35 1.3 -1.1 1.2 Q-1.6 0.95 -1.6 0.4 L-1.5 -0.45 M0.1 -0.05 L0.4 0.15 0.1 -0.05" fill="#ffe856" fill-rule="evenodd" stroke="none"/>
    <path d="M0.35 -0.4 L0.75 -0.4 Q2.4 -0.15 3.9 1.1 5.0 2.05 5.3 2.75 L4.55 4.3 Q2.2 1.35 0.25 1.2 M-1.1 1.2 L-2.1 1.45 -2.45 1.6 -2.5 1.6 -2.0 -0.3 -1.8 -0.45 -1.5 -0.45" fill="none" stroke="#2a1b00" stroke-linecap="round" stroke-linejoin="round" stroke-width="1"/>
    <path d="M0.1 -0.4 L-0.7 -0.7 -1.1 -0.65 -1.25 0.15 Q-1.25 0.9 -0.3 0.9 L0.05 0.85 0.05 0.4 0.15 0.35 -0.6 0.15 0.1 -0.05 0.1 -0.4 M-1.5 -0.45 L-1.5 -0.55 -1.3 -1.05 -0.6 -1.05 0.1 -0.9 0.35 -0.4 0.4 0.15 0.1 -0.05 M0.25 1.2 L-0.35 1.3 -1.1 1.2 Q-1.6 0.95 -1.6 0.4 L-1.5 -0.45 M0.4 0.35 L0.05 0.4 M0.4 0.35 L0.4 0.3 0.4 0.15 0.5 0.2 0.4 0.3 M0.25 1.2 L0.25 1.15 0.4 0.35" fill="none" stroke="#ffff00" stroke-linecap="round" stroke-linejoin="round" stroke-width="1"/>
  </g>
</svg>