<?xml version="1.0" encoding="UTF-8" standalone="no"?>
<svg xmlns:xlink="http://www.w3.org/1999/xlink" height="8.55px" width="11.3px" xmlns="http://www.w3.org/2000/svg">
  <g id="shape0" transform="matrix(1.0, 0.0, 0.0, 1.0, 1, 2)">
    <path d="M7.55 1.6 L6.05 2.9 5.05 3.95 4.8 3.95 4.5 3.7 4.75 2.95 5.05 2.65 6.4 1.65 Q7.7 0.85 9.3 0.0 9.05 1.5 7.35 3.2 L7.6 2.3 7.55 1.6 M5.65 4.65 L6.7 5.55 4.9 5.55 4.8 5.4 4.85 5.3 5.05 5.05 5.65 4.65 M1.9 2.05 Q2.55 0.5 4.2 -1.0 L4.15 0.35 3.5 1.25 2.2 2.05 1.9 2.05 M3.0 3.95 L3.4 3.95 3.55 3.95 3.8 4.0 3.6 4.2 Q2.85 4.75 1.9 4.75 L1.5 4.65 1.8 4.15 2.3 4.05 3.0 3.95" fill="#ffffff" fill-rule="evenodd" stroke="none"/>
    <path d="M5.05 3.95 L6.05 2.9 7.55 1.6 7.6 2.3 7.35 3.2 6.9 3.6 6.4 4.05 5.65 4.65 5.05 5.05 4.85 5.3 4.8 5.4 4.9 5.55 0.0 5.55 Q0.05 5.1 0.45 4.8 L0.65 4.65 1.85 2.15 1.9 2.05 2.2 2.05 3.5 1.25 4.15 0.35 4.05 1.15 3.6 2.6 3.1 3.8 3.0 3.95 2.3 4.05 1.8 4.15 1.5 4.65 1.9 4.75 Q2.85 4.75 3.6 4.2 L3.8 4.0 4.75 2.95 4.5 3.7 4.8 3.95 5.05 3.95 4.2 4.75 5.05 3.95 M3.25 4.85 L3.6 4.2 3.25 4.85 M1.8 4.15 L1.1 4.4 0.65 4.65 1.1 4.4 1.8 4.15" fill="#dec4c4" fill-rule="evenodd" stroke="none"/>
    <path d="M5.05 3.95 L6.05 2.9 7.55 1.6 M7.35 3.2 Q9.05 1.5 9.3 0.0 7.7 0.85 6.4 1.65 L5.05 2.65 4.75 2.95 3.8 4.0 3.55 3.95 3.4 3.95 3.0 3.95 3.1 3.8 3.6 2.6 4.05 1.15 4.15 0.35 4.2 -1.0 Q2.55 0.5 1.9 2.05 L1.85 2.15 0.65 4.65 1.1 4.4 1.8 4.15 2.3 4.05 3.0 3.95 M5.05 3.95 L4.2 4.75 M5.65 4.65 L6.7 5.55 M0.0 5.55 Q0.05 5.1 0.45 4.8 L0.65 4.65 M7.35 3.2 L6.9 3.6 6.4 4.05 5.65 4.65 5.05 5.05 4.85 5.3 M3.6 4.2 L3.8 4.0 M3.6 4.2 L3.25 4.85" fill="none" stroke="#a36a6a" stroke-linecap="round" stroke-linejoin="round" stroke-width="1"/>
  </g>
</svg>