<?xml version="1.0" encoding="UTF-8" standalone="no"?>
<svg xmlns:xlink="http://www.w3.org/1999/xlink" height="7.3px" width="3.6px" xmlns="http://www.w3.org/2000/svg">
  <g id="shape0" transform="matrix(1.0, 0.0, 0.0, 1.0, 1.8, 3.65)">
    <path d="M0.55 -1.05 L0.8 -0.1 0.7 1.0 0.45 0.25 Q0.4 2.1 -0.4 2.65 L-0.8 -1.9 -0.75 -2.05 -0.75 -2.45 -0.6 -1.75 -0.55 -1.75 -0.45 -2.15 -0.25 -0.55 -0.05 1.3 0.05 0.5 0.2 -0.55 0.2 -0.6 0.5 0.05 0.6 0.05 0.65 -0.55 0.55 -1.05" fill="#d6baba" fill-rule="evenodd" stroke="none"/>
    <path d="M-0.25 -2.65 L0.4 -1.35 0.55 -1.05 0.65 -0.55 0.6 0.05 0.5 0.05 0.2 -0.6 0.2 -0.55 0.05 0.5 -0.05 1.3 -0.25 -0.55 -0.45 -2.15 -0.35 -2.5 -0.25 -2.65" fill="#ffffff" fill-rule="evenodd" stroke="none"/>
    <path d="M-0.25 -2.65 L0.4 -1.35 0.55 -1.05 0.8 -0.1 0.7 1.0 0.45 0.25 Q0.4 2.1 -0.4 2.65 L-0.8 -1.9 -0.75 -2.05" fill="none" stroke="#a36a6a" stroke-linecap="round" stroke-linejoin="round" stroke-width="1"/>
  </g>
</svg>