<?xml version="1.0" encoding="UTF-8" standalone="no"?>
<svg xmlns:xlink="http://www.w3.org/1999/xlink" height="3.6px" width="8.8px" xmlns="http://www.w3.org/2000/svg">
  <g id="shape0" transform="matrix(1.0, 0.0, 0.0, 1.0, 1, 1)">
    <path d="M6.6 1.4 Q5.9 0.85 5.1 0.85 4.6 0.85 4.6 1.05 L5.1 1.6 0.0 1.6 Q0.65 0.0 3.65 0.0 4.95 0.0 5.75 0.6 L6.6 1.4" fill="#dbbfbf" fill-rule="evenodd" stroke="none"/>
    <path d="M5.1 1.6 L4.6 1.05 Q4.6 0.85 5.1 0.85 5.9 0.85 6.6 1.4 L6.8 1.6 5.1 1.6" fill="#ffffff" fill-rule="evenodd" stroke="none"/>
    <path d="M6.6 1.4 L5.75 0.6 Q4.95 0.0 3.65 0.0 0.65 0.0 0.0 1.6" fill="none" stroke="#a36a6a" stroke-linecap="round" stroke-linejoin="round" stroke-width="1"/>
  </g>
</svg>