<?xml version="1.0" encoding="UTF-8" standalone="no"?>
<svg xmlns:xlink="http://www.w3.org/1999/xlink" height="5.2px" width="8.85px" xmlns="http://www.w3.org/2000/svg">
  <g id="shape0" transform="matrix(1.0, 0.0, 0.0, 1.0, 1, 1)">
    <path d="M5.55 0.1 Q4.3 1.65 4.4 2.75 L4.95 3.2 0.0 3.2 0.1 3.1 Q0.0 1.55 1.05 0.8 L1.4 0.5 Q1.65 0.3 2.05 0.2 L2.05 0.25 Q1.35 0.85 0.95 2.75 0.95 3.0 1.4 3.0 2.45 3.0 3.05 2.35 L3.1 2.1 Q3.35 1.45 4.15 0.7 L4.35 0.55 Q4.75 0.25 5.4 0.1 L5.55 0.1" fill="url(#gradient0)" fill-rule="evenodd" stroke="none"/>
    <path d="M5.55 0.1 L6.4 0.05 5.7 1.45 Q5.4 2.05 6.25 2.6 L6.85 3.2 4.95 3.2 4.4 2.75 Q4.3 1.65 5.55 0.1 M3.1 2.1 L3.05 2.35 Q2.45 3.0 1.4 3.0 0.95 3.0 0.95 2.75 1.35 0.85 2.05 0.25 L2.05 0.2 2.8 0.1 Q2.25 0.95 1.95 2.15 L3.1 2.1" fill="#ffffff" fill-rule="evenodd" stroke="none"/>
    <path d="M6.85 3.2 L6.25 2.6 Q5.4 2.05 5.7 1.45 L6.4 0.05 5.55 0.1 5.4 0.1 Q4.75 0.25 4.35 0.55 L4.15 0.7 Q3.35 1.45 3.1 2.1 L1.95 2.15 Q2.25 0.95 2.8 0.1 L2.05 0.2 Q1.65 0.3 1.4 0.5 L1.05 0.8 Q0.0 1.55 0.1 3.1 L0.0 3.2 M2.05 0.25 L2.05 0.2" fill="none" stroke="#a36a6a" stroke-linecap="round" stroke-linejoin="round" stroke-width="1"/>
  </g>
  <linearGradient gradientTransform="matrix(0.0, -0.0044, 0.0042, 0.0, 2.3, 4.05)" gradientUnits="userSpaceOnUse" id="gradient0" spreadMethod="pad" x1="-819.2" x2="819.2">
    <stop offset="0.0" stop-color="#d6baba"></stop>
    <stop offset="1.0" stop-color="#eed4d4" stop-opacity="0.9019608"></stop>
  </linearGradient>
</svg>