<?xml version="1.0" encoding="UTF-8" standalone="no"?>
<svg xmlns:xlink="http://www.w3.org/1999/xlink" height="8.15px" width="10.35px" xmlns="http://www.w3.org/2000/svg">
  <g id="shape0" transform="matrix(1.0, 0.0, 0.0, 1.0, 1, 1)">
    <path d="M6.05 0.05 L7.8 0.0 8.1 0.75 8.35 2.0 8.1 2.8 7.5 2.9 Q7.1 2.9 6.7 1.35 6.5 0.4 6.05 0.05 M5.5 3.1 Q5.5 3.7 5.1 3.7 3.65 2.9 3.65 2.45 L3.85 2.15 3.9 2.1 3.9 2.05 4.0 2.05 4.35 1.95 4.55 2.15 Q5.5 2.6 5.5 3.1 M2.3 3.2 L2.4 3.15 2.45 3.15 Q2.65 3.2 3.1 3.5 3.75 3.9 3.75 4.35 3.75 4.9 3.35 4.9 2.8 4.9 2.15 3.6 L2.15 3.15 2.3 3.2" fill="#ffffff" fill-rule="evenodd" stroke="none"/>
    <path d="M8.1 2.8 L6.95 3.8 6.55 4.15 4.95 5.3 4.2 5.7 3.85 5.9 3.15 6.15 2.55 5.9 2.15 5.7 1.4 5.15 0.65 4.3 0.55 4.15 Q0.0 3.3 0.0 2.5 L0.05 2.05 0.4 1.25 0.95 0.05 6.05 0.05 Q6.5 0.4 6.7 1.35 7.1 2.9 7.5 2.9 L8.1 2.8 M5.5 3.1 Q5.5 2.6 4.55 2.15 L4.35 1.95 4.0 2.05 3.9 2.05 3.9 2.1 3.85 2.15 3.65 2.45 Q3.65 2.9 5.1 3.7 5.5 3.7 5.5 3.1 M5.75 3.9 L5.9 4.2 5.2 4.25 Q4.65 4.25 3.7 3.5 L2.4 2.7 Q2.15 2.7 1.65 3.05 1.05 3.5 0.65 4.3 1.05 3.5 1.65 3.05 2.15 2.7 2.4 2.7 L3.7 3.5 Q4.65 4.25 5.2 4.25 L5.9 4.2 5.75 3.9 M2.3 3.2 L2.15 3.15 2.15 3.6 Q2.8 4.9 3.35 4.9 3.75 4.9 3.75 4.35 3.75 3.9 3.1 3.5 2.65 3.2 2.45 3.15 L2.4 3.15 2.3 3.2 M6.05 1.25 L0.4 1.25 6.05 1.25" fill="#dbbfbf" fill-rule="evenodd" stroke="none"/>
    <path d="M8.1 2.8 L6.95 3.8 6.55 4.15 4.95 5.3 4.2 5.7 3.85 5.9 3.15 6.15 2.55 5.9 2.15 5.7 1.4 5.15 0.65 4.3 0.55 4.15 Q0.0 3.3 0.0 2.5 L0.05 2.05 0.4 1.25 0.95 0.05 M0.65 4.3 Q1.05 3.5 1.65 3.05 2.15 2.7 2.4 2.7 L3.7 3.5 Q4.65 4.25 5.2 4.25 L5.9 4.2 5.75 3.9 M0.4 1.25 L6.05 1.25" fill="none" stroke="#a36a6a" stroke-linecap="round" stroke-linejoin="round" stroke-width="1"/>
  </g>
</svg>