<?xml version="1.0" encoding="UTF-8" standalone="no"?>
<svg xmlns:xlink="http://www.w3.org/1999/xlink" height="3.65px" width="8.7px" xmlns="http://www.w3.org/2000/svg">
  <g id="shape0" transform="matrix(1.0, 0.0, 0.0, 1.0, 1, -0.05)">
    <path d="M4.5 2.3 L4.6 2.3 Q5.2 2.3 5.6 1.8 L5.7 1.65 Q6.2 1.9 6.7 2.7 L4.75 2.7 4.5 2.5 4.5 2.3 M2.65 1.1 L3.0 1.05 3.9 1.1 3.05 1.4 2.5 1.25 2.65 1.1" fill="#ffffff" fill-rule="evenodd" stroke="none"/>
    <path d="M4.75 2.7 L0.0 2.7 0.45 2.05 0.6 2.15 1.3 2.3 2.15 1.8 2.25 1.65 2.5 1.1 2.65 1.1 2.5 1.25 3.05 1.4 3.9 1.1 4.2 1.15 Q4.2 1.5 3.4 1.65 3.6 2.25 4.5 2.3 L4.5 2.5 4.75 2.7" fill="#dfc5c5" fill-rule="evenodd" stroke="none"/>
    <path d="M5.7 1.65 Q6.2 1.9 6.7 2.7 M0.0 2.7 L0.45 2.05 M2.5 1.1 L2.65 1.1 3.0 1.05 3.9 1.1 4.2 1.15 M2.65 1.1 L2.5 1.25" fill="none" stroke="#a36a6a" stroke-linecap="round" stroke-linejoin="round" stroke-width="1"/>
  </g>
</svg>