<?xml version="1.0" encoding="UTF-8" standalone="no"?>
<svg xmlns:xlink="http://www.w3.org/1999/xlink" height="4.3px" width="7.7px" xmlns="http://www.w3.org/2000/svg">
  <g transform="matrix(1.0, 0.0, 0.0, 1.0, -0.35, 0.4)">
    <path d="M6.55 0.7 L6.6 0.75 Q7.0 0.85 7.05 1.35 L7.05 1.5 6.8 2.25 6.7 2.4 Q6.3 2.9 5.7 2.9 L5.6 2.9 Q4.7 2.85 4.5 2.25 5.3 2.1 5.3 1.75 L5.2 1.15 Q5.2 0.75 5.6 0.65 L5.9 0.6 5.95 0.6 6.2 0.65 6.25 0.65 6.55 0.7 M6.1 1.3 L6.05 1.45 6.05 1.5 6.2 1.95 6.4 2.15 Q6.7 2.15 6.7 1.6 6.7 1.05 6.3 1.05 L6.25 1.05 6.1 1.05 6.1 1.3 M2.55 0.6 L2.6 0.6 3.15 0.7 3.2 0.75 Q3.55 0.85 3.6 1.35 L3.6 1.5 3.6 1.7 3.35 2.25 3.25 2.4 Q2.9 2.9 2.4 2.9 L1.7 2.75 1.55 2.65 1.35 2.25 Q2.05 2.1 2.05 1.75 L1.95 1.15 Q1.95 0.75 2.3 0.65 L2.55 0.6 M2.65 1.4 Q2.65 1.95 3.05 1.95 L3.25 1.65 Q3.25 1.25 2.85 0.95 L2.7 0.95 2.7 1.25 2.65 1.4" fill="#e7e7b0" fill-rule="evenodd" stroke="none"/>
    <path d="M6.1 1.3 Q6.1 1.1 6.25 1.05 L6.3 1.05 Q6.7 1.05 6.7 1.6 6.7 2.15 6.4 2.15 L6.2 1.95 6.05 1.5 6.05 1.45 6.1 1.3 M2.65 1.4 L2.7 1.25 2.7 0.95 2.85 0.95 Q3.25 1.25 3.25 1.65 L3.05 1.95 Q2.65 1.95 2.65 1.4" fill="#ffffe7" fill-rule="evenodd" stroke="none"/>
    <path d="M6.25 1.05 Q6.1 1.1 6.1 1.3 L6.1 1.05 6.25 1.05" fill="#ffffcc" fill-rule="evenodd" stroke="none"/>
    <path d="M6.55 0.7 L6.25 0.65 6.2 0.65 5.95 0.6 5.9 0.6 5.6 0.65 Q5.2 0.75 5.2 1.15 L5.3 1.75 Q5.3 2.1 4.5 2.25 4.7 2.85 5.6 2.9 L5.7 2.9 Q6.3 2.9 6.7 2.4 L6.8 2.25 7.05 1.5 7.05 1.35 Q7.0 0.85 6.6 0.75 L6.55 0.7 M2.55 0.6 L2.3 0.65 Q1.95 0.75 1.95 1.15 L2.05 1.75 Q2.05 2.1 1.35 2.25 L1.55 2.65 1.7 2.75 2.4 2.9 Q2.9 2.9 3.25 2.4 L3.35 2.25 3.6 1.7 3.6 1.5 3.6 1.35 Q3.55 0.85 3.2 0.75 L3.15 0.7 2.6 0.6 2.55 0.6 Z" fill="none" stroke="#a36a6a" stroke-linecap="round" stroke-linejoin="round" stroke-width="1"/>
  </g>
</svg>