<?xml version="1.0" encoding="UTF-8" standalone="no"?>
<svg xmlns:xlink="http://www.w3.org/1999/xlink" height="6.95px" width="14.15px" xmlns="http://www.w3.org/2000/svg">
  <g id="shape0" transform="matrix(1.0, 0.0, 0.0, 1.0, 1, 1)">
    <path d="M5.3 3.1 L7.0 3.5 7.1 3.55 12.15 3.55 10.2 4.15 9.5 4.2 8.85 4.5 8.5 4.5 8.7 4.1 8.7 4.0 8.15 4.0 7.15 4.1 Q6.8 4.1 6.35 4.35 L6.05 4.5 6.05 4.45 5.85 4.0 5.65 3.75 5.45 3.75 Q5.3 3.55 5.3 3.35 L5.3 3.1 M8.95 4.6 L9.45 4.95 8.2 4.95 8.85 4.65 8.95 4.6 M4.9 3.5 Q5.15 3.55 5.35 3.75 L5.4 3.8 5.6 4.1 5.4 4.4 5.4 4.35 5.25 4.45 5.05 4.5 4.8 4.6 4.95 4.25 4.9 4.0 5.0 3.8 4.9 3.5" fill="#ffffff" fill-rule="evenodd" stroke="none"/>
    <path d="M10.2 4.15 L8.95 4.6 8.85 4.65 8.2 4.95 6.35 4.95 4.3 4.95 4.1 4.95 2.45 4.95 2.65 4.6 2.85 4.4 1.45 4.05 0.0 3.55 3.65 3.5 3.65 3.65 3.65 3.75 3.7 3.95 4.0 4.3 4.6 4.15 4.9 4.0 4.95 4.25 4.8 4.6 5.05 4.5 5.25 4.45 5.4 4.35 5.4 4.4 5.6 4.1 5.4 3.8 5.35 3.75 Q5.15 3.55 4.9 3.5 L4.8 3.15 4.95 3.15 5.3 3.1 5.3 3.35 Q5.3 3.55 5.45 3.75 L5.65 3.75 5.85 4.0 6.05 4.45 6.05 4.5 6.35 4.35 Q6.8 4.1 7.15 4.1 L8.15 4.0 8.7 4.0 8.7 4.1 8.5 4.5 8.85 4.5 9.5 4.2 10.2 4.15 M6.35 4.95 Q6.45 4.65 7.35 4.4 L8.7 4.1 7.35 4.4 Q6.45 4.65 6.35 4.95 M4.1 4.95 Q3.3 4.95 3.3 4.35 3.3 4.0 3.6 3.7 L3.65 3.65 3.6 3.7 Q3.3 4.0 3.3 4.35 3.3 4.95 4.1 4.95 M5.25 4.45 L4.75 4.85 4.3 4.95 4.75 4.85 5.25 4.45 M3.6 3.7 L2.85 4.4 3.6 3.7" fill="#dbbfbf" fill-rule="evenodd" stroke="none"/>
    <path d="M4.5 2.15 L4.6 2.45 4.65 2.5 4.65 2.85 4.55 3.3 4.25 2.4 4.0 1.25 4.5 2.15" fill="#ffffe7" fill-rule="evenodd" stroke="none"/>
    <path d="M3.65 3.5 L3.6 2.25 Q3.6 0.7 3.95 0.0 L4.5 2.15 4.0 1.25 4.25 2.4 4.55 3.3 4.65 2.85 4.65 2.5 4.8 3.15 4.9 3.5 5.0 3.8 4.9 4.0 4.6 4.15 4.0 4.3 3.7 3.95 3.65 3.75 3.65 3.65 3.65 3.5" fill="#e7e7b0" fill-rule="evenodd" stroke="none"/>
    <path d="M5.3 3.1 L7.0 3.5 7.1 3.55 12.15 3.55 10.2 4.15 8.95 4.6 9.45 4.95 M4.3 4.95 L4.1 4.95 Q3.3 4.95 3.3 4.35 3.3 4.0 3.6 3.7 L3.65 3.65 3.65 3.5 0.0 3.55 1.45 4.05 2.85 4.4 3.6 3.7 M2.45 4.95 L2.65 4.6 2.85 4.4 M4.8 3.15 L4.95 3.15 5.3 3.1 M8.7 4.1 L7.35 4.4 Q6.45 4.65 6.35 4.95 M8.95 4.6 L8.85 4.65 8.2 4.95 M4.3 4.95 L4.75 4.85 5.25 4.45" fill="none" stroke="#a36a6a" stroke-linecap="round" stroke-linejoin="round" stroke-width="1"/>
    <path d="M3.65 3.5 L3.6 2.25 Q3.6 0.7 3.95 0.0 L4.5 2.15 4.6 2.45 4.65 2.5 4.8 3.15 4.9 3.5 5.0 3.8 4.9 4.0 4.6 4.15 4.0 4.3 3.7 3.95 3.65 3.75 3.65 3.65" fill="none" stroke="#98986f" stroke-linecap="round" stroke-linejoin="round" stroke-width="1"/>
  </g>
</svg>