<?xml version="1.0" encoding="UTF-8" standalone="no"?>
<svg xmlns:xlink="http://www.w3.org/1999/xlink" height="8.05px" width="9.2px" xmlns="http://www.w3.org/2000/svg">
  <g id="shape0" transform="matrix(1.0, 0.0, 0.0, 1.0, 1, 1)">
    <path d="M7.15 0.1 Q6.65 2.1 5.25 3.65 L3.4 4.85 Q2.15 5.45 1.25 5.45 L1.15 5.45 0.6 5.3 0.4 4.45 Q0.4 4.0 0.85 3.35 L1.25 3.35 Q2.35 3.3 4.0 2.45 6.0 1.45 7.15 0.1" fill="#ffffcc" fill-rule="evenodd" stroke="none"/>
    <path d="M7.2 0.0 L7.15 0.0 7.15 0.1 7.2 0.0 M7.15 0.1 Q6.65 2.1 5.25 3.65 L3.4 4.85 Q2.15 5.45 1.25 5.45 L1.15 5.45 Q1.1 6.05 0.0 6.05 M1.15 5.45 L0.6 5.3 0.4 4.45 Q0.4 4.0 0.85 3.35 L1.25 3.35 Q1.2 2.8 0.35 2.8 M1.25 3.35 Q2.35 3.3 4.0 2.45 6.0 1.45 7.15 0.1" fill="none" stroke="#98986f" stroke-linecap="round" stroke-linejoin="round" stroke-width="1"/>
  </g>
</svg>