<?xml version="1.0" encoding="UTF-8" standalone="no"?>
<svg xmlns:xlink="http://www.w3.org/1999/xlink" height="4.6px" width="6.9px" xmlns="http://www.w3.org/2000/svg">
  <g id="shape0" transform="matrix(1.0, 0.0, 0.0, 1.0, 1, 1)">
    <path d="M3.65 2.0 L3.55 2.0 Q3.15 2.0 3.15 1.4 L3.35 0.75 3.7 0.85 Q4.7 1.1 4.9 1.35 L3.65 2.0 M0.65 0.75 Q1.65 1.0 1.85 1.25 L0.6 1.9 0.5 1.9 Q0.1 1.9 0.1 1.3 L0.3 0.65 0.65 0.75" fill="#ffffcc" fill-rule="evenodd" stroke="none"/>
    <path d="M3.65 2.0 L4.9 1.35 Q4.7 1.1 3.7 0.85 3.45 -0.05 3.05 0.15 M3.65 2.0 L3.05 2.6 M0.6 1.9 L1.85 1.25 Q1.65 1.0 0.65 0.75 0.4 -0.15 0.0 0.05 M0.6 1.9 L0.0 2.5" fill="none" stroke="#98986f" stroke-linecap="round" stroke-linejoin="round" stroke-width="1"/>
  </g>
</svg>