<?xml version="1.0" encoding="UTF-8" standalone="no"?>
<svg xmlns:xlink="http://www.w3.org/1999/xlink" height="6.1px" width="10.05px" xmlns="http://www.w3.org/2000/svg">
  <g id="shape0" transform="matrix(1.0, 0.0, 0.0, 1.0, 1, 1)">
    <path d="M6.95 2.35 Q7.75 1.8 7.95 1.05 8.15 1.55 7.85 3.15 L6.95 2.35 M1.35 0.0 Q1.3 0.85 1.85 1.55 L0.0 1.95 0.0 1.6 Q0.05 1.15 1.35 0.0 M5.4 2.5 L4.4 3.65 3.3 4.1 3.3 2.25 5.4 2.5" fill="#ffffcc" fill-rule="evenodd" stroke="none"/>
    <path d="M6.95 2.35 L7.85 3.15 Q8.15 1.55 7.95 1.05 M1.85 1.55 L0.0 1.95 0.0 1.6 Q0.05 1.15 1.35 0.0 M3.3 2.25 L3.3 4.1 4.4 3.65 5.4 2.5" fill="none" stroke="#98986f" stroke-linecap="round" stroke-linejoin="round" stroke-width="1"/>
  </g>
</svg>