<?xml version="1.0" encoding="UTF-8" standalone="no"?>
<svg xmlns:xlink="http://www.w3.org/1999/xlink" height="9.3px" width="5.95px" xmlns="http://www.w3.org/2000/svg">
  <g id="shape0" transform="matrix(1.0, 0.0, 0.0, 1.0, 1, 1)">
    <path d="M1.45 0.15 L2.0 0.0 Q2.9 0.0 3.5 0.95 L3.95 2.15 Q3.65 2.65 3.65 3.6 3.5 5.7 3.05 6.35 L2.45 7.1 2.2 7.25 Q1.65 7.45 1.4 6.9 L0.9 5.9 0.45 4.75 0.15 3.3 0.0 2.05 Q-0.05 0.8 1.45 0.15 M2.35 2.55 Q2.05 2.6 1.7 2.95 1.35 3.3 1.4 4.2 1.4 5.05 1.9 6.05 2.0 6.3 2.45 6.25 3.05 6.35 3.15 5.0 L3.0 3.1 2.35 2.55 M1.5 5.8 L1.35 5.15 1.2 4.8 Q0.85 4.1 0.9 3.15 0.85 4.1 1.2 4.8 L1.35 5.15 1.5 5.8" fill="#d6baba" fill-rule="evenodd" stroke="none"/>
    <path d="M2.35 2.55 L3.0 3.1 3.15 5.0 Q3.05 6.35 2.45 6.25 2.0 6.3 1.9 6.05 1.4 5.05 1.4 4.2 1.35 3.3 1.7 2.95 2.05 2.6 2.35 2.55" fill="#e9cece" fill-rule="evenodd" stroke="none"/>
    <path d="M3.95 2.15 Q3.65 2.65 3.65 3.6 3.5 5.7 3.05 6.35 M2.45 7.1 L2.2 7.25 Q1.65 7.45 1.4 6.9 L0.9 5.9 0.45 4.75 0.15 3.3 0.0 2.05 Q-0.05 0.8 1.45 0.15 M0.9 3.15 Q0.85 4.1 1.2 4.8 L1.35 5.15 1.5 5.8" fill="none" stroke="#a36a6a" stroke-linecap="round" stroke-linejoin="round" stroke-width="1"/>
  </g>
</svg>