<?xml version="1.0" encoding="UTF-8" standalone="no"?>
<svg xmlns:xlink="http://www.w3.org/1999/xlink" height="5.6px" width="8.45px" xmlns="http://www.w3.org/2000/svg">
  <g id="shape0" transform="matrix(1.0, 0.0, 0.0, 1.0, 1, 1)">
    <path d="M5.8 0.55 L6.25 1.25 6.45 2.0 6.35 2.6 4.75 1.8 5.8 0.55 M1.45 1.2 L0.9 1.6 0.0 2.0 0.0 1.65 Q0.0 0.65 1.25 0.0 L1.5 1.05 1.45 1.2 M2.25 1.95 L4.05 2.1 3.0 3.6 Q2.45 2.7 2.25 1.95" fill="#dbdb95" fill-rule="evenodd" stroke="none"/>
    <path d="M5.8 0.55 L6.25 1.25 6.45 2.0 6.35 2.6 4.75 1.8 M1.25 0.0 Q0.0 0.65 0.0 1.65 L0.0 2.0 0.9 1.6 1.45 1.2 M4.05 2.1 L3.0 3.6 Q2.45 2.7 2.25 1.95" fill="none" stroke="#98986f" stroke-linecap="round" stroke-linejoin="round" stroke-width="1"/>
  </g>
</svg>