<?xml version="1.0" encoding="UTF-8" standalone="no"?>
<svg xmlns:xlink="http://www.w3.org/1999/xlink" height="6.55px" width="4px" xmlns="http://www.w3.org/2000/svg">
  <g id="shape0" transform="matrix(1.0, 0.0, 0.0, 1.0, 1, 1)">
    <path d="M1.4 0.4 L1.15 0.1 1.2 0.0 1.45 0.05 1.5 0.15 1.4 0.4 M0.7 1.15 L0.6 1.05 0.8 0.85 0.95 0.95 0.7 1.15 M0.9 2.25 L0.8 2.35 0.6 2.15 Q0.6 1.85 0.9 1.95 L0.9 2.25 M0.45 2.9 L0.55 2.85 0.55 2.8 0.7 2.95 0.5 3.05 0.45 2.9 M1.3 1.9 L1.25 1.75 1.4 1.6 1.55 1.6 1.6 1.8 1.3 1.9 M1.6 2.5 L1.55 2.45 1.7 2.25 1.8 2.35 1.8 2.45 1.6 2.5 M1.35 3.6 L1.35 3.3 1.45 3.2 1.6 3.3 1.6 3.6 1.35 3.6 M1.95 4.05 Q1.6 4.05 1.6 3.7 L2.0 3.95 1.95 4.05 M0.7 3.75 L0.5 3.8 0.45 3.65 0.55 3.5 0.7 3.7 0.7 3.75 M0.35 4.3 L0.3 4.35 0.05 4.35 0.0 4.2 Q0.0 3.95 0.35 4.05 L0.35 4.3 M1.1 4.25 L1.25 4.5 1.05 4.55 0.95 4.45 1.1 4.25" fill="#c4a0a0" fill-rule="evenodd" stroke="none"/>
  </g>
</svg>