<?xml version="1.0" encoding="UTF-8" standalone="no"?>
<svg xmlns:xlink="http://www.w3.org/1999/xlink" height="13.8px" width="14.65px" xmlns="http://www.w3.org/2000/svg">
  <g id="shape0" transform="matrix(1.0, 0.0, 0.0, 1.0, 1, 1)">
    <path d="M10.8 4.55 L10.8 4.45 10.75 4.4 10.55 4.4 10.55 4.6 10.65 4.65 10.8 4.55 M10.2 4.55 L10.4 4.2 10.0 4.5 9.8 4.5 9.3 4.6 9.25 4.65 9.05 4.6 9.0 4.6 Q8.55 4.65 8.15 5.05 8.25 5.3 8.8 5.6 L8.9 5.45 8.95 5.25 9.2 5.05 9.25 5.1 9.2 5.45 9.3 5.45 9.25 5.55 9.15 5.8 9.55 6.1 9.55 6.0 9.6 5.95 9.85 6.0 9.9 6.1 9.75 6.3 9.95 6.65 10.05 6.85 10.2 6.8 10.2 7.1 10.15 7.1 10.3 7.55 10.35 7.6 10.7 7.4 10.75 7.55 10.7 7.7 10.4 7.7 10.5 7.75 10.5 7.8 10.7 7.95 10.7 8.1 10.95 8.05 10.95 8.0 11.05 8.0 11.65 7.75 11.65 7.8 11.95 7.75 12.0 7.55 11.8 7.5 11.9 7.3 12.05 7.3 12.2 7.1 12.15 7.0 12.0 7.05 12.05 6.6 Q12.05 5.75 11.25 5.15 L11.45 5.15 11.45 5.0 11.25 4.85 11.1 5.05 11.1 5.1 10.2 4.55 M10.2 5.1 L10.0 4.95 10.15 4.8 10.3 4.95 10.2 5.1 M10.5 5.4 L10.5 5.45 10.35 5.35 10.35 5.2 10.55 5.25 10.5 5.4 M10.3 6.1 L10.15 6.15 10.1 6.1 10.1 5.85 10.25 5.85 10.3 6.1 M12.1 6.45 L12.1 6.8 12.25 6.8 12.3 6.75 12.3 6.6 12.15 6.45 12.1 6.45 M10.2 10.45 L10.35 10.3 10.05 10.2 9.85 10.2 9.85 10.3 9.9 10.45 10.2 10.45 M10.55 10.0 L10.45 9.75 10.25 9.9 10.3 10.05 10.55 10.0 M10.9 9.45 L10.85 9.35 10.55 9.3 10.5 9.5 10.55 9.6 10.9 9.45 M11.1 8.55 L11.15 8.7 11.35 8.65 11.45 8.35 11.35 8.3 Q11.1 8.3 11.1 8.55 M10.3 9.15 L10.5 9.05 10.4 8.75 10.2 9.0 10.3 9.15 M10.25 8.0 L10.2 7.9 Q10.0 7.95 9.95 8.15 L9.85 8.15 9.8 8.4 10.0 8.5 10.05 8.45 10.1 8.35 10.1 8.3 10.25 8.0 M9.25 2.6 L8.1 3.65 Q12.7 3.5 12.65 8.35 12.65 9.65 11.05 10.65 9.2 11.85 6.45 11.8 3.35 11.75 1.55 10.15 0.25 8.95 0.1 7.6 -0.3 4.65 1.15 2.6 2.85 0.3 5.6 0.05 L7.15 0.05 Q8.65 0.2 9.3 0.9 10.0 1.65 9.25 2.6 M5.1 6.05 L4.9 6.45 Q4.9 7.5 7.1 7.25 L8.3 7.05 8.4 6.6 Q8.4 6.1 7.6 5.85 L6.65 5.65 5.1 6.05 8.1 3.65 5.1 6.05 M8.65 4.35 L8.5 4.5 8.7 4.55 8.75 4.4 8.65 4.35 M8.75 5.1 Q8.55 5.15 8.5 4.95 L8.5 4.8 8.75 4.9 8.75 5.1 M8.55 5.95 L8.6 6.0 8.8 5.9 8.75 5.85 Q8.7 5.7 8.55 5.95 M9.75 5.05 L9.7 5.2 9.6 5.2 9.55 5.0 9.75 5.05 M3.2 7.45 Q3.05 7.45 3.0 7.6 L3.1 7.65 3.3 7.6 3.3 7.5 3.2 7.45 M4.4 7.5 L4.4 7.7 4.65 7.7 4.7 7.55 4.5 7.5 4.4 7.5 M4.4 6.9 L4.3 6.9 4.35 7.15 4.6 6.95 4.4 6.9 M3.45 8.0 L3.45 7.9 3.75 7.9 3.8 8.0 3.75 8.15 3.5 8.15 3.45 8.0 M3.35 7.8 L3.3 7.9 3.05 7.9 3.15 7.75 2.9 7.7 Q2.4 7.7 2.2 8.6 L2.2 9.0 2.05 8.85 1.9 9.0 2.1 9.15 2.2 9.05 Q2.25 9.5 2.75 10.0 L2.8 10.25 3.05 10.2 3.1 10.25 Q4.2 11.05 6.0 11.25 7.8 11.4 9.3 10.55 10.75 9.7 9.95 8.8 9.75 8.5 9.45 8.35 L9.4 8.2 9.25 8.2 9.2 8.25 9.05 8.2 8.95 7.85 8.75 8.05 8.8 8.15 7.6 8.25 4.7 8.15 3.8 7.9 3.85 7.8 3.6 7.85 3.25 7.75 3.35 7.8 M3.3 8.5 L3.25 8.7 3.1 8.7 3.1 8.3 3.2 8.3 3.3 8.5 M2.6 9.1 L2.4 9.1 2.35 8.95 Q2.35 8.65 2.6 8.75 L2.65 8.9 2.6 9.1 M3.4 9.1 L3.45 9.15 3.45 9.45 3.25 9.45 3.2 9.25 3.4 9.1 M4.3 9.1 L4.25 9.2 4.05 9.05 4.05 8.75 4.15 8.75 4.3 9.1 M2.45 10.55 L2.5 10.6 2.65 10.45 Q2.6 10.3 2.45 10.55 M1.7 8.9 L1.7 8.7 Q1.45 8.7 1.35 8.9 L1.45 8.95 1.7 8.9 M2.0 8.05 L1.95 7.9 1.8 7.9 1.65 8.05 1.75 8.25 1.95 8.2 2.0 8.05 M1.15 8.55 L0.9 8.75 0.95 8.85 1.15 8.85 1.25 8.6 1.15 8.55 M2.5 9.55 L2.75 9.65 2.5 9.65 2.5 9.55 M4.8 10.0 L4.8 9.65 4.95 9.65 5.0 9.7 5.0 9.95 4.95 10.0 4.8 10.0 M3.8 9.85 L3.65 9.75 3.8 9.55 3.95 9.55 3.8 9.85 M3.85 10.45 L3.7 10.45 3.65 10.35 3.7 10.25 3.75 10.25 3.9 10.35 3.85 10.45 M4.85 10.65 L5.05 10.7 5.0 10.85 4.85 10.8 4.85 10.65 M9.95 6.4 L10.0 6.25 10.1 6.25 10.15 6.35 10.1 6.5 10.0 6.5 9.95 6.4 M7.95 7.9 L8.0 8.1 8.25 8.05 8.15 7.85 7.95 7.9 M8.55 7.9 L8.7 7.95 8.75 7.85 8.55 7.8 8.55 7.9 M9.55 7.35 L9.8 7.45 9.9 7.25 9.85 7.15 Q9.55 7.05 9.55 7.35 M9.7 7.6 L9.65 7.55 9.5 7.3 9.45 7.3 9.7 7.6 M9.05 6.6 L9.0 6.55 8.75 6.7 8.8 6.8 9.05 6.6 M9.5 6.65 L9.65 6.7 9.7 6.55 Q9.65 6.4 9.5 6.65 M7.95 8.9 L8.0 8.9 8.15 9.15 7.95 8.9 M8.55 9.25 L8.3 8.95 8.45 8.9 8.55 9.2 8.55 9.25 M8.25 9.2 L8.3 9.35 8.25 9.4 8.15 9.45 8.1 9.3 8.15 9.2 8.25 9.2 M5.55 11.35 L5.7 11.65 5.85 11.55 5.85 11.4 5.7 11.25 5.55 11.35 M6.8 7.8 L6.8 7.9 6.95 7.95 7.0 7.85 6.8 7.8 M5.5 10.85 L5.35 10.75 5.55 10.8 5.5 10.85 M9.85 10.55 Q9.55 10.45 9.55 10.7 L9.6 10.8 9.85 10.75 9.85 10.55 M8.65 10.05 L8.65 10.1 8.5 10.0 8.5 9.85 8.7 9.9 8.65 10.05 M8.7 9.85 L8.7 9.7 8.9 9.75 8.85 9.9 8.7 9.85 M7.9 10.7 L7.7 10.6 7.7 10.5 7.9 10.55 7.95 10.6 7.9 10.7" fill="url(#gradient0)" fill-rule="evenodd" stroke="none"/>
    <path d="M10.8 4.55 L10.65 4.65 10.55 4.6 10.55 4.4 10.75 4.4 10.8 4.45 10.8 4.55 M10.2 4.55 L10.15 4.6 9.95 4.55 10.0 4.5 10.4 4.2 10.2 4.55 M10.7 7.95 L10.7 7.9 10.85 7.9 10.95 7.95 10.95 8.0 10.95 8.05 10.7 8.1 10.7 7.95 M11.65 7.75 L11.6 7.7 11.7 7.55 11.8 7.5 12.0 7.55 11.95 7.75 11.65 7.8 11.65 7.75 M11.9 7.3 L11.85 7.15 Q11.85 7.05 12.0 7.05 L12.15 7.0 12.2 7.1 12.05 7.3 11.9 7.3 M11.25 5.15 L11.15 5.15 11.1 5.1 11.1 5.05 11.25 4.85 11.45 5.0 11.45 5.15 11.25 5.15 M12.1 6.45 L12.15 6.45 12.3 6.6 12.3 6.75 12.25 6.8 12.1 6.8 12.1 6.45 M11.6 6.55 L11.55 6.45 Q11.55 6.3 11.85 6.35 L11.9 6.55 11.8 6.6 11.6 6.55 M10.25 8.0 L10.1 8.3 10.1 8.35 10.05 8.45 10.0 8.5 9.8 8.4 9.85 8.15 9.95 8.15 Q10.0 7.95 10.2 7.9 L10.25 8.0 M10.3 9.15 L10.2 9.0 10.4 8.75 10.5 9.05 10.3 9.15 M11.1 8.55 Q11.1 8.3 11.35 8.3 L11.45 8.35 11.35 8.65 11.15 8.7 11.1 8.55 M10.9 9.45 L10.55 9.6 10.5 9.5 10.55 9.3 10.85 9.35 10.9 9.45 M10.55 10.0 L10.3 10.05 10.25 9.9 10.45 9.75 10.55 10.0 M10.2 10.45 L9.9 10.45 9.85 10.3 9.85 10.2 10.05 10.2 10.35 10.3 10.2 10.45 M8.65 4.35 L8.75 4.4 8.7 4.55 8.5 4.5 8.65 4.35 M8.55 5.95 Q8.7 5.7 8.75 5.85 L8.8 5.9 8.6 6.0 8.55 5.95 M4.4 6.9 L4.6 6.95 4.35 7.15 4.3 6.9 4.4 6.9 M4.4 7.5 L4.5 7.5 4.7 7.55 4.65 7.7 4.4 7.7 4.4 7.5 M3.2 7.45 L3.3 7.5 3.3 7.6 3.1 7.65 3.0 7.6 Q3.05 7.45 3.2 7.45 M3.45 8.0 L3.5 8.15 3.75 8.15 3.8 8.0 3.75 7.9 3.45 7.9 3.45 8.0 M3.35 7.8 L3.25 7.75 3.6 7.85 3.85 7.8 3.8 7.9 4.7 8.15 7.6 8.25 8.8 8.15 8.75 8.05 8.95 7.85 9.05 8.2 9.2 8.25 9.25 8.2 9.4 8.2 9.45 8.35 Q9.75 8.5 9.95 8.8 10.75 9.7 9.3 10.55 7.8 11.4 6.0 11.25 4.2 11.05 3.1 10.25 L3.05 10.2 2.8 10.25 2.75 10.0 Q2.25 9.5 2.2 9.05 L2.1 9.15 1.9 9.0 2.05 8.85 2.2 9.0 2.2 8.6 Q2.4 7.7 2.9 7.7 L3.15 7.75 3.05 7.9 3.3 7.9 3.35 7.8 M4.3 9.1 L4.15 8.75 4.05 8.75 4.05 9.05 4.25 9.2 4.3 9.1 M3.4 9.1 L3.2 9.25 3.25 9.45 3.45 9.45 3.45 9.15 3.4 9.1 M2.6 9.1 L2.65 8.9 2.6 8.75 Q2.35 8.65 2.35 8.95 L2.4 9.1 2.6 9.1 M3.3 8.5 L3.2 8.3 3.1 8.3 3.1 8.7 3.25 8.7 3.3 8.5 M1.15 8.55 L1.25 8.6 1.15 8.85 0.95 8.85 0.9 8.75 1.15 8.55 M2.0 8.05 L1.95 8.2 1.75 8.25 1.65 8.05 1.8 7.9 1.95 7.9 2.0 8.05 M1.7 8.9 L1.45 8.95 1.35 8.9 Q1.45 8.7 1.7 8.7 L1.7 8.9 M2.45 10.55 Q2.6 10.3 2.65 10.45 L2.5 10.6 2.45 10.55 M4.85 10.65 L4.85 10.8 5.0 10.85 5.05 10.7 4.85 10.65 M3.85 10.45 L3.9 10.35 3.75 10.25 3.7 10.25 3.65 10.35 3.7 10.45 3.85 10.45 M3.8 9.85 L3.95 9.55 3.8 9.55 3.65 9.75 3.8 9.85 M4.8 10.0 L4.95 10.0 5.0 9.95 5.0 9.7 4.95 9.65 4.8 9.65 4.8 10.0 M2.5 9.55 L2.5 9.65 2.75 9.65 2.5 9.55 M9.5 6.65 Q9.65 6.4 9.7 6.55 L9.65 6.7 9.5 6.65 M9.05 6.6 L8.8 6.8 8.75 6.7 9.0 6.55 9.05 6.6 M9.7 7.6 L9.45 7.3 9.5 7.3 9.65 7.55 9.7 7.6 M9.55 7.35 Q9.55 7.05 9.85 7.15 L9.9 7.25 9.8 7.45 9.55 7.35 M8.55 7.9 L8.55 7.8 8.75 7.85 8.7 7.95 8.55 7.9 M7.95 7.9 L8.15 7.85 8.25 8.05 8.0 8.1 7.95 7.9 M8.25 9.2 L8.15 9.2 8.1 9.3 8.15 9.45 8.25 9.4 8.3 9.35 8.25 9.2 M8.55 9.25 L8.55 9.2 8.45 8.9 8.3 8.95 8.55 9.25 M7.95 8.9 L8.15 9.15 8.0 8.9 7.95 8.9 M6.8 7.8 L7.0 7.85 6.95 7.95 6.8 7.9 6.8 7.8 M5.55 11.35 L5.7 11.25 5.85 11.4 5.85 11.55 5.7 11.65 5.55 11.35 M5.5 10.85 L5.55 10.8 5.35 10.75 5.5 10.85 M9.85 10.55 L9.85 10.75 9.6 10.8 9.55 10.7 Q9.55 10.45 9.85 10.55 M7.9 10.7 L7.95 10.6 7.9 10.55 7.7 10.5 7.7 10.6 7.9 10.7 M8.7 9.85 L8.85 9.9 8.9 9.75 8.7 9.7 8.7 9.85 M8.65 10.05 L8.7 9.9 8.5 9.85 8.5 10.0 8.65 10.1 8.65 10.05" fill="url(#gradient1)" fill-rule="evenodd" stroke="none"/>
    <path d="M10.0 4.5 L9.95 4.55 10.15 4.6 10.2 4.55 11.1 5.1 11.15 5.15 11.25 5.15 Q12.05 5.75 12.05 6.6 L12.0 7.05 Q11.85 7.05 11.85 7.15 L11.9 7.3 11.8 7.5 11.7 7.55 11.6 7.7 11.65 7.75 11.05 8.0 10.95 8.0 10.95 7.95 10.85 7.9 10.7 7.9 10.7 7.95 10.5 7.8 10.5 7.75 10.4 7.7 10.7 7.7 10.75 7.55 10.7 7.4 10.35 7.6 10.3 7.55 10.15 7.1 10.2 7.1 10.2 6.8 10.05 6.85 9.95 6.65 9.75 6.3 9.9 6.1 9.85 6.0 9.6 5.95 9.55 6.0 9.55 6.1 9.15 5.8 9.25 5.55 9.3 5.45 9.2 5.45 9.25 5.1 9.2 5.05 8.95 5.25 8.9 5.45 8.8 5.6 Q8.25 5.3 8.15 5.05 8.55 4.65 9.0 4.6 L9.05 4.6 9.25 4.65 9.3 4.6 9.8 4.5 10.0 4.5 M10.3 6.1 L10.25 5.85 10.1 5.85 10.1 6.1 10.15 6.15 10.3 6.1 M10.5 5.4 L10.55 5.25 10.35 5.2 10.35 5.35 10.5 5.45 10.5 5.4 M10.2 5.1 L10.3 4.95 10.15 4.8 10.0 4.95 10.2 5.1 M11.6 6.55 L11.8 6.6 11.9 6.55 11.85 6.35 Q11.55 6.3 11.55 6.45 L11.6 6.55 M8.75 5.1 L8.75 4.9 8.5 4.8 8.5 4.95 Q8.55 5.15 8.75 5.1 M9.75 5.05 L9.55 5.0 9.6 5.2 9.7 5.2 9.75 5.05 M9.95 6.4 L10.0 6.5 10.1 6.5 10.15 6.35 10.1 6.25 10.0 6.25 9.95 6.4" fill="url(#gradient2)" fill-rule="evenodd" stroke="none"/>
    <path d="M9.25 2.6 L8.1 3.65 Q12.7 3.5 12.65 8.35 12.65 9.65 11.05 10.65 9.2 11.85 6.45 11.8 3.35 11.75 1.55 10.15 0.25 8.95 0.1 7.6 -0.3 4.65 1.15 2.6 M5.1 6.05 L4.9 6.45 Q4.9 7.5 7.1 7.25 L8.3 7.05 8.4 6.6 Q8.4 6.1 7.6 5.85 L6.65 5.65 5.1 6.05 8.1 3.65" fill="none" stroke="#a36a6a" stroke-linecap="round" stroke-linejoin="round" stroke-width="1"/>
  </g>
  <linearGradient gradientTransform="matrix(0.0041, 0.0, 0.0, 0.0072, 8.7, 5.9)" gradientUnits="userSpaceOnUse" id="gradient0" spreadMethod="pad" x1="-819.2" x2="819.2">
    <stop offset="0.0" stop-color="#d6baba"></stop>
    <stop offset="1.0" stop-color="#eed4d4" stop-opacity="0.9019608"></stop>
  </linearGradient>
  <linearGradient gradientTransform="matrix(-0.0051, -7.0E-4, 2.0E-4, -0.0016, 4.35, 9.15)" gradientUnits="userSpaceOnUse" id="gradient1" spreadMethod="pad" x1="-819.2" x2="819.2">
    <stop offset="0.0" stop-color="#ffffff"></stop>
    <stop offset="1.0" stop-color="#eed4d4" stop-opacity="0.9019608"></stop>
  </linearGradient>
  <linearGradient gradientTransform="matrix(-0.0017, -0.0017, 0.001, -0.001, 9.65, 5.25)" gradientUnits="userSpaceOnUse" id="gradient2" spreadMethod="pad" x1="-819.2" x2="819.2">
    <stop offset="0.0" stop-color="#ffffff"></stop>
    <stop offset="1.0" stop-color="#eed4d4" stop-opacity="0.9019608"></stop>
  </linearGradient>
</svg>