<?xml version="1.0" encoding="UTF-8" standalone="no"?>
<svg xmlns:xlink="http://www.w3.org/1999/xlink" height="9.65px" width="7px" xmlns="http://www.w3.org/2000/svg">
  <g id="shape0" transform="matrix(1.0, 0.0, 0.0, 1.0, 1, 1)">
    <path d="M0.95 5.05 L0.95 5.0 Q0.95 4.7 1.1 4.65 L2.5 6.8 Q0.95 6.4 0.95 5.05" fill="#ffffff" fill-rule="evenodd" stroke="none"/>
    <path d="M0.95 5.05 Q0.95 6.4 2.5 6.8 L1.1 4.65 Q0.95 4.7 0.95 5.0 L0.95 5.05 M2.45 2.75 Q1.6 3.55 1.6 4.55 1.6 5.5 2.45 6.45 3.25 7.45 4.25 7.65 L4.2 7.65 Q2.8 7.65 1.5 6.85 0.0 5.95 0.0 4.5 0.0 3.05 1.25 1.65 2.45 0.3 4.8 0.0 L5.0 2.05 Q3.3 1.9 2.45 2.75" fill="url(#gradient0)" fill-rule="evenodd" stroke="none"/>
    <path d="M2.45 2.75 Q1.6 3.55 1.6 4.55 1.6 5.5 2.45 6.45 3.25 7.45 4.25 7.65 L4.2 7.65 Q2.8 7.65 1.5 6.85 0.0 5.95 0.0 4.5 0.0 3.05 1.25 1.65 2.45 0.3 4.8 0.0 L5.0 2.05 Q3.3 1.9 2.45 2.75 Z" fill="none" stroke="#a36a6a" stroke-linecap="round" stroke-linejoin="round" stroke-width="1"/>
  </g>
  <linearGradient gradientTransform="matrix(-0.0018, 0.0011, -0.0011, -0.0019, 3.55, 2.95)" gradientUnits="userSpaceOnUse" id="gradient0" spreadMethod="pad" x1="-819.2" x2="819.2">
    <stop offset="0.0" stop-color="#d6baba"></stop>
    <stop offset="1.0" stop-color="#eed4d4" stop-opacity="0.9019608"></stop>
  </linearGradient>
</svg>