<?xml version="1.0" encoding="UTF-8" standalone="no"?>
<svg xmlns:xlink="http://www.w3.org/1999/xlink" height="8.3px" width="11.4px" xmlns="http://www.w3.org/2000/svg">
  <g id="shape0" transform="matrix(1.0, 0.0, 0.0, 1.0, 1, 1)">
    <path d="M9.05 0.05 Q9.4 0.4 9.4 1.0 9.4 1.8 8.45 2.75 L8.15 3.05 5.3 3.4 Q3.3 3.95 2.5 4.7 1.7 5.4 1.4 6.3 -0.1 6.35 0.0 4.75 0.1 3.15 1.2 2.1 2.3 1.05 3.75 0.65 L7.15 0.05 9.05 0.05 M3.3 1.2 Q2.9 1.25 2.5 1.5 L1.95 1.8 1.45 2.25 1.1 2.7 Q0.75 3.4 0.75 3.95 0.75 4.35 0.9 4.4 L4.0 1.35 4.0 1.2 3.3 1.2" fill="url(#gradient0)" fill-rule="evenodd" stroke="none"/>
    <path d="M3.3 1.2 L4.0 1.2 4.0 1.35 0.9 4.4 Q0.75 4.35 0.75 3.95 0.75 3.4 1.1 2.7 L1.45 2.25 1.95 1.8 2.5 1.5 Q2.9 1.25 3.3 1.2" fill="#ffffff" fill-rule="evenodd" stroke="none"/>
    <path d="M9.05 0.05 L7.15 0.05 3.75 0.65 Q2.3 1.05 1.2 2.1 0.1 3.15 0.0 4.75 -0.1 6.35 1.4 6.3 1.7 5.4 2.5 4.7 3.3 3.95 5.3 3.4 L8.15 3.05" fill="none" stroke="#a36a6a" stroke-linecap="round" stroke-linejoin="round" stroke-width="1"/>
  </g>
  <linearGradient gradientTransform="matrix(-0.0023, 0.0013, -0.0014, -0.0024, 3.05, 3.4)" gradientUnits="userSpaceOnUse" id="gradient0" spreadMethod="pad" x1="-819.2" x2="819.2">
    <stop offset="0.0" stop-color="#d6baba"></stop>
    <stop offset="1.0" stop-color="#eed4d4" stop-opacity="0.9019608"></stop>
  </linearGradient>
</svg>