<?xml version="1.0" encoding="UTF-8" standalone="no"?>
<svg xmlns:xlink="http://www.w3.org/1999/xlink" height="6.7px" width="10.8px" xmlns="http://www.w3.org/2000/svg">
  <g id="shape0" transform="matrix(1.0, 0.0, 0.0, 1.0, 1, 1)">
    <path d="M8.4 3.6 Q7.95 3.95 6.45 4.3 L3.95 4.7 Q2.45 4.7 1.3 3.95 0.0 3.05 0.0 1.6 0.0 1.15 0.3 0.65 0.7 0.0 1.3 0.0 2.2 0.0 2.2 0.55 L2.0 1.1 1.95 1.05 Q1.95 0.8 1.6 0.8 1.2 0.8 1.2 1.3 1.2 1.9 1.7 2.25 L2.65 2.55 5.7 1.75 6.3 1.55 6.65 1.45 7.8 1.2 8.0 1.25 Q8.75 1.75 8.8 2.4 L8.5 3.45 8.4 3.6 M1.6 2.6 L2.0 3.6 3.15 3.85 Q4.7 3.85 4.5 2.8 L2.4 2.85 1.6 2.6" fill="url(#gradient0)" fill-rule="evenodd" stroke="none"/>
    <path d="M1.6 2.6 L2.4 2.85 4.5 2.8 Q4.7 3.85 3.15 3.85 L2.0 3.6 1.6 2.6" fill="#ffffff" fill-rule="evenodd" stroke="none"/>
    <path d="M7.8 1.2 L6.65 1.45 6.3 1.55 5.7 1.75 2.65 2.55 1.7 2.25 Q1.2 1.9 1.2 1.3 1.2 0.8 1.6 0.8 1.95 0.8 1.95 1.05 L2.0 1.1 2.2 0.55 Q2.2 0.0 1.3 0.0 0.7 0.0 0.3 0.65 0.0 1.15 0.0 1.6 0.0 3.05 1.3 3.95 2.45 4.7 3.95 4.7 L6.45 4.3 Q7.95 3.95 8.4 3.6" fill="none" stroke="#a36a6a" stroke-linecap="round" stroke-linejoin="round" stroke-width="1"/>
  </g>
  <linearGradient gradientTransform="matrix(-0.0023, 0.0013, -0.0014, -0.0024, 5.95, 3.9)" gradientUnits="userSpaceOnUse" id="gradient0" spreadMethod="pad" x1="-819.2" x2="819.2">
    <stop offset="0.0" stop-color="#d6baba"></stop>
    <stop offset="1.0" stop-color="#eed4d4" stop-opacity="0.9019608"></stop>
  </linearGradient>
</svg>