<?xml version="1.0" encoding="UTF-8" standalone="no"?>
<svg xmlns:xlink="http://www.w3.org/1999/xlink" height="34.55px" width="46.8px" xmlns="http://www.w3.org/2000/svg">
  <g transform="matrix(1.0, 0.0, 0.0, 1.0, -0.45, 1)">
    <path d="M39.45 10.85 L44.8 11.8 46.25 12.05 44.8 12.2 39.45 12.75 39.25 12.75 39.45 12.85 39.95 13.3 39.45 12.9 39.15 12.75 39.3 12.5 39.45 10.85 M42.75 16.4 L43.35 17.1 40.75 17.4 39.05 16.55 38.55 16.3 37.55 15.75 38.4 14.2 38.95 14.8 Q39.7 15.55 40.65 15.85 L42.75 16.4 M42.75 19.6 L42.85 19.75 35.95 20.95 36.4 21.6 37.1 22.7 33.0 21.75 33.0 21.85 34.55 23.05 34.45 23.05 30.85 22.65 29.4 22.45 29.35 22.0 29.1 19.35 33.15 20.5 33.65 20.45 Q34.7 20.1 35.85 18.55 L37.25 16.3 38.3 17.25 40.35 18.6 42.75 19.6 M18.25 14.15 L18.35 13.9 18.9 13.0 18.7 13.5 18.7 13.6 22.35 11.0 22.5 10.85 23.4 9.6 23.15 11.0 23.65 10.7 23.3 11.1 22.6 11.9 22.6 12.0 24.5 11.5 27.5 10.3 28.2 9.85 31.5 7.85 34.1 7.35 29.8 9.75 32.3 9.95 32.15 9.95 30.0 10.35 29.4 10.5 28.2 10.9 27.35 11.2 25.8 11.85 Q24.75 12.35 24.4 12.7 L26.9 12.2 28.2 12.0 31.3 11.55 Q32.45 11.4 35.05 10.25 L35.35 10.3 34.7 11.0 34.3 11.4 33.65 11.95 31.2 13.55 30.75 13.7 30.05 13.9 28.8 14.1 29.45 12.7 21.5 14.15 22.65 12.65 20.7 13.3 18.6 14.1 18.25 14.15 M18.15 14.2 L18.2 14.2 18.25 14.25 18.15 14.25 18.15 14.2" fill="#7d938c" fill-rule="evenodd" stroke="none"/>
    <path d="M2.1 17.6 L3.7 16.3 Q5.1 15.35 6.55 14.8 L7.4 15.9 2.1 17.6 M3.0 5.4 L2.9 5.0 Q1.9 1.1 1.8 0.0 L8.35 8.8 10.6 10.4 10.55 10.25 Q10.45 9.9 10.65 8.5 L11.35 6.55 Q11.7 5.7 12.2 5.0 L12.75 4.25 12.9 5.7 Q12.7 6.3 12.55 8.65 L12.25 11.2 Q12.1 11.45 14.35 12.2 L14.4 12.3 14.55 12.45 16.3 13.25 18.1 14.15 18.15 14.2 18.0 14.15 18.15 14.25 18.25 14.25 19.2 14.7 20.0 15.8 16.8 14.7 15.8 14.7 15.8 14.8 Q16.0 15.5 16.35 15.95 L16.1 16.1 Q15.4 15.65 12.3 14.35 9.15 13.05 8.45 12.6 7.75 12.1 5.85 8.85 3.6 4.85 3.0 4.2 L3.0 5.4 M15.15 10.7 L15.75 9.6 16.9 7.65 16.9 10.7 Q16.7 12.5 16.2 12.5 15.8 12.5 15.45 11.75 L15.15 10.7 M35.35 10.3 L35.4 10.15 35.5 10.05 36.05 9.4 37.1 7.95 38.4 5.7 38.5 6.35 Q38.5 7.55 38.1 9.15 37.7 10.95 37.1 11.7 L37.05 11.8 37.0 11.85 34.7 14.75 Q33.7 13.95 33.85 13.0 L34.25 11.6 34.3 11.4 34.25 11.6 33.85 13.0 Q33.7 13.95 34.7 14.75 L34.3 15.15 Q33.7 15.6 31.9 15.7 L31.6 15.7 30.25 15.85 Q28.8 16.0 28.3 15.5 L30.05 13.9 30.75 13.7 31.2 13.55 33.65 11.95 34.3 11.4 34.7 11.0 35.35 10.3 M33.65 11.95 Q33.0 12.7 32.5 13.8 L31.95 15.05 31.9 15.7 31.95 15.05 32.5 13.8 Q33.0 12.7 33.65 11.95 M10.6 10.4 L11.0 10.8 10.6 10.4" fill="#e0c981" fill-rule="evenodd" stroke="none"/>
    <path d="M7.6 23.25 L7.7 22.35 8.05 22.35 11.45 21.5 14.8 20.6 16.25 20.8 Q16.75 21.0 16.75 21.65 16.75 22.15 16.35 22.75 L15.5 23.2 14.25 23.55 12.5 23.1 10.8 23.1 8.65 23.3 7.65 23.25 7.6 23.25 M18.2 14.2 L18.25 14.15 18.6 14.1 20.7 13.3 22.65 12.65 21.5 14.15 29.45 12.7 28.8 14.1 28.2 14.1 28.1 14.1 27.65 14.7 Q27.2 15.4 26.95 16.85 L26.95 17.1 26.85 17.1 25.25 17.4 20.35 18.0 20.05 18.0 20.15 17.85 21.8 17.15 23.3 16.7 23.45 16.75 20.35 15.2 19.2 14.7 18.25 14.25 18.2 14.2 M20.85 21.1 L23.15 20.85 25.2 20.2 Q22.95 21.9 21.8 21.9 L21.55 21.9 21.15 21.55 20.85 21.1 M23.15 22.5 Q23.35 22.2 24.1 21.95 L25.0 21.45 Q25.15 21.9 24.25 22.7 L22.4 24.15 Q22.7 22.95 23.15 22.5 M18.15 14.2 L18.15 14.25 18.0 14.15 18.15 14.2" fill="#c54941" fill-rule="evenodd" stroke="none"/>
    <path d="M19.05 19.7 Q20.45 19.1 23.6 18.85 L23.85 18.85 24.5 18.75 23.85 19.2 22.7 19.8 22.65 19.85 21.45 20.1 19.05 19.7" fill="#ffc100" fill-rule="evenodd" stroke="none"/>
    <path d="M14.4 12.3 L14.45 12.25 15.15 10.7 15.45 11.75 Q15.8 12.5 16.2 12.5 16.7 12.5 16.9 10.7 L16.9 7.65 17.1 7.3 17.45 7.3 17.45 9.35 17.55 11.0 17.95 13.6 18.1 14.15 16.3 13.25 14.55 12.45 14.4 12.3" fill="#c4ab5b" fill-rule="evenodd" stroke="none"/>
    <path d="M24.5 28.4 L24.1 29.85 23.15 28.9 22.15 30.65 21.75 29.05 21.45 29.05 20.7 31.0 19.55 29.5 18.75 30.85 18.05 31.6 17.65 30.35 16.3 31.65 16.15 31.6 Q16.2 31.15 15.85 30.35 15.1 32.0 14.25 32.45 L14.05 31.25 13.7 31.25 10.65 31.3 10.55 32.55 9.85 31.35 9.75 31.05 Q9.45 30.3 9.45 29.75 L13.9 30.05 15.9 28.5 17.8 29.7 22.9 27.45 24.5 28.4 M14.95 19.05 L13.3 18.55 10.15 17.1 9.35 16.65 5.5 17.35 1.45 18.3 2.1 17.6 7.4 15.9 6.55 14.8 6.5 14.75 6.45 14.7 Q5.35 13.75 5.05 12.95 L3.85 8.55 3.0 5.4 3.0 4.2 Q3.6 4.85 5.85 8.85 7.75 12.1 8.45 12.6 9.15 13.05 12.3 14.35 15.4 15.65 16.1 16.1 L16.35 15.95 Q16.0 15.5 15.8 14.8 L15.8 14.7 16.8 14.7 20.0 15.8 19.2 14.7 20.35 15.2 20.5 15.65 Q20.35 16.4 19.15 17.35 L18.75 17.7 17.65 18.55 17.15 18.9 15.75 19.15 14.95 19.05 M12.9 5.7 L12.95 6.2 12.95 6.4 12.9 5.65 13.15 8.1 Q13.5 11.05 14.35 12.2 12.1 11.45 12.25 11.2 L12.55 8.65 Q12.7 6.3 12.9 5.7 M38.4 5.7 L39.1 4.15 Q39.55 5.5 39.55 8.75 L39.45 10.85 39.3 12.5 39.15 12.75 38.4 14.2 37.55 15.75 37.25 16.3 35.85 18.55 Q34.7 20.1 33.65 20.45 L33.15 20.5 29.1 19.35 27.3 18.65 27.15 18.55 27.0 18.0 26.95 17.1 26.95 16.85 Q27.2 15.4 27.65 14.7 L28.1 14.1 28.2 14.1 28.8 14.1 30.05 13.9 28.3 15.5 Q28.8 16.0 30.25 15.85 L31.6 15.7 31.9 15.7 Q31.9 16.9 32.75 17.75 33.35 18.35 34.2 18.55 L35.05 18.65 35.85 18.55 35.05 18.65 34.2 18.55 Q33.35 18.35 32.75 17.75 31.9 16.9 31.9 15.7 33.7 15.6 34.3 15.15 L34.7 14.75 37.0 11.85 37.05 11.8 37.1 11.7 Q37.7 10.95 38.1 9.15 38.5 7.55 38.5 6.35 L38.4 5.7 M35.9 15.45 Q35.15 15.1 34.7 14.75 35.15 15.1 35.9 15.45" fill="#b49e5a" fill-rule="evenodd" stroke="none"/>
    <path d="M39.95 13.3 L42.75 16.4 40.65 15.85 Q39.7 15.55 38.95 14.8 L38.4 14.2 39.15 12.75 39.45 12.9 39.95 13.3 M40.75 17.4 L41.8 18.55 42.75 19.6 40.35 18.6 38.3 17.25 37.25 16.3 37.55 15.75 38.55 16.3 39.05 16.55 40.75 17.4 M18.9 13.0 Q19.5 12.05 20.65 10.75 L20.95 10.4 23.65 7.5 23.4 9.6 22.5 10.85 22.35 11.0 18.7 13.6 18.7 13.5 18.9 13.0 M23.65 10.7 L24.6 10.1 Q25.8 9.4 28.25 8.7 L30.35 8.15 31.5 7.85 28.2 9.85 27.5 10.3 24.5 11.5 22.6 12.0 22.6 11.9 23.3 11.1 23.65 10.7 M32.3 9.95 L35.05 10.25 Q32.45 11.4 31.3 11.55 L28.2 12.0 26.9 12.2 24.4 12.7 Q24.75 12.35 25.8 11.85 L27.35 11.2 28.2 10.9 29.4 10.5 30.0 10.35 32.15 9.95 32.3 9.95" fill="#a4c4ba" fill-rule="evenodd" stroke="none"/>
    <path d="M14.8 20.6 L15.55 20.35 15.75 20.3 17.3 20.1 Q17.65 20.1 18.1 22.05 L16.35 22.75 Q16.75 22.15 16.75 21.65 16.75 21.0 16.25 20.8 L14.8 20.6 M20.85 21.1 L21.15 21.55 21.55 21.9 Q20.1 21.8 19.1 20.8 L20.85 21.1" fill="#e7655d" fill-rule="evenodd" stroke="none"/>
    <path d="M29.4 22.45 Q29.5 24.25 29.75 24.45 L30.75 25.5 31.05 25.9 30.75 25.8 29.25 25.8 25.45 28.85 25.3 28.85 24.5 28.4 22.9 27.45 17.8 29.7 15.9 28.5 13.9 30.05 9.45 29.75 8.15 29.2 7.0 28.7 Q7.4 26.9 7.6 23.25 L7.65 23.25 8.65 23.3 10.8 23.1 12.5 23.1 14.25 23.55 15.5 23.2 16.35 22.75 18.1 22.05 Q17.65 20.1 17.3 20.1 L15.75 20.3 14.95 19.05 15.75 19.15 17.15 18.9 17.65 18.55 18.75 17.7 19.15 17.35 Q20.35 16.4 20.5 15.65 L20.35 15.2 23.45 16.75 23.3 16.7 21.8 17.15 20.15 17.85 20.05 18.0 20.35 18.0 25.25 17.4 26.85 17.1 26.95 17.1 27.0 18.0 27.15 18.55 27.05 18.55 24.5 18.75 27.05 18.55 27.3 18.65 29.1 19.35 29.35 22.0 29.4 22.45 M24.5 18.75 L23.85 18.85 23.6 18.85 Q20.45 19.1 19.05 19.7 L21.45 20.1 22.65 19.85 22.7 19.8 23.85 19.2 24.5 18.75 M21.55 21.9 L21.8 21.9 Q22.95 21.9 25.2 20.2 L23.15 20.85 20.85 21.1 19.1 20.8 Q20.1 21.8 21.55 21.9 M23.15 22.5 Q22.7 22.95 22.4 24.15 L24.25 22.7 Q25.15 21.9 25.0 21.45 L24.1 21.95 Q23.35 22.2 23.15 22.5 M18.5 20.05 L18.85 19.8 19.05 19.7 18.85 19.8 18.5 20.05" fill="#9f3933" fill-rule="evenodd" stroke="none"/>
    <path d="M39.45 10.85 L44.8 11.8 46.25 12.05 44.8 12.2 39.45 12.75 39.25 12.75 39.45 12.85 39.95 13.3 42.75 16.4 43.35 17.1 40.75 17.4 41.8 18.55 42.75 19.6 M42.85 19.75 L35.95 20.95 36.4 21.6 37.1 22.7 33.0 21.75 33.0 21.85 34.55 23.05 34.45 23.05 30.85 22.65 29.4 22.45 M18.25 14.15 L18.35 13.9 18.9 13.0 Q19.5 12.05 20.65 10.75 L20.95 10.4 23.65 7.5 23.4 9.6 23.15 11.0 23.65 10.7 24.6 10.1 Q25.8 9.4 28.25 8.7 L30.35 8.15 31.5 7.85 34.1 7.35 29.8 9.75 32.3 9.95 35.05 10.25 35.35 10.3" fill="none" stroke="#536660" stroke-linecap="round" stroke-linejoin="round" stroke-width="1"/>
    <path d="M7.0 28.7 Q7.4 26.9 7.6 23.25 L7.7 22.35 8.05 22.35 11.45 21.5 14.8 20.6 15.55 20.35 15.75 20.3 14.95 19.05 M24.5 18.75 L23.85 18.85 23.6 18.85 Q20.45 19.1 19.05 19.7 L18.85 19.8 18.5 20.05 M24.5 18.75 L27.05 18.55 M12.5 23.1 L14.25 23.55 M18.1 22.05 Q17.65 20.1 17.3 20.1 L15.75 20.3" fill="none" stroke="#641915" stroke-linecap="round" stroke-linejoin="round" stroke-width="1"/>
    <path d="M14.95 19.05 L13.3 18.55 10.15 17.1 9.35 16.65 5.5 17.35 1.45 18.3 2.1 17.6 3.7 16.3 Q5.1 15.35 6.55 14.8 M6.5 14.75 L6.45 14.7 Q5.35 13.75 5.05 12.95 L3.85 8.55 3.0 5.4 2.9 5.0 Q1.9 1.1 1.8 0.0 L8.35 8.8 10.6 10.4 10.55 10.25 Q10.45 9.9 10.65 8.5 L11.35 6.55 Q11.7 5.7 12.2 5.0 L12.75 4.25 12.9 5.7 12.95 6.2 12.95 6.4 M12.9 5.65 L13.15 8.1 Q13.5 11.05 14.35 12.2 L14.4 12.3 14.45 12.25 15.15 10.7 15.75 9.6 16.9 7.65 17.1 7.3 17.45 7.3 17.45 9.35 17.55 11.0 17.95 13.6 18.1 14.15 18.2 14.2 18.25 14.15 M35.35 10.3 L35.4 10.15 35.5 10.05 36.05 9.4 37.1 7.95 38.4 5.7 39.1 4.15 Q39.55 5.5 39.55 8.75 L39.45 10.85 39.3 12.5 39.15 12.75 38.4 14.2 37.55 15.75 37.25 16.3 35.85 18.55 35.05 18.65 34.2 18.55 Q33.35 18.35 32.75 17.75 31.9 16.9 31.9 15.7 L31.95 15.05 32.5 13.8 Q33.0 12.7 33.65 11.95 L34.3 11.4 34.7 11.0 35.35 10.3 M30.05 13.9 L30.75 13.7 31.2 13.55 33.65 11.95 M34.3 11.4 L34.25 11.6 33.85 13.0 Q33.7 13.95 34.7 14.75 35.15 15.1 35.9 15.45 M26.95 17.1 L26.95 16.85 Q27.2 15.4 27.65 14.7 L28.1 14.1 28.2 14.1 28.8 14.1 30.05 13.9 M27.05 18.55 L27.15 18.55 27.0 18.0 26.95 17.1 M15.75 19.15 L14.95 19.05 M27.05 18.55 L27.3 18.65 27.15 18.55 M27.3 18.65 L29.1 19.35 33.15 20.5 33.65 20.45 Q34.7 20.1 35.85 18.55 M11.0 10.8 L10.6 10.4 M18.2 14.2 L18.15 14.2 18.15 14.25 18.25 14.25 18.2 14.2 M18.15 14.2 L18.1 14.15 16.3 13.25 14.55 12.45 14.4 12.3 M18.15 14.2 L18.0 14.15 18.15 14.25 M19.2 14.7 L18.25 14.25 M20.35 15.2 L19.2 14.7" fill="none" stroke="#8a763a" stroke-linecap="round" stroke-linejoin="round" stroke-width="1"/>
  </g>
</svg>