<?xml version="1.0" encoding="UTF-8" standalone="no"?>
<svg xmlns:xlink="http://www.w3.org/1999/xlink" height="175.25px" width="161.9px" xmlns="http://www.w3.org/2000/svg">
  <g transform="matrix(1.0, 0.0, 0.0, 1.0, 0.3, 39.45)">
    <path d="M36.9 -7.9 Q40.05 -10.35 43.3 -12.65 48.7 -16.75 55.1 -19.0 58.35 -20.2 61.75 -20.95 64.0 -19.9 64.95 -17.5 65.7 -15.5 64.95 -13.75 58.85 0.55 55.1 15.55 L48.6 40.0 48.2 40.95 46.65 43.65 44.35 46.85 Q41.15 50.8 37.0 53.15 27.15 58.9 15.9 59.55 10.95 60.2 6.65 58.45 6.25 58.3 6.1 57.85 5.45 55.7 5.9 53.7 8.55 42.75 12.45 32.0 L17.2 18.95 Q20.75 9.35 26.55 1.15 27.5 -0.15 28.7 -1.25 L36.9 -7.9 M68.5 -4.45 L68.6 -5.8 Q65.95 -3.8 64.6 -0.55 L65.8 0.4 66.85 -0.95 Q68.3 -2.55 68.5 -4.45 M70.35 -8.4 Q71.95 -5.35 70.75 -1.85 68.85 3.55 64.8 7.8 L62.05 10.55 59.2 13.25 Q59.4 3.35 64.45 -5.25 66.1 -8.05 69.25 -8.75 L70.35 -8.4 M121.2 42.6 Q123.15 44.95 124.15 47.8 125.15 50.55 124.05 53.1 123.3 54.75 121.4 55.05 118.1 49.0 114.15 43.6 112.5 41.35 114.35 39.75 118.45 39.15 121.2 42.6 M117.25 43.45 Q116.95 46.05 118.75 47.75 119.85 48.85 121.4 48.9 120.7 46.75 119.6 44.9 119.2 44.15 118.3 43.75 L117.25 43.45 M47.5 21.75 L47.95 20.6 Q47.95 19.95 47.5 19.5 47.0 19.0 46.35 19.0 45.7 19.0 45.25 19.5 44.75 19.95 44.75 20.6 44.75 21.25 45.25 21.75 45.7 22.2 46.35 22.2 L47.5 21.75 M46.35 27.7 L46.2 26.65 40.1 31.75 41.55 32.95 43.0 32.6 Q46.55 31.4 46.35 27.7 M43.45 40.65 L44.1 37.85 Q40.75 37.85 38.4 40.25 L29.6 49.5 Q31.3 51.3 33.85 50.4 37.3 49.2 39.85 47.1 41.7 45.5 43.15 43.6 L43.7 42.45 42.85 42.25 42.7 41.85 43.45 40.65 M75.35 55.8 L76.15 56.0 Q78.15 60.6 74.8 64.05 69.1 69.95 60.65 71.25 55.05 72.1 49.7 70.6 L72.9 56.3 Q74.0 55.6 75.35 55.8 M65.25 68.55 Q69.65 67.05 72.15 63.35 L71.6 62.55 Q65.3 62.65 61.1 67.25 62.55 69.45 65.25 68.55 M140.45 114.3 Q141.65 116.25 141.65 119.0 141.65 121.75 140.45 123.7 139.2 125.65 137.45 125.65 135.7 125.65 134.5 123.7 133.25 121.75 133.25 119.0 133.25 116.25 134.5 114.3 135.7 112.35 137.45 112.35 139.2 112.35 140.45 114.3 M136.9 116.65 Q136.25 116.65 135.8 117.3 135.35 117.95 135.35 118.9 135.35 119.85 135.8 120.5 136.25 121.15 136.9 121.15 137.55 121.15 138.0 120.5 138.45 119.85 138.45 118.9 138.45 117.95 138.0 117.3 137.55 116.65 136.9 116.65" fill="#c54941" fill-rule="evenodd" stroke="none"/>
    <path d="M83.5 37.1 L85.3 37.75 Q92.95 40.2 100.7 38.1 L104.25 36.75 Q109.9 33.95 115.5 36.9 114.5 37.5 113.55 38.2 110.3 40.3 108.25 43.2 107.75 47.9 109.55 52.25 110.6 54.8 112.85 56.5 L114.05 57.85 Q118.55 64.1 122.35 71.1 118.6 68.15 114.65 65.3 108.8 61.05 101.95 58.35 L100.1 57.85 98.75 58.6 90.1 66.65 Q85.5 70.65 79.95 73.25 73.2 76.45 65.65 76.85 58.35 77.35 51.0 76.8 L43.2 75.6 28.4 72.7 Q21.2 71.0 14.5 68.2 15.45 66.75 17.15 66.75 24.2 66.85 30.9 68.3 L46.2 71.9 56.75 74.4 64.05 74.15 Q66.75 73.45 69.55 72.05 L72.05 70.55 Q77.5 65.65 81.3 59.35 83.35 55.9 83.2 52.05 L82.7 45.15 Q82.3 41.15 83.5 37.1 M119.05 37.15 L127.55 35.3 129.0 37.7 131.55 41.25 Q132.6 42.85 131.65 44.45 129.4 48.25 128.75 52.65 128.5 54.25 129.05 55.6 130.45 58.9 132.5 62.0 128.95 68.3 129.5 75.6 130.05 82.9 133.05 89.6 L139.25 103.3 141.15 111.5 141.95 112.85 Q135.5 108.1 132.5 100.8 131.1 97.5 130.05 94.15 128.5 88.95 127.55 83.6 L123.35 67.7 Q123.3 65.3 122.1 63.25 L121.25 61.8 126.85 51.95 126.4 50.3 Q124.2 42.85 119.05 37.15 M76.8 4.4 L86.7 -6.4 85.2 -2.6 Q83.0 3.25 81.1 9.3 79.3 14.95 77.9 20.8 76.7 25.7 76.75 30.8 76.75 34.95 76.35 39.0 76.15 41.15 74.75 43.05 70.5 49.0 64.75 53.7 L62.0 55.5 Q56.95 58.3 51.3 59.35 58.1 55.8 63.4 50.3 65.85 47.8 65.55 44.4 L64.6 36.65 Q63.4 28.7 65.35 21.15 66.3 17.35 67.55 13.65 L69.35 11.75 67.55 13.65 68.1 12.65 69.35 11.75 76.8 4.4 M91.4 45.25 L97.3 44.8 91.4 45.25 M86.0 41.15 L89.75 42.05 Q96.9 43.8 104.1 42.1 96.9 43.8 89.75 42.05 L86.0 41.15 M93.25 54.75 L92.6 56.4 Q91.05 60.05 88.25 62.9 91.05 60.05 92.6 56.4 L93.25 54.75 M102.3 50.25 L102.15 51.45 Q101.55 55.45 98.75 58.6 101.55 55.45 102.15 51.45 L102.3 50.25 M134.0 100.95 L127.55 83.6 134.0 100.95 M73.75 12.15 L73.95 11.65 73.35 11.95 73.75 12.15 M134.3 101.55 L134.75 102.8 Q136.7 107.95 141.15 111.5 136.7 107.95 134.75 102.8 L134.3 101.55" fill="#9f3933" fill-rule="evenodd" stroke="none"/>
    <path d="M22.45 -1.15 Q25.55 -6.5 29.45 -11.05 L38.2 -21.3 Q42.65 -26.5 47.95 -30.65 53.75 -35.25 60.85 -37.45 64.45 -38.4 68.2 -38.45 L71.5 -37.05 Q75.25 -35.35 78.55 -32.85 84.6 -28.25 89.55 -22.6 94.8 -16.65 98.3 -9.65 99.4 -7.5 99.5 -5.1 99.55 -3.85 99.15 -2.75 97.9 0.65 95.4 3.45 93.25 5.8 91.7 8.55 88.2 14.85 86.65 22.0 L83.5 37.1 Q82.3 41.15 82.7 45.15 L83.2 52.05 Q83.35 55.9 81.3 59.35 77.5 65.65 72.05 70.55 L69.55 72.05 Q66.75 73.45 64.05 74.15 L56.75 74.4 46.2 71.9 30.9 68.3 Q24.2 66.85 17.15 66.75 15.45 66.75 14.5 68.2 6.95 66.75 1.95 60.9 0.55 59.25 0.75 57.3 1.2 53.45 2.4 49.8 4.75 42.9 7.35 36.15 L12.7 22.5 18.35 8.5 22.45 -1.15 M115.5 36.9 L119.05 37.15 Q124.2 42.85 126.4 50.3 L126.85 51.95 121.25 61.8 122.1 63.25 Q123.3 65.3 123.35 67.7 L127.55 83.6 Q128.5 88.95 130.05 94.15 131.1 97.5 132.5 100.8 135.5 108.1 141.95 112.85 L142.7 114.3 Q143.85 116.5 144.0 119.05 L146.55 120.85 Q147.75 121.55 149.1 121.85 153.1 122.7 156.6 120.9 L158.6 119.95 160.6 118.95 147.9 132.5 129.6 133.35 126.1 124.8 118.4 119.0 120.5 119.95 Q124.0 115.95 124.75 110.65 125.85 102.95 125.2 95.35 125.0 92.95 123.8 90.85 120.0 84.05 115.9 77.4 112.15 71.25 108.0 65.3 105.3 61.5 101.95 58.35 108.8 61.05 114.65 65.3 118.6 68.15 122.35 71.1 118.55 64.1 114.05 57.85 L112.85 56.5 Q110.6 54.8 109.55 52.25 107.75 47.9 108.25 43.2 110.3 40.3 113.55 38.2 114.5 37.5 115.5 36.9 M127.55 35.3 L139.7 31.3 139.5 39.9 139.3 40.95 134.5 51.05 Q133.8 52.45 133.6 54.0 133.3 56.1 134.05 58.25 134.35 59.15 134.25 60.1 133.45 67.9 131.9 75.2 131.8 75.75 131.95 76.3 L136.05 91.4 139.25 103.3 133.05 89.6 Q130.05 82.9 129.5 75.6 128.95 68.3 132.5 62.0 130.45 58.9 129.05 55.6 128.5 54.25 128.75 52.65 129.4 48.25 131.65 44.45 132.6 42.85 131.55 41.25 L129.0 37.7 127.55 35.3 M36.9 -7.9 L28.7 -1.25 Q27.5 -0.15 26.55 1.15 20.75 9.35 17.2 18.95 L12.45 32.0 Q8.55 42.75 5.9 53.7 5.45 55.7 6.1 57.85 6.25 58.3 6.65 58.45 10.95 60.2 15.9 59.55 27.15 58.9 37.0 53.15 41.15 50.8 44.35 46.85 L46.65 43.65 48.2 40.95 48.6 40.0 55.1 15.55 Q58.85 0.55 64.95 -13.75 65.7 -15.5 64.95 -17.5 64.0 -19.9 61.75 -20.95 58.35 -20.2 55.1 -19.0 48.7 -16.75 43.3 -12.65 40.05 -10.35 36.9 -7.9 M70.35 -8.4 L69.25 -8.75 Q66.1 -8.05 64.45 -5.25 59.4 3.35 59.2 13.25 L62.05 10.55 64.8 7.8 Q68.85 3.55 70.75 -1.85 71.95 -5.35 70.35 -8.4 M70.65 -24.35 Q75.1 -21.05 77.5 -16.2 79.65 -11.9 79.0 -7.1 78.25 -1.3 76.8 4.4 78.25 -1.3 79.0 -7.1 79.65 -11.9 77.5 -16.2 75.1 -21.05 70.65 -24.35 M51.3 59.35 Q56.95 58.3 62.0 55.5 L64.75 53.7 Q70.5 49.0 74.75 43.05 76.15 41.15 76.35 39.0 76.75 34.95 76.75 30.8 76.7 25.7 77.9 20.8 79.3 14.95 81.1 9.3 83.0 3.25 85.2 -2.6 L86.7 -6.4 76.8 4.4 69.35 11.75 68.1 12.65 67.55 13.65 Q66.3 17.35 65.35 21.15 63.4 28.7 64.6 36.65 L65.55 44.4 Q65.85 47.8 63.4 50.3 58.1 55.8 51.3 59.35 L49.6 60.6 Q48.3 61.45 46.95 61.75 41.25 62.0 35.6 60.55 41.25 62.0 46.95 61.75 48.3 61.45 49.6 60.6 L51.3 59.35 M74.25 -28.45 L81.0 -16.7 74.25 -28.45 M121.2 42.6 Q118.45 39.15 114.35 39.75 112.5 41.35 114.15 43.6 118.1 49.0 121.4 55.05 123.3 54.75 124.05 53.1 125.15 50.55 124.15 47.8 123.15 44.95 121.2 42.6 M124.95 75.6 L127.55 83.6 124.95 75.6 M73.75 12.15 L73.35 11.95 73.95 11.65 73.75 12.15 M72.7 3.5 L68.1 12.65 72.7 3.5 M22.6 64.25 L25.8 64.7 22.6 64.25 M75.35 55.8 Q74.0 55.6 72.9 56.3 L49.7 70.6 Q55.05 72.1 60.65 71.25 69.1 69.95 74.8 64.05 78.15 60.6 76.15 56.0 L75.35 55.8 M129.75 106.2 L131.55 112.45 Q131.75 113.35 131.55 114.3 130.6 118.8 128.25 122.9 130.05 127.35 134.75 128.15 137.6 128.45 139.75 126.45 143.05 123.35 144.0 119.05 143.05 123.35 139.75 126.45 137.6 128.45 134.75 128.15 130.05 127.35 128.25 122.9 130.6 118.8 131.55 114.3 131.75 113.35 131.55 112.45 L129.75 106.2 M140.45 114.3 Q139.2 112.35 137.45 112.35 135.7 112.35 134.5 114.3 133.25 116.25 133.25 119.0 133.25 121.75 134.5 123.7 135.7 125.65 137.45 125.65 139.2 125.65 140.45 123.7 141.65 121.75 141.65 119.0 141.65 116.25 140.45 114.3 M128.25 126.15 L126.1 124.8 128.25 126.15" fill="#b3413a" fill-rule="evenodd" stroke="none"/>
    <path d="M68.5 -4.45 Q68.3 -2.55 66.85 -0.95 L65.8 0.4 64.6 -0.55 Q65.95 -3.8 68.6 -5.8 L68.5 -4.45 M117.25 43.45 L118.3 43.75 Q119.2 44.15 119.6 44.9 120.7 46.75 121.4 48.9 119.85 48.85 118.75 47.75 116.95 46.05 117.25 43.45 M43.45 40.65 L42.7 41.85 42.85 42.25 43.7 42.45 43.15 43.6 Q41.7 45.5 39.85 47.1 37.3 49.2 33.85 50.4 31.3 51.3 29.6 49.5 L38.4 40.25 Q40.75 37.85 44.1 37.85 L43.45 40.65 M46.35 27.7 Q46.55 31.4 43.0 32.6 L41.55 32.95 40.1 31.75 46.2 26.65 46.35 27.7 M47.5 21.75 L46.35 22.2 Q45.7 22.2 45.25 21.75 44.75 21.25 44.75 20.6 44.75 19.95 45.25 19.5 45.7 19.0 46.35 19.0 47.0 19.0 47.5 19.5 47.95 19.95 47.95 20.6 L47.5 21.75 M65.25 68.55 Q62.55 69.45 61.1 67.25 65.3 62.65 71.6 62.55 L72.15 63.35 Q69.65 67.05 65.25 68.55 M136.9 116.65 Q137.55 116.65 138.0 117.3 138.45 117.95 138.45 118.9 138.45 119.85 138.0 120.5 137.55 121.15 136.9 121.15 136.25 121.15 135.8 120.5 135.35 119.85 135.35 118.9 135.35 117.95 135.8 117.3 136.25 116.65 136.9 116.65" fill="#e7655d" fill-rule="evenodd" stroke="none"/>
    <path d="M129.6 133.35 L97.95 134.8 99.25 132.4 Q93.1 134.0 86.75 133.8 L86.75 133.35 79.25 133.8 81.8 130.35 Q83.3 130.1 84.6 129.1 89.2 125.6 92.1 120.6 L95.15 121.5 88.85 129.1 90.2 130.55 Q93.4 130.15 95.8 127.9 100.25 123.9 103.65 118.9 L107.65 122.0 101.45 129.1 101.0 130.2 Q106.75 132.95 111.8 128.7 116.45 124.75 117.45 118.65 L118.4 119.0 126.1 124.8 129.6 133.35 M86.75 133.35 L88.85 129.1 86.75 133.35 M99.25 132.4 L101.45 129.1 99.25 132.4" fill="#2e2e2e" fill-rule="evenodd" stroke="none"/>
    <path d="M81.8 130.35 L82.8 128.9 Q86.5 123.6 92.1 120.6 89.2 125.6 84.6 129.1 83.3 130.1 81.8 130.35 M95.15 121.5 L95.95 120.8 Q99.3 117.8 103.65 118.9 100.25 123.9 95.8 127.9 93.4 130.15 90.2 130.55 L88.85 129.1 95.15 121.5 M107.65 122.0 L108.55 121.2 Q112.4 117.7 117.45 118.65 116.45 124.75 111.8 128.7 106.75 132.95 101.0 130.2 L101.45 129.1 107.65 122.0" fill="#515151" fill-rule="evenodd" stroke="none"/>
    <path d="M68.2 -38.45 L71.5 -37.05 Q75.25 -35.35 78.55 -32.85 84.6 -28.25 89.55 -22.6 94.8 -16.65 98.3 -9.65 99.4 -7.5 99.5 -5.1 99.55 -3.85 99.15 -2.75 97.9 0.65 95.4 3.45 93.25 5.8 91.7 8.55 88.2 14.85 86.65 22.0 L83.5 37.1 85.3 37.75 Q92.95 40.2 100.7 38.1 L104.25 36.75 Q109.9 33.95 115.5 36.9 L119.05 37.15 127.55 35.3 139.7 31.3 139.5 39.9 139.3 40.95 134.5 51.05 Q133.8 52.45 133.6 54.0 133.3 56.1 134.05 58.25 134.35 59.15 134.25 60.1 133.45 67.9 131.9 75.2 131.8 75.75 131.95 76.3 L136.05 91.4 139.25 103.3 141.15 111.5 141.95 112.85 142.7 114.3 Q143.85 116.5 144.0 119.05 L146.55 120.85 Q147.75 121.55 149.1 121.85 153.1 122.7 156.6 120.9 L158.6 119.95 160.6 118.95 147.9 132.5 129.6 133.35 97.95 134.8 99.25 132.4 Q93.1 134.0 86.75 133.8 L86.75 133.35 79.25 133.8 81.8 130.35 82.8 128.9 Q86.5 123.6 92.1 120.6 L95.15 121.5 95.95 120.8 Q99.3 117.8 103.65 118.9 L107.65 122.0 108.55 121.2 Q112.4 117.7 117.45 118.65 L118.4 119.0 120.5 119.95 Q124.0 115.95 124.75 110.65 125.85 102.95 125.2 95.35 125.0 92.95 123.8 90.85 120.0 84.05 115.9 77.4 112.15 71.25 108.0 65.3 105.3 61.5 101.95 58.35 L100.1 57.85 98.75 58.6 90.1 66.65 Q85.5 70.65 79.95 73.25 73.2 76.45 65.65 76.85 58.35 77.35 51.0 76.8 L43.2 75.6 28.4 72.7 Q21.2 71.0 14.5 68.2 6.95 66.75 1.95 60.9 0.55 59.25 0.75 57.3 1.2 53.45 2.4 49.8 4.75 42.9 7.35 36.15 L12.7 22.5 18.35 8.5 22.45 -1.15 M76.8 4.4 Q78.25 -1.3 79.0 -7.1 79.65 -11.9 77.5 -16.2 75.1 -21.05 70.65 -24.35 M76.8 4.4 L69.35 11.75 67.55 13.65 Q66.3 17.35 65.35 21.15 63.4 28.7 64.6 36.65 L65.55 44.4 Q65.85 47.8 63.4 50.3 58.1 55.8 51.3 59.35 L49.6 60.6 Q48.3 61.45 46.95 61.75 41.25 62.0 35.6 60.55 M81.0 -16.7 L74.25 -28.45 M97.3 44.8 L91.4 45.25 M83.5 37.1 Q82.3 41.15 82.7 45.15 L83.2 52.05 Q83.35 55.9 81.3 59.35 77.5 65.65 72.05 70.55 M104.1 42.1 Q96.9 43.8 89.75 42.05 L86.0 41.15 M115.5 36.9 Q114.5 37.5 113.55 38.2 110.3 40.3 108.25 43.2 M98.75 58.6 Q101.55 55.45 102.15 51.45 L102.3 50.25 M88.25 62.9 Q91.05 60.05 92.6 56.4 L93.25 54.75 M126.85 51.95 L121.25 61.8 122.1 63.25 Q123.3 65.3 123.35 67.7 M127.55 83.6 L134.0 100.95 M127.55 83.6 L124.95 75.6 M68.1 12.65 L67.55 13.65 M68.1 12.65 L72.7 3.5 M25.8 64.7 L22.6 64.25 M141.15 111.5 Q136.7 107.95 134.75 102.8 L134.3 101.55 M144.0 119.05 Q143.05 123.35 139.75 126.45 137.6 128.45 134.75 128.15 130.05 127.35 128.25 122.9 130.6 118.8 131.55 114.3 131.75 113.35 131.55 112.45 L129.75 106.2 M126.1 124.8 L128.25 126.15 M126.1 124.8 L118.4 119.0 M88.85 129.1 L86.75 133.35 M107.65 122.0 L101.45 129.1 99.25 132.4 M88.85 129.1 L95.15 121.5" fill="none" stroke="#4f0202" stroke-linecap="round" stroke-linejoin="round" stroke-opacity="0.49803922" stroke-width="1"/>
    <path d="M129.6 133.35 L126.1 124.8" fill="none" stroke="#661b16" stroke-linecap="round" stroke-linejoin="round" stroke-width="1"/>
  </g>
</svg>