<?xml version="1.0" encoding="UTF-8" standalone="no"?>
<svg xmlns:xlink="http://www.w3.org/1999/xlink" height="63.65px" width="73.2px" xmlns="http://www.w3.org/2000/svg">
  <g transform="matrix(1.0, 0.0, 0.0, 1.0, 29.05, 5.45)">
    <path d="M22.65 53.5 L22.5 53.55 20.35 55.35 14.15 57.15 Q10.45 57.6 5.4 55.05 -10.7 44.7 -12.5 42.8 -18.3 37.1 -28.0 17.3 -28.25 16.4 -27.1 12.5 -25.55 7.4 -22.1 0.25 -21.55 -1.0 -18.6 -2.3 -15.45 -3.9 -11.45 -4.4 L-10.25 -4.4 -9.0 -4.4 -5.15 2.2 -4.8 2.85 -7.95 0.3 -9.85 -1.55 -10.0 -1.55 -9.2 0.5 -5.7 6.55 -6.05 6.3 -8.95 4.1 Q-9.4 3.0 -10.4 1.75 L-12.35 -0.9 -12.55 -0.85 -12.15 -0.05 -11.9 0.65 -10.85 3.0 -8.85 5.25 -4.85 8.3 -4.15 9.75 Q-3.5 10.55 -2.0 11.15 L3.1 13.05 3.55 13.25 13.45 13.15 15.95 13.55 16.0 13.5 14.9 15.65 14.3 16.3 13.3 15.85 13.9 15.0 Q13.55 14.45 9.85 13.7 L3.5 14.4 3.4 14.4 2.85 14.2 2.75 14.15 -4.5 12.4 -2.6 13.7 1.4 16.95 2.9 17.3 6.5 16.7 8.15 16.7 9.5 16.75 9.55 16.7 11.8 17.25 Q14.95 18.45 19.25 18.75 L19.95 18.9 22.2 20.95 Q23.6 23.4 26.3 25.5 L28.3 26.9 Q31.05 28.6 33.45 29.4 L33.5 29.5 Q32.65 29.55 31.2 29.0 L28.95 28.15 29.1 28.7 29.45 29.8 Q28.35 28.4 25.6 27.3 L22.1 26.1 21.4 25.9 Q19.75 23.8 15.0 21.3 9.7 18.5 6.0 18.3 L10.15 20.2 Q18.15 24.1 19.6 25.5 L14.45 24.45 14.25 24.5 16.8 27.7 Q15.05 27.45 12.65 27.7 10.95 26.0 5.55 22.85 L5.1 22.55 5.7 23.2 Q10.95 26.35 12.05 28.95 14.9 27.65 17.8 28.95 L22.65 34.45 22.65 34.5 27.5 40.0 27.55 40.25 Q26.85 39.4 24.85 38.55 L22.75 37.05 19.25 34.5 Q18.65 33.95 16.4 33.45 L13.6 32.75 8.9 30.45 Q7.4 29.65 5.95 28.6 7.3 30.05 8.8 30.9 L13.05 33.35 15.7 34.15 Q17.7 34.55 18.35 35.05 L22.55 38.3 24.65 39.65 25.95 40.95 19.15 40.35 Q16.65 39.6 14.25 37.9 13.4 37.35 11.6 37.1 L9.3 36.8 5.75 34.7 6.8 35.8 6.15 35.3 4.25 33.65 4.1 33.7 4.1 33.6 4.1 33.95 Q4.35 34.65 7.15 36.85 L8.3 37.25 9.45 38.45 13.5 41.9 Q14.05 42.4 16.7 43.2 18.95 44.0 19.5 44.95 19.95 45.8 21.75 46.55 L19.2 47.15 17.6 46.65 Q15.15 45.5 9.9 41.6 L16.7 48.9 17.6 49.85 Q20.75 52.7 23.2 51.75 L23.4 51.7 Q23.25 52.0 22.35 52.25 L19.7 52.65 16.85 53.0 16.7 53.05 21.25 53.3 22.65 53.5 M38.3 19.3 L40.7 21.35 Q42.3 22.8 43.15 22.85 L35.3 23.25 28.3 23.8 27.25 23.1 25.1 21.75 23.55 20.8 22.8 20.0 21.8 19.1 Q24.45 19.15 27.2 18.45 L28.75 19.45 29.1 19.65 Q30.6 20.35 33.35 20.45 L36.45 20.3 34.75 19.65 32.7 18.45 36.45 18.9 38.3 19.3 M24.8 14.6 L21.75 15.05 25.7 17.55 Q20.65 18.05 16.45 16.95 L15.7 16.75 16.3 16.25 17.25 15.4 Q19.5 13.75 21.65 12.25 L23.1 11.2 24.8 10.0 Q26.8 8.45 29.0 5.9 L30.25 5.45 Q28.5 6.3 26.6 9.9 25.65 11.75 25.2 13.15 L24.8 14.6 M26.9 46.0 L26.55 45.7 23.95 46.0 22.75 45.7 Q20.65 45.2 20.25 44.3 19.85 43.25 17.7 42.55 L14.4 41.55 Q13.05 40.7 10.35 37.85 L10.2 37.65 10.3 37.7 Q13.05 38.1 13.55 38.45 L18.45 40.9 Q21.9 42.15 26.9 41.75 L31.25 45.8 26.9 46.0 M32.4 18.5 L32.6 18.4 32.7 18.45 32.4 18.5" fill="#5c746d" fill-rule="evenodd" stroke="none"/>
    <path d="M22.65 53.5 L21.25 53.3 16.7 53.05 16.85 53.0 19.7 52.65 22.35 52.25 Q23.25 52.0 23.4 51.7 L23.2 51.75 Q20.75 52.7 17.6 49.85 L16.7 48.9 9.9 41.6 Q15.15 45.5 17.6 46.65 L19.2 47.15 21.75 46.55 Q19.95 45.8 19.5 44.95 18.95 44.0 16.7 43.2 14.05 42.4 13.5 41.9 L9.45 38.45 8.3 37.25 7.15 36.85 Q4.35 34.65 4.1 33.95 L4.1 33.6 4.1 33.7 4.25 33.65 6.15 35.3 6.8 35.8 5.75 34.7 9.3 36.8 11.6 37.1 Q13.4 37.35 14.25 37.9 16.65 39.6 19.15 40.35 L25.95 40.95 24.65 39.65 22.55 38.3 18.35 35.05 Q17.7 34.55 15.7 34.15 L13.05 33.35 8.8 30.9 Q7.3 30.05 5.95 28.6 7.4 29.65 8.9 30.45 L13.6 32.75 16.4 33.45 Q18.65 33.95 19.25 34.5 L22.75 37.05 24.85 38.55 Q26.85 39.4 27.55 40.25 L27.5 40.0 22.65 34.5 22.65 34.45 17.8 28.95 Q14.9 27.65 12.05 28.95 10.95 26.35 5.7 23.2 L5.1 22.55 5.55 22.85 Q10.95 26.0 12.65 27.7 15.05 27.45 16.8 27.7 L14.25 24.5 14.45 24.45 19.6 25.5 Q18.15 24.1 10.15 20.2 L6.0 18.3 Q9.7 18.5 15.0 21.3 19.75 23.8 21.4 25.9 L22.1 26.1 25.6 27.3 Q28.35 28.4 29.45 29.8 L29.35 29.3 29.85 30.85 Q30.95 34.7 31.15 37.95 31.3 41.2 31.8 43.05 L32.6 45.85 31.55 45.8 31.25 45.8 26.9 41.75 Q21.9 42.15 18.45 40.9 L13.55 38.45 Q13.05 38.1 10.3 37.7 L10.2 37.65 10.35 37.85 Q13.05 40.7 14.4 41.55 L17.7 42.55 Q19.85 43.25 20.25 44.3 20.65 45.2 22.75 45.7 L23.95 46.0 26.55 45.7 26.9 46.0 26.5 46.9 26.6 47.1 26.25 47.45 26.2 47.5 24.75 50.7 22.65 53.5 M33.45 29.4 Q31.05 28.6 28.3 26.9 L26.3 25.5 Q23.6 23.4 22.2 20.95 L19.95 18.9 19.25 18.75 Q14.95 18.45 11.8 17.25 L9.55 16.7 9.5 16.75 8.15 16.7 6.5 16.7 2.9 17.3 1.4 16.95 -2.6 13.7 -4.5 12.4 2.75 14.15 2.85 14.2 3.4 14.4 3.5 14.4 9.85 13.7 Q13.55 14.45 13.9 15.0 L13.3 15.85 14.3 16.3 14.9 15.65 16.0 13.5 16.05 13.45 17.05 12.75 21.3 9.65 Q21.5 9.4 21.8 9.25 23.8 7.85 27.3 6.5 L29.0 5.9 Q26.8 8.45 24.8 10.0 L23.1 11.2 21.65 12.25 Q19.5 13.75 17.25 15.4 L16.3 16.25 15.7 16.75 16.45 16.95 Q20.65 18.05 25.7 17.55 L21.75 15.05 24.8 14.6 24.85 14.6 24.9 14.55 27.2 14.9 29.4 15.35 30.35 15.5 Q34.25 16.35 36.3 17.9 L38.3 19.3 36.45 18.9 32.7 18.45 34.75 19.65 36.45 20.3 33.35 20.45 Q30.6 20.35 29.1 19.65 L28.75 19.45 27.2 18.45 Q24.45 19.15 21.8 19.1 L22.8 20.0 23.55 20.8 25.1 21.75 27.25 23.1 28.3 23.8 28.1 23.75 29.2 24.55 30.85 26.35 33.45 29.4 M13.45 13.15 L3.55 13.25 3.1 13.05 -2.0 11.15 Q-3.5 10.55 -4.15 9.75 L-4.85 8.3 -8.85 5.25 -10.85 3.0 -11.9 0.65 -12.15 -0.05 -12.55 -0.85 -12.35 -0.9 -10.4 1.75 Q-9.4 3.0 -8.95 4.1 L-6.05 6.3 -5.7 6.55 -9.2 0.5 -10.0 -1.55 -9.85 -1.55 -7.95 0.3 -4.8 2.85 Q-1.0 9.4 -0.05 10.1 L5.15 11.15 10.3 12.0 13.45 13.15 M32.4 18.5 L32.7 18.45 32.6 18.4 32.4 18.5" fill="#71988b" fill-rule="evenodd" stroke="none"/>
    <path d="M-4.8 2.85 L-5.15 2.2 -9.0 -4.4 -10.25 -4.4 -11.45 -4.4 Q-15.45 -3.9 -18.6 -2.3 -21.55 -1.0 -22.1 0.25 -25.55 7.4 -27.1 12.5 -28.25 16.4 -28.0 17.3 -18.3 37.1 -12.5 42.8 -10.7 44.7 5.4 55.05 10.45 57.6 14.15 57.15 L20.35 55.35 22.5 53.55 22.65 53.5 24.75 50.7 26.2 47.5 M29.45 29.8 L29.1 28.7 28.95 28.15 31.2 29.0 Q32.65 29.55 33.5 29.5 L33.45 29.4 30.85 26.35 29.2 24.55 28.1 23.75 28.3 23.8 35.3 23.25 43.15 22.85 Q42.3 22.8 40.7 21.35 L38.3 19.3 36.3 17.9 Q34.25 16.35 30.35 15.5 L29.4 15.35 27.2 14.9 24.9 14.55 24.85 14.6 24.8 14.6 25.2 13.15 Q25.65 11.75 26.6 9.9 28.5 6.3 30.25 5.45 L29.0 5.9 27.3 6.5 Q23.8 7.85 21.8 9.25 21.5 9.4 21.3 9.65 L17.05 12.75 16.05 13.45 16.0 13.5 15.95 13.55 13.45 13.15 10.3 12.0 5.15 11.15 -0.05 10.1 Q-1.0 9.4 -4.8 2.85 M26.9 46.0 L31.25 45.8 31.55 45.8 32.6 45.85 31.8 43.05 Q31.3 41.2 31.15 37.95 30.95 34.7 29.85 30.85 L29.35 29.3 29.1 28.7 M26.5 46.9 L26.9 46.0" fill="none" stroke="#536660" stroke-linecap="round" stroke-linejoin="round" stroke-width="1"/>
  </g>
</svg>