<?xml version="1.0" encoding="UTF-8" standalone="no"?>
<svg xmlns:xlink="http://www.w3.org/1999/xlink" height="54.8px" width="67.35px" xmlns="http://www.w3.org/2000/svg">
  <g transform="matrix(1.0, 0.0, 0.0, 1.0, 2.95, 18.4)">
    <path d="M29.55 11.65 L33.55 15.0 35.0 16.4 37.05 18.9 Q37.05 20.15 36.45 20.85 35.95 21.45 35.3 21.45 33.6 21.45 30.7 18.35 L29.3 16.7 25.5 11.25 27.2 11.25 29.55 11.65 M38.75 30.8 Q43.65 30.7 50.55 31.05 L51.55 31.0 Q54.15 30.85 55.75 30.1 58.1 30.45 58.5 30.95 58.0 32.15 54.75 32.8 L51.7 33.25 50.1 33.3 44.2 32.45 Q39.5 31.5 38.55 30.95 L38.75 30.8 M46.85 18.8 L47.55 18.1 Q49.05 16.85 50.8 16.2 52.55 15.5 54.55 15.5 59.5 15.5 61.3 17.1 62.0 17.75 62.45 18.8 L60.2 18.8 56.9 18.2 49.35 18.8 46.85 18.8 M19.8 30.65 L21.65 27.2 22.95 24.85 23.7 25.0 25.3 25.2 28.35 24.6 30.95 24.6 Q28.45 28.7 27.55 29.4 25.85 30.65 21.1 30.65 L19.8 30.65" fill="#c54941" fill-rule="evenodd" stroke="none"/>
    <path d="M0.05 0.0 Q-4.45 -7.95 1.3 -13.0 6.35 -17.35 15.8 -17.4 25.3 -17.45 30.35 -13.05 36.2 -8.05 31.75 0.25 L28.45 5.95 26.15 9.55 29.55 11.65 27.2 11.25 25.5 11.25 29.3 16.7 30.7 18.35 Q33.6 21.45 35.3 21.45 35.95 21.45 36.45 20.85 37.05 20.15 37.05 18.9 37.65 19.85 37.6 20.45 37.55 21.85 36.75 23.3 L35.7 25.25 34.35 27.8 Q34.65 28.65 35.8 29.8 L37.1 30.85 38.75 30.8 38.55 30.95 Q39.5 31.5 44.2 32.45 L50.1 33.3 51.7 33.25 54.75 32.8 Q58.0 32.15 58.5 30.95 58.1 30.45 55.75 30.1 58.0 29.0 58.1 26.7 58.15 25.75 56.8 23.75 55.3 21.45 53.9 21.45 53.05 21.45 52.15 22.15 L51.15 22.95 48.6 25.1 Q50.3 26.35 51.3 26.35 52.15 26.3 52.55 25.35 53.35 23.25 53.55 23.1 L53.7 22.8 53.85 24.2 53.95 25.55 Q52.7 29.0 51.5 29.0 L51.45 29.0 Q49.35 29.0 46.8 27.7 44.05 26.3 44.1 24.85 44.3 21.35 46.85 18.8 L49.35 18.8 56.9 18.2 60.2 18.8 62.45 18.8 Q63.55 21.4 63.35 26.6 63.0 33.95 60.5 35.1 L59.65 35.4 26.0 35.4 Q24.1 34.8 22.6 33.85 L19.2 31.7 19.8 30.65 21.1 30.65 Q25.85 30.65 27.55 29.4 28.45 28.7 30.95 24.6 L28.35 24.6 25.3 25.2 23.7 25.0 22.95 24.85 23.8 22.75 23.6 22.65 Q21.8 21.7 14.65 16.3 6.8 10.5 6.85 9.75 1.95 3.15 0.05 0.0" fill="url(#gradient0)" fill-rule="evenodd" stroke="none"/>
    <path d="M31.75 0.25 L28.45 5.95 26.15 9.55 29.55 11.65 33.55 15.0 35.0 16.4 37.05 18.9 Q37.65 19.85 37.6 20.45 37.55 21.85 36.75 23.3 L35.7 25.25 34.35 27.8 Q34.65 28.65 35.8 29.8 L37.1 30.85 38.75 30.8 Q43.65 30.7 50.55 31.05 L51.55 31.0 Q54.15 30.85 55.75 30.1 58.0 29.0 58.1 26.7 58.15 25.75 56.8 23.75 55.3 21.45 53.9 21.45 53.05 21.45 52.15 22.15 L51.15 22.95 48.6 25.1 Q50.3 26.35 51.3 26.35 52.15 26.3 52.55 25.35 53.35 23.25 53.55 23.1 L53.7 22.8 53.85 24.2 53.95 25.55 Q52.7 29.0 51.5 29.0 L51.45 29.0 Q49.35 29.0 46.8 27.7 44.05 26.3 44.1 24.85 44.3 21.35 46.85 18.8 L47.55 18.1 Q49.05 16.85 50.8 16.2 52.55 15.5 54.55 15.5 59.5 15.5 61.3 17.1 62.0 17.75 62.45 18.8 63.55 21.4 63.35 26.6 63.0 33.95 60.5 35.1 L59.65 35.4 26.0 35.4 Q24.1 34.8 22.6 33.85 L19.2 31.7 19.8 30.65 21.65 27.2 22.95 24.85 23.8 22.75 23.6 22.65 Q21.8 21.7 14.65 16.3 6.8 10.5 6.85 9.75 1.95 3.15 0.05 0.0" fill="none" stroke="#4f0202" stroke-linecap="round" stroke-linejoin="round" stroke-opacity="0.49803922" stroke-width="1"/>
  </g>
  <defs>
    <linearGradient gradientTransform="matrix(-0.0311, -0.0178, 0.0136, -0.0237, 35.45, 15.35)" gradientUnits="userSpaceOnUse" id="gradient0" spreadMethod="pad" x1="-819.2" x2="819.2">
      <stop offset="0.0" stop-color="#b3413a"></stop>
      <stop offset="1.0" stop-color="#98312b"></stop>
    </linearGradient>
  </defs>
</svg>