<?xml version="1.0" encoding="UTF-8" standalone="no"?>
<svg xmlns:xlink="http://www.w3.org/1999/xlink" height="13.65px" width="17.8px" xmlns="http://www.w3.org/2000/svg">
  <g id="shape0" transform="matrix(1.0, 0.0, 0.0, 1.0, 8.9, 6.8)">
    <path d="M-7.85 5.15 L-5.9 2.75 -5.05 -0.7 -3.55 -0.4 Q-2.6 -0.35 -2.45 -1.15 -2.3 -2.0 -1.6 -2.75 L-0.25 -4.1 0.95 -4.65 2.15 -5.15 3.7 -5.6 6.2 -5.7 7.6 -5.5 7.9 -4.85 7.1 -3.9 Q6.15 -2.55 4.65 -1.8 L3.7 -1.35 -0.9 1.3 -2.2 1.65 Q-3.35 1.7 -3.95 2.7 L-4.35 3.65 -7.85 5.15" fill="#faf8f8" fill-rule="evenodd" stroke="none"/>
    <path d="M-7.85 5.15 L-4.35 3.65 -3.95 2.7 Q-3.35 1.7 -2.2 1.65 L-0.9 1.3 3.7 -1.35 4.65 -1.8 Q6.15 -2.55 7.1 -3.9 L7.9 -4.85 7.9 -3.1 Q7.7 -1.95 7.05 -1.05 L7.0 -0.95 6.4 -0.2 6.35 -0.2 6.4 -0.15 6.05 0.35 5.45 0.7 5.35 0.85 4.6 1.5 3.95 2.0 3.9 2.05 3.7 2.2 2.9 2.75 Q2.2 3.45 1.3 3.45 L-0.7 3.4 Q-1.15 3.45 -1.5 3.65 L-2.85 4.65 -2.9 4.65 -2.85 4.7 -3.55 5.85 -7.45 5.35 -7.9 5.7 -7.85 5.15" fill="#d6baba" fill-rule="evenodd" stroke="none"/>
    <path d="M3.7 -5.6 L2.15 -5.15 0.95 -4.65 -0.25 -4.1 -1.6 -2.75 Q-2.3 -2.0 -2.45 -1.15 -2.6 -0.35 -3.55 -0.4 L-5.05 -0.7 -5.9 2.75 -7.85 5.15 -7.9 5.7 -7.45 5.35 -3.55 5.85 -2.85 4.7 -2.85 4.65 -1.5 3.65 Q-1.15 3.45 -0.7 3.4 L1.3 3.45 Q2.2 3.45 2.9 2.75 L3.7 2.2 3.9 2.05 3.95 2.0 4.6 1.5 5.35 0.85 M7.9 -4.85 L7.9 -3.1 Q7.7 -1.95 7.05 -1.05 L7.0 -0.95 6.4 -0.2 6.4 -0.15 6.05 0.35 M-2.9 4.65 L-2.85 4.65" fill="none" stroke="#a36a6a" stroke-linecap="round" stroke-linejoin="round" stroke-width="1"/>
  </g>
</svg>