<?xml version="1.0" encoding="UTF-8" standalone="no"?>
<svg xmlns:xlink="http://www.w3.org/1999/xlink" height="13.15px" width="16.05px" xmlns="http://www.w3.org/2000/svg">
  <g id="shape0" transform="matrix(1.0, 0.0, 0.0, 1.0, 8.05, 6.55)">
    <path d="M6.7 -5.25 L5.1 -2.85 5.0 -2.75 Q3.55 -1.25 1.55 -0.35 -0.35 0.55 -2.1 1.65 L-3.15 2.35 -2.1 1.9 1.95 0.1 3.05 -0.5 3.4 -0.7 4.05 -1.1 4.0 -1.0 3.9 -0.9 3.75 -0.7 3.65 -0.55 -0.9 1.8 -2.1 2.45 -3.55 3.05 -4.0 3.2 -3.6 3.05 -3.95 2.3 Q-4.4 1.45 -5.0 1.5 L-4.4 2.55 -4.95 1.85 Q-5.55 1.35 -6.05 1.3 L-6.15 1.35 -6.2 1.3 -6.85 3.05 -7.0 2.35 -7.0 1.8 -7.0 1.75 -6.95 1.7 -6.95 1.65 -6.35 0.85 -6.25 0.75 -5.7 0.5 -5.0 -0.65 Q-3.35 -2.95 -0.65 -4.1 L0.05 -4.4 1.25 -4.9 2.8 -5.35 5.3 -5.45 6.7 -5.25 M-4.25 2.85 L-4.2 2.9 -4.1 3.25 -4.15 3.25 -4.25 2.85" fill="#faf8f8" fill-rule="evenodd" stroke="none"/>
    <path d="M-3.55 3.05 L-2.1 2.45 -0.9 1.8 3.65 -0.55 3.75 -0.7 3.9 -0.9 4.0 -1.0 4.05 -1.1 3.4 -0.7 3.05 -0.5 1.95 0.1 -2.1 1.9 -3.15 2.35 -2.1 1.65 Q-0.35 0.55 1.55 -0.35 3.55 -1.25 5.0 -2.75 L5.1 -2.85 6.7 -5.25 7.0 -4.6 7.0 -2.85 Q6.8 -1.7 6.15 -0.8 L6.1 -0.7 5.5 0.05 5.45 0.05 5.5 0.1 5.15 0.6 4.55 0.95 4.45 1.1 3.7 1.75 3.05 2.25 3.0 2.3 0.45 3.75 Q-0.75 4.4 -2.1 4.7 L-3.4 4.9 -3.35 4.7 Q-3.2 3.75 -3.55 3.05 -3.2 3.75 -3.35 4.7 L-3.4 4.9 Q-3.95 5.5 -4.8 5.6 L-5.05 5.55 Q-6.25 4.85 -6.7 3.5 L-6.85 3.05 -6.2 1.3 -6.15 1.35 -6.2 1.35 -6.45 2.15 -6.45 2.25 -5.85 4.1 Q-5.35 5.0 -4.45 4.95 L-4.3 4.75 Q-4.1 4.1 -4.15 3.25 L-4.1 3.25 -4.2 2.9 -4.25 2.85 -4.35 2.65 -4.4 2.55 -5.0 1.5 Q-4.4 1.45 -3.95 2.3 L-3.6 3.05 -4.0 3.2 -3.55 3.05 M-5.7 0.5 L-6.25 0.75 -5.7 0.5" fill="#d6baba" fill-rule="evenodd" stroke="none"/>
    <path d="M-6.15 1.35 L-6.05 1.3 Q-5.55 1.35 -4.95 1.85 L-4.4 2.55 -4.35 2.65 -4.25 2.85 -4.15 3.25 Q-4.1 4.1 -4.3 4.75 L-4.45 4.95 Q-5.35 5.0 -5.85 4.1 L-6.45 2.25 -6.45 2.15 -6.2 1.35 -6.15 1.35" fill="#775555" fill-rule="evenodd" stroke="none"/>
    <path d="M2.8 -5.35 L1.25 -4.9 0.05 -4.4 -0.65 -4.1 Q-3.35 -2.95 -5.0 -0.65 L-5.7 0.5 -6.25 0.75 -6.35 0.85 -6.95 1.65 -6.95 1.7 -7.0 1.75 -7.0 1.8 -7.0 2.35 -6.85 3.05 -6.7 3.5 Q-6.25 4.85 -5.05 5.55 L-4.8 5.6 Q-3.95 5.5 -3.4 4.9 L-2.1 4.7 Q-0.75 4.4 0.45 3.75 L3.0 2.3 3.05 2.25 3.7 1.75 4.45 1.1 M-6.15 1.35 L-6.05 1.3 Q-5.55 1.35 -4.95 1.85 L-4.4 2.55 -4.35 2.65 -4.25 2.85 -4.15 3.25 Q-4.1 4.1 -4.3 4.75 L-4.45 4.95 Q-5.35 5.0 -5.85 4.1 L-6.45 2.25 -6.45 2.15 -6.2 1.35 -6.15 1.35 M-3.55 3.05 Q-3.2 3.75 -3.35 4.7 L-3.4 4.9 M5.15 0.6 L5.5 0.1 5.5 0.05 6.1 -0.7 6.15 -0.8 Q6.8 -1.7 7.0 -2.85 L7.0 -4.6" fill="none" stroke="#a36a6a" stroke-linecap="round" stroke-linejoin="round" stroke-width="1"/>
  </g>
</svg>