<?xml version="1.0" encoding="UTF-8" standalone="no"?>
<svg xmlns:xlink="http://www.w3.org/1999/xlink" height="5.3px" width="8.85px" xmlns="http://www.w3.org/2000/svg">
  <g id="shape0" transform="matrix(1.0, 0.0, 0.0, 1.0, 4.45, 2.65)">
    <path d="M2.85 -0.7 L3.15 -0.25 3.4 0.3 3.35 1.2 Q2.65 1.7 1.75 1.65 L0.75 1.3 -0.6 0.8 -2.45 0.65 -3.35 0.8 -3.45 0.5 -3.4 0.0 -3.35 -0.1 -3.1 -0.8 -2.7 -1.25 -2.4 -1.45 -2.0 -1.6 -1.85 -1.6 -1.55 -1.65 -1.45 -1.6 1.1 -1.45 Q2.05 -1.4 2.85 -0.7" fill="#d6baba" fill-rule="evenodd" stroke="none"/>
    <path d="M2.85 -0.7 Q2.05 -1.4 1.1 -1.45 L-1.45 -1.6 -1.55 -1.65 -1.85 -1.6 -2.0 -1.6 -2.4 -1.45 -2.7 -1.25 -3.1 -0.8 -3.35 -0.1 -3.4 0.0 -3.45 0.5 -3.35 0.8 -2.45 0.65 -0.6 0.8 0.75 1.3 1.75 1.65 Q2.65 1.7 3.35 1.2 L3.4 0.3 3.15 -0.25 2.85 -0.7 Z" fill="none" stroke="#a36a6a" stroke-linecap="round" stroke-linejoin="round" stroke-width="1"/>
  </g>
</svg>