<?xml version="1.0" encoding="UTF-8" standalone="no"?>
<svg xmlns:xlink="http://www.w3.org/1999/xlink" height="9.1px" width="10.4px" xmlns="http://www.w3.org/2000/svg">
  <g transform="matrix(1.0, 0.0, 0.0, 1.0, 6.8, 4.45)">
    <path d="M-1.3 1.2 Q-0.75 1.2 -0.4 1.45 -0.3 1.7 -0.55 1.7 L-1.7 1.35 Q-1.7 1.2 -1.3 1.2 M-1.6 2.2 Q-1.1 2.2 -1.1 2.6 L-1.2 2.65 -1.45 2.55 -1.9 2.5 -1.95 2.45 -1.95 2.2 -1.6 2.2 M-3.65 1.35 L-3.7 1.2 Q-3.7 1.0 -3.15 1.0 -2.85 1.0 -2.8 1.15 L-2.9 1.35 -3.65 1.35 M-4.35 2.55 L-4.4 2.6 -5.3 2.6 -5.35 2.45 -4.65 2.25 Q-4.25 2.25 -4.35 2.55 M-2.6 2.15 L-2.95 2.15 -3.55 2.05 -3.5 1.8 -3.05 1.8 Q-2.6 1.8 -2.6 2.15 M-4.85 3.6 L-4.9 3.65 -5.75 3.65 -5.8 3.6 -5.8 3.35 -5.2 3.35 Q-4.95 3.35 -4.85 3.5 L-4.85 3.6 M-2.95 3.35 L-3.15 3.5 -3.95 3.3 -4.0 3.2 -3.0 3.25 -2.95 3.35" fill="#6a4968" fill-rule="evenodd" stroke="none"/>
    <path d="M-3.0 -0.3 L-3.15 -0.5 -3.35 -0.8 Q-3.6 -1.4 -3.15 -1.9 L-2.7 -2.05 Q-2.1 -2.2 -1.65 -1.8 L-1.45 -1.55 -1.3 -1.15 -1.3 -0.8 Q-1.4 -0.4 -1.85 -0.2 L-2.15 -0.1 -2.35 -0.1 -2.7 -0.55 -2.7 -1.05 -2.55 -1.55 -3.0 -1.5 -3.1 -0.75 -3.0 -0.3" fill="#ffffcc" fill-rule="evenodd" stroke="none"/>
    <path d="M-3.0 -0.3 L-3.1 -0.75 -3.0 -1.5 -2.55 -1.55 -2.7 -1.05 -2.7 -0.55 -2.35 -0.1 -2.45 -0.1 -3.0 -0.3" fill="#660000" fill-rule="evenodd" stroke="none"/>
    <path d="M-2.35 -0.1 L-2.15 -0.1 -1.85 -0.2 Q-1.4 -0.4 -1.3 -0.8 L-1.3 -1.15 -1.45 -1.55 -1.65 -1.8 Q-2.1 -2.2 -2.7 -2.05 L-3.15 -1.9 Q-3.6 -1.4 -3.35 -0.8 L-3.15 -0.5 -3.0 -0.3 -2.45 -0.1 -2.35 -0.1 Z" fill="none" stroke="#a36a6a" stroke-linecap="round" stroke-linejoin="round" stroke-width="1"/>
    <path d="M-2.55 -1.65 L-2.7 -1.85 -2.9 -2.15 Q-3.15 -2.75 -2.7 -3.25 L-2.25 -3.4 Q-1.65 -3.55 -1.2 -3.15 L-1.0 -2.9 -0.85 -2.5 -0.85 -2.15 Q-0.95 -1.75 -1.4 -1.55 L-1.7 -1.45 -1.9 -1.45 -2.25 -1.9 -2.25 -2.4 -2.1 -2.9 -2.55 -2.85 -2.65 -2.1 -2.55 -1.65" fill="#ffffcc" fill-rule="evenodd" stroke="none"/>
    <path d="M-2.55 -1.65 L-2.65 -2.1 -2.55 -2.85 -2.1 -2.9 -2.25 -2.4 -2.25 -1.9 -1.9 -1.45 -2.0 -1.45 -2.55 -1.65" fill="#660000" fill-rule="evenodd" stroke="none"/>
    <path d="M-1.9 -1.45 L-1.7 -1.45 -1.4 -1.55 Q-0.95 -1.75 -0.85 -2.15 L-0.85 -2.5 -1.0 -2.9 -1.2 -3.15 Q-1.65 -3.55 -2.25 -3.4 L-2.7 -3.25 Q-3.15 -2.75 -2.9 -2.15 L-2.7 -1.85 -2.55 -1.65 -2.0 -1.45 -1.9 -1.45 Z" fill="none" stroke="#a36a6a" stroke-linecap="round" stroke-linejoin="round" stroke-width="1"/>
    <path d="M-1.3 -0.35 L-1.5 -0.6 -1.7 -0.9 Q-2.0 -1.65 -1.5 -2.2 L-1.0 -2.4 Q-0.3 -2.55 0.25 -2.1 L0.5 -1.75 0.65 -1.35 0.65 -0.9 Q0.55 -0.45 0.05 -0.2 L-0.3 -0.15 -0.55 -0.1 -0.95 -0.65 -0.95 -1.2 -0.8 -1.8 Q-1.1 -2.25 -1.3 -1.7 L-1.4 -0.9 -1.3 -0.35" fill="#ffffcc" fill-rule="evenodd" stroke="none"/>
    <path d="M-1.3 -0.35 L-1.4 -0.9 -1.3 -1.7 Q-1.1 -2.25 -0.8 -1.8 L-0.95 -1.2 -0.95 -0.65 -0.55 -0.1 -0.7 -0.1 Q-1.1 -0.1 -1.3 -0.35" fill="#660000" fill-rule="evenodd" stroke="none"/>
    <path d="M-0.55 -0.1 L-0.3 -0.15 0.05 -0.2 Q0.55 -0.45 0.65 -0.9 L0.65 -1.35 0.5 -1.75 0.25 -2.1 Q-0.3 -2.55 -1.0 -2.4 L-1.5 -2.2 Q-2.0 -1.65 -1.7 -0.9 L-1.5 -0.6 -1.3 -0.35 Q-1.1 -0.1 -0.7 -0.1 L-0.55 -0.1 Z" fill="none" stroke="#a36a6a" stroke-linecap="round" stroke-linejoin="round" stroke-width="1"/>
    <path d="M-0.5 -1.65 L-0.6 -2.1 -0.5 -2.85 -0.05 -2.9 -0.2 -2.4 -0.2 -1.9 0.15 -1.45 0.05 -1.45 -0.5 -1.65" fill="#660000" fill-rule="evenodd" stroke="none"/>
    <path d="M-0.5 -1.65 L-0.65 -1.85 -0.85 -2.15 Q-1.1 -2.75 -0.65 -3.25 L-0.2 -3.4 Q0.4 -3.55 0.85 -3.15 L1.05 -2.9 1.2 -2.5 1.2 -2.15 Q1.1 -1.75 0.65 -1.55 L0.35 -1.45 0.15 -1.45 -0.2 -1.9 -0.2 -2.4 -0.05 -2.9 -0.5 -2.85 -0.6 -2.1 -0.5 -1.65" fill="#ffffcc" fill-rule="evenodd" stroke="none"/>
    <path d="M0.15 -1.45 L0.35 -1.45 0.65 -1.55 Q1.1 -1.75 1.2 -2.15 L1.2 -2.5 1.05 -2.9 0.85 -3.15 Q0.4 -3.55 -0.2 -3.4 L-0.65 -3.25 Q-1.1 -2.75 -0.85 -2.15 L-0.65 -1.85 -0.5 -1.65 0.05 -1.45 0.15 -1.45 Z" fill="none" stroke="#a36a6a" stroke-linecap="round" stroke-linejoin="round" stroke-width="1"/>
    <path d="M0.65 0.2 L0.45 -0.05 0.25 -0.35 Q-0.05 -1.1 0.45 -1.65 L0.95 -1.85 Q1.65 -2.0 2.2 -1.55 L2.45 -1.2 2.6 -0.8 2.6 -0.35 Q2.5 0.1 2.0 0.35 L1.65 0.4 1.4 0.45 1.0 -0.1 1.0 -0.65 1.15 -1.25 Q0.85 -1.7 0.65 -1.15 L0.55 -0.35 0.65 0.2" fill="#ffffcc" fill-rule="evenodd" stroke="none"/>
    <path d="M0.65 0.2 L0.55 -0.35 0.65 -1.15 Q0.85 -1.7 1.15 -1.25 L1.0 -0.65 1.0 -0.1 1.4 0.45 1.25 0.45 0.65 0.2" fill="#660000" fill-rule="evenodd" stroke="none"/>
    <path d="M1.4 0.45 L1.65 0.4 2.0 0.35 Q2.5 0.1 2.6 -0.35 L2.6 -0.8 2.45 -1.2 2.2 -1.55 Q1.65 -2.0 0.95 -1.85 L0.45 -1.65 Q-0.05 -1.1 0.25 -0.35 L0.45 -0.05 0.65 0.2 1.25 0.45 1.4 0.45 Z" fill="none" stroke="#a36a6a" stroke-linecap="round" stroke-linejoin="round" stroke-width="1"/>
  </g>
</svg>