<?xml version="1.0" encoding="UTF-8" standalone="no"?>
<svg xmlns:xlink="http://www.w3.org/1999/xlink" height="12.9px" width="17.35px" xmlns="http://www.w3.org/2000/svg">
  <g id="shape0" transform="matrix(1.0, 0.0, 0.0, 1.0, 8.7, 6.45)">
    <path d="M1.3 -1.3 L3.15 -2.1 4.4 -2.85 7.65 -5.45 Q7.15 -3.9 6.25 -2.6 5.1 -0.9 3.55 0.45 0.6 3.0 -2.85 4.9 L-5.1 5.0 Q-6.55 4.7 -7.3 3.3 -8.05 1.85 -7.35 -0.8 L-2.8 -0.8 -2.35 -0.8 -1.85 -0.8 -1.35 -0.8 -0.85 -0.8 -0.45 -0.8 -0.35 -0.8 0.7 -1.05 1.15 -1.25 1.2 -1.25 1.3 -1.3" fill="#d6baba" fill-rule="evenodd" stroke="none"/>
    <path d="M1.2 -1.25 L1.35 -1.35 1.3 -1.3 1.2 -1.25" fill="#faf8f8" fill-rule="evenodd" stroke="none"/>
    <path d="M1.3 -1.3 L3.15 -2.1 4.4 -2.85 7.65 -5.45 Q7.15 -3.9 6.25 -2.6 5.1 -0.9 3.55 0.45 0.6 3.0 -2.85 4.9 L-5.1 5.0 M-7.35 -0.8 L-2.8 -0.8 M-2.35 -0.8 L-1.85 -0.8 M-1.35 -0.8 L-0.85 -0.8 M-0.45 -0.8 L-0.35 -0.8 0.7 -1.05 1.15 -1.25 1.2 -1.25 1.3 -1.3" fill="none" stroke="#a36a6a" stroke-linecap="round" stroke-linejoin="round" stroke-width="1"/>
  </g>
</svg>