<?xml version="1.0" encoding="UTF-8" standalone="no"?>
<svg xmlns:xlink="http://www.w3.org/1999/xlink" height="15.45px" width="17.35px" xmlns="http://www.w3.org/2000/svg">
  <g transform="matrix(1.0, 0.0, 0.0, 1.0, 2.25, 5.5)">
    <path d="M-1.25 -0.5 L-0.85 -0.5 -0.6 -0.4 1.05 -0.2 2.15 -0.05 3.0 0.0 3.85 0.1 5.7 0.2 7.6 0.15 8.25 0.1 9.7 -0.15 10.1 -0.25 Q11.9 -0.6 12.4 -2.4 L12.55 -2.45 13.5 -2.2 13.85 -2.1 13.85 -1.9 13.6 -0.55 13.5 -0.45 13.3 0.55 12.5 0.9 Q11.6 1.25 11.05 2.0 L9.8 3.5 9.75 3.5 8.55 4.95 8.3 5.4 7.75 6.4 7.35 7.15 7.25 7.3 Q7.45 6.35 7.8 5.75 8.6 3.85 9.55 2.65 L11.05 1.1 11.15 0.95 11.5 0.7 Q11.7 0.45 10.8 0.5 L10.05 0.65 8.85 0.75 6.0 0.95 4.55 1.0 2.7 0.7 0.9 0.25 -1.0 0.0 -1.05 -0.05 -1.25 -0.5" fill="#60676c" fill-rule="evenodd" stroke="none"/>
    <path d="M12.55 -2.45 L12.6 -2.55 12.65 -2.85 12.75 -3.3 12.8 -3.8 12.9 -4.5 13.45 -3.65 13.55 -3.45 13.7 -2.75 13.5 -2.2 12.55 -2.45" fill="#ffffcc" fill-rule="evenodd" stroke="none"/>
    <path d="M13.3 0.55 L13.3 1.05 13.4 2.05 13.6 3.45 14.1 5.2 11.95 5.15 11.85 5.1 10.8 5.25 9.0 5.75 8.7 5.9 7.75 6.4 8.3 5.4 8.55 4.95 9.75 3.5 9.8 3.5 11.05 2.0 Q11.6 1.25 12.5 0.9 L13.3 0.55 M6.85 6.9 Q6.0 5.05 4.45 3.4 3.0 1.9 1.25 0.8 L1.75 0.9 3.55 1.1 5.2 1.2 6.95 1.3 8.65 1.2 9.85 1.0 9.8 1.05 8.75 2.75 8.6 3.05 8.05 4.1 Q7.65 4.7 7.4 5.35 L7.2 5.7 6.85 6.9" fill="#a48f8e" fill-rule="evenodd" stroke="none"/>
    <path d="M7.25 7.3 L7.2 7.45 Q6.75 8.1 6.7 8.8 L6.65 8.9 6.65 8.95 6.5 8.35 6.7 7.35 6.8 7.15 Q6.75 7.0 6.85 6.9 L7.2 5.7 7.4 5.35 Q7.65 4.7 8.05 4.1 L8.6 3.05 8.75 2.75 9.8 1.05 9.85 1.0 8.65 1.2 6.95 1.3 5.2 1.2 3.55 1.1 1.75 0.9 1.25 0.8 0.4 0.65 -0.15 0.5 -0.25 0.5 -0.85 0.25 -1.0 0.0 0.9 0.25 2.7 0.7 4.55 1.0 6.0 0.95 8.85 0.75 10.05 0.65 10.8 0.5 Q11.7 0.45 11.5 0.7 L11.15 0.95 11.05 1.1 9.55 2.65 Q8.6 3.85 7.8 5.75 7.45 6.35 7.25 7.3 M9.85 1.0 L10.05 0.65 9.85 1.0" fill="#593e37" fill-rule="evenodd" stroke="none"/>
    <path d="M-1.25 -0.5 L-0.85 -0.5 -0.6 -0.4 1.05 -0.2 2.15 -0.05 3.0 0.0 3.85 0.1 5.7 0.2 7.6 0.15 8.25 0.1 9.7 -0.15 10.1 -0.25 Q11.9 -0.6 12.4 -2.4 L12.55 -2.45 12.6 -2.55 12.65 -2.85 12.75 -3.3 12.8 -3.8 12.9 -4.5 13.45 -3.65 13.55 -3.45 13.7 -2.75 13.5 -2.2 13.85 -2.1 13.85 -1.9 13.6 -0.55 M14.1 5.2 L11.95 5.15 11.85 5.1 10.8 5.25 9.0 5.75 8.7 5.9 7.75 6.4 7.35 7.15 7.25 7.3 7.2 7.45 Q6.75 8.1 6.7 8.8 L6.65 8.9 6.65 8.95 6.5 8.35 6.7 7.35 6.8 7.15 Q6.75 7.0 6.85 6.9 6.0 5.05 4.45 3.4 3.0 1.9 1.25 0.8 L0.4 0.65 -0.15 0.5 -0.25 0.5 -0.85 0.25 M12.55 -2.45 L13.5 -2.2 M10.05 0.65 L9.85 1.0 8.65 1.2 6.95 1.3 5.2 1.2 3.55 1.1 1.75 0.9 1.25 0.8 M9.8 1.05 L8.75 2.75 8.6 3.05 8.05 4.1 Q7.65 4.7 7.4 5.35 L7.2 5.7 6.85 6.9 M13.3 0.55 L12.5 0.9 Q11.6 1.25 11.05 2.0 L9.8 3.5 9.75 3.5 8.55 4.95 8.3 5.4 7.75 6.4" fill="none" stroke="#660000" stroke-linecap="round" stroke-linejoin="round" stroke-opacity="0.4" stroke-width="1"/>
  </g>
</svg>