<?xml version="1.0" encoding="UTF-8" standalone="no"?>
<svg xmlns:xlink="http://www.w3.org/1999/xlink" height="13.55px" width="21.05px" xmlns="http://www.w3.org/2000/svg">
  <g transform="matrix(1.0, 0.0, 0.0, 1.0, 1.65, 5.1)">
    <path d="M-0.5 -3.15 L0.05 -3.2 1.9 -3.7 6.65 -3.85 Q8.85 -3.3 10.8 -2.25 L14.55 0.2 Q16.4 1.6 17.15 2.95 L17.8 3.95 16.95 3.1 14.65 1.2 Q13.85 0.55 11.4 -0.8 8.7 -2.3 8.0 -2.3 L7.45 -2.4 6.95 -2.55 6.5 -2.7 4.65 -3.15 4.25 -3.0 3.65 -2.8 3.85 -2.6 3.5 -2.65 Q4.9 -1.55 6.4 0.85 L8.5 4.7 8.55 4.85 9.45 7.2 9.25 6.7 8.55 5.8 7.9 4.75 7.25 3.65 6.05 1.8 3.85 -0.9 Q2.15 -2.7 1.05 -2.7 L0.65 -2.6 0.15 -2.45 -0.35 -2.4 -0.6 -2.2 -0.6 -2.55 -0.5 -3.15 M-0.2 -1.75 L-0.45 -1.75 -0.4 -1.8 0.7 -1.9 0.8 -1.85 0.6 -1.8 0.5 -1.8 0.25 -1.75 -0.2 -1.75" fill="#60676c" fill-rule="evenodd" stroke="none"/>
    <path d="M17.3 4.15 L16.35 3.8 14.75 3.35 12.65 3.2 10.95 3.6 9.8 4.05 Q9.15 4.3 8.5 4.7 L6.4 0.85 Q4.9 -1.55 3.5 -2.65 L3.85 -2.6 5.0 -2.45 8.1 -1.5 Q10.2 -0.8 12.75 0.65 15.25 2.25 17.3 4.15 M7.75 5.15 Q5.9 3.85 4.1 3.35 L1.25 2.85 0.8 2.85 Q0.0 2.25 -0.15 0.25 L-0.2 -1.75 0.25 -1.75 0.5 -1.8 0.6 -1.8 0.8 -1.85 0.9 -1.9 0.95 -1.9 1.25 -1.95 2.6 -0.95 Q4.0 -0.05 5.85 2.5 L7.75 5.15" fill="#a48f8e" fill-rule="evenodd" stroke="none"/>
    <path d="M17.8 3.95 L18.4 4.9 17.75 4.5 17.65 4.45 17.3 4.15 Q15.25 2.25 12.75 0.65 10.2 -0.8 8.1 -1.5 L5.0 -2.45 3.85 -2.6 3.65 -2.8 4.25 -3.0 4.65 -3.15 6.5 -2.7 6.95 -2.55 7.45 -2.4 8.0 -2.3 Q8.7 -2.3 11.4 -0.8 13.85 0.55 14.65 1.2 L16.95 3.1 17.8 3.95 M9.45 7.2 L9.5 7.45 8.0 5.5 7.75 5.15 5.85 2.5 Q4.0 -0.05 2.6 -0.95 L1.25 -1.95 0.95 -1.9 0.9 -1.9 0.8 -1.85 0.9 -1.9 0.8 -1.85 0.7 -1.9 -0.4 -1.8 -0.45 -1.75 -0.6 -2.2 -0.35 -2.4 0.15 -2.45 0.65 -2.6 1.05 -2.7 Q2.15 -2.7 3.85 -0.9 L6.05 1.8 7.25 3.65 7.9 4.75 8.55 5.8 9.25 6.7 9.45 7.2" fill="#593e37" fill-rule="evenodd" stroke="none"/>
    <path d="M-0.5 -3.15 L0.05 -3.2 1.9 -3.7 6.65 -3.85 Q8.85 -3.3 10.8 -2.25 L14.55 0.2 Q16.4 1.6 17.15 2.95 L17.8 3.95 18.4 4.9 17.75 4.5 17.65 4.45 17.3 4.15 16.35 3.8 14.75 3.35 12.65 3.2 10.95 3.6 9.8 4.05 Q9.15 4.3 8.5 4.7 L8.55 4.85 9.45 7.2 9.5 7.45 8.0 5.5 7.75 5.15 Q5.9 3.85 4.1 3.35 L1.25 2.85 0.8 2.85 M0.8 -1.85 L0.6 -1.8 0.5 -1.8 0.25 -1.75 -0.2 -1.75 M0.9 -1.9 L0.8 -1.85 M0.9 -1.9 L0.95 -1.9 1.25 -1.95 2.6 -0.95 Q4.0 -0.05 5.85 2.5 L7.75 5.15 M3.85 -2.6 L5.0 -2.45 8.1 -1.5 Q10.2 -0.8 12.75 0.65 15.25 2.25 17.3 4.15 M3.85 -2.6 L3.5 -2.65 Q4.9 -1.55 6.4 0.85 L8.5 4.7" fill="none" stroke="#660000" stroke-linecap="round" stroke-linejoin="round" stroke-opacity="0.4" stroke-width="1"/>
  </g>
</svg>