<?xml version="1.0" encoding="UTF-8" standalone="no"?>
<svg xmlns:xlink="http://www.w3.org/1999/xlink" height="407.85px" width="570.5px" xmlns="http://www.w3.org/2000/svg">
  <g transform="matrix(1.0, 0.0, 0.0, 1.0, 73.15, 32.4)">
    <path d="M104.3 -0.65 Q126.55 -5.0 148.95 -6.4 L159.4 -7.15 Q152.1 -2.55 145.65 2.8 136.95 10.1 129.9 18.9 L81.95 9.1 M190.0 -0.3 L190.5 -0.4 190.35 -0.5 190.0 -0.3 143.65 33.35 Q155.8 29.55 168.6 29.05 198.25 27.6 225.2 40.05 L219.5 49.35 Q214.2 58.25 206.95 65.4 202.6 69.75 197.5 73.35 L207.0 76.75 Q223.1 82.45 237.45 91.7 L238.85 91.2 269.6 34.2 263.2 30.35 Q242.1 18.15 218.15 12.45 L249.15 -12.9 Q238.55 -16.05 227.9 -17.9 179.2 -25.8 131.2 -14.35 M190.5 -0.4 L190.9 -0.5 190.9 -0.65 190.7 -0.65 190.35 -0.5 189.65 -0.65 190.7 -0.65 M190.5 -0.4 L190.85 -0.4 190.9 -0.5 192.2 -0.65 190.9 -0.65 M348.4 -0.65 L346.45 -0.65 Q380.55 -23.85 418.7 -9.1 425.35 -6.45 429.95 -1.05 386.1 -1.35 345.95 16.25 L315.55 -3.25 317.8 -4.5 317.5 -5.45 356.9 -20.95 M233.55 113.3 Q254.5 88.7 281.25 70.6 L289.0 65.55 265.65 64.15 Q287.9 43.25 315.05 28.9 L322.8 24.85 Q295.4 19.25 267.6 17.6 281.95 1.8 299.7 -9.95 313.7 -19.15 329.25 -24.8 340.5 -28.95 352.3 -31.4 M448.7 136.9 Q458.0 98.9 451.4 60.1 448.7 44.2 438.0 32.2 L402.8 35.95 Q427.9 66.85 431.4 106.45 433.3 127.5 428.55 148.05 364.0 133.5 299.35 144.9 285.2 147.3 271.6 152.65 M248.6 123.15 L323.45 98.2 Q313.6 93.65 303.3 90.65 293.05 87.8 282.1 87.75 297.7 77.95 314.8 71.2 324.65 67.3 334.65 64.3 L353.6 91.05 Q329.1 108.45 302.5 122.4 L297.2 125.1 406.7 115.25 Q405.95 99.45 398.05 85.75 387.45 67.5 368.7 57.8 351.55 48.95 332.25 49.25 308.65 49.65 288.05 60.95 318.95 39.6 354.1 26.65 405.55 7.75 460.25 7.65 478.4 7.6 496.35 9.55 M481.55 188.05 Q448.7 170.3 412.15 163.45 399.7 161.2 387.05 160.55 L386.45 202.8 Q345.6 193.05 303.75 197.8 L308.3 173.85 Q334.5 169.25 359.7 175.7 L358.5 162.7 Q315.6 154.8 273.55 166.4 M452.7 290.2 L404.75 262.1 407.05 256.95 Q415.05 238.75 419.5 219.25 L404.1 214.25 407.5 207.5 Q413.45 195.5 416.3 182.45 L417.55 176.25 421.4 178.25 Q441.65 188.65 463.85 193.25 M442.2 317.2 Q420.65 285.8 386.6 268.85 381.75 266.45 376.55 264.7 L395.6 236.5 Q347.9 210.75 293.6 210.4 L286.05 222.75 Q308.4 230.65 328.05 243.75 L318.3 262.7 261.1 214.25 M431.65 332.2 Q413.15 303.45 381.1 316.15 L377.2 317.85 336.45 279.4 Q340.85 259.55 354.3 244.4 M-72.15 190.0 Q-41.8 172.15 -9.6 157.7 19.35 144.7 51.15 143.45 L41.25 191.3 60.2 187.6 Q67.1 186.4 74.1 187.35 L66.3 165.1 Q99.65 152.0 134.55 144.5 L152.05 141.0 154.1 140.9 161.45 142.6 163.35 157.95 Q139.95 161.15 118.5 171.3 111.2 174.8 112.75 182.8 140.8 170.9 170.8 164.85 L171.55 178.9 Q171.8 189.4 170.5 199.75 M185.0 127.05 Q156.7 118.7 127.25 122.05 L123.3 122.5 Q128.65 103.05 136.5 84.5 126.45 79.35 115.4 81.8 108.9 83.35 104.0 87.95 96.65 95.0 96.4 105.45 L105.7 94.15 99.65 132.25 Q74.05 124.45 47.05 125.8 L39.3 126.4 Q59.5 78.7 98.35 44.75 107.4 36.85 117.05 30.0 73.35 28.65 37.1 55.5 -2.0 84.4 -27.05 126.35 L18.35 119.8 Q24.9 90.35 45.65 68.25 52.05 61.5 59.6 55.65 M81.95 8.45 Q52.05 25.3 25.6 47.5 L8.15 62.4 0.35 61.45 -4.65 60.6 -15.0 57.6 Q1.3 39.75 21.65 26.65 44.8 11.8 70.5 2.3 51.35 -0.5 32.05 0.5 17.2 1.15 2.6 3.9 M217.15 123.15 Q192.7 102.55 160.8 100.95 L156.8 100.8 Q172.15 72.3 196.75 51.65 144.0 37.75 100.4 69.95 86.3 80.45 76.75 94.95 L71.5 90.4 Q109.2 32.6 172.7 6.35 181.15 2.8 190.0 -0.3 M152.05 141.0 L153.6 141.65 154.1 140.9 M13.7 285.0 L13.9 286.0 Q28.95 274.15 40.6 267.3 L40.85 270.85 42.4 290.45 43.15 290.3 Q74.05 267.85 97.45 265.35 120.8 262.8 126.15 260.75 L119.4 232.6 Q126.3 230.85 133.25 232.0 137.55 232.95 140.3 236.2 141.65 237.85 142.55 239.8 145.95 247.25 144.95 255.5 L206.05 227.3 M-18.45 288.9 Q17.9 263.65 43.5 256.4 69.1 249.15 72.15 248.9 L62.3 226.65 Q26.5 236.4 -4.5 256.4 -14.0 262.5 -22.25 269.95 -28.0 239.0 -30.75 207.65 L16.95 174.9 Q15.5 189.75 11.35 204.15 L8.7 213.65 73.25 205.5 Q78.45 213.55 80.4 222.85 82.15 231.3 82.6 239.85 L104.95 232.6 98.35 207.0 Q126.45 195.6 155.4 187.35 158.65 207.5 156.8 227.95 L186.95 215.55 M47.85 312.55 L48.55 313.9 Q79.1 298.9 107.65 280.4 L115.75 275.15 Q124.75 274.65 133.45 277.0 147.9 280.8 153.55 294.5 155.25 298.5 156.05 302.7 145.35 300.95 135.9 306.5 116.35 318.0 117.4 341.4 L137.8 345.3 143.65 313.55 166.7 313.8 Q169.55 308.25 170.65 302.05 172.05 294.1 168.05 287.25 162.9 278.3 153.25 274.2 L203.35 242.45 M42.55 292.25 L42.45 290.75 41.25 291.5 41.85 290.55 42.4 290.45 42.45 290.75 43.15 290.3 M48.5 368.2 L48.5 369.5 Q67.55 350.3 79.8 338.45 102.2 316.8 116.75 305.95 L112.65 302.15 109.5 299.45 Q108.05 299.45 89.8 308.75 68.1 319.8 53.75 325.0 53.3 324.3 53.0 323.2 52.5 321.5 48.55 313.9 M13.9 286.0 Q20.8 322.45 27.5 337.2 29.25 341.05 32.15 345.5 34.5 349.2 35.4 351.85 34.65 352.6 26.7 356.8 19.5 360.55 16.95 361.7 16.35 359.95 10.25 335.55 L3.25 307.25 Q-4.05 307.25 -15.85 318.1 -21.95 323.75 -32.7 336.1 M320.75 374.45 Q300.85 341.5 290.85 304.15 L288.75 295.9 Q293.3 295.65 297.05 298.0 304.45 302.75 310.1 309.4 316.2 316.45 320.1 325.0 L328.05 319.15 Q317.7 295.15 302.4 274.0 292.45 260.2 280.8 247.65 L270.95 250.3 282.7 273.5 268.35 277.1 Q262.95 250.85 253.8 225.65 L248.6 211.55 M278.85 373.5 Q288.05 331.9 256.1 304.75 236.9 288.4 219.9 310.1 214.35 317.2 215.85 326.3 L232.9 326.3 233.8 325.75 Q232.9 316.85 234.65 308.15 L235.5 304.15 Q242.4 308.65 245.55 316.15 249.7 326.15 252.6 336.75 L195.8 334.15 Q199.15 300.55 228.7 284.15 232.85 281.9 237.35 283.7 244.05 238.35 241.35 192.6 M156.8 336.75 Q165.75 329.45 177.3 330.0 L180.4 330.25 Q176.1 284.5 218.85 268.2 220.5 267.55 222.35 267.3 L228.3 193.25" fill="none" stroke="#ffff33" stroke-linecap="round" stroke-linejoin="round" stroke-width="1"/>
  </g>
</svg>