<?xml version="1.0" encoding="UTF-8" standalone="no"?>
<svg xmlns:xlink="http://www.w3.org/1999/xlink" height="44.5px" width="96.75px" xmlns="http://www.w3.org/2000/svg">
  <g transform="matrix(1.0, 0.0, 0.0, 1.0, 11.65, 9.4)">
    <path d="M35.95 -8.4 Q44.3 -8.2 57.45 -3.0 67.3 1.5 73.55 9.55 L77.45 16.7 Q82.35 25.7 84.1 32.4 L81.6 32.25 Q78.5 32.4 76.25 34.1 75.7 32.8 75.3 31.3 L73.95 25.2 73.8 25.0 66.3 14.95 Q55.1 0.25 46.95 0.25 28.7 0.25 19.2 8.15 L13.3 13.55 Q10.25 16.0 6.75 16.0 -0.55 16.0 -6.15 11.2 -10.65 7.4 -10.65 5.05 -10.65 3.15 -7.5 1.95 -6.75 1.95 -3.75 4.1 -0.85 6.2 -0.15 7.1 7.4 5.65 13.9 1.4 L23.7 -5.35 Q29.3 -8.55 35.95 -8.4" fill="url(#gradient0)" fill-rule="evenodd" stroke="none"/>
  </g>
  <defs>
    <linearGradient gradientTransform="matrix(0.0386, -0.0044, 0.0033, 0.0285, 34.35, 15.2)" gradientUnits="userSpaceOnUse" id="gradient0" spreadMethod="pad" x1="-819.2" x2="819.2">
      <stop offset="0.0" stop-color="#99b86c"></stop>
      <stop offset="1.0" stop-color="#b6d983"></stop>
    </linearGradient>
  </defs>
</svg>