<?xml version="1.0" encoding="UTF-8" standalone="no"?>
<svg xmlns:xlink="http://www.w3.org/1999/xlink" height="50.2px" width="87.85px" xmlns="http://www.w3.org/2000/svg">
  <g transform="matrix(1.0, 0.0, 0.0, 1.0, 5.2, -4.4)">
    <path d="M65.4 10.25 Q67.5 10.3 71.95 17.05 74.3 20.65 76.35 24.5 L77.85 30.6 79.85 39.9 80.8 43.8 81.65 47.9 Q81.85 50.4 79.3 51.85 77.75 52.7 77.35 53.6 74.4 51.75 71.25 50.6 68.05 49.3 65.6 49.0 66.8 42.1 66.8 38.15 67.05 33.45 66.8 31.7 66.5 29.25 64.2 23.9 62.5 19.9 57.6 16.7 52.95 13.85 50.1 13.25 47.65 12.0 46.45 11.6 L36.45 11.4 27.5 18.35 Q18.45 24.95 15.75 24.7 9.15 24.15 2.8 16.85 L-1.2 11.8 Q-3.15 9.25 -4.05 8.6 L-4.2 7.0 -3.75 6.4 Q-3.5 6.1 -2.55 6.1 -2.2 6.1 5.1 11.0 L13.3 16.45 Q17.4 13.75 22.85 11.05 34.25 5.4 43.0 5.4 56.4 5.4 62.85 9.4 L64.2 10.25 65.4 10.25 M78.0 47.6 L78.0 47.7 78.1 47.7 78.0 47.6" fill="url(#gradient0)" fill-rule="evenodd" stroke="none"/>
  </g>
  <defs>
    <linearGradient gradientTransform="matrix(0.0441, 0.0072, -0.0042, 0.0258, 38.55, 25.5)" gradientUnits="userSpaceOnUse" id="gradient0" spreadMethod="pad" x1="-819.2" x2="819.2">
      <stop offset="0.0" stop-color="#99b86c"></stop>
      <stop offset="1.0" stop-color="#b6d983"></stop>
    </linearGradient>
  </defs>
</svg>