<?xml version="1.0" encoding="UTF-8" standalone="no"?>
<svg xmlns:xlink="http://www.w3.org/1999/xlink" height="51.1px" width="103.65px" xmlns="http://www.w3.org/2000/svg">
  <g transform="matrix(1.0, 0.0, 0.0, 1.0, 10.15, 0.2)">
    <path d="M89.5 8.8 L91.75 10.8 92.5 18.4 Q92.5 22.45 89.25 25.9 86.05 29.3 86.05 30.05 86.05 30.9 82.4 35.5 78.65 40.15 77.0 41.1 72.9 43.55 67.3 46.15 59.05 49.9 56.35 49.45 L53.1 48.75 Q45.85 50.4 41.55 49.7 36.65 48.85 32.95 47.65 L32.8 47.65 29.95 47.1 29.95 47.15 Q26.4 46.9 24.2 45.95 21.65 44.8 19.95 42.3 L19.5 41.55 15.85 34.2 15.8 34.15 15.7 34.0 15.45 33.55 Q14.65 31.85 13.7 30.75 L12.9 30.0 12.25 28.15 10.2 24.2 7.8 19.45 7.45 18.9 Q3.5 14.45 2.35 13.65 L2.05 11.1 1.95 11.25 -1.65 18.05 Q-4.75 16.95 -7.25 13.5 -9.15 10.8 -9.15 10.0 -9.15 9.35 -7.0 7.15 -4.65 4.8 -2.25 3.35 -0.6 2.35 0.65 2.05 L0.0 0.8 0.8 2.0 Q2.5 1.6 3.45 2.55 6.55 3.6 9.35 7.65 L9.5 7.9 Q11.05 10.4 15.8 19.9 L19.35 26.4 Q21.6 30.05 23.6 32.2 L25.6 33.9 25.45 33.95 27.4 35.4 27.6 35.5 27.7 35.6 29.95 36.7 29.95 36.65 31.8 37.55 32.8 37.55 Q33.3 37.65 34.75 38.85 L37.4 39.25 44.4 40.1 44.65 40.1 45.5 40.25 47.6 40.6 47.8 41.35 49.6 40.8 Q56.1 41.35 61.55 39.75 L64.1 38.85 Q66.8 37.75 69.15 36.05 L69.5 35.85 Q76.65 32.95 77.5 31.6 78.85 29.2 81.25 22.0 83.5 15.1 83.5 14.0 83.5 12.15 80.85 8.15 78.05 4.05 77.95 2.25 L78.7 2.15 Q84.05 4.35 89.05 8.45 L89.4 8.95 89.5 8.8" fill="url(#gradient0)" fill-rule="evenodd" stroke="none"/>
  </g>
  <defs>
    <linearGradient gradientTransform="matrix(0.0412, 0.0238, -0.0201, 0.0347, 43.4, 19.2)" gradientUnits="userSpaceOnUse" id="gradient0" spreadMethod="pad" x1="-819.2" x2="819.2">
      <stop offset="0.0" stop-color="#99b86c"></stop>
      <stop offset="1.0" stop-color="#b6d983"></stop>
    </linearGradient>
  </defs>
</svg>