<?xml version="1.0" encoding="UTF-8" standalone="no"?>
<svg xmlns:xlink="http://www.w3.org/1999/xlink" height="162.25px" width="208.2px" xmlns="http://www.w3.org/2000/svg">
  <g transform="matrix(1.0, 0.0, 0.0, 1.0, 3, 3)">
    <path d="M201.7 69.6 Q202.2 73.8 202.2 78.1 202.2 109.8 173.8 132.45 L172.65 133.35 172.65 133.4 172.55 133.5 171.5 134.25 168.9 136.15 167.6 137.05 165.65 138.35 164.7 139.0 163.05 140.0 162.85 140.15 162.0 140.6 159.0 142.3 158.8 142.4 150.7 146.45 149.45 146.95 Q143.7 149.4 137.65 151.25 L129.75 153.3 125.65 154.1 111.4 155.95 110.05 156.05 104.6 156.25 104.55 156.25 102.85 156.25 102.8 156.25 101.1 156.25 98.3 156.25 98.05 156.25 96.9 156.2 96.55 156.2 91.65 155.95 90.2 155.85 88.4 155.7 86.5 155.5 85.85 155.45 80.8 154.8 69.75 152.65 67.95 152.2 66.9 151.9 65.05 151.4 64.8 151.35 63.1 150.8 63.0 150.75 60.65 150.0 59.35 149.55 57.95 149.0 57.05 148.75 55.9 148.3 53.05 147.1 52.6 146.9 49.75 145.65 47.0 144.3 45.9 143.75 36.45 138.3 29.55 133.35 27.25 131.55 24.8 129.4 21.75 126.7 20.3 125.3 16.45 121.15 14.95 119.4 12.75 116.6 11.35 114.5 Q2.45 101.65 0.5 86.6 L0.3 84.7 0.15 82.35 0.1 81.3 0.0 78.1 0.1 74.55 0.25 72.7 0.35 71.2 0.45 70.1 0.8 67.9 1.0 66.75 1.3 65.1 1.45 64.5 2.25 61.1 3.15 57.9 3.55 56.85 3.75 56.35 4.05 55.5 5.25 52.55 5.95 51.05 6.6 49.6 7.1 48.7 8.8 45.65 9.2 45.0 Q16.45 33.05 29.55 22.9 59.15 0.0 101.1 0.0 143.05 0.0 172.65 22.9 195.55 40.55 200.7 64.1 L200.9 64.75 201.55 68.85 201.7 69.6 Z" fill="none" stroke="#fcfbcb" stroke-linecap="round" stroke-linejoin="round" stroke-width="4.0"/>
  </g>
</svg>