<?xml version="1.0" encoding="UTF-8" standalone="no"?>
<svg xmlns:xlink="http://www.w3.org/1999/xlink" height="38.9px" width="109.7px" xmlns="http://www.w3.org/2000/svg">
  <g transform="matrix(1.0, 0.0, 0.0, 1.0, 1, 1)">
    <path d="M90.25 15.55 Q91.35 14.45 93.95 13.4 98.65 11.5 101.2 13.3 L101.05 13.8 Q100.9 14.2 100.9 14.8 L104.3 19.15 Q107.7 23.35 107.7 26.65 107.7 29.05 105.9 32.2 103.25 36.9 98.4 36.9 94.95 36.9 92.6 35.5 L92.2 35.25 82.65 35.15 79.15 33.9 Q78.7 33.65 78.7 32.75 78.7 32.45 80.45 30.8 82.2 29.15 82.2 27.3 82.2 26.15 81.85 25.85 L80.35 25.55 Q76.15 25.05 70.95 22.6 69.9 22.1 67.85 20.1 L64.6 17.1 60.8 14.85 54.9 12.1 Q54.0 11.7 52.85 8.9 51.8 6.45 49.95 6.45 48.55 6.45 45.8 7.95 L41.65 10.2 38.6 11.9 Q37.75 12.55 37.65 12.9 L27.1 9.3 Q21.35 7.35 17.85 7.9 L17.8 7.85 Q18.5 6.7 18.5 6.0 18.5 3.05 14.2 3.0 11.05 2.95 10.25 4.0 L9.3 4.1 8.75 4.25 Q7.05 4.55 5.1 5.2 2.0 6.2 0.15 7.35 L0.0 7.15 Q0.45 6.45 4.4 4.9 6.65 3.8 9.05 3.15 L10.1 2.9 Q18.7 0.0 22.55 0.0 26.75 0.0 32.15 1.6 L36.85 3.3 36.85 3.5 38.1 3.75 40.85 4.8 Q44.3 4.8 47.2 3.75 50.25 2.65 51.55 2.6 L63.05 3.45 Q67.5 4.3 67.5 5.55 67.5 6.15 66.45 7.15 65.3 8.2 63.95 8.55 71.7 9.4 78.45 13.2 84.75 16.75 85.25 16.75 86.6 16.75 90.25 15.55" fill="#a65415" fill-rule="evenodd" stroke="none"/>
  </g>
</svg>