<?xml version="1.0" encoding="UTF-8" standalone="no"?>
<svg xmlns:xlink="http://www.w3.org/1999/xlink" height="20.5px" width="7.7px" xmlns="http://www.w3.org/2000/svg">
  <g transform="matrix(1.0, 0.0, 0.0, 1.0, 1.4, 1.55)">
    <path d="M0.4 2.55 L-0.4 -0.35 0.25 -0.55 Q1.75 3.65 2.7 7.4 L4.0 12.9 Q4.35 14.7 5.1 16.05 5.85 17.35 3.6 17.8 L0.85 17.55 0.65 16.45 Q1.65 14.45 1.45 10.05 1.15 4.95 0.4 2.55 M1.5 15.45 L1.25 16.4 3.05 16.75 3.5 16.35 1.9 15.8 1.9 15.25 1.5 15.45 M3.65 16.45 Q3.45 16.75 3.95 16.5 4.05 15.95 3.65 16.45" fill="#768536" fill-rule="evenodd" stroke="none"/>
    <path d="M3.65 16.45 Q4.05 15.95 3.95 16.5 3.45 16.75 3.65 16.45 M1.5 15.45 L1.9 15.25 1.9 15.8 3.5 16.35 3.05 16.75 1.25 16.4 1.5 15.45" fill="#b0b035" fill-rule="evenodd" stroke="none"/>
    <path d="M0.4 2.55 L-0.4 -0.35 0.25 -0.55 Q1.75 3.65 2.7 7.4 L4.0 12.9 Q4.35 14.7 5.1 16.05 5.85 17.35 3.6 17.8 L0.85 17.55 0.65 16.45 Q1.65 14.45 1.45 10.05 1.15 4.95 0.4 2.55 Z" fill="none" stroke="#5a662b" stroke-linecap="round" stroke-linejoin="round" stroke-width="1"/>
  </g>
</svg>