<?xml version="1.0" encoding="UTF-8" standalone="no"?>
<svg xmlns:xlink="http://www.w3.org/1999/xlink" height="19.5px" width="5.75px" xmlns="http://www.w3.org/2000/svg">
  <g transform="matrix(1.0, 0.0, 0.0, 1.0, 3.05, 1.95)">
    <path d="M0.65 -0.5 L1.45 3.15 Q1.85 5.25 1.65 7.2 1.4 9.5 0.6 11.85 -0.15 14.2 -1.2 16.55 L-2.05 16.2 -1.8 15.75 Q-1.3 14.8 -0.9 12.8 L-0.4 8.75 -0.1 4.0 Q-0.05 1.6 -0.25 -0.7 0.4 -1.25 0.65 -0.5 M0.6 2.35 Q1.2 6.85 0.25 11.25 2.05 6.5 0.6 2.35" fill="#768536" fill-rule="evenodd" stroke="none"/>
    <path d="M0.6 2.35 Q2.05 6.5 0.25 11.25 1.2 6.85 0.6 2.35" fill="#b0b035" fill-rule="evenodd" stroke="none"/>
    <path d="M-0.25 -0.7 Q-0.05 1.6 -0.1 4.0 L-0.4 8.75 -0.9 12.8 Q-1.3 14.8 -1.8 15.75 L-2.05 16.2 -1.2 16.55 Q-0.15 14.2 0.6 11.85 1.4 9.5 1.65 7.2 1.85 5.25 1.45 3.15 L0.65 -0.5" fill="none" stroke="#5a662b" stroke-linecap="round" stroke-linejoin="round" stroke-width="1"/>
  </g>
</svg>