<?xml version="1.0" encoding="UTF-8" standalone="no"?>
<svg xmlns:xlink="http://www.w3.org/1999/xlink" height="388.0px" width="448.0px" xmlns="http://www.w3.org/2000/svg">
  <g transform="matrix(1.0, 0.0, 0.0, 1.0, 0.0, 5.45)">
    <use data-characterId="282" height="113.35" transform="matrix(1.0, 0.0, 0.0, 1.0, 0.0, -5.45)" width="448.0" xlink:href="#morphshape0"/>
    <use data-characterId="283" height="137.35" transform="matrix(1.0, 0.0, 0.0, 1.0, 0.0, 24.7)" width="448.0" xlink:href="#morphshape1"/>
    <use data-characterId="284" height="65.9" transform="matrix(1.0, 0.0, 0.0, 1.0, 0.0, 71.55)" width="448.0" xlink:href="#morphshape2"/>
    <use data-characterId="285" height="79.45" transform="matrix(1.0, 0.0, 0.0, 1.0, 0.0, 287.55)" width="448.0" xlink:href="#morphshape3"/>
    <use data-characterId="286" height="119.4" transform="matrix(1.0, 0.0, 0.0, 1.0, 0.0, 263.15)" width="448.0" xlink:href="#morphshape4"/>
  </g>
  <defs>
    <g id="morphshape0" transform="matrix(1.0, 0.0, 0.0, 1.0, 0.0, 5.45)">
      <path d="M-0.05 33.55 L-0.05 33.6 -0.05 72.75 4.35 78.65 Q34.4 79.35 67.8 79.65 80.4 79.8 95.4 81.6 142.5 87.15 217.5 90.55 228.4 91.0 239.6 90.5 314.0 83.2 369.2 81.25 404.2 86.1 427.4 78.85 L444.7 74.85 447.9 71.4 447.9 30.65 447.25 30.0 Q436.15 36.9 421.25 41.75 391.7 53.7 362.6 59.85 304.7 77.3 225.45 66.15 L223.55 65.75 Q136.65 47.65 88.5 36.35 78.1 34.05 68.8 33.55 24.95 32.75 0.0 33.7" fill="#ffffff" fill-opacity="0.34901962" fill-rule="evenodd" stroke="none"/>
      <path d="M0.0 33.7 Q24.95 32.75 68.8 33.55 78.1 34.05 88.5 36.35 136.65 47.65 223.55 65.75 L225.45 66.15 Q304.7 77.3 362.6 59.85 391.7 53.7 421.25 41.75 436.15 36.9 447.25 30.0 L447.9 30.65 447.9 71.4 444.7 74.85 427.4 78.85 Q404.2 86.1 369.2 81.25 314.0 83.2 239.6 90.5 228.4 91.0 217.5 90.55 142.5 87.15 95.4 81.6 80.4 79.8 67.8 79.65 34.4 79.35 4.35 78.65 L-0.05 72.75 -0.05 33.6 -0.05 33.55" fill="none" stroke="#000000" stroke-linecap="round" stroke-linejoin="round" stroke-opacity="0.0" stroke-width="1.0"/>
    </g>
    <g id="morphshape1" transform="matrix(1.0, 0.0, 0.0, 1.0, 0.0, -24.7)">
      <path d="M0.05 51.3 L0.05 125.35 2.75 128.3 Q26.4 112.65 65.4 113.4 78.9 112.9 94.55 112.6 143.25 111.75 224.8 100.9 L228.65 100.55 Q303.55 96.1 357.55 106.35 385.9 109.6 414.6 117.55 429.95 120.65 440.95 127.15 L447.95 123.9 447.95 60.35 442.95 54.9 427.4 54.15 Q399.6 52.0 361.25 68.2 298.9 82.8 228.8 72.45 216.9 71.8 205.9 72.1 133.6 75.45 87.75 73.95 81.45 73.65 75.55 72.9 29.3 67.15 0.0 51.35" fill="#ffffff" fill-opacity="0.29803923" fill-rule="evenodd" stroke="none"/>
      <path d="M0.0 51.35 Q29.3 67.15 75.55 72.9 81.45 73.65 87.75 73.95 133.6 75.45 205.9 72.1 216.9 71.8 228.8 72.45 298.9 82.8 361.25 68.2 399.6 52.0 427.4 54.15 L442.95 54.9 447.95 60.35 447.95 123.9 440.95 127.15 Q429.95 120.65 414.6 117.55 385.9 109.6 357.55 106.35 303.55 96.1 228.65 100.55 L224.8 100.9 Q143.25 111.75 94.55 112.6 78.9 112.9 65.4 113.4 26.4 112.65 2.75 128.3 L0.05 125.35 0.05 51.3" fill="none" stroke="#000000" stroke-linecap="round" stroke-linejoin="round" stroke-opacity="0.0" stroke-width="1.0"/>
    </g>
    <g id="morphshape2" transform="matrix(1.0, 0.0, 0.0, 1.0, 0.0, -71.55)">
      <path d="M0.05 85.75 L0.05 114.45 1.5 115.65 Q41.65 116.1 84.35 111.15 151.65 108.95 227.3 119.0 238.15 119.8 248.45 120.2 322.0 123.1 361.65 120.55 371.85 119.8 381.05 119.5 407.7 118.4 423.5 117.8 435.1 117.1 443.2 118.45 L448.05 113.5 448.05 91.3 Q446.6 88.55 444.85 85.95 436.05 83.7 421.05 85.3 406.0 86.0 380.25 91.55 L363.9 95.25 Q320.25 105.65 237.15 103.65 L231.9 103.65 Q158.9 99.9 93.75 95.1 47.95 93.6 0.0 85.7" fill="#ffffff" fill-opacity="0.29803923" fill-rule="evenodd" stroke="none"/>
      <path d="M0.0 85.7 Q47.95 93.6 93.75 95.1 158.9 99.9 231.9 103.65 L237.15 103.65 Q320.25 105.65 363.9 95.25 L380.25 91.55 Q406.0 86.0 421.05 85.3 436.05 83.7 444.85 85.95 446.6 88.55 448.05 91.3 L448.05 113.5 443.2 118.45 Q435.1 117.1 423.5 117.8 407.7 118.4 381.05 119.5 371.85 119.8 361.65 120.55 322.0 123.1 248.45 120.2 238.15 119.8 227.3 119.0 151.65 108.95 84.35 111.15 41.65 116.1 1.5 115.65 L0.05 114.45 0.05 85.75" fill="none" stroke="#000000" stroke-linecap="round" stroke-linejoin="round" stroke-opacity="0.0" stroke-width="1.0"/>
    </g>
    <g id="morphshape3" transform="matrix(1.0, 0.0, 0.0, 1.0, 0.0, -287.55)">
      <path d="M-0.1 315.05 L-0.1 343.75 1.4 345.5 Q49.25 337.25 94.75 335.7 157.8 331.1 227.35 328.95 L242.0 329.1 Q325.65 326.9 368.6 336.15 L375.75 337.65 Q408.25 344.7 425.5 344.9 438.9 345.8 446.9 343.55 L447.95 342.5 447.95 312.85 447.95 312.8 Q437.25 316.1 418.4 314.25 405.55 313.35 386.3 312.3 372.25 311.15 356.4 310.3 319.1 307.25 253.9 309.45 238.85 309.85 221.95 311.5 147.65 322.7 83.8 320.1 40.35 314.8 0.0 315.15" fill="#ffffff" fill-opacity="0.29803923" fill-rule="evenodd" stroke="none"/>
      <path d="M0.0 315.15 Q40.35 314.8 83.8 320.1 147.65 322.7 221.95 311.5 238.85 309.85 253.9 309.45 319.1 307.25 356.4 310.3 372.25 311.15 386.3 312.3 405.55 313.35 418.4 314.25 437.25 316.1 447.95 312.8 L447.95 312.85 447.95 342.5 446.9 343.55 Q438.9 345.8 425.5 344.9 408.25 344.7 375.75 337.65 L368.6 336.15 Q325.65 326.9 242.0 329.1 L227.35 328.95 Q157.8 331.1 94.75 335.7 49.25 337.25 1.4 345.5 L-0.1 343.75 -0.1 315.05" fill="none" stroke="#000000" stroke-linecap="round" stroke-linejoin="round" stroke-opacity="0.0" stroke-width="1.0"/>
    </g>
    <g id="morphshape4" transform="matrix(1.0, 0.0, 0.0, 1.0, 0.0, -263.15)">
      <path d="M0.05 282.1 L0.05 356.1 5.25 361.4 Q15.55 362.95 30.3 362.9 58.25 364.65 96.55 347.85 159.3 331.9 228.45 339.65 230.8 339.65 233.1 339.6 314.2 336.55 362.7 343.3 366.2 343.8 369.6 344.35 410.85 350.2 438.3 364.5 L447.95 354.55 447.95 299.65 Q443.4 293.3 436.0 286.0 417.05 296.25 391.35 298.55 370.5 302.1 344.35 304.35 300.5 308.0 232.05 317.05 221.4 318.55 210.7 319.2 135.75 319.3 81.75 305.3 53.95 300.85 25.85 292.2 10.75 288.75 0.0 282.0" fill="#ffffff" fill-opacity="0.29803923" fill-rule="evenodd" stroke="none"/>
      <path d="M0.0 282.0 Q10.75 288.75 25.85 292.2 53.95 300.85 81.75 305.3 135.75 319.3 210.7 319.2 221.4 318.55 232.05 317.05 300.5 308.0 344.35 304.35 370.5 302.1 391.35 298.55 417.05 296.25 436.0 286.0 443.4 293.3 447.95 299.65 L447.95 354.55 438.3 364.5 Q410.85 350.2 369.6 344.35 366.2 343.8 362.7 343.3 314.2 336.55 233.1 339.6 230.8 339.65 228.45 339.65 159.3 331.9 96.55 347.85 58.25 364.65 30.3 362.9 15.55 362.95 5.25 361.4 L0.05 356.1 0.05 282.1" fill="none" stroke="#000000" stroke-linecap="round" stroke-linejoin="round" stroke-opacity="0.0" stroke-width="1.0"/>
    </g>
  </defs>
</svg>
