<?xml version="1.0" encoding="UTF-8" standalone="no"?>
<svg xmlns:xlink="http://www.w3.org/1999/xlink" height="388.0px" width="448.0px" xmlns="http://www.w3.org/2000/svg">
  <g transform="matrix(1.0, 0.0, 0.0, 1.0, 0.0, 5.45)">
    <use data-characterId="282" height="113.35" transform="matrix(1.0, 0.0, 0.0, 1.0, 0.0, -5.45)" width="448.0" xlink:href="#morphshape0"/>
    <use data-characterId="283" height="137.35" transform="matrix(1.0, 0.0, 0.0, 1.0, 0.0, 24.7)" width="448.0" xlink:href="#morphshape1"/>
    <use data-characterId="284" height="65.9" transform="matrix(1.0, 0.0, 0.0, 1.0, 0.0, 71.55)" width="448.0" xlink:href="#morphshape2"/>
    <use data-characterId="285" height="79.45" transform="matrix(1.0, 0.0, 0.0, 1.0, 0.0, 287.55)" width="448.0" xlink:href="#morphshape3"/>
    <use data-characterId="286" height="119.4" transform="matrix(1.0, 0.0, 0.0, 1.0, 0.0, 263.15)" width="448.0" xlink:href="#morphshape4"/>
  </g>
  <defs>
    <g id="morphshape0" transform="matrix(1.0, 0.0, 0.0, 1.0, 0.0, 5.45)">
      <path d="M-0.05 27.3 L-0.05 27.35 -0.05 66.95 2.9 74.15 Q33.8 73.25 66.95 72.1 79.3 71.7 94.75 73.5 141.05 78.9 217.5 91.1 228.6 92.85 239.95 93.5 311.0 94.15 370.75 85.1 403.65 85.15 428.9 74.8 L445.85 68.95 448.0 64.4 448.0 23.2 447.55 22.25 Q436.2 31.05 422.35 37.8 393.25 54.25 364.7 62.95 301.7 86.95 226.45 63.95 L224.55 63.3 Q138.6 31.25 89.95 22.55 79.2 20.75 69.8 21.15 23.45 24.5 0.0 27.25" fill="#ffffff" fill-opacity="0.3647059" fill-rule="evenodd" stroke="none"/>
      <path d="M0.0 27.25 Q23.45 24.5 69.8 21.15 79.2 20.75 89.95 22.55 138.6 31.25 224.55 63.3 L226.45 63.95 Q301.7 86.95 364.7 62.95 393.25 54.25 422.35 37.8 436.2 31.05 447.55 22.25 L448.0 23.2 448.0 64.4 445.85 68.95 428.9 74.8 Q403.65 85.15 370.75 85.1 311.0 94.15 239.95 93.5 228.6 92.85 217.5 91.1 141.05 78.9 94.75 73.5 79.3 71.7 66.95 72.1 33.8 73.25 2.9 74.15 L-0.05 66.95 -0.05 27.35 -0.05 27.3" fill="none" stroke="#000000" stroke-linecap="round" stroke-linejoin="round" stroke-opacity="0.0" stroke-width="1.0"/>
    </g>
    <g id="morphshape1" transform="matrix(1.0, 0.0, 0.0, 1.0, 0.0, -24.7)">
      <path d="M0.2 42.7 L0.2 116.8 3.8 118.9 Q26.9 109.1 68.4 113.0 81.75 113.6 97.5 112.9 146.3 110.75 226.45 88.15 L230.15 87.25 Q300.35 72.75 358.15 88.05 385.65 93.55 413.65 105.25 427.65 110.05 438.8 117.7 L448.1 119.7 448.1 56.1 444.75 49.0 428.95 47.55 Q397.5 44.05 360.55 54.1 291.55 62.05 226.2 61.25 214.2 62.15 203.2 64.05 130.0 78.0 85.0 74.7 78.7 74.15 72.85 73.0 27.25 64.15 0.0 42.75" fill="#ffffff" fill-opacity="0.29803923" fill-rule="evenodd" stroke="none"/>
      <path d="M0.0 42.75 Q27.25 64.15 72.85 73.0 78.7 74.15 85.0 74.7 130.0 78.0 203.2 64.05 214.2 62.15 226.2 61.25 291.55 62.05 360.55 54.1 397.5 44.05 428.95 47.55 L444.75 49.0 448.1 56.1 448.1 119.7 438.8 117.7 Q427.65 110.05 413.65 105.25 385.65 93.55 358.15 88.05 300.35 72.75 230.15 87.25 L226.45 88.15 Q146.3 110.75 97.5 112.9 81.75 113.6 68.4 113.0 26.9 109.1 3.8 118.9 L0.2 116.8 0.2 42.7" fill="none" stroke="#000000" stroke-linecap="round" stroke-linejoin="round" stroke-opacity="0.0" stroke-width="1.0"/>
    </g>
    <g id="morphshape2" transform="matrix(1.0, 0.0, 0.0, 1.0, 0.0, -71.55)">
      <path d="M-0.05 85.4 L-0.05 114.1 0.95 115.95 Q42.8 119.35 84.5 117.75 158.3 120.05 228.65 123.85 239.6 123.85 249.9 123.35 322.8 119.9 363.15 117.35 373.5 116.65 382.55 116.55 408.85 116.05 425.1 116.9 436.7 117.25 444.7 119.45 L447.95 112.95 447.95 90.75 Q446.05 88.35 443.75 86.15 434.7 83.3 419.95 83.6 404.05 83.15 378.65 86.85 L362.15 89.6 Q317.0 97.95 235.45 105.85 L230.2 106.45 Q160.95 111.3 92.5 102.4 47.7 98.15 0.0 85.4" fill="#ffffff" fill-opacity="0.29803923" fill-rule="evenodd" stroke="none"/>
      <path d="M0.0 85.4 Q47.7 98.15 92.5 102.4 160.95 111.3 230.2 106.45 L235.45 105.85 Q317.0 97.95 362.15 89.6 L378.65 86.85 Q404.05 83.15 419.95 83.6 434.7 83.3 443.75 86.15 446.05 88.35 447.95 90.75 L447.95 112.95 444.7 119.45 Q436.7 117.25 425.1 116.9 408.85 116.05 382.55 116.55 373.5 116.65 363.15 117.35 322.8 119.9 249.9 123.35 239.6 123.85 228.65 123.85 158.3 120.05 84.5 117.75 42.8 119.35 0.95 115.95 L-0.05 114.1 -0.05 85.4" fill="none" stroke="#000000" stroke-linecap="round" stroke-linejoin="round" stroke-opacity="0.0" stroke-width="1.0"/>
    </g>
    <g id="morphshape3" transform="matrix(1.0, 0.0, 0.0, 1.0, 0.0, -287.55)">
      <path d="M0.05 319.4 L0.05 348.1 1.05 350.3 Q49.05 337.1 94.0 332.85 160.65 324.35 227.3 330.15 L242.05 331.95 Q324.35 339.55 368.6 346.4 L375.8 347.45 Q407.95 352.15 426.1 350.8 439.35 350.45 447.35 347.35 L448.05 345.95 448.05 316.3 448.05 316.25 Q437.3 320.25 418.55 319.9 405.3 319.95 386.25 319.4 371.9 318.4 356.35 317.65 318.15 314.4 253.65 311.1 238.6 310.25 221.65 310.75 153.1 316.15 83.85 317.9 41.8 316.1 0.0 319.4" fill="#ffffff" fill-opacity="0.29803923" fill-rule="evenodd" stroke="none"/>
      <path d="M0.0 319.4 Q41.8 316.1 83.85 317.9 153.1 316.15 221.65 310.75 238.6 310.25 253.65 311.1 318.15 314.4 356.35 317.65 371.9 318.4 386.25 319.4 405.3 319.95 418.55 319.9 437.3 320.25 448.05 316.25 L448.05 316.3 448.05 345.95 447.35 347.35 Q439.35 350.45 426.1 350.8 407.95 352.15 375.8 347.45 L368.6 346.4 Q324.35 339.55 242.05 331.95 L227.3 330.15 Q160.65 324.35 94.0 332.85 49.05 337.1 1.05 350.3 L0.05 348.1 0.05 319.4" fill="none" stroke="#000000" stroke-linecap="round" stroke-linejoin="round" stroke-opacity="0.0" stroke-width="1.0"/>
    </g>
    <g id="morphshape4" transform="matrix(1.0, 0.0, 0.0, 1.0, 0.0, -263.15)">
      <path d="M0.0 276.65 L0.0 350.7 6.9 354.85 Q18.0 356.55 32.05 357.15 63.7 360.15 100.65 349.3 170.15 339.55 234.2 336.9 236.55 336.55 238.85 336.15 321.6 320.65 368.65 330.2 372.15 330.95 375.55 331.75 416.15 340.7 441.55 360.25 L448.0 347.2 448.0 292.25 Q441.95 287.9 432.1 282.25 412.85 288.05 385.65 287.35 365.05 288.25 338.55 291.75 294.5 297.45 227.65 316.15 217.1 319.2 206.5 321.1 136.25 329.75 78.4 309.45 51.65 302.4 24.5 289.75 10.8 284.5 0.0 276.55" fill="#ffffff" fill-opacity="0.29803923" fill-rule="evenodd" stroke="none"/>
      <path d="M0.0 276.55 Q10.8 284.5 24.5 289.75 51.65 302.4 78.4 309.45 136.25 329.75 206.5 321.1 217.1 319.2 227.65 316.15 294.5 297.45 338.55 291.75 365.05 288.25 385.65 287.35 412.85 288.05 432.1 282.25 441.95 287.9 448.0 292.25 L448.0 347.2 441.55 360.25 Q416.15 340.7 375.55 331.75 372.15 330.95 368.65 330.2 321.6 320.65 238.85 336.15 236.55 336.55 234.2 336.9 170.15 339.55 100.65 349.3 63.7 360.15 32.05 357.15 18.0 356.55 6.9 354.85 L0.0 350.7 0.0 276.65" fill="none" stroke="#000000" stroke-linecap="round" stroke-linejoin="round" stroke-opacity="0.0" stroke-width="1.0"/>
    </g>
  </defs>
</svg>
