<?xml version="1.0" encoding="UTF-8" standalone="no"?>
<svg xmlns:xlink="http://www.w3.org/1999/xlink" height="388.0px" width="448.0px" xmlns="http://www.w3.org/2000/svg">
  <g transform="matrix(1.0, 0.0, 0.0, 1.0, 0.0, 5.45)">
    <use data-characterId="291" height="113.35" transform="matrix(1.0, 0.0, 0.0, 1.0, 0.0, -5.45)" width="448.0" xlink:href="#morphshape0"/>
    <use data-characterId="292" height="137.35" transform="matrix(1.0, 0.0, 0.0, 1.0, 0.0, 24.7)" width="448.0" xlink:href="#morphshape1"/>
    <use data-characterId="293" height="81.15" transform="matrix(1.0, 0.0, 0.0, 1.0, 0.0, 61.2)" width="448.0" xlink:href="#morphshape2"/>
    <use data-characterId="294" height="79.45" transform="matrix(1.0, 0.0, 0.0, 1.0, 0.0, 287.55)" width="448.0" xlink:href="#morphshape3"/>
    <use data-characterId="295" height="119.4" transform="matrix(1.0, 0.0, 0.0, 1.0, 0.0, 263.15)" width="448.0" xlink:href="#morphshape4"/>
  </g>
  <defs>
    <g id="morphshape0" transform="matrix(1.0, 0.0, 0.0, 1.0, 0.0, 5.45)">
      <path d="M0.05 33.9 L0.05 33.95 0.05 73.05 4.45 78.9 Q34.5 79.6 67.9 79.95 80.55 80.1 95.5 81.85 142.6 87.4 217.6 90.75 228.5 91.2 239.7 90.7 314.15 83.35 369.35 81.4 404.4 86.3 427.55 79.05 L444.85 75.05 448.1 71.65 448.1 30.95 447.4 30.3 Q436.3 37.2 421.35 42.05 391.75 53.95 362.6 60.05 304.75 77.45 225.45 66.3 L223.5 65.95 Q136.6 47.85 88.45 36.55 78.1 34.25 68.85 33.7 25.0 32.85 0.0 33.75" fill="#ffffff" fill-opacity="0.34901962" fill-rule="evenodd" stroke="none"/>
      <path d="M0.0 33.75 Q25.0 32.85 68.85 33.7 78.1 34.25 88.45 36.55 136.6 47.85 223.5 65.95 L225.45 66.3 Q304.75 77.45 362.6 60.05 391.75 53.95 421.35 42.05 436.3 37.2 447.4 30.3 L448.1 30.95 448.1 71.65 444.85 75.05 427.55 79.05 Q404.4 86.3 369.35 81.4 314.15 83.35 239.7 90.7 228.5 91.2 217.6 90.75 142.6 87.4 95.5 81.85 80.55 80.1 67.9 79.95 34.5 79.6 4.45 78.9 L0.05 73.05 0.05 33.95 0.05 33.9" fill="none" stroke="#000000" stroke-linecap="round" stroke-linejoin="round" stroke-opacity="0.0" stroke-width="1.0"/>
    </g>
    <g id="morphshape1" transform="matrix(1.0, 0.0, 0.0, 1.0, 0.0, -24.7)">
      <path d="M-0.05 51.45 L-0.05 125.45 2.65 128.45 Q26.3 112.8 65.3 113.5 78.85 112.95 94.5 112.65 143.2 111.8 224.8 101.0 L228.7 100.65 Q303.65 96.2 357.6 106.4 386.0 109.65 414.75 117.55 430.1 120.65 441.1 127.15 L448.05 123.85 448.05 60.3 443.0 54.9 427.5 54.15 Q399.75 52.05 361.4 68.25 299.05 82.85 228.9 72.5 217.0 71.8 206.0 72.05 133.75 75.4 87.85 73.9 81.6 73.65 75.65 72.9 29.35 67.2 0.0 51.4" fill="#ffffff" fill-opacity="0.29803923" fill-rule="evenodd" stroke="none"/>
      <path d="M0.0 51.4 Q29.35 67.2 75.65 72.9 81.6 73.65 87.85 73.9 133.75 75.4 206.0 72.05 217.0 71.8 228.9 72.5 299.05 82.85 361.4 68.25 399.75 52.05 427.5 54.15 L443.0 54.9 448.05 60.3 448.05 123.85 441.1 127.15 Q430.1 120.65 414.75 117.55 386.0 109.65 357.6 106.4 303.65 96.2 228.7 100.65 L224.8 101.0 Q143.2 111.8 94.5 112.65 78.85 112.95 65.3 113.5 26.3 112.8 2.65 128.45 L-0.05 125.45 -0.05 51.45" fill="none" stroke="#000000" stroke-linecap="round" stroke-linejoin="round" stroke-opacity="0.0" stroke-width="1.0"/>
    </g>
    <g id="morphshape2" transform="matrix(1.0, 0.0, 0.0, 1.0, 0.0, -61.2)">
      <path d="M-0.1 88.5 L-0.1 116.85 1.75 118.05 Q42.35 116.3 85.35 107.85 152.5 101.7 227.25 119.45 237.65 121.1 247.3 122.1 320.95 131.0 361.1 126.15 371.1 124.9 380.15 124.1 407.55 121.45 423.55 120.7 434.85 119.9 442.8 121.15 L447.9 116.05 447.9 93.75 Q446.6 91.15 445.05 88.65 436.4 86.45 421.55 88.05 406.15 88.75 379.85 96.15 L365.6 100.25 Q322.85 112.85 238.6 103.5 L232.0 102.95 Q158.8 92.65 94.1 90.65 44.05 92.4 0.0 88.45" fill="#ffffff" fill-opacity="0.29803923" fill-rule="evenodd" stroke="none"/>
      <path d="M0.0 88.45 Q44.05 92.4 94.1 90.65 158.8 92.65 232.0 102.95 L238.6 103.5 Q322.85 112.85 365.6 100.25 L379.85 96.15 Q406.15 88.75 421.55 88.05 436.4 86.45 445.05 88.65 446.6 91.15 447.9 93.75 L447.9 116.05 442.8 121.15 Q434.85 119.9 423.55 120.7 407.55 121.45 380.15 124.1 371.1 124.9 361.1 126.15 320.95 131.0 247.3 122.1 237.65 121.1 227.25 119.45 152.5 101.7 85.35 107.85 42.35 116.3 1.75 118.05 L-0.1 116.85 -0.1 88.5" fill="none" stroke="#000000" stroke-linecap="round" stroke-linejoin="round" stroke-opacity="0.0" stroke-width="1.0"/>
    </g>
    <g id="morphshape3" transform="matrix(1.0, 0.0, 0.0, 1.0, 0.0, -287.55)">
      <path d="M0.1 315.2 L0.1 343.85 1.6 345.6 Q49.4 337.35 94.95 335.8 157.95 331.2 227.5 329.0 L242.1 329.1 Q325.8 326.9 368.75 336.15 L375.85 337.7 Q408.4 344.75 425.6 345.0 439.0 345.95 446.95 343.7 L448.05 342.65 448.05 313.05 448.05 312.95 Q437.35 316.2 418.5 314.3 405.65 313.35 386.35 312.25 372.3 311.05 356.4 310.15 319.1 307.1 253.85 309.35 238.8 309.75 221.95 311.45 147.65 322.7 83.8 320.05 40.3 314.75 0.0 315.1" fill="#ffffff" fill-opacity="0.29803923" fill-rule="evenodd" stroke="none"/>
      <path d="M0.0 315.1 Q40.3 314.75 83.8 320.05 147.65 322.7 221.95 311.45 238.8 309.75 253.85 309.35 319.1 307.1 356.4 310.15 372.3 311.05 386.35 312.25 405.65 313.35 418.5 314.3 437.35 316.2 448.05 312.95 L448.05 313.05 448.05 342.65 446.95 343.7 Q439.0 345.95 425.6 345.0 408.4 344.75 375.85 337.7 L368.75 336.15 Q325.8 326.9 242.1 329.1 L227.5 329.0 Q157.95 331.2 94.95 335.8 49.4 337.35 1.6 345.6 L0.1 343.85 0.1 315.2" fill="none" stroke="#000000" stroke-linecap="round" stroke-linejoin="round" stroke-opacity="0.0" stroke-width="1.0"/>
    </g>
    <g id="morphshape4" transform="matrix(1.0, 0.0, 0.0, 1.0, 0.0, -263.15)">
      <path d="M-0.05 281.9 L-0.05 355.85 5.1 361.15 Q15.4 362.7 30.15 362.65 58.05 364.35 96.4 347.55 159.15 331.55 228.35 339.35 230.7 339.4 233.05 339.4 314.15 336.4 362.65 343.15 366.2 343.65 369.65 344.2 410.9 350.05 438.35 364.35 L448.05 354.4 448.05 299.55 Q443.55 293.2 436.15 285.85 417.2 296.1 391.5 298.4 370.6 302.0 344.45 304.25 300.6 307.85 232.15 316.9 221.45 318.4 210.75 319.05 135.8 319.1 81.8 305.15 54.0 300.75 25.9 292.15 10.75 288.75 0.0 282.0" fill="#ffffff" fill-opacity="0.29803923" fill-rule="evenodd" stroke="none"/>
      <path d="M0.0 282.0 Q10.75 288.75 25.9 292.15 54.0 300.75 81.8 305.15 135.8 319.1 210.75 319.05 221.45 318.4 232.15 316.9 300.6 307.85 344.45 304.25 370.6 302.0 391.5 298.4 417.2 296.1 436.15 285.85 443.55 293.2 448.05 299.55 L448.05 354.4 438.35 364.35 Q410.9 350.05 369.65 344.2 366.2 343.65 362.65 343.15 314.15 336.4 233.05 339.4 230.7 339.4 228.35 339.35 159.15 331.55 96.4 347.55 58.05 364.35 30.15 362.65 15.4 362.7 5.1 361.15 L-0.05 355.85 -0.05 281.9" fill="none" stroke="#000000" stroke-linecap="round" stroke-linejoin="round" stroke-opacity="0.0" stroke-width="1.0"/>
    </g>
  </defs>
</svg>
