<?xml version="1.0" encoding="UTF-8" standalone="no"?>
<svg xmlns:xlink="http://www.w3.org/1999/xlink" height="388.0px" width="448.0px" xmlns="http://www.w3.org/2000/svg">
  <g transform="matrix(1.0, 0.0, 0.0, 1.0, 0.0, 5.45)">
    <use data-characterId="282" height="113.35" transform="matrix(1.0, 0.0, 0.0, 1.0, 0.0, -5.45)" width="448.0" xlink:href="#morphshape0"/>
    <use data-characterId="283" height="137.35" transform="matrix(1.0, 0.0, 0.0, 1.0, 0.0, 24.7)" width="448.0" xlink:href="#morphshape1"/>
    <use data-characterId="284" height="65.9" transform="matrix(1.0, 0.0, 0.0, 1.0, 0.0, 71.55)" width="448.0" xlink:href="#morphshape2"/>
    <use data-characterId="285" height="79.45" transform="matrix(1.0, 0.0, 0.0, 1.0, 0.0, 287.55)" width="448.0" xlink:href="#morphshape3"/>
    <use data-characterId="286" height="119.4" transform="matrix(1.0, 0.0, 0.0, 1.0, 0.0, 263.15)" width="448.0" xlink:href="#morphshape4"/>
  </g>
  <defs>
    <g id="morphshape0" transform="matrix(1.0, 0.0, 0.0, 1.0, 0.0, 5.45)">
      <path d="M0.0 46.65 L0.0 46.75 0.0 84.95 7.35 88.15 Q35.7 92.1 69.65 95.35 82.85 96.55 96.85 98.3 145.5 104.15 217.6 89.9 228.15 87.8 239.1 84.95 320.25 61.65 366.3 73.9 405.6 88.45 424.6 87.4 L442.65 87.15 448.0 85.95 448.0 46.15 446.9 46.05 Q436.25 49.15 419.15 50.15 388.65 53.0 358.35 53.95 310.75 58.2 223.45 70.8 L221.45 71.0 Q132.6 80.8 85.5 64.25 75.85 60.95 66.8 58.6 28.0 49.4 0.0 46.7" fill="#ffffff" fill-opacity="0.3137255" fill-rule="evenodd" stroke="none"/>
      <path d="M0.0 46.7 Q28.0 49.4 66.8 58.6 75.85 60.95 85.5 64.25 132.6 80.8 221.45 71.0 L223.45 70.8 Q310.75 58.2 358.35 53.95 388.65 53.0 419.15 50.15 436.25 49.15 446.9 46.05 L448.0 46.15 448.0 85.95 442.65 87.15 424.6 87.4 Q405.6 88.45 366.3 73.9 320.25 61.65 239.1 84.95 228.15 87.8 217.6 89.9 145.5 104.15 96.85 98.3 82.85 96.55 69.65 95.35 35.7 92.1 7.35 88.15 L0.0 84.95 0.0 46.75 0.0 46.65" fill="none" stroke="#000000" stroke-linecap="round" stroke-linejoin="round" stroke-opacity="0.0" stroke-width="1.0"/>
    </g>
    <g id="morphshape1" transform="matrix(1.0, 0.0, 0.0, 1.0, 0.0, -24.7)">
      <path d="M-0.05 68.6 L-0.05 142.5 0.85 147.2 Q25.55 119.9 59.5 114.3 73.35 111.55 88.75 112.1 137.25 113.8 221.7 126.5 L225.9 127.2 Q310.25 142.85 356.55 142.95 386.65 141.7 416.8 142.05 434.85 141.75 445.55 146.0 L447.9 132.15 447.9 68.7 439.55 66.65 424.55 67.25 Q404.1 67.9 363.0 96.4 313.9 124.35 234.2 94.9 222.5 91.1 211.45 88.15 141.0 70.25 93.35 72.4 87.15 72.65 81.1 72.7 33.45 73.25 0.0 68.6" fill="#ffffff" fill-opacity="0.29803923" fill-rule="evenodd" stroke="none"/>
      <path d="M0.0 68.6 Q33.45 73.25 81.1 72.7 87.15 72.65 93.35 72.4 141.0 70.25 211.45 88.15 222.5 91.1 234.2 94.9 313.9 124.35 363.0 96.4 404.1 67.9 424.55 67.25 L439.55 66.65 447.9 68.7 447.9 132.15 445.55 146.0 Q434.85 141.75 416.8 142.05 386.65 141.7 356.55 142.95 310.25 142.85 225.9 127.2 L221.7 126.5 Q137.25 113.8 88.75 112.1 73.35 111.55 59.5 114.3 25.55 119.9 0.85 147.2 L-0.05 142.5 -0.05 68.6" fill="none" stroke="#000000" stroke-linecap="round" stroke-linejoin="round" stroke-opacity="0.0" stroke-width="1.0"/>
    </g>
    <g id="morphshape2" transform="matrix(1.0, 0.0, 0.0, 1.0, 0.0, -71.55)">
      <path d="M0.0 86.3 L0.0 114.95 2.45 114.9 Q39.1 109.4 83.85 97.7 138.05 86.45 224.3 108.95 234.9 111.35 245.25 113.6 320.2 129.25 358.35 126.6 368.2 125.8 377.7 125.15 405.1 122.8 420.05 119.35 431.6 116.5 439.95 116.2 L448.05 114.3 448.05 92.1 Q447.55 88.65 446.95 85.3 438.7 84.3 423.1 88.5 409.75 91.55 383.35 100.85 L367.4 106.5 Q326.8 120.95 240.55 99.2 L235.25 97.95 Q154.75 77.0 96.25 80.4 48.5 84.45 0.0 86.35" fill="#ffffff" fill-opacity="0.29803923" fill-rule="evenodd" stroke="none"/>
      <path d="M0.0 86.35 Q48.5 84.45 96.25 80.4 154.75 77.0 235.25 97.95 L240.55 99.2 Q326.8 120.95 367.4 106.5 L383.35 100.85 Q409.75 91.55 423.1 88.5 438.7 84.3 446.95 85.3 447.55 88.65 448.05 92.1 L448.05 114.3 439.95 116.2 Q431.6 116.5 420.05 119.35 405.1 122.8 377.7 125.15 368.2 125.8 358.35 126.6 320.2 129.25 245.25 113.6 234.9 111.35 224.3 108.95 138.05 86.45 83.85 97.7 39.1 109.4 2.45 114.9 L0.0 114.95 0.0 86.3" fill="none" stroke="#000000" stroke-linecap="round" stroke-linejoin="round" stroke-opacity="0.0" stroke-width="1.0"/>
    </g>
    <g id="morphshape3" transform="matrix(1.0, 0.0, 0.0, 1.0, 0.0, -287.55)">
      <path d="M0.05 306.45 L0.05 335.1 2.55 335.95 Q50.0 337.6 96.65 341.5 152.45 344.7 227.8 326.6 L242.2 323.35 Q328.6 301.5 369.0 315.6 L375.95 318.05 Q409.2 329.85 424.6 333.2 438.3 336.7 446.2 336.15 L448.0 335.8 448.0 306.2 448.0 306.1 Q437.4 307.95 418.35 303.0 406.35 300.1 386.6 297.95 373.15 296.4 356.65 295.3 321.1 292.6 254.4 305.85 239.3 308.8 222.55 312.85 136.75 335.75 83.7 324.4 37.4 312.15 0.0 306.6" fill="#ffffff" fill-opacity="0.29803923" fill-rule="evenodd" stroke="none"/>
      <path d="M0.0 306.6 Q37.4 312.15 83.7 324.4 136.75 335.75 222.55 312.85 239.3 308.8 254.4 305.85 321.1 292.6 356.65 295.3 373.15 296.4 386.6 297.95 406.35 300.1 418.35 303.0 437.4 307.95 448.0 306.1 L448.0 306.2 448.0 335.8 446.2 336.15 Q438.3 336.7 424.6 333.2 409.2 329.85 375.95 318.05 L369.0 315.6 Q328.6 301.5 242.2 323.35 L227.8 326.6 Q152.45 344.7 96.65 341.5 50.0 337.6 2.55 335.95 L0.05 335.1 0.05 306.45" fill="none" stroke="#000000" stroke-linecap="round" stroke-linejoin="round" stroke-opacity="0.0" stroke-width="1.0"/>
    </g>
    <g id="morphshape4" transform="matrix(1.0, 0.0, 0.0, 1.0, 0.0, -263.15)">
      <path d="M-0.05 292.75 L-0.05 366.6 1.7 374.25 Q10.45 375.5 26.6 374.1 47.1 373.3 88.2 344.6 137.4 316.2 216.8 344.8 219.15 345.55 221.5 346.25 299.25 368.15 350.6 369.3 354.15 369.35 357.65 369.4 400.25 369.0 431.8 372.85 L447.9 369.05 447.9 314.3 Q446.4 303.95 443.95 293.3 425.65 312.5 403.0 320.75 381.55 329.65 356.05 329.35 312.6 328.8 240.95 318.55 230.0 317.0 219.05 315.15 134.7 298.05 88.4 296.7 58.5 297.55 28.55 296.95 10.6 297.15 0.0 292.85" fill="#ffffff" fill-opacity="0.29803923" fill-rule="evenodd" stroke="none"/>
      <path d="M0.0 292.85 Q10.6 297.15 28.55 296.95 58.5 297.55 88.4 296.7 134.7 298.05 219.05 315.15 230.0 317.0 240.95 318.55 312.6 328.8 356.05 329.35 381.55 329.65 403.0 320.75 425.65 312.5 443.95 293.3 446.4 303.95 447.9 314.3 L447.9 369.05 431.8 372.85 Q400.25 369.0 357.65 369.4 354.15 369.35 350.6 369.3 299.25 368.15 221.5 346.25 219.15 345.55 216.8 344.8 137.4 316.2 88.2 344.6 47.1 373.3 26.6 374.1 10.45 375.5 1.7 374.25 L-0.05 366.6 -0.05 292.75" fill="none" stroke="#000000" stroke-linecap="round" stroke-linejoin="round" stroke-opacity="0.0" stroke-width="1.0"/>
    </g>
  </defs>
</svg>
