<?xml version="1.0" encoding="UTF-8" standalone="no"?>
<svg xmlns:xlink="http://www.w3.org/1999/xlink" height="388.0px" width="448.0px" xmlns="http://www.w3.org/2000/svg">
  <g transform="matrix(1.0, 0.0, 0.0, 1.0, 0.0, 5.45)">
    <use data-characterId="291" height="113.35" transform="matrix(1.0, 0.0, 0.0, 1.0, 0.0, -5.45)" width="448.0" xlink:href="#morphshape0"/>
    <use data-characterId="292" height="137.35" transform="matrix(1.0, 0.0, 0.0, 1.0, 0.0, 24.7)" width="448.0" xlink:href="#morphshape1"/>
    <use data-characterId="293" height="81.15" transform="matrix(1.0, 0.0, 0.0, 1.0, 0.0, 61.2)" width="448.0" xlink:href="#morphshape2"/>
    <use data-characterId="294" height="79.45" transform="matrix(1.0, 0.0, 0.0, 1.0, 0.0, 287.55)" width="448.0" xlink:href="#morphshape3"/>
    <use data-characterId="295" height="119.4" transform="matrix(1.0, 0.0, 0.0, 1.0, 0.0, 263.15)" width="448.0" xlink:href="#morphshape4"/>
  </g>
  <defs>
    <g id="morphshape0" transform="matrix(1.0, 0.0, 0.0, 1.0, 0.0, 5.45)">
      <path d="M0.0 20.8 L0.0 20.8 0.0 60.85 1.45 69.4 Q33.2 66.85 66.05 64.25 78.1 63.35 94.05 65.15 139.6 70.4 217.5 91.4 228.75 94.4 240.2 96.25 307.9 104.9 372.25 88.75 403.0 83.95 430.35 70.5 L446.9 62.75 448.0 57.1 448.0 15.45 447.75 14.25 Q436.2 24.95 423.45 33.65 394.8 54.65 366.85 65.95 298.7 96.55 227.45 61.65 L225.6 60.7 Q140.65 14.7 91.45 8.65 80.35 7.35 70.85 8.65 21.95 16.2 0.0 20.75" fill="#ffffff" fill-opacity="0.38431373" fill-rule="evenodd" stroke="none"/>
      <path d="M0.0 20.75 Q21.95 16.2 70.85 8.65 80.35 7.35 91.45 8.65 140.65 14.7 225.6 60.7 L227.45 61.65 Q298.7 96.55 366.85 65.95 394.8 54.65 423.45 33.65 436.2 24.95 447.75 14.25 L448.0 15.45 448.0 57.1 446.9 62.75 430.35 70.5 Q403.0 83.95 372.25 88.75 307.9 104.9 240.2 96.25 228.75 94.4 217.5 91.4 139.6 70.4 94.05 65.15 78.1 63.35 66.05 64.25 33.2 66.85 1.45 69.4 L0.0 60.85 0.0 20.8 0.0 20.8" fill="none" stroke="#000000" stroke-linecap="round" stroke-linejoin="round" stroke-opacity="0.0" stroke-width="1.0"/>
    </g>
    <g id="morphshape1" transform="matrix(1.0, 0.0, 0.0, 1.0, 0.0, -24.7)">
      <path d="M0.05 34.15 L0.05 108.3 4.55 109.55 Q27.15 105.55 71.2 112.6 84.4 114.3 100.3 113.15 149.2 109.75 227.9 75.4 L231.45 74.0 Q296.95 49.45 358.6 69.8 385.25 77.55 412.55 93.05 425.2 99.55 436.5 108.3 L448.1 115.6 448.1 51.95 446.4 43.15 430.35 41.05 Q395.25 36.15 359.65 40.05 284.05 41.3 223.5 50.05 211.4 52.5 200.45 56.0 126.35 80.6 82.25 75.45 75.9 74.65 70.1 73.1 25.2 61.1 0.0 34.15" fill="#ffffff" fill-opacity="0.29803923" fill-rule="evenodd" stroke="none"/>
      <path d="M0.0 34.15 Q25.2 61.1 70.1 73.1 75.9 74.65 82.25 75.45 126.35 80.6 200.45 56.0 211.4 52.5 223.5 50.05 284.05 41.3 359.65 40.05 395.25 36.15 430.35 41.05 L446.4 43.15 448.1 51.95 448.1 115.6 436.5 108.3 Q425.2 99.55 412.55 93.05 385.25 77.55 358.6 69.8 296.95 49.45 231.45 74.0 L227.9 75.4 Q149.2 109.75 100.3 113.15 84.4 114.3 71.2 112.6 27.15 105.55 4.55 109.55 L0.05 108.3 0.05 34.15" fill="none" stroke="#000000" stroke-linecap="round" stroke-linejoin="round" stroke-opacity="0.0" stroke-width="1.0"/>
    </g>
    <g id="morphshape2" transform="matrix(1.0, 0.0, 0.0, 1.0, 0.0, -61.2)">
      <path d="M-0.2 85.95 L-0.2 114.05 0.4 117.0 Q44.85 122.8 86.1 123.45 166.1 128.75 230.6 128.85 241.25 128.35 251.05 127.2 323.5 119.3 364.8 116.1 375.15 115.3 383.9 115.2 410.35 114.8 427.2 117.1 438.5 118.45 446.2 121.4 L447.9 113.2 447.9 91.1 Q445.7 89.2 443.1 87.45 434.0 84.0 419.85 83.0 402.75 81.25 377.0 83.7 L362.2 85.5 Q315.9 92.3 235.1 107.65 L228.55 109.05 Q163.2 120.25 91.85 108.35 46.4 102.45 0.0 86.0" fill="#ffffff" fill-opacity="0.29803923" fill-rule="evenodd" stroke="none"/>
      <path d="M0.0 86.0 Q46.4 102.45 91.85 108.35 163.2 120.25 228.55 109.05 L235.1 107.65 Q315.9 92.3 362.2 85.5 L377.0 83.7 Q402.75 81.25 419.85 83.0 434.0 84.0 443.1 87.45 445.7 89.2 447.9 91.1 L447.9 113.2 446.2 121.4 Q438.5 118.45 427.2 117.1 410.35 114.8 383.9 115.2 375.15 115.3 364.8 116.1 323.5 119.3 251.05 127.2 241.25 128.35 230.6 128.85 166.1 128.75 86.1 123.45 44.85 122.8 0.4 117.0 L-0.2 114.05 -0.2 85.95" fill="none" stroke="#000000" stroke-linecap="round" stroke-linejoin="round" stroke-opacity="0.0" stroke-width="1.0"/>
    </g>
    <g id="morphshape3" transform="matrix(1.0, 0.0, 0.0, 1.0, 0.0, -287.55)">
      <path d="M-0.05 323.8 L-0.05 352.5 0.45 355.15 Q48.65 337.0 93.05 330.0 163.3 317.6 227.05 331.35 L241.9 334.85 Q322.85 352.3 368.35 356.7 L375.65 357.3 Q407.45 359.6 426.5 356.7 439.6 355.05 447.65 351.1 L448.0 349.35 448.0 319.7 448.0 319.65 Q437.2 324.35 418.55 325.55 404.85 326.6 386.05 326.6 371.4 325.8 356.15 325.15 317.1 321.75 253.35 312.95 238.35 310.8 221.35 310.1 158.55 309.65 83.9 315.75 43.25 317.4 0.0 323.65" fill="#ffffff" fill-opacity="0.29803923" fill-rule="evenodd" stroke="none"/>
      <path d="M0.0 323.65 Q43.25 317.4 83.9 315.75 158.55 309.65 221.35 310.1 238.35 310.8 253.35 312.95 317.1 321.75 356.15 325.15 371.4 325.8 386.05 326.6 404.85 326.6 418.55 325.55 437.2 324.35 448.0 319.65 L448.0 319.7 448.0 349.35 447.65 351.1 Q439.6 355.05 426.5 356.7 407.45 359.6 375.65 357.3 L368.35 356.7 Q322.85 352.3 241.9 334.85 L227.05 331.35 Q163.3 317.6 93.05 330.0 48.65 337.0 0.45 355.15 L-0.05 352.5 -0.05 323.8" fill="none" stroke="#000000" stroke-linecap="round" stroke-linejoin="round" stroke-opacity="0.0" stroke-width="1.0"/>
    </g>
    <g id="morphshape4" transform="matrix(1.0, 0.0, 0.0, 1.0, 0.0, -263.15)">
      <path d="M0.05 271.25 L0.05 345.35 8.65 348.3 Q20.5 350.15 33.85 351.45 69.2 355.7 104.75 350.8 181.05 347.25 240.0 334.2 242.35 333.5 244.65 332.75 329.1 304.8 374.75 317.15 378.25 318.1 381.6 319.15 421.5 331.25 444.85 356.0 L448.1 339.9 448.1 284.9 Q440.55 282.55 428.2 278.55 408.6 279.85 379.85 276.2 359.55 274.45 332.75 279.25 288.5 287.05 223.25 315.4 212.85 319.95 202.4 323.1 136.85 340.35 75.15 313.75 49.45 304.05 23.2 287.4 10.9 280.35 0.0 271.15" fill="#ffffff" fill-opacity="0.29803923" fill-rule="evenodd" stroke="none"/>
      <path d="M0.0 271.15 Q10.9 280.35 23.2 287.4 49.45 304.05 75.15 313.75 136.85 340.35 202.4 323.1 212.85 319.95 223.25 315.4 288.5 287.05 332.75 279.25 359.55 274.45 379.85 276.2 408.6 279.85 428.2 278.55 440.55 282.55 448.1 284.9 L448.1 339.9 444.85 356.0 Q421.5 331.25 381.6 319.15 378.25 318.1 374.75 317.15 329.1 304.8 244.65 332.75 242.35 333.5 240.0 334.2 181.05 347.25 104.75 350.8 69.2 355.7 33.85 351.45 20.5 350.15 8.65 348.3 L0.05 345.35 0.05 271.25" fill="none" stroke="#000000" stroke-linecap="round" stroke-linejoin="round" stroke-opacity="0.0" stroke-width="1.0"/>
    </g>
  </defs>
</svg>
