<?xml version="1.0" encoding="UTF-8" standalone="no"?>
<svg xmlns:xlink="http://www.w3.org/1999/xlink" height="388.0px" width="448.0px" xmlns="http://www.w3.org/2000/svg">
  <g transform="matrix(1.0, 0.0, 0.0, 1.0, 0.0, 5.45)">
    <use data-characterId="282" height="113.35" transform="matrix(1.0, 0.0, 0.0, 1.0, 0.0, -5.45)" width="448.0" xlink:href="#morphshape0"/>
    <use data-characterId="283" height="137.35" transform="matrix(1.0, 0.0, 0.0, 1.0, 0.0, 24.7)" width="448.0" xlink:href="#morphshape1"/>
    <use data-characterId="284" height="65.9" transform="matrix(1.0, 0.0, 0.0, 1.0, 0.0, 71.55)" width="448.0" xlink:href="#morphshape2"/>
    <use data-characterId="285" height="79.45" transform="matrix(1.0, 0.0, 0.0, 1.0, 0.0, 287.55)" width="448.0" xlink:href="#morphshape3"/>
    <use data-characterId="286" height="119.4" transform="matrix(1.0, 0.0, 0.0, 1.0, 0.0, 263.15)" width="448.0" xlink:href="#morphshape4"/>
  </g>
  <defs>
    <g id="morphshape0" transform="matrix(1.0, 0.0, 0.0, 1.0, 0.0, 5.45)">
      <path d="M0.1 20.75 L0.1 20.75 0.1 60.8 1.55 69.35 Q33.3 66.8 66.15 64.15 78.2 63.25 94.15 65.1 139.7 70.35 217.6 91.4 228.85 94.4 240.3 96.25 307.95 104.9 372.3 88.75 403.05 83.95 430.4 70.5 L446.95 62.75 448.0 57.1 448.0 15.45 447.8 14.25 Q436.25 24.95 423.5 33.65 394.85 54.65 366.9 65.95 298.75 96.55 227.5 61.65 L225.65 60.7 Q140.7 14.7 91.5 8.65 80.35 7.35 70.8 8.65 21.9 16.2 0.0 20.75" fill="#ffffff" fill-opacity="0.38431373" fill-rule="evenodd" stroke="none"/>
      <path d="M0.0 20.75 Q21.9 16.2 70.8 8.65 80.35 7.35 91.5 8.65 140.7 14.7 225.65 60.7 L227.5 61.65 Q298.75 96.55 366.9 65.95 394.85 54.65 423.5 33.65 436.25 24.95 447.8 14.25 L448.0 15.45 448.0 57.1 446.95 62.75 430.4 70.5 Q403.05 83.95 372.3 88.75 307.95 104.9 240.3 96.25 228.85 94.4 217.6 91.4 139.7 70.35 94.15 65.1 78.2 63.25 66.15 64.15 33.3 66.8 1.55 69.35 L0.1 60.8 0.1 20.75 0.1 20.75" fill="none" stroke="#000000" stroke-linecap="round" stroke-linejoin="round" stroke-opacity="0.0" stroke-width="1.0"/>
    </g>
    <g id="morphshape1" transform="matrix(1.0, 0.0, 0.0, 1.0, 0.0, -24.7)">
      <path d="M-0.05 34.05 L-0.05 108.25 4.45 109.45 Q27.05 105.45 71.1 112.55 84.25 114.3 100.15 113.15 149.05 109.75 227.75 75.35 L231.3 73.95 Q296.8 49.4 358.45 69.75 385.1 77.5 412.35 93.0 425.0 99.5 436.3 108.25 L447.95 115.55 447.95 51.9 446.3 43.1 430.25 41.0 Q395.15 36.1 359.55 40.0 283.95 41.25 223.4 50.0 211.3 52.45 200.35 55.95 126.25 80.55 82.15 75.4 75.8 74.6 70.05 73.05 25.15 61.05 0.0 34.1" fill="#ffffff" fill-opacity="0.29803923" fill-rule="evenodd" stroke="none"/>
      <path d="M0.0 34.1 Q25.15 61.05 70.05 73.05 75.8 74.6 82.15 75.4 126.25 80.55 200.35 55.95 211.3 52.45 223.4 50.0 283.95 41.25 359.55 40.0 395.15 36.1 430.25 41.0 L446.3 43.1 447.95 51.9 447.95 115.55 436.3 108.25 Q425.0 99.5 412.35 93.0 385.1 77.5 358.45 69.75 296.8 49.4 231.3 73.95 L227.75 75.35 Q149.05 109.75 100.15 113.15 84.25 114.3 71.1 112.55 27.05 105.45 4.45 109.45 L-0.05 108.25 -0.05 34.05" fill="none" stroke="#000000" stroke-linecap="round" stroke-linejoin="round" stroke-opacity="0.0" stroke-width="1.0"/>
    </g>
    <g id="morphshape2" transform="matrix(1.0, 0.0, 0.0, 1.0, 0.0, -71.55)">
      <path d="M0.15 85.1 L0.15 113.8 0.65 116.25 Q44.25 122.65 84.95 124.45 165.3 131.25 230.35 128.85 241.45 128.05 251.7 126.65 323.9 116.8 365.0 114.3 375.55 113.6 384.45 113.65 410.35 113.8 427.0 116.05 438.65 117.5 446.5 120.5 L448.1 112.5 448.1 90.3 Q445.7 88.25 442.8 86.4 433.45 82.95 419.0 81.95 402.25 80.3 377.15 82.15 L360.45 83.9 Q313.8 90.25 233.8 108.0 L228.6 109.25 Q163.1 122.7 91.3 109.7 47.45 102.7 0.0 85.05" fill="#ffffff" fill-opacity="0.29803923" fill-rule="evenodd" stroke="none"/>
      <path d="M0.0 85.05 Q47.45 102.7 91.3 109.7 163.1 122.7 228.6 109.25 L233.8 108.0 Q313.8 90.25 360.45 83.9 L377.15 82.15 Q402.25 80.3 419.0 81.95 433.45 82.95 442.8 86.4 445.7 88.25 448.1 90.3 L448.1 112.5 446.5 120.5 Q438.65 117.5 427.0 116.05 410.35 113.8 384.45 113.65 375.55 113.6 365.0 114.3 323.9 116.8 251.7 126.65 241.45 128.05 230.35 128.85 165.3 131.25 84.95 124.45 44.25 122.65 0.65 116.25 L0.15 113.8 0.15 85.1" fill="none" stroke="#000000" stroke-linecap="round" stroke-linejoin="round" stroke-opacity="0.0" stroke-width="1.0"/>
    </g>
    <g id="morphshape3" transform="matrix(1.0, 0.0, 0.0, 1.0, 0.0, -287.55)">
      <path d="M0.1 323.7 L0.1 352.4 0.6 355.05 Q48.8 336.9 93.15 329.9 163.4 317.5 227.15 331.3 L242.0 334.8 Q322.9 352.25 368.4 356.65 L375.7 357.25 Q407.45 359.55 426.5 356.6 439.6 354.95 447.65 351.0 L448.0 349.25 448.0 319.6 448.0 319.6 Q437.2 324.35 418.55 325.55 404.85 326.6 386.05 326.6 371.4 325.8 356.2 325.15 317.15 321.75 253.4 312.95 238.4 310.8 221.4 310.1 158.6 309.65 83.95 315.8 43.3 317.45 0.0 323.7" fill="#ffffff" fill-opacity="0.29803923" fill-rule="evenodd" stroke="none"/>
      <path d="M0.0 323.7 Q43.3 317.45 83.95 315.8 158.6 309.65 221.4 310.1 238.4 310.8 253.4 312.95 317.15 321.75 356.2 325.15 371.4 325.8 386.05 326.6 404.85 326.6 418.55 325.55 437.2 324.35 448.0 319.6 L448.0 319.6 448.0 349.25 447.65 351.0 Q439.6 354.95 426.5 356.6 407.45 359.55 375.7 357.25 L368.4 356.65 Q322.9 352.25 242.0 334.8 L227.15 331.3 Q163.4 317.5 93.15 329.9 48.8 336.9 0.6 355.05 L0.1 352.4 0.1 323.7" fill="none" stroke="#000000" stroke-linecap="round" stroke-linejoin="round" stroke-opacity="0.0" stroke-width="1.0"/>
    </g>
    <g id="morphshape4" transform="matrix(1.0, 0.0, 0.0, 1.0, 0.0, -263.15)">
      <path d="M0.05 271.2 L0.05 345.35 8.7 348.3 Q20.55 350.15 33.9 351.45 69.25 355.7 104.8 350.8 181.1 347.25 240.05 334.2 242.4 333.5 244.7 332.75 329.15 304.8 374.8 317.15 378.25 318.1 381.6 319.15 421.5 331.25 444.85 356.0 L448.05 339.9 448.05 284.9 Q440.5 282.55 428.15 278.6 408.55 279.9 379.8 276.25 359.5 274.5 332.7 279.3 288.45 287.1 223.2 315.45 212.8 320.0 202.35 323.15 136.8 340.4 75.1 313.8 49.4 304.1 23.15 287.4 10.9 280.35 0.0 271.15" fill="#ffffff" fill-opacity="0.29803923" fill-rule="evenodd" stroke="none"/>
      <path d="M0.0 271.15 Q10.9 280.35 23.15 287.4 49.4 304.1 75.1 313.8 136.8 340.4 202.35 323.15 212.8 320.0 223.2 315.45 288.45 287.1 332.7 279.3 359.5 274.5 379.8 276.25 408.55 279.9 428.15 278.6 440.5 282.55 448.05 284.9 L448.05 339.9 444.85 356.0 Q421.5 331.25 381.6 319.15 378.25 318.1 374.8 317.15 329.15 304.8 244.7 332.75 242.4 333.5 240.05 334.2 181.1 347.25 104.8 350.8 69.25 355.7 33.9 351.45 20.55 350.15 8.7 348.3 L0.05 345.35 0.05 271.2" fill="none" stroke="#000000" stroke-linecap="round" stroke-linejoin="round" stroke-opacity="0.0" stroke-width="1.0"/>
    </g>
  </defs>
</svg>
