<?xml version="1.0" encoding="UTF-8" standalone="no"?>
<svg xmlns:xlink="http://www.w3.org/1999/xlink" height="5.4px" width="14.65px" xmlns="http://www.w3.org/2000/svg">
  <g transform="matrix(1.0, 0.0, 0.0, 1.0, 5.8, 2.95)">
    <path d="M7.85 0.3 L7.25 -0.5 Q7.0 -1.25 5.25 -1.6 L1.1 -1.35 -1.75 -1.1 -2.6 -1.05 -2.9 -1.25 -3.0 -1.3 -3.65 -1.95" fill="none" stroke="#660000" stroke-linecap="round" stroke-linejoin="round" stroke-opacity="0.6" stroke-width="1"/>
    <path d="M-4.7 -1.4 L-4.15 -1.4 -4.05 -1.4 -3.4 -1.05 Q-3.3 -0.45 -3.8 -0.05 -4.05 0.4 -4.45 -0.2 L-4.65 -0.55 -4.65 -0.75 -4.8 -1.25 -4.7 -1.4 M1.6 -0.2 L3.65 -0.1 Q4.5 -0.05 4.8 0.45 L4.75 0.5 3.9 1.15 3.0 1.45 2.05 1.25 0.45 0.75 -0.7 -0.15 0.65 -0.25 1.6 -0.2" fill="#faf8f8" fill-rule="evenodd" stroke="none"/>
    <path d="M1.6 -0.2 L0.65 -0.25 -0.7 -0.15 0.45 0.75 2.05 1.25 3.0 1.45 3.9 1.15 4.75 0.5 4.8 0.45 Q4.5 -0.05 3.65 -0.1 L1.6 -0.2 M-4.7 -1.4 L-4.8 -1.25 -4.65 -0.75 -4.65 -0.55 -4.45 -0.2 Q-4.05 0.4 -3.8 -0.05 -3.3 -0.45 -3.4 -1.05 L-4.05 -1.4 -4.15 -1.4 -4.7 -1.4 Z" fill="none" stroke="#660000" stroke-linecap="round" stroke-linejoin="round" stroke-opacity="0.4" stroke-width="1"/>
  </g>
</svg>