<?xml version="1.0" encoding="UTF-8" standalone="no"?>
<svg xmlns:xlink="http://www.w3.org/1999/xlink" height="18.7px" width="20.5px" xmlns="http://www.w3.org/2000/svg">
  <g transform="matrix(1.0, 0.0, 0.0, 1.0, 3.3, 10.4)">
    <path d="M-1.05 -3.95 Q-2.05 -6.3 0.05 -8.75 L0.55 -9.2 Q5.85 -10.25 9.05 -6.1 L6.65 -6.8 Q1.7 -8.05 -1.05 -3.95" fill="#fa8c73" fill-rule="evenodd" stroke="none"/>
    <path d="M16.15 4.25 L16.2 6.1 16.2 7.3 15.8 7.1 Q14.35 4.35 11.45 2.95 L9.75 2.25 7.75 5.8 6.7 3.15 5.9 1.75 5.0 1.7 Q3.0 1.75 1.25 2.9 L-0.95 0.85 -1.4 0.2 -1.25 0.0 0.7 -1.85 Q1.05 -2.15 3.95 -3.45 L7.9 -3.25 8.75 -3.1 8.25 -2.9 4.25 -0.95 8.5 -1.35 Q11.55 -1.35 15.05 2.9 L16.15 4.25 M5.9 1.75 L9.75 2.25 5.9 1.75" fill="#d64e35" fill-rule="evenodd" stroke="none"/>
    <path d="M9.05 -6.1 Q13.1 -4.05 15.3 0.1 15.9 1.2 16.0 2.5 L16.15 4.25 15.05 2.9 Q11.55 -1.35 8.5 -1.35 L4.25 -0.95 8.25 -2.9 8.75 -3.1 7.9 -3.25 3.95 -3.45 Q1.05 -2.15 0.7 -1.85 L-1.25 0.0 -1.4 0.2 -1.9 -0.55 -2.3 -1.35 Q-2.4 -2.15 -1.65 -2.95 L-1.05 -3.95 Q1.7 -8.05 6.65 -6.8 L9.05 -6.1" fill="url(#gradient0)" fill-rule="evenodd" stroke="none"/>
    <path d="M-1.05 -3.95 Q-2.05 -6.3 0.05 -8.75 L0.55 -9.2 Q5.85 -10.25 9.05 -6.1 13.1 -4.05 15.3 0.1 15.9 1.2 16.0 2.5 L16.15 4.25 16.2 6.1 16.2 7.3 15.8 7.1 Q14.35 4.35 11.45 2.95 L9.75 2.25 7.75 5.8 6.7 3.15 5.9 1.75 5.0 1.7 Q3.0 1.75 1.25 2.9 M-2.3 -1.35 Q-2.4 -2.15 -1.65 -2.95 L-1.05 -3.95 Q1.7 -8.05 6.65 -6.8 L9.05 -6.1 M9.75 2.25 L5.9 1.75" fill="none" stroke="#660000" stroke-linecap="round" stroke-linejoin="round" stroke-opacity="0.6" stroke-width="1"/>
    <path d="M3.6 -4.9 L2.8 -4.85 Q2.4 -4.85 2.4 -5.15 2.4 -5.55 2.95 -5.7 L4.65 -5.45 Q4.4 -5.05 3.6 -4.9" fill="#ffffff" fill-rule="evenodd" stroke="none"/>
  </g>
  <defs>
    <radialGradient cx="0" cy="0" gradientTransform="matrix(0.0103, 0.0, 0.0, 0.0103, 5.15, -6.1)" gradientUnits="userSpaceOnUse" id="gradient0" r="819.2" spreadMethod="pad">
      <stop offset="0.0" stop-color="#fadcc0"></stop>
      <stop offset="0.5568627450980392" stop-color="#fa8c73"></stop>
    </radialGradient>
  </defs>
</svg>