<?xml version="1.0" encoding="UTF-8" standalone="no"?>
<svg xmlns:xlink="http://www.w3.org/1999/xlink" height="54.05px" width="30.15px" xmlns="http://www.w3.org/2000/svg">
  <g transform="matrix(1.0, 0.0, 0.0, 1.0, 15.05, 27.05)">
    <path d="M7.85 18.15 L6.05 16.2 7.05 15.8 7.3 15.7 Q7.5 17.0 7.85 18.15 M13.55 -9.85 L13.3 -9.05 13.0 -9.75 12.25 -11.35 14.1 -11.5 13.55 -9.85 M12.85 -22.3 Q12.35 -19.7 10.95 -17.45 L10.25 -16.05 9.9 -14.8 Q7.2 -17.7 3.8 -17.7 L3.15 -17.65 Q1.0 -17.5 -0.8 -16.15 -2.5 -14.9 -3.9 -12.7 -7.05 -7.7 -7.05 -0.6 -7.05 6.5 -3.9 11.5 -1.2 15.75 2.5 16.4 L0.95 18.15 Q-2.0 21.85 -3.75 26.0 L-3.0 22.25 Q-1.7 17.35 -5.45 14.95 -9.15 12.55 -12.45 15.95 -9.35 11.4 -8.4 5.75 -7.5 0.25 -12.65 -2.5 L-10.0 -4.4 Q-9.15 -5.05 -9.25 -6.05 -9.45 -11.7 -14.05 -15.4 -10.3 -12.8 -5.7 -13.0 -3.6 -14.55 -3.4 -16.65 -3.0 -21.2 -3.3 -26.0 L-3.1 -24.15 Q-2.55 -21.0 -1.3 -18.3 L-0.5 -17.45 1.15 -17.45 3.15 -19.3 4.75 -21.4 Q6.05 -23.55 6.45 -26.05 L6.4 -23.55 Q5.95 -21.5 6.35 -19.25 L8.7 -19.05 Q9.9 -19.35 10.95 -20.15 L12.85 -22.3" fill="#ffffff" fill-rule="evenodd" stroke="none"/>
  </g>
</svg>