<?xml version="1.0" encoding="UTF-8" standalone="no"?>
<svg xmlns:xlink="http://www.w3.org/1999/xlink" height="16.75px" width="32.6px" xmlns="http://www.w3.org/2000/svg">
  <g transform="matrix(1.0, 0.0, 0.0, 1.0, 8.45, -27.4)">
    <path d="M15.3 30.65 L20.45 29.25 Q21.1 29.25 21.6 28.9 L23.15 28.4 16.1 31.8 12.15 34.7 Q9.4 36.65 8.75 38.05 8.15 39.5 6.2 41.3 4.1 43.15 2.65 43.15 -2.5 43.15 -3.2 41.45 L-3.85 40.3 Q-4.5 39.75 -6.35 39.75 L-6.55 40.15 -7.3 40.85 -7.45 40.25 -5.15 36.1 Q-4.0 34.25 -1.9 32.0 L-0.5 29.65 Q0.8 28.3 3.75 28.7 6.95 29.95 6.9 30.5 L10.95 30.4 15.3 30.65" fill="#515151" fill-rule="evenodd" stroke="none"/>
  </g>
</svg>