<?xml version="1.0" encoding="UTF-8" standalone="no"?>
<svg xmlns:xlink="http://www.w3.org/1999/xlink" height="4.85px" width="5.05px" xmlns="http://www.w3.org/2000/svg">
  <g transform="matrix(1.0, 0.0, 0.0, 1.0, 2.45, -0.2)">
    <path d="M0.25 1.3 L0.55 1.2 1.6 1.5 1.35 3.1 0.55 3.65 0.1 3.95 -0.4 3.4 0.25 1.3" fill="#623636" fill-rule="evenodd" stroke="none"/>
    <path d="M0.1 3.95 L-0.15 4.05 -1.4 3.45 -1.45 3.15 -1.1 1.65 0.25 1.3 -0.4 3.4 0.1 3.95" fill="#412222" fill-rule="evenodd" stroke="none"/>
    <path d="M1.6 1.5 L1.6 1.2 M0.25 1.3 L0.55 1.2 1.6 1.5 1.35 3.1 0.55 3.65 0.1 3.95 -0.15 4.05 -1.4 3.45 -1.45 3.15 -1.1 1.65 0.25 1.3 Z" fill="none" stroke="#3c1414" stroke-linecap="round" stroke-linejoin="round" stroke-width="1"/>
  </g>
</svg>