<?xml version="1.0" encoding="UTF-8" standalone="no"?>
<svg xmlns:xlink="http://www.w3.org/1999/xlink" height="7.3px" width="6.65px" xmlns="http://www.w3.org/2000/svg">
  <g transform="matrix(1.0, 0.0, 0.0, 1.0, 3.3, 3.65)">
    <path d="M1.85 -2.2 L1.8 -1.9 1.8 -1.8 2.05 0.05 1.8 -0.2 1.8 0.05 2.35 1.85 1.95 1.65 1.9 1.65 1.9 2.2 1.7 2.25 1.6 2.2 1.4 2.05 0.1 2.65 0.25 2.15 -0.1 2.15 -1.2 2.5 -1.5 2.6 -1.5 2.35 -1.9 2.35 -1.85 1.75 -1.9 0.95 -2.25 1.1 -2.3 1.1 -1.3 -1.0 -1.55 -0.9 -1.6 -0.9 -1.45 -1.55 -0.8 -2.2 Q-0.35 -2.6 0.6 -2.65 1.5 -2.7 1.85 -2.2 M1.6 -2.15 L1.1 -1.7 1.1 -2.2 0.85 -2.25 Q0.7 -2.25 0.5 -2.05 L0.35 -1.9 -0.25 0.15 0.35 1.95 0.4 1.95 0.4 1.6 0.5 1.3 1.2 1.85 1.35 1.7 1.8 1.35 Q1.45 1.0 1.45 0.3 L1.7 -0.5 1.55 -1.3 1.65 -2.1 1.6 -2.15" fill="#3c1414" fill-rule="evenodd" stroke="none"/>
    <path d="M1.6 -2.15 L1.65 -2.1 1.55 -1.3 1.7 -0.5 1.45 0.3 Q1.45 1.0 1.8 1.35 L1.35 1.7 1.2 1.85 0.5 1.3 0.4 1.6 0.4 1.95 0.35 1.95 -0.25 0.15 0.35 -1.9 0.5 -2.05 Q0.7 -2.25 0.85 -2.25 L1.1 -2.2 1.1 -1.7 1.6 -2.15" fill="#692a2a" fill-rule="evenodd" stroke="none"/>
    <path d="M1.85 -2.2 L1.8 -1.9 1.8 -1.8 2.05 0.05 1.8 -0.2 1.8 0.05 2.35 1.85 1.95 1.65 1.9 1.65 1.9 2.2 1.7 2.25 1.6 2.2 1.4 2.05 0.1 2.65 0.25 2.15 -0.1 2.15 -1.2 2.5 -1.5 2.6 -1.5 2.35 -1.9 2.35 -1.85 1.75 -1.9 0.95 -2.25 1.1 -2.3 1.1 -1.3 -1.0 -1.55 -0.9 -1.6 -0.9 -1.45 -1.55" fill="none" stroke="#000000" stroke-linecap="round" stroke-linejoin="round" stroke-width="1"/>
  </g>
</svg>