<?xml version="1.0" encoding="UTF-8" standalone="no"?>
<svg xmlns:xlink="http://www.w3.org/1999/xlink" height="8.35px" width="10.5px" xmlns="http://www.w3.org/2000/svg">
  <g transform="matrix(1.0, 0.0, 0.0, 1.0, 1, 1)">
    <path d="M1.2 0.8 L1.1 0.75 0.9 0.85 3.8 2.9 Q6.6 4.45 7.4 5.0 L7.35 4.8 Q6.05 3.8 5.3 3.6 L4.15 2.8 3.75 2.4 3.9 2.2 3.4 2.15 3.4 2.2 2.75 1.8 2.85 1.7 2.85 1.6 1.25 0.75 1.2 0.8 M5.9 5.0 L7.1 5.65 7.3 5.6 7.3 5.5 4.65 3.95 4.6 4.1 5.9 5.0 M8.5 4.45 L8.5 4.7 8.2 5.3 8.1 5.55 7.45 6.2 7.4 6.3 7.3 6.35 4.2 4.4 Q1.95 2.65 0.0 0.0 L0.05 0.0 8.25 3.7 8.4 3.95 8.5 4.45" fill="#e0cca3" fill-rule="evenodd" stroke="none"/>
    <path d="M1.2 0.8 L1.25 0.75 2.85 1.6 2.85 1.7 2.75 1.8 1.75 1.25 1.2 0.8 M3.4 2.2 L3.4 2.15 3.9 2.2 3.75 2.4 3.55 2.25 3.4 2.2 M5.9 5.0 L4.6 4.1 4.65 3.95 7.3 5.5 7.3 5.6 7.1 5.65 5.9 5.0" fill="#ffffcc" fill-rule="evenodd" stroke="none"/>
    <path d="M3.75 2.4 L4.15 2.8 5.3 3.6 Q6.05 3.8 7.35 4.8 L7.4 5.0 Q6.6 4.45 3.8 2.9 L0.9 0.85 1.1 0.75 1.2 0.8 1.75 1.25 2.75 1.8 3.4 2.2 3.55 2.25 3.75 2.4" fill="#af996d" fill-rule="evenodd" stroke="none"/>
    <path d="M8.5 4.45 L8.5 4.7 8.2 5.3 8.1 5.55 7.45 6.2 7.4 6.3 7.3 6.35 4.2 4.4 Q1.95 2.65 0.0 0.0 L0.05 0.0 8.25 3.7 8.4 3.95 8.5 4.45 Z" fill="none" stroke="#a36a6a" stroke-linecap="round" stroke-linejoin="round" stroke-width="1"/>
  </g>
</svg>