<?xml version="1.0" encoding="UTF-8" standalone="no"?>
<svg xmlns:xlink="http://www.w3.org/1999/xlink" height="18.45px" width="14.25px" xmlns="http://www.w3.org/2000/svg">
  <g transform="matrix(1.0, 0.0, 0.0, 1.0, 1, 1)">
    <path d="M7.75 5.65 Q7.45 6.3 6.35 6.7 L6.0 6.75 5.75 6.55 6.55 5.95 7.75 5.55 7.75 5.65 M3.05 10.05 L3.05 10.0 Q3.05 9.6 3.5 9.45 3.5 10.45 4.2 10.45 5.05 10.45 5.3 9.75 L5.4 10.25 Q5.4 11.0 4.6 11.15 L4.5 11.15 Q4.0 11.15 3.65 10.85 L3.25 10.4 3.05 10.05" fill="#ffffff" fill-rule="evenodd" stroke="none"/>
    <path d="M1.8 13.7 L1.95 13.7 2.25 13.7 2.6 13.7 3.7 13.7 4.1 13.5 4.9 12.95 3.4 13.15 3.6 11.3 4.0 11.45 4.65 11.55 Q5.5 11.55 6.35 10.45 L6.4 13.7 6.35 15.1 4.95 15.3 3.45 15.05 2.75 14.45 1.8 13.75 1.8 13.7 M8.8 10.85 Q8.8 10.05 8.95 9.5 L9.05 9.35 9.4 9.35 10.35 8.45 10.5 8.45 10.65 8.45 Q11.5 8.55 11.6 10.05 11.4 11.05 10.8 11.75 10.15 12.45 8.85 12.3 9.95 12.3 10.5 11.8 11.0 11.3 11.0 10.75 11.0 9.55 10.45 9.55 L10.2 9.6 8.8 10.85 M0.9 11.7 L0.8 11.65 0.4 11.35 Q0.0 11.0 0.0 10.45 L0.0 10.35 0.0 10.3 0.2 10.3 Q0.45 10.3 0.95 9.5 L0.9 11.7 M4.45 12.35 L4.25 12.55 4.2 12.65 4.1 12.85 Q4.55 12.85 4.75 12.45 L4.75 12.35 4.45 12.35" fill="#ecab6c" fill-rule="evenodd" stroke="none"/>
    <path d="M11.0 5.1 L11.2 5.65 11.5 6.75 Q11.45 7.6 11.0 8.1 L10.95 8.15 10.65 8.45 10.5 8.45 10.35 8.45 9.95 8.5 9.85 8.5 9.65 8.6 9.45 8.75 9.05 9.35 8.95 9.5 Q8.8 10.05 8.8 10.85 L8.8 12.3 8.8 12.6 8.85 13.9 8.85 14.25 8.8 15.35 7.2 16.45 7.2 11.6 Q7.2 10.3 6.9 9.7 L6.35 8.8 6.35 8.7 5.4 8.7 4.75 8.7 3.95 8.7 3.55 8.7 2.6 8.7 2.6 9.0 2.6 10.75 2.6 13.7 2.25 13.7 1.95 13.7 1.8 13.7 1.8 10.4 1.8 10.3 Q1.8 8.85 2.25 8.1 L2.5 7.8 Q2.9 7.45 3.6 7.3 L4.7 7.2 6.15 7.45 6.6 7.75 7.65 7.35 8.45 7.45 Q9.25 7.4 9.8 6.35 L9.5 6.35 11.0 5.1 M8.85 12.3 L8.95 12.25 8.85 12.3 M2.75 14.45 L2.75 16.2 1.8 16.2 1.8 13.75 2.75 14.45" fill="#877e75" fill-rule="evenodd" stroke="none"/>
    <path d="M4.7 7.2 L3.6 7.3 3.4 7.3 1.75 6.95 1.35 6.2 Q1.6 5.45 2.0 4.9 L2.7 4.2 2.75 4.15 2.45 5.5 2.4 5.55 2.5 5.55 2.8 5.85 3.15 6.05 3.2 6.1 5.5 6.0 6.4 5.75 7.1 5.45 7.6 4.95 8.1 4.95 8.1 5.2 7.75 5.65 7.75 5.55 6.55 5.95 5.75 6.55 6.0 6.75 6.35 6.7 Q5.6 7.05 4.7 7.2" fill="#decdbd" fill-rule="evenodd" stroke="none"/>
    <path d="M6.35 8.8 L6.9 9.7 Q7.2 10.3 7.2 11.6 L7.2 16.45 6.35 16.45 6.35 15.1 6.4 13.7 6.35 10.45 6.35 9.45 6.35 8.8" fill="#af9f8f" fill-rule="evenodd" stroke="none"/>
    <path d="M2.6 13.7 L2.6 10.75 2.6 9.0 3.05 10.05 3.25 10.4 3.65 10.85 Q4.0 11.15 4.5 11.15 L4.6 11.15 Q5.45 11.1 5.9 10.3 L6.35 9.45 6.35 10.45 Q5.5 11.55 4.65 11.55 L4.0 11.45 3.6 11.3 3.4 13.15 4.9 12.95 4.1 13.5 3.7 13.7 2.6 13.7 M8.8 12.3 L8.8 10.85 10.2 9.6 10.45 9.55 Q11.0 9.55 11.0 10.75 11.0 11.3 10.5 11.8 9.95 12.3 8.85 12.3 L8.95 12.25 8.85 12.3 8.8 12.3" fill="#c48c56" fill-rule="evenodd" stroke="none"/>
    <path d="M2.6 9.0 L2.6 8.7 3.55 8.7 3.5 9.4 3.5 9.45 Q3.05 9.6 3.05 10.0 L3.05 10.05 2.6 9.0 M5.4 8.7 L6.35 8.7 6.35 8.8 6.35 9.45 5.9 10.3 Q5.45 11.1 4.6 11.15 5.4 11.0 5.4 10.25 L5.3 9.75 5.4 8.95 5.4 8.7" fill="#a9bfd7" fill-rule="evenodd" stroke="none"/>
    <path d="M8.85 14.25 L8.85 13.9 8.8 12.6 8.8 12.3 8.85 12.3 Q10.15 12.45 10.8 11.75 11.4 11.05 11.6 10.05 11.5 8.55 10.65 8.45 L10.95 8.15 11.0 8.1 Q11.45 7.6 11.5 6.75 L11.55 6.95 11.55 7.1 11.6 8.1 11.6 9.5 11.6 9.9 11.6 10.05 11.6 10.2 11.45 12.6 11.45 12.7 10.4 13.7 8.85 14.25" fill="url(#gradient0)" fill-rule="evenodd" stroke="none"/>
    <path d="M9.05 9.35 L9.45 8.75 9.65 8.6 9.85 8.5 9.95 8.5 10.35 8.45 9.4 9.35 9.05 9.35 M0.0 10.3 L0.3 9.4 0.8 8.9 0.95 8.8 0.95 9.5 Q0.45 10.3 0.2 10.3 L0.0 10.3 M4.45 12.35 L4.75 12.35 4.75 12.45 Q4.55 12.85 4.1 12.85 L4.2 12.65 4.25 12.55 4.45 12.35" fill="#fcd3ab" fill-rule="evenodd" stroke="none"/>
    <path d="M3.6 7.3 Q2.9 7.45 2.5 7.8 L2.25 8.1 Q1.8 8.85 1.8 10.3 L1.8 10.4 1.8 13.7 1.8 13.75 1.8 16.2 0.8 15.5 0.9 11.7 0.95 9.5 0.95 8.8 1.0 8.1 1.05 7.55 1.35 6.2 1.75 6.95 3.4 7.3 3.6 7.3" fill="url(#gradient1)" fill-rule="evenodd" stroke="none"/>
    <path d="M3.55 8.7 L3.95 8.7 3.9 9.1 Q3.9 9.7 4.3 9.7 4.7 9.7 4.75 8.7 L5.4 8.7 5.4 8.95 5.3 9.75 Q5.05 10.45 4.2 10.45 3.5 10.45 3.5 9.45 L3.5 9.4 3.55 8.7" fill="#2e804f" fill-rule="evenodd" stroke="none"/>
    <path d="M3.95 8.7 L4.75 8.7 Q4.7 9.7 4.3 9.7 3.9 9.7 3.9 9.1 L3.95 8.7" fill="#1f5d38" fill-rule="evenodd" stroke="none"/>
    <path d="M6.75 0.0 Q6.6 1.5 5.45 5.5 L4.45 5.55 4.45 2.75 3.55 5.6 3.3 5.55 2.5 5.55 2.4 5.55 2.45 5.5 2.75 4.15 3.45 0.85 Q3.55 0.6 5.05 0.3 L6.75 0.0" fill="#db4e4e" fill-opacity="0.9019608" fill-rule="evenodd" stroke="none"/>
    <path d="M11.5 6.75 L11.2 5.65 11.0 5.1 10.6 4.4 Q10.05 3.5 7.9 4.1 6.4 4.55 5.45 5.5 6.6 1.5 6.75 0.0 L10.3 2.15 Q12.35 3.6 12.25 4.95 L11.55 7.1 11.55 6.95 11.5 6.75" fill="#912525" fill-opacity="0.9019608" fill-rule="evenodd" stroke="none"/>
    <path d="M11.0 5.1 L9.5 6.35 9.8 6.35 Q9.25 7.4 8.45 7.45 L7.65 7.35 6.6 7.75 6.15 7.45 4.7 7.2 Q5.6 7.05 6.35 6.7 7.45 6.3 7.75 5.65 L8.1 5.2 8.1 4.95 7.6 4.95 7.1 5.45 6.4 5.75 5.5 6.0 3.2 6.1 3.15 6.05 2.8 5.85 2.5 5.55 3.3 5.55 3.55 5.6 4.45 2.75 4.45 5.55 5.45 5.5 Q6.4 4.55 7.9 4.1 10.05 3.5 10.6 4.4 L11.0 5.1" fill="url(#gradient2)" fill-rule="evenodd" stroke="none"/>
    <path d="M10.2 9.6 L8.8 10.85 M0.0 10.3 L0.3 9.4 0.8 8.9 0.95 8.8 M0.9 11.7 L0.8 11.65 0.4 11.35 Q0.0 11.0 0.0 10.45 L0.0 10.35 0.0 10.3 M6.35 15.1 L4.95 15.3 3.45 15.05 2.75 14.45 M4.9 12.95 L3.4 13.15 3.6 11.3" fill="none" stroke="#a16c2c" stroke-linecap="round" stroke-linejoin="round" stroke-width="1"/>
    <path d="M2.6 8.7 L3.55 8.7 3.95 8.7 4.75 8.7 5.4 8.7 6.35 8.7" fill="none" stroke="#5d554d" stroke-linecap="round" stroke-linejoin="round" stroke-width="1"/>
    <path d="M8.8 15.35 L8.85 14.25 10.4 13.7 11.45 12.7 11.45 12.6 11.6 10.2 11.6 10.05 11.6 9.9 11.6 9.5 11.6 8.1 11.55 7.1 M1.35 6.2 Q1.6 5.45 2.0 4.9 L2.7 4.2 2.75 4.15 M0.95 8.8 L1.0 8.1 1.05 7.55 1.35 6.2 M0.8 15.5 L0.9 11.7" fill="none" stroke="#918477" stroke-linecap="round" stroke-linejoin="round" stroke-width="1"/>
    <path d="M11.55 7.1 L12.25 4.95 Q12.35 3.6 10.3 2.15 L6.75 0.0 Q6.6 1.5 5.45 5.5 M6.75 0.0 L5.05 0.3 Q3.55 0.6 3.45 0.85 L2.75 4.15 2.45 5.5 2.4 5.55 2.5 5.55" fill="none" stroke="#f39595" stroke-linecap="round" stroke-linejoin="round" stroke-width="1"/>
  </g>
  <defs>
    <linearGradient gradientTransform="matrix(0.0, -0.0033, 0.0017, 0.0, 10.2, 9.95)" gradientUnits="userSpaceOnUse" id="gradient0" spreadMethod="pad" x1="-819.2" x2="819.2">
      <stop offset="0.0" stop-color="#5d554d"></stop>
      <stop offset="0.9882352941176471" stop-color="#877e75"></stop>
    </linearGradient>
    <linearGradient gradientTransform="matrix(0.0, -0.0014, 0.0062, 0.0, 5.9, 5.5)" gradientUnits="userSpaceOnUse" id="gradient1" spreadMethod="pad" x1="-819.2" x2="819.2">
      <stop offset="0.0" stop-color="#af9f8f"></stop>
      <stop offset="0.9882352941176471" stop-color="#6fa886"></stop>
    </linearGradient>
    <linearGradient gradientTransform="matrix(-8.0E-4, -0.0046, 0.0051, -9.0E-4, 6.45, 3.75)" gradientUnits="userSpaceOnUse" id="gradient2" spreadMethod="pad" x1="-819.2" x2="819.2">
      <stop offset="0.0" stop-color="#af9f8f"></stop>
      <stop offset="0.9882352941176471" stop-color="#de5d5d"></stop>
    </linearGradient>
  </defs>
</svg>