<?xml version="1.0" encoding="UTF-8" standalone="no"?>
<svg xmlns:xlink="http://www.w3.org/1999/xlink" height="19.4px" width="13.35px" xmlns="http://www.w3.org/2000/svg">
  <g transform="matrix(1.0, 0.0, 0.0, 1.0, 1.15, 3.3)">
    <path d="M1.1 2.6 L1.5 1.5 1.1 0.0 Q4.15 -4.55 8.1 0.0 L8.25 0.45 Q7.75 0.1 6.8 0.1 4.4 0.1 4.4 2.15 4.4 3.8 6.6 3.8 L6.9 3.8 4.35 4.2 2.05 3.8 Q1.6 3.55 1.1 2.6 M8.45 1.2 L9.2 1.9 8.5 2.9 8.55 2.25 8.45 1.2 M3.65 3.55 L1.95 2.5 1.5 1.5 1.95 2.5 3.65 3.55" fill="#c48c56" fill-rule="evenodd" stroke="none"/>
    <path d="M8.25 0.45 L8.45 1.2 8.55 2.25 8.5 2.9 8.3 3.05 7.6 3.5 6.9 3.8 6.6 3.8 Q4.4 3.8 4.4 2.15 4.4 0.1 6.8 0.1 7.75 0.1 8.25 0.45" fill="#ecab6c" fill-rule="evenodd" stroke="none"/>
    <path d="M10.0 2.8 L10.15 3.15 Q11.2 4.75 11.2 7.2 11.2 8.05 8.5 12.4 L8.05 12.55 8.0 12.55 7.3 13.05 6.9 13.1 8.05 11.0 Q9.15 8.85 9.15 6.75 L8.95 5.05 8.7 3.85 8.7 3.8 9.35 3.3 9.55 3.05 9.6 3.05 9.65 3.0 10.0 2.8" fill="url(#gradient0)" fill-rule="evenodd" stroke="none"/>
    <path d="M8.5 12.4 L8.1 12.9 7.75 13.75 7.05 14.8 5.25 15.1 Q3.9 15.05 3.3 14.55 L2.55 13.8 1.85 12.1 2.05 11.25 Q2.3 12.65 3.5 13.65 L4.85 14.4 Q5.7 13.85 6.8 11.95 8.3 9.15 8.3 6.75 8.3 4.6 7.55 4.35 L6.65 4.65 3.75 5.0 Q2.4 5.0 1.7 4.6 L0.65 3.85 Q0.8 3.1 1.1 2.6 1.6 3.55 2.05 3.8 L4.35 4.2 6.9 3.8 7.6 3.5 8.3 3.05 8.5 2.9 9.2 1.9 10.0 2.8 9.65 3.0 9.6 3.05 9.55 3.05 9.35 3.3 8.7 3.8 8.7 3.85 8.95 5.05 9.15 6.75 Q9.15 8.85 8.05 11.0 L6.9 13.1 7.3 13.05 8.0 12.55 8.05 12.55 8.5 12.4" fill="url(#gradient1)" fill-rule="evenodd" stroke="none"/>
    <path d="M2.05 11.25 L1.95 10.65 Q-0.15 6.95 -0.15 6.3 L0.65 3.85 1.7 4.6 Q2.4 5.0 3.75 5.0 L6.65 4.65 7.55 4.35 Q8.3 4.6 8.3 6.75 8.3 9.15 6.8 11.95 5.7 13.85 4.85 14.4 L3.5 13.65 Q2.3 12.65 2.05 11.25" fill="url(#gradient2)" fill-rule="evenodd" stroke="none"/>
    <path d="M1.1 2.6 L1.5 1.5 1.1 0.0 M8.25 0.45 L8.45 1.2 9.2 1.9 M1.5 1.5 L1.95 2.5 3.65 3.55" fill="none" stroke="#a16c2c" stroke-linecap="round" stroke-linejoin="round" stroke-width="1"/>
    <path d="M10.0 2.8 L10.15 3.15 Q11.2 4.75 11.2 7.2 11.2 8.05 8.5 12.4 L8.1 12.9 M1.85 12.1 L2.05 11.25 1.95 10.65 Q-0.15 6.95 -0.15 6.3 L0.65 3.85 Q0.8 3.1 1.1 2.6 M9.2 1.9 L10.0 2.8" fill="none" stroke="#5d554d" stroke-linecap="round" stroke-linejoin="round" stroke-opacity="0.49803922" stroke-width="1"/>
  </g>
  <defs>
    <linearGradient gradientTransform="matrix(-0.0018, 0.0, 0.0, -0.0063, 9.4, 7.95)" gradientUnits="userSpaceOnUse" id="gradient0" spreadMethod="pad" x1="-819.2" x2="819.2">
      <stop offset="0.0" stop-color="#af9f8f"></stop>
      <stop offset="0.9882352941176471" stop-color="#857565"></stop>
    </linearGradient>
    <linearGradient gradientTransform="matrix(0.0087, -9.0E-4, 3.0E-4, 0.0016, 8.3, 3.2)" gradientUnits="userSpaceOnUse" id="gradient1" spreadMethod="pad" x1="-819.2" x2="819.2">
      <stop offset="0.0" stop-color="#decdbd"></stop>
      <stop offset="1.0" stop-color="#9c8d7e"></stop>
    </linearGradient>
    <linearGradient gradientTransform="matrix(0.0045, 9.0E-4, -0.002, 0.006, 4.8, 9.05)" gradientUnits="userSpaceOnUse" id="gradient2" spreadMethod="pad" x1="-819.2" x2="819.2">
      <stop offset="0.0" stop-color="#af9f8f"></stop>
      <stop offset="0.9882352941176471" stop-color="#857565"></stop>
    </linearGradient>
  </defs>
</svg>