<?xml version="1.0" encoding="UTF-8" standalone="no"?>
<svg xmlns:xlink="http://www.w3.org/1999/xlink" height="16.2px" width="16px" xmlns="http://www.w3.org/2000/svg">
  <g transform="matrix(1.0, 0.0, 0.0, 1.0, -4.25, 2.1)">
    <path d="M6.2 11.8 L6.1 11.5 6.0 10.5 6.1 10.0 6.15 9.8 8.75 10.85 9.45 11.15 8.65 11.95 Q8.0 12.5 7.4 12.5 6.9 12.5 6.2 11.8 M8.75 10.85 L8.7 10.9 8.75 10.85" fill="#ecab6c" fill-rule="evenodd" stroke="none"/>
    <path d="M11.35 11.9 L11.7 12.05 Q10.65 13.1 9.05 13.1 7.4 13.1 6.6 12.35 L6.2 11.8 Q6.9 12.5 7.4 12.5 8.0 12.5 8.65 11.95 L9.45 11.15 11.35 11.9" fill="url(#gradient0)" fill-rule="evenodd" stroke="none"/>
    <path d="M6.15 9.8 L5.25 9.45 10.55 1.05 Q11.75 -0.75 14.7 -1.1 L15.6 -1.0 Q15.95 -0.35 15.95 0.6 L15.95 0.75 15.65 2.35 14.2 4.8 12.5 6.6 8.75 10.85 8.7 10.9 8.75 10.85 6.15 9.8" fill="#9a4848" fill-rule="evenodd" stroke="none"/>
    <path d="M15.6 -1.0 Q17.3 -0.7 18.35 0.9 19.25 2.3 19.25 3.65 L19.0 5.3 17.1 6.65 16.35 7.8 15.15 9.95 13.45 12.75 11.35 11.9 9.45 11.15 8.75 10.85 12.5 6.6 14.2 4.8 15.65 2.35 15.95 0.75 15.95 0.6 Q15.95 -0.35 15.6 -1.0" fill="#7e3838" fill-rule="evenodd" stroke="none"/>
    <path d="M6.15 9.8 L5.25 9.45 10.55 1.05 Q11.75 -0.75 14.7 -1.1 L15.6 -1.0 Q17.3 -0.7 18.35 0.9 19.25 2.3 19.25 3.65 L19.0 5.3 17.1 6.65 16.35 7.8 15.15 9.95 13.45 12.75 11.35 11.9 9.45 11.15 8.75 10.85 6.15 9.8 Z" fill="none" stroke="#642626" stroke-linecap="round" stroke-linejoin="round" stroke-width="1"/>
  </g>
  <defs>
    <linearGradient gradientTransform="matrix(-7.0E-4, 0.0055, -0.0046, -5.0E-4, 9.6, 12.35)" gradientUnits="userSpaceOnUse" id="gradient0" spreadMethod="pad" x1="-819.2" x2="819.2">
      <stop offset="0.0" stop-color="#c48c56"></stop>
      <stop offset="0.9882352941176471" stop-color="#fab470"></stop>
    </linearGradient>
  </defs>
</svg>