<?xml version="1.0" encoding="UTF-8" standalone="no"?>
<svg xmlns:xlink="http://www.w3.org/1999/xlink" height="9.35px" width="13.15px" xmlns="http://www.w3.org/2000/svg">
  <g id="shape0" transform="matrix(1.0, 0.0, 0.0, 1.0, 6.55, 4.65)">
    <path d="M-5.35 -1.5 L-3.85 -2.35 -4.3 -2.75 -4.3 -2.85 -1.45 -2.95 -2.05 -3.6 -2.05 -3.65 -1.1 -3.4 -0.55 -3.35 -0.2 -3.4 0.5 -3.55 1.9 -3.35 Q2.75 -2.9 3.55 -2.5 L2.6 -2.65 Q2.85 -2.4 3.75 -2.25 L4.85 -2.05 4.0 -1.9 4.45 -1.5 3.55 -1.7 3.5 -1.7 4.15 -0.85 4.15 -0.8 3.2 -1.3 2.75 -1.3 Q3.35 -0.3 4.0 -0.1 L4.0 -0.05 1.9 -0.4 2.5 0.6 Q1.5 -0.1 1.15 -0.1 L1.1 -0.15 1.1 -0.1 1.15 -0.1 1.25 0.6 1.55 1.1 -0.4 0.3 -0.2 1.4 -0.2 1.45 Q-2.0 0.95 -3.1 0.45 -4.05 -0.1 -4.8 -0.85 L-4.55 -1.15 -5.2 -1.25 -5.35 -1.5 M2.5 -2.65 L2.6 -2.65 2.5 -2.7 2.5 -2.65" fill="#faf8f8" fill-rule="evenodd" stroke="none"/>
    <path d="M4.45 -1.5 L4.9 -0.95 5.6 -0.1 5.6 -0.05 Q5.25 -0.1 4.6 -0.75 L4.45 -0.75 Q4.95 0.05 4.95 1.05 L4.9 1.85 4.85 2.0 4.55 1.4 4.2 0.8 4.0 0.75 3.9 1.3 3.6 1.95 3.45 1.5 3.25 1.45 3.25 1.9 3.65 2.95 2.5 2.0 1.55 1.4 Q1.55 2.25 1.05 2.85 L0.35 3.7 -0.25 2.7 -0.3 2.65 -0.75 3.25 -1.25 3.65 -1.35 3.65 Q-1.35 2.7 -2.0 2.7 L-3.05 3.25 -3.1 3.25 -3.6 1.45 -4.65 2.2 -4.55 1.9 Q-4.55 1.05 -5.45 -0.05 L-4.8 -0.85 Q-4.05 -0.1 -3.1 0.45 -2.0 0.95 -0.2 1.45 L-0.2 1.4 -0.4 0.3 1.55 1.1 1.25 0.6 1.15 -0.1 1.1 -0.1 1.1 -0.15 1.15 -0.1 Q1.5 -0.1 2.5 0.6 L1.9 -0.4 4.0 -0.05 4.0 -0.1 Q3.35 -0.3 2.75 -1.3 L3.2 -1.3 4.15 -0.8 4.15 -0.85 3.5 -1.7 3.55 -1.7 4.45 -1.5 M-5.2 -1.25 L-5.55 -1.35 -5.35 -1.5 -5.2 -1.25" fill="#d6baba" fill-rule="evenodd" stroke="none"/>
    <path d="M-5.35 -1.5 L-3.85 -2.35 -4.3 -2.75 -4.3 -2.85 -1.45 -2.95 -2.05 -3.6 -2.05 -3.65 -1.1 -3.4 -0.55 -3.35 -0.2 -3.4 0.5 -3.55 1.9 -3.35 Q2.75 -2.9 3.55 -2.5 L2.6 -2.65 Q2.85 -2.4 3.75 -2.25 L4.85 -2.05 4.0 -1.9 4.45 -1.5 4.9 -0.95 5.6 -0.1 5.6 -0.05 Q5.25 -0.1 4.6 -0.75 L4.45 -0.75 Q4.95 0.05 4.95 1.05 L4.9 1.85 4.85 2.0 4.55 1.4 4.2 0.8 4.0 0.75 3.9 1.3 3.6 1.95 3.45 1.5 3.25 1.45 3.25 1.9 3.65 2.95 2.5 2.0 1.55 1.4 Q1.55 2.25 1.05 2.85 L0.35 3.7 -0.25 2.7 -0.3 2.65 -0.75 3.25 -1.25 3.65 -1.35 3.65 Q-1.35 2.7 -2.0 2.7 L-3.05 3.25 -3.1 3.25 -3.6 1.45 -4.65 2.2 -4.55 1.9 Q-4.55 1.05 -5.45 -0.05 L-4.8 -0.85 -4.55 -1.15 -5.2 -1.25 -5.55 -1.35 -5.35 -1.5 M2.5 -2.65 L2.6 -2.65 2.5 -2.7 2.5 -2.65 Z" fill="none" stroke="#a36a6a" stroke-linecap="round" stroke-linejoin="round" stroke-width="1"/>
  </g>
</svg>