<?xml version="1.0" encoding="UTF-8" standalone="no"?>
<svg xmlns:xlink="http://www.w3.org/1999/xlink" height="16.7px" width="15.2px" xmlns="http://www.w3.org/2000/svg">
  <g id="shape0" transform="matrix(1.0, 0.0, 0.0, 1.0, 7.6, 8.35)">
    <path d="M1.0 -7.3 L1.9 -7.25 2.5 -6.7 2.7 -6.45 3.35 -4.85 3.55 -4.2 Q3.85 -3.3 4.3 -2.65 L4.35 -2.65 4.5 -2.4 4.75 -2.1 5.1 -1.75 5.2 -1.65 5.35 -1.5 5.4 -1.5 5.45 -1.45 5.95 -0.9 6.0 -0.9 Q6.8 0.15 6.55 1.55 L3.9 3.4 3.85 3.4 3.35 5.2 2.8 5.8 2.45 5.95 1.4 6.45 -0.05 7.0 -1.7 7.35 -1.95 7.35 -2.3 7.3 -2.65 7.3 -2.75 7.2 -2.8 7.1 -1.4 6.45 -1.0 6.3 Q-0.8 6.3 0.4 4.5 L0.65 3.2 Q0.75 2.2 1.2 2.2 L1.8 1.75 Q2.05 1.55 2.25 1.45 2.4 1.3 2.5 1.3 L3.05 1.4 3.5 1.55 4.15 1.4 4.2 1.4 4.8 1.0 4.7 1.1 4.3 0.7 4.2 0.6 3.45 -0.1 3.4 -0.1 2.95 0.1 Q2.8 0.3 2.4 0.3 L2.35 0.3 Q2.05 0.3 1.6 0.8 L0.9 1.25 Q-0.25 1.25 0.7 0.05 1.6 -1.05 2.65 -1.15 L2.7 -1.15 2.65 -1.2 2.35 -2.25 1.65 -2.35 1.35 -2.4 1.15 -2.25 0.75 -2.05 Q0.4 -2.05 -0.65 -3.15 L-1.65 -4.3 -2.85 -5.25 -3.6 -5.65 -3.75 -5.75 -3.75 -5.8 -3.8 -5.85 Q-1.75 -6.7 -0.4 -4.95 L-0.05 -4.45 0.35 -3.85 1.25 -3.25 1.2 -3.4 1.05 -3.7 0.9 -4.1 1.0 -4.25 1.1 -4.3 1.65 -4.2 Q2.1 -4.2 2.1 -4.8 L2.0 -5.25 1.95 -5.6 1.55 -6.5 1.0 -7.3 M-6.45 -0.75 L-6.1 -1.4 -2.9 -1.45 -0.95 -0.9 -0.95 -0.95 Q-0.6 -0.7 -0.6 -0.2 -0.6 0.1 -0.9 0.2 L-1.25 0.3 -6.45 -0.75 M0.5 -6.8 L0.5 -6.85 0.5 -6.95 0.85 -7.25 0.5 -6.8 M4.5 -2.4 L4.3 -2.65 4.5 -2.4" fill="#d6baba" fill-rule="evenodd" stroke="none"/>
    <path d="M-2.8 7.1 Q-3.45 5.9 -2.65 4.65 L-2.2 4.0 -1.45 3.15 -3.5 2.1 -5.6 0.85 -6.6 -0.55 -6.45 -0.75 -1.25 0.3 -0.9 0.2 Q-0.6 0.1 -0.6 -0.2 -0.6 -0.7 -0.95 -0.95 -0.95 -1.85 -1.75 -2.4 -3.3 -3.5 -3.7 -5.45 L-3.75 -5.8 -3.75 -5.75 -3.6 -5.65 -2.85 -5.25 -1.65 -4.3 -0.65 -3.15 Q0.4 -2.05 0.75 -2.05 L1.15 -2.25 1.35 -2.4 1.65 -2.35 2.35 -2.25 2.65 -1.2 2.7 -1.15 2.65 -1.15 Q1.6 -1.05 0.7 0.05 -0.25 1.25 0.9 1.25 L1.6 0.8 Q2.05 0.3 2.35 0.3 L2.4 0.3 Q2.8 0.3 2.95 0.1 L3.4 -0.1 3.45 -0.1 4.2 0.6 4.3 0.7 4.7 1.1 4.8 1.0 4.2 1.4 4.15 1.4 3.5 1.55 3.05 1.4 2.5 1.3 Q2.4 1.3 2.25 1.45 2.05 1.55 1.8 1.75 L1.2 2.2 Q0.75 2.2 0.65 3.2 L0.4 4.5 Q-0.8 6.3 -1.0 6.3 L-1.4 6.45 -2.8 7.1 M0.9 -4.1 Q0.45 -5.4 0.5 -6.8 L0.85 -7.25 0.9 -7.3 1.0 -7.3 1.55 -6.5 1.95 -5.6 2.0 -5.25 2.1 -4.8 Q2.1 -4.2 1.65 -4.2 L1.1 -4.3 1.0 -4.25 0.9 -4.1" fill="#faf8f8" fill-rule="evenodd" stroke="none"/>
    <path d="M1.0 -7.3 L1.9 -7.25 2.5 -6.7 2.7 -6.45 3.35 -4.85 3.55 -4.2 Q3.85 -3.3 4.3 -2.65 L4.5 -2.4 4.75 -2.1 5.1 -1.75 5.2 -1.65 M5.35 -1.5 L5.4 -1.5 5.45 -1.45 5.95 -0.9 6.0 -0.9 Q6.8 0.15 6.55 1.55 L3.9 3.4 3.85 3.4 3.35 5.2 2.8 5.8 2.45 5.95 1.4 6.45 -0.05 7.0 -1.7 7.35 -1.95 7.35 -2.3 7.3 -2.65 7.3 -2.75 7.2 -2.8 7.1 Q-3.45 5.9 -2.65 4.65 L-2.2 4.0 -1.45 3.15 -3.5 2.1 -5.6 0.85 -6.6 -0.55 -6.45 -0.75 M-6.1 -1.4 L-2.9 -1.45 -0.95 -0.9 -0.95 -0.95 Q-0.95 -1.85 -1.75 -2.4 -3.3 -3.5 -3.7 -5.45 L-3.75 -5.8 -3.8 -5.85 Q-1.75 -6.7 -0.4 -4.95 L-0.05 -4.45 0.35 -3.85 1.25 -3.25 1.2 -3.4 1.05 -3.7 M0.9 -4.1 Q0.45 -5.4 0.5 -6.8 M0.5 -6.85 L0.5 -6.95 0.85 -7.25 0.9 -7.3 1.0 -7.3" fill="none" stroke="#a36a6a" stroke-linecap="round" stroke-linejoin="round" stroke-width="1"/>
  </g>
</svg>