<?xml version="1.0" encoding="UTF-8" standalone="no"?>
<svg xmlns:xlink="http://www.w3.org/1999/xlink" height="48.75px" width="110.95px" xmlns="http://www.w3.org/2000/svg">
  <g transform="matrix(1.0, 0.0, 0.0, 1.0, 57.9, 61.75)">
    <path d="M3.15 -58.05 L-3.6 -56.15 Q5.0 -54.65 9.9 -51.25 11.75 -49.95 13.05 -48.4 L27.5 -49.55 Q33.45 -50.3 35.9 -48.5 L35.8 -48.0 14.05 -47.05 Q15.75 -44.25 15.75 -40.8 15.75 -38.0 14.1 -34.75 L16.75 -35.4 Q23.25 -36.6 36.1 -37.35 52.05 -37.2 52.05 -35.1 L51.75 -34.4 51.1 -34.15 45.7 -34.7 37.7 -35.25 Q24.5 -35.25 14.05 -33.1 L12.95 -32.85 Q11.0 -29.85 8.0 -27.1 L7.25 -27.8 10.25 -32.2 4.75 -30.65 -0.7 -29.35 Q-0.85 -27.3 -1.65 -25.0 -2.75 -21.8 -4.55 -20.1 L-5.25 -20.8 -4.1 -24.35 Q-3.35 -26.75 -3.1 -28.6 L-10.65 -26.1 -15.4 -24.45 Q-18.1 -23.45 -18.5 -22.75 -19.1 -21.75 -21.2 -20.6 -23.2 -19.55 -24.05 -19.55 -24.65 -19.55 -25.2 -19.9 L-25.8 -20.3 -28.5 -18.8 Q-26.1 -20.6 -26.1 -21.55 -26.1 -23.15 -23.2 -24.25 -20.9 -25.15 -19.0 -25.15 -17.55 -25.15 -7.7 -28.6 L-3.0 -30.2 -3.0 -30.35 Q-3.0 -35.5 -6.8 -39.7 -8.2 -41.25 -9.95 -42.4 -15.25 -40.8 -19.95 -38.75 -27.9 -35.25 -36.6 -29.35 L-51.15 -19.0 -51.55 -19.15 -51.65 -19.65 Q-51.65 -22.35 -38.05 -31.15 -25.85 -39.05 -21.9 -40.5 L-12.5 -43.85 Q-17.9 -46.5 -26.15 -46.9 L-28.25 -45.85 Q-35.85 -41.7 -43.6 -35.75 L-56.25 -25.8 -56.9 -26.5 Q-49.3 -36.25 -30.85 -46.85 L-36.1 -45.9 -42.15 -44.8 -42.7 -44.85 -43.0 -45.05 -43.05 -44.95 -43.1 -45.35 Q-43.1 -46.9 -27.5 -48.7 -19.9 -52.85 -12.8 -55.55 L-18.55 -56.05 -17.55 -56.8 -10.55 -57.05 -9.1 -56.9 Q2.6 -60.9 12.65 -60.75 8.0 -59.2 3.15 -58.05 M11.6 -46.75 Q1.15 -45.55 -7.65 -43.1 L-4.9 -40.75 Q-0.85 -36.55 -0.65 -31.0 L7.15 -33.25 11.55 -34.2 Q13.75 -37.9 13.75 -40.75 13.75 -44.1 11.6 -46.75 M6.65 -50.65 Q1.4 -53.45 -7.55 -54.9 -12.1 -53.35 -18.45 -50.5 L-22.85 -48.5 Q-15.3 -47.35 -10.2 -44.65 L-3.7 -46.65 10.25 -48.15 Q8.75 -49.5 6.65 -50.65 M-36.25 -14.05 L-33.1 -15.85 -36.1 -14.0 -36.25 -14.05" fill="#2d2549" fill-opacity="0.8" fill-rule="evenodd" stroke="none"/>
  </g>
</svg>