<?xml version="1.0" encoding="UTF-8" standalone="no"?>
<svg xmlns:xlink="http://www.w3.org/1999/xlink" height="33.6px" width="60.05px" xmlns="http://www.w3.org/2000/svg">
  <g transform="matrix(1.0, 0.0, 0.0, 1.0, 50.55, 54.25)">
    <path d="M0.55 -49.8 Q2.75 -47.5 2.75 -44.2 L2.65 -43.8 2.15 -43.65 Q0.45 -47.65 -0.65 -48.8 L-1.2 -49.3 -8.6 -47.1 -20.0 -43.45 Q-16.0 -42.25 -13.0 -40.0 -9.9 -38.8 -7.25 -35.3 4.05 -39.05 8.3 -39.5 8.5 -39.45 8.5 -38.8 L-5.9 -33.95 -6.2 -33.8 Q-3.85 -30.2 -3.85 -27.9 -3.85 -26.4 -4.2 -24.6 -4.7 -22.4 -5.5 -21.65 L-6.25 -22.35 -5.65 -26.55 Q-5.65 -29.85 -8.0 -33.15 -21.65 -28.25 -26.1 -25.25 L-26.15 -25.15 -26.25 -25.55 Q-26.25 -28.85 -10.2 -34.3 L-9.15 -34.65 -10.7 -36.25 Q-15.45 -40.85 -23.0 -42.4 L-26.25 -41.05 Q-35.65 -35.65 -39.65 -32.85 -46.9 -27.9 -48.35 -24.5 L-48.35 -24.4 -48.55 -24.25 -49.15 -25.1 Q-49.55 -25.7 -49.55 -26.05 -49.55 -28.2 -39.6 -35.1 -31.15 -41.0 -27.6 -42.65 L-26.8 -43.0 -31.65 -43.25 -36.0 -42.75 -37.95 -42.25 -38.75 -42.3 Q-35.2 -45.85 -26.45 -44.8 L-23.8 -44.4 Q-15.65 -48.1 -10.05 -49.55 L-3.55 -50.85 Q-6.75 -52.5 -12.0 -53.25 -5.0 -53.5 -1.25 -51.2 L5.75 -52.0 5.9 -51.35 0.55 -49.8" fill="#2d2549" fill-opacity="0.8" fill-rule="evenodd" stroke="none"/>
  </g>
</svg>