<?xml version="1.0" encoding="UTF-8" standalone="no"?>
<svg xmlns:xlink="http://www.w3.org/1999/xlink" height="37.8px" width="38px" xmlns="http://www.w3.org/2000/svg">
  <g transform="matrix(1.0, 0.0, 0.0, 1.0, 19, 18.9)">
    <path d="M-7.85 14.55 L-7.95 14.7 -8.0 14.65 -7.85 14.55 M11.2 9.1 L11.2 9.15 11.05 9.15 11.2 9.1" fill="#339999" fill-rule="evenodd" stroke="none"/>
    <path d="M-15.15 -0.65 L-15.0 0.4 -16.6 0.65 -16.7 0.2 -16.75 -0.45 -16.7 -2.4 -16.4 -3.05 -16.3 -3.1 -15.75 -2.1 -15.15 -0.65" fill="#ffffff" fill-rule="evenodd" stroke="none"/>
    <path d="M-17.1 0.7 L-17.4 0.15 Q-18.5 -1.65 -17.65 -2.6 L-16.6 -3.55 -16.35 -3.1 -16.4 -3.05 -16.7 -2.4 -16.75 -0.45 -16.7 0.2 -16.6 0.65 -17.1 0.7" fill="#ff0000" fill-rule="evenodd" stroke="none"/>
    <path d="M-14.0 12.4 L-14.9 12.95 Q-15.15 12.8 -15.25 11.85 -15.45 9.95 -16.2 8.35 L-16.45 7.95 -16.6 7.6 -17.15 5.5 -17.0 4.55 -16.9 4.1 -16.4 2.45 -16.35 2.0 Q-15.0 1.25 -13.55 0.9 L-13.4 1.0 -13.25 1.05 -11.85 1.8 -9.35 3.2 -8.05 3.95 -7.3 4.6 -7.05 4.85 -6.95 5.0 -6.15 5.95 -6.35 5.75 -9.0 5.85 Q-11.05 6.3 -12.0 7.7 L-13.45 9.95 Q-14.45 11.6 -14.45 12.3 L-14.4 12.65 -14.0 12.4 M-9.8 5.4 Q-9.2 5.0 -9.2 4.45 -9.2 3.25 -10.9 3.8 -12.6 4.3 -12.6 5.45 -12.45 6.35 -11.9 6.35 L-11.6 6.05 -11.15 5.75 -9.8 5.4 M-12.75 2.95 Q-13.15 3.05 -13.35 3.45 -13.15 3.05 -12.75 2.95" fill="#ffcc00" fill-rule="evenodd" stroke="none"/>
    <path d="M0.3 -13.65 L0.4 -13.6 0.35 -13.55 0.3 -13.65" fill="#d6baba" fill-rule="evenodd" stroke="none"/>
    <path d="M-16.95 1.0 L-17.1 0.7 -16.6 0.65 -16.95 1.0 M8.4 -6.9 L8.65 -6.85 8.4 -6.8 8.4 -6.9 M-11.85 1.8 L-13.25 1.05 -13.1 1.05 Q-13.0 1.05 -11.85 1.8 M-7.05 4.85 L-7.3 4.6 -6.85 4.75 -7.05 4.85 M-6.15 5.95 L-5.6 6.55 -5.5 6.5 -5.5 6.65 -6.15 5.95" fill="#faf8f8" fill-rule="evenodd" stroke="none"/>
    <path d="M-16.6 -3.55 L-16.7 -5.1 -16.9 -6.4 Q-17.35 -8.25 -16.5 -10.0 L-15.65 -11.75 -14.05 -14.1 -14.35 -12.65 Q-14.35 -10.6 -14.65 -8.65 -13.1 -10.5 -11.0 -11.6 -5.9 -14.45 -0.35 -16.35 L0.55 -16.65 -5.3 -11.35 -3.0 -11.9 Q-1.55 -12.35 0.35 -13.55 L0.4 -13.6 0.3 -13.65 3.35 -13.95 8.6 -14.15 11.9 -13.35 9.15 -11.8 Q4.55 -9.15 0.9 -8.45 L8.4 -6.9 8.4 -6.8 8.25 -6.75 Q6.45 -6.25 3.4 -4.85 0.25 -3.4 0.25 -3.05 0.25 -2.25 4.9 -1.4 L10.9 -0.5 5.4 0.55 Q1.95 1.0 1.95 1.95 1.95 2.45 2.1 2.45 L-0.1 3.25 -1.9 3.7 Q-2.3 3.0 -6.0 2.9 -9.15 2.8 -9.15 -0.6 L-9.3 -1.6 Q-9.8 -2.5 -11.8 -2.5 -13.05 -2.5 -15.15 -0.65 L-15.75 -2.1 -16.3 -3.1 -16.35 -3.1 -16.6 -3.55" fill="#516387" fill-rule="evenodd" stroke="none"/>
    <path d="M14.45 -12.75 L15.8 -12.45 Q14.05 -12.0 12.7 -11.0 L12.15 -10.35 13.8 -9.9 16.25 -8.05 17.65 -5.65 18.0 -5.15 13.75 -5.3 12.7 -5.3 14.0 -1.1 14.15 -0.5 14.25 -0.2 14.25 -0.15 15.5 5.25 16.25 8.5 13.75 7.15 10.85 5.5 Q10.45 5.75 10.4 6.05 L10.6 5.75 13.0 12.65 10.3 12.5 6.0 11.95 5.7 11.85 4.9 11.5 Q4.6 11.8 4.6 12.25 L3.9 16.6 3.8 17.2 1.35 16.2 -1.7 14.95 -0.8 17.9 -3.45 16.8 -4.25 15.95 -4.9 15.55 -6.0 14.6 Q-6.45 14.05 -7.2 13.9 -7.65 13.8 -7.7 14.1 L-7.85 14.55 -8.0 14.65 Q-8.55 14.1 -8.75 13.35 L-8.9 11.9 -6.3 11.45 -5.85 11.3 -4.9 10.9 -4.75 9.75 -4.25 7.95 -4.05 7.85 -4.65 7.4 -5.5 6.65 -5.5 6.5 -5.6 6.55 -6.15 5.95 -6.95 5.0 -7.05 4.85 -6.85 4.75 -7.3 4.6 -8.05 3.95 -9.35 3.2 -11.85 1.8 Q-13.0 1.05 -13.1 1.05 L-13.25 1.05 -13.4 1.0 -13.55 0.9 Q-15.0 1.25 -16.35 2.0 L-16.95 1.0 -16.6 0.65 -15.0 0.4 -15.15 -0.65 Q-13.05 -2.5 -11.8 -2.5 -9.8 -2.5 -9.3 -1.6 L-9.15 -0.6 Q-9.15 2.8 -6.0 2.9 -2.3 3.0 -1.9 3.7 L-0.1 3.25 2.1 2.45 Q1.95 2.45 1.95 1.95 1.95 1.0 5.4 0.55 L10.9 -0.5 4.9 -1.4 Q0.25 -2.25 0.25 -3.05 0.25 -3.4 3.4 -4.85 6.45 -6.25 8.25 -6.75 L8.4 -6.8 8.65 -6.85 8.4 -6.9 0.9 -8.45 Q4.55 -9.15 9.15 -11.8 L11.9 -13.35 14.2 -12.8 14.45 -12.75 M0.55 -16.65 L4.1 -17.9 Q3.15 -15.65 1.05 -14.45 L0.5 -13.9 0.3 -13.65 0.35 -13.55 Q-1.55 -12.35 -3.0 -11.9 L-5.3 -11.35 0.55 -16.65 M7.85 8.65 L10.25 9.0 11.05 9.15 10.25 9.0 7.85 8.65 M11.05 9.15 L11.2 9.15 11.2 9.1 11.05 9.15 M10.65 8.05 L11.2 9.1 10.65 8.05 10.6 8.0 10.6 8.05 10.65 8.05 M8.0 3.65 L8.35 4.15 8.45 4.3 9.45 5.95 10.6 8.0 9.45 5.95 8.45 4.3 8.35 4.15 8.0 3.65 M5.0 8.35 L5.25 10.5 5.4 11.0 5.7 11.85 5.4 11.0 5.25 10.5 5.0 8.35" fill="#2d2549" fill-rule="evenodd" stroke="none"/>
    <path d="M-8.9 11.9 L-9.3 11.9 -10.35 11.95 -12.45 12.05 -13.05 12.1 -13.45 12.0 -14.0 12.4 -14.4 12.65 -14.45 12.3 Q-14.45 11.6 -13.45 9.95 L-12.0 7.7 Q-11.05 6.3 -9.0 5.85 L-6.35 5.75 -6.15 5.95 -5.5 6.65 -4.65 7.4 -4.05 7.85 -4.25 7.95 -4.75 9.75 -4.9 10.9 -5.85 11.3 -6.3 11.45 -8.9 11.9 M-9.8 5.4 L-11.15 5.75 -11.6 6.05 -11.9 6.35 Q-12.45 6.35 -12.6 5.45 -12.6 4.3 -10.9 3.8 -9.2 3.25 -9.2 4.45 -9.2 5.0 -9.8 5.4 M-13.45 12.0 L-13.15 11.7 -12.7 11.45 -11.45 10.85 -9.75 9.85 Q-8.0 8.75 -5.8 8.35 L-4.25 7.95 -5.8 8.35 Q-8.0 8.75 -9.75 9.85 L-11.45 10.85 -12.7 11.45 -13.15 11.7 -13.45 12.0" fill="#e6941a" fill-rule="evenodd" stroke="none"/>
    <path d="M14.45 -12.75 L15.8 -12.45 Q14.05 -12.0 12.7 -11.0 L12.15 -10.35 13.8 -9.9 M-3.45 16.8 L-4.25 15.95 -4.9 15.55 -6.0 14.6 Q-6.45 14.05 -7.2 13.9 -7.65 13.8 -7.7 14.1 L-7.85 14.55 -7.95 14.7 -8.0 14.65 Q-8.55 14.1 -8.75 13.35 L-8.9 11.9 -9.3 11.9 -10.35 11.95 -12.45 12.05 -13.05 12.1 -13.45 12.0 -14.0 12.4 -14.9 12.95 Q-15.15 12.8 -15.25 11.85 -15.45 9.95 -16.2 8.35 L-16.45 7.95 -16.6 7.6 -17.15 5.5 -17.0 4.55 -16.9 4.1 -16.4 2.45 -16.35 2.0 -16.95 1.0 -17.1 0.7 -17.4 0.15 Q-18.5 -1.65 -17.65 -2.6 L-16.6 -3.55 -16.7 -5.1 -16.9 -6.4 Q-17.35 -8.25 -16.5 -10.0 L-15.65 -11.75 -14.05 -14.1 -14.35 -12.65 Q-14.35 -10.6 -14.65 -8.65 -13.1 -10.5 -11.0 -11.6 -5.9 -14.45 -0.35 -16.35 L0.55 -16.65 4.1 -17.9 Q3.15 -15.65 1.05 -14.45 L0.5 -13.9 0.3 -13.65 3.35 -13.95 8.6 -14.15 11.9 -13.35 14.2 -12.8 M-15.15 -0.65 L-15.0 0.4 -16.6 0.65 -17.1 0.7 M11.05 9.15 L10.25 9.0 7.85 8.65 M11.2 9.1 L11.2 9.15 11.05 9.15 M11.2 9.1 L10.65 8.05 10.6 8.0 9.45 5.95 8.45 4.3 8.35 4.15 8.0 3.65 M5.7 11.85 L5.4 11.0 5.25 10.5 5.0 8.35 M-16.6 -3.55 L-16.35 -3.1 -16.3 -3.1 -15.75 -2.1 -15.15 -0.65 M-16.4 -3.05 L-16.7 -2.4 -16.75 -0.45 -16.7 0.2 -16.6 0.65 M-16.35 -3.1 L-16.4 -3.05 M-7.3 4.6 L-8.05 3.95 -9.35 3.2 -11.85 1.8 -13.25 1.05 M-13.4 1.0 L-13.55 0.9 Q-15.0 1.25 -16.35 2.0 M-6.15 5.95 L-6.95 5.0 -7.05 4.85 -7.3 4.6 M-4.25 7.95 L-5.8 8.35 Q-8.0 8.75 -9.75 9.85 L-11.45 10.85 -12.7 11.45 -13.15 11.7 -13.45 12.0 M-6.15 5.95 L-5.5 6.65 -4.65 7.4 -4.05 7.85 -4.25 7.95 -4.75 9.75 -4.9 10.9 -5.85 11.3 -6.3 11.45 -8.9 11.9 M-13.35 3.45 Q-13.15 3.05 -12.75 2.95" fill="none" stroke="#660000" stroke-linecap="round" stroke-linejoin="round" stroke-opacity="0.6" stroke-width="1"/>
    <path d="M-2.9 -0.7 L-1.7 -0.7 -0.8 0.3 Q-0.45 0.7 -0.25 1.25 0.05 2.1 -0.3 2.7 -0.55 3.25 -0.95 3.65 L-1.9 4.1 -2.65 4.35 -2.05 3.25 Q-1.65 2.5 -1.65 1.85 -1.65 1.1 -2.0 0.35 -2.25 -0.35 -2.9 -0.7 L-2.9 0.65 -2.8 1.65 -2.75 2.55 -2.9 3.5 -3.15 4.35 -4.1 3.75 -4.7 2.75 -4.8 1.3 -4.35 -0.15 -2.9 -0.7" fill="#ff0000" fill-rule="evenodd" stroke="none"/>
    <path d="M-2.65 4.35 L-1.9 4.1 -0.95 3.65 Q-0.55 3.25 -0.3 2.7 0.05 2.1 -0.25 1.25 -0.45 0.7 -0.8 0.3 L-1.7 -0.7 1.95 0.55 3.3 1.0 4.9 1.4 3.05 1.95 1.35 2.85 0.15 3.55 -0.65 3.85 -1.45 4.1 -2.6 4.35 -2.65 4.35 M-3.15 4.45 L-4.5 4.3 -5.7 3.6 -6.65 3.05 -7.3 2.75 -8.55 1.85 -6.85 1.1 -6.0 0.7 -4.35 -0.15 -4.8 1.3 -4.7 2.75 -4.1 3.75 -3.15 4.35 -3.15 4.45" fill="#ffffff" fill-rule="evenodd" stroke="none"/>
    <path d="M-2.9 -0.7 Q-2.25 -0.35 -2.0 0.35 -1.65 1.1 -1.65 1.85 -1.65 2.5 -2.05 3.25 L-2.65 4.35 -3.15 4.35 -2.9 3.5 -2.75 2.55 -2.8 1.65 -2.9 0.65 -2.9 -0.7" fill="#000000" fill-rule="evenodd" stroke="none"/>
    <path d="M-1.7 -0.7 L-2.9 -0.7 Q-2.25 -0.35 -2.0 0.35 -1.65 1.1 -1.65 1.85 -1.65 2.5 -2.05 3.25 L-2.65 4.35 -1.9 4.1 -0.95 3.65 Q-0.55 3.25 -0.3 2.7 0.05 2.1 -0.25 1.25 -0.45 0.7 -0.8 0.3 L-1.7 -0.7 1.95 0.55 3.3 1.0 4.9 1.4 3.05 1.95 1.35 2.85 0.15 3.55 -0.65 3.85 -1.45 4.1 -2.6 4.35 -2.9 4.45 -3.15 4.45 -4.5 4.3 -5.7 3.6 -6.65 3.05 -7.3 2.75 -8.55 1.85 -6.85 1.1 -6.0 0.7 -4.35 -0.15 -2.9 -0.7 -2.9 0.65 -2.8 1.65 -2.75 2.55 -2.9 3.5 -3.15 4.35 -2.65 4.35 -2.9 4.45 M-3.15 4.35 L-4.1 3.75 -4.7 2.75 -4.8 1.3 -4.35 -0.15 M-3.15 4.45 L-3.15 4.35" fill="none" stroke="#660000" stroke-linecap="round" stroke-linejoin="round" stroke-opacity="0.6" stroke-width="1"/>
  </g>
</svg>