<?xml version="1.0" encoding="UTF-8" standalone="no"?>
<svg xmlns:xlink="http://www.w3.org/1999/xlink" height="73.35px" width="64px" xmlns="http://www.w3.org/2000/svg">
  <g transform="matrix(1.0, 0.0, 0.0, 1.0, 36.25, 38.05)">
    <path d="M-31.4 1.85 L-32.55 0.7 -33.35 -0.8 Q-33.95 -2.8 -34.05 -5.05 L-32.9 -5.35 Q-31.65 -7.25 -32.9 -9.3 L-33.45 -10.0 Q-32.95 -11.4 -32.0 -12.35 L-31.4 -12.75 Q-29.6 -12.65 -28.25 -11.75 -26.95 -10.95 -26.1 -9.35 -25.35 -7.95 -25.0 -6.35 L-24.85 -5.65 Q-24.75 -4.6 -24.95 -3.7 L-25.3 -2.05 -25.7 -0.45 -26.85 1.95 -31.4 1.85 M-17.25 4.2 Q-17.8 1.65 -17.5 -0.8 L-17.05 -3.45 Q-16.7 -4.95 -15.55 -5.75 L-13.35 -7.15 Q-12.3 -7.65 -11.2 -7.95 L-8.15 -8.55 -5.7 -8.25 -3.3 -7.45 Q-0.65 -6.1 0.5 -3.5 1.7 -0.75 1.25 2.2 0.8 5.05 -0.85 7.25 L-2.55 9.3 -4.25 10.85 Q-6.0 12.2 -8.35 12.25 L-9.95 12.2 -11.55 11.8 Q-12.75 11.35 -13.7 10.45 -15.8 8.55 -16.75 5.9 L-16.85 5.6 -17.25 4.2 M-7.8 -1.3 L-8.25 -0.15 Q-8.25 1.2 -7.35 2.2 -6.6 3.05 -6.05 3.05 -5.1 3.05 -4.3 2.2 -3.45 1.35 -3.45 0.3 -3.45 -0.55 -4.65 -1.35 L-6.1 -2.15 -6.8 -2.2 Q-7.3 -2.2 -7.8 -1.3" fill="#ffffff" fill-rule="evenodd" stroke="none"/>
    <path d="M-34.15 6.15 L-34.9 5.0 Q-35.55 3.95 -34.9 2.8 -34.4 2.05 -33.5 2.05 L-31.4 1.85 -26.85 1.95 -21.9 2.95 Q-19.55 3.45 -17.25 4.2 L-16.85 5.6 -16.75 5.9 Q-18.15 4.75 -18.15 6.65 L-16.2 9.4 -14.8 11.65 -15.2 11.45 -15.6 11.25 -15.85 11.1 Q-18.15 9.65 -24.1 7.35 -27.9 5.95 -30.1 5.5 L-32.5 5.45 Q-33.05 5.8 -32.7 6.6 L-33.45 6.3 -34.15 6.15 M-14.45 15.1 L-14.55 15.6 -14.55 15.7 -14.65 16.2 -14.8 17.0 -14.45 15.1 M-15.3 19.55 L-15.35 20.15 -15.45 20.15 -15.3 19.55 M-14.85 19.85 L-15.15 20.5 -15.2 20.5 -14.85 19.85" fill="#ffcc00" fill-rule="evenodd" stroke="none"/>
    <path d="M9.4 -35.8 L6.6 -31.8 2.95 -26.2 0.4 -22.45 -2.55 -18.2 -3.3 -17.25 -3.75 -16.75 -3.45 -16.75 -0.9 -16.9 1.9 -17.35 1.65 -16.9 1.65 -16.75 1.7 -16.75 3.1 -17.15 6.4 -18.25 8.4 -19.0 10.7 -19.9 12.2 -20.55 Q17.85 -22.95 20.2 -24.3 L20.35 -24.25 20.35 -24.1 Q19.6 -23.1 10.6 -18.1 L8.3 -16.85 8.1 -16.75 3.05 -14.0 Q-1.8 -11.45 -5.3 -9.65 L-7.1 -8.8 -8.75 -13.6 -9.5 -13.6 -11.05 -12.65 -15.0 -9.9 -20.7 -5.75 -20.7 -13.6 -20.85 -13.6 -23.4 -8.45 -24.85 -5.65 -25.0 -6.35 Q-25.35 -7.95 -26.1 -9.35 -26.95 -10.95 -28.25 -11.75 -27.75 -14.75 -27.75 -17.2 L-28.05 -20.7 Q-28.45 -23.55 -28.8 -24.25 L-28.8 -25.0 Q-27.85 -24.0 -26.0 -19.65 L-24.0 -14.5 -23.85 -14.5 -20.6 -24.55 Q-17.55 -34.3 -17.55 -36.9 L-17.5 -36.9 Q-15.85 -31.45 -15.35 -26.65 L-14.45 -19.05 -10.2 -23.05 -10.2 -23.1 Q-5.4 -27.4 -1.65 -29.5 L9.4 -35.8 M17.5 -13.45 L18.45 -13.65 19.35 -13.65 18.45 -12.45 16.1 -9.8 12.75 -6.25 12.9 -6.2 10.1 -5.55 8.2 -5.15 7.05 -4.9 3.0 -4.05 1.45 -3.8 2.95 -4.85 3.4 -5.15 5.25 -6.55 6.9 -7.3 17.5 -13.45" fill="#516387" fill-rule="evenodd" stroke="none"/>
    <path d="M11.1 -36.85 L11.2 -35.9 Q11.2 -33.15 6.9 -25.85 L3.15 -19.5 1.9 -17.35 -0.9 -16.9 -3.45 -16.75 -3.75 -16.75 -3.3 -17.25 -2.55 -18.2 0.4 -22.45 2.95 -26.2 6.6 -31.8 9.4 -35.8 11.05 -36.85 11.1 -36.85 M20.35 -24.1 Q19.9 -22.7 17.2 -18.3 14.45 -13.8 13.3 -12.6 L17.5 -13.45 6.9 -7.3 5.25 -6.55 3.4 -5.15 2.95 -4.85 1.45 -3.8 3.0 -4.05 7.05 -4.9 8.2 -5.15 10.1 -5.55 12.9 -6.2 15.8 -5.5 16.55 -5.35 21.55 -4.9 25.25 -5.1 26.75 -5.3 26.75 -5.2 22.4 -2.15 Q17.8 1.15 14.25 1.6 L14.2 1.6 10.25 2.3 6.2 3.4 3.55 4.4 2.55 4.85 2.4 4.85 3.7 5.6 4.7 6.15 5.65 6.6 8.55 6.95 5.3 8.9 4.9 9.15 4.75 9.2 Q2.45 10.4 1.9 10.4 L1.75 10.55 Q4.25 16.1 5.7 20.9 -1.3 16.25 -2.55 15.8 -2.35 16.8 -3.05 19.55 L-3.75 22.75 -7.15 19.75 Q-8.15 18.8 -8.7 18.5 -8.2 16.45 -8.25 14.2 L-8.35 12.25 Q-6.0 12.2 -4.25 10.85 L-2.55 9.3 -0.85 7.25 Q0.8 5.05 1.25 2.2 1.7 -0.75 0.5 -3.5 -0.65 -6.1 -3.3 -7.45 L-5.7 -8.25 -8.15 -8.55 -11.2 -7.95 Q-12.3 -7.65 -13.35 -7.15 L-15.55 -5.75 Q-16.7 -4.95 -17.05 -3.45 L-17.5 -0.8 Q-17.8 1.65 -17.25 4.2 -19.55 3.45 -21.9 2.95 L-26.85 1.95 -25.7 -0.45 -25.3 -2.05 -24.95 -3.7 Q-24.75 -4.6 -24.85 -5.65 L-23.4 -8.45 -20.85 -13.6 -20.7 -13.6 -20.7 -5.75 -15.0 -9.9 -11.05 -12.65 -9.5 -13.6 -8.75 -13.6 -7.1 -8.8 -5.3 -9.65 Q-1.8 -11.45 3.05 -14.0 L8.1 -16.75 8.3 -16.85 10.6 -18.1 Q19.6 -23.1 20.35 -24.1 M-34.3 1.35 L-34.3 1.25 -34.05 1.2 -34.3 1.35" fill="#2d2549" fill-rule="evenodd" stroke="none"/>
    <path d="M-8.7 18.5 L-9.05 19.6 Q-9.95 22.2 -11.35 24.95 L-13.65 28.8 -15.95 33.95 -16.6 34.3 -18.45 31.1 -18.45 31.15 -18.75 30.65 -26.1 18.05 -26.25 17.6 -26.5 17.05 -26.7 16.7 -27.65 15.15 -27.7 15.1 -27.95 14.65 -30.0 11.75 -30.35 11.35 -33.15 7.65 -34.15 6.15 -33.45 6.3 -32.7 6.6 -32.5 7.0 -32.45 7.15 -31.6 8.4 -31.5 8.5 -29.55 10.9 -28.8 11.75 -25.35 15.35 -24.15 16.95 -17.9 28.5 -17.75 28.2 -16.05 22.8 -15.85 22.0 -15.85 21.9 -15.85 21.85 -15.45 20.15 -15.35 20.15 -15.3 19.55 -15.1 18.45 -14.8 17.05 -14.8 17.0 -14.65 16.2 -14.55 15.7 -14.55 15.6 -14.45 15.1 -14.25 13.9 -14.15 13.4 -14.15 13.3 -14.1 13.1 -14.1 12.9 -14.1 12.85 -14.0 12.15 -14.05 12.1 -14.2 12.0 -14.8 11.65 -16.2 9.4 -18.15 6.65 Q-18.15 4.75 -16.75 5.9 -15.8 8.55 -13.7 10.45 -12.75 11.35 -11.55 11.8 L-9.95 12.2 -8.35 12.25 -8.25 14.2 Q-8.2 16.45 -8.7 18.5 M-14.85 19.85 L-15.2 20.5 -15.15 20.5 -14.85 19.85 M-27.65 15.15 L-27.95 14.65 -27.65 15.15 M-18.45 31.1 L-18.75 30.65 -18.45 31.1" fill="#e6941a" fill-rule="evenodd" stroke="none"/>
    <path d="M-34.05 -5.05 L-33.7 -9.0 -33.45 -10.0 -32.9 -9.3 Q-31.65 -7.25 -32.9 -5.35 L-34.05 -5.05 M-7.8 -1.3 Q-7.3 -2.2 -6.8 -2.2 L-6.1 -2.15 -4.65 -1.35 Q-3.45 -0.55 -3.45 0.3 -3.45 1.35 -4.3 2.2 -5.1 3.05 -6.05 3.05 -6.6 3.05 -7.35 2.2 -8.25 1.2 -8.25 -0.15 L-7.8 -1.3" fill="#ff0000" fill-opacity="0.8" fill-rule="evenodd" stroke="none"/>
    <path d="M-14.8 11.65 L-14.2 12.0 -14.05 12.1 -14.0 12.15 -14.1 12.85 -14.1 12.9 -14.1 13.1 -14.15 13.3 -14.15 13.4 -14.25 13.9 -14.45 15.1 -14.8 17.0 -14.8 17.05 -15.1 18.45 -15.3 19.55 -15.45 20.15 -15.85 21.85 -15.85 21.9 -15.85 22.0 -16.05 22.8 -17.75 28.2 -17.9 28.5 -24.15 16.95 -25.35 15.35 -28.8 11.75 -29.55 10.9 -31.5 8.5 -31.6 8.4 -32.45 7.15 -32.5 7.0 -32.7 6.6 Q-33.05 5.8 -32.5 5.45 L-30.1 5.5 Q-27.9 5.95 -24.1 7.35 -18.15 9.65 -15.85 11.1 L-15.6 11.25 -15.2 11.45 -14.8 11.65 M-15.85 22.0 L-15.85 21.85 -15.85 22.0" fill="#660000" fill-rule="evenodd" stroke="none"/>
    <path d="M1.9 -17.35 L3.15 -19.5 6.9 -25.85 Q11.2 -33.15 11.2 -35.9 L11.1 -36.85 11.05 -37.0 11.05 -36.85 9.4 -35.8 -1.65 -29.5 Q-5.4 -27.4 -10.2 -23.1 L-10.2 -23.05 -14.45 -19.05 -15.35 -26.65 Q-15.85 -31.45 -17.5 -36.9 L-17.55 -37.05 -17.55 -36.9 Q-17.55 -34.3 -20.6 -24.55 L-23.85 -14.5 -24.0 -14.5 -26.0 -19.65 Q-27.85 -24.0 -28.8 -25.0 L-28.8 -24.25 Q-28.45 -23.55 -28.05 -20.7 L-27.75 -17.2 Q-27.75 -14.75 -28.25 -11.75 -29.6 -12.65 -31.4 -12.75 L-32.0 -12.35 Q-32.95 -11.4 -33.45 -10.0 L-32.9 -9.3 Q-31.65 -7.25 -32.9 -5.35 L-34.05 -5.05 -33.7 -9.0 -33.45 -10.0 M1.9 -17.35 L1.65 -16.9 1.65 -16.75 1.7 -16.75 3.1 -17.15 6.4 -18.25 8.4 -19.0 10.7 -19.9 12.2 -20.55 Q17.85 -22.95 20.2 -24.3 L20.35 -24.3 20.35 -24.25 20.35 -24.1 Q19.9 -22.7 17.2 -18.3 14.45 -13.8 13.3 -12.6 L17.5 -13.45 18.45 -13.65 19.35 -13.65 18.45 -12.45 16.1 -9.8 12.75 -6.25 12.9 -6.2 15.8 -5.5 16.55 -5.35 21.55 -4.9 25.25 -5.1 26.75 -5.3 M26.75 -5.2 L22.4 -2.15 Q17.8 1.15 14.25 1.6 L14.2 1.6 10.25 2.3 6.2 3.4 3.55 4.4 2.55 4.85 2.4 4.85 3.7 5.6 4.7 6.15 5.65 6.6 8.55 6.95 5.3 8.9 4.9 9.15 4.75 9.2 Q2.45 10.4 1.9 10.4 L1.75 10.55 Q4.25 16.1 5.7 20.9 -1.3 16.25 -2.55 15.8 -2.35 16.8 -3.05 19.55 L-3.75 22.75 -7.15 19.75 Q-8.15 18.8 -8.7 18.5 L-9.05 19.6 Q-9.95 22.2 -11.35 24.95 L-13.65 28.8 -15.95 33.95 -16.6 34.3 -18.45 31.1 -18.75 30.65 -26.1 18.05 -26.25 17.6 -26.5 17.05 -26.7 16.7 -27.65 15.15 -27.95 14.65 -30.0 11.75 -30.35 11.35 -33.15 7.65 -34.15 6.15 -34.9 5.0 Q-35.55 3.95 -34.9 2.8 -34.4 2.05 -33.5 2.05 L-31.4 1.85 -32.55 0.7 -33.35 -0.8 Q-33.95 -2.8 -34.05 -5.05 M-24.85 -5.65 Q-24.75 -4.6 -24.95 -3.7 L-25.3 -2.05 -25.7 -0.45 -26.85 1.95 -21.9 2.95 Q-19.55 3.45 -17.25 4.2 -17.8 1.65 -17.5 -0.8 L-17.05 -3.45 Q-16.7 -4.95 -15.55 -5.75 L-13.35 -7.15 Q-12.3 -7.65 -11.2 -7.95 L-8.15 -8.55 -5.7 -8.25 -3.3 -7.45 Q-0.65 -6.1 0.5 -3.5 1.7 -0.75 1.25 2.2 0.8 5.05 -0.85 7.25 L-2.55 9.3 -4.25 10.85 Q-6.0 12.2 -8.35 12.25 L-8.25 14.2 Q-8.2 16.45 -8.7 18.5 M-24.85 -5.65 L-25.0 -6.35 Q-25.35 -7.95 -26.1 -9.35 -26.95 -10.95 -28.25 -11.75 M-7.8 -1.3 L-8.25 -0.15 Q-8.25 1.2 -7.35 2.2 -6.6 3.05 -6.05 3.05 -5.1 3.05 -4.3 2.2 -3.45 1.35 -3.45 0.3 -3.45 -0.55 -4.65 -1.35 L-6.1 -2.15 -6.8 -2.2 Q-7.3 -2.2 -7.8 -1.3 M-8.35 12.25 L-9.95 12.2 -11.55 11.8 Q-12.75 11.35 -13.7 10.45 -15.8 8.55 -16.75 5.9 L-16.85 5.6 -17.25 4.2 M-14.8 11.65 L-14.2 12.0 -14.05 12.1 -14.0 12.15 -14.1 12.85 -14.1 12.9 -14.1 13.1 -14.15 13.3 -14.15 13.4 -14.25 13.9 -14.45 15.1 -14.8 17.0 -14.8 17.05 -15.1 18.45 -15.3 19.55 -15.45 20.15 -15.85 21.85 -15.85 22.0 -16.05 22.8 -17.75 28.2 -17.9 28.5 -24.15 16.95 -25.35 15.35 -28.8 11.75 -29.55 10.9 -31.5 8.5 M-31.6 8.4 L-32.45 7.15 -32.5 7.0 -32.7 6.6 Q-33.05 5.8 -32.5 5.45 L-30.1 5.5 Q-27.9 5.95 -24.1 7.35 -18.15 9.65 -15.85 11.1 L-15.6 11.25 -15.2 11.45 -14.8 11.65 M-34.3 1.35 L-34.05 1.2 -34.3 1.25 M-26.85 1.95 L-31.4 1.85" fill="none" stroke="#660000" stroke-linecap="round" stroke-linejoin="round" stroke-opacity="0.6" stroke-width="1"/>
  </g>
</svg>