<?xml version="1.0" encoding="UTF-8" standalone="no"?>
<svg xmlns:xlink="http://www.w3.org/1999/xlink" height="27.35px" width="43.8px" xmlns="http://www.w3.org/2000/svg">
  <g transform="matrix(1.0, 0.0, 0.0, 1.0, 21.9, 14.85)">
    <path d="M-0.55 2.35 L-1.1 1.75 -1.6 1.25 -2.05 0.35 -1.8 -1.15 -1.7 -1.35 -1.4 -1.9 -1.05 -2.6 0.05 -4.0 0.1 -4.05 0.15 -4.1 0.6 -4.5 0.6 -4.55 0.95 -4.9 1.2 -5.3 1.75 -6.1 Q1.7 -5.65 2.0 -5.35 L2.65 -4.85 Q4.1 -4.05 5.7 -4.05 L5.7 -3.5 5.15 -3.65 1.3 -3.3 0.75 -2.8 Q0.6 -2.35 0.75 -1.95 L1.4 -1.05 Q2.05 -0.55 2.9 -0.45 L5.15 -0.4 5.2 -0.4 5.15 -0.3 4.75 0.45 3.5 0.35 2.1 0.1 0.25 0.15 Q-0.35 1.2 -0.55 2.35 M-3.15 -1.15 L-3.35 -1.1 -3.4 -1.2 -3.2 -1.2 -3.15 -1.15 M-12.95 -6.55 Q-12.05 -7.85 -10.5 -8.4 L-9.55 -8.7 -6.1 -9.8 -4.8 -10.15 -4.7 -10.2 -2.75 -11.05 Q-2.45 -11.05 -1.05 -12.2 0.3 -13.4 5.85 -13.85 L5.75 -10.45 5.8 -8.95 Q3.1 -8.05 2.2 -7.15 L2.2 -7.2 2.25 -7.75 Q-0.8 -5.55 -2.15 -4.95 L-5.9 -3.75 Q-7.05 -3.35 -11.3 -2.3 L-11.6 -2.2 -11.3 -2.65 Q-10.7 -3.55 -10.95 -4.55 L-11.35 -5.35 -11.65 -5.65 -12.95 -6.55 M-3.6 -7.65 L-3.7 -8.45 Q-3.9 -9.25 -5.75 -8.9 L-7.15 -8.2 -8.0 -7.6 -8.25 -7.2 Q-8.45 -6.2 -7.85 -5.45 L-7.4 -5.1 -7.0 -5.05 Q-5.6 -5.35 -4.45 -6.25 L-3.75 -7.05 Q-3.55 -7.3 -3.6 -7.65" fill="#ffcc00" fill-rule="evenodd" stroke="none"/>
    <path d="M20.3 0.25 L20.55 0.65 Q20.95 1.35 20.9 2.15 L20.85 3.45 Q20.8 4.7 20.2 5.75 L19.6 6.8 18.95 6.05 17.75 4.9 17.0 4.3 Q15.95 3.3 15.4 2.05 L15.4 2.0 15.3 1.35 Q15.45 -0.4 16.7 -1.65 L17.6 -2.3 Q19.35 -1.2 20.3 0.25 M8.5 4.2 L8.3 4.55 6.65 6.8 4.8 9.4 4.2 10.7 3.75 11.5 3.6 11.4 3.3 11.1 2.45 10.25 0.9 8.45 Q-0.2 7.05 -0.45 5.3 L-0.6 3.45 -0.55 2.35 Q-0.35 1.2 0.25 0.15 L2.1 0.1 3.5 0.35 4.75 0.45 4.95 0.45 Q5.6 0.45 6.25 0.8 L6.3 0.8 Q6.95 1.15 7.45 1.85 L8.2 2.85 8.5 3.8 8.5 4.2 M-13.35 -1.0 L-13.9 -0.85 -17.4 -0.55 Q-19.25 -0.6 -20.9 0.3 L-19.7 -1.9 -18.3 -3.6 -15.65 -5.65 Q-14.4 -6.45 -12.95 -6.55 L-11.65 -5.65 -11.35 -5.35 -10.95 -4.55 Q-10.7 -3.55 -11.3 -2.65 L-11.6 -2.2 -11.65 -2.2 -12.1 -1.7 -12.3 -1.55 -13.1 -1.1 -13.35 -1.0 M2.3 4.8 Q2.15 3.8 2.3 3.3 L2.5 2.55 Q2.5 1.75 1.7 2.3 0.85 2.9 0.85 3.7 1.0 7.5 1.75 7.5 2.05 7.5 2.2 7.25 L2.35 6.95 2.3 4.8 M-17.0 -3.0 L-16.6 -2.95 Q-16.35 -2.95 -15.0 -3.65 -13.55 -4.4 -13.3 -4.8 -13.75 -5.05 -15.4 -4.3 -17.0 -3.65 -17.0 -3.4 L-17.0 -3.0" fill="#7c6a50" fill-rule="evenodd" stroke="none"/>
    <path d="M2.3 4.8 L2.35 6.95 2.2 7.25 Q2.05 7.5 1.75 7.5 1.0 7.5 0.85 3.7 0.85 2.9 1.7 2.3 2.5 1.75 2.5 2.55 L2.3 3.3 Q2.15 3.8 2.3 4.8 M-17.0 -3.0 L-17.0 -3.4 Q-17.0 -3.65 -15.4 -4.3 -13.75 -5.05 -13.3 -4.8 -13.55 -4.4 -15.0 -3.65 -16.35 -2.95 -16.6 -2.95 L-17.0 -3.0" fill="#ffffff" fill-rule="evenodd" stroke="none"/>
    <path d="M5.85 -13.85 L8.05 -13.85 11.25 -12.55 Q13.25 -11.7 13.35 -11.45 13.45 -10.95 13.65 -10.7 L13.95 -10.25 15.7 -7.85 16.6 -6.65 18.9 -3.8 19.6 -2.95 20.65 -0.95 20.65 -0.4 20.35 0.15 20.3 0.25 Q19.35 -1.2 17.6 -2.3 L16.7 -1.65 Q15.45 -0.4 15.3 1.35 L15.4 2.0 15.4 2.05 14.55 1.65 13.65 1.05 12.6 0.0 12.15 -0.7 11.95 0.9 11.5 2.1 10.65 3.15 Q9.65 3.95 8.5 4.2 L8.5 3.8 8.2 2.85 7.45 1.85 Q6.95 1.15 6.3 0.8 L6.25 0.8 Q5.6 0.45 4.95 0.45 L4.75 0.45 5.15 -0.3 5.2 -0.4 6.95 -0.4 7.85 -0.4 Q9.1 -0.45 9.2 -1.05 9.35 -1.6 8.95 -2.0 8.35 -2.65 7.4 -3.0 L5.7 -3.5 7.4 -3.0 Q8.35 -2.65 8.95 -2.0 9.35 -1.6 9.2 -1.05 9.1 -0.45 7.85 -0.4 L6.95 -0.4 5.2 -0.4 5.15 -0.4 2.9 -0.45 Q2.05 -0.55 1.4 -1.05 L0.75 -1.95 Q0.6 -2.35 0.75 -2.8 L1.3 -3.3 5.15 -3.65 5.7 -3.5 5.7 -4.05 Q7.6 -4.15 7.95 -4.7 8.6 -5.75 8.05 -6.95 L7.1 -8.2 5.8 -8.95 7.1 -8.2 8.05 -6.95 Q8.6 -5.75 7.95 -4.7 7.6 -4.15 5.7 -4.05 4.1 -4.05 2.65 -4.85 L2.0 -5.35 Q1.7 -5.65 1.75 -6.1 L1.2 -5.3 0.95 -4.9 0.6 -4.55 0.6 -4.5 0.15 -4.1 0.1 -4.05 0.05 -4.0 -1.05 -2.6 -1.4 -1.9 -1.7 -1.35 -3.15 -1.15 -3.2 -1.2 -3.4 -1.2 -3.35 -1.1 -7.0 -0.4 -7.7 -0.25 Q-9.65 -0.1 -11.55 -0.2 L-12.35 -0.25 -12.6 -0.3 -12.9 -0.5 -13.35 -1.0 -13.1 -1.1 -12.3 -1.55 -12.1 -1.7 -11.6 -2.2 -12.1 -1.7 -11.65 -2.2 -11.6 -2.2 -11.3 -2.3 Q-7.05 -3.35 -5.9 -3.75 L-2.15 -4.95 Q-0.8 -5.55 2.25 -7.75 L2.2 -7.2 2.2 -7.15 Q3.1 -8.05 5.8 -8.95 L5.75 -10.45 5.85 -13.85 M2.2 -7.15 L1.8 -6.5 1.75 -6.1 1.8 -6.5 2.2 -7.15 M10.15 -5.45 Q12.1 -1.55 12.15 -0.7 12.1 -1.55 10.15 -5.45 M11.45 -8.6 L12.8 -8.9 Q13.75 -8.7 14.3 -8.1 14.9 -7.45 14.95 -6.6 15.05 -5.65 14.7 -4.85 14.45 -4.25 13.8 -4.1 13.3 -3.95 12.85 -4.35 12.25 -4.85 11.8 -5.6 11.05 -7.0 11.45 -8.6 11.05 -7.0 11.8 -5.6 12.25 -4.85 12.85 -4.35 13.3 -3.95 13.8 -4.1 14.45 -4.25 14.7 -4.85 15.05 -5.65 14.95 -6.6 14.9 -7.45 14.3 -8.1 13.75 -8.7 12.8 -8.9 L11.45 -8.6 M-3.6 -7.65 Q-3.55 -7.3 -3.75 -7.05 L-4.45 -6.25 Q-5.6 -5.35 -7.0 -5.05 L-7.4 -5.1 -7.85 -5.45 Q-8.45 -6.2 -8.25 -7.2 L-8.0 -7.6 -7.15 -8.2 -5.75 -8.9 Q-3.9 -9.25 -3.7 -8.45 L-3.6 -7.65" fill="#e6941a" fill-rule="evenodd" stroke="none"/>
    <path d="M13.35 -11.45 Q13.45 -10.95 13.65 -10.7 L13.95 -10.25 15.7 -7.85 16.6 -6.65 18.9 -3.8 19.6 -2.95 20.65 -0.95 20.65 -0.4 20.35 0.15 20.3 0.25 20.55 0.65 Q20.95 1.35 20.9 2.15 L20.85 3.45 Q20.8 4.7 20.2 5.75 L19.6 6.8 18.95 6.05 17.75 4.9 17.0 4.3 Q15.95 3.3 15.4 2.05 L14.55 1.65 13.65 1.05 12.6 0.0 12.15 -0.7 11.95 0.9 11.5 2.1 10.65 3.15 Q9.65 3.95 8.5 4.2 L8.3 4.55 6.65 6.8 4.8 9.4 4.2 10.7 3.75 11.5 3.6 11.4 3.3 11.1 2.45 10.25 0.9 8.45 Q-0.2 7.05 -0.45 5.3 L-0.6 3.45 -0.55 2.35 -1.1 1.75 -1.6 1.25 -2.05 0.35 -1.8 -1.15 -1.7 -1.35 -3.15 -1.15 -3.35 -1.1 -7.0 -0.4 -7.7 -0.25 Q-9.65 -0.1 -11.55 -0.2 L-12.35 -0.25 -12.6 -0.3 M-12.9 -0.5 L-13.35 -1.0 -13.9 -0.85 -17.4 -0.55 Q-19.25 -0.6 -20.9 0.3 L-19.7 -1.9 -18.3 -3.6 -15.65 -5.65 Q-14.4 -6.45 -12.95 -6.55 -12.05 -7.85 -10.5 -8.4 L-9.55 -8.7 -6.1 -9.8 -4.8 -10.15 -4.7 -10.2 -2.75 -11.05 M5.8 -8.95 L7.1 -8.2 8.05 -6.95 Q8.6 -5.75 7.95 -4.7 7.6 -4.15 5.7 -4.05 4.1 -4.05 2.65 -4.85 L2.0 -5.35 Q1.7 -5.65 1.75 -6.1 L1.8 -6.5 2.2 -7.15 Q3.1 -8.05 5.8 -8.95 M5.7 -3.5 L7.4 -3.0 Q8.35 -2.65 8.95 -2.0 9.35 -1.6 9.2 -1.05 9.1 -0.45 7.85 -0.4 L6.95 -0.4 5.2 -0.4 5.15 -0.4 2.9 -0.45 Q2.05 -0.55 1.4 -1.05 L0.75 -1.95 Q0.6 -2.35 0.75 -2.8 L1.3 -3.3 5.15 -3.65 5.7 -3.5 M4.75 0.45 L4.95 0.45 Q5.6 0.45 6.25 0.8 L6.3 0.8 Q6.95 1.15 7.45 1.85 L8.2 2.85 8.5 3.8 8.5 4.2 M-11.6 -2.2 L-12.1 -1.7 -12.3 -1.55 -13.1 -1.1 -13.35 -1.0 M0.95 -4.9 L0.6 -4.55 0.6 -4.5 0.15 -4.1 0.1 -4.05 0.05 -4.0 -1.05 -2.6 -1.4 -1.9 -1.7 -1.35 M11.45 -8.6 Q11.05 -7.0 11.8 -5.6 12.25 -4.85 12.85 -4.35 13.3 -3.95 13.8 -4.1 14.45 -4.25 14.7 -4.85 15.05 -5.65 14.95 -6.6 14.9 -7.45 14.3 -8.1 13.75 -8.7 12.8 -8.9 L11.45 -8.6 M12.15 -0.7 Q12.1 -1.55 10.15 -5.45 M20.3 0.25 Q19.35 -1.2 17.6 -2.3 L16.7 -1.65 Q15.45 -0.4 15.3 1.35 L15.4 2.0 15.4 2.05 M4.75 0.45 L3.5 0.35 2.1 0.1 0.25 0.15 Q-0.35 1.2 -0.55 2.35 M-12.95 -6.55 L-11.65 -5.65 -11.35 -5.35 -10.95 -4.55 Q-10.7 -3.55 -11.3 -2.65 L-11.6 -2.2 M-3.6 -7.65 Q-3.55 -7.3 -3.75 -7.05 L-4.45 -6.25 Q-5.6 -5.35 -7.0 -5.05 L-7.4 -5.1 -7.85 -5.45 Q-8.45 -6.2 -8.25 -7.2 L-8.0 -7.6 -7.15 -8.2 -5.75 -8.9 Q-3.9 -9.25 -3.7 -8.45 L-3.6 -7.65 Z" fill="none" stroke="#660000" stroke-linecap="round" stroke-linejoin="round" stroke-opacity="0.6" stroke-width="1"/>
  </g>
</svg>