<?xml version="1.0" encoding="UTF-8" standalone="no"?>
<svg xmlns:xlink="http://www.w3.org/1999/xlink" height="50.7px" width="56.05px" xmlns="http://www.w3.org/2000/svg">
  <g transform="matrix(1.0, 0.0, 0.0, 1.0, 28.05, 25.35)">
    <path d="M-24.7 -11.9 L-24.35 -8.85 Q-24.35 -5.65 -23.65 -2.9 L-22.2 1.25 Q-21.6 0.0 -21.0 -4.4 L-20.3 -9.9 -20.15 -10.25 Q-21.15 -4.4 -15.1 2.55 -9.85 8.5 -6.9 8.85 L-6.55 9.0 Q-7.0 7.95 -9.15 -2.2 L-9.4 -2.55 -9.2 -2.5 -9.15 -2.2 -7.0 0.4 -4.2 4.1 -3.85 4.2 Q-3.3 3.15 -3.2 1.35 L-3.15 -1.15 -3.55 -7.95 Q-4.0 -12.5 -4.3 -12.7 -2.1 -12.1 1.3 -6.35 L4.75 0.1 5.05 -4.5 5.2 -9.65 5.2 -9.9 Q6.75 -8.9 8.55 -3.55 L11.2 4.6 11.4 5.25 Q11.95 3.4 11.95 1.5 11.95 -0.55 12.7 -9.15 L12.25 -14.25 12.15 -14.45 Q13.3 -13.9 18.75 -6.5 L18.95 -6.15 19.35 -5.5 19.45 -5.5 19.6 -5.65 17.05 -13.1 15.65 -16.65 Q18.75 -14.65 21.3 -12.1 L18.55 -12.7 27.0 -1.9 23.65 -2.1 Q25.5 5.85 25.55 9.1 L23.5 6.05 Q24.1 12.55 22.6 20.35 L21.9 20.05 21.55 19.8 20.5 18.4 19.7 23.45 17.65 22.9 Q15.5 22.5 13.7 21.3 L15.7 24.35 Q5.7 23.85 -3.25 19.55 L-2.4 21.2 Q-8.3 20.5 -13.45 17.15 L-15.85 14.9 -17.95 12.2 -18.5 16.7 Q-21.0 13.75 -22.6 10.3 -24.0 7.35 -24.8 4.0 -25.3 1.8 -24.7 -0.55 L-27.0 4.85 Q-27.4 -3.8 -24.7 -11.9 M3.9 1.3 L3.85 1.2 3.75 1.25 3.9 1.3 M-11.45 12.0 L-11.5 12.0 -11.35 12.15 -11.45 12.0 M-19.95 10.7 L-19.95 10.55 -20.0 10.65 -19.95 10.7" fill="#757787" fill-rule="evenodd" stroke="none"/>
    <path d="M-19.95 10.7 L-20.0 10.65 -19.95 10.55 -19.95 10.7 M-11.45 12.0 L-11.35 12.15 -11.5 12.0 -11.45 12.0 M3.9 1.3 L3.75 1.25 3.85 1.2 3.9 1.3" fill="#99b5c5" fill-rule="evenodd" stroke="none"/>
    <path d="M-24.7 -11.9 L-24.25 -13.15 -23.5 -15.15 -26.15 -12.3 Q-22.9 -21.5 -13.5 -23.35 -2.7 -25.65 7.75 -22.7 L2.4 -22.3 Q8.75 -20.75 14.45 -17.4 L15.65 -16.65 17.05 -13.1 19.6 -5.65 19.45 -5.5 19.35 -5.5 18.95 -6.15 18.75 -6.5 Q13.3 -13.9 12.15 -14.45 L12.25 -14.25 12.7 -9.15 Q11.95 -0.55 11.95 1.5 11.95 3.4 11.4 5.25 L11.2 4.6 8.55 -3.55 Q6.75 -8.9 5.2 -9.9 L5.2 -9.65 5.05 -4.5 4.75 0.1 1.3 -6.35 Q-2.1 -12.1 -4.3 -12.7 -4.0 -12.5 -3.55 -7.95 L-3.15 -1.15 -3.2 1.35 Q-3.3 3.15 -3.85 4.2 L-4.2 4.1 -7.0 0.4 -9.15 -2.2 -9.2 -2.5 -9.4 -2.55 -9.15 -2.2 Q-7.0 7.95 -6.55 9.0 L-6.9 8.85 Q-9.85 8.5 -15.1 2.55 -21.15 -4.4 -20.15 -10.25 L-20.3 -9.9 -21.0 -4.4 Q-21.6 0.0 -22.2 1.25 L-23.65 -2.9 Q-24.35 -5.65 -24.35 -8.85 L-24.7 -11.9" fill="#5b5f68" fill-rule="evenodd" stroke="none"/>
    <path d="M15.65 -16.65 L14.45 -17.4 Q8.75 -20.75 2.4 -22.3 L7.75 -22.7 Q-2.7 -25.65 -13.5 -23.35 -22.9 -21.5 -26.15 -12.3 L-23.5 -15.15 -24.25 -13.15 -24.7 -11.9 Q-27.4 -3.8 -27.0 4.85 L-24.7 -0.55 Q-25.3 1.8 -24.8 4.0 -24.0 7.35 -22.6 10.3 -21.0 13.75 -18.5 16.7 L-17.95 12.2 -15.85 14.9 -13.45 17.15 Q-8.3 20.5 -2.4 21.2 L-3.25 19.55 Q5.7 23.85 15.7 24.35 L13.7 21.3 Q15.5 22.5 17.65 22.9 L19.7 23.45 20.5 18.4 21.55 19.8 21.9 20.05 22.6 20.35 Q24.1 12.55 23.5 6.05 L25.55 9.1 Q25.5 5.85 23.65 -2.1 L27.0 -1.9 18.55 -12.7 21.3 -12.1 Q18.75 -14.65 15.65 -16.65 Z" fill="none" stroke="#660000" stroke-linecap="round" stroke-linejoin="round" stroke-opacity="0.6" stroke-width="1"/>
  </g>
</svg>