<?xml version="1.0" encoding="UTF-8" standalone="no"?>
<svg xmlns:xlink="http://www.w3.org/1999/xlink" height="40.95px" width="32.2px" xmlns="http://www.w3.org/2000/svg">
  <g transform="matrix(1.0, 0.0, 0.0, 1.0, 15.25, 21)">
    <path d="M8.85 -14.95 L9.2 -14.7 8.85 -14.95 M-1.35 14.7 L-3.75 18.95 -5.35 13.6 -7.3 14.1 -9.95 9.75 -11.5 10.6 Q-13.25 5.4 -11.95 0.0 L-13.95 4.1 Q-13.8 0.2 -12.65 -3.5 L-11.25 -7.4 -10.5 -8.65 -14.25 -5.45 -12.2 -9.9 -12.2 -9.95 -11.7 -9.9 Q-9.75 -10.65 -9.2 -10.65 L-9.35 -10.0 Q-9.3 -9.5 -8.6 -9.5 -8.2 -9.5 -6.55 -11.1 L-6.0 -11.6 -5.8 -9.85 Q-4.95 -11.4 -3.4 -12.55 L-3.75 -12.25 Q-2.95 -10.25 -2.8 -8.8 -1.75 -9.4 -0.05 -10.3 0.35 -8.4 1.05 -7.1 1.05 -5.3 1.2 -4.2 0.85 -2.2 0.9 -0.2 L0.95 2.45 1.05 3.45 0.5 2.8 0.0 2.0 -0.15 1.5 -0.35 1.55 Q0.1 3.75 -0.15 6.0 L-1.35 14.7 M-11.7 -10.9 L-11.65 -11.0 -11.4 -11.1 -11.7 -10.9 M-6.35 -13.35 L-6.15 -13.6 -6.1 -12.85 -6.15 -13.4 -6.35 -13.35 M-3.95 5.4 L-3.95 5.35 -3.35 0.65 Q-3.05 -1.65 -5.45 3.0 L-6.35 5.0 -6.65 6.25 -6.75 8.05 -4.95 9.1 -4.7 8.65 Q-3.85 7.1 -3.95 5.4 M-0.15 -0.05 L-0.45 -2.1 Q-0.45 -3.75 -0.8 -5.85 -1.95 -9.25 -2.7 -5.15 -2.25 -2.45 -2.25 -1.35 L-2.55 0.0 -2.4 0.45 Q-2.25 0.7 -2.25 0.9 -2.4 1.95 -1.6 1.95 L-0.7 1.1 Q-0.15 0.35 -0.15 -0.05 M-4.1 -7.35 L-4.1 -7.7 -4.6 -7.9 -5.25 -7.1 -5.8 -5.7 -6.65 -2.85 Q-6.45 -2.15 -6.1 -2.15 L-5.7 -2.25 -5.65 -2.45 -4.85 -5.2 -4.1 -7.35" fill="#99b5c5" fill-rule="evenodd" stroke="none"/>
    <path d="M-6.5 -16.3 L-6.6 -16.3 -6.4 -17.4 Q-6.15 -18.05 -6.8 -20.0 -2.85 -17.8 -2.1 -16.75 L-1.95 -17.0 Q-0.9 -18.5 2.75 -18.8 L4.1 -18.9 1.45 -16.35 1.6 -16.3 1.65 -16.3 7.95 -17.6 6.5 -15.75 8.05 -15.35 8.4 -15.2 8.85 -14.95 9.2 -14.7 9.25 -14.7 10.45 -13.2 13.45 -9.6 10.65 -9.85 Q10.1 -9.5 10.5 -9.1 L11.25 -8.1 11.9 -6.15 Q12.3 -4.7 14.7 -0.7 L11.85 -0.4 Q12.65 2.65 15.95 6.15 12.65 6.65 12.6 7.55 L12.6 8.1 12.1 11.6 9.45 11.45 9.2 12.3 8.0 11.7 Q6.35 10.95 4.45 10.75 L3.75 12.45 2.55 15.0 0.35 9.5 -0.2 12.1 Q-0.5 13.4 -1.35 14.7 L-0.15 6.0 Q0.1 3.75 -0.35 1.55 L-0.15 1.5 0.0 2.0 0.5 2.8 1.05 3.45 0.95 2.45 0.9 -0.2 Q0.85 -2.2 1.2 -4.2 L1.4 -5.25 3.0 -1.1 3.3 -0.15 4.55 4.2 4.7 4.45 Q5.2 1.0 5.1 -2.55 L5.05 -8.85 5.5 -8.0 Q6.25 -6.6 6.55 -5.05 6.75 -4.2 7.4 -3.85 L7.45 -4.1 7.6 -5.5 7.8 -10.3 7.8 -11.35 5.45 -13.45 5.95 -10.85 5.8 -10.55 Q5.65 -10.4 5.5 -10.4 5.0 -10.4 4.6 -12.35 L4.5 -13.0 3.3 -10.5 3.0 -9.7 1.95 -6.35 2.1 -5.7 Q1.5 -6.25 1.05 -7.1 0.35 -8.4 -0.05 -10.3 L-0.55 -14.15 -1.05 -13.9 -3.4 -12.55 Q-4.95 -11.4 -5.8 -9.85 L-6.0 -11.6 -6.1 -12.6 -6.1 -12.85 -6.15 -13.6 -6.35 -13.35 Q-7.5 -12.35 -10.8 -11.3 L-10.95 -11.25 -11.35 -11.1 -11.4 -11.1 -11.65 -11.0 -10.75 -12.6 -10.5 -12.95 -9.45 -14.7 Q-8.7 -15.85 -7.6 -16.45 L-6.5 -16.3 M-2.25 -16.55 L-2.75 -16.5 -2.25 -16.5 -2.25 -16.55" fill="#757787" fill-rule="evenodd" stroke="none"/>
    <path d="M-12.2 -9.95 L-12.0 -10.3 -11.7 -10.9 -11.4 -11.1 -11.35 -11.1 -10.95 -11.25 -10.8 -11.3 Q-7.5 -12.35 -6.35 -13.35 L-6.15 -13.4 -6.1 -12.85 -6.1 -12.6 -6.0 -11.6 -6.55 -11.1 Q-8.2 -9.5 -8.6 -9.5 -9.3 -9.5 -9.35 -10.0 L-9.2 -10.65 Q-9.75 -10.65 -11.7 -9.9 L-12.2 -9.95 M1.05 -7.1 Q1.5 -6.25 2.1 -5.7 L1.95 -6.35 3.0 -9.7 3.3 -10.5 4.5 -13.0 4.6 -12.35 Q5.0 -10.4 5.5 -10.4 5.65 -10.4 5.8 -10.55 L5.95 -10.85 5.45 -13.45 7.8 -11.35 7.8 -10.3 7.6 -5.5 7.45 -4.1 7.4 -3.85 Q6.75 -4.2 6.55 -5.05 6.25 -6.6 5.5 -8.0 L5.05 -8.85 5.1 -2.55 Q5.2 1.0 4.7 4.45 L4.55 4.2 3.3 -0.15 3.0 -1.1 1.4 -5.25 1.2 -4.2 Q1.05 -5.3 1.05 -7.1 M-0.05 -10.3 Q-1.75 -9.4 -2.8 -8.8 -2.95 -10.25 -3.75 -12.25 L-3.4 -12.55 -1.05 -13.9 -0.55 -14.15 -0.05 -10.3 M-12.0 -10.3 L-11.7 -10.9 -12.0 -10.3 M-4.1 -7.35 L-4.85 -5.2 -5.65 -2.45 -5.7 -2.25 -6.1 -2.15 Q-6.45 -2.15 -6.65 -2.85 L-5.8 -5.7 -5.25 -7.1 -4.6 -7.9 -4.1 -7.7 -4.1 -7.35 M-0.15 -0.05 Q-0.15 0.35 -0.7 1.1 L-1.6 1.95 Q-2.4 1.95 -2.25 0.9 -2.25 0.7 -2.4 0.45 L-2.55 0.0 -2.25 -1.35 Q-2.25 -2.45 -2.7 -5.15 -1.95 -9.25 -0.8 -5.85 -0.45 -3.75 -0.45 -2.1 L-0.15 -0.05 M-3.95 5.4 Q-3.85 7.1 -4.7 8.65 L-4.95 9.1 -6.75 8.05 -6.65 6.25 -6.35 5.0 -5.45 3.0 Q-3.05 -1.65 -3.35 0.65 L-3.95 5.35 -3.95 5.4" fill="#7d91a3" fill-rule="evenodd" stroke="none"/>
    <path d="M6.5 -15.75 L8.05 -15.35 8.4 -15.2 M8.85 -14.95 L9.2 -14.7 9.25 -14.7 10.45 -13.2 13.45 -9.6 10.65 -9.85 Q10.1 -9.5 10.5 -9.1 L11.25 -8.1 11.9 -6.15 Q12.3 -4.7 14.7 -0.7 L11.85 -0.4 Q12.65 2.65 15.95 6.15 12.65 6.65 12.6 7.55 L12.6 8.1 12.1 11.6 9.45 11.45 9.2 12.3 8.0 11.7 Q6.35 10.95 4.45 10.75 L3.75 12.45 2.55 15.0 0.35 9.5 -0.2 12.1 Q-0.5 13.4 -1.35 14.7 L-3.75 18.95 -5.35 13.6 -7.3 14.1 -9.95 9.75 -11.5 10.6 Q-13.25 5.4 -11.95 0.0 L-13.95 4.1 Q-13.8 0.2 -12.65 -3.5 L-11.25 -7.4 -10.5 -8.65 -14.25 -5.45 -12.2 -9.9 -12.2 -9.95 -12.0 -10.3 -11.7 -10.9 -11.65 -11.0 -10.75 -12.6 -10.5 -12.95 -9.45 -14.7 Q-8.7 -15.85 -7.6 -16.45 L-6.5 -16.3" fill="none" stroke="#660000" stroke-linecap="round" stroke-linejoin="round" stroke-opacity="0.6" stroke-width="1"/>
  </g>
</svg>