<?xml version="1.0" encoding="UTF-8" standalone="no"?>
<svg xmlns:xlink="http://www.w3.org/1999/xlink" height="54.5px" width="56.05px" xmlns="http://www.w3.org/2000/svg">
  <g transform="matrix(1.0, 0.0, 0.0, 1.0, 28.05, 29.15)">
    <path d="M-20.45 0.15 L-20.65 0.15 -20.6 0.0 -20.45 0.15" fill="#757787" fill-rule="evenodd" stroke="none"/>
    <path d="M3.85 1.2 L3.9 1.3 3.75 1.25 3.85 1.2 M-11.45 12.0 L-11.35 12.15 -11.5 12.0 -11.45 12.0 M-19.95 10.55 L-19.95 10.7 -20.0 10.65 -19.95 10.55" fill="#99b5c5" fill-rule="evenodd" stroke="none"/>
    <path d="M3.85 1.2 Q2.75 -0.8 2.25 -3.05 L1.55 -6.15 Q1.2 -7.5 0.5 -8.6 L1.55 -8.2 Q4.25 -6.85 6.5 -4.85 L10.6 -1.0 13.95 2.85 Q15.0 4.25 16.35 5.35 15.5 2.4 13.9 -0.3 12.45 -2.75 11.35 -5.35 10.35 -7.7 9.85 -10.2 9.65 -11.05 9.05 -11.65 L9.65 -11.45 11.15 -10.65 13.75 -9.05 13.3 -9.7 12.0 -11.65 9.4 -15.25 10.55 -15.0 12.95 -14.4 16.5 -13.15 Q17.9 -12.6 19.2 -11.85 L27.0 -1.9 23.65 -2.1 Q25.5 5.85 25.55 9.1 L23.5 6.05 Q24.1 12.55 22.6 20.35 L21.9 20.05 21.55 19.8 20.5 18.4 19.7 23.45 17.65 22.9 Q15.5 22.5 13.7 21.3 L15.7 24.35 Q5.7 23.85 -3.25 19.55 L-2.4 21.2 Q-8.3 20.5 -13.45 17.15 L-15.85 14.9 -17.95 12.2 -18.5 16.7 Q-21.0 13.75 -22.6 10.3 -22.8 8.45 -22.55 6.65 L-22.2 7.3 -21.85 7.95 -21.15 9.15 -20.0 10.65 -19.95 10.7 -19.95 10.55 -20.35 8.95 -20.95 5.85 Q-21.5 2.85 -20.65 0.15 L-20.45 0.15 -19.85 1.05 -18.8 2.95 -17.2 5.75 -14.95 8.45 Q-13.15 10.15 -11.5 12.0 L-11.35 12.15 -11.45 12.0 -12.6 10.05 -13.9 7.3 Q-15.1 4.6 -15.25 1.65 L-14.95 1.95 -12.8 3.6 -10.2 5.75 -7.5 7.85 Q-5.2 9.6 -2.75 10.85 L-3.1 10.2 -6.2 4.9 Q-7.45 2.5 -7.95 -0.15 L-6.65 0.8 -3.75 2.1 Q-1.8 3.0 -0.1 4.25 2.7 6.4 5.85 8.1 L5.5 7.45 4.5 5.2 3.1 2.7 Q1.8 0.65 1.15 -1.6 L2.2 -0.6 3.75 1.25 3.9 1.3 3.85 1.2 M-6.65 -15.05 L-5.0 -10.55 -4.35 -8.7 -3.85 -7.1 -3.4 -5.5 -3.7 -5.7 -4.5 -6.95 -5.05 -8.15 -5.35 -8.75 -5.75 -9.35 -6.05 -10.05 Q-6.75 -12.45 -6.8 -15.0 L-6.65 -15.05 M-12.95 -10.7 L-12.1 -7.95 -10.25 -3.55 Q-9.95 -2.85 -9.95 -2.1 L-10.1 -1.45 Q-10.7 0.55 -10.2 2.6 L-10.05 3.1 -10.45 2.65 -11.45 0.55 -11.95 -0.5 -12.45 -2.05 -12.55 -3.05 -12.9 -7.95 -13.0 -10.7 -12.95 -10.7" fill="#2d2549" fill-rule="evenodd" stroke="none"/>
    <path d="M19.2 -11.85 Q17.9 -12.6 16.5 -13.15 L12.95 -14.4 10.55 -15.0 9.4 -15.25 12.0 -11.65 13.3 -9.7 13.75 -9.05 11.15 -10.65 9.65 -11.45 9.05 -11.65 Q9.65 -11.05 9.85 -10.2 10.35 -7.7 11.35 -5.35 12.45 -2.75 13.9 -0.3 15.5 2.4 16.35 5.35 15.0 4.25 13.95 2.85 L10.6 -1.0 6.5 -4.85 Q4.25 -6.85 1.55 -8.2 L0.5 -8.6 Q1.2 -7.5 1.55 -6.15 L2.25 -3.05 Q2.75 -0.8 3.85 1.2 L3.75 1.25 2.2 -0.6 1.15 -1.6 Q1.8 0.65 3.1 2.7 L4.5 5.2 5.5 7.45 5.85 8.1 Q2.7 6.4 -0.1 4.25 -1.8 3.0 -3.75 2.1 L-6.65 0.8 -7.95 -0.15 Q-7.45 2.5 -6.2 4.9 L-3.1 10.2 -2.75 10.85 Q-5.2 9.6 -7.5 7.85 L-10.2 5.75 -12.8 3.6 -14.95 1.95 -15.25 1.65 Q-15.1 4.6 -13.9 7.3 L-12.6 10.05 -11.45 12.0 -11.5 12.0 Q-13.15 10.15 -14.95 8.45 L-17.2 5.75 -18.8 2.95 -19.85 1.05 -20.45 0.15 -20.6 0.0 -20.65 0.15 Q-21.5 2.85 -20.95 5.85 L-20.35 8.95 -19.95 10.55 -20.0 10.65 -21.15 9.15 -21.85 7.95 -22.2 7.3 -22.55 6.65 Q-22.8 8.45 -22.6 10.3 -24.0 7.35 -24.8 4.0 -25.3 1.8 -24.7 -0.55 L-27.0 4.85 Q-27.5 -5.55 -23.5 -15.15 L-26.15 -12.3 Q-24.15 -18.0 -19.8 -20.85 L-17.5 -21.95 -15.15 -23.1 Q-13.5 -24.05 -12.4 -25.6 L-10.85 -28.1 -10.8 -28.1 -10.75 -26.0 Q-10.7 -24.85 -11.2 -23.75 L-7.85 -24.2 Q0.05 -24.9 7.75 -22.7 L2.4 -22.3 Q8.75 -20.75 14.45 -17.4 18.25 -15.1 21.3 -12.1 L18.55 -12.7 19.2 -11.85 M-12.95 -10.7 L-13.0 -10.7 -12.9 -7.95 -12.55 -3.05 -12.45 -2.05 -11.95 -0.5 -11.45 0.55 -10.45 2.65 -10.05 3.1 -10.2 2.6 Q-10.7 0.55 -10.1 -1.45 L-9.95 -2.1 Q-9.95 -2.85 -10.25 -3.55 L-12.1 -7.95 -12.95 -10.7 M-6.65 -15.05 L-6.8 -15.0 Q-6.75 -12.45 -6.05 -10.05 L-5.75 -9.35 -5.35 -8.75 -5.05 -8.15 -4.5 -6.95 -3.7 -5.7 -3.4 -5.5 -3.85 -7.1 -4.35 -8.7 -5.0 -10.55 -6.65 -15.05" fill="#516387" fill-rule="evenodd" stroke="none"/>
    <path d="M-22.6 10.3 Q-21.0 13.75 -18.5 16.7 L-17.95 12.2 -15.85 14.9 -13.45 17.15 Q-8.3 20.5 -2.4 21.2 L-3.25 19.55 Q5.7 23.85 15.7 24.35 L13.7 21.3 Q15.5 22.5 17.65 22.9 L19.7 23.45 20.5 18.4 21.55 19.8 21.9 20.05 22.6 20.35 Q24.1 12.55 23.5 6.05 L25.55 9.1 Q25.5 5.85 23.65 -2.1 L27.0 -1.9 19.2 -11.85 18.55 -12.7 21.3 -12.1 Q18.25 -15.1 14.45 -17.4 8.75 -20.75 2.4 -22.3 L7.75 -22.7 Q0.05 -24.9 -7.85 -24.2 L-11.2 -23.75 Q-10.7 -24.85 -10.75 -26.0 L-10.8 -28.1 -10.85 -28.15 -10.85 -28.1 -12.4 -25.6 Q-13.5 -24.05 -15.15 -23.1 L-17.5 -21.95 -19.8 -20.85 Q-24.15 -18.0 -26.15 -12.3 L-23.5 -15.15 Q-27.5 -5.55 -27.0 4.85 L-24.7 -0.55 Q-25.3 1.8 -24.8 4.0 -24.0 7.35 -22.6 10.3 Z" fill="none" stroke="#660000" stroke-linecap="round" stroke-linejoin="round" stroke-opacity="0.6" stroke-width="1"/>
  </g>
</svg>