<?xml version="1.0" encoding="UTF-8" standalone="no"?>
<svg xmlns:xlink="http://www.w3.org/1999/xlink" height="15.85px" width="11px" xmlns="http://www.w3.org/2000/svg">
  <g id="shape0" transform="matrix(1.0, 0.0, 0.0, 1.0, 5.5, 7.9)">
    <path d="M-3.0 4.5 Q-2.25 2.6 -1.95 0.4 -1.65 -1.8 -0.8 -3.55 L0.7 -5.8 Q1.8 -7.15 3.6 -6.85 4.9 -5.4 4.35 -3.6 3.45 -0.45 0.85 1.85 L-2.45 4.5 -2.9 4.85 -3.05 4.95 -3.2 4.9 -3.0 4.5 M1.5 -3.0 Q2.55 -4.05 2.55 -5.0 2.55 -5.8 2.05 -5.8 0.35 -5.8 -0.4 -1.75 -0.4 -1.15 -0.05 -1.15 0.45 -1.15 1.5 -3.0" fill="#d6baba" fill-rule="evenodd" stroke="none"/>
    <path d="M1.5 -3.0 Q0.45 -1.15 -0.05 -1.15 -0.4 -1.15 -0.4 -1.75 0.35 -5.8 2.05 -5.8 2.55 -5.8 2.55 -5.0 2.55 -4.05 1.5 -3.0" fill="#faf8f8" fill-rule="evenodd" stroke="none"/>
    <path d="M-3.0 4.5 Q-2.25 2.6 -1.95 0.4 -1.65 -1.8 -0.8 -3.55 L0.7 -5.8 Q1.8 -7.15 3.6 -6.85 4.9 -5.4 4.35 -3.6 3.45 -0.45 0.85 1.85 L-2.45 4.5 -2.9 4.85" fill="none" stroke="#a36a6a" stroke-linecap="round" stroke-linejoin="round" stroke-width="1"/>
    <path d="M-2.9 4.85 L-3.05 4.95 -3.85 6.95 M-3.2 4.9 L-3.65 4.95 -4.5 5.8 M-3.2 4.9 L-3.0 4.5 M-3.05 4.95 L-3.2 4.9" fill="none" stroke="#4a0000" stroke-linecap="round" stroke-linejoin="round" stroke-width="1"/>
  </g>
</svg>