<?xml version="1.0" encoding="UTF-8" standalone="no"?>
<svg xmlns:xlink="http://www.w3.org/1999/xlink" height="10.55px" width="30.4px" xmlns="http://www.w3.org/2000/svg">
  <g id="shape0" transform="matrix(1.0, 0.0, 0.0, 1.0, 1, 1)">
    <path d="M8.3 3.4 L7.35 2.9 Q4.95 1.1 3.9 0.65 L3.85 0.5 Q4.45 0.45 5.45 0.9 L4.35 0.0 Q5.0 -0.2 7.75 1.9 L9.1 2.55 11.8 3.4 14.75 3.85 23.0 2.95 24.35 2.55 27.05 1.05 27.35 1.1 27.5 1.3 26.95 1.7 27.3 1.7 27.7 1.9 27.6 2.1 27.65 2.15 27.65 2.1 27.9 2.4 Q28.4 2.25 28.4 2.85 28.4 3.2 28.0 3.55 27.05 4.35 24.05 5.15 L19.35 6.15 18.65 6.3 15.9 6.25 16.45 6.25 16.65 6.2 15.8 6.2 14.15 6.0 11.1 5.55 9.95 5.3 Q8.1 4.9 6.95 4.05 L6.2 3.65 7.25 4.6 9.25 5.5 8.15 5.1 5.2 3.75 5.2 3.9 5.2 4.05 Q7.3 5.25 8.3 5.65 L6.45 5.1 9.1 6.0 8.5 5.75 8.8 5.85 15.0 6.8 13.6 6.8 16.85 6.95 17.9 6.9 18.95 6.9 22.05 6.7 19.25 7.3 15.65 7.3 Q9.4 7.0 5.5 4.95 L3.4 3.45 2.75 2.95 2.75 2.7 3.1 2.6 4.65 3.5 Q4.85 3.7 5.2 3.9 4.45 3.3 4.35 2.8 L4.35 2.4 Q5.05 2.25 5.65 3.0 L5.75 3.15 6.25 3.4 6.0 3.05 6.25 3.0 8.05 3.85 8.3 4.0 10.4 4.85 15.5 5.65 18.8 5.65 19.2 5.6 22.25 4.85 24.85 4.5 Q26.95 4.1 27.85 3.0 L24.95 3.7 22.95 4.05 23.6 3.8 21.55 4.1 18.85 4.65 15.3 4.45 15.2 4.45 14.7 4.4 13.65 4.45 9.45 3.05 9.1 3.2 Q9.15 3.6 10.15 4.1 L9.1 3.75 8.3 3.4 M26.5 4.7 L26.65 4.8 26.7 4.9 25.75 5.5 25.95 5.35 25.9 5.25 25.5 5.1 23.55 5.75 21.7 6.2 22.95 5.8 24.3 5.4 26.5 4.7 M22.3 7.2 L23.7 6.65 Q25.6 5.8 27.8 4.1 L28.0 4.15 28.1 4.35 Q28.1 4.9 24.65 6.75 L22.3 7.2 M21.85 7.9 L17.65 8.55 11.55 8.55 Q6.6 7.4 3.65 5.2 L2.2 3.85 Q3.35 4.75 5.85 5.85 L7.55 6.75 Q9.55 7.65 11.7 8.0 L17.65 8.0 19.3 7.85 21.3 7.85 21.85 7.9 M1.25 2.85 L0.0 1.4 1.4 2.25 1.15 2.1 1.1 2.3 1.25 2.85 M25.45 3.0 L27.25 2.25 26.1 2.35 25.45 3.0" fill="#d6baba" fill-rule="evenodd" stroke="none"/>
    <path d="M25.75 5.5 L24.3 6.2 22.05 6.7 18.95 6.9 17.9 6.9 16.15 6.9 15.0 6.8 8.8 5.85 8.5 5.75 8.3 5.65 Q7.3 5.25 5.2 4.05 L5.2 3.9 5.2 3.75 8.15 5.1 9.25 5.5 10.7 5.9 11.9 6.1 14.15 6.25 15.9 6.25 18.65 6.3 19.0 6.3 20.25 6.3 21.7 6.2 23.55 5.75 25.5 5.1 25.9 5.25 25.95 5.35 25.75 5.5 M10.15 4.1 Q9.15 3.6 9.1 3.2 L9.45 3.05 13.65 4.45 14.45 4.7 18.95 4.7 22.95 4.05 24.95 3.7 27.85 3.0 Q26.95 4.1 24.85 4.5 L22.25 4.85 19.0 5.25 18.3 5.25 14.6 5.25 11.05 4.5 10.15 4.1" fill="#a36a6a" fill-rule="evenodd" stroke="none"/>
    <path d="M28.0 3.55 L28.0 3.6 Q28.0 4.1 26.5 4.7 L24.3 5.4 23.5 5.6 20.25 6.3 19.0 6.3 18.65 6.3 19.35 6.15 24.05 5.15 Q27.05 4.35 28.0 3.55 M19.25 7.3 L21.4 7.25 22.3 7.2 24.65 6.75 25.2 6.55 26.95 5.85 27.0 5.85 27.05 6.0 Q27.05 6.5 25.0 7.25 L21.85 7.9 21.3 7.85 19.3 7.85 15.65 7.85 Q11.05 8.05 5.9 5.85 L5.85 5.85 Q3.35 4.75 2.2 3.85 L1.25 2.85 1.1 2.3 1.15 2.1 1.4 2.25 3.3 3.4 3.4 3.45 5.5 4.95 Q9.4 7.0 15.65 7.3 L19.25 7.3 M4.65 3.5 L4.15 2.95 4.15 2.7 4.35 2.8 Q4.45 3.3 5.2 3.9 4.85 3.7 4.65 3.5 M8.3 4.0 L7.7 3.2 8.3 3.4 9.1 3.75 10.45 4.4 Q12.95 5.4 15.65 5.4 L18.3 5.25 19.0 5.25 22.25 4.85 19.2 5.6 18.8 5.65 15.5 5.65 10.4 4.85 8.3 4.0 M15.9 6.25 L14.15 6.25 11.9 6.1 10.7 5.9 9.25 5.5 7.25 4.6 6.2 3.65 6.95 4.05 Q8.1 4.9 9.95 5.3 L11.1 5.55 14.15 6.0 15.8 6.2 16.65 6.2 16.45 6.25 15.9 6.25" fill="#ffffff" fill-rule="evenodd" stroke="none"/>
  </g>
</svg>