<?xml version="1.0" encoding="UTF-8" standalone="no"?>
<svg xmlns:xlink="http://www.w3.org/1999/xlink" height="13px" width="7.8px" xmlns="http://www.w3.org/2000/svg">
  <g id="shape0" transform="matrix(1.0, 0.0, 0.0, 1.0, 1, 1)">
    <path d="M1.1 7.1 L1.05 7.7 Q1.05 8.2 1.35 8.6 L2.05 9.0 Q2.6 9.0 3.15 8.15 3.75 7.25 3.75 6.25 3.75 4.9 2.8 4.9 2.05 4.9 1.65 5.4 L1.65 5.35 0.45 3.15 Q-0.9 0.3 2.0 0.0 3.25 -0.1 4.35 1.3 5.5 2.8 5.7 4.85 5.95 6.6 5.4 7.65 L3.75 9.55 3.65 9.65 3.4 10.55 3.35 10.55 2.75 9.9 2.6 11.0 Q2.25 11.0 1.8 10.1 L1.2 9.1 Q0.6 8.25 1.0 7.2 L1.1 7.1 M2.6 7.85 L2.0 8.35 Q1.7 8.35 1.8 7.9 1.85 7.45 2.25 7.3 L2.75 7.3 2.6 7.85" fill="#d6baba" fill-rule="evenodd" stroke="none"/>
    <path d="M1.65 5.4 Q2.05 4.9 2.8 4.9 3.75 4.9 3.75 6.25 3.75 7.25 3.15 8.15 2.6 9.0 2.05 9.0 L1.35 8.6 Q1.05 8.2 1.05 7.7 L1.1 7.1 1.65 5.4 M2.6 7.85 L2.75 7.3 2.25 7.3 Q1.85 7.45 1.8 7.9 1.7 8.35 2.0 8.35 L2.6 7.85" fill="#ffffff" fill-rule="evenodd" stroke="none"/>
    <path d="M1.1 7.1 L1.0 7.2 Q0.6 8.25 1.2 9.1 L1.8 10.1 Q2.25 11.0 2.6 11.0 L2.75 9.9 3.35 10.55 3.4 10.55 3.65 9.65 3.75 9.55 5.4 7.65 Q5.95 6.6 5.7 4.85 5.5 2.8 4.35 1.3 3.25 -0.1 2.0 0.0 -0.9 0.3 0.45 3.15 L1.65 5.35 1.65 5.4" fill="none" stroke="#a36a6a" stroke-linecap="round" stroke-linejoin="round" stroke-width="1"/>
  </g>
</svg>