<?xml version="1.0" encoding="UTF-8" standalone="no"?>
<svg xmlns:xlink="http://www.w3.org/1999/xlink" height="5.2px" width="6.85px" xmlns="http://www.w3.org/2000/svg">
  <g id="shape0" transform="matrix(1.0, 0.0, 0.0, 1.0, 1, 1)">
    <path d="M2.25 1.4 Q2.3 1.0 2.85 0.0 2.85 0.9 3.0 1.2 4.6 0.4 4.85 0.4 3.35 3.1 2.75 3.2 L2.7 3.2 2.2 3.1 2.2 3.05 Q2.2 2.5 2.5 2.1 L2.8 1.7 Q2.8 1.35 2.45 1.35 L2.35 1.45 2.25 1.4" fill="#ffffff" fill-rule="evenodd" stroke="none"/>
    <path d="M2.2 3.1 L2.1 3.1 2.05 3.1 0.0 2.1 0.0 2.05 0.55 2.2 1.5 2.0 1.55 2.0 0.45 1.0 2.2 1.5 2.25 1.4 2.35 1.45 2.45 1.35 Q2.8 1.35 2.8 1.7 L2.5 2.1 Q2.2 2.5 2.2 3.05 L2.2 3.1" fill="#d6baba" fill-rule="evenodd" stroke="none"/>
  </g>
</svg>