<?xml version="1.0" encoding="UTF-8" standalone="no"?>
<svg xmlns:xlink="http://www.w3.org/1999/xlink" height="5.55px" width="5.85px" xmlns="http://www.w3.org/2000/svg">
  <g id="shape0" transform="matrix(1.0, 0.0, 0.0, 1.0, 1, 1)">
    <path d="M1.8 0.25 L2.1 0.35 2.3 0.4 Q2.3 0.0 2.6 0.0 2.95 0.0 3.4 0.65 L3.85 1.65 Q3.85 2.1 3.5 2.2 L3.6 2.4 Q3.2 2.8 2.75 3.15 L2.45 3.1 2.1 3.45 2.0 3.45 1.75 3.35 1.65 3.45 1.45 3.1 1.4 2.65 1.5 2.3 1.35 1.8 Q1.35 1.4 1.6 1.4 L1.7 1.45 1.55 0.9 Q1.55 0.45 1.8 0.25" fill="#ffffff" fill-rule="evenodd" stroke="none"/>
    <path d="M1.8 0.25 Q1.55 0.45 1.55 0.9 L1.7 1.45 1.6 1.4 Q1.35 1.4 1.35 1.8 L1.5 2.3 1.4 2.65 1.45 3.1 1.65 3.45 1.25 3.55 0.9 3.2 Q0.65 3.45 0.4 3.0 0.15 2.55 0.3 2.3 0.0 2.4 0.0 1.95 0.0 1.65 0.15 1.5 L0.0 1.2 Q0.0 0.75 0.55 0.85 0.4 0.5 0.8 0.5 L0.95 0.55 1.1 0.55 1.15 0.3 1.6 0.2 1.8 0.25" fill="#d6baba" fill-rule="evenodd" stroke="none"/>
  </g>
</svg>