<?xml version="1.0" encoding="UTF-8" standalone="no"?>
<svg xmlns:xlink="http://www.w3.org/1999/xlink" height="4.55px" width="6.3px" xmlns="http://www.w3.org/2000/svg">
  <g id="shape0" transform="matrix(1.0, 0.0, 0.0, 1.0, 1, 1)">
    <path d="M2.0 0.65 Q2.15 0.45 2.65 0.25 L3.55 0.0 3.9 0.05 3.1 0.95 Q3.5 0.75 3.9 1.1 4.3 1.5 4.3 2.1 L4.25 2.3 2.25 1.45 2.15 1.45 Q2.0 1.25 2.0 0.85 L2.0 0.65" fill="#ffffff" fill-rule="evenodd" stroke="none"/>
    <path d="M2.0 0.65 L2.0 0.85 Q2.0 1.25 2.15 1.45 1.85 1.5 1.25 1.85 L0.0 2.55 Q0.4 1.1 1.2 0.85 0.65 0.85 0.35 0.4 L0.4 0.35 1.15 0.35 2.0 0.65" fill="#d6baba" fill-rule="evenodd" stroke="none"/>
  </g>
</svg>