<?xml version="1.0" encoding="UTF-8" standalone="no"?>
<svg xmlns:xlink="http://www.w3.org/1999/xlink" height="12.4px" width="17.9px" xmlns="http://www.w3.org/2000/svg">
  <g id="shape0" transform="matrix(1.0, 0.0, 0.0, 1.0, 1, 1)">
    <path d="M11.55 3.15 L12.75 3.1 14.8 3.0 15.9 2.9 15.55 3.15 13.35 3.85 12.3 4.1 12.6 3.8 12.3 3.75 12.2 3.75 10.55 4.0 11.55 3.15 M12.45 5.3 L13.6 6.25 12.25 6.05 12.0 6.25 11.25 5.9 11.35 5.8 12.45 5.3 M9.65 10.25 L9.5 10.3 8.95 10.4 8.95 10.15 8.95 10.1 Q8.9 9.4 9.4 8.6 L9.45 8.5 9.15 8.45 9.0 8.4 9.35 8.1 9.7 7.85 9.85 7.65 9.8 7.55 9.5 7.15 8.75 6.5 8.05 6.2 7.85 7.0 7.2 5.4 5.4 7.5 Q5.3 5.65 5.05 5.65 L3.55 7.05 3.55 6.3 2.6 6.5 3.3 5.7 5.0 4.9 4.7 5.3 5.9 4.7 5.9 5.8 5.9 6.0 6.65 5.3 7.5 4.6 7.8 5.55 Q7.9 5.35 8.6 5.0 L9.7 6.75 9.95 7.1 10.05 6.95 10.45 7.5 9.75 8.45 9.75 8.5 10.25 8.35 9.65 10.25 M0.5 5.2 L0.0 4.95 0.1 4.95 1.45 4.5 4.0 3.5 5.6 3.9 5.75 3.85 5.85 3.95 5.6 3.9 3.4 4.5 0.5 5.2 M1.6 2.35 L1.45 2.25 5.55 2.1 4.7 0.6 5.25 0.75 Q6.95 1.75 7.3 2.2 L7.5 1.8 8.8 0.3 9.35 0.0 9.25 2.5 12.9 1.45 11.9 2.1 11.75 2.15 10.55 3.0 10.8 2.35 8.65 3.3 8.65 1.55 7.5 3.2 7.3 2.7 6.9 2.3 6.9 2.6 6.2 1.75 6.15 1.95 6.45 3.35 6.4 3.35 6.0 3.25 5.6 3.15 4.9 2.9 4.85 2.9 4.95 3.05 4.2 2.9 1.6 2.35" fill="#ffffff" fill-rule="evenodd" stroke="none"/>
    <path d="M11.55 3.15 L10.55 4.0 12.2 3.75 12.3 3.75 12.6 3.8 12.3 4.1 13.35 3.85 15.55 3.15 13.8 4.35 12.45 5.3 11.35 5.8 11.25 5.9 12.0 6.25 11.7 6.55 11.3 7.05 Q10.95 7.35 11.25 7.3 L11.5 7.5 11.4 7.55 11.3 7.65 11.2 7.7 12.55 9.25 11.6 9.75 11.65 10.4 10.75 9.65 10.65 9.7 10.05 10.05 9.65 10.25 10.25 8.35 9.75 8.5 9.75 8.45 10.45 7.5 10.05 6.95 9.95 7.1 9.7 6.75 8.6 5.0 Q7.9 5.35 7.8 5.55 L7.5 4.6 6.65 5.3 5.9 6.0 5.9 5.8 5.9 4.7 4.7 5.3 5.0 4.9 3.3 5.7 3.4 5.55 2.55 5.55 0.5 5.2 3.4 4.5 5.6 3.9 5.85 3.95 5.75 3.85 5.6 3.9 4.0 3.5 4.25 3.4 1.6 2.35 4.2 2.9 4.95 3.05 4.85 2.9 4.9 2.9 5.6 3.15 6.0 3.25 6.4 3.35 6.45 3.35 6.15 1.95 6.2 1.75 6.9 2.6 6.9 2.3 7.3 2.7 7.5 3.2 8.65 1.55 8.65 3.3 10.8 2.35 10.55 3.0 11.75 2.15 11.9 2.1 12.9 1.45 13.05 1.45 10.85 3.2 11.55 3.15" fill="#d6baba" fill-rule="evenodd" stroke="none"/>
    <path d="M15.55 3.15 L15.9 2.9 14.8 3.0 12.75 3.1 11.55 3.15 10.85 3.2 13.05 1.45 12.9 1.45 9.25 2.5 9.35 0.0 8.8 0.3 7.5 1.8 7.3 2.2 Q6.95 1.75 5.25 0.75 L4.7 0.6 5.55 2.1 1.45 2.25 1.6 2.35 4.25 3.4 4.0 3.5 1.45 4.5 0.1 4.95 0.0 4.95 0.5 5.2 2.55 5.55 3.4 5.55 3.3 5.7 2.6 6.5 3.55 6.3 3.55 7.05 5.05 5.65 Q5.3 5.65 5.4 7.5 L7.2 5.4 7.85 7.0 8.05 6.2 8.75 6.5 9.5 7.15 9.8 7.55 9.85 7.65 9.7 7.85 9.35 8.1 9.0 8.4 9.15 8.45 9.45 8.5 9.4 8.6 Q8.9 9.4 8.95 10.1 L8.95 10.15 8.95 10.4 9.5 10.3 9.65 10.25 10.05 10.05 10.65 9.7 10.75 9.65 11.65 10.4 11.6 9.75 12.55 9.25 11.2 7.7 11.3 7.65 11.4 7.55 11.5 7.5 11.25 7.3 Q10.95 7.35 11.3 7.05 L11.7 6.55 12.0 6.25 12.25 6.05 13.6 6.25 12.45 5.3 13.8 4.35 15.55 3.15 Z" fill="none" stroke="#a36a6a" stroke-linecap="round" stroke-linejoin="round" stroke-width="1"/>
  </g>
</svg>