<?xml version="1.0" encoding="UTF-8" standalone="no"?>
<svg xmlns:xlink="http://www.w3.org/1999/xlink" height="10.05px" width="13.1px" xmlns="http://www.w3.org/2000/svg">
  <g id="shape0" transform="matrix(1.0, 0.0, 0.0, 1.0, 1, 1)">
    <path d="M10.35 2.3 L9.05 5.2 7.95 3.0 7.9 4.55 7.4 4.35 6.85 4.1 5.8 3.55 5.6 4.8 5.45 4.25 5.0 2.85 4.35 2.35 3.9 2.05 3.05 1.55 3.05 1.6 3.35 3.35 2.85 2.4 2.65 2.1 2.2 1.45 1.0 0.05 1.3 0.1 3.15 0.9 4.25 1.4 4.95 2.15 5.15 2.35 6.3 3.2 6.0 2.35 4.45 0.4 4.4 0.3 4.6 0.5 6.0 1.95 6.35 2.35 Q6.65 2.6 7.4 2.9 L7.5 2.9 7.2 2.35 7.1 2.2 6.4 1.6 5.95 1.3 5.9 1.25 5.8 1.1 7.2 2.0 7.6 2.35 8.65 3.4 9.0 3.9 9.1 3.7 Q9.55 2.85 10.3 2.25 L10.35 2.2 10.35 2.3 M6.05 4.45 L6.5 5.05 6.55 5.15 6.7 5.4 6.5 5.8 6.2 5.3 6.1 5.0 6.05 4.45 M2.35 5.85 L2.05 5.8 2.35 5.8 2.35 5.85 M0.6 5.5 L0.15 5.25 2.1 4.85 1.7 4.7 1.9 4.7 2.05 4.75 2.35 4.9 2.45 5.05 1.65 5.2 1.35 5.3 0.6 5.5 M0.05 3.7 Q0.15 3.6 0.3 3.55 L1.5 3.4 2.1 3.5 2.5 3.65 2.7 4.0 0.05 3.7 M4.85 3.7 L5.1 4.3 5.1 4.9 4.95 4.9 4.25 3.85 3.95 2.7 4.5 3.3 4.85 3.7 M3.65 5.0 L3.7 5.3 3.65 5.5 Q3.45 5.5 2.95 5.1 L2.85 5.05 2.7 4.6 3.65 5.0" fill="#ffffff" fill-rule="evenodd" stroke="none"/>
    <path d="M10.35 2.3 L10.0 4.7 9.95 5.0 10.9 5.05 10.5 5.5 11.1 5.55 9.45 7.7 Q8.95 8.3 9.0 7.85 L8.95 6.6 8.3 7.15 7.45 5.15 7.15 5.9 6.7 5.4 7.15 5.9 7.45 5.15 8.3 7.15 8.95 6.6 9.0 7.85 7.8 6.85 6.75 6.05 5.9 5.7 5.8 5.65 5.7 5.6 5.5 5.55 4.65 5.4 3.05 5.6 2.85 5.05 3.05 5.6 2.95 5.65 2.35 5.85 2.35 5.8 Q2.05 5.45 2.65 5.55 L2.95 5.65 2.65 5.55 Q2.05 5.45 2.35 5.8 L2.05 5.8 1.2 5.75 0.9 5.65 0.6 5.5 1.35 5.3 1.65 5.2 2.45 5.05 2.35 4.9 2.05 4.75 1.9 4.7 1.7 4.7 1.65 4.65 0.0 3.7 0.05 3.7 2.7 4.0 2.5 3.65 2.7 3.8 0.9 0.0 1.0 0.05 2.2 1.45 2.65 2.1 2.85 2.4 3.35 3.35 3.05 1.6 3.05 1.55 3.9 2.05 4.35 2.35 5.0 2.85 5.45 4.25 5.6 4.8 5.8 3.55 6.85 4.1 7.4 4.35 7.9 4.55 7.95 3.0 9.05 5.2 10.35 2.3 M6.05 4.45 L5.9 5.45 5.6 4.8 5.9 5.45 6.05 4.45 6.1 5.0 6.2 5.3 6.5 5.8 6.7 5.4 6.55 5.15 6.5 5.05 6.05 4.45 M4.25 1.4 L4.95 1.7 4.45 0.4 6.0 2.35 6.3 3.2 5.15 2.35 4.95 2.15 4.25 1.4 M6.0 1.95 L6.5 2.35 6.65 2.45 5.95 1.3 6.4 1.6 7.1 2.2 7.2 2.35 7.5 2.9 7.4 2.9 Q6.65 2.6 6.35 2.35 L6.0 1.95 M4.25 3.85 L4.95 4.9 5.1 4.9 5.1 4.3 4.85 3.7 4.5 3.3 3.95 2.7 4.25 3.85 4.65 5.4 3.65 5.0 4.65 5.4 4.25 3.85 M2.85 5.05 L2.95 5.1 Q3.45 5.5 3.65 5.5 L3.7 5.3 3.65 5.0 2.7 4.6 2.85 5.05 M4.85 3.7 L5.6 4.8 4.85 3.7" fill="#d6baba" fill-rule="evenodd" stroke="none"/>
    <path d="M9.0 7.85 Q8.95 8.3 9.45 7.7 L11.1 5.55 10.5 5.5 10.9 5.05 9.95 5.0 10.0 4.7 10.35 2.3 10.35 2.2 10.3 2.25 Q9.55 2.85 9.1 3.7 L9.0 3.9 8.65 3.4 7.6 2.35 7.2 2.0 5.8 1.1 5.9 1.25 M5.6 4.8 L5.9 5.45 6.05 4.45 6.5 5.05 6.55 5.15 6.7 5.4 7.15 5.9 7.45 5.15 8.3 7.15 8.95 6.6 9.0 7.85 M3.05 5.6 L3.05 5.65 2.95 5.65 2.65 5.55 Q2.05 5.45 2.35 5.8 L2.35 5.85 2.05 5.8 1.2 5.75 0.9 5.65 0.6 5.5 0.15 5.25 2.1 4.85 1.7 4.7 1.65 4.65 0.0 3.7 0.05 3.7 Q0.15 3.6 0.3 3.55 L1.5 3.4 2.1 3.5 2.5 3.65 2.7 3.8 0.9 0.0 1.0 0.05 1.3 0.1 3.15 0.9 4.25 1.4 4.95 1.7 4.45 0.4 4.4 0.3 4.6 0.5 6.0 1.95 6.5 2.35 6.65 2.45 5.95 1.3 M4.25 3.85 L4.65 5.4 3.65 5.0 2.7 4.6 2.85 5.05 3.05 5.6 2.95 5.65 M2.35 5.8 L2.05 5.8 M4.85 3.7 L4.5 3.3 3.95 2.7 4.25 3.85 M5.6 4.8 L4.85 3.7" fill="none" stroke="#a36a6a" stroke-linecap="round" stroke-linejoin="round" stroke-width="1"/>
  </g>
</svg>