<?xml version="1.0" encoding="UTF-8" standalone="no"?>
<svg xmlns:xlink="http://www.w3.org/1999/xlink" height="11.45px" width="22.6px" xmlns="http://www.w3.org/2000/svg">
  <g id="morphshape0" transform="matrix(1.0, 0.0, 0.0, 1.0, 1, 0.2)">
    <path d="M9.15 3.8 Q9.25 3.9 9.35 4.0 L9.45 4.1 9.55 4.2 Q10.4 3.65 12.5 4.4 L12.85 4.5 Q15.1 5.4 16.45 5.7 L17.3 5.65 17.3 5.1 16.6 3.65 15.45 3.85 Q14.45 4.15 12.75 3.45 11.15 2.85 9.65 3.3 9.3 3.65 9.1 3.85" fill="#bb8989" fill-rule="evenodd" stroke="none"/>
    <path d="M9.05 3.9 Q9.25 3.7 9.6 3.35 11.1 2.9 12.7 3.5 14.4 4.2 15.4 3.9 L16.55 3.7 17.25 5.15 17.25 5.7 16.4 5.75 Q15.05 5.45 12.8 4.55 L12.45 4.45 Q10.35 3.7 9.5 4.25 L9.4 4.15 9.3 4.05 Q9.2 3.95 9.1 3.85 9.3 3.65 9.65 3.3 11.15 2.85 12.75 3.45 14.45 4.15 15.45 3.85 L16.6 3.65 17.3 5.1 17.3 5.65 16.45 5.7 Q15.1 5.4 12.85 4.5 L12.5 4.4 Q10.4 3.65 9.55 4.2 L9.45 4.1 9.35 4.0 Q9.25 3.9 9.15 3.8" fill="none" stroke="#a36a6a" stroke-linecap="round" stroke-linejoin="round" stroke-width="1"/>
  </g>
  <g id="morphshape1" transform="matrix(1.0, 0.0, 0.0, 1.0, 1, 0.2)">
    <path d="M9.35 3.85 L9.35 3.85 9.6 4.4 9.65 4.6 9.85 4.95 10.2 5.0 10.65 5.15 Q11.2 5.55 11.6 6.0 12.05 6.8 12.4 7.7 L12.4 7.8 Q13.05 9.75 14.7 9.9 L15.8 9.85 17.0 9.6 17.35 9.5 17.95 9.3 19.25 8.6 19.95 8.0 20.35 7.55 20.4 7.2 20.4 6.1 18.95 5.45 18.75 5.95 Q18.5 6.4 18.3 6.85 L17.7 7.6 17.35 7.9 16.4 8.3 15.0 8.5 Q14.3 8.4 13.85 7.65 L13.3 6.6 12.5 4.8 Q11.95 4.15 10.25 3.65 L9.3 3.85" fill="#e2cfcf" fill-rule="evenodd" stroke="none"/>
    <path d="M9.3 3.85 L10.25 3.65 Q11.95 4.15 12.5 4.8 L13.3 6.6 13.85 7.65 Q14.3 8.4 15.0 8.5 L16.4 8.3 17.35 7.9 17.7 7.6 18.3 6.85 Q18.5 6.4 18.75 5.95 L18.95 5.45 20.4 6.1 20.4 7.2 20.35 7.55 19.95 8.0 19.25 8.6 17.95 9.3 17.35 9.5 17.0 9.6 15.8 9.85 14.7 9.9 Q13.05 9.75 12.4 7.8 L12.4 7.7 Q12.05 6.8 11.6 6.0 11.2 5.55 10.65 5.15 L10.2 5.0 9.85 4.95 9.65 4.6 9.6 4.4 9.35 3.85 9.35 3.85 9.6 4.4 9.65 4.6 9.85 4.95 10.2 5.0 10.65 5.15 Q11.2 5.55 11.6 6.0 12.05 6.8 12.4 7.7 L12.4 7.8 Q13.05 9.75 14.7 9.9 L15.8 9.85 17.0 9.6 17.35 9.5 17.95 9.3 19.25 8.6 19.95 8.0 20.35 7.55 20.4 7.2 20.4 6.1 18.95 5.45 18.75 5.95 Q18.5 6.4 18.3 6.85 L17.7 7.6 17.35 7.9 16.4 8.3 15.0 8.5 Q14.3 8.4 13.85 7.65 L13.3 6.6 12.5 4.8 Q11.95 4.15 10.25 3.65 L9.3 3.85 Z" fill="none" stroke="#a36a6a" stroke-linecap="round" stroke-linejoin="round" stroke-width="1"/>
  </g>
  <g id="shape0" transform="matrix(1.0, 0.0, 0.0, 1.0, 1, 0.2)">
    <path d="M9.2 4.0 L9.6 4.35 9.7 4.55 9.75 4.65 9.8 4.9 9.8 4.95 Q9.8 5.4 9.25 5.4 L9.0 5.35 Q7.95 6.0 6.5 6.2 L2.25 6.35 0.0 6.15 0.0 5.9 Q-0.15 4.55 1.15 3.9 L2.1 4.15 4.9 4.35 8.55 4.15 Q8.6 3.95 8.95 3.95 L9.2 4.0" fill="#e2cfcf" fill-rule="evenodd" stroke="none"/>
    <path d="M9.8 4.95 Q9.8 5.4 9.25 5.4 L9.0 5.35 Q7.95 6.0 6.5 6.2 L2.25 6.35 0.0 6.15 0.0 5.9 Q-0.15 4.55 1.15 3.9 L2.1 4.15 4.9 4.35 8.55 4.15 Q8.6 3.95 8.95 3.95 L9.2 4.0" fill="none" stroke="#a36a6a" stroke-linecap="round" stroke-linejoin="round" stroke-width="1"/>
  </g>
</svg>