<?xml version="1.0" encoding="UTF-8" standalone="no"?>
<svg xmlns:xlink="http://www.w3.org/1999/xlink" height="11.45px" width="22.6px" xmlns="http://www.w3.org/2000/svg">
  <g id="morphshape0" transform="matrix(1.0, 0.0, 0.0, 1.0, 1, 0.2)">
    <path d="M9.25 3.7 L9.25 3.75 9.4 4.1 9.45 4.3 Q9.5 4.35 9.6 4.45 L9.9 4.45 10.2 4.6 10.85 5.2 11.35 6.25 11.5 6.7 Q11.95 7.95 13.05 8.15 L14.0 8.1 14.55 8.0 14.8 7.9 15.2 7.8 16.65 7.15 16.85 7.0 17.35 6.55 17.4 6.3 17.35 5.5 16.35 4.85 16.2 5.15 Q15.95 5.55 15.75 5.95 L14.95 6.65 14.2 6.95 13.7 7.05 13.15 7.05 12.55 6.55 12.0 5.4 11.75 4.75 11.6 4.45 9.95 3.6 9.2 3.8" fill="#bb8989" fill-rule="evenodd" stroke="none"/>
    <path d="M9.2 3.8 L9.95 3.6 11.6 4.45 11.75 4.75 12.0 5.4 12.55 6.55 13.15 7.05 13.7 7.05 14.2 6.95 14.95 6.65 15.75 5.95 Q15.95 5.55 16.2 5.15 L16.35 4.85 17.35 5.5 17.4 6.3 17.35 6.55 16.85 7.0 16.65 7.15 15.2 7.8 14.8 7.9 14.55 8.0 14.0 8.1 13.05 8.15 Q11.95 7.95 11.5 6.7 L11.35 6.25 10.85 5.2 10.2 4.6 9.9 4.45 9.6 4.45 Q9.5 4.35 9.45 4.3 L9.4 4.1 9.25 3.75 9.25 3.7 M9.2 3.8 L9.95 3.6 11.6 4.45 11.75 4.75 12.0 5.4 12.55 6.55 13.15 7.05 13.7 7.05 14.2 6.95 14.95 6.65 15.75 5.95 Q15.95 5.55 16.2 5.15 L16.35 4.85 17.35 5.5 17.4 6.3 17.35 6.55 16.85 7.0 16.65 7.15 15.2 7.8 14.8 7.9 14.55 8.0 14.0 8.1 13.05 8.15 Q11.95 7.95 11.5 6.7 L11.35 6.25 10.85 5.2 10.2 4.6 9.9 4.45 9.6 4.45 Q9.5 4.35 9.45 4.3 L9.4 4.1 9.25 3.75" fill="none" stroke="#a36a6a" stroke-linecap="round" stroke-linejoin="round" stroke-width="1"/>
  </g>
  <g id="morphshape1" transform="matrix(1.0, 0.0, 0.0, 1.0, 1, 0.2)">
    <path d="M9.05 3.95 L9.65 4.4 Q11.2 2.7 13.8 2.8 L14.85 2.9 Q17.5 3.65 18.7 5.2 19.8 5.1 20.4 4.75 19.6 3.3 18.45 2.7 16.8 2.1 14.4 1.45 12.6 0.95 10.55 2.25 9.3 3.45 9.05 4.0" fill="#e2cfcf" fill-rule="evenodd" stroke="none"/>
    <path d="M9.05 4.05 Q9.3 3.5 10.55 2.3 12.6 1.0 14.4 1.5 16.8 2.15 18.45 2.75 19.6 3.35 20.4 4.8 19.8 5.15 18.7 5.25 17.5 3.7 14.85 2.95 L13.8 2.85 Q11.2 2.75 9.65 4.45 L9.05 4.0 Q9.3 3.45 10.55 2.25 12.6 0.95 14.4 1.45 16.8 2.1 18.45 2.7 19.6 3.3 20.4 4.75 19.8 5.1 18.7 5.2 17.5 3.65 14.85 2.9 L13.8 2.8 Q11.2 2.7 9.65 4.4 L9.05 3.95" fill="none" stroke="#a36a6a" stroke-linecap="round" stroke-linejoin="round" stroke-width="1"/>
  </g>
  <g id="shape0" transform="matrix(1.0, 0.0, 0.0, 1.0, 1, 0.2)">
    <path d="M9.2 4.0 L9.6 4.35 9.7 4.55 9.75 4.65 9.8 4.9 9.8 4.95 Q9.8 5.4 9.25 5.4 L9.0 5.35 Q7.95 6.0 6.5 6.2 L2.25 6.35 0.0 6.15 0.0 5.9 Q-0.15 4.55 1.15 3.9 L2.1 4.15 4.9 4.35 8.55 4.15 Q8.6 3.95 8.95 3.95 L9.2 4.0" fill="#e2cfcf" fill-rule="evenodd" stroke="none"/>
    <path d="M9.8 4.95 Q9.8 5.4 9.25 5.4 L9.0 5.35 Q7.95 6.0 6.5 6.2 L2.25 6.35 0.0 6.15 0.0 5.9 Q-0.15 4.55 1.15 3.9 L2.1 4.15 4.9 4.35 8.55 4.15 Q8.6 3.95 8.95 3.95 L9.2 4.0" fill="none" stroke="#a36a6a" stroke-linecap="round" stroke-linejoin="round" stroke-width="1"/>
  </g>
</svg>