<?xml version="1.0" encoding="UTF-8" standalone="no"?>
<svg xmlns:xlink="http://www.w3.org/1999/xlink" height="11.45px" width="22.6px" xmlns="http://www.w3.org/2000/svg">
  <g id="morphshape0" transform="matrix(1.0, 0.0, 0.0, 1.0, 1, 0.2)">
    <path d="M9.1 4.05 Q9.25 4.1 9.4 4.25 L9.5 4.4 9.6 4.35 Q10.6 3.45 12.55 3.35 L13.05 3.3 Q15.15 3.35 16.25 4.8 L17.05 4.8 17.55 4.55 16.7 3.15 15.5 2.6 Q14.15 2.65 12.6 2.4 11.35 2.35 9.6 3.35 9.1 3.85 9.05 4.0" fill="#bb8989" fill-rule="evenodd" stroke="none"/>
    <path d="M9.0 3.95 Q9.05 3.8 9.55 3.3 11.3 2.3 12.55 2.35 14.1 2.6 15.45 2.55 L16.65 3.1 17.5 4.5 17.0 4.75 16.2 4.75 Q15.1 3.3 13.0 3.25 L12.5 3.3 Q10.55 3.4 9.55 4.3 L9.45 4.35 9.35 4.2 Q9.2 4.05 9.05 4.0 9.1 3.85 9.6 3.35 11.35 2.35 12.6 2.4 14.15 2.65 15.5 2.6 L16.7 3.15 17.55 4.55 17.05 4.8 16.25 4.8 Q15.15 3.35 13.05 3.3 L12.55 3.35 Q10.6 3.45 9.6 4.35 L9.5 4.4 9.4 4.25 Q9.25 4.1 9.1 4.05" fill="none" stroke="#a36a6a" stroke-linecap="round" stroke-linejoin="round" stroke-width="1"/>
  </g>
  <g id="morphshape1" transform="matrix(1.0, 0.0, 0.0, 1.0, 1, 0.2)">
    <path d="M9.05 3.75 L9.05 3.8 9.35 4.2 9.45 4.4 9.8 4.45 10.1 4.45 10.6 4.6 Q11.2 4.85 11.55 5.35 12.0 6.0 12.2 7.0 L12.2 7.1 Q12.7 9.2 14.2 9.35 L15.35 9.35 16.45 9.15 16.75 9.05 17.3 8.9 18.75 8.35 19.6 8.05 20.05 8.05 20.05 7.8 19.85 6.65 19.05 5.25 18.6 5.55 Q18.15 5.9 17.8 6.4 L17.1 7.0 16.8 7.2 15.95 7.55 14.6 7.8 Q14.05 7.75 13.65 6.95 L13.25 5.75 12.4 3.9 Q11.4 3.6 10.05 3.35 L9.25 3.8" fill="#e2cfcf" fill-rule="evenodd" stroke="none"/>
    <path d="M9.25 3.8 L10.05 3.35 Q11.4 3.6 12.4 3.9 L13.25 5.75 13.65 6.95 Q14.05 7.75 14.6 7.8 L15.95 7.55 16.8 7.2 17.1 7.0 17.8 6.4 Q18.15 5.9 18.6 5.55 L19.05 5.25 19.85 6.65 20.05 7.8 20.05 8.05 19.6 8.05 18.75 8.35 17.3 8.9 16.75 9.05 16.45 9.15 15.35 9.35 14.2 9.35 Q12.7 9.2 12.2 7.1 L12.2 7.0 Q12.0 6.0 11.55 5.35 11.2 4.85 10.6 4.6 L10.1 4.45 9.8 4.45 9.45 4.4 9.35 4.2 9.05 3.8 9.05 3.75 M9.25 3.8 L10.05 3.35 Q11.4 3.6 12.4 3.9 L13.25 5.75 13.65 6.95 Q14.05 7.75 14.6 7.8 L15.95 7.55 16.8 7.2 17.1 7.0 17.8 6.4 Q18.15 5.9 18.6 5.55 L19.05 5.25 19.85 6.65 20.05 7.8 20.05 8.05 19.6 8.05 18.75 8.35 17.3 8.9 16.75 9.05 16.45 9.15 15.35 9.35 14.2 9.35 Q12.7 9.2 12.2 7.1 L12.2 7.0 Q12.0 6.0 11.55 5.35 11.2 4.85 10.6 4.6 L10.1 4.45 9.8 4.45 9.45 4.4 9.35 4.2 9.05 3.8" fill="none" stroke="#a36a6a" stroke-linecap="round" stroke-linejoin="round" stroke-width="1"/>
  </g>
  <g id="shape0" transform="matrix(1.0, 0.0, 0.0, 1.0, 1, 0.2)">
    <path d="M9.2 4.0 L9.6 4.35 9.7 4.55 9.75 4.65 9.8 4.9 9.8 4.95 Q9.8 5.4 9.25 5.4 L9.0 5.35 Q7.95 6.0 6.5 6.2 L2.25 6.35 0.0 6.15 0.0 5.9 Q-0.15 4.55 1.15 3.9 L2.1 4.15 4.9 4.35 8.55 4.15 Q8.6 3.95 8.95 3.95 L9.2 4.0" fill="#e2cfcf" fill-rule="evenodd" stroke="none"/>
    <path d="M9.8 4.95 Q9.8 5.4 9.25 5.4 L9.0 5.35 Q7.95 6.0 6.5 6.2 L2.25 6.35 0.0 6.15 0.0 5.9 Q-0.15 4.55 1.15 3.9 L2.1 4.15 4.9 4.35 8.55 4.15 Q8.6 3.95 8.95 3.95 L9.2 4.0" fill="none" stroke="#a36a6a" stroke-linecap="round" stroke-linejoin="round" stroke-width="1"/>
  </g>
</svg>