<?xml version="1.0" encoding="UTF-8" standalone="no"?>
<svg xmlns:xlink="http://www.w3.org/1999/xlink" height="11.45px" width="22.6px" xmlns="http://www.w3.org/2000/svg">
  <g id="morphshape0" transform="matrix(1.0, 0.0, 0.0, 1.0, 1, 0.2)">
    <path d="M8.95 3.95 Q9.1 4.0 9.25 4.15 L9.35 4.3 9.45 4.2 Q10.5 3.1 12.4 2.6 L13.3 2.4 Q15.15 2.3 15.9 4.05 L16.0 4.15 16.85 4.15 17.55 4.05 16.75 2.9 15.95 2.05 Q14.5 1.3 10.1 2.65 8.95 3.75 8.95 3.95" fill="#bb8989" fill-rule="evenodd" stroke="none"/>
    <path d="M8.95 3.95 Q8.95 3.75 10.1 2.65 14.5 1.3 15.95 2.05 L16.75 2.9 17.55 4.05 16.85 4.15 16.0 4.15 15.9 4.05 Q15.15 2.3 13.3 2.4 L12.4 2.6 Q10.5 3.1 9.45 4.2 L9.35 4.3 9.25 4.15 Q9.1 4.0 8.95 3.95 8.95 3.75 10.1 2.65 14.5 1.3 15.95 2.05 L16.75 2.9 17.55 4.05 16.85 4.15 16.0 4.15 15.9 4.05 Q15.15 2.3 13.3 2.4 L12.4 2.6 Q10.5 3.1 9.45 4.2 L9.35 4.3 9.25 4.15 Q9.1 4.0 8.95 3.95 Z" fill="none" stroke="#a36a6a" stroke-linecap="round" stroke-linejoin="round" stroke-width="1"/>
  </g>
  <g id="morphshape1" transform="matrix(1.0, 0.0, 0.0, 1.0, 1, 0.2)">
    <path d="M9.2 3.8 L9.2 3.8 9.5 4.2 9.6 4.4 10.3 4.3 Q11.25 4.45 11.75 5.15 12.2 5.75 12.35 6.8 L12.85 8.25 Q13.3 9.1 14.15 9.2 L16.35 9.0 16.6 8.9 17.1 8.75 17.9 8.45 19.5 8.1 19.95 8.35 19.2 5.25 18.95 5.35 18.6 5.45 Q18.05 5.75 17.6 6.25 L17.15 6.6 16.85 6.8 16.6 6.95 15.8 7.25 14.45 7.55 Q13.9 7.5 13.5 6.35 L13.25 5.4 13.0 4.45 12.35 3.55 9.95 3.25 9.2 3.8" fill="#e2cfcf" fill-rule="evenodd" stroke="none"/>
    <path d="M9.2 3.8 L9.95 3.25 12.35 3.55 13.0 4.45 13.25 5.4 13.5 6.35 Q13.9 7.5 14.45 7.55 L15.8 7.25 16.6 6.95 16.85 6.8 17.15 6.6 17.6 6.25 Q18.05 5.75 18.6 5.45 L18.95 5.35 19.2 5.25 19.95 8.35 19.5 8.1 17.9 8.45 17.1 8.75 16.6 8.9 16.35 9.0 14.15 9.2 Q13.3 9.1 12.85 8.25 L12.35 6.8 Q12.2 5.75 11.75 5.15 11.25 4.45 10.3 4.3 L9.6 4.4 9.5 4.2 9.2 3.8 9.95 3.25 12.35 3.55 13.0 4.45 13.25 5.4 13.5 6.35 Q13.9 7.5 14.45 7.55 L15.8 7.25 16.6 6.95 16.85 6.8 17.15 6.6 17.6 6.25 Q18.05 5.75 18.6 5.45 L18.95 5.35 19.2 5.25 19.95 8.35 19.5 8.1 17.9 8.45 17.1 8.75 16.6 8.9 16.35 9.0 14.15 9.2 Q13.3 9.1 12.85 8.25 L12.35 6.8 Q12.2 5.75 11.75 5.15 11.25 4.45 10.3 4.3 L9.6 4.4 9.5 4.2 9.2 3.8 9.2 3.8 Z" fill="none" stroke="#a36a6a" stroke-linecap="round" stroke-linejoin="round" stroke-width="1"/>
  </g>
  <g id="shape0" transform="matrix(1.0, 0.0, 0.0, 1.0, 1, 0.2)">
    <path d="M9.2 4.0 L9.6 4.35 9.7 4.55 9.75 4.65 9.8 4.9 9.8 4.95 Q9.8 5.4 9.25 5.4 L9.0 5.35 Q7.95 6.0 6.5 6.2 L2.25 6.35 0.0 6.15 0.0 5.9 Q-0.15 4.55 1.15 3.9 L2.1 4.15 4.9 4.35 8.55 4.15 Q8.6 3.95 8.95 3.95 L9.2 4.0" fill="#e2cfcf" fill-rule="evenodd" stroke="none"/>
    <path d="M9.8 4.95 Q9.8 5.4 9.25 5.4 L9.0 5.35 Q7.95 6.0 6.5 6.2 L2.25 6.35 0.0 6.15 0.0 5.9 Q-0.15 4.55 1.15 3.9 L2.1 4.15 4.9 4.35 8.55 4.15 Q8.6 3.95 8.95 3.95 L9.2 4.0" fill="none" stroke="#a36a6a" stroke-linecap="round" stroke-linejoin="round" stroke-width="1"/>
  </g>
</svg>