<?xml version="1.0" encoding="UTF-8" standalone="no"?>
<svg xmlns:xlink="http://www.w3.org/1999/xlink" height="11.45px" width="22.6px" xmlns="http://www.w3.org/2000/svg">
  <g id="morphshape0" transform="matrix(1.0, 0.0, 0.0, 1.0, 1, 0.2)">
    <path d="M9.3 3.7 L9.3 3.8 9.4 4.2 9.45 4.4 Q9.5 4.5 9.55 4.65 L9.85 4.65 10.15 4.8 10.8 5.4 11.3 6.45 11.5 6.9 Q12.0 8.2 13.15 8.4 L14.05 8.35 14.6 8.25 14.9 8.15 15.3 8.05 16.7 7.35 16.9 7.2 17.4 6.5 17.45 6.25 17.45 5.4 16.3 5.0 16.25 5.35 Q16.05 5.75 15.9 6.2 L15.1 7.0 14.35 7.3 13.8 7.35 13.25 7.3 12.6 6.75 12.0 5.6 11.7 4.95 11.6 4.65 10.1 3.7 9.25 3.8" fill="#bb8989" fill-rule="evenodd" stroke="none"/>
    <path d="M9.25 3.8 L10.1 3.7 11.6 4.65 11.7 4.95 12.0 5.6 12.6 6.75 13.25 7.3 13.8 7.35 14.35 7.3 15.1 7.0 15.9 6.2 Q16.05 5.75 16.25 5.35 L16.3 5.0 17.45 5.4 17.45 6.25 17.4 6.5 16.9 7.2 16.7 7.35 15.3 8.05 14.9 8.15 14.6 8.25 14.05 8.35 13.15 8.4 Q12.0 8.2 11.5 6.9 L11.3 6.45 10.8 5.4 10.15 4.8 9.85 4.65 9.55 4.65 Q9.5 4.5 9.45 4.4 L9.4 4.2 9.3 3.8 9.3 3.7 M9.25 3.8 L10.1 3.7 11.6 4.65 11.7 4.95 12.0 5.6 12.6 6.75 13.25 7.3 13.8 7.35 14.35 7.3 15.1 7.0 15.9 6.2 Q16.05 5.75 16.25 5.35 L16.3 5.0 17.45 5.4 17.45 6.25 17.4 6.5 16.9 7.2 16.7 7.35 15.3 8.05 14.9 8.15 14.6 8.25 14.05 8.35 13.15 8.4 Q12.0 8.2 11.5 6.9 L11.3 6.45 10.8 5.4 10.15 4.8 9.85 4.65 9.55 4.65 Q9.5 4.5 9.45 4.4 L9.4 4.2 9.3 3.8" fill="none" stroke="#a36a6a" stroke-linecap="round" stroke-linejoin="round" stroke-width="1"/>
  </g>
  <g id="morphshape1" transform="matrix(1.0, 0.0, 0.0, 1.0, 1, 0.2)">
    <path d="M8.9 4.0 L9.5 4.45 Q10.95 2.85 13.65 2.5 L14.8 2.45 Q17.45 2.65 18.55 4.7 19.6 4.6 20.45 4.4 19.55 3.05 18.5 2.1 16.7 1.2 14.3 1.15 12.5 1.1 10.45 2.3 9.05 3.65 8.95 4.05" fill="#e2cfcf" fill-rule="evenodd" stroke="none"/>
    <path d="M9.0 4.1 Q9.1 3.7 10.5 2.35 12.55 1.15 14.35 1.2 16.75 1.25 18.55 2.15 19.6 3.1 20.5 4.45 19.65 4.65 18.6 4.75 17.5 2.7 14.85 2.5 L13.7 2.55 Q11.0 2.9 9.55 4.5 L8.95 4.05 Q9.05 3.65 10.45 2.3 12.5 1.1 14.3 1.15 16.7 1.2 18.5 2.1 19.55 3.05 20.45 4.4 19.6 4.6 18.55 4.7 17.45 2.65 14.8 2.45 L13.65 2.5 Q10.95 2.85 9.5 4.45 L8.9 4.0" fill="none" stroke="#a36a6a" stroke-linecap="round" stroke-linejoin="round" stroke-width="1"/>
  </g>
  <g id="shape0" transform="matrix(1.0, 0.0, 0.0, 1.0, 1, 0.2)">
    <path d="M9.2 4.0 L9.6 4.35 9.7 4.55 9.75 4.65 9.8 4.9 9.8 4.95 Q9.8 5.4 9.25 5.4 L9.0 5.35 Q7.95 6.0 6.5 6.2 L2.25 6.35 0.0 6.15 0.0 5.9 Q-0.15 4.55 1.15 3.9 L2.1 4.15 4.9 4.35 8.55 4.15 Q8.6 3.95 8.95 3.95 L9.2 4.0" fill="#e2cfcf" fill-rule="evenodd" stroke="none"/>
    <path d="M9.8 4.95 Q9.8 5.4 9.25 5.4 L9.0 5.35 Q7.95 6.0 6.5 6.2 L2.25 6.35 0.0 6.15 0.0 5.9 Q-0.15 4.55 1.15 3.9 L2.1 4.15 4.9 4.35 8.55 4.15 Q8.6 3.95 8.95 3.95 L9.2 4.0" fill="none" stroke="#a36a6a" stroke-linecap="round" stroke-linejoin="round" stroke-width="1"/>
  </g>
</svg>