<?xml version="1.0" encoding="UTF-8" standalone="no"?>
<svg xmlns:xlink="http://www.w3.org/1999/xlink" height="11.45px" width="22.6px" xmlns="http://www.w3.org/2000/svg">
  <g id="morphshape0" transform="matrix(1.0, 0.0, 0.0, 1.0, 1, 0.2)">
    <path d="M9.25 3.8 L9.25 3.9 9.35 4.3 9.4 4.5 Q9.45 4.65 9.5 4.8 L9.8 4.8 10.1 4.95 10.75 5.55 11.25 6.55 11.45 7.0 Q12.0 8.3 13.2 8.5 L14.1 8.45 14.65 8.35 14.95 8.25 15.35 8.15 16.7 7.4 16.9 7.2 17.45 6.4 17.5 6.1 17.55 5.25 16.3 5.0 16.3 5.4 Q16.15 5.85 16.0 6.3 L15.2 7.15 14.4 7.45 13.85 7.5 13.3 7.45 12.6 6.9 12.0 5.75 11.7 5.1 11.6 4.8 10.15 3.75 9.25 3.8" fill="#bb8989" fill-rule="evenodd" stroke="none"/>
    <path d="M9.25 3.8 L10.15 3.75 11.6 4.8 11.7 5.1 12.0 5.75 12.6 6.9 13.3 7.45 13.85 7.5 14.4 7.45 15.2 7.15 16.0 6.3 Q16.15 5.85 16.3 5.4 L16.3 5.0 17.55 5.25 17.5 6.1 17.45 6.4 16.9 7.2 16.7 7.4 15.35 8.15 14.95 8.25 14.65 8.35 14.1 8.45 13.2 8.5 Q12.0 8.3 11.45 7.0 L11.25 6.55 10.75 5.55 10.1 4.95 9.8 4.8 9.5 4.8 Q9.45 4.65 9.4 4.5 L9.35 4.3 9.25 3.9 9.25 3.8 10.15 3.75 11.6 4.8 11.7 5.1 12.0 5.75 12.6 6.9 13.3 7.45 13.85 7.5 14.4 7.45 15.2 7.15 16.0 6.3 Q16.15 5.85 16.3 5.4 L16.3 5.0 17.55 5.25 17.5 6.1 17.45 6.4 16.9 7.2 16.7 7.4 15.35 8.15 14.95 8.25 14.65 8.35 14.1 8.45 13.2 8.5 Q12.0 8.3 11.45 7.0 L11.25 6.55 10.75 5.55 10.1 4.95 9.8 4.8 9.5 4.8 Q9.45 4.65 9.4 4.5 L9.35 4.3 9.25 3.9" fill="none" stroke="#a36a6a" stroke-linecap="round" stroke-linejoin="round" stroke-width="1"/>
  </g>
  <g id="morphshape1" transform="matrix(1.0, 0.0, 0.0, 1.0, 1, 0.2)">
    <path d="M8.95 4.1 L9.55 4.55 Q10.9 3.0 13.65 2.4 L14.85 2.25 Q17.45 2.15 18.5 4.5 19.55 4.4 20.55 4.3 19.6 3.0 18.65 1.8 16.8 0.7 14.4 1.0 12.6 1.2 10.5 2.35 9.0 3.8 8.95 4.1" fill="#e2cfcf" fill-rule="evenodd" stroke="none"/>
    <path d="M8.95 4.1 Q9.0 3.8 10.5 2.35 12.6 1.2 14.4 1.0 16.8 0.7 18.65 1.8 19.6 3.0 20.55 4.3 19.55 4.4 18.5 4.5 17.45 2.15 14.85 2.25 L13.65 2.4 Q10.9 3.0 9.55 4.55 L8.95 4.1 Q9.0 3.8 10.5 2.35 12.6 1.2 14.4 1.0 16.8 0.7 18.65 1.8 19.6 3.0 20.55 4.3 19.55 4.4 18.5 4.5 17.45 2.15 14.85 2.25 L13.65 2.4 Q10.9 3.0 9.55 4.55 L8.95 4.1 Z" fill="none" stroke="#a36a6a" stroke-linecap="round" stroke-linejoin="round" stroke-width="1"/>
  </g>
  <g id="shape0" transform="matrix(1.0, 0.0, 0.0, 1.0, 1, 0.2)">
    <path d="M9.2 4.0 L9.6 4.35 9.7 4.55 9.75 4.65 9.8 4.9 9.8 4.95 Q9.8 5.4 9.25 5.4 L9.0 5.35 Q7.95 6.0 6.5 6.2 L2.25 6.35 0.0 6.15 0.0 5.9 Q-0.15 4.55 1.15 3.9 L2.1 4.15 4.9 4.35 8.55 4.15 Q8.6 3.95 8.95 3.95 L9.2 4.0" fill="#e2cfcf" fill-rule="evenodd" stroke="none"/>
    <path d="M9.8 4.95 Q9.8 5.4 9.25 5.4 L9.0 5.35 Q7.95 6.0 6.5 6.2 L2.25 6.35 0.0 6.15 0.0 5.9 Q-0.15 4.55 1.15 3.9 L2.1 4.15 4.9 4.35 8.55 4.15 Q8.6 3.95 8.95 3.95 L9.2 4.0" fill="none" stroke="#a36a6a" stroke-linecap="round" stroke-linejoin="round" stroke-width="1"/>
  </g>
</svg>