<?xml version="1.0" encoding="UTF-8" standalone="no"?>
<svg xmlns:xlink="http://www.w3.org/1999/xlink" height="11.45px" width="22.6px" xmlns="http://www.w3.org/2000/svg">
  <g id="morphshape0" transform="matrix(1.0, 0.0, 0.0, 1.0, 1, 0.2)">
    <path d="M9.05 3.8 Q9.15 3.9 9.25 3.95 L9.35 4.05 9.45 4.15 Q10.7 2.75 12.45 3.35 L13.25 3.7 Q15.25 5.05 16.15 5.5 L16.35 5.5 17.3 5.6 17.3 5.05 16.65 3.65 15.65 3.8 Q14.65 3.9 10.15 2.6 9.45 3.35 9.05 3.85" fill="#bb8989" fill-rule="evenodd" stroke="none"/>
    <path d="M9.05 3.9 Q9.45 3.4 10.15 2.65 14.65 3.95 15.65 3.85 L16.65 3.7 17.3 5.1 17.3 5.65 16.35 5.55 16.15 5.55 Q15.25 5.1 13.25 3.75 L12.45 3.4 Q10.7 2.8 9.45 4.2 L9.35 4.1 9.25 4.0 Q9.15 3.95 9.05 3.85 9.45 3.35 10.15 2.6 14.65 3.9 15.65 3.8 L16.65 3.65 17.3 5.05 17.3 5.6 16.35 5.5 16.15 5.5 Q15.25 5.05 13.25 3.7 L12.45 3.35 Q10.7 2.75 9.45 4.15 L9.35 4.05 9.25 3.95 Q9.15 3.9 9.05 3.8" fill="none" stroke="#a36a6a" stroke-linecap="round" stroke-linejoin="round" stroke-width="1"/>
  </g>
  <g id="morphshape1" transform="matrix(1.0, 0.0, 0.0, 1.0, 1, 0.2)">
    <path d="M9.15 4.0 L9.25 4.05 9.55 4.45 9.65 4.55 10.25 4.45 Q11.05 4.6 11.7 4.9 12.35 5.25 12.9 5.7 L13.8 6.45 Q14.45 6.95 15.2 7.25 L17.0 7.65 17.35 7.7 17.85 7.7 18.55 7.6 19.95 7.35 20.35 7.35 19.35 4.6 19.2 4.45 18.95 4.6 Q18.5 4.8 18.15 5.05 L17.7 5.3 17.65 5.35 17.35 5.5 16.5 5.6 15.35 5.5 Q14.75 5.35 14.1 4.75 L13.55 4.3 13.0 3.8 12.1 3.3 9.85 3.4 9.2 3.95" fill="#e2cfcf" fill-rule="evenodd" stroke="none"/>
    <path d="M9.2 3.95 L9.85 3.4 12.1 3.3 13.0 3.8 13.55 4.3 14.1 4.75 Q14.75 5.35 15.35 5.5 L16.5 5.6 17.35 5.5 17.65 5.35 17.7 5.3 18.15 5.05 Q18.5 4.8 18.95 4.6 L19.2 4.45 19.35 4.6 20.35 7.35 19.95 7.35 18.55 7.6 17.85 7.7 17.35 7.7 17.0 7.65 15.2 7.25 Q14.45 6.95 13.8 6.45 L12.9 5.7 Q12.35 5.25 11.7 4.9 11.05 4.6 10.25 4.45 L9.65 4.55 9.55 4.45 9.25 4.05 9.15 4.0 M9.2 3.95 L9.85 3.4 12.1 3.3 13.0 3.8 13.55 4.3 14.1 4.75 Q14.75 5.35 15.35 5.5 L16.5 5.6 17.35 5.5 17.65 5.35 17.7 5.3 18.15 5.05 Q18.5 4.8 18.95 4.6 L19.2 4.45 19.35 4.6 20.35 7.35 19.95 7.35 18.55 7.6 17.85 7.7 17.35 7.7 17.0 7.65 15.2 7.25 Q14.45 6.95 13.8 6.45 L12.9 5.7 Q12.35 5.25 11.7 4.9 11.05 4.6 10.25 4.45 L9.65 4.55 9.55 4.45 9.25 4.05" fill="none" stroke="#a36a6a" stroke-linecap="round" stroke-linejoin="round" stroke-width="1"/>
  </g>
  <g id="shape0" transform="matrix(1.0, 0.0, 0.0, 1.0, 1, 0.2)">
    <path d="M9.2 4.0 L9.6 4.35 9.7 4.55 9.75 4.65 9.8 4.9 9.8 4.95 Q9.8 5.4 9.25 5.4 L9.0 5.35 Q7.95 6.0 6.5 6.2 L2.25 6.35 0.0 6.15 0.0 5.9 Q-0.15 4.55 1.15 3.9 L2.1 4.15 4.9 4.35 8.55 4.15 Q8.6 3.95 8.95 3.95 L9.2 4.0" fill="#e2cfcf" fill-rule="evenodd" stroke="none"/>
    <path d="M9.8 4.95 Q9.8 5.4 9.25 5.4 L9.0 5.35 Q7.95 6.0 6.5 6.2 L2.25 6.35 0.0 6.15 0.0 5.9 Q-0.15 4.55 1.15 3.9 L2.1 4.15 4.9 4.35 8.55 4.15 Q8.6 3.95 8.95 3.95 L9.2 4.0" fill="none" stroke="#a36a6a" stroke-linecap="round" stroke-linejoin="round" stroke-width="1"/>
  </g>
</svg>