<?xml version="1.0" encoding="UTF-8" standalone="no"?>
<svg xmlns:xlink="http://www.w3.org/1999/xlink" height="6.65px" width="7.05px" xmlns="http://www.w3.org/2000/svg">
  <g id="shape0" transform="matrix(1.0, 0.0, 0.0, 1.0, 1, 1.15)">
    <path d="M4.8 2.65 L4.5 2.95 3.9 3.35 3.1 3.6 2.65 3.55 Q1.25 3.95 0.3 0.75 0.45 0.2 1.45 -0.05 L3.55 0.2 Q4.65 0.65 5.0 2.2 L4.8 2.65 4.55 2.15 3.95 1.75 4.55 2.15 4.8 2.65 M1.85 2.25 Q2.5 2.65 2.65 3.55 2.5 2.65 1.85 2.25 M3.35 2.5 L3.9 3.35 3.35 2.5" fill="#ffffff" fill-rule="evenodd" stroke="none"/>
    <path d="M3.9 3.35 L4.5 2.95 4.8 2.65 5.0 2.2 5.05 2.55 4.95 3.6 4.8 2.65 4.95 3.6 4.65 4.05 4.0 4.4 3.9 3.4 3.9 3.35 3.9 3.4 4.0 4.4 2.7 4.5 2.65 4.5 Q1.45 4.55 0.95 3.65 L0.15 2.25 Q-0.1 1.75 0.1 1.2 L0.3 0.75 Q1.25 3.95 2.65 3.55 L2.65 4.5 2.65 3.55 3.1 3.6 3.9 3.35" fill="#d6baba" fill-rule="evenodd" stroke="none"/>
    <path d="M4.8 2.65 L4.55 2.15 3.95 1.75 M4.8 2.65 L4.95 3.6 5.05 2.55 5.0 2.2 Q4.65 0.65 3.55 0.2 L1.45 -0.05 Q0.45 0.2 0.3 0.75 L0.1 1.2 Q-0.1 1.75 0.15 2.25 L0.95 3.65 Q1.45 4.55 2.65 4.5 L2.65 3.55 Q2.5 2.65 1.85 2.25 M3.9 3.35 L3.35 2.5 M4.0 4.4 L3.9 3.4 3.9 3.35 M4.0 4.4 L4.65 4.05 4.95 3.6 M2.65 4.5 L2.7 4.5 4.0 4.4" fill="none" stroke="#a36a6a" stroke-linecap="round" stroke-linejoin="round" stroke-width="1"/>
  </g>
</svg>