<?xml version="1.0" encoding="UTF-8" standalone="no"?>
<svg xmlns:xlink="http://www.w3.org/1999/xlink" height="6.15px" width="6.6px" xmlns="http://www.w3.org/2000/svg">
  <g id="shape0" transform="matrix(1.0, 0.0, 0.0, 1.0, 1, 1)">
    <path d="M2.0 0.1 L4.6 0.75 Q4.3 0.9 3.45 1.75 L3.45 3.25 3.4 3.25 2.75 2.7 1.7 4.05 1.8 3.15 Q1.8 2.05 1.6 1.85 L1.05 1.65 1.1 1.65 1.75 1.35 0.95 0.15 1.0 0.15 2.0 0.7 2.0 0.1" fill="#d6baba" fill-rule="evenodd" stroke="none"/>
    <path d="M1.7 4.05 L1.6 4.15 Q1.4 3.75 1.35 2.85 L1.3 2.3 0.0 2.2 1.2 1.0 0.05 0.15 0.75 0.05 2.0 0.1 2.0 0.7 1.0 0.15 0.95 0.15 1.75 1.35 1.1 1.65 1.05 1.65 1.6 1.85 Q1.8 2.05 1.8 3.15 L1.7 4.05" fill="#ffffff" fill-rule="evenodd" stroke="none"/>
    <path d="M2.0 0.1 L4.6 0.75 Q4.3 0.9 3.45 1.75 L3.45 3.25 3.4 3.25 2.75 2.7 1.7 4.05 1.6 4.15 Q1.4 3.75 1.35 2.85 L1.3 2.3 0.0 2.2 1.2 1.0 0.05 0.15 0.75 0.05 2.0 0.1 Z" fill="none" stroke="#a36a6a" stroke-linecap="round" stroke-linejoin="round" stroke-width="1"/>
  </g>
</svg>