<?xml version="1.0" encoding="UTF-8" standalone="no"?>
<svg xmlns:xlink="http://www.w3.org/1999/xlink" height="7.85px" width="5.45px" xmlns="http://www.w3.org/2000/svg">
  <g id="shape0" transform="matrix(1.0, 0.0, 0.0, 1.0, 1, 1)">
    <path d="M0.05 4.15 L0.25 2.4 0.35 1.6 0.4 1.5 0.5 1.35 0.8 0.95 1.6 0.0 1.75 0.0 1.2 1.35 0.7 2.45 0.7 2.5 1.65 1.6 1.7 1.6 0.05 4.15" fill="#ffffff" fill-rule="evenodd" stroke="none"/>
    <path d="M3.05 0.0 Q2.45 0.55 2.45 1.35 L2.45 1.4 2.45 2.4 2.65 3.4 Q2.85 4.2 3.45 4.8 L3.4 4.85 1.95 4.5 1.9 5.85 1.2 5.05 0.7 4.3 0.4 4.75 0.05 5.1 0.0 5.05 0.0 4.8 0.05 4.15 1.7 1.6 1.65 1.6 0.7 2.5 0.7 2.45 1.2 1.35 1.75 0.0 3.05 0.0 M0.35 1.55 L0.4 1.35 0.5 0.4 0.5 0.25 0.6 0.1 0.4 0.3 0.3 0.35 0.3 0.0 1.6 0.0 0.8 0.95 0.5 1.35 0.4 1.5 0.35 1.55" fill="#d6baba" fill-rule="evenodd" stroke="none"/>
    <path d="M3.05 0.0 Q2.45 0.55 2.45 1.35 L2.45 1.4 2.45 2.4 2.65 3.4 Q2.85 4.2 3.45 4.8 L3.4 4.85 1.95 4.5 1.9 5.85 1.2 5.05 0.7 4.3 0.4 4.75 0.05 5.1 0.0 5.05 0.0 4.8 0.05 4.15 0.25 2.4 0.35 1.6 0.35 1.55 0.4 1.35 0.5 0.4 0.5 0.25 0.6 0.1 0.4 0.3 0.3 0.35 0.3 0.0" fill="none" stroke="#a36a6a" stroke-linecap="round" stroke-linejoin="round" stroke-width="1"/>
  </g>
</svg>