<?xml version="1.0" encoding="UTF-8" standalone="no"?>
<svg xmlns:xlink="http://www.w3.org/1999/xlink" height="4.7px" width="9.05px" xmlns="http://www.w3.org/2000/svg">
  <g id="shape0" transform="matrix(1.0, 0.0, 0.0, 1.0, 1, 1)">
    <path d="M6.9 0.4 L5.55 0.75 2.8 1.2 1.3 1.0 1.1 0.9 1.45 0.8 5.25 0.1 Q6.55 -0.15 6.9 0.4" fill="#ffffff" fill-rule="evenodd" stroke="none"/>
    <path d="M1.1 0.9 L1.3 1.0 2.8 1.2 5.55 0.75 6.9 0.4 7.0 1.3 6.45 1.7 1.05 2.65 1.0 2.65 Q0.2 2.85 0.05 2.35 L0.05 2.3 0.0 2.05 Q-0.05 1.35 1.0 0.95 L1.1 0.9" fill="#d6baba" fill-rule="evenodd" stroke="none"/>
    <path d="M6.9 0.4 Q6.55 -0.15 5.25 0.1 L1.45 0.8 1.1 0.9 1.0 0.95 M1.05 2.65 L6.45 1.7 7.0 1.3 6.9 0.4" fill="none" stroke="#a36a6a" stroke-linecap="round" stroke-linejoin="round" stroke-width="1"/>
  </g>
</svg>