<?xml version="1.0" encoding="UTF-8" standalone="no"?>
<svg xmlns:xlink="http://www.w3.org/1999/xlink" height="4.7px" width="7.3px" xmlns="http://www.w3.org/2000/svg">
  <g id="shape0" transform="matrix(1.0, 0.0, 0.0, 1.0, 1, 1)">
    <path d="M0.15 0.35 Q0.35 -0.1 1.15 0.05 L4.3 0.9 4.55 1.0 4.3 1.1 3.6 1.15 Q0.75 0.9 0.15 0.35" fill="#ffffff" fill-rule="evenodd" stroke="none"/>
    <path d="M0.15 0.35 Q0.75 0.9 3.6 1.15 L4.3 1.1 4.55 1.0 Q5.3 1.3 5.3 2.05 5.3 2.9 4.5 2.6 L1.2 1.6 Q-0.2 1.1 0.05 0.5 L0.15 0.35" fill="#d6baba" fill-rule="evenodd" stroke="none"/>
    <path d="M4.55 1.0 L4.3 0.9 1.15 0.05 Q0.35 -0.1 0.15 0.35 L0.05 0.5 Q-0.2 1.1 1.2 1.6 L4.5 2.6" fill="none" stroke="#a36a6a" stroke-linecap="round" stroke-linejoin="round" stroke-width="1"/>
  </g>
</svg>