<?xml version="1.0" encoding="UTF-8" standalone="no"?>
<svg xmlns:xlink="http://www.w3.org/1999/xlink" height="10.75px" width="15.9px" xmlns="http://www.w3.org/2000/svg">
  <g transform="matrix(1.0, 0.0, 0.0, 1.0, 7.95, 5.35)">
    <path d="M-6.7 1.6 L-6.95 0.55 -6.55 -1.3 -6.45 -1.45 -6.3 -1.8 -5.85 -2.2 Q-3.0 -4.35 1.45 -4.35 4.05 -4.35 5.5 -3.15 5.2 -1.75 3.8 -0.35 1.8 1.65 -1.7 2.15 L-3.85 2.25 -6.7 1.6" fill="#888288" fill-rule="evenodd" stroke="none"/>
    <path d="M5.5 -3.15 L5.85 -2.85 6.15 -2.55 6.3 -2.35 Q6.95 -1.45 6.95 -0.5 6.95 0.3 6.2 1.2 L4.95 2.3 Q4.15 2.95 2.05 3.7 L-0.35 4.4 -1.7 4.35 Q-3.9 4.1 -5.35 3.05 L-5.5 3.0 -6.7 1.6 -3.85 2.25 -1.7 2.15 Q1.8 1.65 3.8 -0.35 5.2 -1.75 5.5 -3.15" fill="#503050" fill-rule="evenodd" stroke="none"/>
    <path d="M-6.7 1.6 L-6.95 0.55 -6.55 -1.3 -6.45 -1.45 -6.3 -1.8 -5.85 -2.2 Q-3.0 -4.35 1.45 -4.35 4.05 -4.35 5.5 -3.15 L5.85 -2.85 6.15 -2.55 6.3 -2.35 Q6.95 -1.45 6.95 -0.5 6.95 0.3 6.2 1.2 L4.95 2.3 Q4.15 2.95 2.05 3.7 L-0.35 4.4 -1.7 4.35 Q-3.9 4.1 -5.35 3.05 L-5.5 3.0 -6.7 1.6 Z" fill="none" stroke="#660000" stroke-linecap="round" stroke-linejoin="round" stroke-width="1"/>
  </g>
</svg>