<?xml version="1.0" encoding="UTF-8" standalone="no"?>
<svg xmlns:xlink="http://www.w3.org/1999/xlink" height="6.85px" width="11.05px" xmlns="http://www.w3.org/2000/svg">
  <g transform="matrix(1.0, 0.0, 0.0, 1.0, 5.5, 3.4)">
    <path d="M-1.1 -0.9 L-0.9 -0.85 -0.6 -0.85 -0.1 -0.75 1.05 -0.35 3.15 1.15 3.9 1.75 4.35 2.15 3.95 2.2 0.1 1.4 -0.6 1.2 -1.35 1.0 -3.1 0.25 Q-3.1 -0.25 -1.8 -0.7 L-1.35 -0.85 -1.1 -0.9" fill="#f28250" fill-rule="evenodd" stroke="none"/>
    <path d="M-4.5 -1.95 L-4.25 -2.2 -4.05 -2.35 -2.6 -2.15 -2.35 -2.05 -1.85 -1.35 -1.35 -0.95 -1.1 -0.9 -1.35 -0.85 -1.8 -0.7 Q-3.1 -0.25 -3.1 0.25 L-1.35 1.0 -0.6 1.2 0.1 1.4 3.95 2.2 4.35 2.15 4.55 2.4 3.65 2.45 1.0 2.25 -0.6 2.15 -1.35 2.05 Q-4.5 1.55 -4.5 0.4 -4.05 -0.6 -4.05 -1.05 L-4.5 -1.95" fill="#cc4811" fill-rule="evenodd" stroke="none"/>
    <path d="M-2.35 -2.05 L-1.85 -1.35 -1.35 -0.95 -1.1 -0.9 -0.9 -0.85 -0.6 -0.85 -0.1 -0.75 1.05 -0.35 3.15 1.15 3.9 1.75 4.35 2.15 4.55 2.4 3.65 2.45 1.0 2.25 -0.6 2.15 -1.35 2.05 Q-4.5 1.55 -4.5 0.4 -4.05 -0.6 -4.05 -1.05 L-4.5 -1.95" fill="none" stroke="#a36a6a" stroke-linecap="round" stroke-linejoin="round" stroke-width="1"/>
  </g>
</svg>