<?xml version="1.0" encoding="UTF-8" standalone="no"?>
<svg xmlns:xlink="http://www.w3.org/1999/xlink" height="4.95px" width="9.85px" xmlns="http://www.w3.org/2000/svg">
  <g transform="matrix(1.0, 0.0, 0.0, 1.0, 4.95, 2.5)">
    <path d="M2.9 0.85 L2.65 0.85 2.65 0.8 2.7 0.75 2.9 0.85" fill="#d6baba" fill-rule="evenodd" stroke="none"/>
    <path d="M-3.3 -1.4 L-0.45 -1.4 3.45 -1.0 3.9 -0.9 3.25 0.05 2.95 0.7 2.9 0.85 2.7 0.75 2.85 0.6 2.65 0.75 0.75 0.65 -1.25 0.05 -2.7 -0.75 -3.3 -1.4" fill="#f28250" fill-rule="evenodd" stroke="none"/>
    <path d="M2.4 1.0 L2.0 1.45 Q-0.2 1.3 -1.7 0.4 L-3.95 -1.2 -3.3 -1.4 -2.7 -0.75 -1.25 0.05 0.75 0.65 2.65 0.75 2.4 1.0" fill="#cc4811" fill-rule="evenodd" stroke="none"/>
    <path d="M-3.3 -1.4 L-0.45 -1.4 3.45 -1.0 3.9 -0.9 M2.9 0.85 L2.65 0.85 2.4 1.0 2.0 1.45 Q-0.2 1.3 -1.7 0.4 L-3.95 -1.2 -3.3 -1.4 M2.65 0.75 L2.85 0.6 M2.4 1.0 L2.65 0.75" fill="none" stroke="#a36a6a" stroke-linecap="round" stroke-linejoin="round" stroke-width="1"/>
  </g>
</svg>