<?xml version="1.0" encoding="UTF-8" standalone="no"?>
<svg xmlns:xlink="http://www.w3.org/1999/xlink" height="16.05px" width="23.85px" xmlns="http://www.w3.org/2000/svg">
  <g transform="matrix(1.0, 0.0, 0.0, 1.0, 9.65, 3.9)">
    <path d="M-6.05 -0.4 L-6.1 -0.4 -6.35 0.45 -7.0 2.95 -7.35 6.1 Q-7.4 7.7 -5.95 8.8 -4.6 9.85 -3.15 9.85 3.3 10.3 9.25 7.8 L10.45 7.3 12.4 6.55 12.85 6.35 8.95 8.8 Q4.95 10.85 0.5 11.1 L-3.65 11.15 Q-6.8 10.8 -8.1 8.25 -8.7 6.95 -8.65 5.55 -8.6 1.85 -5.95 -0.75 L-6.05 -0.4" fill="#a36a6a" fill-rule="evenodd" stroke="none"/>
    <path d="M-6.05 -0.4 L-5.6 -0.85 Q-3.35 -2.65 2.45 -2.9 7.35 -2.0 10.4 0.3 13.2 2.35 13.2 4.4 13.2 5.8 12.4 6.55 L10.45 7.3 9.25 7.8 Q3.3 10.3 -3.15 9.85 -4.6 9.85 -5.95 8.8 -7.4 7.7 -7.35 6.1 L-7.0 2.95 -6.35 0.45 -6.1 -0.4 -6.05 -0.4 M3.2 -1.3 L-0.95 -1.6 Q-7.0 -0.6 -7.0 4.2 L-6.75 5.55 Q-6.1 6.9 -4.2 6.9 -0.35 6.9 2.65 4.35 5.1 2.3 5.1 1.0 5.1 -0.6 3.2 -1.3" fill="#e0cbcb" fill-rule="evenodd" stroke="none"/>
    <path d="M3.2 -1.3 Q5.1 -0.6 5.1 1.0 5.1 2.3 2.65 4.35 -0.35 6.9 -4.2 6.9 -6.1 6.9 -6.75 5.55 L-7.0 4.2 Q-7.0 -0.6 -0.95 -1.6 L3.2 -1.3" fill="url(#gradient0)" fill-rule="evenodd" stroke="none"/>
  </g>
  <defs>
    <radialGradient cx="0" cy="0" gradientTransform="matrix(0.0633, -0.0059, 0.0039, 0.0422, -37.2, -33.5)" gradientUnits="userSpaceOnUse" id="gradient0" r="819.2" spreadMethod="pad">
      <stop offset="0.47843137254901963" stop-color="#ffffff"></stop>
      <stop offset="0.8823529411764706" stop-color="#f2eaea"></stop>
    </radialGradient>
  </defs>
</svg>