<?xml version="1.0" encoding="UTF-8" standalone="no"?>
<svg xmlns:xlink="http://www.w3.org/1999/xlink" height="37.3px" width="59.9px" xmlns="http://www.w3.org/2000/svg">
  <g transform="matrix(1.0, 0.0, 0.0, 1.0, 47.65, 31.9)">
    <path d="M0.15 -20.7 Q-6.95 -24.6 -11.3 -24.75 L-11.4 -24.8 -11.55 -25.35 Q-11.55 -26.55 -8.85 -27.15 L-1.65 -27.6 Q5.0 -27.5 8.45 -25.7 11.25 -24.3 11.25 -22.3 11.25 -21.3 9.8 -19.25 8.1 -16.85 6.45 -16.85 3.7 -18.75 0.15 -20.7 M-44.7 -21.95 Q-44.7 -23.8 -40.25 -26.1 -36.15 -28.2 -30.45 -29.6 -24.55 -31.1 -20.65 -30.85 -16.2 -30.55 -16.2 -28.1 -16.2 -27.45 -20.05 -25.35 -22.05 -24.3 -24.6 -22.95 L-24.05 -21.8 -23.75 -20.65 Q-23.75 -19.5 -24.8 -17.85 L-24.95 -17.55 Q-22.65 -17.95 -21.75 -18.6 -13.6 -24.2 -8.15 -22.25 -3.75 -20.7 -3.75 -16.65 -3.75 -9.4 -15.6 -9.05 -15.15 -7.35 -15.15 -4.95 -15.15 -2.75 -18.6 -0.05 -22.3 2.8 -26.1 2.8 -29.75 2.8 -30.9 -1.55 -31.5 -3.75 -31.35 -5.85 -31.35 -7.75 -28.8 -10.05 L-28.55 -10.25 Q-31.35 -9.65 -32.4 -8.4 L-33.7 -6.75 Q-34.6 -6.0 -36.7 -6.0 -40.1 -6.0 -43.3 -7.5 -46.65 -9.1 -46.65 -10.85 -46.65 -15.45 -35.85 -16.55 L-32.4 -16.8 -33.45 -18.0 Q-36.0 -20.6 -43.2 -20.6 -44.55 -20.6 -44.7 -21.95 M-3.35 3.9 L-6.95 4.4 Q-9.2 4.4 -9.8 3.5 L-9.95 2.5 Q-9.95 0.55 -5.35 -0.4 -0.75 -1.3 -0.75 1.8 -0.75 3.2 -3.35 3.9" fill="url(#gradient0)" fill-rule="evenodd" stroke="none"/>
  </g>
  <defs>
    <radialGradient cx="0" cy="0" gradientTransform="matrix(0.0775, -0.0085, 0.0048, 0.0439, -31.4, -19.1)" gradientUnits="userSpaceOnUse" id="gradient0" r="819.2" spreadMethod="pad">
      <stop offset="0.0" stop-color="#ffffff" stop-opacity="0.69411767"></stop>
      <stop offset="1.0" stop-color="#ffffff" stop-opacity="0.0"></stop>
    </radialGradient>
  </defs>
</svg>