<?xml version="1.0" encoding="UTF-8" standalone="no"?>
<svg xmlns:xlink="http://www.w3.org/1999/xlink" height="34.6px" width="52.1px" xmlns="http://www.w3.org/2000/svg">
  <g transform="matrix(1.0, 0.0, 0.0, 1.0, 26.05, 14.35)">
    <path d="M-6.0 -9.1 Q0.0 -12.8 7.0 -13.35 L9.5 -13.2 12.25 -12.65 Q14.7 -12.1 18.05 -10.7 12.25 -12.05 7.4 -11.8 0.8 -11.45 -7.05 -8.25 L-6.0 -9.1 M24.4 -3.25 L25.05 -3.85 23.0 -1.3 22.5 -0.6 22.25 -0.3 22.0 0.05 21.8 0.3 18.3 4.05 18.15 4.2 16.1 5.75 15.4 7.65 14.35 9.25 18.3 9.1 19.85 9.25 20.3 9.45 19.9 9.8 18.3 10.1 15.9 10.4 13.3 11.0 8.8 12.1 7.8 12.45 5.35 13.2 Q3.15 13.95 2.1 14.55 L1.75 14.25 Q1.75 13.45 4.0 12.4 L5.5 11.75 Q3.35 11.45 1.9 10.2 L1.4 9.7 -1.6 8.6 Q-5.35 7.4 -7.05 7.4 L-11.15 8.25 Q-12.0 8.85 -13.2 8.9 L-12.95 9.5 -13.05 9.6 -14.1 8.85 -14.45 8.65 -17.4 8.25 -19.85 8.45 -20.65 8.05 -19.85 7.65 -18.85 7.15 -19.7 6.35 -19.85 6.2 -20.55 5.25 -21.05 5.4 -25.05 3.9 Q-25.15 2.85 -24.05 3.4 -22.2 4.35 -20.75 2.95 L-23.0 -0.2 -22.55 -0.15 -19.85 1.45 -19.7 1.55 -19.2 1.9 Q-16.9 3.45 -14.95 3.45 L-13.4 3.45 -12.8 3.4 -11.75 2.3 Q-11.35 1.65 -11.25 0.75 L-11.55 -0.55 -11.6 -1.05 -11.6 -1.65 -11.6 -2.15 -11.6 -2.3 -11.35 -3.9 -11.35 -2.6 -11.25 -1.85 -11.2 -1.5 -10.95 -0.55 Q-9.9 2.5 -6.15 4.15 -0.6 6.65 7.25 5.1 L12.45 3.7 Q15.35 2.7 17.9 1.35 L18.3 1.15 24.4 -3.25 M-9.25 10.6 Q-5.2 9.8 -1.25 11.4 L-3.15 11.2 Q-7.35 11.0 -11.6 11.1 L-9.25 10.6 M-0.75 9.75 L-2.95 9.5 Q-8.25 9.05 -11.95 9.65 -6.3 7.0 -0.75 9.75 M-10.85 1.75 L-10.85 1.8 -10.8 1.8 -10.85 1.75 M-13.45 5.25 L-13.7 6.15 Q-14.05 6.95 -14.75 6.95 -16.2 6.95 -16.35 5.1 L-16.25 4.65 -18.05 3.8 -18.55 4.05 -19.05 4.45 -19.2 4.9 -17.95 6.05 -16.15 7.4 Q-15.15 7.55 -14.4 8.0 L-14.15 8.15 -14.4 7.95 -13.5 7.55 -12.35 7.05 -11.95 5.75 -12.85 5.25 -12.95 5.2 -13.45 5.1 -13.45 5.25 M14.75 4.55 L14.75 4.45 14.65 4.5 12.45 5.35 8.1 6.5 8.15 6.95 7.85 7.9 Q7.45 8.65 6.7 8.65 4.55 8.65 4.55 7.2 L4.55 7.0 2.1 7.1 2.1 7.2 1.8 7.95 Q1.8 9.3 5.5 10.15 L8.2 10.85 8.35 10.8 11.55 9.7 12.45 8.9 Q14.15 7.25 14.45 6.5 L14.75 4.55" fill="#a36a6a" fill-rule="evenodd" stroke="none"/>
    <path d="M9.5 -13.2 L12.35 -13.15 Q17.05 -12.05 21.05 -9.7 L19.6 -5.45 18.3 -3.95 18.05 -3.7 Q16.65 -2.2 14.15 -1.0 L12.45 -0.25 Q8.45 1.2 3.3 1.2 -4.15 1.2 -8.15 -0.4 L-11.25 -1.85 -11.35 -2.6 -11.25 -2.75 -11.35 -2.6 -11.35 -3.9 -11.6 -2.3 -11.8 -2.05 -11.9 -1.95 -11.9 -1.9 -13.35 -0.6 Q-15.45 0.25 -18.5 0.25 L-19.85 0.25 -22.6 -0.25 -23.3 -2.25 -24.15 -2.9 Q-23.55 -5.25 -21.55 -6.6 L-19.85 -7.75 Q-18.45 -8.4 -16.9 -8.4 -15.25 -8.4 -13.75 -7.7 L-12.15 -7.0 -11.75 -7.0 -10.5 -7.15 Q-8.05 -7.7 -6.0 -9.1 L-7.05 -8.25 Q0.8 -11.45 7.4 -11.8 12.25 -12.05 18.05 -10.7 14.7 -12.1 12.25 -12.65 L9.5 -13.2 M15.9 10.4 L16.25 11.95 Q16.25 13.05 13.5 16.35 10.75 19.6 3.9 19.2 2.9 17.65 3.55 15.8 4.15 13.95 7.8 12.45 L8.8 12.1 13.3 11.0 15.9 10.4 M-11.2 -1.5 L-10.95 -0.55 -11.2 -1.5 M-11.6 -2.15 L-11.6 -1.65 -11.6 -2.0 -11.65 -2.05 -11.6 -2.15" fill="url(#gradient0)" fill-rule="evenodd" stroke="none"/>
    <path d="M21.05 -9.7 L21.9 -9.35 Q23.5 -8.6 24.05 -6.95 24.5 -5.8 24.6 -4.15 L24.4 -3.25 18.3 1.15 17.9 1.35 Q15.35 2.7 12.45 3.7 L7.25 5.1 Q-0.6 6.65 -6.15 4.15 -9.9 2.5 -10.95 -0.55 L-11.2 -1.5 -11.25 -1.85 -8.15 -0.4 Q-4.15 1.2 3.3 1.2 8.45 1.2 12.45 -0.25 L14.15 -1.0 Q16.65 -2.2 18.05 -3.7 L18.3 -3.95 19.6 -5.45 21.05 -9.7 M21.8 0.3 Q19.4 4.6 19.6 6.9 19.75 9.2 19.85 9.25 L18.3 9.1 14.35 9.25 15.4 7.65 16.1 5.75 18.15 4.2 18.3 4.05 21.8 0.3 M-22.55 -0.15 L-22.6 -0.25 -19.85 0.25 -18.5 0.25 Q-15.45 0.25 -13.35 -0.6 L-11.9 -1.9 -11.9 -1.95 -11.8 -2.05 -11.6 -2.3 -11.6 -2.15 -11.65 -2.05 -11.6 -2.0 -11.6 -1.65 -11.6 -1.05 -11.55 -0.55 -11.25 0.75 Q-11.35 1.65 -11.75 2.3 L-12.8 3.4 -13.4 3.45 -14.95 3.45 Q-16.9 3.45 -19.2 1.9 L-19.7 1.55 -19.85 1.45 -22.55 -0.15 M-11.35 -2.6 L-11.25 -2.75 -11.35 -2.6" fill="#e0cbcb" fill-rule="evenodd" stroke="none"/>
  </g>
  <defs>
    <radialGradient cx="0" cy="0" gradientTransform="matrix(0.0452, -0.0042, 0.0028, 0.0301, -6.7, -16.25)" gradientUnits="userSpaceOnUse" id="gradient0" r="819.2" spreadMethod="pad">
      <stop offset="0.47843137254901963" stop-color="#ffffff"></stop>
      <stop offset="0.8823529411764706" stop-color="#f2eaea"></stop>
    </radialGradient>
  </defs>
</svg>