<?xml version="1.0" encoding="UTF-8" standalone="no"?>
<svg xmlns:xlink="http://www.w3.org/1999/xlink" height="23.25px" width="43.05px" xmlns="http://www.w3.org/2000/svg">
  <g transform="matrix(1.0, 0.0, 0.0, 1.0, 8.3, 14.3)">
    <path d="M-6.2 -1.85 L-6.25 -2.4 Q-6.25 -3.85 -5.5 -5.05 -4.1 -7.2 -0.7 -7.2 L0.45 -7.1 1.7 -6.75 1.85 -6.95 1.05 -7.25 2.5 -6.75 4.0 -5.6 6.2 -3.3 6.9 -1.15 7.1 0.35 Q5.8 -0.45 4.75 -0.55 L2.65 -0.35 0.8 -0.05 Q0.15 -0.05 -1.1 -0.7 L-2.55 -1.4 -4.6 -1.6 -6.05 -1.8 -6.2 -1.85 M-2.4 2.75 L-1.5 3.0 -1.3 3.0 -0.8 2.75 Q-0.05 2.85 0.3 3.45 L0.55 4.25 0.4 4.85 Q0.0 5.25 -1.25 5.25 L-2.95 4.8 -3.5 3.9 -3.05 3.2 -2.4 2.75" fill="url(#gradient0)" fill-rule="evenodd" stroke="none"/>
    <path d="M1.05 -7.25 L1.85 -6.95 1.7 -6.75 0.45 -7.1 -0.7 -7.2 Q-4.1 -7.2 -5.5 -5.05 -6.25 -3.85 -6.25 -2.4 L-6.2 -1.85 -6.0 -1.1 -5.95 -1.0 -4.95 0.35 -4.45 1.0 Q-4.05 1.1 -3.55 1.35 L-4.3 -0.9 Q-2.65 -0.45 -1.5 0.8 -0.75 1.65 -0.7 2.2 L-0.7 2.4 -0.8 2.75 -1.3 3.0 -1.5 3.0 -2.4 2.75 -3.0 2.25 -3.2 1.95 -3.15 2.15 Q-3.4 1.95 -3.7 2.15 L-4.3 2.7 -4.25 3.1 -3.95 4.7 -3.6 5.25 -3.4 5.5 Q-2.3 6.8 -0.2 6.8 2.7 6.8 4.45 5.05 L5.65 3.85 6.65 2.75 Q6.45 3.1 6.5 3.75 L6.5 3.8 Q6.5 4.35 4.75 6.15 2.95 7.95 -0.25 7.95 -3.35 7.95 -4.65 5.65 L-4.85 5.2 -4.95 4.7 Q-5.05 2.1 -6.5 0.35 L-7.3 -1.1 -7.3 -1.15 -7.3 -2.35 Q-7.3 -5.15 -5.75 -6.7 -3.6 -8.85 1.05 -7.25" fill="#a36a6a" fill-rule="evenodd" stroke="none"/>
    <path d="M-6.2 -1.85 L-6.05 -1.8 -4.6 -1.6 -2.55 -1.4 -1.1 -0.7 Q0.15 -0.05 0.8 -0.05 L2.65 -0.35 4.75 -0.55 Q5.8 -0.45 7.1 0.35 L7.25 1.25 7.25 1.3 Q7.25 2.15 6.7 3.4 L6.5 3.85 6.5 3.8 6.5 3.75 Q6.45 3.1 6.65 2.75 L5.65 3.85 4.45 5.05 Q2.7 6.8 -0.2 6.8 -2.3 6.8 -3.4 5.5 L-3.6 5.25 -3.95 4.7 -4.25 3.1 -4.3 2.7 -3.7 2.15 Q-3.4 1.95 -3.15 2.15 L-3.2 1.95 -3.0 2.25 -2.4 2.75 -3.05 3.2 -3.5 3.9 -2.95 4.8 -1.25 5.25 Q0.0 5.25 0.4 4.85 L0.55 4.25 0.3 3.45 Q-0.05 2.85 -0.8 2.75 L-0.7 2.4 -0.7 2.2 Q-0.75 1.65 -1.5 0.8 -2.65 -0.45 -4.3 -0.9 L-3.55 1.35 Q-4.05 1.1 -4.45 1.0 L-4.95 0.35 -5.95 -1.0 -6.0 -1.1 -6.2 -1.85" fill="#e0cbcb" fill-rule="evenodd" stroke="none"/>
    <path d="M24.35 -12.35 L21.45 -12.25 19.4 -12.05 Q16.0 -11.55 12.75 -10.05 L11.9 -9.6 10.15 -8.35 10.15 -8.3 Q8.25 -6.55 7.85 -3.9 7.2 0.3 9.65 3.1 12.1 5.9 16.2 5.9 20.85 5.95 25.1 4.05 L25.8 3.7 Q24.4 5.0 22.8 5.75 21.3 6.45 19.55 6.65 15.15 7.35 11.3 5.65 8.85 4.45 7.45 1.85 5.65 -1.45 6.75 -5.05 8.15 -9.35 12.4 -11.05 16.9 -12.75 21.6 -13.1 L27.35 -12.9 28.1 -12.75 28.25 -12.7 29.2 -12.4 28.15 -12.4 27.5 -12.4 27.35 -12.4 24.35 -12.35" fill="#a36a6a" fill-rule="evenodd" stroke="none"/>
    <path d="M10.15 -8.3 L9.95 -6.85 Q9.95 -5.35 10.9 -4.1 12.55 -1.85 16.6 -1.85 18.85 -1.85 22.1 -3.6 26.35 -5.9 26.35 -9.4 26.35 -11.7 24.35 -12.35 L27.35 -12.4 27.5 -12.4 28.15 -12.4 28.8 -12.4 30.05 -11.65 31.9 -9.65 33.6 -5.9 Q34.4 -3.6 31.05 0.5 27.65 4.55 22.8 5.75 24.4 5.0 25.8 3.7 L25.1 4.05 Q20.85 5.95 16.2 5.9 12.1 5.9 9.65 3.1 7.2 0.3 7.85 -3.9 8.25 -6.55 10.15 -8.3 M28.25 -12.7 L28.1 -12.75 27.35 -12.9 28.15 -12.75 28.25 -12.7" fill="#e0cbcb" fill-rule="evenodd" stroke="none"/>
    <path d="M24.35 -12.35 Q26.35 -11.7 26.35 -9.4 26.35 -5.9 22.1 -3.6 18.85 -1.85 16.6 -1.85 12.55 -1.85 10.9 -4.1 9.95 -5.35 9.95 -6.85 L10.15 -8.3 10.15 -8.35 11.9 -9.6 12.75 -10.05 Q16.0 -11.55 19.4 -12.05 L21.45 -12.25 24.35 -12.35" fill="url(#gradient1)" fill-rule="evenodd" stroke="none"/>
  </g>
  <defs>
    <radialGradient cx="0" cy="0" gradientTransform="matrix(0.012, -0.0011, 7.0E-4, 0.008, -5.45, -7.4)" gradientUnits="userSpaceOnUse" id="gradient0" r="819.2" spreadMethod="pad">
      <stop offset="0.47843137254901963" stop-color="#ffffff"></stop>
      <stop offset="0.8823529411764706" stop-color="#f2eaea"></stop>
    </radialGradient>
    <radialGradient cx="0" cy="0" gradientTransform="matrix(0.012, -0.0011, 7.0E-4, 0.008, -5.45, -7.4)" gradientUnits="userSpaceOnUse" id="gradient1" r="819.2" spreadMethod="pad">
      <stop offset="0.47843137254901963" stop-color="#ffffff"></stop>
      <stop offset="0.8823529411764706" stop-color="#f2eaea"></stop>
    </radialGradient>
  </defs>
</svg>