<?xml version="1.0" encoding="UTF-8" standalone="no"?>
<svg xmlns:xlink="http://www.w3.org/1999/xlink" height="18.8px" width="39.9px" xmlns="http://www.w3.org/2000/svg">
  <g transform="matrix(1.0, 0.0, 0.0, 1.0, 18.8, 8.75)">
    <path d="M5.45 -1.9 Q7.4 -2.65 10.75 -4.7 L13.9 -6.7 13.95 -6.75 16.25 -7.45 18.5 -7.65 20.1 -5.4 Q20.1 -3.75 17.2 -2.25 14.15 -0.6 10.4 -0.6 L7.55 -0.75 Q6.2 -0.75 5.45 -1.9 M11.7 -2.1 Q12.55 -2.1 14.75 -3.3 17.05 -4.55 17.55 -5.4 L13.5 -4.05 Q10.35 -2.85 10.35 -2.7 10.35 -2.1 11.7 -2.1 M-6.6 4.95 Q-6.6 5.95 -9.0 7.45 -11.5 9.05 -13.5 9.05 -14.55 9.05 -16.25 8.45 L-17.8 7.8 Q-15.85 7.3 -12.7 5.6 L-9.95 4.05 Q-6.6 3.15 -6.6 4.95 M-9.55 6.85 Q-8.6 6.1 -8.6 5.75 -8.6 5.4 -9.1 5.4 -9.8 5.4 -11.2 6.3 L-12.5 7.35 -12.45 7.55 -11.7 7.65 Q-10.65 7.65 -9.55 6.85" fill="#a4abe3" fill-rule="evenodd" stroke="none"/>
    <path d="M11.7 -2.1 Q10.35 -2.1 10.35 -2.7 10.35 -2.85 13.5 -4.05 L17.55 -5.4 Q17.05 -4.55 14.75 -3.3 12.55 -2.1 11.7 -2.1 M-9.55 6.85 Q-10.65 7.65 -11.7 7.65 L-12.45 7.55 -12.5 7.35 -11.2 6.3 Q-9.8 5.4 -9.1 5.4 -8.6 5.4 -8.6 5.75 -8.6 6.1 -9.55 6.85" fill="#ddeeff" fill-rule="evenodd" stroke="none"/>
  </g>
</svg>