<?xml version="1.0" encoding="UTF-8" standalone="no"?>
<svg xmlns:xlink="http://www.w3.org/1999/xlink" height="10.95px" width="17.85px" xmlns="http://www.w3.org/2000/svg">
  <g id="shape0" transform="matrix(1.0, 0.0, 0.0, 1.0, 8.95, 5.45)">
    <path d="M-5.4 -4.45 L-3.8 -4.4 -0.15 -3.85 3.1 -3.1 6.25 -1.7 6.25 0.35 7.4 1.0 7.9 1.85 Q7.65 3.25 6.35 3.7 L2.15 4.45 -1.5 4.3 Q-3.5 4.1 -4.95 3.0 L-5.45 2.6 -6.25 1.75 -6.9 0.75 -6.5 0.85 -4.75 1.25 -4.35 1.3 -3.85 1.45 -3.55 1.55 Q-2.3 1.45 -1.6 0.95 -0.85 0.4 -0.85 -0.4 -0.85 -1.3 -1.25 -1.65 L-3.45 -2.8 Q-4.8 -3.55 -6.3 -3.7 L-6.35 -3.7 -6.1 -3.95 -5.4 -4.45 M-1.15 2.45 L-2.0 2.1 -3.55 1.55 -2.0 2.1 -1.15 2.45 M6.25 0.35 L6.05 0.65 4.1 2.8 6.05 0.65 6.25 0.35 M-6.5 0.85 L-6.9 0.75 -6.95 0.6 -6.5 0.85" fill="#d6baba" fill-rule="evenodd" stroke="none"/>
    <path d="M-6.35 -3.7 L-6.3 -3.7 Q-4.8 -3.55 -3.45 -2.8 L-1.25 -1.65 Q-0.85 -1.3 -0.85 -0.4 -0.85 0.4 -1.6 0.95 -2.3 1.45 -3.55 1.55 L-3.85 1.45 -4.35 1.3 -4.75 1.25 -6.5 0.85 -6.95 0.6 -6.9 0.75 -7.8 0.1 -7.95 -0.15 -7.9 -0.3 -7.85 -0.4 -7.7 -0.75 -7.65 -0.8 -7.3 -1.15 -7.15 -1.25 -7.35 -1.2 -7.15 -2.35 -7.1 -2.5 -6.35 -3.7" fill="#faf8f8" fill-rule="evenodd" stroke="none"/>
    <path d="M-5.4 -4.45 L-6.1 -3.95 -6.35 -3.7 -7.1 -2.5 -7.15 -2.35 -7.35 -1.2 M-3.55 1.55 L-2.0 2.1 -1.15 2.45 M6.25 -1.7 L6.25 0.35 7.4 1.0 7.9 1.85 M-6.9 0.75 L-7.8 0.1 -7.95 -0.15 -7.9 -0.3 -7.85 -0.4 -7.7 -0.75 -7.65 -0.8 -7.3 -1.15 -7.15 -1.25 M4.1 2.8 L6.05 0.65 6.25 0.35 M-6.5 0.85 L-4.75 1.25 -4.35 1.3 -3.85 1.45 -3.55 1.55 M-6.9 0.75 L-6.5 0.85" fill="none" stroke="#a36a6a" stroke-linecap="round" stroke-linejoin="round" stroke-width="1"/>
    <path d="M7.9 1.85 Q7.65 3.25 6.35 3.7 L2.15 4.45 -1.5 4.3 Q-3.5 4.1 -4.95 3.0 L-5.45 2.6 -6.25 1.75 -6.9 0.75 -6.95 0.6" fill="none" stroke="#a36a6a" stroke-linecap="round" stroke-linejoin="round" stroke-opacity="0.47058824" stroke-width="1"/>
  </g>
</svg>