<?xml version="1.0" encoding="UTF-8" standalone="no"?>
<svg xmlns:xlink="http://www.w3.org/1999/xlink" height="9.3px" width="9.3px" xmlns="http://www.w3.org/2000/svg">
  <g id="shape0" transform="matrix(1.0, 0.0, 0.0, 1.0, 1.9, 2.05)">
    <path d="M1.6 -0.8 Q3.95 -0.45 5.45 1.45 6.85 3.15 6.15 5.1 L5.6 5.9 5.05 6.25 4.4 4.95 4.05 4.55 3.4 4.1 2.45 3.85 0.55 3.75 0.9 3.2 1.15 2.65 Q1.8 0.95 1.6 -0.8" fill="#d6baba" fill-rule="evenodd" stroke="none"/>
    <path d="M-0.9 3.25 L-0.75 1.5 -0.75 -0.05 -0.9 -1.05 1.6 -0.8 Q1.8 0.95 1.15 2.65 L0.9 3.2 0.55 3.75 0.45 3.85 -0.3 3.45 -0.9 3.25" fill="#faf8f8" fill-rule="evenodd" stroke="none"/>
    <path d="M-0.9 3.25 L-0.75 1.5 -0.75 -0.05 -0.9 -1.05 1.6 -0.8 Q3.95 -0.45 5.45 1.45 6.85 3.15 6.15 5.1 L5.6 5.9 5.05 6.25 M0.55 3.75 L0.45 3.85 M1.6 -0.8 Q1.8 0.95 1.15 2.65 L0.9 3.2 0.55 3.75" fill="none" stroke="#a36a6a" stroke-linecap="round" stroke-linejoin="round" stroke-width="1"/>
  </g>
</svg>