<?xml version="1.0" encoding="UTF-8" standalone="no"?>
<svg xmlns:xlink="http://www.w3.org/1999/xlink" height="8.95px" width="6.75px" xmlns="http://www.w3.org/2000/svg">
  <g transform="matrix(1.0, 0.0, 0.0, 1.0, -5.65, 18.65)">
    <path d="M6.85 -16.45 L6.85 -16.7 6.85 -17.6 Q8.55 -15.25 10.5 -13.2 L11.3 -12.1 11.2 -12.1 10.85 -12.2 Q10.6 -12.2 9.85 -12.7 9.0 -13.25 9.0 -13.6 8.85 -14.15 8.55 -14.15 L8.45 -14.1 8.4 -13.95 8.55 -13.75 8.7 -13.3 8.75 -12.95 Q8.05 -13.5 8.05 -13.95 L6.85 -16.45" fill="#ffffcc" fill-rule="evenodd" stroke="none"/>
    <path d="M11.3 -12.1 L11.4 -11.6 Q11.3 -11.2 10.8 -10.95 L10.0 -10.7 Q8.6 -10.55 7.8 -11.65 L6.9 -12.8 6.65 -13.1 6.8 -15.75 6.85 -16.45 8.05 -13.95 Q8.05 -13.5 8.75 -12.95 L8.7 -13.3 8.55 -13.75 8.4 -13.95 8.45 -14.1 8.55 -14.15 Q8.85 -14.15 9.0 -13.6 9.0 -13.25 9.85 -12.7 10.6 -12.2 10.85 -12.2 L11.2 -12.1 11.3 -12.1" fill="#e0cca3" fill-rule="evenodd" stroke="none"/>
    <path d="M6.85 -16.45 L6.85 -16.7 6.85 -17.6 6.85 -17.65 6.85 -17.6 Q8.55 -15.25 10.5 -13.2 L11.3 -12.1 11.4 -11.6 Q11.3 -11.2 10.8 -10.95 M6.9 -12.8 L6.65 -13.1 6.8 -15.75 6.85 -16.45" fill="none" stroke="#a36a6a" stroke-linecap="round" stroke-linejoin="round" stroke-width="1"/>
    <path d="M10.8 -10.95 L10.0 -10.7 Q8.6 -10.55 7.8 -11.65 L6.9 -12.8" fill="none" stroke="#a36a6a" stroke-linecap="round" stroke-linejoin="round" stroke-opacity="0.47058824" stroke-width="1"/>
  </g>
</svg>