<?xml version="1.0" encoding="UTF-8" standalone="no"?>
<svg xmlns:xlink="http://www.w3.org/1999/xlink" height="7.4px" width="9.15px" xmlns="http://www.w3.org/2000/svg">
  <g transform="matrix(1.0, 0.0, 0.0, 1.0, -6.4, 15.85)">
    <path d="M8.35 -13.05 L7.4 -13.1 Q8.35 -14.6 9.4 -14.85 L9.2 -14.4 9.1 -14.05 Q8.5 -13.85 8.35 -13.05 M10.5 -9.8 Q10.0 -10.25 9.85 -10.85 L10.1 -11.95 10.6 -11.95 12.25 -11.7 14.15 -11.15 14.35 -11.0 13.65 -10.9 12.8 -10.75 12.3 -10.6 12.15 -10.55 10.1 -10.35 10.5 -9.8" fill="#ffffcc" fill-rule="evenodd" stroke="none"/>
    <path d="M9.4 -14.85 L9.6 -13.45 9.6 -12.75 9.3 -12.85 9.2 -12.9 8.35 -13.05 Q8.5 -13.85 9.1 -14.05 L9.2 -14.4 9.4 -14.85 M10.5 -9.8 L10.1 -10.35 12.15 -10.55 12.3 -10.6 12.8 -10.75 13.65 -10.9 14.35 -11.0 14.55 -10.9 14.5 -10.7 14.1 -10.45 13.7 -10.2 12.75 -9.85 10.95 -9.45 10.9 -9.5 10.85 -9.55 10.8 -9.6 10.7 -9.65 10.5 -9.8" fill="#e0cca3" fill-rule="evenodd" stroke="none"/>
    <path d="M9.4 -14.85 L9.6 -13.45 9.6 -12.75 M7.4 -13.1 Q8.35 -14.6 9.4 -14.85 M14.35 -11.0 L14.15 -11.15 12.25 -11.7 10.6 -11.95 10.1 -11.95 M10.95 -9.45 L12.75 -9.85 13.7 -10.2 14.1 -10.45 14.5 -10.7 14.55 -10.9 14.35 -11.0" fill="none" stroke="#a36a6a" stroke-linecap="round" stroke-linejoin="round" stroke-width="1"/>
  </g>
</svg>