<?xml version="1.0" encoding="UTF-8" standalone="no"?>
<svg xmlns:xlink="http://www.w3.org/1999/xlink" height="8.35px" width="11.9px" xmlns="http://www.w3.org/2000/svg">
  <g id="shape0" transform="matrix(1.0, 0.0, 0.0, 1.0, 1, 1)">
    <path d="M0.0 2.2 L0.65 1.85 2.75 0.6 3.5 0.0 3.45 1.2 2.85 1.6 1.8 2.2 1.4 2.45 0.0 2.2 M2.75 3.85 Q6.55 5.15 7.85 5.15 L9.5 5.5 9.25 5.85 9.05 6.05 8.65 6.35 Q6.3 5.95 4.0 4.75 L4.0 4.7 3.8 4.65 3.55 4.5 3.3 4.4 2.85 4.15 2.85 4.1 2.75 3.95 2.75 3.85" fill="#d6baba" fill-rule="evenodd" stroke="none"/>
    <path d="M9.5 5.5 L7.85 5.15 Q6.55 5.15 2.75 3.85 2.8 3.5 3.0 3.3 L3.5 3.55 6.5 4.25 8.75 4.65 9.9 4.8 9.7 5.2 9.5 5.5 M3.8 4.65 L4.0 4.7 4.0 4.75 3.8 4.65" fill="#faf8f8" fill-rule="evenodd" stroke="none"/>
    <path d="M0.0 2.2 L0.65 1.85 2.75 0.6 3.5 0.0 3.45 1.2 2.85 1.6 1.8 2.2 1.4 2.45 M9.5 5.5 L9.7 5.2 9.9 4.8 8.75 4.65 6.5 4.25 3.5 3.55 3.0 3.3 M2.85 4.15 L3.3 4.4 3.55 4.5 3.8 4.65 4.0 4.75 Q6.3 5.95 8.65 6.35 L9.05 6.05 9.25 5.85 9.5 5.5" fill="none" stroke="#a36a6a" stroke-linecap="round" stroke-linejoin="round" stroke-width="1"/>
  </g>
</svg>