<?xml version="1.0" encoding="UTF-8" standalone="no"?>
<svg xmlns:xlink="http://www.w3.org/1999/xlink" height="6.45px" width="8.7px" xmlns="http://www.w3.org/2000/svg">
  <g id="shape0" transform="matrix(1.0, 0.0, 0.0, 1.0, 1.4, 1.75)">
    <path d="M-0.35 1.0 L-0.05 0.15 0.3 -0.55 1.1 -0.75 1.6 -0.25 1.75 0.95 1.5 1.65 Q1.25 2.15 0.8 2.15 L0.05 2.0 -0.3 1.7 -0.35 1.0 M3.2 -0.05 Q3.75 -0.55 4.2 -0.3 L4.45 -0.15 Q4.85 0.3 4.5 1.1 L4.0 2.0 Q3.6 2.1 3.1 1.8 L2.25 1.25 2.45 0.7 2.25 1.25 2.25 1.0 2.45 0.7 2.6 0.5 3.15 -0.05 3.2 -0.05 M4.45 1.95 Q5.25 1.8 5.85 2.2 L6.05 2.35 6.2 2.5 6.25 3.05 6.15 3.25 5.7 3.55 5.3 3.7 5.05 2.65 4.45 1.95" fill="#faf8f8" fill-rule="evenodd" stroke="none"/>
    <path d="M1.75 0.95 L1.6 -0.25 1.1 -0.75 0.3 -0.55 -0.05 0.15 -0.35 1.0 M4.0 2.0 L4.5 1.1 Q4.85 0.3 4.45 -0.15 L4.2 -0.3 Q3.75 -0.55 3.2 -0.05 L3.15 -0.05 2.6 0.5 2.45 0.7 2.25 1.25 M5.3 3.7 L5.7 3.55 6.15 3.25 6.25 3.05 6.2 2.5 6.05 2.35 5.85 2.2 Q5.25 1.8 4.45 1.95" fill="none" stroke="#a36a6a" stroke-linecap="round" stroke-linejoin="round" stroke-width="1"/>
  </g>
</svg>