<?xml version="1.0" encoding="UTF-8" standalone="no"?>
<svg xmlns:xlink="http://www.w3.org/1999/xlink" height="20.35px" width="12.6px" xmlns="http://www.w3.org/2000/svg">
  <g id="shape0" transform="matrix(1.0, 0.0, 0.0, 1.0, 3.2, 6.9)">
    <path d="M2.1 -5.9 L2.45 -5.85 2.75 -5.2 2.85 -5.15 Q4.65 -4.05 5.9 -2.3 7.25 -0.5 8.0 1.8 8.65 3.8 8.3 5.95 L8.2 6.35 8.15 6.5 8.1 6.65 8.0 6.95 8.05 7.2 8.1 7.3 Q8.35 9.55 6.9 11.05 L6.25 11.65 5.55 12.0 5.2 12.1 4.65 12.15 4.2 12.25 2.55 12.45 1.95 12.45 0.25 12.25 -0.3 12.05 Q-0.6 11.95 -0.7 11.7 L-0.75 11.55 -0.9 11.4 -1.4 10.35 -1.55 10.05 -1.85 9.65 -2.0 9.2 -2.2 8.5 -2.2 8.1 -2.1 7.55 -2.0 7.4 -1.75 7.8 Q-1.6 8.25 -0.85 8.25 L-0.4 8.15 -0.65 8.35 -0.35 8.15 0.15 7.75 0.45 7.55 0.5 7.5 0.45 7.45 0.4 7.4 0.4 7.3 0.25 7.1 0.15 6.95 0.2 6.8 0.4 6.8 1.25 7.35 Q1.95 7.85 2.7 7.85 4.75 7.85 5.55 5.65 L5.7 4.2 Q5.8 1.85 5.2 -0.4 4.55 -2.8 2.65 -4.4 L2.5 -4.5 2.15 -4.95 2.1 -5.85 2.1 -5.9 M0.7 7.8 L0.7 7.7 0.65 7.7 0.55 7.55 0.5 7.5 0.55 7.55 0.65 7.7 0.7 7.7 0.7 7.8 0.85 8.0 0.85 8.05 0.9 8.05 0.85 8.0 0.85 7.95 0.7 7.8 M0.3 8.5 L0.3 8.55 0.3 8.5 M6.7 8.95 L7.05 8.7 6.7 8.95 M6.45 8.05 L6.8 7.75 7.4 7.35 7.65 7.2 8.0 6.95 7.65 7.2 7.4 7.35 6.8 7.75 6.45 8.05 M-1.45 8.9 L-0.95 8.55 -0.65 8.35 -0.95 8.55 -1.45 8.9" fill="#d6baba" fill-rule="evenodd" stroke="none"/>
    <path d="M2.1 -5.9 L2.1 -5.85 2.15 -4.95 2.5 -4.5 2.65 -4.4 Q4.55 -2.8 5.2 -0.4 5.8 1.85 5.7 4.2 L5.55 5.65 Q4.75 7.85 2.7 7.85 1.95 7.85 1.25 7.35 L0.4 6.8 0.2 6.8 0.15 6.95 0.25 7.1 0.4 7.3 0.4 7.4 0.45 7.45 0.5 7.5 0.45 7.55 0.15 7.75 -0.35 8.15 -0.4 8.0 -0.5 7.8 -0.65 7.55 -0.8 7.3 -1.1 6.7 -1.25 6.4 -0.95 6.0 -0.7 5.7 Q-0.65 5.5 -0.45 5.55 L-0.5 5.3 -0.65 4.85 -0.9 3.35 -0.95 2.65 -0.95 1.9 -0.9 1.1 -0.85 0.35 -0.65 -0.9 -0.3 -2.4 -0.25 -2.4 -0.2 -2.55 Q0.2 -3.75 1.1 -4.8 L1.75 -5.4 1.8 -5.85 1.8 -5.9 2.1 -5.9 M0.7 7.8 L0.85 7.95 0.85 8.0 0.9 8.05 0.85 8.05 0.85 8.0 0.7 7.8 M0.3 8.5 L0.3 8.55 0.3 8.5 M-2.0 7.4 L-1.45 6.65 -1.25 6.45 -1.25 6.4 -1.1 6.7 -0.8 7.3 -0.65 7.55 -0.5 7.8 -0.4 8.0 -0.35 8.15 -0.65 8.35 -0.4 8.15 -0.85 8.25 Q-1.6 8.25 -1.75 7.8 L-2.0 7.4 M-0.45 5.55 L-0.2 6.15 0.15 6.95 -0.2 6.15 -0.45 5.55" fill="#faf8f8" fill-rule="evenodd" stroke="none"/>
    <path d="M8.0 6.95 L8.1 6.65 8.15 6.5 8.2 6.35 8.3 5.95 Q8.65 3.8 8.0 1.8 7.25 -0.5 5.9 -2.3 4.65 -4.05 2.85 -5.15 L2.75 -5.2 2.45 -5.85 2.1 -5.9 1.8 -5.9 1.8 -5.85 1.75 -5.4 M0.15 6.95 L0.25 7.1 0.4 7.3 0.4 7.4 0.45 7.45 0.5 7.5 0.55 7.55 0.65 7.7 0.7 7.7 0.7 7.8 0.85 7.95 0.85 8.0 0.9 8.05 M-0.35 8.15 L0.15 7.75 0.45 7.55 M8.0 6.95 L8.05 7.2 8.1 7.3 Q8.35 9.55 6.9 11.05 L6.25 11.65 5.55 12.0 5.2 12.1 4.65 12.15 4.2 12.25 2.55 12.45 1.95 12.45 0.25 12.25 -0.3 12.05 Q-0.6 11.95 -0.7 11.7 L-0.75 11.55 -0.9 11.4 -1.4 10.35 -1.55 10.05 -1.85 9.65 -2.0 9.2 -2.2 8.5 -2.2 8.1 -2.1 7.55 -2.0 7.4 -1.45 6.65 -1.25 6.45 -1.25 6.4 -0.95 6.0 -0.7 5.7 Q-0.65 5.5 -0.45 5.55 L-0.5 5.3 -0.65 4.85 -0.9 3.35 -0.95 2.65 -0.95 1.9 -0.9 1.1 -0.85 0.35 -0.65 -0.9 -0.3 -2.4 -0.25 -2.4 M8.0 6.95 L7.65 7.2 7.4 7.35 6.8 7.75 6.45 8.05 M7.05 8.7 L6.7 8.95 M0.15 6.95 L-0.2 6.15 -0.45 5.55 M-1.25 6.4 L-1.1 6.7 -0.8 7.3 -0.65 7.55 -0.5 7.8 -0.4 8.0 -0.35 8.15 -0.65 8.35 -0.95 8.55 -1.45 8.9" fill="none" stroke="#a36a6a" stroke-linecap="round" stroke-linejoin="round" stroke-width="1"/>
  </g>
</svg>