<?xml version="1.0" encoding="UTF-8" standalone="no"?>
<svg xmlns:xlink="http://www.w3.org/1999/xlink" height="11.05px" width="13.95px" xmlns="http://www.w3.org/2000/svg">
  <g id="shape0" transform="matrix(1.0, 0.0, 0.0, 1.0, 1, 1)">
    <path d="M0.55 5.8 Q0.9 5.45 1.6 4.95 2.15 4.55 3.0 4.2 L3.15 4.5 3.5 5.1 2.55 5.55 Q1.8 5.85 1.15 6.4 L0.55 5.8 M9.45 2.4 L9.9 2.4 11.3 2.5 11.35 2.7 11.65 3.45 10.0 3.25 9.75 2.85 9.45 2.4 M11.9 4.3 L11.95 4.5 11.5 5.55 10.35 5.4 10.45 4.65 10.4 4.25 10.9 4.2 11.9 4.3 M2.9 7.75 L2.25 7.3 Q3.2 6.65 4.5 6.05 L4.6 6.1 5.35 6.4 Q4.15 6.95 2.9 7.75" fill="#cd9c23" fill-rule="evenodd" stroke="none"/>
    <path d="M0.55 5.8 L0.1 4.95 0.0 4.35 0.4 2.85 0.65 2.5 0.85 2.15 Q1.3 1.5 2.15 1.15 5.45 0.0 7.0 0.0 L9.15 0.15 10.25 0.35 Q11.1 1.2 11.1 1.9 L11.15 2.2 11.3 2.5 9.9 2.4 9.45 2.4 8.8 1.65 Q8.2 1.25 7.4 1.15 L7.05 1.2 6.05 1.45 Q2.7 2.3 2.7 3.0 2.7 3.5 3.0 4.2 2.15 4.55 1.6 4.95 0.9 5.45 0.55 5.8 M11.65 3.45 L11.75 3.7 11.9 4.3 10.9 4.2 10.4 4.25 10.45 4.65 10.35 5.4 11.5 5.55 10.25 7.1 Q8.5 9.1 7.8 9.05 L3.45 8.05 2.9 7.75 Q4.15 6.95 5.35 6.4 L4.6 6.1 4.5 6.05 6.35 5.25 Q8.85 4.35 10.4 4.25 L10.0 3.25 Q7.75 3.25 5.8 4.05 4.9 4.4 3.5 5.1 L3.15 4.5 3.0 4.2 Q3.85 3.75 5.0 3.35 7.5 2.5 9.45 2.4 L9.75 2.85 10.0 3.25 11.65 3.45 M2.25 7.3 L1.55 6.75 1.15 6.4 Q1.8 5.85 2.55 5.55 L3.5 5.1 4.5 6.05 Q3.2 6.65 2.25 7.3 M5.35 6.4 L6.6 6.85 8.45 7.45 9.6 6.7 10.35 5.4 9.75 5.35 Q7.7 5.35 5.35 6.4" fill="#f7c038" fill-rule="evenodd" stroke="none"/>
    <path d="M3.0 4.2 Q2.7 3.5 2.7 3.0 2.7 2.3 6.05 1.45 L7.05 1.2 7.4 1.15 Q8.2 1.25 8.8 1.65 L9.45 2.4 Q7.5 2.5 5.0 3.35 3.85 3.75 3.0 4.2 M3.5 5.1 Q4.9 4.4 5.8 4.05 7.75 3.25 10.0 3.25 L10.4 4.25 Q8.85 4.35 6.35 5.25 L4.5 6.05 3.5 5.1 M5.35 6.4 Q7.7 5.35 9.75 5.35 L10.35 5.4 9.6 6.7 8.45 7.45 6.6 6.85 5.35 6.4" fill="#fad579" fill-rule="evenodd" stroke="none"/>
    <path d="M11.3 2.5 L11.15 2.2 11.1 1.9 Q11.1 1.2 10.25 0.35 L9.15 0.15 7.0 0.0 Q5.45 0.0 2.15 1.15 1.3 1.5 0.85 2.15 L0.65 2.5 0.4 2.85 0.0 4.35 0.1 4.95 0.55 5.8 1.15 6.4 1.55 6.75 2.25 7.3 2.9 7.75 3.45 8.05 7.8 9.05 Q8.5 9.1 10.25 7.1 L11.5 5.55 11.95 4.5 11.9 4.3 11.75 3.7 11.65 3.45 11.35 2.7 11.3 2.5 Z" fill="none" stroke="#624500" stroke-linecap="round" stroke-linejoin="round" stroke-width="1"/>
  </g>
</svg>