<?xml version="1.0" encoding="UTF-8" standalone="no"?>
<svg xmlns:xlink="http://www.w3.org/1999/xlink" height="10.05px" width="16.65px" xmlns="http://www.w3.org/2000/svg">
  <g id="shape0" transform="matrix(1.0, 0.0, 0.0, 1.0, 1, 1)">
    <path d="M8.55 0.25 L10.35 0.05 Q14.3 -0.3 14.65 2.85 L14.35 6.35 12.6 6.95 10.85 7.45 10.85 6.7 Q10.85 4.05 9.95 2.25 L10.75 1.9 Q10.75 1.65 9.5 1.35 L9.4 1.25 8.55 0.25 M9.7 7.7 L7.8 8.05 7.05 7.95 7.15 6.1 Q7.15 4.2 6.5 2.9 L5.5 3.1 3.9 1.9 4.15 1.7 4.9 1.25 4.45 1.0 5.95 0.5 6.05 0.5 6.7 0.4 Q7.1 0.55 7.6 1.0 L6.3 0.8 5.4 0.95 5.35 1.0 4.9 1.25 5.7 1.85 6.5 2.9 6.55 2.9 8.8 2.5 8.5 1.95 7.6 1.0 9.5 1.35 9.95 2.25 8.8 2.5 9.35 4.3 9.7 7.3 9.7 7.7 M6.05 7.7 L4.15 7.0 Q1.25 5.8 0.0 4.55 L2.4 2.55 3.5 1.7 3.9 1.9 2.9 2.65 2.05 3.5 2.05 3.55 2.35 3.6 5.5 3.1 Q6.35 4.1 6.35 5.4 L6.05 7.7" fill="#f7c038" fill-rule="evenodd" stroke="none"/>
    <path d="M8.55 0.25 L9.4 1.25 9.5 1.35 7.6 1.0 Q7.1 0.55 6.7 0.4 L8.55 0.25 M9.95 2.25 Q10.85 4.05 10.85 6.7 L10.85 7.45 9.7 7.7 9.7 7.3 9.35 4.3 8.8 2.5 9.95 2.25 M7.05 7.95 L6.05 7.7 6.35 5.4 Q6.35 4.1 5.5 3.1 L6.5 2.9 Q7.15 4.2 7.15 6.1 L7.05 7.95 M3.5 1.7 Q4.25 1.1 4.45 1.0 L4.9 1.25 4.15 1.7 3.9 1.9 3.5 1.7" fill="#cd9c23" fill-rule="evenodd" stroke="none"/>
    <path d="M9.5 1.35 Q10.75 1.65 10.75 1.9 L9.95 2.25 9.5 1.35 M7.6 1.0 L8.5 1.95 8.8 2.5 6.55 2.9 6.5 2.9 5.7 1.85 4.9 1.25 5.35 1.0 5.4 0.95 6.3 0.8 7.6 1.0 M5.5 3.1 L2.35 3.6 2.05 3.55 2.05 3.5 2.9 2.65 3.9 1.9 5.5 3.1" fill="#fad579" fill-rule="evenodd" stroke="none"/>
    <path d="M10.85 7.45 L12.6 6.95 14.35 6.35 14.65 2.85 Q14.3 -0.3 10.35 0.05 L8.55 0.25 6.7 0.4 6.05 0.5 5.95 0.5 4.45 1.0 Q4.25 1.1 3.5 1.7 L2.4 2.55 0.0 4.55 Q1.25 5.8 4.15 7.0 L6.05 7.7 7.05 7.95 7.8 8.05 9.7 7.7 10.85 7.45 Z" fill="none" stroke="#624500" stroke-linecap="round" stroke-linejoin="round" stroke-width="1"/>
  </g>
</svg>