<?xml version="1.0" encoding="UTF-8" standalone="no"?>
<svg xmlns:xlink="http://www.w3.org/1999/xlink" height="20.35px" width="12.7px" xmlns="http://www.w3.org/2000/svg">
  <g id="shape0" transform="matrix(1.0, 0.0, 0.0, 1.0, 3.2, 6.9)">
    <path d="M1.75 -5.4 L1.8 -5.85 1.8 -5.9 2.1 -5.9 2.45 -5.85 2.75 -5.2 4.05 -4.5 4.8 -3.75 5.45 -3.05 6.0 -2.4 6.2 -2.15 6.8 -1.25 7.1 -0.6 7.4 0.15 8.1 1.8 8.4 3.25 8.5 3.85 8.45 5.3 8.3 5.95 8.15 6.5 8.1 6.65 8.0 6.95 8.05 7.2 8.05 8.3 8.0 8.65 8.0 8.95 7.95 9.35 7.8 9.75 7.4 10.35 7.1 10.7 7.05 10.9 6.85 11.15 5.55 12.0 5.2 12.1 4.65 12.15 4.2 12.25 2.55 12.45 1.95 12.45 0.25 12.25 -0.3 12.05 Q-0.6 11.95 -0.7 11.7 L-0.75 11.55 -0.9 11.4 -1.4 10.35 -1.55 10.05 -1.85 9.65 -2.0 9.2 -2.2 8.5 -2.2 8.1 -2.1 7.55 -2.0 7.4 -1.45 6.65 -1.25 6.45 -1.25 6.4 -0.95 6.0 -0.7 5.7 Q-0.65 5.5 -0.45 5.55 L-0.5 5.3 -0.65 4.85 -0.9 3.35 -0.95 2.65 -0.95 1.9 -0.9 1.1 -0.85 0.35 -0.65 -0.9 -0.3 -2.4 -0.25 -2.4 -0.2 -2.55 Q0.2 -3.75 1.1 -4.8 L1.75 -5.4 M0.1 6.85 L-0.2 6.15 -0.45 5.55 -0.2 6.15 0.1 6.85 0.15 6.95 0.2 6.8 0.1 6.85 M0.7 7.8 L0.7 7.7 0.65 7.7 0.55 7.55 0.5 7.5 0.45 7.45 0.4 7.4 0.4 7.3 0.25 7.1 0.15 6.95 0.25 7.1 0.4 7.3 0.4 7.4 0.45 7.45 0.5 7.5 0.55 7.55 0.65 7.7 0.7 7.7 0.7 7.8 0.85 8.0 0.85 8.05 0.9 8.05 0.85 8.0 0.85 7.95 0.7 7.8 M0.5 7.5 L0.15 7.75 -0.35 8.15 0.15 7.75 0.5 7.5 M0.3 8.5 L0.3 8.55 0.3 8.5 M-0.35 8.1 L-0.4 8.0 -0.5 7.8 -0.65 7.55 -0.8 7.3 -1.1 6.7 -1.25 6.4 -1.1 6.7 -0.8 7.3 -0.65 7.55 -0.5 7.8 -0.4 8.0 -0.35 8.1 -0.4 8.15 -0.65 8.35 -0.4 8.15 -0.35 8.15 -0.35 8.1 M6.8 7.75 L8.0 6.95 6.8 7.75 M6.7 8.95 L7.5 8.3 6.7 8.95 M-1.45 8.9 L-0.95 8.55 -0.65 8.35 -0.95 8.55 -1.45 8.9" fill="#d6baba" fill-rule="evenodd" stroke="none"/>
    <path d="M0.1 6.85 L0.2 6.8 0.15 6.95 0.1 6.85 M0.7 7.8 L0.85 7.95 0.85 8.0 0.9 8.05 0.85 8.05 0.85 8.0 0.7 7.8 M0.3 8.5 L0.3 8.55 0.3 8.5 M-0.35 8.1 L-0.35 8.15 -0.4 8.15 -0.65 8.35 -0.4 8.15 -0.35 8.1" fill="#faf8f8" fill-rule="evenodd" stroke="none"/>
    <path d="M8.0 6.95 L8.1 6.65 8.15 6.5 8.3 5.95 8.45 5.3 8.5 3.85 8.4 3.25 8.1 1.8 7.4 0.15 7.1 -0.6 6.8 -1.25 6.2 -2.15 6.0 -2.4 5.45 -3.05 4.8 -3.75 4.05 -4.5 2.75 -5.2 2.45 -5.85 2.1 -5.9 1.8 -5.9 1.8 -5.85 1.75 -5.4 M-0.25 -2.4 L-0.3 -2.4 -0.65 -0.9 -0.85 0.35 -0.9 1.1 -0.95 1.9 -0.95 2.65 -0.9 3.35 -0.65 4.85 -0.5 5.3 -0.45 5.55 -0.2 6.15 0.1 6.85 0.15 6.95 0.25 7.1 0.4 7.3 0.4 7.4 0.45 7.45 0.5 7.5 0.55 7.55 0.65 7.7 0.7 7.7 0.7 7.8 0.85 7.95 0.85 8.0 0.9 8.05 M-0.35 8.15 L0.15 7.75 0.5 7.5 M8.0 6.95 L8.05 7.2 8.05 8.3 8.0 8.65 8.0 8.95 7.95 9.35 7.8 9.75 7.4 10.35 7.1 10.7 7.05 10.9 6.85 11.15 5.55 12.0 5.2 12.1 4.65 12.15 4.2 12.25 2.55 12.45 1.95 12.45 0.25 12.25 -0.3 12.05 Q-0.6 11.95 -0.7 11.7 L-0.75 11.55 -0.9 11.4 -1.4 10.35 -1.55 10.05 -1.85 9.65 -2.0 9.2 -2.2 8.5 -2.2 8.1 -2.1 7.55 -2.0 7.4 -1.45 6.65 -1.25 6.45 -1.25 6.4 -0.95 6.0 -0.7 5.7 Q-0.65 5.5 -0.45 5.55 M7.5 8.3 L6.7 8.95 M8.0 6.95 L6.8 7.75 M-1.25 6.4 L-1.1 6.7 -0.8 7.3 -0.65 7.55 -0.5 7.8 -0.4 8.0 -0.35 8.1 -0.35 8.15 -0.4 8.15 -0.65 8.35 -0.95 8.55 -1.45 8.9" fill="none" stroke="#a36a6a" stroke-linecap="round" stroke-linejoin="round" stroke-width="1"/>
  </g>
</svg>