<?xml version="1.0" encoding="UTF-8" standalone="no"?>
<svg xmlns:xlink="http://www.w3.org/1999/xlink" height="286.25px" width="291.6px" xmlns="http://www.w3.org/2000/svg">
  <g transform="matrix(1.0, 0.0, 0.0, 1.0, -4.15, 100.9)">
    <path d="M212.8 28.25 Q213.05 29.25 213.65 30.4 214.15 29.15 214.45 26.85 214.75 25.65 214.7 23.95 L214.8 21.6 214.65 19.8 Q214.75 17.9 215.25 16.95 L215.85 17.2 215.6 20.8 Q215.6 21.75 216.15 22.65 L217.05 24.1 217.35 27.9 217.95 28.05 218.15 28.05 Q218.4 30.45 219.15 31.25 L219.65 30.1 220.15 28.5 220.55 26.9 Q220.95 24.85 220.95 23.25 L221.15 23.55 221.6 23.7 Q222.2 23.7 222.6 19.95 L223.2 13.9 223.3 14.6 223.2 15.0 Q223.2 15.35 223.75 15.85 L224.1 17.0 Q223.95 18.0 223.95 20.3 224.15 24.3 224.55 26.9 224.6 28.15 225.0 29.25 L225.1 29.6 225.25 29.45 225.35 29.0 Q225.65 29.3 226.15 29.4 226.4 30.15 227.1 30.15 227.9 30.15 228.0 29.7 L227.95 29.2 228.25 29.0 228.35 29.0 228.75 28.8 229.1 29.55 229.7 30.15 230.2 30.05 230.25 29.55 229.8 28.8 230.05 28.85 Q230.65 28.35 230.75 27.65 L230.8 26.35 230.75 24.75 231.05 23.8 232.6 22.3 233.35 22.75 233.3 23.05 Q233.6 26.0 234.9 26.5 235.4 26.05 235.4 25.4 L235.3 24.8 235.65 24.85 235.7 24.85 Q236.45 26.0 237.0 26.0 L237.95 25.9 238.2 25.8 238.3 24.5 239.85 23.1 Q240.4 24.05 240.75 24.05 241.5 24.05 241.65 23.4 L241.65 22.7 Q241.65 21.1 241.1 20.6 241.9 18.4 242.3 15.05 243.0 9.75 243.45 0.0 L243.8 0.1 Q243.65 1.35 243.65 2.85 L243.45 8.3 243.25 12.15 243.35 16.3 Q243.5 17.65 243.95 18.7 243.65 18.9 243.65 19.55 L243.8 20.7 244.0 21.75 244.25 22.0 245.15 22.2 245.9 22.1 245.9 22.0 246.1 21.9 246.55 22.8 246.6 21.45 246.8 21.45 246.8 23.55 Q246.9 24.2 247.15 24.3 L248.35 24.4 248.5 24.4 248.55 24.4 249.25 24.4 249.7 25.05 Q250.1 25.65 250.5 25.65 251.6 25.65 251.9 24.0 L252.0 22.3 252.0 22.05 252.4 21.6 252.4 22.3 252.6 24.85 Q252.95 26.4 254.15 26.4 L255.1 26.3 255.35 26.2 255.45 23.75 255.9 24.15 256.0 24.75 Q256.25 25.6 256.85 26.05 L257.15 24.1 257.65 22.95 258.15 21.85 258.65 21.75 258.95 23.4 Q259.15 24.25 259.95 24.25 L260.0 23.9 260.05 23.9 260.15 24.25 260.55 24.2 260.55 24.25 260.65 24.55 Q260.9 25.55 261.5 26.7 L261.75 27.2 262.3 28.15 Q263.15 29.4 263.9 29.4 L264.45 29.35 264.55 29.3 264.6 29.3 265.1 29.25 265.35 29.35 265.75 29.3 265.95 28.8 266.05 28.75 266.1 23.7 266.1 21.65 266.3 20.7 Q267.0 17.6 267.5 16.85 L267.25 18.8 266.85 22.05 267.15 25.3 267.4 26.75 267.5 26.4 268.0 24.8 268.4 23.2 Q268.8 21.15 268.8 19.55 L269.0 19.85 269.45 20.0 Q270.05 20.0 270.45 16.25 L271.05 10.2 271.15 10.9 271.05 11.3 Q271.05 11.65 271.6 12.15 L271.95 13.3 Q271.8 14.3 271.8 16.6 272.0 20.6 272.4 23.2 272.45 24.45 272.85 25.55 L272.95 25.9 273.5 27.3 Q273.9 28.1 274.45 28.1 L275.2 28.85 275.85 29.55 276.15 29.85 276.5 30.2 277.35 31.05 277.85 30.95 277.9 29.75 277.95 29.75 277.95 33.0 278.0 33.35 Q278.05 33.65 279.05 33.65 L279.95 33.55 280.1 33.45 280.2 32.55 280.15 32.0 280.45 31.6 280.95 30.3 Q280.95 29.55 280.4 29.55 L280.85 28.65 280.9 28.05 280.95 28.0 Q281.5 26.35 281.65 24.7 L282.85 21.8 283.5 26.55 283.25 28.75 Q283.25 30.2 283.65 31.9 284.25 34.4 285.35 34.4 286.35 34.4 286.9 33.4 L287.05 33.5 Q286.3 34.45 286.3 36.3 286.3 37.0 288.0 41.55 289.7 46.2 290.1 46.2 291.3 46.2 291.6 44.0 L292.85 43.55 292.75 47.3 292.95 49.75 293.15 53.05 Q293.15 53.95 293.6 55.05 L293.35 59.1 Q293.35 63.6 293.55 64.3 L294.75 66.7 292.75 66.7 292.6 66.0 Q291.95 62.95 291.8 60.25 L290.1 63.2 Q288.9 65.15 288.2 66.7 L5.15 66.7 5.5 65.5 Q6.4 62.8 6.85 58.8 L7.5 51.9 Q8.4 55.2 9.25 55.2 10.5 55.2 10.8 51.7 L11.35 46.05 Q11.6 45.15 12.8 43.85 13.95 42.6 14.05 41.8 L14.05 41.65 14.6 40.85 14.95 40.3 15.6 38.85 16.25 37.25 Q16.8 33.65 17.15 27.95 L17.7 19.25 17.9 19.25 17.9 23.85 18.15 25.9 Q18.6 27.9 19.8 27.95 L20.0 29.3 Q20.45 30.1 21.75 30.1 22.95 30.1 23.5 29.35 L23.65 29.15 24.3 28.85 24.8 28.95 Q25.95 28.95 26.8 27.2 L27.8 24.35 28.25 21.9 Q28.3 21.45 28.75 20.75 L29.25 19.65 29.75 19.55 30.05 21.2 Q30.3 22.3 31.65 22.0 31.95 23.35 32.85 25.0 34.0 27.2 35.0 27.2 L35.65 27.1 35.7 27.1 36.2 27.05 36.8 27.15 37.05 26.6 Q38.3 25.6 39.1 22.6 39.9 19.6 39.9 17.35 L40.1 17.65 40.55 17.8 Q41.15 17.8 41.55 14.05 L42.15 8.0 42.25 8.7 42.15 9.1 Q42.15 9.45 42.7 9.95 L43.05 11.1 Q42.9 12.1 42.9 14.4 43.1 18.4 43.5 21.0 43.55 22.25 43.95 23.35 44.6 25.9 45.55 25.9 L48.45 28.85 48.95 28.75 49.0 27.55 49.05 27.55 49.45 27.7 49.6 28.0 Q50.1 29.2 50.8 29.2 L52.1 28.55 Q53.35 27.8 53.9 26.85 L54.65 27.3 55.15 28.8 55.95 30.4 56.6 29.8 57.3 30.0 Q58.2 30.0 59.7 27.1 L59.95 26.65 59.85 27.95 Q59.5 33.65 58.95 37.25 L58.3 38.85 57.65 40.3 91.75 40.3 91.75 28.3 Q92.5 28.3 92.65 27.65 L92.65 26.95 Q92.65 25.35 92.1 24.85 92.9 22.65 93.3 19.3 94.0 14.0 94.45 4.25 L94.8 4.35 Q94.65 5.6 94.65 7.1 L94.45 12.55 94.25 16.4 94.35 20.55 Q94.5 21.9 94.95 22.95 94.65 23.15 94.65 23.8 L94.8 24.95 95.0 26.0 95.25 26.25 96.15 26.45 96.9 26.35 96.9 26.25 97.1 26.15 97.75 27.45 Q97.85 28.4 98.15 28.55 L99.35 28.65 99.5 28.65 99.55 28.65 100.25 28.65 100.7 29.3 Q101.1 29.9 101.5 29.9 102.6 29.9 102.9 28.25 L103.0 26.55 103.0 26.3 103.4 25.85 103.4 26.55 103.6 29.1 Q103.95 30.65 105.15 30.65 L106.1 30.55 106.35 30.45 106.45 28.0 106.9 28.4 107.0 29.0 Q107.4 30.5 108.95 30.65 L108.95 28.4 109.0 28.3 109.35 30.65 Q110.25 30.65 110.7 29.35 L111.0 28.15 111.05 28.15 112.0 31.2 Q112.95 33.7 115.0 33.7 L117.0 33.5 117.1 27.95 117.1 25.9 117.3 24.95 Q118.0 21.85 118.5 21.1 L118.25 23.05 117.85 26.3 118.15 29.55 Q118.55 32.55 119.0 33.5 L119.5 33.7 Q120.0 35.75 121.25 36.15 L121.45 36.45 122.05 34.85 122.1 34.85 Q122.0 36.35 123.15 36.35 L123.7 36.15 124.1 35.7 124.3 36.6 124.75 37.0 124.75 36.95 124.8 37.0 125.35 36.85 125.4 36.85 125.65 37.15 125.8 37.5 126.4 37.4 126.55 37.3 126.65 36.15 126.55 35.7 126.65 35.8 Q127.3 36.35 127.8 36.35 L128.9 36.2 128.9 36.3 129.0 37.6 Q129.05 37.9 130.05 37.9 L130.95 37.8 131.1 37.7 131.2 36.8 131.15 36.25 131.45 35.85 131.95 34.55 Q131.95 33.8 131.4 33.8 L131.85 32.9 131.9 32.3 131.95 32.25 Q132.5 30.6 132.65 28.95 L133.85 26.05 134.45 30.3 134.65 29.95 135.2 31.35 Q135.75 32.35 136.0 32.35 L136.5 32.2 136.7 31.95 138.35 34.45 Q139.5 36.0 139.9 36.0 140.8 36.0 140.9 35.3 L141.4 35.65 141.6 36.0 141.65 36.2 Q142.2 38.1 143.25 38.1 L145.0 37.8 146.3 37.5 147.0 37.4 147.0 35.9 Q149.0 34.9 149.4 32.4 149.85 29.5 150.6 28.75 L150.9 32.85 Q152.4 33.0 152.95 34.45 153.45 35.85 154.1 35.85 L154.55 35.7 154.75 35.45 155.0 36.2 Q155.3 36.8 155.9 36.8 157.3 36.8 157.5 33.75 L157.55 29.75 157.7 29.85 157.8 31.35 Q157.95 32.85 158.55 33.75 L158.85 33.3 158.85 34.3 Q159.05 37.0 159.9 37.35 L160.05 34.8 160.15 33.55 160.15 32.45 160.0 30.65 Q160.1 28.75 160.6 27.8 L161.2 28.05 160.95 31.65 Q160.95 32.6 161.5 33.5 L161.85 34.05 162.25 32.8 163.15 32.8 Q163.55 33.5 164.1 33.5 164.8 33.5 165.05 32.85 L165.85 32.85 166.55 33.35 167.2 28.4 167.6 22.95 167.85 18.7 167.8 17.65 Q168.45 18.65 168.55 20.0 168.5 20.2 169.0 20.2 170.3 20.2 170.6 17.2 L170.65 14.15 170.55 12.1 171.6 14.5 171.45 15.9 171.5 16.85 171.8 16.9 172.35 16.8 Q172.75 20.15 173.1 22.1 173.7 25.75 174.75 25.75 175.75 25.75 175.8 24.75 L175.8 24.65 175.95 25.0 176.35 27.05 177.35 30.6 Q177.75 31.7 181.35 35.8 L181.95 36.6 182.05 36.6 182.35 36.85 182.85 36.85 183.0 36.75 183.25 36.6 183.55 36.6 183.65 35.35 184.25 35.0 185.2 33.95 Q185.75 34.9 186.1 34.9 L186.2 34.9 186.25 33.25 Q186.5 33.05 186.8 33.0 L187.0 33.85 187.0 33.55 Q187.0 31.95 186.45 31.45 187.25 29.25 187.65 25.9 188.35 20.6 188.8 10.85 L189.15 10.95 Q189.0 12.2 189.0 13.7 L188.8 19.15 188.6 23.0 188.7 27.15 Q188.85 28.5 189.3 29.55 189.0 29.75 189.0 30.4 L189.15 31.55 189.35 32.6 189.6 32.85 190.5 33.05 191.25 32.95 191.25 32.85 191.45 32.75 192.1 34.05 Q192.2 35.0 192.5 35.15 L193.7 35.25 193.85 35.25 193.9 35.25 194.6 35.25 195.05 35.9 195.2 36.1 Q195.9 34.75 196.35 31.8 L196.6 30.05 198.15 26.55 198.3 28.55 197.85 34.1 197.85 35.2 197.95 35.7 198.05 36.1 198.2 33.85 198.3 32.55 198.75 25.15 198.95 25.15 198.95 29.75 Q198.95 30.5 199.1 31.2 L199.2 31.8 Q199.65 33.8 200.85 33.85 L200.9 34.7 201.05 35.2 201.35 35.55 Q201.85 36.0 202.8 36.0 L204.0 35.75 204.55 35.25 204.7 35.05 205.35 34.75 205.4 34.8 205.85 34.85 206.45 34.75 Q207.25 34.4 207.85 33.1 L207.9 33.05 208.85 30.25 209.3 27.8 209.8 26.65 210.3 25.55 210.8 25.45 211.1 27.1 Q211.35 28.2 212.7 27.9 L212.7 27.95 212.8 28.25 M60.75 25.3 Q61.75 23.75 62.65 23.4 L63.65 15.25 64.2 13.7 64.35 13.75 64.4 14.15 64.6 19.25 64.8 21.95 64.85 24.3 Q65.05 26.2 65.8 26.95 L65.7 28.2 65.65 29.85 64.45 30.1 Q63.15 30.1 62.7 29.3 L62.5 27.95 Q61.3 27.9 60.85 25.9 L60.75 25.3 M67.65 27.65 L69.0 27.35 Q69.3 27.2 69.55 27.15 L69.5 27.2 Q68.9 28.5 68.1 28.85 L68.05 28.35 67.65 27.65 M76.1 25.95 L77.0 26.0 77.75 25.9 78.3 26.05 78.25 27.15 77.7 27.2 Q76.95 27.2 76.1 25.95 M81.3 24.2 L81.3 23.4 Q81.3 22.7 82.15 21.05 L82.2 21.0 81.8 22.6 81.3 24.2 M87.3 25.1 L87.45 25.1 88.5 25.35 88.85 26.45 89.0 26.65 88.25 25.9 Q87.7 25.9 87.3 25.1 M228.3 33.55 L228.2 32.65 228.0 33.25 228.3 33.55 M134.5 31.0 L134.25 33.0 134.45 34.95 134.55 34.1 134.5 31.4 134.5 31.0" fill="url(#gradient0)" fill-rule="evenodd" stroke="none"/>
    <path d="M65.8 26.95 L65.8 25.85 65.65 24.05 Q65.75 22.15 66.25 21.2 L66.85 21.45 66.6 25.05 Q66.6 26.0 67.15 26.9 L67.65 27.65 68.05 28.35 68.1 28.85 67.5 28.95 67.0 28.85 66.35 29.15 66.2 29.35 65.65 29.85 65.7 28.2 65.8 26.95 M90.3 28.0 L90.85 27.35 Q91.35 28.2 91.7 28.3 L91.65 28.75 91.15 28.85 90.3 28.0" fill="url(#gradient1)" fill-rule="evenodd" stroke="none"/>
    <path d="M200.9 34.7 L201.25 35.0 201.35 35.55 201.05 35.2 200.9 34.7 M205.35 34.75 L205.4 34.75 205.4 34.8 205.35 34.75 M212.7 27.95 L212.85 27.7 212.8 28.25 212.7 27.95 M228.3 33.55 L228.0 33.25 228.2 32.65 228.3 33.55" fill="url(#gradient2)" fill-rule="evenodd" stroke="none"/>
    <path d="M59.95 26.65 L60.4 19.25 60.6 19.25 60.6 23.85 60.75 25.3 60.85 25.9 Q61.3 27.9 62.5 27.95 L62.7 29.3 Q63.15 30.1 64.45 30.1 L65.65 29.85 66.2 29.35 66.35 29.15 67.0 28.85 67.5 28.95 68.1 28.85 Q68.9 28.5 69.5 27.2 L69.55 27.15 70.5 24.35 70.95 21.9 Q71.0 21.45 71.45 20.75 L71.95 19.65 72.45 19.55 72.75 21.2 Q73.0 22.3 74.35 22.0 74.65 23.35 75.55 25.0 L76.1 25.95 Q76.95 27.2 77.7 27.2 L78.25 27.15 78.35 27.1 78.4 27.1 78.9 27.05 79.5 27.15 79.75 26.6 Q80.65 25.9 81.3 24.2 L81.8 22.6 82.2 21.0 Q82.6 18.95 82.6 17.35 L82.8 17.65 83.25 17.8 Q83.85 17.8 84.25 14.05 L84.85 8.0 84.95 8.7 84.85 9.1 Q84.85 9.45 85.4 9.95 L85.75 11.1 Q85.6 12.1 85.6 14.4 85.8 18.4 86.2 21.0 86.25 22.25 86.65 23.35 L87.3 25.1 Q87.7 25.9 88.25 25.9 L89.0 26.65 90.3 28.0 91.15 28.85 91.65 28.75 91.7 28.3 91.7 27.55 91.75 27.55 91.75 28.3 91.75 40.3 57.65 40.3 58.3 38.85 58.95 37.25 Q59.5 33.65 59.85 27.95 L59.95 26.65" fill="url(#gradient3)" fill-rule="evenodd" stroke="none"/>
    <path d="M203.55 131.3 Q203.55 132.3 204.0 133.35 L203.95 134.0 Q203.95 134.85 204.5 136.05 205.15 137.45 205.85 137.35 L205.7 139.2 Q205.75 140.65 206.8 140.65 207.25 140.65 207.6 140.05 L207.9 139.35 208.5 139.85 209.3 139.7 209.95 139.55 210.45 139.4 210.55 139.3 210.8 139.05 Q211.2 139.65 211.7 139.65 L212.3 139.55 212.5 137.95 212.5 137.3 213.0 137.0 213.75 138.65 214.3 138.55 214.75 137.95 217.1 142.6 Q218.9 138.6 220.4 136.35 221.9 136.15 222.0 137.15 L222.05 139.0 222.35 139.05 223.0 138.95 223.2 139.5 223.1 140.4 Q223.1 141.25 223.4 142.15 223.4 143.25 223.65 143.8 L223.7 143.95 223.75 143.75 224.1 142.9 224.1 142.85 225.0 141.65 225.85 142.15 Q225.6 143.35 225.6 145.0 L225.6 145.85 225.85 147.0 225.7 149.0 225.7 149.25 226.25 149.35 Q226.65 149.35 227.3 147.8 L227.55 148.05 Q228.6 148.05 228.7 146.8 L228.75 145.9 229.55 144.4 229.85 144.4 Q231.5 144.4 232.15 139.55 L232.45 134.8 232.7 136.7 Q232.7 138.2 233.05 140.15 L233.1 142.05 233.05 143.4 233.05 144.7 Q233.25 145.75 234.05 145.75 L234.8 145.35 235.0 148.8 235.15 149.2 235.1 149.85 Q235.1 150.7 235.65 151.9 236.3 153.3 237.0 153.15 L236.85 155.05 Q236.9 156.5 237.95 156.5 238.4 156.5 238.75 155.9 L239.05 155.2 239.65 155.65 240.45 155.55 241.1 155.35 241.6 155.25 241.6 158.45 241.8 157.55 242.0 153.4 242.05 150.1 Q242.0 148.2 242.3 147.05 L243.5 145.4 242.95 148.45 Q242.95 151.8 242.6 154.75 L242.4 160.9 242.4 163.45 242.4 163.5 242.6 167.6 243.2 167.8 243.65 167.6 243.9 167.3 244.1 169.95 244.35 172.7 Q244.35 173.75 245.65 175.5 L245.8 175.8 Q246.4 178.65 246.9 179.6 L247.05 179.45 Q246.8 178.45 247.0 178.2 L247.1 178.3 247.45 178.45 Q248.0 179.35 248.0 180.25 248.0 181.15 247.85 180.8 L247.05 180.85 246.85 181.35 246.3 181.45 242.5 181.45 Q233.25 178.85 224.05 173.85 L214.9 168.95 207.45 168.95 207.45 165.4 207.35 165.4 Q198.85 161.9 182.35 159.2 L159.1 155.55 145.65 155.55 108.9 159.75 Q92.5 161.95 86.45 163.45 80.9 164.75 75.85 167.9 71.45 170.65 69.2 173.55 67.6 175.6 63.45 179.15 57.4 184.35 53.95 184.35 53.3 184.35 53.15 183.95 L53.1 183.25 Q52.35 183.2 52.65 182.8 L52.8 181.35 53.7 180.5 53.8 180.55 Q55.1 180.55 56.1 178.45 56.95 176.65 56.95 175.05 L56.95 174.6 57.6 172.25 57.55 173.5 57.95 173.65 Q59.1 172.0 59.5 169.55 L59.9 165.35 Q60.1 163.65 59.95 160.35 L59.8 157.15 Q59.8 156.45 60.05 156.35 L60.75 155.45 60.8 155.25 61.15 158.1 Q61.25 158.75 62.65 159.05 63.85 159.25 63.6 160.2 63.55 160.35 64.05 160.35 L64.6 160.15 64.95 159.5 Q67.55 158.5 67.65 155.1 L67.75 151.0 67.8 150.9 67.8 151.1 Q67.85 152.15 69.0 152.15 69.65 152.15 69.85 149.65 L69.9 148.7 69.9 146.3 69.95 146.15 69.95 145.8 Q71.05 145.2 71.2 143.2 71.3 141.05 72.25 140.45 L72.95 140.6 73.2 143.3 73.75 143.45 Q74.65 143.45 74.85 141.1 L75.15 137.9 Q75.1 139.0 75.85 140.8 76.9 143.3 76.95 144.4 L77.25 144.6 77.55 144.6 Q78.4 144.6 78.4 143.65 78.4 142.35 78.7 142.05 79.2 143.0 81.35 143.0 L81.85 142.9 81.9 141.75 82.5 141.95 82.6 141.0 Q82.7 138.85 83.65 138.25 L84.35 138.4 84.6 141.1 85.15 141.25 85.4 141.2 85.4 132.0 85.5 131.95 85.75 131.65 Q86.15 132.3 86.65 132.3 L87.25 132.2 87.45 130.6 87.45 129.9 87.95 129.6 88.7 131.3 89.25 131.15 89.7 130.6 92.05 135.2 Q93.85 131.25 95.35 128.95 96.85 128.8 96.95 129.75 L97.0 131.65 97.3 131.65 97.95 131.6 98.15 132.1 98.05 133.0 Q98.05 133.85 98.35 134.8 98.35 135.85 98.6 136.4 L98.9 136.95 99.25 137.25 Q99.5 137.55 99.8 137.55 L100.3 137.3 100.6 137.0 100.95 137.2 101.35 137.35 Q102.0 137.35 102.1 136.95 L102.1 136.35 103.05 135.7 Q103.85 135.2 104.0 134.55 L103.85 134.0 103.9 133.55 Q103.65 131.2 103.8 130.15 L104.55 123.6 104.6 123.5 Q104.9 126.2 105.9 129.4 106.5 131.5 107.1 132.4 L107.1 132.15 107.4 127.4 107.65 129.35 Q107.65 130.8 108.0 132.75 L108.05 133.1 108.4 132.9 108.5 132.4 109.15 133.0 109.85 133.1 110.8 133.0 Q110.65 132.6 111.1 132.4 L112.0 131.9 Q112.65 134.45 113.55 134.45 L114.05 134.35 Q114.2 133.2 115.4 130.9 L115.6 131.85 Q115.9 132.6 116.4 132.6 117.25 132.6 117.5 131.65 L117.75 130.3 118.5 129.25 118.8 128.8 123.8 128.8 123.8 139.55 175.45 139.55 175.45 128.8 186.95 128.8 186.95 128.5 187.1 128.5 Q187.75 128.5 188.15 127.8 L188.7 128.15 Q189.5 128.15 189.65 127.55 L189.65 126.65 Q190.6 127.05 190.65 128.1 190.7 128.95 191.3 128.95 192.3 128.95 192.6 127.9 L192.95 127.05 192.95 127.0 193.85 125.8 Q194.45 126.3 194.7 126.3 194.45 127.55 194.45 129.15 194.25 136.3 195.75 134.5 L195.95 135.8 Q196.2 136.45 197.1 136.65 197.55 137.7 198.15 137.7 199.0 137.7 199.1 137.0 199.05 136.15 199.15 135.9 199.3 135.55 199.8 135.25 L200.55 134.5 200.7 132.9 201.3 132.2 201.8 131.9 202.55 131.2 203.5 131.25 203.55 131.3" fill="url(#gradient4)" fill-rule="evenodd" stroke="none"/>
    <path d="M62.3 -65.35 L61.95 -64.8 60.7 -65.7 Q60.45 -65.95 60.45 -66.3 60.45 -67.05 60.7 -67.35 L61.4 -67.7 62.3 -65.35 M18.2 -78.35 L18.8 -76.95 18.7 -76.25 Q19.1 -75.95 18.0 -75.95 16.9 -75.95 16.55 -76.95 16.35 -77.4 16.4 -77.95 16.4 -79.1 17.8 -79.55 L18.2 -78.35 M18.35 -28.85 L18.3 -27.7 Q17.95 -26.7 16.7 -26.55 L16.45 -26.65 16.4 -27.35 Q16.4 -28.5 16.95 -30.65 17.45 -32.75 17.7 -32.85 18.35 -30.9 18.35 -28.85 M118.35 -76.5 Q118.05 -78.5 118.05 -80.75 118.05 -81.5 118.4 -81.55 L119.15 -81.45 Q119.7 -80.5 119.7 -79.2 119.7 -77.8 119.15 -76.5 L118.35 -76.5 M91.4 -91.8 L91.8 -91.45 91.95 -90.5 91.5 -88.2 90.9 -88.05 Q90.45 -89.0 90.45 -90.35 L90.65 -91.45 Q90.85 -91.7 91.4 -91.8 M98.5 -24.6 L98.65 -23.5 Q98.65 -22.75 98.3 -22.2 L97.75 -21.5 96.45 -21.6 Q96.45 -22.3 96.95 -23.55 97.45 -24.9 98.0 -25.1 L98.5 -24.6 M149.2 -39.75 L149.4 -38.75 Q149.4 -37.75 148.5 -36.35 L147.15 -36.45 147.0 -37.8 147.4 -39.05 Q147.85 -39.8 148.65 -40.2 L149.2 -39.75 M128.85 -9.25 L129.3 -8.55 129.4 -7.5 129.25 -5.65 128.95 -5.1 Q127.85 -6.1 127.85 -7.4 127.85 -8.65 128.85 -9.25 M151.2 -0.25 L151.05 2.15 150.2 2.6 Q149.5 2.15 149.3 1.3 L149.2 -0.2 Q149.2 -3.95 150.4 -4.05 151.2 -2.4 151.2 -0.25 M207.9 -99.9 L208.65 -98.55 Q208.9 -97.65 209.1 -97.4 209.45 -96.85 208.35 -96.85 207.3 -96.85 207.0 -97.7 L206.9 -98.7 Q206.9 -99.45 207.15 -99.65 L207.9 -99.9 M229.5 -49.85 L229.4 -49.55 Q229.7 -49.05 228.6 -49.05 227.8 -49.05 227.25 -51.05 L226.85 -53.2 226.9 -53.85 227.05 -54.05 Q228.3 -53.95 229.0 -52.8 229.6 -51.85 229.6 -51.0 L229.5 -49.85 M166.4 -94.55 Q166.4 -97.15 167.4 -98.1 168.25 -97.6 168.35 -96.85 L168.35 -91.9 167.4 -91.35 Q166.4 -91.65 166.4 -94.55 M192.95 -67.25 Q192.6 -66.4 192.05 -66.15 191.05 -66.45 190.7 -66.8 190.7 -67.5 190.85 -68.0 L192.6 -67.95 192.95 -67.25 M194.15 -9.45 L193.8 -8.85 Q191.8 -8.55 191.25 -10.8 L191.05 -14.05 191.25 -17.2 Q193.1 -17.35 193.0 -14.6 192.95 -11.15 194.25 -10.05 L194.15 -9.45 M226.95 -5.6 Q226.95 -6.75 227.05 -6.1 228.9 -5.9 229.3 -2.7 L229.8 1.85 Q229.4 2.4 228.6 2.6 228.15 2.2 227.55 -1.25 L226.95 -5.6 M246.05 -94.05 L246.6 -92.85 246.15 -92.0 Q244.45 -93.15 244.45 -94.1 244.45 -94.85 244.75 -95.1 L245.35 -95.4 246.05 -94.05 M63.9 9.65 L63.9 11.95 63.45 12.6 62.2 12.6 62.1 10.6 62.1 9.0 Q62.25 7.65 63.2 7.35 L63.9 9.65" fill="url(#gradient5)" fill-rule="evenodd" stroke="none"/>
    <path d="M231.95 95.15 L232.2 96.05 232.0 97.05 231.65 97.4 230.45 97.4 230.25 96.05 Q230.25 95.2 231.3 94.85 L231.95 95.15 M226.15 112.55 Q227.25 114.55 227.25 115.85 L226.4 116.55 225.65 115.45 225.05 114.15 Q225.05 112.8 226.15 112.55 M219.15 104.9 Q220.2 105.9 219.7 108.45 219.1 111.1 220.05 112.15 219.5 112.9 218.45 113.1 217.95 112.55 217.65 111.4 L217.45 109.95 217.55 107.5 Q217.85 106.05 219.15 104.9 M233.1 133.55 L233.3 134.8 232.2 135.25 231.35 132.6 Q231.65 132.15 232.35 132.15 L233.1 133.55 M65.1 105.2 Q65.45 105.25 65.45 105.95 L65.2 107.35 64.6 108.6 Q63.45 107.65 63.45 106.65 63.45 105.8 63.6 105.5 63.75 105.25 64.25 105.1 L65.1 105.2 M69.2 117.35 L69.1 120.7 68.2 121.05 Q67.5 120.7 67.3 119.5 L67.25 117.65 Q67.25 114.05 68.45 113.45 69.2 114.75 69.2 117.35 M78.25 112.95 Q78.45 113.15 78.45 113.9 L78.3 115.2 77.45 115.55 76.9 115.7 Q76.35 115.65 76.35 114.95 76.35 114.4 76.7 113.7 77.1 112.9 77.7 112.55 L78.25 112.95 M66.0 137.75 L66.0 139.75 65.15 140.3 64.35 139.65 64.25 138.6 Q64.25 137.75 64.6 136.95 64.9 136.2 65.25 136.1 L66.0 137.75" fill="url(#gradient6)" fill-rule="evenodd" stroke="none"/>
  </g>
  <defs>
    <linearGradient gradientTransform="matrix(0.0, 0.0488, 0.1827, 0.0, 148.85, 40.0)" gradientUnits="userSpaceOnUse" id="gradient0" spreadMethod="pad" x1="-819.2" x2="819.2">
      <stop offset="0.0" stop-color="#c0271e"></stop>
      <stop offset="1.0" stop-color="#231912"></stop>
    </linearGradient>
    <linearGradient gradientTransform="matrix(0.0, 0.0488, 0.1827, 0.0, -0.15, 44.25)" gradientUnits="userSpaceOnUse" id="gradient1" spreadMethod="pad" x1="-819.2" x2="819.2">
      <stop offset="0.0" stop-color="#c0271e"></stop>
      <stop offset="1.0" stop-color="#231912"></stop>
    </linearGradient>
    <linearGradient gradientTransform="matrix(0.0, 0.0488, 0.1827, 0.0, 94.2, 50.85)" gradientUnits="userSpaceOnUse" id="gradient2" spreadMethod="pad" x1="-819.2" x2="819.2">
      <stop offset="0.0" stop-color="#c0271e"></stop>
      <stop offset="1.0" stop-color="#231912"></stop>
    </linearGradient>
    <linearGradient gradientTransform="matrix(0.0, 0.0488, 0.1827, 0.0, 191.55, 40.0)" gradientUnits="userSpaceOnUse" id="gradient3" spreadMethod="pad" x1="-819.2" x2="819.2">
      <stop offset="0.0" stop-color="#c0271e"></stop>
      <stop offset="1.0" stop-color="#231912"></stop>
    </linearGradient>
    <linearGradient gradientTransform="matrix(0.0, 0.0501, 0.1193, 0.0, 150.25, 143.3)" gradientUnits="userSpaceOnUse" id="gradient4" spreadMethod="pad" x1="-819.2" x2="819.2">
      <stop offset="0.0" stop-color="#c0271e"></stop>
      <stop offset="1.0" stop-color="#231912"></stop>
    </linearGradient>
    <linearGradient gradientTransform="matrix(0.0, 0.0488, -0.1827, 0.0, 149.65, 40.0)" gradientUnits="userSpaceOnUse" id="gradient5" spreadMethod="pad" x1="-819.2" x2="819.2">
      <stop offset="0.0" stop-color="#c0271e"></stop>
      <stop offset="1.0" stop-color="#231912"></stop>
    </linearGradient>
    <linearGradient gradientTransform="matrix(0.0, 0.058, -0.1193, 0.0, 150.35, 136.8)" gradientUnits="userSpaceOnUse" id="gradient6" spreadMethod="pad" x1="-819.2" x2="819.2">
      <stop offset="0.0" stop-color="#c0271e"></stop>
      <stop offset="1.0" stop-color="#231912"></stop>
    </linearGradient>
  </defs>
</svg>