<?xml version="1.0" encoding="UTF-8" standalone="no"?>
<svg xmlns:xlink="http://www.w3.org/1999/xlink" height="262.15px" width="300.5px" xmlns="http://www.w3.org/2000/svg">
  <g transform="matrix(1.0, 0.0, 0.0, 1.0, 1, 76.8)">
    <path d="M203.5 122.8 L203.55 122.85 Q203.55 124.05 204.0 125.25 L203.95 126.0 Q203.95 127.0 204.5 128.4 205.15 130.0 205.85 129.85 L205.7 132.05 Q205.75 133.7 206.8 133.7 L207.6 133.0 207.9 132.2 208.5 132.75 209.3 132.6 209.95 132.4 210.55 132.15 210.8 131.85 Q211.2 132.55 211.7 132.55 L212.3 132.45 212.5 130.6 212.5 129.8 213.0 129.45 213.75 131.4 214.3 131.25 214.75 130.6 217.1 135.95 Q218.9 131.35 220.4 128.7 221.9 128.5 222.0 129.65 L222.05 131.8 222.35 131.85 223.0 131.75 223.2 132.35 223.1 133.4 Q223.1 134.4 223.4 135.45 223.4 136.7 223.65 137.35 224.0 138.25 225.15 139.15 225.85 139.7 225.85 141.05 L225.65 143.55 226.25 143.8 Q226.65 143.8 227.3 142.0 L227.55 142.3 Q228.6 142.3 228.7 140.8 L228.75 139.8 229.55 138.05 229.85 138.05 Q231.5 138.05 232.15 132.4 L232.45 126.9 232.7 129.15 Q232.7 130.85 233.05 133.1 L233.1 135.3 233.05 136.9 233.05 138.4 Q233.25 139.6 234.05 139.6 L234.8 139.15 235.15 148.25 Q235.8 156.55 237.9 156.55 L238.9 156.4 Q239.05 156.2 239.5 156.2 241.4 156.2 241.8 153.3 241.85 149.75 242.0 148.5 L242.05 144.65 Q242.0 142.45 242.3 141.1 242.8 140.0 243.5 139.2 L242.95 142.75 Q242.95 146.6 242.6 150.05 L242.4 157.15 242.4 160.2 242.6 164.9 243.2 165.15 243.65 164.9 243.9 164.6 244.1 167.65 244.35 170.85 Q244.35 172.05 245.65 174.1 L245.8 174.4 Q246.4 177.7 246.9 178.85 L247.05 178.65 Q246.8 177.5 247.0 177.2 L247.1 177.35 247.45 177.5 Q248.0 178.55 248.0 179.6 248.0 180.6 247.85 180.2 L247.05 180.3 246.85 180.85 246.3 180.95 242.5 180.95 Q233.25 177.95 224.05 172.15 212.2 164.65 207.35 162.35 198.85 158.35 182.35 155.2 L159.1 150.95 145.65 150.95 108.9 155.85 Q92.5 158.4 86.45 160.1 80.9 161.65 75.85 165.3 71.45 168.45 69.2 171.8 67.6 174.2 63.45 178.3 57.4 184.35 53.95 184.35 53.3 184.35 53.15 183.85 L53.1 183.05 Q52.35 183.0 52.65 182.55 L52.8 180.85 53.7 179.9 53.8 179.95 Q55.1 179.95 56.1 177.5 56.95 175.4 56.95 173.55 L56.95 173.05 57.6 170.3 57.55 171.75 57.95 171.95 Q59.1 170.05 59.5 167.2 L59.9 162.3 Q60.1 160.35 59.95 156.55 L59.8 152.8 Q59.8 152.0 60.05 151.9 60.45 151.7 60.75 150.85 L60.8 150.6 61.15 153.9 Q61.25 154.65 62.65 155.0 63.85 155.25 63.6 156.35 63.55 156.55 64.05 156.55 L64.6 156.3 64.95 155.55 Q67.55 154.4 67.65 150.45 L67.75 145.7 67.8 145.6 67.8 145.8 Q67.85 147.05 69.0 147.05 69.65 147.05 69.85 144.15 L69.9 140.25 69.95 140.1 69.95 139.65 Q71.05 139.0 71.2 136.65 71.3 134.15 72.25 133.45 72.35 133.65 72.95 133.65 L73.2 136.8 73.75 136.95 Q74.65 136.95 74.85 134.25 L75.15 130.5 Q75.1 131.8 75.85 133.9 76.9 136.75 76.95 138.05 L77.55 138.3 Q78.4 138.3 78.4 137.2 78.4 135.7 78.7 135.35 79.2 136.4 81.35 136.4 L81.85 136.3 81.9 134.95 83.05 135.35 83.05 135.6 83.1 136.65 83.8 136.75 Q85.3 136.75 86.2 133.5 86.85 131.2 86.9 128.95 L87.35 129.1 Q87.85 128.9 87.85 128.45 L87.8 127.6 88.0 127.35 Q88.4 128.6 88.25 130.5 88.4 131.8 90.3 131.8 L90.85 131.6 91.25 131.15 93.0 132.4 Q93.5 132.4 94.55 131.5 95.8 130.4 95.8 129.3 L96.4 129.55 Q96.85 129.55 97.0 129.0 L97.3 128.95 97.25 129.25 98.75 129.35 99.25 129.75 Q99.5 130.1 99.8 130.1 L100.3 129.8 100.6 129.5 100.95 129.7 Q101.1 129.9 101.35 129.9 102.0 129.9 102.1 129.4 L102.1 128.7 103.05 127.95 Q103.85 127.4 104.0 126.65 L103.85 126.0 103.9 125.45 Q103.65 122.75 103.8 121.55 L104.55 113.95 104.6 113.85 Q104.9 116.95 105.9 120.65 107.0 124.95 107.85 124.95 108.35 124.95 108.4 124.7 L108.5 124.15 Q108.8 124.7 109.15 124.85 L109.85 124.95 110.8 124.85 Q110.65 124.35 111.1 124.15 L112.0 123.55 Q112.65 126.5 113.55 126.5 L114.05 126.4 Q114.2 125.05 115.4 122.4 L115.6 123.5 Q115.9 124.4 116.4 124.4 117.25 124.4 117.5 123.25 L117.75 121.7 118.5 120.5 118.85 119.55 118.7 118.45 120.1 114.65 Q122.5 106.85 123.1 106.85 L124.0 107.05 124.35 107.15 Q124.35 106.15 124.75 105.15 125.3 103.8 126.35 103.8 127.45 103.8 127.65 105.05 L127.65 106.55 Q128.35 103.8 130.25 99.75 L133.65 93.25 Q137.4 86.7 141.25 90.85 142.05 91.7 145.3 97.9 147.1 101.4 151.05 113.85 154.95 124.55 158.55 124.55 161.5 124.55 165.0 117.25 168.5 109.9 168.8 109.9 169.95 109.9 170.35 111.6 L170.7 113.8 170.8 113.7 Q170.8 112.35 171.3 110.65 171.95 108.4 173.0 108.4 L173.9 108.65 174.05 108.85 174.15 109.6 174.3 109.5 Q174.75 108.05 175.3 106.95 L175.85 107.0 177.95 106.65 Q178.5 106.65 178.6 105.8 L178.65 104.85 178.7 104.85 178.75 106.4 Q178.85 107.6 179.6 107.6 180.3 107.6 180.5 106.65 L180.7 105.4 180.8 105.55 180.65 108.3 Q180.6 110.15 182.25 110.8 182.25 115.6 183.8 115.6 L184.35 115.45 Q184.9 116.75 185.85 116.55 L186.0 116.65 186.1 118.15 Q186.3 119.6 187.1 119.6 187.75 119.6 188.15 118.8 188.35 119.2 188.7 119.2 189.5 119.2 189.65 118.5 L189.65 117.5 Q190.6 117.95 190.65 119.15 190.7 120.15 191.3 120.15 192.3 120.15 192.6 118.95 L192.95 117.95 192.95 117.9 Q193.35 117.0 193.85 116.5 L194.7 117.1 Q194.45 118.5 194.45 120.4 194.25 128.65 195.75 126.6 L195.95 128.1 Q196.2 128.85 197.1 129.05 197.55 130.3 198.15 130.3 199.0 130.3 199.1 129.5 199.05 128.5 199.15 128.2 199.3 127.8 199.8 127.45 L200.55 126.55 200.7 124.75 201.3 123.9 201.8 123.55 202.55 122.75 203.5 122.8" fill="url(#gradient0)" fill-rule="evenodd" stroke="none"/>
    <path d="M288.0 46.6 Q289.7 50.65 290.1 50.65 291.3 50.65 291.6 48.75 L292.85 48.35 292.75 51.6 292.95 53.75 293.15 56.6 Q293.15 57.4 293.6 58.35 L293.35 61.85 Q293.35 65.75 293.55 66.35 294.0 67.65 297.35 71.95 L297.45 71.6 297.35 70.65 Q297.25 70.25 297.45 70.1 L297.75 70.1 Q298.5 71.2 298.5 73.05 L298.0 73.15 296.8 73.25 Q293.95 73.25 292.6 67.85 291.95 65.2 291.8 62.85 L290.1 65.4 Q287.65 68.95 287.05 70.95 286.05 74.15 282.35 76.85 278.2 80.0 273.35 80.0 269.6 80.0 263.0 78.4 L262.2 78.6 250.3 78.7 247.55 78.2 240.0 77.7 228.45 76.7 223.25 76.15 211.45 76.05 210.05 75.8 180.6 75.7 178.9 75.45 159.65 75.35 149.45 74.8 133.65 74.8 132.25 75.05 105.4 75.2 63.6 73.85 42.45 72.15 22.8 72.25 10.3 73.3 Q8.25 73.7 6.15 74.55 L4.35 76.35 Q2.75 78.0 1.2 78.0 L0.65 77.9 0.3 77.9 0.0 77.9 0.8 76.95 3.25 73.35 Q4.1 72.1 4.6 70.35 5.1 68.4 5.5 67.4 6.4 65.05 6.85 61.6 L7.5 55.6 Q8.4 58.45 9.25 58.45 10.5 58.45 10.8 55.45 L11.35 50.55 Q11.6 49.75 12.8 48.6 13.95 47.55 14.05 46.85 L14.05 46.7 14.6 46.0 15.6 44.3 16.25 42.9 Q16.8 39.75 17.15 34.8 L17.7 27.25 17.9 27.25 17.9 31.25 Q17.9 32.15 18.15 33.05 18.6 34.75 19.8 34.8 L20.0 36.0 Q20.45 36.7 21.75 36.7 22.95 36.7 23.5 36.05 L23.65 35.85 24.3 35.6 24.8 35.7 Q25.95 35.7 26.8 34.15 L27.8 31.7 28.25 29.55 28.75 28.55 29.25 27.6 29.75 27.5 30.05 28.95 Q30.3 29.9 31.65 29.65 31.95 30.8 32.85 32.25 34.0 34.15 35.0 34.15 L35.65 34.1 35.7 34.1 36.2 34.05 36.8 34.1 37.05 33.65 Q38.3 32.75 39.1 30.15 39.9 27.55 39.9 25.6 L40.1 25.85 40.55 26.0 Q41.15 26.0 41.55 22.75 L42.15 17.5 42.25 18.1 42.15 18.45 Q42.15 18.75 42.7 19.2 L43.05 20.2 Q42.9 21.05 42.9 23.05 L43.5 28.8 Q43.55 29.85 43.95 30.8 44.6 33.05 45.55 33.05 L48.45 35.6 48.95 35.5 49.0 34.45 49.45 34.6 49.6 34.85 Q50.1 35.9 50.8 35.9 L52.1 35.35 Q53.35 34.7 53.9 33.85 L54.65 34.25 55.15 35.55 55.95 36.95 56.6 36.4 57.3 36.6 Q58.2 36.6 59.7 34.1 61.3 31.35 62.65 30.85 L63.65 23.8 64.2 22.45 64.35 22.5 64.4 22.85 64.6 27.25 64.8 29.6 64.85 31.65 Q65.2 34.4 66.95 34.4 L67.05 34.4 67.65 34.55 69.0 34.3 69.9 34.05 70.7 34.55 Q72.25 34.55 72.45 28.9 L75.05 33.4 75.6 33.35 75.65 32.95 77.0 33.1 77.75 33.05 78.3 33.15 Q77.9 35.05 79.35 35.05 80.95 35.05 81.3 33.35 L81.3 30.85 Q81.3 30.25 82.15 28.8 82.9 27.5 82.7 26.9 L83.6 26.8 Q83.5 27.45 83.85 28.85 L84.25 31.25 Q84.15 31.4 84.65 31.4 84.95 31.4 85.1 31.2 L85.15 31.05 Q85.8 32.25 87.45 32.35 L88.5 32.55 88.85 33.5 Q90.0 35.1 90.9 37.55 L91.8 37.65 92.25 38.25 92.65 39.65 Q93.2 41.15 94.15 41.15 L94.8 40.75 94.95 40.9 95.15 41.25 Q95.4 41.65 96.2 41.65 L96.75 41.65 97.85 41.65 97.9 41.35 98.3 41.3 Q98.95 41.3 99.45 39.75 L99.85 37.7 Q100.25 38.4 101.3 38.4 102.95 44.25 104.45 44.85 104.65 45.15 105.05 45.15 L105.3 45.15 105.65 45.35 105.95 44.8 106.35 44.3 106.85 43.05 107.1 43.0 107.6 43.1 Q108.55 43.1 108.8 40.0 L108.95 35.2 109.0 35.1 Q109.35 36.6 109.75 41.55 110.4 45.75 112.2 45.75 L112.25 45.75 Q113.65 46.9 116.1 46.9 L117.55 46.6 117.9 46.6 Q118.8 46.6 120.25 44.3 L122.05 40.8 122.1 40.8 Q122.0 42.1 123.15 42.1 L123.7 41.95 124.1 41.55 124.3 42.3 Q124.6 42.9 125.35 42.55 L125.4 42.55 125.65 42.8 Q126.3 44.1 127.15 44.45 L127.9 44.3 127.95 44.05 129.75 44.3 129.85 44.3 130.55 44.75 Q131.75 44.75 132.35 43.8 132.75 43.15 132.75 42.45 134.3 42.35 134.55 40.15 L134.5 37.8 134.35 37.0 134.65 36.55 Q134.7 37.0 135.2 37.75 135.75 38.65 136.0 38.65 L136.5 38.5 136.7 38.3 138.35 40.45 Q139.5 41.8 139.9 41.8 140.8 41.8 140.9 41.2 L141.4 41.5 141.6 41.8 141.65 42.0 Q142.2 43.65 143.25 43.65 L145.0 43.35 146.3 43.1 147.0 43.0 147.0 41.7 Q149.0 40.85 149.4 38.7 149.85 36.15 150.6 35.5 L150.9 39.05 Q152.4 39.2 152.95 40.45 153.45 41.65 154.1 41.65 L154.55 41.55 154.75 41.3 155.0 42.0 155.9 42.5 Q157.3 42.5 157.5 39.85 L157.55 36.4 157.7 36.45 157.8 37.75 Q157.95 39.05 158.55 39.85 L158.85 39.45 158.85 40.35 Q159.05 42.95 160.1 42.95 160.4 42.95 161.35 41.15 L162.25 39.0 163.15 39.0 Q163.55 39.65 164.1 39.65 164.8 39.65 165.05 39.05 L165.85 39.05 166.55 39.5 167.2 35.2 167.6 30.45 167.85 26.8 167.8 25.85 Q168.45 26.75 168.55 27.9 168.5 28.1 169.0 28.1 170.3 28.1 170.6 25.5 L170.65 22.85 170.55 21.05 171.6 23.15 171.45 24.35 171.5 25.2 171.8 25.2 172.35 25.15 173.1 29.75 Q173.7 32.9 174.75 32.9 175.75 32.9 175.8 32.05 L175.8 31.95 175.95 32.25 176.35 34.05 177.35 37.1 Q177.75 38.05 181.35 41.65 L181.95 42.3 182.05 42.3 182.4 42.65 183.0 42.45 183.25 42.3 183.95 42.3 184.1 42.45 184.55 42.65 Q185.85 42.65 186.2 40.85 L186.25 39.4 186.8 39.2 187.85 42.25 Q189.0 45.1 190.0 45.25 L190.6 45.95 192.25 43.95 192.6 43.45 192.65 43.3 193.1 42.7 193.8 42.85 Q195.5 42.85 196.35 38.15 L196.6 36.65 198.15 33.6 198.3 35.35 197.85 40.15 197.85 41.25 197.85 42.0 197.9 42.8 Q198.1 43.35 198.8 43.5 L199.1 43.4 199.2 43.25 199.25 43.3 Q199.6 45.0 200.35 45.0 201.05 45.0 201.3 44.15 L202.05 44.35 202.2 44.15 202.4 43.25 Q202.75 42.45 203.45 42.45 203.8 42.45 204.55 43.2 205.35 43.95 206.9 44.3 207.2 42.7 208.25 41.15 L208.45 41.3 209.05 41.9 Q208.9 42.0 209.4 42.0 210.15 42.0 210.3 40.85 L210.3 39.7 210.25 38.85 211.2 37.95 Q211.5 38.35 212.05 38.35 213.75 38.35 214.45 33.85 214.75 32.8 214.7 31.35 L214.8 29.3 214.65 27.75 Q214.75 26.1 215.25 25.25 L215.85 25.5 215.6 28.6 Q215.6 29.45 216.15 30.2 L217.05 31.45 217.35 34.75 217.95 34.9 218.15 34.9 Q218.55 38.05 219.95 38.05 220.65 38.05 221.55 37.0 L222.5 35.75 223.15 36.3 223.3 36.45 Q223.6 37.05 223.95 37.05 L224.5 36.95 224.5 36.4 224.9 36.4 225.0 36.3 225.25 36.1 225.35 35.75 226.15 36.05 Q226.4 36.7 227.1 36.7 227.9 36.7 228.0 36.35 L227.95 35.9 228.25 35.75 228.35 35.75 228.75 35.55 229.1 36.2 229.7 36.7 230.2 36.65 230.25 36.2 229.8 35.55 230.05 35.6 Q230.65 35.15 230.75 34.55 L230.8 33.4 230.75 32.05 231.05 31.2 232.6 29.9 233.35 30.3 233.3 30.55 Q233.6 33.1 234.9 33.55 235.4 33.15 235.4 32.6 L235.3 32.1 235.65 32.1 235.7 32.1 Q236.45 33.1 237.0 33.1 L237.95 33.05 238.2 32.95 238.3 31.8 Q239.15 31.45 239.85 30.6 L240.75 31.45 Q241.5 31.45 241.65 30.85 L241.65 30.25 Q241.65 28.85 241.1 28.45 241.9 26.5 242.3 23.6 243.0 19.0 243.45 10.55 L243.8 10.65 Q243.65 11.7 243.65 13.0 L243.45 17.75 243.25 21.1 243.35 24.7 Q243.5 25.85 243.95 26.8 243.65 26.95 243.65 27.5 L243.8 28.5 244.0 29.45 244.25 29.65 245.15 29.8 245.9 29.75 245.9 29.65 246.1 29.55 246.75 30.7 Q246.85 31.5 247.15 31.65 L248.35 31.75 248.5 31.75 248.55 31.75 249.25 31.75 249.7 32.3 Q250.1 32.8 250.5 32.8 251.6 32.8 251.9 31.4 L252.0 29.9 252.0 29.7 252.4 29.3 252.4 29.9 252.6 32.1 Q252.95 33.45 254.15 33.45 L255.1 33.4 255.35 33.3 255.45 31.15 255.9 31.5 256.0 32.05 Q256.45 33.45 258.3 33.45 259.25 33.45 259.7 32.35 L260.0 31.3 260.05 31.3 261.0 33.95 Q261.95 36.1 264.0 36.1 L266.0 35.95 266.1 31.1 266.1 29.35 266.3 28.5 Q267.0 25.85 267.5 25.2 L267.25 26.85 266.85 29.7 267.15 32.5 Q267.55 35.1 268.0 35.95 L268.5 36.1 Q269.0 37.9 270.25 38.25 271.05 39.4 272.25 39.4 273.15 39.4 273.65 39.0 L273.75 38.95 274.5 39.4 275.4 39.35 275.55 39.25 275.65 38.25 275.55 37.85 275.65 37.95 276.8 38.4 277.9 38.3 277.9 38.35 278.0 39.5 279.05 39.75 279.95 39.7 280.1 39.6 280.2 38.8 280.15 38.35 280.45 38.0 280.95 36.85 Q280.95 36.2 280.4 36.2 L280.85 35.4 280.9 34.9 280.95 34.85 Q281.5 33.4 281.65 32.0 L282.85 29.45 283.5 33.6 283.25 35.5 Q283.25 36.75 283.65 38.25 284.25 40.4 285.35 40.4 286.35 40.4 286.9 39.55 L287.05 39.65 Q286.3 40.45 286.3 42.05 286.3 42.65 288.0 46.6" fill="url(#gradient1)" fill-rule="evenodd" stroke="none"/>
    <path d="M19.8 -58.4 L20.0 -57.5 Q20.0 -55.9 19.25 -54.5 L19.25 -54.35 18.25 -54.5 18.15 -56.35 18.35 -57.55 Q18.6 -58.1 19.45 -58.65 L19.8 -58.4 M62.2 -30.05 L61.65 -29.4 60.3 -29.4 60.0 -32.0 59.75 -34.2 Q59.75 -35.45 60.0 -36.35 L61.25 -35.3 62.2 -34.0 62.2 -30.05 M161.3 -62.75 L162.1 -62.85 Q162.85 -62.5 162.95 -61.95 162.85 -61.2 162.1 -60.95 L161.2 -61.5 161.3 -62.75 M97.2 -56.25 Q96.9 -56.0 96.45 -55.9 L95.7 -56.7 Q95.55 -57.1 95.55 -57.95 L95.65 -59.75 96.65 -59.85 97.2 -59.15 97.35 -58.1 97.2 -56.25 M130.6 -42.3 Q129.9 -42.3 129.6 -43.25 L129.6 -45.8 131.05 -45.65 131.15 -44.25 131.05 -43.1 130.6 -42.3 M153.5 -23.45 L154.1 -22.0 154.5 -20.5 154.3 -20.05 Q154.2 -19.85 153.5 -19.85 L152.6 -19.95 152.55 -20.05 152.5 -20.4 152.4 -21.35 Q152.4 -22.5 152.55 -23.4 L153.5 -23.45 M239.55 -65.2 L239.75 -64.1 Q239.75 -62.95 238.65 -61.85 L237.4 -61.95 237.3 -63.1 Q237.3 -63.55 237.65 -64.35 238.05 -65.4 238.75 -65.9 L239.55 -65.2 M201.6 -75.35 L201.75 -74.35 201.65 -73.2 Q201.4 -73.2 201.2 -72.65 L200.1 -72.75 199.95 -74.45 200.1 -75.7 201.15 -75.8 201.6 -75.35 M194.7 -38.6 L194.6 -36.75 Q194.25 -36.55 193.8 -36.45 L193.1 -38.45 Q192.5 -40.05 192.5 -40.8 192.5 -44.1 193.6 -44.35 194.7 -40.45 194.7 -38.6 M234.25 -38.9 L234.45 -37.85 234.3 -36.6 233.7 -35.65 Q232.45 -36.7 232.45 -37.65 232.45 -39.15 233.45 -39.5 L234.25 -38.9 M235.0 17.65 L235.1 18.5 234.75 19.55 234.1 20.3 233.25 20.3 233.15 19.15 Q233.15 18.8 233.55 18.2 234.0 17.5 234.55 17.35 L235.0 17.65 M197.45 18.9 L197.25 20.25 197.1 21.6 196.0 21.95 Q195.3 21.65 195.1 21.1 L195.0 20.05 Q195.0 19.6 195.6 18.25 196.2 16.8 196.65 16.65 197.45 17.7 197.45 18.9 M131.15 22.45 L131.4 24.1 131.15 28.25 130.95 28.35 130.8 28.55 129.6 28.45 129.15 22.05 Q129.15 20.7 130.15 20.7 L131.15 22.45 M96.65 9.3 L96.9 10.7 96.8 13.05 Q96.65 13.05 96.45 13.4 L95.45 13.4 Q95.1 12.25 95.1 10.7 95.1 9.05 95.85 7.55 96.35 8.2 96.65 9.3 M65.15 14.15 Q65.15 15.65 64.35 16.25 L63.65 14.95 63.45 14.05 Q63.45 11.4 64.4 10.85 65.15 12.0 65.15 14.15 M19.45 4.35 L18.45 4.95 Q17.55 3.9 17.55 2.4 L17.6 0.25 Q17.85 -1.2 18.7 -1.15 L19.45 0.75 19.45 4.35" fill="url(#gradient2)" fill-rule="evenodd" stroke="none"/>
    <path d="M198.85 91.55 L199.05 92.05 198.9 93.2 Q198.65 93.6 197.85 93.65 L197.5 93.2 197.3 92.15 Q197.3 91.45 197.6 91.2 L198.2 91.0 198.85 91.55 M216.6 93.0 L215.55 93.45 215.1 93.15 215.1 90.45 216.05 90.35 216.6 91.0 216.6 93.0 M218.3 134.75 Q218.7 138.9 219.6 141.15 L219.35 141.85 Q220.05 142.2 218.9 142.2 217.35 142.2 216.6 137.5 L216.5 136.5 215.9 136.05 215.25 135.45 215.25 123.3 Q216.3 123.05 217.7 123.9 L217.7 130.1 218.3 134.75 M208.85 129.65 L208.65 131.4 208.45 133.25 207.45 133.8 Q206.75 133.1 206.55 131.3 L206.45 128.6 Q206.45 124.45 207.45 123.45 208.05 124.15 208.5 126.35 L208.85 129.65 M201.05 124.9 L200.4 125.75 199.9 125.55 199.8 124.7 Q199.8 123.95 200.0 123.85 L200.6 123.9 201.05 124.9 M66.3 93.65 L66.6 95.3 66.6 97.65 65.6 98.15 Q64.15 96.4 64.15 94.3 64.15 92.9 65.15 92.45 66.1 93.0 66.3 93.65 M68.75 131.25 L68.2 131.95 66.9 131.95 66.8 130.75 Q66.8 128.75 68.0 128.3 68.55 129.3 68.75 131.25 M69.4 141.35 L69.65 144.25 69.55 148.85 68.65 149.2 Q67.35 147.8 67.2 144.65 L67.25 139.55 Q67.25 138.85 67.6 138.6 L68.2 138.4 Q69.0 139.2 69.4 141.35" fill="url(#gradient3)" fill-rule="evenodd" stroke="none"/>
  </g>
  <defs>
    <linearGradient gradientTransform="matrix(0.0, 0.058, 0.1193, 0.0, 150.25, 136.8)" gradientUnits="userSpaceOnUse" id="gradient0" spreadMethod="pad" x1="-819.2" x2="819.2">
      <stop offset="0.0" stop-color="#c0271e"></stop>
      <stop offset="1.0" stop-color="#231912"></stop>
    </linearGradient>
    <linearGradient gradientTransform="matrix(0.0, 0.0424, 0.1827, 0.0, 148.85, 45.25)" gradientUnits="userSpaceOnUse" id="gradient1" spreadMethod="pad" x1="-819.2" x2="819.2">
      <stop offset="0.0" stop-color="#c0271e"></stop>
      <stop offset="1.0" stop-color="#231912"></stop>
    </linearGradient>
    <linearGradient gradientTransform="matrix(0.0, 0.0488, -0.1827, 0.0, 149.65, 40.0)" gradientUnits="userSpaceOnUse" id="gradient2" spreadMethod="pad" x1="-819.2" x2="819.2">
      <stop offset="0.0" stop-color="#c0271e"></stop>
      <stop offset="1.0" stop-color="#231912"></stop>
    </linearGradient>
    <linearGradient gradientTransform="matrix(0.0, 0.058, -0.1193, 0.0, 150.35, 136.8)" gradientUnits="userSpaceOnUse" id="gradient3" spreadMethod="pad" x1="-819.2" x2="819.2">
      <stop offset="0.0" stop-color="#c0271e"></stop>
      <stop offset="1.0" stop-color="#231912"></stop>
    </linearGradient>
  </defs>
</svg>