<?xml version="1.0" encoding="UTF-8" standalone="no"?>
<svg xmlns:xlink="http://www.w3.org/1999/xlink" height="262.15px" width="300.5px" xmlns="http://www.w3.org/2000/svg">
  <g transform="matrix(1.0, 0.0, 0.0, 1.0, 1, 76.8)">
    <path d="M210.2 120.05 Q210.6 121.3 210.45 123.2 210.6 124.5 212.5 124.5 212.85 124.5 213.05 124.3 L213.45 123.85 214.3 124.6 214.3 131.25 214.75 130.6 217.1 135.95 Q218.8 131.6 220.25 129.0 L220.25 143.55 Q220.9 142.6 221.4 141.05 L221.4 140.95 Q222.2 138.35 222.2 136.4 L222.4 136.65 222.85 136.8 Q223.45 136.8 223.85 133.55 L224.45 128.3 224.55 128.9 224.45 129.25 225.0 130.0 225.35 131.0 Q225.2 131.85 225.2 133.85 225.4 137.3 225.8 139.6 225.85 140.65 226.25 141.6 226.9 143.85 227.85 143.85 L230.1 145.85 Q231.35 145.2 231.95 141.45 232.25 140.4 232.2 138.95 L232.3 136.9 232.15 135.35 Q232.25 133.7 232.75 132.85 L233.35 133.1 233.1 136.2 Q233.1 137.05 233.65 137.8 L234.55 139.05 234.85 142.35 235.45 142.5 235.65 142.5 Q235.85 143.9 236.2 144.65 236.5 145.05 236.95 145.05 L237.15 145.6 237.45 145.65 Q238.15 145.65 239.05 144.6 L240.0 143.35 240.65 143.9 240.8 144.05 Q241.1 144.65 241.45 144.65 L242.0 144.55 242.0 144.0 242.05 144.0 Q242.05 142.25 242.3 141.1 242.8 140.0 243.5 139.2 L242.95 142.75 Q242.95 146.6 242.6 150.05 L242.4 157.15 242.4 160.2 242.6 164.9 243.2 165.15 243.65 164.9 243.9 164.6 244.1 167.65 244.35 170.85 Q244.35 172.05 245.65 174.1 L245.8 174.4 Q246.4 177.7 246.9 178.85 L247.05 178.65 Q246.8 177.5 247.0 177.2 L247.1 177.35 247.45 177.5 Q248.0 178.55 248.0 179.6 248.0 180.6 247.85 180.2 L247.05 180.3 246.85 180.85 246.3 180.95 242.5 180.95 Q233.25 177.95 224.05 172.15 212.2 164.65 207.35 162.35 198.85 158.35 182.35 155.2 L159.1 150.95 145.65 150.95 108.9 155.85 Q92.5 158.4 86.45 160.1 80.9 161.65 75.85 165.3 71.45 168.45 69.2 171.8 67.6 174.2 63.45 178.3 57.4 184.35 53.95 184.35 53.3 184.35 53.15 183.85 L53.1 183.05 Q52.35 183.0 52.65 182.55 L52.8 180.85 53.7 179.9 53.8 179.95 Q55.1 179.95 56.1 177.5 56.95 175.4 56.95 173.55 L56.95 173.05 57.6 170.3 57.55 171.75 57.95 171.95 Q59.1 170.05 59.5 167.2 L59.9 162.3 Q60.1 160.35 59.95 156.55 L59.8 152.8 Q59.8 152.0 60.05 151.9 60.45 151.7 60.75 150.85 L60.8 150.6 61.15 153.9 Q61.25 154.65 62.65 155.0 63.85 155.25 63.6 156.35 63.55 156.55 64.05 156.55 L64.6 156.3 64.95 155.55 Q67.55 154.4 67.65 150.45 L67.75 146.75 67.75 145.7 67.8 145.6 67.8 145.8 Q67.85 146.45 68.15 146.75 68.45 147.05 69.0 147.05 L69.4 146.75 69.85 144.15 69.9 140.25 69.95 140.1 69.95 139.65 Q71.05 139.0 71.2 136.65 71.3 134.75 71.85 133.9 L72.25 133.45 Q72.35 133.65 72.95 133.65 L73.2 136.8 73.75 136.95 Q74.65 136.95 74.85 134.25 L75.15 130.5 Q75.1 131.8 75.85 133.9 76.9 136.75 76.95 138.05 L77.55 138.3 Q78.4 138.3 78.4 137.2 78.4 136.0 78.6 135.55 L78.7 135.35 Q79.2 136.4 81.35 136.4 L81.85 136.3 81.9 134.95 83.05 135.35 83.05 135.6 83.1 136.65 83.8 136.75 Q85.3 136.75 86.2 133.5 86.85 131.2 86.9 128.95 L87.35 129.1 Q87.85 128.9 87.85 128.45 L87.8 127.6 88.0 127.35 Q88.4 128.6 88.25 130.5 88.4 131.8 90.3 131.8 L90.85 131.6 91.25 131.15 92.1 131.9 93.0 132.4 Q93.5 132.4 94.55 131.5 L95.05 131.0 Q95.8 130.15 95.8 129.3 L96.4 129.55 Q96.85 129.55 97.0 129.0 L97.3 128.95 97.25 129.25 98.75 129.35 99.25 129.75 Q99.5 130.1 99.8 130.1 L100.3 129.8 100.6 129.5 100.95 129.7 Q101.1 129.9 101.35 129.9 102.0 129.9 102.1 129.4 L102.1 128.7 103.05 127.95 Q103.85 127.4 104.0 126.65 L103.85 126.0 103.9 125.45 Q103.65 122.75 103.8 121.55 L104.55 113.95 104.6 113.85 Q104.9 116.95 105.9 120.65 107.0 124.95 107.85 124.95 108.35 124.95 108.4 124.7 L108.5 124.15 Q108.8 124.7 109.15 124.85 L109.85 124.95 110.7 124.9 110.8 124.85 Q110.65 124.35 111.1 124.15 L112.0 123.55 Q112.65 126.5 113.55 126.5 L114.05 126.4 Q114.2 125.05 115.4 122.4 L115.6 123.5 Q115.9 124.4 116.4 124.4 117.25 124.4 117.5 123.25 L117.75 121.7 118.5 120.5 118.85 119.55 118.7 118.45 120.1 114.65 Q122.5 106.85 123.1 106.85 L124.0 107.05 124.35 107.15 Q124.35 106.15 124.75 105.15 125.3 103.8 126.35 103.8 127.45 103.8 127.65 105.05 L127.65 106.55 Q128.35 103.8 130.25 99.75 L133.65 93.25 Q137.4 86.7 141.25 90.85 142.05 91.7 145.3 97.9 147.1 101.4 151.05 113.85 154.95 124.55 158.55 124.55 161.5 124.55 165.0 117.25 168.5 109.9 168.8 109.9 169.95 109.9 170.35 111.6 L170.7 113.8 170.8 113.7 Q170.8 112.35 171.3 110.65 171.95 108.4 173.0 108.4 L173.9 108.65 174.05 108.85 174.15 109.6 174.3 109.5 Q174.75 108.05 175.3 106.95 L175.85 107.0 177.95 106.65 Q178.5 106.65 178.6 105.8 L178.65 104.85 178.7 104.85 178.75 106.4 Q178.85 107.6 179.6 107.6 180.3 107.6 180.5 106.65 L180.7 105.4 180.8 105.55 180.65 108.3 Q180.6 110.15 182.25 110.8 182.25 115.6 183.8 115.6 L184.35 115.45 Q184.9 116.75 185.85 116.55 L186.0 116.65 186.1 118.15 Q186.3 119.6 187.1 119.6 187.75 119.6 188.15 118.8 188.35 119.2 188.7 119.2 189.5 119.2 189.65 118.5 L189.65 117.5 Q190.6 117.95 190.65 119.15 190.7 120.15 191.3 120.15 192.3 120.15 192.6 118.95 L192.95 117.95 192.95 117.9 Q193.35 117.0 193.85 116.5 L194.7 117.1 Q194.45 118.5 194.45 120.4 194.35 124.85 194.75 126.35 L195.15 126.35 195.2 127.0 195.75 126.6 195.95 128.1 Q196.15 128.65 196.7 128.95 L197.05 126.95 197.35 123.2 Q197.3 124.5 198.05 126.6 L199.05 129.8 199.1 129.5 Q199.05 128.5 199.15 128.2 199.3 127.8 199.8 127.45 L200.55 126.55 200.7 124.75 201.3 123.9 201.8 123.55 202.55 122.75 203.5 122.8 203.55 122.85 Q203.55 124.05 204.0 125.25 L203.95 126.0 Q203.95 126.75 204.25 127.75 L205.25 128.05 205.25 128.3 205.3 129.35 206.0 129.45 Q207.5 129.45 208.4 126.2 209.05 123.9 209.1 121.65 L209.55 121.8 Q210.05 121.6 210.05 121.15 L210.0 120.3 210.2 120.05" fill="url(#gradient0)" fill-rule="evenodd" stroke="none"/>
    <path d="M285.35 40.4 Q286.35 40.4 286.9 39.55 L287.05 39.65 Q286.3 40.45 286.3 42.05 286.3 42.65 288.0 46.6 L288.35 47.35 Q289.75 50.65 290.1 50.65 291.3 50.65 291.6 48.75 L292.85 48.35 292.75 51.6 292.95 53.75 293.15 56.6 Q293.15 57.4 293.6 58.35 L293.35 61.85 Q293.35 65.75 293.55 66.35 294.0 67.65 297.35 71.95 L297.45 71.6 297.35 70.65 Q297.25 70.25 297.45 70.1 L297.75 70.1 Q298.5 71.2 298.5 73.05 L298.0 73.15 296.8 73.25 Q293.95 73.25 292.6 67.85 291.95 65.2 291.8 62.85 L290.1 65.4 Q287.65 68.95 287.05 70.95 286.05 74.15 282.35 76.85 278.2 80.0 273.35 80.0 269.6 80.0 263.0 78.4 L262.2 78.6 250.3 78.7 247.55 78.2 240.0 77.7 228.45 76.7 223.25 76.15 211.45 76.05 210.05 75.8 180.6 75.7 178.9 75.45 159.65 75.35 149.45 74.8 133.65 74.8 132.25 75.05 105.4 75.2 63.6 73.85 42.45 72.15 22.8 72.25 10.3 73.3 Q8.25 73.7 6.15 74.55 L4.35 76.35 Q2.75 78.0 1.2 78.0 L0.65 77.9 0.3 77.9 0.0 77.9 0.8 76.95 3.25 73.35 Q4.1 72.1 4.6 70.35 5.1 68.4 5.5 67.4 6.4 65.05 6.85 61.6 L7.5 55.6 Q8.4 58.45 9.25 58.45 10.5 58.45 10.8 55.45 L11.35 50.55 Q11.6 49.75 12.8 48.6 13.95 47.55 14.05 46.85 L14.05 46.7 14.6 46.0 15.6 44.3 16.25 42.9 Q16.8 39.75 17.15 34.8 L17.7 27.25 17.9 27.25 17.9 31.25 Q17.9 32.15 18.15 33.05 18.6 34.75 19.8 34.8 L20.0 36.0 Q20.45 36.7 21.75 36.7 L22.75 36.55 23.5 36.05 23.65 35.85 24.3 35.6 24.8 35.7 Q25.95 35.7 26.8 34.15 L27.8 31.7 28.25 29.55 28.75 28.55 29.25 27.6 29.75 27.5 30.05 28.95 Q30.3 29.9 31.65 29.65 L32.2 31.1 32.2 35.75 33.3 35.75 33.85 34.15 Q34.5 31.85 34.55 29.6 L35.0 29.75 35.5 29.1 35.45 28.25 35.65 28.0 Q36.05 29.25 35.9 31.15 36.05 32.45 37.95 32.45 L38.5 32.25 38.9 31.8 40.65 33.05 Q41.15 33.05 42.2 32.15 43.45 31.05 43.45 29.95 L44.05 30.2 44.65 29.65 44.95 29.6 44.9 29.9 46.4 30.0 46.9 30.4 47.45 30.75 47.95 30.45 48.25 30.15 Q48.5 30.15 48.6 30.35 48.75 30.55 49.0 30.55 49.65 30.55 49.75 30.05 L49.75 29.35 50.7 28.6 Q51.5 28.05 51.65 27.3 L51.5 26.65 51.55 26.1 Q51.3 23.4 51.45 22.2 L52.2 14.6 52.25 14.5 Q52.55 17.6 53.55 21.3 54.65 25.6 55.5 25.6 L56.05 25.35 56.15 24.8 56.8 25.5 57.5 25.6 59.4 25.65 61.8 29.8 62.35 29.75 62.4 29.35 63.55 29.5 63.8 28.1 64.3 27.1 64.8 26.15 65.3 26.05 65.6 27.5 65.9 28.0 67.2 28.2 68.0 30.1 68.05 29.75 68.05 27.25 Q68.05 26.65 68.9 25.2 69.65 23.9 69.45 23.3 L70.35 23.2 Q70.25 23.85 70.6 25.25 L71.0 27.65 71.25 27.8 71.25 34.35 Q72.3 33.45 72.45 28.9 L75.05 33.4 75.6 33.35 75.65 32.95 76.8 33.1 77.05 31.7 77.55 30.7 78.05 29.75 78.55 29.65 78.85 31.1 79.15 31.6 Q79.55 31.95 80.45 31.8 L81.25 33.7 81.3 33.35 81.3 30.85 Q81.3 30.25 82.15 28.8 82.9 27.5 82.7 26.9 L83.6 26.8 Q83.5 27.45 83.85 28.85 L84.25 31.25 Q84.15 31.4 84.5 31.4 L84.65 31.4 Q84.95 31.4 85.1 31.2 L85.15 31.05 Q85.8 32.25 87.45 32.35 L87.9 32.4 87.9 32.3 Q88.7 29.7 88.7 27.75 L88.9 28.0 89.35 28.15 Q89.95 28.15 90.35 24.9 L90.95 19.65 91.05 20.25 90.95 20.6 91.5 21.35 91.85 22.35 Q91.7 23.2 91.7 25.2 91.9 28.65 92.3 30.95 92.35 32.0 92.75 32.95 93.4 35.2 94.35 35.2 L97.25 37.75 97.75 37.65 97.8 36.6 98.25 36.75 98.4 37.0 98.8 37.65 Q99.15 38.05 99.6 38.05 L99.85 38.0 99.85 37.7 100.05 37.95 100.9 37.5 102.7 36.0 103.45 36.4 103.95 37.7 104.75 39.1 105.4 38.55 106.1 38.75 Q107.0 38.75 108.5 36.25 L108.95 35.5 108.95 35.2 109.0 35.1 109.05 35.35 109.6 34.6 109.6 39.8 109.75 41.55 Q110.4 45.75 112.2 45.75 L112.25 45.75 Q113.65 46.9 116.1 46.9 L117.55 46.6 117.9 46.6 Q118.8 46.6 120.25 44.3 L122.05 40.8 122.1 40.8 Q122.0 42.1 123.15 42.1 L123.7 41.95 124.1 41.55 124.3 42.3 Q124.6 42.9 125.35 42.55 L125.4 42.55 125.65 42.8 Q126.3 44.1 127.15 44.45 L127.9 44.3 127.95 44.05 129.75 44.3 129.85 44.3 130.55 44.75 Q131.75 44.75 132.35 43.8 132.75 43.15 132.75 42.45 134.3 42.35 134.55 40.15 L134.5 37.8 134.35 37.0 134.65 36.55 Q134.7 37.0 135.2 37.75 135.75 38.65 136.0 38.65 L136.5 38.5 136.7 38.3 138.35 40.45 Q139.5 41.8 139.9 41.8 140.8 41.8 140.9 41.2 L141.4 41.5 141.6 41.8 141.65 42.0 Q142.2 43.65 143.25 43.65 L145.0 43.35 146.3 43.1 147.0 43.0 147.0 41.7 Q149.0 40.85 149.4 38.7 149.85 36.15 150.6 35.5 L150.9 39.05 Q152.4 39.2 152.95 40.45 153.45 41.65 154.1 41.65 L154.55 41.55 154.75 41.3 155.0 42.0 155.9 42.5 Q157.3 42.5 157.5 39.85 L157.55 36.4 157.7 36.45 157.8 37.75 Q157.95 39.05 158.55 39.85 L158.85 39.45 158.85 40.35 Q159.05 42.95 160.1 42.95 160.4 42.95 161.35 41.15 L162.25 39.0 163.15 39.0 Q163.55 39.65 164.1 39.65 164.8 39.65 165.05 39.05 L165.85 39.05 166.55 39.5 167.2 35.2 167.6 30.45 167.85 26.8 167.8 25.85 Q168.45 26.75 168.55 27.9 168.5 28.1 169.0 28.1 170.3 28.1 170.6 25.5 L170.65 22.85 170.55 21.05 171.6 23.15 171.45 24.35 171.5 25.2 171.8 25.2 172.35 25.15 173.1 29.75 Q173.7 32.9 174.75 32.9 175.75 32.9 175.8 32.05 L175.8 31.95 175.95 32.25 176.35 34.05 177.35 37.1 Q177.75 38.05 181.35 41.65 L181.95 42.3 182.05 42.3 182.4 42.65 183.0 42.45 183.25 42.3 183.95 42.3 184.1 42.45 184.55 42.65 Q185.85 42.65 186.2 40.85 L186.25 39.4 186.8 39.2 187.55 41.5 187.55 39.75 188.3 39.25 188.45 39.05 189.1 38.8 189.6 38.9 Q190.75 38.9 191.6 37.35 L192.6 34.9 192.8 34.15 193.05 32.75 193.55 31.75 194.05 30.8 194.55 30.7 194.85 32.15 Q195.1 33.1 196.45 32.85 L197.25 34.75 197.4 35.05 198.15 33.6 198.3 35.35 198.25 36.3 Q199.05 37.35 199.8 37.35 L200.3 37.35 200.45 37.3 200.5 37.3 201.0 37.25 201.6 37.3 201.85 36.85 Q203.1 35.95 203.9 33.45 L203.9 33.35 Q204.7 30.75 204.7 28.8 L204.9 29.05 205.35 29.2 Q205.95 29.2 206.35 25.95 L206.95 20.7 207.05 21.3 206.95 21.65 Q206.95 21.95 207.5 22.4 L207.85 23.4 Q207.7 24.25 207.7 26.25 207.9 29.7 208.3 32.0 208.35 33.05 208.75 34.0 209.4 36.25 210.35 36.25 L212.6 38.25 Q213.85 37.6 214.45 33.85 214.75 32.8 214.7 31.35 L214.8 29.3 214.65 27.75 Q214.75 26.1 215.25 25.25 L215.85 25.5 215.6 28.6 Q215.6 29.45 216.15 30.2 L217.05 31.45 217.35 34.75 217.95 34.9 218.15 34.9 Q218.35 36.3 218.7 37.05 L219.45 37.45 219.65 38.0 219.95 38.05 Q220.65 38.05 221.55 37.0 L222.5 35.75 223.15 36.3 223.3 36.45 Q223.6 37.05 223.95 37.05 L224.5 36.95 224.5 36.4 224.55 36.4 224.9 36.4 225.0 36.3 225.25 36.1 225.35 35.75 225.5 35.85 225.6 35.65 225.6 35.9 226.15 36.05 Q226.4 36.7 227.1 36.7 227.9 36.7 228.0 36.35 L227.95 35.9 228.25 35.75 228.35 35.75 228.75 35.55 229.1 36.2 229.7 36.7 230.2 36.65 230.25 36.2 229.8 35.55 230.05 35.6 Q230.65 35.15 230.75 34.55 L230.8 33.4 230.75 32.05 231.05 31.2 232.6 29.9 233.35 30.3 233.3 30.55 Q233.6 33.1 234.9 33.55 235.4 33.15 235.4 32.6 L235.3 32.1 235.65 32.1 235.7 32.1 Q236.45 33.1 237.0 33.1 L237.95 33.05 238.1 33.0 238.2 32.85 238.25 32.85 238.3 31.95 245.05 31.95 245.05 26.6 246.2 26.65 Q246.4 27.5 247.0 28.55 L247.15 28.85 247.4 29.25 248.0 30.1 Q248.8 31.15 249.55 31.15 L250.2 31.1 250.25 31.1 250.75 31.05 251.35 31.1 251.6 30.65 252.0 30.35 252.0 29.9 252.0 29.7 252.4 29.3 252.4 29.85 Q253.1 28.9 253.65 27.25 L253.65 27.15 Q254.45 24.55 254.45 22.6 L254.65 22.85 255.1 23.0 Q255.7 23.0 256.1 19.75 L256.7 14.5 256.8 15.1 256.7 15.45 257.25 16.2 257.6 17.2 Q257.45 18.05 257.45 20.05 257.65 23.5 258.05 25.8 258.1 26.85 258.5 27.8 259.15 30.05 260.1 30.05 L262.35 32.05 263.0 32.6 263.5 32.5 263.55 31.45 264.0 31.6 264.15 31.85 Q264.65 32.9 265.35 32.9 L265.6 32.85 265.8 32.8 266.1 32.65 266.1 31.1 266.1 29.35 266.3 28.5 Q267.0 25.85 267.5 25.2 L267.25 26.85 266.85 29.7 267.1 32.1 Q268.0 31.55 268.45 30.85 L269.05 31.25 269.2 31.25 269.4 31.8 269.7 32.55 270.5 33.95 271.15 33.4 271.85 33.6 Q272.75 33.6 274.25 31.1 L274.7 30.35 274.8 30.2 275.25 29.65 275.35 29.45 275.35 39.35 275.4 39.35 275.55 39.25 275.65 38.25 275.55 37.85 275.65 37.95 276.8 38.4 277.9 38.3 277.9 38.35 278.0 39.5 279.05 39.75 279.95 39.7 280.1 39.6 280.2 38.8 280.15 38.35 280.45 38.0 280.95 36.85 Q280.95 36.2 280.4 36.2 L280.85 35.4 280.9 34.9 280.95 34.85 Q281.5 33.4 281.65 32.0 L282.85 29.45 283.5 33.6 283.25 35.5 Q283.25 36.75 283.65 38.25 284.25 40.4 285.35 40.4" fill="url(#gradient1)" fill-rule="evenodd" stroke="none"/>
    <path d="M19.8 -58.4 L20.0 -57.5 Q20.0 -55.9 19.25 -54.5 L19.25 -54.35 18.25 -54.5 18.15 -56.35 18.35 -57.55 Q18.6 -58.1 19.45 -58.65 L19.8 -58.4 M62.2 -30.05 L61.65 -29.4 60.3 -29.4 60.0 -32.0 59.75 -34.2 Q59.75 -35.45 60.0 -36.35 L61.25 -35.3 62.2 -34.0 62.2 -30.05 M161.3 -62.75 L162.1 -62.85 Q162.85 -62.5 162.95 -61.95 162.85 -61.2 162.1 -60.95 L161.2 -61.5 161.3 -62.75 M97.2 -56.25 Q96.9 -56.0 96.45 -55.9 L95.7 -56.7 Q95.55 -57.1 95.55 -57.95 L95.65 -59.75 96.65 -59.85 97.2 -59.15 97.35 -58.1 97.2 -56.25 M129.6 -43.25 L129.6 -45.8 131.05 -45.65 131.15 -44.25 131.05 -43.1 130.6 -42.3 Q129.9 -42.3 129.6 -43.25 M153.5 -23.45 L154.1 -22.0 154.5 -20.5 154.3 -20.05 Q154.2 -19.85 153.5 -19.85 L152.6 -19.95 152.55 -20.05 152.5 -20.4 152.4 -21.35 Q152.4 -22.5 152.55 -23.4 L153.5 -23.45 M239.55 -65.2 L239.75 -64.1 Q239.75 -62.95 238.65 -61.85 L237.4 -61.95 237.3 -63.1 Q237.3 -63.55 237.65 -64.35 238.05 -65.4 238.75 -65.9 L239.55 -65.2 M201.6 -75.35 L201.75 -74.35 201.65 -73.2 Q201.4 -73.2 201.2 -72.65 L200.1 -72.75 199.95 -74.45 200.1 -75.7 201.15 -75.8 201.6 -75.35 M194.7 -38.6 L194.6 -36.75 Q194.25 -36.55 193.8 -36.45 L193.1 -38.45 Q192.5 -40.05 192.5 -40.8 192.5 -44.1 193.6 -44.35 194.7 -40.45 194.7 -38.6 M234.25 -38.9 L234.45 -37.85 234.3 -36.6 233.7 -35.65 Q232.45 -36.7 232.45 -37.65 232.45 -39.15 233.45 -39.5 L234.25 -38.9 M18.3 4.75 Q17.55 3.75 17.55 2.4 L17.6 0.25 Q17.85 -1.2 18.7 -1.15 L19.45 0.75 19.45 4.35 18.85 4.75 18.3 4.75" fill="url(#gradient2)" fill-rule="evenodd" stroke="none"/>
    <path d="M198.85 91.55 L199.05 92.05 198.9 93.2 Q198.65 93.6 197.85 93.65 L197.5 93.2 197.3 92.15 Q197.3 91.45 197.6 91.2 L198.2 91.0 198.85 91.55 M216.6 93.0 L215.55 93.45 215.1 93.15 215.1 90.45 216.05 90.35 216.6 91.0 216.6 93.0 M215.25 135.45 L215.25 123.3 Q216.3 123.05 217.7 123.9 L217.7 130.1 218.3 134.75 Q218.7 138.9 219.6 141.15 L219.35 141.85 Q220.05 142.2 218.9 142.2 217.35 142.2 216.6 137.5 L216.5 136.5 215.9 136.05 215.25 135.45 M208.85 129.65 L208.65 131.4 208.45 133.25 207.45 133.8 Q206.75 133.1 206.55 131.3 L206.45 128.6 Q206.45 124.45 207.45 123.45 208.05 124.15 208.5 126.35 L208.85 129.65 M201.05 124.9 L200.4 125.75 199.9 125.55 199.8 124.7 Q199.8 123.95 200.0 123.85 L200.6 123.9 201.05 124.9 M66.3 93.65 L66.6 95.3 66.6 97.65 65.6 98.15 Q64.15 96.4 64.15 94.3 64.15 92.9 65.15 92.45 66.1 93.0 66.3 93.65 M68.75 131.25 L68.2 131.95 66.9 131.95 66.8 130.75 Q66.8 128.75 68.0 128.3 68.55 129.3 68.75 131.25 M69.65 146.75 L69.55 148.85 68.65 149.2 Q67.85 148.3 67.5 146.75 L67.2 144.65 67.25 139.55 Q67.25 138.85 67.6 138.6 L68.2 138.4 Q69.0 139.2 69.4 141.35 L69.65 144.25 69.65 146.75" fill="url(#gradient3)" fill-rule="evenodd" stroke="none"/>
    <path d="M234.75 19.55 L234.1 20.3 233.25 20.3 233.15 19.15 Q233.15 18.8 233.55 18.2 234.0 17.5 234.55 17.35 L235.0 17.65 235.1 18.5 234.75 19.55 M197.25 20.25 L197.1 21.6 196.0 21.95 Q195.3 21.65 195.1 21.1 L195.0 20.05 Q195.0 19.6 195.6 18.25 196.2 16.8 196.65 16.65 197.45 17.7 197.45 18.9 L197.25 20.25 M131.4 24.1 L131.15 28.25 130.95 28.35 130.8 28.55 129.6 28.45 129.15 22.05 Q129.15 20.7 130.15 20.7 L131.15 22.45 131.4 24.1 M96.9 10.7 L96.8 13.05 Q96.65 13.05 96.45 13.4 L95.45 13.4 Q95.1 12.25 95.1 10.7 95.1 9.05 95.85 7.55 96.35 8.2 96.65 9.3 L96.9 10.7 M18.85 4.75 L18.45 4.95 18.3 4.75 18.85 4.75" fill="url(#gradient4)" fill-rule="evenodd" stroke="none"/>
  </g>
  <defs>
    <linearGradient gradientTransform="matrix(0.0, 0.058, 0.1193, 0.0, 150.25, 136.8)" gradientUnits="userSpaceOnUse" id="gradient0" spreadMethod="pad" x1="-819.2" x2="819.2">
      <stop offset="0.0" stop-color="#c0271e"></stop>
      <stop offset="1.0" stop-color="#231912"></stop>
    </linearGradient>
    <linearGradient gradientTransform="matrix(0.0, 0.0424, 0.1827, 0.0, 148.85, 45.25)" gradientUnits="userSpaceOnUse" id="gradient1" spreadMethod="pad" x1="-819.2" x2="819.2">
      <stop offset="0.0" stop-color="#c0271e"></stop>
      <stop offset="1.0" stop-color="#231912"></stop>
    </linearGradient>
    <linearGradient gradientTransform="matrix(0.0, 0.0488, -0.1827, 0.0, 149.65, 40.0)" gradientUnits="userSpaceOnUse" id="gradient2" spreadMethod="pad" x1="-819.2" x2="819.2">
      <stop offset="0.0" stop-color="#c0271e"></stop>
      <stop offset="1.0" stop-color="#231912"></stop>
    </linearGradient>
    <linearGradient gradientTransform="matrix(0.0, 0.058, -0.1193, 0.0, 150.35, 136.8)" gradientUnits="userSpaceOnUse" id="gradient3" spreadMethod="pad" x1="-819.2" x2="819.2">
      <stop offset="0.0" stop-color="#c0271e"></stop>
      <stop offset="1.0" stop-color="#231912"></stop>
    </linearGradient>
    <linearGradient gradientTransform="matrix(0.0, 0.0424, 0.1827, 0.0, 148.85, 45.25)" gradientUnits="userSpaceOnUse" id="gradient4" spreadMethod="pad" x1="-819.2" x2="819.2">
      <stop offset="0.0" stop-color="#c0271e"></stop>
      <stop offset="1.0" stop-color="#231912"></stop>
    </linearGradient>
  </defs>
</svg>