<?xml version="1.0" encoding="UTF-8" standalone="no"?>
<svg xmlns:xlink="http://www.w3.org/1999/xlink" height="48px" width="34.6px" xmlns="http://www.w3.org/2000/svg">
  <g transform="matrix(1.0, 0.0, 0.0, 1.0, 42.65, 4.4)">
    <path d="M-13.9 13.65 Q-16.25 12.1 -19.3 12.1 -21.9 12.1 -24.15 13.8 -26.6 15.65 -26.6 18.25 -26.6 21.05 -24.5 22.85 -22.15 24.85 -17.75 24.85 L-14.45 24.3 -11.7 30.7 -16.15 26.8 -22.65 42.6 -25.2 25.5 -37.1 31.2 -29.5 20.8 -41.65 13.7 -28.3 13.1 -30.95 3.35 -22.25 9.2 -15.75 -3.4 -14.0 10.8 -9.05 6.9 -12.4 14.85 -13.9 13.65" fill="#ffffff" fill-rule="evenodd" stroke="none"/>
  </g>
</svg>