<?xml version="1.0" encoding="UTF-8" standalone="no"?>
<svg xmlns:xlink="http://www.w3.org/1999/xlink" height="56.4px" width="40.55px" xmlns="http://www.w3.org/2000/svg">
  <g transform="matrix(1.0, 0.0, 0.0, 1.0, 43.7, 8.6)">
    <path d="M-4.15 4.6 L-7.4 12.4 Q-8.0 11.85 -8.65 11.5 -11.9 9.3 -16.25 9.3 -19.9 9.3 -23.05 11.7 -26.5 14.3 -26.5 18.0 -26.5 21.95 -23.55 24.45 -20.25 27.3 -14.05 27.3 L-9.9 26.7 -7.3 32.75 -12.55 28.15 -20.25 46.8 -23.25 26.6 -37.3 33.35 -28.35 21.05 -42.7 12.65 -26.9 11.95 -30.05 0.4 -19.75 7.3 -12.1 -7.6 -10.0 9.2 -4.15 4.6" fill="#ffffff" fill-rule="evenodd" stroke="none"/>
  </g>
</svg>