<?xml version="1.0" encoding="UTF-8" standalone="no"?>
<svg xmlns:xlink="http://www.w3.org/1999/xlink" height="71.4px" width="51.15px" xmlns="http://www.w3.org/2000/svg">
  <g transform="matrix(1.0, 0.0, 0.0, 1.0, 49.2, 14.45)">
    <path d="M-5.65 7.35 L0.95 2.15 -2.2 9.7 Q-4.0 8.1 -5.65 7.35 M-14.15 5.7 Q-19.8 5.7 -24.6 9.45 -29.95 13.45 -29.95 19.1 -29.95 25.2 -25.4 29.1 L-23.7 30.35 -41.35 38.8 -29.9 23.1 -48.2 12.4 -28.05 11.5 -32.1 -3.25 -18.95 5.55 -9.2 -13.45 -6.6 7.0 Q-10.1 5.7 -14.15 5.7 M-3.05 38.05 L-8.4 33.35 -5.35 32.75 -3.05 38.05 M-10.3 33.5 L-19.6 55.95 -23.35 30.6 Q-18.55 33.5 -10.7 33.5 L-10.3 33.5" fill="#ffffff" fill-rule="evenodd" stroke="none"/>
  </g>
</svg>