<?xml version="1.0" encoding="UTF-8" standalone="no"?>
<svg xmlns:xlink="http://www.w3.org/1999/xlink" height="25.2px" width="24.55px" xmlns="http://www.w3.org/2000/svg">
  <g transform="matrix(1.0, 0.0, 0.0, 1.0, -1.35, 1.2)">
    <path d="M4.25 2.05 Q14.25 -2.15 22.2 1.55 L20.8 1.8 Q14.25 -1.2 5.45 2.05 L4.25 2.05 M10.4 15.3 L10.45 15.2 10.55 15.15 10.6 15.1 10.65 15.15 11.0 15.7 11.3 16.45 11.15 16.7 10.7 16.15 10.3 15.7 10.4 15.3 M10.65 18.05 Q10.65 17.8 10.95 17.6 L11.65 16.95 12.3 18.35 11.8 17.75 11.35 18.3 11.85 19.15 12.65 20.2 13.8 18.25 13.7 17.75 12.9 18.35 13.8 16.85 14.3 17.25 14.65 17.7 12.8 20.95 12.7 20.85 11.65 19.6 10.65 18.05 M15.2 15.55 L15.2 15.9 14.95 16.35 14.5 16.85 14.05 16.85 14.2 16.5 14.8 15.75 Q15.0 15.5 15.2 15.55 M15.25 17.7 L15.25 17.55 15.6 17.0 15.7 16.9 15.9 16.75 16.7 16.8 16.7 17.0 Q15.6 17.7 15.25 17.7 M9.45 16.25 Q9.9 16.2 10.05 16.5 L10.45 17.1 10.45 17.4 Q10.1 17.5 9.9 17.05 L9.45 16.25" fill="#decdbd" fill-rule="evenodd" stroke="none"/>
    <path d="M14.7 8.2 L14.9 8.3 14.85 8.5 12.85 8.85 Q11.9 8.85 11.85 8.5 L12.2 8.3 12.85 8.35 14.65 8.2 14.7 8.2 M10.35 8.35 L10.35 8.4 Q10.35 8.6 9.9 8.6 9.0 8.6 8.95 8.05 L9.1 8.05 10.35 8.35" fill="#fcd3ab" fill-rule="evenodd" stroke="none"/>
    <path d="M20.3 6.95 L19.0 8.9 15.95 9.35 13.05 9.65 Q12.9 10.25 12.9 11.4 12.3 11.2 12.25 10.45 12.15 9.4 11.7 9.4 L10.2 9.45 8.4 9.4 7.15 8.55 6.35 7.6 5.8 6.8 6.25 6.1 7.8 4.05 Q8.35 3.6 8.75 3.6 9.3 3.6 9.3 4.6 L9.1 5.7 8.9 7.1 8.95 7.45 8.65 7.6 8.0 8.15 8.95 8.05 Q9.0 8.6 9.9 8.6 10.35 8.6 10.35 8.4 L10.35 8.35 10.5 8.55 10.55 8.6 Q10.7 8.9 11.1 8.9 L11.65 8.6 11.85 8.5 Q11.9 8.85 12.85 8.85 L14.85 8.5 14.9 8.3 14.7 8.2 16.3 8.05 17.8 7.9 16.6 7.65 15.4 7.35 16.6 5.85 Q18.15 3.85 16.45 2.5 L17.9 3.75 19.2 5.45 20.3 6.95" fill="#ecab6c" fill-rule="evenodd" stroke="none"/>
    <path d="M12.9 11.4 L12.9 11.85 Q11.65 12.3 11.5 11.25 L11.35 9.7 10.5 9.5 10.2 9.45 11.7 9.4 Q12.15 9.4 12.25 10.45 12.3 11.2 12.9 11.4 M16.45 2.5 Q18.15 3.85 16.6 5.85 L15.4 7.35 16.6 7.65 17.8 7.9 16.3 8.05 14.7 8.2 14.65 8.2 12.85 8.35 12.2 8.3 11.85 8.5 11.65 8.6 11.1 8.9 Q10.7 8.9 10.55 8.6 L10.5 8.55 10.35 8.35 9.1 8.05 8.95 8.05 8.0 8.15 8.65 7.6 8.95 7.45 8.9 7.1 9.1 5.7 9.3 4.6 Q9.3 3.6 8.75 3.6 8.35 3.6 7.8 4.05 L8.15 3.65 Q11.7 -0.8 16.45 2.5" fill="#c48c56" fill-rule="evenodd" stroke="none"/>
    <path d="M20.8 1.8 L20.85 3.65 20.75 5.45 20.3 6.95 19.2 5.45 17.9 3.75 16.45 2.5 Q11.7 -0.8 8.15 3.65 L7.8 4.05 6.25 6.1 5.8 6.8 Q5.55 6.1 5.45 4.4 5.3 2.1 5.45 2.05 14.25 -1.2 20.8 1.8 M12.9 11.85 Q12.85 12.55 11.75 12.5 10.6 12.45 10.3 11.2 10.1 10.0 10.2 9.45 L10.5 9.5 11.35 9.7 11.5 11.25 Q11.65 12.3 12.9 11.85" fill="url(#gradient0)" fill-rule="evenodd" stroke="none"/>
    <path d="M22.3 4.35 Q22.35 6.65 21.6 8.15 L21.6 8.25 Q22.45 7.45 23.3 5.7 23.75 6.5 23.45 7.95 23.15 9.4 22.2 11.1 L20.65 13.45 Q19.6 14.7 17.55 14.55 L14.6 14.0 Q13.65 13.55 12.7 13.55 L10.95 13.85 8.2 13.7 6.7 13.1 Q2.25 10.15 3.35 5.8 3.85 7.1 4.55 7.15 4.15 6.5 4.1 5.55 L4.1 4.5 4.1 4.45 4.25 2.05 5.45 2.05 Q5.3 2.1 5.45 4.4 5.55 6.1 5.8 6.8 L6.35 7.6 7.15 8.55 8.4 9.4 10.2 9.45 Q10.1 10.0 10.3 11.2 10.6 12.45 11.75 12.5 12.85 12.55 12.9 11.85 L12.9 11.4 Q12.9 10.25 13.05 9.65 L15.95 9.35 19.0 8.9 20.3 6.95 20.75 5.45 20.85 3.65 20.8 1.8 22.2 1.55 22.3 4.25 22.3 4.35 M22.1 15.7 L22.45 16.65 22.45 16.7 Q21.15 18.95 19.3 20.3 16.55 22.3 13.6 22.0 10.6 21.65 8.7 19.95 7.75 19.05 7.25 17.85 L6.85 16.55 6.95 16.15 Q7.2 15.4 7.5 15.4 L9.2 15.55 10.0 15.5 10.35 15.3 10.4 15.3 10.3 15.7 10.7 16.15 11.15 16.7 11.3 16.45 11.0 15.7 10.65 15.15 10.85 15.1 12.75 14.85 Q14.55 14.85 16.35 15.8 18.1 16.7 19.05 16.7 L20.45 16.05 Q21.35 15.4 21.7 15.4 L21.95 15.5 22.1 15.7 M9.45 16.25 L9.9 17.05 Q10.1 17.5 10.45 17.4 L10.45 17.1 10.05 16.5 Q9.9 16.2 9.45 16.25 M15.25 17.7 Q15.6 17.7 16.7 17.0 L16.7 16.8 15.9 16.75 15.7 16.9 15.6 17.0 15.25 17.55 15.25 17.7 M15.2 15.55 Q15.0 15.5 14.8 15.75 L14.2 16.5 14.05 16.85 14.5 16.85 14.95 16.35 15.2 15.9 15.2 15.55 M10.65 18.05 L11.65 19.6 12.7 20.85 12.8 20.95 14.65 17.7 14.3 17.25 13.8 16.85 12.9 18.35 13.7 17.75 13.8 18.25 12.65 20.2 11.85 19.15 11.35 18.3 11.8 17.75 12.3 18.35 11.65 16.95 10.95 17.6 Q10.65 17.8 10.65 18.05" fill="url(#gradient1)" fill-rule="evenodd" stroke="none"/>
    <path d="M5.85 13.3 Q4.65 12.6 3.75 11.7 2.5 10.4 2.4 8.65 2.25 6.9 2.55 5.9 2.85 4.9 4.1 4.5 L4.1 5.55 Q4.15 6.5 4.55 7.15 3.85 7.1 3.35 5.8 2.25 10.15 6.7 13.1 L5.85 13.3" fill="url(#gradient2)" fill-rule="evenodd" stroke="none"/>
    <path d="M21.6 14.6 L21.55 14.6 21.6 14.6" fill="url(#gradient3)" fill-rule="evenodd" stroke="none"/>
    <path d="M22.45 16.7 L23.0 17.35 22.8 18.1 21.9 19.4 Q18.75 23.5 13.1 22.95 L11.05 22.6 9.95 22.1 8.8 21.4 Q7.55 20.5 6.7 18.65 6.05 17.1 6.15 16.8 L6.4 15.9 6.65 15.6 6.85 16.55 7.25 17.85 Q7.75 19.05 8.7 19.95 10.6 21.65 13.6 22.0 16.55 22.3 19.3 20.3 21.15 18.95 22.45 16.7" fill="url(#gradient4)" fill-rule="evenodd" stroke="none"/>
    <path d="M20.65 13.45 L22.05 13.7 21.65 14.45 21.6 14.6 22.0 15.45 22.1 15.7 21.95 15.5 21.7 15.4 Q21.35 15.4 20.45 16.05 L19.05 16.7 Q18.1 16.7 16.35 15.8 14.55 14.85 12.75 14.85 L10.85 15.1 10.65 15.15 10.6 15.1 10.55 15.15 10.45 15.2 10.4 15.3 10.35 15.3 10.0 15.5 9.2 15.55 7.5 15.4 Q7.2 15.4 6.95 16.15 L6.85 16.55 6.65 15.6 6.65 14.75 6.8 13.8 5.85 13.3 6.7 13.1 8.2 13.7 10.95 13.85 12.7 13.55 Q13.65 13.55 14.6 14.0 L17.55 14.55 Q19.6 14.7 20.65 13.45 M21.6 14.6 L21.55 14.6 21.6 14.6" fill="url(#gradient5)" fill-rule="evenodd" stroke="none"/>
    <path d="M22.3 4.35 L22.4 4.35 Q23.9 4.35 24.5 4.8 25.2 6.45 24.6 8.65 24.0 10.85 22.05 13.7 L20.65 13.45 22.2 11.1 Q23.15 9.4 23.45 7.95 23.75 6.5 23.3 5.7 22.45 7.45 21.6 8.25 L21.6 8.15 Q22.35 6.65 22.3 4.35" fill="url(#gradient6)" fill-rule="evenodd" stroke="none"/>
    <path d="M16.45 2.5 L17.9 3.75 19.2 5.45 20.3 6.95 M17.8 7.9 L16.3 8.05 14.7 8.2 14.65 8.2 12.85 8.35 12.2 8.3 11.85 8.5 11.65 8.6 11.1 8.9 Q10.7 8.9 10.55 8.6 L10.5 8.55 10.35 8.35 9.1 8.05 8.95 8.05 8.0 8.15 M7.8 4.05 L6.25 6.1 5.8 6.8 M7.8 4.05 L8.15 3.65 Q11.7 -0.8 16.45 2.5" fill="none" stroke="#a16c2c" stroke-linecap="round" stroke-linejoin="round" stroke-width="1"/>
    <path d="M22.2 1.55 L20.8 1.8 M5.45 2.05 L4.25 2.05" fill="none" stroke="#ffebd9" stroke-linecap="round" stroke-linejoin="round" stroke-width="1"/>
    <path d="M22.05 13.7 Q24.0 10.85 24.6 8.65 25.2 6.45 24.5 4.8 23.9 4.35 22.4 4.35 L22.3 4.35 22.3 4.25 22.2 1.55 Q14.25 -2.15 4.25 2.05 L4.1 4.45 4.1 4.5 Q2.85 4.9 2.55 5.9 2.25 6.9 2.4 8.65 2.5 10.4 3.75 11.7 4.65 12.6 5.85 13.3 L6.8 13.8 6.65 14.75 6.65 15.6 6.4 15.9 6.15 16.8 Q6.05 17.1 6.7 18.65 7.55 20.5 8.8 21.4 L9.95 22.1 11.05 22.6 13.1 22.95 Q18.75 23.5 21.9 19.4 L22.8 18.1 23.0 17.35 22.45 16.7 22.45 16.65 22.1 15.7 22.0 15.45 21.6 14.6 21.55 14.6 21.6 14.6 M21.6 8.15 L21.6 8.25 M20.8 1.8 L20.85 3.65 20.75 5.45 20.3 6.95 19.0 8.9 15.95 9.35 13.05 9.65 Q12.9 10.25 12.9 11.4 L12.9 11.85 Q11.65 12.3 11.5 11.25 L11.35 9.7 10.5 9.5 10.2 9.45 8.4 9.4 7.15 8.55 6.35 7.6 5.8 6.8 Q5.55 6.1 5.45 4.4 5.3 2.1 5.45 2.05 M6.85 16.55 L6.65 15.6" fill="none" stroke="#5d554d" stroke-linecap="round" stroke-linejoin="round" stroke-opacity="0.49803922" stroke-width="1"/>
  </g>
  <defs>
    <linearGradient gradientTransform="matrix(0.0, -0.0033, 0.0017, 0.0, 40.95, -5.95)" gradientUnits="userSpaceOnUse" id="gradient0" spreadMethod="pad" x1="-819.2" x2="819.2">
      <stop offset="0.0" stop-color="#5d554d"></stop>
      <stop offset="0.9882352941176471" stop-color="#877e75"></stop>
    </linearGradient>
    <linearGradient gradientTransform="matrix(0.0024, 0.005, -0.0128, 0.0062, 16.85, 11.15)" gradientUnits="userSpaceOnUse" id="gradient1" spreadMethod="pad" x1="-819.2" x2="819.2">
      <stop offset="0.0" stop-color="#af9f8f"></stop>
      <stop offset="0.9882352941176471" stop-color="#857565"></stop>
    </linearGradient>
    <linearGradient gradientTransform="matrix(0.0011, 0.0043, -0.0111, 0.003, 13.25, 9.3)" gradientUnits="userSpaceOnUse" id="gradient2" spreadMethod="pad" x1="-819.2" x2="819.2">
      <stop offset="0.0" stop-color="#857565"></stop>
      <stop offset="1.0" stop-color="#5b544d"></stop>
    </linearGradient>
    <linearGradient gradientTransform="matrix(-0.0018, 0.0068, -0.0034, -9.0E-4, 24.7, 12.1)" gradientUnits="userSpaceOnUse" id="gradient3" spreadMethod="pad" x1="-819.2" x2="819.2">
      <stop offset="0.0" stop-color="#decdbd"></stop>
      <stop offset="1.0" stop-color="#9c8d7e"></stop>
    </linearGradient>
    <linearGradient gradientTransform="matrix(0.0083, -5.0E-4, 3.0E-4, 0.0048, 16.75, 18.9)" gradientUnits="userSpaceOnUse" id="gradient4" spreadMethod="pad" x1="-819.2" x2="819.2">
      <stop offset="0.0" stop-color="#decdbd"></stop>
      <stop offset="1.0" stop-color="#9c8d7e"></stop>
    </linearGradient>
    <linearGradient gradientTransform="matrix(0.0, -0.0012, 0.0103, 0.0, 14.3, 14.7)" gradientUnits="userSpaceOnUse" id="gradient5" spreadMethod="pad" x1="-819.2" x2="819.2">
      <stop offset="0.0" stop-color="#857565"></stop>
      <stop offset="1.0" stop-color="#5b544d"></stop>
    </linearGradient>
    <linearGradient gradientTransform="matrix(-0.0011, 0.0039, -0.002, -5.0E-4, 22.55, 9.05)" gradientUnits="userSpaceOnUse" id="gradient6" spreadMethod="pad" x1="-819.2" x2="819.2">
      <stop offset="0.0" stop-color="#857565"></stop>
      <stop offset="1.0" stop-color="#5b544d"></stop>
    </linearGradient>
  </defs>
</svg>