<?xml version="1.0" encoding="UTF-8" standalone="no"?>
<svg xmlns:xlink="http://www.w3.org/1999/xlink" height="17.75px" width="14.6px" xmlns="http://www.w3.org/2000/svg">
  <g transform="matrix(1.0, 0.0, 0.0, 1.0, -1.3, 1.35)">
    <path d="M7.2 1.15 L7.3 0.6 7.45 -0.25 10.6 -0.35 10.7 0.15 10.6 1.15 7.2 1.15" fill="#5ae090" fill-rule="evenodd" stroke="none"/>
    <path d="M10.7 3.45 L10.65 3.05 Q10.65 2.6 10.85 2.6 11.2 2.6 12.0 3.2 12.9 3.9 12.9 4.65 L12.75 5.1 12.65 5.25 12.4 5.3 Q10.95 4.35 10.7 3.45" fill="#ffffff" fill-rule="evenodd" stroke="none"/>
    <path d="M14.9 9.35 L14.75 10.15 13.8 11.1 13.85 10.0 13.95 10.0 14.9 9.35 M3.2 11.4 L3.1 11.35 2.7 11.05 Q2.3 10.7 2.3 10.15 L2.3 10.05 2.3 10.0 2.5 10.0 Q2.75 10.0 3.25 9.2 L3.2 11.4" fill="#ecab6c" fill-rule="evenodd" stroke="none"/>
    <path d="M10.55 2.05 Q11.65 2.4 12.6 3.3 14.05 4.7 14.05 6.4 L13.95 7.85 Q13.65 7.8 13.25 6.65 L12.65 5.25 12.75 5.1 12.9 4.65 Q12.9 3.9 12.0 3.2 11.2 2.6 10.85 2.6 10.65 2.6 10.65 3.05 L10.7 3.45 10.4 3.3 10.45 2.85 10.55 2.05 M5.5 3.15 Q5.95 2.7 6.35 2.55 L6.55 2.45 Q7.05 2.2 7.1 2.2 L7.2 3.35 7.05 3.4 5.75 3.75 5.3 3.65 5.5 3.15" fill="#decdbd" fill-rule="evenodd" stroke="none"/>
    <path d="M13.9 8.2 Q14.8 8.55 14.9 9.35 L13.95 10.0 13.85 10.0 13.9 9.45 13.9 8.2 M2.3 10.0 L2.6 9.1 3.1 8.6 3.25 8.5 3.25 9.2 Q2.75 10.0 2.5 10.0 L2.3 10.0" fill="#fcd3ab" fill-rule="evenodd" stroke="none"/>
    <path d="M10.6 1.15 L10.55 2.05 10.45 2.85 10.4 3.3 10.35 3.9 10.2 4.75 9.85 5.7 7.95 5.8 Q7.6 5.8 7.4 4.55 L7.35 4.4 7.2 3.35 7.1 2.2 7.1 1.95 7.2 1.15 10.6 1.15" fill="url(#gradient0)" fill-rule="evenodd" stroke="none"/>
    <path d="M13.95 7.85 L13.9 8.2 13.9 9.45 Q13.8 9.6 13.65 8.75 L12.75 6.65 Q12.0 5.45 10.2 4.75 L10.35 3.9 10.4 3.3 10.7 3.45 Q10.95 4.35 12.4 5.3 L12.65 5.25 13.25 6.65 Q13.65 7.8 13.95 7.85" fill="url(#gradient1)" fill-rule="evenodd" stroke="none"/>
    <path d="M13.8 11.1 L13.8 11.75 13.4 12.05 Q12.45 12.65 11.05 12.95 L11.0 13.0 7.7 13.25 Q5.3 13.25 3.7 12.1 L3.6 12.05 3.2 11.75 3.2 11.4 3.25 9.2 3.25 8.5 3.35 7.25 3.65 5.9 4.05 5.1 Q3.9 5.3 3.9 5.55 3.8 6.0 4.15 6.05 L5.55 5.45 Q6.6 4.8 7.4 4.55 7.6 5.8 7.95 5.8 L9.85 5.7 10.2 4.75 Q12.0 5.45 12.75 6.65 L13.65 8.75 Q13.8 9.6 13.9 9.45 L13.85 10.0 13.8 11.1" fill="url(#gradient2)" fill-rule="evenodd" stroke="none"/>
    <path d="M4.05 5.1 L4.05 5.05 4.85 3.85 5.5 3.15 5.3 3.65 5.75 3.75 7.05 3.4 7.2 3.35 7.35 4.4 7.4 4.55 Q6.6 4.8 5.55 5.45 L4.15 6.05 Q3.8 6.0 3.9 5.55 3.9 5.3 4.05 5.1" fill="url(#gradient3)" fill-rule="evenodd" stroke="none"/>
    <path d="M13.4 12.05 L13.5 13.05 13.4 13.85 13.4 13.8 12.95 13.15 Q12.7 13.55 12.7 14.75 L11.7 13.2 11.7 13.15 11.1 14.8 10.05 13.75 8.0 15.2 8.0 14.2 7.95 14.2 7.4 14.85 6.75 15.4 5.35 13.75 4.95 14.45 4.55 13.65 4.25 12.65 Q3.9 12.7 3.55 13.25 L3.7 12.1 Q5.3 13.25 7.7 13.25 L11.0 13.0 11.05 12.95 Q12.45 12.65 13.4 12.05" fill="url(#gradient4)" fill-rule="evenodd" stroke="none"/>
    <path d="M13.9 8.2 Q14.8 8.55 14.9 9.35 L14.75 10.15 13.8 11.1 M3.2 11.4 L3.1 11.35 2.7 11.05 Q2.3 10.7 2.3 10.15 L2.3 10.05 2.3 10.0 2.6 9.1 3.1 8.6 3.25 8.5" fill="none" stroke="#a16c2c" stroke-linecap="round" stroke-linejoin="round" stroke-width="1"/>
    <path d="M10.55 2.05 Q11.65 2.4 12.6 3.3 14.05 4.7 14.05 6.4 L13.95 7.85 13.9 8.2 13.9 9.45 M13.8 11.1 L13.8 11.75 13.4 12.05 M3.2 11.75 L3.2 11.4 M3.25 8.5 L3.35 7.25 3.65 5.9 4.05 5.1 4.05 5.05 4.85 3.85 5.5 3.15 Q5.95 2.7 6.35 2.55 L6.55 2.45 Q7.05 2.2 7.1 2.2" fill="none" stroke="#918477" stroke-linecap="round" stroke-linejoin="round" stroke-width="1"/>
  </g>
  <defs>
    <linearGradient gradientTransform="matrix(0.0, 0.004, -0.0021, 0.0, 8.85, 4.8)" gradientUnits="userSpaceOnUse" id="gradient0" spreadMethod="pad" x1="-819.2" x2="819.2">
      <stop offset="0.0" stop-color="#358555"></stop>
      <stop offset="0.9882352941176471" stop-color="#6fa886"></stop>
    </linearGradient>
    <linearGradient gradientTransform="matrix(-0.0028, -0.0028, 9.0E-4, -9.0E-4, 10.3, 4.4)" gradientUnits="userSpaceOnUse" id="gradient1" spreadMethod="pad" x1="-819.2" x2="819.2">
      <stop offset="0.0" stop-color="#af9f8f"></stop>
      <stop offset="0.9882352941176471" stop-color="#6fa886"></stop>
    </linearGradient>
    <linearGradient gradientTransform="matrix(0.0, -0.0033, 0.0017, 0.0, 12.5, 9.65)" gradientUnits="userSpaceOnUse" id="gradient2" spreadMethod="pad" x1="-819.2" x2="819.2">
      <stop offset="0.0" stop-color="#5d554d"></stop>
      <stop offset="0.9882352941176471" stop-color="#877e75"></stop>
    </linearGradient>
    <linearGradient gradientTransform="matrix(0.0027, -0.0016, 7.0E-4, 0.0011, 7.1, 3.45)" gradientUnits="userSpaceOnUse" id="gradient3" spreadMethod="pad" x1="-819.2" x2="819.2">
      <stop offset="0.0" stop-color="#af9f8f"></stop>
      <stop offset="0.9882352941176471" stop-color="#6fa886"></stop>
    </linearGradient>
    <linearGradient gradientTransform="matrix(0.0, 0.002, -0.0061, 0.0, 8.55, 13.7)" gradientUnits="userSpaceOnUse" id="gradient4" spreadMethod="pad" x1="-819.2" x2="819.2">
      <stop offset="0.0" stop-color="#358555"></stop>
      <stop offset="0.9882352941176471" stop-color="#6fa886"></stop>
    </linearGradient>
  </defs>
</svg>