<?xml version="1.0" encoding="UTF-8" standalone="no"?>
<svg xmlns:xlink="http://www.w3.org/1999/xlink" height="11.25px" width="10.5px" xmlns="http://www.w3.org/2000/svg">
  <g transform="matrix(1.0, 0.0, 0.0, 1.0, 0.6, 1.8)">
    <path d="M8.9 5.3 L8.8 5.95 8.35 6.75 8.35 6.8 7.5 7.2 Q6.8 7.25 6.45 7.85 L6.05 8.3 5.35 8.45 5.05 8.45 5.0 8.4 5.0 8.45 4.95 8.45 4.4 8.3 3.55 7.45 2.95 7.7 2.7 7.65 2.15 7.05 1.9 6.4 2.0 6.5 2.6 6.7 3.4 6.6 4.0 6.9 5.2 7.2 6.1 6.9 Q6.55 6.45 7.2 6.5 7.85 6.55 8.3 6.1 L8.9 5.3 M1.65 0.6 L1.65 0.75 1.35 2.55 1.0 4.3 1.25 4.65 1.4 5.1 1.3 6.2 Q0.8 5.95 0.8 5.3 L0.9 4.7 Q0.4 3.75 0.4 2.9 L0.5 2.65 1.0 1.55 1.65 0.6" fill="#ecab6c" fill-rule="evenodd" stroke="none"/>
    <path d="M8.9 5.3 L8.3 6.1 Q7.85 6.55 7.2 6.5 6.55 6.45 6.1 6.9 L5.2 7.2 4.0 6.9 3.4 6.6 2.6 6.7 2.0 6.5 1.9 6.4 1.85 6.3 1.8 6.3 1.3 6.2 1.4 5.1 1.25 4.65 1.0 4.3 1.35 2.55 1.65 0.75 1.65 0.6 1.75 0.55 2.7 0.0 Q5.55 -2.0 8.3 1.15 8.4 1.1 8.4 1.2 L8.4 1.3 8.8 2.95 8.85 3.15 8.9 4.7 8.9 5.3 M4.95 8.45 L5.0 8.45 4.95 8.45 M2.0 3.9 L1.85 4.2 1.8 4.55 1.75 4.75 1.75 4.95 1.8 5.8 1.8 5.9 1.85 6.3 1.8 5.9 1.8 5.8 1.75 4.95 1.75 4.75 1.8 4.55 1.85 4.2 2.0 3.9" fill="#c48c56" fill-rule="evenodd" stroke="none"/>
    <path d="M5.0 8.45 L5.0 8.4 5.05 8.45 5.35 8.45 6.05 8.3 6.45 7.85 Q6.8 7.25 7.5 7.2 L8.35 6.8 8.35 6.75 8.8 5.95 8.9 5.3 8.9 4.7 8.85 3.15 8.8 2.95 8.4 1.3 M1.9 6.4 L2.15 7.05 2.7 7.65 2.95 7.7 3.55 7.45 4.4 8.3 4.95 8.45 5.0 8.45 5.05 8.45 M1.3 6.2 L1.8 6.3 1.85 6.3 1.8 5.9 1.8 5.8 1.75 4.95 1.75 4.75 1.8 4.55 1.85 4.2 2.0 3.9 M1.65 0.6 L1.0 1.55 0.5 2.65 0.4 2.9 Q0.4 3.75 0.9 4.7 L0.8 5.3 Q0.8 5.95 1.3 6.2 M5.0 8.45 L4.95 8.45 M1.8 6.3 L1.9 6.4 1.85 6.3" fill="none" stroke="#a16c2c" stroke-linecap="round" stroke-linejoin="round" stroke-width="1"/>
  </g>
</svg>