<?xml version="1.0" encoding="UTF-8" standalone="no"?>
<svg xmlns:xlink="http://www.w3.org/1999/xlink" height="19.4px" width="10.85px" xmlns="http://www.w3.org/2000/svg">
  <g transform="matrix(1.0, 0.0, 0.0, 1.0, -0.1, 3.3)">
    <path d="M7.8 1.2 L8.4 1.9 7.85 2.9 7.9 2.25 7.8 1.2 M2.05 2.6 L2.4 1.5 2.05 0.0 Q4.45 -4.55 7.55 0.0 L7.65 0.45 Q7.25 0.1 6.5 0.1 4.65 0.1 4.65 2.15 4.65 3.8 6.35 3.8 L6.6 3.8 4.6 4.2 Q3.3 4.2 2.8 3.8 2.45 3.55 2.05 2.6 M4.05 3.55 L2.75 2.5 2.4 1.5 2.75 2.5 4.05 3.55" fill="#c48c56" fill-rule="evenodd" stroke="none"/>
    <path d="M7.65 0.45 L7.8 1.2 7.9 2.25 7.85 2.9 7.7 3.05 7.15 3.5 6.6 3.8 6.35 3.8 Q4.65 3.8 4.65 2.15 4.65 0.1 6.5 0.1 7.25 0.1 7.65 0.45" fill="#ecab6c" fill-rule="evenodd" stroke="none"/>
    <path d="M8.4 1.9 L9.0 2.8 Q8.85 2.85 8.75 3.0 L8.7 3.05 8.65 3.05 8.5 3.3 8.0 3.8 8.0 3.85 8.2 5.05 8.35 6.75 Q8.35 8.85 7.5 11.0 L6.6 13.1 6.9 13.05 7.45 12.55 7.5 12.55 7.85 12.4 7.55 12.9 7.25 13.75 6.7 14.8 5.3 15.1 Q4.25 15.05 3.8 14.55 L3.2 13.8 2.65 12.1 2.8 11.25 Q3.0 12.65 3.95 13.65 L5.0 14.4 Q5.65 13.85 6.5 11.95 7.7 9.15 7.7 6.75 7.7 4.6 7.1 4.35 L6.4 4.65 4.15 5.0 Q3.1 5.0 2.55 4.6 L1.7 3.85 2.05 2.6 Q2.45 3.55 2.8 3.8 3.3 4.2 4.6 4.2 L6.6 3.8 7.15 3.5 7.7 3.05 7.85 2.9 8.4 1.9" fill="url(#gradient0)" fill-rule="evenodd" stroke="none"/>
    <path d="M2.8 11.25 L2.75 10.65 Q1.1 6.95 1.1 6.3 L1.7 3.85 2.55 4.6 Q3.1 5.0 4.15 5.0 L6.4 4.65 7.1 4.35 Q7.7 4.6 7.7 6.75 7.7 9.15 6.5 11.95 5.65 13.85 5.0 14.4 L3.95 13.65 Q3.0 12.65 2.8 11.25" fill="url(#gradient1)" fill-rule="evenodd" stroke="none"/>
    <path d="M9.0 2.8 L9.15 3.15 Q9.95 4.75 9.95 7.2 9.95 8.05 7.85 12.4 L7.5 12.55 7.45 12.55 6.9 13.05 6.6 13.1 7.5 11.0 Q8.35 8.85 8.35 6.75 L8.2 5.05 8.0 3.85 8.0 3.8 8.5 3.3 8.65 3.05 8.7 3.05 8.75 3.0 Q8.85 2.85 9.0 2.8" fill="url(#gradient2)" fill-rule="evenodd" stroke="none"/>
    <path d="M7.65 0.45 L7.8 1.2 8.4 1.9 M2.05 2.6 L2.4 1.5 2.05 0.0 M2.4 1.5 L2.75 2.5 4.05 3.55" fill="none" stroke="#a16c2c" stroke-linecap="round" stroke-linejoin="round" stroke-width="1"/>
    <path d="M8.4 1.9 L9.0 2.8 9.15 3.15 Q9.95 4.75 9.95 7.2 9.95 8.05 7.85 12.4 L7.55 12.9 M2.65 12.1 L2.8 11.25 2.75 10.65 Q1.1 6.95 1.1 6.3 L1.7 3.85 2.05 2.6" fill="none" stroke="#5d554d" stroke-linecap="round" stroke-linejoin="round" stroke-opacity="0.49803922" stroke-width="1"/>
  </g>
  <defs>
    <linearGradient gradientTransform="matrix(0.0068, -9.0E-4, 2.0E-4, 0.0016, 7.7, 3.2)" gradientUnits="userSpaceOnUse" id="gradient0" spreadMethod="pad" x1="-819.2" x2="819.2">
      <stop offset="0.0" stop-color="#decdbd"></stop>
      <stop offset="1.0" stop-color="#9c8d7e"></stop>
    </linearGradient>
    <linearGradient gradientTransform="matrix(0.0035, 9.0E-4, -0.0016, 0.006, 4.95, 9.05)" gradientUnits="userSpaceOnUse" id="gradient1" spreadMethod="pad" x1="-819.2" x2="819.2">
      <stop offset="0.0" stop-color="#af9f8f"></stop>
      <stop offset="0.9882352941176471" stop-color="#857565"></stop>
    </linearGradient>
    <linearGradient gradientTransform="matrix(-0.0014, 0.0, 0.0, -0.0063, 8.55, 7.95)" gradientUnits="userSpaceOnUse" id="gradient2" spreadMethod="pad" x1="-819.2" x2="819.2">
      <stop offset="0.0" stop-color="#af9f8f"></stop>
      <stop offset="0.9882352941176471" stop-color="#857565"></stop>
    </linearGradient>
  </defs>
</svg>