<?xml version="1.0" encoding="UTF-8" standalone="no"?>
<svg xmlns:xlink="http://www.w3.org/1999/xlink" height="7.45px" width="6.9px" xmlns="http://www.w3.org/2000/svg">
  <g transform="matrix(1.0, 0.0, 0.0, 1.0, 1, 1.35)">
    <path d="M3.1 1.65 L3.35 1.85 3.6 2.25 Q3.7 2.8 3.45 3.2 L3.3 3.55 3.2 3.7 3.3 3.85 3.6 3.65 3.65 3.6 3.6 3.65 3.3 3.85 3.2 3.7 3.3 3.55 3.45 3.2 Q3.7 2.8 3.6 2.25 L3.35 1.85 3.1 1.65 M3.95 0.3 L4.6 0.7 4.6 0.75 4.9 1.55 4.65 2.15 4.1 2.85 3.7 3.55 3.65 3.6 Q4.25 4.2 3.6 4.7 L3.05 5.0 3.25 4.65 3.0 4.3 2.7 4.0 2.55 3.7 2.55 3.55 2.45 2.55 Q2.45 1.8 1.9 1.8 1.4 1.8 1.3 2.15 L1.3 2.6 1.35 3.55 1.4 3.75 1.8 4.6 1.35 4.6 1.35 4.55 0.95 3.55 Q0.5 2.65 0.25 2.65 L0.0 2.75 0.0 2.15 Q0.0 1.6 0.8 0.5 1.55 -0.7 2.85 -0.25 4.1 0.2 3.95 0.3" fill="#c48c56" fill-rule="evenodd" stroke="none"/>
    <path d="M0.0 2.75 L0.25 2.65 Q0.5 2.65 0.95 3.55 L1.35 4.55 1.35 4.6 0.7 4.5 0.2 3.55 0.15 3.5 0.1 3.3 0.05 3.15 0.0 2.75 M1.8 4.6 L1.4 3.75 1.35 3.55 1.3 2.6 1.3 2.15 Q1.4 1.8 1.9 1.8 2.45 1.8 2.45 2.55 L2.55 3.55 2.55 3.7 2.7 4.0 3.0 4.3 3.25 4.65 3.05 5.0 2.7 5.1 2.4 5.05 1.8 4.6" fill="#ecab6c" fill-rule="evenodd" stroke="none"/>
    <path d="M3.65 3.6 L3.6 3.65 3.3 3.85 3.2 3.7 3.3 3.55 3.45 3.2 Q3.7 2.8 3.6 2.25 L3.35 1.85 3.1 1.65 M3.65 3.6 L3.7 3.55 4.1 2.85 4.65 2.15 4.9 1.55 4.6 0.75 4.6 0.7 3.95 0.3 M1.35 4.55 L1.35 4.6 1.8 4.6 2.4 5.05 2.7 5.1 3.05 5.0 3.6 4.7 Q4.25 4.2 3.65 3.6 M0.0 2.75 L0.05 3.15 0.1 3.3 0.15 3.5 0.2 3.55 0.7 4.5 1.35 4.6" fill="none" stroke="#a16c2c" stroke-linecap="round" stroke-linejoin="round" stroke-width="1"/>
  </g>
</svg>