<?xml version="1.0" encoding="UTF-8" standalone="no"?>
<svg xmlns:xlink="http://www.w3.org/1999/xlink" height="23.6px" width="13.7px" xmlns="http://www.w3.org/2000/svg">
  <g transform="matrix(1.0, 0.0, 0.0, 1.0, 1.65, 9.6)">
    <path d="M2.85 -8.35 L4.4 -8.55 6.85 -8.15 Q8.25 -7.6 8.35 -6.7 8.15 -6.15 6.75 -5.65 L5.95 -5.4 4.3 -5.0 2.55 -4.7 0.7 -5.7 2.8 -5.95 Q6.5 -6.55 6.25 -7.1 6.05 -7.7 2.85 -8.35 M5.15 4.85 L5.05 4.4 6.4 6.0 6.05 6.0 5.55 5.35 5.15 4.85 M8.9 4.6 L8.6 5.8 8.35 5.5 8.35 4.6 8.45 3.85 8.7 4.15 8.9 4.6 M9.45 5.65 Q9.55 5.2 9.75 5.25 L9.65 6.2 Q9.65 6.75 9.35 6.65 L9.25 6.3 9.45 5.65 M4.35 5.9 Q4.95 5.45 5.7 6.8 L5.75 7.0 4.4 6.15 4.35 5.9 M8.25 7.75 L8.3 6.1 9.4 7.4 9.2 9.3 8.8 10.8 8.75 10.9 6.25 7.0 6.6 6.0 7.8 7.8 6.95 7.05 7.05 7.65 8.6 10.0 8.95 7.7 8.45 7.05 8.25 7.75" fill="#decdbd" fill-rule="evenodd" stroke="none"/>
    <path d="M8.35 -6.7 L8.35 2.45 Q9.05 2.95 10.15 4.55 11.0 5.8 11.05 7.4 10.3 9.9 9.55 10.6 8.65 11.45 6.3 11.45 3.65 11.45 2.3 9.45 1.4 8.1 1.4 6.7 L1.55 6.3 1.7 5.95 2.35 4.55 2.5 0.6 Q2.4 -3.6 2.55 -4.7 L4.3 -5.0 5.95 -5.4 6.75 -5.65 6.75 -3.2 6.75 -5.65 Q8.15 -6.15 8.35 -6.7 M4.3 2.25 L4.3 -5.0 4.3 2.25 M8.9 4.6 L8.7 4.15 8.45 3.85 8.35 4.6 8.35 5.5 8.6 5.8 8.9 4.6 M5.15 4.85 L5.55 5.35 6.05 6.0 6.4 6.0 5.05 4.4 5.15 4.85 M9.45 5.65 L9.25 6.3 9.35 6.65 Q9.65 6.75 9.65 6.2 L9.75 5.25 Q9.55 5.2 9.45 5.65 M8.25 7.75 L8.45 7.05 8.95 7.7 8.6 10.0 7.05 7.65 6.95 7.05 7.8 7.8 6.6 6.0 6.25 7.0 8.75 10.9 8.8 10.8 9.2 9.3 9.4 7.4 8.3 6.1 8.25 7.75 M4.35 5.9 L4.4 6.15 5.75 7.0 5.7 6.8 Q4.95 5.45 4.35 5.9" fill="url(#gradient0)" fill-rule="evenodd" stroke="none"/>
    <path d="M11.05 7.4 L11.0 8.1 Q10.8 10.05 9.5 11.65 8.2 13.2 5.7 12.95 3.15 12.65 1.15 10.3 L0.05 9.05 Q-0.6 8.2 -0.65 7.65 -0.75 7.1 -0.25 5.8 0.2 4.5 0.7 3.9 L0.7 -5.7 2.55 -4.7 Q2.4 -3.6 2.5 0.6 L2.35 4.55 1.7 5.95 1.55 6.3 1.4 6.7 Q1.4 8.1 2.3 9.45 3.65 11.45 6.3 11.45 8.65 11.45 9.55 10.6 10.3 9.9 11.05 7.4 M2.8 -5.95 L2.85 -8.35 Q6.05 -7.7 6.25 -7.1 6.5 -6.55 2.8 -5.95" fill="url(#gradient1)" fill-rule="evenodd" stroke="none"/>
    <path d="M2.85 -8.35 L4.4 -8.55 6.85 -8.15 Q8.25 -7.6 8.35 -6.7 L8.35 2.45 M1.15 10.3 L0.05 9.05 Q-0.6 8.2 -0.65 7.65 -0.75 7.1 -0.25 5.8 0.2 4.5 0.7 3.9 L0.7 -5.7 2.8 -5.95 2.85 -8.35 Q6.05 -7.7 6.25 -7.1 6.5 -6.55 2.8 -5.95 M6.75 -5.65 L6.75 -3.2 M4.3 -5.0 L4.3 2.25" fill="none" stroke="#918477" stroke-linecap="round" stroke-linejoin="round" stroke-width="1"/>
    <path d="M8.35 2.45 Q9.05 2.95 10.15 4.55 11.0 5.8 11.05 7.4 L11.0 8.1 Q10.8 10.05 9.5 11.65 8.2 13.2 5.7 12.95 3.15 12.65 1.15 10.3" fill="none" stroke="#5d554d" stroke-linecap="round" stroke-linejoin="round" stroke-opacity="0.49803922" stroke-width="1"/>
    <path d="M2.55 -4.7 L0.7 -5.7 M4.3 -5.0 L2.55 -4.7 M6.75 -5.65 L5.95 -5.4 4.3 -5.0 M8.35 -6.7 Q8.15 -6.15 6.75 -5.65" fill="none" stroke="#ffebd9" stroke-linecap="round" stroke-linejoin="round" stroke-width="1"/>
  </g>
  <defs>
    <linearGradient gradientTransform="matrix(-5.0E-4, 0.0104, -0.0063, -3.0E-4, 6.25, 4.2)" gradientUnits="userSpaceOnUse" id="gradient0" spreadMethod="pad" x1="-819.2" x2="819.2">
      <stop offset="0.0" stop-color="#af9f8f"></stop>
      <stop offset="0.9882352941176471" stop-color="#857565"></stop>
    </linearGradient>
    <linearGradient gradientTransform="matrix(-4.0E-4, 0.004, -0.0016, -2.0E-4, 1.45, -0.05)" gradientUnits="userSpaceOnUse" id="gradient1" spreadMethod="pad" x1="-819.2" x2="819.2">
      <stop offset="0.0" stop-color="#857565"></stop>
      <stop offset="1.0" stop-color="#5b544d"></stop>
    </linearGradient>
  </defs>
</svg>