<?xml version="1.0" encoding="UTF-8" standalone="no"?>
<svg xmlns:xlink="http://www.w3.org/1999/xlink" height="23.6px" width="13.7px" xmlns="http://www.w3.org/2000/svg">
  <g transform="matrix(1.0, 0.0, 0.0, 1.0, 1.65, 9.6)">
    <path d="M2.85 -8.35 L4.4 -8.55 6.85 -8.15 Q8.25 -7.6 8.35 -6.7 8.15 -6.15 6.75 -5.65 L5.95 -5.4 4.3 -5.0 2.55 -4.7 0.7 -5.7 2.8 -5.95 Q6.5 -6.55 6.25 -7.1 6.05 -7.7 2.85 -8.35" fill="#decdbd" fill-rule="evenodd" stroke="none"/>
    <path d="M8.35 -6.7 L8.35 2.45 Q9.05 2.95 10.15 4.55 11.0 5.8 11.05 7.4 10.3 9.9 9.55 10.6 9.3 10.8 9.15 10.25 9.05 9.65 9.2 9.3 L9.4 7.4 8.25 6.1 6.55 4.5 Q6.1 4.15 6.0 2.85 L5.9 -2.1 5.95 -5.4 6.75 -5.65 Q8.15 -6.15 8.35 -6.7 M6.75 -3.2 L6.75 -5.65 6.75 -3.2" fill="url(#gradient0)" fill-rule="evenodd" stroke="none"/>
    <path d="M11.05 7.4 L11.0 8.1 Q10.8 10.05 9.5 11.65 8.2 13.2 5.7 12.95 3.15 12.65 1.15 10.3 L0.05 9.05 Q-0.6 8.2 -0.65 7.65 -0.75 7.1 -0.25 5.8 0.2 4.5 0.7 3.9 L0.7 -5.7 2.55 -4.7 4.3 -5.0 5.95 -5.4 5.9 -2.1 6.0 2.85 Q6.1 4.15 6.55 4.5 L8.25 6.1 9.4 7.4 9.2 9.3 Q9.05 9.65 9.15 10.25 9.3 10.8 9.55 10.6 10.3 9.9 11.05 7.4 M2.8 -5.95 L2.85 -8.35 Q6.05 -7.7 6.25 -7.1 6.5 -6.55 2.8 -5.95" fill="url(#gradient1)" fill-rule="evenodd" stroke="none"/>
    <path d="M2.85 -8.35 L4.4 -8.55 6.85 -8.15 Q8.25 -7.6 8.35 -6.7 L8.35 2.45 M1.15 10.3 L0.05 9.05 Q-0.6 8.2 -0.65 7.65 -0.75 7.1 -0.25 5.8 0.2 4.5 0.7 3.9 L0.7 -5.7 2.8 -5.95 2.85 -8.35 Q6.05 -7.7 6.25 -7.1 6.5 -6.55 2.8 -5.95 M6.75 -5.65 L6.75 -3.2" fill="none" stroke="#918477" stroke-linecap="round" stroke-linejoin="round" stroke-width="1"/>
    <path d="M8.35 2.45 Q9.05 2.95 10.15 4.55 11.0 5.8 11.05 7.4 L11.0 8.1 Q10.8 10.05 9.5 11.65 8.2 13.2 5.7 12.95 3.15 12.65 1.15 10.3" fill="none" stroke="#5d554d" stroke-linecap="round" stroke-linejoin="round" stroke-opacity="0.49803922" stroke-width="1"/>
    <path d="M0.7 -5.7 L2.55 -4.7 4.3 -5.0 5.95 -5.4 6.75 -5.65 Q8.15 -6.15 8.35 -6.7" fill="none" stroke="#ffebd9" stroke-linecap="round" stroke-linejoin="round" stroke-width="1"/>
  </g>
  <defs>
    <linearGradient gradientTransform="matrix(-5.0E-4, 0.0104, -0.0063, -3.0E-4, 6.25, 4.2)" gradientUnits="userSpaceOnUse" id="gradient0" spreadMethod="pad" x1="-819.2" x2="819.2">
      <stop offset="0.0" stop-color="#af9f8f"></stop>
      <stop offset="0.9882352941176471" stop-color="#857565"></stop>
    </linearGradient>
    <linearGradient gradientTransform="matrix(-4.0E-4, 0.004, -0.0016, -2.0E-4, 1.45, -0.05)" gradientUnits="userSpaceOnUse" id="gradient1" spreadMethod="pad" x1="-819.2" x2="819.2">
      <stop offset="0.0" stop-color="#857565"></stop>
      <stop offset="1.0" stop-color="#5b544d"></stop>
    </linearGradient>
  </defs>
</svg>