<?xml version="1.0" encoding="UTF-8" standalone="no"?>
<svg xmlns:xlink="http://www.w3.org/1999/xlink" height="48.35px" width="40.75px" xmlns="http://www.w3.org/2000/svg">
  <g transform="matrix(1.0, 0.0, 0.0, 1.0, 20.35, 24.2)">
    <path d="M-17.3 4.4 L-17.35 4.1 -17.7 1.9 -17.9 -2.05 Q-17.7 -8.8 -13.3 -14.3 L-10.15 -17.6 Q-7.1 -20.2 -3.6 -20.8 L6.65 -20.5 9.25 -19.45 Q12.5 -17.7 15.0 -13.85 L15.95 -12.3 14.9 -13.15 Q14.3 -13.65 13.15 -13.55 L10.25 -12.85 Q7.55 -11.95 6.1 -10.45 L5.3 -9.45 Q3.9 -7.25 3.1 -5.1 L1.6 -1.2 Q-0.05 2.45 -1.75 4.2 L-2.95 5.3 Q-5.2 6.95 -8.45 7.2 L-9.4 7.2 Q-12.1 7.2 -14.7 6.0 -16.1 5.3 -17.3 4.4" fill="#f2eaea" fill-rule="evenodd" stroke="none"/>
    <path d="M15.95 -12.3 L16.15 -11.85 16.85 -10.45 15.8 -10.35 Q14.55 -10.35 14.25 -9.95 13.85 -9.35 12.4 -8.65 L11.4 -8.25 11.4 -10.15 11.2 -10.15 9.7 -8.05 Q8.65 -6.4 7.9 -4.55 L7.4 -3.2 7.2 -3.45 7.0 -5.45 6.85 -7.1 6.75 -8.5 6.65 -7.5 Q5.55 0.4 1.3 5.15 -0.5 7.2 -2.6 8.4 -4.7 9.5 -7.0 9.8 L-8.4 9.85 -10.95 9.8 -14.3 9.0 Q-14.85 8.85 -16.25 7.9 L-17.3 4.4 Q-16.1 5.3 -14.7 6.0 -12.1 7.2 -9.4 7.2 L-8.45 7.2 Q-5.2 6.95 -2.95 5.3 L-1.75 4.2 Q-0.05 2.45 1.6 -1.2 L3.1 -5.1 Q3.9 -7.25 5.3 -9.45 L6.1 -10.45 Q7.55 -11.95 10.25 -12.85 L13.15 -13.55 Q14.3 -13.65 14.9 -13.15 L15.95 -12.3" fill="#e0cbcb" fill-rule="evenodd" stroke="none"/>
    <path d="M-4.75 -22.35 Q1.5 -24.2 7.45 -22.0 L8.8 -21.45 Q13.95 -19.15 16.5 -14.6 L16.95 -13.8 17.8 -11.8 18.2 -10.5 18.4 -9.65 19.1 -6.65 19.1 -6.6 Q19.85 0.35 18.6 7.3 17.35 14.3 12.3 18.9 L9.15 21.15 6.05 22.4 Q-1.4 24.5 -7.8 20.55 -13.1 17.3 -16.15 11.9 L-16.8 10.7 -18.5 6.25 -19.2 2.75 -19.2 2.7 -19.35 0.95 -19.3 -2.2 Q-18.75 -9.35 -14.65 -15.1 L-13.35 -16.7 Q-9.85 -20.7 -4.75 -22.35 M15.95 -12.3 L15.0 -13.85 Q12.5 -17.7 9.25 -19.45 L6.65 -20.5 -3.6 -20.8 Q-7.1 -20.2 -10.15 -17.6 L-13.3 -14.3 Q-17.7 -8.8 -17.9 -2.05 L-17.7 1.9 -17.35 4.1 -17.3 4.4 -16.25 7.9 -15.25 10.25 -13.2 13.7 Q-10.2 17.9 -5.3 20.25 -2.3 21.75 1.3 21.65 8.5 21.3 12.75 15.85 L13.15 15.3 14.1 13.9 14.3 13.55 Q17.15 8.6 17.35 2.65 L18.0 -4.05 Q18.3 -6.9 17.0 -10.05 L16.85 -10.45 16.15 -11.85 15.95 -12.3" fill="#a36a6a" fill-rule="evenodd" stroke="none"/>
    <path d="M16.85 -10.45 L17.0 -10.05 Q18.3 -6.9 18.0 -4.05 L17.35 2.65 Q17.15 8.6 14.3 13.55 L14.1 13.9 13.15 15.3 12.75 15.85 Q8.5 21.3 1.3 21.65 -2.3 21.75 -5.3 20.25 -10.2 17.9 -13.2 13.7 L-15.25 10.25 -16.25 7.9 Q-14.85 8.85 -14.3 9.0 L-10.95 9.8 -8.4 9.85 -7.0 9.8 Q-4.7 9.5 -2.6 8.4 -0.5 7.2 1.3 5.15 5.55 0.4 6.65 -7.5 L6.75 -8.5 6.85 -7.1 7.0 -5.45 7.2 -3.45 7.4 -3.2 7.9 -4.55 Q8.65 -6.4 9.7 -8.05 L11.2 -10.15 11.4 -10.15 11.4 -8.25 12.4 -8.65 Q13.85 -9.35 14.25 -9.95 14.55 -10.35 15.8 -10.35 L16.85 -10.45" fill="#cca9a9" fill-rule="evenodd" stroke="none"/>
    <path d="M2.2 8.35 L2.35 8.2 5.1 7.8 6.45 7.0 7.65 5.75 Q8.5 5.1 8.5 6.3 8.5 6.85 7.35 7.65 5.95 8.7 4.25 8.7 L2.2 8.35 M6.75 0.55 Q8.25 1.05 8.25 1.65 8.35 2.05 7.8 2.05 3.8 1.3 2.0 0.5 L2.05 0.4 4.15 0.05 6.75 0.55 M4.45 -8.75 L4.5 -8.9 Q6.05 -9.1 7.7 -6.9 9.1 -5.05 9.1 -3.85 9.25 -2.95 8.4 -2.95 8.2 -2.95 7.75 -4.15 L7.05 -5.75 4.45 -8.75 M10.95 -13.3 L11.0 -13.45 Q13.85 -11.4 13.85 -7.35 13.95 -4.8 13.15 -4.8 12.6 -4.8 12.5 -5.35 L12.5 -6.0 12.55 -7.75 12.45 -9.65 Q12.25 -10.9 11.55 -12.15 L10.95 -13.3" fill="#a36a6a" fill-rule="evenodd" stroke="none"/>
  </g>
</svg>