<?xml version="1.0" encoding="UTF-8" standalone="no"?>
<svg xmlns:xlink="http://www.w3.org/1999/xlink" height="58.85px" width="49.55px" xmlns="http://www.w3.org/2000/svg">
  <g transform="matrix(1.0, 0.0, 0.0, 1.0, 24.75, 29.45)">
    <path d="M17.15 -21.55 L17.95 -20.55 18.05 -20.4 Q19.8 -18.0 21.1 -14.9 22.75 -10.85 23.35 -7.05 23.8 -4.05 23.8 0.8 L23.8 1.4 23.6 8.65 Q23.45 14.15 21.2 18.85 17.35 26.8 8.3 27.9 -0.45 29.25 -9.0 26.8 -17.05 24.6 -20.6 17.15 -24.15 9.75 -23.7 1.4 L-23.5 -2.25 Q-23.15 -6.3 -22.2 -9.65 L-21.85 -10.8 -20.8 -13.55 Q-16.05 -23.8 -3.6 -27.65 L1.0 -28.45 4.55 -27.95 5.8 -27.6 9.7 -26.15 13.0 -24.7 Q15.0 -23.8 16.0 -22.8 L17.15 -21.55 M15.45 -20.6 Q12.85 -23.05 8.75 -24.75 5.9 -25.95 3.6 -26.4 -0.7 -27.35 -3.35 -25.95 -14.8 -22.4 -19.25 -12.5 -20.5 -9.7 -21.2 -6.35 -21.8 -3.45 -22.0 -0.1 L-22.05 1.4 Q-22.1 7.7 -20.05 13.8 -17.3 22.1 -8.9 24.75 -0.7 27.4 7.95 26.05 16.85 25.4 19.95 17.8 23.0 10.15 22.6 5.65 L22.2 0.8 21.4 -6.6 Q20.85 -10.0 19.6 -14.0 18.85 -16.5 17.3 -18.55 L15.45 -20.6 M13.15 -16.15 L12.55 -16.8 13.45 -16.25 Q15.5 -14.95 16.8 -12.85 18.1 -10.65 18.1 -8.45 L18.05 -7.35 Q17.85 -6.5 17.2 -6.5 16.6 -6.5 16.55 -7.05 L16.6 -7.65 Q16.6 -9.95 15.6 -12.3 14.65 -14.45 13.15 -16.15 M8.35 -13.4 Q10.65 -12.8 12.3 -10.3 13.65 -8.2 13.65 -6.5 L13.45 -5.95 Q13.25 -5.7 13.05 -5.7 12.25 -5.7 11.85 -7.35 L11.4 -9.6 9.9 -11.45 Q8.5 -12.8 8.2 -13.4 L8.35 -13.4 M10.75 1.2 Q10.75 2.0 4.75 4.7 L2.8 4.7 2.5 4.4 Q6.45 2.25 7.4 1.8 10.75 0.2 10.75 1.2 M20.6 8.25 L21.2 10.6 Q21.05 14.55 18.9 17.4 L18.4 17.85 Q21.0 12.65 19.25 7.35 L19.1 6.7 19.45 6.15 20.6 8.25 M11.6 4.5 Q11.4 12.95 3.6 15.1 L-2.95 15.45 Q6.3 15.85 9.5 7.7 L10.05 6.15 Q10.4 5.05 11.6 4.5 M14.05 6.95 L16.3 6.2 Q15.25 7.2 15.35 11.5 15.45 15.8 9.1 20.75 14.55 15.0 14.05 6.95" fill="#a36a6a" fill-rule="evenodd" stroke="none"/>
    <path d="M-21.2 -6.35 Q-20.5 -9.7 -19.25 -12.5 -14.8 -22.4 -3.35 -25.95 -0.7 -27.35 3.6 -26.4 5.9 -25.95 8.75 -24.75 12.85 -23.05 15.45 -20.6 L13.25 -19.7 7.75 -18.25 4.3 -19.2 4.7 -18.35 Q5.1 -17.75 5.1 -17.2 5.1 -15.9 3.25 -14.9 L0.85 -13.8 Q-0.3 -13.05 -1.35 -11.4 L-2.6 -8.9 Q-4.05 -5.05 -6.85 -3.1 L-9.15 -1.85 Q-10.95 -1.2 -13.05 -1.2 -16.95 -1.2 -19.7 -4.15 L-21.2 -6.35" fill="#f2eaea" fill-rule="evenodd" stroke="none"/>
    <path d="M-21.2 -6.35 L-19.7 -4.15 Q-16.95 -1.2 -13.05 -1.2 -10.95 -1.2 -9.15 -1.85 L-6.85 -3.1 Q-4.05 -5.05 -2.6 -8.9 L-1.35 -11.4 Q-0.3 -13.05 0.85 -13.8 L3.25 -14.9 Q5.1 -15.9 5.1 -17.2 5.1 -17.75 4.7 -18.35 L4.3 -19.2 7.75 -18.25 13.25 -19.7 15.45 -20.6 17.3 -18.55 Q16.6 -17.4 15.5 -17.05 L13.45 -16.25 12.55 -16.8 13.15 -16.15 10.8 -15.6 7.75 -15.8 Q8.35 -14.2 8.35 -13.6 5.85 -14.05 4.0 -11.4 L0.75 -5.25 Q-3.8 4.1 -11.05 4.1 L-12.05 4.1 Q-16.45 3.85 -19.85 1.65 L-22.0 -0.1 Q-21.8 -3.45 -21.2 -6.35" fill="#e0cbcb" fill-rule="evenodd" stroke="none"/>
    <path d="M17.3 -18.55 Q18.85 -16.5 19.6 -14.0 20.85 -10.0 21.4 -6.6 L22.2 0.8 22.6 5.65 Q23.0 10.15 19.95 17.8 16.85 25.4 7.95 26.05 -0.7 27.4 -8.9 24.75 -17.3 22.1 -20.05 13.8 -22.1 7.7 -22.05 1.4 L-22.0 -0.1 -19.85 1.65 Q-16.45 3.85 -12.05 4.1 L-11.05 4.1 Q-3.8 4.1 0.75 -5.25 L4.0 -11.4 Q5.85 -14.05 8.35 -13.6 8.35 -14.2 7.75 -15.8 L10.8 -15.6 13.15 -16.15 Q14.65 -14.45 15.6 -12.3 16.6 -9.95 16.6 -7.65 L16.55 -7.05 Q16.6 -6.5 17.2 -6.5 17.85 -6.5 18.05 -7.35 L18.1 -8.45 Q18.1 -10.65 16.8 -12.85 15.5 -14.95 13.45 -16.25 L15.5 -17.05 Q16.6 -17.4 17.3 -18.55 M8.35 -13.4 L8.2 -13.4 Q8.5 -12.8 9.9 -11.45 L11.4 -9.6 11.85 -7.35 Q12.25 -5.7 13.05 -5.7 13.25 -5.7 13.45 -5.95 L13.65 -6.5 Q13.65 -8.2 12.3 -10.3 10.65 -12.8 8.35 -13.4 M11.6 4.5 Q10.4 5.05 10.05 6.15 L9.5 7.7 Q6.3 15.85 -2.95 15.45 L3.6 15.1 Q11.4 12.95 11.6 4.5 M20.6 8.25 L19.45 6.15 19.1 6.7 19.25 7.35 Q21.0 12.65 18.4 17.85 L18.9 17.4 Q21.05 14.55 21.2 10.6 L20.6 8.25 M10.75 1.2 Q10.75 0.2 7.4 1.8 6.45 2.25 2.5 4.4 L2.8 4.7 4.75 4.7 Q10.75 2.0 10.75 1.2 M14.05 6.95 Q14.55 15.0 9.1 20.75 15.45 15.8 15.35 11.5 15.25 7.2 16.3 6.2 L14.05 6.95" fill="#cca9a9" fill-rule="evenodd" stroke="none"/>
  </g>
</svg>