<?xml version="1.0" encoding="UTF-8" standalone="no"?>
<svg xmlns:xlink="http://www.w3.org/1999/xlink" height="39.6px" width="38.15px" xmlns="http://www.w3.org/2000/svg">
  <g transform="matrix(1.0, 0.0, 0.0, 1.0, 19.1, 19.8)">
    <path d="M-14.45 11.6 Q-16.5 9.75 -16.5 8.05 L-16.1 1.7 -15.95 -2.55 -15.3 -8.35 Q-15.05 -10.95 -11.55 -14.7 L-9.9 -16.45 -9.2 -17.2 -9.45 -16.95 -9.35 -16.45 Q-9.1 -15.9 -8.35 -15.9 -7.85 -15.9 -7.5 -16.25 L-7.2 -16.7 -7.25 -16.7 -7.95 -17.0 -7.05 -16.65 -6.45 -16.4 Q-3.6 -15.25 0.75 -10.7 L3.3 -8.0 -0.1 -5.0 -4.35 -0.05 Q-5.15 -0.5 -8.3 4.0 -11.9 9.1 -12.45 13.1 L-13.2 12.6 -12.15 8.65 -10.7 3.85 Q-10.7 3.35 -10.95 3.25 -12.35 5.0 -13.6 8.65 L-14.45 11.6 M-7.15 5.55 L-7.25 5.6 -6.6 4.7 -7.15 5.55" fill="#f2eaea" fill-rule="evenodd" stroke="none"/>
    <path d="M3.3 -8.0 L0.75 -10.7 Q-3.6 -15.25 -6.45 -16.4 L-7.05 -16.65 -7.95 -17.0 -7.25 -16.7 -7.2 -16.7 -7.5 -16.25 Q-7.85 -15.9 -8.35 -15.9 -9.1 -15.9 -9.35 -16.45 L-9.45 -16.95 -9.2 -17.2 -9.9 -16.45 -11.55 -14.7 Q-15.05 -10.95 -15.3 -8.35 L-15.95 -2.55 -16.1 1.7 -16.5 8.05 Q-16.5 9.75 -14.45 11.6 L-13.2 12.6 -12.45 13.1 -11.65 13.6 -11.5 13.7 -11.3 13.8 -10.75 14.1 Q-5.55 16.9 1.05 16.9 5.15 16.9 9.45 15.7 L13.75 14.35 Q16.25 13.85 16.25 11.15 16.25 8.5 12.85 3.65 L7.35 -3.45 4.55 -6.65 3.3 -8.0 M-15.35 -12.65 L-11.9 -16.0 Q-9.55 -18.3 -8.3 -18.8 -8.15 -18.85 -8.15 -18.35 L-8.4 -18.05 -8.5 -17.95 -8.3 -17.95 -7.8 -17.8 -6.25 -18.05 Q-3.0 -18.05 2.7 -12.1 L9.85 -3.55 15.35 3.85 Q18.05 8.1 18.05 11.25 L17.8 13.75 Q17.25 15.2 15.35 15.85 6.8 18.8 1.1 18.8 -4.8 18.8 -9.65 16.7 -12.1 15.65 -13.45 14.5 -16.15 12.1 -17.8 10.85 -18.1 10.5 -18.1 8.15 L-17.35 -5.65 -17.25 -9.15 Q-16.95 -11.2 -15.35 -12.65" fill="#a36a6a" fill-rule="evenodd" stroke="none"/>
    <path d="M-14.45 11.6 L-13.6 8.65 Q-12.35 5.0 -10.95 3.25 -10.7 3.35 -10.7 3.85 L-12.15 8.65 -13.2 12.6 -14.45 11.6 M-12.45 13.1 Q-11.9 9.1 -8.3 4.0 -5.15 -0.5 -4.35 -0.05 L-0.1 -5.0 3.3 -8.0 4.55 -6.65 7.35 -3.45 12.85 3.65 Q16.25 8.5 16.25 11.15 16.25 13.85 13.75 14.35 L9.45 15.7 Q5.15 16.9 1.05 16.9 -5.55 16.9 -10.75 14.1 L-11.3 13.8 -11.5 13.7 -11.65 13.6 -12.45 13.1 M-7.15 5.55 L-6.6 4.7 -7.25 5.6 -7.15 5.55" fill="#cca9a9" fill-rule="evenodd" stroke="none"/>
  </g>
</svg>