<?xml version="1.0" encoding="UTF-8" standalone="no"?>
<svg xmlns:xlink="http://www.w3.org/1999/xlink" height="79px" width="82.9px" xmlns="http://www.w3.org/2000/svg">
  <g transform="matrix(1.0, 0.0, 0.0, 1.0, 54.45, 74.85)">
    <path d="M18.2 -70.4 L16.95 -71.75 17.55 -65.6 Q17.55 -62.55 16.25 -59.5 L14.9 -56.4 Q14.9 -55.7 16.8 -53.8 L18.0 -52.75 18.5 -54.1 20.15 -57.75 20.45 -56.6 20.25 -55.4 19.4 -51.95 20.4 -51.75 22.0 -51.75 22.55 -53.95 23.25 -55.85 23.35 -56.2 23.45 -56.4 Q23.85 -56.25 23.85 -55.35 23.7 -52.95 23.35 -51.8 L23.4 -51.8 24.75 -51.95 Q26.25 -52.6 26.25 -55.65 26.25 -60.15 24.5 -63.05 L24.35 -63.25 Q23.4 -64.8 18.2 -70.4 M18.95 -72.0 Q22.0 -69.0 24.0 -65.6 L24.05 -65.55 Q27.45 -61.35 27.45 -55.65 27.45 -53.8 27.05 -52.95 25.95 -50.55 22.35 -50.55 18.2 -50.55 15.55 -53.35 13.65 -55.3 13.65 -56.4 L15.05 -59.45 Q16.4 -62.7 16.4 -63.9 L15.5 -72.65 Q15.5 -75.35 18.95 -72.0 M1.8 -53.7 L3.6 -54.45 Q1.9 -57.45 0.6 -61.2 L0.75 -61.2 Q1.8 -60.95 3.25 -58.1 L4.55 -55.0 Q5.7 -55.8 5.7 -56.4 5.7 -57.95 3.8 -60.5 2.1 -62.8 0.05 -64.4 L-0.6 -64.9 -5.8 -69.25 Q-9.45 -72.0 -11.0 -71.3 -9.05 -67.55 -8.75 -64.95 L-8.7 -64.05 Q-8.7 -62.95 -9.65 -60.05 L-10.25 -58.45 Q-11.65 -54.8 -12.15 -53.9 L-10.3 -53.45 -10.25 -53.45 -9.45 -54.95 -8.1 -56.75 Q-7.65 -56.4 -7.65 -55.85 -7.65 -55.55 -8.4 -54.1 L-8.85 -53.35 -1.7 -53.25 0.35 -53.4 0.2 -53.85 -0.15 -55.2 Q-0.15 -55.65 0.2 -55.95 L1.25 -53.55 1.8 -53.7 M2.15 -52.35 L-1.65 -51.9 -11.85 -52.35 -13.35 -52.8 Q-13.65 -52.8 -13.85 -53.85 L-11.9 -58.25 -11.15 -60.05 Q-9.95 -63.1 -9.95 -64.05 -9.95 -65.6 -11.2 -68.45 L-12.5 -71.55 Q-12.5 -73.6 -9.45 -72.55 -6.7 -71.6 -2.8 -68.7 L-0.6 -66.95 Q6.9 -60.75 6.9 -56.4 6.9 -55.25 5.2 -53.85 3.9 -52.85 2.15 -52.35 M-51.15 -17.4 Q-47.9 -17.45 -43.9 -15.85 -39.85 -14.3 -38.6 -14.3 -36.95 -14.3 -35.95 -17.6 L-38.1 -18.3 -41.15 -18.9 -41.3 -19.2 -37.5 -19.4 Q-36.25 -19.15 -35.6 -18.75 L-35.25 -20.8 -36.9 -21.35 -39.3 -22.2 Q-37.65 -22.9 -35.95 -22.5 L-35.15 -22.25 -35.15 -22.0 -35.15 -22.3 Q-35.3 -23.95 -36.75 -24.3 -38.9 -24.75 -44.55 -22.65 -46.1 -22.0 -48.05 -20.35 L-51.15 -17.45 -51.15 -17.4 M-53.35 -16.85 Q-52.8 -18.55 -48.4 -21.65 -42.95 -25.55 -38.75 -25.55 -35.35 -25.55 -34.5 -23.45 -34.25 -22.9 -34.2 -21.1 L-34.2 -20.45 Q-34.2 -18.4 -35.2 -16.4 -36.8 -13.1 -40.4 -13.1 L-43.75 -14.45 Q-46.65 -15.8 -52.7 -15.8 -53.25 -15.8 -53.4 -16.05 L-53.45 -16.4 -53.35 -16.85 M-33.95 -5.55 L-32.75 -4.8 Q-31.55 -4.05 -28.85 -4.05 -26.65 -4.05 -25.3 -5.05 -24.0 -6.1 -22.75 -5.4 L-20.55 -3.75 Q-19.6 -2.85 -19.85 -1.55 -20.1 -0.25 -20.95 0.9 -22.25 2.55 -24.7 2.55 -29.7 2.55 -32.55 -0.95 -34.55 -3.35 -34.55 -5.05 -34.55 -5.55 -33.95 -5.55 M-33.25 -3.4 Q-32.8 -2.2 -30.4 -0.45 -27.5 1.7 -25.4 1.55 -23.3 1.35 -22.2 0.3 -21.15 -0.8 -20.9 -2.1 -20.65 -3.45 -22.15 -4.25 L-24.55 -4.15 Q-25.75 -2.85 -28.15 -2.85 L-31.5 -3.1 Q-30.05 -1.85 -28.5 -1.55 L-28.5 -1.5 -28.75 -1.3 -29.25 -1.2 Q-30.4 -1.2 -32.4 -2.75 L-33.25 -3.4 M-17.0 -0.45 Q-17.45 0.65 -19.25 2.2 -21.05 3.7 -20.65 2.8 L-19.0 0.4 Q-17.75 -1.05 -17.75 -2.4 -17.75 -3.65 -18.75 -4.85 L-19.8 -6.05 -19.7 -6.3 Q-17.7 -5.35 -17.15 -4.55 -16.7 -3.95 -16.65 -2.75 -16.6 -1.55 -17.0 -0.45" fill="#885f55" fill-rule="evenodd" stroke="none"/>
    <path d="M23.25 -55.85 L22.55 -53.95 22.0 -51.75 20.4 -51.75 19.4 -51.95 20.25 -55.4 20.45 -56.6 20.15 -57.75 18.5 -54.1 18.0 -52.75 16.8 -53.8 Q14.9 -55.7 14.9 -56.4 L16.25 -59.5 Q17.55 -62.55 17.55 -65.6 L16.95 -71.75 18.2 -70.4 20.2 -65.55 20.95 -61.65 21.15 -59.3 21.25 -59.3 21.7 -60.7 22.15 -61.95 Q23.35 -57.9 23.25 -55.85 M24.5 -63.05 Q26.25 -60.15 26.25 -55.65 26.25 -52.6 24.75 -51.95 L23.4 -51.8 23.35 -51.8 Q23.7 -52.95 23.85 -55.35 23.85 -56.25 23.45 -56.4 L23.35 -56.2 24.0 -58.9 Q24.5 -60.9 24.5 -62.35 L24.5 -63.05 M-8.75 -64.95 Q-8.2 -67.05 -8.2 -67.95 L-8.15 -67.95 Q-7.2 -65.95 -6.6 -62.6 L-6.25 -60.05 -6.25 -57.55 -6.2 -57.5 Q-5.85 -58.5 -5.6 -60.05 L-5.2 -65.3 Q-3.35 -64.7 -0.95 -60.45 L-0.7 -60.05 Q0.95 -56.9 1.8 -53.7 L1.25 -53.55 0.2 -55.95 Q-0.15 -55.65 -0.15 -55.2 L0.2 -53.85 0.35 -53.4 -1.7 -53.25 -8.85 -53.35 -8.4 -54.1 Q-7.65 -55.55 -7.65 -55.85 -7.65 -56.4 -8.1 -56.75 L-9.45 -54.95 -10.25 -53.45 -10.3 -53.45 -12.15 -53.9 Q-11.65 -54.8 -10.25 -58.45 L-9.65 -60.05 Q-8.7 -62.95 -8.7 -64.05 L-8.75 -64.95 M-51.15 -17.4 L-50.2 -17.8 -47.85 -18.3 -45.6 -18.5 -43.05 -18.65 -41.55 -18.7 -46.4 -19.65 Q-44.8 -20.45 -42.35 -20.9 L-37.5 -21.35 -36.9 -21.35 -35.25 -20.8 -35.6 -18.75 Q-36.25 -19.15 -37.5 -19.4 L-41.3 -19.2 -41.15 -18.9 -38.1 -18.3 -35.95 -17.6 Q-36.95 -14.3 -38.6 -14.3 -39.85 -14.3 -43.9 -15.85 -47.9 -17.45 -51.15 -17.4 M-33.25 -3.4 L-32.4 -2.75 Q-30.4 -1.2 -29.25 -1.2 L-28.75 -1.3 -28.5 -1.5 -28.5 -1.55 Q-30.05 -1.85 -31.5 -3.1 L-28.15 -2.85 Q-25.75 -2.85 -24.55 -4.15 L-22.15 -4.25 Q-20.65 -3.45 -20.9 -2.1 -21.15 -0.8 -22.2 0.3 -23.3 1.35 -25.4 1.55 -27.5 1.7 -30.4 -0.45 -32.8 -2.2 -33.25 -3.4" fill="#c9a97a" fill-rule="evenodd" stroke="none"/>
    <path d="M18.2 -70.4 Q23.4 -64.8 24.35 -63.25 L24.5 -63.05 24.5 -62.35 Q24.5 -60.9 24.0 -58.9 L23.35 -56.2 23.25 -55.85 Q23.35 -57.9 22.15 -61.95 L21.7 -60.7 21.25 -59.3 21.15 -59.3 20.95 -61.65 20.2 -65.55 18.2 -70.4 M-8.75 -64.95 Q-9.05 -67.55 -11.0 -71.3 -9.45 -72.0 -5.8 -69.25 L-0.6 -64.9 0.05 -64.4 Q2.1 -62.8 3.8 -60.5 5.7 -57.95 5.7 -56.4 5.7 -55.8 4.55 -55.0 L3.25 -58.1 Q1.8 -60.95 0.75 -61.2 L0.6 -61.2 Q1.9 -57.45 3.6 -54.45 L1.8 -53.7 Q0.95 -56.9 -0.7 -60.05 L-0.95 -60.45 Q-3.35 -64.7 -5.2 -65.3 L-5.6 -60.05 Q-5.85 -58.5 -6.2 -57.5 L-6.25 -57.55 -6.25 -60.05 -6.6 -62.6 Q-7.2 -65.95 -8.15 -67.95 L-8.2 -67.95 Q-8.2 -67.05 -8.75 -64.95 M-36.9 -21.35 L-37.5 -21.35 -42.35 -20.9 Q-44.8 -20.45 -46.4 -19.65 L-41.55 -18.7 -43.05 -18.65 -45.6 -18.5 -47.85 -18.3 -50.2 -17.8 -51.15 -17.4 -51.15 -17.45 -48.05 -20.35 Q-46.1 -22.0 -44.55 -22.65 -38.9 -24.75 -36.75 -24.3 -35.3 -23.95 -35.15 -22.3 L-35.15 -22.25 -35.95 -22.5 Q-37.65 -22.9 -39.3 -22.2 L-36.9 -21.35" fill="#ffffcc" fill-rule="evenodd" stroke="none"/>
  </g>
</svg>