<?xml version="1.0" encoding="UTF-8" standalone="no"?>
<svg xmlns:xlink="http://www.w3.org/1999/xlink" height="57px" width="40.75px" xmlns="http://www.w3.org/2000/svg">
  <g transform="matrix(1.0, 0.0, 0.0, 1.0, 20.4, 28.5)">
    <path d="M-17.0 3.95 L-17.1 3.35 -17.45 0.75 Q-17.85 -3.5 -17.35 -7.9 -17.25 -15.35 -10.9 -21.2 L-10.05 -21.95 -9.15 -22.7 Q-3.75 -26.9 1.6 -25.75 3.75 -25.45 5.45 -24.25 L7.25 -22.6 9.3 -19.9 8.8 -19.8 Q2.85 -18.6 0.05 -16.35 -1.15 -15.4 -1.75 -14.25 -3.25 -11.5 -3.5 -5.85 -3.8 -0.15 -4.7 1.65 -5.8 3.75 -8.5 4.5 L-12.0 4.9 -15.2 4.55 -17.0 3.95" fill="#f2eaea" fill-rule="evenodd" stroke="none"/>
    <path d="M9.3 -19.9 L7.25 -22.6 5.45 -24.25 Q3.75 -25.45 1.6 -25.75 -3.75 -26.9 -9.15 -22.7 L-10.05 -21.95 -10.9 -21.2 Q-17.25 -15.35 -17.35 -7.9 -17.85 -3.5 -17.45 0.75 L-17.1 3.35 -17.0 3.95 -16.35 6.8 -16.35 6.9 -15.75 8.85 -15.7 9.0 Q-14.7 11.85 -13.15 14.5 -11.85 16.8 -10.05 18.7 -7.85 21.15 -4.85 22.95 -2.3 24.45 0.5 25.2 L7.6 25.75 Q11.7 24.35 14.05 21.6 15.9 19.4 16.65 16.4 18.4 9.45 17.4 3.0 16.35 -3.55 14.35 -9.65 L14.25 -10.05 14.1 -10.4 12.95 -13.35 12.9 -13.45 Q11.4 -16.85 9.3 -19.9 M15.15 -11.85 L15.3 -11.55 17.4 -4.95 Q19.4 2.25 19.35 9.6 19.3 16.3 15.85 21.8 14.2 24.4 11.95 25.8 8.45 28.05 3.55 27.3 1.05 27.0 -1.25 26.25 -5.05 24.95 -8.2 22.3 L-10.2 20.5 Q-14.5 16.25 -16.65 10.65 L-17.55 8.05 -17.85 7.0 -18.75 3.15 -18.8 2.8 Q-19.35 -0.35 -19.4 -3.6 -19.45 -10.4 -16.5 -16.35 L-16.45 -16.35 -15.35 -18.2 Q-14.0 -20.3 -12.3 -21.95 L-10.2 -23.75 Q-7.95 -25.45 -5.25 -26.55 -1.55 -28.15 2.05 -27.1 L2.7 -26.9 Q8.15 -24.9 11.25 -20.25 L12.55 -18.0 14.0 -14.8 15.15 -11.85" fill="#a36a6a" fill-rule="evenodd" stroke="none"/>
    <path d="M14.25 -10.05 L14.35 -9.65 Q16.35 -3.55 17.4 3.0 18.4 9.45 16.65 16.4 15.9 19.4 14.05 21.6 11.7 24.35 7.6 25.75 L0.5 25.2 Q-2.3 24.45 -4.85 22.95 -7.85 21.15 -10.05 18.7 -11.85 16.8 -13.15 14.5 -14.7 11.85 -15.7 9.0 L-15.6 8.95 -13.9 10.05 -12.05 10.7 -10.25 10.9 -9.95 10.9 Q-8.5 10.8 -6.65 10.0 -3.2 8.45 1.6 4.2 L5.9 0.1 Q9.75 -3.95 13.4 -8.9 L14.25 -10.05" fill="#cca9a9" fill-rule="evenodd" stroke="none"/>
    <path d="M-17.0 3.95 L-15.2 4.55 -12.0 4.9 -8.5 4.5 Q-5.8 3.75 -4.7 1.65 -3.8 -0.15 -3.5 -5.85 -3.25 -11.5 -1.75 -14.25 -1.15 -15.4 0.05 -16.35 2.85 -18.6 8.8 -19.8 L9.3 -19.9 Q11.4 -16.85 12.9 -13.45 L12.95 -13.35 14.1 -10.4 14.25 -10.05 13.4 -8.9 Q9.75 -3.95 5.9 0.1 L1.6 4.2 Q-3.2 8.45 -6.65 10.0 -8.5 10.8 -9.95 10.9 L-10.25 10.9 -12.05 10.7 -13.9 10.05 -15.6 8.95 -15.7 9.0 -15.75 8.85 -16.35 6.9 -16.35 6.8 -17.0 3.95" fill="#e0cbcb" fill-rule="evenodd" stroke="none"/>
  </g>
</svg>