<?xml version="1.0" encoding="UTF-8" standalone="no"?>
<svg xmlns:xlink="http://www.w3.org/1999/xlink" height="36.8px" width="53.75px" xmlns="http://www.w3.org/2000/svg">
  <g transform="matrix(1.0, 0.0, 0.0, 1.0, 26.9, 18.4)">
    <path d="M9.8 -15.9 L-1.55 -15.55 Q-6.9 -14.65 -9.25 -13.05 -16.5 -11.4 -19.55 -4.2 -21.45 0.3 -21.45 6.25 L-21.3 10.8 Q-19.75 9.9 -16.45 8.95 -13.2 7.95 -9.4 8.0 -5.6 8.05 -1.75 10.05 2.05 12.0 7.2 12.3 12.3 12.55 15.3 10.5 L20.6 6.5 Q22.85 4.55 23.3 3.4 L23.9 1.35 Q24.5 -0.1 24.5 -2.45 24.5 -14.15 9.8 -15.9 M21.9 -12.35 Q23.75 -10.9 24.8 -8.4 25.85 -5.95 25.85 -2.45 L25.8 1.7 Q25.35 3.7 22.85 6.15 18.8 10.2 14.9 12.0 11.6 13.5 8.1 13.5 1.95 13.5 -1.95 11.25 -5.9 9.0 -8.55 9.0 -13.7 9.0 -17.95 10.7 -20.95 11.9 -21.25 12.55 L-23.15 15.05 Q-24.5 16.7 -25.5 17.4 L-25.9 17.2 Q-23.2 14.4 -22.9 11.65 -22.7 10.0 -23.05 6.4 -23.05 -11.05 -9.7 -14.45 -6.7 -15.8 -4.6 -16.35 L9.9 -17.4 Q14.5 -17.2 17.4 -15.75 L21.9 -12.35" fill="#a36a6a" fill-rule="evenodd" stroke="none"/>
    <path d="M9.8 -15.9 Q24.5 -14.15 24.5 -2.45 24.5 -0.1 23.9 1.35 L23.3 3.4 Q22.85 4.55 20.6 6.5 L15.3 10.5 Q12.3 12.55 7.2 12.3 2.05 12.0 -1.75 10.05 -5.6 8.05 -9.4 8.0 -13.2 7.95 -16.45 8.95 -19.75 9.9 -21.3 10.8 L-21.45 6.25 Q-21.45 0.3 -19.55 -4.2 -16.5 -11.4 -9.25 -13.05 -6.9 -14.65 -1.55 -15.55 L9.8 -15.9" fill="url(#gradient0)" fill-rule="evenodd" stroke="none"/>
    <path d="M-11.65 4.85 L-11.7 5.0 -13.2 5.35 Q-14.65 5.55 -15.4 4.75 L-15.35 3.5 -11.65 4.85 M-10.9 -3.8 L-10.75 -2.8 -10.6 -2.55 -10.45 -2.25 -9.95 -1.3 Q-9.85 -1.0 -10.1 -0.9 L-10.6 -0.95 -11.25 -1.75 Q-12.0 -2.8 -12.4 -3.95 -12.05 -5.7 -10.6 -6.6 -6.9 -8.95 -2.6 -8.9 L-2.0 -8.7 -2.4 -8.05 -3.15 -7.95 -5.35 -7.9 Q-8.85 -6.65 -10.9 -3.8 M-17.15 -2.65 L-15.75 -4.55 Q-14.9 -5.75 -13.65 -5.7 L-13.75 -5.45 -15.2 -2.75 -17.3 2.15 -17.3 2.25 -16.75 2.9 Q-16.6 3.1 -16.85 3.4 L-18.0 3.55 -18.4 2.55 Q-18.75 -0.25 -17.15 -2.65 M-11.9 -7.0 L-12.55 -7.15 Q-12.7 -7.65 -12.15 -8.05 -10.45 -9.2 -8.4 -9.95 L-5.85 -10.8 -4.65 -10.7 -11.9 -7.0 M1.1 7.0 L1.1 7.1 Q-1.2 7.75 -3.45 6.7 L-7.75 4.7 -7.7 4.6 Q-6.0 4.05 -4.25 5.05 L-0.15 6.05 Q0.75 6.35 1.1 7.0 M4.55 8.35 Q4.4 7.95 4.75 7.95 L5.3 8.2 7.5 8.35 Q6.7 9.85 4.85 8.9 L4.55 8.35 M1.0 3.5 L0.9 3.5 -3.1 2.75 Q-5.5 2.3 -6.4 0.0 L-5.7 -0.5 -5.5 -0.35 Q-3.85 2.25 -0.8 2.6 L1.05 3.3 1.0 3.5 M11.25 8.35 L11.35 8.5 11.25 8.7 10.9 8.75 10.6 8.7 10.45 8.5 10.6 8.35 Q10.7 8.25 10.9 8.25 L11.25 8.35 M11.6 2.8 Q12.15 1.85 12.35 0.65 L13.05 0.75 Q13.95 1.85 13.65 3.2 L12.4 4.15 Q11.1 5.05 9.65 5.55 L8.05 5.75 5.55 5.2 Q4.55 5.25 4.2 4.6 L4.4 4.45 8.6 4.7 10.55 3.8 11.6 2.8 M19.55 -3.85 L20.0 -2.15 Q20.05 3.0 16.1 6.1 14.7 7.25 12.95 7.85 L12.75 7.85 12.85 7.6 14.1 6.6 16.7 3.85 Q17.55 2.8 17.9 1.55 L19.35 -3.65 19.55 -3.85 M10.9 -8.6 L12.5 -7.1 Q13.2 -6.55 12.8 -5.9 L12.65 -5.85 Q11.2 -7.05 10.05 -8.7 10.25 -9.25 10.9 -8.6 M1.35 -2.05 L1.85 -1.65 Q3.6 -0.8 4.1 0.2 L3.9 0.35 Q2.95 0.2 2.15 -0.5 1.45 -1.2 1.05 -2.05 0.9 -2.45 1.35 -2.05 M2.6 -5.85 Q3.95 -6.0 5.05 -5.4 L6.25 -4.4 Q7.95 -2.8 9.2 -0.9 L9.05 0.0 Q8.6 0.85 7.8 0.9 L7.6 0.75 Q7.4 0.0 7.95 -0.75 L5.65 -3.0 5.05 -3.45 Q2.25 -5.05 -0.95 -4.7 L-4.2 -4.1 Q-4.65 -4.55 -4.05 -4.8 -2.2 -5.75 -0.1 -5.8 L2.6 -5.85" fill="#c29a9a" fill-rule="evenodd" stroke="none"/>
  </g>
  <defs>
    <radialGradient cx="0" cy="0" gradientTransform="matrix(0.0449, 0.0, 0.0, 0.0263, 2.45, 6.2)" gradientUnits="userSpaceOnUse" id="gradient0" r="819.2" spreadMethod="pad">
      <stop offset="0.0" stop-color="#f2eaea"></stop>
      <stop offset="1.0" stop-color="#cca9a9"></stop>
    </radialGradient>
  </defs>
</svg>