<?xml version="1.0" encoding="UTF-8" standalone="no"?>
<svg xmlns:xlink="http://www.w3.org/1999/xlink" height="61px" width="67.85px" xmlns="http://www.w3.org/2000/svg">
  <g transform="matrix(1.0, 0.0, 0.0, 1.0, 33.9, 30.5)">
    <path d="M-27.65 3.05 Q-28.1 -1.2 -27.55 -5.55 -27.25 -8.05 -26.5 -10.4 L-24.35 -15.4 Q-22.8 -18.25 -20.5 -20.8 -14.9 -26.9 -6.65 -27.8 L-3.5 -27.85 -1.55 -27.35 -1.2 -27.2 -3.65 -25.65 -7.1 -22.4 Q-12.55 -16.05 -12.55 -6.0 L-12.4 -3.75 -12.05 -1.3 Q-13.05 0.5 -15.75 2.25 L-17.05 3.05 Q-19.95 4.55 -22.95 4.65 L-23.3 4.65 Q-25.1 4.65 -26.05 4.0 L-27.65 3.05 M22.5 -21.7 Q21.55 -20.9 19.15 -20.2 L14.25 -19.05 Q12.1 -18.3 10.7 -16.8 9.4 -15.35 8.5 -12.95 7.0 -9.15 3.3 -5.7 -0.55 -2.1 -4.45 -1.5 L-6.05 -1.4 Q-7.5 -1.4 -9.5 -2.2 L-10.9 -2.9 -11.3 -5.9 Q-11.3 -8.15 -10.5 -12.0 -9.65 -16.0 -8.75 -17.55 -6.5 -21.35 -3.65 -23.75 1.3 -27.9 8.1 -27.9 14.05 -27.9 18.75 -24.85 20.7 -23.55 22.5 -21.7 M-31.65 4.4 Q-31.8 1.65 -31.35 -1.1 -30.6 -5.9 -28.8 -10.4 L-26.85 -13.45 -28.15 -10.4 Q-30.35 -4.25 -29.25 2.95 L-28.95 4.55 -28.8 5.25 Q-29.25 5.6 -29.8 5.6 -30.3 5.6 -31.1 4.9 L-31.65 4.4" fill="#f2eaea" fill-rule="evenodd" stroke="none"/>
    <path d="M0.6 -28.05 Q3.3 -29.15 6.4 -29.4 14.45 -30.1 20.2 -25.15 L22.45 -23.15 23.05 -22.6 25.55 -20.1 27.0 -18.15 28.4 -15.45 29.25 -13.8 30.15 -11.25 31.75 -6.15 32.75 -0.8 32.95 4.0 Q32.95 9.05 29.3 13.05 25.8 16.95 21.7 16.95 L21.15 16.95 Q20.1 19.05 18.55 20.65 14.6 24.75 9.05 24.75 L6.4 24.45 Q6.25 25.75 3.1 27.55 1.7 28.3 -0.1 28.75 -4.4 29.95 -8.7 29.2 -13.2 28.25 -16.65 26.1 L-17.1 26.35 Q-19.35 26.3 -21.4 25.35 -26.7 22.9 -29.2 17.85 -31.45 13.35 -32.35 8.5 L-32.55 7.25 Q-33.0 4.6 -32.9 1.95 -32.85 -0.95 -32.2 -3.85 -31.5 -7.3 -30.1 -10.4 L-29.15 -12.3 -27.45 -15.05 -27.25 -15.35 -24.95 -16.8 -24.35 -17.8 Q-21.65 -21.85 -18.05 -24.7 -11.2 -30.05 -2.75 -29.4 L-1.1 -28.95 Q0.05 -28.5 0.6 -28.05 M-12.05 -1.3 L-12.4 -3.75 -12.55 -6.0 Q-12.55 -16.05 -7.1 -22.4 L-3.65 -25.65 -1.2 -27.2 -1.55 -27.35 -3.5 -27.85 -6.65 -27.8 Q-14.9 -26.9 -20.5 -20.8 -22.8 -18.25 -24.35 -15.4 L-26.5 -10.4 Q-27.25 -8.05 -27.55 -5.55 -28.1 -1.2 -27.65 3.05 L-27.5 4.3 -27.35 5.2 -26.95 7.05 -25.65 11.3 -25.6 11.5 Q-22.95 18.45 -17.3 23.35 -10.55 29.15 -1.7 27.95 1.05 27.45 3.15 25.9 L5.3 24.15 Q1.85 23.0 -1.3 19.8 L-3.65 17.2 Q-6.8 13.55 -8.8 9.85 -9.6 8.35 -10.8 4.05 L-11.1 2.8 -11.2 2.55 -12.05 -1.3 M-10.9 -2.9 L-10.05 1.0 -9.75 2.05 -9.25 3.95 Q-7.8 8.8 -5.25 12.8 L-3.65 15.2 Q-1.35 18.35 1.25 20.5 4.8 23.4 8.8 23.4 14.35 23.4 17.85 19.5 19.1 18.05 20.8 14.55 L22.6 10.0 Q23.85 7.2 26.4 5.55 L26.7 5.6 26.8 5.85 25.0 9.05 Q23.0 12.5 21.85 15.45 L23.2 14.95 26.5 13.8 28.4 12.25 29.55 10.5 31.6 6.9 31.65 4.0 Q31.65 -1.9 29.45 -8.75 L27.25 -15.1 27.25 -15.3 25.0 -18.75 22.5 -21.7 Q20.7 -23.55 18.75 -24.85 14.05 -27.9 8.1 -27.9 1.3 -27.9 -3.65 -23.75 -6.5 -21.35 -8.75 -17.55 -9.65 -16.0 -10.5 -12.0 -11.3 -8.15 -11.3 -5.9 L-10.9 -2.9 M-28.8 5.25 L-28.95 4.55 -29.25 2.95 Q-30.35 -4.25 -28.15 -10.4 L-26.85 -13.45 -28.8 -10.4 Q-30.6 -5.9 -31.35 -1.1 -31.8 1.65 -31.65 4.4 L-31.6 4.8 Q-31.55 6.8 -31.1 8.85 L-30.9 9.7 Q-29.65 14.65 -26.9 19.0 -23.65 24.0 -17.8 25.4 L-17.75 25.35 -18.35 24.9 -18.6 24.7 -18.7 24.65 Q-20.8 22.9 -22.4 20.6 -25.05 16.8 -26.8 12.2 L-28.1 8.15 -28.8 5.25" fill="#a36a6a" fill-rule="evenodd" stroke="none"/>
    <path d="M-27.65 3.05 L-26.05 4.0 Q-25.1 4.65 -23.3 4.65 L-22.95 4.65 Q-19.95 4.55 -17.05 3.05 L-15.75 2.25 Q-13.05 0.5 -12.05 -1.3 L-11.2 2.55 -11.1 2.8 -11.95 3.95 Q-13.1 5.1 -15.0 5.95 -17.85 7.2 -20.7 7.2 L-23.5 6.95 Q-25.85 6.5 -27.35 5.2 L-27.5 4.3 -27.65 3.05 M-10.9 -2.9 L-9.5 -2.2 Q-7.5 -1.4 -6.05 -1.4 L-4.45 -1.5 Q-0.55 -2.1 3.3 -5.7 7.0 -9.15 8.5 -12.95 9.4 -15.35 10.7 -16.8 12.1 -18.3 14.25 -19.05 L19.15 -20.2 Q21.55 -20.9 22.5 -21.7 L25.0 -18.75 Q24.1 -17.6 22.15 -17.25 L15.5 -15.7 Q13.85 -14.8 12.95 -12.85 L11.15 -8.25 Q8.75 -2.7 5.2 -0.3 1.5 2.2 -4.75 2.2 L-6.6 2.1 -8.4 1.65 -10.05 1.0 -10.9 -2.9 M-28.8 5.25 L-28.1 8.15 -28.45 8.35 Q-29.45 8.9 -30.05 8.9 L-30.25 8.9 -31.1 8.85 Q-31.55 6.8 -31.6 4.8 L-31.65 4.4 -31.1 4.9 Q-30.3 5.6 -29.8 5.6 -29.25 5.6 -28.8 5.25" fill="#e0cbcb" fill-rule="evenodd" stroke="none"/>
    <path d="M-11.1 2.8 L-10.8 4.05 Q-9.6 8.35 -8.8 9.85 -6.8 13.55 -3.65 17.2 L-1.3 19.8 Q1.85 23.0 5.3 24.15 L3.15 25.9 Q1.05 27.45 -1.7 27.95 -10.55 29.15 -17.3 23.35 -22.95 18.45 -25.6 11.5 L-25.65 11.3 -26.95 7.05 -27.35 5.2 Q-25.85 6.5 -23.5 6.95 L-20.7 7.2 Q-17.85 7.2 -15.0 5.95 -13.1 5.1 -11.95 3.95 L-11.1 2.8 M-10.05 1.0 L-8.4 1.65 -6.6 2.1 -4.75 2.2 Q1.5 2.2 5.2 -0.3 8.75 -2.7 11.15 -8.25 L12.95 -12.85 Q13.85 -14.8 15.5 -15.7 L22.15 -17.25 Q24.1 -17.6 25.0 -18.75 L27.25 -15.3 27.25 -15.1 29.45 -8.75 Q31.65 -1.9 31.65 4.0 L31.6 6.9 29.55 10.5 28.4 12.25 26.5 13.8 23.2 14.95 21.85 15.45 Q23.0 12.5 25.0 9.05 L26.8 5.85 26.7 5.6 26.4 5.55 Q23.85 7.2 22.6 10.0 L20.8 14.55 Q19.1 18.05 17.85 19.5 14.35 23.4 8.8 23.4 4.8 23.4 1.25 20.5 -1.35 18.35 -3.65 15.2 L-5.25 12.8 Q-7.8 8.8 -9.25 3.95 L-9.75 2.05 -10.05 1.0 M-28.1 8.15 L-26.8 12.2 Q-25.05 16.8 -22.4 20.6 -20.8 22.9 -18.7 24.65 L-18.6 24.7 -18.35 24.9 -17.75 25.35 -17.8 25.4 Q-23.65 24.0 -26.9 19.0 -29.65 14.65 -30.9 9.7 L-31.1 8.85 -30.25 8.9 -30.05 8.9 Q-29.45 8.9 -28.45 8.35 L-28.1 8.15" fill="#cca9a9" fill-rule="evenodd" stroke="none"/>
  </g>
</svg>