<?xml version="1.0" encoding="UTF-8" standalone="no"?>
<svg xmlns:xlink="http://www.w3.org/1999/xlink" height="37.2px" width="63.6px" xmlns="http://www.w3.org/2000/svg">
  <g transform="matrix(1.0, 0.0, 0.0, 1.0, 37.2, 31.75)">
    <path d="M-27.35 2.8 L-22.4 3.45 -25.8 3.95 -30.7 4.45 Q-33.6 4.4 -36.2 3.55 L-36.1 2.85 -35.9 2.2 -35.25 1.1 -34.3 0.25 Q-33.0 0.85 -31.65 1.4 L-27.35 2.8 M5.6 -8.15 L4.95 -7.75 0.45 -5.4 Q-4.9 -2.9 -8.9 -2.0 L-15.4 -0.75 -20.25 -0.25 -24.1 -0.9 -26.25 -1.75 -25.3 -2.25 Q-24.2 -2.6 -22.95 -3.35 L-22.2 -4.1 Q-21.5 -5.3 -21.35 -6.65 -21.05 -8.85 -20.05 -10.65 -19.3 -11.9 -17.85 -11.9 L-12.6 -11.6 Q-10.9 -11.7 -9.45 -12.35 L-6.95 -13.25 Q-6.0 -13.45 -5.05 -13.25 -4.1 -12.9 -3.2 -12.25 -1.05 -10.75 1.55 -10.4 L7.4 -10.6 Q8.0 -10.75 8.1 -10.1 L7.4 -9.4 Q6.65 -8.65 5.6 -8.15 M24.1 -30.5 L25.2 -30.75 Q25.8 -28.85 24.8 -26.8 L22.95 -23.6 19.5 -19.85 Q16.55 -17.15 12.9 -15.85 9.05 -14.6 5.1 -15.15 L2.15 -15.8 -0.45 -16.5 -2.85 -17.15 Q-4.6 -17.6 -6.0 -18.5 L-4.3 -22.2 -2.65 -24.4 Q-0.85 -26.5 1.4 -28.1 2.3 -28.65 3.3 -28.8 L6.35 -29.1 11.65 -29.3 16.35 -29.3 20.5 -29.6 24.1 -30.5" fill="#99cc00" fill-rule="evenodd" stroke="none"/>
  </g>
</svg>