<?xml version="1.0" encoding="UTF-8" standalone="no"?>
<svg xmlns:xlink="http://www.w3.org/1999/xlink" height="24.95px" width="19.4px" xmlns="http://www.w3.org/2000/svg">
  <g transform="matrix(1.0, 0.0, 0.0, 1.0, 40.75, 52.15)">
    <path d="M-32.15 -51.15 Q-27.25 -50.5 -24.6 -48.65 -22.35 -47.1 -22.35 -45.3 -22.35 -43.4 -23.9 -41.0 -26.25 -37.35 -30.6 -37.35 -31.3 -37.35 -32.1 -39.6 L-33.15 -42.95 Q-33.55 -44.2 -36.2 -46.2 L-38.7 -48.35 -38.65 -48.5 Q-38.45 -49.2 -36.35 -50.1 -34.0 -51.1 -32.15 -51.15 M-23.65 -44.4 L-23.6 -45.2 Q-23.6 -46.95 -27.8 -49.05 -32.7 -51.5 -36.75 -48.45 L-36.8 -48.45 -36.7 -48.35 -34.05 -46.2 Q-32.4 -44.8 -32.1 -43.85 -30.75 -39.05 -30.3 -39.05 -27.45 -39.05 -25.45 -41.0 -24.45 -42.0 -24.0 -43.1 L-24.15 -42.95 -26.05 -44.5 Q-27.75 -46.0 -28.4 -47.0 L-28.55 -47.25 Q-27.1 -46.95 -25.55 -45.6 L-25.5 -45.6 Q-24.2 -44.55 -23.8 -43.65 L-23.65 -44.4 M-26.75 -40.0 L-27.45 -39.6 -29.05 -41.9 -31.5 -45.6 Q-30.4 -45.45 -28.6 -43.35 -26.75 -41.25 -26.75 -40.1 L-26.75 -40.0 M-35.25 -33.45 Q-36.5 -34.85 -38.55 -34.85 L-37.3 -31.5 Q-36.45 -29.3 -35.85 -29.3 -34.7 -29.3 -34.35 -30.3 -34.15 -30.8 -34.2 -31.35 -34.2 -32.4 -35.25 -33.45 M-39.75 -35.25 Q-39.75 -37.25 -36.25 -35.4 -32.75 -33.55 -32.75 -32.2 -32.75 -31.1 -33.2 -30.05 -34.0 -28.2 -35.7 -28.2 -37.4 -28.2 -37.95 -29.75 L-38.4 -31.7 -39.75 -35.25" fill="#885f55" fill-rule="evenodd" stroke="none"/>
    <path d="M-36.75 -48.45 Q-32.7 -51.5 -27.8 -49.05 -23.6 -46.95 -23.6 -45.2 L-23.65 -44.4 -25.5 -45.6 -25.55 -45.6 Q-27.1 -46.95 -28.55 -47.25 L-28.4 -47.0 -32.1 -48.5 -32.1 -48.35 Q-31.65 -48.15 -30.45 -47.05 L-29.3 -45.95 -29.45 -45.95 -32.3 -47.15 -36.7 -48.35 -36.75 -48.45" fill="#ffffcc" fill-rule="evenodd" stroke="none"/>
    <path d="M-23.65 -44.4 L-23.8 -43.65 Q-24.2 -44.55 -25.5 -45.6 L-23.65 -44.4 M-28.4 -47.0 Q-27.75 -46.0 -26.05 -44.5 L-24.15 -42.95 -24.0 -43.1 Q-24.45 -42.0 -25.45 -41.0 -27.45 -39.05 -30.3 -39.05 -30.75 -39.05 -32.1 -43.85 -32.4 -44.8 -34.05 -46.2 L-36.7 -48.35 -36.8 -48.45 -36.75 -48.45 -36.7 -48.35 -32.3 -47.15 -29.45 -45.95 -29.3 -45.95 -30.45 -47.05 Q-31.65 -48.15 -32.1 -48.35 L-32.1 -48.5 -28.4 -47.0 M-26.75 -40.0 L-26.75 -40.1 Q-26.75 -41.25 -28.6 -43.35 -30.4 -45.45 -31.5 -45.6 L-29.05 -41.9 -27.45 -39.6 -26.75 -40.0 M-35.25 -33.45 Q-34.2 -32.4 -34.2 -31.35 -34.15 -30.8 -34.35 -30.3 -34.7 -29.3 -35.85 -29.3 -36.45 -29.3 -37.3 -31.5 L-38.55 -34.85 Q-36.5 -34.85 -35.25 -33.45" fill="#c9a97a" fill-rule="evenodd" stroke="none"/>
  </g>
</svg>