<?xml version="1.0" encoding="UTF-8" standalone="no"?>
<svg xmlns:xlink="http://www.w3.org/1999/xlink" height="21.85px" width="10.6px" xmlns="http://www.w3.org/2000/svg">
  <g transform="matrix(1.0, 0.0, 0.0, 1.0, 5.2, 10.9)">
    <path d="M1.75 -6.3 L0.7 -7.1 -0.75 -7.95 Q-4.35 -4.05 -2.35 0.15 -1.15 2.75 0.3 4.8 L2.05 7.0 2.05 5.75 Q2.15 1.55 3.35 -2.9 L3.1 -3.55 Q2.8 -5.05 1.8 -6.25 L1.75 -6.3 M4.15 -1.3 Q2.9 3.35 3.1 8.2 L2.75 9.95 Q-0.25 6.3 -2.85 2.05 -5.6 -2.35 -2.8 -7.05 L-0.9 -9.9 -1.05 -9.15 Q1.0 -8.6 2.45 -7.05 5.1 -4.7 4.15 -1.3" fill="#a36a6a" fill-rule="evenodd" stroke="none"/>
    <path d="M1.75 -6.3 Q0.5 -3.0 0.5 -1.2 L0.65 -0.1 0.85 1.0 1.0 2.7 Q1.0 3.3 1.9 5.35 L2.05 5.75 2.05 7.0 0.3 4.8 Q-1.15 2.75 -2.35 0.15 -4.35 -4.05 -0.75 -7.95 L0.7 -7.1 1.75 -6.3" fill="#cca9a9" fill-rule="evenodd" stroke="none"/>
    <path d="M2.05 5.75 L1.9 5.35 Q1.0 3.3 1.0 2.7 L0.85 1.0 0.65 -0.1 0.5 -1.2 Q0.5 -3.0 1.75 -6.3 L1.8 -6.25 Q2.8 -5.05 3.1 -3.55 L3.35 -2.9 Q2.15 1.55 2.05 5.75" fill="#e9dada" fill-rule="evenodd" stroke="none"/>
  </g>
</svg>