<?xml version="1.0" encoding="UTF-8" standalone="no"?>
<svg xmlns:xlink="http://www.w3.org/1999/xlink" height="9.2px" width="29.05px" xmlns="http://www.w3.org/2000/svg">
  <g transform="matrix(1.0, 0.0, 0.0, 1.0, 11.9, 14.35)">
    <path d="M15.5 -9.75 Q14.7 -8.95 13.4 -8.95 11.65 -8.95 11.1 -9.65 10.8 -10.0 10.8 -10.75 10.8 -13.05 13.5 -13.35 16.15 -13.6 16.15 -11.05 16.15 -10.4 15.5 -9.75 M-6.65 -8.25 Q-6.65 -7.75 -7.3 -7.0 -8.05 -6.15 -8.85 -6.15 -10.05 -6.15 -10.6 -6.95 L-10.9 -7.75 Q-10.9 -8.35 -10.5 -8.9 -9.75 -9.85 -8.05 -9.85 -6.55 -9.85 -6.65 -8.25" fill="#ffffff" fill-opacity="0.8" fill-rule="evenodd" stroke="none"/>
  </g>
</svg>