<?xml version="1.0" encoding="UTF-8" standalone="no"?>
<svg xmlns:xlink="http://www.w3.org/1999/xlink" height="25.55px" width="24.7px" xmlns="http://www.w3.org/2000/svg">
  <g transform="matrix(1.0, 0.0, 0.0, 1.0, 12.35, 12.8)">
    <path d="M8.05 -1.25 Q8.05 -4.15 3.3 -7.2 -1.4 -10.2 -5.8 -10.2 -7.75 -10.2 -8.4 -7.25 L-8.65 -4.15 Q-8.65 -2.45 -7.25 -0.65 -4.7 2.6 1.2 2.6 6.2 2.6 7.55 1.05 8.05 0.5 8.05 -1.25 M10.45 7.4 Q8.3 11.75 2.25 11.75 -4.3 11.75 -8.25 5.05 -11.4 -0.1 -11.35 -4.8 -11.3 -7.7 -10.5 -8.95 -9.95 -9.95 -8.85 -10.65 L-7.55 -11.3 -6.3 -11.75 -6.1 -11.8 -2.55 -11.3 Q1.25 -10.5 4.5 -8.4 11.55 -3.95 11.35 2.75 11.3 4.95 10.45 7.4" fill="#a36a6a" fill-rule="evenodd" stroke="none"/>
    <path d="M8.05 -1.25 Q8.05 0.5 7.55 1.05 6.2 2.6 1.2 2.6 -4.7 2.6 -7.25 -0.65 -8.65 -2.45 -8.65 -4.15 L-8.4 -7.25 Q-7.75 -10.2 -5.8 -10.2 -1.4 -10.2 3.3 -7.2 8.05 -4.15 8.05 -1.25" fill="#f1e9e9" fill-rule="evenodd" stroke="none"/>
  </g>
</svg>