<?xml version="1.0" encoding="UTF-8" standalone="no"?>
<svg xmlns:xlink="http://www.w3.org/1999/xlink" height="19.4px" width="13.9px" xmlns="http://www.w3.org/2000/svg">
  <g transform="matrix(1.0, 0.0, 0.0, 1.0, 19.4, -11.85)">
    <path d="M-10.4 18.3 L-10.65 17.8 -10.85 17.35 -11.75 15.5 Q-12.75 13.6 -13.6 13.6 -14.3 13.6 -15.3 14.95 L-15.3 14.9 -15.7 15.5 -16.0 15.85 -16.2 16.15 -17.2 18.6 -17.4 21.05 -17.5 23.6 Q-17.5 25.3 -17.0 27.55 L-16.6 29.3 -16.55 29.5 -16.5 29.75 -16.5 29.85 -16.5 29.95 -16.6 30.05 -16.95 30.1 Q-17.9 30.1 -18.25 26.1 L-18.4 22.05 Q-18.4 18.65 -17.8 17.25 -15.75 12.85 -13.55 12.85 -12.35 12.85 -11.15 14.95 L-9.75 18.15 -7.3 20.8 Q-6.5 21.65 -6.5 23.45 -6.5 24.6 -6.95 25.3 L-7.55 25.9 -7.6 25.55 -7.4 24.5 -7.35 24.45 -7.2 23.45 Q-7.2 22.1 -8.1 21.3 -9.55 19.95 -10.3 18.55 L-10.4 18.3" fill="#a36a6a" fill-rule="evenodd" stroke="none"/>
    <path d="M-10.4 18.3 L-10.3 18.55 Q-9.55 19.95 -8.1 21.3 -7.2 22.1 -7.2 23.45 L-7.35 24.45 -7.4 24.5 -7.6 25.55 -7.55 25.9 -6.95 25.3 Q-7.15 26.95 -8.45 28.15 -10.7 30.25 -15.85 30.25 L-16.8 30.1 -16.6 30.05 -16.5 29.95 -16.5 29.85 -16.5 29.75 -16.55 29.5 -16.6 29.3 -17.0 27.55 Q-17.5 25.3 -17.5 23.6 L-17.4 21.05 -17.2 18.6 -16.2 16.15 -16.0 15.85 -16.05 17.1 -15.3 18.7 Q-14.25 20.2 -12.75 20.2 -11.25 20.2 -10.55 18.7 L-10.4 18.3" fill="#cca9a9" fill-rule="evenodd" stroke="none"/>
    <path d="M-16.0 15.85 L-15.7 15.5 -15.3 14.9 -15.3 14.95 Q-14.3 13.6 -13.6 13.6 -12.75 13.6 -11.75 15.5 L-10.85 17.35 -10.65 17.8 -10.4 18.3 -10.55 18.7 Q-11.25 20.2 -12.75 20.2 -14.25 20.2 -15.3 18.7 L-16.05 17.1 -16.0 15.85" fill="#e0cbcb" fill-rule="evenodd" stroke="none"/>
  </g>
</svg>