<?xml version="1.0" encoding="UTF-8" standalone="no"?>
<svg xmlns:xlink="http://www.w3.org/1999/xlink" height="23.45px" width="21.9px" xmlns="http://www.w3.org/2000/svg">
  <g transform="matrix(1.0, 0.0, 0.0, 1.0, 10.95, 11.75)">
    <path d="M7.75 6.75 Q8.8 4.6 8.7 2.5 8.65 1.15 8.1 -0.2 4.45 -9.25 -5.45 -9.45 L-5.6 -9.45 -6.0 -9.35 Q-7.2 -9.0 -7.85 -8.15 -8.75 -7.1 -8.75 -5.2 -8.75 -2.8 -7.85 -0.1 L-6.85 2.4 -6.8 2.5 -5.45 4.85 -3.75 6.75 Q-1.05 9.25 2.95 9.25 6.2 9.25 7.75 6.75 M9.2 6.75 Q7.35 10.7 2.1 10.7 -3.6 10.7 -7.15 4.6 -9.95 -0.1 -9.95 -4.35 -9.95 -7.0 -9.3 -8.15 L-7.85 -9.7 -6.7 -10.3 -5.6 -10.7 -5.45 -10.75 -2.35 -10.3 Q0.95 -9.55 3.85 -7.65 10.0 -3.6 9.95 2.5 9.9 4.5 9.2 6.75" fill="#a36a6a" fill-rule="evenodd" stroke="none"/>
  </g>
</svg>