<?xml version="1.0" encoding="UTF-8" standalone="no"?>
<svg xmlns:xlink="http://www.w3.org/1999/xlink" height="27.65px" width="69.8px" xmlns="http://www.w3.org/2000/svg">
  <g transform="matrix(1.0, 0.0, 0.0, 1.0, 13.3, 11.65)">
    <path d="M-8.45 -8.25 L-8.9 -7.85 -9.75 -6.75 Q-10.65 -5.15 -10.65 -4.55 L-10.15 -3.1 -9.35 -1.0 -8.3 1.75 -7.3 4.55 Q-6.0 8.65 -6.0 10.9 L-6.0 11.5 -6.0 12.45 -6.0 12.6 -6.2 13.4 -6.25 13.55 -6.55 13.8 -6.65 13.8 -6.7 13.7 -6.8 13.4 -6.95 12.85 -7.6 10.25 -8.85 4.65 Q-8.95 4.2 -10.75 0.25 -12.3 -3.15 -12.3 -4.6 -12.15 -6.6 -10.55 -8.25 -7.35 -11.55 -0.2 -10.35 6.1 -9.5 12.3 -8.1 L22.1 -5.7 Q25.45 -5.1 30.7 -3.0 36.65 -1.2 46.55 -1.2 L47.75 -0.9 49.8 -1.25 Q55.5 -1.6 55.5 4.05 55.5 6.3 54.45 8.05 52.55 11.25 47.8 11.25 44.8 11.25 42.9 8.75 L42.65 8.4 41.9 7.85 40.95 7.1 39.25 6.8 36.3 6.2 33.1 5.1 30.45 3.95 27.65 2.7 Q25.9 2.0 23.55 1.85 L6.15 0.2 1.45 0.55 Q0.7 1.0 0.9 1.65 L1.75 4.4 1.95 5.05 2.4 6.95 2.4 7.0 2.85 7.5 2.4 7.5 2.35 7.5 2.3 7.45 1.75 7.0 1.35 6.55 1.2 6.35 1.15 6.25 0.45 5.05 -0.3 3.25 -0.65 1.9 -0.8 1.2 -0.8 0.75 Q-0.7 -0.05 0.45 -0.55 1.75 -1.1 4.35 -1.3 9.7 -1.75 26.6 1.05 L27.0 1.15 27.45 1.2 27.7 1.3 28.0 1.4 35.55 4.4 40.5 5.55 41.6 5.9 Q41.65 5.1 42.35 5.1 L42.75 5.45 42.8 5.55 43.9 7.2 43.95 7.3 44.05 7.45 Q45.8 9.75 47.8 9.75 L50.95 9.2 Q51.35 9.05 51.7 8.85 L53.4 7.0 Q54.15 5.65 54.15 3.95 L54.15 3.3 54.15 3.25 Q53.75 -0.05 49.95 -0.05 48.3 -0.05 46.55 0.9 L44.6 1.8 44.35 1.75 44.25 1.65 Q44.1 1.75 44.1 1.4 44.1 1.0 44.65 0.6 L43.4 0.6 Q38.15 0.6 21.2 -4.05 4.25 -8.75 -0.15 -9.1 -4.55 -9.45 -6.3 -9.15 -7.7 -8.9 -8.45 -8.25 M45.55 5.75 Q45.75 4.95 46.6 3.8 48.15 1.75 50.7 1.75 52.45 1.75 53.0 2.6 L53.25 3.85 52.95 4.05 52.4 3.45 52.35 3.4 Q52.0 2.9 51.45 2.8 L51.6 3.45 Q51.6 4.8 50.75 6.05 L49.8 7.05 51.0 6.45 51.35 6.65 50.15 7.6 Q48.9 8.2 47.35 8.2 46.05 8.2 45.65 7.2 L45.5 6.15 45.55 5.75 M-0.15 11.15 L1.2 10.6 Q1.0 11.25 -0.3 12.1 -1.95 13.15 -3.3 12.75 L-3.35 12.5 Q-3.35 12.0 -2.55 11.8 L-0.15 11.15" fill="#a36a6a" fill-rule="evenodd" stroke="none"/>
    <path d="M-9.35 -1.0 L-10.15 -3.1 -10.65 -4.55 Q-10.65 -5.15 -9.75 -6.75 L-8.9 -7.85 -8.45 -8.25 -8.75 -7.6 -9.45 -6.0 Q-9.45 -5.35 -8.55 -4.65 -7.45 -3.75 -5.6 -3.75 L-2.2 -4.1 3.3 -4.5 Q5.2 -4.5 13.45 -2.9 L24.9 -0.45 31.25 0.7 35.0 1.35 38.85 2.55 42.15 2.3 Q44.15 2.15 44.3 4.1 L45.85 2.45 Q47.5 1.1 50.25 1.1 53.2 1.1 54.15 3.25 L54.15 3.3 54.15 3.95 Q54.15 5.65 53.4 7.0 L51.7 8.85 Q51.35 9.05 50.95 9.2 L47.8 9.75 Q45.8 9.75 44.05 7.45 L43.95 7.3 44.05 7.2 43.9 7.2 42.8 5.55 42.8 5.4 42.75 5.45 42.35 5.1 Q41.65 5.1 41.6 5.9 L40.5 5.55 35.55 4.4 28.0 1.4 28.05 1.35 27.7 1.3 27.45 1.2 27.0 1.15 26.6 1.05 Q9.7 -1.75 4.35 -1.3 1.75 -1.1 0.45 -0.55 L-0.2 -0.65 -4.7 -0.15 -8.65 -0.85 -9.35 -1.0 M-6.0 11.5 L-6.0 10.9 Q-6.0 8.65 -7.3 4.55 L-6.0 3.7 Q-4.5 2.7 -2.4 2.7 L-0.3 3.25 0.45 5.05 1.15 6.25 1.2 6.35 0.05 5.55 Q-2.85 4.75 -4.1 5.85 -4.9 6.5 -4.8 7.5 -5.05 9.25 -6.0 11.5 M52.95 4.05 L53.25 3.85 53.0 2.6 Q52.45 1.75 50.7 1.75 48.15 1.75 46.6 3.8 45.75 4.95 45.55 5.75 L45.4 6.1 45.5 6.15 45.65 7.2 Q46.05 8.2 47.35 8.2 48.9 8.2 50.15 7.6 L51.35 6.65 51.0 6.45 49.8 7.05 50.75 6.05 Q51.6 4.8 51.6 3.45 L51.45 2.8 Q52.0 2.9 52.35 3.4 L52.4 3.45 52.95 4.05 M-3.5 1.55 L-2.85 1.5 -3.65 1.65 -3.5 1.55" fill="#e0cbcb" fill-rule="evenodd" stroke="none"/>
    <path d="M-9.35 -1.0 L-8.65 -0.85 -4.7 -0.15 -0.2 -0.65 0.45 -0.55 Q-0.7 -0.05 -0.8 0.75 L-0.8 1.2 -0.65 1.9 -0.3 3.25 -2.4 2.7 Q-4.5 2.7 -6.0 3.7 L-7.3 4.55 -8.3 1.75 -9.35 -1.0 M-3.5 1.55 L-3.65 1.65 -2.85 1.5 -3.5 1.55" fill="#cca9a9" fill-rule="evenodd" stroke="none"/>
    <path d="M27.7 1.3 L28.05 1.35 28.0 1.4 27.7 1.3 M42.75 5.45 L42.8 5.4 42.8 5.55 42.75 5.45 M43.9 7.2 L44.05 7.2 43.95 7.3 43.9 7.2 M50.95 9.2 Q51.35 9.05 51.7 8.85 51.35 9.05 50.95 9.2 M54.15 3.25 Q53.2 1.1 50.25 1.1 47.5 1.1 45.85 2.45 L44.3 4.1 Q44.15 2.15 42.15 2.3 L38.85 2.55 35.0 1.35 31.25 0.7 24.9 -0.45 13.45 -2.9 Q5.2 -4.5 3.3 -4.5 L-2.2 -4.1 -5.6 -3.75 Q-7.45 -3.75 -8.55 -4.65 -9.45 -5.35 -9.45 -6.0 L-8.75 -7.6 -8.45 -8.25 Q-7.7 -8.9 -6.3 -9.15 -4.55 -9.45 -0.15 -9.1 4.25 -8.75 21.2 -4.05 38.15 0.6 43.4 0.6 L44.65 0.6 Q44.1 1.0 44.1 1.4 44.1 1.75 44.25 1.65 L44.35 1.75 44.6 1.8 46.55 0.9 Q48.3 -0.05 49.95 -0.05 53.75 -0.05 54.15 3.25 M2.85 7.5 L2.8 8.75 2.5 11.1 Q1.4 15.0 -2.45 15.0 L-5.4 14.4 -5.45 14.35 -6.55 13.8 -6.25 13.55 -6.2 13.4 -6.0 12.55 -6.0 12.45 -6.0 11.5 Q-5.05 9.25 -4.8 7.5 -4.9 6.5 -4.1 5.85 -2.85 4.75 0.05 5.55 L1.2 6.35 1.35 6.55 1.75 7.0 2.3 7.45 2.35 7.5 2.4 7.5 2.85 7.5 M52.95 4.05 L52.4 3.45 52.35 3.4 52.4 3.45 52.95 4.05 M45.5 6.15 L45.4 6.1 45.55 5.75 45.5 6.15 M-0.15 11.15 L-2.55 11.8 Q-3.35 12.0 -3.35 12.5 L-3.3 12.75 Q-1.95 13.15 -0.3 12.1 1.0 11.25 1.2 10.6 L-0.15 11.15" fill="#f2eaea" fill-rule="evenodd" stroke="none"/>
  </g>
</svg>