<?xml version="1.0" encoding="UTF-8" standalone="no"?>
<svg xmlns:xlink="http://www.w3.org/1999/xlink" height="28.85px" width="30.3px" xmlns="http://www.w3.org/2000/svg">
  <g transform="matrix(1.0, 0.0, 0.0, 1.0, 25.1, 1.1)">
    <path d="M0.25 5.35 L0.35 5.55 Q0.75 6.1 -0.65 4.95 L-0.8 4.9 Q-2.15 3.8 -2.25 3.9 -4.3 2.55 -6.75 1.75 L-7.45 1.55 -7.65 1.5 -8.35 1.4 -12.9 1.25 -15.55 2.1 Q-17.35 2.75 -18.85 4.35 L-19.5 5.05 -20.6 6.55 -20.65 6.65 -21.5 8.45 -21.65 8.8 -22.15 10.25 -22.15 10.3 -22.6 11.7 -22.8 13.2 -22.6 14.85 -22.0 16.85 -21.8 17.3 -20.9 19.8 Q-20.15 21.65 -18.05 23.1 -15.9 24.5 -14.0 25.3 L-10.3 25.7 Q-7.65 25.35 -5.3 24.15 L-3.1 23.0 Q-0.9 21.45 0.6 19.35 1.75 17.75 2.3 15.7 L2.85 12.9 Q3.1 11.45 2.6 10.25 L1.9 8.7 1.5 7.85 1.0 6.9 1.05 6.9 1.25 6.9 1.65 6.95 2.8 7.85 3.4 8.6 Q4.25 9.9 4.2 11.45 4.15 13.75 3.25 16.0 L1.2 20.3 Q0.05 22.4 -1.6 23.8 -3.1 25.1 -5.1 25.85 L-7.65 26.65 -10.2 26.75 -12.9 26.7 -15.45 26.2 -19.0 24.5 Q-20.65 23.5 -21.9 21.6 -23.1 19.7 -23.6 17.3 L-23.95 15.95 Q-24.2 14.65 -23.95 12.75 -23.75 10.8 -22.9 8.9 -22.1 6.9 -21.2 5.6 L-20.75 5.05 -19.15 3.15 Q-18.15 2.2 -16.95 1.55 -14.85 0.5 -12.45 0.15 L-7.8 0.05 Q-5.65 0.5 -3.4 1.55 -2.45 1.95 -1.95 2.75 L-0.9 3.9 0.25 5.35" fill="#a36a6a" fill-rule="evenodd" stroke="none"/>
    <path d="M0.35 5.55 L0.45 5.5 1.25 6.9 1.05 6.9 1.0 6.9 1.5 7.85 1.9 8.7 2.6 10.25 Q3.1 11.45 2.85 12.9 L2.3 15.7 Q1.75 17.75 0.6 19.35 -0.9 21.45 -3.1 23.0 L-5.3 24.15 Q-7.65 25.35 -10.3 25.7 L-14.0 25.3 Q-15.9 24.5 -18.05 23.1 -20.15 21.65 -20.9 19.8 L-21.8 17.3 -22.0 16.85 -22.6 14.85 -22.8 13.2 -22.6 11.7 -22.15 10.3 -22.15 10.25 -21.65 8.8 -21.5 8.45 -20.65 6.65 Q-21.2 8.35 -21.2 9.25 -19.75 13.2 -17.1 13.2 -11.3 13.2 -7.95 9.95 -5.55 7.65 -5.55 5.75 -5.55 3.6 -8.35 1.4 L-7.65 1.5 -7.45 1.55 -6.75 1.75 Q-4.3 2.55 -2.25 3.9 -2.15 3.8 -0.8 4.9 L-0.65 4.95 Q0.75 6.1 0.35 5.55" fill="#cca9a9" fill-rule="evenodd" stroke="none"/>
    <path d="M0.25 5.35 L0.45 5.5 0.35 5.55 0.25 5.35 M-20.65 6.65 L-20.6 6.55 -19.5 5.05 -18.85 4.35 Q-17.35 2.75 -15.55 2.1 L-12.9 1.25 -8.35 1.4 Q-5.55 3.6 -5.55 5.75 -5.55 7.65 -7.95 9.95 -11.3 13.2 -17.1 13.2 -19.75 13.2 -21.2 9.25 -21.2 8.35 -20.65 6.65" fill="#e0cbcb" fill-rule="evenodd" stroke="none"/>
  </g>
</svg>