<?xml version="1.0" encoding="UTF-8" standalone="no"?>
<svg xmlns:xlink="http://www.w3.org/1999/xlink" height="27.6px" width="64.2px" xmlns="http://www.w3.org/2000/svg">
  <g transform="matrix(1.0, 0.0, 0.0, 1.0, -9.25, 17.7)">
    <path d="M20.0 -12.65 Q19.55 -12.75 19.2 -12.95 18.75 -13.1 18.35 -13.35 L17.9 -13.7 Q13.9 -14.4 10.25 -16.2 L11.35 -16.7 Q16.55 -16.85 19.85 -13.05 L20.0 -12.65 M24.55 -9.35 Q23.7 -9.05 22.7 -10.25 L22.55 -10.45 Q23.8 -11.15 24.55 -9.35 M71.9 8.15 Q71.3 8.9 70.55 8.9 70.25 8.9 69.6 8.4 70.55 6.8 71.4 6.15 72.45 5.35 72.45 7.15 L71.9 8.15" fill="#ffffff" fill-opacity="0.69411767" fill-rule="evenodd" stroke="none"/>
  </g>
</svg>