<?xml version="1.0" encoding="UTF-8" standalone="no"?>
<svg xmlns:xlink="http://www.w3.org/1999/xlink" height="39.85px" width="24.9px" xmlns="http://www.w3.org/2000/svg">
  <g transform="matrix(1.0, 0.0, 0.0, 1.0, 12.45, 19.95)">
    <path d="M5.05 -8.05 L4.5 -11.6 4.35 -12.3 4.45 -12.65 4.2 -13.35 4.2 -13.45 4.1 -14.65 3.85 -15.6 Q3.65 -15.7 3.5 -15.2 L3.4 -16.0 3.5 -16.8 Q3.7 -17.55 4.15 -17.55 5.65 -17.5 7.8 -7.75 L7.8 -7.7 7.9 -7.35 8.05 -6.65 8.3 -5.45 5.45 -5.65 5.2 -7.15 5.1 -8.05 5.05 -8.05 M6.4 13.25 L4.3 15.3 Q2.3 16.9 -0.1 17.4 L-6.0 17.25 -7.55 16.1 -8.95 14.3 -9.1 14.05 Q-7.7 13.3 -5.6 12.45 L-3.4 11.7 -2.8 11.7 -1.6 11.7 -1.15 11.7 0.5 12.0 0.5 12.1 0.55 12.0 1.65 12.15 1.7 12.15 3.4 11.75 4.7 10.65 5.1 10.15 6.6 12.5 6.4 13.25" fill="#cca9a9" fill-rule="evenodd" stroke="none"/>
    <path d="M8.3 -5.45 L8.05 -6.65 7.9 -7.35 7.8 -7.7 7.8 -7.75 Q5.65 -17.5 4.15 -17.55 3.7 -17.55 3.5 -16.8 L3.4 -16.0 3.5 -15.2 Q3.65 -15.7 3.85 -15.6 L4.1 -14.65 4.2 -13.45 4.2 -13.35 4.45 -12.65 4.35 -12.3 4.5 -11.6 5.05 -8.05 5.2 -7.15 5.45 -5.65 5.6 -3.7 6.2 6.3 Q6.2 7.45 5.8 8.6 L5.4 9.55 4.7 10.65 3.4 11.75 1.7 12.15 1.65 12.15 0.55 12.0 0.5 12.0 -1.15 11.7 -2.3 11.3 Q-3.3 10.75 -3.3 9.8 L-3.05 9.3 -2.75 8.95 -2.7 8.9 -2.65 8.9 -2.6 8.95 -1.35 10.05 -0.9 10.25 -1.75 8.6 Q-3.25 6.05 -5.75 6.05 L-7.3 6.45 Q-8.3 7.0 -9.1 8.35 L-9.35 8.85 -10.05 10.7 -10.05 10.75 Q-10.25 11.95 -9.1 14.05 L-8.95 14.3 -7.55 16.1 -6.0 17.25 -0.1 17.4 Q2.3 16.9 4.3 15.3 L6.4 13.25 7.0 12.45 Q8.45 10.4 9.2 8.6 9.9 6.8 9.9 5.25 9.9 2.85 8.65 -3.4 L8.3 -5.45 M2.2 -16.05 Q2.2 -18.3 3.8 -18.85 5.5 -19.45 7.3 -15.7 7.9 -14.5 8.3 -12.45 L8.95 -9.2 10.45 -2.9 10.5 -2.8 Q11.45 1.5 11.45 3.8 L11.15 7.25 Q10.15 12.1 6.3 15.35 1.95 18.9 -3.35 18.9 -7.6 18.9 -9.7 16.2 -11.45 14.05 -11.45 10.7 -11.45 9.35 -10.5 7.5 -9.4 5.45 -7.5 4.85 L-5.75 4.55 Q-2.95 4.55 -1.1 7.0 0.15 8.7 0.3 9.35 L0.7 10.4 1.25 10.75 1.65 10.8 2.2 10.85 Q3.4 10.9 4.25 8.75 L4.25 8.8 4.5 8.15 4.85 6.35 Q4.85 2.7 4.1 -3.65 L3.9 -4.95 3.0 -12.65 Q2.6 -13.1 2.4 -14.05 L2.2 -16.05" fill="#a36a6a" fill-rule="evenodd" stroke="none"/>
    <path d="M5.05 -8.05 L5.1 -8.05 5.2 -7.15 5.05 -8.05 M5.45 -5.65 L8.3 -5.45 8.65 -3.4 7.55 -3.55 5.6 -3.7 5.45 -5.65 M9.2 8.6 Q8.45 10.4 7.0 12.45 L6.4 13.25 6.6 12.5 5.1 10.15 4.7 10.65 5.4 9.55 5.8 8.6 7.05 8.95 7.6 9.0 9.2 8.6 M-9.1 14.05 Q-10.25 11.95 -10.05 10.75 L-10.05 10.7 -9.35 8.85 Q-8.95 10.6 -6.2 11.35 L-5.85 11.4 -3.4 11.7 -5.6 12.45 Q-7.7 13.3 -9.1 14.05 M0.5 12.0 L0.55 12.0 0.5 12.1 0.5 12.0" fill="#e0cbcb" fill-rule="evenodd" stroke="none"/>
    <path d="M8.65 -3.4 Q9.9 2.85 9.9 5.25 9.9 6.8 9.2 8.6 L7.6 9.0 7.05 8.95 5.8 8.6 Q6.2 7.45 6.2 6.3 L5.6 -3.7 7.55 -3.55 8.65 -3.4 M-9.35 8.85 L-9.1 8.35 Q-8.3 7.0 -7.3 6.45 L-5.75 6.05 Q-3.25 6.05 -1.75 8.6 L-0.9 10.25 -1.35 10.05 -2.6 8.95 -2.65 8.9 -2.7 8.9 -2.75 8.95 -3.05 9.3 -3.3 9.8 Q-3.3 10.75 -2.3 11.3 L-1.15 11.7 -1.6 11.7 -2.8 11.7 -3.4 11.7 -5.85 11.4 -6.2 11.35 Q-8.95 10.6 -9.35 8.85" fill="#f2eaea" fill-rule="evenodd" stroke="none"/>
  </g>
</svg>