<?xml version="1.0" encoding="UTF-8" standalone="no"?>
<svg xmlns:xlink="http://www.w3.org/1999/xlink" height="11.8px" width="56.2px" xmlns="http://www.w3.org/2000/svg">
  <g transform="matrix(1.0, 0.0, 0.0, 1.0, 5.3, 8.95)">
    <path d="M5.05 -6.5 L4.15 -6.4 Q3.15 -6.4 3.0 -6.7 3.15 -7.0 3.45 -7.0 L5.15 -6.85 5.2 -6.7 5.05 -6.5 M48.35 0.35 Q49.9 0.15 49.9 0.85 L49.25 1.5 Q48.55 1.85 47.65 1.85 L46.85 1.6 46.55 1.3 Q46.55 1.05 46.95 0.95 47.25 0.5 48.35 0.35 M40.5 1.7 L40.25 1.5 42.45 1.45 Q42.45 1.8 41.5 1.8 L40.5 1.7 M-3.3 -7.7 L-1.1 -7.95 Q-0.25 -7.95 0.55 -7.25 0.0 -6.55 -3.35 -6.55 -4.3 -6.55 -4.3 -7.1 -4.3 -7.45 -3.3 -7.7" fill="#ffffff" fill-opacity="0.69411767" fill-rule="evenodd" stroke="none"/>
  </g>
</svg>