<?xml version="1.0" encoding="UTF-8" standalone="no"?>
<svg xmlns:xlink="http://www.w3.org/1999/xlink" height="9px" width="23.3px" xmlns="http://www.w3.org/2000/svg">
  <g transform="matrix(1.0, 0.0, 0.0, 1.0, 11.05, 16.15)">
    <path d="M0.9 -11.5 Q0.9 -12.2 1.85 -12.25 2.75 -12.3 2.75 -11.6 2.75 -10.8 1.7 -10.8 0.85 -10.8 0.9 -11.5 M7.15 -8.65 Q6.45 -9.15 6.45 -9.4 6.45 -10.05 8.85 -10.45 L10.15 -10.5 Q11.25 -10.45 11.25 -9.7 11.25 -9.1 10.15 -8.6 L10.05 -8.55 8.25 -8.15 Q7.85 -8.15 7.15 -8.65 M-7.35 -13.25 Q-8.6 -13.25 -9.35 -13.7 -10.05 -14.1 -10.05 -14.6 -10.05 -15.35 -7.95 -15.1 -5.9 -14.9 -5.9 -14.1 -5.9 -13.8 -6.2 -13.55 -6.6 -13.25 -7.35 -13.25" fill="#ffffff" fill-opacity="0.69411767" fill-rule="evenodd" stroke="none"/>
  </g>
</svg>