<?xml version="1.0" encoding="UTF-8" standalone="no"?>
<svg xmlns:xlink="http://www.w3.org/1999/xlink" height="14.5px" width="17.6px" xmlns="http://www.w3.org/2000/svg">
  <g transform="matrix(1.0, 0.0, 0.0, 1.0, 12.2, -24.55)">
    <path d="M1.45 35.45 L4.35 35.75 4.4 35.75 3.15 36.5 0.45 37.5 -3.95 38.05 Q-8.35 38.05 -10.15 35.55 -11.2 34.1 -11.2 32.3 -11.2 28.9 -8.55 27.5 -7.85 27.1 -2.75 25.7 L-2.15 25.55 -3.1 27.8 -7.0 28.75 Q-9.65 29.75 -9.65 32.25 -9.65 33.55 -8.55 34.75 -6.95 36.45 -3.95 36.45 -1.4 36.45 0.85 35.7 L1.45 35.45" fill="#a36a6a" fill-rule="evenodd" stroke="none"/>
    <path d="M1.45 35.45 L0.85 35.7 Q-1.4 36.45 -3.95 36.45 -6.95 36.45 -8.55 34.75 -9.65 33.55 -9.65 32.25 -9.65 29.75 -7.0 28.75 L-3.1 27.8 -3.3 29.4 Q-3.3 31.45 -2.25 33.0 -1.0 34.8 1.45 35.45" fill="#cca9a9" fill-rule="evenodd" stroke="none"/>
  </g>
</svg>