<?xml version="1.0" encoding="UTF-8" standalone="no"?>
<svg xmlns:xlink="http://www.w3.org/1999/xlink" height="28.7px" width="9.95px" xmlns="http://www.w3.org/2000/svg">
  <g transform="matrix(1.0, 0.0, 0.0, 1.0, 10.75, 15.55)">
    <path d="M-4.65 -5.35 L-4.7 -5.3 -4.7 -5.8 -4.75 -5.85 -5.15 -8.0 Q-5.7 -10.85 -5.15 -12.95 L-4.75 -12.15 -4.35 -11.15 Q-3.65 -8.55 -3.25 -5.15 L-3.25 -4.45 -3.15 -3.75 -3.2 -3.75 -3.2 -3.45 -3.1 -3.3 -3.05 -2.25 Q-2.95 -0.65 -3.0 1.15 L-3.1 5.85 -3.25 6.5 -3.25 6.55 Q-3.45 8.3 -3.95 9.45 L-4.2 9.9 Q-4.8 10.9 -5.65 11.15 -7.4 11.6 -8.95 8.9 L-8.35 7.6 -8.3 7.6 -7.3 6.3 -7.15 6.15 -7.1 6.15 -6.8 5.85 -6.7 5.8 -6.35 5.2 -6.0 4.65 -6.0 4.6 -5.0 2.6 Q-4.5 1.7 -4.45 0.35 L-4.35 -2.05 -4.4 -3.6 -4.35 -3.7 -4.4 -3.7 -4.45 -4.0 -4.5 -4.1 -4.6 -5.2 -4.55 -5.25 -4.65 -5.35" fill="#cca9a9" fill-rule="evenodd" stroke="none"/>
    <path d="M-4.15 -12.85 L-2.9 -8.9 Q-1.95 -5.4 -1.8 1.2 -1.55 11.05 -5.5 12.05 -7.05 12.45 -8.45 11.1 -9.45 10.1 -9.7 9.25 -10.1 7.9 -8.2 5.7 L-6.9 4.2 -6.65 3.8 Q-5.9 2.5 -5.65 1.3 -5.15 -2.35 -5.6 -5.75 L-6.3 -9.1 Q-6.7 -11.2 -6.5 -12.75 -6.15 -14.6 -5.55 -14.55 -4.95 -14.6 -4.15 -12.85 M-3.15 -3.75 L-3.25 -4.45 -3.25 -5.15 Q-3.65 -8.55 -4.35 -11.15 L-4.75 -12.15 -5.15 -12.95 Q-5.7 -10.85 -5.15 -8.0 L-4.75 -5.85 -4.7 -5.8 -4.7 -5.3 -4.65 -5.35 -4.6 -5.2 -4.5 -4.1 -4.45 -4.0 -4.4 -3.7 -4.4 -3.6 -4.35 -2.05 -4.45 0.35 Q-4.5 1.7 -5.0 2.6 L-6.0 4.6 -6.0 4.65 -6.35 5.2 -6.7 5.8 -6.8 5.85 -7.1 6.15 -7.15 6.15 -7.3 6.3 -8.3 7.6 -8.35 7.6 -8.95 8.9 Q-7.4 11.6 -5.65 11.15 -4.8 10.9 -4.2 9.9 L-3.95 9.45 Q-3.45 8.3 -3.25 6.55 L-3.1 5.9 -3.1 5.85 -3.0 1.15 Q-2.95 -0.65 -3.05 -2.25 L-3.1 -3.3 -3.15 -3.75" fill="#a36a6a" fill-rule="evenodd" stroke="none"/>
    <path d="M-4.65 -5.35 L-4.55 -5.25 -4.6 -5.2 -4.65 -5.35" fill="#e0cbcb" fill-rule="evenodd" stroke="none"/>
    <path d="M-4.4 -3.7 L-4.35 -3.7 -4.4 -3.6 -4.4 -3.7 M-3.25 6.55 L-3.25 6.5 -3.1 5.85 -3.1 5.9 -3.25 6.55 M-3.1 -3.3 L-3.2 -3.45 -3.2 -3.75 -3.15 -3.75 -3.1 -3.3" fill="#f2eaea" fill-rule="evenodd" stroke="none"/>
  </g>
</svg>