<?xml version="1.0" encoding="UTF-8" standalone="no"?>
<svg xmlns:xlink="http://www.w3.org/1999/xlink" height="32.2px" width="32.05px" xmlns="http://www.w3.org/2000/svg">
  <g transform="matrix(1.0, 0.0, 0.0, 1.0, 29.8, 4.45)">
    <path d="M-4.2 15.6 Q-4.0 14.0 -3.4 14.95 -2.85 15.8 -2.85 16.8 -2.85 17.55 -3.95 21.35 -5.2 25.65 -6.2 26.75 L-6.2 26.6 -6.3 25.95 -5.75 23.1 -4.85 19.05 -4.2 15.6 M-17.0 24.25 Q-15.75 24.0 -15.15 23.25 L-13.1 20.7 -10.0 17.65 Q-7.95 15.9 -7.95 17.55 -7.95 18.4 -9.95 19.95 L-12.6 21.95 -14.75 24.5 -16.55 26.4 Q-17.25 26.4 -17.6 25.85 L-17.9 25.05 Q-17.9 24.45 -17.0 24.25 M-17.25 14.55 Q-13.35 15.25 -13.35 15.8 L-13.35 16.2 Q-13.6 16.55 -14.7 16.55 L-21.9 15.7 -26.15 14.55 -26.15 13.9 -25.35 13.8 -17.25 14.55 M-13.1 8.15 L-18.4 6.05 -23.45 3.65 -23.3 3.45 Q-22.35 3.45 -17.85 4.95 -12.75 6.7 -12.75 7.8 L-12.8 8.1 -13.1 8.15 M-6.9 10.85 Q-6.9 9.1 -2.15 12.25 0.1 13.75 1.25 14.95 L1.25 16.95 0.15 16.25 0.45 17.3 0.2 17.6 -0.85 16.95 -0.85 15.65 Q-1.8 15.0 -2.7 14.45 -6.9 11.65 -6.9 10.85 M-15.5 -3.15 L-15.45 -3.45 Q-14.15 -2.9 -10.85 0.95 -9.1 3.0 -8.3 4.2 L-7.75 3.2 Q-6.35 0.9 -4.7 0.0 L-4.65 0.3 Q-7.8 7.35 -9.45 7.35 L-9.8 7.2 -9.9 6.95 -9.0 5.4 -15.5 -3.15 M-28.25 14.55 L-28.8 14.3 -28.8 14.25 -28.25 13.9 -28.25 14.55" fill="#885f55" fill-rule="evenodd" stroke="none"/>
  </g>
</svg>