<?xml version="1.0" encoding="UTF-8" standalone="no"?>
<svg xmlns:xlink="http://www.w3.org/1999/xlink" height="28.55px" width="19.3px" xmlns="http://www.w3.org/2000/svg">
  <g transform="matrix(1.0, 0.0, 0.0, 1.0, -2.25, 20.5)">
    <path d="M3.6 -14.85 L3.55 -14.95 3.55 -15.75 Q3.55 -17.6 6.1 -18.95 7.55 -19.7 8.2 -19.45 L8.0 -19.05 8.0 -18.8 8.6 -18.2 13.6 -12.8 Q19.2 -6.35 19.3 -2.7 19.35 -0.05 17.55 2.55 15.45 5.6 12.0 5.6 9.4 5.6 7.5 3.5 6.05 1.8 6.05 0.7 L6.15 -0.55 Q6.4 -1.75 7.15 -1.75 L7.85 -1.5 8.8 -1.25 8.75 -0.4 Q9.05 -0.25 9.25 -0.25 10.0 -0.25 9.9 -4.15 9.8 -6.5 7.8 -10.1 6.1 -13.1 4.35 -14.35 L3.6 -14.85 M4.8 -16.8 L5.05 -16.9 4.95 -17.0 4.8 -16.8" fill="#cca9a9" fill-rule="evenodd" stroke="none"/>
    <path d="M8.2 -19.45 Q9.1 -20.1 14.15 -14.3 20.4 -7.15 20.55 -2.7 20.6 -0.5 19.35 2.35 17.4 7.05 13.3 7.05 8.7 7.05 6.35 4.05 4.9 2.25 4.85 0.65 4.75 -3.1 7.05 -3.1 8.1 -3.1 8.8 -2.65 8.65 -5.15 7.65 -7.65 7.15 -9.0 5.1 -11.95 L3.25 -14.8 3.25 -15.0 3.6 -14.85 4.35 -14.35 Q6.1 -13.1 7.8 -10.1 9.8 -6.5 9.9 -4.15 10.0 -0.25 9.25 -0.25 9.05 -0.25 8.75 -0.4 L8.8 -1.25 7.85 -1.5 7.15 -1.75 Q6.4 -1.75 6.15 -0.55 L6.05 0.7 Q6.05 1.8 7.5 3.5 9.4 5.6 12.0 5.6 15.45 5.6 17.55 2.55 19.35 -0.05 19.3 -2.7 19.2 -6.35 13.6 -12.8 L8.6 -18.2 8.0 -18.8 8.0 -19.05 8.2 -19.45" fill="#a36a6a" fill-rule="evenodd" stroke="none"/>
  </g>
</svg>