<?xml version="1.0" encoding="UTF-8" standalone="no"?>
<svg xmlns:xlink="http://www.w3.org/1999/xlink" height="48.45px" width="69.15px" xmlns="http://www.w3.org/2000/svg">
  <g transform="matrix(1.0, 0.0, 0.0, 1.0, 18.1, 6.05)">
    <path d="M2.65 -3.75 L2.5 -3.75 Q-1.3 -3.55 -4.15 -1.2 -6.85 0.95 -8.7 4.1 L-10.35 6.95 -11.5 9.0 -12.45 11.0 Q-13.5 13.55 -14.85 15.9 L-15.2 16.4 -15.65 17.55 -15.65 17.6 -16.55 19.05 -16.7 19.0 Q-17.1 18.85 -17.1 18.5 -17.1 17.2 -16.15 15.7 -15.7 14.2 -14.85 12.6 L-11.25 5.3 Q-9.25 1.15 -5.7 -1.7 -1.9 -4.85 2.65 -5.05 6.3 -5.25 9.6 -3.3 12.1 -1.85 14.1 0.35 L16.7 3.85 19.65 9.65 23.2 18.15 24.75 21.8 25.55 23.7 26.25 25.3 26.75 26.4 27.2 27.35 28.05 28.7 Q30.25 31.95 34.05 32.65 35.65 33.05 36.8 31.95 L37.9 30.45 Q38.8 28.75 40.4 27.7 41.65 26.85 43.2 26.85 L45.05 27.3 Q45.85 27.5 46.55 28.0 49.55 30.4 50.0 34.3 L49.95 36.45 Q49.65 38.55 47.75 39.45 44.45 41.05 40.8 41.25 36.6 41.5 32.2 41.35 L29.85 40.75 26.9 39.85 Q24.5 38.65 22.75 36.7 20.05 33.6 17.95 29.9 16.05 26.65 15.3 22.95 14.8 20.4 13.7 17.9 12.25 14.65 10.5 11.6 8.75 8.5 6.5 5.85 5.4 4.55 3.8 4.15 L2.55 4.25 Q0.15 5.05 -1.3 7.1 L-2.55 8.95 -4.05 11.0 -4.65 11.85 -4.85 12.15 -5.7 13.9 -7.4 19.0 -7.95 20.25 -8.55 19.9 -8.75 19.4 -8.75 19.05 -8.75 18.8 Q-8.45 16.45 -7.5 14.45 -6.55 12.35 -5.2 10.3 L-3.15 7.3 Q-1.7 5.2 0.45 3.4 1.4 2.55 2.5 2.55 4.55 2.55 6.35 3.9 L7.0 4.45 9.65 7.4 10.0 7.95 10.15 8.15 10.25 8.35 12.4 12.15 14.6 16.95 16.3 21.7 17.3 24.55 Q18.2 27.0 19.45 29.25 L22.3 33.7 Q24.1 36.05 26.55 37.7 28.65 39.05 30.95 39.55 L36.65 39.95 42.25 39.55 45.05 39.0 46.8 38.3 47.45 37.9 Q48.5 37.25 48.65 36.0 L48.6 34.65 Q48.25 31.8 46.3 29.65 45.4 28.6 44.0 28.35 42.35 28.25 41.15 29.05 L40.25 29.8 39.45 30.9 39.45 30.95 39.3 31.2 Q38.2 33.45 36.0 33.95 33.0 34.6 30.5 32.95 L29.0 32.05 Q26.65 30.5 25.65 27.95 L23.35 22.5 21.05 17.0 19.35 12.5 18.2 9.5 17.65 8.3 17.5 7.9 15.85 4.65 Q14.6 2.3 12.55 0.45 10.45 -1.5 7.9 -2.6 5.85 -3.5 3.65 -3.7 L2.65 -3.75 M46.65 35.75 L46.75 35.05 46.75 33.5 Q47.65 33.8 47.65 35.3 L47.35 36.45 Q46.9 37.35 45.95 37.35 43.95 37.35 42.45 34.8 41.35 32.9 41.35 32.05 41.35 30.7 41.95 29.9 42.95 28.65 45.1 30.15 L44.8 30.45 43.6 30.15 Q43.4 30.15 43.2 30.3 L44.5 31.55 Q46.55 33.85 46.55 35.7 L46.55 35.85 46.65 35.75" fill="#a36a6a" fill-rule="evenodd" stroke="none"/>
    <path d="M7.0 4.45 L6.7 4.15 Q2.55 -1.5 2.55 -2.75 L2.65 -3.75 3.65 -3.7 Q5.85 -3.5 7.9 -2.6 10.45 -1.5 12.55 0.45 14.6 2.3 15.85 4.65 L17.5 7.9 17.65 8.3 18.2 9.5 Q17.2 10.95 15.45 10.95 13.05 10.95 10.25 8.35 L10.15 8.15 10.0 7.95 9.65 7.4 7.0 4.45 M46.55 35.7 Q46.55 33.85 44.5 31.55 L43.2 30.3 Q43.4 30.15 43.6 30.15 L44.8 30.45 45.1 30.15 Q42.95 28.65 41.95 29.9 41.35 30.7 41.35 32.05 41.35 32.9 42.45 34.8 43.95 37.35 45.95 37.35 46.9 37.35 47.35 36.45 L47.65 35.3 Q47.65 33.8 46.75 33.5 L46.75 35.05 46.65 35.75 46.55 35.7 M39.45 30.95 L39.45 30.9 40.25 29.8 41.15 29.05 Q42.35 28.25 44.0 28.35 45.4 28.6 46.3 29.65 48.25 31.8 48.6 34.65 L48.65 36.0 Q48.5 37.25 47.45 37.9 L46.8 38.3 45.05 39.0 Q41.9 38.65 40.3 35.9 L39.25 32.55 39.45 30.95" fill="#e0cbcb" fill-rule="evenodd" stroke="none"/>
    <path d="M2.65 -3.75 L2.55 -2.75 Q2.55 -1.5 6.7 4.15 L7.0 4.45 6.35 3.9 Q4.55 2.55 2.5 2.55 1.4 2.55 0.45 3.4 -1.7 5.2 -3.15 7.3 L-5.2 10.3 Q-6.55 12.35 -7.5 14.45 -8.45 16.45 -8.75 18.8 L-8.75 19.05 -8.75 19.4 Q-8.85 20.15 -9.55 20.8 -10.55 21.75 -12.45 21.75 -15.05 21.75 -16.1 20.6 -16.7 19.9 -16.7 19.05 L-16.7 19.0 -16.55 19.05 -15.65 17.6 -15.65 17.55 -15.2 16.4 -14.85 15.9 Q-13.5 13.55 -12.45 11.0 L-11.5 9.0 -10.35 6.95 -8.7 4.1 Q-6.85 0.95 -4.15 -1.2 -1.3 -3.55 2.5 -3.75 L2.65 -3.75 M10.25 8.35 Q13.05 10.95 15.45 10.95 17.2 10.95 18.2 9.5 L19.35 12.5 21.05 17.0 23.35 22.5 25.65 27.95 Q26.65 30.5 29.0 32.05 L30.5 32.95 Q33.0 34.6 36.0 33.95 38.2 33.45 39.3 31.2 L39.45 30.95 39.25 32.55 40.3 35.9 Q41.9 38.65 45.05 39.0 L42.25 39.55 36.65 39.95 30.95 39.55 Q28.65 39.05 26.55 37.7 24.1 36.05 22.3 33.7 L19.45 29.25 Q18.2 27.0 17.3 24.55 L16.3 21.7 14.6 16.95 12.4 12.15 10.25 8.35" fill="#cca9a9" fill-rule="evenodd" stroke="none"/>
  </g>
</svg>