<?xml version="1.0" encoding="UTF-8" standalone="no"?>
<svg xmlns:xlink="http://www.w3.org/1999/xlink" height="15.9px" width="14.05px" xmlns="http://www.w3.org/2000/svg">
  <g transform="matrix(1.0, 0.0, 0.0, 1.0, 18.3, -15.35)">
    <path d="M-8.45 28.4 Q-11.3 27.6 -13.2 25.75 -15.6 23.5 -15.6 21.25 L-15.5 19.7 Q-15.05 18.1 -13.5 18.1 -12.2 18.1 -9.55 20.05 -7.75 21.4 -5.8 21.8 L-7.1 24.9 -8.45 28.4" fill="#cca9a9" fill-rule="evenodd" stroke="none"/>
    <path d="M-5.8 21.8 Q-7.75 21.4 -9.55 20.05 -12.2 18.1 -13.5 18.1 -15.05 18.1 -15.5 19.7 L-15.6 21.25 Q-15.6 23.5 -13.2 25.75 -11.3 27.6 -8.45 28.4 L-9.1 30.25 Q-13.4 29.15 -15.55 26.25 -17.3 23.95 -17.3 21.15 L-17.0 18.55 Q-16.15 16.35 -13.35 16.35 -12.1 16.35 -8.9 18.35 L-5.25 20.35 -5.8 21.8" fill="#a36a6a" fill-rule="evenodd" stroke="none"/>
  </g>
</svg>