<?xml version="1.0" encoding="UTF-8" standalone="no"?>
<svg xmlns:xlink="http://www.w3.org/1999/xlink" height="15.4px" width="10.85px" xmlns="http://www.w3.org/2000/svg">
  <g transform="matrix(1.0, 0.0, 0.0, 1.0, 5.35, 7.8)">
    <path d="M1.1 2.7 L0.85 1.95 Q0.85 0.8 1.9 1.3 2.9 1.75 2.9 2.7 2.85 3.4 2.1 3.4 1.45 3.4 1.1 2.7" fill="#ffffff" fill-rule="evenodd" stroke="none"/>
    <path d="M1.1 2.7 Q1.45 3.4 2.1 3.4 2.85 3.4 2.9 2.7 2.9 1.75 1.9 1.3 0.85 0.8 0.85 1.95 L1.1 2.7 M1.5 0.15 Q3.45 0.15 3.9 2.7 L3.6 3.6 Q3.1 4.35 2.15 4.35 0.95 4.35 0.4 3.4 -0.05 2.7 -0.05 1.65 L0.25 0.85 Q0.7 0.15 1.5 0.15" fill="#a36a6a" fill-rule="evenodd" stroke="none"/>
    <path d="M1.5 0.15 Q0.7 0.15 0.25 0.85 L-0.05 1.65 Q-0.05 2.7 0.4 3.4 0.95 4.35 2.15 4.35 3.1 4.35 3.6 3.6 L3.9 2.7 Q3.45 0.15 1.5 0.15 M4.5 2.8 L4.4 4.9 Q3.95 6.6 2.2 6.6 -1.15 6.6 -3.05 1.4 -4.05 -1.25 -4.35 -4.15 -4.35 -9.15 0.1 -4.7 4.5 -0.25 4.5 2.8" fill="url(#gradient0)" fill-rule="evenodd" stroke="none"/>
  </g>
  <defs>
    <radialGradient cx="0" cy="0" gradientTransform="matrix(0.0056, -0.004, 0.0057, 0.008, 0.15, -3.05)" gradientUnits="userSpaceOnUse" id="gradient0" r="819.2" spreadMethod="pad">
      <stop offset="0.5725490196078431" stop-color="#f9f9f9"></stop>
      <stop offset="1.0" stop-color="#adb0c9"></stop>
    </radialGradient>
  </defs>
</svg>