<?xml version="1.0" encoding="UTF-8" standalone="no"?>
<svg xmlns:xlink="http://www.w3.org/1999/xlink" height="17.4px" width="17.75px" xmlns="http://www.w3.org/2000/svg">
  <g transform="matrix(1.0, 0.0, 0.0, 1.0, 22.35, -6.25)">
    <path d="M-11.15 7.35 Q-7.35 6.7 -6.1 9.45 -5.6 10.6 -5.6 12.9 -5.6 15.8 -6.6 18.0 -8.75 22.65 -14.55 22.65 -17.1 22.65 -19.45 20.55 L-21.35 18.4 Q-21.35 16.1 -18.45 12.25 -15.05 7.7 -11.15 7.35 M-14.45 21.35 Q-9.4 21.35 -7.65 17.1 L-6.9 12.85 Q-6.9 9.4 -8.95 8.7 -10.75 8.1 -13.5 9.65 -16.1 11.1 -18.1 13.55 -20.15 16.1 -20.15 18.15 -20.15 18.7 -17.95 20.0 -15.7 21.35 -14.45 21.35" fill="#a36a6a" fill-rule="evenodd" stroke="none"/>
    <path d="M-14.45 21.35 Q-15.7 21.35 -17.95 20.0 -20.15 18.7 -20.15 18.15 -20.15 16.1 -18.1 13.55 -16.1 11.1 -13.5 9.65 -10.75 8.1 -8.95 8.7 -6.9 9.4 -6.9 12.85 L-7.65 17.1 Q-9.4 21.35 -14.45 21.35" fill="#e0cbcb" fill-rule="evenodd" stroke="none"/>
  </g>
</svg>