<?xml version="1.0" encoding="UTF-8" standalone="no"?>
<svg xmlns:xlink="http://www.w3.org/1999/xlink" height="25.3px" width="38.45px" xmlns="http://www.w3.org/2000/svg">
  <g transform="matrix(1.0, 0.0, 0.0, 1.0, 19.2, 12.65)">
    <path d="M-14.05 -9.65 Q-12.0 -10.45 -4.6 -10.45 L0.2 -9.6 2.45 -9.0 1.25 -8.3 0.1 -7.1 0.55 -7.0 Q0.9 -7.0 2.2 -7.75 3.55 -8.5 5.2 -8.5 L7.15 -8.0 7.9 -7.65 Q6.75 -7.0 6.0 -5.75 L4.95 -3.85 7.1 -5.8 Q8.9 -7.4 10.3 -7.4 13.5 -7.4 15.35 -4.9 L15.5 -4.65 13.45 -5.0 Q11.75 -5.15 10.05 -4.5 8.3 -3.85 6.9 -1.9 5.5 0.0 4.9 0.25 L4.55 -1.6 Q4.35 -2.65 3.95 -2.65 L2.55 -2.25 0.55 -1.85 Q-0.3 -1.85 -0.55 -2.75 L-0.8 -4.45 -3.5 -4.55 -8.15 -5.15 -12.95 -5.45 Q-14.3 -5.75 -14.3 -7.55 L-14.05 -9.65" fill="#f2eaea" fill-rule="evenodd" stroke="none"/>
    <path d="M-16.95 -0.1 L-17.45 2.75 -18.0 1.55 -18.2 0.15 Q-18.2 -1.85 -16.85 -8.15 -16.5 -10.15 -13.55 -11.0 L-6.1 -11.65 0.8 -10.85 Q3.5 -10.25 3.85 -9.55 L7.0 -9.4 Q8.6 -8.8 8.65 -8.1 10.6 -8.95 12.4 -8.4 14.2 -7.85 16.05 -6.45 17.4 -5.4 17.85 -3.6 L18.1 -2.3 18.2 1.8 Q18.1 3.15 16.3 6.8 13.8 11.65 10.55 11.65 4.7 11.65 2.2 9.4 L1.2 8.2 Q0.3 8.1 -1.65 6.7 L-2.75 5.95 -3.35 5.45 -3.65 5.05 Q-3.65 4.35 -1.8 5.2 L-1.15 5.5 -0.95 5.6 -0.85 5.65 0.75 6.55 0.8 5.8 Q0.95 5.05 1.35 5.05 1.7 6.4 2.6 7.75 4.45 10.4 8.8 10.4 12.85 10.4 15.35 5.9 16.6 3.6 17.05 1.25 17.05 -2.35 15.5 -4.65 L15.35 -4.9 Q13.5 -7.4 10.3 -7.4 8.9 -7.4 7.1 -5.8 L4.95 -3.85 6.0 -5.75 Q6.75 -7.0 7.9 -7.65 L7.15 -8.0 5.2 -8.5 Q3.55 -8.5 2.2 -7.75 0.9 -7.0 0.55 -7.0 L0.1 -7.1 1.25 -8.3 2.45 -9.0 0.2 -9.6 -4.6 -10.45 Q-12.0 -10.45 -14.05 -9.65 L-14.75 -9.25 Q-15.35 -8.6 -15.65 -7.55 -16.05 -5.2 -16.4 -4.1 L-16.5 -3.55 -16.9 -0.75 -16.95 -0.15 -16.95 -0.1 M13.7 0.05 L13.5 0.85 Q12.85 3.15 11.05 4.75 10.75 4.75 10.75 4.45 L10.75 4.4 11.8 1.95 Q12.85 -0.6 12.85 -2.5 L12.85 -3.05 11.65 -2.0 11.7 -1.15 Q11.35 0.85 10.6 2.7 9.35 5.95 7.9 6.3 L7.9 6.65 Q8.0 7.85 8.7 7.85 11.05 7.85 12.8 4.2 L13.2 3.2 14.2 0.1 14.85 -2.6 Q15.25 -1.15 15.25 0.05 13.25 8.95 8.65 8.95 7.2 8.95 6.8 7.1 6.65 6.15 6.75 5.2 6.75 1.45 10.35 -2.1 11.7 -3.5 12.8 -3.9 13.9 -4.25 13.9 -3.25 L13.7 0.05" fill="#a36a6a" fill-rule="evenodd" stroke="none"/>
    <path d="M-16.95 -0.1 L-16.95 -0.15 -16.9 -0.75 -16.5 -3.55 -16.4 -4.1 Q-16.05 -5.2 -15.65 -7.55 -15.35 -8.6 -14.75 -9.25 L-14.05 -9.65 -14.3 -7.55 Q-14.3 -5.75 -12.95 -5.45 L-8.15 -5.15 -3.5 -4.55 -0.8 -4.45 -0.55 -2.75 Q-0.3 -1.85 0.55 -1.85 L2.55 -2.25 3.95 -2.65 Q4.35 -2.65 4.55 -1.6 L4.9 0.25 Q5.5 0.0 6.9 -1.9 8.3 -3.85 10.05 -4.5 11.75 -5.15 13.45 -5.0 L15.5 -4.65 Q17.05 -2.35 17.05 1.25 16.6 3.6 15.35 5.9 12.85 10.4 8.8 10.4 4.45 10.4 2.6 7.75 1.7 6.4 1.35 5.05 0.95 5.05 0.8 5.8 L0.75 6.55 -0.85 5.65 -0.95 5.6 -1.15 5.5 -1.75 5.2 -1.8 5.2 Q-3.65 4.35 -3.65 5.05 L-3.35 5.45 -2.75 5.95 Q-2.4 6.2 -1.8 6.6 L-3.0 6.95 -8.6 7.55 Q-13.95 7.55 -16.1 2.8 L-16.95 -0.1 M14.2 0.1 L13.7 0.05 13.9 -3.25 Q13.9 -4.25 12.8 -3.9 11.7 -3.5 10.35 -2.1 6.75 1.45 6.75 5.2 6.65 6.15 6.8 7.1 7.2 8.95 8.65 8.95 13.25 8.95 15.25 0.05 15.25 -1.15 14.85 -2.6 L14.2 0.1" fill="#e0cbcb" fill-rule="evenodd" stroke="none"/>
    <path d="M14.2 0.1 L13.2 3.2 12.8 4.2 Q11.05 7.85 8.7 7.85 8.0 7.85 7.9 6.65 L7.9 6.3 Q9.35 5.95 10.6 2.7 11.35 0.85 11.7 -1.15 L11.65 -2.0 12.85 -3.05 12.85 -2.5 Q12.85 -0.6 11.8 1.95 L10.75 4.4 10.75 4.45 Q10.75 4.75 11.05 4.75 12.85 3.15 13.5 0.85 L13.7 0.05 14.2 0.1" fill="#cca9a9" fill-rule="evenodd" stroke="none"/>
  </g>
</svg>