<?xml version="1.0" encoding="UTF-8" standalone="no"?>
<svg xmlns:xlink="http://www.w3.org/1999/xlink" height="22.7px" width="28.1px" xmlns="http://www.w3.org/2000/svg">
  <g transform="matrix(1.0, 0.0, 0.0, 1.0, 13.8, 11.4)">
    <path d="M3.45 -6.95 L3.4 -6.95 3.45 -7.05 3.45 -6.95 M2.9 -8.15 L-0.55 -6.2 -2.0 -7.4 -1.9 -7.95 Q-3.6 -7.95 -5.2 -7.25 L-6.6 -7.05 Q-7.5 -7.05 -7.85 -6.65 L-7.7 -5.95 -7.85 -5.35 -7.25 -4.7 Q-7.45 -3.95 -8.0 -3.5 L-8.75 -2.85 -9.8 -3.5 -10.2 -1.9 -9.65 -1.2 Q-9.2 -0.3 -10.05 0.55 L-10.3 0.95 -10.1 1.5 -9.4 1.65 -10.15 1.5 -11.85 0.3 -10.3 -3.85 -11.3 -4.4 -10.65 -4.7 -8.15 -9.4 -7.8 -10.0 -1.75 -9.35 1.65 -10.4 2.9 -8.15 M-5.25 -4.35 L0.15 -3.75 0.6 -3.05 2.55 -4.3 5.2 -5.4 7.0 -4.2 10.85 -2.0 Q12.1 -1.3 12.6 0.05 L12.8 0.65 7.2 2.35 4.4 1.15 3.05 -0.75 1.85 -0.65 3.05 -0.75 4.4 1.15 4.6 1.4 4.85 1.8 2.6 1.3 2.15 1.4 Q1.3 1.95 0.7 3.1 L0.05 3.7 -1.7 3.6 -1.55 4.9 -1.65 6.15 -1.8 5.95 -1.9 5.9 -1.85 5.85 -3.05 4.1 -3.75 3.0 -3.65 2.35 Q-3.65 1.1 -2.05 0.25 -0.45 -0.65 1.85 -0.65 L1.05 -2.2 0.6 -3.05 1.05 -2.2 Q0.1 -1.55 -1.0 -1.7 L-2.15 -1.7 -1.4 -2.8 Q-2.05 -3.05 -2.65 -2.6 L-2.95 -2.35 -3.1 -2.15 -3.05 -1.6 -4.3 -1.05 -4.9 1.8 Q-5.85 0.55 -6.1 -1.15 L-6.15 -2.05 -6.1 -1.15 Q-5.85 0.55 -4.9 1.8 L-7.8 5.1 -8.7 1.75 -8.85 0.6 -6.15 -2.05 -6.15 -2.35 -6.15 -2.5 -6.1 -4.3 -5.25 -4.35 M-10.3 -3.85 L-9.8 -3.5 -10.3 -3.85 M-1.9 -7.95 L-1.75 -9.35 -1.9 -7.95 M-6.5 -2.1 L-6.15 -2.5 -6.15 -2.35 -6.5 -2.1 M-1.8 5.95 L-1.85 5.85 -1.8 5.95" fill="#b88672" fill-rule="evenodd" stroke="none"/>
    <path d="M3.45 -7.05 L3.4 -6.95 3.45 -6.95 3.35 -5.5 3.0 -5.1 -1.25 -4.15 -2.65 -6.3 -2.05 -6.85 -2.0 -7.4 -2.05 -6.85 -2.65 -6.3 -3.8 -5.25 -2.65 -6.3 -3.8 -5.25 -5.25 -4.35 -6.1 -4.3 -6.15 -2.5 -6.5 -2.1 Q-7.45 -1.95 -8.25 -2.5 L-8.75 -2.85 -8.25 -2.5 Q-7.45 -1.95 -6.5 -2.1 L-6.15 -2.35 -6.15 -2.05 -8.85 0.6 -8.7 1.75 -7.8 5.1 -4.9 1.8 -4.3 -1.05 -3.05 -1.6 -3.1 -2.15 -2.95 -2.35 -2.65 -2.6 Q-2.05 -3.05 -1.4 -2.8 L-2.15 -1.7 -1.0 -1.7 Q0.1 -1.55 1.05 -2.2 L1.85 -0.65 Q-0.45 -0.65 -2.05 0.25 -3.65 1.1 -3.65 2.35 L-4.25 2.15 -4.9 1.8 -4.25 2.15 -3.65 2.35 -3.75 3.0 -3.05 4.1 -4.3 5.7 -3.05 4.1 -1.85 5.85 -1.9 5.9 -1.8 5.95 -1.65 6.15 -1.55 4.9 -1.7 3.6 0.05 3.7 0.7 3.1 Q1.3 1.95 2.15 1.4 L2.6 1.3 4.85 1.8 4.6 1.4 4.4 1.15 7.2 2.35 12.8 0.65 12.9 1.05 13.05 1.5 13.3 3.55 7.6 6.75 4.1 5.0 Q4.1 5.5 3.6 5.85 3.05 6.2 2.35 6.2 L2.45 9.3 -2.5 10.3 -4.7 6.8 -4.3 5.7 -5.15 5.95 -6.05 7.0 -11.05 8.25 -12.8 3.95 -12.7 3.35 -12.2 2.9 -10.15 1.5 -9.4 1.65 -10.1 1.5 -10.3 0.95 -10.05 0.55 Q-9.2 -0.3 -9.65 -1.2 L-10.2 -1.9 -9.8 -3.5 -8.75 -2.85 -8.0 -3.5 Q-7.45 -3.95 -7.25 -4.7 L-7.85 -5.35 -7.7 -5.95 -7.85 -6.65 Q-7.5 -7.05 -6.6 -7.05 L-5.2 -7.25 Q-3.6 -7.95 -1.9 -7.95 L-2.0 -7.4 -0.55 -6.2 2.9 -8.15 3.45 -7.05 M4.1 5.0 L5.2 2.3 4.85 1.8 5.2 2.3 4.1 5.0 M2.35 6.2 L-0.85 6.7 -1.65 6.15 -0.85 6.7 2.35 6.2 M-9.4 1.65 L-8.7 1.75 -9.4 1.65 M-7.55 6.05 L-5.15 5.95 -7.55 6.05" fill="#8c5c48" fill-rule="evenodd" stroke="none"/>
    <path d="M3.45 -7.05 L2.9 -8.15 1.65 -10.4 -1.75 -9.35 -1.9 -7.95 M-2.0 -7.4 L-2.05 -6.85 -2.65 -6.3 -1.25 -4.15 3.0 -5.1 3.35 -5.5 3.45 -6.95 3.45 -7.05 M-10.15 1.5 L-11.85 0.3 -10.3 -3.85 -11.3 -4.4 -10.65 -4.7 -8.15 -9.4 -7.8 -10.0 -1.75 -9.35 M-5.25 -4.35 L0.15 -3.75 0.6 -3.05 2.55 -4.3 5.2 -5.4 7.0 -4.2 10.85 -2.0 Q12.1 -1.3 12.6 0.05 L12.8 0.65 12.9 1.05 M13.05 1.5 L13.3 3.55 7.6 6.75 4.1 5.0 Q4.1 5.5 3.6 5.85 3.05 6.2 2.35 6.2 L2.45 9.3 -2.5 10.3 -4.7 6.8 -4.3 5.7 -5.15 5.95 -6.05 7.0 -11.05 8.25 -12.8 3.95 -12.7 3.35 -12.2 2.9 -10.15 1.5 -9.4 1.65 -8.7 1.75 -7.8 5.1 M-9.8 -3.5 L-10.3 -3.85 M1.85 -0.65 L3.05 -0.75 4.4 1.15 M0.6 -3.05 L1.05 -2.2 M-4.9 1.8 L-4.25 2.15 -3.65 2.35 Q-3.65 1.1 -2.05 0.25 -0.45 -0.65 1.85 -0.65 M4.6 1.4 L4.85 1.8 5.2 2.3 4.1 5.0 M-1.65 6.15 L-0.85 6.7 2.35 6.2 M-8.75 -2.85 L-8.25 -2.5 Q-7.45 -1.95 -6.5 -2.1 L-6.15 -2.35 -6.15 -2.05 -8.85 0.6 -8.7 1.75 M-6.15 -2.5 L-6.1 -4.3 -5.25 -4.35 -3.8 -5.25 -2.65 -6.3 M-6.15 -2.05 L-6.1 -1.15 Q-5.85 0.55 -4.9 1.8 M-6.15 -2.35 L-6.15 -2.5 M-3.05 4.1 L-3.75 3.0 -3.65 2.35 M-4.3 5.7 L-3.05 4.1 -1.85 5.85 -1.8 5.95 -1.65 6.15 M-5.15 5.95 L-7.55 6.05" fill="none" stroke="#660000" stroke-linecap="round" stroke-linejoin="round" stroke-opacity="0.6" stroke-width="1"/>
  </g>
</svg>