<?xml version="1.0" encoding="UTF-8" standalone="no"?>
<svg xmlns:xlink="http://www.w3.org/1999/xlink" height="19.15px" width="27.5px" xmlns="http://www.w3.org/2000/svg">
  <g transform="matrix(1.0, 0.0, 0.0, 1.0, 30.25, 9.55)">
    <path d="M-26.75 -3.75 L-21.6 -4.35 -21.45 -4.45 -20.4 -7.55 Q-20.15 -8.3 -19.1 -8.55 L-11.95 -7.35 Q-10.55 -7.2 -9.35 -6.5 L-8.55 -5.9 Q-6.7 -4.05 -4.6 -2.55 L-4.0 -1.8 Q-3.5 -0.25 -3.95 1.45 L-4.1 2.65 -4.1 3.55 Q-5.5 2.9 -6.95 3.55 -8.9 4.5 -11.05 4.6 L-11.2 4.8 Q-11.6 6.3 -12.4 7.6 L-13.05 8.1 -14.1 8.2 -21.4 8.6 Q-22.2 8.7 -22.45 7.9 L-23.0 6.4 Q-23.9 4.45 -25.15 3.2 -26.1 2.35 -27.65 1.8 L-28.55 1.6 Q-29.5 1.4 -29.15 0.5 L-27.35 -3.4 Q-27.2 -3.65 -26.75 -3.75" fill="#8c5c48" fill-rule="evenodd" stroke="none"/>
    <path d="M-26.75 -3.75 L-21.6 -4.35 -21.45 -4.45 -20.4 -7.55 Q-20.15 -8.3 -19.1 -8.55 L-11.95 -7.35 Q-10.55 -7.2 -9.35 -6.5 L-8.55 -5.9 Q-6.7 -4.05 -4.6 -2.55 L-4.0 -1.8 Q-3.5 -0.25 -3.95 1.45 L-4.1 2.65 -4.1 3.55 Q-5.5 2.9 -6.95 3.55 -8.9 4.5 -11.05 4.6 L-11.2 4.8 Q-11.6 6.3 -12.4 7.6 L-13.05 8.1 -14.1 8.2 -21.4 8.6 Q-22.2 8.7 -22.45 7.9 L-23.0 6.4 Q-23.9 4.45 -25.15 3.2 -26.1 2.35 -27.65 1.8 L-28.55 1.6 Q-29.5 1.4 -29.15 0.5 L-27.35 -3.4 Q-27.2 -3.65 -26.75 -3.75 M-6.65 5.55 L-7.2 5.85 -7.25 6.3" fill="none" stroke="#660000" stroke-linecap="round" stroke-linejoin="round" stroke-opacity="0.6" stroke-width="1"/>
  </g>
</svg>