<?xml version="1.0" encoding="UTF-8" standalone="no"?>
<svg xmlns:xlink="http://www.w3.org/1999/xlink" height="9.35px" width="11.75px" xmlns="http://www.w3.org/2000/svg">
  <g transform="matrix(1.0, 0.0, 0.0, 1.0, 7.2, 4.25)">
    <path d="M-2.0 0.55 L-1.7 0.75 -1.45 0.7 Q-0.75 0.5 0.15 -0.95 L1.1 -2.7 1.15 -2.9 1.25 -2.95 2.45 -3.25 Q2.75 -3.25 3.35 -2.65 L3.55 -2.5 3.5 -2.4 Q3.3 -1.05 1.85 1.2 0.0 4.1 -1.45 4.1 -2.25 4.1 -2.9 3.4 L-3.95 2.05 -4.75 0.4 Q-5.45 -0.7 -6.2 -0.6 L-6.2 -0.65 -4.3 -1.1 Q-3.1 -1.1 -2.55 -0.15 L-2.0 0.55 -3.55 0.15 -2.0 0.55" fill="#ffffcc" fill-rule="evenodd" stroke="none"/>
    <path d="M-2.0 0.55 L-2.55 -0.15 Q-3.1 -1.1 -4.3 -1.1 L-6.2 -0.65 -6.2 -0.6 Q-5.45 -0.7 -4.75 0.4 L-3.95 2.05 -2.9 3.4 Q-2.25 4.1 -1.45 4.1 0.0 4.1 1.85 1.2 3.3 -1.05 3.5 -2.4 L3.55 -2.5 3.35 -2.65 Q2.75 -3.25 2.45 -3.25 L1.25 -2.95 1.15 -2.9 1.1 -2.7 0.15 -0.95 Q-0.75 0.5 -1.45 0.7 L-1.7 0.75 -2.0 0.55 -3.55 0.15 M-1.45 0.7 L-2.0 0.55" fill="none" stroke="#a36a6a" stroke-linecap="round" stroke-linejoin="round" stroke-width="1"/>
  </g>
</svg>