<?xml version="1.0" encoding="UTF-8" standalone="no"?>
<svg xmlns:xlink="http://www.w3.org/1999/xlink" height="7.85px" width="7.2px" xmlns="http://www.w3.org/2000/svg">
  <g transform="matrix(1.0, 0.0, 0.0, 1.0, 3.6, 3.9)">
    <path d="M0.45 -2.9 L1.75 -2.45 Q2.6 -2.05 2.6 -1.4 2.6 -0.65 1.05 1.1 -0.6 2.95 -1.55 2.95 -2.6 2.95 -2.6 1.4 -2.6 0.5 -2.1 -0.85 -1.5 -2.5 -0.75 -2.5 L-0.5 -2.45 -0.45 -2.2 -0.85 -0.6 -0.9 -0.6 -0.9 -0.55 -0.85 -0.6 Q0.2 -1.95 0.45 -2.9" fill="#ffffcc" fill-rule="evenodd" stroke="none"/>
    <path d="M0.45 -2.9 Q0.2 -1.95 -0.85 -0.6 L-0.9 -0.55 -0.9 -0.6 -0.85 -0.6 -0.45 -2.2 -0.5 -2.45 -0.75 -2.5 Q-1.5 -2.5 -2.1 -0.85 -2.6 0.5 -2.6 1.4 -2.6 2.95 -1.55 2.95 -0.6 2.95 1.05 1.1 2.6 -0.65 2.6 -1.4 2.6 -2.05 1.75 -2.45 L0.45 -2.9 Z" fill="none" stroke="#a36a6a" stroke-linecap="round" stroke-linejoin="round" stroke-width="1"/>
  </g>
</svg>