<?xml version="1.0" encoding="UTF-8" standalone="no"?>
<svg xmlns:xlink="http://www.w3.org/1999/xlink" height="6px" width="6.75px" xmlns="http://www.w3.org/2000/svg">
  <g id="shape0" transform="matrix(1.0, 0.0, 0.0, 1.0, 3.4, 3)">
    <path d="M-0.4 1.75 L-0.05 1.2 0.3 0.7 Q0.5 -0.4 0.85 -0.4 L1.1 -0.15 1.15 -1.0 Q1.2 -1.55 1.55 -1.65 L1.65 -1.65 2.15 -1.3 2.1 -1.15 2.35 0.3 2.1 2.0 2.05 2.0 2.0 1.25 1.15 1.95 0.8 1.65 0.45 1.3 0.4 1.3 -0.05 1.55 -0.4 1.75" fill="#d6baba" fill-rule="evenodd" stroke="none"/>
    <path d="M-0.6 -1.95 L0.6 -1.9 1.55 -1.65 Q1.2 -1.55 1.15 -1.0 L1.1 -0.15 0.85 -0.4 Q0.5 -0.4 0.3 0.7 L-0.05 1.2 -0.4 1.75 -0.6 1.8 -0.65 1.0 -1.7 0.85 Q-2.7 0.95 -2.25 -0.1 L-1.45 -1.5 -0.65 -1.9 -0.6 -1.95" fill="#faf8f8" fill-rule="evenodd" stroke="none"/>
    <path d="M-0.6 -1.95 L-0.65 -1.9 -1.45 -1.5 -2.25 -0.1 Q-2.7 0.95 -1.7 0.85 L-0.65 1.0 -0.6 1.8 -0.4 1.75 -0.05 1.55 0.4 1.3 M2.1 -1.15 L2.35 0.3 2.1 2.0 2.05 2.0 2.0 1.25 1.15 1.95 0.8 1.65 0.45 1.3" fill="none" stroke="#a36a6a" stroke-linecap="round" stroke-linejoin="round" stroke-width="1"/>
  </g>
</svg>