<?xml version="1.0" encoding="UTF-8" standalone="no"?>
<svg xmlns:xlink="http://www.w3.org/1999/xlink" height="16.65px" width="39.15px" xmlns="http://www.w3.org/2000/svg">
  <g transform="matrix(1.0, 0.0, 0.0, 1.0, -15.5, 6.15)">
    <clipPath id="clipPath0" transform="matrix(1.0, 0.0, 0.0, 1.0, 0.0, 0.0)">
      <path d="M23.9 -4.1 Q24.5 -4.95 26.9 -4.7 L27.35 -4.6 27.35 -4.7 27.4 -5.5 31.75 -5.65 33.75 -5.65 33.65 -5.2 33.9 -5.2 36.1 -5.5 36.3 -5.4 37.25 -5.45 39.2 -5.2 38.9 -4.95 42.0 -5.2 Q43.65 -5.2 45.0 -4.25 46.15 -3.45 47.3 -3.65 L49.2 -2.7 Q50.15 -2.25 50.15 -1.75 50.15 -1.35 47.5 -0.2 44.9 0.95 44.35 0.95 L41.15 -0.9 38.7 -1.3 Q37.7 -1.5 37.25 -1.9 36.45 -2.0 36.0 -2.45 35.4 -1.65 34.3 -1.65 33.45 -1.65 32.85 -2.3 32.2 -1.85 31.05 -1.85 30.55 -1.85 29.95 -2.2 L29.4 -1.75 Q28.5 -1.2 26.75 -1.2 L26.15 -1.3 25.9 -0.95 Q25.35 -0.25 24.7 -0.15 24.0 0.5 23.1 0.7 L23.35 2.5 23.7 3.15 24.4 2.75 25.7 2.75 26.1 3.75 27.6 3.65 Q29.3 3.65 29.6 4.95 30.65 4.1 31.75 4.15 L31.8 5.55 Q31.8 7.05 31.15 8.4 30.25 10.25 28.5 10.25 L26.95 10.0 Q26.7 9.85 26.7 9.25 L25.8 9.35 Q24.3 9.35 23.85 8.7 L22.2 8.65 19.8 6.55 18.95 5.65 18.35 5.7 17.45 5.6 Q17.45 4.7 16.5 4.05 15.5 3.45 15.5 2.8 15.5 -1.35 18.35 -1.6 18.65 -3.05 22.05 -3.85 L23.9 -4.1" fill="#000000" fill-opacity="0.8117647" fill-rule="evenodd" stroke="none"/>
    </clipPath>
    <g clip-path="url(#clipPath0)">
      <use data-characterId="2419" height="12.6" transform="matrix(1.0, 0.0, 0.0, 1.0, 16.25, -4.95)" width="35.7" xlink:href="#sprite0"/>
    </g>
  </g>
  <defs>
    <g id="sprite0" transform="matrix(1.0, 0.0, 0.0, 1.0, 0.0, 0.0)">
      <use data-characterId="2418" height="12.6" transform="matrix(1.0, 0.0, 0.0, 1.0, 0.0, 0.0)" width="35.7" xlink:href="#shape1"/>
    </g>
    <g id="shape1" transform="matrix(1.0, 0.0, 0.0, 1.0, 0.0, 0.0)">
      <path d="M35.7 6.3 Q35.7 8.9 30.45 10.75 25.25 12.6 17.85 12.6 10.45 12.6 5.2 10.75 0.0 8.9 0.0 6.3 0.0 3.7 5.2 1.85 10.45 0.0 17.85 0.0 25.25 0.0 30.45 1.85 35.7 3.7 35.7 6.3 M26.55 9.35 Q30.15 8.1 30.15 6.3 30.15 4.5 26.55 3.2 22.95 1.95 17.85 1.95 12.75 1.95 9.1 3.2 5.5 4.5 5.5 6.3 5.5 8.1 9.1 9.35 12.75 10.65 17.85 10.65 22.95 10.65 26.55 9.35" fill="#ffffff" fill-opacity="0.7058824" fill-rule="evenodd" stroke="none"/>
    </g>
  </defs>
</svg>
