<?xml version="1.0" encoding="UTF-8" standalone="no"?>
<svg xmlns:xlink="http://www.w3.org/1999/xlink" height="16.65px" width="39.15px" xmlns="http://www.w3.org/2000/svg">
  <g transform="matrix(1.0, 0.0, 0.0, 1.0, -15.5, 6.15)">
    <clipPath id="clipPath0" transform="matrix(1.0, 0.0, 0.0, 1.0, 0.0, 0.0)">
      <path d="M28.05 -1.05 L26.5 -1.2 Q25.7 0.2 22.55 0.35 L22.45 1.3 23.45 1.55 Q24.35 1.55 24.25 1.75 L24.3 1.9 Q24.95 1.4 25.0 2.65 L25.05 2.65 25.25 2.7 Q27.4 3.0 28.05 4.0 29.8 2.45 29.8 5.15 L29.15 8.05 Q28.4 10.5 27.7 10.5 26.25 10.5 25.95 9.25 L25.95 9.2 24.8 9.45 Q23.65 9.45 22.85 7.75 L22.65 7.35 21.45 7.45 18.25 7.4 17.85 5.75 Q17.5 4.65 17.5 4.2 L17.5 4.15 Q16.75 3.55 16.55 2.7 L16.45 0.75 Q16.45 -3.55 19.15 -2.55 19.3 -5.7 23.0 -5.05 24.7 -4.75 25.65 -4.15 26.3 -5.2 28.05 -5.3 L29.9 -5.1 30.45 -5.7 Q31.9 -6.9 34.25 -5.0 L35.5 -5.15 37.7 -5.05 39.2 -5.4 Q41.55 -5.6 42.1 -4.7 L42.4 -4.75 44.9 -4.6 Q45.85 -5.15 47.0 -4.95 L47.1 -3.55 Q47.1 -2.65 46.25 -1.2 45.4 0.35 44.65 0.35 L42.95 0.25 42.9 -0.4 42.0 -0.35 Q40.5 -0.35 39.85 -1.25 36.7 -1.35 36.25 -2.3 L36.2 -2.3 Q33.85 -1.7 33.1 -1.3 L32.6 -1.7 30.8 -1.4 29.8 -1.6 Q29.05 -1.05 28.05 -1.05" fill="#000000" fill-opacity="0.8117647" fill-rule="evenodd" stroke="none"/>
    </clipPath>
    <g clip-path="url(#clipPath0)">
      <use data-characterId="2419" height="12.6" transform="matrix(1.0, 0.0, 0.0, 1.0, 16.25, -4.95)" width="35.7" xlink:href="#sprite0"/>
    </g>
  </g>
  <defs>
    <g id="sprite0" transform="matrix(1.0, 0.0, 0.0, 1.0, 0.0, 0.0)">
      <use data-characterId="2418" height="12.6" transform="matrix(1.0, 0.0, 0.0, 1.0, 0.0, 0.0)" width="35.7" xlink:href="#shape1"/>
    </g>
    <g id="shape1" transform="matrix(1.0, 0.0, 0.0, 1.0, 0.0, 0.0)">
      <path d="M35.7 6.3 Q35.7 8.9 30.45 10.75 25.25 12.6 17.85 12.6 10.45 12.6 5.2 10.75 0.0 8.9 0.0 6.3 0.0 3.7 5.2 1.85 10.45 0.0 17.85 0.0 25.25 0.0 30.45 1.85 35.7 3.7 35.7 6.3 M26.55 9.35 Q30.15 8.1 30.15 6.3 30.15 4.5 26.55 3.2 22.95 1.95 17.85 1.95 12.75 1.95 9.1 3.2 5.5 4.5 5.5 6.3 5.5 8.1 9.1 9.35 12.75 10.65 17.85 10.65 22.95 10.65 26.55 9.35" fill="#ffffff" fill-opacity="0.7058824" fill-rule="evenodd" stroke="none"/>
    </g>
  </defs>
</svg>
