<?xml version="1.0" encoding="UTF-8" standalone="no"?>
<svg xmlns:xlink="http://www.w3.org/1999/xlink" height="14.6px" width="37.7px" xmlns="http://www.w3.org/2000/svg">
  <g transform="matrix(1.0, 0.0, 0.0, 1.0, 1, 1)">
    <path d="M35.7 6.3 Q35.7 8.9 30.45 10.75 25.25 12.6 17.85 12.6 10.45 12.6 5.2 10.75 0.0 8.9 0.0 6.3 0.0 3.7 5.2 1.85 10.45 0.0 17.85 0.0 25.25 0.0 30.45 1.85 35.7 3.7 35.7 6.3 M26.55 9.35 Q30.15 8.1 30.15 6.3 30.15 4.5 26.55 3.2 22.95 1.95 17.85 1.95 12.75 1.95 9.1 3.2 5.5 4.5 5.5 6.3 5.5 8.1 9.1 9.35 12.75 10.65 17.85 10.65 22.95 10.65 26.55 9.35" fill="#ffffff" fill-opacity="0.7058824" fill-rule="evenodd" stroke="none"/>
  </g>
</svg>