<?xml version="1.0" encoding="UTF-8" standalone="no"?>
<svg xmlns:xlink="http://www.w3.org/1999/xlink" height="16.65px" width="39.15px" xmlns="http://www.w3.org/2000/svg">
  <g transform="matrix(1.0, 0.0, 0.0, 1.0, -15.5, 6.15)">
    <clipPath id="clipPath0" transform="matrix(1.0, 0.0, 0.0, 1.0, 0.0, 0.0)">
      <path d="M35.35 -5.15 L37.25 -5.45 39.45 -5.1 40.5 -5.15 42.85 -4.45 46.0 -4.35 48.6 -4.2 Q52.95 -3.7 52.95 -1.9 L52.9 -1.1 52.6 -1.0 Q52.85 -0.7 52.75 0.0 52.75 1.35 51.6 3.3 50.05 5.9 47.7 5.9 L47.4 5.85 47.05 6.5 Q46.45 7.45 45.4 7.45 L44.7 7.35 44.4 7.6 42.0 8.0 40.55 7.9 40.0 8.2 Q38.5 8.9 36.55 8.9 L36.25 8.5 35.6 8.9 33.55 8.85 32.95 8.45 Q32.0 9.3 30.45 9.3 L28.75 9.25 Q28.2 10.5 27.7 10.5 26.5 10.5 26.1 9.6 L27.4 8.1 Q28.5 6.3 28.5 4.2 L28.5 3.6 28.7 3.6 Q29.2 3.3 29.5 3.6 30.9 3.75 32.0 4.25 L33.2 5.0 35.85 4.6 35.9 4.65 39.3 4.45 39.4 4.55 Q40.15 3.9 41.25 4.15 42.05 3.75 42.7 3.7 43.15 2.55 44.85 2.7 44.85 1.65 45.4 1.15 45.05 0.9 44.45 0.75 L42.95 0.15 42.65 0.15 Q42.15 0.15 41.85 -0.3 L41.6 -0.95 39.25 -2.25 37.8 -1.85 Q36.1 -1.85 35.55 -3.1 L35.3 -4.4 35.35 -5.15" fill="#000000" fill-opacity="0.8117647" fill-rule="evenodd" stroke="none"/>
    </clipPath>
    <g clip-path="url(#clipPath0)">
      <use data-characterId="2419" height="12.6" transform="matrix(1.0, 0.0, 0.0, 1.0, 16.25, -4.95)" width="35.7" xlink:href="#sprite0"/>
    </g>
  </g>
  <defs>
    <g id="sprite0" transform="matrix(1.0, 0.0, 0.0, 1.0, 0.0, 0.0)">
      <use data-characterId="2418" height="12.6" transform="matrix(1.0, 0.0, 0.0, 1.0, 0.0, 0.0)" width="35.7" xlink:href="#shape1"/>
    </g>
    <g id="shape1" transform="matrix(1.0, 0.0, 0.0, 1.0, 0.0, 0.0)">
      <path d="M35.7 6.3 Q35.7 8.9 30.45 10.75 25.25 12.6 17.85 12.6 10.45 12.6 5.2 10.75 0.0 8.9 0.0 6.3 0.0 3.7 5.2 1.85 10.45 0.0 17.85 0.0 25.25 0.0 30.45 1.85 35.7 3.7 35.7 6.3 M26.55 9.35 Q30.15 8.1 30.15 6.3 30.15 4.5 26.55 3.2 22.95 1.95 17.85 1.95 12.75 1.95 9.1 3.2 5.5 4.5 5.5 6.3 5.5 8.1 9.1 9.35 12.75 10.65 17.85 10.65 22.95 10.65 26.55 9.35" fill="#ffffff" fill-opacity="0.7058824" fill-rule="evenodd" stroke="none"/>
    </g>
  </defs>
</svg>
