<?xml version="1.0" encoding="UTF-8" standalone="no"?>
<svg xmlns:xlink="http://www.w3.org/1999/xlink" height="16.65px" width="39.15px" xmlns="http://www.w3.org/2000/svg">
  <g transform="matrix(1.0, 0.0, 0.0, 1.0, -15.5, 6.15)">
    <clipPath id="clipPath0" transform="matrix(1.0, 0.0, 0.0, 1.0, 0.0, 0.0)">
      <path d="M23.9 -4.1 Q24.5 -4.95 26.9 -4.7 L27.35 -4.6 27.35 -4.7 27.4 -5.5 31.75 -5.65 33.75 -5.65 33.65 -5.2 33.9 -5.2 36.1 -5.5 36.3 -5.4 37.25 -5.45 39.15 -5.2 Q41.05 -6.1 41.95 -4.85 L43.5 -5.2 44.05 -5.1 43.9 -4.3 45.65 -4.95 Q46.25 -4.95 46.3 -4.55 L46.2 -4.1 46.65 -4.15 48.65 -4.15 48.95 -3.25 48.75 -2.75 Q49.7 -2.55 50.45 -2.05 51.2 -1.55 51.2 -1.1 51.2 -0.65 49.2 0.25 47.25 1.15 46.4 1.15 45.2 1.15 43.6 0.0 41.95 -1.2 41.15 -1.2 L40.7 -1.0 40.25 -0.8 37.45 -2.25 37.4 -1.85 37.3 -1.9 37.15 -1.65 37.1 -1.55 36.6 -1.6 36.55 -2.05 36.0 -2.45 Q35.4 -1.65 34.3 -1.65 33.45 -1.65 32.85 -2.3 32.2 -1.85 31.05 -1.85 30.55 -1.85 29.95 -2.2 L29.4 -1.75 Q28.5 -1.2 26.75 -1.2 L26.15 -1.3 25.9 -0.95 Q25.35 -0.25 24.7 -0.15 24.0 0.5 23.1 0.7 L23.35 2.5 23.7 3.15 24.4 2.75 25.7 2.75 26.1 3.75 27.6 3.65 Q29.65 3.65 29.65 5.55 29.65 6.55 28.8 7.75 27.65 9.35 25.8 9.35 24.3 9.35 23.85 8.7 L22.2 8.65 19.8 6.55 18.95 5.65 18.35 5.7 17.45 5.6 Q17.45 4.7 16.5 4.05 15.5 3.45 15.5 2.8 15.5 -1.35 18.35 -1.6 18.65 -3.05 22.05 -3.85 L23.9 -4.1" fill="#000000" fill-opacity="0.8117647" fill-rule="evenodd" stroke="none"/>
    </clipPath>
    <g clip-path="url(#clipPath0)">
      <use data-characterId="2419" height="12.6" transform="matrix(1.0, 0.0, 0.0, 1.0, 16.25, -4.95)" width="35.7" xlink:href="#sprite0"/>
    </g>
  </g>
  <defs>
    <g id="sprite0" transform="matrix(1.0, 0.0, 0.0, 1.0, 0.0, 0.0)">
      <use data-characterId="2418" height="12.6" transform="matrix(1.0, 0.0, 0.0, 1.0, 0.0, 0.0)" width="35.7" xlink:href="#shape1"/>
    </g>
    <g id="shape1" transform="matrix(1.0, 0.0, 0.0, 1.0, 0.0, 0.0)">
      <path d="M35.7 6.3 Q35.7 8.9 30.45 10.75 25.25 12.6 17.85 12.6 10.45 12.6 5.2 10.75 0.0 8.9 0.0 6.3 0.0 3.7 5.2 1.85 10.45 0.0 17.85 0.0 25.25 0.0 30.45 1.85 35.7 3.7 35.7 6.3 M26.55 9.35 Q30.15 8.1 30.15 6.3 30.15 4.5 26.55 3.2 22.95 1.95 17.85 1.95 12.75 1.95 9.1 3.2 5.5 4.5 5.5 6.3 5.5 8.1 9.1 9.35 12.75 10.65 17.85 10.65 22.95 10.65 26.55 9.35" fill="#ffffff" fill-opacity="0.7058824" fill-rule="evenodd" stroke="none"/>
    </g>
  </defs>
</svg>
