<?xml version="1.0" encoding="UTF-8" standalone="no"?>
<svg xmlns:xlink="http://www.w3.org/1999/xlink" height="11.75px" width="29.2px" xmlns="http://www.w3.org/2000/svg">
  <g transform="matrix(1.0, 0.0, 0.0, 1.0, 0.95, -0.5)">
    <path d="M27.15 5.35 Q26.4 8.1 19.35 7.9 12.25 7.7 7.05 9.85 1.85 11.95 0.55 10.9 -0.7 9.8 1.25 7.3 3.2 4.8 8.25 3.8 L10.85 3.1 Q13.15 2.35 15.05 2.0 18.85 1.1 23.4 1.85 27.9 2.55 27.15 5.35" fill="#d55e5e" fill-rule="evenodd" stroke="none"/>
    <path d="M27.15 5.35 Q26.4 8.1 19.35 7.9 12.25 7.7 7.05 9.85 1.85 11.95 0.55 10.9 -0.7 9.8 1.25 7.3 3.2 4.8 8.25 3.8 L10.85 3.1 Q13.15 2.35 15.05 2.0 18.85 1.1 23.4 1.85 27.9 2.55 27.15 5.35 Z" fill="none" stroke="#a83131" stroke-linecap="round" stroke-linejoin="round" stroke-opacity="0.98039216" stroke-width="1"/>
  </g>
</svg>