<?xml version="1.0" encoding="UTF-8" standalone="no"?>
<svg xmlns:xlink="http://www.w3.org/1999/xlink" height="12.95px" width="29.15px" xmlns="http://www.w3.org/2000/svg">
  <g transform="matrix(1.0, 0.0, 0.0, 1.0, 0.65, -0.35)">
    <path d="M21.1 9.75 Q14.25 11.8 7.8 12.2 1.35 12.6 0.6 11.2 -0.15 9.95 1.3 7.75 3.2 4.8 8.25 3.8 L10.85 3.1 Q13.15 2.35 15.05 2.0 L22.15 1.45 Q26.95 2.0 27.45 4.85 27.95 7.65 21.1 9.75" fill="#d55e5e" fill-rule="evenodd" stroke="none"/>
    <path d="M21.1 9.75 Q14.25 11.8 7.8 12.2 1.35 12.6 0.6 11.2 -0.15 9.95 1.3 7.75 3.2 4.8 8.25 3.8 L10.85 3.1 Q13.15 2.35 15.05 2.0 L22.15 1.45 Q26.95 2.0 27.45 4.85 27.95 7.65 21.1 9.75 Z" fill="none" stroke="#a83131" stroke-linecap="round" stroke-linejoin="round" stroke-opacity="0.98039216" stroke-width="1"/>
  </g>
</svg>