<?xml version="1.0" encoding="UTF-8" standalone="no"?>
<svg xmlns:xlink="http://www.w3.org/1999/xlink" height="4.65px" width="12.6px" xmlns="http://www.w3.org/2000/svg">
  <g transform="matrix(1.0, 0.0, 0.0, 1.0, 2.8, 1)">
    <path d="M5.65 1.55 L6.8 1.75 Q7.5 2.0 7.6 2.35 7.5 2.0 6.8 1.75 L5.65 1.55 5.35 1.4 4.5 1.6 4.1 1.7 4.35 0.65 4.55 0.3 Q9.0 0.9 8.8 2.3 L7.6 2.35 4.4 2.5 4.2 2.15 4.2 2.05 5.6 1.8 5.65 1.55 M2.9 0.1 Q2.25 0.9 2.25 1.7 L2.25 1.8 -1.4 1.5 -1.6 1.55 -1.65 1.55 -1.7 1.7 Q-1.7 2.0 -0.55 2.0 L0.95 1.95 2.35 2.1 2.6 2.55 0.0 2.65 Q-1.85 2.75 -1.8 1.4 -1.8 0.1 0.0 0.0 L2.9 0.1" fill="url(#gradient0)" fill-rule="evenodd" stroke="none"/>
    <path d="M5.65 1.55 L5.6 1.8 4.2 2.05 4.1 1.75 4.1 1.7 4.5 1.6 5.35 1.4 5.65 1.55 M2.25 1.8 L2.35 2.1 0.95 1.95 -0.55 2.0 Q-1.7 2.0 -1.7 1.7 L-1.65 1.55 -1.6 1.55 -1.4 1.5 2.25 1.8" fill="#c38951" fill-rule="evenodd" stroke="none"/>
    <path d="M4.2 2.05 L4.2 2.15 4.4 2.5 2.6 2.55 2.35 2.1 3.05 2.15 4.2 2.05 M4.55 0.3 L4.35 0.65 4.1 1.7 3.35 1.8 2.25 1.8 2.25 1.7 Q2.25 0.9 2.9 0.1 L4.1 0.25 4.55 0.3" fill="#ce5757" fill-rule="evenodd" stroke="none"/>
    <path d="M2.25 1.8 L3.35 1.8 4.1 1.7 4.1 1.75 4.2 2.05 3.05 2.15 2.35 2.1 2.25 1.8" fill="#9c2525" fill-rule="evenodd" stroke="none"/>
    <path d="M7.6 2.35 Q7.5 2.0 6.8 1.75 L5.65 1.55 M4.4 2.5 L7.6 2.35 8.8 2.3 Q9.0 0.9 4.55 0.3 L4.1 0.25 2.9 0.1 0.0 0.0 M2.6 2.55 L4.4 2.5 M0.0 2.65 L2.6 2.55" fill="none" stroke="#85592e" stroke-linecap="round" stroke-linejoin="round" stroke-opacity="0.98039216" stroke-width="1"/>
  </g>
  <defs>
    <linearGradient gradientTransform="matrix(0.0078, -7.0E-4, 2.0E-4, 0.0022, 3.0, 0.95)" gradientUnits="userSpaceOnUse" id="gradient0" spreadMethod="pad" x1="-819.2" x2="819.2">
      <stop offset="0.0" stop-color="#e0b285"></stop>
      <stop offset="1.0" stop-color="#ffdbb8" stop-opacity="0.9882353"></stop>
    </linearGradient>
  </defs>
</svg>