<?xml version="1.0" encoding="UTF-8" standalone="no"?>
<svg xmlns:xlink="http://www.w3.org/1999/xlink" height="9.65px" width="8.1px" xmlns="http://www.w3.org/2000/svg">
  <g transform="matrix(1.0, 0.0, 0.0, 1.0, 1, 1)">
    <path d="M6.1 1.0 L6.1 1.2 Q6.1 1.7 5.75 2.05 5.4 2.4 4.9 2.4 4.4 2.4 4.05 2.05 L3.7 1.35 3.7 1.2 Q3.7 0.7 4.05 0.35 4.4 0.0 4.9 0.0 5.4 0.0 5.75 0.35 L6.1 1.0 M2.0 1.2 L1.7 1.95 Q1.4 2.3 1.0 2.3 0.6 2.3 0.3 1.95 L0.0 1.3 0.0 1.2 Q0.0 0.7 0.3 0.4 0.6 0.1 1.0 0.1 1.4 0.1 1.7 0.4 L2.0 1.0 2.0 1.2" fill="#ffffff" fill-rule="evenodd" stroke="none"/>
    <path d="M0.9 7.15 L0.7 6.6 0.7 6.45 Q0.7 5.95 1.05 5.6 1.4 5.25 1.9 5.25 2.4 5.25 2.75 5.6 L2.8 5.7 1.85 6.1 Q1.2 6.55 0.9 7.15" fill="#851f1f" fill-rule="evenodd" stroke="none"/>
    <path d="M2.8 5.7 L3.1 6.25 3.1 6.45 2.75 7.3 Q2.4 7.65 1.9 7.65 1.4 7.65 1.05 7.3 L0.9 7.15 Q1.2 6.55 1.85 6.1 L2.8 5.7" fill="#db6666" fill-rule="evenodd" stroke="none"/>
    <path d="M6.1 1.0 L6.1 1.2 Q6.1 1.7 5.75 2.05 5.4 2.4 4.9 2.4 4.4 2.4 4.05 2.05 L3.7 1.35 3.7 1.2 Q3.7 0.7 4.05 0.35 4.4 0.0 4.9 0.0 5.4 0.0 5.75 0.35 L6.1 1.0 M2.0 1.2 L1.7 1.95 Q1.4 2.3 1.0 2.3 0.6 2.3 0.3 1.95 L0.0 1.3 0.0 1.2 Q0.0 0.7 0.3 0.4 0.6 0.1 1.0 0.1 1.4 0.1 1.7 0.4 L2.0 1.0 2.0 1.2 M0.9 7.15 L0.7 6.6 0.7 6.45 Q0.7 5.95 1.05 5.6 1.4 5.25 1.9 5.25 2.4 5.25 2.75 5.6 L2.8 5.7 3.1 6.25 3.1 6.45 2.75 7.3 Q2.4 7.65 1.9 7.65 1.4 7.65 1.05 7.3 L0.9 7.15 Z" fill="none" stroke="#85592e" stroke-linecap="round" stroke-linejoin="round" stroke-opacity="0.98039216" stroke-width="1"/>
  </g>
</svg>