<?xml version="1.0" encoding="UTF-8" standalone="no"?>
<svg xmlns:xlink="http://www.w3.org/1999/xlink" height="18.8px" width="28.8px" xmlns="http://www.w3.org/2000/svg">
  <g transform="matrix(1.0, 0.0, 0.0, 1.0, 1, 7)">
    <path d="M22.6 0.0 L24.2 1.3 26.8 3.25 21.95 4.9 14.95 7.1 Q9.7 8.85 6.05 9.6 L0.25 10.8 Q-0.65 5.9 1.4 0.4 L1.55 0.0 Q11.7 -12.0 22.6 0.0" fill="url(#gradient0)" fill-rule="evenodd" stroke="none"/>
    <path d="M1.55 0.0 L1.4 0.4 Q-0.65 5.9 0.25 10.8 L6.05 9.6 Q9.7 8.85 14.95 7.1 L21.95 4.9 26.8 3.25 24.2 1.3 22.6 0.0" fill="none" stroke="#a83131" stroke-linecap="round" stroke-linejoin="round" stroke-opacity="0.98039216" stroke-width="1"/>
    <path d="M18.45 -2.2 L22.0 0.1 22.0 0.15 Q19.55 -1.4 18.6 -1.8 L13.75 -2.85 18.45 -2.2 M18.25 5.5 L15.3 5.45 16.55 5.5 18.2 5.25 Q19.3 4.95 20.2 4.25 19.4 5.2 18.25 5.5 M12.55 6.9 Q10.6 7.45 7.45 5.55 L6.6 4.95 Q9.4 6.3 12.65 6.8 L12.55 6.9" fill="url(#gradient1)" fill-rule="evenodd" stroke="none"/>
  </g>
  <defs>
    <linearGradient gradientTransform="matrix(0.0027, 0.0102, -0.0163, 0.0043, 11.45, -0.95)" gradientUnits="userSpaceOnUse" id="gradient0" spreadMethod="pad" x1="-819.2" x2="819.2">
      <stop offset="0.0" stop-color="#eeaaaa"></stop>
      <stop offset="1.0" stop-color="#ffffff" stop-opacity="0.9882353"></stop>
    </linearGradient>
    <linearGradient gradientTransform="matrix(-0.0014, 0.0025, -0.0049, -0.0028, 12.4, 23.3)" gradientUnits="userSpaceOnUse" id="gradient1" spreadMethod="pad" x1="-819.2" x2="819.2">
      <stop offset="0.0" stop-color="#db6666"></stop>
      <stop offset="1.0" stop-color="#b63a3a" stop-opacity="0.9882353"></stop>
    </linearGradient>
  </defs>
</svg>