<?xml version="1.0" encoding="UTF-8" standalone="no"?>
<svg xmlns:xlink="http://www.w3.org/1999/xlink" height="27.05px" width="25.3px" xmlns="http://www.w3.org/2000/svg">
  <g transform="matrix(1.0, 0.0, 0.0, 1.0, -2.05, -2)">
    <path d="M22.85 3.05 L24.5 3.2 24.25 3.35 15.8 3.9 9.85 4.35 6.95 4.35 6.4 4.3 6.35 4.15 13.15 3.45 22.85 3.0 22.85 3.05 M22.4 6.0 L22.4 6.25 6.4 6.65 6.35 6.15 13.5 6.15 20.3 5.9 22.4 6.0" fill="#f0dc79" fill-rule="evenodd" stroke="none"/>
    <path d="M11.55 5.35 L6.5 5.45 6.35 5.4 Q6.4 5.05 6.8 4.95 L16.85 4.4 18.5 4.4 20.2 4.5 Q19.5 5.2 11.55 5.35 M18.75 7.65 L22.0 7.6 14.05 8.45 9.1 8.45 7.0 8.5 Q6.25 8.7 5.75 7.8 L6.1 7.6 7.45 7.7 8.95 7.95 14.35 7.95 18.75 7.65" fill="#d6a842" fill-rule="evenodd" stroke="none"/>
    <path d="M17.15 8.9 Q21.1 8.6 26.35 9.05 L11.8 9.85 6.05 9.85 5.9 9.55 5.95 9.4 6.25 9.35 11.55 9.35 17.15 8.9" fill="#a07143" fill-rule="evenodd" stroke="none"/>
    <path d="M4.3 12.15 L23.95 10.95 6.05 12.4 4.4 12.3 4.3 12.15 M7.9 13.55 L16.85 13.55 20.35 13.6 18.75 13.85 17.0 14.05 7.3 14.05 7.15 13.9 Q7.45 13.55 7.9 13.55" fill="#e2b68c" fill-rule="evenodd" stroke="none"/>
    <path d="M21.85 23.45 L22.0 23.55 22.25 24.0 22.3 24.25 21.9 23.5 21.85 23.45 M21.6 22.65 L21.3 22.3 19.8 19.7 17.05 15.65 17.25 15.65 18.6 17.5 Q20.45 20.1 21.4 22.2 L21.6 22.65 M16.75 15.65 L17.0 16.75 17.0 17.7 16.9 17.85 Q16.4 18.3 15.35 18.3 14.25 18.3 12.75 17.55 L12.3 17.15 11.7 16.7 11.45 16.5 11.2 16.3 10.6 15.9 10.55 15.9 10.5 15.85 10.2 15.65 Q9.55 15.3 9.2 15.3 9.0 15.3 8.65 15.65 8.0 16.3 6.9 18.2 6.1 19.45 4.95 22.35 L4.8 22.5 5.3 20.95 Q6.4 17.8 8.6 15.65 L9.25 15.05 10.3 15.3 10.35 15.3 10.4 15.35 10.65 15.6 10.75 15.65 10.85 15.75 11.05 15.9 11.7 16.45 11.9 16.6 12.55 17.15 13.3 17.5 15.65 18.05 Q16.45 18.05 16.7 17.35 L16.55 15.65 16.75 15.65 M4.4 23.8 L4.35 23.9 4.25 24.1 4.3 24.05 4.1 24.8 3.7 25.9 3.45 26.65 3.9 26.35 Q4.8 25.85 5.55 25.85 6.05 25.85 7.05 26.6 8.05 27.3 9.05 27.3 9.85 27.3 10.6 26.9 11.4 26.45 11.7 26.45 12.55 26.45 14.7 27.25 L15.7 27.6 3.05 27.6 3.35 26.8 4.0 24.8 4.55 23.2 4.4 23.8 M4.1 25.4 L4.4 24.8 5.05 23.35 Q5.4 23.1 5.8 23.1 6.55 23.1 7.55 24.3 L8.0 24.8 Q8.75 25.5 9.55 25.5 10.45 25.5 11.05 25.1 L11.4 24.8 11.65 24.25 12.15 24.8 13.05 25.95 13.05 26.0 Q12.35 25.4 11.75 25.4 11.2 25.4 10.1 26.0 9.0 26.6 8.55 26.6 7.95 26.6 6.95 25.4 L6.45 24.8 5.6 24.2 Q5.2 24.2 4.65 24.8 L4.1 25.4 M5.5 22.25 L5.6 21.95 5.7 21.8 6.85 19.85 7.35 20.0 7.5 19.9 7.5 19.85 7.1 19.4 7.25 19.15 7.55 19.1 8.8 18.95 9.85 19.3 Q9.4 18.5 8.35 18.45 L10.1 17.4 8.65 17.45 8.85 17.2 9.85 16.6 10.05 16.55 10.25 16.65 10.3 16.65 11.6 17.25 Q11.95 17.55 13.75 18.2 L15.65 18.8 Q16.25 18.8 16.85 18.45 L16.95 18.4 Q17.85 18.0 18.95 18.95 L19.5 19.9 18.65 19.25 Q17.95 18.8 17.7 18.9 L17.8 18.95 17.7 18.95 Q17.05 19.0 16.75 19.35 L16.2 20.15 14.8 19.55 12.95 19.15 Q11.75 19.15 11.2 19.6 L10.6 20.35 10.4 20.75 10.35 21.05 10.3 21.45 Q10.3 22.15 11.25 23.85 L9.7 24.8 8.9 24.95 8.55 24.8 7.6 23.6 Q6.8 22.25 5.5 22.25 M20.4 21.35 L20.95 22.25 20.6 22.5 20.45 22.95 20.4 22.95 20.45 21.9 20.4 21.35 M21.65 23.35 L22.45 24.7 21.95 24.2 21.45 24.8 21.25 25.1 20.55 24.9 Q20.25 24.9 20.1 25.15 L20.4 23.85 20.5 24.15 20.75 24.35 21.15 23.85 Q21.35 23.35 21.6 23.35 L21.65 23.35 M22.8 25.25 L24.0 27.5 24.1 27.6 19.45 27.6 20.1 26.9 Q20.45 25.7 20.65 25.7 L21.05 25.85 21.5 26.0 21.95 25.6 Q22.3 25.2 22.55 25.2 L22.8 25.25" fill="url(#gradient0)" fill-rule="evenodd" stroke="none"/>
    <path d="M21.85 23.45 L21.4 22.6 21.3 22.3 21.6 22.65 22.1 23.6 22.0 23.55 21.85 23.45 M4.95 22.35 L4.4 23.8 4.55 23.2 4.55 23.1 4.8 22.5 4.95 22.35 M4.35 23.9 L4.3 24.05 4.25 24.1 4.35 23.9 M3.7 25.9 L3.9 25.65 4.0 25.55 4.0 25.5 4.1 25.4 4.65 24.8 Q5.2 24.2 5.6 24.2 L6.45 24.8 6.95 25.4 Q7.95 26.6 8.55 26.6 9.0 26.6 10.1 26.0 11.2 25.4 11.75 25.4 12.35 25.4 13.05 26.0 L13.05 25.95 12.15 24.8 11.65 24.25 11.4 24.8 11.05 25.1 Q10.45 25.5 9.55 25.5 8.75 25.5 8.0 24.8 L7.55 24.3 Q6.55 23.1 5.8 23.1 5.4 23.1 5.05 23.35 L5.5 22.25 Q6.8 22.25 7.6 23.6 L8.55 24.8 8.9 24.95 9.7 24.8 11.25 23.85 Q10.3 22.15 10.3 21.45 L10.35 21.05 10.4 20.75 10.6 20.35 11.2 19.6 Q11.75 19.15 12.95 19.15 L14.8 19.55 16.2 20.15 16.75 19.35 Q17.05 19.0 17.7 18.95 L17.8 18.95 17.7 18.9 Q17.95 18.8 18.65 19.25 L19.5 19.9 20.4 21.35 20.45 21.9 20.4 22.95 20.45 22.95 20.6 22.5 20.95 22.25 21.65 23.35 21.6 23.35 Q21.35 23.35 21.15 23.85 L20.75 24.35 20.5 24.15 20.4 23.85 20.1 25.15 Q20.25 24.9 20.55 24.9 L21.25 25.1 21.45 24.8 21.95 24.2 22.45 24.7 22.55 24.8 22.7 25.1 22.6 24.8 22.35 24.35 22.35 24.3 22.3 24.25 22.25 24.0 22.6 24.8 22.7 25.0 22.75 25.15 22.8 25.25 22.55 25.2 Q22.3 25.2 21.95 25.6 L21.5 26.0 21.05 25.85 20.65 25.7 Q20.45 25.7 20.1 26.9 L19.45 27.6 17.6 28.05 15.7 27.6 14.7 27.25 Q12.55 26.45 11.7 26.45 11.4 26.45 10.6 26.9 9.85 27.3 9.05 27.3 8.05 27.3 7.05 26.6 6.05 25.85 5.55 25.85 4.8 25.85 3.9 26.35 L3.45 26.65 3.7 25.9 M12.2 23.9 L13.1 24.8 Q15.15 26.75 17.75 27.3 18.5 27.45 19.25 25.55 L19.55 24.8 19.95 22.9 Q19.95 21.85 19.45 20.95 18.9 19.95 18.15 19.95 17.6 19.95 17.35 20.4 17.05 20.85 16.8 22.1 L15.75 21.15 Q14.05 19.8 13.05 20.05 9.55 20.95 12.2 23.9" fill="#ffffff" fill-opacity="0.98039216" fill-rule="evenodd" stroke="none"/>
    <path d="M21.3 22.3 L21.4 22.6 21.85 23.45 21.9 23.5 22.3 24.25 22.35 24.3 22.35 24.35 22.6 24.8 22.7 25.1 22.55 24.8 22.45 24.7 21.65 23.35 20.95 22.25 20.4 21.35 19.5 19.9 18.95 18.95 Q17.85 18.0 16.95 18.4 L16.85 18.45 Q16.25 18.8 15.65 18.8 L13.75 18.2 Q11.95 17.55 11.6 17.25 L10.3 16.65 10.25 16.65 10.05 16.55 9.85 16.6 8.85 17.2 8.65 17.45 10.1 17.4 8.35 18.45 Q9.4 18.5 9.85 19.3 L8.8 18.95 7.55 19.1 7.25 19.15 7.1 19.4 7.5 19.85 7.5 19.9 7.35 20.0 6.85 19.85 5.7 21.8 5.6 21.95 5.5 22.25 5.05 23.35 4.4 24.8 4.1 25.4 4.0 25.5 4.0 25.55 3.9 25.65 3.7 25.9 4.1 24.8 4.3 24.05 4.35 23.9 4.4 23.8 4.95 22.35 Q6.1 19.45 6.9 18.2 8.0 16.3 8.65 15.65 9.0 15.3 9.2 15.3 9.55 15.3 10.2 15.65 L10.5 15.85 10.55 15.9 10.6 15.9 11.2 16.3 11.45 16.5 11.7 16.7 12.3 17.15 12.75 17.55 Q14.25 18.3 15.35 18.3 16.4 18.3 16.9 17.85 L17.0 17.7 17.0 16.75 16.75 15.65 16.65 15.45 16.45 15.05 16.45 14.9 16.9 15.4 17.0 15.6 17.05 15.65 19.8 19.7 21.3 22.3" fill="#d35d5d" fill-opacity="0.9882353" fill-rule="evenodd" stroke="none"/>
    <path d="M18.7 21.5 L18.4 21.35 18.4 20.95 18.5 20.9 18.7 21.05 18.7 21.5" fill="#ffffff" fill-rule="evenodd" stroke="none"/>
    <path d="M16.9 15.4 L16.45 14.9 17.0 15.35 16.9 15.4" fill="url(#gradient1)" fill-rule="evenodd" stroke="none"/>
    <path d="M13.8 15.65 L16.6 15.55 16.5 15.65 13.8 15.65" fill="url(#gradient2)" fill-rule="evenodd" stroke="none"/>
    <path d="M10.75 15.65 L11.75 15.65 13.35 15.65 13.8 15.65 16.5 15.65 16.55 15.65 16.7 17.35 Q16.45 18.05 15.65 18.05 L13.3 17.5 12.55 17.15 11.9 16.6 11.7 16.45 11.05 15.9 10.85 15.75 10.75 15.65" fill="url(#gradient3)" fill-rule="evenodd" stroke="none"/>
    <path d="M12.2 23.9 Q9.55 20.95 13.05 20.05 14.05 19.8 15.75 21.15 L16.8 22.1 Q17.05 20.85 17.35 20.4 17.6 19.95 18.15 19.95 18.9 19.95 19.45 20.95 19.95 21.85 19.95 22.9 L19.55 24.8 19.25 25.55 Q18.5 27.45 17.75 27.3 15.15 26.75 13.1 24.8 L12.2 23.9 M18.2 20.6 L18.1 21.15 Q18.1 22.05 18.7 22.05 L18.95 21.5 18.75 20.9 Q18.55 20.6 18.3 20.6 L18.2 20.6" fill="url(#gradient4)" fill-rule="evenodd" stroke="none"/>
    <path d="M18.2 20.6 L18.3 20.6 Q18.55 20.6 18.75 20.9 L18.95 21.5 18.7 22.05 Q18.1 22.05 18.1 21.15 L18.2 20.6 M18.7 21.5 L18.7 21.05 18.5 20.9 18.4 20.95 18.4 21.35 18.7 21.5" fill="#eeaaaa" fill-rule="evenodd" stroke="none"/>
    <path d="M22.0 23.55 L22.25 24.0 M22.7 25.0 L22.75 25.15 22.8 25.25 24.0 27.5 24.1 27.6 M3.05 27.6 L3.35 26.8 4.0 24.8 4.55 23.2 4.55 23.1 M4.8 22.5 L5.3 20.95 Q6.4 17.8 8.6 15.65 L9.25 15.05 M21.6 22.65 L21.4 22.2 Q20.45 20.1 18.6 17.5 L17.25 15.65 17.0 15.35 16.45 14.9" fill="none" stroke="#a83131" stroke-linecap="round" stroke-linejoin="round" stroke-opacity="0.98039216" stroke-width="1"/>
    <path d="M16.9 15.4 L17.0 15.35" fill="none" stroke="#85592e" stroke-linecap="round" stroke-linejoin="round" stroke-opacity="0.98039216" stroke-width="1"/>
  </g>
  <defs>
    <linearGradient gradientTransform="matrix(0.0015, 0.0117, -0.0126, 0.0016, 13.55, 27.15)" gradientUnits="userSpaceOnUse" id="gradient0" spreadMethod="pad" x1="-819.2" x2="819.2">
      <stop offset="0.0" stop-color="#eeaaaa"></stop>
      <stop offset="1.0" stop-color="#ffffff" stop-opacity="0.9882353"></stop>
    </linearGradient>
    <linearGradient gradientTransform="matrix(0.0062, 9.0E-4, 0.0011, -0.0044, 18.45, 13.15)" gradientUnits="userSpaceOnUse" id="gradient1" spreadMethod="pad" x1="-819.2" x2="819.2">
      <stop offset="0.0" stop-color="#e0b285"></stop>
      <stop offset="1.0" stop-color="#ffdbb8" stop-opacity="0.9882353"></stop>
    </linearGradient>
    <linearGradient gradientTransform="matrix(-0.002, 3.0E-4, 0.0, 0.0027, 13.0, 16.9)" gradientUnits="userSpaceOnUse" id="gradient2" spreadMethod="pad" x1="-819.2" x2="819.2">
      <stop offset="0.0" stop-color="#c2874e"></stop>
      <stop offset="1.0" stop-color="#e0b285" stop-opacity="0.9882353"></stop>
    </linearGradient>
    <linearGradient gradientTransform="matrix(0.002, 0.0, 0.0, 0.0027, 14.0, 16.25)" gradientUnits="userSpaceOnUse" id="gradient3" spreadMethod="pad" x1="-819.2" x2="819.2">
      <stop offset="0.0" stop-color="#c2874e"></stop>
      <stop offset="1.0" stop-color="#e0b285" stop-opacity="0.9882353"></stop>
    </linearGradient>
    <linearGradient gradientTransform="matrix(-0.0014, 0.0025, -0.0049, -0.0028, 15.45, 23.05)" gradientUnits="userSpaceOnUse" id="gradient4" spreadMethod="pad" x1="-819.2" x2="819.2">
      <stop offset="0.0" stop-color="#db6666"></stop>
      <stop offset="1.0" stop-color="#b63a3a" stop-opacity="0.9882353"></stop>
    </linearGradient>
  </defs>
</svg>