<?xml version="1.0" encoding="UTF-8" standalone="no"?>
<svg xmlns:xlink="http://www.w3.org/1999/xlink" height="30.05px" width="26.1px" xmlns="http://www.w3.org/2000/svg">
  <g id="shape0" transform="matrix(1.0, 0.0, 0.0, 1.0, 4.05, 0.75)">
    <path d="M15.9 2.4 L17.05 2.45 18.35 2.7 19.05 3.1 15.3 4.55 16.15 4.95 Q18.65 6.15 19.05 6.15 L16.8 6.8 15.5 7.15 14.95 7.1 10.15 6.4 11.4 8.25 10.65 8.4 10.65 8.0 10.65 8.4 Q9.4 8.45 7.8 7.7 L7.85 8.45 4.75 9.75 4.75 9.65 4.75 9.35 4.75 9.1 4.8 8.45 Q5.15 7.85 5.85 7.75 L6.85 7.95 7.15 8.2 Q7.3 7.75 9.65 6.6 9.6 6.3 9.85 6.05 L10.55 5.75 11.0 5.85 11.4 5.5 Q11.85 5.15 12.4 5.15 L13.55 4.85 14.55 4.65 14.6 4.65 14.6 4.7 15.15 4.7 Q15.25 2.95 15.9 2.4" fill="url(#gradient0)" fill-rule="evenodd" stroke="none"/>
    <path d="M5.2 7.1 L5.6 6.9 Q5.95 6.85 6.2 7.15 L6.9 7.4 8.65 6.45 10.15 5.3 9.6 4.85 12.5 4.45 Q14.5 4.25 14.5 3.55 L14.25 2.9 14.15 2.8 15.9 2.4 Q15.25 2.95 15.15 4.7 L14.6 4.7 14.6 4.65 14.55 4.65 13.55 4.85 12.4 5.15 Q11.85 5.15 11.4 5.5 L11.0 5.85 10.55 5.75 9.85 6.05 Q9.6 6.3 9.65 6.6 7.3 7.75 7.15 8.2 L6.85 7.95 5.85 7.75 Q5.15 7.85 4.8 8.45 L5.2 7.1" fill="#ffffff" fill-rule="evenodd" stroke="none"/>
    <path d="M14.15 2.8 L14.25 2.9 14.5 3.55 Q14.5 4.25 12.5 4.45 L9.6 4.85 10.15 5.3 8.65 6.45 6.9 7.4 6.2 7.15 Q5.95 6.85 5.6 6.9 L5.2 7.1 5.9 6.0 Q7.15 4.6 9.4 4.3 9.55 1.65 13.15 0.25 L12.0 3.8 14.15 2.8" fill="url(#gradient1)" fill-rule="evenodd" stroke="none"/>
    <path d="M10.65 8.4 L11.4 8.25 10.15 6.4 14.95 7.1 15.6 9.05 15.65 9.1 15.9 9.7 15.0 10.15 14.55 10.25 12.95 10.3 12.9 10.3 11.25 10.2 9.8 10.25 8.7 10.25 Q8.5 11.45 8.1 11.95 L7.85 8.45 7.8 7.7 Q9.4 8.45 10.65 8.4 L11.25 9.25 Q12.0 9.95 12.7 9.85 L13.0 9.75 12.7 9.85 Q12.0 9.95 11.25 9.25 L10.65 8.4 M14.75 9.65 L15.1 9.6 15.6 9.05 15.1 9.6 14.75 9.65 M15.35 11.95 L15.35 12.2 14.95 12.65 14.5 12.7 14.3 12.25 15.35 11.95" fill="url(#gradient2)" fill-rule="evenodd" stroke="none"/>
    <path d="M12.9 10.3 L12.95 10.3 14.55 10.25 15.0 10.15 15.9 9.7 16.4 10.5 Q17.25 11.35 17.25 12.35 L17.05 13.35 16.25 14.35 16.15 14.45 14.7 15.35 13.6 15.7 13.55 15.8 10.75 15.9 10.3 15.9 7.55 16.05 7.95 13.7 8.1 11.95 Q8.5 11.45 8.7 10.25 L9.8 10.25 11.25 10.2 12.9 10.3 M15.35 11.95 L14.3 12.25 14.5 12.7 14.95 12.65 15.35 12.2 15.35 11.95 M11.75 14.25 Q12.05 13.55 13.4 13.4 15.5 13.15 15.5 14.2 L15.45 14.5 15.5 14.2 Q15.5 13.15 13.4 13.4 12.05 13.55 11.75 14.25" fill="url(#gradient3)" fill-rule="evenodd" stroke="none"/>
    <path d="M15.5 7.15 L15.65 9.0 15.6 9.05 15.65 9.0 15.65 9.1 15.6 9.05 14.95 7.1 15.5 7.15 M3.15 8.65 L3.55 8.85 4.4 9.4 4.15 10.0 3.15 8.65 M1.9 14.4 L2.65 13.45 3.6 12.0 2.0 11.9 1.5 12.05 1.5 12.0 Q1.85 11.7 3.2 11.1 L4.05 10.75 4.1 10.75 4.1 10.85 Q4.1 11.85 4.75 12.55 L5.3 13.1 1.65 16.2 1.9 14.4" fill="url(#gradient4)" fill-rule="evenodd" stroke="none"/>
    <path d="M3.15 8.65 L4.15 10.0 4.1 10.75 4.05 10.75 3.2 11.1 Q1.85 11.7 1.5 12.0 L1.5 12.05 2.0 11.9 3.6 12.0 2.65 13.45 1.9 14.4 2.3 13.2 -3.05 14.4 Q-0.45 11.6 2.9 10.55 L0.85 7.85 Q1.85 7.9 3.15 8.65" fill="url(#gradient5)" fill-rule="evenodd" stroke="none"/>
    <path d="M4.15 10.0 L4.4 9.4 4.75 9.1 4.75 9.35 4.75 9.65 4.75 9.75 4.9 10.6 4.4 10.75 4.1 10.75 4.15 10.0" fill="#c23737" fill-rule="evenodd" stroke="none"/>
    <path d="M8.1 11.95 L7.95 13.7 7.55 16.05 6.75 14.7 5.75 13.15 5.55 12.85 5.55 12.8 4.9 10.6 4.75 9.75 7.85 8.45 8.1 11.95" fill="url(#gradient6)" fill-rule="evenodd" stroke="none"/>
    <path d="M4.1 10.75 L4.4 10.75 4.9 10.6 5.55 12.8 5.55 12.85 5.75 13.15 5.3 13.1 4.75 12.55 Q4.1 11.85 4.1 10.85 L4.1 10.75" fill="#9c2525" fill-rule="evenodd" stroke="none"/>
    <path d="M7.55 16.05 L7.4 16.85 7.2 16.9 7.5 16.25 7.5 16.1 Q7.1 16.35 6.95 16.85 L6.9 16.9 6.7 16.95 7.55 16.05" fill="url(#gradient7)" fill-rule="evenodd" stroke="none"/>
    <path d="M7.55 16.05 L10.3 15.9 10.75 15.9 13.55 15.8 13.2 16.15 7.4 16.85 7.55 16.05" fill="url(#gradient8)" fill-rule="evenodd" stroke="none"/>
    <path d="M15.9 2.4 L17.05 2.45 18.35 2.7 19.05 3.1 15.3 4.55 16.15 4.95 Q18.65 6.15 19.05 6.15 L16.8 6.8 15.5 7.15 15.65 9.0 15.65 9.1 M5.2 7.1 L4.8 8.45 4.75 9.1 4.75 9.35 4.75 9.65 4.75 9.75 4.9 10.6 5.55 12.8 5.55 12.85 5.75 13.15 6.75 14.7 7.55 16.05 7.95 13.7 8.1 11.95 7.85 8.45 7.8 7.7 Q9.4 8.45 10.65 8.4 L11.4 8.25 10.15 6.4 14.95 7.1 M15.9 2.4 L14.15 2.8 12.0 3.8 13.15 0.25 Q9.55 1.65 9.4 4.3 7.15 4.6 5.9 6.0 L5.2 7.1 M4.4 9.4 L3.55 8.85 3.15 8.65 Q1.85 7.9 0.85 7.85 L2.9 10.55 Q-0.45 11.6 -3.05 14.4 L2.3 13.2 1.9 14.4 1.65 16.2 5.3 13.1" fill="none" stroke="#c68914" stroke-linecap="round" stroke-linejoin="round" stroke-opacity="0.98039216" stroke-width="1"/>
    <path d="M15.65 9.0 L15.9 8.5 15.9 7.95 M10.65 8.4 L11.25 9.25 Q12.0 9.95 12.7 9.85 L13.0 9.75 M10.65 8.4 L10.65 8.0 M12.9 10.3 L11.25 10.2 9.8 10.25 M13.6 15.7 L14.7 15.35 16.15 14.45 16.25 14.35 17.05 13.35 17.25 12.35 Q17.25 11.35 16.4 10.5 L15.9 9.7 15.0 10.15 M15.6 9.05 L15.1 9.6 14.75 9.65 M15.6 9.05 L15.65 9.0 M15.65 9.1 L15.9 9.7 16.35 9.6 M14.95 7.1 L15.5 7.15" fill="none" stroke="#85592e" stroke-linecap="round" stroke-linejoin="round" stroke-opacity="0.98039216" stroke-width="1"/>
    <path d="M4.15 10.0 L4.4 9.4 4.75 9.1 M4.05 10.75 L4.1 10.75 4.15 10.0 M4.1 10.75 L4.1 10.85 Q4.1 11.85 4.75 12.55 L5.3 13.1 5.75 13.15" fill="none" stroke="#a30000" stroke-linecap="round" stroke-linejoin="round" stroke-opacity="0.98039216" stroke-width="1"/>
    <path d="M15.45 14.5 L15.5 14.2 Q15.5 13.15 13.4 13.4 12.05 13.55 11.75 14.25" fill="none" stroke="#7b5100" stroke-linecap="round" stroke-linejoin="round" stroke-opacity="0.98039216" stroke-width="1"/>
    <path d="M15.45 21.15 L15.65 21.3 15.65 21.75 15.35 21.6 15.35 21.2 15.45 21.15" fill="#ffffff" fill-rule="evenodd" stroke="none"/>
    <path d="M13.7 15.9 L13.95 17.0 13.95 17.95 13.85 18.1 Q13.35 18.55 12.3 18.55 11.2 18.55 9.7 17.8 L9.25 17.4 8.65 16.95 8.15 16.55 7.15 15.9 Q6.5 15.55 6.15 15.55 5.95 15.55 5.6 15.9 4.95 16.55 3.85 18.45 3.05 19.7 1.9 22.6 L1.75 22.75 2.25 21.2 Q3.35 18.05 5.55 15.9 L6.2 15.3 7.3 15.55 7.35 15.6 7.7 15.9 8.0 16.15 8.85 16.85 9.5 17.4 10.25 17.75 Q11.6 18.3 12.6 18.3 13.4 18.3 13.65 17.6 L13.5 15.9 13.7 15.9 M1.35 24.05 L1.3 24.15 1.2 24.35 1.25 24.3 0.65 26.15 0.4 26.9 0.85 26.6 Q1.75 26.1 2.5 26.1 3.0 26.1 4.0 26.85 5.0 27.55 6.0 27.55 L7.55 27.15 Q8.35 26.7 8.65 26.7 9.5 26.7 11.65 27.5 L12.65 27.85 0.0 27.85 0.3 27.05 1.5 23.45 1.35 24.05 M1.05 25.65 L2.0 23.6 2.75 23.35 Q3.5 23.35 4.5 24.55 5.45 25.75 6.5 25.75 7.4 25.75 8.0 25.35 L8.6 24.5 10.0 26.2 10.0 26.25 Q9.3 25.65 8.7 25.65 8.15 25.65 7.05 26.25 L5.5 26.85 Q4.9 26.85 3.9 25.65 2.9 24.45 2.55 24.45 2.0 24.45 1.05 25.65 M2.45 22.5 L2.55 22.2 2.65 22.05 3.8 20.1 4.3 20.25 4.45 20.15 4.45 20.1 4.05 19.65 4.2 19.4 4.5 19.35 5.75 19.2 6.8 19.55 Q6.35 18.75 5.3 18.7 6.85 18.05 7.05 17.65 L5.6 17.7 5.8 17.45 Q6.4 16.8 7.0 16.8 L8.55 17.5 Q8.9 17.8 10.7 18.45 L12.6 19.05 13.8 18.7 13.9 18.65 Q14.8 18.25 15.9 19.2 L16.45 20.15 15.6 19.5 Q14.9 19.05 14.65 19.15 L14.75 19.2 14.65 19.2 Q14.0 19.25 13.7 19.6 L13.15 20.4 11.75 19.8 9.9 19.4 Q8.7 19.4 8.15 19.85 7.85 20.05 7.55 20.6 L7.35 21.0 7.3 21.3 7.25 21.7 Q7.25 22.4 8.2 24.1 6.9 25.2 5.85 25.2 5.35 25.2 4.55 23.85 3.75 22.5 2.45 22.5 M17.35 21.6 L17.9 22.5 Q17.65 22.55 17.55 22.75 L17.4 23.2 17.35 23.2 17.4 22.15 17.35 21.6 M18.6 23.6 L19.4 24.95 18.9 24.45 Q18.7 24.45 18.2 25.35 L17.5 25.15 Q17.2 25.15 17.05 25.4 L17.35 24.1 17.45 24.4 17.7 24.6 18.1 24.1 18.55 23.6 18.6 23.6 M19.25 24.5 L18.85 23.75 18.8 23.7 18.95 23.8 19.2 24.25 19.25 24.5 M18.25 22.55 L16.75 19.95 14.0 15.9 14.2 15.9 15.55 17.75 Q17.4 20.35 18.35 22.45 L18.55 22.9 18.25 22.55 M16.4 27.85 L17.05 27.15 Q17.4 25.95 17.6 25.95 L18.0 26.1 18.45 26.25 18.9 25.85 Q19.25 25.45 19.5 25.45 L19.75 25.5 20.95 27.75 21.05 27.85 16.4 27.85" fill="url(#gradient9)" fill-rule="evenodd" stroke="none"/>
    <path d="M1.9 22.6 Q3.05 19.7 3.85 18.45 4.95 16.55 5.6 15.9 5.95 15.55 6.15 15.55 6.5 15.55 7.15 15.9 L8.15 16.55 8.65 16.95 9.25 17.4 9.7 17.8 Q11.2 18.55 12.3 18.55 13.35 18.55 13.85 18.1 L13.95 17.95 13.95 17.0 13.7 15.9 13.4 15.3 13.4 15.15 13.95 15.85 14.0 15.9 16.75 19.95 18.25 22.55 18.35 22.85 18.8 23.7 18.85 23.75 19.25 24.5 19.3 24.55 19.3 24.6 19.65 25.35 19.4 24.95 18.6 23.6 17.9 22.5 17.35 21.6 16.45 20.15 15.9 19.2 Q14.8 18.25 13.9 18.65 L13.8 18.7 12.6 19.05 10.7 18.45 Q8.9 17.8 8.55 17.5 L7.0 16.8 Q6.4 16.8 5.8 17.45 L5.6 17.7 7.05 17.65 Q6.85 18.05 5.3 18.7 6.35 18.75 6.8 19.55 L5.75 19.2 4.5 19.35 4.2 19.4 4.05 19.65 4.45 20.1 4.45 20.15 4.3 20.25 3.8 20.1 2.65 22.05 2.55 22.2 2.45 22.5 2.0 23.6 1.05 25.65 0.95 25.75 0.95 25.8 0.85 25.9 0.65 26.15 1.25 24.3 1.3 24.15 1.35 24.05 1.9 22.6" fill="#d35d5d" fill-opacity="0.9882353" fill-rule="evenodd" stroke="none"/>
    <path d="M13.5 15.9 L13.65 17.6 Q13.4 18.3 12.6 18.3 11.6 18.3 10.25 17.75 L9.5 17.4 8.85 16.85 8.0 16.15 7.7 15.9 13.5 15.9" fill="url(#gradient10)" fill-rule="evenodd" stroke="none"/>
    <path d="M1.75 22.75 L1.9 22.6 1.35 24.05 1.5 23.45 1.5 23.35 1.75 22.75 M1.3 24.15 L1.25 24.3 1.2 24.35 1.3 24.15 M0.65 26.15 L0.85 25.9 0.95 25.8 0.95 25.75 1.05 25.65 Q2.0 24.45 2.55 24.45 2.9 24.45 3.9 25.65 4.9 26.85 5.5 26.85 L7.05 26.25 Q8.15 25.65 8.7 25.65 9.3 25.65 10.0 26.25 L10.0 26.2 8.6 24.5 8.0 25.35 Q7.4 25.75 6.5 25.75 5.45 25.75 4.5 24.55 3.5 23.35 2.75 23.35 L2.0 23.6 2.45 22.5 Q3.75 22.5 4.55 23.85 5.35 25.2 5.85 25.2 6.9 25.2 8.2 24.1 7.25 22.4 7.25 21.7 L7.3 21.3 7.35 21.0 7.55 20.6 Q7.85 20.05 8.15 19.85 8.7 19.4 9.9 19.4 L11.75 19.8 13.15 20.4 13.7 19.6 Q14.0 19.25 14.65 19.2 L14.75 19.2 14.65 19.15 Q14.9 19.05 15.6 19.5 L16.45 20.15 17.35 21.6 17.4 22.15 17.35 23.2 17.4 23.2 17.55 22.75 Q17.65 22.55 17.9 22.5 L18.6 23.6 18.55 23.6 18.1 24.1 17.7 24.6 17.45 24.4 17.35 24.1 17.05 25.4 Q17.2 25.15 17.5 25.15 L18.2 25.35 Q18.7 24.45 18.9 24.45 L19.4 24.95 19.65 25.35 19.3 24.6 19.3 24.55 19.25 24.5 19.2 24.25 19.05 23.9 19.65 25.25 19.7 25.4 19.75 25.5 19.5 25.45 Q19.25 25.45 18.9 25.85 L18.45 26.25 18.0 26.1 17.6 25.95 Q17.4 25.95 17.05 27.15 L16.4 27.85 14.55 28.3 12.65 27.85 11.65 27.5 Q9.5 26.7 8.65 26.7 8.35 26.7 7.55 27.15 L6.0 27.55 Q5.0 27.55 4.0 26.85 3.0 26.1 2.5 26.1 1.75 26.1 0.85 26.6 L0.4 26.9 0.65 26.15 M18.8 23.7 L18.35 22.85 18.25 22.55 18.55 22.9 19.05 23.85 18.95 23.8 18.8 23.7 M9.15 24.15 Q11.55 26.9 14.7 27.55 15.45 27.7 16.2 25.8 16.9 24.1 16.9 23.15 16.9 22.1 16.4 21.2 15.85 20.2 15.1 20.2 14.55 20.2 14.3 20.65 14.0 21.1 13.75 22.35 L12.7 21.4 Q11.0 20.05 10.0 20.3 6.5 21.2 9.15 24.15" fill="#ffffff" fill-opacity="0.98039216" fill-rule="evenodd" stroke="none"/>
    <path d="M9.15 24.15 Q6.5 21.2 10.0 20.3 11.0 20.05 12.7 21.4 L13.75 22.35 Q14.0 21.1 14.3 20.65 14.55 20.2 15.1 20.2 15.85 20.2 16.4 21.2 16.9 22.1 16.9 23.15 16.9 24.1 16.2 25.8 15.45 27.7 14.7 27.55 11.55 26.9 9.15 24.15 M15.05 21.4 Q15.05 22.3 15.65 22.3 L15.9 21.75 15.7 21.15 Q15.5 20.85 15.25 20.85 L15.15 20.85 15.05 21.4" fill="url(#gradient11)" fill-rule="evenodd" stroke="none"/>
    <path d="M15.05 21.4 L15.15 20.85 15.25 20.85 Q15.5 20.85 15.7 21.15 L15.9 21.75 15.65 22.3 Q15.05 22.3 15.05 21.4 M15.45 21.15 L15.35 21.2 15.35 21.6 15.65 21.75 15.65 21.3 15.45 21.15" fill="#eeaaaa" fill-rule="evenodd" stroke="none"/>
    <path d="M6.2 15.3 L5.55 15.9 Q3.35 18.05 2.25 21.2 L1.75 22.75 M1.5 23.35 L1.5 23.45 0.3 27.05 0.0 27.85 M14.2 15.9 L13.4 15.15 M18.55 22.9 L18.35 22.45 Q17.4 20.35 15.55 17.75 L14.2 15.9 M19.2 24.25 L18.95 23.8 M21.05 27.85 L20.95 27.75 19.75 25.5 19.7 25.4 19.65 25.25" fill="none" stroke="#a83131" stroke-linecap="round" stroke-linejoin="round" stroke-opacity="0.98039216" stroke-width="1"/>
  </g>
  <linearGradient gradientTransform="matrix(-4.0E-4, -0.0013, -0.0139, 0.0054, 8.75, 11.65)" gradientUnits="userSpaceOnUse" id="gradient0" spreadMethod="pad" x1="-819.2" x2="819.2">
    <stop offset="0.0" stop-color="#fff087"></stop>
    <stop offset="1.0" stop-color="#f7e141" stop-opacity="0.9882353"></stop>
  </linearGradient>
  <linearGradient gradientTransform="matrix(0.0, 0.0017, 0.0057, -7.0E-4, 9.85, 3.65)" gradientUnits="userSpaceOnUse" id="gradient1" spreadMethod="pad" x1="-819.2" x2="819.2">
    <stop offset="0.0" stop-color="#fff087"></stop>
    <stop offset="1.0" stop-color="#f7e141" stop-opacity="0.9882353"></stop>
  </linearGradient>
  <linearGradient gradientTransform="matrix(0.0, -0.0017, -0.0049, 6.0E-4, 11.85, 8.65)" gradientUnits="userSpaceOnUse" id="gradient2" spreadMethod="pad" x1="-819.2" x2="819.2">
    <stop offset="0.0" stop-color="#c2874e"></stop>
    <stop offset="1.0" stop-color="#e0b285" stop-opacity="0.9882353"></stop>
  </linearGradient>
  <linearGradient gradientTransform="matrix(0.0062, 9.0E-4, 0.0011, -0.0044, 15.4, 13.4)" gradientUnits="userSpaceOnUse" id="gradient3" spreadMethod="pad" x1="-819.2" x2="819.2">
    <stop offset="0.0" stop-color="#e0b285"></stop>
    <stop offset="1.0" stop-color="#ffdbb8" stop-opacity="0.9882353"></stop>
  </linearGradient>
  <linearGradient gradientTransform="matrix(-0.002, 8.0E-4, 0.0013, 0.0048, 2.95, 11.3)" gradientUnits="userSpaceOnUse" id="gradient4" spreadMethod="pad" x1="-819.2" x2="819.2">
    <stop offset="0.0" stop-color="#c6951d"></stop>
    <stop offset="1.0" stop-color="#f7e141" stop-opacity="0.9882353"></stop>
  </linearGradient>
  <linearGradient gradientTransform="matrix(0.0018, -2.0E-4, 0.0, -0.0041, 0.1, 11.3)" gradientUnits="userSpaceOnUse" id="gradient5" spreadMethod="pad" x1="-819.2" x2="819.2">
    <stop offset="0.0" stop-color="#fff087"></stop>
    <stop offset="1.0" stop-color="#f7e141" stop-opacity="0.9882353"></stop>
  </linearGradient>
  <linearGradient gradientTransform="matrix(0.0, -0.0023, -0.002, 3.0E-4, 6.45, 13.55)" gradientUnits="userSpaceOnUse" id="gradient6" spreadMethod="pad" x1="-819.2" x2="819.2">
    <stop offset="0.0" stop-color="#c6951d"></stop>
    <stop offset="1.0" stop-color="#f7e141" stop-opacity="0.9882353"></stop>
  </linearGradient>
  <linearGradient gradientTransform="matrix(-0.0015, 0.0118, 0.0126, 0.0, 10.4, 28.0)" gradientUnits="userSpaceOnUse" id="gradient7" spreadMethod="pad" x1="-819.2" x2="819.2">
    <stop offset="0.0" stop-color="#eeaaaa"></stop>
    <stop offset="1.0" stop-color="#ffffff" stop-opacity="0.9882353"></stop>
  </linearGradient>
  <linearGradient gradientTransform="matrix(-0.002, 3.0E-4, 0.0, 0.0027, 9.95, 17.15)" gradientUnits="userSpaceOnUse" id="gradient8" spreadMethod="pad" x1="-819.2" x2="819.2">
    <stop offset="0.0" stop-color="#c2874e"></stop>
    <stop offset="1.0" stop-color="#e0b285" stop-opacity="0.9882353"></stop>
  </linearGradient>
  <linearGradient gradientTransform="matrix(0.0015, 0.0117, -0.0126, 0.0016, 10.5, 27.4)" gradientUnits="userSpaceOnUse" id="gradient9" spreadMethod="pad" x1="-819.2" x2="819.2">
    <stop offset="0.0" stop-color="#eeaaaa"></stop>
    <stop offset="1.0" stop-color="#ffffff" stop-opacity="0.9882353"></stop>
  </linearGradient>
  <linearGradient gradientTransform="matrix(0.002, 0.0, 0.0, 0.0027, 10.95, 16.5)" gradientUnits="userSpaceOnUse" id="gradient10" spreadMethod="pad" x1="-819.2" x2="819.2">
    <stop offset="0.0" stop-color="#c2874e"></stop>
    <stop offset="1.0" stop-color="#e0b285" stop-opacity="0.9882353"></stop>
  </linearGradient>
  <linearGradient gradientTransform="matrix(-0.0014, 0.0025, -0.0049, -0.0028, 12.4, 23.3)" gradientUnits="userSpaceOnUse" id="gradient11" spreadMethod="pad" x1="-819.2" x2="819.2">
    <stop offset="0.0" stop-color="#db6666"></stop>
    <stop offset="1.0" stop-color="#b63a3a" stop-opacity="0.9882353"></stop>
  </linearGradient>
</svg>