<?xml version="1.0" encoding="UTF-8" standalone="no"?>
<svg xmlns:xlink="http://www.w3.org/1999/xlink" height="4.5px" width="9.2px" xmlns="http://www.w3.org/2000/svg">
  <g transform="matrix(1.0, 0.0, 0.0, 1.0, 1, 1)">
    <path d="M3.45 2.45 L2.35 2.2 Q1.35 1.85 0.9 1.5 L0.8 1.4 0.0 0.5 0.35 0.4 1.0 0.6 2.15 0.75 3.75 0.4 5.35 0.0 Q6.3 0.0 6.8 0.55 L7.1 1.0 7.2 1.45 6.9 1.85 6.3 2.25 3.5 2.5 3.45 2.45" fill="#ffffff" fill-opacity="0.98039216" fill-rule="evenodd" stroke="none"/>
    <path d="M3.45 2.45 L2.35 2.2 Q1.35 1.85 0.9 1.5 L0.8 1.4 0.0 0.5 0.35 0.4 1.0 0.6 2.15 0.75 3.75 0.4 5.35 0.0 Q6.3 0.0 6.8 0.55 L7.1 1.0 7.2 1.45 6.9 1.85 6.3 2.25" fill="none" stroke="#85592e" stroke-linecap="round" stroke-linejoin="round" stroke-opacity="0.98039216" stroke-width="1"/>
  </g>
</svg>