<?xml version="1.0" encoding="UTF-8" standalone="no"?>
<svg xmlns:xlink="http://www.w3.org/1999/xlink" height="4.85px" width="11.25px" xmlns="http://www.w3.org/2000/svg">
  <g transform="matrix(1.0, 0.0, 0.0, 1.0, 2.2, 1.1)">
    <path d="M6.35 2.65 L2.85 2.75 Q-0.2 2.8 -1.0 1.6 -1.75 0.5 0.0 0.1 L2.55 -0.05 6.35 0.0 Q7.95 0.2 8.05 1.45 8.15 2.7 6.35 2.65 M7.75 1.85 L7.65 1.55 3.95 1.55 -0.65 1.2 -0.75 1.3 -0.25 1.75 0.55 1.8 4.5 1.85 4.5 1.95 4.65 1.85 7.65 2.15 7.75 1.85" fill="url(#gradient0)" fill-rule="evenodd" stroke="none"/>
    <path d="M7.75 1.85 L7.65 2.15 4.65 1.85 4.5 1.95 4.5 1.85 0.55 1.8 -0.25 1.75 -0.75 1.3 -0.65 1.2 3.95 1.55 7.65 1.55 7.75 1.85" fill="#c38951" fill-rule="evenodd" stroke="none"/>
    <path d="M6.35 0.0 L2.55 -0.05 0.0 0.1 Q-1.75 0.5 -1.0 1.6 -0.2 2.8 2.85 2.75 L6.35 2.65" fill="none" stroke="#85592e" stroke-linecap="round" stroke-linejoin="round" stroke-opacity="0.98039216" stroke-width="1"/>
  </g>
  <defs>
    <linearGradient gradientTransform="matrix(0.0078, -7.0E-4, 2.0E-4, 0.0022, 9.35, 0.95)" gradientUnits="userSpaceOnUse" id="gradient0" spreadMethod="pad" x1="-819.2" x2="819.2">
      <stop offset="0.0" stop-color="#e0b285"></stop>
      <stop offset="1.0" stop-color="#ffdbb8" stop-opacity="0.9882353"></stop>
    </linearGradient>
  </defs>
</svg>