<?xml version="1.0" encoding="UTF-8" standalone="no"?>
<svg xmlns:xlink="http://www.w3.org/1999/xlink" height="46px" width="72.95px" xmlns="http://www.w3.org/2000/svg">
  <g transform="matrix(1.0, 0.0, 0.0, 1.0, 2.35, 1)">
    <path d="M67.15 8.3 Q69.8 14.8 69.6 20.4 69.4 25.95 68.85 28.8 68.25 31.6 67.3 34.0 69.4 25.25 68.65 16.4 L68.0 11.25 67.15 8.3 M51.9 8.55 Q55.65 13.9 55.35 20.7 55.0 27.9 53.1 34.95 52.6 36.7 51.5 38.3 53.95 30.35 54.5 22.05 55.0 14.3 50.9 7.6 L51.9 8.55 M17.25 7.6 L15.95 10.2 Q13.15 16.05 13.55 22.5 14.1 30.5 16.65 38.3 L15.4 34.75 Q13.2 28.05 12.75 21.0 12.3 13.15 17.25 7.6 M-1.35 21.95 Q-1.45 14.55 1.75 8.3 -0.4 14.15 -0.45 20.35 -0.55 27.1 0.8 33.95 -1.3 28.2 -1.35 21.95" fill="#b7f0ec" fill-rule="evenodd" stroke="none"/>
    <path d="M60.8 4.6 L59.6 2.3 Q64.25 8.55 64.85 16.35 65.35 23.0 64.5 29.55 63.7 36.05 61.0 42.15 63.65 33.7 64.3 24.75 64.75 18.6 63.6 12.6 L63.2 10.8 Q62.3 7.65 60.8 4.6 M6.4 6.95 L4.95 12.2 Q3.35 19.5 4.1 27.15 4.9 34.8 7.15 42.15 L6.5 40.45 Q4.15 34.05 3.5 27.2 2.9 20.65 3.85 13.95 4.75 7.5 8.55 2.3 L6.4 6.95" fill="#8fd9d3" fill-rule="evenodd" stroke="none"/>
    <path d="M54.5 0.0 L57.8 6.15 Q60.25 12.45 60.15 19.1 60.05 25.75 59.0 32.15 57.95 38.85 53.95 44.0 56.8 38.35 58.1 32.25 59.45 25.9 59.25 19.3 59.0 9.75 54.75 0.95 L54.5 0.0 M13.65 0.2 L11.75 5.25 Q9.85 9.15 9.25 13.25 7.95 22.45 9.95 31.75 11.3 38.2 14.2 44.0 12.6 42.1 11.7 39.7 9.2 32.65 8.45 25.05 7.75 17.55 9.35 10.35 10.65 4.75 13.65 0.2" fill="#74c9c2" fill-rule="evenodd" stroke="none"/>
    <path d="M49.85 30.55 Q52.5 21.5 49.7 12.6 53.45 18.25 51.9 25.6 51.45 27.6 50.5 29.5 L49.85 30.55 M18.45 12.25 L17.85 14.8 Q15.95 22.85 18.35 30.55 L17.5 28.8 Q14.95 21.35 17.35 14.15 L18.45 12.25" fill="#dcfcf9" fill-rule="evenodd" stroke="none"/>
  </g>
</svg>