<?xml version="1.0" encoding="UTF-8" standalone="no"?>
<svg xmlns:xlink="http://www.w3.org/1999/xlink" height="58.65px" width="32.1px" xmlns="http://www.w3.org/2000/svg">
  <g transform="matrix(1.0, 0.0, 0.0, 1.0, 9.45, 0.75)">
    <path d="M7.8 5.6 L7.85 5.55 7.8 5.65 7.8 5.6 M1.9 20.1 Q4.65 14.15 9.2 9.35 L10.55 8.0 10.15 8.55 10.65 8.85 7.15 13.9 5.5 16.2 6.55 13.1 Q2.65 19.25 0.9 26.2 L1.1 24.05 1.9 20.1 M3.1 31.2 Q2.7 37.85 4.05 44.65 L4.45 46.55 3.9 45.9 3.5 44.65 3.0 42.75 2.7 40.25 Q2.2 35.75 3.1 31.2 M1.35 47.55 L0.95 47.15 -0.5 43.1 -0.8 38.8 -0.6 37.2 Q-0.05 42.25 1.3 47.3 L1.35 47.55 M1.7 50.4 Q2.5 53.25 4.45 55.5 L5.7 56.9 Q1.85 54.5 0.8 50.3 L0.55 49.15 1.7 50.4 M-1.55 42.75 Q-3.35 36.25 -3.25 29.5 L-3.1 26.1 -3.0 29.45 Q-2.7 36.15 -1.55 42.75 M3.55 8.3 L4.15 7.9 2.9 10.3 Q2.35 11.45 1.95 12.7 L1.85 12.9 Q0.8 14.8 0.05 16.95 -1.8 22.2 -2.5 27.6 L-2.0 23.45 Q-0.85 15.3 3.55 8.3 M8.7 17.45 L8.95 17.1 7.85 19.95 8.7 17.45 M11.4 13.65 L12.25 12.85 Q7.8 21.3 7.05 30.7 6.3 39.45 10.1 47.35 L11.85 50.55 10.8 47.4 14.05 51.8 14.7 52.75 Q8.75 50.1 7.1 44.45 L6.65 42.0 6.5 40.75 6.45 38.85 6.95 25.95 7.7 23.55 Q9.3 18.5 11.4 13.65 M12.6 16.7 Q13.4 15.05 15.05 14.45 L15.7 14.2 14.2 16.25 Q11.6 21.45 10.45 27.35 L9.95 30.2 9.3 35.05 Q9.2 32.0 9.35 29.1 L9.65 25.6 11.15 20.35 12.25 17.55 12.6 16.7 M9.85 35.85 Q10.45 41.4 11.9 46.8 L12.65 49.4 11.5 46.5 Q9.6 41.35 9.85 35.85 M7.45 46.25 L11.4 53.05 10.25 51.55 5.95 45.3 7.9 49.9 Q9.1 52.7 10.6 55.2 9.6 54.55 8.9 53.6 6.5 50.3 5.6 46.3 L4.9 42.95 4.85 37.8 Q5.45 42.95 7.55 47.3 L7.45 46.25 M4.15 41.1 Q2.05 32.45 4.4 23.9 6.45 16.6 10.6 10.2 6.45 18.05 4.9 26.6 3.95 31.95 4.15 37.45 L4.15 41.1 M4.2 36.6 Q4.2 30.65 5.65 24.85 L6.4 22.0 4.2 36.6" fill="#e0bae5" fill-rule="evenodd" stroke="none"/>
    <path d="M4.15 7.9 L4.7 7.05 Q6.9 3.5 10.35 0.75 10.5 0.6 10.7 0.6 10.85 0.6 11.0 0.75 L11.15 1.1 11.05 1.45 Q9.25 3.45 7.8 5.6 L7.8 5.65 7.2 6.55 6.7 7.25 Q4.7 10.5 3.4 14.1 2.4 16.75 1.8 19.65 L1.35 22.15 1.1 24.05 0.9 26.2 0.8 27.95 0.8 28.95 Q0.65 36.3 2.65 43.5 4.45 50.0 7.6 56.2 L7.65 56.55 7.45 56.8 7.1 56.9 6.8 56.75 Q3.3 53.25 1.65 48.45 L1.65 48.5 1.35 47.55 1.3 47.3 Q-0.05 42.25 -0.6 37.2 L-0.7 35.75 -0.75 35.05 -0.95 29.4 -0.9 28.1 Q-0.65 20.25 1.85 12.9 L1.95 12.7 Q2.35 11.45 2.9 10.3 L4.15 7.9 M3.2 0.25 Q3.35 0.25 3.5 0.4 L3.65 0.75 3.55 1.1 Q-4.35 10.0 -6.15 21.8 -7.8 32.55 -4.85 43.15 -3.05 49.65 0.1 55.85 L0.15 56.2 -0.05 56.45 -0.4 56.55 -0.7 56.4 Q-4.65 52.45 -6.2 46.95 -8.55 38.1 -8.45 29.05 -8.35 20.4 -5.55 12.35 -3.15 5.25 2.85 0.4 L3.2 0.25" fill="#ffffff" fill-rule="evenodd" stroke="none"/>
    <path d="M0.95 47.15 L1.6 49.5 1.7 50.4 0.55 49.15 -1.55 42.75 Q-2.7 36.15 -3.0 29.45 L-3.1 26.1 Q-2.4 17.75 1.55 10.45 4.35 5.3 8.65 1.2 L3.55 8.3 Q-0.85 15.3 -2.0 23.45 L-2.5 27.6 Q-2.3 33.9 -1.15 40.05 L-0.5 43.1 0.95 47.15" fill="#000000" fill-rule="evenodd" stroke="none"/>
    <path d="M3.4 14.1 L3.65 13.6 4.5 13.5 1.9 20.1 1.1 24.05 1.35 22.15 1.8 19.65 Q2.4 16.75 3.4 14.1 M7.15 13.9 L7.8 13.35 Q3.65 21.75 3.1 31.2 2.2 35.75 2.7 40.25 L3.0 42.75 1.75 37.55 Q1.5 30.3 3.1 23.3 3.9 19.6 5.5 16.2 L7.15 13.9 M3.9 45.9 L4.35 47.8 3.5 44.65 3.9 45.9 M-0.7 35.75 L-0.6 37.2 -0.8 38.8 -0.7 35.75 M6.4 22.0 L8.9 15.95 10.05 13.45 8.7 17.45 7.85 19.95 8.95 17.1 10.4 14.85 12.0 12.75 11.4 13.65 Q9.3 18.5 7.7 23.55 L6.95 25.95 Q5.45 33.35 6.5 40.75 L6.65 42.0 7.1 44.45 7.45 46.25 7.55 47.3 Q5.45 42.95 4.85 37.8 L4.9 42.95 5.25 48.45 4.15 41.1 4.15 37.45 4.2 36.6 6.4 22.0 M10.8 47.4 Q7.4 39.55 7.8 31.1 8.2 22.3 13.25 15.05 L12.6 16.7 12.25 17.55 11.15 20.35 9.65 25.6 Q8.1 32.2 8.9 38.65 L9.35 41.75 9.3 35.05 9.95 30.2 Q11.1 24.4 13.15 19.0 L14.2 16.25 15.7 14.2 16.4 13.75 Q11.8 22.2 10.35 31.55 L9.85 35.85 Q9.6 41.35 11.5 46.5 L12.65 49.4 14.6 52.05 14.05 51.8 10.8 47.4 M18.8 20.3 Q14.6 29.15 15.7 38.85 16.2 43.55 17.75 47.85 13.95 44.65 14.15 38.65 14.3 32.65 15.3 26.75 11.05 36.1 14.25 45.85 L15.2 48.45 Q12.15 44.95 11.75 40.35 10.8 28.8 17.2 19.15 16.75 21.6 15.55 23.8 L15.0 24.8 18.25 20.45 18.8 20.3 M18.8 22.9 Q16.45 31.75 19.45 40.45 L20.85 44.15 Q17.0 37.85 16.55 30.35 16.3 26.4 18.1 23.35 L18.8 22.9 M20.95 25.35 L21.65 23.5 20.95 33.45 Q19.7 29.4 20.95 25.35" fill="#c186c9" fill-rule="evenodd" stroke="none"/>
  </g>
</svg>