<?xml version="1.0" encoding="UTF-8" standalone="no"?>
<svg xmlns:xlink="http://www.w3.org/1999/xlink" height="7.8px" width="5.9px" xmlns="http://www.w3.org/2000/svg">
  <g transform="matrix(1.0, 0.0, 0.0, 1.0, 1, 0.5)">
    <path d="M0.05 3.95 L0.0 3.25 0.1 2.65 0.35 1.8 0.85 0.8 1.05 0.65 Q1.25 0.5 1.5 0.5 L1.65 0.5 2.3 1.1 2.65 2.2 Q2.65 3.45 2.1 4.0 L1.5 3.2 0.85 4.35 Q0.25 4.3 0.05 3.95 M0.85 4.35 L1.5 3.2 2.1 4.0 0.95 4.35 0.85 4.35 M2.2 1.6 L1.5 3.2 0.6 2.1 1.5 3.2 2.2 1.6" fill="#e9bad5" fill-rule="evenodd" stroke="none"/>
    <path d="M3.7 2.7 L3.9 3.95 Q3.9 6.3 1.9 6.3 1.2 6.3 0.65 5.9 0.05 5.45 0.15 4.85 L0.35 5.15 Q0.55 5.45 1.7 5.45 3.6 5.45 3.7 3.3 L3.7 2.7" fill="url(#gradient0)" fill-rule="evenodd" stroke="none"/>
    <path d="M1.65 0.5 L2.75 0.8 Q3.6 1.1 3.7 2.7 L3.7 3.3 Q3.6 5.45 1.7 5.45 0.55 5.45 0.35 5.15 L0.15 4.85 0.05 3.95 Q0.25 4.3 0.85 4.35 L0.95 4.35 2.1 4.0 Q2.65 3.45 2.65 2.2 L2.3 1.1 1.65 0.5 M2.55 4.6 L2.1 4.0 2.55 4.6" fill="#bf83a6" fill-rule="evenodd" stroke="none"/>
    <path d="M1.65 0.5 L2.75 0.8 Q3.6 1.1 3.7 2.7 L3.7 3.3 Q3.6 5.45 1.7 5.45 0.55 5.45 0.35 5.15 L0.15 4.85 0.05 3.95 0.0 3.25 0.1 2.65 0.35 1.8 0.85 0.8 1.05 0.65 Q1.25 0.5 1.5 0.5 L1.65 0.5 M2.1 4.0 L2.55 4.6 M2.1 4.0 L1.5 3.2 0.85 4.35 M0.6 2.1 L1.5 3.2 2.2 1.6" fill="none" stroke="#8f6c95" stroke-linecap="round" stroke-linejoin="round" stroke-width="1"/>
  </g>
  <defs>
    <linearGradient gradientTransform="matrix(6.0E-4, 0.0103, -0.0116, 7.0E-4, 10.9, 15.6)" gradientUnits="userSpaceOnUse" id="gradient0" spreadMethod="pad" x1="-819.2" x2="819.2">
      <stop offset="0.0" stop-color="#8f6c95"></stop>
      <stop offset="0.9921568627450981" stop-color="#c5afc9"></stop>
    </linearGradient>
  </defs>
</svg>