<?xml version="1.0" encoding="UTF-8" standalone="no"?>
<svg xmlns:xlink="http://www.w3.org/1999/xlink" height="13.9px" width="21.65px" xmlns="http://www.w3.org/2000/svg">
  <g transform="matrix(1.0, 0.0, 0.0, 1.0, 17.6, -1.15)">
    <path d="M1.65 13.5 L1.35 13.85 -0.65 14.05 Q-2.9 14.05 -3.9 12.75 -2.65 13.8 1.45 13.55 L1.65 13.5 M3.05 2.15 L0.65 3.7 Q-1.0 4.75 -1.9 4.9 L-2.2 4.85 0.25 3.35 Q1.85 2.35 3.05 2.15 M-6.3 9.05 Q-4.45 10.25 -4.45 11.0 L-4.4 11.55 -4.8 10.75 Q-4.85 10.65 -6.85 9.35 -8.7 8.1 -8.7 7.5 -8.7 7.05 -5.15 5.35 -1.9 3.8 -1.0 3.6 -1.8 4.4 -5.2 5.85 -8.2 7.1 -8.2 7.5 L-6.3 9.05 M-16.25 8.45 Q-16.25 9.0 -15.2 9.6 -13.85 10.35 -11.6 10.5 L-13.0 10.6 Q-14.7 10.6 -15.8 9.7 -16.6 9.05 -16.6 8.5 -16.6 8.1 -15.9 7.75 L-16.0 7.7 Q-14.1 6.1 -10.25 5.35 -13.7 6.75 -15.35 7.6 -16.25 8.15 -16.25 8.45" fill="#ffffff" fill-opacity="0.61960787" fill-rule="evenodd" stroke="none"/>
  </g>
</svg>