<?xml version="1.0" encoding="UTF-8" standalone="no"?>
<svg xmlns:xlink="http://www.w3.org/1999/xlink" height="127.2px" width="84.5px" xmlns="http://www.w3.org/2000/svg">
  <g transform="matrix(1.0, 0.0, 0.0, 1.0, 102.65, 83.9)">
    <path d="M-49.35 31.0 L-49.05 29.55 -48.35 29.75 -49.35 31.0 M-57.35 24.95 L-57.95 26.55 -58.45 28.3 -58.6 28.65 -87.25 42.3 -62.05 24.75 -57.9 24.4 -57.35 24.95 M-63.35 16.65 L-63.6 16.95 -65.55 20.1 -66.1 21.1 -94.9 24.9 -67.85 15.2 -67.25 15.45 -64.55 16.15 -64.05 16.35 -63.35 16.65 M-64.8 5.0 L-65.35 5.25 Q-68.5 6.65 -70.2 7.7 L-101.65 1.8 -70.2 1.0 -66.95 3.6 -64.8 5.0 M-64.45 8.8 L-64.35 8.7 -64.35 8.8 -64.45 8.8 M-28.45 -20.8 Q-29.9 -19.75 -31.0 -17.9 L-31.0 -17.85 -31.55 -18.15 -31.65 -21.25 -23.95 -48.6 -28.45 -20.8 M-21.55 -7.65 L-21.7 -8.0 -21.5 -9.6 -19.15 -12.0 -21.55 -7.65 M-40.8 -23.25 L-41.8 -27.15 -38.1 -82.9 -36.15 -26.3 -37.35 -23.6 -39.45 -20.2 -39.6 -20.2 -40.8 -23.25 M-49.8 -22.1 L-50.1 -19.75 -51.6 -21.7 -53.7 -24.25 -59.6 -50.2 -49.55 -24.15 -49.8 -22.1 M-65.4 -8.4 L-65.65 -8.4 -83.05 -23.25 -63.6 -12.7 -62.1 -9.6 -61.5 -8.45 -62.35 -8.45 -65.4 -8.45 -65.4 -8.4" fill="#ffffff" fill-opacity="0.8" fill-rule="evenodd" stroke="none"/>
  </g>
</svg>