<?xml version="1.0" encoding="UTF-8" standalone="no"?>
<svg xmlns:xlink="http://www.w3.org/1999/xlink" height="20.4px" width="65.8px" xmlns="http://www.w3.org/2000/svg">
  <g transform="matrix(1.0, 0.0, 0.0, 1.0, -0.15, -1.2)">
    <path d="M64.9 8.15 L64.95 8.65 64.65 9.25 63.25 9.8 63.15 9.7 Q63.75 9.05 64.25 8.9 L64.6 8.65 Q64.6 8.35 63.8 7.65 L63.9 7.65 Q64.65 7.8 64.9 8.15 M48.45 12.95 Q49.3 12.4 53.9 10.15 53.75 9.65 52.5 8.8 51.15 7.9 50.15 7.9 L50.15 7.65 Q51.05 7.55 52.65 8.5 54.25 9.45 54.25 10.1 54.25 10.95 48.45 12.95 M36.8 3.85 Q39.7 4.05 39.7 4.8 39.7 5.4 38.65 6.0 36.9 7.05 36.45 7.4 L38.9 7.5 Q43.9 9.3 43.9 10.25 43.9 11.1 39.9 12.5 35.85 13.9 35.85 14.7 L36.05 15.35 Q36.05 16.85 31.95 18.05 L29.2 18.7 31.45 18.1 Q35.8 16.7 35.8 15.4 L35.55 14.7 Q35.55 13.85 38.7 12.5 L43.6 10.25 Q42.7 9.1 38.85 7.8 L35.95 7.75 35.9 7.6 37.55 6.2 39.4 4.85 Q39.2 4.6 38.9 4.45 L36.65 4.15 36.6 3.95 36.8 3.85 M25.7 3.35 Q25.7 3.6 22.4 4.85 L18.8 6.3 Q24.65 6.3 28.25 7.25 31.5 8.05 31.5 9.2 31.5 9.95 29.6 11.35 28.7 11.95 27.75 12.2 L24.7 12.85 19.45 13.9 Q16.55 14.55 14.15 15.5 L14.05 15.55 17.0 16.2 Q18.05 16.3 18.05 16.7 18.05 17.95 12.25 19.0 L4.1 20.5 1.45 20.6 1.15 20.6 9.55 19.0 Q14.5 18.05 17.65 16.9 L17.75 16.7 15.5 16.1 13.1 15.5 Q14.25 14.7 17.6 13.8 L23.25 12.8 Q25.8 12.6 28.6 11.3 31.2 10.05 31.2 9.25 31.2 8.3 27.95 7.45 24.2 6.45 18.4 6.45 19.05 5.45 21.2 4.65 L25.2 3.3 Q24.75 2.95 23.1 2.6 L19.3 2.6 18.1 2.8 11.9 2.8 11.65 2.9 11.0 2.9 10.8 2.65 11.95 2.45 18.0 2.4 19.55 2.25 19.55 2.2 23.0 2.2 Q25.7 2.9 25.7 3.35" fill="#ffffff" fill-opacity="0.61960787" fill-rule="evenodd" stroke="none"/>
  </g>
</svg>