<?xml version="1.0" encoding="UTF-8" standalone="no"?>
<svg xmlns:xlink="http://www.w3.org/1999/xlink" height="17.6px" width="34.7px" xmlns="http://www.w3.org/2000/svg">
  <g transform="matrix(1.0, 0.0, 0.0, 1.0, 74.1, -0.3)">
    <path d="M-48.45 2.6 L-49.4 3.55 -50.75 5.0 -51.6 6.55 Q-52.2 7.2 -55.0 7.65 -56.55 7.75 -57.65 8.7 -56.55 9.4 -53.85 9.75 -51.8 10.05 -51.8 10.9 L-52.05 11.85 Q-52.05 12.75 -50.3 13.35 -47.85 14.15 -47.65 14.3 L-46.1 15.75 Q-44.85 16.5 -40.75 16.5 L-40.4 16.6 -41.3 16.75 -43.25 16.9 Q-45.8 16.9 -47.0 15.9 L-48.35 14.45 Q-48.7 14.2 -50.95 13.4 -52.55 12.8 -52.55 11.9 L-52.35 10.9 Q-52.35 10.65 -52.7 10.55 L-54.25 10.25 -57.55 9.5 Q-58.15 9.15 -58.15 8.55 -58.15 8.1 -56.55 7.4 -54.75 6.65 -52.9 6.75 L-50.75 4.35 Q-49.45 2.85 -48.35 2.1 L-48.1 2.25 Q-47.0 1.4 -42.55 1.3 -48.1 2.1 -48.1 3.05 L-47.9 3.6 -47.9 3.7 Q-48.5 3.5 -48.5 2.85 L-48.45 2.6 M-55.85 2.15 L-55.65 2.2 Q-58.55 4.9 -59.2 6.25 -59.45 6.8 -62.1 7.85 -64.55 8.8 -64.55 9.45 -64.55 10.45 -61.85 11.05 -59.15 11.65 -59.15 12.7 L-60.45 14.25 -61.75 15.75 -61.7 15.95 -58.95 16.05 -58.35 16.2 -58.35 16.25 -58.95 16.35 -61.75 16.35 Q-62.1 16.2 -62.1 15.75 -62.1 15.35 -60.75 14.15 L-59.45 12.7 Q-59.45 12.1 -62.2 11.5 -65.0 10.9 -65.0 9.5 -65.0 8.65 -62.85 7.9 -60.4 7.05 -59.7 6.1 -57.5 3.15 -55.85 2.15 M-68.65 5.45 Q-68.65 5.7 -70.7 6.55 -72.8 7.45 -72.8 7.8 -72.8 7.95 -70.8 8.7 -68.8 9.45 -68.8 9.95 -68.8 10.4 -69.55 11.6 -69.55 12.1 -68.25 12.65 -67.0 13.2 -67.0 13.95 L-67.05 14.2 -67.1 14.25 Q-67.6 13.3 -68.85 12.75 -69.85 12.25 -69.85 11.6 L-69.5 10.7 -69.15 10.0 Q-69.15 9.7 -71.1 8.95 -73.1 8.2 -73.1 7.75 -73.1 7.25 -71.25 6.6 -69.15 5.8 -68.7 5.35 L-68.65 5.3 -68.65 5.45" fill="#ffffff" fill-opacity="0.61960787" fill-rule="evenodd" stroke="none"/>
  </g>
</svg>