<?xml version="1.0" encoding="UTF-8" standalone="no"?>
<svg xmlns:xlink="http://www.w3.org/1999/xlink" height="17.25px" width="39.35px" xmlns="http://www.w3.org/2000/svg">
  <g transform="matrix(1.0, 0.0, 0.0, 1.0, 72.85, -1.3)">
    <path d="M-36.2 2.45 L-35.35 2.55 -36.7 2.65 -38.6 3.4 Q-40.65 4.15 -41.15 4.55 L-41.65 5.1 -42.45 5.85 -43.1 6.5 Q-43.75 7.05 -44.05 6.6 -44.35 6.15 -45.15 6.95 -50.15 7.75 -50.15 8.4 -50.15 8.85 -48.95 9.3 L-46.0 9.85 Q-44.0 9.6 -43.6 10.6 -43.45 11.1 -43.65 11.65 -43.65 12.85 -34.5 13.5 L-35.0 13.6 -36.85 13.65 -41.65 13.2 Q-44.15 12.6 -44.1 11.5 -43.85 10.9 -44.25 10.65 -45.0 10.2 -47.85 9.95 -49.2 9.8 -49.95 9.3 -50.55 8.85 -50.55 8.4 -50.55 7.4 -47.25 6.8 -43.35 6.1 -42.5 5.35 -38.8 2.05 -36.1 2.35 L-36.2 2.45 M-35.6 17.35 L-35.6 17.4 -38.4 17.55 Q-40.45 17.55 -41.3 17.05 L-41.7 16.55 Q-41.7 15.95 -41.4 15.75 L-39.65 14.9 -39.4 15.05 -39.75 15.25 -39.35 15.35 -39.8 15.3 -41.3 16.5 -39.25 16.85 -35.6 17.35 M-57.15 8.05 L-56.9 8.5 -55.75 7.5 Q-54.75 6.65 -53.45 6.7 L-53.45 6.65 -53.0 6.8 Q-54.4 6.95 -55.45 7.65 L-56.8 8.7 -56.3 9.3 Q-55.45 10.05 -52.75 9.9 L-52.75 9.95 -54.6 10.1 Q-56.4 10.1 -56.95 9.2 L-57.25 8.1 -57.15 8.05 M-52.85 7.2 L-53.55 7.15 -53.55 6.9 Q-52.9 7.1 -51.95 6.2 -50.9 5.3 -50.55 5.35 L-51.6 6.35 Q-52.6 7.2 -52.85 7.2 M-52.55 10.6 L-52.4 10.6 Q-49.65 10.9 -49.9 12.75 L-50.75 11.75 -52.55 10.6 M-68.05 10.65 Q-70.95 9.65 -71.45 9.1 L-71.8 8.85 -71.85 8.3 -71.7 7.7 Q-71.45 7.4 -70.7 7.05 L-70.4 7.15 -71.4 7.75 -71.55 8.35 -71.05 8.85 -69.7 9.55 -68.05 10.6 -68.05 10.65 M-61.7 8.2 Q-63.55 8.85 -63.8 9.45 L-63.75 10.65 -63.8 10.9 -63.8 10.95 -64.15 9.9 Q-64.15 9.35 -63.5 8.75 -62.8 8.05 -62.0 8.05 L-61.7 8.15 -61.7 8.2" fill="#ffffff" fill-opacity="0.61960787" fill-rule="evenodd" stroke="none"/>
  </g>
</svg>