<?xml version="1.0" encoding="UTF-8" standalone="no"?>
<svg xmlns:xlink="http://www.w3.org/1999/xlink" height="17.6px" width="42.65px" xmlns="http://www.w3.org/2000/svg">
  <g transform="matrix(1.0, 0.0, 0.0, 1.0, 27.95, -2.5)">
    <path d="M10.75 11.4 Q12.0 9.75 13.3 9.05 L13.35 8.9 12.85 8.45 12.3 8.2 12.3 7.95 Q13.05 7.95 13.45 8.35 L13.7 8.9 Q13.7 9.25 10.75 11.4 M-9.75 12.3 L-10.0 12.35 -6.45 10.9 Q-3.75 9.7 -3.75 9.0 -3.75 8.45 -4.4 8.15 L-6.55 7.45 -6.55 7.4 -4.15 7.9 Q-3.45 8.25 -3.45 9.05 -3.45 9.7 -5.95 10.9 -8.35 12.1 -9.75 12.3 M-19.6 3.5 L-18.4 4.35 Q-18.25 4.6 -18.25 5.15 L-19.35 6.45 -15.75 7.7 Q-14.25 8.2 -14.25 8.85 -14.25 9.45 -18.45 11.65 -22.7 13.9 -22.7 14.7 L-21.9 15.45 Q-21.1 15.9 -21.1 16.25 -21.1 16.7 -22.8 17.8 -24.8 19.1 -26.7 19.05 L-26.95 19.1 Q-26.1 18.55 -25.0 18.3 L-23.2 17.75 -22.15 17.0 -21.45 16.35 -22.75 15.5 -23.0 14.65 Q-23.0 13.6 -18.85 11.55 -14.7 9.45 -14.7 8.75 -14.7 8.2 -17.25 7.5 -19.8 6.85 -19.8 6.55 L-19.15 5.65 -18.55 4.85 Q-18.55 4.5 -18.95 4.25 L-19.9 3.75 -19.6 3.5" fill="#ffffff" fill-opacity="0.61960787" fill-rule="evenodd" stroke="none"/>
  </g>
</svg>