<?xml version="1.0" encoding="UTF-8" standalone="no"?>
<svg xmlns:xlink="http://www.w3.org/1999/xlink" height="14.95px" width="28.35px" xmlns="http://www.w3.org/2000/svg">
  <g transform="matrix(1.0, 0.0, 0.0, 1.0, 30.65, -0.9)">
    <path d="M-4.55 2.2 Q-6.05 2.2 -8.9 3.1 L-9.75 3.8 Q-11.3 5.1 -11.65 5.8 -12.3 7.0 -14.9 7.7 -17.25 8.35 -17.25 9.1 -17.25 9.4 -15.4 9.7 -13.55 10.05 -13.4 10.75 -13.15 11.95 -12.6 12.5 -11.85 13.2 -9.45 13.6 L-3.3 14.75 -3.3 14.8 -4.1 14.85 Q-9.95 14.85 -12.35 13.0 L-14.3 10.2 -17.3 9.7 Q-17.6 9.55 -17.6 9.0 -17.6 7.75 -15.1 6.95 -12.4 6.1 -12.2 5.6 -11.85 4.7 -10.55 3.55 -9.3 2.45 -8.3 2.1 L-8.0 2.3 -8.6 2.85 -6.85 2.15 Q-5.25 1.65 -4.55 2.15 L-4.55 2.2 M-25.45 6.55 Q-25.05 6.0 -21.7 4.65 L-24.55 6.4 -25.1 6.7 -25.45 6.85 -27.1 7.55 Q-28.55 8.15 -29.25 8.7 L-26.45 9.45 Q-24.55 9.75 -24.3 11.0 -24.15 11.7 -23.2 12.2 L-20.85 12.75 -20.95 12.9 -21.85 13.0 Q-24.0 13.0 -24.65 11.2 -25.25 9.55 -28.25 9.85 L-29.15 9.2 -29.65 8.7 Q-29.65 8.15 -27.5 7.25 L-25.45 6.55" fill="#ffffff" fill-opacity="0.61960787" fill-rule="evenodd" stroke="none"/>
  </g>
</svg>