<?xml version="1.0" encoding="UTF-8" standalone="no"?>
<svg xmlns:xlink="http://www.w3.org/1999/xlink" height="171.9px" width="89.5px" xmlns="http://www.w3.org/2000/svg">
  <g transform="matrix(1.0, 0.0, 0.0, 1.0, 124.35, 117.5)">
    <path d="M-97.55 25.7 L-97.15 25.75 -99.1 27.75 -114.15 29.75 -100.5 24.85 -99.0 25.35 -97.55 25.7 M-90.35 44.0 L-89.0 46.35 -103.75 53.4 -90.35 44.0 M-64.25 -66.95 L-65.25 -67.8 -66.25 -72.15 -64.25 -66.95 M-37.55 -75.35 L-37.6 -75.1 -38.2 -75.1 -38.6 -76.3 -39.65 -79.45 -37.2 -116.5 -35.85 -79.65 -36.2 -78.75 -37.55 -75.35 M-123.35 -1.55 L-101.7 -2.1 -98.7 0.45 -98.65 0.5 -98.65 1.2 -101.0 2.1 -101.9 2.45 -123.35 -1.55 M-98.15 -35.6 L-91.75 -32.1 -91.0 -30.15 -91.65 -30.1 -98.15 -35.6" fill="#ffffff" fill-opacity="0.8" fill-rule="evenodd" stroke="none"/>
  </g>
</svg>