<?xml version="1.0" encoding="UTF-8" standalone="no"?>
<svg xmlns:xlink="http://www.w3.org/1999/xlink" height="75.75px" width="50.6px" xmlns="http://www.w3.org/2000/svg">
  <g transform="matrix(1.0, 0.0, 0.0, 1.0, 77.9, 46.55)">
    <path d="M-42.45 -1.15 L-39.5 -45.55 -37.95 -1.0 -31.15 -25.35 -35.95 4.0 -28.3 -3.8 -35.2 8.3 -28.3 9.05 -35.45 12.45 -31.9 17.0 -37.55 13.5 -38.1 13.75 -40.2 20.4 -41.7 15.5 -46.1 21.55 -45.35 17.2 -68.4 28.2 -49.3 14.75 -72.95 17.95 -49.5 9.45 -76.9 4.35 -49.5 3.6 -65.95 -10.4 -46.1 0.35 -52.1 -26.3 -42.45 -1.15 M-37.0 11.7 Q-36.0 9.95 -36.0 8.2 -36.0 5.8 -37.75 3.75 -39.4 1.8 -41.55 1.35 -43.9 0.75 -45.4 2.3 -47.1 4.05 -47.1 8.1 -47.1 9.5 -46.05 11.45 -44.45 14.45 -41.5 14.45 -38.5 14.45 -37.0 11.7" fill="#ffffff" fill-opacity="0.8" fill-rule="evenodd" stroke="none"/>
  </g>
</svg>