<?xml version="1.0" encoding="UTF-8" standalone="no"?>
<svg xmlns:xlink="http://www.w3.org/1999/xlink" height="18.35px" width="67.1px" xmlns="http://www.w3.org/2000/svg">
  <g transform="matrix(1.0, 0.0, 0.0, 1.0, 11.75, -1.55)">
    <path d="M53.65 10.3 L51.4 10.9 Q51.6 10.7 52.65 10.35 53.75 9.95 54.05 9.6 L53.45 8.95 52.8 8.45 Q54.35 8.8 54.35 9.6 L53.65 10.3 M43.25 9.75 Q43.25 9.0 41.8 8.5 L39.0 7.35 39.15 7.3 Q43.55 8.6 43.55 9.7 43.55 10.55 40.35 12.25 L36.15 14.35 Q37.3 13.2 40.55 11.55 43.25 10.2 43.25 9.75 M23.9 2.8 Q24.05 2.4 24.5 2.7 L24.9 3.3 Q24.9 3.6 22.45 4.9 19.55 6.45 19.25 6.65 L24.3 6.75 29.05 7.65 Q31.25 8.2 31.25 9.2 31.25 10.8 25.1 12.7 18.2 14.55 16.65 15.2 L16.4 15.25 17.45 15.75 Q18.15 16.0 18.15 16.35 L17.95 16.95 16.7 17.65 16.6 17.6 Q17.9 16.85 17.9 16.4 17.9 16.15 17.15 15.9 L15.6 15.35 15.55 15.2 Q16.45 14.6 24.25 12.5 30.95 10.75 30.95 9.3 30.95 8.4 28.85 7.9 L24.3 7.05 18.75 6.95 Q18.9 6.1 21.1 5.0 21.15 4.95 24.55 3.4 L23.9 2.8 M12.7 8.15 Q12.7 10.25 8.1 12.25 4.05 13.95 -1.8 15.0 L-0.7 15.8 Q0.05 16.35 0.05 16.7 0.05 16.9 -1.55 17.5 L-3.85 18.3 -7.3 18.7 -10.75 18.9 -10.75 18.7 -4.15 17.9 Q-0.7 17.4 -0.3 16.65 L-1.35 15.75 -2.3 15.0 6.6 12.25 Q12.4 10.35 12.4 8.15 12.4 7.3 9.95 6.75 L4.5 5.75 4.45 5.55 5.35 4.8 6.65 4.05 Q6.3 3.45 3.15 3.05 L3.35 2.9 Q7.0 3.35 7.0 4.1 7.0 4.35 6.2 4.8 L4.95 5.5 10.8 6.6 Q12.7 7.1 12.7 8.15" fill="#ffffff" fill-opacity="0.61960787" fill-rule="evenodd" stroke="none"/>
  </g>
</svg>