<?xml version="1.0" encoding="UTF-8" standalone="no"?>
<svg xmlns:xlink="http://www.w3.org/1999/xlink" height="28.65px" width="55.95px" xmlns="http://www.w3.org/2000/svg">
  <g transform="matrix(1.0, 0.0, 0.0, 1.0, -0.9, 2.95)">
    <path d="M9.25 -1.4 L17.45 -1.95 24.9 -1.95 38.65 -0.95 37.85 -0.9 24.9 -1.65 17.2 -1.6 9.45 -0.9 Q9.25 -0.95 9.25 -1.4 M27.5 -0.85 L30.65 -0.7 41.85 -0.6 Q47.95 -0.55 49.95 0.25 L52.5 1.2 50.05 0.9 46.95 0.1 44.45 0.05 41.8 -0.1 30.35 -0.3 20.95 0.05 18.15 -0.2 21.2 -0.65 27.25 -0.75 27.5 -0.85 M44.7 20.9 Q40.35 22.35 38.55 22.35 L36.85 22.2 29.85 22.0 Q21.6 21.25 18.7 19.9 13.65 17.55 12.3 17.2 14.45 17.55 18.75 19.45 22.3 20.95 30.15 21.6 L33.75 21.6 37.2 21.8 Q45.0 20.45 50.0 18.0 53.15 16.45 55.85 14.0 L53.7 16.25 Q52.25 17.75 50.2 18.75 L44.7 20.9 M45.65 23.35 L39.7 24.7 34.25 24.7 24.25 23.3 Q20.3 22.65 20.3 21.9 L20.35 21.65 20.4 21.8 26.95 23.25 33.9 24.25 39.9 24.25 Q46.85 22.95 52.65 20.25 49.7 22.25 45.65 23.35 M9.7 0.85 L11.25 0.7 Q9.6 1.15 7.95 1.9 4.75 3.35 2.4 5.05 L1.9 4.95 1.9 4.75 2.15 4.75 Q3.0 4.75 4.65 3.45 L7.0 1.7 Q8.35 1.05 9.7 0.85" fill="#ffffff" fill-opacity="0.61960787" fill-rule="evenodd" stroke="none"/>
  </g>
</svg>