<?xml version="1.0" encoding="UTF-8" standalone="no"?>
<svg xmlns:xlink="http://www.w3.org/1999/xlink" height="8.1px" width="40.75px" xmlns="http://www.w3.org/2000/svg">
  <g transform="matrix(1.0, 0.0, 0.0, 1.0, 0.0, 0.0)">
    <path d="M2.6 6.05 L1.1 5.35 Q0.15 4.85 0.05 4.2 L0.0 4.0 Q0.0 3.35 3.05 2.25 L6.35 1.2 6.55 1.15 8.3 0.8 12.55 0.35 14.2 0.2 17.25 0.05 17.85 0.05 20.45 0.0 26.95 0.2 29.2 0.45 34.1 1.25 Q40.55 2.45 40.75 4.2 40.8 4.65 39.85 5.25 L37.8 6.15 36.4 6.55 34.9 6.9 28.45 7.8 25.6 8.0 20.45 8.1 16.65 8.05 12.45 7.85 12.35 7.85 8.3 7.3 5.95 6.9 5.9 6.9 2.6 6.05" fill="#ff0000" fill-rule="evenodd" stroke="none"/>
  </g>
</svg>
