<?xml version="1.0" encoding="UTF-8" standalone="no"?>
<svg xmlns:xlink="http://www.w3.org/1999/xlink" height="21.55px" width="72.85px" xmlns="http://www.w3.org/2000/svg">
  <g transform="matrix(1.0, 0.0, 0.0, 1.0, -0.3, 0.55)">
    <use data-characterId="3363" height="21.55" transform="matrix(1.0, 0.0, 0.0, 1.0, 0.3, -0.55)" width="72.85" xlink:href="#morphshape0"/>
  </g>
  <defs>
    <g id="morphshape0" transform="matrix(1.0, 0.0, 0.0, 1.0, -0.3, 0.55)">
      <path d="M66.9 8.85 L66.9 8.9 67.2 9.45 67.35 9.45 Q67.85 9.7 68.6 9.65 69.65 9.55 70.15 8.8 L70.15 8.5 70.1 8.05 Q69.65 7.85 68.8 7.6 L67.25 8.3 66.85 8.9 M61.0 10.25 L61.0 10.35 61.2 10.95 61.75 11.2 61.9 11.25 62.8 11.35 63.55 11.2 64.35 11.05 64.75 10.9 65.35 10.6 65.55 10.5 65.7 10.0 65.7 9.7 65.1 9.4 64.45 9.05 63.35 9.1 61.9 9.65 Q61.45 9.95 61.0 10.35 M57.0 13.0 Q57.25 13.5 57.75 13.85 58.6 13.65 58.95 13.2 L57.95 12.5 Q57.1 12.55 57.0 12.95 M54.3 15.45 L55.05 15.95 55.75 16.0 56.5 15.6 56.35 14.7 54.6 14.9 54.3 15.5 M49.35 16.3 L49.7 16.55 Q50.9 16.3 52.05 15.55 51.35 15.5 50.45 15.55 49.7 15.8 49.35 16.3 M39.65 18.75 L40.1 19.55 40.95 19.6 41.6 19.1 41.5 18.6 Q41.2 18.3 40.15 17.75 L39.65 18.7 M29.25 17.75 L29.65 18.3 30.7 18.55 31.95 18.55 Q32.75 18.5 33.35 18.15 L33.4 17.75 33.4 17.25 31.4 17.05 Q30.6 17.1 29.45 17.4 L29.25 17.8 M20.3 14.65 L20.3 14.7 20.3 15.05 20.35 15.15 20.5 15.45 20.9 15.95 21.15 16.1 22.35 17.05 23.2 17.7 24.25 18.25 25.3 18.45 26.2 18.3 26.6 18.2 26.85 17.95 27.0 17.5 27.05 17.2 26.9 16.85 26.9 16.85 26.25 16.5 25.45 16.3 25.35 16.3 23.95 15.35 23.05 14.85 20.6 14.1 20.35 14.6 M10.55 14.4 L10.85 14.8 11.4 15.1 14.5 15.15 14.8 14.95 14.95 14.5 14.9 14.15 14.7 13.9 14.15 13.6 12.7 13.35 11.25 13.85 Q10.9 14.05 10.6 14.4 M1.05 7.7 L1.3 8.1 1.35 8.15 Q2.05 8.7 2.85 9.05 L3.25 9.15 4.55 9.5 4.65 9.65 5.05 10.15 5.3 10.3 5.75 11.15 6.6 11.9 6.75 12.0 8.0 12.6 8.25 12.7 9.2 13.05 9.15 13.1 8.15 13.5 7.15 14.3 7.0 14.5 7.05 14.65 7.35 15.2 7.85 15.8 8.75 16.1 10.1 16.25 11.15 16.15 11.65 16.1 13.0 16.2 13.95 16.25 14.7 16.25 16.0 16.35 16.2 16.4 17.45 16.6 18.45 16.9 19.0 17.05 19.55 17.2 20.55 17.45 20.75 17.55 21.7 18.0 22.6 18.45 24.15 19.05 24.45 19.2 25.95 19.75 26.4 19.9 27.7 20.05 28.65 20.2 29.6 20.3 30.65 20.4 31.45 20.45 31.75 20.5 32.75 20.55 32.9 20.55 33.65 20.6 33.95 20.6 35.05 20.6 35.2 20.6 36.5 20.55 36.95 20.55 37.95 20.5 38.8 20.45 39.45 20.4 39.8 20.4 40.9 20.3 41.65 20.25 42.5 20.15 43.25 20.15 44.1 20.0 44.85 19.85 45.95 19.55 46.4 19.4 47.4 18.95 47.95 18.7 48.8 18.5 50.2 18.2 50.85 18.15 50.9 18.15 Q52.05 17.9 53.2 17.3 L53.35 17.25 55.2 16.95 55.25 16.95 56.75 16.75 57.3 16.7 58.45 16.55 59.45 16.4 59.75 16.35 60.9 16.2 60.95 16.2 62.05 15.9 62.15 15.9 62.85 15.65 62.85 15.35 62.8 15.2 62.7 14.8 62.7 14.7 62.6 14.4 62.45 14.2 62.35 13.8 62.25 13.75 62.1 13.7 61.6 13.55 61.0 13.4 59.9 13.15 59.8 13.15 60.15 12.7 61.05 12.5 61.85 12.35 63.45 12.05 64.15 11.9 65.1 11.7 66.2 11.45 66.75 11.3 68.0 11.0 68.65 10.8 69.8 10.4 70.75 9.9 70.85 9.85 71.35 9.5 71.6 8.95 71.55 8.45 71.5 8.3 71.4 8.0 71.0 7.25 70.7 6.9 70.55 6.75 69.05 6.3 68.75 6.2 67.2 5.9 66.8 5.8 65.85 5.65 64.9 5.4 64.4 5.25 64.55 4.95 65.3 4.65 66.0 4.35 66.5 4.05 66.95 3.75 67.4 3.4 67.5 3.15 67.5 3.05 Q66.95 2.7 66.35 2.55 L66.1 2.55 64.05 2.2 63.95 2.2 61.75 1.95 60.95 1.8 60.35 1.7 59.25 1.55 58.95 1.55 57.95 1.45 57.55 1.45 56.55 1.3 56.15 1.25 55.5 1.15 54.95 1.05 54.15 0.9 53.05 0.75 52.75 0.7 51.3 0.45 51.25 0.45 50.0 0.35 49.6 0.35 48.75 0.25 48.1 0.2 47.6 0.1 47.35 0.05 46.6 0.0 45.5 -0.1 45.05 -0.15 43.3 -0.25 42.95 -0.25 40.7 -0.3 40.1 -0.35 39.45 -0.4 38.55 -0.35 36.95 -0.35 36.6 -0.35 34.8 -0.3 34.4 -0.3 33.7 -0.3 33.25 -0.3 31.85 -0.25 30.8 -0.2 30.55 -0.2 29.2 -0.15 28.65 -0.15 27.85 -0.1 27.1 -0.1 26.3 -0.05 25.95 -0.05 24.75 -0.05 24.25 -0.05 23.65 0.0 23.05 0.05 22.4 0.05 21.8 0.1 21.65 0.1 20.5 0.15 19.85 0.15 19.0 0.15 18.0 0.2 17.3 0.2 16.1 0.2 15.75 0.2 14.1 0.25 14.0 0.25 12.65 0.4 12.5 0.4 11.3 0.5 11.15 0.5 9.75 0.75 9.3 0.85 8.65 1.1 8.55 1.1 8.55 1.3 Q8.6 1.6 8.75 1.95 L8.75 2.05 8.9 2.35 8.8 2.45 7.55 3.6 7.35 3.85 6.45 4.8 5.9 5.3 5.7 5.35 4.95 5.5 4.45 5.7 Q3.9 5.85 3.4 6.05 L3.05 6.2 2.3 6.65 1.65 7.15 1.45 7.35 1.05 7.8" fill="#ffffff" fill-opacity="0.61960787" fill-rule="evenodd" stroke="none"/>
      <path d="M1.05 7.8 L1.45 7.35 1.65 7.15 2.3 6.65 3.05 6.2 3.4 6.05 Q3.9 5.85 4.45 5.7 L4.95 5.5 5.7 5.35 5.9 5.3 6.45 4.8 7.35 3.85 7.55 3.6 8.8 2.45 8.9 2.35 8.75 2.05 8.75 1.95 Q8.6 1.6 8.55 1.3 L8.55 1.1 8.65 1.1 9.3 0.85 9.75 0.75 11.15 0.5 11.3 0.5 12.5 0.4 12.65 0.4 14.0 0.25 14.1 0.25 15.75 0.2 16.1 0.2 17.3 0.2 18.0 0.2 19.0 0.15 19.85 0.15 20.5 0.15 21.65 0.1 21.8 0.1 22.4 0.05 23.05 0.05 23.65 0.0 24.25 -0.05 24.75 -0.05 25.95 -0.05 26.3 -0.05 27.1 -0.1 27.85 -0.1 28.65 -0.15 29.2 -0.15 30.55 -0.2 30.8 -0.2 31.85 -0.25 33.25 -0.3 33.7 -0.3 34.4 -0.3 34.8 -0.3 36.6 -0.35 36.95 -0.35 38.55 -0.35 39.45 -0.4 40.1 -0.35 40.7 -0.3 42.95 -0.25 43.3 -0.25 45.05 -0.15 45.5 -0.1 46.6 0.0 47.35 0.05 47.6 0.1 48.1 0.2 48.75 0.25 49.6 0.35 50.0 0.35 51.25 0.45 51.3 0.45 52.75 0.7 53.05 0.75 54.15 0.9 54.95 1.05 55.5 1.15 56.15 1.25 56.55 1.3 57.55 1.45 57.95 1.45 58.95 1.55 59.25 1.55 60.35 1.7 60.95 1.8 61.75 1.95 63.95 2.2 64.05 2.2 66.1 2.55 66.35 2.55 Q66.95 2.7 67.5 3.05 L67.5 3.15 67.4 3.4 66.95 3.75 66.5 4.05 66.0 4.35 65.3 4.65 64.55 4.95 64.4 5.25 64.9 5.4 65.85 5.65 66.8 5.8 67.2 5.9 68.75 6.2 69.05 6.3 70.55 6.75 70.7 6.9 71.0 7.25 71.4 8.0 71.5 8.3 71.55 8.45 71.6 8.95 71.35 9.5 70.85 9.85 70.75 9.9 69.8 10.4 68.65 10.8 68.0 11.0 66.75 11.3 66.2 11.45 65.1 11.7 64.15 11.9 63.45 12.05 61.85 12.35 61.05 12.5 60.15 12.7 59.8 13.15 59.9 13.15 61.0 13.4 61.6 13.55 62.1 13.7 62.25 13.75 62.35 13.8 62.45 14.2 62.6 14.4 62.7 14.7 62.7 14.8 62.8 15.2 62.85 15.35 62.85 15.65 62.15 15.9 62.05 15.9 60.95 16.2 60.9 16.2 59.75 16.35 59.45 16.4 58.45 16.55 57.3 16.7 56.75 16.75 55.25 16.95 55.2 16.95 53.35 17.25 53.2 17.3 Q52.05 17.9 50.9 18.15 L50.85 18.15 50.2 18.2 48.8 18.5 47.95 18.7 47.4 18.95 46.4 19.4 45.95 19.55 44.85 19.85 44.1 20.0 43.25 20.15 42.5 20.15 41.65 20.25 40.9 20.3 39.8 20.4 39.45 20.4 38.8 20.45 37.95 20.5 36.95 20.55 36.5 20.55 35.2 20.6 35.05 20.6 33.95 20.6 33.65 20.6 32.9 20.55 32.75 20.55 31.75 20.5 31.45 20.45 30.65 20.4 29.6 20.3 28.65 20.2 27.7 20.05 26.4 19.9 25.95 19.75 24.45 19.2 24.15 19.05 22.6 18.45 21.7 18.0 20.75 17.55 20.55 17.45 19.55 17.2 19.0 17.05 18.45 16.9 17.45 16.6 16.2 16.4 16.0 16.35 14.7 16.25 13.95 16.25 13.0 16.2 11.65 16.1 11.15 16.15 10.1 16.25 8.75 16.1 7.85 15.8 7.35 15.2 7.05 14.65 7.0 14.5 7.15 14.3 8.15 13.5 9.15 13.1 9.2 13.05 8.25 12.7 8.0 12.6 6.75 12.0 6.6 11.9 5.75 11.15 5.3 10.3 5.05 10.15 4.65 9.65 4.55 9.5 3.25 9.15 2.85 9.05 Q2.05 8.7 1.35 8.15 L1.3 8.1 1.05 7.7 M10.6 14.4 Q10.9 14.05 11.25 13.85 L12.7 13.35 14.15 13.6 14.7 13.9 14.9 14.15 14.95 14.5 14.8 14.95 14.5 15.15 11.4 15.1 10.85 14.8 10.55 14.4 M20.35 14.6 L20.6 14.1 23.05 14.85 23.95 15.35 25.35 16.3 25.45 16.3 26.25 16.5 26.9 16.85 26.9 16.85 27.05 17.2 27.0 17.5 26.85 17.95 26.6 18.2 26.2 18.3 25.3 18.45 24.25 18.25 23.2 17.7 22.35 17.05 21.15 16.1 20.9 15.95 20.5 15.45 20.35 15.15 20.3 15.05 20.3 14.7 20.3 14.65 M29.25 17.8 L29.45 17.4 Q30.6 17.1 31.4 17.05 L33.4 17.25 33.4 17.75 33.35 18.15 Q32.75 18.5 31.95 18.55 L30.7 18.55 29.65 18.3 29.25 17.75 M39.65 18.7 L40.15 17.75 Q41.2 18.3 41.5 18.6 L41.6 19.1 40.95 19.6 40.1 19.55 39.65 18.75 M49.35 16.3 Q49.7 15.8 50.45 15.55 51.35 15.5 52.05 15.55 50.9 16.3 49.7 16.55 L49.35 16.3 M54.3 15.5 L54.6 14.9 56.35 14.7 56.5 15.6 55.75 16.0 55.05 15.95 54.3 15.45 M57.0 12.95 Q57.1 12.55 57.95 12.5 L58.95 13.2 Q58.6 13.65 57.75 13.85 57.25 13.5 57.0 13.0 M61.0 10.35 Q61.45 9.95 61.9 9.65 L63.35 9.1 64.45 9.05 65.1 9.4 65.7 9.7 65.7 10.0 65.55 10.5 65.35 10.6 64.75 10.9 64.35 11.05 63.55 11.2 62.8 11.35 61.9 11.25 61.75 11.2 61.2 10.95 61.0 10.35 61.0 10.25 M66.85 8.9 L67.25 8.3 68.8 7.6 Q69.65 7.85 70.1 8.05 L70.15 8.5 70.15 8.8 Q69.65 9.55 68.6 9.65 67.85 9.7 67.35 9.45 L67.2 9.45 66.9 8.9 66.9 8.85" fill="none" stroke="#000000" stroke-linecap="round" stroke-linejoin="round" stroke-opacity="0.0" stroke-width="1.0"/>
    </g>
  </defs>
</svg>
