<?xml version="1.0" encoding="UTF-8" standalone="no"?>
<svg xmlns:xlink="http://www.w3.org/1999/xlink" height="21.55px" width="72.85px" xmlns="http://www.w3.org/2000/svg">
  <g transform="matrix(1.0, 0.0, 0.0, 1.0, -0.3, 0.55)">
    <use data-characterId="3363" height="21.55" transform="matrix(1.0, 0.0, 0.0, 1.0, 0.3, -0.55)" width="72.85" xlink:href="#morphshape0"/>
  </g>
  <defs>
    <g id="morphshape0" transform="matrix(1.0, 0.0, 0.0, 1.0, -0.3, 0.55)">
      <path d="M68.45 8.9 L68.45 9.0 68.65 9.45 68.7 9.5 Q69.05 9.95 69.75 9.9 70.8 9.85 71.05 8.85 L71.05 8.65 71.0 8.2 Q70.75 7.95 69.9 7.6 L68.65 8.3 68.45 8.8 M61.75 10.25 L61.75 10.3 61.95 11.0 62.75 11.15 62.95 11.15 64.1 11.15 65.0 10.9 65.95 10.7 66.45 10.6 67.2 10.3 67.45 10.2 67.6 9.6 67.6 9.2 66.75 9.0 65.85 8.7 64.55 8.85 62.85 9.55 Q62.3 9.9 61.75 10.35 M57.85 12.35 Q58.35 12.65 58.95 12.85 59.8 12.6 59.95 12.05 L58.55 11.65 Q57.65 11.7 57.85 12.35 M55.4 15.15 L56.2 15.85 56.85 15.9 57.65 15.5 57.55 14.55 55.85 14.5 55.4 15.1 M49.55 16.05 L50.0 16.2 Q51.55 16.0 53.05 15.1 52.1 15.1 51.1 15.15 50.05 15.45 49.6 16.05 M39.65 18.45 L40.0 19.25 40.7 19.45 41.5 19.05 41.5 18.65 Q41.4 18.25 40.25 17.5 L39.65 18.45 M28.3 17.75 L28.6 18.3 29.6 18.4 30.85 18.35 Q31.65 18.3 32.35 18.15 L32.4 17.75 32.4 17.25 30.45 17.15 Q29.55 17.15 28.5 17.3 L28.35 17.75 M19.55 14.7 L19.55 14.8 19.55 15.1 19.6 15.2 19.75 15.5 20.2 16.05 20.4 16.25 21.55 17.3 22.3 18.0 23.3 18.65 24.35 18.9 25.3 18.7 25.7 18.55 26.0 18.35 26.15 17.85 26.1 17.55 25.95 17.2 25.95 17.2 25.2 16.95 24.4 16.75 24.3 16.75 23.0 15.7 22.2 15.15 19.75 14.25 19.55 14.75 M10.65 14.25 L10.8 14.9 11.3 15.3 14.55 15.4 15.0 15.3 15.25 14.85 15.4 14.4 15.2 14.05 14.6 13.65 13.05 13.35 11.45 13.7 Q11.0 13.85 10.6 14.2 M0.7 8.45 L0.85 8.9 0.85 8.9 Q1.55 9.45 2.4 9.75 L2.8 9.85 4.15 10.15 4.35 10.25 5.15 10.6 5.4 10.75 5.75 11.65 6.6 12.45 6.7 12.55 8.0 13.25 8.3 13.35 9.25 13.7 9.3 13.7 8.35 14.05 7.25 14.75 7.1 14.95 7.2 15.15 7.45 15.75 7.85 16.45 8.75 16.75 10.2 16.9 11.25 16.75 11.75 16.7 13.15 16.85 14.2 16.9 14.95 16.9 16.3 17.1 16.5 17.2 17.8 17.5 18.85 17.9 19.4 18.1 19.95 18.35 20.95 18.75 21.15 18.85 22.15 19.25 23.1 19.7 24.8 20.25 25.1 20.35 26.7 20.85 27.2 20.95 28.55 21.0 29.5 21.05 30.45 21.1 31.5 21.15 32.35 21.1 32.65 21.1 33.65 21.05 33.85 21.05 34.65 21.05 34.95 21.05 36.1 21.0 36.2 21.0 37.55 20.9 38.0 20.9 39.05 20.8 39.95 20.75 40.65 20.7 41.0 20.7 42.15 20.6 42.95 20.5 43.8 20.4 44.55 20.4 45.45 20.2 46.25 20.05 47.4 19.65 47.85 19.45 48.85 18.85 49.3 18.5 50.15 18.25 51.55 18.05 52.25 18.05 52.35 18.05 Q53.6 17.8 54.85 17.4 L55.05 17.4 57.0 17.1 57.1 17.1 58.65 16.9 59.25 16.85 60.4 16.75 61.4 16.65 61.7 16.55 62.9 16.35 62.9 16.35 64.05 16.05 64.15 16.05 64.85 15.7 64.65 15.3 64.5 15.1 64.0 14.65 63.85 14.55 63.3 14.3 62.9 14.15 62.35 13.85 62.15 13.8 61.95 13.8 61.4 13.7 60.8 13.55 59.65 13.3 59.55 13.3 60.95 12.9 61.85 12.7 62.7 12.55 64.35 12.25 65.05 12.15 66.05 11.95 67.15 11.75 67.75 11.65 69.05 11.4 69.75 11.2 71.0 10.85 72.0 10.3 72.05 10.3 72.6 9.95 72.7 9.35 72.45 8.75 72.35 8.55 72.15 8.25 71.4 7.55 70.9 7.25 70.65 7.15 69.1 6.75 68.8 6.65 67.2 6.35 66.8 6.25 65.8 6.05 64.8 5.75 64.3 5.6 65.15 5.25 65.9 4.95 66.6 4.7 67.1 4.45 67.6 4.2 68.15 3.9 68.25 3.6 68.3 3.5 Q67.75 3.1 67.1 3.0 L66.8 3.0 64.75 2.65 64.65 2.65 62.45 2.4 61.65 2.25 61.05 2.15 59.9 2.05 59.6 2.05 58.55 1.95 58.15 1.95 57.1 1.75 56.7 1.75 56.0 1.65 55.4 1.55 54.6 1.4 53.45 1.2 53.15 1.15 51.65 0.9 51.55 0.9 50.25 0.8 49.85 0.8 48.95 0.7 48.25 0.65 47.75 0.55 47.45 0.5 46.65 0.45 45.55 0.35 45.05 0.3 43.25 0.2 42.85 0.2 40.5 0.15 39.9 0.05 39.25 -0.05 38.35 0.0 36.75 0.0 36.35 0.0 34.5 0.05 34.1 0.05 33.4 0.05 32.9 0.05 31.5 0.05 30.4 0.15 30.1 0.15 28.7 0.2 28.15 0.2 27.3 0.25 26.5 0.25 25.7 0.3 25.35 0.3 24.15 0.3 23.65 0.3 22.95 0.4 22.35 0.45 21.7 0.45 21.1 0.55 21.0 0.55 19.8 0.55 19.1 0.55 18.2 0.55 17.2 0.55 16.5 0.55 15.25 0.5 14.85 0.5 13.15 0.6 13.05 0.6 11.65 0.8 11.55 0.8 10.3 0.95 10.25 0.95 8.8 1.25 8.3 1.4 7.65 1.7 7.55 1.7 7.6 1.9 Q8.0 2.2 8.45 2.5 L8.5 2.6 9.05 2.75 8.95 2.85 7.7 4.0 7.5 4.2 6.55 5.1 5.9 5.5 5.7 5.55 4.9 5.65 4.4 5.8 Q3.85 5.95 3.3 6.15 L2.9 6.25 2.05 6.65 1.35 7.15 1.1 7.35 0.65 7.8" fill="#ffffff" fill-opacity="0.61960787" fill-rule="evenodd" stroke="none"/>
      <path d="M0.65 7.8 L1.1 7.35 1.35 7.15 2.05 6.65 2.9 6.25 3.3 6.15 Q3.85 5.95 4.4 5.8 L4.9 5.65 5.7 5.55 5.9 5.5 6.55 5.1 7.5 4.2 7.7 4.0 8.95 2.85 9.05 2.75 8.5 2.6 8.45 2.5 Q8.0 2.2 7.6 1.9 L7.55 1.7 7.65 1.7 8.3 1.4 8.8 1.25 10.25 0.95 10.3 0.95 11.55 0.8 11.65 0.8 13.05 0.6 13.15 0.6 14.85 0.5 15.25 0.5 16.5 0.55 17.2 0.55 18.2 0.55 19.1 0.55 19.8 0.55 21.0 0.55 21.1 0.55 21.7 0.45 22.35 0.45 22.95 0.4 23.65 0.3 24.15 0.3 25.35 0.3 25.7 0.3 26.5 0.25 27.3 0.25 28.15 0.2 28.7 0.2 30.1 0.15 30.4 0.15 31.5 0.05 32.9 0.05 33.4 0.05 34.1 0.05 34.5 0.05 36.35 0.0 36.75 0.0 38.35 0.0 39.25 -0.05 39.9 0.05 40.5 0.15 42.85 0.2 43.25 0.2 45.05 0.3 45.55 0.35 46.65 0.45 47.45 0.5 47.75 0.55 48.25 0.65 48.95 0.7 49.85 0.8 50.25 0.8 51.55 0.9 51.65 0.9 53.15 1.15 53.45 1.2 54.6 1.4 55.4 1.55 56.0 1.65 56.7 1.75 57.1 1.75 58.15 1.95 58.55 1.95 59.6 2.05 59.9 2.05 61.05 2.15 61.65 2.25 62.45 2.4 64.65 2.65 64.75 2.65 66.8 3.0 67.1 3.0 Q67.75 3.1 68.3 3.5 L68.25 3.6 68.15 3.9 67.6 4.2 67.1 4.45 66.6 4.7 65.9 4.95 65.15 5.25 64.3 5.6 64.8 5.75 65.8 6.05 66.8 6.25 67.2 6.35 68.8 6.65 69.1 6.75 70.65 7.15 70.9 7.25 71.4 7.55 72.15 8.25 72.35 8.55 72.45 8.75 72.7 9.35 72.6 9.95 72.05 10.3 72.0 10.3 71.0 10.85 69.75 11.2 69.05 11.4 67.75 11.65 67.15 11.75 66.05 11.95 65.05 12.15 64.35 12.25 62.7 12.55 61.85 12.7 60.95 12.9 59.55 13.3 59.65 13.3 60.8 13.55 61.4 13.7 61.95 13.8 62.15 13.8 62.35 13.85 62.9 14.15 63.3 14.3 63.85 14.55 64.0 14.65 64.5 15.1 64.65 15.3 64.85 15.7 64.15 16.05 64.05 16.05 62.9 16.35 62.9 16.35 61.7 16.55 61.4 16.65 60.4 16.75 59.25 16.85 58.65 16.9 57.1 17.1 57.0 17.1 55.05 17.4 54.85 17.4 Q53.6 17.8 52.35 18.05 L52.25 18.05 51.55 18.05 50.15 18.25 49.3 18.5 48.85 18.85 47.85 19.45 47.4 19.65 46.25 20.05 45.45 20.2 44.55 20.4 43.8 20.4 42.95 20.5 42.15 20.6 41.0 20.7 40.65 20.7 39.95 20.75 39.05 20.8 38.0 20.9 37.55 20.9 36.2 21.0 36.1 21.0 34.95 21.05 34.65 21.05 33.85 21.05 33.65 21.05 32.65 21.1 32.35 21.1 31.5 21.15 30.45 21.1 29.5 21.05 28.55 21.0 27.2 20.95 26.7 20.85 25.1 20.35 24.8 20.25 23.1 19.7 22.15 19.25 21.15 18.85 20.95 18.75 19.95 18.35 19.4 18.1 18.85 17.9 17.8 17.5 16.5 17.2 16.3 17.1 14.95 16.9 14.2 16.9 13.15 16.85 11.75 16.7 11.25 16.75 10.2 16.9 8.75 16.75 7.85 16.45 7.45 15.75 7.2 15.15 7.1 14.95 7.25 14.75 8.35 14.05 9.3 13.7 9.25 13.7 8.3 13.35 8.0 13.25 6.7 12.55 6.6 12.45 5.75 11.65 5.4 10.75 5.15 10.6 4.35 10.25 4.15 10.15 2.8 9.85 2.4 9.75 Q1.55 9.45 0.85 8.9 L0.85 8.9 0.7 8.45 M10.6 14.2 Q11.0 13.85 11.45 13.7 L13.05 13.35 14.6 13.65 15.2 14.05 15.4 14.4 15.25 14.85 15.0 15.3 14.55 15.4 11.3 15.3 10.8 14.9 10.65 14.25 M19.55 14.75 L19.75 14.25 22.2 15.15 23.0 15.7 24.3 16.75 24.4 16.75 25.2 16.95 25.95 17.2 25.95 17.2 26.1 17.55 26.15 17.85 26.0 18.35 25.7 18.55 25.3 18.7 24.35 18.9 23.3 18.65 22.3 18.0 21.55 17.3 20.4 16.25 20.2 16.05 19.75 15.5 19.6 15.2 19.55 15.1 19.55 14.8 19.55 14.7 M28.35 17.75 L28.5 17.3 Q29.55 17.15 30.45 17.15 L32.4 17.25 32.4 17.75 32.35 18.15 Q31.65 18.3 30.85 18.35 L29.6 18.4 28.6 18.3 28.3 17.75 M39.65 18.45 L40.25 17.5 Q41.4 18.25 41.5 18.65 L41.5 19.05 40.7 19.45 40.0 19.25 39.65 18.45 M49.6 16.05 Q50.05 15.45 51.1 15.15 52.1 15.1 53.05 15.1 51.55 16.0 50.0 16.2 L49.55 16.05 M55.4 15.1 L55.85 14.5 57.55 14.55 57.65 15.5 56.85 15.9 56.2 15.85 55.4 15.15 M57.85 12.35 Q57.65 11.7 58.55 11.65 L59.95 12.05 Q59.8 12.6 58.95 12.85 58.35 12.65 57.85 12.35 M61.75 10.35 Q62.3 9.9 62.85 9.55 L64.55 8.85 65.85 8.7 66.75 9.0 67.6 9.2 67.6 9.6 67.45 10.2 67.2 10.3 66.45 10.6 65.95 10.7 65.0 10.9 64.1 11.15 62.95 11.15 62.75 11.15 61.95 11.0 61.75 10.3 61.75 10.25 M68.45 8.8 L68.65 8.3 69.9 7.6 Q70.75 7.95 71.0 8.2 L71.05 8.65 71.05 8.85 Q70.8 9.85 69.75 9.9 69.05 9.95 68.7 9.5 L68.65 9.45 68.45 9.0 68.45 8.9" fill="none" stroke="#000000" stroke-linecap="round" stroke-linejoin="round" stroke-opacity="0.0" stroke-width="1.0"/>
    </g>
  </defs>
</svg>
