<?xml version="1.0" encoding="UTF-8" standalone="no"?>
<svg xmlns:xlink="http://www.w3.org/1999/xlink" height="21.55px" width="72.85px" xmlns="http://www.w3.org/2000/svg">
  <g transform="matrix(1.0, 0.0, 0.0, 1.0, -0.3, 0.55)">
    <use data-characterId="3364" height="21.55" transform="matrix(1.0, 0.0, 0.0, 1.0, 0.3, -0.55)" width="72.85" xlink:href="#morphshape0"/>
  </g>
  <defs>
    <g id="morphshape0" transform="matrix(1.0, 0.0, 0.0, 1.0, -0.3, 0.55)">
      <path d="M65.8 8.9 L65.8 8.95 66.15 9.55 66.35 9.55 Q66.95 9.7 67.7 9.6 68.8 9.45 69.5 8.85 L69.55 8.5 69.5 8.0 Q68.95 7.8 68.1 7.6 L66.35 8.3 65.85 8.95 M60.45 10.25 L60.45 10.35 60.6 10.85 61.0 11.15 61.15 11.2 61.95 11.4 62.6 11.3 63.25 11.2 63.6 11.05 64.1 10.8 64.3 10.7 64.45 10.3 64.45 10.05 64.0 9.7 63.5 9.3 62.55 9.25 61.3 9.7 Q60.9 10.0 60.5 10.35 M56.45 13.3 Q56.5 13.95 56.95 14.45 57.85 14.25 58.35 13.9 L57.6 13.0 Q56.75 13.0 56.45 13.3 M53.6 15.85 L53.65 15.85 54.35 16.2 55.05 16.2 55.75 15.8 55.55 14.95 53.8 15.25 53.6 15.8 M49.15 16.45 L49.45 16.75 Q50.45 16.45 51.35 15.8 50.8 15.75 50.0 15.85 49.45 16.1 49.2 16.5 M39.65 18.9 L40.15 19.75 41.1 19.7 41.65 19.1 41.5 18.55 Q41.05 18.3 40.1 17.9 L39.65 18.9 M29.8 17.9 L29.85 17.95 30.25 18.45 31.3 18.8 32.6 18.8 Q33.45 18.7 34.0 18.2 L34.1 17.75 34.05 17.25 32.05 16.95 Q31.3 17.0 30.05 17.4 L29.85 17.8 M20.85 14.55 L20.85 14.6 20.9 14.95 20.9 15.05 21.05 15.4 21.4 15.9 21.65 16.05 22.85 16.95 23.8 17.55 24.85 18.05 25.85 18.25 26.75 18.15 27.15 18.05 27.4 17.8 27.6 17.35 27.7 17.05 27.6 16.65 27.6 16.6 27.0 16.2 26.15 16.0 26.05 16.0 24.55 15.15 23.6 14.7 21.1 14.05 20.85 14.5 M10.55 14.5 L11.0 14.8 11.55 15.0 14.5 15.0 14.7 14.7 14.8 14.3 14.6 14.0 14.35 13.8 13.8 13.55 12.4 13.3 11.1 13.9 Q10.8 14.15 10.55 14.5 M1.55 8.0 L1.65 8.05 1.85 8.35 1.9 8.4 Q2.6 8.9 3.4 9.25 L3.8 9.35 5.1 9.7 5.15 9.85 5.3 10.45 5.5 10.65 6.0 11.5 6.9 12.2 7.05 12.3 8.3 12.85 8.55 12.95 9.45 13.25 9.35 13.3 8.35 13.7 7.4 14.55 7.3 14.8 7.35 14.95 7.65 15.5 8.2 16.0 9.1 16.25 10.4 16.45 11.4 16.35 11.85 16.35 13.2 16.45 14.1 16.45 14.8 16.45 16.1 16.5 16.3 16.55 17.55 16.65 18.55 16.85 19.15 16.95 19.65 17.05 20.65 17.2 20.85 17.3 21.8 17.75 22.7 18.25 24.15 18.85 24.45 19.0 25.9 19.6 26.35 19.75 27.6 20.0 28.5 20.2 29.4 20.35 30.4 20.5 31.2 20.6 31.55 20.65 32.5 20.75 32.65 20.75 33.4 20.8 33.7 20.8 34.8 20.8 34.95 20.8 36.25 20.75 36.75 20.75 37.75 20.7 38.6 20.65 39.25 20.65 39.65 20.65 40.75 20.55 41.5 20.5 42.3 20.45 43.0 20.45 43.85 20.3 44.6 20.2 45.7 19.95 46.1 19.85 47.1 19.5 47.7 19.3 48.5 19.1 49.85 18.75 50.5 18.65 50.55 18.65 Q51.65 18.4 52.7 17.7 L52.85 17.65 54.65 17.4 54.7 17.4 56.2 17.2 56.75 17.1 57.85 16.95 58.8 16.8 59.1 16.75 60.25 16.6 60.3 16.6 61.4 16.3 61.5 16.3 62.15 16.1 62.25 15.85 62.3 15.7 62.45 15.3 62.6 15.15 62.75 14.85 62.8 14.65 62.95 14.2 62.9 14.1 62.75 14.05 62.3 13.85 61.75 13.65 60.65 13.4 60.55 13.4 60.2 12.95 61.05 12.75 61.85 12.65 63.45 12.3 64.15 12.15 65.05 11.95 66.1 11.7 66.65 11.55 67.9 11.25 68.55 11.05 69.65 10.6 70.55 10.1 70.65 10.05 71.15 9.75 71.5 9.2 71.55 8.75 71.55 8.6 71.5 8.3 71.3 7.5 71.1 7.1 71.0 6.95 69.5 6.5 69.2 6.4 67.65 6.1 67.25 6.0 66.3 5.85 65.35 5.6 64.9 5.5 64.6 5.2 65.3 4.85 65.95 4.55 66.4 4.25 66.85 3.9 67.25 3.55 67.4 3.3 67.4 3.25 Q66.85 2.95 66.25 2.8 L66.0 2.8 64.0 2.4 63.9 2.4 61.75 2.1 61.0 2.0 60.4 1.95 59.3 1.8 59.0 1.8 58.0 1.7 57.6 1.65 56.6 1.5 56.2 1.45 55.55 1.35 55.0 1.25 54.2 1.15 53.1 1.0 52.8 0.95 51.35 0.7 51.3 0.7 50.05 0.55 49.65 0.55 48.8 0.45 48.15 0.4 47.65 0.3 47.4 0.3 46.65 0.25 45.6 0.15 45.15 0.15 43.45 0.0 43.1 0.0 40.9 -0.1 40.35 -0.15 39.75 -0.2 38.9 -0.2 37.35 -0.25 37.0 -0.25 35.2 -0.25 34.85 -0.25 34.15 -0.3 33.7 -0.25 32.35 -0.2 31.3 -0.15 31.05 -0.15 29.7 -0.1 29.2 -0.1 28.4 -0.05 27.65 -0.05 26.85 0.0 26.55 0.0 25.4 0.0 24.9 0.0 24.35 0.05 23.75 0.1 23.15 0.1 22.55 0.15 22.4 0.15 21.25 0.2 20.6 0.2 19.75 0.2 18.8 0.25 18.15 0.25 16.95 0.25 16.6 0.25 15.0 0.3 14.9 0.3 13.55 0.4 13.4 0.4 12.2 0.45 12.0 0.45 10.65 0.7 10.2 0.8 9.5 1.05 9.4 1.05 9.4 1.2 Q9.25 1.5 9.2 1.85 L9.2 1.95 9.05 2.4 8.95 2.5 7.75 3.6 7.5 3.85 6.6 4.8 6.1 5.35 5.95 5.45 5.2 5.6 4.7 5.8 Q4.15 5.95 3.65 6.2 L3.3 6.35 2.6 6.8 1.95 7.3 1.75 7.45 1.35 7.85" fill="#ffffff" fill-opacity="0.61960787" fill-rule="evenodd" stroke="none"/>
      <path d="M1.35 7.85 L1.75 7.45 1.95 7.3 2.6 6.8 3.3 6.35 3.65 6.2 Q4.15 5.95 4.7 5.8 L5.2 5.6 5.95 5.45 6.1 5.35 6.6 4.8 7.5 3.85 7.75 3.6 8.95 2.5 9.05 2.4 9.2 1.95 9.2 1.85 Q9.25 1.5 9.4 1.2 L9.4 1.05 9.5 1.05 10.2 0.8 10.65 0.7 12.0 0.45 12.2 0.45 13.4 0.4 13.55 0.4 14.9 0.3 15.0 0.3 16.6 0.25 16.95 0.25 18.15 0.25 18.8 0.25 19.75 0.2 20.6 0.2 21.25 0.2 22.4 0.15 22.55 0.15 23.15 0.1 23.75 0.1 24.35 0.05 24.9 0.0 25.4 0.0 26.55 0.0 26.85 0.0 27.65 -0.05 28.4 -0.05 29.2 -0.1 29.7 -0.1 31.05 -0.15 31.3 -0.15 32.35 -0.2 33.7 -0.25 34.15 -0.3 34.85 -0.25 35.2 -0.25 37.0 -0.25 37.35 -0.25 38.9 -0.2 39.75 -0.2 40.35 -0.15 40.9 -0.1 43.1 0.0 43.45 0.0 45.15 0.15 45.6 0.15 46.65 0.25 47.4 0.3 47.65 0.3 48.15 0.4 48.8 0.45 49.65 0.55 50.05 0.55 51.3 0.7 51.35 0.7 52.8 0.95 53.1 1.0 54.2 1.15 55.0 1.25 55.55 1.35 56.2 1.45 56.6 1.5 57.6 1.65 58.0 1.7 59.0 1.8 59.3 1.8 60.4 1.95 61.0 2.0 61.75 2.1 63.9 2.4 64.0 2.4 66.0 2.8 66.25 2.8 Q66.85 2.95 67.4 3.25 L67.4 3.3 67.25 3.55 66.85 3.9 66.4 4.25 65.95 4.55 65.3 4.85 64.6 5.2 64.9 5.5 65.35 5.6 66.3 5.85 67.25 6.0 67.65 6.1 69.2 6.4 69.5 6.5 71.0 6.95 71.1 7.1 71.3 7.5 71.5 8.3 71.55 8.6 71.55 8.75 71.5 9.2 71.15 9.75 70.65 10.05 70.55 10.1 69.65 10.6 68.55 11.05 67.9 11.25 66.65 11.55 66.1 11.7 65.05 11.95 64.15 12.15 63.45 12.3 61.85 12.65 61.05 12.75 60.2 12.95 60.55 13.4 60.65 13.4 61.75 13.65 62.3 13.85 62.75 14.05 62.9 14.1 62.95 14.2 62.8 14.65 62.75 14.85 62.6 15.15 62.45 15.3 62.3 15.7 62.25 15.85 62.15 16.1 61.5 16.3 61.4 16.3 60.3 16.6 60.25 16.6 59.1 16.75 58.8 16.8 57.85 16.95 56.75 17.1 56.2 17.2 54.7 17.4 54.65 17.4 52.85 17.65 52.7 17.7 Q51.65 18.4 50.55 18.65 L50.5 18.65 49.85 18.75 48.5 19.1 47.7 19.3 47.1 19.5 46.1 19.85 45.7 19.95 44.6 20.2 43.85 20.3 43.0 20.45 42.3 20.45 41.5 20.5 40.75 20.55 39.65 20.65 39.25 20.65 38.6 20.65 37.75 20.7 36.75 20.75 36.25 20.75 34.95 20.8 34.8 20.8 33.7 20.8 33.4 20.8 32.65 20.75 32.5 20.75 31.55 20.65 31.2 20.6 30.4 20.5 29.4 20.35 28.5 20.2 27.6 20.0 26.35 19.75 25.9 19.6 24.45 19.0 24.15 18.85 22.7 18.25 21.8 17.75 20.85 17.3 20.65 17.2 19.65 17.05 19.15 16.95 18.55 16.85 17.55 16.65 16.3 16.55 16.1 16.5 14.8 16.45 14.1 16.45 13.2 16.45 11.85 16.35 11.4 16.35 10.4 16.45 9.1 16.25 8.2 16.0 7.65 15.5 7.35 14.95 7.3 14.8 7.4 14.55 8.35 13.7 9.35 13.3 9.45 13.25 8.55 12.95 8.3 12.85 7.05 12.3 6.9 12.2 6.0 11.5 5.5 10.65 5.3 10.45 5.15 9.85 5.1 9.7 3.8 9.35 3.4 9.25 Q2.6 8.9 1.9 8.4 L1.85 8.35 1.65 8.05 1.55 8.0 M10.55 14.5 Q10.8 14.15 11.1 13.9 L12.4 13.3 13.8 13.55 14.35 13.8 14.6 14.0 14.8 14.3 14.7 14.7 14.5 15.0 11.55 15.0 11.0 14.8 10.55 14.5 M20.85 14.5 L21.1 14.05 23.6 14.7 24.55 15.15 26.05 16.0 26.15 16.0 27.0 16.2 27.6 16.6 27.6 16.65 27.7 17.05 27.6 17.35 27.4 17.8 27.15 18.05 26.75 18.15 25.85 18.25 24.85 18.05 23.8 17.55 22.85 16.95 21.65 16.05 21.4 15.9 21.05 15.4 20.9 15.05 20.9 14.95 20.85 14.6 20.85 14.55 M29.85 17.8 L30.05 17.4 Q31.3 17.0 32.05 16.95 L34.05 17.25 34.1 17.75 34.0 18.2 Q33.45 18.7 32.6 18.8 L31.3 18.8 30.25 18.45 29.85 17.95 29.8 17.9 M39.65 18.9 L40.1 17.9 Q41.05 18.3 41.5 18.55 L41.65 19.1 41.1 19.7 40.15 19.75 39.65 18.9 M49.2 16.5 Q49.45 16.1 50.0 15.85 50.8 15.75 51.35 15.8 50.45 16.45 49.45 16.75 L49.15 16.45 M53.6 15.8 L53.8 15.25 55.55 14.95 55.75 15.8 55.05 16.2 54.35 16.2 53.65 15.85 53.6 15.85 M56.45 13.3 Q56.75 13.0 57.6 13.0 L58.35 13.9 Q57.85 14.25 56.95 14.45 56.5 13.95 56.45 13.3 M60.5 10.35 Q60.9 10.0 61.3 9.7 L62.55 9.25 63.5 9.3 64.0 9.7 64.45 10.05 64.45 10.3 64.3 10.7 64.1 10.8 63.6 11.05 63.25 11.2 62.6 11.3 61.95 11.4 61.15 11.2 61.0 11.15 60.6 10.85 60.45 10.35 60.45 10.25 M65.85 8.95 L66.35 8.3 68.1 7.6 Q68.95 7.8 69.5 8.0 L69.55 8.5 69.5 8.85 Q68.8 9.45 67.7 9.6 66.95 9.7 66.35 9.55 L66.15 9.55 65.8 8.95 65.8 8.9" fill="none" stroke="#000000" stroke-linecap="round" stroke-linejoin="round" stroke-opacity="0.0" stroke-width="1.0"/>
    </g>
  </defs>
</svg>
