<?xml version="1.0" encoding="UTF-8" standalone="no"?>
<svg xmlns:xlink="http://www.w3.org/1999/xlink" height="21.55px" width="72.85px" xmlns="http://www.w3.org/2000/svg">
  <g transform="matrix(1.0, 0.0, 0.0, 1.0, -0.3, 0.55)">
    <use data-characterId="3364" height="21.55" transform="matrix(1.0, 0.0, 0.0, 1.0, 0.3, -0.55)" width="72.85" xlink:href="#morphshape0"/>
  </g>
  <defs>
    <g id="morphshape0" transform="matrix(1.0, 0.0, 0.0, 1.0, -0.3, 0.55)">
      <path d="M67.95 8.8 L67.95 8.85 68.15 9.35 68.25 9.4 Q68.65 9.8 69.4 9.75 70.45 9.7 70.75 8.75 L70.75 8.55 70.7 8.1 Q70.4 7.9 69.55 7.6 L68.2 8.3 67.95 8.85 M61.55 10.35 L61.55 10.4 61.75 11.05 62.45 11.25 62.6 11.3 63.65 11.3 64.5 11.05 65.4 10.85 65.9 10.7 66.6 10.4 66.85 10.3 67.0 9.7 67.0 9.35 66.2 9.1 65.4 8.8 64.15 8.95 62.55 9.6 Q62.0 9.9 61.5 10.35 M57.6 12.55 Q58.0 12.9 58.55 13.15 59.4 12.95 59.6 12.45 L58.35 11.95 Q57.5 12.0 57.6 12.55 M55.0 15.2 L55.05 15.2 55.8 15.85 56.5 15.9 57.3 15.5 57.2 14.55 55.45 14.6 55.05 15.2 M49.55 16.15 L49.95 16.35 Q51.4 16.15 52.8 15.3 51.9 15.3 50.9 15.35 49.95 15.6 49.5 16.15 M39.65 18.55 L40.0 19.35 40.75 19.5 41.5 19.05 41.5 18.65 Q41.35 18.3 40.25 17.6 L39.65 18.55 M28.6 17.75 L28.65 17.8 28.95 18.3 30.0 18.45 31.25 18.4 Q32.05 18.35 32.7 18.15 L32.75 17.75 32.75 17.25 30.8 17.15 Q29.95 17.2 28.85 17.4 L28.65 17.8 M19.7 14.7 L19.7 14.75 19.7 15.1 19.75 15.2 19.9 15.5 20.35 16.0 20.6 16.15 21.75 17.15 22.5 17.85 23.55 18.5 24.6 18.75 25.5 18.55 25.9 18.4 26.15 18.15 26.3 17.7 26.3 17.4 26.15 17.05 26.15 17.05 25.45 16.8 24.65 16.6 24.55 16.6 23.25 15.6 22.45 15.05 20.0 14.2 19.8 14.7 M10.5 14.2 L10.7 14.75 11.25 15.1 14.45 15.2 14.85 15.1 15.05 14.65 15.15 14.25 14.95 13.95 14.4 13.6 12.9 13.35 11.35 13.75 Q10.95 13.9 10.6 14.25 M0.6 7.4 L0.65 7.45 0.8 7.85 0.85 7.9 Q1.55 8.45 2.4 8.8 L2.8 8.9 4.15 9.25 4.35 9.4 5.0 9.8 5.25 9.95 5.6 10.8 6.45 11.6 6.6 11.7 7.85 12.4 8.1 12.5 9.05 12.85 9.05 12.9 8.1 13.25 7.05 14.0 6.9 14.2 6.95 14.35 7.2 14.95 7.6 15.6 8.5 15.9 9.9 16.05 10.95 15.9 11.45 15.85 12.8 16.0 13.8 16.05 14.55 16.05 15.9 16.2 16.1 16.25 17.35 16.5 18.4 16.85 18.95 17.05 19.5 17.25 20.5 17.6 20.7 17.7 21.65 18.15 22.6 18.6 24.25 19.15 24.55 19.3 26.15 19.8 26.6 19.95 27.95 20.0 28.9 20.1 29.85 20.15 30.9 20.2 31.75 20.2 32.05 20.25 33.05 20.25 33.2 20.25 33.95 20.3 34.25 20.3 35.4 20.25 35.55 20.25 36.9 20.2 37.35 20.2 38.4 20.15 39.25 20.1 39.9 20.05 40.25 20.05 41.4 19.95 42.15 19.9 43.0 19.8 43.75 19.8 44.6 19.65 45.35 19.5 46.5 19.15 46.95 18.95 47.95 18.4 48.45 18.1 49.3 17.9 50.7 17.65 51.35 17.65 51.4 17.65 Q52.65 17.4 53.85 16.95 L54.0 16.9 55.9 16.6 55.95 16.6 57.45 16.4 58.0 16.35 59.15 16.2 60.15 16.05 60.45 16.0 61.65 15.85 61.7 15.85 62.85 15.55 62.95 15.55 63.65 15.25 63.5 14.9 63.35 14.75 63.0 14.35 62.9 14.25 62.5 14.0 62.2 13.85 61.8 13.55 61.6 13.5 61.45 13.45 60.9 13.35 60.3 13.2 59.15 12.95 59.05 12.95 60.1 12.5 61.0 12.3 61.85 12.15 63.5 11.85 64.2 11.7 65.2 11.5 66.3 11.25 66.85 11.1 68.1 10.85 68.75 10.65 69.95 10.3 70.95 9.75 71.0 9.7 71.55 9.35 71.7 8.75 71.5 8.2 71.4 8.05 71.2 7.75 70.55 7.05 70.1 6.75 69.9 6.6 68.35 6.2 68.05 6.1 66.45 5.8 66.05 5.7 65.1 5.55 64.15 5.3 63.65 5.15 64.25 4.85 65.0 4.55 65.7 4.3 66.2 4.05 66.65 3.8 67.15 3.45 67.25 3.2 67.3 3.1 Q66.75 2.7 66.1 2.55 L65.85 2.55 63.8 2.2 63.7 2.2 61.5 1.95 60.7 1.8 60.1 1.7 58.95 1.55 58.65 1.55 57.6 1.45 57.2 1.45 56.15 1.3 55.75 1.25 55.1 1.15 54.55 1.05 53.75 0.9 52.6 0.75 52.3 0.7 50.85 0.45 50.8 0.45 49.55 0.35 49.15 0.35 48.3 0.25 47.65 0.2 47.15 0.1 46.9 0.05 46.15 0.0 45.05 -0.1 44.6 -0.15 42.8 -0.25 42.45 -0.25 40.15 -0.3 39.55 -0.35 38.9 -0.4 38.0 -0.35 36.4 -0.35 36.05 -0.35 34.2 -0.3 33.8 -0.3 33.1 -0.3 32.65 -0.3 31.25 -0.25 30.2 -0.2 29.95 -0.2 28.6 -0.15 28.05 -0.15 27.2 -0.1 26.45 -0.1 25.65 -0.05 25.3 -0.05 24.1 -0.05 23.6 -0.05 22.95 0.0 22.35 0.05 21.7 0.05 21.1 0.1 20.95 0.1 19.75 0.15 19.1 0.15 18.25 0.15 17.25 0.2 16.55 0.2 15.35 0.2 15.0 0.2 13.3 0.25 13.2 0.25 11.8 0.45 11.65 0.45 10.4 0.6 10.3 0.6 8.85 0.9 8.4 1.0 7.75 1.25 7.65 1.25 7.7 1.45 Q8.0 1.75 8.35 2.1 L8.4 2.2 8.85 2.4 8.75 2.5 7.5 3.65 7.3 3.9 6.4 4.85 5.75 5.3 5.55 5.35 4.8 5.5 4.3 5.7 Q3.75 5.85 3.25 6.05 L2.9 6.2 2.1 6.65 1.4 7.15 1.15 7.35 0.75 7.8" fill="#ffffff" fill-opacity="0.61960787" fill-rule="evenodd" stroke="none"/>
      <path d="M0.75 7.8 L1.15 7.35 1.4 7.15 2.1 6.65 2.9 6.2 3.25 6.05 Q3.75 5.85 4.3 5.7 L4.8 5.5 5.55 5.35 5.75 5.3 6.4 4.85 7.3 3.9 7.5 3.65 8.75 2.5 8.85 2.4 8.4 2.2 8.35 2.1 Q8.0 1.75 7.7 1.45 L7.65 1.25 7.75 1.25 8.4 1.0 8.85 0.9 10.3 0.6 10.4 0.6 11.65 0.45 11.8 0.45 13.2 0.25 13.3 0.25 15.0 0.2 15.35 0.2 16.55 0.2 17.25 0.2 18.25 0.15 19.1 0.15 19.75 0.15 20.95 0.1 21.1 0.1 21.7 0.05 22.35 0.05 22.95 0.0 23.6 -0.05 24.1 -0.05 25.3 -0.05 25.65 -0.05 26.45 -0.1 27.2 -0.1 28.05 -0.15 28.6 -0.15 29.95 -0.2 30.2 -0.2 31.25 -0.25 32.65 -0.3 33.1 -0.3 33.8 -0.3 34.2 -0.3 36.05 -0.35 36.4 -0.35 38.0 -0.35 38.9 -0.4 39.55 -0.35 40.15 -0.3 42.45 -0.25 42.8 -0.25 44.6 -0.15 45.05 -0.1 46.15 0.0 46.9 0.05 47.15 0.1 47.65 0.2 48.3 0.25 49.15 0.35 49.55 0.35 50.8 0.45 50.85 0.45 52.3 0.7 52.6 0.75 53.75 0.9 54.55 1.05 55.1 1.15 55.75 1.25 56.15 1.3 57.2 1.45 57.6 1.45 58.65 1.55 58.95 1.55 60.1 1.7 60.7 1.8 61.5 1.95 63.7 2.2 63.8 2.2 65.85 2.55 66.1 2.55 Q66.75 2.7 67.3 3.1 L67.25 3.2 67.15 3.45 66.65 3.8 66.2 4.05 65.7 4.3 65.0 4.55 64.25 4.85 63.65 5.15 64.15 5.3 65.1 5.55 66.05 5.7 66.45 5.8 68.05 6.1 68.35 6.2 69.9 6.6 70.1 6.75 70.55 7.05 71.2 7.75 71.4 8.05 71.5 8.2 71.7 8.75 71.55 9.35 71.0 9.7 70.95 9.75 69.95 10.3 68.75 10.65 68.1 10.85 66.85 11.1 66.3 11.25 65.2 11.5 64.2 11.7 63.5 11.85 61.85 12.15 61.0 12.3 60.1 12.5 59.05 12.95 59.15 12.95 60.3 13.2 60.9 13.35 61.45 13.45 61.6 13.5 61.8 13.55 62.2 13.85 62.5 14.0 62.9 14.25 63.0 14.35 63.35 14.75 63.5 14.9 63.65 15.25 62.95 15.55 62.85 15.55 61.7 15.85 61.65 15.85 60.45 16.0 60.15 16.05 59.15 16.2 58.0 16.35 57.45 16.4 55.95 16.6 55.9 16.6 54.0 16.9 53.85 16.95 Q52.65 17.4 51.4 17.65 L51.35 17.65 50.7 17.65 49.3 17.9 48.45 18.1 47.95 18.4 46.95 18.95 46.5 19.15 45.35 19.5 44.6 19.65 43.75 19.8 43.0 19.8 42.15 19.9 41.4 19.95 40.25 20.05 39.9 20.05 39.25 20.1 38.4 20.15 37.35 20.2 36.9 20.2 35.55 20.25 35.4 20.25 34.25 20.3 33.95 20.3 33.2 20.25 33.05 20.25 32.05 20.25 31.75 20.2 30.9 20.2 29.85 20.15 28.9 20.1 27.95 20.0 26.6 19.95 26.15 19.8 24.55 19.3 24.25 19.15 22.6 18.6 21.65 18.15 20.7 17.7 20.5 17.6 19.5 17.25 18.95 17.05 18.4 16.85 17.35 16.5 16.1 16.25 15.9 16.2 14.55 16.05 13.8 16.05 12.8 16.0 11.45 15.85 10.95 15.9 9.9 16.05 8.5 15.9 7.6 15.6 7.2 14.95 6.95 14.35 6.9 14.2 7.05 14.0 8.1 13.25 9.05 12.9 9.05 12.85 8.1 12.5 7.85 12.4 6.6 11.7 6.45 11.6 5.6 10.8 5.25 9.95 5.0 9.8 4.35 9.4 4.15 9.25 2.8 8.9 2.4 8.8 Q1.55 8.45 0.85 7.9 L0.8 7.85 0.65 7.45 0.6 7.4 M10.6 14.25 Q10.95 13.9 11.35 13.75 L12.9 13.35 14.4 13.6 14.95 13.95 15.15 14.25 15.05 14.65 14.85 15.1 14.45 15.2 11.25 15.1 10.7 14.75 10.5 14.2 M19.8 14.7 L20.0 14.2 22.45 15.05 23.25 15.6 24.55 16.6 24.65 16.6 25.45 16.8 26.15 17.05 26.15 17.05 26.3 17.4 26.3 17.7 26.15 18.15 25.9 18.4 25.5 18.55 24.6 18.75 23.55 18.5 22.5 17.85 21.75 17.15 20.6 16.15 20.35 16.0 19.9 15.5 19.75 15.2 19.7 15.1 19.7 14.75 19.7 14.7 M28.65 17.8 L28.85 17.4 Q29.95 17.2 30.8 17.15 L32.75 17.25 32.75 17.75 32.7 18.15 Q32.05 18.35 31.25 18.4 L30.0 18.45 28.95 18.3 28.65 17.8 28.6 17.75 M39.65 18.55 L40.25 17.6 Q41.35 18.3 41.5 18.65 L41.5 19.05 40.75 19.5 40.0 19.35 39.65 18.55 M49.5 16.15 Q49.95 15.6 50.9 15.35 51.9 15.3 52.8 15.3 51.4 16.15 49.95 16.35 L49.55 16.15 M55.05 15.2 L55.45 14.6 57.2 14.55 57.3 15.5 56.5 15.9 55.8 15.85 55.05 15.2 55.0 15.2 M57.6 12.55 Q57.5 12.0 58.35 11.95 L59.6 12.45 Q59.4 12.95 58.55 13.15 58.0 12.9 57.6 12.55 M61.5 10.35 Q62.0 9.9 62.55 9.6 L64.15 8.95 65.4 8.8 66.2 9.1 67.0 9.35 67.0 9.7 66.85 10.3 66.6 10.4 65.9 10.7 65.4 10.85 64.5 11.05 63.65 11.3 62.6 11.3 62.45 11.25 61.75 11.05 61.55 10.4 61.55 10.35 M67.95 8.85 L68.2 8.3 69.55 7.6 Q70.4 7.9 70.7 8.1 L70.75 8.55 70.75 8.75 Q70.45 9.7 69.4 9.75 68.65 9.8 68.25 9.4 L68.15 9.35 67.95 8.85 67.95 8.8" fill="none" stroke="#000000" stroke-linecap="round" stroke-linejoin="round" stroke-opacity="0.0" stroke-width="1.0"/>
    </g>
  </defs>
</svg>
