<?xml version="1.0" encoding="UTF-8" standalone="no"?>
<svg xmlns:xlink="http://www.w3.org/1999/xlink" height="21.55px" width="72.85px" xmlns="http://www.w3.org/2000/svg">
  <g transform="matrix(1.0, 0.0, 0.0, 1.0, -0.3, 0.55)">
    <use data-characterId="3363" height="21.55" transform="matrix(1.0, 0.0, 0.0, 1.0, 0.3, -0.55)" width="72.85" xlink:href="#morphshape0"/>
  </g>
  <defs>
    <g id="morphshape0" transform="matrix(1.0, 0.0, 0.0, 1.0, -0.3, 0.55)">
      <path d="M64.25 9.1 L64.25 9.1 64.7 9.8 64.95 9.75 Q65.65 9.7 66.45 9.55 67.6 9.35 68.6 8.95 L68.65 8.5 68.6 7.95 Q67.85 7.8 67.0 7.65 L65.0 8.35 64.3 9.05 M59.75 10.35 L59.75 10.5 59.85 10.85 60.0 11.2 60.1 11.3 60.7 11.6 61.2 11.6 61.7 11.55 61.95 11.35 62.3 11.15 62.45 11.05 62.6 10.75 62.6 10.55 62.35 10.1 62.1 9.65 61.35 9.5 60.35 9.8 Q60.05 10.05 59.75 10.35 M55.6 13.8 Q55.4 14.65 55.8 15.3 56.7 15.15 57.4 14.95 L57.0 13.8 Q56.2 13.75 55.6 13.85 M52.6 16.25 L53.3 16.4 54.05 16.35 54.7 15.95 54.45 15.15 52.65 15.65 52.6 16.2 M48.95 16.75 L49.2 17.1 Q49.85 16.75 50.45 16.25 50.1 16.15 49.4 16.3 49.1 16.5 48.95 16.75 M39.65 19.15 L40.25 20.0 41.3 19.85 41.7 19.1 41.45 18.45 Q40.8 18.3 40.0 18.1 L39.65 19.15 M30.65 17.95 L31.2 18.5 32.3 19.0 33.65 19.05 Q34.55 18.9 35.0 18.2 L35.15 17.75 35.1 17.25 33.05 16.85 Q32.35 16.95 30.95 17.5 L30.7 17.85 M21.6 14.4 L21.6 14.4 21.65 14.8 21.65 14.9 21.8 15.3 22.1 15.75 22.4 15.85 23.65 16.7 24.7 17.25 25.8 17.65 26.8 17.8 27.65 17.75 28.05 17.7 28.25 17.4 28.45 17.0 28.6 16.7 28.55 16.3 28.55 16.25 28.0 15.75 27.15 15.55 27.05 15.55 25.45 14.85 24.4 14.45 21.9 13.9 21.6 14.35 M10.5 14.7 L11.1 14.8 11.7 14.85 14.5 14.8 14.55 14.4 14.6 14.0 14.2 13.75 13.9 13.65 13.4 13.5 12.05 13.3 10.9 14.05 Q10.7 14.35 10.5 14.7 M1.35 7.7 L1.7 8.05 1.8 8.15 Q2.5 8.6 3.25 9.0 L3.65 9.1 4.9 9.5 4.85 9.7 4.65 10.45 4.85 10.7 5.45 11.5 6.4 12.15 6.6 12.25 7.8 12.7 8.0 12.8 8.9 13.1 8.75 13.2 7.7 13.65 6.85 14.6 6.8 14.85 6.8 14.95 7.15 15.45 7.8 15.8 8.7 16.0 9.95 16.2 10.9 16.15 11.3 16.15 12.6 16.2 13.45 16.2 14.15 16.2 15.4 16.2 15.6 16.2 16.8 16.15 17.75 16.2 18.35 16.25 18.85 16.3 19.85 16.3 20.05 16.4 20.95 16.9 21.8 17.4 23.15 18.05 23.45 18.25 24.8 18.9 25.2 19.1 26.4 19.45 27.25 19.75 28.1 19.95 29.1 20.15 29.85 20.3 30.2 20.4 31.1 20.6 31.2 20.6 31.9 20.7 32.2 20.7 33.25 20.75 33.45 20.75 34.7 20.75 35.2 20.75 36.15 20.75 36.95 20.7 37.55 20.7 37.95 20.7 39.0 20.6 39.7 20.6 40.45 20.55 41.15 20.55 41.95 20.45 42.65 20.35 43.7 20.2 44.1 20.15 45.1 19.95 45.75 19.8 46.55 19.65 47.9 19.2 48.5 19.05 48.5 19.05 Q49.5 18.8 50.4 17.9 L50.5 17.8 52.25 17.6 52.25 17.6 53.7 17.4 54.2 17.3 55.3 17.1 56.2 16.9 56.5 16.9 57.6 16.8 57.7 16.8 58.75 16.5 58.85 16.5 59.5 16.35 59.8 16.2 59.95 16.1 60.45 15.75 60.75 15.55 61.35 15.2 61.65 14.95 62.25 14.4 62.3 14.3 62.2 14.2 61.8 13.95 61.3 13.7 60.25 13.45 60.15 13.45 58.8 12.95 59.65 12.75 60.4 12.65 61.95 12.25 62.65 12.05 63.5 11.85 64.5 11.55 65.0 11.35 66.2 11.0 66.8 10.8 67.85 10.3 68.7 9.85 68.85 9.75 69.3 9.5 69.8 9.0 70.05 8.65 70.1 8.55 70.15 8.25 70.25 7.4 70.25 6.95 70.25 6.75 68.8 6.25 68.5 6.15 67.0 5.85 66.6 5.75 65.7 5.65 64.8 5.45 64.4 5.35 63.4 5.1 64.1 4.7 64.7 4.35 65.15 4.0 65.55 3.6 65.9 3.2 66.05 3.0 66.0 2.95 Q65.45 2.7 64.9 2.5 L64.7 2.5 62.75 2.1 62.65 2.1 60.55 1.8 59.85 1.7 59.25 1.65 58.2 1.45 57.9 1.45 56.95 1.35 56.55 1.3 55.6 1.2 55.2 1.1 54.6 1.0 54.1 0.9 53.3 0.8 52.25 0.7 51.95 0.65 50.55 0.4 50.55 0.4 49.35 0.25 48.95 0.25 48.15 0.15 47.55 0.1 47.05 0.0 46.85 0.0 46.15 -0.05 45.15 -0.15 44.75 -0.15 43.1 -0.3 42.8 -0.3 40.7 -0.45 40.15 -0.45 39.55 -0.45 38.75 -0.45 37.25 -0.5 36.95 -0.5 35.2 -0.5 34.9 -0.5 34.2 -0.55 33.8 -0.5 32.45 -0.4 31.45 -0.4 31.25 -0.4 29.95 -0.35 29.45 -0.35 28.7 -0.3 28.0 -0.3 27.2 -0.25 26.95 -0.25 25.85 -0.25 25.35 -0.25 24.85 -0.25 24.25 -0.2 23.65 -0.2 23.05 -0.2 22.85 -0.2 21.75 -0.1 21.15 -0.1 20.35 -0.1 19.4 0.0 18.8 0.0 17.65 0.05 17.35 0.05 15.8 0.05 15.7 0.05 14.4 0.1 14.2 0.1 13.05 0.1 12.8 0.1 11.5 0.3 11.1 0.35 10.4 0.55 10.3 0.55 10.25 0.65 Q9.75 0.95 9.45 1.35 L9.4 1.45 8.85 2.05 8.75 2.15 7.6 3.2 7.35 3.5 6.5 4.5 6.1 5.1 6.0 5.25 5.3 5.45 4.8 5.7 Q4.25 5.85 3.8 6.15 L3.5 6.35 2.85 6.85 2.25 7.35 2.1 7.5 1.75 7.9" fill="#ffffff" fill-opacity="0.61960787" fill-rule="evenodd" stroke="none"/>
      <path d="M1.75 7.9 L2.1 7.5 2.25 7.35 2.85 6.85 3.5 6.35 3.8 6.15 Q4.25 5.85 4.8 5.7 L5.3 5.45 6.0 5.25 6.1 5.1 6.5 4.5 7.35 3.5 7.6 3.2 8.75 2.15 8.85 2.05 9.4 1.45 9.45 1.35 Q9.75 0.95 10.25 0.65 L10.3 0.55 10.4 0.55 11.1 0.35 11.5 0.3 12.8 0.1 13.05 0.1 14.2 0.1 14.4 0.1 15.7 0.05 15.8 0.05 17.35 0.05 17.65 0.05 18.8 0.0 19.4 0.0 20.35 -0.1 21.15 -0.1 21.75 -0.1 22.85 -0.2 23.05 -0.2 23.65 -0.2 24.25 -0.2 24.85 -0.25 25.35 -0.25 25.85 -0.25 26.95 -0.25 27.2 -0.25 28.0 -0.3 28.7 -0.3 29.45 -0.35 29.95 -0.35 31.25 -0.4 31.45 -0.4 32.45 -0.4 33.8 -0.5 34.2 -0.55 34.9 -0.5 35.2 -0.5 36.95 -0.5 37.25 -0.5 38.75 -0.45 39.55 -0.45 40.15 -0.45 40.7 -0.45 42.8 -0.3 43.1 -0.3 44.75 -0.15 45.15 -0.15 46.15 -0.05 46.85 0.0 47.05 0.0 47.55 0.1 48.15 0.15 48.95 0.25 49.35 0.25 50.55 0.4 50.55 0.4 51.95 0.65 52.25 0.7 53.3 0.8 54.1 0.9 54.6 1.0 55.2 1.1 55.6 1.2 56.55 1.3 56.95 1.35 57.9 1.45 58.2 1.45 59.25 1.65 59.85 1.7 60.55 1.8 62.65 2.1 62.75 2.1 64.7 2.5 64.9 2.5 Q65.45 2.7 66.0 2.95 L66.05 3.0 65.9 3.2 65.55 3.6 65.15 4.0 64.7 4.35 64.1 4.7 63.4 5.1 64.4 5.35 64.8 5.45 65.7 5.65 66.6 5.75 67.0 5.85 68.5 6.15 68.8 6.25 70.25 6.75 70.25 6.95 70.25 7.4 70.15 8.25 70.1 8.55 70.05 8.65 69.8 9.0 69.3 9.5 68.85 9.75 68.7 9.85 67.85 10.3 66.8 10.8 66.2 11.0 65.0 11.35 64.5 11.55 63.5 11.85 62.65 12.05 61.95 12.25 60.4 12.65 59.65 12.75 58.8 12.95 60.15 13.45 60.25 13.45 61.3 13.7 61.8 13.95 62.2 14.2 62.3 14.3 62.25 14.4 61.65 14.95 61.35 15.2 60.75 15.55 60.45 15.75 59.95 16.1 59.8 16.2 59.5 16.35 58.85 16.5 58.75 16.5 57.7 16.8 57.6 16.8 56.5 16.9 56.2 16.9 55.3 17.1 54.2 17.3 53.7 17.4 52.25 17.6 52.25 17.6 50.5 17.8 50.4 17.9 Q49.5 18.8 48.5 19.05 L48.5 19.05 47.9 19.2 46.55 19.65 45.75 19.8 45.1 19.95 44.1 20.15 43.7 20.2 42.65 20.35 41.95 20.45 41.15 20.55 40.45 20.55 39.7 20.6 39.0 20.6 37.95 20.7 37.55 20.7 36.95 20.7 36.15 20.75 35.2 20.75 34.7 20.75 33.45 20.75 33.25 20.75 32.2 20.7 31.9 20.7 31.2 20.6 31.1 20.6 30.2 20.4 29.85 20.3 29.1 20.15 28.1 19.95 27.25 19.75 26.4 19.45 25.2 19.1 24.8 18.9 23.45 18.25 23.15 18.05 21.8 17.4 20.95 16.9 20.05 16.4 19.85 16.3 18.85 16.3 18.35 16.25 17.75 16.2 16.8 16.15 15.6 16.2 15.4 16.2 14.15 16.2 13.45 16.2 12.6 16.2 11.3 16.15 10.9 16.15 9.95 16.2 8.7 16.0 7.8 15.8 7.15 15.45 6.8 14.95 6.8 14.85 6.85 14.6 7.7 13.65 8.75 13.2 8.9 13.1 8.0 12.8 7.8 12.7 6.6 12.25 6.4 12.15 5.45 11.5 4.85 10.7 4.65 10.45 4.85 9.7 4.9 9.5 3.65 9.1 3.25 9.0 Q2.5 8.6 1.8 8.15 L1.7 8.05 1.35 7.7 M10.5 14.7 Q10.7 14.35 10.9 14.05 L12.05 13.3 13.4 13.5 13.9 13.65 14.2 13.75 14.6 14.0 14.55 14.4 14.5 14.8 11.7 14.85 11.1 14.8 10.5 14.7 M21.6 14.35 L21.9 13.9 24.4 14.45 25.45 14.85 27.05 15.55 27.15 15.55 28.0 15.75 28.55 16.25 28.55 16.3 28.6 16.7 28.45 17.0 28.25 17.4 28.05 17.7 27.65 17.75 26.8 17.8 25.8 17.65 24.7 17.25 23.65 16.7 22.4 15.85 22.1 15.75 21.8 15.3 21.65 14.9 21.65 14.8 21.6 14.4 21.6 14.4 M30.7 17.85 L30.95 17.5 Q32.35 16.95 33.05 16.85 L35.1 17.25 35.15 17.75 35.0 18.2 Q34.55 18.9 33.65 19.05 L32.3 19.0 31.2 18.5 30.65 17.95 M39.65 19.15 L40.0 18.1 Q40.8 18.3 41.45 18.45 L41.7 19.1 41.3 19.85 40.25 20.0 39.65 19.15 M48.95 16.75 Q49.1 16.5 49.4 16.3 50.1 16.15 50.45 16.25 49.85 16.75 49.2 17.1 L48.95 16.75 M52.6 16.2 L52.65 15.65 54.45 15.15 54.7 15.95 54.05 16.35 53.3 16.4 52.6 16.25 M55.6 13.85 Q56.2 13.75 57.0 13.8 L57.4 14.95 Q56.7 15.15 55.8 15.3 55.4 14.65 55.6 13.8 M59.75 10.35 Q60.05 10.05 60.35 9.8 L61.35 9.5 62.1 9.65 62.35 10.1 62.6 10.55 62.6 10.75 62.45 11.05 62.3 11.15 61.95 11.35 61.7 11.55 61.2 11.6 60.7 11.6 60.1 11.3 60.0 11.2 59.85 10.85 59.75 10.5 59.75 10.35 M64.3 9.05 L65.0 8.35 67.0 7.65 Q67.85 7.8 68.6 7.95 L68.65 8.5 68.6 8.95 Q67.6 9.35 66.45 9.55 65.65 9.7 64.95 9.75 L64.7 9.8 64.25 9.1 64.25 9.1" fill="none" stroke="#000000" stroke-linecap="round" stroke-linejoin="round" stroke-opacity="0.0" stroke-width="1.0"/>
    </g>
  </defs>
</svg>
