<?xml version="1.0" encoding="UTF-8" standalone="no"?>
<svg xmlns:xlink="http://www.w3.org/1999/xlink" height="21.55px" width="72.85px" xmlns="http://www.w3.org/2000/svg">
  <g transform="matrix(1.0, 0.0, 0.0, 1.0, -0.3, 0.55)">
    <use data-characterId="3364" height="21.55" transform="matrix(1.0, 0.0, 0.0, 1.0, 0.3, -0.55)" width="72.85" xlink:href="#morphshape0"/>
  </g>
  <defs>
    <g id="morphshape0" transform="matrix(1.0, 0.0, 0.0, 1.0, -0.3, 0.55)">
      <path d="M66.15 8.95 L66.15 9.0 66.45 9.6 66.6 9.6 Q67.15 9.8 67.9 9.7 69.0 9.55 69.65 8.9 L69.7 8.6 69.65 8.1 Q69.15 7.9 68.3 7.65 L66.65 8.35 66.2 8.95 M60.6 10.45 L60.6 10.55 60.75 11.05 61.2 11.3 61.35 11.35 62.2 11.5 62.9 11.35 63.6 11.25 64.0 11.1 64.5 10.85 64.7 10.75 64.85 10.3 64.85 10.0 64.35 9.65 63.8 9.25 62.8 9.25 61.5 9.7 Q61.05 10.0 60.65 10.35 M56.65 13.15 Q56.75 13.75 57.25 14.2 58.15 14.0 58.6 13.65 L57.75 12.85 Q56.9 12.85 56.65 13.2 M53.85 15.75 L53.9 15.75 54.6 16.15 55.3 16.15 56.0 15.75 55.8 14.9 54.05 15.15 53.85 15.7 M49.25 16.45 L49.6 16.7 Q50.65 16.4 51.65 15.75 51.05 15.7 50.2 15.8 49.55 16.05 49.25 16.45 M39.65 18.8 L40.1 19.65 41.0 19.65 41.6 19.05 41.5 18.55 Q41.1 18.3 40.15 17.85 L39.65 18.85 M29.65 17.85 L29.7 17.9 30.1 18.4 31.15 18.75 32.45 18.75 Q33.3 18.65 33.85 18.2 L33.95 17.75 33.9 17.25 31.9 17.0 Q31.1 17.05 29.85 17.4 L29.65 17.8 M20.75 14.5 L20.75 14.55 20.8 14.9 20.8 15.0 20.95 15.35 21.3 15.85 21.55 16.0 22.75 16.95 23.65 17.55 24.7 18.1 25.7 18.3 26.6 18.2 27.0 18.1 27.25 17.85 27.45 17.4 27.5 17.1 27.4 16.7 27.4 16.65 26.75 16.3 25.9 16.1 25.8 16.1 24.35 15.25 23.45 14.8 20.95 14.1 20.7 14.55 M10.6 14.45 L11.0 14.8 11.55 15.0 14.55 15.0 14.75 14.75 14.9 14.35 14.75 14.0 14.5 13.8 13.95 13.55 12.5 13.3 11.15 13.85 Q10.85 14.1 10.55 14.45 M1.25 7.95 L1.35 8.0 1.55 8.35 1.6 8.4 Q2.3 8.9 3.1 9.25 L3.5 9.35 4.8 9.7 4.9 9.85 5.15 10.45 5.35 10.65 5.8 11.5 6.7 12.2 6.85 12.3 8.1 12.9 8.35 13.0 9.25 13.3 9.2 13.35 8.2 13.75 7.25 14.6 7.15 14.85 7.2 15.0 7.5 15.55 8.0 16.05 8.9 16.3 10.25 16.5 11.25 16.4 11.7 16.4 13.05 16.5 14.0 16.5 14.7 16.5 16.0 16.6 16.2 16.65 17.45 16.75 18.45 16.95 19.05 17.05 19.55 17.2 20.55 17.4 20.75 17.5 21.7 17.95 22.6 18.45 24.1 19.05 24.4 19.2 25.9 19.8 26.35 19.95 27.6 20.15 28.5 20.35 29.4 20.5 30.4 20.65 31.2 20.7 31.55 20.75 32.5 20.85 32.65 20.85 33.4 20.9 33.7 20.9 34.8 20.9 34.95 20.9 36.25 20.85 36.75 20.85 37.75 20.8 38.6 20.75 39.25 20.75 39.65 20.75 40.75 20.65 41.5 20.6 42.3 20.55 43.0 20.55 43.85 20.4 44.6 20.3 45.7 20.05 46.1 19.95 47.1 19.6 47.65 19.35 48.45 19.15 49.8 18.8 50.45 18.7 50.5 18.7 Q51.65 18.45 52.7 17.8 L52.85 17.75 54.7 17.5 54.75 17.5 56.25 17.3 56.8 17.2 57.9 17.05 58.85 16.9 59.15 16.85 60.3 16.7 60.35 16.7 61.45 16.4 61.55 16.4 62.2 16.15 62.25 15.9 62.25 15.75 62.3 15.35 62.4 15.2 62.45 14.9 62.45 14.7 62.5 14.3 62.4 14.2 62.25 14.15 61.8 13.95 61.25 13.75 60.15 13.5 60.05 13.5 59.95 13.05 60.8 12.85 61.6 12.75 63.2 12.4 63.9 12.25 64.8 12.05 65.85 11.8 66.4 11.65 67.65 11.35 68.3 11.15 69.45 10.7 70.35 10.2 70.45 10.15 70.95 9.85 71.3 9.3 71.3 8.85 71.3 8.7 71.2 8.4 70.9 7.6 70.65 7.2 70.55 7.05 69.05 6.6 68.75 6.5 67.2 6.2 66.8 6.1 65.85 5.95 64.9 5.7 64.45 5.6 64.3 5.3 65.0 4.95 65.65 4.65 66.1 4.35 66.55 4.0 67.0 3.65 67.15 3.4 67.15 3.35 Q66.6 3.05 66.0 2.9 L65.75 2.9 63.75 2.5 63.65 2.5 61.5 2.2 60.75 2.1 60.15 2.05 59.05 1.9 58.75 1.9 57.75 1.8 57.35 1.75 56.35 1.6 55.95 1.55 55.3 1.45 54.75 1.35 53.95 1.25 52.85 1.1 52.55 1.05 51.1 0.8 51.05 0.8 49.8 0.65 49.4 0.65 48.55 0.55 47.9 0.5 47.4 0.4 47.15 0.4 46.4 0.35 45.35 0.25 44.9 0.25 43.2 0.1 42.85 0.1 40.65 0.0 40.1 -0.05 39.5 -0.1 38.65 -0.1 37.1 -0.15 36.75 -0.15 34.95 -0.15 34.6 -0.15 33.9 -0.2 33.45 -0.15 32.1 -0.1 31.05 -0.05 30.8 -0.05 29.45 0.0 28.95 0.0 28.15 0.05 27.4 0.05 26.6 0.1 26.3 0.1 25.15 0.1 24.65 0.1 24.05 0.15 23.45 0.2 22.85 0.2 22.25 0.25 22.1 0.25 20.95 0.3 20.3 0.3 19.45 0.3 18.5 0.35 17.85 0.35 16.65 0.35 16.3 0.35 14.7 0.4 14.6 0.4 13.25 0.5 13.1 0.5 11.9 0.55 11.75 0.55 10.4 0.8 9.95 0.9 9.25 1.15 9.15 1.15 9.15 1.3 Q9.05 1.6 9.1 1.95 L9.1 2.05 9.05 2.45 8.95 2.55 7.75 3.65 7.5 3.9 6.6 4.85 6.05 5.35 5.9 5.45 5.15 5.6 4.65 5.8 Q4.1 5.95 3.6 6.2 L3.25 6.35 2.5 6.8 1.85 7.3 1.65 7.45 1.25 7.85" fill="#ffffff" fill-opacity="0.61960787" fill-rule="evenodd" stroke="none"/>
      <path d="M1.25 7.85 L1.65 7.45 1.85 7.3 2.5 6.8 3.25 6.35 3.6 6.2 Q4.1 5.95 4.65 5.8 L5.15 5.6 5.9 5.45 6.05 5.35 6.6 4.85 7.5 3.9 7.75 3.65 8.95 2.55 9.05 2.45 9.1 2.05 9.1 1.95 Q9.05 1.6 9.15 1.3 L9.15 1.15 9.25 1.15 9.95 0.9 10.4 0.8 11.75 0.55 11.9 0.55 13.1 0.5 13.25 0.5 14.6 0.4 14.7 0.4 16.3 0.35 16.65 0.35 17.85 0.35 18.5 0.35 19.45 0.3 20.3 0.3 20.95 0.3 22.1 0.25 22.25 0.25 22.85 0.2 23.45 0.2 24.05 0.15 24.65 0.1 25.15 0.1 26.3 0.1 26.6 0.1 27.4 0.05 28.15 0.05 28.95 0.0 29.45 0.0 30.8 -0.05 31.05 -0.05 32.1 -0.1 33.45 -0.15 33.9 -0.2 34.6 -0.15 34.95 -0.15 36.75 -0.15 37.1 -0.15 38.65 -0.1 39.5 -0.1 40.1 -0.05 40.65 0.0 42.85 0.1 43.2 0.1 44.9 0.25 45.35 0.25 46.4 0.35 47.15 0.4 47.4 0.4 47.9 0.5 48.55 0.55 49.4 0.65 49.8 0.65 51.05 0.8 51.1 0.8 52.55 1.05 52.85 1.1 53.95 1.25 54.75 1.35 55.3 1.45 55.95 1.55 56.35 1.6 57.35 1.75 57.75 1.8 58.75 1.9 59.05 1.9 60.15 2.05 60.75 2.1 61.5 2.2 63.65 2.5 63.75 2.5 65.75 2.9 66.0 2.9 Q66.6 3.05 67.15 3.35 L67.15 3.4 67.0 3.65 66.55 4.0 66.1 4.35 65.65 4.65 65.0 4.95 64.3 5.3 64.45 5.6 64.9 5.7 65.85 5.95 66.8 6.1 67.2 6.2 68.75 6.5 69.05 6.6 70.55 7.05 70.65 7.2 70.9 7.6 71.2 8.4 71.3 8.7 71.3 8.85 71.3 9.3 70.95 9.85 70.45 10.15 70.35 10.2 69.45 10.7 68.3 11.15 67.65 11.35 66.4 11.65 65.85 11.8 64.8 12.05 63.9 12.25 63.2 12.4 61.6 12.75 60.8 12.85 59.95 13.05 60.05 13.5 60.15 13.5 61.25 13.75 61.8 13.95 62.25 14.15 62.4 14.2 62.5 14.3 62.45 14.7 62.45 14.9 62.4 15.2 62.3 15.35 62.25 15.75 62.25 15.9 62.2 16.15 61.55 16.4 61.45 16.4 60.35 16.7 60.3 16.7 59.15 16.85 58.85 16.9 57.9 17.05 56.8 17.2 56.25 17.3 54.75 17.5 54.7 17.5 52.85 17.75 52.7 17.8 Q51.65 18.45 50.5 18.7 L50.45 18.7 49.8 18.8 48.45 19.15 47.65 19.35 47.1 19.6 46.1 19.95 45.7 20.05 44.6 20.3 43.85 20.4 43.0 20.55 42.3 20.55 41.5 20.6 40.75 20.65 39.65 20.75 39.25 20.75 38.6 20.75 37.75 20.8 36.75 20.85 36.25 20.85 34.95 20.9 34.8 20.9 33.7 20.9 33.4 20.9 32.65 20.85 32.5 20.85 31.55 20.75 31.2 20.7 30.4 20.65 29.4 20.5 28.5 20.35 27.6 20.15 26.35 19.95 25.9 19.8 24.4 19.2 24.1 19.05 22.6 18.45 21.7 17.95 20.75 17.5 20.55 17.4 19.55 17.2 19.05 17.05 18.45 16.95 17.45 16.75 16.2 16.65 16.0 16.6 14.7 16.5 14.0 16.5 13.05 16.5 11.7 16.4 11.25 16.4 10.25 16.5 8.9 16.3 8.0 16.05 7.5 15.55 7.2 15.0 7.15 14.85 7.25 14.6 8.2 13.75 9.2 13.35 9.25 13.3 8.35 13.0 8.1 12.9 6.85 12.3 6.7 12.2 5.8 11.5 5.35 10.65 5.15 10.45 4.9 9.85 4.8 9.7 3.5 9.35 3.1 9.25 Q2.3 8.9 1.6 8.4 L1.55 8.35 1.35 8.0 1.25 7.95 M10.55 14.45 Q10.85 14.1 11.15 13.85 L12.5 13.3 13.95 13.55 14.5 13.8 14.75 14.0 14.9 14.35 14.75 14.75 14.55 15.0 11.55 15.0 11.0 14.8 10.6 14.45 M20.7 14.55 L20.95 14.1 23.45 14.8 24.35 15.25 25.8 16.1 25.9 16.1 26.75 16.3 27.4 16.65 27.4 16.7 27.5 17.1 27.45 17.4 27.25 17.85 27.0 18.1 26.6 18.2 25.7 18.3 24.7 18.1 23.65 17.55 22.75 16.95 21.55 16.0 21.3 15.85 20.95 15.35 20.8 15.0 20.8 14.9 20.75 14.55 20.75 14.5 M29.65 17.8 L29.85 17.4 Q31.1 17.05 31.9 17.0 L33.9 17.25 33.95 17.75 33.85 18.2 Q33.3 18.65 32.45 18.75 L31.15 18.75 30.1 18.4 29.7 17.9 29.65 17.85 M39.65 18.85 L40.15 17.85 Q41.1 18.3 41.5 18.55 L41.6 19.05 41.0 19.65 40.1 19.65 39.65 18.8 M49.25 16.45 Q49.55 16.05 50.2 15.8 51.05 15.7 51.65 15.75 50.65 16.4 49.6 16.7 L49.25 16.45 M53.85 15.7 L54.05 15.15 55.8 14.9 56.0 15.75 55.3 16.15 54.6 16.15 53.9 15.75 53.85 15.75 M56.65 13.2 Q56.9 12.85 57.75 12.85 L58.6 13.65 Q58.15 14.0 57.25 14.2 56.75 13.75 56.65 13.15 M60.65 10.35 Q61.05 10.0 61.5 9.7 L62.8 9.25 63.8 9.25 64.35 9.65 64.85 10.0 64.85 10.3 64.7 10.75 64.5 10.85 64.0 11.1 63.6 11.25 62.9 11.35 62.2 11.5 61.35 11.35 61.2 11.3 60.75 11.05 60.6 10.55 60.6 10.45 M66.2 8.95 L66.65 8.35 68.3 7.65 Q69.15 7.9 69.65 8.1 L69.7 8.6 69.65 8.9 Q69.0 9.55 67.9 9.7 67.15 9.8 66.6 9.6 L66.45 9.6 66.15 9.0 66.15 8.95" fill="none" stroke="#000000" stroke-linecap="round" stroke-linejoin="round" stroke-opacity="0.0" stroke-width="1.0"/>
    </g>
  </defs>
</svg>
