<?xml version="1.0" encoding="UTF-8" standalone="no"?>
<svg xmlns:xlink="http://www.w3.org/1999/xlink" height="21.55px" width="72.85px" xmlns="http://www.w3.org/2000/svg">
  <g transform="matrix(1.0, 0.0, 0.0, 1.0, -0.3, 0.55)">
    <use data-characterId="3363" height="21.55" transform="matrix(1.0, 0.0, 0.0, 1.0, 0.3, -0.55)" width="72.85" xlink:href="#morphshape0"/>
  </g>
  <defs>
    <g id="morphshape0" transform="matrix(1.0, 0.0, 0.0, 1.0, -0.3, 0.55)">
      <path d="M63.95 9.1 L63.95 9.1 64.4 9.8 64.65 9.7 Q65.4 9.65 66.2 9.5 67.35 9.3 68.4 8.95 L68.45 8.5 68.4 7.95 Q67.65 7.8 66.8 7.65 L64.7 8.35 64.0 9.05 M59.7 10.35 L59.7 10.55 59.8 10.9 59.9 11.25 60.0 11.35 60.55 11.65 61.0 11.65 61.45 11.6 61.7 11.4 62.0 11.2 62.1 11.1 62.25 10.8 62.25 10.6 62.05 10.15 61.85 9.7 61.15 9.55 60.2 9.8 Q59.9 10.05 59.6 10.35 M55.4 13.95 Q55.15 14.85 55.55 15.55 56.45 15.4 57.2 15.2 L56.9 13.95 Q56.1 13.9 55.45 13.95 M52.35 16.35 L53.05 16.45 53.8 16.4 54.45 16.0 54.2 15.2 52.4 15.75 52.4 16.3 M48.85 16.8 L49.1 17.15 Q49.7 16.8 50.25 16.35 49.95 16.2 49.25 16.35 49.05 16.55 48.9 16.8 M39.65 19.2 L40.25 20.05 41.35 19.85 41.7 19.1 41.45 18.45 Q40.8 18.3 40.0 18.15 L39.65 19.2 M30.9 17.8 L31.45 18.35 32.55 18.9 33.9 19.0 Q34.8 18.85 35.25 18.15 L35.4 17.7 35.35 17.2 33.25 16.8 Q32.55 16.9 31.15 17.5 L30.9 17.85 M21.8 14.3 L21.8 14.3 21.85 14.7 21.85 14.8 22.0 15.2 22.3 15.65 22.6 15.75 23.9 16.6 24.95 17.15 26.05 17.55 27.05 17.65 27.9 17.6 28.3 17.6 28.5 17.3 28.7 16.9 28.85 16.6 28.8 16.2 28.8 16.15 28.25 15.65 27.4 15.45 27.3 15.45 25.7 14.75 24.65 14.35 22.15 13.85 21.8 14.3 M10.5 14.7 L11.15 14.75 11.75 14.8 14.5 14.75 14.5 14.35 14.55 13.95 14.15 13.7 13.85 13.6 13.35 13.45 12.0 13.25 10.9 14.05 Q10.7 14.35 10.5 14.7 M1.9 7.8 L2.25 8.1 2.35 8.2 Q3.05 8.65 3.75 9.05 L4.15 9.15 5.35 9.55 5.3 9.75 5.0 10.55 5.2 10.8 5.8 11.6 6.75 12.25 6.95 12.35 8.15 12.8 8.35 12.9 9.25 13.2 9.1 13.3 8.0 13.8 7.15 14.75 7.1 15.0 7.1 15.1 7.5 15.55 8.15 15.9 9.05 16.1 10.3 16.3 11.25 16.3 11.65 16.3 12.95 16.3 13.8 16.3 14.5 16.3 15.7 16.3 15.9 16.3 17.1 16.25 18.0 16.3 18.6 16.35 19.1 16.4 20.1 16.35 20.3 16.45 21.2 16.95 22.0 17.45 23.3 18.15 23.6 18.35 24.95 19.0 25.35 19.2 26.55 19.55 27.4 19.85 28.25 20.05 29.25 20.25 29.95 20.4 30.3 20.5 31.2 20.7 31.3 20.7 32.0 20.8 32.3 20.8 33.3 20.9 33.5 20.9 34.7 20.9 35.2 20.9 36.1 20.9 36.9 20.85 37.5 20.85 37.9 20.85 38.9 20.75 39.6 20.75 40.35 20.7 41.05 20.7 41.85 20.6 42.55 20.5 43.55 20.35 43.95 20.3 44.95 20.15 45.6 20.0 46.4 19.85 47.75 19.4 48.35 19.25 48.35 19.25 Q49.35 19.0 50.25 18.1 L50.35 18.0 52.1 17.8 52.1 17.8 53.55 17.6 54.05 17.5 55.15 17.3 56.05 17.1 56.35 17.1 57.4 17.0 57.5 17.0 58.5 16.7 58.6 16.7 59.25 16.55 59.55 16.4 59.7 16.3 60.3 15.95 60.65 15.75 61.3 15.35 61.65 15.05 62.3 14.5 62.35 14.4 62.25 14.3 61.85 14.05 61.35 13.8 60.35 13.55 60.25 13.55 58.7 13.05 59.55 12.85 60.25 12.75 61.75 12.35 62.45 12.15 63.3 11.95 64.3 11.65 64.8 11.45 66.0 11.05 66.6 10.85 67.65 10.35 68.5 9.95 68.7 9.85 69.1 9.6 69.65 9.15 69.9 8.8 69.95 8.7 70.0 8.4 70.15 7.55 70.15 7.1 70.15 6.9 68.75 6.35 68.45 6.25 67.0 5.95 66.6 5.85 65.7 5.75 64.8 5.55 64.4 5.45 63.3 5.2 64.0 4.8 64.6 4.4 65.05 4.0 65.45 3.6 65.8 3.2 65.95 3.0 65.85 2.95 Q65.3 2.7 64.8 2.5 L64.6 2.5 62.65 2.1 62.55 2.1 60.45 1.8 59.75 1.7 59.15 1.65 58.15 1.45 57.85 1.45 56.95 1.35 56.55 1.3 55.65 1.2 55.25 1.1 54.65 1.0 54.15 0.9 53.35 0.8 52.35 0.7 52.05 0.65 50.65 0.4 50.65 0.4 49.45 0.25 49.05 0.25 48.25 0.15 47.65 0.1 47.15 0.0 46.95 0.0 46.25 -0.05 45.25 -0.15 44.85 -0.15 43.2 -0.3 42.9 -0.3 40.8 -0.45 40.25 -0.45 39.65 -0.45 38.85 -0.45 37.35 -0.5 37.05 -0.5 35.35 -0.5 35.05 -0.5 34.35 -0.55 33.95 -0.5 32.6 -0.4 31.6 -0.4 31.4 -0.4 30.1 -0.35 29.6 -0.35 28.9 -0.3 28.2 -0.3 27.4 -0.25 27.15 -0.25 26.05 -0.25 25.55 -0.25 25.05 -0.25 24.45 -0.2 23.85 -0.2 23.25 -0.2 23.05 -0.2 22.0 -0.1 21.4 -0.1 20.6 -0.1 19.65 0.0 19.05 0.0 17.9 0.05 17.6 0.05 16.05 0.05 15.95 0.05 14.7 0.1 14.5 0.1 13.4 0.1 13.15 0.1 11.85 0.25 11.45 0.3 10.75 0.5 10.65 0.5 10.55 0.6 Q10.0 0.9 9.6 1.3 L9.5 1.4 8.85 2.05 8.75 2.15 7.6 3.2 7.35 3.5 6.5 4.5 6.1 5.1 6.0 5.25 5.3 5.45 4.8 5.7 Q4.25 5.85 3.8 6.15 L3.5 6.35 2.85 6.85 2.3 7.35 2.2 7.5 1.85 7.9" fill="#ffffff" fill-opacity="0.61960787" fill-rule="evenodd" stroke="none"/>
      <path d="M1.85 7.9 L2.2 7.5 2.3 7.35 2.85 6.85 3.5 6.35 3.8 6.15 Q4.25 5.85 4.8 5.7 L5.3 5.45 6.0 5.25 6.1 5.1 6.5 4.5 7.35 3.5 7.6 3.2 8.75 2.15 8.85 2.05 9.5 1.4 9.6 1.3 Q10.0 0.9 10.55 0.6 L10.65 0.5 10.75 0.5 11.45 0.3 11.85 0.25 13.15 0.1 13.4 0.1 14.5 0.1 14.7 0.1 15.95 0.05 16.05 0.05 17.6 0.05 17.9 0.05 19.05 0.0 19.65 0.0 20.6 -0.1 21.4 -0.1 22.0 -0.1 23.05 -0.2 23.25 -0.2 23.85 -0.2 24.45 -0.2 25.05 -0.25 25.55 -0.25 26.05 -0.25 27.15 -0.25 27.4 -0.25 28.2 -0.3 28.9 -0.3 29.6 -0.35 30.1 -0.35 31.4 -0.4 31.6 -0.4 32.6 -0.4 33.95 -0.5 34.35 -0.55 35.05 -0.5 35.35 -0.5 37.05 -0.5 37.35 -0.5 38.85 -0.45 39.65 -0.45 40.25 -0.45 40.8 -0.45 42.9 -0.3 43.2 -0.3 44.85 -0.15 45.25 -0.15 46.25 -0.05 46.95 0.0 47.15 0.0 47.65 0.1 48.25 0.15 49.05 0.25 49.45 0.25 50.65 0.4 50.65 0.4 52.05 0.65 52.35 0.7 53.35 0.8 54.15 0.9 54.65 1.0 55.25 1.1 55.65 1.2 56.55 1.3 56.95 1.35 57.85 1.45 58.15 1.45 59.15 1.65 59.75 1.7 60.45 1.8 62.55 2.1 62.65 2.1 64.6 2.5 64.8 2.5 Q65.3 2.7 65.85 2.95 L65.95 3.0 65.8 3.2 65.45 3.6 65.05 4.0 64.6 4.4 64.0 4.8 63.3 5.2 64.4 5.45 64.8 5.55 65.7 5.75 66.6 5.85 67.0 5.95 68.45 6.25 68.75 6.35 70.15 6.9 70.15 7.1 70.15 7.55 70.0 8.4 69.95 8.7 69.9 8.8 69.65 9.15 69.1 9.6 68.7 9.85 68.5 9.95 67.65 10.35 66.6 10.85 66.0 11.05 64.8 11.45 64.3 11.65 63.3 11.95 62.45 12.15 61.75 12.35 60.25 12.75 59.55 12.85 58.7 13.05 60.25 13.55 60.35 13.55 61.35 13.8 61.85 14.05 62.25 14.3 62.35 14.4 62.3 14.5 61.65 15.05 61.3 15.35 60.65 15.75 60.3 15.95 59.7 16.3 59.55 16.4 59.25 16.55 58.6 16.7 58.5 16.7 57.5 17.0 57.4 17.0 56.35 17.1 56.05 17.1 55.15 17.3 54.05 17.5 53.55 17.6 52.1 17.8 52.1 17.8 50.35 18.0 50.25 18.1 Q49.35 19.0 48.35 19.25 L48.35 19.25 47.75 19.4 46.4 19.85 45.6 20.0 44.95 20.15 43.95 20.3 43.55 20.35 42.55 20.5 41.85 20.6 41.05 20.7 40.35 20.7 39.6 20.75 38.9 20.75 37.9 20.85 37.5 20.85 36.9 20.85 36.1 20.9 35.2 20.9 34.7 20.9 33.5 20.9 33.3 20.9 32.3 20.8 32.0 20.8 31.3 20.7 31.2 20.7 30.3 20.5 29.95 20.4 29.25 20.25 28.25 20.05 27.4 19.85 26.55 19.55 25.35 19.2 24.95 19.0 23.6 18.35 23.3 18.15 22.0 17.45 21.2 16.95 20.3 16.45 20.1 16.35 19.1 16.4 18.6 16.35 18.0 16.3 17.1 16.25 15.9 16.3 15.7 16.3 14.5 16.3 13.8 16.3 12.95 16.3 11.65 16.3 11.25 16.3 10.3 16.3 9.05 16.1 8.15 15.9 7.5 15.55 7.1 15.1 7.1 15.0 7.15 14.75 8.0 13.8 9.1 13.3 9.25 13.2 8.35 12.9 8.15 12.8 6.95 12.35 6.75 12.25 5.8 11.6 5.2 10.8 5.0 10.55 5.3 9.75 5.35 9.55 4.15 9.15 3.75 9.05 Q3.05 8.65 2.35 8.2 L2.25 8.1 1.9 7.8 M10.5 14.7 Q10.7 14.35 10.9 14.05 L12.0 13.25 13.35 13.45 13.85 13.6 14.15 13.7 14.55 13.95 14.5 14.35 14.5 14.75 11.75 14.8 11.15 14.75 10.5 14.7 M21.8 14.3 L22.15 13.85 24.65 14.35 25.7 14.75 27.3 15.45 27.4 15.45 28.25 15.65 28.8 16.15 28.8 16.2 28.85 16.6 28.7 16.9 28.5 17.3 28.3 17.6 27.9 17.6 27.05 17.65 26.05 17.55 24.95 17.15 23.9 16.6 22.6 15.75 22.3 15.65 22.0 15.2 21.85 14.8 21.85 14.7 21.8 14.3 21.8 14.3 M30.9 17.85 L31.15 17.5 Q32.55 16.9 33.25 16.8 L35.35 17.2 35.4 17.7 35.25 18.15 Q34.8 18.85 33.9 19.0 L32.55 18.9 31.45 18.35 30.9 17.8 M39.65 19.2 L40.0 18.15 Q40.8 18.3 41.45 18.45 L41.7 19.1 41.35 19.85 40.25 20.05 39.65 19.2 M48.9 16.8 Q49.05 16.55 49.25 16.35 49.95 16.2 50.25 16.35 49.7 16.8 49.1 17.15 L48.85 16.8 M52.4 16.3 L52.4 15.75 54.2 15.2 54.45 16.0 53.8 16.4 53.05 16.45 52.35 16.35 M55.45 13.95 Q56.1 13.9 56.9 13.95 L57.2 15.2 Q56.45 15.4 55.55 15.55 55.15 14.85 55.4 13.95 M59.6 10.35 Q59.9 10.05 60.2 9.8 L61.15 9.55 61.85 9.7 62.05 10.15 62.25 10.6 62.25 10.8 62.1 11.1 62.0 11.2 61.7 11.4 61.45 11.6 61.0 11.65 60.55 11.65 60.0 11.35 59.9 11.25 59.8 10.9 59.7 10.55 59.7 10.35 M64.0 9.05 L64.7 8.35 66.8 7.65 Q67.65 7.8 68.4 7.95 L68.45 8.5 68.4 8.95 Q67.35 9.3 66.2 9.5 65.4 9.65 64.65 9.7 L64.4 9.8 63.95 9.1 63.95 9.1" fill="none" stroke="#000000" stroke-linecap="round" stroke-linejoin="round" stroke-opacity="0.0" stroke-width="1.0"/>
    </g>
  </defs>
</svg>
