<?xml version="1.0" encoding="UTF-8" standalone="no"?>
<svg xmlns:xlink="http://www.w3.org/1999/xlink" height="21.55px" width="72.85px" xmlns="http://www.w3.org/2000/svg">
  <g transform="matrix(1.0, 0.0, 0.0, 1.0, -0.3, 0.55)">
    <use data-characterId="3364" height="21.55" transform="matrix(1.0, 0.0, 0.0, 1.0, 0.3, -0.55)" width="72.85" xlink:href="#morphshape0"/>
  </g>
  <defs>
    <g id="morphshape0" transform="matrix(1.0, 0.0, 0.0, 1.0, -0.3, 0.55)">
      <path d="M63.65 9.1 L63.65 9.1 64.15 9.85 64.45 9.75 Q65.2 9.65 66.0 9.5 67.15 9.25 68.25 8.95 L68.3 8.45 68.25 7.9 Q67.45 7.75 66.6 7.65 L64.45 8.35 63.7 9.1 M59.4 10.25 L59.4 10.45 59.5 10.8 59.55 11.2 59.65 11.3 60.15 11.65 60.6 11.7 61.05 11.7 61.25 11.5 61.55 11.3 61.65 11.2 61.8 10.95 61.8 10.8 61.65 10.3 61.5 9.8 60.85 9.6 59.95 9.85 Q59.7 10.1 59.45 10.35 M55.35 14.1 Q55.05 15.05 55.4 15.75 56.3 15.6 57.1 15.4 L56.85 14.1 Q56.05 14.05 55.3 14.05 M52.25 16.35 L52.35 16.35 52.95 16.4 53.7 16.35 54.3 15.95 54.0 15.2 52.2 15.8 52.2 16.35 M48.8 16.85 L49.0 17.25 Q49.55 16.85 50.0 16.4 49.75 16.25 49.1 16.4 48.95 16.6 48.85 16.85 M39.65 19.2 L40.3 20.05 41.4 19.85 41.75 19.1 41.45 18.4 Q40.75 18.3 39.95 18.2 L39.65 19.25 M31.0 17.9 L31.1 18.0 31.6 18.45 32.7 19.0 34.05 19.1 Q34.95 18.95 35.35 18.2 L35.5 17.75 35.45 17.25 33.35 16.8 Q32.7 16.9 31.3 17.5 L31.05 17.85 M21.9 14.4 L21.9 14.4 21.95 14.8 21.95 14.9 22.1 15.3 22.35 15.75 22.65 15.85 23.95 16.65 25.05 17.15 26.15 17.5 27.15 17.6 28.0 17.6 28.4 17.6 28.6 17.3 28.8 16.9 29.0 16.6 28.95 16.2 28.95 16.15 28.45 15.6 27.6 15.4 27.5 15.4 25.85 14.7 24.75 14.35 22.25 13.85 21.9 14.3 M10.45 14.7 L11.1 14.7 11.7 14.75 14.45 14.65 14.45 14.2 14.45 13.8 14.0 13.6 13.7 13.55 13.2 13.45 11.9 13.25 10.8 14.05 Q10.65 14.4 10.5 14.75 M1.7 7.8 L1.85 7.9 2.1 8.1 2.2 8.2 Q2.9 8.65 3.6 9.05 L4.0 9.15 5.2 9.55 5.1 9.75 4.75 10.55 4.95 10.8 5.6 11.6 6.55 12.2 6.75 12.3 7.95 12.7 8.15 12.8 9.05 13.1 8.85 13.2 7.75 13.7 6.95 14.7 6.9 14.95 6.9 15.05 7.3 15.5 8.0 15.85 8.9 16.05 10.1 16.25 11.05 16.25 11.45 16.25 12.75 16.25 13.55 16.25 14.25 16.25 15.45 16.2 15.65 16.2 16.85 16.15 17.75 16.2 18.35 16.2 18.85 16.2 19.85 16.15 20.05 16.25 20.95 16.75 21.75 17.25 23.05 17.95 23.35 18.15 24.65 18.85 25.05 19.05 26.2 19.45 27.05 19.8 27.9 20.05 28.9 20.3 29.6 20.5 29.95 20.6 30.85 20.85 30.95 20.85 31.65 20.95 31.95 20.95 32.95 21.05 33.15 21.05 34.35 21.05 34.85 21.05 35.75 21.05 36.55 21.0 37.15 21.0 37.55 21.0 38.55 20.9 39.25 20.9 40.0 20.85 40.7 20.85 41.5 20.75 42.2 20.65 43.2 20.55 43.6 20.55 44.6 20.4 45.3 20.3 46.1 20.15 47.45 19.65 48.05 19.45 48.05 19.45 Q49.0 19.2 49.9 18.25 L50.0 18.15 51.7 17.95 51.7 17.95 53.15 17.75 53.65 17.65 54.75 17.45 55.65 17.25 55.95 17.25 57.0 17.15 57.1 17.15 58.1 16.85 58.2 16.85 58.85 16.75 59.2 16.65 59.4 16.55 60.05 16.2 60.4 16.0 61.15 15.6 61.55 15.3 62.3 14.7 62.4 14.6 62.3 14.5 61.95 14.2 61.45 13.95 60.45 13.7 60.35 13.7 58.6 13.2 59.45 13.0 60.15 12.9 61.65 12.5 62.35 12.3 63.15 12.1 64.15 11.8 64.65 11.6 65.85 11.2 66.45 11.0 67.45 10.45 68.25 10.05 68.45 9.95 68.85 9.7 69.4 9.25 69.7 8.95 69.8 8.85 69.9 8.55 70.15 7.65 70.2 7.15 70.25 6.95 68.85 6.4 68.55 6.3 67.1 6.0 66.7 5.9 65.8 5.8 64.9 5.6 64.5 5.5 63.25 5.25 63.95 4.85 64.55 4.45 65.0 4.05 65.4 3.6 65.7 3.2 65.85 3.0 65.75 2.95 Q65.2 2.75 64.7 2.55 L64.5 2.55 62.55 2.15 62.45 2.15 60.35 1.85 59.65 1.75 59.05 1.7 58.05 1.5 57.75 1.5 56.85 1.4 56.45 1.35 55.55 1.25 55.15 1.15 54.55 1.05 54.05 0.95 53.25 0.85 52.25 0.75 51.95 0.7 50.55 0.45 50.55 0.45 49.35 0.3 48.95 0.3 48.15 0.2 47.55 0.15 47.05 0.05 46.85 0.05 46.15 0.0 45.15 -0.1 44.75 -0.1 43.15 -0.25 42.85 -0.25 40.8 -0.4 40.25 -0.4 39.65 -0.4 38.85 -0.4 37.35 -0.45 37.05 -0.45 35.35 -0.45 35.05 -0.45 34.35 -0.5 33.95 -0.45 32.6 -0.35 31.6 -0.35 31.4 -0.35 30.1 -0.3 29.6 -0.3 28.9 -0.25 28.2 -0.25 27.4 -0.2 27.15 -0.2 26.05 -0.2 25.55 -0.2 25.1 -0.2 24.5 -0.15 23.9 -0.15 23.3 -0.15 23.1 -0.15 22.05 -0.05 21.45 -0.05 20.65 -0.05 19.7 0.05 19.1 0.05 17.95 0.1 17.65 0.1 16.15 0.1 16.05 0.1 14.8 0.1 14.6 0.1 13.5 0.05 13.2 0.05 11.95 0.2 11.55 0.25 10.85 0.45 10.75 0.45 10.65 0.55 Q10.05 0.85 9.6 1.25 L9.5 1.35 8.8 2.0 8.7 2.1 7.55 3.15 7.3 3.45 6.45 4.45 6.1 5.1 6.0 5.25 5.3 5.45 4.8 5.7 Q4.25 5.85 3.8 6.15 L3.5 6.35 2.9 6.85 2.35 7.35 2.25 7.5 1.9 7.9" fill="#ffffff" fill-opacity="0.61960787" fill-rule="evenodd" stroke="none"/>
      <path d="M1.9 7.9 L2.25 7.5 2.35 7.35 2.9 6.85 3.5 6.35 3.8 6.15 Q4.25 5.85 4.8 5.7 L5.3 5.45 6.0 5.25 6.1 5.1 6.45 4.45 7.3 3.45 7.55 3.15 8.7 2.1 8.8 2.0 9.5 1.35 9.6 1.25 Q10.05 0.85 10.65 0.55 L10.75 0.45 10.85 0.45 11.55 0.25 11.95 0.2 13.2 0.05 13.5 0.05 14.6 0.1 14.8 0.1 16.05 0.1 16.15 0.1 17.65 0.1 17.95 0.1 19.1 0.05 19.7 0.05 20.65 -0.05 21.45 -0.05 22.05 -0.05 23.1 -0.15 23.3 -0.15 23.9 -0.15 24.5 -0.15 25.1 -0.2 25.55 -0.2 26.05 -0.2 27.15 -0.2 27.4 -0.2 28.2 -0.25 28.9 -0.25 29.6 -0.3 30.1 -0.3 31.4 -0.35 31.6 -0.35 32.6 -0.35 33.95 -0.45 34.35 -0.5 35.05 -0.45 35.35 -0.45 37.05 -0.45 37.35 -0.45 38.85 -0.4 39.65 -0.4 40.25 -0.4 40.8 -0.4 42.85 -0.25 43.15 -0.25 44.75 -0.1 45.15 -0.1 46.15 0.0 46.85 0.05 47.05 0.05 47.55 0.15 48.15 0.2 48.95 0.3 49.35 0.3 50.55 0.45 50.55 0.45 51.95 0.7 52.25 0.75 53.25 0.85 54.05 0.95 54.55 1.05 55.15 1.15 55.55 1.25 56.45 1.35 56.85 1.4 57.75 1.5 58.05 1.5 59.05 1.7 59.65 1.75 60.35 1.85 62.45 2.15 62.55 2.15 64.5 2.55 64.7 2.55 Q65.2 2.75 65.75 2.95 L65.85 3.0 65.7 3.2 65.4 3.6 65.0 4.05 64.55 4.45 63.95 4.85 63.25 5.25 64.5 5.5 64.9 5.6 65.8 5.8 66.7 5.9 67.1 6.0 68.55 6.3 68.85 6.4 70.25 6.95 70.2 7.15 70.15 7.65 69.9 8.55 69.8 8.85 69.7 8.95 69.4 9.25 68.85 9.7 68.45 9.95 68.25 10.05 67.45 10.45 66.45 11.0 65.85 11.2 64.65 11.6 64.15 11.8 63.15 12.1 62.35 12.3 61.65 12.5 60.15 12.9 59.45 13.0 58.6 13.2 60.35 13.7 60.45 13.7 61.45 13.95 61.95 14.2 62.3 14.5 62.4 14.6 62.3 14.7 61.55 15.3 61.15 15.6 60.4 16.0 60.05 16.2 59.4 16.55 59.2 16.65 58.85 16.75 58.2 16.85 58.1 16.85 57.1 17.15 57.0 17.15 55.95 17.25 55.65 17.25 54.75 17.45 53.65 17.65 53.15 17.75 51.7 17.95 51.7 17.95 50.0 18.15 49.9 18.25 Q49.0 19.2 48.05 19.45 L48.05 19.45 47.45 19.65 46.1 20.15 45.3 20.3 44.6 20.4 43.6 20.55 43.2 20.55 42.2 20.65 41.5 20.75 40.7 20.85 40.0 20.85 39.25 20.9 38.55 20.9 37.55 21.0 37.15 21.0 36.55 21.0 35.75 21.05 34.85 21.05 34.35 21.05 33.15 21.05 32.95 21.05 31.95 20.95 31.65 20.95 30.95 20.85 30.85 20.85 29.95 20.6 29.6 20.5 28.9 20.3 27.9 20.05 27.05 19.8 26.2 19.45 25.05 19.05 24.65 18.85 23.35 18.15 23.05 17.95 21.75 17.25 20.95 16.75 20.05 16.25 19.85 16.15 18.85 16.2 18.35 16.2 17.75 16.2 16.85 16.15 15.65 16.2 15.45 16.2 14.25 16.25 13.55 16.25 12.75 16.25 11.45 16.25 11.05 16.25 10.1 16.25 8.9 16.05 8.0 15.85 7.3 15.5 6.9 15.05 6.9 14.95 6.95 14.7 7.75 13.7 8.85 13.2 9.05 13.1 8.15 12.8 7.95 12.7 6.75 12.3 6.55 12.2 5.6 11.6 4.95 10.8 4.75 10.55 5.1 9.75 5.2 9.55 4.0 9.15 3.6 9.05 Q2.9 8.65 2.2 8.2 L2.1 8.1 1.85 7.9 1.7 7.8 M10.5 14.75 Q10.65 14.4 10.8 14.05 L11.9 13.25 13.2 13.45 13.7 13.55 14.0 13.6 14.45 13.8 14.45 14.2 14.45 14.65 11.7 14.75 11.1 14.7 10.45 14.7 M21.9 14.3 L22.25 13.85 24.75 14.35 25.85 14.7 27.5 15.4 27.6 15.4 28.45 15.6 28.95 16.15 28.95 16.2 29.0 16.6 28.8 16.9 28.6 17.3 28.4 17.6 28.0 17.6 27.15 17.6 26.15 17.5 25.05 17.15 23.95 16.65 22.65 15.85 22.35 15.75 22.1 15.3 21.95 14.9 21.95 14.8 21.9 14.4 21.9 14.4 M31.05 17.85 L31.3 17.5 Q32.7 16.9 33.35 16.8 L35.45 17.25 35.5 17.75 35.35 18.2 Q34.95 18.95 34.05 19.1 L32.7 19.0 31.6 18.45 31.1 18.0 31.0 17.9 M39.65 19.25 L39.95 18.2 Q40.75 18.3 41.45 18.4 L41.75 19.1 41.4 19.85 40.3 20.05 39.65 19.2 M48.85 16.85 Q48.95 16.6 49.1 16.4 49.75 16.25 50.0 16.4 49.55 16.85 49.0 17.25 L48.8 16.85 M52.2 16.35 L52.2 15.8 54.0 15.2 54.3 15.95 53.7 16.35 52.95 16.4 52.35 16.35 52.25 16.35 M55.3 14.05 Q56.05 14.05 56.85 14.1 L57.1 15.4 Q56.3 15.6 55.4 15.75 55.05 15.05 55.35 14.1 M59.45 10.35 Q59.7 10.1 59.95 9.85 L60.85 9.6 61.5 9.8 61.65 10.3 61.8 10.8 61.8 10.95 61.65 11.2 61.55 11.3 61.25 11.5 61.05 11.7 60.6 11.7 60.15 11.65 59.65 11.3 59.55 11.2 59.5 10.8 59.4 10.45 59.4 10.25 M63.7 9.1 L64.45 8.35 66.6 7.65 Q67.45 7.75 68.25 7.9 L68.3 8.45 68.25 8.95 Q67.15 9.25 66.0 9.5 65.2 9.65 64.45 9.75 L64.15 9.85 63.65 9.1 63.65 9.1" fill="none" stroke="#000000" stroke-linecap="round" stroke-linejoin="round" stroke-opacity="0.0" stroke-width="1.0"/>
    </g>
  </defs>
</svg>
