<?xml version="1.0" encoding="UTF-8" standalone="no"?>
<svg xmlns:xlink="http://www.w3.org/1999/xlink" height="21.55px" width="72.85px" xmlns="http://www.w3.org/2000/svg">
  <g transform="matrix(1.0, 0.0, 0.0, 1.0, -0.3, 0.55)">
    <use data-characterId="3364" height="21.55" transform="matrix(1.0, 0.0, 0.0, 1.0, 0.3, -0.55)" width="72.85" xlink:href="#morphshape0"/>
  </g>
  <defs>
    <g id="morphshape0" transform="matrix(1.0, 0.0, 0.0, 1.0, -0.3, 0.55)">
      <path d="M65.15 9.05 L65.15 9.1 65.55 9.75 65.75 9.7 Q66.4 9.75 67.15 9.65 68.25 9.45 69.1 8.95 L69.15 8.55 69.1 8.05 Q68.45 7.85 67.6 7.65 L65.75 8.35 65.15 9.0 M60.1 10.35 L60.1 10.5 60.25 10.95 60.55 11.25 60.7 11.3 61.4 11.55 62.0 11.5 62.6 11.45 62.9 11.3 63.3 11.05 63.45 10.95 63.6 10.6 63.6 10.35 63.25 9.95 62.85 9.5 62.0 9.4 60.85 9.75 Q60.5 10.05 60.15 10.35 M56.05 13.55 Q56.0 14.3 56.45 14.85 57.35 14.65 57.95 14.35 L57.35 13.35 Q56.5 13.35 56.05 13.55 M53.2 16.0 L53.25 16.0 53.9 16.25 54.6 16.25 55.25 15.85 55.0 15.05 53.25 15.45 53.15 16.0 M49.05 16.6 L49.35 16.9 Q50.2 16.55 50.95 16.0 50.5 15.9 49.75 16.0 49.3 16.25 49.1 16.6 M39.65 19.0 L40.2 19.85 41.2 19.75 41.7 19.1 41.5 18.5 Q40.95 18.3 40.05 18.0 L39.65 19.0 M30.3 17.85 L30.35 17.9 30.8 18.4 31.85 18.85 33.15 18.9 Q34.0 18.8 34.5 18.2 L34.6 17.75 34.55 17.25 32.5 16.9 Q31.75 16.95 30.45 17.4 L30.25 17.8 M21.3 14.45 L21.3 14.5 21.35 14.85 21.35 14.95 21.5 15.3 21.8 15.8 22.05 15.95 23.3 16.85 24.3 17.4 25.35 17.85 26.35 18.0 27.25 17.95 27.65 17.9 27.9 17.65 28.1 17.2 28.2 16.9 28.1 16.5 28.1 16.45 27.5 16.0 26.65 15.8 26.55 15.8 25.0 15.0 24.0 14.6 21.5 14.0 21.2 14.45 M10.65 14.65 L11.15 14.85 11.7 15.0 14.6 14.95 14.7 14.6 14.8 14.2 14.5 13.9 14.25 13.75 13.7 13.55 12.3 13.3 11.05 13.95 Q10.8 14.25 10.55 14.6 M1.7 8.25 L1.8 8.3 2.0 8.6 2.05 8.65 Q2.75 9.15 3.5 9.5 L3.9 9.6 5.15 9.95 5.15 10.1 5.15 10.8 5.35 11.0 5.9 11.85 6.8 12.5 6.95 12.6 8.2 13.1 8.45 13.2 9.35 13.5 9.25 13.55 8.2 14.0 7.3 14.9 7.2 15.15 7.25 15.3 7.6 15.8 8.2 16.25 9.1 16.5 10.4 16.7 11.4 16.65 11.85 16.65 13.2 16.7 14.1 16.7 14.8 16.7 16.05 16.75 16.25 16.8 17.5 16.85 18.45 17.0 19.05 17.05 19.55 17.15 20.55 17.25 20.75 17.35 21.7 17.8 22.55 18.3 23.95 18.95 24.25 19.1 25.65 19.75 26.1 19.9 27.3 20.2 28.2 20.45 29.1 20.65 30.1 20.85 30.85 20.95 31.2 21.0 32.15 21.15 32.3 21.15 33.05 21.2 33.35 21.2 34.4 21.25 34.55 21.25 35.8 21.2 36.3 21.2 37.25 21.15 38.1 21.1 38.75 21.1 39.15 21.1 40.2 21.0 40.95 20.95 41.75 20.9 42.45 20.9 43.3 20.75 44.05 20.65 45.1 20.45 45.5 20.4 46.5 20.15 47.1 19.95 47.9 19.75 49.25 19.35 49.9 19.2 49.95 19.2 Q51.0 18.95 52.0 18.15 L52.15 18.1 53.95 17.85 54.0 17.85 55.5 17.65 56.05 17.55 57.15 17.4 58.1 17.25 58.4 17.2 59.5 17.05 59.55 17.05 60.6 16.75 60.7 16.75 61.35 16.55 61.55 16.35 61.65 16.2 61.95 15.8 62.15 15.65 62.5 15.3 62.65 15.05 63.0 14.55 63.0 14.45 62.85 14.4 62.45 14.15 61.9 13.95 60.85 13.7 60.75 13.7 59.95 13.25 60.8 13.05 61.55 12.95 63.1 12.6 63.8 12.45 64.65 12.25 65.7 12.0 66.25 11.85 67.5 11.5 68.15 11.3 69.25 10.8 70.1 10.35 70.25 10.3 70.7 10.0 71.15 9.5 71.3 9.1 71.35 8.95 71.35 8.65 71.3 7.8 71.2 7.35 71.15 7.2 69.7 6.7 69.4 6.6 67.9 6.3 67.5 6.2 66.55 6.05 65.6 5.8 65.15 5.7 64.55 5.4 65.25 5.05 65.9 4.7 66.35 4.35 66.8 3.95 67.2 3.6 67.35 3.35 67.3 3.3 Q66.75 3.05 66.2 2.9 L65.95 2.9 63.95 2.5 63.85 2.5 61.7 2.2 60.95 2.1 60.35 2.05 59.3 1.9 59.0 1.9 58.05 1.8 57.65 1.75 56.7 1.6 56.3 1.55 55.65 1.45 55.1 1.35 54.3 1.25 53.25 1.1 52.95 1.05 51.5 0.8 51.45 0.8 50.2 0.65 49.8 0.65 48.95 0.55 48.3 0.5 47.8 0.4 47.55 0.4 46.8 0.35 45.75 0.25 45.3 0.25 43.65 0.1 43.3 0.1 41.15 0.0 40.6 -0.05 40.0 -0.1 39.15 -0.1 37.6 -0.15 37.25 -0.15 35.5 -0.15 35.15 -0.15 34.45 -0.2 34.0 -0.15 32.65 -0.1 31.6 -0.05 31.35 -0.05 30.0 0.0 29.5 0.0 28.75 0.05 28.0 0.05 27.2 0.1 26.9 0.1 25.75 0.1 25.25 0.1 24.7 0.15 24.1 0.2 23.5 0.2 22.9 0.25 22.75 0.25 21.65 0.3 21.0 0.3 20.15 0.3 19.2 0.35 18.55 0.35 17.35 0.35 17.0 0.35 15.45 0.4 15.35 0.4 14.05 0.45 13.9 0.45 12.75 0.45 12.55 0.45 11.25 0.65 10.8 0.75 10.1 1.0 10.0 1.0 9.95 1.15 Q9.65 1.45 9.5 1.8 L9.45 1.9 9.1 2.4 9.0 2.5 7.8 3.6 7.55 3.85 6.65 4.8 6.2 5.35 6.05 5.45 5.3 5.6 4.8 5.8 Q4.25 5.95 3.75 6.2 L3.4 6.35 2.7 6.8 2.1 7.3 1.95 7.45 1.55 7.85" fill="#ffffff" fill-opacity="0.61960787" fill-rule="evenodd" stroke="none"/>
      <path d="M1.55 7.85 L1.95 7.45 2.1 7.3 2.7 6.8 3.4 6.35 3.75 6.2 Q4.25 5.95 4.8 5.8 L5.3 5.6 6.05 5.45 6.2 5.35 6.65 4.8 7.55 3.85 7.8 3.6 9.0 2.5 9.1 2.4 9.45 1.9 9.5 1.8 Q9.65 1.45 9.95 1.15 L10.0 1.0 10.1 1.0 10.8 0.75 11.25 0.65 12.55 0.45 12.75 0.45 13.9 0.45 14.05 0.45 15.35 0.4 15.45 0.4 17.0 0.35 17.35 0.35 18.55 0.35 19.2 0.35 20.15 0.3 21.0 0.3 21.65 0.3 22.75 0.25 22.9 0.25 23.5 0.2 24.1 0.2 24.7 0.15 25.25 0.1 25.75 0.1 26.9 0.1 27.2 0.1 28.0 0.05 28.75 0.05 29.5 0.0 30.0 0.0 31.35 -0.05 31.6 -0.05 32.65 -0.1 34.0 -0.15 34.45 -0.2 35.15 -0.15 35.5 -0.15 37.25 -0.15 37.6 -0.15 39.15 -0.1 40.0 -0.1 40.6 -0.05 41.15 0.0 43.3 0.1 43.65 0.1 45.3 0.25 45.75 0.25 46.8 0.35 47.55 0.4 47.8 0.4 48.3 0.5 48.95 0.55 49.8 0.65 50.2 0.65 51.45 0.8 51.5 0.8 52.95 1.05 53.25 1.1 54.3 1.25 55.1 1.35 55.65 1.45 56.3 1.55 56.7 1.6 57.65 1.75 58.05 1.8 59.0 1.9 59.3 1.9 60.35 2.05 60.95 2.1 61.7 2.2 63.85 2.5 63.95 2.5 65.95 2.9 66.2 2.9 Q66.75 3.05 67.3 3.3 L67.35 3.35 67.2 3.6 66.8 3.95 66.35 4.35 65.9 4.7 65.25 5.05 64.55 5.4 65.15 5.7 65.6 5.8 66.55 6.05 67.5 6.2 67.9 6.3 69.4 6.6 69.7 6.7 71.15 7.2 71.2 7.35 71.3 7.8 71.35 8.65 71.35 8.95 71.3 9.1 71.15 9.5 70.7 10.0 70.25 10.3 70.1 10.35 69.25 10.8 68.15 11.3 67.5 11.5 66.25 11.85 65.7 12.0 64.65 12.25 63.8 12.45 63.1 12.6 61.55 12.95 60.8 13.05 59.95 13.25 60.75 13.7 60.85 13.7 61.9 13.95 62.45 14.15 62.85 14.4 63.0 14.45 63.0 14.55 62.65 15.05 62.5 15.3 62.15 15.65 61.95 15.8 61.65 16.2 61.55 16.35 61.35 16.55 60.7 16.75 60.6 16.75 59.55 17.05 59.5 17.05 58.4 17.2 58.1 17.25 57.15 17.4 56.05 17.55 55.5 17.65 54.0 17.85 53.95 17.85 52.15 18.1 52.0 18.15 Q51.0 18.95 49.95 19.2 L49.9 19.2 49.25 19.35 47.9 19.75 47.1 19.95 46.5 20.15 45.5 20.4 45.1 20.45 44.05 20.65 43.3 20.75 42.45 20.9 41.75 20.9 40.95 20.95 40.2 21.0 39.15 21.1 38.75 21.1 38.1 21.1 37.25 21.15 36.3 21.2 35.8 21.2 34.55 21.25 34.4 21.25 33.35 21.2 33.05 21.2 32.3 21.15 32.15 21.15 31.2 21.0 30.85 20.95 30.1 20.85 29.1 20.65 28.2 20.45 27.3 20.2 26.1 19.9 25.65 19.75 24.25 19.1 23.95 18.95 22.55 18.3 21.7 17.8 20.75 17.35 20.55 17.25 19.55 17.15 19.05 17.05 18.45 17.0 17.5 16.85 16.25 16.8 16.05 16.75 14.8 16.7 14.1 16.7 13.2 16.7 11.85 16.65 11.4 16.65 10.4 16.7 9.1 16.5 8.2 16.25 7.6 15.8 7.25 15.3 7.2 15.15 7.3 14.9 8.2 14.0 9.25 13.55 9.35 13.5 8.45 13.2 8.2 13.1 6.95 12.6 6.8 12.5 5.9 11.85 5.35 11.0 5.15 10.8 5.15 10.1 5.15 9.95 3.9 9.6 3.5 9.5 Q2.75 9.15 2.05 8.65 L2.0 8.6 1.8 8.3 1.7 8.25 M10.55 14.6 Q10.8 14.25 11.05 13.95 L12.3 13.3 13.7 13.55 14.25 13.75 14.5 13.9 14.8 14.2 14.7 14.6 14.6 14.95 11.7 15.0 11.15 14.85 10.65 14.65 M21.2 14.45 L21.5 14.0 24.0 14.6 25.0 15.0 26.55 15.8 26.65 15.8 27.5 16.0 28.1 16.45 28.1 16.5 28.2 16.9 28.1 17.2 27.9 17.65 27.65 17.9 27.25 17.95 26.35 18.0 25.35 17.85 24.3 17.4 23.3 16.85 22.05 15.95 21.8 15.8 21.5 15.3 21.35 14.95 21.35 14.85 21.3 14.5 21.3 14.45 M30.25 17.8 L30.45 17.4 Q31.75 16.95 32.5 16.9 L34.55 17.25 34.6 17.75 34.5 18.2 Q34.0 18.8 33.15 18.9 L31.85 18.85 30.8 18.4 30.35 17.9 30.3 17.85 M39.65 19.0 L40.05 18.0 Q40.95 18.3 41.5 18.5 L41.7 19.1 41.2 19.75 40.2 19.85 39.65 19.0 M49.1 16.6 Q49.3 16.25 49.75 16.0 50.5 15.9 50.95 16.0 50.2 16.55 49.35 16.9 L49.05 16.6 M53.15 16.0 L53.25 15.45 55.0 15.05 55.25 15.85 54.6 16.25 53.9 16.25 53.25 16.0 53.2 16.0 M56.05 13.55 Q56.5 13.35 57.35 13.35 L57.95 14.35 Q57.35 14.65 56.45 14.85 56.0 14.3 56.05 13.55 M60.15 10.35 Q60.5 10.05 60.85 9.75 L62.0 9.4 62.85 9.5 63.25 9.95 63.6 10.35 63.6 10.6 63.45 10.95 63.3 11.05 62.9 11.3 62.6 11.45 62.0 11.5 61.4 11.55 60.7 11.3 60.55 11.25 60.25 10.95 60.1 10.5 60.1 10.35 M65.15 9.0 L65.75 8.35 67.6 7.65 Q68.45 7.85 69.1 8.05 L69.15 8.55 69.1 8.95 Q68.25 9.45 67.15 9.65 66.4 9.75 65.75 9.7 L65.55 9.75 65.15 9.1 65.15 9.05" fill="none" stroke="#000000" stroke-linecap="round" stroke-linejoin="round" stroke-opacity="0.0" stroke-width="1.0"/>
    </g>
  </defs>
</svg>
