<?xml version="1.0" encoding="UTF-8" standalone="no"?>
<svg xmlns:xlink="http://www.w3.org/1999/xlink" height="21.55px" width="72.85px" xmlns="http://www.w3.org/2000/svg">
  <g transform="matrix(1.0, 0.0, 0.0, 1.0, -0.3, 0.55)">
    <use data-characterId="3363" height="21.55" transform="matrix(1.0, 0.0, 0.0, 1.0, 0.3, -0.55)" width="72.85" xlink:href="#morphshape0"/>
  </g>
  <defs>
    <g id="morphshape0" transform="matrix(1.0, 0.0, 0.0, 1.0, -0.3, 0.55)">
      <path d="M68.2 8.9 L68.2 9.0 68.4 9.5 68.45 9.55 Q68.85 9.95 69.55 9.9 70.6 9.85 70.9 8.9 L70.9 8.7 70.85 8.25 Q70.55 8.0 69.7 7.65 L68.4 8.35 68.15 8.85 M61.55 10.35 L61.55 10.4 61.75 11.1 62.5 11.25 62.7 11.25 63.8 11.25 64.7 11.0 65.65 10.8 66.15 10.7 66.85 10.4 67.1 10.3 67.25 9.7 67.25 9.3 66.45 9.05 65.6 8.75 64.3 8.9 62.65 9.55 Q62.1 9.9 61.6 10.35 M57.7 12.55 Q58.15 12.85 58.75 13.05 59.6 12.8 59.75 12.25 L58.45 11.8 Q57.55 11.85 57.7 12.45 M55.15 15.15 L55.95 15.85 56.6 15.9 57.4 15.5 57.3 14.55 55.6 14.55 55.2 15.15 M49.55 16.05 L50.0 16.2 Q51.5 16.0 52.9 15.15 52.0 15.15 51.0 15.2 50.0 15.5 49.55 16.1 M39.65 18.5 L40.0 19.3 40.75 19.45 41.55 19.05 41.55 18.65 Q41.4 18.3 40.25 17.55 L39.65 18.5 M28.5 17.75 L28.85 18.3 29.85 18.45 31.1 18.4 Q31.9 18.35 32.55 18.15 L32.6 17.75 32.6 17.25 30.65 17.15 Q29.75 17.15 28.7 17.3 L28.55 17.75 M19.7 14.65 L19.7 14.75 19.7 15.05 19.75 15.15 19.9 15.45 20.35 16.0 20.55 16.2 21.7 17.25 22.45 17.95 23.45 18.6 24.5 18.85 25.45 18.65 25.85 18.5 26.15 18.3 26.3 17.8 26.25 17.5 26.1 17.15 26.1 17.15 25.35 16.9 24.55 16.7 24.45 16.7 23.15 15.65 22.35 15.1 19.9 14.25 19.7 14.75 M10.7 14.25 L10.85 14.85 11.35 15.25 14.6 15.35 15.0 15.25 15.25 14.8 15.35 14.35 15.15 14.05 14.55 13.7 13.0 13.4 11.4 13.75 Q11.0 13.9 10.6 14.25 M0.65 8.15 L0.8 8.6 0.8 8.6 Q1.5 9.15 2.35 9.45 L2.75 9.55 4.1 9.85 4.3 9.95 5.0 10.35 5.25 10.5 5.6 11.4 6.45 12.2 6.55 12.3 7.85 13.0 8.15 13.1 9.1 13.45 9.15 13.45 8.2 13.8 7.15 14.55 7.0 14.75 7.1 14.95 7.35 15.55 7.75 16.25 8.65 16.55 10.1 16.7 11.15 16.55 11.65 16.5 13.05 16.65 14.1 16.7 14.85 16.7 16.2 16.9 16.4 17.0 17.7 17.3 18.75 17.7 19.3 17.9 19.85 18.15 20.85 18.55 21.05 18.65 22.05 19.05 23.0 19.5 24.65 20.05 24.95 20.15 26.55 20.65 27.05 20.75 28.4 20.8 29.35 20.9 30.3 20.95 31.35 21.0 32.2 20.95 32.5 20.95 33.5 20.95 33.7 20.95 34.5 20.95 34.8 20.95 35.95 20.9 36.05 20.9 37.4 20.8 37.85 20.8 38.9 20.7 39.8 20.65 40.5 20.6 40.85 20.6 42.0 20.5 42.8 20.4 43.65 20.3 44.4 20.3 45.3 20.1 46.1 19.95 47.25 19.6 47.7 19.4 48.7 18.85 49.15 18.5 50.0 18.25 51.4 18.0 52.1 18.0 52.2 18.0 Q53.45 17.75 54.7 17.3 L54.9 17.3 56.85 17.0 56.95 17.0 58.5 16.8 59.1 16.75 60.25 16.65 61.25 16.55 61.55 16.45 62.75 16.25 62.75 16.25 63.9 15.95 64.0 15.95 64.7 15.6 64.55 15.25 64.4 15.05 64.0 14.6 63.85 14.5 63.4 14.25 63.05 14.1 62.6 13.8 62.4 13.75 62.2 13.75 61.65 13.65 61.05 13.5 59.9 13.25 59.8 13.25 61.0 12.85 61.9 12.65 62.75 12.5 64.4 12.2 65.1 12.1 66.1 11.9 67.2 11.7 67.8 11.6 69.1 11.35 69.8 11.15 71.05 10.8 72.05 10.25 72.1 10.25 72.65 9.9 72.8 9.3 72.6 8.75 72.5 8.55 72.3 8.25 71.6 7.55 71.15 7.25 70.95 7.15 69.4 6.75 69.1 6.65 67.5 6.35 67.1 6.25 66.1 6.05 65.1 5.75 64.6 5.6 65.3 5.25 66.05 4.95 66.75 4.7 67.25 4.45 67.75 4.2 68.3 3.9 68.4 3.6 68.45 3.5 Q67.9 3.1 67.25 3.0 L66.95 3.0 64.9 2.65 64.8 2.65 62.6 2.4 61.8 2.25 61.2 2.15 60.05 2.05 59.75 2.05 58.7 1.95 58.3 1.95 57.25 1.75 56.85 1.75 56.15 1.65 55.55 1.55 54.75 1.4 53.6 1.2 53.3 1.15 51.8 0.9 51.7 0.9 50.4 0.8 50.0 0.8 49.1 0.7 48.4 0.65 47.9 0.55 47.6 0.5 46.8 0.45 45.7 0.35 45.2 0.3 43.4 0.2 43.0 0.2 40.7 0.15 40.1 0.05 39.45 -0.05 38.55 0.0 36.95 0.0 36.55 0.0 34.7 0.05 34.3 0.05 33.6 0.05 33.1 0.05 31.7 0.05 30.6 0.15 30.3 0.15 28.9 0.2 28.35 0.2 27.5 0.25 26.7 0.25 25.9 0.3 25.55 0.3 24.35 0.3 23.85 0.3 23.15 0.4 22.55 0.45 21.9 0.45 21.3 0.55 21.2 0.55 20.0 0.55 19.3 0.55 18.4 0.55 17.4 0.55 16.7 0.55 15.45 0.5 15.05 0.5 13.35 0.6 13.25 0.6 11.85 0.8 11.75 0.8 10.5 0.95 10.45 0.95 9.0 1.25 8.5 1.4 7.85 1.7 7.75 1.7 7.8 1.9 Q8.15 2.2 8.55 2.5 L8.6 2.6 9.1 2.75 9.0 2.85 7.75 4.0 7.55 4.2 6.6 5.1 5.95 5.5 5.75 5.55 4.95 5.65 4.45 5.8 Q3.9 5.95 3.35 6.15 L2.95 6.25 2.1 6.65 1.4 7.15 1.15 7.35 0.7 7.8" fill="#ffffff" fill-opacity="0.61960787" fill-rule="evenodd" stroke="none"/>
      <path d="M0.7 7.8 L1.15 7.35 1.4 7.15 2.1 6.65 2.95 6.25 3.35 6.15 Q3.9 5.95 4.45 5.8 L4.95 5.65 5.75 5.55 5.95 5.5 6.6 5.1 7.55 4.2 7.75 4.0 9.0 2.85 9.1 2.75 8.6 2.6 8.55 2.5 Q8.15 2.2 7.8 1.9 L7.75 1.7 7.85 1.7 8.5 1.4 9.0 1.25 10.45 0.95 10.5 0.95 11.75 0.8 11.85 0.8 13.25 0.6 13.35 0.6 15.05 0.5 15.45 0.5 16.7 0.55 17.4 0.55 18.4 0.55 19.3 0.55 20.0 0.55 21.2 0.55 21.3 0.55 21.9 0.45 22.55 0.45 23.15 0.4 23.85 0.3 24.35 0.3 25.55 0.3 25.9 0.3 26.7 0.25 27.5 0.25 28.35 0.2 28.9 0.2 30.3 0.15 30.6 0.15 31.7 0.05 33.1 0.05 33.6 0.05 34.3 0.05 34.7 0.05 36.55 0.0 36.95 0.0 38.55 0.0 39.45 -0.05 40.1 0.05 40.7 0.15 43.0 0.2 43.4 0.2 45.2 0.3 45.7 0.35 46.8 0.45 47.6 0.5 47.9 0.55 48.4 0.65 49.1 0.7 50.0 0.8 50.4 0.8 51.7 0.9 51.8 0.9 53.3 1.15 53.6 1.2 54.75 1.4 55.55 1.55 56.15 1.65 56.85 1.75 57.25 1.75 58.3 1.95 58.7 1.95 59.75 2.05 60.05 2.05 61.2 2.15 61.8 2.25 62.6 2.4 64.8 2.65 64.9 2.65 66.95 3.0 67.25 3.0 Q67.9 3.1 68.45 3.5 L68.4 3.6 68.3 3.9 67.75 4.2 67.25 4.45 66.75 4.7 66.05 4.95 65.3 5.25 64.6 5.6 65.1 5.75 66.1 6.05 67.1 6.25 67.5 6.35 69.1 6.65 69.4 6.75 70.95 7.15 71.15 7.25 71.6 7.55 72.3 8.25 72.5 8.55 72.6 8.75 72.8 9.3 72.65 9.9 72.1 10.25 72.05 10.25 71.05 10.8 69.8 11.15 69.1 11.35 67.8 11.6 67.2 11.7 66.1 11.9 65.1 12.1 64.4 12.2 62.75 12.5 61.9 12.65 61.0 12.85 59.8 13.25 59.9 13.25 61.05 13.5 61.65 13.65 62.2 13.75 62.4 13.75 62.6 13.8 63.05 14.1 63.4 14.25 63.85 14.5 64.0 14.6 64.4 15.05 64.55 15.25 64.7 15.6 64.0 15.95 63.9 15.95 62.75 16.25 62.75 16.25 61.55 16.45 61.25 16.55 60.25 16.65 59.1 16.75 58.5 16.8 56.95 17.0 56.85 17.0 54.9 17.3 54.7 17.3 Q53.45 17.75 52.2 18.0 L52.1 18.0 51.4 18.0 50.0 18.25 49.15 18.5 48.7 18.85 47.7 19.4 47.25 19.6 46.1 19.95 45.3 20.1 44.4 20.3 43.65 20.3 42.8 20.4 42.0 20.5 40.85 20.6 40.5 20.6 39.8 20.65 38.9 20.7 37.85 20.8 37.4 20.8 36.05 20.9 35.95 20.9 34.8 20.95 34.5 20.95 33.7 20.95 33.5 20.95 32.5 20.95 32.2 20.95 31.35 21.0 30.3 20.95 29.35 20.9 28.4 20.8 27.05 20.75 26.55 20.65 24.95 20.15 24.65 20.05 23.0 19.5 22.05 19.05 21.05 18.65 20.85 18.55 19.85 18.15 19.3 17.9 18.75 17.7 17.7 17.3 16.4 17.0 16.2 16.9 14.85 16.7 14.1 16.7 13.05 16.65 11.65 16.5 11.15 16.55 10.1 16.7 8.65 16.55 7.75 16.25 7.35 15.55 7.1 14.95 7.0 14.75 7.15 14.55 8.2 13.8 9.15 13.45 9.1 13.45 8.15 13.1 7.85 13.0 6.55 12.3 6.45 12.2 5.6 11.4 5.25 10.5 5.0 10.35 4.3 9.95 4.1 9.85 2.75 9.55 2.35 9.45 Q1.5 9.15 0.8 8.6 L0.8 8.6 0.65 8.15 M10.6 14.25 Q11.0 13.9 11.4 13.75 L13.0 13.4 14.55 13.7 15.15 14.05 15.35 14.35 15.25 14.8 15.0 15.25 14.6 15.35 11.35 15.25 10.85 14.85 10.7 14.25 M19.7 14.75 L19.9 14.25 22.35 15.1 23.15 15.65 24.45 16.7 24.55 16.7 25.35 16.9 26.1 17.15 26.1 17.15 26.25 17.5 26.3 17.8 26.15 18.3 25.85 18.5 25.45 18.65 24.5 18.85 23.45 18.6 22.45 17.95 21.7 17.25 20.55 16.2 20.35 16.0 19.9 15.45 19.75 15.15 19.7 15.05 19.7 14.75 19.7 14.65 M28.55 17.75 L28.7 17.3 Q29.75 17.15 30.65 17.15 L32.6 17.25 32.6 17.75 32.55 18.15 Q31.9 18.35 31.1 18.4 L29.85 18.45 28.85 18.3 28.5 17.75 M39.65 18.5 L40.25 17.55 Q41.4 18.3 41.55 18.65 L41.55 19.05 40.75 19.45 40.0 19.3 39.65 18.5 M49.55 16.1 Q50.0 15.5 51.0 15.2 52.0 15.15 52.9 15.15 51.5 16.0 50.0 16.2 L49.55 16.05 M55.2 15.15 L55.6 14.55 57.3 14.55 57.4 15.5 56.6 15.9 55.95 15.85 55.15 15.15 M57.7 12.45 Q57.55 11.85 58.45 11.8 L59.75 12.25 Q59.6 12.8 58.75 13.05 58.15 12.85 57.7 12.55 M61.6 10.35 Q62.1 9.9 62.65 9.55 L64.3 8.9 65.6 8.75 66.45 9.05 67.25 9.3 67.25 9.7 67.1 10.3 66.85 10.4 66.15 10.7 65.65 10.8 64.7 11.0 63.8 11.25 62.7 11.25 62.5 11.25 61.75 11.1 61.55 10.4 61.55 10.35 M68.15 8.85 L68.4 8.35 69.7 7.65 Q70.55 8.0 70.85 8.25 L70.9 8.7 70.9 8.9 Q70.6 9.85 69.55 9.9 68.85 9.95 68.45 9.55 L68.4 9.5 68.2 9.0 68.2 8.9" fill="none" stroke="#000000" stroke-linecap="round" stroke-linejoin="round" stroke-opacity="0.0" stroke-width="1.0"/>
    </g>
  </defs>
</svg>
