<?xml version="1.0" encoding="UTF-8" standalone="no"?>
<svg xmlns:xlink="http://www.w3.org/1999/xlink" height="21.55px" width="72.85px" xmlns="http://www.w3.org/2000/svg">
  <g transform="matrix(1.0, 0.0, 0.0, 1.0, -0.3, 0.55)">
    <use data-characterId="3364" height="21.55" transform="matrix(1.0, 0.0, 0.0, 1.0, 0.3, -0.55)" width="72.85" xlink:href="#morphshape0"/>
  </g>
  <defs>
    <g id="morphshape0" transform="matrix(1.0, 0.0, 0.0, 1.0, -0.3, 0.55)">
      <path d="M69.45 8.75 L69.45 8.85 69.55 9.25 69.55 9.35 Q69.85 9.9 70.55 9.9 71.55 9.9 71.6 8.75 L71.6 8.65 71.55 8.25 Q71.4 8.0 70.55 7.6 L69.5 8.3 69.4 8.75 M62.25 10.4 L62.25 10.4 62.5 11.15 63.45 11.25 63.65 11.25 64.9 11.2 65.9 10.85 66.95 10.6 67.55 10.5 68.35 10.15 68.65 10.05 68.8 9.4 68.8 8.95 67.8 8.8 66.75 8.55 65.3 8.75 63.45 9.5 Q62.8 9.85 62.2 10.35 M58.3 12.0 Q58.95 12.15 59.6 12.25 60.45 12.0 60.45 11.4 L58.85 11.2 Q57.95 11.3 58.35 12.05 M55.95 14.85 L55.95 14.85 56.75 15.7 57.4 15.8 58.25 15.4 58.2 14.4 56.5 14.25 56.0 14.85 M49.75 15.9 L50.25 16.0 Q52.0 15.85 53.65 14.9 52.55 14.95 51.5 14.95 50.25 15.25 49.75 15.9 M39.65 18.35 L39.9 19.15 40.55 19.4 41.45 19.05 41.55 18.75 Q41.55 18.3 40.35 17.4 L39.65 18.3 M27.9 17.75 L27.9 17.75 28.15 18.3 29.15 18.35 30.35 18.25 Q31.1 18.25 31.85 18.2 L31.85 17.8 31.85 17.3 29.95 17.25 Q29.0 17.25 28.0 17.3 L27.85 17.75 M19.1 14.75 L19.1 14.85 19.1 15.15 19.15 15.25 19.3 15.5 19.8 16.05 20.0 16.25 21.1 17.35 21.8 18.1 22.8 18.85 23.85 19.15 24.8 18.9 25.2 18.7 25.5 18.5 25.65 18.0 25.55 17.7 25.35 17.35 25.35 17.35 24.55 17.2 23.75 17.0 23.65 17.0 22.4 15.9 21.7 15.3 19.25 14.35 19.1 14.85 M10.7 14.2 L10.75 14.95 11.25 15.4 14.6 15.55 15.1 15.5 15.4 15.05 15.65 14.55 15.5 14.15 14.9 13.7 13.3 13.4 11.6 13.65 Q11.1 13.75 10.65 14.1 M0.55 7.8 L0.55 7.8 0.65 8.3 0.65 8.3 Q1.35 8.9 2.25 9.2 L2.65 9.3 4.05 9.6 4.35 9.7 5.35 10.0 5.6 10.1 5.85 11.0 6.65 11.85 6.75 11.95 8.05 12.75 8.35 12.85 9.3 13.2 9.4 13.2 8.5 13.5 7.35 14.15 7.15 14.35 7.25 14.55 7.45 15.2 7.75 15.95 8.65 16.3 10.15 16.45 11.25 16.25 11.8 16.2 13.2 16.4 14.3 16.45 15.05 16.45 16.45 16.7 16.65 16.8 17.95 17.15 19.05 17.6 19.6 17.85 20.15 18.15 21.15 18.65 21.35 18.75 22.35 19.15 23.35 19.6 25.1 20.1 25.4 20.2 27.1 20.65 27.6 20.75 29.0 20.75 30.0 20.75 31.0 20.75 32.05 20.75 32.95 20.65 33.25 20.65 34.3 20.55 34.5 20.55 35.3 20.55 35.6 20.55 36.8 20.45 36.9 20.45 38.3 20.35 38.75 20.35 39.85 20.25 40.75 20.2 41.45 20.15 41.8 20.15 43.0 20.05 43.8 19.95 44.7 19.85 45.45 19.85 46.35 19.65 47.15 19.5 48.35 19.05 48.8 18.8 49.8 18.15 50.2 17.75 51.05 17.5 52.45 17.35 53.15 17.4 53.25 17.4 Q54.6 17.15 55.9 16.85 L56.1 16.85 58.1 16.5 58.2 16.5 59.75 16.3 60.35 16.25 61.5 16.15 62.55 16.05 62.85 15.95 64.1 15.75 64.1 15.75 65.3 15.45 65.4 15.45 66.1 15.05 65.8 14.6 65.6 14.4 64.9 13.95 64.65 13.9 63.85 13.7 63.3 13.6 62.5 13.4 62.2 13.35 62.0 13.35 61.4 13.3 60.75 13.2 59.55 12.95 59.45 12.95 61.45 12.55 62.35 12.35 63.25 12.2 64.95 11.95 65.65 11.85 66.7 11.65 67.85 11.45 68.45 11.35 69.75 11.15 70.45 10.95 71.75 10.65 72.8 10.05 72.8 10.05 73.4 9.65 73.45 9.0 73.1 8.35 72.95 8.15 72.65 7.85 71.7 7.2 71.1 6.95 70.8 6.85 69.2 6.5 68.9 6.4 67.25 6.1 66.85 6.0 65.85 5.8 64.85 5.5 64.3 5.35 65.55 5.0 66.3 4.75 67.05 4.55 67.55 4.35 68.05 4.15 68.65 3.85 68.75 3.55 68.85 3.45 Q68.3 3.0 67.6 2.9 L67.3 2.9 65.2 2.55 65.1 2.55 62.85 2.3 62.0 2.15 61.4 2.05 60.2 1.95 59.9 1.95 58.8 1.85 58.4 1.85 57.3 1.65 56.9 1.65 56.2 1.55 55.6 1.45 54.8 1.3 53.6 1.1 53.3 1.05 51.8 0.8 51.7 0.8 50.4 0.7 50.0 0.7 49.1 0.6 48.4 0.55 47.9 0.45 47.6 0.4 46.8 0.35 45.65 0.25 45.15 0.2 43.3 0.1 42.9 0.1 40.5 0.1 39.9 0.0 39.25 -0.1 38.3 -0.05 36.65 -0.05 36.25 -0.05 34.35 0.0 33.9 0.0 33.2 0.0 32.7 0.0 31.3 0.0 30.2 0.1 29.9 0.1 28.5 0.15 27.95 0.15 27.05 0.2 26.25 0.2 25.45 0.25 25.05 0.25 23.8 0.25 23.3 0.25 22.55 0.35 21.95 0.4 21.3 0.4 20.7 0.5 20.6 0.5 19.35 0.5 18.65 0.5 17.75 0.5 16.75 0.5 16.0 0.5 14.75 0.45 14.35 0.45 12.6 0.55 12.5 0.55 11.05 0.8 10.95 0.8 9.65 1.0 9.65 1.0 8.15 1.35 7.65 1.5 7.0 1.8 6.9 1.8 7.0 2.05 Q7.6 2.35 8.25 2.65 L8.35 2.75 9.15 2.8 9.05 2.9 7.75 4.1 7.55 4.3 6.6 5.2 5.85 5.55 5.6 5.55 4.8 5.65 4.3 5.8 Q3.75 5.95 3.2 6.1 L2.8 6.2 1.9 6.6 1.15 7.1 0.85 7.3 0.4 7.75" fill="#ffffff" fill-opacity="0.61960787" fill-rule="evenodd" stroke="none"/>
      <path d="M0.4 7.75 L0.85 7.3 1.15 7.1 1.9 6.6 2.8 6.2 3.2 6.1 Q3.75 5.95 4.3 5.8 L4.8 5.65 5.6 5.55 5.85 5.55 6.6 5.2 7.55 4.3 7.75 4.1 9.05 2.9 9.15 2.8 8.35 2.75 8.25 2.65 Q7.6 2.35 7.0 2.05 L6.9 1.8 7.0 1.8 7.65 1.5 8.15 1.35 9.65 1.0 9.65 1.0 10.95 0.8 11.05 0.8 12.5 0.55 12.6 0.55 14.35 0.45 14.75 0.45 16.0 0.5 16.75 0.5 17.75 0.5 18.65 0.5 19.35 0.5 20.6 0.5 20.7 0.5 21.3 0.4 21.95 0.4 22.55 0.35 23.3 0.25 23.8 0.25 25.05 0.25 25.45 0.25 26.25 0.2 27.05 0.2 27.95 0.15 28.5 0.15 29.9 0.1 30.2 0.1 31.3 0.0 32.7 0.0 33.2 0.0 33.9 0.0 34.35 0.0 36.25 -0.05 36.65 -0.05 38.3 -0.05 39.25 -0.1 39.9 0.0 40.5 0.1 42.9 0.1 43.3 0.1 45.15 0.2 45.65 0.25 46.8 0.35 47.6 0.4 47.9 0.45 48.4 0.55 49.1 0.6 50.0 0.7 50.4 0.7 51.7 0.8 51.8 0.8 53.3 1.05 53.6 1.1 54.8 1.3 55.6 1.45 56.2 1.55 56.9 1.65 57.3 1.65 58.4 1.85 58.8 1.85 59.9 1.95 60.2 1.95 61.4 2.05 62.0 2.15 62.85 2.3 65.1 2.55 65.2 2.55 67.3 2.9 67.6 2.9 Q68.3 3.0 68.85 3.45 L68.75 3.55 68.65 3.85 68.05 4.15 67.55 4.35 67.05 4.55 66.3 4.75 65.55 5.0 64.3 5.35 64.85 5.5 65.85 5.8 66.85 6.0 67.25 6.1 68.9 6.4 69.2 6.5 70.8 6.85 71.1 6.95 71.7 7.2 72.65 7.85 72.95 8.15 73.1 8.35 73.45 9.0 73.4 9.65 72.8 10.05 72.8 10.05 71.75 10.65 70.45 10.95 69.75 11.15 68.45 11.35 67.85 11.45 66.7 11.65 65.65 11.85 64.95 11.95 63.25 12.2 62.35 12.35 61.45 12.55 59.45 12.95 59.55 12.95 60.75 13.2 61.4 13.3 62.0 13.35 62.2 13.35 62.5 13.4 63.3 13.6 63.85 13.7 64.65 13.9 64.9 13.95 65.6 14.4 65.8 14.6 66.1 15.05 65.4 15.45 65.3 15.45 64.1 15.75 64.1 15.75 62.85 15.95 62.55 16.05 61.5 16.15 60.35 16.25 59.75 16.3 58.2 16.5 58.1 16.5 56.1 16.85 55.9 16.85 Q54.6 17.15 53.25 17.4 L53.15 17.4 52.45 17.35 51.05 17.5 50.2 17.75 49.8 18.15 48.8 18.8 48.35 19.05 47.15 19.5 46.35 19.65 45.45 19.85 44.7 19.85 43.8 19.95 43.0 20.05 41.8 20.15 41.45 20.15 40.75 20.2 39.85 20.25 38.75 20.35 38.3 20.35 36.9 20.45 36.8 20.45 35.6 20.55 35.3 20.55 34.5 20.55 34.3 20.55 33.25 20.65 32.95 20.65 32.05 20.75 31.0 20.75 30.0 20.75 29.0 20.75 27.6 20.75 27.1 20.65 25.4 20.2 25.1 20.1 23.35 19.6 22.35 19.15 21.35 18.75 21.15 18.65 20.15 18.15 19.6 17.85 19.05 17.6 17.95 17.15 16.65 16.8 16.45 16.7 15.05 16.45 14.3 16.45 13.2 16.4 11.8 16.2 11.25 16.25 10.15 16.45 8.65 16.3 7.75 15.95 7.45 15.2 7.25 14.55 7.15 14.35 7.35 14.15 8.5 13.5 9.4 13.2 9.3 13.2 8.35 12.85 8.05 12.75 6.75 11.95 6.65 11.85 5.85 11.0 5.6 10.1 5.35 10.0 4.35 9.7 4.05 9.6 2.65 9.3 2.25 9.2 Q1.35 8.9 0.65 8.3 L0.65 8.3 0.55 7.8 0.55 7.8 M10.65 14.1 Q11.1 13.75 11.6 13.65 L13.3 13.4 14.9 13.7 15.5 14.15 15.65 14.55 15.4 15.05 15.1 15.5 14.6 15.55 11.25 15.4 10.75 14.95 10.7 14.2 M19.1 14.85 L19.25 14.35 21.7 15.3 22.4 15.9 23.65 17.0 23.75 17.0 24.55 17.2 25.35 17.35 25.35 17.35 25.55 17.7 25.65 18.0 25.5 18.5 25.2 18.7 24.8 18.9 23.85 19.15 22.8 18.85 21.8 18.1 21.1 17.35 20.0 16.25 19.8 16.05 19.3 15.5 19.15 15.25 19.1 15.15 19.1 14.85 19.1 14.75 M27.85 17.75 L28.0 17.3 Q29.0 17.25 29.95 17.25 L31.85 17.3 31.85 17.8 31.85 18.2 Q31.1 18.25 30.35 18.25 L29.15 18.35 28.15 18.3 27.9 17.75 27.9 17.75 M39.65 18.3 L40.35 17.4 Q41.55 18.3 41.55 18.75 L41.45 19.05 40.55 19.4 39.9 19.15 39.65 18.35 M49.75 15.9 Q50.25 15.25 51.5 14.95 52.55 14.95 53.65 14.9 52.0 15.85 50.25 16.0 L49.75 15.9 M56.0 14.85 L56.5 14.25 58.2 14.4 58.25 15.4 57.4 15.8 56.75 15.7 55.95 14.85 55.95 14.85 M58.35 12.05 Q57.95 11.3 58.85 11.2 L60.45 11.4 Q60.45 12.0 59.6 12.25 58.95 12.15 58.3 12.0 M62.2 10.35 Q62.8 9.85 63.45 9.5 L65.3 8.75 66.75 8.55 67.8 8.8 68.8 8.95 68.8 9.4 68.65 10.05 68.35 10.15 67.55 10.5 66.95 10.6 65.9 10.85 64.9 11.2 63.65 11.25 63.45 11.25 62.5 11.15 62.25 10.4 62.25 10.4 M69.4 8.75 L69.5 8.3 70.55 7.6 Q71.4 8.0 71.55 8.25 L71.6 8.65 71.6 8.75 Q71.55 9.9 70.55 9.9 69.85 9.9 69.55 9.35 L69.55 9.25 69.45 8.85 69.45 8.75" fill="none" stroke="#000000" stroke-linecap="round" stroke-linejoin="round" stroke-opacity="0.0" stroke-width="1.0"/>
    </g>
  </defs>
</svg>
