<?xml version="1.0" encoding="UTF-8" standalone="no"?>
<svg xmlns:xlink="http://www.w3.org/1999/xlink" height="21.55px" width="72.85px" xmlns="http://www.w3.org/2000/svg">
  <g transform="matrix(1.0, 0.0, 0.0, 1.0, -0.3, 0.55)">
    <use data-characterId="3364" height="21.55" transform="matrix(1.0, 0.0, 0.0, 1.0, 0.3, -0.55)" width="72.85" xlink:href="#morphshape0"/>
  </g>
  <defs>
    <g id="morphshape0" transform="matrix(1.0, 0.0, 0.0, 1.0, -0.3, 0.55)">
      <path d="M69.75 8.75 L69.75 8.85 69.85 9.25 69.85 9.35 Q70.1 9.95 70.8 9.95 71.8 9.95 71.8 8.75 L71.8 8.65 71.75 8.25 Q71.65 8.0 70.8 7.6 L69.8 8.3 69.75 8.75 M62.35 10.35 L62.35 10.35 62.6 11.15 63.6 11.25 63.8 11.25 65.1 11.15 66.15 10.8 67.25 10.55 67.85 10.45 68.7 10.1 69.0 10.0 69.15 9.3 69.15 8.85 68.1 8.7 67.0 8.45 65.5 8.7 63.6 9.5 Q62.95 9.85 62.35 10.35 M58.55 11.9 Q59.25 12.0 59.9 12.05 60.75 11.8 60.7 11.15 L59.0 11.0 Q58.1 11.1 58.55 11.9 M56.25 14.75 L56.25 14.75 57.05 15.65 57.7 15.75 58.55 15.35 58.5 14.35 56.8 14.15 56.25 14.75 M49.8 15.85 L50.3 15.95 Q52.15 15.8 53.9 14.8 52.75 14.85 51.65 14.85 50.35 15.15 49.8 15.85 M39.65 18.25 L39.9 19.05 40.5 19.35 41.45 19.05 41.55 18.75 Q41.6 18.3 40.35 17.35 L39.65 18.25 M27.65 17.75 L27.65 17.75 27.9 18.3 28.9 18.3 30.1 18.2 Q30.85 18.2 31.6 18.2 L31.6 17.8 31.6 17.3 29.7 17.3 Q28.75 17.3 27.8 17.3 L27.65 17.75 M18.9 14.9 L18.9 15.0 18.9 15.3 18.95 15.4 19.1 15.65 19.6 16.2 19.8 16.4 20.9 17.5 21.55 18.25 22.55 19.0 23.6 19.3 24.55 19.05 24.95 18.85 25.25 18.65 25.4 18.15 25.3 17.85 25.1 17.5 25.1 17.5 24.3 17.35 23.5 17.15 23.4 17.15 22.2 16.0 21.5 15.4 19.05 14.4 18.9 14.9 M10.65 14.05 L10.65 14.85 11.15 15.35 14.55 15.5 15.1 15.5 15.4 15.05 15.7 14.55 15.55 14.15 14.95 13.7 13.35 13.4 11.6 13.6 Q11.1 13.7 10.65 14.05 M0.3 7.75 L0.3 7.75 0.4 8.25 0.4 8.25 Q1.1 8.85 2.0 9.15 L2.4 9.25 3.8 9.55 4.1 9.65 5.2 9.9 5.45 10.0 5.7 10.9 6.5 11.75 6.6 11.85 7.9 12.65 8.2 12.75 9.15 13.1 9.25 13.1 8.35 13.4 7.2 14.05 7.0 14.25 7.1 14.45 7.3 15.1 7.6 15.9 8.5 16.25 10.0 16.4 11.1 16.2 11.65 16.15 13.05 16.35 14.15 16.4 14.9 16.4 16.3 16.65 16.5 16.75 17.8 17.15 18.9 17.65 19.45 17.9 20.0 18.2 21.0 18.75 21.2 18.85 22.2 19.25 23.2 19.7 25.0 20.2 25.3 20.3 27.0 20.75 27.5 20.85 28.9 20.8 29.9 20.8 30.9 20.8 31.95 20.8 32.85 20.7 33.15 20.7 34.2 20.6 34.4 20.6 35.2 20.6 35.5 20.6 36.7 20.5 36.8 20.5 38.2 20.4 38.65 20.4 39.75 20.3 40.65 20.25 41.35 20.2 41.7 20.2 42.9 20.1 43.7 20.0 44.6 19.9 45.35 19.9 46.25 19.7 47.05 19.55 48.25 19.1 48.7 18.85 49.7 18.15 50.1 17.75 50.95 17.5 52.35 17.35 53.05 17.4 53.15 17.4 Q54.5 17.15 55.85 16.9 L56.05 16.9 58.05 16.55 58.15 16.55 59.7 16.35 60.3 16.3 61.45 16.2 62.5 16.1 62.8 16.0 64.05 15.8 64.05 15.8 65.25 15.5 65.35 15.5 66.05 15.1 65.7 14.65 65.45 14.45 64.65 14.0 64.35 13.95 63.45 13.75 62.85 13.65 61.95 13.45 61.65 13.4 61.45 13.4 60.85 13.35 60.2 13.25 59.0 13.0 58.9 13.0 61.15 12.6 62.05 12.4 62.95 12.25 64.65 12.0 65.35 11.9 66.4 11.7 67.55 11.5 68.15 11.4 69.45 11.2 70.15 11.0 71.45 10.7 72.5 10.1 72.5 10.1 73.1 9.7 73.1 9.05 72.7 8.4 72.55 8.2 72.25 7.9 71.25 7.25 70.6 7.0 70.3 6.9 68.7 6.55 68.4 6.45 66.75 6.15 66.35 6.05 65.35 5.85 64.35 5.55 63.8 5.4 65.2 5.05 65.95 4.8 66.7 4.6 67.2 4.4 67.7 4.2 68.3 3.9 68.4 3.6 68.5 3.5 Q67.95 3.05 67.25 2.95 L66.95 2.95 64.85 2.6 64.75 2.6 62.5 2.35 61.65 2.2 61.05 2.1 59.85 2.0 59.55 2.0 58.45 1.9 58.05 1.9 56.95 1.7 56.55 1.7 55.85 1.6 55.25 1.5 54.45 1.35 53.25 1.15 52.95 1.1 51.45 0.85 51.35 0.85 50.05 0.75 49.65 0.75 48.75 0.65 48.05 0.6 47.55 0.5 47.25 0.45 46.45 0.4 45.3 0.3 44.8 0.25 42.95 0.15 42.55 0.15 40.15 0.15 39.55 0.05 38.9 -0.05 37.95 0.0 36.3 0.0 35.9 0.0 34.0 0.05 33.55 0.05 32.85 0.05 32.35 0.05 30.95 0.05 29.85 0.15 29.55 0.15 28.15 0.2 27.6 0.2 26.7 0.25 25.9 0.25 25.1 0.3 24.7 0.3 23.45 0.3 22.95 0.3 22.2 0.4 21.6 0.45 20.95 0.45 20.35 0.55 20.25 0.55 19.0 0.55 18.3 0.55 17.4 0.55 16.4 0.55 15.65 0.55 14.4 0.5 14.0 0.5 12.25 0.6 12.15 0.6 10.7 0.85 10.6 0.85 9.3 1.05 9.3 1.05 7.8 1.4 7.3 1.55 6.65 1.85 6.55 1.85 6.65 2.1 Q7.35 2.4 8.05 2.7 L8.15 2.8 9.05 2.8 8.95 2.9 7.65 4.1 7.45 4.3 6.5 5.2 5.75 5.55 5.5 5.55 4.7 5.65 4.2 5.8 Q3.65 5.95 3.1 6.1 L2.7 6.2 1.8 6.6 1.05 7.1 0.75 7.3 0.3 7.75" fill="#ffffff" fill-opacity="0.61960787" fill-rule="evenodd" stroke="none"/>
      <path d="M0.3 7.75 L0.75 7.3 1.05 7.1 1.8 6.6 2.7 6.2 3.1 6.1 Q3.65 5.95 4.2 5.8 L4.7 5.65 5.5 5.55 5.75 5.55 6.5 5.2 7.45 4.3 7.65 4.1 8.95 2.9 9.05 2.8 8.15 2.8 8.05 2.7 Q7.35 2.4 6.65 2.1 L6.55 1.85 6.65 1.85 7.3 1.55 7.8 1.4 9.3 1.05 9.3 1.05 10.6 0.85 10.7 0.85 12.15 0.6 12.25 0.6 14.0 0.5 14.4 0.5 15.65 0.55 16.4 0.55 17.4 0.55 18.3 0.55 19.0 0.55 20.25 0.55 20.35 0.55 20.95 0.45 21.6 0.45 22.2 0.4 22.95 0.3 23.45 0.3 24.7 0.3 25.1 0.3 25.9 0.25 26.7 0.25 27.6 0.2 28.15 0.2 29.55 0.15 29.85 0.15 30.95 0.05 32.35 0.05 32.85 0.05 33.55 0.05 34.0 0.05 35.9 0.0 36.3 0.0 37.95 0.0 38.9 -0.05 39.55 0.05 40.15 0.15 42.55 0.15 42.95 0.15 44.8 0.25 45.3 0.3 46.45 0.4 47.25 0.45 47.55 0.5 48.05 0.6 48.75 0.65 49.65 0.75 50.05 0.75 51.35 0.85 51.45 0.85 52.95 1.1 53.25 1.15 54.45 1.35 55.25 1.5 55.85 1.6 56.55 1.7 56.95 1.7 58.05 1.9 58.45 1.9 59.55 2.0 59.85 2.0 61.05 2.1 61.65 2.2 62.5 2.35 64.75 2.6 64.85 2.6 66.95 2.95 67.25 2.95 Q67.95 3.05 68.5 3.5 L68.4 3.6 68.3 3.9 67.7 4.2 67.2 4.4 66.7 4.6 65.95 4.8 65.2 5.05 63.8 5.4 64.35 5.55 65.35 5.85 66.35 6.05 66.75 6.15 68.4 6.45 68.7 6.55 70.3 6.9 70.6 7.0 71.25 7.25 72.25 7.9 72.55 8.2 72.7 8.4 73.1 9.05 73.1 9.7 72.5 10.1 72.5 10.1 71.45 10.7 70.15 11.0 69.45 11.2 68.15 11.4 67.55 11.5 66.4 11.7 65.35 11.9 64.65 12.0 62.95 12.25 62.05 12.4 61.15 12.6 58.9 13.0 59.0 13.0 60.2 13.25 60.85 13.35 61.45 13.4 61.65 13.4 61.95 13.45 62.85 13.65 63.45 13.75 64.35 13.95 64.65 14.0 65.45 14.45 65.7 14.65 66.05 15.1 65.35 15.5 65.25 15.5 64.05 15.8 64.05 15.8 62.8 16.0 62.5 16.1 61.45 16.2 60.3 16.3 59.7 16.35 58.15 16.55 58.05 16.55 56.05 16.9 55.85 16.9 Q54.5 17.15 53.15 17.4 L53.05 17.4 52.35 17.35 50.95 17.5 50.1 17.75 49.7 18.15 48.7 18.85 48.25 19.1 47.05 19.55 46.25 19.7 45.35 19.9 44.6 19.9 43.7 20.0 42.9 20.1 41.7 20.2 41.35 20.2 40.65 20.25 39.75 20.3 38.65 20.4 38.2 20.4 36.8 20.5 36.7 20.5 35.5 20.6 35.2 20.6 34.4 20.6 34.2 20.6 33.15 20.7 32.85 20.7 31.95 20.8 30.9 20.8 29.9 20.8 28.9 20.8 27.5 20.85 27.0 20.75 25.3 20.3 25.0 20.2 23.2 19.7 22.2 19.25 21.2 18.85 21.0 18.75 20.0 18.2 19.45 17.9 18.9 17.65 17.8 17.15 16.5 16.75 16.3 16.65 14.9 16.4 14.15 16.4 13.05 16.35 11.65 16.15 11.1 16.2 10.0 16.4 8.5 16.25 7.6 15.9 7.3 15.1 7.1 14.45 7.0 14.25 7.2 14.05 8.35 13.4 9.25 13.1 9.15 13.1 8.2 12.75 7.9 12.65 6.6 11.85 6.5 11.75 5.7 10.9 5.45 10.0 5.2 9.9 4.1 9.65 3.8 9.55 2.4 9.25 2.0 9.15 Q1.1 8.85 0.4 8.25 L0.4 8.25 0.3 7.75 0.3 7.75 M10.65 14.05 Q11.1 13.7 11.6 13.6 L13.35 13.4 14.95 13.7 15.55 14.15 15.7 14.55 15.4 15.05 15.1 15.5 14.55 15.5 11.15 15.35 10.65 14.85 10.65 14.05 M18.9 14.9 L19.05 14.4 21.5 15.4 22.2 16.0 23.4 17.15 23.5 17.15 24.3 17.35 25.1 17.5 25.1 17.5 25.3 17.85 25.4 18.15 25.25 18.65 24.95 18.85 24.55 19.05 23.6 19.3 22.55 19.0 21.55 18.25 20.9 17.5 19.8 16.4 19.6 16.2 19.1 15.65 18.95 15.4 18.9 15.3 18.9 15.0 18.9 14.9 M27.65 17.75 L27.8 17.3 Q28.75 17.3 29.7 17.3 L31.6 17.3 31.6 17.8 31.6 18.2 Q30.85 18.2 30.1 18.2 L28.9 18.3 27.9 18.3 27.65 17.75 27.65 17.75 M39.65 18.25 L40.35 17.35 Q41.6 18.3 41.55 18.75 L41.45 19.05 40.5 19.35 39.9 19.05 39.65 18.25 M49.8 15.85 Q50.35 15.15 51.65 14.85 52.75 14.85 53.9 14.8 52.15 15.8 50.3 15.95 L49.8 15.85 M56.25 14.75 L56.8 14.15 58.5 14.35 58.55 15.35 57.7 15.75 57.05 15.65 56.25 14.75 56.25 14.75 M58.55 11.9 Q58.1 11.1 59.0 11.0 L60.7 11.15 Q60.75 11.8 59.9 12.05 59.25 12.0 58.55 11.9 M62.35 10.35 Q62.95 9.85 63.6 9.5 L65.5 8.7 67.0 8.45 68.1 8.7 69.15 8.85 69.15 9.3 69.0 10.0 68.7 10.1 67.85 10.45 67.25 10.55 66.15 10.8 65.1 11.15 63.8 11.25 63.6 11.25 62.6 11.15 62.35 10.35 62.35 10.35 M69.75 8.75 L69.8 8.3 70.8 7.6 Q71.65 8.0 71.75 8.25 L71.8 8.65 71.8 8.75 Q71.8 9.95 70.8 9.95 70.1 9.95 69.85 9.35 L69.85 9.25 69.75 8.85 69.75 8.75 Z" fill="none" stroke="#000000" stroke-linecap="round" stroke-linejoin="round" stroke-opacity="0.0" stroke-width="1.0"/>
    </g>
  </defs>
</svg>
