<?xml version="1.0" encoding="UTF-8" standalone="no"?>
<svg xmlns:xlink="http://www.w3.org/1999/xlink" height="21.55px" width="72.85px" xmlns="http://www.w3.org/2000/svg">
  <g transform="matrix(1.0, 0.0, 0.0, 1.0, -0.3, 0.55)">
    <use data-characterId="3364" height="21.55" transform="matrix(1.0, 0.0, 0.0, 1.0, 0.3, -0.55)" width="72.85" xlink:href="#morphshape0"/>
  </g>
  <defs>
    <g id="morphshape0" transform="matrix(1.0, 0.0, 0.0, 1.0, -0.3, 0.55)">
      <path d="M65.55 8.95 L65.55 9.0 65.9 9.65 66.1 9.6 Q66.7 9.7 67.45 9.6 68.55 9.45 69.3 8.9 L69.35 8.55 69.3 8.05 Q68.7 7.85 67.85 7.65 L66.05 8.35 65.5 9.0 M60.25 10.35 L60.25 10.5 60.4 10.95 60.75 11.25 60.9 11.3 61.65 11.5 62.25 11.4 62.9 11.3 63.25 11.15 63.7 10.9 63.85 10.8 64.0 10.4 64.0 10.15 63.6 9.75 63.15 9.35 62.25 9.3 61.05 9.7 Q60.65 10.0 60.3 10.35 M56.25 13.45 Q56.25 14.15 56.7 14.65 57.6 14.45 58.15 14.15 L57.5 13.2 Q56.65 13.2 56.25 13.45 M53.4 15.95 L53.45 15.95 54.1 16.25 54.8 16.25 55.5 15.85 55.3 15.0 53.55 15.35 53.4 15.9 M49.15 16.55 L49.45 16.85 Q50.35 16.55 51.2 15.95 50.7 15.85 49.9 15.95 49.4 16.2 49.15 16.55 M39.7 18.9 L40.2 19.75 41.15 19.7 41.65 19.05 41.5 18.5 Q41.0 18.3 40.1 17.95 L39.65 18.95 M30.15 17.8 L30.2 17.85 30.6 18.35 31.65 18.75 32.95 18.8 Q33.8 18.7 34.3 18.15 L34.4 17.7 34.35 17.2 32.3 16.9 Q31.55 16.95 30.25 17.4 L30.05 17.8 M21.05 14.45 L21.05 14.5 21.1 14.85 21.1 14.95 21.25 15.3 21.6 15.8 21.85 15.95 23.1 16.85 24.05 17.45 25.1 17.95 26.1 18.1 27.0 18.0 27.4 17.95 27.65 17.7 27.85 17.25 27.95 16.95 27.85 16.55 27.85 16.5 27.25 16.1 26.4 15.9 26.3 15.9 24.8 15.1 23.85 14.65 21.35 14.0 21.05 14.45 M10.6 14.5 L11.05 14.75 11.6 14.9 14.55 14.9 14.7 14.6 14.8 14.2 14.55 13.9 14.3 13.75 13.75 13.55 12.35 13.3 11.05 13.95 Q10.8 14.2 10.55 14.55 M1.85 8.05 L1.95 8.1 2.15 8.4 2.2 8.45 Q2.9 8.95 3.65 9.3 L4.05 9.4 5.3 9.75 5.35 9.9 5.4 10.55 5.6 10.75 6.1 11.6 7.0 12.3 7.15 12.4 8.4 12.95 8.65 13.05 9.55 13.35 9.45 13.4 8.4 13.85 7.5 14.75 7.4 15.0 7.45 15.15 7.8 15.65 8.35 16.1 9.25 16.35 10.55 16.55 11.55 16.5 12.0 16.5 13.35 16.55 14.25 16.55 14.95 16.55 16.2 16.6 16.4 16.65 17.65 16.7 18.6 16.85 19.2 16.95 19.7 17.05 20.7 17.15 20.9 17.25 21.85 17.7 22.7 18.2 24.15 18.85 24.45 19.0 25.9 19.6 26.35 19.75 27.6 20.0 28.5 20.25 29.4 20.4 30.4 20.55 31.15 20.65 31.5 20.7 32.45 20.85 32.6 20.85 33.35 20.9 33.65 20.9 34.7 20.95 34.85 20.95 36.1 20.9 36.6 20.9 37.55 20.85 38.4 20.8 39.05 20.8 39.45 20.8 40.5 20.7 41.25 20.65 42.05 20.6 42.75 20.6 43.6 20.45 44.35 20.35 45.4 20.15 45.8 20.05 46.8 19.75 47.4 19.55 48.2 19.35 49.55 18.95 50.2 18.85 50.25 18.85 Q51.35 18.6 52.35 17.85 L52.5 17.8 54.3 17.55 54.35 17.55 55.85 17.35 56.4 17.25 57.5 17.1 58.45 16.95 58.75 16.9 59.85 16.75 59.9 16.75 60.95 16.45 61.05 16.45 61.7 16.25 61.85 16.05 61.9 15.9 62.15 15.5 62.3 15.35 62.55 15.0 62.65 14.75 62.9 14.3 62.85 14.2 62.7 14.15 62.25 13.95 61.7 13.75 60.65 13.5 60.55 13.5 59.95 13.05 60.8 12.85 61.55 12.75 63.1 12.4 63.8 12.25 64.7 12.05 65.75 11.8 66.3 11.65 67.55 11.3 68.2 11.1 69.3 10.65 70.2 10.2 70.35 10.15 70.8 9.85 71.2 9.35 71.3 8.95 71.3 8.8 71.25 8.5 71.1 7.7 70.95 7.3 70.9 7.15 69.45 6.65 69.15 6.55 67.65 6.25 67.25 6.15 66.3 6.0 65.35 5.75 64.9 5.65 64.45 5.35 65.15 5.0 65.8 4.65 66.25 4.3 66.7 3.95 67.1 3.6 67.25 3.35 67.2 3.3 Q66.65 3.0 66.1 2.85 L65.85 2.85 63.85 2.45 63.75 2.45 61.6 2.15 60.85 2.05 60.25 2.0 59.2 1.85 58.9 1.85 57.95 1.75 57.55 1.7 56.6 1.55 56.2 1.5 55.55 1.4 55.0 1.3 54.2 1.2 53.15 1.05 52.85 1.0 51.4 0.75 51.35 0.75 50.1 0.6 49.7 0.6 48.85 0.5 48.2 0.45 47.7 0.35 47.45 0.35 46.7 0.3 45.65 0.2 45.2 0.2 43.5 0.05 43.15 0.05 41.0 -0.05 40.45 -0.1 39.85 -0.15 39.0 -0.15 37.45 -0.2 37.1 -0.2 35.35 -0.2 35.0 -0.2 34.3 -0.25 33.85 -0.2 32.5 -0.15 31.45 -0.1 31.2 -0.1 29.85 -0.05 29.35 -0.05 28.6 0.0 27.85 0.0 27.05 0.05 26.75 0.05 25.6 0.05 25.1 0.05 24.55 0.1 23.95 0.15 23.35 0.15 22.75 0.2 22.6 0.2 21.5 0.25 20.85 0.25 20.0 0.25 19.05 0.3 18.4 0.3 17.2 0.3 16.85 0.3 15.25 0.35 15.15 0.35 13.85 0.45 13.7 0.45 12.55 0.5 12.35 0.5 11.0 0.7 10.55 0.8 9.85 1.05 9.75 1.05 9.7 1.2 Q9.45 1.5 9.35 1.85 L9.3 1.95 9.05 2.4 8.95 2.5 7.75 3.6 7.5 3.85 6.6 4.8 6.1 5.35 5.95 5.45 5.2 5.6 4.7 5.8 Q4.15 5.95 3.65 6.2 L3.3 6.35 2.6 6.8 2.0 7.3 1.85 7.45 1.45 7.85" fill="#ffffff" fill-opacity="0.61960787" fill-rule="evenodd" stroke="none"/>
      <path d="M1.45 7.85 L1.85 7.45 2.0 7.3 2.6 6.8 3.3 6.35 3.65 6.2 Q4.15 5.95 4.7 5.8 L5.2 5.6 5.95 5.45 6.1 5.35 6.6 4.8 7.5 3.85 7.75 3.6 8.95 2.5 9.05 2.4 9.3 1.95 9.35 1.85 Q9.45 1.5 9.7 1.2 L9.75 1.05 9.85 1.05 10.55 0.8 11.0 0.7 12.35 0.5 12.55 0.5 13.7 0.45 13.85 0.45 15.15 0.35 15.25 0.35 16.85 0.3 17.2 0.3 18.4 0.3 19.05 0.3 20.0 0.25 20.85 0.25 21.5 0.25 22.6 0.2 22.75 0.2 23.35 0.15 23.95 0.15 24.55 0.1 25.1 0.05 25.6 0.05 26.75 0.05 27.05 0.05 27.85 0.0 28.6 0.0 29.35 -0.05 29.85 -0.05 31.2 -0.1 31.45 -0.1 32.5 -0.15 33.85 -0.2 34.3 -0.25 35.0 -0.2 35.35 -0.2 37.1 -0.2 37.45 -0.2 39.0 -0.15 39.85 -0.15 40.45 -0.1 41.0 -0.05 43.15 0.05 43.5 0.05 45.2 0.2 45.65 0.2 46.7 0.3 47.45 0.35 47.7 0.35 48.2 0.45 48.85 0.5 49.7 0.6 50.1 0.6 51.35 0.75 51.4 0.75 52.85 1.0 53.15 1.05 54.2 1.2 55.0 1.3 55.55 1.4 56.2 1.5 56.6 1.55 57.55 1.7 57.95 1.75 58.9 1.85 59.2 1.85 60.25 2.0 60.85 2.05 61.6 2.15 63.75 2.45 63.85 2.45 65.85 2.85 66.1 2.85 Q66.65 3.0 67.2 3.3 L67.25 3.35 67.1 3.6 66.7 3.95 66.25 4.3 65.8 4.65 65.15 5.0 64.45 5.35 64.9 5.65 65.35 5.75 66.3 6.0 67.25 6.15 67.65 6.25 69.15 6.55 69.45 6.65 70.9 7.15 70.95 7.3 71.1 7.7 71.25 8.5 71.3 8.8 71.3 8.95 71.2 9.35 70.8 9.85 70.35 10.15 70.2 10.2 69.3 10.65 68.2 11.1 67.55 11.3 66.3 11.65 65.75 11.8 64.7 12.05 63.8 12.25 63.1 12.4 61.55 12.75 60.8 12.85 59.95 13.05 60.55 13.5 60.65 13.5 61.7 13.75 62.25 13.95 62.7 14.15 62.85 14.2 62.9 14.3 62.65 14.75 62.55 15.0 62.3 15.35 62.15 15.5 61.9 15.9 61.85 16.05 61.7 16.25 61.05 16.45 60.95 16.45 59.9 16.75 59.85 16.75 58.75 16.9 58.45 16.95 57.5 17.1 56.4 17.25 55.85 17.35 54.35 17.55 54.3 17.55 52.5 17.8 52.35 17.85 Q51.35 18.6 50.25 18.85 L50.2 18.85 49.55 18.95 48.2 19.35 47.4 19.55 46.8 19.75 45.8 20.05 45.4 20.15 44.35 20.35 43.6 20.45 42.75 20.6 42.05 20.6 41.25 20.65 40.5 20.7 39.45 20.8 39.05 20.8 38.4 20.8 37.55 20.85 36.6 20.9 36.1 20.9 34.85 20.95 34.7 20.95 33.65 20.9 33.35 20.9 32.6 20.85 32.45 20.85 31.5 20.7 31.15 20.65 30.4 20.55 29.4 20.4 28.5 20.25 27.6 20.0 26.35 19.75 25.9 19.6 24.45 19.0 24.15 18.85 22.7 18.2 21.85 17.7 20.9 17.25 20.7 17.15 19.7 17.05 19.2 16.95 18.6 16.85 17.65 16.7 16.4 16.65 16.2 16.6 14.95 16.55 14.25 16.55 13.35 16.55 12.0 16.5 11.55 16.5 10.55 16.55 9.25 16.35 8.35 16.1 7.8 15.65 7.45 15.15 7.4 15.0 7.5 14.75 8.4 13.85 9.45 13.4 9.55 13.35 8.65 13.05 8.4 12.95 7.15 12.4 7.0 12.3 6.1 11.6 5.6 10.75 5.4 10.55 5.35 9.9 5.3 9.75 4.05 9.4 3.65 9.3 Q2.9 8.95 2.2 8.45 L2.15 8.4 1.95 8.1 1.85 8.05 M10.55 14.55 Q10.8 14.2 11.05 13.95 L12.35 13.3 13.75 13.55 14.3 13.75 14.55 13.9 14.8 14.2 14.7 14.6 14.55 14.9 11.6 14.9 11.05 14.75 10.6 14.5 M21.05 14.45 L21.35 14.0 23.85 14.65 24.8 15.1 26.3 15.9 26.4 15.9 27.25 16.1 27.85 16.5 27.85 16.55 27.95 16.95 27.85 17.25 27.65 17.7 27.4 17.95 27.0 18.0 26.1 18.1 25.1 17.95 24.05 17.45 23.1 16.85 21.85 15.95 21.6 15.8 21.25 15.3 21.1 14.95 21.1 14.85 21.05 14.5 21.05 14.45 M30.05 17.8 L30.25 17.4 Q31.55 16.95 32.3 16.9 L34.35 17.2 34.4 17.7 34.3 18.15 Q33.8 18.7 32.95 18.8 L31.65 18.75 30.6 18.35 30.2 17.85 30.15 17.8 M39.65 18.95 L40.1 17.95 Q41.0 18.3 41.5 18.5 L41.65 19.05 41.15 19.7 40.2 19.75 39.7 18.9 M49.15 16.55 Q49.4 16.2 49.9 15.95 50.7 15.85 51.2 15.95 50.35 16.55 49.45 16.85 L49.15 16.55 M53.4 15.9 L53.55 15.35 55.3 15.0 55.5 15.85 54.8 16.25 54.1 16.25 53.45 15.95 53.4 15.95 M56.25 13.45 Q56.65 13.2 57.5 13.2 L58.15 14.15 Q57.6 14.45 56.7 14.65 56.25 14.15 56.25 13.45 M60.3 10.35 Q60.65 10.0 61.05 9.7 L62.25 9.3 63.15 9.35 63.6 9.75 64.0 10.15 64.0 10.4 63.85 10.8 63.7 10.9 63.25 11.15 62.9 11.3 62.25 11.4 61.65 11.5 60.9 11.3 60.75 11.25 60.4 10.95 60.25 10.5 60.25 10.35 M65.5 9.0 L66.05 8.35 67.85 7.65 Q68.7 7.85 69.3 8.05 L69.35 8.55 69.3 8.9 Q68.55 9.45 67.45 9.6 66.7 9.7 66.1 9.6 L65.9 9.65 65.55 9.0 65.55 8.95" fill="none" stroke="#000000" stroke-linecap="round" stroke-linejoin="round" stroke-opacity="0.0" stroke-width="1.0"/>
    </g>
  </defs>
</svg>
