<?xml version="1.0" encoding="UTF-8" standalone="no"?>
<svg xmlns:xlink="http://www.w3.org/1999/xlink" height="21.55px" width="72.85px" xmlns="http://www.w3.org/2000/svg">
  <g transform="matrix(1.0, 0.0, 0.0, 1.0, -0.3, 0.55)">
    <use data-characterId="3363" height="21.55" transform="matrix(1.0, 0.0, 0.0, 1.0, 0.3, -0.55)" width="72.85" xlink:href="#morphshape0"/>
  </g>
  <defs>
    <g id="morphshape0" transform="matrix(1.0, 0.0, 0.0, 1.0, -0.3, 0.55)">
      <path d="M66.6 8.85 L66.6 8.9 66.9 9.45 67.05 9.45 Q67.55 9.7 68.3 9.65 69.35 9.55 69.9 8.8 L69.9 8.5 69.85 8.05 Q69.4 7.85 68.55 7.6 L66.95 8.3 66.55 8.9 M60.85 10.35 L60.85 10.45 61.05 11.0 61.55 11.25 61.7 11.3 62.6 11.4 63.35 11.25 64.1 11.1 64.5 10.95 65.05 10.65 65.25 10.55 65.4 10.05 65.4 9.75 64.8 9.45 64.2 9.1 63.15 9.15 61.75 9.65 Q61.3 9.95 60.85 10.35 M56.85 13.0 Q57.05 13.55 57.55 13.95 58.4 13.75 58.8 13.35 L57.85 12.6 Q57.0 12.65 56.85 13.05 M54.05 15.6 L54.8 16.05 55.5 16.1 56.25 15.7 56.1 14.8 54.35 15.0 54.1 15.6 M49.35 16.35 L49.7 16.6 Q50.85 16.35 51.95 15.65 51.25 15.6 50.35 15.65 49.65 15.9 49.3 16.35 M39.65 18.8 L40.1 19.6 40.95 19.65 41.6 19.1 41.5 18.6 Q41.15 18.3 40.15 17.8 L39.65 18.75 M29.5 17.75 L29.9 18.3 30.95 18.6 32.2 18.6 Q33.0 18.55 33.6 18.15 L33.65 17.75 33.65 17.25 31.65 17.05 Q30.85 17.1 29.65 17.4 L29.45 17.8 M20.45 14.6 L20.45 14.65 20.45 15.0 20.5 15.1 20.65 15.4 21.05 15.9 21.3 16.05 22.5 17.0 23.35 17.65 24.4 18.2 25.45 18.4 26.35 18.25 26.75 18.15 27.0 17.9 27.15 17.45 27.2 17.15 27.05 16.8 27.05 16.8 26.4 16.45 25.6 16.25 25.5 16.25 24.1 15.35 23.2 14.85 20.75 14.1 20.5 14.6 M10.6 14.45 L10.95 14.85 11.5 15.1 14.55 15.15 14.8 14.95 14.95 14.5 14.85 14.15 14.65 13.9 14.1 13.6 12.65 13.35 11.25 13.85 Q10.9 14.05 10.6 14.4 M1.45 7.7 L1.7 8.1 1.75 8.15 Q2.45 8.7 3.25 9.05 L3.65 9.15 4.95 9.5 5.05 9.65 5.4 10.2 5.65 10.35 6.1 11.2 6.95 11.95 7.1 12.05 8.35 12.65 8.6 12.75 9.55 13.1 9.5 13.15 8.5 13.55 7.5 14.35 7.35 14.55 7.4 14.7 7.7 15.25 8.2 15.8 9.1 16.1 10.45 16.25 11.5 16.15 12.0 16.1 13.35 16.2 14.3 16.25 15.05 16.25 16.35 16.35 16.55 16.4 17.8 16.55 18.8 16.8 19.35 16.95 19.9 17.1 20.9 17.35 21.1 17.45 22.05 17.9 22.95 18.35 24.5 18.95 24.8 19.1 26.3 19.65 26.75 19.8 28.05 19.95 29.0 20.1 29.95 20.2 31.0 20.3 31.8 20.35 32.1 20.4 33.1 20.45 33.25 20.45 34.0 20.5 34.3 20.5 35.4 20.5 35.55 20.5 36.85 20.45 37.3 20.45 38.3 20.4 39.15 20.35 39.8 20.3 40.15 20.3 41.25 20.2 42.0 20.15 42.85 20.05 43.6 20.05 44.45 19.9 45.2 19.75 46.3 19.45 46.75 19.3 47.75 18.9 48.3 18.65 49.15 18.45 50.55 18.15 51.2 18.1 51.25 18.1 Q52.4 17.85 53.5 17.25 L53.65 17.2 55.5 16.9 55.55 16.9 57.05 16.7 57.6 16.65 58.75 16.5 59.75 16.35 60.05 16.3 61.2 16.15 61.25 16.15 62.35 15.85 62.45 15.85 63.15 15.6 63.15 15.3 63.1 15.15 63.05 14.75 63.1 14.65 63.05 14.35 62.95 14.15 62.9 13.75 62.8 13.7 62.65 13.65 62.15 13.5 61.55 13.35 60.45 13.1 60.35 13.1 60.5 12.65 61.4 12.45 62.2 12.3 63.8 12.0 64.5 11.85 65.45 11.65 66.55 11.4 67.1 11.25 68.35 10.95 69.0 10.75 70.15 10.35 71.1 9.85 71.2 9.8 71.7 9.45 72.0 8.9 71.95 8.4 71.9 8.25 71.8 7.95 71.45 7.2 71.15 6.85 71.0 6.7 69.5 6.25 69.2 6.15 67.65 5.85 67.25 5.75 66.3 5.6 65.35 5.35 64.85 5.2 64.85 4.9 65.6 4.6 66.3 4.3 66.8 4.0 67.25 3.7 67.7 3.35 67.8 3.1 67.8 3.0 Q67.25 2.65 66.65 2.5 L66.4 2.5 64.35 2.15 64.25 2.15 62.05 1.9 61.25 1.75 60.65 1.65 59.55 1.5 59.25 1.5 58.25 1.4 57.85 1.4 56.85 1.25 56.45 1.2 55.8 1.1 55.25 1.0 54.45 0.85 53.35 0.7 53.05 0.65 51.6 0.4 51.55 0.4 50.3 0.3 49.9 0.3 49.05 0.2 48.4 0.15 47.9 0.05 47.65 0.0 46.9 -0.05 45.8 -0.15 45.35 -0.2 43.6 -0.3 43.25 -0.3 41.0 -0.35 40.4 -0.4 39.75 -0.45 38.85 -0.4 37.25 -0.4 36.9 -0.4 35.1 -0.35 34.7 -0.35 34.0 -0.35 33.55 -0.35 32.15 -0.3 31.1 -0.25 30.85 -0.25 29.5 -0.2 28.95 -0.2 28.15 -0.15 27.4 -0.15 26.6 -0.1 26.25 -0.1 25.05 -0.1 24.55 -0.1 23.95 -0.05 23.35 0.0 22.7 0.0 22.1 0.05 21.95 0.05 20.8 0.1 20.15 0.1 19.3 0.1 18.3 0.15 17.6 0.15 16.4 0.15 16.05 0.15 14.4 0.2 14.3 0.2 12.95 0.35 12.8 0.35 11.6 0.45 11.45 0.45 10.05 0.7 9.6 0.8 8.95 1.05 8.85 1.05 8.85 1.25 Q8.85 1.55 8.95 1.9 L8.95 2.0 9.0 2.35 8.9 2.45 7.65 3.6 7.45 3.85 6.55 4.8 6.0 5.3 5.8 5.35 5.05 5.5 4.55 5.7 Q4.0 5.85 3.5 6.05 L3.15 6.2 2.4 6.65 1.75 7.15 1.55 7.35 1.15 7.8" fill="#ffffff" fill-opacity="0.61960787" fill-rule="evenodd" stroke="none"/>
      <path d="M1.15 7.8 L1.55 7.35 1.75 7.15 2.4 6.65 3.15 6.2 3.5 6.05 Q4.0 5.85 4.55 5.7 L5.05 5.5 5.8 5.35 6.0 5.3 6.55 4.8 7.45 3.85 7.65 3.6 8.9 2.45 9.0 2.35 8.95 2.0 8.95 1.9 Q8.85 1.55 8.85 1.25 L8.85 1.05 8.95 1.05 9.6 0.8 10.05 0.7 11.45 0.45 11.6 0.45 12.8 0.35 12.95 0.35 14.3 0.2 14.4 0.2 16.05 0.15 16.4 0.15 17.6 0.15 18.3 0.15 19.3 0.1 20.15 0.1 20.8 0.1 21.95 0.05 22.1 0.05 22.7 0.0 23.35 0.0 23.95 -0.05 24.55 -0.1 25.05 -0.1 26.25 -0.1 26.6 -0.1 27.4 -0.15 28.15 -0.15 28.95 -0.2 29.5 -0.2 30.85 -0.25 31.1 -0.25 32.15 -0.3 33.55 -0.35 34.0 -0.35 34.7 -0.35 35.1 -0.35 36.9 -0.4 37.25 -0.4 38.85 -0.4 39.75 -0.45 40.4 -0.4 41.0 -0.35 43.25 -0.3 43.6 -0.3 45.35 -0.2 45.8 -0.15 46.9 -0.05 47.65 0.0 47.9 0.05 48.4 0.15 49.05 0.2 49.9 0.3 50.3 0.3 51.55 0.4 51.6 0.4 53.05 0.65 53.35 0.7 54.45 0.85 55.25 1.0 55.8 1.1 56.45 1.2 56.85 1.25 57.85 1.4 58.25 1.4 59.25 1.5 59.55 1.5 60.65 1.65 61.25 1.75 62.05 1.9 64.25 2.15 64.35 2.15 66.4 2.5 66.65 2.5 Q67.25 2.65 67.8 3.0 L67.8 3.1 67.7 3.35 67.25 3.7 66.8 4.0 66.3 4.3 65.6 4.6 64.85 4.9 64.85 5.2 65.35 5.35 66.3 5.6 67.25 5.75 67.65 5.85 69.2 6.15 69.5 6.25 71.0 6.7 71.15 6.85 71.45 7.2 71.8 7.95 71.9 8.25 71.95 8.4 72.0 8.9 71.7 9.45 71.2 9.8 71.1 9.85 70.15 10.35 69.0 10.75 68.35 10.95 67.1 11.25 66.55 11.4 65.45 11.65 64.5 11.85 63.8 12.0 62.2 12.3 61.4 12.45 60.5 12.65 60.35 13.1 60.45 13.1 61.55 13.35 62.15 13.5 62.65 13.65 62.8 13.7 62.9 13.75 62.95 14.15 63.05 14.35 63.1 14.65 63.05 14.75 63.1 15.15 63.15 15.3 63.15 15.6 62.45 15.85 62.35 15.85 61.25 16.15 61.2 16.15 60.05 16.3 59.75 16.35 58.75 16.5 57.6 16.65 57.05 16.7 55.55 16.9 55.5 16.9 53.65 17.2 53.5 17.25 Q52.4 17.85 51.25 18.1 L51.2 18.1 50.55 18.15 49.15 18.45 48.3 18.65 47.75 18.9 46.75 19.3 46.3 19.45 45.2 19.75 44.45 19.9 43.6 20.05 42.85 20.05 42.0 20.15 41.25 20.2 40.15 20.3 39.8 20.3 39.15 20.35 38.3 20.4 37.3 20.45 36.85 20.45 35.55 20.5 35.4 20.5 34.3 20.5 34.0 20.5 33.25 20.45 33.1 20.45 32.1 20.4 31.8 20.35 31.0 20.3 29.95 20.2 29.0 20.1 28.05 19.95 26.75 19.8 26.3 19.65 24.8 19.1 24.5 18.95 22.95 18.35 22.05 17.9 21.1 17.45 20.9 17.35 19.9 17.1 19.35 16.95 18.8 16.8 17.8 16.55 16.55 16.4 16.35 16.35 15.05 16.25 14.3 16.25 13.35 16.2 12.0 16.1 11.5 16.15 10.45 16.25 9.1 16.1 8.2 15.8 7.7 15.25 7.4 14.7 7.35 14.55 7.5 14.35 8.5 13.55 9.5 13.15 9.55 13.1 8.6 12.75 8.35 12.65 7.1 12.05 6.95 11.95 6.1 11.2 5.65 10.35 5.4 10.2 5.05 9.65 4.95 9.5 3.65 9.15 3.25 9.05 Q2.45 8.7 1.75 8.15 L1.7 8.1 1.45 7.7 M10.6 14.4 Q10.9 14.05 11.25 13.85 L12.65 13.35 14.1 13.6 14.65 13.9 14.85 14.15 14.95 14.5 14.8 14.95 14.55 15.15 11.5 15.1 10.95 14.85 10.6 14.45 M20.5 14.6 L20.75 14.1 23.2 14.85 24.1 15.35 25.5 16.25 25.6 16.25 26.4 16.45 27.05 16.8 27.05 16.8 27.2 17.15 27.15 17.45 27.0 17.9 26.75 18.15 26.35 18.25 25.45 18.4 24.4 18.2 23.35 17.65 22.5 17.0 21.3 16.05 21.05 15.9 20.65 15.4 20.5 15.1 20.45 15.0 20.45 14.65 20.45 14.6 M29.45 17.8 L29.65 17.4 Q30.85 17.1 31.65 17.05 L33.65 17.25 33.65 17.75 33.6 18.15 Q33.0 18.55 32.2 18.6 L30.95 18.6 29.9 18.3 29.5 17.75 M39.65 18.75 L40.15 17.8 Q41.15 18.3 41.5 18.6 L41.6 19.1 40.95 19.65 40.1 19.6 39.65 18.8 M49.3 16.35 Q49.65 15.9 50.35 15.65 51.25 15.6 51.95 15.65 50.85 16.35 49.7 16.6 L49.35 16.35 M54.1 15.6 L54.35 15.0 56.1 14.8 56.25 15.7 55.5 16.1 54.8 16.05 54.05 15.6 M56.85 13.05 Q57.0 12.65 57.85 12.6 L58.8 13.35 Q58.4 13.75 57.55 13.95 57.05 13.55 56.85 13.0 M60.85 10.35 Q61.3 9.95 61.75 9.65 L63.15 9.15 64.2 9.1 64.8 9.45 65.4 9.75 65.4 10.05 65.25 10.55 65.05 10.65 64.5 10.95 64.1 11.1 63.35 11.25 62.6 11.4 61.7 11.3 61.55 11.25 61.05 11.0 60.85 10.45 60.85 10.35 M66.55 8.9 L66.95 8.3 68.55 7.6 Q69.4 7.85 69.85 8.05 L69.9 8.5 69.9 8.8 Q69.35 9.55 68.3 9.65 67.55 9.7 67.05 9.45 L66.9 9.45 66.6 8.9 66.6 8.85" fill="none" stroke="#000000" stroke-linecap="round" stroke-linejoin="round" stroke-opacity="0.0" stroke-width="1.0"/>
    </g>
  </defs>
</svg>
