<?xml version="1.0" encoding="UTF-8" standalone="no"?>
<svg xmlns:xlink="http://www.w3.org/1999/xlink" height="21.55px" width="72.85px" xmlns="http://www.w3.org/2000/svg">
  <g transform="matrix(1.0, 0.0, 0.0, 1.0, -0.3, 0.55)">
    <use data-characterId="3364" height="21.55" transform="matrix(1.0, 0.0, 0.0, 1.0, 0.3, -0.55)" width="72.85" xlink:href="#morphshape0"/>
  </g>
  <defs>
    <g id="morphshape0" transform="matrix(1.0, 0.0, 0.0, 1.0, -0.3, 0.55)">
      <path d="M67.3 8.95 L67.3 9.0 67.55 9.55 67.65 9.55 Q68.1 9.85 68.85 9.8 69.9 9.7 70.35 8.85 L70.35 8.6 70.3 8.15 Q69.9 7.95 69.05 7.65 L67.6 8.35 67.25 8.9 M61.2 10.4 L61.2 10.5 61.4 11.1 62.0 11.3 62.15 11.35 63.1 11.45 63.9 11.25 64.75 11.1 65.2 10.95 65.8 10.65 66.0 10.55 66.15 10.05 66.15 9.7 65.45 9.4 64.75 9.05 63.6 9.1 62.1 9.65 Q61.6 9.95 61.15 10.35 M57.2 12.8 Q57.5 13.25 58.05 13.55 58.9 13.35 59.2 12.9 L58.1 12.3 Q57.25 12.35 57.2 12.8 M54.6 15.35 L54.65 15.35 55.35 15.9 56.05 15.95 56.8 15.55 56.65 14.65 54.9 14.8 54.6 15.4 M49.4 16.3 L49.8 16.5 Q51.1 16.25 52.3 15.5 51.5 15.45 50.6 15.5 49.75 15.75 49.4 16.25 M39.65 18.65 L40.05 19.45 40.85 19.55 41.55 19.05 41.5 18.6 Q41.25 18.3 40.2 17.7 L39.65 18.65 M29.1 17.75 L29.15 17.8 29.5 18.3 30.55 18.55 31.8 18.55 Q32.6 18.5 33.2 18.2 L33.25 17.8 33.25 17.3 31.25 17.1 Q30.4 17.15 29.25 17.4 L29.05 17.8 M20.15 14.6 L20.15 14.65 20.15 15.0 20.2 15.1 20.35 15.4 20.75 15.9 21.0 16.05 22.2 17.05 23.05 17.7 24.1 18.3 25.15 18.5 26.05 18.35 26.45 18.25 26.7 18.0 26.85 17.55 26.85 17.25 26.7 16.9 26.7 16.9 26.0 16.6 25.2 16.4 25.1 16.4 23.7 15.45 22.85 14.95 20.4 14.15 20.15 14.65 M10.6 14.4 L10.85 14.85 11.4 15.15 14.55 15.2 14.85 15.0 15.05 14.55 15.05 14.15 14.85 13.9 14.3 13.6 12.8 13.35 11.3 13.8 Q10.95 14.0 10.6 14.35 M0.7 7.6 L0.75 7.65 0.9 8.05 0.95 8.1 Q1.65 8.65 2.45 9.0 L2.85 9.1 4.15 9.45 4.3 9.6 4.8 10.1 5.05 10.25 5.45 11.1 6.3 11.85 6.45 11.95 7.7 12.6 7.95 12.7 8.9 13.05 8.9 13.1 7.9 13.5 6.9 14.3 6.75 14.5 6.8 14.65 7.1 15.2 7.55 15.8 8.45 16.1 9.85 16.25 10.9 16.15 11.4 16.1 12.75 16.2 13.75 16.25 14.5 16.25 15.8 16.4 16.0 16.45 17.25 16.65 18.25 16.95 18.8 17.1 19.35 17.3 20.35 17.6 20.55 17.7 21.5 18.15 22.4 18.6 24.0 19.2 24.3 19.35 25.85 19.9 26.3 20.05 27.6 20.2 28.55 20.35 29.5 20.45 30.55 20.55 31.35 20.55 31.65 20.6 32.65 20.65 32.8 20.65 33.55 20.7 33.85 20.7 34.95 20.7 35.1 20.7 36.4 20.65 36.85 20.65 37.85 20.6 38.7 20.55 39.35 20.5 39.7 20.5 40.8 20.4 41.55 20.35 42.4 20.25 43.15 20.25 44.0 20.1 44.75 19.95 45.85 19.65 46.3 19.5 47.3 19.05 47.8 18.75 48.65 18.55 50.05 18.25 50.7 18.2 50.75 18.2 Q51.95 17.95 53.1 17.4 L53.25 17.35 55.15 17.05 55.2 17.05 56.7 16.85 57.25 16.8 58.4 16.65 59.4 16.5 59.7 16.45 60.85 16.3 60.9 16.3 62.0 16.0 62.1 16.0 62.8 15.7 62.75 15.4 62.7 15.25 62.5 14.85 62.45 14.75 62.25 14.45 62.05 14.25 61.85 13.9 61.7 13.85 61.55 13.8 61.05 13.65 60.45 13.5 59.35 13.25 59.25 13.25 59.85 12.8 60.75 12.6 61.55 12.45 63.15 12.15 63.85 12.0 64.8 11.8 65.9 11.55 66.45 11.4 67.7 11.1 68.35 10.9 69.55 10.5 70.5 10.0 70.6 9.95 71.1 9.6 71.35 9.05 71.25 8.55 71.2 8.4 71.05 8.1 70.55 7.35 70.2 7.0 70.05 6.85 68.55 6.4 68.25 6.3 66.7 6.0 66.3 5.9 65.35 5.75 64.4 5.5 63.9 5.35 64.2 5.05 64.95 4.75 65.65 4.45 66.15 4.15 66.6 3.85 67.1 3.5 67.2 3.25 67.2 3.15 Q66.65 2.8 66.05 2.65 L65.8 2.65 63.75 2.3 63.65 2.3 61.45 2.05 60.65 1.9 60.05 1.8 58.95 1.65 58.65 1.65 57.65 1.55 57.25 1.55 56.25 1.4 55.85 1.35 55.2 1.25 54.65 1.15 53.85 1.0 52.75 0.85 52.45 0.8 51.0 0.55 50.95 0.55 49.7 0.45 49.3 0.45 48.45 0.35 47.8 0.3 47.3 0.2 47.05 0.15 46.3 0.1 45.2 0.0 44.75 -0.05 43.0 -0.15 42.65 -0.15 40.4 -0.2 39.8 -0.25 39.15 -0.3 38.25 -0.25 36.65 -0.25 36.3 -0.25 34.5 -0.2 34.1 -0.2 33.4 -0.2 32.95 -0.2 31.55 -0.15 30.5 -0.1 30.25 -0.1 28.9 -0.05 28.35 -0.05 27.55 0.0 26.8 0.0 26.0 0.05 25.65 0.05 24.45 0.05 23.95 0.05 23.3 0.1 22.7 0.15 22.05 0.15 21.45 0.2 21.3 0.2 20.15 0.25 19.5 0.25 18.65 0.25 17.65 0.3 16.95 0.3 15.75 0.3 15.4 0.3 13.75 0.35 13.65 0.35 12.3 0.5 12.15 0.5 10.95 0.6 10.85 0.6 9.45 0.85 9.0 0.95 8.35 1.2 8.25 1.2 8.25 1.4 Q8.4 1.7 8.65 2.05 L8.65 2.15 8.9 2.4 8.8 2.5 7.55 3.65 7.35 3.9 6.45 4.85 5.85 5.3 5.65 5.35 4.9 5.5 4.4 5.7 Q3.85 5.85 3.35 6.05 L3.0 6.2 2.2 6.65 1.55 7.15 1.35 7.35 0.95 7.8" fill="#ffffff" fill-opacity="0.61960787" fill-rule="evenodd" stroke="none"/>
      <path d="M0.95 7.8 L1.35 7.35 1.55 7.15 2.2 6.65 3.0 6.2 3.35 6.05 Q3.85 5.85 4.4 5.7 L4.9 5.5 5.65 5.35 5.85 5.3 6.45 4.85 7.35 3.9 7.55 3.65 8.8 2.5 8.9 2.4 8.65 2.15 8.65 2.05 Q8.4 1.7 8.25 1.4 L8.25 1.2 8.35 1.2 9.0 0.95 9.45 0.85 10.85 0.6 10.95 0.6 12.15 0.5 12.3 0.5 13.65 0.35 13.75 0.35 15.4 0.3 15.75 0.3 16.95 0.3 17.65 0.3 18.65 0.25 19.5 0.25 20.15 0.25 21.3 0.2 21.45 0.2 22.05 0.15 22.7 0.15 23.3 0.1 23.95 0.05 24.45 0.05 25.65 0.05 26.0 0.05 26.8 0.0 27.55 0.0 28.35 -0.05 28.9 -0.05 30.25 -0.1 30.5 -0.1 31.55 -0.15 32.95 -0.2 33.4 -0.2 34.1 -0.2 34.5 -0.2 36.3 -0.25 36.65 -0.25 38.25 -0.25 39.15 -0.3 39.8 -0.25 40.4 -0.2 42.65 -0.15 43.0 -0.15 44.75 -0.05 45.2 0.0 46.3 0.1 47.05 0.15 47.3 0.2 47.8 0.3 48.45 0.35 49.3 0.45 49.7 0.45 50.95 0.55 51.0 0.55 52.45 0.8 52.75 0.85 53.85 1.0 54.65 1.15 55.2 1.25 55.85 1.35 56.25 1.4 57.25 1.55 57.65 1.55 58.65 1.65 58.95 1.65 60.05 1.8 60.65 1.9 61.45 2.05 63.65 2.3 63.75 2.3 65.8 2.65 66.05 2.65 Q66.65 2.8 67.2 3.15 L67.2 3.25 67.1 3.5 66.6 3.85 66.15 4.15 65.65 4.45 64.95 4.75 64.2 5.05 63.9 5.35 64.4 5.5 65.35 5.75 66.3 5.9 66.7 6.0 68.25 6.3 68.55 6.4 70.05 6.85 70.2 7.0 70.55 7.35 71.05 8.1 71.2 8.4 71.25 8.55 71.35 9.05 71.1 9.6 70.6 9.95 70.5 10.0 69.55 10.5 68.35 10.9 67.7 11.1 66.45 11.4 65.9 11.55 64.8 11.8 63.85 12.0 63.15 12.15 61.55 12.45 60.75 12.6 59.85 12.8 59.25 13.25 59.35 13.25 60.45 13.5 61.05 13.65 61.55 13.8 61.7 13.85 61.85 13.9 62.05 14.25 62.25 14.45 62.45 14.75 62.5 14.85 62.7 15.25 62.75 15.4 62.8 15.7 62.1 16.0 62.0 16.0 60.9 16.3 60.85 16.3 59.7 16.45 59.4 16.5 58.4 16.65 57.25 16.8 56.7 16.85 55.2 17.05 55.15 17.05 53.25 17.35 53.1 17.4 Q51.95 17.95 50.75 18.2 L50.7 18.2 50.05 18.25 48.65 18.55 47.8 18.75 47.3 19.05 46.3 19.5 45.85 19.65 44.75 19.95 44.0 20.1 43.15 20.25 42.4 20.25 41.55 20.35 40.8 20.4 39.7 20.5 39.35 20.5 38.7 20.55 37.85 20.6 36.85 20.65 36.4 20.65 35.1 20.7 34.95 20.7 33.85 20.7 33.55 20.7 32.8 20.65 32.65 20.65 31.65 20.6 31.35 20.55 30.55 20.55 29.5 20.45 28.55 20.35 27.6 20.2 26.3 20.05 25.85 19.9 24.3 19.35 24.0 19.2 22.4 18.6 21.5 18.15 20.55 17.7 20.35 17.6 19.35 17.3 18.8 17.1 18.25 16.95 17.25 16.65 16.0 16.45 15.8 16.4 14.5 16.25 13.75 16.25 12.75 16.2 11.4 16.1 10.9 16.15 9.85 16.25 8.45 16.1 7.55 15.8 7.1 15.2 6.8 14.65 6.75 14.5 6.9 14.3 7.9 13.5 8.9 13.1 8.9 13.05 7.95 12.7 7.7 12.6 6.45 11.95 6.3 11.85 5.45 11.1 5.05 10.25 4.8 10.1 4.3 9.6 4.15 9.45 2.85 9.1 2.45 9.0 Q1.65 8.65 0.95 8.1 L0.9 8.05 0.75 7.65 0.7 7.6 M10.6 14.35 Q10.95 14.0 11.3 13.8 L12.8 13.35 14.3 13.6 14.85 13.9 15.05 14.15 15.05 14.55 14.85 15.0 14.55 15.2 11.4 15.15 10.85 14.85 10.6 14.4 M20.15 14.65 L20.4 14.15 22.85 14.95 23.7 15.45 25.1 16.4 25.2 16.4 26.0 16.6 26.7 16.9 26.7 16.9 26.85 17.25 26.85 17.55 26.7 18.0 26.45 18.25 26.05 18.35 25.15 18.5 24.1 18.3 23.05 17.7 22.2 17.05 21.0 16.05 20.75 15.9 20.35 15.4 20.2 15.1 20.15 15.0 20.15 14.65 20.15 14.6 M29.05 17.8 L29.25 17.4 Q30.4 17.15 31.25 17.1 L33.25 17.3 33.25 17.8 33.2 18.2 Q32.6 18.5 31.8 18.55 L30.55 18.55 29.5 18.3 29.15 17.8 29.1 17.75 M39.65 18.65 L40.2 17.7 Q41.25 18.3 41.5 18.6 L41.55 19.05 40.85 19.55 40.05 19.45 39.65 18.65 M49.4 16.25 Q49.75 15.75 50.6 15.5 51.5 15.45 52.3 15.5 51.1 16.25 49.8 16.5 L49.4 16.3 M54.6 15.4 L54.9 14.8 56.65 14.65 56.8 15.55 56.05 15.95 55.35 15.9 54.65 15.35 54.6 15.35 M57.2 12.8 Q57.25 12.35 58.1 12.3 L59.2 12.9 Q58.9 13.35 58.05 13.55 57.5 13.25 57.2 12.8 M61.15 10.35 Q61.6 9.95 62.1 9.65 L63.6 9.1 64.75 9.05 65.45 9.4 66.15 9.7 66.15 10.05 66.0 10.55 65.8 10.65 65.2 10.95 64.75 11.1 63.9 11.25 63.1 11.45 62.15 11.35 62.0 11.3 61.4 11.1 61.2 10.5 61.2 10.4 M67.25 8.9 L67.6 8.35 69.05 7.65 Q69.9 7.95 70.3 8.15 L70.35 8.6 70.35 8.85 Q69.9 9.7 68.85 9.8 68.1 9.85 67.65 9.55 L67.55 9.55 67.3 9.0 67.3 8.95" fill="none" stroke="#000000" stroke-linecap="round" stroke-linejoin="round" stroke-opacity="0.0" stroke-width="1.0"/>
    </g>
  </defs>
</svg>
