<?xml version="1.0" encoding="UTF-8" standalone="no"?>
<svg xmlns:xlink="http://www.w3.org/1999/xlink" height="21.55px" width="72.85px" xmlns="http://www.w3.org/2000/svg">
  <g transform="matrix(1.0, 0.0, 0.0, 1.0, -0.3, 0.55)">
    <use data-characterId="3364" height="21.55" transform="matrix(1.0, 0.0, 0.0, 1.0, 0.3, -0.55)" width="72.85" xlink:href="#morphshape0"/>
  </g>
  <defs>
    <g id="morphshape0" transform="matrix(1.0, 0.0, 0.0, 1.0, -0.3, 0.55)">
      <path d="M69.1 8.75 L69.1 8.85 69.25 9.3 69.3 9.4 Q69.6 9.9 70.3 9.9 71.3 9.85 71.45 8.75 L71.45 8.6 71.4 8.2 Q71.2 7.95 70.35 7.6 L69.2 8.3 69.05 8.8 M61.95 10.35 L61.95 10.35 62.2 11.1 63.1 11.25 63.3 11.25 64.5 11.2 65.5 10.9 66.5 10.7 67.05 10.6 67.85 10.25 68.15 10.15 68.3 9.5 68.3 9.1 67.35 8.9 66.35 8.6 64.95 8.8 63.15 9.55 Q62.55 9.9 62.0 10.35 M58.2 12.15 Q58.8 12.35 59.4 12.5 60.25 12.25 60.3 11.65 L58.75 11.35 Q57.85 11.45 58.15 12.15 M55.8 14.9 L55.8 14.9 56.6 15.7 57.25 15.8 58.05 15.4 57.95 14.45 56.25 14.35 55.75 14.95 M49.7 15.95 L50.15 16.1 Q51.85 15.9 53.45 14.95 52.4 15.0 51.35 15.0 50.2 15.3 49.7 15.95 M39.65 18.35 L39.95 19.15 40.6 19.4 41.5 19.05 41.55 18.7 Q41.5 18.3 40.3 17.45 L39.65 18.35 M28.05 17.8 L28.05 17.8 28.35 18.35 29.35 18.4 30.55 18.3 Q31.3 18.3 32.0 18.2 L32.0 17.8 32.0 17.3 30.1 17.25 Q29.2 17.25 28.2 17.3 L28.05 17.75 M19.25 14.85 L19.25 14.95 19.25 15.25 19.3 15.35 19.45 15.6 19.9 16.15 20.1 16.35 21.2 17.4 21.9 18.1 22.9 18.8 23.95 19.1 24.9 18.9 25.3 18.7 25.6 18.5 25.75 18.0 25.7 17.7 25.5 17.35 25.5 17.35 24.75 17.15 23.95 16.95 23.85 16.95 22.6 15.85 21.85 15.3 19.4 14.35 19.25 14.85 M10.6 14.15 L10.7 14.85 11.2 15.3 14.5 15.4 15.0 15.35 15.25 14.9 15.45 14.45 15.3 14.1 14.7 13.7 13.15 13.4 11.5 13.65 Q11.05 13.8 10.65 14.15 M0.55 7.85 L0.55 7.85 0.65 8.3 0.65 8.3 Q1.35 8.9 2.25 9.2 L2.65 9.3 4.05 9.6 4.3 9.7 5.25 10.0 5.5 10.1 5.8 11.0 6.6 11.8 6.7 11.9 8.0 12.65 8.3 12.75 9.25 13.1 9.3 13.1 8.4 13.4 7.3 14.1 7.1 14.3 7.2 14.5 7.4 15.15 7.75 15.9 8.65 16.25 10.1 16.4 11.2 16.2 11.75 16.15 13.15 16.35 14.2 16.4 14.95 16.4 16.35 16.6 16.55 16.7 17.85 17.05 18.95 17.5 19.5 17.7 20.05 17.95 21.05 18.45 21.25 18.55 22.25 18.95 23.25 19.4 25.0 19.9 25.3 20.0 26.95 20.5 27.45 20.6 28.8 20.6 29.8 20.65 30.8 20.7 31.85 20.75 32.75 20.7 33.05 20.7 34.1 20.65 34.3 20.65 35.1 20.65 35.4 20.65 36.6 20.55 36.7 20.55 38.1 20.45 38.55 20.45 39.65 20.35 40.55 20.3 41.25 20.25 41.6 20.25 42.8 20.15 43.6 20.05 44.5 19.95 45.25 19.95 46.15 19.75 46.95 19.6 48.15 19.2 48.6 19.0 49.6 18.35 50.05 18.0 50.9 17.75 52.3 17.55 53.0 17.55 53.1 17.55 Q54.4 17.3 55.7 16.95 L55.9 16.95 57.85 16.6 57.95 16.6 59.5 16.4 60.1 16.35 61.25 16.25 62.3 16.15 62.6 16.05 63.85 15.85 63.85 15.85 65.05 15.55 65.15 15.55 65.85 15.2 65.6 14.8 65.4 14.6 64.75 14.15 64.55 14.1 63.85 13.9 63.35 13.8 62.65 13.55 62.4 13.5 62.2 13.5 61.65 13.4 61.0 13.3 59.8 13.05 59.7 13.05 61.5 12.65 62.4 12.45 63.3 12.3 65.0 12.05 65.7 11.95 66.7 11.75 67.85 11.55 68.45 11.45 69.75 11.25 70.45 11.05 71.7 10.7 72.7 10.1 72.7 10.1 73.3 9.7 73.35 9.05 73.05 8.45 72.95 8.25 72.7 7.95 71.85 7.25 71.3 6.95 71.05 6.85 69.45 6.5 69.15 6.4 67.5 6.1 67.1 6.0 66.1 5.8 65.1 5.5 64.55 5.35 65.65 5.0 66.4 4.75 67.15 4.55 67.65 4.35 68.15 4.1 68.7 3.8 68.8 3.5 68.9 3.4 Q68.35 3.0 67.65 2.9 L67.35 2.9 65.25 2.55 65.15 2.55 62.9 2.3 62.05 2.15 61.45 2.05 60.25 1.95 59.95 1.95 58.85 1.85 58.45 1.85 57.35 1.65 56.95 1.65 56.25 1.55 55.65 1.45 54.85 1.3 53.65 1.1 53.35 1.05 51.85 0.8 51.75 0.8 50.45 0.7 50.05 0.7 49.15 0.6 48.45 0.55 47.95 0.45 47.65 0.4 46.85 0.35 45.7 0.25 45.2 0.2 43.4 0.1 43.0 0.1 40.65 0.1 40.05 0.0 39.4 -0.1 38.45 -0.05 36.8 -0.05 36.4 -0.05 34.5 0.0 34.05 0.0 33.35 0.0 32.85 0.0 31.45 0.0 30.35 0.1 30.05 0.1 28.65 0.15 28.1 0.15 27.2 0.2 26.4 0.2 25.6 0.25 25.2 0.25 23.95 0.25 23.45 0.25 22.75 0.35 22.15 0.4 21.5 0.4 20.9 0.5 20.8 0.5 19.55 0.5 18.85 0.5 17.95 0.5 16.95 0.5 16.2 0.5 14.95 0.45 14.55 0.45 12.85 0.55 12.75 0.55 11.3 0.75 11.2 0.75 9.9 0.9 9.85 0.9 8.4 1.25 7.9 1.4 7.25 1.7 7.15 1.7 7.25 1.95 Q7.8 2.25 8.35 2.55 L8.45 2.65 9.15 2.75 9.05 2.85 7.75 4.05 7.55 4.25 6.6 5.15 5.9 5.55 5.65 5.55 4.85 5.65 4.35 5.8 Q3.8 5.95 3.25 6.1 L2.85 6.2 2.0 6.6 1.25 7.1 0.95 7.3 0.5 7.75" fill="#ffffff" fill-opacity="0.61960787" fill-rule="evenodd" stroke="none"/>
      <path d="M0.5 7.75 L0.95 7.3 1.25 7.1 2.0 6.6 2.85 6.2 3.25 6.1 Q3.8 5.95 4.35 5.8 L4.85 5.65 5.65 5.55 5.9 5.55 6.6 5.15 7.55 4.25 7.75 4.05 9.05 2.85 9.15 2.75 8.45 2.65 8.35 2.55 Q7.8 2.25 7.25 1.95 L7.15 1.7 7.25 1.7 7.9 1.4 8.4 1.25 9.85 0.9 9.9 0.9 11.2 0.75 11.3 0.75 12.75 0.55 12.85 0.55 14.55 0.45 14.95 0.45 16.2 0.5 16.95 0.5 17.95 0.5 18.85 0.5 19.55 0.5 20.8 0.5 20.9 0.5 21.5 0.4 22.15 0.4 22.75 0.35 23.45 0.25 23.95 0.25 25.2 0.25 25.6 0.25 26.4 0.2 27.2 0.2 28.1 0.15 28.65 0.15 30.05 0.1 30.35 0.1 31.45 0.0 32.85 0.0 33.35 0.0 34.05 0.0 34.5 0.0 36.4 -0.05 36.8 -0.05 38.45 -0.05 39.4 -0.1 40.05 0.0 40.65 0.1 43.0 0.1 43.4 0.1 45.2 0.2 45.7 0.25 46.85 0.35 47.65 0.4 47.95 0.45 48.45 0.55 49.15 0.6 50.05 0.7 50.45 0.7 51.75 0.8 51.85 0.8 53.35 1.05 53.65 1.1 54.85 1.3 55.65 1.45 56.25 1.55 56.95 1.65 57.35 1.65 58.45 1.85 58.85 1.85 59.95 1.95 60.25 1.95 61.45 2.05 62.05 2.15 62.9 2.3 65.15 2.55 65.25 2.55 67.35 2.9 67.65 2.9 Q68.35 3.0 68.9 3.4 L68.8 3.5 68.7 3.8 68.15 4.1 67.65 4.35 67.15 4.55 66.4 4.75 65.65 5.0 64.55 5.35 65.1 5.5 66.1 5.8 67.1 6.0 67.5 6.1 69.15 6.4 69.45 6.5 71.05 6.85 71.3 6.95 71.85 7.25 72.7 7.95 72.95 8.25 73.05 8.45 73.35 9.05 73.3 9.7 72.7 10.1 72.7 10.1 71.7 10.7 70.45 11.05 69.75 11.25 68.45 11.45 67.85 11.55 66.7 11.75 65.7 11.95 65.0 12.05 63.3 12.3 62.4 12.45 61.5 12.65 59.7 13.05 59.8 13.05 61.0 13.3 61.65 13.4 62.2 13.5 62.4 13.5 62.65 13.55 63.35 13.8 63.85 13.9 64.55 14.1 64.75 14.15 65.4 14.6 65.6 14.8 65.85 15.2 65.15 15.55 65.05 15.55 63.85 15.85 63.85 15.85 62.6 16.05 62.3 16.15 61.25 16.25 60.1 16.35 59.5 16.4 57.95 16.6 57.85 16.6 55.9 16.95 55.7 16.95 Q54.4 17.3 53.1 17.55 L53.0 17.55 52.3 17.55 50.9 17.75 50.05 18.0 49.6 18.35 48.6 19.0 48.15 19.2 46.95 19.6 46.15 19.75 45.25 19.95 44.5 19.95 43.6 20.05 42.8 20.15 41.6 20.25 41.25 20.25 40.55 20.3 39.65 20.35 38.55 20.45 38.1 20.45 36.7 20.55 36.6 20.55 35.4 20.65 35.1 20.65 34.3 20.65 34.1 20.65 33.05 20.7 32.75 20.7 31.85 20.75 30.8 20.7 29.8 20.65 28.8 20.6 27.45 20.6 26.95 20.5 25.3 20.0 25.0 19.9 23.25 19.4 22.25 18.95 21.25 18.55 21.05 18.45 20.05 17.95 19.5 17.7 18.95 17.5 17.85 17.05 16.55 16.7 16.35 16.6 14.95 16.4 14.2 16.4 13.15 16.35 11.75 16.15 11.2 16.2 10.1 16.4 8.65 16.25 7.75 15.9 7.4 15.15 7.2 14.5 7.1 14.3 7.3 14.1 8.4 13.4 9.3 13.1 9.25 13.1 8.3 12.75 8.0 12.65 6.7 11.9 6.6 11.8 5.8 11.0 5.5 10.1 5.25 10.0 4.3 9.7 4.05 9.6 2.65 9.3 2.25 9.2 Q1.35 8.9 0.65 8.3 L0.65 8.3 0.55 7.85 0.55 7.85 M10.65 14.15 Q11.05 13.8 11.5 13.65 L13.15 13.4 14.7 13.7 15.3 14.1 15.45 14.45 15.25 14.9 15.0 15.35 14.5 15.4 11.2 15.3 10.7 14.85 10.6 14.15 M19.25 14.85 L19.4 14.35 21.85 15.3 22.6 15.85 23.85 16.95 23.95 16.95 24.75 17.15 25.5 17.35 25.5 17.35 25.7 17.7 25.75 18.0 25.6 18.5 25.3 18.7 24.9 18.9 23.95 19.1 22.9 18.8 21.9 18.1 21.2 17.4 20.1 16.35 19.9 16.15 19.45 15.6 19.3 15.35 19.25 15.25 19.25 14.95 19.25 14.85 M28.05 17.75 L28.2 17.3 Q29.2 17.25 30.1 17.25 L32.0 17.3 32.0 17.8 32.0 18.2 Q31.3 18.3 30.55 18.3 L29.35 18.4 28.35 18.35 28.05 17.8 28.05 17.8 M39.65 18.35 L40.3 17.45 Q41.5 18.3 41.55 18.7 L41.5 19.05 40.6 19.4 39.95 19.15 39.65 18.35 M49.7 15.95 Q50.2 15.3 51.35 15.0 52.4 15.0 53.45 14.95 51.85 15.9 50.15 16.1 L49.7 15.95 M55.75 14.95 L56.25 14.35 57.95 14.45 58.05 15.4 57.25 15.8 56.6 15.7 55.8 14.9 55.8 14.9 M58.15 12.15 Q57.85 11.45 58.75 11.35 L60.3 11.65 Q60.25 12.25 59.4 12.5 58.8 12.35 58.2 12.15 M62.0 10.35 Q62.55 9.9 63.15 9.55 L64.95 8.8 66.35 8.6 67.35 8.9 68.3 9.1 68.3 9.5 68.15 10.15 67.85 10.25 67.05 10.6 66.5 10.7 65.5 10.9 64.5 11.2 63.3 11.25 63.1 11.25 62.2 11.1 61.95 10.35 61.95 10.35 M69.05 8.8 L69.2 8.3 70.35 7.6 Q71.2 7.95 71.4 8.2 L71.45 8.6 71.45 8.75 Q71.3 9.85 70.3 9.9 69.6 9.9 69.3 9.4 L69.25 9.3 69.1 8.85 69.1 8.75" fill="none" stroke="#000000" stroke-linecap="round" stroke-linejoin="round" stroke-opacity="0.0" stroke-width="1.0"/>
    </g>
  </defs>
</svg>
