<?xml version="1.0" encoding="UTF-8" standalone="no"?>
<svg xmlns:xlink="http://www.w3.org/1999/xlink" height="21.55px" width="72.85px" xmlns="http://www.w3.org/2000/svg">
  <g transform="matrix(1.0, 0.0, 0.0, 1.0, -0.3, 0.55)">
    <use data-characterId="3364" height="21.55" transform="matrix(1.0, 0.0, 0.0, 1.0, 0.3, -0.55)" width="72.85" xlink:href="#morphshape0"/>
  </g>
  <defs>
    <g id="morphshape0" transform="matrix(1.0, 0.0, 0.0, 1.0, -0.3, 0.55)">
      <path d="M66.95 8.9 L66.95 8.95 67.25 9.5 67.4 9.5 Q67.9 9.75 68.65 9.7 69.7 9.6 70.2 8.8 L70.2 8.5 70.15 8.05 Q69.7 7.85 68.85 7.6 L67.3 8.3 66.9 8.9 M61.05 10.25 L61.05 10.35 61.25 10.95 61.8 11.2 61.95 11.25 62.85 11.35 63.6 11.2 64.4 11.05 64.8 10.9 65.4 10.6 65.6 10.5 65.75 10.0 65.75 9.7 65.1 9.4 64.45 9.05 63.35 9.1 61.9 9.65 Q61.45 9.95 61.0 10.35 M57.0 12.95 Q57.25 13.45 57.75 13.8 58.6 13.6 58.95 13.15 L57.95 12.45 Q57.1 12.5 57.0 12.9 M54.35 15.45 L54.4 15.45 55.1 15.95 55.8 16.0 56.55 15.6 56.4 14.7 54.65 14.9 54.35 15.5 M49.35 16.3 L49.7 16.55 Q50.95 16.3 52.1 15.55 51.35 15.5 50.45 15.55 49.7 15.8 49.35 16.3 M39.65 18.75 L40.1 19.55 40.95 19.6 41.6 19.1 41.5 18.6 Q41.2 18.3 40.15 17.75 L39.65 18.7 M29.25 17.75 L29.3 17.8 29.65 18.3 30.7 18.55 31.95 18.55 Q32.75 18.5 33.35 18.15 L33.4 17.75 33.4 17.25 31.4 17.05 Q30.6 17.1 29.45 17.4 L29.25 17.8 M20.25 14.65 L20.25 14.7 20.25 15.05 20.3 15.15 20.45 15.45 20.85 15.95 21.1 16.1 22.3 17.05 23.15 17.7 24.2 18.25 25.25 18.45 26.15 18.3 26.55 18.2 26.8 17.95 26.95 17.5 27.0 17.2 26.85 16.85 26.85 16.85 26.2 16.5 25.4 16.3 25.3 16.3 23.9 15.35 23.0 14.85 20.55 14.1 20.3 14.6 M10.55 14.4 L10.85 14.8 11.4 15.1 14.5 15.15 14.8 14.95 14.95 14.5 14.9 14.15 14.7 13.9 14.15 13.6 12.7 13.35 11.25 13.85 Q10.9 14.05 10.6 14.4 M1.05 7.7 L1.1 7.75 1.25 8.1 1.3 8.15 Q2.0 8.7 2.8 9.05 L3.2 9.15 4.5 9.5 4.6 9.65 5.0 10.15 5.25 10.3 5.7 11.15 6.55 11.9 6.7 12.0 7.95 12.6 8.2 12.7 9.15 13.05 9.1 13.1 8.1 13.5 7.1 14.3 6.95 14.5 7.0 14.65 7.3 15.2 7.8 15.8 8.7 16.1 10.05 16.25 11.1 16.15 11.6 16.1 12.95 16.2 13.9 16.25 14.65 16.25 15.95 16.35 16.15 16.4 17.4 16.6 18.4 16.9 18.95 17.05 19.5 17.2 20.5 17.45 20.7 17.55 21.65 18.0 22.55 18.45 24.1 19.05 24.4 19.2 25.9 19.75 26.35 19.9 27.65 20.05 28.6 20.2 29.55 20.3 30.6 20.4 31.4 20.45 31.7 20.5 32.7 20.55 32.85 20.55 33.6 20.6 33.9 20.6 35.0 20.6 35.15 20.6 36.45 20.55 36.9 20.55 37.9 20.5 38.75 20.45 39.4 20.4 39.75 20.4 40.85 20.3 41.6 20.25 42.45 20.15 43.2 20.15 44.05 20.0 44.8 19.85 45.9 19.55 46.35 19.4 47.35 18.95 47.9 18.7 48.75 18.5 50.15 18.2 50.8 18.15 50.85 18.15 Q52.0 17.9 53.15 17.3 L53.3 17.25 55.15 16.95 55.2 16.95 56.7 16.75 57.25 16.7 58.4 16.55 59.4 16.4 59.7 16.35 60.85 16.2 60.9 16.2 62.0 15.9 62.1 15.9 62.8 15.65 62.8 15.35 62.75 15.2 62.65 14.8 62.65 14.7 62.55 14.4 62.4 14.2 62.3 13.8 62.2 13.75 62.05 13.7 61.55 13.55 60.95 13.4 59.85 13.15 59.75 13.15 60.1 12.7 61.0 12.5 61.8 12.35 63.4 12.05 64.1 11.9 65.05 11.7 66.15 11.45 66.7 11.3 67.95 11.0 68.6 10.8 69.75 10.4 70.7 9.9 70.8 9.85 71.3 9.5 71.55 8.95 71.5 8.45 71.45 8.3 71.35 8.0 70.95 7.25 70.65 6.9 70.5 6.75 69.0 6.3 68.7 6.2 67.15 5.9 66.75 5.8 65.8 5.65 64.85 5.4 64.35 5.25 64.5 4.95 65.25 4.65 65.95 4.35 66.45 4.05 66.9 3.75 67.35 3.4 67.45 3.15 67.45 3.05 Q66.9 2.7 66.3 2.55 L66.05 2.55 64.0 2.2 63.9 2.2 61.7 1.95 60.9 1.8 60.3 1.7 59.2 1.55 58.9 1.55 57.9 1.45 57.5 1.45 56.5 1.3 56.1 1.25 55.45 1.15 54.9 1.05 54.1 0.9 53.0 0.75 52.7 0.7 51.25 0.45 51.2 0.45 49.95 0.35 49.55 0.35 48.7 0.25 48.05 0.2 47.55 0.1 47.3 0.05 46.55 0.0 45.45 -0.1 45.0 -0.15 43.25 -0.25 42.9 -0.25 40.65 -0.3 40.05 -0.35 39.4 -0.4 38.5 -0.35 36.9 -0.35 36.55 -0.35 34.75 -0.3 34.35 -0.3 33.65 -0.3 33.2 -0.3 31.8 -0.25 30.75 -0.2 30.5 -0.2 29.15 -0.15 28.6 -0.15 27.8 -0.1 27.05 -0.1 26.25 -0.05 25.9 -0.05 24.7 -0.05 24.2 -0.05 23.6 0.0 23.0 0.05 22.35 0.05 21.75 0.1 21.6 0.1 20.45 0.15 19.8 0.15 18.95 0.15 17.95 0.2 17.25 0.2 16.05 0.2 15.7 0.2 14.05 0.25 13.95 0.25 12.6 0.4 12.45 0.4 11.25 0.5 11.1 0.5 9.7 0.75 9.25 0.85 8.6 1.1 8.5 1.1 8.5 1.3 Q8.6 1.6 8.75 1.95 L8.75 2.05 8.9 2.35 8.8 2.45 7.55 3.6 7.35 3.85 6.45 4.8 5.9 5.3 5.7 5.35 4.95 5.5 4.45 5.7 Q3.9 5.85 3.4 6.05 L3.05 6.2 2.3 6.65 1.65 7.15 1.45 7.35 1.05 7.8" fill="#ffffff" fill-opacity="0.61960787" fill-rule="evenodd" stroke="none"/>
      <path d="M1.05 7.8 L1.45 7.35 1.65 7.15 2.3 6.65 3.05 6.2 3.4 6.05 Q3.9 5.85 4.45 5.7 L4.95 5.5 5.7 5.35 5.9 5.3 6.45 4.8 7.35 3.85 7.55 3.6 8.8 2.45 8.9 2.35 8.75 2.05 8.75 1.95 Q8.6 1.6 8.5 1.3 L8.5 1.1 8.6 1.1 9.25 0.85 9.7 0.75 11.1 0.5 11.25 0.5 12.45 0.4 12.6 0.4 13.95 0.25 14.05 0.25 15.7 0.2 16.05 0.2 17.25 0.2 17.95 0.2 18.95 0.15 19.8 0.15 20.45 0.15 21.6 0.1 21.75 0.1 22.35 0.05 23.0 0.05 23.6 0.0 24.2 -0.05 24.7 -0.05 25.9 -0.05 26.25 -0.05 27.05 -0.1 27.8 -0.1 28.6 -0.15 29.15 -0.15 30.5 -0.2 30.75 -0.2 31.8 -0.25 33.2 -0.3 33.65 -0.3 34.35 -0.3 34.75 -0.3 36.55 -0.35 36.9 -0.35 38.5 -0.35 39.4 -0.4 40.05 -0.35 40.65 -0.3 42.9 -0.25 43.25 -0.25 45.0 -0.15 45.45 -0.1 46.55 0.0 47.3 0.05 47.55 0.1 48.05 0.2 48.7 0.25 49.55 0.35 49.95 0.35 51.2 0.45 51.25 0.45 52.7 0.7 53.0 0.75 54.1 0.9 54.9 1.05 55.45 1.15 56.1 1.25 56.5 1.3 57.5 1.45 57.9 1.45 58.9 1.55 59.2 1.55 60.3 1.7 60.9 1.8 61.7 1.95 63.9 2.2 64.0 2.2 66.05 2.55 66.3 2.55 Q66.9 2.7 67.45 3.05 L67.45 3.15 67.35 3.4 66.9 3.75 66.45 4.05 65.95 4.35 65.25 4.65 64.5 4.95 64.35 5.25 64.85 5.4 65.8 5.65 66.75 5.8 67.15 5.9 68.7 6.2 69.0 6.3 70.5 6.75 70.65 6.9 70.95 7.25 71.35 8.0 71.45 8.3 71.5 8.45 71.55 8.95 71.3 9.5 70.8 9.85 70.7 9.9 69.75 10.4 68.6 10.8 67.95 11.0 66.7 11.3 66.15 11.45 65.05 11.7 64.1 11.9 63.4 12.05 61.8 12.35 61.0 12.5 60.1 12.7 59.75 13.15 59.85 13.15 60.95 13.4 61.55 13.55 62.05 13.7 62.2 13.75 62.3 13.8 62.4 14.2 62.55 14.4 62.65 14.7 62.65 14.8 62.75 15.2 62.8 15.35 62.8 15.65 62.1 15.9 62.0 15.9 60.9 16.2 60.85 16.2 59.7 16.35 59.4 16.4 58.4 16.55 57.25 16.7 56.7 16.75 55.2 16.95 55.15 16.95 53.3 17.25 53.15 17.3 Q52.0 17.9 50.85 18.15 L50.8 18.15 50.15 18.2 48.75 18.5 47.9 18.7 47.35 18.95 46.35 19.4 45.9 19.55 44.8 19.85 44.05 20.0 43.2 20.15 42.45 20.15 41.6 20.25 40.85 20.3 39.75 20.4 39.4 20.4 38.75 20.45 37.9 20.5 36.9 20.55 36.45 20.55 35.15 20.6 35.0 20.6 33.9 20.6 33.6 20.6 32.85 20.55 32.7 20.55 31.7 20.5 31.4 20.45 30.6 20.4 29.55 20.3 28.6 20.2 27.65 20.05 26.35 19.9 25.9 19.75 24.4 19.2 24.1 19.05 22.55 18.45 21.65 18.0 20.7 17.55 20.5 17.45 19.5 17.2 18.95 17.05 18.4 16.9 17.4 16.6 16.15 16.4 15.95 16.35 14.65 16.25 13.9 16.25 12.95 16.2 11.6 16.1 11.1 16.15 10.05 16.25 8.7 16.1 7.8 15.8 7.3 15.2 7.0 14.65 6.95 14.5 7.1 14.3 8.1 13.5 9.1 13.1 9.15 13.05 8.2 12.7 7.95 12.6 6.7 12.0 6.55 11.9 5.7 11.15 5.25 10.3 5.0 10.15 4.6 9.65 4.5 9.5 3.2 9.15 2.8 9.05 Q2.0 8.7 1.3 8.15 L1.25 8.1 1.1 7.75 1.05 7.7 M10.6 14.4 Q10.9 14.05 11.25 13.85 L12.7 13.35 14.15 13.6 14.7 13.9 14.9 14.15 14.95 14.5 14.8 14.95 14.5 15.15 11.4 15.1 10.85 14.8 10.55 14.4 M20.3 14.6 L20.55 14.1 23.0 14.85 23.9 15.35 25.3 16.3 25.4 16.3 26.2 16.5 26.85 16.85 26.85 16.85 27.0 17.2 26.95 17.5 26.8 17.95 26.55 18.2 26.15 18.3 25.25 18.45 24.2 18.25 23.15 17.7 22.3 17.05 21.1 16.1 20.85 15.95 20.45 15.45 20.3 15.15 20.25 15.05 20.25 14.7 20.25 14.65 M29.25 17.8 L29.45 17.4 Q30.6 17.1 31.4 17.05 L33.4 17.25 33.4 17.75 33.35 18.15 Q32.75 18.5 31.95 18.55 L30.7 18.55 29.65 18.3 29.3 17.8 29.25 17.75 M39.65 18.7 L40.15 17.75 Q41.2 18.3 41.5 18.6 L41.6 19.1 40.95 19.6 40.1 19.55 39.65 18.75 M49.35 16.3 Q49.7 15.8 50.45 15.55 51.35 15.5 52.1 15.55 50.95 16.3 49.7 16.55 L49.35 16.3 M54.35 15.5 L54.65 14.9 56.4 14.7 56.55 15.6 55.8 16.0 55.1 15.95 54.4 15.45 54.35 15.45 M57.0 12.9 Q57.1 12.5 57.95 12.45 L58.95 13.15 Q58.6 13.6 57.75 13.8 57.25 13.45 57.0 12.95 M61.0 10.35 Q61.45 9.95 61.9 9.65 L63.35 9.1 64.45 9.05 65.1 9.4 65.75 9.7 65.75 10.0 65.6 10.5 65.4 10.6 64.8 10.9 64.4 11.05 63.6 11.2 62.85 11.35 61.95 11.25 61.8 11.2 61.25 10.95 61.05 10.35 61.05 10.25 M66.9 8.9 L67.3 8.3 68.85 7.6 Q69.7 7.85 70.15 8.05 L70.2 8.5 70.2 8.8 Q69.7 9.6 68.65 9.7 67.9 9.75 67.4 9.5 L67.25 9.5 66.95 8.95 66.95 8.9" fill="none" stroke="#000000" stroke-linecap="round" stroke-linejoin="round" stroke-opacity="0.0" stroke-width="1.0"/>
    </g>
  </defs>
</svg>
