<?xml version="1.0" encoding="UTF-8" standalone="no"?>
<svg xmlns:xlink="http://www.w3.org/1999/xlink" height="21.55px" width="72.85px" xmlns="http://www.w3.org/2000/svg">
  <g transform="matrix(1.0, 0.0, 0.0, 1.0, -0.3, 0.55)">
    <use data-characterId="3363" height="21.55" transform="matrix(1.0, 0.0, 0.0, 1.0, 0.3, -0.55)" width="72.85" xlink:href="#morphshape0"/>
  </g>
  <defs>
    <g id="morphshape0" transform="matrix(1.0, 0.0, 0.0, 1.0, -0.3, 0.55)">
      <path d="M67.45 8.85 L67.45 8.9 67.7 9.4 67.8 9.45 Q68.25 9.8 69.0 9.75 70.05 9.65 70.45 8.8 L70.45 8.55 70.4 8.1 Q70.05 7.9 69.2 7.6 L67.8 8.3 67.5 8.85 M61.35 10.35 L61.35 10.4 61.55 11.05 62.2 11.25 62.35 11.3 63.35 11.35 64.15 11.15 65.0 11.0 65.45 10.85 66.1 10.55 66.35 10.45 66.5 9.9 66.5 9.55 65.8 9.3 65.05 8.95 63.85 9.05 62.3 9.65 Q61.8 9.95 61.3 10.35 M57.35 12.7 Q57.7 13.1 58.25 13.4 59.1 13.2 59.35 12.7 L58.2 12.15 Q57.35 12.2 57.35 12.7 M54.8 15.3 L55.55 15.9 56.25 15.95 57.0 15.55 56.85 14.65 55.1 14.75 54.75 15.35 M49.45 16.2 L49.85 16.4 Q51.2 16.15 52.5 15.35 51.7 15.35 50.75 15.4 49.85 15.65 49.45 16.2 M39.7 18.65 L40.1 19.45 40.9 19.55 41.6 19.1 41.55 18.65 Q41.3 18.3 40.2 17.65 L39.65 18.6 M28.85 17.8 L29.2 18.35 30.25 18.55 31.5 18.5 Q32.3 18.45 32.95 18.15 L33.0 17.75 33.0 17.25 31.05 17.1 Q30.2 17.15 29.1 17.4 L28.9 17.8 M20.0 14.65 L20.0 14.7 20.0 15.05 20.05 15.15 20.2 15.45 20.6 15.95 20.85 16.1 22.0 17.1 22.8 17.75 23.85 18.35 24.9 18.6 25.8 18.45 26.2 18.3 26.45 18.05 26.6 17.6 26.6 17.3 26.45 16.95 26.45 16.95 25.75 16.65 24.95 16.45 24.85 16.45 23.5 15.45 22.65 14.95 20.2 14.15 20.0 14.65 M10.6 14.3 L10.85 14.8 11.4 15.15 14.55 15.2 14.9 15.05 15.1 14.6 15.1 14.2 14.9 13.9 14.35 13.55 12.85 13.3 11.35 13.75 Q10.95 13.95 10.6 14.3 M0.75 7.65 L0.95 8.1 1.0 8.15 Q1.7 8.7 2.55 9.05 L2.95 9.15 4.3 9.5 4.45 9.65 5.0 10.1 5.25 10.25 5.65 11.1 6.5 11.85 6.65 11.95 7.9 12.6 8.15 12.7 9.1 13.05 9.1 13.1 8.15 13.45 7.1 14.2 6.95 14.4 7.0 14.55 7.25 15.15 7.7 15.8 8.6 16.1 10.0 16.25 11.05 16.1 11.55 16.05 12.9 16.2 13.9 16.25 14.65 16.25 16.0 16.4 16.2 16.45 17.45 16.7 18.5 17.05 19.05 17.2 19.6 17.4 20.6 17.7 20.8 17.8 21.75 18.25 22.7 18.7 24.3 19.25 24.6 19.4 26.15 19.95 26.6 20.1 27.9 20.2 28.85 20.3 29.8 20.4 30.85 20.5 31.7 20.5 32.0 20.55 33.0 20.55 33.15 20.55 33.9 20.6 34.2 20.6 35.35 20.55 35.5 20.55 36.85 20.5 37.3 20.5 38.35 20.45 39.2 20.4 39.85 20.35 40.2 20.35 41.35 20.25 42.1 20.2 42.95 20.1 43.7 20.1 44.55 19.95 45.3 19.8 46.45 19.45 46.9 19.3 47.9 18.8 48.4 18.5 49.25 18.3 50.65 18.05 51.3 18.0 51.35 18.0 Q52.55 17.75 53.75 17.25 L53.9 17.2 55.8 16.9 55.85 16.9 57.35 16.7 57.9 16.65 59.05 16.5 60.05 16.35 60.35 16.3 61.55 16.15 61.6 16.15 62.75 15.85 62.85 15.85 63.55 15.55 63.45 15.2 63.35 15.05 63.1 14.65 63.05 14.55 62.75 14.3 62.5 14.15 62.2 13.8 62.05 13.75 61.9 13.7 61.4 13.55 60.8 13.4 59.65 13.15 59.55 13.15 60.3 12.7 61.2 12.5 62.05 12.35 63.7 12.05 64.4 11.9 65.35 11.7 66.45 11.45 67.0 11.3 68.25 11.05 68.9 10.85 70.1 10.45 71.05 9.9 71.1 9.85 71.65 9.5 71.85 8.9 71.7 8.35 71.65 8.2 71.5 7.9 70.95 7.15 70.55 6.8 70.35 6.65 68.8 6.25 68.5 6.15 66.9 5.85 66.5 5.75 65.55 5.6 64.6 5.35 64.1 5.2 64.5 4.9 65.25 4.6 65.95 4.35 66.45 4.1 66.9 3.8 67.4 3.45 67.5 3.2 67.55 3.1 Q67.0 2.75 66.35 2.6 L66.1 2.6 64.05 2.25 63.95 2.25 61.75 2.0 60.95 1.85 60.35 1.75 59.2 1.6 58.9 1.6 57.85 1.5 57.45 1.5 56.4 1.35 56.0 1.3 55.35 1.2 54.8 1.1 54.0 0.95 52.85 0.8 52.55 0.75 51.1 0.5 51.05 0.5 49.8 0.4 49.4 0.4 48.55 0.3 47.9 0.25 47.4 0.15 47.15 0.1 46.4 0.05 45.3 -0.05 44.85 -0.1 43.1 -0.2 42.75 -0.2 40.45 -0.25 39.85 -0.3 39.2 -0.35 38.3 -0.3 36.7 -0.3 36.35 -0.3 34.5 -0.25 34.1 -0.25 33.4 -0.25 32.95 -0.25 31.55 -0.2 30.5 -0.15 30.25 -0.15 28.9 -0.1 28.35 -0.1 27.5 -0.05 26.75 -0.05 25.95 0.0 25.6 0.0 24.4 0.0 23.9 0.0 23.25 0.05 22.65 0.1 22.0 0.1 21.4 0.15 21.25 0.15 20.05 0.2 19.4 0.2 18.55 0.2 17.55 0.25 16.85 0.25 15.65 0.25 15.3 0.25 13.65 0.3 13.55 0.3 12.15 0.45 12.0 0.45 10.75 0.55 10.65 0.55 9.25 0.85 8.8 0.95 8.15 1.2 8.05 1.2 8.1 1.4 Q8.3 1.7 8.6 2.05 L8.65 2.15 8.95 2.4 8.85 2.5 7.6 3.65 7.4 3.9 6.5 4.85 5.9 5.3 5.7 5.35 4.95 5.5 4.45 5.7 Q3.9 5.85 3.4 6.05 L3.05 6.2 2.25 6.65 1.55 7.15 1.3 7.35 0.9 7.8" fill="#ffffff" fill-opacity="0.61960787" fill-rule="evenodd" stroke="none"/>
      <path d="M0.9 7.8 L1.3 7.35 1.55 7.15 2.25 6.65 3.05 6.2 3.4 6.05 Q3.9 5.85 4.45 5.7 L4.95 5.5 5.7 5.35 5.9 5.3 6.5 4.85 7.4 3.9 7.6 3.65 8.85 2.5 8.95 2.4 8.65 2.15 8.6 2.05 Q8.3 1.7 8.1 1.4 L8.05 1.2 8.15 1.2 8.8 0.95 9.25 0.85 10.65 0.55 10.75 0.55 12.0 0.45 12.15 0.45 13.55 0.3 13.65 0.3 15.3 0.25 15.65 0.25 16.85 0.25 17.55 0.25 18.55 0.2 19.4 0.2 20.05 0.2 21.25 0.15 21.4 0.15 22.0 0.1 22.65 0.1 23.25 0.05 23.9 0.0 24.4 0.0 25.6 0.0 25.95 0.0 26.75 -0.05 27.5 -0.05 28.35 -0.1 28.9 -0.1 30.25 -0.15 30.5 -0.15 31.55 -0.2 32.95 -0.25 33.4 -0.25 34.1 -0.25 34.5 -0.25 36.35 -0.3 36.7 -0.3 38.3 -0.3 39.2 -0.35 39.85 -0.3 40.45 -0.25 42.75 -0.2 43.1 -0.2 44.85 -0.1 45.3 -0.05 46.4 0.05 47.15 0.1 47.4 0.15 47.9 0.25 48.55 0.3 49.4 0.4 49.8 0.4 51.05 0.5 51.1 0.5 52.55 0.75 52.85 0.8 54.0 0.95 54.8 1.1 55.35 1.2 56.0 1.3 56.4 1.35 57.45 1.5 57.85 1.5 58.9 1.6 59.2 1.6 60.35 1.75 60.95 1.85 61.75 2.0 63.95 2.25 64.05 2.25 66.1 2.6 66.35 2.6 Q67.0 2.75 67.55 3.1 L67.5 3.2 67.4 3.45 66.9 3.8 66.45 4.1 65.95 4.35 65.25 4.6 64.5 4.9 64.1 5.2 64.6 5.35 65.55 5.6 66.5 5.75 66.9 5.85 68.5 6.15 68.8 6.25 70.35 6.65 70.55 6.8 70.95 7.15 71.5 7.9 71.65 8.2 71.7 8.35 71.85 8.9 71.65 9.5 71.1 9.85 71.05 9.9 70.1 10.45 68.9 10.85 68.25 11.05 67.0 11.3 66.45 11.45 65.35 11.7 64.4 11.9 63.7 12.05 62.05 12.35 61.2 12.5 60.3 12.7 59.55 13.15 59.65 13.15 60.8 13.4 61.4 13.55 61.9 13.7 62.05 13.75 62.2 13.8 62.5 14.15 62.75 14.3 63.05 14.55 63.1 14.65 63.35 15.05 63.45 15.2 63.55 15.55 62.85 15.85 62.75 15.85 61.6 16.15 61.55 16.15 60.35 16.3 60.05 16.35 59.05 16.5 57.9 16.65 57.35 16.7 55.85 16.9 55.8 16.9 53.9 17.2 53.75 17.25 Q52.55 17.75 51.35 18.0 L51.3 18.0 50.65 18.05 49.25 18.3 48.4 18.5 47.9 18.8 46.9 19.3 46.45 19.45 45.3 19.8 44.55 19.95 43.7 20.1 42.95 20.1 42.1 20.2 41.35 20.25 40.2 20.35 39.85 20.35 39.2 20.4 38.35 20.45 37.3 20.5 36.85 20.5 35.5 20.55 35.35 20.55 34.2 20.6 33.9 20.6 33.15 20.55 33.0 20.55 32.0 20.55 31.7 20.5 30.85 20.5 29.8 20.4 28.85 20.3 27.9 20.2 26.6 20.1 26.15 19.95 24.6 19.4 24.3 19.25 22.7 18.7 21.75 18.25 20.8 17.8 20.6 17.7 19.6 17.4 19.05 17.2 18.5 17.05 17.45 16.7 16.2 16.45 16.0 16.4 14.65 16.25 13.9 16.25 12.9 16.2 11.55 16.05 11.05 16.1 10.0 16.25 8.6 16.1 7.7 15.8 7.25 15.15 7.0 14.55 6.95 14.4 7.1 14.2 8.15 13.45 9.1 13.1 9.1 13.05 8.15 12.7 7.9 12.6 6.65 11.95 6.5 11.85 5.65 11.1 5.25 10.25 5.0 10.1 4.45 9.65 4.3 9.5 2.95 9.15 2.55 9.05 Q1.7 8.7 1.0 8.15 L0.95 8.1 0.75 7.65 M10.6 14.3 Q10.95 13.95 11.35 13.75 L12.85 13.3 14.35 13.55 14.9 13.9 15.1 14.2 15.1 14.6 14.9 15.05 14.55 15.2 11.4 15.15 10.85 14.8 10.6 14.3 M20.0 14.65 L20.2 14.15 22.65 14.95 23.5 15.45 24.85 16.45 24.95 16.45 25.75 16.65 26.45 16.95 26.45 16.95 26.6 17.3 26.6 17.6 26.45 18.05 26.2 18.3 25.8 18.45 24.9 18.6 23.85 18.35 22.8 17.75 22.0 17.1 20.85 16.1 20.6 15.95 20.2 15.45 20.05 15.15 20.0 15.05 20.0 14.7 20.0 14.65 M28.9 17.8 L29.1 17.4 Q30.2 17.15 31.05 17.1 L33.0 17.25 33.0 17.75 32.95 18.15 Q32.3 18.45 31.5 18.5 L30.25 18.55 29.2 18.35 28.85 17.8 M39.65 18.6 L40.2 17.65 Q41.3 18.3 41.55 18.65 L41.6 19.1 40.9 19.55 40.1 19.45 39.7 18.65 M49.45 16.2 Q49.85 15.65 50.75 15.4 51.7 15.35 52.5 15.35 51.2 16.15 49.85 16.4 L49.45 16.2 M54.75 15.35 L55.1 14.75 56.85 14.65 57.0 15.55 56.25 15.95 55.55 15.9 54.8 15.3 M57.35 12.7 Q57.35 12.2 58.2 12.15 L59.35 12.7 Q59.1 13.2 58.25 13.4 57.7 13.1 57.35 12.7 M61.3 10.35 Q61.8 9.95 62.3 9.65 L63.85 9.05 65.05 8.95 65.8 9.3 66.5 9.55 66.5 9.9 66.35 10.45 66.1 10.55 65.45 10.85 65.0 11.0 64.15 11.15 63.35 11.35 62.35 11.3 62.2 11.25 61.55 11.05 61.35 10.4 61.35 10.35 M67.5 8.85 L67.8 8.3 69.2 7.6 Q70.05 7.9 70.4 8.1 L70.45 8.55 70.45 8.8 Q70.05 9.65 69.0 9.75 68.25 9.8 67.8 9.45 L67.7 9.4 67.45 8.9 67.45 8.85" fill="none" stroke="#000000" stroke-linecap="round" stroke-linejoin="round" stroke-opacity="0.0" stroke-width="1.0"/>
    </g>
  </defs>
</svg>
