<?xml version="1.0" encoding="UTF-8" standalone="no"?>
<svg xmlns:xlink="http://www.w3.org/1999/xlink" height="21.55px" width="72.85px" xmlns="http://www.w3.org/2000/svg">
  <g transform="matrix(1.0, 0.0, 0.0, 1.0, -0.3, 0.55)">
    <use data-characterId="3364" height="21.55" transform="matrix(1.0, 0.0, 0.0, 1.0, 0.3, -0.55)" width="72.85" xlink:href="#morphshape0"/>
  </g>
  <defs>
    <g id="morphshape0" transform="matrix(1.0, 0.0, 0.0, 1.0, -0.3, 0.55)">
      <path d="M66.5 9.0 L66.5 9.05 66.8 9.65 66.95 9.65 Q67.5 9.85 68.25 9.75 69.35 9.6 69.95 8.9 L70.0 8.6 69.95 8.1 Q69.45 7.9 68.6 7.65 L67.0 8.35 66.55 8.95 M60.8 10.35 L60.8 10.45 60.95 11.0 61.45 11.25 61.6 11.3 62.45 11.45 63.15 11.3 63.9 11.2 64.3 11.05 64.85 10.8 65.05 10.7 65.2 10.25 65.2 9.95 64.65 9.6 64.05 9.2 63.0 9.2 61.65 9.7 Q61.2 10.0 60.8 10.35 M56.8 13.1 Q56.95 13.65 57.45 14.05 58.35 13.85 58.75 13.45 L57.85 12.7 Q57.0 12.7 56.8 13.05 M54.15 15.6 L54.2 15.6 54.9 16.05 55.6 16.05 56.3 15.65 56.1 14.8 54.35 15.05 54.1 15.6 M49.25 16.4 L49.6 16.65 Q50.75 16.35 51.8 15.65 51.15 15.6 50.3 15.7 49.6 15.95 49.3 16.4 M39.65 18.75 L40.1 19.6 41.0 19.6 41.6 19.05 41.5 18.55 Q41.15 18.3 40.15 17.8 L39.65 18.8 M29.4 17.85 L29.45 17.9 29.85 18.4 30.9 18.7 32.2 18.7 Q33.05 18.6 33.6 18.2 L33.7 17.75 33.65 17.25 31.65 17.0 Q30.85 17.05 29.65 17.4 L29.45 17.8 M20.55 14.55 L20.55 14.6 20.6 14.95 20.6 15.05 20.75 15.4 21.1 15.9 21.35 16.05 22.55 17.0 23.45 17.6 24.5 18.15 25.5 18.35 26.4 18.25 26.8 18.15 27.05 17.9 27.25 17.45 27.3 17.15 27.2 16.75 27.2 16.7 26.55 16.35 25.7 16.15 25.6 16.15 24.15 15.25 23.25 14.8 20.75 14.1 20.5 14.55 M10.55 14.4 L10.9 14.75 11.45 15.0 14.5 15.0 14.75 14.75 14.9 14.35 14.8 14.0 14.55 13.8 14.0 13.55 12.55 13.3 11.15 13.85 Q10.85 14.1 10.55 14.45 M0.8 7.95 L0.9 8.0 1.1 8.35 1.15 8.4 Q1.85 8.9 2.65 9.25 L3.05 9.35 4.35 9.7 4.45 9.85 4.75 10.4 4.95 10.6 5.4 11.45 6.3 12.15 6.45 12.25 7.7 12.85 7.95 12.95 8.85 13.25 8.8 13.3 7.8 13.7 6.85 14.55 6.75 14.8 6.8 14.95 7.1 15.5 7.6 16.05 8.5 16.3 9.85 16.5 10.85 16.4 11.3 16.4 12.65 16.5 13.6 16.5 14.3 16.5 15.6 16.6 15.8 16.65 17.05 16.8 18.05 17.05 18.65 17.15 19.15 17.3 20.15 17.5 20.35 17.6 21.3 18.05 22.2 18.55 23.7 19.15 24.0 19.3 25.5 19.9 25.95 20.05 27.2 20.25 28.1 20.45 29.0 20.6 30.0 20.75 30.8 20.8 31.15 20.85 32.1 20.95 32.25 20.95 33.0 21.0 33.3 21.0 34.4 21.0 34.55 21.0 35.85 20.95 36.35 20.95 37.35 20.9 38.2 20.85 38.85 20.85 39.25 20.85 40.35 20.75 41.1 20.7 41.9 20.65 42.6 20.65 43.45 20.5 44.2 20.4 45.3 20.15 45.7 20.05 46.7 19.65 47.25 19.4 48.05 19.2 49.4 18.85 50.05 18.75 50.1 18.75 Q51.25 18.5 52.35 17.85 L52.5 17.8 54.35 17.55 54.4 17.55 55.9 17.35 56.45 17.25 57.55 17.1 58.5 16.95 58.8 16.9 59.95 16.75 60.0 16.75 61.1 16.45 61.2 16.45 61.85 16.2 61.9 15.95 61.9 15.8 61.9 15.4 61.95 15.25 61.95 14.95 61.9 14.75 61.9 14.35 61.8 14.25 61.65 14.2 61.2 14.0 60.65 13.8 59.55 13.55 59.45 13.55 59.55 13.1 60.4 12.9 61.2 12.8 62.8 12.45 63.5 12.3 64.4 12.1 65.45 11.85 66.0 11.7 67.25 11.4 67.9 11.2 69.05 10.75 69.95 10.25 70.05 10.2 70.55 9.9 70.85 9.35 70.85 8.9 70.85 8.75 70.75 8.45 70.4 7.65 70.15 7.25 70.05 7.1 68.55 6.65 68.25 6.55 66.7 6.25 66.3 6.15 65.35 6.0 64.4 5.75 63.95 5.65 63.95 5.35 64.65 5.0 65.3 4.7 65.75 4.4 66.2 4.05 66.65 3.7 66.8 3.45 66.8 3.4 Q66.25 3.1 65.65 2.95 L65.4 2.95 63.4 2.55 63.3 2.55 61.15 2.25 60.4 2.15 59.8 2.1 58.7 1.95 58.4 1.95 57.4 1.85 57.0 1.8 56.0 1.65 55.6 1.6 54.95 1.5 54.4 1.4 53.6 1.3 52.5 1.15 52.2 1.1 50.75 0.85 50.7 0.85 49.45 0.7 49.05 0.7 48.2 0.6 47.55 0.55 47.05 0.45 46.8 0.45 46.05 0.4 45.0 0.3 44.55 0.3 42.85 0.15 42.5 0.15 40.3 0.05 39.75 0.0 39.15 -0.05 38.3 -0.05 36.75 -0.1 36.4 -0.1 34.6 -0.1 34.25 -0.1 33.55 -0.15 33.1 -0.1 31.75 -0.05 30.7 0.0 30.45 0.0 29.1 0.05 28.6 0.05 27.8 0.1 27.05 0.1 26.25 0.15 25.95 0.15 24.8 0.15 24.3 0.15 23.7 0.2 23.1 0.25 22.5 0.25 21.9 0.3 21.75 0.3 20.6 0.35 19.95 0.35 19.1 0.35 18.15 0.4 17.5 0.4 16.3 0.4 15.95 0.4 14.35 0.45 14.25 0.45 12.9 0.55 12.75 0.55 11.55 0.6 11.4 0.6 10.05 0.85 9.6 0.95 8.9 1.2 8.8 1.2 8.8 1.35 Q8.8 1.65 8.9 2.0 L8.9 2.1 8.95 2.45 8.85 2.55 7.65 3.65 7.4 3.9 6.5 4.85 5.95 5.35 5.8 5.45 5.05 5.6 4.55 5.8 Q4.0 5.95 3.5 6.2 L3.15 6.35 2.4 6.8 1.75 7.3 1.55 7.45 1.15 7.85" fill="#ffffff" fill-opacity="0.61960787" fill-rule="evenodd" stroke="none"/>
      <path d="M1.15 7.85 L1.55 7.45 1.75 7.3 2.4 6.8 3.15 6.35 3.5 6.2 Q4.0 5.95 4.55 5.8 L5.05 5.6 5.8 5.45 5.95 5.35 6.5 4.85 7.4 3.9 7.65 3.65 8.85 2.55 8.95 2.45 8.9 2.1 8.9 2.0 Q8.8 1.65 8.8 1.35 L8.8 1.2 8.9 1.2 9.6 0.95 10.05 0.85 11.4 0.6 11.55 0.6 12.75 0.55 12.9 0.55 14.25 0.45 14.35 0.45 15.95 0.4 16.3 0.4 17.5 0.4 18.15 0.4 19.1 0.35 19.95 0.35 20.6 0.35 21.75 0.3 21.9 0.3 22.5 0.25 23.1 0.25 23.7 0.2 24.3 0.15 24.8 0.15 25.95 0.15 26.25 0.15 27.05 0.1 27.8 0.1 28.6 0.05 29.1 0.05 30.45 0.0 30.7 0.0 31.75 -0.05 33.1 -0.1 33.55 -0.15 34.25 -0.1 34.6 -0.1 36.4 -0.1 36.75 -0.1 38.3 -0.05 39.15 -0.05 39.75 0.0 40.3 0.05 42.5 0.15 42.85 0.15 44.55 0.3 45.0 0.3 46.05 0.4 46.8 0.45 47.05 0.45 47.55 0.55 48.2 0.6 49.05 0.7 49.45 0.7 50.7 0.85 50.75 0.85 52.2 1.1 52.5 1.15 53.6 1.3 54.4 1.4 54.95 1.5 55.6 1.6 56.0 1.65 57.0 1.8 57.4 1.85 58.4 1.95 58.7 1.95 59.8 2.1 60.4 2.15 61.15 2.25 63.3 2.55 63.4 2.55 65.4 2.95 65.65 2.95 Q66.25 3.1 66.8 3.4 L66.8 3.45 66.65 3.7 66.2 4.05 65.75 4.4 65.3 4.7 64.65 5.0 63.95 5.35 63.95 5.65 64.4 5.75 65.35 6.0 66.3 6.15 66.7 6.25 68.25 6.55 68.55 6.65 70.05 7.1 70.15 7.25 70.4 7.65 70.75 8.45 70.85 8.75 70.85 8.9 70.85 9.35 70.55 9.9 70.05 10.2 69.95 10.25 69.05 10.75 67.9 11.2 67.25 11.4 66.0 11.7 65.45 11.85 64.4 12.1 63.5 12.3 62.8 12.45 61.2 12.8 60.4 12.9 59.55 13.1 59.45 13.55 59.55 13.55 60.65 13.8 61.2 14.0 61.65 14.2 61.8 14.25 61.9 14.35 61.9 14.75 61.95 14.95 61.95 15.25 61.9 15.4 61.9 15.8 61.9 15.95 61.85 16.2 61.2 16.45 61.1 16.45 60.0 16.75 59.95 16.75 58.8 16.9 58.5 16.95 57.55 17.1 56.45 17.25 55.9 17.35 54.4 17.55 54.35 17.55 52.5 17.8 52.35 17.85 Q51.25 18.5 50.1 18.75 L50.05 18.75 49.4 18.85 48.05 19.2 47.25 19.4 46.7 19.65 45.7 20.05 45.3 20.15 44.2 20.4 43.45 20.5 42.6 20.65 41.9 20.65 41.1 20.7 40.35 20.75 39.25 20.85 38.85 20.85 38.2 20.85 37.35 20.9 36.35 20.95 35.85 20.95 34.55 21.0 34.4 21.0 33.3 21.0 33.0 21.0 32.25 20.95 32.1 20.95 31.15 20.85 30.8 20.8 30.0 20.75 29.0 20.6 28.1 20.45 27.2 20.25 25.95 20.05 25.5 19.9 24.0 19.3 23.7 19.15 22.2 18.55 21.3 18.05 20.35 17.6 20.15 17.5 19.15 17.3 18.65 17.15 18.05 17.05 17.05 16.8 15.8 16.65 15.6 16.6 14.3 16.5 13.6 16.5 12.65 16.5 11.3 16.4 10.85 16.4 9.85 16.5 8.5 16.3 7.6 16.05 7.1 15.5 6.8 14.95 6.75 14.8 6.85 14.55 7.8 13.7 8.8 13.3 8.85 13.25 7.95 12.95 7.7 12.85 6.45 12.25 6.3 12.15 5.4 11.45 4.95 10.6 4.75 10.4 4.45 9.85 4.35 9.7 3.05 9.35 2.65 9.25 Q1.85 8.9 1.15 8.4 L1.1 8.35 0.9 8.0 0.8 7.95 M10.55 14.45 Q10.85 14.1 11.15 13.85 L12.55 13.3 14.0 13.55 14.55 13.8 14.8 14.0 14.9 14.35 14.75 14.75 14.5 15.0 11.45 15.0 10.9 14.75 10.55 14.4 M20.5 14.55 L20.75 14.1 23.25 14.8 24.15 15.25 25.6 16.15 25.7 16.15 26.55 16.35 27.2 16.7 27.2 16.75 27.3 17.15 27.25 17.45 27.05 17.9 26.8 18.15 26.4 18.25 25.5 18.35 24.5 18.15 23.45 17.6 22.55 17.0 21.35 16.05 21.1 15.9 20.75 15.4 20.6 15.05 20.6 14.95 20.55 14.6 20.55 14.55 M29.45 17.8 L29.65 17.4 Q30.85 17.05 31.65 17.0 L33.65 17.25 33.7 17.75 33.6 18.2 Q33.05 18.6 32.2 18.7 L30.9 18.7 29.85 18.4 29.45 17.9 29.4 17.85 M39.65 18.8 L40.15 17.8 Q41.15 18.3 41.5 18.55 L41.6 19.05 41.0 19.6 40.1 19.6 39.65 18.75 M49.3 16.4 Q49.6 15.95 50.3 15.7 51.15 15.6 51.8 15.65 50.75 16.35 49.6 16.65 L49.25 16.4 M54.1 15.6 L54.35 15.05 56.1 14.8 56.3 15.65 55.6 16.05 54.9 16.05 54.2 15.6 54.15 15.6 M56.8 13.05 Q57.0 12.7 57.85 12.7 L58.75 13.45 Q58.35 13.85 57.45 14.05 56.95 13.65 56.8 13.1 M60.8 10.35 Q61.2 10.0 61.65 9.7 L63.0 9.2 64.05 9.2 64.65 9.6 65.2 9.95 65.2 10.25 65.05 10.7 64.85 10.8 64.3 11.05 63.9 11.2 63.15 11.3 62.45 11.45 61.6 11.3 61.45 11.25 60.95 11.0 60.8 10.45 60.8 10.35 M66.55 8.95 L67.0 8.35 68.6 7.65 Q69.45 7.9 69.95 8.1 L70.0 8.6 69.95 8.9 Q69.35 9.6 68.25 9.75 67.5 9.85 66.95 9.65 L66.8 9.65 66.5 9.05 66.5 9.0" fill="none" stroke="#000000" stroke-linecap="round" stroke-linejoin="round" stroke-opacity="0.0" stroke-width="1.0"/>
    </g>
  </defs>
</svg>
