<?xml version="1.0" encoding="UTF-8" standalone="no"?>
<svg xmlns:xlink="http://www.w3.org/1999/xlink" height="21.55px" width="72.85px" xmlns="http://www.w3.org/2000/svg">
  <g transform="matrix(1.0, 0.0, 0.0, 1.0, -0.3, 0.55)">
    <use data-characterId="3364" height="21.55" transform="matrix(1.0, 0.0, 0.0, 1.0, 0.3, -0.55)" width="72.85" xlink:href="#morphshape0"/>
  </g>
  <defs>
    <g id="morphshape0" transform="matrix(1.0, 0.0, 0.0, 1.0, -0.3, 0.55)">
      <path d="M64.4 9.1 L64.4 9.1 64.85 9.8 65.1 9.75 Q65.8 9.7 66.6 9.55 67.75 9.35 68.7 8.95 L68.75 8.5 68.7 7.95 Q67.95 7.8 67.1 7.65 L65.1 8.35 64.4 9.05 M59.8 10.3 L59.8 10.45 59.9 10.85 60.05 11.2 60.15 11.3 60.75 11.6 61.25 11.6 61.75 11.55 62.0 11.35 62.35 11.15 62.5 11.05 62.65 10.75 62.65 10.55 62.4 10.1 62.15 9.65 61.4 9.5 60.4 9.8 Q60.1 10.05 59.8 10.35 M55.65 13.8 Q55.45 14.65 55.85 15.3 56.75 15.15 57.45 14.9 L57.05 13.75 Q56.25 13.7 55.65 13.8 M52.6 16.2 L52.7 16.2 53.35 16.35 54.1 16.3 54.75 15.9 54.5 15.1 52.7 15.6 52.65 16.15 M48.9 16.7 L49.15 17.05 Q49.85 16.7 50.45 16.2 50.1 16.1 49.4 16.25 49.1 16.45 48.95 16.75 M39.65 19.1 L40.25 19.95 41.3 19.8 41.7 19.1 41.45 18.45 Q40.85 18.3 40.0 18.1 L39.65 19.15 M30.55 17.9 L30.65 18.0 31.1 18.45 32.2 18.95 33.55 19.0 Q34.45 18.85 34.9 18.2 L35.05 17.75 35.0 17.25 32.95 16.85 Q32.25 16.95 30.9 17.5 L30.65 17.85 M21.55 14.45 L21.55 14.45 21.6 14.85 21.6 14.95 21.75 15.35 22.05 15.8 22.35 15.9 23.6 16.75 24.65 17.3 25.75 17.7 26.75 17.85 27.6 17.8 28.0 17.75 28.2 17.45 28.4 17.05 28.55 16.75 28.5 16.35 28.5 16.3 27.95 15.8 27.1 15.6 27.0 15.6 25.4 14.85 24.35 14.45 21.85 13.9 21.55 14.35 M10.45 14.65 L11.05 14.75 11.65 14.85 14.45 14.8 14.5 14.4 14.55 14.0 14.2 13.75 13.9 13.65 13.4 13.5 12.05 13.3 10.9 14.05 Q10.7 14.35 10.5 14.7 M1.1 7.55 L1.25 7.65 1.5 7.9 1.6 8.0 Q2.3 8.45 3.05 8.85 L3.45 8.95 4.7 9.35 4.65 9.55 4.45 10.3 4.65 10.55 5.25 11.35 6.2 12.0 6.4 12.1 7.6 12.55 7.8 12.65 8.7 12.95 8.55 13.05 7.5 13.5 6.65 14.45 6.6 14.7 6.6 14.8 6.95 15.3 7.6 15.7 8.5 15.9 9.75 16.1 10.7 16.05 11.1 16.05 12.4 16.1 13.25 16.1 13.95 16.1 15.2 16.1 15.4 16.1 16.6 16.1 17.55 16.2 18.15 16.25 18.65 16.3 19.65 16.3 19.85 16.4 20.75 16.9 21.6 17.4 22.95 18.05 23.25 18.25 24.6 18.9 25.0 19.1 26.2 19.45 27.05 19.75 27.9 19.95 28.9 20.15 29.65 20.3 30.0 20.4 30.9 20.6 31.0 20.6 31.7 20.7 32.0 20.7 33.05 20.75 33.25 20.75 34.5 20.75 35.0 20.75 35.95 20.75 36.75 20.7 37.35 20.7 37.75 20.7 38.8 20.6 39.5 20.6 40.25 20.55 40.95 20.55 41.75 20.45 42.45 20.35 43.5 20.2 43.9 20.15 44.9 19.95 45.55 19.8 46.35 19.65 47.7 19.2 48.3 19.05 48.3 19.05 Q49.3 18.8 50.25 17.9 L50.35 17.8 52.1 17.6 52.1 17.6 53.55 17.4 54.05 17.3 55.15 17.1 56.05 16.9 56.35 16.9 57.45 16.8 57.55 16.8 58.6 16.5 58.7 16.5 59.35 16.35 59.65 16.2 59.8 16.1 60.3 15.75 60.6 15.55 61.15 15.2 61.45 14.95 62.0 14.4 62.05 14.3 61.95 14.2 61.55 13.95 61.05 13.7 60.0 13.45 59.9 13.45 58.6 12.95 59.45 12.75 60.2 12.65 61.75 12.25 62.45 12.05 63.3 11.85 64.3 11.55 64.8 11.35 66.0 11.0 66.6 10.8 67.65 10.3 68.5 9.85 68.65 9.75 69.1 9.5 69.6 9.0 69.85 8.65 69.9 8.55 69.95 8.25 70.05 7.4 70.05 6.95 70.05 6.75 68.6 6.25 68.3 6.15 66.8 5.85 66.4 5.75 65.5 5.65 64.6 5.45 64.2 5.35 63.25 5.1 63.95 4.7 64.55 4.35 65.0 4.0 65.4 3.6 65.75 3.2 65.9 3.0 65.85 2.95 Q65.3 2.7 64.75 2.5 L64.55 2.5 62.6 2.1 62.5 2.1 60.4 1.8 59.7 1.7 59.1 1.65 58.05 1.45 57.75 1.45 56.8 1.35 56.4 1.3 55.45 1.2 55.05 1.1 54.45 1.0 53.95 0.9 53.15 0.8 52.1 0.7 51.8 0.65 50.4 0.4 50.4 0.4 49.2 0.25 48.8 0.25 48.0 0.15 47.4 0.1 46.9 0.0 46.7 0.0 46.0 -0.05 45.0 -0.15 44.6 -0.15 42.95 -0.3 42.65 -0.3 40.55 -0.45 40.0 -0.45 39.4 -0.45 38.6 -0.45 37.1 -0.5 36.8 -0.5 35.05 -0.5 34.75 -0.5 34.05 -0.55 33.65 -0.5 32.3 -0.4 31.3 -0.4 31.1 -0.4 29.8 -0.35 29.3 -0.35 28.55 -0.3 27.85 -0.3 27.05 -0.25 26.8 -0.25 25.7 -0.25 25.2 -0.25 24.7 -0.25 24.1 -0.2 23.5 -0.2 22.9 -0.2 22.7 -0.2 21.6 -0.1 21.0 -0.1 20.2 -0.1 19.25 0.0 18.65 0.0 17.5 0.05 17.2 0.05 15.65 0.05 15.55 0.05 14.25 0.1 14.05 0.1 12.9 0.1 12.65 0.1 11.35 0.3 10.95 0.35 10.25 0.55 10.15 0.55 10.1 0.65 Q9.65 0.95 9.35 1.35 L9.3 1.45 8.8 2.05 8.7 2.15 7.55 3.2 7.3 3.5 6.45 4.5 6.05 5.1 5.95 5.25 5.25 5.45 4.75 5.7 Q4.2 5.85 3.75 6.15 L3.45 6.35 2.8 6.85 2.2 7.35 2.05 7.5 1.7 7.9" fill="#ffffff" fill-opacity="0.61960787" fill-rule="evenodd" stroke="none"/>
      <path d="M1.7 7.9 L2.05 7.5 2.2 7.35 2.8 6.85 3.45 6.35 3.75 6.15 Q4.2 5.85 4.75 5.7 L5.25 5.45 5.95 5.25 6.05 5.1 6.45 4.5 7.3 3.5 7.55 3.2 8.7 2.15 8.8 2.05 9.3 1.45 9.35 1.35 Q9.65 0.95 10.1 0.65 L10.15 0.55 10.25 0.55 10.95 0.35 11.35 0.3 12.65 0.1 12.9 0.1 14.05 0.1 14.25 0.1 15.55 0.05 15.65 0.05 17.2 0.05 17.5 0.05 18.65 0.0 19.25 0.0 20.2 -0.1 21.0 -0.1 21.6 -0.1 22.7 -0.2 22.9 -0.2 23.5 -0.2 24.1 -0.2 24.7 -0.25 25.2 -0.25 25.7 -0.25 26.8 -0.25 27.05 -0.25 27.85 -0.3 28.55 -0.3 29.3 -0.35 29.8 -0.35 31.1 -0.4 31.3 -0.4 32.3 -0.4 33.65 -0.5 34.05 -0.55 34.75 -0.5 35.05 -0.5 36.8 -0.5 37.1 -0.5 38.6 -0.45 39.4 -0.45 40.0 -0.45 40.55 -0.45 42.65 -0.3 42.95 -0.3 44.6 -0.15 45.0 -0.15 46.0 -0.05 46.7 0.0 46.9 0.0 47.4 0.1 48.0 0.15 48.8 0.25 49.2 0.25 50.4 0.4 50.4 0.4 51.8 0.65 52.1 0.7 53.15 0.8 53.95 0.9 54.45 1.0 55.05 1.1 55.45 1.2 56.4 1.3 56.8 1.35 57.75 1.45 58.05 1.45 59.1 1.65 59.7 1.7 60.4 1.8 62.5 2.1 62.6 2.1 64.55 2.5 64.75 2.5 Q65.3 2.7 65.85 2.95 L65.9 3.0 65.75 3.2 65.4 3.6 65.0 4.0 64.55 4.35 63.95 4.7 63.25 5.1 64.2 5.35 64.6 5.45 65.5 5.65 66.4 5.75 66.8 5.85 68.3 6.15 68.6 6.25 70.05 6.75 70.05 6.95 70.05 7.4 69.95 8.25 69.9 8.55 69.85 8.65 69.6 9.0 69.1 9.5 68.65 9.75 68.5 9.85 67.65 10.3 66.6 10.8 66.0 11.0 64.8 11.35 64.3 11.55 63.3 11.85 62.45 12.05 61.75 12.25 60.2 12.65 59.45 12.75 58.6 12.95 59.9 13.45 60.0 13.45 61.05 13.7 61.55 13.95 61.95 14.2 62.05 14.3 62.0 14.4 61.45 14.95 61.15 15.2 60.6 15.55 60.3 15.75 59.8 16.1 59.65 16.2 59.35 16.35 58.7 16.5 58.6 16.5 57.55 16.8 57.45 16.8 56.35 16.9 56.05 16.9 55.15 17.1 54.05 17.3 53.55 17.4 52.1 17.6 52.1 17.6 50.35 17.8 50.25 17.9 Q49.3 18.8 48.3 19.05 L48.3 19.05 47.7 19.2 46.35 19.65 45.55 19.8 44.9 19.95 43.9 20.15 43.5 20.2 42.45 20.35 41.75 20.45 40.95 20.55 40.25 20.55 39.5 20.6 38.8 20.6 37.75 20.7 37.35 20.7 36.75 20.7 35.95 20.75 35.0 20.75 34.5 20.75 33.25 20.75 33.05 20.75 32.0 20.7 31.7 20.7 31.0 20.6 30.9 20.6 30.0 20.4 29.65 20.3 28.9 20.15 27.9 19.95 27.05 19.75 26.2 19.45 25.0 19.1 24.6 18.9 23.25 18.25 22.95 18.05 21.6 17.4 20.75 16.9 19.85 16.4 19.65 16.3 18.65 16.3 18.15 16.25 17.55 16.2 16.6 16.1 15.4 16.1 15.2 16.1 13.95 16.1 13.25 16.1 12.4 16.1 11.1 16.05 10.7 16.05 9.75 16.1 8.5 15.9 7.6 15.7 6.95 15.3 6.6 14.8 6.6 14.7 6.65 14.45 7.5 13.5 8.55 13.05 8.7 12.95 7.8 12.65 7.6 12.55 6.4 12.1 6.2 12.0 5.25 11.35 4.65 10.55 4.45 10.3 4.65 9.55 4.7 9.35 3.45 8.95 3.05 8.85 Q2.3 8.45 1.6 8.0 L1.5 7.9 1.25 7.65 1.1 7.55 M10.5 14.7 Q10.7 14.35 10.9 14.05 L12.05 13.3 13.4 13.5 13.9 13.65 14.2 13.75 14.55 14.0 14.5 14.4 14.45 14.8 11.65 14.85 11.05 14.75 10.45 14.65 M21.55 14.35 L21.85 13.9 24.35 14.45 25.4 14.85 27.0 15.6 27.1 15.6 27.95 15.8 28.5 16.3 28.5 16.35 28.55 16.75 28.4 17.05 28.2 17.45 28.0 17.75 27.6 17.8 26.75 17.85 25.75 17.7 24.65 17.3 23.6 16.75 22.35 15.9 22.05 15.8 21.75 15.35 21.6 14.95 21.6 14.85 21.55 14.45 21.55 14.45 M30.65 17.85 L30.9 17.5 Q32.25 16.95 32.95 16.85 L35.0 17.25 35.05 17.75 34.9 18.2 Q34.45 18.85 33.55 19.0 L32.2 18.95 31.1 18.45 30.65 18.0 30.55 17.9 M39.65 19.15 L40.0 18.1 Q40.85 18.3 41.45 18.45 L41.7 19.1 41.3 19.8 40.25 19.95 39.65 19.1 M48.95 16.75 Q49.1 16.45 49.4 16.25 50.1 16.1 50.45 16.2 49.85 16.7 49.15 17.05 L48.9 16.7 M52.65 16.15 L52.7 15.6 54.5 15.1 54.75 15.9 54.1 16.3 53.35 16.35 52.7 16.2 52.6 16.2 M55.65 13.8 Q56.25 13.7 57.05 13.75 L57.45 14.9 Q56.75 15.15 55.85 15.3 55.45 14.65 55.65 13.8 M59.8 10.35 Q60.1 10.05 60.4 9.8 L61.4 9.5 62.15 9.65 62.4 10.1 62.65 10.55 62.65 10.75 62.5 11.05 62.35 11.15 62.0 11.35 61.75 11.55 61.25 11.6 60.75 11.6 60.15 11.3 60.05 11.2 59.9 10.85 59.8 10.45 59.8 10.3 M64.4 9.05 L65.1 8.35 67.1 7.65 Q67.95 7.8 68.7 7.95 L68.75 8.5 68.7 8.95 Q67.75 9.35 66.6 9.55 65.8 9.7 65.1 9.75 L64.85 9.8 64.4 9.1 64.4 9.1" fill="none" stroke="#000000" stroke-linecap="round" stroke-linejoin="round" stroke-opacity="0.0" stroke-width="1.0"/>
    </g>
  </defs>
</svg>
