<?xml version="1.0" encoding="UTF-8" standalone="no"?>
<svg xmlns:xlink="http://www.w3.org/1999/xlink" height="21.55px" width="72.85px" xmlns="http://www.w3.org/2000/svg">
  <g transform="matrix(1.0, 0.0, 0.0, 1.0, -0.3, 0.55)">
    <use data-characterId="3364" height="21.55" transform="matrix(1.0, 0.0, 0.0, 1.0, 0.3, -0.55)" width="72.85" xlink:href="#morphshape0"/>
  </g>
  <defs>
    <g id="morphshape0" transform="matrix(1.0, 0.0, 0.0, 1.0, -0.3, 0.55)">
      <path d="M67.55 8.9 L67.55 8.95 67.8 9.45 67.9 9.5 Q68.35 9.85 69.1 9.8 70.15 9.7 70.55 8.8 L70.55 8.55 70.5 8.1 Q70.15 7.9 69.3 7.6 L67.9 8.3 67.6 8.85 M61.4 10.35 L61.4 10.4 61.6 11.05 62.25 11.25 62.4 11.3 63.4 11.35 64.25 11.15 65.1 11.0 65.55 10.85 66.2 10.55 66.45 10.45 66.6 9.9 66.6 9.55 65.85 9.3 65.1 8.95 63.9 9.05 62.35 9.65 Q61.85 9.95 61.35 10.35 M57.4 12.65 Q57.75 13.05 58.3 13.35 59.15 13.15 59.4 12.65 L58.2 12.1 Q57.35 12.15 57.4 12.65 M54.8 15.25 L54.85 15.25 55.6 15.85 56.3 15.9 57.05 15.5 56.9 14.6 55.15 14.7 54.8 15.3 M49.45 16.2 L49.85 16.4 Q51.25 16.15 52.55 15.35 51.7 15.35 50.75 15.4 49.85 15.65 49.45 16.2 M39.6 18.65 L40.0 19.45 40.8 19.55 41.55 19.1 41.5 18.65 Q41.3 18.3 40.2 17.65 L39.65 18.6 M28.75 17.8 L28.8 17.85 29.15 18.35 30.2 18.55 31.45 18.5 Q32.25 18.45 32.9 18.2 L32.95 17.8 32.95 17.3 31.0 17.15 Q30.15 17.2 29.05 17.4 L28.85 17.8 M19.95 14.7 L19.95 14.75 19.95 15.1 20.0 15.2 20.15 15.5 20.55 16.0 20.8 16.15 21.95 17.15 22.75 17.8 23.8 18.4 24.85 18.65 25.75 18.5 26.15 18.35 26.4 18.1 26.55 17.65 26.55 17.35 26.4 17.0 26.4 17.0 25.7 16.7 24.9 16.5 24.8 16.5 23.45 15.5 22.6 15.0 20.15 14.2 19.95 14.7 M10.55 14.35 L10.8 14.85 11.35 15.2 14.5 15.25 14.85 15.1 15.05 14.65 15.1 14.25 14.9 13.95 14.35 13.6 12.85 13.35 11.35 13.75 Q10.95 13.95 10.6 14.3 M0.45 7.6 L0.5 7.65 0.65 8.05 0.7 8.1 Q1.4 8.65 2.25 9.0 L2.65 9.1 4.0 9.45 4.15 9.6 4.75 10.05 5.0 10.2 5.4 11.05 6.25 11.8 6.4 11.9 7.65 12.55 7.9 12.65 8.85 13.0 8.85 13.05 7.9 13.4 6.85 14.15 6.7 14.35 6.75 14.5 7.0 15.1 7.45 15.75 8.35 16.05 9.75 16.2 10.8 16.05 11.3 16.0 12.65 16.15 13.65 16.2 14.4 16.2 15.75 16.35 15.95 16.4 17.2 16.65 18.25 17.0 18.8 17.15 19.35 17.35 20.35 17.7 20.55 17.8 21.5 18.25 22.45 18.7 24.05 19.25 24.35 19.4 25.9 19.95 26.35 20.1 27.65 20.2 28.6 20.3 29.55 20.4 30.6 20.5 31.45 20.5 31.75 20.55 32.75 20.55 32.9 20.55 33.65 20.6 33.95 20.6 35.1 20.55 35.25 20.55 36.6 20.5 37.05 20.5 38.1 20.45 38.95 20.4 39.6 20.35 39.95 20.35 41.1 20.25 41.85 20.2 42.7 20.1 43.45 20.1 44.3 19.95 45.05 19.8 46.2 19.45 46.65 19.3 47.65 18.8 48.15 18.5 49.0 18.3 50.4 18.05 51.05 18.0 51.1 18.0 Q52.3 17.75 53.5 17.25 L53.65 17.2 55.55 16.9 55.6 16.9 57.1 16.7 57.65 16.65 58.8 16.5 59.8 16.35 60.1 16.3 61.3 16.15 61.35 16.15 62.5 15.85 62.6 15.85 63.3 15.55 63.2 15.2 63.1 15.05 62.8 14.65 62.75 14.55 62.45 14.3 62.2 14.15 61.9 13.8 61.75 13.75 61.6 13.7 61.1 13.55 60.5 13.4 59.35 13.15 59.25 13.15 60.1 12.7 61.0 12.5 61.85 12.35 63.5 12.05 64.2 11.9 65.15 11.7 66.25 11.45 66.8 11.3 68.05 11.05 68.7 10.85 69.9 10.45 70.85 9.9 70.9 9.85 71.45 9.5 71.65 8.9 71.5 8.35 71.45 8.2 71.3 7.9 70.75 7.15 70.35 6.8 70.15 6.65 68.6 6.25 68.3 6.15 66.7 5.85 66.3 5.75 65.35 5.6 64.4 5.35 63.9 5.2 64.35 4.9 65.1 4.6 65.8 4.35 66.3 4.1 66.75 3.8 67.25 3.45 67.35 3.2 67.4 3.1 Q66.85 2.75 66.2 2.6 L65.95 2.6 63.9 2.25 63.8 2.25 61.6 2.0 60.8 1.85 60.2 1.75 59.05 1.6 58.75 1.6 57.7 1.5 57.3 1.5 56.25 1.35 55.85 1.3 55.2 1.2 54.65 1.1 53.85 0.95 52.7 0.8 52.4 0.75 50.95 0.5 50.9 0.5 49.65 0.4 49.25 0.4 48.4 0.3 47.75 0.25 47.25 0.15 47.0 0.1 46.25 0.05 45.15 -0.05 44.7 -0.1 42.95 -0.2 42.6 -0.2 40.3 -0.25 39.7 -0.3 39.05 -0.35 38.15 -0.3 36.55 -0.3 36.2 -0.3 34.35 -0.25 33.95 -0.25 33.25 -0.25 32.8 -0.25 31.4 -0.2 30.35 -0.15 30.1 -0.15 28.75 -0.1 28.2 -0.1 27.35 -0.05 26.6 -0.05 25.8 0.0 25.45 0.0 24.25 0.0 23.75 0.0 23.1 0.05 22.5 0.1 21.85 0.1 21.25 0.15 21.1 0.15 19.9 0.2 19.25 0.2 18.4 0.2 17.4 0.25 16.7 0.25 15.5 0.25 15.15 0.25 13.5 0.3 13.4 0.3 12.0 0.45 11.85 0.45 10.6 0.55 10.5 0.55 9.1 0.85 8.65 0.95 8.0 1.2 7.9 1.2 7.95 1.4 Q8.2 1.7 8.5 2.05 L8.55 2.15 8.9 2.4 8.8 2.5 7.55 3.65 7.35 3.9 6.45 4.85 5.85 5.3 5.65 5.35 4.9 5.5 4.4 5.7 Q3.85 5.85 3.35 6.05 L3.0 6.2 2.2 6.65 1.5 7.15 1.25 7.35 0.85 7.8" fill="#ffffff" fill-opacity="0.61960787" fill-rule="evenodd" stroke="none"/>
      <path d="M0.85 7.8 L1.25 7.35 1.5 7.15 2.2 6.65 3.0 6.2 3.35 6.05 Q3.85 5.85 4.4 5.7 L4.9 5.5 5.65 5.35 5.85 5.3 6.45 4.85 7.35 3.9 7.55 3.65 8.8 2.5 8.9 2.4 8.55 2.15 8.5 2.05 Q8.2 1.7 7.95 1.4 L7.9 1.2 8.0 1.2 8.65 0.95 9.1 0.85 10.5 0.55 10.6 0.55 11.85 0.45 12.0 0.45 13.4 0.3 13.5 0.3 15.15 0.25 15.5 0.25 16.7 0.25 17.4 0.25 18.4 0.2 19.25 0.2 19.9 0.2 21.1 0.15 21.25 0.15 21.85 0.1 22.5 0.1 23.1 0.05 23.75 0.0 24.25 0.0 25.45 0.0 25.8 0.0 26.6 -0.05 27.35 -0.05 28.2 -0.1 28.75 -0.1 30.1 -0.15 30.35 -0.15 31.4 -0.2 32.8 -0.25 33.25 -0.25 33.95 -0.25 34.35 -0.25 36.2 -0.3 36.55 -0.3 38.15 -0.3 39.05 -0.35 39.7 -0.3 40.3 -0.25 42.6 -0.2 42.95 -0.2 44.7 -0.1 45.15 -0.05 46.25 0.05 47.0 0.1 47.25 0.15 47.75 0.25 48.4 0.3 49.25 0.4 49.65 0.4 50.9 0.5 50.95 0.5 52.4 0.75 52.7 0.8 53.85 0.95 54.65 1.1 55.2 1.2 55.85 1.3 56.25 1.35 57.3 1.5 57.7 1.5 58.75 1.6 59.05 1.6 60.2 1.75 60.8 1.85 61.6 2.0 63.8 2.25 63.9 2.25 65.95 2.6 66.2 2.6 Q66.85 2.75 67.4 3.1 L67.35 3.2 67.25 3.45 66.75 3.8 66.3 4.1 65.8 4.35 65.1 4.6 64.35 4.9 63.9 5.2 64.4 5.35 65.35 5.6 66.3 5.75 66.7 5.85 68.3 6.15 68.6 6.25 70.15 6.65 70.35 6.8 70.75 7.15 71.3 7.9 71.45 8.2 71.5 8.35 71.65 8.9 71.45 9.5 70.9 9.85 70.85 9.9 69.9 10.45 68.7 10.85 68.05 11.05 66.8 11.3 66.25 11.45 65.15 11.7 64.2 11.9 63.5 12.05 61.85 12.35 61.0 12.5 60.1 12.7 59.25 13.15 59.35 13.15 60.5 13.4 61.1 13.55 61.6 13.7 61.75 13.75 61.9 13.8 62.2 14.15 62.45 14.3 62.75 14.55 62.8 14.65 63.1 15.05 63.2 15.2 63.3 15.55 62.6 15.85 62.5 15.85 61.35 16.15 61.3 16.15 60.1 16.3 59.8 16.35 58.8 16.5 57.65 16.65 57.1 16.7 55.6 16.9 55.55 16.9 53.65 17.2 53.5 17.25 Q52.3 17.75 51.1 18.0 L51.05 18.0 50.4 18.05 49.0 18.3 48.15 18.5 47.65 18.8 46.65 19.3 46.2 19.45 45.05 19.8 44.3 19.95 43.45 20.1 42.7 20.1 41.85 20.2 41.1 20.25 39.95 20.35 39.6 20.35 38.95 20.4 38.1 20.45 37.05 20.5 36.6 20.5 35.25 20.55 35.1 20.55 33.95 20.6 33.65 20.6 32.9 20.55 32.75 20.55 31.75 20.55 31.45 20.5 30.6 20.5 29.55 20.4 28.6 20.3 27.65 20.2 26.35 20.1 25.9 19.95 24.35 19.4 24.05 19.25 22.45 18.7 21.5 18.25 20.55 17.8 20.35 17.7 19.35 17.35 18.8 17.15 18.25 17.0 17.2 16.65 15.95 16.4 15.75 16.35 14.4 16.2 13.65 16.2 12.65 16.15 11.3 16.0 10.8 16.05 9.75 16.2 8.35 16.05 7.45 15.75 7.0 15.1 6.75 14.5 6.7 14.35 6.85 14.15 7.9 13.4 8.85 13.05 8.85 13.0 7.9 12.65 7.65 12.55 6.4 11.9 6.25 11.8 5.4 11.05 5.0 10.2 4.75 10.05 4.15 9.6 4.0 9.45 2.65 9.1 2.25 9.0 Q1.4 8.65 0.7 8.1 L0.65 8.05 0.5 7.65 0.45 7.6 M10.6 14.3 Q10.95 13.95 11.35 13.75 L12.85 13.35 14.35 13.6 14.9 13.95 15.1 14.25 15.05 14.65 14.85 15.1 14.5 15.25 11.35 15.2 10.8 14.85 10.55 14.35 M19.95 14.7 L20.15 14.2 22.6 15.0 23.45 15.5 24.8 16.5 24.9 16.5 25.7 16.7 26.4 17.0 26.4 17.0 26.55 17.35 26.55 17.65 26.4 18.1 26.15 18.35 25.75 18.5 24.85 18.65 23.8 18.4 22.75 17.8 21.95 17.15 20.8 16.15 20.55 16.0 20.15 15.5 20.0 15.2 19.95 15.1 19.95 14.75 19.95 14.7 M28.85 17.8 L29.05 17.4 Q30.15 17.2 31.0 17.15 L32.95 17.3 32.95 17.8 32.9 18.2 Q32.25 18.45 31.45 18.5 L30.2 18.55 29.15 18.35 28.8 17.85 28.75 17.8 M39.65 18.6 L40.2 17.65 Q41.3 18.3 41.5 18.65 L41.55 19.1 40.8 19.55 40.0 19.45 39.6 18.65 M49.45 16.2 Q49.85 15.65 50.75 15.4 51.7 15.35 52.55 15.35 51.25 16.15 49.85 16.4 L49.45 16.2 M54.8 15.3 L55.15 14.7 56.9 14.6 57.05 15.5 56.3 15.9 55.6 15.85 54.85 15.25 54.8 15.25 M57.4 12.65 Q57.35 12.15 58.2 12.1 L59.4 12.65 Q59.15 13.15 58.3 13.35 57.75 13.05 57.4 12.65 M61.35 10.35 Q61.85 9.95 62.35 9.65 L63.9 9.05 65.1 8.95 65.85 9.3 66.6 9.55 66.6 9.9 66.45 10.45 66.2 10.55 65.55 10.85 65.1 11.0 64.25 11.15 63.4 11.35 62.4 11.3 62.25 11.25 61.6 11.05 61.4 10.4 61.4 10.35 M67.6 8.85 L67.9 8.3 69.3 7.6 Q70.15 7.9 70.5 8.1 L70.55 8.55 70.55 8.8 Q70.15 9.7 69.1 9.8 68.35 9.85 67.9 9.5 L67.8 9.45 67.55 8.95 67.55 8.9" fill="none" stroke="#000000" stroke-linecap="round" stroke-linejoin="round" stroke-opacity="0.0" stroke-width="1.0"/>
    </g>
  </defs>
</svg>
