<?xml version="1.0" encoding="UTF-8" standalone="no"?>
<svg xmlns:xlink="http://www.w3.org/1999/xlink" height="21.55px" width="72.85px" xmlns="http://www.w3.org/2000/svg">
  <g transform="matrix(1.0, 0.0, 0.0, 1.0, -0.3, 0.55)">
    <use data-characterId="3363" height="21.55" transform="matrix(1.0, 0.0, 0.0, 1.0, 0.3, -0.55)" width="72.85" xlink:href="#morphshape0"/>
  </g>
  <defs>
    <g id="morphshape0" transform="matrix(1.0, 0.0, 0.0, 1.0, -0.3, 0.55)">
      <path d="M65.0 9.05 L65.0 9.1 65.4 9.75 65.6 9.7 Q66.25 9.75 67.0 9.65 68.1 9.45 68.95 8.95 L69.0 8.55 68.95 8.05 Q68.3 7.85 67.45 7.65 L65.55 8.35 64.95 9.0 M60.05 10.35 L60.05 10.5 60.2 10.95 60.45 11.25 60.6 11.3 61.25 11.55 61.8 11.5 62.4 11.45 62.7 11.3 63.1 11.05 63.25 10.95 63.4 10.6 63.4 10.35 63.05 9.95 62.7 9.5 61.85 9.4 60.75 9.75 Q60.4 10.05 60.05 10.35 M56.0 13.7 Q55.9 14.45 56.35 15.0 57.25 14.8 57.85 14.5 L57.3 13.45 Q56.45 13.45 55.95 13.6 M53.05 15.95 L53.8 16.2 54.5 16.2 55.15 15.8 54.9 15.0 53.15 15.45 53.05 16.0 M49.0 16.65 L49.3 16.95 Q50.1 16.6 50.85 16.05 50.4 15.95 49.65 16.05 49.25 16.3 49.05 16.65 M39.7 19.05 L40.25 19.9 41.25 19.8 41.7 19.15 41.5 18.55 Q40.95 18.35 40.05 18.05 L39.65 19.05 M30.4 17.8 L30.9 18.35 31.95 18.8 33.25 18.85 Q34.1 18.75 34.6 18.15 L34.7 17.7 34.65 17.2 32.6 16.85 Q31.85 16.9 30.55 17.4 L30.35 17.8 M21.4 14.4 L21.4 14.45 21.45 14.8 21.45 14.9 21.6 15.25 21.9 15.75 22.15 15.9 23.4 16.8 24.4 17.35 25.45 17.8 26.45 17.95 27.35 17.9 27.75 17.85 28.0 17.6 28.2 17.15 28.3 16.85 28.2 16.45 28.2 16.4 27.6 15.95 26.75 15.75 26.65 15.75 25.1 14.95 24.1 14.55 21.6 13.95 21.3 14.4 M10.65 14.65 L11.15 14.8 11.7 14.95 14.6 14.9 14.7 14.55 14.8 14.15 14.5 13.85 14.25 13.7 13.7 13.5 12.3 13.25 11.05 13.95 Q10.8 14.25 10.55 14.6 M1.9 8.3 L2.2 8.65 2.25 8.7 Q2.95 9.2 3.7 9.55 L4.1 9.65 5.35 10.0 5.35 10.15 5.3 10.85 5.5 11.05 6.05 11.9 6.95 12.55 7.1 12.65 8.35 13.15 8.6 13.25 9.5 13.55 9.4 13.6 8.35 14.05 7.45 14.95 7.35 15.2 7.4 15.35 7.75 15.85 8.35 16.3 9.25 16.55 10.55 16.75 11.55 16.7 12.0 16.7 13.35 16.75 14.25 16.75 14.95 16.75 16.2 16.8 16.4 16.85 17.65 16.9 18.6 17.05 19.2 17.1 19.7 17.2 20.7 17.25 20.9 17.35 21.85 17.8 22.7 18.3 24.1 18.95 24.4 19.1 25.8 19.75 26.25 19.9 27.45 20.2 28.35 20.45 29.25 20.65 30.25 20.85 31.0 20.95 31.35 21.0 32.3 21.15 32.45 21.15 33.2 21.2 33.5 21.2 34.55 21.25 34.7 21.25 35.95 21.2 36.45 21.2 37.4 21.15 38.25 21.1 38.9 21.1 39.3 21.1 40.35 21.0 41.1 20.95 41.9 20.9 42.6 20.9 43.45 20.75 44.2 20.65 45.25 20.45 45.65 20.4 46.65 20.15 47.25 19.95 48.05 19.75 49.4 19.35 50.05 19.2 50.1 19.2 Q51.15 18.95 52.15 18.15 L52.3 18.1 54.1 17.85 54.15 17.85 55.65 17.65 56.2 17.55 57.3 17.4 58.25 17.25 58.55 17.2 59.65 17.05 59.7 17.05 60.75 16.75 60.85 16.75 61.5 16.55 61.7 16.35 61.8 16.2 62.15 15.8 62.35 15.65 62.75 15.3 62.95 15.05 63.35 14.55 63.35 14.45 63.2 14.4 62.8 14.15 62.25 13.95 61.2 13.7 61.1 13.7 60.15 13.25 61.0 13.05 61.75 12.95 63.3 12.6 64.0 12.45 64.85 12.25 65.9 12.0 66.45 11.85 67.7 11.5 68.35 11.3 69.45 10.8 70.3 10.35 70.45 10.3 70.9 10.0 71.35 9.5 71.5 9.1 71.55 8.95 71.55 8.65 71.5 7.8 71.4 7.35 71.35 7.2 69.9 6.7 69.6 6.6 68.1 6.3 67.7 6.2 66.75 6.05 65.8 5.8 65.35 5.7 64.65 5.4 65.35 5.05 66.0 4.7 66.45 4.35 66.9 3.95 67.3 3.6 67.45 3.35 67.4 3.3 Q66.85 3.05 66.3 2.9 L66.05 2.9 64.05 2.5 63.95 2.5 61.8 2.2 61.05 2.1 60.45 2.05 59.4 1.9 59.1 1.9 58.15 1.8 57.75 1.75 56.8 1.6 56.4 1.55 55.75 1.45 55.2 1.35 54.4 1.25 53.35 1.1 53.05 1.05 51.6 0.8 51.55 0.8 50.3 0.65 49.9 0.65 49.05 0.55 48.4 0.5 47.9 0.4 47.65 0.4 46.9 0.35 45.85 0.25 45.4 0.25 43.75 0.1 43.4 0.1 41.25 0.0 40.7 -0.05 40.1 -0.1 39.25 -0.1 37.7 -0.15 37.35 -0.15 35.6 -0.15 35.25 -0.15 34.55 -0.2 34.1 -0.15 32.75 -0.1 31.7 -0.05 31.45 -0.05 30.1 0.0 29.6 0.0 28.85 0.05 28.1 0.05 27.3 0.1 27.0 0.1 25.85 0.1 25.35 0.1 24.8 0.15 24.2 0.2 23.6 0.2 23.0 0.25 22.85 0.25 21.75 0.3 21.1 0.3 20.25 0.3 19.3 0.35 18.65 0.35 17.45 0.35 17.1 0.35 15.55 0.4 15.45 0.4 14.15 0.45 14.0 0.45 12.85 0.45 12.65 0.45 11.35 0.65 10.9 0.75 10.2 1.0 10.1 1.0 10.05 1.15 Q9.7 1.45 9.5 1.8 L9.45 1.9 9.1 2.4 9.0 2.5 7.8 3.6 7.55 3.85 6.65 4.8 6.2 5.35 6.05 5.45 5.3 5.6 4.8 5.8 Q4.25 5.95 3.75 6.2 L3.4 6.35 2.7 6.8 2.1 7.3 1.95 7.45 1.55 7.85" fill="#ffffff" fill-opacity="0.61960787" fill-rule="evenodd" stroke="none"/>
      <path d="M1.55 7.85 L1.95 7.45 2.1 7.3 2.7 6.8 3.4 6.35 3.75 6.2 Q4.25 5.95 4.8 5.8 L5.3 5.6 6.05 5.45 6.2 5.35 6.65 4.8 7.55 3.85 7.8 3.6 9.0 2.5 9.1 2.4 9.45 1.9 9.5 1.8 Q9.7 1.45 10.05 1.15 L10.1 1.0 10.2 1.0 10.9 0.75 11.35 0.65 12.65 0.45 12.85 0.45 14.0 0.45 14.15 0.45 15.45 0.4 15.55 0.4 17.1 0.35 17.45 0.35 18.65 0.35 19.3 0.35 20.25 0.3 21.1 0.3 21.75 0.3 22.85 0.25 23.0 0.25 23.6 0.2 24.2 0.2 24.8 0.15 25.35 0.1 25.85 0.1 27.0 0.1 27.3 0.1 28.1 0.05 28.85 0.05 29.6 0.0 30.1 0.0 31.45 -0.05 31.7 -0.05 32.75 -0.1 34.1 -0.15 34.55 -0.2 35.25 -0.15 35.6 -0.15 37.35 -0.15 37.7 -0.15 39.25 -0.1 40.1 -0.1 40.7 -0.05 41.25 0.0 43.4 0.1 43.75 0.1 45.4 0.25 45.85 0.25 46.9 0.35 47.65 0.4 47.9 0.4 48.4 0.5 49.05 0.55 49.9 0.65 50.3 0.65 51.55 0.8 51.6 0.8 53.05 1.05 53.35 1.1 54.4 1.25 55.2 1.35 55.75 1.45 56.4 1.55 56.8 1.6 57.75 1.75 58.15 1.8 59.1 1.9 59.4 1.9 60.45 2.05 61.05 2.1 61.8 2.2 63.95 2.5 64.05 2.5 66.05 2.9 66.3 2.9 Q66.85 3.05 67.4 3.3 L67.45 3.35 67.3 3.6 66.9 3.95 66.45 4.35 66.0 4.7 65.35 5.05 64.65 5.4 65.35 5.7 65.8 5.8 66.75 6.05 67.7 6.2 68.1 6.3 69.6 6.6 69.9 6.7 71.35 7.2 71.4 7.35 71.5 7.8 71.55 8.65 71.55 8.95 71.5 9.1 71.35 9.5 70.9 10.0 70.45 10.3 70.3 10.35 69.45 10.8 68.35 11.3 67.7 11.5 66.45 11.85 65.9 12.0 64.85 12.25 64.0 12.45 63.3 12.6 61.75 12.95 61.0 13.05 60.15 13.25 61.1 13.7 61.2 13.7 62.25 13.95 62.8 14.15 63.2 14.4 63.35 14.45 63.35 14.55 62.95 15.05 62.75 15.3 62.35 15.65 62.15 15.8 61.8 16.2 61.7 16.35 61.5 16.55 60.85 16.75 60.75 16.75 59.7 17.05 59.65 17.05 58.55 17.2 58.25 17.25 57.3 17.4 56.2 17.55 55.65 17.65 54.15 17.85 54.1 17.85 52.3 18.1 52.15 18.15 Q51.15 18.95 50.1 19.2 L50.05 19.2 49.4 19.35 48.05 19.75 47.25 19.95 46.65 20.15 45.65 20.4 45.25 20.45 44.2 20.65 43.45 20.75 42.6 20.9 41.9 20.9 41.1 20.95 40.35 21.0 39.3 21.1 38.9 21.1 38.25 21.1 37.4 21.15 36.45 21.2 35.95 21.2 34.7 21.25 34.55 21.25 33.5 21.2 33.2 21.2 32.45 21.15 32.3 21.15 31.35 21.0 31.0 20.95 30.25 20.85 29.25 20.65 28.35 20.45 27.45 20.2 26.25 19.9 25.8 19.75 24.4 19.1 24.1 18.95 22.7 18.3 21.85 17.8 20.9 17.35 20.7 17.25 19.7 17.2 19.2 17.1 18.6 17.05 17.65 16.9 16.4 16.85 16.2 16.8 14.95 16.75 14.25 16.75 13.35 16.75 12.0 16.7 11.55 16.7 10.55 16.75 9.25 16.55 8.35 16.3 7.75 15.85 7.4 15.35 7.35 15.2 7.45 14.95 8.35 14.05 9.4 13.6 9.5 13.55 8.6 13.25 8.35 13.15 7.1 12.65 6.95 12.55 6.05 11.9 5.5 11.05 5.3 10.85 5.35 10.15 5.35 10.0 4.1 9.65 3.7 9.55 Q2.95 9.2 2.25 8.7 L2.2 8.65 1.9 8.3 M10.55 14.6 Q10.8 14.25 11.05 13.95 L12.3 13.25 13.7 13.5 14.25 13.7 14.5 13.85 14.8 14.15 14.7 14.55 14.6 14.9 11.7 14.95 11.15 14.8 10.65 14.65 M21.3 14.4 L21.6 13.95 24.1 14.55 25.1 14.95 26.65 15.75 26.75 15.75 27.6 15.95 28.2 16.4 28.2 16.45 28.3 16.85 28.2 17.15 28.0 17.6 27.75 17.85 27.35 17.9 26.45 17.95 25.45 17.8 24.4 17.35 23.4 16.8 22.15 15.9 21.9 15.75 21.6 15.25 21.45 14.9 21.45 14.8 21.4 14.45 21.4 14.4 M30.35 17.8 L30.55 17.4 Q31.85 16.9 32.6 16.85 L34.65 17.2 34.7 17.7 34.6 18.15 Q34.1 18.75 33.25 18.85 L31.95 18.8 30.9 18.35 30.4 17.8 M39.65 19.05 L40.05 18.05 Q40.95 18.35 41.5 18.55 L41.7 19.15 41.25 19.8 40.25 19.9 39.7 19.05 M49.05 16.65 Q49.25 16.3 49.65 16.05 50.4 15.95 50.85 16.05 50.1 16.6 49.3 16.95 L49.0 16.65 M53.05 16.0 L53.15 15.45 54.9 15.0 55.15 15.8 54.5 16.2 53.8 16.2 53.05 15.95 M55.95 13.6 Q56.45 13.45 57.3 13.45 L57.85 14.5 Q57.25 14.8 56.35 15.0 55.9 14.45 56.0 13.7 M60.05 10.35 Q60.4 10.05 60.75 9.75 L61.85 9.4 62.7 9.5 63.05 9.95 63.4 10.35 63.4 10.6 63.25 10.95 63.1 11.05 62.7 11.3 62.4 11.45 61.8 11.5 61.25 11.55 60.6 11.3 60.45 11.25 60.2 10.95 60.05 10.5 60.05 10.35 M64.95 9.0 L65.55 8.35 67.45 7.65 Q68.3 7.85 68.95 8.05 L69.0 8.55 68.95 8.95 Q68.1 9.45 67.0 9.65 66.25 9.75 65.6 9.7 L65.4 9.75 65.0 9.1 65.0 9.05" fill="none" stroke="#000000" stroke-linecap="round" stroke-linejoin="round" stroke-opacity="0.0" stroke-width="1.0"/>
    </g>
  </defs>
</svg>
