<?xml version="1.0" encoding="UTF-8" standalone="no"?>
<svg xmlns:xlink="http://www.w3.org/1999/xlink" height="21.55px" width="72.85px" xmlns="http://www.w3.org/2000/svg">
  <g transform="matrix(1.0, 0.0, 0.0, 1.0, -0.3, 0.55)">
    <use data-characterId="3363" height="21.55" transform="matrix(1.0, 0.0, 0.0, 1.0, 0.3, -0.55)" width="72.85" xlink:href="#morphshape0"/>
  </g>
  <defs>
    <g id="morphshape0" transform="matrix(1.0, 0.0, 0.0, 1.0, -0.3, 0.55)">
      <path d="M67.3 8.9 L67.3 8.95 67.55 9.5 67.65 9.5 Q68.1 9.8 68.85 9.75 69.9 9.65 70.35 8.85 L70.35 8.6 70.3 8.15 Q69.9 7.95 69.05 7.65 L67.55 8.35 67.2 8.9 M61.2 10.4 L61.2 10.5 61.4 11.1 62.0 11.3 62.15 11.35 63.1 11.45 63.9 11.25 64.7 11.1 65.15 10.95 65.75 10.65 65.95 10.55 66.1 10.05 66.1 9.7 65.45 9.4 64.75 9.05 63.6 9.1 62.1 9.65 Q61.6 9.95 61.15 10.35 M57.15 12.8 Q57.45 13.25 58.0 13.6 58.85 13.4 59.15 12.95 L58.05 12.3 Q57.2 12.35 57.15 12.8 M54.55 15.4 L55.3 15.95 56.0 16.0 56.75 15.6 56.6 14.7 54.85 14.85 54.55 15.45 M49.3 16.3 L49.7 16.5 Q51.0 16.25 52.2 15.5 51.45 15.45 50.55 15.5 49.75 15.75 49.4 16.25 M39.65 18.65 L40.05 19.45 40.85 19.55 41.55 19.05 41.5 18.6 Q41.25 18.3 40.2 17.7 L39.65 18.65 M29.15 17.75 L29.55 18.3 30.6 18.55 31.85 18.55 Q32.65 18.5 33.25 18.2 L33.3 17.8 33.3 17.3 31.3 17.1 Q30.45 17.15 29.3 17.4 L29.1 17.8 M20.2 14.6 L20.2 14.65 20.2 15.0 20.25 15.1 20.4 15.4 20.8 15.9 21.05 16.05 22.25 17.05 23.1 17.7 24.15 18.3 25.2 18.5 26.1 18.35 26.5 18.25 26.75 18.0 26.9 17.55 26.9 17.25 26.75 16.9 26.75 16.9 26.05 16.6 25.25 16.4 25.15 16.4 23.75 15.45 22.9 14.95 20.45 14.15 20.2 14.65 M10.55 14.4 L10.85 14.85 11.4 15.15 14.5 15.2 14.8 15.0 15.0 14.55 15.0 14.15 14.8 13.9 14.25 13.6 12.75 13.35 11.3 13.8 Q10.95 14.0 10.6 14.35 M0.85 7.6 L1.05 8.0 1.1 8.05 Q1.8 8.6 2.6 8.95 L3.0 9.05 4.3 9.4 4.45 9.55 4.95 10.05 5.2 10.2 5.6 11.05 6.45 11.8 6.6 11.9 7.85 12.55 8.1 12.65 9.05 13.0 9.05 13.05 8.05 13.45 7.05 14.25 6.9 14.45 6.95 14.6 7.25 15.15 7.7 15.75 8.6 16.05 10.0 16.2 11.05 16.1 11.55 16.05 12.9 16.15 13.9 16.2 14.65 16.2 15.95 16.35 16.15 16.4 17.4 16.6 18.4 16.9 18.95 17.05 19.5 17.25 20.5 17.55 20.7 17.65 21.65 18.1 22.55 18.55 24.15 19.15 24.45 19.3 26.0 19.85 26.45 20.0 27.75 20.15 28.7 20.3 29.65 20.4 30.7 20.5 31.5 20.5 31.8 20.55 32.8 20.6 32.95 20.6 33.7 20.65 34.0 20.65 35.1 20.65 35.25 20.65 36.55 20.6 37.0 20.6 38.0 20.55 38.85 20.5 39.5 20.45 39.85 20.45 40.95 20.35 41.7 20.3 42.55 20.2 43.3 20.2 44.15 20.05 44.9 19.9 46.0 19.6 46.45 19.45 47.45 19.0 47.95 18.7 48.8 18.5 50.2 18.2 50.85 18.15 50.9 18.15 Q52.1 17.9 53.25 17.35 L53.4 17.3 55.3 17.0 55.35 17.0 56.85 16.8 57.4 16.75 58.55 16.6 59.55 16.45 59.85 16.4 61.0 16.25 61.05 16.25 62.15 15.95 62.25 15.95 62.95 15.65 62.9 15.35 62.85 15.2 62.65 14.8 62.65 14.7 62.45 14.4 62.25 14.2 62.05 13.85 61.9 13.8 61.75 13.75 61.25 13.6 60.65 13.45 59.55 13.2 59.45 13.2 60.0 12.75 60.9 12.55 61.7 12.4 63.3 12.1 64.0 11.95 64.95 11.75 66.05 11.5 66.6 11.35 67.85 11.05 68.5 10.85 69.7 10.45 70.65 9.95 70.75 9.9 71.25 9.55 71.5 9.0 71.4 8.5 71.35 8.35 71.2 8.05 70.7 7.3 70.35 6.95 70.2 6.8 68.7 6.35 68.4 6.25 66.85 5.95 66.45 5.85 65.5 5.7 64.55 5.45 64.05 5.3 64.35 5.0 65.1 4.7 65.8 4.4 66.3 4.1 66.75 3.8 67.25 3.45 67.35 3.2 67.35 3.1 Q66.8 2.75 66.2 2.6 L65.95 2.6 63.9 2.25 63.8 2.25 61.6 2.0 60.8 1.85 60.2 1.75 59.1 1.6 58.8 1.6 57.8 1.5 57.4 1.5 56.4 1.35 56.0 1.3 55.35 1.2 54.8 1.1 54.0 0.95 52.9 0.8 52.6 0.75 51.15 0.5 51.1 0.5 49.85 0.4 49.45 0.4 48.6 0.3 47.95 0.25 47.45 0.15 47.2 0.1 46.45 0.05 45.35 -0.05 44.9 -0.1 43.15 -0.2 42.8 -0.2 40.55 -0.25 39.95 -0.3 39.3 -0.35 38.4 -0.3 36.8 -0.3 36.45 -0.3 34.65 -0.25 34.25 -0.25 33.55 -0.25 33.1 -0.25 31.7 -0.2 30.65 -0.15 30.4 -0.15 29.05 -0.1 28.5 -0.1 27.7 -0.05 26.95 -0.05 26.15 0.0 25.8 0.0 24.6 0.0 24.1 0.0 23.45 0.05 22.85 0.1 22.2 0.1 21.6 0.15 21.45 0.15 20.3 0.2 19.65 0.2 18.8 0.2 17.8 0.25 17.1 0.25 15.9 0.25 15.55 0.25 13.9 0.3 13.8 0.3 12.45 0.45 12.3 0.45 11.1 0.55 11.0 0.55 9.6 0.8 9.15 0.9 8.5 1.15 8.4 1.15 8.4 1.35 Q8.55 1.65 8.75 2.0 L8.75 2.1 8.95 2.4 8.85 2.5 7.6 3.65 7.4 3.9 6.5 4.85 5.9 5.3 5.7 5.35 4.95 5.5 4.45 5.7 Q3.9 5.85 3.4 6.05 L3.05 6.2 2.25 6.65 1.6 7.15 1.4 7.35 1.0 7.8" fill="#ffffff" fill-opacity="0.61960787" fill-rule="evenodd" stroke="none"/>
      <path d="M1.0 7.8 L1.4 7.35 1.6 7.15 2.25 6.65 3.05 6.2 3.4 6.05 Q3.9 5.85 4.45 5.7 L4.95 5.5 5.7 5.35 5.9 5.3 6.5 4.85 7.4 3.9 7.6 3.65 8.85 2.5 8.95 2.4 8.75 2.1 8.75 2.0 Q8.55 1.65 8.4 1.35 L8.4 1.15 8.5 1.15 9.15 0.9 9.6 0.8 11.0 0.55 11.1 0.55 12.3 0.45 12.45 0.45 13.8 0.3 13.9 0.3 15.55 0.25 15.9 0.25 17.1 0.25 17.8 0.25 18.8 0.2 19.65 0.2 20.3 0.2 21.45 0.15 21.6 0.15 22.2 0.1 22.85 0.1 23.45 0.05 24.1 0.0 24.6 0.0 25.8 0.0 26.15 0.0 26.95 -0.05 27.7 -0.05 28.5 -0.1 29.05 -0.1 30.4 -0.15 30.65 -0.15 31.7 -0.2 33.1 -0.25 33.55 -0.25 34.25 -0.25 34.65 -0.25 36.45 -0.3 36.8 -0.3 38.4 -0.3 39.3 -0.35 39.95 -0.3 40.55 -0.25 42.8 -0.2 43.15 -0.2 44.9 -0.1 45.35 -0.05 46.45 0.05 47.2 0.1 47.45 0.15 47.95 0.25 48.6 0.3 49.45 0.4 49.85 0.4 51.1 0.5 51.15 0.5 52.6 0.75 52.9 0.8 54.0 0.95 54.8 1.1 55.35 1.2 56.0 1.3 56.4 1.35 57.4 1.5 57.8 1.5 58.8 1.6 59.1 1.6 60.2 1.75 60.8 1.85 61.6 2.0 63.8 2.25 63.9 2.25 65.95 2.6 66.2 2.6 Q66.8 2.75 67.35 3.1 L67.35 3.2 67.25 3.45 66.75 3.8 66.3 4.1 65.8 4.4 65.1 4.7 64.35 5.0 64.05 5.3 64.55 5.45 65.5 5.7 66.45 5.85 66.85 5.95 68.4 6.25 68.7 6.35 70.2 6.8 70.35 6.95 70.7 7.3 71.2 8.05 71.35 8.35 71.4 8.5 71.5 9.0 71.25 9.55 70.75 9.9 70.65 9.95 69.7 10.45 68.5 10.85 67.85 11.05 66.6 11.35 66.05 11.5 64.95 11.75 64.0 11.95 63.3 12.1 61.7 12.4 60.9 12.55 60.0 12.75 59.45 13.2 59.55 13.2 60.65 13.45 61.25 13.6 61.75 13.75 61.9 13.8 62.05 13.85 62.25 14.2 62.45 14.4 62.65 14.7 62.65 14.8 62.85 15.2 62.9 15.35 62.95 15.65 62.25 15.95 62.15 15.95 61.05 16.25 61.0 16.25 59.85 16.4 59.55 16.45 58.55 16.6 57.4 16.75 56.85 16.8 55.35 17.0 55.3 17.0 53.4 17.3 53.25 17.35 Q52.1 17.9 50.9 18.15 L50.85 18.15 50.2 18.2 48.8 18.5 47.95 18.7 47.45 19.0 46.45 19.45 46.0 19.6 44.9 19.9 44.15 20.05 43.3 20.2 42.55 20.2 41.7 20.3 40.95 20.35 39.85 20.45 39.5 20.45 38.85 20.5 38.0 20.55 37.0 20.6 36.55 20.6 35.25 20.65 35.1 20.65 34.0 20.65 33.7 20.65 32.95 20.6 32.8 20.6 31.8 20.55 31.5 20.5 30.7 20.5 29.65 20.4 28.7 20.3 27.75 20.15 26.45 20.0 26.0 19.85 24.45 19.3 24.15 19.15 22.55 18.55 21.65 18.1 20.7 17.65 20.5 17.55 19.5 17.25 18.95 17.05 18.4 16.9 17.4 16.6 16.15 16.4 15.95 16.35 14.65 16.2 13.9 16.2 12.9 16.15 11.55 16.05 11.05 16.1 10.0 16.2 8.6 16.05 7.7 15.75 7.25 15.15 6.95 14.6 6.9 14.45 7.05 14.25 8.05 13.45 9.05 13.05 9.05 13.0 8.1 12.65 7.85 12.55 6.6 11.9 6.45 11.8 5.6 11.05 5.2 10.2 4.95 10.05 4.45 9.55 4.3 9.4 3.0 9.05 2.6 8.95 Q1.8 8.6 1.1 8.05 L1.05 8.0 0.85 7.6 M10.6 14.35 Q10.95 14.0 11.3 13.8 L12.75 13.35 14.25 13.6 14.8 13.9 15.0 14.15 15.0 14.55 14.8 15.0 14.5 15.2 11.4 15.15 10.85 14.85 10.55 14.4 M20.2 14.65 L20.45 14.15 22.9 14.95 23.75 15.45 25.15 16.4 25.25 16.4 26.05 16.6 26.75 16.9 26.75 16.9 26.9 17.25 26.9 17.55 26.75 18.0 26.5 18.25 26.1 18.35 25.2 18.5 24.15 18.3 23.1 17.7 22.25 17.05 21.05 16.05 20.8 15.9 20.4 15.4 20.25 15.1 20.2 15.0 20.2 14.65 20.2 14.6 M29.1 17.8 L29.3 17.4 Q30.45 17.15 31.3 17.1 L33.3 17.3 33.3 17.8 33.25 18.2 Q32.65 18.5 31.85 18.55 L30.6 18.55 29.55 18.3 29.15 17.75 M39.65 18.65 L40.2 17.7 Q41.25 18.3 41.5 18.6 L41.55 19.05 40.85 19.55 40.05 19.45 39.65 18.65 M49.4 16.25 Q49.75 15.75 50.55 15.5 51.45 15.45 52.2 15.5 51.0 16.25 49.7 16.5 L49.3 16.3 M54.55 15.45 L54.85 14.85 56.6 14.7 56.75 15.6 56.0 16.0 55.3 15.95 54.55 15.4 M57.15 12.8 Q57.2 12.35 58.05 12.3 L59.15 12.95 Q58.85 13.4 58.0 13.6 57.45 13.25 57.15 12.8 M61.15 10.35 Q61.6 9.95 62.1 9.65 L63.6 9.1 64.75 9.05 65.45 9.4 66.1 9.7 66.1 10.05 65.95 10.55 65.75 10.65 65.15 10.95 64.7 11.1 63.9 11.25 63.1 11.45 62.15 11.35 62.0 11.3 61.4 11.1 61.2 10.5 61.2 10.4 M67.2 8.9 L67.55 8.35 69.05 7.65 Q69.9 7.95 70.3 8.15 L70.35 8.6 70.35 8.85 Q69.9 9.65 68.85 9.75 68.1 9.8 67.65 9.5 L67.55 9.5 67.3 8.95 67.3 8.9" fill="none" stroke="#000000" stroke-linecap="round" stroke-linejoin="round" stroke-opacity="0.0" stroke-width="1.0"/>
    </g>
  </defs>
</svg>
