<?xml version="1.0" encoding="UTF-8" standalone="no"?>
<svg xmlns:xlink="http://www.w3.org/1999/xlink" height="21.55px" width="72.85px" xmlns="http://www.w3.org/2000/svg">
  <g transform="matrix(1.0, 0.0, 0.0, 1.0, -0.3, 0.55)">
    <use data-characterId="3363" height="21.55" transform="matrix(1.0, 0.0, 0.0, 1.0, 0.3, -0.55)" width="72.85" xlink:href="#morphshape0"/>
  </g>
  <defs>
    <g id="morphshape0" transform="matrix(1.0, 0.0, 0.0, 1.0, -0.3, 0.55)">
      <path d="M65.8 8.95 L65.8 9.0 66.15 9.6 66.35 9.6 Q66.95 9.75 67.7 9.65 68.8 9.5 69.5 8.85 L69.55 8.5 69.5 8.0 Q68.95 7.8 68.1 7.6 L66.4 8.3 65.9 8.95 M60.45 10.3 L60.45 10.4 60.6 10.9 61.0 11.2 61.15 11.25 61.95 11.4 62.6 11.3 63.3 11.2 63.65 11.05 64.15 10.8 64.35 10.7 64.5 10.25 64.5 10.0 64.0 9.65 63.5 9.25 62.55 9.25 61.3 9.7 Q60.9 10.0 60.5 10.35 M56.5 13.3 Q56.55 13.95 57.0 14.4 57.9 14.2 58.4 13.85 L57.65 13.0 Q56.8 13.0 56.5 13.3 M53.65 15.8 L54.4 16.15 55.1 16.15 55.8 15.75 55.6 14.9 53.85 15.2 53.65 15.75 M49.3 16.45 L49.6 16.75 Q50.6 16.45 51.55 15.8 50.95 15.75 50.1 15.85 49.5 16.1 49.2 16.5 M39.65 18.9 L40.15 19.75 41.1 19.7 41.65 19.1 41.5 18.55 Q41.05 18.3 40.1 17.9 L39.65 18.9 M29.75 17.85 L30.2 18.4 31.25 18.75 32.55 18.75 Q33.4 18.65 33.95 18.15 L34.05 17.7 34.0 17.2 32.0 16.95 Q31.25 17.0 30.0 17.4 L29.8 17.8 M20.8 14.55 L20.8 14.6 20.85 14.95 20.85 15.05 21.0 15.4 21.35 15.9 21.6 16.05 22.8 16.95 23.7 17.55 24.75 18.05 25.75 18.25 26.65 18.15 27.05 18.05 27.3 17.8 27.5 17.35 27.6 17.05 27.5 16.65 27.5 16.6 26.9 16.2 26.05 16.0 25.95 16.0 24.5 15.15 23.55 14.7 21.05 14.05 20.8 14.5 M10.6 14.45 L11.0 14.75 11.55 14.95 14.55 14.95 14.75 14.7 14.85 14.3 14.65 14.0 14.4 13.8 13.85 13.55 12.45 13.3 11.1 13.9 Q10.8 14.15 10.55 14.5 M1.45 8.05 L1.75 8.45 1.8 8.5 Q2.5 9.0 3.3 9.35 L3.7 9.45 5.0 9.8 5.05 9.95 5.2 10.55 5.4 10.75 5.9 11.6 6.8 12.3 6.95 12.4 8.2 12.95 8.45 13.05 9.35 13.35 9.25 13.4 8.25 13.8 7.3 14.65 7.2 14.9 7.25 15.05 7.55 15.6 8.1 16.1 9.0 16.35 10.3 16.55 11.3 16.45 11.75 16.45 13.1 16.55 14.0 16.55 14.7 16.55 16.0 16.6 16.2 16.65 17.45 16.75 18.45 16.95 19.05 17.05 19.55 17.15 20.55 17.3 20.75 17.4 21.7 17.85 22.6 18.35 24.05 18.95 24.35 19.1 25.8 19.7 26.25 19.85 27.5 20.05 28.4 20.25 29.3 20.4 30.3 20.55 31.1 20.65 31.45 20.7 32.4 20.8 32.55 20.8 33.3 20.85 33.6 20.85 34.7 20.85 34.85 20.85 36.15 20.8 36.65 20.8 37.65 20.75 38.5 20.7 39.15 20.7 39.55 20.7 40.65 20.6 41.4 20.55 42.2 20.5 42.9 20.5 43.75 20.35 44.5 20.25 45.6 20.0 46.0 19.9 47.0 19.55 47.6 19.35 48.4 19.15 49.75 18.8 50.4 18.7 50.45 18.7 Q51.55 18.45 52.6 17.75 L52.75 17.7 54.55 17.45 54.6 17.45 56.1 17.25 56.65 17.15 57.75 17.0 58.7 16.85 59.0 16.8 60.15 16.65 60.2 16.65 61.3 16.35 61.4 16.35 62.05 16.15 62.15 15.9 62.15 15.75 62.3 15.35 62.4 15.2 62.55 14.9 62.6 14.7 62.75 14.25 62.7 14.15 62.55 14.1 62.1 13.9 61.55 13.7 60.45 13.45 60.35 13.45 60.05 13.0 60.9 12.8 61.7 12.7 63.3 12.35 64.0 12.2 64.9 12.0 65.95 11.75 66.5 11.6 67.75 11.3 68.4 11.1 69.5 10.65 70.4 10.15 70.5 10.1 71.0 9.8 71.35 9.25 71.4 8.8 71.4 8.65 71.35 8.35 71.15 7.55 70.95 7.15 70.85 7.0 69.35 6.55 69.05 6.45 67.5 6.15 67.1 6.05 66.15 5.9 65.2 5.65 64.75 5.55 64.45 5.25 65.15 4.9 65.8 4.6 66.25 4.3 66.7 3.95 67.1 3.6 67.25 3.35 67.25 3.3 Q66.7 3.0 66.1 2.85 L65.85 2.85 63.85 2.45 63.75 2.45 61.6 2.15 60.85 2.05 60.25 2.0 59.15 1.85 58.85 1.85 57.85 1.75 57.45 1.7 56.45 1.55 56.05 1.5 55.4 1.4 54.85 1.3 54.05 1.2 52.95 1.05 52.65 1.0 51.2 0.75 51.15 0.75 49.9 0.6 49.5 0.6 48.65 0.5 48.0 0.45 47.5 0.35 47.25 0.35 46.5 0.3 45.45 0.2 45.0 0.2 43.3 0.05 42.95 0.05 40.75 -0.05 40.2 -0.1 39.6 -0.15 38.75 -0.15 37.2 -0.2 36.85 -0.2 35.05 -0.2 34.7 -0.2 34.0 -0.25 33.55 -0.2 32.2 -0.15 31.15 -0.1 30.9 -0.1 29.55 -0.05 29.05 -0.05 28.25 0.0 27.5 0.0 26.7 0.05 26.4 0.05 25.25 0.05 24.75 0.05 24.2 0.1 23.6 0.15 23.0 0.15 22.4 0.2 22.25 0.2 21.1 0.25 20.45 0.25 19.6 0.25 18.65 0.3 18.0 0.3 16.8 0.3 16.45 0.3 14.85 0.35 14.75 0.35 13.4 0.45 13.25 0.45 12.05 0.5 11.85 0.5 10.5 0.75 10.05 0.85 9.35 1.1 9.25 1.1 9.25 1.25 Q9.1 1.55 9.1 1.9 L9.1 2.0 9.0 2.4 8.9 2.5 7.7 3.6 7.45 3.85 6.55 4.8 6.05 5.35 5.9 5.45 5.15 5.6 4.65 5.8 Q4.1 5.95 3.6 6.2 L3.25 6.35 2.55 6.8 1.9 7.3 1.7 7.45 1.3 7.85" fill="#ffffff" fill-opacity="0.61960787" fill-rule="evenodd" stroke="none"/>
      <path d="M1.3 7.85 L1.7 7.45 1.9 7.3 2.55 6.8 3.25 6.35 3.6 6.2 Q4.1 5.95 4.65 5.8 L5.15 5.6 5.9 5.45 6.05 5.35 6.55 4.8 7.45 3.85 7.7 3.6 8.9 2.5 9.0 2.4 9.1 2.0 9.1 1.9 Q9.1 1.55 9.25 1.25 L9.25 1.1 9.35 1.1 10.05 0.85 10.5 0.75 11.85 0.5 12.05 0.5 13.25 0.45 13.4 0.45 14.75 0.35 14.85 0.35 16.45 0.3 16.8 0.3 18.0 0.3 18.65 0.3 19.6 0.25 20.45 0.25 21.1 0.25 22.25 0.2 22.4 0.2 23.0 0.15 23.6 0.15 24.2 0.1 24.75 0.05 25.25 0.05 26.4 0.05 26.7 0.05 27.5 0.0 28.25 0.0 29.05 -0.05 29.55 -0.05 30.9 -0.1 31.15 -0.1 32.2 -0.15 33.55 -0.2 34.0 -0.25 34.7 -0.2 35.05 -0.2 36.85 -0.2 37.2 -0.2 38.75 -0.15 39.6 -0.15 40.2 -0.1 40.75 -0.05 42.95 0.05 43.3 0.05 45.0 0.2 45.45 0.2 46.5 0.3 47.25 0.35 47.5 0.35 48.0 0.45 48.65 0.5 49.5 0.6 49.9 0.6 51.15 0.75 51.2 0.75 52.65 1.0 52.95 1.05 54.05 1.2 54.85 1.3 55.4 1.4 56.05 1.5 56.45 1.55 57.45 1.7 57.85 1.75 58.85 1.85 59.15 1.85 60.25 2.0 60.85 2.05 61.6 2.15 63.75 2.45 63.85 2.45 65.85 2.85 66.1 2.85 Q66.7 3.0 67.25 3.3 L67.25 3.35 67.1 3.6 66.7 3.95 66.25 4.3 65.8 4.6 65.15 4.9 64.45 5.25 64.75 5.55 65.2 5.65 66.15 5.9 67.1 6.05 67.5 6.15 69.05 6.45 69.35 6.55 70.85 7.0 70.95 7.15 71.15 7.55 71.35 8.35 71.4 8.65 71.4 8.8 71.35 9.25 71.0 9.8 70.5 10.1 70.4 10.15 69.5 10.65 68.4 11.1 67.75 11.3 66.5 11.6 65.95 11.75 64.9 12.0 64.0 12.2 63.3 12.35 61.7 12.7 60.9 12.8 60.05 13.0 60.35 13.45 60.45 13.45 61.55 13.7 62.1 13.9 62.55 14.1 62.7 14.15 62.75 14.25 62.6 14.7 62.55 14.9 62.4 15.2 62.3 15.35 62.15 15.75 62.15 15.9 62.05 16.15 61.4 16.35 61.3 16.35 60.2 16.65 60.15 16.65 59.0 16.8 58.7 16.85 57.75 17.0 56.65 17.15 56.1 17.25 54.6 17.45 54.55 17.45 52.75 17.7 52.6 17.75 Q51.55 18.45 50.45 18.7 L50.4 18.7 49.75 18.8 48.4 19.15 47.6 19.35 47.0 19.55 46.0 19.9 45.6 20.0 44.5 20.25 43.75 20.35 42.9 20.5 42.2 20.5 41.4 20.55 40.65 20.6 39.55 20.7 39.15 20.7 38.5 20.7 37.65 20.75 36.65 20.8 36.15 20.8 34.85 20.85 34.7 20.85 33.6 20.85 33.3 20.85 32.55 20.8 32.4 20.8 31.45 20.7 31.1 20.65 30.3 20.55 29.3 20.4 28.4 20.25 27.5 20.05 26.25 19.85 25.8 19.7 24.35 19.1 24.05 18.95 22.6 18.35 21.7 17.85 20.75 17.4 20.55 17.3 19.55 17.15 19.05 17.05 18.45 16.95 17.45 16.75 16.2 16.65 16.0 16.6 14.7 16.55 14.0 16.55 13.1 16.55 11.75 16.45 11.3 16.45 10.3 16.55 9.0 16.35 8.1 16.1 7.55 15.6 7.25 15.05 7.2 14.9 7.3 14.65 8.25 13.8 9.25 13.4 9.35 13.35 8.45 13.05 8.2 12.95 6.95 12.4 6.8 12.3 5.9 11.6 5.4 10.75 5.2 10.55 5.05 9.95 5.0 9.8 3.7 9.45 3.3 9.35 Q2.5 9.0 1.8 8.5 L1.75 8.45 1.45 8.05 M10.55 14.5 Q10.8 14.15 11.1 13.9 L12.45 13.3 13.85 13.55 14.4 13.8 14.65 14.0 14.85 14.3 14.75 14.7 14.55 14.95 11.55 14.95 11.0 14.75 10.6 14.45 M20.8 14.5 L21.05 14.05 23.55 14.7 24.5 15.15 25.95 16.0 26.05 16.0 26.9 16.2 27.5 16.6 27.5 16.65 27.6 17.05 27.5 17.35 27.3 17.8 27.05 18.05 26.65 18.15 25.75 18.25 24.75 18.05 23.7 17.55 22.8 16.95 21.6 16.05 21.35 15.9 21.0 15.4 20.85 15.05 20.85 14.95 20.8 14.6 20.8 14.55 M29.8 17.8 L30.0 17.4 Q31.25 17.0 32.0 16.95 L34.0 17.2 34.05 17.7 33.95 18.15 Q33.4 18.65 32.55 18.75 L31.25 18.75 30.2 18.4 29.75 17.85 M39.65 18.9 L40.1 17.9 Q41.05 18.3 41.5 18.55 L41.65 19.1 41.1 19.7 40.15 19.75 39.65 18.9 M49.2 16.5 Q49.5 16.1 50.1 15.85 50.95 15.75 51.55 15.8 50.6 16.45 49.6 16.75 L49.3 16.45 M53.65 15.75 L53.85 15.2 55.6 14.9 55.8 15.75 55.1 16.15 54.4 16.15 53.65 15.8 M56.5 13.3 Q56.8 13.0 57.65 13.0 L58.4 13.85 Q57.9 14.2 57.0 14.4 56.55 13.95 56.5 13.3 M60.5 10.35 Q60.9 10.0 61.3 9.7 L62.55 9.25 63.5 9.25 64.0 9.65 64.5 10.0 64.5 10.25 64.35 10.7 64.15 10.8 63.65 11.05 63.3 11.2 62.6 11.3 61.95 11.4 61.15 11.25 61.0 11.2 60.6 10.9 60.45 10.4 60.45 10.3 M65.9 8.95 L66.4 8.3 68.1 7.6 Q68.95 7.8 69.5 8.0 L69.55 8.5 69.5 8.85 Q68.8 9.5 67.7 9.65 66.95 9.75 66.35 9.6 L66.15 9.6 65.8 9.0 65.8 8.95" fill="none" stroke="#000000" stroke-linecap="round" stroke-linejoin="round" stroke-opacity="0.0" stroke-width="1.0"/>
    </g>
  </defs>
</svg>
