<?xml version="1.0" encoding="UTF-8" standalone="no"?>
<svg xmlns:xlink="http://www.w3.org/1999/xlink" height="21.55px" width="72.85px" xmlns="http://www.w3.org/2000/svg">
  <g transform="matrix(1.0, 0.0, 0.0, 1.0, -0.3, 0.55)">
    <use data-characterId="3364" height="21.55" transform="matrix(1.0, 0.0, 0.0, 1.0, 0.3, -0.55)" width="72.85" xlink:href="#morphshape0"/>
  </g>
  <defs>
    <g id="morphshape0" transform="matrix(1.0, 0.0, 0.0, 1.0, -0.3, 0.55)">
      <path d="M68.75 8.9 L68.75 9.0 68.9 9.45 68.95 9.5 Q69.3 9.95 70.0 9.9 71.05 9.85 71.25 8.8 L71.25 8.65 71.2 8.2 Q70.95 7.95 70.1 7.6 L68.9 8.3 68.7 8.8 M61.85 10.3 L61.85 10.35 62.05 11.05 62.9 11.2 63.1 11.2 64.25 11.2 65.2 10.9 66.2 10.7 66.75 10.6 67.5 10.3 67.75 10.2 67.9 9.6 67.9 9.2 67.0 9.0 66.05 8.7 64.7 8.85 63.0 9.55 Q62.4 9.9 61.85 10.35 M58.0 12.35 Q58.5 12.6 59.1 12.75 59.95 12.5 60.05 11.95 L58.6 11.6 Q57.7 11.65 57.95 12.3 M55.6 15.05 L55.6 15.05 56.35 15.8 57.0 15.85 57.8 15.45 57.7 14.5 56.0 14.45 55.55 15.05 M49.65 16.05 L50.1 16.2 Q51.7 16.0 53.2 15.1 52.2 15.1 51.2 15.15 50.1 15.45 49.65 16.05 M39.65 18.45 L39.95 19.25 40.65 19.45 41.5 19.05 41.55 18.7 Q41.45 18.3 40.3 17.5 L39.65 18.45 M28.2 17.8 L28.2 17.8 28.5 18.35 29.5 18.45 30.75 18.4 Q31.55 18.35 32.25 18.2 L32.3 17.8 32.3 17.3 30.35 17.2 Q29.45 17.2 28.4 17.3 L28.25 17.75 M19.4 14.65 L19.4 14.75 19.4 15.05 19.45 15.15 19.6 15.45 20.05 16.0 20.25 16.2 21.4 17.25 22.15 17.95 23.15 18.65 24.2 18.9 25.15 18.7 25.55 18.55 25.85 18.35 26.0 17.85 25.95 17.55 25.8 17.2 25.8 17.2 25.05 17.0 24.25 16.8 24.15 16.8 22.85 15.75 22.1 15.2 19.65 14.3 19.45 14.8 M10.7 14.3 L10.8 14.95 11.3 15.35 14.6 15.45 15.05 15.35 15.3 14.9 15.45 14.45 15.25 14.1 14.65 13.7 13.1 13.4 11.45 13.7 Q11.0 13.85 10.6 14.2 M0.5 8.35 L0.55 8.35 0.7 8.8 0.7 8.8 Q1.4 9.35 2.25 9.65 L2.65 9.75 4.0 10.05 4.25 10.15 5.1 10.5 5.35 10.65 5.65 11.55 6.5 12.35 6.6 12.45 7.9 13.2 8.2 13.3 9.15 13.65 9.2 13.65 8.25 14.0 7.15 14.7 7.0 14.9 7.1 15.1 7.35 15.7 7.7 16.4 8.6 16.7 10.05 16.85 11.1 16.7 11.6 16.65 13.0 16.8 14.05 16.85 14.8 16.85 16.15 17.05 16.35 17.15 17.65 17.45 18.7 17.85 19.25 18.05 19.8 18.3 20.8 18.75 21.0 18.85 22.0 19.25 22.95 19.7 24.65 20.25 24.95 20.35 26.6 20.85 27.1 20.95 28.45 21.0 29.4 21.05 30.35 21.1 31.4 21.15 32.25 21.1 32.55 21.1 33.55 21.05 33.75 21.05 34.55 21.05 34.85 21.05 36.0 21.0 36.1 21.0 37.45 20.9 37.9 20.9 38.95 20.8 39.85 20.75 40.55 20.7 40.9 20.7 42.05 20.6 42.85 20.5 43.7 20.4 44.45 20.4 45.35 20.2 46.15 20.05 47.3 19.65 47.75 19.45 48.75 18.85 49.2 18.5 50.05 18.25 51.45 18.05 52.15 18.05 52.25 18.05 Q53.55 17.8 54.8 17.4 L55.0 17.4 56.95 17.1 57.05 17.1 58.6 16.9 59.2 16.85 60.35 16.75 61.35 16.65 61.65 16.55 62.85 16.35 62.85 16.35 64.0 16.05 64.1 16.05 64.8 15.7 64.6 15.3 64.45 15.1 63.9 14.65 63.7 14.55 63.1 14.3 62.7 14.15 62.1 13.9 61.85 13.85 61.65 13.85 61.1 13.75 60.5 13.6 59.35 13.35 59.25 13.35 60.8 12.95 61.7 12.75 62.55 12.6 64.2 12.3 64.9 12.2 65.9 12.0 67.0 11.8 67.6 11.7 68.9 11.45 69.6 11.25 70.85 10.9 71.85 10.35 71.9 10.35 72.45 10.0 72.55 9.4 72.3 8.8 72.2 8.6 71.95 8.3 71.15 7.6 70.65 7.3 70.4 7.2 68.85 6.8 68.55 6.7 66.95 6.4 66.55 6.3 65.55 6.1 64.55 5.8 64.05 5.65 65.0 5.3 65.75 5.0 66.45 4.75 66.95 4.5 67.45 4.25 68.0 3.95 68.1 3.65 68.15 3.55 Q67.6 3.15 66.95 3.05 L66.65 3.05 64.6 2.7 64.5 2.7 62.3 2.45 61.5 2.3 60.9 2.2 59.75 2.1 59.45 2.1 58.4 2.0 58.0 2.0 56.95 1.8 56.55 1.8 55.85 1.7 55.25 1.6 54.45 1.45 53.3 1.25 53.0 1.2 51.5 0.95 51.4 0.95 50.1 0.85 49.7 0.85 48.8 0.75 48.1 0.7 47.6 0.6 47.3 0.55 46.5 0.5 45.4 0.4 44.9 0.35 43.1 0.25 42.7 0.25 40.35 0.2 39.75 0.1 39.1 0.0 38.2 0.05 36.6 0.05 36.2 0.05 34.35 0.1 33.95 0.1 33.25 0.1 32.75 0.1 31.35 0.1 30.25 0.2 29.95 0.2 28.55 0.25 28.0 0.25 27.15 0.3 26.35 0.3 25.55 0.35 25.2 0.35 24.0 0.35 23.5 0.35 22.8 0.45 22.2 0.5 21.55 0.5 20.95 0.6 20.85 0.6 19.65 0.6 18.95 0.6 18.05 0.6 17.05 0.6 16.35 0.6 15.1 0.55 14.7 0.55 13.0 0.65 12.9 0.65 11.5 0.85 11.4 0.85 10.15 1.0 10.1 1.0 8.65 1.3 8.15 1.45 7.5 1.75 7.4 1.75 7.45 1.95 Q7.9 2.25 8.4 2.55 L8.45 2.65 9.05 2.75 8.95 2.85 7.7 4.0 7.5 4.2 6.55 5.1 5.85 5.5 5.65 5.55 4.85 5.65 4.35 5.8 Q3.8 5.95 3.25 6.15 L2.85 6.25 2.0 6.65 1.3 7.15 1.05 7.35 0.6 7.8" fill="#ffffff" fill-opacity="0.61960787" fill-rule="evenodd" stroke="none"/>
      <path d="M0.6 7.8 L1.05 7.35 1.3 7.15 2.0 6.65 2.85 6.25 3.25 6.15 Q3.8 5.95 4.35 5.8 L4.85 5.65 5.65 5.55 5.85 5.5 6.55 5.1 7.5 4.2 7.7 4.0 8.95 2.85 9.05 2.75 8.45 2.65 8.4 2.55 Q7.9 2.25 7.45 1.95 L7.4 1.75 7.5 1.75 8.15 1.45 8.65 1.3 10.1 1.0 10.15 1.0 11.4 0.85 11.5 0.85 12.9 0.65 13.0 0.65 14.7 0.55 15.1 0.55 16.35 0.6 17.05 0.6 18.05 0.6 18.95 0.6 19.65 0.6 20.85 0.6 20.95 0.6 21.55 0.5 22.2 0.5 22.8 0.45 23.5 0.35 24.0 0.35 25.2 0.35 25.55 0.35 26.35 0.3 27.15 0.3 28.0 0.25 28.55 0.25 29.95 0.2 30.25 0.2 31.35 0.1 32.75 0.1 33.25 0.1 33.95 0.1 34.35 0.1 36.2 0.05 36.6 0.05 38.2 0.05 39.1 0.0 39.75 0.1 40.35 0.2 42.7 0.25 43.1 0.25 44.9 0.35 45.4 0.4 46.5 0.5 47.3 0.55 47.6 0.6 48.1 0.7 48.8 0.75 49.7 0.85 50.1 0.85 51.4 0.95 51.5 0.95 53.0 1.2 53.3 1.25 54.45 1.45 55.25 1.6 55.85 1.7 56.55 1.8 56.95 1.8 58.0 2.0 58.4 2.0 59.45 2.1 59.75 2.1 60.9 2.2 61.5 2.3 62.3 2.45 64.5 2.7 64.6 2.7 66.65 3.05 66.95 3.05 Q67.6 3.15 68.15 3.55 L68.1 3.65 68.0 3.95 67.45 4.25 66.95 4.5 66.45 4.75 65.75 5.0 65.0 5.3 64.05 5.65 64.55 5.8 65.55 6.1 66.55 6.3 66.95 6.4 68.55 6.7 68.85 6.8 70.4 7.2 70.65 7.3 71.15 7.6 71.95 8.3 72.2 8.6 72.3 8.8 72.55 9.4 72.45 10.0 71.9 10.35 71.85 10.35 70.85 10.9 69.6 11.25 68.9 11.45 67.6 11.7 67.0 11.8 65.9 12.0 64.9 12.2 64.2 12.3 62.55 12.6 61.7 12.75 60.8 12.95 59.25 13.35 59.35 13.35 60.5 13.6 61.1 13.75 61.65 13.85 61.85 13.85 62.1 13.9 62.7 14.15 63.1 14.3 63.7 14.55 63.9 14.65 64.45 15.1 64.6 15.3 64.8 15.7 64.1 16.05 64.0 16.05 62.85 16.35 62.85 16.35 61.65 16.55 61.35 16.65 60.35 16.75 59.2 16.85 58.6 16.9 57.05 17.1 56.95 17.1 55.0 17.4 54.8 17.4 Q53.55 17.8 52.25 18.05 L52.15 18.05 51.45 18.05 50.05 18.25 49.2 18.5 48.75 18.85 47.75 19.45 47.3 19.65 46.15 20.05 45.35 20.2 44.45 20.4 43.7 20.4 42.85 20.5 42.05 20.6 40.9 20.7 40.55 20.7 39.85 20.75 38.95 20.8 37.9 20.9 37.45 20.9 36.1 21.0 36.0 21.0 34.85 21.05 34.55 21.05 33.75 21.05 33.55 21.05 32.55 21.1 32.25 21.1 31.4 21.15 30.35 21.1 29.4 21.05 28.45 21.0 27.1 20.95 26.6 20.85 24.95 20.35 24.65 20.25 22.95 19.7 22.0 19.25 21.0 18.85 20.8 18.75 19.8 18.3 19.25 18.05 18.7 17.85 17.65 17.45 16.35 17.15 16.15 17.05 14.8 16.85 14.05 16.85 13.0 16.8 11.6 16.65 11.1 16.7 10.05 16.85 8.6 16.7 7.7 16.4 7.35 15.7 7.1 15.1 7.0 14.9 7.15 14.7 8.25 14.0 9.2 13.65 9.15 13.65 8.2 13.3 7.9 13.2 6.6 12.45 6.5 12.35 5.65 11.55 5.35 10.65 5.1 10.5 4.25 10.15 4.0 10.05 2.65 9.75 2.25 9.65 Q1.4 9.35 0.7 8.8 L0.7 8.8 0.55 8.35 0.5 8.35 M10.6 14.2 Q11.0 13.85 11.45 13.7 L13.1 13.4 14.65 13.7 15.25 14.1 15.45 14.45 15.3 14.9 15.05 15.35 14.6 15.45 11.3 15.35 10.8 14.95 10.7 14.3 M19.45 14.8 L19.65 14.3 22.1 15.2 22.85 15.75 24.15 16.8 24.25 16.8 25.05 17.0 25.8 17.2 25.8 17.2 25.95 17.55 26.0 17.85 25.85 18.35 25.55 18.55 25.15 18.7 24.2 18.9 23.15 18.65 22.15 17.95 21.4 17.25 20.25 16.2 20.05 16.0 19.6 15.45 19.45 15.15 19.4 15.05 19.4 14.75 19.4 14.65 M28.25 17.75 L28.4 17.3 Q29.45 17.2 30.35 17.2 L32.3 17.3 32.3 17.8 32.25 18.2 Q31.55 18.35 30.75 18.4 L29.5 18.45 28.5 18.35 28.2 17.8 28.2 17.8 M39.65 18.45 L40.3 17.5 Q41.45 18.3 41.55 18.7 L41.5 19.05 40.65 19.45 39.95 19.25 39.65 18.45 M49.65 16.05 Q50.1 15.45 51.2 15.15 52.2 15.1 53.2 15.1 51.7 16.0 50.1 16.2 L49.65 16.05 M55.55 15.05 L56.0 14.45 57.7 14.5 57.8 15.45 57.0 15.85 56.35 15.8 55.6 15.05 55.6 15.05 M57.95 12.3 Q57.7 11.65 58.6 11.6 L60.05 11.95 Q59.95 12.5 59.1 12.75 58.5 12.6 58.0 12.35 M61.85 10.35 Q62.4 9.9 63.0 9.55 L64.7 8.85 66.05 8.7 67.0 9.0 67.9 9.2 67.9 9.6 67.75 10.2 67.5 10.3 66.75 10.6 66.2 10.7 65.2 10.9 64.25 11.2 63.1 11.2 62.9 11.2 62.05 11.05 61.85 10.35 61.85 10.3 M68.7 8.8 L68.9 8.3 70.1 7.6 Q70.95 7.95 71.2 8.2 L71.25 8.65 71.25 8.8 Q71.05 9.85 70.0 9.9 69.3 9.95 68.95 9.5 L68.9 9.45 68.75 9.0 68.75 8.9" fill="none" stroke="#000000" stroke-linecap="round" stroke-linejoin="round" stroke-opacity="0.0" stroke-width="1.0"/>
    </g>
  </defs>
</svg>
