<?xml version="1.0" encoding="UTF-8" standalone="no"?>
<svg xmlns:xlink="http://www.w3.org/1999/xlink" height="21.55px" width="72.85px" xmlns="http://www.w3.org/2000/svg">
  <g transform="matrix(1.0, 0.0, 0.0, 1.0, -0.3, 0.55)">
    <use data-characterId="3363" height="21.55" transform="matrix(1.0, 0.0, 0.0, 1.0, 0.3, -0.55)" width="72.85" xlink:href="#morphshape0"/>
  </g>
  <defs>
    <g id="morphshape0" transform="matrix(1.0, 0.0, 0.0, 1.0, -0.3, 0.55)">
      <path d="M63.35 9.1 L63.35 9.1 63.85 9.85 64.15 9.75 Q64.95 9.6 65.75 9.45 66.9 9.2 68.05 8.95 L68.1 8.45 68.05 7.9 Q67.2 7.75 66.35 7.65 L64.15 8.35 63.35 9.1 M59.3 10.35 L59.3 10.55 59.4 10.85 59.4 11.25 59.5 11.35 59.95 11.7 60.35 11.75 60.75 11.75 60.95 11.55 61.2 11.35 61.3 11.25 61.45 11.0 61.45 10.85 61.35 10.35 61.25 9.85 60.65 9.65 59.8 9.85 Q59.55 10.1 59.3 10.35 M55.1 14.2 Q54.75 15.2 55.1 15.95 56.0 15.8 56.85 15.65 L56.7 14.3 Q55.9 14.25 55.1 14.2 M51.95 16.45 L52.65 16.45 53.4 16.4 54.0 16.0 53.7 15.25 51.9 15.9 51.95 16.45 M48.8 16.9 L49.0 17.3 Q49.45 16.9 49.85 16.5 49.65 16.35 49.0 16.5 48.9 16.7 48.8 16.9 M39.65 19.3 L40.3 20.15 41.45 19.9 41.75 19.1 41.45 18.4 Q40.7 18.3 39.95 18.25 L39.65 19.3 M31.25 17.85 L31.85 18.4 32.95 19.0 34.3 19.1 Q35.2 18.95 35.6 18.15 L35.75 17.7 35.7 17.2 33.6 16.75 Q32.95 16.85 31.5 17.5 L31.25 17.85 M22.1 14.25 L22.1 14.25 22.15 14.65 22.15 14.75 22.3 15.15 22.55 15.6 22.85 15.7 24.15 16.5 25.25 17.0 26.35 17.35 27.35 17.45 28.2 17.45 28.6 17.45 28.8 17.15 29.0 16.75 29.2 16.45 29.15 16.05 29.15 16.0 28.65 15.45 27.8 15.25 27.7 15.25 26.05 14.6 24.95 14.25 22.45 13.8 22.1 14.25 M10.5 14.8 L11.2 14.75 11.8 14.75 14.5 14.65 14.45 14.2 14.45 13.8 13.95 13.6 13.65 13.55 13.15 13.45 11.85 13.25 10.8 14.1 Q10.65 14.45 10.5 14.8 M2.0 7.9 L2.4 8.2 2.5 8.3 Q3.2 8.75 3.9 9.15 L4.3 9.25 5.5 9.65 5.4 9.85 4.95 10.7 5.15 10.95 5.8 11.75 6.75 12.35 6.95 12.45 8.15 12.85 8.35 12.95 9.25 13.25 9.05 13.35 7.95 13.85 7.15 14.85 7.1 15.1 7.1 15.2 7.5 15.65 8.2 15.95 9.1 16.15 10.3 16.35 11.25 16.35 11.65 16.35 12.95 16.35 13.75 16.35 14.45 16.35 15.65 16.3 15.85 16.3 17.05 16.2 17.95 16.2 18.55 16.2 19.05 16.2 20.05 16.1 20.25 16.2 21.15 16.7 21.95 17.2 23.2 17.9 23.5 18.1 24.8 18.8 25.2 19.0 26.35 19.4 27.2 19.75 28.05 20.0 29.05 20.25 29.75 20.45 30.1 20.55 31.0 20.8 31.1 20.8 31.8 20.9 32.1 20.9 33.1 21.0 33.3 21.0 34.5 21.0 35.0 21.0 35.9 21.0 36.7 20.95 37.3 20.95 37.7 20.95 38.7 20.85 39.4 20.85 40.15 20.8 40.85 20.8 41.65 20.7 42.35 20.6 43.35 20.5 43.75 20.5 44.75 20.4 45.45 20.3 46.25 20.15 47.6 19.65 48.2 19.45 48.2 19.45 Q49.15 19.2 50.0 18.2 L50.1 18.1 51.8 17.9 51.8 17.9 53.25 17.7 53.75 17.6 54.85 17.4 55.75 17.2 56.05 17.2 57.1 17.1 57.2 17.1 58.2 16.8 58.3 16.8 58.95 16.7 59.35 16.6 59.55 16.5 60.3 16.15 60.7 15.95 61.55 15.55 62.0 15.25 62.85 14.65 62.95 14.55 62.85 14.45 62.5 14.15 62.0 13.9 61.0 13.65 60.9 13.65 58.9 13.15 59.75 12.95 60.45 12.85 61.95 12.45 62.65 12.25 63.45 12.05 64.45 11.75 64.95 11.55 66.15 11.15 66.75 10.95 67.75 10.4 68.55 10.0 68.75 9.9 69.15 9.65 69.75 9.2 70.1 8.9 70.2 8.8 70.3 8.5 70.6 7.6 70.7 7.1 70.75 6.9 69.35 6.35 69.05 6.25 67.6 5.95 67.2 5.85 66.3 5.75 65.4 5.55 65.0 5.45 63.6 5.2 64.3 4.8 64.9 4.4 65.35 4.0 65.75 3.55 66.05 3.15 66.2 2.95 66.1 2.9 Q65.55 2.7 65.05 2.5 L64.85 2.5 62.9 2.1 62.8 2.1 60.7 1.8 60.0 1.7 59.4 1.65 58.4 1.45 58.1 1.45 57.2 1.35 56.8 1.3 55.9 1.2 55.5 1.1 54.9 1.0 54.4 0.9 53.6 0.8 52.6 0.7 52.3 0.65 50.9 0.4 50.9 0.4 49.7 0.25 49.3 0.25 48.5 0.15 47.9 0.1 47.4 0.0 47.2 0.0 46.5 -0.05 45.5 -0.15 45.1 -0.15 43.5 -0.3 43.2 -0.3 41.15 -0.45 40.6 -0.45 40.0 -0.45 39.2 -0.45 37.7 -0.5 37.4 -0.5 35.7 -0.5 35.4 -0.5 34.7 -0.55 34.3 -0.5 32.95 -0.4 31.95 -0.4 31.75 -0.4 30.45 -0.35 29.95 -0.35 29.25 -0.3 28.55 -0.3 27.75 -0.25 27.5 -0.25 26.4 -0.25 25.9 -0.25 25.45 -0.25 24.85 -0.2 24.25 -0.2 23.65 -0.2 23.45 -0.2 22.4 -0.1 21.8 -0.1 21.0 -0.1 20.05 0.0 19.45 0.0 18.3 0.05 18.0 0.05 16.5 0.05 16.4 0.05 15.15 0.05 14.95 0.05 13.85 0.0 13.55 0.0 12.3 0.15 11.9 0.2 11.2 0.4 11.1 0.4 11.0 0.5 Q10.3 0.8 9.8 1.2 L9.7 1.3 8.9 2.0 8.8 2.1 7.65 3.15 7.4 3.45 6.55 4.45 6.2 5.1 6.1 5.25 5.4 5.45 4.9 5.7 Q4.35 5.85 3.9 6.15 L3.6 6.35 3.0 6.85 2.45 7.35 2.35 7.5 2.0 7.9" fill="#ffffff" fill-opacity="0.61960787" fill-rule="evenodd" stroke="none"/>
      <path d="M2.0 7.9 L2.35 7.5 2.45 7.35 3.0 6.85 3.6 6.35 3.9 6.15 Q4.35 5.85 4.9 5.7 L5.4 5.45 6.1 5.25 6.2 5.1 6.55 4.45 7.4 3.45 7.65 3.15 8.8 2.1 8.9 2.0 9.7 1.3 9.8 1.2 Q10.3 0.8 11.0 0.5 L11.1 0.4 11.2 0.4 11.9 0.2 12.3 0.15 13.55 0.0 13.85 0.0 14.95 0.05 15.15 0.05 16.4 0.05 16.5 0.05 18.0 0.05 18.3 0.05 19.45 0.0 20.05 0.0 21.0 -0.1 21.8 -0.1 22.4 -0.1 23.45 -0.2 23.65 -0.2 24.25 -0.2 24.85 -0.2 25.45 -0.25 25.9 -0.25 26.4 -0.25 27.5 -0.25 27.75 -0.25 28.55 -0.3 29.25 -0.3 29.95 -0.35 30.45 -0.35 31.75 -0.4 31.95 -0.4 32.95 -0.4 34.3 -0.5 34.7 -0.55 35.4 -0.5 35.7 -0.5 37.4 -0.5 37.7 -0.5 39.2 -0.45 40.0 -0.45 40.6 -0.45 41.15 -0.45 43.2 -0.3 43.5 -0.3 45.1 -0.15 45.5 -0.15 46.5 -0.05 47.2 0.0 47.4 0.0 47.9 0.1 48.5 0.15 49.3 0.25 49.7 0.25 50.9 0.4 50.9 0.4 52.3 0.65 52.6 0.7 53.6 0.8 54.4 0.9 54.9 1.0 55.5 1.1 55.9 1.2 56.8 1.3 57.2 1.35 58.1 1.45 58.4 1.45 59.4 1.65 60.0 1.7 60.7 1.8 62.8 2.1 62.9 2.1 64.85 2.5 65.05 2.5 Q65.55 2.7 66.1 2.9 L66.2 2.95 66.05 3.15 65.75 3.55 65.35 4.0 64.9 4.4 64.3 4.8 63.6 5.2 65.0 5.45 65.4 5.55 66.3 5.75 67.2 5.85 67.6 5.95 69.05 6.25 69.35 6.35 70.75 6.9 70.7 7.1 70.6 7.6 70.3 8.5 70.2 8.8 70.1 8.9 69.75 9.2 69.15 9.65 68.75 9.9 68.55 10.0 67.75 10.4 66.75 10.95 66.15 11.15 64.95 11.55 64.45 11.75 63.45 12.05 62.65 12.25 61.95 12.45 60.45 12.85 59.75 12.95 58.9 13.15 60.9 13.65 61.0 13.65 62.0 13.9 62.5 14.15 62.85 14.45 62.95 14.55 62.85 14.65 62.0 15.25 61.55 15.55 60.7 15.95 60.3 16.15 59.55 16.5 59.35 16.6 58.95 16.7 58.3 16.8 58.2 16.8 57.2 17.1 57.1 17.1 56.05 17.2 55.75 17.2 54.85 17.4 53.75 17.6 53.25 17.7 51.8 17.9 51.8 17.9 50.1 18.1 50.0 18.2 Q49.15 19.2 48.2 19.45 L48.2 19.45 47.6 19.65 46.25 20.15 45.45 20.3 44.75 20.4 43.75 20.5 43.35 20.5 42.35 20.6 41.65 20.7 40.85 20.8 40.15 20.8 39.4 20.85 38.7 20.85 37.7 20.95 37.3 20.95 36.7 20.95 35.9 21.0 35.0 21.0 34.5 21.0 33.3 21.0 33.1 21.0 32.1 20.9 31.8 20.9 31.1 20.8 31.0 20.8 30.1 20.55 29.75 20.45 29.05 20.25 28.05 20.0 27.2 19.75 26.35 19.4 25.2 19.0 24.8 18.8 23.5 18.1 23.2 17.9 21.95 17.2 21.15 16.7 20.25 16.2 20.05 16.1 19.05 16.2 18.55 16.2 17.95 16.2 17.05 16.2 15.85 16.3 15.65 16.3 14.45 16.35 13.75 16.35 12.95 16.35 11.65 16.35 11.25 16.35 10.3 16.35 9.1 16.15 8.2 15.95 7.5 15.65 7.1 15.2 7.1 15.1 7.15 14.85 7.95 13.85 9.05 13.35 9.25 13.25 8.35 12.95 8.15 12.85 6.95 12.45 6.75 12.35 5.8 11.75 5.15 10.95 4.95 10.7 5.4 9.85 5.5 9.65 4.3 9.25 3.9 9.15 Q3.2 8.75 2.5 8.3 L2.4 8.2 2.0 7.9 M10.5 14.8 Q10.65 14.45 10.8 14.1 L11.85 13.25 13.15 13.45 13.65 13.55 13.95 13.6 14.45 13.8 14.45 14.2 14.5 14.65 11.8 14.75 11.2 14.75 10.5 14.8 M22.1 14.25 L22.45 13.8 24.95 14.25 26.05 14.6 27.7 15.25 27.8 15.25 28.65 15.45 29.15 16.0 29.15 16.05 29.2 16.45 29.0 16.75 28.8 17.15 28.6 17.45 28.2 17.45 27.35 17.45 26.35 17.35 25.25 17.0 24.15 16.5 22.85 15.7 22.55 15.6 22.3 15.15 22.15 14.75 22.15 14.65 22.1 14.25 22.1 14.25 M31.25 17.85 L31.5 17.5 Q32.95 16.85 33.6 16.75 L35.7 17.2 35.75 17.7 35.6 18.15 Q35.2 18.95 34.3 19.1 L32.95 19.0 31.85 18.4 31.25 17.85 M39.65 19.3 L39.95 18.25 Q40.7 18.3 41.45 18.4 L41.75 19.1 41.45 19.9 40.3 20.15 39.65 19.3 M48.8 16.9 Q48.9 16.7 49.0 16.5 49.65 16.35 49.85 16.5 49.45 16.9 49.0 17.3 L48.8 16.9 M51.95 16.45 L51.9 15.9 53.7 15.25 54.0 16.0 53.4 16.4 52.65 16.45 51.95 16.45 M55.1 14.2 Q55.9 14.25 56.7 14.3 L56.85 15.65 Q56.0 15.8 55.1 15.95 54.75 15.2 55.1 14.2 M59.3 10.35 Q59.55 10.1 59.8 9.85 L60.65 9.65 61.25 9.85 61.35 10.35 61.45 10.85 61.45 11.0 61.3 11.25 61.2 11.35 60.95 11.55 60.75 11.75 60.35 11.75 59.95 11.7 59.5 11.35 59.4 11.25 59.4 10.85 59.3 10.55 59.3 10.35 M63.35 9.1 L64.15 8.35 66.35 7.65 Q67.2 7.75 68.05 7.9 L68.1 8.45 68.05 8.95 Q66.9 9.2 65.75 9.45 64.95 9.6 64.15 9.75 L63.85 9.85 63.35 9.1 63.35 9.1 Z" fill="none" stroke="#000000" stroke-linecap="round" stroke-linejoin="round" stroke-opacity="0.0" stroke-width="1.0"/>
    </g>
  </defs>
</svg>
