<?xml version="1.0" encoding="UTF-8" standalone="no"?>
<svg xmlns:xlink="http://www.w3.org/1999/xlink" height="12.65px" width="30.7px" xmlns="http://www.w3.org/2000/svg">
  <g transform="matrix(1.0, 0.0, 0.0, 1.0, 1, 2.1)">
    <path d="M8.65 -1.1 L28.7 -1.1 28.7 9.55 5.7 9.55 5.7 8.8 8.5 8.4 9.65 8.4 Q15.7 8.15 17.8 5.65 L16.4 4.75 18.45 3.6 16.75 2.9 14.7 2.45 16.3 1.7 8.85 -1.0 8.65 -1.1 M15.55 1.15 L15.85 1.1 Q15.7 0.1 13.85 0.1 13.65 0.1 13.55 0.25 L14.25 0.75 Q14.8 1.15 15.55 1.15 M16.85 1.25 L16.7 1.25 16.65 1.4 16.85 1.6 17.2 1.6 17.2 1.4 Q17.1 1.25 16.85 1.25 M19.75 2.55 L19.7 2.45 19.2 2.45 19.2 2.65 19.3 2.7 19.6 2.75 19.75 2.55 M17.8 2.75 L17.85 2.45 16.45 2.2 Q16.05 2.2 16.05 2.4 16.05 2.65 17.4 3.0 L18.8 3.25 17.8 2.75 M20.6 5.6 L20.55 5.4 20.4 5.4 20.4 5.55 20.6 5.6 M12.8 -0.45 L12.25 -0.6 12.0 -0.55 Q11.9 -0.15 12.6 0.0 L13.2 0.0 12.8 -0.45 M20.15 4.55 L20.2 4.4 20.15 4.3 20.0 4.35 20.1 4.6 20.15 4.55 M19.95 3.45 L19.85 3.25 19.7 3.3 19.75 3.5 19.95 3.45 M17.2 5.0 L17.25 5.2 18.25 5.3 19.5 5.05 Q18.55 4.95 18.55 4.5 L17.9 4.5 17.2 5.0 M16.4 8.3 L16.45 8.4 16.55 8.4 16.6 8.25 16.55 8.15 16.4 8.3 M17.7 7.1 L17.35 7.15 17.4 7.1 17.75 6.65 17.7 6.5 Q17.4 6.55 16.8 7.0 L16.15 7.55 16.2 7.7 16.45 7.7 17.7 7.1 M18.55 6.9 L18.85 6.7 18.7 6.65 18.5 6.8 18.55 6.9 M13.8 8.45 L14.4 8.45 Q15.35 8.2 15.35 7.95 L15.3 7.85 14.25 8.05 13.75 8.35 13.8 8.45" fill="#e9a7a7" fill-rule="evenodd" stroke="none"/>
    <path d="M8.0 0.05 L8.9 0.3 9.4 0.45 Q10.85 0.95 11.5 1.3 L11.55 1.35 10.1 1.95 9.1 2.15 7.25 2.25 6.1 1.65 5.8 2.0 Q5.6 2.0 5.5 1.75 L5.45 1.5 5.45 1.4 4.3 1.05 5.6 0.7 5.6 0.65 5.9 0.4 6.65 0.2 7.0 0.2 7.05 0.3 7.05 0.35 8.0 0.05 M8.25 3.05 L9.65 2.95 11.3 3.0 11.5 2.8 12.0 2.75 13.9 3.15 13.75 3.4 14.35 3.6 15.75 4.35 15.8 4.4 9.4 5.5 8.8 5.5 7.3 5.45 Q7.75 5.2 8.2 5.2 L8.4 5.25 10.55 4.3 9.5 3.6 9.5 3.75 9.15 3.75 Q8.45 3.5 8.25 3.05 M5.65 6.55 L5.9 6.5 8.95 6.3 12.6 6.4 12.65 6.45 9.55 7.2 9.05 7.25 6.75 7.55 6.3 7.25 6.0 6.95 6.1 6.8 5.65 6.55 M16.0 3.8 L15.55 3.8 Q14.6 3.5 14.55 3.1 L14.8 3.05 15.5 3.2 Q15.95 3.45 16.0 3.8 M12.95 1.55 L11.5 1.95 11.6 1.8 11.85 1.5 Q12.05 1.4 12.3 1.25 L12.95 1.25 12.95 1.55 M11.25 2.5 L11.25 2.65 10.5 2.65 10.45 2.45 11.15 2.45 11.25 2.5 M11.85 6.0 L13.6 5.6 13.95 5.65 14.55 5.85 14.6 5.95 Q14.6 6.4 13.65 6.4 L12.65 6.2 11.9 6.1 11.85 6.0" fill="#ffffff" fill-rule="evenodd" stroke="none"/>
    <path d="M5.7 8.3 L5.55 8.3 0.0 6.35 6.75 4.55 8.2 4.05 8.1 3.95 2.3 1.0 6.9 -0.6 7.05 -0.6 8.85 -0.3 9.05 -0.3 8.85 -0.25 8.55 -0.15 8.5 -0.15 7.15 -0.35 3.45 1.0 4.05 1.4 4.45 1.85 5.15 2.25 5.4 2.25 5.5 2.25 5.55 2.2 5.65 2.25 6.7 2.75 9.0 4.4 7.2 5.2 6.9 5.0 Q6.3 5.0 6.15 5.45 L6.15 5.5 5.2 5.7 5.15 5.7 5.15 5.5 4.6 5.5 3.85 5.75 Q3.5 5.8 3.5 5.9 L3.6 6.1 3.65 6.15 2.3 6.8 Q3.6 6.75 5.7 7.6 L5.8 7.65 7.2 8.15 5.7 8.3 M6.3 2.1 L6.2 1.9 6.35 1.85 6.8 2.1 6.95 2.25 7.05 2.6 6.45 2.4 6.35 2.25 6.3 2.1 M5.4 1.75 L5.1 1.65 5.2 1.45 5.4 1.7 5.4 1.75 M7.6 4.7 L7.8 4.7 7.9 4.4 7.55 4.45 7.6 4.7 M5.0 6.1 L4.7 6.55 4.3 6.55 4.25 6.45 4.55 6.15 4.95 5.95 5.0 6.1 M3.1 6.0 L2.95 6.0 Q2.25 6.0 2.25 6.25 L2.3 6.35 2.8 6.35 3.15 6.1 3.1 6.0 M3.6 6.55 L3.6 6.65 3.4 6.7 3.35 6.6 3.45 6.55 3.45 6.5 3.6 6.55" fill="#ff1212" fill-rule="evenodd" stroke="none"/>
    <path d="M7.2 8.15 L5.8 7.65 5.7 7.6 Q3.6 6.75 2.3 6.8 L3.65 6.15 3.6 6.1 3.5 5.9 Q3.5 5.8 3.85 5.75 L4.6 5.5 5.15 5.5 5.15 5.7 5.2 5.7 6.15 5.5 6.15 5.45 Q6.3 5.0 6.9 5.0 L7.2 5.2 9.0 4.4 6.7 2.75 5.65 2.25 5.55 2.2 5.5 2.25 5.4 2.25 5.15 2.25 4.45 1.85 4.05 1.4 3.45 1.0 7.15 -0.35 8.5 -0.15 8.3 -0.1 8.0 0.05 7.05 0.35 7.05 0.3 7.0 0.2 6.65 0.2 5.9 0.4 5.6 0.65 5.6 0.7 4.3 1.05 5.45 1.4 5.45 1.5 5.5 1.75 Q5.6 2.0 5.8 2.0 L6.1 1.65 7.25 2.25 8.15 2.8 8.25 3.05 Q8.45 3.5 9.15 3.75 L9.5 3.75 9.5 3.6 10.55 4.3 8.4 5.25 8.2 5.2 Q7.75 5.2 7.3 5.45 L7.2 5.5 6.7 5.95 6.55 6.05 6.55 6.0 6.5 5.9 5.7 5.9 5.7 6.15 5.95 6.3 5.5 6.45 5.65 6.55 6.1 6.8 6.0 6.95 6.3 7.25 6.75 7.55 6.8 7.55 7.3 7.55 7.95 7.9 8.0 7.9 8.4 8.05 7.2 8.15 M5.4 1.75 L5.4 1.7 5.2 1.45 5.1 1.65 5.4 1.75 M6.3 2.1 L6.35 2.25 6.45 2.4 7.05 2.6 6.95 2.25 6.8 2.1 6.35 1.85 6.2 1.9 6.3 2.1 M7.6 4.7 L7.55 4.45 7.9 4.4 7.8 4.7 7.6 4.7 M5.0 6.1 L4.95 5.95 4.55 6.15 4.25 6.45 4.3 6.55 4.7 6.55 5.0 6.1 M3.1 6.0 L3.15 6.1 2.8 6.35 2.3 6.35 2.25 6.25 Q2.25 6.0 2.95 6.0 L3.1 6.0 M3.6 6.55 L3.45 6.5 3.45 6.55 3.35 6.6 3.4 6.7 3.6 6.65 3.6 6.55" fill="#ff6969" fill-rule="evenodd" stroke="none"/>
    <path d="M12.8 -0.45 L13.2 0.0 12.6 0.0 Q11.9 -0.15 12.0 -0.55 L12.25 -0.6 12.8 -0.45 M20.6 5.6 L20.4 5.55 20.4 5.4 20.55 5.4 20.6 5.6 M17.8 2.75 L18.8 3.25 17.4 3.0 Q16.05 2.65 16.05 2.4 16.05 2.2 16.45 2.2 L17.85 2.45 17.8 2.75 M19.75 2.55 L19.6 2.75 19.3 2.7 19.2 2.65 19.2 2.45 19.7 2.45 19.75 2.55 M16.85 1.25 Q17.1 1.25 17.2 1.4 L17.2 1.6 16.85 1.6 16.65 1.4 16.7 1.25 16.85 1.25 M15.55 1.15 Q14.8 1.15 14.25 0.75 L13.55 0.25 Q13.65 0.1 13.85 0.1 15.7 0.1 15.85 1.1 L15.55 1.15 M17.2 5.0 L17.9 4.5 18.55 4.5 Q18.55 4.95 19.5 5.05 L18.25 5.3 17.25 5.2 17.2 5.0 M19.95 3.45 L19.75 3.5 19.7 3.3 19.85 3.25 19.95 3.45 M20.15 4.55 L20.1 4.6 20.0 4.35 20.15 4.3 20.2 4.4 20.15 4.55 M13.8 8.45 L13.75 8.35 14.25 8.05 15.3 7.85 15.35 7.95 Q15.35 8.2 14.4 8.45 L13.8 8.45 M18.55 6.9 L18.5 6.8 18.7 6.65 18.85 6.7 18.55 6.9 M17.7 7.1 L16.45 7.7 16.2 7.7 16.15 7.55 16.8 7.0 Q17.4 6.55 17.7 6.5 L17.75 6.65 17.4 7.1 17.35 7.15 17.7 7.1 M16.4 8.3 L16.55 8.15 16.6 8.25 16.55 8.4 16.45 8.4 16.4 8.3" fill="#f5c8c8" fill-rule="evenodd" stroke="none"/>
    <path d="M8.5 -0.15 L8.55 -0.15 8.9 -0.1 11.85 0.55 12.8 0.75 12.9 0.75 13.2 0.8 13.8 1.1 14.95 1.7 14.95 1.95 11.9 2.25 14.25 2.6 Q16.1 2.95 16.95 3.45 17.0 4.25 14.95 5.1 L14.9 5.15 15.9 5.5 Q16.5 5.65 16.5 5.85 L16.25 6.05 16.25 6.1 15.05 6.5 15.0 6.5 13.6 6.9 11.85 7.3 9.6 7.7 8.0 7.9 7.95 7.9 7.3 7.55 6.8 7.55 6.75 7.55 9.05 7.25 9.55 7.2 12.65 6.45 12.6 6.4 8.95 6.3 5.9 6.5 5.65 6.55 5.5 6.45 5.95 6.3 5.7 6.15 5.7 5.9 6.5 5.9 6.55 6.0 6.55 6.05 6.7 5.95 7.2 5.5 7.3 5.45 8.8 5.5 9.4 5.5 15.8 4.4 15.75 4.35 14.35 3.6 13.75 3.4 13.9 3.15 12.0 2.75 11.5 2.8 11.3 3.0 9.65 2.95 8.25 3.05 8.15 2.8 7.25 2.25 9.1 2.15 10.1 1.95 11.55 1.35 11.5 1.3 Q10.85 0.95 9.4 0.45 L8.9 0.3 8.0 0.05 8.3 -0.1 8.5 -0.15 M16.0 3.8 Q15.95 3.45 15.5 3.2 L14.8 3.05 14.55 3.1 Q14.6 3.5 15.55 3.8 L16.0 3.8 M11.85 6.0 L11.9 6.1 12.65 6.2 13.65 6.4 Q14.6 6.4 14.6 5.95 L14.55 5.85 13.95 5.65 13.6 5.6 11.85 6.0 M11.25 2.5 L11.15 2.45 10.45 2.45 10.5 2.65 11.25 2.65 11.25 2.5 M12.95 1.55 L12.95 1.25 12.3 1.25 Q12.05 1.4 11.85 1.5 L11.6 1.8 11.5 1.95 12.95 1.55" fill="#c4e1f5" fill-rule="evenodd" stroke="none"/>
    <path d="M7.05 -0.6 L7.05 -1.1 8.65 -1.1 8.85 -1.0 16.3 1.7 14.7 2.45 16.75 2.9 18.45 3.6 16.4 4.75 17.8 5.65 Q15.7 8.15 9.65 8.4 L8.5 8.4 5.7 8.8 5.7 8.3 7.2 8.15 8.4 8.05 8.0 7.9 9.6 7.7 11.85 7.3 13.6 6.9 15.0 6.5 15.05 6.5 16.25 6.1 16.25 6.05 16.5 5.85 Q16.5 5.65 15.9 5.5 L14.9 5.15 14.95 5.1 Q17.0 4.25 16.95 3.45 16.1 2.95 14.25 2.6 L11.9 2.25 14.95 1.95 14.95 1.7 13.8 1.1 13.2 0.8 12.9 0.75 12.8 0.75 11.85 0.55 8.9 -0.1 8.55 -0.15 8.85 -0.25 9.05 -0.3 8.85 -0.3 7.05 -0.6" fill="#bb7d7d" fill-rule="evenodd" stroke="none"/>
  </g>
</svg>