<?xml version="1.0" encoding="UTF-8" standalone="no"?>
<svg xmlns:xlink="http://www.w3.org/1999/xlink" height="18.25px" width="31.05px" xmlns="http://www.w3.org/2000/svg">
  <g transform="matrix(1.0, 0.0, 0.0, 1.0, -52.05, -2.45)">
    <path d="M77.05 5.95 L75.75 5.55 72.8 5.0 75.5 5.15 77.5 5.95 Q78.25 6.0 79.8 6.65 82.1 7.6 82.1 8.3 82.1 8.9 78.7 10.4 75.3 11.95 73.7 12.05 L71.45 12.5 Q71.1 12.5 71.05 12.35 74.0 11.3 75.55 11.05 L77.55 10.15 81.2 8.35 Q80.7 7.7 79.3 7.1 L76.9 6.0 77.05 5.95 M74.5 7.85 L68.8 6.8 Q67.05 6.45 67.05 5.85 L67.45 5.05 67.85 4.6 Q62.5 4.35 61.1 4.45 L61.1 4.3 63.25 3.85 66.85 3.75 67.15 3.5 68.8 3.45 69.05 3.6 69.15 4.0 68.65 4.9 67.95 5.8 Q72.55 6.0 74.25 6.8 75.4 7.3 75.4 8.25 75.4 9.35 70.7 11.25 66.3 13.1 63.85 13.35 L65.4 14.05 65.65 14.65 Q65.65 15.4 63.25 17.05 60.75 18.7 59.55 18.55 L59.55 18.7 55.1 19.2 53.1 19.7 53.05 19.55 Q53.9 19.05 56.35 18.55 L61.05 17.4 62.9 16.2 64.6 14.7 62.7 13.85 Q62.15 13.6 62.45 13.3 62.7 12.95 68.35 10.85 74.0 8.75 74.4 8.15 L74.5 7.85" fill="#ffffff" fill-opacity="0.61960787" fill-rule="evenodd" stroke="none"/>
  </g>
</svg>