<?xml version="1.0" encoding="UTF-8" standalone="no"?>
<svg xmlns:xlink="http://www.w3.org/1999/xlink" height="59.95px" width="80.6px" xmlns="http://www.w3.org/2000/svg">
  <g transform="matrix(1.0, 0.0, 0.0, 1.0, 1, 1)">
    <path d="M73.7 2.35 L73.95 4.45 74.0 4.85 74.05 5.8 74.05 6.15 Q74.1 9.35 72.7 11.55 71.3 13.75 67.05 17.0 L63.7 18.85 59.25 20.15 48.35 20.75 Q46.15 21.1 42.95 23.2 L42.3 23.6 39.0 26.05 38.95 26.1 Q37.3 27.65 37.4 29.15 L37.85 31.55 38.6 31.45 Q41.25 31.25 44.6 32.2 L47.45 34.1 Q49.75 35.65 50.85 35.65 L53.1 35.7 53.2 35.7 53.45 35.65 54.15 35.45 55.35 35.2 57.95 34.55 58.4 34.45 63.05 33.5 66.6 33.5 Q71.0 34.15 76.4 35.55 L76.7 35.7 Q78.5 36.45 78.6 37.35 L77.05 37.35 73.5 37.75 Q72.6 37.95 71.8 38.4 70.5 39.05 69.35 40.1 L69.25 40.25 67.05 43.25 Q67.05 43.8 67.6 44.3 68.25 44.85 69.3 45.05 L71.8 45.05 73.0 44.8 Q72.6 45.7 69.9 46.7 L68.05 47.25 66.7 47.25 64.8 46.8 64.35 46.15 62.0 43.4 60.15 41.9 Q58.85 40.85 57.1 40.45 L56.4 40.35 Q53.45 39.85 49.2 40.85 L46.1 37.8 Q43.4 35.5 40.2 35.5 L39.85 35.5 38.35 35.55 33.1 36.25 30.65 36.55 28.15 36.95 Q27.05 37.6 25.75 38.6 L24.1 39.9 22.6 42.05 19.55 46.75 17.45 48.85 15.05 50.9 11.1 55.1 8.9 56.95 7.85 57.95 Q6.5 56.6 4.35 53.35 L3.3 51.75 3.05 51.35 0.7 47.55 0.75 46.95 0.65 44.6 0.15 43.1 Q-0.15 42.35 0.2 40.85 L0.2 40.8 2.5 42.0 2.95 42.25 4.8 42.75 Q9.2 43.15 10.65 42.7 L13.45 40.2 17.8 36.3 21.1 33.8 23.2 32.55 Q24.0 31.95 24.55 31.6 L24.8 31.65 24.9 32.3 Q25.15 32.95 25.95 32.95 L28.35 32.05 30.45 30.9 30.7 30.8 32.85 29.2 32.4 27.8 Q31.95 26.9 31.95 26.35 31.95 25.5 32.25 24.6 L32.4 24.2 33.25 22.5 Q34.7 20.3 37.5 18.65 L38.7 18.0 39.55 17.5 Q44.55 14.9 49.35 14.3 52.3 13.9 54.0 14.25 58.15 13.55 59.75 12.05 60.95 10.95 60.95 9.1 60.95 7.8 60.65 7.3 59.9 5.95 57.35 6.7 56.05 7.1 54.2 8.1 53.55 8.45 53.1 8.75 L53.0 8.4 Q52.85 8.1 53.6 6.45 54.35 4.8 55.8 3.85 57.2 2.85 61.0 3.05 L62.7 3.1 65.0 2.9 66.4 2.5 66.9 2.3 69.8 0.95 69.9 0.9 71.65 0.1 Q72.85 -0.4 73.4 1.3 L73.7 2.35 M73.35 6.9 L73.3 5.6 Q73.05 3.15 72.25 0.95 L70.05 2.05 69.3 2.45 66.9 3.55 65.5 3.95 64.15 4.1 61.5 4.05 59.1 3.8 61.0 6.3 Q61.75 8.1 61.75 9.05 61.75 11.05 59.95 12.55 L57.6 14.2 52.7 14.9 Q49.0 14.75 44.7 16.0 41.75 16.85 39.5 18.3 L39.15 18.55 Q35.5 20.85 33.65 24.6 L33.15 25.6 33.05 26.35 33.45 27.95 34.1 29.35 33.4 29.9 32.4 30.6 31.4 31.15 29.85 31.9 29.45 32.1 Q27.3 33.15 27.15 33.3 26.7 33.7 26.5 34.25 L26.75 34.35 26.55 34.25 27.15 34.2 28.2 34.05 34.35 32.8 34.5 32.75 36.75 31.75 36.85 31.75 36.45 27.7 Q36.45 27.2 39.05 25.0 L40.25 24.0 42.35 22.4 Q44.95 20.6 47.25 20.05 50.45 19.2 56.8 19.3 60.7 19.3 64.1 17.7 L68.25 14.95 Q73.35 10.5 73.35 7.05 L73.35 6.9 M57.1 6.15 L60.05 6.2 Q57.55 2.9 55.9 4.45 54.25 5.95 53.85 7.55 55.4 6.7 57.1 6.15 M55.95 35.6 L55.7 35.65 53.65 36.25 53.15 36.4 51.6 36.85 51.45 36.85 49.7 36.8 46.85 34.55 Q43.7 32.5 40.75 32.5 L37.9 32.55 Q37.5 32.6 36.05 33.15 L35.55 33.3 33.1 33.8 32.5 33.9 29.45 34.55 Q28.35 34.8 32.3 35.4 L38.8 34.5 43.85 35.45 Q44.2 35.7 47.5 37.35 49.3 38.25 49.8 39.4 L56.15 39.3 56.75 39.3 57.15 39.35 58.6 39.85 61.55 41.75 63.05 43.8 64.65 45.65 64.9 45.85 65.25 45.55 Q65.6 43.2 67.35 40.9 68.1 39.95 69.0 39.25 71.45 37.25 75.15 36.85 L75.8 36.8 75.5 36.65 Q71.5 34.45 64.9 34.45 L58.15 35.15 55.95 35.6 M69.35 45.7 L69.45 45.6 67.45 45.3 66.75 45.15 Q66.75 45.85 66.9 46.2 L68.85 45.9 69.35 45.7 M1.55 45.6 L1.4 45.7 1.45 46.65 1.85 47.15 3.85 48.4 Q5.55 49.4 7.4 49.3 9.25 49.2 12.0 47.55 L13.75 46.15 14.9 44.4 Q15.2 43.8 16.05 42.7 L17.3 40.95 19.05 38.9 19.5 38.4 20.25 37.5 21.8 35.9 23.2 34.15 25.0 33.2 24.5 32.75 23.25 33.25 22.9 33.45 22.85 33.45 22.75 33.5 22.15 33.9 19.9 35.6 19.4 35.95 19.4 36.0 18.3 36.9 14.85 39.9 10.95 43.2 6.55 43.7 3.7 43.1 2.95 43.0 0.65 41.85 0.85 42.85 0.9 43.2 0.95 43.3 1.5 44.45 Q1.95 45.15 3.45 45.55 L6.65 45.75 8.15 45.55 9.35 45.3 10.4 45.3 10.45 45.35 Q9.6 45.4 8.3 45.85 L5.45 46.6 Q2.95 46.2 1.55 45.6 M21.8 36.5 L21.65 36.7 19.4 39.25 Q15.05 44.35 14.45 45.8 L13.0 48.2 12.2 48.35 9.95 49.2 6.7 49.9 Q5.9 50.05 5.5 50.35 L3.15 49.05 2.5 48.6 3.2 50.0 3.75 51.0 Q5.85 54.5 7.95 57.15 L13.8 51.7 Q16.8 48.6 17.15 46.65 L18.05 45.4 18.75 44.35 19.45 42.75 20.65 40.65 21.85 38.65 22.05 38.35 22.1 38.3 24.3 35.8 25.15 34.25 Q25.1 33.95 25.2 33.7 L25.35 33.35 Q24.25 33.85 21.8 36.5 M19.6 43.4 L19.5 43.55 17.8 46.0 17.4 48.15 21.9 42.15 Q25.15 38.0 28.95 35.85 L28.9 35.1 27.35 34.65 26.35 35.15 26.1 35.3 23.9 36.95 Q22.4 38.15 21.2 40.3 L19.6 43.4 M17.15 46.65 L17.1 46.75 17.1 46.7 17.15 46.65" fill="#a36a6a" fill-rule="evenodd" stroke="none"/>
    <path d="M61.5 4.05 L64.15 4.1 65.5 3.95 66.9 3.55 69.3 2.45 70.05 2.05 72.25 0.95 Q73.05 3.15 73.3 5.6 L73.35 6.9 73.25 6.95 71.15 7.65 70.7 6.05 Q69.95 6.35 69.05 7.65 68.4 8.65 67.05 8.65 66.75 8.65 66.7 7.8 66.7 6.65 66.3 6.05 65.9 5.55 61.5 4.05 M33.05 26.35 L33.15 25.6 33.65 24.6 35.25 24.65 37.8 22.45 39.9 20.25 Q40.65 19.6 41.7 19.0 42.75 18.35 45.4 17.95 L52.6 17.75 Q44.05 18.1 42.4 19.3 L40.85 20.6 39.25 22.2 37.25 24.35 35.9 25.25 33.6 26.35 33.05 26.35 M64.5 6.3 L65.75 7.05 Q66.1 7.25 66.1 8.35 L65.8 9.55 65.35 10.9 Q65.0 12.2 64.35 12.45 L64.1 9.35 63.75 6.15 Q63.6 5.75 64.5 6.3 M51.45 36.85 L51.6 36.85 53.15 36.4 53.65 36.25 55.7 35.65 55.95 35.6 Q54.75 36.15 54.35 36.9 L54.6 36.95 56.05 37.05 57.15 37.05 Q58.8 37.0 59.55 37.65 60.85 38.85 62.85 39.65 64.85 40.45 65.7 40.2 L69.0 39.25 Q68.1 39.95 67.35 40.9 L64.0 42.1 62.5 40.95 Q60.95 39.35 58.9 38.05 L57.25 37.75 54.75 37.6 54.55 37.6 50.55 37.4 Q50.7 37.25 51.45 36.85 M14.8 41.0 Q14.8 41.55 12.95 42.75 L12.85 42.75 13.5 42.0 13.35 41.75 13.9 41.2 Q14.5 40.8 14.75 40.8 L14.8 41.0 M13.1 43.9 Q11.65 46.0 9.5 46.15 L10.45 45.6 Q11.0 45.3 11.2 44.9 12.3 43.65 13.05 43.7 L13.1 43.9 M11.55 49.15 L11.6 49.3 10.35 50.2 8.6 50.75 8.25 50.7 8.15 50.6 Q8.2 49.8 9.5 49.5 L11.4 49.1 11.55 49.15" fill="#f2eaea" fill-rule="evenodd" stroke="none"/>
    <path d="M61.5 4.05 Q65.9 5.55 66.3 6.05 66.7 6.65 66.7 7.8 66.75 8.65 67.05 8.65 68.4 8.65 69.05 7.65 69.95 6.35 70.7 6.05 L71.15 7.65 73.25 6.95 73.35 6.9 73.35 7.05 Q73.1 9.95 68.1 13.9 63.05 17.85 58.25 17.85 L52.0 17.65 52.6 17.75 45.4 17.95 Q42.75 18.35 41.7 19.0 40.65 19.6 39.9 20.25 L37.8 22.45 35.25 24.65 33.65 24.6 Q35.5 20.85 39.15 18.55 L39.5 18.3 Q41.75 16.85 44.7 16.0 49.0 14.75 52.7 14.9 L57.6 14.2 59.95 12.55 Q61.75 11.05 61.75 9.05 61.75 8.1 61.0 6.3 L59.1 3.8 61.5 4.05 M29.45 32.1 L29.85 31.9 31.4 31.15 32.4 30.6 32.65 30.6 34.2 31.0 Q33.8 31.55 32.8 31.9 L29.9 32.25 29.45 32.1 M64.5 6.3 Q63.6 5.75 63.75 6.15 L64.1 9.35 64.35 12.45 Q65.0 12.2 65.35 10.9 L65.8 9.55 66.1 8.35 Q66.1 7.25 65.75 7.05 L64.5 6.3 M69.0 39.25 L65.7 40.2 Q64.85 40.45 62.85 39.65 60.85 38.85 59.55 37.65 58.8 37.0 57.15 37.05 L56.05 37.05 54.6 36.95 54.35 36.9 Q54.75 36.15 55.95 35.6 L58.15 35.15 64.9 34.45 Q71.5 34.45 75.5 36.65 L75.8 36.8 75.15 36.85 Q71.45 37.25 69.0 39.25 M46.85 34.55 L47.7 35.8 47.3 35.9 Q46.4 35.9 45.45 35.35 44.15 34.6 42.35 34.05 L38.45 33.65 37.85 33.7 36.6 33.85 34.05 34.1 32.2 34.2 32.0 34.2 32.5 33.9 33.1 33.8 35.55 33.3 36.05 33.15 Q37.5 32.6 37.9 32.55 L40.75 32.5 Q43.7 32.5 46.85 34.55 M18.3 36.9 L17.2 38.1 15.85 40.35 13.5 42.85 13.2 43.15 14.95 42.2 14.95 42.3 Q13.9 44.4 11.75 45.9 9.55 47.4 6.85 47.25 L3.4 46.85 Q2.65 46.65 1.55 45.65 L1.55 45.6 Q2.95 46.2 5.45 46.6 L8.3 45.85 Q9.6 45.4 10.45 45.35 L10.4 45.3 9.35 45.3 10.45 44.7 10.9 44.45 9.35 44.65 5.4 44.3 1.75 43.2 0.85 42.85 0.65 41.85 2.95 43.0 3.7 43.1 6.55 43.7 10.95 43.2 14.85 39.9 18.3 36.9 M3.75 51.0 L3.2 50.0 2.5 48.6 3.15 49.05 5.5 50.35 Q5.9 50.05 6.7 49.9 L9.95 49.2 12.2 48.35 13.0 48.2 14.45 45.8 Q15.05 44.35 19.4 39.25 L21.65 36.7 21.8 36.5 21.8 36.6 18.45 40.95 15.8 45.75 Q14.0 49.1 11.7 50.15 L8.3 51.55 6.8 51.9 5.25 51.4 3.75 51.0 M11.55 49.15 L11.4 49.1 9.5 49.5 Q8.2 49.8 8.15 50.6 L8.25 50.7 8.6 50.75 10.35 50.2 11.6 49.3 11.55 49.15 M13.1 43.9 L13.05 43.7 Q12.3 43.65 11.2 44.9 11.0 45.3 10.45 45.6 L9.5 46.15 Q11.65 46.0 13.1 43.9 M14.8 41.0 L14.75 40.8 Q14.5 40.8 13.9 41.2 L13.35 41.75 13.5 42.0 12.85 42.75 12.95 42.75 Q14.8 41.55 14.8 41.0 M14.65 49.3 L14.65 49.4 12.5 51.5 Q10.55 53.0 8.35 53.95 8.5 53.6 10.0 52.35 L11.3 51.25 Q11.4 51.2 11.55 51.1 L11.8 50.95 14.65 49.3 M26.35 35.15 L19.6 43.4 21.2 40.3 Q22.4 38.15 23.9 36.95 L26.1 35.3 26.35 35.15" fill="#e0cbcb" fill-rule="evenodd" stroke="none"/>
    <path d="M73.35 7.05 Q73.35 10.5 68.25 14.95 L64.1 17.7 Q60.7 19.3 56.8 19.3 50.45 19.2 47.25 20.05 44.95 20.6 42.35 22.4 L40.25 24.0 39.05 25.0 Q36.45 27.2 36.45 27.7 L36.85 31.75 36.75 31.75 34.5 32.75 34.35 32.8 28.2 34.05 27.15 34.2 26.55 34.25 26.75 34.35 26.5 34.25 Q26.7 33.7 27.15 33.3 27.3 33.15 29.45 32.1 L29.9 32.25 32.8 31.9 Q33.8 31.55 34.2 31.0 L32.65 30.6 32.4 30.6 33.4 29.9 34.1 29.35 33.45 27.95 33.05 26.35 33.6 26.35 35.9 25.25 37.25 24.35 39.25 22.2 40.85 20.6 42.4 19.3 Q44.05 18.1 52.6 17.75 L52.0 17.65 58.25 17.85 Q63.05 17.85 68.1 13.9 73.1 9.95 73.35 7.05 M57.1 6.15 Q55.4 6.7 53.85 7.55 54.25 5.95 55.9 4.45 57.55 2.9 60.05 6.2 L57.1 6.15 M51.45 36.85 Q50.7 37.25 50.55 37.4 L54.55 37.6 54.75 37.6 57.25 37.75 58.9 38.05 Q60.95 39.35 62.5 40.95 L64.0 42.1 67.35 40.9 Q65.6 43.2 65.25 45.55 L64.9 45.85 64.65 45.65 63.05 43.8 61.55 41.75 58.6 39.85 57.15 39.35 56.75 39.3 56.15 39.3 49.8 39.4 Q49.3 38.25 47.5 37.35 44.2 35.7 43.85 35.45 L38.8 34.5 32.3 35.4 Q28.35 34.8 29.45 34.55 L32.5 33.9 32.0 34.2 32.2 34.2 34.05 34.1 36.6 33.85 37.85 33.7 38.45 33.65 42.35 34.05 Q44.15 34.6 45.45 35.35 46.4 35.9 47.3 35.9 L47.7 35.8 46.85 34.55 49.7 36.8 51.45 36.85 M18.3 36.9 L19.4 36.0 19.4 35.95 19.9 35.6 22.15 33.9 22.75 33.5 22.85 33.45 22.9 33.45 23.25 33.25 24.5 32.75 25.0 33.2 23.2 34.15 21.8 35.9 20.25 37.5 19.5 38.4 19.05 38.9 17.3 40.95 16.05 42.7 Q15.2 43.8 14.9 44.4 L13.75 46.15 12.0 47.55 Q9.25 49.2 7.4 49.3 5.55 49.4 3.85 48.4 L1.85 47.15 1.45 46.65 1.4 45.7 1.55 45.6 1.55 45.65 Q2.65 46.65 3.4 46.85 L6.85 47.25 Q9.55 47.4 11.75 45.9 13.9 44.4 14.95 42.3 L14.95 42.2 13.2 43.15 13.5 42.85 15.85 40.35 17.2 38.1 18.3 36.9 M69.35 45.7 L68.85 45.9 66.9 46.2 Q66.75 45.85 66.75 45.15 L67.45 45.3 69.45 45.6 69.35 45.7 M9.35 45.3 L8.15 45.55 6.65 45.75 3.45 45.55 Q1.95 45.15 1.5 44.45 L0.95 43.3 0.9 43.2 0.85 42.85 1.75 43.2 5.4 44.3 9.35 44.65 10.9 44.45 10.45 44.7 9.35 45.3 M3.75 51.0 L5.25 51.4 6.8 51.9 8.3 51.55 11.7 50.15 Q14.0 49.1 15.8 45.75 L18.45 40.95 21.8 36.6 21.8 36.5 Q24.25 33.85 25.35 33.35 L25.2 33.7 Q25.1 33.95 25.15 34.25 L24.3 35.8 22.1 38.3 22.05 38.35 21.85 38.65 20.65 40.65 19.45 42.75 18.75 44.35 18.05 45.4 17.15 46.65 Q16.8 48.6 13.8 51.7 L7.95 57.15 Q5.85 54.5 3.75 51.0 M14.65 49.3 L11.8 50.95 11.55 51.1 Q11.4 51.2 11.3 51.25 L10.0 52.35 Q8.5 53.6 8.35 53.95 10.55 53.0 12.5 51.5 L14.65 49.4 14.65 49.3 M26.35 35.15 L27.35 34.65 28.9 35.1 28.95 35.85 Q25.15 38.0 21.9 42.15 L17.4 48.15 17.8 46.0 19.5 43.55 19.6 43.4 26.35 35.15 M17.15 46.65 L17.1 46.7 17.1 46.75 17.15 46.65" fill="#cca9a9" fill-rule="evenodd" stroke="none"/>
  </g>
</svg>