<?xml version="1.0" encoding="UTF-8" standalone="no"?>
<svg xmlns:xlink="http://www.w3.org/1999/xlink" height="6.95px" width="12.9px" xmlns="http://www.w3.org/2000/svg">
  <g transform="matrix(1.0, 0.0, 0.0, 1.0, 6.45, 3.5)">
    <path d="M0.3 -1.4 L0.35 -1.4 Q2.8 -1.4 3.85 0.0 L4.9 1.35 5.35 1.15 Q5.3 1.75 4.25 2.15 L-1.9 2.35 -0.2 2.45 -3.85 2.25 -5.0 1.85 -4.8 1.55 -4.55 1.2 -4.3 0.9 Q-4.2 1.45 -3.55 1.45 -2.65 1.45 -1.1 0.25 0.3 -0.85 0.3 -1.2 L0.3 -1.4" fill="#e0cbcb" fill-rule="evenodd" stroke="none"/>
    <path d="M5.35 1.15 L4.9 1.35 3.85 0.0 Q2.8 -1.4 0.35 -1.4 L0.3 -1.4 Q-2.0 -1.4 -3.6 0.15 L-4.3 0.9 -4.55 1.2 -4.8 1.55 -5.0 1.85 -5.1 2.0 -5.45 1.6 Q-5.45 0.8 -4.2 -0.55 -2.4 -2.5 0.55 -2.5 2.9 -2.5 4.4 -1.05 5.45 0.0 5.45 0.65 L5.35 1.15" fill="#a36a6a" fill-rule="evenodd" stroke="none"/>
    <path d="M-4.3 0.9 L-3.6 0.15 Q-2.0 -1.4 0.3 -1.4 L0.3 -1.2 Q0.3 -0.85 -1.1 0.25 -2.65 1.45 -3.55 1.45 -4.2 1.45 -4.3 0.9" fill="#f7f2f2" fill-rule="evenodd" stroke="none"/>
  </g>
</svg>