<?xml version="1.0" encoding="UTF-8" standalone="no"?>
<svg xmlns:xlink="http://www.w3.org/1999/xlink" height="13.7px" width="20.25px" xmlns="http://www.w3.org/2000/svg">
  <g transform="matrix(1.0, 0.0, 0.0, 1.0, 10.1, 6.85)">
    <path d="M4.55 -4.85 L4.55 -4.9 4.6 -4.9 4.55 -4.85 M-8.25 4.75 L-5.6 2.65 -1.75 0.0 1.4 -2.1 2.0 -2.6 -0.05 -0.85 -0.85 -0.1 -2.3 1.2 -4.7 4.05 Q-2.75 2.85 -1.05 1.3 L1.25 -0.85 6.0 -4.5 6.25 -0.85 Q6.5 0.25 7.05 1.3 L8.2 2.4 8.25 2.45 8.95 2.85 Q8.7 3.45 7.9 3.85 L4.85 4.75 2.25 5.4 -3.25 5.85 -6.65 5.55 Q-7.75 5.3 -8.25 4.75" fill="#e0cbcb" fill-rule="evenodd" stroke="none"/>
    <path d="M4.55 -4.85 L2.0 -2.6 1.4 -2.1 -1.75 0.0 -5.6 2.65 -8.25 4.75 -8.6 4.25 -8.7 4.05 -8.7 4.1 -8.75 4.0 -8.85 3.8 -8.9 3.7 -8.95 3.6 -9.0 3.45 -8.85 3.35 -8.45 3.1 -6.1 1.55 -6.0 1.5 -4.4 0.3 -4.0 0.0 -1.95 -1.4 1.4 -3.55 Q3.25 -4.75 4.55 -4.9 L4.55 -4.85" fill="url(#gradient0)" fill-rule="evenodd" stroke="none"/>
    <path d="M2.0 -2.6 L4.55 -4.85 4.6 -4.9 4.55 -4.9 Q3.25 -4.75 1.4 -3.55 L-1.95 -1.4 -4.0 0.0 -4.4 0.3 -6.0 1.5 -6.1 1.55 -8.45 3.1 -9.1 3.45 -7.5 1.45 -5.2 -0.4 -4.6 -0.85 0.85 -4.5 Q3.65 -6.3 5.85 -5.7 6.95 -5.25 7.0 -0.85 7.3 0.25 8.1 1.3 L9.15 3.0 8.95 2.85 8.25 2.45 8.2 2.4 7.05 1.3 Q6.5 0.25 6.25 -0.85 L6.0 -4.5 1.25 -0.85 -1.05 1.3 Q-2.75 2.85 -4.7 4.05 L-2.3 1.2 -0.85 -0.1 -0.05 -0.85 2.0 -2.6" fill="#a36a6a" fill-rule="evenodd" stroke="none"/>
  </g>
  <defs>
    <radialGradient cx="0" cy="0" gradientTransform="matrix(0.0362, -0.0086, 0.0053, 0.0224, 10.5, -20.9)" gradientUnits="userSpaceOnUse" id="gradient0" r="819.2" spreadMethod="pad">
      <stop offset="0.47843137254901963" stop-color="#ffffff"></stop>
      <stop offset="0.8823529411764706" stop-color="#f2eaea"></stop>
    </radialGradient>
  </defs>
</svg>