<?xml version="1.0" encoding="UTF-8" standalone="no"?>
<svg xmlns:xlink="http://www.w3.org/1999/xlink" height="43.85px" width="51.6px" xmlns="http://www.w3.org/2000/svg">
  <g transform="matrix(1.0, 0.0, 0.0, 1.0, 25.8, 21.95)">
    <path d="M20.4 -16.2 Q18.85 -17.4 17.1 -18.0 L13.0 -19.0 12.95 -19.0 11.0 -19.45 8.2 -19.7 0.95 -19.2 -0.85 -19.0 -2.6 -18.7 -6.9 -16.95 -9.75 -15.5 Q-14.35 -12.75 -17.35 -8.3 -20.5 -3.65 -21.45 2.05 L-22.5 8.3 -22.55 8.65 -22.35 9.85 -22.1 11.2 -22.9 11.05 -23.1 11.0 -23.45 10.8 -23.45 11.4 -23.55 12.25 -23.55 12.8 -23.45 13.15 -23.35 13.7 Q-22.7 16.4 -19.9 17.2 L-19.05 17.5 -19.5 16.4 -18.65 17.05 -19.4 14.8 Q-17.95 17.45 -15.35 18.65 L-14.0 19.1 -13.55 19.15 Q-10.9 18.75 -8.6 17.3 L-6.0 15.65 -5.1 14.95 -5.0 14.85 -4.9 14.75 -3.65 13.3 -2.45 12.2 -1.5 11.5 -3.6 10.7 -2.55 10.3 -1.95 10.2 -1.5 10.1 0.25 10.45 1.15 10.75 1.6 11.0 1.75 11.1 1.8 11.1 1.85 11.2 2.0 11.4 1.5 11.85 0.25 11.75 0.25 12.2 -4.9 16.35 -6.0 17.35 Q-7.15 18.1 -8.4 18.65 -8.9 18.95 -9.4 19.1 -8.25 19.7 -6.0 18.6 L-5.35 18.2 -4.9 17.9 Q-3.35 16.4 -1.5 15.25 0.2 14.1 2.15 13.25 4.35 12.25 6.55 11.5 8.2 10.9 9.6 10.45 L12.55 9.55 14.6 8.75 18.15 6.9 Q20.5 5.6 21.75 2.95 23.0 0.25 22.7 -2.9 22.4 -6.1 21.35 -7.75 L19.35 -10.8 18.7 -11.7 20.15 -10.8 20.4 -10.6 Q22.65 -8.7 23.35 -5.65 23.45 -9.15 23.2 -10.8 22.75 -12.85 21.7 -14.75 L21.7 -14.8 21.55 -15.0 20.75 -15.95 20.4 -16.2 M-16.15 12.15 Q-15.0 9.4 -11.95 10.1 -11.3 10.3 -11.35 10.95 L-11.95 11.05 -13.55 11.3 -15.2 12.1 -16.35 12.6 -16.15 12.15 M19.65 -18.15 Q21.65 -16.95 22.95 -15.1 L24.05 -13.0 24.65 -10.8 Q24.95 -9.05 24.65 -7.2 L24.05 -2.4 23.65 0.9 23.6 1.5 23.3 2.95 Q22.15 5.5 19.9 6.95 L18.65 7.75 Q15.65 9.8 12.3 10.95 9.65 11.65 6.55 12.85 4.25 13.55 2.05 14.65 0.15 15.55 -1.5 16.95 L-1.6 17.05 Q-3.05 18.55 -4.9 19.7 L-6.0 20.2 Q-8.55 21.25 -11.4 20.7 L-13.55 20.35 -13.6 20.35 Q-16.6 20.45 -19.0 18.35 L-21.75 17.95 -23.15 16.75 Q-24.15 15.3 -24.55 13.7 L-24.75 12.3 -24.8 10.8 -24.15 10.0 -24.3 8.3 -24.0 7.1 -24.25 6.55 Q-22.85 1.35 -21.05 -3.9 -19.25 -9.15 -15.55 -12.4 -11.9 -15.65 -10.1 -16.75 L-6.95 -18.45 -3.7 -19.6 -1.95 -20.05 -0.85 -20.35 8.75 -20.95 13.0 -20.15 17.25 -19.1 19.65 -18.15 M-13.1 7.15 Q-12.7 7.3 -12.35 7.55 L-21.25 5.65 -19.3 5.55 Q-16.65 5.5 -14.45 6.45 L-13.1 7.15 M-15.5 8.35 L-21.6 6.8 Q-18.55 6.1 -15.65 7.55 L-14.85 8.1 -15.5 8.35" fill="#a36a6a" fill-rule="evenodd" stroke="none"/>
    <path d="M-22.35 9.85 L-22.55 8.65 -22.5 8.3 -21.45 2.05 Q-20.5 -3.65 -17.35 -8.3 -14.35 -12.75 -9.75 -15.5 L-6.9 -16.95 -2.6 -18.7 -0.85 -19.0 0.95 -19.2 8.2 -19.7 11.0 -19.45 12.95 -19.0 13.0 -19.0 17.1 -18.0 Q18.85 -17.4 20.4 -16.2 L20.55 -14.2 20.35 -12.55 20.0 -11.35 17.55 -13.0 Q15.55 -14.3 14.95 -14.3 L14.4 -14.85 Q15.6 -12.8 16.4 -11.95 18.2 -9.8 18.2 -6.8 18.2 -4.2 16.65 -1.15 15.05 2.0 12.35 4.35 L8.9 7.4 Q6.55 9.15 4.35 9.55 2.05 9.95 1.1 10.65 L1.05 10.7 1.15 10.75 0.25 10.45 -1.5 10.1 -1.95 10.2 -2.55 10.3 -3.6 10.7 -1.5 11.5 -2.45 12.2 -3.65 13.3 -4.15 13.6 Q-5.95 14.55 -7.35 14.55 -9.1 14.55 -9.35 12.8 L-10.7 13.4 -11.7 13.8 -13.0 14.2 -12.45 13.5 Q-11.9 12.45 -11.9 11.85 L-11.95 11.05 -11.35 10.95 Q-11.3 10.3 -11.95 10.1 -15.0 9.4 -16.15 12.15 L-17.5 12.45 Q-19.1 12.45 -20.7 11.5 L-22.15 10.3 -22.35 9.85 M21.55 -15.0 L21.7 -14.8 21.7 -14.75 21.65 -14.7 21.65 -14.75 21.55 -15.0 M-5.0 14.85 L-5.1 14.95 -5.15 14.95 -5.0 14.85 M21.25 -13.4 L21.3 -13.3 21.25 -13.3 21.25 -13.4 M-13.1 7.15 L-14.45 6.45 Q-16.65 5.5 -19.3 5.55 L-21.25 5.65 -12.35 7.55 Q-12.7 7.3 -13.1 7.15 M-15.5 8.35 L-14.85 8.1 -15.65 7.55 Q-18.55 6.1 -21.6 6.8 L-15.5 8.35" fill="url(#gradient0)" fill-rule="evenodd" stroke="none"/>
    <path d="M20.4 -16.2 L20.75 -15.95 21.55 -15.0 21.65 -14.75 21.65 -14.7 21.7 -14.75 Q22.75 -12.85 23.2 -10.8 23.45 -9.15 23.35 -5.65 22.65 -8.7 20.4 -10.6 L20.15 -10.8 18.7 -11.7 19.35 -10.8 21.35 -7.75 Q22.4 -6.1 22.7 -2.9 23.0 0.25 21.75 2.95 20.5 5.6 18.15 6.9 L14.6 8.75 12.55 9.55 9.6 10.45 Q8.2 10.9 6.55 11.5 4.35 12.25 2.15 13.25 0.2 14.1 -1.5 15.25 -3.35 16.4 -4.9 17.9 L-5.35 18.2 -6.0 18.6 Q-8.25 19.7 -9.4 19.1 -8.9 18.95 -8.4 18.65 -7.15 18.1 -6.0 17.35 L-4.9 16.35 0.25 12.2 0.25 11.75 1.5 11.85 2.0 11.4 1.85 11.2 1.8 11.1 1.75 11.1 1.6 11.0 1.15 10.75 1.05 10.7 1.1 10.65 Q2.05 9.95 4.35 9.55 6.55 9.15 8.9 7.4 L12.35 4.35 Q15.05 2.0 16.65 -1.15 18.2 -4.2 18.2 -6.8 18.2 -9.8 16.4 -11.95 15.6 -12.8 14.4 -14.85 L14.95 -14.3 Q15.55 -14.3 17.55 -13.0 L20.0 -11.35 20.35 -12.55 20.55 -14.2 20.4 -16.2 M-3.65 13.3 L-4.9 14.75 -5.0 14.85 -5.15 14.95 -5.1 14.95 -6.0 15.65 -8.6 17.3 Q-10.9 18.75 -13.55 19.15 L-14.0 19.1 -15.35 18.65 Q-17.95 17.45 -19.4 14.8 L-18.65 17.05 -19.5 16.4 -19.05 17.5 -19.9 17.2 Q-22.7 16.4 -23.35 13.7 L-23.45 13.15 -23.55 12.8 -23.55 12.25 -23.45 11.4 -23.45 10.8 -23.1 11.0 -22.9 11.05 -22.1 11.2 -22.35 9.85 -22.15 10.3 -20.7 11.5 Q-19.1 12.45 -17.5 12.45 L-16.15 12.15 -16.35 12.6 -15.2 12.1 Q-15.05 12.75 -15.05 13.5 -15.1 14.2 -14.65 13.65 L-14.15 13.1 Q-13.65 13.1 -12.85 12.4 -12.0 11.65 -11.95 11.05 L-11.9 11.85 Q-11.9 12.45 -12.45 13.5 L-13.0 14.2 -11.7 13.8 -10.7 13.4 -9.35 12.8 Q-9.1 14.55 -7.35 14.55 -5.95 14.55 -4.15 13.6 L-3.65 13.3 M21.25 -13.4 L21.25 -13.3 21.3 -13.3 21.25 -13.4" fill="#e0cbcb" fill-rule="evenodd" stroke="none"/>
    <path d="M-15.2 12.1 L-13.55 11.3 -11.95 11.05 Q-12.0 11.65 -12.85 12.4 -13.65 13.1 -14.15 13.1 L-14.65 13.65 Q-15.1 14.2 -15.05 13.5 -15.05 12.75 -15.2 12.1" fill="#cca9a9" fill-rule="evenodd" stroke="none"/>
  </g>
  <defs>
    <radialGradient cx="0" cy="0" gradientTransform="matrix(0.0391, 0.0, 0.0, 0.0391, -11.4, -15.55)" gradientUnits="userSpaceOnUse" id="gradient0" r="819.2" spreadMethod="pad">
      <stop offset="0.47843137254901963" stop-color="#ffffff"></stop>
      <stop offset="0.8823529411764706" stop-color="#f2eaea"></stop>
    </radialGradient>
  </defs>
</svg>