<?xml version="1.0" encoding="UTF-8" standalone="no"?>
<svg xmlns:xlink="http://www.w3.org/1999/xlink" height="29px" width="27.7px" xmlns="http://www.w3.org/2000/svg">
  <g transform="matrix(1.0, 0.0, 0.0, 1.0, 13.85, 14.5)">
    <path d="M2.8 -8.15 L3.0 -7.25 3.05 -6.75 4.3 -2.05 Q4.95 -0.05 5.9 1.8 L7.8 5.5 10.25 9.75 11.25 11.35 8.05 8.1 4.95 4.1 2.9 0.65 1.85 -1.25 0.4 -4.05 -0.55 -5.6 -1.4 -6.6 -1.8 -7.0 -2.7 -7.5 -2.55 -7.25 -2.6 -7.25 -2.85 -6.8 -3.6 -5.8 -3.75 -5.6 -4.2 -5.1 -4.2 -5.0 -4.8 -4.35 -4.7 -4.3 -4.85 -4.15 -4.6 -4.2 Q-3.7 -3.45 -3.55 -2.7 L-3.3 -0.75 Q-3.3 0.3 -3.85 1.35 L-4.3 2.4 -4.35 2.45 -5.2 2.4 Q-8.4 2.0 -10.8 -1.25 -12.2 -3.2 -12.65 -4.65 L-11.4 -4.7 Q-10.55 -4.6 -8.55 -3.6 -6.55 -2.6 -5.15 -2.9 L-6.7 -4.55 -6.85 -5.3 -4.4 -7.1 Q-1.45 -8.95 -0.25 -8.95 L1.15 -7.35 Q2.4 -5.75 2.7 -6.4 2.95 -7.05 2.8 -8.15 M-2.0 -6.25 L-1.8 -5.85 -1.95 -5.8 -1.85 -5.9 -2.0 -6.25 M-7.45 -7.25 L-7.25 -7.25 -7.45 -7.2 -7.45 -7.25" fill="#e0cbcb" fill-rule="evenodd" stroke="none"/>
    <path d="M-7.25 -7.25 L-6.7 -7.55 -6.65 -7.6 -6.5 -7.7 -4.55 -9.5 Q-3.4 -10.65 -2.05 -11.25 L1.3 -12.35 1.75 -11.75 2.7 -8.7 2.8 -8.15 Q2.95 -7.05 2.7 -6.4 2.4 -5.75 1.15 -7.35 L-0.25 -8.95 Q-1.45 -8.95 -4.4 -7.1 L-6.85 -5.3 -6.7 -4.55 -5.15 -2.9 Q-6.55 -2.6 -8.55 -3.6 -10.55 -4.6 -11.4 -4.7 L-12.65 -4.65 -12.75 -5.05 -12.8 -5.6 -12.85 -5.9 Q-12.85 -6.8 -12.45 -7.65 L-12.1 -8.2 -11.35 -8.4 -10.6 -8.6 -10.6 -8.65 -9.35 -9.0 -6.75 -9.05 -7.65 -7.6 -7.5 -7.25 -7.45 -7.25 -7.45 -7.2 -7.25 -7.25" fill="url(#gradient0)" fill-rule="evenodd" stroke="none"/>
    <path d="M2.8 -8.15 L2.7 -8.7 1.75 -11.75 1.3 -12.35 -2.05 -11.25 Q-3.4 -10.65 -4.55 -9.5 L-6.5 -7.7 -6.65 -7.6 -6.7 -7.55 -7.25 -7.25 -7.45 -7.25 -7.5 -7.25 -7.65 -7.6 -6.75 -9.05 -9.35 -9.0 -10.6 -8.65 -11.35 -8.4 -12.1 -8.2 -12.25 -8.15 -11.45 -8.9 Q-9.0 -10.85 -6.0 -9.7 L-2.95 -11.95 Q-1.05 -13.2 1.35 -13.5 2.4 -13.3 2.9 -11.7 L3.75 -8.7 4.35 -6.0 5.15 -2.95 Q5.7 -1.15 6.55 0.8 L8.5 4.7 10.7 8.8 12.55 12.7 12.85 13.5 11.95 12.7 10.5 11.65 Q8.65 10.25 7.15 8.45 L4.6 5.3 2.15 1.45 1.85 0.9 -0.05 -2.95 Q-0.55 -4.05 -1.4 -4.85 L-1.55 -4.9 -1.2 -3.65 Q-1.05 -3.0 -1.05 -2.2 L-1.25 -0.7 -1.65 0.3 -2.05 0.95 -2.05 1.0 -2.1 1.0 -2.45 1.45 -3.55 2.3 -3.75 2.4 -4.25 2.55 -4.25 2.45 -4.25 2.4 -4.0 2.0 -3.85 1.75 -2.75 0.15 -2.7 0.1 -2.15 -1.35 Q-1.95 -2.25 -2.2 -3.05 L-2.55 -4.6 -4.6 -4.2 -4.85 -4.15 -4.7 -4.3 -4.2 -4.85 -4.15 -4.9 -2.85 -5.6 -1.95 -5.8 -1.8 -5.85 -2.0 -6.25 -2.55 -7.25 -2.7 -7.5 -1.8 -7.0 -1.4 -6.6 -0.55 -5.6 0.4 -4.05 1.85 -1.25 2.9 0.65 4.95 4.1 8.05 8.1 11.25 11.35 10.25 9.75 7.8 5.5 5.9 1.8 Q4.95 -0.05 4.3 -2.05 L3.05 -6.75 3.0 -7.25 2.8 -8.15" fill="#a36a6a" fill-rule="evenodd" stroke="none"/>
    <path d="M-2.55 -7.25 L-2.0 -6.25 -1.85 -5.9 -1.95 -5.8 -2.85 -5.6 -4.15 -4.9 -4.2 -4.85 -4.7 -4.3 -4.8 -4.35 -4.2 -5.0 -4.2 -5.1 -3.75 -5.6 -3.6 -5.8 -2.85 -6.8 -2.6 -7.25 -2.55 -7.25 M-4.6 -4.2 L-2.55 -4.6 -2.2 -3.05 Q-1.95 -2.25 -2.15 -1.35 L-2.7 0.1 -2.75 0.15 -3.85 1.75 -4.0 2.0 -4.25 2.4 -4.25 2.45 -4.35 2.45 -4.3 2.4 -3.85 1.35 Q-3.3 0.3 -3.3 -0.75 L-3.55 -2.7 Q-3.7 -3.45 -4.6 -4.2 M-2.45 1.45 L-2.1 1.0 -2.05 1.0 -2.2 2.4 -2.5 3.85 -2.8 2.4 -2.9 1.9 -2.45 1.45" fill="#cca9a9" fill-rule="evenodd" stroke="none"/>
  </g>
  <defs>
    <radialGradient cx="0" cy="0" gradientTransform="matrix(0.0362, -0.0086, 0.0053, 0.0224, 28.95, -29.55)" gradientUnits="userSpaceOnUse" id="gradient0" r="819.2" spreadMethod="pad">
      <stop offset="0.47843137254901963" stop-color="#ffffff"></stop>
      <stop offset="0.8823529411764706" stop-color="#f2eaea"></stop>
    </radialGradient>
  </defs>
</svg>