<?xml version="1.0" encoding="UTF-8" standalone="no"?>
<svg xmlns:xlink="http://www.w3.org/1999/xlink" height="36.95px" width="58.05px" xmlns="http://www.w3.org/2000/svg">
  <g transform="matrix(1.0, 0.0, 0.0, 1.0, 29.05, 18.5)">
    <path d="M-24.3 8.1 L-23.7 8.35 -23.35 7.55 Q-22.75 4.25 -21.05 1.4 L-20.15 -0.25 Q-19.4 -1.9 -14.95 -5.9 -10.45 -9.9 -6.2 -10.7 L0.9 -12.5 Q5.55 -14.05 10.4 -14.15 15.5 -13.7 19.65 -15.9 L19.75 -16.55 23.45 -16.5 24.4 -16.5 26.05 -16.35 26.95 -16.15 26.9 -16.15 22.15 -13.6 Q17.7 -11.2 15.75 -9.55 10.5 -5.15 8.6 -2.6 7.4 -0.95 4.95 0.85 1.95 3.0 -0.85 3.65 L-4.55 4.45 -9.05 5.2 -14.4 6.0 -14.7 6.1 Q-15.75 6.1 -16.45 6.65 -17.2 7.15 -17.2 7.9 L-17.6 8.15 -17.75 8.15 -18.0 5.6 Q-18.0 5.2 -17.25 5.1 -15.95 4.95 -14.8 4.35 L-12.6 3.55 -8.5 0.25 Q-6.0 -1.0 -5.2 -1.75 -3.65 -3.35 -2.7 -3.75 L-2.65 -3.55 Q-2.65 -2.6 -4.25 -1.25 -5.7 0.05 -7.55 0.9 L-10.6 3.4 -8.25 3.2 -7.55 3.0 -7.15 3.0 -5.7 2.05 -2.1 -0.55 0.65 -3.1 Q2.9 -4.8 2.9 -3.0 L0.3 0.65 0.25 0.7 -0.05 0.95 -0.2 1.05 -0.35 1.2 -1.0 1.8 -1.6 2.3 -1.6 2.4 -1.55 2.35 -1.4 2.3 -1.35 2.3 -1.1 2.2 -1.1 2.25 Q0.95 1.75 2.95 -0.45 L3.35 -0.95 3.9 -1.6 6.55 -5.9 6.85 -6.5 7.15 -7.0 8.5 -8.7 11.05 -10.8 12.55 -11.65 Q16.35 -13.3 20.8 -14.2 L19.7 -14.05 15.1 -13.35 5.55 -11.45 Q-3.2 -9.9 -8.2 -8.2 -11.2 -7.15 -13.15 -5.25 L-16.0 -1.9 -17.65 0.45 -18.6 1.9 Q-19.45 3.15 -19.95 4.55 L-19.9 4.5 -18.35 9.25 -18.35 10.45 -18.3 10.8 Q-17.85 9.9 -17.0 10.45 -16.15 10.95 -15.65 11.8 L-15.2 13.05 -14.95 14.3 -14.75 15.15 Q-15.7 13.45 -16.85 12.45 L-19.0 10.85 -24.3 8.1 M-14.9 3.5 L-14.9 3.6 -14.95 3.6 -14.9 3.5 M5.6 -2.7 L5.8 -2.05 Q6.05 -1.45 6.4 -1.45 7.95 -1.45 11.75 -7.25 11.75 -11.4 5.6 -2.7" fill="#e0cbcb" fill-rule="evenodd" stroke="none"/>
    <path d="M19.75 -16.55 L19.65 -15.9 Q15.5 -13.7 10.4 -14.15 5.55 -14.05 0.9 -12.5 L-6.2 -10.7 Q-10.45 -9.9 -14.95 -5.9 -19.4 -1.9 -20.15 -0.25 L-21.05 1.4 Q-22.75 4.25 -23.35 7.55 L-23.7 8.35 -24.3 8.1 -26.15 7.4 Q-27.15 6.7 -27.6 5.45 L-27.6 5.05 Q-25.7 1.1 -23.2 -2.5 -20.3 -6.7 -15.85 -8.85 -11.7 -10.95 -7.2 -12.55 -3.1 -14.05 1.35 -15.0 L10.2 -16.05 19.75 -16.55 M5.6 -2.7 Q11.75 -11.4 11.75 -7.25 7.95 -1.45 6.4 -1.45 6.05 -1.45 5.8 -2.05 L5.6 -2.7" fill="url(#gradient0)" fill-rule="evenodd" stroke="none"/>
    <path d="M19.75 -16.55 L10.2 -16.05 1.35 -15.0 Q-3.1 -14.05 -7.2 -12.55 -11.7 -10.95 -15.85 -8.85 -20.3 -6.7 -23.2 -2.5 -25.7 1.1 -27.6 5.05 L-27.7 5.25 -27.95 5.0 -28.05 4.7 Q-28.05 3.55 -24.3 -2.9 -21.45 -6.8 -17.55 -9.15 -13.65 -11.55 -8.25 -13.4 -2.85 -15.3 0.75 -16.15 L16.15 -17.4 Q28.0 -17.8 28.0 -16.45 27.95 -15.15 23.7 -13.2 19.4 -11.25 17.2 -9.45 11.8 -4.95 9.65 -2.2 8.3 -0.45 5.85 1.3 2.95 3.4 -0.15 4.35 -2.55 5.15 -9.1 6.25 L-15.2 7.2 -15.4 7.35 -15.8 7.75 -16.05 8.2 -16.25 8.4 -16.75 8.4 -17.2 7.9 Q-17.2 7.15 -16.45 6.65 -15.75 6.1 -14.7 6.1 L-14.4 6.0 -9.05 5.2 -4.55 4.45 -0.85 3.65 Q1.95 3.0 4.95 0.85 7.4 -0.95 8.6 -2.6 10.5 -5.15 15.75 -9.55 17.7 -11.2 22.15 -13.6 L26.9 -16.15 26.95 -16.15 26.05 -16.35 24.4 -16.5 23.45 -16.5 19.75 -16.55 M-19.9 4.5 L-19.95 4.55 Q-19.45 3.15 -18.6 1.9 L-17.65 0.45 -16.0 -1.9 -13.15 -5.25 Q-11.2 -7.15 -8.2 -8.2 -3.2 -9.9 5.55 -11.45 L15.1 -13.35 19.7 -14.05 20.8 -14.2 Q16.35 -13.3 12.55 -11.65 L11.05 -10.8 8.5 -8.7 8.2 -8.4 7.15 -7.0 6.85 -6.5 6.55 -5.9 3.9 -1.6 3.35 -0.95 2.95 -0.45 Q0.95 1.75 -1.1 2.25 L-1.1 2.2 -1.35 2.3 -1.4 2.3 -1.6 2.3 -1.0 1.8 -0.35 1.2 -0.2 1.05 -0.05 0.95 0.25 0.7 0.3 0.65 0.35 0.6 2.3 -1.1 2.65 -1.5 3.05 -2.0 5.8 -6.45 7.3 -8.95 Q8.25 -10.1 9.6 -10.85 L9.65 -10.9 10.3 -11.25 8.85 -11.0 8.05 -10.85 8.0 -10.8 6.55 -10.55 5.25 -9.7 Q2.15 -7.55 0.35 -3.85 -0.45 -2.2 -3.3 -0.15 -5.35 1.2 -7.75 2.4 L-9.55 3.2 -8.4 2.45 -3.9 -0.7 Q-0.95 -2.9 -0.25 -4.45 0.7 -6.5 2.6 -8.3 L5.25 -10.3 1.85 -9.65 0.05 -8.35 -2.6 -6.8 -4.1 -5.0 -5.5 -3.25 Q-7.05 -1.45 -9.35 0.3 -12.05 2.25 -14.9 3.5 L-10.0 -0.15 Q-7.2 -2.25 -6.15 -3.8 L-4.9 -5.65 -3.25 -7.45 Q-2.1 -8.3 -0.5 -9.15 L-6.2 -7.85 -8.35 -7.1 Q-9.0 -5.95 -12.0 -2.15 -15.4 2.2 -17.3 4.2 L-17.85 4.7 -17.95 4.65 -17.9 4.6 -17.7 4.35 -9.45 -6.55 -11.85 -4.9 -14.7 -1.7 -14.8 -1.6 -16.25 0.5 -18.35 3.05 -18.95 3.65 -19.1 3.8 -19.7 4.35 -19.9 4.5" fill="#a36a6a" fill-rule="evenodd" stroke="none"/>
    <path d="M-14.75 15.15 L-14.95 14.3 -15.2 13.05 -15.65 11.8 Q-16.15 10.95 -17.0 10.45 -17.85 9.9 -18.3 10.8 L-18.35 10.45 -18.35 9.25 -19.9 4.5 -19.7 4.35 -19.1 3.8 -18.95 3.65 -18.35 3.05 -16.25 0.5 -14.8 -1.6 -14.7 -1.7 -11.85 -4.9 -9.45 -6.55 -17.7 4.35 -17.9 4.6 -17.95 4.65 -17.85 4.7 -17.3 4.2 Q-15.4 2.2 -12.0 -2.15 -9.0 -5.95 -8.35 -7.1 L-6.2 -7.85 -0.5 -9.15 Q-2.1 -8.3 -3.25 -7.45 L-4.9 -5.65 -6.15 -3.8 Q-7.2 -2.25 -10.0 -0.15 L-14.9 3.5 -14.95 3.6 -14.9 3.6 -14.9 3.5 Q-12.05 2.25 -9.35 0.3 -7.05 -1.45 -5.5 -3.25 L-4.1 -5.0 -2.6 -6.8 0.05 -8.35 1.85 -9.65 5.25 -10.3 2.6 -8.3 Q0.7 -6.5 -0.25 -4.45 -0.95 -2.9 -3.9 -0.7 L-8.4 2.45 -9.55 3.2 -7.75 2.4 Q-5.35 1.2 -3.3 -0.15 -0.45 -2.2 0.35 -3.85 2.15 -7.55 5.25 -9.7 L6.55 -10.55 8.0 -10.8 8.05 -10.85 8.85 -11.0 10.3 -11.25 9.65 -10.9 9.6 -10.85 Q8.25 -10.1 7.3 -8.95 L5.8 -6.45 3.05 -2.0 2.65 -1.5 2.3 -1.1 0.35 0.6 0.3 0.65 2.9 -3.0 Q2.9 -4.8 0.65 -3.1 L-2.1 -0.55 -5.7 2.05 -7.15 3.0 -7.55 3.0 -8.25 3.2 -10.6 3.4 -7.55 0.9 Q-5.7 0.05 -4.25 -1.25 -2.65 -2.6 -2.65 -3.55 L-2.7 -3.75 Q-3.65 -3.35 -5.2 -1.75 -6.0 -1.0 -8.5 0.25 L-12.6 3.55 -14.8 4.35 Q-15.95 4.95 -17.25 5.1 -18.0 5.2 -18.0 5.6 L-17.75 8.15 -17.6 8.15 -17.2 7.9 -16.75 8.4 -16.25 8.4 -16.05 8.2 -15.8 7.75 -15.7 7.8 -15.1 8.8 -14.3 10.5 Q-14.05 11.1 -13.85 12.85 L-13.65 15.3 -13.65 17.45 Q-14.15 16.15 -14.75 15.15 M8.5 -8.7 L7.15 -7.0 8.2 -8.4 8.5 -8.7" fill="#cca9a9" fill-rule="evenodd" stroke="none"/>
  </g>
  <defs>
    <radialGradient cx="0" cy="0" gradientTransform="matrix(0.0362, -0.0086, 0.0053, 0.0224, -16.6, -8.2)" gradientUnits="userSpaceOnUse" id="gradient0" r="819.2" spreadMethod="pad">
      <stop offset="0.47843137254901963" stop-color="#ffffff"></stop>
      <stop offset="0.8823529411764706" stop-color="#f2eaea"></stop>
    </radialGradient>
  </defs>
</svg>