<?xml version="1.0" encoding="UTF-8" standalone="no"?>
<svg xmlns:xlink="http://www.w3.org/1999/xlink" height="11.25px" width="15.2px" xmlns="http://www.w3.org/2000/svg">
  <g transform="matrix(1.0, 0.0, 0.0, 1.0, 8.8, 3.2)">
    <path d="M4.6 -0.35 Q4.2 -0.35 4.1 -0.85 L4.05 -1.4 4.1 -1.9 Q4.25 -2.2 4.8 -2.2 5.4 -2.2 5.4 -1.45 5.4 -0.35 4.6 -0.35 M-6.5 5.75 L-6.25 5.95 -6.15 6.1 -6.15 6.35 Q-6.15 7.05 -7.0 7.05 -7.8 7.05 -7.8 6.35 -7.8 5.65 -7.15 5.65 L-6.5 5.75" fill="#ff9999" fill-rule="evenodd" stroke="none"/>
    <path d="M4.1 -0.85 Q4.2 -0.35 4.6 -0.35 L4.9 0.45 4.6 1.4 4.1 2.4 Q3.6 3.4 1.15 4.1 L-2.25 5.3 -5.75 6.4 -6.15 6.35 -6.15 6.1 -6.25 5.95 -6.5 5.75 -6.9 5.65 -7.0 5.35 Q-7.0 4.6 -5.7 3.25 -4.5 2.0 -3.7 1.65 1.1 -1.15 3.0 -1.15 L4.1 -0.85 M-3.05 1.9 L-3.05 1.95 -3.05 1.9" fill="#e1e4ea" fill-rule="evenodd" stroke="none"/>
  </g>
</svg>