<?xml version="1.0" encoding="UTF-8" standalone="no"?>
<svg xmlns:xlink="http://www.w3.org/1999/xlink" height="26.4px" width="12.6px" xmlns="http://www.w3.org/2000/svg">
  <g transform="matrix(1.0, 0.0, 0.0, 1.0, 6.25, 13.2)">
    <path d="M-2.65 -1.2 Q-2.7 -0.6 -3.0 -1.05 L-3.5 -1.8 -4.2 -3.75 Q-5.3 -6.9 -5.25 -7.8 L-5.15 -8.15 -4.85 -8.2 -3.0 -6.25 -1.85 -4.65 Q0.55 -5.2 1.4 -6.35 1.85 -6.9 2.1 -8.25 L1.4 -11.7 Q1.4 -12.0 1.55 -12.1 L1.85 -12.2 Q3.55 -11.05 4.7 -1.25 5.45 4.8 5.3 9.3 5.05 13.75 4.85 11.35 4.55 8.9 3.45 6.6 L2.05 3.7 1.95 3.6 1.65 3.05 1.0 1.8 0.1 0.25 -0.05 0.0 Q-1.1 -2.1 -3.45 -5.2 -2.9 -3.75 -2.75 -2.3 L-2.7 -1.95 -2.65 -1.2 M-3.45 -5.2 L-2.7 -4.3 -2.75 -4.35 -3.45 -5.2 M3.6 3.7 L3.55 4.05 3.35 4.7 3.95 6.25 3.85 3.7 3.8 2.55 3.6 3.7 M-1.2 -3.65 L-0.2 -2.1 1.85 2.15 1.9 2.25 1.95 2.3 2.7 3.4 3.1 0.9 Q3.2 -2.55 2.45 -6.55 L1.85 -5.2 Q0.55 -3.75 -1.2 -3.65" fill="#a36a6a" fill-rule="evenodd" stroke="none"/>
    <path d="M-2.65 -1.2 L-2.7 -1.95 -2.75 -2.3 Q-2.9 -3.75 -3.45 -5.2 -1.1 -2.1 -0.05 0.0 L0.1 0.25 1.0 1.8 1.65 3.05 1.9 3.5 1.25 2.85 0.1 1.6 -0.95 0.3 -2.2 -0.7 -2.65 -1.2" fill="#cca9a9" fill-rule="evenodd" stroke="none"/>
    <path d="M-1.2 -3.65 Q0.55 -3.75 1.85 -5.2 L2.45 -6.55 Q3.2 -2.55 3.1 0.9 L2.7 3.4 1.95 2.3 1.9 2.25 1.85 2.15 -0.2 -2.1 -1.2 -3.65 M3.6 3.7 L3.8 2.55 3.85 3.7 3.95 6.25 3.35 4.7 3.55 4.05 3.6 3.7" fill="#e0cbcb" fill-rule="evenodd" stroke="none"/>
  </g>
</svg>