<?xml version="1.0" encoding="UTF-8" standalone="no"?>
<svg xmlns:xlink="http://www.w3.org/1999/xlink" height="32.6px" width="71.45px" xmlns="http://www.w3.org/2000/svg">
  <g transform="matrix(1.0, 0.0, 0.0, 1.0, 35.65, 16.3)">
    <path d="M-3.75 -10.0 L-4.0 -10.1 -4.7 -10.4 Q-8.75 -12.1 -11.7 -12.55 L-18.75 -13.6 -18.9 -13.65 -22.55 -13.85 -26.15 -13.4 Q-27.55 -13.0 -28.75 -12.4 L-30.45 -11.2 -31.85 -9.7 -32.3 -9.25 -33.2 -8.5 -34.35 -7.7 -34.65 -8.5 -33.3 -10.25 -32.4 -11.1 -31.95 -11.55 -30.7 -12.55 Q-28.9 -13.9 -26.85 -14.55 L-26.65 -14.6 -25.15 -14.95 -21.95 -15.3 -20.6 -15.25 -18.75 -15.0 -14.65 -14.55 Q-10.85 -14.1 -2.5 -10.9 5.85 -7.75 15.35 -0.4 L29.4 10.7 34.1 14.6 34.25 14.75 34.3 14.8 34.55 14.95 34.8 15.3 33.9 15.2 33.3 15.15 32.5 14.85 31.8 14.45 14.3 8.25 Q5.9 4.95 -2.3 -0.4 -9.55 -5.2 -16.35 -7.2 L-18.1 -7.7 -18.75 -7.2 -19.35 -6.75 -19.6 -6.55 -20.75 -5.95 -21.4 -5.6 -22.3 -5.2 -24.85 -4.5 Q-27.3 -4.3 -29.3 -5.1 L-29.9 -5.25 -30.2 -5.4 -30.5 -5.55 -31.05 -6.5 -30.65 -7.05 Q-27.7 -5.8 -25.8 -5.85 -23.9 -5.9 -22.95 -6.4 L-21.4 -7.25 -20.05 -8.15 -22.3 -8.6 -24.6 -7.6 -28.0 -8.5 -28.5 -8.7 -28.6 -8.75 -28.1 -9.25 -27.15 -10.1 -26.35 -10.6 -19.6 -9.65 -18.75 -9.45 -16.35 -8.85 Q-10.0 -7.0 -2.45 -2.05 5.05 2.9 13.65 6.5 22.25 10.05 29.65 12.55 L28.5 11.7 28.55 11.7 28.1 11.4 20.65 5.3 19.7 4.5 14.55 0.5 Q9.9 -2.8 3.85 -6.2 -0.35 -8.55 -3.75 -10.0" fill="#a36a6a" fill-rule="evenodd" stroke="none"/>
    <path d="M-3.75 -10.0 Q-0.35 -8.55 3.85 -6.2 9.9 -2.8 14.55 0.5 L13.6 0.55 Q10.3 0.9 10.3 2.1 10.3 3.65 14.15 5.3 L20.75 7.85 27.9 11.4 28.5 11.7 29.65 12.55 Q22.25 10.05 13.65 6.5 5.05 2.9 -2.45 -2.05 -10.0 -7.0 -16.35 -8.85 L-18.75 -9.45 -19.6 -9.65 -26.35 -10.6 -27.15 -10.1 -28.1 -9.25 -28.6 -8.75 -28.5 -8.7 -28.75 -8.55 -28.85 -8.5 -30.65 -7.05 -31.05 -6.5 -30.5 -5.55 -30.4 -5.4 -29.3 -4.0 -28.85 -3.5 -29.3 -3.65 -30.3 -4.15 -31.65 -5.05 -32.05 -5.4 -32.85 -6.25 -30.5 -8.5 -30.35 -8.65 Q-27.4 -11.6 -23.75 -11.6 L-18.75 -10.95 -15.1 -10.2 Q-8.75 -8.85 -6.5 -8.85 -4.85 -8.85 -3.75 -10.0" fill="#e0cbcb" fill-rule="evenodd" stroke="none"/>
    <path d="M-28.5 -8.7 L-28.0 -8.5 -24.6 -7.6 -22.3 -8.6 -20.05 -8.15 -21.4 -7.25 -22.95 -6.4 Q-23.9 -5.9 -25.8 -5.85 -27.7 -5.8 -30.65 -7.05 L-28.85 -8.5 -28.75 -8.55 -28.5 -8.7 M-30.5 -5.55 L-30.2 -5.4 -29.9 -5.25 -29.3 -5.1 Q-27.3 -4.3 -24.85 -4.5 L-24.3 -2.8 -24.25 -2.55 -24.2 -2.4 -23.9 -0.55 Q-23.8 0.7 -24.0 1.9 L-24.05 3.0 Q-24.85 0.95 -25.9 -0.55 L-26.95 -1.85 -27.55 -2.4 -27.75 -2.55 -28.85 -3.5 -29.3 -4.0 -30.4 -5.4 -30.5 -5.55" fill="#cca9a9" fill-rule="evenodd" stroke="none"/>
    <path d="M-33.2 -8.5 L-32.3 -9.25 -31.85 -9.7 -30.45 -11.2 -28.75 -12.4 Q-27.55 -13.0 -26.15 -13.4 L-22.55 -13.85 -18.9 -13.65 -18.75 -13.6 -11.7 -12.55 Q-8.75 -12.1 -4.7 -10.4 L-4.0 -10.1 -3.75 -10.0 Q-4.85 -8.85 -6.5 -8.85 -8.75 -8.85 -15.1 -10.2 L-18.75 -10.95 -23.75 -11.6 Q-27.4 -11.6 -30.35 -8.65 L-30.5 -8.5 -32.85 -6.25 -33.8 -8.0 -33.2 -8.5 M14.55 0.5 L19.7 4.5 20.65 5.3 28.1 11.4 28.55 11.7 28.5 11.7 27.9 11.4 20.75 7.85 14.15 5.3 Q10.3 3.65 10.3 2.1 10.3 0.9 13.6 0.55 L14.55 0.5" fill="url(#gradient0)" fill-rule="evenodd" stroke="none"/>
  </g>
  <defs>
    <radialGradient cx="0" cy="0" gradientTransform="matrix(0.0362, -0.0086, 0.0053, 0.0224, -27.4, -22.55)" gradientUnits="userSpaceOnUse" id="gradient0" r="819.2" spreadMethod="pad">
      <stop offset="0.47843137254901963" stop-color="#ffffff"></stop>
      <stop offset="0.8823529411764706" stop-color="#f2eaea"></stop>
    </radialGradient>
  </defs>
</svg>