<?xml version="1.0" encoding="UTF-8" standalone="no"?>
<svg xmlns:xlink="http://www.w3.org/1999/xlink" height="14.7px" width="13.95px" xmlns="http://www.w3.org/2000/svg">
  <g transform="matrix(1.0, 0.0, 0.0, 1.0, 7, 7.35)">
    <path d="M-4.2 -3.6 L-4.2 -3.55 -3.9 -3.2 -2.4 -4.3 Q-0.6 -5.35 1.3 -5.35 L1.4 -5.35 1.55 -5.35 Q3.8 -5.2 4.6 -2.95 4.95 -1.9 4.95 -0.3 L4.9 1.15 4.55 2.6 Q4.2 3.7 2.1 4.75 L-0.55 5.95 -0.35 6.2 -2.35 6.35 Q-4.9 6.35 -5.7 4.05 -6.1 2.9 -6.0 1.55 -6.0 -1.65 -4.2 -3.6" fill="url(#gradient0)" fill-rule="evenodd" stroke="none"/>
    <path d="M-0.55 5.95 L2.1 4.75 Q4.2 3.7 4.55 2.6 L4.9 1.15 4.95 -0.3 Q4.95 -1.9 4.6 -2.95 3.8 -5.2 1.55 -5.35 L1.4 -5.35 1.3 -5.35 Q-0.6 -5.35 -2.4 -4.3 L-3.9 -3.2 -4.2 -3.55 -4.2 -3.6 Q-4.05 -4.2 -2.3 -5.25 -0.1 -6.55 1.9 -6.3 4.55 -5.6 5.45 -3.6 5.95 -2.5 5.95 -0.3 5.95 2.1 5.15 3.5 3.7 5.9 -0.25 6.3 L-0.55 5.95" fill="#a36a6a" fill-rule="evenodd" stroke="none"/>
  </g>
  <defs>
    <radialGradient cx="0" cy="0" gradientTransform="matrix(0.0087, 0.0, 0.0, 0.0065, -0.55, 2.55)" gradientUnits="userSpaceOnUse" id="gradient0" r="819.2" spreadMethod="pad">
      <stop offset="0.47843137254901963" stop-color="#ffffff"></stop>
      <stop offset="0.8823529411764706" stop-color="#f2eaea"></stop>
    </radialGradient>
  </defs>
</svg>