<?xml version="1.0" encoding="UTF-8" standalone="no"?>
<svg xmlns:xlink="http://www.w3.org/1999/xlink" height="16.6px" width="16.5px" xmlns="http://www.w3.org/2000/svg">
  <g transform="matrix(1.0, 0.0, 0.0, 1.0, 9, 6.15)">
    <path d="M3.0 -3.9 L2.85 -4.35 Q2.85 -5.4 3.8 -5.05 4.7 -4.75 4.7 -3.95 L4.45 -3.4 4.2 -3.1 4.05 -3.0 4.0 -3.0 3.9 -3.0 Q3.45 -3.0 3.1 -3.65 L3.0 -3.9 M-6.15 7.45 Q-6.15 8.3 -6.95 8.3 -8.15 8.3 -8.0 7.05 -8.0 6.1 -7.05 6.3 -6.15 6.5 -6.15 7.45" fill="#ff9999" fill-rule="evenodd" stroke="none"/>
    <path d="M4.2 -3.1 L4.4 -3.25 4.8 -2.9 5.65 -1.2 6.1 0.4 6.5 2.3 Q6.5 3.6 4.3 6.3 L3.0 8.25 Q1.8 9.45 -1.15 9.45 L-1.65 9.45 0.5 7.25 2.15 5.1 Q2.6 4.85 3.1 3.5 L3.6 1.4 Q3.6 -0.15 3.2 -0.85 2.3 -2.35 -0.2 -2.65 L-2.85 -2.45 -3.8 -2.05 -4.9 -1.4 -6.35 -0.95 -6.6 -0.15 -6.4 -0.85 -6.35 -0.9 -6.15 -1.65 -5.05 -2.7 -3.4 -3.45 -2.0 -3.9 1.3 -4.2 3.0 -3.9 3.1 -3.65 Q3.45 -3.0 3.9 -3.0 L4.0 -3.0 4.05 -3.0 4.2 -3.1" fill="#e1e4ea" fill-rule="evenodd" stroke="none"/>
    <path d="M-1.65 9.45 L-2.4 9.25 Q-3.2 9.0 -4.0 8.35 L-5.85 6.5 Q-6.4 5.95 -6.8 4.7 -7.2 3.55 -7.2 2.7 L-6.65 0.0 -6.6 -0.15 -6.35 -0.95 -4.9 -1.4 -3.8 -2.05 -2.85 -2.45 -0.2 -2.65 Q2.3 -2.35 3.2 -0.85 3.6 -0.15 3.6 1.4 L3.1 3.5 Q2.6 4.85 2.15 5.1 L0.5 7.25 -1.65 9.45" fill="#ffffff" fill-rule="evenodd" stroke="none"/>
  </g>
</svg>