<?xml version="1.0" encoding="UTF-8" standalone="no"?>
<svg xmlns:xlink="http://www.w3.org/1999/xlink" height="8.9px" width="8.05px" xmlns="http://www.w3.org/2000/svg">
  <g transform="matrix(1.0, 0.0, 0.0, 1.0, 7.35, 3.6)">
    <path d="M-4.85 -1.1 Q-5.6 -0.15 -5.95 -0.15 -6.35 -0.15 -6.35 -0.55 -4.15 -3.6 -4.15 -2.1 L-4.85 -1.1 M-2.1 2.5 L-2.0 2.75 Q-2.0 3.0 -2.9 3.65 -3.8 4.3 -4.2 4.3 -4.6 4.3 -4.6 3.95 -4.6 3.55 -3.75 2.95 -2.85 2.3 -2.3 2.3 L-2.1 2.5 M-0.9 2.45 Q-1.45 2.45 -1.45 2.1 -1.45 1.65 -0.85 1.55 -0.3 1.4 -0.3 1.9 -0.3 2.45 -0.9 2.45" fill="#ffffff" fill-rule="evenodd" stroke="none"/>
  </g>
</svg>