<?xml version="1.0" encoding="UTF-8" standalone="no"?>
<svg xmlns:xlink="http://www.w3.org/1999/xlink" height="12.95px" width="12.95px" xmlns="http://www.w3.org/2000/svg">
  <g transform="matrix(1.0, 0.0, 0.0, 1.0, 6.5, 6.45)">
    <path d="M1.95 -4.6 L3.7 -3.25 4.95 -1.4 Q5.45 -0.35 5.45 0.85 L5.45 0.9 5.25 2.15 4.65 3.5 3.6 4.6 2.9 5.05 0.7 5.5 Q-1.35 5.4 -3.3 4.0 -5.25 2.6 -5.45 0.65 -5.6 -1.4 -4.9 -3.1 L-3.55 -5.05 Q-3.35 -5.1 -3.15 -5.25 -0.45 -5.9 1.95 -4.6 M-4.65 -0.6 Q-4.75 0.85 -3.9 2.3 -3.05 3.7 -1.8 4.35 L0.6 4.6 2.25 3.95 3.15 3.25 3.95 2.2 4.35 0.9 4.3 0.0 Q4.0 -1.85 2.5 -3.0 0.9 -4.25 -1.05 -4.5 -3.05 -4.75 -3.8 -3.4 -4.6 -2.1 -4.65 -0.6" fill="#a36a6a" fill-rule="evenodd" stroke="none"/>
    <path d="M-4.65 -0.6 Q-4.6 -2.1 -3.8 -3.4 -3.05 -4.75 -1.05 -4.5 0.9 -4.25 2.5 -3.0 4.0 -1.85 4.3 0.0 L4.35 0.9 3.95 2.2 3.15 3.25 2.25 3.95 0.6 4.6 -1.8 4.35 Q-3.05 3.7 -3.9 2.3 -4.75 0.85 -4.65 -0.6" fill="url(#gradient0)" fill-rule="evenodd" stroke="none"/>
    <path d="M-1.8 -3.35 Q0.05 -3.1 0.95 -1.0 1.55 0.65 1.45 1.45 1.3 2.3 0.7 2.95 -0.1 3.9 -1.4 3.7 -3.15 3.4 -3.9 1.6 -4.45 0.25 -4.25 -0.9 L-3.75 -2.5 Q-3.0 -3.55 -1.8 -3.35" fill="#a36a6a" fill-rule="evenodd" stroke="none"/>
  </g>
  <defs>
    <radialGradient cx="0" cy="0" gradientTransform="matrix(0.0106, 0.0, 0.0, 0.0106, -1.0, 4.0)" gradientUnits="userSpaceOnUse" id="gradient0" r="819.2" spreadMethod="pad">
      <stop offset="0.47843137254901963" stop-color="#ffffff"></stop>
      <stop offset="0.8823529411764706" stop-color="#f2eaea"></stop>
    </radialGradient>
  </defs>
</svg>