<?xml version="1.0" encoding="UTF-8" standalone="no"?>
<svg xmlns:xlink="http://www.w3.org/1999/xlink" height="21.9px" width="13.3px" xmlns="http://www.w3.org/2000/svg">
  <g transform="matrix(1.0, 0.0, 0.0, 1.0, 3.3, 9)">
    <path d="M1.65 3.1 L1.55 2.95 1.5 2.7 2.25 1.25 Q3.0 -0.35 3.0 -2.25 2.95 -3.25 3.9 -4.7 L5.6 -6.95 5.8 -6.95 5.85 -6.9 5.9 -6.65 5.2 -3.95 4.4 -1.5 4.45 1.15 Q4.15 3.3 2.25 3.3 L1.65 3.1 M4.85 3.85 Q4.85 2.15 6.95 4.0 9.0 5.85 9.0 6.9 9.0 9.25 6.8 9.5 L6.45 9.5 7.8 7.95 Q7.8 6.8 6.35 5.45 L4.85 3.85" fill="#ffffff" fill-rule="evenodd" stroke="none"/>
    <path d="M5.85 -6.9 L5.8 -6.95 5.6 -6.95 3.9 -4.7 Q2.95 -3.25 3.0 -2.25 3.0 -0.35 2.25 1.25 L1.5 2.7 1.55 2.95 1.65 3.1 1.75 3.2 1.2 3.2 Q-0.35 3.2 -1.45 2.35 -2.3 1.75 -2.3 1.35 -2.3 0.75 -0.3 0.45 1.65 0.2 1.65 -0.6 L1.2 -2.25 Q1.2 -4.4 3.6 -6.7 6.0 -8.95 6.0 -7.25 L5.85 -6.9 M6.8 9.5 L5.85 9.95 -0.15 11.9 -0.3 11.85 Q0.95 10.4 3.25 8.8 L5.3 7.4 4.45 5.8 3.6 4.5 Q3.6 3.35 4.85 3.85 L6.35 5.45 Q7.8 6.8 7.8 7.95 L6.45 9.5 6.8 9.5" fill="#ffffff" fill-opacity="0.4" fill-rule="evenodd" stroke="none"/>
  </g>
</svg>