<?xml version="1.0" encoding="UTF-8" standalone="no"?>
<svg xmlns:xlink="http://www.w3.org/1999/xlink" height="9.1px" width="10.95px" xmlns="http://www.w3.org/2000/svg">
  <g transform="matrix(1.0, 0.0, 0.0, 1.0, 5.5, 4.55)">
    <path d="M-3.85 2.95 L-4.4 3.25 -4.5 3.25 -3.55 0.8 -2.75 -0.8 -0.45 -3.55 0.6 -3.25 Q2.05 -2.55 2.85 -1.35 L3.4 -0.55 4.15 0.95 4.45 1.9 4.2 1.9 3.3 2.0 3.25 1.9 2.85 0.9 1.9 -0.8 Q1.2 -1.75 0.3 -2.15 L-0.1 -2.3 -0.15 -2.3 -1.4 -0.8 Q-2.4 0.6 -3.05 2.6 L-3.1 2.75 -3.85 2.95" fill="#a36a6a" fill-rule="evenodd" stroke="none"/>
    <path d="M0.3 -2.15 Q1.2 -1.75 1.9 -0.8 L2.85 0.9 3.25 1.9 3.3 2.0 4.2 1.9 4.2 2.0 3.25 2.55 2.1 3.0 0.9 3.35 -0.7 3.55 -1.6 3.5 -1.4 3.25 -0.65 1.75 Q0.55 -0.45 0.55 -1.25 L0.3 -2.15" fill="#e0cbcb" fill-rule="evenodd" stroke="none"/>
    <path d="M-3.85 2.95 L-3.1 2.75 -3.05 2.6 Q-2.4 0.6 -1.4 -0.8 L-0.15 -2.3 -0.1 -2.3 0.3 -2.15 0.55 -1.25 Q0.55 -0.45 -0.65 1.75 L-1.4 3.25 -1.6 3.5 -2.35 3.4 -2.85 3.3 -3.85 2.95" fill="url(#gradient0)" fill-rule="evenodd" stroke="none"/>
  </g>
  <defs>
    <radialGradient cx="0" cy="0" gradientTransform="matrix(0.0362, -0.0086, 0.0053, 0.0224, 53.6, -16.2)" gradientUnits="userSpaceOnUse" id="gradient0" r="819.2" spreadMethod="pad">
      <stop offset="0.47843137254901963" stop-color="#ffffff"></stop>
      <stop offset="0.8823529411764706" stop-color="#f2eaea"></stop>
    </radialGradient>
  </defs>
</svg>