<?xml version="1.0" encoding="UTF-8" standalone="no"?>
<svg xmlns:xlink="http://www.w3.org/1999/xlink" height="24.45px" width="22.55px" xmlns="http://www.w3.org/2000/svg">
  <g transform="matrix(1.0, 0.0, 0.0, 1.0, 11.3, 12.25)">
    <path d="M-6.4 -0.05 L-6.95 -0.55 Q-6.85 -1.35 -7.3 -2.4 -7.75 -3.45 -7.6 -4.1 L-7.5 -5.7 Q-7.2 -5.8 -5.9 -5.2 L-3.6 -3.55 Q-2.55 -2.55 -1.15 -1.8 0.25 -1.1 1.2 -0.95 2.1 -0.8 2.35 -1.9 L2.4 -1.9 6.0 2.95 6.5 3.75 6.3 4.35 Q5.75 5.7 3.8 5.7 2.55 5.7 1.65 5.05 L1.25 4.75 0.55 2.3 Q0.4 1.4 -0.3 0.5 L-2.35 -1.45 -4.8 -3.3 -6.6 -4.7 -6.95 -5.0 -7.0 -5.05 -7.2 -4.8 -7.2 -4.75 -6.85 -4.2 -6.7 -4.0 -6.65 -4.0 -6.6 -3.9 -6.45 -3.8 -5.65 -3.05 Q-5.5 -2.25 -3.8 0.5 -3.3 1.1 -2.35 2.85 L-1.95 3.55 -3.25 2.6 -6.4 -0.05 M2.05 7.0 L2.0 6.9 2.1 6.95 2.05 7.0 M1.35 8.7 L0.6 8.25 -2.3 7.05 -2.05 7.0 -0.2 7.25 0.15 6.9 Q0.35 6.35 -4.8 3.85 -2.5 4.0 -0.95 4.8 0.6 5.6 0.55 6.0 L0.75 6.75 1.0 7.75 1.35 8.7" fill="#e0cbcb" fill-rule="evenodd" stroke="none"/>
    <path d="M2.35 -1.9 L1.7 -2.6 Q-0.95 -5.15 -9.2 -10.25 L-9.35 -8.5 Q-9.65 -2.8 -7.45 -0.95 L-6.4 -0.05 -3.25 2.6 -1.95 3.55 -1.9 3.6 -1.95 3.6 -1.9 3.65 -1.1 3.9 -0.05 4.35 -0.4 2.85 Q-0.85 0.55 -3.15 -1.0 L-3.8 -1.5 -4.1 -1.7 -5.1 -2.55 -5.65 -3.05 -6.45 -3.8 -6.6 -3.9 -6.65 -4.0 -6.7 -4.0 -6.85 -4.2 -7.2 -4.75 -7.2 -4.8 -7.0 -5.05 -6.95 -5.0 -6.6 -4.7 -4.8 -3.3 -2.35 -1.45 -0.3 0.5 Q0.4 1.4 0.55 2.3 L1.25 4.75 2.0 6.9 2.05 7.0 3.2 9.85 3.25 10.1 3.25 10.2 3.2 10.4 3.0 10.55 2.85 10.55 2.15 10.1 Q1.45 9.45 -1.15 8.15 L-3.5 6.75 Q-3.5 6.25 -1.2 6.5 -2.15 5.75 -4.3 4.65 L-6.1 3.6 Q-6.1 2.85 -4.05 3.15 L-4.3 2.95 -8.35 -0.75 Q-9.6 -2.2 -10.0 -4.4 L-10.3 -8.25 Q-10.3 -11.8 -8.85 -11.15 L-4.8 -8.5 Q-0.05 -5.45 2.75 -2.6 L5.2 0.4 7.2 3.25 8.95 6.45 10.25 9.35 10.15 9.6 9.8 9.8 9.7 9.75 9.25 9.2 8.5 7.55 6.85 4.3 6.55 3.85 6.5 3.75 6.0 2.95 2.4 -1.9 2.35 -1.9 M1.35 8.7 L1.0 7.75 0.75 6.75 0.55 6.0 Q0.6 5.6 -0.95 4.8 -2.5 4.0 -4.8 3.85 0.35 6.35 0.15 6.9 L-0.2 7.25 -2.05 7.0 -2.3 7.05 0.6 8.25 1.35 8.7" fill="#a36a6a" fill-rule="evenodd" stroke="none"/>
    <path d="M2.35 -1.9 Q2.1 -0.8 1.2 -0.95 0.25 -1.1 -1.15 -1.8 -2.55 -2.55 -3.6 -3.55 L-5.9 -5.2 Q-7.2 -5.8 -7.5 -5.7 L-7.6 -4.1 Q-7.75 -3.45 -7.3 -2.4 -6.85 -1.35 -6.95 -0.55 L-6.4 -0.05 -7.45 -0.95 Q-9.65 -2.8 -9.35 -8.5 L-9.2 -10.25 Q-0.95 -5.15 1.7 -2.6 L2.35 -1.9" fill="url(#gradient0)" fill-rule="evenodd" stroke="none"/>
    <path d="M-1.95 3.55 L-2.35 2.85 Q-3.3 1.1 -3.8 0.5 -5.5 -2.25 -5.65 -3.05 L-5.1 -2.55 -4.1 -1.7 -3.8 -1.5 -3.15 -1.0 Q-0.85 0.55 -0.4 2.85 L-0.05 4.35 -1.1 3.9 -1.9 3.65 -1.9 3.6 -1.95 3.55 M1.25 4.75 L1.65 5.05 Q2.55 5.7 3.8 5.7 5.75 5.7 6.3 4.35 L6.5 3.75 6.55 3.85 6.85 4.3 8.5 7.55 9.25 9.2 9.7 9.75 8.9 10.5 Q7.8 11.2 6.1 11.2 L3.65 10.9 2.95 10.55 3.0 10.55 3.2 10.4 3.25 10.2 3.25 10.1 3.2 9.85 2.05 7.0 2.1 6.95 2.0 6.9 1.25 4.75" fill="#cca9a9" fill-rule="evenodd" stroke="none"/>
  </g>
  <defs>
    <radialGradient cx="0" cy="0" gradientTransform="matrix(0.0362, -0.0086, 0.0053, 0.0224, -21.2, 4.2)" gradientUnits="userSpaceOnUse" id="gradient0" r="819.2" spreadMethod="pad">
      <stop offset="0.47843137254901963" stop-color="#ffffff"></stop>
      <stop offset="0.8823529411764706" stop-color="#f2eaea"></stop>
    </radialGradient>
  </defs>
</svg>