<?xml version="1.0" encoding="UTF-8" standalone="no"?>
<svg xmlns:xlink="http://www.w3.org/1999/xlink" height="23.2px" width="23.2px" xmlns="http://www.w3.org/2000/svg">
  <g transform="matrix(1.0, 0.0, 0.0, 1.0, 11.6, 11.6)">
    <path d="M7.45 -5.8 L6.65 -6.65 Q3.9 -9.4 0.0 -9.4 -3.9 -9.4 -6.65 -6.65 L-7.4 -5.8 -8.3 -4.45 Q-9.4 -2.45 -9.4 0.0 -9.4 2.45 -8.3 4.5 L-6.65 6.65 Q-3.9 9.4 0.0 9.4 3.9 9.4 6.65 6.65 9.4 3.9 9.4 0.0 9.4 -3.3 7.45 -5.8 M6.6 8.6 Q8.15 8.6 8.15 7.25 L8.2 6.8 8.15 6.8 7.5 7.5 6.3 8.6 6.6 8.6 M7.5 -7.5 L8.9 -5.8 Q10.6 -3.25 10.6 0.0 10.6 3.25 8.95 5.75 L8.95 6.15 Q8.95 9.4 6.7 9.4 6.1 9.4 5.55 9.05 L5.45 9.15 4.5 9.65 Q2.45 10.6 0.0 10.6 -2.45 10.6 -4.45 9.65 L-7.5 7.5 -8.3 6.65 Q-10.6 3.8 -10.6 0.0 -10.6 -4.4 -7.5 -7.5 -4.4 -10.6 0.0 -10.6 4.4 -10.6 7.5 -7.5" fill="#ffffff" fill-rule="evenodd" stroke="none"/>
    <path d="M7.45 -5.8 Q9.4 -3.3 9.4 0.0 9.4 3.9 6.65 6.65 3.9 9.4 0.0 9.4 -3.9 9.4 -6.65 6.65 L-8.3 4.5 Q-9.4 2.45 -9.4 0.0 -9.4 -2.45 -8.3 -4.45 L-7.4 -5.8 -6.65 -6.65 Q-3.9 -9.4 0.0 -9.4 3.9 -9.4 6.65 -6.65 L7.45 -5.8" fill="url(#gradient0)" fill-rule="evenodd" stroke="none"/>
    <path d="M1.1 -5.8 Q0.85 -5.45 0.25 -5.35 L-0.8 -5.5 -1.05 -5.8 Q-1.3 -6.2 -0.95 -6.75 -0.25 -7.8 0.65 -7.25 1.65 -6.7 1.1 -5.8 M-1.45 -6.8 L-2.1 -6.4 -3.1 -6.25 Q-3.7 -6.6 -3.1 -7.45 -2.45 -8.5 -1.65 -8.1 -0.8 -7.8 -1.45 -6.8 M-5.35 -5.95 Q-5.0 -6.45 -4.15 -6.2 -3.75 -6.1 -3.7 -5.8 L-3.9 -5.25 Q-4.1 -5.0 -4.55 -4.95 L-5.15 -5.0 Q-5.75 -5.4 -5.45 -5.8 L-5.35 -5.95 M-1.5 -4.2 L-2.8 -4.15 Q-3.6 -4.65 -3.2 -5.3 -2.7 -6.1 -1.7 -5.45 -1.1 -5.05 -1.5 -4.2" fill="#ffffff" fill-rule="evenodd" stroke="none"/>
    <path d="M8.25 1.2 Q8.25 2.95 6.8 4.95 4.75 7.7 1.1 7.7 L0.1 7.35 Q0.15 7.05 1.75 6.5 L4.05 5.55 Q5.9 4.05 6.2 2.95 L6.95 0.3 Q7.4 -0.9 7.9 -0.95 8.35 -1.05 8.35 0.0 L8.25 1.2" fill="#ffffff" fill-rule="evenodd" stroke="none"/>
  </g>
  <defs>
    <radialGradient cx="0" cy="0" gradientTransform="matrix(0.016, 0.0, 0.0, 0.016, -1.45, -3.45)" gradientUnits="userSpaceOnUse" id="gradient0" r="819.2" spreadMethod="pad">
      <stop offset="0.3686274509803922" stop-color="#ffffff" stop-opacity="0.6"></stop>
      <stop offset="0.49019607843137253" stop-color="#f7ffd6" stop-opacity="0.49803922"></stop>
      <stop offset="0.6352941176470588" stop-color="#ffc4c4" stop-opacity="0.50980395"></stop>
      <stop offset="1.0" stop-color="#bdffdd" stop-opacity="0.49803922"></stop>
    </radialGradient>
  </defs>
</svg>