<?xml version="1.0" encoding="UTF-8" standalone="no"?>
<svg xmlns:xlink="http://www.w3.org/1999/xlink" height="14.9px" width="29.9px" xmlns="http://www.w3.org/2000/svg">
  <g transform="matrix(1.0, 0.0, 0.0, 1.0, 14.95, 7.45)">
    <path d="M-11.65 -4.2 L-11.7 -4.15 -11.8 -3.75 Q-12.3 -1.95 -13.05 -0.5 L-13.5 0.3 -13.6 0.45 Q-13.95 0.4 -13.95 0.0 L-13.45 -2.2 Q-12.9 -4.15 -12.35 -4.9 -11.35 -6.25 -9.7 -6.45 -7.45 -6.5 -5.55 -5.4 L-3.4 -3.75 Q-1.0 -4.7 1.5 -4.95 L6.45 -4.65 Q8.6 -4.05 10.55 -3.15 L12.15 -2.3 Q13.95 -1.25 13.95 -0.45 L11.45 0.0 6.75 0.85 Q5.65 1.15 4.1 2.0 L1.95 3.1 -1.9 4.8 Q-6.3 6.45 -10.25 6.45 L-11.85 6.15 Q-12.1 6.05 -12.3 5.9 L-9.2 3.1 Q-6.55 0.8 -5.85 -0.55 L-4.85 -2.3 -4.4 -2.95 -3.8 -3.5 -7.55 -5.75 Q-8.95 -6.1 -10.15 -5.75 -11.35 -5.4 -11.5 -4.45 L-11.65 -4.2 M12.8 -0.85 L12.1 -1.5 11.3 -2.1 11.05 -2.3 Q8.85 -3.5 6.6 -4.05 L2.55 -4.6 Q0.0 -4.5 -2.1 -3.35 L-3.95 -2.3 -4.5 -1.5 Q-3.9 -1.85 -3.05 -2.3 -1.5 -3.15 0.25 -3.35 L1.15 -3.5 -1.2 -2.6 -1.95 -2.3 -2.15 -2.2 -5.5 -0.2 -5.8 0.15 -5.95 0.35 -7.1 1.65 -5.85 1.15 -5.0 0.8 -3.15 0.2 -0.35 -0.45 -1.25 0.05 -3.3 0.85 -7.2 2.55 -7.65 2.75 -8.45 3.1 -8.55 3.15 -8.6 3.15 -9.5 3.95 -11.5 5.5 -11.55 5.55 -11.2 5.55 -10.95 5.65 -10.6 5.85 Q-4.6 5.85 1.15 2.65 7.05 -0.65 12.85 -0.8 L12.8 -0.85" fill="#a36a6a" fill-rule="evenodd" stroke="none"/>
    <path d="M-11.8 -3.75 L-11.9 -3.25 -11.1 -3.2 -10.95 -2.5 -11.3 -1.05 -11.25 -0.8 -10.95 -0.75 Q-10.7 -0.75 -10.5 -1.5 -10.25 -2.25 -9.7 -2.3 L-9.65 -2.3 -9.4 -1.3 -9.6 0.05 -12.25 0.5 -13.5 0.3 -13.05 -0.5 Q-12.3 -1.95 -11.8 -3.75 M-11.5 -4.45 L-11.65 -4.2 -11.5 -4.45 M-8.65 -1.05 L-8.65 -1.25 -8.6 -1.0 -8.65 -1.05 M-5.8 0.15 L-5.75 0.2 -5.95 0.35 -5.8 0.15 M-5.85 1.15 L-2.9 -0.4 0.95 -1.35 1.85 -1.45 2.6 -1.4 2.45 -1.35 2.1 -1.25 -0.35 -0.45 -3.15 0.2 -5.0 0.8 -5.85 1.15 M-11.2 5.55 Q-9.7 5.25 -6.15 3.95 -2.25 2.5 -1.45 1.85 L-1.3 1.75 1.3 0.6 4.35 -0.9 8.3 -1.55 Q11.35 -1.55 12.6 -0.95 L12.8 -0.85 12.85 -0.8 Q7.05 -0.65 1.15 2.65 -4.6 5.85 -10.6 5.85 L-10.95 5.65 -11.2 5.55" fill="#e0cbcb" fill-rule="evenodd" stroke="none"/>
    <path d="M-5.8 0.15 L-5.5 -0.2 -2.15 -2.2 -1.95 -2.3 -1.2 -2.6 1.15 -3.5 0.25 -3.35 Q-1.5 -3.15 -3.05 -2.3 -3.9 -1.85 -4.5 -1.5 L-3.95 -2.3 -2.1 -3.35 Q0.0 -4.5 2.55 -4.6 L6.6 -4.05 Q8.85 -3.5 11.05 -2.3 L11.3 -2.1 12.1 -1.5 12.8 -0.85 12.6 -0.95 Q11.35 -1.55 8.3 -1.55 L4.35 -0.9 1.3 0.6 -1.3 1.75 -1.45 1.85 Q-2.25 2.5 -6.15 3.95 -9.7 5.25 -11.2 5.55 L-11.55 5.55 -11.5 5.5 -9.5 3.95 -8.6 3.15 -8.55 3.15 -8.45 3.1 -7.65 2.75 -7.2 2.55 -3.3 0.85 -1.25 0.05 -0.35 -0.45 2.1 -1.25 2.45 -1.35 2.6 -1.4 1.85 -1.45 0.95 -1.35 -2.9 -0.4 -5.85 1.15 -7.1 1.65 -5.95 0.35 -5.75 0.2 -5.8 0.15" fill="url(#gradient0)" fill-rule="evenodd" stroke="none"/>
    <path d="M-11.8 -3.75 L-11.7 -4.15 -11.65 -4.2 -11.5 -4.45 Q-11.35 -5.4 -10.15 -5.75 -8.95 -6.1 -7.55 -5.75 L-3.8 -3.5 -4.4 -2.95 -5.2 -2.3 -6.95 -1.0 -8.75 -0.25 -9.25 -0.05 -9.6 0.05 -9.4 -1.3 -9.65 -2.3 -9.7 -2.3 Q-10.25 -2.25 -10.5 -1.5 -10.7 -0.75 -10.95 -0.75 L-11.25 -0.8 -11.3 -1.05 -10.95 -2.5 -11.1 -3.2 -11.9 -3.25 -11.8 -3.75 M-8.65 -1.05 L-8.6 -1.0 -8.65 -1.25 -8.65 -1.05" fill="url(#gradient1)" fill-rule="evenodd" stroke="none"/>
  </g>
  <defs>
    <radialGradient cx="0" cy="0" gradientTransform="matrix(0.0161, 0.0, 0.0, 0.0161, -4.1, -5.45)" gradientUnits="userSpaceOnUse" id="gradient0" r="819.2" spreadMethod="pad">
      <stop offset="0.47843137254901963" stop-color="#ffffff"></stop>
      <stop offset="0.8823529411764706" stop-color="#f2eaea"></stop>
    </radialGradient>
    <radialGradient cx="0" cy="0" gradientTransform="matrix(0.0074, 0.0, 0.0, 0.0074, -9.65, -7.5)" gradientUnits="userSpaceOnUse" id="gradient1" r="819.2" spreadMethod="pad">
      <stop offset="0.47843137254901963" stop-color="#ffffff"></stop>
      <stop offset="0.8823529411764706" stop-color="#f2eaea"></stop>
    </radialGradient>
  </defs>
</svg>