<?xml version="1.0" encoding="UTF-8" standalone="no"?>
<svg xmlns:xlink="http://www.w3.org/1999/xlink" height="23.95px" width="21.85px" xmlns="http://www.w3.org/2000/svg">
  <g transform="matrix(1.0, 0.0, 0.0, 1.0, 11.7, 11.3)">
    <path d="M0.35 9.1 Q2.35 6.45 6.5 7.3 L7.35 7.55 7.3 7.45 7.6 7.65 8.75 8.7 9.15 9.55 8.6 9.2 8.05 8.85 5.75 8.1 Q2.5 7.9 0.75 10.5 0.4 10.35 0.3 9.8 L0.2 9.5 0.35 9.1 M-1.85 9.65 L-1.55 9.85 Q-0.8 10.25 -0.8 11.15 L-0.8 11.3 -0.55 11.65 -0.85 11.25 Q-2.95 9.95 -5.2 9.65 L-5.4 9.5 -6.1 8.95 -6.05 8.85 -5.8 8.85 -4.4 8.9 Q-3.1 9.2 -1.8 9.75 L-1.85 9.65" fill="#a36a6a" fill-rule="evenodd" stroke="none"/>
    <path d="M-1.8 4.3 L-1.95 3.6 -2.25 1.9 -2.35 -0.05 -2.45 -1.75 -2.3 -3.05 -2.05 -3.05 -0.65 -2.15 0.45 -1.35 0.5 -1.35 0.2 -1.75 2.3 0.75 6.65 6.55 7.3 7.45 7.35 7.55 6.5 7.3 Q2.35 6.45 0.35 9.1 L0.15 9.35 -1.8 4.3 M-0.7 -2.65 L-1.05 -3.0 -1.05 -3.05 -0.7 -2.65" fill="#e0cbcb" fill-rule="evenodd" stroke="none"/>
    <path d="M-7.25 -10.15 L-7.3 -10.3 -7.2 -10.2 -7.25 -10.15" fill="#666666" fill-rule="evenodd" stroke="none"/>
    <path d="M0.2 -1.75 L0.5 -1.35 0.45 -1.35 -0.65 -2.15 -2.05 -3.05 -2.3 -3.05 -2.45 -1.75 -2.35 -0.05 -2.25 1.9 -1.95 3.6 -1.8 4.3 -2.75 2.0 -2.85 1.7 -3.25 0.75 -6.2 -6.0 -6.3 -5.8 -6.35 -5.75 -6.85 -6.75 -6.9 -7.8 -7.25 -9.4 -7.25 -9.45 -7.4 -9.85 -7.05 -9.65 -7.0 -9.35 -7.0 -9.15 -6.75 -9.0 -1.05 -3.05 -1.05 -3.0 -0.7 -2.65 0.2 -1.75 M-5.4 9.5 Q-6.35 9.5 -7.9 8.4 -9.3 7.45 -9.75 6.7 -10.7 4.65 -10.7 3.45 -10.7 1.85 -10.1 1.05 L-8.75 -0.5 -8.55 -0.2 -8.45 -0.05 -2.15 9.25 -1.9 9.65 -1.85 9.65 -1.8 9.75 Q-3.1 9.2 -4.4 8.9 L-5.8 8.85 -6.05 8.85 -6.1 8.95 -5.4 9.5" fill="#cca9a9" fill-rule="evenodd" stroke="none"/>
  </g>
</svg>