<?xml version="1.0" encoding="UTF-8" standalone="no"?>
<svg xmlns:xlink="http://www.w3.org/1999/xlink" height="32.4px" width="39.05px" xmlns="http://www.w3.org/2000/svg">
  <g transform="matrix(1.0, 0.0, 0.0, 1.0, 16.1, 15.1)">
    <path d="M19.8 -9.05 Q18.9 -10.6 17.6 -11.55 12.95 -13.2 10.95 -13.2 L10.55 -13.1 10.85 -12.75 12.35 -10.95 14.55 -10.05 Q16.2 -9.2 16.45 -8.3 L16.3 -8.2 Q16.05 -8.55 13.85 -9.6 13.3 -9.85 12.9 -10.05 L13.6 -8.75 14.2 -8.45 15.8 -7.05 15.8 -6.75 14.35 -7.45 14.1 -7.6 14.5 -6.0 15.35 -5.2 17.9 -9.35 18.15 -8.9 18.0 -8.1 17.05 -6.0 16.5 -5.0 13.75 -1.4 12.4 0.3 11.3 1.3 10.1 2.3 10.8 2.35 11.1 2.2 10.2 2.85 9.75 3.0 9.15 2.95 6.4 2.6 2.6 1.6 -1.15 -0.15 -0.25 -0.05 2.3 0.75 Q4.2 1.45 5.95 1.75 L9.05 2.25 10.15 1.3 Q12.05 -0.3 13.45 -2.35 L14.0 -3.25 13.9 -5.0 Q13.55 -7.6 11.9 -9.9 9.75 -12.9 9.75 -13.15 9.75 -15.5 17.95 -11.9 L17.95 -11.85 17.55 -11.95 Q19.5 -11.3 20.75 -9.0 21.95 -6.8 21.95 -4.55 L21.2 -2.05 Q20.45 0.3 20.45 2.1 20.45 3.2 21.15 5.3 21.8 7.35 21.8 8.65 21.8 10.15 21.2 11.5 20.5 13.1 19.3 13.1 L18.9 13.05 18.9 13.1 18.1 13.1 Q16.05 13.1 14.5 12.2 L12.95 10.9 12.0 11.7 Q10.6 13.0 6.6 14.55 2.2 16.3 -0.6 16.3 L-1.95 16.15 -2.3 16.1 -2.55 16.05 -2.6 15.9 -2.45 15.9 -2.05 15.85 -1.1 15.65 -0.8 15.6 -0.7 15.6 Q2.8 14.95 4.95 14.15 9.4 12.4 11.2 11.0 L15.0 8.3 15.85 7.7 15.75 7.85 15.3 8.4 15.2 8.55 15.0 8.75 14.95 8.85 13.7 10.3 13.85 10.65 15.2 11.6 Q16.35 12.25 18.1 12.25 L19.0 12.25 19.7 12.1 20.65 11.05 Q21.1 9.95 21.1 8.7 L21.1 8.55 21.1 8.5 20.8 6.65 20.35 5.25 19.75 3.25 18.75 5.3 18.65 5.25 18.6 5.0 Q18.9 2.75 19.55 1.75 L19.75 0.2 20.3 -2.25 21.0 -4.85 21.0 -5.45 Q20.85 -7.1 19.95 -8.75 L19.8 -9.05 M15.05 -4.95 L15.05 -5.0 14.95 -5.0 Q14.8 -5.05 14.6 -5.2 L14.65 -5.0 14.7 -4.25 15.05 -4.95" fill="#a36a6a" fill-rule="evenodd" stroke="none"/>
    <path d="M19.8 -9.05 L19.95 -8.75 Q20.85 -7.1 21.0 -5.45 L20.7 -5.1 Q20.2 -4.15 19.8 -2.8 L18.55 0.55 17.75 2.15 Q17.3 3.15 17.35 3.85 L17.4 5.5 16.9 6.55 16.5 7.15 16.5 7.25 15.45 7.8 Q15.05 7.95 15.0 8.3 L11.2 11.0 Q9.4 12.4 4.95 14.15 2.8 14.95 -0.7 15.6 L-0.8 15.6 -1.1 15.65 -2.05 15.85 -2.45 15.9 -3.05 14.85 -2.65 10.4 -2.55 9.7 -2.5 9.55 -2.4 6.9 -2.45 4.5 -0.55 5.05 4.1 5.5 Q7.3 5.5 9.6 4.5 10.9 4.0 11.5 3.35 12.95 2.65 15.65 0.15 L16.55 -0.65 14.7 0.45 13.4 1.1 13.45 1.05 17.45 -3.75 Q19.8 -6.65 19.8 -8.6 L19.8 -9.05 M21.1 8.7 Q21.1 9.95 20.65 11.05 20.6 10.15 19.95 9.1 19.1 7.8 17.75 7.3 L17.8 7.15 18.4 6.7 18.55 6.55 Q19.75 6.55 20.45 7.7 L21.1 8.7 M-2.3 16.1 L-1.95 16.15 -2.2 16.3 -2.3 16.1 M18.0 -8.1 L18.15 -8.9 17.9 -9.35 15.35 -5.2 14.5 -6.0 14.1 -7.6 14.35 -7.45 15.8 -6.75 15.8 -7.05 14.2 -8.45 13.6 -8.75 12.9 -10.05 Q13.3 -9.85 13.85 -9.6 16.05 -8.55 16.3 -8.2 L16.45 -8.3 Q16.2 -9.2 14.55 -10.05 L12.35 -10.95 10.85 -12.75 Q11.75 -12.25 14.35 -11.45 18.3 -10.15 18.3 -8.9 L18.0 -8.1 M14.95 -5.0 L15.05 -4.95 14.7 -4.25 14.65 -5.0 14.6 -5.2 Q14.8 -5.05 14.95 -5.0 M-15.05 -5.75 L-15.1 -5.75 -15.1 -5.8 -15.05 -5.75" fill="#e0cbcb" fill-rule="evenodd" stroke="none"/>
    <path d="M21.0 -5.45 L21.0 -4.85 20.3 -2.25 19.75 0.2 19.55 1.75 Q18.9 2.75 18.6 5.0 L18.65 5.25 18.75 5.3 19.75 3.25 20.35 5.25 20.8 6.65 21.1 8.5 21.1 8.55 21.1 8.7 20.45 7.7 Q19.75 6.55 18.55 6.55 L18.4 6.7 17.8 7.15 17.75 7.3 Q19.1 7.8 19.95 9.1 20.6 10.15 20.65 11.05 L19.7 12.1 19.0 12.25 18.1 12.25 Q16.35 12.25 15.2 11.6 L13.85 10.65 13.7 10.3 14.95 8.85 15.0 8.75 15.2 8.55 15.3 8.4 15.75 7.85 15.85 7.7 15.0 8.3 Q15.05 7.95 15.45 7.8 L16.5 7.25 16.5 7.15 16.9 6.55 17.4 5.5 17.35 3.85 Q17.3 3.15 17.75 2.15 L18.55 0.55 19.8 -2.8 Q20.2 -4.15 20.7 -5.1 L21.0 -5.45" fill="#cca9a9" fill-rule="evenodd" stroke="none"/>
    <path d="M10.85 -12.75 L10.55 -13.1 10.95 -13.2 Q12.95 -13.2 17.6 -11.55 18.9 -10.6 19.8 -9.05 L19.8 -8.6 Q19.8 -6.65 17.45 -3.75 L13.45 1.05 13.4 1.1 14.7 0.45 16.55 -0.65 15.65 0.15 Q12.95 2.65 11.5 3.35 10.9 4.0 9.6 4.5 7.3 5.5 4.1 5.5 L-0.55 5.05 -2.45 4.5 Q-2.45 2.7 -1.9 1.1 L-1.8 0.95 Q-1.9 0.85 -1.95 0.9 -1.65 0.3 -1.15 -0.15 L2.6 1.6 6.4 2.6 9.15 2.95 9.75 3.0 10.2 2.85 11.1 2.2 10.8 2.35 10.1 2.3 11.3 1.3 12.4 0.3 13.75 -1.4 16.5 -5.0 17.05 -6.0 18.0 -8.1 18.3 -8.9 Q18.3 -10.15 14.35 -11.45 11.75 -12.25 10.85 -12.75" fill="url(#gradient0)" fill-rule="evenodd" stroke="none"/>
  </g>
  <defs>
    <radialGradient cx="0" cy="0" gradientTransform="matrix(0.0281, 0.0, 0.0, 0.0281, 2.9, -14.05)" gradientUnits="userSpaceOnUse" id="gradient0" r="819.2" spreadMethod="pad">
      <stop offset="0.47843137254901963" stop-color="#ffffff"></stop>
      <stop offset="0.8823529411764706" stop-color="#f2eaea"></stop>
    </radialGradient>
  </defs>
</svg>