<?xml version="1.0" encoding="UTF-8" standalone="no"?>
<svg xmlns:xlink="http://www.w3.org/1999/xlink" height="11.25px" width="13.8px" xmlns="http://www.w3.org/2000/svg">
  <g transform="matrix(1.0, 0.0, 0.0, 1.0, 0.8, -0.3)">
    <path d="M11.9 4.6 L11.2 2.9 Q10.85 8.25 10.4 8.9 L9.9 9.9 Q9.2 10.75 8.1 10.45 7.0 10.2 6.1 8.9 5.4 7.85 5.25 6.75 L4.45 6.65 Q4.4 7.7 3.9 8.35 3.3 9.15 2.35 8.95 1.45 8.7 0.85 7.65 0.25 6.6 0.25 5.45 L0.2 4.7 2.0 2.85 Q3.65 1.25 3.75 1.3 L4.2 2.65 Q4.5 4.0 4.3 4.2 L4.15 4.2 4.0 3.05 3.75 2.1 1.5 4.75 9.9 6.35 Q10.75 1.85 11.05 1.9 11.8 2.7 12.0 3.6 L11.9 4.6 M9.65 8.1 L9.9 7.95 9.7 7.25 Q9.5 6.8 9.0 7.05 L9.0 7.5 9.2 7.8 9.65 8.1 M2.8 5.85 L2.75 6.0 Q2.75 6.9 3.4 6.9 L3.6 6.75 3.6 6.25 Q3.3 5.85 2.8 5.85" fill="#000000" fill-rule="evenodd" stroke="none"/>
    <path d="M2.8 5.85 Q3.3 5.85 3.6 6.25 L3.6 6.75 3.4 6.9 Q2.75 6.9 2.75 6.0 L2.8 5.85 M9.65 8.1 L9.2 7.8 9.0 7.5 9.0 7.05 Q9.5 6.8 9.7 7.25 L9.9 7.95 9.65 8.1" fill="#ffffff" fill-rule="evenodd" stroke="none"/>
  </g>
</svg>