<?xml version="1.0" encoding="UTF-8" standalone="no"?>
<svg xmlns:xlink="http://www.w3.org/1999/xlink" height="12.35px" width="8.2px" xmlns="http://www.w3.org/2000/svg">
  <g transform="matrix(1.0, 0.0, 0.0, 1.0, -1.75, 0.65)">
    <path d="M2.75 7.6 Q2.75 6.3 3.1 5.35 3.4 4.4 6.45 0.35 6.15 4.25 7.55 5.3 8.95 6.3 8.95 7.6 8.95 8.9 8.05 9.8 7.15 10.7 5.85 10.7 4.55 10.7 3.65 9.8 2.75 8.9 2.75 7.6" fill="#38ac06" fill-rule="evenodd" stroke="none"/>
    <path d="M4.1 5.05 L5.55 2.75 Q5.85 4.75 7.0 5.5 L7.05 5.55 Q7.9 6.15 8.0 6.95 5.8 7.75 3.8 6.95 3.8 5.9 4.1 5.1 L4.1 5.05" fill="url(#gradient0)" fill-rule="evenodd" stroke="none"/>
  </g>
  <defs>
    <linearGradient gradientTransform="matrix(0.0, -0.0024, 0.0026, 0.0, 5.9, 5.2)" gradientUnits="userSpaceOnUse" id="gradient0" spreadMethod="pad" x1="-819.2" x2="819.2">
      <stop offset="0.0" stop-color="#83ce63"></stop>
      <stop offset="1.0" stop-color="#eefee7"></stop>
    </linearGradient>
  </defs>
</svg>