<?xml version="1.0" encoding="UTF-8" standalone="no"?>
<svg xmlns:xlink="http://www.w3.org/1999/xlink" height="13.4px" width="7.45px" xmlns="http://www.w3.org/2000/svg">
  <g id="shape0" transform="matrix(1.0, 0.0, 0.0, 1.0, 1, 1)">
    <path d="M1.25 3.5 L1.7 3.6 1.75 3.6 Q3.5 3.6 3.75 3.1 L3.8 2.85 3.1 2.7 2.45 2.9 1.25 3.35 1.2 3.5 1.25 3.5 1.25 3.8 1.25 3.5 M5.4 8.7 L5.45 9.4 Q5.45 10.1 2.4 11.3 L1.25 11.15 0.85 10.05 Q0.45 8.65 1.2 7.9 2.05 6.45 2.15 4.3 L2.05 4.35 1.35 4.35 1.25 3.8 1.2 3.7 0.9 3.8 0.45 3.3 Q0.05 2.9 0.0 2.4 L1.2 2.2 Q2.25 1.8 3.0 1.75 3.7 1.65 3.8 0.25 4.4 0.45 4.65 0.95 L5.0 2.4 4.95 3.1 4.6 3.5 Q4.3 3.6 4.6 4.95 L4.7 5.45 4.45 5.2 4.35 5.1 4.55 6.8 4.1 9.95 5.1 9.1 5.4 8.7 M3.85 4.85 Q3.55 4.85 3.5 6.15 L3.45 7.15 Q3.45 8.45 3.95 9.0 L4.05 8.4 4.2 6.15 4.15 5.1 3.85 4.85" fill="#b67852" fill-rule="evenodd" stroke="none"/>
    <path d="M2.45 2.9 L3.1 2.7 3.8 2.85 3.75 3.1 Q3.5 3.6 1.75 3.6 L1.7 3.6 1.25 3.5 1.2 3.5 1.25 3.35 2.45 2.9 M5.4 8.7 L5.1 9.1 4.1 9.95 4.55 6.8 4.35 5.1 4.45 5.2 4.7 5.45 5.4 8.7 M3.8 0.25 Q3.7 1.65 3.0 1.75 2.25 1.8 1.2 2.2 L0.0 2.4 Q-0.1 1.9 0.45 1.3 L1.45 0.4 Q1.95 0.0 2.45 0.0 L3.8 0.25 M1.25 3.5 L1.25 3.35 1.25 3.5 M3.85 4.85 L4.15 5.1 4.2 6.15 4.05 8.4 3.95 9.0 Q3.45 8.45 3.45 7.15 L3.5 6.15 Q3.55 4.85 3.85 4.85" fill="#eeab81" fill-rule="evenodd" stroke="none"/>
    <path d="M1.25 3.5 L1.25 3.8 1.35 4.35 2.05 4.35 2.15 4.3 Q2.05 6.45 1.2 7.9 0.45 8.65 0.85 10.05 L1.25 11.15 2.4 11.3 Q5.45 10.1 5.45 9.4 L5.4 8.7 4.7 5.45 4.6 4.95 Q4.3 3.6 4.6 3.5 L4.95 3.1 5.0 2.4 4.65 0.95 Q4.4 0.45 3.8 0.25 L2.45 0.0 Q1.95 0.0 1.45 0.4 L0.45 1.3 Q-0.1 1.9 0.0 2.4 0.05 2.9 0.45 3.3 L0.9 3.8 1.2 3.7 1.25 3.8 M1.25 3.35 L2.45 2.9 M1.25 3.35 L1.25 3.5" fill="none" stroke="#4d2913" stroke-linecap="round" stroke-linejoin="round" stroke-width="1"/>
  </g>
</svg>