<?xml version="1.0" encoding="UTF-8" standalone="no"?>
<svg xmlns:xlink="http://www.w3.org/1999/xlink" height="6.6px" width="6.65px" xmlns="http://www.w3.org/2000/svg">
  <g transform="matrix(1.0, 0.0, 0.0, 1.0, 1.2, -5.9)">
    <path d="M3.55 7.7 L3.6 7.75 Q4.7 9.1 4.35 10.25 4.15 10.95 3.6 11.3 L2.9 11.5 1.55 11.5 Q0.65 11.45 0.45 11.2 -0.2 10.35 -0.2 8.65 L-0.1 8.2 Q0.05 8.6 0.65 8.6 L1.55 8.35 3.1 7.5 3.2 7.45 3.3 7.5 3.55 7.7" fill="#b67852" fill-rule="evenodd" stroke="none"/>
    <path d="M3.2 7.45 L3.1 7.5 1.55 8.35 0.65 8.6 Q0.05 8.6 -0.1 8.2 0.55 7.3 1.5 7.0 2.4 6.7 3.2 7.45" fill="#eeab81" fill-rule="evenodd" stroke="none"/>
    <path d="M3.55 7.7 L3.3 7.5 3.2 7.45 Q2.4 6.7 1.5 7.0 0.55 7.3 -0.1 8.2 L-0.2 8.65 Q-0.2 10.35 0.45 11.2 0.65 11.45 1.55 11.5 L2.9 11.5" fill="none" stroke="#4d2913" stroke-linecap="round" stroke-linejoin="round" stroke-width="1"/>
  </g>
</svg>