<?xml version="1.0" encoding="UTF-8" standalone="no"?>
<svg xmlns:xlink="http://www.w3.org/1999/xlink" height="8.8px" width="9.55px" xmlns="http://www.w3.org/2000/svg">
  <g id="shape0" transform="matrix(1.0, 0.0, 0.0, 1.0, 5, 1.95)">
    <path d="M-3.9 0.2 L-3.9 0.1 -3.2 0.1 -2.8 0.05 -0.95 -0.25 1.15 -0.85 2.15 -0.75 2.65 -0.4 2.65 -0.35 2.85 0.5 Q2.85 1.2 2.0 1.3 0.85 1.5 0.4 1.95 L-0.75 2.75 -1.75 2.9 -2.35 3.0 -2.8 2.7 -4.0 0.65 -3.9 0.2 M-2.8 2.7 L-2.45 2.9 -2.35 3.0 -2.45 2.9 -2.8 2.7" fill="#faf8f8" fill-rule="evenodd" stroke="none"/>
    <path d="M2.65 -0.4 L2.7 -0.35 3.05 0.05 3.25 0.3 3.3 0.45 3.5 0.9 3.5 2.7 3.3 3.45 3.15 4.5 2.7 5.6 2.45 5.8 1.55 5.7 0.95 5.4 0.5 5.15 -0.75 4.3 -1.1 4.05 -1.85 3.4 -1.95 3.35 Q-2.05 3.25 -2.1 3.25 L-2.15 3.2 -2.35 3.0 -1.75 2.9 -0.75 2.75 0.4 1.95 Q0.85 1.5 2.0 1.3 2.85 1.2 2.85 0.5 L2.65 -0.35 2.65 -0.4" fill="#d6baba" fill-rule="evenodd" stroke="none"/>
    <path d="M-3.9 0.2 L-3.9 0.1 -3.2 0.1 -2.8 0.05 -0.95 -0.25 1.15 -0.85 2.15 -0.75 2.65 -0.4 2.7 -0.35 3.05 0.05 3.25 0.3 3.3 0.45 3.5 0.9 3.5 2.7 3.3 3.45 3.15 4.5 2.7 5.6 2.45 5.8 1.55 5.7 0.95 5.4 0.5 5.15 -0.75 4.3 -1.1 4.05 -1.85 3.4 -1.95 3.35 Q-2.05 3.25 -2.1 3.25 L-2.15 3.2 -2.35 3.0 -2.45 2.9 -2.8 2.7" fill="none" stroke="#a36a6a" stroke-linecap="round" stroke-linejoin="round" stroke-width="1"/>
  </g>
</svg>