<?xml version="1.0" encoding="UTF-8" standalone="no"?>
<svg xmlns:xlink="http://www.w3.org/1999/xlink" height="8.45px" width="9.25px" xmlns="http://www.w3.org/2000/svg">
  <g id="shape0" transform="matrix(1.0, 0.0, 0.0, 1.0, 4.15, 2.1)">
    <path d="M-3.1 -0.05 L-2.05 -0.2 -0.5 -0.65 0.0 -0.9 0.6 -1.05 2.5 -0.85 Q3.45 -0.5 3.9 0.4 L4.0 0.7 4.05 2.15 3.95 2.1 3.5 2.6 2.95 2.75 2.45 2.35 2.4 2.1 2.25 1.9 2.2 1.9 1.95 1.65 1.65 1.5 Q0.7 1.35 -0.15 1.8 L-0.6 2.05 -1.2 2.25 Q-1.45 2.25 -1.65 2.55 L-1.8 2.7 -2.0 3.1 -2.6 2.15 -2.8 1.6 -3.15 0.2 -3.1 -0.05 M-0.5 5.0 L-0.4 5.15 -0.3 5.2 -0.45 5.3 -0.5 5.05 -0.5 5.0 M1.6 2.5 L1.95 3.2 1.85 3.4 1.7 3.5 1.2 2.65 Q1.2 2.25 1.6 2.5 M1.2 3.7 Q0.25 3.65 0.1 3.3 L0.95 3.2 Q1.45 3.2 1.45 3.5 L1.2 3.7" fill="#faf8f8" fill-rule="evenodd" stroke="none"/>
    <path d="M4.05 2.15 L4.0 2.4 3.95 2.55 3.8 3.15 2.75 4.6 Q2.1 5.1 1.3 5.25 L0.55 5.35 -0.3 5.2 -0.5 5.0 -0.65 4.65 -1.2 3.85 -1.4 3.6 -1.5 3.55 -1.6 3.45 -1.95 3.15 -2.0 3.1 -1.8 2.7 -1.65 2.55 Q-1.45 2.25 -1.2 2.25 L-0.6 2.05 -0.15 1.8 Q0.7 1.35 1.65 1.5 L1.95 1.65 2.2 1.9 2.4 2.1 2.2 1.9 2.25 1.9 2.4 2.1 2.45 2.35 2.95 2.75 3.5 2.6 3.95 2.1 4.05 2.15 M1.2 3.7 L1.45 3.5 Q1.45 3.2 0.95 3.2 L0.1 3.3 Q0.25 3.65 1.2 3.7 M1.6 2.5 Q1.2 2.25 1.2 2.65 L1.7 3.5 1.85 3.4 1.95 3.2 1.6 2.5" fill="#d6baba" fill-rule="evenodd" stroke="none"/>
    <path d="M-3.1 -0.05 L-2.05 -0.2 -0.5 -0.65 0.0 -0.9 0.6 -1.05 2.5 -0.85 Q3.45 -0.5 3.9 0.4 L4.0 0.7 4.05 2.15 4.0 2.4 3.95 2.55 3.8 3.15 2.75 4.6 Q2.1 5.1 1.3 5.25 L0.55 5.35 -0.3 5.2 M2.2 1.9 L1.95 1.65 1.65 1.5 Q0.7 1.35 -0.15 1.8 L-0.6 2.05 -1.2 2.25 Q-1.45 2.25 -1.65 2.55 M2.4 2.1 L2.2 1.9" fill="none" stroke="#a36a6a" stroke-linecap="round" stroke-linejoin="round" stroke-width="1"/>
  </g>
</svg>