<?xml version="1.0" encoding="UTF-8" standalone="no"?>
<svg xmlns:xlink="http://www.w3.org/1999/xlink" height="6.65px" width="10.45px" xmlns="http://www.w3.org/2000/svg">
  <g id="shape0" transform="matrix(1.0, 0.0, 0.0, 1.0, 1, 1)">
    <path d="M8.45 0.0 Q7.25 1.35 6.0 3.3 5.05 4.55 3.85 4.6 L4.0 4.6 2.1 4.45 1.1 4.0 0.0 2.95 Q2.1 1.3 3.35 0.7 4.65 0.1 6.2 0.0 L8.45 0.0 M2.65 2.9 L2.65 2.05 Q2.1 2.25 1.7 2.55 2.05 3.5 2.7 3.5 L2.8 3.5 2.65 2.9 M4.5 1.5 L3.0 1.95 Q2.95 2.95 3.2 3.4 L3.8 2.9 4.55 1.5 4.5 1.5" fill="#201e1e" fill-rule="evenodd" stroke="none"/>
    <path d="M4.5 1.5 L4.55 1.5 3.8 2.9 3.2 3.4 Q2.95 2.95 3.0 1.95 L4.5 1.5 M2.65 2.9 L2.8 3.5 2.7 3.5 Q2.05 3.5 1.7 2.55 2.1 2.25 2.65 2.05 L2.65 2.9" fill="#e7d8d8" fill-rule="evenodd" stroke="none"/>
  </g>
</svg>