<?xml version="1.0" encoding="UTF-8" standalone="no"?>
<svg xmlns:xlink="http://www.w3.org/1999/xlink" height="6.6px" width="7.05px" xmlns="http://www.w3.org/2000/svg">
  <g id="shape0" transform="matrix(1.0, 0.0, 0.0, 1.0, 3.5, 3.3)">
    <path d="M-2.45 1.6 L-2.45 1.05 -2.45 0.3 Q-2.4 -0.45 -1.9 -0.95 -1.75 -1.1 -1.75 -1.3 L-1.65 -0.95 Q-1.5 0.05 -0.8 0.75 L-0.75 0.8 Q-0.85 -0.2 -0.35 -1.05 L0.55 -2.3 Q0.5 -1.2 0.85 -0.1 L1.0 0.35 1.45 -0.5 1.5 -0.55 1.55 -0.55 1.65 -0.35 1.75 0.05 2.2 1.05 2.55 1.45 1.55 1.8 -0.8 2.3 Q-1.55 2.3 -2.4 1.65 L-2.45 1.6" fill="#faf8f8" fill-rule="evenodd" stroke="none"/>
    <path d="M-2.45 1.6 L-2.45 1.05 -2.45 0.3 Q-2.4 -0.45 -1.9 -0.95 -1.75 -1.1 -1.75 -1.3 L-1.65 -0.95 Q-1.5 0.05 -0.8 0.75 L-0.75 0.8 Q-0.85 -0.2 -0.35 -1.05 L0.55 -2.3 Q0.5 -1.2 0.85 -0.1 L1.0 0.35 1.45 -0.5 1.5 -0.55 1.55 -0.55 1.65 -0.35 1.75 0.05 2.2 1.05 2.55 1.45" fill="none" stroke="#a36a6a" stroke-linecap="round" stroke-linejoin="round" stroke-width="1"/>
  </g>
</svg>