<?xml version="1.0" encoding="UTF-8" standalone="no"?>
<svg xmlns:xlink="http://www.w3.org/1999/xlink" height="8.7px" width="12.15px" xmlns="http://www.w3.org/2000/svg">
  <g id="shape0" transform="matrix(1.0, 0.0, 0.0, 1.0, 6.1, 1.2)">
    <path d="M3.35 2.9 L3.2 2.8 2.6 2.65 1.35 2.5 Q0.9 2.4 0.9 2.7 L0.95 2.85 2.1 3.05 4.7 3.95 3.9 3.75 2.1 3.05 3.9 3.75 4.7 3.95 4.95 4.1 Q4.95 4.3 4.4 4.4 L2.0 4.6 2.1 4.75 1.65 5.0 1.5 5.05 0.35 5.25 0.15 5.0 0.4 5.0 1.65 5.0 0.4 5.0 0.15 5.0 -0.35 5.0 -1.05 4.85 -1.95 4.7 -2.55 4.5 -3.55 4.0 -4.1 3.5 -4.8 2.7 -4.95 2.4 -5.1 1.8 -5.05 1.2 -4.8 0.75 -4.55 0.4 Q-3.8 -0.2 -2.9 -0.2 L-1.2 0.1 -0.75 0.3 -0.35 0.45 -0.2 0.55 0.8 1.5 2.45 2.05 Q3.45 2.35 3.45 2.7 L3.35 2.9 M-0.9 1.8 L-0.4 2.0 0.75 2.35 2.15 2.55 2.6 2.6 3.45 2.7 2.6 2.6 2.15 2.55 0.75 2.35 -0.4 2.0 -0.9 1.8 M2.6 2.6 L2.65 2.6 2.6 2.6 M1.15 3.95 L1.35 4.0 1.5 4.0 2.65 4.1 2.8 4.05 2.8 4.0 Q-2.45 2.4 -2.45 2.0 L-1.85 1.1 -3.0 1.2 -3.25 1.9 -2.0 2.95 -1.95 2.95 -1.2 3.25 -1.05 3.3 -0.35 3.55 -0.3 3.55 -0.25 3.6 -0.2 3.6 -0.05 3.65 0.5 3.8 0.95 3.9 1.15 3.95 1.9 4.1 2.7 4.15 4.4 4.4 2.7 4.15 1.9 4.1 1.15 3.95 M-3.25 2.05 L-3.1 2.4 -3.25 2.05 -3.0 2.45 -2.3 2.8 -1.2 3.25 -0.3 3.55 -1.2 3.25 -2.3 2.8 -3.0 2.45 -3.25 2.05" fill="#faf8f8" fill-rule="evenodd" stroke="none"/>
    <path d="M3.35 2.9 L3.05 2.95 2.15 3.0 2.1 3.05 0.95 2.85 0.9 2.7 Q0.9 2.4 1.35 2.5 L2.6 2.65 3.2 2.8 3.35 2.9 M0.35 5.25 L1.6 6.5 1.1 6.4 0.4 6.25 -1.25 5.65 -2.15 5.15 -2.55 4.5 -1.95 4.7 -1.05 4.85 -0.35 5.0 0.15 5.0 0.35 5.25 M-0.3 3.55 L-0.35 3.55 -1.05 3.3 -1.2 3.25 -1.95 2.95 -2.0 2.95 -3.25 1.9 -3.0 1.2 -1.85 1.1 -2.45 2.0 Q-2.45 2.4 2.8 4.0 L2.8 4.05 2.65 4.1 1.5 4.0 1.35 4.0 1.15 3.95 0.5 3.8 0.05 3.65 -0.2 3.6 0.05 3.65 0.5 3.8 1.15 3.95 0.95 3.9 0.5 3.8 -0.05 3.65 -0.2 3.6 -0.25 3.6 -0.3 3.55 M-3.25 2.05 L-3.1 2.4 -3.25 2.05" fill="#d6baba" fill-rule="evenodd" stroke="none"/>
    <path d="M4.7 3.95 L4.95 4.0 Q5.15 4.05 4.95 4.1 M0.35 5.25 L1.6 6.5 1.1 6.4 0.4 6.25 -1.25 5.65 -2.15 5.15 -2.55 4.5 -3.55 4.0 -4.1 3.5 -4.8 2.7 -4.95 2.4 -5.1 1.8 -5.05 1.2 -4.8 0.75 -4.55 0.4 Q-3.8 -0.2 -2.9 -0.2 L-1.2 0.1 -0.75 0.3 -0.35 0.45 M3.45 2.7 L2.6 2.6 2.15 2.55 0.75 2.35 -0.4 2.0 -0.9 1.8 M-0.3 3.55 L-0.25 3.6 -0.2 3.6 0.05 3.65 0.5 3.8 1.15 3.95 1.9 4.1 2.7 4.15 4.4 4.4 M0.15 5.0 L0.4 5.0 1.65 5.0 M0.15 5.0 L0.35 5.25 M4.7 3.95 L3.9 3.75 2.1 3.05 M-3.25 2.05 L-3.0 2.45 -2.3 2.8 -1.2 3.25 -0.3 3.55 M-2.55 4.5 L-1.95 4.7 -1.05 4.85 -0.35 5.0 0.15 5.0" fill="none" stroke="#a36a6a" stroke-linecap="round" stroke-linejoin="round" stroke-width="1"/>
  </g>
</svg>