<?xml version="1.0" encoding="UTF-8" standalone="no"?>
<svg xmlns:xlink="http://www.w3.org/1999/xlink" height="11.25px" width="12.35px" xmlns="http://www.w3.org/2000/svg">
  <g id="shape0" transform="matrix(1.0, 0.0, 0.0, 1.0, 6.2, 5.6)">
    <path d="M4.05 -3.05 L4.3 -2.85 4.8 -2.05 4.9 -1.65 5.15 0.35 Q5.15 1.2 4.45 1.65 4.15 1.8 3.8 2.05 L3.55 2.15 3.4 2.15 3.6 2.6 3.7 2.85 3.85 3.1 3.9 3.1 Q3.85 3.3 3.6 3.1 L3.3 2.95 Q2.85 2.85 2.8 3.1 L2.8 3.9 2.85 4.15 2.5 4.15 1.55 3.95 1.25 3.9 0.1 3.75 -0.05 4.05 0.05 4.45 0.1 4.65 Q-0.35 3.85 -1.2 3.4 L-1.5 3.25 Q-1.9 3.0 -2.3 2.9 L-0.65 2.8 -0.85 2.7 -2.4 2.3 -1.8 2.3 -1.15 2.25 1.75 1.9 Q1.0 1.9 0.6 1.35 L1.25 1.25 3.05 0.3 Q2.25 0.55 1.55 0.3 L2.2 -0.15 2.65 -0.45 Q3.45 -1.2 3.85 -2.3 L4.05 -3.05" fill="#d6baba" fill-rule="evenodd" stroke="none"/>
    <path d="M-2.3 2.9 L-2.4 2.9 -2.55 2.85 -3.1 2.75 -4.95 2.55 -4.25 2.2 -3.75 2.05 -4.4 1.35 -5.15 0.75 -5.2 0.75 -4.65 0.55 -4.5 0.3 -4.75 -0.35 -4.8 -0.45 -4.5 -0.5 -4.15 -0.5 -4.1 -0.5 -4.2 -0.9 -4.1 -1.65 Q-3.9 -3.75 -1.9 -4.4 L-0.7 -4.6 1.0 -4.45 1.65 -4.3 Q2.95 -3.85 4.05 -3.05 L3.85 -2.3 Q3.45 -1.2 2.65 -0.45 L2.2 -0.15 1.55 0.3 Q2.25 0.55 3.05 0.3 L1.25 1.25 0.6 1.35 Q1.0 1.9 1.75 1.9 L-1.15 2.25 -1.8 2.3 -2.4 2.3 -0.85 2.7 -0.65 2.8 -2.3 2.9" fill="#faf8f8" fill-rule="evenodd" stroke="none"/>
    <path d="M-2.3 2.9 L-2.4 2.9 -2.55 2.85 -3.1 2.75 -4.95 2.55 -4.25 2.2 -3.75 2.05 -4.4 1.35 -5.15 0.75 -5.2 0.75 -4.65 0.55 -4.5 0.3 -4.75 -0.35 -4.8 -0.45 -4.5 -0.5 -4.15 -0.5 -4.1 -0.5 -4.2 -0.9 -4.1 -1.65 Q-3.9 -3.75 -1.9 -4.4 L-0.7 -4.6 1.0 -4.45 1.65 -4.3 Q2.95 -3.85 4.05 -3.05 L4.3 -2.85 4.8 -2.05 4.9 -1.65 5.15 0.35 Q5.15 1.2 4.45 1.65 4.15 1.8 3.8 2.05 L3.55 2.15 3.4 2.15 3.6 2.6 3.7 2.85 3.85 3.1 3.9 3.1 Q3.85 3.3 3.6 3.1 L3.3 2.95 Q2.85 2.85 2.8 3.1 L2.8 3.9 2.85 4.15 2.5 4.15 1.55 3.95 1.25 3.9 0.1 3.75 -0.05 4.05 0.05 4.45 0.1 4.65 Q-0.35 3.85 -1.2 3.4 L-1.5 3.25 Q-1.9 3.0 -2.3 2.9 Z" fill="none" stroke="#a36a6a" stroke-linecap="round" stroke-linejoin="round" stroke-width="1"/>
  </g>
</svg>