<?xml version="1.0" encoding="UTF-8" standalone="no"?>
<svg xmlns:xlink="http://www.w3.org/1999/xlink" height="36.4px" width="27.6px" xmlns="http://www.w3.org/2000/svg">
  <g transform="matrix(1.0, 0.0, 0.0, 1.0, 13.8, 18.2)">
    <path d="M12.8 -13.2 L3.35 -12.2 Q4.05 -9.4 3.85 -6.3 L3.45 -0.7 2.9 4.8 2.7 7.35 2.4 12.2 2.05 17.2 -12.4 12.8 -12.75 6.7 -12.8 1.25 -12.7 -2.1 -12.2 -8.45 -11.25 -15.1 -10.15 -15.35 -6.25 -16.2 -0.95 -17.2 2.65 -16.55 8.75 -14.7 12.8 -13.2 M-10.15 -15.35 L-7.5 -14.95 3.35 -12.2 -7.5 -14.95 -10.15 -15.35" fill="#888288" fill-rule="evenodd" stroke="none"/>
    <path d="M12.8 -13.2 Q12.85 -10.85 12.4 -8.5 L11.85 -5.55 11.35 -1.9 10.6 4.55 Q10.0 10.0 10.25 15.5 L2.05 17.2 2.4 12.2 2.7 7.35 2.9 4.8 3.45 -0.7 3.85 -6.3 Q4.05 -9.4 3.35 -12.2 L12.8 -13.2" fill="#503050" fill-rule="evenodd" stroke="none"/>
    <path d="M2.05 17.2 L10.25 15.5 Q10.0 10.0 10.6 4.55 L11.35 -1.9 11.85 -5.55 12.4 -8.5 Q12.85 -10.85 12.8 -13.2 L3.35 -12.2 Q4.05 -9.4 3.85 -6.3 L3.45 -0.7 2.9 4.8 2.7 7.35 2.4 12.2 2.05 17.2 -12.4 12.8 -12.75 6.7 -12.8 1.25 -12.7 -2.1 -12.2 -8.45 -11.25 -15.1 -10.15 -15.35 -6.25 -16.2 -0.95 -17.2 2.65 -16.55 8.75 -14.7 12.8 -13.2 M3.35 -12.2 L-7.5 -14.95 -10.15 -15.35" fill="none" stroke="#660000" stroke-linecap="round" stroke-linejoin="round" stroke-width="1"/>
  </g>
</svg>