<?xml version="1.0" encoding="UTF-8" standalone="no"?>
<svg xmlns:xlink="http://www.w3.org/1999/xlink" height="13.6px" width="24.45px" xmlns="http://www.w3.org/2000/svg">
  <g transform="matrix(1.0, 0.0, 0.0, 1.0, 12.25, 6.8)">
    <path d="M7.95 -2.45 L7.9 -2.45 7.9 -2.5 7.95 -2.45" fill="#faf8f8" fill-rule="evenodd" stroke="none"/>
    <path d="M7.95 -2.45 L7.85 -2.2 7.95 -0.3 7.9 0.7 7.85 1.2 7.35 1.65 Q5.25 2.8 4.0 2.8 L-1.8 2.3 -5.95 1.35 -10.6 -0.75 -11.25 -1.65 -10.1 -4.45 -9.2 -4.85 -7.1 -4.1 -6.1 -3.55 -4.5 -2.4 -3.1 -1.05 6.0 0.6 6.55 -0.1 7.9 -2.45 7.95 -2.45 M6.7 1.1 L6.0 0.6 6.7 1.1 M-5.7 -1.15 L-3.1 -1.05 -5.7 -1.15" fill="#888288" fill-rule="evenodd" stroke="none"/>
    <path d="M-10.6 -0.75 L-5.95 1.35 -1.8 2.3 4.0 2.8 Q5.25 2.8 7.35 1.65 L7.85 1.2 7.9 0.7 7.95 -0.3 7.85 -2.2 7.95 -2.45 11.2 1.65 10.7 3.7 9.6 4.5 8.25 5.25 6.15 5.6 5.55 5.8 3.65 5.2 1.55 4.95 0.0 4.8 -2.05 4.6 -3.1 4.4 -4.15 4.15 -5.9 3.45 Q-6.8 3.0 -7.6 2.15 L-8.6 1.05 -8.85 0.9 -9.8 -0.05 -10.6 -0.75" fill="#503050" fill-rule="evenodd" stroke="none"/>
    <path d="M6.0 0.6 L6.7 1.1 M7.9 -2.5 L7.95 -2.45 11.2 1.65 10.7 3.7 9.6 4.5 8.25 5.25 M5.55 5.8 L3.65 5.2 1.55 4.95 0.0 4.8 -2.05 4.6 -3.1 4.4 -4.15 4.15 -5.9 3.45 Q-6.8 3.0 -7.6 2.15 L-8.6 1.05 -8.85 0.9 -9.8 -0.05 -10.6 -0.75 -11.25 -1.65 -10.1 -4.45 -9.2 -4.85 -7.1 -4.1 -6.1 -3.55 -6.0 -3.65 -4.55 -4.4 -3.65 -5.25 -3.0 -5.8 M-6.1 -3.55 L-4.5 -2.4 -3.1 -1.05 6.0 0.6 M-3.1 -1.05 L-5.7 -1.15" fill="none" stroke="#660000" stroke-linecap="round" stroke-linejoin="round" stroke-width="1"/>
  </g>
</svg>