<?xml version="1.0" encoding="UTF-8" standalone="no"?>
<svg xmlns:xlink="http://www.w3.org/1999/xlink" height="71.3px" width="116.05px" xmlns="http://www.w3.org/2000/svg">
  <g transform="matrix(1.0, 0.0, 0.0, 1.0, 60.75, 43.2)">
    <path d="M-47.75 -27.25 L-42.3 -24.35 -41.4 -23.85 -38.75 -22.45 -38.2 -22.2 -36.25 -21.25 -33.8 -20.1 -29.6 -18.45 Q-25.85 -17.0 -22.0 -15.85 L-20.25 -15.35 -19.55 -15.15 -18.1 -14.75 -13.9 -13.55 -9.65 -12.5 -7.4 -11.95 -0.9 -10.5 5.25 -9.25 5.4 -9.25 5.9 -9.15 8.85 -8.4 11.1 -7.85 12.95 -7.4 15.3 -6.7 19.75 -5.4 19.9 -5.35 21.9 -4.65 22.15 -4.55 22.2 -4.55 26.7 -2.85 33.05 -0.2 Q36.25 1.35 38.95 3.7 41.6 6.05 43.55 8.45 L42.25 8.6 41.65 8.5 Q40.55 8.35 34.6 6.25 L31.05 5.2 25.45 4.3 20.75 4.1 13.6 4.55 Q7.9 4.95 -6.25 4.95 -22.75 2.9 -35.95 2.15 -51.45 1.2 -58.15 3.0 -59.4 -1.7 -59.4 -5.4 -59.4 -8.95 -58.65 -11.1 L-56.0 -17.75 -55.35 -19.1 -55.8 -18.35 Q-56.55 -20.2 -56.45 -20.95 L-56.3 -21.95 -56.1 -22.1 -56.0 -22.15 -55.65 -22.9 -55.35 -23.4 -54.75 -24.2 -52.0 -25.8 -51.6 -25.95 Q-48.65 -26.8 -48.4 -27.45 L-47.9 -27.35 -47.75 -27.25 M-52.45 -19.65 L-52.4 -19.65 -52.4 -19.75 -52.45 -19.65" fill="#3592b9" fill-rule="evenodd" stroke="none"/>
    <path d="M-54.2 -42.2 L-51.85 -42.1 -46.65 -41.45 -37.35 -41.7 -36.15 -40.3 -34.5 -38.35 Q-32.6 -36.1 -30.05 -34.8 L-17.3 -27.65 -16.4 -27.25 Q-11.4 -25.05 -6.05 -24.0 L-11.8 -23.7 -8.5 -22.25 -8.25 -22.15 -6.5 -21.35 -4.75 -20.55 -1.35 -19.15 Q1.1 -18.15 3.7 -17.4 L7.3 -16.1 5.9 -14.45 8.55 -14.95 9.25 -14.1 12.45 -12.8 Q14.9 -11.5 17.5 -10.3 25.95 -6.65 35.1 -4.4 L36.05 -3.85 37.8 -2.2 Q40.2 0.3 43.25 1.85 L47.35 3.75 42.75 2.65 Q45.8 4.3 48.2 7.0 50.3 9.35 52.0 11.9 L52.8 13.0 Q53.9 14.35 54.3 15.45 L46.15 14.7 Q46.9 14.15 46.55 13.3 L44.95 10.3 44.8 10.1 43.55 8.45 Q41.6 6.05 38.95 3.7 36.25 1.35 33.05 -0.2 L26.7 -2.85 22.2 -4.55 24.3 -5.0 24.2 -5.25 20.0 -5.5 19.75 -5.4 15.3 -6.7 16.6 -7.0 Q20.15 -7.75 20.15 -8.8 L20.15 -9.2 19.8 -9.3 11.1 -7.85 8.85 -8.4 Q12.95 -9.95 13.65 -10.55 L13.3 -11.1 Q10.8 -10.9 7.1 -9.85 L5.25 -9.25 -0.9 -10.5 -7.4 -11.95 -9.65 -12.5 -13.9 -13.55 -18.1 -14.75 -15.8 -15.65 Q-11.05 -17.6 -11.05 -18.35 -11.05 -19.25 -11.25 -18.9 -13.05 -19.1 -17.05 -17.25 -14.85 -19.35 -14.85 -20.3 L-15.05 -20.9 -15.4 -21.05 Q-17.2 -20.25 -19.8 -18.0 L-22.0 -15.85 Q-25.85 -17.0 -29.6 -18.45 L-33.8 -20.1 Q-27.4 -23.1 -25.35 -24.75 -26.4 -25.25 -31.9 -23.2 -34.9 -22.1 -36.25 -21.25 L-38.2 -22.2 -38.75 -22.45 -35.2 -23.8 Q-31.5 -25.1 -30.1 -27.05 -33.65 -26.95 -37.9 -25.5 -40.2 -24.7 -41.4 -23.85 L-42.3 -24.35 -47.75 -27.25 -43.35 -28.8 -37.8 -30.85 -38.05 -31.4 Q-40.7 -31.75 -47.25 -30.0 L-40.35 -32.9 -40.45 -33.15 Q-45.1 -33.6 -52.0 -29.6 L-55.55 -27.35 -57.65 -26.3 -58.6 -30.2 -58.4 -31.7 -59.2 -31.6 -59.7 -31.65 -59.75 -32.1 -55.75 -39.4 -54.2 -42.2 M-9.65 -12.5 L-8.2 -13.6 -5.8 -15.25 -6.15 -15.5 Q-7.25 -15.65 -8.8 -14.4 L-10.4 -12.7 -9.65 -12.5 M-56.3 -21.95 L-56.6 -22.75 -55.35 -23.4 -55.65 -22.9 -56.0 -22.15 -56.1 -22.1 -56.3 -21.95" fill="#e1f1d1" fill-rule="evenodd" stroke="none"/>
    <path d="M43.55 8.45 L44.8 10.1 44.95 10.3 46.55 13.3 Q46.9 14.15 46.15 14.7 L46.05 14.75 Q42.3 18.5 37.0 18.2 L28.25 17.75 21.05 17.85 13.9 18.45 6.7 19.5 0.0 20.8 -6.75 21.95 -13.55 23.0 -20.4 23.95 -29.4 25.2 -33.95 26.05 -38.45 27.1 Q-41.85 25.45 -46.1 21.25 -51.3 16.1 -53.9 11.7 L-54.4 10.85 -55.8 8.2 -56.75 6.3 -57.1 5.55 -58.15 3.0 Q-51.45 1.2 -35.95 2.15 -22.75 2.9 -6.25 4.95 7.9 4.95 13.6 4.55 L20.75 4.1 25.45 4.3 31.05 5.2 34.6 6.25 Q40.55 8.35 41.65 8.5 L42.25 8.6 43.55 8.45" fill="#2b7391" fill-rule="evenodd" stroke="none"/>
    <path d="M-57.65 -26.3 L-55.55 -27.35 -52.0 -29.6 Q-45.1 -33.6 -40.45 -33.15 L-40.35 -32.9 -47.25 -30.0 Q-40.7 -31.75 -38.05 -31.4 L-37.8 -30.85 -43.35 -28.8 -47.75 -27.25 -47.9 -27.35 -48.4 -27.45 Q-48.65 -26.8 -51.6 -25.95 L-52.0 -25.8 -54.75 -24.2 -55.35 -23.4 -56.6 -22.75 -57.0 -23.95 -57.15 -24.5 -57.55 -25.85 -57.65 -26.3 M-41.4 -23.85 Q-40.2 -24.7 -37.9 -25.5 -33.65 -26.95 -30.1 -27.05 -31.5 -25.1 -35.2 -23.8 L-38.75 -22.45 -41.4 -23.85 M-36.25 -21.25 Q-34.9 -22.1 -31.9 -23.2 -26.4 -25.25 -25.35 -24.75 -27.4 -23.1 -33.8 -20.1 L-36.25 -21.25 M-22.0 -15.85 L-19.8 -18.0 Q-17.2 -20.25 -15.4 -21.05 L-15.05 -20.9 -14.85 -20.3 Q-14.85 -19.35 -17.05 -17.25 -13.05 -19.1 -11.25 -18.9 -11.05 -19.25 -11.05 -18.35 -11.05 -17.6 -15.8 -15.65 L-18.1 -14.75 -19.55 -15.15 -20.25 -15.35 -22.0 -15.85 M-9.65 -12.5 L-10.4 -12.7 -8.8 -14.4 Q-7.25 -15.65 -6.15 -15.5 L-5.8 -15.25 -8.2 -13.6 -9.65 -12.5 M5.25 -9.25 L7.1 -9.85 Q10.8 -10.9 13.3 -11.1 L13.65 -10.55 Q12.95 -9.95 8.85 -8.4 L5.9 -9.15 5.4 -9.25 5.25 -9.25 M11.1 -7.85 L19.8 -9.3 20.15 -9.2 20.15 -8.8 Q20.15 -7.75 16.6 -7.0 L15.3 -6.7 12.95 -7.4 11.1 -7.85 M19.75 -5.4 L20.0 -5.5 24.2 -5.25 24.3 -5.0 22.2 -4.55 21.9 -4.65 22.2 -4.55 22.15 -4.55 21.9 -4.65 19.9 -5.35 19.75 -5.4" fill="#b9cd98" fill-rule="evenodd" stroke="none"/>
    <path d="M46.15 14.7 L54.3 15.45 Q53.9 14.35 52.8 13.0 L52.0 11.9 Q50.3 9.35 48.2 7.0 45.8 4.3 42.75 2.65 L47.35 3.75 43.25 1.85 Q40.2 0.3 37.8 -2.2 L36.05 -3.85 35.1 -4.4 Q25.95 -6.65 17.5 -10.3 14.9 -11.5 12.45 -12.8 L9.25 -14.1 8.55 -14.95 5.9 -14.45 7.3 -16.1 3.7 -17.4 Q1.1 -18.15 -1.35 -19.15 L-4.75 -20.55 -6.5 -21.35 -8.25 -22.15 -8.5 -22.25 -11.8 -23.7 -6.05 -24.0 Q-11.4 -25.05 -16.4 -27.25 L-17.3 -27.65 -30.05 -34.8 Q-32.6 -36.1 -34.5 -38.35 L-36.15 -40.3 -37.35 -41.7 -46.65 -41.45 -51.85 -42.1 -54.2 -42.2 -55.05 -42.2 M-47.75 -27.25 L-42.3 -24.35 -41.4 -23.85 -38.75 -22.45 -38.2 -22.2 -36.25 -21.25 M-33.8 -20.1 L-29.6 -18.45 Q-25.85 -17.0 -22.0 -15.85 M-18.1 -14.75 L-13.9 -13.55 -9.65 -12.5 -7.4 -11.95 -0.9 -10.5 5.25 -9.25 5.4 -9.25 5.9 -9.15 M8.85 -8.4 L11.1 -7.85 12.95 -7.4 15.3 -6.7 19.75 -5.4 19.9 -5.35 21.9 -4.65 22.2 -4.55 26.7 -2.85 33.05 -0.2 Q36.25 1.35 38.95 3.7 41.6 6.05 43.55 8.45 L44.8 10.1 44.95 10.3 46.55 13.3 Q46.9 14.15 46.15 14.7 L46.05 14.75 Q42.3 18.5 37.0 18.2 L28.25 17.75 21.05 17.85 13.9 18.45 6.7 19.5 0.0 20.8 -6.75 21.95 -13.55 23.0 -20.4 23.95 -29.4 25.2 -33.95 26.05 -38.45 27.1 M-47.9 -27.35 L-48.4 -27.45 M-20.25 -15.35 L-19.55 -15.15 -18.1 -14.75" fill="none" stroke="#660000" stroke-linecap="round" stroke-linejoin="round" stroke-opacity="0.6" stroke-width="1"/>
    <path d="M1.2 -7.45 L-0.15 -6.25 Q-1.4 -5.15 -1.5 -8.3 -1.5 -8.9 -0.05 -8.75 1.35 -8.6 1.35 -7.95 L1.35 -7.65 1.2 -7.45 M-29.7 -14.0 L-19.05 -11.6 -12.3 -10.4 -5.7 -9.5 -5.7 -9.3 -9.25 -7.6 -20.6 -10.15 Q-28.15 -11.95 -29.75 -13.8 L-29.7 -14.0" fill="#ffffcc" fill-rule="evenodd" stroke="none"/>
    <path d="M43.65 12.65 L44.75 13.3 Q45.65 14.0 43.1 15.55 40.55 17.1 34.4 17.25 28.2 17.35 23.5 17.05 18.8 16.75 7.5 18.6 L-11.55 21.7 Q-15.3 22.0 -30.1 24.65 -44.9 27.3 -38.75 24.1 L-39.0 24.0 Q-34.95 20.9 -11.5 18.5 L1.55 16.65 6.5 15.35 35.6 14.4 Q40.05 14.4 41.6 13.6 42.35 13.2 43.65 12.65" fill="#9bd1f4" fill-rule="evenodd" stroke="none"/>
  </g>
</svg>