<?xml version="1.0" encoding="UTF-8" standalone="no"?>
<svg xmlns:xlink="http://www.w3.org/1999/xlink" height="19.6px" width="19.75px" xmlns="http://www.w3.org/2000/svg">
  <g transform="matrix(1.0, 0.0, 0.0, 1.0, 39.05, -0.75)">
    <path d="M-28.25 3.3 Q-26.8 2.6 -24.95 4.0 -22.9 5.55 -22.4 6.9 L-21.75 7.0 Q-20.55 7.15 -20.55 7.65 -20.55 8.1 -21.65 10.35 -22.75 12.65 -22.75 13.5 -22.75 15.15 -21.5 16.75 L-20.3 18.5 Q-20.3 19.35 -21.75 19.35 -25.7 19.35 -26.8 15.4 -27.35 13.45 -27.15 11.2 -28.75 13.2 -28.75 15.15 -28.75 15.8 -28.0 16.95 L-27.3 18.25 Q-27.3 19.1 -28.6 19.1 -31.5 19.1 -32.45 15.75 L-32.9 12.25 Q-32.9 9.95 -30.8 6.3 -32.6 7.2 -33.95 9.6 -35.6 12.45 -35.75 14.85 L-36.05 14.95 -36.6 15.0 Q-37.7 15.0 -38.0 12.25 L-38.05 9.45 Q-38.05 -0.5 -30.25 2.4 L-28.25 3.3" fill="#000000" fill-rule="evenodd" stroke="none"/>
  </g>
</svg>