<?xml version="1.0" encoding="UTF-8" standalone="no"?>
<svg xmlns:xlink="http://www.w3.org/1999/xlink" height="10.2px" width="14.6px" xmlns="http://www.w3.org/2000/svg">
  <g transform="matrix(1.0, 0.0, 0.0, 1.0, -15.45, 22)">
    <path d="M18.8 -19.9 Q21.1 -18.1 21.1 -17.5 21.1 -17.15 20.9 -17.05 L20.25 -16.95 16.45 -20.65 Q16.45 -21.65 18.8 -19.9 M28.2 -19.95 L27.9 -19.85 27.4 -20.25 Q27.25 -20.55 27.25 -20.8 L27.95 -20.65 28.25 -20.25 28.2 -19.95 M23.8 -19.95 Q25.1 -18.75 25.1 -18.25 25.1 -17.85 24.75 -17.85 24.55 -17.85 23.4 -19.15 L22.05 -20.65 Q22.45 -21.25 23.8 -19.95 M28.95 -12.95 L28.75 -12.8 Q28.5 -12.8 27.95 -13.7 L27.45 -14.6 27.5 -14.9 28.5 -14.15 29.05 -13.15 28.95 -12.95" fill="#000000" fill-rule="evenodd" stroke="none"/>
  </g>
</svg>