<?xml version="1.0" encoding="UTF-8" standalone="no"?>
<svg xmlns:xlink="http://www.w3.org/1999/xlink" height="16.5px" width="22.25px" xmlns="http://www.w3.org/2000/svg">
  <g transform="matrix(1.0, 0.0, 0.0, 1.0, -0.35, 37.95)">
    <path d="M21.1 -29.9 Q20.75 -29.9 19.6 -30.8 L18.5 -31.75 18.55 -32.05 20.25 -31.75 Q21.6 -31.4 21.6 -31.05 L21.1 -30.55 21.35 -30.2 21.3 -30.0 21.1 -29.9 M1.35 -26.2 Q1.35 -26.85 3.4 -26.45 L7.3 -25.5 10.35 -24.45 11.4 -23.95 12.1 -24.55 Q11.8 -24.6 11.35 -24.9 10.7 -25.25 10.7 -25.5 10.7 -26.0 12.55 -25.95 L13.0 -26.05 Q11.4 -28.0 8.75 -29.2 6.6 -30.15 6.6 -30.35 6.6 -31.55 10.95 -30.1 15.25 -28.7 15.25 -27.9 15.25 -27.55 14.7 -27.4 L15.25 -26.4 Q15.25 -25.75 14.15 -25.95 L14.2 -25.35 Q14.1 -24.9 13.65 -24.9 L12.9 -25.15 12.7 -25.1 12.9 -24.55 12.6 -23.7 12.3 -23.35 12.55 -23.0 Q12.55 -22.55 11.95 -22.55 L11.1 -22.8 10.85 -22.8 10.75 -22.65 Q10.75 -22.45 10.4 -22.45 L6.35 -24.55 2.45 -25.75 Q1.35 -26.0 1.35 -26.2 M9.7 -36.0 Q14.3 -34.45 14.3 -33.3 L14.3 -33.1 Q15.1 -32.4 15.1 -31.8 L14.9 -31.3 14.5 -30.95 10.2 -33.9 8.25 -34.8 6.15 -36.0 5.15 -36.25 5.1 -36.45 Q5.1 -37.6 9.7 -36.0 M17.35 -27.75 L16.45 -28.3 14.35 -29.5 Q14.35 -30.3 17.05 -29.15 L18.95 -28.2 Q20.0 -27.8 20.0 -27.45 20.0 -27.0 19.6 -27.0 L19.45 -27.0 19.15 -26.95 19.15 -26.75 19.1 -26.6 18.85 -26.45 Q18.55 -26.45 17.55 -27.55 L17.35 -27.75" fill="#000000" fill-rule="evenodd" stroke="none"/>
  </g>
</svg>