<?xml version="1.0" encoding="UTF-8" standalone="no"?>
<svg xmlns:xlink="http://www.w3.org/1999/xlink" height="39.85px" width="35.3px" xmlns="http://www.w3.org/2000/svg">
  <g transform="matrix(1.0, 0.0, 0.0, 1.0, 10, 51.1)">
    <path d="M21.3 -37.05 L21.35 -36.75 21.75 -36.3 22.35 -34.8 23.3 -32.0 Q23.9 -27.9 23.9 -26.45 L24.05 -25.8 24.3 -25.15 24.15 -24.95 22.6 -27.4 Q21.7 -29.1 20.7 -30.0 L20.75 -28.45 Q20.75 -27.4 20.3 -27.4 19.95 -27.4 18.95 -28.4 L18.75 -26.4 18.75 -26.0 19.65 -23.0 Q20.6 -19.7 20.6 -16.05 20.8 -12.25 20.0 -12.25 19.8 -12.25 19.65 -15.1 19.15 -18.85 17.35 -22.5 L17.5 -21.4 17.7 -20.3 17.6 -19.55 Q17.5 -19.4 17.25 -19.4 L16.1 -21.2 Q15.05 -22.85 13.45 -23.65 L13.35 -23.65 Q12.9 -23.65 12.8 -23.95 L12.8 -24.35 12.95 -24.4 Q13.35 -25.15 15.25 -26.9 L16.45 -28.6 16.75 -29.2 16.85 -29.35 19.1 -32.9 20.05 -35.25 20.8 -36.6 20.6 -36.95 21.1 -36.9 21.3 -37.05 M13.4 -45.3 Q13.6 -44.0 13.9 -43.55 L14.45 -41.75 14.9 -40.05 16.2 -33.15 Q16.2 -32.4 15.8 -32.4 L14.4 -34.9 Q12.9 -37.65 12.05 -38.5 L11.8 -38.5 11.85 -36.65 Q11.75 -33.55 11.35 -33.55 11.1 -33.55 10.95 -33.75 L10.7 -34.0 10.8 -30.85 Q10.8 -28.65 10.15 -28.65 9.35 -28.65 8.45 -30.55 8.0 -31.45 7.7 -32.45 L9.0 -35.25 10.85 -39.4 11.9 -42.8 Q12.35 -44.85 11.95 -46.25 13.05 -46.35 13.4 -45.3 M0.2 -46.15 Q0.0 -47.8 -0.8 -48.65 L-1.6 -49.25 Q-1.6 -51.9 3.05 -46.4 7.7 -40.9 7.7 -39.3 L8.25 -38.15 7.4 -38.9 5.9 -40.3 3.8 -42.15 4.95 -39.5 4.9 -39.05 4.2 -38.95 5.4 -35.45 Q5.75 -34.3 5.15 -34.75 L3.7 -35.9 2.45 -37.0 0.45 -37.3 Q0.1 -37.4 0.1 -37.85 L0.4 -39.65 0.7 -42.85 0.55 -44.2 Q0.3 -45.05 0.2 -46.15" fill="#000000" fill-rule="evenodd" stroke="none"/>
    <path d="M-4.4 -21.4 Q-7.05 -16.9 -7.5 -16.9 -9.05 -16.9 -9.0 -18.9 -9.0 -21.7 -5.4 -25.6 -1.8 -29.55 -1.8 -26.3 -1.8 -25.85 -4.4 -21.4" fill="#40485b" fill-rule="evenodd" stroke="none"/>
  </g>
</svg>