<?xml version="1.0" encoding="UTF-8" standalone="no"?>
<svg xmlns:xlink="http://www.w3.org/1999/xlink" height="23.9px" width="27.4px" xmlns="http://www.w3.org/2000/svg">
  <g transform="matrix(1.0, 0.0, 0.0, 1.0, -6.05, 35.3)">
    <path d="M22.65 -25.0 Q23.45 -25.05 26.9 -21.45 L26.95 -21.4 Q26.45 -23.95 23.4 -27.4 L18.2 -32.6 16.25 -34.3 Q18.0 -33.6 20.7 -31.9 23.65 -30.0 24.7 -28.8 29.65 -23.75 29.65 -22.6 L29.6 -22.05 29.45 -21.95 29.1 -22.4 Q29.1 -21.6 28.55 -21.25 28.0 -20.9 28.0 -20.25 31.45 -16.4 31.45 -14.4 31.45 -13.8 31.0 -13.8 30.25 -13.8 30.25 -14.3 29.6 -14.15 29.6 -13.9 L29.35 -13.65 29.05 -13.45 28.75 -13.55 28.7 -13.55 28.1 -13.05 26.85 -12.4 26.4 -13.2 26.6 -13.7 26.15 -15.1 25.7 -16.1 Q25.7 -17.5 27.25 -15.75 L28.65 -13.9 28.85 -14.3 Q28.85 -15.65 27.0 -18.5 26.45 -17.8 25.9 -17.8 L24.8 -18.1 25.0 -17.5 24.95 -17.15 24.7 -17.05 24.35 -17.1 24.45 -17.45 22.9 -19.95 22.95 -20.3 24.8 -19.55 Q25.05 -19.4 25.25 -19.3 L25.8 -19.3 25.3 -20.2 24.9 -21.1 24.95 -21.4 22.75 -24.2 22.5 -24.15 22.45 -24.15 22.9 -23.15 Q22.9 -22.4 22.4 -22.4 21.95 -22.4 21.4 -23.55 L20.75 -25.05 19.65 -26.3 18.7 -27.5 18.45 -27.9 18.5 -28.1 18.85 -28.0 20.0 -27.25 20.85 -26.6 22.65 -25.0 M7.55 -25.2 Q8.45 -25.2 13.0 -22.85 17.5 -20.45 19.6 -18.9 L20.0 -19.75 20.2 -20.45 Q20.2 -21.0 16.2 -24.05 L12.2 -27.2 Q12.2 -28.45 17.65 -25.25 23.05 -22.0 23.05 -20.9 23.05 -20.3 21.9 -19.7 20.75 -19.05 20.75 -18.05 L21.2 -17.15 Q21.2 -16.7 20.75 -16.7 L19.7 -17.15 19.1 -16.45 18.5 -16.1 Q14.55 -19.55 13.0 -20.5 L9.5 -22.85 Q7.05 -24.65 7.05 -24.75 L7.1 -25.15 7.55 -25.2 M32.25 -16.1 L32.2 -16.1 32.0 -16.0 Q31.7 -16.0 30.8 -17.8 L29.6 -20.4 29.65 -20.55 30.8 -19.5 Q31.7 -19.2 32.45 -16.4 L32.3 -16.15 32.25 -16.1" fill="#000000" fill-rule="evenodd" stroke="none"/>
  </g>
</svg>