<?xml version="1.0" encoding="UTF-8" standalone="no"?>
<svg xmlns:xlink="http://www.w3.org/1999/xlink" height="46.1px" width="70.45px" xmlns="http://www.w3.org/2000/svg">
  <g transform="matrix(1.0, 0.0, 0.0, 1.0, 2, 2)">
    <path d="M0.0 7.65 L0.75 4.25 1.75 0.0 Q3.75 0.0 5.2 1.0 6.6 2.0 6.6 3.4 9.3 7.1 14.0 12.65 15.3 14.15 15.3 16.25 15.3 19.95 13.75 22.35 11.85 25.25 8.25 25.25 5.3 25.25 3.7 23.7 2.6 22.65 1.85 20.65 1.3 19.25 0.9 17.5 L0.3 13.2 0.0 7.65 M20.95 3.8 Q21.95 3.5 22.8 4.55 23.6 5.55 23.8 7.3 23.95 9.05 23.75 9.75 26.4 13.35 31.2 19.05 32.45 20.55 32.45 22.6 32.45 26.4 30.9 28.75 29.1 31.6 25.4 31.6 22.45 31.6 20.85 30.05 19.55 28.75 18.65 26.05 L18.05 23.85 17.4 19.2 17.15 14.0 17.9 10.55 18.9 6.35 Q19.95 4.1 20.95 3.8 M40.55 12.05 Q40.7 13.8 40.5 14.5 44.95 22.15 47.9 24.3 L49.0 25.25 Q49.2 25.65 49.2 27.35 49.2 31.05 47.65 33.45 45.75 36.35 42.15 36.35 39.2 36.35 37.6 34.8 36.35 33.55 35.5 31.05 35.0 29.95 34.8 28.6 L34.15 24.0 33.9 18.75 35.65 11.1 Q36.7 8.85 37.7 8.55 38.7 8.25 39.55 9.3 40.35 10.3 40.55 12.05 M57.8 17.8 Q57.95 19.55 57.75 20.25 62.2 27.9 65.15 30.05 L66.25 31.0 Q66.45 31.4 66.45 33.1 66.45 36.9 64.9 39.25 63.05 42.1 59.4 42.1 56.45 42.1 54.85 40.55 53.65 39.35 52.8 36.95 52.25 35.85 52.05 34.35 L51.45 30.05 51.15 24.5 52.9 16.85 Q53.95 14.6 54.95 14.3 55.95 14.0 56.8 15.05 57.6 16.05 57.8 17.8" fill="#e6b65b" fill-rule="evenodd" stroke="none"/>
    <path d="M57.8 17.8 Q57.6 16.05 56.8 15.05 55.95 14.0 54.95 14.3 53.95 14.6 52.9 16.85 L51.15 24.5 51.45 30.05 52.05 34.35 Q52.25 35.85 52.8 36.95 53.65 39.35 54.85 40.55 56.45 42.1 59.4 42.1 63.05 42.1 64.9 39.25 66.45 36.9 66.45 33.1 66.45 31.4 66.25 31.0 L65.15 30.05 Q62.2 27.9 57.75 20.25 57.95 19.55 57.8 17.8 M40.55 12.05 Q40.35 10.3 39.55 9.3 38.7 8.25 37.7 8.55 36.7 8.85 35.65 11.1 L33.9 18.75 34.15 24.0 34.8 28.6 Q35.0 29.95 35.5 31.05 36.35 33.55 37.6 34.8 39.2 36.35 42.15 36.35 45.75 36.35 47.65 33.45 49.2 31.05 49.2 27.35 49.2 25.65 49.0 25.25 L47.9 24.3 Q44.95 22.15 40.5 14.5 40.7 13.8 40.55 12.05 M20.95 3.8 Q19.95 4.1 18.9 6.35 L17.9 10.55 17.15 14.0 17.4 19.2 18.05 23.85 18.65 26.05 Q19.55 28.75 20.85 30.05 22.45 31.6 25.4 31.6 29.1 31.6 30.9 28.75 32.45 26.4 32.45 22.6 32.45 20.55 31.2 19.05 26.4 13.35 23.75 9.75 23.95 9.05 23.8 7.3 23.6 5.55 22.8 4.55 21.95 3.5 20.95 3.8 M0.0 7.65 L0.3 13.2 0.9 17.5 Q1.3 19.25 1.85 20.65 2.6 22.65 3.7 23.7 5.3 25.25 8.25 25.25 11.85 25.25 13.75 22.35 15.3 19.95 15.3 16.25 15.3 14.15 14.0 12.65 9.3 7.1 6.6 3.4 6.6 2.0 5.2 1.0 3.75 0.0 1.75 0.0 L0.75 4.25 0.0 7.65 Z" fill="none" stroke="#5e2f26" stroke-linecap="round" stroke-linejoin="round" stroke-width="2.0"/>
    <path d="M57.75 20.25 Q62.2 27.9 65.15 30.05 L66.25 31.0 Q66.45 31.4 66.45 33.1 66.45 36.9 64.9 39.25 63.05 42.1 59.4 42.1 56.45 42.1 54.85 40.55 53.65 39.35 52.8 36.95 53.55 38.5 54.9 39.35 56.4 40.3 58.35 40.3 60.55 40.3 62.4 38.45 64.55 36.35 64.55 32.95 64.55 32.4 64.05 32.05 L62.6 30.85 Q60.1 28.2 57.75 20.25 M40.5 14.5 Q44.95 22.15 47.9 24.3 L49.0 25.25 Q49.2 25.65 49.2 27.35 49.2 31.05 47.65 33.45 45.75 36.35 42.15 36.35 39.2 36.35 37.6 34.8 36.35 33.55 35.5 31.05 36.25 32.7 37.7 33.6 39.25 34.55 41.1 34.55 43.3 34.55 45.15 32.7 47.3 30.55 47.3 27.2 47.3 26.65 46.8 26.3 L45.4 25.1 Q42.85 22.45 40.5 14.5 M18.65 26.05 Q19.4 27.85 20.95 28.85 22.45 29.8 24.35 29.8 26.55 29.8 28.4 27.95 30.55 25.85 30.55 22.45 30.55 21.9 30.05 21.5 L28.6 20.35 Q26.1 17.65 23.75 9.75 26.4 13.35 31.2 19.05 32.45 20.55 32.45 22.6 32.45 26.4 30.9 28.75 29.1 31.6 25.4 31.6 22.45 31.6 20.85 30.05 19.55 28.75 18.65 26.05 M6.6 3.4 Q9.3 7.1 14.0 12.65 15.3 14.15 15.3 16.25 15.3 19.95 13.75 22.35 11.85 25.25 8.25 25.25 5.3 25.25 3.7 23.7 2.6 22.65 1.85 20.65 L2.8 21.85 Q4.55 23.45 7.2 23.45 10.6 23.45 12.25 20.5 13.4 18.45 13.4 16.1 L10.7 12.55 Q7.75 8.25 6.6 3.4" fill="#b17c1b" fill-rule="evenodd" stroke="none"/>
    <path d="M51.45 30.05 Q52.15 32.35 53.65 33.75 54.8 34.8 55.45 34.8 57.2 34.8 58.75 33.35 60.15 32.05 60.15 31.05 59.7 27.7 58.55 24.3 56.3 17.5 52.9 16.85 53.95 14.6 54.95 14.3 55.95 14.0 56.8 15.05 57.6 16.05 57.8 17.8 57.95 19.55 57.75 20.25 60.1 28.2 62.6 30.85 L64.05 32.05 Q64.55 32.4 64.55 32.95 64.55 36.35 62.4 38.45 60.55 40.3 58.35 40.3 56.4 40.3 54.9 39.35 53.55 38.5 52.8 36.95 52.25 35.85 52.05 34.35 L51.45 30.05 M40.5 14.5 Q42.85 22.45 45.4 25.1 L46.8 26.3 Q47.3 26.65 47.3 27.2 47.3 30.55 45.15 32.7 43.3 34.55 41.1 34.55 39.25 34.55 37.7 33.6 36.25 32.7 35.5 31.05 35.0 29.95 34.8 28.6 L34.15 24.0 Q34.65 25.7 35.65 27.2 36.95 29.05 38.2 29.05 39.95 29.05 41.5 27.6 42.9 26.35 42.9 25.45 42.9 24.5 41.25 21.65 39.5 18.7 39.4 15.65 39.4 14.75 38.45 13.3 37.3 11.55 35.65 11.1 36.7 8.85 37.7 8.55 38.7 8.25 39.55 9.3 40.35 10.3 40.55 12.05 40.7 13.8 40.5 14.5 M18.9 6.35 Q19.95 4.1 20.95 3.8 21.95 3.5 22.8 4.55 23.6 5.55 23.8 7.3 23.95 9.05 23.75 9.75 26.1 17.65 28.6 20.35 L30.05 21.5 Q30.55 21.9 30.55 22.45 30.55 25.85 28.4 27.95 26.55 29.8 24.35 29.8 22.45 29.8 20.95 28.85 19.4 27.85 18.65 26.05 L18.05 23.85 17.4 19.2 Q17.9 20.95 18.95 22.45 20.2 24.3 21.45 24.3 23.2 24.3 24.75 22.85 26.15 21.6 26.15 20.7 22.0 7.2 18.9 6.35 M0.3 13.2 Q0.8 14.75 1.75 16.1 3.0 17.95 4.3 17.95 6.0 17.95 7.6 16.5 9.0 15.25 9.0 14.35 9.0 13.35 7.35 10.5 5.6 7.65 5.5 4.55 5.5 3.65 4.55 2.25 3.4 0.5 1.75 0.0 3.75 0.0 5.2 1.0 6.6 2.0 6.6 3.4 7.75 8.25 10.7 12.55 L13.4 16.1 Q13.4 18.45 12.25 20.5 10.6 23.45 7.2 23.45 4.55 23.45 2.8 21.85 L1.85 20.65 Q1.3 19.25 0.9 17.5 L0.3 13.2" fill="#e6b65b" fill-rule="evenodd" stroke="none"/>
    <path d="M51.45 30.05 L51.15 24.5 52.9 16.85 Q56.3 17.5 58.55 24.3 59.7 27.7 60.15 31.05 60.15 32.05 58.75 33.35 57.2 34.8 55.45 34.8 54.8 34.8 53.65 33.75 52.15 32.35 51.45 30.05 M34.15 24.0 L33.9 18.75 35.65 11.1 Q37.3 11.55 38.45 13.3 39.4 14.75 39.4 15.65 39.5 18.7 41.25 21.65 42.9 24.5 42.9 25.45 42.9 26.35 41.5 27.6 39.95 29.05 38.2 29.05 36.95 29.05 35.65 27.2 34.65 25.7 34.15 24.0 M18.9 6.35 Q22.0 7.2 26.15 20.7 26.15 21.6 24.75 22.85 23.2 24.3 21.45 24.3 20.2 24.3 18.95 22.45 17.9 20.95 17.4 19.2 L17.15 14.0 17.9 10.55 18.9 6.35 M0.3 13.2 L0.0 7.65 0.75 4.25 1.75 0.0 Q3.4 0.5 4.55 2.25 5.5 3.65 5.5 4.55 5.6 7.65 7.35 10.5 9.0 13.35 9.0 14.35 9.0 15.25 7.6 16.5 6.0 17.95 4.3 17.95 3.0 17.95 1.75 16.1 0.8 14.75 0.3 13.2" fill="#ffffcc" fill-rule="evenodd" stroke="none"/>
  </g>
</svg>