<?xml version="1.0" encoding="UTF-8" standalone="no"?>
<svg xmlns:xlink="http://www.w3.org/1999/xlink" height="78.55px" width="119.95px" xmlns="http://www.w3.org/2000/svg">
  <g transform="matrix(1.0, 0.0, 0.0, 1.0, 2, 2)">
    <path d="M104.15 24.65 Q110.55 26.55 113.35 30.75 115.95 34.6 115.95 41.2 115.95 46.05 113.95 53.55 110.65 65.9 103.65 74.4 L103.6 74.55 94.35 73.55 65.65 30.35 39.55 22.45 Q38.65 27.4 33.8 33.25 28.65 38.7 27.6 40.1 L26.55 41.8 24.75 44.2 0.0 6.3 Q1.3 4.95 5.4 3.5 L7.0 2.95 9.85 2.1 Q17.25 0.0 20.85 0.0 23.1 0.0 29.25 1.75 34.5 3.2 35.85 3.8 L38.5 6.25 80.5 19.05 Q86.7 19.25 89.6 20.15 L104.15 24.65" fill="#253038" fill-rule="evenodd" stroke="none"/>
    <path d="M104.15 24.65 L89.6 20.15 Q86.7 19.25 80.5 19.05 L38.5 6.25 35.85 3.8 Q34.5 3.2 29.25 1.75 23.1 0.0 20.85 0.0 17.25 0.0 9.85 2.1 L7.0 2.95 5.4 3.5 Q1.3 4.95 0.0 6.3 L24.75 44.2 26.55 41.8 27.6 40.1 Q28.65 38.7 33.8 33.25 38.65 27.4 39.55 22.45 L65.65 30.35 94.35 73.55 103.6 74.55 103.65 74.4 Q110.65 65.9 113.95 53.55 115.95 46.05 115.95 41.2 115.95 34.6 113.35 30.75 110.55 26.55 104.15 24.65 Z" fill="none" stroke="#162028" stroke-linecap="round" stroke-linejoin="round" stroke-width="2.0"/>
    <path d="M101.75 57.5 L86.25 33.7 96.45 30.65 100.25 29.85 104.65 30.2 107.15 31.3 108.1 34.7 108.75 37.75 Q108.75 41.85 106.65 47.8 104.5 53.8 101.75 57.5" fill="#391f15" fill-rule="evenodd" stroke="none"/>
    <path d="M107.15 31.3 L104.65 30.2 100.25 29.85 96.45 30.65 86.25 33.7 101.75 57.5 104.6 61.85 Q106.85 58.0 109.5 51.15 112.35 43.75 112.35 40.95 112.35 38.05 111.65 36.15 110.4 32.95 107.15 31.3 M104.15 24.65 Q110.55 26.55 113.35 30.75 115.95 34.6 115.95 41.2 115.95 46.05 113.95 53.55 110.65 65.9 103.65 74.4 L74.6 29.85 77.3 29.05 79.0 28.5 86.85 26.0 Q93.8 23.75 96.75 23.75 L104.15 24.65 M35.85 3.8 L38.5 6.25 34.75 6.0 Q30.75 6.15 26.25 7.55 L20.6 5.8 25.65 4.5 35.85 3.8" fill="#253038" fill-rule="evenodd" stroke="none"/>
    <path d="M101.75 57.5 Q104.5 53.8 106.65 47.8 108.75 41.85 108.75 37.75 L108.1 34.7 107.15 31.3 Q110.4 32.95 111.65 36.15 112.35 38.05 112.35 40.95 112.35 43.75 109.5 51.15 106.85 58.0 104.6 61.85 L101.75 57.5 M104.15 24.65 L96.75 23.75 Q93.8 23.75 86.85 26.0 L79.0 28.5 77.3 29.05 5.4 3.5 7.0 2.95 9.85 2.1 Q17.25 0.0 20.85 0.0 23.1 0.0 29.25 1.75 34.5 3.2 35.85 3.8 L25.65 4.5 20.6 5.8 26.25 7.55 71.25 21.25 73.35 20.7 Q76.25 19.9 80.5 19.05 86.7 19.25 89.6 20.15 L104.15 24.65" fill="#4b6276" fill-rule="evenodd" stroke="none"/>
    <path d="M74.6 29.85 L103.65 74.4 103.6 74.55 94.35 73.55 65.65 30.35 39.55 22.45 10.35 13.6 27.6 40.1 26.55 41.8 24.75 44.2 0.0 6.3 74.6 29.85" fill="#546d83" fill-rule="evenodd" stroke="none"/>
    <path d="M38.5 6.25 L80.5 19.05 Q76.25 19.9 73.35 20.7 L71.25 21.25 26.25 7.55 Q30.75 6.15 34.75 6.0 L38.5 6.25" fill="#9e3e25" fill-rule="evenodd" stroke="none"/>
    <path d="M77.3 29.05 L74.6 29.85 0.0 6.3 Q1.3 4.95 5.4 3.5 L77.3 29.05" fill="#78adbe" fill-rule="evenodd" stroke="none"/>
    <path d="M39.55 22.45 Q38.65 27.4 33.8 33.25 28.65 38.7 27.6 40.1 L10.35 13.6 39.55 22.45" fill="#000000" fill-rule="evenodd" stroke="none"/>
  </g>
</svg>