<?xml version="1.0" encoding="UTF-8" standalone="no"?>
<svg xmlns:xlink="http://www.w3.org/1999/xlink" height="13.45px" width="44.05px" xmlns="http://www.w3.org/2000/svg">
  <g transform="matrix(1.0, 0.0, 0.0, 1.0, 23.6, -3.9)">
    <path d="M19.45 4.9 L19.45 5.15 17.85 7.05 16.05 8.35 15.2 9.15 14.95 9.15 14.9 9.05 Q14.9 8.6 16.2 7.7 L16.0 7.8 13.4 9.6 10.95 12.2 10.75 12.1 10.7 11.95 11.2 11.15 11.85 10.35 Q11.6 10.3 11.6 9.95 L9.95 10.95 9.75 10.7 10.25 10.15 10.2 10.1 Q10.2 9.85 13.25 7.65 L13.35 7.75 13.35 7.7 13.5 7.9 13.3 8.45 13.35 8.5 13.35 8.55 14.05 8.2 14.1 8.25 14.6 8.05 15.35 7.55 Q15.35 7.2 16.3 6.65 L16.35 6.7 17.6 6.05 Q19.0 4.9 19.45 4.9 M14.0 9.9 L13.8 9.65 Q13.8 9.35 14.05 9.4 L14.3 9.7 14.0 9.9 M17.2 6.85 L17.4 6.7 17.1 6.85 17.2 6.85 M0.85 10.35 L0.0 11.3 -0.6 12.0 -1.1 12.55 -1.75 13.45 -2.05 13.15 -2.1 13.0 -1.95 12.75 -1.5 12.05 -1.5 12.0 -4.2 13.0 -4.45 12.9 -4.6 12.75 -5.2 12.9 -5.95 13.1 -6.25 12.75 -7.3 12.75 -7.45 12.8 -7.8 12.6 -8.05 12.7 -8.2 12.7 -8.05 13.4 -8.05 13.75 -8.35 14.05 -8.8 13.25 Q-9.15 12.3 -9.4 12.1 L-10.5 11.95 -10.7 12.0 -11.35 11.6 -11.55 11.7 -11.65 11.65 -11.85 11.7 -12.7 11.6 -13.0 11.85 Q-13.4 11.85 -13.8 11.25 L-13.8 11.35 -13.85 11.4 Q-13.95 11.6 -14.15 11.55 -13.7 12.1 -13.7 12.7 -13.7 13.1 -13.95 13.1 -14.4 13.1 -14.95 11.45 L-15.15 11.55 Q-15.65 11.55 -15.95 10.9 L-16.35 10.6 -16.35 10.75 -16.6 10.9 -16.95 10.7 Q-16.95 11.2 -17.1 11.25 L-16.8 11.6 -16.55 12.0 -16.75 12.25 -18.0 11.0 Q-18.4 11.0 -18.65 10.4 L-18.55 10.35 -18.75 10.15 -19.05 9.95 -19.15 9.95 Q-19.5 9.95 -20.55 8.75 L-20.75 8.5 -22.6 6.55 -22.6 6.2 -22.3 6.2 -21.05 7.35 -20.6 7.8 -19.9 8.25 -19.15 8.85 -18.65 8.65 -18.25 9.1 -18.15 9.35 -17.95 9.45 -17.65 9.9 -17.45 10.05 -17.5 10.0 -17.45 9.9 -17.8 9.3 -17.4 9.45 -17.2 9.6 -17.0 9.5 -16.6 9.7 -16.3 9.75 -15.9 10.1 -15.85 10.2 -15.75 10.15 -15.65 10.2 -15.3 10.1 -15.15 10.15 -15.0 10.25 Q-14.9 10.0 -14.75 10.1 L-14.3 10.85 -14.0 10.6 -13.4 11.05 -13.3 11.0 -12.7 11.0 -12.15 11.1 -13.15 9.4 Q-13.15 8.5 -12.35 9.7 L-11.3 10.65 -10.8 11.2 -10.15 11.4 -9.15 11.6 -8.95 11.55 -9.05 11.15 Q-9.05 10.75 -8.85 10.75 -8.6 10.7 -8.4 11.25 L-8.25 11.55 -7.65 10.65 Q-7.45 10.65 -7.45 11.0 L-7.6 11.35 -7.6 11.6 Q-7.3 11.6 -7.2 11.8 -7.1 11.75 -7.1 12.15 L-7.0 12.35 -6.8 12.35 -5.95 12.2 Q-5.6 12.1 -5.75 12.5 L-5.35 12.35 -5.0 12.15 -4.8 12.3 Q-4.35 12.05 -3.6 11.75 L-1.75 11.05 -1.55 11.1 -1.2 10.9 0.55 9.9 0.75 10.1 0.65 10.25 0.85 10.35 M2.25 11.15 L2.7 10.7 3.35 10.3 3.5 10.25 Q3.9 9.9 4.4 9.85 L4.45 10.0 3.9 10.75 2.75 12.7 2.7 13.0 3.0 13.0 3.8 12.6 4.3 12.9 4.05 13.3 3.65 13.5 3.55 13.5 3.35 13.4 2.9 13.5 2.35 13.35 Q0.55 16.35 0.2 16.35 -0.05 16.35 0.0 16.05 0.0 15.25 1.3 13.95 0.85 13.85 0.85 13.5 L2.15 11.9 2.1 11.9 1.85 11.85 0.35 12.9 0.15 12.85 0.15 12.75 1.1 11.85 2.2 11.2 2.25 11.15 M6.4 11.15 L7.35 10.25 7.65 10.05 8.05 9.7 8.4 9.6 8.6 9.45 8.65 9.55 8.65 9.5 8.7 9.75 8.15 10.6 8.4 11.0 Q8.4 11.25 8.0 11.25 L7.85 11.25 Q7.75 11.3 7.6 11.45 L5.3 13.7 5.05 13.5 5.45 12.7 5.05 13.0 4.65 13.0 4.6 12.8 Q4.6 12.5 6.4 11.2 L6.4 11.15 M-8.05 11.9 L-8.05 11.85 -8.15 11.9 -8.1 11.95 -8.05 11.9 M-2.25 13.6 L-2.5 13.8 -2.7 13.7 -2.7 13.3 Q-2.5 13.15 -2.35 13.3 L-2.25 13.6" fill="#f8ddb6" fill-rule="evenodd" stroke="none"/>
  </g>
</svg>