<?xml version="1.0" encoding="UTF-8" standalone="no"?>
<svg xmlns:xlink="http://www.w3.org/1999/xlink" height="14.05px" width="44.2px" xmlns="http://www.w3.org/2000/svg">
  <g transform="matrix(1.0, 0.0, 0.0, 1.0, 23.75, -4.15)">
    <path d="M18.85 5.35 L19.45 5.4 16.15 8.45 12.35 11.3 12.25 11.3 10.0 13.5 9.8 13.25 10.95 11.5 11.0 11.45 10.7 11.55 10.5 11.65 10.25 11.6 10.2 11.3 9.85 11.4 9.35 11.6 7.5 12.3 7.35 12.3 6.95 12.45 Q6.55 12.8 5.9 13.3 L4.5 14.8 4.3 14.75 4.3 14.4 4.85 13.4 3.05 14.0 2.8 14.25 2.6 14.2 2.6 14.1 2.55 14.1 1.7 14.85 1.65 14.9 0.85 15.95 0.0 16.7 -0.45 17.2 -0.65 16.85 -0.15 15.5 -0.15 15.15 0.3 14.35 0.45 14.05 -0.55 14.2 -0.85 14.2 -0.9 14.05 -1.05 14.05 -1.75 14.35 Q-2.3 14.35 -2.15 13.8 L-2.9 14.1 Q-3.4 14.1 -3.3 13.7 L-3.25 13.5 -4.2 14.05 -4.6 14.05 -4.65 13.85 -4.5 13.65 Q-4.4 13.5 -4.25 13.5 L-4.35 13.35 -5.45 13.5 -6.65 13.5 -6.75 13.45 -7.05 13.15 -7.05 13.1 -7.35 13.1 -8.15 13.3 -8.35 13.3 -8.35 13.7 -8.55 14.0 -8.55 13.95 -8.55 14.35 -8.65 14.45 -9.1 13.7 -9.2 13.7 -9.3 12.6 -9.5 12.7 Q-9.95 12.7 -10.3 12.0 L-10.25 12.3 -10.55 12.5 -11.15 12.1 -11.25 12.1 -11.7 12.2 -13.75 12.1 -13.65 12.5 -13.9 12.75 -13.75 13.4 Q-13.75 13.75 -14.0 13.75 L-14.5 13.05 -14.9 11.95 -15.05 11.95 -15.15 12.3 -15.75 11.7 -15.95 11.95 -16.35 11.7 -16.4 11.85 -16.15 12.45 -15.9 13.05 -16.1 13.1 -17.25 11.85 -17.3 11.8 -18.35 10.95 -19.15 10.0 -21.1 8.15 -22.0 7.15 -22.75 6.1 -22.45 6.1 -22.3 6.25 -21.5 6.75 -20.55 7.7 -18.8 9.3 -18.9 8.95 -18.65 8.75 -17.25 9.85 -17.2 9.85 -17.9 8.65 -17.7 8.3 Q-17.45 8.25 -17.2 8.75 L-16.55 9.6 -16.1 10.0 Q-15.65 9.8 -14.05 10.4 L-12.65 10.85 Q-12.5 10.9 -12.35 11.05 L-13.1 9.45 Q-13.1 8.95 -12.65 9.25 L-11.8 10.25 -10.85 10.95 -10.3 11.3 -10.3 11.35 -10.15 11.4 -9.2 11.55 -9.25 11.05 -9.2 10.6 -9.3 10.35 -9.15 10.2 -9.1 10.25 -9.05 10.2 -8.95 10.4 -8.9 10.6 -8.7 11.35 -8.65 11.7 -8.2 11.7 -7.7 11.55 Q-7.45 11.55 -7.45 11.75 L-7.7 12.1 Q-7.25 12.1 -7.25 12.35 L-6.05 12.3 Q-5.8 12.3 -5.8 12.6 -4.85 12.45 -3.95 11.95 L-2.5 11.55 Q-2.0 11.55 -0.85 10.85 0.3 10.1 0.7 10.1 1.0 10.1 0.95 10.4 L0.2 11.05 -0.9 12.05 -1.5 12.9 Q-1.05 12.9 -0.35 12.45 0.0 12.25 0.0 12.8 L0.2 12.9 1.5 11.95 2.5 11.25 3.1 10.6 3.5 10.25 3.65 10.1 Q3.85 9.9 4.0 9.85 L4.1 9.85 4.2 10.0 4.0 10.35 3.05 12.05 2.25 13.35 2.25 13.4 3.2 12.9 Q4.3 11.45 4.85 11.55 L4.7 11.75 4.7 11.8 4.3 12.4 Q4.85 12.15 5.35 12.05 L6.25 11.3 7.15 10.6 7.65 10.1 7.7 10.15 7.75 10.15 8.45 9.65 8.5 9.8 8.45 9.9 8.45 9.95 8.25 10.45 7.95 10.9 8.25 10.7 8.65 11.0 8.7 11.05 11.2 9.35 Q13.05 8.05 13.35 8.05 L13.55 8.15 Q14.1 7.8 16.1 7.0 L17.45 6.1 18.85 5.35 M11.55 11.3 L11.9 10.95 11.8 10.9 11.7 10.9 11.55 11.3 M-8.55 12.25 L-8.55 12.4 -8.5 12.25 -8.55 12.25 M-1.45 11.85 L-1.35 11.75 -1.45 11.8 -1.45 11.85 M-11.8 11.3 L-11.8 11.4 -11.75 11.4 -11.7 11.35 -11.8 11.3 M-10.75 11.85 L-10.7 11.8 -10.75 11.8 -10.75 11.85 M-1.75 13.2 L-1.75 13.25 -1.65 13.25 -1.75 13.2 M-8.2 12.8 L-8.1 12.8 -8.2 12.8" fill="#f8ddb6" fill-rule="evenodd" stroke="none"/>
  </g>
</svg>