<?xml version="1.0" encoding="UTF-8" standalone="no"?>
<svg xmlns:xlink="http://www.w3.org/1999/xlink" height="6.95px" width="38.75px" xmlns="http://www.w3.org/2000/svg">
  <g transform="matrix(1.0, 0.0, 0.0, 1.0, 23.55, -5.25)">
    <path d="M13.55 7.65 L13.45 7.8 14.0 7.6 14.2 7.85 14.1 8.0 14.2 8.0 14.2 8.25 Q13.9 8.25 13.9 8.35 L13.8 8.2 13.75 8.2 13.0 8.45 12.75 8.3 12.75 8.15 Q12.75 7.6 13.5 7.6 L13.55 7.65 M0.9 10.2 L0.6 10.65 0.05 10.9 Q-0.25 10.9 -0.25 10.65 -0.25 10.45 0.35 10.15 L0.9 10.2 M3.85 10.4 L3.4 10.95 3.35 10.75 Q3.35 10.3 3.7 10.1 L3.85 10.4 M8.9 9.25 L8.15 10.0 7.95 9.95 7.9 9.75 8.3 9.45 8.8 9.1 8.9 9.25 M-7.65 10.85 L-7.6 11.0 -7.65 11.15 -7.8 11.2 -8.0 11.0 Q-8.0 10.75 -7.65 10.85 M-12.45 9.6 Q-12.45 9.9 -12.65 9.9 -13.1 9.9 -13.3 9.15 L-13.15 8.95 -12.8 9.1 -12.55 9.35 -12.45 9.6 M-21.45 7.5 Q-22.1 7.2 -22.55 6.25 -22.3 6.2 -21.8 6.65 L-21.35 7.25 -21.45 7.5" fill="#f8ddb6" fill-rule="evenodd" stroke="none"/>
  </g>
</svg>