<?xml version="1.0" encoding="UTF-8" standalone="no"?>
<svg xmlns:xlink="http://www.w3.org/1999/xlink" height="13.05px" width="32.85px" xmlns="http://www.w3.org/2000/svg">
  <g transform="matrix(1.0, 0.0, 0.0, 1.0, 17.8, -4.4)">
    <path d="M10.9 5.8 L11.0 5.85 11.5 5.6 11.7 5.9 11.45 7.7 Q11.45 8.5 11.8 10.15 12.05 11.4 14.05 12.3 L13.95 12.45 13.55 12.55 12.25 12.3 10.95 12.0 10.1 11.8 8.65 11.7 8.45 11.4 Q8.45 11.1 8.85 11.1 L9.5 11.25 10.1 11.05 10.1 10.8 10.0 9.85 Q10.0 9.25 10.2 9.2 L10.2 9.0 Q10.2 7.7 10.35 7.15 L10.5 6.85 9.2 7.2 7.2 7.8 6.8 7.6 6.15 7.8 6.15 8.2 6.05 9.25 Q6.05 10.4 7.0 11.2 L7.0 11.6 6.75 11.65 6.25 11.3 6.0 11.05 5.75 11.2 5.55 11.0 5.3 11.05 5.25 11.35 5.15 13.5 Q5.0 14.85 4.5 14.85 L4.25 14.6 4.25 14.35 4.6 10.9 4.55 10.75 4.65 10.75 4.7 8.95 4.55 8.55 4.05 8.7 1.65 9.4 1.6 9.5 1.45 10.0 1.35 10.55 Q1.4 11.4 2.0 14.25 L1.8 15.0 2.0 15.4 1.7 15.9 1.2 16.15 0.8 16.45 Q-0.3 16.45 -0.6 15.8 L-0.7 15.5 -0.65 15.5 -0.7 15.2 Q-0.2 12.75 -0.2 11.55 -0.2 10.6 -0.6 9.75 L-0.8 9.4 -1.25 9.2 -1.45 9.2 -3.7 8.7 -3.75 8.75 -3.75 10.75 -3.6 11.9 -3.4 13.0 -2.5 14.75 -2.25 15.05 Q-2.25 15.3 -2.6 15.3 L-4.15 14.85 Q-5.1 14.8 -5.1 14.45 L-4.85 10.95 -4.9 11.05 -5.35 11.5 -5.65 11.25 -5.4 10.2 Q-5.15 9.55 -5.15 8.55 L-8.3 7.85 -8.4 8.9 -8.25 9.8 -7.7 10.6 -8.15 10.95 -8.85 11.2 -9.15 11.05 -9.3 11.2 -9.75 11.3 Q-9.95 11.3 -10.15 11.1 L-9.65 10.6 -9.25 10.2 -9.0 9.25 -8.8 7.7 -10.1 7.35 -10.2 7.9 -10.15 8.55 -10.4 9.2 Q-10.85 9.1 -10.9 8.2 L-10.85 7.1 -12.3 6.6 -12.8 9.0 -12.75 9.65 -12.65 9.7 -12.45 9.6 -12.2 9.75 -12.45 11.0 Q-12.45 11.95 -11.75 12.9 L-11.3 13.55 Q-11.05 13.3 -10.95 11.4 -10.9 9.5 -10.35 10.15 L-10.35 12.2 Q-10.3 13.45 -9.9 14.25 L-10.15 14.35 -11.15 14.1 -11.3 14.15 -12.05 13.85 Q-12.75 13.5 -13.3 13.45 L-15.4 13.0 -16.0 13.05 Q-16.75 13.05 -16.8 12.65 L-15.8 12.6 Q-14.6 12.2 -14.2 11.55 L-13.85 10.3 -13.45 9.8 -13.45 9.7 -13.4 7.8 Q-13.4 5.9 -13.6 5.55 L-13.45 5.4 -13.15 5.45 -13.15 5.6 -11.25 6.05 -11.05 6.05 Q-10.9 6.05 -10.7 6.2 L-10.35 6.3 -10.1 6.3 Q-9.75 6.3 -9.7 6.5 L-9.55 6.55 -9.4 6.6 -9.35 6.65 -9.05 6.75 Q-9.0 6.5 -8.7 6.6 L-8.35 6.9 -5.9 7.5 -5.3 7.45 -5.0 7.55 -4.9 7.55 -4.15 7.85 -4.0 7.75 Q-3.75 7.75 -3.65 8.05 L-0.9 8.7 -0.8 8.8 0.65 9.1 1.15 9.0 1.45 8.8 1.75 8.75 2.25 8.5 4.3 7.7 4.5 7.7 5.05 7.4 5.7 7.45 6.05 7.3 6.1 7.35 8.05 6.75 10.6 6.2 Q10.65 5.8 10.9 5.8 M12.35 11.7 L12.1 11.45 12.2 11.7 12.35 11.7 M0.6 11.85 L0.7 10.3 0.6 11.1 0.6 11.85 M0.1 13.45 L0.05 14.1 0.2 12.95 0.2 12.85 0.1 13.45 M1.05 12.95 Q1.05 13.5 1.4 14.2 L1.1 12.8 1.05 12.95 M0.2 15.25 L0.8 15.6 1.2 15.0 0.6 14.05 0.2 15.25 M-4.25 11.85 Q-4.2 12.4 -4.4 12.75 L-4.4 14.25 -3.5 14.5 -3.4 14.45 -4.25 10.95 -4.25 11.85 M-12.1 6.35 L-12.25 6.3 -12.25 6.35 -12.1 6.35 M-10.7 13.4 L-10.8 13.6 -10.7 13.65 -10.7 13.35 -10.7 13.4 M-12.4 13.05 L-12.6 12.35 Q-12.7 12.7 -12.95 12.7 L-13.25 12.55 -13.45 12.7 Q-13.9 12.7 -13.8 12.15 L-14.1 12.8 -13.05 13.0 -12.45 13.05 -12.4 13.05 M-14.35 12.4 L-14.65 12.65 -14.4 12.7 -14.35 12.4" fill="#f8ddb6" fill-rule="evenodd" stroke="none"/>
  </g>
</svg>