<?xml version="1.0" encoding="UTF-8" standalone="no"?>
<svg xmlns:xlink="http://www.w3.org/1999/xlink" height="13.1px" width="28.2px" xmlns="http://www.w3.org/2000/svg">
  <g transform="matrix(1.0, 0.0, 0.0, 1.0, 16.6, -3.8)">
    <path d="M10.6 5.2 L10.15 5.2 10.1 5.05 10.2 4.85 10.6 4.95 10.6 5.2 M0.35 8.65 Q-0.15 8.65 -0.35 8.25 L-0.1 8.15 0.6 8.4 0.6 8.6 0.35 8.65 M4.55 6.95 L4.95 6.7 5.55 6.6 5.65 6.75 5.4 6.9 Q5.2 6.95 5.05 7.1 L4.6 7.1 4.55 6.95 M10.1 11.75 L10.1 11.95 9.85 11.95 9.95 11.7 10.1 11.75 M4.75 15.15 L4.65 15.25 4.5 15.25 4.45 15.1 4.7 14.95 4.75 15.15 M0.65 15.85 L0.4 15.9 0.35 15.65 0.6 15.6 0.65 15.85 M-3.8 7.0 L-3.95 7.2 -4.35 7.1 Q-4.45 6.7 -3.85 6.85 L-3.8 7.0 M-12.6 5.4 L-12.7 5.55 -13.0 5.3 -12.85 5.1 -12.6 5.15 -12.6 5.4 M-11.1 14.0 L-11.45 13.85 -10.85 13.8 -11.1 14.0 M-15.4 13.15 L-15.6 13.05 -15.6 12.8 -15.2 12.85 -15.4 13.15 M-4.0 15.0 L-4.05 15.1 -4.15 15.15 -4.3 14.9 -4.15 14.85 -4.0 15.0" fill="#f8ddb6" fill-rule="evenodd" stroke="none"/>
  </g>
</svg>