<?xml version="1.0" encoding="UTF-8" standalone="no"?>
<svg xmlns:xlink="http://www.w3.org/1999/xlink" height="68.4px" width="104.6px" xmlns="http://www.w3.org/2000/svg">
  <g transform="matrix(1.0, 0.0, 0.0, 1.0, 2.3, -2.25)">
    <path d="M95.7 58.9 Q96.6 59.5 96.6 60.4 96.6 60.75 98.5 62.45 100.4 64.15 100.4 65.05 100.4 65.7 100.85 65.85 101.3 66.05 101.3 66.65 L101.05 68.2 100.65 69.4 98.75 69.65 92.5 68.6 87.55 67.55 86.1 67.3 84.6 67.0 82.25 66.65 79.9 66.25 77.55 65.9 75.15 65.55 71.85 65.1 68.55 64.65 65.85 64.35 63.15 64.05 60.5 63.6 57.85 63.15 56.4 62.9 54.9 62.6 Q50.5 62.6 46.1 60.95 41.7 59.25 36.6 59.25 30.25 58.75 30.25 57.75 30.25 57.15 29.75 57.15 29.25 57.2 29.25 56.55 29.25 55.95 28.85 55.8 28.4 55.65 28.4 55.0 28.4 54.4 27.9 53.35 L27.7 53.4 25.55 54.0 Q17.9 54.0 10.8 44.25 8.55 41.15 6.7 37.5 L5.25 34.35 2.35 25.55 Q-0.55 16.7 -0.55 14.5 L-0.9 10.4 -1.3 6.3 Q-1.3 5.7 -0.7 4.65 0.0 3.25 1.05 3.25 3.75 3.25 8.4 10.85 10.7 14.5 17.45 27.5 20.95 34.25 23.6 38.8 23.25 38.0 23.25 37.5 L22.8 35.45 Q22.3 34.0 22.3 33.35 L21.65 23.0 Q21.65 21.9 22.35 19.55 L22.45 19.25 22.55 19.0 Q25.95 19.85 47.75 26.95 68.6 33.75 69.0 33.75 71.35 33.75 74.5 35.55 77.85 37.55 81.35 41.25 83.55 43.55 94.75 58.05 94.75 58.3 95.7 58.9" fill="#000000" fill-rule="evenodd" stroke="none"/>
  </g>
</svg>