<?xml version="1.0" encoding="UTF-8" standalone="no"?>
<svg xmlns:xlink="http://www.w3.org/1999/xlink" height="46.8px" width="75.4px" xmlns="http://www.w3.org/2000/svg">
  <g transform="matrix(1.0, 0.0, 0.0, 1.0, 2.15, -2.95)">
    <use data-characterId="3617" height="27.7" transform="matrix(1.0, 0.0, 0.0, 1.0, -2.15, 2.95)" width="18.7" xlink:href="#sprite0"/>
    <use data-characterId="3617" height="27.7" transform="matrix(1.0, 0.0, 0.0, 1.0, 17.6, 9.1)" width="18.7" xlink:href="#sprite0"/>
    <use data-characterId="3617" height="27.7" transform="matrix(1.0, 0.0, 0.0, 1.0, 37.15, 16.1)" width="18.7" xlink:href="#sprite0"/>
    <use data-characterId="3617" height="27.7" transform="matrix(1.0, 0.0, 0.0, 1.0, 54.55, 22.05)" width="18.7" xlink:href="#sprite0"/>
  </g>
  <defs>
    <g id="sprite0" transform="matrix(1.0, 0.0, 0.0, 1.0, 1.0, 1.0)">
      <use data-characterId="3616" height="27.7" transform="matrix(1.0, 0.0, 0.0, 1.0, -1.0, -1.0)" width="18.7" xlink:href="#shape0"/>
    </g>
    <g id="shape0" transform="matrix(1.0, 0.0, 0.0, 1.0, 1.0, 1.0)">
      <path d="M16.25 5.3 Q16.9 6.85 16.6 8.5 L16.1 10.0 15.85 10.45 14.15 13.2 12.7 15.65 Q10.75 18.95 10.2 22.65 9.8 25.4 9.2 25.65 L6.45 25.5 4.5 23.6 1.6 17.75 1.15 16.45 Q-0.55 11.7 0.3 7.7 0.95 5.0 2.55 3.05 3.85 1.6 5.6 0.65 8.0 -0.1 9.3 0.0 10.55 0.3 11.85 1.0 12.7 1.5 13.55 2.2 L14.1 2.7 Q15.75 4.15 16.25 5.25 L16.25 5.3 Z" fill="none" stroke="#5e2f26" stroke-linecap="round" stroke-linejoin="round" stroke-width="2.0"/>
      <path d="M4.95 24.05 L4.5 23.6 1.6 17.75 1.15 16.45 Q-0.55 11.7 0.3 7.7 0.95 5.0 2.55 3.05 3.85 1.6 5.6 0.65 8.0 -0.1 9.3 0.0 10.55 0.3 11.85 1.0 12.7 1.5 13.55 2.2 L14.1 2.7 Q15.75 4.15 16.25 5.25 L16.25 5.3 Q16.8 6.6 16.7 7.95 14.3 2.3 8.1 2.5 L6.3 2.75 5.4 3.95 4.9 4.05 2.6 7.1 Q1.4 15.95 4.95 24.05" fill="#b17c1b" fill-rule="evenodd" stroke="none"/>
      <path d="M16.7 7.95 L16.6 8.5 16.1 10.0 15.9 10.4 Q15.55 8.2 14.2 6.9 12.6 5.35 9.9 5.35 9.65 5.35 9.3 5.6 L8.65 5.85 7.2 6.7 Q6.95 6.7 7.05 6.9 L6.85 7.1 Q6.6 7.1 6.7 7.3 6.8 7.5 6.55 7.5 L5.1 9.95 5.25 9.95 5.15 10.25 4.75 12.25 4.35 15.15 4.95 19.25 Q5.55 22.85 5.8 23.2 6.8 24.65 8.5 25.0 L9.6 25.2 9.2 25.65 6.45 25.5 4.95 24.05 Q1.4 15.95 2.6 7.1 L4.9 4.05 5.4 3.95 6.3 2.75 8.1 2.5 Q14.3 2.3 16.7 7.95" fill="#e6b65b" fill-rule="evenodd" stroke="none"/>
      <path d="M15.9 10.4 L15.85 10.45 14.15 13.2 12.7 15.65 Q10.75 18.95 10.2 22.65 L9.6 25.2 8.5 25.0 Q6.8 24.65 5.8 23.2 5.55 22.85 4.95 19.25 L4.35 15.15 4.75 12.25 5.15 10.25 5.25 9.95 5.1 9.95 6.55 7.5 Q6.8 7.5 6.7 7.3 6.6 7.1 6.85 7.1 L7.05 6.9 Q6.95 6.7 7.2 6.7 L8.65 5.85 9.3 5.6 Q9.65 5.35 9.9 5.35 12.6 5.35 14.2 6.9 15.55 8.2 15.9 10.4" fill="#ffffcc" fill-rule="evenodd" stroke="none"/>
    </g>
  </defs>
</svg>
