<?xml version="1.0" encoding="UTF-8" standalone="no"?>
<svg xmlns:xlink="http://www.w3.org/1999/xlink" height="25.8px" width="14.65px" xmlns="http://www.w3.org/2000/svg">
  <g transform="matrix(1.0, 0.0, 0.0, 1.0, -42.65, -100.15)">
    <path d="M49.5 108.35 Q48.7 107.65 48.25 105.85 L47.8 102.85 47.9 101.45 Q49.55 100.5 51.0 102.7 52.2 104.6 52.2 106.4 L52.05 108.5 51.15 108.8 50.6 108.55 49.5 108.35" fill="#c20505" fill-opacity="0.9019608" fill-rule="evenodd" stroke="none"/>
    <path d="M51.15 108.8 Q51.75 109.1 51.75 109.7 L51.05 112.05 50.2 113.85 Q49.6 113.55 49.15 112.5 L49.15 108.35 49.5 108.35 50.6 108.55 51.15 108.8 M43.75 122.7 L44.6 122.5 44.65 121.75 Q49.4 121.7 49.85 121.8 L50.7 122.0 53.9 121.95 54.6 122.2 Q54.9 122.35 54.9 123.05 L54.9 123.1 56.25 123.45 56.3 123.3 56.3 123.95 Q56.3 124.7 56.0 124.85 L55.25 124.95 48.8 124.95 47.55 124.5 44.65 124.5 43.9 123.9 43.65 123.3 43.75 122.7 M49.6 118.25 L49.7 117.25 Q50.0 116.65 51.3 117.1 L51.6 117.45 51.75 118.35 51.6 120.25 Q51.3 120.25 51.0 120.8 50.5 120.4 50.1 119.6 49.6 118.8 49.6 118.25" fill="#c20505" fill-opacity="0.9019608" fill-rule="evenodd" stroke="none"/>
  </g>
</svg>