<?xml version="1.0" encoding="UTF-8" standalone="no"?>
<svg xmlns:xlink="http://www.w3.org/1999/xlink" height="25.55px" width="61.95px" xmlns="http://www.w3.org/2000/svg">
  <g transform="matrix(1.0, 0.0, 0.0, 1.0, 1, 9.65)">
    <path d="M39.2 0.0 L41.5 -2.95 Q43.8 -5.5 46.65 -7.0 L49.15 -8.05 54.1 -8.55 Q56.5 -8.3 57.95 -7.1 L59.1 -5.8 Q60.75 -3.35 59.25 0.0 L57.65 3.05 56.45 4.8 56.15 5.4 55.45 6.65 54.5 8.45 Q52.25 12.7 51.6 14.9 L43.65 14.9 41.3 6.15 40.2 5.05 37.8 2.8 37.05 2.15 37.4 1.9 37.75 1.65 37.95 1.5 38.05 1.4 38.7 0.75 39.2 0.0" fill="url(#gradient0)" fill-rule="evenodd" stroke="none"/>
    <path d="M1.8 10.0 L2.0 9.7 4.15 6.2 5.6 4.3 Q7.7 1.95 10.25 1.95 L12.6 2.55 11.5 4.4 8.75 6.8 Q6.25 8.6 4.9 9.15 L1.65 10.25 1.8 10.0 M15.75 4.1 Q19.55 0.5 22.05 0.5 L23.3 0.8 20.95 4.6 20.15 5.85 Q18.0 8.25 10.85 11.6 L9.4 11.6 13.65 6.25 15.35 4.5 15.75 4.1 M27.2 3.25 Q29.9 0.5 32.05 0.5 34.75 0.5 37.05 2.15 L37.8 2.8 37.8 2.85 Q37.65 3.9 36.8 5.0 35.6 6.4 33.15 7.85 28.1 10.8 22.75 11.6 L21.1 11.6 23.35 8.1 24.2 6.9 25.85 4.75 27.2 3.25" fill="#515151" fill-rule="evenodd" stroke="none"/>
    <path d="M43.65 14.9 L19.3 14.9 19.6 14.3 7.8 14.75 8.75 12.65 0.0 12.65 0.05 12.65 1.65 10.25 4.9 9.15 Q6.25 8.6 8.75 6.8 L11.5 4.4 12.6 2.55 13.2 2.75 15.75 4.1 15.35 4.5 13.65 6.25 9.4 11.6 10.85 11.6 Q18.0 8.25 20.15 5.85 L20.95 4.6 23.3 0.8 Q24.15 1.1 25.25 1.9 L27.2 3.25 25.85 4.75 24.2 6.9 23.35 8.1 21.1 11.6 22.75 11.6 Q28.1 10.8 33.15 7.85 35.6 6.4 36.8 5.0 37.65 3.9 37.8 2.85 L37.8 2.8 40.2 5.05 41.3 6.15 43.65 14.9 M19.6 14.3 L21.1 11.6 19.6 14.3 M8.75 12.65 L9.4 11.6 8.75 12.65" fill="#2e2e2e" fill-rule="evenodd" stroke="none"/>
    <path d="M59.25 0.0 L57.65 3.05 56.45 4.8 51.6 14.9 43.65 14.9 19.3 14.9 19.6 14.3 7.8 14.75 8.75 12.65 0.0 12.65 0.05 12.65 1.8 10.0 2.0 9.7 4.15 6.2 5.6 4.3 Q7.7 1.95 10.25 1.95 L12.6 2.55 13.2 2.75 15.75 4.1 Q19.55 0.5 22.05 0.5 L23.3 0.8 Q24.15 1.1 25.25 1.9 L27.2 3.25 Q29.9 0.5 32.05 0.5 34.75 0.5 37.05 2.15 L37.4 1.9 37.75 1.65 37.95 1.5 38.05 1.4 39.2 0.0 38.7 0.75 38.05 1.4 M56.45 4.8 L56.15 5.4 55.45 6.65 54.5 8.45 Q52.25 12.7 51.6 14.9 M41.3 6.15 L40.2 5.05 37.8 2.8 37.05 2.15 M21.1 11.6 L19.6 14.3 M21.1 11.6 L23.35 8.1 24.2 6.9 25.85 4.75 27.2 3.25 M9.4 11.6 L8.75 12.65 M9.4 11.6 L13.65 6.25 15.35 4.5 15.75 4.1 M1.65 10.25 L0.05 12.65 M1.65 10.25 L1.8 10.0" fill="none" stroke="#4f0202" stroke-linecap="round" stroke-linejoin="round" stroke-opacity="0.49803922" stroke-width="1"/>
  </g>
  <defs>
    <linearGradient gradientTransform="matrix(0.0072, 0.0019, -0.005, 0.0188, 48.25, 6.2)" gradientUnits="userSpaceOnUse" id="gradient0" spreadMethod="pad" x1="-819.2" x2="819.2">
      <stop offset="0.0" stop-color="#b3413a"></stop>
      <stop offset="0.5058823529411764" stop-color="#9f3933"></stop>
      <stop offset="1.0" stop-color="#b2413a"></stop>
    </linearGradient>
  </defs>
</svg>