<?xml version="1.0" encoding="UTF-8" standalone="no"?>
<svg xmlns:xlink="http://www.w3.org/1999/xlink" height="95.55px" width="85.6px" xmlns="http://www.w3.org/2000/svg">
  <g transform="matrix(1.0, 0.0, 0.0, 1.0, 9.3, 1)">
    <path d="M49.7 10.8 Q56.3 6.7 65.85 3.55 74.85 0.45 75.3 0.0 L75.25 0.7 75.05 1.95 74.0 4.15 72.85 5.6 71.15 7.4 69.85 8.6 Q68.25 10.15 64.6 10.95 L54.75 11.75 Q51.15 11.75 50.05 11.1 L49.7 10.8 M68.1 5.75 Q68.85 5.05 69.5 4.65 L64.85 5.75 Q61.2 6.75 59.55 7.4 L58.1 8.2 54.85 9.95 56.85 10.15 62.75 9.1 Q65.05 8.5 68.1 5.75" fill="#dd705a" fill-rule="evenodd" stroke="none"/>
    <path d="M49.7 10.8 L50.05 11.1 Q51.15 11.75 54.75 11.75 L64.6 10.95 Q64.6 13.25 65.3 18.15 65.9 22.75 66.25 23.7 68.35 23.25 70.0 15.5 71.1 10.45 71.15 7.4 L72.85 5.6 Q74.15 18.85 69.7 25.5 67.4 28.85 64.05 29.85 L64.05 29.7 Q62.9 18.0 61.9 14.65 L61.7 14.65 Q60.45 22.65 60.0 23.55 57.75 27.15 53.95 34.55 L51.2 34.55 Q47.0 35.4 43.5 36.85 40.0 38.35 35.85 40.95 30.1 44.65 26.05 53.4 25.9 52.6 25.15 52.2 L24.45 52.5 Q24.2 52.7 24.2 53.35 24.2 54.0 24.45 54.25 L25.15 54.5 25.65 54.25 24.6 56.8 23.9 56.9 Q23.35 57.05 23.35 57.65 L23.45 58.35 21.7 59.9 Q18.55 62.75 16.95 64.9 L15.6 67.05 Q15.3 67.5 14.2 67.45 L10.85 67.35 10.75 67.35 Q2.75 68.1 -2.2 66.25 L-6.75 64.7 -6.85 64.65 Q-4.85 58.05 0.0 53.15 L4.55 47.15 6.3 43.8 7.6 43.8 16.7 42.35 24.55 41.5 35.1 35.5 Q41.85 31.55 45.35 28.65 48.1 26.4 48.85 26.05 L48.85 25.9 34.25 23.35 33.8 23.4 Q35.25 22.85 36.0 22.85 L41.6 23.5 42.75 23.7 45.9 19.65 48.65 15.25 49.4 12.95 49.25 11.0 49.7 10.8 M47.65 28.95 L39.25 36.4 40.15 36.4 Q48.3 32.55 49.3 31.8 50.85 30.7 52.1 27.5 L47.8 28.9 47.65 28.95 M8.3 48.9 Q20.85 47.15 25.35 45.1 L30.6 42.0 30.6 41.8 19.0 44.25 11.9 45.6 9.95 46.55 Q6.7 48.25 6.15 48.9 L8.3 48.9 M22.2 56.95 Q20.85 56.8 20.85 58.05 L22.2 59.1 Q22.9 58.8 23.15 58.1 22.9 57.25 22.2 56.95 M24.7 49.3 L24.25 49.45 Q23.75 49.65 23.75 50.25 L23.85 50.9 24.2 51.05 25.15 51.4 25.85 50.75 Q25.55 49.95 24.7 49.3 M7.05 66.1 Q7.05 67.1 7.25 67.4 L8.3 67.5 8.95 66.7 Q9.35 66.2 9.35 65.75 L9.25 65.1 8.9 65.0 Q7.95 65.0 7.45 65.4 7.05 65.75 7.05 66.1 M6.3 63.95 L7.45 62.7 Q7.15 62.2 6.3 61.85 L5.55 61.95 5.4 62.15 5.35 62.75 Q5.35 63.4 5.6 63.65 L6.3 63.95 M6.5 57.35 L5.85 57.05 Q4.9 57.55 4.65 58.0 4.5 58.2 4.5 58.75 4.5 59.85 5.15 60.8 L6.1 59.6 Q6.7 58.7 6.7 58.2 L6.5 57.35 M14.7 59.4 Q13.7 60.3 13.7 61.6 13.7 62.25 13.95 62.35 L14.65 62.45 Q15.7 62.35 16.25 61.5 L17.3 59.9 17.2 59.45 14.7 59.4 M17.5 54.55 L17.6 55.65 17.85 55.8 18.85 55.9 20.1 54.85 Q19.4 53.9 18.5 53.65 17.5 53.35 17.5 54.55" fill="url(#gradient0)" fill-rule="evenodd" stroke="none"/>
    <path d="M64.6 10.95 Q68.25 10.15 69.85 8.6 L71.15 7.4 Q71.1 10.45 70.0 15.5 68.35 23.25 66.25 23.7 65.9 22.75 65.3 18.15 64.6 13.25 64.6 10.95 M72.85 5.6 L74.0 4.15 75.05 1.95 74.1 17.25 73.05 31.2 Q72.75 33.35 67.6 43.2 62.7 52.5 61.75 53.45 58.8 56.5 57.6 58.75 L51.35 71.9 Q50.95 72.55 50.05 75.9 L49.1 79.35 Q48.25 80.4 38.75 84.45 28.85 88.6 24.8 89.3 L15.5 91.1 0.0 93.5 Q-7.1 94.3 -8.2 78.45 -8.75 70.8 -6.85 64.65 L-6.75 64.7 -2.2 66.25 Q2.75 68.1 10.75 67.35 L10.85 67.35 14.2 67.45 Q15.3 67.5 15.6 67.05 L16.95 64.9 Q18.55 62.75 21.7 59.9 L23.45 58.35 23.35 57.65 Q23.35 57.05 23.9 56.9 L24.6 56.8 25.65 54.25 25.15 54.5 24.45 54.25 Q24.2 54.0 24.2 53.35 24.2 52.7 24.45 52.5 L25.15 52.2 Q25.9 52.6 26.05 53.4 30.1 44.65 35.85 40.95 40.0 38.35 43.5 36.85 47.0 35.4 51.2 34.55 L53.95 34.55 Q57.75 27.15 60.0 23.55 60.45 22.65 61.7 14.65 L61.9 14.65 Q62.9 18.0 64.05 29.7 L64.05 29.85 Q67.4 28.85 69.7 25.5 74.15 18.85 72.85 5.6 M42.2 46.65 Q35.75 53.1 27.05 68.3 L27.05 68.6 31.25 66.95 31.35 67.25 32.15 68.0 32.75 67.4 32.2 66.55 Q48.1 59.85 50.5 54.6 L55.75 41.35 57.4 37.05 Q55.25 39.1 53.2 40.2 49.3 41.7 47.2 42.75 45.35 43.7 43.25 45.65 43.0 45.15 42.3 44.9 L41.85 45.15 Q41.25 45.4 41.25 46.1 41.25 46.7 41.45 46.7 L42.2 46.65 M62.7 40.6 L63.25 39.75 Q62.6 39.35 61.75 40.2 61.95 40.5 62.7 40.6 M56.55 44.8 L55.95 44.95 Q55.7 45.15 55.7 45.8 L55.8 47.1 56.85 47.2 Q56.85 46.9 57.25 46.9 L57.35 45.75 Q57.35 45.1 57.15 45.0 L56.55 44.8 M58.95 43.2 L59.15 42.6 58.6 42.35 Q58.25 42.3 58.1 42.5 58.1 43.1 58.95 43.2 M59.8 38.9 L59.9 39.75 61.05 39.85 61.25 39.25 59.8 38.9 M24.7 49.3 Q25.55 49.95 25.85 50.75 L25.15 51.4 24.2 51.05 23.85 50.9 23.75 50.25 Q23.75 49.65 24.25 49.45 L24.7 49.3 M22.2 56.95 Q22.9 57.25 23.15 58.1 22.9 58.8 22.2 59.1 L20.85 58.05 Q20.85 56.8 22.2 56.95 M38.2 68.95 L38.2 69.95 38.9 70.1 39.75 69.9 39.9 69.5 Q39.05 68.75 38.2 68.95 M17.5 54.55 Q17.5 53.35 18.5 53.65 19.4 53.9 20.1 54.85 L18.85 55.9 17.85 55.8 17.6 55.65 17.5 54.55 M14.7 59.4 L17.2 59.45 17.3 59.9 16.25 61.5 Q15.7 62.35 14.65 62.45 L13.95 62.35 Q13.7 62.25 13.7 61.6 13.7 60.3 14.7 59.4 M6.5 57.35 L6.7 58.2 Q6.7 58.7 6.1 59.6 L5.15 60.8 Q4.5 59.85 4.5 58.75 4.5 58.2 4.65 58.0 4.9 57.55 5.85 57.05 L6.5 57.35 M6.3 63.95 L5.6 63.65 Q5.35 63.4 5.35 62.75 L5.4 62.15 5.55 61.95 6.3 61.85 Q7.15 62.2 7.45 62.7 L6.3 63.95 M7.05 66.1 Q7.05 65.75 7.45 65.4 7.95 65.0 8.9 65.0 L9.25 65.1 9.35 65.75 Q9.35 66.2 8.95 66.7 L8.3 67.5 7.25 67.4 Q7.05 67.1 7.05 66.1 M38.95 75.15 L39.6 74.6 39.15 73.65 Q38.35 74.1 37.9 74.7 38.2 75.05 38.95 75.15 M24.6 80.35 L24.8 79.45 24.15 79.25 Q23.9 79.3 23.9 79.95 23.9 80.95 24.6 80.35 M8.8 80.05 L9.55 80.9 Q10.15 80.25 10.15 79.45 L8.7 79.55 8.8 80.05 M18.45 81.65 Q18.3 81.05 17.8 80.7 L17.05 80.85 Q16.75 81.05 16.75 81.7 16.75 82.7 17.05 82.35 L18.0 82.45 18.45 81.65 M13.0 82.05 Q12.8 81.45 12.15 81.2 11.0 80.95 11.0 82.3 L11.1 83.4 12.05 83.5 Q12.3 83.0 12.7 83.0 L13.0 82.05 M18.55 75.85 Q18.1 74.6 17.7 74.3 L17.2 74.5 Q16.95 74.7 16.95 75.35 L17.0 76.1 17.3 76.3 18.55 75.85 M51.75 54.75 L52.55 54.85 53.4 54.65 53.6 54.2 53.4 52.95 51.95 52.9 Q51.5 53.05 51.5 53.8 L51.55 54.45 51.7 54.6 51.75 54.75 M45.25 69.5 Q46.25 68.7 46.25 68.0 45.2 66.85 44.5 67.15 43.95 67.4 43.95 68.45 L44.15 68.8 45.25 69.5 M47.75 61.3 L47.3 60.35 46.5 59.55 Q45.55 59.9 45.55 61.0 L46.9 62.05 47.75 61.3" fill="#9f3933" fill-rule="evenodd" stroke="none"/>
    <path d="M6.3 43.8 L6.55 42.95 Q7.6 38.25 20.3 30.35 25.2 27.25 29.85 25.05 32.25 23.9 33.8 23.4 L34.25 23.35 48.85 25.9 48.85 26.05 Q48.1 26.4 45.35 28.65 41.85 31.55 35.1 35.5 L24.55 41.5 16.7 42.35 7.6 43.8 6.3 43.8 M44.4 26.75 Q44.4 25.4 43.0 25.7 L41.55 26.3 40.4 26.15 Q39.55 26.1 39.55 26.75 39.55 27.5 38.05 28.75 36.55 30.05 36.55 30.3 L36.6 30.65 36.75 30.8 38.0 30.85 Q39.55 30.85 42.05 29.1 44.4 27.45 44.4 26.75 M47.65 28.95 L47.8 28.9 52.1 27.5 Q50.85 30.7 49.3 31.8 48.3 32.55 40.15 36.4 L39.25 36.4 47.65 28.95 M8.3 48.9 L6.15 48.9 Q6.7 48.25 9.95 46.55 L11.9 45.6 19.0 44.25 30.6 41.8 30.6 42.0 25.35 45.1 Q20.85 47.15 8.3 48.9" fill="#db534a" fill-rule="evenodd" stroke="none"/>
    <path d="M68.1 5.75 Q65.05 8.5 62.75 9.1 L56.85 10.15 54.85 9.95 58.1 8.2 59.55 7.4 Q61.2 6.75 64.85 5.75 L69.5 4.65 Q68.85 5.05 68.1 5.75" fill="#ffbeb1" fill-rule="evenodd" stroke="none"/>
    <path d="M44.4 26.75 Q44.4 27.45 42.05 29.1 39.55 30.85 38.0 30.85 L36.75 30.8 36.6 30.65 36.55 30.3 Q36.55 30.05 38.05 28.75 39.55 27.5 39.55 26.75 39.55 26.1 40.4 26.15 L41.55 26.3 43.0 25.7 Q44.4 25.4 44.4 26.75" fill="#fc7c73" fill-rule="evenodd" stroke="none"/>
    <path d="M43.25 45.65 L43.25 45.75 42.2 46.65 41.45 46.7 Q41.25 46.7 41.25 46.1 41.25 45.4 41.85 45.15 L42.3 44.9 Q43.0 45.15 43.25 45.65 M31.25 66.95 L31.2 66.65 32.05 66.45 32.2 66.55 32.75 67.4 32.15 68.0 31.35 67.25 31.25 66.95 M59.8 38.9 L61.25 39.25 61.05 39.85 59.9 39.75 59.8 38.9 M58.95 43.2 Q58.1 43.1 58.1 42.5 58.25 42.3 58.6 42.35 L59.15 42.6 58.95 43.2 M56.55 44.8 L57.15 45.0 Q57.35 45.1 57.35 45.75 L57.25 46.9 Q56.85 46.9 56.85 47.2 L55.8 47.1 55.7 45.8 Q55.7 45.15 55.95 44.95 L56.55 44.8 M62.7 40.6 Q61.95 40.5 61.75 40.2 62.6 39.35 63.25 39.75 L62.7 40.6 M38.2 68.95 Q39.05 68.75 39.9 69.5 L39.75 69.9 38.9 70.1 38.2 69.95 38.2 68.95 M18.55 75.85 L17.3 76.3 17.0 76.1 16.95 75.35 Q16.95 74.7 17.2 74.5 L17.7 74.3 Q18.1 74.6 18.55 75.85 M13.0 82.05 L12.7 83.0 Q12.3 83.0 12.05 83.5 L11.1 83.4 11.0 82.3 Q11.0 80.95 12.15 81.2 12.8 81.45 13.0 82.05 M18.45 81.65 L18.0 82.45 17.05 82.35 Q16.75 82.7 16.75 81.7 16.75 81.05 17.05 80.85 L17.8 80.7 Q18.3 81.05 18.45 81.65 M8.8 80.05 L8.7 79.55 10.15 79.45 Q10.15 80.25 9.55 80.9 L8.8 80.05 M24.6 80.35 Q23.9 80.95 23.9 79.95 23.9 79.3 24.15 79.25 L24.8 79.45 24.6 80.35 M38.95 75.15 Q38.2 75.05 37.9 74.7 38.35 74.1 39.15 73.65 L39.6 74.6 38.95 75.15 M50.65 51.9 L49.75 51.8 Q49.4 52.15 49.4 51.15 49.4 50.75 50.45 50.1 L51.1 51.05 50.65 51.9 M51.75 54.75 L51.7 54.6 51.55 54.45 51.5 53.8 Q51.5 53.05 51.95 52.9 L53.4 52.95 53.6 54.2 53.4 54.65 52.55 54.85 51.75 54.75 M42.7 57.85 Q41.15 57.75 40.95 57.15 L40.95 54.95 Q43.95 54.55 43.95 56.25 L43.55 57.05 42.7 57.85 M47.75 61.3 L46.9 62.05 45.55 61.0 Q45.55 59.9 46.5 59.55 L47.3 60.35 47.75 61.3 M45.25 69.5 L44.15 68.8 43.95 68.45 Q43.95 67.4 44.5 67.15 45.2 66.85 46.25 68.0 46.25 68.7 45.25 69.5" fill="#bd4c45" fill-rule="evenodd" stroke="none"/>
    <path d="M42.2 46.65 L43.25 45.75 43.25 45.65 Q45.35 43.7 47.2 42.75 49.3 41.7 53.2 40.2 55.25 39.1 57.4 37.05 L55.75 41.35 50.5 54.6 Q48.1 59.85 32.2 66.55 L32.05 66.45 31.2 66.65 31.25 66.95 27.05 68.6 27.05 68.3 Q35.75 53.1 42.2 46.65 M50.65 51.9 L51.1 51.05 50.45 50.1 Q49.4 50.75 49.4 51.15 49.4 52.15 49.75 51.8 L50.65 51.9 M42.7 57.85 L43.55 57.05 43.95 56.25 Q43.95 54.55 40.95 54.95 L40.95 57.15 Q41.15 57.75 42.7 57.85" fill="#8c2e29" fill-rule="evenodd" stroke="none"/>
    <path d="M49.7 10.8 L50.05 11.1 Q51.15 11.75 54.75 11.75 L64.6 10.95 Q68.25 10.15 69.85 8.6 L71.15 7.4 72.85 5.6 74.0 4.15 75.05 1.95" fill="none" stroke="#ff9d8a" stroke-linecap="round" stroke-linejoin="round" stroke-width="1"/>
    <path d="M75.05 1.95 L75.25 0.7 75.3 0.0 Q74.85 0.45 65.85 3.55 56.3 6.7 49.7 10.8 L49.25 11.0 49.4 12.95 48.65 15.25 45.9 19.65 42.75 23.7 41.6 23.5 36.0 22.85 Q35.25 22.85 33.8 23.4 32.25 23.9 29.85 25.05 25.2 27.25 20.3 30.35 7.6 38.25 6.55 42.95 L6.3 43.8 4.55 47.15 0.0 53.15" fill="none" stroke="#a1362f" stroke-linecap="round" stroke-linejoin="round" stroke-width="1"/>
    <path d="M75.05 1.95 L74.1 17.25 73.05 31.2 Q72.75 33.35 67.6 43.2 62.7 52.5 61.75 53.45 58.8 56.5 57.6 58.75 L51.35 71.9 Q50.95 72.55 50.05 75.9 L49.1 79.35 Q48.25 80.4 38.75 84.45 28.85 88.6 24.8 89.3 L15.5 91.1 0.0 93.5" fill="none" stroke="#661b16" stroke-linecap="round" stroke-linejoin="round" stroke-width="1"/>
  </g>
  <defs>
    <linearGradient gradientTransform="matrix(0.0037, 0.0257, -0.0565, 0.0082, 36.5, 61.5)" gradientUnits="userSpaceOnUse" id="gradient0" spreadMethod="pad" x1="-819.2" x2="819.2">
      <stop offset="0.0" stop-color="#c54941"></stop>
      <stop offset="1.0" stop-color="#9f3933"></stop>
    </linearGradient>
  </defs>
</svg>