<?xml version="1.0" encoding="UTF-8" standalone="no"?>
<svg xmlns:xlink="http://www.w3.org/1999/xlink" height="66.55px" width="106.85px" xmlns="http://www.w3.org/2000/svg">
  <g transform="matrix(1.0, 0.0, 0.0, 1.0, -30.4, -38.6)">
    <path d="M83.1 43.1 L81.95 46.7 79.3 53.05 77.8 54.15 77.6 54.3 75.8 55.9 75.7 56.0 79.9 55.2 82.3 54.75 74.35 58.1 74.35 57.95 74.15 54.2 Q74.5 52.45 75.0 50.8 L74.9 50.95 73.75 52.95 73.35 53.55 72.55 54.45 69.4 57.3 68.65 58.0 65.65 60.4 Q65.25 60.45 64.75 60.75 L64.3 61.05 63.25 61.75 62.85 62.05 Q61.4 63.1 61.2 63.65 L64.85 62.85 66.0 62.55 71.6 56.6 Q71.1 58.45 69.1 60.95 L68.65 61.5 70.4 60.7 72.8 57.75 73.2 57.2 73.7 56.5 73.5 57.95 73.5 58.1 72.9 59.85 Q72.15 61.25 70.5 63.1 L70.5 63.15 69.85 63.4 67.0 65.3 72.45 63.15 72.55 63.1 74.65 62.3 Q76.55 61.6 78.5 59.95 L78.6 59.85 79.95 58.55 76.2 60.4 75.15 60.65 75.15 60.55 76.4 58.75 73.5 61.0 74.1 59.35 74.35 58.35 Q75.65 58.3 81.5 55.9 L85.6 54.1 87.05 53.7 88.05 53.35 86.1 55.25 83.4 57.5 81.0 59.4 81.2 59.45 Q88.25 54.7 89.75 52.75 L90.6 52.45 94.5 51.1 95.9 50.6 94.5 51.6 91.95 53.4 90.85 54.2 84.95 58.55 82.5 60.9 Q82.0 61.2 81.5 61.45 79.15 62.45 78.25 63.0 L78.25 62.95 79.8 61.25 80.85 60.15 81.35 59.7 81.25 59.7 Q79.35 60.75 78.7 60.75 L78.45 60.75 76.6 62.0 75.95 62.35 75.15 62.8 74.7 63.1 Q74.0 63.55 73.95 63.65 L76.1 63.35 76.7 63.3 77.0 63.3 75.75 64.3 72.2 65.0 69.25 65.5 69.5 65.65 65.5 65.7 63.45 65.45 59.7 64.95 59.35 64.95 63.2 66.2 67.25 67.25 69.25 67.5 71.85 67.75 76.7 68.25 74.6 68.55 71.7 69.0 70.75 69.15 64.15 70.85 62.05 70.3 58.1 69.05 57.5 68.75 56.15 68.6 54.5 68.35 54.8 68.05 53.35 68.3 51.0 68.85 50.5 68.85 50.5 68.75 51.1 68.05 49.55 69.7 49.45 69.8 49.15 69.85 47.8 70.05 Q48.85 70.35 49.5 70.65 L51.0 70.75 53.7 70.55 51.25 70.5 51.25 70.4 53.1 69.35 53.8 68.9 55.6 70.1 Q56.9 70.85 58.5 71.45 L61.5 72.3 62.95 72.55 67.95 73.05 61.9 74.65 60.75 74.95 59.6 75.1 58.8 75.2 55.75 75.45 53.85 74.9 53.55 74.8 53.25 74.7 52.8 74.5 52.55 74.4 52.6 74.45 50.1 73.8 47.3 73.1 47.2 73.1 Q49.55 74.6 50.65 75.8 L53.2 76.65 53.9 76.8 53.15 76.8 52.45 76.8 50.3 76.8 48.45 76.25 46.75 75.7 46.45 75.55 46.5 75.65 42.4 74.4 37.65 73.2 Q39.45 75.9 41.5 77.35 43.1 78.4 44.85 78.7 L49.5 79.25 50.6 80.4 31.5 81.5 Q30.4 73.7 39.45 69.4 L39.45 69.45 39.95 69.55 41.6 69.05 44.45 67.95 Q44.85 67.75 45.2 67.65 L47.15 66.75 47.3 66.65 48.0 66.15 50.7 63.0 51.9 61.7 51.85 61.8 51.9 61.7 51.85 61.8 51.0 64.85 52.6 63.35 53.15 60.65 53.85 57.15 54.05 57.15 54.3 59.25 53.9 61.75 Q55.7 59.2 55.7 56.9 L55.6 55.35 55.35 54.15 54.65 50.4 57.2 55.0 57.3 55.25 57.5 55.8 58.1 55.2 58.3 54.95 60.1 53.1 59.85 53.5 59.35 55.15 Q58.95 56.75 58.95 59.05 L58.85 58.8 57.75 56.5 58.15 58.8 58.2 59.4 Q58.5 61.8 58.2 62.35 L58.2 63.45 Q61.5 62.3 62.55 60.9 L62.45 60.9 60.3 62.2 61.15 59.1 60.3 60.35 59.6 61.45 59.6 61.35 59.1 59.45 Q59.4 58.1 60.45 55.8 61.8 52.85 62.4 52.1 L62.5 52.05 62.55 52.3 61.15 55.8 60.75 56.85 62.05 55.0 62.4 54.5 62.85 53.85 Q63.8 52.4 64.75 50.05 L64.05 54.9 63.9 55.7 63.25 58.25 61.2 60.25 62.85 59.35 65.65 57.55 67.8 56.0 69.7 54.6 73.7 51.3 74.0 51.05 78.4 47.15 77.0 49.3 Q75.6 51.65 75.6 52.1 75.6 52.5 75.75 52.35 L76.05 52.25 Q79.75 47.45 80.1 45.75 L80.45 45.45 83.1 43.1 M37.8 76.05 L37.8 76.2 38.9 77.65 Q40.15 79.05 41.3 79.05 L41.45 78.9 41.4 78.75 37.8 76.05 M78.45 60.75 L78.9 60.2 79.6 59.2 80.45 58.3 80.3 58.35 79.95 58.55 80.3 58.35 80.45 58.3 79.6 59.2 78.9 60.2 78.45 60.75 M57.5 55.8 L57.75 56.5 57.5 55.8 M62.75 67.8 L64.3 68.25 66.9 68.05 59.65 66.05 62.05 67.45 62.75 67.8 M54.45 68.4 L60.15 70.8 60.0 70.95 55.95 69.55 Q54.75 69.15 53.95 68.75 L54.45 68.4 M51.45 66.4 L53.4 65.45 53.5 65.45 52.3 66.65 51.35 67.7 51.1 68.05 51.35 67.7 52.3 66.65 53.5 65.45 53.4 65.45 51.45 66.4 48.0 67.6 47.8 67.65 46.4 68.05 45.95 68.15 44.15 68.85 43.45 69.15 Q41.4 70.15 40.75 70.6 L43.7 70.25 46.7 69.7 48.55 68.35 51.45 66.4 M57.3 59.8 L57.05 59.1 Q56.35 59.55 55.5 61.6 54.75 63.45 54.75 63.95 54.75 64.35 54.9 64.2 L56.35 62.0 57.3 59.8 M42.15 72.5 L42.75 72.75 Q43.95 72.75 46.5 70.95 46.1 70.7 44.55 71.5 42.85 72.4 42.15 72.3 L42.15 72.5 M46.7 71.8 Q48.65 72.15 50.25 72.75 L52.15 73.2 52.8 73.25 54.5 73.15 56.8 72.45 55.2 72.05 54.9 72.0 52.4 71.9 51.25 71.95 48.2 71.9 46.7 71.8 M58.35 63.95 Q57.2 63.75 55.8 65.0 54.6 66.0 54.6 66.35 54.6 66.75 54.75 66.6 56.6 65.8 58.35 63.95" fill="#ffcc00" fill-rule="evenodd" stroke="none"/>
    <path d="M79.3 53.05 L78.9 53.75 81.05 52.8 Q81.95 52.45 84.2 51.8 L88.4 50.8 94.5 50.55 96.0 50.55 95.9 50.6 94.5 51.1 90.6 52.45 89.75 52.75 Q88.25 54.7 81.2 59.45 L81.0 59.4 83.4 57.5 86.1 55.25 88.05 53.35 87.05 53.7 85.6 54.1 81.5 55.9 Q75.65 58.3 74.35 58.35 L74.3 58.35 73.95 58.25 74.35 58.1 82.3 54.75 79.9 55.2 75.7 56.0 75.8 55.9 77.6 54.3 77.8 54.15 79.3 53.05 M39.45 69.4 L39.75 69.25 40.35 68.85 42.0 67.75 45.15 65.65 46.1 65.0 52.1 60.85 52.7 58.5 53.3 55.45 54.35 49.9 54.65 50.4 55.35 54.15 55.6 55.35 55.7 56.9 Q55.7 59.2 53.9 61.75 L54.3 59.25 54.05 57.15 53.85 57.15 53.15 60.65 52.6 63.35 51.0 64.85 51.85 61.8 51.9 61.7 50.7 63.0 48.0 66.15 47.3 66.65 47.15 66.75 45.2 67.65 Q44.85 67.75 44.45 67.95 L41.6 69.05 39.95 69.55 39.45 69.45 39.45 69.4 M60.1 53.1 L62.8 50.35 62.85 50.3 64.9 48.4 64.75 50.05 Q63.8 52.4 62.85 53.85 L62.4 54.5 62.05 55.0 60.75 56.85 61.15 55.8 62.55 52.3 62.5 52.05 62.4 52.1 Q61.8 52.85 60.45 55.8 59.4 58.1 59.1 59.45 L59.05 59.6 58.95 59.8 58.95 59.25 58.95 59.05 Q58.95 56.75 59.35 55.15 L59.85 53.5 60.1 53.1 M63.25 58.25 L63.2 58.35 63.75 57.85 66.2 55.6 67.2 54.7 74.35 48.25 Q83.2 40.25 84.15 39.6 L83.2 42.7 83.1 43.1 80.45 45.45 80.1 45.75 Q79.75 47.45 76.05 52.25 L75.75 52.35 Q75.6 52.5 75.6 52.1 75.6 51.65 77.0 49.3 L78.4 47.15 74.0 51.05 73.7 51.3 69.7 54.6 67.8 56.0 65.65 57.55 62.85 59.35 61.2 60.25 63.25 58.25 M52.6 74.45 L53.45 74.9 53.8 75.1 55.2 75.85 56.5 76.45 57.7 76.95 54.85 76.8 53.9 76.8 53.2 76.65 50.65 75.8 Q49.55 74.6 47.2 73.1 L47.3 73.1 50.1 73.8 52.6 74.45 M46.5 75.65 L48.45 78.0 49.5 79.25 44.85 78.7 Q43.1 78.4 41.5 77.35 39.45 75.9 37.65 73.2 L42.4 74.4 46.5 75.65 M52.1 60.85 L51.9 61.7 52.1 60.85 M37.8 76.05 L41.4 78.75 41.45 78.9 41.3 79.05 Q40.15 79.05 38.9 77.65 L37.8 76.2 37.8 76.05 M76.2 60.4 L79.95 58.55 78.6 59.85 78.5 59.95 Q76.55 61.6 74.65 62.3 L72.55 63.1 72.45 63.15 67.0 65.3 69.85 63.4 70.5 63.15 70.55 63.1 72.6 62.15 75.0 60.95 76.2 60.4 M74.15 54.2 L74.1 54.35 73.7 56.5 73.2 57.2 72.8 57.75 70.4 60.7 68.65 61.5 69.1 60.95 Q71.1 58.45 71.6 56.6 L66.0 62.55 64.85 62.85 61.2 63.65 Q61.4 63.1 62.85 62.05 L63.25 61.75 64.3 61.05 64.75 60.75 Q65.25 60.45 65.65 60.4 L68.65 58.0 69.4 57.3 72.55 54.45 73.35 53.55 73.75 52.95 74.9 50.95 75.0 50.8 Q74.5 52.45 74.15 54.2 M76.7 68.25 L71.85 67.75 69.25 67.5 67.25 67.25 63.2 66.2 59.35 64.95 59.7 64.95 63.45 65.45 65.5 65.7 69.5 65.65 72.05 66.45 79.1 68.0 76.7 68.25 M67.95 73.05 L62.95 72.55 61.5 72.3 58.5 71.45 Q56.9 70.85 55.6 70.1 L53.8 68.9 53.25 68.4 53.95 68.75 Q54.75 69.15 55.95 69.55 L60.0 70.95 60.15 70.8 54.45 68.4 54.25 68.3 54.5 68.35 56.15 68.6 57.5 68.75 58.1 69.05 62.05 70.3 64.15 70.85 70.65 72.35 67.95 73.05 M62.75 67.8 L62.05 67.45 59.65 66.05 66.9 68.05 64.3 68.25 62.75 67.8 M51.45 66.4 L48.55 68.35 46.7 69.7 43.7 70.25 40.75 70.6 Q41.4 70.15 43.45 69.15 L44.15 68.85 45.95 68.15 46.4 68.05 47.8 67.65 48.0 67.6 51.45 66.4 M57.3 59.8 L56.35 62.0 54.9 64.2 Q54.75 64.35 54.75 63.95 54.75 63.45 55.5 61.6 56.35 59.55 57.05 59.1 L57.3 59.8 M42.15 72.5 L42.15 72.3 Q42.85 72.4 44.55 71.5 46.1 70.7 46.5 70.95 43.95 72.75 42.75 72.75 L42.15 72.5 M46.7 71.8 L48.2 71.9 51.25 71.95 52.4 71.9 54.9 72.0 55.2 72.05 56.8 72.45 54.5 73.15 52.8 73.25 52.15 73.2 50.25 72.75 Q48.65 72.15 46.7 71.8 M58.35 63.95 Q56.6 65.8 54.75 66.6 54.6 66.75 54.6 66.35 54.6 66.0 55.8 65.0 57.2 63.75 58.35 63.95" fill="#ffea9a" fill-rule="evenodd" stroke="none"/>
    <path d="M82.5 60.9 L80.25 63.1 80.15 63.2 75.75 64.3 77.0 63.3 76.7 63.3 76.1 63.35 73.95 63.65 Q74.0 63.55 74.7 63.1 L75.15 62.8 75.95 62.35 76.6 62.0 78.45 60.75 78.7 60.75 Q79.35 60.75 81.25 59.7 L81.35 59.7 80.85 60.15 79.8 61.25 78.25 62.95 78.25 63.0 Q79.15 62.45 81.5 61.45 82.0 61.2 82.5 60.9 M74.35 58.1 L73.95 58.25 74.3 58.35 74.35 58.35 74.1 59.35 73.5 61.0 76.4 58.75 75.15 60.55 75.15 60.65 76.2 60.4 75.0 60.95 72.6 62.15 70.55 63.1 70.5 63.15 70.5 63.1 Q72.15 61.25 72.9 59.85 L73.5 58.1 73.5 57.95 73.7 56.5 74.1 54.35 74.15 54.2 74.35 57.95 74.35 58.1 M59.1 59.45 L59.6 61.35 59.6 61.45 60.3 60.35 61.15 59.1 60.3 62.2 62.45 60.9 62.55 60.9 Q61.5 62.3 58.2 63.45 L58.2 62.35 Q58.5 61.8 58.2 59.4 L58.15 58.8 57.75 56.5 58.85 58.8 58.95 59.05 58.95 59.25 58.95 59.8 59.05 59.6 59.1 59.45 M54.5 68.35 L54.25 68.3 54.45 68.4 53.95 68.75 53.25 68.4 53.8 68.9 53.1 69.35 51.25 70.4 51.25 70.5 53.7 70.55 51.0 70.75 49.5 70.65 Q48.85 70.35 47.8 70.05 L49.15 69.85 49.45 69.8 49.55 69.7 51.1 68.05 50.5 68.75 50.5 68.85 51.0 68.85 53.35 68.3 54.8 68.05 54.5 68.35" fill="#d4aa00" fill-rule="evenodd" stroke="none"/>
    <path d="M80.15 63.2 L80.45 63.1 Q83.9 61.9 92.5 60.55 L93.85 60.35 90.45 62.55 89.35 63.1 86.2 64.6 Q83.75 65.75 82.05 67.05 L84.2 67.5 Q85.8 67.8 86.3 68.35 83.85 68.3 78.95 69.65 74.45 70.95 72.05 70.95 L74.55 71.15 Q77.1 71.4 77.5 71.95 L74.35 72.8 Q72.4 73.4 69.6 74.45 L68.3 74.95 65.7 76.65 Q66.05 77.2 71.75 79.3 L78.15 81.75 69.6 84.3 70.3 85.0 Q72.2 85.15 77.9 86.7 L86.55 89.1 88.8 88.15 Q91.85 86.7 95.55 85.25 L103.9 81.55 108.8 79.05 111.3 77.7 113.9 76.15 114.2 75.9 116.6 72.9 117.6 71.9 121.15 68.6 122.45 67.5 124.15 66.1 126.35 64.45 Q130.7 61.2 132.65 61.2 134.0 61.2 135.05 62.75 L135.8 64.25 136.1 66.1 136.2 67.2 Q136.7 75.35 129.55 83.4 121.9 91.9 113.45 93.5 L90.35 97.95 Q85.35 98.95 84.15 99.45 73.8 103.45 70.15 103.9 L60.5 103.6 Q56.35 102.6 53.65 101.05 L39.75 92.75 39.2 92.5 Q38.25 91.25 38.25 90.1 38.25 89.6 38.4 89.45 38.7 89.1 39.9 89.1 L40.1 89.15 Q41.6 90.2 43.65 90.75 L46.85 91.95 Q50.25 95.05 54.3 97.15 60.65 100.45 66.8 100.45 L91.75 94.15 92.4 94.15 Q88.05 91.9 82.0 90.6 L78.95 90.0 Q70.95 88.65 68.35 88.95 L65.75 90.6 Q58.9 94.5 56.7 94.5 56.25 94.5 49.85 90.35 L49.65 90.15 Q45.5 86.1 45.35 83.4 L50.6 84.4 56.8 85.1 59.75 84.8 Q57.9 84.65 53.55 80.3 L58.85 79.45 65.4 78.05 Q65.2 78.05 65.15 77.9 L65.1 77.75 62.35 76.5 59.6 75.1 60.75 74.95 61.9 74.65 67.95 73.05 70.65 72.35 64.15 70.85 70.75 69.15 71.7 69.0 74.6 68.55 76.7 68.25 79.1 68.0 72.05 66.45 69.5 65.65 69.25 65.5 72.2 65.0 75.75 64.3 80.15 63.2 M114.7 78.8 L113.9 76.15 114.7 78.8 M123.0 72.75 L121.55 69.5 121.15 68.6 121.55 69.5 123.0 72.75 M57.5 92.15 L57.85 91.95 57.35 92.15 57.5 92.15" fill="#9f3933" fill-rule="evenodd" stroke="none"/>
    <path d="M93.85 60.35 L94.5 60.25 103.3 58.35 Q110.1 56.4 114.35 52.25 118.55 48.1 126.8 52.7 134.15 56.85 135.8 64.25 L135.05 62.75 Q134.0 61.2 132.65 61.2 130.7 61.2 126.35 64.45 L124.15 66.1 122.45 67.5 121.15 68.6 117.6 71.9 116.6 72.9 114.2 75.9 113.9 76.15 113.85 76.1 113.2 74.4 Q111.6 70.15 110.85 69.1 109.05 66.5 106.85 64.85 L104.8 63.55 106.85 64.85 Q109.05 66.5 110.85 69.1 111.6 70.15 113.2 74.4 L113.85 76.1 113.9 76.15 111.3 77.7 108.8 79.05 103.9 81.55 95.55 85.25 Q91.85 86.7 88.8 88.15 L86.55 89.1 77.9 86.7 Q72.2 85.15 70.3 85.0 L69.6 84.3 78.15 81.75 71.75 79.3 Q66.05 77.2 65.7 76.65 L68.3 74.95 69.6 74.45 Q72.4 73.4 74.35 72.8 L77.5 71.95 Q77.1 71.4 74.55 71.15 L72.05 70.95 Q74.45 70.95 78.95 69.65 83.85 68.3 86.3 68.35 85.8 67.8 84.2 67.5 L82.05 67.05 Q83.75 65.75 86.2 64.6 L89.35 63.1 90.45 62.55 93.85 60.35 M113.6 60.95 Q117.1 63.25 119.7 66.0 L121.15 68.6 119.7 66.0 Q117.1 63.25 113.6 60.95 M103.35 77.7 Q103.1 75.5 100.95 71.95 99.35 69.3 98.05 67.8 99.35 69.3 100.95 71.95 103.1 75.5 103.35 77.7 M118.55 57.85 Q121.95 58.6 123.6 60.35 125.25 62.1 125.75 63.2 L126.35 64.45 125.75 63.2 Q125.25 62.1 123.6 60.35 121.95 58.6 118.55 57.85 M57.5 92.15 L57.35 92.15 57.85 91.95 57.5 92.15" fill="url(#gradient0)" fill-rule="evenodd" stroke="none"/>
    <path d="M39.2 92.5 Q35.45 90.7 33.35 86.65 L32.05 83.45 31.5 81.5 50.6 80.4 49.5 79.25 48.45 78.0 46.5 75.65 46.45 75.55 46.75 75.7 48.45 76.25 50.3 76.8 52.45 76.8 53.15 76.8 53.9 76.8 54.85 76.8 57.7 76.95 56.5 76.45 55.2 75.85 53.8 75.1 53.45 74.9 52.6 74.45 52.55 74.4 52.8 74.5 53.25 74.7 53.55 74.8 53.85 74.9 55.75 75.45 58.8 75.2 59.6 75.1 62.35 76.5 65.1 77.75 65.15 77.9 Q65.2 78.05 65.4 78.05 L58.85 79.45 53.55 80.3 Q57.9 84.65 59.75 84.8 L56.8 85.1 50.6 84.4 45.35 83.4 Q45.5 86.1 49.65 90.15 L49.85 90.35 Q56.25 94.5 56.7 94.5 58.9 94.5 65.75 90.6 L68.35 88.95 Q70.95 88.65 78.95 90.0 L82.0 90.6 Q88.05 91.9 92.4 94.15 L91.75 94.15 66.8 100.45 Q60.65 100.45 54.3 97.15 50.25 95.05 46.85 91.95 L43.65 90.75 Q41.6 90.2 40.1 89.15 L39.9 89.1 Q38.7 89.1 38.4 89.45 38.25 89.6 38.25 90.1 38.25 91.25 39.2 92.5" fill="#8c2e29" fill-rule="evenodd" stroke="none"/>
    <path d="M113.45 93.5 L90.35 97.95 Q85.35 98.95 84.15 99.45 73.8 103.45 70.15 103.9 L60.5 103.6 Q56.35 102.6 53.65 101.05 L39.75 92.75 39.2 92.5 M104.8 63.55 L106.85 64.85 Q109.05 66.5 110.85 69.1 111.6 70.15 113.2 74.4 L113.85 76.1 113.9 76.15 114.7 78.8 M121.15 68.6 L119.7 66.0 Q117.1 63.25 113.6 60.95 M98.05 67.8 Q99.35 69.3 100.95 71.95 103.1 75.5 103.35 77.7 M126.35 64.45 L125.75 63.2 Q125.25 62.1 123.6 60.35 121.95 58.6 118.55 57.85 M121.15 68.6 L121.55 69.5 123.0 72.75" fill="none" stroke="#4f0202" stroke-linecap="round" stroke-linejoin="round" stroke-opacity="0.49803922" stroke-width="1"/>
    <path d="M83.1 43.1 L81.95 46.7 79.3 53.05 78.9 53.75 81.05 52.8 Q81.95 52.45 84.2 51.8 L88.4 50.8 94.5 50.55 96.0 50.55 95.9 50.6 94.5 51.6 91.95 53.4 90.85 54.2 84.95 58.55 82.5 60.9 80.25 63.1 80.15 63.2 75.75 64.3 72.2 65.0 69.25 65.5 69.5 65.65 72.05 66.45 79.1 68.0 76.7 68.25 74.6 68.55 71.7 69.0 70.75 69.15 64.15 70.85 62.05 70.3 58.1 69.05 M31.5 81.5 Q30.4 73.7 39.45 69.4 M39.75 69.25 L40.35 68.85 42.0 67.75 45.15 65.65 46.1 65.0 52.1 60.85 52.7 58.5 53.3 55.45 54.35 49.9 54.65 50.4 57.2 55.0 57.3 55.25 57.5 55.8 58.1 55.2 58.3 54.95 60.1 53.1 62.8 50.35 62.85 50.3 64.9 48.4 64.75 50.05 64.05 54.9 63.9 55.7 63.25 58.25 63.2 58.35 63.75 57.85 66.2 55.6 67.2 54.7 74.35 48.25 Q83.2 40.25 84.15 39.6 L83.2 42.7 83.1 43.1 M78.45 60.75 L76.6 62.0 M59.6 75.1 L58.8 75.2 55.75 75.45 53.85 74.9 53.55 74.8 M52.8 74.5 L52.55 74.4 52.6 74.45 53.45 74.9 53.8 75.1 55.2 75.85 56.5 76.45 57.7 76.95 54.85 76.8 53.9 76.8 53.15 76.8 52.45 76.8 50.3 76.8 48.45 76.25 46.75 75.7 46.45 75.55 46.5 75.65 48.45 78.0 49.5 79.25 50.6 80.4 31.5 81.5 M51.9 61.7 L52.1 60.85 M76.2 60.4 L79.95 58.55 80.3 58.35 80.45 58.3 79.6 59.2 78.9 60.2 78.45 60.75 M74.15 54.2 L74.1 54.35 73.7 56.5 73.5 57.95 73.5 58.1 72.9 59.85 Q72.15 61.25 70.5 63.1 L70.5 63.15 70.55 63.1 72.6 62.15 75.0 60.95 76.2 60.4 M74.15 54.2 Q74.5 52.45 75.0 50.8 L74.9 50.95 73.75 52.95 73.35 53.55 72.55 54.45 69.4 57.3 68.65 58.0 65.65 60.4 Q65.25 60.45 64.75 60.75 L64.3 61.05 M58.2 62.35 Q58.5 61.8 58.2 59.4 L58.15 58.8 57.75 56.5 57.5 55.8 M70.5 63.15 L69.85 63.4 M67.95 73.05 L70.65 72.35 64.15 70.85 M49.15 69.85 L49.45 69.8 49.55 69.7 51.1 68.05 51.35 67.7 52.3 66.65 53.5 65.45 53.4 65.45 51.45 66.4 48.0 67.6 47.8 67.65 46.4 68.05 45.95 68.15 M51.0 64.85 L51.85 61.8 51.9 61.7 M59.6 75.1 L60.75 74.95 61.9 74.65 67.95 73.05" fill="none" stroke="#cba200" stroke-linecap="round" stroke-linejoin="round" stroke-width="1"/>
    <path d="M80.15 63.2 L80.45 63.1 Q83.9 61.9 92.5 60.55 L93.85 60.35 94.5 60.25 103.3 58.35 Q110.1 56.4 114.35 52.25 M39.2 92.5 Q35.45 90.7 33.35 86.65 L32.05 83.45 31.5 81.5" fill="none" stroke="#a1362f" stroke-linecap="round" stroke-linejoin="round" stroke-width="1"/>
    <path d="M115.65 58.6 Q119.05 57.9 122.55 60.9 124.8 62.85 126.8 66.1 127.05 66.25 126.45 66.3 L122.45 62.75 Q118.05 59.1 115.85 58.85 L115.65 58.6 M107.0 61.05 Q106.55 60.5 106.55 59.75 115.6 61.85 119.3 67.15 121.4 70.15 123.25 76.15 123.15 76.35 122.75 76.4 121.3 70.6 115.7 65.05 110.0 59.5 107.0 61.05 M99.4 62.85 Q105.8 62.7 110.8 71.55 114.4 78.05 115.05 83.15 L114.7 83.5 Q112.3 76.6 110.5 73.15 107.3 67.05 99.55 63.4 L99.4 62.85 M92.8 65.7 L92.55 65.5 92.2 65.2 91.8 64.8 93.15 66.0 Q97.1 66.15 100.95 74.4 104.5 82.15 104.5 86.4 L104.4 86.85 104.3 87.1 104.15 87.3 Q103.2 85.4 102.35 82.05 L100.9 76.65 Q98.65 70.2 92.25 66.75 L92.25 66.05 93.1 66.0 92.8 65.7" fill="#d7554d" fill-rule="evenodd" stroke="none"/>
    <path d="M100.3 75.65 L100.25 75.5 100.15 75.4 100.25 75.5 100.35 75.7 100.3 75.65 M111.2 87.75 L111.2 87.4 117.75 81.9 122.95 77.35 Q124.55 75.1 126.85 70.6 128.85 67.45 131.05 67.0 L131.3 69.45 Q131.3 75.05 125.55 80.8 119.3 87.05 111.2 87.75" fill="#8c2e29" fill-rule="evenodd" stroke="none"/>
  </g>
  <defs>
    <linearGradient gradientTransform="matrix(0.004, 0.0149, -0.0618, 0.0166, 85.4, 78.3)" gradientUnits="userSpaceOnUse" id="gradient0" spreadMethod="pad" x1="-819.2" x2="819.2">
      <stop offset="0.0" stop-color="#c54941"></stop>
      <stop offset="1.0" stop-color="#9f3933"></stop>
    </linearGradient>
  </defs>
</svg>