<?xml version="1.0" encoding="UTF-8" standalone="no"?>
<svg xmlns:xlink="http://www.w3.org/1999/xlink" height="96.45px" width="64.45px" xmlns="http://www.w3.org/2000/svg">
  <g transform="matrix(1.0, 0.0, 0.0, 1.0, 8.95, 1)">
    <path d="M15.3 15.55 Q17.5 18.55 18.75 23.15 L18.9 23.85 Q19.55 26.35 20.85 36.45 21.85 44.15 23.65 47.85 24.3 49.15 25.1 50.2 26.2 50.8 27.1 50.85 27.15 51.4 28.5 51.25 29.95 51.05 30.9 50.05 L31.45 49.2 32.95 46.3 35.75 41.45 37.4 38.55 39.45 34.15 41.5 28.7 41.9 27.65 41.6 29.95 Q46.2 23.95 47.85 23.95 48.8 23.95 51.55 26.55 54.5 29.3 54.5 30.6 L53.35 35.95 52.75 38.85 Q53.5 40.3 53.5 41.8 53.5 42.75 52.7 43.8 L51.8 44.8 51.8 44.85 Q51.9 45.6 51.2 48.7 L50.8 50.45 Q50.45 51.65 50.25 52.9 L50.25 53.0 50.15 53.75 Q49.95 55.3 50.05 56.9 L47.1 65.75 44.1 74.4 43.85 75.4 43.6 77.7 Q43.55 78.85 43.1 79.8 L42.6 80.55 42.3 81.05 43.2 81.75 44.05 82.6 44.45 83.1 Q45.85 83.85 45.1 84.9 L45.05 84.95 43.6 87.15 42.55 89.05 41.3 88.6 Q39.6 88.1 39.3 87.6 38.7 86.7 37.05 86.4 35.7 86.1 35.7 85.4 L35.95 83.8 36.2 82.35 Q36.2 80.85 35.65 79.6 35.05 78.35 35.05 77.0 35.05 75.4 35.95 73.5 L36.75 71.5 Q36.75 69.45 34.55 71.35 32.35 73.25 31.85 75.55 31.5 77.05 30.5 78.75 29.0 81.45 27.9 81.45 26.75 81.45 24.65 80.65 L24.0 80.4 24.0 80.45 24.15 80.8 24.45 81.55 Q24.85 82.45 24.85 83.25 L24.6 84.15 Q24.15 85.0 23.2 85.0 L20.75 85.75 20.0 85.3 18.95 84.65 18.25 84.25 18.0 84.1 17.15 83.7 16.75 83.55 16.35 83.35 16.3 83.35 14.9 82.9 14.9 82.85 Q18.0 81.75 18.0 80.15 L16.85 78.75 16.1 77.8 15.65 76.85 Q15.65 75.8 17.3 75.3 19.05 74.8 19.15 73.65 L19.3 71.85 19.45 72.0 19.5 71.45 19.95 70.35 20.4 69.9 22.7 68.0 23.75 66.55 23.9 66.1 24.15 64.75 Q24.3 63.7 24.7 62.95 L27.6 58.6 27.75 58.4 27.9 58.15 27.8 58.15 28.35 56.3 25.8 54.8 23.95 53.7 Q20.4 51.25 20.3 49.95 20.1 47.6 18.35 43.7 15.7 42.35 14.75 41.25 13.65 39.95 13.65 38.15 L13.9 36.8 14.1 35.55 14.0 35.3 11.3 31.6 Q11.4 30.15 12.1 27.05 L12.3 26.45 13.1 23.15 14.1 19.15 15.3 15.55 M48.45 36.15 Q48.35 37.2 46.3 41.15 44.25 45.25 44.0 46.5 L43.7 47.95 43.3 50.05 42.8 51.4 Q41.35 53.3 36.4 55.75 L31.75 57.8 Q31.0 57.8 28.35 56.3 31.0 57.8 31.75 57.8 L36.4 55.75 Q41.35 53.3 42.8 51.4 L43.3 50.05 43.7 47.95 44.0 46.5 Q44.25 45.25 46.3 41.15 48.35 37.2 48.45 36.15 M39.1 43.85 Q41.15 36.9 41.2 34.8 41.25 32.8 41.6 29.95 41.25 32.8 41.2 34.8 41.15 36.9 39.1 43.85 M47.1 47.4 L47.2 53.8 46.9 58.15 46.9 64.5 Q49.2 55.3 49.7 50.5 50.25 44.8 49.9 40.9 47.25 46.55 47.1 47.4 M52.75 38.85 L52.25 41.7 51.8 44.8 52.25 41.7 52.75 38.85 M36.55 8.65 L36.8 8.95 Q37.85 10.65 37.85 11.4 37.85 12.0 37.2 12.0 35.3 12.0 34.45 9.65 34.05 8.6 33.85 7.15 L34.35 6.95 Q35.4 6.95 36.55 8.65 L37.2 10.0 35.8 10.0 35.3 9.65 34.65 9.2 35.3 9.65 35.8 10.0 37.2 10.0 36.55 8.65 M18.35 43.7 L16.75 40.3 14.1 35.55 16.75 40.3 18.35 43.7 M22.35 41.95 L22.35 41.4 22.35 40.9 Q22.7 40.55 23.2 40.55 24.2 40.55 25.65 42.95 L26.95 45.35 26.95 46.1 25.75 46.3 Q23.4 46.3 22.65 43.85 22.35 42.9 22.35 41.95 L22.9 43.0 Q23.75 44.25 25.2 44.65 23.75 44.25 22.9 43.0 L22.35 41.95 M36.2 54.95 L31.6 54.75 Q29.65 54.4 27.95 53.7 L25.2 52.0 27.95 53.7 Q29.65 54.4 31.6 54.75 L36.2 54.95 M37.0 52.55 Q34.85 53.35 32.8 53.35 L30.95 53.15 29.8 52.75 30.95 53.15 32.8 53.35 Q34.85 53.35 37.0 52.55 M32.0 51.4 L35.55 51.3 36.8 51.05 35.55 51.3 32.0 51.4 M25.4 66.6 L23.9 66.1 25.4 66.6 M20.9 73.8 Q19.3 73.65 19.45 72.0 19.3 73.65 20.9 73.8 M34.25 73.65 L34.25 73.75 34.15 73.7 34.25 73.65 M8.25 80.8 Q7.85 82.45 8.2 84.05 L8.2 84.75 7.2 85.95 6.4 87.15 5.7 88.1 Q3.65 86.1 3.4 84.85 L3.35 84.5 Q6.5 81.3 8.2 80.7 L8.25 80.8 M20.15 78.9 L22.55 79.85 Q23.25 80.1 24.15 80.8 23.25 80.1 22.55 79.85 L20.15 78.9 19.7 78.75 20.0 79.1 20.15 78.9 M16.1 77.8 Q17.95 78.0 19.35 78.55 L19.7 78.75 19.35 78.55 Q17.95 78.0 16.1 77.8 M25.4 85.2 L25.35 85.2 25.4 85.1 25.4 85.2 M41.05 64.75 Q42.2 65.5 43.35 64.15 L43.8 63.6 Q45.15 61.9 44.85 59.65 44.8 59.1 44.4 58.7 L44.3 58.6 43.85 58.15 44.3 58.6 44.4 58.7 Q44.8 59.1 44.85 59.65 45.15 61.9 43.8 63.6 L43.35 64.15 Q42.2 65.5 41.05 64.75 M41.95 90.3 L41.85 90.45 41.9 90.3 41.95 90.3 M39.45 84.25 Q41.5 83.2 42.3 81.05 41.5 83.2 39.45 84.25" fill="#ac4806" fill-rule="evenodd" stroke="none"/>
    <path d="M47.1 47.4 Q47.25 46.55 49.9 40.9 50.25 44.8 49.7 50.5 49.2 55.3 46.9 64.5 L46.9 58.15 47.2 53.8 47.1 47.4" fill="#ff9900" fill-rule="evenodd" stroke="none"/>
    <path d="M47.85 88.15 L47.95 88.35 48.65 89.8 48.0 90.0 41.85 90.45 41.95 90.3 42.55 89.05 43.6 87.15 45.0 87.25 46.7 87.65 Q47.1 87.7 47.7 88.1 L47.85 88.15 M5.65 88.1 L0.05 87.55 -2.8 87.15 -2.85 87.15 -3.2 87.15 -3.3 86.9 -4.95 86.95 -5.25 86.9 -6.95 86.4 -7.3 86.3 -7.25 86.3 -4.75 85.85 -0.5 85.25 Q2.65 84.1 3.3 84.4 L3.35 84.45 3.35 84.5 3.4 84.85 Q3.65 86.1 5.7 88.1 L5.65 88.1 M16.3 83.35 L16.35 83.35 16.75 83.55 17.15 83.7 18.0 84.1 18.25 84.25 18.95 84.65 20.0 85.3 20.75 85.75 21.1 86.0 21.9 86.45 22.3 86.65 22.4 86.65 22.45 86.7 22.55 86.75 22.75 87.0 Q22.5 88.2 20.85 89.05 18.95 89.95 14.4 90.6 L9.1 92.35 Q4.0 94.0 2.55 94.0 1.7 94.0 1.7 93.45 1.7 92.9 5.7 90.25 L9.8 87.7 Q13.95 84.35 16.3 83.35 M-6.95 86.4 L-7.25 86.3 -6.95 86.4" fill="#484848" fill-rule="evenodd" stroke="none"/>
    <path d="M19.95 70.35 L19.5 71.45 19.45 72.0 19.3 71.85 19.35 71.65 19.45 71.4 19.95 70.35 M8.3 80.7 L8.25 80.8 8.2 80.7 8.3 80.7 M14.8 82.9 L14.9 82.85 14.9 82.9 14.8 82.9" fill="#bd4f06" fill-rule="evenodd" stroke="none"/>
    <path d="M45.1 84.9 Q46.7 86.3 47.85 88.15 L47.7 88.1 Q47.1 87.7 46.7 87.65 L45.0 87.25 43.6 87.15 45.05 84.95 45.1 84.9 M22.35 89.2 L21.55 90.45 19.5 91.35 16.3 91.9 Q14.8 91.9 11.6 92.95 8.4 94.0 5.25 94.3 L1.55 94.4 0.85 94.15 4.35 89.65 5.65 88.1 5.7 88.1 6.4 87.15 7.2 85.95 8.2 84.75 9.2 83.55 9.55 83.3 Q10.55 82.45 12.4 82.55 L14.8 82.9 14.9 82.9 16.3 83.35 Q13.95 84.35 9.8 87.7 L5.7 90.25 Q1.7 92.9 1.7 93.45 1.7 94.0 2.55 94.0 4.0 94.0 9.1 92.35 L14.4 90.6 Q18.95 89.95 20.85 89.05 22.5 88.2 22.75 87.0 L22.8 87.1 22.8 87.7 22.35 89.2 M-3.2 87.15 L-5.25 86.9 -4.95 86.95 -3.3 86.9 -3.2 87.15 M-7.25 86.3 L-7.7 86.1 -7.85 85.85 -7.5 85.6 Q-5.8 84.85 -4.25 83.8 -1.15 81.8 2.7 80.9 L2.7 80.95 3.35 84.45 3.3 84.4 Q2.65 84.1 -0.5 85.25 L-4.75 85.85 -7.25 86.3" fill="#666666" fill-rule="evenodd" stroke="none"/>
    <path d="M25.2 0.45 L28.05 0.0 Q30.8 0.0 34.1 1.15 36.8 2.15 37.2 2.65 41.15 7.85 42.35 11.25 43.05 13.1 43.05 15.5 L42.8 19.5 41.9 27.65 41.5 28.7 39.45 34.15 37.4 38.55 35.75 41.45 32.95 46.3 31.45 49.2 30.9 50.05 Q29.95 51.05 28.5 51.25 27.15 51.4 27.1 50.85 26.2 50.8 25.1 50.2 24.3 49.15 23.65 47.85 21.85 44.15 20.85 36.45 19.55 26.35 18.9 23.85 L18.75 23.15 Q17.5 18.55 15.3 15.55 16.7 11.9 18.7 8.45 19.8 6.5 22.5 3.4 L25.05 0.5 25.2 0.45 M2.7 80.9 Q2.4 78.4 4.6 77.3 5.35 76.95 5.85 76.4 6.7 75.55 8.2 75.85 8.35 75.05 8.8 74.3 L9.7 73.45 Q15.2 70.6 18.5 64.9 L20.65 61.15 21.6 59.6 22.5 57.35 22.9 56.3 23.95 53.7 25.8 54.8 28.35 56.3 27.8 58.15 27.9 58.15 27.75 58.4 27.6 58.6 24.7 62.95 Q24.3 63.7 24.15 64.75 L23.9 66.1 23.75 66.55 22.7 68.0 20.4 69.9 19.95 70.35 20.65 68.1 21.0 67.55 Q21.95 66.5 22.7 66.05 L23.25 65.9 23.9 66.1 23.25 65.9 22.7 66.05 Q21.95 66.5 21.0 67.55 L20.65 68.1 19.95 70.35 19.45 71.4 19.35 71.65 19.3 71.85 19.15 73.65 Q19.05 74.8 17.3 75.3 15.65 75.8 15.65 76.85 L16.1 77.8 16.85 78.75 18.0 80.15 Q18.0 81.75 14.9 82.85 L14.8 82.9 12.4 82.55 Q10.55 82.45 9.55 83.3 L9.2 83.55 8.2 84.75 8.2 84.05 Q7.85 82.45 8.25 80.8 L8.3 80.7 8.55 80.2 8.6 80.15 Q10.55 78.0 13.8 77.8 L16.1 77.8 13.8 77.8 Q10.55 78.0 8.6 80.15 L8.55 80.2 8.3 80.7 8.2 80.7 Q6.5 81.3 3.35 84.5 L3.35 84.45 2.7 80.95 2.7 80.9 M36.55 8.65 Q34.35 4.05 32.55 3.95 L31.2 3.95 32.55 3.95 Q34.35 4.05 36.55 8.65 35.4 6.95 34.35 6.95 L33.85 7.15 Q34.05 8.6 34.45 9.65 35.3 12.0 37.2 12.0 37.85 12.0 37.85 11.4 37.85 10.65 36.8 8.95 L36.55 8.65 M20.3 19.6 L18.45 17.55 17.75 16.6 18.45 17.55 20.3 19.6 M37.8 17.15 L37.7 16.05 37.4 15.25 37.7 16.05 37.8 17.15 M30.0 29.75 L29.8 28.6 29.65 27.7 29.4 27.7 29.65 27.7 29.8 28.6 30.0 29.75 M33.45 35.2 L33.9 34.7 33.9 33.9 33.65 33.9 33.9 33.9 33.9 34.7 33.45 35.2 M23.05 37.25 L23.05 37.1 22.7 37.6 22.85 37.45 23.05 37.25 M22.35 41.95 L22.1 41.2 22.05 40.3 Q22.05 38.65 22.5 38.0 L22.7 37.6 22.5 38.0 Q22.05 38.65 22.05 40.3 L22.1 41.2 22.35 41.95 Q22.35 42.9 22.65 43.85 23.4 46.3 25.75 46.3 L26.95 46.1 26.95 45.35 25.65 42.95 Q24.2 40.55 23.2 40.55 22.7 40.55 22.35 40.9 L22.35 41.4 22.35 41.95 M24.25 55.1 L22.6 58.6 19.9 63.6 18.25 67.05 Q17.25 69.05 15.75 69.9 12.95 71.6 11.4 73.2 10.15 74.45 9.45 76.15 13.45 73.8 16.8 70.55 19.95 67.45 21.4 64.6 22.2 63.1 23.3 58.95 L24.25 55.1 M20.15 78.9 L20.0 79.1 19.7 78.75 20.15 78.9 M8.6 80.15 L8.2 78.35 Q7.9 77.05 8.2 75.85 7.9 77.05 8.2 78.35 L8.6 80.15" fill="#de5c07" fill-rule="evenodd" stroke="none"/>
    <path d="M41.85 90.45 L41.5 90.9 38.5 89.95 35.25 89.15 34.25 89.05 32.6 89.05 27.15 89.8 Q24.7 90.3 22.35 89.2 L22.8 87.7 22.8 87.1 22.75 87.0 22.55 86.75 22.45 86.7 22.4 86.65 22.3 86.65 21.9 86.45 21.1 86.0 20.75 85.75 23.2 85.0 Q24.15 85.0 24.6 84.15 L24.85 83.25 Q24.85 82.45 24.45 81.55 L24.15 80.8 24.0 80.45 24.0 80.4 24.65 80.65 Q26.75 81.45 27.9 81.45 29.0 81.45 30.5 78.75 31.5 77.05 31.85 75.55 32.35 73.25 34.55 71.35 36.75 69.45 36.75 71.5 L35.95 73.5 Q35.05 75.4 35.05 77.0 35.05 78.35 35.65 79.6 36.2 80.85 36.2 82.35 L35.95 83.8 35.7 85.4 Q35.7 86.1 37.05 86.4 38.7 86.7 39.3 87.6 39.6 88.1 41.3 88.6 L42.55 89.05 41.95 90.3 41.9 90.3 41.85 90.45 M34.25 73.65 L34.15 73.7 34.25 73.75 34.25 73.65 M25.05 81.6 L24.15 80.8 25.05 81.6 M25.4 85.2 L25.4 85.1 25.35 85.2 25.4 85.2 M29.95 88.0 Q30.7 88.4 32.2 88.6 L34.25 89.05 32.2 88.6 Q30.7 88.4 29.95 88.0" fill="#923f07" fill-rule="evenodd" stroke="none"/>
    <path d="M24.25 55.1 L23.3 58.95 Q22.2 63.1 21.4 64.6 19.95 67.45 16.8 70.55 13.45 73.8 9.45 76.15 10.15 74.45 11.4 73.2 12.95 71.6 15.75 69.9 17.25 69.05 18.25 67.05 L19.9 63.6 22.6 58.6 24.25 55.1" fill="#feb74e" fill-rule="evenodd" stroke="none"/>
    <path d="M41.9 27.65 L42.8 19.5 43.05 15.5 Q43.05 13.1 42.35 11.25 41.15 7.85 37.2 2.65 36.8 2.15 34.1 1.15 30.8 0.0 28.05 0.0 L25.2 0.45 M41.9 27.65 L41.6 29.95 Q46.2 23.95 47.85 23.95 48.8 23.95 51.55 26.55 54.5 29.3 54.5 30.6 L53.35 35.95 52.75 38.85 Q53.5 40.3 53.5 41.8 53.5 42.75 52.7 43.8 L51.8 44.8 51.8 44.85 Q51.9 45.6 51.2 48.7 L50.8 50.45 Q50.45 51.65 50.25 52.9 L50.25 53.0 50.15 53.75 Q49.95 55.3 50.05 56.9 L47.1 65.75 44.1 74.4 43.85 75.4 43.6 77.7 Q43.55 78.85 43.1 79.8 L42.6 80.55 42.3 81.05 43.2 81.75 44.05 82.6 44.45 83.1 Q45.85 83.85 45.1 84.9 46.7 86.3 47.85 88.15 M47.95 88.35 L48.65 89.8 48.0 90.0 41.85 90.45 41.5 90.9 38.5 89.95 35.25 89.15 34.25 89.05 32.6 89.05 27.15 89.8 Q24.7 90.3 22.35 89.2 L21.55 90.45 19.5 91.35 16.3 91.9 Q14.8 91.9 11.6 92.95 8.4 94.0 5.25 94.3 L1.55 94.4 0.85 94.15 4.35 89.65 5.65 88.1 0.05 87.55 -2.8 87.15 -2.85 87.15 -3.2 87.15 -5.25 86.9 -6.95 86.4 -7.25 86.3 -7.7 86.1 -7.95 85.95 -7.85 85.85 -7.5 85.6 Q-5.8 84.85 -4.25 83.8 -1.15 81.8 2.7 80.9 2.4 78.4 4.6 77.3 5.35 76.95 5.85 76.4 6.7 75.55 8.2 75.85 8.35 75.05 8.8 74.3 L9.7 73.45 Q15.2 70.6 18.5 64.9 L20.65 61.15 21.6 59.6 22.5 57.35 22.9 56.3 23.95 53.7 Q20.4 51.25 20.3 49.95 20.1 47.6 18.35 43.7 15.7 42.35 14.75 41.25 13.65 39.95 13.65 38.15 L13.9 36.8 14.1 35.55 14.0 35.3 11.3 31.6 M41.6 29.95 Q41.25 32.8 41.2 34.8 41.15 36.9 39.1 43.85 M28.35 56.3 Q31.0 57.8 31.75 57.8 L36.4 55.75 Q41.35 53.3 42.8 51.4 L43.3 50.05 43.7 47.95 44.0 46.5 Q44.25 45.25 46.3 41.15 48.35 37.2 48.45 36.15 M51.8 44.8 L52.25 41.7 52.75 38.85 M31.2 3.95 L32.55 3.95 Q34.35 4.05 36.55 8.65 L37.2 10.0 35.8 10.0 35.3 9.65 34.65 9.2 M37.4 15.25 L37.7 16.05 37.8 17.15 M17.75 16.6 L18.45 17.55 20.3 19.6 M14.1 35.55 L16.75 40.3 18.35 43.7 M33.65 33.9 L33.9 33.9 33.9 34.7 33.45 35.2 M29.4 27.7 L29.65 27.7 29.8 28.6 30.0 29.75 M23.05 37.25 L23.05 37.1 22.7 37.6 22.85 37.45 23.05 37.25 M22.7 37.6 L22.5 38.0 Q22.05 38.65 22.05 40.3 L22.1 41.2 22.35 41.95 22.9 43.0 Q23.75 44.25 25.2 44.65 M36.8 51.05 L35.55 51.3 32.0 51.4 M29.8 52.75 L30.95 53.15 32.8 53.35 Q34.85 53.35 37.0 52.55 M25.2 52.0 L27.95 53.7 Q29.65 54.4 31.6 54.75 L36.2 54.95 M28.35 56.3 L25.8 54.8 23.95 53.7 M23.9 66.1 L23.25 65.9 22.7 66.05 Q21.95 66.5 21.0 67.55 L20.65 68.1 19.95 70.35 19.5 71.45 19.45 72.0 Q19.3 73.65 20.9 73.8 M23.9 66.1 L25.4 66.6 M42.55 89.05 L43.6 87.15 45.05 84.95 45.1 84.9 M16.1 77.8 L13.8 77.8 Q10.55 78.0 8.6 80.15 L8.55 80.2 8.3 80.7 8.25 80.8 Q7.85 82.45 8.2 84.05 L8.2 84.75 9.2 83.55 9.55 83.3 Q10.55 82.45 12.4 82.55 L14.8 82.9 M17.15 83.7 L18.0 84.1 18.25 84.25 18.95 84.65 20.0 85.3 20.75 85.75 21.1 86.0 21.9 86.45 22.3 86.65 22.4 86.65 22.45 86.7 22.55 86.75 M24.15 80.8 Q23.25 80.1 22.55 79.85 L20.15 78.9 19.7 78.75 19.35 78.55 Q17.95 78.0 16.1 77.8 M8.2 75.85 Q7.9 77.05 8.2 78.35 L8.6 80.15 M2.7 80.9 L2.7 80.95 3.35 84.45 M5.7 88.1 Q3.65 86.1 3.4 84.85 L3.35 84.5 M8.2 84.75 L7.2 85.95 6.4 87.15 5.7 88.1 5.65 88.1 M24.15 80.8 L25.05 81.6 M22.8 87.1 L22.8 87.7 22.35 89.2 M34.25 89.05 L32.2 88.6 Q30.7 88.4 29.95 88.0 M43.85 58.15 L44.3 58.6 44.4 58.7 Q44.8 59.1 44.85 59.65 45.15 61.9 43.8 63.6 L43.35 64.15 Q42.2 65.5 41.05 64.75 M41.95 90.3 L41.85 90.45 M41.95 90.3 L42.55 89.05 M42.3 81.05 Q41.5 83.2 39.45 84.25" fill="none" stroke="#660000" stroke-linecap="round" stroke-linejoin="round" stroke-opacity="0.4" stroke-width="1"/>
  </g>
</svg>