<?xml version="1.0" encoding="UTF-8" standalone="no"?>
<svg xmlns:xlink="http://www.w3.org/1999/xlink" height="18.2px" width="35.2px" xmlns="http://www.w3.org/2000/svg">
  <g transform="matrix(1.0, 0.0, 0.0, 1.0, 19.25, 9.9)">
    <path d="M8.8 -0.2 L8.85 -0.2 9.35 0.2 8.8 -0.2" fill="#d6baba" fill-rule="evenodd" stroke="none"/>
    <path d="M-8.5 -4.65 L-8.4 -4.75 -8.2 -4.85 -8.5 -4.65 M-4.25 1.45 L-4.35 1.5 -7.35 3.4 -7.4 3.45 -7.35 3.4 -4.3 1.5 -4.25 1.45" fill="#6bb6ad" fill-rule="evenodd" stroke="none"/>
    <path d="M-6.45 -4.3 L-5.6 -4.5 Q-3.7 -4.75 -3.7 -3.85 -3.7 -3.75 -4.9 -3.2 -6.2 -2.6 -6.85 -2.6 -7.3 -2.6 -7.45 -2.9 L-7.55 -3.25 Q-7.55 -4.0 -6.45 -4.3" fill="#ffffcc" fill-rule="evenodd" stroke="none"/>
    <path d="M-7.45 -2.9 L-8.0 -2.15 -8.25 -0.5 Q-8.25 1.5 -6.95 1.5 L-4.25 1.45 -3.35 0.9 -0.85 -0.55 Q0.75 -1.1 6.7 -0.55 L8.8 -0.2 9.35 0.2 9.85 0.6 11.85 1.9 14.95 3.3 9.15 2.45 3.35 2.0 Q1.55 2.2 -0.15 2.75 -1.85 3.35 -3.35 4.35 L-7.65 7.3 -8.7 7.25 -10.4 6.9 -11.65 6.4 -13.35 5.4 Q-15.45 3.85 -16.55 1.65 L-16.9 0.8 -17.1 0.25 Q-17.95 -1.95 -18.25 -4.25 L-16.4 -5.05 Q-14.05 -6.25 -11.45 -6.75 L-7.85 -7.1 -7.25 -7.15 -5.95 -7.05 -4.75 -6.9 -5.95 -5.1 -6.45 -4.3 Q-7.55 -4.0 -7.55 -3.25 L-7.45 -2.9 M-8.5 -4.65 L-8.2 -4.85 -8.4 -4.75 -8.5 -4.65 M-4.25 1.45 L-4.3 1.5 -7.35 3.4 -7.4 3.45 -7.35 3.4 -4.35 1.5 -4.25 1.45" fill="#58746d" fill-rule="evenodd" stroke="none"/>
    <path d="M8.8 -0.2 L6.7 -0.55 Q0.75 -1.1 -0.85 -0.55 L-3.35 0.9 -4.25 1.45 -6.95 1.5 Q-8.25 1.5 -8.25 -0.5 L-8.0 -2.15 -7.45 -2.9 Q-7.3 -2.6 -6.85 -2.6 -6.2 -2.6 -4.9 -3.2 -3.7 -3.75 -3.7 -3.85 -3.7 -4.75 -5.6 -4.5 L-6.45 -4.3 -5.95 -5.1 -4.75 -6.9 -1.45 -6.25 Q1.1 -5.6 3.4 -4.15 L7.65 -1.1 8.8 -0.2" fill="url(#gradient0)" fill-rule="evenodd" stroke="none"/>
    <path d="M8.8 -0.2 L7.65 -1.1 3.4 -4.15 Q1.1 -5.6 -1.45 -6.25 L-4.75 -6.9 -5.95 -7.05 -7.25 -7.15 -7.85 -7.1 -11.45 -6.75 Q-14.05 -6.25 -16.4 -5.05 L-18.25 -4.25 M9.35 0.2 L9.85 0.6 11.85 1.9 14.95 3.3 9.15 2.45 3.35 2.0 Q1.55 2.2 -0.15 2.75 -1.85 3.35 -3.35 4.35 L-7.65 7.3 M9.35 0.2 L8.8 -0.2" fill="none" stroke="#660000" stroke-linecap="round" stroke-linejoin="round" stroke-opacity="0.49803922" stroke-width="1"/>
    <path d="M-5.3 -5.8 L-3.65 -5.85 -1.9 -5.95 Q-0.5 -6.0 0.7 -5.4 L2.0 -4.6 Q2.45 -4.3 2.9 -4.15 L4.85 -3.5 7.4 -2.85 5.4 -2.8 4.8 -2.75 3.75 -2.6 3.7 -2.6 2.55 -2.65 Q-0.6 -2.65 -3.3 -4.25 -4.55 -5.05 -5.3 -5.8 M10.0 0.95 L9.25 0.7 7.1 0.4 Q5.85 0.2 5.85 -0.65 L5.85 -0.9 Q7.55 -0.5 9.15 0.25 L10.2 0.6 13.15 1.2 10.75 1.2 10.0 0.95 M-15.85 -3.95 L-15.1 -4.55 -14.45 -5.05 -11.75 -6.7 -10.85 -7.2 Q-8.25 -8.45 -5.45 -8.9 L-5.6 -8.75 -7.55 -7.2 -8.3 -6.5 -8.75 -5.75 -11.1 -4.55 Q-12.9 -3.7 -13.9 -3.65 L-13.95 -3.65 -14.15 -3.65 -15.85 -3.95" fill="#dcf5ba" fill-rule="evenodd" stroke="none"/>
    <path d="M-5.3 -5.8 L-3.65 -5.85 -1.9 -5.95 Q-0.5 -6.0 0.7 -5.4 L2.0 -4.6 Q2.45 -4.3 2.9 -4.15 L4.85 -3.5 7.4 -2.85 5.4 -2.8 4.8 -2.75 3.75 -2.6 3.7 -2.6 M5.85 -0.9 Q7.55 -0.5 9.15 0.25 L10.2 0.6 13.15 1.2 10.75 1.2 10.0 0.95 M-15.85 -3.95 L-15.1 -4.55 -14.45 -5.05 -11.75 -6.7 -10.85 -7.2 Q-8.25 -8.45 -5.45 -8.9 L-5.6 -8.75 -7.55 -7.2 -8.3 -6.5 -8.75 -5.75" fill="none" stroke="#660000" stroke-linecap="round" stroke-linejoin="round" stroke-opacity="0.49803922" stroke-width="1"/>
  </g>
  <defs>
    <radialGradient cx="0" cy="0" gradientTransform="matrix(0.0107, 0.0, 0.0, 0.0062, -0.75, -3.9)" gradientUnits="userSpaceOnUse" id="gradient0" r="819.2" spreadMethod="pad">
      <stop offset="0.0" stop-color="#9ecf9e"></stop>
      <stop offset="1.0" stop-color="#68a88d"></stop>
    </radialGradient>
  </defs>
</svg>