<?xml version="1.0" encoding="UTF-8" standalone="no"?>
<svg xmlns:xlink="http://www.w3.org/1999/xlink" height="28.35px" width="33.3px" xmlns="http://www.w3.org/2000/svg">
  <g transform="matrix(1.0, 0.0, 0.0, 1.0, 0.9, 1)">
    <path d="M29.4 10.75 Q26.55 8.55 22.1 9.2 L22.05 9.2 19.3 9.9 17.8 10.85 17.75 10.9 17.25 11.55 17.25 11.9 17.3 12.25 17.65 12.35 19.0 12.8 21.65 13.4 22.1 13.4 23.9 12.9 25.95 12.2 29.45 10.75 29.4 10.75 M20.75 8.15 L20.65 8.65 21.4 8.2 Q22.4 7.65 23.95 7.85 25.15 8.05 26.75 8.7 28.65 9.5 31.4 10.85 31.3 11.15 29.0 11.65 26.55 12.2 25.95 12.65 L22.25 14.15 22.2 14.15 18.55 13.45 17.0 12.85 16.6 12.7 16.0 13.35 16.05 13.5 16.15 15.4 16.15 17.3 15.2 20.5 14.65 21.9 Q13.55 24.6 13.1 26.35 12.55 25.65 11.6 22.5 10.65 19.45 10.65 18.7 10.65 17.95 11.15 16.95 9.5 17.6 7.8 17.6 L6.3 17.55 0.1 13.45 3.55 13.55 5.8 13.55 Q6.1 13.05 8.05 11.75 L9.95 10.5 Q8.1 10.4 6.85 6.75 6.0 4.2 5.8 1.6 L7.4 2.25 Q11.05 3.6 13.45 4.85 L14.85 5.65 Q16.15 6.45 16.7 7.55 L17.0 6.4 Q17.35 5.25 18.25 3.35 L19.95 0.0 20.5 3.2 20.7 6.6 20.75 8.15 M18.65 9.85 L19.1 9.55 19.55 9.25 20.05 7.7 20.1 6.6 19.65 2.45 19.5 2.25 19.5 2.2 17.75 6.45 17.5 7.2 Q16.95 9.0 17.6 10.6 L18.65 9.85 M13.8 5.9 Q11.4 3.85 6.7 2.7 L6.5 2.75 7.8 6.65 8.3 7.7 Q9.15 9.15 10.6 10.15 L11.0 9.9 11.8 9.6 Q13.0 9.35 14.05 10.6 L15.75 12.5 15.85 12.5 Q16.0 11.95 16.75 11.3 L16.6 10.75 Q16.05 8.7 15.2 7.45 L13.8 5.9 M15.15 12.95 Q13.45 10.4 11.95 10.2 L11.8 10.2 Q11.15 10.8 8.7 12.45 6.4 14.05 6.05 14.4 L2.0 14.1 Q2.9 14.75 4.35 15.6 L4.8 15.85 Q6.65 16.85 7.1 16.85 9.3 16.85 12.05 15.25 12.55 14.9 12.95 14.65 L15.2 13.0 15.15 12.95 M13.05 24.5 L13.15 24.5 Q13.8 22.3 14.4 20.75 L15.15 18.8 16.0 13.55 16.0 13.35 15.2 14.15 14.45 14.75 14.4 14.8 13.2 15.8 12.5 16.3 Q11.35 17.75 11.35 18.95 L12.15 21.6 13.05 24.5" fill="#95a83a" fill-rule="evenodd" stroke="none"/>
    <path d="M17.8 10.85 L19.3 9.9 22.05 9.2 22.1 9.2 Q26.55 8.55 29.4 10.75 L27.85 10.55 26.25 10.65 25.8 10.7 22.15 10.3 21.85 10.3 Q22.1 10.55 23.95 11.6 L20.85 12.15 20.6 12.15 19.25 11.45 19.05 11.35 17.8 10.85 M18.65 9.85 L18.65 9.8 18.85 9.15 19.1 7.85 19.05 7.85 18.5 8.65 18.35 8.85 18.45 8.55 18.9 7.0 18.9 5.25 19.25 3.35 19.5 2.25 19.65 2.45 20.1 6.6 20.05 7.7 19.55 9.25 19.1 9.55 18.65 9.85 M13.8 5.9 L13.95 6.5 15.05 10.4 15.0 10.4 12.7 7.9 11.1 6.7 10.15 6.05 10.95 7.05 11.3 7.55 11.5 7.95 11.45 8.05 10.95 8.25 10.15 8.4 Q9.3 8.4 8.4 7.75 L8.3 7.7 7.8 6.65 6.5 2.75 6.7 2.7 Q11.4 3.85 13.8 5.9 M4.35 15.6 L6.25 14.95 Q8.0 13.95 9.9 13.35 L7.85 15.6 10.9 13.3 Q11.2 13.05 12.55 12.95 L14.5 12.9 15.15 12.95 15.2 13.0 12.95 14.65 Q12.55 14.9 12.05 15.25 9.3 16.85 7.1 16.85 6.65 16.85 4.8 15.85 L4.35 15.6 M14.45 14.75 L15.2 14.15 16.0 13.35 16.0 13.55 15.15 18.8 14.4 20.75 Q13.8 22.3 13.15 24.5 L13.05 24.5 12.65 20.75 13.6 17.45 13.7 17.0 13.55 17.25 12.9 18.1 Q12.65 17.65 13.35 16.4 L13.8 15.7 14.45 14.75" fill="#f2ffb6" fill-rule="evenodd" stroke="none"/>
    <path d="M17.8 10.85 L19.05 11.35 19.25 11.45 20.6 12.15 20.85 12.15 23.95 11.6 Q22.1 10.55 21.85 10.3 L22.15 10.3 25.8 10.7 26.25 10.65 27.85 10.55 29.4 10.75 29.45 10.75 25.95 12.2 23.9 12.9 22.1 13.4 21.65 13.4 19.0 12.8 17.65 12.35 17.3 12.25 17.25 11.9 17.25 11.55 17.75 10.9 17.8 10.85 M19.5 2.25 L19.25 3.35 18.9 5.25 18.9 7.0 18.45 8.55 18.35 8.85 18.5 8.65 19.05 7.85 19.1 7.85 18.85 9.15 18.65 9.8 18.65 9.85 17.6 10.6 Q16.95 9.0 17.5 7.2 L17.75 6.45 19.5 2.2 19.5 2.25 M8.3 7.7 L8.4 7.75 Q9.3 8.4 10.15 8.4 L10.95 8.25 11.45 8.05 11.5 7.95 11.3 7.55 10.95 7.05 10.15 6.05 11.1 6.7 12.7 7.9 15.0 10.4 15.05 10.4 13.95 6.5 13.8 5.9 15.2 7.45 Q16.05 8.7 16.6 10.75 L16.75 11.3 Q16.0 11.95 15.85 12.5 L15.75 12.5 14.05 10.6 Q13.0 9.35 11.8 9.6 L11.0 9.9 10.6 10.15 Q9.15 9.15 8.3 7.7 M4.35 15.6 Q2.9 14.75 2.0 14.1 L6.05 14.4 Q6.4 14.05 8.7 12.45 11.15 10.8 11.8 10.2 L11.95 10.2 Q13.45 10.4 15.15 12.95 L14.5 12.9 12.55 12.95 Q11.2 13.05 10.9 13.3 L7.85 15.6 9.9 13.35 Q8.0 13.95 6.25 14.95 L4.35 15.6 M14.45 14.75 L13.8 15.7 13.35 16.4 Q12.65 17.65 12.9 18.1 L13.55 17.25 13.7 17.0 13.6 17.45 12.65 20.75 13.05 24.5 12.15 21.6 11.35 18.95 Q11.35 17.75 12.5 16.3 L13.2 15.8 14.4 14.8 14.45 14.75" fill="#bad05b" fill-rule="evenodd" stroke="none"/>
  </g>
</svg>