<?xml version="1.0" encoding="UTF-8" standalone="no"?>
<svg xmlns:xlink="http://www.w3.org/1999/xlink" height="7.45px" width="6px" xmlns="http://www.w3.org/2000/svg">
  <g transform="matrix(1.0, 0.0, 0.0, 1.0, 1, 1)">
    <path d="M3.75 0.2 L3.75 0.75 3.45 3.9 2.7 2.5 2.3 1.3 Q2.3 1.0 2.6 0.5 2.95 0.0 3.3 0.0 L3.75 0.2 M2.05 4.2 Q2.05 3.7 1.1 3.7 L0.55 3.75 0.45 4.0 Q0.45 4.2 1.15 4.4 L1.95 4.6 2.05 4.2 M2.5 4.35 L2.25 4.15 2.2 4.35 2.25 4.7 2.5 4.7 2.95 4.55 2.5 4.7 2.25 4.7 2.2 4.35 2.25 4.15 2.5 4.35 M3.3 5.35 L2.2 5.45 0.55 5.35 Q0.0 5.25 0.0 4.75 L0.3 4.0 0.85 3.45 1.0 3.4 1.45 3.45 Q2.5 3.45 2.95 4.55 L3.4 4.4 3.35 5.15 3.3 5.35" fill="#e09576" fill-rule="evenodd" stroke="none"/>
    <path d="M2.05 4.2 L1.95 4.6 1.15 4.4 Q0.45 4.2 0.45 4.0 L0.55 3.75 1.1 3.7 Q2.05 3.7 2.05 4.2" fill="#f3c4a5" fill-rule="evenodd" stroke="none"/>
    <path d="M4.0 0.3 L3.75 0.2 3.75 0.75 M3.45 3.9 L3.4 4.4 3.85 4.2 M3.75 0.2 L3.3 0.0 Q2.95 0.0 2.6 0.5 2.3 1.0 2.3 1.3 L2.7 2.5 3.45 3.9 M2.95 4.55 L2.5 4.7 2.25 4.7 2.2 4.35 2.25 4.15 2.5 4.35 M3.3 5.35 L2.2 5.45 0.55 5.35 Q0.0 5.25 0.0 4.75 L0.3 4.0 0.85 3.45 1.0 3.4 1.45 3.45 Q2.5 3.45 2.95 4.55 L3.4 4.4" fill="none" stroke="#4d3f1c" stroke-linecap="round" stroke-linejoin="round" stroke-width="1"/>
  </g>
</svg>