<?xml version="1.0" encoding="UTF-8" standalone="no"?>
<svg xmlns:xlink="http://www.w3.org/1999/xlink" height="24.15px" width="16.4px" xmlns="http://www.w3.org/2000/svg">
  <g transform="matrix(1.0, 0.0, 0.0, 1.0, 0.25, 0.95)">
    <path d="M12.95 1.35 L13.25 1.6 13.3 1.5 13.0 1.25 12.95 1.35 M9.65 3.3 Q9.4 2.6 9.9 1.7 L8.75 1.7 9.65 1.2 Q10.3 0.75 10.75 0.9 L10.1 0.25 10.7 0.4 11.85 0.25 12.6 0.25 12.55 0.75 13.5 0.05 13.15 1.1 14.4 1.95 13.5 1.85 Q13.85 2.3 13.85 3.0 L13.85 3.5 13.55 3.1 13.4 2.85 13.4 2.7 13.35 2.35 12.75 1.7 12.55 2.25 12.15 2.85 11.85 3.0 11.8 3.0 11.9 2.8 12.0 2.3 12.0 1.9 11.3 2.3 10.8 2.5 10.75 2.5 10.45 4.0 10.45 3.95 10.15 3.05 9.8 3.15 9.75 3.2 9.65 3.3 M11.05 2.1 L10.8 2.4 10.75 2.5 10.8 2.4 11.05 2.1 M12.75 1.7 L13.0 1.25 12.75 1.7 M11.5 1.25 L11.35 1.9 11.45 1.9 11.65 1.75 11.85 1.55 12.25 1.75 12.5 1.75 12.5 1.5 12.45 1.3 12.25 1.25 12.1 1.45 11.9 1.35 11.6 1.6 11.65 1.3 11.5 1.25 M10.75 1.4 L10.45 1.65 10.5 1.55 10.5 1.25 10.35 1.25 10.35 1.15 10.15 1.15 Q10.05 1.15 9.7 1.4 L9.7 1.5 9.75 1.55 Q9.95 1.3 10.1 1.3 L10.15 1.3 10.1 1.65 10.3 1.6 10.3 2.05 10.5 1.9 10.5 2.0 10.8 1.85 Q11.05 1.55 11.2 1.5 L11.2 1.4 10.75 1.4 M10.25 2.25 L10.1 2.25 10.05 2.5 10.1 2.55 10.25 2.45 10.25 2.25" fill="#188156" fill-rule="evenodd" stroke="none"/>
    <path d="M10.45 4.0 L10.75 2.5 10.8 2.5 11.3 2.3 12.0 1.9 12.0 2.3 11.9 2.8 11.4 2.7 11.1 2.6 10.7 3.35 10.45 4.05 10.45 4.0 M13.4 2.7 L13.0 2.25 12.5 2.85 12.5 2.95 12.15 2.85 12.5 2.95 12.3 3.15 12.25 3.15 12.1 3.2 11.45 3.3 11.45 3.05 11.4 2.7 11.9 2.8 11.8 3.0 11.85 3.0 12.15 2.85 12.55 2.25 12.75 1.7 13.35 2.35 13.4 2.7 M11.65 4.55 L11.85 4.45 11.9 4.45 12.15 4.4 12.3 4.4 12.3 4.35 12.5 4.6 12.5 4.75 12.45 4.8 12.3 4.85 12.15 4.9 11.95 4.9 11.45 4.75 11.45 4.65 11.65 4.55 12.3 4.65 12.3 4.4 12.3 4.65 11.65 4.55 M10.15 3.95 L10.25 4.1 10.3 4.3 10.7 4.7 10.7 4.75 10.6 5.0 10.6 5.1 10.8 5.35 10.9 5.35 11.1 5.45 12.05 5.6 12.25 5.55 12.9 5.35 13.0 5.3 13.15 5.1 13.15 5.05 13.2 5.0 13.15 5.1 13.05 5.35 12.9 5.4 12.9 5.5 12.9 5.65 12.9 5.8 13.2 6.35 13.55 7.25 13.45 7.95 Q13.3 8.35 13.45 9.1 L14.0 9.2 14.25 9.5 14.2 9.85 13.85 10.85 14.2 9.85 14.25 9.5 14.3 9.95 Q14.3 10.85 13.95 10.85 L13.85 10.85 Q13.6 10.85 13.25 10.55 L12.9 10.15 13.05 10.2 12.9 10.15 12.85 10.15 12.85 10.1 12.4 9.85 11.65 9.3 11.4 8.55 12.0 8.7 Q11.95 7.95 12.15 7.35 L11.9 7.3 11.8 7.3 11.5 7.5 10.75 7.75 Q9.4 7.75 9.1 6.4 L9.05 6.05 8.75 7.7 8.8 8.25 8.85 8.2 9.05 8.15 9.1 8.2 9.6 8.3 10.1 8.35 10.05 8.4 9.75 8.75 9.6 9.15 9.75 9.5 9.65 9.5 9.35 9.55 8.9 9.65 8.8 10.05 7.7 10.9 Q7.25 11.05 6.2 10.4 5.2 9.75 4.5 8.6 L4.45 8.5 4.4 8.45 4.3 8.4 4.15 8.05 4.6 7.7 5.25 7.5 5.55 7.45 5.9 7.55 5.7 7.1 5.6 6.85 5.7 6.8 Q5.95 6.8 6.1 7.75 L6.0 8.0 5.95 8.2 5.8 8.45 6.2 8.7 7.2 9.3 7.25 9.2 7.25 8.85 7.65 7.85 7.8 7.55 7.95 6.4 Q8.05 5.95 8.5 5.55 L8.55 5.5 Q8.7 5.35 8.8 5.3 L9.2 5.05 9.35 5.0 9.6 5.0 9.9 5.0 10.0 4.65 9.95 4.65 9.75 4.35 9.65 4.05 9.75 3.65 9.85 3.6 10.0 3.5 10.05 3.5 10.1 3.5 10.1 3.55 10.15 3.95 M13.0 11.8 L12.95 12.2 12.0 11.55 11.25 11.35 11.45 10.95 13.0 11.8 M12.65 14.4 L12.55 14.5 12.25 14.85 Q11.8 15.3 11.25 15.3 L11.55 16.65 11.1 17.95 10.7 18.7 10.55 19.25 10.75 19.95 10.75 21.2 Q10.8 21.65 10.4 21.9 L10.05 21.8 9.4 21.9 9.15 22.2 8.65 22.2 8.6 22.2 8.55 22.2 8.4 22.2 7.85 22.15 7.3 22.05 7.15 21.95 6.75 21.55 6.95 21.35 7.1 21.5 7.3 21.6 7.4 21.65 7.7 21.65 7.85 21.65 8.05 21.65 8.7 21.5 9.4 21.25 10.1 20.7 Q10.1 20.35 8.7 20.35 L8.45 20.4 8.9 17.25 8.8 15.3 8.7 14.8 8.45 13.5 8.5 13.25 8.55 12.95 8.95 12.85 9.45 13.25 9.6 13.85 9.7 13.85 9.8 13.5 10.1 13.0 10.7 13.9 10.75 13.35 10.75 13.15 10.55 12.15 10.6 12.15 Q12.3 12.5 12.5 13.4 L12.65 14.4 M7.7 14.4 L5.6 14.4 5.2 16.35 Q4.6 18.2 4.75 19.0 L1.2 18.35 0.85 18.05 0.75 17.9 0.85 17.55 1.0 17.75 1.35 18.0 1.5 18.05 2.2 18.2 Q2.7 18.2 2.95 17.85 L3.05 17.9 3.55 16.8 Q4.0 15.45 4.0 13.55 L4.0 13.45 4.25 13.45 4.5 13.4 5.5 12.9 6.2 12.05 6.1 11.85 6.2 11.85 6.35 11.9 6.4 11.9 Q7.05 12.2 7.3 13.4 L7.4 13.9 7.7 14.4 M10.0 4.65 L10.05 4.65 10.05 4.75 10.3 5.2 10.35 5.3 10.45 5.35 Q10.8 5.7 11.65 5.7 L12.0 5.7 11.65 5.7 Q10.8 5.7 10.45 5.35 L10.35 5.3 10.3 5.2 10.05 4.75 10.05 4.65 10.0 4.65 M9.4 5.8 Q9.4 6.35 9.75 6.7 L10.6 7.15 Q11.25 7.15 11.55 6.7 L12.0 5.7 12.15 5.7 12.8 5.5 12.15 5.7 12.0 5.7 11.55 6.7 Q11.25 7.15 10.6 7.15 L9.75 6.7 Q9.4 6.35 9.4 5.8 L8.95 5.55 9.4 5.8 9.4 5.55 9.6 5.0 9.4 5.55 9.4 5.8 10.05 6.2 9.4 5.8 M12.9 5.5 L12.8 5.5 12.9 5.5 M12.8 5.5 L12.9 5.4 12.8 5.5 M12.6 7.1 L12.9 7.4 13.2 7.65 13.15 8.85 13.2 7.65 12.9 7.4 12.6 7.1 M13.05 10.2 L13.2 10.3 13.25 10.3 13.15 8.85 13.15 9.1 13.05 10.2 M12.8 8.1 L12.0 8.7 12.8 8.1 M10.7 8.65 L10.9 8.6 11.45 8.95 11.65 9.75 11.45 10.15 11.0 10.15 Q10.75 10.15 10.35 9.85 L9.9 9.4 10.15 9.0 10.4 8.85 10.75 8.7 10.7 8.65 M10.6 6.25 L12.0 5.7 10.6 6.25 M4.5 8.6 L4.65 8.75 4.75 8.75 4.9 8.75 5.1 8.7 5.45 8.55 5.7 8.45 5.8 8.45 5.7 8.45 5.45 8.55 5.1 8.7 4.9 8.75 4.75 8.75 4.65 8.75 4.5 8.6 M8.15 7.0 L7.8 7.55 8.15 7.0 M8.8 8.25 L8.85 8.75 8.8 8.25 M7.85 9.45 Q8.1 9.45 8.35 9.15 L8.85 8.75 8.35 9.15 Q8.1 9.45 7.85 9.45 M8.85 8.75 L8.9 9.15 8.9 9.65 8.9 9.15 8.85 8.75 M9.1 8.2 L8.85 8.2 9.1 8.2 M5.25 7.5 L5.7 8.45 5.25 7.5 M6.0 8.0 L6.0 7.9 5.9 7.55 6.0 7.9 6.0 8.0 M5.1 8.7 L4.6 7.7 5.1 8.7 M9.5 14.35 L9.7 13.85 9.5 14.35 M1.2 18.35 L1.5 18.05 1.2 18.35 M1.0 17.75 L0.9 17.85 0.85 18.05 0.9 17.85 1.0 17.75 M4.3 18.35 L4.4 17.7 4.3 18.35 M8.55 22.2 L8.5 21.9 8.7 21.5 8.5 21.9 8.55 22.2 M7.85 21.65 L7.8 21.9 7.85 22.15 7.8 21.9 7.85 21.65 M7.3 22.05 L7.25 21.75 7.3 21.6 7.25 21.75 7.3 22.05 M10.35 19.95 L10.5 20.5 10.35 20.95 10.5 20.5 10.35 19.95 M10.75 13.35 L11.2 15.05 11.25 15.3 11.2 15.05 10.75 13.35" fill="#e09576" fill-rule="evenodd" stroke="none"/>
    <path d="M9.65 3.3 L9.75 3.2 9.7 3.35 9.95 3.35 10.0 3.2 9.8 3.15 10.15 3.05 10.45 3.95 10.45 4.0 10.45 4.05 10.7 3.35 11.1 2.6 11.4 2.7 11.45 3.05 11.45 3.3 12.1 3.2 12.25 3.15 12.3 3.15 12.5 2.95 12.5 2.85 13.0 2.25 13.4 2.7 13.4 2.85 13.35 3.0 13.15 3.65 13.15 4.45 13.0 4.65 13.0 4.75 13.0 5.0 13.0 5.3 13.0 5.0 13.0 4.75 13.0 4.65 13.15 4.45 13.15 5.05 13.15 5.1 13.85 5.5 14.6 6.3 Q14.95 6.8 15.0 7.8 L15.0 7.9 15.15 8.9 15.0 9.75 14.9 10.7 Q14.8 11.75 14.4 11.95 L14.4 12.0 14.2 12.0 14.15 12.0 13.0 11.8 11.45 10.95 11.25 10.85 9.75 9.5 11.25 10.85 11.45 10.95 11.25 11.35 9.3 10.95 8.85 10.95 8.6 10.95 8.7 10.6 8.8 10.05 8.9 9.65 9.35 9.55 9.65 9.5 9.75 9.5 9.6 9.15 9.75 8.75 10.15 9.0 9.75 8.75 10.05 8.4 10.1 8.35 9.6 8.3 9.1 8.2 9.05 8.15 8.85 8.2 8.8 8.25 8.75 7.7 9.05 6.05 9.1 6.4 Q9.4 7.75 10.75 7.75 L11.5 7.5 11.8 7.3 11.9 7.3 12.15 7.35 Q11.95 7.95 12.0 8.7 L11.4 8.55 11.65 9.3 12.4 9.85 12.85 10.1 12.85 10.15 12.9 10.15 13.25 10.55 Q13.6 10.85 13.85 10.85 L13.95 10.85 Q14.3 10.85 14.3 9.95 L14.25 9.5 14.0 9.2 13.45 9.1 Q13.3 8.35 13.45 7.95 L13.55 7.25 13.2 6.35 12.9 5.8 12.9 5.65 12.9 5.5 12.9 5.4 13.05 5.35 13.15 5.1 13.0 5.3 12.9 5.35 12.25 5.55 12.05 5.6 11.1 5.45 10.9 5.35 10.8 5.35 10.6 5.1 10.6 5.0 10.7 4.75 10.7 4.7 10.3 4.3 10.25 4.1 10.15 3.95 10.1 3.55 10.1 3.5 10.05 3.5 10.0 3.5 9.85 3.6 9.75 3.65 9.65 4.05 9.75 4.35 9.95 4.65 9.75 4.55 Q9.45 4.35 9.45 3.95 L9.65 3.3 M11.35 3.95 Q11.45 4.15 11.8 4.15 12.5 4.15 12.6 3.75 L12.5 2.95 12.6 3.75 Q12.5 4.15 11.8 4.15 11.45 4.15 11.35 3.95 M11.85 4.45 L11.65 4.55 11.45 4.65 11.45 4.75 11.95 4.9 11.4 5.0 11.35 5.05 11.45 5.2 11.7 5.15 11.7 5.05 12.35 5.1 12.5 4.9 12.15 4.9 12.3 4.85 12.45 4.8 12.5 4.75 12.5 4.6 12.3 4.35 12.3 4.4 12.15 4.4 11.9 4.45 11.95 4.4 11.95 4.3 11.75 4.3 11.7 4.4 11.7 4.45 11.85 4.45 M6.95 21.35 L7.3 21.1 Q7.85 20.85 8.35 20.75 L8.45 20.4 8.7 20.35 Q10.1 20.35 10.1 20.7 L9.4 21.25 8.7 21.5 8.05 21.65 7.85 21.65 7.7 21.65 7.4 21.65 7.3 21.6 7.1 21.5 6.95 21.35 M0.85 17.55 L0.9 17.55 1.25 17.55 1.65 17.55 2.55 17.7 2.85 17.8 2.9 17.85 2.95 17.85 Q2.7 18.2 2.2 18.2 L1.5 18.05 1.35 18.0 1.0 17.75 0.85 17.55 M4.0 13.45 L3.95 12.9 4.0 12.8 4.2 12.5 Q4.6 11.75 5.05 11.75 L5.45 11.8 6.1 11.85 6.2 12.05 5.5 12.9 4.5 13.4 4.25 13.45 4.0 13.45 M4.15 8.05 L4.0 7.75 3.85 7.4 4.45 6.8 Q4.95 6.45 5.2 6.45 L5.3 6.55 5.6 6.85 5.7 7.1 5.9 7.55 5.55 7.45 5.25 7.5 4.6 7.7 4.15 8.05 M11.1 4.2 L10.9 3.9 10.7 4.15 10.85 4.3 11.1 4.3 11.1 4.2 M14.4 8.9 L14.25 9.5 14.4 8.9 M14.15 6.35 L14.15 6.25 Q13.75 5.85 13.75 6.3 L13.8 6.35 Q14.0 6.2 14.05 6.4 L14.15 6.35 M11.1 8.4 L11.1 8.3 10.7 8.1 Q10.6 8.45 10.95 8.45 L11.1 8.4 M10.7 8.65 L10.45 8.45 10.25 8.25 10.7 8.05 Q11.0 8.05 11.3 8.45 L11.4 8.55 11.3 8.45 Q11.0 8.05 10.7 8.05 L10.25 8.25 10.45 8.45 10.7 8.65 10.75 8.7 10.4 8.85 10.15 9.0 9.9 9.4 10.35 9.85 Q10.75 10.15 11.0 10.15 L11.45 10.15 11.65 9.75 11.45 8.95 10.9 8.6 10.7 8.65 M14.2 12.0 L14.4 11.95 14.2 12.0 M10.25 8.25 L10.1 8.35 10.25 8.25 M10.1 10.45 L9.5 10.35 10.1 10.45 M8.85 10.95 L9.0 10.65 9.35 9.55 9.0 10.65 8.85 10.95 M9.65 12.3 L9.5 12.3 9.5 12.55 9.8 12.85 10.05 12.85 10.1 12.65 9.9 12.5 9.65 12.3 M10.1 13.0 L9.8 13.5 9.7 13.85 9.6 13.85 9.45 13.25 8.95 12.85 8.55 12.95 8.65 12.6 Q8.85 11.8 10.55 12.15 L10.75 13.15 10.75 13.35 10.7 13.9 10.1 13.0 M5.05 12.55 L4.5 13.4 5.05 12.55 M1.25 17.55 L1.0 17.75 1.25 17.55" fill="#f3c4a5" fill-rule="evenodd" stroke="none"/>
    <path d="M12.15 4.9 L12.5 4.9 12.35 5.1 11.7 5.05 11.7 5.0 11.4 5.0 11.95 4.9 12.15 4.9" fill="#ffffff" fill-rule="evenodd" stroke="none"/>
    <path d="M12.95 12.2 L12.95 12.25 13.05 12.65 Q13.05 13.65 12.65 14.4 L12.5 13.4 Q12.3 12.5 10.6 12.15 L10.55 12.15 Q8.85 11.8 8.65 12.6 L8.55 12.95 8.5 13.25 8.45 13.5 8.7 14.8 8.35 14.8 8.25 14.75 8.05 14.65 7.8 14.55 7.7 14.4 7.4 13.9 7.3 13.4 Q7.05 12.2 6.4 11.9 L7.95 11.95 Q8.3 11.75 8.5 11.15 L8.6 10.95 8.85 10.95 9.3 10.95 11.25 11.35 12.0 11.55 12.95 12.2" fill="#e07d7d" fill-rule="evenodd" stroke="none"/>
    <path d="M12.95 1.35 L13.0 1.25 13.3 1.5 13.25 1.6 12.95 1.35 M10.25 2.25 L10.25 2.45 10.1 2.55 10.05 2.5 10.1 2.25 10.25 2.25 M10.75 1.4 L11.2 1.4 11.2 1.5 Q11.05 1.55 10.8 1.85 L10.5 2.0 10.5 1.9 10.3 2.05 10.3 1.6 10.1 1.65 10.15 1.3 10.1 1.3 Q9.95 1.3 9.75 1.55 L9.7 1.5 9.7 1.4 Q10.05 1.15 10.15 1.15 L10.35 1.15 10.35 1.25 10.5 1.25 10.5 1.55 10.45 1.65 10.75 1.4 M11.5 1.25 L11.65 1.3 11.6 1.6 11.9 1.35 12.1 1.45 12.25 1.25 12.45 1.3 12.5 1.5 12.5 1.75 12.25 1.75 11.85 1.55 11.65 1.75 11.45 1.9 11.35 1.9 11.5 1.25" fill="#36bb85" fill-rule="evenodd" stroke="none"/>
    <path d="M9.75 3.2 L9.8 3.15 10.0 3.2 9.95 3.35 9.7 3.35 9.75 3.2 M11.9 4.45 L11.85 4.45 11.7 4.45 11.7 4.4 11.75 4.3 11.95 4.3 11.95 4.4 11.9 4.45 M11.1 4.2 L11.1 4.3 10.85 4.3 10.7 4.15 10.9 3.9 11.1 4.2 M11.4 5.0 L11.7 5.0 11.7 5.05 11.4 5.0 11.7 5.05 11.7 5.15 11.45 5.2 11.35 5.05 11.4 5.0 M14.15 6.35 L14.05 6.4 Q14.0 6.2 13.8 6.35 L13.75 6.3 Q13.75 5.85 14.15 6.25 L14.15 6.35 M11.1 8.4 L10.95 8.45 Q10.6 8.45 10.7 8.1 L11.1 8.3 11.1 8.4 M9.65 12.3 L9.9 12.5 10.1 12.65 10.05 12.85 9.8 12.85 9.5 12.55 9.5 12.3 9.65 12.3" fill="#ffe4d2" fill-rule="evenodd" stroke="none"/>
    <path d="M13.4 2.85 L13.55 3.1 13.85 3.5 13.85 3.0 Q13.85 2.3 13.5 1.85 L14.4 1.95 13.15 1.1 13.5 0.05 12.55 0.75 12.6 0.25 11.85 0.25 10.7 0.4 10.1 0.25 10.75 0.9 Q10.3 0.75 9.65 1.2 L8.75 1.7 9.9 1.7 Q9.4 2.6 9.65 3.3 L9.75 3.2 9.8 3.15 10.15 3.05 10.45 3.95 M10.45 4.0 L10.75 2.5 10.8 2.4 11.05 2.1 M13.4 2.85 L13.4 2.7 13.35 2.35 12.75 1.7 12.55 2.25 12.15 2.85 11.85 3.0 11.8 3.0 11.9 2.8 12.0 2.3 12.0 1.9 11.3 2.3 10.8 2.5 10.75 2.5 M13.0 1.25 L12.75 1.7" fill="none" stroke="#0c4830" stroke-linecap="round" stroke-linejoin="round" stroke-width="1"/>
    <path d="M13.15 4.45 L13.15 3.65 13.35 3.0 13.4 2.85 M12.5 2.95 L12.6 3.75 Q12.5 4.15 11.8 4.15 11.45 4.15 11.35 3.95 M13.15 4.45 L13.15 5.05 13.15 5.1 13.05 5.35 12.9 5.4 12.8 5.5 12.15 5.7 12.0 5.7 11.55 6.7 Q11.25 7.15 10.6 7.15 L9.75 6.7 Q9.4 6.35 9.4 5.8 L9.4 5.55 9.6 5.0 9.9 5.0 10.0 4.65 9.95 4.65 9.75 4.55 Q9.45 4.35 9.45 3.95 L9.65 3.3 M13.15 5.1 L13.85 5.5 14.6 6.3 Q14.95 6.8 15.0 7.8 L15.0 7.9 15.15 8.9 15.0 9.75 14.9 10.7 Q14.8 11.75 14.4 11.95 L14.2 12.0 14.15 12.0 13.0 11.8 12.95 12.2 M12.65 14.4 L12.55 14.5 12.25 14.85 Q11.8 15.3 11.25 15.3 L11.55 16.65 11.1 17.95 10.7 18.7 10.55 19.25 10.75 19.95 10.75 21.2 Q10.8 21.65 10.4 21.9 L10.05 21.8 9.4 21.9 9.15 22.2 8.65 22.2 8.6 22.2 8.55 22.2 8.4 22.2 7.85 22.15 7.3 22.05 7.15 21.95 6.75 21.55 6.95 21.35 7.3 21.1 Q7.85 20.85 8.35 20.75 L8.45 20.4 8.9 17.25 8.8 15.3 8.7 14.8 8.35 14.8 M7.8 14.55 L7.7 14.4 5.6 14.4 5.2 16.35 Q4.6 18.2 4.75 19.0 L1.2 18.35 0.85 18.05 0.75 17.9 0.85 17.55 0.9 17.55 1.25 17.55 1.65 17.55 2.55 17.7 2.85 17.8 2.9 17.85 2.95 17.85 3.05 17.9 3.55 16.8 Q4.0 15.45 4.0 13.55 L4.0 13.45 3.95 12.9 4.0 12.8 4.2 12.5 Q4.6 11.75 5.05 11.75 L5.45 11.8 6.1 11.85 6.2 11.85 6.35 11.9 6.4 11.9 M8.6 10.95 L8.7 10.6 8.8 10.05 7.7 10.9 Q7.25 11.05 6.2 10.4 5.2 9.75 4.5 8.6 L4.45 8.5 4.4 8.45 4.3 8.4 4.15 8.05 4.0 7.75 3.85 7.4 4.45 6.8 Q4.95 6.45 5.2 6.45 L5.3 6.55 5.6 6.85 5.7 6.8 Q5.95 6.8 6.1 7.75 L6.0 8.0 5.95 8.2 5.8 8.45 6.2 8.7 7.2 9.3 7.25 9.2 7.25 8.85 7.65 7.85 7.8 7.55 7.95 6.4 Q8.05 5.95 8.5 5.55 L8.55 5.5 Q8.7 5.35 8.8 5.3 L9.2 5.05 9.35 5.0 9.6 5.0 M12.0 5.7 L11.65 5.7 Q10.8 5.7 10.45 5.35 L10.35 5.3 10.3 5.2 10.05 4.75 10.05 4.65 10.0 4.65 M11.7 5.05 L12.35 5.1 12.5 4.9 12.15 4.9 11.95 4.9 11.4 5.0 11.7 5.05 M13.15 8.85 L13.2 7.65 12.9 7.4 12.6 7.1 M13.05 10.2 L13.15 9.1 13.15 8.85 13.25 10.3 13.2 10.3 13.05 10.2 12.9 10.15 12.85 10.15 12.85 10.1 12.4 9.85 11.65 9.3 11.4 8.55 11.3 8.45 Q11.0 8.05 10.7 8.05 L10.25 8.25 10.45 8.45 10.7 8.65 10.75 8.7 M10.15 9.0 L9.75 8.75 9.6 9.15 9.75 9.5 11.25 10.85 11.45 10.95 13.0 11.8 M10.55 12.15 L10.6 12.15 Q12.3 12.5 12.5 13.4 L12.65 14.4 M5.8 8.45 L5.7 8.45 5.45 8.55 5.1 8.7 4.9 8.75 4.75 8.75 4.65 8.75 4.5 8.6 M5.9 7.55 L5.7 7.1 5.6 6.85 M7.8 7.55 L8.15 7.0 M10.1 8.35 L10.25 8.25 M8.85 8.75 L8.8 8.25 8.75 7.7 9.05 6.05 M9.75 8.75 L10.05 8.4 10.1 8.35 M8.9 9.65 L8.9 9.15 8.85 8.75 M5.9 7.55 L6.0 7.9 6.0 8.0 M5.7 8.45 L5.25 7.5 M8.8 10.05 L8.9 9.65 M4.6 7.7 L5.1 8.7 M10.55 12.15 Q8.85 11.8 8.65 12.6 L8.55 12.95 8.5 13.25 8.45 13.5 8.7 14.8 M1.0 17.75 L1.25 17.55 M0.85 18.05 L0.9 17.85 1.0 17.75 M1.5 18.05 L1.2 18.35 M8.7 21.5 L8.5 21.9 8.55 22.2 M7.85 21.65 L8.05 21.65 M7.3 21.6 L7.4 21.65 M7.3 21.6 L7.25 21.75 7.3 22.05 M7.85 22.15 L7.8 21.9 7.85 21.65" fill="none" stroke="#4d3f1c" stroke-linecap="round" stroke-linejoin="round" stroke-width="1"/>
    <path d="M12.95 12.2 L12.95 12.25 13.05 12.65 Q13.05 13.65 12.65 14.4 M8.35 14.8 L8.25 14.75 8.05 14.65 7.8 14.55 M6.4 11.9 L7.95 11.95 Q8.3 11.75 8.5 11.15 L8.6 10.95 8.85 10.95 9.3 10.95 11.25 11.35 12.0 11.55 12.95 12.2 M7.7 14.4 L7.4 13.9 7.3 13.4 Q7.05 12.2 6.4 11.9" fill="none" stroke="#984545" stroke-linecap="round" stroke-linejoin="round" stroke-width="1"/>
    <path d="M12.15 2.85 L12.5 2.95 M11.9 2.8 L11.4 2.7 M11.65 4.55 L12.3 4.65 12.3 4.4 M10.3 4.3 L10.7 4.7 10.7 4.75 10.6 5.0 10.6 5.1 10.8 5.35 M13.0 5.3 L13.0 5.0 13.0 4.75 13.0 4.65 13.15 4.45 M9.4 5.8 L8.95 5.55 M14.25 9.5 L14.4 8.9 M12.8 5.5 L12.9 5.5 M13.85 10.85 L14.2 9.85 14.25 9.5 M12.0 8.7 L12.8 8.1 M12.0 8.7 L11.4 8.55 M12.0 5.7 L10.6 6.25 M10.05 3.5 L10.1 3.5 10.1 3.55 10.15 3.95 M9.4 5.8 L10.05 6.2 M9.1 8.2 L9.6 8.3 M8.85 8.75 L8.35 9.15 Q8.1 9.45 7.85 9.45 M8.85 8.2 L9.1 8.2 M9.5 10.35 L10.1 10.45 M9.35 9.55 L9.0 10.65 8.85 10.95 M9.7 13.85 L9.8 13.5 10.1 13.0 M9.7 13.85 L9.5 14.35 M4.5 13.4 L5.05 12.55 M4.4 17.7 L4.3 18.35 M11.25 15.3 L11.2 15.05 10.75 13.35 M10.35 20.95 L10.5 20.5 10.35 19.95" fill="none" stroke="#9a6752" stroke-linecap="round" stroke-linejoin="round" stroke-width="1"/>
  </g>
</svg>