<?xml version="1.0" encoding="UTF-8" standalone="no"?>
<svg xmlns:xlink="http://www.w3.org/1999/xlink" height="13.1px" width="13.15px" xmlns="http://www.w3.org/2000/svg">
  <g transform="matrix(1.0, 0.0, 0.0, 1.0, 6.3, 3.75)">
    <path d="M2.25 -1.95 L2.4 -1.7 0.25 -2.45 Q0.45 -3.0 1.45 -2.6 L2.25 -1.95 M2.1 -0.65 L0.2 -0.95 0.7 -1.9 1.75 -1.15 2.1 -0.65 M1.8 -0.25 Q2.35 0.0 2.4 0.7 L1.75 1.15 -0.8 1.3 -0.55 -0.15 0.0 -0.75 1.8 -0.25 M2.55 -0.8 L3.1 -0.9 4.15 -0.45 Q4.95 0.0 4.85 0.65 L3.5 0.65 3.2 0.35 2.55 -0.8 M2.7 -2.05 L3.75 -1.35 3.85 -1.15 2.9 -1.3 2.75 -1.45 2.7 -1.7 2.7 -2.05 M5.55 1.65 Q5.1 1.8 4.7 1.4 L5.75 1.2 5.85 1.5 Q5.65 1.85 5.55 1.65 M5.6 4.0 L5.4 4.2 4.9 4.55 2.4 3.7 2.35 3.7 4.45 3.35 Q5.2 3.35 5.6 4.0 M3.75 1.35 L4.65 1.9 4.55 2.1 4.45 2.15 3.8 2.1 2.75 1.95 2.75 0.95 3.75 1.35 M2.8 2.6 L3.4 3.0 Q3.6 3.35 3.05 3.3 L1.85 3.2 1.05 1.95 1.7 2.15 2.8 2.6 M1.05 2.6 L0.55 3.35 Q-0.7 3.1 -1.3 1.75 L-0.3 1.8 Q0.65 2.1 0.85 2.3 L1.05 2.6 M0.65 5.7 L-0.95 5.8 -1.55 5.55 -2.0 5.2 -2.15 4.7 -1.5 4.15 1.05 4.0 0.75 5.45 0.65 5.7 M1.6 4.15 Q2.35 4.15 2.9 4.5 L3.45 4.75 3.05 5.45 2.8 5.8 1.45 5.7 Q1.0 5.1 1.45 4.4 L1.6 4.15 M4.4 4.6 Q5.6 5.3 4.85 6.55 L4.5 7.05 Q3.85 7.15 3.4 6.6 L3.15 6.35 Q3.0 5.85 3.5 5.25 L4.1 4.65 4.4 4.6 M3.35 7.1 Q2.65 7.8 1.75 7.95 L0.45 7.85 0.25 7.55 0.05 7.15 0.45 6.3 Q2.05 5.7 3.1 6.9 L3.35 7.1 M4.2 7.65 Q3.55 8.3 2.85 8.35 L2.25 8.35 3.8 7.45 4.2 7.65 M-3.1 -1.8 L-1.5 -2.65 -0.5 -2.7 0.1 -2.2 -0.2 -1.0 -1.7 -0.85 -2.75 -1.5 -3.1 -1.8 M-2.8 -0.8 Q-3.15 0.3 -4.15 0.7 -5.15 0.15 -4.85 -0.8 -4.7 -1.45 -4.1 -1.8 L-2.9 -1.05 -2.8 -0.8 M-0.95 -0.25 Q-0.85 0.25 -1.2 0.9 L-1.35 1.15 Q-2.4 1.2 -3.2 0.55 L-2.4 -0.7 -0.95 -0.25 M-1.5 2.75 L-1.1 2.9 -0.25 3.45 -1.9 3.6 -2.7 2.3 -1.5 2.75 M-1.45 2.25 L-2.75 1.65 -2.55 1.6 -2.25 1.45 -1.75 1.7 -1.45 2.25 M-4.6 5.05 L-4.55 4.85 -3.15 4.7 -2.9 5.0 -2.3 6.1 -2.8 6.0 -4.3 5.65 -4.6 5.05 M-3.15 2.4 L-2.95 2.55 -3.7 2.5 -3.4 2.2 -3.15 2.4 M-2.6 1.25 L-3.2 1.45 -4.2 1.95 -4.4 1.9 -5.15 1.45 -5.3 1.2 -5.15 1.1 -4.7 0.75 -4.45 0.85 -2.6 1.25 M-4.2 3.1 L-3.55 3.2 -2.5 3.35 -2.5 4.35 -3.5 3.95 -4.35 3.45 -4.2 3.1 M-3.05 6.4 Q-2.55 6.55 -2.45 7.15 L-3.2 6.85 -3.6 6.45 -3.05 6.4 M-2.15 7.0 L0.0 7.75 -1.55 7.65 -2.15 7.0 M-0.8 7.0 Q-1.6 6.7 -1.85 5.95 L0.05 6.25 -0.3 7.05 -0.8 7.0" fill="#323232" fill-rule="evenodd" stroke="none"/>
  </g>
</svg>