<?xml version="1.0" encoding="UTF-8" standalone="no"?>
<svg xmlns:xlink="http://www.w3.org/1999/xlink" height="23.05px" width="12.1px" xmlns="http://www.w3.org/2000/svg">
  <g transform="matrix(1.0, 0.0, 0.0, 1.0, 1, 1)">
    <path d="M6.2 1.8 L8.3 1.85 9.4 1.8 9.4 2.35 6.2 2.35 6.2 1.8 M9.4 11.85 L9.25 13.95 8.95 16.65 8.6 16.05 8.15 15.6 8.5 13.3 8.45 13.3 Q7.35 13.9 6.6 13.95 L5.95 20.75 5.55 21.05 6.25 13.85 6.25 12.8 9.4 11.85 6.25 12.8 0.35 11.85 5.3 11.65 5.7 11.65 8.85 11.85 9.4 11.85 M8.5 13.3 L8.9 13.1 8.6 16.05 8.9 13.1 8.5 13.3" fill="#7b642b" fill-rule="evenodd" stroke="none"/>
    <path d="M9.4 1.8 L9.35 0.2 10.1 0.0 9.4 11.85 8.85 11.85 9.25 7.85 9.4 2.35 9.4 1.8 M5.55 21.05 L5.2 20.75 5.75 13.7 3.2 13.2 0.6 12.65 0.35 14.35 0.0 14.25 0.1 13.25 0.2 12.5 0.35 11.85 6.25 12.8 6.25 13.85 5.55 21.05 M5.3 11.65 Q5.6 10.55 5.75 6.25 5.85 1.95 5.6 0.5 L6.05 0.3 6.2 1.8 6.2 2.35 6.2 3.65 6.0 9.0 5.7 11.65 5.3 11.65" fill="#9a7f3c" fill-rule="evenodd" stroke="none"/>
    <path d="M6.2 2.35 L9.4 2.35 9.25 7.85 8.85 11.85 5.7 11.65 6.0 9.0 6.2 3.65 6.2 2.35" fill="#a68d50" fill-rule="evenodd" stroke="none"/>
    <path d="M6.2 1.8 L8.3 1.85 9.4 1.8 9.35 0.2 10.1 0.0 9.4 11.85 9.25 13.95 8.95 16.65 8.6 16.05 8.15 15.6 8.5 13.3 8.45 13.3 Q7.35 13.9 6.6 13.95 L5.95 20.75 5.55 21.05 5.2 20.75 5.75 13.7 3.2 13.2 0.6 12.65 0.35 14.35 0.0 14.25 0.1 13.25 0.2 12.5 0.35 11.85 5.3 11.65 Q5.6 10.55 5.75 6.25 5.85 1.95 5.6 0.5 L6.05 0.3 6.2 1.8 6.2 2.35 9.4 2.35 9.4 1.8 M6.2 2.35 L6.2 3.65 6.0 9.0 5.7 11.65 8.85 11.85 9.25 7.85 9.4 2.35 M5.3 11.65 L5.7 11.65 M8.85 11.85 L9.4 11.85 6.25 12.8 6.25 13.85 5.55 21.05 M8.6 16.05 L8.9 13.1 8.5 13.3 M6.25 12.8 L0.35 11.85" fill="none" stroke="#4d3f1c" stroke-linecap="round" stroke-linejoin="round" stroke-width="1"/>
  </g>
</svg>