<?xml version="1.0" encoding="UTF-8" standalone="no"?>
<svg xmlns:xlink="http://www.w3.org/1999/xlink" height="12.8px" width="13.6px" xmlns="http://www.w3.org/2000/svg">
  <g transform="matrix(1.0, 0.0, 0.0, 1.0, 6.8, 6.4)">
    <path d="M4.8 -3.2 L4.85 -3.15 5.5 -1.85 Q5.95 -0.55 5.75 1.3 5.55 3.1 4.75 3.7 L2.95 4.65 1.25 4.9 -0.8 5.2 -3.4 5.35 -4.8 4.7 -5.35 3.8 Q-4.45 4.5 -2.2 4.5 -1.05 4.5 0.15 3.8 1.3 3.1 2.3 3.25 3.1 3.35 3.5 2.35 L3.7 1.0 Q3.7 0.25 2.95 -0.65 2.2 -1.55 2.75 -1.6 3.25 -1.65 3.75 -2.65 4.25 -3.7 4.8 -3.2" fill="#79512b" fill-rule="evenodd" stroke="none"/>
    <path d="M3.1 -3.75 L3.15 -3.55 3.3 -3.55 3.35 -3.6 3.3 -3.75 3.1 -3.75 M2.65 -3.6 L2.65 -3.85 2.6 -3.9 2.35 -3.85 2.4 -3.6 2.55 -3.55 2.65 -3.6 M2.85 -4.25 L2.9 -4.3 2.9 -4.55 2.85 -4.6 Q2.55 -4.6 2.55 -4.4 L2.6 -4.25 2.85 -4.25 M4.8 -3.2 Q4.25 -3.7 3.75 -2.65 3.25 -1.65 2.75 -1.6 2.2 -1.55 2.95 -0.65 3.7 0.25 3.7 1.0 L3.5 2.35 Q3.1 3.35 2.3 3.25 1.3 3.1 0.15 3.8 -1.05 4.5 -2.2 4.5 -4.45 4.5 -5.35 3.8 L-5.7 2.9 -5.75 2.55 -5.65 1.45 -5.1 0.2 Q-5.1 -2.1 -3.5 -3.7 -1.95 -5.35 0.05 -5.4 2.05 -5.5 3.5 -4.45 L4.8 -3.2 M-2.15 -2.75 Q-1.8 -2.75 -1.8 -3.05 L-1.9 -3.25 -2.2 -2.95 -2.15 -2.75 M-2.35 -2.7 L-2.5 -2.7 -2.45 -2.5 -2.3 -2.45 -2.3 -2.5 -2.35 -2.7 M-0.55 -2.75 L-0.6 -2.95 -1.0 -2.95 -1.45 -2.6 -1.2 -2.4 -1.15 -2.4 -1.15 -2.55 -0.95 -2.7 -0.7 -2.7 -0.65 -2.55 -0.6 -2.55 -0.55 -2.75 M-2.65 -1.85 L-2.75 -1.9 -2.85 -1.75 -2.75 -1.7 -2.65 -1.75 -2.65 -1.85 M-3.1 -2.35 L-3.15 -2.5 -3.4 -2.15 -3.25 -2.1 -3.1 -2.35 M-2.65 -3.6 L-2.75 -3.6 -2.9 -3.3 -2.75 -3.3 -2.65 -3.6 M-0.05 -3.65 L-0.2 -3.65 -0.2 -3.45 -0.05 -3.45 0.0 -3.6 -0.05 -3.65 M-0.9 -3.5 L-0.65 -3.5 -0.6 -3.55 -0.65 -3.75 -0.95 -3.7 -0.9 -3.5 M-0.2 -4.2 L-0.35 -4.25 -0.45 -4.25 -0.4 -4.05 -0.25 -4.05 -0.2 -4.1 -0.2 -4.2 M-0.6 -4.35 L-0.4 -4.6 -0.65 -4.6 -0.75 -4.4 -0.6 -4.35 M-2.45 -4.05 L-2.25 -4.4 -2.6 -4.15 -2.55 -4.05 -2.45 -4.05 M-1.7 -4.0 L-1.4 -4.1 -1.25 -4.4 -1.6 -4.25 -1.7 -4.0 M-1.55 -3.4 L-1.35 -3.4 -1.35 -3.55 -1.4 -3.6 -1.6 -3.45 -1.55 -3.4 M0.5 -2.9 L0.7 -3.05 0.65 -3.15 Q0.4 -3.15 0.3 -3.0 L0.5 -2.9 M1.6 -4.05 L1.55 -4.25 1.4 -4.25 1.45 -4.0 1.55 -4.0 1.6 -4.05 M1.2 -4.1 L1.15 -4.3 0.9 -4.25 0.95 -4.05 1.2 -4.1 M0.55 -4.55 L0.3 -4.4 0.5 -4.35 0.55 -4.4 0.55 -4.55 M1.15 -4.85 L1.2 -4.8 1.35 -4.85 1.25 -5.0 1.15 -4.85 M0.3 -5.25 L0.1 -5.25 0.1 -4.85 0.25 -4.85 0.3 -4.9 0.3 -5.25 M1.8 -5.0 L1.6 -4.75 1.75 -4.6 Q1.85 -4.5 1.95 -4.5 L2.1 -4.55 2.1 -4.8 1.8 -5.0" fill="#9c6a3a" fill-rule="evenodd" stroke="none"/>
    <path d="M2.85 -4.25 L2.6 -4.25 2.55 -4.4 Q2.55 -4.6 2.85 -4.6 L2.9 -4.55 2.9 -4.3 2.85 -4.25 M2.65 -3.6 L2.55 -3.55 2.4 -3.6 2.35 -3.85 2.6 -3.9 2.65 -3.85 2.65 -3.6 M3.1 -3.75 L3.3 -3.75 3.35 -3.6 3.3 -3.55 3.15 -3.55 3.1 -3.75 M1.8 -5.0 L2.1 -4.8 2.1 -4.55 1.95 -4.5 Q1.85 -4.5 1.75 -4.6 L1.6 -4.75 1.8 -5.0 M0.3 -5.25 L0.3 -4.9 0.25 -4.85 0.1 -4.85 0.1 -5.25 0.3 -5.25 M1.15 -4.85 L1.25 -5.0 1.35 -4.85 1.2 -4.8 1.15 -4.85 M0.55 -4.55 L0.55 -4.4 0.5 -4.35 0.3 -4.4 0.55 -4.55 M1.2 -4.1 L0.95 -4.05 0.9 -4.25 1.15 -4.3 1.2 -4.1 M1.6 -4.05 L1.55 -4.0 1.45 -4.0 1.4 -4.25 1.55 -4.25 1.6 -4.05 M0.5 -2.9 L0.3 -3.0 Q0.4 -3.15 0.65 -3.15 L0.7 -3.05 0.5 -2.9 M-1.55 -3.4 L-1.6 -3.45 -1.4 -3.6 -1.35 -3.55 -1.35 -3.4 -1.55 -3.4 M-1.7 -4.0 L-1.6 -4.25 -1.25 -4.4 -1.4 -4.1 -1.7 -4.0 M-2.45 -4.05 L-2.55 -4.05 -2.6 -4.15 -2.25 -4.4 -2.45 -4.05 M-0.6 -4.35 L-0.75 -4.4 -0.65 -4.6 -0.4 -4.6 -0.6 -4.35 M-0.2 -4.2 L-0.2 -4.1 -0.25 -4.05 -0.4 -4.05 -0.45 -4.25 -0.35 -4.25 -0.2 -4.2 M-0.9 -3.5 L-0.95 -3.7 -0.65 -3.75 -0.6 -3.55 -0.65 -3.5 -0.9 -3.5 M-0.05 -3.65 L0.0 -3.6 -0.05 -3.45 -0.2 -3.45 -0.2 -3.65 -0.05 -3.65 M-2.65 -3.6 L-2.75 -3.3 -2.9 -3.3 -2.75 -3.6 -2.65 -3.6 M-3.1 -2.35 L-3.25 -2.1 -3.4 -2.15 -3.15 -2.5 -3.1 -2.35 M-2.65 -1.85 L-2.65 -1.75 -2.75 -1.7 -2.85 -1.75 -2.75 -1.9 -2.65 -1.85 M-0.55 -2.75 L-0.6 -2.55 -0.65 -2.55 -0.7 -2.7 -0.95 -2.7 -1.15 -2.55 -1.15 -2.4 -1.2 -2.4 -1.45 -2.6 -1.0 -2.95 -0.6 -2.95 -0.55 -2.75 M-2.35 -2.7 L-2.3 -2.5 -2.3 -2.45 -2.45 -2.5 -2.5 -2.7 -2.35 -2.7 M-2.15 -2.75 L-2.2 -2.95 -1.9 -3.25 -1.8 -3.05 Q-1.8 -2.75 -2.15 -2.75" fill="#bd8a5a" fill-rule="evenodd" stroke="none"/>
    <path d="M-5.35 3.8 L-4.8 4.7 -3.4 5.35 -0.8 5.2 1.25 4.9 2.95 4.65 4.75 3.7 Q5.55 3.1 5.75 1.3 5.95 -0.55 5.5 -1.85 L4.85 -3.15 4.8 -3.2 3.5 -4.45 Q2.05 -5.5 0.05 -5.4 -1.95 -5.35 -3.5 -3.7 -5.1 -2.1 -5.1 0.2 L-5.65 1.45 -5.75 2.55 -5.7 2.9 -5.35 3.8 Z" fill="none" stroke="#5b3c1e" stroke-linecap="round" stroke-linejoin="round" stroke-width="1"/>
  </g>
</svg>