<?xml version="1.0" encoding="UTF-8" standalone="no"?>
<svg xmlns:xlink="http://www.w3.org/1999/xlink" height="9.85px" width="12px" xmlns="http://www.w3.org/2000/svg">
  <g transform="matrix(1.0, 0.0, 0.0, 1.0, 6.35, 4.8)">
    <path d="M-1.05 -1.85 L-0.5 -3.05 0.25 -3.8 0.4 -3.8 2.5 -3.35 2.5 -3.3 2.6 -2.8 2.4 -2.3 1.95 -1.8 1.0 -1.45 0.95 -1.45 1.0 -1.4 -0.5 -1.85 -1.05 -1.85" fill="#ffffcc" fill-rule="evenodd" stroke="none"/>
    <path d="M1.0 -1.4 L0.95 -1.45 1.0 -1.45 1.95 -1.8 2.4 -2.3 2.6 -2.8 2.5 -3.3 2.5 -3.35 3.65 -2.4 Q4.65 -1.45 4.65 -0.9 4.65 0.15 3.75 0.9 3.05 1.45 2.2 1.55 L2.35 0.75 Q2.35 -0.5 1.45 -1.15 L1.3 -1.25 1.0 -1.4 1.2 -1.3 1.0 -1.4" fill="#adad73" fill-rule="evenodd" stroke="none"/>
    <path d="M2.2 1.55 Q1.7 2.8 -0.15 3.5 L-2.8 3.55 -3.55 2.8 -4.3 1.95 -4.35 1.9 -4.5 1.65 -4.15 1.7 -3.4 1.6 -2.1 1.05 Q-1.35 0.45 -0.2 0.3 0.55 0.2 0.75 -0.65 L1.0 -1.4 1.2 -1.3 1.0 -1.4 1.3 -1.25 1.45 -1.15 Q2.35 -0.5 2.35 0.75 L2.2 1.55 M0.2 2.35 L0.3 2.35 0.3 2.15 0.15 2.15 0.15 2.25 0.2 2.35 M1.15 1.65 L1.15 1.9 1.2 2.1 1.3 2.1 1.3 1.65 1.15 1.65 M0.1 0.9 L0.1 0.7 -0.2 0.75 -0.15 1.0 -0.05 0.85 0.0 0.95 0.1 0.9 M1.15 0.5 L1.25 0.5 1.3 0.2 1.15 0.25 1.15 0.5 M0.5 1.35 L0.7 1.1 Q0.3 1.1 0.35 1.35 L0.5 1.35 M-0.85 1.85 L-0.85 1.8 -1.1 1.8 -1.1 2.0 -1.0 2.0 -1.05 2.1 -0.75 2.1 -0.7 2.05 -0.75 1.8 -0.85 1.85" fill="#79512b" fill-rule="evenodd" stroke="none"/>
    <path d="M-1.05 -1.85 L-0.5 -1.85 1.0 -1.4 0.75 -0.65 Q0.55 0.2 -0.2 0.3 -1.35 0.45 -2.1 1.05 L-3.4 1.6 -4.15 1.7 -4.5 1.65 Q-4.9 1.0 -4.4 0.4 L-4.0 0.0 Q-2.25 -0.95 -1.05 -1.8 L-1.05 -1.85 M0.5 1.35 L0.35 1.35 Q0.3 1.1 0.7 1.1 L0.5 1.35 M1.15 0.5 L1.15 0.25 1.3 0.2 1.25 0.5 1.15 0.5 M0.1 0.9 L0.0 0.95 -0.05 0.85 -0.15 1.0 -0.2 0.75 0.1 0.7 0.1 0.9 M1.15 1.65 L1.3 1.65 1.3 2.1 1.2 2.1 1.15 1.9 1.15 1.65 M0.2 2.35 L0.15 2.25 0.15 2.15 0.3 2.15 0.3 2.35 0.2 2.35 M-1.75 0.4 L-1.45 0.4 -1.5 0.2 -1.75 0.4 M-0.5 -0.3 L-0.5 -0.55 -0.65 -0.3 -0.5 -0.3 M-1.0 -1.0 L-0.85 -0.85 -0.8 -0.95 -0.8 -1.2 -1.0 -1.0 M-0.05 -1.1 L-0.05 -0.8 Q0.3 -0.8 0.2 -1.1 L-0.05 -1.1 M-0.6 -1.45 L-0.4 -1.4 -0.45 -1.65 -0.6 -1.45 M-1.4 -0.45 L-1.45 -0.6 -1.95 -0.5 -1.9 -0.3 -1.45 -0.3 -1.4 -0.45 M-0.85 1.85 L-0.75 1.8 -0.7 2.05 -0.75 2.1 -1.05 2.1 -1.0 2.0 -1.1 2.0 -1.1 1.8 -0.85 1.8 -0.85 1.85 M-3.25 0.4 L-3.25 0.6 -3.1 0.6 -3.05 0.55 -3.05 0.4 -3.25 0.4" fill="#9c6a3a" fill-rule="evenodd" stroke="none"/>
    <path d="M-1.4 -0.45 L-1.45 -0.3 -1.9 -0.3 -1.95 -0.5 -1.45 -0.6 -1.4 -0.45 M-0.6 -1.45 L-0.45 -1.65 -0.4 -1.4 -0.6 -1.45 M-0.05 -1.1 L0.2 -1.1 Q0.3 -0.8 -0.05 -0.8 L-0.05 -1.1 M-1.0 -1.0 L-0.8 -1.2 -0.8 -0.95 -0.85 -0.85 -1.0 -1.0 M-0.5 -0.3 L-0.65 -0.3 -0.5 -0.55 -0.5 -0.3 M-1.75 0.4 L-1.5 0.2 -1.45 0.4 -1.75 0.4 M-3.25 0.4 L-3.05 0.4 -3.05 0.55 -3.1 0.6 -3.25 0.6 -3.25 0.4" fill="#bd8a5a" fill-rule="evenodd" stroke="none"/>
    <path d="M-1.05 -1.85 L-0.5 -1.85 1.0 -1.4 1.3 -1.25 1.45 -1.15 Q2.35 -0.5 2.35 0.75 L2.2 1.55 Q1.7 2.8 -0.15 3.5 L-2.8 3.55 -3.55 2.8 -4.3 1.95 -4.35 1.9 -4.5 1.65 Q-4.9 1.0 -4.4 0.4 L-4.0 0.0 Q-2.25 -0.95 -1.05 -1.8 L-1.05 -1.85" fill="none" stroke="#5b3c1e" stroke-linecap="round" stroke-linejoin="round" stroke-width="1"/>
    <path d="M2.5 -3.35 L0.4 -3.8 0.25 -3.8 -0.5 -3.05 -1.05 -1.85 M2.5 -3.35 L3.65 -2.4 Q4.65 -1.45 4.65 -0.9 4.65 0.15 3.75 0.9 3.05 1.45 2.2 1.55" fill="none" stroke="#646434" stroke-linecap="round" stroke-linejoin="round" stroke-width="1"/>
    <path d="M-3.9 1.85 L-3.3 2.15 -2.75 2.7 -3.65 3.4 -2.75 2.7 -1.75 3.45 -2.1 4.0 -3.25 4.05 -3.65 3.4 -4.75 3.45 Q-5.15 3.3 -5.15 2.9 L-5.1 2.25 Q-5.5 2.05 -5.3 1.5 -5.2 0.95 -4.85 0.95 L-3.95 1.75 -3.9 1.85 -4.75 1.95 Q-5.0 2.05 -5.1 2.25 -5.0 2.05 -4.75 1.95 L-3.9 1.85" fill="#ffffcc" fill-rule="evenodd" stroke="none"/>
    <path d="M-2.75 2.7 L-3.3 2.15 -3.9 1.85 -4.75 1.95 Q-5.0 2.05 -5.1 2.25 L-5.15 2.9 Q-5.15 3.3 -4.75 3.45 L-3.65 3.4 -2.75 2.7 -1.75 3.45 -2.1 4.0 -3.25 4.05 -3.65 3.4 M-5.1 2.25 Q-5.5 2.05 -5.3 1.5 -5.2 0.95 -4.85 0.95 L-3.95 1.75 -3.9 1.85" fill="none" stroke="#646434" stroke-linecap="round" stroke-linejoin="round" stroke-width="1"/>
  </g>
</svg>