<?xml version="1.0" encoding="UTF-8" standalone="no"?>
<svg xmlns:xlink="http://www.w3.org/1999/xlink" height="40.55px" width="44.95px" xmlns="http://www.w3.org/2000/svg">
  <g transform="matrix(1.0, 0.0, 0.0, 1.0, 18.3, 12.05)">
    <path d="M-6.85 -8.45 L-6.75 -8.4 -6.8 -8.35 -6.85 -8.45 M4.9 13.55 L4.95 13.6 4.9 13.6 4.9 13.55 M-15.1 24.9 L-14.5 25.85 -15.15 25.1 -15.1 24.9" fill="#cc0000" fill-rule="evenodd" stroke="none"/>
    <path d="M0.75 -2.75 L1.15 -2.7 1.25 -2.25 0.75 -1.75 0.35 -1.85 Q0.2 -1.95 0.2 -2.25 L0.3 -2.7 0.75 -2.75 M2.25 1.8 Q3.1 1.25 3.1 3.0 L2.75 3.7 Q2.4 4.1 2.0 4.1 1.45 4.1 1.4 3.45 1.4 2.3 2.25 1.8 M5.65 23.55 Q7.75 23.65 7.75 24.55 7.75 25.35 6.65 25.35 3.5 25.35 3.5 24.35 3.5 23.5 5.65 23.55 M9.8 23.2 Q9.25 23.2 8.85 22.75 L8.55 22.25 Q9.0 21.9 9.55 21.95 10.15 22.05 10.35 22.55 L10.3 22.95 Q10.3 23.2 9.8 23.2 M-0.05 12.85 Q-0.05 13.15 -0.55 13.65 -1.1 14.2 -1.5 14.2 -3.15 14.2 -3.15 13.45 -3.15 12.9 -1.6 12.35 -0.05 11.8 -0.05 12.85" fill="#a90101" fill-rule="evenodd" stroke="none"/>
    <path d="M-8.8 15.9 L-7.55 16.0 Q-2.8 16.15 0.0 15.3 1.65 14.9 2.25 13.45 3.5 10.3 2.6 7.2 2.35 6.3 3.2 6.3 L4.0 6.45 4.9 13.55 4.9 13.6 4.95 13.6 8.65 10.0 Q11.65 6.95 13.95 3.35 16.3 -0.4 15.7 -4.75 L18.5 2.6 18.55 3.15 18.5 2.6 18.6 2.65 18.55 3.15 18.5 3.6 18.35 5.15 Q18.3 6.05 18.4 6.6 L18.45 6.9 Q18.55 7.75 18.1 8.4 17.5 9.2 17.5 9.7 L25.45 17.65 24.9 19.3 24.85 19.35 24.85 19.4 24.65 19.65 Q22.1 22.1 18.85 23.5 15.6 24.95 12.2 25.85 L13.65 22.4 Q12.95 21.25 11.2 21.2 8.3 20.75 7.9 17.9 7.7 16.65 6.45 16.5 L4.35 17.15 Q-2.4 20.2 -8.5 16.1 L-8.8 15.9" fill="#980101" fill-rule="evenodd" stroke="none"/>
    <path d="M-13.8 6.85 L-12.85 11.15 -10.6 14.6 -8.8 15.9 -8.5 16.1 Q-2.4 20.2 4.35 17.15 L6.45 16.5 Q7.7 16.65 7.9 17.9 8.3 20.75 11.2 21.2 12.95 21.25 13.65 22.4 L12.2 25.85 Q6.0 27.5 -1.6 27.5 L-12.5 26.55 -14.5 25.85 -15.1 24.9 Q-17.85 20.3 -17.2 14.65 L-17.05 12.5 Q-17.05 10.6 -16.25 8.9 -15.45 7.25 -13.8 6.85 M9.8 23.2 Q10.3 23.2 10.3 22.95 L10.35 22.55 Q10.15 22.05 9.55 21.95 9.0 21.9 8.55 22.25 L8.85 22.75 Q9.25 23.2 9.8 23.2 M5.65 23.55 Q3.5 23.5 3.5 24.35 3.5 25.35 6.65 25.35 7.75 25.35 7.75 24.55 7.75 23.65 5.65 23.55" fill="url(#gradient0)" fill-rule="evenodd" stroke="none"/>
    <path d="M25.45 17.65 L17.5 9.7 Q17.5 9.2 18.1 8.4 18.55 7.75 18.45 6.9 L18.4 6.6 Q18.3 6.05 18.35 5.15 L18.5 3.6 18.55 3.15 18.6 2.65 19.55 3.2 Q22.8 5.25 23.95 9.0 L25.3 13.7 25.6 15.35 25.45 17.65 M18.45 6.9 L18.55 3.15 18.45 6.9" fill="#870101" fill-rule="evenodd" stroke="none"/>
    <path d="M-6.85 -8.45 Q-5.8 -9.25 -3.65 -9.95 -1.5 -10.7 1.45 -11.0 5.85 -11.35 10.05 -10.0 L10.45 -9.85 11.5 -8.85 15.7 -4.75 Q16.3 -0.4 13.95 3.35 11.65 6.95 8.65 10.0 L4.95 13.6 4.9 13.55 4.0 6.45 3.2 6.3 Q2.35 6.3 2.6 7.2 3.5 10.3 2.25 13.45 1.65 14.9 0.0 15.3 -2.8 16.15 -7.55 16.0 L-8.8 15.9 -10.6 14.6 -12.85 11.15 -13.8 6.85 -14.0 5.7 Q-14.2 3.8 -13.75 1.9 -12.25 -4.25 -6.8 -8.35 L-6.75 -8.4 -6.85 -8.45 M0.75 -2.75 L0.3 -2.7 0.2 -2.25 Q0.2 -1.95 0.35 -1.85 L0.75 -1.75 1.25 -2.25 1.15 -2.7 0.75 -2.75 M2.25 1.8 Q1.4 2.3 1.4 3.45 1.45 4.1 2.0 4.1 2.4 4.1 2.75 3.7 L3.1 3.0 Q3.1 1.25 2.25 1.8 M-0.05 12.85 Q-0.05 11.8 -1.6 12.35 -3.15 12.9 -3.15 13.45 -3.15 14.2 -1.5 14.2 -1.1 14.2 -0.55 13.65 -0.05 13.15 -0.05 12.85" fill="url(#gradient1)" fill-rule="evenodd" stroke="none"/>
    <path d="M-6.75 -8.4 L-6.8 -8.35 Q-12.25 -4.25 -13.75 1.9 -14.2 3.8 -14.0 5.7 L-13.8 6.85 -12.85 11.15 M15.7 -4.75 L11.5 -8.85 10.45 -9.85 10.05 -10.0 M24.9 19.3 L25.45 17.65 25.6 15.35 25.3 13.7 23.95 9.0 Q22.8 5.25 19.55 3.2 L18.6 2.65 18.5 2.6 15.7 -4.75 M18.55 3.15 L18.5 2.6 M24.65 19.65 L24.85 19.4 24.9 19.3 M18.55 3.15 L18.45 6.9 M-13.8 6.85 Q-15.45 7.25 -16.25 8.9 -17.05 10.6 -17.05 12.5 L-17.2 14.65 Q-17.85 20.3 -15.1 24.9 L-14.5 25.85" fill="none" stroke="#540101" stroke-linecap="round" stroke-linejoin="round" stroke-opacity="0.49803922" stroke-width="1"/>
    <path d="M-4.7 -1.6 L-5.8 -1.0 -6.1 -1.3 -6.15 -1.75 Q-6.15 -2.95 -5.1 -3.25 -4.05 -3.6 -4.05 -2.5 -4.05 -2.15 -4.7 -1.6 M-4.7 -0.1 L-4.2 0.3 Q-4.2 0.7 -4.7 0.9 L-5.15 0.65 -5.2 0.35 -5.0 -0.05 -4.7 -0.1 M-7.15 1.25 Q-6.5 1.25 -6.5 1.8 -6.5 2.35 -7.15 2.35 L-7.6 2.3 -7.75 2.2 -7.8 1.85 Q-7.8 1.25 -7.15 1.25" fill="#ffffcc" fill-rule="evenodd" stroke="none"/>
  </g>
  <defs>
    <radialGradient cx="0" cy="0" gradientTransform="matrix(0.0209, 0.0, 0.0, 0.0209, -27.3, 5.85)" gradientUnits="userSpaceOnUse" id="gradient0" r="819.2" spreadMethod="pad">
      <stop offset="0.0" stop-color="#eb9b88"></stop>
      <stop offset="1.0" stop-color="#b93535"></stop>
    </radialGradient>
    <radialGradient cx="0" cy="0" gradientTransform="matrix(0.0317, 0.0, 0.0, 0.0317, -9.6, -5.9)" gradientUnits="userSpaceOnUse" id="gradient1" r="819.2" spreadMethod="pad">
      <stop offset="0.0" stop-color="#e78c76"></stop>
      <stop offset="1.0" stop-color="#b93535"></stop>
    </radialGradient>
  </defs>
</svg>