<?xml version="1.0" encoding="UTF-8" standalone="no"?>
<svg xmlns:xlink="http://www.w3.org/1999/xlink" height="19.3px" width="40px" xmlns="http://www.w3.org/2000/svg">
  <g transform="matrix(1.0, 0.0, 0.0, 1.0, 39.65, 17.75)">
    <path d="M-19.0 -9.25 L-18.95 -9.2 -19.0 -9.0 -19.0 -9.25 M-4.1 -13.75 L-3.8 -13.45 -4.1 -13.5 -4.1 -13.75 M-38.35 -7.8 L-38.65 -7.8 -38.6 -7.9 -38.35 -7.8 M-26.75 -8.15 L-26.65 -8.1 -27.15 -7.65 -26.75 -8.15" fill="#cc0000" fill-rule="evenodd" stroke="none"/>
    <path d="M-1.85 -8.2 L-0.65 -1.1 -4.95 -7.45 -7.45 -10.6 -4.45 -10.8 Q-2.3 -10.3 -1.85 -8.2 M-10.9 -6.8 Q-9.25 -3.15 -10.45 0.55 L-14.85 -5.55 -14.9 -5.6 -14.95 -5.65 -16.55 -9.65 -11.85 -8.75 -10.9 -6.8 M-21.35 -5.75 Q-20.4 -2.65 -21.45 0.15 L-23.9 -5.15 -26.65 -8.1 -26.75 -8.15 -27.85 -8.7 Q-25.85 -10.9 -23.25 -9.45 -21.15 -8.3 -21.35 -5.75" fill="#ffffcc" fill-rule="evenodd" stroke="none"/>
    <path d="M-14.9 -5.55 L-15.1 -5.55 -14.95 -5.65 -14.9 -5.6 -14.9 -5.55" fill="#a90101" fill-rule="evenodd" stroke="none"/>
    <path d="M-21.6 -12.35 L-19.0 -9.25 -19.0 -9.0 -18.95 -7.95 -19.15 -6.75 -18.95 -7.95 -19.0 -9.0 -18.95 -9.2 Q-17.35 -12.0 -13.8 -11.55 -12.0 -11.55 -10.4 -10.95 L-10.75 -11.35 -10.15 -12.0 Q-7.5 -14.05 -4.1 -13.5 L-3.8 -13.45 Q-1.15 -11.5 -1.7 -8.5 L-1.85 -8.2 Q-2.3 -10.3 -4.45 -10.8 L-7.45 -10.6 -4.95 -7.45 -9.5 -8.4 -10.9 -6.8 -11.85 -8.75 -16.55 -9.65 -14.95 -5.65 -15.1 -5.55 -17.65 -6.0 Q-18.4 -6.3 -19.15 -6.75 L-21.35 -5.75 Q-21.15 -8.3 -23.25 -9.45 -25.85 -10.9 -27.85 -8.7 L-26.75 -8.15 -27.15 -7.65 -26.65 -8.1 -23.9 -5.15 Q-26.55 -4.55 -29.2 -5.65 L-30.8 -6.45 Q-30.25 -11.1 -25.6 -12.25 L-21.6 -12.35 M-10.4 -10.95 L-9.5 -8.4 -10.4 -10.95" fill="#980101" fill-rule="evenodd" stroke="none"/>
    <path d="M-38.6 -7.9 L-38.6 -7.95 -38.35 -7.8 -38.6 -7.9" fill="url(#gradient0)" fill-rule="evenodd" stroke="none"/>
    <path d="M-25.35 -15.15 Q-24.65 -15.45 -23.95 -15.85 -20.05 -17.8 -16.7 -15.35 L-10.75 -11.35 -10.4 -10.95 Q-12.0 -11.55 -13.8 -11.55 -17.35 -12.0 -18.95 -9.2 L-19.0 -9.25 -21.6 -12.35 -25.35 -15.15" fill="url(#gradient1)" fill-rule="evenodd" stroke="none"/>
    <path d="M-25.35 -15.15 L-21.6 -12.35 -25.6 -12.25 Q-30.25 -11.1 -30.8 -6.45 -31.75 -6.45 -32.45 -7.15 -33.15 -7.85 -33.15 -8.85 L-34.0 -8.45 Q-35.55 -7.8 -38.35 -7.8 L-38.6 -7.95 Q-37.1 -12.25 -33.3 -14.4 -29.45 -16.55 -25.35 -15.15" fill="url(#gradient2)" fill-rule="evenodd" stroke="none"/>
    <path d="M-10.75 -11.35 L-16.7 -15.35 -10.95 -16.7 Q-6.75 -17.15 -4.1 -13.75 L-4.1 -13.5 Q-7.5 -14.05 -10.15 -12.0 L-10.75 -11.35" fill="url(#gradient3)" fill-rule="evenodd" stroke="none"/>
    <path d="M-16.7 -15.35 Q-20.05 -17.8 -23.95 -15.85 -24.65 -15.45 -25.35 -15.15 L-21.6 -12.35 -19.0 -9.25 -19.0 -9.0 -18.95 -7.95 -19.15 -6.75 -21.35 -5.75 Q-20.4 -2.65 -21.45 0.15 L-23.9 -5.15 Q-26.55 -4.55 -29.2 -5.65 L-30.8 -6.45 Q-31.75 -6.45 -32.45 -7.15 -33.15 -7.85 -33.15 -8.85 M-10.4 -10.95 L-10.75 -11.35 -16.7 -15.35 -10.95 -16.7 Q-6.75 -17.15 -4.1 -13.75 L-3.8 -13.45 Q-1.15 -11.5 -1.7 -8.5 L-1.85 -8.2 -0.65 -1.1 -4.95 -7.45 -9.5 -8.4 -10.9 -6.8 Q-9.25 -3.15 -10.45 0.55 L-14.85 -5.55 -14.9 -5.55 -15.1 -5.55 -17.65 -6.0 Q-18.4 -6.3 -19.15 -6.75 M-38.65 -7.8 L-38.6 -7.9 -38.6 -7.95 Q-37.1 -12.25 -33.3 -14.4 -29.45 -16.55 -25.35 -15.15 M-26.75 -8.15 L-26.65 -8.1 -23.9 -5.15 M-26.75 -8.15 L-27.85 -8.7 Q-25.85 -10.9 -23.25 -9.45 -21.15 -8.3 -21.35 -5.75 M-10.9 -6.8 L-11.85 -8.75 -16.55 -9.65 -14.95 -5.65 -14.9 -5.6 -14.85 -5.55 M-1.85 -8.2 Q-2.3 -10.3 -4.45 -10.8 L-7.45 -10.6 -4.95 -7.45 M-9.5 -8.4 L-10.4 -10.95" fill="none" stroke="#540101" stroke-linecap="round" stroke-linejoin="round" stroke-opacity="0.49803922" stroke-width="1"/>
  </g>
  <defs>
    <radialGradient cx="0" cy="0" gradientTransform="matrix(0.0136, 0.0, 0.0, 0.0136, -28.45, -11.65)" gradientUnits="userSpaceOnUse" id="gradient0" r="819.2" spreadMethod="pad">
      <stop offset="0.0" stop-color="#eb9b88"></stop>
      <stop offset="1.0" stop-color="#b93535"></stop>
    </radialGradient>
    <radialGradient cx="0" cy="0" gradientTransform="matrix(0.0156, 0.0, 0.0, 0.0156, -21.85, -15.25)" gradientUnits="userSpaceOnUse" id="gradient1" r="819.2" spreadMethod="pad">
      <stop offset="0.0" stop-color="#e37960"></stop>
      <stop offset="1.0" stop-color="#b93535"></stop>
    </radialGradient>
    <radialGradient cx="0" cy="0" gradientTransform="matrix(0.0143, 0.0, 0.0, 0.0143, -29.35, -14.35)" gradientUnits="userSpaceOnUse" id="gradient2" r="819.2" spreadMethod="pad">
      <stop offset="0.0" stop-color="#e37960"></stop>
      <stop offset="1.0" stop-color="#b93535"></stop>
    </radialGradient>
    <radialGradient cx="0" cy="0" gradientTransform="matrix(0.0099, 0.0, 0.0, 0.0099, -11.65, -16.15)" gradientUnits="userSpaceOnUse" id="gradient3" r="819.2" spreadMethod="pad">
      <stop offset="0.0" stop-color="#e37960"></stop>
      <stop offset="1.0" stop-color="#b93535"></stop>
    </radialGradient>
  </defs>
</svg>