<?xml version="1.0" encoding="UTF-8" standalone="no"?>
<svg xmlns:xlink="http://www.w3.org/1999/xlink" height="28.2px" width="39.55px" xmlns="http://www.w3.org/2000/svg">
  <g transform="matrix(1.0, 0.0, 0.0, 1.0, 16.95, 8.4)">
    <path d="M-15.2 12.7 Q-16.25 8.4 -15.85 4.25 -15.4 0.0 -12.25 -2.7 -9.35 -5.15 -5.65 -6.05 L-0.05 -7.15 7.2 -6.75 Q11.05 -5.6 14.5 -3.35 18.15 -1.0 19.55 3.2 L21.6 9.8 Q20.4 11.7 17.3 14.15 11.4 18.8 4.2 18.8 -2.5 18.8 -10.1 15.45 -13.5 13.95 -15.2 12.7" fill="url(#gradient0)" fill-rule="evenodd" stroke="none"/>
    <path d="M21.6 9.8 L19.55 3.2 Q18.15 -1.0 14.5 -3.35 11.05 -5.6 7.2 -6.75 L-0.05 -7.15 -5.65 -6.05 Q-9.35 -5.15 -12.25 -2.7 -15.4 0.0 -15.85 4.25 -16.25 8.4 -15.2 12.7" fill="none" stroke="#540101" stroke-linecap="round" stroke-linejoin="round" stroke-opacity="0.49803922" stroke-width="1"/>
  </g>
  <defs>
    <radialGradient cx="0" cy="0" gradientTransform="matrix(0.0417, 0.0, 0.0, 0.0417, -9.4, -4.55)" gradientUnits="userSpaceOnUse" id="gradient0" r="819.2" spreadMethod="pad">
      <stop offset="0.0" stop-color="#e17459"></stop>
      <stop offset="1.0" stop-color="#b93535"></stop>
    </radialGradient>
  </defs>
</svg>