<?xml version="1.0" encoding="UTF-8" standalone="no"?>
<svg xmlns:xlink="http://www.w3.org/1999/xlink" height="56.25px" width="54.8px" xmlns="http://www.w3.org/2000/svg">
  <g transform="matrix(1.0, 0.0, 0.0, 1.0, 25.5, 32.85)">
    <path d="M6.45 -27.1 L6.65 -25.65 Q6.8 -24.05 7.1 -22.7 7.4 -21.2 7.05 -19.65 8.3 -20.5 9.95 -20.8 11.15 -20.9 12.0 -21.4 13.35 -22.2 13.9 -23.6 13.5 -21.35 15.15 -19.95 L16.8 -18.9 19.3 -17.5 21.1 -16.45 21.05 -16.7 Q20.65 -17.7 20.8 -18.85 L20.95 -19.95 21.2 -19.05 21.9 -17.4 23.15 -15.75 23.9 -14.4 Q24.75 -12.35 24.9 -9.95 25.75 -11.05 27.1 -11.8 L28.3 -12.1 27.7 -11.2 27.25 -9.95 Q26.9 -8.35 27.15 -6.6 L27.35 -4.7 27.3 -3.65 Q26.65 0.75 25.65 5.0 L25.2 6.1 22.55 10.65 20.9 12.45 16.8 14.9 Q13.4 16.85 9.65 18.35 L5.3 19.95 1.5 21.15 -5.95 22.35 -9.0 22.25 -11.3 21.95 -12.05 21.7 -15.6 20.1 -17.5 18.8 Q-19.5 17.4 -21.05 15.25 -22.6 13.15 -23.25 11.15 L-23.45 10.2 -24.1 6.4 Q-24.8 2.75 -24.25 -0.85 L-23.65 -3.15 Q-22.55 -6.5 -23.35 -10.1 L-21.75 -4.8 -21.8 -5.25 Q-21.9 -7.5 -20.55 -9.1 -19.6 -10.15 -19.0 -11.45 -17.85 -13.95 -17.85 -16.75 L-17.5 -14.25 -17.1 -12.05 -14.65 -14.25 Q-13.65 -15.0 -12.5 -15.55 L-9.6 -17.15 Q-7.95 -18.05 -6.4 -19.15 L-5.15 -20.35 Q-4.55 -21.2 -4.35 -22.25 -4.25 -19.15 -5.8 -16.75 L-5.45 -16.85 -4.0 -17.3 -0.25 -18.45 Q2.4 -19.35 3.8 -22.05 L5.5 -25.0 Q6.25 -26.2 6.3 -27.55 L6.45 -27.1" fill="url(#gradient0)" fill-rule="evenodd" stroke="none"/>
    <path d="M12.65 -31.55 L12.8 -31.85 Q12.85 -30.25 13.55 -28.85 L13.6 -28.45 13.35 -27.75 13.0 -27.05 12.35 -26.65 11.0 -26.5 Q12.45 -28.55 12.5 -30.95 L12.65 -31.55" fill="url(#gradient1)" fill-rule="evenodd" stroke="none"/>
    <path d="M6.45 -27.1 L6.3 -27.55 Q6.25 -26.2 5.5 -25.0 L3.8 -22.05 Q2.4 -19.35 -0.25 -18.45 L-4.0 -17.3 -5.45 -16.85 -5.8 -16.75 Q-4.25 -19.15 -4.35 -22.25 -4.55 -21.2 -5.15 -20.35 L-6.4 -19.15 Q-7.95 -18.05 -9.6 -17.15 L-12.5 -15.55 Q-13.65 -15.0 -14.65 -14.25 L-17.1 -12.05 -17.5 -14.25 -17.85 -16.75 Q-17.85 -13.95 -19.0 -11.45 -19.6 -10.15 -20.55 -9.1 -21.9 -7.5 -21.8 -5.25 L-21.75 -4.8 -23.35 -10.1 Q-22.55 -6.5 -23.65 -3.15 L-24.25 -0.85 Q-24.8 2.75 -24.1 6.4 L-23.45 10.2 -23.25 11.15 Q-22.6 13.15 -21.05 15.25 -19.5 17.4 -17.5 18.8 L-15.6 20.1 -12.05 21.7 -11.3 21.95 -9.0 22.25 -5.95 22.35 1.5 21.15 5.3 19.95 9.65 18.35 Q13.4 16.85 16.8 14.9 L20.9 12.45 22.55 10.65 25.2 6.1 25.65 5.0 Q26.65 0.75 27.3 -3.65 L27.35 -4.7 27.15 -6.6 Q26.9 -8.35 27.25 -9.95 L27.7 -11.2 28.3 -12.1 27.1 -11.8 Q25.75 -11.05 24.9 -9.95 24.75 -12.35 23.9 -14.4 L23.15 -15.75 21.9 -17.4 21.2 -19.05 20.95 -19.95 20.8 -18.85 Q20.65 -17.7 21.05 -16.7 L21.1 -16.45 19.3 -17.5 16.8 -18.9 15.15 -19.95 Q13.5 -21.35 13.9 -23.6 13.35 -22.2 12.0 -21.4 11.15 -20.9 9.95 -20.8 8.3 -20.5 7.05 -19.65 7.4 -21.2 7.1 -22.7 6.8 -24.05 6.65 -25.65 L6.45 -27.1 M12.65 -31.55 L12.8 -31.85 Q12.85 -30.25 13.55 -28.85 L13.6 -28.45 13.35 -27.75 13.0 -27.05 12.35 -26.65 11.0 -26.5 Q12.45 -28.55 12.5 -30.95 L12.65 -31.55 M-4.35 -22.25 L-4.3 -23.15" fill="none" stroke="#660000" stroke-linecap="round" stroke-linejoin="round" stroke-opacity="0.6" stroke-width="1"/>
  </g>
  <defs>
    <radialGradient cx="0" cy="0" fx="-371.20000000000005" fy="0" gradientTransform="matrix(0.0041, -0.0382, 0.0488, 0.0052, 0.25, -0.15)" gradientUnits="userSpaceOnUse" id="gradient0" r="819.2" spreadMethod="pad">
      <stop offset="0.0392156862745098" stop-color="#ffffff"></stop>
      <stop offset="0.23529411764705882" stop-color="#ffff99"></stop>
      <stop offset="1.0" stop-color="#ff6600"></stop>
    </radialGradient>
    <radialGradient cx="0" cy="0" fx="-371.20000000000005" fy="0" gradientTransform="matrix(0.0032, -0.03, 0.0384, 0.0041, 0.25, -0.15)" gradientUnits="userSpaceOnUse" id="gradient1" r="819.2" spreadMethod="pad">
      <stop offset="0.0392156862745098" stop-color="#ffffff"></stop>
      <stop offset="0.23529411764705882" stop-color="#ffff99"></stop>
      <stop offset="1.0" stop-color="#ff6600"></stop>
    </radialGradient>
  </defs>
</svg>