<?xml version="1.0" encoding="UTF-8" standalone="no"?>
<svg xmlns:xlink="http://www.w3.org/1999/xlink" height="49.3px" width="55.2px" xmlns="http://www.w3.org/2000/svg">
  <g transform="matrix(1.0, 0.0, 0.0, 1.0, 27.6, 26.4)">
    <path d="M5.1 -21.75 Q4.25 -20.1 2.9 -18.85 L1.9 -17.75 1.1 -16.95 0.0 -16.0 2.45 -16.6 3.35 -16.85 Q4.7 -17.25 5.95 -17.9 L7.05 -18.45 8.55 -19.15 Q8.35 -20.95 9.6 -22.25 L10.25 -22.85 Q11.65 -23.85 12.15 -25.4 L12.25 -24.8 13.1 -21.5 13.05 -20.6 12.6 -19.5 12.5 -19.25 12.75 -19.1 15.55 -18.3 16.2 -18.25 18.0 -17.95 Q18.7 -17.85 19.2 -17.35 20.2 -16.45 21.3 -15.8 L21.7 -15.55 21.8 -15.45 22.25 -15.45 22.9 -15.4 Q23.7 -15.5 24.3 -16.0 L24.7 -16.6 Q25.15 -17.65 24.6 -18.55 L24.7 -18.65 24.9 -18.45 25.25 -17.95 Q25.75 -17.25 25.85 -16.5 L25.95 -16.0 Q26.1 -15.35 25.75 -14.7 L25.6 -14.35 25.15 -12.85 Q25.05 -12.45 25.3 -12.05 L25.3 -12.0 25.35 -11.8 25.8 -10.75 26.15 -9.9 26.6 -7.3 26.5 -4.45 Q26.5 -1.8 25.8 0.8 L25.45 2.75 25.3 3.8 Q24.7 6.5 23.4 9.0 22.5 10.6 21.25 11.85 19.5 13.6 17.2 14.7 L12.45 16.9 11.3 17.45 10.2 17.95 6.6 19.5 5.05 19.95 3.15 20.4 1.2 20.85 0.15 21.1 -4.1 21.65 -7.25 21.9 -10.15 21.6 -11.1 21.35 -13.55 20.3 Q-15.05 19.45 -16.6 18.7 L-17.15 18.35 -20.2 15.95 -20.75 15.4 Q-22.65 13.1 -23.35 10.25 L-23.55 9.6 Q-24.55 7.05 -24.35 4.2 L-24.5 2.35 -24.6 1.6 -25.3 -1.4 -26.0 -3.05 -26.35 -3.7 -26.6 -4.3 -24.25 -2.45 -23.15 -1.4 Q-22.95 -1.3 -23.15 -1.75 L-23.3 -2.45 -23.3 -3.5 -23.2 -4.45 Q-22.9 -5.95 -21.85 -7.25 -21.45 -7.7 -21.15 -8.3 -20.45 -9.55 -19.9 -10.95 -19.6 -11.7 -19.45 -12.5 L-19.45 -12.65 -19.7 -13.85 -18.3 -11.4 -18.2 -11.0 -18.1 -10.85 -18.1 -10.9 Q-17.2 -12.65 -15.4 -13.7 L-14.5 -14.25 Q-13.3 -15.15 -12.1 -16.2 -11.2 -17.05 -10.55 -18.1 L-9.85 -18.9 -8.7 -19.7 -5.8 -20.75 -6.05 -20.35 Q-6.9 -19.25 -7.25 -17.85 L-7.5 -17.1 -7.7 -16.6 -7.95 -15.4 -7.4 -15.45 Q-6.75 -16.2 -5.8 -16.2 L-5.8 -16.25 -4.35 -16.7 Q-1.95 -17.65 0.4 -18.7 3.0 -19.8 5.0 -21.85 L5.1 -21.75 M11.75 -18.6 L12.5 -19.25 11.75 -18.6" fill="url(#gradient0)" fill-rule="evenodd" stroke="none"/>
    <path d="M5.1 -21.75 Q4.25 -20.1 2.9 -18.85 L1.9 -17.75 1.1 -16.95 0.0 -16.0 2.45 -16.6 3.35 -16.85 Q4.7 -17.25 5.95 -17.9 L7.05 -18.45 8.55 -19.15 Q8.35 -20.95 9.6 -22.25 L10.25 -22.85 Q11.65 -23.85 12.15 -25.4 L12.25 -24.8 13.1 -21.5 13.05 -20.6 12.6 -19.5 12.5 -19.25 12.75 -19.1 15.55 -18.3 16.2 -18.25 18.0 -17.95 Q18.7 -17.85 19.2 -17.35 20.2 -16.45 21.3 -15.8 L21.7 -15.55 21.8 -15.45 22.25 -15.45 22.9 -15.4 Q23.7 -15.5 24.3 -16.0 L24.7 -16.6 Q25.15 -17.65 24.6 -18.55 M24.7 -18.65 L24.9 -18.45 25.25 -17.95 Q25.75 -17.25 25.85 -16.5 L25.95 -16.0 Q26.1 -15.35 25.75 -14.7 L25.6 -14.35 25.15 -12.85 Q25.05 -12.45 25.3 -12.05 L25.3 -12.0 25.35 -11.8 25.8 -10.75 26.15 -9.9 26.6 -7.3 26.5 -4.45 Q26.5 -1.8 25.8 0.8 L25.45 2.75 25.3 3.8 Q24.7 6.5 23.4 9.0 22.5 10.6 21.25 11.85 19.5 13.6 17.2 14.7 L12.45 16.9 11.3 17.45 10.2 17.95 6.6 19.5 5.05 19.95 3.15 20.4 1.2 20.85 0.15 21.1 -4.1 21.65 -7.25 21.9 -10.15 21.6 -11.1 21.35 -13.55 20.3 Q-15.05 19.45 -16.6 18.7 L-17.15 18.35 -20.2 15.95 -20.75 15.4 Q-22.65 13.1 -23.35 10.25 L-23.55 9.6 Q-24.55 7.05 -24.35 4.2 L-24.5 2.35 -24.6 1.6 -25.3 -1.4 -26.0 -3.05 -26.35 -3.7 -26.6 -4.3 -24.25 -2.45 -23.15 -1.4 Q-22.95 -1.3 -23.15 -1.75 L-23.3 -2.45 -23.3 -3.5 -23.2 -4.45 Q-22.9 -5.95 -21.85 -7.25 -21.45 -7.7 -21.15 -8.3 -20.45 -9.55 -19.9 -10.95 -19.6 -11.7 -19.45 -12.5 L-19.45 -12.65 -19.7 -13.85 -18.3 -11.4 -18.2 -11.0 -18.1 -10.85 -18.1 -10.9 Q-17.2 -12.65 -15.4 -13.7 L-14.5 -14.25 Q-13.3 -15.15 -12.1 -16.2 -11.2 -17.05 -10.55 -18.1 L-9.85 -18.9 -8.7 -19.7 -5.8 -20.75 -6.05 -20.35 Q-6.9 -19.25 -7.25 -17.85 L-7.5 -17.1 -7.7 -16.6 -7.95 -15.4 -7.4 -15.45 Q-6.75 -16.2 -5.8 -16.2 L-5.8 -16.25 -4.35 -16.7 Q-1.95 -17.65 0.4 -18.7 3.0 -19.8 5.0 -21.85 M12.5 -19.25 L11.75 -18.6" fill="none" stroke="#660000" stroke-linecap="round" stroke-linejoin="round" stroke-opacity="0.6" stroke-width="1"/>
  </g>
  <defs>
    <radialGradient cx="0" cy="0" fx="-371.20000000000005" fy="0" gradientTransform="matrix(0.0038, -0.0354, 0.0452, 0.0048, 0.25, -0.15)" gradientUnits="userSpaceOnUse" id="gradient0" r="819.2" spreadMethod="pad">
      <stop offset="0.0392156862745098" stop-color="#ffffff"></stop>
      <stop offset="0.23529411764705882" stop-color="#ffff99"></stop>
      <stop offset="1.0" stop-color="#ff6600"></stop>
    </radialGradient>
  </defs>
</svg>