<?xml version="1.0" encoding="UTF-8" standalone="no"?>
<svg xmlns:xlink="http://www.w3.org/1999/xlink" height="60.3px" width="56.5px" xmlns="http://www.w3.org/2000/svg">
  <g transform="matrix(1.0, 0.0, 0.0, 1.0, 27.45, 37.7)">
    <path d="M13.0 -33.5 L12.8 -33.45 Q11.8 -33.5 11.7 -34.55 L11.85 -35.05 12.65 -36.7 Q13.35 -36.3 13.25 -35.35 L13.25 -34.2 Q13.3 -33.75 13.0 -33.5 M0.7 -23.2 Q1.5 -21.35 2.8 -19.8 L3.45 -19.75 5.65 -21.5 6.55 -22.05 Q8.55 -23.0 9.05 -25.1 L9.4 -27.15 9.85 -24.2 Q10.2 -22.2 9.85 -20.25 9.65 -19.95 10.15 -20.4 10.85 -21.1 11.9 -21.05 L12.65 -21.1 15.7 -21.75 16.15 -22.0 16.9 -22.6 17.2 -22.15 Q17.2 -21.75 17.35 -21.4 17.75 -20.15 18.6 -19.15 L20.15 -16.95 20.75 -15.85 21.65 -13.2 21.75 -12.45 21.75 -12.3 22.55 -13.15 23.1 -13.75 23.65 -14.05 24.65 -14.65 24.9 -14.25 24.9 -13.35 Q25.0 -11.55 25.85 -9.95 26.3 -9.05 26.35 -8.05 26.35 -7.3 26.5 -6.6 L26.55 -5.85 26.55 -4.4 Q27.15 -5.5 28.05 -6.3 L24.85 1.65 24.35 2.9 Q23.35 5.45 21.7 7.6 L20.55 9.0 16.55 13.05 Q14.55 14.9 12.3 16.4 10.0 18.0 7.45 19.2 L5.35 20.0 2.2 20.95 -3.1 21.6 -5.6 21.4 -7.05 21.15 -10.6 20.5 -12.85 19.95 -20.5 15.25 -24.4 8.0 -24.7 7.3 -25.3 6.0 Q-25.8 4.7 -26.45 3.55 L-26.4 3.55 Q-25.65 4.5 -24.5 5.05 L-24.35 5.15 -24.25 4.7 -24.15 1.6 Q-24.1 -0.65 -23.2 -2.8 L-21.75 -5.5 Q-20.45 -7.5 -19.75 -9.85 -18.85 -13.1 -18.8 -16.45 L-18.7 -17.3 -18.55 -18.05 -18.5 -18.8 -18.45 -18.8 -17.05 -13.2 Q-16.6 -13.25 -16.35 -13.75 L-15.55 -14.95 -14.35 -16.4 -12.7 -17.95 -12.0 -18.45 Q-11.95 -18.45 -11.8 -18.6 L-11.65 -18.75 -11.45 -18.95 -11.35 -19.1 -10.8 -19.6 -9.15 -21.45 -8.75 -21.95 -7.85 -23.15 -7.35 -23.65 -5.65 -24.7 -5.1 -24.95 -3.35 -25.55 Q-3.85 -25.05 -3.65 -24.05 L-3.4 -23.5 -3.25 -23.25 -2.85 -22.6 -2.55 -22.0 -1.5 -19.8 -0.85 -18.5 -0.65 -17.75 -0.55 -17.3 0.35 -18.8 Q0.9 -19.8 0.8 -21.1 L0.7 -22.75 0.65 -23.15 0.7 -23.2 M-2.0 -32.15 L-1.85 -32.15 -1.2 -29.65 Q-1.1 -29.1 -1.55 -28.7 L-2.05 -28.3 Q-3.25 -27.25 -4.55 -26.55 -4.85 -26.85 -4.7 -27.6 L-4.6 -27.9 -4.45 -28.1 -2.5 -30.9 -2.1 -31.7 -2.0 -32.15" fill="url(#gradient0)" fill-rule="evenodd" stroke="none"/>
    <path d="M13.0 -33.5 L12.8 -33.45 Q11.8 -33.5 11.7 -34.55 L11.85 -35.05 12.65 -36.7 Q13.35 -36.3 13.25 -35.35 L13.25 -34.2 Q13.3 -33.75 13.0 -33.5 M0.7 -23.2 Q1.5 -21.35 2.8 -19.8 L3.45 -19.75 5.65 -21.5 6.55 -22.05 Q8.55 -23.0 9.05 -25.1 L9.4 -27.15 9.85 -24.2 Q10.2 -22.2 9.85 -20.25 9.65 -19.95 10.15 -20.4 10.85 -21.1 11.9 -21.05 L12.65 -21.1 15.7 -21.75 16.15 -22.0 16.9 -22.6 17.2 -22.15 Q17.2 -21.75 17.35 -21.4 17.75 -20.15 18.6 -19.15 L20.15 -16.95 20.75 -15.85 21.65 -13.2 21.75 -12.45 21.75 -12.3 22.55 -13.15 23.1 -13.75 23.65 -14.05 24.65 -14.65 24.9 -14.25 24.9 -13.35 Q25.0 -11.55 25.85 -9.95 26.3 -9.05 26.35 -8.05 26.35 -7.3 26.5 -6.6 L26.55 -5.85 26.55 -4.4 Q27.15 -5.5 28.05 -6.3 L24.85 1.65 24.35 2.9 Q23.35 5.45 21.7 7.6 L20.55 9.0 16.55 13.05 Q14.55 14.9 12.3 16.4 10.0 18.0 7.45 19.2 L5.35 20.0 2.2 20.95 -3.1 21.6 -5.6 21.4 -7.05 21.15 -10.6 20.5 -12.85 19.95 -20.5 15.25 -24.4 8.0 -24.7 7.3 -25.3 6.0 Q-25.8 4.7 -26.45 3.55 L-26.45 3.5 -26.4 3.55 Q-25.65 4.5 -24.5 5.05 L-24.35 5.15 -24.25 4.7 -24.15 1.6 Q-24.1 -0.65 -23.2 -2.8 L-21.75 -5.5 Q-20.45 -7.5 -19.75 -9.85 -18.85 -13.1 -18.8 -16.45 L-18.7 -17.3 -18.55 -18.05 -18.5 -18.8 -18.5 -19.1 -18.45 -18.8 -17.05 -13.2 Q-16.6 -13.25 -16.35 -13.75 L-15.55 -14.95 -14.35 -16.4 -12.7 -17.95 -12.0 -18.45 -11.65 -18.75 -11.45 -18.95 -11.35 -19.1 -10.8 -19.6 -9.15 -21.45 -8.75 -21.95 -7.85 -23.15 -7.35 -23.65 -5.65 -24.7 -5.1 -24.95 -3.35 -25.55 Q-3.85 -25.05 -3.65 -24.05 L-3.4 -23.5 -3.25 -23.25 -2.85 -22.6 -2.55 -22.0 -1.5 -19.8 -0.85 -18.5 -0.65 -17.75 -0.55 -17.3 0.35 -18.8 Q0.9 -19.8 0.8 -21.1 L0.7 -22.75 0.65 -23.15 0.6 -23.3 0.7 -23.2 M-1.85 -32.15 L-1.9 -32.25 -1.9 -32.4 -1.95 -32.25 -2.0 -32.15 -2.1 -31.7 -2.5 -30.9 -4.45 -28.1 -4.6 -27.9 -4.7 -27.6 Q-4.85 -26.85 -4.55 -26.55 -3.25 -27.25 -2.05 -28.3 L-1.55 -28.7 Q-1.1 -29.1 -1.2 -29.65 L-1.85 -32.15 M-12.0 -18.45 Q-11.95 -18.45 -11.8 -18.6 L-11.65 -18.75" fill="none" stroke="#660000" stroke-linecap="round" stroke-linejoin="round" stroke-opacity="0.6" stroke-width="1"/>
  </g>
  <defs>
    <radialGradient cx="0" cy="0" fx="-371.20000000000005" fy="0" gradientTransform="matrix(0.0032, -0.03, 0.0384, 0.0041, 0.25, -0.15)" gradientUnits="userSpaceOnUse" id="gradient0" r="819.2" spreadMethod="pad">
      <stop offset="0.0392156862745098" stop-color="#ffffff"></stop>
      <stop offset="0.23529411764705882" stop-color="#ffff99"></stop>
      <stop offset="1.0" stop-color="#ff6600"></stop>
    </radialGradient>
  </defs>
</svg>