<?xml version="1.0" encoding="UTF-8" standalone="no"?>
<svg xmlns:xlink="http://www.w3.org/1999/xlink" height="13.05px" width="27.25px" xmlns="http://www.w3.org/2000/svg">
  <g transform="matrix(1.0, 0.0, 0.0, 1.0, 14, 7.8)">
    <path d="M-1.55 -3.4 L-2.0 -3.6 -2.35 -2.5 -1.55 -3.4 M-0.45 -3.05 L-0.65 -3.1 -0.7 -2.7 -0.45 -3.05 M3.15 2.35 L1.05 3.3 0.95 1.1 3.15 2.35 M2.65 -3.3 L3.6 -4.9 4.05 -2.85 5.35 -4.45 6.15 -4.55 6.75 -4.25 8.15 -4.85 9.5 -3.1 6.6 4.25 5.4 3.4 5.65 -0.85 4.5 2.4 1.8 1.2 2.9 -0.9 1.95 -1.1 -0.1 2.85 -1.2 1.0 -0.95 0.0 -2.3 1.95 -3.2 2.8 Q-3.8 3.15 -3.9 2.55 L-4.25 3.25 -6.75 3.15 -7.7 2.35 -7.95 -0.3 -11.0 2.1 -11.45 1.95 Q-12.3 1.2 -12.35 0.1 -12.55 -3.55 -9.5 -5.8 L-7.45 -5.05 Q-5.7 -5.9 -4.0 -6.8 L-2.95 -6.25 -3.2 -3.05 -2.1 -5.8 -1.35 -5.15 0.45 -5.75 0.55 -4.15 2.65 -3.3" fill="#ff851f" fill-opacity="0.4509804" fill-rule="evenodd" stroke="none"/>
    <path d="M-5.85 1.6 L-1.3 0.1 -5.05 0.1 -5.85 1.6 M-1.35 -3.9 L-0.4 -2.35 0.6 -3.9 -1.35 -3.9 M-1.65 -2.9 L-1.05 -1.25 0.55 -1.35 -1.65 -2.9 M-2.1 -3.75 L-4.7 -3.75 -5.85 -2.4 -2.1 -3.75 M-6.95 -0.8 L-9.6 -0.95 -6.95 -2.35 -10.9 -0.95 -5.9 -0.15 -6.95 -0.8 M2.1 -0.75 L1.7 -0.35 2.1 0.0 3.0 0.15 3.95 0.0 4.3 -0.35 3.95 -0.75 3.0 -0.9 2.1 -0.75 M1.4 -4.4 L2.0 -1.9 6.7 -3.8 7.05 -1.6 8.6 -1.9 Q10.45 -0.95 12.25 -0.1 L7.95 -1.25 7.25 0.6 -6.3 2.3 -6.65 0.8 -13.0 -0.8 Q-10.7 -2.25 -8.45 -3.75 L-6.45 -3.35 -5.55 -4.5 1.4 -4.4 M4.3 -1.65 L5.0 -1.55 5.85 -2.65 4.3 -1.65" fill="#ff841e" fill-rule="evenodd" stroke="none"/>
  </g>
</svg>