<?xml version="1.0" encoding="UTF-8" standalone="no"?>
<svg xmlns:xlink="http://www.w3.org/1999/xlink" height="14.1px" width="25.45px" xmlns="http://www.w3.org/2000/svg">
  <g transform="matrix(1.0, 0.0, 0.0, 1.0, 14.05, 8.4)">
    <path d="M1.8 -7.3 L3.1 -7.4 3.5 -6.25 3.6 -5.75 Q3.65 -4.6 3.15 -3.75 L1.6 -0.85 5.1 -4.65 5.5 -3.9 6.5 -4.95 7.85 -5.05 9.8 -2.45 8.1 3.4 6.25 3.8 5.4 2.0 4.4 1.65 3.15 2.05 2.2 3.2 3.35 4.1 1.75 4.3 1.55 3.6 -1.05 4.7 0.0 2.4 -1.85 3.8 -3.65 1.2 -4.55 2.3 -7.5 3.15 -8.05 1.8 -9.15 1.1 -10.85 2.6 -13.05 0.9 -10.3 -5.8 -8.75 -5.4 -8.05 -3.95 -7.1 -5.35 -5.85 -5.15 -5.5 -4.55 -4.35 -5.0 -3.65 -3.15 -0.45 -5.5 -0.3 -3.95 1.8 -7.3" fill="#ff851f" fill-opacity="0.4509804" fill-rule="evenodd" stroke="none"/>
    <path d="M-0.9 -3.3 L-3.05 -3.3 -2.0 -2.05 -0.9 -3.3 M0.3 0.6 L2.95 -0.05 4.25 -1.7 0.3 0.6 M6.9 -1.55 L5.15 -2.2 4.4 0.0 6.9 -1.55 M1.8 -4.85 L4.05 -3.2 8.05 -1.6 3.65 1.5 10.0 -1.7 Q11.0 -0.55 9.55 0.7 L8.05 1.65 7.9 1.75 7.25 2.1 6.7 2.45 5.95 2.65 7.1 1.1 3.35 2.15 2.7 1.4 2.85 1.05 -1.1 0.8 -0.75 0.0 -1.5 -0.75 -7.35 1.65 -7.2 0.3 -11.55 -0.35 -9.3 -2.5 -9.75 -3.45 -6.0 -3.25 -7.0 -2.95 -6.15 -2.2 -3.2 -4.0 -0.75 -4.0 -0.15 -4.85 1.8 -4.85 M0.25 -2.05 L2.8 -2.85 0.45 -4.05 1.25 -3.1 0.25 -2.05 M-3.0 -1.8 L-3.55 -3.0 -5.85 -1.25 -3.8 -1.1 -6.5 1.05 -3.6 -0.15 -4.15 -0.65 -3.0 -1.8" fill="#ff841e" fill-rule="evenodd" stroke="none"/>
  </g>
</svg>