<?xml version="1.0" encoding="UTF-8" standalone="no"?>
<svg xmlns:xlink="http://www.w3.org/1999/xlink" height="11.95px" width="24.7px" xmlns="http://www.w3.org/2000/svg">
  <g transform="matrix(1.0, 0.0, 0.0, 1.0, 13.75, 6.4)">
    <path d="M1.05 -4.25 L1.3 -4.15 1.4 -3.95 1.4 -3.7 2.7 -4.95 5.95 -3.75 6.8 -2.1 6.55 -0.95 7.85 -1.15 6.45 2.6 5.4 2.25 4.25 3.2 5.75 2.9 4.95 4.25 1.0 3.85 0.55 3.1 -0.2 3.65 0.5 3.75 -1.1 4.55 -1.95 2.6 -2.4 3.45 -2.3 2.65 -3.35 3.5 -4.65 1.95 -4.2 -0.4 -6.6 3.1 -6.6 1.05 -9.5 2.1 Q-11.65 -0.2 -10.35 -3.1 L-9.75 -4.2 -4.95 -5.4 -3.75 -4.8 -2.3 -5.25 -1.85 -4.05 -0.2 -5.2 -1.15 -1.75 1.05 -4.25" fill="#ff851f" fill-opacity="0.4509804" fill-rule="evenodd" stroke="none"/>
    <path d="M4.95 2.0 L6.8 1.1 5.9 0.4 4.95 2.0 M-1.65 0.95 L-4.35 1.55 -3.1 1.7 -1.65 0.95 M-3.65 -0.65 L-2.6 -0.35 -2.0 -1.3 -9.9 1.25 -6.55 1.35 -6.85 0.85 -3.65 -0.65 M-1.35 -3.35 L-4.1 -2.2 3.65 -2.35 -1.35 -3.35 M-7.5 -3.1 L-9.75 -4.2 -10.65 -3.6 -7.5 -3.1 M-11.2 -2.2 L-11.65 -1.65 -8.55 -1.25 -11.2 -2.2 M1.9 -1.75 L0.15 -2.05 -1.6 -1.4 -0.7 -0.95 1.9 -1.75 M6.45 -1.35 L5.5 -2.65 4.5 -1.6 6.45 -1.35 M5.4 -0.65 L2.0 -0.55 -0.05 0.45 1.05 2.15 2.15 2.3 3.35 -0.45 5.4 -0.65 M4.4 -2.95 L5.95 -3.35 8.5 -0.15 9.95 -0.45 8.85 1.5 3.6 3.1 3.75 2.15 2.45 2.95 -0.9 1.85 -5.6 1.95 -11.4 1.45 -8.7 -0.45 -12.75 -1.4 -11.75 -3.75 Q-11.0 -4.35 -9.9 -4.65 -8.5 -4.9 -7.4 -4.25 L-7.25 -4.15 -7.05 -4.0 -6.9 -3.9 -5.5 -4.3 -5.25 -2.95 -1.3 -4.35 4.4 -2.95" fill="#ff841e" fill-rule="evenodd" stroke="none"/>
  </g>
</svg>