<?xml version="1.0" encoding="UTF-8" standalone="no"?>
<svg xmlns:xlink="http://www.w3.org/1999/xlink" height="14.25px" width="25px" xmlns="http://www.w3.org/2000/svg">
  <g transform="matrix(1.0, 0.0, 0.0, 1.0, 14, 7.75)">
    <path d="M-1.55 3.7 L-0.1 3.5 -0.75 4.05 Q-1.15 3.9 -1.55 3.7 M1.05 -2.3 L3.7 -5.1 4.2 -1.2 6.35 -2.75 5.55 0.65 8.65 -2.35 3.95 4.15 2.3 4.6 0.1 1.85 -0.55 2.85 -2.1 3.45 -2.4 2.65 -3.65 3.9 -4.8 3.95 -6.7 5.5 -7.85 4.9 -8.2 1.7 -9.4 1.95 -10.0 2.5 -11.65 2.25 -12.05 1.1 Q-12.2 0.4 -12.0 -0.2 -11.4 -2.25 -10.4 -4.1 L-9.6 -5.0 -7.6 -1.4 -4.1 -6.75 -3.05 -6.05 -2.1 -1.8 -0.25 -4.9 0.15 -4.0 1.25 -4.9 1.05 -2.3" fill="#ff851f" fill-opacity="0.4509804" fill-rule="evenodd" stroke="none"/>
    <path d="M-4.55 -1.4 L-3.3 -1.1 -1.6 -1.1 -3.7 -3.65 -6.5 -1.95 -4.9 -1.5 -6.45 -1.4 -4.2 -1.0 -4.55 -1.4 M-8.15 -1.2 L-6.5 -3.45 -10.15 -1.9 -7.35 0.3 -5.35 -0.25 -4.5 -0.05 -8.15 -1.2 M3.45 0.65 L4.7 1.4 4.6 0.4 -3.2 -0.2 -3.9 0.45 3.45 0.65 M4.95 -2.65 L3.75 -2.85 2.45 -2.6 Q1.9 -2.35 1.9 -2.0 1.9 -1.6 2.45 -1.35 L3.75 -1.1 5.05 -1.35 Q5.6 -1.6 5.6 -2.0 L5.3 -2.5 6.75 -1.8 8.1 -2.15 9.3 -1.7 7.75 -0.35 10.0 -0.65 9.25 2.25 9.3 -0.25 4.55 2.3 2.7 2.15 Q-0.9 4.35 -4.9 2.45 L-5.9 1.7 -7.6 1.1 -11.5 1.3 -8.45 0.25 -9.65 -0.8 -10.7 -0.4 -12.05 1.3 -13.0 1.2 Q-11.5 -2.35 -7.2 -3.75 L-5.5 -4.2 -3.25 -4.5 0.15 -1.9 1.85 -4.1 4.95 -2.65" fill="#ff841e" fill-rule="evenodd" stroke="none"/>
  </g>
</svg>