<?xml version="1.0" encoding="UTF-8" standalone="no"?>
<svg xmlns:xlink="http://www.w3.org/1999/xlink" height="22.2px" width="29.1px" xmlns="http://www.w3.org/2000/svg">
  <g transform="matrix(1.0, 0.0, 0.0, 1.0, 14.55, 11.1)">
    <path d="M13.5 2.65 L13.55 2.8 13.0 3.95 12.4 4.45 Q11.6 5.0 10.55 5.2 L7.35 5.8 6.95 5.65 4.85 5.05 2.45 6.25 2.7 7.25 2.7 7.65 2.5 8.5 1.95 9.85 0.95 9.95 -0.25 9.75 Q-2.1 9.45 -3.3 8.25 L-3.05 5.0 -4.35 5.15 Q-6.0 5.35 -7.35 4.4 -8.55 5.3 -10.0 5.6 -11.15 5.75 -12.05 5.05 -13.05 4.2 -13.4 3.0 L-13.5 1.8 Q-13.1 0.6 -12.05 -0.05 L-13.05 -1.15 -13.15 -1.55 Q-11.3 -4.75 -10.0 -8.3 L-8.65 -8.65 -5.25 -9.0 -3.25 -9.55 -2.45 -9.75 0.25 -10.05 Q0.55 -10.35 2.25 -9.4 4.05 -8.45 4.65 -7.1 4.85 -6.55 5.15 -6.15 L6.05 -5.1 7.15 -4.65 Q8.0 -4.4 10.35 -1.55 L13.5 2.65 M-7.9 0.85 L-8.0 1.15 -8.35 1.85 -8.55 2.65 Q-8.5 3.95 -7.35 4.4 -8.5 3.95 -8.55 2.65 L-8.35 1.85 -8.0 1.15 -7.9 0.85 -8.4 1.35 -9.7 1.25 Q-11.05 1.0 -12.05 -0.05 -11.05 1.0 -9.7 1.25 L-8.4 1.35 -7.9 0.85 -6.2 -3.0 -5.65 -3.9 -5.1 -4.25 -2.15 -4.15 0.0 -3.75 1.1 -3.6 0.0 -3.75 -2.15 -4.15 -5.1 -4.25 -5.65 -3.9 -6.2 -3.0 -7.9 0.85 M3.35 -0.25 L2.9 -0.4 -1.45 0.7 Q-3.55 1.25 -3.25 3.45 L-3.05 5.0 -3.25 3.45 Q-3.55 1.25 -1.45 0.7 L2.9 -0.4 3.35 -0.25" fill="url(#gradient0)" fill-rule="evenodd" stroke="none"/>
    <path d="M13.5 2.65 L13.55 2.8 13.0 3.95 12.4 4.45 Q11.6 5.0 10.55 5.2 L7.35 5.8 6.95 5.65 4.85 5.05 2.45 6.25 2.7 7.25 2.7 7.65 2.5 8.5 1.95 9.85 0.95 9.95 -0.25 9.75 Q-2.1 9.45 -3.3 8.25 L-3.05 5.0 -4.35 5.15 Q-6.0 5.35 -7.35 4.4 -8.55 5.3 -10.0 5.6 -11.15 5.75 -12.05 5.05 -13.05 4.2 -13.4 3.0 L-13.5 1.8 Q-13.1 0.6 -12.05 -0.05 L-13.05 -1.15 -13.15 -1.55 Q-11.3 -4.75 -10.0 -8.3 L-8.65 -8.65 -5.25 -9.0 -3.25 -9.55 -2.45 -9.75 0.25 -10.05 Q0.55 -10.35 2.25 -9.4 4.05 -8.45 4.65 -7.1 4.85 -6.55 5.15 -6.15 L6.05 -5.1 M-12.05 -0.05 Q-11.05 1.0 -9.7 1.25 L-8.4 1.35 -7.9 0.85 -6.2 -3.0 -5.65 -3.9 -5.1 -4.25 -2.15 -4.15 0.0 -3.75 1.1 -3.6 M-3.05 5.0 L-3.25 3.45 Q-3.55 1.25 -1.45 0.7 L2.9 -0.4 3.35 -0.25 M-7.35 4.4 Q-8.5 3.95 -8.55 2.65 L-8.35 1.85 -8.0 1.15 -7.9 0.85" fill="none" stroke="#660000" stroke-linecap="round" stroke-linejoin="round" stroke-opacity="0.6" stroke-width="1"/>
  </g>
  <defs>
    <radialGradient cx="0" cy="0" fx="-374.40000000000003" fy="0" gradientTransform="matrix(-0.0209, 0.0121, -0.0121, -0.0209, -0.5, 1.25)" gradientUnits="userSpaceOnUse" id="gradient0" r="819.2" spreadMethod="pad">
      <stop offset="0.0392156862745098" stop-color="#ffffff"></stop>
      <stop offset="0.23529411764705882" stop-color="#ffff99"></stop>
      <stop offset="1.0" stop-color="#ff6600"></stop>
    </radialGradient>
  </defs>
</svg>