<?xml version="1.0" encoding="UTF-8" standalone="no"?>
<svg xmlns:xlink="http://www.w3.org/1999/xlink" height="22.15px" width="29px" xmlns="http://www.w3.org/2000/svg">
  <g transform="matrix(1.0, 0.0, 0.0, 1.0, 14.5, 11.05)">
    <path d="M-12.05 -0.05 L-13.15 -1.55 -10.0 -8.3 -6.95 -8.95 -1.05 -9.95 Q0.7 -10.35 2.2 -9.35 4.55 -7.65 6.05 -5.1 8.7 -4.05 10.5 -1.65 L13.5 2.65 Q13.45 3.7 12.35 4.35 L10.55 5.2 4.85 5.05 2.45 6.25 1.45 10.1 -3.3 8.25 -3.05 5.0 Q-4.0 1.95 -1.35 0.95 L3.2 -0.35 -1.35 0.95 Q-4.0 1.95 -3.05 5.0 L-7.35 4.4 -8.4 3.3 -7.9 0.85 -8.4 1.35 -12.05 -0.05 -8.4 1.35 -7.9 0.85 -5.1 -4.25 1.1 -3.6 -5.1 -4.25 -7.9 0.85 -8.4 3.3 -7.35 4.4 Q-10.6 6.65 -12.85 3.75 -13.45 2.95 -13.5 1.8 L-12.05 -0.05" fill="url(#gradient0)" fill-rule="evenodd" stroke="none"/>
    <path d="M6.05 -5.1 Q4.55 -7.65 2.2 -9.35 0.7 -10.35 -1.05 -9.95 L-6.95 -8.95 -10.0 -8.3 -13.15 -1.55 -12.05 -0.05 -8.4 1.35 -7.9 0.85 -5.1 -4.25 1.1 -3.6 M-3.05 5.0 L-3.3 8.25 1.45 10.1 2.45 6.25 4.85 5.05 10.55 5.2 12.35 4.35 Q13.45 3.7 13.5 2.65 M-7.35 4.4 L-8.4 3.3 -7.9 0.85 M-3.05 5.0 Q-4.0 1.95 -1.35 0.95 L3.2 -0.35 M-7.35 4.4 L-3.05 5.0 M-12.05 -0.05 L-13.5 1.8 Q-13.45 2.95 -12.85 3.75 -10.6 6.65 -7.35 4.4" fill="none" stroke="#660000" stroke-linecap="round" stroke-linejoin="round" stroke-opacity="0.6" stroke-width="1"/>
  </g>
  <defs>
    <radialGradient cx="0" cy="0" fx="-374.40000000000003" fy="0" gradientTransform="matrix(-0.0269, 0.0155, -0.0155, -0.0269, -0.5, 1.25)" gradientUnits="userSpaceOnUse" id="gradient0" r="819.2" spreadMethod="pad">
      <stop offset="0.0392156862745098" stop-color="#ffffff"></stop>
      <stop offset="0.23529411764705882" stop-color="#ffff99"></stop>
      <stop offset="1.0" stop-color="#ff6600"></stop>
    </radialGradient>
  </defs>
</svg>