<?xml version="1.0" encoding="UTF-8" standalone="no"?>
<svg xmlns:xlink="http://www.w3.org/1999/xlink" height="20.3px" width="26.65px" xmlns="http://www.w3.org/2000/svg">
  <g transform="matrix(1.0, 0.0, 0.0, 1.0, 13.15, 9.95)">
    <path d="M5.6 -4.7 L6.05 -4.5 Q10.1 -1.65 12.5 2.45 L11.7 3.4 Q8.55 6.5 4.5 4.65 L2.25 5.8 2.3 7.1 2.05 8.45 1.8 9.1 1.35 9.35 -0.9 8.6 -3.05 7.65 -2.8 4.6 Q-2.6 -0.05 2.7 -0.35 L3.1 -0.25 2.7 -0.35 Q-2.6 -0.05 -2.8 4.6 L-3.6 4.85 Q-5.35 4.95 -6.8 4.05 L-7.7 4.4 Q-13.35 5.45 -11.15 -0.05 L-12.15 -1.45 Q-10.0 -4.3 -9.25 -7.7 L-7.75 -8.2 Q0.55 -10.75 5.6 -4.7 M1.0 -3.35 L-4.7 -3.95 -7.3 0.8 -7.75 1.25 Q-9.7 1.45 -11.15 -0.05 -9.7 1.45 -7.75 1.25 L-7.3 0.8 -4.7 -3.95 1.0 -3.35 M-7.3 0.8 Q-8.2 2.15 -7.3 3.4 L-6.8 4.05 -7.3 3.4 Q-8.2 2.15 -7.3 0.8" fill="url(#gradient0)" fill-rule="evenodd" stroke="none"/>
    <path d="M5.6 -4.7 Q0.55 -10.75 -7.75 -8.2 L-9.25 -7.7 Q-10.0 -4.3 -12.15 -1.45 L-11.15 -0.05 Q-9.7 1.45 -7.75 1.25 L-7.3 0.8 -4.7 -3.95 1.0 -3.35 M3.1 -0.25 L2.7 -0.35 Q-2.6 -0.05 -2.8 4.6 L-3.05 7.65 -0.9 8.6 1.35 9.35 1.8 9.1 2.05 8.45 2.3 7.1 2.25 5.8 4.5 4.65 Q8.55 6.5 11.7 3.4 L12.5 2.45 M-11.15 -0.05 Q-13.35 5.45 -7.7 4.4 L-6.8 4.05 -7.3 3.4 Q-8.2 2.15 -7.3 0.8 M-2.8 4.6 L-3.6 4.85 Q-5.35 4.95 -6.8 4.05" fill="none" stroke="#660000" stroke-linecap="round" stroke-linejoin="round" stroke-opacity="0.6" stroke-width="1"/>
  </g>
  <defs>
    <radialGradient cx="0" cy="0" fx="-374.40000000000003" fy="0" gradientTransform="matrix(-0.0233, 0.0134, -0.0134, -0.0233, -0.45, 1.15)" gradientUnits="userSpaceOnUse" id="gradient0" r="819.2" spreadMethod="pad">
      <stop offset="0.0392156862745098" stop-color="#ffffff"></stop>
      <stop offset="0.23529411764705882" stop-color="#ffff99"></stop>
      <stop offset="1.0" stop-color="#ff6600"></stop>
    </radialGradient>
  </defs>
</svg>