<?xml version="1.0" encoding="UTF-8" standalone="no"?>
<svg xmlns:xlink="http://www.w3.org/1999/xlink" height="19.45px" width="24.75px" xmlns="http://www.w3.org/2000/svg">
  <g transform="matrix(1.0, 0.0, 0.0, 1.0, 12.4, 9.75)">
    <path d="M2.95 -6.7 L2.95 -6.6 Q2.9 -5.75 3.35 -6.4 L5.6 -5.6 Q6.55 -5.15 6.75 -5.15 L7.35 -4.3 8.55 -3.0 10.5 -1.15 11.35 0.1 11.0 1.05 10.55 1.85 Q9.6 3.75 9.7 5.85 L9.55 6.5 9.1 7.05 7.0 8.2 6.05 8.6 5.2 8.65 Q4.25 8.6 3.6 7.95 2.2 6.35 2.55 4.45 L3.7 4.05 4.55 3.55 4.85 3.1 Q5.25 2.15 5.1 1.25 L4.7 -0.05 3.25 -0.75 0.9 -0.2 0.85 1.05 0.8 4.45 0.4 4.95 -0.9 5.85 -1.45 6.05 -3.6 5.5 -4.9 4.85 -5.25 4.3 -5.25 3.4 Q-4.8 1.35 -5.3 -0.7 -5.75 -2.65 -5.8 -4.65 L-5.55 -5.2 -4.7 -6.1 -3.9 -6.9 -4.7 -6.1 -5.55 -5.2 -5.8 -4.65 Q-5.75 -2.65 -5.3 -0.7 -4.8 1.35 -5.25 3.4 L-5.25 4.3 -4.9 4.85 -3.6 5.5 -4.85 6.7 -4.95 6.8 -6.85 5.45 -8.2 3.95 -8.45 3.25 -8.4 2.6 -8.1 1.0 -7.95 -0.7 -8.0 -1.45 -7.95 -0.7 -8.1 1.0 -8.4 2.6 -8.45 3.25 -8.2 3.95 -6.85 5.45 Q-7.05 6.65 -8.0 7.25 L-10.15 7.3 -10.4 6.75 Q-10.35 4.25 -11.2 1.95 L-11.35 0.4 -11.1 -0.6 -8.0 -1.45 -8.3 -4.7 -8.3 -5.45 Q-8.2 -6.4 -7.25 -6.55 L-3.9 -6.9 Q-2.65 -8.3 -1.0 -8.7 L-0.45 -8.7 0.05 -8.5 2.2 -7.2 2.95 -6.7 2.2 -7.2 2.55 -7.65 Q2.95 -7.45 2.95 -6.7 M4.4 -0.55 L4.7 -0.05 4.4 -0.55" fill="url(#gradient0)" fill-rule="evenodd" stroke="none"/>
    <path d="M0.85 1.05 L0.9 -0.2 3.25 -0.75 4.7 -0.05 5.1 1.25 4.2 1.4 2.6 1.5 1.15 1.2 0.85 1.05" fill="url(#gradient1)" fill-rule="evenodd" stroke="none"/>
    <path d="M6.75 -5.15 L6.5 -5.6 M2.95 -6.7 L2.2 -7.2 0.05 -8.5 -0.45 -8.7 -1.0 -8.7 Q-2.65 -8.3 -3.9 -6.9 L-4.7 -6.1 -5.55 -5.2 -5.8 -4.65 Q-5.75 -2.65 -5.3 -0.7 -4.8 1.35 -5.25 3.4 L-5.25 4.3 -4.9 4.85 -3.6 5.5 -1.45 6.05 -0.9 5.85 0.4 4.95 0.8 4.45 0.85 1.05 0.9 -0.2 3.25 -0.75 4.7 -0.05 4.4 -0.55 M5.1 1.25 Q5.25 2.15 4.85 3.1 L4.55 3.55 3.7 4.05 2.55 4.45 Q2.2 6.35 3.6 7.95 4.25 8.6 5.2 8.65 L6.05 8.6 7.0 8.2 9.1 7.05 9.55 6.5 9.7 5.85 Q9.6 3.75 10.55 1.85 L11.0 1.05 11.35 0.1 10.5 -1.15 8.55 -3.0 7.35 -4.3 6.75 -5.15 M3.35 -6.4 L2.95 -6.7 M0.85 1.05 L1.15 1.2 2.6 1.5 4.2 1.4 5.1 1.25 4.7 -0.05 M-8.0 -1.45 L-7.95 -0.7 -8.1 1.0 -8.4 2.6 -8.45 3.25 -8.2 3.95 -6.85 5.45 -4.95 6.8 -4.85 6.7 -3.6 5.5 M-3.9 -6.9 L-7.25 -6.55 Q-8.2 -6.4 -8.3 -5.45 L-8.3 -4.7 -8.0 -1.45 -11.1 -0.6 -11.35 0.4 -11.2 1.95 Q-10.35 4.25 -10.4 6.75 L-10.15 7.3 -8.0 7.25 Q-7.05 6.65 -6.85 5.45" fill="none" stroke="#660000" stroke-linecap="round" stroke-linejoin="round" stroke-opacity="0.6" stroke-width="1"/>
  </g>
  <defs>
    <radialGradient cx="0" cy="0" fx="-374.40000000000003" fy="0" gradientTransform="matrix(0.0389, 0.0, 0.0, 0.0389, 16.0, -3.25)" gradientUnits="userSpaceOnUse" id="gradient0" r="819.2" spreadMethod="pad">
      <stop offset="0.0392156862745098" stop-color="#ffffff"></stop>
      <stop offset="0.23529411764705882" stop-color="#ffff99"></stop>
      <stop offset="1.0" stop-color="#ff6600"></stop>
    </radialGradient>
    <radialGradient cx="0" cy="0" fx="-374.40000000000003" fy="0" gradientTransform="matrix(0.5839, 0.0, 0.0, 0.5839, 41.8, -9.3)" gradientUnits="userSpaceOnUse" id="gradient1" r="819.2" spreadMethod="pad">
      <stop offset="0.0392156862745098" stop-color="#ffffff"></stop>
      <stop offset="0.23529411764705882" stop-color="#ffff99"></stop>
      <stop offset="1.0" stop-color="#ff6600"></stop>
    </radialGradient>
  </defs>
</svg>