<?xml version="1.0" encoding="UTF-8" standalone="no"?>
<svg xmlns:xlink="http://www.w3.org/1999/xlink" height="22.95px" width="18.85px" xmlns="http://www.w3.org/2000/svg">
  <g transform="matrix(1.0, 0.0, 0.0, 1.0, 9.45, 11.5)">
    <path d="M-6.9 9.45 L-7.3 8.4 -8.25 5.7 -8.45 3.4 -7.95 -1.15 -7.1 -4.25 Q-6.25 -6.4 -4.55 -7.85 -2.85 -9.15 -0.85 -9.65 L2.3 -10.25 4.15 -10.5 Q5.95 -10.5 7.45 -9.55 L7.9 -8.5 8.1 -6.55 Q8.5 -4.5 8.35 -2.5 L8.15 -0.55 7.9 0.55 7.45 1.75 7.4 2.2 Q6.25 3.95 4.6 5.3 L1.3 7.8 -2.5 10.1 -2.85 10.45 -3.1 10.3 Q-4.85 10.8 -6.4 9.75 L-6.9 9.45" fill="url(#gradient0)" fill-rule="evenodd" stroke="none"/>
    <path d="M-6.9 9.45 L-7.3 8.4 -8.25 5.7 -8.45 3.4 -7.95 -1.15 -7.1 -4.25 Q-6.25 -6.4 -4.55 -7.85 -2.85 -9.15 -0.85 -9.65 L2.3 -10.25 4.15 -10.5 Q5.95 -10.5 7.45 -9.55 M7.45 1.75 L7.4 2.2 Q6.25 3.95 4.6 5.3 L1.3 7.8 -2.5 10.1 -2.85 10.45 -3.1 10.3" fill="none" stroke="#660000" stroke-linecap="round" stroke-linejoin="round" stroke-opacity="0.6" stroke-width="1"/>
  </g>
  <defs>
    <radialGradient cx="0" cy="0" fx="-371.20000000000005" fy="0" gradientTransform="matrix(0.0223, 0.0, 0.0, 0.0223, 5.2, 3.25)" gradientUnits="userSpaceOnUse" id="gradient0" r="819.2" spreadMethod="pad">
      <stop offset="0.0392156862745098" stop-color="#ffffff"></stop>
      <stop offset="0.23529411764705882" stop-color="#ffff99"></stop>
      <stop offset="1.0" stop-color="#ff6600"></stop>
    </radialGradient>
  </defs>
</svg>