<?xml version="1.0" encoding="UTF-8" standalone="no"?>
<svg xmlns:xlink="http://www.w3.org/1999/xlink" height="24.9px" width="19.95px" xmlns="http://www.w3.org/2000/svg">
  <g transform="matrix(1.0, 0.0, 0.0, 1.0, 9.9, 12.55)">
    <path d="M8.05 -10.3 L8.25 -9.7 Q9.9 -3.8 8.05 1.9 7.4 3.6 5.95 4.85 L4.95 5.7 -3.1 11.3 -3.35 11.15 Q-5.4 11.7 -6.95 10.6 L-7.45 10.2 Q-10.7 2.45 -6.75 -5.2 -3.95 -10.7 2.45 -11.55 5.4 -11.7 8.05 -10.3" fill="url(#gradient0)" fill-rule="evenodd" stroke="none"/>
    <path d="M8.05 1.9 Q7.4 3.6 5.95 4.85 L4.95 5.7 -3.1 11.3 -3.35 11.15 M-7.45 10.2 Q-10.7 2.45 -6.75 -5.2 -3.95 -10.7 2.45 -11.55 5.4 -11.7 8.05 -10.3" fill="none" stroke="#660000" stroke-linecap="round" stroke-linejoin="round" stroke-opacity="0.6" stroke-width="1"/>
  </g>
  <defs>
    <radialGradient cx="0" cy="0" fx="-371.20000000000005" fy="0" gradientTransform="matrix(0.0345, 0.0, 0.0, 0.0345, 5.6, 3.5)" gradientUnits="userSpaceOnUse" id="gradient0" r="819.2" spreadMethod="pad">
      <stop offset="0.0392156862745098" stop-color="#ffffff"></stop>
      <stop offset="0.23529411764705882" stop-color="#ffff99"></stop>
      <stop offset="1.0" stop-color="#ff6600"></stop>
    </radialGradient>
  </defs>
</svg>