<?xml version="1.0" encoding="UTF-8" standalone="no"?>
<svg xmlns:xlink="http://www.w3.org/1999/xlink" height="74.85px" width="66.2px" xmlns="http://www.w3.org/2000/svg">
  <g transform="matrix(1.0, 0.0, 0.0, 1.0, -1.3, -16.7)">
    <path d="M12.2 23.95 Q22.55 21.15 29.05 24.2 35.6 27.2 38.65 32.95 41.7 38.6 39.45 44.2 L38.85 48.85 Q38.9 50.35 41.2 52.1 43.4 53.8 43.4 56.65 43.4 57.85 41.45 61.55 L39.6 64.95 39.9 66.1 40.2 67.6 Q40.2 68.7 39.75 69.6 39.1 70.7 37.95 70.7 L36.45 70.35 35.25 70.0 Q34.85 70.0 34.1 71.0 33.35 71.9 32.8 71.9 31.8 71.9 30.55 69.9 L29.2 67.3 27.75 71.0 Q26.95 73.15 25.95 73.15 L24.85 72.35 24.1 71.4 23.1 72.7 21.7 72.8 Q19.75 72.8 18.85 71.3 18.0 69.4 17.25 68.7 L16.25 70.6 Q15.65 71.4 15.05 71.4 13.75 71.4 12.15 68.75 L11.3 67.2 Q9.9 64.5 9.25 62.4 L7.6 63.9 Q6.95 64.65 5.75 64.65 L4.6 64.35 4.3 64.1 3.85 63.5 3.85 63.95 Q3.15 63.15 2.35 61.4 L2.3 58.0 Q2.3 50.35 3.65 43.05 4.45 38.65 5.6 34.9 8.6 28.1 11.05 25.2 L12.2 23.95" fill="#8c6c33" fill-rule="evenodd" stroke="none"/>
    <path d="M17.85 20.1 Q20.0 19.15 22.5 18.75 36.3 16.45 44.7 19.25 54.9 22.65 63.1 34.9 64.25 38.65 65.1 43.05 66.45 50.35 66.5 58.0 66.45 62.3 66.0 66.75 L65.75 69.1 64.85 74.9 64.7 75.05 Q62.05 78.25 59.35 78.3 58.55 78.25 57.5 77.25 L56.45 75.9 54.7 78.0 Q53.7 79.1 52.55 79.1 51.3 79.1 50.55 77.7 L49.9 75.65 49.6 74.2 49.55 74.35 49.1 77.05 48.25 79.55 Q46.95 82.2 44.95 82.2 L43.85 81.9 43.1 81.6 42.1 82.2 40.85 82.85 Q40.1 82.85 39.0 82.15 37.9 81.4 37.75 81.4 37.5 81.4 36.15 82.4 34.75 83.35 34.05 83.35 32.85 83.35 31.65 82.1 L30.45 80.75 Q30.25 80.75 28.95 81.75 27.65 82.7 26.45 82.7 25.15 82.7 24.55 81.9 23.9 81.05 23.2 81.05 22.6 81.05 22.05 81.4 L20.75 81.75 Q20.0 81.75 19.25 81.0 L17.75 79.6 16.65 80.65 Q15.85 81.25 15.05 81.25 13.45 81.2 12.1 79.9 L11.45 80.05 10.15 79.75 Q10.0 79.75 9.35 80.4 8.7 81.05 7.8 81.05 L7.3 81.0 Q6.0 80.9 5.15 80.4 L3.9 74.9 3.2 70.45 4.05 71.05 4.85 71.25 6.25 70.9 7.1 71.75 Q7.95 72.65 9.25 72.65 L10.9 72.35 11.25 73.0 Q13.4 76.9 15.0 76.9 15.55 76.9 16.35 76.05 17.3 75.05 17.4 74.0 L18.95 76.05 Q20.35 77.75 21.8 77.75 L23.25 77.2 24.2 77.95 Q24.9 78.65 26.05 78.7 27.65 78.65 29.0 76.6 L30.8 73.65 30.85 73.65 32.25 75.9 Q33.85 78.05 35.6 78.05 36.6 78.05 37.45 77.45 L38.65 78.15 Q38.95 78.15 39.6 77.55 L40.35 76.9 41.2 77.35 42.3 77.8 42.45 77.85 42.45 77.75 Q42.45 77.65 44.0 76.65 45.65 75.5 46.05 74.3 49.0 64.45 49.1 62.85 49.05 61.35 48.5 60.6 48.05 59.9 47.4 60.05 48.6 57.0 48.65 53.15 48.65 50.1 48.05 50.1 L46.7 50.75 46.45 50.65 46.4 50.1 Q46.95 48.7 47.0 42.4 47.0 38.25 45.0 34.9 40.75 25.15 34.0 21.35 27.25 17.5 17.85 20.1" fill="#6d5322" fill-rule="evenodd" stroke="none"/>
    <path d="M17.85 20.1 Q27.25 17.5 34.0 21.35 40.75 25.15 45.0 34.9 47.0 38.25 47.0 42.4 46.95 48.7 46.4 50.1 L46.45 50.65 46.7 50.75 48.05 50.1 Q48.65 50.1 48.65 53.15 48.6 57.0 47.4 60.05 48.05 59.9 48.5 60.6 49.05 61.35 49.1 62.85 49.0 64.45 46.05 74.3 45.65 75.5 44.0 76.65 42.45 77.65 42.45 77.75 L42.45 77.85 42.3 77.8 41.2 77.35 40.35 76.9 39.6 77.55 Q38.95 78.15 38.65 78.15 L37.45 77.45 Q36.6 78.05 35.6 78.05 33.85 78.05 32.25 75.9 L30.85 73.65 30.8 73.65 29.0 76.6 Q27.65 78.65 26.05 78.7 24.9 78.65 24.2 77.95 L23.25 77.2 21.8 77.75 Q20.35 77.75 18.95 76.05 L17.4 74.0 Q17.3 75.05 16.35 76.05 15.55 76.9 15.0 76.9 13.4 76.9 11.25 73.0 L10.9 72.35 9.25 72.65 Q7.95 72.65 7.1 71.75 L6.25 70.9 4.85 71.25 4.05 71.05 3.2 70.45 2.75 66.75 2.35 61.4 Q3.15 63.15 3.85 63.95 L3.85 63.5 4.3 64.1 4.6 64.35 5.75 64.65 Q6.95 64.65 7.6 63.9 L9.25 62.4 Q9.9 64.5 11.3 67.2 L12.15 68.75 Q13.75 71.4 15.05 71.4 15.65 71.4 16.25 70.6 L17.25 68.7 Q18.0 69.4 18.85 71.3 19.75 72.8 21.7 72.8 L23.1 72.7 24.1 71.4 24.85 72.35 25.95 73.15 Q26.95 73.15 27.75 71.0 L29.2 67.3 30.55 69.9 Q31.8 71.9 32.8 71.9 33.35 71.9 34.1 71.0 34.85 70.0 35.25 70.0 L36.45 70.35 37.95 70.7 Q39.1 70.7 39.75 69.6 40.2 68.7 40.2 67.6 L39.9 66.1 39.6 64.95 41.45 61.55 Q43.4 57.85 43.4 56.65 43.4 53.8 41.2 52.1 38.9 50.35 38.85 48.85 L39.45 44.2 Q41.7 38.6 38.65 32.95 35.6 27.2 29.05 24.2 22.55 21.15 12.2 23.95 14.65 21.45 17.85 20.1" fill="#7e5f2a" fill-rule="evenodd" stroke="none"/>
    <path d="M5.15 80.4 Q6.0 80.9 7.3 81.0 L7.8 81.05 Q8.7 81.05 9.35 80.4 10.0 79.75 10.15 79.75 L11.45 80.05 12.1 79.9 Q13.45 81.2 15.05 81.25 15.85 81.25 16.65 80.65 L17.75 79.6 19.25 81.0 Q20.0 81.75 20.75 81.75 L22.05 81.4 Q22.6 81.05 23.2 81.05 23.9 81.05 24.55 81.9 25.15 82.7 26.45 82.7 27.65 82.7 28.95 81.75 30.25 80.75 30.45 80.75 L31.65 82.1 Q32.85 83.35 34.05 83.35 34.75 83.35 36.15 82.4 37.5 81.4 37.75 81.4 37.9 81.4 39.0 82.15 40.1 82.85 40.85 82.85 L42.1 82.2 43.1 81.6 43.85 81.9 44.95 82.2 Q46.95 82.2 48.25 79.55 L49.1 77.05 49.55 74.35 49.6 74.2 49.9 75.65 50.55 77.7 Q51.3 79.1 52.55 79.1 53.7 79.1 54.7 78.0 L56.45 75.9 57.5 77.25 Q58.55 78.25 59.35 78.3 62.05 78.25 64.7 75.05 L64.85 74.9 Q63.95 79.45 62.65 84.1 62.1 86.0 60.65 87.05 59.5 87.85 58.3 87.9 56.65 87.85 55.65 87.0 L54.4 85.7 Q53.75 89.35 50.95 89.35 50.6 89.35 48.95 88.2 L47.05 87.0 Q45.8 88.85 44.9 88.85 44.6 88.85 44.1 88.05 L43.6 87.2 Q43.65 87.65 42.05 89.1 40.05 90.7 38.85 90.55 37.6 90.4 37.0 89.75 36.35 89.15 35.95 87.55 L35.75 87.55 Q35.8 88.2 35.3 88.95 34.75 89.7 34.25 89.7 33.05 89.7 32.0 88.5 31.0 87.25 30.95 85.85 L30.85 85.85 30.8 85.9 30.6 86.5 Q29.9 88.05 29.95 88.4 28.85 88.4 27.3 87.55 25.6 86.55 24.65 85.15 L24.25 87.5 Q23.95 89.0 22.75 88.5 21.55 88.0 20.5 86.75 18.15 83.8 17.7 82.5 17.65 83.85 15.6 85.3 L13.3 85.45 Q12.1 87.85 10.45 87.9 9.25 87.85 8.15 87.05 6.65 86.0 6.1 84.1 L5.15 80.4" fill="#5f4922" fill-rule="evenodd" stroke="none"/>
    <path d="M64.85 74.9 L65.75 69.1 66.0 66.75 Q66.45 62.3 66.5 58.0 66.45 50.35 65.1 43.05 64.25 38.65 63.1 34.9 54.9 22.65 44.7 19.25 36.3 16.45 22.5 18.75 20.0 19.15 17.85 20.1 14.65 21.45 12.2 23.95 L11.05 25.2 Q8.6 28.1 5.6 34.9 4.45 38.65 3.65 43.05 2.3 50.35 2.3 58.0 L2.35 61.4 2.75 66.75 3.2 70.45 3.9 74.9 5.15 80.4 6.1 84.1 Q6.65 86.0 8.15 87.05 9.25 87.85 10.45 87.9 12.1 87.85 13.3 85.45 L15.6 85.3 Q17.65 83.85 17.7 82.5 18.15 83.8 20.5 86.75 21.55 88.0 22.75 88.5 23.95 89.0 24.25 87.5 L24.65 85.15 Q25.6 86.55 27.3 87.55 28.85 88.4 29.95 88.4 29.9 88.05 30.6 86.5 L30.8 85.9 30.85 85.85 30.95 85.85 Q31.0 87.25 32.0 88.5 33.05 89.7 34.25 89.7 34.75 89.7 35.3 88.95 35.8 88.2 35.75 87.55 L35.95 87.55 Q36.35 89.15 37.0 89.75 37.6 90.4 38.85 90.55 40.05 90.7 42.05 89.1 43.65 87.65 43.6 87.2 L44.1 88.05 Q44.6 88.85 44.9 88.85 45.8 88.85 47.05 87.0 L48.95 88.2 Q50.6 89.35 50.95 89.35 53.75 89.35 54.4 85.7 L55.65 87.0 Q56.65 87.85 58.3 87.9 59.5 87.85 60.65 87.05 62.1 86.0 62.65 84.1 63.95 79.45 64.85 74.9 Z" fill="none" stroke="#3a2d14" stroke-linecap="round" stroke-linejoin="round" stroke-width="1"/>
  </g>
</svg>