<?xml version="1.0" encoding="UTF-8" standalone="no"?>
<svg xmlns:xlink="http://www.w3.org/1999/xlink" height="18.5px" width="16.65px" xmlns="http://www.w3.org/2000/svg">
  <g transform="matrix(1.0, 0.0, 0.0, 1.0, 1, 1)">
    <path d="M3.3 14.65 Q4.4 15.2 5.6 15.2 7.05 15.2 8.5 14.65 9.9 14.15 10.8 13.35 15.35 8.8 11.75 4.25 L10.5 3.05 Q9.8 2.1 9.8 1.75 9.8 1.3 10.05 1.25 L11.15 1.8 11.7 2.2 Q12.75 3.05 13.75 4.8 L14.5 7.05 Q14.85 9.1 14.3 10.95 L12.8 13.3 11.45 14.5 Q9.6 15.8 7.3 15.8 5.4 15.8 3.8 14.95 L3.3 14.65" fill="#6d5322" fill-rule="evenodd" stroke="none"/>
    <path d="M10.5 3.05 Q8.45 1.45 5.45 1.45 L4.6 1.45 6.45 0.9 8.4 0.85 9.1 0.95 9.35 1.0 10.05 1.25 Q9.8 1.3 9.8 1.75 9.8 2.1 10.5 3.05 M7.45 0.25 L8.75 0.0 Q10.35 -0.15 11.4 0.9 L10.1 0.75 7.45 0.25" fill="#8c6c33" fill-rule="evenodd" stroke="none"/>
    <path d="M10.5 3.05 L11.75 4.25 Q15.35 8.8 10.8 13.35 9.9 14.15 8.5 14.65 7.05 15.2 5.6 15.2 4.4 15.2 3.3 14.65 2.7 14.25 2.15 13.7 L1.8 13.3 1.55 13.05 0.45 11.3 0.25 10.5 0.0 8.7 0.05 8.1 0.25 6.55 1.05 4.3 Q1.5 3.35 3.15 2.2 3.85 1.75 4.6 1.45 L5.45 1.45 Q8.45 1.45 10.5 3.05 M9.25 9.2 L9.15 8.4 9.1 8.3 Q8.4 6.1 6.5 5.45 4.8 4.85 3.3 5.7 2.1 6.4 1.7 7.6 1.45 8.4 1.55 9.45 1.7 10.9 2.25 11.9 3.1 13.4 4.6 13.55 5.95 13.65 7.25 12.9 9.1 11.85 9.2 9.75 L9.5 9.75 9.85 9.55 Q9.65 9.3 9.25 9.2" fill="url(#gradient0)" fill-rule="evenodd" stroke="none"/>
    <path d="M7.85 9.55 L7.8 9.9 Q7.75 11.6 6.3 12.45 L4.6 12.55 Q3.4 12.25 2.75 11.15 2.15 10.1 2.15 8.75 L2.15 8.6 Q2.3 7.4 4.2 6.6 6.2 5.75 7.55 8.3 L7.6 8.5 7.75 8.95 Q6.95 8.85 7.2 9.3 L7.5 9.45 7.85 9.55 M6.8 8.8 L6.7 8.65 Q6.45 8.45 6.1 8.65 L5.85 8.9 5.95 9.3 6.1 9.55 6.5 9.6 6.85 9.4 6.8 8.8" fill="#000000" fill-rule="evenodd" stroke="none"/>
    <path d="M7.75 8.95 L8.15 8.95 9.25 9.2 Q9.65 9.3 9.85 9.55 L9.5 9.75 9.2 9.75 8.25 9.65 7.85 9.55 7.5 9.45 7.2 9.3 Q6.95 8.85 7.75 8.95 M6.8 8.8 L6.85 9.4 6.5 9.6 6.1 9.55 5.95 9.3 5.85 8.9 6.1 8.65 Q6.45 8.45 6.7 8.65 L6.8 8.8" fill="#ffffff" fill-rule="evenodd" stroke="none"/>
    <path d="M7.75 8.95 L7.6 8.5 7.55 8.3 Q6.2 5.75 4.2 6.6 2.3 7.4 2.15 8.6 L2.15 8.75 Q2.15 10.1 2.75 11.15 3.4 12.25 4.6 12.55 L6.3 12.45 Q7.75 11.6 7.8 9.9 L7.85 9.55 8.25 9.65 9.2 9.75 Q9.1 11.85 7.25 12.9 5.95 13.65 4.6 13.55 3.1 13.4 2.25 11.9 1.7 10.9 1.55 9.45 1.45 8.4 1.7 7.6 2.1 6.4 3.3 5.7 4.8 4.85 6.5 5.45 8.4 6.1 9.1 8.3 L9.15 8.4 9.25 9.2 8.15 8.95 7.75 8.95" fill="#00ffcc" fill-rule="evenodd" stroke="none"/>
    <path d="M3.3 14.65 Q4.4 15.2 5.6 15.2 7.05 15.2 8.5 14.65 9.9 14.15 10.8 13.35 15.35 8.8 11.75 4.25 L10.5 3.05 Q8.45 1.45 5.45 1.45 L4.6 1.45 Q3.85 1.75 3.15 2.2 1.5 3.35 1.05 4.3 L0.25 6.55 0.05 8.1 0.0 8.7 0.25 10.5 0.45 11.3 1.55 13.05 1.8 13.3 2.15 13.7 Q2.7 14.25 3.3 14.65 L3.8 14.95 Q5.4 15.8 7.3 15.8 9.6 15.8 11.45 14.5 M10.05 1.25 L9.35 1.0 9.1 0.95 8.4 0.85 6.45 0.9 4.6 1.45 M6.45 0.9 L7.45 0.25 8.75 0.0 Q10.35 -0.15 11.4 0.9 M1.8 13.3 L1.95 13.7 2.0 13.85 3.0 15.3 Q3.5 15.8 4.6 16.2 L6.05 16.5" fill="none" stroke="#3a2d14" stroke-linecap="round" stroke-linejoin="round" stroke-width="1"/>
    <path d="M7.75 8.95 L8.15 8.95 9.25 9.2 9.15 8.4 9.1 8.3 Q8.4 6.1 6.5 5.45 4.8 4.85 3.3 5.7 2.1 6.4 1.7 7.6 1.45 8.4 1.55 9.45 1.7 10.9 2.25 11.9 3.1 13.4 4.6 13.55 5.95 13.65 7.25 12.9 9.1 11.85 9.2 9.75 L8.25 9.65 7.85 9.55 7.5 9.45 7.2 9.3 Q6.95 8.85 7.75 8.95 M9.25 9.2 Q9.65 9.3 9.85 9.55 L9.5 9.75 9.2 9.75" fill="none" stroke="#00ffcc" stroke-linecap="round" stroke-linejoin="round" stroke-width="1"/>
  </g>
  <defs>
    <radialGradient cx="0" cy="0" gradientTransform="matrix(0.014, 0.0, 9.0E-4, 0.014, 4.3, 6.95)" gradientUnits="userSpaceOnUse" id="gradient0" r="819.2" spreadMethod="pad">
      <stop offset="0.0" stop-color="#ffffff"></stop>
      <stop offset="1.0" stop-color="#a9becd"></stop>
    </radialGradient>
  </defs>
</svg>