<?xml version="1.0" encoding="UTF-8" standalone="no"?>
<svg xmlns:xlink="http://www.w3.org/1999/xlink" height="18.5px" width="16.65px" xmlns="http://www.w3.org/2000/svg">
  <g transform="matrix(1.0, 0.0, 0.0, 1.0, 1, 1)">
    <path d="M10.05 1.25 L11.15 1.8 11.7 2.2 Q12.75 3.05 13.75 4.8 L14.5 7.05 Q14.85 9.1 14.3 10.95 L12.8 13.3 11.45 14.5 Q9.6 15.8 7.3 15.8 5.4 15.8 3.8 14.95 L2.15 13.7 1.8 13.3 1.55 13.05 0.45 11.3 0.25 10.5 0.0 9.0 1.6 9.4 3.6 9.7 3.7 9.7 7.25 9.6 Q9.5 9.35 11.35 8.6 L11.4 8.55 13.55 7.4 12.0 7.05 10.9 6.85 9.45 6.6 9.35 6.6 7.95 6.4 7.85 6.4 7.1 6.35 6.1 6.25 2.95 6.15 2.4 6.15 2.25 6.15 1.65 6.2 1.35 6.2 0.6 6.3 0.3 6.35 0.55 5.4 0.6 5.3 0.65 5.25 0.9 4.6 2.0 4.45 3.2 4.25 3.0 4.15 2.8 3.45 Q3.05 3.1 4.25 3.05 4.25 2.45 5.45 2.85 6.75 3.25 7.75 4.55 L6.05 4.45 9.45 5.3 9.7 5.35 Q11.2 5.35 11.2 4.4 L10.5 3.05 Q9.8 2.1 9.8 1.75 9.8 1.3 10.05 1.25 M9.5 5.75 L9.45 5.3 9.5 5.75 M6.95 14.4 L7.75 14.05 3.65 12.45 Q1.9 11.8 2.0 13.3 L3.4 14.0 Q4.45 14.55 5.8 14.55 L6.95 14.4" fill="#6d5322" fill-rule="evenodd" stroke="none"/>
    <path d="M10.05 1.25 Q9.8 1.3 9.8 1.75 9.8 2.1 10.5 3.05 L11.2 4.4 Q11.2 5.35 9.7 5.35 L9.45 5.3 6.05 4.45 7.75 4.55 Q6.75 3.25 5.45 2.85 4.25 2.45 4.25 3.05 3.05 3.1 2.8 3.45 L3.0 4.15 3.2 4.25 2.0 4.45 0.9 4.6 1.05 4.3 Q1.5 3.35 3.15 2.2 4.7 1.15 6.45 0.9 L8.4 0.85 9.1 0.95 9.35 1.0 10.05 1.25 M7.45 0.25 L8.75 0.0 Q10.35 -0.15 11.4 0.9 L10.1 0.75 7.45 0.25 M6.95 14.4 L5.8 14.55 Q4.45 14.55 3.4 14.0 L2.0 13.3 Q1.9 11.8 3.65 12.45 L7.75 14.05 6.95 14.4" fill="#8c6c33" fill-rule="evenodd" stroke="none"/>
    <path d="M9.45 6.6 L10.9 6.85 12.0 7.05 13.55 7.4 11.4 8.55 11.35 8.6 Q10.9 7.65 9.35 6.95 L9.45 6.6 M0.3 6.35 L0.6 6.3 Q0.45 6.4 0.25 6.55 L0.3 6.35" fill="#9aaebd" fill-rule="evenodd" stroke="none"/>
    <path d="M7.25 9.6 L3.7 9.7 2.85 9.25 Q1.6 8.35 1.6 6.65 L1.65 6.2 2.25 6.15 2.4 6.15 Q2.45 7.55 3.3 8.4 4.0 9.1 4.85 9.1 6.5 9.1 7.4 7.7 L7.6 7.4 7.9 7.7 8.7 8.25 7.25 9.6 M7.95 6.4 L9.35 6.6 9.45 6.6 9.35 6.95 9.0 7.8 8.2 7.05 7.85 6.8 7.95 6.4" fill="#00ffcc" fill-rule="evenodd" stroke="none"/>
    <path d="M2.4 6.15 L2.95 6.15 6.1 6.25 6.1 6.5 6.45 6.75 6.85 6.75 7.1 6.35 7.85 6.4 7.95 6.4 7.85 6.8 7.2 6.85 7.6 7.4 7.4 7.7 Q6.5 9.1 4.85 9.1 4.0 9.1 3.3 8.4 2.45 7.55 2.4 6.15" fill="#000000" fill-rule="evenodd" stroke="none"/>
    <path d="M11.35 8.6 Q9.5 9.35 7.25 9.6 L8.7 8.25 8.95 8.4 9.35 8.4 9.0 7.8 9.35 6.95 Q10.9 7.65 11.35 8.6 M3.7 9.7 L3.6 9.7 1.6 9.4 0.0 9.0 0.0 8.7 0.05 8.1 0.25 6.55 Q0.45 6.4 0.6 6.3 L1.35 6.2 1.65 6.2 1.6 6.65 Q1.6 8.35 2.85 9.25 L3.7 9.7" fill="url(#gradient0)" fill-rule="evenodd" stroke="none"/>
    <path d="M6.1 6.25 L7.1 6.35 6.85 6.75 6.45 6.75 6.1 6.5 6.1 6.25 M7.6 7.4 L7.2 6.85 7.85 6.8 8.2 7.05 9.0 7.8 9.35 8.4 8.95 8.4 8.7 8.25 7.9 7.7 7.6 7.4" fill="#ffffff" fill-rule="evenodd" stroke="none"/>
    <path d="M9.45 6.6 L10.9 6.85 12.0 7.05 13.55 7.4 11.4 8.55 11.35 8.6 Q9.5 9.35 7.25 9.6 L3.7 9.7 3.6 9.7 1.6 9.4 0.0 9.0 0.25 10.5 0.45 11.3 1.55 13.05 1.8 13.3 2.15 13.7 3.8 14.95 Q5.4 15.8 7.3 15.8 9.6 15.8 11.45 14.5 M10.05 1.25 L9.35 1.0 9.1 0.95 8.4 0.85 6.45 0.9 Q4.7 1.15 3.15 2.2 1.5 3.35 1.05 4.3 L0.9 4.6 0.65 5.25 M6.45 0.9 L7.45 0.25 8.75 0.0 Q10.35 -0.15 11.4 0.9 M1.65 6.2 L2.25 6.15 2.4 6.15 2.95 6.15 6.1 6.25 7.1 6.35 7.85 6.4 7.95 6.4 9.35 6.6 9.45 6.6 M0.6 5.3 L0.55 5.4 0.3 6.35 0.6 6.3 1.35 6.2 1.65 6.2 M0.3 6.35 L0.25 6.55 0.05 8.1 0.0 8.7 0.0 9.0 M1.8 13.3 L2.0 13.85 3.0 15.3 Q3.5 15.8 4.6 16.2 L6.05 16.5" fill="none" stroke="#3a2d14" stroke-linecap="round" stroke-linejoin="round" stroke-width="1"/>
    <path d="M9.45 5.3 L9.5 5.75" fill="none" stroke="#6d5322" stroke-linecap="round" stroke-linejoin="round" stroke-width="1"/>
    <path d="M0.65 5.25 L0.6 5.3" fill="none" stroke="#809cb1" stroke-linecap="round" stroke-linejoin="round" stroke-width="1"/>
    <path d="M1.65 6.2 L1.6 6.65 Q1.6 8.35 2.85 9.25 L3.7 9.7 M7.6 7.4 L7.2 6.85 7.85 6.8 8.2 7.05 9.0 7.8 9.35 8.4 8.95 8.4 8.7 8.25 7.25 9.6 M7.6 7.4 L7.9 7.7 8.7 8.25 M9.35 6.95 L9.0 7.8" fill="none" stroke="#00ffcc" stroke-linecap="round" stroke-linejoin="round" stroke-width="1"/>
  </g>
  <defs>
    <radialGradient cx="0" cy="0" gradientTransform="matrix(0.014, 0.0, 9.0E-4, 0.014, 4.3, 6.95)" gradientUnits="userSpaceOnUse" id="gradient0" r="819.2" spreadMethod="pad">
      <stop offset="0.0" stop-color="#ffffff"></stop>
      <stop offset="1.0" stop-color="#a9becd"></stop>
    </radialGradient>
  </defs>
</svg>