<?xml version="1.0" encoding="UTF-8" standalone="no"?>
<svg xmlns:xlink="http://www.w3.org/1999/xlink" height="12px" width="29.75px" xmlns="http://www.w3.org/2000/svg">
  <g transform="matrix(1.0, 0.0, 0.0, 1.0, 0.9, 1.65)">
    <path d="M26.25 1.2 L26.05 4.65 Q25.85 7.3 26.45 7.3 L26.6 7.3 26.6 7.4 26.95 9.0 23.15 7.25 23.95 5.75 24.05 5.6 25.0 3.65 26.25 1.2 M1.9 6.25 L0.15 6.75 0.1 4.6 Q0.1 3.8 0.5 2.35 0.95 0.85 1.5 0.1 L1.1 3.15 1.55 3.05 Q2.1 3.05 2.0 4.0 1.8 5.65 1.9 6.25" fill="#aaa77d" fill-rule="evenodd" stroke="none"/>
    <path d="M25.0 3.65 L24.05 5.6 23.95 5.75 Q22.45 6.4 21.2 5.4 L19.8 6.95 Q19.45 7.25 18.75 7.25 18.25 7.25 17.8 6.8 17.3 6.3 16.8 6.3 16.3 6.3 16.0 6.75 15.65 7.2 15.15 7.2 14.65 7.2 14.65 6.8 14.6 6.35 14.1 6.35 L11.8 6.1 11.25 5.8 9.75 6.1 8.95 6.35 8.8 6.65 8.0 6.8 Q7.5 6.8 6.5 5.7 L5.45 4.35 Q4.55 5.2 3.9 5.3 L3.5 5.2 2.55 2.35 Q4.0 0.95 4.85 -0.65 4.7 2.25 5.7 2.15 6.5 2.05 6.55 1.2 L7.5 2.95 Q7.9 2.95 8.6 0.6 9.3 1.9 10.1 2.75 L10.85 3.35 Q11.5 3.35 11.85 2.95 L13.25 0.9 Q13.35 2.0 14.05 2.7 L16.0 1.35 Q17.05 0.4 17.15 -0.3 17.55 1.9 18.35 2.6 18.8 2.95 19.6 2.95 L21.15 2.6 22.05 1.95 Q22.6 2.8 23.55 3.3 L25.0 3.65 M23.95 5.75 L24.05 5.6 23.95 5.75" fill="#695127" fill-rule="evenodd" stroke="none"/>
    <path d="M26.95 9.0 L26.6 7.4 26.6 7.3 26.45 7.3 Q25.85 7.3 26.05 4.65 L26.25 1.2 26.3 1.0 27.1 2.0 Q27.85 3.4 27.85 6.05 L27.65 9.35 26.95 9.0 M3.5 5.2 L3.7 5.8 1.9 6.25 Q1.8 5.65 2.0 4.0 2.1 3.05 1.55 3.05 L1.1 3.15 1.5 0.1 1.55 0.0 2.55 2.35 3.5 5.2" fill="#e2e0bb" fill-rule="evenodd" stroke="none"/>
    <path d="M23.95 5.75 Q22.45 6.4 21.2 5.4 L19.8 6.95 Q19.45 7.25 18.75 7.25 18.25 7.25 17.8 6.8 17.3 6.3 16.8 6.3 16.3 6.3 16.0 6.75 15.65 7.2 15.15 7.2 14.65 7.2 14.65 6.8 14.6 6.35 14.1 6.35 L11.8 6.1 11.25 5.8 9.75 6.1 8.95 6.35 8.8 6.65 8.0 6.8 Q7.5 6.8 6.5 5.7 L5.45 4.35 Q4.55 5.2 3.9 5.3 L3.5 5.2" fill="none" stroke="#3f3017" stroke-linecap="round" stroke-linejoin="round" stroke-width="1"/>
    <path d="M26.95 9.0 L27.65 9.35 27.85 6.05 Q27.85 3.4 27.1 2.0 L26.3 1.0 26.25 1.2 25.0 3.65 24.05 5.6 23.95 5.75 23.15 7.25 26.95 9.0 M3.5 5.2 L3.7 5.8 1.9 6.25 0.15 6.75 0.1 4.6 Q0.1 3.8 0.5 2.35 0.95 0.85 1.5 0.1 L1.55 0.0 2.55 2.35 3.5 5.2 M24.05 5.6 L23.95 5.75" fill="none" stroke="#626044" stroke-linecap="round" stroke-linejoin="round" stroke-width="1"/>
  </g>
</svg>