<?xml version="1.0" encoding="UTF-8" standalone="no"?>
<svg xmlns:xlink="http://www.w3.org/1999/xlink" height="23.2px" width="37.6px" xmlns="http://www.w3.org/2000/svg">
  <g transform="matrix(1.0, 0.0, 0.0, 1.0, -5.6, 1.45)">
    <path d="M33.1 16.35 L32.55 18.35 Q32.0 17.8 31.85 15.9 L35.2 1.35 36.15 5.5 36.45 7.65 Q36.6 8.95 36.1 8.9 35.8 9.0 35.5 10.0 35.15 12.45 34.8 20.75 L33.85 20.45 33.8 20.15 33.85 18.55 34.1 14.2 33.1 16.35 M36.1 4.45 L36.15 1.3 38.0 3.3 37.65 9.2 36.1 4.45 M10.3 5.05 L12.4 9.45 9.35 6.65 8.15 4.4 10.3 5.05 M9.8 7.35 L10.95 8.85 Q11.5 9.65 11.15 9.85 11.0 10.0 11.2 10.8 L15.1 18.8 14.25 18.9 14.15 18.7 13.5 17.5 12.0 14.45 12.15 16.4 12.45 18.0 Q11.85 17.8 11.0 16.55 L7.5 4.8 9.8 7.35" fill="#ffffcc" fill-rule="evenodd" stroke="none"/>
    <path d="M41.1 17.3 L41.6 15.1 41.7 13.25 Q41.45 10.4 40.4 7.7 L38.0 3.3 36.15 1.3 36.1 4.45 36.15 5.5 35.2 1.35 31.85 15.9 Q32.0 17.8 32.55 18.35 L33.1 16.35 32.95 19.0 Q32.3 18.6 31.5 17.25 L30.85 16.1 Q30.8 15.6 31.05 15.0 L31.4 13.7 35.05 -0.45 Q37.95 1.6 39.35 3.9 41.7 7.25 42.15 12.55 42.3 13.75 42.0 14.8 L41.1 17.3 M33.8 20.15 L33.75 20.4 33.35 19.0 33.55 18.4 33.7 18.2 33.85 18.55 33.8 20.15 M40.3 15.35 L40.1 17.85 39.6 12.1 Q40.4 13.3 40.3 15.35 M9.35 6.65 L9.8 7.35 7.5 4.8 11.0 16.55 Q11.85 17.8 12.45 18.0 L12.15 16.4 12.95 18.3 11.4 17.65 10.4 17.1 10.0 16.15 9.85 15.1 6.6 3.7 Q9.4 3.9 11.4 4.9 14.5 6.4 17.0 9.95 17.55 10.65 17.7 11.55 L18.15 13.8 17.5 12.0 16.9 10.7 Q15.6 8.65 13.7 7.25 L10.3 5.05 8.15 4.4 9.35 6.65 M16.9 12.65 L17.6 14.55 14.95 10.7 Q16.0 11.1 16.9 12.65 M14.2 18.95 L13.4 18.15 13.15 17.6 13.3 17.4 13.5 17.5 14.15 18.7 14.2 18.95" fill="#a36a6a" fill-rule="evenodd" stroke="none"/>
    <path d="M38.0 3.3 L40.4 7.7 Q41.45 10.4 41.7 13.25 L41.6 15.1 41.1 17.3 Q41.2 18.5 39.35 19.5 37.45 20.5 34.8 20.75 35.15 12.45 35.5 10.0 35.8 9.0 36.1 8.9 36.6 8.95 36.45 7.65 L36.15 5.5 36.1 4.45 37.65 9.2 38.0 3.3 M32.95 19.0 L33.1 16.35 34.1 14.2 33.85 18.55 33.7 18.2 33.55 18.4 33.35 19.0 33.75 20.4 33.8 20.15 33.85 20.45 33.75 20.4 32.95 19.0 M40.3 15.35 Q40.4 13.3 39.6 12.1 L40.1 17.85 40.3 15.35 M9.35 6.65 L12.4 9.45 10.3 5.05 13.7 7.25 Q15.6 8.65 16.9 10.7 L17.5 12.0 18.15 13.8 Q18.7 14.55 17.85 15.95 16.9 17.4 15.1 18.8 L11.2 10.8 Q11.0 10.0 11.15 9.85 11.5 9.65 10.95 8.85 L9.8 7.35 9.35 6.65 M16.9 12.65 Q16.0 11.1 14.95 10.7 L17.6 14.55 16.9 12.65 M13.5 17.5 L13.3 17.4 13.15 17.6 13.4 18.15 14.2 18.95 12.95 18.3 12.15 16.4 12.0 14.45 13.5 17.5 M14.2 18.95 L14.15 18.7 14.25 18.9 14.2 18.95" fill="#e0cca3" fill-rule="evenodd" stroke="none"/>
  </g>
</svg>