<?xml version="1.0" encoding="UTF-8" standalone="no"?>
<svg xmlns:xlink="http://www.w3.org/1999/xlink" height="52.75px" width="60.5px" xmlns="http://www.w3.org/2000/svg">
  <g transform="matrix(1.0, 0.0, 0.0, 1.0, 30.25, 26.35)">
    <path d="M-6.45 4.4 Q-6.9 5.0 -7.0 5.85 -7.7 6.75 -9.15 7.65 L-11.8 7.15 -10.7 7.2 Q-9.95 7.2 -9.2 6.55 -8.5 5.95 -8.5 5.65 -8.5 4.9 -10.15 4.9 -11.15 4.9 -12.35 5.95 L-12.45 5.0 Q-11.85 4.4 -11.4 4.35 L-11.2 4.25 -10.9 4.05 -8.05 3.55 Q-6.45 3.55 -6.45 4.3 L-6.45 4.4 M9.75 -3.65 L10.0 -3.7 9.95 -3.75 9.15 -4.95 7.7 -6.1 7.6 -6.15 7.55 -6.2 6.65 -6.45 7.85 -6.9 Q10.3 -5.0 10.45 -5.0 10.85 -5.0 10.85 -5.5 10.85 -6.95 9.6 -7.5 10.95 -8.15 12.6 -8.15 L13.55 -7.95 Q17.4 -8.0 17.4 -11.35 L16.7 -13.25 16.05 -14.05 15.05 -14.15 15.65 -14.3 16.3 -14.4 16.45 -14.45 16.45 -14.8 15.95 -14.95 19.95 -16.9 Q19.95 -17.25 18.65 -18.4 L18.2 -18.7 18.55 -18.8 18.5 -18.9 17.85 -19.1 17.05 -19.3 12.25 -20.0 11.35 -20.05 11.25 -20.05 Q9.6 -20.0 7.55 -18.8 L6.2 -18.1 Q5.1 -17.6 4.45 -17.6 L3.15 -17.9 2.85 -17.8 2.85 -17.65 2.15 -17.8 1.25 -17.85 1.15 -17.85 1.8 -18.65 Q2.55 -19.65 2.55 -21.0 L2.45 -21.5 2.9 -21.5 3.05 -21.45 Q2.75 -20.7 2.75 -19.75 L2.85 -19.35 2.95 -19.4 3.55 -20.1 3.75 -20.6 3.85 -20.85 3.9 -20.95 3.95 -21.05 4.1 -21.35 4.25 -21.55 4.4 -21.75 4.45 -21.55 Q4.15 -21.05 4.15 -20.45 4.15 -18.7 6.2 -18.7 L8.65 -19.7 Q10.7 -20.7 12.6 -20.7 L15.35 -20.5 15.8 -20.45 14.05 -20.65 15.25 -20.85 Q17.85 -21.25 17.85 -22.5 L17.2 -23.65 18.2 -23.2 18.8 -22.65 Q19.25 -22.15 19.25 -21.45 L19.05 -20.8 19.15 -20.65 Q19.15 -20.6 19.25 -20.6 L19.4 -20.65 19.85 -20.95 19.75 -19.95 20.75 -20.75 21.5 -21.45 22.25 -21.05 23.35 -20.0 Q24.15 -18.55 24.3 -16.55 L24.35 -15.95 23.3 -14.7 Q21.3 -13.7 21.3 -13.1 L21.55 -12.35 Q20.7 -9.45 18.65 -7.95 14.6 -6.2 13.75 -5.55 12.9 -3.0 11.0 -3.0 L9.85 -3.65 9.75 -3.65 M-22.35 9.9 L-23.7 10.0 -24.75 9.65 -25.25 8.65 -25.5 7.65 -25.0 7.95 -24.65 8.1 -24.45 8.2 -24.0 8.35 -23.75 8.4 -23.6 8.45 -23.4 8.5 -23.05 8.0 -22.15 7.8 -22.5 7.65 -21.75 7.85 Q-20.2 7.85 -19.7 7.15 L-19.15 6.85 -18.85 6.9 Q-18.45 6.9 -17.5 5.95 L-17.85 5.9 Q-18.3 5.9 -18.85 6.4 -19.2 5.8 -22.3 5.8 -23.1 5.5 -24.1 4.85 L-24.1 4.9 -24.45 3.9 -25.1 1.4 -25.2 1.05 -24.7 2.05 Q-23.15 4.85 -18.9 4.85 -11.45 1.2 -8.85 0.6 L-8.65 0.8 Q-13.75 2.5 -16.2 4.95 -18.0 6.75 -19.2 7.25 L-21.5 8.1 Q-22.6 8.5 -22.6 9.1 L-22.35 9.9 M-26.45 5.15 L-26.65 4.95 -26.95 4.5 -27.0 4.2 -27.1 4.3 -27.35 3.75 -27.6 3.15 -27.1 2.0 -26.3 -0.2 -26.4 1.45 -26.35 1.75 -25.45 4.2 -25.0 4.75 -25.05 4.9 Q-25.15 5.25 -25.85 5.25 L-26.45 5.15 M-6.6 -10.8 L-6.15 -10.5 -5.85 -10.2 Q-5.5 -9.8 -5.5 -9.2 L-5.5 -9.05 -5.55 -8.9 -6.05 -7.75 -6.35 -7.25 -6.3 -7.3 -6.6 -6.85 -7.0 -6.3 -8.45 -4.7 -8.7 -4.7 -10.4 -5.1 -12.65 -5.1 Q-12.5 -5.65 -10.95 -6.25 L-10.85 -6.3 -11.5 -6.35 -16.8 -4.5 Q-17.3 -4.5 -17.3 -4.95 L-15.25 -7.4 -15.2 -7.4 -15.3 -7.25 -15.3 -7.2 Q-15.3 -7.0 -15.1 -6.95 L-13.1 -7.9 -13.1 -7.85 -12.95 -7.6 Q-12.5 -7.2 -10.85 -7.2 L-10.8 -7.2 -10.5 -7.6 -11.7 -8.3 -10.1 -8.55 Q-10.1 -7.15 -8.9 -7.15 -7.95 -7.15 -7.75 -7.9 L-7.7 -8.35 -7.7 -8.75 Q-6.75 -8.85 -6.45 -9.7 -6.8 -10.45 -6.6 -10.8 M2.3 -12.95 L2.6 -13.3 3.8 -14.95 5.45 -14.95 Q6.15 -14.9 6.5 -15.2 7.25 -14.1 9.3 -13.85 L9.35 -13.85 10.0 -13.75 9.55 -13.6 9.45 -13.6 9.35 -13.55 7.6 -12.9 7.15 -12.75 5.5 -12.8 2.95 -13.05 2.05 -12.65 2.3 -12.95 M-25.3 -8.35 L-23.95 -10.5 -22.6 -10.65 -21.1 -10.7 -22.1 -10.2 -25.3 -8.35 M-6.1 -8.4 L-6.1 -8.3 -6.1 -8.4 M-10.05 -5.95 L-10.1 -5.9 -10.05 -5.85 -10.05 -5.95" fill="#e0cbcb" fill-rule="evenodd" stroke="none"/>
    <path d="M10.45 1.9 Q10.0 0.65 8.95 -0.3 L7.55 -0.2 5.65 0.2 5.3 0.3 3.4 0.95 -0.2 2.2 -0.5 2.25 Q-2.0 2.65 -3.15 3.4 L-3.3 3.5 -3.85 3.8 -3.95 3.85 -5.7 5.05 Q-5.1 6.4 -6.0 7.5 -7.15 9.0 -9.1 8.75 L-9.15 8.75 Q-13.35 8.75 -13.35 6.45 L-13.3 5.85 -13.4 5.95 -13.4 5.85 -13.4 5.8 -13.9 6.5 -14.2 6.95 -14.2 6.8 -17.0 8.75 Q-20.9 11.1 -23.75 11.1 -26.35 11.1 -26.4 8.3 -26.4 7.45 -26.05 7.3 -29.25 5.0 -29.25 -0.8 -29.25 -3.85 -27.45 -6.2 -28.45 -6.7 -28.6 -8.35 -28.6 -12.15 -22.2 -12.1 L-21.35 -12.0 -19.05 -11.45 -17.3 -12.0 -15.35 -12.1 -13.9 -11.95 -9.65 -12.55 Q-6.05 -12.55 -4.85 -11.05 L-4.8 -11.05 -2.3 -11.3 -2.3 -11.25 -1.25 -11.65 -1.0 -11.75 -0.3 -12.2 Q-0.85 -12.55 -1.1 -13.7 -1.1 -14.45 -0.5 -14.55 L-0.5 -14.6 -0.85 -14.55 Q-1.55 -14.55 -2.05 -15.05 -2.85 -15.85 -3.2 -17.7 -3.2 -22.25 2.25 -22.25 L3.3 -22.0 Q4.7 -24.65 9.8 -25.35 L10.9 -25.35 Q16.8 -25.35 18.9 -23.8 20.05 -23.6 21.95 -22.35 L22.15 -22.2 23.2 -21.5 24.2 -20.6 Q25.25 -18.8 25.25 -16.35 L25.05 -14.3 Q24.45 -12.05 22.65 -10.5 L22.65 -9.3 Q22.65 -8.3 22.1 -7.15 L21.3 -5.95 20.7 -5.2 22.85 -4.5 Q25.4 -5.85 28.05 -5.85 28.9 -5.85 29.25 -5.5 L25.35 -4.5 24.2 -4.0 22.1 -3.1 18.1 -0.25 17.6 0.05 18.95 -1.7 19.0 -1.75 20.1 -2.7 20.85 -3.3 21.6 -3.8 Q20.3 -3.95 19.9 -4.4 L17.65 -2.95 18.85 -4.3 20.85 -7.05 20.9 -7.15 21.05 -7.4 21.35 -8.1 21.55 -8.85 21.75 -10.3 21.75 -10.4 21.75 -10.55 21.75 -10.85 21.75 -11.3 21.55 -12.65 21.75 -13.1 21.8 -13.15 21.85 -13.15 22.0 -13.1 22.15 -12.95 22.6 -11.2 Q23.9 -12.8 24.25 -14.3 L24.35 -15.4 24.35 -15.65 24.35 -15.95 24.3 -16.55 Q24.15 -18.55 23.35 -20.0 L22.25 -21.05 21.5 -21.45 20.15 -22.15 20.0 -22.2 20.05 -21.9 20.05 -21.65 Q20.05 -20.85 19.4 -20.65 L19.25 -20.6 Q19.15 -20.6 19.15 -20.65 L19.05 -20.8 19.25 -21.45 Q19.25 -22.15 18.8 -22.65 L18.2 -23.2 17.2 -23.65 11.55 -24.35 Q7.9 -24.35 6.25 -23.35 L4.6 -21.95 4.25 -21.55 4.1 -21.35 3.95 -21.05 3.9 -20.95 3.85 -20.85 3.75 -20.6 3.55 -20.1 2.95 -19.4 2.85 -19.35 2.75 -19.75 Q2.75 -20.7 3.05 -21.45 L2.9 -21.5 2.45 -21.5 Q-2.25 -21.35 -2.25 -18.05 -2.25 -17.0 -1.25 -16.0 L-0.8 -15.6 -0.8 -15.75 -0.75 -16.15 -0.8 -16.1 -0.9 -16.4 -0.8 -16.5 -0.45 -17.4 Q-0.8 -17.55 -1.0 -17.9 L-0.65 -18.25 0.9 -17.9 0.95 -17.85 1.15 -17.85 1.25 -17.85 2.15 -17.8 2.85 -17.65 2.85 -17.8 3.15 -17.9 4.45 -17.6 Q5.1 -17.6 6.2 -18.1 L7.55 -18.8 Q9.6 -20.0 11.25 -20.05 L11.35 -20.05 12.25 -20.0 17.05 -19.3 17.85 -19.1 18.5 -18.9 18.55 -18.8 18.2 -18.7 17.3 -18.65 17.45 -18.7 16.65 -18.85 15.5 -18.95 15.2 -19.0 14.95 -19.0 14.5 -19.05 15.0 -18.5 Q15.55 -17.7 15.75 -16.5 L15.7 -15.7 15.4 -15.0 15.35 -15.0 15.6 -15.0 15.65 -15.0 15.95 -14.95 16.45 -14.8 16.45 -14.45 16.3 -14.4 15.65 -14.3 11.05 -13.45 Q8.25 -12.25 6.95 -12.25 L6.35 -12.35 7.15 -12.75 7.6 -12.9 9.35 -13.55 9.45 -13.6 9.55 -13.6 10.0 -13.75 9.35 -13.85 9.3 -13.85 Q7.25 -14.1 6.5 -15.2 6.15 -14.9 5.45 -14.95 L3.8 -14.95 2.6 -13.3 2.3 -12.95 0.65 -11.65 0.0 -11.4 Q-1.05 -10.7 -2.3 -10.35 L-3.5 -10.2 -4.35 -10.15 -4.25 -9.25 Q-4.25 -7.6 -5.95 -5.75 -7.45 -4.1 -8.3 -4.1 -8.55 -4.1 -8.8 -4.35 L-8.45 -4.7 -7.0 -6.3 -6.6 -6.85 -6.3 -7.3 -6.05 -7.75 -5.55 -8.9 -5.5 -9.05 -5.5 -9.2 Q-5.5 -9.8 -5.85 -10.2 L-6.15 -10.5 -6.6 -10.8 -7.3 -11.05 -10.95 -11.35 Q-13.7 -11.3 -15.7 -9.8 L-17.35 -8.4 Q-17.9 -8.4 -17.9 -8.85 -17.9 -9.95 -16.15 -11.0 -16.55 -11.4 -22.15 -9.1 -27.8 -6.8 -28.05 -2.0 -28.3 1.6 -27.35 3.75 L-27.1 4.3 -26.95 4.5 -26.65 4.95 -26.45 5.15 -25.0 6.65 -23.9 7.4 -23.25 7.7 -22.85 7.85 -22.9 7.9 -23.1 8.0 -23.05 8.0 -23.4 8.5 -23.6 8.45 -23.75 8.4 -24.0 8.35 -24.45 8.2 -24.65 8.1 -25.0 7.95 -25.5 7.65 -25.25 8.65 -24.75 9.65 -23.7 10.0 -22.35 9.9 Q-20.2 9.45 -17.5 7.8 L-14.0 5.25 -11.95 3.65 -8.75 2.3 -4.45 0.75 -0.8 -0.5 2.4 -1.55 Q4.25 -2.2 5.2 -2.85 L6.7 -4.05 7.65 -5.2 6.4 -6.35 6.45 -6.5 6.65 -6.45 7.55 -6.2 7.6 -6.15 7.7 -6.1 9.15 -4.95 9.95 -3.75 10.0 -3.7 9.75 -3.65 8.6 -4.45 8.15 -3.8 7.95 -3.55 7.9 -3.55 Q6.75 -2.45 5.3 -1.9 L1.8 -0.7 Q0.1 0.0 -1.85 0.35 L-5.45 1.5 -8.45 2.85 -9.05 3.1 -10.2 3.7 -10.25 3.7 -10.75 4.0 -10.9 4.05 -11.2 4.25 -11.4 4.35 Q-11.85 4.4 -12.45 5.0 L-12.35 5.95 -12.3 6.3 Q-12.25 6.8 -11.8 7.15 L-9.15 7.65 -9.05 7.65 -8.4 7.65 Q-7.6 7.5 -6.85 6.95 L-6.2 5.55 -6.9 6.05 -7.05 6.0 -7.0 5.85 Q-6.9 5.0 -6.45 4.4 L-5.95 3.85 -5.5 3.65 -4.25 2.95 -3.3 2.4 -3.15 2.35 Q-1.4 1.45 0.3 1.0 L3.5 -0.05 5.65 -0.8 5.9 -0.85 7.55 -1.15 9.65 -1.05 9.75 -1.05 10.3 -1.05 12.1 -0.6 13.0 -0.15 13.5 0.2 13.95 0.7 14.1 0.95 14.25 1.55 14.0 2.35 13.65 3.1 13.65 3.15 13.55 3.3 13.55 3.4 Q13.15 3.95 12.85 3.95 L12.6 3.85 12.75 3.6 13.05 3.05 Q13.45 2.2 13.45 1.65 13.45 1.1 12.1 0.5 L10.35 -0.15 11.05 1.8 Q11.35 2.7 10.8 3.4 L10.45 1.9 M10.6 -19.2 L10.5 -19.2 10.15 -19.1 10.1 -19.05 9.6 -18.9 8.8 -18.5 7.9 -18.0 6.8 -17.35 6.75 -17.1 6.75 -16.85 Q6.95 -14.6 10.5 -14.45 L10.95 -14.45 11.9 -14.45 12.45 -14.5 13.55 -14.75 13.8 -14.95 14.45 -15.4 15.05 -16.5 Q15.05 -17.2 14.35 -18.1 L14.15 -18.35 13.15 -19.0 12.55 -19.2 11.05 -19.3 10.8 -19.3 10.75 -19.25 10.65 -19.25 10.6 -19.2 M3.1 -16.8 L1.25 -17.05 Q-0.1 -17.05 -0.1 -15.75 L-0.05 -15.45 Q0.15 -14.75 1.6 -14.55 L2.05 -14.55 2.5 -14.8 2.85 -16.05 3.1 -16.8 M3.95 -15.6 L3.9 -15.3 5.25 -15.45 6.5 -15.25 6.15 -16.1 Q5.95 -15.75 4.05 -15.75 L3.95 -15.8 3.95 -15.6 M3.85 -16.75 L3.9 -16.4 5.05 -16.5 6.1 -16.3 6.05 -16.7 6.05 -16.85 6.1 -17.05 4.5 -16.7 3.85 -16.75 M1.0 -13.05 L2.0 -13.95 1.35 -13.85 Q0.4 -13.85 -0.15 -14.2 L-0.5 -13.6 0.3 -12.6 1.0 -13.05 M14.6 -2.75 Q14.6 -3.5 15.65 -3.5 L15.6 -3.1 15.3 -2.65 14.65 -2.6 14.6 -2.75 M17.7 -4.3 L17.1 -3.3 16.05 -2.6 15.85 -2.65 15.8 -2.8 17.5 -4.55 17.7 -4.3 M-25.3 -8.35 L-22.1 -10.2 -21.1 -10.7 -22.6 -10.65 -23.95 -10.5 Q-27.05 -10.0 -27.05 -8.35 L-26.65 -7.15 -25.3 -8.35 M-26.3 -0.2 Q-26.0 -3.3 -24.35 -3.75 -25.35 -2.75 -25.35 -0.4 L-25.2 1.05 -25.1 1.4 -24.45 3.9 -24.1 4.9 -24.05 5.05 -24.2 5.1 -24.75 4.95 -25.0 4.75 -25.45 4.2 -26.35 1.75 -26.4 1.45 -26.3 -0.2 M-7.7 -8.75 L-7.7 -8.35 -7.75 -7.9 Q-7.95 -7.15 -8.9 -7.15 -10.1 -7.15 -10.1 -8.55 L-11.7 -8.3 -10.5 -7.6 -10.8 -7.2 -10.85 -7.2 Q-12.5 -7.2 -12.95 -7.6 L-13.1 -7.85 -13.1 -7.9 -15.1 -6.95 Q-15.3 -7.0 -15.3 -7.2 L-15.3 -7.25 -15.2 -7.4 -15.25 -7.4 Q-14.95 -8.0 -13.1 -9.0 -10.9 -10.2 -9.95 -10.15 L-9.5 -10.2 Q-7.9 -10.2 -7.7 -8.75 M-18.85 6.4 Q-18.3 5.9 -17.85 5.9 L-17.5 5.95 Q-18.45 6.9 -18.85 6.9 L-19.15 6.85 -19.3 6.75 -19.2 6.7 -18.85 6.4 M-19.7 7.15 Q-20.2 7.85 -21.75 7.85 L-22.5 7.65 -22.75 7.5 -22.85 7.45 -22.75 7.45 -21.8 7.25 -21.35 7.15 -20.2 6.9 Q-19.95 6.9 -19.7 7.15" fill="#a36a6a" fill-rule="evenodd" stroke="none"/>
    <path d="M-11.8 7.15 Q-12.25 6.8 -12.3 6.3 L-12.35 5.95 Q-11.15 4.9 -10.15 4.9 -8.5 4.9 -8.5 5.65 -8.5 5.95 -9.2 6.55 -9.95 7.2 -10.7 7.2 L-11.8 7.15 M6.65 -6.45 L6.45 -6.5 6.4 -6.35 7.65 -5.2 6.7 -4.05 5.2 -2.85 Q4.25 -2.2 2.4 -1.55 L-0.8 -0.5 -4.45 0.75 -8.75 2.3 -11.95 3.65 -14.0 5.25 -17.5 7.8 Q-20.2 9.45 -22.35 9.9 L-22.6 9.1 Q-22.6 8.5 -21.5 8.1 L-19.2 7.25 Q-18.0 6.75 -16.2 4.95 -13.75 2.5 -8.65 0.8 L-8.85 0.6 Q-11.45 1.2 -18.9 4.85 -23.15 4.85 -24.7 2.05 L-25.2 1.05 -25.35 -0.4 Q-25.35 -2.75 -24.35 -3.75 -26.0 -3.3 -26.3 -0.2 L-27.1 2.0 -27.6 3.15 -27.35 3.75 Q-28.3 1.6 -28.05 -2.0 -27.8 -6.8 -22.15 -9.1 -16.55 -11.4 -16.15 -11.0 -17.9 -9.95 -17.9 -8.85 -17.9 -8.4 -17.35 -8.4 L-15.7 -9.8 Q-13.7 -11.3 -10.95 -11.35 L-7.3 -11.05 -6.6 -10.8 Q-6.8 -10.45 -6.45 -9.7 -6.75 -8.85 -7.7 -8.75 -7.9 -10.2 -9.5 -10.2 L-9.95 -10.15 Q-10.9 -10.2 -13.1 -9.0 -14.95 -8.0 -15.25 -7.4 L-17.3 -4.95 Q-17.3 -4.5 -16.8 -4.5 L-11.5 -6.35 -10.85 -6.3 -10.95 -6.25 Q-12.5 -5.65 -12.65 -5.1 L-10.4 -5.1 -8.7 -4.7 -8.45 -4.7 -8.8 -4.35 Q-8.55 -4.1 -8.3 -4.1 -7.45 -4.1 -5.95 -5.75 -4.25 -7.6 -4.25 -9.25 L-4.35 -10.15 -3.5 -10.2 -2.3 -10.35 Q-1.05 -10.7 0.0 -11.4 L0.65 -11.65 2.3 -12.95 2.05 -12.65 2.95 -13.05 5.5 -12.8 7.15 -12.75 6.35 -12.35 6.95 -12.25 Q8.25 -12.25 11.05 -13.45 L15.65 -14.3 15.05 -14.15 16.05 -14.05 16.7 -13.25 17.4 -11.35 Q17.4 -8.0 13.55 -7.95 L12.6 -8.15 Q10.95 -8.15 9.6 -7.5 10.85 -6.95 10.85 -5.5 10.85 -5.0 10.45 -5.0 10.3 -5.0 7.85 -6.9 L6.65 -6.45 M-26.95 4.5 L-27.1 4.3 -27.0 4.2 -26.95 4.5 M-6.05 -7.75 L-6.3 -7.3 -6.35 -7.25 -6.05 -7.75 M1.0 -13.05 L0.3 -12.6 -0.5 -13.6 -0.15 -14.2 Q0.4 -13.85 1.35 -13.85 L2.0 -13.95 1.0 -13.05 M-23.95 -10.5 L-25.3 -8.35 -26.65 -7.15 -27.05 -8.35 Q-27.05 -10.0 -23.95 -10.5 M-10.05 -5.95 L-10.05 -5.85 -10.1 -5.9 -10.05 -5.95 M-6.1 -8.4 L-6.1 -8.3 -6.1 -8.4" fill="url(#gradient0)" fill-rule="evenodd" stroke="none"/>
    <path d="M1.15 -17.85 L0.95 -17.85 0.9 -17.9 -0.65 -18.25 -1.0 -17.9 Q-0.8 -17.55 -0.45 -17.4 L-0.8 -16.5 -0.9 -16.4 -0.8 -16.1 -0.75 -16.15 -0.8 -15.75 -0.8 -15.6 -1.25 -16.0 Q-2.25 -17.0 -2.25 -18.05 -2.25 -21.35 2.45 -21.5 L2.55 -21.0 Q2.55 -19.65 1.8 -18.65 L1.15 -17.85 M4.25 -21.55 L4.6 -21.95 6.25 -23.35 Q7.9 -24.35 11.55 -24.35 L17.2 -23.65 17.85 -22.5 Q17.85 -21.25 15.25 -20.85 L14.05 -20.65 15.8 -20.45 15.35 -20.5 12.6 -20.7 Q10.7 -20.7 8.65 -19.7 L6.2 -18.7 Q4.15 -18.7 4.15 -20.45 4.15 -21.05 4.45 -21.55 L4.4 -21.75 4.25 -21.55 M19.4 -20.65 Q20.05 -20.85 20.05 -21.65 L20.05 -21.9 20.65 -20.75 20.7 -20.7 19.75 -20.0 19.75 -19.95 19.85 -20.95 19.4 -20.65" fill="url(#gradient1)" fill-rule="evenodd" stroke="none"/>
    <path d="M20.05 -21.9 L20.0 -22.2 20.15 -22.15 21.5 -21.45 20.75 -20.75 19.75 -19.95 19.75 -20.0 20.7 -20.7 20.65 -20.75 20.05 -21.9" fill="url(#gradient2)" fill-rule="evenodd" stroke="none"/>
    <path d="M13.55 3.3 L13.65 3.15 13.65 3.1 14.0 2.35 14.25 1.55 14.1 0.95 13.95 0.7 13.5 0.2 13.0 -0.15 12.1 -0.6 10.3 -1.05 9.75 -1.05 9.65 -1.05 7.55 -1.15 5.9 -0.85 5.65 -0.8 3.5 -0.05 0.3 1.0 Q-1.4 1.45 -3.15 2.35 L-3.3 2.4 -4.25 2.95 -5.5 3.65 -5.95 3.85 -6.45 4.4 -6.45 4.3 Q-6.45 3.55 -8.05 3.55 L-10.9 4.05 -10.75 4.0 -10.25 3.7 -10.2 3.7 -9.05 3.1 -8.45 2.85 -5.45 1.5 -1.85 0.35 Q0.1 0.0 1.8 -0.7 L5.3 -1.9 Q6.75 -2.45 7.9 -3.55 L7.95 -3.55 8.15 -3.8 8.6 -4.45 9.75 -3.65 9.85 -3.65 11.0 -3.0 Q12.9 -3.0 13.75 -5.55 14.6 -6.2 18.65 -7.95 20.7 -9.45 21.55 -12.35 L21.3 -13.1 Q21.3 -13.7 23.3 -14.7 L24.35 -15.95 24.35 -15.65 24.35 -15.4 24.25 -14.3 Q23.9 -12.8 22.6 -11.2 L22.15 -12.95 22.0 -13.1 21.85 -13.15 21.8 -13.15 21.75 -13.1 21.55 -12.65 21.75 -11.3 21.75 -10.85 21.75 -10.55 21.75 -10.4 21.75 -10.3 21.55 -8.85 21.35 -8.1 21.05 -7.4 20.9 -7.15 20.85 -7.05 18.85 -4.3 17.65 -2.95 19.9 -4.4 Q20.3 -3.95 21.6 -3.8 L20.85 -3.3 20.1 -2.7 19.0 -1.75 18.95 -1.7 17.6 0.05 18.1 -0.25 16.6 1.25 13.55 3.3 M-7.0 5.85 L-7.05 6.0 -6.9 6.05 -6.2 5.55 -6.85 6.95 Q-7.6 7.5 -8.4 7.65 L-9.05 7.65 -9.15 7.65 Q-7.7 6.75 -7.0 5.85 M-23.05 8.0 L-23.1 8.0 -22.9 7.9 -22.85 7.85 -23.25 7.7 -23.9 7.4 -25.0 6.65 -26.45 5.15 -25.85 5.25 Q-25.15 5.25 -25.05 4.9 L-25.0 4.75 -24.75 4.95 -24.2 5.1 -24.05 5.05 -24.1 4.9 -24.1 4.85 Q-23.1 5.5 -22.3 5.8 -19.2 5.8 -18.85 6.4 L-19.2 6.7 -19.3 6.75 -19.15 6.85 -19.7 7.15 Q-19.95 6.9 -20.2 6.9 L-21.35 7.15 -21.8 7.25 -22.75 7.45 -22.85 7.45 -22.75 7.5 -22.5 7.65 -22.15 7.8 -23.05 8.0 M15.95 -14.95 L15.65 -15.0 15.6 -15.0 15.35 -15.0 15.4 -15.0 15.7 -15.7 15.75 -16.5 Q15.55 -17.7 15.0 -18.5 L14.5 -19.05 14.95 -19.0 15.2 -19.0 15.5 -18.95 16.65 -18.85 17.45 -18.7 17.3 -18.65 18.2 -18.7 18.65 -18.4 Q19.95 -17.25 19.95 -16.9 L15.95 -14.95 M16.45 -17.4 L16.45 -17.35 16.75 -17.2 16.45 -17.4 M3.85 -16.75 L4.5 -16.7 6.1 -17.05 6.05 -16.85 6.05 -16.7 6.1 -16.3 5.05 -16.5 3.9 -16.4 3.85 -16.75 M3.95 -15.6 L3.95 -15.8 4.05 -15.75 Q5.95 -15.75 6.15 -16.1 L6.5 -15.25 5.25 -15.45 3.9 -15.3 3.95 -15.6 M17.7 -4.3 L17.5 -4.55 15.8 -2.8 15.85 -2.65 16.05 -2.6 17.1 -3.3 17.7 -4.3 M14.6 -2.75 L14.65 -2.6 15.3 -2.65 15.6 -3.1 15.65 -3.5 Q14.6 -3.5 14.6 -2.75" fill="#cca9a9" fill-rule="evenodd" stroke="none"/>
    <path d="M16.45 -17.4 L16.75 -17.2 16.45 -17.35 16.45 -17.4" fill="url(#gradient3)" fill-rule="evenodd" stroke="none"/>
    <path d="M24.2 -4.0 L24.2 -3.85 Q21.25 -0.55 20.6 0.65 18.5 4.25 17.1 5.3 15.75 6.3 14.75 9.95 14.45 10.95 11.95 14.5 L12.25 16.8 Q12.25 18.15 10.85 21.45 10.4 25.4 6.55 25.4 3.35 25.4 2.8 22.05 1.75 18.8 1.75 18.05 2.45 16.2 2.45 15.35 L2.3 14.65 3.85 9.7 5.6 6.15 6.45 5.25 8.05 3.65 Q9.85 2.75 10.45 1.9 L10.8 3.4 Q11.35 2.7 11.05 1.8 L10.35 -0.15 12.1 0.5 Q13.45 1.1 13.45 1.65 13.45 2.2 13.05 3.05 L12.75 3.6 12.6 3.85 12.85 3.95 Q13.15 3.95 13.55 3.4 L13.55 3.3 16.6 1.25 18.1 -0.25 22.1 -3.1 24.2 -4.0 M20.2 -1.15 L20.25 -1.2 20.15 -1.2 20.2 -1.15 M19.25 0.4 L19.25 0.45 19.25 0.4" fill="url(#gradient4)" fill-rule="evenodd" stroke="none"/>
  </g>
  <defs>
    <radialGradient cx="0" cy="0" gradientTransform="matrix(0.0339, -0.0071, 0.0026, 0.0124, -8.3, -8.4)" gradientUnits="userSpaceOnUse" id="gradient0" r="819.2" spreadMethod="pad">
      <stop offset="0.47843137254901963" stop-color="#ffffff"></stop>
      <stop offset="0.8823529411764706" stop-color="#f2eaea"></stop>
    </radialGradient>
    <radialGradient cx="0" cy="0" gradientTransform="matrix(0.017, -0.0021, 8.0E-4, 0.0065, 5.4, -22.25)" gradientUnits="userSpaceOnUse" id="gradient1" r="819.2" spreadMethod="pad">
      <stop offset="0.47843137254901963" stop-color="#ffffff"></stop>
      <stop offset="0.8823529411764706" stop-color="#f2eaea"></stop>
    </radialGradient>
    <radialGradient cx="0" cy="0" gradientTransform="matrix(0.0153, -0.003, 0.0014, 0.0073, 4.6, -21.6)" gradientUnits="userSpaceOnUse" id="gradient2" r="819.2" spreadMethod="pad">
      <stop offset="0.47843137254901963" stop-color="#ffffff"></stop>
      <stop offset="0.8823529411764706" stop-color="#f2eaea"></stop>
    </radialGradient>
    <radialGradient cx="0" cy="0" gradientTransform="matrix(0.0339, -0.0071, 0.0026, 0.0124, -12.9, -7.75)" gradientUnits="userSpaceOnUse" id="gradient3" r="819.2" spreadMethod="pad">
      <stop offset="0.47843137254901963" stop-color="#ffffff"></stop>
      <stop offset="0.8823529411764706" stop-color="#f2eaea"></stop>
    </radialGradient>
    <linearGradient gradientTransform="matrix(0.0, -0.0154, 0.0181, 0.0, 12.2, 12.85)" gradientUnits="userSpaceOnUse" id="gradient4" spreadMethod="pad" x1="-819.2" x2="819.2">
      <stop offset="0.00392156862745098" stop-color="#660000" stop-opacity="0.0"></stop>
      <stop offset="1.0" stop-color="#660000" stop-opacity="0.2"></stop>
    </linearGradient>
  </defs>
</svg>