<?xml version="1.0" encoding="UTF-8" standalone="no"?>
<svg xmlns:xlink="http://www.w3.org/1999/xlink" height="21.55px" width="17.55px" xmlns="http://www.w3.org/2000/svg">
  <g transform="matrix(1.0, 0.0, 0.0, 1.0, 1, 1)">
    <path d="M4.1 3.9 L3.7 4.15 3.6 4.1 Q4.2 3.25 6.6 1.85 9.8 0.0 12.7 0.0 14.05 0.0 14.9 0.95 L15.55 2.25 Q15.55 2.75 15.15 2.75 12.4 3.85 11.95 4.35 11.4 5.05 10.95 6.65 L10.8 6.7 10.7 6.6 10.6 6.45 10.55 6.3 10.6 5.95 Q10.7 5.1 11.35 4.1 12.15 2.95 13.4 2.55 L14.8 2.3 14.85 2.3 14.4 1.75 13.95 1.3 Q13.2 0.8 11.85 0.75 L11.5 0.75 Q9.45 0.75 4.95 3.4 L4.9 3.45 4.1 3.9 M8.55 6.1 L8.5 6.7 8.25 6.85 Q8.05 6.6 8.2 5.4 8.25 4.45 7.65 4.45 6.7 4.45 5.15 5.35 L4.95 5.15 4.95 5.1 4.95 5.05 5.0 4.95 5.3 4.7 6.05 4.25 Q7.1 3.8 7.75 3.8 L8.25 4.0 8.6 4.5 8.75 5.15 8.55 6.1 M0.65 10.25 L0.7 10.25 0.7 10.3 0.75 10.45 1.55 14.45 1.45 14.95 0.95 16.65 0.9 16.85 0.75 17.4 0.55 18.0 0.5 18.3 0.45 18.4 0.25 19.0 0.0 18.7 0.9 14.4 0.4 10.9 0.4 10.35 0.65 10.25 M6.9 15.95 L6.95 16.0 6.95 16.05 3.7 17.55 Q2.85 18.15 1.9 19.35 L1.7 19.2 1.7 19.1 Q1.7 18.8 2.25 18.25 L3.6 17.1 5.65 15.9 6.45 15.7 6.55 15.75 6.65 15.8 6.9 15.95 M7.0 12.8 L7.0 12.85 6.1 13.5 4.7 14.0 3.7 13.8 3.6 13.75 2.6 12.45 2.45 12.1 2.5 11.4 2.5 11.35 2.5 11.2 2.55 10.5 2.6 10.25 2.8 9.65 3.05 9.4 Q3.5 10.4 3.35 10.85 L3.1 12.0 Q3.1 12.25 3.6 12.75 4.15 13.25 4.65 13.25 5.2 13.25 6.7 12.5 L7.0 12.8" fill="#a36a6a" fill-rule="evenodd" stroke="none"/>
    <path d="M10.7 6.6 Q10.5 7.2 9.9 7.25 9.65 7.1 9.7 6.65 9.7 6.05 10.5 3.95 10.9 2.15 12.05 1.4 L11.85 0.75 Q13.2 0.8 13.95 1.3 L14.4 1.75 14.85 2.3 14.8 2.3 13.4 2.55 Q12.15 2.95 11.35 4.1 10.7 5.1 10.6 5.95 L10.55 6.3 10.6 6.45 10.7 6.6 M4.95 5.1 L4.9 5.1 4.95 5.05 4.95 5.1 M5.3 4.7 L5.8 4.2 Q7.35 2.85 8.25 2.85 L8.9 3.5 8.25 4.0 7.75 3.8 Q7.1 3.8 6.05 4.25 L5.3 4.7 M0.25 19.0 L0.45 18.4 0.5 18.3 0.55 18.05 0.55 18.0 0.75 17.4 0.9 16.85 0.95 16.65 1.45 14.95 1.7 15.3 Q1.85 15.65 2.75 15.65 L4.4 15.25 5.25 14.85 Q6.95 14.2 7.6 14.2 8.15 14.2 8.15 14.65 L6.9 15.95 6.65 15.8 6.55 15.75 6.45 15.7 5.65 15.9 3.6 17.1 2.25 18.25 Q1.7 18.8 1.7 19.1 L1.7 19.2 1.85 19.35 1.15 19.55 0.75 19.5 Q0.3 19.4 0.25 19.0 M3.7 13.8 L4.05 13.95 3.35 14.1 Q2.45 14.1 2.15 13.25 2.15 12.65 2.6 12.45 L3.6 13.75 3.7 13.8" fill="#e0cbcb" fill-rule="evenodd" stroke="none"/>
    <path d="M9.9 7.25 L9.75 7.25 Q8.8 7.25 8.55 6.1 L8.75 5.15 8.6 4.5 8.25 4.0 8.9 3.5 8.25 2.85 Q7.35 2.85 5.8 4.2 L5.3 4.7 5.0 4.95 4.95 5.05 4.9 5.1 Q4.15 5.0 4.05 4.05 L4.1 3.9 4.9 3.45 4.95 3.4 Q9.45 0.75 11.5 0.75 L11.85 0.75 12.05 1.4 Q10.9 2.15 10.5 3.95 9.7 6.05 9.7 6.65 9.65 7.1 9.9 7.25 M9.75 5.3 L9.75 5.35 9.8 5.35 9.75 5.3 M1.45 14.95 L1.55 14.45 0.75 10.45 0.7 10.3 0.7 10.25 0.65 10.25 Q0.7 9.2 2.25 9.2 L2.8 9.65 2.6 10.25 2.55 10.5 2.5 11.2 2.5 11.35 2.5 11.4 2.45 12.1 2.6 12.45 Q2.15 12.65 2.15 13.25 2.45 14.1 3.35 14.1 L4.05 13.95 3.7 13.8 4.7 14.0 6.1 13.5 7.0 12.85 7.0 12.8 7.05 12.8 Q7.85 12.8 8.1 13.5 L8.2 14.2 Q8.2 15.7 6.95 16.0 L6.9 15.95 8.15 14.65 Q8.15 14.2 7.6 14.2 6.95 14.2 5.25 14.85 L4.4 15.25 2.75 15.65 Q1.85 15.65 1.7 15.3 L1.45 14.95" fill="#f2eaea" fill-rule="evenodd" stroke="none"/>
  </g>
</svg>