<?xml version="1.0" encoding="UTF-8" standalone="no"?>
<svg xmlns:xlink="http://www.w3.org/1999/xlink" height="59.8px" width="59.6px" xmlns="http://www.w3.org/2000/svg">
  <g transform="matrix(1.0, 0.0, 0.0, 1.0, 34.45, 32.5)">
    <path d="M-17.9 -25.65 L-18.8 -25.4 -23.85 -23.7 Q-25.1 -23.1 -25.5 -21.5 L-25.7 -19.2 -25.55 -16.95 -26.2 -18.15 -26.8 -19.1 -29.0 -21.05 Q-29.95 -21.6 -31.05 -22.0 L-31.85 -22.3 -31.95 -22.35 -32.3 -22.45 -32.45 -22.5 -32.8 -22.55 -30.5 -23.65 Q-27.7 -24.9 -26.95 -26.05 L-25.7 -28.3 -24.7 -29.85 -23.9 -28.75 Q-22.75 -27.45 -20.65 -26.7 L-19.5 -26.25 -18.1 -25.75 -17.9 -25.65 M-13.15 4.5 L-11.55 4.75 -5.25 5.35 Q-1.65 5.35 0.7 4.0 L2.7 2.65 Q3.15 2.65 4.1 3.35 L5.95 -0.35 5.9 0.35 5.85 1.0 5.8 1.1 6.15 1.55 6.85 2.5 7.3 3.3 8.45 4.85 10.45 6.4 11.05 6.75 12.15 7.3 11.9 7.85 10.65 8.65 10.65 8.8 10.4 8.95 10.25 9.3 10.3 9.55 11.3 9.25 11.25 9.3 11.2 9.85 Q11.2 12.1 15.85 12.1 L16.5 12.1 Q17.5 11.95 18.05 11.45 18.6 10.95 18.6 10.4 L18.1 9.65 18.15 9.6 18.45 9.8 20.1 10.85 20.95 11.7 21.6 12.55 Q24.35 17.05 20.55 20.35 17.2 23.2 12.8 23.15 L10.1 22.35 10.55 21.65 Q11.15 20.6 11.4 19.3 L10.95 19.35 Q10.35 19.55 9.5 20.65 6.95 23.85 2.75 24.55 L0.8 24.8 0.65 24.6 0.4 24.8 -2.4 24.35 -2.4 24.25 1.1 22.25 6.8 18.55 Q7.5 18.0 8.6 15.8 9.1 14.85 9.7 14.45 L9.6 14.3 10.15 13.75 10.3 13.3 Q10.3 11.55 8.75 10.75 L8.85 10.45 6.5 9.85 4.95 8.95 5.35 8.1 6.05 7.25 5.85 7.05 7.25 6.7 7.1 6.3 5.4 6.15 5.35 6.15 4.6 6.25 4.3 6.35 4.05 6.35 1.6 6.6 -3.0 6.8 -2.35 6.6 -5.4 7.3 -5.5 7.3 Q-6.6 7.8 -6.6 9.25 L-6.95 11.1 Q-7.35 12.8 -7.35 14.0 L-7.85 15.65 -7.9 15.8 -7.9 15.65 -8.05 12.5 Q-8.05 11.45 -8.7 10.95 -9.2 11.2 -9.3 12.5 L-9.4 13.3 -9.9 13.1 -9.95 12.75 -9.5 9.5 -10.1 6.95 -12.25 6.6 -13.2 6.55 -13.3 5.9 -13.3 5.8 -10.35 5.65 -12.2 4.95 -13.15 4.5 M2.3 5.15 L1.2 4.8 -0.5 5.5 -0.3 5.6 0.15 5.7 Q1.3 5.85 2.3 5.15" fill="#cca9a9" fill-rule="evenodd" stroke="none"/>
    <path d="M5.9 0.35 Q6.45 -4.9 4.7 -9.75 L4.7 -9.8 4.45 -10.45 3.6 -12.35 3.5 -12.55 3.45 -12.7 3.2 -13.15 2.95 -13.55 2.7 -14.0 2.7 -13.95 Q0.9 -16.75 -1.65 -18.65 -4.85 -21.0 -8.75 -22.35 L-14.7 -24.45 -15.4 -24.75 -16.2 -25.0 -16.2 -25.05 -16.85 -25.3 -16.85 -25.25 -17.55 -25.55 -17.9 -25.65 -18.1 -25.75 -19.5 -26.25 -20.65 -26.7 Q-22.75 -27.45 -23.9 -28.75 L-24.7 -29.85 Q-25.1 -30.6 -25.3 -31.5 L-23.0 -29.75 Q-21.5 -28.35 -18.35 -27.05 L-10.65 -24.35 Q-6.2 -22.9 -2.1 -20.25 1.95 -17.65 3.35 -15.3 4.75 -12.95 6.15 -9.3 7.5 -5.7 6.9 0.35 L7.4 1.4 8.4 3.1 Q9.3 4.7 10.9 5.45 L12.3 5.85 16.0 7.05 Q18.0 7.8 19.9 8.9 L20.15 9.05 Q21.1 9.75 22.05 10.9 L23.1 12.4 Q24.25 14.6 24.15 17.1 24.05 18.95 23.05 20.4 21.0 23.3 17.5 24.2 13.25 25.4 9.25 23.6 L7.25 24.7 Q3.25 26.9 -1.2 26.05 -3.65 25.7 -5.4 24.15 -9.1 20.8 -9.4 15.85 L-9.4 15.8 -9.45 15.25 Q-11.1 14.95 -12.5 13.85 -13.95 12.8 -14.4 11.2 L-14.85 5.4 -16.1 4.6 -20.05 -0.4 Q-22.55 -4.45 -24.05 -8.9 L-25.05 -12.8 Q-25.55 -15.95 -27.7 -18.35 -30.05 -20.8 -33.1 -21.65 L-33.25 -21.7 -33.45 -22.05 -33.35 -22.25 -33.15 -22.5 -32.8 -22.55 -32.45 -22.5 -32.3 -22.45 -31.95 -22.35 -31.85 -22.3 -31.05 -22.0 Q-29.95 -21.6 -29.0 -21.05 L-26.8 -19.1 -26.2 -18.15 -25.55 -16.95 -23.8 -12.8 -23.8 -12.75 -23.65 -12.35 -23.45 -11.65 -22.75 -8.45 -22.65 -7.95 -22.65 -8.0 Q-21.85 -5.4 -20.35 -3.05 L-20.25 -2.85 -18.75 -0.55 Q-16.65 2.7 -13.15 4.5 L-12.2 4.95 -10.35 5.65 -13.3 5.8 -13.3 5.9 -12.8 9.75 -12.5 11.0 Q-11.45 12.3 -9.9 13.1 L-9.4 13.3 -9.3 12.5 Q-9.2 11.2 -8.7 10.95 -8.05 11.45 -8.05 12.5 L-7.9 15.65 -7.9 15.8 -7.9 15.85 -7.8 17.8 -6.6 15.5 -6.6 15.45 -6.6 15.55 Q-6.65 18.2 -6.15 20.9 -5.85 22.6 -4.5 23.4 L-2.4 24.35 0.4 24.8 0.8 24.8 2.75 24.55 Q6.95 23.85 9.5 20.65 10.35 19.55 10.95 19.35 L11.4 19.3 Q11.15 20.6 10.55 21.65 L10.1 22.35 12.8 23.15 Q17.2 23.2 20.55 20.35 24.35 17.05 21.6 12.55 L20.95 11.7 20.1 10.85 18.45 9.8 18.15 9.6 17.95 9.5 17.05 9.05 16.15 8.75 13.7 8.55 12.4 8.8 12.35 8.85 12.3 8.85 12.2 8.9 11.3 9.25 10.3 9.55 10.25 9.3 10.4 8.95 10.65 8.8 10.75 8.65 10.65 8.65 11.9 7.85 12.5 7.45 12.15 7.3 11.05 6.75 10.45 6.4 8.45 4.85 7.3 3.3 6.85 2.5 6.15 1.55 5.8 1.1 5.85 1.0 5.9 0.35 M4.3 6.35 L4.6 6.25 5.35 6.15 5.4 6.15 7.1 6.3 7.25 6.7 5.85 7.05 5.75 7.1 3.75 7.2 3.8 6.65 Q4.05 6.45 4.3 6.35 M2.3 5.15 Q1.3 5.85 0.15 5.7 L-0.3 5.6 -0.5 5.5 1.2 4.8 2.3 5.15 M7.0 10.15 Q7.85 10.55 8.75 11.1 L6.8 10.55 Q5.5 9.95 4.15 9.9 L4.0 9.9 2.95 9.95 1.85 10.15 Q-0.5 10.6 -2.75 11.8 L-5.65 13.3 -5.7 13.2 -5.75 13.1 Q-5.6 12.2 -4.8 11.65 -2.85 10.15 -0.5 9.45 L5.8 9.6 7.0 10.15 M-8.7 -17.3 L-7.4 -17.15 Q-5.9 -16.25 -5.5 -14.75 -5.35 -14.25 -5.5 -13.7 -6.1 -11.75 -8.15 -12.25 -10.55 -12.55 -11.3 -14.65 L-11.3 -14.7 -11.05 -15.25 -11.1 -15.25 Q-10.55 -16.35 -9.3 -16.55 L-9.25 -16.5 -8.0 -15.75 -7.95 -15.75 -7.65 -15.4 -7.35 -15.0 -7.35 -14.95 -7.4 -14.75 -7.65 -14.3 -7.7 -14.25 -7.75 -14.25 -7.8 -14.25 -9.2 -15.55 -10.0 -15.3 -10.3 -14.4 -10.1 -13.95 -9.45 -13.55 Q-7.75 -12.6 -6.3 -13.55 -6.25 -14.45 -6.75 -15.15 L-7.6 -16.35 Q-8.05 -16.95 -8.65 -17.1 L-8.7 -17.1 -8.75 -17.2 -8.7 -17.25 -8.7 -17.3" fill="#a36a6a" fill-rule="evenodd" stroke="none"/>
    <path d="M2.7 -13.95 L2.7 -14.0 2.95 -13.55 3.2 -13.15 3.45 -12.7 3.5 -12.55 3.6 -12.35 4.45 -10.45 4.7 -9.8 4.7 -9.75 Q6.45 -4.9 5.9 0.35 L5.95 -0.35 4.1 3.35 Q3.15 2.65 2.7 2.65 L0.7 4.0 Q-1.65 5.35 -5.25 5.35 L-11.55 4.75 -13.15 4.5 Q-16.65 2.7 -18.75 -0.55 L-20.25 -2.85 -20.2 -2.85 -20.35 -3.05 Q-21.85 -5.4 -22.65 -8.0 L-22.65 -7.95 -22.75 -8.45 -23.45 -11.65 -23.65 -12.35 -23.8 -12.75 -23.8 -12.8 -25.55 -16.95 -25.7 -19.2 -25.5 -21.5 Q-25.1 -23.1 -23.85 -23.7 L-18.8 -25.4 -17.9 -25.65 -17.55 -25.55 -16.85 -25.25 -16.85 -25.3 -16.2 -25.05 -16.2 -25.0 -15.4 -24.75 -14.75 -24.45 -16.55 -24.1 Q-18.85 -21.6 -20.15 -17.95 -21.45 -14.35 -21.25 -10.5 L-21.45 -11.35 -20.55 -8.2 Q-17.6 0.5 -11.4 0.5 -2.85 0.5 0.9 -4.8 2.8 -7.45 2.95 -10.3 L2.7 -13.95 M12.15 7.3 L12.5 7.45 11.9 7.85 12.15 7.3 M11.3 9.25 L12.2 8.9 12.3 8.85 12.35 8.85 12.4 8.8 13.7 8.55 16.15 8.75 17.05 9.05 17.95 9.5 18.15 9.6 18.1 9.65 18.6 10.4 Q18.6 10.95 18.05 11.45 17.5 11.95 16.5 12.1 L15.85 12.1 Q11.2 12.1 11.2 9.85 L11.25 9.3 11.3 9.25 M0.8 24.8 L0.4 24.8 0.65 24.6 0.8 24.8 M-2.4 24.35 L-4.5 23.4 Q-5.85 22.6 -6.15 20.9 -6.65 18.2 -6.6 15.55 L-6.6 15.45 -6.6 15.5 -7.8 17.8 -7.9 15.85 -7.9 15.8 -7.85 15.65 -7.35 14.0 Q-7.35 12.8 -6.95 11.1 L-6.6 9.25 Q-6.6 7.8 -5.5 7.3 L-5.4 7.3 -2.35 6.6 -3.0 6.8 1.6 6.6 4.05 6.35 4.3 6.35 Q4.05 6.45 3.8 6.65 L3.75 7.2 5.75 7.1 5.85 7.05 6.05 7.25 5.35 8.1 4.95 8.95 6.5 9.85 8.85 10.45 8.75 10.75 7.0 10.15 5.8 9.6 -0.5 9.45 Q-2.85 10.15 -4.8 11.65 -5.6 12.2 -5.75 13.1 L-5.7 13.2 -5.75 13.3 -5.95 14.15 -4.8 15.3 -4.1 15.75 Q-2.15 16.9 -0.9 16.9 4.15 16.9 7.6 15.4 L9.6 14.3 9.7 14.45 Q9.1 14.85 8.6 15.8 7.5 18.0 6.8 18.55 L1.1 22.25 -2.4 24.25 -2.4 24.35 M-9.9 13.1 Q-11.45 12.3 -12.5 11.0 L-12.8 9.75 -13.3 5.9 -13.2 6.55 -12.25 6.6 -10.1 6.95 -9.5 9.5 -9.95 12.75 -9.9 13.1 M1.1 7.25 L1.65 7.15 Q-0.15 7.15 -2.25 7.9 -4.6 8.7 -4.6 9.65 L-4.5 10.1 -3.8 10.3 -2.3 9.65 -0.05 8.45 2.15 7.95 4.3 7.45 1.1 7.25 M-22.3 -18.75 Q-22.5 -16.85 -22.25 -15.15 L-22.1 -12.95 -22.0 -14.0 -21.9 -13.4 Q-22.45 -17.3 -20.7 -20.25 -19.05 -23.15 -17.85 -23.7 L-20.7 -21.85 Q-22.15 -20.7 -22.3 -18.75" fill="#e0cbcb" fill-rule="evenodd" stroke="none"/>
    <path d="M2.7 -13.95 L2.95 -10.3 Q2.8 -7.45 0.9 -4.8 -2.85 0.5 -11.4 0.5 -17.6 0.5 -20.55 -8.2 L-21.45 -11.35 -21.25 -10.5 Q-21.45 -14.35 -20.15 -17.95 -18.85 -21.6 -16.55 -24.1 L-14.75 -24.45 -15.4 -24.75 -14.7 -24.45 -8.75 -22.35 Q-4.85 -21.0 -1.65 -18.65 0.9 -16.75 2.7 -13.95 M-20.35 -3.05 L-20.2 -2.85 -20.25 -2.85 -20.35 -3.05 M1.1 7.25 L4.3 7.45 2.15 7.95 -0.05 8.45 -2.3 9.65 -3.8 10.3 -4.5 10.1 -4.6 9.65 Q-4.6 8.7 -2.25 7.9 -0.15 7.15 1.65 7.15 L1.1 7.25 M-5.7 13.2 L-5.65 13.3 -5.75 13.3 -5.7 13.2 M-22.3 -18.75 Q-22.15 -20.7 -20.7 -21.85 L-17.85 -23.7 Q-19.05 -23.15 -20.7 -20.25 -22.45 -17.3 -21.9 -13.4 L-22.0 -14.0 -22.1 -12.95 -22.25 -15.15 Q-22.5 -16.85 -22.3 -18.75 M-8.7 -17.3 L-8.7 -17.25 -8.75 -17.2 -8.7 -17.1 -8.65 -17.1 Q-8.05 -16.95 -7.6 -16.35 L-6.75 -15.15 Q-6.25 -14.45 -6.3 -13.55 -7.75 -12.6 -9.45 -13.55 L-10.1 -13.95 -10.3 -14.4 -10.0 -15.3 -9.2 -15.55 -7.8 -14.25 -7.75 -14.25 -7.7 -14.25 -7.65 -14.3 -7.4 -14.75 -7.35 -14.95 -7.35 -15.0 -7.65 -15.4 -7.95 -15.75 -8.0 -15.75 -9.25 -16.5 -9.3 -16.55 Q-10.55 -16.35 -11.1 -15.25 L-11.05 -15.25 -11.3 -14.7 -11.3 -14.65 Q-10.55 -12.55 -8.15 -12.25 -6.1 -11.75 -5.5 -13.7 -5.35 -14.25 -5.5 -14.75 -5.9 -16.25 -7.4 -17.15 L-8.7 -17.3" fill="url(#gradient0)" fill-rule="evenodd" stroke="none"/>
    <path d="M8.75 10.75 Q10.3 11.55 10.3 13.3 L10.15 13.75 9.6 14.3 7.6 15.4 Q4.15 16.9 -0.9 16.9 -2.15 16.9 -4.1 15.75 L-4.8 15.3 -5.95 14.15 -5.75 13.3 -5.65 13.3 -2.75 11.8 Q-0.5 10.6 1.85 10.15 L2.95 9.95 4.0 9.9 4.15 9.9 Q5.5 9.95 6.8 10.55 L8.75 11.1 Q7.85 10.55 7.0 10.15 L8.75 10.75" fill="url(#gradient1)" fill-rule="evenodd" stroke="none"/>
  </g>
  <defs>
    <radialGradient cx="0" cy="0" gradientTransform="matrix(0.0215, 0.0, 0.0, 0.0215, -14.65, -13.55)" gradientUnits="userSpaceOnUse" id="gradient0" r="819.2" spreadMethod="pad">
      <stop offset="0.47843137254901963" stop-color="#ffffff"></stop>
      <stop offset="0.8823529411764706" stop-color="#f2eaea"></stop>
    </radialGradient>
    <radialGradient cx="0" cy="0" gradientTransform="matrix(0.0154, 0.0, 0.0, 0.0154, -3.6, 8.6)" gradientUnits="userSpaceOnUse" id="gradient1" r="819.2" spreadMethod="pad">
      <stop offset="0.47843137254901963" stop-color="#ffffff"></stop>
      <stop offset="0.8823529411764706" stop-color="#f2eaea"></stop>
    </radialGradient>
  </defs>
</svg>