<?xml version="1.0" encoding="UTF-8" standalone="no"?>
<svg xmlns:xlink="http://www.w3.org/1999/xlink" height="26.7px" width="12px" xmlns="http://www.w3.org/2000/svg">
  <g transform="matrix(1.0, 0.0, 0.0, 1.0, 14.4, 18.6)">
    <path d="M-6.25 -17.5 Q-6.05 -16.85 -6.45 -16.2 L-6.45 -16.15 Q-4.6 -16.4 -4.6 -14.6 -4.6 -13.8 -6.35 -11.95 -4.8 -10.4 -4.8 -9.45 L-5.05 -8.35 -3.4 -2.5 Q-3.4 -0.95 -5.35 2.5 L-8.1 7.1 -8.55 6.6 Q-8.55 5.75 -6.8 2.35 -5.1 -1.05 -5.1 -2.55 -5.1 -3.3 -6.2 -5.7 L-6.4 -5.35 -8.15 -1.9 Q-8.4 -0.8 -10.25 1.35 -11.85 3.25 -11.9 5.3 L-12.4 5.45 Q-13.4 5.45 -13.4 4.4 -13.4 2.55 -11.8 1.2 -10.0 -0.25 -9.6 -2.6 L-8.75 -4.35 Q-8.0 -5.4 -7.9 -6.2 L-7.1 -9.7 Q-7.7 -10.65 -8.7 -11.3 -9.35 -11.75 -9.35 -12.3 -9.35 -13.15 -8.55 -13.55 L-8.15 -13.7 Q-9.85 -13.8 -9.85 -15.15 -9.85 -16.25 -6.95 -17.6 L-6.25 -17.5" fill="#a61515" fill-rule="evenodd" stroke="none"/>
  </g>
</svg>