<?xml version="1.0" encoding="UTF-8" standalone="no"?>
<svg xmlns:xlink="http://www.w3.org/1999/xlink" height="54.95px" width="65.75px" xmlns="http://www.w3.org/2000/svg">
  <g transform="matrix(1.0, 0.0, 0.0, 1.0, 1.75, 2.05)">
    <path d="M38.55 22.1 L40.5 23.3 40.9 23.5 41.1 23.55 41.5 23.75 41.2 23.7 40.95 23.6 40.7 23.55 40.0 23.35 39.3 23.15 38.75 23.0 38.6 22.9 38.4 22.8 31.55 24.1 27.7 25.0 25.0 25.75 24.85 25.85 Q23.55 26.6 22.2 27.9 19.75 30.25 19.75 31.25 L20.0 31.75 21.5 33.35 21.75 33.55 21.95 33.0 22.95 31.95 Q22.95 31.55 25.0 30.15 L26.05 31.25 Q25.9 31.3 25.8 31.45 L24.0 33.4 22.95 34.7 24.45 35.95 Q25.7 36.95 27.95 38.0 L27.0 40.2 24.95 46.8 24.75 48.3 23.3 48.0 Q20.8 47.55 19.35 45.05 L19.1 44.65 18.7 43.65 Q19.15 39.6 22.95 34.7 L21.75 33.55 20.95 34.9 19.65 36.9 17.9 40.1 17.6 40.7 17.15 39.75 17.05 39.45 16.25 38.35 16.25 37.05 Q17.25 34.25 18.55 32.0 21.5 26.7 25.95 24.25 27.95 23.1 30.3 22.55 L34.95 22.05 38.55 22.1 M39.85 24.25 L42.55 24.3 46.0 25.95 44.25 25.8 Q42.6 24.95 40.75 24.5 L39.9 24.25 39.85 24.25 M48.2 27.25 L48.35 27.35 49.35 28.0 51.15 30.7 51.35 30.8 Q53.65 32.25 56.55 35.05 L56.9 35.55 Q57.95 37.1 60.85 43.0 L49.4 50.1 Q34.7 50.2 32.05 49.75 L26.45 48.65 Q26.15 47.55 26.5 45.4 27.05 41.95 29.05 38.5 L27.95 38.0 28.5 36.6 30.2 34.65 31.2 35.35 30.6 36.15 29.15 38.3 29.05 38.5 29.9 38.85 Q35.4 41.1 38.2 41.1 42.3 41.1 54.1 37.9 54.2 36.15 51.75 31.75 L51.15 30.7 Q49.9 29.9 48.75 29.45 L47.3 27.95 46.3 27.15 46.2 27.1 48.2 27.25" fill="#cd9c23" fill-rule="evenodd" stroke="none"/>
    <path d="M2.9 5.05 L3.2 4.85 3.85 6.95 3.95 7.25 4.2 8.1 4.25 8.2 Q7.05 10.05 10.5 10.45 L18.8 11.25 Q23.6 11.6 26.5 8.75 29.15 6.1 30.4 3.8 L30.65 3.3 29.8 1.75 29.6 1.35 29.0 0.3 29.1 0.25 29.85 0.0 32.2 0.6 32.9 0.8 33.25 0.9 34.35 1.2 34.65 1.2 34.7 1.5 34.75 3.15 31.4 7.75 27.1 12.85 Q28.0 12.4 32.25 10.25 32.8 10.25 34.2 12.3 L35.3 14.0 36.4 15.55 36.65 15.8 38.65 16.95 Q38.3 17.2 38.05 17.4 L36.95 18.05 32.4 16.8 30.45 16.2 30.0 16.05 25.75 18.65 24.5 19.35 Q18.65 22.65 16.5 22.65 15.0 18.9 15.0 17.9 15.0 17.5 16.9 16.3 18.75 15.15 19.2 15.15 L18.0 14.85 12.5 13.95 0.2 8.05 0.15 8.0 0.6 7.3 Q1.3 6.15 2.05 5.65 L2.9 5.05 M25.0 22.75 L25.55 22.05 27.65 19.75 Q29.2 18.15 30.45 17.85 31.65 17.5 33.45 18.75 L35.45 20.1 Q29.3 20.65 25.0 22.75" fill="#ffffff" fill-rule="evenodd" stroke="none"/>
    <path d="M34.75 3.15 L34.7 11.5 Q34.85 12.9 35.3 14.0 L34.2 12.3 Q32.8 10.25 32.25 10.25 28.0 12.4 27.1 12.85 L31.4 7.75 34.75 3.15 M38.65 16.95 L39.15 17.1 39.2 17.1 39.15 17.1 39.1 17.15 39.0 17.2 36.9 18.95 35.9 20.1 35.85 20.15 35.95 20.25 38.3 21.95 38.55 22.1 34.95 22.05 30.3 22.55 Q27.95 23.1 25.95 24.25 L22.05 25.35 22.2 25.25 22.25 25.1 25.0 22.75 Q20.55 24.9 18.0 28.75 17.2 29.9 16.35 31.85 L14.55 31.15 Q12.2 30.05 12.2 28.2 L12.55 26.75 12.9 25.1 13.1 23.75 Q13.1 23.1 12.3 22.85 L9.75 22.65 6.35 22.45 4.65 21.35 5.05 19.4 Q5.25 18.15 4.95 16.5 4.6 14.8 1.4 9.75 L0.2 8.05 12.5 13.95 18.0 14.85 19.2 15.15 Q18.75 15.15 16.9 16.3 15.0 17.5 15.0 17.9 15.0 18.9 16.5 22.65 18.65 22.65 24.5 19.35 L25.75 18.65 30.0 16.05 30.45 16.2 32.4 16.8 36.95 18.05 38.05 17.4 Q38.3 17.2 38.65 16.95 M25.0 22.75 Q29.3 20.65 35.45 20.1 L33.45 18.75 Q31.65 17.5 30.45 17.85 29.2 18.15 27.65 19.75 L25.55 22.05 25.0 22.75" fill="#c6d5ff" fill-rule="evenodd" stroke="none"/>
    <path d="M41.5 23.75 L42.55 24.3 39.85 24.25 35.9 23.8 Q34.4 23.75 31.55 24.85 29.25 25.7 27.3 26.8 L24.2 28.8 Q24.1 29.15 25.0 30.15 22.95 31.55 22.95 31.95 L21.95 33.0 21.75 33.55 21.5 33.35 20.0 31.75 19.75 31.25 Q19.75 30.25 22.2 27.9 23.55 26.6 24.85 25.85 L25.0 25.75 27.7 25.0 31.55 24.1 38.4 22.8 38.6 22.9 38.75 23.0 39.3 23.15 40.0 23.35 40.7 23.55 40.95 23.6 41.2 23.7 41.5 23.75 M46.0 25.95 L46.2 26.05 48.2 27.25 46.2 27.1 44.25 25.8 42.6 25.65 39.55 25.35 Q35.9 25.35 32.6 26.75 29.1 28.2 26.05 31.25 L29.85 34.4 30.2 34.65 28.5 36.6 27.95 38.0 Q25.7 36.95 24.45 35.95 L22.95 34.7 24.0 33.4 25.8 31.45 Q25.9 31.3 26.05 31.25 L25.0 30.15 25.95 29.5 Q28.25 27.95 30.3 26.85 30.7 26.6 32.2 26.0 L33.7 25.35 Q36.5 24.2 36.75 24.2 L39.85 24.25 39.9 24.25 40.75 24.5 Q42.6 24.95 44.25 25.8 L46.0 25.95 M51.3 32.5 L48.75 29.45 Q47.15 28.8 45.65 28.75 L45.15 28.7 Q39.55 28.7 35.35 31.5 33.05 33.0 31.2 35.35 L31.25 35.4 Q35.65 38.45 37.4 38.25 L40.35 38.2 50.7 36.7 53.1 36.05 53.1 35.9 Q53.1 34.95 51.3 32.5 M46.2 27.1 L46.3 27.15 47.3 27.95 48.75 29.45 Q49.9 29.9 51.15 30.7 L51.75 31.75 Q54.2 36.15 54.1 37.9 42.3 41.1 38.2 41.1 35.4 41.1 29.9 38.85 L29.05 38.5 29.15 38.3 30.6 36.15 31.2 35.35 30.2 34.65 Q32.05 32.8 34.95 30.8 L36.6 29.7 Q36.9 29.5 40.8 28.25 L44.7 27.0 46.2 27.1" fill="#f7c038" fill-rule="evenodd" stroke="none"/>
    <path d="M6.35 22.45 L9.75 22.65 12.3 22.85 Q13.1 23.1 13.1 23.75 L12.9 25.1 12.55 26.75 12.2 28.2 Q12.2 30.05 14.55 31.15 L16.35 31.85 Q17.2 29.9 18.0 28.75 20.55 24.9 25.0 22.75 L22.25 25.1 22.2 25.25 22.05 25.35 25.95 24.25 Q21.5 26.7 18.55 32.0 17.25 34.25 16.25 37.05 L16.25 38.35 14.3 36.55 13.7 36.1 Q11.15 34.3 10.7 32.7 L10.55 27.7 10.15 25.85 9.95 25.4 Q9.6 24.4 7.8 23.3 L6.35 22.45" fill="#91a0cb" fill-rule="evenodd" stroke="none"/>
    <path d="M49.35 28.0 Q53.15 30.65 55.5 33.6 L56.55 35.05 Q53.65 32.25 51.35 30.8 L51.15 30.7 49.35 28.0 M26.45 48.65 L24.75 48.3 24.95 46.8 27.0 40.2 27.95 38.0 29.05 38.5 Q27.05 41.95 26.5 45.4 26.15 47.55 26.45 48.65 M18.7 43.65 L17.6 40.7 17.9 40.1 19.65 36.9 20.95 34.9 21.75 33.55 22.95 34.7 Q19.15 39.6 18.7 43.65" fill="#aa8017" fill-rule="evenodd" stroke="none"/>
    <path d="M25.0 30.15 Q24.1 29.15 24.2 28.8 L27.3 26.8 Q29.25 25.7 31.55 24.85 34.4 23.75 35.9 23.8 L39.85 24.25 36.75 24.2 Q36.5 24.2 33.7 25.35 L32.2 26.0 Q30.7 26.6 30.3 26.85 28.25 27.95 25.95 29.5 L25.0 30.15 M51.3 32.5 Q53.1 34.95 53.1 35.9 L53.1 36.05 50.7 36.7 40.35 38.2 37.4 38.25 Q35.65 38.45 31.25 35.4 L31.2 35.35 Q33.05 33.0 35.35 31.5 39.55 28.7 45.15 28.7 L45.65 28.75 Q47.15 28.8 48.75 29.45 L51.3 32.5 M46.2 27.1 L44.7 27.0 40.8 28.25 Q36.9 29.5 36.6 29.7 L34.95 30.8 Q32.05 32.8 30.2 34.65 L29.85 34.4 26.05 31.25 Q29.1 28.2 32.6 26.75 35.9 25.35 39.55 25.35 L42.6 25.65 44.25 25.8 46.2 27.1" fill="#fad579" fill-rule="evenodd" stroke="none"/>
    <path d="M39.75 21.65 L47.0 24.5 Q48.25 24.5 52.7 28.3 56.9 31.85 58.05 33.45 60.15 36.45 62.9 42.4 L63.0 42.55 Q61.1 44.1 57.4 46.85 52.35 50.7 50.9 51.5 35.0 52.2 33.55 51.6 26.55 50.75 22.55 49.4 18.85 48.15 18.5 46.8 L16.9 43.4 14.6 38.45 14.7 38.45 16.05 39.6 17.05 39.45 17.15 39.75 17.6 40.7 18.7 43.65 19.1 44.65 19.35 45.05 Q20.8 47.55 23.3 48.0 L24.75 48.3 26.45 48.65 32.05 49.75 Q34.7 50.2 49.4 50.1 L60.85 43.0 Q57.95 37.1 56.9 35.55 L56.55 35.05 55.5 33.6 Q53.15 30.65 49.35 28.0 L48.35 27.35 48.2 27.25 46.2 26.05 46.0 25.95 42.55 24.3 41.5 23.75 41.1 23.55 40.9 23.5 39.75 21.65" fill="#624500" fill-rule="evenodd" stroke="none"/>
    <path d="M29.1 0.25 L28.55 -1.05 31.35 -0.3 33.45 0.25 34.5 0.5 Q35.7 0.5 36.45 13.25 36.45 13.75 38.0 15.05 L41.1 17.45 38.7 20.0 39.75 21.65 40.9 23.5 40.5 23.3 38.55 22.1 38.3 21.95 35.95 20.25 35.85 20.15 35.9 20.1 36.9 18.95 39.0 17.2 39.1 17.15 39.15 17.1 39.2 17.1 39.15 17.1 38.65 16.95 36.65 15.8 36.4 15.55 35.3 14.0 Q34.85 12.9 34.7 11.5 L34.75 3.15 34.7 1.5 34.65 1.2 34.35 1.2 33.25 0.9 32.9 0.8 32.2 0.6 29.85 0.0 29.1 0.25 M14.6 38.45 Q13.8 38.2 11.45 35.85 8.9 33.25 8.9 32.8 L8.8 27.3 Q8.65 25.1 8.1 25.1 L7.8 25.0 7.5 24.9 Q6.8 24.9 3.05 22.2 L3.45 20.0 Q3.45 18.1 3.1 16.15 L2.7 14.4 1.0 11.35 Q-0.5 8.9 -0.75 8.9 L-0.75 8.75 Q-0.75 8.3 0.4 6.55 L2.5 3.6 2.8 4.75 2.9 5.05 2.05 5.65 Q1.3 6.15 0.6 7.3 L0.15 8.0 0.2 8.05 1.4 9.75 Q4.6 14.8 4.95 16.5 5.25 18.15 5.05 19.4 L4.65 21.35 6.35 22.45 7.8 23.3 Q9.6 24.4 9.95 25.4 L10.15 25.85 10.55 27.7 10.7 32.7 Q11.15 34.3 13.7 36.1 L14.3 36.55 16.25 38.35 17.05 39.45 16.05 39.6 14.7 38.45 14.6 38.45 M4.2 8.1 L5.1 8.4 6.65 8.65 20.65 10.45 Q22.1 10.45 23.0 9.9 L26.45 7.2 30.4 3.8 Q29.15 6.1 26.5 8.75 23.6 11.6 18.8 11.25 L10.5 10.45 Q7.05 10.05 4.25 8.2 L4.2 8.1" fill="#455687" fill-rule="evenodd" stroke="none"/>
  </g>
</svg>