<?xml version="1.0" encoding="UTF-8" standalone="no"?>
<svg xmlns:xlink="http://www.w3.org/1999/xlink" height="39.15px" width="47.2px" xmlns="http://www.w3.org/2000/svg">
  <g transform="matrix(1.0, 0.0, 0.0, 1.0, 23.6, 19.55)">
    <path d="M21.35 -15.25 L20.8 -16.15 20.75 -16.2 20.5 -16.45 20.45 -16.45 Q19.55 -17.2 18.05 -17.65 12.1 -16.75 10.5 -15.4 7.85 -13.2 7.4 -12.4 L7.3 -12.05 Q7.1 -12.15 7.15 -12.35 L7.2 -12.65 7.7 -13.8 Q8.0 -14.5 6.2 -13.35 L4.2 -11.85 4.05 -11.7 3.85 -11.5 3.45 -11.05 3.4 -11.0 1.1 -8.15 1.05 -8.25 0.95 -8.65 Q1.95 -10.6 3.5 -12.35 L3.1 -12.45 Q-0.05 -13.3 -5.45 -11.65 -9.8 -10.5 -12.05 -5.65 -13.4 -2.8 -13.4 -0.6 -13.4 0.95 -12.7 2.15 L-11.4 3.95 Q-10.0 5.5 -7.8 6.45 L-7.55 6.55 -7.4 6.6 -4.45 7.2 -4.4 7.2 Q-2.35 7.25 -0.2 6.45 3.65 4.95 4.65 2.85 L6.1 -0.75 2.15 -0.25 3.9 -0.8 Q5.3 -1.3 6.3 -1.95 L7.3 -2.7 6.15 -3.3 6.7 -3.35 9.0 -3.6 10.7 -3.55 Q12.6 -3.35 14.5 -4.15 L15.45 -4.6 15.75 -4.75 17.15 -5.7 17.4 -5.4 17.4 -5.15 Q17.25 -4.4 16.2 -3.95 L13.35 -3.0 9.25 -2.75 7.1 -0.75 Q5.75 3.35 3.65 5.4 L2.55 6.3 Q2.0 6.4 1.5 6.75 L1.6 7.05 Q1.6 8.3 0.25 9.45 -1.45 10.85 -4.45 10.85 L-5.75 10.7 -7.2 11.35 -13.05 12.85 -13.35 12.85 -13.35 12.95 Q-13.35 13.85 -15.2 13.85 -18.05 13.85 -17.95 10.45 -17.95 8.35 -15.25 7.35 L-14.5 6.7 Q-12.95 5.65 -12.95 4.4 L-13.65 2.55 Q-14.75 0.9 -15.5 0.3 -16.5 -0.6 -18.5 -1.7 -19.75 -1.2 -20.65 -1.2 -22.3 -1.2 -22.6 -4.4 -22.6 -6.75 -19.25 -7.95 -18.6 -8.5 -16.45 -8.75 -13.8 -10.75 -12.45 -10.75 -11.55 -10.75 -10.75 -10.0 L-10.3 -9.6 Q-7.95 -12.3 -4.25 -13.05 L0.85 -13.7 3.75 -13.1 4.0 -12.9 Q6.15 -15.0 8.65 -15.0 L8.7 -15.0 9.15 -15.35 10.25 -16.2 Q13.55 -18.4 16.6 -18.5 L17.45 -18.55 Q22.05 -18.55 22.6 -14.0 L22.35 -13.45 22.25 -13.45 22.15 -13.45 21.9 -14.1 21.35 -15.25 M-12.9 11.9 L-11.65 11.55 -11.6 11.5 -11.3 11.4 -10.85 11.15 -10.45 11.1 -7.7 10.5 Q-6.4 10.1 -5.75 9.35 L-4.9 8.35 -4.65 8.85 Q-4.65 9.5 -5.05 10.05 -1.15 9.65 -0.55 9.05 L0.65 7.2 -2.4 7.85 -6.85 7.75 -7.7 7.55 Q-9.5 7.0 -10.85 5.85 L-12.05 4.65 -12.2 5.45 -12.35 5.9 -13.75 7.3 Q-15.4 8.25 -15.7 10.1 -16.05 9.95 -16.05 9.1 L-15.95 8.45 Q-17.25 9.45 -17.25 10.45 L-16.95 11.95 Q-16.5 12.9 -15.3 12.9 L-14.0 12.7 Q-14.65 12.4 -14.95 11.65 L-14.9 11.4 -14.65 11.35 Q-14.1 11.9 -13.1 11.9 L-12.9 11.9 M-14.7 -8.45 L-13.65 -7.3 -12.7 -5.8 -11.35 -8.25 -11.0 -8.75 Q-11.05 -9.3 -12.05 -9.5 L-12.65 -9.55 -12.85 -9.6 Q-13.75 -9.6 -15.2 -8.8 L-15.1 -8.75 -14.7 -8.45 M-15.9 -7.8 L-16.75 -7.7 -17.5 -7.6 -18.6 -7.45 -18.7 -7.45 -20.0 -6.65 Q-21.8 -5.7 -21.8 -4.5 L-21.75 -4.35 -21.65 -3.85 Q-21.25 -2.05 -20.1 -2.05 L-19.2 -2.4 -19.15 -2.45 -19.8 -3.4 -19.9 -3.9 Q-19.9 -5.0 -19.45 -5.15 L-19.4 -5.1 -19.3 -4.8 -18.45 -3.35 -16.2 -1.65 -16.2 -1.6 -14.9 -0.35 Q-14.2 0.55 -13.8 1.4 L-14.05 -0.3 Q-14.1 -1.55 -13.8 -2.85 L-13.7 -3.6 -13.6 -3.6 -13.25 -4.55 -14.05 -6.45 Q-14.7 -7.9 -15.75 -7.8 L-15.85 -7.8 -15.9 -7.8 M-10.4 18.6 L-10.25 18.3 -10.2 18.2 -10.4 18.6" fill="#a36a6a" fill-rule="evenodd" stroke="none"/>
    <path d="M1.1 -8.15 L3.4 -11.0 3.45 -11.05 3.85 -11.5 4.05 -11.7 4.2 -11.85 6.2 -13.35 Q8.0 -14.5 7.7 -13.8 L7.2 -12.65 7.15 -12.35 Q7.1 -12.15 7.3 -12.05 L7.4 -12.4 Q7.85 -13.2 10.5 -15.4 12.1 -16.75 18.05 -17.65 19.55 -17.2 20.45 -16.45 L20.5 -16.45 20.75 -16.2 20.8 -16.15 21.35 -15.25 19.75 -15.2 Q16.55 -15.2 14.05 -12.7 L8.7 -10.7 Q8.15 -10.5 7.0 -9.35 6.05 -8.4 5.0 -8.35 3.35 -8.35 2.3 -7.3 0.85 -6.1 0.6 -6.1 L0.35 -6.2 Q0.25 -6.55 1.0 -8.2 L1.05 -8.2 1.1 -8.15 M-11.4 3.95 L-12.7 2.15 Q-13.4 0.95 -13.4 -0.6 -13.4 -2.8 -12.05 -5.65 -9.8 -10.5 -5.45 -11.65 -0.05 -13.3 3.1 -12.45 L3.5 -12.35 Q1.95 -10.6 0.95 -8.65 L1.05 -8.25 Q0.15 -7.75 -1.8 -6.7 L-4.45 -4.55 Q-7.85 -2.55 -8.35 1.1 -8.55 2.75 -8.8 3.15 -9.3 3.95 -10.8 3.95 L-11.4 3.95 M-16.95 11.95 L-17.25 10.45 Q-17.25 9.45 -15.95 8.45 L-16.05 9.1 Q-16.05 9.95 -15.7 10.1 -15.4 8.25 -13.75 7.3 L-12.35 5.9 -12.2 5.45 -12.1 5.7 Q-12.1 8.35 -13.3 9.05 -14.9 9.95 -15.55 11.15 -16.0 11.95 -16.8 11.95 L-16.95 11.95 M-12.05 -9.5 L-13.15 -8.55 Q-13.7 -8.2 -14.2 -8.0 L-14.7 -8.45 -15.1 -8.75 -15.2 -8.8 Q-13.75 -9.6 -12.85 -9.6 L-12.65 -9.55 -12.05 -9.5" fill="url(#gradient0)" fill-rule="evenodd" stroke="none"/>
    <path d="M1.1 -8.15 L1.05 -8.2 1.0 -8.2 Q0.25 -6.55 0.35 -6.2 L0.6 -6.1 Q0.85 -6.1 2.3 -7.3 3.35 -8.35 5.0 -8.35 6.05 -8.4 7.0 -9.35 8.15 -10.5 8.7 -10.7 L14.05 -12.7 Q16.55 -15.2 19.75 -15.2 L21.35 -15.25 21.9 -14.1 22.15 -13.45 22.25 -13.45 22.35 -13.45 22.4 -13.5 Q22.3 -11.95 21.25 -8.75 L20.95 -8.7 Q20.4 -9.3 17.45 -9.3 L16.4 -9.25 Q14.15 -9.25 11.85 -7.45 L9.2 -6.75 Q7.05 -6.3 6.8 -5.45 6.15 -3.6 5.4 -2.8 4.85 -2.25 0.05 0.0 L2.05 -0.15 2.0 0.0 Q-0.2 3.7 -0.95 4.45 -2.85 6.35 -6.35 6.35 L-7.8 6.45 Q-10.0 5.5 -11.4 3.95 L-10.8 3.95 Q-9.3 3.95 -8.8 3.15 -8.55 2.75 -8.35 1.1 -7.85 -2.55 -4.45 -4.55 L-1.8 -6.7 Q0.15 -7.75 1.05 -8.25 L1.1 -8.15 M-7.7 7.55 L-8.4 8.55 -10.5 9.85 Q-12.35 10.9 -12.9 11.9 L-13.1 11.9 Q-14.1 11.9 -14.65 11.35 L-14.9 11.4 -14.95 11.65 Q-14.65 12.4 -14.0 12.7 L-15.3 12.9 Q-16.5 12.9 -16.95 11.95 L-16.8 11.95 Q-16.0 11.95 -15.55 11.15 -14.9 9.95 -13.3 9.05 -12.1 8.35 -12.1 5.7 L-12.2 5.45 -12.05 4.65 -10.85 5.85 Q-9.5 7.0 -7.7 7.55 M-12.05 -9.5 Q-11.05 -9.3 -11.0 -8.75 L-11.35 -8.25 -12.7 -5.8 -13.65 -7.3 -14.7 -8.45 -14.2 -8.0 Q-13.7 -8.2 -13.15 -8.55 L-12.05 -9.5 M-17.5 -7.6 L-18.35 -7.45 -18.65 -7.3 -18.65 -7.4 -18.6 -7.45 -17.5 -7.6 M-21.65 -3.85 L-21.55 -3.45 -20.7 -3.15 -19.8 -3.4 -19.15 -2.45 -19.2 -2.4 -20.1 -2.05 Q-21.25 -2.05 -21.65 -3.85 M-19.3 -4.8 L-19.2 -4.55 -18.8 -5.6 -15.9 -7.8 -15.85 -7.8 -15.75 -7.8 Q-14.7 -7.9 -14.05 -6.45 L-13.25 -4.55 -13.6 -3.6 -13.7 -3.6 -13.8 -2.85 Q-14.1 -1.55 -14.05 -0.3 L-13.8 1.4 Q-14.2 0.55 -14.9 -0.35 L-16.2 -1.6 -16.2 -1.65 -18.45 -3.35 -19.3 -4.8" fill="#e0cbcb" fill-rule="evenodd" stroke="none"/>
    <path d="M17.4 -5.15 L17.4 -5.4 17.15 -5.7 15.75 -4.75 15.45 -4.6 14.5 -4.15 Q12.6 -3.35 10.7 -3.55 L9.0 -3.6 6.7 -3.35 6.15 -3.3 7.3 -2.7 6.3 -1.95 Q5.3 -1.3 3.9 -0.8 L2.15 -0.25 6.1 -0.75 4.65 2.85 Q3.65 4.95 -0.2 6.45 -2.35 7.25 -4.4 7.2 L-4.45 7.2 -7.4 6.6 -7.55 6.55 -7.8 6.45 -6.35 6.35 Q-2.85 6.35 -0.95 4.45 -0.2 3.7 2.0 0.0 L2.05 -0.15 0.05 0.0 Q4.85 -2.25 5.4 -2.8 6.15 -3.6 6.8 -5.45 7.05 -6.3 9.2 -6.75 L11.85 -7.45 Q14.15 -9.25 16.4 -9.25 L17.45 -9.3 Q20.4 -9.3 20.95 -8.7 L21.25 -8.75 20.6 -7.65 19.3 -6.55 17.4 -5.15 M-7.7 7.55 L-6.85 7.75 -2.4 7.85 0.65 7.2 -0.55 9.05 Q-1.15 9.65 -5.05 10.05 -4.65 9.5 -4.65 8.85 L-4.9 8.35 -5.75 9.35 Q-6.4 10.1 -7.7 10.5 L-10.45 11.1 -10.85 11.15 -11.3 11.4 -11.6 11.5 -11.65 11.55 -12.9 11.9 Q-12.35 10.9 -10.5 9.85 L-8.4 8.55 -7.7 7.55" fill="#cca9a9" fill-rule="evenodd" stroke="none"/>
    <path d="M-17.5 -7.6 L-16.75 -7.7 -15.9 -7.8 -18.8 -5.6 -19.2 -4.55 -19.3 -4.8 -19.4 -5.1 -19.45 -5.15 Q-19.9 -5.0 -19.9 -3.9 L-19.8 -3.4 -20.7 -3.15 -21.55 -3.45 -21.65 -3.85 -21.75 -4.35 -21.8 -4.5 Q-21.8 -5.7 -20.0 -6.65 L-18.7 -7.45 -18.6 -7.45 -18.65 -7.4 -18.65 -7.3 -18.35 -7.45 -17.5 -7.6" fill="#ffffff" fill-rule="evenodd" stroke="none"/>
  </g>
  <defs>
    <radialGradient cx="0" cy="0" gradientTransform="matrix(0.0162, -0.0068, 0.0034, 0.0081, -7.85, -10.85)" gradientUnits="userSpaceOnUse" id="gradient0" r="819.2" spreadMethod="pad">
      <stop offset="0.47843137254901963" stop-color="#ffffff"></stop>
      <stop offset="0.8823529411764706" stop-color="#f2eaea"></stop>
    </radialGradient>
  </defs>
</svg>