<?xml version="1.0" encoding="UTF-8" standalone="no"?>
<svg xmlns:xlink="http://www.w3.org/1999/xlink" height="4.95px" width="5.65px" xmlns="http://www.w3.org/2000/svg">
  <g transform="matrix(1.0, 0.0, 0.0, 1.0, 2.85, 2.5)">
    <path d="M0.9 -0.8 L0.95 -0.75 1.25 -0.5 Q1.8 0.05 1.8 0.5 L1.65 1.45 1.45 1.45 0.4 1.0 -0.05 0.75 0.4 0.25 0.6 -0.55 0.6 -1.0 0.9 -0.8" fill="#d6baba" fill-rule="evenodd" stroke="none"/>
    <path d="M-0.05 0.75 L-0.7 0.3 Q-1.65 -0.25 -1.85 -0.8 L-1.5 -1.1 Q-1.05 -1.5 -0.75 -1.5 0.05 -1.5 0.9 -0.8 L0.6 -1.0 0.6 -0.55 0.4 0.25 -0.05 0.75" fill="#faf8f8" fill-rule="evenodd" stroke="none"/>
    <path d="M0.9 -0.8 L0.95 -0.75 1.25 -0.5 Q1.8 0.05 1.8 0.5 L1.65 1.45 M-1.85 -0.8 L-1.5 -1.1 Q-1.05 -1.5 -0.75 -1.5 0.05 -1.5 0.9 -0.8" fill="none" stroke="#a36a6a" stroke-linecap="round" stroke-linejoin="round" stroke-width="1"/>
  </g>
</svg>