<?xml version="1.0" encoding="UTF-8" standalone="no"?>
<svg xmlns:xlink="http://www.w3.org/1999/xlink" height="7.95px" width="7.25px" xmlns="http://www.w3.org/2000/svg">
  <g id="shape0" transform="matrix(1.0, 0.0, 0.0, 1.0, 5.2, 2.1)">
    <path d="M-2.85 -0.3 L-1.85 -0.15 Q-1.25 -0.15 -1.15 -0.55 L-1.4 -0.75 -1.05 -0.4 Q-0.65 0.2 -0.8 0.95 L-0.65 0.85 -0.05 1.3 0.75 1.1 1.05 1.95 Q1.05 2.75 0.45 3.95 L0.45 2.9 Q0.4 2.3 -0.45 2.3 -1.35 2.3 -2.15 3.4 L-3.05 4.75 -3.45 4.85 -3.85 4.55 -3.2 3.65 -2.55 2.7 Q-2.3 2.45 -2.3 1.95 L-2.4 1.35 -2.4 0.7 Q-2.55 -0.05 -2.75 -0.25 L-2.85 -0.3" fill="#d6baba" fill-rule="evenodd" stroke="none"/>
    <path d="M-4.15 -0.3 L-4.2 -0.3 -3.95 -0.6 -3.7 -0.8 -2.6 -1.1 -1.7 -0.95 -1.45 -0.8 -1.4 -0.75 -1.15 -0.55 Q-1.25 -0.15 -1.85 -0.15 L-2.85 -0.3 -3.15 -0.4 -2.85 -0.3 -2.9 -0.3 -3.15 -0.4 -3.35 -0.45 -3.4 -0.45 -3.5 -0.45 -4.15 -0.3 M-2.4 1.35 L-2.3 1.95 Q-2.3 2.45 -2.55 2.7 L-3.2 3.65 -3.85 4.55 -3.95 4.3 -4.0 4.25 -4.1 3.9 -3.8 3.55 -2.75 2.15 -2.4 1.35 M0.75 1.1 L-0.05 1.3 -0.65 0.85 0.0 0.6 Q0.35 0.6 0.7 1.05 L0.75 1.1" fill="#faf8f8" fill-rule="evenodd" stroke="none"/>
    <path d="M-4.15 -0.3 L-3.5 -0.45 -3.4 -0.45 -3.35 -0.45 -3.15 -0.4 -2.85 -0.3 -2.75 -0.25 Q-2.55 -0.05 -2.4 0.7 L-2.4 1.35 -2.75 2.15 -3.8 3.55 -4.1 3.9 M-1.4 -0.75 L-1.45 -0.8 -1.7 -0.95 -2.6 -1.1 -3.7 -0.8 -3.95 -0.6 -4.2 -0.3 -4.15 -0.3 M-3.05 4.75 L-2.15 3.4 Q-1.35 2.3 -0.45 2.3 0.4 2.3 0.45 2.9 L0.45 3.95 Q1.05 2.75 1.05 1.95 L0.75 1.1 0.7 1.05 Q0.35 0.6 0.0 0.6 L-0.65 0.85 -0.8 0.95 Q-0.65 0.2 -1.05 -0.4 L-1.4 -0.75" fill="none" stroke="#a36a6a" stroke-linecap="round" stroke-linejoin="round" stroke-width="1"/>
  </g>
</svg>