<?xml version="1.0" encoding="UTF-8" standalone="no"?>
<svg xmlns:xlink="http://www.w3.org/1999/xlink" height="10.25px" width="13.85px" xmlns="http://www.w3.org/2000/svg">
  <g id="shape0" transform="matrix(1.0, 0.0, 0.0, 1.0, 8.25, 4.2)">
    <path d="M-1.05 -2.4 L0.65 -2.05 0.8 -2.0 0.55 -3.15 0.55 -3.2 0.65 -3.1 1.3 -2.55 Q1.7 -2.25 1.7 -1.95 L1.65 -1.8 2.3 -1.95 2.9 -2.0 Q3.7 -2.0 4.6 0.05 L4.55 0.05 3.95 -0.1 Q2.8 -0.1 2.5 0.4 L3.5 1.15 1.45 1.45 1.75 2.15 1.7 2.15 Q1.35 1.4 1.05 1.4 0.65 1.4 -0.7 2.2 L-2.6 3.65 -2.65 3.6 -2.55 3.5 Q-1.7 2.5 -1.7 1.8 L-1.7 1.6 -2.05 0.75 -2.1 0.75 -2.2 1.2 -2.2 1.25 -2.35 1.65 -2.5 1.9 -2.6 2.05 Q-3.55 3.2 -6.55 5.05 L-6.0 4.0 -5.15 3.3 Q-3.85 2.25 -3.85 2.0 L-3.8 1.55 -4.45 2.2 -4.5 2.2 -4.5 2.15 -4.4 1.75 -4.0 0.85 Q-3.8 0.6 -3.55 0.7 L-3.05 0.35 -1.9 0.0 -0.8 -0.2 -0.95 0.75 -0.95 0.8 -0.7 0.6 -0.7 0.55 -0.4 -0.15 -0.3 -0.3 -0.15 -0.85 Q-0.15 -1.85 -1.05 -2.4 M-6.45 3.85 L-6.1 3.65 -6.35 3.85 -6.7 4.0 -6.9 4.15 -6.4 3.6 -6.3 3.2 Q-5.55 2.6 -5.55 1.9 L-5.45 1.7 -5.4 2.55 Q-5.4 2.9 -5.55 3.05 L-6.45 3.85 M0.8 -2.0 L0.95 -1.95 1.3 -1.8 1.45 -1.7 1.65 -1.8 1.45 -1.7 2.1 -1.4 1.45 -1.7 1.3 -1.8 0.95 -1.95 0.8 -2.0" fill="#d6baba" fill-rule="evenodd" stroke="none"/>
    <path d="M-2.55 3.5 L-2.15 2.0 -2.15 1.2 -2.2 1.25 -2.2 1.2 -2.1 0.75 -2.05 0.75 -1.7 1.6 -1.7 1.8 Q-1.7 2.5 -2.55 3.5 M-6.0 4.0 L-5.75 3.4 -5.75 3.35 -6.45 3.85 -5.55 3.05 Q-5.4 2.9 -5.4 2.55 L-5.45 1.7 -5.55 1.9 Q-5.55 2.6 -6.3 3.2 L-6.4 3.6 -6.9 4.15 -7.25 4.3 -6.65 3.4 -6.5 3.0 -5.9 1.1 Q-5.45 0.0 -4.8 -0.7 L-5.0 -0.85 -5.55 -1.35 -4.45 -1.15 Q-3.15 -2.4 -1.25 -2.4 L-1.05 -2.4 Q-0.15 -1.85 -0.15 -0.85 L-0.3 -0.3 -0.4 -0.15 -0.7 0.55 -0.7 0.6 -0.95 0.8 -0.95 0.75 -0.8 -0.2 -1.9 0.0 -3.05 0.35 -3.55 0.7 Q-3.8 0.6 -4.0 0.85 L-4.4 1.75 -4.5 2.15 -4.5 2.2 -4.45 2.2 -3.8 1.55 -3.85 2.0 Q-3.85 2.25 -5.15 3.3 L-6.0 4.0 M-4.0 -0.5 L-4.8 -0.7 -4.0 -0.5 M-4.45 -1.15 L-3.9 -1.1 Q-3.4 -1.1 -3.3 -1.35 -3.4 -1.1 -3.9 -1.1 L-4.45 -1.15" fill="#faf8f8" fill-rule="evenodd" stroke="none"/>
    <path d="M-1.05 -2.4 L0.65 -2.05 0.8 -2.0 0.55 -3.15 0.55 -3.2 0.65 -3.1 1.3 -2.55 Q1.7 -2.25 1.7 -1.95 L1.65 -1.8 2.3 -1.95 2.9 -2.0 Q3.7 -2.0 4.6 0.05 L4.55 0.05 3.95 -0.1 Q2.8 -0.1 2.5 0.4 L3.5 1.15 1.45 1.45 1.75 2.15 1.75 2.2 1.7 2.15 Q1.35 1.4 1.05 1.4 0.65 1.4 -0.7 2.2 L-2.6 3.65 -2.65 3.65 -2.65 3.6 -2.55 3.5 -2.15 2.0 -2.15 1.2 -2.2 1.25 -2.35 1.65 M-2.6 2.05 Q-3.55 3.2 -6.55 5.05 L-6.0 4.0 -5.75 3.4 -5.75 3.35 -6.45 3.85 M-6.35 3.85 L-6.7 4.0 -6.9 4.15 -7.25 4.3 -6.65 3.4 -6.5 3.0 -5.9 1.1 Q-5.45 0.0 -4.8 -0.7 L-5.0 -0.85 -5.55 -1.35 -4.45 -1.15 Q-3.15 -2.4 -1.25 -2.4 L-1.05 -2.4 M1.65 -1.8 L1.45 -1.7 2.1 -1.4 M1.45 -1.7 L1.3 -1.8 0.95 -1.95 0.8 -2.0 M-3.3 -1.35 Q-3.4 -1.1 -3.9 -1.1 L-4.45 -1.15 M-4.8 -0.7 L-4.0 -0.5" fill="none" stroke="#a36a6a" stroke-linecap="round" stroke-linejoin="round" stroke-width="1"/>
  </g>
</svg>