<?xml version="1.0" encoding="UTF-8" standalone="no"?>
<svg xmlns:xlink="http://www.w3.org/1999/xlink" height="11.4px" width="8.05px" xmlns="http://www.w3.org/2000/svg">
  <g id="shape0" transform="matrix(1.0, 0.0, 0.0, 1.0, 5.05, 8.95)">
    <path d="M0.35 -2.35 L0.2 -1.8 -0.1 -1.0 -0.15 -1.05 -0.6 -2.85 -0.85 -4.95 -0.8 -5.15 -0.25 -3.6 0.35 -2.35 M-1.2 -4.15 L-1.5 -2.7 -1.5 -2.65 -1.5 -2.6 -1.55 -2.5 -1.5 -2.7 -1.85 -7.55 -1.8 -7.8 -1.2 -4.15 M1.95 0.05 L1.5 -0.4 1.35 -0.7 1.1 -0.9 0.95 -1.25 0.9 -1.15 0.85 -0.75 0.85 -0.7 0.4 -2.2 0.45 -2.15 0.55 -3.6 Q0.6 -2.75 1.15 -1.7 L1.6 -1.0 1.9 -0.6 1.75 -0.6 2.0 -0.15 1.95 0.05 M-1.65 -2.7 L-1.6 -2.1 -1.8 -0.9 Q-1.8 -0.25 -2.15 -0.25 L-2.3 -0.5 -1.95 -1.6 -1.65 -2.7" fill="#d6baba" fill-rule="evenodd" stroke="none"/>
    <path d="M0.35 -2.35 L0.4 -2.2 0.85 -0.7 0.85 -0.75 0.9 -1.15 0.95 -1.25 1.1 -0.9 1.35 -0.7 1.5 -0.4 1.95 0.05 1.7 0.1 1.25 -0.05 1.45 0.5 1.4 0.85 1.15 0.9 0.45 0.35 -0.1 -0.4 -0.3 0.4 -0.6 0.8 -1.0 0.3 -1.4 -0.55 -1.85 0.35 -2.2 0.9 -2.75 1.45 -2.8 0.1 -3.5 0.75 -4.05 1.25 -3.75 0.65 Q-3.2 -0.55 -3.2 -3.15 L-3.15 -3.85 -2.85 -2.1 -2.75 -2.05 Q-2.1 -3.35 -2.1 -4.4 L-1.9 -6.65 -1.85 -7.95 -1.8 -7.8 -1.85 -7.55 -1.5 -2.7 -1.55 -2.5 -1.5 -2.6 -1.5 -2.65 -1.5 -2.7 -1.2 -4.15 -1.2 -4.0 -1.15 -3.95 -0.9 -4.7 -0.8 -5.15 -0.85 -4.95 -0.6 -2.85 -0.15 -1.05 -0.1 -1.0 0.2 -1.8 0.35 -2.35 M-1.65 -2.7 L-1.95 -1.6 -2.3 -0.5 -2.15 -0.25 Q-1.8 -0.25 -1.8 -0.9 L-1.6 -2.1 -1.65 -2.7" fill="#faf8f8" fill-rule="evenodd" stroke="none"/>
    <path d="M0.4 -2.2 L0.35 -2.35 -0.25 -3.6 -0.8 -5.15 -0.9 -4.7 -1.15 -3.95 -1.2 -4.0 -1.2 -4.15 -1.8 -7.8 -1.85 -7.95 -1.9 -6.65 -2.1 -4.4 Q-2.1 -3.35 -2.75 -2.05 L-2.85 -2.1 -3.15 -3.85 -3.2 -3.15 Q-3.2 -0.55 -3.75 0.65 L-4.05 1.25 M0.4 -2.2 L0.45 -2.15 0.55 -3.6 Q0.6 -2.75 1.15 -1.7 L1.6 -1.0 1.9 -0.6" fill="none" stroke="#a36a6a" stroke-linecap="round" stroke-linejoin="round" stroke-width="1"/>
  </g>
</svg>