<?xml version="1.0" encoding="UTF-8" standalone="no"?>
<svg xmlns:xlink="http://www.w3.org/1999/xlink" height="7.7px" width="11.25px" xmlns="http://www.w3.org/2000/svg">
  <g id="shape0" transform="matrix(1.0, 0.0, 0.0, 1.0, 5.6, 4.5)">
    <path d="M2.15 -2.65 L0.8 -1.9 1.95 -1.85 -0.85 -1.55 -0.05 -2.05 2.15 -2.65 M4.65 -1.75 L4.0 -1.25 3.0 -0.5 2.05 -0.35 0.95 0.15 1.0 -0.3 1.3 -0.65 1.75 -0.85 2.65 -1.15 1.75 -0.85 1.3 -0.65 1.0 -0.3 0.95 0.15 0.9 0.25 4.3 -0.3 3.55 0.05 1.65 1.1 1.65 1.05 1.6 1.15 0.8 1.15 -1.0 1.0 0.1 -0.4 1.85 -1.15 2.25 -1.15 2.65 -1.15 3.35 -1.3 4.65 -1.75 M-1.7 -0.8 L-1.8 -0.35 -1.7 -0.8 -1.15 -1.0 -1.8 -0.35 -2.7 0.25 -2.35 -0.25 -1.75 -1.8 -1.55 -1.35 -1.7 -0.8" fill="#d6baba" fill-rule="evenodd" stroke="none"/>
    <path d="M2.2 -2.7 L2.15 -2.65 -0.05 -2.05 -0.85 -1.55 1.95 -1.85 4.65 -1.75 3.35 -1.3 2.65 -1.15 2.25 -1.15 1.85 -1.15 0.65 -0.95 0.1 -0.4 0.65 -0.95 1.85 -1.15 0.1 -0.4 -1.0 1.0 -2.75 1.8 -3.15 1.65 -3.3 1.6 -3.7 1.9 -3.7 2.0 -4.55 2.2 Q-4.75 -0.05 -3.55 -2.15 L-3.6 -0.85 -1.8 -3.05 0.8 -3.5 -0.6 -2.25 0.3 -2.75 2.2 -2.7 M3.0 -0.5 L4.3 -0.3 0.9 0.25 0.95 0.15 2.05 -0.35 3.0 -0.5 M-1.7 -0.8 L-1.55 -1.35 -1.75 -1.8 -2.35 -0.25 -2.7 0.25 -1.8 -0.35 -1.15 -1.0 -1.7 -0.8" fill="#faf8f8" fill-rule="evenodd" stroke="none"/>
    <path d="M2.15 -2.65 L0.8 -1.9 1.95 -1.85 4.65 -1.75 4.0 -1.25 3.0 -0.5 4.3 -0.3 3.55 0.05 1.65 1.1 1.6 1.15 0.8 1.15 M-4.55 2.2 Q-4.75 -0.05 -3.55 -2.15 L-3.6 -0.85 -1.8 -3.05 0.8 -3.5 -0.6 -2.25 0.3 -2.75 2.2 -2.7 M1.85 -1.15 L0.65 -0.95 0.1 -0.4 M1.85 -1.15 L2.25 -1.15 2.65 -1.15 1.75 -0.85 1.3 -0.65 1.0 -0.3 0.95 0.15 M-1.8 -0.35 L-1.7 -0.8 -1.55 -1.35 -1.75 -1.8 -2.35 -0.25" fill="none" stroke="#a36a6a" stroke-linecap="round" stroke-linejoin="round" stroke-width="1"/>
  </g>
</svg>