<?xml version="1.0" encoding="UTF-8" standalone="no"?>
<svg xmlns:xlink="http://www.w3.org/1999/xlink" height="12.15px" width="11.7px" xmlns="http://www.w3.org/2000/svg">
  <g transform="matrix(1.0, 0.0, 0.0, 1.0, 5.85, 6.05)">
    <path d="M-1.3 -1.6 L1.3 -2.6 2.3 -2.9 2.7 -2.85 4.85 -0.3 Q4.0 0.4 2.85 0.65 2.05 0.95 1.35 1.35 L-0.1 0.0 -1.3 -1.6 -0.1 0.0 1.35 1.35 3.25 2.85 Q2.2 4.5 0.55 5.1 -1.2 4.1 -2.25 2.9 L-3.95 3.4 -4.2 2.9 -4.55 1.95 Q-4.9 1.3 -4.85 0.55 L-4.8 -0.1 -4.1 -0.45 -4.55 -2.1 Q-4.6 -2.8 -4.25 -3.5 L-3.7 -4.6 -3.25 -5.05 -2.0 -2.9 -1.3 -1.6 M-2.25 2.9 L-4.1 -0.45 -2.25 2.9" fill="#ffffff" fill-rule="evenodd" stroke="none"/>
    <path d="M1.35 1.35 Q2.05 0.95 2.85 0.65 4.0 0.4 4.85 -0.3 L2.7 -2.85 2.3 -2.9 1.3 -2.6 -1.3 -1.6 -0.1 0.0 1.35 1.35 3.25 2.85 Q2.2 4.5 0.55 5.1 -1.2 4.1 -2.25 2.9 L-3.95 3.4 -4.2 2.9 -4.55 1.95 Q-4.9 1.3 -4.85 0.55 L-4.8 -0.1 -4.1 -0.45 -4.55 -2.1 Q-4.6 -2.8 -4.25 -3.5 L-3.7 -4.6 -3.25 -5.05 -2.0 -2.9 -1.3 -1.6 M-4.1 -0.45 L-2.25 2.9" fill="none" stroke="#a36a6a" stroke-linecap="round" stroke-linejoin="round" stroke-opacity="0.49803922" stroke-width="1"/>
  </g>
</svg>