<?xml version="1.0" encoding="UTF-8" standalone="no"?>
<svg xmlns:xlink="http://www.w3.org/1999/xlink" height="5.75px" width="8.7px" xmlns="http://www.w3.org/2000/svg">
  <g id="shape0" transform="matrix(1.0, 0.0, 0.0, 1.0, 4.35, 2.85)">
    <path d="M3.35 -1.05 L3.15 0.45 3.05 0.85 3.05 0.9 3.0 1.0 2.65 1.9 -3.1 1.35 -3.1 1.3 -3.35 0.3 -3.35 -0.1 -3.35 -0.35 Q-3.3 -1.4 -2.85 -1.85 L-1.55 -1.85 -1.15 -1.85 0.7 -1.65 2.0 -1.35 2.1 -1.3 3.35 -1.05" fill="#d6baba" fill-rule="evenodd" stroke="none"/>
    <path d="M2.65 1.9 L-3.1 1.35 M-2.85 -1.85 L-1.55 -1.85 -1.15 -1.85 0.7 -1.65 2.0 -1.35 2.1 -1.3 3.35 -1.05" fill="none" stroke="#a36a6a" stroke-linecap="round" stroke-linejoin="round" stroke-width="1"/>
  </g>
</svg>