<?xml version="1.0" encoding="UTF-8" standalone="no"?>
<svg xmlns:xlink="http://www.w3.org/1999/xlink" height="21.25px" width="19.85px" xmlns="http://www.w3.org/2000/svg">
  <g id="shape0" transform="matrix(1.0, 0.0, 0.0, 1.0, 9.9, 10.65)">
    <path d="M-2.4 -3.45 Q0.3 -3.45 2.25 -1.55 4.15 0.4 4.15 3.05 4.15 5.75 2.25 7.7 0.3 9.6 -2.4 9.6 -5.1 9.6 -7.05 7.7 -8.9 5.75 -8.9 3.05 -8.9 0.4 -7.05 -1.55 -5.1 -3.45 -2.4 -3.45" fill="#F4CCA3" fill-rule="evenodd" stroke="none"/>
    <path d="M3.5 -4.0 Q3.5 -1.65 1.8 0.0 0.15 1.65 -2.15 1.65 -4.55 1.65 -6.2 0.0 -7.8 -1.65 -7.8 -4.0 -7.8 -6.3 -6.2 -7.95 -4.55 -9.65 -2.15 -9.65 0.15 -9.65 1.8 -7.95 3.5 -6.3 3.5 -4.0" fill="#F4CCA3" fill-rule="evenodd" stroke="none"/>
    <path d="M4.25 -4.55 Q6.2 -4.55 7.55 -3.15 8.95 -1.8 8.95 0.15 8.95 2.1 7.55 3.45 6.2 4.85 4.25 4.85 2.3 4.85 0.9 3.45 -0.45 2.1 -0.45 0.15 -0.45 -1.8 0.9 -3.15 2.3 -4.55 4.25 -4.55" fill="#F4CCA3" fill-rule="evenodd" stroke="none"/>
    <path d="M1.0 -2.05 L0.95 -1.4 2.2 -1.75 Q3.25 -1.75 4.0 -1.0 L4.0 -0.95 Q4.75 -0.2 4.75 0.8 4.75 1.85 4.0 2.6 3.25 3.35 2.2 3.35 L1.45 3.25 Q1.3 4.5 0.35 5.5 -0.8 6.6 -2.35 6.6 -3.95 6.6 -5.0 5.5 L-5.05 5.5 Q-6.1 4.35 -6.1 2.8 -6.1 1.25 -5.05 0.15 L-5.0 0.1 -4.75 -0.15 Q-5.35 -0.95 -5.35 -2.05 -5.35 -3.35 -4.45 -4.25 -3.5 -5.2 -2.2 -5.2 -0.9 -5.2 0.05 -4.25 1.0 -3.35 1.0 -2.05" fill="#D2AA81" fill-rule="evenodd" stroke="none"/>
  </g>
</svg>
