<?xml version="1.0" encoding="UTF-8" standalone="no"?>
<svg xmlns:xlink="http://www.w3.org/1999/xlink" height="79.6px" width="42.15px" xmlns="http://www.w3.org/2000/svg">
  <g transform="matrix(1.0, 0.0, 0.0, 1.0, 22, 39.8)">
    <path d="M-4.45 33.0 L-3.1 33.7 -5.6 38.8 Q-5.3 35.95 -4.5 33.15 L-4.45 33.0 M-15.35 18.05 L-14.1 21.05 Q-16.4 21.55 -18.6 23.8 -16.75 21.05 -15.35 18.05 M-18.5 -3.45 L-18.85 -3.65 -18.45 -3.9 -18.5 -3.45 M-15.25 -20.1 L-16.2 -17.45 Q-17.95 -20.45 -21.0 -22.9 -18.3 -21.05 -15.25 -20.1 M-4.9 -38.3 L-4.6 -35.95 -4.4 -34.7 -4.75 -34.5 -4.9 -38.3 M11.65 27.1 L11.35 26.6 11.5 26.5 11.65 27.1 M16.95 -27.05 L15.35 -29.35 16.25 -29.95 19.15 -33.15 Q18.5 -29.95 16.95 -27.05 M9.45 -34.75 L8.7 -35.15 9.6 -38.8 Q9.9 -36.95 9.5 -35.05 L9.45 -34.75" fill="#ffffff" fill-rule="evenodd" stroke="none"/>
  </g>
</svg>