<?xml version="1.0" encoding="UTF-8" standalone="no"?>
<svg xmlns:xlink="http://www.w3.org/1999/xlink" height="67.5px" width="37.4px" xmlns="http://www.w3.org/2000/svg">
  <g transform="matrix(1.0, 0.0, 0.0, 1.0, 18.7, 33.75)">
    <path d="M-15.95 -3.1 L-12.6 -5.5 Q-11.55 -6.3 -11.65 -7.6 -11.9 -14.7 -17.7 -19.35 -13.2 -16.2 -7.7 -16.25 -10.65 -9.5 -10.65 -0.45 -10.65 10.15 -6.6 17.6 -3.75 22.85 -0.05 24.45 -2.9 28.4 -4.75 32.75 -4.5 30.35 -3.8 28.0 -2.15 21.85 -6.9 18.85 -11.55 15.8 -15.7 20.1 -11.8 14.35 -10.6 7.25 -9.45 0.35 -15.95 -3.1 M-4.15 -32.65 L-3.9 -30.35 Q-3.35 -27.05 -2.1 -24.1 L-4.2 -22.1 Q-3.85 -27.25 -4.15 -32.65 M9.85 22.85 L9.55 22.5 9.7 22.35 9.85 22.85 M15.4 -14.25 L17.7 -14.45 17.0 -12.35 16.7 -11.35 16.35 -12.25 15.4 -14.25 M5.2 -25.8 L5.95 -26.9 Q7.6 -29.6 8.1 -32.75 8.35 -31.2 8.0 -29.6 7.5 -27.2 7.9 -24.65 6.6 -25.5 5.2 -25.8 M13.75 -25.3 L16.15 -28.0 Q15.5 -24.75 13.75 -21.9 L12.85 -20.15 12.65 -19.45 Q10.85 -22.4 8.8 -24.0 L10.9 -23.95 Q12.45 -24.3 13.75 -25.3" fill="#ffffff" fill-rule="evenodd" stroke="none"/>
  </g>
</svg>