<?xml version="1.0" encoding="UTF-8" standalone="no"?>
<svg xmlns:xlink="http://www.w3.org/1999/xlink" height="10.2px" width="5.65px" xmlns="http://www.w3.org/2000/svg">
  <g transform="matrix(1.0, 0.0, 0.0, 1.0, -8.2, -8.25)">
    <path d="M10.9 9.3 L12.3 9.25 Q12.95 10.95 12.85 12.85 L12.55 15.6 Q12.45 16.65 11.7 17.25 L11.8 15.1 Q11.65 12.6 11.35 11.65 11.2 9.9 10.9 9.3" fill="#e0cca3" fill-rule="evenodd" stroke="none"/>
    <path d="M10.9 9.3 Q11.2 9.9 11.35 11.65 11.65 12.6 11.8 15.1 L11.7 17.25 11.35 17.45 11.25 17.45 11.25 17.4 11.05 16.95 10.75 16.2 10.5 15.05 9.55 11.95 9.2 10.8 10.9 9.3" fill="#ffffcc" fill-rule="evenodd" stroke="none"/>
    <path d="M11.7 17.25 Q12.45 16.65 12.55 15.6 L12.85 12.85 Q12.95 10.95 12.3 9.25 M9.2 10.8 L9.55 11.95 10.5 15.05 10.75 16.2 11.05 16.95 M11.25 17.4 L11.25 17.45 11.35 17.45 11.7 17.25" fill="none" stroke="#a36a6a" stroke-linecap="round" stroke-linejoin="round" stroke-width="1"/>
    <path d="M12.3 9.25 L10.9 9.3 9.2 10.8" fill="none" stroke="#a36a6a" stroke-linecap="round" stroke-linejoin="round" stroke-opacity="0.47058824" stroke-width="1"/>
  </g>
</svg>