<?xml version="1.0" encoding="UTF-8" standalone="no"?>
<svg xmlns:xlink="http://www.w3.org/1999/xlink" height="12.65px" width="13.2px" xmlns="http://www.w3.org/2000/svg">
  <g id="shape0" transform="matrix(1.0, 0.0, 0.0, 1.0, 1, 1)">
    <path d="M11.2 5.55 L11.2 6.3 Q11.2 7.95 9.4 9.35 7.55 10.65 5.4 10.65 L4.25 10.6 Q3.4 10.6 2.0 9.95 0.7 9.35 0.6 9.0 L0.05 7.0 0.05 6.5 0.1 5.35 0.3 3.3 0.5 2.65 0.4 2.05 0.55 1.5 Q0.5 1.35 0.6 1.25 L1.25 1.8 Q1.95 2.35 3.1 2.35 L5.7 2.2 Q6.4 2.2 7.0 1.8 L8.2 0.95 8.85 0.25 9.15 0.0 Q9.75 0.0 10.45 2.0 11.1 3.9 11.2 5.55 M10.65 6.15 L9.35 5.95 Q8.85 5.95 8.85 5.7 9.65 4.8 9.9 3.75 L9.25 3.6 8.7 3.25 9.05 2.05 9.0 1.85 8.85 1.7 Q6.65 3.05 5.55 3.05 L4.75 2.9 4.45 2.95 3.9 2.9 3.9 2.85 3.45 2.65 3.35 2.55 3.3 2.5 3.05 2.6 2.8 2.6 2.2 2.65 Q1.85 2.65 1.6 3.0 L1.35 3.65 1.55 3.95 2.05 4.35 2.75 5.1 2.85 5.15 2.55 5.4 Q2.1 5.4 1.9 6.2 L2.0 6.65 1.95 6.9 Q1.5 6.95 1.3 7.15 0.9 7.35 0.9 7.7 L1.4 8.25 Q1.55 8.6 2.0 8.75 3.45 9.7 4.7 9.7 L5.2 9.8 7.65 9.35 9.1 8.85 10.7 6.35 10.65 6.15" fill="#c6d5ff" fill-rule="evenodd" stroke="none"/>
    <path d="M10.65 6.15 L10.7 6.35 9.1 8.85 7.65 9.35 5.2 9.8 4.7 9.7 Q3.45 9.7 2.0 8.75 1.55 8.6 1.4 8.25 L0.9 7.7 Q0.9 7.35 1.3 7.15 1.5 6.95 1.95 6.9 L2.0 6.65 1.9 6.2 Q2.1 5.4 2.55 5.4 L2.85 5.15 2.75 5.1 2.05 4.35 1.55 3.95 1.35 3.65 1.6 3.0 Q1.85 2.65 2.2 2.65 L2.8 2.6 3.05 2.6 3.3 2.5 3.35 2.55 3.45 2.65 3.9 2.85 3.9 2.9 4.45 2.95 4.75 2.9 5.55 3.05 Q6.65 3.05 8.85 1.7 L9.0 1.85 9.05 2.05 8.7 3.25 9.25 3.6 9.9 3.75 Q9.65 4.8 8.85 5.7 8.85 5.95 9.35 5.95 L10.65 6.15" fill="#ffffff" fill-rule="evenodd" stroke="none"/>
    <path d="M11.2 5.55 L11.2 6.3 Q11.2 7.95 9.4 9.35 7.55 10.65 5.4 10.65 L4.25 10.6 Q3.4 10.6 2.0 9.95 0.7 9.35 0.6 9.0 L0.05 7.0 0.05 6.5 0.1 5.35 0.3 3.3 0.5 2.65 0.4 2.05 0.55 1.5 Q0.5 1.35 0.6 1.25 L1.25 1.8 Q1.95 2.35 3.1 2.35 L5.7 2.2 Q6.4 2.2 7.0 1.8 L8.2 0.95 8.85 0.25 9.15 0.0 Q9.75 0.0 10.45 2.0 11.1 3.9 11.2 5.55 Z" fill="none" stroke="#123f36" stroke-linecap="round" stroke-linejoin="round" stroke-width="1"/>
  </g>
</svg>