<?xml version="1.0" encoding="UTF-8" standalone="no"?>
<svg xmlns:xlink="http://www.w3.org/1999/xlink" height="9.2px" width="7.85px" xmlns="http://www.w3.org/2000/svg">
  <g id="shape0" transform="matrix(1.0, 0.0, 0.0, 1.0, 1, 1)">
    <path d="M5.85 4.2 Q4.75 6.45 2.25 7.0 L1.65 7.2 1.35 6.75 Q3.3 6.3 4.4 4.75 L3.65 5.05 Q2.75 4.6 3.15 3.05 L3.4 2.3 4.15 2.7 3.8 4.15 5.6 3.4 5.85 4.2 M3.0 1.05 L2.15 0.55 2.35 0.15 Q2.5 0.0 2.8 0.0 L3.5 1.15 3.35 1.2 3.0 1.05 M0.0 2.45 Q0.4 0.95 1.85 0.4 L1.9 0.6 1.25 1.9 2.1 1.8 2.65 1.9 Q2.65 3.85 1.55 5.45 1.25 4.0 1.85 2.65 L1.05 2.8 0.1 3.0 0.0 2.45" fill="#ffffff" fill-rule="evenodd" stroke="none"/>
  </g>
</svg>