<?xml version="1.0" encoding="UTF-8" standalone="no"?>
<svg xmlns:xlink="http://www.w3.org/1999/xlink" height="6.8px" width="6.8px" xmlns="http://www.w3.org/2000/svg">
  <g transform="matrix(1.0, 0.0, 0.0, 1.0, 3.5, 3.45)">
    <path d="M-2.5 -0.05 Q-2.5 -1.05 -1.8 -1.75 -1.1 -2.45 -0.1 -2.45 0.9 -2.45 1.6 -1.75 2.3 -1.05 2.3 -0.05 2.3 0.95 1.6 1.65 0.9 2.35 -0.1 2.35 -1.1 2.35 -1.8 1.65 -2.5 0.95 -2.5 -0.05" fill="#ffffff" fill-rule="evenodd" stroke="none"/>
    <path d="M-2.5 -0.05 Q-2.5 -1.05 -1.8 -1.75 -1.1 -2.45 -0.1 -2.45 0.9 -2.45 1.6 -1.75 2.3 -1.05 2.3 -0.05 2.3 0.95 1.6 1.65 0.9 2.35 -0.1 2.35 -1.1 2.35 -1.8 1.65 -2.5 0.95 -2.5 -0.05 Z" fill="none" stroke="#a36a6a" stroke-linecap="round" stroke-linejoin="round" stroke-width="1"/>
  </g>
</svg>