<?xml version="1.0" encoding="UTF-8" standalone="no"?>
<svg xmlns:xlink="http://www.w3.org/1999/xlink" height="8.55px" width="6.7px" xmlns="http://www.w3.org/2000/svg">
  <g id="shape0" transform="matrix(1.0, 0.0, 0.0, 1.0, 3.35, 4.25)">
    <path d="M1.5 2.45 L0.5 -0.55 Q-0.3 -2.1 -0.8 -2.45 L-1.1 -2.75 -1.0 -3.15 -0.7 -3.0 -0.4 -2.75 Q1.15 -1.4 1.7 0.5 L2.05 1.8 2.35 3.3 1.9 2.75 1.5 2.45" fill="#faf8f8" fill-rule="evenodd" stroke="none"/>
    <path d="M-1.1 -2.75 L-0.8 -2.45 Q-0.3 -2.1 0.5 -0.55 L1.5 2.45 1.4 2.4 1.5 2.45 1.5 2.5 1.4 2.4 1.1 3.3 0.65 2.95 -0.85 1.85 -2.2 0.7 Q-2.6 0.2 -2.05 -0.4 L-1.4 -1.45 -1.3 -1.9 -1.1 -2.75" fill="#d6baba" fill-rule="evenodd" stroke="none"/>
    <path d="M1.5 2.45 L1.9 2.75 2.35 3.3 2.05 1.8 1.7 0.5 Q1.15 -1.4 -0.4 -2.75 L-0.7 -3.0 -1.0 -3.15 -1.1 -2.75 -1.3 -1.9 -1.4 -1.45 -2.05 -0.4 Q-2.6 0.2 -2.2 0.7 L-0.85 1.85 0.65 2.95 1.1 3.3 1.4 2.4 1.5 2.45 M-1.0 -3.15 L-1.0 -3.25 -0.7 -3.0" fill="none" stroke="#a36a6a" stroke-linecap="round" stroke-linejoin="round" stroke-width="1"/>
  </g>
</svg>