<?xml version="1.0" encoding="UTF-8" standalone="no"?>
<svg xmlns:xlink="http://www.w3.org/1999/xlink" height="47.35px" width="65.35px" xmlns="http://www.w3.org/2000/svg">
  <g transform="matrix(1.0, 0.0, 0.0, 1.0, 32.7, 23.7)">
    <path d="M17.2 -21.05 Q17.2 -20.05 10.8 -16.4 L3.3 -12.1 -1.45 -7.1 Q-5.35 -3.35 -8.6 -3.35 -10.45 -3.35 -11.05 -4.55 L-11.25 -6.1 Q-11.25 -9.15 -6.8 -12.95 -2.9 -16.3 3.0 -19.1 8.65 -21.85 12.75 -22.5 17.2 -23.25 17.2 -21.05 M1.1 -12.5 Q7.75 -17.4 7.75 -18.0 7.75 -18.85 7.6 -18.45 5.1 -18.6 -1.25 -14.4 -7.4 -10.35 -7.4 -9.25 L-7.35 -8.4 Q-7.05 -7.7 -5.65 -7.7 L1.1 -12.5 M16.35 -3.4 L16.45 -2.3 Q16.45 2.6 8.35 8.9 1.25 14.4 -0.95 14.4 -2.75 14.4 -3.45 11.45 -3.45 9.55 0.3 4.95 3.9 0.6 8.6 -3.5 13.65 -7.85 16.9 -9.15 20.65 -10.65 20.65 -7.25 20.65 -6.2 19.7 -5.35 18.5 -4.25 16.4 -4.4 L16.35 -3.4 M15.4 -1.95 L15.3 -2.55 15.2 -2.65 Q12.75 -2.1 6.85 3.0 1.1 8.0 1.1 9.15 L1.2 10.0 1.3 10.35 2.05 10.55 Q3.1 10.55 9.25 4.7 15.4 -1.1 15.4 -1.95 M27.1 -13.95 Q25.0 -13.95 24.15 -15.35 23.75 -16.05 23.75 -16.5 23.75 -18.75 26.45 -18.25 29.1 -17.7 29.1 -15.8 29.1 -15.1 28.65 -14.55 28.05 -13.95 27.1 -13.95 M31.65 -3.25 Q31.65 -2.3 30.15 0.7 28.4 4.15 26.9 4.15 25.5 4.15 25.1 3.15 24.9 2.6 25.0 2.0 25.0 0.0 28.35 -4.35 31.65 -8.7 31.65 -3.25 M-23.95 -13.05 Q-20.2 -12.75 -20.2 -10.2 -20.2 -8.95 -22.0 -7.7 -23.8 -6.45 -25.4 -6.45 -27.3 -6.45 -27.7 -8.15 -27.9 -9.0 -27.75 -9.95 -27.75 -13.4 -23.95 -13.05 M-19.2 17.1 Q-24.2 22.65 -28.1 22.65 -29.7 22.65 -30.85 21.2 L-31.7 19.65 Q-31.7 18.65 -29.05 15.8 -26.4 12.9 -23.3 10.65 -14.9 4.55 -14.9 10.95 -14.9 12.25 -19.2 17.1 M-24.9 16.05 Q-24.9 16.7 -23.85 17.7 L-21.3 15.75 Q-19.25 14.05 -19.25 13.4 -19.25 10.7 -22.05 12.9 -24.9 15.1 -24.9 16.05" fill="#ffec00" fill-rule="evenodd" stroke="none"/>
    <path d="M1.1 -12.5 L-5.65 -7.7 Q-7.05 -7.7 -7.35 -8.4 L-7.4 -9.25 Q-7.4 -10.35 -1.25 -14.4 5.1 -18.6 7.6 -18.45 7.75 -18.85 7.75 -18.0 7.75 -17.4 1.1 -12.5 M15.4 -1.95 Q15.4 -1.1 9.25 4.7 3.1 10.55 2.05 10.55 L1.3 10.35 1.2 10.0 1.1 9.15 Q1.1 8.0 6.85 3.0 12.75 -2.1 15.2 -2.65 L15.3 -2.55 15.4 -1.95 M-24.9 16.05 Q-24.9 15.1 -22.05 12.9 -19.25 10.7 -19.25 13.4 -19.25 14.05 -21.3 15.75 L-23.85 17.7 Q-24.9 16.7 -24.9 16.05" fill="#ff9400" fill-rule="evenodd" stroke="none"/>
  </g>
</svg>