<?xml version="1.0" encoding="UTF-8" standalone="no"?>
<svg xmlns:xlink="http://www.w3.org/1999/xlink" height="43.7px" width="67.8px" xmlns="http://www.w3.org/2000/svg">
  <g transform="matrix(1.0, 0.0, 0.0, 1.0, 33.9, 21.85)">
    <path d="M-18.45 -14.1 Q-18.45 -13.4 -19.0 -12.6 -19.8 -11.5 -21.1 -11.5 -22.65 -11.5 -23.3 -12.8 L-23.7 -14.1 Q-23.7 -16.85 -21.05 -16.7 -18.45 -16.55 -18.45 -14.1 M24.5 -20.85 Q26.7 -20.85 26.7 -18.75 L26.25 -17.45 Q25.6 -16.45 24.4 -16.45 23.1 -16.45 22.6 -17.4 22.25 -18.0 22.25 -18.7 22.25 -20.85 24.5 -20.85 M-2.9 -12.0 Q0.2 -16.2 0.2 -16.45 0.2 -17.35 0.0 -17.4 -1.75 -16.95 -5.1 -12.5 -8.2 -8.35 -8.2 -7.55 L-7.95 -6.75 -7.35 -6.5 Q-6.15 -7.65 -2.9 -12.0 M-3.0 -10.55 L-8.0 -3.7 Q-9.9 -3.7 -9.9 -5.55 -9.9 -11.15 -4.0 -17.75 -1.55 -20.45 0.05 -20.7 1.9 -20.9 1.9 -17.65 L-3.0 -10.55 M10.4 5.85 Q9.75 5.25 8.5 5.3 5.85 5.45 5.85 7.95 5.8 8.6 6.15 9.3 6.75 10.8 8.5 10.8 9.85 10.8 10.5 9.95 L10.9 9.3 10.9 10.3 10.75 12.55 Q10.15 14.3 7.85 14.3 5.75 14.3 5.3 11.8 L5.25 8.8 Q5.25 3.2 8.1 3.45 9.7 3.6 10.4 5.85 M32.9 -5.55 L32.2 -2.0 Q31.25 1.4 30.2 1.4 28.75 1.4 28.35 -0.05 28.15 -0.8 28.25 -1.6 28.25 -5.35 30.6 -7.15 32.9 -8.95 32.9 -5.55 M-26.6 10.15 Q-27.6 11.0 -29.25 13.4 -31.1 16.1 -31.1 17.15 L-31.0 17.75 -30.55 17.8 Q-29.6 17.3 -27.75 14.35 -26.0 11.55 -26.0 10.85 -26.0 10.3 -26.15 10.25 L-26.6 10.15 M-28.85 11.05 Q-24.85 6.45 -24.85 11.2 -24.85 12.25 -26.95 16.3 -29.3 20.85 -30.9 20.85 -32.2 20.85 -32.7 19.3 L-32.9 17.65 Q-32.9 15.65 -28.85 11.05" fill="#ffec00" fill-rule="evenodd" stroke="none"/>
    <path d="M-2.9 -12.0 Q-6.15 -7.65 -7.35 -6.5 L-7.95 -6.75 -8.2 -7.55 Q-8.2 -8.35 -5.1 -12.5 -1.75 -16.95 0.0 -17.4 0.2 -17.35 0.2 -16.45 0.2 -16.2 -2.9 -12.0 M10.9 9.3 L10.5 9.95 Q9.85 10.8 8.5 10.8 6.75 10.8 6.15 9.3 5.8 8.6 5.85 7.95 5.85 5.45 8.5 5.3 9.75 5.25 10.4 5.85 L10.85 8.9 10.9 9.3 M-26.6 10.15 L-26.15 10.25 Q-26.0 10.3 -26.0 10.85 -26.0 11.55 -27.75 14.35 -29.6 17.3 -30.55 17.8 L-31.0 17.75 -31.1 17.15 Q-31.1 16.1 -29.25 13.4 -27.6 11.0 -26.6 10.15" fill="#ff9400" fill-rule="evenodd" stroke="none"/>
  </g>
</svg>