<?xml version="1.0" encoding="UTF-8" standalone="no"?>
<svg xmlns:xlink="http://www.w3.org/1999/xlink" height="71.5px" width="115.9px" xmlns="http://www.w3.org/2000/svg">
  <g transform="matrix(1.0, 0.0, 0.0, 1.0, 80.5, 27.45)">
    <path d="M21.55 -23.25 L20.0 -22.75 Q18.15 -22.4 15.55 -21.3 L14.85 -21.0 Q10.65 -19.5 10.05 -19.0 L5.75 -15.05 1.9 -11.6 -1.25 -8.9 -3.55 -6.8 -1.25 -8.5 2.15 -10.65 3.85 -11.65 -0.35 -8.45 -5.45 -4.8 -5.1 -5.3 -6.1 -4.3 -10.6 -1.2 Q-17.8 3.1 -23.25 7.35 L-25.8 9.5 Q-32.0 12.75 -41.2 17.2 -58.0 25.35 -61.35 30.1 -59.1 23.85 -43.0 15.25 -33.8 10.55 -29.3 8.05 -21.4 3.7 -16.8 0.0 -13.55 -2.55 -8.5 -7.6 -3.3 -12.8 -0.05 -15.4 L4.15 -19.25 Q7.0 -21.85 9.1 -23.0 12.25 -24.75 18.65 -25.95 25.7 -27.25 25.7 -25.05 25.7 -24.7 21.55 -23.25 M-5.0 -3.05 Q1.15 -7.5 7.25 -10.4 L7.1 -10.15 4.6 -6.15 3.9 -5.8 3.4 -5.6 4.2 -5.55 1.85 -1.85 Q-8.65 3.95 -17.2 10.6 -26.05 17.5 -30.1 23.3 -32.6 26.85 -37.0 29.9 -42.1 33.4 -48.7 35.35 L-57.2 36.8 Q-64.25 37.9 -66.0 38.65 L-72.15 41.25 Q-76.55 43.05 -77.7 43.05 -79.1 43.05 -79.4 42.35 L-79.5 41.5 Q-79.5 40.8 -75.9 39.3 -72.65 37.95 -71.25 37.7 L-71.4 36.75 Q-71.4 35.75 -70.75 34.85 -69.9 33.7 -68.5 33.7 -68.05 33.7 -67.6 34.05 L-66.7 34.35 Q-66.1 34.35 -65.3 33.7 -64.35 32.9 -64.05 32.8 L-66.35 34.75 -65.95 35.35 -63.65 34.4 -60.75 33.3 Q-59.8 33.05 -57.35 33.8 -55.85 34.25 -54.05 31.9 -52.95 30.45 -48.4 27.0 L-42.5 22.2 -35.75 16.9 -26.5 10.1 Q-33.5 16.45 -35.8 22.65 L-37.8 24.25 -46.9 31.3 -46.9 31.4 Q-41.8 29.35 -36.8 25.2 L-35.35 23.95 -35.0 23.95 Q-33.1 23.95 -27.35 17.0 -20.4 8.7 -17.75 6.75 L-14.2 4.0 Q-11.8 2.95 -10.2 0.9 L-7.0 -1.6 -7.0 -1.4 Q-7.0 -0.85 -7.35 -0.5 L-7.9 0.0 -8.05 0.25 Q-6.25 -0.2 -3.15 -2.8 L-3.05 -2.85 -5.0 -3.05 M1.6 -1.5 L-0.2 1.25 Q-3.05 5.7 -6.25 9.8 L-6.35 9.1 Q-6.35 7.4 1.6 -1.5 M-7.6 11.5 L-9.45 13.65 Q-3.2 11.6 0.5 6.4 L3.4 2.05 Q5.5 0.4 9.15 -3.6 L8.8 -3.6 3.6 1.7 5.95 -2.35 Q9.85 -7.55 17.75 -13.95 L24.65 -19.6 Q24.65 -23.15 21.05 -22.85 L21.55 -23.2 21.75 -23.3 Q24.55 -24.3 25.35 -24.75 27.05 -24.85 27.65 -23.15 L27.65 -23.0 30.25 -23.45 32.55 -23.8 Q34.35 -23.8 34.4 -22.1 34.4 -21.05 31.1 -18.9 L26.95 -15.95 24.65 -12.95 Q23.1 -11.3 20.65 -10.05 16.4 -7.8 13.3 -4.25 L8.15 2.0 Q3.5 7.25 -9.5 16.15 -22.15 24.85 -24.65 24.85 L-25.9 24.7 Q-26.05 24.85 -26.05 24.0 -26.05 21.75 -16.9 16.6 L-7.6 11.5 M17.9 -12.05 L19.4 -13.0 17.9 -12.1 17.9 -12.05 M27.75 -9.45 Q27.75 -7.55 21.35 0.65 15.1 8.65 13.1 9.8 L12.5 9.8 12.4 9.25 Q12.4 8.45 14.8 4.05 17.3 -0.55 20.1 -4.65 27.75 -16.05 27.75 -9.45" fill="#ffec00" fill-rule="evenodd" stroke="none"/>
    <path d="M-1.25 -8.9 L1.9 -11.6 5.75 -15.05 10.05 -19.0 Q10.65 -19.5 14.85 -21.0 L15.55 -21.3 Q18.15 -22.4 20.0 -22.75 L21.55 -23.25 21.55 -23.2 21.05 -22.85 Q24.65 -23.15 24.65 -19.6 L17.75 -13.95 Q9.85 -7.55 5.95 -2.35 L3.6 1.7 3.4 2.05 0.5 6.4 Q-3.2 11.6 -9.45 13.65 L-7.6 11.5 -6.25 9.8 Q-3.05 5.7 -0.2 1.25 L1.6 -1.5 1.85 -1.85 4.2 -5.55 4.6 -6.15 7.1 -10.15 7.25 -10.4 Q1.15 -7.5 -5.0 -3.05 L-6.2 -2.2 -7.0 -1.6 -10.2 0.9 -14.2 4.0 -17.75 6.75 Q-20.4 8.7 -27.35 17.0 -33.1 23.95 -35.0 23.95 L-35.35 23.95 -35.65 23.85 -36.1 23.55 -35.8 22.65 Q-33.5 16.45 -26.5 10.1 L-25.8 9.5 -23.25 7.35 Q-17.8 3.1 -10.6 -1.2 L-6.1 -4.3 -5.45 -4.8 -0.35 -8.45 3.85 -11.65 2.15 -10.65 -1.25 -8.5 -1.4 -8.8 -1.25 -8.9" fill="#ff9400" fill-rule="evenodd" stroke="none"/>
  </g>
</svg>