<?xml version="1.0" encoding="UTF-8" standalone="no"?>
<svg xmlns:xlink="http://www.w3.org/1999/xlink" height="120px" width="98.2px" xmlns="http://www.w3.org/2000/svg">
  <g transform="matrix(1.0, 0.0, 0.0, 1.0, 49.1, 60.1)">
    <path d="M33.1 24.35 L33.15 25.9 Q31.45 34.1 29.45 34.1 28.7 34.1 28.45 33.6 L28.35 33.1 Q28.35 32.35 29.2 29.9 30.15 27.3 30.8 26.55 31.15 26.15 31.15 24.8 31.15 23.6 31.8 23.35 32.8 22.9 33.1 24.35" fill="#ff9900" fill-rule="evenodd" stroke="none"/>
    <path d="M-10.1 -53.2 Q-7.5 -53.9 -5.05 -55.05 L-4.3 -55.35 -2.8 -55.75 5.2 -57.4 7.7 -58.05 10.6 -58.75 Q14.3 -59.65 17.75 -58.2 21.75 -56.55 25.15 -54.1 L28.7 -51.15 29.95 -49.95 31.1 -48.85 Q33.15 -47.05 35.0 -42.9 L35.95 -40.15 36.45 -38.75 36.9 -36.1 Q37.1 -32.3 38.15 -28.65 L37.8 -25.05 Q36.7 -19.85 35.15 -17.75 34.0 -16.2 31.05 -13.55 L29.85 -15.15 Q30.45 -15.3 30.8 -16.4 L31.0 -17.85 Q31.0 -19.3 30.45 -19.95 30.5 -21.65 29.9 -23.35 L29.35 -24.6 28.55 -25.75 Q27.35 -27.3 25.45 -27.6 L23.8 -27.75 23.3 -27.7 Q21.95 -27.55 22.1 -26.05 21.95 -27.55 23.3 -27.7 L23.8 -27.75 25.45 -27.6 Q27.35 -27.3 28.55 -25.75 L29.35 -24.6 29.9 -23.35 Q30.5 -21.65 30.45 -19.95 29.65 -21.0 27.65 -20.4 24.25 -19.45 24.25 -16.5 24.25 -15.05 25.1 -13.35 26.2 -11.05 28.15 -11.05 L27.0 -10.1 25.75 -8.95 -4.2 -12.5 Q-1.85 -14.5 -1.25 -15.8 L1.65 -22.0 Q3.25 -25.55 3.55 -27.65 L3.6 -28.5 Q3.6 -32.6 1.25 -35.3 -0.6 -37.45 -8.3 -43.1 -11.25 -47.1 -13.7 -47.6 -12.4 -50.7 -10.1 -53.2 M21.7 -43.15 L23.6 -42.8 23.6 -43.9 23.45 -45.0 22.95 -46.2 Q22.15 -47.85 20.85 -49.0 19.85 -49.95 18.65 -50.2 L17.65 -50.1 18.65 -50.2 Q19.85 -49.95 20.85 -49.0 22.15 -47.85 22.95 -46.2 L23.45 -45.0 23.6 -43.9 23.6 -42.8 21.7 -43.15 M34.5 -33.4 L34.5 -33.7 34.5 -33.4 M33.3 -34.3 L33.25 -34.9 33.05 -35.5 33.25 -34.9 33.3 -34.3 M10.5 -15.4 Q11.1 -15.95 11.25 -16.9 11.1 -15.95 10.5 -15.4 M9.75 -20.65 Q10.45 -20.9 10.05 -22.1 9.5 -23.8 10.15 -24.4 9.5 -23.8 10.05 -22.1 10.45 -20.9 9.75 -20.65 M-1.55 -40.9 L-1.9 -41.65 -2.65 -43.15 -1.9 -41.65 -1.55 -40.9" fill="url(#gradient0)" fill-rule="evenodd" stroke="none"/>
    <path d="M25.15 -54.1 L28.85 -53.95 Q29.5 -53.25 30.25 -52.75 L32.15 -51.55 Q35.15 -49.9 35.0 -42.9 33.15 -47.05 31.1 -48.85 L29.95 -49.95 28.7 -51.15 25.15 -54.1 M38.65 -18.15 L38.1 -16.25 38.0 -16.25 38.25 -16.9 38.55 -17.75 38.65 -18.15 M-1.35 9.8 L-1.65 9.45 -1.85 9.0 -1.35 9.8 M-2.3 6.85 L-2.3 6.65 -2.1 6.65 -2.3 6.85 M13.3 38.45 L13.5 38.95 13.5 39.0 13.3 38.45 M20.7 35.9 L20.55 35.8 20.65 35.65 20.7 35.9" fill="#de5c07" fill-rule="evenodd" stroke="none"/>
    <path d="M38.15 -28.65 L38.45 -27.45 Q38.9 -25.7 38.8 -23.7 L38.85 -22.65 Q39.1 -20.3 38.65 -18.15 L38.55 -17.75 38.25 -16.9 38.0 -16.25 38.1 -16.25 37.15 -13.3 36.25 -9.2 36.25 -9.0 37.25 -7.6 37.8 -6.55 38.05 -5.5 37.9 -1.15 37.85 -0.6 37.55 1.1 37.25 1.75 36.1 2.5 Q36.5 9.0 38.65 15.0 39.3 16.9 39.4 19.0 39.55 22.75 38.75 26.35 L37.9 29.65 Q39.2 31.4 39.95 33.55 40.3 34.55 40.2 35.5 L39.75 38.0 32.9 33.85 Q29.65 34.4 27.85 35.9 24.25 38.75 25.8 45.05 L20.8 45.25 Q19.8 44.95 19.0 44.3 L18.5 43.85 Q17.05 45.45 14.7 46.2 L14.6 46.25 14.5 45.3 13.8 40.15 13.5 39.0 13.5 38.95 13.3 38.45 13.25 38.3 13.0 37.85 12.35 36.75 11.8 36.0 11.0 35.05 11.05 34.8 11.15 34.8 12.3 35.8 Q13.0 36.8 14.75 36.8 17.05 36.8 18.3 35.0 L19.15 33.2 18.5 26.2 Q18.5 23.95 20.15 22.0 21.85 19.9 25.1 18.6 L23.2 16.3 22.3 14.95 26.85 13.85 Q27.5 13.75 28.55 13.1 L29.5 12.25 Q29.5 11.15 26.05 6.4 22.55 1.65 22.55 -3.1 22.55 -5.95 25.75 -8.95 L27.0 -10.1 28.15 -11.05 Q26.2 -11.05 25.1 -13.35 24.25 -15.05 24.25 -16.5 24.25 -19.45 27.65 -20.4 29.65 -21.0 30.45 -19.95 31.0 -19.3 31.0 -17.85 L30.8 -16.4 Q30.45 -15.3 29.85 -15.15 L31.05 -13.55 Q34.0 -16.2 35.15 -17.75 36.7 -19.85 37.8 -25.05 L38.15 -28.65 M-8.5 41.8 L-12.75 36.95 -17.85 37.55 -18.8 37.45 -19.55 37.25 Q-17.8 35.95 -16.7 33.95 -16.0 32.75 -16.2 31.3 L-16.45 29.8 -16.9 28.2 -16.95 28.1 -17.35 27.15 -17.5 26.9 -16.95 26.6 Q-14.0 25.1 -13.0 24.75 L-8.9 22.55 Q-7.05 21.65 -6.55 23.8 L-5.9 28.4 -5.4 30.9 Q-4.8 31.75 -3.05 31.9 -4.0 32.45 -4.75 33.25 L-4.8 33.3 -6.0 34.75 Q-8.25 37.85 -8.5 41.8 M-6.75 -10.35 L-5.95 -12.3 -6.05 -12.7 -6.8 -16.25 Q-7.1 -18.7 -5.4 -20.55 L-3.95 -21.7 -3.9 -21.7 -4.05 -23.25 -5.2 -27.6 -5.55 -28.6 -6.0 -30.0 Q-6.35 -31.4 -7.55 -32.2 L-11.85 -34.65 -12.3 -34.9 -12.55 -35.0 -12.95 -35.2 -15.45 -35.75 -15.55 -37.1 -15.5 -38.3 -15.5 -38.75 Q-15.45 -42.35 -14.5 -45.45 L-13.7 -47.6 Q-11.25 -47.1 -8.3 -43.1 -0.6 -37.45 1.25 -35.3 3.6 -32.6 3.6 -28.5 L3.55 -27.65 Q3.25 -25.55 1.65 -22.0 L-1.25 -15.8 Q-1.85 -14.5 -4.2 -12.5 L-4.25 -12.5 -6.75 -10.35 M24.85 -16.3 Q25.5 -14.85 27.2 -14.65 L28.4 -14.85 Q29.25 -15.25 29.6 -16.1 30.45 -18.0 30.45 -19.95 30.45 -18.0 29.6 -16.1 29.25 -15.25 28.4 -14.85 L27.2 -14.65 Q25.5 -14.85 24.85 -16.3 M36.1 2.5 L36.05 1.85 35.85 -2.5 Q35.75 -5.15 36.1 -7.75 L36.25 -9.0 36.1 -7.75 Q35.75 -5.15 35.85 -2.5 L36.05 1.85 36.1 2.5 M32.5 -2.75 L30.5 -5.55 30.1 -5.5 31.4 1.6 Q31.9 6.05 33.8 10.2 36.35 15.6 35.65 21.0 L35.2 18.75 33.35 14.9 Q33.4 23.05 32.7 28.3 31.4 26.15 30.65 21.9 L29.75 29.5 Q29.75 30.0 29.35 30.3 27.25 31.75 27.15 33.85 L28.25 33.75 30.1 33.0 Q31.35 32.15 32.05 30.8 33.6 30.9 34.9 31.7 L36.85 33.0 37.85 32.6 38.05 31.85 36.0 28.1 Q37.45 25.3 37.65 22.05 38.25 13.05 33.8 4.55 L34.15 2.65 Q34.4 -2.65 35.0 -7.85 L35.75 -14.0 Q34.25 -11.15 33.45 -8.05 32.75 -5.45 32.5 -2.75 M26.2 17.45 Q26.7 18.4 27.85 18.55 L28.75 18.4 29.6 17.7 30.4 16.55 Q30.75 15.7 30.75 14.65 L30.75 13.95 30.65 12.6 30.3 10.0 Q30.05 8.95 29.35 8.05 28.9 7.4 28.15 7.25 27.9 7.25 27.55 7.55 27.9 7.25 28.15 7.25 28.9 7.4 29.35 8.05 30.05 8.95 30.3 10.0 L30.65 12.6 30.75 13.95 30.75 14.65 Q30.75 15.7 30.4 16.55 L29.6 17.7 28.75 18.4 27.85 18.55 Q26.7 18.4 26.2 17.45 M28.0 15.25 L28.1 15.9 Q28.3 16.5 29.05 16.5 29.85 16.5 30.3 15.6 L30.65 14.5 Q30.65 12.45 29.35 13.15 28.0 13.8 28.0 15.25 M-2.1 6.65 L-0.4 6.6 2.1 6.25 Q3.25 6.2 3.25 8.0 3.25 9.05 2.1 10.45 0.6 12.25 -1.85 12.25 L-3.15 12.0 -2.05 11.15 Q-1.25 10.5 -1.25 10.1 L-1.15 9.95 -0.7 10.0 Q0.15 10.0 0.85 9.5 L1.3 8.95 0.85 9.5 Q0.15 10.0 -0.7 10.0 L-1.15 9.95 -1.35 9.8 -1.85 9.0 Q-2.35 7.95 -2.3 6.85 L-2.1 6.65 M17.5 40.85 Q18.5 40.85 19.0 39.75 19.35 38.95 19.35 38.0 19.35 35.9 18.0 37.6 16.6 39.3 16.6 40.0 16.6 40.85 17.5 40.85 M36.95 28.5 L37.9 29.65 36.95 28.5 M20.65 35.65 L20.55 35.8 20.7 35.9 20.65 35.65 19.8 33.2 20.65 35.65 M18.5 43.85 Q19.85 42.4 20.5 40.25 L20.9 38.25 Q21.0 37.1 20.7 35.9 21.0 37.1 20.9 38.25 L20.5 40.25 Q19.85 42.4 18.5 43.85 M-3.9 -21.7 Q-3.9 -20.3 -4.3 -18.9 L-4.75 -16.5 -5.0 -15.1 -5.55 -13.45 -5.95 -12.3 -5.55 -13.45 -5.0 -15.1 -4.75 -16.5 -4.3 -18.9 Q-3.9 -20.3 -3.9 -21.7 M-8.8 26.85 Q-12.4 30.0 -13.55 34.6 L-13.6 35.55 -13.1 36.55 -12.75 36.95 -13.1 36.55 -13.6 35.55 -13.55 34.6 Q-12.4 30.0 -8.8 26.85" fill="#ac4806" fill-rule="evenodd" stroke="none"/>
    <path d="M-29.5 22.25 L-27.35 19.75 -26.45 19.1 -23.2 17.15 -22.2 16.5 Q-18.2 14.65 -15.25 11.35 L-14.4 10.5 Q-13.65 9.85 -13.4 9.1 -12.4 6.25 -11.8 3.35 -11.25 0.8 -10.35 -1.65 L-9.65 -3.45 -7.05 -9.75 -6.75 -10.35 -4.25 -12.5 -4.2 -12.5 25.75 -8.95 Q22.55 -5.95 22.55 -3.1 22.55 1.65 26.05 6.4 29.5 11.15 29.5 12.25 L28.55 13.1 Q27.5 13.75 26.85 13.85 L22.3 14.95 23.2 16.3 25.1 18.6 Q21.85 19.9 20.15 22.0 18.5 23.95 18.5 26.2 L19.15 33.2 18.3 35.0 Q17.05 36.8 14.75 36.8 13.0 36.8 12.3 35.8 L11.15 34.8 11.05 34.8 10.8 34.75 10.75 34.75 10.7 34.75 9.1 33.25 Q4.85 29.5 -0.05 30.9 -1.75 31.15 -3.05 31.9 -4.8 31.75 -5.4 30.9 L-5.9 28.4 -6.55 23.8 Q-7.05 21.65 -8.9 22.55 L-13.0 24.75 Q-14.0 25.1 -16.95 26.6 L-17.5 26.9 Q-18.55 25.05 -20.2 24.1 -21.25 23.45 -22.55 23.15 L-24.7 22.4 Q-25.95 21.85 -27.25 21.95 L-29.45 22.4 -29.5 22.25 M-1.25 10.1 Q-1.25 10.5 -2.05 11.15 L-3.15 12.0 -1.85 12.25 Q0.6 12.25 2.1 10.45 3.25 9.05 3.25 8.0 3.25 6.2 2.1 6.25 L-0.4 6.6 -2.1 6.65 -2.3 6.65 -2.3 6.85 -2.5 7.75 Q-2.5 8.2 -1.9 8.95 L-1.85 9.0 -1.65 9.45 -1.35 9.8 -1.25 10.1 M2.3 0.55 Q1.0 -0.15 -0.15 1.5 L-1.5 3.7 -2.1 5.25 -2.3 6.65 -2.1 5.25 -1.5 3.7 -0.15 1.5 Q1.0 -0.15 2.3 0.55 M9.45 17.65 L8.3 17.4 5.3 17.25 8.3 17.4 9.45 17.65 M7.55 14.65 L6.85 14.5 4.2 14.65 6.85 14.5 7.55 14.65 M12.9 24.95 L11.45 24.15 Q9.3 23.05 7.15 22.35 9.3 23.05 11.45 24.15 L12.9 24.95 M16.4 27.55 Q13.25 25.7 9.75 24.75 4.45 23.35 -0.95 23.5 4.45 23.35 9.75 24.75 13.25 25.7 16.4 27.55" fill="url(#gradient1)" fill-rule="evenodd" stroke="none"/>
    <path d="M32.5 -2.75 Q32.75 -5.45 33.45 -8.05 34.25 -11.15 35.75 -14.0 L35.0 -7.85 Q34.4 -2.65 34.15 2.65 L33.8 4.55 Q38.25 13.05 37.65 22.05 37.45 25.3 36.0 28.1 L38.05 31.85 37.85 32.6 36.85 33.0 34.9 31.7 Q33.6 30.9 32.05 30.8 31.35 32.15 30.1 33.0 L28.25 33.75 27.15 33.85 Q27.25 31.75 29.35 30.3 29.75 30.0 29.75 29.5 L30.65 21.9 Q31.4 26.15 32.7 28.3 33.4 23.05 33.35 14.9 L35.2 18.75 35.65 21.0 Q36.35 15.6 33.8 10.2 31.9 6.05 31.4 1.6 L30.1 -5.5 30.5 -5.55 32.5 -2.75 M28.0 15.25 Q28.0 13.8 29.35 13.15 30.65 12.45 30.65 14.5 L30.3 15.6 Q29.85 16.5 29.05 16.5 28.3 16.5 28.1 15.9 L28.0 15.25 M17.5 40.85 Q16.6 40.85 16.6 40.0 16.6 39.3 18.0 37.6 19.35 35.9 19.35 38.0 19.35 38.95 19.0 39.75 18.5 40.85 17.5 40.85" fill="#ff9900" fill-rule="evenodd" stroke="none"/>
    <path d="M-1.25 10.1 L-1.35 9.8 -1.15 9.95 -1.25 10.1 M-1.85 9.0 L-1.9 8.95 Q-2.5 8.2 -2.5 7.75 L-2.3 6.85 Q-2.35 7.95 -1.85 9.0 M10.7 34.75 L10.75 34.75 10.8 34.75 11.05 34.8 11.0 35.05 10.75 34.85 10.7 34.75" fill="#bd4f06" fill-rule="evenodd" stroke="none"/>
    <path d="M39.75 38.0 L41.75 39.2 Q43.0 39.95 43.9 41.05 L45.0 42.6 Q46.7 45.25 47.3 48.25 L45.75 46.1 42.85 42.65 43.4 43.1 45.4 44.8 43.75 42.0 Q42.5 40.2 40.8 39.2 38.65 37.5 36.55 36.45 33.1 34.65 33.05 36.8 L33.05 36.65 Q29.55 35.2 27.85 35.9 29.65 34.4 32.9 33.85 L39.75 38.0 M-1.45 58.0 L-2.35 57.75 Q-4.3 57.1 -5.4 55.45 L-6.55 53.8 Q-9.3 50.2 -8.8 45.7 -8.6 44.0 -8.55 42.3 L-8.5 41.8 Q-8.25 37.85 -6.0 34.75 L-4.8 33.3 -4.75 33.25 Q-4.0 32.45 -3.05 31.9 -1.75 31.15 -0.05 30.9 4.85 29.5 9.1 33.25 L10.7 34.75 10.75 34.85 11.0 35.05 11.8 36.0 Q9.9 36.45 7.5 38.05 L6.65 38.7 5.8 39.35 Q0.25 43.8 0.1 49.35 L-0.25 45.95 Q-0.5 44.05 -1.05 42.7 -1.3 42.75 -1.5 42.9 L-1.75 43.05 -1.8 43.95 -2.25 48.7 -1.9 54.75 Q-2.7 51.75 -2.45 48.4 -2.4 47.4 -2.5 46.35 -2.8 43.9 -1.25 42.0 -2.8 43.9 -2.5 46.35 -2.4 47.4 -2.45 48.4 -2.7 51.75 -1.9 54.75 L-1.9 54.8 -1.45 58.0 M-34.45 40.6 L-35.25 40.5 -35.2 40.4 -35.2 40.5 -34.45 40.6 M-45.1 41.2 L-47.25 41.75 -47.5 41.8 -48.1 41.7 -47.9 41.3 -47.25 39.8 Q-44.35 33.8 -39.65 29.0 -37.85 27.25 -35.85 25.7 L-31.55 23.1 -29.6 22.45 -29.45 22.4 -27.25 21.95 Q-25.95 21.85 -24.7 22.4 L-22.55 23.15 Q-21.25 23.45 -20.2 24.1 -18.55 25.05 -17.5 26.9 L-17.35 27.15 Q-19.65 27.4 -23.45 28.85 -31.45 31.9 -38.85 36.9 L-39.4 37.1 -38.85 36.9 -40.3 37.9 -40.25 37.85 -39.4 37.1 -36.8 35.1 Q-33.8 32.85 -33.8 32.45 L-33.9 31.8 -34.35 31.65 -34.5 31.75 -30.55 28.95 Q-25.6 25.9 -20.2 24.1 -25.6 25.9 -30.55 28.95 L-34.5 31.75 Q-37.5 33.0 -40.9 35.6 -44.2 38.05 -44.9 39.75 L-45.15 40.7 -45.1 41.2 M13.3 38.45 L12.25 39.85 12.2 39.8 11.6 39.75 Q10.7 40.3 9.85 40.95 L13.25 38.3 13.3 38.45 M29.1 39.7 L28.9 39.6 Q30.8 39.75 31.05 40.1 L31.0 40.25 29.1 39.7 M-47.25 41.75 L-44.9 39.75 -47.25 41.75" fill="#666666" fill-rule="evenodd" stroke="none"/>
    <path d="M47.3 48.25 L47.35 48.3 47.45 49.0 47.5 49.25 47.5 49.35 47.7 50.0 Q48.2 51.05 48.05 52.35 45.25 50.45 42.4 50.1 L37.85 49.2 33.45 48.6 Q30.7 48.45 28.25 46.75 L25.8 45.05 Q24.25 38.75 27.85 35.9 29.55 35.2 33.05 36.65 L33.05 36.8 33.05 36.85 Q33.05 37.75 36.55 39.35 L40.65 41.1 42.85 42.65 45.75 46.1 47.3 48.25 47.45 49.0 47.3 48.25 M14.6 46.25 Q14.6 49.3 12.05 51.35 10.9 52.25 9.55 52.75 5.5 54.3 2.05 56.9 1.35 57.45 0.95 58.25 0.55 59.05 0.0 58.85 L-0.35 58.65 -0.4 58.55 Q-1.4 56.7 -1.9 54.75 -1.4 56.7 -0.4 58.55 L-0.45 58.55 -1.0 58.15 -1.45 58.0 -1.9 54.8 -1.9 54.75 -2.25 48.7 -1.8 43.95 -1.75 43.05 -1.5 42.9 Q-1.3 42.75 -1.05 42.7 -0.5 44.05 -0.25 45.95 L0.1 49.35 Q0.25 43.8 5.8 39.35 L6.65 38.7 7.5 38.05 Q9.9 36.45 11.8 36.0 L12.35 36.75 13.0 37.85 13.25 38.3 9.85 40.95 Q3.65 45.45 2.6 52.55 L10.1 47.3 11.55 47.65 Q13.15 45.6 13.0 42.65 L12.6 40.2 12.25 39.85 13.3 38.45 13.5 39.0 13.8 40.15 14.5 45.3 14.6 46.25 M-19.55 37.25 Q-21.0 38.3 -22.9 38.9 L-26.5 40.15 Q-29.3 41.3 -32.3 40.9 L-34.45 40.6 -35.2 40.5 -35.2 40.4 -35.25 40.5 -36.0 40.4 Q-40.45 39.7 -44.75 41.1 L-44.9 41.15 -45.1 41.2 -45.15 40.7 -44.9 39.75 Q-44.2 38.05 -40.9 35.6 -37.5 33.0 -34.5 31.75 L-34.35 31.65 -33.9 31.8 -33.8 32.45 Q-33.8 32.85 -36.8 35.1 L-39.4 37.1 -40.25 37.85 -40.3 37.9 -38.85 36.9 Q-31.45 31.9 -23.45 28.85 -19.65 27.4 -17.35 27.15 L-16.95 28.1 -16.9 28.2 -16.45 29.8 -16.2 31.3 Q-16.0 32.75 -16.7 33.95 -17.8 35.95 -19.55 37.25 M45.35 47.2 L44.8 46.3 43.35 44.25 41.0 42.3 Q40.0 41.7 38.95 41.5 37.85 41.3 37.25 40.25 37.85 41.3 38.95 41.5 40.0 41.7 41.0 42.3 L43.35 44.25 44.8 46.3 45.35 47.2 M2.8 44.9 Q3.1 43.75 3.55 42.7 4.4 40.85 5.8 39.35 4.4 40.85 3.55 42.7 3.1 43.75 2.8 44.9 M29.1 39.7 L31.0 40.25 31.05 40.1 Q30.8 39.75 28.9 39.6 L29.1 39.7 M32.05 40.5 L30.55 39.75 29.45 39.35 30.55 39.75 32.05 40.5 M-39.4 37.1 L-41.25 37.85 Q-43.25 38.55 -44.9 39.75 -43.25 38.55 -41.25 37.85 L-39.4 37.1" fill="#484848" fill-rule="evenodd" stroke="none"/>
    <path d="M42.85 42.65 L40.65 41.1 36.55 39.35 Q33.05 37.75 33.05 36.85 L33.05 36.8 Q33.1 34.65 36.55 36.45 38.65 37.5 40.8 39.2 42.5 40.2 43.75 42.0 L45.4 44.8 43.4 43.1 42.85 42.65 M12.25 39.85 L12.6 40.2 13.0 42.65 Q13.15 45.6 11.55 47.65 L10.1 47.3 2.6 52.55 Q3.65 45.45 9.85 40.95 10.7 40.3 11.6 39.75 L12.2 39.8 12.25 39.85" fill="#ca7902" fill-rule="evenodd" stroke="none"/>
    <path d="M-10.1 -53.2 Q-7.5 -53.9 -5.05 -55.05 L-4.3 -55.35 -2.8 -55.75 5.2 -57.4 7.7 -58.05 10.6 -58.75 Q14.3 -59.65 17.75 -58.2 21.75 -56.55 25.15 -54.1 L28.85 -53.95 Q29.5 -53.25 30.25 -52.75 L32.15 -51.55 Q35.15 -49.9 35.0 -42.9 L35.95 -40.15 36.45 -38.75 36.9 -36.1 Q37.1 -32.3 38.15 -28.65 L38.45 -27.45 Q38.9 -25.7 38.8 -23.7 L38.85 -22.65 Q39.1 -20.3 38.65 -18.15 L38.1 -16.25 37.15 -13.3 36.25 -9.2 36.25 -9.0 37.25 -7.6 37.8 -6.55 38.05 -5.5 37.9 -1.15 37.85 -0.6 37.55 1.1 37.25 1.75 36.1 2.5 Q36.5 9.0 38.65 15.0 39.3 16.9 39.4 19.0 39.55 22.75 38.75 26.35 L37.9 29.65 Q39.2 31.4 39.95 33.55 40.3 34.55 40.2 35.5 L39.75 38.0 41.75 39.2 Q43.0 39.95 43.9 41.05 L45.0 42.6 Q46.7 45.25 47.3 48.25 L47.45 49.0 47.5 49.25 47.5 49.35 47.7 50.0 Q48.2 51.05 48.05 52.35 45.25 50.45 42.4 50.1 L37.85 49.2 33.45 48.6 Q30.7 48.45 28.25 46.75 L25.8 45.05 20.8 45.25 Q19.8 44.95 19.0 44.3 L18.5 43.85 Q17.05 45.45 14.7 46.2 L14.6 46.25 Q14.6 49.3 12.05 51.35 10.9 52.25 9.55 52.75 5.5 54.3 2.05 56.9 1.35 57.45 0.95 58.25 0.55 59.05 0.0 58.85 L-0.35 58.65 -0.45 58.55 -1.0 58.15 -1.45 58.0 -2.35 57.75 Q-4.3 57.1 -5.4 55.45 L-6.55 53.8 Q-9.3 50.2 -8.8 45.7 -8.6 44.0 -8.55 42.3 L-8.5 41.8 -12.75 36.95 -17.85 37.55 -18.8 37.45 -19.55 37.25 Q-21.0 38.3 -22.9 38.9 L-26.5 40.15 Q-29.3 41.3 -32.3 40.9 L-34.45 40.6 -35.25 40.5 -36.0 40.4 Q-40.45 39.7 -44.75 41.1 L-44.9 41.15 M-45.1 41.2 L-47.25 41.75 -47.5 41.8 -48.1 41.7 -47.9 41.3 -47.25 39.8 Q-44.35 33.8 -39.65 29.0 -37.85 27.25 -35.85 25.7 L-31.55 23.1 -29.6 22.45 -29.5 22.25 -27.35 19.75 -26.45 19.1 -23.2 17.15 -22.2 16.5 Q-18.2 14.65 -15.25 11.35 L-14.4 10.5 Q-13.65 9.85 -13.4 9.1 -12.4 6.25 -11.8 3.35 -11.25 0.8 -10.35 -1.65 L-9.65 -3.45 -7.05 -9.75 -6.75 -10.35 -5.95 -12.3 -6.05 -12.7 -6.8 -16.25 Q-7.1 -18.7 -5.4 -20.55 L-3.95 -21.7 -3.9 -21.7 -4.05 -23.25 -5.2 -27.6 -5.55 -28.6 -6.0 -30.0 Q-6.35 -31.4 -7.55 -32.2 L-11.85 -34.65 M-12.3 -34.9 L-12.55 -35.0 -12.95 -35.2 -15.45 -35.75 M-10.1 -53.2 L-11.5 -52.9 M17.65 -50.1 L18.65 -50.2 Q19.85 -49.95 20.85 -49.0 22.15 -47.85 22.95 -46.2 L23.45 -45.0 23.6 -43.9 23.6 -42.8 21.7 -43.15 M25.15 -54.1 L28.7 -51.15 29.95 -49.95 31.1 -48.85 Q33.15 -47.05 35.0 -42.9 M30.45 -19.95 Q30.5 -21.65 29.9 -23.35 L29.35 -24.6 28.55 -25.75 Q27.35 -27.3 25.45 -27.6 L23.8 -27.75 23.3 -27.7 Q21.95 -27.55 22.1 -26.05 M30.45 -19.95 Q30.45 -18.0 29.6 -16.1 29.25 -15.25 28.4 -14.85 L27.2 -14.65 Q25.5 -14.85 24.85 -16.3 M33.05 -35.5 L33.25 -34.9 33.3 -34.3 M34.5 -33.7 L34.5 -33.4 M10.15 -24.4 Q9.5 -23.8 10.05 -22.1 10.45 -20.9 9.75 -20.65 M11.25 -16.9 Q11.1 -15.95 10.5 -15.4 M36.25 -9.0 L36.1 -7.75 Q35.75 -5.15 35.85 -2.5 L36.05 1.85 36.1 2.5 M27.85 35.9 Q24.25 38.75 25.8 45.05 M37.25 40.25 Q37.85 41.3 38.95 41.5 40.0 41.7 41.0 42.3 L43.35 44.25 44.8 46.3 45.35 47.2 M27.55 7.55 Q27.9 7.25 28.15 7.25 28.9 7.4 29.35 8.05 30.05 8.95 30.3 10.0 L30.65 12.6 30.75 13.95 30.75 14.65 Q30.75 15.7 30.4 16.55 L29.6 17.7 28.75 18.4 27.85 18.55 Q26.7 18.4 26.2 17.45 M-1.35 9.8 L-1.65 9.45 -1.85 9.0 Q-2.35 7.95 -2.3 6.85 L-2.3 6.65 -2.1 5.25 -1.5 3.7 -0.15 1.5 Q1.0 -0.15 2.3 0.55 M-1.15 9.95 L-0.7 10.0 Q0.15 10.0 0.85 9.5 L1.3 8.95 M7.15 22.35 Q9.3 23.05 11.45 24.15 L12.9 24.95 M4.2 14.65 L6.85 14.5 7.55 14.65 M5.3 17.25 L8.3 17.4 9.45 17.65 M10.7 34.75 L10.75 34.85 11.0 35.05 11.8 36.0 M6.65 38.7 L5.8 39.35 Q4.4 40.85 3.55 42.7 3.1 43.75 2.8 44.9 M-1.9 54.75 Q-1.4 56.7 -0.4 58.55 L-0.35 58.65 M13.5 39.0 L13.8 40.15 14.5 45.3 14.6 46.25 M13.25 38.3 L13.0 37.85 12.35 36.75 M13.5 39.0 L13.3 38.45 13.25 38.3 M-3.05 31.9 Q-1.75 31.15 -0.05 30.9 4.85 29.5 9.1 33.25 L10.7 34.75 M-0.95 23.5 Q4.45 23.35 9.75 24.75 13.25 25.7 16.4 27.55 M37.9 29.65 L36.95 28.5 M20.65 35.65 L19.8 33.2 M20.65 35.65 L20.7 35.9 Q21.0 37.1 20.9 38.25 L20.5 40.25 Q19.85 42.4 18.5 43.85 M29.45 39.35 L30.55 39.75 32.05 40.5 M39.75 38.0 L32.9 33.85 Q29.65 34.4 27.85 35.9 M-2.65 -43.15 L-1.9 -41.65 -1.55 -40.9 M-5.95 -12.3 L-5.55 -13.45 -5.0 -15.1 -4.75 -16.5 -4.3 -18.9 Q-3.9 -20.3 -3.9 -21.7 M-1.35 9.8 L-1.15 9.95 M-3.05 31.9 Q-4.0 32.45 -4.75 33.25 L-4.8 33.3 -6.0 34.75 Q-8.25 37.85 -8.5 41.8 M-29.45 22.4 L-27.25 21.95 Q-25.95 21.85 -24.7 22.4 L-22.55 23.15 Q-21.25 23.45 -20.2 24.1 -18.55 25.05 -17.5 26.9 M-17.35 27.15 L-16.95 28.1 -16.9 28.2 -16.45 29.8 -16.2 31.3 Q-16.0 32.75 -16.7 33.95 -17.8 35.95 -19.55 37.25 M-29.6 22.45 L-29.45 22.4 M-39.4 37.1 L-38.85 36.9 M-20.2 24.1 Q-25.6 25.9 -30.55 28.95 L-34.5 31.75 M-44.9 39.75 Q-43.25 38.55 -41.25 37.85 L-39.4 37.1 M-12.75 36.95 L-13.1 36.55 -13.6 35.55 -13.55 34.6 Q-12.4 30.0 -8.8 26.85 M-1.9 54.75 Q-2.7 51.75 -2.45 48.4 -2.4 47.4 -2.5 46.35 -2.8 43.9 -1.25 42.0 M-44.9 39.75 L-47.25 41.75" fill="none" stroke="#660000" stroke-linecap="round" stroke-linejoin="round" stroke-opacity="0.4" stroke-width="1"/>
    <path d="M24.5 -49.65 Q24.4 -49.45 24.1 -49.45 L23.35 -49.9 22.55 -50.35 Q21.6 -50.35 19.75 -51.95 18.0 -53.45 18.0 -53.85 18.0 -56.35 20.75 -53.95 L24.6 -50.0 24.5 -49.65 M26.45 -45.45 Q25.55 -45.45 25.25 -45.95 25.1 -46.15 25.1 -46.5 25.1 -47.5 26.25 -47.6 27.35 -47.7 27.35 -46.6 27.35 -45.45 26.45 -45.45 M26.2 -26.3 Q26.2 -25.55 24.9 -25.55 23.7 -25.55 23.7 -26.3 23.7 -27.1 24.95 -27.05 26.2 -27.05 26.2 -26.3 M18.3 -49.15 Q18.3 -50.1 19.6 -49.8 20.85 -49.55 20.85 -48.8 20.85 -47.95 19.85 -47.95 18.3 -47.95 18.3 -49.15 M11.3 -26.6 Q12.4 -26.9 12.4 -24.9 12.4 -24.1 11.45 -24.1 10.45 -24.1 10.2 -24.75 L10.15 -25.55 Q10.15 -26.3 11.3 -26.6 M6.9 -20.15 Q6.9 -19.45 5.7 -18.75 L3.55 -17.35 4.6 -19.3 Q5.4 -20.5 6.7 -20.75 L6.9 -20.15 M1.8 2.2 L1.05 2.6 0.65 2.55 0.45 2.35 0.35 1.85 Q0.35 1.05 1.2 0.9 2.0 0.75 2.0 1.7 L1.8 2.2 M4.75 20.2 L-2.65 19.75 -2.8 19.0 Q-2.8 17.45 1.75 18.6 L6.3 19.75 5.95 19.95 4.75 20.2 M-1.25 -44.55 Q-2.25 -44.55 -2.7 -46.1 -2.7 -47.0 -1.45 -46.6 -0.25 -46.25 -0.25 -45.4 -0.25 -44.55 -1.25 -44.55 M-18.8 19.6 Q-20.0 19.6 -20.4 18.65 L-20.55 17.85 Q-20.55 16.6 -18.9 16.85 -17.3 17.15 -17.3 18.25 -17.3 18.75 -17.65 19.15 -18.1 19.6 -18.8 19.6 M-14.85 17.4 Q-14.85 15.55 -12.15 15.9 -9.45 16.3 -9.45 17.55 -9.45 18.2 -10.05 18.75 -10.75 19.4 -12.0 19.4 -14.85 19.4 -14.85 17.4" fill="#feb74e" fill-rule="evenodd" stroke="none"/>
  </g>
  <defs>
    <radialGradient cx="0" cy="0" gradientTransform="matrix(0.0485, 0.0, 0.0, 0.0485, 19.6, -51.15)" gradientUnits="userSpaceOnUse" id="gradient0" r="819.2" spreadMethod="pad">
      <stop offset="0.0" stop-color="#ff841e"></stop>
      <stop offset="1.0" stop-color="#de5c07"></stop>
    </radialGradient>
    <radialGradient cx="0" cy="0" gradientTransform="matrix(0.0585, 0.0, 0.0, 0.0292, -12.8, 18.7)" gradientUnits="userSpaceOnUse" id="gradient1" r="819.2" spreadMethod="pad">
      <stop offset="0.0" stop-color="#ff841e"></stop>
      <stop offset="1.0" stop-color="#de5c07"></stop>
    </radialGradient>
  </defs>
</svg>