<?xml version="1.0" encoding="UTF-8" standalone="no"?>
<svg xmlns:xlink="http://www.w3.org/1999/xlink" height="29.75px" width="71.55px" xmlns="http://www.w3.org/2000/svg">
  <g transform="matrix(1.0, 0.0, 0.0, 1.0, 62, 13.8)">
    <path d="M4.1 -4.0 Q9.75 -0.6 8.25 1.35 6.55 3.45 5.95 4.8 L4.65 6.8 4.55 6.85 4.35 6.95 4.25 6.95 2.65 7.65 2.35 7.75 -0.35 8.75 -3.8 10.25 -6.6 11.1 -9.95 12.15 -11.7 12.35 -15.3 12.85 -18.85 13.25 -22.3 13.4 -26.05 13.5 -29.7 13.6 -32.6 13.75 -33.95 13.45 -33.8 13.3 -33.8 13.05 -33.85 12.85 -34.0 12.6 -34.75 12.4 -36.0 12.55 -37.35 12.5 -38.85 12.1 -40.5 11.95 -41.4 11.85 -45.5 11.15 -47.4 10.8 -48.85 10.4 -49.3 10.3 -49.45 10.15 -49.35 9.9 -49.2 9.75 -49.05 9.65 -53.0 7.05 -55.75 5.4 -58.55 3.35 -57.0 1.6 -54.55 -0.65 -52.65 -2.35 -52.0 -2.9 -52.0 -3.0 -52.2 -3.15 -52.65 -3.5 -51.8 -3.9 -49.65 -4.9 -45.7 -6.4 -45.2 -6.55 -44.75 -6.65 -41.45 -7.85 Q-40.8 -8.1 -40.25 -8.5 L-40.1 -8.65 -40.25 -8.85 -40.5 -9.05 -41.1 -9.1 -41.55 -9.3 -41.1 -9.4 -40.2 -9.5 -38.2 -9.75 -33.15 -10.2 -32.2 -10.3 -23.95 -9.75 -18.7 -8.5 -17.15 -8.05 -16.7 -8.0 -16.25 -8.05 -16.35 -8.5 -16.75 -9.2 -18.8 -11.15 -13.75 -9.3 -12.9 -9.1 -10.1 -7.9 -9.3 -7.55 -7.45 -7.0 -4.9 -6.2 -4.15 -6.1 -2.5 -5.55 -1.75 -5.3 0.1 -4.7 Q2.6 -3.8 5.2 -3.3 L4.1 -4.0" fill="url(#gradient0)" fill-rule="evenodd" stroke="none"/>
    <path d="M-28.85 14.7 L-29.5 14.7 -29.7 14.65 -28.85 14.7" fill="#ea6b0f" fill-rule="evenodd" stroke="none"/>
    <path d="M-13.3 14.5 L-14.0 14.6 -13.85 14.5 -13.4 14.25" fill="none" stroke="#660000" stroke-linecap="round" stroke-linejoin="round" stroke-opacity="0.4" stroke-width="1"/>
    <path d="M2.65 -4.85 L5.2 -3.3 Q2.6 -3.8 0.1 -4.7 L-1.75 -5.3 -2.5 -5.55 -4.15 -6.1 -4.9 -6.2 -7.45 -7.0 -9.3 -7.55 -10.1 -7.9 -12.9 -9.1 -13.75 -9.3 -18.8 -11.15 -16.75 -9.2 -16.35 -8.5 -16.25 -8.05 -16.7 -8.0 -17.15 -8.05 -18.7 -8.5 -23.95 -9.75 -32.2 -10.3 -33.15 -10.2 -38.2 -9.75 -40.2 -9.5 -41.1 -9.4 -41.55 -9.3 -41.1 -9.1 -40.5 -9.05 -40.25 -8.85 -40.1 -8.65 -40.25 -8.5 Q-40.8 -8.1 -41.45 -7.85 L-44.75 -6.65 -45.2 -6.55 -45.7 -6.4 -49.65 -4.9 -51.8 -3.9 -52.65 -3.5 -52.2 -3.15 -52.0 -3.0 -52.0 -2.9 -52.65 -2.35 -54.55 -0.65 -57.0 1.6 -58.55 3.35 -55.75 5.4 -53.0 7.05 -49.05 9.65 -49.2 9.75 -49.35 9.9 -49.45 10.15 -49.3 10.3 -48.85 10.4 -47.4 10.8 -45.5 11.15 -41.4 11.85 -40.5 11.95 -38.85 12.1 -37.35 12.5 -36.0 12.55 -34.75 12.4 -34.0 12.6 -33.85 12.85 -33.8 13.05 -33.8 13.3 -33.95 13.45 -32.6 13.75 -29.7 13.6 -26.05 13.5 -22.3 13.4 -18.85 13.25 -15.3 12.85 -11.7 12.35 -9.95 12.15 -6.6 11.1 -3.8 10.25 -0.35 8.75 2.35 7.75 2.65 7.65 4.25 6.95 4.35 6.95 4.55 6.85 4.65 6.8 4.35 7.1 3.75 7.6 3.7 7.6 Q2.2 8.75 0.5 9.6 L-2.9 11.25 -6.25 12.5 Q-8.05 13.2 -9.85 14.0 -11.55 14.6 -13.3 14.5 L-13.4 14.25 -12.9 14.1 -12.05 13.9 -11.4 13.6 -10.8 13.3 Q-12.35 13.95 -14.15 14.05 L-17.05 14.6 -19.5 14.95 -22.0 14.95 -25.4 14.9 -28.85 14.7 -29.7 14.65 -30.3 14.65 -30.7 14.6 -34.4 14.5 -36.55 14.15 -36.75 13.95 -35.1 13.45 -37.65 13.25 -41.85 13.1 Q-47.05 12.5 -51.9 10.65 L-53.55 9.95 -54.0 9.7 -52.5 9.3 -54.75 8.2 -57.8 6.55 Q-59.6 5.5 -61.0 4.15 -60.85 3.4 -60.1 2.85 L-58.75 1.4 Q-56.5 -1.3 -54.05 -3.6 L-54.6 -3.9 Q-53.55 -4.1 -52.7 -4.9 L-50.75 -6.35 -44.3 -9.55 -44.65 -9.75 Q-43.6 -10.55 -41.95 -10.7 L-38.7 -11.3 -26.8 -12.1 -22.25 -11.45 -20.3 -10.95 -23.75 -12.8 -19.9 -12.15 -15.45 -11.15 -9.3 -9.3 2.65 -4.85" fill="#ea6b0f" fill-rule="evenodd" stroke="none"/>
    <path d="M2.65 -4.85 L-9.3 -9.3 -15.45 -11.15 -19.9 -12.15 -23.75 -12.8 -20.3 -10.95 -22.25 -11.45 -26.8 -12.1 -38.7 -11.3 -41.95 -10.7 Q-43.6 -10.55 -44.65 -9.75 L-44.3 -9.55 -50.75 -6.35 -52.7 -4.9 Q-53.55 -4.1 -54.6 -3.9 L-54.05 -3.6 Q-56.5 -1.3 -58.75 1.4 L-60.1 2.85 Q-60.85 3.4 -61.0 4.15 -59.6 5.5 -57.8 6.55 L-54.75 8.2 -52.5 9.3 -54.0 9.7 -53.55 9.95 -51.9 10.65 Q-47.05 12.5 -41.85 13.1 L-37.65 13.25 -35.1 13.45 -36.75 13.95 -36.55 14.15 -34.4 14.5 -30.7 14.6 -30.3 14.65 -29.7 14.65 -28.85 14.7 -25.4 14.9 -22.0 14.95 -19.5 14.95 -17.05 14.6 -14.15 14.05 Q-12.35 13.95 -10.8 13.3 L-11.4 13.6 -12.05 13.9 -12.9 14.1 -13.4 14.25 M-13.3 14.5 Q-11.55 14.6 -9.85 14.0 -8.05 13.2 -6.25 12.5 L-2.9 11.25 0.5 9.6 Q2.2 8.75 3.7 7.6" fill="none" stroke="#660000" stroke-linecap="round" stroke-linejoin="round" stroke-opacity="0.4" stroke-width="1"/>
  </g>
  <defs>
    <radialGradient cx="0" cy="0" fx="809.6" fy="0" gradientTransform="matrix(0.0428, 0.0, 0.0, 0.0428, -25.45, 1.6)" gradientUnits="userSpaceOnUse" id="gradient0" r="819.2" spreadMethod="pad">
      <stop offset="0.054901960784313725" stop-color="#ffcc00"></stop>
      <stop offset="0.4549019607843137" stop-color="#ff0000"></stop>
      <stop offset="1.0" stop-color="#5c0101"></stop>
    </radialGradient>
  </defs>
</svg>