<?xml version="1.0" encoding="UTF-8" standalone="no"?>
<svg xmlns:xlink="http://www.w3.org/1999/xlink" height="92.3px" width="88.4px" xmlns="http://www.w3.org/2000/svg">
  <g transform="matrix(1.0, 0.0, 0.0, 1.0, 43.8, 46.15)">
    <path d="M21.35 33.6 Q23.3 35.3 24.65 37.55 L24.5 37.45 23.3 36.9 21.2 36.45 19.5 36.3 Q20.25 35.0 21.3 33.65 L21.35 33.6 M-6.15 38.8 L-7.15 40.3 Q-7.5 40.7 -9.6 41.4 L-13.5 42.05 Q-15.3 42.05 -19.15 43.35 -23.05 44.6 -26.85 44.95 L-31.3 45.1 -32.15 44.8 Q-29.8 41.5 -27.9 39.35 L-26.35 37.45 -26.3 37.45 -25.45 36.3 -24.5 34.85 -23.25 33.4 -22.05 32.0 -21.65 31.65 Q-20.4 30.65 -18.2 30.75 L-15.3 31.2 -15.15 31.2 -13.45 31.75 Q-16.3 32.95 -21.35 37.0 L-26.3 40.1 Q-31.1 43.25 -31.1 43.95 -31.15 44.6 -30.1 44.6 -28.35 44.6 -22.2 42.6 L-15.8 40.5 Q-10.3 39.7 -7.95 38.6 -6.0 37.6 -5.7 36.15 L-5.65 36.25 -5.65 37.0 -6.15 38.8 M-36.65 36.35 L-39.55 36.0 -39.15 36.1 -37.15 36.0 -37.05 36.35 -36.65 36.35 M-41.95 35.3 L-42.5 35.05 -42.7 34.75 -42.25 34.45 Q-40.2 33.55 -38.3 32.3 -34.55 29.85 -29.9 28.8 L-29.9 28.85 -29.15 33.05 -29.2 33.0 Q-30.0 32.65 -33.8 34.0 L-38.9 34.75 -41.95 35.3" fill="#666666" fill-rule="evenodd" stroke="none"/>
    <path d="M-1.2 -10.1 L-1.1 -10.6 -0.7 -13.05 -0.45 -14.2 0.85 -18.9 Q1.5 -22.05 3.35 -25.0 L5.95 -29.05 9.45 -34.4 10.6 -35.9 Q15.7 -42.05 22.95 -44.5 25.3 -45.3 28.0 -45.15 L29.95 -44.9 Q32.35 -44.45 34.45 -43.25 L32.55 -42.7 Q26.9 -40.9 24.6 -38.1 21.5 -34.25 16.65 -28.95 13.25 -25.25 11.4 -19.65 L8.45 -10.95 Q6.7 -7.3 2.6 -1.6 -2.0 4.75 -3.3 7.05 L-4.0 9.25 -4.3 10.85 -5.05 10.65 -5.75 10.8 Q-6.65 11.35 -7.8 12.65 L-8.2 13.3 -9.05 16.0 -8.2 13.3 -7.8 12.65 Q-6.65 11.35 -5.75 10.8 L-5.05 10.65 -4.3 10.85 -4.5 11.4 Q-4.8 12.25 -5.75 13.15 L-8.55 15.45 -9.05 16.0 -9.7 17.3 -9.8 17.6 -9.85 17.85 -10.05 20.0 Q-10.15 21.4 -12.25 22.0 -14.25 22.6 -14.25 23.85 -14.25 24.35 -13.7 25.05 L-16.5 25.05 Q-20.45 25.25 -22.8 27.85 L-23.3 25.7 Q-23.65 24.1 -23.3 22.65 -23.65 24.1 -23.3 25.7 L-22.8 27.85 Q-20.45 25.25 -16.5 25.05 L-13.7 25.05 -12.8 26.15 -11.4 27.85 Q-11.4 29.8 -15.15 31.1 L-15.3 31.2 -18.2 30.75 Q-20.4 30.65 -21.65 31.65 L-22.05 32.0 -23.25 33.4 Q-23.2 32.95 -23.3 32.55 -23.7 30.65 -23.2 28.65 L-23.15 28.5 -23.25 28.5 Q-25.35 29.25 -29.15 33.1 L-29.15 33.05 -29.9 28.85 -29.9 28.8 Q-30.3 25.75 -27.6 24.4 -26.7 24.0 -26.1 23.35 -25.1 22.3 -23.3 22.65 -23.1 21.7 -22.55 20.8 L-21.45 19.75 Q-14.8 16.3 -10.8 9.4 L-8.2 4.9 -7.05 3.0 -5.2 -0.45 -4.45 -2.15 -2.85 -5.65 -2.05 -7.7 -1.65 -8.75 -1.2 -10.1 -1.65 -8.75 -2.05 -7.7 -2.85 -5.65 -4.45 -2.15 -5.2 -0.45 Q-6.15 -2.9 -5.95 -4.45 L-5.55 -6.9 Q-5.3 -8.7 -4.55 -9.5 -3.85 -10.3 -2.65 -10.2 L-1.2 -10.1 M36.2 -42.1 L36.25 -42.1 36.8 -41.65 36.2 -42.1 M38.45 -40.2 L39.3 -39.55 38.45 -40.2 M-9.35 26.15 L-8.8 26.35 -9.0 26.6 -9.35 26.15 M-22.8 27.85 L-22.85 27.9 -23.15 28.5 -22.85 27.9 -22.8 27.85" fill="#de5c07" fill-rule="evenodd" stroke="none"/>
    <path d="M-9.85 17.85 L-9.8 17.6 -9.7 17.3 -9.05 16.0 -9.6 17.35 -9.7 18.0 -9.85 17.85 M-23.15 28.5 L-23.2 28.65 -23.25 28.5 -23.15 28.5 M-15.3 31.2 L-15.15 31.1 -15.15 31.2 -15.3 31.2" fill="#bd4f06" fill-rule="evenodd" stroke="none"/>
    <path d="M-13.7 25.05 Q-14.25 24.35 -14.25 23.85 -14.25 22.6 -12.25 22.0 -10.15 21.4 -10.05 20.0 L-9.85 17.85 -9.7 18.0 -9.6 17.35 -9.05 16.0 -8.55 15.45 -5.75 13.15 Q-4.8 12.25 -4.5 11.4 L-4.3 10.85 -4.0 9.25 -3.3 7.05 Q-2.0 4.75 2.6 -1.6 6.7 -7.3 8.45 -10.95 L11.4 -19.65 Q13.25 -25.25 16.65 -28.95 21.5 -34.25 24.6 -38.1 26.9 -40.9 32.55 -42.7 L34.45 -43.25 36.2 -42.1 36.8 -41.65 38.45 -40.2 39.3 -39.55 39.35 -39.5 41.55 -38.1 43.0 -37.55 Q43.6 -33.7 43.6 -31.25 43.6 -25.2 39.35 -20.1 36.55 -16.8 33.5 -15.65 L20.1 20.9 19.8 22.1 19.55 24.9 Q19.45 26.3 18.9 27.45 L18.3 28.35 17.95 28.95 19.05 29.8 20.05 30.85 20.55 31.45 Q22.25 32.35 21.35 33.6 L21.3 33.65 Q20.25 35.0 19.5 36.3 L18.25 38.6 16.75 38.05 Q14.7 37.45 14.3 36.85 13.6 35.8 11.6 35.4 9.95 35.05 9.95 34.2 9.95 33.55 10.25 32.3 L10.55 30.55 Q10.55 28.7 9.9 27.2 9.2 25.7 9.2 24.05 9.2 22.1 10.25 19.8 L11.25 17.4 Q11.25 14.95 8.6 17.25 5.9 19.55 5.3 22.3 4.9 24.1 3.7 26.2 1.9 29.45 0.55 29.45 -0.85 29.45 -3.4 28.45 L-4.15 28.15 -4.15 28.25 -4.0 28.65 Q-5.1 27.8 -5.9 27.5 L-8.8 26.35 -5.9 27.5 Q-5.1 27.8 -4.0 28.65 L-3.65 29.55 Q-3.15 30.65 -3.15 31.6 L-3.45 32.7 Q-4.0 33.75 -5.15 33.75 L-8.1 34.65 Q-7.35 33.15 -7.8 33.85 L-8.1 34.65 -9.0 34.1 -10.3 33.3 -11.15 32.8 -11.4 32.65 Q-11.95 32.35 -12.45 32.15 L-12.95 31.95 Q-13.2 31.8 -13.4 31.75 L-13.45 31.75 -15.15 31.2 -15.15 31.1 Q-11.4 29.8 -11.4 27.85 L-12.8 26.15 -13.7 25.05 Q-11.5 25.25 -9.8 25.95 L-9.35 26.15 -9.8 25.95 Q-11.5 25.25 -13.7 25.05 M16.45 9.25 Q17.85 10.15 19.25 8.5 L19.75 7.85 Q21.4 5.8 21.05 3.1 21.0 2.4 20.5 1.95 19.35 0.95 19.7 0.95 19.35 0.95 20.5 1.95 21.0 2.4 21.05 3.1 21.4 5.8 19.75 7.85 L19.25 8.5 Q17.85 10.15 16.45 9.25 M33.7 -16.3 L33.5 -15.65 33.7 -16.3 M38.25 -23.15 L37.8 -23.9 Q35.45 -27.85 34.2 -32.3 L33.1 -34.95 Q32.85 -35.45 32.2 -35.55 L30.65 -35.85 32.2 -35.55 Q32.85 -35.45 33.1 -34.95 L34.2 -32.3 Q35.45 -27.85 37.8 -23.9 L38.25 -23.15 M8.2 20.15 L8.1 20.05 8.2 20.0 8.2 20.15 M14.5 32.8 Q17.0 31.55 17.95 28.95 17.0 31.55 14.5 32.8 M17.5 40.15 L17.4 40.3 17.45 40.15 17.5 40.15 M-4.3 10.85 Q-3.35 11.1 -2.45 11.5 -3.35 11.1 -4.3 10.85 M-7.9 20.2 Q-9.85 20.0 -9.7 18.0 -9.85 20.0 -7.9 20.2 M-23.25 28.5 L-23.2 28.65 Q-23.7 30.65 -23.3 32.55 -23.2 32.95 -23.25 33.4 L-24.5 34.85 -25.45 36.3 -26.3 37.45 Q-28.75 35.05 -29.05 33.55 L-29.15 33.1 Q-25.35 29.25 -23.25 28.5 M-8.8 26.35 L-9.35 26.15 -9.0 26.6 -8.8 26.35 M-2.5 33.95 L-2.55 33.95 -2.5 33.85 -2.5 33.95" fill="#ac4806" fill-rule="evenodd" stroke="none"/>
    <path d="M17.4 40.3 L17.0 40.85 13.35 39.7 Q11.4 39.0 9.45 38.75 L8.25 38.65 8.2 38.65 6.25 38.65 -0.35 39.5 Q-3.35 40.15 -6.15 38.8 L-5.65 37.0 -5.65 36.25 -5.7 36.15 -5.9 35.85 -6.05 35.8 -6.1 35.75 -6.2 35.7 -6.7 35.5 Q-7.2 35.25 -7.65 34.95 L-8.1 34.65 -7.8 33.85 Q-7.35 33.15 -8.1 34.65 L-5.15 33.75 Q-4.0 33.75 -3.45 32.7 L-3.15 31.6 Q-3.15 30.65 -3.65 29.55 L-4.0 28.65 -4.15 28.25 -4.15 28.15 -3.4 28.45 Q-0.85 29.45 0.55 29.45 1.9 29.45 3.7 26.2 4.9 24.1 5.3 22.3 5.9 19.55 8.6 17.25 11.25 14.95 11.25 17.4 L10.25 19.8 Q9.2 22.1 9.2 24.05 9.2 25.7 9.9 27.2 10.55 28.7 10.55 30.55 L10.25 32.3 Q9.95 33.55 9.95 34.2 9.95 35.05 11.6 35.4 13.6 35.8 14.3 36.85 14.7 37.45 16.75 38.05 L18.25 38.6 17.5 40.15 17.45 40.15 17.4 40.3 M8.2 20.15 L8.2 20.0 8.1 20.05 8.2 20.15 M3.05 37.35 Q3.95 37.85 5.75 38.1 L8.2 38.65 5.75 38.1 Q3.95 37.85 3.05 37.35 M-2.9 29.6 L-4.0 28.65 -2.9 29.6 M-2.5 33.95 L-2.5 33.85 -2.55 33.95 -2.5 33.95" fill="#923f07" fill-rule="evenodd" stroke="none"/>
    <path d="M24.65 37.55 L24.8 37.8 25.65 39.5 25.65 39.55 24.85 39.75 17.4 40.3 17.5 40.15 18.25 38.6 19.5 36.3 21.2 36.45 23.3 36.9 24.5 37.45 24.65 37.55 M-26.35 37.45 L-33.1 36.8 -36.55 36.35 -36.65 36.35 -37.05 36.35 -37.15 36.0 -39.15 36.1 -39.55 36.0 -41.35 35.5 -42.0 35.3 -41.95 35.3 -38.9 34.75 -33.8 34.0 Q-30.0 32.65 -29.2 33.0 L-29.15 33.05 -29.15 33.1 -29.05 33.55 Q-28.75 35.05 -26.3 37.45 L-26.35 37.45 M-41.35 35.5 L-41.95 35.3 -41.35 35.5 M-5.7 36.15 Q-6.0 37.6 -7.95 38.6 -10.3 39.7 -15.8 40.5 L-22.2 42.6 Q-28.35 44.6 -30.1 44.6 -31.15 44.6 -31.1 43.95 -31.1 43.25 -26.3 40.1 L-21.35 37.0 Q-16.3 32.95 -13.45 31.75 L-13.4 31.75 Q-13.2 31.8 -12.95 31.95 L-12.45 32.15 Q-11.95 32.35 -11.4 32.65 L-11.15 32.8 -10.3 33.3 -9.0 34.1 -8.1 34.65 -7.65 34.95 Q-7.2 35.25 -6.7 35.5 L-6.2 35.7 -6.1 35.75 -6.05 35.8 -5.9 35.85 -5.7 36.15" fill="#484848" fill-rule="evenodd" stroke="none"/>
    <path d="M34.45 -43.25 Q32.35 -44.45 29.95 -44.9 L28.0 -45.15 Q25.3 -45.3 22.95 -44.5 15.7 -42.05 10.6 -35.9 L9.45 -34.4 5.95 -29.05 3.35 -25.0 Q1.5 -22.05 0.85 -18.9 L-0.45 -14.2 -0.7 -13.05 -1.1 -10.6 -1.2 -10.1 -1.65 -8.75 -2.05 -7.7 -2.85 -5.65 -4.45 -2.15 -5.2 -0.45 -7.05 3.0 -8.2 4.9 -10.8 9.4 Q-14.8 16.3 -21.45 19.75 L-22.55 20.8 Q-23.1 21.7 -23.3 22.65 -23.65 24.1 -23.3 25.7 L-22.8 27.85 Q-20.45 25.25 -16.5 25.05 L-13.7 25.05 Q-11.5 25.25 -9.8 25.95 L-9.35 26.15 -8.8 26.35 -5.9 27.5 Q-5.1 27.8 -4.0 28.65 L-2.9 29.6 M-9.05 16.0 L-8.2 13.3 -7.8 12.65 Q-6.65 11.35 -5.75 10.8 L-5.05 10.65 -4.3 10.85 Q-3.35 11.1 -2.45 11.5 M34.45 -43.25 L36.2 -42.1 36.8 -41.65 38.45 -40.2 39.3 -39.55 39.35 -39.5 41.55 -38.1 43.0 -37.55 M33.5 -15.65 L20.1 20.9 19.8 22.1 19.55 24.9 Q19.45 26.3 18.9 27.45 L18.3 28.35 17.95 28.95 19.05 29.8 20.05 30.85 20.55 31.45 Q22.25 32.35 21.35 33.6 23.3 35.3 24.65 37.55 M24.8 37.8 L25.65 39.5 25.65 39.55 24.85 39.75 17.4 40.3 17.0 40.85 13.35 39.7 Q11.4 39.0 9.45 38.75 L8.25 38.65 8.2 38.65 6.25 38.65 -0.35 39.5 Q-3.35 40.15 -6.15 38.8 L-7.15 40.3 Q-7.5 40.7 -9.6 41.4 L-13.5 42.05 Q-15.3 42.05 -19.15 43.35 -23.05 44.6 -26.85 44.95 L-31.3 45.1 -32.15 44.8 Q-29.8 41.5 -27.9 39.35 L-26.35 37.45 -33.1 36.8 -36.55 36.35 -36.65 36.35 -39.55 36.0 -41.35 35.5 -41.95 35.3 -42.5 35.05 -42.8 34.85 -42.7 34.75 -42.25 34.45 Q-40.2 33.55 -38.3 32.3 -34.55 29.85 -29.9 28.8 -30.3 25.75 -27.6 24.4 -26.7 24.0 -26.1 23.35 -25.1 22.3 -23.3 22.65 M-1.2 -10.1 L-2.65 -10.2 Q-3.85 -10.3 -4.55 -9.5 -5.3 -8.7 -5.55 -6.9 L-5.95 -4.45 Q-6.15 -2.9 -5.2 -0.45 M30.65 -35.85 L32.2 -35.55 Q32.85 -35.45 33.1 -34.95 L34.2 -32.3 Q35.45 -27.85 37.8 -23.9 L38.25 -23.15 M33.5 -15.65 L33.7 -16.3 M19.7 0.95 Q19.35 0.95 20.5 1.95 21.0 2.4 21.05 3.1 21.4 5.8 19.75 7.85 L19.25 8.5 Q17.85 10.15 16.45 9.25 M18.25 38.6 L19.5 36.3 Q20.25 35.0 21.3 33.65 L21.35 33.6 M17.95 28.95 Q17.0 31.55 14.5 32.8 M8.2 38.65 L5.75 38.1 Q3.95 37.85 3.05 37.35 M17.4 40.3 L17.5 40.15 18.25 38.6 M-9.05 16.0 L-9.6 17.35 -9.7 18.0 Q-9.85 20.0 -7.9 20.2 M-23.2 28.65 L-23.15 28.5 -22.85 27.9 -22.8 27.85 M-23.2 28.65 Q-23.7 30.65 -23.3 32.55 -23.2 32.95 -23.25 33.4 L-22.05 32.0 -21.65 31.65 Q-20.4 30.65 -18.2 30.75 L-15.3 31.2 M-29.9 28.85 L-29.9 28.8 M-26.3 37.45 Q-28.75 35.05 -29.05 33.55 L-29.15 33.1 M-26.3 37.45 L-25.45 36.3 -24.5 34.85 -23.25 33.4 M-29.9 28.85 L-29.15 33.05 M-26.3 37.45 L-26.35 37.45 M-5.9 35.85 L-6.05 35.8 -6.1 35.75 -6.2 35.7 -6.7 35.5 Q-7.2 35.25 -7.65 34.95 L-8.1 34.65 -9.0 34.1 -10.3 33.3 -11.15 32.8 -11.4 32.65 Q-11.95 32.35 -12.45 32.15 M-6.15 38.8 L-5.65 37.0 -5.65 36.25" fill="none" stroke="#660000" stroke-linecap="round" stroke-linejoin="round" stroke-opacity="0.4" stroke-width="1"/>
    <path d="M-0.05 -5.5 Q-0.05 -5.1 -3.0 0.65 L-7.3 9.05 Q-9.05 12.5 -12.9 16.25 -16.9 20.2 -21.75 23.0 -20.9 21.0 -19.4 19.45 -17.55 17.5 -14.15 15.5 -12.35 14.45 -11.1 12.05 L-9.15 7.85 -4.9 0.15 -0.5 -6.75 Q-0.05 -6.05 -0.05 -5.5 M-25.8 26.5 Q-26.7 27.05 -27.3 27.05 -28.3 27.05 -28.3 26.1 -28.3 25.15 -26.55 24.55 -24.8 23.95 -24.8 25.2 -24.8 25.9 -25.8 26.5 M-20.85 28.25 Q-20.85 27.15 -18.35 26.75 -15.9 26.4 -15.9 27.65 -15.9 28.3 -16.95 28.65 L-19.5 29.0 -20.75 28.85 -20.85 28.25" fill="#feb74e" fill-rule="evenodd" stroke="none"/>
  </g>
</svg>