<?xml version="1.0" encoding="UTF-8" standalone="no"?>
<svg xmlns:xlink="http://www.w3.org/1999/xlink" height="6.1px" width="14.45px" xmlns="http://www.w3.org/2000/svg">
  <g transform="matrix(1.0, 0.0, 0.0, 1.0, 8.5, 7.05)">
    <path d="M1.25 -4.15 L2.5 -5.15 2.65 -5.25 2.45 -4.6 2.3 -4.15 M3.8 -5.25 Q4.2 -5.35 4.55 -5.6 L4.8 -5.75 4.95 -5.75 4.95 -5.6 M-7.5 -2.85 L-7.0 -3.5 -6.6 -4.1 -5.9 -4.6 Q-6.25 -3.65 -6.0 -2.65 M-2.9 -1.95 L-2.0 -3.15 -1.35 -3.7 -1.15 -3.9 -1.5 -2.25 M-2.45 -4.95 L-1.5 -6.05 -1.4 -6.05 -1.3 -5.85 -1.2 -5.4" fill="none" stroke="#a36a6a" stroke-linecap="round" stroke-linejoin="round" stroke-width="1"/>
  </g>
</svg>