<?xml version="1.0" encoding="UTF-8" standalone="no"?>
<svg xmlns:xlink="http://www.w3.org/1999/xlink" height="10.3px" width="19.35px" xmlns="http://www.w3.org/2000/svg">
  <g transform="matrix(1.0, 0.0, 0.0, 1.0, 10.5, 9.25)">
    <path d="M5.8 -6.3 L5.7 -6.2 5.7 -6.15 5.65 -6.1 Q4.95 -5.9 4.4 -6.45 L4.45 -6.45 4.35 -6.55 4.35 -6.6 4.4 -6.65 4.5 -6.7 4.9 -6.75 5.55 -6.7 5.8 -6.35 5.8 -6.3 M0.85 -6.9 Q0.25 -7.2 0.35 -7.5 0.4 -7.75 1.05 -7.9 1.65 -8.05 1.9 -7.5 L1.9 -7.45 1.9 -7.4 1.9 -7.35 1.75 -7.25 1.0 -6.9 0.85 -6.9 M4.6 -7.75 L4.1 -7.6 Q3.85 -7.6 3.75 -7.75 L3.65 -8.0 3.75 -8.25 3.75 -8.2 4.25 -8.15 4.6 -7.75 M5.0 -3.25 L5.2 -2.95 5.0 -2.65 4.65 -2.6 4.3 -2.65 Q4.05 -2.75 4.1 -2.95 4.05 -3.15 4.3 -3.25 L4.65 -3.3 5.0 -3.25 M2.6 -3.95 L2.6 -3.85 2.4 -3.65 2.0 -3.55 Q1.85 -3.6 1.8 -3.8 L1.8 -4.1 2.0 -4.3 2.55 -4.1 2.55 -4.05 2.6 -4.05 2.6 -3.95 M0.45 -5.65 L0.3 -5.5 -0.25 -5.5 -0.4 -5.65 -0.4 -5.85 -0.25 -6.0 0.3 -6.0 0.45 -5.85 0.45 -5.65 M7.85 -5.9 L7.85 -5.85 7.7 -5.55 7.65 -5.55 7.65 -5.5 7.6 -5.5 7.5 -5.5 7.3 -5.6 7.25 -5.6 7.25 -5.65 7.2 -5.7 7.2 -5.75 7.3 -5.8 7.75 -6.1 7.85 -5.9 M-5.0 -7.4 L-4.9 -7.4 -4.9 -7.35 -4.8 -7.25 -4.85 -7.1 -4.85 -7.05 -5.55 -5.45 -5.6 -5.45 -5.6 -5.4 -5.65 -5.4 -5.75 -5.4 -5.95 -5.65 Q-6.25 -6.95 -5.0 -7.4 M-2.1 -8.05 L-2.0 -8.1 -1.9 -8.1 -1.85 -8.1 -1.4 -7.55 Q-1.3 -7.25 -1.65 -7.05 L-1.8 -7.05 -2.25 -7.4 -2.2 -8.0 -2.15 -8.0 -2.1 -8.05 M-5.3 -4.7 L-5.25 -4.65 -5.2 -4.65 -5.2 -4.6 Q-5.0 -4.3 -5.2 -4.1 L-5.15 -4.1 Q-5.3 -3.95 -5.6 -3.95 -6.25 -3.75 -6.65 -4.2 L-6.7 -4.25 -6.7 -4.35 -6.45 -4.6 -6.4 -4.6 -5.35 -4.7 -5.3 -4.7 M-9.4 -3.9 L-8.7 -4.25 -8.6 -4.25 -8.55 -4.25 -8.35 -3.95 Q-8.3 -3.55 -8.6 -3.45 L-8.65 -3.45 -9.4 -3.6 -9.45 -3.6 -9.45 -3.65 -9.5 -3.7 -9.5 -3.8 -9.45 -3.85 -9.4 -3.9 M-7.65 -2.3 L-6.95 -2.4 Q-6.7 -2.5 -6.35 -2.0 L-6.35 -1.85 -6.55 -1.65 -7.45 -1.55 Q-7.8 -1.65 -7.8 -2.15 L-7.65 -2.3 M-1.8 -4.65 L-1.75 -4.6 -1.75 -4.5 -1.95 -4.3 -1.95 -4.25 -2.0 -4.2 Q-2.65 -3.8 -3.1 -4.35 L-3.1 -4.4 -3.15 -4.45 -3.15 -4.5 -2.95 -4.7 -1.8 -4.65 M-4.2 -0.6 L-4.0 -0.65 -3.55 -0.25 -3.55 -0.15 -3.6 -0.1 -3.6 -0.05 -3.95 0.05 -4.2 -0.15 -4.2 -0.25 -4.2 -0.45 -4.2 -0.55 -4.2 -0.6 M-1.5 -2.1 L-1.6 -1.8 -1.95 -1.7 -2.0 -1.7 -2.45 -2.0 -2.2 -2.55 -2.05 -2.55 Q-1.55 -2.3 -1.5 -2.1" fill="#6f4444" fill-rule="evenodd" stroke="none"/>
  </g>
</svg>