<?xml version="1.0" encoding="UTF-8" standalone="no"?>
<svg xmlns:xlink="http://www.w3.org/1999/xlink" height="13.7px" width="7.7px" xmlns="http://www.w3.org/2000/svg">
  <g transform="matrix(1.0, 0.0, 0.0, 1.0, 9, 8.95)">
    <path d="M-2.35 -6.75 L-2.85 -7.15 -3.2 -7.75 -3.15 -7.95 -2.65 -7.45 -2.3 -6.9 -2.35 -6.75 M-6.0 -1.95 L-5.1 -0.8 -5.45 -0.8 -5.95 -1.25 -6.2 -1.65 -6.1 -1.75 -6.0 -1.95 M-7.2 2.9 L-6.6 3.25 Q-6.1 3.45 -5.9 3.6 L-5.9 3.7 -6.25 3.75 Q-7.05 3.75 -7.55 3.1 L-7.9 2.25 -8.0 2.15 -7.9 2.1 -7.55 2.4 -7.2 2.9" fill="#ffffff" fill-rule="evenodd" stroke="none"/>
  </g>
</svg>