<?xml version="1.0" encoding="UTF-8" standalone="no"?>
<svg xmlns:xlink="http://www.w3.org/1999/xlink" height="14.2px" width="20.35px" xmlns="http://www.w3.org/2000/svg">
  <g id="shape0" transform="matrix(1.0, 0.0, 0.0, 1.0, 1, 1)">
    <path d="M13.2 0.25 Q14.6 0.5 16.0 1.15 L17.1 1.9 17.75 2.6 Q18.95 4.95 17.75 7.05 L17.75 7.25 17.25 7.85 13.6 9.9 Q9.1 12.2 7.0 12.2 L3.8 12.1 3.05 12.0 2.65 11.8 Q-0.35 10.75 0.05 7.2 0.95 8.5 3.5 8.5 8.2 8.5 11.5 5.8 14.1 3.7 14.1 2.15 14.1 1.05 13.2 0.25 M2.65 11.8 L3.8 12.1 2.65 11.8 M17.25 7.85 L17.75 7.05 17.25 7.85" fill="#d6baba" fill-rule="evenodd" stroke="none"/>
    <path d="M0.05 7.2 L0.1 6.65 Q0.4 4.5 1.7 3.15 2.85 1.95 4.8 1.4 L5.55 1.15 Q8.15 0.05 10.75 0.0 L13.2 0.25 Q14.1 1.05 14.1 2.15 14.1 3.7 11.5 5.8 8.2 8.5 3.5 8.5 0.95 8.5 0.05 7.2" fill="#faf8f8" fill-rule="evenodd" stroke="none"/>
    <path d="M13.2 0.25 Q14.6 0.5 16.0 1.15 L17.1 1.9 17.75 2.6 Q18.95 4.95 17.75 7.05 L17.25 7.85 M2.65 11.8 Q-0.35 10.75 0.05 7.2 L0.1 6.65 Q0.4 4.5 1.7 3.15 2.85 1.95 4.8 1.4 L5.55 1.15 Q8.15 0.05 10.75 0.0 L13.2 0.25 M3.8 12.1 L2.65 11.8" fill="none" stroke="#a36a6a" stroke-linecap="round" stroke-linejoin="round" stroke-width="1"/>
  </g>
</svg>