<?xml version="1.0" encoding="UTF-8" standalone="no"?>
<svg xmlns:xlink="http://www.w3.org/1999/xlink" height="15.8px" width="12.95px" xmlns="http://www.w3.org/2000/svg">
  <g transform="matrix(1.0, 0.0, 0.0, 1.0, 6.45, 7.9)">
    <path d="M-0.5 -6.9 L1.25 -6.7 2.4 -6.35 Q4.15 -4.85 4.9 -2.7 L5.15 -1.9 5.5 0.35 Q5.35 2.55 4.3 4.6 3.65 5.8 2.65 6.4 L1.35 6.65 0.25 6.9 -0.65 4.55 -0.1 5.05 1.4 5.0 2.2 3.75 Q2.95 1.85 1.65 0.0 L1.45 -0.25 0.25 -1.35 Q-0.4 -1.25 -0.85 -0.95 -2.55 0.3 -2.25 2.45 L-3.05 1.85 -4.7 -0.2 -4.6 -0.2 Q-3.5 -0.2 -2.85 -0.95 L-1.9 -2.2 Q0.5 -3.85 0.5 -4.4 L0.6 -4.9 0.35 -5.9 0.25 -6.15 0.25 -6.2 -0.4 -6.85 -0.5 -6.9 M1.65 0.0 Q2.95 0.0 3.9 -0.85 4.85 -1.6 4.9 -2.7 4.85 -1.6 3.9 -0.85 2.95 0.0 1.65 0.0" fill="#d6baba" fill-rule="evenodd" stroke="none"/>
    <path d="M-0.65 4.55 L1.25 3.2 1.45 1.55 1.45 -0.25 1.65 0.0 Q2.95 1.85 2.2 3.75 L1.4 5.0 -0.1 5.05 -0.65 4.55 M-4.7 -0.2 L-5.15 -1.0 -5.2 -1.25 -5.45 -2.9 Q-5.5 -4.6 -4.3 -5.75 -3.85 -6.0 -3.45 -6.3 L-1.6 -6.85 -0.5 -6.9 -0.4 -6.85 0.25 -6.2 0.25 -6.15 0.35 -5.9 0.6 -4.9 0.5 -4.4 Q0.5 -3.85 -1.9 -2.2 L-2.85 -0.95 Q-3.5 -0.2 -4.6 -0.2 L-4.7 -0.2 M-1.6 -5.8 L-2.75 -5.75 -1.6 -5.8" fill="#faf8f8" fill-rule="evenodd" stroke="none"/>
    <path d="M-0.5 -6.9 L1.25 -6.7 2.4 -6.35 Q4.15 -4.85 4.9 -2.7 L5.15 -1.9 5.5 0.35 Q5.35 2.55 4.3 4.6 3.65 5.8 2.65 6.4 L1.35 6.65 0.25 6.9 -0.65 4.55 1.25 3.2 1.45 1.55 1.45 -0.25 0.25 -1.35 Q-0.4 -1.25 -0.85 -0.95 -2.55 0.3 -2.25 2.45 L-3.05 1.85 -4.7 -0.2 -5.15 -1.0 -5.2 -1.25 -5.45 -2.9 Q-5.5 -4.6 -4.3 -5.75 -3.85 -6.0 -3.45 -6.3 L-1.6 -6.85 -0.5 -6.9 M0.25 -6.15 L0.35 -5.9 M-0.65 4.55 L-0.1 5.05 1.4 5.0 2.2 3.75 Q2.95 1.85 1.65 0.0 L1.45 -0.25 M4.9 -2.7 Q4.85 -1.6 3.9 -0.85 2.95 0.0 1.65 0.0 M-2.75 -5.75 L-1.6 -5.8" fill="none" stroke="#a36a6a" stroke-linecap="round" stroke-linejoin="round" stroke-width="1"/>
  </g>
</svg>