<?xml version="1.0" encoding="UTF-8" standalone="no"?>
<svg xmlns:xlink="http://www.w3.org/1999/xlink" height="100.9px" width="64.7px" xmlns="http://www.w3.org/2000/svg">
  <g transform="matrix(1.0, 0.0, 0.0, 1.0, 11.8, 12.85)">
    <path d="M8.1 35.1 Q11.5 15.9 23.05 0.25 L26.45 -4.2 27.55 -3.6 27.15 -0.9 30.0 -3.6 31.25 -2.95 30.9 -0.4 27.85 3.0 Q16.45 16.2 15.2 33.65 L13.05 45.9 Q13.6 36.95 15.6 28.35 18.05 17.85 21.9 7.7 L20.55 6.9 17.4 12.35 Q14.0 18.6 11.55 25.1 9.65 29.95 8.1 35.1 M31.2 0.15 L34.6 -2.4 35.25 -0.8 31.7 3.7 28.4 6.45 31.2 0.15 M33.85 5.0 Q29.7 23.8 28.55 42.85 L28.05 53.55 27.9 45.65 Q27.05 26.25 32.25 7.7 L33.85 5.0 M34.8 75.65 L38.65 81.8 30.75 79.9 34.25 85.8 33.9 87.05 Q23.25 77.05 18.9 63.25 L16.55 55.0 17.35 56.1 19.3 56.2 18.7 52.95 Q16.7 41.5 18.5 29.95 L19.05 29.0 19.5 49.45 23.35 65.8 22.8 59.65 26.6 65.85 27.2 67.85 Q28.25 74.25 34.3 76.5 L34.8 75.65 M21.7 73.55 L27.2 86.95 Q22.45 86.95 18.05 84.9 12.3 82.3 8.35 77.35 L9.55 78.1 Q12.15 79.5 14.85 78.45 L16.75 81.3 14.8 78.05 14.65 77.25 14.2 76.9 10.25 65.6 8.7 52.85 Q9.6 55.65 11.1 58.25 L11.95 59.6 Q13.6 66.6 16.7 72.8 L21.15 81.25 16.25 65.5 21.7 73.55 M2.65 68.75 L-1.5 54.75 -0.15 54.95 Q-3.0 47.2 -2.65 39.3 -2.35 32.95 0.0 27.2 L-1.2 40.05 -0.3 40.05 0.95 52.35 1.55 58.1 3.2 57.9 3.0 53.15 Q2.6 36.2 9.0 20.75 6.0 29.2 4.95 37.85 L4.55 41.9 4.55 42.05 4.5 42.2 Q2.65 51.3 6.15 59.8 L7.05 61.8 13.7 76.65 2.65 68.75 M19.15 -0.4 L32.75 -10.35 23.4 -1.55 19.15 -0.4 M31.05 42.15 L36.45 63.65 38.6 71.4 37.3 71.5 Q32.05 59.1 31.25 45.7 L31.05 42.15 M38.65 42.85 L38.4 44.9 37.9 37.2 38.65 42.85 M22.2 23.55 L25.6 17.7 24.8 22.5 Q23.3 32.0 23.7 41.6 L24.75 57.95 Q22.15 46.65 22.2 35.15 L22.2 23.55 M35.55 42.0 L38.3 55.75 Q36.1 50.45 35.7 44.8 L35.55 42.0" fill="#dea9cc" fill-rule="evenodd" stroke="none"/>
    <path d="M30.9 -0.4 L31.2 0.15 28.4 6.45 20.55 23.2 19.4 26.75 18.5 29.95 Q16.7 41.5 18.7 52.95 L19.3 56.2 17.35 56.1 16.55 55.0 15.2 33.65 Q16.45 16.2 27.85 3.0 L30.9 -0.4 M34.25 3.85 L33.85 5.0 32.25 7.7 34.25 3.85 M0.95 52.35 Q-0.55 24.05 17.05 2.15 L19.15 -0.4 23.4 -1.55 9.0 20.75 Q2.6 36.2 3.0 53.15 L3.2 57.9 1.55 58.1 0.95 52.35" fill="#ffffff" fill-rule="evenodd" stroke="none"/>
    <path d="M35.25 -0.8 Q41.6 -6.7 49.45 -10.45 L51.75 -11.4 51.9 -10.5 Q43.35 -7.2 37.5 -0.2 35.8 1.75 34.25 3.85 L32.25 7.7 Q27.05 26.25 27.9 45.65 L28.05 53.55 Q28.05 55.8 28.7 57.9 31.45 66.85 34.8 75.65 L34.3 76.5 Q28.25 74.25 27.2 67.85 L26.95 66.05 27.3 65.45 26.6 63.45 23.7 41.6 Q23.3 32.0 24.8 22.5 L25.6 17.7 31.7 3.7 35.25 -0.8 M8.35 77.35 Q-20.85 50.55 -5.5 13.35 1.1 -2.65 15.75 -11.85 -18.65 22.25 0.9 65.4 L2.65 68.75 13.7 76.65 14.2 76.9 14.65 77.25 14.8 78.05 14.85 78.45 Q12.15 79.5 9.55 78.1 L8.35 77.35" fill="#c2a38c" fill-rule="evenodd" stroke="none"/>
    <path d="M13.05 45.9 L21.7 73.55 16.25 65.5 Q16.25 63.05 15.0 61.35 13.75 59.6 11.95 59.6 L11.1 58.25 Q9.6 55.65 8.7 52.85 7.25 48.2 7.55 43.05 L7.55 39.6 7.2 42.65 Q5.85 54.6 10.25 65.6 L9.8 66.05 7.05 61.8 6.15 59.8 Q2.65 51.3 4.5 42.2 L4.55 42.05 4.55 41.9 Q4.95 38.4 7.8 36.5 L8.1 35.1 Q9.65 29.95 11.55 25.1 14.0 18.6 17.4 12.35 L20.55 6.9 21.9 7.7 Q18.05 17.85 15.6 28.35 13.6 36.95 13.05 45.9 M0.0 27.2 Q0.4 21.8 2.35 16.95 6.3 7.2 15.0 1.2 L15.45 1.65 12.35 5.95 Q1.65 21.4 -0.3 40.05 L-1.2 40.05 0.0 27.2 M31.05 42.15 L30.8 38.6 Q30.0 25.65 36.6 14.6 L36.4 17.35 40.1 16.2 Q41.65 13.15 43.65 10.4 46.35 6.55 50.7 4.8 L51.3 5.7 48.5 8.7 Q37.85 20.95 37.9 37.2 L38.4 44.9 38.65 42.85 Q38.2 36.2 40.5 30.15 42.75 24.1 48.0 21.45 L47.85 23.45 46.0 23.8 Q35.75 47.7 48.35 70.35 L47.3 71.4 47.45 72.6 40.05 63.2 42.05 69.45 41.4 69.25 Q37.7 67.6 36.45 63.65 L31.05 42.15 M44.3 45.35 Q40.8 34.6 47.15 25.15 L48.3 23.75 46.2 48.95 Q44.95 47.25 44.3 45.35 M20.55 23.2 L21.15 22.35 22.2 23.55 22.2 35.15 Q22.15 46.65 24.75 57.95 L26.6 63.45 27.3 65.45 26.95 66.05 26.6 65.85 22.8 59.65 19.5 49.45 19.05 29.0 19.4 26.75 20.55 23.2 M35.55 42.0 Q34.55 28.7 40.0 16.45 L38.75 18.95 Q29.45 38.7 38.65 58.8 L38.3 55.75 35.55 42.0" fill="#bd77a5" fill-rule="evenodd" stroke="none"/>
  </g>
</svg>