<?xml version="1.0" encoding="UTF-8" standalone="no"?>
<svg xmlns:xlink="http://www.w3.org/1999/xlink" height="82.3px" width="82.3px" xmlns="http://www.w3.org/2000/svg">
  <g transform="matrix(1.0, 0.0, 0.0, 1.0, 36.8, 15.5)">
    <path d="M32.75 -2.75 Q44.5 9.0 44.5 25.65 44.5 42.3 32.75 54.05 21.0 65.8 4.35 65.8 -12.3 65.8 -24.05 54.05 -35.8 42.3 -35.8 25.65 -35.8 9.0 -24.05 -2.75 -12.3 -14.5 4.35 -14.5 21.0 -14.5 32.75 -2.75 M32.85 12.9 Q24.85 4.9 13.5 4.9 2.2 4.9 -5.85 12.9 -13.85 20.95 -13.85 32.25 -13.85 43.6 -5.85 51.6 2.2 59.65 13.5 59.65 24.85 59.65 32.85 51.6 40.85 43.6 40.85 32.25 40.85 20.95 32.85 12.9" fill="#ffffff" fill-rule="evenodd" stroke="none"/>
  </g>
</svg>