<?xml version="1.0" encoding="UTF-8" standalone="no"?>
<svg xmlns:xlink="http://www.w3.org/1999/xlink" height="81.1px" width="82.3px" xmlns="http://www.w3.org/2000/svg">
  <g transform="matrix(1.0, 0.0, 0.0, 1.0, 36.8, 14.3)">
    <path d="M-17.55 -5.45 Q-27.7 4.7 -27.7 19.1 -27.7 33.45 -17.55 43.7 -7.35 53.9 7.05 53.9 21.45 53.9 31.65 43.7 41.8 33.45 41.8 19.1 41.8 11.55 39.05 5.2 44.5 14.3 44.5 25.65 44.5 42.3 32.75 54.05 21.0 65.8 4.35 65.8 -12.3 65.8 -24.05 54.05 -35.8 42.3 -35.8 25.65 -35.8 9.0 -24.05 -2.75 -16.05 -10.75 -5.8 -13.3 -12.25 -10.75 -17.55 -5.45" fill="#ffffff" fill-rule="evenodd" stroke="none"/>
  </g>
</svg>