<?xml version="1.0" encoding="UTF-8" standalone="no"?>
<svg xmlns:xlink="http://www.w3.org/1999/xlink" height="82.3px" width="82.3px" xmlns="http://www.w3.org/2000/svg">
  <g transform="matrix(1.0, 0.0, 0.0, 1.0, 36.8, 15.5)">
    <path d="M32.1 -1.8 Q22.95 -10.95 10.05 -10.95 -2.85 -10.95 -12.0 -1.8 -21.1 7.3 -21.1 20.2 -21.1 33.1 -12.0 42.25 -2.85 51.4 10.05 51.4 22.95 51.4 32.1 42.25 41.2 33.1 41.2 20.2 41.2 7.3 32.1 -1.8 M32.75 -2.75 Q44.5 9.0 44.5 25.65 44.5 42.3 32.75 54.05 21.0 65.8 4.35 65.8 -12.3 65.8 -24.05 54.05 -35.8 42.3 -35.8 25.65 -35.8 9.0 -24.05 -2.75 -12.3 -14.5 4.35 -14.5 21.0 -14.5 32.75 -2.75" fill="#ffffff" fill-rule="evenodd" stroke="none"/>
  </g>
</svg>