<?xml version="1.0" encoding="UTF-8" standalone="no"?>
<svg xmlns:xlink="http://www.w3.org/1999/xlink" height="25.55px" width="33.65px" xmlns="http://www.w3.org/2000/svg">
  <g transform="matrix(1.0, 0.0, 0.0, 1.0, 1.8, 1)">
    <path d="M-0.65 12.6 L-0.35 11.7 -0.05 11.3 0.2 11.1 Q1.5 9.25 3.0 8.1 6.25 5.5 13.25 2.7 20.35 -0.05 23.65 0.0 L24.6 0.0 Q19.35 1.9 18.05 3.35 17.1 5.1 15.8 6.55 L22.55 4.15 24.9 4.9 Q25.9 5.3 28.8 7.1 L27.05 6.6 25.25 6.35 Q23.95 6.35 21.4 7.7 18.85 9.1 17.75 10.35 L17.6 10.4 23.55 11.15 28.7 11.85 29.3 12.6 29.8 13.55 Q30.85 16.35 30.85 17.5 L30.5 18.8 29.05 20.15 Q26.9 21.6 22.7 22.6 L14.65 23.55 Q7.4 23.55 3.1 20.75 -0.8 18.2 -0.8 14.55 L-0.65 12.6" fill="#dea9cc" fill-rule="evenodd" stroke="none"/>
    <path d="M24.6 0.0 L25.15 0.0 Q21.85 2.6 20.5 3.95 L22.55 4.15 15.8 6.55 Q17.1 5.1 18.05 3.35 19.35 1.9 24.6 0.0" fill="url(#gradient0)" fill-rule="evenodd" stroke="none"/>
    <path d="M28.8 7.1 L29.1 7.3 27.1 7.7 Q25.25 8.2 24.95 8.5 L26.0 9.1 28.15 11.15 28.7 11.85 23.55 11.15 17.6 10.4 17.75 10.35 Q18.85 9.1 21.4 7.7 23.95 6.35 25.25 6.35 L27.05 6.6 28.8 7.1" fill="url(#gradient1)" fill-rule="evenodd" stroke="none"/>
    <path d="M-0.65 12.6 L-0.35 11.7 -0.05 11.3 0.2 11.1 Q1.5 9.25 3.0 8.1 6.25 5.5 13.25 2.7 20.35 -0.05 23.65 0.0 L24.6 0.0 M25.15 0.0 Q21.85 2.6 20.5 3.95 L22.55 4.15 24.9 4.9 Q25.9 5.3 28.8 7.1 M29.1 7.3 L27.1 7.7 Q25.25 8.2 24.95 8.5 L26.0 9.1 28.15 11.15 28.7 11.85 29.3 12.6" fill="none" stroke="#4f0202" stroke-linecap="round" stroke-linejoin="round" stroke-opacity="0.49803922" stroke-width="1"/>
  </g>
  <defs>
    <linearGradient gradientTransform="matrix(-7.0E-4, -0.0023, 0.0063, -0.0018, 20.4, 3.2)" gradientUnits="userSpaceOnUse" id="gradient0" spreadMethod="pad" x1="-819.2" x2="819.2">
      <stop offset="0.0" stop-color="#985e83"></stop>
      <stop offset="1.0" stop-color="#d199be"></stop>
    </linearGradient>
    <linearGradient gradientTransform="matrix(-0.0011, -0.0038, 0.007, -0.002, 23.6, 10.0)" gradientUnits="userSpaceOnUse" id="gradient1" spreadMethod="pad" x1="-819.2" x2="819.2">
      <stop offset="0.0" stop-color="#985e83"></stop>
      <stop offset="1.0" stop-color="#d199be"></stop>
    </linearGradient>
  </defs>
</svg>