<?xml version="1.0" encoding="UTF-8" standalone="no"?>
<svg xmlns:xlink="http://www.w3.org/1999/xlink" height="38.75px" width="47.5px" xmlns="http://www.w3.org/2000/svg">
  <g transform="matrix(1.0, 0.0, 0.0, 1.0, 1, 1)">
    <path d="M32.2 4.7 L31.25 5.45 31.15 5.55 Q30.0 6.3 28.9 6.3 28.2 6.3 28.05 5.85 L28.35 5.7 Q29.7 4.65 31.65 4.65 L32.2 4.7 M34.8 5.8 L33.9 6.0 Q33.05 6.0 33.0 5.45 L33.0 5.3 33.05 5.0 33.35 5.0 33.6 5.1 34.15 5.35 34.8 5.8 M24.95 9.2 L21.65 9.65 20.6 9.65 20.6 9.55 21.6 8.65 21.7 8.5 22.95 8.45 Q24.25 8.6 24.95 9.2 M14.65 5.75 L14.05 6.3 13.85 6.45 11.8 7.75 11.8 7.65 Q12.15 6.95 12.65 6.5 13.5 5.75 14.65 5.75 M16.9 8.2 L17.5 7.95 19.45 7.55 Q20.6 7.55 20.9 8.05 L19.9 8.7 Q19.0 9.35 18.8 9.65 15.7 13.25 14.85 13.25 L14.85 12.55 Q15.1 11.7 16.05 9.75 L16.9 8.2 M11.95 25.55 Q11.95 24.6 12.15 24.2 L12.3 23.9 12.45 23.7 13.0 25.2 13.55 27.45 13.55 27.5 12.85 27.5 Q11.95 26.65 11.95 25.6 L11.95 25.55 Q12.45 25.25 13.0 25.2 12.45 25.25 11.95 25.55" fill="#ffc2ea" fill-rule="evenodd" stroke="none"/>
    <path d="M28.05 5.85 Q28.2 6.3 28.9 6.3 30.0 6.3 31.15 5.55 L31.25 5.45 32.2 4.7 33.35 5.0 33.05 5.0 33.0 5.3 33.0 5.45 Q33.05 6.0 33.9 6.0 L34.8 5.8 35.35 6.3 Q37.0 7.95 37.0 10.0 37.0 11.3 36.45 12.5 L36.2 13.05 35.35 14.25 34.6 13.2 35.35 14.25 Q37.8 17.95 37.65 22.3 37.45 26.9 35.9 28.35 L36.35 27.2 Q36.85 25.85 37.05 23.9 37.2 21.85 36.45 18.6 35.8 15.8 33.4 12.3 L32.45 10.9 33.55 12.0 33.7 12.2 33.9 12.4 34.55 13.15 34.6 13.2 35.2 12.1 35.5 10.6 Q35.5 8.7 34.35 7.3 33.25 6.0 32.0 6.0 31.2 6.0 30.3 6.45 L29.7 6.9 29.55 7.05 29.05 7.15 Q28.5 7.15 28.05 6.7 L27.7 6.2 28.05 5.85 M15.7 0.95 L17.65 3.4 19.9 6.15 20.6 6.9 20.65 5.65 20.45 4.1 20.85 1.15 Q21.85 3.1 21.95 6.05 L21.95 6.9 23.25 6.0 23.45 5.7 23.5 5.65 23.55 5.9 23.55 6.6 25.4 6.95 25.65 7.0 25.7 7.05 26.95 7.65 Q28.65 8.6 30.15 12.35 31.6 16.0 30.15 16.6 L26.4 17.45 26.4 17.4 Q26.0 14.9 25.75 9.85 L25.7 9.85 Q24.2 14.3 24.2 14.95 L24.55 17.65 17.7 17.85 13.85 17.25 12.4 16.6 13.25 14.25 12.2 13.7 11.6 13.2 Q10.95 12.45 10.95 10.8 10.95 9.15 11.8 7.65 L11.8 7.75 13.85 6.45 14.05 6.3 14.65 5.75 15.75 5.9 Q16.45 5.15 17.65 4.9 L17.0 3.8 15.7 0.95 M24.95 9.2 Q24.25 8.6 22.95 8.45 L21.7 8.5 21.6 8.65 20.6 9.55 20.6 9.65 21.65 9.65 24.95 9.2 M24.85 20.2 L27.05 20.1 27.35 21.7 27.4 23.25 27.4 24.0 26.85 25.45 27.25 25.45 Q29.9 25.1 31.6 23.25 L31.9 22.85 32.4 22.1 32.45 22.05 32.55 21.8 32.8 21.05 33.55 20.9 Q35.15 20.9 35.15 22.55 L35.1 23.75 Q34.9 26.05 34.05 27.4 L33.65 27.9 Q32.0 29.7 28.1 29.7 L24.8 29.6 26.05 27.05 26.8 25.5 25.25 25.4 25.35 24.65 25.25 23.4 24.85 20.2 M11.75 22.2 L12.9 23.2 Q14.8 24.85 15.95 24.85 17.05 24.8 18.15 24.0 19.2 23.15 19.85 23.25 20.5 23.3 22.05 24.4 23.3 25.2 25.25 25.45 L25.0 27.4 24.65 29.6 17.8 29.45 Q13.1 29.45 11.7 27.35 L11.5 25.75 11.95 25.55 11.5 25.75 11.5 25.2 11.75 22.2 M27.25 25.45 L26.8 25.5 27.25 25.45 M35.9 28.35 L35.85 28.35 35.85 28.3 35.9 28.35 M14.15 14.6 L13.25 14.25 14.15 14.6 M18.1 5.5 L17.65 4.9 18.1 5.5 M14.2 12.5 L14.4 11.95 15.2 9.85 15.3 9.55 15.7 8.5 15.9 7.65 15.9 7.4 15.8 7.45 Q15.55 7.0 14.8 7.0 13.4 7.0 12.55 8.05 11.9 8.9 11.9 9.9 11.9 11.15 12.4 11.95 12.7 12.6 13.65 13.3 L14.2 12.5 M16.9 8.2 L16.05 9.75 Q15.1 11.7 14.85 12.55 L14.85 13.25 Q15.7 13.25 18.8 9.65 19.0 9.35 19.9 8.7 L20.9 8.05 Q20.6 7.55 19.45 7.55 L17.5 7.95 16.9 8.2 M13.0 25.2 L12.45 23.7 12.3 23.9 12.15 24.2 Q11.95 24.6 11.95 25.55 L11.95 25.6 Q11.95 26.65 12.85 27.5 L13.55 27.5 13.55 27.45 13.0 25.2 13.15 25.2 Q14.05 25.2 15.45 25.95 17.25 26.85 17.8 28.25 17.25 26.85 15.45 25.95 14.05 25.2 13.15 25.2 L13.0 25.2 M24.1 27.95 Q24.35 27.7 25.0 27.4 24.35 27.7 24.1 27.95 M26.05 27.05 L26.25 26.95 29.9 26.3 Q31.65 26.3 34.05 27.4 31.65 26.3 29.9 26.3 L26.25 26.95 26.05 27.05" fill="url(#gradient0)" fill-rule="evenodd" stroke="none"/>
    <path d="M27.7 6.2 L28.05 6.7 Q28.5 7.15 29.05 7.15 L29.55 7.05 29.7 6.9 30.3 6.45 Q31.2 6.0 32.0 6.0 33.25 6.0 34.35 7.3 35.5 8.7 35.5 10.6 L35.2 12.1 34.6 13.2 34.55 13.15 33.9 12.4 33.7 12.2 33.55 12.0 33.8 11.05 33.8 10.85 Q33.8 9.5 33.25 8.45 32.6 7.3 31.6 7.3 31.15 7.3 30.7 7.6 L30.25 8.1 31.35 9.65 32.45 10.9 33.4 12.3 Q35.8 15.8 36.45 18.6 37.2 21.85 37.05 23.9 36.85 25.85 36.35 27.2 L35.9 28.35 35.85 28.3 35.75 28.25 35.65 28.2 35.5 28.1 35.35 28.05 34.05 27.4 35.35 28.05 35.5 28.1 35.85 28.35 Q31.85 31.25 30.7 30.8 L30.55 30.85 24.1 30.6 20.15 30.55 13.7 30.5 13.25 30.25 Q12.0 29.6 11.7 27.35 13.1 29.45 17.8 29.45 L24.65 29.6 24.8 29.6 28.1 29.7 Q32.0 29.7 33.65 27.9 L34.05 27.4 Q34.9 26.05 35.1 23.75 L35.15 22.55 Q35.15 20.9 33.55 20.9 L32.8 21.05 32.55 21.8 32.85 19.75 32.8 19.3 28.75 20.0 27.05 20.1 26.4 17.45 30.15 16.6 Q31.6 16.0 30.15 12.35 28.65 8.6 26.95 7.65 L25.7 7.05 25.65 7.0 25.4 6.95 23.55 6.6 23.55 5.9 23.5 5.65 23.45 5.7 23.25 6.0 21.95 6.9 21.95 6.05 Q21.85 3.1 20.85 1.15 L20.85 1.1 Q23.25 2.05 23.5 5.5 L23.65 5.55 24.8 5.85 Q25.95 6.25 27.05 6.9 L27.7 6.2 M15.7 0.95 L15.4 0.4 15.3 0.1 15.25 0.0 16.95 1.6 17.95 2.6 20.35 4.55 20.45 4.1 20.65 5.65 20.6 6.9 19.9 6.15 17.65 3.4 15.7 0.95 M23.5 5.5 L23.5 5.65 23.5 5.5 M31.8 12.5 Q33.25 14.45 33.45 19.2 L33.1 19.25 32.8 19.3 33.1 19.25 33.45 19.2 Q33.25 14.45 31.8 12.5 M27.4 7.15 L27.05 6.9 27.4 7.15 M24.55 17.65 L24.85 20.2 19.1 20.1 Q14.55 19.85 12.95 19.1 L12.5 18.8 Q12.05 18.45 12.05 18.1 12.05 17.55 12.4 16.6 L13.85 17.25 17.7 17.85 24.55 17.65 M15.7 8.5 L15.6 8.5 15.15 8.4 Q14.45 8.4 13.85 8.95 13.15 9.55 13.15 10.45 13.15 11.8 14.2 12.5 L13.65 13.3 Q12.7 12.6 12.4 11.95 11.9 11.15 11.9 9.9 11.9 8.9 12.55 8.05 13.4 7.0 14.8 7.0 15.55 7.0 15.8 7.45 L15.9 7.4 15.9 7.65 15.7 8.5" fill="#a66d92" fill-rule="evenodd" stroke="none"/>
    <path d="M30.25 8.1 L30.7 7.6 Q31.15 7.3 31.6 7.3 32.6 7.3 33.25 8.45 33.8 9.5 33.8 10.85 L33.8 11.05 33.55 12.0 32.45 10.9 31.35 9.65 30.25 8.1 M24.85 20.2 L25.25 23.4 25.35 24.65 25.25 25.4 25.25 25.45 Q23.3 25.2 22.05 24.4 20.5 23.3 19.85 23.25 19.2 23.15 18.15 24.0 17.05 24.8 15.95 24.85 14.8 24.85 12.9 23.2 L11.75 22.2 Q11.95 20.45 12.5 18.8 L12.95 19.1 Q14.55 19.85 19.1 20.1 L24.85 20.2 M14.2 12.5 Q13.15 11.8 13.15 10.45 13.15 9.55 13.85 8.95 14.45 8.4 15.15 8.4 L15.6 8.5 15.7 8.5 15.3 9.55 15.2 9.85 14.4 11.95 14.2 12.5" fill="url(#gradient1)" fill-rule="evenodd" stroke="none"/>
    <path d="M26.4 17.45 L27.05 20.1 24.85 20.2 24.55 17.65 24.2 14.95 Q24.2 14.3 25.7 9.85 L25.75 9.85 Q26.0 14.9 26.4 17.4 L26.4 17.45 M25.25 25.45 L25.25 25.4 26.8 25.5 26.05 27.05 24.8 29.6 24.65 29.6 25.0 27.4 25.25 25.45 M25.0 27.4 L26.05 27.05 25.0 27.4" fill="#dea9cc" fill-rule="evenodd" stroke="none"/>
    <path d="M28.3 34.05 Q26.0 34.3 24.1 34.0 L24.1 31.95 24.45 31.85 26.25 31.65 Q28.4 31.65 28.4 33.6 L28.3 34.05 M18.15 34.1 L15.9 33.95 15.7 33.9 14.1 33.55 13.85 31.8 14.15 31.6 Q14.8 31.2 15.6 31.2 16.75 31.2 17.6 32.2 18.25 32.95 18.25 33.45 L18.15 34.1" fill="#ffffff" fill-rule="evenodd" stroke="none"/>
    <path d="M27.05 20.1 L28.75 20.0 32.8 19.3 32.85 19.75 32.55 21.8 32.45 22.05 32.4 22.1 31.9 22.85 31.6 23.25 Q29.9 25.1 27.25 25.45 L26.85 25.45 27.4 24.0 27.4 23.25 27.35 21.7 27.05 20.1" fill="url(#gradient2)" fill-rule="evenodd" stroke="none"/>
    <path d="M35.35 14.25 L36.2 13.05 36.4 13.3 Q39.2 16.5 39.2 22.05 39.2 26.5 37.7 28.85 L37.55 29.1 35.9 28.35 Q37.45 26.9 37.65 22.3 37.8 17.95 35.35 14.25 M35.9 28.35 L37.55 29.1 Q36.9 31.85 31.8 33.4 L32.05 36.75 23.85 36.5 23.65 34.15 22.3 34.2 22.35 36.5 15.75 36.2 15.7 33.9 15.9 33.95 18.15 34.1 19.85 34.0 20.15 30.55 24.1 30.6 24.1 31.95 24.1 34.0 Q26.0 34.3 28.3 34.05 L30.35 33.65 30.7 30.8 Q31.85 31.25 35.85 28.35 L35.9 28.35" fill="#a66d92" fill-opacity="0.7882353" fill-rule="evenodd" stroke="none"/>
    <path d="M30.7 30.8 L30.35 33.65 28.3 34.05 28.4 33.6 Q28.4 31.65 26.25 31.65 L24.45 31.85 24.1 31.95 24.1 30.6 30.55 30.85 30.7 30.8 M20.15 30.55 L19.85 34.0 18.15 34.1 18.25 33.45 Q18.25 32.95 17.6 32.2 16.75 31.2 15.6 31.2 14.8 31.2 14.15 31.6 L13.85 31.8 13.7 30.5 20.15 30.55" fill="#b4e0ff" fill-rule="evenodd" stroke="none"/>
    <path d="M37.55 29.1 Q39.95 30.15 42.05 30.15 43.7 30.15 44.7 29.05 45.5 28.1 45.5 26.95 45.5 25.55 44.4 24.65 43.35 23.85 41.95 23.85 40.0 23.85 40.0 26.05 40.0 27.95 41.5 27.95 L42.75 27.15 M32.2 4.7 L31.65 4.65 Q29.7 4.65 28.35 5.7 L28.05 5.85 27.7 6.2 27.05 6.9 27.4 7.15 M34.6 13.2 L35.35 14.25 36.2 13.05 36.45 12.5 Q37.0 11.3 37.0 10.0 37.0 7.95 35.35 6.3 L34.8 5.8 34.15 5.35 33.6 5.1 33.35 5.0 32.2 4.7 M33.55 12.0 L33.7 12.2 33.9 12.4 34.55 13.15 34.6 13.2 M32.45 10.9 L31.35 9.65 30.25 8.1 M33.55 12.0 L32.45 10.9 M35.9 28.35 Q37.45 26.9 37.65 22.3 37.8 17.95 35.35 14.25 M20.85 1.15 L20.85 1.1 Q23.25 2.05 23.5 5.5 L23.65 5.55 24.8 5.85 Q25.95 6.25 27.05 6.9 M20.45 4.1 L20.35 4.55 17.95 2.6 16.95 1.6 15.25 0.0 15.3 0.1 15.4 0.4 15.7 0.95 17.0 3.8 17.65 4.9 18.1 5.5 M20.45 4.1 L20.85 1.15 M23.5 5.65 L23.5 5.5 M23.5 5.65 L23.55 5.9 23.55 6.6 M27.05 20.1 L28.75 20.0 32.8 19.3 33.1 19.25 33.45 19.2 Q33.25 14.45 31.8 12.5 M24.85 20.2 L27.05 20.1 M24.85 20.2 L19.1 20.1 Q14.55 19.85 12.95 19.1 L12.5 18.8 Q11.95 20.45 11.75 22.2 L11.5 25.2 11.5 25.75 11.15 26.1 Q10.45 26.55 9.9 27.3 9.0 28.55 7.45 29.05 L5.25 29.35 5.2 29.35 Q0.0 29.35 0.0 24.8 0.0 23.4 0.55 23.0 L2.05 22.75 Q2.8 22.75 3.45 23.35 4.2 24.05 3.85 24.95 L3.05 25.05 2.45 24.95 2.2 24.95 M37.55 29.1 L35.9 28.35 35.85 28.35 Q31.85 31.25 30.7 30.8 L30.35 33.65 28.3 34.05 Q26.0 34.3 24.1 34.0 L24.1 31.95 24.1 30.6 20.15 30.55 19.85 34.0 18.15 34.1 15.9 33.95 15.7 33.9 14.1 33.55 13.85 31.8 13.7 30.5 20.15 30.55 M34.05 27.4 L35.35 28.05 35.5 28.1 35.65 28.2 35.75 28.25 35.85 28.3 35.9 28.35 M17.65 4.9 Q16.45 5.15 15.75 5.9 L14.65 5.75 Q13.5 5.75 12.65 6.5 12.15 6.95 11.8 7.65 10.95 9.15 10.95 10.8 10.95 12.45 11.6 13.2 L12.2 13.7 13.25 14.25 14.15 14.6 M12.5 18.8 Q12.05 18.45 12.05 18.1 12.05 17.55 12.4 16.6 L13.25 14.25 M13.0 25.2 L13.15 25.2 Q14.05 25.2 15.45 25.95 17.25 26.85 17.8 28.25 M11.95 25.55 L11.5 25.75 11.7 27.35 Q12.0 29.6 13.25 30.25 L13.7 30.5 M25.0 27.4 Q24.35 27.7 24.1 27.95 M13.0 25.2 Q12.45 25.25 11.95 25.55 M35.85 28.35 L35.5 28.1 M34.05 27.4 Q31.65 26.3 29.9 26.3 L26.25 26.95 26.05 27.05 25.0 27.4 M30.7 30.8 L30.55 30.85 24.1 30.6" fill="none" stroke="#4f0202" stroke-linecap="round" stroke-linejoin="round" stroke-opacity="0.49803922" stroke-width="1"/>
    <path d="M25.25 25.4 L26.8 25.5 27.25 25.45" fill="none" stroke="#999900" stroke-linecap="round" stroke-linejoin="round" stroke-opacity="0.49803922" stroke-width="1"/>
  </g>
  <defs>
    <radialGradient cx="0" cy="0" gradientTransform="matrix(0.04, 0.0, 0.0, 0.04, 35.4, 25.7)" gradientUnits="userSpaceOnUse" id="gradient0" r="819.2" spreadMethod="pad">
      <stop offset="0.0" stop-color="#b4739e"></stop>
      <stop offset="0.8431372549019608" stop-color="#dea9cc"></stop>
    </radialGradient>
    <linearGradient gradientTransform="matrix(0.0, -0.0026, 0.0083, 0.0, 18.55, 22.5)" gradientUnits="userSpaceOnUse" id="gradient1" spreadMethod="pad" x1="-819.2" x2="819.2">
      <stop offset="0.0" stop-color="#a66d92"></stop>
      <stop offset="1.0" stop-color="#774b67"></stop>
    </linearGradient>
    <linearGradient gradientTransform="matrix(0.0, -0.0037, 0.0036, 0.0, 29.8, 21.1)" gradientUnits="userSpaceOnUse" id="gradient2" spreadMethod="pad" x1="-819.2" x2="819.2">
      <stop offset="0.0" stop-color="#a66d92"></stop>
      <stop offset="1.0" stop-color="#774b67"></stop>
    </linearGradient>
  </defs>
</svg>