<?xml version="1.0" encoding="UTF-8" standalone="no"?>
<svg xmlns:xlink="http://www.w3.org/1999/xlink" height="20.55px" width="26px" xmlns="http://www.w3.org/2000/svg">
  <g transform="matrix(1.0, 0.0, 0.0, 1.0, 12.9, 11.3)">
    <path d="M3.6 -4.85 Q3.6 -2.65 2.0 -1.0 0.35 0.6 -1.85 0.6 -4.05 0.6 -5.7 -1.0 -7.3 -2.65 -7.3 -4.85 -7.3 -7.05 -5.7 -8.7 -4.05 -10.3 -1.85 -10.3 0.35 -10.3 2.0 -8.7 3.6 -7.05 3.6 -4.85" fill="#ffffff" fill-rule="evenodd" stroke="none"/>
    <path d="M6.95 -7.5 Q8.7 -7.5 10.0 -6.2 11.3 -4.9 11.3 -3.15 11.3 -1.4 10.0 -0.1 8.7 1.2 6.95 1.2 5.2 1.2 3.9 -0.1 2.6 -1.4 2.6 -3.15 2.6 -4.9 3.9 -6.2 5.2 -7.5 6.95 -7.5" fill="#ffffff" fill-rule="evenodd" stroke="none"/>
    <path d="M6.7 -2.25 Q8.5 -0.4 8.5 2.1 8.5 4.6 6.7 6.45 4.85 8.25 2.35 8.25 -0.15 8.25 -2.0 6.45 -3.8 4.6 -3.8 2.1 -3.8 -0.4 -2.0 -2.25 -0.15 -4.05 2.35 -4.05 4.85 -4.05 6.7 -2.25" fill="#ffffff" fill-rule="evenodd" stroke="none"/>
    <path d="M-8.35 -3.3 Q-6.9 -3.3 -5.85 -2.25 -4.8 -1.2 -4.8 0.25 -4.8 1.7 -5.85 2.75 -6.9 3.8 -8.35 3.8 -9.8 3.8 -10.85 2.75 -11.9 1.7 -11.9 0.25 -11.9 -1.2 -10.85 -2.25 -9.8 -3.3 -8.35 -3.3" fill="#ffffff" fill-rule="evenodd" stroke="none"/>
    <path d="M-7.45 6.65 Q-8.6 5.45 -8.6 3.8 -8.6 2.15 -7.45 0.95 -6.25 -0.2 -4.6 -0.2 -2.95 -0.2 -1.75 0.95 -0.6 2.15 -0.6 3.8 -0.6 5.45 -1.75 6.65 -2.95 7.8 -4.6 7.8 -6.25 7.8 -7.45 6.65" fill="#ffffff" fill-rule="evenodd" stroke="none"/>
    <path d="M9.25 -1.5 Q10.4 -1.5 11.25 -0.65 12.1 0.2 12.1 1.35 12.1 2.5 11.25 3.35 10.4 4.2 9.25 4.2 8.1 4.2 7.25 3.35 6.4 2.5 6.4 1.35 6.4 0.2 7.25 -0.65 8.1 -1.5 9.25 -1.5" fill="#ffffff" fill-rule="evenodd" stroke="none"/>
  </g>
</svg>