<?xml version="1.0" encoding="UTF-8" standalone="no"?>
<svg xmlns:xlink="http://www.w3.org/1999/xlink" height="23.45px" width="38.65px" xmlns="http://www.w3.org/2000/svg">
  <g transform="matrix(1.0, 0.0, 0.0, 1.0, 30.4, 1.7)">
    <path d="M7.2 19.5 L6.05 19.4 -5.3 20.1 -15.15 20.75 -21.4 20.65 Q-27.15 20.6 -28.25 20.7 L-29.4 20.45 -29.4 20.15 -6.85 18.3 Q-3.85 18.5 -0.6 18.2 L3.2 18.25 7.25 18.75 7.2 19.5 M6.3 9.7 L6.25 10.05 5.6 10.2 Q4.6 10.2 -10.35 5.55 -25.7 0.75 -28.7 -0.7 L-9.4 3.95 Q-2.45 5.65 6.0 9.2 L6.3 9.7" fill="#ffffff" fill-opacity="0.9882353" fill-rule="evenodd" stroke="none"/>
  </g>
</svg>