<?xml version="1.0" encoding="UTF-8" standalone="no"?>
<svg xmlns:xlink="http://www.w3.org/1999/xlink" height="51.5px" width="40.45px" xmlns="http://www.w3.org/2000/svg">
  <g transform="matrix(1.0, 0.0, 0.0, 1.0, 31.95, 20)">
    <path d="M2.0 -3.6 Q0.7 -3.65 -0.85 -2.45 L-2.25 -1.1 -3.0 4.85 -1.8 3.0 Q1.2 -1.4 2.0 -3.25 L2.0 -3.6 M-10.6 -14.95 Q-9.25 -11.15 -9.0 -5.45 L-9.1 -3.9 Q-9.55 -3.9 -9.55 -3.55 L-10.85 -3.65 Q-13.0 -12.55 -14.85 -16.95 -17.25 -14.55 -22.5 -7.65 -29.0 0.95 -29.0 3.35 -29.0 5.75 -24.05 16.0 -19.45 25.65 -17.9 27.45 L-16.75 19.1 -15.7 11.7 Q-15.7 10.35 -16.0 7.95 -16.35 5.3 -16.7 4.7 L-16.8 4.7 Q-17.65 10.95 -17.65 14.55 L-18.2 15.15 -19.5 15.15 -19.7 10.6 Q-19.7 9.5 -18.8 5.7 -17.8 1.55 -17.15 1.55 -14.4 1.55 -13.75 6.75 -13.45 9.35 -13.7 12.05 -13.7 13.8 -14.8 21.65 L-15.9 30.15 -16.75 30.5 Q-20.9 30.25 -26.15 18.35 -30.95 7.6 -30.95 3.15 -30.95 -0.45 -26.2 -6.85 -23.6 -10.35 -18.8 -15.85 -13.25 -22.55 -10.6 -14.95 M-4.75 -0.1 L-4.85 -1.55 Q-4.85 -3.8 -0.45 -5.35 3.95 -6.95 3.95 -3.6 3.95 -2.25 1.1 2.7 L-1.8 7.45 2.25 13.25 Q6.6 19.15 7.5 21.45 L7.3 21.9 6.45 22.1 Q5.45 22.1 -3.6 8.6 L-3.85 10.05 Q-5.45 19.75 -5.45 22.55 L-6.0 23.1 -7.3 23.0 -7.4 19.4 Q-7.4 7.15 -4.0 -0.1 L-4.75 -0.1" fill="#ffffff" fill-rule="evenodd" stroke="none"/>
  </g>
</svg>