<?xml version="1.0" encoding="UTF-8" standalone="no"?>
<svg xmlns:xlink="http://www.w3.org/1999/xlink" height="65.7px" width="115.55px" xmlns="http://www.w3.org/2000/svg">
  <g transform="matrix(1.0, 0.0, 0.0, 1.0, 102.05, 31.8)">
    <path d="M-101.05 -8.05 Q-96.4 -8.25 -89.65 -6.75 L-77.5 -3.5 -77.6 -2.75 -78.75 -2.55 Q-81.45 -2.55 -90.2 -4.85 -97.5 -6.8 -101.05 -8.05 M-69.7 -26.3 L-69.8 -25.95 -70.45 -25.8 Q-72.0 -25.8 -82.15 -30.8 L-75.35 -29.35 Q-72.55 -28.5 -69.7 -26.6 L-69.7 -26.3 M-20.05 -1.85 L-20.75 -1.75 Q-21.15 -1.75 -29.15 -5.8 L-39.35 -10.85 Q-36.85 -11.05 -29.6 -7.55 -22.9 -4.3 -19.95 -1.95 L-20.05 -1.85 M-19.7 15.05 L-19.9 15.75 -32.2 15.75 -35.5 15.55 -37.15 15.15 -37.1 14.9 -29.45 14.5 -29.45 14.4 -20.4 14.35 -19.9 14.45 Q-19.7 14.55 -19.7 15.05 M-10.85 7.7 Q-6.5 8.2 0.45 10.35 L12.3 14.35 12.4 14.85 12.5 15.2 Q12.6 15.4 12.05 15.4 10.45 15.4 0.4 12.0 L-10.85 8.15 -10.85 7.7 M-1.35 19.15 Q5.5 17.15 9.5 17.15 L11.05 17.3 12.15 17.65 0.6 20.1 -10.35 22.25 -10.5 22.05 -1.35 19.15 M-32.65 31.25 Q-38.0 32.9 -42.7 32.9 -43.55 32.9 -43.15 32.6 -42.1 31.85 -38.35 31.1 L-33.5 30.45 -29.35 29.6 -25.45 28.85 -32.65 31.25 M-75.85 22.3 L-76.05 22.55 -76.8 23.2 -94.15 23.6 -94.9 23.35 Q-93.55 22.35 -85.65 22.05 L-76.1 21.9 -75.85 22.3" fill="#ffffff" fill-opacity="0.9882353" fill-rule="evenodd" stroke="none"/>
  </g>
</svg>