<?xml version="1.0" encoding="UTF-8" standalone="no"?>
<svg xmlns:xlink="http://www.w3.org/1999/xlink" height="64.1px" width="76.35px" xmlns="http://www.w3.org/2000/svg">
  <g transform="matrix(1.0, 0.0, 0.0, 1.0, 64.85, 33.55)">
    <path d="M-63.7 -0.7 L-48.35 1.05 Q-32.6 2.7 -24.6 4.4 L-24.5 4.65 Q-24.7 5.15 -25.55 5.15 -45.4 5.15 -63.85 -0.45 L-63.7 -0.7 M-49.8 -32.55 Q-40.5 -28.45 -32.3 -22.05 L-19.3 -11.1 -19.8 -10.5 -34.0 -20.85 Q-43.45 -28.0 -50.15 -32.4 L-49.8 -32.55 M-0.35 -0.9 Q5.45 3.4 9.35 7.0 L9.2 7.45 Q9.5 7.7 8.65 7.7 7.6 7.7 0.6 2.0 -6.1 -3.45 -10.15 -7.4 -6.35 -5.35 -0.35 -0.9 M-21.6 -1.75 L-6.7 4.45 Q2.3 8.2 5.6 11.05 L5.5 11.55 Q5.85 11.8 4.95 11.8 L-21.9 -1.6 -21.6 -1.75 M-34.5 10.85 Q-28.05 10.95 -17.15 12.65 -4.15 14.75 6.5 15.5 L6.85 16.15 4.75 16.6 2.15 16.8 Q-1.25 16.8 -16.6 14.2 L-34.5 11.05 -34.5 10.85 M-24.4 22.8 Q-24.05 22.9 -24.05 23.45 L-24.15 24.0 -24.5 24.05 Q-28.8 23.5 -36.6 26.45 -44.9 29.55 -47.55 29.55 -48.4 29.55 -48.2 29.3 L-48.2 28.85 Q-44.7 28.35 -36.8 25.1 -30.25 22.45 -24.95 22.75 L-24.4 22.8 M-18.1 28.2 Q-11.9 25.4 -6.35 23.6 1.05 21.25 9.5 19.95 L10.5 20.9 Q9.2 22.2 5.45 22.7 L1.1 23.1 -6.5 25.35 -11.2 26.55 -18.1 28.2" fill="#ffffff" fill-opacity="0.9882353" fill-rule="evenodd" stroke="none"/>
  </g>
</svg>