<?xml version="1.0" encoding="UTF-8" standalone="no"?>
<svg xmlns:xlink="http://www.w3.org/1999/xlink" height="54.35px" width="73.7px" xmlns="http://www.w3.org/2000/svg">
  <g transform="matrix(1.0, 0.0, 0.0, 1.0, 59.15, 18.55)">
    <path d="M-58.15 -7.85 L-57.95 -8.1 Q-48.75 -7.65 -27.4 -0.25 -9.9 5.85 5.15 12.65 L5.05 13.0 4.4 13.15 Q1.6 13.15 -13.95 6.8 L-33.0 -0.95 -45.55 -4.8 -58.15 -7.85 M-29.15 -17.3 L-29.15 -17.55 Q-20.4 -13.95 -7.0 -5.6 9.0 4.4 13.45 6.7 L13.55 7.0 13.2 7.35 12.35 7.55 Q10.8 7.55 -5.6 -2.7 L-29.15 -17.3 M-15.45 15.8 L-24.5 15.75 -38.5 15.05 -24.15 14.4 Q-10.4 14.85 -6.2 15.8 -2.55 17.05 3.05 17.9 L3.15 18.2 2.2 18.55 0.7 18.75 -7.7 17.35 -15.45 15.8 M-36.45 34.7 L-37.05 34.8 -37.2 34.25 Q-37.2 33.75 -20.2 29.3 -3.6 25.0 -0.25 24.5 L6.3 24.6 8.15 24.85 8.4 25.3 Q5.45 28.1 2.9 27.2 -1.0 25.85 -4.35 26.6 L-9.2 27.9 -14.25 28.85 -20.0 30.65 -27.9 32.7 -36.45 34.7" fill="#ffffff" fill-opacity="0.9882353" fill-rule="evenodd" stroke="none"/>
  </g>
</svg>