<?xml version="1.0" encoding="UTF-8" standalone="no"?>
<svg xmlns:xlink="http://www.w3.org/1999/xlink" height="57.7px" width="79.65px" xmlns="http://www.w3.org/2000/svg">
  <g transform="matrix(1.0, 0.0, 0.0, 1.0, 90.65, 16.8)">
    <path d="M-50.4 -10.55 L-50.4 -10.2 Q-50.4 -10.05 -50.9 -10.05 L-55.3 -11.55 -61.3 -13.65 Q-58.1 -14.9 -54.45 -13.5 -52.0 -12.55 -50.5 -11.05 L-50.4 -10.55 M-12.05 -7.35 L-12.1 -7.35 -12.3 -7.2 -12.7 -6.9 -18.55 -11.35 -24.0 -15.8 Q-22.8 -15.6 -17.45 -12.25 -12.0 -8.85 -12.0 -8.0 L-12.05 -7.35 M-61.35 27.75 Q-64.0 29.8 -68.0 29.65 -74.0 29.4 -74.6 29.5 L-76.55 29.05 Q-74.4 28.05 -72.55 27.65 L-61.7 27.15 -61.45 27.4 -61.35 27.75 M-44.35 37.45 Q-45.0 38.05 -52.85 39.9 L-53.3 39.85 -53.45 39.25 Q-53.45 38.6 -49.35 37.5 -45.75 36.55 -44.65 36.45 L-44.35 37.45 M-83.1 8.45 L-83.35 9.1 -87.15 9.45 -88.7 9.3 -89.65 8.95 Q-87.6 7.7 -83.8 7.75 -83.3 8.0 -83.1 8.45" fill="#ffffff" fill-opacity="0.9882353" fill-rule="evenodd" stroke="none"/>
  </g>
</svg>