<?xml version="1.0" encoding="UTF-8" standalone="no"?>
<svg xmlns:xlink="http://www.w3.org/1999/xlink" height="30.7px" width="17.5px" xmlns="http://www.w3.org/2000/svg">
  <g transform="matrix(1.0, 0.0, 0.0, 1.0, 0.95, 1)">
    <path d="M4.4 11.5 Q5.35 9.7 7.3 9.6 9.6 9.45 10.45 12.8 10.85 14.15 9.65 16.05 L8.1 17.5 7.15 17.65 6.1 17.45 5.1 16.8 Q3.95 15.75 3.95 13.95 3.95 12.35 4.4 11.5" fill="#000000" fill-rule="evenodd" stroke="none"/>
    <path d="M4.05 18.3 Q3.05 16.9 2.9 15.7 2.65 14.3 2.8 12.8 2.9 11.25 3.8 10.45 3.1 12.55 3.4 15.15 3.6 17.2 4.15 18.3 L4.4 18.75 4.05 18.3 M9.7 18.3 L10.2 17.6 Q11.9 15.0 11.65 11.85 L11.3 10.15 Q12.15 11.1 12.25 12.4 12.4 14.7 11.3 16.7 L10.65 17.65 9.95 18.3 9.4 18.65 9.7 18.3 M12.8 11.35 Q13.85 12.35 13.45 14.35 13.05 16.35 12.45 16.55 13.55 14.3 12.85 11.75 L12.8 11.35 M3.7 2.15 L3.7 2.25 3.7 2.15 M1.75 13.4 L2.3 12.1 Q1.8 13.95 2.5 16.65 1.25 14.75 1.75 13.4" fill="#707093" fill-rule="evenodd" stroke="none"/>
    <path d="M10.9 4.0 L10.75 3.25 10.6 2.7 10.25 2.65 9.9 3.25 9.8 3.35 8.8 4.3 8.65 3.95 8.45 3.45 8.45 3.15 8.3 2.4 5.45 2.6 5.35 2.95 4.7 4.4 4.3 4.0 4.05 3.7 3.85 3.45 3.65 3.05 3.5 3.1 3.45 3.35 3.4 3.55 2.55 5.2 2.35 5.3 1.95 4.7 1.95 3.9 2.6 2.8 3.2 2.0 3.65 1.5 6.65 0.9 Q8.8 0.5 10.35 1.3 L10.4 1.3 12.15 3.35 12.25 3.45 12.7 4.2 12.75 4.3 12.6 4.6 12.15 5.35 11.65 5.65 11.4 5.5 10.95 4.35 10.9 4.0 M11.2 3.75 L11.45 5.0 11.6 3.3 Q11.6 2.8 11.0 2.2 L11.1 3.3 11.15 3.65 11.2 3.75 M8.95 1.35 L8.75 1.6 8.7 3.45 8.8 3.75 8.9 3.8 9.1 3.2 9.25 2.25 8.95 1.35 M5.55 2.0 L5.9 2.05 6.9 1.9 Q6.75 1.4 5.75 1.35 L5.55 1.85 5.55 2.0 M3.7 2.15 L3.7 2.25 3.7 2.15 M2.9 2.85 L2.85 2.9 2.65 3.5 2.5 3.8 2.5 4.55 Q3.1 3.7 3.1 3.25 L3.0 2.7 2.9 2.85 M4.25 2.4 Q4.15 2.0 3.9 1.9 L3.8 1.95 3.8 2.4 3.9 2.9 4.0 3.1 4.45 3.8 4.5 3.8 4.5 3.2 4.4 2.9 4.25 2.4" fill="#c2c095" fill-rule="evenodd" stroke="none"/>
    <path d="M10.4 1.3 L10.35 1.3 Q8.8 0.5 6.65 0.9 L3.65 1.5 Q5.15 0.0 7.05 0.0 8.85 0.0 10.4 1.3" fill="#c29595" fill-rule="evenodd" stroke="none"/>
    <path d="M10.9 4.0 L10.95 4.35 11.4 5.5 11.65 5.65 12.15 5.35 12.6 4.6 12.75 4.3 13.45 5.6 13.35 5.6 12.85 5.4 12.45 5.75 Q12.2 6.1 11.85 6.1 11.55 6.1 11.35 5.9 L11.15 5.7 Q10.8 5.25 10.8 4.45 L10.9 4.0 M1.95 3.9 L1.95 4.7 2.35 5.3 2.55 5.2 3.4 3.55 3.45 3.35 3.5 3.1 3.65 3.05 3.85 3.45 4.05 3.7 4.3 4.0 4.3 4.15 4.1 5.2 4.0 5.4 3.2 5.9 2.8 5.7 2.65 5.5 2.4 5.6 2.15 5.7 1.75 5.65 1.4 5.15 1.45 5.0 1.5 4.9 1.8 4.2 1.95 3.9 M2.05 22.7 Q2.3 22.35 2.65 22.35 L3.1 22.75 3.25 23.45 Q3.3 23.1 3.65 22.9 3.95 22.65 4.25 22.65 4.6 22.65 4.75 23.0 L4.9 23.85 4.75 25.0 4.65 25.2 5.7 26.05 Q6.85 26.85 7.45 26.85 8.4 26.85 10.1 25.9 L11.05 25.3 11.3 25.15 Q11.0 24.55 10.95 23.75 L10.95 23.35 10.95 23.3 Q10.95 22.85 11.35 22.45 L11.75 22.1 12.0 22.0 Q12.3 22.0 12.55 22.4 L12.7 23.2 13.35 22.4 14.0 21.8 Q14.45 21.8 14.7 22.05 L14.45 22.9 13.75 24.5 12.9 26.0 Q11.1 28.7 8.5 28.7 5.8 28.7 3.6 25.65 L2.85 24.5 2.0 22.8 2.05 22.7" fill="#8c8a5f" fill-rule="evenodd" stroke="none"/>
    <path d="M4.1 5.2 Q4.5 5.4 4.6 6.3 L4.45 6.95 Q4.15 7.45 3.3 7.45 L2.8 7.2 2.6 6.85 2.1 7.2 2.0 7.2 1.85 7.1 1.6 6.2 Q1.6 5.8 1.75 5.65 L2.15 5.7 2.4 5.6 2.65 5.5 2.8 5.7 3.2 5.9 4.0 5.4 4.1 5.2 M11.65 7.25 Q11.2 7.05 11.2 6.3 L11.3 5.95 11.35 5.9 Q11.55 6.1 11.85 6.1 12.2 6.1 12.45 5.75 L12.85 5.4 13.35 5.6 13.45 5.6 13.7 6.05 13.95 6.65 14.0 6.85 14.1 7.05 13.55 7.15 Q13.1 7.15 12.65 6.7 L12.35 7.05 11.9 7.25 11.65 7.25" fill="#706e49" fill-rule="evenodd" stroke="none"/>
    <path d="M4.3 4.0 L4.7 4.4 5.35 2.95 5.45 2.6 8.3 2.4 8.45 3.15 8.45 3.45 8.65 3.95 8.8 4.3 9.8 3.35 9.9 3.25 10.25 2.65 10.6 2.7 10.75 3.25 10.9 4.0 10.8 4.45 Q10.8 5.25 11.15 5.7 L11.35 5.9 11.3 5.95 11.2 6.3 Q11.2 7.05 11.65 7.25 L11.6 7.45 Q11.6 8.4 12.1 8.4 L12.65 8.1 13.15 8.3 13.75 8.5 Q14.3 8.5 14.45 8.05 15.35 10.9 15.5 14.35 L15.45 18.3 9.95 18.3 10.65 17.65 11.3 16.7 Q12.4 14.7 12.25 12.4 12.15 11.1 11.3 10.15 L11.65 11.85 Q11.9 15.0 10.2 17.6 L9.7 18.3 4.15 18.3 Q3.6 17.2 3.4 15.15 3.1 12.55 3.8 10.45 2.9 11.25 2.8 12.8 2.65 14.3 2.9 15.7 3.05 16.9 4.05 18.3 L0.55 18.3 Q0.15 16.4 0.05 14.3 -0.05 11.35 0.35 8.85 L0.7 7.3 1.0 6.2 1.4 5.15 1.75 5.65 Q1.6 5.8 1.6 6.2 L1.85 7.1 2.0 7.2 1.95 7.4 Q1.95 7.85 2.2 8.0 L2.7 8.05 3.35 8.45 Q3.85 8.45 4.25 8.05 L4.55 7.35 4.45 6.95 4.6 6.3 Q4.5 5.4 4.1 5.2 L4.3 4.15 4.3 4.0 M12.8 11.35 L12.85 11.75 Q13.55 14.3 12.45 16.55 13.05 16.35 13.45 14.35 13.85 12.35 12.8 11.35 M4.4 11.5 Q3.95 12.35 3.95 13.95 3.95 15.75 5.1 16.8 L6.1 17.45 7.15 17.65 8.1 17.5 9.65 16.05 Q10.85 14.15 10.45 12.8 9.6 9.45 7.3 9.6 5.35 9.7 4.4 11.5 M1.75 13.4 Q1.25 14.75 2.5 16.65 1.8 13.95 2.3 12.1 L1.75 13.4" fill="url(#gradient0)" fill-rule="evenodd" stroke="none"/>
    <path d="M0.55 18.3 L4.05 18.3 4.4 18.75 4.15 18.3 9.7 18.3 9.4 18.65 9.95 18.3 15.45 18.3 14.95 21.2 14.75 20.55 Q14.4 19.7 13.9 19.7 13.45 19.7 13.2 20.1 L13.05 20.7 12.6 20.15 12.25 20.2 Q11.35 20.45 11.75 22.1 L11.35 22.45 Q10.95 22.85 10.95 23.3 L10.95 23.35 10.95 23.75 Q11.0 24.55 11.3 25.15 L11.05 25.3 10.1 25.9 Q8.4 26.85 7.45 26.85 6.85 26.85 5.7 26.05 L4.65 25.2 4.75 25.0 4.9 23.85 4.75 23.0 5.05 22.7 5.3 22.05 5.3 21.9 Q5.3 20.65 4.6 20.65 L4.25 20.75 3.95 20.9 Q3.45 21.15 3.4 21.55 3.4 21.0 3.0 20.65 1.6 21.7 2.05 22.7 L2.0 22.8 Q1.05 20.75 0.55 18.3 M13.05 20.7 L13.1 20.8 13.1 20.9 13.05 20.7" fill="url(#gradient1)" fill-rule="evenodd" stroke="none"/>
    <path d="M11.2 3.75 L11.15 3.65 11.1 3.3 11.0 2.2 Q11.6 2.8 11.6 3.3 L11.45 5.0 11.2 3.75 M5.55 2.0 L5.55 1.85 5.75 1.35 Q6.75 1.4 6.9 1.9 L5.9 2.05 5.55 2.0 M8.95 1.35 L9.25 2.25 9.1 3.2 8.9 3.8 8.8 3.75 8.7 3.45 8.75 1.6 8.95 1.35 M4.25 2.4 L4.4 2.9 4.5 3.2 4.5 3.8 4.45 3.8 4.0 3.1 3.9 2.9 3.8 2.4 3.8 1.95 3.9 1.9 Q4.15 2.0 4.25 2.4 M2.9 2.85 L3.0 2.7 3.1 3.25 Q3.1 3.7 2.5 4.55 L2.5 3.8 2.65 3.5 2.85 2.9 2.9 2.85" fill="#ffffff" fill-rule="evenodd" stroke="none"/>
    <path d="M4.45 6.95 L4.55 7.35 4.25 8.05 Q3.85 8.45 3.35 8.45 L2.7 8.05 2.2 8.0 Q1.95 7.85 1.95 7.4 L2.0 7.2 2.1 7.2 2.6 6.85 2.8 7.2 3.3 7.45 Q4.15 7.45 4.45 6.95 M14.45 8.05 Q14.3 8.5 13.75 8.5 L13.15 8.3 12.65 8.1 12.1 8.4 Q11.6 8.4 11.6 7.45 L11.65 7.25 11.9 7.25 12.35 7.05 12.65 6.7 Q13.1 7.15 13.55 7.15 L14.1 7.05 14.4 7.95 14.45 8.05 M2.05 22.7 Q1.6 21.7 3.0 20.65 3.4 21.0 3.4 21.55 3.45 21.15 3.95 20.9 L4.25 20.75 4.6 20.65 Q5.3 20.65 5.3 21.9 L5.3 22.05 5.05 22.7 4.75 23.0 Q4.6 22.65 4.25 22.65 3.95 22.65 3.65 22.9 3.3 23.1 3.25 23.45 L3.1 22.75 2.65 22.35 Q2.3 22.35 2.05 22.7 M11.75 22.1 Q11.35 20.45 12.25 20.2 L12.6 20.15 13.05 20.7 13.2 20.1 Q13.45 19.7 13.9 19.7 14.4 19.7 14.75 20.55 L14.95 21.2 14.7 22.05 Q14.45 21.8 14.0 21.8 L13.35 22.4 12.7 23.2 12.55 22.4 Q12.3 22.0 12.0 22.0 L11.75 22.1 M13.05 20.7 L13.1 20.9 13.1 20.8 13.05 20.7" fill="#515033" fill-rule="evenodd" stroke="none"/>
  </g>
  <defs>
    <linearGradient gradientTransform="matrix(0.0, 0.007, -0.0095, 0.0, 7.8, 8.85)" gradientUnits="userSpaceOnUse" id="gradient0" spreadMethod="pad" x1="-819.2" x2="819.2">
      <stop offset="0.0" stop-color="#000000"></stop>
      <stop offset="1.0" stop-color="#383851"></stop>
    </linearGradient>
    <linearGradient gradientTransform="matrix(0.0, -0.0052, 0.0091, 0.0, 8.0, 23.25)" gradientUnits="userSpaceOnUse" id="gradient1" spreadMethod="pad" x1="-819.2" x2="819.2">
      <stop offset="0.0" stop-color="#000000"></stop>
      <stop offset="1.0" stop-color="#383851"></stop>
    </linearGradient>
  </defs>
</svg>