<?xml version="1.0" encoding="UTF-8" standalone="no"?>
<svg xmlns:xlink="http://www.w3.org/1999/xlink" height="54.9px" width="92.35px" xmlns="http://www.w3.org/2000/svg">
  <g transform="matrix(1.0, 0.0, 0.0, 1.0, 75.6, 26.7)">
    <path d="M-50.1 -25.7 Q-45.95 -25.3 -31.3 -15.95 -35.15 -16.75 -41.25 -19.95 -44.6 -21.7 -50.15 -24.85 L-50.1 -25.7 M-67.2 -22.8 Q-62.4 -21.2 -54.7 -17.7 L-43.15 -12.3 -43.3 -11.9 Q-47.75 -13.0 -55.4 -16.5 L-67.2 -22.25 -67.2 -22.8 M-41.45 -4.35 Q-35.7 -2.9 -31.85 -1.65 -24.55 0.75 -24.25 3.05 L-24.25 3.15 -33.2 -0.15 Q-38.5 -2.05 -41.45 -3.7 L-41.45 -4.35 M-7.0 15.05 Q-7.0 13.7 -1.45 14.0 4.2 14.3 8.85 16.0 L7.7 16.3 -5.3 15.75 -6.75 15.75 -6.85 15.65 -7.0 15.05 M-12.95 1.55 Q-8.1 2.9 2.15 7.6 11.0 11.65 15.75 14.35 15.5 15.05 15.05 15.2 11.35 13.8 2.25 9.5 L-12.95 2.25 -12.95 1.55 M-33.15 7.95 L-44.1 6.55 -44.2 5.8 Q-38.75 4.95 -32.55 7.2 L-32.55 7.7 -32.55 7.85 -33.15 7.95 M-37.65 25.3 L-37.75 25.65 -38.45 25.8 -60.1 24.25 -59.95 24.0 -48.1 24.6 Q-39.5 25.0 -38.4 24.35 L-37.7 24.85 -37.65 25.3 M-18.45 27.2 L-7.2 24.0 7.8 20.45 Q6.1 21.45 2.8 22.6 -0.9 23.8 -2.9 23.8 L-10.35 25.4 -18.45 27.2 M-56.35 10.9 Q-71.2 6.0 -74.6 5.25 -68.55 5.2 -56.65 8.9 L-42.05 13.85 Q-45.25 14.65 -56.35 10.9" fill="#ffffff" fill-opacity="0.9882353" fill-rule="evenodd" stroke="none"/>
  </g>
</svg>