<?xml version="1.0" encoding="UTF-8" standalone="no"?>
<svg xmlns:xlink="http://www.w3.org/1999/xlink" height="40.5px" width="71.9px" xmlns="http://www.w3.org/2000/svg">
  <g transform="matrix(1.0, 0.0, 0.0, 1.0, 59.95, 15.7)">
    <path d="M-28.05 -14.7 Q-23.5 -14.7 -19.8 -11.8 L-13.5 -6.35 Q-19.15 -8.95 -28.05 -14.7 M-13.35 5.75 L-1.9 8.45 Q5.2 10.35 10.95 12.85 L10.95 13.35 Q10.9 13.7 10.35 13.7 6.8 13.7 -13.65 5.95 L-13.35 5.75 M-12.5 14.2 Q-14.75 17.0 -20.45 17.5 -23.3 17.75 -26.3 17.4 -27.2 17.4 -26.85 17.15 -24.8 16.15 -20.1 15.2 L-12.5 14.2 M-38.75 4.9 L-39.2 5.3 Q-39.45 4.9 -40.7 4.95 -42.85 5.0 -45.85 4.1 L-54.95 4.0 -58.95 3.35 -58.9 3.15 -54.6 2.85 Q-40.8 2.55 -38.7 4.35 L-38.75 4.9 M-55.8 23.1 L-55.9 22.55 Q-53.95 20.6 -49.85 21.3 L-45.6 22.45 -45.15 23.15 Q-45.35 23.8 -46.4 23.8 L-51.15 23.55 -55.8 23.1 M1.9 21.9 L-6.5 23.45 Q-2.15 20.3 10.6 19.05 7.8 20.7 1.9 21.9" fill="#ffffff" fill-opacity="0.9882353" fill-rule="evenodd" stroke="none"/>
  </g>
</svg>