<?xml version="1.0" encoding="UTF-8" standalone="no"?>
<svg xmlns:xlink="http://www.w3.org/1999/xlink" height="17.9px" width="17.9px" xmlns="http://www.w3.org/2000/svg">
  <g transform="matrix(1.0, 0.0, 0.0, 1.0, 1, 1)">
    <path d="M12.7 1.6 Q11.85 1.6 11.1 3.1 10.3 4.55 10.35 5.75 10.6 10.5 8.8 12.3 7.65 13.45 5.2 13.45 3.45 13.45 2.2 12.85 L2.45 13.1 Q4.75 15.45 8.05 15.45 11.35 15.45 13.65 13.1 15.25 11.5 15.75 9.5 15.3 11.8 13.55 13.55 11.25 15.9 7.95 15.9 4.65 15.9 2.35 13.55 L1.25 12.2 Q0.0 10.3 0.0 7.95 0.0 6.85 0.25 5.85 0.5 5.0 0.9 4.2 L1.15 3.85 2.3 2.3 Q4.65 0.0 7.9 0.0 10.65 0.0 12.7 1.6" fill="#ffffff" fill-rule="evenodd" stroke="none"/>
    <path d="M15.1 4.45 Q15.85 6.0 15.9 7.9 L15.75 9.5 Q15.25 11.5 13.65 13.1 11.35 15.45 8.05 15.45 4.75 15.45 2.45 13.1 L2.2 12.85 Q3.45 13.45 5.2 13.45 7.65 13.45 8.8 12.3 10.6 10.5 10.35 5.75 10.3 4.55 11.1 3.1 11.85 1.6 12.7 1.6 L13.5 2.3 Q14.5 3.3 15.1 4.45" fill="url(#gradient0)" fill-rule="evenodd" stroke="none"/>
    <path d="M15.75 9.5 L15.9 7.9 Q15.85 6.0 15.1 4.45 M15.75 9.5 Q15.3 11.8 13.55 13.55 11.25 15.9 7.95 15.9 4.65 15.9 2.35 13.55 L1.25 12.2 Q0.0 10.3 0.0 7.95 0.0 6.85 0.25 5.85 0.5 5.0 0.9 4.2" fill="none" stroke="#9a99c6" stroke-linecap="round" stroke-linejoin="round" stroke-width="1"/>
  </g>
  <defs>
    <linearGradient gradientTransform="matrix(-6.0E-4, 0.0078, -0.0087, -7.0E-4, 8.65, 9.35)" gradientUnits="userSpaceOnUse" id="gradient0" spreadMethod="pad" x1="-819.2" x2="819.2">
      <stop offset="0.0" stop-color="#ffffff"></stop>
      <stop offset="0.3568627450980392" stop-color="#bcbbd9"></stop>
      <stop offset="1.0" stop-color="#fefefe"></stop>
    </linearGradient>
  </defs>
</svg>