<?xml version="1.0" encoding="UTF-8" standalone="no"?>
<svg xmlns:xlink="http://www.w3.org/1999/xlink" height="9.8px" width="10.7px" xmlns="http://www.w3.org/2000/svg">
  <g transform="matrix(1.0, 0.0, 0.0, 1.0, 1.55, 1.2)">
    <path d="M0.1 4.55 L0.0 3.7 0.0 3.6 0.1 4.3 0.3 4.85 Q0.6 5.55 1.05 5.55 L1.4 5.2 Q1.55 4.85 1.75 4.85 L2.3 5.45 Q2.5 6.05 3.2 6.05 L3.85 5.5 Q4.1 4.95 4.4 4.95 L4.9 5.3 5.45 5.6 6.3 4.75 6.65 3.15 Q6.65 4.25 6.3 5.0 L5.45 5.85 4.9 5.55 4.4 5.2 Q4.1 5.2 3.85 5.75 L3.2 6.3 Q2.5 6.3 2.3 5.7 L1.75 5.1 Q1.55 5.1 1.4 5.45 L1.05 5.8 Q0.6 5.8 0.3 5.1 L0.1 4.55" fill="#7b6a73" fill-rule="evenodd" stroke="none"/>
    <path d="M5.0 2.85 L4.85 3.1 4.7 3.3 4.15 3.45 3.85 3.4 3.65 2.8 Q3.65 2.15 4.2 2.15 4.95 2.15 5.0 2.85 M1.2 2.55 Q1.4 2.1 2.1 2.1 2.5 2.1 2.5 2.8 L2.45 3.2 2.2 3.45 2.05 3.55 1.85 3.55 1.35 3.4 Q1.2 3.25 1.2 2.75 L1.2 2.55" fill="#3a3437" fill-rule="evenodd" stroke="none"/>
    <path d="M5.25 0.7 L5.35 0.8 6.15 1.75 6.25 1.95 6.65 3.15 6.3 4.75 5.45 5.6 4.9 5.3 4.4 4.95 Q4.1 4.95 3.85 5.5 L3.2 6.05 Q2.5 6.05 2.3 5.45 L1.75 4.85 Q1.55 4.85 1.4 5.2 L1.05 5.55 Q0.6 5.55 0.3 4.85 L0.1 4.3 0.0 3.6 0.3 2.15 0.45 1.9 Q0.75 1.25 1.55 0.7 L1.6 0.65 Q2.3 0.25 3.0 0.2 L3.4 0.15 3.55 0.15 Q4.4 0.2 5.25 0.7 M5.1 1.05 L4.75 0.9 4.7 0.9 4.7 1.15 4.9 1.35 5.25 1.6 5.3 1.45 5.1 1.05 M5.0 2.85 L5.05 2.55 Q5.05 2.05 4.7 1.75 4.4 1.5 4.05 1.5 3.15 1.5 3.55 2.8 L3.85 3.4 4.15 3.45 4.7 3.3 4.85 3.1 5.0 2.85 M1.2 2.55 L1.2 2.75 Q1.2 3.25 1.35 3.4 L1.85 3.55 2.05 3.55 2.2 3.45 2.45 3.2 2.55 2.55 Q2.55 1.65 1.85 1.65 1.25 1.65 1.2 2.55" fill="url(#gradient0)" fill-rule="evenodd" stroke="none"/>
    <path d="M3.85 3.4 L3.55 2.8 Q3.15 1.5 4.05 1.5 4.4 1.5 4.7 1.75 5.05 2.05 5.05 2.55 L5.0 2.85 Q4.95 2.15 4.2 2.15 3.65 2.15 3.65 2.8 L3.85 3.4 M2.45 3.2 L2.5 2.8 Q2.5 2.1 2.1 2.1 1.4 2.1 1.2 2.55 1.25 1.65 1.85 1.65 2.55 1.65 2.55 2.55 L2.45 3.2" fill="#231e20" fill-rule="evenodd" stroke="none"/>
    <path d="M5.1 1.05 L5.3 1.45 5.25 1.6 4.9 1.35 4.7 1.15 4.7 0.9 4.75 0.9 5.1 1.05" fill="#ffffff" fill-rule="evenodd" stroke="none"/>
    <path d="M7.5 0.8 L7.55 0.8 6.85 1.65 6.35 1.9 6.25 1.95 6.15 1.75 5.35 0.8 5.25 0.7 7.5 0.8 M0.45 1.9 L0.35 1.8 -0.15 1.1 -0.3 0.75 -0.3 0.7 Q0.65 0.95 1.55 0.7 0.75 1.25 0.45 1.9" fill="#ff0000" fill-rule="evenodd" stroke="none"/>
    <path d="M6.25 1.95 L6.35 1.9 6.85 1.65 Q7.7 2.95 7.7 3.7 7.7 4.6 7.3 5.6 6.75 6.85 5.9 6.85 L5.45 6.7 5.0 6.55 4.35 7.1 Q3.85 7.6 3.35 7.6 2.85 7.6 2.3 7.1 L1.7 6.55 1.25 6.8 0.55 6.4 Q0.1 5.8 0.1 4.6 L0.1 4.55 0.3 5.1 Q0.6 5.8 1.05 5.8 L1.4 5.45 Q1.55 5.1 1.75 5.1 L2.3 5.7 Q2.5 6.3 3.2 6.3 L3.85 5.75 Q4.1 5.2 4.4 5.2 L4.9 5.55 5.45 5.85 6.3 5.0 Q6.65 4.25 6.65 3.15 L6.25 1.95" fill="url(#gradient1)" fill-rule="evenodd" stroke="none"/>
    <path d="M7.5 0.8 L5.25 0.7 Q4.4 0.2 3.55 0.15 L6.4 0.1 8.15 -0.2 7.5 0.8" fill="url(#gradient2)" fill-rule="evenodd" stroke="none"/>
    <path d="M-0.3 0.75 L-0.55 0.3 Q-0.55 0.0 -0.2 0.0 L2.15 0.2 3.0 0.2 Q2.3 0.25 1.6 0.65 L1.55 0.7 Q0.65 0.95 -0.3 0.7 L-0.3 0.75" fill="url(#gradient3)" fill-rule="evenodd" stroke="none"/>
  </g>
  <defs>
    <linearGradient gradientTransform="matrix(0.0, 0.0023, -0.0041, 0.0, 3.35, 4.25)" gradientUnits="userSpaceOnUse" id="gradient0" spreadMethod="pad" x1="-819.2" x2="819.2">
      <stop offset="0.0" stop-color="#7b6a73"></stop>
      <stop offset="1.0" stop-color="#5d4f57"></stop>
    </linearGradient>
    <linearGradient gradientTransform="matrix(0.0, 0.0033, -0.0046, 0.0, 3.9, 4.95)" gradientUnits="userSpaceOnUse" id="gradient1" spreadMethod="pad" x1="-819.2" x2="819.2">
      <stop offset="0.0" stop-color="#bcbbd9"></stop>
      <stop offset="1.0" stop-color="#fefefe"></stop>
    </linearGradient>
    <linearGradient gradientTransform="matrix(0.0, -6.0E-4, 0.0028, 0.0, 5.85, 0.15)" gradientUnits="userSpaceOnUse" id="gradient2" spreadMethod="pad" x1="-819.2" x2="819.2">
      <stop offset="0.0" stop-color="#bcbbd9"></stop>
      <stop offset="1.0" stop-color="#fefefe"></stop>
    </linearGradient>
    <linearGradient gradientTransform="matrix(0.0, -7.0E-4, 0.0022, 0.0, 1.2, 0.0)" gradientUnits="userSpaceOnUse" id="gradient3" spreadMethod="pad" x1="-819.2" x2="819.2">
      <stop offset="0.0" stop-color="#bcbbd9"></stop>
      <stop offset="1.0" stop-color="#fefefe"></stop>
    </linearGradient>
  </defs>
</svg>