<?xml version="1.0" encoding="UTF-8" standalone="no"?>
<svg xmlns:xlink="http://www.w3.org/1999/xlink" height="16.85px" width="14.3px" xmlns="http://www.w3.org/2000/svg">
  <g transform="matrix(1.0, 0.0, 0.0, 1.0, 1, 1)">
    <path d="M10.45 2.15 Q12.25 4.35 12.3 7.4 12.3 10.45 10.5 12.65 8.7 14.85 6.15 14.85 3.6 14.85 1.8 12.65 L0.95 11.4 Q0.0 9.6 0.0 7.45 0.0 4.35 1.8 2.15 3.6 0.0 6.1 0.0 8.25 0.0 9.8 1.5 L10.45 2.15" fill="#ffffff" fill-rule="evenodd" stroke="none"/>
    <path d="M10.45 2.15 L9.8 1.5 Q8.25 0.0 6.1 0.0 3.6 0.0 1.8 2.15 0.0 4.35 0.0 7.45 0.0 9.6 0.95 11.4 L1.8 12.65 Q3.6 14.85 6.15 14.85 8.7 14.85 10.5 12.65 12.3 10.45 12.3 7.4 12.25 4.35 10.45 2.15 Z" fill="none" stroke="#9a99c6" stroke-linecap="round" stroke-linejoin="round" stroke-width="1"/>
  </g>
</svg>