<?xml version="1.0" encoding="UTF-8" standalone="no"?>
<svg xmlns:xlink="http://www.w3.org/1999/xlink" height="15.45px" width="9.1px" xmlns="http://www.w3.org/2000/svg">
  <g transform="matrix(1.0, 0.0, 0.0, 1.0, 1, 1)">
    <path d="M2.9 10.75 L2.55 10.4 1.8 7.75 Q1.2 5.45 1.05 4.0 L1.0 1.3 Q1.0 0.4 1.15 0.0 L1.9 0.1 Q2.95 0.4 4.45 2.05 6.75 4.65 6.75 7.85 L6.6 9.45 6.3 9.4 6.3 10.1 6.35 10.15 5.9 10.85 5.85 10.95 5.6 10.75 4.95 10.5 4.6 10.85 4.55 11.1 4.8 11.75 3.75 12.05 3.75 11.8 3.65 11.05 3.6 10.95 3.0 10.75 2.9 10.75" fill="#fefeff" fill-rule="evenodd" stroke="none"/>
    <path d="M2.15 11.8 L2.15 11.55 Q2.4 10.9 2.6 10.8 L2.9 10.75 3.0 10.75 3.6 10.95 3.65 11.05 3.75 11.8 3.75 12.05 Q3.55 13.45 2.95 13.45 2.25 13.45 2.15 11.8 M6.6 9.45 L6.7 9.5 6.85 9.65 7.1 10.15 6.95 10.6 6.35 10.15 6.3 10.1 6.3 9.4 6.6 9.45 M5.85 10.95 L6.1 11.75 Q6.1 12.5 5.6 12.5 5.2 12.5 4.95 12.05 L4.8 11.75 4.55 11.1 4.6 10.85 4.95 10.5 5.6 10.75 5.85 10.95" fill="#7b6a73" fill-rule="evenodd" stroke="none"/>
    <path d="M2.15 11.8 Q1.25 11.4 0.3 5.9 -0.6 0.3 1.1 0.0 L1.15 0.0 Q1.0 0.4 1.0 1.3 L1.05 4.0 Q1.2 5.45 1.8 7.75 L2.55 10.4 2.9 10.75 2.6 10.8 Q2.4 10.9 2.15 11.55 L2.15 11.8" fill="url(#gradient0)" fill-rule="evenodd" stroke="none"/>
    <path d="M1.15 0.0 L1.1 0.0 Q-0.6 0.3 0.3 5.9 1.25 11.4 2.15 11.8 2.25 13.45 2.95 13.45 3.55 13.45 3.75 12.05 L4.8 11.75 4.95 12.05 Q5.2 12.5 5.6 12.5 6.1 12.5 6.1 11.75 L5.85 10.95 5.9 10.85 6.35 10.15 6.95 10.6 7.1 10.15 6.85 9.65 6.7 9.5 6.6 9.45 6.75 7.85 Q6.75 4.65 4.45 2.05 2.95 0.4 1.9 0.1 L1.15 0.0 Z" fill="none" stroke="#9a99c6" stroke-linecap="round" stroke-linejoin="round" stroke-width="1"/>
  </g>
  <defs>
    <linearGradient gradientTransform="matrix(-6.0E-4, 0.0071, -0.0022, -2.0E-4, 1.5, 5.9)" gradientUnits="userSpaceOnUse" id="gradient0" spreadMethod="pad" x1="-819.2" x2="819.2">
      <stop offset="0.0" stop-color="#ffffff"></stop>
      <stop offset="0.3568627450980392" stop-color="#bcbbd9"></stop>
      <stop offset="1.0" stop-color="#fefefe"></stop>
    </linearGradient>
  </defs>
</svg>