<?xml version="1.0" encoding="UTF-8" standalone="no"?>
<svg xmlns:xlink="http://www.w3.org/1999/xlink" height="7.65px" width="7.7px" xmlns="http://www.w3.org/2000/svg">
  <g transform="matrix(1.0, 0.0, 0.0, 1.0, 1, 1)">
    <path d="M5.15 0.15 L4.7 0.85 3.7 1.65 3.6 1.4 Q3.5 0.8 3.9 0.55 L5.15 0.15 M0.0 3.9 L0.0 3.85 0.05 3.1 Q0.25 2.65 1.1 2.15 L2.2 1.45 2.3 1.4 Q3.1 0.85 3.9 0.55 3.5 0.8 3.6 1.4 L3.7 1.65 2.2 2.85 2.0 2.25 Q2.0 1.6 2.2 1.45 2.0 1.6 2.0 2.25 L2.2 2.85 2.05 2.95 0.9 3.8 0.3 4.0 0.0 3.9 M0.9 3.8 L0.75 3.0 Q0.75 2.4 1.1 2.15 0.75 2.4 0.75 3.0 L0.9 3.8" fill="#d4af8a" fill-rule="evenodd" stroke="none"/>
    <path d="M5.15 0.15 L5.7 0.0 5.55 0.6 4.75 1.25 3.95 1.95 3.7 1.65 3.95 1.95 2.65 2.95 2.4 3.15 2.2 2.85 2.4 3.15 1.2 3.85 1.0 4.05 0.9 3.8 1.0 4.05 Q0.5 4.45 0.4 4.8 0.05 4.35 0.0 3.9 L0.3 4.0 0.9 3.8 2.05 2.95 2.2 2.85 3.7 1.65 4.7 0.85 5.15 0.15" fill="#ffddbb" fill-rule="evenodd" stroke="none"/>
    <path d="M3.95 1.95 L4.75 1.25 5.55 0.6 4.85 1.95 3.9 3.5 2.75 4.95 Q2.3 5.6 1.65 5.65 L1.3 5.65 0.55 5.05 0.4 4.8 Q0.5 4.45 1.0 4.05 L1.2 3.85 2.4 3.15 2.65 2.95 3.95 1.95 4.2 2.1 Q4.65 2.2 4.85 1.95 4.65 2.2 4.2 2.1 L3.95 1.95 M3.9 3.5 L2.7 3.35 2.4 3.15 2.7 3.35 3.9 3.5 M2.75 4.95 Q2.0 5.15 1.45 4.65 L1.0 4.05 1.45 4.65 Q2.0 5.15 2.75 4.95" fill="#b8936e" fill-rule="evenodd" stroke="none"/>
    <path d="M5.55 0.6 L5.7 0.0 5.15 0.15 3.9 0.55 Q3.1 0.85 2.3 1.4 L2.2 1.45 Q2.0 1.6 2.0 2.25 L2.2 2.85 2.4 3.15 2.7 3.35 3.9 3.5 2.75 4.95 Q2.3 5.6 1.65 5.65 L1.3 5.65 0.55 5.05 0.4 4.8 Q0.05 4.35 0.0 3.9 L0.0 3.85 0.05 3.1 Q0.25 2.65 1.1 2.15 L2.2 1.45 M3.7 1.65 L3.95 1.95 4.2 2.1 Q4.65 2.2 4.85 1.95 L3.9 3.5 M5.55 0.6 L4.85 1.95 M3.7 1.65 L3.6 1.4 Q3.5 0.8 3.9 0.55 M1.1 2.15 Q0.75 2.4 0.75 3.0 L0.9 3.8 1.0 4.05 1.45 4.65 Q2.0 5.15 2.75 4.95" fill="none" stroke="#8e6d4b" stroke-linecap="round" stroke-linejoin="round" stroke-width="1"/>
  </g>
</svg>