<?xml version="1.0" encoding="UTF-8" standalone="no"?>
<svg xmlns:xlink="http://www.w3.org/1999/xlink" height="6.95px" width="4.65px" xmlns="http://www.w3.org/2000/svg">
  <g transform="matrix(1.0, 0.0, 0.0, 1.0, 1, 1)">
    <path d="M0.6 1.3 L0.35 0.4 0.4 0.3 0.5 0.35 1.2 1.25 0.6 1.3 1.2 1.25 2.35 2.65 2.65 2.95 2.45 3.75 1.5 2.75 1.45 2.7 2.35 2.65 1.45 2.7 Q0.85 1.9 0.6 1.3" fill="#d4af8a" fill-rule="evenodd" stroke="none"/>
    <path d="M0.1 0.35 L0.45 1.35 0.0 1.75 0.45 1.35 1.05 2.55 1.2 2.8 1.1 2.8 Q0.75 3.05 0.55 3.25 L0.25 3.6 0.55 3.25 Q0.75 3.05 1.1 2.8 L1.2 2.8 2.05 4.4 0.7 4.95 0.6 4.7 0.25 3.6 0.25 3.55 0.0 1.75 0.05 0.95 0.1 0.35" fill="#b8936e" fill-rule="evenodd" stroke="none"/>
    <path d="M0.4 0.3 L0.35 0.4 0.6 1.3 0.45 1.35 0.6 1.3 Q0.85 1.9 1.45 2.7 1.3 2.7 1.2 2.8 1.3 2.7 1.45 2.7 L1.5 2.75 2.45 3.75 2.05 4.4 1.2 2.8 1.05 2.55 0.45 1.35 0.1 0.35 0.25 0.0 0.5 0.35 0.4 0.3" fill="#ffddbb" fill-rule="evenodd" stroke="none"/>
    <path d="M0.4 0.3 L0.5 0.35 0.25 0.0 0.1 0.35 0.05 0.95 0.0 1.75 0.45 1.35 0.6 1.3 1.2 1.25 0.5 0.35 M1.2 2.8 Q1.3 2.7 1.45 2.7 L2.35 2.65 1.2 1.25 M1.2 2.8 L1.1 2.8 Q0.75 3.05 0.55 3.25 L0.25 3.6 0.6 4.7 0.7 4.95 2.05 4.4 2.45 3.75 2.65 2.95 2.35 2.65 M0.0 1.75 L0.25 3.55 0.25 3.6" fill="none" stroke="#8e6d4b" stroke-linecap="round" stroke-linejoin="round" stroke-width="1"/>
  </g>
</svg>