<?xml version="1.0" encoding="UTF-8" standalone="no"?>
<svg xmlns:xlink="http://www.w3.org/1999/xlink" height="42.55px" width="20.15px" xmlns="http://www.w3.org/2000/svg">
  <g transform="matrix(1.0, 0.0, 0.0, 1.0, -3.2, 6.1)">
    <path d="M5.7 -4.85 L5.8 -4.15 5.55 -1.0 4.85 -0.55 Q4.2 -1.5 4.2 -2.4 L4.3 -4.1 Q4.55 -5.0 5.45 -5.1 L5.7 -4.85 M14.55 -4.3 Q15.15 -1.95 15.15 1.1 L15.0 4.0 Q14.9 4.0 14.7 4.25 13.9 4.1 13.7 2.9 L13.6 1.1 Q13.6 -1.45 13.95 -4.25 L14.55 -4.3 M19.9 9.05 L19.9 11.25 19.7 13.5 19.5 16.6 18.8 17.0 Q18.05 15.9 18.05 14.05 L18.65 7.5 Q19.7 7.55 19.9 9.05 M16.7 30.65 L17.15 31.6 17.7 30.75 18.5 29.85 Q19.9 30.65 22.35 34.65 L22.3 35.35 21.55 35.45 Q19.1 35.45 18.6 34.8 18.15 34.1 17.0 34.1 16.45 34.1 16.1 33.7 L15.6 33.15 13.25 33.0 Q12.6 33.0 11.85 33.9 11.3 34.65 9.65 34.1 L9.4 33.95 9.3 33.3 Q9.3 30.9 10.4 26.05 11.5 21.35 12.35 19.65 13.55 21.4 13.5 25.4 13.5 29.6 14.45 31.35 L14.9 30.55 Q15.25 29.85 15.8 29.85 16.3 29.85 16.7 30.65" fill="#ffffff" fill-rule="evenodd" stroke="none"/>
  </g>
</svg>