<?xml version="1.0" encoding="UTF-8" standalone="no"?>
<svg xmlns:xlink="http://www.w3.org/1999/xlink" height="112.65px" width="290.75px" xmlns="http://www.w3.org/2000/svg">
  <g transform="matrix(1.0, 0.0, 0.0, 1.0, 126.65, 75.25)">
    <path d="M57.65 -69.1 L57.4 -68.85 56.6 -68.95 56.5 -68.9 56.4 -69.5 56.6 -70.1 57.05 -70.1 Q57.65 -69.85 57.65 -69.1 M12.95 -34.4 L12.5 -33.6 11.7 -33.6 11.4 -33.75 Q11.3 -33.75 11.3 -34.3 11.3 -34.8 11.7 -35.0 L12.1 -35.15 12.95 -34.4 M111.8 -2.2 Q111.35 -1.4 110.5 -1.4 L109.4 -1.55 109.25 -1.8 109.2 -2.5 Q109.2 -3.95 110.7 -4.25 112.15 -4.6 112.15 -3.5 112.15 -2.8 111.8 -2.2 M163.1 21.2 L162.75 21.9 161.95 21.85 Q161.7 22.2 161.7 21.35 L161.9 20.65 162.4 20.5 Q162.95 20.7 163.1 21.2 M119.85 4.7 L118.85 4.65 118.7 4.45 118.65 3.85 Q118.65 2.95 119.2 2.8 120.25 3.55 120.2 4.0 L119.85 4.7 M94.05 35.2 L95.2 35.35 Q95.2 36.05 94.6 36.4 94.05 36.15 94.05 35.2 M69.1 32.55 L68.9 33.1 Q68.6 33.6 67.9 33.6 L67.6 33.5 67.55 32.9 Q67.55 32.4 67.9 32.2 L68.25 32.05 69.1 32.55 M27.5 11.25 L27.15 11.7 26.35 11.6 26.1 11.5 26.0 10.9 Q26.0 10.4 26.4 10.3 L26.8 10.25 Q27.45 10.55 27.5 11.25 M-104.1 -22.3 L-104.2 -21.55 -104.3 -21.05 -104.3 -20.85 Q-104.35 -20.65 -104.9 -20.65 L-105.55 -20.7 -105.85 -21.0 -106.05 -21.65 -105.5 -22.45 -104.9 -23.1 -104.35 -22.95 Q-104.1 -22.85 -104.1 -22.3 M-89.0 -14.4 L-88.9 -13.35 -89.0 -12.25 -90.55 -11.75 -91.0 -12.05 -91.15 -12.9 -90.85 -14.15 -89.0 -14.4 M-11.35 -73.25 L-11.65 -73.5 -11.65 -74.25 Q-10.9 -74.35 -10.4 -73.85 -10.55 -73.25 -11.35 -73.25 M-26.25 28.75 Q-26.1 28.8 -26.1 29.35 L-26.15 29.85 -26.35 30.1 -27.65 30.1 -27.85 29.2 Q-27.75 28.8 -26.45 28.8 L-26.25 28.75 M-42.15 24.4 L-42.15 25.2 Q-42.4 25.2 -42.4 25.55 L-43.4 25.45 -43.55 25.05 -43.5 24.35 -42.15 24.4 M-60.0 12.75 L-60.55 13.05 -61.3 12.35 -61.5 11.9 Q-61.5 10.95 -60.9 10.85 L-60.0 10.9 -59.9 11.85 -60.0 12.75 M-74.25 20.55 L-73.6 20.55 Q-73.35 20.6 -73.35 21.15 -73.35 21.75 -73.5 22.0 L-73.95 22.3 -74.65 22.35 -74.9 21.8 Q-74.9 20.75 -74.25 20.55 M-76.4 34.95 L-75.7 34.9 -75.5 34.85 Q-75.3 34.85 -75.3 35.4 L-75.3 35.9 -75.4 35.95 -75.6 36.25 -76.55 36.3 Q-76.85 36.55 -76.85 35.7 -76.85 35.1 -76.4 34.95 M-124.65 9.0 L-124.6 9.55 -124.65 9.95 -124.8 10.25 -125.45 10.15 Q-125.65 10.5 -125.65 9.6 L-125.55 8.9 -124.95 8.9 -124.65 9.0" fill="#ffffff" fill-rule="evenodd" stroke="none"/>
  </g>
</svg>