<?xml version="1.0" encoding="UTF-8" standalone="no"?>
<svg xmlns:xlink="http://www.w3.org/1999/xlink" height="100.2px" width="166.6px" xmlns="http://www.w3.org/2000/svg">
  <g transform="matrix(1.0, 0.0, 0.0, 1.0, 63.3, 63.3)">
    <path d="M1.3 -59.75 L1.2 -59.05 Q0.85 -59.05 0.85 -58.8 0.2 -58.9 -0.6 -59.7 0.1 -60.7 0.85 -60.7 L1.15 -60.45 1.3 -59.75 M22.5 -59.5 L22.8 -59.5 23.75 -58.55 23.9 -57.95 23.75 -57.65 23.1 -57.5 22.35 -57.6 22.3 -57.75 22.15 -58.9 Q22.15 -59.45 22.5 -59.5 M32.5 -59.55 L32.75 -59.5 Q33.6 -59.35 33.75 -58.85 L33.7 -58.3 Q34.0 -58.1 33.15 -58.1 L32.4 -58.2 32.35 -58.3 32.2 -58.4 32.2 -59.0 Q32.2 -59.5 32.5 -59.55 M0.0 -7.3 L-0.05 -7.35 -0.35 -6.9 -1.35 -7.6 -1.6 -8.05 Q-1.6 -8.6 -1.4 -8.65 L-0.8 -8.65 -0.25 -8.5 Q0.0 -8.4 0.0 -7.85 L0.0 -7.3 M38.25 -18.6 Q38.9 -18.55 39.05 -18.1 39.3 -17.5 39.9 -17.15 L39.75 -16.55 Q39.6 -16.15 39.05 -16.15 L37.9 -16.3 37.7 -16.5 37.65 -17.15 Q37.65 -17.9 38.25 -18.6 M42.25 -4.25 Q42.5 -4.3 42.5 -3.45 42.5 -2.55 42.4 -3.0 L42.15 -2.5 Q41.45 -2.55 40.9 -2.85 L40.35 -3.35 40.85 -4.0 42.25 -4.25 M73.6 -10.3 L73.75 -8.75 Q73.6 -8.5 72.45 -8.25 72.0 -8.4 71.95 -8.5 71.75 -8.7 71.75 -9.25 71.75 -10.05 72.0 -10.2 L73.6 -10.3 M102.3 -50.75 Q102.1 -50.2 101.4 -49.9 L100.9 -50.0 Q100.7 -50.1 100.7 -50.65 L100.9 -51.3 101.4 -51.45 Q102.1 -51.15 102.3 -50.75 M98.15 2.7 Q98.75 3.1 98.85 4.25 L98.65 4.6 97.95 4.75 97.2 4.65 97.1 4.55 96.8 4.35 96.75 3.7 Q96.75 3.3 97.45 3.0 L98.15 2.7 M66.6 35.45 Q66.35 35.45 66.05 35.9 65.0 35.75 64.7 35.3 L64.6 34.65 Q64.6 33.4 65.4 33.3 66.25 33.2 66.75 34.65 L66.6 35.45 M24.55 13.2 L24.65 13.45 24.75 14.15 24.65 15.1 24.8 15.35 Q24.85 15.55 24.3 15.55 L22.9 15.45 Q22.6 15.75 22.6 14.9 22.6 14.45 22.95 13.95 23.5 13.2 24.55 13.2 M15.4 15.15 Q15.4 17.05 14.0 17.05 L13.2 16.95 13.05 16.85 12.95 15.65 13.0 14.35 13.65 14.3 15.3 14.35 15.4 15.15 M10.2 20.65 Q10.05 20.4 10.05 19.55 10.05 18.9 10.2 18.75 L12.1 18.65 12.15 20.5 11.8 21.0 10.2 20.65 M20.2 29.9 L21.9 29.8 22.05 31.15 21.7 31.6 Q21.15 31.55 20.6 31.0 L20.1 30.3 20.15 29.75 20.2 29.9 M11.95 27.0 L12.15 27.8 12.15 28.4 12.0 28.75 Q11.85 28.75 11.45 29.15 L10.4 29.1 10.65 27.95 Q11.0 27.05 11.45 26.7 L11.95 27.0 M-35.25 -50.75 L-35.25 -53.35 Q-33.15 -55.05 -32.0 -54.5 -31.15 -54.1 -31.15 -52.9 -31.15 -51.7 -31.65 -51.15 -32.25 -50.5 -33.8 -50.5 L-35.25 -50.75 M-18.7 -62.3 L-18.0 -61.75 -18.2 -60.95 -18.25 -60.75 Q-19.0 -60.9 -19.4 -61.4 L-19.2 -61.9 -18.7 -62.3 M-14.7 -17.95 L-14.9 -17.8 -15.05 -17.5 -16.15 -17.6 -16.5 -18.65 Q-16.1 -19.15 -15.15 -19.0 -14.7 -18.7 -14.7 -17.95 M-34.9 6.85 L-35.55 7.35 -36.15 7.1 -36.4 6.4 Q-36.4 5.35 -35.35 5.5 -34.9 5.8 -34.9 6.85 M-23.6 20.5 Q-23.75 21.0 -24.3 21.0 -26.15 21.0 -26.7 20.15 L-26.85 19.3 Q-26.85 17.45 -25.2 17.6 -23.55 17.75 -23.55 19.3 L-23.6 20.5 M-60.2 4.65 L-60.4 5.75 -60.85 5.9 -62.05 6.0 -62.3 4.1 -61.7 4.05 -60.4 4.1 -60.2 4.65" fill="#ffffff" fill-rule="evenodd" stroke="none"/>
  </g>
</svg>