<?xml version="1.0" encoding="UTF-8" standalone="no"?>
<svg xmlns:xlink="http://www.w3.org/1999/xlink" height="4.7px" width="13.7px" xmlns="http://www.w3.org/2000/svg">
  <g transform="matrix(1.0, 0.0, 0.0, 1.0, -16.3, -50.9)">
    <path d="M26.3 53.95 L25.75 54.3 22.25 54.2 Q21.95 54.6 21.95 53.6 21.95 53.1 22.55 53.05 L25.45 52.9 26.5 53.4 26.3 53.95 M29.0 54.0 Q28.8 54.6 27.9 54.6 27.6 54.3 27.6 53.7 28.3 53.15 29.0 54.0 M19.1 53.3 L18.6 54.1 17.4 54.0 17.3 52.95 Q17.3 52.3 17.6 52.1 L18.2 51.9 Q19.1 52.25 19.1 53.3" fill="#ffffff" fill-rule="evenodd" stroke="none"/>
  </g>
</svg>