<?xml version="1.0" encoding="UTF-8" standalone="no"?>
<svg xmlns:xlink="http://www.w3.org/1999/xlink" height="25.1px" width="8.1px" xmlns="http://www.w3.org/2000/svg">
  <g transform="matrix(1.0, 0.0, 0.0, 1.0, -19.4, -32.05)">
    <path d="M21.95 33.05 Q22.5 33.1 22.5 33.9 L22.45 34.6 22.8 34.75 22.25 35.45 21.65 35.4 21.6 34.85 21.7 34.5 Q21.4 34.2 21.4 33.65 21.4 33.0 21.95 33.05 M24.1 34.85 Q24.1 35.7 23.35 36.05 L22.9 36.05 22.8 35.2 Q22.8 34.9 23.15 34.6 23.55 34.25 24.05 34.25 L24.1 34.85 M24.35 34.6 Q24.35 34.3 24.65 34.2 L24.9 34.15 25.2 34.3 25.35 34.7 25.3 35.15 24.9 35.4 Q24.35 35.15 24.35 34.6 M24.4 40.25 L24.5 40.7 24.15 42.05 24.05 42.2 23.5 42.15 23.4 40.7 Q23.4 40.3 23.55 40.25 L24.4 40.25 M24.8 45.65 L24.95 46.0 24.5 46.9 Q23.95 46.45 23.95 46.15 L24.05 45.75 24.4 45.6 24.8 45.65 M22.15 53.5 L21.75 54.3 Q20.75 54.2 20.4 53.9 L20.4 53.1 21.95 53.2 22.15 53.5 M24.95 53.0 L24.85 53.9 23.85 54.2 23.6 54.1 23.55 53.45 Q23.55 52.85 23.9 52.65 L24.25 52.5 24.55 52.65 24.95 53.0 M25.55 56.15 Q25.25 55.85 25.25 55.2 26.15 55.2 26.5 55.75 26.3 56.05 25.55 56.15" fill="#ffffff" fill-rule="evenodd" stroke="none"/>
  </g>
</svg>