<?xml version="1.0" encoding="UTF-8" standalone="no"?>
<svg xmlns:xlink="http://www.w3.org/1999/xlink" height="49.45px" width="22.3px" xmlns="http://www.w3.org/2000/svg">
  <g transform="matrix(1.0, 0.0, 0.0, 1.0, -5.65, 23.25)">
    <path d="M13.85 -22.25 Q14.95 -22.0 15.2 -20.95 L15.3 -18.9 14.8 -12.1 13.8 -11.9 Q13.45 -12.65 13.45 -14.4 L13.85 -22.25 M9.75 -5.55 L9.85 -4.65 Q9.85 -3.5 8.95 -0.55 L8.45 -0.35 Q8.1 -0.8 7.85 -1.4 L7.7 -1.9 Q7.7 -3.15 8.2 -4.5 8.75 -5.85 9.3 -6.15 L9.75 -5.55 M15.3 -4.45 L15.3 10.5 15.75 13.65 Q16.05 15.85 17.2 16.8 18.15 16.4 18.4 15.3 18.8 13.7 19.05 13.35 L19.05 13.25 19.65 13.1 Q20.25 13.1 20.5 14.5 L20.75 16.35 Q21.1 17.15 22.45 17.7 L23.55 18.3 24.25 18.65 24.3 10.3 24.45 10.2 25.1 10.05 Q25.9 10.05 26.2 14.9 L26.7 21.45 26.95 22.95 26.95 24.75 26.15 25.2 Q25.3 24.7 25.1 23.55 L23.85 22.6 21.4 20.2 Q19.7 18.75 18.05 18.4 L16.9 18.3 14.85 18.8 13.7 20.45 Q11.8 22.45 8.85 21.6 L8.7 22.05 Q8.55 22.4 8.55 22.9 L8.25 23.75 7.8 24.15 6.9 23.2 6.65 22.7 Q6.65 21.25 7.95 16.5 9.05 12.55 8.4 9.1 L8.4 6.3 8.45 6.15 9.1 5.95 Q10.65 5.95 10.8 8.6 10.9 10.8 10.2 12.75 L10.2 20.35 Q11.45 20.2 12.35 19.0 L13.45 17.2 13.45 -1.85 13.6 -3.9 Q13.65 -4.95 14.55 -5.15 L15.3 -4.45 M22.2 -9.65 Q23.7 -9.6 24.05 -6.65 L24.15 -2.45 24.05 2.25 23.45 2.65 Q22.45 0.6 22.35 -3.35 L22.2 -9.65 M15.05 17.55 L15.25 17.5 14.95 17.25 15.05 17.55" fill="#ffffff" fill-rule="evenodd" stroke="none"/>
  </g>
</svg>