<?xml version="1.0" encoding="UTF-8" standalone="no"?>
<svg xmlns:xlink="http://www.w3.org/1999/xlink" height="131.9px" width="278.55px" xmlns="http://www.w3.org/2000/svg">
  <g transform="matrix(1.0, 0.0, 0.0, 1.0, 141.95, 93.7)">
    <path d="M45.15 -63.4 L45.15 -62.85 44.55 -62.65 43.9 -63.05 Q44.4 -63.7 45.0 -63.7 L45.15 -63.4 M12.0 -92.0 L11.9 -91.35 11.35 -90.9 10.85 -91.2 10.75 -92.05 Q10.75 -92.6 11.0 -92.65 L11.55 -92.65 12.0 -92.0 M135.6 -2.25 Q135.6 -1.05 134.55 -1.05 L132.75 -1.15 132.7 -2.1 Q132.7 -2.95 133.65 -3.3 L135.55 -3.2 135.6 -2.25 M131.6 10.9 L131.15 11.6 130.1 10.95 Q130.25 10.75 130.65 10.6 131.15 10.45 131.5 10.6 L131.6 10.9 M-122.5 -20.15 Q-122.85 -20.15 -122.85 -19.95 L-124.05 -20.0 -124.0 -21.75 -122.55 -21.75 -122.5 -20.15 M-115.55 -3.65 L-115.65 -2.7 -117.6 -2.45 -118.25 -2.65 -118.5 -3.4 Q-118.5 -3.9 -117.75 -4.15 L-115.65 -4.3 -115.55 -3.65 M-37.5 29.4 L-37.5 30.2 -37.8 30.45 -38.65 30.45 -38.95 30.35 -39.0 29.8 Q-39.0 29.3 -38.7 29.1 L-38.4 28.95 -37.5 29.4 M-74.45 13.75 Q-73.9 13.85 -73.55 14.1 L-73.55 14.9 -73.7 15.0 -73.85 15.2 -74.7 15.1 -74.95 14.0 Q-74.45 13.85 -74.45 13.75 M-59.15 36.05 L-59.55 36.85 -60.35 36.75 -60.45 36.65 -60.55 36.05 Q-60.55 35.5 -60.35 35.4 L-59.85 35.35 Q-59.15 35.55 -59.15 36.05 M-85.65 36.75 L-85.95 37.2 -86.9 37.2 -87.1 37.05 -87.15 36.4 -87.1 35.7 -86.0 35.6 Q-85.65 35.9 -85.65 36.75 M-139.55 16.95 L-140.15 17.65 -140.8 17.65 -140.95 17.05 -140.9 16.3 -139.9 16.45 -139.55 16.95" fill="#ffffff" fill-rule="evenodd" stroke="none"/>
  </g>
</svg>