<?xml version="1.0" encoding="UTF-8" standalone="no"?>
<svg xmlns:xlink="http://www.w3.org/1999/xlink" height="72.75px" width="120.2px" xmlns="http://www.w3.org/2000/svg">
  <g transform="matrix(1.0, 0.0, 0.0, 1.0, 38.3, 48.2)">
    <path d="M30.5 -38.8 L30.45 -38.0 Q29.95 -38.0 29.8 -37.55 L28.9 -37.6 28.75 -37.9 28.55 -38.6 Q28.55 -39.2 29.25 -39.45 L30.3 -39.55 30.4 -39.4 30.5 -38.8 M23.8 -26.95 L23.2 -26.45 22.2 -27.35 22.3 -28.35 23.65 -28.25 23.8 -26.95 M2.45 -43.8 Q1.7 -42.7 0.65 -42.7 -1.2 -42.7 -1.05 -44.75 -1.05 -47.0 1.0 -47.2 3.05 -47.4 3.05 -45.8 3.05 -44.7 2.45 -43.8 M9.7 -41.2 Q10.0 -41.55 10.0 -40.65 10.0 -40.15 9.6 -39.8 9.0 -39.25 7.7 -39.25 L7.5 -39.45 7.4 -40.1 7.5 -41.15 9.7 -41.2 M80.8 -34.1 L80.9 -33.5 80.55 -32.9 79.85 -31.9 79.0 -31.9 78.8 -32.2 78.75 -32.95 Q78.75 -33.6 78.9 -33.9 79.3 -34.65 80.7 -34.2 L80.8 -34.1 M56.7 -22.05 L58.15 -22.05 58.3 -21.85 58.45 -21.2 Q58.45 -20.15 57.1 -19.95 56.0 -20.95 56.0 -21.25 L56.2 -21.9 56.7 -22.05 M79.9 -7.6 L79.8 -7.25 Q79.7 -7.1 79.15 -7.1 L78.4 -7.15 77.8 -7.45 77.7 -8.25 Q77.7 -9.6 79.8 -9.2 L79.9 -7.6 M57.75 21.85 L57.85 22.5 57.4 23.1 Q56.85 23.4 56.75 23.55 L55.35 22.7 Q55.35 22.0 55.5 21.8 55.95 21.15 57.6 21.6 L57.75 21.85 M28.2 9.15 L28.25 9.7 28.15 10.35 27.95 10.45 27.85 10.6 26.7 10.55 26.55 10.35 26.45 9.75 26.45 9.2 26.6 9.0 Q27.2 8.85 28.0 9.0 L28.2 9.15 M15.45 11.4 L15.85 11.95 15.7 12.95 Q15.6 13.55 15.05 13.55 L13.5 13.5 13.25 13.25 13.15 12.55 Q13.15 11.7 14.1 11.45 L15.45 11.4 M-7.0 -43.3 L-6.85 -41.7 -7.2 -41.4 -8.45 -42.6 -8.4 -43.3 -7.0 -43.3 M-36.6 -7.15 Q-35.8 -7.35 -35.25 -5.45 -35.65 -5.05 -36.25 -4.95 L-37.3 -5.85 Q-37.3 -6.95 -36.6 -7.15 M-5.8 -14.55 Q-5.5 -14.25 -5.35 -13.75 L-5.7 -12.95 -6.7 -13.05 -7.0 -14.1 -5.8 -14.55 M-18.95 -0.7 L-17.6 -0.75 -17.5 0.5 -17.85 0.95 -18.7 0.35 -19.05 -0.3 -18.95 -0.7 M-1.8 -3.6 Q-2.05 -3.05 -3.25 -3.05 -4.8 -3.05 -5.1 -3.8 L-5.1 -4.7 Q-5.1 -6.65 -3.4 -6.5 -1.75 -6.4 -1.75 -4.85 L-1.8 -3.6" fill="#ffffff" fill-rule="evenodd" stroke="none"/>
  </g>
</svg>