<?xml version="1.0" encoding="UTF-8" standalone="no"?>
<svg xmlns:xlink="http://www.w3.org/1999/xlink" height="138.95px" width="261.35px" xmlns="http://www.w3.org/2000/svg">
  <g transform="matrix(1.0, 0.0, 0.0, 1.0, 134.1, 100.5)">
    <path d="M63.7 -92.75 L63.35 -92.25 Q62.55 -92.45 62.55 -93.15 L63.0 -93.15 63.7 -93.0 63.7 -92.75 M12.45 -63.5 L12.05 -62.8 11.25 -62.85 11.0 -63.4 11.1 -64.1 11.7 -64.2 Q12.25 -64.0 12.45 -63.5 M36.75 -22.8 L36.4 -22.1 35.6 -22.2 35.4 -22.3 35.35 -22.9 Q35.35 -23.8 35.5 -23.45 L36.05 -23.55 Q36.6 -23.3 36.75 -22.8 M125.3 -13.45 L125.15 -11.6 124.05 -11.4 122.5 -11.75 122.4 -12.05 122.3 -12.85 Q122.3 -14.45 125.15 -14.0 125.3 -14.35 125.3 -13.45 M126.15 9.8 L126.25 10.6 125.65 11.05 124.9 11.0 Q124.65 10.9 124.65 10.3 124.65 9.8 125.0 9.6 L125.3 9.45 126.15 9.8 M102.1 36.8 L101.35 37.45 100.85 37.2 Q100.65 37.0 100.65 36.4 L100.85 35.7 101.35 35.55 Q102.1 35.85 102.1 36.8 M76.75 32.35 L76.4 33.05 75.6 32.95 75.4 32.85 75.35 32.3 75.45 31.7 75.5 31.7 76.05 31.6 Q76.6 31.9 76.75 32.35 M-15.85 -99.05 L-16.0 -98.9 -16.65 -98.7 -16.75 -98.9 -16.9 -99.5 Q-16.15 -99.5 -15.85 -99.05 M-115.25 -28.35 L-115.35 -27.4 -115.7 -27.3 -115.85 -27.15 -117.0 -28.05 Q-117.0 -29.05 -116.2 -29.4 L-115.25 -28.35 M-32.0 35.15 Q-31.85 35.15 -31.85 35.7 L-31.9 36.8 -32.05 37.1 -33.4 37.1 -33.5 36.3 -33.15 35.7 Q-32.75 35.3 -32.2 35.2 L-32.0 35.15 M-68.25 17.95 L-67.75 18.55 -68.0 19.3 -68.45 19.6 -69.45 19.45 -69.7 18.8 Q-69.7 18.2 -69.3 18.05 L-68.25 17.95 M-80.95 33.3 L-81.9 33.3 Q-82.1 33.75 -82.1 32.9 -82.1 32.05 -81.05 31.7 -80.65 31.95 -80.65 33.0 L-80.95 33.3 M-50.95 35.8 L-51.95 35.8 Q-52.15 35.5 -52.15 34.3 L-50.4 34.45 -50.95 35.8 M-106.1 7.4 Q-106.45 6.7 -106.0 6.1 -105.5 5.45 -104.2 5.7 -104.2 6.15 -104.85 7.45 L-106.1 7.4 M-84.35 36.4 L-84.55 36.75 -85.0 36.85 Q-85.8 36.75 -85.85 36.4 -85.8 36.2 -85.4 36.1 L-84.6 36.05 -84.35 36.4 M-132.05 16.95 L-132.3 17.35 -133.0 17.3 -133.1 16.75 -133.1 16.25 -133.0 16.1 -132.4 16.1 Q-132.05 16.6 -132.05 16.95" fill="#ffffff" fill-rule="evenodd" stroke="none"/>
  </g>
</svg>