<?xml version="1.0" encoding="UTF-8" standalone="no"?>
<svg xmlns:xlink="http://www.w3.org/1999/xlink" height="57.9px" width="26.65px" xmlns="http://www.w3.org/2000/svg">
  <g transform="matrix(1.0, 0.0, 0.0, 1.0, -6.75, 36.5)">
    <path d="M18.65 -34.9 L18.3 -26.75 17.95 -26.25 17.0 -26.25 16.7 -31.1 16.8 -33.05 Q17.15 -35.0 18.3 -35.4 18.65 -35.75 18.65 -34.9 M17.25 -17.4 Q18.3 -15.4 18.65 -11.65 19.15 -6.65 19.4 -5.6 21.3 -6.3 21.2 -7.7 21.1 -9.3 21.95 -9.9 22.95 -8.95 23.15 -7.85 L23.15 -5.4 Q24.4 -7.3 24.35 -10.45 L24.3 -16.1 25.1 -16.35 Q25.7 -14.85 25.7 -11.8 25.65 -8.6 26.1 -7.25 27.35 -3.55 29.5 -1.25 L30.4 -0.2 29.85 -8.1 29.85 -10.65 30.35 -10.75 Q32.0 -5.4 32.3 12.6 32.7 18.7 31.55 20.4 L30.5 20.35 30.8 12.85 30.5 2.85 30.5 2.4 30.35 2.45 Q28.15 1.4 26.2 -1.2 24.65 -3.3 23.5 -3.3 L22.05 -3.6 18.45 -4.2 17.75 -2.65 Q17.35 -1.7 16.6 -1.25 L15.9 -1.3 Q15.8 -1.35 15.8 -1.95 15.8 -2.6 16.5 -3.85 L17.2 -5.5 16.5 -12.25 16.6 -15.05 Q16.75 -16.6 17.25 -17.4 M9.45 -14.5 L8.8 -15.5 8.45 -16.2 8.45 -20.2 8.6 -20.3 Q10.1 -19.35 10.15 -15.75 L10.05 -14.9 9.45 -14.5 M10.55 -0.9 Q10.4 3.8 9.45 7.15 L8.05 7.15 7.9 7.1 Q7.75 7.0 7.75 6.5 7.75 3.8 8.25 -0.35 9.0 -7.05 10.55 -9.3 L10.55 -0.9" fill="#ffffff" fill-rule="evenodd" stroke="none"/>
  </g>
</svg>