<?xml version="1.0" encoding="UTF-8" standalone="no"?>
<svg xmlns:xlink="http://www.w3.org/1999/xlink" height="9.75px" width="29.3px" xmlns="http://www.w3.org/2000/svg">
  <g transform="matrix(1.0, 0.0, 0.0, 1.0, -6.85, -2.2)">
    <path d="M31.2 5.65 L31.0 6.15 30.45 6.7 29.8 6.7 29.75 6.65 29.45 6.85 28.75 6.75 28.55 6.45 28.6 6.7 28.1 7.0 28.75 7.1 28.75 7.0 29.8 7.15 Q29.65 7.4 29.65 7.9 L28.9 8.25 28.8 8.3 28.75 8.15 27.45 7.8 27.4 7.45 27.5 7.15 27.15 7.15 26.85 7.1 26.75 6.55 26.75 6.4 26.7 6.55 Q26.6 6.9 25.9 6.9 L25.2 6.85 25.1 6.75 24.9 6.55 24.85 6.55 24.9 6.85 24.75 7.2 24.85 7.2 26.4 7.1 26.5 6.95 26.6 7.45 Q26.6 7.95 25.85 8.35 L25.25 8.6 25.25 8.65 25.35 9.15 25.4 9.15 25.0 9.6 24.3 9.45 24.25 9.6 24.55 9.9 24.4 10.2 23.9 10.0 23.85 9.85 24.1 9.65 24.25 9.6 Q24.1 9.55 24.1 9.0 L24.15 8.8 23.6 8.5 23.2 8.55 22.4 8.5 22.3 8.4 22.25 8.25 21.9 8.15 21.9 8.1 Q21.7 7.9 21.55 8.0 L21.45 8.15 21.25 8.4 20.6 8.55 Q20.25 8.8 19.8 8.85 L18.7 8.25 18.45 8.1 18.5 7.9 17.55 7.8 17.45 8.25 17.45 8.3 16.95 8.4 16.25 8.35 14.75 8.25 14.65 8.1 14.55 7.45 14.55 7.4 14.1 7.2 13.95 7.2 13.2 7.1 13.05 6.9 12.7 7.1 11.95 6.85 11.75 6.75 11.65 6.25 Q11.65 5.6 12.15 5.5 L12.45 5.5 12.5 5.5 Q12.55 5.2 13.0 5.0 13.65 4.6 14.45 5.0 L13.55 5.4 13.3 5.55 13.45 5.55 13.65 5.8 13.75 5.8 15.05 5.55 15.05 5.45 Q15.05 5.15 16.25 4.45 17.45 3.8 17.45 4.1 L17.45 4.55 18.3 4.65 18.3 4.35 18.4 4.25 19.3 4.25 19.3 4.55 19.3 4.7 20.3 4.75 20.5 5.4 20.6 5.3 20.9 5.1 21.05 4.75 20.95 4.1 21.05 3.45 21.05 3.35 Q21.9 2.95 22.4 3.55 L22.65 3.95 23.3 4.0 23.5 4.1 23.65 3.95 24.1 4.0 24.3 4.35 24.65 4.5 24.65 4.55 24.8 4.6 Q24.8 4.45 24.9 4.45 L25.1 4.4 Q25.5 4.55 25.5 4.75 L25.5 4.8 26.4 5.3 Q26.55 5.15 26.7 5.15 L27.8 5.0 27.85 5.95 28.5 6.25 28.6 5.6 29.05 5.6 29.8 5.6 29.85 5.6 30.1 5.5 30.9 5.45 31.2 5.65 M31.3 4.85 Q31.3 4.5 31.8 4.5 L31.95 4.75 31.95 5.0 31.7 5.15 31.4 5.15 31.3 4.85 M32.6 6.05 Q32.45 6.05 32.45 5.5 L32.45 4.95 32.6 4.8 33.2 4.8 33.45 5.15 33.55 5.55 Q33.35 6.0 32.7 6.0 L32.6 6.05 M35.05 6.0 L35.0 6.25 34.55 6.3 34.3 6.1 34.6 5.95 34.75 5.7 35.05 6.0 M35.15 7.3 L35.0 7.6 34.6 7.6 34.6 7.55 34.55 7.3 34.75 7.0 35.0 7.1 35.15 7.3 M31.7 6.9 L32.15 6.9 32.3 7.15 31.95 7.45 31.5 7.3 31.5 6.9 31.7 6.9 M21.25 8.95 L21.0 9.6 Q20.25 9.45 20.25 8.75 L21.25 8.95 M20.5 10.0 L20.1 9.9 20.15 9.55 20.4 9.35 20.75 9.7 20.5 10.0 M27.75 9.5 L27.8 9.4 28.45 9.35 28.65 9.6 28.85 10.2 28.6 10.85 28.5 10.95 27.85 10.85 Q27.65 10.8 27.65 10.25 L27.75 9.5 M10.8 6.7 L10.55 6.55 Q10.7 6.3 11.0 6.25 L11.1 6.45 10.8 6.7 M11.45 8.3 L11.35 7.8 Q11.9 7.8 12.4 8.15 L12.0 8.55 Q11.6 8.5 11.45 8.3 M16.8 9.05 Q16.8 8.85 16.95 8.75 L17.15 9.0 17.2 9.1 17.7 9.4 Q17.6 10.1 16.7 10.25 16.4 10.0 16.4 9.25 16.5 9.05 16.8 9.05 M9.2 5.7 L9.0 6.05 8.55 5.9 Q8.55 5.45 8.85 5.45 L9.2 5.7 M9.25 7.1 L8.55 6.75 Q8.95 5.8 9.95 6.05 L10.15 6.75 10.1 7.15 10.1 7.2 9.25 7.1 M8.1 6.75 L8.45 7.15 8.25 7.35 7.95 7.3 7.85 7.3 7.85 7.0 7.95 6.8 8.1 6.75" fill="#ffffff" fill-rule="evenodd" stroke="none"/>
  </g>
</svg>