<?xml version="1.0" encoding="UTF-8" standalone="no"?>
<svg xmlns:xlink="http://www.w3.org/1999/xlink" height="143.3px" width="241.25px" xmlns="http://www.w3.org/2000/svg">
  <g transform="matrix(1.0, 0.0, 0.0, 1.0, 98.15, 106)">
    <path d="M24.75 -104.15 L24.5 -103.65 23.5 -103.7 23.4 -103.6 Q23.3 -103.6 23.3 -104.15 23.3 -105.0 24.4 -105.0 L24.75 -104.15 M57.55 -56.35 Q57.0 -56.5 57.0 -56.55 L56.9 -57.2 56.95 -58.1 Q57.1 -58.45 57.8 -58.45 L58.3 -58.35 58.45 -57.75 58.3 -56.95 58.1 -56.6 57.55 -56.35 M6.85 -11.65 Q6.5 -11.3 6.05 -11.25 L5.35 -11.8 6.15 -12.55 6.85 -12.7 7.2 -12.15 6.85 -11.65 M36.9 -15.85 L37.8 -15.75 Q38.0 -16.25 38.0 -15.4 L37.95 -14.85 37.9 -14.95 37.65 -14.7 36.95 -14.7 Q36.75 -14.8 36.75 -15.35 L36.75 -15.8 36.9 -15.85 M69.75 -31.7 Q69.3 -31.35 68.4 -31.35 66.6 -31.35 66.25 -32.2 66.1 -32.6 66.25 -33.15 66.25 -34.85 68.1 -35.0 69.9 -35.15 69.9 -33.3 L69.75 -31.7 M138.1 -75.45 L137.95 -74.9 137.3 -75.0 137.2 -75.45 137.3 -76.0 137.9 -76.0 138.1 -75.45 M100.65 -0.35 L100.5 0.5 99.95 0.95 Q98.9 0.8 98.6 0.35 L98.5 -0.3 Q98.5 -1.05 98.65 -1.15 L100.55 -1.3 100.65 -0.35 M142.1 12.65 L141.75 13.4 140.9 13.3 140.7 13.2 140.6 12.6 Q140.6 12.05 140.7 12.0 L140.8 12.05 141.4 11.95 142.1 12.65 M81.95 34.0 L82.0 34.6 81.95 35.1 Q81.9 35.45 80.25 35.45 80.05 35.75 80.05 34.9 80.05 34.25 80.75 34.05 81.3 33.9 81.9 34.05 L81.95 34.0 M52.75 33.7 L51.7 32.7 Q51.45 32.35 51.5 31.75 52.8 31.75 53.1 32.9 L52.75 33.7 M15.05 22.75 L14.95 23.55 14.7 24.0 13.35 23.9 13.3 23.0 13.4 22.15 14.75 22.2 15.05 22.75 M-81.8 -21.7 Q-81.8 -22.7 -80.6 -22.35 -79.45 -22.0 -79.45 -20.65 -79.45 -20.1 -79.75 -19.65 L-80.25 -19.05 -81.4 -20.5 -81.8 -21.7 M-13.0 -90.2 L-13.45 -90.2 -13.65 -91.0 Q-13.35 -91.35 -12.7 -91.0 -12.7 -90.45 -13.0 -90.2 M-45.65 -41.65 L-45.8 -41.65 -45.95 -42.25 Q-45.95 -43.05 -44.85 -43.6 -43.95 -44.1 -43.25 -44.1 L-43.45 -41.8 -45.65 -41.65 M-35.35 -47.85 L-35.7 -47.1 -36.55 -47.45 -36.45 -48.0 -35.75 -48.65 -35.35 -47.85 M-19.25 24.7 L-20.55 24.7 -20.7 24.5 -20.75 23.85 -20.65 23.1 -19.3 23.1 Q-18.95 23.35 -18.95 24.15 L-19.25 24.7 M-12.35 29.6 L-13.4 29.6 -13.65 28.5 Q-13.65 27.55 -12.75 27.8 -11.85 28.05 -11.9 29.05 L-12.35 29.6 M-42.5 1.55 Q-42.05 1.95 -42.05 3.2 L-42.2 3.35 -42.9 3.5 -44.0 3.4 Q-44.3 3.5 -44.3 2.65 -44.3 2.15 -43.5 1.8 L-42.5 1.55 M-52.15 23.2 L-49.7 23.1 -49.6 23.7 -49.7 25.45 -49.8 25.6 -50.4 25.7 Q-52.0 25.7 -52.4 25.1 L-52.5 24.3 Q-52.5 23.45 -52.15 23.2 M-58.55 36.3 L-58.65 35.7 -58.45 34.7 -58.3 33.8 Q-57.85 33.8 -57.3 34.15 -56.7 34.55 -56.7 34.95 L-56.9 35.8 -57.2 36.15 -58.45 36.3 -58.55 36.3 M-95.85 3.05 Q-95.55 3.1 -95.55 3.65 L-95.65 4.95 -95.9 5.25 -97.1 5.15 -97.15 4.1 -96.95 3.25 -96.6 3.0 -95.85 3.05" fill="#ffffff" fill-rule="evenodd" stroke="none"/>
  </g>
</svg>