<?xml version="1.0" encoding="UTF-8" standalone="no"?>
<svg xmlns:xlink="http://www.w3.org/1999/xlink" height="156.65px" width="277.9px" xmlns="http://www.w3.org/2000/svg">
  <g transform="matrix(1.0, 0.0, 0.0, 1.0, 120.1, 118.55)">
    <path d="M24.7 -116.55 L24.05 -116.45 Q23.9 -116.45 23.9 -117.0 23.9 -117.9 24.05 -117.35 L24.6 -117.3 24.95 -116.9 24.7 -116.55 M68.65 -74.4 Q68.65 -73.7 68.0 -73.35 L67.4 -73.45 Q67.2 -73.55 67.2 -74.15 67.2 -74.65 67.5 -74.75 L67.75 -74.8 68.65 -74.4 M14.05 -6.3 L13.3 -5.85 Q12.45 -6.2 12.45 -7.1 12.7 -7.4 13.3 -7.55 14.05 -7.25 14.05 -6.3 M49.85 -43.5 L49.75 -43.05 49.5 -42.8 48.85 -42.85 Q48.65 -42.9 48.65 -43.45 48.65 -44.0 49.0 -44.0 L49.7 -43.85 49.85 -43.5 M95.25 -18.1 Q95.15 -17.5 94.55 -17.5 92.9 -17.5 92.45 -18.2 L92.3 -18.95 Q92.3 -20.2 93.8 -20.75 95.25 -21.25 95.25 -19.3 L95.25 -18.1 M156.8 21.75 L155.95 22.45 155.3 22.25 Q155.15 22.15 155.15 21.5 155.15 20.95 155.35 20.75 L155.95 20.5 Q156.8 20.85 156.8 21.75 M108.95 9.25 Q108.95 7.5 110.95 7.55 L110.95 9.15 Q110.95 9.45 110.1 9.45 L108.95 9.25 M89.05 29.3 L89.3 29.25 Q89.5 29.3 89.5 29.85 89.5 30.75 88.8 31.2 L88.15 31.1 Q87.9 30.95 87.9 30.4 87.9 29.75 89.05 29.3 M61.25 27.15 Q61.25 27.65 60.35 27.65 L59.65 27.55 59.35 27.3 Q59.65 26.2 60.9 25.8 61.25 26.1 61.25 27.15 M19.45 27.2 L20.2 27.5 20.3 28.35 19.65 28.75 18.35 27.95 Q18.35 27.4 18.65 27.25 L18.95 27.1 19.45 27.2 M-91.4 -28.25 L-92.8 -28.05 Q-94.3 -28.05 -94.55 -28.6 L-94.55 -29.3 Q-94.55 -30.75 -92.9 -31.25 -91.25 -31.75 -91.25 -30.1 L-91.4 -28.25 M-4.65 -49.95 L-4.7 -49.25 Q-5.0 -49.25 -5.0 -49.0 L-5.8 -49.1 -5.95 -50.4 -4.8 -50.4 -4.65 -49.95 M-49.0 -64.75 Q-49.75 -64.8 -49.75 -65.6 L-48.65 -65.45 Q-48.65 -65.1 -49.0 -64.75 M-70.0 -29.95 L-70.15 -29.7 -71.0 -29.5 -72.0 -29.65 -72.15 -30.9 -72.0 -31.85 -71.4 -31.9 -70.0 -31.85 -70.0 -29.95 M-21.05 35.1 Q-20.75 35.15 -20.75 35.7 L-20.8 36.55 -21.25 37.1 Q-22.6 36.35 -22.6 35.85 L-22.3 35.15 -22.05 35.0 -21.05 35.1 M-33.65 33.5 L-33.6 34.05 -33.65 34.75 Q-33.85 34.75 -34.2 35.1 L-35.2 34.5 -35.35 34.35 Q-35.35 33.8 -34.85 33.5 L-33.95 33.4 -33.65 33.5 M-52.05 19.75 L-52.4 20.3 -53.75 20.2 -53.95 20.1 -54.0 19.5 Q-54.0 19.0 -53.5 18.6 L-52.15 18.4 -52.05 19.75 M-66.95 29.65 L-68.0 29.65 -68.1 28.8 Q-68.1 27.85 -67.3 27.65 -66.7 28.0 -66.5 29.1 L-66.95 29.65 M-61.7 36.15 Q-61.8 36.85 -63.05 37.1 L-63.8 36.95 -64.05 36.3 Q-64.05 35.25 -63.3 34.65 -62.45 33.9 -61.5 34.9 L-61.7 36.15 M-117.4 15.95 L-117.4 17.0 -117.65 17.15 -118.65 17.35 -119.0 17.35 -119.1 16.8 Q-119.1 15.95 -118.3 15.6 L-117.4 15.95" fill="#ffffff" fill-rule="evenodd" stroke="none"/>
  </g>
</svg>