<?xml version="1.0" encoding="UTF-8" standalone="no"?>
<svg xmlns:xlink="http://www.w3.org/1999/xlink" height="124.2px" width="212.5px" xmlns="http://www.w3.org/2000/svg">
  <g transform="matrix(1.0, 0.0, 0.0, 1.0, 88.65, 87.75)">
    <path d="M22.4 -85.6 L22.15 -86.7 24.15 -86.45 24.05 -85.6 Q24.35 -85.45 23.45 -85.45 L22.4 -85.6 M37.45 -74.45 L37.1 -73.95 36.25 -73.95 36.1 -74.05 36.05 -74.6 Q36.05 -75.5 36.15 -75.25 L37.25 -75.0 37.45 -74.45 M47.95 -36.2 L46.75 -36.2 Q46.75 -37.55 47.35 -38.0 L48.65 -37.55 Q48.65 -36.9 47.95 -36.2 M48.5 -17.1 Q48.5 -16.25 48.15 -15.6 47.75 -14.9 47.2 -14.9 46.0 -14.9 45.65 -15.5 L45.55 -16.25 Q45.55 -17.0 46.4 -17.7 47.4 -18.55 48.45 -18.0 L48.5 -17.1 M120.45 -62.9 L120.1 -62.35 119.45 -62.45 Q119.4 -62.35 119.35 -62.4 119.2 -62.45 119.2 -63.0 119.2 -63.55 119.45 -63.65 L120.05 -63.7 120.45 -62.9 M122.85 20.8 L122.7 21.85 122.4 22.1 121.45 22.1 Q121.25 22.05 121.25 21.2 121.25 20.6 121.5 20.4 L122.05 20.05 Q122.85 20.5 122.85 20.8 M90.65 8.75 Q91.2 9.15 90.3 9.15 L88.8 9.1 Q88.55 8.75 88.55 7.85 88.55 7.2 88.7 6.75 L90.65 6.85 90.65 8.75 M74.9 29.3 L73.55 30.35 73.3 30.25 73.25 29.7 Q73.25 29.15 73.6 29.0 L73.9 28.85 Q74.55 28.85 74.9 29.3 M24.4 15.15 Q24.15 15.85 23.6 16.1 L22.8 15.4 Q22.95 14.65 23.6 14.45 L24.4 15.15 M39.4 22.85 L38.85 23.0 37.5 22.75 37.4 22.65 Q37.25 22.55 37.25 22.05 L37.3 21.55 37.45 21.5 Q38.8 21.5 39.45 21.85 L39.4 22.85 M1.05 18.8 L-0.1 18.7 -0.05 16.9 0.95 16.9 1.4 18.25 1.05 18.8 M14.35 16.25 L15.1 16.95 14.95 17.5 13.85 17.75 13.6 17.65 13.5 17.1 Q13.5 16.55 13.95 16.4 L14.35 16.25 M-8.05 -77.9 Q-7.15 -78.8 -6.55 -78.8 -6.2 -78.4 -6.2 -78.05 L-6.45 -77.55 -7.15 -77.6 -8.05 -77.9 M-31.9 -82.85 L-32.0 -82.8 -32.2 -82.6 -32.8 -82.6 -32.95 -83.7 -32.25 -83.85 Q-31.9 -84.25 -31.9 -83.35 L-31.9 -82.85 M-58.15 -31.9 Q-58.65 -31.15 -60.65 -31.2 -61.25 -31.4 -61.4 -31.9 L-61.45 -32.55 Q-61.45 -34.8 -59.7 -34.95 -58.0 -35.05 -58.0 -33.05 -58.0 -32.15 -58.15 -31.9 M-19.15 -27.3 L-18.55 -27.55 Q-18.15 -27.65 -17.95 -27.05 -18.05 -26.45 -18.3 -26.25 L-18.9 -26.25 -19.15 -27.3 M-3.55 -30.95 L-3.6 -29.95 -4.3 -29.55 -6.05 -29.65 -6.3 -29.95 -6.35 -30.75 Q-6.35 -32.35 -3.65 -31.85 L-3.55 -30.95 M-29.25 -12.25 L-28.9 -11.45 Q-29.25 -10.85 -29.5 -10.75 L-30.85 -11.55 -30.85 -12.1 -30.7 -12.4 -29.25 -12.25 M-3.65 9.0 L-4.55 8.9 -4.75 7.35 -3.95 7.35 -2.9 7.7 -3.0 8.75 Q-2.8 9.0 -3.65 9.0 M-39.6 32.3 L-39.55 32.85 -39.9 35.1 -40.35 35.25 -41.3 35.45 Q-41.85 35.3 -42.0 34.75 L-42.05 34.05 Q-42.05 33.0 -41.85 32.7 -41.45 31.95 -39.9 32.2 L-39.6 32.3 M-48.9 19.3 L-48.75 18.9 -48.2 18.9 -47.85 19.35 -48.1 20.1 -48.75 20.0 -48.9 19.3 M-85.3 18.2 L-85.8 18.4 -86.75 18.55 -87.65 18.4 -87.65 16.5 Q-85.2 15.0 -85.2 16.9 L-85.3 18.2" fill="#ffffff" fill-rule="evenodd" stroke="none"/>
  </g>
</svg>