<?xml version="1.0" encoding="UTF-8" standalone="no"?>
<svg xmlns:xlink="http://www.w3.org/1999/xlink" height="57.95px" width="25.5px" xmlns="http://www.w3.org/2000/svg">
  <g transform="matrix(1.0, 0.0, 0.0, 1.0, -6.75, 36.5)">
    <path d="M18.3 -26.75 L17.95 -26.25 17.0 -26.25 16.7 -31.1 16.8 -33.05 Q17.15 -35.0 18.3 -35.4 18.65 -35.75 18.65 -34.9 L18.3 -26.75 M8.6 -20.3 Q10.1 -19.35 10.15 -15.75 L10.05 -14.9 9.45 -14.5 8.8 -15.5 8.45 -16.2 8.45 -20.2 8.6 -20.3 M15.45 -11.25 Q15.6 -12.8 16.1 -13.6 17.15 -11.6 17.5 -7.85 18.0 -2.85 18.25 -1.8 20.15 -2.5 20.05 -3.9 19.95 -5.5 20.8 -6.1 21.8 -5.15 22.0 -4.05 L22.0 -1.6 Q23.25 -3.5 23.2 -6.65 L23.15 -12.3 23.95 -12.55 Q24.55 -11.05 24.55 -8.0 24.5 -4.8 24.95 -3.45 26.2 0.25 28.35 2.55 L29.25 3.6 28.7 -4.3 28.7 -6.85 29.2 -6.95 Q30.85 -1.6 31.15 16.4 L31.25 20.45 29.6 20.45 29.65 16.65 29.35 6.65 29.35 6.2 29.2 6.25 Q27.0 5.2 25.05 2.6 23.5 0.5 22.35 0.5 L20.9 0.2 17.3 -0.4 16.6 1.15 Q16.2 2.1 15.45 2.55 L14.75 2.5 14.65 1.85 Q14.65 1.2 15.35 -0.05 L16.05 -1.7 15.35 -8.45 15.45 -11.25 M10.55 -0.9 Q10.4 3.8 9.45 7.15 L8.05 7.15 7.9 7.1 Q7.75 7.0 7.75 6.5 7.75 3.8 8.25 -0.35 9.0 -7.05 10.55 -9.3 L10.55 -0.9" fill="#ffffff" fill-rule="evenodd" stroke="none"/>
  </g>
</svg>