<?xml version="1.0" encoding="UTF-8" standalone="no"?>
<svg xmlns:xlink="http://www.w3.org/1999/xlink" height="66.55px" width="19.35px" xmlns="http://www.w3.org/2000/svg">
  <g transform="matrix(1.0, 0.0, 0.0, 1.0, -6.15, 32.35)">
    <path d="M9.65 -28.2 L9.45 -27.05 9.25 -25.75 8.55 -25.5 Q7.95 -25.7 7.8 -26.2 L7.75 -26.95 8.0 -31.35 8.55 -31.35 Q8.95 -31.0 9.65 -28.2 M16.85 -17.85 L16.95 -17.05 Q16.35 -12.1 16.6 -9.8 16.4 -9.3 15.75 -9.2 15.0 -9.7 15.0 -11.65 L15.25 -14.9 Q15.65 -17.6 16.5 -18.2 L16.85 -17.85 M10.0 -2.8 Q9.65 5.65 9.65 10.0 9.4 10.0 9.25 10.45 L8.2 10.35 8.1 5.05 Q7.6 0.4 7.55 -2.15 7.4 -6.65 9.4 -8.0 10.0 -5.3 10.0 -2.8 M24.5 10.6 L24.0 16.25 23.75 16.65 23.0 16.6 22.8 13.0 23.1 9.8 Q23.45 6.7 23.95 6.0 24.5 8.15 24.5 10.6 M8.8 15.25 L9.6 15.0 Q11.05 19.55 11.1 20.5 L10.85 24.35 Q10.85 25.35 11.35 26.7 L12.25 29.2 Q15.9 27.65 15.45 20.15 15.2 15.8 15.3 14.6 15.55 11.8 17.05 10.65 18.4 13.3 17.95 19.45 17.5 25.6 18.8 28.3 L18.8 28.35 Q19.35 27.25 20.35 27.25 21.35 27.25 21.45 27.75 L21.35 28.6 22.0 27.75 22.9 26.9 Q24.3 28.55 24.3 32.2 L24.2 32.95 Q24.45 33.2 23.6 33.2 L20.5 31.45 17.15 29.65 Q17.0 29.65 15.45 30.6 13.8 31.6 9.7 31.7 L9.15 32.4 8.25 33.2 7.4 33.05 Q7.15 32.9 7.15 32.35 7.15 31.55 8.7 28.05 9.95 25.25 8.8 21.15 L8.8 15.25" fill="#ffffff" fill-rule="evenodd" stroke="none"/>
  </g>
</svg>