<?xml version="1.0" encoding="UTF-8" standalone="no"?>
<svg xmlns:xlink="http://www.w3.org/1999/xlink" height="26.45px" width="11.9px" xmlns="http://www.w3.org/2000/svg">
  <g transform="matrix(1.0, 0.0, 0.0, 1.0, -8.2, -12.35)">
    <path d="M15.45 16.9 L15.1 17.7 14.45 17.6 Q14.2 17.8 14.2 16.9 L14.3 16.3 14.35 16.35 15.05 16.35 15.25 16.5 15.45 16.9 M15.85 15.25 L15.15 15.45 14.6 15.4 14.2 15.2 14.1 14.25 Q14.1 13.35 14.8 13.35 15.55 13.35 15.9 14.7 L15.85 15.25 M15.0 24.0 L15.25 24.5 14.7 25.3 Q13.65 24.55 13.65 24.2 13.65 23.7 14.05 23.55 L14.45 23.5 15.0 24.0 M14.25 31.85 L15.85 32.1 15.5 32.65 14.6 32.65 Q14.25 32.35 14.25 31.85 M10.85 36.35 L10.9 35.8 11.9 35.85 Q11.95 35.4 12.25 35.4 L12.95 35.55 13.05 35.4 13.1 35.95 13.1 36.2 14.2 36.15 14.15 35.6 Q14.15 35.05 14.55 35.0 L15.3 35.1 15.55 35.7 15.3 36.2 15.45 36.2 15.75 36.2 15.75 36.1 16.35 36.05 16.8 36.3 16.85 36.3 17.25 36.35 17.25 36.3 17.35 35.8 18.9 35.8 19.1 36.4 18.05 37.7 17.4 37.7 17.25 37.55 14.25 37.8 13.6 37.8 13.55 37.8 13.3 37.8 11.3 37.55 10.65 37.4 10.4 37.3 10.25 37.45 9.3 37.35 9.2 36.5 9.3 35.8 10.5 35.8 10.85 36.35" fill="#ffffff" fill-rule="evenodd" stroke="none"/>
  </g>
</svg>