<?xml version="1.0" encoding="UTF-8" standalone="no"?>
<svg xmlns:xlink="http://www.w3.org/1999/xlink" height="150.6px" width="275.5px" xmlns="http://www.w3.org/2000/svg">
  <g transform="matrix(1.0, 0.0, 0.0, 1.0, 128.15, 112.1)">
    <path d="M11.2 -110.6 L10.75 -110.75 11.05 -111.05 11.65 -111.05 11.2 -110.6 M53.65 -81.2 L52.95 -81.2 52.85 -82.25 Q53.5 -82.7 54.1 -81.95 L53.65 -81.2 M145.55 -7.35 L144.45 -6.7 143.6 -6.75 Q143.3 -6.9 143.3 -7.45 143.3 -9.4 144.85 -9.4 146.35 -9.4 146.35 -7.85 146.35 -7.7 145.55 -7.35 M-80.3 19.45 L-78.8 19.6 -78.8 20.9 -79.1 21.35 -80.4 21.25 -80.3 19.45 M-42.25 36.55 L-42.45 36.7 -43.05 36.95 -43.7 36.35 -44.0 35.7 -44.0 35.2 -43.85 35.15 -42.15 35.2 -42.25 36.55 M-92.05 37.5 Q-92.75 37.45 -93.0 37.1 L-93.1 36.6 Q-92.7 36.2 -91.8 36.95 L-92.05 37.5 M-125.45 5.5 L-125.35 6.05 -125.8 6.65 Q-126.65 6.65 -127.15 6.05 L-126.8 5.4 Q-126.5 4.95 -126.15 5.05 L-125.45 5.5" fill="#ffffff" fill-rule="evenodd" stroke="none"/>
  </g>
</svg>