<?xml version="1.0" encoding="UTF-8" standalone="no"?>
<svg xmlns:xlink="http://www.w3.org/1999/xlink" height="32.45px" width="30.3px" xmlns="http://www.w3.org/2000/svg">
  <g transform="matrix(1.0, 0.0, 0.0, 1.0, -7.95, 6.95)">
    <path d="M19.95 -2.4 Q19.95 -3.25 20.5 -3.7 L22.45 -3.85 Q22.6 -4.2 22.6 -3.3 22.6 -2.75 22.2 -2.4 L21.45 -1.3 20.15 -2.05 19.95 -2.4 M24.45 -3.7 Q24.3 -3.8 24.3 -4.3 24.3 -4.7 24.75 -5.2 25.35 -6.0 26.35 -5.95 L26.45 -4.9 26.35 -3.85 26.1 -3.55 24.55 -3.55 24.45 -3.7 M26.55 0.2 Q27.15 -1.1 28.95 -0.35 L29.05 0.75 28.85 1.7 Q28.55 2.15 27.65 2.15 L26.7 2.05 26.35 1.95 Q26.15 1.1 26.55 0.2 M21.8 8.05 L20.55 8.2 Q19.2 8.2 18.9 7.25 L18.9 6.3 Q18.9 5.15 19.1 4.9 19.6 4.15 21.8 4.55 L21.9 6.3 21.8 8.05 M29.05 9.65 L28.95 10.7 27.85 11.0 Q26.75 11.0 26.45 10.2 L26.35 9.35 Q26.35 8.4 27.65 8.4 29.05 8.4 29.05 9.65 M24.55 21.85 Q24.55 20.25 25.95 19.95 27.3 19.7 27.3 21.2 27.3 22.0 26.85 22.45 26.4 22.85 25.75 22.85 L24.95 22.75 24.85 22.65 24.65 22.5 24.55 21.85 M37.1 17.95 L35.9 18.2 34.9 18.1 Q34.75 18.25 34.75 17.4 34.75 15.75 36.0 15.55 37.25 15.35 37.25 16.6 L37.1 17.95 M18.25 2.6 Q18.0 2.6 17.9 3.05 17.1 3.1 16.5 2.35 16.0 1.75 16.0 1.2 16.0 0.35 16.75 0.2 17.5 0.05 18.25 1.05 L18.25 2.6 M10.4 5.25 L8.95 5.25 8.95 3.3 9.7 2.6 Q10.15 2.4 11.0 2.6 L11.1 3.7 Q11.1 4.55 10.4 5.25 M18.55 11.55 L18.6 13.1 18.5 13.15 18.25 13.4 16.7 13.4 Q16.45 12.85 16.45 11.55 L17.05 11.5 18.55 11.55 M9.3 23.25 Q9.3 21.6 10.6 21.45 11.9 21.25 11.9 22.7 L11.8 24.2 Q11.6 24.5 10.75 24.5 9.6 24.5 9.35 23.95 L9.3 23.25" fill="#ffffff" fill-rule="evenodd" stroke="none"/>
  </g>
</svg>