<?xml version="1.0" encoding="UTF-8" standalone="no"?>
<svg xmlns:xlink="http://www.w3.org/1999/xlink" height="43.05px" width="292.9px" xmlns="http://www.w3.org/2000/svg">
  <g transform="matrix(1.0, 0.0, 0.0, 1.0, 137.7, 4.85)">
    <path d="M154.2 -2.6 L154.0 -1.8 153.45 -1.4 152.55 -2.2 152.4 -2.45 Q152.4 -3.05 152.95 -3.15 L153.9 -3.15 154.2 -2.6 M-135.25 -2.95 L-135.35 -2.45 Q-135.7 -1.9 -136.5 -1.9 L-136.65 -2.05 -136.7 -2.7 -136.65 -3.55 Q-136.4 -4.05 -135.55 -3.75 L-135.25 -2.95 M-49.25 36.75 L-49.55 37.2 -50.45 36.7 -50.75 36.15 -50.75 35.65 -50.6 35.6 -49.7 35.6 Q-49.25 36.0 -49.25 36.75" fill="#ffffff" fill-rule="evenodd" stroke="none"/>
  </g>
</svg>