<?xml version="1.0" encoding="UTF-8" standalone="no"?>
<svg xmlns:xlink="http://www.w3.org/1999/xlink" height="39.55px" width="34.35px" xmlns="http://www.w3.org/2000/svg">
  <g transform="matrix(1.0, 0.0, 0.0, 1.0, 1, 1)">
    <path d="M24.35 24.5 L21.4 21.55 21.35 21.5 Q20.4 20.7 19.15 20.25 L19.1 20.25 Q16.65 19.55 14.45 19.8 12.35 20.1 10.6 21.2 L9.8 21.7 9.8 21.75 Q8.1 23.05 7.2 24.85 7.0 25.15 7.1 25.55 L7.55 26.15 8.5 26.75 9.2 26.9 9.8 26.5 10.1 26.1 Q11.1 24.9 12.4 24.05 L12.45 24.05 Q13.75 23.1 15.85 23.2 18.0 23.3 19.2 23.9 L19.25 23.9 Q20.45 24.6 22.15 26.4 22.35 26.65 22.7 26.7 L23.35 26.6 24.0 26.2 24.3 26.0 24.5 25.75 Q25.0 24.9 24.35 24.5 M21.15 6.25 L20.75 5.75 Q19.45 4.9 18.9 5.2 L18.65 5.45 18.4 5.85 Q17.45 8.7 17.3 10.0 17.15 11.2 17.4 12.55 L17.4 12.6 Q18.0 15.05 19.3 16.8 20.85 18.85 23.35 19.9 L26.65 20.6 26.75 20.6 27.3 20.6 27.95 20.35 28.25 19.7 28.35 18.6 28.15 17.9 Q27.85 17.55 27.5 17.5 25.65 17.25 24.0 16.45 22.55 15.75 21.6 13.9 20.5 12.0 20.45 10.65 20.45 9.3 21.15 6.9 L21.15 6.25 M32.35 16.2 Q32.35 22.9 27.6 27.65 23.95 31.3 19.15 32.15 L17.75 37.55 13.6 32.2 Q8.55 31.45 4.75 27.65 0.0 22.9 0.0 16.2 0.0 9.5 4.75 4.75 9.5 0.0 16.15 0.0 22.85 0.0 27.6 4.75 32.35 9.5 32.35 16.2 M12.35 5.25 L11.45 5.65 10.95 6.15 Q10.75 6.45 10.85 6.8 11.35 8.65 11.3 10.6 11.25 12.4 10.15 14.25 L8.1 16.65 Q7.1 17.2 5.2 17.6 4.85 17.65 4.65 17.9 L4.35 18.45 4.3 19.25 4.3 19.55 Q4.35 20.95 5.3 20.55 L5.35 20.55 5.45 20.55 8.95 19.8 Q10.0 19.45 10.95 18.6 12.6 17.0 13.55 14.9 14.5 12.55 14.45 9.85 14.4 7.65 13.7 5.8 L13.4 5.4 13.1 5.25 12.9 5.15 12.35 5.25" fill="#ffffff" fill-rule="evenodd" stroke="none"/>
    <path d="M21.15 6.25 L21.15 6.9 Q20.45 9.3 20.45 10.65 20.5 12.0 21.6 13.9 22.55 15.75 24.0 16.45 25.65 17.25 27.5 17.5 27.85 17.55 28.15 17.9 L28.35 18.6 28.25 19.7 27.95 20.35 27.3 20.6 26.75 20.6 26.65 20.6 23.35 19.9 Q20.85 18.85 19.3 16.8 18.0 15.05 17.4 12.6 L17.4 12.55 Q17.15 11.2 17.3 10.0 17.45 8.7 18.4 5.85 L18.65 5.45 18.9 5.2 Q19.45 4.9 20.75 5.75 L21.15 6.25 M24.35 24.5 Q25.0 24.9 24.5 25.75 L24.3 26.0 24.0 26.2 23.35 26.6 22.7 26.7 Q22.35 26.65 22.15 26.4 20.45 24.6 19.25 23.9 L19.2 23.9 Q18.0 23.3 15.85 23.2 13.75 23.1 12.45 24.05 L12.4 24.05 Q11.1 24.9 10.1 26.1 L9.8 26.5 9.2 26.9 8.5 26.75 7.55 26.15 7.1 25.55 Q7.0 25.15 7.2 24.85 8.1 23.05 9.8 21.75 L9.8 21.7 10.6 21.2 Q12.35 20.1 14.45 19.8 16.65 19.55 19.1 20.25 L19.15 20.25 Q20.4 20.7 21.35 21.5 L21.4 21.55 24.35 24.5 M12.35 5.25 L12.9 5.15 13.1 5.25 13.4 5.4 13.7 5.8 Q14.4 7.65 14.45 9.85 14.5 12.55 13.55 14.9 12.6 17.0 10.95 18.6 10.0 19.45 8.95 19.8 L5.45 20.55 5.35 20.55 5.3 20.55 Q4.35 20.95 4.3 19.55 L4.3 19.25 4.35 18.45 4.65 17.9 Q4.85 17.65 5.2 17.6 7.1 17.2 8.1 16.65 L10.15 14.25 Q11.25 12.4 11.3 10.6 11.35 8.65 10.85 6.8 10.75 6.45 10.95 6.15 L11.45 5.65 12.35 5.25" fill="#000000" fill-rule="evenodd" stroke="none"/>
  </g>
</svg>