<?xml version="1.0" encoding="UTF-8" standalone="no"?>
<svg xmlns:xlink="http://www.w3.org/1999/xlink" height="23.05px" width="59px" xmlns="http://www.w3.org/2000/svg">
  <g transform="matrix(1.0, 0.0, 0.0, 1.0, 46.05, 16.15)">
    <path d="M11.65 -3.4 Q11.4 -2.8 10.9 -2.8 10.35 -2.8 10.0 -4.8 9.8 -5.8 9.75 -6.85 L9.5 -7.9 Q9.5 -9.75 10.65 -7.5 11.8 -5.2 11.8 -4.1 L11.65 -3.4" fill="#ffcc00" fill-rule="evenodd" stroke="none"/>
    <path d="M8.1 -6.3 Q8.95 -5.95 8.95 -5.45 8.95 -4.85 8.15 -4.85 L6.9 -5.25 Q6.1 -5.6 6.0 -5.7 5.35 -6.1 4.7 -6.05 4.25 -6.05 4.25 -6.2 L5.0 -6.9 6.5 -7.05 Q6.85 -6.8 8.1 -6.3 M10.95 -0.15 Q10.5 -0.15 10.5 -0.55 L10.6 -1.9 Q11.8 -1.85 11.8 -0.7 11.8 -0.15 10.95 -0.15 M11.45 2.2 Q10.65 1.7 10.65 1.2 L10.7 0.55 Q11.35 0.25 11.7 0.7 L11.95 1.45 Q11.95 2.0 11.45 2.2 M0.5 4.7 L-1.7 5.0 -3.5 5.35 -5.65 5.7 Q-5.9 5.7 -5.95 5.55 L-7.0 5.75 -8.3 5.9 -8.45 5.8 Q-8.35 5.35 -7.65 5.25 L-6.4 5.1 -3.5 4.65 0.15 4.05 2.25 4.0 Q2.25 4.4 0.5 4.7 M-41.7 -9.1 L-41.75 -9.4 -41.7 -9.75 -38.75 -9.9 -35.7 -10.0 -31.15 -9.5 -26.35 -9.0 -21.7 -9.35 -11.75 -9.75 Q-12.95 -8.75 -17.45 -8.25 L-25.1 -7.9 -32.25 -8.25 -41.65 -9.2 -41.7 -9.1 M-44.45 -0.6 L-45.05 -0.8 Q-45.15 -1.35 -44.65 -1.35 L-44.0 -1.2 Q-37.8 -1.2 -33.6 -2.2 -28.55 -3.4 -20.95 -3.8 L-30.1 -1.95 Q-38.1 -0.4 -42.1 -0.4 L-44.45 -0.6 M-9.0 -14.7 L-13.6 -14.2 -16.3 -13.8 Q-17.05 -13.8 -17.7 -14.3 L-14.0 -15.0 -9.05 -14.85 -9.0 -14.7 M-19.05 -0.6 L-20.3 -0.75 Q-21.8 -0.75 -25.95 0.45 L-26.05 0.3 -23.9 -0.85 -19.4 -0.75 -19.05 -0.6 M-4.25 2.8 L-7.45 2.5 -9.45 2.4 Q-10.05 2.4 -10.05 2.15 L-9.9 1.9 -8.7 1.85 -7.7 1.7 -7.6 1.55 -7.35 1.5 -6.75 1.45 -3.5 1.9 -0.4 2.3 -0.4 2.35 -2.15 2.7 -3.3 2.5 -4.25 2.8 M-25.35 3.1 L-22.05 3.25 -29.2 3.8 -31.85 4.45 -31.9 4.3 Q-31.9 4.1 -29.95 3.65 L-25.35 3.1" fill="#ffcc00" fill-rule="evenodd" stroke="none"/>
  </g>
</svg>