<?xml version="1.0" encoding="UTF-8" standalone="no"?>
<svg xmlns:xlink="http://www.w3.org/1999/xlink" height="24.05px" width="60.5px" xmlns="http://www.w3.org/2000/svg">
  <g transform="matrix(1.0, 0.0, 0.0, 1.0, 48.6, 9.95)">
    <path d="M8.6 -2.85 L8.8 -3.0 Q9.4 -3.0 10.75 -0.7 10.75 -0.3 10.35 -0.3 10.1 -0.3 8.7 -1.35 L7.3 -2.55 Q7.3 -3.15 7.6 -3.05 L8.35 -2.75 8.6 -2.85 M10.2 4.45 L10.6 4.2 10.9 4.6 Q9.3 8.8 8.1 8.8 L7.9 8.7 7.7 8.55 6.7 9.0 6.1 8.9 Q5.8 8.9 5.7 8.7 L5.65 8.45 Q5.65 7.65 7.85 6.0 10.1 4.35 10.1 3.75 L10.15 3.75 10.2 4.45 M5.65 5.9 Q5.05 6.4 3.5 7.1 1.35 8.0 0.0 8.0 L-1.85 7.85 -1.95 7.55 1.85 6.6 5.15 6.0 5.65 5.9 M-47.6 -8.75 L-39.0 -8.9 Q-35.6 -8.7 -35.6 -8.2 L-35.65 -8.05 -38.15 -8.0 Q-43.75 -8.0 -45.5 -8.15 -47.0 -8.3 -47.6 -8.75 M-12.7 -3.35 Q-14.35 -3.35 -17.6 -4.3 L-21.45 -5.55 Q-20.45 -6.15 -16.7 -5.1 -11.0 -3.5 -10.6 -3.45 L-12.7 -3.35 M-18.05 0.3 L-17.15 0.35 -17.05 0.6 -17.2 0.85 -19.25 0.95 -26.25 0.9 -26.25 0.75 -29.15 0.9 -30.1 0.9 -30.2 0.75 -29.35 0.3 -27.1 0.0 -17.75 0.05 -18.05 0.3" fill="#ffcc00" fill-rule="evenodd" stroke="none"/>
    <path d="M-35.5 -3.1 L-34.25 -3.8 -31.7 -4.75 -31.75 -5.0 Q-31.75 -5.4 -28.55 -6.15 L-24.55 -6.75 -24.5 -6.5 Q-25.7 -6.25 -30.05 -4.4 -34.05 -2.7 -35.05 -2.7 -35.5 -2.7 -35.5 -3.1 M-26.7 -0.75 Q-26.7 -1.0 -25.85 -1.05 L-23.65 -1.0 -22.9 -1.15 -22.4 -1.05 -19.3 -1.0 -19.2 -0.8 -18.5 -0.75 -18.55 -0.6 -19.2 -0.6 -19.25 -0.5 -19.8 -0.35 -23.2 -0.15 -26.0 -0.35 -26.6 -0.45 -26.7 -0.75 M-13.45 12.65 Q-13.05 12.2 -11.7 11.65 L-9.85 11.15 Q-11.6 10.7 -11.0 9.6 L-27.0 8.2 -27.4 7.9 Q-20.25 6.6 -12.45 8.05 L-1.4 10.6 0.0 10.5 0.45 10.6 0.35 11.35 Q0.4 11.6 0.05 11.7 L-7.85 11.75 -10.8 12.3 -13.35 12.8 -13.45 12.65 M-24.35 3.75 L-23.1 2.9 -21.1 2.95 -22.25 3.0 -23.3 3.45 -24.15 3.85 -24.35 3.75 M-37.35 11.75 Q-36.8 12.65 -35.65 13.05 L-35.9 13.1 Q-37.45 13.1 -38.1 10.6 L-38.1 10.15 -38.05 10.15 -37.35 11.75" fill="#ffcc00" fill-rule="evenodd" stroke="none"/>
  </g>
</svg>