<?xml version="1.0" encoding="UTF-8" standalone="no"?>
<svg xmlns:xlink="http://www.w3.org/1999/xlink" height="20.65px" width="71.9px" xmlns="http://www.w3.org/2000/svg">
  <g transform="matrix(1.0, 0.0, 0.0, 1.0, 58.9, 6.15)">
    <path d="M8.95 -0.8 L9.15 -1.15 8.4 -1.45 8.2 -1.8 8.25 -2.1 9.95 -1.85 Q11.2 -1.7 11.5 -1.1 10.85 -0.4 9.3 -0.4 8.95 -0.4 8.95 -0.8 M11.95 -1.55 L11.45 -1.35 10.55 -2.65 9.85 -3.95 Q9.85 -4.6 10.5 -5.0 11.15 -5.5 11.7 -4.4 L12.0 -1.9 11.95 -1.55 M11.55 0.9 L11.2 0.55 11.1 0.15 Q11.1 -0.2 11.5 0.05 L11.9 0.6 11.55 0.9 M0.5 6.45 L-0.3 6.35 -0.35 6.2 -0.2 6.1 -0.55 5.65 -0.15 5.15 0.5 4.65 Q0.7 4.4 3.2 4.1 L6.1 3.1 Q8.2 2.5 8.2 3.45 8.2 3.85 5.9 4.7 L4.3 5.55 Q2.4 6.45 0.5 6.45 M-48.75 -1.5 L-50.85 -0.85 -46.75 -2.4 -42.4 -4.45 Q-43.2 -3.9 -46.0 -2.6 L-49.75 -0.9 -48.25 -1.65 -48.75 -1.5 M-26.35 -3.8 L-23.55 -3.95 -19.6 -3.55 -12.1 -3.2 -11.7 -3.05 -11.65 -2.9 Q-11.65 -2.45 -14.25 -2.45 L-21.25 -2.8 -26.3 -3.45 -26.35 -3.8 M-7.5 12.05 L-7.15 11.9 -7.2 12.05 -7.25 12.15 -4.0 13.15 -4.0 13.45 -4.35 13.5 -9.65 12.7 Q-13.25 11.9 -14.25 11.0 L-14.25 10.8 -8.75 11.75 -7.5 12.05 M-11.9 8.35 L-14.7 8.2 -13.4 8.65 -13.4 8.75 Q-17.6 7.8 -24.0 7.8 L-29.8 8.0 -30.15 7.85 -29.9 7.65 -32.85 7.95 -39.5 8.25 -40.2 8.0 Q-40.25 7.75 -39.7 7.65 L-35.75 7.2 -32.85 6.7 -29.6 6.2 -26.75 6.0 Q-26.2 6.0 -26.0 6.2 L-28.45 6.85 -28.2 7.1 -20.95 6.75 -14.7 7.25 -11.9 7.85 -11.85 8.1 -11.9 8.35 M-11.8 11.95 L-8.95 12.4 -7.8 12.4 Q-8.85 11.85 -10.3 11.65 L-13.3 11.35 -11.8 11.95" fill="#ffcc00" fill-rule="evenodd" stroke="none"/>
    <path d="M-39.0 9.25 L-40.95 9.75 -44.85 10.05 -53.1 9.3 Q-57.3 8.35 -57.9 6.7 L-52.8 8.05 Q-46.85 9.25 -39.35 9.15 L-39.0 9.25" fill="#ffcc00" fill-rule="evenodd" stroke="none"/>
  </g>
</svg>