<?xml version="1.0" encoding="UTF-8" standalone="no"?>
<svg xmlns:xlink="http://www.w3.org/1999/xlink" height="25.45px" width="44.95px" xmlns="http://www.w3.org/2000/svg">
  <g transform="matrix(1.0, 0.0, 0.0, 1.0, 32.3, 15.45)">
    <path d="M8.3 -8.75 Q9.7 -7.8 9.7 -7.05 L9.4 -6.55 Q9.05 -6.2 8.75 -6.2 5.95 -6.2 3.15 -9.0 L0.95 -10.45 Q-0.15 -11.25 0.05 -11.95 L-2.9 -13.0 Q-4.9 -13.55 -4.9 -13.9 -4.9 -14.8 -2.55 -14.2 L-0.25 -13.4 -0.1 -13.5 0.05 -13.6 2.55 -12.25 5.5 -10.45 Q6.45 -9.85 8.3 -8.75 M8.6 -7.25 L8.55 -7.35 8.45 -7.25 8.6 -7.25 M9.4 -3.55 Q10.65 -3.35 11.65 -1.0 11.65 -0.65 11.3 -0.65 10.95 -0.65 10.15 -1.85 L9.35 -3.2 9.4 -3.55" fill="#ffcc00" fill-rule="evenodd" stroke="none"/>
    <path d="M1.05 -7.1 Q1.05 -6.65 0.3 -6.55 L-2.95 -6.1 -4.35 -5.7 -6.1 -5.4 Q-6.8 -5.4 -6.8 -5.85 -6.8 -6.6 -3.5 -7.5 -0.05 -8.45 1.3 -7.55 1.25 -7.4 0.95 -7.4 L1.05 -7.1 M2.95 -2.4 Q4.65 -2.6 5.25 -2.95 5.8 -3.25 6.35 -2.75 L7.2 -2.8 Q8.95 -2.75 8.95 -2.0 L8.45 -1.5 7.6 -1.1 6.5 -1.3 5.75 -1.1 Q4.0 -1.1 1.55 -1.9 1.55 -2.25 2.95 -2.4 M10.85 4.2 L10.2 5.5 8.95 6.35 8.6 6.25 8.4 5.5 Q8.4 5.2 8.95 4.25 9.65 3.1 10.25 2.85 10.7 3.0 10.85 4.2 M-20.4 -13.95 L-19.6 -13.7 -20.2 -13.4 -21.9 -13.15 -22.5 -13.35 -20.4 -13.95 M-14.4 5.9 L-16.15 6.05 -17.45 6.45 -19.6 7.0 -21.6 7.85 Q-23.25 8.55 -23.75 9.0 L-23.9 8.9 Q-23.85 8.5 -22.25 7.8 L-20.05 6.95 -20.25 6.8 Q-19.9 6.45 -18.2 6.15 L-16.0 5.95 -15.2 5.9 -14.4 5.8 -14.4 5.9 M-14.1 3.1 L-16.85 3.6 -17.2 3.5 -17.25 3.35 Q-17.25 3.15 -16.25 2.85 L-14.85 2.45 Q-12.7 1.4 -12.05 2.0 -11.5 2.0 -11.5 2.15 -11.5 2.55 -14.1 3.1 M-27.2 0.3 L-27.15 0.45 -27.2 0.65 -31.2 1.3 -31.3 0.95 -29.5 0.4 -27.2 0.3" fill="#ffcc00" fill-rule="evenodd" stroke="none"/>
  </g>
</svg>