<?xml version="1.0" encoding="UTF-8" standalone="no"?>
<svg xmlns:xlink="http://www.w3.org/1999/xlink" height="24.9px" width="24.9px" xmlns="http://www.w3.org/2000/svg">
  <g transform="matrix(1.0, 0.0, 0.0, 1.0, 12.45, 12.45)">
    <path d="M6.55 -7.75 L5.3 -8.5 5.1 -8.35 Q6.9 -5.95 8.75 -4.75 8.25 -6.2 7.55 -6.75 L6.55 -7.75 M3.95 -10.75 Q4.85 -10.45 5.95 -8.95 L7.7 -7.75 9.6 -5.95 10.45 -4.8 10.8 -4.05 10.95 -3.55 11.2 -2.3 Q10.9 -1.8 10.9 -0.75 L10.9 0.85 Q11.05 4.1 9.75 4.15 10.05 5.3 6.95 7.75 7.35 8.5 5.8 9.6 4.3 10.7 3.3 10.7 L2.95 10.6 2.75 10.65 0.0 11.05 -2.25 10.85 -2.2 10.8 -2.9 10.5 -3.15 10.35 -4.45 9.95 -6.1 8.7 -7.4 7.45 -7.5 7.3 -7.65 7.35 Q-9.05 7.35 -10.1 4.65 L-10.9 1.85 -10.55 -1.45 -10.85 -1.05 -11.05 -1.3 Q-11.05 -2.2 -10.65 -2.9 L-10.55 -3.05 Q-10.35 -4.8 -9.35 -5.45 L-8.95 -6.35 Q-3.2 -11.0 -0.85 -11.0 L1.7 -11.2 2.6 -11.1 3.95 -10.75 M4.45 -8.3 Q4.3 -8.6 4.75 -8.85 L4.95 -8.95 4.2 -9.7 Q3.15 -10.75 1.6 -10.75 L-0.6 -10.5 -0.65 -10.05 -0.3 -10.2 Q0.5 -10.4 1.1 -9.95 1.85 -9.3 2.3 -9.25 L3.4 -8.75 Q4.15 -8.3 4.45 -8.3 M4.5 -7.75 Q3.0 -8.05 0.2 -9.7 -2.25 -9.7 -2.25 -7.7 L-2.35 -6.9 -2.4 -6.8 -2.55 -6.75 -2.6 -6.65 -1.75 -6.9 1.2 -6.85 3.65 -5.35 5.7 -3.9 6.0 -3.0 5.95 -2.15 6.15 -1.7 6.7 -3.35 7.25 -4.55 Q7.25 -5.75 4.9 -7.0 4.3 -5.75 3.8 -5.4 L3.55 -5.75 4.5 -7.6 4.5 -7.75 M2.3 -5.5 L1.35 -6.2 Q0.45 -6.75 -0.4 -6.6 -3.5 -6.0 -3.5 -5.45 -3.5 -4.55 -1.55 -3.35 0.2 -2.35 -0.35 -1.15 L0.95 -0.25 1.95 0.8 Q2.1 0.9 2.95 1.2 3.7 1.5 3.8 1.65 L3.85 2.2 4.2 2.65 Q5.3 2.65 6.05 0.7 L5.7 -0.7 Q5.35 -1.4 5.35 -2.85 5.35 -3.45 4.2 -4.4 L2.3 -5.5 M6.65 -1.55 Q6.65 -0.45 7.3 0.55 7.9 1.6 7.9 2.35 L7.75 3.55 7.7 3.6 Q10.1 1.75 10.1 1.15 10.1 0.0 9.5 -1.95 8.8 -4.2 8.05 -4.3 L7.15 -2.9 Q6.65 -2.15 6.65 -1.55 M9.95 -2.2 L10.05 -2.15 10.1 -2.15 10.15 -3.65 Q10.15 -4.55 9.35 -5.0 L9.9 -2.4 9.95 -2.2 M6.6 0.6 Q6.25 2.5 4.75 3.1 L2.1 4.7 1.9 4.85 3.9 5.65 Q5.45 4.45 6.2 4.0 L7.0 3.15 7.3 2.4 Q7.3 1.95 6.7 0.85 L6.6 0.6 M9.2 4.05 Q8.1 3.65 7.15 4.75 6.4 5.7 6.4 6.35 L5.95 7.55 8.1 6.1 Q9.25 4.95 9.2 4.05 M9.6 3.7 L9.9 2.9 10.15 2.1 10.1 2.15 8.75 3.3 8.7 3.35 9.15 3.35 9.6 3.7 M3.0 2.2 L1.5 1.25 0.7 0.4 -0.1 -0.4 -1.4 1.65 Q-2.15 2.85 -3.35 3.65 L-2.4 4.9 -1.6 5.1 Q-0.05 5.1 3.45 2.85 L3.0 2.2 M1.4 5.6 L-0.65 6.1 -1.2 5.9 -2.95 5.7 -3.25 5.75 -3.35 6.05 -1.0 7.5 0.85 6.75 Q2.3 6.05 2.95 6.2 L3.15 6.15 Q1.85 5.35 1.4 5.6 M2.35 8.3 L3.7 8.45 Q4.6 8.45 5.8 6.4 L5.7 5.7 2.8 6.65 Q1.55 7.15 -0.55 8.0 L0.9 8.1 2.35 8.3 M2.45 10.05 L2.55 10.0 2.55 9.8 2.5 9.75 Q1.9 10.3 -0.45 10.3 L-1.35 10.2 -1.4 10.3 0.0 10.4 2.45 10.05 M3.7 9.8 L5.15 9.2 Q6.3 8.6 6.25 8.1 L5.7 8.35 Q5.35 8.35 5.35 8.15 L4.2 8.9 3.45 9.65 3.7 9.8 M0.35 8.45 L-1.9 8.35 -1.7 9.45 -0.4 9.65 Q1.45 9.65 2.5 9.0 L2.55 8.95 0.35 8.45 M-1.35 -10.3 Q-2.8 -9.9 -4.85 -8.7 L-5.85 -7.75 -6.05 -7.35 Q-5.2 -7.9 -3.85 -8.3 -3.2 -8.45 -2.0 -9.25 L-1.3 -9.7 -1.4 -9.9 -1.35 -10.3 M-3.65 -6.2 L-3.6 -6.25 -3.6 -6.3 -3.65 -6.2 M-2.9 -8.0 Q-5.15 -7.95 -6.45 -6.2 -7.4 -4.9 -7.4 -3.6 L-7.25 -2.95 -7.2 -2.95 Q-7.35 -3.75 -6.5 -4.8 L-4.8 -6.0 -3.9 -6.7 -3.1 -7.15 -2.9 -8.0 M-6.15 -3.3 L-6.65 -1.95 -6.55 -1.85 -6.0 -1.25 -5.95 -1.25 Q-5.3 -0.85 -5.3 -0.25 L-5.4 0.3 -4.65 1.85 -4.15 2.55 -3.7 2.8 Q-2.95 2.8 -0.75 -0.5 -0.75 -2.2 -1.55 -2.65 -2.9 -3.5 -3.9 -5.55 -4.45 -5.6 -5.0 -5.0 L-5.8 -3.85 -6.15 -3.3 M-8.25 -4.95 L-8.5 -4.25 -8.45 -3.85 -8.35 -3.75 -7.7 -5.8 -8.25 -4.95 M-8.3 -5.95 L-8.2 -6.3 -8.5 -5.8 -8.3 -5.95 M-8.6 -5.55 L-8.6 -5.6 -8.7 -5.45 -8.75 -5.35 -8.6 -5.55 M-10.05 -0.95 L-10.2 0.15 -10.35 1.2 Q-10.35 2.95 -9.65 4.3 -9.35 5.35 -8.9 5.8 L-8.3 6.15 -8.6 5.65 Q-9.65 3.35 -9.7 2.7 L-10.0 1.65 -10.0 -0.05 -9.9 -1.95 -10.05 -0.95 M-8.6 -2.9 Q-8.6 -2.1 -8.85 -1.95 L-8.75 -2.25 -8.95 -3.45 Q-9.35 -2.5 -9.35 0.4 L-9.0 1.5 -8.6 0.5 Q-8.15 -0.15 -8.15 -0.55 L-8.45 -2.35 -8.4 -2.95 -8.6 -2.9 M-7.6 -0.5 Q-7.6 -0.1 -7.95 0.75 L-8.35 1.8 -8.05 2.4 -7.6 3.15 -7.4 3.2 -7.35 3.2 -4.75 3.05 -4.85 2.85 -5.55 2.2 Q-6.2 1.55 -6.2 0.95 L-6.15 0.65 -6.1 0.2 Q-5.75 -0.25 -6.7 -1.25 L-7.95 -2.4 -7.6 -0.5 M-6.8 -2.1 L-6.7 -2.55 -6.9 -2.25 -6.8 -2.1 M-3.9 5.95 L-3.65 5.45 -3.2 5.1 -3.55 4.65 -4.1 3.7 -6.1 3.55 -6.65 3.65 -5.7 4.45 -3.9 6.0 -3.9 5.95 M-8.25 5.0 L-7.1 6.6 -7.2 6.35 -7.0 5.6 -7.55 3.9 -8.35 3.3 -8.65 3.35 -8.95 3.35 -8.25 5.0 M-6.5 5.55 Q-6.5 6.0 -4.25 7.4 L-2.45 8.6 -2.5 8.45 Q-2.5 7.85 -2.0 7.6 L-3.35 6.85 -3.75 6.45 -4.0 6.5 Q-4.5 6.5 -6.45 5.2 L-6.5 5.55 M-5.8 7.75 L-4.45 8.85 Q-3.9 9.35 -2.25 9.5 L-2.3 9.4 -2.3 9.35 -2.4 9.35 Q-3.5 9.35 -6.35 6.9 -6.4 7.3 -5.8 7.75" fill="#ff9900" fill-rule="evenodd" stroke="none"/>
    <path d="M6.55 -7.75 L7.55 -6.75 Q8.25 -6.2 8.75 -4.75 6.9 -5.95 5.1 -8.35 L5.3 -8.5 6.55 -7.75 M4.0 -10.75 L3.95 -10.75 2.6 -11.1 1.7 -11.2 1.75 -11.3 2.6 -11.15 3.95 -10.75 4.0 -10.75 M11.2 -2.3 L10.95 -3.55 11.25 -2.3 11.2 -2.3 M9.95 -2.2 L9.9 -2.4 9.35 -5.0 Q10.15 -4.55 10.15 -3.65 L10.1 -2.15 10.05 -2.15 9.95 -2.2 M6.65 -1.55 Q6.65 -2.15 7.15 -2.9 L8.05 -4.3 Q8.8 -4.2 9.5 -1.95 10.1 0.0 10.1 1.15 10.1 1.75 7.7 3.6 L7.75 3.55 7.9 2.35 Q7.9 1.6 7.3 0.55 6.65 -0.45 6.65 -1.55 M2.3 -5.5 L4.2 -4.4 Q5.35 -3.45 5.35 -2.85 5.35 -1.4 5.7 -0.7 L6.05 0.7 Q5.3 2.65 4.2 2.65 L3.85 2.2 3.8 1.65 Q3.7 1.5 2.95 1.2 2.1 0.9 1.95 0.8 L0.95 -0.25 -0.35 -1.15 Q0.2 -2.35 -1.55 -3.35 -3.5 -4.55 -3.5 -5.45 -3.5 -6.0 -0.4 -6.6 0.45 -6.75 1.35 -6.2 L2.3 -5.5 M4.5 -7.75 L4.5 -7.6 3.55 -5.75 3.8 -5.4 Q4.3 -5.75 4.9 -7.0 7.25 -5.75 7.25 -4.55 L6.7 -3.35 6.15 -1.7 5.95 -2.15 6.0 -3.0 5.7 -3.9 3.65 -5.35 1.2 -6.85 -1.75 -6.9 -2.6 -6.65 -2.55 -6.75 -2.4 -6.8 -2.35 -6.9 -2.25 -7.7 Q-2.25 -9.7 0.2 -9.7 3.0 -8.05 4.5 -7.75 M4.45 -8.3 Q4.15 -8.3 3.4 -8.75 L2.3 -9.25 Q1.85 -9.3 1.1 -9.95 0.5 -10.4 -0.3 -10.2 L-0.65 -10.05 -0.6 -10.5 1.6 -10.75 Q3.15 -10.75 4.2 -9.7 L4.95 -8.95 4.75 -8.85 Q4.3 -8.6 4.45 -8.3 M-5.8 7.75 Q-6.4 7.3 -6.35 6.9 -3.5 9.35 -2.4 9.35 L-2.3 9.35 -2.3 9.4 -2.25 9.5 Q-3.9 9.35 -4.45 8.85 L-5.8 7.75 M-6.5 5.55 L-6.45 5.2 Q-4.5 6.5 -4.0 6.5 L-3.75 6.45 -3.35 6.85 -2.0 7.6 Q-2.5 7.85 -2.5 8.45 L-2.45 8.6 -4.25 7.4 Q-6.5 6.0 -6.5 5.55 M-8.25 5.0 L-8.95 3.35 -8.65 3.35 -8.35 3.3 -7.55 3.9 -7.0 5.6 -7.2 6.35 -7.1 6.6 -8.25 5.0 M-3.9 5.95 L-3.9 6.0 -5.7 4.45 -6.65 3.65 -6.1 3.55 -4.1 3.7 -3.55 4.65 -3.2 5.1 -3.65 5.45 -3.9 5.95 M-6.8 -2.1 L-6.9 -2.25 -6.7 -2.55 -6.8 -2.1 M-7.6 -0.5 L-7.95 -2.4 -6.7 -1.25 Q-5.75 -0.25 -6.1 0.2 L-6.15 0.65 -6.2 0.95 Q-6.2 1.55 -5.55 2.2 L-4.85 2.85 -4.75 3.05 -7.35 3.2 -7.4 3.2 -7.6 3.15 -8.05 2.4 -8.35 1.8 -7.95 0.75 Q-7.6 -0.1 -7.6 -0.5 M-8.6 -2.9 L-8.4 -2.95 -8.45 -2.35 -8.15 -0.55 Q-8.15 -0.15 -8.6 0.5 L-9.0 1.5 -9.35 0.4 Q-9.35 -2.5 -8.95 -3.45 L-8.75 -2.25 -8.85 -1.95 Q-8.6 -2.1 -8.6 -2.9 M-10.05 -0.95 L-9.9 -1.95 -10.0 -0.05 -10.0 1.65 -9.7 2.7 Q-9.65 3.35 -8.6 5.65 L-8.3 6.15 -8.9 5.8 Q-9.35 5.35 -9.65 4.3 -10.35 2.95 -10.35 1.2 L-10.2 0.15 -10.05 -0.95 M-8.6 -5.55 L-8.75 -5.35 -8.7 -5.45 -8.6 -5.6 -8.6 -5.55 M-8.3 -5.95 L-8.5 -5.8 -8.2 -6.3 -8.3 -5.95 M-8.25 -4.95 L-7.7 -5.8 -8.35 -3.75 -8.45 -3.85 -8.5 -4.25 -8.25 -4.95 M-6.15 -3.3 L-5.8 -3.85 -5.0 -5.0 Q-4.45 -5.6 -3.9 -5.55 -2.9 -3.5 -1.55 -2.65 -0.75 -2.2 -0.75 -0.5 -2.95 2.8 -3.7 2.8 L-4.15 2.55 -4.65 1.85 -5.4 0.3 -5.3 -0.25 Q-5.3 -0.85 -5.95 -1.25 L-6.0 -1.25 -6.55 -1.85 -6.65 -1.95 -6.15 -3.3 M-2.9 -8.0 L-3.1 -7.15 -3.9 -6.7 -4.8 -6.0 -6.5 -4.8 Q-7.35 -3.75 -7.2 -2.95 L-7.25 -2.95 -7.4 -3.6 Q-7.4 -4.9 -6.45 -6.2 -5.15 -7.95 -2.9 -8.0 M-3.65 -6.2 L-3.6 -6.3 -3.6 -6.25 -3.65 -6.2 M-1.35 -10.3 L-1.4 -9.9 -1.3 -9.7 -2.0 -9.25 Q-3.2 -8.45 -3.85 -8.3 -5.2 -7.9 -6.05 -7.35 L-5.85 -7.75 -4.85 -8.7 Q-2.8 -9.9 -1.35 -10.3 M0.35 8.45 L2.55 8.95 2.5 9.0 Q1.45 9.65 -0.4 9.65 L-1.7 9.45 -1.9 8.35 0.35 8.45 M3.7 9.8 L3.45 9.65 4.2 8.9 5.35 8.15 Q5.35 8.35 5.7 8.35 L6.25 8.1 Q6.3 8.6 5.15 9.2 L3.7 9.8 M2.45 10.05 L0.0 10.4 -1.4 10.3 -1.35 10.2 -0.45 10.3 Q1.9 10.3 2.5 9.75 L2.55 9.8 2.55 10.0 2.45 10.05 M2.35 8.3 L0.9 8.1 -0.55 8.0 Q1.55 7.15 2.8 6.65 L5.7 5.7 5.8 6.4 Q4.6 8.45 3.7 8.45 L2.35 8.3 M1.4 5.6 Q1.85 5.35 3.15 6.15 L2.95 6.2 Q2.3 6.05 0.85 6.75 L-1.0 7.5 -3.35 6.05 -3.25 5.75 -2.95 5.7 -1.2 5.9 -0.65 6.1 1.4 5.6 M3.0 2.2 L3.45 2.85 Q-0.05 5.1 -1.6 5.1 L-2.4 4.9 -3.35 3.65 Q-2.15 2.85 -1.4 1.65 L-0.1 -0.4 0.7 0.4 1.5 1.25 3.0 2.2 M9.6 3.7 L9.15 3.35 8.7 3.35 8.75 3.3 10.1 2.15 10.15 2.1 9.9 2.9 9.6 3.7 M9.2 4.05 Q9.25 4.95 8.1 6.1 L5.95 7.55 6.4 6.35 Q6.4 5.7 7.15 4.75 8.1 3.65 9.2 4.05 M6.6 0.6 L6.7 0.85 Q7.3 1.95 7.3 2.4 L7.0 3.15 6.2 4.0 Q5.45 4.45 3.9 5.65 L1.9 4.85 2.1 4.7 4.75 3.1 Q6.25 2.5 6.6 0.6" fill="#000000" fill-rule="evenodd" stroke="none"/>
    <path d="M10.45 -4.8 L9.6 -5.95 7.7 -7.75 5.95 -8.95 Q4.85 -10.45 3.95 -10.75 L4.0 -10.75 Q6.25 -9.95 8.1 -8.1 9.6 -6.6 10.45 -4.8 M1.7 -11.2 L-0.85 -11.0 Q-3.2 -11.0 -8.95 -6.35 L-9.35 -5.45 Q-10.35 -4.8 -10.55 -3.05 L-10.65 -2.9 Q-11.05 -2.2 -11.05 -1.3 L-10.85 -1.05 -10.55 -1.45 -10.9 1.85 -10.1 4.65 Q-9.05 7.35 -7.65 7.35 L-7.5 7.3 -7.4 7.45 -6.1 8.7 -4.45 9.95 -3.15 10.35 -2.9 10.5 -2.2 10.8 -2.25 10.85 0.0 11.05 2.75 10.65 2.95 10.6 3.3 10.7 Q4.3 10.7 5.8 9.6 7.35 8.5 6.95 7.75 10.05 5.3 9.75 4.15 11.05 4.1 10.9 0.85 L10.9 -0.75 Q10.9 -1.8 11.2 -2.3 L11.25 -2.3 11.45 0.0 Q11.45 4.75 8.1 8.1 4.75 11.45 0.0 11.45 -4.75 11.45 -8.1 8.1 -11.45 4.75 -11.45 0.0 -11.45 -4.75 -8.1 -8.1 -4.75 -11.45 0.0 -11.45 L1.75 -11.3 1.7 -11.2" fill="#ffcc00" fill-rule="evenodd" stroke="none"/>
  </g>
</svg>