<?xml version="1.0" encoding="UTF-8" standalone="no"?>
<svg xmlns:xlink="http://www.w3.org/1999/xlink" height="23.25px" width="58.3px" xmlns="http://www.w3.org/2000/svg">
  <g transform="matrix(1.0, 0.0, 0.0, 1.0, 55.95, 11.9)">
    <path d="M-5.3 -10.1 L-3.8 -10.6 0.9 -10.5 -2.8 -9.3 -1.95 -9.2 Q-1.5 -8.8 -2.35 -8.7 L-4.2 -8.25 0.0 -8.1 -5.4 -5.7 1.35 -6.2 Q-1.75 -3.55 -6.1 -2.1 L-7.7 -1.4 -3.0 -1.25 Q-5.95 0.0 -8.9 0.9 L0.6 1.35 Q-3.75 2.4 -8.5 2.65 L-3.4 3.6 -3.35 4.05 -3.5 4.2 Q-6.65 4.25 -9.65 3.15 L-4.7 5.15 -4.65 5.65 -4.7 5.75 -3.85 6.45 -3.55 6.85 -6.4 6.9 -6.8 7.1 -7.3 7.05 -2.2 10.35 -9.8 8.25 -9.95 8.1 -11.75 6.65 -11.55 6.7 -11.0 6.65 -10.95 6.4 -13.0 4.95 -12.15 4.95 -10.95 5.05 -10.9 4.8 Q-10.9 4.45 -13.55 3.25 L-16.4 2.05 -16.3 2.0 -33.45 0.85 Q-19.05 -1.3 -15.85 -2.55 -12.7 -3.85 -11.75 -3.85 L-11.5 -3.9 -16.55 -3.15 -16.4 -3.2 Q-14.15 -4.25 -10.1 -6.7 -6.45 -8.9 -5.3 -10.1" fill="#ffff00" fill-rule="evenodd" stroke="none"/>
    <path d="M-9.8 8.25 L-11.35 7.9 -11.5 7.75 -15.75 6.55 Q-19.1 5.7 -22.7 5.45 L-31.7 4.65 -35.3 4.2 -45.5 2.55 Q-50.0 1.7 -54.4 2.65 -55.4 2.2 -54.5 2.1 L-44.5 0.3 -32.65 -1.9 -30.95 -2.35 -27.65 -3.25 Q-23.25 -4.15 -18.95 -5.7 L-8.2 -9.2 -4.95 -10.5 -5.3 -10.1 Q-6.45 -8.9 -10.1 -6.7 -14.15 -4.25 -16.4 -3.2 L-16.55 -3.15 -11.5 -3.9 -11.75 -3.85 Q-12.7 -3.85 -15.85 -2.55 -19.05 -1.3 -33.45 0.85 L-16.3 2.0 -16.4 2.05 -13.55 3.25 Q-10.9 4.45 -10.9 4.8 L-10.95 5.05 -12.15 4.95 -13.0 4.95 -10.95 6.4 -11.0 6.65 -11.55 6.7 -11.75 6.65 -9.95 8.1 -9.8 8.25" fill="#ffff00" fill-opacity="0.49803922" fill-rule="evenodd" stroke="none"/>
  </g>
</svg>