<?xml version="1.0" encoding="UTF-8" standalone="no"?>
<svg xmlns:xlink="http://www.w3.org/1999/xlink" height="23.6px" width="53.9px" xmlns="http://www.w3.org/2000/svg">
  <g transform="matrix(1.0, 0.0, 0.0, 1.0, 52.55, 11.75)">
    <path d="M-7.4 -9.4 L-10.05 -8.15 -13.5 -6.5 -16.55 -4.9 -20.1 -3.0 -20.55 -2.7 -18.45 -2.65 -22.6 -1.3 -26.2 -0.15 -28.7 0.75 -30.1 1.35 -28.15 1.5 -25.45 1.45 -22.25 1.4 Q-19.65 1.25 -17.1 1.45 L-16.3 1.55 -22.25 2.45 -21.45 2.65 -18.6 3.05 -15.35 3.55 -13.45 4.2 -13.25 4.5 -13.4 4.7 -13.35 4.95 -13.2 5.15 -11.2 6.05 -11.75 6.2 -12.15 6.2 -12.3 6.35 -12.4 6.5 -12.0 6.9 -11.0 7.45 -9.35 7.85 -8.15 8.1 -8.05 8.6 Q-5.8 9.7 -3.5 10.85 L-4.8 10.55 Q-11.1 9.1 -17.1 6.8 -22.1 4.75 -27.7 4.35 L-40.25 3.7 Q-46.7 3.7 -51.55 1.55 L-39.65 0.35 Q-34.25 -0.25 -29.2 -1.9 L-21.25 -4.75 -12.2 -8.1 -7.4 -9.4" fill="#ffff00" fill-opacity="0.49803922" fill-rule="evenodd" stroke="none"/>
    <path d="M-3.5 10.85 Q-5.8 9.7 -8.05 8.6 L-8.15 8.1 -9.35 7.85 -11.0 7.45 -12.0 6.9 -12.4 6.5 -12.3 6.35 -12.15 6.2 -11.75 6.2 -11.2 6.05 -13.2 5.15 -13.35 4.95 -13.4 4.7 -13.25 4.5 -13.45 4.2 -15.35 3.55 -18.6 3.05 -21.45 2.65 -22.25 2.45 -16.3 1.55 -17.1 1.45 Q-19.65 1.25 -22.25 1.4 L-25.45 1.45 -28.15 1.5 -30.1 1.35 -28.7 0.75 -26.2 -0.15 -22.6 -1.3 -18.45 -2.65 -20.55 -2.7 -20.1 -3.0 -16.55 -4.9 -13.5 -6.5 -10.05 -8.15 -7.4 -9.4 0.35 -10.75 -8.25 -6.8 -2.65 -7.75 -3.95 -6.75 Q-4.7 -6.35 -5.55 -6.15 L-6.4 -5.85 -8.25 -5.1 -10.0 -4.0 -5.5 -4.45 -5.65 -4.0 -11.15 -1.05 -10.6 -0.8 -7.5 -0.65 -7.35 -0.55 -8.85 0.5 -4.9 1.8 -4.85 2.7 -8.85 2.6 Q-7.3 3.35 -5.8 4.25 L-5.0 5.0 -5.35 5.25 -8.75 4.5 Q-7.8 6.45 -3.2 10.85 L-3.5 10.85" fill="#ffff00" fill-rule="evenodd" stroke="none"/>
  </g>
</svg>