<?xml version="1.0" encoding="UTF-8" standalone="no"?>
<svg xmlns:xlink="http://www.w3.org/1999/xlink" height="319.8px" width="486.3px" xmlns="http://www.w3.org/2000/svg">
  <g transform="matrix(1.0, 0.0, 0.0, 1.0, 1.5, 1.5)">
    <path d="M390.8 0.0 Q378.1 15.4 373.4 25.4 368.6 35.6 368.2 36.9 366.6 42.2 360.4 42.35 353.75 41.6 352.15 42.2 347.75 43.8 341.3 52.0 335.45 59.3 334.2 63.25 L344.25 62.15 350.85 61.7 360.2 62.5 Q367.35 63.55 371.6 65.4 L386.05 71.85 Q389.6 71.85 397.2 66.9 406.25 60.95 411.3 59.35 L420.6 57.55 434.8 56.15 Q448.6 56.15 462.45 61.5 M257.7 137.25 L256.7 137.25 Q255.95 132.45 261.75 124.4 267.4 116.5 276.8 108.85 286.8 100.7 297.15 96.05 308.8 90.9 318.1 91.55 L325.4 90.1 Q328.55 89.5 329.75 88.7 332.3 87.0 332.3 77.85 332.3 76.65 332.85 72.0 333.5 66.45 334.2 63.25 M429.5 98.6 Q414.1 98.2 404.3 102.8 398.3 105.65 388.95 114.2 L399.2 128.35 Q404.8 129.05 415.4 131.1 430.3 133.95 438.35 136.7 M388.95 114.2 Q381.9 107.3 376.45 104.3 369.9 100.75 362.4 100.75 L357.6 101.1 Q352.6 101.7 349.5 103.15 L348.75 111.65 348.4 117.3 Q348.4 141.9 361.8 158.6 367.25 165.4 373.5 168.8 379.55 172.05 384.15 171.05 385.75 167.05 391.3 158.6 397.55 149.05 402.85 143.5 405.2 148.65 412.65 152.85 420.1 157.05 426.95 157.05 442.6 157.05 447.25 148.2 M349.5 103.15 L324.55 109.6 318.1 91.55 M342.8 184.5 Q342.3 183.8 341.8 161.8 347.5 166.75 350.9 175.2 353.3 181.15 353.3 183.75 L343.9 204.7 Q343.1 193.5 330.05 178.35 325.65 173.25 320.9 168.95 316.85 165.25 316.3 165.25 L313.05 169.35 Q307.6 176.4 295.4 187.95 M384.15 171.05 Q394.3 175.3 396.9 184.3 397.55 186.7 398.4 191.4 399.3 195.45 400.95 197.65 403.9 201.65 407.75 204.75 412.75 208.8 416.6 208.8 417.3 208.8 425.35 200.4 434.15 191.15 438.9 188.6 440.8 187.6 447.9 185.8 456.0 183.75 460.1 183.75 L468.85 184.55 483.3 186.35 M376.2 222.05 L376.5 221.7 358.45 197.9 357.85 202.8 Q357.85 207.5 358.8 211.4 L359.75 214.85 344.4 241.45 356.9 241.55 356.9 245.65 356.35 252.55 356.1 257.7 Q356.1 272.85 362.25 285.1 370.8 301.95 389.6 308.4 392.75 289.0 397.65 280.7 404.8 268.7 419.65 268.7 427.1 268.7 432.3 271.5 435.55 273.25 441.0 278.45 M391.35 198.55 L376.5 221.7 Q379.05 224.2 383.0 230.9 387.6 238.75 389.3 244.85 L410.7 227.5 M311.5 257.05 L311.5 257.7 Q315.25 251.05 325.55 245.25 337.0 238.85 344.4 241.45 M221.2 44.3 L230.9 53.55 Q232.1 54.7 234.05 54.7 L236.25 54.3 Q235.4 51.75 217.1 23.2 213.3 30.85 211.4 40.7 210.3 46.35 208.85 57.0 211.45 60.35 220.5 64.8 230.9 69.9 239.7 70.6 242.6 61.0 253.7 51.0 264.45 41.35 273.85 39.1 270.55 35.05 267.15 28.15 263.75 21.2 263.75 18.5 263.75 10.85 267.45 6.85 269.4 4.8 276.3 0.0 M207.55 70.9 Q214.7 69.95 221.45 78.0 228.05 85.8 226.35 91.85 L246.95 99.5 248.05 92.8 Q248.05 86.1 245.7 79.7 243.25 73.2 239.7 70.6 M139.2 21.35 L144.35 21.15 Q156.25 21.15 165.7 26.35 176.95 32.5 180.95 44.35 183.8 42.3 188.25 40.5 194.25 38.1 198.4 38.55 197.35 26.65 192.0 13.4 189.0 5.9 185.55 0.0 M208.85 57.0 Q200.75 48.1 199.3 44.35 198.8 43.1 198.75 41.5 L198.4 38.55 M212.8 141.4 Q205.95 122.5 184.3 108.7 174.8 102.7 165.35 99.85 155.65 96.95 148.6 98.1 L138.05 95.9 Q131.65 95.9 126.8 97.9 122.85 99.5 118.05 103.3 L127.2 122.1 Q122.7 123.5 118.6 125.9 113.5 128.85 110.15 132.75 L102.15 144.65 95.3 155.0 Q94.15 155.0 92.9 152.55 L90.2 146.5 Q85.4 136.65 77.55 132.0 L67.35 146.9 Q56.6 152.95 51.35 154.6 43.05 157.3 27.45 158.1 M194.0 197.85 Q192.2 197.55 189.15 194.75 183.2 189.25 176.35 176.7 172.55 169.7 168.4 166.0 164.95 162.9 162.3 162.9 L152.75 171.6 139.75 183.6 Q139.05 184.25 133.3 185.75 L116.75 189.4 107.9 199.95 Q102.6 193.6 100.7 192.45 L84.4 186.35 84.9 185.3 M251.45 138.85 Q247.2 106.5 246.95 99.5 M62.5 0.0 Q72.3 9.25 76.45 15.0 81.0 21.25 81.0 26.1 81.0 29.65 78.7 34.0 76.4 38.35 76.4 40.15 76.4 48.4 81.9 60.25 85.65 68.45 89.5 73.75 L66.85 100.25 67.1 100.6 Q74.0 102.0 90.2 107.45 104.25 112.15 107.0 112.15 108.8 112.15 113.05 108.25 L118.05 103.3 M148.6 98.1 Q147.1 95.9 145.6 91.35 144.0 86.5 144.0 83.65 144.0 79.25 145.95 74.2 148.3 68.15 152.4 64.6 146.8 58.5 142.05 53.9 133.05 45.1 126.6 41.75 M66.85 100.25 Q65.65 96.2 65.65 94.75 65.65 90.3 67.1 85.75 56.9 84.7 36.25 88.55 14.8 92.55 1.75 98.4 L0.0 95.85 M67.35 146.9 L57.15 136.9 47.25 126.85 40.15 133.5 Q33.45 138.85 28.7 138.85 26.35 136.3 22.8 133.35 15.7 127.35 8.6 125.2 M116.75 189.4 L116.45 189.45 Q112.95 176.6 111.45 172.75 109.0 166.5 106.3 166.5 105.7 166.5 90.8 171.75 L76.0 176.95 M167.35 316.8 L168.0 312.05 168.3 308.2 Q168.3 298.2 165.9 294.05 163.6 290.05 158.1 290.05 L151.7 291.25 Q154.15 287.65 156.3 277.1 158.3 267.35 158.3 261.1 158.3 249.0 153.5 239.4 149.65 231.6 142.1 224.65 137.45 230.15 133.9 237.6 130.45 244.8 128.45 252.85 121.1 260.2 114.6 263.55 106.45 267.7 96.3 267.7 L88.3 266.7 71.25 285.2 M128.45 252.85 Q117.0 252.4 109.05 240.9 101.6 230.15 101.05 216.0 L75.6 225.25 Q68.6 216.2 63.15 212.5 57.4 208.65 50.15 208.65 L42.65 210.5 Q34.95 212.5 33.2 213.35 M249.4 201.95 Q259.15 213.75 262.15 225.45 L263.5 231.8 Q264.0 234.0 264.95 234.0 266.65 234.0 269.85 231.6 L276.2 226.55 Q285.25 219.25 290.6 220.15 L311.35 258.2 311.5 257.7 M271.9 259.8 Q284.6 267.8 291.95 273.9 299.0 279.8 299.0 282.2 299.0 285.0 291.45 293.6 282.85 302.85 280.7 305.5 L280.25 297.75 Q280.25 287.3 282.25 281.25 L284.9 286.65 M218.5 210.65 Q207.55 214.75 197.45 222.4 187.15 230.2 178.85 240.9 173.15 232.6 163.7 227.8 152.9 222.4 142.1 224.65 M217.5 245.0 Q217.0 245.0 212.65 247.7 203.9 253.05 184.65 266.45 L219.95 300.1 Q224.55 304.05 227.75 305.4 230.6 306.6 235.0 306.6 L238.95 306.15 Q234.4 296.3 229.15 287.4 218.7 269.75 212.8 269.75 213.1 272.15 215.65 278.15 218.5 285.0 221.2 288.65" fill="none" stroke="#60a776" stroke-linecap="round" stroke-linejoin="round" stroke-width="1.0"/>
  </g>
</svg>