<?xml version="1.0" encoding="UTF-8" standalone="no"?>
<svg xmlns:xlink="http://www.w3.org/1999/xlink" height="76.8px" width="53.4px" xmlns="http://www.w3.org/2000/svg">
  <g transform="matrix(1.0, 0.0, 0.0, 1.0, -14.6, -8.5)">
    <path d="M30.05 42.3 L31.85 35.65 32.05 36.9 Q33.35 45.65 36.6 53.9 L38.2 57.7 41.95 63.3 Q38.7 56.9 37.65 50.0 L37.15 46.45 37.4 41.55 38.4 41.55 38.85 43.8 43.55 61.55 Q46.45 67.7 51.5 72.3 L54.0 74.5 Q40.8 69.7 35.35 56.75 L31.0 43.15 Q31.75 46.8 32.75 50.4 34.3 55.95 36.95 61.15 L48.7 75.1 50.4 76.55 52.0 77.9 44.25 73.3 Q35.55 65.25 31.25 54.1 L30.2 51.25 30.05 42.3" fill="#cd4747" fill-rule="evenodd" stroke="none"/>
    <path d="M43.55 61.55 L48.05 68.1 Q41.3 57.9 42.2 45.55 42.5 41.6 43.25 37.65 41.85 58.75 57.4 72.1 61.7 75.75 67.0 77.75 L66.75 78.5 58.45 77.3 61.55 79.75 Q47.4 80.85 37.85 70.95 26.55 59.25 28.65 42.35 L30.05 42.3 30.2 51.25 Q31.35 64.1 41.7 71.55 L44.25 73.3 52.0 77.9 50.4 76.55 51.7 77.15 48.7 75.1 36.95 61.15 35.35 56.75 Q40.8 69.7 54.0 74.5 L51.5 72.3 Q46.45 67.7 43.55 61.55 M32.05 36.9 Q31.85 31.9 35.0 28.35 L36.3 26.85 Q32.2 42.55 38.2 57.7 L36.6 53.9 Q33.35 45.65 32.05 36.9 M37.15 46.45 Q34.7 25.6 49.65 11.05 L51.25 9.5 52.3 10.2 Q40.7 25.1 38.85 43.8 L38.4 41.55 37.4 41.55 37.15 46.45" fill="#bd4d4d" fill-rule="evenodd" stroke="none"/>
    <path d="M19.7 52.8 Q19.55 50.05 21.05 47.85 L21.75 46.85 Q20.35 58.0 24.65 68.25 L25.05 69.2 25.85 71.1 Q28.9 78.2 35.2 82.6 L35.9 83.8 30.85 81.15 28.9 78.4 Q20.9 66.8 19.7 52.8 M25.0 62.15 L25.05 61.05 25.85 60.9 Q28.55 76.05 41.9 84.15 L34.9 80.65 33.35 78.95 Q27.25 71.45 25.0 62.15 M28.8 80.15 L31.85 84.3 Q7.5 63.8 19.6 34.9 20.7 32.2 22.2 29.75 18.4 42.5 17.95 55.75 L18.3 58.85 Q19.8 71.25 28.8 80.15" fill="#8b2e2e" fill-rule="evenodd" stroke="none"/>
    <path d="M24.65 68.25 Q21.9 61.05 24.0 53.55 L24.8 51.35 25.0 62.15 Q27.25 71.45 33.35 78.95 L34.9 80.65 38.25 83.8 35.2 82.6 Q28.9 78.2 25.85 71.1 L25.05 69.2 24.65 68.25 M30.85 81.15 L28.8 80.15 Q19.8 71.25 18.3 58.85 L17.95 55.75 19.05 51.85 19.7 52.8 Q20.9 66.8 28.9 78.4 L30.85 81.15" fill="#ab3f3f" fill-rule="evenodd" stroke="none"/>
  </g>
</svg>