<?xml version="1.0" encoding="UTF-8" standalone="no"?>
<svg xmlns:xlink="http://www.w3.org/1999/xlink" height="36px" width="25.3px" xmlns="http://www.w3.org/2000/svg">
  <g transform="matrix(1.0, 0.0, 0.0, 1.0, 1, 1)">
    <path d="M3.35 10.3 Q6.75 8.4 7.25 5.05 L7.25 4.4 7.35 2.2 Q7.45 0.5 7.85 0.0 L8.05 0.05 Q8.65 1.0 10.75 1.5 L11.65 1.65 14.25 1.45 14.4 1.4 15.4 1.65 15.65 1.75 16.2 2.2 16.25 2.3 16.7 2.55 16.85 2.65 17.3 2.8 17.45 2.85 19.7 2.9 23.3 2.55 22.95 5.4 Q22.6 6.55 21.45 7.95 20.8 8.8 20.5 9.5 L20.8 11.55 19.25 16.5 19.8 23.2 19.95 24.4 20.1 26.45 20.45 30.65 20.5 31.8 Q20.5 35.0 17.15 33.5 L17.75 28.7 18.9 29.05 19.1 28.65 Q18.75 28.0 18.75 27.7 L17.9 27.6 18.15 25.7 18.15 25.35 18.25 21.7 Q18.2 18.65 17.95 17.35 17.7 16.0 15.4 10.85 L13.25 6.1 12.9 8.9 13.05 10.4 Q12.15 8.45 11.5 8.25 L10.75 8.6 10.15 8.95 8.85 9.75 5.15 12.15 4.6 12.55 0.0 11.55 3.35 10.3 M10.75 4.55 Q11.25 4.6 11.5 4.2 11.2 3.55 10.75 3.6 L10.5 3.7 Q10.45 4.2 10.65 4.5 L10.75 4.55 M17.1 11.3 L17.95 13.1 Q19.05 12.2 19.15 11.45 19.2 10.7 17.15 8.6 L15.65 7.25 16.55 9.7 16.9 10.6 16.85 11.25 17.1 11.3 M10.0 6.05 Q9.8 5.55 9.2 5.35 9.1 6.05 9.7 6.4 L10.0 6.05" fill="url(#gradient0)" fill-rule="evenodd" stroke="none"/>
    <path d="M17.15 33.5 Q13.85 32.6 14.6 30.05 L14.8 29.6 15.0 29.05 15.2 28.55 15.35 27.95 Q16.5 24.6 16.8 22.55 L15.4 17.35 15.35 17.15 14.85 15.55 Q13.85 12.2 13.05 10.4 L12.9 8.9 13.25 6.1 15.4 10.85 Q17.7 16.0 17.95 17.35 18.2 18.65 18.25 21.7 L18.15 25.35 18.15 25.7 17.9 27.6 18.75 27.7 Q18.75 28.0 19.1 28.65 L18.9 29.05 17.75 28.7 17.15 33.5 M10.75 4.55 L10.65 4.5 Q10.45 4.2 10.5 3.7 L10.75 3.6 Q11.2 3.55 11.5 4.2 11.25 4.6 10.75 4.55 M16.9 10.6 L16.55 9.7 15.65 7.25 17.15 8.6 Q19.2 10.7 19.15 11.45 19.05 12.2 17.95 13.1 L17.1 11.3 17.35 11.35 17.6 10.6 16.95 10.25 16.9 10.6 M10.0 6.05 L9.7 6.4 Q9.1 6.05 9.2 5.35 9.8 5.55 10.0 6.05 M16.2 17.4 Q16.1 18.15 16.5 18.5 L17.0 18.15 Q17.1 17.75 16.8 17.35 L16.2 17.4 M15.4 12.85 L15.35 12.65 14.95 12.1 14.5 12.5 14.2 13.3 14.3 13.6 14.7 13.85 Q15.45 14.1 15.2 13.75 L15.45 13.15 15.4 12.85" fill="#cb4c4c" fill-rule="evenodd" stroke="none"/>
    <path d="M17.1 11.3 L16.85 11.25 16.9 10.6 16.95 10.25 17.6 10.6 17.35 11.35 17.1 11.3 M15.4 12.85 L15.45 13.15 15.2 13.75 Q15.45 14.1 14.7 13.85 L14.3 13.6 14.2 13.3 14.5 12.5 14.95 12.1 15.35 12.65 15.4 12.85 M16.2 17.4 L16.8 17.35 Q17.1 17.75 17.0 18.15 L16.5 18.5 Q16.1 18.15 16.2 17.4" fill="#ffffcc" fill-rule="evenodd" stroke="none"/>
    <path d="M3.35 10.3 Q6.75 8.4 7.25 5.05 L7.25 4.4 7.35 2.2 Q7.45 0.5 7.85 0.0 L8.05 0.05 Q8.65 1.0 10.75 1.5 L11.65 1.65 14.25 1.45 14.4 1.4 15.4 1.65 15.65 1.75 16.2 2.2 16.25 2.3 16.7 2.55 16.85 2.65 17.3 2.8 17.45 2.85 19.7 2.9 23.3 2.55 22.95 5.4 Q22.6 6.55 21.45 7.95 20.8 8.8 20.5 9.5 L20.8 11.55 19.25 16.5 19.8 23.2 19.95 24.4 20.1 26.45 20.45 30.65 20.5 31.8 M14.6 30.05 L14.8 29.6 15.0 29.05 15.2 28.55 15.35 27.95 Q16.5 24.6 16.8 22.55 L15.4 17.35 15.35 17.15 14.85 15.55 Q13.85 12.2 13.05 10.4 12.15 8.45 11.5 8.25 L10.75 8.6 10.15 8.95 8.85 9.75 5.15 12.15 4.6 12.55 0.0 11.55" fill="none" stroke="#4f0202" stroke-linecap="round" stroke-linejoin="round" stroke-opacity="0.49803922" stroke-width="1"/>
    <path d="M0.0 11.55 L3.35 10.3" fill="none" stroke="#333333" stroke-linecap="round" stroke-linejoin="round" stroke-opacity="0.49803922" stroke-width="1"/>
  </g>
  <defs>
    <linearGradient gradientTransform="matrix(-0.0076, -0.0022, 0.0026, -0.0207, -88.2, -52.9)" gradientUnits="userSpaceOnUse" id="gradient0" spreadMethod="pad" x1="-819.2" x2="819.2">
      <stop offset="0.0" stop-color="#913333"></stop>
      <stop offset="1.0" stop-color="#702121"></stop>
    </linearGradient>
  </defs>
</svg>