<?xml version="1.0" encoding="UTF-8" standalone="no"?>
<svg xmlns:xlink="http://www.w3.org/1999/xlink" height="62.15px" width="54.5px" xmlns="http://www.w3.org/2000/svg">
  <g transform="matrix(1.0, 0.0, 0.0, 1.0, 1, 1)">
    <path d="M48.35 60.05 Q43.9 60.1 44.45 57.2 L44.6 56.65 44.8 56.0 44.95 55.45 45.1 54.75 Q46.05 50.85 46.05 48.6 L43.3 43.35 42.4 41.8 Q40.5 38.6 39.15 36.95 L38.75 35.35 38.75 32.25 Q45.95 40.85 46.75 42.75 47.3 44.0 47.8 47.25 L48.3 51.1 48.35 51.5 48.35 53.6 49.5 53.45 50.15 54.3 49.95 54.8 48.35 54.8 48.35 60.05 M44.65 36.6 L44.95 36.6 45.15 35.75 44.2 35.55 44.2 35.95 43.6 35.05 42.05 32.75 Q43.0 33.1 44.25 33.75 47.3 35.3 47.3 36.1 47.3 36.95 46.0 38.25 L44.65 36.6 M44.45 43.35 Q44.45 44.15 45.05 44.4 L45.65 43.9 Q45.65 43.45 45.25 43.05 44.75 43.05 44.45 43.35 M42.55 38.6 Q42.3 38.3 41.95 38.15 L41.45 38.7 41.2 39.6 41.3 39.9 41.95 40.05 Q42.95 40.05 42.55 39.8 L42.75 39.05 42.55 38.6 M31.0 7.85 L31.1 8.5 30.4 8.8 29.75 8.3 30.35 7.75 30.9 7.65 31.0 7.85 M23.85 6.85 L24.1 7.2 24.35 8.35 24.1 10.55 23.85 13.6 Q23.85 14.4 22.55 18.1 L20.9 21.95 19.75 24.55 19.7 24.8 18.6 24.75 Q18.6 25.35 18.85 25.65 L19.4 25.6 17.5 30.95 11.2 35.65 10.0 36.8 8.55 36.9 6.95 37.1 6.95 37.05 4.65 36.4 Q2.55 35.45 2.55 33.55 2.55 32.0 5.0 26.05 5.6 23.95 6.7 21.9 8.05 18.85 8.55 18.5 L8.6 18.8 Q10.7 15.8 13.65 12.8 16.45 10.0 18.6 8.5 L18.0 8.4 17.8 8.3 17.7 7.65 17.8 7.0 Q17.85 6.95 17.9 7.05 L18.5 6.95 19.25 7.7 19.0 8.2 Q20.35 7.3 21.45 6.95 L22.6 6.75 23.85 6.85 M29.75 11.85 L29.55 12.75 28.5 12.75 28.4 12.15 28.5 11.55 29.45 11.55 29.75 11.85 M26.35 12.05 Q26.55 12.35 26.55 13.2 L26.4 13.3 26.65 13.4 26.2 13.9 25.6 13.4 25.85 13.25 25.8 12.05 26.35 12.05 M30.1 13.5 L30.4 13.6 30.8 13.9 30.7 14.65 30.15 14.7 30.05 14.1 30.1 13.5 M24.35 19.65 Q24.35 19.05 24.55 19.0 L25.05 19.0 Q25.7 19.3 25.7 20.05 L25.5 20.15 25.4 20.35 24.55 20.25 Q24.35 20.65 24.35 19.65 M23.3 24.55 L24.05 25.45 23.5 26.3 22.25 26.3 22.1 26.2 Q21.95 26.1 21.95 25.5 L22.05 24.65 23.3 24.55 M29.85 18.9 L30.15 19.2 Q30.15 19.8 29.25 20.55 L28.6 20.45 Q28.4 20.85 28.4 19.85 28.4 19.2 28.9 19.0 L29.85 18.9 M29.25 22.45 L29.45 22.8 29.35 23.4 29.15 23.7 28.5 23.6 Q28.3 23.3 28.3 22.45 L29.05 22.25 29.25 22.45 M19.15 34.2 L18.65 33.6 Q17.95 33.6 17.8 34.5 L18.5 34.95 19.15 34.2 M12.15 28.3 L11.45 28.15 10.95 28.15 Q10.95 28.95 11.85 29.1 L12.15 28.3 M16.95 23.3 L16.35 21.6 Q15.7 21.95 15.45 22.8 15.25 23.5 15.4 23.8 L16.55 23.9 16.95 23.3 M12.7 19.25 Q12.9 19.55 13.5 19.75 L14.35 18.8 13.5 18.0 Q12.75 18.2 12.6 18.85 L12.7 19.25 M16.65 15.45 L17.7 16.7 Q18.45 16.4 18.6 15.9 18.6 14.9 17.7 14.55 L17.2 14.65 Q16.65 14.85 16.65 15.45 M9.45 20.8 L8.85 20.7 8.45 20.85 Q8.0 21.05 8.0 21.65 8.0 22.3 8.25 22.55 L8.85 22.85 9.65 22.05 9.7 21.5 9.45 20.8 M15.35 35.3 L17.3 33.25 Q19.25 32.25 21.55 32.25 L23.9 32.5 23.15 34.1 22.7 34.75 23.1 35.05 Q22.9 35.65 21.55 35.65 L21.45 35.5 Q13.0 39.2 13.0 38.75 L12.25 38.75 15.35 35.3 M4.6 31.4 L4.7 31.9 Q5.5 31.9 5.75 31.6 4.85 31.15 4.6 31.4 M10.5 31.3 L10.2 30.15 9.65 30.15 9.55 31.0 9.65 31.6 Q10.3 31.6 10.5 31.3 M34.15 33.7 Q33.3 33.55 33.3 32.75 34.15 32.75 34.45 33.25 L34.15 33.7 M35.05 31.4 Q34.75 31.1 34.75 30.55 35.45 30.05 36.1 30.85 35.9 31.4 35.05 31.4 M27.8 27.35 L27.35 28.25 25.8 27.85 25.7 27.4 Q25.8 27.1 26.25 26.8 26.7 26.5 27.15 26.5 27.65 26.85 27.8 27.35 M27.7 29.3 L28.3 29.45 Q28.5 29.55 28.5 30.2 28.5 31.2 28.4 30.65 L28.1 31.2 27.05 31.1 Q26.95 31.25 26.95 30.25 26.95 29.6 27.2 29.45 L27.7 29.3 M24.45 35.85 Q25.25 35.85 25.6 36.3 25.4 36.6 24.75 36.7 24.45 36.4 24.45 35.85 M27.7 32.95 Q26.85 32.7 26.85 32.0 L28.3 32.15 Q28.3 32.65 27.7 32.95 M24.05 39.0 Q23.85 39.3 23.2 39.4 22.9 39.95 22.9 38.95 L22.95 38.25 23.0 38.25 23.95 38.45 24.05 39.0" fill="#cb4c4c" fill-rule="evenodd" stroke="none"/>
    <path d="M26.8 0.25 Q31.3 2.95 34.2 7.2 36.65 10.7 36.65 12.6 36.65 13.4 35.0 15.3 33.15 17.4 32.95 18.05 L32.6 19.55 32.55 19.65 31.7 22.85 Q30.65 26.2 30.65 27.5 L30.9 27.5 Q32.0 28.5 35.85 28.1 37.45 27.95 39.3 27.05 L39.4 26.95 41.1 26.95 41.95 27.3 42.0 27.35 42.65 27.5 42.9 27.5 43.5 27.55 43.7 27.55 46.6 26.95 51.3 25.4 51.3 28.55 Q51.0 29.9 49.75 31.75 L48.8 33.65 49.5 35.75 48.3 41.4 50.15 48.35 50.5 49.6 51.1 51.7 52.25 56.0 52.45 57.2 Q52.95 60.6 48.35 60.05 L48.35 54.8 49.95 54.8 50.15 54.3 49.5 53.45 48.35 53.6 48.35 51.5 48.3 51.1 47.8 47.25 Q47.3 44.0 46.75 42.75 45.95 40.85 38.75 32.25 L38.75 35.35 39.15 36.95 Q37.65 35.1 36.75 35.1 L35.15 36.3 33.55 37.55 29.1 41.2 28.5 41.75 Q18.8 42.85 11.35 40.85 0.0 37.85 0.0 34.8 0.0 33.45 3.6 24.15 L5.85 18.5 10.8 12.2 Q11.8 10.8 18.95 5.3 25.85 0.0 26.3 0.0 L26.45 0.0 26.65 0.15 26.8 0.25 M44.65 36.6 L46.0 38.25 Q47.3 36.95 47.3 36.1 47.3 35.3 44.25 33.75 43.0 33.1 42.05 32.75 L43.6 35.05 44.2 35.95 44.3 36.6 44.65 36.6 M31.0 7.85 L30.9 7.65 30.35 7.75 29.75 8.3 30.4 8.8 31.1 8.5 31.0 7.85 M23.85 6.85 L22.6 6.75 21.45 6.95 Q20.35 7.3 19.0 8.2 L19.25 7.7 18.5 6.95 17.9 7.05 Q17.85 6.95 17.8 7.0 L17.7 7.65 17.8 8.3 18.0 8.4 18.6 8.5 Q16.45 10.0 13.65 12.8 10.7 15.8 8.6 18.8 L8.55 18.5 Q8.05 18.85 6.7 21.9 5.6 23.95 5.0 26.05 2.55 32.0 2.55 33.55 2.55 35.45 4.65 36.4 L6.95 37.05 6.95 37.1 Q6.85 38.3 8.45 38.55 L8.55 38.35 8.75 38.25 8.85 37.5 8.8 37.15 Q10.05 37.15 12.7 35.15 L18.25 30.9 Q19.65 29.9 20.45 28.3 L20.9 28.3 21.5 28.3 22.0 28.3 22.75 28.2 22.9 27.85 22.5 27.25 21.75 27.45 21.6 27.35 21.35 27.15 20.95 27.2 21.3 26.0 21.7 24.6 22.05 23.5 22.35 23.5 22.7 22.75 22.4 22.2 Q24.8 13.45 25.2 10.45 L26.0 9.75 25.6 9.15 25.25 9.15 Q25.2 7.5 24.45 7.0 L23.85 6.85 M29.25 22.45 L29.05 22.25 28.3 22.45 Q28.3 23.3 28.5 23.6 L29.15 23.7 29.35 23.4 29.45 22.8 29.25 22.45 M29.85 18.9 L28.9 19.0 Q28.4 19.2 28.4 19.85 28.4 20.85 28.6 20.45 L29.25 20.55 Q30.15 19.8 30.15 19.2 L29.85 18.9 M23.3 24.55 L22.05 24.65 21.95 25.5 Q21.95 26.1 22.1 26.2 L22.25 26.3 23.5 26.3 24.05 25.45 23.3 24.55 M24.35 19.65 Q24.35 20.65 24.55 20.25 L25.4 20.35 25.5 20.15 25.7 20.05 Q25.7 19.3 25.05 19.0 L24.55 19.0 Q24.35 19.05 24.35 19.65 M30.1 13.5 L30.05 14.1 30.15 14.7 30.7 14.65 30.8 13.9 30.4 13.6 30.1 13.5 M26.35 12.05 L25.8 12.05 25.85 13.25 25.6 13.4 26.2 13.9 26.65 13.4 26.4 13.3 26.55 13.2 Q26.55 12.35 26.35 12.05 M29.75 11.85 L29.45 11.55 28.5 11.55 28.4 12.15 28.5 12.75 29.55 12.75 29.75 11.85 M15.35 35.3 L12.25 38.75 13.0 38.75 Q13.0 39.2 21.45 35.5 L21.55 35.65 Q22.9 35.65 23.1 35.05 L22.7 34.75 23.15 34.1 23.9 32.5 21.55 32.25 Q19.25 32.25 17.3 33.25 L15.35 35.3 M34.15 33.7 L34.45 33.25 Q34.15 32.75 33.3 32.75 33.3 33.55 34.15 33.7 M26.45 39.8 Q30.6 36.7 30.65 33.05 L30.6 32.35 30.35 30.0 Q30.15 28.15 30.65 27.5 30.15 28.15 30.35 30.0 L30.6 32.35 30.65 33.05 Q30.6 36.7 26.45 39.8 M24.05 39.0 L23.95 38.45 23.0 38.25 22.95 38.25 22.9 38.95 Q22.9 39.95 23.2 39.4 23.85 39.3 24.05 39.0 M27.7 32.95 Q28.3 32.65 28.3 32.15 L26.85 32.0 Q26.85 32.7 27.7 32.95 M24.45 35.85 Q24.45 36.4 24.75 36.7 25.4 36.6 25.6 36.3 25.25 35.85 24.45 35.85 M27.7 29.3 L27.2 29.45 Q26.95 29.6 26.95 30.25 26.95 31.25 27.05 31.1 L28.1 31.2 28.4 30.65 Q28.5 31.2 28.5 30.2 28.5 29.55 28.3 29.45 L27.7 29.3 M27.8 27.35 Q27.65 26.85 27.15 26.5 26.7 26.5 26.25 26.8 25.8 27.1 25.7 27.4 L25.8 27.85 27.35 28.25 27.8 27.35 M35.05 31.4 Q35.9 31.4 36.1 30.85 35.45 30.05 34.75 30.55 34.75 31.1 35.05 31.4" fill="url(#gradient0)" fill-rule="evenodd" stroke="none"/>
    <path d="M44.2 35.95 L44.2 35.55 45.15 35.75 44.95 36.6 44.65 36.6 44.3 36.6 44.2 35.95 M42.55 38.6 L42.75 39.05 42.55 39.8 Q42.95 40.05 41.95 40.05 L41.3 39.9 41.2 39.6 41.45 38.7 41.95 38.15 Q42.3 38.3 42.55 38.6 M44.45 43.35 Q44.75 43.05 45.25 43.05 45.65 43.45 45.65 43.9 L45.05 44.4 Q44.45 44.15 44.45 43.35 M19.4 25.6 L18.85 25.65 Q18.6 25.35 18.6 24.75 L19.7 24.8 19.95 25.05 19.4 25.6 M9.45 20.8 L9.7 21.5 9.65 22.05 8.85 22.85 8.25 22.55 Q8.0 22.3 8.0 21.65 8.0 21.05 8.45 20.85 L8.85 20.7 9.45 20.8 M16.65 15.45 Q16.65 14.85 17.2 14.65 L17.7 14.55 Q18.6 14.9 18.6 15.9 18.45 16.4 17.7 16.7 L16.65 15.45 M12.7 19.25 L12.6 18.85 Q12.75 18.2 13.5 18.0 L14.35 18.8 13.5 19.75 Q12.9 19.55 12.7 19.25 M16.95 23.3 L16.55 23.9 15.4 23.8 Q15.25 23.5 15.45 22.8 15.7 21.95 16.35 21.6 L16.95 23.3 M12.15 28.3 L11.85 29.1 Q10.95 28.95 10.95 28.15 L11.45 28.15 12.15 28.3 M19.15 34.2 L18.5 34.95 17.8 34.5 Q17.95 33.6 18.65 33.6 L19.15 34.2 M10.5 31.3 Q10.3 31.6 9.65 31.6 L9.55 31.0 9.65 30.15 10.2 30.15 10.5 31.3 M4.6 31.4 Q4.85 31.15 5.75 31.6 5.5 31.9 4.7 31.9 L4.6 31.4" fill="#ffffcc" fill-rule="evenodd" stroke="none"/>
    <path d="M19.7 24.8 L19.75 24.55 20.9 21.95 22.55 18.1 Q23.85 14.4 23.85 13.6 L24.1 10.55 24.35 8.35 24.1 7.2 23.85 6.85 24.45 7.0 Q25.2 7.5 25.25 9.15 L25.6 9.15 26.0 9.75 25.2 10.45 Q24.8 13.45 22.4 22.2 L22.7 22.75 22.35 23.5 22.05 23.5 21.7 24.6 21.3 26.0 20.95 27.2 21.35 27.15 21.6 27.35 21.75 27.45 22.5 27.25 22.9 27.85 22.75 28.2 22.0 28.3 21.5 28.3 20.9 28.3 20.45 28.3 Q19.65 29.9 18.25 30.9 L12.7 35.15 Q10.05 37.15 8.8 37.15 L8.85 37.5 8.75 38.25 8.55 38.35 8.45 38.55 Q6.85 38.3 6.95 37.1 L8.55 36.9 10.0 36.8 11.2 35.65 17.5 30.95 19.4 25.6 19.95 25.05 19.7 24.8" fill="#e56d6d" fill-rule="evenodd" stroke="none"/>
    <path d="M26.8 0.25 Q31.3 2.95 34.2 7.2 36.65 10.7 36.65 12.6 36.65 13.4 35.0 15.3 33.15 17.4 32.95 18.05 L32.6 19.55 32.55 19.65 31.7 22.85 Q30.65 26.2 30.65 27.5 L30.9 27.5 Q32.0 28.5 35.85 28.1 37.45 27.95 39.3 27.05 L39.4 26.95 41.1 26.95 41.95 27.3 42.0 27.35 42.65 27.5 42.9 27.5 43.5 27.55 43.7 27.55 46.6 26.95 51.3 25.4 51.3 28.55 Q51.0 29.9 49.75 31.75 L48.8 33.65 49.5 35.75 48.3 41.4 50.15 48.35 50.5 49.6 51.1 51.7 52.25 56.0 52.45 57.2 M44.45 57.2 L44.6 56.65 44.8 56.0 44.95 55.45 45.1 54.75 Q46.05 50.85 46.05 48.6 L43.3 43.35 42.4 41.8 Q40.5 38.6 39.15 36.95 37.65 35.1 36.75 35.1 L35.15 36.3 33.55 37.55 29.1 41.2 28.5 41.75 Q18.8 42.85 11.35 40.85 0.0 37.85 0.0 34.8 0.0 33.45 3.6 24.15 L5.85 18.5 M26.45 0.0 Q26.8 0.05 26.8 0.25 L26.65 0.15 26.45 0.0 M30.65 27.5 Q30.15 28.15 30.35 30.0 L30.6 32.35 30.65 33.05 Q30.6 36.7 26.45 39.8" fill="none" stroke="#4f0202" stroke-linecap="round" stroke-linejoin="round" stroke-opacity="0.49803922" stroke-width="1"/>
  </g>
  <defs>
    <linearGradient gradientTransform="matrix(-0.0103, 0.0, 0.0, -0.0226, -103.8, 1.25)" gradientUnits="userSpaceOnUse" id="gradient0" spreadMethod="pad" x1="-819.2" x2="819.2">
      <stop offset="0.0" stop-color="#913333"></stop>
      <stop offset="1.0" stop-color="#702121"></stop>
    </linearGradient>
  </defs>
</svg>