<?xml version="1.0" encoding="UTF-8" standalone="no"?>
<svg xmlns:xlink="http://www.w3.org/1999/xlink" height="38.6px" width="25.85px" xmlns="http://www.w3.org/2000/svg">
  <g transform="matrix(1.0, 0.0, 0.0, 1.0, 2.9, 1)">
    <path d="M6.8 14.15 L7.25 13.55 Q6.25 13.05 6.25 13.8 6.25 14.45 6.35 14.1 L6.8 14.15 M6.35 7.35 L6.65 6.85 6.2 6.45 5.75 6.3 5.8 6.75 6.35 7.35 M4.35 11.85 Q4.35 12.5 4.5 12.25 5.2 11.95 6.0 11.15 L5.75 10.75 Q4.35 11.15 4.35 11.85 M3.15 5.75 L4.0 5.5 3.15 5.3 3.15 5.75 M13.35 10.8 L13.0 10.75 12.6 11.25 13.75 11.5 13.9 11.15 13.85 11.0 13.35 10.8 M9.8 17.6 L9.85 18.25 10.6 18.25 10.8 17.9 10.85 17.6 10.7 17.1 10.35 17.0 Q9.8 17.0 9.8 17.6 M11.4 18.6 Q11.4 19.25 12.4 19.25 L12.75 18.6 12.25 17.95 Q11.95 17.55 11.5 17.5 L11.5 17.95 11.0 18.0 11.1 18.6 11.4 18.6 M11.5 14.35 Q11.3 13.55 10.85 13.4 10.25 13.7 10.25 14.25 L10.35 14.75 10.85 14.9 11.5 14.35 M15.6 19.0 L15.9 18.8 15.75 17.8 14.75 17.8 14.65 18.25 15.35 19.0 Q15.0 19.25 15.0 19.75 15.0 20.4 15.1 20.15 L15.85 20.25 16.05 19.85 15.6 19.0 M12.25 22.4 L12.25 23.25 13.25 23.35 13.65 22.8 13.45 22.05 12.95 21.65 13.1 21.35 Q12.75 20.5 12.1 20.4 L12.05 21.25 12.05 21.4 11.6 21.35 Q10.6 21.35 10.6 22.25 L11.65 22.8 12.25 22.4 M18.05 23.6 L18.35 23.25 17.65 23.15 Q17.65 23.5 18.05 23.6 M16.75 22.85 Q16.1 23.25 16.1 23.8 16.1 24.2 16.25 24.3 L16.75 24.5 17.3 23.8 16.75 22.85 M0.0 0.0 Q5.3 0.6 13.45 10.45 22.4 21.2 21.9 29.85 L21.65 30.95 Q21.1 32.5 19.2 34.0 16.75 35.85 13.75 36.4 10.5 37.0 8.6 35.55 6.4 33.85 6.8 29.8 7.4 24.05 1.2 10.25 -1.35 4.55 -1.75 2.7 -2.4 -0.25 0.0 0.0 M13.5 31.85 L13.8 31.75 13.85 30.65 Q13.3 30.65 12.4 31.45 L12.5 31.75 13.5 31.85 M17.05 27.5 Q17.05 26.75 16.85 26.5 L16.5 26.5 16.4 27.25 16.45 27.75 16.75 27.85 17.05 27.5" fill="url(#gradient0)" fill-rule="evenodd" stroke="none"/>
    <path d="M9.8 17.6 Q9.8 17.0 10.35 17.0 L10.7 17.1 10.85 17.6 10.8 17.9 10.6 18.25 9.85 18.25 9.8 17.6 M11.4 18.6 L11.1 18.6 11.0 18.0 11.5 17.95 11.4 18.6 M15.35 19.0 L14.65 18.25 14.75 17.8 15.75 17.8 15.9 18.8 15.6 19.0 15.5 18.85 15.35 19.0 M12.05 21.4 L12.05 21.25 12.1 20.4 Q12.75 20.5 13.1 21.35 L12.95 21.65 13.45 22.05 13.65 22.8 13.25 23.35 12.25 23.25 12.25 22.4 13.05 21.75 Q12.6 21.45 12.05 21.4" fill="#cd4747" fill-rule="evenodd" stroke="none"/>
    <path d="M13.35 10.8 L13.85 11.0 13.9 11.15 13.75 11.5 12.6 11.25 13.0 10.75 13.35 10.8 M3.15 5.75 L3.15 5.3 4.0 5.5 3.15 5.75 M4.35 11.85 Q4.35 11.15 5.75 10.75 L6.0 11.15 Q5.2 11.95 4.5 12.25 4.35 12.5 4.35 11.85 M6.35 7.35 L5.8 6.75 5.75 6.3 6.2 6.45 6.65 6.85 6.35 7.35 M6.8 14.15 L6.35 14.1 Q6.25 14.45 6.25 13.8 6.25 13.05 7.25 13.55 L6.8 14.15 M11.5 14.35 L10.85 14.9 10.35 14.75 10.25 14.25 Q10.25 13.7 10.85 13.4 11.3 13.55 11.5 14.35 M11.5 17.95 L11.5 17.5 Q11.95 17.55 12.25 17.95 L12.75 18.6 12.4 19.25 Q11.4 19.25 11.4 18.6 L11.5 17.95 M15.6 19.0 L16.05 19.85 15.85 20.25 15.1 20.15 Q15.0 20.4 15.0 19.75 15.0 19.25 15.35 19.0 L15.5 18.85 15.6 19.0 M12.25 22.4 L11.65 22.8 10.6 22.25 Q10.6 21.35 11.6 21.35 L12.05 21.4 Q12.6 21.45 13.05 21.75 L12.25 22.4 M16.75 22.85 L17.3 23.8 16.75 24.5 16.25 24.3 Q16.1 24.2 16.1 23.8 16.1 23.25 16.75 22.85 M18.05 23.6 Q17.65 23.5 17.65 23.15 L18.35 23.25 18.05 23.6 M17.05 27.5 L16.75 27.85 16.45 27.75 16.4 27.25 16.5 26.5 16.85 26.5 Q17.05 26.75 17.05 27.5 M13.5 31.85 L12.5 31.75 12.4 31.45 Q13.3 30.65 13.85 30.65 L13.8 31.75 13.5 31.85" fill="#ffffcc" fill-rule="evenodd" stroke="none"/>
    <path d="M0.0 0.0 Q5.3 0.6 13.45 10.45 22.4 21.2 21.9 29.85 L21.65 30.95" fill="none" stroke="#4f0202" stroke-linecap="round" stroke-linejoin="round" stroke-opacity="0.49803922" stroke-width="1"/>
  </g>
  <defs>
    <linearGradient gradientTransform="matrix(0.0042, -0.0218, 0.025, 0.0048, 1.35, 35.35)" gradientUnits="userSpaceOnUse" id="gradient0" spreadMethod="pad" x1="-819.2" x2="819.2">
      <stop offset="0.0" stop-color="#913333"></stop>
      <stop offset="1.0" stop-color="#cd4747"></stop>
    </linearGradient>
  </defs>
</svg>