<?xml version="1.0" encoding="UTF-8" standalone="no"?>
<svg xmlns:xlink="http://www.w3.org/1999/xlink" height="11.45px" width="68.15px" xmlns="http://www.w3.org/2000/svg">
  <g transform="matrix(1.0, 0.0, 0.0, 1.0, 34.1, 5.75)">
    <path d="M22.25 -2.25 Q25.95 -3.7 27.65 -3.7 L28.1 -3.25 Q28.1 -2.8 23.9 -1.25 L17.05 0.85 5.5 2.65 5.45 2.55 16.4 0.0 22.25 -2.25 M31.6 -3.6 Q31.05 -3.6 31.05 -4.05 31.55 -4.75 32.65 -4.75 33.05 -4.75 33.05 -4.3 33.05 -3.6 31.6 -3.6 M-22.3 1.6 Q-22.6 2.2 -28.25 3.05 -29.1 3.3 -30.55 4.1 -31.55 4.7 -32.4 4.7 -33.2 4.7 -33.1 4.05 -33.1 2.65 -29.65 1.8 -26.9 1.1 -24.35 1.1 L-22.4 1.45 -22.3 1.6 M-20.1 1.35 Q-19.4 1.35 -19.4 1.8 -19.4 2.4 -20.25 2.4 -20.9 2.4 -20.9 1.95 -20.9 1.35 -20.1 1.35" fill="#ffffff" fill-opacity="0.8509804" fill-rule="evenodd" stroke="none"/>
  </g>
</svg>