<?xml version="1.0" encoding="UTF-8" standalone="no"?>
<svg xmlns:xlink="http://www.w3.org/1999/xlink" height="21.7px" width="102.8px" xmlns="http://www.w3.org/2000/svg">
  <g transform="matrix(1.0, 0.0, 0.0, 1.0, 51.4, 10.85)">
    <path d="M0.0 -0.4 Q-0.6 -0.45 -0.6 -1.4 -0.6 -2.95 -0.05 -2.95 0.35 -2.95 0.4 -0.85 L0.1 -0.4 0.0 -0.4 M8.55 -1.4 Q8.55 -1.7 9.1 -2.65 L9.05 -2.65 Q9.6 -3.75 10.2 -3.95 L10.3 -3.95 10.4 -3.9 10.45 -3.7 10.45 -3.65 Q9.25 -1.85 9.35 -0.85 9.35 -0.65 9.0 -0.65 L8.95 -0.65 8.95 -0.7 8.55 -1.4 M15.05 -5.6 L15.1 -5.65 15.15 -5.65 15.4 -5.35 14.9 -3.45 14.85 -3.4 14.8 -3.4 14.75 -3.45 14.3 -4.15 14.25 -4.2 Q14.25 -4.6 15.05 -5.6 M12.4 -4.55 L13.4 -2.4 13.4 -2.3 13.4 -2.25 13.2 -2.05 13.15 -2.05 13.1 -2.05 Q11.95 -2.45 11.95 -4.2 L12.3 -4.6 12.35 -4.6 12.4 -4.55 M17.9 -3.4 L17.95 -3.45 18.2 -3.5 Q18.65 -3.5 19.4 -1.65 L19.4 -1.6 19.35 -1.35 19.35 -1.3 18.9 -1.2 18.85 -1.2 18.85 -1.25 17.8 -3.15 17.85 -3.4 17.9 -3.4 M27.6 -8.65 L27.65 -8.6 27.8 -8.15 27.4 -7.3 26.85 -6.65 26.8 -6.65 26.75 -6.65 26.45 -6.9 26.4 -6.95 26.4 -7.0 Q26.4 -8.2 27.55 -8.65 L27.6 -8.65 M30.1 -6.2 L30.1 -6.15 Q28.95 -4.65 28.55 -4.65 L28.25 -4.75 28.2 -4.8 28.15 -4.95 28.15 -5.0 Q28.15 -5.4 29.7 -6.55 L29.75 -6.6 29.8 -6.6 30.1 -6.2 M21.9 -7.8 L21.95 -7.8 22.85 -6.0 22.85 -5.95 22.85 -5.75 22.75 -5.55 22.5 -5.55 Q21.95 -5.55 21.6 -6.45 L21.4 -7.4 Q21.4 -7.85 21.85 -7.85 L21.9 -7.8 M22.6 -0.7 Q22.6 -2.05 23.45 -2.5 L23.5 -2.55 23.55 -2.55 23.8 -2.2 Q23.8 -0.9 23.05 -0.35 L23.0 -0.35 22.95 -0.35 22.65 -0.6 22.6 -0.65 22.6 -0.7 M37.2 -9.3 L37.2 -9.25 37.6 -7.85 37.6 -7.8 37.6 -7.75 Q37.45 -7.45 37.1 -7.45 L37.05 -7.45 37.05 -7.5 36.6 -8.25 Q36.6 -9.05 37.05 -9.3 L37.1 -9.35 37.2 -9.3 M39.85 -6.2 L39.75 -6.2 Q39.3 -6.4 39.35 -6.6 39.35 -7.05 40.2 -7.95 41.0 -8.9 41.45 -8.9 L41.5 -8.9 41.85 -8.55 41.85 -8.5 41.8 -8.45 Q40.6 -7.7 39.9 -6.25 L39.85 -6.2 M33.05 -9.75 L33.1 -9.8 33.3 -9.85 Q33.8 -9.9 34.0 -8.25 L33.95 -8.0 Q33.95 -7.85 33.6 -7.85 33.2 -7.8 33.0 -8.85 L33.0 -9.7 33.05 -9.75 M33.05 -4.2 Q33.05 -3.5 32.65 -3.4 L32.6 -3.4 32.55 -3.4 Q32.2 -3.7 32.2 -4.2 L32.45 -4.95 32.5 -5.0 32.55 -5.05 33.0 -4.8 33.05 -4.25 33.05 -4.2 M35.55 -0.75 L35.6 -0.7 35.9 -0.4 35.9 -0.35 35.55 0.3 34.95 0.95 34.9 0.95 Q34.35 0.75 34.35 0.55 34.35 -0.3 35.5 -0.75 L35.55 -0.75 M39.1 -2.95 Q39.65 -2.95 40.1 -1.55 L40.1 -1.5 40.05 -1.25 40.05 -1.2 39.7 -1.1 39.65 -1.1 39.65 -1.15 38.8 -2.45 38.75 -2.5 Q38.75 -2.95 39.1 -2.95 M30.6 -0.95 Q31.0 -0.95 31.05 0.45 L30.9 0.9 30.85 0.95 30.75 0.95 Q30.2 0.55 30.2 -0.1 30.2 -0.95 30.6 -0.95 M46.25 -7.8 L46.55 -7.4 46.55 -7.35 46.4 -6.7 46.05 -5.75 Q45.65 -4.9 45.45 -4.95 L45.4 -4.95 45.4 -5.0 44.95 -5.65 Q44.95 -6.35 46.1 -7.8 L46.15 -7.85 46.2 -7.85 46.25 -7.8 M44.75 -3.2 L44.8 -3.15 44.85 -2.8 Q44.85 -2.15 44.3 -2.15 L44.0 -2.2 43.95 -2.2 43.9 -2.3 43.85 -2.45 43.85 -2.5 Q43.85 -3.15 44.7 -3.25 L44.75 -3.2 M50.4 -4.35 Q49.5 -3.65 48.45 -3.65 L48.0 -3.7 47.95 -3.7 47.9 -3.8 47.85 -3.95 47.85 -4.0 Q47.85 -4.65 49.85 -4.65 L50.35 -4.55 50.4 -4.5 50.4 -4.4 50.4 -4.35 M16.3 1.85 Q16.95 1.85 17.35 3.2 L17.3 3.4 17.3 3.45 17.0 3.55 Q16.45 3.55 15.95 2.15 L15.95 2.1 16.0 2.05 16.3 1.85 M13.55 4.95 L13.55 5.0 13.55 5.05 13.0 5.5 Q12.4 5.5 12.0 5.0 L11.95 4.9 Q11.95 4.55 12.3 4.55 L13.55 4.95 M8.5 0.5 L8.8 0.4 Q9.1 0.4 9.55 1.75 L9.55 1.8 9.55 1.85 9.2 2.05 Q8.6 2.05 8.45 1.35 L8.4 0.6 8.45 0.55 8.5 0.5 M1.4 2.8 L2.4 4.95 2.4 5.0 Q2.35 5.2 2.0 5.2 1.45 5.2 1.1 4.2 L0.9 3.2 0.95 3.15 1.25 2.8 1.3 2.75 1.35 2.75 1.4 2.8 M-28.05 -3.2 L-27.95 -2.75 -29.8 0.65 -29.85 0.7 -29.9 0.7 Q-30.45 0.7 -30.45 0.1 L-29.45 -1.65 -28.2 -3.2 -28.1 -3.25 -28.05 -3.2 M-12.9 -1.9 L-12.5 -0.9 -12.5 -0.85 -12.55 -0.7 -12.6 -0.65 -12.65 -0.65 -13.05 -0.5 -13.15 -0.5 -13.2 -0.55 -13.4 -1.35 Q-13.4 -1.95 -13.0 -1.95 L-12.95 -1.9 -12.9 -1.9 M-7.45 -1.9 L-7.4 -1.85 -7.15 -0.95 Q-7.15 -0.2 -7.5 0.65 L-7.5 0.7 -7.55 0.7 -7.7 0.75 -7.75 0.75 -8.2 0.5 -8.25 -0.1 Q-8.25 -0.9 -7.55 -1.9 L-7.5 -1.95 -7.45 -1.9 M-4.2 3.05 L-4.15 3.0 -3.9 2.95 Q-3.45 2.95 -3.2 3.85 -3.2 4.3 -3.6 4.3 -4.1 4.3 -4.3 3.4 L-4.3 3.35 -4.25 3.1 -4.2 3.05 M-0.35 8.45 L-0.3 8.4 -0.25 8.4 Q0.05 8.55 0.05 8.8 0.05 9.5 -0.25 9.75 -0.55 10.0 -1.1 9.75 L-1.15 9.7 -1.2 9.65 Q-1.2 9.0 -0.35 8.45 M-13.6 1.25 L-15.7 3.75 -15.75 3.75 -15.8 3.75 -16.0 3.7 -16.05 3.7 -16.1 3.65 -16.15 3.55 -16.15 3.45 Q-15.0 0.75 -14.15 0.8 L-13.75 0.95 -13.7 0.9 -13.6 0.95 -13.6 1.15 -13.6 1.25 M-13.6 6.1 L-13.55 6.05 Q-12.55 4.65 -11.7 4.65 -11.4 4.65 -11.25 4.8 L-11.25 4.85 -11.25 4.9 Q-11.55 5.75 -13.15 6.45 L-13.2 6.45 -13.25 6.45 -13.55 6.2 -13.6 6.1 M-24.45 2.65 Q-24.45 1.55 -23.75 1.55 -23.4 1.55 -23.4 2.1 -23.4 3.3 -23.95 3.3 -24.45 3.3 -24.45 2.65 M-34.6 3.25 L-34.65 3.5 -34.65 3.55 -34.75 3.55 -35.0 3.65 -35.05 3.65 Q-36.05 3.7 -36.45 1.05 L-36.45 1.0 Q-36.45 0.45 -35.95 0.45 -35.7 0.45 -34.6 3.2 L-34.6 3.25 M-42.5 4.35 L-42.5 4.3 -42.2 3.7 -42.15 3.65 -42.05 3.7 Q-40.85 4.8 -40.85 5.5 -40.85 5.95 -41.35 5.95 -42.0 5.95 -42.5 4.35 M-48.45 4.1 L-48.45 4.15 Q-48.45 4.55 -48.8 4.55 -49.35 4.55 -50.4 1.55 L-50.4 1.5 Q-50.4 1.1 -50.0 1.1 -49.75 1.05 -48.45 4.1" fill="#a36a6a" fill-rule="evenodd" stroke="none"/>
  </g>
</svg>