<?xml version="1.0" encoding="UTF-8" standalone="no"?>
<svg xmlns:xlink="http://www.w3.org/1999/xlink" height="13.4px" width="91.7px" xmlns="http://www.w3.org/2000/svg">
  <g transform="matrix(1.0, 0.0, 0.0, 1.0, 41.5, 8.65)">
    <path d="M10.25 -0.75 Q10.25 0.15 9.45 0.15 L8.8 -0.15 8.6 -0.45 Q8.6 -1.4 9.45 -1.55 10.25 -1.7 10.25 -0.75 M35.4 -7.25 Q35.4 -6.7 34.25 -6.3 L34.2 -6.3 Q34.1 -6.3 34.1 -6.45 34.1 -6.9 34.55 -7.1 L34.2 -7.15 34.15 -7.55 Q35.4 -7.8 35.4 -7.25 M45.45 -0.85 L45.9 -0.1 45.85 0.0 Q45.5 -0.25 45.3 -0.8 L45.45 -0.85 M47.5 -4.05 Q48.4 -4.4 49.2 -3.1 L49.15 -2.8 48.55 -2.75 48.35 -2.7 Q48.75 -2.4 48.75 -2.0 L48.7 -1.9 Q48.7 -1.75 48.45 -1.75 48.0 -1.75 47.55 -2.4 L47.15 -3.05 Q47.15 -3.5 47.9 -3.5 L47.5 -4.05 M-39.3 2.15 L-38.85 2.9 Q-38.85 3.75 -39.65 3.75 -40.35 3.75 -40.5 2.9 L-40.25 2.35 -39.25 1.95 -39.3 2.15" fill="#ffffff" fill-opacity="0.8" fill-rule="evenodd" stroke="none"/>
  </g>
</svg>