<?xml version="1.0" encoding="UTF-8" standalone="no"?>
<svg xmlns:xlink="http://www.w3.org/1999/xlink" height="17.45px" width="35.15px" xmlns="http://www.w3.org/2000/svg">
  <g transform="matrix(1.0, 0.0, 0.0, 1.0, 1, 1)">
    <path d="M33.1 11.95 L31.6 15.4 30.5 15.45 Q28.0 15.35 24.0 13.85 20.4 12.45 19.4 11.4 L19.15 11.15 17.75 12.5 Q17.15 12.95 15.7 12.9 14.25 12.85 13.5 12.15 12.7 11.35 12.65 11.0 L11.3 12.1 9.25 11.95 Q8.25 11.15 8.6 10.65 6.95 11.55 3.3 12.5 L1.35 12.4 0.0 11.75 Q0.2 10.3 0.95 8.5 1.65 6.65 2.4 6.05 L4.7 4.25 3.95 3.6 3.0 2.65 Q2.75 2.2 4.75 0.9 6.75 -0.4 9.65 1.15 L10.7 2.8 Q11.05 2.1 12.85 2.0 14.3 1.8 14.8 3.35 14.95 2.6 16.3 2.2 17.6 1.75 20.0 3.95 L20.6 3.2 Q21.6 2.05 22.9 1.15 25.2 -0.5 28.65 0.2 31.9 0.85 31.9 2.15 L31.4 3.1 30.35 4.35 32.2 8.35 Q33.35 11.35 33.1 11.95 M31.35 10.0 Q31.35 8.65 30.85 7.0 30.15 4.75 29.05 5.05 L27.8 5.45 30.25 3.25 Q29.95 1.75 28.95 1.0 L26.45 1.35 Q25.1 0.8 22.7 3.1 20.5 5.15 20.5 5.65 20.5 6.4 20.75 6.7 21.3 7.35 22.8 7.4 21.4 8.0 21.3 8.1 20.6 8.6 20.6 9.8 20.6 10.7 21.85 11.75 23.65 13.2 26.5 13.2 31.35 13.2 31.35 10.0 M13.6 9.0 Q13.6 10.5 14.25 11.6 L16.3 11.45 18.1 9.1 Q18.85 7.75 18.85 7.05 18.85 2.45 16.25 3.75 13.6 5.05 13.6 9.0 M13.6 3.5 L13.55 2.85 Q11.05 2.55 9.75 5.3 9.1 6.7 8.95 8.2 L9.05 9.7 Q9.3 10.75 10.35 10.75 12.95 10.75 13.25 8.2 13.2 4.95 13.6 3.5 M8.9 5.6 Q8.9 3.45 5.2 5.4 1.4 7.4 1.4 10.15 L1.5 10.75 Q1.75 11.25 2.9 11.25 5.15 11.25 7.2 8.7 8.9 6.65 8.9 5.6 M7.85 4.3 Q8.9 4.1 8.9 3.7 9.15 1.85 6.65 1.45 4.15 1.05 4.15 3.05 4.75 4.55 6.35 4.55 L7.85 4.3" fill="#772b58" fill-rule="evenodd" stroke="none"/>
    <path d="M31.35 10.0 Q31.35 13.2 26.5 13.2 23.65 13.2 21.85 11.75 20.6 10.7 20.6 9.8 20.6 8.6 21.3 8.1 21.4 8.0 22.8 7.4 21.3 7.35 20.75 6.7 20.5 6.4 20.5 5.65 20.5 5.15 22.7 3.1 25.1 0.8 26.45 1.35 L28.95 1.0 Q29.95 1.75 30.25 3.25 L27.8 5.45 29.05 5.05 Q30.15 4.75 30.85 7.0 31.35 8.65 31.35 10.0 M28.8 2.1 L28.65 2.0 26.45 2.25 Q25.3 2.7 25.3 3.3 L25.4 4.25 26.75 4.55 Q28.75 4.55 28.9 2.65 L28.8 2.1 M16.65 4.4 Q15.7 4.15 15.7 6.0 L16.1 6.95 Q16.55 8.0 17.0 8.0 L18.1 7.7 18.2 7.15 Q17.6 4.65 16.65 4.4 M27.5 9.0 Q28.15 10.3 28.65 10.3 30.45 10.3 30.45 8.8 30.45 6.45 28.7 5.9 26.9 5.3 26.9 7.4 L27.5 9.0 M13.0 5.25 Q13.0 3.85 12.0 3.75 10.95 3.6 10.95 4.65 10.95 4.95 11.65 5.65 L12.3 6.45 Q12.3 5.95 12.5 6.05 L12.9 6.25 13.0 5.25 M13.6 3.5 Q13.2 4.95 13.25 8.2 12.95 10.75 10.35 10.75 9.3 10.75 9.05 9.7 L8.95 8.2 Q9.1 6.7 9.75 5.3 11.05 2.55 13.55 2.85 L13.6 3.5 M13.6 9.0 Q13.6 5.05 16.25 3.75 18.85 2.45 18.85 7.05 18.85 7.75 18.1 9.1 L16.3 11.45 14.25 11.6 Q13.6 10.5 13.6 9.0 M7.85 5.7 L7.8 5.2 7.7 5.0 Q7.05 5.05 6.25 5.45 5.25 5.95 5.25 6.55 5.25 7.05 5.4 7.25 L5.85 7.6 Q7.15 7.5 7.65 6.7 L7.85 5.7 M7.4 1.8 L5.75 1.75 Q6.4 3.7 7.55 3.7 8.3 3.7 8.05 3.4 8.0 2.3 7.4 1.8 M7.85 4.3 L6.35 4.55 Q4.75 4.55 4.15 3.05 4.15 1.05 6.65 1.45 9.15 1.85 8.9 3.7 8.9 4.1 7.85 4.3 M8.9 5.6 Q8.9 6.65 7.2 8.7 5.15 11.25 2.9 11.25 1.75 11.25 1.5 10.75 L1.4 10.15 Q1.4 7.4 5.2 5.4 8.9 3.45 8.9 5.6" fill="#d961a8" fill-rule="evenodd" stroke="none"/>
    <path d="M28.8 2.1 L28.9 2.65 Q28.75 4.55 26.75 4.55 L25.4 4.25 25.3 3.3 Q25.3 2.7 26.45 2.25 L28.65 2.0 28.8 2.1 M26.6 2.75 Q26.85 3.7 27.35 3.8 28.2 3.7 28.4 3.2 28.3 2.7 27.85 2.3 L26.6 2.75 M27.5 9.0 L26.9 7.4 Q26.9 5.3 28.7 5.9 30.45 6.45 30.45 8.8 30.45 10.3 28.65 10.3 28.15 10.3 27.5 9.0 M16.65 4.4 Q17.6 4.65 18.2 7.15 L18.1 7.7 17.0 8.0 Q16.55 8.0 16.1 6.95 L15.7 6.0 Q15.7 4.15 16.65 4.4 M17.55 5.8 L16.6 4.75 16.35 4.85 Q16.05 5.0 16.05 5.45 L16.1 6.55 17.3 6.55 17.55 5.8 M13.0 5.25 L12.9 6.25 12.5 6.05 Q12.3 5.95 12.3 6.45 L11.65 5.65 Q10.95 4.95 10.95 4.65 10.95 3.6 12.0 3.75 13.0 3.85 13.0 5.25 M7.4 1.8 Q8.0 2.3 8.05 3.4 8.3 3.7 7.55 3.7 6.4 3.7 5.75 1.75 L7.4 1.8 M7.85 5.7 L7.65 6.7 Q7.15 7.5 5.85 7.6 L5.4 7.25 Q5.25 7.05 5.25 6.55 5.25 5.95 6.25 5.45 7.05 5.05 7.7 5.0 L7.8 5.2 7.85 5.7" fill="#ec8ac4" fill-rule="evenodd" stroke="none"/>
    <path d="M26.6 2.75 L27.85 2.3 Q28.3 2.7 28.4 3.2 28.2 3.7 27.35 3.8 26.85 3.7 26.6 2.75 M17.55 5.8 L17.3 6.55 16.1 6.55 16.05 5.45 Q16.05 5.0 16.35 4.85 L16.6 4.75 17.55 5.8" fill="#ffbfe5" fill-rule="evenodd" stroke="none"/>
  </g>
</svg>