<?xml version="1.0" encoding="UTF-8" standalone="no"?>
<svg xmlns:xlink="http://www.w3.org/1999/xlink" height="10.4px" width="42.25px" xmlns="http://www.w3.org/2000/svg">
  <g transform="matrix(1.0, 0.0, 0.0, 1.0, 21.15, 5.75)">
    <path d="M4.25 -1.75 L4.15 -1.3 4.15 -0.7 4.2 -0.15 Q5.15 2.95 9.4 2.95 11.1 3.0 12.95 1.75 L13.0 1.75 14.65 -0.1 Q14.85 -0.65 14.7 -1.15 L14.6 -1.35 18.3 -1.25 Q20.1 -0.95 20.1 -0.45 20.1 0.0 16.8 2.1 14.0 3.65 10.3 3.65 7.1 3.65 3.75 1.7 0.35 -0.3 0.35 -1.4 0.35 -1.9 0.9 -1.9 L3.35 -1.8 4.25 -1.75 M-10.3 -3.35 L-9.75 -3.35 Q-8.0 -3.55 -8.0 -2.65 -8.0 -2.2 -10.65 -1.4 -10.15 -2.0 -10.3 -2.6 L-10.3 -3.35 M-17.55 -0.95 L-18.9 -1.65 Q-20.15 -2.5 -20.15 -3.05 -20.15 -3.6 -19.25 -3.6 L-18.6 -3.4 -18.65 -2.85 Q-18.9 -2.0 -17.55 -0.95" fill="#adb0c9" fill-rule="evenodd" stroke="none"/>
    <path d="M14.6 -1.35 L14.7 -1.15 Q14.85 -0.65 14.65 -0.1 L13.0 1.75 12.95 1.75 Q11.1 3.0 9.4 2.95 5.15 2.95 4.2 -0.15 L4.15 -0.7 4.15 -1.3 4.25 -1.75 4.6 -2.3 Q5.05 -2.75 5.65 -2.75 L12.95 -2.9 13.85 -2.65 14.4 -1.9 14.6 -1.35 M-18.6 -3.4 L-18.25 -4.05 -17.75 -4.45 -17.1 -4.65 -13.65 -4.75 -13.45 -4.75 Q-10.7 -4.45 -10.3 -3.35 L-10.3 -2.6 Q-10.15 -2.0 -10.65 -1.4 L-11.95 -0.45 Q-13.3 0.3 -14.25 0.25 -15.7 0.25 -17.1 -0.65 L-17.15 -0.65 -17.55 -0.95 Q-18.9 -2.0 -18.65 -2.85 L-18.6 -3.4" fill="#660000" fill-rule="evenodd" stroke="none"/>
  </g>
</svg>