<?xml version="1.0" encoding="UTF-8" standalone="no"?>
<svg xmlns:xlink="http://www.w3.org/1999/xlink" height="42.85px" width="53.75px" xmlns="http://www.w3.org/2000/svg">
  <g transform="matrix(1.0, 0.0, 0.0, 1.0, 26.85, 21.45)">
    <path d="M-19.9 16.65 Q-20.75 16.95 -21.45 16.1 -23.65 13.6 -24.45 10.5 L-25.85 4.9 -24.2 6.3 -21.15 9.55 Q-23.75 -0.1 -22.5 -10.15 L-22.35 -10.95 -21.9 -11.0 Q-20.85 -5.85 -17.7 -1.7 -18.1 -11.35 -14.4 -20.45 -13.8 -16.55 -12.75 -13.45 -11.75 -10.35 -10.55 -7.9 -9.4 -5.5 -7.85 -3.9 L-5.35 -1.3 -5.1 -12.3 -4.6 -12.6 2.5 -1.2 3.55 -6.6 10.45 6.1 13.2 1.8 13.5 2.8 Q14.45 6.3 14.45 8.0 L14.65 10.25 14.9 10.85 16.7 8.25 17.3 7.45 17.9 7.65 16.7 14.25 18.35 13.35 18.95 12.85 19.4 12.25 20.15 10.75 20.7 9.1 21.55 8.6 21.15 14.85 Q23.45 13.8 25.9 14.25 L21.3 18.55 21.0 20.15 20.95 20.1 Q20.5 18.75 21.15 17.65 L21.85 16.75 Q23.0 15.6 24.4 14.7 L19.9 16.25 20.35 13.4 16.65 16.0 16.35 16.2 16.15 17.75 15.75 18.05 15.5 17.65 15.3 16.7 15.5 13.4 15.5 13.35 15.6 12.5 15.05 13.15 Q13.4 10.45 13.3 7.15 13.25 5.65 12.8 4.05 L10.5 8.25 10.45 8.1 8.1 4.0 Q6.3 1.2 5.0 -1.8 L4.25 -3.5 4.05 -4.05 3.65 0.8 Q2.25 1.05 1.25 -0.25 -0.95 -3.15 -2.55 -6.35 L-3.9 -9.4 -4.15 -10.05 -4.1 -8.1 -4.25 -4.95 Q-4.4 -2.9 -4.15 -0.35 L-4.3 -0.35 -4.65 -0.3 Q-6.5 -0.4 -7.9 -1.9 L-9.6 -3.7 Q-12.2 -6.6 -13.25 -10.6 L-13.85 -13.15 -14.0 -14.0 -14.35 -15.9 -14.5 -16.85 -15.55 -11.3 -17.0 0.7 -17.75 0.3 Q-17.95 0.2 -18.1 0.05 -19.7 -1.15 -20.5 -3.15 L-21.75 -5.6 -21.1 1.0 -20.15 8.2 -19.9 10.35 -20.3 10.65 -20.8 10.65 -21.85 10.05 -22.2 9.75 -22.8 9.25 -23.35 8.7 -23.5 8.55 -23.15 10.35 Q-22.25 13.8 -19.9 16.65 M-14.3 16.9 L-14.6 16.75 -14.3 16.7 -14.3 16.9 M-3.35 10.95 L-3.15 9.2 -0.7 14.25 -0.1 15.55 -0.05 15.65 -1.25 15.7 -1.3 15.7 -2.4 15.45 -2.9 15.2 -3.45 14.9 -4.4 14.25 -6.1 12.3 -6.55 11.6 Q-7.55 9.95 -8.0 8.1 L-7.5 8.85 -6.75 9.95 -5.3 11.6 -5.1 11.8 -3.0 13.7 -2.05 14.55 -2.35 13.85 -3.4 11.4 -3.35 10.95 M10.0 16.3 L8.85 12.65 10.7 16.5 10.85 16.85 10.05 16.5 10.0 16.3 M-12.6 13.25 L-13.15 12.75 Q-15.35 10.55 -16.0 7.55 L-13.1 10.85 -10.95 12.9 -10.75 13.05 -10.05 13.7 -9.75 13.95 -9.15 14.5 -8.55 15.0 -8.35 15.2 -8.55 15.25 -9.1 15.35 Q-9.9 15.15 -10.5 14.8 L-11.4 14.2 -12.6 13.25" fill="#a36a6a" fill-rule="evenodd" stroke="none"/>
    <path d="M-19.2 16.5 L-19.9 16.65 Q-22.25 13.8 -23.15 10.35 L-23.5 8.55 -23.35 8.7 -22.8 9.25 -22.2 9.75 -21.15 13.25 -19.75 14.95 -19.6 15.1 -19.1 15.65 -18.45 16.3 -19.2 16.5 M-20.15 8.2 L-21.1 1.0 -21.75 -5.6 -20.5 -3.15 Q-19.7 -1.15 -18.1 0.05 -17.95 0.2 -17.75 0.3 L-17.0 0.7 -15.55 -11.3 -14.5 -16.85 -14.35 -15.9 -14.0 -14.0 -13.85 -13.15 Q-14.1 -7.2 -13.6 -4.1 -13.25 -1.85 -11.85 2.2 L-10.6 6.05 -10.65 6.45 -10.8 6.55 -11.25 6.65 -13.1 5.85 -15.3 4.6 -16.8 3.4 -17.15 3.1 -17.85 2.9 -18.1 6.2 -17.6 10.05 -17.65 10.65 -18.25 10.8 Q-19.1 10.8 -20.15 8.2 M-4.3 -0.35 L-4.15 -0.35 Q-4.4 -2.9 -4.25 -4.95 L-4.1 -8.1 -4.15 -10.05 -3.9 -9.4 -2.55 -6.35 -2.55 -5.8 Q-2.55 -2.25 -2.15 -0.4 L-0.35 6.0 Q-0.1 6.1 -0.6 6.1 -3.4 6.1 -4.25 -0.05 L-4.3 -0.35 M4.25 -3.5 L5.0 -1.8 5.15 1.3 Q5.45 5.2 5.95 6.3 L5.6 6.5 Q4.85 5.65 4.35 2.4 L3.95 -1.45 4.0 -2.8 4.25 -3.5 M-7.5 8.85 L-8.7 6.1 Q-9.0 5.45 -9.0 3.9 L-8.75 1.7 Q-8.35 0.3 -7.45 0.35 -7.05 1.05 -6.9 2.45 L-6.45 4.65 -4.0 9.7 -3.35 10.95 -3.4 11.4 -2.35 13.85 -2.7 14.0 -3.0 13.7 -5.1 11.8 -5.3 11.6 -6.75 9.95 -7.5 8.85" fill="url(#gradient0)" fill-rule="evenodd" stroke="none"/>
    <path d="M21.3 18.55 L22.45 19.7 22.0 20.4 21.0 20.15 21.3 18.55 M-22.2 9.75 L-21.85 10.05 -20.8 10.65 -20.3 10.65 -19.9 10.35 -20.15 8.2 Q-19.1 10.8 -18.25 10.8 L-17.65 10.65 -17.6 10.05 -18.1 6.2 -17.85 2.9 -17.15 3.1 -16.8 3.4 -15.3 4.6 -13.1 5.85 -11.25 6.65 -10.8 6.55 -10.65 6.45 -10.6 6.05 -11.85 2.2 Q-13.25 -1.85 -13.6 -4.1 -14.1 -7.2 -13.85 -13.15 L-13.25 -10.6 Q-12.2 -6.6 -9.6 -3.7 L-7.9 -1.9 Q-6.5 -0.4 -4.65 -0.3 L-4.3 -0.35 -4.25 -0.05 Q-3.4 6.1 -0.6 6.1 -0.1 6.1 -0.35 6.0 L-2.15 -0.4 Q-2.55 -2.25 -2.55 -5.8 L-2.55 -6.35 Q-0.95 -3.15 1.25 -0.25 2.25 1.05 3.65 0.8 L4.05 -4.05 4.25 -3.5 4.0 -2.8 3.95 -1.45 4.35 2.4 Q4.85 5.65 5.6 6.5 L5.95 6.3 Q5.45 5.2 5.15 1.3 L5.0 -1.8 Q6.3 1.2 8.1 4.0 L10.45 8.1 10.5 8.25 12.8 4.05 Q13.25 5.65 13.3 7.15 13.4 10.45 15.05 13.15 L15.6 12.5 15.5 13.35 15.5 13.4 14.9 13.25 Q14.1 13.25 13.05 14.3 L11.8 15.35 Q11.1 15.35 10.35 13.4 9.65 11.45 8.7 11.45 7.0 11.45 6.3 12.7 L5.65 14.4 Q4.75 14.25 2.15 11.7 0.4 9.95 0.4 11.85 L0.85 14.3 -0.45 14.3 -0.7 14.25 -3.15 9.2 -3.35 10.95 -4.0 9.7 -6.45 4.65 -6.9 2.45 Q-7.05 1.05 -7.45 0.35 -8.35 0.3 -8.75 1.7 L-9.0 3.9 Q-9.0 5.45 -8.7 6.1 L-7.5 8.85 -8.0 8.1 Q-7.55 9.95 -6.55 11.6 -6.95 11.4 -7.3 11.15 -8.0 11.15 -8.0 12.05 L-7.8 12.8 -7.6 13.5 -8.15 13.85 Q-8.8 13.45 -10.0 12.95 L-11.4 12.45 -10.95 12.9 -13.1 10.85 -16.0 7.55 Q-15.35 10.55 -13.15 12.75 L-12.6 13.25 -12.95 12.95 -13.05 13.2 Q-13.2 14.0 -14.15 14.0 L-15.1 13.55 Q-15.8 13.1 -16.3 13.1 -16.95 13.1 -18.45 14.0 -19.4 14.5 -19.75 14.95 L-21.15 13.25 -22.2 9.75 M16.65 16.0 L20.35 13.4 19.9 16.25 24.4 14.7 Q23.0 15.6 21.85 16.75 L21.15 17.65 Q20.4 17.25 19.15 17.3 18.6 16.4 17.95 16.4 17.1 16.4 16.65 16.0 M-2.35 13.85 L-2.05 14.55 -3.0 13.7 -2.7 14.0 -2.35 13.85" fill="#e0cbcb" fill-rule="evenodd" stroke="none"/>
    <path d="M20.95 20.1 L16.75 18.95 16.8 18.8 Q16.8 18.6 12.3 17.05 L10.7 16.5 8.85 12.65 10.0 16.3 Q7.45 15.45 6.7 15.45 L4.6 15.7 3.5 15.95 2.95 15.8 2.35 15.65 -0.1 15.55 -0.7 14.25 -0.45 14.3 0.85 14.3 0.4 11.85 Q0.4 9.95 2.15 11.7 4.75 14.25 5.65 14.4 L6.3 12.7 Q7.0 11.45 8.7 11.45 9.65 11.45 10.35 13.4 11.1 15.35 11.8 15.35 L13.05 14.3 Q14.1 13.25 14.9 13.25 L15.5 13.4 15.3 16.7 15.5 17.65 15.75 18.05 16.15 17.75 16.35 16.2 16.65 16.0 Q17.1 16.4 17.95 16.4 18.6 16.4 19.15 17.3 20.4 17.25 21.15 17.65 20.5 18.75 20.95 20.1 M0.55 17.75 L0.45 17.8 0.45 17.75 0.55 17.75 M-6.55 11.6 L-6.1 12.3 -4.4 14.25 -3.45 14.9 -2.9 15.2 -6.65 16.4 Q-7.35 15.5 -8.05 15.5 L-9.7 15.8 -12.85 16.35 -17.45 15.35 -19.1 15.65 -19.6 15.1 -19.75 14.95 Q-19.4 14.5 -18.45 14.0 -16.95 13.1 -16.3 13.1 -15.8 13.1 -15.1 13.55 L-14.15 14.0 Q-13.2 14.0 -13.05 13.2 L-12.95 12.95 -12.6 13.25 -11.4 14.2 -10.5 14.8 Q-9.9 15.15 -9.1 15.35 L-8.55 15.25 -8.35 15.2 -8.55 15.0 -9.15 14.5 -9.75 13.95 -10.05 13.7 -10.75 13.05 -10.95 12.9 -11.4 12.45 -10.0 12.95 Q-8.8 13.45 -8.15 13.85 L-7.6 13.5 -7.8 12.8 -8.0 12.05 Q-8.0 11.15 -7.3 11.15 -6.95 11.4 -6.55 11.6" fill="#e0cbcb" fill-opacity="0.6" fill-rule="evenodd" stroke="none"/>
    <path d="M16.75 18.95 L14.85 18.45 7.75 16.8 Q4.5 16.35 0.55 17.75 L0.45 17.75 Q0.65 16.2 0.15 16.2 -3.55 16.2 -8.9 17.3 -10.3 16.05 -13.4 17.5 L-14.3 16.9 -14.3 16.7 -14.6 16.75 Q-16.25 15.9 -17.85 16.2 L-19.2 16.5 -18.45 16.3 -19.1 15.65 -17.45 15.35 -12.85 16.35 -9.7 15.8 -8.05 15.5 Q-7.35 15.5 -6.65 16.4 L-2.9 15.2 -2.4 15.45 -1.3 15.7 -1.25 15.7 -0.05 15.65 -0.1 15.55 2.35 15.65 2.95 15.8 3.5 15.95 4.6 15.7 6.7 15.45 Q7.45 15.45 10.0 16.3 L10.05 16.5 10.85 16.85 10.7 16.5 12.3 17.05 Q16.8 18.6 16.8 18.8 L16.75 18.95" fill="#e0cbcb" fill-opacity="0.29803923" fill-rule="evenodd" stroke="none"/>
  </g>
  <defs>
    <radialGradient cx="0" cy="0" gradientTransform="matrix(0.0387, 0.0, 0.0, 0.0387, -92.5, -13.1)" gradientUnits="userSpaceOnUse" id="gradient0" r="819.2" spreadMethod="pad">
      <stop offset="0.47843137254901963" stop-color="#ffffff"></stop>
      <stop offset="0.8823529411764706" stop-color="#f2eaea"></stop>
    </radialGradient>
  </defs>
</svg>