<?xml version="1.0" encoding="UTF-8" standalone="no"?>
<svg xmlns:xlink="http://www.w3.org/1999/xlink" height="17.1px" width="53.1px" xmlns="http://www.w3.org/2000/svg">
  <g transform="matrix(1.0, 0.0, 0.0, 1.0, 26.55, 8.55)">
    <path d="M19.75 4.55 L19.45 2.55 19.8 1.7 20.35 0.05 21.2 -0.45 20.8 5.8 Q21.6 5.45 22.4 5.25 L21.6 6.15 21.2 6.65 20.35 6.95 20.3 6.9 20.1 6.2 19.85 5.25 20.0 4.35 19.75 4.55 M22.5 6.8 L24.05 5.65 22.5 6.2 22.5 5.25 25.55 5.2 23.05 7.55 22.5 7.45 22.5 6.8 M16.6 1.35 L16.7 1.35 17.2 0.6 16.6 3.85 15.25 0.95 16.35 -0.8 16.65 -1.25 16.6 1.35 M-7.55 1.3 L-8.35 -0.95 -7.85 -0.2 -7.1 0.9 -6.55 1.6 -6.55 2.3 -7.55 1.3 M-2.2 2.85 L-2.7 2.5 -3.65 1.65 -3.5 0.15 -2.2 2.85 M-9.2 5.7 L-9.05 6.25 -9.45 6.3 -10.85 5.75 -11.75 5.15 -12.1 4.85 -15.05 1.8 -15.05 1.75 Q-15.95 0.25 -16.35 -1.5 L-13.45 1.8 -13.05 2.2 -11.55 3.6 -11.3 3.85 -11.1 4.0 -10.4 4.65 -10.1 4.9 -9.5 5.45 -9.2 5.7 M-22.8 3.4 L-24.6 2.15 -24.75 1.65 -24.8 1.45 -24.8 1.4 -25.55 -1.45 -23.7 0.5 -23.5 1.2 -23.5 1.3 -22.8 3.4 M-22.1 1.05 L-20.7 1.05 -20.75 0.7 -20.3 1.05 -20.25 1.05 -20.25 1.1 -20.25 1.3 -20.6 1.6 -20.65 1.6 -21.15 1.6 -22.1 1.05" fill="#a36a6a" fill-rule="evenodd" stroke="none"/>
    <path d="M19.75 4.55 L20.0 4.35 19.85 5.25 19.75 4.55 M22.5 6.2 L24.05 5.65 22.5 6.8 22.5 6.2 M5.0 -5.85 Q6.95 -1.25 10.6 1.9 L11.15 1.35 11.7 -3.35 Q12.0 -0.9 12.9 2.2 L13.35 1.15 12.5 5.45 11.85 6.05 11.65 5.65 Q10.6 3.6 9.9 1.35 L9.9 4.1 Q9.35 2.7 8.7 2.45 L6.55 -1.75 6.65 -0.65 7.15 2.6 Q6.35 2.9 5.95 3.65 L5.9 3.9 Q1.15 2.1 -0.9 -2.95 -0.45 -2.95 -0.7 -3.05 L-1.4 -5.5 -1.65 -7.3 -1.7 -7.55 Q-0.5 -2.9 3.3 0.3 L3.05 -3.35 Q3.55 -0.65 5.35 1.65 5.55 -0.35 5.4 -2.55 L5.6 -2.75 Q5.35 -3.25 5.2 -4.4 L5.1 -5.05 5.0 -5.85 M-9.3 -6.05 L-9.35 -5.15 Q-9.35 -3.6 -9.05 -2.95 L-7.85 -0.2 -8.35 -0.95 -7.55 1.3 -9.9 -1.35 Q-9.35 -3.95 -9.65 -6.6 L-9.65 -6.75 -9.3 -6.05 M-6.1 -2.85 Q-5.8 -4.05 -5.75 -5.4 L-5.75 -5.65 Q-4.7 -2.35 -1.75 -0.45 L-1.95 3.0 -2.2 2.85 -3.5 0.15 -3.65 1.65 -4.05 1.25 -4.35 0.65 -6.1 -2.85 M-18.4 -3.7 L-18.3 -5.05 Q-15.85 -1.65 -12.4 0.4 -11.3 -0.3 -11.65 -2.15 L-11.7 -2.4 -11.65 -2.4 -11.0 -1.1 -9.6 4.25 -10.35 3.9 -11.75 3.4 -11.55 3.6 -13.05 2.2 -13.45 1.8 -16.35 -1.5 Q-15.95 0.25 -15.05 1.75 L-15.5 1.1 -14.55 4.95 -15.45 4.5 Q-16.0 4.15 -16.4 4.1 L-17.35 3.4 -17.25 3.95 -17.2 4.2 Q-17.85 4.35 -18.8 4.95 L-19.25 5.25 -21.5 4.15 -22.2 1.8 -22.4 1.1 -22.1 1.05 -21.15 1.6 -20.65 1.6 -20.6 1.6 -20.25 1.3 -20.25 1.1 -20.25 1.05 -19.9 1.05 -19.5 1.1 Q-19.05 1.75 -18.6 1.75 L-18.2 1.65 -18.0 1.6 -17.95 1.0 -18.2 -1.1 -18.4 -3.7" fill="#e0cbcb" fill-rule="evenodd" stroke="none"/>
    <path d="M-0.9 -2.95 L-1.3 -4.05 -1.4 -5.5 -0.7 -3.05 Q-0.45 -2.95 -0.9 -2.95 M5.4 -2.55 L5.2 -4.4 Q5.35 -3.25 5.6 -2.75 L5.4 -2.55 M5.1 -5.05 L4.9 -6.05 5.0 -5.85 5.1 -5.05 M-7.85 -0.2 L-9.05 -2.95 Q-9.35 -3.6 -9.35 -5.15 L-9.3 -6.05 Q-8.3 -4.05 -6.95 -2.3 L-6.55 -1.75 -6.55 1.6 -7.1 0.9 -7.85 -0.2 M-4.05 1.25 Q-5.6 -0.35 -6.35 -2.15 L-6.1 -2.85 -4.35 0.65 -4.05 1.25 M-18.4 -3.7 L-18.75 -5.65 -18.3 -5.05 -18.4 -3.7 M-11.7 -2.4 L-11.7 -2.55 -11.65 -2.4 -11.7 -2.4 M-21.5 4.15 L-22.8 3.4 -23.5 1.3 -23.5 1.2 -23.7 0.5 -23.0 1.15 -22.4 1.1 -22.2 1.8 -21.5 4.15 M-19.5 1.1 L-18.2 1.25 -18.2 -1.1 -17.95 1.0 -18.0 1.6 -18.2 1.65 -18.6 1.75 Q-19.05 1.75 -19.5 1.1" fill="url(#gradient0)" fill-rule="evenodd" stroke="none"/>
    <path d="M12.5 5.45 L12.2 6.5 11.85 6.05 12.5 5.45 M9.9 4.1 L9.9 4.6 9.2 3.45 8.7 2.45 Q9.35 2.7 9.9 4.1 M7.15 2.6 L7.35 4.35 5.9 3.9 5.95 3.65 Q6.35 2.9 7.15 2.6 M-9.6 4.25 L-9.2 5.7 -9.5 5.45 -10.1 4.9 -10.4 4.65 -11.1 4.0 -11.3 3.85 -11.55 3.6 -11.75 3.4 -10.35 3.9 -9.6 4.25 M-9.05 6.25 L-9.0 6.55 -9.55 6.65 -11.75 5.15 -10.85 5.75 -9.45 6.3 -9.05 6.25 M-14.55 4.95 L-14.4 5.55 Q-15.2 5.2 -15.8 4.6 L-16.4 4.1 Q-16.0 4.15 -15.45 4.5 L-14.55 4.95 M-17.2 4.2 L-17.1 4.75 Q-16.95 5.55 -17.1 5.95 L-17.35 5.95 -19.25 5.25 -18.8 4.95 Q-17.85 4.35 -17.2 4.2" fill="#e0cbcb" fill-opacity="0.6" fill-rule="evenodd" stroke="none"/>
    <path d="M-9.0 6.55 L-8.85 7.05 -9.55 6.65 -9.0 6.55" fill="#e0cbcb" fill-opacity="0.29803923" fill-rule="evenodd" stroke="none"/>
  </g>
  <defs>
    <radialGradient cx="0" cy="0" gradientTransform="matrix(0.0387, 0.0, 0.0, 0.0387, -92.85, -22.15)" gradientUnits="userSpaceOnUse" id="gradient0" r="819.2" spreadMethod="pad">
      <stop offset="0.47843137254901963" stop-color="#ffffff"></stop>
      <stop offset="0.8823529411764706" stop-color="#f2eaea"></stop>
    </radialGradient>
  </defs>
</svg>