<?xml version="1.0" encoding="UTF-8" standalone="no"?>
<svg xmlns:xlink="http://www.w3.org/1999/xlink" height="53.05px" width="71.55px" xmlns="http://www.w3.org/2000/svg">
  <g transform="matrix(1.0, 0.0, 0.0, 1.0, 35.75, 26.35)">
    <path d="M34.15 15.0 L34.3 15.0 34.15 15.0 M15.1 25.15 L15.25 25.15 15.1 25.7 15.1 25.15 M4.65 -10.1 L4.55 -10.05 4.6 -10.15 4.65 -10.1 M-17.05 -12.0 L-17.0 -12.0 -17.0 -11.85 -17.05 -12.0 M-31.35 -6.2 L-31.2 -6.15 -31.3 -6.05 -31.35 -6.0 -31.35 -6.1 -31.35 -6.2 M-24.5 -9.55 L-24.55 -9.55 -24.6 -9.65 -24.5 -9.55 M-25.55 -8.9 L-25.55 -8.85 -25.55 -8.9" fill="#8f3e1b" fill-rule="evenodd" stroke="none"/>
    <path d="M24.75 -15.45 L25.65 -13.65 Q26.25 -12.35 26.5 -8.85 26.7 -5.8 27.85 -4.4 30.75 -1.0 32.6 4.4 33.65 7.6 34.05 10.55 L34.1 10.6 34.2 11.5 34.25 12.4 33.85 13.1 Q32.85 11.6 32.3 9.6 L31.3 5.7 31.05 11.75 30.55 8.55 30.5 8.25 30.3 7.7 30.3 7.65 29.85 6.6 25.15 -1.7 Q23.15 -5.1 22.15 -8.75 L21.3 -11.65 Q20.55 -13.95 19.05 -15.7 L17.85 -17.05 Q20.8 -15.5 21.75 -14.45 22.65 -13.45 22.75 -11.4 22.95 -8.9 23.25 -8.1 L27.05 -1.9 Q29.5 2.05 29.0 4.65 L29.25 4.6 29.45 2.7 Q29.45 0.55 28.15 -1.25 26.1 -3.95 25.2 -6.15 24.65 -7.5 24.3 -10.65 24.0 -13.8 23.35 -15.2 L24.75 -15.45 M-33.6 -3.3 L-33.2 -5.8 -32.6 -8.45 -31.3 -13.0 -29.8 -16.65 Q-29.1 -16.55 -28.4 -17.0 L-27.1 -17.95 -24.8 -19.9 Q-23.7 -20.95 -22.0 -21.4 L-19.8 -21.55 -19.75 -21.75 -19.8 -21.95 -19.9 -22.1 -20.2 -22.3 Q-15.55 -22.3 -12.4 -19.05 L-12.4 -18.75 -12.45 -18.7 -13.15 -17.95 -13.95 -16.7 Q-14.2 -16.2 -13.9 -15.9 L-12.65 -17.75 -12.4 -17.95 -12.4 -17.55 -11.85 -17.95 -11.8 -17.0 -11.1 -16.7 -10.15 -16.55 -10.9 -15.3 Q-12.1 -13.0 -12.3 -10.55 L-12.4 -10.55 -12.4 -11.1 -14.5 -11.65 Q-13.6 -14.0 -14.45 -16.1 L-15.6 -18.25 Q-17.15 -20.05 -19.5 -20.4 -22.1 -20.75 -24.4 -19.2 -26.8 -17.6 -28.2 -15.3 -29.7 -12.85 -30.5 -10.2 -31.2 -8.2 -31.35 -6.2 L-31.35 -6.1 -31.85 -5.75 -33.6 -3.3 M12.2 -17.6 L12.4 -17.1 12.4 -17.15 12.2 -17.6 M16.55 -7.7 L17.8 -5.45 21.9 2.05 24.2 7.0 Q25.15 9.15 25.2 11.65 25.25 14.75 24.55 17.75 L23.55 22.2 23.05 24.2 22.45 24.3 22.0 24.3 Q21.85 24.1 21.85 23.65 21.85 23.1 22.75 19.2 L23.85 13.95 23.8 13.85 Q23.15 16.55 19.75 20.85 L19.35 20.85 19.6 18.1 19.9 15.3 19.9 15.2 18.05 20.3 Q16.85 23.3 15.45 25.35 L15.25 25.15 15.55 23.95 15.85 21.5 16.15 18.4 Q16.35 16.55 16.15 14.7 L15.2 7.4 13.25 -3.1 Q12.6 -6.05 11.45 -8.85 9.75 -13.0 6.4 -15.85 4.5 -17.45 2.25 -18.25 L1.2 -18.6 -2.1 -19.25 2.25 -19.05 Q6.55 -18.7 8.65 -17.45 L11.25 -14.5 13.2 -11.1 13.15 -10.4 Q13.15 -10.1 14.1 -7.5 L15.35 -3.75 15.75 -0.25 Q16.1 1.7 17.45 3.05 20.3 5.9 21.0 9.9 L21.85 16.65 22.0 16.6 Q22.4 14.95 22.4 12.9 22.15 7.7 21.75 6.55 L19.8 3.4 Q18.25 1.3 17.95 0.2 17.55 -1.15 17.4 -2.95 L17.25 -6.2 16.55 -7.7 M23.65 23.65 L23.9 23.05 24.8 20.45 25.25 18.6 Q25.7 16.3 25.7 13.9 L25.55 10.2 Q25.2 5.75 23.15 1.8 L21.4 -1.5 Q22.3 -0.5 23.45 -0.5 23.95 -0.5 23.9 -0.7 21.65 -2.85 20.9 -5.75 L19.75 -10.65 16.65 -16.65 16.95 -16.8 18.45 -15.0 19.6 -13.3 20.8 -10.05 Q21.6 -7.3 22.75 -4.6 23.35 -3.1 24.2 -1.65 L28.95 6.3 29.7 8.0 30.3 10.55 30.5 11.9 30.65 13.6 30.65 14.4 30.55 16.65 30.55 16.75 30.05 22.7 29.85 22.8 Q29.5 22.3 29.5 21.8 29.5 20.65 29.8 18.45 L29.8 16.25 29.1 18.35 Q28.7 19.55 27.7 20.25 L27.3 19.5 Q27.3 18.9 27.6 17.75 L27.85 16.15 27.75 14.45 25.7 20.35 Q24.6 23.0 23.55 23.9 L23.65 23.65 M19.6 -4.8 L16.0 -11.3 Q14.6 -13.85 13.8 -16.5 L13.5 -17.3 15.3 -16.5 Q15.2 -16.5 14.65 -16.75 L15.65 -14.85 18.35 -9.5 Q18.9 -6.8 19.6 -4.8 M-0.25 -13.0 L2.25 -13.4 2.4 -13.45 4.35 -13.75 3.65 -13.35 2.25 -12.1 1.45 -11.0 -0.9 -12.05 -0.25 -13.0 M4.0 -5.8 Q5.2 -3.25 5.65 -0.4 6.15 2.85 6.0 6.25 5.85 10.15 5.1 13.9 4.35 17.8 5.55 21.55 4.55 19.85 4.35 17.75 L4.25 14.3 4.5 9.2 4.45 1.1 Q4.35 -0.85 3.75 -2.55 L4.5 -1.4 Q3.65 -3.7 2.25 -5.5 L1.55 -6.25 -0.9 -8.35 Q0.8 -8.0 1.9 -6.5 L2.25 -6.05 3.65 -4.5 Q4.05 -4.9 4.05 -5.3 L4.0 -5.8 M-5.05 -10.25 L-9.4 -11.0 -7.4 -11.5 -5.45 -11.8 Q-5.9 -11.3 -5.5 -10.75 L-5.05 -10.25 M20.05 19.7 L20.05 19.8 20.1 19.7 20.05 19.7 M-22.45 -14.75 L-22.2 -14.3 -22.1 -14.3 -21.75 -15.85 -20.85 -16.85 -19.6 -11.4 -19.45 -12.2 Q-19.05 -14.8 -19.85 -17.2 L-17.95 -17.55 -17.05 -12.0 Q-17.7 -11.45 -18.55 -11.35 L-21.5 -11.35 -23.35 -10.5 -23.3 -14.15 -22.25 -11.55 -22.45 -14.75 M-17.0 -12.0 L-17.05 -17.95 -16.25 -16.85 Q-15.2 -14.6 -14.85 -11.75 L-16.6 -12.2 -17.0 -12.0 M-10.45 -23.6 L-7.7 -22.7 -11.65 -19.15 -12.25 -19.8 -12.4 -19.95 -12.4 -20.25 -15.25 -21.9 -12.4 -22.75 -12.4 -22.6 -10.75 -23.4 -10.45 -23.6 M-12.25 -18.45 L-12.4 -18.35 -12.4 -18.6 -12.25 -18.45" fill="#e0cbcb" fill-rule="evenodd" stroke="none"/>
    <path d="M17.85 -17.05 L17.5 -17.45 13.75 -20.95 18.4 -20.55 18.75 -20.45 Q20.85 -19.65 22.2 -18.55 L23.1 -17.7 23.2 -17.6 24.75 -15.45 23.35 -15.2 Q24.0 -13.8 24.3 -10.65 24.65 -7.5 25.2 -6.15 26.1 -3.95 28.15 -1.25 29.45 0.55 29.45 2.7 L29.25 4.6 29.0 4.65 Q29.5 2.05 27.05 -1.9 L23.25 -8.1 Q22.95 -8.9 22.75 -11.4 22.65 -13.45 21.75 -14.45 20.8 -15.5 17.85 -17.05 M-29.8 -16.65 L-28.8 -17.85 Q-27.45 -19.55 -25.6 -20.6 -23.0 -22.2 -20.2 -22.3 L-19.9 -22.1 -19.8 -21.95 -19.75 -21.75 -19.8 -21.55 -22.0 -21.4 Q-23.7 -20.95 -24.8 -19.9 L-27.1 -17.95 -28.4 -17.0 Q-29.1 -16.55 -29.8 -16.65 M-11.85 -17.95 L-9.6 -19.95 -5.5 -21.85 -2.2 -22.35 2.25 -22.2 9.15 -20.4 Q10.0 -20.1 10.7 -19.5 L10.75 -19.5 11.2 -19.05 12.2 -17.6 12.4 -17.15 12.4 -17.1 13.2 -15.0 Q14.55 -11.55 16.3 -8.2 L16.4 -8.05 16.55 -7.7 17.25 -6.2 17.4 -2.95 Q17.55 -1.15 17.95 0.2 18.25 1.3 19.8 3.4 L21.75 6.55 Q22.15 7.7 22.4 12.9 22.4 14.95 22.0 16.6 L21.85 16.65 21.0 9.9 Q20.3 5.9 17.45 3.05 16.1 1.7 15.75 -0.25 L15.35 -3.75 14.1 -7.5 Q13.15 -10.1 13.15 -10.4 L13.2 -11.1 11.25 -14.5 8.65 -17.45 Q6.55 -18.7 2.25 -19.05 L-2.1 -19.25 -5.7 -19.4 Q-8.6 -18.85 -10.15 -16.55 L-11.1 -16.7 -11.8 -17.0 -11.85 -17.95 M21.4 -1.5 L21.35 -1.55 19.65 -4.7 19.6 -4.8 Q18.9 -6.8 18.35 -9.5 L15.65 -14.85 14.65 -16.75 Q15.2 -16.5 15.3 -16.5 L13.5 -17.3 Q13.0 -18.4 12.15 -19.3 L11.95 -19.5 10.7 -20.4 10.1 -20.7 5.65 -22.3 2.55 -23.0 9.45 -24.0 10.7 -23.15 12.45 -21.95 14.6 -19.5 16.95 -16.8 16.65 -16.65 19.75 -10.65 20.9 -5.75 Q21.65 -2.85 23.9 -0.7 23.95 -0.5 23.45 -0.5 22.3 -0.5 21.4 -1.5 M-5.45 -11.8 L-1.85 -11.2 Q0.7 -10.65 2.25 -8.6 L3.25 -7.2 4.0 -5.8 4.05 -5.3 Q4.05 -4.9 3.65 -4.5 L2.25 -6.05 1.9 -6.5 Q0.8 -8.0 -0.9 -8.35 L-5.05 -10.25 -5.5 -10.75 Q-5.9 -11.3 -5.45 -11.8 M-6.45 -23.05 L-8.75 -24.0 -5.25 -24.65 -1.95 -24.3 1.0 -23.6 -2.75 -23.9 -6.45 -23.05 M-15.25 -21.9 L-16.3 -22.3 -17.55 -22.7 -20.05 -23.1 -14.8 -24.0 -12.4 -23.95 -12.4 -23.85 -10.45 -23.6 -10.75 -23.4 -12.4 -22.6 -12.4 -22.75 -15.25 -21.9" fill="url(#gradient0)" fill-rule="evenodd" stroke="none"/>
    <path d="M4.35 -13.75 L2.4 -13.45 2.25 -13.4 -0.25 -13.0 2.25 -15.4 Q3.2 -16.05 4.3 -16.5 L6.25 -14.7 6.05 -14.6 5.95 -14.55 4.95 -14.1 4.35 -13.75 M1.5 -17.85 L4.05 -16.65 2.25 -16.1 0.6 -14.9 Q-0.9 -13.7 -1.7 -12.3 L-4.15 -12.8 -3.45 -14.0 Q-1.65 -16.55 1.5 -17.85 M2.55 -10.2 L2.25 -10.45 1.7 -10.85 6.25 -14.65 8.4 -12.65 Q9.75 -10.9 10.7 -8.9 L10.8 -8.6 11.1 -7.9 11.0 -7.9 7.35 -8.9 4.75 -9.2 Q4.05 -9.25 3.2 -9.9 L2.55 -10.2 M9.4 -10.8 L8.95 -10.8 Q7.75 -10.6 7.2 -9.75 L6.9 -9.15 9.4 -10.8 M4.6 -10.15 L4.55 -10.05 4.65 -10.1 8.4 -12.65 Q6.0 -12.6 4.7 -10.5 L4.6 -10.25 4.6 -10.15 M-22.45 -14.75 L-22.85 -15.85 -23.7 -17.65 -24.4 -18.6 -21.45 -19.7 -20.85 -16.85 -21.75 -15.85 -22.1 -14.3 -22.2 -14.3 -22.45 -14.75 M-19.85 -17.2 L-21.2 -19.75 -18.1 -18.8 -17.95 -17.55 -19.85 -17.2 M-31.2 -6.15 L-30.35 -8.25 -27.95 -7.15 -31.2 -6.15 M-27.25 -7.5 L-27.55 -7.75 -28.5 -8.15 -29.1 -8.25 -30.3 -8.35 -29.25 -11.1 -25.55 -8.9 -25.55 -8.85 -27.25 -7.5 M-25.5 -8.9 L-25.55 -9.3 -26.0 -10.1 -27.25 -11.15 -28.25 -11.7 -29.05 -11.6 -26.9 -15.65 -24.9 -18.2 -24.7 -17.8 -23.3 -14.15 -23.35 -10.5 -24.2 -9.95 Q-24.05 -10.5 -24.35 -11.1 L-26.9 -15.65 -24.6 -9.65 -25.5 -8.9 M-5.1 -12.85 L-7.4 -12.7 -5.65 -15.55 Q-4.55 -17.25 -2.8 -18.45 L0.55 -18.1 -0.5 -17.7 -2.35 -16.35 Q-4.05 -14.8 -5.1 -12.85 M-7.15 -17.7 L-4.7 -18.25 Q-7.25 -16.1 -8.3 -12.6 -9.9 -12.5 -11.1 -11.5 L-11.5 -11.1 -11.55 -11.1 Q-10.4 -13.9 -8.9 -16.35 -8.3 -17.35 -7.15 -17.7" fill="#cca9a9" fill-rule="evenodd" stroke="none"/>
    <path d="M24.75 -15.45 L23.2 -17.6 23.1 -17.7 22.2 -18.55 Q20.85 -19.65 18.75 -20.45 L18.4 -20.55 13.75 -20.95 17.5 -17.45 17.85 -17.05 19.05 -15.7 Q20.55 -13.95 21.3 -11.65 L22.15 -8.75 Q23.15 -5.1 25.15 -1.7 L29.85 6.6 30.3 7.65 30.3 7.7 30.5 8.25 30.55 8.55 31.05 11.75 31.25 14.1 Q31.5 19.8 30.1 25.35 29.9 24.2 30.0 23.05 L30.05 22.7 30.55 16.75 30.55 16.65 30.65 14.4 30.65 13.6 30.5 11.9 30.3 10.55 29.7 8.0 28.95 6.3 24.2 -1.65 Q23.35 -3.1 22.75 -4.6 21.6 -7.3 20.8 -10.05 L19.6 -13.3 18.45 -15.0 16.95 -16.8 14.6 -19.5 12.45 -21.95 10.7 -23.15 9.45 -24.0 2.55 -23.0 5.65 -22.3 10.1 -20.7 10.7 -20.4 11.95 -19.5 12.15 -19.3 Q13.0 -18.4 13.5 -17.3 L13.8 -16.5 Q14.6 -13.85 16.0 -11.3 L19.6 -4.8 19.65 -4.7 21.35 -1.55 21.4 -1.5 23.15 1.8 Q25.2 5.75 25.55 10.2 L25.7 13.9 Q25.7 16.3 25.25 18.6 L24.8 20.45 23.9 23.05 23.65 23.65 22.75 25.4 23.05 24.2 23.55 22.2 24.55 17.75 Q25.25 14.75 25.2 11.65 25.15 9.15 24.2 7.0 L21.9 2.05 17.8 -5.45 16.55 -7.7 16.4 -8.05 16.3 -8.2 Q14.55 -11.55 13.2 -15.0 L12.4 -17.1 12.2 -17.6 11.2 -19.05 10.75 -19.5 10.7 -19.5 Q10.0 -20.1 9.15 -20.4 L2.25 -22.2 -2.2 -22.35 -5.5 -21.85 -9.6 -19.95 -11.85 -17.95 -12.4 -17.55 -12.4 -17.95 -12.65 -17.75 -13.9 -15.9 Q-14.2 -16.2 -13.95 -16.7 L-13.15 -17.95 -12.45 -18.7 -12.4 -18.75 -12.4 -19.05 Q-15.55 -22.3 -20.2 -22.3 -23.0 -22.2 -25.6 -20.6 -27.45 -19.55 -28.8 -17.85 L-29.8 -16.65 -31.3 -13.0 -32.6 -8.45 -33.2 -5.8 -33.6 -3.3 -34.75 0.5 -33.4 -8.65 -32.25 -13.25 -31.15 -15.65 -30.0 -17.5 -27.25 -20.25 Q-24.3 -22.6 -20.9 -23.5 L-18.3 -24.05 -16.15 -24.5 -15.75 -24.55 -12.4 -24.7 -12.4 -24.65 -10.65 -24.5 -9.9 -24.5 -9.5 -24.5 -5.65 -25.15 Q-3.75 -25.5 -1.8 -25.15 L1.05 -24.3 2.25 -23.85 7.1 -24.75 Q9.3 -25.1 10.7 -24.35 L12.85 -22.55 13.65 -21.75 18.4 -21.45 Q20.4 -20.9 21.95 -19.65 L25.95 -15.15 Q27.5 -13.4 27.6 -10.7 27.65 -6.9 27.85 -6.3 28.3 -4.85 30.65 -1.9 32.95 1.05 33.4 2.45 34.8 7.1 34.8 11.2 L34.3 15.0 34.15 15.0 34.3 13.95 34.25 12.4 34.2 11.5 34.1 10.6 34.05 10.55 Q33.65 7.6 32.6 4.4 30.75 -1.0 27.85 -4.4 26.7 -5.8 26.5 -8.85 26.25 -12.35 25.65 -13.65 L24.75 -15.45 M-0.25 -13.0 L-0.9 -12.05 1.45 -11.0 2.25 -12.1 3.65 -13.35 4.35 -13.75 4.95 -14.1 5.95 -14.55 6.05 -14.6 6.25 -14.7 4.3 -16.5 Q3.2 -16.05 2.25 -15.4 L-0.25 -13.0 M1.5 -17.85 Q-1.65 -16.55 -3.45 -14.0 L-4.15 -12.8 -1.7 -12.3 Q-0.9 -13.7 0.6 -14.9 L2.25 -16.1 4.05 -16.65 1.5 -17.85 M11.1 -7.9 L10.8 -8.6 10.7 -8.9 Q9.75 -10.9 8.4 -12.65 L6.25 -14.65 1.7 -10.85 2.25 -10.45 2.55 -10.2 Q3.9 -9.0 4.1 -7.1 5.2 -5.35 5.8 -3.3 7.35 1.9 6.75 7.4 L6.45 10.55 5.95 14.8 Q5.7 16.65 5.9 18.65 6.1 21.05 7.6 23.0 8.55 24.15 10.25 24.6 10.25 25.5 9.3 25.4 7.6 25.1 6.35 23.95 L5.5 22.95 Q4.7 21.65 4.15 20.2 3.2 17.65 3.25 14.95 L3.4 0.3 3.25 -1.25 2.25 -3.8 Q0.75 -6.2 -1.6 -7.55 L-4.8 -9.15 Q-7.3 -10.35 -10.05 -10.35 L-11.85 -10.1 Q-12.3 -10.05 -12.3 -10.55 -12.1 -13.0 -10.9 -15.3 L-10.15 -16.55 Q-8.6 -18.85 -5.7 -19.4 L-2.1 -19.25 1.2 -18.6 2.25 -18.25 Q4.5 -17.45 6.4 -15.85 9.75 -13.0 11.45 -8.85 12.6 -6.05 13.25 -3.1 L15.2 7.4 16.15 14.7 Q16.35 16.55 16.15 18.4 L15.85 21.5 15.55 23.95 15.25 25.15 15.1 25.15 Q15.05 23.4 15.25 21.65 15.75 17.85 15.4 13.95 L14.85 10.05 13.65 2.7 Q13.1 -1.0 12.15 -4.8 L11.1 -7.9 M9.4 -10.8 L6.9 -9.15 7.2 -9.75 Q7.75 -10.6 8.95 -10.8 L9.4 -10.8 M4.6 -10.15 L4.6 -10.25 4.7 -10.5 Q6.0 -12.6 8.4 -12.65 L4.65 -10.1 4.6 -10.15 M4.0 -5.8 L3.25 -7.2 2.25 -8.6 Q0.7 -10.65 -1.85 -11.2 L-5.45 -11.8 -7.4 -11.5 -9.4 -11.0 -5.05 -10.25 -0.9 -8.35 1.55 -6.25 2.25 -5.5 Q3.65 -3.7 4.5 -1.4 L3.75 -2.55 Q4.35 -0.85 4.45 1.1 L4.5 9.2 4.25 14.3 4.35 17.75 Q4.55 19.85 5.55 21.55 4.35 17.8 5.1 13.9 5.85 10.15 6.0 6.25 6.15 2.85 5.65 -0.4 5.2 -3.25 4.0 -5.8 M-20.85 -16.85 L-21.45 -19.7 -24.4 -18.6 -23.7 -17.65 -22.85 -15.85 -22.45 -14.75 -22.25 -11.55 -23.3 -14.15 -24.7 -17.8 -24.9 -18.2 -26.9 -15.65 -29.05 -11.6 -28.25 -11.7 -27.25 -11.15 -26.0 -10.1 -25.55 -9.3 -25.5 -8.9 -25.55 -8.9 -29.25 -11.1 -30.3 -8.35 -29.1 -8.25 -28.5 -8.15 -27.55 -7.75 -27.25 -7.5 -26.95 -6.7 -27.95 -7.15 -30.35 -8.25 -31.2 -6.15 -31.35 -6.2 Q-31.2 -8.2 -30.5 -10.2 -29.7 -12.85 -28.2 -15.3 -26.8 -17.6 -24.4 -19.2 -22.1 -20.75 -19.5 -20.4 -17.15 -20.05 -15.6 -18.25 L-14.45 -16.1 Q-13.6 -14.0 -14.5 -11.65 L-14.65 -11.55 -14.85 -11.75 Q-15.2 -14.6 -16.25 -16.85 L-17.05 -17.95 -17.0 -12.0 -17.05 -12.0 -17.95 -17.55 -18.1 -18.8 -21.2 -19.75 -19.85 -17.2 Q-19.05 -14.8 -19.45 -12.2 L-19.6 -11.4 -20.85 -16.85 M-24.2 -9.95 L-24.5 -9.55 -24.6 -9.65 -26.9 -15.65 -24.35 -11.1 Q-24.05 -10.5 -24.2 -9.95 M-6.45 -23.05 L-2.75 -23.9 1.0 -23.6 -1.95 -24.3 -5.25 -24.65 -8.75 -24.0 -6.45 -23.05 M-5.1 -12.85 Q-4.05 -14.8 -2.35 -16.35 L-0.5 -17.7 0.55 -18.1 -2.8 -18.45 Q-4.55 -17.25 -5.65 -15.55 L-7.4 -12.7 -5.1 -12.85 M-7.15 -17.7 Q-8.3 -17.35 -8.9 -16.35 -10.4 -13.9 -11.55 -11.1 L-11.5 -11.1 -11.1 -11.5 Q-9.9 -12.5 -8.3 -12.6 -7.25 -16.1 -4.7 -18.25 L-7.15 -17.7 M-10.45 -23.6 L-12.4 -23.85 -12.4 -23.95 -14.8 -24.0 -20.05 -23.1 -17.55 -22.7 -16.3 -22.3 -15.25 -21.9 -12.4 -20.25 -12.4 -19.95 -12.25 -19.8 -11.65 -19.15 -7.7 -22.7 -10.45 -23.6 M-12.25 -18.45 L-12.4 -18.6 -12.4 -18.35 -12.25 -18.45" fill="#a36a6a" fill-rule="evenodd" stroke="none"/>
  </g>
  <defs>
    <radialGradient cx="0" cy="0" gradientTransform="matrix(0.0387, 0.0, 0.0, 0.0387, -8.75, -39.65)" gradientUnits="userSpaceOnUse" id="gradient0" r="819.2" spreadMethod="pad">
      <stop offset="0.47843137254901963" stop-color="#ffffff"></stop>
      <stop offset="0.8823529411764706" stop-color="#f2eaea"></stop>
    </radialGradient>
  </defs>
</svg>