<?xml version="1.0" encoding="UTF-8" standalone="no"?>
<svg xmlns:xlink="http://www.w3.org/1999/xlink" height="14.05px" width="45.75px" xmlns="http://www.w3.org/2000/svg">
  <g transform="matrix(1.0, 0.0, 0.0, 1.0, 22.9, 7)">
    <path d="M13.45 1.1 L13.95 0.1 14.4 0.9 15.25 -0.45 15.45 0.6 17.35 -2.75 17.45 -2.4 17.9 -0.75 Q17.95 2.1 17.65 4.8 17.3 3.4 17.25 1.95 17.2 0.45 16.75 -1.15 L14.45 3.05 14.4 2.9 13.45 1.1 M20.9 5.2 L20.95 2.6 21.25 2.25 21.85 2.45 21.5 4.45 21.0 5.2 20.9 5.2 M-15.95 4.9 L-16.0 4.9 -16.45 4.55 -16.4 4.9 -17.8 4.9 -17.9 4.85 -18.25 4.55 -18.85 4.05 -19.4 3.5 -19.55 3.35 -19.4 4.35 -21.25 2.4 -21.9 -0.3 -20.25 1.1 -17.2 4.35 -17.6 2.65 -17.4 2.65 -17.4 -1.95 Q-17.0 -1.9 -16.8 -1.3 L-16.75 -1.2 -16.2 3.0 -15.95 4.9" fill="#a36a6a" fill-rule="evenodd" stroke="none"/>
    <path d="M13.45 1.1 L14.4 2.9 14.45 3.05 16.75 -1.15 Q17.2 0.45 17.25 1.95 17.3 3.4 17.65 4.8 L17.65 5.0 17.2 6.05 Q16.3 2.95 16.0 0.5 L15.45 5.2 14.9 5.75 Q13.0 4.15 11.6 2.1 L12.45 2.1 13.45 1.1 M10.3 0.05 L10.3 -0.05 10.3 -0.2 10.5 0.4 10.3 0.05 M9.7 1.3 Q9.85 3.5 9.65 5.5 7.85 3.2 7.35 0.5 L7.6 4.15 Q4.8 1.8 3.4 -1.4 L3.65 -1.8 3.85 -2.35 4.05 -2.9 4.2 -3.15 5.45 -1.15 Q6.0 0.25 6.9 1.7 L7.85 -1.4 Q8.3 -1.4 8.65 -0.3 L9.15 0.6 9.55 1.3 9.7 1.3 M2.65 0.8 L2.55 3.4 Q-0.4 1.5 -1.45 -1.8 L-1.45 -1.55 Q-1.5 -0.2 -1.8 1.0 L-2.5 -0.55 -2.65 -0.95 -2.55 -0.85 -1.85 -3.45 0.15 -1.0 Q0.5 -1.05 0.7 -1.25 1.45 0.45 2.65 0.8 M-5.0 -2.2 L-5.35 -2.9 -5.35 -2.75 Q-5.05 -0.1 -5.6 2.5 L-6.65 1.05 -6.65 0.85 -7.75 -2.55 -7.4 -2.2 -7.15 -1.95 -6.2 -6.0 -4.55 -4.05 -4.8 -3.5 -5.0 -2.2 M-7.0 1.45 L-6.7 2.75 -7.35 1.45 -7.3 1.45 -7.0 1.45 M-7.4 1.45 L-7.35 1.7 Q-7.0 3.55 -8.1 4.25 -11.55 2.2 -14.0 -1.2 L-13.9 -2.3 -13.85 -2.25 -11.9 -0.05 Q-10.6 1.6 -9.0 2.25 L-8.85 0.8 -7.4 1.45 M-14.1 0.15 L-13.9 2.75 -14.15 1.0 -14.1 0.15 M-15.2 4.95 L-15.6 4.9 -15.95 4.9 -16.2 3.0 -15.2 4.95 M-17.8 4.9 L-18.1 4.95 -18.25 4.55 -17.9 4.85 -17.8 4.9" fill="#e0cbcb" fill-rule="evenodd" stroke="none"/>
    <path d="M9.15 0.6 L9.3 0.8 9.65 1.05 9.7 1.3 9.55 1.3 9.15 0.6 M0.7 -1.25 L1.05 -2.1 1.2 -2.8 1.25 -3.15 2.85 -1.15 2.95 -1.15 3.0 -0.2 2.75 -1.0 2.65 0.8 Q1.45 0.45 0.7 -1.25 M-1.8 1.0 L-2.05 1.7 -2.25 1.3 -2.25 2.1 -2.65 1.55 Q-4.0 -0.2 -5.0 -2.2 L-4.8 -3.5 -4.55 -4.05 -3.85 -2.9 -2.65 -0.95 -2.5 -0.55 -1.8 1.0 M-6.65 1.05 L-7.4 -0.05 -7.0 1.45 -7.3 1.45 -7.35 1.45 -7.4 1.3 -7.4 1.45 -8.85 0.8 -8.5 -3.95 -7.75 -2.55 -6.65 0.85 -6.65 1.05 M-14.0 -1.2 L-14.45 -1.8 -14.1 0.15 -14.15 1.0 -13.9 2.75 -13.9 5.1 -15.2 4.95 -16.2 3.0 -16.75 -1.2 -16.15 -0.1 -15.65 0.6 -15.5 0.6 -15.1 -3.55 -13.85 -2.25 -13.9 -2.3 -14.0 -1.2 M-18.1 4.95 L-18.7 5.0 -19.4 4.35 -19.55 3.35 -19.4 3.5 -18.85 4.05 -18.25 4.55 -18.1 4.95" fill="url(#gradient0)" fill-rule="evenodd" stroke="none"/>
  </g>
  <defs>
    <radialGradient cx="0" cy="0" gradientTransform="matrix(0.0387, 0.0, 0.0, 0.0387, -88.55, -18.3)" gradientUnits="userSpaceOnUse" id="gradient0" r="819.2" spreadMethod="pad">
      <stop offset="0.47843137254901963" stop-color="#ffffff"></stop>
      <stop offset="0.8823529411764706" stop-color="#f2eaea"></stop>
    </radialGradient>
  </defs>
</svg>