<?xml version="1.0" encoding="UTF-8" standalone="no"?>
<svg xmlns:xlink="http://www.w3.org/1999/xlink" height="71.1px" width="78.35px" xmlns="http://www.w3.org/2000/svg">
  <g transform="matrix(1.0, 0.0, 0.0, 1.0, 39.2, 35.55)">
    <path d="M30.65 -24.95 L30.7 -25.45 Q37.4 -17.65 38.1 -7.5 L38.15 -5.55 34.75 -9.35 Q37.8 -0.4 36.0 8.9 L34.7 4.9 33.15 10.65 32.75 10.25 32.8 14.1 32.05 14.4 31.8 12.75 Q30.8 20.55 25.25 26.5 22.9 29.05 20.2 31.15 21.3 24.25 20.55 17.35 L20.85 16.4 Q22.35 22.25 21.35 29.05 L21.35 29.1 21.4 29.05 Q25.9 23.25 27.75 16.4 28.05 17.65 27.7 18.95 L27.65 19.2 26.0 23.35 26.35 22.75 30.45 13.95 31.5 9.6 31.8 12.6 31.6 9.6 31.5 7.2 31.55 6.95 31.95 7.3 Q32.55 8.4 32.7 9.65 L34.05 1.2 35.75 5.6 Q36.15 -2.8 33.6 -10.8 35.2 -10.95 36.15 -9.5 L36.6 -8.8 37.05 -8.15 37.35 -7.6 Q35.9 -17.0 30.65 -24.95 M20.25 16.55 Q18.0 21.6 14.7 25.7 14.25 25.4 14.25 24.85 14.25 22.7 14.65 21.6 L10.75 28.65 Q9.65 27.3 9.55 21.7 L9.1 22.9 Q7.05 28.05 6.4 28.85 5.85 28.65 5.85 27.05 4.5 29.65 3.4 29.65 2.45 29.65 2.1 27.15 L0.1 31.0 Q-2.25 31.0 -2.75 19.4 L-2.6 17.75 -1.95 11.55 -2.0 14.15 -1.05 22.7 0.1 29.3 0.5 28.4 1.05 27.15 2.2 24.5 3.55 27.75 7.1 24.5 7.1 26.25 11.0 16.2 10.35 19.65 10.95 21.2 Q11.85 23.5 11.35 26.05 L17.2 14.85 Q16.05 17.95 15.35 21.15 15.05 22.5 15.15 24.0 L21.4 13.6 20.25 16.55 M-2.85 19.4 L-4.7 34.55 Q-6.95 31.55 -7.1 27.85 -7.65 28.2 -8.0 27.6 -9.35 25.3 -9.55 23.15 L-11.45 25.45 -12.35 20.95 -12.9 20.9 -13.55 18.5 -15.05 23.35 -17.05 22.6 -20.65 20.4 Q-25.0 18.1 -26.95 13.4 L-27.8 17.55 -28.25 17.35 Q-31.15 13.05 -32.05 7.85 L-32.25 6.4 Q-32.65 2.65 -33.6 0.8 L-34.45 1.6 Q-36.4 3.5 -38.2 2.7 L-34.6 -4.05 -33.65 -5.95 Q-30.95 -12.2 -29.85 -19.2 -29.35 -22.3 -26.8 -24.5 L-23.3 -27.55 -18.0 -32.45 -18.85 -31.2 -21.7 -27.55 -23.85 -23.2 Q-25.05 -20.0 -26.9 -19.3 -26.15 -23.4 -23.65 -26.6 L-24.65 -25.55 Q-29.85 -19.85 -30.6 -12.0 L-30.6 -11.95 -30.65 -11.55 -30.45 -11.95 -28.85 -14.0 Q-31.0 -5.15 -36.8 2.0 L-32.8 -1.15 -32.5 0.1 -28.85 13.75 -28.4 15.4 -27.1 9.6 -26.9 10.1 Q-24.55 16.85 -18.75 20.3 L-15.95 21.7 -13.35 15.3 -12.15 11.8 -12.4 19.3 -11.25 14.65 -11.3 18.8 -11.0 22.8 -11.0 22.9 -10.9 22.8 -9.0 20.4 -7.35 26.25 Q-8.0 23.6 -6.85 21.05 L-6.45 23.7 -5.45 30.15 -5.25 31.55 -5.35 30.05 -4.25 22.6 Q-3.9 20.4 -2.8 18.9 L-2.85 19.4 M1.5 -25.6 L1.45 -25.65 Q-1.5 -26.95 -4.75 -27.45 L-6.0 -27.65 -6.65 -27.55 -15.7 -26.1 -16.0 -26.0 -19.05 -24.4 -15.65 -27.0 -15.55 -27.05 -15.7 -27.05 -14.2 -27.55 Q-5.5 -30.25 2.75 -25.8 9.65 -22.25 10.95 -15.15 8.1 -22.55 1.5 -25.6 M-13.15 -7.8 L-13.1 -8.2 -10.35 -13.7 -9.35 -14.6 -9.4 -14.4 -9.55 -14.1 -12.6 -5.9 -12.6 -5.8 -12.55 -5.8 -12.3 -5.9 -9.45 -6.35 Q-8.75 -2.85 -10.9 0.65 L-11.5 0.2 -10.8 -5.25 -10.75 -5.3 -10.85 -5.3 -13.4 -4.5 Q-13.45 -6.25 -13.15 -7.8 M4.2 -26.65 Q10.4 -24.25 13.1 -18.15 8.85 -22.85 3.7 -26.5 L4.2 -26.65 M30.7 -14.45 Q29.2 -20.55 25.45 -25.6 29.75 -21.65 30.55 -16.0 L30.7 -14.45 M28.7 -15.05 Q30.85 -8.1 29.35 -1.4 L28.7 -15.05 M32.25 6.5 L32.1 -0.75 Q32.65 1.0 32.85 3.05 33.05 4.95 32.25 6.5 M23.1 2.9 L24.6 -5.05 Q25.25 -1.1 23.95 2.55 L23.1 2.9 M-22.9 4.2 L-23.15 3.45 Q-23.9 0.05 -23.15 -3.0 L-22.95 0.6 -21.9 5.15 -21.8 5.85 -22.9 4.2 M-25.55 -11.9 Q-24.9 -14.65 -23.65 -14.4 L-25.5 -2.15 Q-26.0 -2.0 -26.15 -3.15 -26.6 -7.5 -25.55 -11.9 M-9.7 5.75 Q-11.05 5.5 -10.55 3.4 L-10.15 2.6 -9.7 2.65 -9.7 5.75" fill="#a36a6a" fill-rule="evenodd" stroke="none"/>
    <path d="M-18.85 -31.2 L-17.85 -31.5 Q-8.75 -34.35 0.85 -34.55 9.7 -34.75 17.85 -31.2 22.85 -23.15 24.0 -13.75 L24.35 -10.95 Q22.7 -11.05 22.15 -12.65 L21.7 -7.85 19.0 -11.5 Q20.05 -2.9 17.95 5.3 17.75 -1.75 15.05 -8.1 14.25 -9.95 13.0 -11.6 13.45 -4.25 12.3 3.25 L8.5 -7.15 Q9.6 2.7 8.45 12.45 L7.25 2.75 5.75 7.05 4.6 -0.2 2.7 14.45 Q1.65 12.85 0.6 9.6 L-0.35 5.75 Q-1.05 2.0 -2.0 -1.7 L-3.65 8.6 -5.45 4.65 -8.3 16.95 -11.0 15.4 -11.3 18.8 -11.25 14.65 -12.4 19.3 -12.15 11.8 -13.35 15.3 -13.4 13.9 -13.7 7.9 -17.2 11.5 -17.1 6.15 -21.3 9.9 -21.8 5.85 -21.9 5.15 -22.85 -2.75 -22.8 0.6 -22.95 0.6 -23.15 -3.0 Q-23.9 0.05 -23.15 3.45 L-22.9 4.2 -23.85 5.85 -24.8 -1.55 -27.7 0.55 -28.4 -7.7 -32.5 0.1 -32.8 -1.15 -36.8 2.0 Q-31.0 -5.15 -28.85 -14.0 L-30.45 -11.95 -30.6 -12.0 Q-29.85 -19.85 -24.65 -25.55 L-23.65 -26.6 Q-26.15 -23.4 -26.9 -19.3 -25.05 -20.0 -23.85 -23.2 L-21.7 -27.55 -18.85 -31.2 M1.5 -25.6 Q8.1 -22.55 10.95 -15.15 9.65 -22.25 2.75 -25.8 -5.5 -30.25 -14.2 -27.55 L-15.7 -27.05 -15.65 -27.0 -19.05 -24.4 -16.0 -26.0 Q-16.85 -25.0 -17.4 -23.4 -18.3 -20.9 -18.3 -16.7 L-19.0 -14.7 -15.25 -16.5 -15.1 -12.35 Q-15.05 -13.1 -14.05 -13.5 L-13.0 -13.95 -13.15 -12.45 -13.5 -8.4 -13.15 -7.8 Q-13.45 -6.25 -13.4 -4.5 L-10.85 -5.3 -10.8 -5.25 -11.5 0.2 -10.9 0.65 Q-8.75 -2.85 -9.45 -6.35 L-12.3 -5.9 -12.55 -5.8 -12.6 -5.9 -9.55 -14.1 -9.4 -14.3 Q-9.1 -12.6 -9.1 -8.25 L-9.1 -7.05 -9.35 -6.5 -8.2 -8.75 -8.1 -5.55 -7.35 -5.65 -2.8 -15.0 -3.1 -11.35 -2.45 -11.05 -2.3 -9.55 -1.7 -11.35 -1.05 -9.35 Q-0.7 -9.7 -0.5 -10.15 0.7 -13.0 1.6 -16.3 L2.7 -21.1 Q2.95 -22.4 2.85 -23.7 2.7 -25.05 1.5 -25.6 M4.2 -26.65 L3.7 -26.5 Q8.85 -22.85 13.1 -18.15 10.4 -24.25 4.2 -26.65 M3.9 -15.9 Q3.9 -12.0 4.1 -10.8 5.55 -11.55 5.55 -16.15 5.35 -20.4 4.1 -20.4 3.15 -20.4 3.3 -19.5 3.9 -17.4 3.9 -15.9 M-25.55 -11.9 Q-26.6 -7.5 -26.15 -3.15 -26.0 -2.0 -25.5 -2.15 L-23.65 -14.4 Q-24.9 -14.65 -25.55 -11.9 M-13.35 -14.5 L-13.35 -14.55 -13.3 -14.5 -13.35 -14.5 M-9.7 5.75 L-9.7 2.65 -10.15 2.6 -10.55 3.4 Q-11.05 5.5 -9.7 5.75" fill="url(#gradient0)" fill-rule="evenodd" stroke="none"/>
    <path d="M-2.75 19.4 L-2.85 19.4 -2.8 18.9 -2.6 17.75 -2.75 19.4 M17.85 -31.2 L30.65 -24.95 Q35.9 -17.0 37.35 -7.6 L37.05 -8.15 36.6 -8.8 36.15 -9.5 Q35.2 -10.95 33.6 -10.8 36.15 -2.8 35.75 5.6 L34.05 1.2 32.7 9.65 Q32.55 8.4 31.95 7.3 L31.55 6.95 Q32.55 3.55 31.4 0.25 L31.1 -0.45 Q29.05 9.3 25.5 18.7 L24.7 20.55 24.25 19.5 25.1 16.6 Q27.05 10.65 28.05 4.25 L28.05 3.05 27.5 0.85 24.15 12.5 23.6 12.35 22.95 12.6 23.6 10.45 22.8 10.0 Q21.05 11.6 20.25 14.0 L19.45 15.85 19.2 15.9 19.0 15.85 19.1 14.45 18.55 14.1 21.5 4.6 12.5 20.35 14.8 12.0 14.85 10.9 13.7 10.5 13.55 6.05 7.1 19.1 7.9 14.3 3.0 23.55 Q3.4 20.05 3.25 16.75 3.2 15.95 2.6 15.5 L0.4 22.4 -0.5 18.85 -1.05 22.7 -2.0 14.15 -1.7 9.15 Q-2.6 9.0 -3.0 9.9 -6.15 16.45 -6.45 23.7 L-6.85 21.05 Q-8.0 23.6 -7.35 26.25 L-9.0 20.4 -10.9 22.8 -11.0 22.8 -11.3 18.8 -11.0 15.4 -8.3 16.95 -5.45 4.65 -3.65 8.6 -2.0 -1.7 Q-1.05 2.0 -0.35 5.75 L0.6 9.6 Q1.65 12.85 2.7 14.45 L4.6 -0.2 5.75 7.05 7.25 2.75 8.45 12.45 Q9.6 2.7 8.5 -7.15 L12.3 3.25 Q13.45 -4.25 13.0 -11.6 14.25 -9.95 15.05 -8.1 17.75 -1.75 17.95 5.3 20.05 -2.9 19.0 -11.5 L21.7 -7.85 22.15 -12.65 Q22.7 -11.05 24.35 -10.95 L24.0 -13.75 Q22.85 -23.15 17.85 -31.2 M31.5 7.2 L31.6 9.6 31.5 9.6 30.45 13.95 31.5 7.2 M26.35 22.75 L26.0 23.35 27.65 19.2 28.05 18.4 26.35 22.75 M-16.0 -26.0 L-15.7 -26.1 -6.65 -27.55 -6.0 -27.65 -4.75 -27.45 Q-1.5 -26.95 1.45 -25.65 L1.5 -25.6 Q2.7 -25.05 2.85 -23.7 2.95 -22.4 2.7 -21.1 L1.6 -16.3 Q0.7 -13.0 -0.5 -10.15 -0.7 -9.7 -1.05 -9.35 L-1.7 -11.35 -2.3 -9.55 -2.45 -11.05 -3.1 -11.35 -2.8 -15.0 -7.35 -5.65 -8.1 -5.55 -8.2 -8.75 -9.35 -6.5 -9.1 -7.05 -9.1 -8.25 Q-9.1 -12.6 -9.4 -14.3 L-9.55 -14.1 -9.4 -14.4 -9.35 -14.6 -10.35 -13.7 -13.1 -8.2 -13.15 -7.8 -13.5 -8.4 -13.15 -12.45 -13.0 -13.95 -14.05 -13.5 Q-15.05 -13.1 -15.1 -12.35 L-15.25 -16.5 -19.0 -14.7 -18.3 -16.7 Q-18.3 -20.9 -17.4 -23.4 -16.85 -25.0 -16.0 -26.0 M-15.7 -27.05 L-15.55 -27.05 -15.65 -27.0 -15.7 -27.05 M3.9 -15.9 Q3.9 -17.4 3.3 -19.5 3.15 -20.4 4.1 -20.4 5.35 -20.4 5.55 -16.15 5.55 -11.55 4.1 -10.8 3.9 -12.0 3.9 -15.9 M30.7 -14.45 L30.55 -16.0 Q29.75 -21.65 25.45 -25.6 29.2 -20.55 30.7 -14.45 M27.65 -4.95 Q27.85 -9.95 26.7 -14.9 L25.85 2.55 Q27.2 0.9 27.4 -1.15 L27.65 -4.95 M28.7 -15.05 L29.35 -1.4 Q30.85 -8.1 28.7 -15.05 M32.25 6.5 Q33.05 4.95 32.85 3.05 32.65 1.0 32.1 -0.75 L32.25 6.5 M0.5 28.4 L1.5 23.7 1.05 27.15 0.5 28.4 M23.1 2.9 L23.95 2.55 Q25.25 -1.1 24.6 -5.05 L23.1 2.9 M-30.6 -12.0 L-30.45 -11.95 -30.6 -11.95 -30.6 -12.0 M-32.5 0.1 L-28.4 -7.7 -27.7 0.55 -24.8 -1.55 -23.85 5.85 -22.9 4.2 -21.8 5.85 -21.3 9.9 -17.1 6.15 -17.2 11.5 -13.7 7.9 -13.4 13.9 -14.55 14.05 -14.9 12.65 Q-16.05 13.05 -16.35 14.3 L-17.4 19.2 -18.15 13.8 -18.5 14.05 -18.75 20.3 Q-24.55 16.85 -26.9 10.1 L-26.1 6.4 -26.7 5.7 -28.85 13.75 -32.5 0.1 M-22.8 0.6 L-22.85 -2.75 -21.9 5.15 -22.95 0.6 -22.8 1.55 -22.8 0.6 M-13.35 -14.5 L-13.3 -14.5 -13.35 -14.55 -13.35 -14.5 M-12.55 -5.8 L-12.6 -5.8 -12.6 -5.9 -12.55 -5.8 M-5.45 30.15 L-5.35 30.05 -5.25 31.55 -5.45 30.15" fill="#e0cbcb" fill-rule="evenodd" stroke="none"/>
    <path d="M20.55 17.35 L20.25 16.55 21.4 13.6 15.15 24.0 Q15.05 22.5 15.35 21.15 16.05 17.95 17.2 14.85 L11.35 26.05 Q11.85 23.5 10.95 21.2 L10.35 19.65 11.0 16.2 7.1 26.25 7.1 24.5 3.55 27.75 2.2 24.5 1.05 27.15 1.5 23.7 0.5 28.4 0.1 29.3 -1.05 22.7 -0.5 18.85 0.4 22.4 2.6 15.5 Q3.2 15.95 3.25 16.75 3.4 20.05 3.0 23.55 L7.9 14.3 7.1 19.1 13.55 6.05 13.7 10.5 14.85 10.9 14.8 12.0 12.5 20.35 21.5 4.6 18.55 14.1 19.1 14.45 19.0 15.85 19.2 15.9 19.45 15.85 20.25 14.0 Q21.05 11.6 22.8 10.0 L23.6 10.45 22.95 12.6 23.6 12.35 24.15 12.5 27.5 0.85 28.05 3.05 28.05 4.25 Q27.05 10.65 25.1 16.6 L24.25 19.5 24.7 20.55 25.5 18.7 Q29.05 9.3 31.1 -0.45 L31.4 0.25 Q32.55 3.55 31.55 6.95 L31.5 7.2 30.45 13.95 26.35 22.75 28.05 18.4 27.65 19.2 27.7 18.95 Q28.05 17.65 27.75 16.4 25.9 23.25 21.4 29.05 L21.35 29.05 Q22.35 22.25 20.85 16.4 L20.55 17.35 M27.65 -4.95 L27.4 -1.15 Q27.2 0.9 25.85 2.55 L26.7 -14.9 Q27.85 -9.95 27.65 -4.95 M-13.4 13.9 L-13.35 15.3 -15.95 21.7 -18.75 20.3 -18.5 14.05 -18.15 13.8 -17.4 19.2 -16.35 14.3 Q-16.05 13.05 -14.9 12.65 L-14.55 14.05 -13.4 13.9 M-6.45 23.7 Q-6.15 16.45 -3.0 9.9 -2.6 9.0 -1.7 9.15 L-2.0 14.15 -1.95 11.55 -2.6 17.75 -2.8 18.9 Q-3.9 20.4 -4.25 22.6 L-5.35 30.05 -5.45 30.15 -6.45 23.7 M-28.85 13.75 L-26.7 5.7 -26.1 6.4 -26.9 10.1 -27.1 9.6 -28.4 15.4 -28.85 13.75" fill="#cca9a9" fill-rule="evenodd" stroke="none"/>
    <path d="M-22.95 0.6 L-22.8 0.6 -22.8 1.55 -22.95 0.6" fill="url(#gradient1)" fill-rule="evenodd" stroke="none"/>
  </g>
  <defs>
    <radialGradient cx="0" cy="0" gradientTransform="matrix(0.0504, 0.0, 0.0, 0.0504, -14.85, -28.65)" gradientUnits="userSpaceOnUse" id="gradient0" r="819.2" spreadMethod="pad">
      <stop offset="0.47843137254901963" stop-color="#ffffff"></stop>
      <stop offset="0.8823529411764706" stop-color="#f2eaea"></stop>
    </radialGradient>
    <radialGradient cx="0" cy="0" gradientTransform="matrix(0.0186, -0.0323, 0.0199, 0.0115, -126.15, -13.35)" gradientUnits="userSpaceOnUse" id="gradient1" r="819.2" spreadMethod="pad">
      <stop offset="0.47843137254901963" stop-color="#ffffff"></stop>
      <stop offset="0.8823529411764706" stop-color="#f2eaea"></stop>
    </radialGradient>
  </defs>
</svg>