<?xml version="1.0" encoding="UTF-8" standalone="no"?>
<svg xmlns:xlink="http://www.w3.org/1999/xlink" height="92px" width="159.75px" xmlns="http://www.w3.org/2000/svg">
  <g transform="matrix(1.0, 0.0, 0.0, 1.0, 101, 43.45)">
    <path d="M33.75 -40.7 L33.4 -40.15 33.55 -39.75 Q33.75 -39.35 34.2 -39.2 L36.45 -39.15 Q37.55 -39.55 36.95 -40.35 L36.05 -40.95 35.5 -41.1 35.35 -41.1 34.95 -41.15 Q34.35 -41.2 33.75 -40.7 M-54.2 0.0 L-52.9 -3.1 -51.25 -3.0 -49.4 -3.5 -49.35 -3.35 -48.3 -2.0 -48.25 -1.95 -48.25 -1.65 -46.45 -0.05 Q-45.4 0.8 -44.1 0.95 L-43.25 0.95 Q-41.85 0.8 -41.75 -0.4 L-41.65 0.4 -40.7 1.95 -39.15 2.95 -37.6 3.05 -33.05 2.75 Q-32.75 2.75 -32.65 2.9 L-31.4 3.85 -29.85 4.55 -27.55 4.7 Q-24.95 4.35 -23.1 2.4 L-22.0 0.9 -21.35 -0.55 -20.9 1.15 -20.35 1.5 -19.35 1.7 Q-20.45 2.4 -20.85 3.55 L-20.95 4.05 -20.55 4.8 Q-19.75 5.4 -18.85 5.4 L-17.05 5.05 -16.85 4.85 Q-15.95 4.25 -15.4 3.2 -15.05 2.65 -15.35 2.1 -15.5 1.7 -16.0 1.6 L-14.15 0.95 Q-11.9 -0.1 -11.45 -2.4 -9.0 0.0 -5.45 -0.4 -4.3 -0.55 -3.25 -1.0 L-3.05 -1.05 Q-3.45 -0.65 -3.55 0.1 -3.55 0.6 -3.15 0.95 L-2.5 1.3 -1.65 1.4 1.7 0.75 Q3.45 0.05 4.15 -1.55 L4.3 -2.0 Q4.5 -2.7 4.05 -3.35 3.45 -4.15 2.5 -4.35 1.1 -4.55 -0.15 -4.0 L-1.05 -3.5 -1.05 -3.65 Q-0.7 -5.2 -0.65 -6.75 L-0.3 -6.6 0.65 -6.35 Q2.5 -5.65 4.2 -6.4 7.2 -7.65 8.05 -10.75 L8.1 -10.45 Q9.35 -8.95 11.4 -9.3 L13.3 -9.95 Q14.05 -10.3 14.35 -11.1 L14.55 -11.55 15.2 -11.45 16.95 -11.5 Q17.7 -11.65 18.3 -12.05 L19.6 -13.25 19.95 -14.0 Q20.45 -14.05 20.9 -14.6 L21.65 -15.75 Q22.65 -14.6 24.25 -14.85 26.15 -15.1 27.85 -15.75 29.25 -16.25 30.15 -17.35 30.95 -18.25 31.05 -19.5 L31.05 -19.95 31.25 -19.9 32.7 -19.85 Q33.95 -20.0 35.05 -20.55 36.8 -21.3 37.1 -23.1 L37.3 -25.3 37.2 -26.95 Q37.05 -28.1 36.1 -28.65 36.9 -29.25 37.3 -30.3 37.8 -31.75 37.2 -33.2 L37.15 -33.35 36.8 -34.0 36.0 -34.75 Q37.55 -34.35 38.1 -33.4 L38.25 -33.2 39.05 -31.75 Q39.5 -31.75 39.3 -31.9 L38.9 -33.2 36.8 -35.1 Q35.0 -36.3 33.45 -35.65 L33.6 -36.5 33.45 -37.25 Q32.9 -38.5 31.95 -39.2 L31.1 -39.65 31.0 -39.7 32.55 -39.6 33.1 -39.5 33.65 -38.95 33.85 -39.2 32.85 -39.75 31.65 -40.25 32.45 -40.85 Q33.85 -41.65 36.0 -41.65 L36.5 -41.55 Q37.45 -41.4 38.35 -40.6 L39.0 -39.9 38.95 -39.9 38.65 -39.9 37.65 -39.1 38.2 -39.05 Q42.65 -39.05 44.15 -38.0 45.2 -37.25 45.2 -35.8 45.2 -34.35 45.55 -33.95 L46.1 -34.95 46.15 -35.85 46.15 -36.1 46.15 -36.15 Q51.35 -34.95 51.35 -31.1 L51.1 -30.05 50.95 -29.45 50.7 -28.4 49.6 -28.3 50.55 -27.95 Q50.55 -27.8 50.7 -27.8 L50.9 -27.8 Q51.85 -27.25 52.3 -26.35 L52.5 -25.4 52.55 -24.3 52.35 -22.6 51.55 -22.9 50.9 -23.6 Q50.0 -24.55 48.45 -25.3 44.9 -27.1 44.85 -25.15 L44.85 -24.75 45.0 -24.75 44.65 -24.4 44.5 -22.95 44.8 -21.75 44.9 -21.5 Q45.2 -20.75 46.15 -20.65 46.85 -20.65 47.15 -21.45 L47.55 -22.6 47.45 -23.85 46.7 -24.7 45.65 -25.05 Q47.85 -25.75 49.6 -23.8 L50.0 -23.3 50.15 -23.2 50.6 -22.55 50.6 -22.5 51.05 -21.0 Q51.05 -20.5 50.5 -19.7 49.95 -18.85 49.95 -18.5 49.95 -18.2 50.05 -18.2 L50.15 -18.3 Q52.0 -19.4 52.05 -21.05 L52.4 -20.95 52.55 -21.1 53.0 -20.35 Q53.2 -19.85 53.2 -17.8 L53.1 -16.45 Q52.05 -14.1 49.5 -12.75 L48.8 -12.3 48.4 -12.1 47.75 -11.95 47.7 -11.95 Q48.4 -13.95 47.05 -15.8 L46.85 -15.75 46.65 -14.85 45.6 -11.3 45.2 -10.35 44.7 -9.1 44.05 -8.1 Q43.55 -7.65 43.95 -7.6 44.65 -7.8 45.35 -8.45 L46.6 -9.9 47.55 -11.65 47.6 -11.7 Q48.9 -9.6 48.15 -7.0 47.65 -5.4 46.15 -5.4 47.05 -4.2 46.7 -2.85 46.6 -2.35 46.1 -2.15 45.5 -1.75 44.8 -1.7 43.25 -1.5 42.15 -2.6 42.7 -0.8 42.1 0.9 L41.3 2.15 Q39.15 4.25 36.1 3.8 36.75 5.9 35.4 7.85 35.15 8.3 34.5 8.4 L29.3 8.2 Q28.95 8.3 29.0 8.85 L29.15 10.25 Q29.35 14.3 25.7 15.9 24.0 16.6 22.4 15.95 L22.05 15.85 Q21.25 15.65 21.35 16.3 21.45 16.95 20.9 17.3 L19.8 17.9 18.7 18.0 17.85 17.65 Q17.5 17.75 17.5 18.5 L17.5 18.9 16.2 19.25 14.95 19.6 Q14.4 20.2 13.85 19.85 L13.7 19.75 Q12.3 18.75 11.9 17.25 L11.55 16.35 11.35 16.45 9.95 17.2 Q8.15 18.05 6.4 18.6 L5.55 18.35 4.45 18.0 3.05 17.2 2.35 16.65 Q1.15 18.85 -0.4 20.75 L-1.0 21.3 -1.5 21.55 -3.2 22.0 Q-6.65 22.5 -8.9 20.35 L-10.05 18.7 -10.65 20.3 Q-10.8 21.0 -11.4 21.35 L-12.45 22.05 Q-13.45 22.75 -14.3 22.3 L-15.9 21.9 -16.5 21.7 -16.65 21.5 Q-17.1 21.55 -17.25 22.25 L-17.7 23.2 Q-19.65 25.75 -22.9 25.5 L-25.35 25.0 Q-26.6 24.6 -27.55 23.7 L-29.4 21.95 -31.3 19.45 -31.55 19.35 -31.95 19.45 -33.15 20.4 Q-35.9 22.45 -38.9 20.8 L-39.65 20.05 -39.95 19.25 -40.15 18.25 Q-40.2 17.9 -40.6 18.15 L-41.95 18.9 -42.75 19.15 Q-45.4 19.85 -47.9 18.75 L-48.25 18.6 -48.25 16.45 Q-52.15 14.75 -53.8 11.2 L-54.25 9.6 Q-54.45 8.4 -54.9 7.45 L-55.1 7.4 -55.75 7.4 -55.75 7.25 Q-55.75 6.55 -56.05 5.75 L-54.75 1.7 Q-54.05 2.1 -53.65 2.1 L-53.05 1.95 -52.9 1.7 -52.75 1.2 -54.2 0.0 M53.95 -10.3 L53.95 -10.25 53.8 -10.25 53.95 -10.3 M19.85 -13.15 L18.55 -12.05 Q17.9 -11.55 17.7 -10.8 17.55 -10.3 17.8 -9.9 L18.0 -9.7 18.95 -9.15 21.1 -9.35 Q22.35 -9.8 23.15 -10.8 L23.55 -11.45 23.55 -12.1 Q23.4 -12.9 22.6 -13.25 L20.55 -13.5 20.05 -13.4 19.85 -13.15 M15.3 -8.0 L15.1 -7.95 Q13.45 -7.65 12.55 -6.2 L11.95 -4.85 Q11.9 -4.55 12.2 -4.45 L13.3 -4.5 14.4 -5.1 15.15 -5.8 Q16.05 -6.55 15.65 -7.7 L15.5 -8.0 15.3 -8.0 M32.65 -14.05 Q32.45 -13.45 32.65 -12.9 32.8 -12.6 33.15 -12.6 33.9 -12.7 34.5 -13.1 L36.05 -14.35 Q37.2 -15.45 36.4 -16.55 L36.25 -16.75 35.5 -17.35 35.35 -17.4 Q33.35 -16.25 32.65 -14.05 M24.65 -2.85 Q24.6 -1.5 25.75 -1.85 26.9 -2.2 27.75 -3.25 L28.05 -3.7 28.4 -4.9 Q28.45 -5.3 28.05 -5.35 L26.35 -5.65 Q25.6 -5.25 25.15 -4.55 24.7 -3.85 24.65 -2.85 M38.6 -5.65 L39.3 -5.9 Q40.5 -6.4 41.4 -7.6 42.25 -8.7 42.45 -9.75 L42.5 -10.4 Q42.5 -14.25 39.5 -13.1 40.2 -12.0 41.15 -11.35 41.7 -11.0 41.7 -10.35 41.7 -9.3 40.65 -8.05 L38.6 -5.65 M39.05 -3.7 L37.85 -2.7 35.5 -1.05 33.15 0.25 Q33.15 0.8 33.6 1.4 33.95 1.9 34.45 2.1 L35.5 2.2 Q38.0 1.75 38.7 -0.75 L39.05 -2.2 39.15 -3.6 39.05 -3.7 M41.8 -33.65 Q44.45 -33.85 45.4 -32.6 L45.5 -32.4 46.4 -30.55 46.6 -30.75 46.8 -31.25 46.7 -32.1 Q46.2 -33.5 44.0 -34.4 41.2 -35.55 41.2 -33.8 L41.25 -33.45 41.3 -33.6 41.65 -33.6 41.6 -33.0 Q41.55 -32.3 41.65 -31.7 41.75 -31.2 42.15 -30.8 42.8 -30.2 43.5 -30.8 43.9 -31.15 43.95 -31.65 L43.6 -32.7 43.55 -32.8 42.55 -33.4 41.8 -33.65 M42.1 -25.6 Q42.1 -26.95 41.15 -28.05 39.75 -29.6 37.05 -29.15 41.2 -28.35 41.2 -25.5 40.8 -24.2 40.95 -23.7 L41.25 -23.7 41.7 -24.6 42.1 -25.6 M47.7 -11.95 L47.6 -11.7 47.5 -11.9 47.35 -12.0 47.7 -11.95 M32.9 3.0 L32.65 1.15 Q32.2 1.45 32.2 2.55 L32.2 3.65 32.05 4.25 31.4 5.2 30.6 5.9 28.5 6.75 Q27.0 7.25 27.0 7.4 27.0 7.95 27.3 7.6 30.95 6.55 32.1 5.4 32.85 4.65 32.9 3.15 L32.9 3.0 M20.55 10.65 L20.4 9.9 Q18.1 11.95 15.2 13.4 L14.25 13.85 16.6 13.95 18.05 14.0 19.7 13.65 Q20.95 12.9 20.75 11.5 L20.55 10.65 M9.7 2.6 Q9.7 3.6 8.95 5.05 L7.1 8.1 Q7.3 8.4 7.8 8.4 9.3 8.4 10.1 5.85 10.6 4.25 10.6 2.8 10.35 -0.45 9.05 0.85 9.7 1.95 9.7 2.6 M5.55 13.95 L7.05 14.3 7.85 14.35 Q8.8 14.25 9.45 13.1 L11.25 9.25 Q8.55 10.85 5.55 11.95 L4.2 12.4 Q3.55 12.65 3.2 12.4 4.2 13.5 5.55 13.95 M-9.15 7.55 Q-9.95 8.05 -10.25 8.9 L-10.25 9.0 Q-10.5 9.5 -10.2 9.75 -9.8 10.25 -9.25 10.1 -8.05 9.8 -7.15 8.95 -6.55 8.4 -6.8 7.9 -7.0 7.45 -7.65 7.35 L-7.85 7.3 -8.65 7.3 -9.15 7.55 M-16.05 1.6 L-16.0 1.6 -16.4 1.7 -16.65 1.75 -16.05 1.6 M-11.45 15.8 L-11.95 15.7 -11.7 16.65 -11.55 17.2 Q-11.3 17.5 -11.05 17.45 L-9.05 17.1 -7.35 16.35 -5.9 14.8 -5.6 14.3 Q-6.5 14.55 -7.4 14.95 L-8.4 15.35 -11.45 15.8 M-18.0 20.9 L-18.1 21.0 Q-18.3 21.0 -19.15 21.9 -20.0 22.8 -21.2 22.8 L-22.6 22.6 -23.55 22.8 Q-22.95 23.95 -21.1 23.95 -20.25 23.95 -19.05 22.85 -17.85 21.8 -17.85 21.25 -17.85 20.9 -18.0 20.9 M-26.45 7.55 L-26.65 7.5 -27.3 8.15 Q-27.9 8.9 -27.65 9.2 L-26.95 9.25 Q-26.25 9.0 -25.8 8.35 -25.6 8.1 -25.75 8.0 L-25.8 8.0 -26.45 7.55 M-39.85 4.9 Q-40.35 4.6 -40.9 4.4 -41.2 4.45 -41.3 4.6 -42.4 5.25 -41.4 6.35 -40.95 6.9 -40.35 6.75 -39.8 6.65 -39.5 6.25 L-39.2 5.8 Q-39.0 5.45 -39.3 5.25 L-39.85 4.9 M-38.35 9.55 L-38.9 10.4 Q-39.25 11.15 -38.8 11.9 -38.4 12.75 -37.5 12.85 -36.1 13.1 -34.85 12.55 -33.85 12.1 -33.15 11.25 L-32.9 10.85 Q-32.55 10.3 -32.9 9.8 -33.55 9.1 -34.65 8.95 -35.8 8.8 -37.05 8.95 L-38.05 9.15 -38.35 9.55 M-31.7 15.5 L-30.45 16.2 -30.3 16.35 Q-28.45 17.45 -26.1 17.05 L-24.8 16.65 -22.2 14.75 -21.85 14.35 -21.65 13.85 Q-23.8 14.8 -25.65 13.2 -25.95 12.85 -26.35 12.8 L-27.15 13.0 -29.35 14.7 Q-30.4 15.55 -31.7 15.5 M-17.9 34.3 L-18.05 34.15 -18.1 34.15 -18.05 34.05 -18.0 34.1 -17.9 34.3 M-19.25 37.65 L-18.65 37.6 -19.15 37.8 -19.75 37.95 -19.25 37.65" fill="#e0cbcb" fill-rule="evenodd" stroke="none"/>
    <path d="M-20.3 -25.85 Q-20.3 -27.05 -17.65 -27.2 -15.9 -27.25 -14.9 -26.45 -13.95 -27.4 -11.1 -27.3 -10.65 -28.8 -7.0 -29.1 L-5.15 -29.1 Q-4.75 -29.45 -3.75 -29.65 L-0.3 -29.55 Q2.1 -31.1 5.15 -29.9 L5.8 -29.6 6.6 -30.3 Q7.85 -31.1 9.35 -31.1 L9.85 -31.05 9.85 -31.1 Q9.85 -33.5 14.35 -32.4 L16.4 -31.7 Q17.65 -33.1 20.55 -32.45 L20.55 -32.65 Q20.55 -33.8 22.0 -35.25 23.4 -36.6 25.35 -37.0 25.4 -38.7 27.8 -39.9 L28.5 -40.2 31.15 -40.35 31.1 -40.6 Q31.1 -42.8 35.35 -42.35 L37.55 -41.9 Q39.35 -41.35 39.8 -40.05 L41.6 -40.25 Q43.95 -39.85 45.2 -38.2 46.05 -37.15 46.15 -36.15 L46.15 -36.45 Q49.3 -36.4 50.95 -34.35 52.15 -32.85 52.15 -31.1 L51.95 -29.35 51.9 -29.25 51.45 -28.25 51.2 -27.9 51.5 -28.3 52.65 -27.6 53.05 -27.1 Q53.45 -26.5 53.45 -25.75 L53.2 -23.5 53.0 -22.2 53.75 -21.3 54.2 -19.9 54.35 -17.6 Q54.35 -15.15 54.0 -13.85 L53.45 -12.45 Q55.4 -11.65 55.4 -8.05 L55.05 -5.5 Q56.1 -5.35 56.85 -4.15 57.75 -2.8 57.75 -1.45 57.75 -0.1 57.1 1.15 L56.6 1.95 Q57.3 2.65 57.3 4.6 57.3 6.35 55.15 8.1 53.5 9.45 51.1 10.05 L51.1 10.6 Q51.1 12.2 50.15 13.25 48.65 14.8 45.2 14.8 L44.25 14.7 44.25 15.3 Q44.25 16.5 42.3 18.1 40.0 19.95 37.15 19.95 L36.85 19.95 36.85 20.35 Q36.85 21.7 34.65 23.45 32.8 24.9 31.05 25.2 L31.2 26.9 Q31.2 28.0 29.6 29.85 27.55 32.15 24.85 32.15 23.6 32.15 22.85 31.45 L22.15 30.65 21.9 31.05 Q20.5 32.7 18.05 32.7 L16.3 32.4 Q16.15 33.8 14.8 35.45 12.5 38.1 8.4 38.1 6.2 38.1 4.85 36.2 L4.8 36.0 4.75 36.15 4.5 36.4 Q3.7 37.6 2.5 38.15 L2.5 38.95 Q2.5 40.4 1.45 41.55 -0.1 43.25 -3.45 43.25 -6.5 43.25 -8.25 42.1 L-9.25 41.25 Q-10.4 42.35 -12.35 42.65 -12.7 44.0 -13.95 45.1 -15.95 46.85 -19.2 46.85 -20.95 46.85 -22.85 45.7 L-24.3 44.55 -24.8 45.1 Q-27.2 47.55 -31.85 47.55 -35.2 47.55 -36.75 45.5 L-36.95 45.0 -37.0 45.0 Q-38.05 45.65 -40.7 45.9 -43.35 46.05 -47.0 44.35 L-48.25 43.7 -48.25 43.1 -48.6 42.85 Q-49.3 43.8 -51.15 45.1 -54.25 47.15 -56.45 47.3 -59.5 47.5 -61.95 46.3 -64.1 45.25 -64.2 44.25 -64.75 45.3 -65.85 46.1 -67.1 46.85 -68.35 46.95 -74.75 47.35 -76.6 44.25 -77.5 42.6 -77.4 40.1 -82.25 40.25 -83.15 38.95 -83.65 38.2 -83.5 36.7 L-84.9 37.15 -88.0 37.95 -89.7 38.2 Q-91.7 38.35 -92.6 36.8 -93.3 35.55 -93.05 34.5 -96.95 32.65 -97.6 30.7 -97.9 30.0 -97.4 26.75 L-98.8 24.05 Q-100.25 21.2 -99.95 19.35 -99.75 18.05 -98.6 15.95 L-96.8 12.7 Q-95.9 11.05 -95.4 9.3 L-94.65 6.65 -93.45 3.5 Q-92.5 1.55 -90.7 0.85 L-90.55 0.8 Q-88.85 0.15 -88.0 -0.6 L-87.2 -1.4 -85.95 -3.5 -86.6 -3.5 -86.15 -4.25 Q-84.1 -7.2 -77.4 -9.55 -70.0 -12.15 -66.15 -9.8 -63.65 -8.15 -59.25 -3.95 L-58.75 -3.5 -58.3 -3.5 -54.2 0.0 -52.75 1.2 -52.9 1.7 -53.05 1.95 -53.65 2.1 Q-54.05 2.1 -54.75 1.7 -56.6 0.55 -60.8 -3.1 L-61.3 -3.5 -61.9 -3.5 Q-67.85 -9.0 -71.0 -9.0 -74.8 -9.0 -78.85 -7.2 -82.6 -5.55 -84.15 -3.5 L-83.45 -3.5 -83.75 -3.1 Q-85.9 -0.7 -86.3 0.45 L-86.55 0.85 -88.0 1.7 -88.55 1.9 Q-90.45 2.4 -91.2 3.4 -92.35 4.7 -92.6 7.2 -92.95 10.2 -93.35 11.15 L-96.05 14.9 Q-98.6 18.4 -98.85 19.9 -99.1 21.4 -97.55 22.95 -96.0 24.4 -96.5 27.45 -97.0 30.45 -95.1 31.6 -93.15 32.6 -92.25 33.5 -91.5 34.25 -91.25 35.1 -91.05 36.45 -89.65 36.35 L-88.0 36.0 -85.5 35.4 -84.9 35.25 -82.4 34.6 -81.55 34.75 Q-80.95 36.25 -81.9 37.5 L-76.7 37.7 Q-76.05 37.65 -75.45 41.5 -74.8 45.35 -71.35 45.2 -67.15 44.9 -65.5 43.05 -63.9 41.15 -63.4 41.15 L-62.1 43.3 Q-60.9 45.4 -57.8 45.25 -54.35 45.0 -51.45 42.9 L-50.05 41.5 Q-50.65 40.55 -50.5 39.6 L-52.85 39.95 Q-54.95 40.0 -56.15 38.95 -56.55 39.65 -57.9 40.45 L-58.55 39.55 -58.95 39.15 -56.9 38.05 -57.15 37.65 Q-58.0 36.15 -57.95 34.7 -57.95 32.9 -57.55 31.9 -57.3 30.8 -56.65 30.5 L-55.9 30.25 -54.95 30.5 Q-56.35 31.05 -56.75 31.5 L-56.95 31.95 -56.95 33.6 -56.85 34.4 -56.6 35.45 Q-55.85 38.75 -52.85 38.65 L-52.15 38.6 Q-50.45 38.3 -48.35 37.1 L-48.25 37.0 -48.25 38.35 -46.6 37.35 -46.45 37.25 -46.1 37.25 -46.0 37.35 -45.95 37.55 Q-45.95 38.5 -47.75 39.5 L-47.8 39.55 -48.1 39.65 -48.25 39.75 -48.25 38.55 -50.05 39.4 -48.25 40.9 -48.25 41.8 -47.6 42.35 Q-44.95 44.5 -40.05 44.5 L-37.55 44.15 Q-37.2 43.8 -36.9 43.75 L-36.75 43.35 Q-37.8 43.0 -38.6 42.2 L-39.3 41.5 -40.5 39.45 -40.3 39.2 -40.15 39.2 -38.5 41.05 Q-37.1 42.35 -35.95 42.4 L-35.85 42.4 -34.1 42.2 -32.8 41.75 -31.4 41.0 -30.9 40.7 -30.65 40.8 -30.6 41.1 -32.35 42.35 Q-34.35 43.5 -35.4 43.5 L-36.55 43.4 -36.45 43.75 -36.25 43.75 -36.2 44.0 -36.25 44.35 -36.2 44.55 Q-34.9 45.95 -30.45 45.95 -29.05 45.95 -26.95 44.8 -25.0 43.65 -24.55 42.75 L-23.7 40.8 -23.65 40.65 Q-23.25 39.8 -23.15 40.65 L-23.1 41.5 Q-23.1 42.65 -23.7 43.7 L-22.45 44.4 Q-20.7 45.35 -18.15 45.35 -15.45 45.35 -14.25 43.4 L-13.9 42.7 Q-15.4 42.65 -16.1 42.05 -16.65 41.6 -16.65 41.05 L-16.4 40.55 -16.0 40.15 Q-14.95 41.2 -13.55 41.2 L-13.05 41.2 -12.8 40.85 -12.4 41.15 Q-10.5 40.8 -9.55 39.5 L-8.15 37.55 Q-8.0 37.75 -8.0 38.2 L-8.1 39.4 -8.15 40.3 Q-7.5 41.95 -3.55 41.95 0.65 41.95 1.55 39.8 L1.7 38.45 0.15 38.6 -0.65 38.5 -0.75 38.0 -0.65 37.5 Q3.25 36.8 4.2 34.75 L3.95 34.2 4.1 32.9 4.15 32.75 4.5 32.65 Q4.7 31.3 5.05 30.7 5.55 32.0 5.55 33.25 L5.4 34.6 Q6.35 36.5 8.65 36.5 13.35 36.5 14.7 34.05 L15.55 32.1 14.55 31.65 Q12.35 30.55 12.1 29.85 12.25 29.35 12.7 29.35 L14.85 30.3 18.05 31.15 Q21.2 31.15 21.65 28.95 L21.55 26.5 21.6 26.1 21.95 26.1 Q22.95 27.95 22.95 28.3 L22.8 29.55 23.4 30.1 Q24.05 30.8 24.85 30.8 28.35 30.8 29.6 27.45 L30.0 25.3 29.95 25.3 Q27.5 25.3 26.7 24.75 26.15 24.0 25.6 23.6 L25.6 23.55 25.95 23.45 Q26.25 23.45 26.65 23.8 L29.5 24.1 30.15 24.1 30.15 24.0 30.2 23.9 30.45 24.05 Q32.3 23.8 33.95 22.35 35.7 20.85 35.7 19.9 L35.6 19.55 35.3 19.05 Q35.3 18.8 35.45 18.65 L35.25 17.95 34.9 16.75 Q33.65 17.7 31.15 18.5 L31.05 18.3 Q34.45 16.1 34.95 14.95 L35.0 12.2 35.3 11.2 Q35.55 10.5 35.75 10.3 L35.7 11.15 Q35.7 11.7 36.2 13.45 36.2 15.25 35.5 16.1 L35.5 16.15 36.3 18.0 36.5 18.6 38.2 18.8 Q40.75 18.8 42.2 16.75 43.2 15.35 43.2 14.45 L42.75 12.25 42.85 12.1 Q43.8 12.95 44.05 13.75 L44.1 13.85 46.0 13.65 Q48.85 13.5 49.8 11.85 L50.05 10.2 47.55 10.4 46.3 10.05 44.9 9.6 44.9 9.2 44.4 9.8 Q42.85 11.5 40.65 11.5 L39.45 11.2 41.3 10.15 43.3 9.1 44.05 7.9 44.45 6.7 Q44.45 5.95 43.85 4.95 43.05 3.65 42.0 3.75 45.6 2.9 45.6 7.4 45.6 8.15 45.0 9.1 L47.6 9.25 50.4 9.05 50.75 8.8 50.85 9.0 Q53.4 8.4 54.8 6.85 56.2 5.3 56.2 3.45 L55.85 2.6 Q54.8 3.35 53.2 3.35 52.45 3.35 51.95 2.9 52.35 2.45 53.9 1.85 L55.8 0.9 56.6 -0.3 56.6 -1.5 Q56.6 -2.55 55.4 -3.8 L54.65 -4.6 Q54.05 -3.45 53.0 -3.4 L53.0 -3.35 Q53.0 -2.45 52.55 -1.85 52.0 -1.1 50.5 -0.3 L50.25 -0.3 Q50.15 -0.3 50.15 -0.65 50.15 -1.15 51.0 -2.0 51.85 -2.8 51.85 -3.3 51.85 -4.0 51.25 -5.1 50.4 -6.45 49.3 -6.6 L49.15 -6.95 Q50.6 -7.6 51.9 -5.95 L52.7 -4.5 53.35 -5.35 Q54.3 -6.6 54.3 -7.25 54.3 -9.2 53.95 -10.25 L53.95 -10.3 53.9 -10.4 53.8 -10.25 52.9 -11.3 52.8 -11.4 51.55 -10.1 51.2 -10.15 51.0 -10.6 52.1 -13.3 52.15 -13.4 53.1 -16.45 53.2 -17.8 Q53.2 -19.85 53.0 -20.35 L52.55 -21.1 52.4 -20.95 52.05 -21.05 Q52.0 -19.4 50.15 -18.3 L50.05 -18.2 Q49.95 -18.2 49.95 -18.5 49.95 -18.85 50.5 -19.7 51.05 -20.5 51.05 -21.0 L50.6 -22.5 50.6 -22.55 50.15 -23.2 50.0 -23.3 49.6 -23.8 Q47.85 -25.75 45.65 -25.05 L45.0 -24.75 44.85 -24.75 44.85 -25.15 Q44.9 -27.1 48.45 -25.3 50.0 -24.55 50.9 -23.6 L51.55 -22.9 52.35 -22.6 52.55 -24.3 52.5 -25.4 52.3 -26.35 Q51.85 -27.25 50.9 -27.8 L50.7 -27.8 Q50.55 -27.8 50.55 -27.95 L49.6 -28.3 50.7 -28.4 50.95 -29.45 51.1 -30.05 51.35 -31.1 Q51.35 -34.95 46.15 -36.15 L46.15 -36.1 46.15 -35.85 46.1 -34.95 45.55 -33.95 Q45.2 -34.35 45.2 -35.8 45.2 -37.25 44.15 -38.0 42.65 -39.05 38.2 -39.05 L37.65 -39.1 38.65 -39.9 38.95 -39.9 39.15 -39.75 39.0 -39.9 38.35 -40.6 Q37.45 -41.4 36.5 -41.55 L36.0 -41.65 Q33.85 -41.65 32.45 -40.85 L31.65 -40.25 32.85 -39.75 33.85 -39.2 33.65 -38.95 33.1 -39.5 32.55 -39.6 31.0 -39.7 30.65 -39.7 Q28.55 -39.7 26.95 -38.25 L25.95 -37.05 26.75 -37.1 Q28.85 -37.1 29.35 -35.4 29.0 -35.4 28.5 -35.85 L26.3 -36.2 Q23.4 -36.2 22.1 -34.15 21.5 -33.15 21.5 -32.25 25.05 -31.25 25.05 -29.6 L25.05 -29.1 Q25.0 -28.85 24.55 -28.85 24.25 -29.55 23.35 -30.2 L21.35 -31.2 21.25 -31.1 21.05 -31.25 18.0 -31.65 17.05 -31.35 Q18.75 -30.4 18.75 -28.95 L18.6 -28.1 18.25 -27.95 Q15.85 -32.1 12.95 -32.1 11.7 -32.1 11.1 -31.6 L10.5 -31.0 Q12.5 -30.65 13.6 -28.85 14.45 -27.5 14.45 -26.45 L14.3 -25.45 13.85 -25.2 Q13.7 -25.5 13.7 -26.25 13.7 -27.45 13.05 -28.5 11.95 -30.45 9.0 -30.45 7.65 -30.45 6.75 -29.65 L6.35 -29.35 Q8.5 -28.1 8.5 -26.35 L8.4 -25.35 7.7 -24.55 Q7.5 -24.9 7.5 -25.8 7.5 -27.05 6.05 -28.15 4.4 -29.5 1.65 -29.5 L0.5 -29.35 Q5.35 -28.0 5.35 -23.45 L5.3 -21.85 Q5.0 -20.6 4.2 -20.35 L4.35 -23.25 Q4.35 -24.3 3.25 -26.25 1.7 -28.95 -0.6 -29.0 L-1.2 -28.85 -1.0 -29.0 -3.55 -28.55 Q-2.85 -28.05 -2.85 -27.05 L-2.9 -26.8 -2.9 -26.65 Q-3.15 -26.55 -3.85 -27.4 -4.2 -27.8 -5.0 -28.0 L-5.05 -28.0 -5.2 -28.05 -7.65 -28.3 Q-8.65 -28.3 -10.1 -27.3 -5.25 -26.9 -5.25 -24.5 L-5.4 -23.65 -5.5 -23.5 Q-5.85 -24.5 -7.5 -25.45 -9.1 -26.5 -10.5 -26.5 -13.05 -26.5 -14.25 -25.65 L-14.15 -25.5 -14.4 -25.45 -15.0 -24.7 Q-15.35 -24.9 -15.35 -25.35 L-15.3 -25.7 -15.6 -25.95 Q-16.15 -26.45 -17.55 -26.45 L-19.2 -26.15 -19.3 -26.1 -20.2 -25.65 -20.25 -25.6 -20.3 -25.85 M-40.25 -23.3 L-40.7 -23.2 -40.75 -23.15 -40.8 -23.35 Q-40.8 -24.2 -38.75 -24.4 L-36.35 -24.5 -35.9 -24.35 Q-35.35 -26.2 -32.15 -25.8 L-31.05 -25.65 -29.4 -26.45 -24.0 -26.8 Q-22.85 -26.65 -20.75 -25.5 L-20.4 -25.35 -19.65 -24.9 -19.05 -24.55 -18.05 -23.65 -18.05 -23.5 -18.05 -23.3 -18.35 -23.2 -20.6 -24.65 Q-23.0 -26.15 -26.4 -26.15 -27.75 -26.15 -29.5 -25.45 L-29.95 -25.3 Q-28.0 -24.55 -27.65 -22.65 L-27.75 -22.4 -29.35 -23.8 -30.3 -24.65 -30.55 -24.85 -31.55 -25.2 -31.85 -25.15 -32.1 -25.15 Q-34.15 -25.15 -35.0 -24.2 L-35.15 -24.1 -35.05 -24.05 -34.1 -23.45 Q-33.0 -22.55 -33.2 -21.85 L-33.2 -21.7 -35.25 -23.1 -35.4 -23.2 Q-35.55 -23.45 -36.0 -23.45 L-37.95 -23.8 -39.35 -23.55 -39.8 -23.45 -40.2 -23.3 -40.25 -23.3 M33.45 -35.65 Q35.0 -36.3 36.8 -35.1 L38.9 -33.2 39.3 -31.9 Q39.5 -31.75 39.05 -31.75 L38.25 -33.2 38.1 -33.4 Q37.55 -34.35 36.0 -34.75 L33.35 -35.05 33.2 -35.05 32.0 -34.75 32.75 -35.35 33.45 -35.65 M16.6 -25.15 Q17.65 -27.2 20.35 -25.7 22.95 -24.25 23.1 -22.55 L22.8 -22.35 22.05 -24.05 Q21.35 -25.3 19.15 -25.3 L17.7 -25.05 16.75 -24.8 16.6 -25.15 M2.2 -16.25 L1.45 -15.05 Q1.15 -15.65 1.55 -16.35 1.55 -18.35 1.0 -19.2 -0.15 -20.9 -4.1 -21.35 L-4.65 -20.8 Q-4.6 -20.6 -4.7 -20.5 L-4.9 -20.4 -5.05 -21.3 Q-5.05 -23.05 -1.4 -21.5 2.25 -19.95 2.25 -17.35 L2.2 -16.25 M38.6 -5.65 L40.65 -8.05 Q41.7 -9.3 41.7 -10.35 41.7 -11.0 41.15 -11.35 40.2 -12.0 39.5 -13.1 42.5 -14.25 42.5 -10.4 L42.45 -9.75 Q42.25 -8.7 41.4 -7.6 40.5 -6.4 39.3 -5.9 L38.6 -5.65 M41.65 -33.6 L41.3 -33.6 41.25 -33.45 41.2 -33.8 Q41.2 -35.55 44.0 -34.4 46.2 -33.5 46.7 -32.1 L46.8 -31.25 46.6 -30.75 46.4 -30.55 45.5 -32.4 45.4 -32.6 Q44.45 -33.85 41.8 -33.65 L41.65 -33.6 M42.1 -25.6 L41.7 -24.6 41.25 -23.7 40.95 -23.7 Q40.8 -24.2 41.2 -25.5 41.2 -28.35 37.05 -29.15 39.75 -29.6 41.15 -28.05 42.1 -26.95 42.1 -25.6 M32.9 3.0 L32.9 3.15 Q32.85 4.65 32.1 5.4 30.95 6.55 27.3 7.6 27.0 7.95 27.0 7.4 27.0 7.25 28.5 6.75 L30.6 5.9 31.4 5.2 32.05 4.25 32.2 3.65 32.2 2.55 Q32.2 1.45 32.65 1.15 L32.9 3.0 M23.55 22.35 Q21.85 24.15 18.65 24.2 L18.0 23.6 20.35 22.9 Q22.9 21.9 23.5 20.4 24.2 18.45 23.5 16.95 24.85 17.1 24.85 19.35 24.85 20.9 23.55 22.35 M9.7 2.6 Q9.7 1.95 9.05 0.85 10.35 -0.45 10.6 2.8 10.6 4.25 10.1 5.85 9.3 8.4 7.8 8.4 7.3 8.4 7.1 8.1 L8.95 5.05 Q9.7 3.6 9.7 2.6 M4.2 22.5 L4.05 22.3 4.9 22.35 5.3 22.75 5.45 23.0 Q5.9 23.9 5.9 25.8 5.9 27.9 5.3 29.35 3.95 32.15 0.05 32.15 L-0.5 32.1 Q-1.05 31.9 -1.6 31.4 L-2.5 30.25 -2.45 30.15 -2.05 30.05 -0.9 30.35 0.2 30.6 Q3.2 30.6 4.25 28.75 4.8 27.7 4.8 25.65 4.8 24.0 4.45 23.05 L4.2 22.5 M13.25 23.5 L12.2 24.75 Q11.35 25.4 10.25 25.4 L9.65 25.2 9.85 25.0 12.1 22.8 Q13.55 21.25 13.1 20.4 L13.45 20.35 14.05 21.0 Q14.05 22.1 13.25 23.5 M-12.45 -20.75 Q-13.35 -21.4 -15.05 -21.4 L-17.35 -21.1 Q-18.4 -20.85 -18.7 -20.5 L-18.85 -20.9 Q-18.85 -22.05 -14.85 -21.95 -10.85 -21.9 -10.85 -19.9 -11.4 -20.0 -12.45 -20.75 M-15.7 -7.5 L-15.9 -6.6 -17.2 -8.95 Q-18.1 -10.5 -20.2 -10.8 -18.45 -12.95 -15.7 -7.5 M-18.0 20.9 Q-17.85 20.9 -17.85 21.25 -17.85 21.8 -19.05 22.85 -20.25 23.95 -21.1 23.95 -22.95 23.95 -23.55 22.8 L-22.6 22.6 -21.2 22.8 Q-20.0 22.8 -19.15 21.9 -18.3 21.0 -18.1 21.0 L-18.0 20.9 M-28.9 36.45 L-29.65 36.9 Q-31.25 37.8 -32.85 37.8 -35.35 37.8 -37.0 35.9 -37.85 35.05 -38.15 34.05 L-37.9 33.45 -36.25 35.15 Q-34.75 36.55 -32.85 36.55 -31.05 36.55 -30.05 35.8 L-29.85 35.65 -28.4 34.65 Q-28.05 34.75 -28.05 35.15 -28.05 35.8 -28.9 36.45 M-18.05 34.05 L-18.2 33.9 -17.85 33.8 Q-17.2 33.5 -15.65 33.15 L-14.6 32.95 Q-12.4 32.55 -11.35 31.3 -11.1 30.95 -10.95 29.15 -10.85 28.15 -9.6 28.85 L-10.95 32.05 Q-12.4 34.3 -15.65 34.55 L-16.4 34.55 -17.9 34.3 -18.0 34.1 -18.05 34.05" fill="#a36a6a" fill-rule="evenodd" stroke="none"/>
    <path d="M53.1 -16.45 L52.15 -13.4 52.1 -13.3 51.0 -10.6 51.2 -10.15 51.55 -10.1 52.8 -11.4 52.9 -11.3 53.8 -10.25 53.95 -10.25 Q54.3 -9.2 54.3 -7.25 54.3 -6.6 53.35 -5.35 L52.7 -4.5 51.9 -5.95 Q50.6 -7.6 49.15 -6.95 L49.3 -6.6 Q50.4 -6.45 51.25 -5.1 51.85 -4.0 51.85 -3.3 51.85 -2.8 51.0 -2.0 50.15 -1.15 50.15 -0.65 50.15 -0.3 50.25 -0.3 L50.5 -0.3 Q52.0 -1.1 52.55 -1.85 53.0 -2.45 53.0 -3.35 L53.0 -3.4 Q54.05 -3.45 54.65 -4.6 L55.4 -3.8 Q56.6 -2.55 56.6 -1.5 L56.6 -0.3 55.8 0.9 53.9 1.85 Q52.35 2.45 51.95 2.9 52.45 3.35 53.2 3.35 54.8 3.35 55.85 2.6 L56.2 3.45 Q56.2 5.3 54.8 6.85 53.4 8.4 50.85 9.0 L50.75 8.8 50.4 9.05 47.6 9.25 45.0 9.1 Q45.6 8.15 45.6 7.4 45.6 2.9 42.0 3.75 43.05 3.65 43.85 4.95 44.45 5.95 44.45 6.7 L44.05 7.9 43.3 9.1 41.3 10.15 39.45 11.2 40.65 11.5 Q42.85 11.5 44.4 9.8 L44.9 9.2 44.9 9.6 46.3 10.05 47.55 10.4 50.05 10.2 49.8 11.85 Q48.85 13.5 46.0 13.65 L44.1 13.85 44.05 13.75 Q43.8 12.95 42.85 12.1 L42.75 12.25 43.2 14.45 Q43.2 15.35 42.2 16.75 40.75 18.8 38.2 18.8 L36.5 18.6 36.3 18.0 35.5 16.15 35.5 16.1 Q36.2 15.25 36.2 13.45 35.7 11.7 35.7 11.15 L35.75 10.3 Q35.55 10.5 35.3 11.2 L35.0 12.2 34.95 14.95 Q34.45 16.1 31.05 18.3 L31.15 18.5 Q33.65 17.7 34.9 16.75 L35.25 17.95 35.45 18.65 Q35.3 18.8 35.3 19.05 L35.6 19.55 35.7 19.9 Q35.7 20.85 33.95 22.35 32.3 23.8 30.45 24.05 L30.2 23.9 30.15 24.0 30.15 24.1 29.5 24.1 26.65 23.8 Q26.25 23.45 25.95 23.45 L25.6 23.55 25.6 23.6 Q26.15 24.0 26.7 24.75 27.5 25.3 29.95 25.3 L30.0 25.3 29.6 27.45 Q28.35 30.8 24.85 30.8 24.05 30.8 23.4 30.1 L22.8 29.55 22.95 28.3 Q22.95 27.95 21.95 26.1 L21.6 26.1 21.55 26.5 21.65 28.95 Q21.2 31.15 18.05 31.15 L14.85 30.3 12.7 29.35 Q12.25 29.35 12.1 29.85 12.35 30.55 14.55 31.65 L15.55 32.1 14.7 34.05 Q13.35 36.5 8.65 36.5 6.35 36.5 5.4 34.6 L5.55 33.25 Q5.55 32.0 5.05 30.7 4.7 31.3 4.5 32.65 L4.15 32.75 4.1 32.9 3.95 34.2 4.2 34.75 Q3.25 36.8 -0.65 37.5 L-0.75 38.0 -0.65 38.5 0.15 38.6 1.7 38.45 1.55 39.8 Q0.65 41.95 -3.55 41.95 -7.5 41.95 -8.15 40.3 L-8.1 39.4 -8.0 38.2 Q-8.0 37.75 -8.15 37.55 L-9.55 39.5 Q-10.5 40.8 -12.4 41.15 L-12.8 40.85 -13.05 41.2 -13.55 41.2 Q-14.95 41.2 -16.0 40.15 L-16.4 40.55 -16.65 41.05 Q-16.65 41.6 -16.1 42.05 -15.4 42.65 -13.9 42.7 L-14.25 43.4 Q-15.45 45.35 -18.15 45.35 -20.7 45.35 -22.45 44.4 L-23.7 43.7 Q-23.1 42.65 -23.1 41.5 L-23.15 40.65 Q-23.25 39.8 -23.65 40.65 L-23.7 40.8 -24.55 42.75 Q-25.0 43.65 -26.95 44.8 -29.05 45.95 -30.45 45.95 -34.9 45.95 -36.2 44.55 L-36.25 44.35 -36.2 44.0 -36.25 43.75 -36.45 43.75 -36.55 43.4 -35.4 43.5 Q-34.35 43.5 -32.35 42.35 L-30.6 41.1 -30.65 40.8 -30.9 40.7 -31.4 41.0 -32.8 41.75 -34.1 42.2 -35.85 42.4 -35.95 42.4 Q-37.1 42.35 -38.5 41.05 L-40.15 39.2 -40.3 39.2 -40.5 39.45 -39.3 41.5 -38.6 42.2 Q-37.8 43.0 -36.75 43.35 L-36.9 43.75 Q-37.2 43.8 -37.55 44.15 L-40.05 44.5 Q-44.95 44.5 -47.6 42.35 L-48.25 41.8 -48.25 40.9 -50.05 39.4 -48.25 38.55 -48.25 39.75 -48.1 39.65 -47.8 39.55 -47.75 39.5 Q-45.95 38.5 -45.95 37.55 L-46.0 37.35 -46.1 37.25 -46.45 37.25 -46.6 37.35 -48.25 38.35 -48.25 37.0 -48.35 37.1 Q-50.45 38.3 -52.15 38.6 L-52.85 38.65 Q-55.85 38.75 -56.6 35.45 L-56.85 34.4 -56.95 33.6 -56.95 32.85 -56.75 31.5 Q-56.35 31.05 -54.95 30.5 L-55.9 30.25 -56.65 30.5 Q-57.3 30.8 -57.55 31.9 -57.95 32.9 -57.95 34.7 -58.0 36.15 -57.15 37.65 L-56.9 38.05 -58.95 39.15 -58.55 39.55 -57.9 40.45 Q-56.55 39.65 -56.15 38.95 -54.95 40.0 -52.85 39.95 L-50.5 39.6 Q-50.65 40.55 -50.05 41.5 L-51.45 42.9 Q-54.35 45.0 -57.8 45.25 -60.9 45.4 -62.1 43.3 L-63.4 41.15 Q-63.9 41.15 -65.5 43.05 -67.15 44.9 -71.35 45.2 -74.8 45.35 -75.45 41.5 -76.05 37.65 -76.7 37.7 L-81.9 37.5 Q-80.95 36.25 -81.55 34.75 L-82.4 34.6 -84.9 35.25 -85.5 35.4 -88.0 36.0 -89.65 36.35 Q-91.05 36.45 -91.25 35.1 -91.5 34.25 -92.25 33.5 -93.15 32.6 -95.1 31.6 -97.0 30.45 -96.5 27.45 -96.0 24.4 -97.55 22.95 -99.1 21.4 -98.85 19.9 -98.6 18.4 -96.05 14.9 L-93.35 11.15 Q-92.95 10.2 -92.6 7.2 -92.35 4.7 -91.2 3.4 -90.45 2.4 -88.55 1.9 L-88.0 1.7 -86.55 0.85 -86.3 0.45 Q-85.9 -0.7 -83.75 -3.1 L-83.45 -3.5 -84.15 -3.5 Q-82.6 -5.55 -78.85 -7.2 -74.8 -9.0 -71.0 -9.0 -67.85 -9.0 -61.9 -3.5 L-61.3 -3.5 -60.8 -3.1 Q-56.6 0.55 -54.75 1.7 L-56.05 5.75 Q-55.75 6.55 -55.75 7.25 L-55.75 7.4 -55.1 7.4 -54.9 7.45 Q-54.45 8.4 -54.25 9.6 L-53.8 11.2 Q-52.15 14.75 -48.25 16.45 L-48.25 18.6 -47.9 18.75 Q-45.4 19.85 -42.75 19.15 L-41.95 18.9 -40.6 18.15 Q-40.2 17.9 -40.15 18.25 L-39.95 19.25 -39.65 20.05 -38.9 20.8 Q-35.9 22.45 -33.15 20.4 L-31.95 19.45 -31.55 19.35 -31.3 19.45 -29.4 21.95 -27.55 23.7 Q-26.6 24.6 -25.35 25.0 L-22.9 25.5 Q-19.65 25.75 -17.7 23.2 L-17.25 22.25 Q-17.1 21.55 -16.65 21.5 L-16.5 21.7 -15.9 21.9 -14.3 22.3 Q-13.45 22.75 -12.45 22.05 L-11.4 21.35 Q-10.8 21.0 -10.65 20.3 L-10.05 18.7 -8.9 20.35 Q-6.65 22.5 -3.2 22.0 L-1.5 21.55 -1.0 21.3 -0.4 20.75 Q1.15 18.85 2.35 16.65 L3.05 17.2 4.45 18.0 5.55 18.35 6.4 18.6 Q8.15 18.05 9.95 17.2 L11.35 16.45 11.55 16.35 11.9 17.25 Q12.3 18.75 13.7 19.75 L13.85 19.85 Q14.4 20.2 14.95 19.6 L16.2 19.25 17.5 18.9 17.5 18.5 Q17.5 17.75 17.85 17.65 L18.7 18.0 19.8 17.9 20.9 17.3 Q21.45 16.95 21.35 16.3 21.25 15.65 22.05 15.85 L22.4 15.95 Q24.0 16.6 25.7 15.9 29.35 14.3 29.15 10.25 L29.0 8.85 Q28.95 8.3 29.3 8.2 L34.5 8.4 Q35.15 8.3 35.4 7.85 36.75 5.9 36.1 3.8 39.15 4.25 41.3 2.15 L42.1 0.9 Q42.7 -0.8 42.15 -2.6 43.25 -1.5 44.8 -1.7 45.5 -1.75 46.1 -2.15 46.6 -2.35 46.7 -2.85 47.05 -4.2 46.15 -5.4 47.65 -5.4 48.15 -7.0 48.9 -9.6 47.6 -11.7 L47.55 -11.65 46.6 -9.9 45.35 -8.45 Q44.65 -7.8 43.95 -7.6 43.55 -7.65 44.05 -8.1 L44.7 -9.1 45.2 -10.35 45.6 -11.3 46.65 -14.85 46.85 -15.75 47.05 -15.8 Q48.4 -13.95 47.7 -11.95 L47.75 -11.95 48.4 -12.1 48.8 -12.3 49.5 -12.75 Q52.05 -14.1 53.1 -16.45 M39.05 -3.7 L39.15 -3.6 39.05 -2.2 38.7 -0.75 Q38.0 1.75 35.5 2.2 L34.45 2.1 Q33.95 1.9 33.6 1.4 33.15 0.8 33.15 0.25 L35.5 -1.05 37.85 -2.7 39.05 -3.7 M47.7 -11.95 L47.35 -12.0 47.5 -11.9 47.6 -11.7 47.7 -11.95 M20.55 10.65 L20.75 11.5 Q20.95 12.9 19.7 13.65 L18.05 14.0 16.6 13.95 14.25 13.85 15.2 13.4 Q18.1 11.95 20.4 9.9 L20.55 10.65 M23.55 22.35 Q24.85 20.9 24.85 19.35 24.85 17.1 23.5 16.95 24.2 18.45 23.5 20.4 22.9 21.9 20.35 22.9 L18.0 23.6 18.65 24.2 Q21.85 24.15 23.55 22.35 M5.55 13.95 Q4.2 13.5 3.2 12.4 3.55 12.65 4.2 12.4 L5.55 11.95 Q8.55 10.85 11.25 9.25 L9.45 13.1 Q8.8 14.25 7.85 14.35 L7.05 14.3 5.55 13.95 M13.25 23.5 Q14.05 22.1 14.05 21.0 L13.45 20.35 13.1 20.4 Q13.55 21.25 12.1 22.8 L9.85 25.0 9.65 25.2 10.25 25.4 Q11.35 25.4 12.2 24.75 L13.25 23.5 M4.2 22.5 L4.45 23.05 Q4.8 24.0 4.8 25.65 4.8 27.7 4.25 28.75 3.2 30.6 0.2 30.6 L-0.9 30.35 -2.05 30.05 -2.45 30.15 -2.5 30.25 -1.6 31.4 Q-1.05 31.9 -0.5 32.1 L0.05 32.15 Q3.95 32.15 5.3 29.35 5.9 27.9 5.9 25.8 5.9 23.9 5.45 23.0 L5.3 22.75 4.9 22.35 4.05 22.3 4.2 22.5 M-11.45 15.8 L-8.4 15.35 -7.4 14.95 Q-6.5 14.55 -5.6 14.3 L-5.9 14.8 -7.35 16.35 -9.05 17.1 -11.05 17.45 Q-11.3 17.5 -11.55 17.2 L-11.7 16.65 -11.95 15.7 -11.45 15.8 M-31.7 15.5 Q-30.4 15.55 -29.35 14.7 L-27.15 13.0 -26.35 12.8 Q-25.95 12.85 -25.65 13.2 -23.8 14.8 -21.65 13.85 L-21.85 14.35 -22.2 14.75 -24.8 16.65 -26.1 17.05 Q-28.45 17.45 -30.3 16.35 L-30.45 16.2 -31.7 15.5 M-17.9 34.3 L-16.4 34.55 -15.65 34.55 Q-12.4 34.3 -10.95 32.05 L-9.6 28.85 Q-10.85 28.15 -10.95 29.15 -11.1 30.95 -11.35 31.3 -12.4 32.55 -14.6 32.95 L-15.65 33.15 Q-17.2 33.5 -17.85 33.8 L-18.2 33.9 -18.05 34.05 -18.1 34.15 -18.05 34.15 -17.9 34.3 M-28.9 36.45 Q-28.05 35.8 -28.05 35.15 -28.05 34.75 -28.4 34.65 L-29.85 35.65 -30.05 35.8 Q-31.05 36.55 -32.85 36.55 -34.75 36.55 -36.25 35.15 L-37.9 33.45 -38.15 34.05 Q-37.85 35.05 -37.0 35.9 -35.35 37.8 -32.85 37.8 -31.25 37.8 -29.65 36.9 L-28.9 36.45 M-19.25 37.65 L-19.75 37.95 -19.15 37.8 -18.65 37.6 -19.25 37.65" fill="#cca9a9" fill-rule="evenodd" stroke="none"/>
    <path d="M33.75 -40.7 Q34.35 -41.2 34.95 -41.15 L35.35 -41.1 35.5 -41.1 36.05 -40.95 36.95 -40.35 Q37.55 -39.55 36.45 -39.15 L34.2 -39.2 Q33.75 -39.35 33.55 -39.75 L33.4 -40.15 33.75 -40.7 M-52.9 -3.1 L-52.8 -3.5 -53.05 -3.5 -53.05 -3.6 Q-48.05 -17.25 -40.25 -23.3 L-40.2 -23.3 -39.8 -23.45 -39.35 -23.55 -37.95 -23.8 -36.0 -23.45 Q-35.55 -23.45 -35.4 -23.2 L-35.25 -23.1 -33.2 -21.7 -33.2 -21.85 Q-33.0 -22.55 -34.1 -23.45 L-35.05 -24.05 -35.0 -24.2 Q-34.15 -25.15 -32.1 -25.15 L-31.85 -25.15 -31.55 -25.2 -30.55 -24.85 -30.3 -24.65 -29.35 -23.8 -27.75 -22.4 -27.65 -22.65 Q-28.0 -24.55 -29.95 -25.3 L-29.5 -25.45 Q-27.75 -26.15 -26.4 -26.15 -23.0 -26.15 -20.6 -24.65 L-18.35 -23.2 -18.05 -23.3 -18.05 -23.5 -18.05 -23.65 -19.05 -24.55 -19.65 -24.9 -20.4 -25.35 -20.3 -25.85 -20.25 -25.6 -20.2 -25.65 -19.3 -26.1 -19.25 -26.0 -19.2 -26.15 -17.55 -26.45 Q-16.15 -26.45 -15.6 -25.95 L-15.3 -25.7 -15.35 -25.35 Q-15.35 -24.9 -15.0 -24.7 L-14.4 -25.45 -14.15 -25.5 -14.25 -25.65 Q-13.05 -26.5 -10.5 -26.5 -9.1 -26.5 -7.5 -25.45 -5.85 -24.5 -5.5 -23.5 L-5.4 -23.65 -5.25 -24.5 Q-5.25 -26.9 -10.1 -27.3 -8.65 -28.3 -7.65 -28.3 L-5.2 -28.05 -5.05 -28.0 -5.0 -28.0 Q-4.2 -27.8 -3.85 -27.4 -3.15 -26.55 -2.9 -26.65 L-2.9 -26.8 -2.85 -27.05 Q-2.85 -28.05 -3.55 -28.55 L-1.0 -29.0 -1.2 -28.85 -0.6 -29.0 Q1.7 -28.95 3.25 -26.25 4.35 -24.3 4.35 -23.25 L4.2 -20.35 Q5.0 -20.6 5.3 -21.85 L5.35 -23.45 Q5.35 -28.0 0.5 -29.35 L1.65 -29.5 Q4.4 -29.5 6.05 -28.15 7.5 -27.05 7.5 -25.8 7.5 -24.9 7.7 -24.55 L8.4 -25.35 8.5 -26.35 Q8.5 -28.1 6.35 -29.35 L6.75 -29.65 Q7.65 -30.45 9.0 -30.45 11.95 -30.45 13.05 -28.5 13.7 -27.45 13.7 -26.25 13.7 -25.5 13.85 -25.2 L14.3 -25.45 14.45 -26.45 Q14.45 -27.5 13.6 -28.85 12.5 -30.65 10.5 -31.0 L11.1 -31.6 Q11.7 -32.1 12.95 -32.1 15.85 -32.1 18.25 -27.95 L18.6 -28.1 18.75 -28.95 Q18.75 -30.4 17.05 -31.35 L18.0 -31.65 21.05 -31.25 21.25 -31.1 21.35 -31.2 23.35 -30.2 Q24.25 -29.55 24.55 -28.85 25.0 -28.85 25.05 -29.1 L25.05 -29.6 Q25.05 -31.25 21.5 -32.25 21.5 -33.15 22.1 -34.15 23.4 -36.2 26.3 -36.2 L28.5 -35.85 Q29.0 -35.4 29.35 -35.4 28.85 -37.1 26.75 -37.1 L25.95 -37.05 26.95 -38.25 Q28.55 -39.7 30.65 -39.7 L31.0 -39.7 31.1 -39.65 31.95 -39.2 Q32.9 -38.5 33.45 -37.25 L33.6 -36.5 33.45 -35.65 32.75 -35.35 32.0 -34.75 33.2 -35.05 33.35 -35.05 36.0 -34.75 36.8 -34.0 37.15 -33.35 37.2 -33.2 Q37.8 -31.75 37.3 -30.3 36.9 -29.25 36.1 -28.65 37.05 -28.1 37.2 -26.95 L37.3 -25.3 37.1 -23.1 Q36.8 -21.3 35.05 -20.55 33.95 -20.0 32.7 -19.85 L31.25 -19.9 31.05 -19.95 31.05 -19.5 Q30.95 -18.25 30.15 -17.35 29.25 -16.25 27.85 -15.75 26.15 -15.1 24.25 -14.85 22.65 -14.6 21.65 -15.75 L20.9 -14.6 Q20.45 -14.05 19.95 -14.0 L19.6 -13.25 18.3 -12.05 Q17.7 -11.65 16.95 -11.5 L15.2 -11.45 14.55 -11.55 14.35 -11.1 Q14.05 -10.3 13.3 -9.95 L11.4 -9.3 Q9.35 -8.95 8.1 -10.45 L8.05 -10.75 Q7.2 -7.65 4.2 -6.4 2.5 -5.65 0.65 -6.35 L-0.3 -6.6 -0.65 -6.75 Q-0.7 -5.2 -1.05 -3.65 L-1.05 -3.5 -0.15 -4.0 Q1.1 -4.55 2.5 -4.35 3.45 -4.15 4.05 -3.35 4.5 -2.7 4.3 -2.0 L4.15 -1.55 Q3.45 0.05 1.7 0.75 L-1.65 1.4 -2.5 1.3 -3.15 0.95 Q-3.55 0.6 -3.55 0.1 -3.45 -0.65 -3.05 -1.05 L-3.25 -1.0 Q-4.3 -0.55 -5.45 -0.4 -9.0 0.0 -11.45 -2.4 -11.9 -0.1 -14.15 0.95 L-16.0 1.6 Q-15.5 1.7 -15.35 2.1 -15.05 2.65 -15.4 3.2 -15.95 4.25 -16.85 4.85 L-17.05 5.05 -18.85 5.4 Q-19.75 5.4 -20.55 4.8 L-20.95 4.05 -20.85 3.55 Q-20.45 2.4 -19.35 1.7 L-20.35 1.5 -20.9 1.15 -21.35 -0.55 -22.0 0.9 -23.1 2.4 Q-24.95 4.35 -27.55 4.7 L-29.85 4.55 -31.4 3.85 -32.65 2.9 Q-32.75 2.75 -33.05 2.75 L-37.6 3.05 -39.15 2.95 -40.7 1.95 -41.65 0.4 -41.75 -0.4 Q-41.85 0.8 -43.25 0.95 L-44.1 0.95 Q-45.4 0.8 -46.45 -0.05 L-48.25 -1.65 -48.25 -1.95 -48.3 -2.0 -49.35 -3.35 -49.4 -3.5 -51.25 -3.0 -52.9 -3.1 M45.0 -24.75 L45.65 -25.05 46.7 -24.7 47.45 -23.85 47.55 -22.6 47.15 -21.45 Q46.85 -20.65 46.15 -20.65 45.2 -20.75 44.9 -21.5 L44.8 -21.75 44.5 -22.95 44.65 -24.4 45.0 -24.75 M16.6 -25.15 L16.75 -24.8 17.7 -25.05 19.15 -25.3 Q21.35 -25.3 22.05 -24.05 L22.8 -22.35 23.1 -22.55 Q22.95 -24.25 20.35 -25.7 17.65 -27.2 16.6 -25.15 M19.85 -13.15 L20.05 -13.4 20.55 -13.5 22.6 -13.25 Q23.4 -12.9 23.55 -12.1 L23.55 -11.45 23.15 -10.8 Q22.35 -9.8 21.1 -9.35 L18.95 -9.15 18.0 -9.7 17.8 -9.9 Q17.55 -10.3 17.7 -10.8 17.9 -11.55 18.55 -12.05 L19.85 -13.15 M2.2 -16.25 L2.25 -17.35 Q2.25 -19.95 -1.4 -21.5 -5.05 -23.05 -5.05 -21.3 L-4.9 -20.4 -4.7 -20.5 Q-4.6 -20.6 -4.65 -20.8 L-4.1 -21.35 Q-0.15 -20.9 1.0 -19.2 1.55 -18.35 1.55 -16.35 1.15 -15.65 1.45 -15.05 L2.2 -16.25 M24.65 -2.85 Q24.7 -3.85 25.15 -4.55 25.6 -5.25 26.35 -5.65 L28.05 -5.35 Q28.45 -5.3 28.4 -4.9 L28.05 -3.7 27.75 -3.25 Q26.9 -2.2 25.75 -1.85 24.6 -1.5 24.65 -2.85 M32.65 -14.05 Q33.35 -16.25 35.35 -17.4 L35.5 -17.35 36.25 -16.75 36.4 -16.55 Q37.2 -15.45 36.05 -14.35 L34.5 -13.1 Q33.9 -12.7 33.15 -12.6 32.8 -12.6 32.65 -12.9 32.45 -13.45 32.65 -14.05 M15.3 -8.0 L15.5 -8.0 15.65 -7.7 Q16.05 -6.55 15.15 -5.8 L14.4 -5.1 13.3 -4.5 12.2 -4.45 Q11.9 -4.55 11.95 -4.85 L12.55 -6.2 Q13.45 -7.65 15.1 -7.95 L15.3 -8.0 M41.8 -33.65 L42.55 -33.4 43.55 -32.8 43.6 -32.7 43.95 -31.65 Q43.9 -31.15 43.5 -30.8 42.8 -30.2 42.15 -30.8 41.75 -31.2 41.65 -31.7 41.55 -32.3 41.6 -33.0 L41.65 -33.6 41.8 -33.65 M-15.7 -7.5 Q-18.45 -12.95 -20.2 -10.8 -18.1 -10.5 -17.2 -8.95 L-15.9 -6.6 -15.7 -7.5 M-12.45 -20.75 Q-11.4 -20.0 -10.85 -19.9 -10.85 -21.9 -14.85 -21.95 -18.85 -22.05 -18.85 -20.9 L-18.7 -20.5 Q-18.4 -20.85 -17.35 -21.1 L-15.05 -21.4 Q-13.35 -21.4 -12.45 -20.75 M-9.15 7.55 L-8.65 7.3 -7.85 7.3 -7.65 7.35 Q-7.0 7.45 -6.8 7.9 -6.55 8.4 -7.15 8.95 -8.05 9.8 -9.25 10.1 -9.8 10.25 -10.2 9.75 -10.5 9.5 -10.25 9.0 L-10.25 8.9 Q-9.95 8.05 -9.15 7.55 M-16.05 1.6 L-16.65 1.75 -16.4 1.7 -16.0 1.6 -16.05 1.6 M-38.35 9.55 L-38.05 9.15 -37.05 8.95 Q-35.8 8.8 -34.65 8.95 -33.55 9.1 -32.9 9.8 -32.55 10.3 -32.9 10.85 L-33.15 11.25 Q-33.85 12.1 -34.85 12.55 -36.1 13.1 -37.5 12.85 -38.4 12.75 -38.8 11.9 -39.25 11.15 -38.9 10.4 L-38.35 9.55 M-39.85 4.9 L-39.3 5.25 Q-39.0 5.45 -39.2 5.8 L-39.5 6.25 Q-39.8 6.65 -40.35 6.75 -40.95 6.9 -41.4 6.35 -42.4 5.25 -41.3 4.6 -41.2 4.45 -40.9 4.4 -40.35 4.6 -39.85 4.9 M-26.45 7.55 L-25.8 8.0 -25.75 8.0 Q-25.6 8.1 -25.8 8.35 -26.25 9.0 -26.95 9.25 L-27.65 9.2 Q-27.9 8.9 -27.3 8.15 L-26.65 7.5 -26.45 7.55" fill="url(#gradient0)" fill-rule="evenodd" stroke="none"/>
  </g>
  <defs>
    <radialGradient cx="0" cy="0" gradientTransform="matrix(0.0556, 0.0, 0.0, 0.0556, -12.35, -34.3)" gradientUnits="userSpaceOnUse" id="gradient0" r="819.2" spreadMethod="pad">
      <stop offset="0.47843137254901963" stop-color="#ffffff"></stop>
      <stop offset="0.8823529411764706" stop-color="#f2eaea"></stop>
    </radialGradient>
  </defs>
</svg>