<?xml version="1.0" encoding="UTF-8" standalone="no"?>
<svg xmlns:xlink="http://www.w3.org/1999/xlink" height="69.3px" width="98.35px" xmlns="http://www.w3.org/2000/svg">
  <g transform="matrix(1.0, 0.0, 0.0, 1.0, 51.7, 33.45)">
    <path d="M24.25 -29.55 L24.05 -29.8 Q23.8 -30.2 23.8 -30.75 L27.65 -30.35 31.2 -29.05 Q32.7 -28.35 33.95 -27.15 34.25 -26.85 34.1 -26.35 32.95 -26.05 31.65 -27.0 L29.95 -28.05 29.75 -27.2 33.45 -24.3 Q34.7 -23.45 35.2 -22.2 L35.05 -21.85 34.85 -21.65 34.6 -21.5 33.5 -22.3 29.35 -25.2 28.1 -25.85 22.75 -27.55 26.55 -28.25 26.55 -28.85 24.25 -29.55 M-39.3 -4.05 L-40.6 -2.7 -40.8 -2.4 Q-41.2 -5.2 -41.45 -10.65 L-41.1 -12.75 -40.55 -14.75 -40.5 -14.75 -40.65 -13.35 Q-40.65 -9.15 -39.95 -7.45 -39.4 -6.1 -39.3 -4.05 M-42.3 -0.55 L-42.3 -0.5 -42.75 0.15 -43.6 1.5 -43.95 2.1 -44.4 -0.85 -44.7 -6.35 -44.3 -7.1 Q-43.9 -7.6 -43.95 -8.1 L-43.95 -9.6 -43.75 -11.65 -43.4 -13.2 Q-43.0 -11.2 -42.55 -4.3 L-42.3 -0.55 M-44.1 2.35 L-44.1 2.4 -44.35 2.95 -45.05 4.7 -45.15 5.1 -45.6 7.1 -43.95 4.25 -43.95 4.45 -44.15 5.15 -44.7 7.4 -44.9 8.55 -45.25 8.55 Q-46.85 8.8 -46.85 11.2 L-46.8 13.9 -47.4 14.1 -47.65 14.1 -47.3 15.05 -46.95 16.05 Q-46.2 15.6 -45.75 15.6 -45.25 15.6 -44.85 16.35 L-44.55 17.25 -44.25 17.25 Q-43.2 17.25 -42.15 18.3 L-42.15 18.25 Q-42.25 16.7 -42.9 12.05 -43.15 10.75 -43.5 9.95 L-43.1 8.0 -41.95 2.7 -41.35 0.05 -33.55 -4.2 -33.65 -3.6 -32.95 -2.75 -29.6 -2.6 Q-24.6 -2.2 -19.9 -0.7 L-27.8 -1.1 Q-29.2 -0.85 -30.55 -0.1 -25.9 0.25 -21.85 2.4 -19.35 3.65 -17.35 5.4 L-19.65 5.2 -17.9 6.65 Q-15.55 8.65 -15.35 11.65 -15.2 14.0 -16.05 16.3 L-16.25 14.0 Q-17.3 14.25 -17.7 15.5 L-19.7 22.2 Q-20.15 23.65 -21.05 24.9 -22.3 26.7 -23.95 27.9 -29.1 27.6 -33.85 26.05 L-35.1 25.4 -38.9 21.85 -39.1 21.6 Q-39.3 21.6 -39.4 21.75 L-39.8 22.1 -39.9 22.35 -39.9 22.4 -39.8 22.6 -39.95 22.4 -42.2 19.15 -42.55 19.95 -42.65 20.15 -41.9 22.35 Q-40.35 24.7 -38.65 26.5 L-37.65 27.7 -35.9 29.5 -33.4 30.85 Q-31.45 31.8 -29.3 32.25 -29.6 32.5 -30.2 32.6 L-30.25 32.6 -33.9 31.85 -35.55 31.95 -35.25 32.25 Q-34.65 32.8 -33.3 33.05 L-33.55 33.55 -33.7 33.7 -36.6 32.5 -37.15 32.3 Q-39.5 31.3 -40.2 30.6 L-40.75 30.0 -40.75 29.95 -40.8 29.9 -42.45 28.0 -42.55 27.9 -44.4 25.95 -44.75 26.25 -42.15 32.55 Q-43.95 30.8 -45.15 28.2 L-46.85 23.85 -47.3 21.75 -46.9 22.1 Q-46.65 22.05 -46.65 21.55 L-48.1 17.6 -49.2 13.5 Q-49.1 13.05 -48.65 13.05 L-48.15 13.25 -48.15 13.1 -47.85 -0.3 -48.05 -13.65 Q-48.05 -14.75 -47.3 -15.15 -46.55 -15.5 -46.35 -13.5 L-45.9 -10.35 -44.9 -4.05 -44.1 2.35 M-36.3 -5.35 Q-35.35 -6.15 -34.55 -7.1 L-34.65 -7.2 -34.7 -7.25 -34.6 -7.3 -34.65 -7.2 -31.1 -8.1 Q-28.3 -8.5 -25.6 -7.55 -25.1 -7.45 -25.35 -7.0 L-25.65 -7.05 -31.5 -6.85 -36.3 -5.35 M-23.0 -11.8 Q-20.95 -11.1 -18.8 -10.75 L-18.45 -10.7 -15.55 -8.85 -15.25 -8.65 -19.9 -9.75 Q-21.6 -9.9 -22.95 -10.85 L-23.0 -11.8 M-11.95 -6.6 Q-12.4 -8.05 -15.0 -9.8 -17.2 -11.25 -19.05 -11.75 L-19.95 -12.4 -18.1 -12.1 Q-15.55 -11.95 -13.65 -10.05 -11.75 -8.25 -10.45 -6.2 -11.3 -6.15 -11.95 -6.6 M-16.5 -13.9 L-16.25 -13.9 -6.65 -12.45 -5.85 -12.8 -6.3 -13.35 -7.9 -14.55 -5.85 -14.1 -4.6 -13.9 -1.95 -12.6 -2.6 -11.95 -17.55 -13.55 -17.35 -13.65 -16.5 -13.9 M-10.4 -17.05 L-4.55 -18.35 1.55 -18.0 -7.65 -17.2 -9.7 -16.95 -10.4 -17.05 M9.1 -16.4 Q5.3 -18.9 -0.35 -19.25 L3.05 -20.05 2.9 -20.1 3.5 -20.05 5.8 -19.15 Q7.3 -18.85 8.25 -17.75 L9.3 -16.4 9.1 -16.4 M8.65 -22.7 L7.1 -23.25 7.65 -23.35 12.8 -22.7 14.0 -22.05 14.95 -21.3 Q15.0 -21.1 14.5 -21.2 L13.7 -21.5 Q11.35 -22.55 8.65 -22.7 M38.2 -27.9 L36.95 -29.65 Q39.25 -28.5 40.85 -26.55 41.95 -25.15 42.25 -23.3 L38.2 -27.9 M42.7 -15.3 L38.25 -9.35 37.05 -8.6 37.35 -9.55 Q37.85 -11.15 37.55 -12.45 L39.45 -15.9 Q40.6 -18.3 40.35 -21.1 40.15 -23.25 39.45 -25.1 40.45 -23.8 41.25 -22.3 L42.25 -19.95 Q42.9 -17.75 42.7 -15.3 M37.7 -7.25 L37.75 -7.3 37.3 -6.6 37.7 -7.25 M40.7 -9.75 L41.35 -10.5 41.5 -10.3 40.7 -9.75 M12.25 10.2 L12.35 10.25 11.0 11.65 12.25 10.2 M-16.15 29.15 L-22.25 30.05 -22.3 30.0 -22.0 29.7 -22.15 29.7 -16.15 29.15 M25.85 -2.7 L26.05 -6.25 26.0 -12.05 25.35 -15.7 Q24.85 -17.55 23.7 -19.05 L21.5 -21.35 Q20.5 -22.2 19.35 -22.55 15.9 -22.95 12.55 -23.95 L14.2 -24.5 Q17.05 -24.85 19.9 -23.7 L21.7 -22.75 23.95 -21.3 24.95 -19.9 Q25.1 -19.45 24.9 -19.2 L24.8 -19.1 24.7 -19.05 29.7 -13.2 30.0 -14.15 30.45 -17.15 31.1 -14.6 Q32.1 -10.55 32.4 -6.4 L33.2 -8.15 Q34.25 -10.75 34.55 -13.65 35.0 -17.5 34.1 -21.25 L36.05 -19.5 Q37.85 -17.45 37.45 -14.6 37.35 -15.5 36.9 -16.1 L36.6 -16.45 Q35.95 -13.4 35.7 -10.45 L34.75 -7.65 Q33.5 -3.9 30.7 -1.25 L31.95 -5.0 31.85 -5.1 Q31.3 -4.95 30.9 -4.55 L29.85 -3.15 29.8 -4.15 Q28.7 -5.0 28.85 -6.4 L28.95 -8.05 28.7 -10.1 28.65 -9.85 28.5 -10.5 Q28.25 -12.0 27.8 -12.4 27.4 -12.25 27.4 -11.6 L27.2 -6.15 25.85 -2.7 M-3.6 6.6 L-3.25 8.6 -3.1 7.45 -2.45 3.8 Q-1.8 -0.1 -2.15 -4.0 L-1.15 -2.3 Q0.3 0.2 1.35 2.85 2.75 6.4 3.4 10.15 L3.65 8.05 Q4.0 4.75 4.5 1.7 4.95 -0.85 4.3 -3.3 3.6 -5.8 2.15 -7.8 L5.1 -5.35 Q7.25 -3.65 8.8 -1.25 10.45 1.2 10.55 4.2 L12.7 -3.7 13.7 -3.1 Q16.0 -1.8 16.65 0.8 L17.1 -0.7 Q17.7 -3.15 16.9 -5.3 L14.6 -11.0 16.85 -10.25 18.2 -7.75 15.8 -15.3 Q18.25 -13.75 19.9 -11.6 L23.15 -6.95 Q24.75 -4.6 25.6 -2.0 L25.2 -1.0 24.55 -2.25 Q24.3 -2.7 23.8 -2.95 23.3 -2.05 23.7 -1.05 L23.85 -0.1 23.65 1.6 21.2 4.05 22.0 2.9 21.65 2.5 Q22.1 0.1 21.9 -2.75 21.6 -6.4 19.95 -9.75 L19.0 -11.0 Q18.6 -10.15 18.9 -8.95 L19.65 -4.45 Q19.7 -3.15 19.4 -1.9 L18.35 1.3 17.35 3.25 15.65 5.85 14.05 7.2 14.05 7.0 Q13.5 6.45 12.7 7.15 L10.45 9.2 11.85 5.8 11.55 5.7 10.05 7.7 8.3 10.45 7.65 11.05 7.05 11.65 6.45 10.95 Q8.2 7.9 8.15 4.45 L7.95 4.3 7.55 4.9 7.55 4.85 Q7.55 2.55 7.1 0.95 6.5 1.9 6.3 4.3 6.1 6.95 5.5 8.3 L5.4 8.5 4.85 9.55 3.05 12.05 0.25 15.5 -2.35 17.6 0.5 12.25 0.0 11.4 -4.45 17.6 -5.65 19.25 -7.25 21.0 Q-5.05 17.75 -3.9 14.1 -3.3 12.15 -3.3 10.15 -3.3 8.3 -3.6 6.6 M-3.95 4.95 Q-4.4 3.2 -5.1 1.55 L-5.6 0.6 -5.8 0.35 Q-6.5 1.5 -6.15 3.0 -5.15 7.3 -6.35 11.45 -7.15 14.25 -8.9 16.7 L-12.7 21.7 -15.5 24.85 -12.7 21.2 -12.95 20.3 Q-13.7 20.15 -14.3 20.85 L-18.2 24.95 -19.75 26.4 Q-16.5 22.05 -16.1 16.85 L-14.9 15.7 -14.3 14.8 Q-12.45 10.85 -12.5 6.45 L-9.35 13.8 -8.85 11.5 -7.8 4.6 Q-7.3 -0.05 -7.65 -4.75 -6.9 -3.75 -6.3 -2.6 L-5.35 -0.4 -3.95 4.95 M-35.2 12.05 Q-35.95 10.8 -35.7 9.3 L-35.4 7.15 Q-35.0 4.6 -33.5 2.45 L-33.3 1.65 -33.6 1.6 -35.55 3.45 Q-37.5 5.85 -38.3 8.5 -38.75 9.95 -38.55 11.45 L-38.5 14.15 -38.2 16.8 Q-37.65 19.55 -36.35 22.0 -35.1 24.4 -32.55 25.75 -30.1 27.1 -27.4 26.4 -24.6 25.5 -23.5 22.6 L-22.8 20.55 Q-22.2 19.05 -22.25 17.35 L-22.45 13.55 -23.05 9.8 Q-23.65 6.95 -25.95 5.05 -28.35 3.1 -31.35 4.05 -32.55 4.4 -33.5 5.45 L-34.2 6.85 -35.2 12.05 M-41.1 27.15 L-41.0 26.85 Q-41.0 26.6 -41.15 26.5 L-41.3 26.4 -41.1 27.15" fill="#e0cbcb" fill-rule="evenodd" stroke="none"/>
    <path d="M23.8 -30.75 Q23.8 -30.2 24.05 -29.8 L24.25 -29.55 19.85 -30.9 23.8 -30.75 M22.75 -27.55 L28.1 -25.85 29.35 -25.2 33.5 -22.3 34.6 -21.5 34.85 -21.65 35.05 -21.85 35.2 -22.2 Q34.7 -23.45 33.45 -24.3 L29.75 -27.2 29.95 -28.05 31.65 -27.0 Q32.95 -26.05 34.1 -26.35 34.25 -26.85 33.95 -27.15 32.7 -28.35 31.2 -29.05 L27.65 -30.35 31.95 -29.2 35.2 -27.7 38.3 -26.05 38.2 -27.9 42.25 -23.3 42.65 -20.1 42.8 -16.1 42.7 -15.3 Q42.9 -17.75 42.25 -19.95 L41.25 -22.3 Q40.45 -23.8 39.45 -25.1 40.15 -23.25 40.35 -21.1 40.6 -18.3 39.45 -15.9 L37.55 -12.45 Q37.15 -12.2 37.25 -12.8 L37.45 -14.6 Q37.85 -17.45 36.05 -19.5 L34.1 -21.25 Q35.0 -17.5 34.55 -13.65 34.25 -10.75 33.2 -8.15 L32.4 -6.4 Q32.1 -10.55 31.1 -14.6 L30.45 -17.15 30.0 -14.15 29.7 -13.2 24.7 -19.05 24.8 -19.1 24.9 -19.2 Q25.1 -19.45 24.95 -19.9 L23.95 -21.3 21.7 -22.75 19.9 -23.7 Q17.05 -24.85 14.2 -24.5 L12.55 -23.95 Q15.9 -22.95 19.35 -22.55 20.5 -22.2 21.5 -21.35 L23.7 -19.05 Q24.85 -17.55 25.35 -15.7 L26.0 -12.05 26.05 -6.25 25.85 -2.7 25.6 -2.0 Q24.75 -4.6 23.15 -6.95 L19.9 -11.6 Q18.25 -13.75 15.8 -15.3 L18.2 -7.75 16.85 -10.25 14.6 -11.0 16.9 -5.3 Q17.7 -3.15 17.1 -0.7 L16.65 0.8 Q16.0 -1.8 13.7 -3.1 L12.7 -3.7 10.55 4.2 Q10.45 1.2 8.8 -1.25 7.25 -3.65 5.1 -5.35 L2.15 -7.8 Q3.6 -5.8 4.3 -3.3 4.95 -0.85 4.5 1.7 4.0 4.75 3.65 8.05 L3.4 10.15 Q2.75 6.4 1.35 2.85 0.3 0.2 -1.15 -2.3 L-2.15 -4.0 Q-1.8 -0.1 -2.45 3.8 L-3.1 7.45 -3.25 8.6 -3.6 6.6 -3.95 4.95 -5.35 -0.4 -6.3 -2.6 Q-6.9 -3.75 -7.65 -4.75 -7.3 -0.05 -7.8 4.6 L-8.85 11.5 -9.35 13.8 -12.5 6.45 Q-12.45 10.85 -14.3 14.8 L-14.9 15.7 -16.1 16.85 -16.2 16.75 -16.05 16.3 Q-15.2 14.0 -15.35 11.65 -15.55 8.65 -17.9 6.65 L-19.65 5.2 -17.35 5.4 Q-19.35 3.65 -21.85 2.4 -25.9 0.25 -30.55 -0.1 -29.2 -0.85 -27.8 -1.1 L-19.9 -0.7 Q-24.6 -2.2 -29.6 -2.6 L-32.95 -2.75 -33.65 -3.6 -33.55 -4.2 -41.35 0.05 -42.0 -0.6 -36.3 -5.35 -31.5 -6.85 -25.65 -7.05 -25.35 -7.0 Q-25.1 -7.45 -25.6 -7.55 -28.3 -8.5 -31.1 -8.1 L-34.65 -7.2 -34.6 -7.3 Q-32.1 -8.6 -29.3 -9.05 L-26.15 -8.95 -23.2 -8.85 -25.3 -11.85 -23.0 -11.8 -22.95 -10.85 Q-21.6 -9.9 -19.9 -9.75 L-15.25 -8.65 Q-12.45 -6.75 -12.1 -5.4 L-12.0 -5.65 -11.9 -6.05 -11.95 -6.6 Q-11.3 -6.15 -10.45 -6.2 -11.75 -8.25 -13.65 -10.05 -15.55 -11.95 -18.1 -12.1 L-19.95 -12.4 -21.65 -13.7 -16.5 -13.9 -17.35 -13.65 -17.55 -13.55 -2.6 -11.95 -1.95 -12.6 -4.6 -13.9 -5.85 -14.1 -7.9 -14.55 -12.85 -16.55 -10.4 -17.05 -9.7 -16.95 -7.65 -17.2 1.55 -18.0 5.0 -17.4 6.9 -16.85 7.2 -16.8 7.3 -16.75 9.65 -16.05 9.1 -16.4 9.3 -16.4 8.25 -17.75 Q7.3 -18.85 5.8 -19.15 L3.5 -20.05 2.9 -20.1 -1.5 -21.25 10.85 -21.0 10.75 -22.0 8.65 -22.7 Q11.35 -22.55 13.7 -21.5 L14.5 -21.2 Q15.0 -21.1 14.95 -21.3 L14.0 -22.05 12.8 -22.7 7.65 -23.35 12.9 -24.35 17.1 -24.9 Q18.8 -24.95 19.9 -23.7 L20.35 -23.65 22.5 -25.55 16.65 -26.3 14.65 -26.15 22.75 -27.55 M11.15 -13.8 L10.9 -13.75 Q10.85 -13.05 12.55 -11.55 12.85 -11.6 12.95 -11.75 12.4 -12.8 11.15 -13.8 M8.65 -13.15 Q5.65 -15.45 2.4 -15.3 5.55 -14.9 8.3 -12.45 L11.5 -9.35 Q11.2 -11.1 8.65 -13.15 M31.7 -17.0 L31.8 -17.0 32.05 -17.9 Q32.05 -19.25 30.6 -22.1 28.85 -25.4 27.3 -25.15 29.4 -23.3 30.45 -21.05 31.15 -19.6 31.7 -17.0 M-5.85 -6.35 Q-5.8 -6.3 -5.9 -6.2 L-5.65 -6.15 Q-4.85 -6.15 -3.7 -5.2 L-2.35 -4.2 Q-2.55 -4.9 -3.8 -5.85 -5.1 -6.85 -5.9 -6.8 L-5.85 -6.35" fill="url(#gradient0)" fill-rule="evenodd" stroke="none"/>
    <path d="M24.25 -29.55 L26.55 -28.85 26.55 -28.25 22.75 -27.55 14.65 -26.15 16.65 -26.3 22.5 -25.55 20.35 -23.65 19.9 -23.7 Q18.8 -24.95 17.1 -24.9 L12.9 -24.35 7.65 -23.35 7.1 -23.25 8.65 -22.7 10.75 -22.0 10.85 -21.0 -1.5 -21.25 2.9 -20.1 3.05 -20.05 -0.35 -19.25 Q5.3 -18.9 9.1 -16.4 L9.65 -16.05 7.3 -16.75 7.2 -16.8 6.9 -16.85 5.0 -17.4 1.55 -18.0 -4.55 -18.35 -10.4 -17.05 -12.85 -16.55 -7.9 -14.55 -6.3 -13.35 -5.85 -12.8 -6.65 -12.45 -16.25 -13.9 -16.5 -13.9 -21.65 -13.7 -19.95 -12.4 -19.05 -11.75 Q-17.2 -11.25 -15.0 -9.8 -12.4 -8.05 -11.95 -6.6 L-11.9 -6.05 -12.0 -5.65 -12.1 -5.4 Q-12.45 -6.75 -15.25 -8.65 L-15.55 -8.85 -18.45 -10.7 -18.8 -10.75 Q-20.95 -11.1 -23.0 -11.8 L-25.3 -11.85 -23.2 -8.85 -26.15 -8.95 -29.3 -9.05 Q-32.1 -8.6 -34.6 -7.3 L-34.7 -7.25 -34.65 -7.2 -34.55 -7.1 Q-35.35 -6.15 -36.3 -5.35 L-42.0 -0.6 -41.35 0.05 -41.95 2.7 -43.1 8.0 -43.5 9.95 Q-43.15 10.75 -42.9 12.05 -42.25 16.7 -42.15 18.25 -43.05 17.2 -43.6 14.45 L-44.15 10.0 -44.1 9.0 -44.2 8.85 Q-44.55 8.55 -44.9 8.55 L-44.7 7.4 -44.15 5.15 -43.75 3.9 -43.95 4.25 -45.6 7.1 -45.15 5.1 -45.05 4.7 -44.35 2.95 -44.1 2.4 -44.1 2.35 -44.05 2.25 -43.6 1.5 -42.75 0.15 -42.3 -0.5 -42.3 -0.55 -40.8 -2.4 -40.6 -2.7 -39.3 -4.05 -37.05 -6.35 Q-35.7 -7.55 -34.15 -8.5 -32.7 -9.3 -31.1 -9.75 L-24.25 -9.5 -31.15 -12.3 -22.9 -12.55 -25.0 -13.65 -21.0 -14.5 -12.95 -14.75 -8.95 -14.15 -15.35 -15.75 Q-15.2 -16.65 -14.2 -16.95 L-6.65 -18.85 0.8 -20.15 -6.5 -20.8 Q-0.9 -22.7 6.4 -22.15 L3.3 -23.2 10.05 -25.0 9.65 -25.25 17.15 -27.6 24.9 -28.8 16.7 -30.55 Q19.25 -31.85 22.0 -32.1 L29.65 -31.35 Q33.25 -30.35 36.65 -28.3 L31.6 -31.85 31.65 -32.45 32.95 -32.2 Q37.3 -31.1 40.5 -28.1 42.5 -26.2 43.3 -23.8 44.1 -21.3 43.65 -18.8 45.15 -21.8 44.7 -25.1 L45.55 -25.3 45.65 -20.8 45.5 -19.45 44.35 -13.5 Q43.9 -10.8 42.2 -8.6 L39.75 -5.55 38.65 -4.5 Q37.65 -3.75 36.4 -3.7 39.05 -5.25 40.95 -7.7 42.3 -9.45 42.55 -11.8 L41.35 -10.5 40.7 -9.75 37.75 -7.3 37.7 -7.25 37.25 -7.2 36.8 -7.45 38.25 -9.35 42.7 -15.3 42.8 -16.1 42.65 -20.1 42.25 -23.3 Q41.95 -25.15 40.85 -26.55 39.25 -28.5 36.95 -29.65 L38.2 -27.9 38.3 -26.05 35.2 -27.7 31.95 -29.2 27.65 -30.35 23.8 -30.75 19.85 -30.9 24.25 -29.55 M-30.2 32.6 L-25.8 33.0 -27.95 33.2 -29.95 33.3 -33.3 33.05 Q-34.65 32.8 -35.25 32.25 L-35.55 31.95 -33.9 31.85 -30.25 32.6 -30.2 32.6 M-33.7 33.7 L-31.95 34.5 Q-31.95 34.85 -32.25 34.85 -35.6 34.85 -39.25 32.3 L-42.6 29.4 -42.65 29.4 -41.45 31.75 -39.9 34.5 -40.25 34.7 Q-42.15 34.7 -43.75 32.8 L-45.35 30.4 -45.9 29.3 -45.9 29.35 -47.3 25.7 Q-48.35 22.55 -49.0 19.3 L-49.35 18.35 Q-49.85 16.8 -50.0 14.15 -50.1 11.85 -50.45 9.7 L-50.7 6.25 -49.95 -12.05 Q-48.95 -13.7 -48.65 -9.2 -48.55 -6.85 -48.6 -3.8 -48.6 -0.95 -49.05 3.4 L-49.55 9.7 -49.2 13.5 -48.1 17.6 -46.65 21.55 Q-46.65 22.05 -46.9 22.1 L-47.3 21.75 -46.85 23.85 -45.15 28.2 Q-43.95 30.8 -42.15 32.55 L-44.75 26.25 -44.4 25.95 -42.55 27.9 -42.45 28.0 -40.8 29.9 -40.75 29.95 -40.75 30.0 -40.2 30.6 Q-39.5 31.3 -37.15 32.3 L-36.6 32.5 -33.7 33.7 M27.2 -6.15 L27.4 -11.6 Q27.4 -12.25 27.8 -12.4 28.25 -12.0 28.5 -10.5 L28.65 -9.85 28.75 -8.4 Q28.75 -4.25 27.0 -1.2 24.85 2.6 19.7 5.35 L21.2 4.05 23.65 1.6 Q25.85 -1.0 26.65 -3.35 L27.2 -6.15 M30.7 -1.25 Q33.5 -3.9 34.75 -7.65 L35.7 -10.45 36.95 -14.7 Q36.85 -9.25 36.05 -7.1 34.5 -2.8 29.25 0.05 L29.15 0.05 30.7 -1.25 M8.65 -13.15 Q11.2 -11.1 11.5 -9.35 L8.3 -12.45 Q5.55 -14.9 2.4 -15.3 5.65 -15.45 8.65 -13.15 M8.3 10.45 L10.6 8.2 10.7 8.1 10.75 8.35 Q7.05 14.5 5.05 14.5 L4.45 14.4 7.05 11.65 7.65 11.05 8.3 10.45 M7.55 4.9 Q7.55 7.4 5.3 11.1 2.75 15.3 -0.1 15.9 L0.25 15.5 3.05 12.05 4.85 9.55 5.4 8.5 5.5 8.3 Q6.1 6.95 6.3 4.3 6.5 1.9 7.1 0.95 7.55 2.55 7.55 4.85 L7.55 4.9 M31.7 -17.0 Q31.15 -19.6 30.45 -21.05 29.4 -23.3 27.3 -25.15 28.85 -25.4 30.6 -22.1 32.05 -19.25 32.05 -17.9 L31.8 -17.0 31.7 -17.0 M-5.85 -6.35 L-5.9 -6.8 Q-5.1 -6.85 -3.8 -5.85 -2.55 -4.9 -2.35 -4.2 L-3.7 -5.2 Q-4.85 -6.15 -5.65 -6.15 L-5.9 -6.2 Q-5.8 -6.3 -5.85 -6.35 M-6.9 19.15 Q-9.2 22.9 -14.2 25.5 -14.35 25.8 -14.35 25.3 L-11.85 23.05 Q-9.05 20.6 -7.95 18.85 L-6.25 15.65 Q-5.25 13.65 -4.35 12.8 -5.9 17.55 -6.9 19.15 M-38.55 11.45 L-37.25 6.35 -37.6 10.25 Q-37.75 12.65 -37.4 15.0 -36.95 18.2 -35.05 21.0 -34.1 22.4 -32.75 23.2 -30.3 24.6 -27.3 24.0 L-25.95 23.7 Q-23.4 22.05 -24.05 18.9 L-25.15 17.2 Q-26.2 15.45 -26.0 13.3 L-25.55 9.25 -25.15 7.2 -27.05 5.4 Q-27.55 7.9 -27.7 10.5 -27.85 13.0 -27.4 15.55 L-26.45 18.4 -24.85 21.0 -26.25 20.55 Q-27.55 20.05 -28.05 18.7 -29.3 15.5 -29.3 11.95 -29.3 9.4 -28.55 6.85 L-27.95 5.05 -30.0 5.4 Q-30.95 5.7 -31.7 6.35 L-32.85 7.85 -33.45 9.75 -33.8 14.2 -33.45 15.8 -32.35 18.5 Q-31.0 21.1 -28.05 21.05 L-27.25 21.0 -27.85 21.65 Q-31.15 21.55 -33.0 18.95 L-33.95 17.05 -35.2 12.05 -34.2 6.85 -33.5 5.45 Q-32.55 4.4 -31.35 4.05 -28.35 3.1 -25.95 5.05 -23.65 6.95 -23.05 9.8 L-22.45 13.55 -22.25 17.35 Q-22.2 19.05 -22.8 20.55 L-23.5 22.6 Q-24.6 25.5 -27.4 26.4 -30.1 27.1 -32.55 25.75 -35.1 24.4 -36.35 22.0 -37.65 19.55 -38.2 16.8 L-38.5 14.15 -38.55 11.45 M-24.5 11.35 L-23.45 16.9 -23.25 15.5 -23.2 14.1 Q-23.15 11.5 -24.15 9.25 L-24.5 8.65 -24.5 11.35" fill="#a36a6a" fill-rule="evenodd" stroke="none"/>
    <path d="M38.25 -9.35 L36.8 -7.45 37.25 -7.2 37.7 -7.25 37.3 -6.6 37.75 -7.3 40.7 -9.75 41.5 -10.3 41.55 -10.35 41.75 -9.95 41.65 -9.45 38.25 -6.25 35.0 -2.85 31.3 0.95 Q29.7 2.65 27.3 3.75 L23.4 5.6 19.4 7.2 15.2 8.35 10.9 9.6 12.25 10.2 11.0 11.65 12.35 10.25 12.9 10.5 13.0 11.2 12.05 12.2 10.85 13.05 Q7.5 15.0 4.0 16.6 L5.25 16.7 5.45 17.7 Q0.5 20.55 -4.8 22.5 L-8.4 23.9 -12.1 25.15 -4.15 25.95 -4.45 26.65 Q-10.25 28.2 -16.15 29.15 L-22.15 29.7 -22.0 29.7 -22.3 30.0 -22.25 30.05 -26.6 30.2 -28.0 29.95 -26.45 31.95 Q-26.9 32.5 -27.6 32.5 L-29.3 32.25 Q-31.45 31.8 -33.4 30.85 L-35.9 29.5 -37.65 27.7 -38.65 26.5 Q-40.35 24.7 -41.9 22.35 L-42.65 20.15 -42.55 19.95 -42.2 19.15 -39.95 22.4 -39.8 22.6 -39.9 22.4 -39.9 22.35 -39.8 22.1 -39.4 21.75 Q-39.3 21.6 -39.1 21.6 L-38.9 21.85 -35.1 25.4 -33.85 26.05 Q-29.1 27.6 -23.95 27.9 -22.3 26.7 -21.05 24.9 -20.15 23.65 -19.7 22.2 L-17.7 15.5 Q-17.3 14.25 -16.25 14.0 L-16.05 16.3 -16.2 16.75 -16.1 16.85 Q-16.5 22.05 -19.75 26.4 L-18.2 24.95 -14.3 20.85 Q-13.7 20.15 -12.95 20.3 L-12.7 21.2 -15.5 24.85 -12.7 21.7 -8.9 16.7 Q-7.15 14.25 -6.35 11.45 -5.15 7.3 -6.15 3.0 -6.5 1.5 -5.8 0.35 L-5.6 0.6 -5.1 1.55 Q-4.4 3.2 -3.95 4.95 L-3.6 6.6 Q-3.3 8.3 -3.3 10.15 -3.3 12.15 -3.9 14.1 -5.05 17.75 -7.25 21.0 L-5.65 19.25 -4.45 17.6 0.0 11.4 0.5 12.25 -2.35 17.6 0.25 15.5 -0.1 15.9 Q2.75 15.3 5.3 11.1 7.55 7.4 7.55 4.9 L7.95 4.3 8.15 4.45 Q8.2 7.9 6.45 10.95 L7.05 11.65 4.45 14.4 5.05 14.5 Q7.05 14.5 10.75 8.35 L10.7 8.1 10.6 8.2 8.3 10.45 10.05 7.7 11.55 5.7 11.85 5.8 10.45 9.2 12.7 7.15 Q13.5 6.45 14.05 7.0 L14.05 7.2 15.65 5.85 17.35 3.25 18.35 1.3 19.4 -1.9 Q19.7 -3.15 19.65 -4.45 L18.9 -8.95 Q18.6 -10.15 19.0 -11.0 L19.95 -9.75 Q21.6 -6.4 21.9 -2.75 22.1 0.1 21.65 2.5 L22.0 2.9 21.2 4.05 19.7 5.35 Q24.85 2.6 27.0 -1.2 28.75 -4.25 28.75 -8.4 L28.65 -9.85 28.7 -10.1 28.95 -8.05 28.85 -6.4 Q28.7 -5.0 29.8 -4.15 L29.85 -3.15 30.9 -4.55 Q31.3 -4.95 31.85 -5.1 L31.95 -5.0 30.7 -1.25 29.15 0.05 29.25 0.05 Q34.5 -2.8 36.05 -7.1 36.85 -9.25 36.95 -14.7 L35.7 -10.45 Q35.95 -13.4 36.6 -16.45 L36.9 -16.1 Q37.35 -15.5 37.45 -14.6 L37.25 -12.8 Q37.15 -12.2 37.55 -12.45 37.85 -11.15 37.35 -9.55 L37.05 -8.6 38.25 -9.35 M25.85 -2.7 L27.2 -6.15 26.65 -3.35 Q25.85 -1.0 23.65 1.6 L23.85 -0.1 23.7 -1.05 Q23.3 -2.05 23.8 -2.95 24.3 -2.7 24.55 -2.25 L25.2 -1.0 25.6 -2.0 25.85 -2.7 M-35.2 12.05 L-33.95 17.05 -33.0 18.95 Q-31.15 21.55 -27.85 21.65 L-27.25 21.0 -28.05 21.05 Q-31.0 21.1 -32.35 18.5 L-33.45 15.8 -33.8 14.2 -33.45 9.75 -32.85 7.85 -31.7 6.35 Q-30.95 5.7 -30.0 5.4 L-27.95 5.05 -28.55 6.85 Q-29.3 9.4 -29.3 11.95 -29.3 15.5 -28.05 18.7 -27.55 20.05 -26.25 20.55 L-24.85 21.0 -26.45 18.4 -27.4 15.55 Q-27.85 13.0 -27.7 10.5 -27.55 7.9 -27.05 5.4 L-25.15 7.2 -25.55 9.25 -26.0 13.3 Q-26.2 15.45 -25.15 17.2 L-24.05 18.9 Q-23.4 22.05 -25.95 23.7 L-27.3 24.0 Q-30.3 24.6 -32.75 23.2 -34.1 22.4 -35.05 21.0 -36.95 18.2 -37.4 15.0 -37.75 12.65 -37.6 10.25 L-37.25 6.35 -38.55 11.45 Q-38.75 9.95 -38.3 8.5 -37.5 5.85 -35.55 3.45 L-33.6 1.6 -33.3 1.65 -33.5 2.45 Q-35.0 4.6 -35.4 7.15 L-35.7 9.3 Q-35.95 10.8 -35.2 12.05 M-6.9 19.15 Q-5.9 17.55 -4.35 12.8 -5.25 13.65 -6.25 15.65 L-7.95 18.85 Q-9.05 20.6 -11.85 23.05 L-14.35 25.3 Q-14.35 25.8 -14.2 25.5 -9.2 22.9 -6.9 19.15 M-24.5 11.35 L-24.5 8.65 -24.15 9.25 Q-23.15 11.5 -23.2 14.1 L-23.25 15.5 -23.45 16.9 -24.5 11.35" fill="#cca9a9" fill-rule="evenodd" stroke="none"/>
    <path d="M11.15 -13.8 Q12.4 -12.8 12.95 -11.75 12.85 -11.6 12.55 -11.55 10.85 -13.05 10.9 -13.75 L11.15 -13.8" fill="url(#gradient1)" fill-rule="evenodd" stroke="none"/>
  </g>
  <defs>
    <radialGradient cx="0" cy="0" gradientTransform="matrix(0.0504, 0.0, 0.0, 0.0504, 1.2, -36.65)" gradientUnits="userSpaceOnUse" id="gradient0" r="819.2" spreadMethod="pad">
      <stop offset="0.47843137254901963" stop-color="#ffffff"></stop>
      <stop offset="0.8823529411764706" stop-color="#f2eaea"></stop>
    </radialGradient>
    <radialGradient cx="0" cy="0" gradientTransform="matrix(0.0024, 0.0, 0.0, 0.0024, 11.9, -12.65)" gradientUnits="userSpaceOnUse" id="gradient1" r="819.2" spreadMethod="pad">
      <stop offset="0.47843137254901963" stop-color="#ffffff"></stop>
      <stop offset="0.8823529411764706" stop-color="#f2eaea"></stop>
    </radialGradient>
  </defs>
</svg>