<?xml version="1.0" encoding="UTF-8" standalone="no"?>
<svg xmlns:xlink="http://www.w3.org/1999/xlink" height="18.9px" width="40.85px" xmlns="http://www.w3.org/2000/svg">
  <g transform="matrix(1.0, 0.0, 0.0, 1.0, 19.85, 8.2)">
    <path d="M12.15 1.6 L12.35 1.05 11.85 1.8 Q11.7 2.35 11.35 1.65 L12.4 0.95 12.15 1.6 M3.6 4.55 L7.5 4.7 8.15 6.85 10.7 3.4 12.75 3.2 12.95 4.8 18.7 -2.2 13.3 7.0 12.85 6.75 11.6 8.0 11.65 6.3 11.1 7.0 11.85 4.5 11.65 5.0 10.55 5.35 10.8 4.75 8.5 9.6 8.05 9.7 7.3 5.9 5.8 6.0 5.5 7.25 4.9 6.7 4.9 6.0 0.45 6.55 -2.1 6.05 -4.7 5.05 -5.2 7.0 -7.05 4.3 -8.25 6.15 -8.85 6.35 -8.0 4.3 -11.65 3.95 -13.0 3.45 -14.7 4.7 -13.95 2.15 -15.55 0.75 -16.7 2.6 -17.45 2.75 -17.95 3.4 -16.4 -0.8 -17.95 -2.95 -18.4 -1.75 -18.8 -3.85 -18.7 -5.4 -18.2 -6.9 -17.8 -5.5 -16.35 -7.2 -17.45 -4.2 -15.35 -1.45 -14.95 -1.65 -13.0 -0.95 -14.25 -0.05 -12.45 1.9 -11.25 1.6 -11.8 2.35 -8.2 3.15 -8.65 2.7 -3.65 2.65 -4.25 3.95 Q-2.55 5.15 -0.35 5.25 L3.6 4.55 M19.2 -3.75 L19.25 -4.1 18.85 -3.8 19.35 -4.45 19.2 -3.75" fill="#e0cbcb" fill-rule="evenodd" stroke="none"/>
    <path d="M12.15 1.6 L11.95 2.15 12.9 2.1 13.3 1.1 13.6 1.55 15.9 -0.9 17.05 -2.6 Q18.35 -4.2 18.65 -4.2 L19.35 -4.75 Q20.0 -5.15 20.0 -4.35 L19.05 -3.2 19.2 -3.75 18.7 -2.2 12.95 4.8 12.75 3.2 10.7 3.4 8.15 6.85 7.5 4.7 3.6 4.55 4.75 4.2 5.8 2.85 6.5 3.15 7.3 3.0 7.85 2.25 8.0 2.9 11.35 1.65 Q11.7 2.35 11.85 1.8 L12.35 1.05 12.15 1.6 M19.2 -3.75 L19.35 -4.45 18.85 -3.8 19.25 -4.1 19.2 -3.75" fill="#cca9a9" fill-rule="evenodd" stroke="none"/>
  </g>
</svg>