<?xml version="1.0" encoding="UTF-8" standalone="no"?>
<svg xmlns:xlink="http://www.w3.org/1999/xlink" height="28px" width="35.7px" xmlns="http://www.w3.org/2000/svg">
  <g transform="matrix(1.0, 0.0, 0.0, 1.0, -23.6, 16)">
    <path d="M47.7 10.15 L47.45 10.05 43.85 7.45 42.0 6.05 Q39.55 4.7 36.5 4.3 34.35 4.2 32.75 4.9 29.6 6.35 25.9 5.95 L24.8 4.8 24.8 4.7 24.9 4.7 24.8 4.15 24.6 -0.7 Q24.4 -3.25 26.0 -8.75 27.55 -14.25 31.1 -15.0 L31.5 -13.75 31.4 -12.75 30.75 -6.0 Q30.3 -0.7 33.15 4.15 L33.2 4.3 33.65 4.25 33.6 4.15 33.1 2.85 Q32.8 2.1 32.6 -0.9 32.4 -3.9 33.9 -3.9 L36.65 -3.85 Q37.9 -3.8 38.85 -2.9 L39.85 -1.45 39.8 -1.35 40.4 -0.45 40.45 0.9 40.5 -0.9 Q40.8 -2.0 43.0 -2.0 45.6 -2.0 47.25 -0.75 48.35 0.1 48.45 0.8 L47.4 4.05 Q46.15 7.2 45.35 8.3 L46.95 9.6 Q50.5 3.3 51.25 1.0 52.0 -1.35 53.0 -6.4 53.95 -11.4 55.15 -11.15 56.35 -10.95 57.8 -4.15 59.2 2.65 56.8 8.3 L56.35 9.45 56.3 9.4 56.1 9.75 56.05 9.8 56.05 9.9 55.55 10.75 54.05 10.8 54.45 10.7 55.85 6.4 Q57.55 0.65 56.85 -4.55 L56.7 -5.4 56.6 -6.1 56.55 -6.2 56.4 -6.85 55.85 -8.5 55.5 -9.2 55.25 -9.55 54.95 -8.3 52.75 0.55 Q51.1 6.25 47.7 10.15 M49.5 11.0 L48.85 11.0 48.45 10.8 49.5 11.0 M48.4 10.75 L48.2 10.65 48.1 10.5 48.4 10.75 M30.15 -13.65 L30.2 -13.75 Q27.5 -10.4 26.7 -6.0 25.75 -1.0 25.9 4.15 L25.9 4.8 25.95 5.45 27.35 6.0 27.85 5.95 28.5 5.8 30.2 5.1 Q30.8 4.75 31.65 4.55 L30.65 2.5 Q29.8 0.55 29.45 -4.25 29.05 -9.1 30.15 -13.65 M37.45 -2.6 L36.0 -3.05 33.9 -2.95 34.25 1.1 34.65 4.15 34.7 4.15 36.55 4.1 37.4 4.2 37.3 3.9 37.3 3.75 37.05 1.75 37.0 1.15 Q36.8 -1.7 37.45 -2.35 L37.95 -1.85 38.6 4.45 39.2 4.65 38.95 3.7 39.55 -1.05 39.55 -1.1 39.5 -1.1 Q39.15 -1.1 38.15 -2.1 L37.45 -2.6 M45.8 -0.35 L43.3 -0.85 Q41.9 -0.9 41.35 1.65 L40.85 4.3 40.6 5.3 40.95 5.45 42.15 6.1 43.6 7.05 44.15 5.0 44.2 4.9 44.5 3.95 44.55 3.8 Q45.35 1.3 46.15 0.4 L46.2 0.35 46.9 0.85 45.35 5.05 44.25 7.5 44.7 7.8 Q44.6 7.05 46.0 3.95 L47.35 0.85 Q47.25 0.25 45.8 -0.35 M44.7 7.8 L45.2 8.15 44.7 7.8" fill="#a36a6a" fill-rule="evenodd" stroke="none"/>
    <path d="M50.6 10.95 L49.5 11.0 48.45 10.8 48.4 10.75 48.1 10.5 47.7 10.15 Q51.1 6.25 52.75 0.55 L54.95 -8.3 55.25 -6.05 Q55.55 -3.35 54.9 0.15 53.85 5.4 52.3 9.4 L52.5 5.45 52.15 5.0 Q51.6 5.75 51.0 8.75 L50.6 10.95 M27.85 5.95 L27.35 6.0 25.95 5.45 25.9 4.8 25.9 4.15 Q25.75 -1.0 26.7 -6.0 27.5 -10.4 30.2 -13.75 L30.15 -13.65 29.35 -11.2 Q28.2 -7.15 28.25 -4.65 L28.45 4.9 27.05 -1.65 26.9 -1.65 Q26.55 -0.3 26.95 2.4 L27.3 4.45 27.85 5.95 M34.7 4.15 L34.65 4.15 34.25 1.1 33.9 -2.95 36.0 -3.05 37.45 -2.6 37.45 -2.35 Q36.8 -1.7 37.0 1.15 L36.85 1.0 36.2 2.0 36.1 -0.05 35.8 -0.55 Q35.55 0.65 35.8 2.4 L35.85 2.55 35.7 2.65 Q35.4 2.15 35.1 2.15 34.4 2.15 34.7 4.15 M40.85 4.3 L41.35 1.65 Q41.9 -0.9 43.3 -0.85 L45.8 -0.35 45.7 -0.3 45.8 0.15 46.15 0.4 Q45.35 1.3 44.55 3.8 L44.0 3.5 Q43.6 3.9 43.3 3.9 L42.8 3.9 Q43.35 2.5 43.3 2.0 L43.1 1.8 Q42.65 2.15 42.1 3.65 L42.0 4.0 40.85 4.3" fill="#ffffcc" fill-rule="evenodd" stroke="none"/>
    <path d="M54.05 10.8 L50.6 10.95 51.0 8.75 Q51.6 5.75 52.15 5.0 L52.5 5.45 52.3 9.4 Q53.85 5.4 54.9 0.15 55.55 -3.35 55.25 -6.05 L54.95 -8.3 55.25 -9.55 55.5 -9.2 55.85 -8.5 56.4 -6.85 56.55 -6.2 56.6 -6.1 56.7 -5.4 56.85 -4.55 Q57.55 0.65 55.85 6.4 L54.45 10.7 54.05 10.8 M30.15 -13.65 Q29.05 -9.1 29.45 -4.25 29.8 0.55 30.65 2.5 L31.65 4.55 Q30.8 4.75 30.2 5.1 L28.5 5.8 27.85 5.95 27.3 4.45 26.95 2.4 Q26.55 -0.3 26.9 -1.65 L27.05 -1.65 28.45 4.9 28.25 -4.65 Q28.2 -7.15 29.35 -11.2 L30.15 -13.65 M37.45 -2.6 L38.15 -2.1 Q39.15 -1.1 39.5 -1.1 L39.55 -1.05 38.95 3.7 39.2 4.65 38.6 4.45 37.95 -1.85 37.45 -2.35 37.45 -2.6 M37.0 1.15 L37.05 1.75 37.3 3.75 37.3 3.9 37.4 4.2 36.55 4.1 34.7 4.15 Q34.4 2.15 35.1 2.15 35.4 2.15 35.7 2.65 L35.85 2.55 35.8 2.4 Q35.55 0.65 35.8 -0.55 L36.1 -0.05 36.2 2.0 36.85 1.0 37.0 1.15 M40.85 4.3 L42.0 4.0 42.1 3.65 Q42.65 2.15 43.1 1.8 L43.3 2.0 Q43.35 2.5 42.8 3.9 L43.3 3.9 Q43.6 3.9 44.0 3.5 L44.55 3.8 44.5 3.95 44.2 4.9 44.15 5.0 43.6 7.05 42.15 6.1 41.35 5.65 41.35 5.6 41.3 5.65 40.95 5.45 40.6 5.3 40.85 4.3 M46.15 0.4 L45.8 0.15 45.7 -0.3 45.8 -0.35 Q47.25 0.25 47.35 0.85 L46.0 3.95 Q44.6 7.05 44.7 7.8 L44.25 7.5 45.35 5.05 46.9 0.85 46.2 0.35 46.15 0.4" fill="#e0cca3" fill-rule="evenodd" stroke="none"/>
    <path d="M33.8 6.95 Q33.8 7.65 33.0 7.65 32.1 7.65 31.8 7.3 L31.7 6.95 Q31.7 6.3 33.0 6.3 33.85 6.3 33.8 6.95" fill="#ffffff" fill-rule="evenodd" stroke="none"/>
  </g>
</svg>