<?xml version="1.0" encoding="UTF-8" standalone="no"?>
<svg xmlns:xlink="http://www.w3.org/1999/xlink" height="18.5px" width="38.4px" xmlns="http://www.w3.org/2000/svg">
  <g transform="matrix(1.0, 0.0, 0.0, 1.0, 19.2, 9.25)">
    <path d="M15.9 3.4 Q15.95 2.85 15.75 3.2 15.45 3.75 15.4 4.5 L15.2 5.1 14.45 1.0 14.45 0.9 13.65 -0.75 14.15 -2.35 14.55 -2.7 14.85 -3.65 14.95 -4.4 Q15.25 -5.5 16.2 -5.9 L16.25 -1.65 Q16.3 0.9 15.9 3.4 M14.3 -3.05 Q13.85 -2.8 13.55 -2.15 12.9 -0.8 12.4 0.7 L12.3 0.75 12.6 -3.25 13.7 -6.15 14.35 -5.7 14.4 -5.1 14.3 -3.15 14.35 -3.1 14.3 -3.05 M17.35 -0.65 Q17.85 -1.7 18.2 -0.85 18.05 1.6 17.05 3.8 L16.3 3.65 Q16.4 1.35 17.35 -0.65 M-16.15 -1.7 L-15.95 -1.4 Q-15.3 -0.15 -16.25 0.95 L-17.4 2.6 -16.15 -1.7" fill="#e0cbcb" fill-rule="evenodd" stroke="none"/>
    <path d="M15.9 3.4 L15.9 3.6 15.85 6.7 Q15.75 7.7 15.1 8.25 L14.75 7.7 Q14.2 3.85 13.3 0.3 12.95 2.1 11.9 3.05 L11.55 0.25 11.55 -0.45 11.5 -5.6 11.45 -7.7 11.6 -8.25 11.75 -8.05 Q12.85 -5.9 12.6 -3.25 L12.3 0.75 12.3 0.85 12.4 0.7 Q12.9 -0.8 13.55 -2.15 13.85 -2.8 14.3 -3.05 L14.15 -2.35 13.65 -0.75 14.45 0.9 14.45 1.0 15.2 5.1 15.2 5.2 15.4 4.5 Q15.45 3.75 15.75 3.2 15.95 2.85 15.9 3.4 M-16.25 0.95 L-15.5 0.55 -15.5 0.7 -16.1 1.7 -17.45 3.8 -18.2 4.6 -17.95 2.3 -17.85 1.95 Q-17.4 -0.25 -16.4 -2.2 L-15.95 -2.6 -16.15 -1.7 -17.4 2.6 -16.25 0.95" fill="#a36a6a" fill-rule="evenodd" stroke="none"/>
  </g>
</svg>