<?xml version="1.0" encoding="UTF-8" standalone="no"?>
<svg xmlns:xlink="http://www.w3.org/1999/xlink" height="19.6px" width="29px" xmlns="http://www.w3.org/2000/svg">
  <g transform="matrix(1.0, 0.0, 0.0, 1.0, -27.05, 14.25)">
    <path d="M35.4 -12.6 Q34.9 -9.0 34.85 -5.3 L34.85 -5.25 37.15 -4.55 37.3 -4.45 37.75 -4.5 43.2 -3.45 44.25 -3.7 47.25 -3.3 48.95 -2.55 49.3 -4.4 49.55 -9.2 Q49.65 -12.3 50.1 -12.3 50.75 -12.4 53.4 -6.2 54.85 -2.7 55.0 -0.15 L55.0 3.8 48.15 4.1 36.8 2.15 28.05 1.05 28.55 0.9 Q28.4 0.65 28.4 0.2 28.2 -2.85 29.85 -6.8 31.8 -11.35 34.9 -13.25 35.35 -13.1 35.4 -12.6 M34.25 -11.5 L34.25 -11.55 34.2 -11.55 33.3 -10.4 Q31.5 -8.05 30.4 -5.0 L29.8 -1.4 29.3 0.75 29.95 0.65 30.6 0.6 31.4 0.6 31.9 0.65 32.05 0.65 32.3 0.7 32.3 0.6 32.25 0.55 31.4 -3.0 31.15 -4.05 Q31.1 -4.65 31.85 -4.95 L33.75 -5.35 33.75 -5.5 Q34.0 -10.3 34.25 -11.5 M34.7 -4.05 L33.1 -4.1 Q32.1 -4.05 32.15 -3.6 32.15 -3.0 33.25 0.4 L33.5 1.15 34.45 1.25 34.8 1.2 35.55 1.4 Q35.95 1.9 37.05 1.95 36.45 0.75 36.4 -2.35 L36.35 -3.65 36.35 -3.75 36.3 -3.75 34.7 -4.05 M42.15 -3.0 L39.0 -3.4 38.3 -3.2 37.4 -3.4 37.55 -1.2 38.5 2.05 38.5 2.15 38.8 2.2 40.4 2.35 40.6 2.4 41.0 2.45 41.25 2.45 41.65 2.6 41.9 2.65 42.9 2.7 44.05 2.85 Q43.45 1.75 42.7 -2.55 L42.75 -2.95 42.15 -3.0 M47.0 -2.3 L45.2 -2.7 43.75 -2.6 44.9 2.6 44.85 3.0 44.25 2.9 44.9 3.0 45.8 3.15 45.9 3.0 45.95 2.95 46.55 2.85 47.1 2.55 47.05 2.7 47.1 2.6 46.85 3.1 46.8 3.25 46.8 3.3 46.95 3.35 47.35 2.25 47.95 0.65 48.75 -1.85 48.8 -1.95 48.7 -1.9 48.6 -1.9 48.05 -2.0 47.0 -2.3 M51.35 3.65 L52.7 3.65 53.0 3.65 54.05 3.55 54.15 -0.05 Q53.95 -3.45 50.9 -9.05 L50.4 -9.95 Q50.65 -1.65 48.0 3.45 L48.05 3.55 51.35 3.65" fill="#a36a6a" fill-rule="evenodd" stroke="none"/>
    <path d="M34.2 -11.55 L34.25 -11.5 Q34.0 -10.3 33.75 -5.5 L33.75 -5.35 31.85 -4.95 33.3 -10.4 34.2 -11.55 M31.4 -3.0 L32.25 0.55 32.3 0.6 32.3 0.7 32.05 0.65 31.9 0.65 31.4 0.6 30.6 0.6 31.4 -3.0 M33.25 0.4 L33.35 0.25 34.55 -1.45 Q34.2 -3.35 34.7 -4.05 L36.3 -3.75 36.35 -3.65 36.4 -2.35 Q36.45 0.75 37.05 1.95 35.95 1.9 35.55 1.4 L34.8 1.2 34.45 1.25 33.5 1.15 33.25 0.4 M38.8 2.2 L41.05 -1.0 41.15 -2.7 41.25 -3.1 42.15 -3.0 42.75 -2.95 42.7 -2.55 Q43.45 1.75 44.05 2.85 L42.9 2.7 41.9 2.65 41.65 2.6 41.25 2.45 41.0 2.45 40.9 2.15 40.6 2.4 40.4 2.35 38.8 2.2 M46.55 2.85 Q46.65 -0.8 47.0 -2.3 L48.05 -2.0 48.6 -1.9 48.7 -1.9 48.75 -1.85 47.95 0.65 47.35 2.25 46.95 3.35 46.8 3.3 46.8 3.25 46.85 3.1 47.1 2.6 47.05 2.7 47.1 2.55 46.55 2.85 M50.9 -9.05 Q53.95 -3.45 54.15 -0.05 L54.05 3.55 53.0 3.65 52.7 3.65 51.35 3.65 50.25 3.6 51.55 -1.75 50.9 -9.05" fill="#e0cca3" fill-rule="evenodd" stroke="none"/>
    <path d="M31.85 -4.95 Q31.1 -4.65 31.15 -4.05 L31.4 -3.0 30.6 0.6 29.95 0.65 29.3 0.75 29.8 -1.4 30.4 -5.0 Q31.5 -8.05 33.3 -10.4 L31.85 -4.95 M34.7 -4.05 Q34.2 -3.35 34.55 -1.45 L33.35 0.25 33.25 0.4 Q32.15 -3.0 32.15 -3.6 32.1 -4.05 33.1 -4.1 L34.7 -4.05 M36.35 -3.65 L36.3 -3.75 36.35 -3.75 36.35 -3.65 M38.8 2.2 L38.5 2.15 38.5 2.05 37.55 -1.2 37.4 -3.4 38.3 -3.2 39.0 -3.4 42.15 -3.0 41.25 -3.1 41.15 -2.7 41.05 -1.0 38.8 2.2 M41.0 2.45 L40.6 2.4 40.9 2.15 41.0 2.45 M44.85 3.0 L44.9 2.6 43.75 -2.6 45.2 -2.7 47.0 -2.3 Q46.65 -0.8 46.55 2.85 L45.95 2.95 45.9 3.0 45.8 3.15 44.9 3.0 44.85 3.0 M48.7 -1.9 L48.8 -1.95 48.75 -1.85 48.7 -1.9 M50.9 -9.05 L51.55 -1.75 50.25 3.6 51.35 3.65 48.05 3.55 48.0 3.45 Q50.65 -1.65 50.4 -9.95 L50.9 -9.05" fill="#ffffcc" fill-rule="evenodd" stroke="none"/>
  </g>
</svg>