<?xml version="1.0" encoding="UTF-8" standalone="no"?>
<svg xmlns:xlink="http://www.w3.org/1999/xlink" height="20.9px" width="34.55px" xmlns="http://www.w3.org/2000/svg">
  <g transform="matrix(1.0, 0.0, 0.0, 1.0, 16.3, 5.65)">
    <path d="M9.95 -1.0 L8.4 -1.3 1.2 -1.75 0.85 -1.8 -3.9 -2.6 -3.95 -2.55 -4.55 -2.75 -3.9 -2.6 -4.6 -2.75 -5.3 -2.95 -12.5 -3.55 Q-13.45 -3.45 -14.1 -2.55 L-14.55 -1.5 -14.3 -0.75 -12.5 1.4 -12.3 1.6 -12.3 1.65 -11.5 2.45 -10.5 3.85 -10.6 4.6 -10.6 4.7 -13.5 1.7 Q-15.25 -0.05 -15.3 -1.4 -15.4 -2.4 -14.4 -3.45 -13.7 -4.25 -12.65 -4.65 L-3.9 -3.55 7.45 -1.6 14.3 -1.9 14.25 -1.6 15.3 -1.5 15.3 -1.0 15.35 -0.5 15.25 -0.45 14.75 -0.45 14.25 -0.45 14.15 -0.45 9.95 -1.0" fill="#a36a6a" fill-rule="evenodd" stroke="none"/>
    <path d="M-14.3 -0.75 Q-12.8 0.05 -8.85 0.05 L-3.8 -1.05 -1.6 -1.4 Q-2.85 -0.8 -2.85 -0.05 -2.25 1.95 -0.45 1.95 L1.8 2.1 Q2.9 2.1 6.75 0.55 9.1 -0.4 10.05 -0.95 L9.95 -1.0 14.15 -0.45 14.25 -0.45 14.75 -0.45 15.25 -0.45 15.35 -0.5 15.3 -1.0 Q16.45 -0.55 17.25 3.35 L17.0 6.1 16.25 3.05 16.0 3.25 15.4 4.5 Q14.7 5.85 13.5 6.25 L13.65 4.1 13.5 4.25 11.3 7.65 11.4 4.85 11.3 4.85 Q10.05 6.6 8.5 7.75 L8.05 6.7 6.85 8.2 Q6.9 5.45 5.9 2.9 L2.25 7.45 1.5 2.6 -0.15 6.85 -1.2 3.2 -2.0 5.65 -4.7 0.75 Q-4.95 4.0 -5.8 6.85 -6.7 5.75 -7.3 4.25 L-7.45 4.45 -7.65 5.05 Q-7.75 6.3 -8.05 6.55 L-8.15 6.5 -10.5 3.5 -10.5 3.85 -11.5 2.45 -12.3 1.65 -12.3 1.6 -12.5 1.4 -14.3 -0.75" fill="#e0cbcb" fill-rule="evenodd" stroke="none"/>
    <path d="M-10.6 4.6 L-10.5 3.85 -10.5 3.5 -8.15 6.5 -8.05 6.55 Q-7.75 6.3 -7.65 5.05 L-7.45 4.45 -7.3 4.25 Q-6.7 5.75 -5.8 6.85 -4.95 4.0 -4.7 0.75 L-2.0 5.65 -1.2 3.2 -0.15 6.85 1.5 2.6 2.25 7.45 5.9 2.9 Q6.9 5.45 6.85 8.2 L8.05 6.7 8.5 7.75 Q10.05 6.6 11.3 4.85 L11.4 4.85 11.3 7.65 13.5 4.25 13.65 4.1 13.5 6.25 Q14.7 5.85 15.4 4.5 L16.0 3.25 16.25 3.05 17.0 6.1 Q16.75 7.4 16.3 8.0 L14.75 5.8 Q12.7 7.15 11.6 9.05 10.75 10.5 10.5 12.3 L10.2 9.75 9.85 6.85 Q7.55 10.45 6.4 14.25 L5.6 14.2 Q4.85 10.2 4.4 6.1 2.8 9.95 0.65 13.3 L0.4 13.25 -0.45 9.1 Q-0.65 11.05 -1.6 12.7 L-2.0 12.55 -2.15 5.8 Q-3.8 8.55 -4.8 11.45 L-5.05 11.35 Q-5.6 8.35 -7.6 6.7 L-7.6 9.3 -7.8 9.15 Q-8.8 6.15 -10.2 4.25 L-10.35 4.55 -10.4 5.05 -10.6 4.65 -10.6 4.6 M5.4 5.0 L5.4 5.1 5.45 5.1 5.4 5.0" fill="#e0cbcb" fill-opacity="0.4509804" fill-rule="evenodd" stroke="none"/>
    <path d="M-4.55 -2.75 L-3.95 -2.55 -3.9 -2.6 0.85 -1.8 1.2 -1.75 8.4 -1.3 9.95 -1.0 10.05 -0.95 Q9.1 -0.4 6.75 0.55 2.9 2.1 1.8 2.1 L-0.45 1.95 Q-2.25 1.95 -2.85 -0.05 -2.85 -0.8 -1.6 -1.4 L-3.8 -1.05 -8.85 0.05 Q-12.8 0.05 -14.3 -0.75 L-14.55 -1.5 -14.1 -2.55 Q-13.45 -3.45 -12.5 -3.55 L-5.3 -2.95 -4.6 -2.75 -4.55 -2.75" fill="url(#gradient0)" fill-rule="evenodd" stroke="none"/>
  </g>
  <defs>
    <radialGradient cx="0" cy="0" gradientTransform="matrix(0.0156, 0.0, 0.0, 0.0064, -3.9, -3.55)" gradientUnits="userSpaceOnUse" id="gradient0" r="819.2" spreadMethod="pad">
      <stop offset="0.47843137254901963" stop-color="#ffffff"></stop>
      <stop offset="0.8823529411764706" stop-color="#f2eaea"></stop>
    </radialGradient>
  </defs>
</svg>