<?xml version="1.0" encoding="UTF-8" standalone="no"?>
<svg xmlns:xlink="http://www.w3.org/1999/xlink" height="4.15px" width="9.3px" xmlns="http://www.w3.org/2000/svg">
  <g transform="matrix(1.0, 0.0, 0.0, 1.0, 6.25, 6.5)">
    <path d="M2.05 -4.15 Q2.05 -3.75 1.4 -3.75 0.65 -3.75 0.75 -4.1 0.75 -4.55 1.4 -4.55 2.1 -4.55 2.05 -4.15 M-1.95 -4.0 Q-1.95 -5.15 -0.5 -5.15 0.25 -5.15 0.25 -4.25 0.25 -3.35 -1.3 -3.35 -2.0 -3.35 -1.95 -4.0 M-4.35 -4.95 Q-4.35 -4.5 -4.8 -4.5 -5.25 -4.5 -5.25 -4.95 -5.25 -5.5 -4.75 -5.5 L-4.35 -4.95" fill="#ffffff" fill-rule="evenodd" stroke="none"/>
  </g>
</svg>