<?xml version="1.0" encoding="UTF-8" standalone="no"?>
<svg xmlns:xlink="http://www.w3.org/1999/xlink" height="16.6px" width="21.8px" xmlns="http://www.w3.org/2000/svg">
  <g transform="matrix(1.0, 0.0, 0.0, 1.0, 10.6, 8.25)">
    <path d="M0.95 -0.5 L0.85 -0.1 0.85 -0.05 Q-0.15 0.7 -0.95 2.85 -2.05 2.85 -2.7 1.9 L-2.7 0.65 -2.4 -1.9 Q-2.0 -0.5 0.95 -0.5 M7.05 -0.05 L7.3 -0.35 7.3 -1.05 Q7.05 -1.45 6.45 -1.6 L7.3 -2.0 Q7.8 -2.0 8.15 -2.45 8.5 -2.9 8.5 -3.5 L8.9 -2.9 8.65 -0.6 7.3 -0.15 7.05 -0.05 M-1.95 -5.05 L-1.9 -5.05 -1.95 -5.05 M-8.9 -3.15 Q-8.55 -2.55 -8.0 -2.55 L-7.4 -2.9 -4.8 -1.95 Q-4.4 -1.0 -3.1 -0.95 L-3.15 0.1 -3.3 2.45 -3.3 2.9 -5.8 1.3 -6.1 0.6 -6.75 -0.4 -6.8 -0.45 -6.05 -1.05 -5.85 -1.6 -6.9 -2.7 Q-8.35 -2.7 -8.35 -1.85 L-8.25 -1.6 Q-8.05 -0.25 -7.35 0.85 L-7.7 0.25 -8.6 -1.6 -8.85 -2.55 -8.9 -3.15 M-4.75 4.55 L-5.35 3.85 -4.8 4.5 -4.75 4.55 M-3.05 3.95 L-2.75 4.35 -3.05 3.95" fill="#e0cbcb" fill-rule="evenodd" stroke="none"/>
    <path d="M0.85 -0.05 L0.85 -0.1 0.95 -0.5 Q1.55 -1.65 5.75 -1.65 L5.85 -1.65 6.05 -1.65 6.45 -1.6 Q7.05 -1.45 7.3 -1.05 L7.3 -0.35 7.05 -0.05 5.75 1.25 4.75 2.2 4.4 2.1 4.35 1.8 Q4.35 1.45 4.65 0.85 4.1 0.45 3.35 0.6 L3.15 0.5 2.9 0.3 1.7 0.65 Q0.9 0.65 0.85 -0.05 M-2.4 -1.9 L-2.7 0.65 -2.7 1.9 -2.7 4.4 -2.75 4.35 -3.05 3.95 -3.3 2.9 -3.3 2.45 -3.15 0.1 -3.1 -0.95 Q-2.95 -2.55 -2.35 -3.3 L-2.2 -3.15 -2.4 -1.95 -2.4 -1.9 M8.5 -3.5 L7.3 -3.95 6.85 -4.1 5.95 -4.45 Q3.7 -5.35 -1.5 -5.8 L-1.95 -5.05 -2.65 -3.7 -3.55 -1.4 -3.8 -1.5 -3.8 -2.0 -3.5 -3.7 -3.15 -5.1 -2.7 -5.9 -6.95 -5.8 -8.6 -5.1 Q-9.0 -4.4 -8.9 -3.15 L-8.85 -2.55 -8.6 -1.6 -7.7 0.25 -7.35 0.85 Q-8.05 -0.25 -8.25 -1.6 L-8.35 -1.85 Q-8.35 -2.7 -6.9 -2.7 L-5.85 -1.6 -6.05 -1.05 -6.8 -0.45 -6.75 -0.4 Q-6.35 0.2 -6.75 1.05 L-6.85 1.25 -7.0 1.2 -5.4 3.75 -5.35 3.85 -4.75 4.55 -4.0 5.4 Q-2.1 6.4 -1.0 6.6 0.8 6.3 2.2 5.25 L5.2 3.0 Q6.4 2.45 7.3 1.4 L8.65 -0.6 8.9 -2.9 8.5 -3.5 M7.3 -5.35 Q8.5 -4.8 9.3 -4.1 10.05 -3.4 10.2 -2.4 10.3 -1.45 9.8 -0.1 L9.3 1.05 8.3 2.0 5.35 3.9 Q5.2 4.0 2.6 6.05 1.1 7.25 -1.0 7.25 L-1.75 7.35 Q-2.55 7.35 -3.7 6.4 L-4.8 5.3 -6.25 4.0 -6.3 3.9 Q-7.9 2.2 -8.8 -0.2 L-9.35 -1.6 -9.6 -4.25 Q-9.6 -5.7 -8.8 -6.45 -6.75 -7.55 -4.35 -7.15 L-2.6 -7.15 4.9 -6.15 7.3 -5.35" fill="#a36a6a" fill-rule="evenodd" stroke="none"/>
    <path d="M0.95 -0.5 Q-2.0 -0.5 -2.4 -1.9 L-2.4 -1.95 -2.2 -3.15 -2.35 -3.3 Q-2.95 -2.55 -3.1 -0.95 -4.4 -1.0 -4.8 -1.95 L-7.4 -2.9 -8.0 -2.55 Q-8.55 -2.55 -8.9 -3.15 -9.0 -4.4 -8.6 -5.1 L-6.95 -5.8 -2.7 -5.9 -3.15 -5.1 -3.5 -3.7 -3.8 -2.0 -3.8 -1.5 -3.55 -1.4 -2.65 -3.7 -1.95 -5.05 -1.5 -5.8 Q3.7 -5.35 5.95 -4.45 L6.85 -4.1 7.3 -3.95 8.5 -3.5 Q8.5 -2.9 8.15 -2.45 7.8 -2.0 7.3 -2.0 L6.45 -1.6 6.05 -1.65 5.85 -1.65 5.75 -1.65 Q1.55 -1.65 0.95 -0.5 M-1.95 -5.05 L-1.9 -5.05 -1.95 -5.05" fill="url(#gradient0)" fill-rule="evenodd" stroke="none"/>
    <path d="M-2.7 1.9 Q-2.05 2.85 -0.95 2.85 -0.15 0.7 0.85 -0.05 0.9 0.65 1.7 0.65 L2.9 0.3 3.15 0.5 3.35 0.6 Q4.1 0.45 4.65 0.85 4.35 1.45 4.35 1.8 L4.4 2.1 4.75 2.2 5.75 1.25 7.05 -0.05 7.3 -0.15 8.65 -0.6 7.3 1.4 Q6.4 2.45 5.2 3.0 L2.2 5.25 Q0.8 6.3 -1.0 6.6 -2.1 6.4 -4.0 5.4 L-4.75 4.55 -4.8 4.5 -5.35 3.85 -5.4 3.75 -7.0 1.2 -6.85 1.25 -6.75 1.05 Q-6.35 0.2 -6.75 -0.4 L-6.1 0.6 -5.8 1.3 -3.3 2.9 -3.05 3.95 -2.75 4.35 -2.7 4.4 -2.7 1.9" fill="#cca9a9" fill-rule="evenodd" stroke="none"/>
  </g>
  <defs>
    <radialGradient cx="0" cy="0" gradientTransform="matrix(0.0103, 0.0, 0.0, 0.0064, -3.25, -5.9)" gradientUnits="userSpaceOnUse" id="gradient0" r="819.2" spreadMethod="pad">
      <stop offset="0.47843137254901963" stop-color="#ffffff"></stop>
      <stop offset="0.8823529411764706" stop-color="#f2eaea"></stop>
    </radialGradient>
  </defs>
</svg>