<?xml version="1.0" encoding="UTF-8" standalone="no"?>
<svg xmlns:xlink="http://www.w3.org/1999/xlink" height="15.65px" width="11.65px" xmlns="http://www.w3.org/2000/svg">
  <g transform="matrix(1.0, 0.0, 0.0, 1.0, 5.85, 7.85)">
    <path d="M-3.8 6.6 L-4.1 6.8 -4.2 6.55 -4.45 5.75 -4.85 2.1 Q-4.85 -0.3 -3.3 -2.95 -1.35 -6.45 1.95 -6.85 L2.4 -6.4 2.1 -3.15 Q2.1 -0.65 3.45 1.85 L4.8 4.35 4.6 5.0 4.35 5.1 4.0 4.95 Q3.45 4.6 2.85 3.35 L2.7 3.1 Q1.75 1.25 1.45 -0.25 1.15 -1.65 1.2 -3.3 L1.3 -4.8 1.35 -5.5 1.45 -5.65 1.3 -5.55 Q-2.75 -3.35 -3.65 0.15 L-3.8 4.4 -3.8 4.45 -3.8 5.45 -3.8 5.9 -3.8 6.3 -3.8 6.45 -3.8 6.6" fill="#a36a6a" fill-rule="evenodd" stroke="none"/>
    <path d="M4.0 4.95 L3.45 5.3 Q1.25 6.8 -0.95 6.8 L-1.8 6.8 -2.2 6.75 -2.4 6.75 -2.6 6.75 -2.75 5.4 Q-2.75 4.0 -2.3 2.55 L-1.6 -0.15 Q-1.35 -0.15 -1.0 1.6 -0.55 -1.0 -0.1 -2.2 0.75 -4.45 1.35 -5.35 L1.3 -4.8 1.2 -3.3 Q1.15 -1.65 1.45 -0.25 1.75 1.25 2.7 3.1 L2.85 3.35 Q3.45 4.6 4.0 4.95" fill="#cca9a9" fill-rule="evenodd" stroke="none"/>
    <path d="M-2.6 6.75 L-3.8 6.6 -3.8 6.45 -3.8 6.3 -3.8 5.9 -3.8 5.45 -3.8 4.45 -3.65 4.4 -3.8 4.4 -3.65 0.15 Q-2.75 -3.35 1.3 -5.55 L1.35 -5.5 1.3 -4.8 1.35 -5.35 Q0.75 -4.45 -0.1 -2.2 -0.55 -1.0 -1.0 1.6 -1.35 -0.15 -1.6 -0.15 L-2.3 2.55 Q-2.75 4.0 -2.75 5.4 L-2.6 6.75" fill="#e0cbcb" fill-rule="evenodd" stroke="none"/>
  </g>
</svg>