<?xml version="1.0" encoding="UTF-8" standalone="no"?>
<svg xmlns:xlink="http://www.w3.org/1999/xlink" height="43.8px" width="52.3px" xmlns="http://www.w3.org/2000/svg">
  <g transform="matrix(1.0, 0.0, 0.0, 1.0, 27.9, 20)">
    <path d="M-0.1 -18.25 L1.4 -18.45 Q9.25 -18.45 15.15 -15.6 17.7 -14.4 19.5 -12.7 L18.6 -12.85 17.15 -12.95 Q12.95 -12.95 10.65 -7.05 9.3 -3.5 9.0 0.65 L7.0 1.8 7.6 0.15 7.95 0.2 8.65 -0.65 9.15 -1.7 8.95 -3.45 8.6 -4.95 Q8.2 -4.65 8.2 -3.85 L8.1 -2.6 8.0 -1.9 8.0 -2.6 6.95 -7.85 6.65 -9.6 Q5.95 -12.45 4.1 -14.8 2.2 -17.2 -0.15 -18.15 2.2 -17.2 4.1 -14.8 5.95 -12.45 6.65 -9.6 L6.95 -7.85 7.05 -6.0 Q7.05 -2.9 3.95 1.35 L1.35 4.7 0.1 4.8 -1.75 4.25 -3.75 3.9 -3.85 3.85 Q-2.0 1.45 -1.2 -0.15 0.15 -2.85 0.15 -5.55 0.15 -9.0 -1.6 -11.1 -3.6 -13.5 -7.55 -13.5 -13.25 -13.5 -18.25 -8.3 -22.75 -3.55 -22.35 -0.05 L-22.45 -0.05 -25.2 -1.9 Q-26.55 -2.95 -26.6 -4.0 L-26.6 -4.05 -26.55 -4.45 Q-26.25 -7.45 -21.45 -11.9 -17.0 -16.1 -14.0 -17.25 -10.7 -18.55 -8.15 -18.9 -6.6 -19.1 -4.8 -18.95 L-3.3 -18.75 -3.2 -18.75 Q-1.65 -18.75 -0.25 -18.2 L-1.7 -18.05 -0.25 -18.2 -0.15 -18.15 -0.1 -18.25 M6.6 4.75 L6.65 4.65 6.65 4.8 6.6 4.75 M-23.95 -3.05 L-23.9 -3.15 -24.5 -3.95 Q-24.9 -4.4 -25.2 -4.35 L-25.35 -4.1 -24.85 -3.4 Q-24.45 -3.0 -24.15 -3.0 L-23.95 -3.05 M-2.3 3.15 Q-2.55 3.6 -1.2 3.6 0.0 3.6 0.0 3.15 0.0 2.6 -1.15 2.65 -2.3 2.7 -2.3 3.15 M-9.45 10.7 L-9.5 10.65 -16.35 11.1 Q-20.85 11.7 -20.85 12.4 L-20.7 12.75 -19.65 12.9 Q-11.6 11.45 -9.45 10.7 M-3.45 9.85 L-3.75 10.15 Q-7.6 11.4 -21.2 14.25 L-21.9 14.25 -21.9 13.95 -22.2 7.85 -22.05 5.85 -15.5 7.15 -3.45 9.85" fill="#9295a9" fill-rule="evenodd" stroke="none"/>
    <path d="M6.95 -7.85 L8.0 -2.6 8.0 -1.9 7.6 0.15 7.0 1.8 9.0 0.65 8.95 1.85 9.0 0.65 8.95 1.85 8.9 3.05 8.9 3.3 Q8.95 6.8 10.95 8.8 12.8 10.65 15.6 10.65 16.85 10.65 18.8 9.85 L21.85 8.5 Q21.0 11.0 19.8 13.0 16.9 17.7 12.0 19.2 0.45 22.8 -4.4 22.8 -10.65 22.8 -17.5 19.05 -26.15 14.35 -26.15 7.15 L-25.8 4.15 -25.95 3.85 -26.2 3.4 Q-26.6 2.45 -26.9 -1.25 L-26.6 -4.0 Q-26.55 -2.95 -25.2 -1.9 L-22.45 -0.05 -22.45 0.0 -22.35 5.7 -22.95 5.65 -22.35 5.8 -22.05 5.85 -22.2 7.85 -21.9 13.95 -21.9 14.25 Q-20.8 15.95 -13.05 19.8 L-3.75 10.15 -13.05 19.8 Q-20.8 15.95 -21.9 14.25 L-21.2 14.25 Q-7.6 11.4 -3.75 10.15 L-3.45 9.85 -3.2 9.9 -3.3 8.5 -3.75 6.0 -3.75 3.9 -1.75 4.25 0.1 4.8 1.35 4.7 3.95 1.35 Q7.05 -2.9 7.05 -6.0 L6.95 -7.85 M7.0 1.8 L5.95 4.15 5.5 5.05 5.05 5.9 Q3.55 8.55 1.95 10.1 L1.95 9.45 1.35 4.7 1.95 9.45 1.95 10.1 Q3.55 8.55 5.05 5.9 L5.5 5.05 5.95 4.15 7.0 1.8 M6.6 4.75 L6.65 4.8 6.65 4.65 6.6 4.75 M1.95 10.1 L-3.2 10.1 -3.2 9.9 -3.2 10.1 1.95 10.1 M-25.8 4.15 Q-24.9 5.4 -22.95 5.65 -24.9 5.4 -25.8 4.15" fill="#5e5f77" fill-rule="evenodd" stroke="none"/>
    <path d="M9.0 0.65 Q9.3 -3.5 10.65 -7.05 12.95 -12.95 17.15 -12.95 L18.6 -12.85 19.5 -12.7 Q23.4 -9.1 23.4 -3.35 23.4 3.6 21.85 8.5 L18.8 9.85 Q16.85 10.65 15.6 10.65 12.8 10.65 10.95 8.8 8.95 6.8 8.9 3.3 L8.9 3.05 8.95 1.85 9.0 0.65 M-22.35 -0.05 Q-22.75 -3.55 -18.25 -8.3 -13.25 -13.5 -7.55 -13.5 -3.6 -13.5 -1.6 -11.1 0.15 -9.0 0.15 -5.55 0.15 -2.85 -1.2 -0.15 -2.0 1.45 -3.85 3.85 L-3.9 3.9 -3.75 3.9 -3.75 6.0 -3.3 8.5 -3.2 9.9 -3.45 9.85 -15.5 7.15 -22.05 5.85 -22.35 5.8 -22.35 5.7 -22.45 0.0 -22.35 0.0 -22.35 -0.05" fill="#22222b" fill-rule="evenodd" stroke="none"/>
    <path d="M8.0 -1.9 L8.1 -2.6 8.2 -3.85 Q8.2 -4.65 8.6 -4.95 L8.95 -3.45 9.15 -1.7 8.65 -0.65 7.95 0.2 7.6 0.15 8.0 -1.9 M-23.95 -3.05 L-24.15 -3.0 Q-24.45 -3.0 -24.85 -3.4 L-25.35 -4.1 -25.2 -4.35 Q-24.9 -4.4 -24.5 -3.95 L-23.9 -3.15 -23.95 -3.05 M-2.3 3.15 Q-2.3 2.7 -1.15 2.65 0.0 2.6 0.0 3.15 0.0 3.6 -1.2 3.6 -2.55 3.6 -2.3 3.15 M-9.45 10.7 Q-11.6 11.45 -19.65 12.9 L-20.7 12.75 -20.85 12.4 Q-20.85 11.7 -16.35 11.1 L-9.5 10.65 -9.45 10.7" fill="#ffffff" fill-rule="evenodd" stroke="none"/>
    <path d="M19.5 -12.7 Q17.7 -14.4 15.15 -15.6 9.25 -18.45 1.4 -18.45 L-0.1 -18.25 -0.25 -18.2 -1.7 -18.05 M-0.15 -18.15 Q2.2 -17.2 4.1 -14.8 5.95 -12.45 6.65 -9.6 L6.95 -7.85 8.0 -2.6 8.0 -1.9 7.6 0.15 7.0 1.8 5.95 4.15 5.5 5.05 5.05 5.9 Q3.55 8.55 1.95 10.1 L1.95 9.45 1.35 4.7 3.95 1.35 Q7.05 -2.9 7.05 -6.0 L6.95 -7.85 M9.0 0.65 Q9.3 -3.5 10.65 -7.05 12.95 -12.95 17.15 -12.95 L18.6 -12.85 19.5 -12.7 Q23.4 -9.1 23.4 -3.35 23.4 3.6 21.85 8.5 21.0 11.0 19.8 13.0 16.9 17.7 12.0 19.2 0.45 22.8 -4.4 22.8 -10.65 22.8 -17.5 19.05 -26.15 14.35 -26.15 7.15 L-25.8 4.15 -25.95 3.85 -26.2 3.4 Q-26.6 2.45 -26.9 -1.25 L-26.6 -4.0 -26.6 -4.05 -26.55 -4.45 Q-26.25 -7.45 -21.45 -11.9 -17.0 -16.1 -14.0 -17.25 -10.7 -18.55 -8.15 -18.9 -6.6 -19.1 -4.8 -18.95 L-3.2 -18.75 Q-1.65 -18.75 -0.25 -18.2 L-0.15 -18.15 M21.85 8.5 L18.8 9.85 Q16.85 10.65 15.6 10.65 12.8 10.65 10.95 8.8 8.95 6.8 8.9 3.3 L8.9 3.05 8.95 1.85 9.0 0.65 M-3.75 3.9 L-1.75 4.25 0.1 4.8 1.35 4.7 M-22.35 -0.05 Q-22.75 -3.55 -18.25 -8.3 -13.25 -13.5 -7.55 -13.5 -3.6 -13.5 -1.6 -11.1 0.15 -9.0 0.15 -5.55 0.15 -2.85 -1.2 -0.15 -2.0 1.45 -3.85 3.85 L-3.9 3.9 -3.75 3.9 -3.75 6.0 -3.3 8.5 -3.2 9.9 -3.2 10.1 1.95 10.1 M-26.6 -4.0 Q-26.55 -2.95 -25.2 -1.9 L-22.45 -0.05 -22.35 0.0 -22.35 -0.05 M-4.8 -18.95 L-3.3 -18.75 -3.2 -18.75 M-3.45 9.85 L-3.75 10.15 -13.05 19.8 Q-20.8 15.95 -21.9 14.25 L-21.9 13.95 -22.2 7.85 -22.05 5.85 -22.35 5.8 -22.95 5.65 Q-24.9 5.4 -25.8 4.15 M-3.2 9.9 L-3.45 9.85 -15.5 7.15 -22.05 5.85 M-22.35 5.7 L-22.45 0.0 -22.45 -0.05 M-22.35 5.7 L-22.95 5.65 M-3.75 10.15 Q-7.6 11.4 -21.2 14.25 L-21.9 14.25" fill="none" stroke="#430101" stroke-linecap="round" stroke-linejoin="round" stroke-opacity="0.6" stroke-width="1"/>
  </g>
</svg>