<?xml version="1.0" encoding="UTF-8" standalone="no"?>
<svg xmlns:xlink="http://www.w3.org/1999/xlink" height="6.3px" width="7.85px" xmlns="http://www.w3.org/2000/svg">
  <g transform="matrix(1.0, 0.0, 0.0, 1.0, 3.4, 2.15)">
    <path d="M1.5 0.6 L1.05 1.3 0.0 1.65 Q-0.6 1.65 -0.45 1.1 L-0.25 0.5 1.05 0.25 Q1.5 0.25 1.5 0.6" fill="#ffffff" fill-rule="evenodd" stroke="none"/>
    <path d="M3.35 -0.6 L2.65 1.7 1.5 2.4 0.1 3.15 -0.8 2.65 -1.6 2.05 Q-2.5 0.9 -2.4 -0.4 L-0.7 -0.25 0.2 -0.6 0.7 -0.7 1.5 -0.95 2.9 -1.15 3.35 -0.6 M1.5 0.6 Q1.5 0.25 1.05 0.25 L-0.25 0.5 -0.45 1.1 Q-0.6 1.65 0.0 1.65 L1.05 1.3 1.5 0.6" fill="#ffff00" fill-rule="evenodd" stroke="none"/>
    <path d="M3.35 -0.6 L2.65 1.7 1.5 2.4 0.1 3.15 -0.8 2.65 -1.6 2.05 Q-2.5 0.9 -2.4 -0.4 L-0.7 -0.25 0.2 -0.6 0.7 -0.7 M3.35 -0.6 L3.45 -0.95" fill="none" stroke="#660000" stroke-linecap="round" stroke-linejoin="round" stroke-opacity="0.6" stroke-width="1"/>
  </g>
</svg>