<?xml version="1.0" encoding="UTF-8" standalone="no"?>
<svg xmlns:xlink="http://www.w3.org/1999/xlink" height="28.85px" width="21.6px" xmlns="http://www.w3.org/2000/svg">
  <g transform="matrix(1.0, 0.0, 0.0, 1.0, 11.4, 15.7)">
    <path d="M3.65 -9.9 L1.45 -8.3 1.9 -8.8 3.5 -9.85 3.65 -9.9 M-1.0 -5.05 Q-1.55 -3.9 -1.55 -2.85 L-1.55 -2.65 -1.45 -2.65 -0.85 -2.6 -0.25 -4.0 Q0.25 -5.5 0.7 -6.1 L3.75 -8.95 5.35 -10.25 5.85 -8.2 6.2 -6.65 4.4 -5.25 Q2.3 -3.4 1.75 -1.95 L2.45 -1.55 2.7 -1.45 2.75 -1.4 3.05 -1.2 Q2.5 -1.15 1.8 0.6 L2.2 1.0 Q0.2 -0.95 -3.0 -0.95 -7.1 -0.95 -9.05 1.75 L-9.1 1.8 -8.5 0.8 -7.15 -1.3 -5.55 -2.25 Q-5.7 -7.35 -2.6 -11.3 -1.6 -12.55 -0.15 -13.25 1.7 -14.15 3.85 -14.7 L5.2 -10.8 5.2 -10.85 Q4.9 -11.4 3.4 -10.85 1.65 -10.2 1.2 -9.65 L-0.4 -7.35 -2.2 -4.85 Q-3.15 -3.5 -3.1 -2.7 L-3.1 -2.65 -2.95 -2.7 -2.9 -2.7 -1.5 -4.5 -1.0 -5.05 M8.8 0.9 L8.7 0.6 9.1 1.75 9.1 1.85 9.2 2.1 Q9.2 2.6 8.05 3.65 L7.25 4.3 4.85 5.8 4.7 5.85 4.6 6.1 4.5 6.1 4.5 6.4 4.1 4.75 4.3 3.45 3.95 3.0 Q3.95 2.5 4.45 2.6 5.05 1.5 5.05 3.65 L5.05 4.2 5.1 4.0 5.1 3.95 5.1 3.8 Q5.55 3.2 7.25 1.9 8.2 1.2 8.8 0.9 M1.2 -1.8 L0.7 -2.15 -1.35 -2.45 -3.6 -2.2 Q-5.0 -1.9 -5.0 -1.6 L-4.95 -1.35 -3.7 -1.15 Q0.55 -1.15 1.2 -1.8 M8.95 1.85 L8.9 1.9 8.95 1.9 8.95 1.85 M4.7 5.85 L4.7 5.8 4.85 5.2 4.85 5.15 4.95 4.85 4.95 4.75 5.05 4.2 4.95 4.75 4.95 4.85 4.85 5.15 4.85 5.2 4.7 5.8 4.7 5.85 M-3.1 -2.7 L-5.55 -2.25 -3.1 -2.7 M-1.55 -2.65 L-2.45 -2.7 -2.9 -2.7 -2.45 -2.7 -1.55 -2.65 M2.45 -1.55 Q1.0 -2.35 -0.85 -2.6 1.0 -2.35 2.45 -1.55" fill="#9295a9" fill-rule="evenodd" stroke="none"/>
    <path d="M5.25 -10.6 L5.35 -10.25 3.75 -8.95 0.7 -6.1 Q0.25 -5.5 -0.25 -4.0 L-0.85 -2.6 -1.45 -2.65 -1.55 -2.65 -1.55 -2.85 Q-1.55 -3.9 -1.0 -5.05 L0.25 -7.0 0.35 -7.1 0.4 -7.2 1.45 -8.3 3.65 -9.9 5.25 -10.6 M6.2 -6.65 L6.5 -5.55 Q6.95 -3.9 7.5 -2.5 L8.8 0.9 Q8.2 1.2 7.25 1.9 5.55 3.2 5.1 3.8 L5.1 3.95 5.15 2.65 Q5.15 0.25 3.05 -1.2 5.15 0.25 5.15 2.65 L5.1 3.95 5.1 4.0 5.05 4.2 5.05 3.65 Q5.05 1.5 4.45 2.6 3.95 2.5 3.95 3.0 L4.3 3.45 4.1 4.75 3.25 2.15 2.8 1.6 2.75 1.55 2.7 1.45 2.2 1.0 2.7 1.45 2.75 1.55 2.8 1.6 3.25 2.15 4.1 4.75 4.5 6.4 4.5 6.55 4.4 7.35 Q3.95 9.6 1.85 10.85 -0.2 12.15 -3.05 12.15 -5.95 12.15 -8.2 10.1 -10.4 8.15 -10.4 5.8 -10.4 4.35 -9.8 3.1 L-9.05 1.75 Q-7.1 -0.95 -3.0 -0.95 0.2 -0.95 2.2 1.0 L1.8 0.6 Q2.5 -1.15 3.05 -1.2 L2.75 -1.4 2.7 -1.45 2.45 -1.55 1.75 -1.95 Q2.3 -3.4 4.4 -5.25 L6.2 -6.65 M8.95 1.85 L8.95 1.9 8.9 1.9 8.95 1.85 M-0.6 3.65 Q-1.5 2.75 -3.5 2.75 -4.55 2.75 -5.7 3.4 -6.8 4.0 -7.0 4.75 L-7.3 5.55 -7.25 6.7 Q-7.2 7.35 -6.2 8.65 -5.2 9.95 -3.6 9.95 -1.95 9.95 -0.8 8.95 0.3 7.95 0.3 6.4 0.3 4.55 -0.6 3.65" fill="#5e5f77" fill-rule="evenodd" stroke="none"/>
    <path d="M5.25 -10.6 L3.65 -9.9 3.5 -9.85 1.9 -8.8 1.45 -8.3 0.4 -7.2 0.35 -7.1 0.25 -7.0 -1.0 -5.05 -1.5 -4.5 -2.9 -2.7 -2.95 -2.7 -3.1 -2.7 -2.95 -2.7 -3.1 -2.65 -3.1 -2.7 Q-3.15 -3.5 -2.2 -4.85 L-0.4 -7.35 1.2 -9.65 Q1.65 -10.2 3.4 -10.85 4.9 -11.4 5.2 -10.85 L5.2 -10.8 5.25 -10.65 5.25 -10.6 5.2 -10.8 5.25 -10.6 M1.2 -1.8 Q0.55 -1.15 -3.7 -1.15 L-4.95 -1.35 -5.0 -1.6 Q-5.0 -1.9 -3.6 -2.2 L-1.35 -2.45 0.7 -2.15 1.2 -1.8" fill="#ffffff" fill-rule="evenodd" stroke="none"/>
    <path d="M-0.6 3.65 Q0.3 4.55 0.3 6.4 0.3 7.95 -0.8 8.95 -1.95 9.95 -3.6 9.95 -5.2 9.95 -6.2 8.65 -7.2 7.35 -7.25 6.7 L-7.3 5.55 -7.0 4.75 Q-6.8 4.0 -5.7 3.4 -4.55 2.75 -3.5 2.75 -1.5 2.75 -0.6 3.65" fill="#22222b" fill-rule="evenodd" stroke="none"/>
    <path d="M5.35 -10.25 L5.25 -10.6 5.2 -10.8 3.85 -14.7 Q1.7 -14.15 -0.15 -13.25 -1.6 -12.55 -2.6 -11.3 -5.7 -7.35 -5.55 -2.25 L-3.1 -2.7 -2.95 -2.7 M-1.55 -2.65 L-1.45 -2.65 M5.35 -10.25 L5.85 -8.2 6.2 -6.65 6.5 -5.55 Q6.95 -3.9 7.5 -2.5 L8.8 0.9 M8.7 0.6 L9.1 1.75 9.1 1.85 9.2 2.1 Q9.2 2.6 8.05 3.65 L7.25 4.3 4.85 5.8 4.7 5.85 4.6 6.1 4.6 6.15 4.5 6.55 4.4 7.35 Q3.95 9.6 1.85 10.85 -0.2 12.15 -3.05 12.15 -5.95 12.15 -8.2 10.1 -10.4 8.15 -10.4 5.8 -10.4 4.35 -9.8 3.1 L-9.1 1.8 -8.5 0.8 -7.15 -1.3 -5.55 -2.25 M2.45 -1.55 L2.7 -1.45 2.75 -1.4 3.05 -1.2 Q5.15 0.25 5.15 2.65 L5.1 3.95 5.1 4.0 5.05 4.2 4.95 4.75 4.95 4.85 4.85 5.15 4.85 5.2 4.7 5.8 4.7 5.85 M4.1 4.75 L3.25 2.15 2.8 1.6 2.75 1.55 2.7 1.45 2.2 1.0 Q0.2 -0.95 -3.0 -0.95 -7.1 -0.95 -9.05 1.75 L-9.8 3.1 M4.5 6.1 L4.6 6.15 M4.5 6.55 L4.5 6.4 4.1 4.75 M4.5 6.4 L4.5 6.1 M-2.9 -2.7 L-2.45 -2.7 -1.55 -2.65 M-0.6 3.65 Q0.3 4.55 0.3 6.4 0.3 7.95 -0.8 8.95 -1.95 9.95 -3.6 9.95 -5.2 9.95 -6.2 8.65 -7.2 7.35 -7.25 6.7 L-7.3 5.55 -7.0 4.75 Q-6.8 4.0 -5.7 3.4 -4.55 2.75 -3.5 2.75 -1.5 2.75 -0.6 3.65 M-0.85 -2.6 Q1.0 -2.35 2.45 -1.55" fill="none" stroke="#430101" stroke-linecap="round" stroke-linejoin="round" stroke-opacity="0.6" stroke-width="1"/>
  </g>
</svg>