<?xml version="1.0" encoding="UTF-8" standalone="no"?>
<svg xmlns:xlink="http://www.w3.org/1999/xlink" height="62.4px" width="62.2px" xmlns="http://www.w3.org/2000/svg">
  <g transform="matrix(1.0, 0.0, 0.0, 1.0, 29.75, 8.7)">
    <clipPath id="clipPath0" transform="matrix(1.0, 0.0, 0.0, 1.0, 0.0, 0.0)">
      <path d="M1.1 -5.15 Q2.05 -7.3 5.15 -6.95 8.1 -6.65 8.1 -5.55 8.1 -4.45 6.0 -3.65 L2.45 -4.1 1.1 -5.15 M4.1 -2.3 L6.0 -2.3 6.15 -1.65 6.1 -1.25 6.0 -1.05 5.05 -0.9 4.1 -1.05 Q3.95 -0.9 3.95 -1.65 L3.95 -2.1 4.1 -2.3 M15.75 -0.9 Q15.75 0.05 14.75 0.05 11.95 0.05 10.35 -0.85 9.05 -1.55 9.05 -2.45 9.05 -4.35 12.4 -3.35 15.75 -2.35 15.75 -0.9 M17.4 5.55 Q17.95 5.8 18.15 6.6 L17.4 7.35 16.65 6.45 Q16.65 5.95 16.8 5.8 L17.4 5.55 M11.75 4.55 L11.7 5.3 10.35 5.55 Q9.55 5.55 9.0 4.8 9.4 4.15 10.1 3.85 L11.55 3.9 11.65 4.0 11.75 4.55 M0.0 5.55 Q-0.85 5.55 -1.1 4.8 L-1.2 4.2 Q-1.2 3.05 -0.15 3.2 0.6 3.35 2.4 4.4 L1.8 5.15 Q1.25 5.55 0.0 5.55 M3.05 8.4 Q3.05 5.7 6.5 6.35 9.95 7.05 9.95 8.45 9.95 9.65 8.6 10.25 L6.15 10.65 Q4.45 10.65 3.6 9.6 3.05 8.9 3.05 8.4 M6.4 16.15 L6.45 16.65 5.4 17.55 4.8 17.15 Q5.5 15.9 6.3 16.25 L6.4 16.15 M-12.5 -2.0 Q-13.65 -2.0 -13.65 -3.2 -13.65 -4.65 -11.65 -5.4 -9.65 -6.15 -9.65 -4.7 L-10.95 -3.25 Q-12.25 -2.0 -12.5 -2.0 M-2.85 -6.8 L-3.15 -7.35 -2.3 -7.7 -0.9 -7.5 -0.9 -7.05 -2.85 -6.8 M-7.95 -3.1 Q-7.95 -5.5 -4.45 -5.5 -0.95 -5.5 -0.95 -3.25 -0.95 -0.75 -5.25 -0.75 -7.0 -0.75 -7.95 -3.1 M-9.7 4.3 Q-10.2 4.8 -10.55 4.8 L-12.4 4.55 -13.65 3.75 Q-13.0 2.45 -11.1 2.1 -9.2 1.8 -9.2 3.15 -9.2 3.75 -9.7 4.3 M-5.6 7.85 L-5.55 8.45 Q-5.55 9.05 -5.9 9.2 L-6.9 9.35 -8.1 9.2 -8.25 8.6 Q-8.25 8.0 -7.65 7.7 L-5.7 7.65 -5.6 7.85 M-0.05 10.6 Q1.25 10.85 1.25 11.7 1.25 12.75 -0.2 12.75 -1.4 12.75 -1.35 11.6 -1.35 10.4 -0.05 10.6 M-16.95 6.75 L-17.45 6.9 -17.7 6.75 -17.7 6.05 -16.95 6.2 -16.8 6.6 -16.95 6.75 M-15.5 24.5 L-16.05 25.05 -16.65 24.75 Q-16.65 24.15 -16.05 23.9 -15.7 24.05 -15.5 24.5 M-11.45 13.5 Q-11.85 13.8 -12.8 13.8 L-13.65 13.65 -13.8 13.0 Q-13.8 12.4 -12.9 12.35 -12.0 12.25 -11.0 12.95 L-11.45 13.5 M-4.8 18.4 Q-4.65 18.5 -4.65 18.95 -4.65 19.8 -5.85 19.8 -6.75 19.8 -6.75 18.85 L-6.35 18.25 -4.95 18.2 -4.8 18.4" fill="#00ff00" fill-rule="evenodd" stroke="none"/>
    </clipPath>
    <g clip-path="url(#clipPath0)">
      <use data-characterId="2122" height="62.05" transform="matrix(1.0, 0.0, 0.0, 1.0, -29.75, -8.35)" width="62.2" xlink:href="#sprite1"/>
    </g>
  </g>
  <defs>
    <g id="sprite1" transform="matrix(1.0, 0.0, 0.0, 1.0, 67.5, 23.0)">
      <use data-characterId="2121" height="62.05" transform="matrix(1.0, 0.0, 0.0, 1.0, -67.5, -23.0)" width="62.2" xlink:href="#shape1"/>
    </g>
    <g id="shape1" transform="matrix(1.0, 0.0, 0.0, 1.0, 67.5, 23.0)">
      <path d="M-65.65 26.4 L-65.95 24.1 Q-66.05 20.75 -66.3 17.55 L-66.55 14.65 -66.6 14.0 -66.3 11.0 -63.95 4.95 -63.2 5.8 -62.4 6.3 -61.0 6.75 -62.2 5.7 Q-63.2 5.0 -63.4 3.5 -63.95 -0.1 -62.15 -3.35 L-58.8 -9.1 -57.1 -11.55 Q-54.6 -14.95 -51.3 -17.7 -47.4 -21.0 -42.25 -21.65 -38.65 -22.1 -35.05 -21.8 -31.15 -21.4 -27.35 -20.3 -24.6 -19.4 -22.05 -18.15 L-20.5 -15.2 Q-18.6 -11.25 -18.6 -9.5 -18.6 -7.5 -20.6 -6.1 L-24.0 -3.8 Q-26.05 -1.55 -28.5 2.8 L-30.15 6.95 Q-30.95 9.2 -31.9 9.9 -32.4 10.25 -35.75 11.4 -38.75 12.45 -38.75 12.75 L-38.45 15.1 Q-38.15 16.1 -38.15 17.4 -38.15 22.1 -45.2 25.75 -51.75 29.15 -58.9 29.15 -62.25 29.15 -65.65 26.4" fill="url(#gradient0)" fill-rule="evenodd" stroke="none"/>
      <path d="M-22.05 -18.15 L-19.95 -17.0 Q-16.55 -14.95 -13.7 -12.3 -11.7 -10.4 -10.2 -8.15 L-10.5 -3.0 Q-10.5 -1.4 -9.75 0.15 L-7.8 3.45 Q-7.4 4.1 -7.05 5.95 L-7.3 12.6 -7.25 13.35 Q-8.2 15.1 -11.25 16.35 -14.3 17.55 -17.45 20.0 -20.65 22.45 -16.0 24.75 -11.35 27.05 -14.7 29.6 L-14.75 29.6 -15.75 30.0 -16.25 30.2 Q-21.2 32.45 -26.15 33.7 -31.1 34.95 -35.05 34.9 L-35.05 34.85 Q-33.1 33.7 -27.6 32.3 -30.85 32.1 -32.3 32.35 L-33.85 32.35 -37.5 32.7 Q-37.65 32.75 -39.15 33.55 L-41.1 34.65 -45.85 37.65 Q-49.8 38.15 -53.55 37.05 -58.05 35.6 -61.9 32.45 -64.85 29.95 -65.65 26.4 -62.25 29.15 -58.9 29.15 -51.75 29.15 -45.2 25.75 -38.15 22.1 -38.15 17.4 -38.15 16.1 -38.45 15.1 L-38.75 12.75 Q-38.75 12.45 -35.75 11.4 -32.4 10.25 -31.9 9.9 -30.95 9.2 -30.15 6.95 L-28.5 2.8 Q-26.05 -1.55 -24.0 -3.8 L-20.6 -6.1 Q-18.6 -7.5 -18.6 -9.5 -18.6 -11.25 -20.5 -15.2 L-22.05 -18.15 M-6.9 18.0 L-6.8 17.1 -6.9 18.9 -6.9 18.0" fill="#e0cbcb" fill-rule="evenodd" stroke="none"/>
      <path d="M-53.2 -17.25 Q-49.25 -20.65 -44.55 -22.1 -39.3 -23.6 -33.9 -22.65 -28.65 -21.85 -23.8 -20.2 L-23.2 -19.9 Q-21.45 -19.15 -19.8 -18.2 -15.75 -16.0 -12.55 -12.65 -8.25 -8.3 -6.4 -2.7 -4.85 1.95 -5.45 6.95 -5.75 9.5 -6.4 12.05 L-6.4 12.2 Q-6.5 13.6 -6.0 16.2 -5.5 19.0 -5.5 20.2 -5.5 23.4 -6.8 25.35 -8.7 28.15 -14.05 30.4 L-16.25 31.5 Q-21.5 33.9 -27.0 35.15 L-35.05 36.05 -37.6 36.1 -37.2 36.1 -40.1 37.6 Q-43.5 39.0 -46.85 39.05 -51.5 39.05 -55.25 37.8 -59.05 36.5 -62.15 33.75 -65.1 31.1 -66.3 27.4 L-66.65 26.2 -66.85 25.35 Q-67.65 21.65 -67.45 17.9 L-67.4 14.65 -67.45 12.5 -67.35 10.85 Q-67.05 9.15 -66.3 7.55 L-64.25 4.25 Q-65.3 1.45 -63.7 -2.15 -62.1 -5.8 -59.75 -9.1 -57.2 -13.75 -53.2 -17.25 M-22.05 -18.15 Q-24.6 -19.4 -27.35 -20.3 -31.15 -21.4 -35.05 -21.8 -38.65 -22.1 -42.25 -21.65 -47.4 -21.0 -51.3 -17.7 -54.6 -14.95 -57.1 -11.55 L-58.8 -9.1 -62.15 -3.35 Q-63.95 -0.1 -63.4 3.5 -63.2 5.0 -62.2 5.7 L-61.0 6.75 -62.4 6.3 -63.2 5.8 -63.95 4.95 -66.3 11.0 -66.6 14.0 -66.55 14.65 -66.3 17.55 Q-66.05 20.75 -65.95 24.1 L-65.65 26.4 Q-64.85 29.95 -61.9 32.45 -58.05 35.6 -53.55 37.05 -49.8 38.15 -45.85 37.65 L-45.15 37.55 -40.35 36.2 Q-38.2 35.35 -37.2 34.65 -36.25 33.95 -35.3 33.6 L-33.15 32.6 -32.3 32.35 Q-30.85 32.1 -27.6 32.3 -33.1 33.7 -35.05 34.85 L-35.1 34.9 -35.05 34.9 Q-31.1 34.95 -26.15 33.7 -21.2 32.45 -16.25 30.2 L-15.75 30.0 -14.75 29.6 -14.7 29.6 Q-10.3 27.65 -8.35 25.75 L-7.85 25.15 Q-6.45 23.45 -6.45 20.3 L-6.75 17.55 -6.8 17.05 -6.85 16.95 -7.25 13.35 -7.3 12.6 -7.05 5.95 -6.9 4.1 -6.8 4.1 -6.55 7.1 -6.45 7.8 -6.4 7.15 Q-5.85 2.55 -7.15 -1.75 -8.2 -5.2 -10.2 -8.15 -11.7 -10.4 -13.7 -12.3 -16.55 -14.95 -19.95 -17.0 L-22.05 -18.15" fill="#a36a6a" fill-rule="evenodd" stroke="none"/>
      <path d="M-10.2 -8.15 Q-8.2 -5.2 -7.15 -1.75 -5.85 2.55 -6.4 7.15 L-6.55 7.1 -6.8 4.1 -6.9 4.1 -7.05 5.95 Q-7.4 4.1 -7.8 3.45 L-9.75 0.15 Q-10.5 -1.4 -10.5 -3.0 L-10.2 -8.15 M-7.25 13.35 L-6.85 16.95 -6.8 17.05 -6.75 17.55 -6.45 20.3 Q-6.45 23.45 -7.85 25.15 L-8.35 25.75 Q-10.3 27.65 -14.7 29.6 -11.35 27.05 -16.0 24.75 -20.65 22.45 -17.45 20.0 -14.3 17.55 -11.25 16.35 -8.2 15.1 -7.25 13.35 M-32.3 32.35 L-33.15 32.6 -35.3 33.6 Q-36.25 33.95 -37.2 34.65 -38.2 35.35 -40.35 36.2 L-45.15 37.55 -45.85 37.65 -41.1 34.65 -39.15 33.55 Q-37.65 32.75 -37.5 32.7 L-33.85 32.35 -32.3 32.35 M-6.9 18.0 L-6.9 18.9 -6.8 17.1 -6.9 18.0" fill="#ffffff" fill-rule="evenodd" stroke="none"/>
    </g>
    <radialGradient cx="0" cy="0" gradientTransform="matrix(0.022, -0.0183, 0.0147, 0.0177, -45.0, -8.95)" gradientUnits="userSpaceOnUse" id="gradient0" r="819.2" spreadMethod="pad">
      <stop offset="0.47843137254901963" stop-color="#ffffff"/>
      <stop offset="0.8823529411764706" stop-color="#f2eaea"/>
    </radialGradient>
  </defs>
</svg>
