<?xml version="1.0" encoding="UTF-8" standalone="no"?>
<svg xmlns:xlink="http://www.w3.org/1999/xlink" height="26.1px" width="19.95px" xmlns="http://www.w3.org/2000/svg">
  <g transform="matrix(1.0, 0.0, 0.0, 1.0, 9.95, 13.05)">
    <path d="M8.5 0.95 Q7.4 0.15 6.55 -0.15 L3.9 -1.15 0.95 -0.9 0.45 -0.7 0.95 0.8 0.5 0.3 0.5 0.35 0.15 0.1 -0.55 -0.45 -1.45 -1.15 -1.75 -1.05 -1.75 -0.55 -1.45 0.55 -1.0 2.05 -0.8 2.7 -1.75 2.05 -3.0 0.55 -4.4 -0.65 -5.7 -1.55 Q-6.25 -2.1 -7.2 -1.95 L-8.1 -1.45 -8.15 -4.45 -7.9 -6.25 -6.9 -10.15 Q-6.35 -8.55 -6.15 -6.75 -6.0 -5.45 -5.3 -4.45 L-4.85 -3.9 -5.05 -4.45 -5.65 -7.05 -6.1 -11.1 -5.8 -11.05 -5.05 -10.3 Q-4.35 -9.25 -4.0 -8.25 L-3.45 -7.35 Q-3.0 -5.9 -1.85 -4.45 L-0.4 -2.95 -0.4 -3.25 -1.05 -4.45 -1.85 -5.95 -1.9 -6.05 -2.25 -6.35 -0.6 -5.2 0.65 -4.55 Q2.8 -3.5 5.1 -2.55 7.55 -2.0 8.35 0.4 L8.5 0.95" fill="#ffffcc" fill-rule="evenodd" stroke="none"/>
    <path d="M-8.1 -1.45 L-7.2 -1.95 Q-6.25 -2.1 -5.7 -1.55 L-4.4 -0.65 -3.0 0.55 -1.75 2.05 -0.8 2.7 -1.0 2.05 -1.45 0.55 -1.75 -0.55 -1.75 -1.05 -1.45 -1.15 -0.55 -0.45 0.15 0.1 0.5 0.35 0.5 0.3 0.95 0.8 0.45 -0.7 0.95 -0.9 3.9 -1.15 6.55 -0.15 Q7.4 0.15 8.5 0.95 L8.55 1.25 8.6 1.45 8.6 2.05 8.6 2.5 8.5 3.6 7.8 3.0 6.6 2.6 7.2 3.2 8.3 4.6 7.2 7.5 6.35 8.85 5.6 9.8 5.45 10.0 5.35 10.05 5.2 10.15 4.65 10.5 4.1 10.55 3.6 10.0 Q2.9 9.3 2.9 9.65 L3.35 11.05 2.6 11.3 0.8 11.75 -1.5 10.95 -1.9 10.0 -2.4 7.8 -2.5 7.3 -2.7 8.55 -2.55 9.75 -2.5 10.0 -2.35 10.6 -3.2 10.0 -3.6 9.7 -4.55 8.8 -4.95 8.15 -5.15 7.7 -6.35 4.9 -7.0 3.05 -7.7 0.55 -7.8 0.15 -8.0 -0.9 -8.1 -1.45" fill="#e0cca3" fill-rule="evenodd" stroke="none"/>
    <path d="M0.6 -4.45 L-0.65 -5.1 -1.6 -5.75 -0.95 -4.5 -0.3 -3.3 -0.3 -3.25 -0.3 -2.95 -0.3 -2.85 -0.4 -2.85 -0.45 -2.85 -1.9 -4.35 Q-3.1 -5.8 -3.55 -7.3 L-4.1 -8.2 -5.1 -10.25 -5.85 -10.95 -6.0 -11.0 -5.55 -7.05 -4.95 -4.45 -4.75 -3.9 -4.75 -3.85 -4.8 -3.8 -4.85 -3.8 -4.9 -3.8 -5.35 -4.4 Q-6.1 -5.4 -6.25 -6.75 -6.45 -8.35 -6.9 -9.8 L-7.8 -6.2 -8.05 -4.45 -8.0 -1.45 -7.9 -0.9 -7.7 0.15 -7.6 0.55 -6.9 3.05 -6.25 4.9 -5.05 7.65 -4.85 8.15 -4.85 8.1 -4.45 8.75 -3.55 9.65 -3.15 9.95 -2.5 10.4 -2.6 10.05 -2.6 10.0 -2.65 9.8 -2.8 8.55 -2.6 7.3 -2.55 7.25 -2.5 7.2 -2.4 7.25 -2.4 7.3 -2.3 7.8 -1.8 10.0 -1.8 9.95 -1.4 10.9 0.85 11.65 0.9 11.7 0.9 11.75 0.9 11.8 0.85 11.95 0.85 12.05 0.75 12.05 0.7 12.05 -0.8 11.85 -2.3 11.35 -3.4 10.75 -4.55 9.85 -5.2 9.15 -5.2 9.1 -6.05 7.65 -6.65 6.2 -7.1 5.0 -8.0 2.75 -8.6 0.8 -8.65 0.6 Q-9.1 -2.0 -8.9 -4.45 L-8.85 -5.25 Q-8.5 -7.85 -7.5 -10.2 -7.0 -11.45 -5.8 -12.05 L-5.7 -12.05 Q-4.6 -11.6 -4.1 -10.5 -3.45 -9.1 -2.45 -8.05 -0.9 -6.35 1.1 -5.4 L5.65 -3.6 6.85 -2.9 Q7.9 -2.3 8.55 -1.35 L8.55 -1.3 8.9 0.05 8.9 0.1 8.95 1.45 9.0 2.05 9.0 2.1 8.95 2.5 8.85 3.6 8.85 3.65 8.5 5.2 8.2 6.25 7.8 7.25 7.3 8.1 6.3 9.45 5.5 10.1 5.4 10.1 5.35 10.05 5.35 10.0 5.35 9.95 5.55 9.75 6.3 8.8 7.1 7.45 8.2 4.65 7.15 3.3 6.55 2.7 6.5 2.65 6.5 2.55 6.55 2.5 6.65 2.5 Q7.45 2.65 7.85 2.95 L7.85 2.9 8.45 3.35 8.5 2.5 8.5 2.05 8.5 1.5 8.45 1.3 8.45 1.25 8.4 1.0 8.25 0.45 Q7.45 -1.9 5.1 -2.45 L5.05 -2.45 0.6 -4.45" fill="#a36a6a" fill-rule="evenodd" stroke="none"/>
  </g>
</svg>