<?xml version="1.0" encoding="UTF-8" standalone="no"?>
<svg xmlns:xlink="http://www.w3.org/1999/xlink" height="24.95px" width="17.1px" xmlns="http://www.w3.org/2000/svg">
  <g transform="matrix(1.0, 0.0, 0.0, 1.0, 8.65, 16.35)">
    <path d="M-5.1 -7.95 L-5.0 -8.35 -4.3 -10.3 -3.25 -12.85 -2.95 -13.35 -3.1 -11.7 -2.7 -9.3 -2.6 -9.4 -2.6 -9.7 -2.7 -10.35 Q-2.7 -12.0 -2.05 -14.3 L-2.0 -14.3 -0.85 -10.5 Q-0.5 -8.65 0.9 -6.7 2.75 -4.05 4.15 -2.95 6.55 -0.9 6.55 0.95 6.55 2.3 5.95 3.5 L4.95 5.2 4.9 5.2 4.0 4.35 2.2 1.95 Q1.0 0.25 0.15 -1.6 -0.5 -3.05 -1.0 -3.5 -1.1 -2.85 -1.55 -2.8 -2.7 -4.5 -2.65 -5.85 L-2.75 -5.85 -3.3 -4.3 Q-3.9 -2.95 -4.35 -2.6 L-4.85 -5.85 -5.1 -7.95" fill="#ffffcc" fill-rule="evenodd" stroke="none"/>
    <path d="M-5.1 -7.95 L-4.85 -5.85 -4.35 -2.6 Q-3.9 -2.95 -3.3 -4.3 L-2.75 -5.85 -2.65 -5.85 Q-2.7 -4.5 -1.55 -2.8 -1.1 -2.85 -1.0 -3.5 -0.5 -3.05 0.15 -1.6 1.0 0.25 2.2 1.95 L4.0 4.35 4.9 5.2 4.15 5.6 3.9 5.35 3.5 4.75 Q3.25 4.8 3.25 5.0 3.25 5.4 3.8 5.85 L2.25 6.5 Q1.45 4.6 1.05 4.6 L0.95 4.65 0.95 5.1 Q1.35 6.35 1.9 7.05 L0.95 7.15 -2.8 6.65 -3.15 5.8 -3.55 5.05 -3.85 3.35 -4.1 3.35 -4.15 4.2 -3.6 6.35 Q-5.55 5.45 -6.45 3.65 L-6.5 3.45 -6.65 2.7 -6.7 1.65 Q-6.7 0.3 -5.5 -6.3 L-5.1 -7.95" fill="#e0cca3" fill-rule="evenodd" stroke="none"/>
    <path d="M1.7 -7.3 Q3.25 -5.05 6.05 -2.55 7.45 -1.25 7.45 0.85 7.45 2.2 6.65 3.65 L5.35 5.35 5.35 5.5 5.3 5.5 5.3 5.55 4.7 6.1 4.75 6.1 3.8 6.7 3.1 7.2 0.95 7.6 Q-3.05 7.6 -5.35 5.8 L-6.8 4.2 Q-7.65 3.9 -7.65 1.0 -7.65 -1.95 -6.45 -7.1 L-5.3 -10.45 -4.95 -11.15 -4.95 -11.2 -4.9 -11.2 -4.05 -13.3 -4.05 -13.35 Q-3.5 -14.65 -2.3 -15.25 L-1.65 -15.25 -1.25 -14.6 -0.9 -13.35 -0.1 -11.3 0.6 -9.3 Q1.05 -8.15 1.7 -7.3 M4.1 -2.85 Q2.7 -4.0 0.85 -6.65 -0.6 -8.6 -0.95 -10.45 L-2.0 -14.0 Q-2.6 -11.9 -2.6 -10.35 L-2.5 -9.75 -2.5 -9.4 -2.5 -9.3 -2.6 -9.2 -2.7 -9.2 -2.75 -9.2 -2.8 -9.25 -3.2 -11.7 -3.1 -12.85 -3.15 -12.8 -4.2 -10.25 -4.9 -8.3 -5.0 -7.9 -5.4 -6.3 -5.4 -6.25 Q-6.6 0.3 -6.6 1.65 L-6.55 2.7 -6.4 3.45 -6.35 3.6 Q-5.5 5.25 -3.8 6.1 L-4.25 4.25 -4.2 3.35 -4.15 3.3 -4.1 3.25 -3.85 3.25 -3.75 3.3 -3.75 3.35 -3.45 5.05 -3.05 5.75 -2.7 6.55 0.95 7.05 1.75 7.0 0.85 5.15 0.85 4.65 0.9 4.6 0.9 4.55 1.0 4.5 1.05 4.5 Q1.5 4.45 2.35 6.4 L3.6 5.85 Q3.15 5.45 3.15 5.0 3.15 4.7 3.5 4.65 L3.55 4.65 3.6 4.7 3.6 4.75 4.0 5.3 4.2 5.5 Q4.65 5.15 4.85 5.1 L4.9 5.1 5.85 3.45 Q6.45 2.25 6.45 0.95 6.45 -0.85 4.1 -2.85" fill="#a36a6a" fill-rule="evenodd" stroke="none"/>
  </g>
</svg>