<?xml version="1.0" encoding="UTF-8" standalone="no"?>
<svg xmlns:xlink="http://www.w3.org/1999/xlink" height="16.65px" width="16.85px" xmlns="http://www.w3.org/2000/svg">
  <g transform="matrix(1.0, 0.0, 0.0, 1.0, 8.45, 8.3)">
    <path d="M6.25 2.85 L6.4 1.65 Q6.55 0.85 5.95 -0.25 L5.9 -0.25 Q5.45 -1.3 4.3 -2.05 L1.9 -3.95 Q0.75 -4.85 -0.25 -5.7 L-0.25 -5.35 -0.2 -3.5 -0.2 -3.45 -0.4 -3.0 -0.45 -2.95 -0.5 -2.95 -0.6 -3.0 -0.95 -4.45 -1.05 -5.8 -1.0 -6.2 Q-1.9 -6.5 -2.75 -5.35 L-4.45 -3.25 -6.0 -0.25 -6.25 0.65 Q-6.6 1.9 -6.25 3.35 L-6.25 3.5 -5.75 4.35 Q-5.05 5.45 -4.0 6.15 L-4.15 5.65 Q-4.4 4.45 -4.15 3.3 L-4.1 3.25 -4.05 3.2 -3.95 3.25 -3.95 3.3 -3.65 4.7 -3.0 6.6 1.6 6.9 1.3 6.3 1.25 6.3 Q0.7 5.2 0.55 4.0 L0.6 3.9 0.65 3.85 0.7 3.85 0.75 3.9 2.25 6.65 3.4 6.4 3.1 5.7 3.1 5.65 3.15 5.6 3.2 5.55 3.35 5.55 3.45 5.6 3.55 5.65 3.6 5.7 3.6 5.75 3.8 6.25 4.5 5.85 Q5.8 4.55 6.25 2.9 L6.25 2.85 M3.35 -4.3 L5.3 -3.0 6.7 -1.5 7.3 -0.3 7.4 1.05 Q7.3 3.5 5.6 5.35 4.1 6.9 2.1 7.3 L2.05 7.3 -2.2 7.2 -4.2 6.5 Q-5.3 6.05 -7.0 4.4 L-7.05 4.35 -7.3 3.45 Q-7.6 1.55 -7.35 -0.3 L-7.35 -0.35 -6.05 -2.85 -5.1 -4.2 -3.45 -6.15 Q-2.6 -7.1 -1.6 -7.25 L0.15 -6.95 1.65 -5.8 3.35 -4.3" fill="#a36a6a" fill-rule="evenodd" stroke="none"/>
    <path d="M6.25 2.85 L5.6 2.35 Q3.6 0.9 1.4 -0.3 L0.65 -0.65 -0.25 -0.3 -0.6 0.3 -0.65 -0.3 -0.7 -1.25 Q-0.7 -2.0 -1.8 -1.95 L-1.9 -1.3 -2.05 -0.55 -2.15 -0.3 -3.0 0.9 -3.4 0.45 -4.2 0.55 -5.1 1.35 Q-5.9 2.25 -6.25 3.35 -6.6 1.9 -6.25 0.65 L-6.0 -0.25 -4.45 -3.25 -2.75 -5.35 Q-1.9 -6.5 -1.0 -6.2 L-1.05 -5.8 -0.95 -4.45 -0.6 -3.0 -0.5 -2.95 -0.45 -2.95 -0.4 -3.0 -0.2 -3.45 -0.2 -3.5 -0.25 -5.35 -0.25 -5.7 Q0.75 -4.85 1.9 -3.95 L4.3 -2.05 Q5.45 -1.3 5.9 -0.25 L5.95 -0.25 Q6.55 0.85 6.4 1.65 L6.25 2.85" fill="#ffffcc" fill-rule="evenodd" stroke="none"/>
    <path d="M-6.25 3.35 Q-5.9 2.25 -5.1 1.35 L-4.2 0.55 -3.4 0.45 -3.0 0.9 -2.15 -0.3 -2.05 -0.55 -1.9 -1.3 -1.8 -1.95 Q-0.7 -2.0 -0.7 -1.25 L-0.65 -0.3 -0.6 0.3 -0.25 -0.3 0.65 -0.65 1.4 -0.3 Q3.6 0.9 5.6 2.35 L6.25 2.85 6.25 2.9 Q5.8 4.55 4.5 5.85 L3.8 6.25 3.6 5.75 3.6 5.7 3.55 5.65 3.45 5.6 3.35 5.55 3.2 5.55 3.15 5.6 3.1 5.65 3.1 5.7 3.4 6.4 2.25 6.65 0.75 3.9 0.7 3.85 0.65 3.85 0.6 3.9 0.55 4.0 Q0.7 5.2 1.25 6.3 L1.3 6.3 1.6 6.9 -3.0 6.6 -3.65 4.7 -3.95 3.3 -3.95 3.25 -4.05 3.2 -4.1 3.25 -4.15 3.3 Q-4.4 4.45 -4.15 5.65 L-4.0 6.15 Q-5.05 5.45 -5.75 4.35 L-6.25 3.5 -6.25 3.35" fill="#e0cca3" fill-rule="evenodd" stroke="none"/>
  </g>
</svg>