<?xml version="1.0" encoding="UTF-8" standalone="no"?>
<svg xmlns:xlink="http://www.w3.org/1999/xlink" height="18.6px" width="21.4px" xmlns="http://www.w3.org/2000/svg">
  <g transform="matrix(1.0, 0.0, 0.0, 1.0, 10.7, 9.3)">
    <path d="M6.95 -2.4 Q9.7 1.3 9.7 5.4 8.85 7.25 8.1 7.85 L7.8 7.95 7.0 8.25 6.95 8.3 6.9 8.25 Q6.35 6.35 4.6 4.7 1.75 2.0 -3.35 1.45 L-4.2 1.5 -4.5 1.4 -4.5 1.45 -4.8 1.7 Q-7.5 1.7 -8.85 -0.6 -9.7 -2.05 -9.7 -3.15 -9.7 -6.15 -6.0 -7.55 L-4.65 -8.0 -2.3 -7.95 -1.5 -7.9 1.05 -7.15 Q3.15 -6.3 4.15 -5.2 L6.65 -2.8 6.95 -2.4 M7.25 -0.2 L5.75 -2.35 Q4.4 -4.05 2.8 -5.25 0.45 -6.75 -1.2 -7.15 L-1.9 -7.2 -3.45 -7.3 Q-4.3 -7.0 -4.7 -7.0 -5.1 -7.0 -6.4 -6.4 L-8.15 -5.5 -8.65 -4.3 -8.9 -3.15 Q-8.9 -1.35 -6.9 -0.1 L-5.3 0.8 -4.7 0.7 -4.6 0.7 -2.3 0.85 Q0.45 1.25 1.6 1.95 3.8 2.7 5.35 4.25 L5.4 4.3 Q6.75 5.65 7.35 7.15 L7.9 6.7 Q8.9 5.9 8.9 5.4 8.9 3.5 8.1 1.55 L7.25 -0.2" fill="#a36a6a" fill-rule="evenodd" stroke="none"/>
    <path d="M2.65 -2.3 L2.6 -2.0 Q2.55 -1.45 3.15 -1.45 L3.65 -1.9 3.1 -2.15 2.65 -2.3 M-1.9 -7.2 L-1.2 -7.15 Q0.45 -6.75 2.8 -5.25 4.4 -4.05 5.75 -2.35 L7.25 -0.2 Q7.0 1.5 5.35 1.5 5.15 1.5 0.8 -0.5 -0.45 -0.9 -1.2 -1.45 -2.6 -2.4 -2.6 -4.35 -2.6 -5.85 -1.9 -7.2" fill="#e0cbcb" fill-rule="evenodd" stroke="none"/>
    <path d="M-1.9 -7.2 Q-2.6 -5.85 -2.6 -4.35 -2.6 -2.4 -1.2 -1.45 -0.45 -0.9 0.8 -0.5 5.15 1.5 5.35 1.5 7.0 1.5 7.25 -0.2 L8.1 1.55 Q7.55 2.25 7.95 3.05 L7.75 2.9 7.3 2.75 Q6.95 2.75 6.15 3.45 L5.35 4.25 Q3.8 2.7 1.6 1.95 0.45 1.25 -2.3 0.85 L-4.6 0.7 -4.7 0.7 -5.3 0.8 -6.9 -0.1 Q-8.9 -1.35 -8.9 -3.15 L-8.65 -4.3 -8.15 -5.5 -6.4 -6.4 Q-5.1 -7.0 -4.7 -7.0 -4.3 -7.0 -3.45 -7.3 L-1.9 -7.2" fill="#cca9a9" fill-rule="evenodd" stroke="none"/>
    <path d="M2.65 -2.3 L3.1 -2.15 3.65 -1.9 3.15 -1.45 Q2.55 -1.45 2.6 -2.0 L2.65 -2.3 M8.1 1.55 Q8.9 3.5 8.9 5.4 8.9 5.9 7.9 6.7 L7.35 7.15 Q6.75 5.65 5.4 4.3 L5.35 4.25 6.15 3.45 Q6.95 2.75 7.3 2.75 L7.75 2.9 7.95 3.05 Q7.55 2.25 8.1 1.55" fill="#ffffff" fill-rule="evenodd" stroke="none"/>
    <path d="M0.05 -7.0 Q0.0 -6.9 -0.15 -6.9 -0.7 -6.9 -2.9 -7.85 L-0.8 -7.9 0.1 -7.1 0.05 -7.0 M2.35 -6.65 Q3.4 -6.65 4.35 -5.75 5.1 -5.0 5.15 -4.4 5.15 -4.3 4.9 -4.3 4.6 -4.3 4.25 -4.85 L3.65 -5.5 1.6 -6.3 Q1.8 -6.65 2.35 -6.65 M1.45 -3.3 Q2.75 -3.65 3.4 -3.0 3.9 -2.55 3.9 -1.85 L3.85 -1.7 3.65 -1.55 2.95 -2.3 Q2.35 -3.05 1.6 -3.1 L1.45 -3.3 M8.5 -0.35 Q9.05 0.45 9.05 1.0 9.05 1.45 8.7 1.45 L8.1 0.45 7.3 -1.1 Q7.9 -1.25 8.5 -0.35 M-2.2 -4.25 L-3.1 -4.5 -4.15 -4.15 -4.3 -4.35 Q-4.3 -4.75 -3.5 -4.9 -2.6 -5.05 -2.1 -4.4 L-2.2 -4.25 M-0.35 -0.4 L-0.8 -0.6 -1.15 -0.7 -0.25 -0.5 Q-0.1 -0.4 -0.35 -0.4 M6.4 1.85 Q7.05 1.55 7.5 2.05 7.85 2.5 7.85 3.0 L7.8 3.4 7.3 3.85 7.05 3.55 7.2 3.25 7.35 2.9 7.05 2.45 6.4 1.85" fill="#a36a6a" fill-rule="evenodd" stroke="none"/>
  </g>
</svg>