<?xml version="1.0" encoding="UTF-8" standalone="no"?>
<svg xmlns:xlink="http://www.w3.org/1999/xlink" height="11.85px" width="14.4px" xmlns="http://www.w3.org/2000/svg">
  <g transform="matrix(1.0, 0.0, 0.0, 1.0, 14.45, -6.25)">
    <path d="M-8.75 7.7 Q-8.4 7.85 -8.1 8.1 L-7.85 8.35 -7.95 8.7 -7.95 8.75 -7.95 8.95 -7.45 8.8 -7.25 9.1 -6.0 9.85 -5.75 10.1 -5.2 10.8 -4.9 11.3 -4.1 12.35 -4.0 12.75 -4.0 12.85 -3.85 12.8 -3.3 13.3 -2.05 14.05 -1.35 15.0 -1.05 15.45 -1.4 16.0 -1.7 16.25 Q-2.8 17.1 -5.0 17.1 -6.45 17.1 -7.4 16.4 L-7.85 16.0 -8.1 15.6 -9.1 15.65 Q-11.05 15.65 -11.7 14.6 L-11.8 14.4 -11.85 14.1 -12.0 13.05 -11.95 12.55 -12.25 12.55 Q-13.45 12.35 -13.45 9.75 -13.45 8.45 -13.05 7.9 L-12.45 7.35 -11.7 7.25 -11.0 7.25 -9.55 7.4 -10.25 7.35 Q-11.1 7.35 -11.7 7.65 -12.8 8.15 -12.8 9.75 L-12.7 11.1 Q-12.7 11.6 -12.3 11.75 L-11.8 12.0 -11.7 11.8 -11.25 11.1 -8.7 9.3 -8.6 8.85 -8.6 8.75 -8.45 8.0 -8.75 7.7 M-6.45 9.7 Q-7.4 9.1 -8.6 9.9 L-8.9 10.1 Q-10.1 10.9 -10.65 11.45 -11.4 12.2 -11.4 13.05 L-11.15 14.15 -11.05 14.3 Q-10.55 14.85 -9.2 14.85 -6.95 14.85 -5.7 13.8 -4.8 13.05 -4.8 12.35 L-5.25 11.25 Q-5.8 10.1 -6.45 9.7 M-6.0 15.0 L-7.35 15.5 -7.1 15.7 -6.6 16.0 -4.95 16.35 -2.95 16.0 -2.25 15.6 -1.6 14.8 Q-1.6 14.4 -2.45 13.85 -3.25 13.3 -3.65 13.3 L-4.2 13.5 -4.25 13.6 -5.25 14.55 -6.0 15.0" fill="#a36a6a" fill-rule="evenodd" stroke="none"/>
    <path d="M-8.9 10.1 L-6.95 9.65 -6.45 9.7 Q-5.8 10.1 -5.25 11.25 -5.45 12.0 -6.65 12.95 -8.4 14.3 -10.75 14.3 L-11.05 14.3 -11.15 14.15 -11.4 13.05 Q-11.4 12.2 -10.65 11.45 -10.1 10.9 -8.9 10.1 M-4.25 13.6 L-3.6 13.55 -2.85 13.65 -2.65 14.35 Q-2.65 15.0 -3.5 15.35 L-4.75 15.6 Q-5.8 15.6 -6.0 15.0 L-5.25 14.55 -4.25 13.6" fill="#ffffcc" fill-rule="evenodd" stroke="none"/>
    <path d="M-8.75 7.7 L-8.45 8.0 -8.6 8.75 -8.6 8.85 -8.7 9.3 -11.25 11.1 -11.7 11.8 -11.8 12.0 -12.3 11.75 Q-12.7 11.6 -12.7 11.1 L-12.8 9.75 Q-12.8 8.15 -11.7 7.65 -11.1 7.35 -10.25 7.35 L-9.55 7.4 -8.75 7.7 M-8.9 10.1 L-8.6 9.9 Q-7.4 9.1 -6.45 9.7 L-6.95 9.65 -8.9 10.1 M-5.25 11.25 L-4.8 12.35 Q-4.8 13.05 -5.7 13.8 -6.95 14.85 -9.2 14.85 -10.55 14.85 -11.05 14.3 L-10.75 14.3 Q-8.4 14.3 -6.65 12.95 -5.45 12.0 -5.25 11.25 M-4.25 13.6 L-4.2 13.5 -3.65 13.3 Q-3.25 13.3 -2.45 13.85 -1.6 14.4 -1.6 14.8 L-2.25 15.6 -2.95 16.0 -4.95 16.35 -6.6 16.0 -7.1 15.7 -7.35 15.5 -6.0 15.0 Q-5.8 15.6 -4.75 15.6 L-3.5 15.35 Q-2.65 15.0 -2.65 14.35 L-2.85 13.65 -3.6 13.55 -4.25 13.6" fill="#e0cca3" fill-rule="evenodd" stroke="none"/>
  </g>
</svg>