<?xml version="1.0" encoding="UTF-8" standalone="no"?>
<svg xmlns:xlink="http://www.w3.org/1999/xlink" height="19.3px" width="26.5px" xmlns="http://www.w3.org/2000/svg">
  <g transform="matrix(1.0, 0.0, 0.0, 1.0, 13.4, 7.65)">
    <path d="M-11.5 -1.4 L-10.25 -2.25 Q-4.75 -5.6 1.05 -5.6 L7.95 -5.2 8.7 -5.1 7.05 -2.7 Q6.35 -2.0 5.15 -1.65 L2.6 -1.1 Q-0.25 -0.5 -2.4 1.0 L-2.6 1.2 Q-4.3 1.75 -4.3 2.7 L-4.25 3.0 -4.55 3.0 -5.5 2.85 -6.55 2.5 -6.55 2.45 -6.55 2.5 -7.1 2.25 -7.8 1.85 Q-9.6 0.7 -11.5 -1.4" fill="#f4eeee" fill-rule="evenodd" stroke="none"/>
    <path d="M8.7 -5.1 L7.95 -5.2 1.05 -5.6 Q-4.75 -5.6 -10.25 -2.25 L-11.5 -1.4 -11.65 -1.3 -11.7 -1.3 -11.75 -1.3 -12.4 -1.85 Q-12.45 -2.85 -8.15 -4.85 -3.95 -6.8 2.65 -6.65 L10.45 -5.95 Q11.75 -5.4 11.95 -4.7 L12.1 -3.0 11.65 0.85 11.05 4.4 10.65 6.05 Q10.4 6.95 8.5 8.2 6.6 9.4 3.7 10.65 L3.65 10.65 3.3 10.6 3.25 10.65 3.1 10.55 3.05 10.25 3.65 9.8 4.05 9.55 4.95 8.95 5.05 8.9 5.5 8.65 6.9 7.85 7.7 7.35 8.25 7.05 8.25 7.0 Q9.5 6.35 9.75 5.4 9.85 4.2 10.1 3.6 L10.55 0.25 10.85 -3.1 Q10.85 -4.3 10.25 -4.6 L8.7 -5.1 M-4.25 3.0 L-4.3 2.7 Q-4.3 1.75 -2.6 1.2 L-2.0 1.05 0.2 0.65 8.45 -0.25 8.5 -0.25 8.55 -0.2 8.7 -0.05 8.7 0.0 8.7 0.05 8.65 0.1 8.55 0.2 8.15 0.45 Q6.6 1.45 4.5 1.65 L4.6 2.9 Q4.6 3.7 4.2 4.4 3.7 5.35 2.75 5.35 L2.4 5.35 2.35 5.35 2.3 5.3 2.3 5.25 2.45 4.9 2.95 4.15 3.5 3.3 3.4 1.7 2.05 1.65 -0.6 1.7 -0.65 1.7 -2.2 2.15 Q-2.65 2.3 -3.05 2.6 L-3.0 2.6 -3.7 3.15 -3.75 3.15 -3.8 3.15 -4.1 3.1 -4.15 3.1 -4.25 3.0" fill="#a36a6a" fill-rule="evenodd" stroke="none"/>
    <path d="M-7.1 2.25 L-6.55 2.5 -6.55 2.45 -6.55 2.5 -5.5 2.85 -7.1 2.25 M-2.6 1.2 L-2.4 1.0 Q-0.25 -0.5 2.6 -1.1 L5.15 -1.65 Q6.35 -2.0 7.05 -2.7 L8.7 -5.1 10.25 -4.6 Q10.85 -4.3 10.85 -3.1 L10.55 0.25 10.1 3.6 Q9.85 4.2 9.75 5.4 9.5 6.35 8.25 7.0 L8.25 7.05 7.7 7.35 7.4 7.15 Q7.15 6.95 7.15 6.3 L7.95 3.85 Q8.75 1.75 8.75 1.05 L8.55 0.2 8.65 0.1 8.7 0.05 8.7 0.0 8.7 -0.05 8.55 -0.2 8.5 -0.25 8.45 -0.25 0.2 0.65 -2.0 1.05 -2.6 1.2" fill="#e0cbcb" fill-rule="evenodd" stroke="none"/>
    <path d="M7.7 7.35 L6.9 7.85 5.5 8.65 5.05 8.9 4.95 8.8 4.95 8.95 4.05 9.55 3.65 9.8 1.15 6.25 Q-1.55 2.4 -2.55 2.4 L-3.0 2.6 -3.05 2.6 Q-2.65 2.3 -2.2 2.15 L-0.65 1.7 -0.6 1.7 2.05 1.65 3.4 1.7 3.5 3.3 2.95 4.15 2.45 4.9 2.3 5.25 2.3 5.3 2.35 5.35 2.4 5.35 2.75 5.35 Q3.7 5.35 4.2 4.4 4.6 3.7 4.6 2.9 L4.5 1.65 Q6.6 1.45 8.15 0.45 L8.55 0.2 8.75 1.05 Q8.75 1.75 7.95 3.85 L7.15 6.3 Q7.15 6.95 7.4 7.15 L7.7 7.35" fill="#cca9a9" fill-rule="evenodd" stroke="none"/>
  </g>
</svg>