<?xml version="1.0" encoding="UTF-8" standalone="no"?>
<svg xmlns:xlink="http://www.w3.org/1999/xlink" height="29.35px" width="41.9px" xmlns="http://www.w3.org/2000/svg">
  <g transform="matrix(1.0, 0.0, 0.0, 1.0, 60.7, 13.05)">
    <path d="M-24.35 -2.9 L-24.0 -2.5 Q-23.45 -1.7 -23.35 -0.95 L-23.3 0.7 -23.35 1.85 -24.35 -1.2 Q-26.1 -2.1 -27.9 -2.75 L-24.35 -2.9" fill="#cca9a9" fill-rule="evenodd" stroke="none"/>
    <path d="M-56.6 -10.75 L-56.7 -9.4 -59.7 -6.55 -59.1 -8.2 -58.1 -10.4 -57.0 -12.05 Q-56.65 -11.35 -56.6 -10.75 M-41.75 -9.05 L-40.5 -9.5 -38.7 -10.25 -40.55 -8.55 -41.75 -7.2 -42.55 -6.15 -44.1 -3.8 -45.3 -1.9 Q-45.7 -2.95 -45.7 -4.95 L-45.6 -6.9 Q-45.3 -7.8 -44.3 -8.2 L-42.75 -8.7 -41.75 -9.05 M-21.6 3.65 L-21.75 3.8 -22.95 4.9 -23.0 4.9 -23.0 4.75 -23.0 4.45 Q-23.05 3.0 -23.35 1.85 L-23.3 0.7 -23.35 -0.95 Q-23.45 -1.7 -24.0 -2.5 L-24.35 -2.9 Q-23.6 -2.85 -23.6 -3.15 L-23.65 -3.35 -25.4 -3.55 -26.05 -3.5 -24.9 -3.8 Q-22.45 -4.4 -22.45 -5.7 -22.45 -6.65 -23.05 -7.65 L-23.5 -8.35 -22.95 -7.95 -22.3 -7.3 -21.9 -6.75 -21.9 -6.7 -21.25 -5.45 Q-20.5 -3.55 -20.5 -1.05 -20.5 -0.2 -21.1 1.85 L-21.6 3.4 -21.7 3.65 -21.6 3.65" fill="#e0cbcb" fill-rule="evenodd" stroke="none"/>
    <path d="M-35.7 -4.1 L-35.7 -4.45 -35.3 -4.95 Q-33.55 -7.3 -31.85 -8.45 -28.4 -10.9 -22.95 -9.05 -21.25 -7.95 -20.4 -5.5 -19.8 -3.65 -19.8 -1.65 -19.8 0.3 -21.5 3.6 L-21.6 3.65 -21.7 3.65 -21.6 3.4 -21.1 1.85 Q-20.5 -0.2 -20.5 -1.05 -20.5 -3.55 -21.25 -5.45 L-21.9 -6.7 -21.9 -6.75 -22.3 -7.3 -22.95 -7.95 Q-24.35 -9.15 -26.55 -9.3 L-27.0 -9.3 -27.65 -9.25 Q-30.35 -9.05 -32.85 -6.9 L-35.2 -4.6 -35.45 -4.25 -35.5 -4.2 -35.7 -4.0 -35.7 -4.1 M-23.0 4.9 Q-23.05 7.15 -24.15 9.35 -26.25 13.45 -31.3 13.45 L-33.35 13.2 -33.65 13.1 -33.4 13.45 Q-32.85 14.15 -30.65 14.65 L-28.65 14.7 -25.4 14.15 -23.65 13.1 -23.55 13.2 -25.0 14.4 Q-26.45 15.3 -29.5 15.3 -32.1 15.3 -33.7 14.1 L-34.95 12.55 Q-36.15 11.85 -36.95 10.65 -37.4 10.0 -38.2 9.6 -37.6 8.3 -37.55 7.25 L-37.4 4.35 Q-36.8 -0.9 -32.95 -2.4 L-29.65 -3.0 -26.05 -3.5 -25.4 -3.55 -23.65 -3.35 -23.6 -3.15 Q-23.6 -2.85 -24.35 -2.9 L-27.9 -2.75 Q-26.1 -2.1 -24.35 -1.2 L-23.35 1.85 Q-23.05 3.0 -23.0 4.45 L-23.0 4.75 -23.0 4.9 M-28.65 -1.85 L-33.15 -1.6 Q-36.15 0.4 -36.7 4.35 -37.0 6.75 -36.3 9.1 -35.55 11.45 -33.35 12.4 L-30.95 12.75 Q-27.3 12.75 -25.3 9.6 -23.8 7.25 -23.8 4.8 -23.8 2.05 -24.9 0.35 -25.55 -0.75 -26.8 -1.3 L-28.65 -1.85" fill="#a36a6a" fill-rule="evenodd" stroke="none"/>
    <path d="M-35.7 -4.1 L-35.8 -4.5 Q-35.8 -5.0 -35.4 -5.0 L-35.3 -4.95 -35.7 -4.45 -35.7 -4.1 M-26.55 -9.3 Q-25.8 -8.45 -25.8 -7.6 -25.8 -6.15 -27.25 -4.95 -29.35 -3.2 -33.85 -3.2 -34.75 -3.2 -35.35 -3.7 L-35.65 -4.05 -35.5 -4.2 -35.45 -4.25 -35.2 -4.6 -32.85 -6.9 Q-30.35 -9.05 -27.65 -9.25 L-27.0 -9.3 -26.55 -9.3" fill="#f2eaea" fill-rule="evenodd" stroke="none"/>
  </g>
</svg>