<?xml version="1.0" encoding="UTF-8" standalone="no"?>
<svg xmlns:xlink="http://www.w3.org/1999/xlink" height="6.2px" width="8.35px" xmlns="http://www.w3.org/2000/svg">
  <g transform="matrix(1.0, 0.0, 0.0, 1.0, 5.9, -3.95)">
    <path d="M-3.4 5.4 Q-2.8 5.4 -2.4 5.75 L-2.15 5.95 Q-2.7 6.5 -2.9 7.35 -3.95 8.0 -4.3 8.0 L-4.55 7.6 Q-4.55 5.4 -3.4 5.4 M1.05 6.75 L0.6 7.9 Q-0.2 8.75 -1.95 8.75 -2.5 8.75 -2.6 8.45 L-2.6 8.1 -2.55 7.55 -2.55 7.45 Q-2.3 6.0 -0.75 5.65 1.05 5.2 1.05 6.75" fill="#e0cca3" fill-rule="evenodd" stroke="none"/>
    <path d="M0.95 8.15 Q0.1 9.15 -2.0 9.15 -2.8 9.15 -2.95 8.8 L-3.0 8.35 -2.95 7.95 -3.15 8.05 -4.2 8.4 Q-4.9 8.4 -4.9 7.55 L-4.75 6.05 Q-4.45 4.95 -3.35 4.95 -2.8 4.95 -2.25 5.3 L-1.8 5.7 Q-1.35 5.4 -0.75 5.25 1.45 4.75 1.45 6.75 1.45 7.55 0.95 8.15 M1.05 6.75 Q1.05 5.2 -0.75 5.65 -2.3 6.0 -2.55 7.45 L-2.55 7.55 -2.6 8.1 -2.6 8.45 Q-2.5 8.75 -1.95 8.75 -0.2 8.75 0.6 7.9 L1.05 6.75 M-3.4 5.4 Q-4.55 5.4 -4.55 7.6 L-4.3 8.0 Q-3.95 8.0 -2.9 7.35 -2.7 6.5 -2.15 5.95 L-2.4 5.75 Q-2.8 5.4 -3.4 5.4" fill="#a36a6a" fill-rule="evenodd" stroke="none"/>
  </g>
</svg>