<?xml version="1.0" encoding="UTF-8" standalone="no"?>
<svg xmlns:xlink="http://www.w3.org/1999/xlink" height="16.6px" width="15.95px" xmlns="http://www.w3.org/2000/svg">
  <g transform="matrix(1.0, 0.0, 0.0, 1.0, 37.75, 2.85)">
    <path d="M-29.7 -1.65 Q-25.75 -1.7 -23.95 1.5 -22.8 3.55 -22.8 5.8 L-23.4 7.9 Q-24.05 9.45 -24.45 9.8 -25.1 10.35 -28.1 11.55 -31.1 12.75 -31.7 12.75 -34.8 12.75 -36.1 9.3 -36.7 7.55 -36.75 5.8 -36.75 4.45 -35.75 2.4 L-35.4 1.7 Q-34.65 0.3 -33.7 -0.5 -32.25 -1.85 -30.35 -1.85 L-29.7 -1.65 M-33.7 -0.5 L-33.7 2.4 -35.75 2.4 -33.7 2.4 -33.7 -0.5" fill="#cdd2d6" fill-rule="evenodd" stroke="none"/>
    <path d="M-30.35 -1.85 L-29.7 -1.8 -29.7 -1.65 -30.35 -1.85" fill="#eef3f7" fill-rule="evenodd" stroke="none"/>
  </g>
</svg>