<?xml version="1.0" encoding="UTF-8" standalone="no"?>
<svg xmlns:xlink="http://www.w3.org/1999/xlink" height="14.45px" width="12px" xmlns="http://www.w3.org/2000/svg">
  <g transform="matrix(1.0, 0.0, 0.0, 1.0, 5.55, 9.65)">
    <path d="M0.0 -7.85 L0.0 -7.9 0.05 -7.9 0.0 -7.85 M-2.6 -5.75 L-2.55 -5.75 Q-1.8 -5.75 -1.15 -6.2 -1.1 -4.9 1.95 -3.95 4.05 -3.3 4.75 -1.5 L4.85 -0.8 4.65 0.85 4.65 0.95 4.95 1.4 3.5 2.55 Q1.65 3.65 -0.5 3.65 L-1.1 3.65 -1.1 3.4 -1.55 2.9 -2.4 2.25 Q-3.75 1.2 -3.75 0.0 -3.75 -1.6 -2.95 -2.9 L-2.15 -4.65 Q-2.15 -5.05 -2.5 -5.6 L-2.6 -5.75 M0.95 2.0 L1.15 1.95 -1.4 -0.15 -1.85 -1.45 Q-2.0 -2.2 -2.5 -2.3 L-2.55 -1.5 Q-2.55 -0.65 -1.85 0.35 L-1.95 0.8 Q-1.85 1.7 -1.4 1.7 L-1.2 1.65 -1.2 1.55 -1.45 0.85 Q-0.4 2.0 0.95 2.0" fill="#e0cbcb" fill-rule="evenodd" stroke="none"/>
    <path d="M0.05 -7.9 L0.0 -7.9 -0.7 -8.05 Q-2.3 -8.05 -2.9 -6.35 L-2.6 -5.75 -2.5 -5.6 Q-2.15 -5.05 -2.15 -4.65 L-2.95 -2.9 Q-3.75 -1.6 -3.75 0.0 -3.75 1.2 -2.4 2.25 L-1.55 2.9 -1.1 3.4 -1.1 3.65 -1.35 3.8 Q-4.0 3.8 -4.55 0.05 -4.55 -1.6 -3.65 -3.1 L-2.75 -4.65 Q-2.75 -5.0 -3.05 -5.35 -3.4 -5.75 -3.4 -6.35 -3.4 -7.35 -1.85 -8.3 -0.3 -9.3 1.2 -7.35 L0.9 -7.1 0.3 -7.35 -0.4 -6.6 Q-0.4 -5.4 2.5 -4.4 5.35 -3.4 5.4 -1.15 L5.45 -0.85 Q5.45 0.25 4.95 1.4 L4.65 0.95 4.65 0.85 4.85 -0.8 4.75 -1.5 Q4.05 -3.3 1.95 -3.95 -1.1 -4.9 -1.15 -6.2 L-1.15 -6.25 -1.0 -7.1 0.0 -7.85 0.1 -7.9 0.05 -7.9 M0.95 2.0 Q-0.4 2.0 -1.45 0.85 L-1.2 1.55 -1.2 1.65 -1.4 1.7 Q-1.85 1.7 -1.95 0.8 L-1.85 0.35 Q-2.55 -0.65 -2.55 -1.5 L-2.5 -2.3 Q-2.0 -2.2 -1.85 -1.45 L-1.4 -0.15 1.15 1.95 0.95 2.0" fill="#a36a6a" fill-rule="evenodd" stroke="none"/>
    <path d="M0.0 -7.9 L0.0 -7.85 -1.0 -7.1 -1.15 -6.25 -1.15 -6.2 Q-1.8 -5.75 -2.55 -5.75 L-2.6 -5.75 -2.9 -6.35 Q-2.3 -8.05 -0.7 -8.05 L0.0 -7.9" fill="#f4eeee" fill-rule="evenodd" stroke="none"/>
  </g>
</svg>