<?xml version="1.0" encoding="UTF-8" standalone="no"?>
<svg xmlns:xlink="http://www.w3.org/1999/xlink" height="7.85px" width="10.4px" xmlns="http://www.w3.org/2000/svg">
  <g transform="matrix(1.0, 0.0, 0.0, 1.0, 6.6, -2.1)">
    <path d="M2.8 5.55 L2.8 6.4 2.55 7.4 1.95 8.25 1.2 8.9 Q0.45 8.9 -1.15 7.55 L-1.6 6.7 -1.65 6.25 Q-2.0 8.95 -2.8 8.95 -4.0 8.95 -4.9 7.55 -5.6 6.4 -5.6 5.45 L-5.45 4.25 Q-5.2 3.2 -4.7 3.2 -3.0 3.2 -2.15 4.05 -1.7 4.5 -1.55 5.1 -1.25 3.3 0.6 3.15 L1.25 3.15 Q2.8 3.35 2.8 5.55 M-0.85 4.5 Q-1.15 5.0 -1.15 5.9 -1.15 6.7 -0.35 7.55 0.45 8.35 1.15 8.35 L1.65 7.85 2.15 7.0 2.3 5.55 Q2.3 4.35 1.7 3.9 L0.6 3.65 Q-0.45 3.7 -0.85 4.5 M-2.75 4.2 L-3.55 3.8 Q-4.25 3.55 -4.65 3.8 -5.15 4.05 -5.15 5.0 L-5.1 5.3 -4.55 7.0 Q-3.9 8.2 -2.8 8.45 L-2.3 7.15 -2.0 5.7 Q-2.0 4.75 -2.75 4.2" fill="#a36a6a" fill-rule="evenodd" stroke="none"/>
    <path d="M-0.85 4.5 Q-0.45 3.7 0.6 3.65 L1.7 3.9 1.8 4.2 1.3 5.05 Q0.7 5.7 0.15 5.7 L-0.6 5.45 -0.9 4.8 -0.85 4.5 M-5.1 5.3 L-5.15 5.0 Q-5.15 4.05 -4.65 3.8 -4.25 3.55 -3.55 3.8 L-2.75 4.2 -2.45 4.95 -2.75 5.6 -3.85 6.05 Q-4.9 6.05 -5.1 5.3" fill="#ffffcc" fill-rule="evenodd" stroke="none"/>
    <path d="M1.7 3.9 Q2.3 4.35 2.3 5.55 L2.15 7.0 1.65 7.85 1.15 8.35 Q0.45 8.35 -0.35 7.55 -1.15 6.7 -1.15 5.9 -1.15 5.0 -0.85 4.5 L-0.9 4.8 -0.6 5.45 0.15 5.7 Q0.7 5.7 1.3 5.05 L1.8 4.2 1.7 3.9 M-5.1 5.3 Q-4.9 6.05 -3.85 6.05 L-2.75 5.6 -2.45 4.95 -2.75 4.2 Q-2.0 4.75 -2.0 5.7 L-2.3 7.15 -2.8 8.45 Q-3.9 8.2 -4.55 7.0 L-5.1 5.3" fill="#e0cca3" fill-rule="evenodd" stroke="none"/>
  </g>
</svg>