<?xml version="1.0" encoding="UTF-8" standalone="no"?>
<svg xmlns:xlink="http://www.w3.org/1999/xlink" height="14.15px" width="15.45px" xmlns="http://www.w3.org/2000/svg">
  <g transform="matrix(1.0, 0.0, 0.0, 1.0, 7.75, 7.05)">
    <path d="M-2.25 -3.55 L-3.85 -1.65 -5.1 0.2 -4.2 0.05 -5.7 1.45 Q-6.1 2.35 -6.1 3.0 L-5.55 4.5 -4.65 5.0 -1.65 5.5 -1.2 5.5 1.95 4.35 2.1 4.4 2.15 4.55 2.15 4.7 Q2.95 4.2 3.3 4.15 L3.3 4.2 Q6.0 2.65 6.0 -0.15 6.0 -0.8 4.95 -2.3 3.55 -4.3 1.7 -4.3 L-1.25 -4.15 -2.25 -3.55 M0.15 -5.8 L-1.3 -4.55 -1.15 -4.6 1.15 -4.95 3.5 -4.7 4.7 -3.7 Q6.7 -1.7 6.7 -0.15 6.7 1.75 5.25 3.4 4.0 4.85 1.9 5.45 L-1.65 6.1 -4.95 5.6 -5.55 5.25 -5.65 5.25 Q-6.55 5.25 -6.75 3.0 L-6.5 1.75 -6.5 1.7 -6.2 0.45 Q-5.95 -0.6 -3.65 -3.35 -1.3 -6.15 -0.65 -6.05 L0.1 -5.9 0.15 -5.8 M-3.75 2.05 Q-3.45 2.05 -2.7 2.5 L-1.5 3.5 Q-1.55 3.65 -1.7 3.65 L-3.8 2.7 -4.5 2.9 -5.15 3.05 -5.2 2.85 -4.6 2.35 Q-4.0 2.05 -3.75 2.05 M0.25 1.7 L-0.3 2.2 -1.0 2.6 Q-1.85 2.6 -1.85 1.8 L-1.85 1.7 -1.7 1.6 -1.05 2.2 0.05 1.5 0.25 1.7 M1.25 2.8 L-0.35 3.1 -0.4 2.95 Q-0.4 2.75 0.05 2.65 L1.2 2.7 1.25 2.8" fill="#a36a6a" fill-rule="evenodd" stroke="none"/>
    <path d="M-2.25 -3.55 L-1.25 -4.15 1.7 -4.3 Q3.55 -4.3 4.95 -2.3 6.0 -0.8 6.0 -0.15 6.0 2.65 3.3 4.2 L3.3 4.15 Q2.95 4.2 2.15 4.7 L2.15 4.55 2.1 4.4 1.95 4.35 -1.2 5.5 -1.65 5.5 -4.65 5.0 -5.55 4.5 -6.1 3.0 Q-6.1 2.35 -5.7 1.45 L-4.2 0.05 -5.1 0.2 -3.85 -1.65 -2.25 -3.55 M1.25 2.8 L1.2 2.7 0.05 2.65 Q-0.4 2.75 -0.4 2.95 L-0.35 3.1 1.25 2.8 M0.25 1.7 L0.05 1.5 -1.05 2.2 -1.7 1.6 -1.85 1.7 -1.85 1.8 Q-1.85 2.6 -1.0 2.6 L-0.3 2.2 0.25 1.7 M-3.75 2.05 Q-4.0 2.05 -4.6 2.35 L-5.2 2.85 -5.15 3.05 -4.5 2.9 -3.8 2.7 -1.7 3.65 Q-1.55 3.65 -1.5 3.5 L-2.7 2.5 Q-3.45 2.05 -3.75 2.05" fill="#e0cbcb" fill-rule="evenodd" stroke="none"/>
  </g>
</svg>