<?xml version="1.0" encoding="UTF-8" standalone="no"?>
<svg xmlns:xlink="http://www.w3.org/1999/xlink" height="63px" width="59.55px" xmlns="http://www.w3.org/2000/svg">
  <g transform="matrix(1.0, 0.0, 0.0, 1.0, 1, 1)">
    <path d="M56.45 3.0 L56.65 4.65 Q56.65 7.4 54.7 9.35 L54.1 9.9 54.1 9.7 54.1 9.25 54.55 8.8 54.85 7.65 54.55 6.45 Q54.25 6.0 53.8 6.0 53.35 6.0 53.05 6.45 52.75 6.95 52.75 7.65 52.75 8.35 53.05 8.8 53.3 9.25 53.7 9.3 L53.7 9.7 53.7 10.2 Q52.05 11.3 50.0 11.3 48.35 11.3 47.0 10.6 47.75 10.35 48.25 9.9 L48.9 8.95 49.2 7.4 Q49.25 5.4 47.35 5.3 L46.35 5.4 46.15 5.45 44.3 5.8 Q44.55 3.6 46.2 1.95 48.15 0.0 50.9 0.0 53.65 0.0 55.6 1.95 L56.45 3.0 M47.8 2.8 Q47.2 2.8 47.1 3.05 L47.05 3.45 47.05 3.75 47.5 4.05 Q47.85 4.05 47.85 3.4 L47.8 2.8 M51.55 2.65 L51.55 2.85 52.05 3.05 Q52.65 3.05 52.65 2.3 L52.6 2.1 Q51.55 2.0 51.55 2.65 M51.1 2.85 L51.0 2.35 51.1 1.8 Q51.1 0.35 49.6 0.65 48.05 1.0 48.05 2.2 L48.05 2.65 48.5 2.95 48.4 3.6 48.5 4.0 Q48.7 4.4 49.2 4.4 50.15 4.4 50.7 3.75 51.1 3.3 51.1 2.85 M52.6 1.0 L52.0 1.0 51.8 1.2 51.8 1.7 52.15 1.75 Q52.6 1.75 52.65 1.2 L52.6 1.0" fill="url(#gradient0)" fill-rule="evenodd" stroke="none"/>
    <path d="M54.1 9.9 L54.7 9.35 Q56.65 7.4 56.65 4.65 L56.45 3.0 Q57.55 4.6 57.55 6.65 57.55 9.4 55.6 11.35 54.45 12.5 53.05 13.0 54.05 11.35 54.1 9.9 M47.0 10.6 Q48.35 11.3 50.0 11.3 52.05 11.3 53.7 10.2 53.45 11.8 52.05 13.25 L50.9 13.3 Q48.2 13.3 46.3 11.45 L46.8 10.65 47.0 10.6" fill="#ff5400" fill-rule="evenodd" stroke="none"/>
    <path d="M52.6 1.0 L52.65 1.2 Q52.6 1.75 52.15 1.75 L51.8 1.7 51.8 1.2 52.0 1.0 52.6 1.0 M51.1 2.85 Q51.1 3.3 50.7 3.75 50.15 4.4 49.2 4.4 48.7 4.4 48.5 4.0 L48.4 3.6 48.5 2.95 48.05 2.65 48.05 2.2 Q48.05 1.0 49.6 0.65 51.1 0.35 51.1 1.8 L51.0 2.35 51.1 2.85 M51.55 2.65 Q51.55 2.0 52.6 2.1 L52.65 2.3 Q52.65 3.05 52.05 3.05 L51.55 2.85 51.55 2.65 M47.8 2.8 L47.85 3.4 Q47.85 4.05 47.5 4.05 L47.05 3.75 47.05 3.45 47.1 3.05 Q47.2 2.8 47.8 2.8" fill="#ffffff" fill-rule="evenodd" stroke="none"/>
    <path d="M53.7 10.2 L53.7 9.7 53.7 9.3 Q53.3 9.25 53.05 8.8 52.75 8.35 52.75 7.65 52.75 6.95 53.05 6.45 53.35 6.0 53.8 6.0 54.25 6.0 54.55 6.45 L54.85 7.65 54.55 8.8 54.1 9.25 54.1 9.7 54.1 9.9 Q54.05 11.35 53.05 13.0 L52.05 13.25 Q53.45 11.8 53.7 10.2" fill="#ff2a00" fill-rule="evenodd" stroke="none"/>
    <path d="M44.3 5.8 L46.15 5.45 46.35 5.4 Q47.0 5.75 47.0 6.3 47.0 7.45 45.45 8.7 L45.0 9.05 44.75 9.2 43.25 10.05 Q41.85 10.7 37.75 15.15 35.4 17.65 33.65 22.05 L32.5 25.95 Q31.7 28.3 30.3 28.3 L25.9 26.2 Q21.5 24.05 17.55 24.05 14.9 24.05 11.35 24.95 L14.5 21.65 Q17.5 18.65 21.0 16.0 L20.45 16.6 Q17.25 20.2 17.0 21.4 L17.75 21.4 Q22.25 21.4 25.55 22.65 L29.05 23.9 Q30.05 23.9 30.9 22.35 L32.5 19.3 34.25 16.45 36.0 14.05 Q38.05 11.8 40.5 9.9 40.85 9.7 42.35 8.85 43.75 7.95 43.75 7.35 43.75 6.7 42.05 6.45 L40.5 6.3 43.0 5.85 44.3 5.8" fill="#e20e0e" fill-rule="evenodd" stroke="none"/>
    <path d="M46.35 5.4 L47.35 5.3 47.75 6.5 Q47.75 7.75 45.55 9.6 L45.1 9.95 44.45 10.45 Q40.8 13.15 40.15 15.3 L40.65 15.3 45.65 10.75 45.75 10.65 Q45.8 10.6 46.4 10.3 L48.55 9.15 48.9 8.95 48.25 9.9 47.55 10.2 46.85 10.55 45.9 11.05 Q45.05 11.5 44.75 11.9 43.4 13.65 42.3 15.7 41.1 18.05 40.75 19.9 L38.9 27.9 Q37.9 32.4 37.9 34.9 L37.9 36.4 38.85 37.1 Q40.75 38.3 43.55 40.95 L43.6 41.15 43.4 40.95 40.5 38.8 37.0 36.85 Q36.0 35.9 36.0 33.6 36.0 29.9 37.45 24.8 38.2 22.3 38.9 20.35 L38.75 19.9 Q37.45 20.6 36.6 22.65 L35.4 25.9 34.05 29.4 Q33.1 31.15 31.35 31.15 30.7 31.15 26.3 29.35 21.9 27.55 15.5 27.55 L11.25 27.65 9.15 27.8 8.95 27.9 11.35 24.95 Q14.9 24.05 17.55 24.05 21.5 24.05 25.9 26.2 L30.3 28.3 Q31.7 28.3 32.5 25.95 L33.65 22.05 Q35.4 17.65 37.75 15.15 41.85 10.7 43.25 10.05 L44.75 9.2 45.0 9.05 45.45 8.7 Q47.0 7.45 47.0 6.3 47.0 5.75 46.35 5.4 M38.35 16.0 L38.5 15.3 Q36.7 17.0 35.45 19.7 34.15 22.55 34.0 25.3 L35.6 21.3 Q36.7 18.65 37.6 18.1 L37.9 19.45 Q39.55 17.55 39.6 16.15 L38.5 16.3 38.35 16.25 38.35 16.0" fill="#b10d16" fill-rule="evenodd" stroke="none"/>
    <path d="M40.5 6.3 L42.05 6.45 Q43.75 6.7 43.75 7.35 43.75 7.95 42.35 8.85 40.85 9.7 40.5 9.9 38.05 11.8 36.0 14.05 L34.25 16.45 32.5 19.3 30.9 22.35 Q30.05 23.9 29.05 23.9 L25.55 22.65 Q22.25 21.4 17.75 21.4 L17.0 21.4 Q17.25 20.2 20.45 16.6 L21.0 16.0 23.65 14.05 Q32.1 8.15 40.5 6.3" fill="#ec5234" fill-rule="evenodd" stroke="none"/>
    <path d="M47.35 5.3 Q49.25 5.4 49.2 7.4 L48.9 8.95 48.55 9.15 46.4 10.3 Q45.8 10.6 45.75 10.65 L45.65 10.75 40.65 15.3 40.15 15.3 Q40.8 13.15 44.45 10.45 L45.1 9.95 45.55 9.6 Q47.75 7.75 47.75 6.5 L47.35 5.3 M38.35 16.0 L38.35 16.25 38.5 16.3 39.6 16.15 Q39.55 17.55 37.9 19.45 L37.6 18.1 Q36.7 18.65 35.6 21.3 L34.0 25.3 Q34.15 22.55 35.45 19.7 36.7 17.0 38.5 15.3 L38.35 16.0" fill="#7b0f15" fill-rule="evenodd" stroke="none"/>
    <path d="M48.25 9.9 Q47.75 10.35 47.0 10.6 L46.8 10.65 46.3 11.45 Q44.35 14.3 43.5 16.5 42.65 17.85 41.95 19.9 41.25 21.95 40.9 24.6 40.55 27.25 40.6 32.2 40.65 37.1 41.65 37.55 42.6 38.0 43.3 38.75 L43.55 40.95 Q40.75 38.3 38.85 37.1 L37.9 36.4 37.9 34.9 Q37.9 32.4 38.9 27.9 L40.75 19.9 Q41.1 18.05 42.3 15.7 43.4 13.65 44.75 11.9 45.05 11.5 45.9 11.05 L46.85 10.55 47.55 10.2 48.25 9.9" fill="#ad3160" fill-rule="evenodd" stroke="none"/>
    <path d="M43.5 16.5 L43.0 17.9 Q42.25 20.7 42.25 28.2 42.25 32.45 43.0 36.8 L43.3 38.75 Q42.6 38.0 41.65 37.55 40.65 37.1 40.6 32.2 40.55 27.25 40.9 24.6 41.25 21.95 41.95 19.9 42.65 17.85 43.5 16.5" fill="#e74683" fill-rule="evenodd" stroke="none"/>
    <path d="M8.95 27.9 L9.15 27.8 11.25 27.65 15.5 27.55 Q21.9 27.55 26.3 29.35 30.7 31.15 31.35 31.15 33.1 31.15 34.05 29.4 L35.4 25.9 36.6 22.65 Q37.45 20.6 38.75 19.9 L38.9 20.35 Q38.2 22.3 37.45 24.8 36.0 29.9 36.0 33.6 36.0 35.9 37.0 36.85 L40.5 38.8 43.4 40.95 43.6 41.15 43.7 42.95 Q42.45 41.15 40.0 39.5 L34.45 36.35 31.25 34.3 Q25.7 30.4 22.7 29.5 L14.1 28.8 Q11.95 28.8 8.55 29.85 L7.45 29.9 8.95 27.9" fill="#79070e" fill-rule="evenodd" stroke="none"/>
    <path d="M43.7 42.95 Q45.0 44.8 45.0 46.8 44.25 45.05 43.3 45.05 42.75 45.05 41.0 48.15 39.15 51.4 39.15 52.85 39.15 53.8 40.35 55.7 L41.0 56.65 41.25 56.95 41.7 57.5 41.55 58.05 41.4 57.9 41.35 57.85 Q40.25 56.85 39.85 56.1 L37.75 51.95 Q37.75 51.3 38.95 49.0 L40.35 45.75 39.4 46.0 39.4 45.25 40.15 44.1 40.6 42.8 Q40.35 42.25 40.15 42.25 39.3 42.25 38.05 45.15 36.8 48.0 36.35 48.0 L35.85 47.85 35.5 47.65 34.75 48.85 33.75 49.15 Q32.65 49.15 31.25 47.95 30.05 46.95 28.9 46.55 25.3 43.6 20.6 41.9 14.85 39.8 8.0 39.8 L4.2 39.9 Q2.85 40.05 0.95 41.1 L0.85 40.95 0.65 40.7 0.9 40.6 1.4 40.3 Q2.75 39.6 3.4 39.4 L5.65 39.05 8.0 39.05 15.9 39.85 Q20.45 40.8 23.8 42.6 L24.25 42.15 26.8 44.35 Q28.5 45.9 29.9 46.15 L29.9 45.8 Q30.3 45.75 30.5 46.3 30.75 46.95 31.15 47.05 31.45 47.1 32.0 47.5 L32.95 47.8 Q33.8 47.8 35.75 44.4 37.65 41.1 37.65 40.15 37.65 39.35 35.25 37.1 L34.45 36.35 40.0 39.5 Q42.45 41.15 43.7 42.95" fill="#d0a16a" fill-rule="evenodd" stroke="none"/>
    <path d="M45.0 46.8 Q45.0 48.05 43.85 49.75 42.6 51.6 42.5 52.05 L42.1 55.2 41.7 57.5 41.25 56.95 41.0 56.65 40.35 55.7 Q39.15 53.8 39.15 52.85 39.15 51.4 41.0 48.15 42.75 45.05 43.3 45.05 44.25 45.05 45.0 46.8 M0.65 40.7 L0.6 40.6 0.0 39.55 0.2 39.15 0.95 37.95 Q1.95 36.5 2.0 35.55 2.05 34.45 2.6 33.25 3.2 31.95 4.0 31.55 L4.2 31.45 7.45 29.9 8.55 29.85 Q11.95 28.8 14.1 28.8 L22.7 29.5 Q25.7 30.4 31.25 34.3 L34.45 36.35 35.25 37.1 Q37.65 39.35 37.65 40.15 37.65 41.1 35.75 44.4 33.8 47.8 32.95 47.8 L32.0 47.5 Q31.45 47.1 31.15 47.05 30.75 46.95 30.5 46.3 30.3 45.75 29.9 45.8 L29.9 46.15 Q28.5 45.9 26.8 44.35 L24.25 42.15 23.8 42.6 Q20.45 40.8 15.9 39.85 L8.0 39.05 5.65 39.05 3.4 39.4 Q2.75 39.6 1.4 40.3 L0.9 40.6 0.65 40.7 M3.25 34.05 L2.3 36.05 Q1.55 37.85 1.5 38.75 L2.5 38.55 4.9 38.55 9.75 38.4 13.9 38.45 Q16.3 38.6 17.5 39.3 L18.15 39.3 18.15 37.9 18.55 37.8 Q18.95 37.8 19.2 38.3 L19.5 39.15 Q19.6 39.55 20.3 39.65 L21.4 39.9 24.65 41.55 26.45 42.6 26.45 41.8 27.45 41.9 27.7 42.6 27.55 43.2 27.9 43.4 28.45 43.75 28.35 44.15 Q28.35 44.95 29.2 44.95 29.7 44.95 29.8 44.5 L30.8 44.9 Q31.35 44.9 33.15 41.65 L33.5 41.7 34.1 41.3 34.3 40.6 Q34.3 39.9 34.05 39.9 L34.4 39.2 Q34.4 38.65 33.9 38.1 L34.05 37.65 Q34.05 37.35 33.85 37.2 L33.15 37.15 33.15 37.4 32.3 36.9 32.2 37.1 31.9 37.4 31.25 37.4 Q30.85 37.25 30.85 36.6 L30.95 36.15 30.4 35.9 28.35 34.7 26.4 33.3 Q21.75 30.15 17.5 30.15 L8.35 30.85 5.6 31.3 Q3.75 32.35 3.25 34.05 M30.15 41.8 L30.55 41.5 Q31.2 41.3 31.2 42.25 L31.05 42.7 30.15 43.15 29.85 42.7 29.95 42.1 29.95 41.85 30.15 41.8 M29.5 43.8 L29.2 43.85 28.85 43.7 Q28.85 43.2 29.4 43.15 L29.55 43.45 29.5 43.8 M35.45 42.05 L35.45 41.75 35.15 41.5 34.85 41.95 35.15 42.15 35.45 42.05 M35.8 38.85 L35.5 38.6 Q35.2 38.8 35.2 39.05 L35.6 39.2 35.8 38.85 M32.95 38.35 L32.7 38.45 Q32.35 38.45 32.1 38.2 L32.1 37.65 Q32.8 37.65 33.05 38.15 L32.95 38.35 M33.75 39.3 L33.8 39.7 33.55 40.65 Q33.25 41.4 32.95 41.4 L32.45 41.1 32.45 40.75 Q32.45 39.25 33.3 39.25 L33.75 39.3 M34.2 43.05 Q34.2 42.35 33.5 42.75 L32.6 43.6 32.6 44.55 33.05 44.6 33.9 43.95 34.2 43.05 M30.6 43.55 L31.5 43.4 31.55 43.8 31.4 44.35 31.0 44.6 Q30.45 44.6 30.45 44.0 30.45 43.6 30.6 43.55 M31.35 45.9 L31.35 46.2 Q31.45 46.45 31.9 46.45 32.55 46.45 32.55 45.75 32.55 45.2 31.95 45.25 31.35 45.3 31.35 45.9" fill="#e5ba88" fill-rule="evenodd" stroke="none"/>
    <path d="M15.15 31.15 L18.45 31.7 21.25 32.5 24.2 33.2 Q25.75 33.8 25.6 35.25 25.95 34.9 26.15 34.9 L26.95 35.5 26.95 36.85 26.7 36.75 26.65 36.6 Q26.4 36.85 26.2 37.6 26.05 38.25 25.6 38.5 25.75 38.0 25.0 37.9 L24.7 38.25 25.25 39.0 25.6 39.75 24.85 40.5 23.4 39.55 21.7 38.85 Q21.05 38.7 20.0 37.7 19.05 36.85 18.6 36.85 18.05 36.85 17.85 37.5 17.65 38.1 17.2 38.1 L13.9 37.5 10.45 36.85 3.45 36.85 Q4.3 35.15 5.85 33.6 L5.7 33.25 5.5 32.7 Q5.5 32.35 7.0 31.85 L7.4 31.75 Q7.9 31.55 8.25 31.5 L8.65 31.5 8.95 31.45 15.15 31.15 M28.75 37.35 L28.75 38.5 28.35 39.1 27.7 39.55 27.6 38.8 Q27.6 38.2 27.95 37.5 L28.4 37.3 28.75 37.35" fill="#fff5d7" fill-rule="evenodd" stroke="none"/>
    <path d="M15.15 31.15 L8.95 31.45 8.65 31.5 8.25 31.5 Q7.9 31.55 7.4 31.75 L7.0 31.85 Q5.5 32.35 5.5 32.7 L5.7 33.25 5.85 33.6 Q4.3 35.15 3.45 36.85 L10.45 36.85 13.9 37.5 17.2 38.1 Q17.65 38.1 17.85 37.5 18.05 36.85 18.6 36.85 19.05 36.85 20.0 37.7 21.05 38.7 21.7 38.85 L23.4 39.55 24.85 40.5 25.6 39.75 25.25 39.0 24.7 38.25 25.0 37.9 Q25.75 38.0 25.6 38.5 26.05 38.25 26.2 37.6 26.4 36.85 26.65 36.6 L26.7 36.75 26.95 36.85 26.95 35.5 26.15 34.9 Q25.95 34.9 25.6 35.25 25.75 33.8 24.2 33.2 L21.25 32.5 18.45 31.7 15.15 31.15 M3.25 34.05 Q3.75 32.35 5.6 31.3 L8.35 30.85 17.5 30.15 Q21.75 30.15 26.4 33.3 L28.35 34.7 30.4 35.9 30.95 36.15 30.85 36.6 Q30.85 37.25 31.25 37.4 L31.9 37.4 32.2 37.1 32.3 36.9 33.15 37.4 33.15 37.15 33.85 37.2 Q34.05 37.35 34.05 37.65 L33.9 38.1 Q34.4 38.65 34.4 39.2 L34.05 39.9 Q34.3 39.9 34.3 40.6 L34.1 41.3 33.5 41.7 33.15 41.65 Q31.35 44.9 30.8 44.9 L29.8 44.5 Q29.7 44.95 29.2 44.95 28.35 44.95 28.35 44.15 L28.45 43.75 27.9 43.4 27.55 43.2 27.7 42.6 27.45 41.9 26.45 41.8 26.45 42.6 24.65 41.55 21.4 39.9 20.3 39.65 Q19.6 39.55 19.5 39.15 L19.2 38.3 Q18.95 37.8 18.55 37.8 L18.15 37.9 18.15 39.3 17.5 39.3 Q16.3 38.6 13.9 38.45 L9.75 38.4 4.9 38.55 2.5 38.55 1.5 38.75 Q1.55 37.85 2.3 36.05 L3.25 34.05 M28.75 37.35 L28.4 37.3 27.95 37.5 Q27.6 38.2 27.6 38.8 L27.7 39.55 28.35 39.1 28.75 38.5 28.75 37.35 M29.5 43.8 L29.55 43.45 29.4 43.15 Q28.85 43.2 28.85 43.7 L29.2 43.85 29.5 43.8 M30.15 41.8 L29.95 41.85 29.95 42.1 29.85 42.7 30.15 43.15 31.05 42.7 31.2 42.25 Q31.2 41.3 30.55 41.5 L30.15 41.8 M35.8 38.85 L35.6 39.2 35.2 39.05 Q35.2 38.8 35.5 38.6 L35.8 38.85 M35.45 42.05 L35.15 42.15 34.85 41.95 35.15 41.5 35.45 41.75 35.45 42.05 M33.75 39.3 L33.3 39.25 Q32.45 39.25 32.45 40.75 L32.45 41.1 32.95 41.4 Q33.25 41.4 33.55 40.65 L33.8 39.7 33.75 39.3 M32.95 38.35 L33.05 38.15 Q32.8 37.65 32.1 37.65 L32.1 38.2 Q32.35 38.45 32.7 38.45 L32.95 38.35 M34.2 43.05 L33.9 43.95 33.05 44.6 32.6 44.55 32.6 43.6 33.5 42.75 Q34.2 42.35 34.2 43.05 M30.6 43.55 Q30.45 43.6 30.45 44.0 30.45 44.6 31.0 44.6 L31.4 44.35 31.55 43.8 31.5 43.4 30.6 43.55 M31.35 45.9 Q31.35 45.3 31.95 45.25 32.55 45.2 32.55 45.75 32.55 46.45 31.9 46.45 31.45 46.45 31.35 46.2 L31.35 45.9" fill="#eedeaa" fill-rule="evenodd" stroke="none"/>
    <path d="M41.35 58.0 Q41.5 60.1 41.1 61.0 40.3 60.4 38.25 57.7 L34.9 53.5 Q33.5 52.0 30.8 50.15 27.85 48.1 26.05 46.5 24.25 44.9 19.55 43.4 14.85 41.9 11.1 41.35 L4.55 41.65 1.45 42.55 0.95 42.3 Q0.7 42.0 0.7 41.5 L0.85 40.95 0.95 41.1 Q2.85 40.05 4.2 39.9 L8.0 39.8 Q14.85 39.8 20.6 41.9 25.3 43.6 28.9 46.55 L29.75 47.3 33.05 49.7 Q35.45 51.25 36.5 52.3 L38.8 55.5 Q40.05 57.3 41.35 58.0" fill="#14003a" fill-opacity="0.56078434" fill-rule="evenodd" stroke="none"/>
    <path d="M41.55 58.05 L41.5 58.05 41.35 58.0 Q40.05 57.3 38.8 55.5 L36.5 52.3 Q35.45 51.25 33.05 49.7 L29.75 47.3 28.9 46.55 Q30.05 46.95 31.25 47.95 32.65 49.15 33.75 49.15 L34.75 48.85 35.5 47.65 35.85 47.85 36.35 48.0 Q36.8 48.0 38.05 45.15 39.3 42.25 40.15 42.25 40.35 42.25 40.6 42.8 L40.15 44.1 39.4 45.25 39.4 46.0 40.35 45.75 38.95 49.0 Q37.75 51.3 37.75 51.95 L39.85 56.1 Q40.25 56.85 41.35 57.85 L41.4 57.9 41.55 58.05" fill="#bb884d" fill-rule="evenodd" stroke="none"/>
  </g>
  <defs>
    <radialGradient cx="0" cy="0" gradientTransform="matrix(0.0137, 0.0, 0.0, 0.0137, 48.6, 3.65)" gradientUnits="userSpaceOnUse" id="gradient0" r="819.2" spreadMethod="pad">
      <stop offset="0.0" stop-color="#ccff00"></stop>
      <stop offset="0.36470588235294116" stop-color="#f3ff00"></stop>
      <stop offset="1.0" stop-color="#ff6600"></stop>
    </radialGradient>
  </defs>
</svg>