<?xml version="1.0" encoding="UTF-8" standalone="no"?>
<svg xmlns:xlink="http://www.w3.org/1999/xlink" height="113.9px" width="113.9px" xmlns="http://www.w3.org/2000/svg">
  <g transform="matrix(1.0, 0.0, 0.0, 1.0, 1, 1)">
    <path d="M95.55 95.5 Q79.15 111.9 55.95 111.9 32.8 111.9 16.4 95.5 0.0 79.1 0.0 55.95 0.0 32.8 16.4 16.4 32.8 0.0 55.95 0.0 79.15 0.0 95.55 16.4 111.9 32.8 111.9 55.95 111.9 79.1 95.55 95.5 M88.15 88.15 Q101.35 75.75 101.35 55.95 101.35 38.4 88.15 24.5 75.75 11.3 55.95 11.3 38.4 11.3 25.9 24.5 11.3 38.4 11.3 55.95 11.3 75.75 25.9 88.15 38.4 101.3 55.95 101.3 75.75 101.3 88.15 88.15" fill="#ffffff" fill-rule="evenodd" stroke="none"/>
  </g>
</svg>