<?xml version="1.0" encoding="UTF-8" standalone="no"?>
<svg xmlns:xlink="http://www.w3.org/1999/xlink" height="98.75px" width="103.1px" xmlns="http://www.w3.org/2000/svg">
  <g transform="matrix(1.0, 0.0, 0.0, 1.0, 1, 12.35)">
    <path d="M54.2 -11.3 L55.3 -11.25 54.75 14.55 58.4 20.1 Q61.95 25.8 64.35 30.25 L64.3 29.85 63.8 26.8 66.95 33.15 67.7 35.7 Q67.7 36.7 72.3 42.75 L69.95 38.75 Q68.4 36.15 67.95 34.65 L66.15 29.85 63.5 22.0 63.5 21.8 59.85 13.3 61.7 15.5 61.6 15.35 60.5 11.35 Q61.2 11.8 63.0 14.6 L67.15 22.0 68.5 23.6 Q71.0 26.55 72.35 28.7 L74.9 41.45 76.1 43.75 79.55 49.8 79.9 50.4 84.5 60.65 Q92.85 62.85 96.85 65.85 L98.6 67.2 99.15 68.05 Q99.15 68.6 98.1 69.0 L96.75 69.3 96.65 69.45 Q97.5 71.05 98.85 72.55 L100.05 73.8 100.05 74.05 Q100.05 75.65 94.0 77.4 L87.85 78.8 Q83.5 77.6 78.7 74.95 74.35 70.85 70.85 65.5 70.15 64.4 69.05 60.05 L72.05 63.15 Q76.5 67.4 81.75 69.85 79.25 67.9 73.4 59.75 L72.45 58.45 67.15 53.5 64.35 50.4 62.6 48.9 59.85 46.2 58.45 43.75 57.05 40.8 55.65 37.55 59.3 42.8 60.0 43.75 Q62.65 47.05 67.3 50.4 L67.55 50.7 67.6 50.7 68.75 51.9 75.1 58.3 75.35 58.65 76.95 61.3 Q77.8 62.9 78.75 62.75 80.1 62.55 80.85 63.15 83.1 64.85 84.8 68.1 86.45 71.25 89.3 73.35 L89.3 73.2 86.35 69.85 Q84.8 68.2 84.4 67.3 83.7 65.25 83.05 64.4 82.05 63.05 78.7 61.7 L75.7 56.9 Q74.4 54.9 73.2 53.8 72.35 52.3 71.6 50.4 70.4 48.3 69.4 45.65 L68.65 43.75 66.4 39.15 Q65.65 36.5 64.8 32.5 59.0 23.9 56.2 18.55 L54.75 15.6 54.5 26.8 Q56.35 29.25 58.5 33.45 57.85 31.5 58.5 33.3 L58.5 33.45 55.75 30.2 54.45 28.75 54.05 50.45 53.45 50.45 54.2 -11.3 M4.05 63.6 Q5.55 62.7 8.35 61.85 L12.5 60.65 14.5 58.5 Q18.6 54.3 21.85 53.35 23.1 53.1 23.8 52.3 L24.8 50.5 27.75 50.5 Q25.3 59.95 23.65 63.6 20.2 70.85 16.35 73.95 12.5 76.95 10.0 76.75 7.5 76.45 5.35 74.45 L4.05 73.25 4.45 72.55 5.65 70.95 7.1 68.05 5.2 66.9 Q3.6 65.85 3.6 65.0 3.6 64.2 4.05 63.6 M29.85 50.5 L31.1 50.5 30.9 52.1 29.8 57.1 Q29.35 58.65 29.25 60.95 L29.0 64.3 Q28.55 66.7 28.15 71.8 27.2 75.95 23.2 78.6 17.9 77.6 17.5 76.55 19.25 75.2 21.25 73.05 25.3 68.6 26.45 65.9 L27.0 64.5 Q27.85 61.7 29.15 54.7 L29.85 50.5 M32.45 50.5 L35.0 50.5 35.1 51.1 35.55 53.15 35.9 53.95 36.1 54.55 37.6 58.85 Q39.7 64.65 41.45 67.85 L42.65 69.85 Q44.1 72.0 45.85 73.65 L49.05 76.35 54.05 79.55 54.0 79.95 54.05 80.8 54.2 81.55 54.35 81.95 53.9 81.7 53.6 81.5 53.05 81.15 Q45.8 76.55 44.3 74.85 L42.45 73.05 40.55 70.8 40.5 70.75 Q39.15 68.85 36.9 64.3 L33.65 56.9 34.35 62.25 36.8 69.0 Q39.5 74.85 44.15 79.6 L47.85 82.95 Q48.0 83.1 47.6 83.1 46.05 83.1 43.3 79.9 L41.3 77.2 Q37.95 72.6 36.6 69.5 L35.2 66.5 35.3 67.05 36.2 70.65 37.1 73.2 37.85 74.8 38.6 76.45 40.5 80.3 39.4 80.3 34.25 80.1 31.85 79.8 30.85 73.6 30.85 63.7 Q30.75 60.45 31.35 58.15 32.0 55.7 32.0 53.55 L32.0 53.0 32.45 50.5 M37.0 50.5 L39.65 50.5 39.7 50.9 40.8 56.4 40.75 56.3 40.6 55.95 40.8 56.55 40.85 56.7 40.9 56.75 41.15 57.5 41.55 58.5 41.65 58.85 42.2 60.3 42.15 60.1 43.2 62.5 Q45.5 67.25 50.35 73.35 L52.85 75.25 55.15 76.6 55.05 77.4 Q50.7 75.55 49.25 74.55 46.15 72.35 42.1 65.9 L41.1 64.3 Q40.65 63.6 39.45 59.75 L39.3 59.35 37.3 52.5 37.0 50.5 M40.4 50.5 L41.9 50.5 42.3 52.3 44.75 57.7 47.1 62.65 Q48.05 64.0 51.75 67.2 L51.75 68.3 Q51.7 69.85 52.6 71.75 L48.25 68.1 47.3 66.65 45.7 63.6 43.95 60.15 43.75 59.75 Q42.45 57.5 40.6 51.2 L40.4 50.5 M44.4 50.5 L45.5 50.5 51.75 59.25 51.75 62.7 48.5 58.75 Q46.8 56.65 44.4 50.5 M53.45 50.5 L54.05 50.5 53.85 63.7 53.55 63.35 53.45 59.45 53.4 56.4 53.45 50.5 M56.55 50.5 L57.9 50.5 60.2 54.0 Q63.75 59.45 65.85 65.9 63.9 64.85 60.1 58.1 57.75 53.95 56.55 50.5 M57.9 50.45 L56.55 50.45 Q55.9 48.95 55.6 47.65 L57.9 50.45 M45.5 50.45 L44.4 50.45 42.85 47.3 45.5 50.45 M41.9 50.45 L40.4 50.45 Q39.1 47.15 38.95 46.4 L39.2 48.0 Q39.35 49.4 39.65 50.45 L37.0 50.45 36.15 46.25 35.7 43.75 35.0 40.7 33.9 42.1 34.2 43.75 34.55 46.75 Q34.6 48.65 35.0 50.45 L32.45 50.45 32.5 50.2 32.5 41.4 Q33.1 36.85 33.1 33.3 L33.65 30.3 33.1 32.35 Q33.05 29.55 32.55 27.4 L32.2 27.4 Q32.4 31.05 31.95 36.55 L29.85 43.75 27.75 50.45 24.8 50.45 25.05 50.0 Q25.45 49.25 26.65 43.75 L29.5 28.8 Q31.35 18.8 32.5 8.95 32.75 10.2 34.25 13.35 L34.2 13.7 Q34.2 17.85 35.75 21.65 37.25 25.5 37.25 27.3 L37.15 30.5 Q37.3 31.35 39.1 34.8 L41.55 38.75 42.8 41.75 43.95 43.75 47.0 49.2 47.0 49.35 42.0 43.75 41.6 43.25 Q39.85 41.1 38.8 39.0 L39.15 40.65 39.95 43.75 41.1 47.75 41.9 50.45 M31.1 50.45 L29.85 50.45 31.2 43.75 31.45 42.25 31.45 49.4 31.2 49.4 31.1 50.45 M51.75 23.95 L51.75 25.45 Q49.6 23.05 47.25 19.3 L44.9 15.2 Q42.4 10.65 40.65 6.5 L51.75 23.95 M85.3 62.05 L89.25 68.85 Q91.85 72.6 94.95 73.75 L94.7 73.0 93.9 69.85 Q92.2 65.2 85.3 62.05 L84.5 60.65 85.3 62.05 M42.05 22.0 L41.7 21.4 Q39.95 18.3 36.15 10.3 L35.6 9.1 35.6 9.05 41.15 17.15 Q45.2 23.35 50.65 32.45 45.1 27.05 42.05 22.0 M68.25 50.4 L66.55 48.65 64.8 45.65 63.65 43.75 61.2 39.05 Q59.65 35.9 59.0 32.0 L58.95 31.75 58.55 27.8 Q60.35 31.45 66.5 41.05 L68.05 43.75 69.3 45.95 Q70.1 47.4 70.45 50.4 L70.5 51.0 Q71.05 53.75 73.0 55.35 L73.25 55.7 68.85 51.2 68.25 50.4 M48.6 44.6 L47.7 43.75 43.9 39.85 41.4 35.85 Q38.0 30.65 37.65 26.5 37.5 25.05 36.5 22.65 35.45 20.1 35.25 18.95 L34.8 14.5 37.4 19.5 39.55 23.3 Q42.6 28.65 45.1 31.8 42.8 30.15 39.5 26.15 L36.85 22.6 37.25 23.7 38.85 27.2 Q40.4 30.6 44.05 36.65 L48.3 43.6 48.35 43.75 Q48.9 44.55 48.6 44.6 M21.8 55.95 L23.8 52.3 21.8 55.95 M21.65 56.2 Q19.55 57.25 17.75 58.95 15.2 61.3 14.2 64.25 11.55 71.6 10.4 73.4 L9.85 74.15 10.5 74.15 Q12.45 73.85 13.55 71.55 L15.95 66.8 19.3 60.5 21.65 56.2 M55.9 72.25 Q58.1 73.8 59.8 75.8 L62.1 78.5 63.15 79.0 58.6 79.0 58.75 78.9 58.85 78.7 58.4 77.45 58.35 77.35 57.8 76.0 56.25 72.85 55.9 72.25" fill="#ffffff" fill-rule="evenodd" stroke="none"/>
    <path d="M53.55 63.35 L53.65 64.8 53.8 66.4 53.9 67.25 54.3 69.25 54.55 70.0 55.9 72.25 56.25 72.85 57.8 76.0 58.35 77.35 58.4 77.45 55.15 76.6 55.15 76.55 Q55.05 75.65 53.4 73.15 L52.6 71.75 Q51.7 69.85 51.75 68.3 L51.75 67.2 51.75 62.7 51.75 59.25 51.75 54.2 52.1 55.7 Q52.7 58.1 53.45 59.45 L53.55 63.35 M54.2 81.55 L54.05 80.8 54.0 79.95 54.05 79.55 55.35 80.3 55.45 80.35 56.8 81.1 56.7 81.75 56.8 82.3 54.2 81.55" fill="#e5b558" fill-rule="evenodd" stroke="none"/>
    <path d="M55.3 -11.25 Q63.05 -10.6 66.75 -0.8 66.7 -0.25 68.35 8.35 L70.8 20.85 72.35 28.7 Q71.0 26.55 68.5 23.6 L67.15 22.0 63.0 14.6 Q61.2 11.8 60.5 11.35 L61.6 15.35 61.7 15.5 59.85 13.3 63.5 21.8 63.5 22.0 66.15 29.85 67.95 34.65 Q68.4 36.15 69.95 38.75 L72.3 42.75 Q67.7 36.7 67.7 35.7 L66.95 33.15 63.8 26.8 64.3 29.85 64.35 30.25 Q61.95 25.8 58.4 20.1 L54.75 14.55 55.3 -11.25 M61.15 50.45 L57.9 50.45 55.6 47.65 Q55.9 48.95 56.55 50.45 L54.05 50.45 54.45 28.75 55.75 30.2 58.5 33.45 58.5 33.3 Q57.85 31.5 58.5 33.45 56.35 29.25 54.5 26.8 L54.75 15.6 56.2 18.55 Q59.0 23.9 64.8 32.5 65.65 36.5 66.4 39.15 L68.65 43.75 69.4 45.65 Q70.4 48.3 71.6 50.4 L70.45 50.4 Q70.1 47.4 69.3 45.95 L68.05 43.75 66.5 41.05 Q60.35 31.45 58.55 27.8 L58.95 31.75 59.0 32.0 Q59.65 35.9 61.2 39.05 L63.65 43.75 64.8 45.65 66.55 48.65 68.25 50.4 67.3 50.4 Q62.65 47.05 60.0 43.75 L59.3 42.8 55.65 37.55 57.05 40.8 58.45 43.75 59.85 46.2 62.6 48.9 64.35 50.4 61.15 50.45 M51.75 50.45 L45.5 50.45 42.85 47.3 44.4 50.45 41.9 50.45 41.1 47.75 39.95 43.75 39.15 40.65 38.8 39.0 Q39.85 41.1 41.6 43.25 L42.0 43.75 47.0 49.35 47.0 49.2 43.95 43.75 42.8 41.75 41.55 38.75 39.1 34.8 Q37.3 31.35 37.15 30.5 L37.25 27.3 Q37.25 25.5 35.75 21.65 34.2 17.85 34.2 13.7 L34.25 13.35 Q32.75 10.2 32.5 8.95 L33.45 -0.8 Q41.6 -11.95 51.75 -11.3 L51.75 23.95 40.65 6.5 Q42.4 10.65 44.9 15.2 L47.25 19.3 Q49.6 23.05 51.75 25.45 L51.75 50.45 M42.05 22.0 Q45.1 27.05 50.65 32.45 45.2 23.35 41.15 17.15 L35.6 9.05 35.6 9.1 36.15 10.3 Q39.95 18.3 41.7 21.4 L42.05 22.0 M48.6 44.6 Q48.9 44.55 48.35 43.75 L48.3 43.6 44.05 36.65 Q40.4 30.6 38.85 27.2 L37.25 23.7 36.85 22.6 39.5 26.15 Q42.8 30.15 45.1 31.8 42.6 28.65 39.55 23.3 L37.4 19.5 34.8 14.5 35.25 18.95 Q35.45 20.1 36.5 22.65 37.5 25.05 37.65 26.5 38.0 30.65 41.4 35.85 L43.9 39.85 47.7 43.75 48.6 44.6" fill="url(#gradient0)" fill-rule="evenodd" stroke="none"/>
    <path d="M40.4 50.45 L39.65 50.45 Q39.35 49.4 39.2 48.0 L38.95 46.4 Q39.1 47.15 40.4 50.45 M37.0 50.45 L35.0 50.45 Q34.6 48.65 34.55 46.75 L34.2 43.75 33.9 42.1 35.0 40.7 35.7 43.75 36.15 46.25 37.0 50.45 M32.45 50.45 L31.1 50.45 31.2 49.4 31.45 49.4 31.45 42.25 31.2 43.75 29.85 50.45 27.75 50.45 29.85 43.75 31.95 36.55 Q32.4 31.05 32.2 27.4 L32.55 27.4 Q33.05 29.55 33.1 32.35 L33.65 30.3 33.1 33.3 Q33.1 36.85 32.5 41.4 L32.5 50.2 32.45 50.45" fill="url(#gradient1)" fill-rule="evenodd" stroke="none"/>
    <path d="M57.05 83.1 L57.65 84.65 57.8 84.95 55.9 85.25 54.8 83.1 54.35 81.95 54.2 81.55 56.8 82.3 57.05 83.1 M54.05 79.55 L54.6 78.35 54.65 78.3 55.05 77.4 55.15 76.6 58.4 77.45 58.85 78.7 58.75 78.9 58.6 79.0 58.35 79.3 57.9 79.7 57.55 79.95 57.4 80.15 Q56.95 80.55 56.8 81.1 L55.45 80.35 55.35 80.3 54.05 79.55" fill="#c29743" fill-rule="evenodd" stroke="none"/>
    <path d="M51.75 -11.3 L54.2 -11.3 53.45 50.45 51.75 50.45 51.75 25.45 51.75 23.95 51.75 -11.3 M51.75 50.5 L53.45 50.5 53.4 56.4 53.45 59.45 Q52.7 58.1 52.1 55.7 L51.75 54.2 51.75 50.5" fill="#bf9441" fill-rule="evenodd" stroke="none"/>
    <path d="M96.85 65.85 L99.1 67.3 Q100.15 68.1 100.15 69.3 L100.05 70.75 98.5 71.75 Q98.8 72.6 100.05 73.65 L100.35 73.85 100.9 74.45 Q101.4 75.55 100.75 77.45 99.95 79.55 88.2 81.75 L82.85 82.7 72.95 83.1 70.95 83.1 67.85 83.15 64.65 83.15 58.9 83.15 57.05 83.1 56.8 82.3 56.7 81.75 56.8 81.1 Q56.95 80.55 57.4 80.15 L57.55 79.95 57.9 79.7 58.35 79.3 58.6 79.0 63.15 79.0 78.7 79.15 77.55 78.1 Q70.65 71.75 69.35 69.7 68.3 68.2 67.1 64.85 L66.65 63.5 66.8 63.8 Q70.15 70.0 78.1 74.6 L78.7 74.95 Q83.5 77.6 87.85 78.8 L94.0 77.4 Q100.05 75.65 100.05 74.05 L100.05 73.8 98.85 72.55 Q97.5 71.05 96.65 69.45 L96.75 69.3 98.1 69.0 Q99.15 68.6 99.15 68.05 L98.6 67.2 96.85 65.85" fill="#dacac5" fill-rule="evenodd" stroke="none"/>
    <path d="M41.9 50.5 L44.4 50.5 Q46.8 56.65 48.5 58.75 L51.75 62.7 51.75 67.2 Q48.05 64.0 47.1 62.65 L44.75 57.7 42.3 52.3 41.9 50.5 M45.5 50.5 L51.75 50.5 51.75 54.2 51.75 59.25 45.5 50.5 M54.05 50.5 L56.55 50.5 Q57.75 53.95 60.1 58.1 63.9 64.85 65.85 65.9 63.75 59.45 60.2 54.0 L57.9 50.5 61.15 50.45 64.35 50.4 67.15 53.5 72.45 58.45 73.4 59.75 Q79.25 67.9 81.75 69.85 76.5 67.4 72.05 63.15 L69.05 60.05 Q70.15 64.4 70.85 65.5 74.35 70.85 78.7 74.95 L78.1 74.6 Q70.15 70.0 66.8 63.8 L66.65 63.5 67.1 64.85 Q68.3 68.2 69.35 69.7 70.65 71.75 77.55 78.1 L78.7 79.15 63.15 79.0 62.1 78.5 59.8 75.8 Q58.1 73.8 55.9 72.25 L54.55 70.0 54.3 69.25 53.9 67.25 57.9 70.65 Q59.65 71.85 62.65 73.15 L68.3 75.25 62.25 71.0 61.3 70.25 Q56.35 66.5 53.85 63.7 L54.05 50.5 M71.6 50.4 Q72.35 52.3 73.2 53.8 74.4 54.9 75.7 56.9 L78.7 61.7 Q82.05 63.05 83.05 64.4 83.7 65.25 84.4 67.3 84.8 68.2 86.35 69.85 L89.3 73.2 89.3 73.35 Q86.45 71.25 84.8 68.1 83.1 64.85 80.85 63.15 80.1 62.55 78.75 62.75 77.8 62.9 76.95 61.3 L75.35 58.65 75.1 58.3 68.75 51.9 67.6 50.7 67.55 50.7 67.3 50.4 68.25 50.4 68.85 51.2 73.25 55.7 73.0 55.35 Q71.05 53.75 70.5 51.0 L70.45 50.4 71.6 50.4 M40.8 56.55 L40.6 55.95 40.75 56.3 40.8 56.4 40.8 56.55 M42.15 60.1 L42.2 60.3 41.65 58.85 42.1 59.95 42.15 60.1" fill="url(#gradient2)" fill-rule="evenodd" stroke="none"/>
    <path d="M94.95 73.75 Q91.85 72.6 89.25 68.85 L85.3 62.05 Q92.2 65.2 93.9 69.85 L94.7 73.0 94.95 73.75" fill="url(#gradient3)" fill-rule="evenodd" stroke="none"/>
    <path d="M55.9 85.25 Q52.1 85.55 44.0 85.15 L38.8 84.9 35.9 84.75 Q23.4 83.9 19.2 82.75 L11.85 80.5 11.4 80.3 9.15 79.3 7.05 78.3 Q3.75 76.35 3.75 74.15 L3.75 74.0 4.0 73.2 4.25 72.6 5.15 71.05 2.4 68.7 Q0.2 66.85 0.0 66.0 L3.65 63.8 4.05 63.6 Q3.6 64.2 3.6 65.0 3.6 65.85 5.2 66.9 L7.1 68.05 5.65 70.95 4.45 72.55 4.05 73.25 5.35 74.45 Q7.5 76.45 10.0 76.75 12.5 76.95 16.35 73.95 20.2 70.85 23.65 63.6 25.3 59.95 27.75 50.5 L29.85 50.5 29.15 54.7 Q27.85 61.7 27.0 64.5 L26.45 65.9 Q25.3 68.6 21.25 73.05 19.25 75.2 17.5 76.55 17.9 77.6 23.2 78.6 27.2 75.95 28.15 71.8 28.55 66.7 29.0 64.3 L29.25 60.95 Q29.35 58.65 29.8 57.1 L30.9 52.1 31.1 50.5 32.45 50.5 32.0 53.0 32.0 53.55 Q32.0 55.7 31.35 58.15 30.75 60.45 30.85 63.7 L30.85 73.6 31.85 79.8 34.25 80.1 39.4 80.3 40.5 80.3 38.6 76.45 37.85 74.8 37.1 73.2 36.2 70.65 35.3 67.05 35.2 66.5 36.6 69.5 Q37.95 72.6 41.3 77.2 L43.3 79.9 Q46.05 83.1 47.6 83.1 48.0 83.1 47.85 82.95 L44.15 79.6 Q39.5 74.85 36.8 69.0 L34.35 62.25 33.65 56.9 36.9 64.3 Q39.15 68.85 40.5 70.75 L40.55 70.8 42.45 73.05 44.3 74.85 Q45.8 76.55 53.05 81.15 L53.6 81.5 53.9 81.7 54.35 81.95 54.8 83.1 55.9 85.25 M35.0 50.5 L37.0 50.5 37.3 52.5 39.3 59.35 39.45 59.75 Q40.65 63.6 41.1 64.3 L42.1 65.9 Q46.15 72.35 49.25 74.55 50.7 75.55 55.05 77.4 L54.65 78.3 54.6 78.35 54.05 79.55 49.05 76.35 45.85 73.65 Q44.1 72.0 42.65 69.85 L41.45 67.85 Q39.7 64.65 37.6 58.85 L36.1 54.55 35.9 53.95 35.55 53.15 35.1 51.1 35.0 50.5 M39.65 50.5 L40.4 50.5 40.6 51.2 Q42.45 57.5 43.75 59.75 L43.95 60.15 45.7 63.6 47.3 66.65 48.25 68.1 52.6 71.75 53.4 73.15 Q55.05 75.65 55.15 76.55 L55.15 76.6 52.85 75.25 50.35 73.35 Q45.5 67.25 43.2 62.5 L42.15 60.1 42.1 59.95 41.65 58.85 41.55 58.5 41.15 57.5 40.9 56.75 40.85 56.7 40.8 56.55 40.8 56.4 39.7 50.9 39.65 50.5 M53.85 63.7 Q56.35 66.5 61.3 70.25 L62.25 71.0 68.3 75.25 62.65 73.15 Q59.65 71.85 57.9 70.65 L53.9 67.25 53.8 66.4 53.65 64.8 53.55 63.35 53.85 63.7" fill="url(#gradient4)" fill-rule="evenodd" stroke="none"/>
    <path d="M15.95 66.8 L13.55 71.55 Q12.45 73.85 10.5 74.15 L9.85 74.15 10.4 73.4 Q11.55 71.6 14.2 64.25 15.2 61.3 17.75 58.95 19.55 57.25 21.65 56.2 L19.3 60.5 15.95 66.8" fill="url(#gradient5)" fill-rule="evenodd" stroke="none"/>
    <path d="M66.75 -0.8 Q66.7 -0.25 68.35 8.35 L70.8 20.85 72.35 28.7 74.9 41.45 76.1 43.75 79.55 49.8 79.9 50.4 84.5 60.65 Q92.85 62.85 96.85 65.85 L99.1 67.3 Q100.15 68.1 100.15 69.3 L100.05 70.75 98.5 71.75 Q98.8 72.6 100.05 73.65 L100.35 73.85 100.9 74.45 Q101.4 75.55 100.75 77.45 99.95 79.55 88.2 81.75 L82.85 82.7 72.95 83.1 70.95 83.1 67.85 83.15 64.65 83.15 58.9 83.15 57.05 83.1 57.65 84.65 57.8 84.95 55.9 85.25 Q52.1 85.55 44.0 85.15 L38.8 84.9 35.9 84.75 Q23.4 83.9 19.2 82.75 L11.85 80.5 11.4 80.3 9.15 79.3 7.05 78.3 Q3.75 76.35 3.75 74.15 L3.75 74.0 4.0 73.2 4.25 72.6 5.15 71.05 2.4 68.7 Q0.2 66.85 0.0 66.0 L3.65 63.8 4.05 63.6 Q5.55 62.7 8.35 61.85 L12.5 60.65 14.5 58.5 Q18.6 54.3 21.85 53.35 23.1 53.1 23.8 52.3 L24.8 50.5 M24.8 50.45 L25.05 50.0 Q25.45 49.25 26.65 43.75 L29.5 28.8 Q31.35 18.8 32.5 8.95 L33.45 -0.8 M94.95 73.75 Q91.85 72.6 89.25 68.85 L85.3 62.05 84.5 60.65 M23.8 52.3 L21.8 55.95 M15.95 66.8 L19.3 60.5 21.65 56.2" fill="none" stroke="#4f0202" stroke-linecap="round" stroke-linejoin="round" stroke-opacity="0.49803922" stroke-width="1"/>
  </g>
  <defs>
    <linearGradient gradientTransform="matrix(-0.0026, 0.0298, -0.0346, -0.003, 29.35, 53.3)" gradientUnits="userSpaceOnUse" id="gradient0" spreadMethod="pad" x1="-819.2" x2="819.2">
      <stop offset="0.0" stop-color="#d4c1bb"></stop>
      <stop offset="1.0" stop-color="#ffffff"></stop>
    </linearGradient>
    <linearGradient gradientTransform="matrix(0.0072, -0.0183, 0.0051, 0.002, 25.5, 52.5)" gradientUnits="userSpaceOnUse" id="gradient1" spreadMethod="pad" x1="-819.2" x2="819.2">
      <stop offset="0.0" stop-color="#d4c1bb"></stop>
      <stop offset="1.0" stop-color="#ffffff"></stop>
    </linearGradient>
    <linearGradient gradientTransform="matrix(-0.0026, 0.0399, -0.0346, -0.0041, 29.35, 54.3)" gradientUnits="userSpaceOnUse" id="gradient2" spreadMethod="pad" x1="-819.2" x2="819.2">
      <stop offset="0.0" stop-color="#d4c1bb"></stop>
      <stop offset="1.0" stop-color="#ffffff"></stop>
    </linearGradient>
    <linearGradient gradientTransform="matrix(-0.0052, -0.0069, 0.0013, -0.0018, 89.7, 66.6)" gradientUnits="userSpaceOnUse" id="gradient3" spreadMethod="pad" x1="-819.2" x2="819.2">
      <stop offset="0.0" stop-color="#d4c1bb"></stop>
      <stop offset="1.0" stop-color="#ffffff"></stop>
    </linearGradient>
    <linearGradient gradientTransform="matrix(0.0072, -0.0244, 0.0051, 0.0027, 25.5, 53.2)" gradientUnits="userSpaceOnUse" id="gradient4" spreadMethod="pad" x1="-819.2" x2="819.2">
      <stop offset="0.0" stop-color="#d4c1bb"></stop>
      <stop offset="1.0" stop-color="#ffffff"></stop>
    </linearGradient>
    <linearGradient gradientTransform="matrix(-0.0059, 0.0106, -0.0014, -0.0014, 14.8, 66.1)" gradientUnits="userSpaceOnUse" id="gradient5" spreadMethod="pad" x1="-819.2" x2="819.2">
      <stop offset="0.0" stop-color="#d4c1bb"></stop>
      <stop offset="1.0" stop-color="#ffffff"></stop>
    </linearGradient>
  </defs>
</svg>