<?xml version="1.0" encoding="UTF-8" standalone="no"?>
<svg xmlns:xlink="http://www.w3.org/1999/xlink" height="26px" width="18.75px" xmlns="http://www.w3.org/2000/svg">
  <g transform="matrix(1.0, 0.0, 0.0, 1.0, -1.65, 1)">
    <path d="M6.4 2.2 L6.75 2.7 Q7.0 3.0 9.9 4.7 L13.8 7.15 Q16.1 8.75 18.6 11.5 L18.75 11.7 18.75 12.85 19.35 15.25 19.4 16.6 Q19.2 14.8 18.25 13.2 L17.05 11.6 16.8 16.65 16.65 16.55 16.5 16.15 16.45 15.9 16.45 15.95 16.45 16.0 Q16.25 17.95 15.7 19.15 L14.65 15.15 13.75 11.55 Q13.25 9.4 12.95 9.15 L10.3 7.7 Q8.4 6.55 6.55 5.75 L6.45 5.7 6.5 7.05 6.4 8.05 5.7 7.9 6.4 8.05 6.4 8.35 6.8 8.2 7.0 8.2 7.5 8.3 7.55 8.3 9.5 8.7 11.9 10.35 10.6 10.6 8.55 9.95 Q7.1 9.45 6.35 9.0 L6.3 9.25 5.45 14.7 4.5 19.15 Q3.8 22.0 4.25 24.0 L3.3 24.0 2.8 20.15 Q4.85 13.05 5.5 9.45 L5.7 7.9 5.85 5.15 5.85 3.75 5.7 2.05 6.1 2.05 6.4 2.2 M16.1 14.2 L16.3 14.9 16.45 16.0 16.3 14.9 16.1 14.2 M16.45 15.9 L16.3 14.9 16.45 15.9" fill="#ffffff" fill-rule="evenodd" stroke="none"/>
    <path d="M3.8 8.3 L3.7 7.75 3.45 5.9 3.7 3.2 Q4.0 0.6 4.6 0.0 L6.4 2.2 6.1 2.05 5.7 2.05 5.85 3.75 5.85 5.15 5.7 7.9 5.05 7.75 4.4 7.75 3.8 8.3 M4.15 2.4 L3.9 3.4 3.85 4.7 3.9 6.1 Q4.0 6.7 4.45 6.9 L4.85 3.15 4.85 1.45 4.45 1.55 4.15 2.4" fill="#e5b558" fill-rule="evenodd" stroke="none"/>
    <path d="M19.4 16.6 L19.4 17.55 Q19.4 18.45 18.3 20.9 17.1 23.55 16.05 23.55 L4.25 24.0 Q3.8 22.0 4.5 19.15 L5.45 14.7 6.3 9.25 6.35 9.0 Q7.1 9.45 8.55 9.95 L10.6 10.6 11.9 10.35 9.5 8.7 7.55 8.3 7.5 8.3 7.0 8.2 6.8 8.2 6.4 8.35 6.4 8.05 6.5 7.05 6.45 5.7 6.55 5.75 Q8.4 6.55 10.3 7.7 L12.95 9.15 Q13.25 9.4 13.75 11.55 L14.65 15.15 15.7 19.15 Q16.25 17.95 16.45 16.0 L16.5 16.15 16.65 16.55 16.8 16.65 17.05 11.6 18.25 13.2 Q19.2 14.8 19.4 16.6 M7.0 8.2 L6.4 8.05 7.0 8.2 M16.5 16.15 L16.45 16.0 16.45 15.95 16.45 15.9 16.5 16.15 Q17.0 19.25 16.4 21.7 16.15 22.65 16.05 23.55 16.15 22.65 16.4 21.7 17.0 19.25 16.5 16.15 M10.9 8.9 L9.5 8.7 10.9 8.9" fill="#d4c1bb" fill-rule="evenodd" stroke="none"/>
    <path d="M4.15 2.4 L4.45 1.55 4.85 1.45 4.85 3.15 4.45 6.9 Q4.0 6.7 3.9 6.1 L3.85 4.7 3.9 3.4 4.15 2.4" fill="#fcdea4" fill-rule="evenodd" stroke="none"/>
    <path d="M2.8 20.15 L2.8 16.4 Q2.55 14.3 2.8 13.1 L3.3 11.15 3.6 9.85 3.9 8.9 3.8 8.3 4.4 7.75 5.05 7.75 5.7 7.9 5.5 9.45 Q4.85 13.05 2.8 20.15" fill="#bf9441" fill-rule="evenodd" stroke="none"/>
    <path d="M6.4 2.2 L6.75 2.7 Q7.0 3.0 9.9 4.7 L13.8 7.15 Q16.1 8.75 18.6 11.5 L18.75 11.7 M6.4 2.2 L6.1 2.05 M5.7 7.9 L6.4 8.05 7.0 8.2 7.5 8.3 7.55 8.3 9.5 8.7 10.9 8.9 M16.45 16.0 L16.3 14.9 16.1 14.2 M3.8 8.3 L4.4 7.75 5.05 7.75 5.7 7.9 M16.65 16.55 L16.5 16.15 Q17.0 19.25 16.4 21.7 16.15 22.65 16.05 23.55 M16.45 16.0 L16.5 16.15 16.45 15.9 16.3 14.9" fill="none" stroke="#4f0202" stroke-linecap="round" stroke-linejoin="round" stroke-opacity="0.49803922" stroke-width="1"/>
    <path d="M2.8 20.15 L2.8 16.4 Q2.55 14.3 2.8 13.1 L3.3 11.15 3.6 9.85 3.9 8.9 3.8 8.3 3.7 7.75 3.45 5.9 3.7 3.2 Q4.0 0.6 4.6 0.0 L6.4 2.2" fill="none" stroke="#701b1b" stroke-linecap="round" stroke-linejoin="round" stroke-width="1"/>
  </g>
</svg>