<?xml version="1.0" encoding="UTF-8" standalone="no"?>
<svg xmlns:xlink="http://www.w3.org/1999/xlink" height="34.8px" width="17.4px" xmlns="http://www.w3.org/2000/svg">
  <g transform="matrix(1.0, 0.0, 0.0, 1.0, 5.1, 1)">
    <path d="M2.05 0.0 L2.5 0.45 Q3.7 4.85 9.4 21.6 L11.3 27.2 Q10.9 30.5 8.2 32.1 L3.05 11.1 3.35 10.25 3.6 9.05 3.4 7.55 2.2 9.05 Q2.35 7.9 1.85 4.95 1.55 3.15 0.9 1.8 L0.3 0.35 2.05 0.0" fill="#ffffff" fill-rule="evenodd" stroke="none"/>
    <path d="M0.3 0.35 L0.9 1.8 Q1.55 3.15 1.85 4.95 2.35 7.9 2.2 9.05 L3.4 7.55 3.6 9.05 3.35 10.25 3.05 11.1 8.2 32.1 Q1.55 34.55 -3.8 28.35 -4.35 27.5 -3.85 18.05 L0.5 13.5 3.6 9.05 0.5 13.5 -3.85 18.05 -3.25 10.85 -2.4 2.6 Q-1.95 1.0 0.3 0.35" fill="#d4c1bb" fill-rule="evenodd" stroke="none"/>
    <path d="M11.3 27.2 L9.4 21.6 Q3.7 4.85 2.5 0.45 L2.05 0.0 M3.6 9.05 L0.5 13.5 -3.85 18.05" fill="none" stroke="#4f0202" stroke-linecap="round" stroke-linejoin="round" stroke-opacity="0.49803922" stroke-width="1"/>
  </g>
</svg>