<?xml version="1.0" encoding="UTF-8" standalone="no"?>
<svg xmlns:xlink="http://www.w3.org/1999/xlink" height="28.8px" width="27.9px" xmlns="http://www.w3.org/2000/svg">
  <g transform="matrix(1.0, 0.0, 0.0, 1.0, 6.15, 2.1)">
    <path d="M11.35 1.7 Q11.85 3.0 11.7 4.05 11.5 6.05 12.2 6.05 12.9 6.05 13.5 5.3 L14.0 4.1 Q14.0 3.05 13.15 2.3 12.4 1.6 11.6 1.6 L11.35 1.7 M10.4 5.25 L10.45 5.2 10.9 3.55 Q10.9 2.4 10.3 1.75 L9.75 1.3 11.2 0.45 13.0 -1.1 Q13.1 -0.25 13.75 1.65 L14.5 3.9 14.55 5.05 14.25 6.95 14.2 7.4 14.1 7.45 11.2 8.0 10.45 8.15 10.2 7.75 Q9.85 7.15 9.85 6.85 L10.4 5.25" fill="#e5b558" fill-rule="evenodd" stroke="none"/>
    <path d="M9.75 1.3 L10.3 1.75 Q10.9 2.4 10.9 3.55 L10.45 5.2 10.4 5.25 Q3.35 7.75 0.65 14.4 -0.85 18.0 -0.7 25.7 -4.25 25.15 -5.15 22.4 -5.35 18.2 -3.4 12.8 L0.65 7.4 Q3.2 4.1 6.35 2.65 9.5 1.15 9.75 1.3 M10.45 8.15 L11.4 9.25 10.75 9.4 4.95 10.45 4.8 10.4 4.8 10.3 6.55 9.3 7.25 8.9 9.3 8.4 10.45 8.15" fill="#ffffff" fill-rule="evenodd" stroke="none"/>
    <path d="M10.4 5.25 L9.85 6.85 Q9.85 7.15 10.2 7.75 L10.45 8.15 9.3 8.4 7.25 8.9 6.55 9.3 4.8 10.3 4.8 10.4 4.95 10.45 10.75 9.4 11.4 9.25 13.95 11.8 Q16.6 14.4 17.8 18.7 L17.8 22.55 Q11.2 25.75 -0.7 25.7 -0.85 18.0 0.65 14.4 3.35 7.75 10.4 5.25" fill="#d4c1bb" fill-rule="evenodd" stroke="none"/>
    <path d="M10.45 8.15 L11.2 8.0 14.1 7.45 14.05 7.6 15.0 8.75 16.4 10.55 Q18.85 14.35 19.6 15.15 21.25 18.45 20.55 22.55 L17.8 22.55 17.8 18.7 Q16.6 14.4 13.95 11.8 L11.4 9.25 10.45 8.15" fill="#bf9441" fill-rule="evenodd" stroke="none"/>
    <path d="M11.35 1.7 L11.6 1.6 Q12.4 1.6 13.15 2.3 14.0 3.05 14.0 4.1 L13.5 5.3 Q12.9 6.05 12.2 6.05 11.5 6.05 11.7 4.05 11.85 3.0 11.35 1.7" fill="#fcdea4" fill-rule="evenodd" stroke="none"/>
    <path d="M10.45 8.15 L11.2 8.0 14.1 7.45 14.2 7.4 14.25 6.95 14.55 5.05 14.5 3.9 13.75 1.65 Q13.1 -0.25 13.0 -1.1 L11.2 0.45 9.75 1.3 M6.35 2.65 Q3.2 4.1 0.65 7.4 L-3.4 12.8 M19.6 15.15 Q18.85 14.35 16.4 10.55 L15.0 8.75 14.05 7.6 14.1 7.45 M10.45 8.15 L9.3 8.4 7.25 8.9 6.55 9.3" fill="none" stroke="#4f0202" stroke-linecap="round" stroke-linejoin="round" stroke-opacity="0.49803922" stroke-width="1"/>
  </g>
</svg>