<?xml version="1.0" encoding="UTF-8" standalone="no"?>
<svg xmlns:xlink="http://www.w3.org/1999/xlink" height="12.15px" width="21.95px" xmlns="http://www.w3.org/2000/svg">
  <g transform="matrix(1.0, 0.0, 0.0, 1.0, 2.8, 5.5)">
    <path d="M2.5 -3.55 Q3.95 -4.35 5.05 -4.45 7.2 -4.7 9.05 -2.5 10.85 -0.3 12.3 0.55 L12.6 0.75 14.1 1.7 12.6 1.6 Q11.1 1.25 9.9 0.15 6.7 -2.65 2.5 -3.55 M18.15 1.9 L17.9 2.05 17.1 2.45 12.6 4.35 11.95 4.5 12.0 4.45 Q6.1 6.05 2.45 1.9 1.55 0.8 0.2 -1.45 L-0.55 -1.55 1.6 -2.95 4.65 -2.3 Q7.25 -1.35 9.4 0.35 10.95 1.55 12.6 2.1 L18.15 1.9" fill="#896f32" fill-rule="evenodd" stroke="none"/>
    <path d="M14.1 1.7 L18.15 1.9 12.6 2.1 Q10.95 1.55 9.4 0.35 7.25 -1.35 4.65 -2.3 L1.6 -2.95 -0.55 -1.55 0.2 -1.45 Q1.55 0.8 2.45 1.9 6.1 6.05 12.0 4.45 L11.95 4.5 12.6 4.35 17.1 2.45 12.6 4.7 8.8 5.55 Q5.6 6.15 2.05 2.85 L-1.8 -0.55 Q-0.75 -2.05 0.85 -2.85 L2.5 -3.55 Q6.7 -2.65 9.9 0.15 11.1 1.25 12.6 1.6 L14.1 1.7" fill="#765f2c" fill-rule="evenodd" stroke="none"/>
    <path d="M2.5 -3.55 Q3.95 -4.35 5.05 -4.45 7.2 -4.7 9.05 -2.5 10.85 -0.3 12.3 0.55 L12.6 0.75 14.1 1.7 18.15 1.9 17.9 2.05 17.1 2.45 12.6 4.7 8.8 5.55 Q5.6 6.15 2.05 2.85 L-1.8 -0.55" fill="none" stroke="#635025" stroke-linecap="round" stroke-linejoin="round" stroke-width="1"/>
  </g>
</svg>