<?xml version="1.0" encoding="UTF-8" standalone="no"?>
<svg xmlns:xlink="http://www.w3.org/1999/xlink" height="20.4px" width="21.7px" xmlns="http://www.w3.org/2000/svg">
  <g transform="matrix(1.0, 0.0, 0.0, 1.0, 10.25, 12.45)">
    <path d="M6.85 -3.05 L6.9 -4.0 4.9 -4.6 -0.65 -5.9 -6.55 -6.35 -6.1 -5.6 -7.95 -4.8 -8.7 -3.0 -8.7 -2.75 -8.65 -2.3 -8.4 -1.3 Q-8.0 -1.25 -8.0 -0.9 L-8.2 -0.55 -8.65 -0.35 Q-9.0 -0.35 -9.25 -1.0 L-8.85 -1.0 -8.85 -6.05 -8.75 -6.6 Q-6.85 -9.1 -4.95 -9.7 L-1.7 -10.8 3.65 -11.05 Q6.2 -10.05 7.9 -7.9 9.6 -5.7 10.45 -3.05 L10.35 -0.65 9.8 0.9 9.1 1.9 8.7 1.25 8.5 0.55 8.7 -0.05 8.95 -0.35 8.85 -0.25 8.5 -0.65 8.2 -1.1 8.7 -1.6 7.85 -2.15 7.0 -2.75 6.85 -3.05" fill="#690e0e" fill-rule="evenodd" stroke="none"/>
    <path d="M9.1 1.8 Q8.55 0.8 7.9 0.6 L5.45 -0.7 3.95 -1.25 1.95 -0.6 Q1.7 -0.6 1.7 -0.7 L1.65 -0.85 Q1.65 -1.1 2.95 -1.55 L-0.35 -1.9 -4.35 -1.25 -6.9 0.0 Q-7.6 0.35 -8.35 1.35 L-8.55 1.85 -8.8 1.1 -8.95 0.65 -8.95 0.55 -9.0 0.4 -9.1 -0.1 -9.15 -0.7 Q-9.45 -4.35 -7.55 -5.8 -5.7 -7.25 -0.75 -6.85 L2.75 -6.3 Q5.1 -5.7 6.6 -4.55 8.85 -2.75 9.1 0.3 L9.15 0.7 9.15 1.1 9.1 1.8" fill="#690e0e" fill-rule="evenodd" stroke="none"/>
    <path d="M-8.55 1.85 L-8.35 1.35 Q-7.6 0.35 -6.9 0.0 L-4.35 -1.25 -0.35 -1.9 2.95 -1.55 Q1.65 -1.1 1.65 -0.85 L1.7 -0.7 Q1.7 -0.6 1.95 -0.6 L3.95 -1.25 5.45 -0.7 7.9 0.6 Q8.55 0.8 9.1 1.8 8.85 4.3 6.85 5.5 5.35 6.4 3.45 6.75 L0.8 6.95 Q-2.75 6.9 -5.8 4.9 L-7.3 3.65 Q-8.1 2.85 -8.55 1.85 M1.4 4.35 Q3.65 3.85 4.1 3.0 L4.2 3.0 Q4.65 3.0 4.65 2.6 L4.35 1.85 3.85 0.95 2.85 0.15 1.7 -0.4 0.45 0.05 -1.45 1.1 -1.5 1.0 Q-1.5 0.5 -0.15 -0.35 L0.5 -0.7 -2.65 -1.05 Q-5.0 -1.0 -5.15 -0.1 L-5.9 0.6 -6.3 1.7 Q-6.3 2.9 -4.9 3.85 -3.55 4.75 -1.95 4.75 L1.4 4.35" fill="#a61515" fill-rule="evenodd" stroke="none"/>
    <path d="M1.4 4.35 L-1.95 4.75 Q-3.55 4.75 -4.9 3.85 -6.3 2.9 -6.3 1.7 L-5.9 0.6 -5.15 -0.1 Q-5.0 -1.0 -2.65 -1.05 L0.5 -0.7 -0.15 -0.35 Q-1.5 0.5 -1.5 1.0 L-1.45 1.1 0.45 0.05 1.7 -0.4 2.85 0.15 3.85 0.95 4.35 1.85 4.65 2.6 Q4.65 3.0 4.2 3.0 L4.1 3.0 Q3.65 3.85 1.4 4.35" fill="#d70f0f" fill-rule="evenodd" stroke="none"/>
    <path d="M1.25 -3.05 Q1.65 -3.1 1.65 -2.7 1.65 -2.3 1.25 -2.3 0.75 -2.3 0.85 -2.7 L1.25 -3.05 M6.85 0.3 L6.8 0.15 6.9 -0.25 7.2 -0.5 Q6.9 -0.6 6.9 -0.95 6.9 -1.5 7.35 -1.45 7.8 -1.4 7.8 -0.95 L7.65 -0.65 7.5 -0.55 7.45 -0.55 7.55 -0.5 Q8.05 -0.4 8.05 0.1 8.05 0.6 7.4 0.6 L7.35 0.6 7.4 0.8 7.45 1.5 7.3 1.95 6.85 2.1 6.8 2.1 6.7 2.1 6.75 2.5 6.75 2.65 Q6.75 3.2 6.35 3.35 L5.85 3.45 5.75 3.45 5.55 3.45 5.25 3.4 5.0 2.75 4.55 2.15 4.55 2.0 4.7 2.0 5.15 2.3 5.45 2.7 5.7 2.55 Q6.15 2.35 6.5 1.95 L6.4 1.8 6.4 1.55 6.6 1.55 7.05 1.2 7.25 0.65 7.05 0.45 6.85 0.3 M5.2 3.55 L5.2 3.6 5.2 3.75 5.15 3.65 5.2 3.55 M4.95 4.55 L4.9 4.55 Q4.5 5.1 3.7 5.1 L2.8 4.95 Q2.8 3.85 2.4 3.35 L2.0 3.0 2.1 3.05 2.25 2.75 3.05 3.65 Q3.65 4.55 4.25 4.55 L4.95 4.55 M2.75 5.4 L2.7 5.6 2.65 5.55 2.8 5.1 2.75 5.4 M-7.25 2.25 L-7.55 1.25 Q-7.55 0.35 -6.45 0.1 L-6.25 0.1 -6.25 -0.05 -6.15 -0.6 Q-5.9 -0.95 -5.15 -0.95 L-4.75 -0.75 -4.85 -1.2 Q-4.85 -2.1 -3.6 -2.1 L-3.1 -1.85 Q-3.05 -2.45 -2.05 -2.55 -1.0 -2.6 -1.0 -2.0 -1.0 -1.75 -1.3 -1.45 -1.7 -1.1 -2.35 -1.1 L-2.95 -1.25 -3.2 -0.8 Q-3.5 -0.35 -4.0 -0.35 L-4.55 -0.5 -4.5 -0.4 -4.25 0.15 Q-4.25 0.8 -5.25 0.8 L-5.4 0.8 -5.35 1.3 -5.4 1.65 -5.15 1.7 -5.65 2.05 -5.8 1.95 -5.5 1.65 -5.45 1.65 -6.9 1.8 -7.1 2.0 -7.25 2.25 M-4.45 1.9 L-3.65 2.3 -4.35 2.45 -4.4 2.2 -4.45 1.9 M-2.3 2.5 L-1.95 2.6 -2.6 3.1 -2.7 3.1 -2.75 2.95 -2.3 2.5 M-0.55 2.95 L0.1 3.05 -0.25 3.55 -0.8 4.15 -0.85 4.0 -0.8 3.55 -0.55 2.95 M-0.25 -2.95 Q0.25 -2.95 0.25 -2.5 0.25 -1.95 -0.25 -1.95 -0.65 -1.95 -0.75 -2.45 -0.75 -2.95 -0.25 -2.95" fill="#d5d5d5" fill-rule="evenodd" stroke="none"/>
    <path d="M5.55 3.45 L5.2 3.4 5.2 3.55 5.15 3.65 5.2 3.75 4.95 4.55 4.25 4.55 Q3.65 4.55 3.05 3.65 L2.25 2.75 Q2.6 2.15 3.6 2.05 L4.45 2.15 Q4.6 1.1 5.6 1.25 L6.0 1.35 Q6.05 0.45 6.75 0.3 L6.85 0.3 7.05 0.45 7.25 0.65 7.05 1.2 6.6 1.55 6.4 1.55 6.4 1.8 6.5 1.95 Q6.15 2.35 5.7 2.55 L5.45 2.7 5.15 2.3 4.7 2.0 4.55 2.0 4.55 2.15 5.0 2.75 5.25 3.4 5.55 3.45 M2.8 4.95 L2.75 5.4 2.8 5.1 2.65 5.55 2.7 5.6 2.55 5.8 Q2.0 6.45 0.05 6.45 -1.75 6.45 -4.55 5.1 -7.35 3.75 -7.35 2.8 L-7.25 2.25 -7.1 2.0 -6.9 1.8 -5.45 1.65 -5.5 1.65 -5.8 1.95 -5.65 2.05 -5.15 1.7 -4.8 1.8 -4.45 1.9 -4.4 2.2 -4.35 2.45 -3.65 2.3 -2.3 2.5 -2.75 2.95 -2.7 3.1 -2.6 3.1 -1.95 2.6 -0.55 2.95 -0.8 3.55 -0.85 4.0 -0.8 4.15 -0.25 3.55 0.1 3.05 1.05 2.8 2.0 3.0 2.4 3.35 Q2.8 3.85 2.8 4.95" fill="#ffffff" fill-rule="evenodd" stroke="none"/>
  </g>
</svg>