<?xml version="1.0" encoding="UTF-8" standalone="no"?>
<svg xmlns:xlink="http://www.w3.org/1999/xlink" height="23.65px" width="22.65px" xmlns="http://www.w3.org/2000/svg">
  <g transform="matrix(1.0, 0.0, 0.0, 1.0, 12.15, 12.9)">
    <path d="M4.75 -7.85 L4.5 -6.55 3.45 -7.9 3.4 -9.4 4.75 -7.85 M4.95 -6.05 L5.2 -7.15 5.4 -6.75 5.35 -7.7 5.6 -8.55 Q6.5 -7.9 6.3 -6.8 L6.15 -6.05 5.8 -4.6 5.9 -4.65 6.0 -4.8 6.95 -6.25 Q6.6 -3.9 5.25 -1.75 L5.05 -1.45 4.0 -1.25 Q5.25 -3.0 5.05 -5.05 L4.95 -6.05 M2.95 -8.5 L1.9 -9.85 0.05 -10.45 -0.05 -10.6 -0.45 -10.5 -1.15 -10.9 Q0.6 -11.55 2.55 -10.25 L2.95 -8.5 M-2.8 4.5 L-0.25 4.85 -0.3 4.7 1.4 4.7 Q4.05 5.15 6.25 4.0 L4.6 3.85 8.45 3.2 8.4 3.65 9.15 3.85 Q4.9 5.4 0.35 5.25 L7.3 5.75 7.25 5.9 Q6.3 6.75 4.85 6.55 L5.75 6.8 5.75 6.95 2.75 6.8 0.75 6.3 -3.0 4.5 -2.8 4.5 M2.35 3.85 L3.25 3.0 5.55 2.5 Q7.35 2.35 8.6 1.2 L9.05 1.0 9.35 1.2 9.5 1.5 Q6.9 3.35 3.55 3.85 L2.35 3.85 M1.7 3.0 L0.95 3.35 0.35 2.9 4.6 0.65 7.55 -4.9 7.65 -4.05 Q6.0 -2.55 5.9 -1.15 L6.7 -1.8 5.75 -0.1 7.85 -1.95 7.55 -1.0 9.25 -2.6 9.25 -2.45 8.9 -1.75 8.35 -0.9 3.95 1.65 4.35 1.85 5.0 1.6 4.25 2.2 3.65 2.3 3.6 2.2 2.95 2.5 1.7 3.0 M-3.2 5.2 L-3.75 4.75 -3.7 4.55 -3.2 5.2 M-6.75 3.1 L-6.05 4.6 -4.45 6.75 -1.1 9.1 Q-5.85 7.8 -7.3 2.9 L-6.75 3.1 M-4.95 5.05 Q-4.15 4.85 -2.4 5.9 0.25 7.4 3.25 7.9 -0.95 8.6 -4.5 5.65 L-4.95 5.05 M-8.7 5.6 Q-11.75 3.6 -11.0 -0.35 L-10.8 -1.05 Q-10.9 2.1 -9.05 4.55 L-8.7 5.6 M-9.2 1.0 L-8.2 3.45 -9.0 1.85 -8.8 3.2 -9.2 1.0 M-5.95 8.55 L-7.0 7.5 -7.4 6.65 -5.95 8.55" fill="#e9cd63" fill-rule="evenodd" stroke="none"/>
    <path d="M0.05 -10.45 L0.05 -10.2 -0.8 -9.7 Q-1.95 -10.15 -3.0 -9.25 L-3.2 -8.95 -3.85 -8.8 -4.4 -8.45 Q-7.1 -7.25 -8.8 -4.65 L-9.5 -3.55 Q-7.5 -9.4 -1.65 -10.25 L-0.9 -10.2 -0.45 -10.5 -0.05 -10.6 0.05 -10.45 M0.05 -10.0 L-0.45 -8.55 -1.35 -8.3 -2.0 -8.4 0.05 -10.0 M-0.65 -8.35 Q-0.75 -7.55 -1.25 -7.8 L-1.5 -7.85 -0.65 -8.35 M-1.35 -6.7 L1.35 -9.0 1.45 -8.95 Q0.6 -7.1 -1.35 -6.4 L-0.9 -6.75 -1.35 -6.7 M-4.7 -1.2 L-4.0 -0.25 -4.2 -1.5 -4.1 -2.1 -3.75 -1.4 Q-2.55 0.2 -1.9 1.65 L-1.4 2.55 Q-3.15 2.25 -4.55 1.1 L-5.55 0.25 Q-4.55 2.55 -2.8 4.5 L-3.0 4.5 -3.85 4.15 Q-5.05 3.4 -5.9 2.15 L-6.35 1.4 -6.05 -0.05 -5.85 -0.35 -5.55 -0.75 -5.1 -0.5 -4.7 -1.2 M-3.3 -1.9 L-3.05 -1.45 0.75 0.25 Q-2.0 1.1 -3.5 -1.45 L-3.3 -1.9 M-6.75 1.95 L-7.4 1.3 -6.7 3.0 -6.75 3.1 -7.3 2.9 Q-8.1 1.5 -8.1 0.0 L-8.1 -0.95 -7.8 -1.75 -7.35 -3.45 -7.3 -3.3 -7.15 -1.75 -6.95 0.05 -6.95 0.8 -6.75 1.95 M0.9 -6.65 L0.6 -6.15 -1.0 -5.9 0.45 -6.75 0.9 -6.65 M-9.4 0.0 Q-10.0 -3.1 -7.65 -5.8 L-7.2 -6.4 Q-8.6 -3.45 -9.05 -0.15 L-9.4 0.0 M-3.05 -8.1 L-4.85 -7.1 -3.2 -8.85 -3.25 -8.7 -1.9 -9.0 -3.05 -8.1 M-6.85 -0.2 Q-7.25 -1.05 -6.75 -1.3 L-6.55 -1.3 -6.85 -0.2 M-5.2 -0.7 Q-5.65 -1.35 -5.25 -1.85 L-5.15 -1.85 -5.2 -0.7" fill="#efdc8f" fill-rule="evenodd" stroke="none"/>
    <path d="M4.75 -7.85 L5.75 -10.0 5.8 -9.75 5.6 -8.55 5.35 -7.7 5.2 -7.15 4.95 -6.05 4.65 -6.25 Q4.5 -6.35 4.5 -6.55 L4.75 -7.85 M2.55 -10.25 L1.4 -11.85 2.25 -11.9 2.55 -11.4 3.4 -9.4 3.45 -7.9 3.25 -7.2 2.95 -8.5 2.55 -10.25 M-0.3 4.7 L-1.9 4.55 -2.55 4.15 2.35 3.85 3.55 3.85 4.6 3.85 6.25 4.0 Q4.05 5.15 1.4 4.7 L-0.3 4.7 M3.25 3.0 L1.3 3.3 1.7 3.0 2.95 2.5 3.65 2.3 4.25 2.2 7.1 1.7 5.55 2.5 3.25 3.0 M7.65 -4.05 L8.8 -4.8 Q8.3 -3.45 7.25 -2.3 L6.7 -1.8 5.9 -1.15 Q6.0 -2.55 7.65 -4.05 M8.35 -0.9 Q7.9 0.15 5.85 1.15 L5.0 1.6 4.35 1.85 3.95 1.65 8.35 -0.9 M0.75 6.3 L4.35 7.5 4.4 7.65 Q0.1 7.8 -3.2 5.2 L-3.7 4.55 -3.85 4.15 -3.0 4.5 0.75 6.3 M-6.05 4.6 L-6.25 3.55 -4.95 5.05 -4.5 5.65 Q-2.1 7.75 0.7 9.2 L0.85 9.3 0.65 9.3 -4.45 6.75 -6.05 4.6 M-9.05 4.55 Q-9.95 2.85 -9.6 0.9 L-9.4 0.0 -9.05 -0.15 -9.2 1.0 -8.8 3.2 -9.0 1.85 -8.2 3.45 Q-6.85 6.25 -4.75 8.75 L-3.9 9.7 -4.1 9.75 -5.0 9.3 -5.95 8.55 -7.4 6.65 -7.0 7.5 -6.8 8.35 -6.95 8.35 Q-8.5 7.65 -8.7 5.6 L-9.05 4.55" fill="#d7ac4a" fill-rule="evenodd" stroke="none"/>
    <path d="M0.05 -10.2 L0.1 -10.25 0.05 -10.0 -2.0 -8.4 -6.35 -4.25 -7.15 -1.75 -7.3 -3.3 Q-6.85 -5.35 -5.6 -6.95 L-4.4 -8.45 -3.85 -8.8 -3.2 -8.95 -3.2 -8.85 -4.85 -7.1 -6.2 -4.75 -3.05 -8.1 -1.9 -9.0 -0.8 -9.7 0.05 -10.2 M-0.45 -8.55 L-0.65 -8.35 -1.5 -7.85 -4.2 -4.75 -5.0 -3.65 -2.85 -5.7 -1.35 -6.7 -0.9 -6.75 -1.35 -6.4 Q-3.3 -4.75 -4.15 -2.4 L-4.7 -1.2 -5.1 -0.5 -5.2 -0.7 -5.15 -1.85 -4.8 -2.9 -5.45 -1.55 -5.55 -0.75 -5.85 -0.35 -6.05 -0.05 -6.35 1.4 -6.35 2.0 -6.75 1.95 -6.95 0.8 -6.95 0.05 -6.85 -0.2 -6.55 -1.3 -5.45 -4.5 -5.5 -3.1 Q-4.85 -5.75 -2.55 -7.4 L-1.35 -8.3 -0.45 -8.55 M-4.1 -2.1 Q-3.65 -3.4 -2.6 -4.0 L-2.15 -4.15 -3.15 -2.4 -3.3 -1.9 -3.5 -1.45 -3.75 -1.4 -4.1 -2.1 M-8.1 -0.95 Q-8.75 -3.9 -6.85 -6.4 L-6.65 -6.65 -7.35 -3.45 -7.8 -1.75 -8.1 -0.95" fill="#f4e8b5" fill-rule="evenodd" stroke="none"/>
  </g>
</svg>