<?xml version="1.0" encoding="UTF-8" standalone="no"?>
<svg xmlns:xlink="http://www.w3.org/1999/xlink" height="25.2px" width="25.2px" xmlns="http://www.w3.org/2000/svg">
  <g transform="matrix(1.0, 0.0, 0.0, 1.0, 12.6, 12.6)">
    <path d="M-11.5 -1.5 Q-11.25 1.6 -8.95 3.9 -6.35 6.5 -2.7 6.5 0.95 6.5 3.55 3.9 6.1 1.3 6.1 -2.35 6.1 -6.0 3.5 -8.55 0.9 -11.15 -2.75 -11.15 L-2.75 -11.25 0.0 -11.6 Q4.8 -11.6 8.2 -8.2 11.6 -4.8 11.6 0.0 11.65 4.8 8.25 8.2 4.85 11.6 0.05 11.6 -4.75 11.6 -8.15 8.2 -11.55 4.8 -11.6 0.0 L-11.5 -1.5" fill="#d7ac4a" fill-rule="evenodd" stroke="none"/>
    <path d="M-2.75 -11.25 L-2.75 -11.15 Q0.9 -11.15 3.5 -8.55 6.1 -6.0 6.1 -2.35 6.1 1.3 3.55 3.9 0.95 6.5 -2.7 6.5 -6.35 6.5 -8.95 3.9 -11.25 1.6 -11.5 -1.5 -11.05 -5.35 -8.2 -8.2 -6.05 -10.35 -3.35 -11.1 L-2.75 -11.25 M-2.6 -8.55 L-3.9 -8.8 Q-5.65 -8.8 -6.95 -7.45 -8.3 -6.1 -8.3 -4.35 -8.35 -2.75 -7.15 -1.8 -6.1 -1.0 -4.55 -1.2 L-4.5 -1.2 Q-3.15 -1.45 -2.05 -2.5 -0.95 -3.6 -0.75 -5.05 -0.5 -6.55 -1.35 -7.6 -1.9 -8.25 -2.6 -8.55" fill="#e9cd63" fill-rule="evenodd" stroke="none"/>
    <path d="M-2.6 -8.55 Q-1.9 -8.25 -1.35 -7.6 -0.5 -6.55 -0.75 -5.05 -0.95 -3.6 -2.05 -2.5 -3.15 -1.45 -4.5 -1.2 L-4.55 -1.2 Q-6.1 -1.0 -7.15 -1.8 -8.35 -2.75 -8.3 -4.35 -8.3 -6.1 -6.95 -7.45 -5.65 -8.8 -3.9 -8.8 L-2.6 -8.55" fill="#efdc8f" fill-rule="evenodd" stroke="none"/>
    <path d="M-3.85 -6.6 Q-3.5 -6.45 -3.25 -6.15 -2.9 -5.7 -3.0 -5.0 -3.1 -4.35 -3.6 -3.85 -4.1 -3.4 -4.7 -3.3 -5.4 -3.2 -5.85 -3.55 -6.4 -4.0 -6.4 -4.7 -6.4 -5.5 -5.8 -6.1 -5.2 -6.7 -4.4 -6.7 L-3.85 -6.6" fill="#f4e8b5" fill-rule="evenodd" stroke="none"/>
  </g>
</svg>