<?xml version="1.0" encoding="UTF-8" standalone="no"?>
<svg xmlns:xlink="http://www.w3.org/1999/xlink" height="23.1px" width="22.15px" xmlns="http://www.w3.org/2000/svg">
  <g transform="matrix(1.0, 0.0, 0.0, 1.0, 12, 12.2)">
    <path d="M7.3 -6.25 L5.55 -7.2 6.1 -6.15 6.7 -5.4 5.75 -4.25 5.3 -5.65 Q5.55 -7.25 4.95 -8.6 L4.55 -9.3 4.85 -9.0 5.1 -8.5 7.8 -7.1 7.5 -6.5 7.4 -6.55 7.45 -6.45 7.3 -6.25 M8.2 -6.2 L8.55 -6.75 9.15 -6.2 8.2 -6.2 M7.45 -4.75 L8.05 -4.2 8.75 -5.5 8.6 -4.0 Q8.35 -1.15 7.05 1.45 L6.05 1.75 6.05 1.65 5.1 2.0 4.95 2.0 4.4 2.0 Q4.1 2.0 3.95 2.15 L3.8 2.35 4.35 2.65 1.7 3.4 5.2 0.5 Q5.65 0.8 5.55 0.4 L5.45 0.25 5.8 -0.3 Q6.55 -1.55 6.15 -2.75 L6.85 -3.65 6.6 -0.4 Q7.8 -2.0 7.95 -3.8 L7.25 -4.25 7.45 -4.75 M7.35 2.2 L5.5 3.95 6.3 4.15 6.8 4.0 6.35 4.2 6.9 4.65 5.15 4.65 6.35 4.9 5.55 5.0 1.95 3.75 5.35 2.65 7.35 2.2 M3.85 5.5 L1.95 5.8 7.6 6.05 7.35 6.45 3.55 6.9 4.0 6.55 Q1.0 6.55 -1.25 4.7 L0.0 4.85 1.05 4.45 2.55 5.05 1.35 5.0 2.6 5.05 3.85 5.5 M-0.45 6.25 L-1.1 6.05 -1.4 5.6 -0.45 6.25 M4.3 -9.35 L4.25 -8.95 4.7 -7.3 3.8 -7.75 Q3.5 -8.95 2.45 -9.85 L1.85 -10.35 4.3 -9.35 M0.3 -10.65 L-0.3 -10.6 0.3 -10.55 2.15 -9.35 0.6 -9.5 -1.6 -10.6 Q-0.5 -11.3 0.8 -11.15 2.15 -11.0 1.45 -10.65 0.8 -11.2 0.45 -10.85 L0.3 -10.65 M2.55 -8.85 L3.05 -7.9 2.6 -7.75 2.05 -8.05 1.9 -8.6 2.55 -8.85 M3.6 -6.6 L3.6 -6.7 3.65 -6.65 3.6 -6.6 M-1.3 -6.7 L-1.5 -6.55 -1.4 -6.55 -2.7 -5.1 -2.9 -6.0 -0.6 -8.1 0.3 -8.25 -0.85 -7.15 -1.3 -6.7 M0.45 -8.85 L0.05 -8.8 -0.45 -8.95 -1.4 -8.8 -2.5 -8.3 -2.85 -8.45 -3.95 -8.1 -3.05 -8.7 -0.6 -9.4 0.45 -8.85 M4.65 3.85 L5.05 3.5 4.2 3.8 4.65 3.85 M-1.5 8.25 L1.6 9.6 0.6 9.45 -2.1 8.95 -5.35 5.25 -6.3 3.9 -6.05 2.85 -5.95 3.35 -5.0 5.35 -4.85 4.55 Q-4.1 6.9 -2.1 8.0 L-1.5 8.25 M-3.15 8.7 L-2.35 9.9 -5.65 7.8 -5.05 8.5 Q-7.45 7.25 -8.25 4.7 L-8.5 3.65 -7.55 5.3 -8.6 3.3 -8.75 2.7 -8.75 0.75 -8.0 2.4 -5.75 6.45 -3.15 8.7 M-9.5 2.65 Q-10.35 0.7 -9.45 -0.6 L-9.35 0.3 -9.5 2.65 M-5.9 -8.15 Q-5.9 -9.05 -5.05 -9.65 -4.25 -10.3 -3.05 -10.3 L-1.8 -9.95 -5.9 -8.15 M-4.05 4.5 L-3.5 5.05 Q0.1 7.75 4.9 7.85 L4.2 8.2 3.4 8.15 -1.85 7.2 -3.5 5.45 -4.05 4.5 M-3.8 -7.6 L-2.95 -8.05 -5.0 -6.3 -3.8 -7.6 M-8.55 7.05 L-9.2 6.4 Q-10.3 4.55 -10.8 2.25 -11.4 -0.45 -10.35 -1.85 -10.75 2.85 -8.55 7.05" fill="#e9cd63" fill-rule="evenodd" stroke="none"/>
    <path d="M7.3 -6.25 L7.45 -6.45 7.5 -6.5 7.8 -7.1 8.0 -7.4 8.25 -7.5 8.5 -7.35 8.6 -7.0 8.55 -6.75 8.2 -6.2 7.25 -4.9 7.45 -4.75 7.25 -4.25 6.85 -3.65 6.15 -2.75 5.2 -1.5 3.95 -1.5 4.65 -2.4 4.45 -2.8 5.75 -4.25 6.7 -5.4 7.3 -6.25 M4.55 -9.3 L4.95 -8.6 Q5.55 -7.25 5.3 -5.65 L4.55 -4.4 4.7 -7.3 4.25 -8.95 4.3 -9.35 4.55 -9.3 M7.05 1.45 L8.8 1.05 7.35 2.2 5.35 2.65 4.35 2.65 3.8 2.35 3.95 2.15 Q4.1 2.0 4.4 2.0 L4.95 2.0 5.1 2.0 6.05 1.75 7.05 1.45 M5.55 5.0 L6.9 5.7 3.85 5.5 2.6 5.05 2.55 5.05 1.05 4.45 -0.85 3.0 1.95 3.75 5.55 5.0 M3.55 6.9 L1.95 6.7 -0.45 6.25 -1.4 5.6 Q-2.35 4.65 -2.5 3.6 -2.7 2.3 -1.9 2.65 L-1.85 2.8 Q-2.0 3.85 -1.25 4.7 1.0 6.55 4.0 6.55 L3.55 6.9 M5.2 0.5 L3.75 0.45 4.4 0.05 5.45 0.25 5.55 0.4 Q5.65 0.8 5.2 0.5 M0.3 -10.55 L0.3 -10.65 0.45 -10.85 Q0.8 -11.2 1.45 -10.65 L1.85 -10.35 2.45 -9.85 Q3.5 -8.95 3.8 -7.75 L3.6 -6.7 3.6 -6.6 3.35 -6.55 3.35 -6.7 3.05 -7.9 2.55 -8.85 2.15 -9.35 0.3 -10.55 M0.6 -9.5 L1.25 -8.8 0.45 -8.85 -0.6 -9.4 Q0.25 -9.45 -1.05 -9.85 L-1.8 -9.95 -3.05 -10.3 -3.95 -10.4 -1.6 -10.6 0.6 -9.5 M-1.5 8.25 L-2.1 8.0 Q-4.1 6.9 -4.85 4.55 L-5.05 3.1 -5.0 2.95 -4.05 4.5 -3.5 5.45 -1.85 7.2 0.1 8.2 -1.5 8.25 M-6.3 3.9 L-5.35 5.25 -2.1 8.95 -1.7 9.2 -3.15 8.7 -5.75 6.45 -7.35 3.05 -6.95 3.4 -6.5 3.4 -6.3 3.9 M-5.05 8.5 L-5.0 8.6 Q-8.95 7.75 -9.5 2.65 L-9.35 0.3 -8.75 2.7 -8.6 3.3 -8.5 3.65 -8.25 4.7 Q-7.45 7.25 -5.05 8.5" fill="#d7ac4a" fill-rule="evenodd" stroke="none"/>
    <path d="M1.25 -8.8 L1.9 -8.6 2.05 -8.05 -1.4 -6.55 -1.5 -6.55 -1.3 -6.7 0.8 -8.35 0.3 -8.25 -0.6 -8.1 -2.35 -7.4 -1.75 -7.4 -3.35 -5.7 -4.8 -3.85 -4.7 -4.45 -4.9 -3.95 -5.0 -4.55 -4.4 -5.45 -5.15 -4.9 -1.95 -7.75 -0.85 -8.65 0.05 -8.8 0.45 -8.85 1.25 -8.8 M1.8 -7.35 Q1.15 -6.6 0.1 -6.2 L-1.45 -5.7 -0.35 -6.4 1.8 -7.35 M-7.35 3.05 L-7.6 1.75 Q-8.15 -1.2 -7.85 -4.35 L-9.1 -0.7 -9.0 -1.7 -8.3 -4.7 -7.9 -4.85 -7.3 -5.25 -7.45 -3.25 -7.35 -1.3 -7.25 0.35 -7.1 1.4 -6.5 3.4 -6.95 3.4 -7.35 3.05 M-6.4 -7.75 L-5.9 -8.15 -1.8 -9.95 -1.05 -9.85 Q0.25 -9.45 -0.6 -9.4 L-3.05 -8.7 -5.05 -7.65 -6.8 -6.2 -6.95 -6.95 -6.35 -7.75 -6.4 -7.75 M-2.8 -8.1 L-2.95 -8.05 -3.8 -7.6 -3.4 -8.15 -5.0 -7.25 -3.95 -8.1 -2.85 -8.45 -2.5 -8.3 -2.8 -8.1 M-5.55 -5.6 L-5.55 -5.55 -6.2 -4.7 -6.25 -4.75 -5.55 -5.6 M-6.6 -8.8 L-5.65 -9.35 Q-8.55 -7.15 -9.65 -3.65 L-9.75 -3.8 Q-9.65 -7.05 -6.6 -8.8 M-6.8 -2.2 L-6.6 -1.65 -6.3 -0.15 -6.25 0.0 -5.95 -2.3 -5.25 -2.25 -5.7 -1.3 -5.5 -0.25 -5.15 0.9 -5.2 1.75 -5.75 1.25 -5.85 2.2 -6.7 1.15 -6.8 -2.2 M-4.0 -2.05 L-3.5 -0.6 Q-3.1 0.5 -3.85 0.95 L-4.0 0.75 Q-4.55 -0.6 -4.0 -2.05" fill="#efdc8f" fill-rule="evenodd" stroke="none"/>
    <path d="M-0.85 -8.65 L-1.95 -7.75 -5.15 -4.9 -4.4 -5.45 -5.0 -4.55 -5.95 -2.3 -6.25 0.0 -6.3 -0.15 -6.6 -1.65 -5.5 -4.5 -6.7 -3.25 -6.8 -2.2 -6.7 1.15 -7.25 0.35 -7.35 -1.3 -6.2 -4.7 -5.55 -5.55 -2.8 -8.1 -2.5 -8.3 -1.4 -8.8 -0.45 -8.95 -0.85 -8.65 M-4.9 -3.95 L-4.7 -4.45 -4.8 -3.85 -5.15 0.9 -5.5 -0.25 -5.25 -2.25 -4.9 -3.95 M-8.3 -4.7 Q-8.3 -5.95 -7.75 -6.85 -7.2 -7.75 -6.4 -7.75 L-6.35 -7.75 -6.95 -6.95 -7.9 -4.85 -8.3 -4.7 M-5.0 -7.25 L-3.4 -8.15 -3.8 -7.6 -5.0 -6.3 -5.55 -5.6 -6.25 -4.75 -7.45 -3.25 -7.3 -5.25 -6.8 -6.2 -5.05 -7.65 -6.35 -5.75 -5.0 -7.25 M-5.15 -4.9 L-5.2 -4.85 -5.15 -4.9" fill="#f4e8b5" fill-rule="evenodd" stroke="none"/>
  </g>
</svg>