<?xml version="1.0" encoding="UTF-8" standalone="no"?>
<svg xmlns:xlink="http://www.w3.org/1999/xlink" height="13.8px" width="19.05px" xmlns="http://www.w3.org/2000/svg">
  <g transform="matrix(1.0, 0.0, 0.0, 1.0, 3.2, -1.3)">
    <path d="M1.9 11.45 L1.4 11.25 1.45 11.25 1.3 10.45 -0.35 11.0 -0.95 10.85 0.65 10.15 0.55 10.05 0.45 9.85 0.5 9.75 3.45 9.15 4.35 8.75 5.25 8.35 Q8.1 6.95 9.7 4.3 10.95 3.55 11.8 2.3 L11.2 3.6 Q10.3 5.5 8.75 6.95 L9.7 6.15 11.85 3.55 9.6 7.45 Q11.25 5.85 12.5 3.55 L11.75 5.4 11.9 5.95 10.8 7.75 11.2 7.3 11.85 7.25 13.25 4.95 13.35 6.1 14.4 5.25 Q13.45 7.45 11.6 9.05 L13.95 7.45 13.85 8.0 13.75 8.6 13.6 9.2 14.1 8.9 14.05 8.95 13.05 10.2 13.25 10.45 12.25 11.4 11.55 11.75 10.75 12.0 10.0 12.45 10.5 12.0 9.2 12.55 8.75 12.7 9.0 12.35 8.95 11.95 7.05 12.25 7.3 11.85 Q7.3 11.4 6.75 11.4 L6.35 11.4 9.0 9.9 Q8.25 10.0 6.85 10.65 L4.95 11.6 4.1 11.7 2.5 11.95 2.8 11.8 2.6 11.75 5.5 10.55 5.4 10.45 1.65 11.4 1.9 11.45 M7.5 4.85 L7.4 5.3 8.65 4.8 9.6 4.35 Q7.25 6.55 4.35 8.05 L3.45 8.45 2.85 8.75 Q0.5 9.75 -2.2 9.15 L0.0 9.15 1.05 9.0 2.05 8.65 Q5.25 7.55 7.5 4.85 M11.3 11.6 L11.8 11.55 12.7 10.9 11.3 11.6" fill="#896f32" fill-rule="evenodd" stroke="none"/>
    <path d="M1.9 11.45 L1.65 11.4 5.4 10.45 5.5 10.55 2.6 11.75 1.9 11.45 M2.5 11.95 L4.1 11.7 4.95 11.6 6.85 10.65 Q8.25 10.0 9.0 9.9 L6.35 11.4 6.75 11.4 Q7.3 11.4 7.3 11.85 L7.05 12.25 8.95 11.95 9.0 12.35 8.75 12.7 5.0 13.4 7.05 11.95 1.5 13.0 1.65 12.35 2.5 11.95 M10.0 12.45 L10.75 12.0 11.55 11.75 12.25 11.4 13.25 10.45 13.05 10.2 14.05 8.95 14.1 8.9 14.85 8.4 14.55 9.4 14.15 10.4 13.85 10.9 13.75 11.05 13.7 11.1 Q11.8 13.85 8.3 14.1 L8.1 14.1 10.0 12.45" fill="#715a28" fill-rule="evenodd" stroke="none"/>
  </g>
</svg>