<?xml version="1.0" encoding="UTF-8" standalone="no"?>
<svg xmlns:xlink="http://www.w3.org/1999/xlink" height="16.3px" width="13.4px" xmlns="http://www.w3.org/2000/svg">
  <g transform="matrix(1.0, 0.0, 0.0, 1.0, -4.2, 10.45)">
    <path d="M15.6 -2.35 L15.5 -0.6 Q15.5 2.85 13.1 4.5 14.55 2.35 14.95 -0.1 15.4 -2.9 15.05 -5.6 L14.9 -6.5 Q15.85 -4.6 15.6 -2.35 M16.25 -2.05 Q16.25 -3.9 16.45 -3.9 L16.6 -1.8 Q16.65 0.0 16.3 1.9 16.0 3.85 14.3 4.85 L15.0 3.55 Q16.3 1.05 16.25 -2.05 M9.55 -8.0 L9.95 -7.75 Q11.6 -5.4 12.35 -2.85 12.2 -4.6 11.25 -6.15 10.1 -8.1 8.15 -9.25 L9.55 -8.0 M7.75 -9.45 L8.2 -9.3 8.55 -9.15 Q10.25 -8.75 11.5 -7.55 L11.2 -8.95 12.25 -6.95 12.5 -7.0 12.7 -6.8 13.4 -5.25 12.75 -7.3 13.35 -6.45 13.1 -7.65 13.9 -5.75 14.05 -7.0 14.35 -8.05 14.5 -7.1 Q14.9 -4.5 14.95 -1.75 15.0 1.1 13.15 3.4 L12.25 3.45 13.0 1.85 12.7 2.0 12.65 1.9 12.55 1.7 12.65 0.3 12.45 1.3 11.95 1.8 11.65 1.95 11.25 2.05 11.5 1.6 11.6 1.25 11.5 1.0 11.2 0.8 11.05 0.75 10.85 0.85 10.75 0.8 10.75 -1.55 Q10.55 -3.2 9.55 -4.5 L9.95 -2.95 10.0 -1.45 9.35 -3.45 Q8.3 -6.3 5.7 -7.4 L7.05 -7.0 5.2 -8.35 8.55 -6.35 7.7 -7.6 8.6 -7.15 9.45 -6.5 8.55 -7.55 8.95 -7.75 7.75 -9.45" fill="#715a28" fill-rule="evenodd" stroke="none"/>
  </g>
</svg>