<?xml version="1.0" encoding="UTF-8" standalone="no"?>
<svg xmlns:xlink="http://www.w3.org/1999/xlink" height="10.2px" width="9.65px" xmlns="http://www.w3.org/2000/svg">
  <g transform="matrix(1.0, 0.0, 0.0, 1.0, 9.55, -3.85)">
    <path d="M-7.45 4.85 L-7.4 4.85 Q-6.8 5.95 -6.1 8.35 L-5.85 8.85 Q-5.75 8.8 -5.55 9.05 L-4.95 10.0 -4.75 10.1 -5.3 9.4 -5.2 9.2 -6.2 7.0 Q-6.2 6.2 -5.75 6.15 L-5.7 6.55 Q-5.7 7.75 -4.05 9.75 L-3.9 9.7 -3.65 9.8 -4.85 8.15 -4.8 8.0 Q-4.35 8.1 -2.8 9.45 -1.25 10.75 -1.25 11.1 L-1.25 11.3 -0.95 11.6 Q-0.95 12.0 -1.4 12.0 L-2.15 11.6 -2.0 11.9 -0.9 12.7 -0.9 12.85 -1.1 12.95 Q-2.1 12.95 -3.15 12.0 L-3.3 12.05 -2.7 12.6 -2.7 12.7 -2.9 12.8 -4.25 12.5 -3.85 12.9 -4.0 13.05 -5.25 11.95 Q-6.6 11.45 -7.3 9.8 L-7.2 9.45 Q-8.2 7.75 -8.55 5.8 L-8.55 5.35 -8.5 5.35 -7.25 8.45 -6.45 9.85 -6.0 10.4 -5.7 10.5 -6.55 8.75 Q-7.5 6.3 -7.5 5.3 L-7.45 4.85" fill="#715a28" fill-rule="evenodd" stroke="none"/>
  </g>
</svg>