<?xml version="1.0" encoding="UTF-8" standalone="no"?>
<svg xmlns:xlink="http://www.w3.org/1999/xlink" height="11.3px" width="15px" xmlns="http://www.w3.org/2000/svg">
  <g transform="matrix(1.0, 0.0, 0.0, 1.0, 11.85, 14.65)">
    <path d="M1.8 -12.45 L1.25 -12.1 0.9 -12.2 Q0.45 -11.75 0.1 -11.75 -0.2 -11.75 -0.25 -12.05 -0.4 -11.95 -0.45 -11.95 -0.65 -11.95 -0.75 -12.1 L-0.8 -12.1 Q-1.3 -12.1 -1.1 -12.55 L-1.15 -12.7 -1.25 -12.6 -1.75 -12.0 Q-2.05 -12.0 -2.05 -12.35 L-1.6 -13.1 Q-1.15 -13.65 -0.9 -13.45 L-0.85 -13.3 -1.1 -12.85 Q0.3 -14.1 0.45 -13.45 L0.9 -13.55 1.1 -13.45 Q1.55 -13.65 1.55 -13.1 2.15 -13.55 2.15 -12.9 L1.8 -12.45 M-8.15 -10.05 Q-7.5 -11.0 -7.5 -10.05 L-8.5 -8.6 -8.55 -8.5 -8.6 -8.45 Q-8.9 -8.45 -8.9 -8.9 L-8.65 -9.5 -8.15 -10.05" fill="#ffffff" fill-rule="evenodd" stroke="none"/>
    <path d="M-1.55 -8.25 L-1.45 -8.15 -1.85 -7.0 -1.75 -7.0 Q-1.45 -7.8 -1.0 -7.75 L-1.1 -7.6 -1.55 -6.9 -1.85 -6.9 Q-2.0 -6.45 -2.35 -6.4 L-2.15 -7.25 -1.55 -8.25 M-4.45 -9.45 L-3.05 -11.2 -3.8 -9.8 -3.15 -10.4 -3.95 -8.5 -2.95 -9.45 -3.2 -8.1 -2.85 -8.45 -2.7 -8.1 -3.4 -6.55 -2.95 -7.15 -2.6 -7.85 -1.9 -9.2 -2.4 -7.2 -3.95 -5.65 -4.0 -6.0 -4.5 -6.15 -4.65 -5.5 -5.6 -5.95 -5.8 -7.05 -5.85 -4.75 -6.7 -5.35 -6.75 -5.3 -6.85 -5.3 -6.95 -5.65 -7.1 -5.85 -7.5 -4.35 -8.1 -6.2 -8.35 -4.75 -8.95 -6.1 -8.95 -4.65 -10.3 -5.95 -9.0 -7.5 -8.95 -7.45 -8.9 -7.45 -7.8 -8.85 -7.0 -9.2 -6.5 -9.8 -6.05 -10.0 -6.7 -8.3 -5.3 -10.8 -4.75 -10.8 -3.25 -12.45 -4.45 -9.45 M-10.65 -5.05 L-10.8 -5.3 Q-11.0 -6.75 -9.8 -7.05 L-10.4 -5.75 -10.5 -5.15 -10.65 -5.05" fill="#841010" fill-rule="evenodd" stroke="none"/>
  </g>
</svg>