<?xml version="1.0" encoding="UTF-8" standalone="no"?>
<svg xmlns:xlink="http://www.w3.org/1999/xlink" height="5.25px" width="9.75px" xmlns="http://www.w3.org/2000/svg">
  <g transform="matrix(1.0, 0.0, 0.0, 1.0, 5.2, -9.1)">
    <path d="M0.25 12.05 L0.5 11.95 1.05 11.85 1.45 11.7 3.5 11.05 3.55 11.0 3.55 11.15 Q3.55 11.6 0.4 12.4 L0.05 12.6 -0.55 12.6 -3.45 12.4 Q-4.2 12.2 -4.2 11.8 L-3.35 11.7 -3.6 11.45 -3.05 11.4 -2.9 11.25 -3.1 11.15 Q-4.0 10.85 -4.0 10.65 L-3.9 10.45 Q-3.6 9.9 -1.85 10.25 -0.15 10.6 0.15 10.9 L-0.05 11.05 1.05 10.85 3.0 10.65 Q3.05 10.85 2.3 11.1 L0.5 11.45 2.15 11.35 0.6 11.85 -0.5 11.85 0.1 11.95 0.25 12.05 M-0.35 11.5 L0.1 11.45 -0.4 11.45 -0.35 11.5 M-1.9 13.35 Q-3.1 13.35 -3.1 12.9 -3.1 12.65 -2.0 12.7 -0.95 12.75 -0.95 13.0 -0.95 13.35 -1.9 13.35" fill="#715a28" fill-rule="evenodd" stroke="none"/>
  </g>
</svg>