<?xml version="1.0" encoding="UTF-8" standalone="no"?>
<svg xmlns:xlink="http://www.w3.org/1999/xlink" height="10.55px" width="8.5px" xmlns="http://www.w3.org/2000/svg">
  <g transform="matrix(1.0, 0.0, 0.0, 1.0, 2.7, 8.1)">
    <path d="M-0.5 -0.6 L-0.5 -0.45 Q-1.25 -0.8 -0.75 0.05 -0.25 0.85 0.55 0.75 0.65 0.25 1.0 -0.05 L0.85 -0.1 1.05 -0.35 2.25 0.0 1.25 0.25 1.6 0.6 0.3 1.45 -1.7 0.0 Q-1.2 -0.4 -1.7 -0.95 L-0.5 -0.6" fill="#b58a28" fill-rule="evenodd" stroke="none"/>
    <path d="M-0.5 -0.45 L-0.45 -0.25 Q0.15 0.35 0.85 -0.1 L1.0 -0.05 Q0.65 0.25 0.55 0.75 -0.25 0.85 -0.75 0.05 -1.25 -0.8 -0.5 -0.45" fill="#84651e" fill-rule="evenodd" stroke="none"/>
    <path d="M3.75 -6.5 L3.0 -6.7 2.9 -6.7 2.1 -6.5 1.75 -6.05 Q1.75 -5.8 2.1 -5.6 L2.9 -5.4 3.0 -5.4 3.75 -5.6 4.05 -6.05 3.75 -6.5 M-0.5 -0.6 L1.45 -7.05 3.0 -7.1 3.9 -7.0 4.8 -5.45 3.25 -4.7 1.05 -0.35 0.85 -0.1 Q0.15 0.35 -0.45 -0.25 L-0.5 -0.45 -0.5 -0.6" fill="#705518" fill-rule="evenodd" stroke="none"/>
    <path d="M3.75 -6.5 L4.05 -6.05 3.75 -5.6 3.0 -5.4 2.9 -5.4 2.1 -5.6 Q1.75 -5.8 1.75 -6.05 L2.1 -6.5 2.9 -6.7 3.0 -6.7 3.75 -6.5" fill="#bb8e2b" fill-rule="evenodd" stroke="none"/>
  </g>
</svg>