<?xml version="1.0" encoding="UTF-8" standalone="no"?>
<svg xmlns:xlink="http://www.w3.org/1999/xlink" height="124.5px" width="167.75px" xmlns="http://www.w3.org/2000/svg">
  <g transform="matrix(1.0, 0.0, 0.0, 1.0, 246.15, -23.9)">
    <path d="M-79.4 26.25 Q-79.6 27.55 -87.35 38.15 -95.75 49.75 -99.7 52.75 L-109.7 58.8 Q-117.75 63.55 -119.25 65.55 -120.25 66.85 -124.9 75.05 -126.5 77.95 -129.55 77.95 -130.7 77.95 -131.25 77.15 L-131.3 77.05 -131.55 76.3 Q-131.4 72.3 -120.4 62.8 -112.8 56.25 -103.2 49.6 L-103.05 49.5 Q-96.35 44.95 -90.85 35.25 L-90.85 35.3 -90.7 35.05 -90.65 35.05 Q-90.5 34.75 -90.5 34.45 -90.55 34.1 -90.75 33.85 -91.0 33.55 -91.3 33.5 L-91.35 33.5 -91.95 33.6 -94.15 34.7 Q-103.7 39.6 -107.1 40.8 L-114.05 43.6 -121.55 46.55 Q-122.9 46.95 -125.2 49.95 L-125.25 50.0 Q-127.85 52.05 -132.7 52.05 -134.15 52.05 -134.6 51.35 L-134.7 50.55 -134.7 50.5 -134.7 50.45 Q-134.5 47.65 -126.75 44.55 L-126.65 44.5 Q-115.4 40.65 -110.15 38.0 -109.2 37.55 -102.45 35.15 -96.4 33.0 -94.05 31.4 -88.95 28.15 -87.25 27.4 -85.05 26.5 -84.1 26.9 L-83.5 27.0 -82.95 26.75 Q-80.85 25.0 -79.8 24.9 -79.4 25.05 -79.4 26.25 M-152.15 49.4 L-152.1 49.65 Q-152.3 50.45 -165.05 57.9 -179.25 66.15 -179.05 68.75 L-179.05 68.8 Q-179.1 70.0 -179.9 71.3 L-179.95 71.4 Q-181.1 73.2 -183.35 73.2 -185.05 73.2 -185.65 72.2 L-185.9 71.05 -185.9 71.0 Q-185.8 68.6 -182.15 65.65 L-182.0 65.55 Q-178.3 62.55 -172.05 59.75 L-171.95 59.7 -171.85 59.65 -159.45 52.2 Q-155.25 49.8 -153.15 49.4 L-153.1 49.4 Q-152.5 49.25 -152.15 49.4 M-123.8 69.05 L-123.9 68.85 Q-125.25 68.2 -127.05 70.65 -128.75 72.9 -128.75 74.15 L-128.6 74.55 -128.0 75.05 Q-127.2 74.5 -125.45 72.15 L-123.75 69.55 -123.8 69.05 M-123.55 45.95 L-123.65 45.8 -128.0 46.65 Q-131.5 47.55 -131.5 48.55 L-131.35 49.15 Q-130.95 49.75 -129.75 49.75 -123.5 47.5 -123.5 46.45 L-123.55 45.95 M-155.25 78.5 Q-156.3 81.15 -168.3 89.3 L-182.05 98.15 -182.2 98.2 Q-188.05 102.05 -195.4 108.8 L-195.5 109.0 -198.9 113.65 -198.95 113.7 Q-202.45 117.85 -204.5 118.0 -206.2 118.0 -206.75 117.1 L-206.95 115.7 Q-206.8 112.2 -198.75 105.8 L-198.65 105.7 -184.3 95.35 Q-174.25 88.2 -164.8 82.85 -159.35 79.75 -156.6 78.85 L-155.25 78.5 M-134.2 112.5 L-134.35 113.2 -134.35 113.35 Q-134.45 113.95 -139.4 121.15 L-144.1 128.15 Q-145.4 127.85 -145.75 125.65 -145.6 124.95 -144.7 123.65 L-144.55 123.2 -144.55 123.15 -144.65 122.65 -144.8 122.15 Q-144.35 120.8 -138.25 112.65 -132.2 104.6 -128.35 101.55 -129.4 104.25 -134.0 112.15 L-134.2 112.5 M-199.15 109.65 Q-199.9 109.7 -202.05 111.65 -204.25 113.55 -204.25 114.05 -204.2 115.25 -203.35 115.25 -199.0 111.3 -199.0 110.35 L-199.05 109.85 -199.15 109.65 M-200.15 147.4 Q-201.0 147.35 -201.4 146.95 L-201.45 146.95 -201.65 146.35 -201.65 146.3 Q-201.5 144.55 -198.4 142.85 L-198.35 142.85 Q-196.9 142.05 -196.15 142.05 L-196.05 142.4 -198.15 145.1 -200.15 147.4 M-236.9 120.0 L-242.15 126.2 Q-244.85 126.15 -245.15 124.55 -241.35 118.7 -239.3 118.4 -237.05 118.25 -232.65 114.2 L-231.65 113.35 -231.65 113.7 -236.9 120.0" fill="#990000" fill-rule="evenodd" stroke="none"/>
    <path d="M-123.55 45.95 L-123.5 46.45 Q-123.5 47.5 -129.75 49.75 -130.95 49.75 -131.35 49.15 L-131.5 48.55 Q-131.5 47.55 -128.0 46.65 L-123.65 45.8 -123.55 45.95 M-123.8 69.05 L-123.75 69.55 -125.45 72.15 Q-127.2 74.5 -128.0 75.05 L-128.6 74.55 -128.75 74.15 Q-128.75 72.9 -127.05 70.65 -125.25 68.2 -123.9 68.85 L-123.8 69.05 M-199.15 109.65 L-199.05 109.85 -199.0 110.35 Q-199.0 111.3 -203.35 115.25 -204.2 115.25 -204.25 114.05 -204.25 113.55 -202.05 111.65 -199.9 109.7 -199.15 109.65" fill="#f9f6ee" fill-rule="evenodd" stroke="none"/>
  </g>
</svg>