<?xml version="1.0" encoding="UTF-8" standalone="no"?>
<svg xmlns:xlink="http://www.w3.org/1999/xlink" height="112.25px" width="133.2px" xmlns="http://www.w3.org/2000/svg">
  <g transform="matrix(1.0, 0.0, 0.0, 1.0, 237.35, -37)">
    <path d="M-119.4 40.5 Q-120.15 40.5 -120.5 39.95 L-120.7 39.25 Q-120.65 38.05 -119.35 38.0 L-118.4 38.25 -118.45 38.2 Q-118.15 38.55 -118.15 39.3 -118.15 39.65 -118.45 40.05 -118.8 40.5 -119.4 40.5 M-106.45 58.85 Q-108.35 60.6 -112.05 60.6 -114.3 60.6 -115.15 59.45 L-115.2 59.35 -115.55 57.9 -115.55 57.85 Q-115.5 56.55 -113.95 55.15 -112.25 53.65 -110.05 52.95 -107.5 52.2 -106.25 52.95 -105.15 53.75 -105.15 56.1 -105.15 57.6 -106.45 58.85 M-108.9 56.6 Q-108.25 56.0 -108.25 55.4 -108.25 53.8 -110.05 54.35 -111.9 54.85 -111.9 56.15 -111.95 57.25 -110.6 57.25 -109.65 57.25 -108.9 56.6 M-150.7 119.0 L-150.6 118.95 -150.55 118.9 -150.55 119.4 -151.7 123.75 Q-152.95 128.3 -153.0 129.35 L-153.0 129.4 Q-153.25 132.55 -152.8 139.15 L-152.8 144.5 Q-153.3 148.1 -155.7 148.25 -157.15 148.2 -157.9 146.7 L-158.4 145.0 -158.15 139.5 -158.15 139.45 Q-157.2 136.6 -155.85 131.0 L-155.8 130.8 Q-154.95 126.8 -153.55 123.65 -152.1 120.45 -150.7 119.0 M-180.9 89.8 L-180.2 89.9 Q-180.0 90.2 -179.95 90.9 L-182.8 95.0 -182.85 95.0 -182.9 95.05 Q-186.25 99.95 -186.15 101.15 L-186.15 101.2 -185.75 103.1 -185.45 104.6 Q-185.45 108.8 -185.6 109.5 -186.15 112.5 -188.75 112.55 -190.8 112.55 -191.35 111.2 L-191.35 108.95 Q-191.35 98.95 -184.95 92.35 -182.65 90.05 -180.9 89.8 M-186.9 105.0 Q-186.35 102.9 -186.35 102.35 -186.35 100.4 -187.55 101.3 -188.75 102.25 -188.75 104.7 -189.05 107.15 -187.8 107.15 -187.55 107.15 -186.9 105.0 M-227.65 105.45 L-227.5 105.4 -228.85 108.35 Q-230.4 111.7 -230.4 114.95 -230.4 117.7 -231.15 120.5 -232.35 124.9 -235.0 125.05 -235.9 125.0 -236.2 124.1 L-236.35 122.2 Q-236.3 115.95 -231.1 109.0 -229.2 106.45 -227.8 105.5 L-227.65 105.45" fill="#990000" fill-rule="evenodd" stroke="none"/>
    <path d="M-108.9 56.6 Q-109.65 57.25 -110.6 57.25 -111.95 57.25 -111.9 56.15 -111.9 54.85 -110.05 54.35 -108.25 53.8 -108.25 55.4 -108.25 56.0 -108.9 56.6 M-186.9 105.0 Q-187.55 107.15 -187.8 107.15 -189.05 107.15 -188.75 104.7 -188.75 102.25 -187.55 101.3 -186.35 100.4 -186.35 102.35 -186.35 102.9 -186.9 105.0" fill="#f9f6ee" fill-rule="evenodd" stroke="none"/>
  </g>
</svg>