<?xml version="1.0" encoding="UTF-8" standalone="no"?>
<svg xmlns:xlink="http://www.w3.org/1999/xlink" height="113.6px" width="127.65px" xmlns="http://www.w3.org/2000/svg">
  <g transform="matrix(1.0, 0.0, 0.0, 1.0, 237.55, -39.6)">
    <path d="M-127.8 40.6 Q-127.05 40.6 -127.05 41.3 L-127.2 41.85 -127.8 42.05 Q-128.3 42.05 -128.5 41.7 L-128.55 41.45 -128.55 41.4 -128.55 41.3 Q-128.55 40.6 -127.8 40.6 M-110.9 70.45 Q-110.9 71.5 -111.45 72.4 -112.05 73.4 -113.3 73.4 -115.0 73.4 -115.55 72.1 L-115.7 70.2 Q-115.7 68.75 -115.1 68.05 L-115.1 68.0 Q-114.5 67.45 -113.35 67.5 -110.9 67.7 -110.9 70.45 M-155.5 147.5 Q-155.35 147.8 -155.35 148.5 L-155.45 151.0 -155.5 151.15 Q-155.7 152.15 -156.5 152.2 -157.6 152.1 -157.65 150.7 -157.65 148.4 -156.1 147.65 L-155.5 147.5 M-189.85 107.8 Q-189.0 107.8 -188.2 108.85 -187.2 110.2 -187.2 112.0 -187.25 113.05 -188.85 117.75 L-188.9 117.85 -190.45 122.35 Q-192.05 122.1 -192.6 120.15 L-192.75 117.0 Q-192.75 108.2 -189.9 107.8 L-189.85 107.8 M-189.3 111.1 Q-189.3 110.0 -190.45 110.6 -191.6 111.25 -191.6 112.15 L-191.5 114.3 -191.15 114.55 -190.65 114.6 -190.1 114.45 -189.85 114.3 Q-189.3 111.75 -189.3 111.1 M-235.6 126.5 Q-234.45 126.75 -234.45 128.4 L-234.6 129.2 -234.7 129.3 -235.3 129.7 Q-235.95 129.65 -236.25 128.85 L-236.3 128.75 -236.55 127.6 -236.3 126.6 -236.3 126.65 -235.6 126.5" fill="#990000" fill-rule="evenodd" stroke="none"/>
    <path d="M-189.3 111.1 Q-189.3 111.75 -189.85 114.3 L-190.1 114.45 -190.65 114.6 -191.15 114.55 -191.5 114.3 -191.6 112.15 Q-191.6 111.25 -190.45 110.6 -189.3 110.0 -189.3 111.1" fill="#f9f6ee" fill-rule="evenodd" stroke="none"/>
  </g>
</svg>