<?xml version="1.0" encoding="UTF-8" standalone="no"?>
<svg xmlns:xlink="http://www.w3.org/1999/xlink" height="86.6px" width="84.55px" xmlns="http://www.w3.org/2000/svg">
  <g transform="matrix(1.0, 0.0, 0.0, 1.0, 195.15, -43.5)">
    <path d="M-134.8 45.2 Q-135.2 45.2 -135.2 44.8 -135.15 44.5 -134.75 44.5 L-134.45 44.55 -134.4 44.8 -134.5 45.05 -134.8 45.2 M-115.3 77.85 Q-114.8 77.4 -113.75 77.45 -111.65 77.5 -111.6 79.45 -111.6 80.15 -112.1 80.75 -112.7 81.45 -113.8 81.45 -115.05 81.45 -115.55 80.55 L-115.8 79.45 Q-115.8 78.4 -115.35 77.9 L-115.3 77.85 M-188.95 119.6 Q-188.95 121.7 -189.65 124.95 -190.45 128.9 -191.55 129.1 -192.75 129.0 -193.5 127.15 L-193.55 127.05 -194.15 124.85 Q-194.15 120.05 -191.0 117.9 L-190.85 117.8 Q-190.15 117.35 -189.6 117.5 L-189.55 117.55 Q-188.95 118.0 -188.95 119.6" fill="#990000" fill-rule="evenodd" stroke="none"/>
  </g>
</svg>