<?xml version="1.0" encoding="UTF-8" standalone="no"?>
<svg xmlns:xlink="http://www.w3.org/1999/xlink" height="51.7px" width="77.2px" xmlns="http://www.w3.org/2000/svg">
  <g transform="matrix(1.0, 0.0, 0.0, 1.0, 38.6, 25.85)">
    <path d="M18.05 -15.75 Q20.9 -15.65 22.15 -14.4 L23.8 -12.45 Q25.2 -11.6 25.8 -10.55 26.4 -9.5 26.0 -8.55 27.85 -7.85 28.35 -6.45 L29.05 -4.05 29.05 -5.45 Q29.1 -6.4 29.95 -6.55 30.45 -8.65 32.1 -8.85 34.4 -9.05 34.4 -4.85 L34.4 -4.2 Q34.9 -4.0 34.9 -3.15 L34.35 -1.95 36.0 4.25 Q37.6 10.9 37.6 13.35 37.6 15.1 36.25 16.0 33.9 17.5 32.4 19.5 24.5 24.85 22.5 24.85 20.8 24.85 20.3 23.6 L20.15 22.35 Q20.15 21.75 20.5 21.3 L17.75 21.6 17.15 22.4 Q16.55 23.15 14.9 23.15 13.8 23.15 12.2 21.35 10.75 19.75 10.75 19.4 10.75 19.05 11.05 18.45 L11.35 17.5 7.7 17.7 Q6.0 17.7 4.55 15.55 3.35 13.65 3.35 12.3 -5.6 11.3 -6.4 10.35 L-8.6 8.15 Q-10.3 6.65 -11.0 6.65 L-12.8 7.0 -14.95 7.35 Q-15.05 7.35 -15.4 7.65 -15.8 7.95 -16.15 7.95 -16.9 7.95 -17.35 7.3 L-17.65 6.45 Q-17.7 5.9 -18.3 5.75 L-21.05 5.55 -26.65 5.45 Q-27.55 4.9 -28.95 2.95 -30.15 1.25 -32.3 0.45 -35.6 -0.85 -36.75 -2.1 -37.6 -3.0 -37.6 -4.55 -37.6 -6.15 -36.55 -7.4 -35.05 -9.25 -34.45 -10.8 -34.25 -11.3 -34.2 -12.35 L-34.0 -13.95 -32.8 -16.95 -32.65 -18.9 Q-32.65 -20.25 -28.9 -22.2 -24.95 -24.25 -21.7 -24.25 L-20.1 -24.05 -19.0 -23.85 -17.4 -24.3 -14.5 -24.75 -12.1 -24.85 -8.95 -24.45 Q-8.55 -24.2 -8.4 -24.2 L-6.95 -24.25 Q-5.1 -24.25 -4.8 -23.4 L-4.7 -21.5 Q-4.35 -18.75 3.85 -18.75 L9.1 -19.2 12.05 -19.65 Q13.4 -19.65 13.6 -18.8 13.75 -18.35 13.55 -17.85 14.5 -17.9 16.25 -17.05 17.95 -16.2 18.05 -15.75 M23.45 19.8 L27.4 18.65 26.7 18.0 Q25.5 18.0 23.45 19.8" fill="#cc9966" fill-rule="evenodd" stroke="none"/>
  </g>
</svg>