<?xml version="1.0" encoding="UTF-8" standalone="no"?>
<svg xmlns:xlink="http://www.w3.org/1999/xlink" height="14.7px" width="19.4px" xmlns="http://www.w3.org/2000/svg">
  <g transform="matrix(1.0, 0.0, 0.0, 1.0, 9.65, 6.75)">
    <path d="M-8.5 -1.2 Q-8.15 -2.25 -6.85 -3.25 -4.9 -4.7 -1.3 -5.7 L1.85 -5.65 3.45 -1.25 3.05 2.45 1.7 1.9 -2.95 0.3 -5.95 -0.6 -8.5 -1.2 M-6.35 1.5 L-7.2 1.35 -8.05 1.05 -7.1 1.35 -6.35 1.5" fill="#ffffcc" fill-rule="evenodd" stroke="none"/>
    <path d="M-8.5 -1.2 L-5.95 -0.6 -2.95 0.3 1.7 1.9 3.05 2.45 3.45 -1.25 1.85 -5.65 2.0 -5.6 2.2 -5.6 3.1 -5.4 Q4.85 -4.95 6.25 -3.9 L6.3 -3.85 6.4 -3.75 6.45 -3.7 6.55 -3.6 6.65 -3.5 Q8.75 -1.6 8.75 0.2 L8.5 3.7 Q8.0 6.95 6.7 6.95 L3.2 5.1 2.65 4.85 -1.45 2.75 Q-3.55 1.9 -6.35 1.5 L-7.1 1.35 -8.05 1.05 Q-8.65 0.6 -8.65 -0.35 L-8.65 -0.45 -8.5 -1.2" fill="#e2d1a8" fill-rule="evenodd" stroke="none"/>
  </g>
</svg>