<?xml version="1.0" encoding="UTF-8" standalone="no"?>
<svg xmlns:xlink="http://www.w3.org/1999/xlink" height="40.65px" width="20.8px" xmlns="http://www.w3.org/2000/svg">
  <g transform="matrix(1.0, 0.0, 0.0, 1.0, 14.85, 18.55)">
    <path d="M2.65 -4.3 L2.8 -3.75 3.35 -1.55 3.6 0.0 4.2 4.1 Q4.85 9.15 4.85 13.2 L4.9 13.9 4.85 17.3 Q4.65 19.55 3.95 20.45 3.2 19.55 3.0 16.4 L2.45 9.45 1.45 4.1 Q0.8 -0.05 0.8 -2.0 0.8 -4.3 2.1 -4.4 L2.65 -4.3 M-3.85 -5.95 L-4.3 -6.8 -4.0 -6.2 -1.65 -8.4 -0.25 -9.65 0.3 -8.95 -3.85 -5.95" fill="#ffffcc" fill-rule="evenodd" stroke="none"/>
    <path d="M0.3 -8.95 L0.35 -8.95 0.4 -8.85 Q1.8 -6.75 2.65 -4.3 L2.1 -4.4 Q0.8 -4.3 0.8 -2.0 0.8 -0.05 1.45 4.1 L2.45 9.45 3.0 16.4 Q3.2 19.55 3.95 20.45 3.4 21.1 2.65 21.1 1.3 21.1 0.6 15.2 L0.35 13.15 -0.5 5.95 -0.85 4.1 -1.1 2.3 -1.15 2.1 -1.35 0.6 -1.85 -1.7 Q-2.4 -3.45 -3.8 -5.85 L-3.85 -5.95 0.3 -8.95 M-4.3 -6.8 L-4.85 -8.6 -4.85 -8.65 -4.85 -8.75 -4.85 -8.8 -4.9 -9.1 -4.9 -9.25 Q-4.9 -12.0 -3.65 -12.1 L-3.55 -12.1 -3.5 -12.1 -3.45 -12.1 -3.35 -12.1 -1.95 -11.4 -0.2 -9.65 -0.25 -9.65 -1.65 -8.4 -4.0 -6.2 -4.3 -6.8" fill="#e2d1a8" fill-rule="evenodd" stroke="none"/>
    <path d="M-0.15 -9.75 L-0.05 -10.0 -0.15 -10.0 -0.15 -9.75 M1.55 -11.1 Q1.55 -8.8 0.4 -6.8 -1.75 -3.15 -6.9 -3.15 -10.7 -3.15 -12.6 -6.3 -13.85 -8.35 -13.85 -10.2 L-13.7 -10.8 Q-13.45 -11.3 -12.95 -11.3 -12.5 -11.3 -12.3 -11.05 L-11.9 -10.5 -10.7 -11.75 -9.75 -12.15 Q-9.25 -12.2 -8.7 -12.75 L-7.85 -13.2 Q-7.3 -13.3 -6.85 -13.8 L-5.55 -14.4 -3.9 -14.95 -2.95 -14.75 -1.6 -14.6 -1.45 -14.7 -1.25 -15.0 -1.5 -15.6 -1.75 -16.4 Q-1.75 -18.75 -0.1 -16.2 1.55 -13.65 1.55 -11.1" fill="#dae0e7" fill-rule="evenodd" stroke="none"/>
    <path d="M-7.1 -3.45 Q-7.8 -3.0 -8.65 -3.0 -12.95 -3.35 -13.1 -8.15 -13.1 -9.15 -12.45 -9.65 -8.2 -12.45 -4.75 -8.45 -4.55 -5.15 -7.1 -3.45" fill="#6b2300" fill-rule="evenodd" stroke="none"/>
    <path d="M-2.25 -8.65 Q-2.25 -7.95 -3.35 -7.25 -4.65 -6.35 -6.55 -6.35 -8.25 -6.35 -8.25 -7.65 -8.25 -8.65 -7.3 -9.4 -6.15 -10.35 -3.7 -10.35 -2.3 -10.35 -2.25 -8.65" fill="#ffffff" fill-rule="evenodd" stroke="none"/>
  </g>
</svg>