<?xml version="1.0" encoding="UTF-8" standalone="no"?>
<svg xmlns:xlink="http://www.w3.org/1999/xlink" height="42.9px" width="22.45px" xmlns="http://www.w3.org/2000/svg">
  <g transform="matrix(1.0, 0.0, 0.0, 1.0, 16.5, 20.8)">
    <path d="M0.3 -8.95 L0.35 -8.95 0.4 -8.85 Q1.8 -6.75 2.65 -4.3 L2.1 -4.4 Q0.8 -4.3 0.8 -2.0 0.8 -0.05 1.45 4.1 L2.45 9.45 3.0 16.4 Q3.2 19.55 3.95 20.45 3.4 21.1 2.65 21.1 1.3 21.1 0.6 15.2 L0.35 13.15 -0.5 5.95 -0.85 4.1 -1.1 2.3 -1.15 2.1 -1.35 0.6 -1.85 -1.7 Q-2.4 -3.45 -3.8 -5.85 L-3.85 -5.95 0.3 -8.95 M-4.3 -6.8 L-4.85 -8.6 -4.85 -8.65 -4.85 -8.75 -4.85 -8.8 -4.9 -9.1 -4.9 -9.25 Q-4.9 -12.0 -3.65 -12.1 L-3.55 -12.1 -3.5 -12.1 -3.45 -12.1 -3.35 -12.1 -1.95 -11.4 -0.2 -9.65 -0.25 -9.65 -1.65 -8.4 -4.0 -6.2 -4.3 -6.8" fill="#e2d1a8" fill-rule="evenodd" stroke="none"/>
    <path d="M2.65 -4.3 L2.8 -3.75 3.35 -1.55 3.6 0.0 4.2 4.1 Q4.85 9.15 4.85 13.2 L4.9 13.9 4.85 17.3 Q4.65 19.55 3.95 20.45 3.2 19.55 3.0 16.4 L2.45 9.45 1.45 4.1 Q0.8 -0.05 0.8 -2.0 0.8 -4.3 2.1 -4.4 L2.65 -4.3 M-3.85 -5.95 L-4.3 -6.8 -4.0 -6.2 -1.65 -8.4 -0.25 -9.65 0.3 -8.95 -3.85 -5.95" fill="#ffffcc" fill-rule="evenodd" stroke="none"/>
    <path d="M-0.15 -10.0 L-0.15 -9.75 -0.05 -10.0 -0.15 -10.0 M1.55 -11.1 Q1.55 -8.8 0.4 -6.8 -1.75 -3.15 -6.9 -3.15 -10.7 -3.15 -12.6 -6.3 -13.85 -8.35 -13.85 -10.2 L-13.7 -10.8 Q-13.45 -11.3 -12.95 -11.3 -12.5 -11.3 -12.3 -11.05 L-11.9 -10.5 -10.7 -11.75 -9.75 -12.15 Q-9.25 -12.2 -8.7 -12.75 L-7.85 -13.2 Q-7.3 -13.3 -6.85 -13.8 L-5.55 -14.4 -3.9 -14.95 -2.95 -14.75 -1.6 -14.6 -1.45 -14.7 -1.25 -15.0 -1.5 -15.6 -1.75 -16.4 Q-1.75 -18.75 -0.1 -16.2 1.55 -13.65 1.55 -11.1" fill="#dae0e7" fill-rule="evenodd" stroke="none"/>
    <path d="M-4.75 -8.45 Q-4.55 -5.15 -7.1 -3.45 -7.8 -3.0 -8.65 -3.0 -12.95 -3.35 -13.1 -8.15 -13.1 -9.15 -12.45 -9.65 -8.2 -12.45 -4.75 -8.45" fill="#6b2300" fill-rule="evenodd" stroke="none"/>
    <path d="M-3.35 -7.25 Q-4.65 -6.35 -6.55 -6.35 -8.25 -6.35 -8.25 -7.65 -8.25 -8.65 -7.3 -9.4 -6.15 -10.35 -3.7 -10.35 -2.3 -10.35 -2.25 -8.65 -2.25 -7.95 -3.35 -7.25" fill="#ffffff" fill-rule="evenodd" stroke="none"/>
    <path d="M-4.6 -19.7 L-4.45 -19.65 -4.25 -19.65 -3.35 -19.45 Q-1.6 -19.0 -0.2 -17.95 L-0.15 -17.9 -0.05 -17.8 0.0 -17.75 0.1 -17.65 0.2 -17.55 Q2.3 -15.65 2.3 -13.85 L2.05 -10.35 Q1.75 -8.45 1.2 -7.65 1.0 -6.4 -1.15 -4.8 -3.95 -2.6 -7.7 -2.6 -9.85 -2.6 -11.55 -3.9 L-12.6 -4.9 -13.75 -6.5 -13.85 -6.7 -13.8 -6.7 -12.7 -6.5 -9.95 -6.35 Q-8.15 -6.35 -6.3 -7.15 L-5.9 -7.3 -5.55 -7.8 -4.95 -8.35 -7.25 -8.7 -11.8 -9.45 -15.0 -10.05 -15.2 -10.05 -15.4 -11.2 -15.45 -11.6 -15.45 -11.75 -15.15 -11.7 -14.2 -11.5 -11.9 -11.45 -6.8 -10.45 -5.4 -10.25 -3.95 -9.9 -3.85 -10.15 Q-3.35 -11.25 -3.35 -11.65 L-3.35 -11.9 Q-3.0 -14.4 -3.0 -15.3 L-4.6 -19.7 M-14.95 -15.25 L-14.85 -15.25 -15.0 -15.05 -14.95 -15.25" fill="#e2d1a8" fill-rule="evenodd" stroke="none"/>
    <path d="M-4.6 -19.7 L-3.0 -15.3 Q-3.0 -14.4 -3.35 -11.9 L-3.35 -11.65 Q-3.35 -11.25 -3.85 -10.15 L-3.95 -9.9 -5.4 -10.25 -6.8 -10.45 -11.9 -11.45 -14.2 -11.5 -15.15 -11.7 -15.45 -11.75 -15.5 -12.5 Q-15.5 -13.4 -15.05 -14.0 L-15.1 -14.4 -15.1 -14.5 -15.0 -15.05 -14.85 -15.25 -14.95 -15.25 Q-14.6 -16.3 -13.3 -17.3 -11.35 -18.75 -7.75 -19.75 L-4.6 -19.7 M-15.2 -10.05 L-15.0 -10.05 -11.8 -9.45 -7.25 -8.7 -4.95 -8.35 -5.55 -7.8 -5.9 -7.3 -6.3 -7.15 Q-8.15 -6.35 -9.95 -6.35 L-12.7 -6.5 -13.8 -6.7 -13.85 -6.7 Q-14.8 -8.4 -15.2 -10.05" fill="#ffffcc" fill-rule="evenodd" stroke="none"/>
  </g>
</svg>