<?xml version="1.0" encoding="UTF-8" standalone="no"?>
<svg xmlns:xlink="http://www.w3.org/1999/xlink" height="57.2px" width="214.75px" xmlns="http://www.w3.org/2000/svg">
  <g transform="matrix(1.0, 0.0, 0.0, 1.0, 93.15, -94.4)">
    <path d="M50.7 122.7 Q57.05 124.5 60.25 127.65 61.85 129.25 64.15 133.6 66.25 137.45 68.85 139.45 72.8 142.45 80.6 144.15 L88.8 144.3 Q94.65 144.1 98.2 145.95 101.95 147.9 111.15 147.9 114.8 147.9 116.6 146.75 117.95 145.8 117.95 144.4 117.95 143.8 117.1 142.95 116.25 142.1 116.25 141.45 116.25 140.4 117.3 140.4 120.6 140.4 120.6 144.75 120.6 150.6 111.45 150.6 101.35 150.6 97.75 148.6 94.45 146.8 88.5 147.05 L80.6 146.9 Q69.9 145.7 66.5 142.2 65.6 141.3 64.35 139.1 63.2 137.1 62.1 136.05 60.85 133.0 58.65 130.4 54.4 125.25 47.4 125.25 L45.05 125.45 42.3 125.85 41.75 125.7 41.55 125.05 Q41.55 124.25 43.9 123.5 46.7 122.6 50.7 122.7 M33.2 109.95 Q31.75 109.95 30.1 111.45 L26.9 114.85 Q22.05 119.7 15.7 119.7 8.5 119.7 5.7 116.2 5.05 115.4 4.05 111.95 2.75 108.1 -1.0 106.5 -4.4 105.05 -4.4 104.75 -4.4 101.6 0.15 103.6 4.55 105.55 6.0 108.45 6.5 109.45 7.4 113.2 9.3 116.4 15.45 116.4 20.75 116.4 25.7 111.55 30.65 106.7 33.45 106.7 35.05 106.7 35.6 107.75 35.9 108.25 35.85 108.85 35.85 109.45 35.3 110.0 34.8 110.55 34.4 110.55 34.05 110.55 33.8 110.25 33.6 109.95 33.2 109.95 M-85.05 108.9 Q-85.05 109.25 -87.15 111.35 -89.25 113.45 -89.25 115.4 -89.25 117.05 -88.4 118.8 -87.1 121.55 -84.3 121.55 -75.85 121.55 -69.9 116.65 -66.6 113.95 -64.85 110.55 -63.35 107.55 -59.95 104.4 -56.5 101.2 -51.9 98.55 -38.9 91.15 -31.35 101.1 -28.9 104.45 -27.35 109.2 -26.25 112.75 -26.25 114.45 L-26.3 116.1 Q-26.55 117.0 -27.45 117.0 -28.45 117.0 -29.15 114.15 L-30.7 107.95 Q-33.7 98.9 -43.1 98.9 -48.45 98.9 -53.3 102.95 -55.85 105.05 -61.5 111.8 -66.75 118.05 -70.4 120.65 -76.0 124.7 -82.6 124.7 -88.55 124.7 -90.9 120.65 -92.15 118.45 -92.15 115.65 -92.15 113.35 -91.35 111.35 -89.85 107.7 -86.25 107.7 -85.6 107.7 -85.25 108.25 L-85.05 108.9" fill="#ffffcc" fill-rule="evenodd" stroke="none"/>
  </g>
</svg>