<?xml version="1.0" encoding="UTF-8" standalone="no"?>
<svg xmlns:xlink="http://www.w3.org/1999/xlink" height="43.1px" width="85.9px" xmlns="http://www.w3.org/2000/svg">
  <g transform="matrix(1.0, 0.0, 0.0, 1.0, 45.75, -49.15)">
    <path d="M0.15 54.65 Q-0.9 55.5 -1.95 55.5 -3.35 55.5 -3.6 54.35 L-3.65 53.1 Q-3.65 50.15 -1.2 50.15 1.2 50.15 1.2 53.0 1.2 53.8 0.15 54.65 M38.75 87.5 Q38.2 88.25 37.2 88.25 35.9 88.25 35.45 87.3 L35.25 86.25 Q35.25 84.35 37.2 84.4 39.15 84.4 39.15 86.25 39.15 86.95 38.75 87.5 M-42.3 90.75 Q-42.7 91.25 -43.35 91.25 -44.4 91.25 -44.7 90.5 L-44.75 89.9 Q-44.75 88.5 -43.35 88.5 -42.0 88.5 -42.0 89.9 -42.0 90.3 -42.3 90.75" fill="#a52b2b" fill-rule="evenodd" stroke="none"/>
  </g>
</svg>