<?xml version="1.0" encoding="UTF-8" standalone="no"?>
<svg xmlns:xlink="http://www.w3.org/1999/xlink" height="48.7px" width="221px" xmlns="http://www.w3.org/2000/svg">
  <g transform="matrix(1.0, 0.0, 0.0, 1.0, 99.4, -102.9)">
    <path d="M50.7 122.7 Q57.05 124.5 60.25 127.65 61.85 129.25 64.15 133.6 66.25 137.45 68.85 139.45 72.8 142.45 80.6 144.15 L88.8 144.3 Q94.65 144.1 98.2 145.95 101.95 147.9 111.15 147.9 114.8 147.9 116.6 146.75 117.95 145.8 117.95 144.4 117.95 143.8 117.1 142.95 116.25 142.1 116.25 141.45 116.25 140.4 117.3 140.4 120.6 140.4 120.6 144.75 120.6 150.6 111.45 150.6 101.35 150.6 97.75 148.6 94.45 146.8 88.5 147.05 L80.6 146.9 Q69.9 145.7 66.5 142.2 65.6 141.3 64.35 139.1 63.2 137.1 62.1 136.05 60.85 133.0 58.65 130.4 54.4 125.25 47.4 125.25 L45.05 125.45 42.3 125.85 41.75 125.7 41.55 125.05 Q41.55 124.25 43.9 123.5 46.7 122.6 50.7 122.7 M33.3 113.3 Q33.3 114.9 31.5 118.1 29.05 122.4 25.8 122.4 20.6 122.4 16.7 121.3 L12.75 120.15 7.25 124.35 Q0.75 128.55 -5.0 128.55 -7.8 128.55 -9.6 126.9 L-10.85 125.15 -10.8 124.5 -10.65 124.35 -10.05 124.2 Q-9.5 124.2 -8.4 124.95 -7.35 125.7 -6.15 125.7 0.75 125.7 5.55 122.5 L9.9 118.4 2.15 111.95 Q0.95 111.95 -1.0 113.0 L-2.75 114.0 Q-3.9 114.0 -3.65 112.95 -3.65 111.9 -1.2 110.55 1.1 109.25 2.65 109.25 L7.6 112.7 12.8 116.1 Q13.55 116.1 17.2 113.35 21.9 109.85 24.1 108.6 33.3 103.3 33.3 113.3 M30.0 111.6 L30.0 110.85 Q24.5 111.4 21.55 113.7 L16.2 117.6 18.6 118.35 21.3 118.8 25.65 118.8 Q28.65 116.45 29.4 115.05 30.0 114.0 30.0 111.6 M-95.1 121.0 Q-98.4 118.05 -98.4 115.8 L-98.15 113.85 Q-97.75 112.35 -96.9 112.35 -96.55 112.35 -95.9 113.9 -95.05 116.0 -94.1 117.3 -90.35 122.25 -81.15 122.25 -74.65 122.25 -70.2 118.85 L-65.4 113.85 Q-63.4 111.75 -59.75 109.05 -55.2 105.7 -52.2 104.75 -41.7 101.45 -33.05 111.0 -30.15 114.25 -28.05 118.35 -26.3 121.7 -26.3 122.9 -26.3 123.65 -27.15 124.1 -30.2 118.35 -33.2 114.55 -38.9 107.4 -47.35 107.4 -53.3 107.4 -57.45 110.2 -59.75 111.75 -63.65 116.35 -67.4 120.7 -70.35 122.45 -74.95 125.25 -81.75 125.25 -90.3 125.25 -95.1 121.0" fill="#ffffcc" fill-rule="evenodd" stroke="none"/>
  </g>
</svg>