<?xml version="1.0" encoding="UTF-8" standalone="no"?>
<svg xmlns:xlink="http://www.w3.org/1999/xlink" height="13.15px" width="13.25px" xmlns="http://www.w3.org/2000/svg">
  <g transform="matrix(1.0, 0.0, 0.0, 1.0, 2.05, 12.45)">
    <path d="M10.05 -10.05 Q10.4 -9.6 9.95 -9.3 8.2 -8.05 6.8 -8.95 L6.6 -9.0 Q6.3 -9.0 6.3 -9.35 L5.95 -9.7 Q3.45 -7.65 2.9 -4.3 2.55 -1.9 0.55 -0.45 L-0.1 -0.3 Q-1.55 -0.45 -0.75 -1.7 L0.15 -2.65 0.85 -3.25 1.0 -3.35 1.05 -3.45 Q1.4 -5.75 2.35 -7.8 L2.75 -8.55 3.15 -9.35 Q4.1 -11.0 5.9 -11.45 7.15 -11.25 8.0 -10.25 9.25 -10.95 10.05 -10.05" fill="#ffffcc" fill-rule="evenodd" stroke="none"/>
  </g>
</svg>