<?xml version="1.0" encoding="UTF-8" standalone="no"?>
<svg xmlns:xlink="http://www.w3.org/1999/xlink" height="100.1px" width="61.25px" xmlns="http://www.w3.org/2000/svg">
  <g transform="matrix(1.0, 0.0, 0.0, 1.0, 28.6, -13.15)">
    <path d="M24.95 42.95 Q19.7 50.15 19.7 54.45 19.7 57.1 21.55 59.8 L25.7 64.55 Q31.65 71.1 31.65 77.7 31.65 81.4 28.65 89.7 25.65 98.05 25.65 100.2 25.65 101.1 27.15 105.15 28.65 109.2 28.65 110.3 28.65 112.25 27.65 112.25 26.65 112.25 23.0 100.15 23.0 97.5 25.9 88.85 L28.8 80.55 Q28.8 72.9 22.75 66.1 L18.55 61.0 Q16.65 57.95 16.65 54.35 16.65 49.8 22.15 42.0 27.6 34.2 27.6 30.95 27.6 30.0 26.55 27.0 L25.5 23.7 Q25.5 20.25 26.25 20.3 26.85 20.4 27.85 22.95 30.15 29.1 30.15 33.85 30.15 35.75 24.95 42.95 M-21.95 16.5 L-17.7 25.5 Q-17.25 26.9 -16.45 31.5 -15.6 36.4 -15.6 38.35 -15.6 42.75 -17.1 45.85 -17.95 47.65 -20.35 50.45 -25.1 56.0 -25.1 63.05 -25.1 67.5 -20.8 76.3 -16.5 85.15 -16.5 88.95 -16.5 91.7 -16.9 94.35 -17.7 99.3 -19.55 99.3 -20.95 99.3 -20.9 97.75 L-20.05 95.1 Q-19.2 92.8 -19.2 91.35 -19.2 85.9 -23.4 76.9 -27.6 67.9 -27.6 63.3 -27.6 54.7 -23.3 49.15 -21.0 46.1 -20.4 44.85 -19.05 42.15 -19.05 38.3 -19.05 31.0 -21.65 24.1 -24.3 17.25 -24.3 15.9 -24.3 12.15 -21.95 16.5" fill="#ffffcc" fill-rule="evenodd" stroke="none"/>
  </g>
</svg>