<?xml version="1.0" encoding="UTF-8" standalone="no"?>
<svg xmlns:xlink="http://www.w3.org/1999/xlink" height="15.6px" width="11.2px" xmlns="http://www.w3.org/2000/svg">
  <g transform="matrix(1.0, 0.0, 0.0, 1.0, 2.05, 14.3)">
    <path d="M7.3 -9.0 Q6.4 -9.15 6.25 -10.15 6.15 -11.0 5.5 -11.55 2.65 -8.1 2.35 -3.6 2.2 -1.0 0.0 0.15 -0.95 0.6 -1.05 -0.4 -1.15 -1.2 -0.4 -1.5 0.2 -1.8 0.3 -2.45 L0.3 -2.5 0.35 -2.7 Q0.7 -5.2 1.5 -7.55 L1.5 -7.65 1.75 -8.2 2.35 -9.7 2.8 -10.75 Q3.55 -12.65 5.3 -13.3 8.05 -12.6 8.15 -9.65 8.15 -8.8 7.3 -9.0" fill="#ffffcc" fill-rule="evenodd" stroke="none"/>
  </g>
</svg>