<?xml version="1.0" encoding="UTF-8" standalone="no"?>
<svg xmlns:xlink="http://www.w3.org/1999/xlink" height="17.1px" width="11.85px" xmlns="http://www.w3.org/2000/svg">
  <g transform="matrix(1.0, 0.0, 0.0, 1.0, 2.2, 15.7)">
    <path d="M4.65 -12.95 L4.4 -12.85 Q2.95 -11.5 2.55 -9.35 2.0 -6.15 2.0 -2.85 1.95 -0.55 -0.2 0.3 -1.2 0.7 -1.2 -0.35 -1.25 -1.35 -0.2 -1.65 L0.05 -1.75 Q0.6 -5.1 0.75 -8.55 L1.05 -10.6 Q1.65 -13.15 3.85 -14.45 L4.5 -14.7 Q7.7 -14.05 8.65 -11.1 L8.45 -10.7 Q7.4 -10.2 6.7 -11.3 5.95 -12.5 4.65 -12.95" fill="#ffffcc" fill-rule="evenodd" stroke="none"/>
  </g>
</svg>