<?xml version="1.0" encoding="UTF-8" standalone="no"?>
<svg xmlns:xlink="http://www.w3.org/1999/xlink" height="15.1px" width="20.35px" xmlns="http://www.w3.org/2000/svg">
  <g transform="matrix(1.0, 0.0, 0.0, 1.0, 10.35, 7.8)">
    <path d="M9.0 -2.95 L8.1 -2.35 Q5.15 -0.9 2.5 1.05 L-1.7 4.9 -2.4 4.7 Q-3.45 3.75 -1.25 2.1 L3.45 -1.15 Q6.0 -2.75 9.0 -2.95 M2.7 -3.25 L1.6 -2.6 0.45 -1.75 -0.8 -0.6 -3.85 2.75 -4.65 3.75 -5.55 4.8 -6.2 4.65 -6.4 3.95 -6.35 2.85 -5.4 1.3 -4.05 -0.25 -2.8 -1.35 -1.15 -2.7 Q-0.15 -3.5 1.85 -4.5 3.8 -5.55 6.65 -5.5 L7.3 -5.5 Q6.7 -5.0 6.0 -4.8 L4.2 -4.0 2.7 -3.25 M5.3 5.4 L5.3 5.5 5.3 5.55 5.25 5.6 4.15 5.75 2.8 5.7 0.55 5.75 -0.2 5.6 -0.25 5.6 -0.4 5.45 -0.45 5.4 -0.55 4.85 -0.55 4.8 -0.5 4.8 -0.1 4.5 -0.05 4.45 1.8 4.45 3.6 4.65 Q4.65 4.8 5.3 5.4 M-2.6 -6.8 L-5.2 -1.85 -7.1 2.65 -8.4 6.3 Q-10.2 5.0 -8.55 1.25 -6.95 -2.55 -5.45 -4.35 -3.95 -6.2 -2.6 -6.8" fill="#ffffcc" fill-rule="evenodd" stroke="none"/>
  </g>
</svg>