<?xml version="1.0" encoding="UTF-8" standalone="no"?>
<svg xmlns:xlink="http://www.w3.org/1999/xlink" height="150.55px" width="101.8px" xmlns="http://www.w3.org/2000/svg">
  <g transform="matrix(1.0, 0.0, 0.0, 1.0, -209.45, -143.15)">
    <path d="M255.1 143.15 Q258.25 143.15 265.95 161.0 L264.3 166.6 264.3 251.6 Q264.9 255.35 265.0 259.1 265.1 261.65 265.6 264.0 266.95 269.85 271.7 273.5 L273.6 274.65 Q275.7 275.7 277.95 276.55 L280.8 277.65 282.6 278.1 283.25 278.15 285.3 278.1 287.6 277.25 Q290.7 275.5 289.45 271.95 288.4 268.9 285.25 269.65 L285.55 268.5 285.6 268.35 285.9 268.05 286.05 268.05 286.3 268.2 288.05 268.75 290.8 269.95 291.85 270.7 292.85 271.8 Q294.95 275.15 294.25 279.2 293.8 281.95 291.6 283.8 288.15 286.7 283.6 286.7 L283.35 287.7 Q282.15 289.15 280.2 289.7 271.95 292.15 263.6 290.6 261.2 293.0 257.9 293.1 254.9 293.25 253.25 290.8 251.95 293.3 249.1 293.7 L244.45 293.3 Q239.9 292.5 238.85 288.1 L237.65 287.2 235.75 287.9 234.45 288.25 Q229.85 288.5 227.45 284.6 L226.7 284.2 225.2 283.0 Q224.1 282.0 223.4 280.85 221.35 277.35 222.3 273.4 222.65 271.75 223.75 270.25 226.05 266.95 229.85 268.35 L229.95 269.95 Q229.2 269.35 228.4 269.95 225.85 271.8 227.05 274.8 227.55 276.2 229.0 276.5 L239.25 276.15 Q242.95 275.15 244.2 271.6 L245.25 267.5 Q246.1 260.95 245.85 254.5 L245.7 240.6 245.75 228.35 245.65 215.45 245.55 203.95 245.4 190.85 245.35 181.25 245.25 172.15 245.15 168.3 Q245.05 162.0 245.35 155.8 245.4 153.65 246.2 151.75 246.7 150.6 247.45 149.7 248.9 147.95 250.75 146.65 251.8 145.75 253.15 144.7 L253.4 144.4 253.4 144.5 255.1 143.15 M209.45 280.6 L209.85 280.65 Q211.5 280.85 211.45 282.3 L211.15 282.55 Q209.6 282.3 209.45 280.6 M218.9 284.2 L222.7 284.05 Q223.65 284.5 223.6 285.65 L223.5 286.45 Q222.85 287.2 221.85 287.2 L219.7 286.95 219.75 285.15 218.9 284.2 M214.2 275.85 L214.0 275.25 Q214.25 272.4 216.75 272.0 218.15 273.1 218.25 275.15 218.4 277.5 218.9 279.45 L219.8 279.3 Q222.0 279.35 222.0 281.45 L221.45 281.95 220.3 281.8 Q218.15 281.1 217.1 279.0 216.15 277.05 214.2 275.85 M296.9 281.45 L300.3 281.35 299.8 283.9 Q297.3 284.15 295.25 282.7 295.9 281.95 296.9 281.45 M303.5 278.35 Q303.3 277.75 303.55 277.2 305.15 273.35 309.5 272.5 310.6 272.25 311.15 273.0 L311.25 273.65 Q310.55 276.15 308.35 277.6 306.15 279.1 303.5 278.35 M299.7 271.7 Q299.7 270.4 300.2 269.3 301.0 267.55 302.6 267.65 303.4 269.0 302.9 270.55 L302.45 271.45 Q301.15 273.05 299.7 271.7" fill="#ff0000" fill-rule="evenodd" stroke="none"/>
  </g>
</svg>
