<?xml version="1.0" encoding="UTF-8" standalone="no"?>
<svg xmlns:xlink="http://www.w3.org/1999/xlink" height="120.7px" width="20.85px" xmlns="http://www.w3.org/2000/svg">
  <g transform="matrix(1.0, 0.0, 0.0, 1.0, -245.1, -143.15)">
    <path d="M265.95 161.0 Q264.9 161.45 264.3 166.6 L264.3 251.6 Q264.9 255.35 265.0 259.1 265.1 261.55 265.6 263.85 L245.65 263.85 Q246.05 259.15 245.85 254.5 L245.7 246.6 245.7 240.6 245.75 228.35 245.65 215.45 245.55 203.95 245.45 193.85 245.4 190.85 245.35 181.25 245.25 172.15 245.15 168.3 Q245.05 162.0 245.35 155.8 245.4 153.65 246.2 151.75 246.7 150.6 247.45 149.7 248.8 148.05 255.1 143.15 258.25 143.15 265.95 161.0" fill="#ff0000" fill-rule="evenodd" stroke="none"/>
  </g>
</svg>
