<?xml version="1.0" encoding="UTF-8" standalone="no"?>
<svg xmlns:xlink="http://www.w3.org/1999/xlink" height="36.4px" width="27.6px" xmlns="http://www.w3.org/2000/svg">
  <g id="shape0" transform="matrix(1.0, 0.0, 0.0, 1.0, 13.8, 18.2)">
    <path d="M12.8 -13.2 Q12.85 -10.85 12.4 -8.5 L11.85 -5.55 11.35 -1.9 10.6 4.55 Q10.0 10.0 10.25 15.5 L2.05 17.2 2.4 12.2 2.7 7.35 2.9 4.8 3.45 -0.7 3.85 -6.3 Q4.05 -9.4 3.35 -12.2 L12.8 -13.2 M-5.7 11.05 Q-7.35 11.05 -8.5 9.3 -9.65 7.6 -9.65 5.15 -9.65 2.7 -8.5 0.95 -7.35 -0.75 -5.7 -0.75 -4.05 -0.75 -2.9 0.95 -1.75 2.7 -1.75 5.15 -1.75 7.6 -2.9 9.3 -4.05 11.05 -5.7 11.05" fill="#d6baba" fill-rule="evenodd" stroke="none"/>
    <path d="M12.8 -13.2 L3.35 -12.2 Q4.05 -9.4 3.85 -6.3 L3.45 -0.7 2.9 4.8 2.7 7.35 2.4 12.2 2.05 17.2 -12.4 12.8 -12.75 6.7 -12.8 1.25 -12.7 -2.1 -12.2 -8.45 -11.25 -15.1 -10.15 -15.35 -6.25 -16.2 -0.95 -17.2 2.65 -16.55 8.75 -14.7 12.8 -13.2 M3.35 -12.2 L-7.5 -14.95 -10.15 -15.35 -7.5 -14.95 3.35 -12.2 M-5.7 11.05 Q-4.05 11.05 -2.9 9.3 -1.75 7.6 -1.75 5.15 -1.75 2.7 -2.9 0.95 -4.05 -0.75 -5.7 -0.75 -7.35 -0.75 -8.5 0.95 -9.65 2.7 -9.65 5.15 -9.65 7.6 -8.5 9.3 -7.35 11.05 -5.7 11.05" fill="#faf8f8" fill-rule="evenodd" stroke="none"/>
    <path d="M2.05 17.2 L10.25 15.5 Q10.0 10.0 10.6 4.55 L11.35 -1.9 11.85 -5.55 12.4 -8.5 Q12.85 -10.85 12.8 -13.2 L3.35 -12.2 Q4.05 -9.4 3.85 -6.3 L3.45 -0.7 2.9 4.8 2.7 7.35 2.4 12.2 2.05 17.2 -12.4 12.8 -12.75 6.7 -12.8 1.25 -12.7 -2.1 -12.2 -8.45 -11.25 -15.1 -10.15 -15.35 -6.25 -16.2 -0.95 -17.2 2.65 -16.55 8.75 -14.7 12.8 -13.2 M-10.15 -15.35 L-7.5 -14.95 3.35 -12.2 M-5.7 11.05 Q-7.35 11.05 -8.5 9.3 -9.65 7.6 -9.65 5.15 -9.65 2.7 -8.5 0.95 -7.35 -0.75 -5.7 -0.75 -4.05 -0.75 -2.9 0.95 -1.75 2.7 -1.75 5.15 -1.75 7.6 -2.9 9.3 -4.05 11.05 -5.7 11.05 Z" fill="none" stroke="#a36a6a" stroke-linecap="round" stroke-linejoin="round" stroke-width="1"/>
  </g>
</svg>