<?xml version="1.0" encoding="UTF-8" standalone="no"?>
<svg xmlns:xlink="http://www.w3.org/1999/xlink" height="37.3px" width="30.7px" xmlns="http://www.w3.org/2000/svg">
  <g id="shape0" transform="matrix(1.0, 0.0, 0.0, 1.0, 15.35, 18.65)">
    <path d="M0.5 17.65 L-13.95 13.25 -14.3 7.15 -14.35 1.7 -14.25 -1.65 -13.75 -8.0 -12.8 -14.65 -11.7 -14.9 -7.8 -15.75 -5.95 -16.15 -2.1 -17.15 0.6 -17.65 4.2 -17.0 10.3 -15.15 11.25 -14.8 14.35 -13.65 9.5 -12.95 4.15 -12.2 1.8 -11.75 2.1 -10.4 Q2.45 -8.2 2.3 -5.85 L1.9 -0.25 1.35 5.25 1.15 7.8 0.85 12.65 0.5 17.65 M-11.7 -14.9 L-9.05 -14.5 -5.95 -13.7 1.8 -11.75 -5.95 -13.7 -9.05 -14.5 -11.7 -14.9" fill="#faf8f8" fill-rule="evenodd" stroke="none"/>
    <path d="M14.35 -13.65 Q14.4 -11.3 13.95 -8.95 L13.4 -6.0 12.9 -2.35 12.15 4.1 Q11.55 9.55 11.8 15.05 L0.5 17.65 0.85 12.65 1.15 7.8 1.35 5.25 1.9 -0.25 2.3 -5.85 Q2.45 -8.2 2.1 -10.4 L1.8 -11.75 4.15 -12.2 4.55 -12.1 9.5 -12.95 14.35 -13.65" fill="#d6baba" fill-rule="evenodd" stroke="none"/>
    <path d="M0.5 17.65 L-13.95 13.25 -14.3 7.15 -14.35 1.7 -14.25 -1.65 -13.75 -8.0 -12.8 -14.65 -11.7 -14.9 -7.8 -15.75 -5.95 -16.15 -2.1 -17.15 0.6 -17.65 4.2 -17.0 10.3 -15.15 11.25 -14.8 14.35 -13.65 Q14.4 -11.3 13.95 -8.95 L13.4 -6.0 12.9 -2.35 12.15 4.1 Q11.55 9.55 11.8 15.05 L0.5 17.65 0.85 12.65 1.15 7.8 1.35 5.25 1.9 -0.25 2.3 -5.85 Q2.45 -8.2 2.1 -10.4 L1.8 -11.75 -5.95 -13.7 -9.05 -14.5 -11.7 -14.9 M14.35 -13.65 L9.5 -12.95 4.15 -12.2 1.8 -11.75" fill="none" stroke="#a36a6a" stroke-linecap="round" stroke-linejoin="round" stroke-width="1"/>
  </g>
</svg>