<?xml version="1.0" encoding="UTF-8" standalone="no"?>
<svg xmlns:xlink="http://www.w3.org/1999/xlink" height="10.05px" width="15.8px" xmlns="http://www.w3.org/2000/svg">
  <g transform="matrix(1.0, 0.0, 0.0, 1.0, 8.35, 4.9)">
    <path d="M-5.75 -1.1 L-5.9 -1.55 -4.2 -1.05 -2.85 -0.65 -1.45 -0.3 -0.25 0.05 1.05 0.3 3.0 0.65 3.95 0.8 5.8 1.0 6.35 1.05 6.45 1.05 4.95 1.95 4.15 2.4 3.3 2.8 2.3 3.2 0.85 3.7 -0.95 4.1 -2.2 4.05 Q-3.25 3.75 -3.9 2.9 L-4.6 1.95 -5.0 1.25 -5.25 0.65 -5.4 0.1 -5.6 -0.7 -5.75 -1.1" fill="#faf8f8" fill-rule="evenodd" stroke="none"/>
    <path d="M-5.75 -1.1 L-5.9 -1.55 -4.2 -1.05 -2.85 -0.65 -1.45 -0.3 -0.25 0.05 1.05 0.3 3.0 0.65 3.95 0.8 5.8 1.0 6.35 1.05 6.45 1.05 4.95 1.95 4.15 2.4 3.3 2.8 2.3 3.2 0.85 3.7 -0.95 4.1 -2.2 4.05 Q-3.25 3.75 -3.9 2.9 L-4.6 1.95 -5.0 1.25 -5.25 0.65 -5.4 0.1 -5.6 -0.7 -5.75 -1.1 Z" fill="none" stroke="#a36a6a" stroke-linecap="round" stroke-linejoin="round" stroke-width="1"/>
    <path d="M-7.35 -3.1 L-6.35 -3.45 -4.45 -3.9" fill="none" stroke="#a36a6a" stroke-linecap="round" stroke-linejoin="round" stroke-width="1"/>
  </g>
</svg>