<?xml version="1.0" encoding="UTF-8" standalone="no"?>
<svg xmlns:xlink="http://www.w3.org/1999/xlink" height="9.3px" width="17.15px" xmlns="http://www.w3.org/2000/svg">
  <g transform="matrix(1.0, 0.0, 0.0, 1.0, 8.75, 2.4)">
    <path d="M-7.75 -0.1 L-6.75 -0.6 Q-4.65 -1.4 -1.9 -1.4 3.2 -1.4 7.0 4.3 L6.4 4.7 6.05 4.9 4.35 5.6 3.85 5.75 2.25 5.85 Q1.3 5.65 0.5 5.15 -0.55 4.45 -1.25 3.35 L-1.55 2.8 Q-1.75 2.3 -1.5 2.1 L-2.95 2.6 -3.5 2.75 Q-5.2 2.95 -6.55 2.1 L-6.65 2.0 -7.3 0.95 -7.7 0.1 -7.75 -0.1" fill="#faf8f8" fill-rule="evenodd" stroke="none"/>
    <path d="M7.0 4.3 L7.4 3.95 M7.0 4.3 L6.4 4.7 6.05 4.9 4.35 5.6 3.85 5.75 2.25 5.85 Q1.3 5.65 0.5 5.15 -0.55 4.45 -1.25 3.35 L-1.55 2.8 Q-1.75 2.3 -1.5 2.1 L-2.95 2.6 -3.5 2.75 Q-5.2 2.95 -6.55 2.1 L-6.65 2.0 -7.3 0.95 -7.7 0.1 -7.75 -0.1" fill="none" stroke="#a36a6a" stroke-linecap="round" stroke-linejoin="round" stroke-width="1"/>
  </g>
</svg>