<?xml version="1.0" encoding="UTF-8" standalone="no"?>
<svg xmlns:xlink="http://www.w3.org/1999/xlink" height="24.4px" width="26.15px" xmlns="http://www.w3.org/2000/svg">
  <g id="shape0" transform="matrix(1.0, 0.0, 0.0, 1.0, 13.1, 12.2)">
    <path d="M3.4 -11.1 L5.7 -11.1 Q7.5 -10.75 8.8 -9.5 L9.15 -9.15 9.35 -8.9 9.55 -8.7 10.7 -7.0 10.95 -6.5 10.9 -6.5 10.85 -6.55 9.9 -7.55 10.85 -6.55 10.9 -6.5 11.05 -6.3 11.05 -5.95 Q11.55 -4.15 11.5 -2.35 L11.75 0.65 12.0 3.4 12.05 4.9 11.7 5.9 9.15 8.45 7.7 9.6 5.9 10.6 3.9 11.1 0.45 11.2 -2.9 10.75 -3.85 10.6 -4.9 10.2 Q-6.6 9.5 -7.4 7.75 -7.9 6.6 -8.05 5.35 -9.85 4.45 -10.3 2.65 L-10.4 2.15 -11.0 1.95 -11.4 1.75 -11.8 1.5 -12.05 1.2 Q-12.25 0.55 -11.9 -0.1 L-11.65 -0.6 -11.4 -1.3 -11.1 -1.95 Q-10.7 -2.75 -10.75 -3.6 L-10.85 -5.55 -10.8 -6.25 -10.75 -6.8 Q-10.7 -7.8 -9.75 -8.1 -9.3 -8.25 -8.85 -8.5 L-8.5 -9.0 -7.3 -10.05 -7.4 -8.65 Q-7.4 -8.15 -6.8 -7.4 L-6.75 -7.35 -6.4 -7.6 Q-7.85 -6.45 -8.9 -4.9 L-9.1 -4.65 -8.95 -3.65 -8.65 -2.6 -8.6 -2.45 -8.25 -0.9 -8.25 -0.85 -7.9 -0.1 -7.8 -0.05 -7.0 3.4 -7.0 4.3 -5.45 5.05 -5.35 6.85 -4.25 7.05 -3.85 10.6 -4.25 7.05 -5.35 6.85 -6.95 6.05 -8.05 5.35 -6.95 6.05 -5.35 6.85 -5.45 5.05 -2.8 5.55 0.15 5.3 2.5 5.0 2.4 2.9 2.35 2.85 2.35 2.8 2.2 1.9 2.05 1.25 1.85 0.3 1.2 -3.45 1.4 -4.6 1.6 -3.25 2.55 -3.55 2.55 -3.5 3.05 -3.45 Q5.0 -3.45 8.65 -6.1 L9.9 -7.55 Q9.1 -8.2 8.05 -8.45 L4.85 -8.95 4.4 -8.9 4.4 -9.15 Q4.4 -10.2 3.4 -11.1 M1.35 -8.8 L1.1 -8.95 1.35 -8.8 M-8.9 -4.9 Q-9.5 -6.15 -9.35 -7.1 L-8.85 -8.5 -9.35 -7.1 Q-9.5 -6.15 -8.9 -4.9 M-10.4 2.15 Q-10.65 0.45 -9.7 -0.95 L-8.6 -2.45 -9.7 -0.95 Q-10.65 0.45 -10.4 2.15 M-6.5 5.9 L-6.45 5.95 -6.4 5.95 -6.5 5.9 M1.7 7.45 L1.45 9.65 1.7 7.45 M2.85 6.7 L1.6 6.85 -4.25 7.05 1.6 6.85 2.85 6.7 M2.35 2.8 L2.4 2.9 2.35 2.8 M2.55 5.8 L2.5 5.0 2.55 5.8 M2.05 1.25 L2.2 1.2 1.6 -3.25 2.2 1.2 2.05 1.25" fill="#d6baba" fill-rule="evenodd" stroke="none"/>
    <path d="M3.4 -11.1 Q4.4 -10.2 4.4 -9.15 L4.4 -8.9 4.85 -8.95 8.05 -8.45 Q9.1 -8.2 9.9 -7.55 L8.65 -6.1 Q5.0 -3.45 3.05 -3.45 L2.55 -3.5 2.55 -3.55 1.6 -3.25 1.4 -4.6 1.2 -3.45 1.85 0.3 2.05 1.25 2.2 1.9 2.35 2.8 2.35 2.85 2.4 2.9 2.5 5.0 0.15 5.3 -2.8 5.55 -5.45 5.05 -7.0 4.3 -7.0 3.4 -7.8 -0.05 -7.9 -0.1 -8.25 -0.85 -8.25 -0.9 -8.6 -2.45 -8.65 -2.6 -8.95 -3.65 -9.1 -4.65 -8.9 -4.9 Q-7.85 -6.45 -6.4 -7.6 L-6.05 -7.9 -5.55 -8.25 Q-4.55 -8.95 -3.4 -9.4 L-1.8 -9.75 Q-0.45 -9.9 0.65 -9.2 L1.1 -8.95 0.65 -9.2 Q-0.45 -9.9 -1.8 -9.75 L-3.4 -9.4 Q-4.55 -8.95 -5.55 -8.25 L-6.05 -7.9 -6.4 -7.6 -6.75 -7.35 -6.8 -7.4 Q-7.4 -8.15 -7.4 -8.65 L-7.3 -10.05 -6.85 -10.3 -6.65 -10.35 -6.25 -10.45 -5.95 -10.5 -3.1 -11.05 -0.75 -11.1 0.55 -11.1 1.15 -11.1 3.2 -11.1 3.4 -11.1 M10.9 -6.5 L10.95 -6.5 10.7 -7.0 11.05 -6.3 10.9 -6.5 M5.7 -8.2 L3.6 -6.9 2.05 -6.3 Q2.75 -7.45 1.95 -8.5 L1.4 -8.8 2.95 -8.85 4.4 -8.9 2.95 -8.85 1.4 -8.8 1.95 -8.5 Q2.75 -7.45 2.05 -6.3 L3.6 -6.9 5.7 -8.2 M1.1 -8.95 L1.35 -8.8 1.1 -8.95 M-6.8 -6.4 L-6.95 -4.9 -6.8 -1.95 -6.45 0.55 -7.8 -0.05 -6.45 0.55 -6.8 -1.95 -6.95 -4.9 -6.8 -6.4 M-1.7 -6.75 L-0.1 -6.1 1.3 -6.0 2.05 -6.3 1.3 -6.0 -0.1 -6.1 -1.7 -6.75 M1.4 -8.8 L1.35 -8.8 1.4 -8.8 M-6.45 0.55 L-5.15 0.85 -1.55 1.4 2.05 1.25 -1.55 1.4 -5.15 0.85 -6.45 0.55 M-5.25 1.5 L-5.45 2.15 -5.5 4.3 -5.45 5.05 -5.5 4.3 -5.45 2.15 -5.25 1.5 M-6.5 5.9 L-6.4 5.95 -6.45 5.95 -6.5 5.9" fill="#faf8f8" fill-rule="evenodd" stroke="none"/>
    <path d="M10.7 -7.0 L9.55 -8.7 9.35 -8.9 9.15 -9.15 8.8 -9.5 Q7.5 -10.75 5.7 -11.1 L3.4 -11.1 3.2 -11.1 1.15 -11.1 0.55 -11.1 -0.75 -11.1 -3.1 -11.05 -5.95 -10.5 -6.25 -10.45 -6.65 -10.35 -6.85 -10.3 -7.3 -10.05 -8.5 -9.0 -8.85 -8.5 -9.35 -7.1 Q-9.5 -6.15 -8.9 -4.9 L-9.1 -4.65 -8.95 -3.65 -8.65 -2.6 -8.6 -2.45 -8.25 -0.9 -8.25 -0.85 -7.9 -0.1 -7.8 -0.05 -6.45 0.55 -6.8 -1.95 -6.95 -4.9 -6.8 -6.4 M4.4 -8.9 L4.85 -8.95 8.05 -8.45 Q9.1 -8.2 9.9 -7.55 L10.85 -6.55 10.9 -6.5 11.05 -6.3 11.05 -5.95 Q11.55 -4.15 11.5 -2.35 L11.75 0.65 12.0 3.4 12.05 4.9 11.7 5.9 9.15 8.45 7.7 9.6 5.9 10.6 3.9 11.1 0.45 11.2 -2.9 10.75 -3.85 10.6 -4.9 10.2 Q-6.6 9.5 -7.4 7.75 -7.9 6.6 -8.05 5.35 -9.85 4.45 -10.3 2.65 L-10.4 2.15 -11.0 1.95 -11.4 1.75 -11.8 1.5 -12.05 1.2 Q-12.25 0.55 -11.9 -0.1 L-11.65 -0.6 -11.4 -1.3 -11.1 -1.95 Q-10.7 -2.75 -10.75 -3.6 L-10.85 -5.55 -10.8 -6.25 -10.75 -6.8 Q-10.7 -7.8 -9.75 -8.1 -9.3 -8.25 -8.85 -8.5 M10.7 -7.0 L11.05 -6.3 M4.4 -8.9 L2.95 -8.85 1.4 -8.8 1.95 -8.5 Q2.75 -7.45 2.05 -6.3 L3.6 -6.9 5.7 -8.2 M1.1 -8.95 L0.65 -9.2 Q-0.45 -9.9 -1.8 -9.75 L-3.4 -9.4 Q-4.55 -8.95 -5.55 -8.25 L-6.05 -7.9 -6.4 -7.6 Q-7.85 -6.45 -8.9 -4.9 M1.1 -8.95 L1.35 -8.8 1.4 -8.8 M2.05 -6.3 L1.3 -6.0 -0.1 -6.1 -1.7 -6.75 M2.05 1.25 L-1.55 1.4 -5.15 0.85 -6.45 0.55 M-8.6 -2.45 L-9.7 -0.95 Q-10.65 0.45 -10.4 2.15 M-5.45 5.05 L-5.5 4.3 -5.45 2.15 -5.25 1.5 M-3.85 10.6 L-4.25 7.05 -5.35 6.85 -6.95 6.05 -8.05 5.35 M-5.45 5.05 L-5.35 6.85 M2.5 5.0 L2.4 2.9 2.35 2.8 2.2 1.9 M1.4 -4.6 L1.6 -3.25 2.2 1.2 2.05 1.25 M2.5 5.0 L2.55 5.8 M-4.25 7.05 L1.6 6.85 2.85 6.7 M1.45 9.65 L1.7 7.45" fill="none" stroke="#a36a6a" stroke-linecap="round" stroke-linejoin="round" stroke-width="1"/>
  </g>
</svg>