<?xml version="1.0" encoding="UTF-8" standalone="no"?>
<svg xmlns:xlink="http://www.w3.org/1999/xlink" height="15.75px" width="17.75px" xmlns="http://www.w3.org/2000/svg">
  <g id="shape0" transform="matrix(1.0, 0.0, 0.0, 1.0, 8.9, 7.85)">
    <path d="M4.3 -1.95 L4.0 -2.3 2.9 -2.8 0.75 -3.5 -1.6 -4.4 -4.65 -5.25 -5.0 -5.35 -7.25 -5.85 -5.0 -5.35 -4.65 -5.25 -1.6 -4.4 0.75 -3.5 2.9 -2.8 4.0 -2.3 4.3 -1.95 4.35 -1.85 4.65 -2.0 Q6.25 -2.75 7.1 -2.6 L5.55 -1.6 4.65 -1.2 4.6 -1.2 4.65 -0.1 4.6 3.85 4.55 5.1 4.15 6.35 3.8 6.9 3.45 6.8 -1.45 5.35 -4.75 4.25 -6.5 3.45 -6.9 3.2 -7.5 2.65 -7.8 -3.5 -7.85 -3.8 -7.85 -4.05 Q-7.9 -4.75 -7.6 -5.35 L-7.25 -5.85 -4.05 -6.85 -1.8 -6.35 1.6 -5.4 4.3 -4.35 6.0 -3.85 7.2 -3.3 7.25 -3.25 Q6.2 -2.95 4.3 -1.95 M4.35 -1.85 L4.55 -1.5 4.65 -1.2 4.55 -1.5 4.35 -1.85 M-6.45 -0.85 Q-6.7 -0.65 -5.35 -0.3 -4.0 0.05 -2.75 0.55 L-0.75 1.4 1.75 2.45 2.05 2.45 2.1 2.25 2.05 2.1 1.6 1.45 0.65 1.2 -2.85 -0.05 -3.5 -0.35 -6.15 -1.2 -6.45 -0.85" fill="#faf8f8" fill-rule="evenodd" stroke="none"/>
    <path d="M4.3 -1.95 Q6.2 -2.95 7.25 -3.25 L7.45 -3.05 7.5 -3.0 7.65 -2.7 7.8 -2.25 7.85 -1.1 7.8 2.85 7.75 4.1 7.35 5.35 7.0 5.9 3.8 6.9 4.15 6.35 4.55 5.1 4.6 3.85 4.65 -0.1 4.6 -1.2 4.65 -1.2 5.55 -1.6 7.1 -2.6 Q6.25 -2.75 4.65 -2.0 L4.35 -1.85 4.3 -1.95 M2.05 2.45 L1.75 2.45 -0.75 1.4 -2.75 0.55 Q-4.0 0.05 -5.35 -0.3 -6.7 -0.65 -6.45 -0.85 L-6.15 -1.2 -3.5 -0.35 -2.85 -0.05 0.65 1.2 1.6 1.45 2.05 2.1 2.1 2.25 2.05 2.45" fill="#d6baba" fill-rule="evenodd" stroke="none"/>
    <path d="M-7.25 -5.85 L-5.0 -5.35 -4.65 -5.25 -1.6 -4.4 0.75 -3.5 2.9 -2.8 4.0 -2.3 4.3 -1.95 4.35 -1.85 4.55 -1.5 4.65 -1.2 M7.25 -3.25 L7.2 -3.3 6.0 -3.85 4.3 -4.35 1.6 -5.4 -1.8 -6.35 -4.05 -6.85 -7.25 -5.85 -7.6 -5.35 Q-7.9 -4.75 -7.85 -4.05 L-7.85 -3.8 -7.8 -3.5 -7.5 2.65 -6.9 3.2 -6.5 3.45 -4.75 4.25 -1.45 5.35 3.45 6.8 3.8 6.9 4.15 6.35 4.55 5.1 4.6 3.85 4.65 -0.1 4.6 -1.2 M7.25 -3.25 L7.45 -3.05 7.5 -3.0 7.65 -2.7 7.8 -2.25 7.85 -1.1 7.8 2.85 7.75 4.1 7.35 5.35 7.0 5.9 3.8 6.9 M-6.45 -0.85 L-6.15 -1.2 -3.5 -0.35 -2.85 -0.05 0.65 1.2 1.6 1.45 2.05 2.1 M2.1 2.25 L2.05 2.45" fill="none" stroke="#a36a6a" stroke-linecap="round" stroke-linejoin="round" stroke-width="1"/>
  </g>
</svg>