<?xml version="1.0" encoding="UTF-8" standalone="no"?>
<svg xmlns:xlink="http://www.w3.org/1999/xlink" height="16.9px" width="21.8px" xmlns="http://www.w3.org/2000/svg">
  <g transform="matrix(1.0, 0.0, 0.0, 1.0, 10.9, 8.45)">
    <path d="M-5.35 -6.15 L-4.85 -5.95 -4.65 -6.05 Q-0.7 -4.4 1.2 -3.9 L4.3 -3.3 6.1 -2.85 7.5 -3.0 7.6 -3.0 6.05 -2.6 6.0 -2.6 5.75 -2.5 5.65 -2.5 5.5 -2.45 5.45 -2.45 -3.15 -2.2 Q-7.1 -3.0 -7.1 -4.95 L-5.7 -6.0 -5.4 -6.1 -5.35 -6.15 M9.8 -1.8 L9.9 2.45 9.3 6.5 9.3 6.55 9.15 6.6 9.1 6.6 9.0 6.65 8.45 6.8 Q3.5 8.0 -1.55 7.0 -7.2 5.85 -8.45 1.9 L-9.85 -3.1 Q-9.25 -1.65 -7.75 -0.95 -3.25 0.95 1.75 0.4 5.6 0.25 9.05 -1.4 L9.8 -1.8 M5.65 -2.5 L5.45 -2.45 5.65 -2.5 M9.15 6.6 L9.3 6.5 9.15 6.6" fill="#d6baba" fill-rule="evenodd" stroke="none"/>
    <path d="M7.6 -3.0 L7.8 -2.9 9.8 -2.05 9.8 -1.8 9.05 -1.4 Q5.6 0.25 1.75 0.4 -3.25 0.95 -7.75 -0.95 -9.25 -1.65 -9.85 -3.1 -10.35 -6.15 -7.2 -7.15 L-6.55 -7.3 -5.65 -7.45 -5.6 -7.45 -3.4 -6.65 -4.85 -6.3 -5.35 -6.15 -5.4 -6.1 -5.7 -6.0 -7.1 -4.95 Q-7.1 -3.0 -3.15 -2.2 L5.45 -2.45 5.5 -2.45 5.65 -2.5 5.75 -2.5 6.0 -2.6 6.05 -2.6 7.6 -3.0" fill="#faf8f8" fill-rule="evenodd" stroke="none"/>
    <path d="M7.6 -3.0 L7.8 -2.9 M9.15 6.6 L9.1 6.6 9.0 6.65 8.45 6.8 Q3.5 8.0 -1.55 7.0 -7.2 5.85 -8.45 1.9 L-9.85 -3.1 Q-10.35 -6.15 -7.2 -7.15 L-6.55 -7.3 -5.65 -7.45 -5.6 -7.45 M-3.4 -6.65 L-4.85 -6.3 -5.35 -6.15 -5.4 -6.1 -5.7 -6.0 -7.1 -4.95 Q-7.1 -3.0 -3.15 -2.2 L5.45 -2.45 5.65 -2.5 5.75 -2.5 6.0 -2.6 6.05 -2.6 7.6 -3.0 M9.8 -1.8 L9.05 -1.4 Q5.6 0.25 1.75 0.4 -3.25 0.95 -7.75 -0.95 -9.25 -1.65 -9.85 -3.1 M9.3 6.5 L9.15 6.6" fill="none" stroke="#a36a6a" stroke-linecap="round" stroke-linejoin="round" stroke-width="1"/>
  </g>
</svg>