<?xml version="1.0" encoding="UTF-8" standalone="no"?>
<svg xmlns:xlink="http://www.w3.org/1999/xlink" height="14.45px" width="9.95px" xmlns="http://www.w3.org/2000/svg">
  <g id="shape0" transform="matrix(1.0, 0.0, 0.0, 1.0, 4.95, 7.25)">
    <path d="M1.4 -4.65 Q2.4 -3.4 2.7 -1.95 L3.0 1.15 Q3.0 3.25 1.8 4.9 L-0.15 5.15 -1.1 4.65 Q-2.15 3.85 -2.6 2.6 -3.0 1.2 -3.0 -0.45 -2.95 -3.2 -1.25 -5.1 L-0.7 -5.3 Q0.4 -5.4 1.4 -4.65" fill="#d6baba" fill-rule="evenodd" stroke="none"/>
    <path d="M1.85 -5.5 Q3.2 -4.0 3.6 -2.3 4.0 -0.45 4.0 1.35 3.95 3.85 2.4 5.8 L-0.2 6.1 -1.45 5.5 Q-2.85 4.6 -3.4 3.1 -3.95 1.45 -3.95 -0.5 -3.9 -3.75 -1.65 -6.0 L-0.9 -6.25 Q0.55 -6.35 1.85 -5.5 M1.4 -4.65 Q0.4 -5.4 -0.7 -5.3 L-1.25 -5.1 Q-2.95 -3.2 -3.0 -0.45 -3.0 1.2 -2.6 2.6 -2.15 3.85 -1.1 4.65 L-0.15 5.15 1.8 4.9 Q3.0 3.25 3.0 1.15 L2.7 -1.95 Q2.4 -3.4 1.4 -4.65" fill="#faf8f8" fill-rule="evenodd" stroke="none"/>
    <path d="M1.4 -4.65 Q0.4 -5.4 -0.7 -5.3 L-1.25 -5.1 Q-2.95 -3.2 -3.0 -0.45 -3.0 1.2 -2.6 2.6 -2.15 3.85 -1.1 4.65 L-0.15 5.15 1.8 4.9 Q3.0 3.25 3.0 1.15 L2.7 -1.95 Q2.4 -3.4 1.4 -4.65 Z" fill="none" stroke="#a36a6a" stroke-linecap="round" stroke-linejoin="round" stroke-width="1"/>
  </g>
</svg>