<?xml version="1.0" encoding="UTF-8" standalone="no"?>
<svg xmlns:xlink="http://www.w3.org/1999/xlink" height="29.85px" width="17.7px" xmlns="http://www.w3.org/2000/svg">
  <g id="shape0" transform="matrix(1.0, 0.0, 0.0, 1.0, 8.85, 14.9)">
    <path d="M-2.35 -12.9 L-0.9 -13.45 0.65 -13.75 3.25 -13.7 Q4.2 -13.55 5.1 -13.0 L6.15 -12.75 7.85 -12.1 7.85 -11.95 7.7 -8.7 Q7.7 -7.1 7.05 -5.65 L4.6 -6.0 4.5 -6.0 4.7 -7.8 4.85 -11.05 4.85 -11.2 3.15 -11.85 2.1 -12.1 0.25 -12.8 -2.35 -12.85 0.25 -12.8 2.1 -12.1 3.15 -11.85 4.85 -11.2 4.85 -11.05 4.7 -7.8 4.5 -6.0 4.05 -4.75 1.6 -5.1 Q-0.05 -5.3 -0.75 -6.6 -1.5 -8.05 -2.9 -9.25 L-4.0 -9.95 -6.45 -10.6 Q-7.0 -10.6 -7.5 -10.95 L-6.75 -11.3 Q-5.5 -12.05 -3.9 -12.55 L-2.5 -12.85 -2.35 -12.85 -2.35 -12.9 M-4.2 -11.25 L-3.7 -10.85 -2.9 -10.35 -2.35 -9.95 -1.9 -9.65 -1.5 -9.5 -0.7 -8.8 Q-0.25 -7.95 0.6 -7.4 L0.9 -7.25 1.4 -7.2 Q1.9 -7.2 2.25 -7.55 L2.4 -7.7 Q3.05 -8.55 2.95 -9.7 L2.85 -9.95 2.6 -10.15 2.3 -10.25 1.4 -10.3 Q0.75 -10.35 0.3 -10.8 L-0.1 -11.05 Q-0.85 -11.45 -1.65 -11.45 L-3.3 -11.4 Q-3.65 -11.35 -3.7 -11.55 -3.65 -11.35 -3.3 -11.4 L-1.65 -11.45 Q-0.85 -11.45 -0.1 -11.05 L0.3 -10.8 Q0.75 -10.35 1.4 -10.3 L2.3 -10.25 2.6 -10.15 2.85 -9.95 2.95 -9.7 Q3.05 -8.55 2.4 -7.7 L2.25 -7.55 Q1.9 -7.2 1.4 -7.2 L0.9 -7.25 0.6 -7.4 Q-0.25 -7.95 -0.7 -8.8 L-1.5 -9.5 -1.9 -9.65 -2.35 -9.95 -2.9 -10.35 -3.7 -10.85 -4.2 -11.25 M-4.55 -1.95 L-4.0 -1.7 -2.8 -1.15 -2.3 -0.9 Q-1.35 -0.45 -1.05 0.55 L-0.8 1.05 -0.6 1.45 Q-0.45 1.9 0.05 1.85 L0.35 1.8 0.55 1.6 Q0.95 0.9 0.7 0.05 L0.3 -0.5 -0.05 -0.75 -0.75 -1.15 -1.3 -1.5 -3.2 -2.85 -4.8 -2.8 -3.2 -2.85 -1.3 -1.5 -0.75 -1.15 -0.05 -0.75 0.3 -0.5 0.7 0.05 Q0.95 0.9 0.55 1.6 L0.35 1.8 0.05 1.85 Q-0.45 1.9 -0.6 1.45 L-0.8 1.05 -1.05 0.55 Q-1.35 -0.45 -2.3 -0.9 L-2.8 -1.15 -4.0 -1.7 -4.55 -1.95 M-3.1 -4.15 Q-2.25 -5.6 -0.5 -5.2 0.55 -4.9 1.45 -4.4 2.95 -3.4 4.7 -3.0 L5.4 -2.8 6.2 -2.4 4.85 3.4 Q3.3 3.3 2.35 2.15 L3.2 -1.5 2.4 -1.9 1.7 -2.1 Q-0.05 -2.5 -1.55 -3.5 L-3.1 -4.15 -1.55 -3.5 Q-0.05 -2.5 1.7 -2.1 L2.4 -1.9 3.2 -1.5 2.35 2.15 1.85 4.3 Q-0.2 4.15 -1.2 2.2 L-2.3 0.5 -3.6 -0.75 -4.45 -0.95 -5.1 -0.95 -7.45 -0.2 -6.4 -2.7 Q-5.6 -4.75 -3.5 -4.3 L-3.1 -4.15 M-5.95 7.25 Q-6.0 8.0 -5.5 8.4 -5.1 8.8 -4.5 8.85 L-3.8 8.95 -3.4 9.1 -1.55 10.6 -1.35 10.7 -1.2 10.3 Q-0.65 9.1 -1.2 7.85 L-1.5 7.45 Q-2.3 6.8 -3.3 6.85 L-4.15 6.95 -5.95 7.25 -6.25 7.25 -5.95 7.25 -4.15 6.95 -3.3 6.85 Q-2.3 6.8 -1.5 7.45 L-1.2 7.85 Q-0.65 9.1 -1.2 10.3 L-1.35 10.7 -1.55 10.6 -3.4 9.1 -3.8 8.95 -4.5 8.85 Q-5.1 8.8 -5.5 8.4 -6.0 8.0 -5.95 7.25 M-2.4 5.25 Q-1.05 5.1 0.2 5.95 1.1 6.6 1.6 7.45 L1.1 11.3 1.6 7.45 Q1.1 6.6 0.2 5.95 -1.05 5.1 -2.4 5.25 L-0.8 4.65 Q1.35 3.8 3.2 5.05 L4.6 6.55 3.75 13.05 Q2.55 12.95 1.85 12.1 L1.1 11.3 0.75 13.95 Q-0.45 13.85 -1.15 13.0 L-2.25 11.85 Q-3.1 10.9 -4.2 10.4 L-5.75 9.65 -6.9 8.7 Q-7.8 7.45 -7.85 5.9 L-7.85 5.7 -7.1 6.2 -6.3 6.3 -4.75 5.95 -3.8 5.55 -3.5 5.45 -3.3 5.4 -2.4 5.25" fill="#d6baba" fill-rule="evenodd" stroke="none"/>
    <path d="M-3.5 5.45 L-3.8 5.55 -4.75 5.95 -4.85 5.0 -4.85 4.8 -4.1 5.3 -3.5 5.45" fill="#faf8f8" fill-rule="evenodd" stroke="none"/>
    <path d="M4.5 -6.0 L4.6 -6.0 7.05 -5.65 Q7.7 -7.1 7.7 -8.7 L7.85 -11.95 7.85 -12.1 6.15 -12.75 5.1 -13.0 Q4.2 -13.55 3.25 -13.7 L0.65 -13.75 -0.9 -13.45 -2.35 -12.9 -2.5 -12.85 -3.9 -12.55 Q-5.5 -12.05 -6.75 -11.3 L-7.5 -10.95 Q-7.0 -10.6 -6.45 -10.6 L-4.0 -9.95 -2.9 -9.25 Q-1.5 -8.05 -0.75 -6.6 -0.05 -5.3 1.6 -5.1 L4.05 -4.75 4.5 -6.0 4.7 -7.8 4.85 -11.05 4.85 -11.2 3.15 -11.85 2.1 -12.1 0.25 -12.8 -2.35 -12.85 -2.5 -12.85 M2.35 2.15 Q3.3 3.3 4.85 3.4 L6.2 -2.4 5.4 -2.8 4.7 -3.0 Q2.95 -3.4 1.45 -4.4 0.55 -4.9 -0.5 -5.2 -2.25 -5.6 -3.1 -4.15 L-1.55 -3.5 Q-0.05 -2.5 1.7 -2.1 L2.4 -1.9 3.2 -1.5 2.35 2.15 1.85 4.3 Q-0.2 4.15 -1.2 2.2 L-2.3 0.5 -3.6 -0.75 -4.45 -0.95 -5.1 -0.95 -7.45 -0.2 -6.4 -2.7 Q-5.6 -4.75 -3.5 -4.3 L-3.1 -4.15 M1.1 11.3 L1.6 7.45 Q1.1 6.6 0.2 5.95 -1.05 5.1 -2.4 5.25 L-3.3 5.4 -3.5 5.45 -3.8 5.55 -4.75 5.95 -6.3 6.3 -7.1 6.2 -7.85 5.7 -7.85 5.9 Q-7.8 7.45 -6.9 8.7 L-5.75 9.65 -4.2 10.4 Q-3.1 10.9 -2.25 11.85 L-1.15 13.0 Q-0.45 13.85 0.75 13.95 L1.1 11.3 1.85 12.1 Q2.55 12.95 3.75 13.05 L4.6 6.55 3.2 5.05 Q1.35 3.8 -0.8 4.65 L-2.4 5.25 -3.5 5.45 -4.1 5.3 -4.85 4.8 -4.85 5.0 -4.75 5.95" fill="none" stroke="#a36a6a" stroke-linecap="round" stroke-linejoin="round" stroke-width="1"/>
    <path d="M-3.7 -11.55 Q-3.65 -11.35 -3.3 -11.4 L-1.65 -11.45 Q-0.85 -11.45 -0.1 -11.05 L0.3 -10.8 Q0.75 -10.35 1.4 -10.3 L2.3 -10.25 2.6 -10.15 2.85 -9.95 2.95 -9.7 Q3.05 -8.55 2.4 -7.7 L2.25 -7.55 Q1.9 -7.2 1.4 -7.2 L0.9 -7.25 0.6 -7.4 Q-0.25 -7.95 -0.7 -8.8 L-1.5 -9.5 -1.9 -9.65 -2.35 -9.95 -2.9 -10.35 -3.7 -10.85 -4.2 -11.25 M-4.8 -2.8 L-3.2 -2.85 -1.3 -1.5 -0.75 -1.15 -0.05 -0.75 0.3 -0.5 0.7 0.05 Q0.95 0.9 0.55 1.6 L0.35 1.8 0.05 1.85 Q-0.45 1.9 -0.6 1.45 L-0.8 1.05 -1.05 0.55 Q-1.35 -0.45 -2.3 -0.9 L-2.8 -1.15 -4.0 -1.7 -4.55 -1.95 M-6.25 7.25 L-5.95 7.25 -4.15 6.95 -3.3 6.85 Q-2.3 6.8 -1.5 7.45 L-1.2 7.85 Q-0.65 9.1 -1.2 10.3 L-1.35 10.7 -1.55 10.6 -3.4 9.1 -3.8 8.95 -4.5 8.85 Q-5.1 8.8 -5.5 8.4 -6.0 8.0 -5.95 7.25" fill="none" stroke="#a36a6a" stroke-linecap="round" stroke-linejoin="round" stroke-opacity="0.42352942" stroke-width="1"/>
  </g>
</svg>