<?xml version="1.0" encoding="UTF-8" standalone="no"?>
<svg xmlns:xlink="http://www.w3.org/1999/xlink" height="150.55px" width="145.1px" xmlns="http://www.w3.org/2000/svg">
  <g transform="matrix(1.0, 0.0, 0.0, 1.0, -187.8, -143.15)">
    <path d="M330.35 263.1 L330.15 263.5 328.4 264.1 Q327.75 263.9 327.6 263.7 L327.4 262.55 Q327.4 262.15 328.15 261.85 328.9 261.55 328.9 260.6 L329.8 261.45 Q330.4 262.0 330.4 262.35 L330.35 263.1 M332.8 282.55 L332.9 283.5 Q332.9 284.45 332.55 284.9 332.15 285.5 330.55 286.25 L330.1 285.6 329.9 284.35 Q329.9 283.85 330.5 283.2 331.3 282.25 332.65 282.25 L332.8 282.55 M255.1 143.15 Q258.25 143.15 265.95 161.0 L264.3 166.6 264.3 251.6 Q264.9 255.35 265.0 259.1 265.1 261.65 265.6 264.0 266.95 269.85 271.7 273.5 L273.6 274.65 Q275.7 275.7 277.95 276.55 L280.35 277.5 280.4 276.75 Q281.3 276.5 283.9 276.75 L284.0 276.95 284.05 278.05 284.05 278.15 285.3 278.1 287.6 277.25 Q288.75 276.6 289.3 275.7 L289.3 275.35 Q289.3 274.5 289.8 273.55 L289.75 273.05 290.15 272.95 Q289.25 272.55 288.95 271.75 288.8 271.45 288.8 270.05 288.8 265.85 291.95 265.4 294.95 265.0 295.05 269.6 L295.9 269.5 Q298.45 269.5 299.05 270.05 L300.55 271.5 300.55 271.55 298.15 271.75 Q294.85 273.35 294.65 276.95 L294.45 277.1 294.25 279.2 Q293.8 281.95 291.6 283.8 288.15 286.7 283.6 286.7 L283.35 287.7 Q282.15 289.15 280.2 289.7 271.95 292.15 263.6 290.6 261.2 293.0 257.9 293.1 254.9 293.25 253.25 290.8 251.95 293.3 249.1 293.7 L244.45 293.3 Q239.9 292.5 238.85 288.1 L237.65 287.2 235.75 287.9 234.45 288.25 Q229.85 288.5 227.45 284.6 L226.7 284.2 225.2 283.0 Q224.1 282.0 223.4 280.85 222.0 278.45 222.0 275.85 224.15 275.65 224.15 272.8 224.15 269.8 221.9 271.3 220.45 272.25 219.95 273.25 219.8 272.7 219.8 272.05 219.8 268.5 221.85 267.05 L221.8 266.5 Q221.8 264.9 222.3 264.4 223.25 263.4 226.4 263.75 L226.55 265.8 226.55 266.35 227.2 266.75 228.2 267.95 228.15 268.85 228.45 269.85 228.55 270.1 Q228.5 271.9 227.8 273.5 L227.05 274.75 227.05 274.8 Q227.55 276.2 229.0 276.5 L239.25 276.15 Q242.95 275.15 244.2 271.6 L245.25 267.5 Q246.1 260.95 245.85 254.5 L245.7 240.6 245.75 228.35 245.65 215.45 245.55 203.95 245.4 190.85 245.35 181.25 245.25 172.15 245.15 168.3 Q245.05 162.0 245.35 155.8 245.4 153.65 246.2 151.75 246.7 150.6 247.45 149.7 248.9 147.95 250.75 146.65 251.8 145.75 253.15 144.7 L253.4 144.4 253.4 144.5 255.1 143.15 M322.9 246.25 L321.7 244.8 321.3 243.55 321.35 242.7 321.4 242.75 Q322.75 242.3 323.5 243.0 324.05 243.6 324.05 244.6 L323.9 245.75 322.9 246.25 M310.0 253.75 L309.8 254.0 308.15 254.25 Q306.8 254.25 305.95 253.25 305.3 252.55 305.3 252.1 305.3 248.65 307.7 249.6 310.05 250.55 310.05 253.0 L310.0 253.75 M292.9 258.35 L292.4 259.1 291.05 259.25 Q290.9 259.15 290.9 257.9 L291.0 256.85 291.05 256.75 291.9 256.6 Q292.9 257.0 292.9 258.35 M286.55 269.6 L286.4 270.9 285.9 271.75 Q284.3 271.75 283.55 271.0 283.6 269.6 283.85 268.95 284.3 267.8 286.4 267.75 L286.55 269.6 M297.45 281.65 Q299.55 281.95 299.55 283.35 299.55 284.65 298.8 285.25 298.2 285.75 297.4 285.75 295.85 285.75 295.4 284.75 L295.3 283.55 Q295.3 281.4 297.45 281.65 M294.15 273.5 L294.05 273.6 293.85 273.8 293.9 274.0 294.15 273.5 M197.15 282.65 Q197.0 282.5 197.0 281.75 197.0 281.05 198.2 279.95 199.55 278.75 200.9 278.75 L201.05 280.6 200.9 282.5 200.7 282.55 Q200.5 282.6 200.4 282.75 L197.3 282.75 197.15 282.65 M190.5 276.1 Q190.5 276.9 190.1 277.8 L189.3 279.35 189.3 279.5 188.05 279.35 187.8 277.1 Q187.8 276.6 187.95 276.3 188.4 275.45 189.75 275.0 L190.3 275.2 Q190.5 275.35 190.5 276.1 M219.55 251.85 Q222.8 252.0 222.8 255.05 222.8 255.55 221.45 256.6 220.0 257.75 218.9 257.75 217.15 257.75 216.55 256.4 L216.3 255.05 Q216.3 251.7 219.55 251.85 M207.5 263.95 L207.55 265.05 Q207.55 266.15 205.9 267.25 L204.25 267.1 Q203.8 267.0 203.8 266.15 203.8 265.25 204.9 264.15 206.15 262.95 207.4 263.75 L207.5 263.95" fill="#ff0000" fill-rule="evenodd" stroke="none"/>
  </g>
</svg>
