<?xml version="1.0" encoding="UTF-8" standalone="no"?>
<svg xmlns:xlink="http://www.w3.org/1999/xlink" height="150.55px" width="151.75px" xmlns="http://www.w3.org/2000/svg">
  <g transform="matrix(1.0, 0.0, 0.0, 1.0, -185.3, -143.15)">
    <path d="M324.05 254.75 Q323.55 255.65 323.55 256.25 L323.45 256.85 Q322.95 256.5 322.4 256.5 319.65 256.5 318.95 255.25 318.8 255.0 318.8 253.75 318.8 250.65 321.7 250.15 324.55 249.65 324.55 253.25 L324.05 254.75 M331.8 270.1 L331.9 268.75 Q332.8 268.5 334.9 268.75 L335.0 268.95 335.05 270.05 334.9 271.35 335.1 271.55 Q335.15 271.75 334.4 271.75 L331.9 271.6 331.8 270.1 M337.05 281.85 Q337.05 282.85 336.65 283.5 L335.65 283.75 334.3 283.5 Q333.85 282.75 334.45 281.65 335.15 280.3 336.9 280.25 L337.05 281.85 M255.1 143.15 Q258.25 143.15 265.95 161.0 L264.3 166.6 264.3 251.6 Q264.9 255.35 265.0 259.1 265.1 261.65 265.6 264.0 266.95 269.85 271.7 273.5 L273.6 274.65 274.8 275.25 275.9 275.0 278.35 275.5 282.9 276.0 284.3 277.25 285.05 278.35 Q289.85 277.7 291.95 274.15 293.3 271.9 293.3 269.25 L292.8 267.4 Q292.3 266.15 292.3 265.5 292.3 262.65 294.45 263.95 296.55 265.2 296.55 268.25 296.55 272.6 291.9 279.45 287.05 286.55 282.4 288.25 L279.45 288.25 279.45 289.95 Q271.55 292.1 263.6 290.6 261.2 293.0 257.9 293.1 254.9 293.25 253.25 290.8 251.95 293.3 249.1 293.7 L244.45 293.3 Q239.9 292.5 238.85 288.1 L237.65 287.2 235.75 287.9 234.45 288.25 Q231.85 288.4 229.95 287.2 L229.95 285.5 Q226.8 284.65 225.3 280.85 L224.3 275.6 Q224.3 272.2 226.55 268.45 229.3 263.75 232.55 269.1 L232.0 270.1 228.55 270.25 228.25 271.8 Q227.9 272.85 227.9 273.5 227.9 275.2 230.45 276.45 L231.15 276.85 Q235.2 277.25 239.25 276.15 242.95 275.15 244.2 271.6 L245.25 267.5 Q246.1 260.95 245.85 254.5 L245.7 240.6 245.75 228.35 245.65 215.45 245.55 203.95 245.4 190.85 245.35 181.25 245.25 172.15 245.15 168.3 Q245.05 162.0 245.35 155.8 245.4 153.65 246.2 151.75 246.7 150.6 247.45 149.7 248.9 147.95 250.75 146.65 251.8 145.75 253.15 144.7 L253.4 144.4 253.4 144.5 255.1 143.15 M312.15 271.75 L311.0 271.65 310.8 271.5 310.55 269.85 310.3 268.1 310.4 266.75 Q311.3 266.5 313.9 266.75 L314.05 268.6 Q314.05 270.05 313.55 270.9 313.05 271.75 312.15 271.75 M302.55 257.1 L302.3 259.0 Q301.9 259.75 300.4 259.75 L299.15 259.65 298.8 259.5 298.8 256.1 299.9 255.1 302.4 255.25 302.55 257.1 M315.3 283.05 L314.8 283.8 313.9 283.8 Q313.55 284.35 313.55 283.1 313.55 282.3 313.9 282.1 L314.65 282.0 315.3 283.05 M218.3 242.75 Q217.85 243.25 215.9 243.25 214.75 243.25 214.2 242.5 213.8 242.0 213.8 241.4 213.8 239.55 216.2 239.0 218.55 238.4 218.55 241.4 L218.3 242.75 M188.15 247.15 L188.0 247.0 187.9 246.85 187.8 246.05 Q187.8 245.65 188.3 245.0 188.85 244.35 189.5 244.0 L190.25 244.4 190.55 245.55 190.5 246.85 190.25 247.05 189.25 247.25 188.15 247.15 M185.3 270.1 L186.55 269.6 187.5 269.25 188.1 269.3 Q188.3 269.3 188.3 270.05 L187.0 271.75 185.8 271.6 Q185.3 271.0 185.3 270.1 M200.3 252.75 Q200.3 250.3 202.7 250.4 205.05 250.55 205.05 252.8 205.05 253.8 204.55 254.5 204.0 255.25 203.15 255.25 200.8 255.25 200.3 253.85 L200.3 252.75 M195.05 282.6 L194.8 282.85 194.5 283.25 Q192.55 283.3 192.0 282.2 L191.8 280.65 Q191.8 279.55 192.0 279.35 L195.0 279.25 195.05 282.6 M224.05 262.75 Q224.05 263.85 222.4 265.25 L221.45 263.55 Q220.8 262.1 220.8 261.6 220.8 260.95 221.15 260.35 221.8 259.35 223.15 259.35 224.05 260.95 224.05 262.75 M211.55 283.05 L210.9 283.75 209.4 283.55 Q209.15 283.35 209.15 282.1 209.15 281.3 209.6 280.95 L210.4 280.6 Q211.55 281.45 211.55 283.05" fill="#ff0000" fill-rule="evenodd" stroke="none"/>
  </g>
</svg>
