<?xml version="1.0" encoding="UTF-8" standalone="no"?>
<svg xmlns:xlink="http://www.w3.org/1999/xlink" height="5.55px" width="5.85px" xmlns="http://www.w3.org/2000/svg">
  <g transform="matrix(1.0, 0.0, 0.0, 1.0, 2.9, 2.8)">
    <path d="M1.55 -1.1 L1.6 -1.05 1.95 0.05 1.25 1.25 Q0.95 1.75 0.15 1.75 -0.9 1.8 -1.4 0.95 L-1.4 0.9 -1.9 0.25 -1.85 0.0 -1.7 -0.75 -1.25 -1.6 0.55 -1.8 0.65 -1.75 1.15 -1.5 1.55 -1.1 1.15 -1.5 1.55 -1.15 1.55 -1.1 M0.45 -0.95 Q0.4 -1.55 -0.75 -1.45 -1.35 -1.35 -1.35 -0.25 -1.35 0.15 -0.95 0.15 -0.3 0.15 0.15 -0.35 L0.45 -0.95" fill="#d6baba" fill-rule="evenodd" stroke="none"/>
    <path d="M0.45 -0.95 L0.15 -0.35 Q-0.3 0.15 -0.95 0.15 -1.35 0.15 -1.35 -0.25 -1.35 -1.35 -0.75 -1.45 0.4 -1.55 0.45 -0.95" fill="#faf8f8" fill-rule="evenodd" stroke="none"/>
    <path d="M1.15 -1.5 L0.65 -1.75 0.55 -1.8 -1.25 -1.6 -1.7 -0.75 -1.85 0.0 -1.9 0.25 -1.4 0.9 -1.4 0.95 Q-0.9 1.8 0.15 1.75 0.95 1.75 1.25 1.25 L1.95 0.05 1.6 -1.05 1.55 -1.1 1.15 -1.5 Z" fill="none" stroke="#a36a6a" stroke-linecap="round" stroke-linejoin="round" stroke-width="1"/>
  </g>
</svg>