<?xml version="1.0" encoding="UTF-8" standalone="no"?>
<svg xmlns:xlink="http://www.w3.org/1999/xlink" height="121.1px" width="98px" xmlns="http://www.w3.org/2000/svg">
  <g transform="matrix(1.0, 0.0, 0.0, 1.0, 1, 1)">
    <path d="M90.6 22.3 L96.0 22.1 Q94.65 24.0 87.85 25.25 L80.55 26.15 80.25 26.15 80.4 26.45 Q81.0 27.95 82.7 31.25 L79.45 27.85 79.2 27.6 75.4 24.3 Q72.75 22.0 71.35 19.85 73.8 21.4 77.9 23.0 L81.75 24.3 82.0 24.3 86.25 23.6 91.6 22.85 91.6 22.65 90.6 22.3 M93.6 51.0 L94.2 51.85 Q92.6 51.65 89.05 50.25 86.05 49.1 83.8 48.0 82.15 45.65 82.0 44.9 83.95 46.55 84.5 46.75 L84.5 46.8 84.6 46.8 84.5 46.75 Q83.25 44.85 82.1 42.25 80.75 39.25 80.75 33.75 L80.95 33.85 81.55 35.55 82.7 38.1 Q84.05 40.4 87.75 45.5 88.45 46.6 90.3 48.35 92.05 50.05 93.6 51.0 M89.35 74.45 Q86.45 72.9 85.15 71.85 L85.25 72.55 Q84.3 70.1 83.55 69.0 L83.4 69.0 83.4 70.05 Q83.7 74.95 84.9 77.55 L85.3 78.4 84.95 85.9 Q84.45 82.0 82.8 78.05 L82.75 77.95 81.6 81.8 Q79.45 88.5 79.45 91.8 79.45 96.0 80.3 99.3 79.3 98.1 77.95 94.65 78.0 105.0 79.05 106.65 79.3 107.1 82.0 108.6 L86.05 110.75 83.6 110.55 81.95 110.4 81.3 110.25 81.1 110.25 81.95 110.75 83.8 112.05 Q85.9 113.4 87.95 113.4 L88.05 113.4 Q85.0 115.85 83.55 116.0 L76.9 111.95 76.75 111.8 Q79.8 116.85 80.75 117.5 L81.75 118.05 85.65 119.0 84.1 119.1 81.75 118.85 Q79.1 118.2 76.55 116.2 75.45 115.3 73.8 114.7 72.0 114.1 71.6 114.7 71.55 108.95 72.3 105.8 73.4 100.95 74.15 99.25 78.35 82.95 78.8 80.25 L80.2 71.9 Q80.5 70.2 80.2 63.9 L80.1 62.3 Q79.75 56.6 79.15 53.1 L77.9 47.45 75.55 41.4 75.25 40.6 72.8 42.45 Q71.0 43.6 68.85 44.4 L65.6 45.35 64.3 45.6 56.95 46.2 52.65 46.0 52.4 46.0 50.25 45.9 50.4 45.85 51.15 45.55 Q57.55 43.8 62.1 41.25 L62.15 41.25 63.5 40.4 64.6 39.65 69.9 35.35 68.3 38.65 66.2 42.5 Q68.3 41.1 72.4 38.9 L72.9 38.6 78.4 35.6 76.8 38.95 78.25 43.05 80.75 49.35 Q82.5 54.5 83.2 61.65 83.5 64.7 86.1 69.2 L86.9 70.55 89.35 74.45 M3.55 37.65 L3.05 34.65 Q2.9 33.9 3.05 32.5 3.1 33.7 3.3 34.4 L4.05 36.3 4.45 36.45 Q5.55 31.6 7.85 26.7 8.75 24.75 9.6 23.35 10.65 21.55 13.2 18.2 L10.0 26.25 Q9.05 28.75 8.4 31.05 L8.4 31.15 14.9 21.85 16.3 18.65 17.55 15.5 17.9 15.25 19.35 14.05 21.0 12.5 21.0 12.95 20.7 16.8 Q21.7 16.05 23.1 15.25 L23.0 15.4 17.8 23.45 17.95 23.1 16.3 24.6 Q14.6 26.15 13.0 28.05 9.7 31.9 7.15 40.25 L5.8 45.1 Q4.95 43.3 3.9 39.2 L3.55 37.65 M18.55 3.0 L18.85 2.75 22.1 0.45 21.3 2.0 21.0 2.7 18.1 8.45 Q20.1 7.25 22.5 5.95 L16.4 10.55 15.2 11.5 12.0 13.95 14.6 10.6 15.4 9.1 18.55 3.0 M41.0 0.05 L46.25 0.2 48.9 0.7 44.85 1.9 44.5 2.0 Q39.2 3.65 38.8 4.55 L41.0 4.55 38.35 5.15 35.2 5.3 32.1 5.65 31.15 5.85 Q29.25 6.3 27.4 7.15 L31.55 5.0 32.8 4.3 Q34.95 3.1 36.8 2.15 L41.0 0.05 M62.4 6.15 L66.4 7.6 72.85 10.3 68.0 10.05 66.25 10.15 63.0 10.1 66.15 11.6 67.3 12.25 66.15 12.15 59.8 11.3 Q58.75 11.1 53.55 9.05 47.75 6.65 47.55 6.6 L47.8 6.6 53.15 7.8 57.7 6.95 62.4 6.15 M66.2 42.5 L65.8 42.75 65.95 42.75 66.2 42.5 M32.25 22.0 L33.75 20.35 34.5 19.15 Q36.2 16.1 40.5 11.8 L44.95 11.45 40.5 15.25 40.3 15.4 40.1 15.6 37.35 17.85 41.05 16.7 41.3 16.6 Q51.45 13.3 53.7 12.15 L53.85 12.15 51.1 14.6 49.3 16.2 49.3 16.35 57.7 16.55 64.15 17.5 65.8 17.85 67.5 18.15 65.7 19.7 61.8 22.45 Q60.0 23.85 57.2 26.6 L53.15 30.65 56.95 26.5 59.65 23.65 59.9 23.4 Q57.7 22.3 54.9 21.45 51.2 20.3 49.55 20.55 L45.15 21.1 44.85 21.15 44.2 21.2 44.6 20.8 44.75 20.65 45.45 19.8 46.45 18.5 43.65 19.4 43.4 19.45 36.25 21.6 32.0 22.55 32.25 22.0 M38.85 42.8 Q42.4 41.25 51.65 37.6 L57.0 35.3 57.1 35.25 Q61.0 33.4 62.65 31.95 L62.8 31.95 Q62.35 32.95 59.95 35.05 L58.2 36.55 58.1 36.6 56.65 37.5 58.75 37.4 58.9 37.4 59.0 37.35 61.8 37.7 64.75 37.25 65.95 37.05 66.6 37.05 64.7 38.15 61.85 39.5 61.0 39.9 60.9 39.9 58.55 40.9 51.6 41.65 42.4 42.8 40.1 42.8 38.85 42.8 M16.3 28.85 L17.55 27.7 18.9 26.45 22.7 21.25 22.6 21.25 20.65 22.75 18.9 24.25 Q21.5 19.85 26.85 13.1 L28.5 12.15 32.7 10.0 34.7 8.8 35.65 7.95 35.85 7.95 35.15 9.3 33.1 12.15 34.65 12.1 37.4 11.95 39.05 11.9 37.8 13.55 Q37.35 13.65 35.7 15.4 34.0 17.15 33.8 17.6 L34.25 16.7 30.45 17.2 25.2 22.25 23.85 23.55 21.7 25.6 19.85 27.3 19.45 27.65 17.45 29.4 16.3 30.3 16.3 28.85" fill="#70281a" fill-rule="evenodd" stroke="none"/>
    <path d="M85.25 72.55 L85.3 77.25 85.3 78.4 84.9 77.55 Q83.7 74.95 83.4 70.05 L83.4 69.0 83.55 69.0 Q84.3 70.1 85.25 72.55" fill="#8c4032" fill-rule="evenodd" stroke="none"/>
    <path d="M84.5 46.75 L84.6 46.8 84.5 46.8 84.5 46.75 M66.2 42.5 L65.95 42.75 65.8 42.75 66.2 42.5" fill="#625a39" fill-rule="evenodd" stroke="none"/>
    <path d="M52.4 46.0 L52.65 46.0 56.95 46.2 64.3 45.6 65.6 45.35 68.85 44.4 Q71.0 43.6 72.8 42.45 L75.25 40.6 75.55 41.4 77.9 47.45 79.15 53.1 Q79.75 56.6 80.1 62.3 L80.2 63.9 Q80.5 70.2 80.2 71.9 L78.8 80.25 Q78.35 82.95 74.15 99.25 L74.0 99.25 74.0 98.05 Q74.4 91.65 75.3 87.45 L76.9 79.45 Q77.55 76.4 77.9 68.7 78.35 59.1 77.3 54.95 L75.85 49.95 Q75.65 49.5 75.1 49.45 L71.8 48.9 68.05 48.65 64.75 49.0 63.25 49.35 62.4 49.05 58.6 48.25 54.3 47.0 Q52.7 46.35 52.4 46.0 M36.25 21.6 L43.4 19.45 43.65 19.4 46.45 18.5 45.45 19.8 44.75 20.65 44.6 20.8 44.2 21.2 44.85 21.15 45.15 21.1 49.55 20.55 Q51.2 20.3 54.9 21.45 57.7 22.3 59.9 23.4 L59.65 23.65 56.95 26.5 56.9 26.5 54.4 25.95 56.4 22.75 54.7 22.55 46.6 22.95 46.65 23.0 42.85 22.85 41.2 22.95 42.55 21.25 43.5 20.25 43.4 20.25 Q42.6 20.6 41.1 22.05 40.3 22.9 34.6 23.85 L33.7 23.85 35.3 22.3 36.25 21.6 M58.55 40.9 L59.65 40.8 Q59.25 40.8 55.5 43.1 L55.0 43.45 53.75 43.35 49.9 43.9 46.85 44.45 Q41.2 42.95 39.2 42.95 L39.3 42.85 40.1 42.8 42.4 42.8 51.6 41.65 58.55 40.9 M19.85 27.3 L21.7 25.6 23.85 23.55 25.2 22.25 30.45 17.2 34.25 16.7 33.8 17.6 32.9 19.9 32.65 20.75 31.9 21.1 30.3 22.05 30.3 21.95 Q30.75 19.85 31.1 19.65 L31.1 19.05 Q30.1 19.55 28.1 21.7 25.95 23.95 25.6 25.05 L21.25 26.7 19.85 27.3 M5.8 45.1 L7.15 40.25 Q9.7 31.9 13.0 28.05 14.6 26.15 16.3 24.6 L17.95 23.1 17.8 23.45 17.35 24.4 17.2 24.75 Q16.45 26.55 16.35 27.7 L13.35 30.25 Q12.7 30.95 10.8 37.25 10.8 38.25 8.25 41.85 L5.8 45.1" fill="#313131" fill-rule="evenodd" stroke="none"/>
    <path d="M47.3 26.45 Q48.9 26.9 48.9 28.25 48.9 29.4 47.75 31.3 46.5 33.35 45.1 34.25 42.45 35.9 35.55 37.85 29.3 39.65 27.5 39.65 25.65 39.65 24.1 38.65 21.9 37.25 21.9 34.25 21.9 33.7 23.4 32.35 25.5 30.55 27.0 29.5 L28.25 28.6 Q29.45 27.95 32.55 27.2 37.2 26.05 41.9 26.05 L47.3 26.45 M41.4 29.65 L38.0 29.75 Q37.0 29.95 32.7 31.65 L30.25 32.6 29.5 33.0 28.7 33.65 Q26.75 35.3 26.5 35.85 L26.5 36.45 28.5 36.45 Q30.75 35.65 35.65 34.95 L40.5 34.25 42.8 32.75 46.3 30.25 Q46.0 29.8 44.45 29.7 L41.4 29.65 M15.1 43.25 L13.3 43.25 Q13.8 41.25 15.55 39.15 16.4 38.15 17.25 37.6 18.1 38.05 21.3 41.25 L19.5 42.1 15.1 43.25" fill="#565656" fill-rule="evenodd" stroke="none"/>
    <path d="M41.4 29.65 L44.45 29.7 Q46.0 29.8 46.3 30.25 L42.8 32.75 40.5 34.25 35.65 34.95 Q30.75 35.65 28.5 36.45 L26.5 36.45 26.5 35.85 Q26.75 35.3 28.7 33.65 L29.5 33.0 30.25 32.6 32.7 31.65 Q37.0 29.95 38.0 29.75 L41.4 29.65 M40.7 31.45 L36.7 31.45 36.55 31.5 36.15 31.65 34.8 32.45 33.1 33.65 33.1 33.85 34.3 33.85 Q35.5 33.25 38.0 32.6 L40.7 32.05 40.7 31.45" fill="#646464" fill-rule="evenodd" stroke="none"/>
    <path d="M40.7 31.45 L40.7 32.05 38.0 32.6 Q35.5 33.25 34.3 33.85 L33.1 33.85 33.1 33.65 34.8 32.45 36.15 31.65 36.55 31.5 36.7 31.45 40.7 31.45" fill="#747474" fill-rule="evenodd" stroke="none"/>
    <path d="M18.9 24.25 L18.8 24.35 18.7 24.35 18.9 24.25" fill="#4a442b" fill-rule="evenodd" stroke="none"/>
    <path d="M71.6 114.7 L71.5 115.0 Q70.95 116.1 61.55 116.45 51.9 116.85 40.9 116.05 11.2 113.9 9.7 106.5 L8.4 101.05 5.0 89.6 Q0.0 72.55 0.0 59.0 0.0 56.0 0.55 50.6 1.1 45.55 3.55 37.65 L3.9 39.2 Q4.95 43.3 5.8 45.1 L8.25 41.85 Q10.8 38.25 10.8 37.25 12.7 30.95 13.35 30.25 L16.35 27.7 16.3 28.35 16.3 28.85 16.3 30.3 17.45 29.4 19.45 27.65 19.85 27.3 21.25 26.7 25.6 25.05 Q25.95 23.95 28.1 21.7 30.1 19.55 31.1 19.05 L31.1 19.65 Q30.75 19.85 30.3 21.95 L30.3 22.05 31.9 21.1 32.65 20.75 32.25 22.0 32.0 22.55 36.25 21.6 35.3 22.3 33.7 23.85 34.6 23.85 Q40.3 22.9 41.1 22.05 42.6 20.6 43.4 20.25 L43.5 20.25 42.55 21.25 41.2 22.95 42.85 22.85 46.65 23.0 46.6 22.95 54.7 22.55 56.4 22.75 54.4 25.95 56.9 26.5 56.95 26.5 53.15 30.65 53.1 30.75 50.55 33.45 50.3 33.75 Q46.15 38.3 41.75 40.85 39.5 42.2 37.8 42.8 L38.85 42.8 40.1 42.8 39.3 42.85 39.2 42.95 Q41.2 42.95 46.85 44.45 L49.9 43.9 53.75 43.35 55.0 43.45 51.15 45.55 50.4 45.85 50.25 45.9 52.4 46.0 Q52.7 46.35 54.3 47.0 L58.6 48.25 62.4 49.05 63.25 49.35 64.75 49.0 68.05 48.65 71.8 48.9 75.1 49.45 Q75.65 49.5 75.85 49.95 L77.3 54.95 Q78.35 59.1 77.9 68.7 77.55 76.4 76.9 79.45 L75.3 87.45 Q74.4 91.65 74.0 98.05 L74.0 99.25 74.15 99.25 Q73.4 100.95 72.3 105.8 71.55 108.95 71.6 114.7 M47.3 26.45 L41.9 26.05 Q37.2 26.05 32.55 27.2 29.45 27.95 28.25 28.6 L27.0 29.5 Q25.5 30.55 23.4 32.35 21.9 33.7 21.9 34.25 21.9 37.25 24.1 38.65 25.65 39.65 27.5 39.65 29.3 39.65 35.55 37.85 42.45 35.9 45.1 34.25 46.5 33.35 47.75 31.3 48.9 29.4 48.9 28.25 48.9 26.9 47.3 26.45 M15.1 43.25 L19.5 42.1 21.3 41.25 Q18.1 38.05 17.25 37.6 16.4 38.15 15.55 39.15 13.8 41.25 13.3 43.25 L15.1 43.25" fill="url(#gradient0)" fill-rule="evenodd" stroke="none"/>
    <path d="M82.7 31.25 L86.75 38.95 Q91.55 47.95 93.6 51.0 92.05 50.05 90.3 48.35 88.45 46.6 87.75 45.5 84.05 40.4 82.7 38.1 L81.55 35.55 80.95 33.85 80.75 33.75 Q80.75 39.25 82.1 42.25 83.25 44.85 84.5 46.75 83.95 46.55 82.0 44.9 82.15 45.65 83.8 48.0 L83.55 47.9 83.4 47.8 84.45 52.4 86.65 62.7 Q88.6 71.7 89.4 74.45 L89.35 74.45 86.9 70.55 86.1 69.2 Q83.5 64.7 83.2 61.65 82.5 54.5 80.75 49.35 L78.25 43.05 76.8 38.95 78.4 35.6 72.9 38.6 72.4 38.9 Q68.3 41.1 66.2 42.5 L68.3 38.65 69.9 35.35 64.6 39.65 63.5 40.4 62.15 41.25 62.1 41.25 Q57.55 43.8 51.15 45.55 L55.0 43.45 55.5 43.1 Q59.25 40.8 59.65 40.8 L58.55 40.9 60.9 39.9 61.0 39.9 61.85 39.5 64.7 38.15 66.6 37.05 65.95 37.05 64.75 37.25 61.8 37.7 59.0 37.35 58.9 37.4 58.75 37.4 56.65 37.5 58.1 36.6 58.2 36.55 59.95 35.05 Q62.35 32.95 62.8 31.95 L62.65 31.95 Q61.0 33.4 57.1 35.25 L57.0 35.3 51.65 37.6 Q42.4 41.25 38.85 42.8 L37.8 42.8 Q39.5 42.2 41.75 40.85 46.15 38.3 50.3 33.75 L50.55 33.45 53.1 30.75 53.15 30.65 57.2 26.6 Q60.0 23.85 61.8 22.45 L65.7 19.7 67.5 18.15 65.8 17.85 64.15 17.5 57.7 16.55 49.3 16.35 49.3 16.2 51.1 14.6 53.85 12.15 53.7 12.15 Q51.45 13.3 41.3 16.6 L41.05 16.7 37.35 17.85 40.1 15.6 40.3 15.4 40.5 15.25 44.95 11.45 40.5 11.8 Q36.2 16.1 34.5 19.15 L33.75 20.35 32.25 22.0 32.65 20.75 32.9 19.9 33.8 17.6 Q34.0 17.15 35.7 15.4 37.35 13.65 37.8 13.55 L39.05 11.9 37.4 11.95 34.65 12.1 33.1 12.15 35.15 9.3 35.85 7.95 35.65 7.95 34.7 8.8 32.7 10.0 28.5 12.15 26.85 13.1 Q21.5 19.85 18.9 24.25 L20.65 22.75 22.6 21.25 22.7 21.25 18.9 26.45 17.55 27.7 16.3 28.85 16.3 28.35 16.35 27.7 Q16.45 26.55 17.2 24.75 L17.35 24.4 17.8 23.45 23.0 15.4 23.1 15.25 Q21.7 16.05 20.7 16.8 L21.0 12.95 21.0 12.5 19.35 14.05 17.9 15.25 17.55 15.5 16.3 18.65 14.9 21.85 8.4 31.15 8.4 31.05 Q9.05 28.75 10.0 26.25 L13.2 18.2 Q10.65 21.55 9.6 23.35 8.75 24.75 7.85 26.7 5.55 31.6 4.45 36.45 L4.05 36.3 3.3 34.4 Q3.1 33.7 3.05 32.5 3.15 30.65 3.7 27.55 L3.75 27.25 4.85 22.45 5.7 19.85 Q6.15 18.6 6.7 17.65 7.7 15.95 9.45 13.45 L13.15 8.6 13.5 8.1 16.1 5.15 18.55 3.0 15.4 9.1 14.6 10.6 12.0 13.95 15.2 11.5 16.4 10.55 22.5 5.95 Q26.15 4.05 29.6 2.75 L30.6 2.35 Q36.1 0.4 41.0 0.05 L36.8 2.15 Q34.95 3.1 32.8 4.3 L31.55 5.0 27.4 7.15 Q29.25 6.3 31.15 5.85 L32.1 5.65 35.2 5.3 38.35 5.15 41.0 4.55 42.0 4.55 44.3 4.55 Q50.45 4.5 56.7 4.8 58.65 4.9 62.4 6.15 L57.7 6.95 53.15 7.8 47.8 6.6 47.55 6.6 Q47.75 6.65 53.55 9.05 58.75 11.1 59.8 11.3 L66.15 12.15 67.3 12.25 68.6 13.05 79.35 19.85 Q81.05 20.9 83.55 21.5 L89.2 22.25 90.6 22.3 91.6 22.65 91.6 22.85 86.25 23.6 82.0 24.3 81.75 24.3 77.9 23.0 Q73.8 21.4 71.35 19.85 72.75 22.0 75.4 24.3 L79.2 27.6 79.45 27.85 82.7 31.25 M80.3 99.3 Q80.95 101.9 82.05 103.65 83.15 105.35 85.6 107.3 88.0 109.25 93.65 109.7 L88.05 113.4 87.95 113.4 Q85.9 113.4 83.8 112.05 L81.95 110.75 81.1 110.25 81.3 110.25 81.95 110.4 83.6 110.55 86.05 110.75 82.0 108.6 Q79.3 107.1 79.05 106.65 78.0 105.0 77.95 94.65 79.3 98.1 80.3 99.3 M83.55 116.0 L86.15 117.4 88.3 118.5 86.15 118.9 85.65 119.0 81.75 118.05 80.75 117.5 Q79.8 116.85 76.75 111.8 L76.9 111.95 83.55 116.0 M18.9 24.25 L18.7 24.35 18.8 24.35 18.9 24.25" fill="#a34e3f" fill-rule="evenodd" stroke="none"/>
    <path d="M90.6 22.3 L96.0 22.1 Q94.65 24.0 87.85 25.25 L80.55 26.15 80.25 26.15 80.4 26.45 Q81.0 27.95 82.7 31.25 L86.75 38.95 Q91.55 47.95 93.6 51.0 L94.2 51.85 Q92.6 51.65 89.05 50.25 86.05 49.1 83.8 48.0 L83.55 47.9 83.4 47.8 84.45 52.4 86.65 62.7 Q88.6 71.7 89.4 74.45 L89.35 74.45 Q86.45 72.9 85.15 71.85 L85.25 72.55 85.3 77.25 85.3 78.4 84.95 85.9 Q84.45 82.0 82.8 78.05 L82.75 77.95 81.6 81.8 Q79.45 88.5 79.45 91.8 79.45 96.0 80.3 99.3 80.95 101.9 82.05 103.65 83.15 105.35 85.6 107.3 88.0 109.25 93.65 109.7 L88.05 113.4 Q85.0 115.85 83.55 116.0 L86.15 117.4 88.3 118.5 86.15 118.9 85.65 119.0 84.1 119.1 81.75 118.85 Q79.1 118.2 76.55 116.2 75.45 115.3 73.8 114.7 72.0 114.1 71.6 114.7 71.55 108.95 72.3 105.8 73.4 100.95 74.15 99.25 78.35 82.95 78.8 80.25 L80.2 71.9 Q80.5 70.2 80.2 63.9 L80.1 62.3 Q79.75 56.6 79.15 53.1 L77.9 47.45 75.55 41.4 75.25 40.6 72.8 42.45 Q71.0 43.6 68.85 44.4 L65.6 45.35 64.3 45.6 56.95 46.2 52.65 46.0 52.4 46.0 50.25 45.9 50.4 45.85 51.15 45.55 55.0 43.45 55.5 43.1 Q59.25 40.8 59.65 40.8 L58.55 40.9 51.6 41.65 42.4 42.8 40.1 42.8 38.85 42.8 37.8 42.8 Q39.5 42.2 41.75 40.85 46.15 38.3 50.3 33.75 L50.55 33.45 53.1 30.75 53.15 30.65 56.95 26.5 59.65 23.65 59.9 23.4 Q57.7 22.3 54.9 21.45 51.2 20.3 49.55 20.55 L45.15 21.1 44.85 21.15 44.2 21.2 44.6 20.8 44.75 20.65 45.45 19.8 46.45 18.5 43.65 19.4 43.4 19.45 36.25 21.6 32.0 22.55 32.25 22.0 32.65 20.75 32.9 19.9 33.8 17.6 34.25 16.7 30.45 17.2 25.2 22.25 23.85 23.55 21.7 25.6 19.85 27.3 19.45 27.65 17.45 29.4 16.3 30.3 16.3 28.85 16.3 28.35 16.35 27.7 Q16.45 26.55 17.2 24.75 L17.35 24.4 M67.3 12.25 L68.6 13.05 79.35 19.85 Q81.05 20.9 83.55 21.5 L89.2 22.25 90.6 22.3 M3.55 37.65 L3.05 34.65 Q2.9 33.9 3.05 32.5 3.15 30.65 3.7 27.55 L3.75 27.25 4.85 22.45 5.7 19.85 Q6.15 18.6 6.7 17.65 7.7 15.95 9.45 13.45 L13.15 8.6 13.5 8.1 16.1 5.15 18.55 3.0 18.85 2.75 22.1 0.45 21.3 2.0 21.0 2.7 18.1 8.45 Q20.1 7.25 22.5 5.95 26.15 4.05 29.6 2.75 L30.6 2.35 Q36.1 0.4 41.0 0.05 L46.25 0.2 48.9 0.7 44.85 1.9 44.5 2.0 Q39.2 3.65 38.8 4.55 L41.0 4.55 42.0 4.55 44.3 4.55 Q50.45 4.5 56.7 4.8 58.65 4.9 62.4 6.15 L66.4 7.6 72.85 10.3 68.0 10.05 66.25 10.15 63.0 10.1 66.15 11.6 67.3 12.25 M17.8 23.45 L17.95 23.1 16.3 24.6 Q14.6 26.15 13.0 28.05 9.7 31.9 7.15 40.25 L5.8 45.1 Q4.95 43.3 3.9 39.2 L3.55 37.65" fill="none" stroke="#431309" stroke-linecap="round" stroke-linejoin="round" stroke-width="1"/>
    <path d="M94.2 51.85 L94.55 51.85" fill="none" stroke="#333333" stroke-linecap="round" stroke-linejoin="round" stroke-width="1"/>
    <path d="M71.6 114.7 L71.5 115.0 Q70.95 116.1 61.55 116.45 51.9 116.85 40.9 116.05 11.2 113.9 9.7 106.5 L8.4 101.05 5.0 89.6 Q0.0 72.55 0.0 59.0 0.0 56.0 0.55 50.6 1.1 45.55 3.55 37.65" fill="none" stroke="#000000" stroke-linecap="round" stroke-linejoin="round" stroke-width="1"/>
  </g>
  <defs>
    <linearGradient gradientTransform="matrix(-0.0283, -0.0129, 0.0269, -0.0589, 6.45, 58.25)" gradientUnits="userSpaceOnUse" id="gradient0" spreadMethod="pad" x1="-819.2" x2="819.2">
      <stop offset="0.0" stop-color="#3c3c3c"></stop>
      <stop offset="1.0" stop-color="#626262"></stop>
    </linearGradient>
  </defs>
</svg>