<?xml version="1.0" encoding="UTF-8" standalone="no"?>
<svg xmlns:xlink="http://www.w3.org/1999/xlink" height="54.35px" width="38.65px" xmlns="http://www.w3.org/2000/svg">
  <g transform="matrix(1.0, 0.0, 0.0, 1.0, 1, 10.5)">
    <path d="M33.15 8.8 L33.55 9.55 31.4 11.15 30.25 11.9 Q29.95 11.9 27.15 10.1 L23.65 7.65 Q23.85 7.35 26.05 6.35 28.3 5.4 28.6 5.5 L30.85 6.9 33.15 8.8" fill="#646464" fill-rule="evenodd" stroke="none"/>
    <path d="M0.1 1.15 L0.0 0.0 Q-0.25 -3.7 2.15 -6.25 4.5 -8.7 11.2 -9.45 17.9 -10.25 25.45 -2.1 L32.2 5.65 Q35.2 9.4 35.2 10.15 L35.2 10.35 33.85 13.15 29.1 21.65 Q28.55 22.9 28.8 23.8 29.05 24.9 30.6 25.8 34.1 27.9 35.7 31.65 37.65 36.1 35.7 40.9 29.75 44.85 22.85 40.9 L22.75 40.85 19.05 35.2 18.95 35.1 18.95 35.05 Q15.7 30.55 13.8 28.8 16.2 23.75 17.95 21.5 L21.55 16.7 Q21.55 16.15 16.3 10.8 15.2 9.65 8.0 5.55 L0.1 1.15 M33.15 8.8 L30.85 6.9 28.6 5.5 Q28.3 5.4 26.05 6.35 23.85 7.35 23.65 7.65 L27.15 10.1 Q29.95 11.9 30.25 11.9 L31.4 11.15 33.55 9.55 33.15 8.8" fill="url(#gradient0)" fill-rule="evenodd" stroke="none"/>
    <path d="M25.45 -2.1 L32.2 5.65 Q35.2 9.4 35.2 10.15 L35.2 10.35 33.85 13.15 29.1 21.65 Q28.55 22.9 28.8 23.8 29.05 24.9 30.6 25.8 34.1 27.9 35.7 31.65 37.65 36.1 35.7 40.9 29.75 44.85 22.85 40.9 L22.75 40.85 19.05 35.2 18.95 35.1 18.95 35.05 Q15.7 30.55 13.8 28.8 16.2 23.75 17.95 21.5 L21.55 16.7 Q21.55 16.15 16.3 10.8 15.2 9.65 8.0 5.55 L0.1 1.15" fill="none" stroke="#000000" stroke-linecap="round" stroke-linejoin="round" stroke-width="1"/>
  </g>
  <defs>
    <linearGradient gradientTransform="matrix(-0.0164, 0.0109, -0.0306, -0.0461, 6.7, 10.9)" gradientUnits="userSpaceOnUse" id="gradient0" spreadMethod="pad" x1="-819.2" x2="819.2">
      <stop offset="0.0" stop-color="#3c3c3c"></stop>
      <stop offset="1.0" stop-color="#313131"></stop>
    </linearGradient>
  </defs>
</svg>