<?xml version="1.0" encoding="UTF-8" standalone="no"?>
<svg xmlns:xlink="http://www.w3.org/1999/xlink" height="27.15px" width="15.65px" xmlns="http://www.w3.org/2000/svg">
  <g transform="matrix(1.0, 0.0, 0.0, 1.0, -14.55, 5.75)">
    <path d="M27.15 11.0 L26.25 12.95 25.3 13.95 23.15 10.95 Q22.8 12.3 21.8 13.7 20.05 16.2 18.7 16.1 18.0 16.15 17.65 13.95 17.15 11.15 18.7 7.9 20.3 4.7 23.6 4.4 26.95 4.1 27.2 7.05 27.4 10.05 27.15 11.0" fill="#5f5f5f" fill-rule="evenodd" stroke="none"/>
    <path d="M18.0 2.45 Q18.6 -1.35 20.55 -3.25 22.3 -4.95 24.5 -4.75 26.6 -4.55 27.95 -2.75 29.4 -0.8 29.15 2.05 28.85 12.35 27.4 14.3 25.8 16.6 24.15 17.85 L24.0 15.85 23.3 12.95 23.0 13.6 22.9 13.75 22.35 15.05 Q21.35 17.05 20.3 18.0 19.4 18.8 17.9 19.4 L15.55 20.4 Q15.9 15.4 18.0 2.45 M27.15 11.0 Q27.4 10.05 27.2 7.05 26.95 4.1 23.6 4.4 20.3 4.7 18.7 7.9 17.15 11.15 17.65 13.95 18.0 16.15 18.7 16.1 20.05 16.2 21.8 13.7 22.8 12.3 23.15 10.95 L25.3 13.95 26.25 12.95 27.15 11.0" fill="#3f3f3f" fill-rule="evenodd" stroke="none"/>
    <path d="M27.4 14.3 Q28.85 12.35 29.15 2.05" fill="none" stroke="#333333" stroke-linecap="round" stroke-linejoin="round" stroke-width="1"/>
    <path d="M18.0 2.45 Q15.9 15.4 15.55 20.4 L17.9 19.4 Q19.4 18.8 20.3 18.0 21.35 17.05 22.35 15.05 L22.9 13.75 23.0 13.6 23.3 12.95 24.0 15.85 24.15 17.85 Q25.8 16.6 27.4 14.3" fill="none" stroke="#000000" stroke-linecap="round" stroke-linejoin="round" stroke-width="1"/>
  </g>
</svg>