<?xml version="1.0" encoding="UTF-8" standalone="no"?>
<svg xmlns:xlink="http://www.w3.org/1999/xlink" height="25.05px" width="14.65px" xmlns="http://www.w3.org/2000/svg">
  <g transform="matrix(1.0, 0.0, 0.0, 1.0, 1, 6.45)">
    <path d="M0.0 0.6 Q-0.05 -1.45 1.35 -3.2 2.7 -4.85 4.6 -5.3 9.45 -6.4 10.4 0.95 12.35 12.95 12.65 17.6 L10.45 16.7 Q9.1 16.15 8.25 15.4 7.25 14.55 6.3 12.65 L5.8 11.45 5.75 11.3 5.45 10.7 Q5.0 11.95 4.8 13.4 4.55 14.8 4.65 15.25 3.15 14.1 1.6 11.95 0.3 10.15 0.0 0.6 M5.15 2.8 Q2.05 2.45 1.85 5.25 1.6 8.0 1.9 8.9 2.1 9.75 2.7 10.7 L3.6 11.65 5.1 9.45 5.6 8.85 Q5.9 10.1 6.85 11.4 8.45 13.75 9.7 13.65 10.4 13.7 10.7 11.65 11.2 9.05 9.7 6.0 8.25 3.05 5.15 2.8" fill="#444444" fill-rule="evenodd" stroke="none"/>
    <path d="M5.15 2.8 Q8.25 3.05 9.7 6.0 11.2 9.05 10.7 11.65 10.4 13.7 9.7 13.65 8.45 13.75 6.85 11.4 5.9 10.1 5.6 8.85 L5.1 9.45 3.6 11.65 2.7 10.7 Q2.1 9.75 1.9 8.9 1.6 8.0 1.85 5.25 2.05 2.45 5.15 2.8" fill="#5f5f5f" fill-rule="evenodd" stroke="none"/>
    <path d="M12.65 17.6 L10.45 16.7 Q9.1 16.15 8.25 15.4 7.25 14.55 6.3 12.65 L5.8 11.45 5.75 11.3 5.45 10.7 Q5.0 11.95 4.8 13.4 4.55 14.8 4.65 15.25 3.15 14.1 1.6 11.95 0.3 10.15 0.0 0.6" fill="none" stroke="#000000" stroke-linecap="round" stroke-linejoin="round" stroke-width="1"/>
  </g>
</svg>