<?xml version="1.0" encoding="UTF-8" standalone="no"?>
<svg xmlns:xlink="http://www.w3.org/1999/xlink" height="15.3px" width="25.5px" xmlns="http://www.w3.org/2000/svg">
  <g transform="matrix(1.0, 0.0, 0.0, 1.0, 1, 0.35)">
    <path d="M8.25 4.5 L8.8 4.65 10.2 5.0 16.2 5.3 23.45 5.45 Q23.8 11.95 19.6 13.95 L2.95 13.9 2.95 13.85 Q2.95 12.65 3.3 11.4 3.65 10.0 4.6 8.0 5.5 6.0 6.75 5.3 L8.25 4.5" fill="url(#gradient0)" fill-rule="evenodd" stroke="none"/>
    <path d="M19.15 1.05 Q20.1 1.15 21.55 2.25 23.0 3.35 23.45 5.45 L16.2 5.3 10.2 5.0 8.8 4.65 8.25 4.5 Q6.25 3.8 6.25 2.95 6.25 2.55 7.05 1.8 L8.8 1.25 12.9 0.8 16.65 0.7 19.15 1.05 M13.6 3.5 Q11.15 3.1 8.8 4.2 L8.25 4.5 8.8 4.2 Q11.15 3.1 13.6 3.5" fill="url(#gradient1)" fill-rule="evenodd" stroke="none"/>
    <path d="M7.05 1.8 Q6.25 2.55 6.25 2.95 6.25 3.8 8.25 4.5 L6.75 5.3 Q5.5 6.0 4.6 8.0 3.65 10.0 3.3 11.4 L0.0 11.4 Q1.1 4.45 6.5 2.0 L7.05 1.8" fill="url(#gradient2)" fill-rule="evenodd" stroke="none"/>
    <path d="M19.15 1.05 L16.65 0.7 12.9 0.8 8.8 1.25 7.05 1.8 6.5 2.0 Q1.1 4.45 0.0 11.4 L3.3 11.4 Q2.95 12.65 2.95 13.85 L2.95 13.9 19.6 13.95 M8.25 4.5 L8.8 4.2 Q11.15 3.1 13.6 3.5 M8.25 4.5 L6.75 5.3 Q5.5 6.0 4.6 8.0 3.65 10.0 3.3 11.4" fill="none" stroke="#000000" stroke-linecap="round" stroke-linejoin="round" stroke-width="1"/>
  </g>
  <defs>
    <linearGradient gradientTransform="matrix(-0.0164, 0.0109, -0.0306, -0.0461, 61.7, -1.1)" gradientUnits="userSpaceOnUse" id="gradient0" spreadMethod="pad" x1="-819.2" x2="819.2">
      <stop offset="0.0" stop-color="#3c3c3c"></stop>
      <stop offset="1.0" stop-color="#313131"></stop>
    </linearGradient>
    <linearGradient gradientTransform="matrix(-0.0399, -0.0191, 0.0339, -0.0708, 36.5, -48.8)" gradientUnits="userSpaceOnUse" id="gradient1" spreadMethod="pad" x1="-819.2" x2="819.2">
      <stop offset="0.0" stop-color="#3c3c3c"></stop>
      <stop offset="1.0" stop-color="#626262"></stop>
    </linearGradient>
    <linearGradient gradientTransform="matrix(-0.0399, -0.0191, 0.0339, -0.0708, 36.5, -48.8)" gradientUnits="userSpaceOnUse" id="gradient2" spreadMethod="pad" x1="-819.2" x2="819.2">
      <stop offset="0.0" stop-color="#3c3c3c"></stop>
      <stop offset="1.0" stop-color="#313131"></stop>
    </linearGradient>
  </defs>
</svg>