<?xml version="1.0" encoding="UTF-8" standalone="no"?>
<svg xmlns:xlink="http://www.w3.org/1999/xlink" height="9.2px" width="10.9px" xmlns="http://www.w3.org/2000/svg">
  <g transform="matrix(1.0, 0.0, 0.0, 1.0, 5.55, 4.65)">
    <path d="M3.95 -1.5 L4.15 -1.2 4.2 -1.0 4.35 0.15 Q4.3 0.65 3.85 0.85 3.45 1.1 3.1 1.45 L1.55 2.55 Q0.5 3.4 -1.0 3.55 L-2.9 2.9 -3.75 2.3 -4.1 1.85 -4.25 1.6 -3.85 1.55 -3.55 1.55 -3.1 1.0 -2.15 0.45 -3.0 1.2 -3.15 1.55 -2.8 1.45 -0.95 0.55 -1.65 1.3 -1.7 1.45 0.9 0.2 1.7 -0.75 1.2 0.65 Q2.15 0.5 3.2 -0.2 3.95 -0.75 4.0 -1.2 L3.95 -1.5 M2.15 -1.6 L2.1 -1.35 1.75 -1.05 1.7 -1.15 1.95 -1.45 2.1 -1.55 2.15 -1.6 M1.0 -1.1 L0.65 -0.45 0.75 -0.25 0.55 -0.15 0.35 -0.3 0.55 -0.75 0.9 -1.15 1.0 -1.1 M2.05 -0.45 L2.4 -1.0 2.6 -1.2 2.7 -1.3 2.8 -1.2 2.15 -0.45 2.05 -0.45 M3.6 -1.2 L3.15 -0.7 3.05 -0.7 3.2 -1.05 3.4 -1.2 3.6 -1.2 M-2.75 -1.25 Q-2.75 -1.7 -1.9 -1.85 L-1.9 -1.75 -2.65 -1.25 -2.75 -1.25 M-0.25 -2.2 L0.5 -2.6 Q0.4 -2.2 -0.05 -1.95 L-0.5 -1.65 -0.75 -1.45 -0.85 -1.45 -0.9 -1.6 -0.25 -2.2 M-0.35 -0.65 L-0.5 -0.15 Q-0.55 0.1 -0.9 0.05 L-0.95 0.0 Q-1.0 -0.4 -0.65 -0.65 L-0.05 -0.9 -0.35 -0.65 M-3.1 0.3 Q-2.75 -0.55 -2.3 -0.65 -2.4 -0.15 -3.05 0.3 L-3.1 0.3" fill="#d6baba" fill-rule="evenodd" stroke="none"/>
    <path d="M-3.2 -0.8 L-3.2 -0.75 -3.25 -0.4 -3.25 -0.15 -3.3 -0.35 -3.3 -0.4 -3.25 -0.75 -3.25 -0.85 -3.2 -0.8" fill="#faf8f8" fill-rule="evenodd" stroke="none"/>
    <path d="M-2.15 -1.9 L0.05 -3.65 -0.6 -2.4 0.65 -3.25 1.6 -3.65 1.0 -2.55 2.5 -3.1 Q1.55 -1.95 2.0 -1.95 L2.1 -1.95 2.7 -2.0 2.9 -2.2 Q3.25 -2.4 3.0 -1.9 L3.2 -1.85 4.05 -1.9 3.65 -1.7 3.9 -1.65 3.95 -1.5 4.0 -1.2 Q3.95 -0.75 3.2 -0.2 2.15 0.5 1.2 0.65 L1.7 -0.75 0.9 0.2 -1.7 1.45 -1.65 1.3 -0.95 0.55 -2.8 1.45 -3.15 1.55 -3.0 1.2 -2.15 0.45 -3.1 1.0 -3.55 1.55 -3.85 1.55 -4.25 1.6 -4.55 1.15 -4.2 0.05 -4.05 -0.3 -4.0 -0.35 -3.8 -0.7 -3.4 -1.4 -3.2 -1.65 -2.15 -1.9 M2.15 -1.6 L2.1 -1.55 1.95 -1.45 1.7 -1.15 1.75 -1.05 2.1 -1.35 2.15 -1.6 M0.75 -1.65 L1.0 -2.55 0.75 -1.65 M3.6 -1.2 L3.4 -1.2 3.2 -1.05 3.05 -0.7 3.15 -0.7 3.6 -1.2 M2.05 -0.45 L2.15 -0.45 2.8 -1.2 2.7 -1.3 2.6 -1.2 2.4 -1.0 2.05 -0.45 M1.0 -1.1 L0.9 -1.15 0.55 -0.75 0.35 -0.3 0.55 -0.15 0.75 -0.25 0.65 -0.45 1.0 -1.1 M-2.75 -1.25 L-2.65 -1.25 -1.9 -1.75 -1.9 -1.85 Q-2.75 -1.7 -2.75 -1.25 M-3.2 -0.8 L-3.25 -0.85 -3.25 -0.75 -3.3 -0.4 -3.3 -0.35 -3.25 -0.15 -3.25 -0.4 -3.2 -0.75 -3.2 -0.8 M-3.1 0.3 L-3.05 0.3 Q-2.4 -0.15 -2.3 -0.65 -2.75 -0.55 -3.1 0.3 M-0.35 -0.65 L-0.05 -0.9 -0.65 -0.65 Q-1.0 -0.4 -0.95 0.0 L-0.9 0.05 Q-0.55 0.1 -0.5 -0.15 L-0.35 -0.65 M-0.25 -2.2 L-0.9 -1.6 -0.85 -1.45 -0.75 -1.45 -0.5 -1.65 -0.05 -1.95 Q0.4 -2.2 0.5 -2.6 L-0.25 -2.2" fill="url(#gradient0)" fill-rule="evenodd" stroke="none"/>
    <path d="M-4.0 -0.35 L-3.95 -1.2 -3.9 -1.2 -3.8 -0.7 -4.0 -0.35 M-3.2 -1.65 L-2.6 -2.5 -1.8 -3.5 -1.75 -3.45 -2.15 -1.9 -3.2 -1.65" fill="#fee7f3" fill-rule="evenodd" stroke="none"/>
    <path d="M-2.15 -1.9 L0.05 -3.65 -0.6 -2.4 0.65 -3.25 1.6 -3.65 1.0 -2.55 2.5 -3.1 M2.7 -2.0 L2.9 -2.2 Q3.25 -2.4 3.0 -1.9 M3.2 -1.85 L4.05 -1.9 3.65 -1.7 M3.85 0.85 Q3.45 1.1 3.1 1.45 L1.55 2.55 Q0.5 3.4 -1.0 3.55 L-2.9 2.9 -3.75 2.3 -4.1 1.85 -4.25 1.6 -4.55 1.15 -4.2 0.05 -4.05 -0.3 -4.0 -0.35 -3.95 -1.2 -3.95 -1.25 -3.9 -1.2 -3.8 -0.7 -3.4 -1.4 -3.2 -1.65 -2.6 -2.5 -1.8 -3.5 -1.75 -3.5 -1.75 -3.45 -2.15 -1.9 -3.2 -1.65 M1.0 -2.55 L0.75 -1.65 M-4.0 -0.35 L-3.8 -0.7 M-3.2 -0.8 L-3.2 -0.75 -3.25 -0.4 -3.25 -0.15 -3.3 -0.35 -3.3 -0.4 -3.25 -0.75 -3.25 -0.85 -3.2 -0.8 Z" fill="none" stroke="#660000" stroke-linecap="round" stroke-linejoin="round" stroke-opacity="0.4" stroke-width="1"/>
    <path d="M1.1 -0.9 L1.05 -0.85 1.1 -0.9" fill="#ffffff" fill-rule="evenodd" stroke="none"/>
    <path d="M0.6 -0.5 L1.05 -0.85 1.1 -0.85 1.5 -1.25 1.55 -0.8 1.65 -0.75 2.8 -1.15 Q2.35 -0.6 1.5 -0.4 L0.6 -0.5 M0.1 -0.95 L0.2 -0.85 -0.5 -0.6 -0.65 -0.6 -0.55 -0.8 0.5 -1.8 0.1 -0.95 M-2.4 -0.75 L-2.35 -0.8 -1.5 -1.45 -1.8 -0.5 -1.8 -0.45 -1.85 -0.45 -2.55 -0.6 -2.4 -0.75" fill="#fee7f3" fill-rule="evenodd" stroke="none"/>
    <path d="M1.1 -0.9 L1.05 -0.85 0.6 -0.5 M2.8 -1.15 L1.65 -0.75 1.55 -0.8 1.5 -1.25 1.1 -0.85 1.05 -0.85 M-0.55 -0.8 L0.5 -1.8 0.1 -0.95 M-2.4 -0.75 L-2.35 -0.8 -1.5 -1.45 -1.8 -0.5 -1.8 -0.45" fill="none" stroke="#660000" stroke-linecap="round" stroke-linejoin="round" stroke-opacity="0.4" stroke-width="1"/>
    <path d="M-2.9 -0.15 L-3.05 -0.1 -3.4 0.1 -3.4 -0.05 -3.4 -0.15 -3.35 -0.9 -3.4 -1.2 -3.15 -0.8 -3.0 -0.4 -2.9 -0.15" fill="#fee7f3" fill-rule="evenodd" stroke="none"/>
    <path d="M-3.4 0.1 L-3.4 -0.05 -3.4 -0.15 -3.35 -0.9 -3.4 -1.2 -3.15 -0.8 -3.0 -0.4 -2.9 -0.15" fill="none" stroke="#660000" stroke-linecap="round" stroke-linejoin="round" stroke-opacity="0.4" stroke-width="1"/>
  </g>
  <defs>
    <radialGradient cx="0" cy="0" gradientTransform="matrix(0.0075, 0.0, 0.0, 0.0075, -1.45, -1.5)" gradientUnits="userSpaceOnUse" id="gradient0" r="819.2" spreadMethod="pad">
      <stop offset="0.2549019607843137" stop-color="#fee7f3"></stop>
      <stop offset="1.0" stop-color="#d6baba"></stop>
    </radialGradient>
  </defs>
</svg>