<?xml version="1.0" encoding="UTF-8" standalone="no"?>
<svg xmlns:xlink="http://www.w3.org/1999/xlink" height="10.65px" width="7.95px" xmlns="http://www.w3.org/2000/svg">
  <g transform="matrix(1.0, 0.0, 0.0, 1.0, 4.4, 4.8)">
    <path d="M0.1 -1.55 L-0.3 -1.6 -0.35 -1.8 -0.3 -1.9 0.0 -1.95 Q0.45 -1.95 0.95 -1.45 0.85 -1.3 0.75 -1.3 L0.4 -1.35 0.1 -1.55 M-2.5 2.5 Q-3.0 2.05 -2.4 2.3 -1.45 2.85 -0.4 2.3 L-0.3 2.05 Q0.0 1.6 -0.1 1.15 -1.1 1.1 -1.35 0.4 L-0.6 0.45 -0.15 0.6 -0.05 0.6 -0.05 0.25 0.0 -0.1 -0.25 -0.05 -0.8 -0.3 Q-1.3 -0.55 -1.45 -0.75 L-1.35 -0.9 -0.8 -0.85 0.0 -0.6 0.35 -0.65 0.6 -0.95 Q1.1 -1.4 2.15 -1.45 L2.55 -1.45 2.45 -1.05 2.05 0.3 2.05 0.35 1.75 1.4 1.7 1.5 1.85 1.95 2.15 2.5 1.65 2.25 1.65 2.9 1.75 3.3 1.75 3.55 1.7 4.05 1.3 4.25 0.7 4.85 0.8 4.35 0.75 4.35 0.35 4.25 0.25 4.3 Q-0.25 5.1 -0.25 4.15 L-0.75 4.0 -0.75 4.15 -1.15 3.75 -1.35 3.65 Q-1.4 3.55 -1.5 3.55 L-1.65 3.45 -1.95 4.2 -2.3 2.9 -2.4 2.7 -2.5 2.5 M1.7 1.5 L1.65 2.2 1.65 2.25 1.65 2.2 1.7 1.5" fill="#d6baba" fill-rule="evenodd" stroke="none"/>
    <path d="M2.55 -1.45 L2.15 -1.45 Q1.1 -1.4 0.6 -0.95 L0.35 -0.65 0.0 -0.6 -0.8 -0.85 -1.35 -0.9 -1.45 -0.75 Q-1.3 -0.55 -0.8 -0.3 L-0.25 -0.05 0.0 -0.1 -0.05 0.25 -0.05 0.6 -0.15 0.6 -0.6 0.45 -1.35 0.4 Q-1.1 1.1 -0.1 1.15 0.0 1.6 -0.3 2.05 L-0.4 2.3 Q-1.45 2.85 -2.4 2.3 -3.0 2.05 -2.5 2.5 L-2.9 3.25 Q-2.85 2.1 -3.1 1.15 L-3.25 0.9 -3.35 1.0 -3.3 0.55 -3.25 0.35 -3.3 -0.1 -3.4 -1.4 -2.6 -2.95 Q-2.3 -2.5 -2.05 -2.6 -1.75 -2.8 -1.15 -3.8 -0.6 -3.25 0.6 -3.6 0.9 -3.1 1.45 -2.9 L1.65 -2.85 Q2.6 -1.9 2.55 -1.45 M0.1 -1.55 L0.4 -1.35 0.75 -1.3 Q0.85 -1.3 0.95 -1.45 0.45 -1.95 0.0 -1.95 L-0.3 -1.9 -0.35 -1.8 -0.3 -1.6 0.1 -1.55" fill="url(#gradient0)" fill-rule="evenodd" stroke="none"/>
    <path d="M2.55 -1.45 Q2.6 -1.9 1.65 -2.85 L1.45 -2.9 M-3.4 -1.4 L-3.3 -0.1 -3.25 0.35 -3.3 0.55 -3.35 1.0 -3.25 0.9 -3.1 1.15 Q-2.85 2.1 -2.9 3.25 L-2.5 2.5 -2.4 2.7 M-2.3 2.9 L-1.95 4.2 -1.65 3.45 M-1.5 3.55 Q-1.4 3.55 -1.35 3.65 L-1.15 3.75 -0.75 4.15 -0.75 4.0 M-0.25 4.15 Q-0.25 5.1 0.25 4.3 L0.35 4.25 M0.75 4.35 L0.8 4.35 0.7 4.85 1.3 4.25 1.7 4.05 M1.75 3.3 L1.65 2.9 1.65 2.25 1.65 2.2 1.7 1.5 1.75 1.4 2.05 0.35 2.05 0.3 2.45 -1.05 2.55 -1.45 M1.7 1.5 L1.85 1.95 2.15 2.5 1.65 2.25" fill="none" stroke="#660000" stroke-linecap="round" stroke-linejoin="round" stroke-opacity="0.4" stroke-width="1"/>
  </g>
  <defs>
    <radialGradient cx="0" cy="0" gradientTransform="matrix(0.0049, 0.0, 0.0, 0.0049, -1.35, -1.7)" gradientUnits="userSpaceOnUse" id="gradient0" r="819.2" spreadMethod="pad">
      <stop offset="0.2549019607843137" stop-color="#ffe6e6"></stop>
      <stop offset="1.0" stop-color="#d6baba"></stop>
    </radialGradient>
  </defs>
</svg>