<?xml version="1.0" encoding="UTF-8" standalone="no"?>
<svg xmlns:xlink="http://www.w3.org/1999/xlink" height="7.65px" width="10.9px" xmlns="http://www.w3.org/2000/svg">
  <g transform="matrix(1.0, 0.0, 0.0, 1.0, 5.85, 4.15)">
    <path d="M0.55 -0.45 L-0.2 -0.1 Q-0.95 0.3 -0.9 0.65 L-0.7 0.75 1.25 -0.55 1.15 -0.6 0.55 -0.45 -1.25 0.05 -1.45 1.0 -1.25 0.05 0.55 -0.45 M-3.7 0.25 L-4.85 0.2 -4.4 -0.9 -3.85 -1.8 -2.9 -2.7 3.0 -3.15 3.8 -2.6 4.05 -1.05 3.95 -0.6 3.8 -0.2 -1.85 2.5 -1.45 1.0 -4.1 2.0 -3.7 0.25 -3.5 -0.5 -2.95 -0.7 -3.5 -0.5 -3.7 0.25 M-1.9 -1.15 L-2.6 -0.9 -2.95 -0.7 Q-3.55 -0.35 -3.55 0.15 L-3.25 0.45 -2.7 0.0 -2.2 -0.6 -0.7 -1.65 -1.8 -1.2 -1.9 -1.15 M-1.45 -2.5 L-3.0 -2.15 Q-4.1 -1.65 -4.1 -1.1 L-3.8 -0.9 -1.4 -2.45 -1.4 -2.5 -1.45 -2.5" fill="#d6baba" fill-rule="evenodd" stroke="none"/>
    <path d="M-2.95 -0.7 L-2.6 -0.9 -1.9 -1.15 -2.95 -0.7 M-1.45 -2.5 L-1.4 -2.5 -1.4 -2.45 -1.45 -2.5" fill="#faf8f8" fill-rule="evenodd" stroke="none"/>
    <path d="M0.55 -0.45 L1.15 -0.6 1.25 -0.55 -0.7 0.75 -0.9 0.65 Q-0.95 0.3 -0.2 -0.1 L0.55 -0.45 M-1.9 -1.15 L-1.8 -1.2 -0.7 -1.65 -2.2 -0.6 -2.7 0.0 -3.25 0.45 -3.55 0.15 Q-3.55 -0.35 -2.95 -0.7 L-1.9 -1.15 M-1.4 -2.45 L-3.8 -0.9 -4.1 -1.1 Q-4.1 -1.65 -3.0 -2.15 L-1.45 -2.5 -1.4 -2.45" fill="#FFE6E6" fill-rule="evenodd" stroke="none"/>
    <path d="M0.55 -0.45 L-1.25 0.05 -1.45 1.0 -1.85 2.5 3.8 -0.2 3.95 -0.6 4.05 -1.05 3.8 -2.6 3.0 -3.15 -2.9 -2.7 -3.85 -1.8 -4.4 -0.9 -4.85 0.2 -3.7 0.25 -3.5 -0.5 -2.95 -0.7 -1.9 -1.15 -1.8 -1.2 M-3.7 0.25 L-4.1 2.0 -1.45 1.0" fill="none" stroke="#660000" stroke-linecap="round" stroke-linejoin="round" stroke-opacity="0.4" stroke-width="0.4"/>
  </g>
</svg>