<?xml version="1.0" encoding="UTF-8" standalone="no"?>
<svg xmlns:xlink="http://www.w3.org/1999/xlink" height="28.75px" width="18.4px" xmlns="http://www.w3.org/2000/svg">
  <g transform="matrix(1.0, 0.0, 0.0, 1.0, 7.3, 17.3)">
    <path d="M4.8 -13.25 L4.45 -13.35 1.1 -13.75 0.35 -13.55 1.1 -13.75 4.45 -13.35 4.8 -13.25 4.85 -12.95 5.05 -11.95 Q5.1 -11.4 4.6 -10.85 L3.85 -9.45 3.45 -8.45 3.5 -8.45 Q2.45 -6.35 0.9 -4.85 L0.4 -4.4 -0.85 -3.2 -0.9 -3.15 Q-0.95 -2.75 -0.15 -2.05 L-1.25 -0.9 -2.1 -0.05 -2.65 -0.4 Q-3.8 -1.35 -3.8 -3.45 L-3.8 -3.5 -3.7 -3.9 -3.4 -6.45 -2.8 -9.7 -2.75 -9.75 -1.3 -13.0 -1.4 -14.3 -1.65 -15.05 -1.5 -15.3 -0.9 -15.55 Q2.1 -17.0 6.1 -15.55 L6.25 -15.5 Q6.8 -15.1 6.65 -14.05 6.15 -13.25 5.3 -13.05 L5.25 -13.05 4.8 -13.25 M-2.85 -5.7 Q-2.45 -4.6 -1.0 -3.25 L-0.9 -3.15 -1.0 -3.25 Q-2.45 -4.6 -2.85 -5.7" fill="#ffffff" fill-rule="evenodd" stroke="none"/>
    <path d="M4.8 -13.25 L5.25 -13.05 5.3 -13.05 Q6.15 -13.25 6.65 -14.05 6.8 -15.1 6.25 -15.5 L8.95 -13.35 Q10.3 -11.7 10.05 -10.7 9.85 -9.65 9.05 -9.15 8.1 -8.7 7.15 -7.7 L6.35 -6.3 4.55 -2.35 Q3.65 -0.3 3.4 1.25 L0.8 0.95 -1.6 0.2 -1.9 0.1 -2.1 -0.05 -1.25 -0.9 -0.15 -2.05 Q-0.95 -2.75 -0.9 -3.15 L-0.85 -3.2 0.4 -4.4 0.9 -4.85 Q2.45 -6.35 3.5 -8.45 L3.45 -8.45 3.85 -9.45 4.6 -10.85 Q5.1 -11.4 5.05 -11.95 L4.85 -12.95 4.8 -13.25 M7.7 -10.1 L7.65 -10.65 Q7.1 -12.1 5.65 -12.8 L5.25 -13.05 5.65 -12.8 Q7.1 -12.1 7.65 -10.65 L7.7 -10.1 M3.0 -1.4 Q1.65 -1.45 0.45 -2.2 L-0.9 -3.15 0.45 -2.2 Q1.65 -1.45 3.0 -1.4" fill="#d6baba" fill-rule="evenodd" stroke="none"/>
    <path d="M0.35 -13.55 L1.1 -13.75 4.45 -13.35 4.8 -13.25 5.25 -13.05 5.65 -12.8 Q7.1 -12.1 7.65 -10.65 L7.7 -10.1 M6.25 -15.5 L6.1 -15.55 Q2.1 -17.0 -0.9 -15.55 L-1.5 -15.3 -1.65 -15.05 -1.4 -14.3 -1.3 -13.0 -2.75 -9.75 -2.8 -9.7 -3.4 -6.45 -3.7 -3.9 -3.8 -3.5 -3.8 -3.45 Q-3.8 -1.35 -2.65 -0.4 L-2.1 -0.05 M-0.9 -3.15 L-1.0 -3.25 Q-2.45 -4.6 -2.85 -5.7 M-0.9 -3.15 L0.45 -2.2 Q1.65 -1.45 3.0 -1.4 M-1.9 0.1 L-1.6 0.2 0.8 0.95 3.4 1.25 Q3.65 -0.3 4.55 -2.35 L6.35 -6.3 7.15 -7.7 Q8.1 -8.7 9.05 -9.15 9.85 -9.65 10.05 -10.7 10.3 -11.7 8.95 -13.35 L6.25 -15.5" fill="none" stroke="#660000" stroke-linecap="round" stroke-linejoin="round" stroke-opacity="0.49803922" stroke-width="1"/>
    <path d="M0.6 -3.7 L0.7 -3.25 Q0.7 -2.5 0.0 -2.15 L-0.75 -1.65 -0.65 -1.5 -0.95 -1.6 -4.85 -2.95 -5.3 -2.95 -4.85 -2.95 -0.95 -1.6 -0.65 -1.5 -0.05 -1.0 0.65 -0.4 -0.3 3.15 Q-0.5 3.95 -1.45 5.4 L-2.35 6.85 -2.35 6.9 Q-2.3 7.3 -1.35 7.8 L-2.15 9.2 -2.75 10.25 -3.4 10.05 Q-4.75 9.45 -5.25 7.45 L-5.3 7.35 -5.3 6.9 -5.65 4.45 -5.85 1.1 Q-5.85 -0.65 -5.3 -2.95 L-5.2 -3.3 -5.8 -3.75 -6.3 -4.3 Q-6.3 -5.15 -5.2 -5.15 -3.9 -5.15 0.6 -3.7 M-4.95 4.95 Q-4.25 5.9 -2.5 6.8 L-2.35 6.9 -2.5 6.8 Q-4.25 5.9 -4.95 4.95" fill="#ffffff" fill-rule="evenodd" stroke="none"/>
    <path d="M3.95 -1.1 L1.5 -1.05 0.95 -1.15 0.7 -1.2 -0.65 -1.5 0.7 -1.2 0.95 -1.15 1.5 -1.05 3.95 -1.1 M-0.65 -1.5 L-0.75 -1.65 0.0 -2.15 Q0.7 -2.5 0.7 -3.25 L0.6 -3.7 0.95 -3.6 1.15 -3.55 3.7 -3.05 Q6.25 -2.45 6.25 -1.7 6.25 -0.75 5.45 -0.35 4.4 0.15 4.25 0.45 3.85 1.15 3.05 6.35 2.7 8.55 2.9 10.05 2.8 10.45 0.3 10.45 L-2.2 10.35 -2.55 10.3 -2.75 10.25 -2.15 9.2 -1.35 7.8 Q-2.3 7.3 -2.35 6.9 L-2.35 6.85 -1.45 5.4 Q-0.5 3.95 -0.3 3.15 L0.65 -0.4 -0.05 -1.0 -0.65 -1.5 M1.85 7.6 L-0.85 7.5 -2.35 6.9 -0.85 7.5 1.85 7.6" fill="#d6baba" fill-rule="evenodd" stroke="none"/>
    <path d="M-0.65 -1.5 L0.7 -1.2 0.95 -1.15 1.5 -1.05 3.95 -1.1 M-0.65 -1.5 L-0.95 -1.6 -4.85 -2.95 -5.3 -2.95 Q-5.85 -0.65 -5.85 1.1 L-5.65 4.45 -5.3 6.9 -5.3 7.35 -5.25 7.45 Q-4.75 9.45 -3.4 10.05 L-2.75 10.25 M-2.35 6.9 L-2.5 6.8 Q-4.25 5.9 -4.95 4.95 M0.6 -3.7 L0.95 -3.6 1.15 -3.55 3.7 -3.05 Q6.25 -2.45 6.25 -1.7 6.25 -0.75 5.45 -0.35 4.4 0.15 4.25 0.45 3.85 1.15 3.05 6.35 2.7 8.55 2.9 10.05 2.8 10.45 0.3 10.45 L-2.2 10.35 -2.55 10.3 M-5.3 -2.95 L-5.2 -3.3 -5.8 -3.75 -6.3 -4.3 Q-6.3 -5.15 -5.2 -5.15 -3.9 -5.15 0.6 -3.7 M-2.35 6.9 L-0.85 7.5 1.85 7.6" fill="none" stroke="#660000" stroke-linecap="round" stroke-linejoin="round" stroke-opacity="0.49803922" stroke-width="1"/>
  </g>
</svg>