<?xml version="1.0" encoding="UTF-8" standalone="no"?>
<svg xmlns:xlink="http://www.w3.org/1999/xlink" height="13.35px" width="3.85px" xmlns="http://www.w3.org/2000/svg">
  <g transform="matrix(1.0, 0.0, 0.0, 1.0, 5.35, 5)">
    <path d="M-2.95 -3.1 Q-3.95 -3.1 -4.0 -3.7 -4.0 -4.4 -2.5 -3.35 L-2.95 -3.1 M-3.55 -0.2 L-3.15 0.3 Q-3.15 0.6 -3.3 0.7 L-3.9 1.1 -3.95 1.05 -3.55 0.5 -3.8 0.2 -4.1 -0.15 Q-4.1 -0.95 -3.7 -1.3 -3.35 -1.65 -3.35 -1.05 L-3.55 -0.2 M-4.1 2.05 L-3.65 2.25 -3.65 2.5 -3.8 3.05 -4.0 3.5 -4.25 3.05 -4.05 2.4 -4.15 2.15 -4.1 2.05 M-3.55 7.35 L-4.35 6.9 Q-4.4 6.5 -4.0 6.7 L-3.4 7.2 -3.55 7.35" fill="#ffffff" fill-rule="evenodd" stroke="none"/>
  </g>
</svg>