<?xml version="1.0" encoding="UTF-8" standalone="no"?>
<svg xmlns:xlink="http://www.w3.org/1999/xlink" height="8.5px" width="8.7px" xmlns="http://www.w3.org/2000/svg">
  <g transform="matrix(1.0, 0.0, 0.0, 1.0, 4.55, 4.45)">
    <path d="M0.1 -1.7 L0.5 -0.85 Q0.6 -0.25 0.1 0.55 -0.45 1.5 -1.4 1.5 -1.7 1.5 -2.05 1.15 -2.5 0.7 -2.65 -0.15 -2.8 -1.05 -2.4 -1.55 L-1.95 -1.8 -0.75 -2.1 Q-0.25 -2.1 0.1 -1.7" fill="#009900" fill-rule="evenodd" stroke="none"/>
    <path d="M0.65 -3.45 Q1.55 -3.45 2.2 -2.9 2.95 -2.2 3.15 -0.9 3.3 0.1 2.5 1.35 1.4 3.05 -0.65 3.05 -1.5 3.05 -2.35 2.25 -3.3 1.4 -3.5 0.2 -3.8 -1.7 -2.1 -2.7 L-0.95 -3.25 0.65 -3.45 M0.1 -1.7 Q-0.25 -2.1 -0.75 -2.1 L-1.95 -1.8 -2.4 -1.55 Q-2.8 -1.05 -2.65 -0.15 -2.5 0.7 -2.05 1.15 -1.7 1.5 -1.4 1.5 -0.45 1.5 0.1 0.55 0.6 -0.25 0.5 -0.85 L0.1 -1.7" fill="#ffffff" fill-rule="evenodd" stroke="none"/>
    <path d="M0.65 -3.45 L-0.95 -3.25 -2.1 -2.7 Q-3.8 -1.7 -3.5 0.2 -3.3 1.4 -2.35 2.25 -1.5 3.05 -0.65 3.05 1.4 3.05 2.5 1.35 3.3 0.1 3.15 -0.9 2.95 -2.2 2.2 -2.9 1.55 -3.45 0.65 -3.45 M0.1 -1.7 Q-0.25 -2.1 -0.75 -2.1 L-1.95 -1.8 -2.4 -1.55 Q-2.8 -1.05 -2.65 -0.15 -2.5 0.7 -2.05 1.15 -1.7 1.5 -1.4 1.5 -0.45 1.5 0.1 0.55 0.6 -0.25 0.5 -0.85 L0.1 -1.7 Z" fill="none" stroke="#660000" stroke-linecap="round" stroke-linejoin="round" stroke-opacity="0.49803922" stroke-width="1"/>
  </g>
</svg>