<?xml version="1.0" encoding="UTF-8" standalone="no"?>
<svg xmlns:xlink="http://www.w3.org/1999/xlink" height="9.15px" width="7.55px" xmlns="http://www.w3.org/2000/svg">
  <g id="shape0" transform="matrix(1.0, 0.0, 0.0, 1.0, 1, 1)">
    <path d="M5.55 2.15 L5.0 2.3 4.75 2.4 3.6 2.55 2.85 2.4 0.85 1.45 0.65 1.35 0.4 1.2 0.0 1.25 0.7 0.0 Q1.1 0.5 2.15 0.95 L3.15 1.25 4.0 1.35 4.6 1.3 5.3 1.15 5.55 2.15 M2.4 4.15 Q1.05 4.0 0.45 3.25 L0.7 2.25 Q1.35 3.15 2.65 3.2 L2.75 3.2 3.45 3.3 4.25 3.2 4.85 3.0 4.4 4.1 3.95 4.2 3.55 4.25 3.05 4.15 2.4 4.15 M0.05 5.8 L0.3 5.05 Q0.7 4.7 1.35 4.7 L2.2 4.9 3.35 5.8 4.0 6.7 3.1 7.15 2.25 6.3 1.9 6.05 Q1.25 5.65 0.65 5.65 L0.05 5.8" fill="#d6baba" fill-rule="evenodd" stroke="none"/>
  </g>
</svg>