<?xml version="1.0" encoding="UTF-8" standalone="no"?>
<svg xmlns:xlink="http://www.w3.org/1999/xlink" height="11.6px" width="8.3px" xmlns="http://www.w3.org/2000/svg">
  <g id="shape0" transform="matrix(1.0, 0.0, 0.0, 1.0, 4.15, 5.85)">
    <path d="M1.35 -4.8 L1.05 -4.4 1.05 -3.35 0.05 -3.6 0.2 -2.55 -0.45 -2.25 -0.35 -1.75 -1.45 -1.25 -1.95 -1.35 -2.15 -0.9 -2.15 -1.75 -2.2 -1.7 -2.95 -1.6 -1.9 -3.35 -3.05 -2.9 -1.9 -4.1 -1.7 -4.2 -1.7 -4.25 -2.4 -4.4 -2.35 -4.4 0.1 -4.8 0.95 -4.55 1.05 -4.8 1.35 -4.8 M-2.5 2.0 L-2.35 2.0 -2.0 1.85 -0.65 1.7 Q0.4 1.7 0.4 2.15 L0.45 2.65 Q0.45 3.85 -1.1 3.85 L-2.95 3.2 -3.0 3.25 -2.5 2.0 M1.3 1.7 L1.25 1.65 1.3 1.65 1.3 1.7" fill="#faf8f8" fill-rule="evenodd" stroke="none"/>
    <path d="M-2.15 -0.9 L-1.95 -1.35 -1.45 -1.25 -0.35 -1.75 -0.45 -2.25 0.2 -2.55 0.05 -3.6 1.05 -3.35 1.05 -4.4 1.35 -4.8 1.55 -4.25 Q1.7 -4.05 1.95 -4.05 L2.3 -3.85 Q2.45 -3.8 2.55 -3.7 L3.15 -1.75 2.25 -2.15 2.2 -2.15 2.2 -2.1 2.35 -1.8 2.5 -0.1 2.2 -0.6 2.1 -0.2 1.95 0.15 1.3 1.65 1.25 1.65 1.3 1.7 1.25 2.05 1.25 2.7 1.15 3.8 1.1 3.9 1.0 3.95 0.95 3.95 -1.1 4.75 -2.6 4.25 -3.15 3.9 -3.0 3.25 -2.95 3.2 -1.1 3.85 Q0.45 3.85 0.45 2.65 L0.4 2.15 Q0.4 1.7 -0.65 1.7 L-2.0 1.85 -2.35 2.0 -2.5 2.0 -2.4 1.8 -2.45 0.95 -2.25 -0.45 -2.15 -0.9 M2.2 -0.6 L1.9 -1.15 2.1 -0.2 1.9 -1.15 2.2 -0.6" fill="#d6baba" fill-rule="evenodd" stroke="none"/>
    <path d="M0.1 -4.8 L-2.35 -4.4 -2.4 -4.4 -1.7 -4.25 -1.7 -4.2 -1.9 -4.1 -3.05 -2.9 -1.9 -3.35 -2.95 -1.6 -2.2 -1.7 -2.15 -1.75 -2.15 -0.9 -2.25 -0.45 -2.45 0.95 -2.4 1.8 -2.5 2.0 -3.0 3.25 -3.15 3.9 -2.6 4.25 -1.1 4.75 0.95 3.95 1.0 3.95 1.1 3.9 1.15 3.8 1.25 2.7 1.25 2.05 1.3 1.7 1.3 1.65 1.95 0.15 2.1 -0.2 1.9 -1.15 2.2 -0.6 2.5 -0.1 2.35 -1.8 2.2 -2.1 2.2 -2.15 2.25 -2.15 3.15 -1.75 2.55 -3.7 M2.2 -0.6 L2.1 -0.2" fill="none" stroke="#a36a6a" stroke-linecap="round" stroke-linejoin="round" stroke-width="1"/>
  </g>
</svg>