<?xml version="1.0" encoding="UTF-8" standalone="no"?>
<svg xmlns:xlink="http://www.w3.org/1999/xlink" height="8.15px" width="9.15px" xmlns="http://www.w3.org/2000/svg">
  <g id="shape0" transform="matrix(1.0, 0.0, 0.0, 1.0, 1, 1)">
    <path d="M7.0 2.5 L7.15 3.45 7.15 3.5 6.15 4.25 6.15 3.45 6.0 2.4 5.4 1.35 Q4.8 0.75 4.0 0.75 L2.65 0.45 4.55 0.0 5.1 0.05 Q5.7 0.05 6.35 0.9 L6.95 2.0 7.0 2.5 M3.2 1.4 Q4.2 1.6 4.6 3.0 L4.75 4.7 4.7 4.9 3.8 5.35 3.7 4.85 3.55 3.4 3.25 2.8 2.3 2.1 3.2 1.4 M1.35 4.65 L1.15 4.4 Q0.65 3.8 0.0 3.8 L0.8 3.1 0.85 3.05 Q1.7 3.05 2.2 3.95 L2.75 5.9 2.75 5.95 2.0 6.15 1.35 4.65" fill="#dba9a9" fill-rule="evenodd" stroke="none"/>
  </g>
</svg>