<?xml version="1.0" encoding="UTF-8" standalone="no"?>
<svg xmlns:xlink="http://www.w3.org/1999/xlink" height="10.75px" width="14.55px" xmlns="http://www.w3.org/2000/svg">
  <g id="shape0" transform="matrix(1.0, 0.0, 0.0, 1.0, 7.25, 5.4)">
    <path d="M-0.05 -3.85 L1.0 -3.85 2.05 -4.1 2.2 -4.35 2.25 -4.15 2.75 -4.3 3.25 -4.25 3.3 -4.4 3.6 -4.2 3.75 -4.05 3.85 -3.8 4.5 -3.75 4.35 -3.35 4.6 -3.0 4.1 -1.4 3.5 -2.6 2.6 -1.75 1.75 -0.85 1.15 -1.15 -0.1 0.2 -1.05 -0.05 Q-2.65 0.9 -3.4 2.3 L-3.7 3.15 -5.15 3.05 -5.3 2.4 -5.4 1.55 -5.8 1.8 -1.0 -1.8 -0.85 -1.9 -2.2 -2.3 0.5 -2.85 -0.05 -3.85 M-6.2 4.2 L-6.25 4.2 -6.25 4.15 -6.2 4.2" fill="#faf8f8" fill-rule="evenodd" stroke="none"/>
    <path d="M4.6 -3.0 L4.95 -2.5 5.15 -2.2 5.8 -1.35 6.3 -0.6 5.15 -1.25 5.05 0.65 4.65 -0.15 3.75 0.95 2.95 0.6 1.5 1.25 1.3 1.55 -2.85 3.45 -2.9 3.45 -3.1 3.75 -3.15 3.8 -3.6 4.35 -6.2 4.2 -6.25 4.15 -5.9 1.9 -5.8 1.8 -5.4 1.55 -5.3 2.4 -5.15 3.05 -3.7 3.15 -3.4 2.3 Q-2.65 0.9 -1.05 -0.05 L-0.1 0.2 1.15 -1.15 1.75 -0.85 2.6 -1.75 3.5 -2.6 4.1 -1.4 4.6 -3.0 M-2.9 3.45 L-2.85 3.45 -2.9 3.45" fill="#d6baba" fill-rule="evenodd" stroke="none"/>
    <path d="M5.8 -1.35 L6.3 -0.6 5.15 -1.25 5.05 0.65 4.65 -0.15 3.75 0.95 2.95 0.6 1.5 1.25 1.3 1.55 -2.85 3.45 -2.9 3.45 -3.1 3.75 -3.15 3.8 -3.6 4.35 -6.2 4.2 -6.25 4.2 -6.25 4.15 -5.9 1.9 -5.8 1.8 -1.0 -1.8 -0.85 -1.9 -2.2 -2.3 0.5 -2.85 -0.05 -3.85" fill="none" stroke="#a36a6a" stroke-linecap="round" stroke-linejoin="round" stroke-width="1"/>
  </g>
</svg>