<?xml version="1.0" encoding="UTF-8" standalone="no"?>
<svg xmlns:xlink="http://www.w3.org/1999/xlink" height="18.4px" width="15.85px" xmlns="http://www.w3.org/2000/svg">
  <g id="shape0" transform="matrix(1.0, 0.0, 0.0, 1.0, 8, 8.8)">
    <path d="M-6.5 3.85 L-6.55 2.25 -6.5 1.9 -6.15 0.75 Q-5.95 0.35 -5.55 0.25 L-5.4 0.1 -4.8 -1.25 -3.55 -3.95 -2.45 -5.75 -1.75 -6.5 -0.9 -7.1 1.05 -7.7 2.5 -7.75 3.95 -7.25 Q4.65 -6.95 5.4 -6.25 L5.45 -4.35 5.25 -2.6 Q4.9 -0.85 3.7 0.55 L3.3 1.0 2.5 1.95 2.05 2.45 1.65 2.9 0.75 3.45 -0.3 3.8 -0.5 4.95 -2.75 5.55 Q-4.7 5.95 -5.5 4.4 -5.1 3.65 -5.1 2.95 L-5.4 3.2 -5.75 3.85 -6.05 3.9 -6.5 3.85 M-4.7 1.85 Q-4.7 1.2 -5.0 0.7 L-5.45 1.5 -5.1 2.05 -4.75 2.0 -4.7 1.85 M-0.85 2.95 L-1.65 2.9 Q-2.7 3.0 -3.65 3.4 L-3.2 3.65 -2.1 3.75 -1.8 3.4 Q-1.1 3.55 -0.85 2.95 M-6.55 5.0 L-6.0 5.1 -4.95 6.0 -5.0 6.25 -5.2 6.5 -5.35 6.6 Q-5.65 6.6 -6.25 6.1 L-6.85 5.4 Q-6.85 5.0 -6.55 5.0 M-0.9 6.35 L-0.5 6.75 -0.65 7.05 Q-0.65 7.4 -2.1 7.45 -3.2 7.45 -3.2 6.9 -3.2 6.25 -1.75 6.25 L-0.9 6.35" fill="#faf8f8" fill-rule="evenodd" stroke="none"/>
    <path d="M5.4 -6.25 L5.7 -5.9 6.05 -5.55 6.7 -4.35 Q6.95 -3.4 6.8 -2.4 L6.35 -0.55 5.65 1.15 5.4 1.65 3.25 5.0 3.05 5.2 2.35 6.1 1.9 6.75 1.85 6.8 1.9 6.85 1.6 7.35 Q-0.25 9.8 -3.9 7.4 L-5.6 7.25 Q-6.75 6.85 -7.0 6.0 L-6.8 4.45 -6.65 4.4 -6.4 4.3 -6.5 3.85 -6.05 3.9 -5.75 3.85 -5.4 3.2 -5.1 2.95 Q-5.1 3.65 -5.5 4.4 -4.7 5.95 -2.75 5.55 L-0.5 4.95 -0.3 3.8 0.75 3.45 1.65 2.9 2.05 2.45 2.5 1.95 3.3 1.0 3.7 0.55 Q4.9 -0.85 5.25 -2.6 L5.45 -4.35 5.4 -6.25 M1.8 5.95 L1.9 6.75 1.8 5.95 M-0.85 2.95 Q-1.1 3.55 -1.8 3.4 L-2.1 3.75 -3.2 3.65 -3.65 3.4 Q-2.7 3.0 -1.65 2.9 L-0.85 2.95 M-4.7 1.85 L-4.75 2.0 -5.1 2.05 -5.45 1.5 -5.0 0.7 Q-4.7 1.2 -4.7 1.85 M-6.8 4.45 L-6.4 4.3 Q-5.55 5.65 -4.15 6.15 L-0.75 6.0 -4.15 6.15 Q-5.55 5.65 -6.4 4.3 L-6.8 4.45 M-0.9 6.35 L-1.75 6.25 Q-3.2 6.25 -3.2 6.9 -3.2 7.45 -2.1 7.45 -0.65 7.4 -0.65 7.05 L-0.5 6.75 -0.9 6.35 M-6.55 5.0 Q-6.85 5.0 -6.85 5.4 L-6.25 6.1 Q-5.65 6.6 -5.35 6.6 L-5.2 6.5 -5.0 6.25 -4.95 6.0 -6.0 5.1 -6.55 5.0" fill="#d6baba" fill-rule="evenodd" stroke="none"/>
    <path d="M-6.5 3.85 L-6.55 2.25 -6.5 1.9 -6.15 0.75 Q-5.95 0.35 -5.55 0.25 L-5.4 0.1 -4.8 -1.25 -3.55 -3.95 -2.45 -5.75 -1.75 -6.5 -0.9 -7.1 1.05 -7.7 2.5 -7.75 3.95 -7.25 Q4.65 -6.95 5.4 -6.25 L5.7 -5.9 6.05 -5.55 6.7 -4.35 Q6.95 -3.4 6.8 -2.4 L6.35 -0.55 5.65 1.15 5.4 1.65 3.25 5.0 3.05 5.2 2.35 6.1 1.9 6.75 1.9 6.85 1.6 7.35 Q-0.25 9.8 -3.9 7.4 L-5.6 7.25 Q-6.75 6.85 -7.0 6.0 L-6.8 4.45 -6.4 4.3 -6.5 3.85 M1.85 6.8 L1.9 6.75 1.8 5.95 M-0.75 6.0 L-4.15 6.15 Q-5.55 5.65 -6.4 4.3" fill="none" stroke="#a36a6a" stroke-linecap="round" stroke-linejoin="round" stroke-width="1"/>
  </g>
</svg>