<?xml version="1.0" encoding="UTF-8" standalone="no"?>
<svg xmlns:xlink="http://www.w3.org/1999/xlink" height="7.1px" width="10.95px" xmlns="http://www.w3.org/2000/svg">
  <g id="shape0" transform="matrix(1.0, 0.0, 0.0, 1.0, 3.2, 4.85)">
    <path d="M0.05 -2.4 L0.95 -2.7 6.75 -3.85 3.95 -2.85 3.35 -2.65 3.95 -2.85 3.5 -2.65 3.35 -2.65 2.0 -2.45 0.7 -2.25 0.05 -2.4 M3.8 -2.1 L5.15 -2.1 2.55 -1.5 2.3 -1.6 3.8 -2.1 M1.7 -1.25 L1.9 -1.15 2.2 -0.95 2.65 -0.8 2.6 -0.75 2.0 -0.7 0.75 -0.55 0.1 -0.45 -0.2 -0.4 -0.95 -0.55 -0.05 -0.9 1.65 -1.25 1.7 -1.25 M-0.1 -1.45 L-0.6 -1.0 Q-0.75 -0.85 -1.0 -0.8 L-1.25 -0.1 -1.35 0.25 -1.4 0.25 Q-1.9 0.0 -1.6 -0.6 L-1.2 -1.35 -0.1 -1.45" fill="#faf8f8" fill-rule="evenodd" stroke="none"/>
    <path d="M0.05 -2.4 L0.7 -2.25 2.0 -2.45 3.35 -2.65 1.85 -2.1 3.8 -2.1 2.3 -1.6 2.55 -1.5 1.7 -1.25 1.65 -1.25 -0.05 -0.9 -0.95 -0.55 -0.2 -0.4 1.4 0.05 -1.05 -0.1 -0.9 1.25 -1.6 0.4 -1.8 0.2 Q-1.85 -0.65 -2.2 -1.6 L-2.15 -1.75 0.05 -2.4 M-0.1 -1.45 L-1.2 -1.35 -1.6 -0.6 Q-1.9 0.0 -1.4 0.25 L-1.35 0.25 -1.25 -0.1 -1.0 -0.8 Q-0.75 -0.85 -0.6 -1.0 L-0.1 -1.45 1.85 -2.1 -0.1 -1.45" fill="#d6baba" fill-rule="evenodd" stroke="none"/>
    <path d="M3.95 -2.85 L6.75 -3.85 0.95 -2.7 0.05 -2.4 -2.15 -1.75 M3.35 -2.65 L3.95 -2.85 M3.35 -2.65 L1.85 -2.1 3.8 -2.1 5.15 -2.1 2.55 -1.5 1.7 -1.25 1.9 -1.15 2.2 -0.95 2.65 -0.8 2.6 -0.75 2.0 -0.7 0.75 -0.55 0.1 -0.45 -0.2 -0.4 1.4 0.05 -1.05 -0.1 -0.9 1.25 -1.6 0.4 -1.8 0.2 M-0.2 -0.4 L-0.95 -0.55 -0.05 -0.9 1.65 -1.25 1.7 -1.25 M-0.1 -1.45 L1.85 -2.1" fill="none" stroke="#a36a6a" stroke-linecap="round" stroke-linejoin="round" stroke-width="1"/>
  </g>
</svg>