<?xml version="1.0" encoding="UTF-8" standalone="no"?>
<svg xmlns:xlink="http://www.w3.org/1999/xlink" height="10.8px" width="10.35px" xmlns="http://www.w3.org/2000/svg">
  <g id="shape0" transform="matrix(1.0, 0.0, 0.0, 1.0, 5.15, 5.4)">
    <path d="M0.95 -4.4 Q1.8 -4.4 1.7 -3.6 1.7 -3.0 0.5 -3.0 -0.4 -3.0 -0.55 -3.8 -0.55 -4.4 0.95 -4.4 M2.75 -2.85 Q3.45 -2.85 4.1 -1.2 4.1 -0.7 3.35 -0.7 2.15 -0.7 2.15 -1.85 2.15 -2.85 2.75 -2.85 M-0.6 -1.65 Q-0.6 -2.4 0.3 -2.4 1.1 -2.4 1.1 -1.5 1.1 -0.85 0.35 -0.85 -0.6 -0.85 -0.6 -1.65 M0.75 0.4 Q1.15 0.4 1.25 1.05 1.25 1.9 0.35 1.9 -0.5 1.9 -0.45 1.1 -0.45 0.4 0.75 0.4 M2.7 1.85 Q2.7 0.5 3.55 0.5 3.9 0.5 4.15 1.0 L4.2 1.3 4.05 2.1 Q4.05 2.55 3.35 2.55 L2.7 1.85 M-1.7 3.8 Q-2.2 3.8 -2.2 3.3 -2.2 2.8 -1.8 2.8 L-1.55 2.85 Q-1.15 2.85 -1.15 3.4 -1.15 3.65 -1.7 3.8 M1.1 3.2 Q1.5 3.2 1.8 3.85 1.8 4.4 1.15 4.4 0.45 4.4 0.45 3.6 0.45 3.2 1.1 3.2 M-2.0 -3.9 Q-1.8 -3.9 -1.75 -3.5 L-2.35 -2.85 Q-2.9 -2.45 -3.2 -2.45 -3.65 -2.45 -3.65 -2.95 -3.65 -3.95 -2.4 -3.95 L-2.2 -3.85 -2.0 -3.9 M-2.25 -0.4 Q-2.25 0.5 -3.3 0.5 -3.9 0.5 -4.05 -0.35 -4.05 -1.35 -2.9 -1.35 -2.25 -1.35 -2.25 -0.4 M-3.8 1.6 L-3.55 1.6 -3.5 1.9 -3.55 2.15 -3.95 2.15 -4.15 1.85 Q-4.15 1.5 -3.8 1.6" fill="#ffffff" fill-rule="evenodd" stroke="none"/>
  </g>
</svg>