<?xml version="1.0" encoding="UTF-8" standalone="no"?>
<svg xmlns:xlink="http://www.w3.org/1999/xlink" height="9.55px" width="9.4px" xmlns="http://www.w3.org/2000/svg">
  <g id="shape0" transform="matrix(1.0, 0.0, 0.0, 1.0, 4.7, 4.8)">
    <path d="M0.45 -3.0 L2.95 -0.75 3.5 0.0 2.75 0.55 1.45 1.3 0.85 1.45 0.85 1.4 1.85 0.5 1.7 0.35 0.1 1.1 -0.1 1.15 Q-0.35 1.15 -0.65 1.4 L-0.95 1.45 -0.95 1.4 -0.5 0.65 0.6 -1.15 0.55 -1.25 0.4 -1.3 -1.45 0.75 Q-0.35 -3.0 0.25 -3.0 L0.45 -3.0 M-0.6 -3.6 L-0.5 -3.8 -0.45 -3.8 -0.6 -3.6 M0.7 1.2 L0.75 1.15 0.7 1.2" fill="#faf8f8" fill-rule="evenodd" stroke="none"/>
    <path d="M-0.45 -3.8 L-0.15 -3.55 0.1 -3.35 0.25 -3.2 0.3 -3.15 0.45 -3.0 0.25 -3.0 Q-0.35 -3.0 -1.45 0.75 L0.4 -1.3 0.55 -1.25 0.6 -1.15 -0.5 0.65 -0.95 1.4 -0.95 1.45 -0.65 1.4 Q-0.35 1.15 -0.1 1.15 L0.1 1.1 1.7 0.35 1.85 0.5 0.85 1.4 0.85 1.45 1.45 1.3 2.75 0.55 3.5 0.0 3.7 0.5 3.7 0.6 Q2.5 1.95 0.7 2.65 -0.8 3.3 -2.35 3.55 L-3.1 3.75 -3.7 3.75 Q-2.75 1.8 -2.75 1.35 L-1.75 -1.2 -0.85 -3.05 -0.6 -3.55 -0.6 -3.6 -0.45 -3.8 M0.7 1.2 L0.75 1.15 0.7 1.2" fill="#d6baba" fill-rule="evenodd" stroke="none"/>
    <path d="M-0.45 -3.8 L-0.15 -3.55 0.1 -3.35 0.25 -3.2 0.3 -3.15 0.45 -3.0 2.95 -0.75 3.5 0.0 3.7 0.5 3.7 0.6 Q2.5 1.95 0.7 2.65 -0.8 3.3 -2.35 3.55 L-3.1 3.75 -3.7 3.75 M-0.5 -3.8 L-0.45 -3.8" fill="none" stroke="#a36a6a" stroke-linecap="round" stroke-linejoin="round" stroke-width="1"/>
  </g>
</svg>