<?xml version="1.0" encoding="UTF-8" standalone="no"?>
<svg xmlns:xlink="http://www.w3.org/1999/xlink" height="68.85px" width="28px" xmlns="http://www.w3.org/2000/svg">
  <g transform="matrix(1.0, 0.0, 0.0, 1.0, -0.6, 20.85)">
    <path d="M7.9 6.0 L8.7 -4.55 9.45 1.8 Q10.75 14.6 9.6 27.55 L9.05 35.75 7.8 15.6 7.9 6.0 M14.3 -3.5 L15.55 2.15 15.5 17.45 15.45 29.9 15.4 35.75 14.7 35.85 13.45 25.35 13.35 18.35 13.2 21.85 12.95 16.65 Q12.45 6.6 14.3 -3.5 M18.15 -6.55 L18.6 -5.0 19.05 -3.3 18.95 32.1 18.6 32.4 18.0 32.15 17.55 30.95 17.5 23.55 Q18.6 15.25 17.65 7.0 L16.95 1.45 16.85 1.95 17.6 -7.65 18.15 -6.55 M22.15 -5.1 L22.9 34.65 21.4 34.25 Q20.15 13.9 20.4 -6.3 L21.5 -6.05 22.15 -5.1 M23.7 6.55 L24.05 -10.35 24.75 -10.1 25.2 -8.7 25.05 41.1 24.25 41.35 23.7 6.55 M25.65 -2.0 L25.65 -2.7 26.55 -2.5 27.45 -0.15 27.45 35.85 27.6 37.9 26.45 38.1 26.1 36.35 26.1 0.3 25.65 -2.0" fill="#9a633a" fill-rule="evenodd" stroke="none"/>
    <path d="M7.3 1.45 Q6.55 -4.5 7.85 -10.35 L8.1 -11.1 8.45 -8.85 8.6 -13.2 9.15 -13.2 10.8 0.3 9.8 30.15 9.6 27.55 Q10.75 14.6 9.45 1.8 L8.7 -4.55 7.9 6.0 7.3 1.45 M12.05 8.75 L12.25 -12.25 12.9 -12.35 14.3 -3.5 Q12.45 6.6 12.95 16.65 L13.2 21.85 12.3 43.65 11.7 43.95 10.5 37.2 10.8 38.15 11.4 37.95 12.05 8.75 M15.55 2.15 L15.9 -11.7 16.5 -11.7 16.7 -10.5 17.2 -19.85 Q18.75 -13.4 18.15 -6.55 L17.6 -7.65 16.85 1.95 15.5 17.45 15.55 2.15 M18.6 -5.0 L19.2 -13.35 20.0 -5.8 21.5 -9.2 22.15 -5.1 21.5 -6.05 20.4 -6.3 Q20.15 13.9 21.4 34.25 L21.8 40.2 21.5 40.55 19.55 28.55 19.75 45.95 19.0 43.25 Q17.55 37.8 18.0 32.15 L18.6 32.4 18.95 32.1 19.05 -3.3 18.6 -5.0 M17.55 30.95 L18.0 40.7 17.3 38.15 17.5 23.55 17.55 30.95 M15.95 42.65 Q15.05 41.9 14.9 40.75 L14.8 39.6 14.45 39.9 13.65 39.9 13.45 25.35 14.7 35.85 15.4 35.75 15.45 29.9 15.95 42.65 M6.15 44.3 L5.7 47.0 5.1 47.0 4.45 4.45 1.6 44.75 Q1.5 33.7 2.2 22.6 3.25 5.45 2.75 -11.7 L3.6 -11.75 5.05 -4.55 Q6.35 2.3 6.45 9.25 5.6 23.25 5.95 37.35 L6.15 44.3 M23.7 6.55 L23.45 -17.25 24.0 -17.25 25.15 -11.55 Q26.05 -7.25 25.65 -2.7 L25.65 -2.0 25.6 45.55 24.25 41.35 25.05 41.1 25.2 -8.7 24.75 -10.1 24.05 -10.35 23.7 6.55 M7.8 15.6 L9.05 35.75 Q9.95 38.7 9.4 41.9 L8.9 44.9 7.25 29.55 7.8 15.6" fill="#c98c5f" fill-rule="evenodd" stroke="none"/>
    <path d="M7.3 1.45 L7.9 6.0 7.8 15.6 7.25 29.55 6.8 45.25 6.15 44.3 5.95 37.35 Q5.6 23.25 6.45 9.25 L7.3 1.45 M17.3 38.15 L17.15 45.75 16.05 45.95 15.95 42.65 15.45 29.9 15.5 17.45 16.85 1.95 16.95 1.45 17.65 7.0 Q18.6 15.25 17.5 23.55 L17.3 38.15" fill="#ffffff" fill-rule="evenodd" stroke="none"/>
    <path d="M9.8 30.15 L10.8 0.3 11.35 -5.7 12.05 8.75 11.4 37.95 10.8 38.15 10.5 37.2 9.8 30.15" fill="#000000" fill-rule="evenodd" stroke="none"/>
  </g>
</svg>