<?xml version="1.0" encoding="UTF-8" standalone="no"?>
<svg xmlns:xlink="http://www.w3.org/1999/xlink" height="31.15px" width="33.7px" xmlns="http://www.w3.org/2000/svg">
  <g transform="matrix(1.0, 0.0, 0.0, 1.0, 1, 1)">
    <path d="M20.75 9.55 L20.35 10.8 20.3 11.05 Q19.65 12.6 17.9 12.95 L17.9 12.9 18.25 12.2 18.65 11.55 18.65 11.65 19.65 10.7 20.75 9.55" fill="url(#gradient0)" fill-rule="evenodd" stroke="none"/>
    <path d="M20.45 12.85 L20.5 12.85 21.1 12.4 21.45 12.1 22.25 11.05 22.25 11.75 21.75 12.45 20.35 14.15 20.1 14.35 20.05 14.35 20.05 14.05 20.45 12.85" fill="url(#gradient1)" fill-rule="evenodd" stroke="none"/>
    <path d="M22.25 11.75 L22.1 12.85 21.85 13.6 21.8 13.7 24.6 14.75 Q26.05 16.65 26.0 18.5 L25.95 20.0 25.6 21.1 Q25.25 20.9 24.7 20.85 L24.0 20.8 21.55 21.65 18.9 22.5 Q18.0 22.5 16.9 22.0 L16.6 21.8 16.5 21.7 15.2 21.0 13.6 20.85 12.25 20.8 11.45 21.0 10.6 20.5 Q11.0 20.2 11.65 19.85 L11.35 19.45 11.2 18.5 Q10.4 18.25 10.4 17.85 L11.0 17.05 Q11.0 17.35 12.7 17.55 L17.25 17.65 19.4 17.45 20.6 17.35 21.8 17.1 Q21.95 16.85 20.95 16.4 20.1 15.95 19.4 15.9 L19.1 15.9 17.05 16.0 16.45 16.0 16.9 14.4 14.8 16.05 14.8 15.65 14.7 15.3 14.7 15.25 14.2 15.8 13.75 16.05 13.7 16.05 12.55 15.8 12.4 15.7 12.35 15.5 12.95 15.0 Q13.65 14.5 13.75 14.5 L13.85 14.45 13.3 12.95 13.3 12.6 13.15 11.95 13.35 12.6 13.95 13.9 14.3 14.4 15.05 15.15 15.05 15.1 14.7 13.35 14.2 12.4 13.9 11.75 13.65 11.0 13.7 11.05 14.6 12.05 14.55 9.25 Q14.6 10.55 15.15 11.9 L15.25 12.15 15.45 12.6 15.45 12.55 15.55 12.15 Q15.7 11.4 16.55 9.1 L17.35 6.85 Q18.0 3.0 18.65 0.9 L18.55 0.9 Q19.35 0.2 19.9 0.0 L19.95 0.0 Q19.7 0.3 19.2 5.0 L18.75 9.0 18.65 11.45 18.65 11.55 18.25 12.2 17.9 12.9 17.9 12.95 Q19.65 12.6 20.3 11.05 L20.35 10.8 20.75 9.55 21.0 9.1 21.1 9.85 20.95 10.95 20.85 11.4 20.15 12.9 20.45 12.85 20.05 14.05 20.05 14.35 20.1 14.35 20.35 14.15 21.75 12.45 22.25 11.75 M22.75 18.4 Q23.65 18.1 23.75 17.55 23.9 16.35 23.4 16.0 23.9 16.35 23.75 17.55 23.65 18.1 22.75 18.4 M14.5 20.0 L11.65 19.85 14.5 20.0 M24.7 20.85 L25.95 20.0 24.7 20.85 M21.4 20.0 L17.2 19.9 21.4 20.0" fill="url(#gradient2)" fill-rule="evenodd" stroke="none"/>
    <path d="M12.35 15.5 L12.4 15.7 12.55 15.8 13.7 16.05 13.75 16.05 14.2 15.8 14.7 15.25 14.7 15.3 14.8 15.65 14.8 16.05 16.9 14.4 16.45 16.0 17.05 16.0 19.1 15.9 19.4 15.9 Q20.1 15.95 20.95 16.4 21.95 16.85 21.8 17.1 L20.6 17.35 19.4 17.45 17.25 17.65 12.7 17.55 Q11.0 17.35 11.0 17.05 L11.15 16.85 11.15 16.8 11.65 16.15 11.95 15.85 12.35 15.5" fill="url(#gradient3)" fill-rule="evenodd" stroke="none"/>
    <path d="M16.6 21.8 L16.9 22.0 Q18.0 22.5 18.9 22.5 L21.55 21.65 24.0 20.8 24.7 20.85 24.25 21.25 Q23.55 21.9 23.15 22.6 23.55 21.9 24.25 21.25 L24.7 20.85 Q25.25 20.9 25.6 21.1 L25.7 21.15 25.8 21.25 26.0 21.4 26.25 21.65 26.95 22.6 27.1 22.8 26.9 22.8 Q24.85 23.05 24.15 23.45 24.85 23.05 26.9 22.8 L27.1 22.8 27.45 23.7 26.9 25.0 Q26.0 26.05 24.05 26.45 L19.65 26.9 16.05 26.95 Q15.6 26.75 15.85 26.2 L16.35 25.0 16.65 23.95 16.6 23.05 16.7 22.3 16.6 21.8 M24.3 25.0 L26.05 24.9 26.9 25.0 26.05 24.9 24.3 25.0" fill="url(#gradient4)" fill-rule="evenodd" stroke="none"/>
    <path d="M16.6 23.05 L16.65 23.95 16.35 25.0 15.85 26.2 Q15.6 26.75 16.05 26.95 L19.65 26.9 24.05 26.45 Q26.0 26.05 26.9 25.0 L27.45 23.7 27.45 23.8 27.45 24.15 27.35 25.1 26.9 25.0 27.35 25.1 Q26.95 27.25 25.5 28.25 24.45 28.95 23.25 28.95 L17.85 29.0 13.75 28.95 13.45 28.5 13.25 27.0 13.3 25.8 13.5 25.8 Q14.85 25.8 15.85 24.3 L16.6 23.05" fill="url(#gradient5)" fill-rule="evenodd" stroke="none"/>
    <path d="M18.55 0.9 L18.65 0.9 Q18.0 3.0 17.35 6.85 L16.55 9.1 Q15.7 11.4 15.55 12.15 L15.45 12.55 15.45 12.6 15.25 12.15 15.15 11.9 Q14.6 10.55 14.55 9.25 14.5 6.95 14.85 6.05 15.4 4.6 16.65 2.95 L18.55 0.9" fill="url(#gradient6)" fill-rule="evenodd" stroke="none"/>
    <path d="M13.65 11.0 L13.9 11.75 14.2 12.4 14.7 13.35 15.05 15.1 15.05 15.15 14.3 14.4 13.95 13.9 13.35 12.6 13.15 11.95 12.85 10.05 12.9 10.1 13.65 11.0" fill="url(#gradient7)" fill-rule="evenodd" stroke="none"/>
    <path d="M4.3 23.9 L4.3 23.75 4.8 22.75 5.0 22.45 5.75 21.6 6.0 21.4 Q7.15 20.75 8.1 20.75 L9.4 20.9 9.7 21.0 10.6 20.5 11.45 21.0 11.15 21.15 11.15 21.25 Q10.75 21.6 10.75 22.5 L10.9 23.5 11.1 24.55 11.65 25.75 12.0 26.4 11.85 26.95 11.05 27.15 10.2 27.15 7.6 26.9 5.0 26.5 4.6 26.3 4.5 26.1 4.35 25.75 Q4.1 24.45 4.3 23.9 L5.7 24.65 4.3 23.9 M5.75 21.6 L7.3 22.7 5.75 21.6 M5.5 26.25 L4.7 26.25 4.6 26.3 4.7 26.25 5.5 26.25" fill="url(#gradient8)" fill-rule="evenodd" stroke="none"/>
    <path d="M16.6 21.8 L16.7 22.3 16.6 23.05 15.85 24.3 Q14.85 25.8 13.5 25.8 L13.3 25.8 Q12.45 25.7 11.65 24.8 L11.15 24.1 10.9 23.5 10.75 22.5 Q10.75 21.6 11.15 21.25 L11.15 21.15 11.45 21.0 12.25 20.8 13.6 20.85 15.2 21.0 16.5 21.7 16.6 21.8 M14.6 21.7 L14.4 22.2 14.6 22.65 Q14.8 22.85 15.1 22.85 L15.6 22.65 15.8 22.2 15.6 21.7 15.1 21.55 Q14.8 21.55 14.6 21.7" fill="url(#gradient9)" fill-rule="evenodd" stroke="none"/>
    <path d="M10.9 23.5 L11.15 24.1 11.65 24.8 Q12.45 25.7 13.3 25.8 L13.25 27.0 13.45 28.5 13.75 28.95 10.3 29.1 9.55 29.15 Q7.4 29.15 6.65 28.65 L5.2 27.55 Q4.8 27.2 4.55 26.3 L4.6 26.3 4.55 26.3 4.5 26.1 4.6 26.3 5.0 26.5 7.6 26.9 10.2 27.15 11.05 27.15 11.85 26.95 12.0 26.4 11.65 25.75 11.1 24.55 10.9 23.5" fill="url(#gradient10)" fill-rule="evenodd" stroke="none"/>
    <path d="M14.6 21.7 Q14.8 21.55 15.1 21.55 L15.6 21.7 15.8 22.2 15.6 22.65 15.1 22.85 Q14.8 22.85 14.6 22.65 L14.4 22.2 14.6 21.7" fill="#ffffff" fill-rule="evenodd" stroke="none"/>
    <path d="M20.45 12.85 L20.5 12.85 21.1 12.4 21.45 12.1 22.25 11.05 22.25 11.75 22.1 12.85 21.85 13.6 21.8 13.7 M25.95 20.0 L27.45 19.1 Q29.8 17.95 31.45 17.65 L31.7 17.6 M20.75 9.55 L21.0 9.1 21.1 9.85 20.95 10.95 20.85 11.4 20.15 12.9 20.45 12.85 M20.75 9.55 L19.65 10.7 18.65 11.65 18.65 11.55 18.65 11.45 18.75 9.0 19.2 5.0 Q19.7 0.3 19.95 0.0 L19.9 0.0 Q19.35 0.2 18.55 0.9 L16.65 2.95 Q15.4 4.6 14.85 6.05 14.5 6.95 14.55 9.25 L14.6 12.05 13.7 11.05 13.65 11.0 12.9 10.1 12.85 10.05 13.15 11.95 13.3 12.6 13.3 12.95 13.85 14.45 13.75 14.5 M11.0 17.05 L10.4 17.85 Q10.4 18.25 11.2 18.5 L11.35 19.45 11.65 19.85 14.5 20.0 M23.4 16.0 Q23.9 16.35 23.75 17.55 23.65 18.1 22.75 18.4 M16.6 21.8 L16.7 22.3 16.6 23.05 15.85 24.3 Q14.85 25.8 13.5 25.8 L13.3 25.8 Q12.45 25.7 11.65 24.8 L11.15 24.1 10.9 23.5 10.75 22.5 Q10.75 21.6 11.15 21.25 L11.15 21.15 11.45 21.0 12.25 20.8 13.6 20.85 15.2 21.0 16.5 21.7 16.6 21.8 M26.9 25.0 L26.05 24.9 24.3 25.0 M24.7 20.85 L24.25 21.25 Q23.55 21.9 23.15 22.6 M25.95 20.0 L24.7 20.85 M25.6 21.1 L25.7 21.15 25.8 21.25 26.0 21.4 26.25 21.65 26.95 22.6 27.1 22.8 27.65 22.75 30.8 22.65 M27.1 22.8 L26.9 22.8 Q24.85 23.05 24.15 23.45 M27.35 25.1 L27.45 24.15 27.45 23.8 27.45 23.7 27.1 22.8 M26.9 25.0 L27.35 25.1 29.55 25.7 Q30.7 26.1 31.5 26.8 M5.75 21.6 L5.0 22.45 4.8 22.75 4.3 23.75 4.3 23.9 5.7 24.65 M5.75 21.6 Q4.9 21.1 3.65 20.7 1.1 19.85 0.0 20.2 M4.3 23.9 L3.2 23.6 0.8 23.8 M5.75 21.6 L6.0 21.4 Q7.15 20.75 8.1 20.75 L9.4 20.9 9.7 21.0 10.6 20.5 Q11.0 20.2 11.65 19.85 M7.3 22.7 L5.75 21.6 M11.95 15.85 L11.65 16.15 11.15 16.8 11.15 16.85 11.0 17.05 M4.6 26.3 L4.55 26.3 Q4.8 27.2 5.2 27.55 L6.65 28.65 Q7.4 29.15 9.55 29.15 L10.3 29.1 13.75 28.95 13.45 28.5 13.25 27.0 13.3 25.8 M13.75 28.95 L17.85 29.0 23.25 28.95 Q24.45 28.95 25.5 28.25 26.95 27.25 27.35 25.1 M4.6 26.3 L4.7 26.25 5.5 26.25 M4.55 26.3 Q0.6 27.7 0.2 28.45 M4.5 26.1 L4.55 26.3 M4.3 23.9 Q4.1 24.45 4.35 25.75 L4.5 26.1 M17.2 19.9 L21.4 20.0" fill="none" stroke="#4f0202" stroke-linecap="round" stroke-linejoin="round" stroke-opacity="0.49803922" stroke-width="1"/>
  </g>
  <defs>
    <linearGradient gradientTransform="matrix(0.0013, -0.0013, 5.0E-4, 5.0E-4, 20.35, 10.6)" gradientUnits="userSpaceOnUse" id="gradient0" spreadMethod="pad" x1="-819.2" x2="819.2">
      <stop offset="0.0" stop-color="#c67e47"></stop>
      <stop offset="1.0" stop-color="#faa667"></stop>
    </linearGradient>
    <linearGradient gradientTransform="matrix(0.0013, -0.0013, 4.0E-4, 4.0E-4, 21.5, 12.4)" gradientUnits="userSpaceOnUse" id="gradient1" spreadMethod="pad" x1="-819.2" x2="819.2">
      <stop offset="0.0" stop-color="#c67e47"></stop>
      <stop offset="1.0" stop-color="#faa667"></stop>
    </linearGradient>
    <linearGradient gradientTransform="matrix(-0.0079, -7.0E-4, 3.0E-4, -0.0027, 14.3, 19.85)" gradientUnits="userSpaceOnUse" id="gradient2" spreadMethod="pad" x1="-819.2" x2="819.2">
      <stop offset="0.0" stop-color="#774e30"></stop>
      <stop offset="1.0" stop-color="#c67e47"></stop>
    </linearGradient>
    <linearGradient gradientTransform="matrix(-0.0037, -6.0E-4, 4.0E-4, -0.0022, 15.3, 15.95)" gradientUnits="userSpaceOnUse" id="gradient3" spreadMethod="pad" x1="-819.2" x2="819.2">
      <stop offset="0.0" stop-color="#c67e47"></stop>
      <stop offset="1.0" stop-color="#faa667"></stop>
    </linearGradient>
    <linearGradient gradientTransform="matrix(-0.0036, -0.0043, 0.0067, -0.0057, 19.65, 20.15)" gradientUnits="userSpaceOnUse" id="gradient4" spreadMethod="pad" x1="-819.2" x2="819.2">
      <stop offset="0.0" stop-color="#c67e47"></stop>
      <stop offset="1.0" stop-color="#faa667"></stop>
    </linearGradient>
    <linearGradient gradientTransform="matrix(0.0, 0.0021, -0.0087, 0.0, 20.35, 27.65)" gradientUnits="userSpaceOnUse" id="gradient5" spreadMethod="pad" x1="-819.2" x2="819.2">
      <stop offset="0.0" stop-color="#774e30"></stop>
      <stop offset="1.0" stop-color="#c67e47"></stop>
    </linearGradient>
    <linearGradient gradientTransform="matrix(0.0014, -0.0066, 0.0016, 3.0E-4, 16.6, 4.05)" gradientUnits="userSpaceOnUse" id="gradient6" spreadMethod="pad" x1="-819.2" x2="819.2">
      <stop offset="0.0" stop-color="#c67e47"></stop>
      <stop offset="1.0" stop-color="#faa667"></stop>
    </linearGradient>
    <linearGradient gradientTransform="matrix(-8.0E-4, -0.0031, 7.0E-4, -2.0E-4, 13.5, 11.25)" gradientUnits="userSpaceOnUse" id="gradient7" spreadMethod="pad" x1="-819.2" x2="819.2">
      <stop offset="0.0" stop-color="#c67e47"></stop>
      <stop offset="1.0" stop-color="#faa667"></stop>
    </linearGradient>
    <linearGradient gradientTransform="matrix(-0.0019, -0.0033, 0.0045, -0.0026, 7.75, 23.2)" gradientUnits="userSpaceOnUse" id="gradient8" spreadMethod="pad" x1="-819.2" x2="819.2">
      <stop offset="0.0" stop-color="#c67e47"></stop>
      <stop offset="1.0" stop-color="#faa667"></stop>
    </linearGradient>
    <linearGradient gradientTransform="matrix(0.0014, 8.0E-4, -0.0016, 0.0028, 12.55, 22.4)" gradientUnits="userSpaceOnUse" id="gradient9" spreadMethod="pad" x1="-819.2" x2="819.2">
      <stop offset="0.0" stop-color="#3a3a3a"></stop>
      <stop offset="1.0" stop-color="#000000"></stop>
    </linearGradient>
    <linearGradient gradientTransform="matrix(0.0, 0.0034, -0.0057, 0.0, 9.15, 28.65)" gradientUnits="userSpaceOnUse" id="gradient10" spreadMethod="pad" x1="-819.2" x2="819.2">
      <stop offset="0.0" stop-color="#774e30"></stop>
      <stop offset="1.0" stop-color="#c67e47"></stop>
    </linearGradient>
  </defs>
</svg>