<?xml version="1.0" encoding="UTF-8" standalone="no"?>
<svg xmlns:xlink="http://www.w3.org/1999/xlink" height="37.3px" width="40.45px" xmlns="http://www.w3.org/2000/svg">
  <g transform="matrix(1.0, 0.0, 0.0, 1.0, 6.1, 1)">
    <path d="M20.15 22.45 Q20.2 23.25 19.65 24.1 19.25 24.75 18.4 25.0 L16.6 25.1 Q15.6 24.95 15.15 24.55 14.65 24.15 14.35 22.8 L14.35 22.75 14.3 22.7 20.15 22.45 M12.15 22.75 Q12.15 23.35 11.6 23.9 11.1 24.4 10.65 24.4 L10.0 24.4 9.45 24.25 9.0 24.05 8.65 23.6 Q8.4 23.0 8.5 22.4 L10.55 22.7 12.15 22.75" fill="#000000" fill-rule="evenodd" stroke="none"/>
    <path d="M15.0 27.95 L15.1 29.05 14.75 30.3 Q14.35 31.05 14.1 31.75 13.8 32.45 14.35 32.65 L18.7 32.6 24.05 32.05 Q26.45 31.55 27.5 30.3 L28.05 30.4 27.5 30.3 28.15 28.75 28.15 28.8 28.15 29.3 28.05 30.4 Q27.6 33.05 25.8 34.25 24.55 35.1 23.1 35.1 L16.55 35.15 11.6 35.1 11.2 34.55 Q10.95 34.05 10.95 32.7 L11.05 31.25 11.25 31.25 Q12.9 31.25 14.15 29.45 L15.0 27.95" fill="url(#gradient0)" fill-rule="evenodd" stroke="none"/>
    <path d="M11.05 31.25 L10.95 32.7 Q10.95 34.05 11.2 34.55 L11.6 35.1 7.4 35.25 6.5 35.3 Q3.9 35.35 2.95 34.75 L1.2 33.4 Q0.7 32.95 0.4 31.9 L0.5 31.85 0.4 31.9 0.35 31.65 0.5 31.85 0.95 32.1 4.15 32.6 7.25 32.9 8.3 32.9 9.3 32.65 9.45 32.0 9.05 31.2 Q8.65 30.75 8.35 29.75 L8.15 28.5 8.45 29.2 9.05 30.05 Q10.0 31.15 11.05 31.25" fill="url(#gradient1)" fill-rule="evenodd" stroke="none"/>
    <path d="M13.8 26.3 L14.05 26.9 13.8 27.45 13.2 27.7 12.6 27.45 12.35 26.9 Q12.35 26.55 12.6 26.3 L13.2 26.1 13.8 26.3" fill="#ffffff" fill-rule="evenodd" stroke="none"/>
    <path d="M20.05 11.55 L20.35 11.05 20.5 11.95 20.3 13.25 20.15 13.8 19.35 15.65 19.75 15.55 19.7 15.6 Q19.2 16.7 19.2 17.05 L19.2 17.4 19.3 17.4 19.55 17.15 21.3 15.1 21.9 14.25 21.7 15.6 21.4 16.5 21.2 16.55 Q20.75 16.75 20.75 17.0 L20.8 17.15 Q20.95 17.95 23.3 19.4 23.85 19.8 23.7 21.25 L23.7 21.3 Q23.55 21.95 22.5 22.3 L22.45 22.3 20.15 22.45 14.3 22.7 14.35 22.75 13.05 22.75 12.15 22.75 10.55 22.7 8.5 22.4 Q7.5 22.1 7.5 21.65 7.5 21.5 8.25 20.65 8.25 21.0 10.3 21.3 13.05 21.65 15.8 21.4 L18.4 21.15 19.9 21.05 21.35 20.7 Q21.5 20.4 20.3 19.85 19.3 19.35 18.4 19.3 L18.05 19.25 15.6 19.4 14.85 19.4 15.4 17.45 12.85 19.45 12.85 18.95 12.75 18.55 12.7 18.5 12.1 19.15 Q11.9 19.4 11.6 19.45 L11.5 19.45 10.15 19.15 9.95 19.0 9.85 18.8 10.6 18.2 Q11.45 17.6 11.6 17.55 L11.7 17.5 Q11.2 16.65 11.05 15.7 L11.0 15.3 10.85 14.5 11.1 15.3 11.8 16.85 12.25 17.45 13.15 18.35 13.15 18.3 12.7 16.2 12.1 15.05 11.75 14.25 11.45 13.35 11.5 13.4 12.6 14.6 12.55 11.2 Q12.6 12.8 13.25 14.45 L13.4 14.75 13.65 15.3 13.65 15.2 13.75 14.7 14.95 11.0 15.95 8.3 Q16.75 3.65 17.5 1.1 L17.4 1.1 Q18.35 0.25 19.05 0.0 L19.1 0.0 Q18.8 0.35 18.15 6.05 L17.65 10.9 17.5 13.85 17.5 14.0 17.0 14.8 16.6 15.65 16.6 15.7 Q18.75 15.25 19.5 13.4 L19.6 13.1 20.05 11.55" fill="url(#gradient2)" fill-rule="evenodd" stroke="none"/>
    <path d="M21.4 16.5 L21.35 16.6 24.7 17.9 Q26.5 20.15 26.45 22.45 L26.35 24.25 24.85 25.3 26.35 24.25 25.95 25.55 26.05 25.65 24.85 25.3 24.0 25.2 Q23.2 25.2 21.3 26.05 L21.05 26.25 20.3 26.75 Q19.25 27.3 17.8 27.3 16.75 27.3 15.4 26.65 L15.0 26.45 14.9 26.3 Q14.45 25.75 13.35 25.45 L11.4 25.25 9.75 25.2 8.8 25.45 7.75 24.85 9.0 24.05 9.45 24.25 10.0 24.4 10.65 24.4 Q11.1 24.4 11.6 23.9 12.15 23.35 12.15 22.75 L13.05 22.75 14.35 22.75 14.35 22.8 Q14.65 24.15 15.15 24.55 15.6 24.95 16.6 25.1 L18.4 25.0 Q19.25 24.75 19.65 24.1 20.2 23.25 20.15 22.45 L22.45 22.3 22.5 22.3 Q23.55 21.95 23.7 21.3 L23.7 21.25 Q23.85 19.8 23.3 19.4 20.95 17.95 20.8 17.15 L20.75 17.0 Q20.75 16.75 21.2 16.55 L21.4 16.5" fill="url(#gradient3)" fill-rule="evenodd" stroke="none"/>
    <path d="M17.4 1.1 L17.5 1.1 Q16.75 3.65 15.95 8.3 L14.95 11.0 13.75 14.7 13.65 15.2 13.65 15.3 13.4 14.75 13.25 14.45 Q12.6 12.8 12.55 11.2 12.5 8.4 12.9 7.35 13.55 5.55 15.1 3.6 L17.4 1.1" fill="url(#gradient4)" fill-rule="evenodd" stroke="none"/>
    <path d="M11.45 13.35 L11.75 14.25 12.1 15.05 12.7 16.2 13.15 18.3 13.15 18.35 12.25 17.45 11.8 16.85 11.1 15.3 10.85 14.5 10.5 12.2 10.55 12.25 11.45 13.35" fill="url(#gradient5)" fill-rule="evenodd" stroke="none"/>
    <path d="M17.5 14.0 L17.5 14.15 18.75 12.95 20.05 11.55 19.6 13.1 19.5 13.4 Q18.75 15.25 16.6 15.7 L16.6 15.65 17.0 14.8 17.5 14.0" fill="url(#gradient6)" fill-rule="evenodd" stroke="none"/>
    <path d="M19.75 15.55 L20.5 15.05 20.9 14.65 21.85 13.4 21.9 14.25 21.3 15.1 19.55 17.15 19.3 17.4 19.2 17.4 19.2 17.05 Q19.2 16.7 19.7 15.6 L19.75 15.55" fill="url(#gradient7)" fill-rule="evenodd" stroke="none"/>
    <path d="M9.85 18.8 L9.95 19.0 10.15 19.15 11.5 19.45 11.6 19.45 Q11.9 19.4 12.1 19.15 L12.7 18.5 12.75 18.55 12.85 18.95 12.85 19.45 15.4 17.45 14.85 19.4 15.6 19.4 18.05 19.25 18.4 19.3 Q19.3 19.35 20.3 19.85 21.5 20.4 21.35 20.7 L19.9 21.05 18.4 21.15 15.8 21.4 Q13.05 21.65 10.3 21.3 8.25 21.0 8.25 20.65 L8.45 20.4 8.45 20.35 9.05 19.6 9.4 19.2 9.85 18.8" fill="url(#gradient8)" fill-rule="evenodd" stroke="none"/>
    <path d="M7.75 24.85 L8.8 25.45 8.45 25.65 8.4 25.75 Q7.95 26.15 7.95 27.25 L8.15 28.5 8.35 29.75 Q8.65 30.75 9.05 31.2 L9.45 32.0 9.3 32.65 8.3 32.9 7.25 32.9 4.15 32.6 0.95 32.1 0.5 31.85 0.6 31.8 1.55 31.8 0.6 31.8 0.5 31.85 0.35 31.65 0.2 31.2 Q-0.1 29.65 0.1 28.95 L0.15 28.8 0.75 27.55 0.95 27.2 1.9 26.15 2.2 25.95 Q3.6 25.15 4.75 25.15 L6.3 25.35 6.65 25.45 Q6.75 25.4 7.75 24.85 M1.9 26.15 L3.75 27.5 1.9 26.15 M1.8 29.85 Q1.25 29.3 0.1 28.95 1.25 29.3 1.8 29.85" fill="url(#gradient9)" fill-rule="evenodd" stroke="none"/>
    <path d="M15.0 26.45 L15.4 26.65 Q16.75 27.3 17.8 27.3 19.25 27.3 20.3 26.75 L21.05 26.25 21.3 26.05 Q23.2 25.2 24.0 25.2 L24.85 25.3 24.3 25.75 Q23.45 26.55 22.95 27.4 23.45 26.55 24.3 25.75 L24.85 25.3 26.05 25.65 26.2 25.75 26.4 25.95 26.7 26.25 27.6 27.4 27.75 27.65 28.15 28.75 27.5 30.3 Q26.45 31.55 24.05 32.05 L18.7 32.6 14.35 32.65 Q13.8 32.45 14.1 31.75 14.35 31.05 14.75 30.3 L15.1 29.05 15.0 27.95 15.15 27.05 15.0 26.45 M24.35 30.3 L26.5 30.15 27.5 30.3 26.5 30.15 24.35 30.3 M24.15 28.45 Q25.05 27.95 27.5 27.65 L27.75 27.65 27.5 27.65 Q25.05 27.95 24.15 28.45 M28.2 29.1 L28.15 28.8 28.15 28.75 28.2 28.85 28.2 29.1" fill="url(#gradient10)" fill-rule="evenodd" stroke="none"/>
    <path d="M8.8 25.45 L9.75 25.2 11.4 25.25 13.35 25.45 Q14.45 25.75 14.9 26.3 L15.0 26.45 15.15 27.05 15.0 27.95 14.15 29.45 Q12.9 31.25 11.25 31.25 L11.05 31.25 Q10.0 31.15 9.05 30.05 L8.45 29.2 8.15 28.5 7.95 27.25 Q7.95 26.15 8.4 25.75 L8.45 25.65 8.8 25.45 M13.8 26.3 L13.2 26.1 12.6 26.3 Q12.35 26.55 12.35 26.9 L12.6 27.45 13.2 27.7 13.8 27.45 14.05 26.9 13.8 26.3" fill="url(#gradient11)" fill-rule="evenodd" stroke="none"/>
    <path d="M20.05 11.55 L20.35 11.05 20.5 11.95 20.3 13.25 20.15 13.8 19.35 15.65 19.75 15.55 20.5 15.05 20.9 14.65 21.85 13.4 21.9 14.25 21.7 15.6 21.4 16.5 21.35 16.6 M26.35 24.25 Q27.15 23.65 28.2 23.15 31.0 21.75 33.0 21.4 L33.35 21.35 M23.3 19.4 Q23.85 19.8 23.7 21.25 L23.7 21.3 Q23.55 21.95 22.5 22.3 L22.45 22.3 20.15 22.45 M14.35 22.75 L13.05 22.75 12.15 22.75 10.55 22.7 8.5 22.4 Q7.5 22.1 7.5 21.65 7.5 21.5 8.25 20.65 L8.45 20.4 8.45 20.35 9.05 19.6 9.4 19.2 M9.0 24.05 L7.75 24.85 Q6.75 25.4 6.65 25.45 L6.3 25.35 4.75 25.15 Q3.6 25.15 2.2 25.95 L1.9 26.15 0.95 27.2 0.75 27.55 0.15 28.8 0.1 28.95 Q1.25 29.3 1.8 29.85 M8.8 25.45 L9.75 25.2 11.4 25.25 13.35 25.45 Q14.45 25.75 14.9 26.3 L15.0 26.45 15.15 27.05 15.0 27.95 14.15 29.45 Q12.9 31.25 11.25 31.25 L11.05 31.25 10.95 32.7 Q10.95 34.05 11.2 34.55 L11.6 35.1 16.55 35.15 23.1 35.1 Q24.55 35.1 25.8 34.25 27.6 33.05 28.05 30.4 L27.5 30.3 26.5 30.15 24.35 30.3 M24.85 25.3 L26.35 24.25 M25.95 25.55 L26.05 25.65 26.2 25.75 26.4 25.95 26.7 26.25 27.6 27.4 27.75 27.65 28.45 27.55 32.25 27.45 M17.4 1.1 Q18.35 0.25 19.05 0.0 L19.1 0.0 Q18.8 0.35 18.15 6.05 L17.65 10.9 17.5 13.85 17.5 14.0 17.5 14.15 18.75 12.95 20.05 11.55 M12.55 11.2 L12.6 14.6 11.5 13.4 11.45 13.35 10.55 12.25 10.5 12.2 10.85 14.5 11.0 15.3 11.05 15.7 Q11.2 16.65 11.7 17.5 L11.6 17.55 M12.55 11.2 Q12.5 8.4 12.9 7.35 13.55 5.55 15.1 3.6 L17.4 1.1 M9.0 24.05 L8.65 23.6 Q8.4 23.0 8.5 22.4 M28.15 28.75 L27.75 27.65 27.5 27.65 Q25.05 27.95 24.15 28.45 M8.15 28.5 L7.95 27.25 Q7.95 26.15 8.4 25.75 L8.45 25.65 8.8 25.45 M11.05 31.25 Q10.0 31.15 9.05 30.05 L8.45 29.2 8.15 28.5 M0.5 31.85 L0.4 31.9 Q0.7 32.95 1.2 33.4 L2.95 34.75 Q3.9 35.35 6.5 35.3 L7.4 35.25 11.6 35.1 M3.75 27.5 L1.9 26.15 -0.65 25.1 Q-3.75 24.05 -5.1 24.5 M0.5 31.85 L0.6 31.8 1.55 31.8 M0.35 31.65 L0.2 31.2 Q-0.1 29.65 0.1 28.95 L-1.2 28.6 Q-3.4 28.25 -4.1 28.85 M0.35 31.65 L0.4 31.9 Q-4.35 33.6 -4.85 34.5 M28.05 30.4 L30.7 31.15 Q32.1 31.65 33.1 32.5 M28.15 28.8 L28.15 29.3 28.05 30.4 M28.15 28.8 L28.2 29.1 M28.2 28.85 L28.15 28.75 28.15 28.8 M24.85 25.3 L24.3 25.75 Q23.45 26.55 22.95 27.4" fill="none" stroke="#4f0202" stroke-linecap="round" stroke-linejoin="round" stroke-opacity="0.49803922" stroke-width="1"/>
  </g>
  <defs>
    <linearGradient gradientTransform="matrix(0.0, 0.0026, -0.0105, 0.0, 19.55, 33.5)" gradientUnits="userSpaceOnUse" id="gradient0" spreadMethod="pad" x1="-819.2" x2="819.2">
      <stop offset="0.0" stop-color="#774e30"></stop>
      <stop offset="1.0" stop-color="#c67e47"></stop>
    </linearGradient>
    <linearGradient gradientTransform="matrix(0.0, 0.0042, -0.0069, 0.0, 6.0, 34.75)" gradientUnits="userSpaceOnUse" id="gradient1" spreadMethod="pad" x1="-819.2" x2="819.2">
      <stop offset="0.0" stop-color="#774e30"></stop>
      <stop offset="1.0" stop-color="#c67e47"></stop>
    </linearGradient>
    <linearGradient gradientTransform="matrix(-0.0069, -5.0E-4, 0.0011, -0.0142, 14.1, 11.3)" gradientUnits="userSpaceOnUse" id="gradient2" spreadMethod="pad" x1="-819.2" x2="819.2">
      <stop offset="0.0" stop-color="#774e30"></stop>
      <stop offset="1.0" stop-color="#c67e47"></stop>
    </linearGradient>
    <linearGradient gradientTransform="matrix(-0.0096, -9.0E-4, 3.0E-4, -0.0033, 12.25, 24.05)" gradientUnits="userSpaceOnUse" id="gradient3" spreadMethod="pad" x1="-819.2" x2="819.2">
      <stop offset="0.0" stop-color="#774e30"></stop>
      <stop offset="1.0" stop-color="#c67e47"></stop>
    </linearGradient>
    <linearGradient gradientTransform="matrix(0.0017, -0.008, 0.0019, 4.0E-4, 15.0, 4.9)" gradientUnits="userSpaceOnUse" id="gradient4" spreadMethod="pad" x1="-819.2" x2="819.2">
      <stop offset="0.0" stop-color="#c67e47"></stop>
      <stop offset="1.0" stop-color="#faa667"></stop>
    </linearGradient>
    <linearGradient gradientTransform="matrix(-0.001, -0.0038, 8.0E-4, -2.0E-4, 11.25, 13.65)" gradientUnits="userSpaceOnUse" id="gradient5" spreadMethod="pad" x1="-819.2" x2="819.2">
      <stop offset="0.0" stop-color="#c67e47"></stop>
      <stop offset="1.0" stop-color="#faa667"></stop>
    </linearGradient>
    <linearGradient gradientTransform="matrix(0.0016, -0.0016, 6.0E-4, 6.0E-4, 19.55, 12.85)" gradientUnits="userSpaceOnUse" id="gradient6" spreadMethod="pad" x1="-819.2" x2="819.2">
      <stop offset="0.0" stop-color="#c67e47"></stop>
      <stop offset="1.0" stop-color="#faa667"></stop>
    </linearGradient>
    <linearGradient gradientTransform="matrix(0.0016, -0.0016, 4.0E-4, 4.0E-4, 20.95, 15.05)" gradientUnits="userSpaceOnUse" id="gradient7" spreadMethod="pad" x1="-819.2" x2="819.2">
      <stop offset="0.0" stop-color="#c67e47"></stop>
      <stop offset="1.0" stop-color="#faa667"></stop>
    </linearGradient>
    <linearGradient gradientTransform="matrix(-0.0045, -7.0E-4, 4.0E-4, -0.0027, 13.45, 19.35)" gradientUnits="userSpaceOnUse" id="gradient8" spreadMethod="pad" x1="-819.2" x2="819.2">
      <stop offset="0.0" stop-color="#c67e47"></stop>
      <stop offset="1.0" stop-color="#faa667"></stop>
    </linearGradient>
    <linearGradient gradientTransform="matrix(-0.0023, -0.004, 0.0055, -0.0032, 4.3, 28.1)" gradientUnits="userSpaceOnUse" id="gradient9" spreadMethod="pad" x1="-819.2" x2="819.2">
      <stop offset="0.0" stop-color="#c67e47"></stop>
      <stop offset="1.0" stop-color="#faa667"></stop>
    </linearGradient>
    <linearGradient gradientTransform="matrix(-0.0044, -0.0052, 0.0081, -0.0069, 18.7, 24.45)" gradientUnits="userSpaceOnUse" id="gradient10" spreadMethod="pad" x1="-819.2" x2="819.2">
      <stop offset="0.0" stop-color="#c67e47"></stop>
      <stop offset="1.0" stop-color="#faa667"></stop>
    </linearGradient>
    <linearGradient gradientTransform="matrix(0.0017, 0.001, -0.002, 0.0034, 10.1, 27.15)" gradientUnits="userSpaceOnUse" id="gradient11" spreadMethod="pad" x1="-819.2" x2="819.2">
      <stop offset="0.0" stop-color="#3a3a3a"></stop>
      <stop offset="1.0" stop-color="#000000"></stop>
    </linearGradient>
  </defs>
</svg>