<?xml version="1.0" encoding="UTF-8" standalone="no"?>
<svg xmlns:xlink="http://www.w3.org/1999/xlink" height="13.95px" width="25.7px" xmlns="http://www.w3.org/2000/svg">
  <g transform="matrix(1.0, 0.0, 0.0, 1.0, 1, 1)">
    <path d="M19.05 5.1 L18.9 6.2 Q18.6 6.8 17.8 6.8 17.0 6.8 16.8 6.2 L16.8 5.55 Q16.8 4.8 17.1 4.5 17.6 4.0 19.0 4.0 L19.05 5.1 M2.45 6.9 Q3.25 6.85 3.25 8.0 3.25 9.3 2.5 9.3 1.8 9.3 1.65 8.2 1.65 6.9 2.45 6.9" fill="#ffffff" fill-rule="evenodd" stroke="none"/>
    <path d="M23.7 5.15 Q23.7 6.85 22.75 8.25 21.05 10.75 16.85 10.75 L16.5 10.75 Q14.25 10.55 13.4 8.2 12.95 6.9 13.0 5.6 13.0 3.15 15.0 1.45 15.75 0.8 16.5 0.45 L18.3 0.0 Q21.35 0.0 22.8 2.3 23.7 3.75 23.7 5.15 M22.6 5.1 L22.05 3.75 20.75 1.9 Q19.85 0.9 18.5 1.1 17.4 1.2 16.5 1.65 L16.15 1.8 Q15.2 2.3 14.55 3.35 L13.9 4.7 13.9 5.5 Q13.9 6.6 14.25 7.65 14.9 9.5 16.5 9.7 L16.9 9.7 Q20.5 9.7 21.9 7.65 22.6 6.6 22.6 5.1 M0.35 6.2 Q1.0 4.5 2.6 4.5 4.5 4.5 5.45 6.25 6.1 7.4 6.1 8.35 L5.9 10.2 Q5.3 11.95 3.15 11.95 1.45 11.95 0.55 10.1 0.1 9.15 0.0 8.15 0.0 7.15 0.35 6.2 M4.9 10.0 L5.1 8.95 Q5.1 5.6 2.95 5.45 0.75 5.3 0.75 7.45 0.75 8.35 1.1 9.3 1.7 11.0 3.1 11.0 4.45 11.0 4.9 10.0" fill="#000000" fill-rule="evenodd" stroke="none"/>
  </g>
</svg>