<?xml version="1.0" encoding="UTF-8" standalone="no"?>
<svg xmlns:xlink="http://www.w3.org/1999/xlink" height="13.2px" width="26.3px" xmlns="http://www.w3.org/2000/svg">
  <g transform="matrix(1.0, 0.0, 0.0, 1.0, 1, 1)">
    <path d="M23.45 2.05 Q23.45 3.9 21.7 6.05 19.2 9.1 14.65 9.1 13.55 9.1 13.45 8.15 13.45 5.3 14.05 4.3 15.35 2.05 20.15 0.85 22.3 0.6 23.1 1.3 L23.45 2.05 M4.9 8.8 L4.75 9.6 Q4.4 10.3 3.5 10.3 2.0 10.3 1.3 8.35 0.9 7.2 0.9 6.2 0.9 5.7 1.2 5.15 1.95 5.35 3.4 6.8 4.9 8.25 4.9 8.8" fill="#ffffff" fill-rule="evenodd" stroke="none"/>
    <path d="M23.45 2.05 L23.1 1.3 Q22.3 0.6 20.15 0.85 15.35 2.05 14.05 4.3 13.45 5.3 13.45 8.15 13.55 9.1 14.65 9.1 19.2 9.1 21.7 6.05 23.45 3.9 23.45 2.05 M24.25 2.0 Q24.25 4.0 22.45 6.45 19.75 10.1 14.7 10.1 13.25 10.1 12.7 9.3 L12.45 8.4 12.65 7.6 12.8 6.2 Q12.8 5.05 13.15 4.0 13.5 2.95 15.2 1.85 17.2 0.6 20.1 0.0 L21.35 0.0 Q23.5 0.0 24.1 0.95 24.4 1.45 24.25 2.0 M0.4 4.75 Q0.4 3.65 3.1 5.6 5.75 7.5 5.75 9.3 5.75 11.2 3.55 11.2 1.25 11.2 0.4 8.75 0.0 7.5 0.0 6.15 L0.4 4.75 M4.9 8.8 Q4.9 8.25 3.4 6.8 1.95 5.35 1.2 5.15 0.9 5.7 0.9 6.2 0.9 7.2 1.3 8.35 2.0 10.3 3.5 10.3 4.4 10.3 4.75 9.6 L4.9 8.8" fill="#a36a6a" fill-rule="evenodd" stroke="none"/>
  </g>
</svg>