<?xml version="1.0" encoding="UTF-8" standalone="no"?>
<svg xmlns:xlink="http://www.w3.org/1999/xlink" height="58.15px" width="67.55px" xmlns="http://www.w3.org/2000/svg">
  <g transform="matrix(1.0, 0.0, 0.0, 1.0, 33.8, 29.05)">
    <path d="M0.0 -20.5 L-0.1 -20.85 Q-0.9 -22.95 -2.5 -24.9 L-4.65 -27.6 Q-4.65 -28.75 -0.8 -26.85 L3.1 -24.7 5.35 -22.65 5.8 -22.2 6.0 -22.0 7.2 -20.8 8.05 -19.75 Q9.2 -21.55 11.25 -22.65 L13.85 -23.7 18.3 -25.05 19.8 -25.05 19.95 -24.7 18.75 -23.55 18.35 -23.2 16.05 -20.55 15.8 -20.2 15.7 -20.05 15.65 -20.0 16.25 -20.25 16.95 -20.4 17.3 -20.4 17.4 -20.25 16.8 -19.6 16.2 -19.2 16.1 -19.15 16.0 -19.15 16.1 -19.05 17.0 -18.45 17.9 -17.65 Q19.15 -16.6 19.15 -13.35 L19.05 -11.9 18.85 -11.7 17.65 -15.75 Q16.55 -18.8 12.5 -18.8 L12.45 -18.8 11.85 -18.85 11.85 -18.75 11.8 -19.0 Q11.8 -20.25 12.9 -20.25 L14.3 -19.95 14.7 -19.75 Q14.8 -20.3 16.0 -21.85 L17.4 -23.5 17.55 -23.7 17.8 -24.0 Q15.65 -23.7 13.55 -22.5 L11.1 -20.95 9.0 -19.25 8.0 -18.5 7.25 -19.35 5.85 -20.85 4.9 -21.75 3.6 -23.0 Q1.1 -25.3 -1.35 -25.95 L-1.85 -26.1 -0.15 -23.75 Q1.05 -22.0 1.05 -21.25 L0.9 -20.4 0.85 -20.2 0.85 -20.05 0.8 -20.0 0.7 -19.6 0.6 -19.45 0.35 -19.15 0.35 -19.3 0.0 -20.5 M21.9 -19.0 L21.7 -19.15 21.85 -19.05 22.8 -18.5 24.3 -17.65 25.85 -16.6 26.3 -16.3 Q29.65 -13.85 30.85 -11.15 L31.1 -10.55 32.35 -6.45 Q32.75 -4.75 32.75 -3.5 L32.7 -1.95 31.95 1.3 30.75 -0.25 28.0 -3.85 26.95 -5.25 30.4 9.2 Q25.45 8.05 22.4 5.15 21.0 3.8 20.0 2.1 L19.5 1.2 Q18.65 -0.4 18.15 -2.3 L17.65 -4.0 Q17.1 1.4 15.7 5.3 L15.7 5.4 13.8 9.3 11.55 12.05 5.2 17.95 2.1 20.45 1.5 20.2 2.6 17.35 2.75 16.8 Q3.65 13.75 3.8 10.65 3.95 7.7 3.5 4.65 1.85 7.4 0.4 10.3 -3.55 18.0 -6.3 26.7 L-6.7 28.0 -6.75 28.1 Q-8.6 19.85 -8.3 11.35 -11.35 13.95 -13.85 17.0 L-14.1 17.35 Q-17.65 21.7 -20.05 26.9 -22.45 20.25 -22.35 15.2 -22.35 13.35 -22.0 11.75 L-21.15 9.0 Q-19.65 5.5 -17.85 3.15 -16.75 1.6 -15.55 0.55 L-14.45 -0.3 -16.8 0.95 -17.75 1.45 Q-25.9 6.05 -32.35 13.0 L-32.8 12.6 -32.3 10.5 -31.8 8.45 Q-28.3 -4.8 -22.05 -11.6 -14.9 -19.45 -10.6 -20.6 L-5.85 -21.1 -4.15 -20.65 -3.9 -20.55 -3.95 -20.55 -3.3 -20.25 -2.7 -19.85 -2.55 -19.75 -4.4 -19.95 -4.85 -19.95 -6.5 -19.95 Q-13.45 -19.6 -18.75 -13.85 -26.35 -5.7 -29.7 4.9 L-31.0 9.85 Q-24.3 3.45 -16.15 -0.4 L-11.55 -2.35 -10.1 -2.6 -9.5 -2.6 Q-10.9 -1.9 -12.1 -1.05 L-12.45 -0.8 Q-19.3 3.9 -20.9 12.35 L-21.1 13.6 Q-21.5 16.65 -20.85 19.85 L-19.9 24.75 Q-17.6 19.4 -13.8 15.3 L-12.9 14.4 Q-10.6 12.05 -7.8 10.1 L-6.8 25.8 -5.85 22.55 Q-3.8 16.1 -0.8 10.15 L0.55 7.65 Q1.9 5.2 3.4 2.9 L3.8 1.7 4.2 3.3 4.9 7.1 5.05 10.7 4.8 12.8 4.2 15.4 3.65 17.45 Q8.85 14.1 11.9 10.0 14.75 6.05 15.65 1.4 L16.4 -2.6 16.65 -4.05 17.5 -9.5 Q18.55 -3.0 20.3 0.3 L20.75 1.05 20.95 1.35 23.5 4.5 24.55 5.3 25.85 6.05 28.95 7.45 27.35 2.2 26.15 -2.6 25.55 -5.6 25.25 -7.6 25.2 -7.8 Q25.95 -7.45 26.7 -6.9 L28.85 -4.8 29.05 -4.55 29.1 -4.45 31.35 -0.9 Q31.5 -3.55 31.15 -5.8 30.8 -8.2 29.85 -10.15 28.95 -12.0 27.6 -13.4 L27.55 -13.45 21.9 -19.0 M3.55 -16.1 L3.25 -16.7 2.65 -17.2 Q1.9 -17.7 0.8 -17.8 L-0.45 -17.9 Q-1.45 -17.9 -3.75 -15.85 L-6.25 -13.6 Q-6.85 -13.05 -6.9 -13.05 L-7.2 -13.1 -7.3 -13.45 Q-7.3 -13.9 -5.8 -15.25 L-2.6 -17.8 Q-1.05 -18.95 0.35 -19.0 L0.7 -19.0 Q1.75 -18.95 2.7 -18.3 L3.05 -18.05 Q4.25 -17.15 4.45 -16.35 L4.5 -16.25 4.5 -16.0 4.45 -15.4 4.1 -15.25 3.55 -16.1" fill="#a36a6a" fill-rule="evenodd" stroke="none"/>
    <path d="M-3.9 -20.55 L-2.3 -20.55 0.0 -20.5 0.35 -19.3 0.35 -19.15 0.6 -19.45 0.7 -19.0 0.35 -19.0 Q-1.05 -18.95 -2.6 -17.8 L-5.8 -15.25 Q-7.3 -13.9 -7.3 -13.45 L-7.2 -13.1 -6.9 -13.05 Q-6.85 -13.05 -6.25 -13.6 L-3.75 -15.85 Q-1.45 -17.9 -0.45 -17.9 L0.8 -17.8 Q1.9 -17.7 2.65 -17.2 L3.25 -16.7 3.55 -16.1 Q2.55 -15.8 1.45 -14.9 L0.75 -14.35 Q-1.45 -12.4 -3.35 -9.35 L-0.1 -14.9 -0.25 -14.85 -7.6 -8.9 -13.0 -4.4 -10.6 -7.0 -8.1 -9.75 -13.35 -6.3 -15.75 -4.75 -22.85 -0.15 -22.9 -0.25 Q-15.05 -9.35 -13.4 -10.05 -17.5 -8.45 -23.75 -2.2 -27.4 1.5 -29.7 4.9 -26.35 -5.7 -18.75 -13.85 -13.45 -19.6 -6.5 -19.95 L-4.85 -19.95 -4.4 -19.95 -2.55 -19.75 -2.7 -19.85 -3.3 -20.25 -3.95 -20.55 -3.9 -20.55 M-1.35 -25.95 Q1.1 -25.3 3.6 -23.0 L4.9 -21.75 5.85 -20.85 7.25 -19.35 7.4 -18.9 7.4 -16.05 5.8 -17.95 5.6 -18.2 4.05 -19.95 3.55 -20.45 3.55 -20.3 3.75 -19.45 4.0 -18.0 3.5 -18.95 2.0 -22.35 Q0.7 -24.75 -1.35 -25.95 M9.0 -19.25 L11.1 -20.95 13.55 -22.5 Q15.65 -23.7 17.8 -24.0 L17.55 -23.7 17.4 -23.5 Q14.9 -22.35 13.15 -21.1 10.0 -18.95 9.25 -16.8 L9.1 -16.8 Q8.95 -16.95 8.95 -17.9 L9.0 -19.25 M9.7 -9.1 L9.8 -8.7 10.7 -4.25 13.15 -15.45 13.35 -10.65 Q13.35 -5.3 11.55 0.1 L8.1 9.2 8.05 9.2 8.25 6.15 8.35 3.5 Q8.35 0.6 8.05 -0.7 L7.85 -1.4 7.4 -3.7 6.45 0.1 Q5.5 3.1 5.5 4.15 L5.45 4.1 4.9 -1.15 4.55 -3.45 3.2 -8.25 2.5 -10.05 2.5 -9.9 2.3 -10.55 2.05 -11.65 2.15 -11.7 Q3.6 -11.15 4.9 -9.7 L5.55 -8.9 8.2 -5.3 8.35 -13.65 9.7 -9.1 M-20.9 12.35 Q-19.3 3.9 -12.45 -0.8 L-12.1 -1.05 -10.1 -2.0 -9.5 -2.25 -4.1 -4.8 Q-2.9 -5.35 -2.4 -5.6 -4.05 -3.5 -6.05 -1.6 -8.2 0.4 -10.7 2.2 L-13.6 4.05 -14.0 4.2 -13.85 4.2 -13.6 4.05 -10.95 3.1 -8.05 2.1 -6.05 1.5 -6.0 1.55 -8.55 3.2 -11.6 5.7 -14.6 8.75 Q-18.4 13.25 -19.65 17.65 L-19.05 13.95 -18.2 9.75 -18.2 9.6 Q-19.5 10.25 -20.9 12.35 M-8.1 -9.75 L-7.9 -9.9 -7.9 -10.05 -8.1 -9.75 M-3.05 -19.15 L-2.95 -19.1 -2.95 -19.15 -3.05 -19.15" fill="url(#gradient0)" fill-rule="evenodd" stroke="none"/>
    <path d="M-8.1 -9.75 L-7.9 -10.05 -7.9 -9.9 -8.1 -9.75 M-13.6 4.05 L-13.85 4.2 -14.0 4.2 -13.6 4.05 M26.0 3.3 L26.0 3.35 25.9 3.1 26.0 3.3" fill="#cca9a9" fill-rule="evenodd" stroke="none"/>
    <path d="M16.65 -4.05 L16.4 -2.6 15.65 1.4 Q14.75 6.05 11.9 10.0 8.85 14.1 3.65 17.45 L4.2 15.4 7.3 11.7 7.95 10.8 11.1 5.85 8.7 10.75 6.95 14.1 7.05 14.1 9.85 10.55 10.6 9.45 Q11.7 7.75 13.15 4.25 14.6 0.75 15.0 -11.4 L16.05 -7.5 16.65 -4.1 16.65 -4.05 M0.55 7.65 L-0.8 10.15 Q-3.8 16.1 -5.85 22.55 -5.2 16.9 -4.65 15.0 -4.05 12.8 -2.7 9.9 -0.85 5.9 2.35 0.6 L2.4 0.6 0.55 7.65 M25.85 6.05 L24.55 3.9 23.7 2.25 22.75 -0.05 22.15 -1.75 Q21.5 -4.05 21.45 -6.0 L21.6 -6.0 23.05 -2.75 23.9 -0.95 25.7 2.75 Q25.0 1.3 24.5 -1.4 L24.05 -3.85 23.95 -4.35 Q23.15 -9.75 23.4 -12.9 L23.55 -12.45 Q23.65 -11.75 24.95 -8.4 L25.25 -7.6 25.55 -5.6 26.15 -2.6 27.35 2.2 28.95 7.45 25.85 6.05 M28.85 -4.8 L27.8 -8.1 26.15 -13.05 26.4 -12.9 28.35 -9.25 28.55 -8.9 30.25 -5.3 30.3 -5.1 30.3 -5.6 29.1 -9.45 28.75 -10.3 27.6 -13.4 Q28.95 -12.0 29.85 -10.15 30.8 -8.2 31.15 -5.8 31.5 -3.55 31.35 -0.9 L29.1 -4.45 29.05 -4.55 28.85 -4.8 M26.0 3.3 L25.9 3.1 26.0 3.35 26.0 3.3" fill="url(#gradient1)" fill-rule="evenodd" stroke="none"/>
    <path d="M16.05 -20.55 L16.3 -20.85 Q16.95 -21.05 19.55 -20.0 L21.9 -19.0 27.55 -13.45 27.6 -13.4 28.75 -10.3 29.1 -9.45 30.3 -5.6 30.3 -5.1 30.25 -5.3 28.55 -8.9 28.35 -9.25 26.4 -12.9 26.15 -13.05 27.8 -8.1 28.85 -4.8 26.7 -6.9 Q25.95 -7.45 25.2 -7.8 L25.25 -7.6 24.95 -8.4 Q23.65 -11.75 23.55 -12.45 L23.4 -12.9 Q23.15 -9.75 23.95 -4.35 L24.05 -3.85 24.5 -1.4 Q25.0 1.3 25.7 2.75 L23.9 -0.95 23.05 -2.75 21.6 -6.0 21.45 -6.0 Q21.5 -4.05 22.15 -1.75 L22.75 -0.05 23.7 2.25 24.55 3.9 25.85 6.05 24.55 5.3 23.5 4.5 20.95 1.35 20.75 1.05 20.3 0.3 Q18.55 -3.0 17.5 -9.5 L16.65 -4.05 16.65 -4.1 16.05 -7.5 15.0 -11.4 Q14.6 0.75 13.15 4.25 11.7 7.75 10.6 9.45 L9.85 10.55 7.05 14.1 6.95 14.1 8.7 10.75 11.1 5.85 7.95 10.8 7.3 11.7 4.2 15.4 4.8 12.8 5.05 10.7 4.9 7.1 4.2 3.3 3.8 1.7 3.4 2.9 Q1.9 5.2 0.55 7.65 L2.4 0.6 2.35 0.6 Q-0.85 5.9 -2.7 9.9 -4.05 12.8 -4.65 15.0 -5.2 16.9 -5.85 22.55 L-6.8 25.8 -7.8 10.1 Q-10.6 12.05 -12.9 14.4 L-13.8 15.3 Q-17.6 19.4 -19.9 24.75 L-20.85 19.85 Q-21.5 16.65 -21.1 13.6 L-20.9 12.35 Q-19.5 10.25 -18.2 9.6 L-18.2 9.75 -19.05 13.95 -19.65 17.65 Q-18.4 13.25 -14.6 8.75 L-11.6 5.7 -8.55 3.2 -6.0 1.55 -6.05 1.5 -8.05 2.1 -10.95 3.1 -13.6 4.05 -10.7 2.2 Q-8.2 0.4 -6.05 -1.6 -4.05 -3.5 -2.4 -5.6 -2.9 -5.35 -4.1 -4.8 L-9.5 -2.25 -10.1 -2.0 -12.1 -1.05 Q-10.9 -1.9 -9.5 -2.6 L-10.1 -2.6 -11.55 -2.35 -16.15 -0.4 Q-24.3 3.45 -31.0 9.85 L-29.7 4.9 Q-27.4 1.5 -23.75 -2.2 -17.5 -8.45 -13.4 -10.05 -15.05 -9.35 -22.9 -0.25 L-22.85 -0.15 -15.75 -4.75 -13.35 -6.3 -8.1 -9.75 -10.6 -7.0 -13.0 -4.4 -7.6 -8.9 -0.25 -14.85 -0.1 -14.9 -3.35 -9.35 Q-1.45 -12.4 0.75 -14.35 L1.45 -14.9 Q2.55 -15.8 3.55 -16.1 L4.1 -15.25 4.45 -15.4 4.5 -16.0 4.5 -16.25 4.45 -16.35 Q4.25 -17.15 3.05 -18.05 L2.7 -18.3 Q1.75 -18.95 0.7 -19.0 L0.6 -19.45 0.7 -19.6 0.8 -20.0 0.85 -20.05 0.85 -20.2 0.9 -20.4 1.05 -21.25 Q1.05 -22.0 -0.15 -23.75 L-1.85 -26.1 -1.35 -25.95 Q0.7 -24.75 2.0 -22.35 L3.5 -18.95 4.0 -18.0 3.75 -19.45 3.55 -20.3 3.55 -20.45 4.05 -19.95 5.6 -18.2 5.8 -17.95 7.4 -16.05 7.4 -18.9 7.25 -19.35 8.0 -18.5 9.0 -19.25 8.95 -17.9 Q8.95 -16.95 9.1 -16.8 L9.25 -16.8 Q10.0 -18.95 13.15 -21.1 14.9 -22.35 17.4 -23.5 L16.0 -21.85 Q14.8 -20.3 14.7 -19.75 L14.3 -19.95 12.9 -20.25 Q11.8 -20.25 11.8 -19.0 L11.85 -18.75 11.85 -18.85 12.45 -18.8 12.5 -18.8 Q16.55 -18.8 17.65 -15.75 L18.85 -11.7 19.05 -11.9 19.15 -13.35 Q19.15 -16.6 17.9 -17.65 L17.0 -18.45 16.1 -19.05 16.1 -19.15 16.2 -19.2 16.8 -19.6 17.4 -20.25 17.3 -20.4 16.95 -20.4 16.25 -20.25 15.65 -20.0 15.7 -20.05 15.8 -20.2 16.05 -20.55 M9.7 -9.1 L8.35 -13.65 8.2 -5.3 5.55 -8.9 4.9 -9.7 Q3.6 -11.15 2.15 -11.7 L2.05 -11.65 2.3 -10.55 2.5 -9.9 2.5 -10.05 3.2 -8.25 4.55 -3.45 4.9 -1.15 5.45 4.1 5.5 4.15 Q5.5 3.1 6.45 0.1 L7.4 -3.7 7.85 -1.4 8.05 -0.7 Q8.35 0.6 8.35 3.5 L8.25 6.15 8.05 9.2 8.1 9.2 11.55 0.1 Q13.35 -5.3 13.35 -10.65 L13.15 -15.45 10.7 -4.25 9.8 -8.7 9.7 -9.1" fill="url(#gradient2)" fill-rule="evenodd" stroke="none"/>
  </g>
  <defs>
    <radialGradient cx="0" cy="0" gradientTransform="matrix(0.0328, -0.0089, 0.0083, 0.0307, -109.45, -26.75)" gradientUnits="userSpaceOnUse" id="gradient0" r="819.2" spreadMethod="pad">
      <stop offset="0.47843137254901963" stop-color="#ffffff"></stop>
      <stop offset="0.8823529411764706" stop-color="#f2eaea"></stop>
    </radialGradient>
    <radialGradient cx="0" cy="0" gradientTransform="matrix(0.0328, -0.0089, 0.0083, 0.0307, -22.8, -14.35)" gradientUnits="userSpaceOnUse" id="gradient1" r="819.2" spreadMethod="pad">
      <stop offset="0.47843137254901963" stop-color="#ffffff"></stop>
      <stop offset="0.8823529411764706" stop-color="#f2eaea"></stop>
    </radialGradient>
    <radialGradient cx="0" cy="0" gradientTransform="matrix(0.0173, 0.0, 0.0, 0.0093, 7.6, -13.4)" gradientUnits="userSpaceOnUse" id="gradient2" r="819.2" spreadMethod="pad">
      <stop offset="0.0" stop-color="#b98a8a"></stop>
      <stop offset="1.0" stop-color="#cca9a9"></stop>
    </radialGradient>
  </defs>
</svg>