<?xml version="1.0" encoding="UTF-8" standalone="no"?>
<svg xmlns:xlink="http://www.w3.org/1999/xlink" height="10.7px" width="10.05px" xmlns="http://www.w3.org/2000/svg">
  <g transform="matrix(1.0, 0.0, 0.0, 1.0, 1, 1)">
    <path d="M0.7 4.4 Q0.0 3.2 0.0 2.35 0.0 1.55 0.25 1.3 0.5 0.9 1.65 0.55 L5.35 0.0 7.75 0.15 Q7.9 0.2 8.05 0.35 L8.05 0.55 7.9 1.1 7.65 1.0 5.95 0.75 5.7 0.75 Q6.35 1.9 6.35 3.15 L6.35 3.7 6.15 4.85 6.0 5.55 5.3 7.25 7.3 7.9 7.45 7.9 7.5 8.7 7.35 8.7 Q6.35 8.7 4.15 7.5 2.8 6.65 1.95 6.0 1.25 5.5 0.7 4.45 L0.7 4.4 M5.75 3.75 L5.75 3.05 5.4 1.45 5.15 0.8 3.35 0.95 2.05 1.3 1.05 1.65 0.95 1.7 Q0.8 1.8 0.8 2.3 L0.8 2.35 0.95 3.1 1.1 3.55 1.1 3.5 1.4 4.1 2.5 5.45 4.65 6.9 4.7 6.95 5.2 5.75 5.6 4.6 5.75 3.75" fill="#624040" fill-rule="evenodd" stroke="none"/>
    <path d="M7.45 7.9 L7.3 7.9 5.3 7.25 6.0 5.55 6.15 4.85 6.35 3.7 Q7.05 2.9 7.55 1.35 L7.65 1.0 7.9 1.1 Q7.6 2.2 7.6 4.2 L7.5 7.1 7.45 7.9 M1.05 1.65 L1.9 2.45 4.75 3.9 5.75 3.75 5.6 4.6 5.2 5.75 4.7 6.95 4.65 6.9 2.5 5.45 1.4 4.1 1.1 3.5 1.1 3.55 0.95 3.1 0.8 2.35 0.8 2.3 Q0.8 1.8 0.95 1.7 L1.05 1.65" fill="#da952e" fill-rule="evenodd" stroke="none"/>
    <path d="M6.35 3.7 L6.35 3.15 Q6.35 1.9 5.7 0.75 L5.95 0.75 7.65 1.0 7.55 1.35 Q7.05 2.9 6.35 3.7 M1.05 1.65 L2.05 1.3 3.35 0.95 5.15 0.8 5.4 1.45 5.75 3.05 5.75 3.75 4.75 3.9 1.9 2.45 1.05 1.65" fill="#edd823" fill-rule="evenodd" stroke="none"/>
    <path d="M0.7 4.4 L0.7 4.45 0.65 4.4 0.7 4.4" fill="#a36a6a" fill-rule="evenodd" stroke="none"/>
  </g>
</svg>