<?xml version="1.0" encoding="UTF-8" standalone="no"?>
<svg xmlns:xlink="http://www.w3.org/1999/xlink" height="48.05px" width="70.7px" xmlns="http://www.w3.org/2000/svg">
  <g transform="matrix(1.0, 0.0, 0.0, 1.0, 40.45, 21.05)">
    <path d="M17.6 -9.05 L17.3 -9.3 Q10.95 -14.25 3.45 -13.65 L0.45 -13.2 -1.35 -12.75 -1.75 -13.0 -0.5 -13.5 -0.35 -13.6 Q2.1 -14.55 4.65 -14.7 10.6 -15.25 16.25 -11.4 L18.6 -9.8 21.55 -7.3 23.0 -5.9 17.4 -6.15 13.45 -6.65 16.75 -2.0 22.7 6.5 22.9 6.8 29.25 16.15 Q23.05 14.65 15.3 15.05 L11.6 15.4 5.1 16.55 3.4 16.9 9.1 21.15 Q2.25 23.0 -4.55 22.4 L-7.4 22.05 -9.85 21.55 Q-12.3 21.0 -14.75 20.1 L-9.4 24.65 -10.35 24.95 -10.8 25.05 Q-14.45 26.05 -17.4 26.0 -19.7 25.9 -22.85 24.75 L-26.65 23.1 Q-29.45 21.75 -30.95 19.25 L-32.25 20.75 Q-34.45 22.8 -37.95 22.8 L-38.25 22.7 -38.4 22.7 -38.4 22.4 -36.95 20.55 Q-35.3 18.35 -34.5 15.75 -34.15 14.45 -34.2 12.45 L-34.35 9.1 Q-34.35 7.0 -33.65 4.7 L-32.6 2.4 -32.6 2.2 Q-34.85 1.65 -37.2 -2.25 -39.45 -5.95 -39.45 -7.05 L-39.45 -7.4 Q-38.3 -6.35 -35.8 -5.3 -33.65 -4.4 -31.5 -4.25 L-26.05 -4.55 -25.6 -4.75 Q-27.15 -7.35 -26.95 -10.55 L-26.75 -11.7 Q-25.45 -9.25 -23.0 -7.8 L-22.05 -7.3 -21.05 -6.9 Q-20.55 -11.65 -17.9 -15.45 -16.15 -17.8 -13.35 -19.0 L-10.85 -20.05 Q-13.3 -17.05 -13.95 -13.3 L-14.25 -10.9 Q-11.75 -13.05 -8.75 -14.35 L-7.7 -14.8 -6.65 -15.15 -7.45 -11.4 -7.8 -10.9 -9.1 -8.9 -9.05 -9.0 -7.8 -13.55 -9.85 -12.65 Q-12.4 -11.45 -14.15 -9.65 L-14.75 -9.05 -15.35 -9.25 Q-15.0 -13.25 -14.05 -17.2 L-13.9 -17.85 Q-18.3 -14.95 -19.6 -10.2 -20.0 -8.6 -20.05 -6.75 L-20.05 -6.65 -21.1 -6.65 -21.3 -6.55 -21.55 -6.5 -22.05 -6.55 Q-24.25 -7.0 -25.55 -8.6 L-26.4 -9.8 Q-26.0 -7.1 -24.75 -5.15 L-25.45 -4.75 -28.5 -1.8 -28.85 -1.35 Q-30.5 0.55 -31.5 2.65 L-31.7 3.2 Q-32.45 4.9 -32.75 6.7 L-32.7 4.85 -33.15 6.3 Q-33.55 8.05 -33.35 11.45 -33.1 17.2 -36.45 21.6 L-36.6 21.65 -36.45 21.65 Q-34.25 21.25 -32.7 19.7 L-31.45 18.25 Q-32.6 15.8 -32.7 12.45 L-31.45 15.9 Q-28.3 22.3 -21.95 24.05 L-17.55 24.75 -12.55 24.4 -11.65 24.2 -16.45 20.25 -17.55 19.2 -21.25 15.3 -22.15 14.3 -17.55 17.6 -14.55 19.05 -14.1 19.25 Q-11.15 20.5 -7.85 21.0 L-6.4 21.2 -2.7 21.3 5.8 20.5 3.7 18.75 2.65 18.05 2.4 17.9 2.35 17.9 0.9 17.2 -1.1 16.6 -2.4 16.15 Q-4.2 15.6 -6.0 14.35 L-6.65 13.9 -8.8 12.15 Q-11.3 9.9 -12.95 7.15 L-13.9 5.3 -13.85 5.15 -12.4 6.8 -11.5 7.95 -9.5 10.15 -8.4 11.0 -4.75 13.7 -4.1 14.1 0.15 15.5 1.5 15.85 2.4 16.15 Q5.6 15.1 8.15 14.65 L10.0 14.4 10.85 14.3 14.7 14.05 15.45 14.05 20.25 14.0 24.85 14.2 25.65 14.25 16.7 6.1 11.0 1.6 5.65 -1.7 8.35 -0.8 8.75 -0.6 8.85 -0.55 9.75 -0.05 13.1 2.0 Q16.85 4.35 18.85 6.2 L25.05 12.2 21.1 6.55 17.15 0.7 15.55 -1.6 13.35 -4.55 11.05 -6.9 9.8 -7.75 8.95 -8.15 4.15 -9.4 1.8 -9.65 Q1.95 -9.95 3.3 -10.1 L7.3 -9.85 9.25 -9.55 11.6 -8.4 14.05 -8.1 19.7 -7.15 18.3 -8.55 17.6 -9.05 M1.85 -9.4 L1.8 -9.3 1.75 -9.4 1.85 -9.4 M-0.5 5.5 L4.5 7.7 7.15 8.65 7.7 8.8 12.05 10.15 11.6 10.45 7.15 9.35 6.05 9.0 Q0.7 7.4 -3.5 5.15 L-7.05 3.0 -7.6 2.5 -9.7 0.4 -10.25 -0.35 -10.5 -0.75 -10.85 -1.55 -10.65 -1.55 -10.2 -1.0 -10.0 -0.85 -9.8 -0.65 Q-8.5 0.85 -6.15 2.4 L-1.8 4.85 -0.5 5.5 M-27.95 -3.3 L-31.4 -3.3 Q-35.15 -3.2 -37.7 -4.95 L-35.65 -1.4 Q-34.4 0.4 -32.2 1.5 L-31.35 0.25 -30.75 -0.45 -29.85 -1.35 -27.9 -3.25 -27.9 -3.35 -27.95 -3.3" fill="#a36a6a" fill-rule="evenodd" stroke="none"/>
    <path d="M-4.9 -0.1 L-3.55 0.65 -2.15 1.4 Q0.65 2.65 9.85 5.5 7.15 4.3 4.15 0.05 3.0 -1.5 2.35 -2.8 1.0 -5.2 0.9 -6.85 L1.05 -6.8 Q1.95 -6.25 6.1 -4.7 L7.2 -4.3 Q11.7 -2.6 16.5 0.5 L16.5 0.45 13.8 -3.85 13.35 -4.55 15.55 -1.6 17.15 0.7 18.2 3.8 18.2 3.95 Q16.25 2.15 12.7 0.75 L8.75 -0.65 8.85 -0.55 8.75 -0.6 8.35 -0.8 5.65 -1.7 11.0 1.6 18.6 8.6 18.9 8.85 19.05 9.0 18.45 8.7 11.4 4.65 11.35 4.75 16.95 9.5 17.6 10.05 20.0 11.95 18.55 11.95 14.1 12.4 13.15 12.5 11.35 12.7 8.1 13.1 4.65 13.4 4.7 13.45 8.9 14.2 10.0 14.4 8.15 14.65 Q5.6 15.1 2.4 16.15 L1.5 15.85 0.15 15.5 -4.1 14.1 -4.75 13.7 -8.4 11.0 -9.5 10.15 -11.5 7.95 -12.4 6.8 -13.85 5.15 -13.9 5.3 -12.95 7.15 Q-11.3 9.9 -8.8 12.15 L-6.65 13.9 -6.0 14.35 Q-4.2 15.6 -2.4 16.15 L-1.1 16.6 0.9 17.2 2.35 17.9 2.4 17.9 2.3 18.05 -1.95 17.3 -8.95 15.9 -9.3 15.75 -8.95 15.9 -3.9 17.85 -2.95 18.2 0.5 19.4 1.65 19.7 1.8 19.7 -0.55 20.05 -5.95 20.75 -7.85 21.0 Q-11.15 20.5 -14.1 19.25 L-14.55 19.05 -17.55 17.6 -22.15 14.3 -21.25 15.3 Q-21.8 14.8 -22.35 14.55 L-22.45 14.65 Q-20.2 18.3 -17.5 20.9 L-16.5 21.8 Q-14.4 23.65 -12.55 24.4 L-17.55 24.75 -21.95 24.05 Q-28.3 22.3 -31.45 15.9 L-32.7 12.45 Q-32.6 15.8 -31.45 18.25 L-32.7 19.7 Q-34.25 21.25 -36.45 21.65 L-36.45 21.6 Q-33.1 17.2 -33.35 11.45 -33.55 8.05 -33.15 6.3 L-32.7 4.85 -32.75 6.7 Q-32.45 4.9 -31.7 3.2 L-31.95 4.15 Q-32.4 7.2 -31.2 10.35 -29.1 15.45 -24.4 17.95 L-23.2 18.5 Q-26.25 15.05 -26.35 10.35 L-26.35 9.95 -26.1 7.9 -25.35 3.75 -25.2 3.8 -24.65 4.55 -22.55 7.3 -21.95 8.0 -20.5 9.2 -18.7 10.35 -17.55 11.0 -14.4 12.55 -15.55 10.25 -15.8 9.25 Q-16.05 7.75 -15.75 5.95 L-15.4 3.95 -15.35 3.75 -15.3 3.6 -14.5 2.55 -14.35 2.65 -14.25 2.8 -14.15 2.9 -11.3 6.05 -8.9 8.05 Q-6.65 9.6 -2.6 10.25 L1.75 10.85 1.55 10.8 Q-0.8 10.0 -3.6 8.0 -6.9 5.6 -7.5 3.3 L-7.6 2.5 -7.05 3.0 -3.5 5.15 Q0.7 7.4 6.05 9.0 L7.15 9.35 11.6 10.45 12.05 10.15 7.7 8.8 7.15 8.65 4.5 7.7 -0.5 5.5 -2.85 3.5 -4.7 1.4 -6.0 -0.3 -6.6 -1.2 -6.85 -1.35 -6.85 -1.5 -6.6 -1.2 -4.9 -0.1 M7.3 -9.85 L9.4 -10.0 14.1 -9.85 17.0 -9.2 17.6 -9.05 18.3 -8.55 19.7 -7.15 14.05 -8.1 11.6 -8.4 9.25 -9.55 7.3 -9.85 M22.5 13.55 L22.35 13.55 22.1 13.45 22.5 13.55 M-14.05 -17.2 Q-15.0 -13.25 -15.35 -9.25 L-14.75 -9.05 -14.15 -9.65 Q-12.4 -11.45 -9.85 -12.65 -11.15 -11.25 -11.85 -8.95 -11.95 -8.45 -11.25 -7.75 L-9.55 -6.5 -6.35 -4.45 -5.5 -3.8 -6.95 -4.05 -9.85 -5.1 Q-11.45 -5.7 -11.6 -5.95 L-13.15 -2.05 Q-13.65 -5.15 -13.55 -5.6 L-13.75 -5.45 -16.85 -0.45 -17.0 -0.45 -18.0 -2.85 -18.05 -3.0 Q-19.05 -5.35 -19.0 -6.25 L-18.85 -7.1 -16.95 -3.9 -16.8 -3.7 -16.8 -3.75 -16.75 -4.05 -16.9 -5.8 Q-17.25 -7.2 -16.85 -9.85 -16.45 -12.1 -15.15 -15.0 L-14.05 -17.2 M-27.9 -3.25 L-29.85 -1.35 -30.75 -0.45 -31.35 0.25 -32.2 1.5 Q-34.4 0.4 -35.65 -1.4 L-37.7 -4.95 Q-35.15 -3.2 -31.4 -3.3 L-27.95 -3.3 -27.9 -3.25" fill="#cca9a9" fill-rule="evenodd" stroke="none"/>
    <path d="M-0.5 -13.5 L-1.75 -13.0 -1.35 -12.75 0.45 -13.2 3.45 -13.65 Q10.95 -14.25 17.3 -9.3 L17.6 -9.05 17.0 -9.2 14.1 -9.85 9.4 -10.0 7.3 -9.85 3.3 -10.1 Q1.95 -9.95 1.8 -9.65 L4.15 -9.4 8.95 -8.15 9.8 -7.75 11.05 -6.9 13.35 -4.55 13.8 -3.85 16.5 0.45 16.5 0.5 Q11.7 -2.6 7.2 -4.3 L6.1 -4.7 Q1.95 -6.25 1.05 -6.8 L0.9 -6.85 Q1.0 -5.2 2.35 -2.8 3.0 -1.5 4.15 0.05 7.15 4.3 9.85 5.5 0.65 2.65 -2.15 1.4 L-3.55 0.65 -4.9 -0.1 -3.85 0.05 0.7 0.6 -3.9 -5.35 -6.4 -8.5 Q-7.4 -9.85 -7.8 -10.9 L-7.45 -11.4 -2.65 -13.2 -0.5 -13.5 M1.85 -9.4 L1.75 -9.4 1.8 -9.3 1.85 -9.4 M-31.7 3.2 L-31.5 2.65 -30.9 6.0 -29.7 10.35 -29.35 11.05 -29.1 9.5 -28.9 9.15 -28.45 10.35 -27.85 11.3 -27.65 10.25 -27.35 6.1 Q-26.7 2.05 -25.65 0.85 -24.7 4.85 -22.35 7.2 -20.9 8.75 -18.8 9.5 L-18.8 7.5 -18.95 5.3 -16.95 7.35 -16.35 4.9 Q-16.2 4.2 -15.45 3.75 L-15.45 3.7 -15.35 3.75 -15.4 3.95 -15.75 5.95 Q-16.05 7.75 -15.8 9.25 L-15.55 10.25 -14.4 12.55 -17.55 11.0 -18.7 10.35 -20.5 9.2 -21.95 8.0 -22.55 7.3 -24.65 4.55 -25.2 3.8 -25.35 3.75 -26.1 7.9 -26.35 9.95 -26.35 10.35 Q-26.25 15.05 -23.2 18.5 L-24.4 17.95 Q-29.1 15.45 -31.2 10.35 -32.4 7.2 -31.95 4.15 L-31.7 3.2 M-7.6 2.5 L-7.5 3.3 Q-6.9 5.6 -3.6 8.0 -0.8 10.0 1.55 10.8 L1.75 10.85 -2.6 10.25 Q-6.65 9.6 -8.9 8.05 L-11.3 6.05 -14.15 2.9 -13.45 2.45 Q-12.2 1.75 -11.95 1.8 L-10.55 2.9 -8.9 4.2 -8.8 4.4 -9.6 0.85 -9.7 0.4 -7.6 2.5 M-10.0 -0.85 L-10.1 -1.55 -8.95 -1.4 -8.8 -1.3 -6.0 -0.3 -4.7 1.4 -2.85 3.5 -0.5 5.5 -1.8 4.85 -6.15 2.4 Q-8.5 0.85 -9.8 -0.65 L-10.0 -0.85" fill="#e2cfcf" fill-rule="evenodd" stroke="none"/>
    <path d="M-7.8 -10.9 Q-7.4 -9.85 -6.4 -8.5 L-3.9 -5.35 0.7 0.6 -3.85 0.05 -4.9 -0.1 -6.6 -1.2 -6.85 -1.5 -6.85 -1.35 -6.6 -1.2 -6.0 -0.3 -8.8 -1.3 -8.95 -1.4 -10.1 -1.55 -10.0 -0.85 -10.2 -1.0 -10.65 -1.55 -10.85 -1.55 -10.5 -0.75 -10.25 -0.35 -9.7 0.4 -9.6 0.85 -8.8 4.4 -8.9 4.2 -10.55 2.9 -11.95 1.8 Q-12.2 1.75 -13.45 2.45 L-14.15 2.9 -14.25 2.8 -14.35 2.65 -14.5 2.55 -15.3 3.6 -15.35 3.75 -15.45 3.7 -15.45 3.75 Q-16.2 4.2 -16.35 4.9 L-16.95 7.35 -18.95 5.3 -18.8 7.5 -18.8 9.5 Q-20.9 8.75 -22.35 7.2 -24.7 4.85 -25.65 0.85 -26.7 2.05 -27.35 6.1 L-27.65 10.25 -27.85 11.3 -28.45 10.35 -28.9 9.15 -29.1 9.5 -29.35 11.05 -29.7 10.35 -30.9 6.0 -31.5 2.65 Q-30.5 0.55 -28.85 -1.35 L-28.5 -1.8 -25.45 -4.75 -24.75 -5.15 Q-26.0 -7.1 -26.4 -9.8 L-25.55 -8.6 Q-24.25 -7.0 -22.05 -6.55 L-21.55 -6.5 -21.3 -6.55 -21.1 -6.65 -20.05 -6.65 -20.05 -6.75 Q-20.0 -8.6 -19.6 -10.2 -18.3 -14.95 -13.9 -17.85 L-14.05 -17.2 -15.15 -15.0 Q-16.45 -12.1 -16.85 -9.85 -17.25 -7.2 -16.9 -5.8 L-16.75 -4.05 -16.8 -3.75 -16.8 -3.7 -16.95 -3.9 -18.85 -7.1 -19.0 -6.25 Q-19.05 -5.35 -18.05 -3.0 L-18.0 -2.85 -17.0 -0.45 -16.85 -0.45 -13.75 -5.45 -13.55 -5.6 Q-13.65 -5.15 -13.15 -2.05 L-11.6 -5.95 Q-11.45 -5.7 -9.85 -5.1 L-6.95 -4.05 -5.5 -3.8 -6.35 -4.45 -9.55 -6.5 -11.25 -7.75 Q-11.95 -8.45 -11.85 -8.95 -11.15 -11.25 -9.85 -12.65 L-7.8 -13.55 -9.05 -9.0 -9.1 -8.9 -7.8 -10.9" fill="url(#gradient0)" fill-rule="evenodd" stroke="none"/>
    <path d="M8.85 -0.55 L8.75 -0.65 12.7 0.75 Q16.25 2.15 18.2 3.95 L18.2 3.8 17.15 0.7 21.1 6.55 25.05 12.2 18.85 6.2 Q16.85 4.35 13.1 2.0 L9.75 -0.05 8.85 -0.55 M22.5 13.55 L22.1 13.45 22.35 13.55 22.5 13.55 M11.0 1.6 L16.7 6.1 25.65 14.25 24.85 14.2 20.25 14.0 15.45 14.05 14.7 14.05 10.85 14.3 10.0 14.4 8.9 14.2 4.7 13.45 4.65 13.4 8.1 13.1 11.35 12.7 13.15 12.5 14.1 12.4 18.55 11.95 20.0 11.95 17.6 10.05 16.95 9.5 11.35 4.75 11.4 4.65 18.45 8.7 19.05 9.0 18.9 8.85 18.6 8.6 11.0 1.6 M2.4 17.9 L2.65 18.05 3.7 18.75 5.8 20.5 -2.7 21.3 -6.4 21.2 -7.85 21.0 -5.95 20.75 -0.55 20.05 1.8 19.7 1.65 19.7 0.5 19.4 -2.95 18.2 -3.9 17.85 -8.95 15.9 -9.3 15.75 -8.95 15.9 -1.95 17.3 2.3 18.05 2.4 17.9 M-21.25 15.3 L-17.55 19.2 -16.45 20.25 -11.65 24.2 -12.55 24.4 Q-14.4 23.65 -16.5 21.8 L-17.5 20.9 Q-20.2 18.3 -22.45 14.65 L-22.35 14.55 Q-21.8 14.8 -21.25 15.3" fill="url(#gradient1)" fill-rule="evenodd" stroke="none"/>
  </g>
  <defs>
    <radialGradient cx="0" cy="0" gradientTransform="matrix(0.0362, -0.0032, 0.0039, 0.0316, -335.1, -65.9)" gradientUnits="userSpaceOnUse" id="gradient0" r="819.2" spreadMethod="pad">
      <stop offset="0.47843137254901963" stop-color="#ffffff"></stop>
      <stop offset="0.8823529411764706" stop-color="#f2eaea"></stop>
    </radialGradient>
    <radialGradient cx="0" cy="0" gradientTransform="matrix(0.0328, -0.0089, 0.0083, 0.0307, -22.8, -14.35)" gradientUnits="userSpaceOnUse" id="gradient1" r="819.2" spreadMethod="pad">
      <stop offset="0.47843137254901963" stop-color="#ffffff"></stop>
      <stop offset="0.8823529411764706" stop-color="#f2eaea"></stop>
    </radialGradient>
  </defs>
</svg>