<?xml version="1.0" encoding="UTF-8" standalone="no"?>
<svg xmlns:xlink="http://www.w3.org/1999/xlink" height="81.5px" width="84.7px" xmlns="http://www.w3.org/2000/svg">
  <g transform="matrix(1.0, 0.0, 0.0, 1.0, 42.35, 40.75)">
    <path d="M4.05 -33.45 L8.95 -28.85 Q11.7 -25.65 13.95 -20.85 16.0 -16.4 18.25 -10.1 L18.55 -9.2 18.7 -10.2 18.75 -10.55 Q19.35 -15.85 18.65 -22.1 L20.4 -18.95 21.0 -14.3 21.2 -12.65 Q22.1 -3.0 21.1 6.9 20.65 2.75 19.65 -1.25 L19.0 -3.9 18.6 -5.15 17.25 7.05 12.1 -13.9 12.05 -10.1 11.25 -4.55 10.25 0.05 Q8.9 5.75 4.9 9.4 L6.0 -3.05 5.85 -2.8 2.5 2.25 Q-1.75 8.4 -7.3 13.1 L-6.75 12.2 -4.2 8.25 -2.1 4.35 Q0.0 1.2 1.7 -3.65 L2.55 -6.5 Q4.75 -14.2 4.65 -20.8 5.75 -18.35 6.95 -11.55 7.95 -5.65 8.0 -3.4 8.0 -4.75 8.3 -7.0 8.65 -9.3 8.65 -11.9 8.65 -19.7 7.55 -24.15 6.8 -26.9 4.05 -33.45 M25.35 -4.2 L25.75 -1.95 26.2 -2.6 Q27.85 -8.4 32.35 -11.3 30.35 -9.2 28.15 -4.15 26.25 0.15 26.0 1.85 L26.0 2.05 25.65 -0.2 Q25.3 -2.15 25.3 -3.1 L25.35 -4.2 M29.5 1.15 L29.45 2.05 Q33.8 -0.35 38.45 -1.55 L38.45 -1.5 38.05 -0.9 38.0 -0.9 37.9 -0.7 37.65 -0.35 Q35.3 0.85 32.6 3.85 L30.55 6.2 Q26.85 10.85 26.3 12.9 L26.2 12.85 27.5 6.5 27.75 5.8 Q28.5 2.9 29.5 1.15 M33.25 13.15 L39.05 10.1 39.1 11.9 38.05 13.25 37.9 13.45 37.8 13.6 36.0 15.45 33.9 17.3 32.7 18.5 32.8 17.75 33.0 15.55 33.25 13.3 33.25 13.15 M-16.55 6.95 L-15.15 5.0 Q-11.35 -0.35 -8.1 -5.3 L-7.0 -7.15 Q-5.75 -9.2 -4.55 -11.75 L-2.15 -17.15 -4.45 -6.0 -4.95 -4.0 -6.4 1.6 -8.1 3.5 -18.3 13.65 -16.55 6.95" fill="#e0cbcb" fill-rule="evenodd" stroke="none"/>
    <path d="M20.4 -18.95 L18.65 -22.1 Q19.35 -15.85 18.75 -10.55 L18.7 -10.2 18.55 -9.2 18.25 -10.1 Q16.0 -16.4 13.95 -20.85 11.7 -25.65 8.95 -28.85 L4.05 -33.45 1.1 -35.7 Q0.65 -30.55 0.2 -28.25 L-0.6 -23.25 -6.15 -36.45 -6.2 -36.5 -6.2 -36.45 Q-7.6 -29.45 -10.75 -23.2 -12.45 -19.9 -14.25 -17.55 L-16.45 -14.7 Q-15.85 -16.05 -15.85 -17.3 L-14.0 -32.15 Q-16.5 -26.7 -20.35 -21.45 -24.15 -16.2 -28.45 -12.45 -32.75 -8.75 -34.05 -6.75 L-34.65 -5.9 -30.7 -17.0 -30.7 -17.05 -30.75 -17.05 -37.75 -5.5 Q-40.05 -1.65 -39.95 2.5 -39.9 5.05 -38.95 7.75 -36.35 14.75 -30.35 17.1 -27.65 18.3 -24.8 17.65 -21.9 17.2 -18.95 18.3 -13.45 20.55 -8.2 23.2 -2.45 26.05 3.25 29.7 8.7 33.2 14.4 36.4 L14.65 36.55 15.35 36.9 Q20.8 39.7 26.6 37.65 L30.15 36.2 Q33.8 34.3 36.95 31.2 L37.25 30.9 Q39.2 28.9 39.9 26.05 L39.5 26.25 36.2 27.45 31.9 28.15 30.8 28.2 29.85 28.1 29.4 28.0 Q33.15 25.55 35.35 22.55 36.75 20.65 37.5 18.55 L38.45 15.7 38.75 14.5 39.0 12.95 39.1 11.9 39.05 10.1 33.25 13.15 32.95 13.3 Q33.05 12.2 33.3 11.2 L33.3 11.15 Q33.75 8.35 34.65 5.85 35.75 2.5 37.65 -0.35 L37.9 -0.7 38.0 -0.9 38.05 -0.9 38.45 -1.5 38.45 -1.55 Q33.8 -0.35 29.45 2.05 L29.5 1.15 29.75 -1.4 Q30.0 -4.8 32.4 -11.25 L32.4 -11.35 32.35 -11.3 Q27.85 -8.4 26.2 -2.6 L25.75 -1.95 25.35 -4.2 25.2 -4.85 24.65 -7.45 23.1 -12.75 Q21.95 -16.05 20.4 -18.95 M3.4 -35.15 L4.45 -34.25 Q10.0 -30.95 13.25 -24.9 16.35 -19.25 18.0 -12.9 L17.55 -25.65 19.15 -23.5 Q22.55 -18.6 24.2 -12.5 L25.8 -6.0 Q27.9 -9.5 31.05 -11.8 32.5 -12.85 34.3 -13.25 32.35 -8.65 31.05 -3.5 L30.4 -0.25 30.55 -0.3 30.95 -0.5 Q35.4 -2.9 40.5 -2.75 37.65 1.45 35.45 7.2 L35.4 7.35 35.15 8.05 34.4 10.45 34.3 10.85 34.1 11.55 40.05 7.85 40.15 8.95 40.15 10.3 40.0 12.55 39.6 15.3 39.5 15.65 38.8 18.05 37.3 21.5 Q36.05 23.7 34.4 25.45 L33.8 25.95 32.9 26.6 32.3 27.0 36.2 26.15 37.5 25.75 Q39.7 25.0 41.3 24.05 41.5 25.95 40.85 27.8 L39.75 29.75 Q36.65 34.25 32.3 36.6 L31.95 36.75 30.4 37.55 29.25 38.05 28.9 38.15 Q25.4 39.45 21.65 39.75 17.8 39.2 14.35 37.45 L13.85 37.2 12.5 36.4 Q2.15 29.8 -8.75 24.4 -13.5 22.1 -18.35 20.5 -22.55 18.95 -27.25 18.75 -30.75 18.6 -33.75 16.6 -37.2 14.25 -39.35 10.2 -41.3 6.6 -41.35 2.75 -41.4 -0.35 -40.15 -3.6 -39.15 -6.2 -37.55 -8.45 L-32.65 -15.9 -28.5 -22.35 Q-29.15 -18.4 -30.65 -13.95 L-31.55 -11.25 Q-26.3 -15.8 -22.0 -21.2 -18.85 -25.05 -16.65 -29.6 -15.15 -32.55 -13.25 -35.2 -13.0 -26.65 -14.9 -18.5 -10.0 -24.45 -8.25 -32.3 L-6.7 -39.75 -1.1 -27.85 Q0.05 -31.55 -0.25 -35.2 -0.4 -37.05 -0.2 -38.8 L2.75 -35.75 3.4 -35.15" fill="#a36a6a" fill-rule="evenodd" stroke="none"/>
    <path d="M4.05 -33.45 Q6.8 -26.9 7.55 -24.15 8.65 -19.7 8.65 -11.9 8.65 -9.3 8.3 -7.0 8.0 -4.75 8.0 -3.4 7.95 -5.65 6.95 -11.55 5.75 -18.35 4.65 -20.8 4.75 -14.2 2.55 -6.5 L1.7 -3.65 Q0.0 1.2 -2.1 4.35 L-4.2 8.25 -6.75 12.2 Q-4.9 8.5 -4.5 4.15 L-4.35 1.65 -4.2 -1.7 -6.4 1.6 -4.95 -4.0 -4.45 -6.0 -2.15 -17.15 -4.55 -11.75 Q-5.75 -9.2 -7.0 -7.15 L-8.1 -5.3 Q-11.35 -0.35 -15.15 5.0 L-16.55 6.95 -10.65 -15.8 Q-11.8 -13.0 -13.1 -10.35 -14.65 -7.3 -16.45 -4.4 -21.9 4.15 -28.35 11.45 -26.4 7.3 -25.0 2.75 -23.95 -0.65 -23.6 -4.4 L-31.1 5.75 Q-29.5 2.6 -28.65 -0.85 -28.5 -1.4 -28.5 -1.95 L-28.5 -2.8 -39.05 3.8 -39.95 2.5 Q-40.05 -1.65 -37.75 -5.5 L-30.75 -17.05 -30.7 -17.05 -30.7 -17.0 -34.65 -5.9 -34.05 -6.75 Q-32.75 -8.75 -28.45 -12.45 -24.15 -16.2 -20.35 -21.45 -16.5 -26.7 -14.0 -32.15 L-15.85 -17.3 Q-15.85 -16.05 -16.45 -14.7 L-14.25 -17.55 Q-12.45 -19.9 -10.75 -23.2 -7.6 -29.45 -6.2 -36.45 L-6.15 -36.45 -0.6 -23.25 0.2 -28.25 Q0.65 -30.55 1.1 -35.7 L4.05 -33.45" fill="url(#gradient0)" fill-rule="evenodd" stroke="none"/>
    <path d="M32.35 -11.3 L32.4 -11.35 32.4 -11.25 32.35 -11.3 M31.8 14.75 L31.9 14.4 31.9 14.6 31.8 14.75 M21.45 18.4 L21.5 18.3 21.5 18.25 21.65 17.85 21.45 18.4" fill="#cca9a9" fill-rule="evenodd" stroke="none"/>
    <path d="M37.65 -0.35 Q35.75 2.5 34.65 5.85 33.75 8.35 33.3 11.15 L33.3 11.2 Q33.05 12.2 32.95 13.3 L33.25 13.15 33.25 13.3 32.95 14.0 32.2 15.9 31.2 18.35 31.0 18.75 31.0 17.85 31.4 16.35 31.8 14.75 30.6 16.75 29.55 18.55 29.2 19.2 26.95 22.85 26.85 22.7 27.95 19.75 28.7 17.75 29.7 15.15 30.95 12.0 Q32.5 8.0 33.0 7.4 L32.8 7.4 30.0 11.4 29.9 11.35 33.85 5.3 37.65 -0.35 M39.1 11.9 L39.0 12.95 38.75 14.5 38.45 15.7 37.5 18.55 Q36.75 20.65 35.35 22.55 33.15 25.55 29.4 28.0 L29.85 28.1 28.0 28.85 27.95 28.65 Q29.5 28.05 32.45 24.6 L33.2 23.75 35.85 20.55 35.7 20.55 29.1 24.45 29.0 24.35 Q32.05 23.15 34.9 19.05 L36.55 16.35 37.8 13.6 37.9 13.45 38.05 13.25 39.1 11.9 M39.5 26.25 L39.9 26.05 Q39.2 28.9 37.25 30.9 L36.95 31.2 32.25 32.95 31.85 33.1 28.3 34.5 33.75 30.8 34.35 30.35 39.5 26.25 M31.8 14.75 L31.9 14.6 31.9 14.4 31.8 14.75 M21.5 18.3 L19.7 21.85 19.05 23.2 17.95 25.25 17.85 25.4 17.8 25.35 17.75 25.35 18.25 23.65 20.0 17.85 20.45 16.85 Q21.65 13.9 24.65 4.35 L24.2 7.35 23.05 15.3 23.05 16.4 23.95 15.15 25.75 12.1 25.85 12.15 24.9 14.65 23.1 19.15 22.2 21.35 21.4 23.2 20.05 25.6 20.3 23.85 20.6 22.35 20.65 22.25 21.45 18.4 21.65 17.85 21.5 18.25 21.5 18.3" fill="url(#gradient1)" fill-rule="evenodd" stroke="none"/>
    <path d="M-6.75 12.2 L-7.3 13.1 Q-1.75 8.4 2.5 2.25 L5.85 -2.8 6.0 -3.05 4.9 9.4 Q8.9 5.75 10.25 0.05 L11.25 -4.55 12.05 -10.1 12.1 -13.9 17.25 7.05 18.6 -5.15 19.0 -3.9 19.65 -1.25 Q20.65 2.75 21.1 6.9 22.1 -3.0 21.2 -12.65 L21.0 -14.3 20.4 -18.95 Q21.95 -16.05 23.1 -12.75 L24.65 -7.45 25.2 -4.85 25.35 -4.2 25.3 -3.1 Q25.3 -2.15 25.65 -0.2 L26.0 2.05 26.0 1.85 Q26.25 0.15 28.15 -4.15 30.35 -9.2 32.35 -11.3 L32.4 -11.25 Q30.0 -4.8 29.75 -1.4 L29.5 1.15 Q28.5 2.9 27.75 5.8 L27.5 6.5 26.2 12.85 26.3 12.9 Q26.85 10.85 30.55 6.2 L32.6 3.85 Q35.3 0.85 37.65 -0.35 L33.85 5.3 29.9 11.35 30.0 11.4 32.8 7.4 33.0 7.4 Q32.5 8.0 30.95 12.0 L29.7 15.15 28.7 17.75 27.95 19.75 26.85 22.7 26.95 22.85 29.2 19.2 29.55 18.55 30.6 16.75 31.8 14.75 31.4 16.35 31.0 17.85 31.0 18.75 31.2 18.35 32.2 15.9 32.95 14.0 33.25 13.3 33.0 15.55 32.8 17.75 32.7 18.5 33.9 17.3 36.0 15.45 37.8 13.6 36.55 16.35 34.9 19.05 Q32.05 23.15 29.0 24.35 L29.1 24.45 35.7 20.55 35.85 20.55 33.2 23.75 32.45 24.6 Q29.5 28.05 27.95 28.65 L28.0 28.85 29.85 28.1 30.8 28.2 31.9 28.15 36.2 27.45 39.5 26.25 34.35 30.35 33.75 30.8 28.3 34.5 31.85 33.1 32.25 32.95 36.95 31.2 Q33.8 34.3 30.15 36.2 L26.6 37.65 Q20.8 39.7 15.35 36.9 L14.65 36.55 14.4 36.4 Q8.7 33.2 3.25 29.7 -2.45 26.05 -8.2 23.2 -13.45 20.55 -18.95 18.3 -21.9 17.2 -24.8 17.65 -27.65 18.3 -30.35 17.1 -36.35 14.75 -38.95 7.75 -39.9 5.05 -39.95 2.5 L-39.05 3.8 -28.5 -2.8 -28.5 -1.95 Q-28.5 -1.4 -28.65 -0.85 -29.5 2.6 -31.1 5.75 L-23.6 -4.4 Q-23.95 -0.65 -25.0 2.75 -26.4 7.3 -28.35 11.45 -21.9 4.15 -16.45 -4.4 -14.65 -7.3 -13.1 -10.35 -11.8 -13.0 -10.65 -15.8 L-16.55 6.95 -18.3 13.65 -8.1 3.5 -6.4 1.6 -4.2 -1.7 -4.35 1.65 -4.5 4.15 Q-4.9 8.5 -6.75 12.2 M21.45 18.4 L20.65 22.25 20.6 22.35 20.3 23.85 20.05 25.6 21.4 23.2 22.2 21.35 23.1 19.15 24.9 14.65 25.85 12.15 25.75 12.1 23.95 15.15 23.05 16.4 23.05 15.3 24.2 7.35 24.65 4.35 Q21.65 13.9 20.45 16.85 L20.0 17.85 18.25 23.65 17.75 25.35 17.8 25.35 17.85 25.4 17.95 25.25 19.05 23.2 19.7 21.85 21.5 18.3 21.45 18.4" fill="url(#gradient2)" fill-rule="evenodd" stroke="none"/>
    <path d="M1.65 -6.05 Q1.2 -13.35 0.65 -16.7 0.35 -18.7 -0.9 -23.15 L-2.1 -27.45 Q-2.1 -29.05 -0.65 -25.75 0.85 -22.4 1.2 -19.65 L1.85 -14.9 2.15 -10.4 1.8 -6.15 1.65 -6.05 M18.9 -11.15 Q18.9 -7.65 17.5 -2.65 16.15 2.25 14.4 5.25 L14.25 5.25 Q14.15 5.5 14.15 5.1 L15.5 1.05 Q16.95 -2.9 17.1 -4.2 L18.5 -13.35 Q18.9 -12.35 18.9 -11.15 M26.3 -3.3 L26.35 3.45 Q26.35 7.65 25.35 9.25 L25.2 9.25 Q26.15 7.35 25.6 0.45 25.05 -6.5 25.5 -5.6 L26.3 -3.3 M34.15 10.35 L34.2 10.6 33.15 15.1 31.8 20.7 31.65 20.7 31.55 19.9 31.8 16.9 32.85 13.0 Q33.35 10.6 34.05 10.25 L34.15 10.35" fill="#a36a6a" fill-rule="evenodd" stroke="none"/>
  </g>
  <defs>
    <radialGradient cx="0" cy="0" gradientTransform="matrix(0.0259, -0.0081, 0.0043, 0.0185, -305.95, 26.7)" gradientUnits="userSpaceOnUse" id="gradient0" r="819.2" spreadMethod="pad">
      <stop offset="0.47843137254901963" stop-color="#ffffff"></stop>
      <stop offset="0.8823529411764706" stop-color="#f2eaea"></stop>
    </radialGradient>
    <radialGradient cx="0" cy="0" gradientTransform="matrix(0.0328, -0.0089, 0.0083, 0.0307, -22.8, -14.35)" gradientUnits="userSpaceOnUse" id="gradient1" r="819.2" spreadMethod="pad">
      <stop offset="0.47843137254901963" stop-color="#ffffff"></stop>
      <stop offset="0.8823529411764706" stop-color="#f2eaea"></stop>
    </radialGradient>
    <radialGradient cx="0" cy="0" gradientTransform="matrix(0.0551, 0.0, 0.0, 0.0551, -4.3, 32.65)" gradientUnits="userSpaceOnUse" id="gradient2" r="819.2" spreadMethod="pad">
      <stop offset="0.0" stop-color="#9a5c5c"></stop>
      <stop offset="1.0" stop-color="#cca9a9"></stop>
    </radialGradient>
  </defs>
</svg>