<?xml version="1.0" encoding="UTF-8" standalone="no"?>
<svg xmlns:xlink="http://www.w3.org/1999/xlink" height="88.65px" width="114.8px" xmlns="http://www.w3.org/2000/svg">
  <g transform="matrix(1.0, 0.0, 0.0, 1.0, 60.1, 43)">
    <path d="M31.1 -30.45 Q22.35 -35.65 12.7 -34.35 L7.65 -33.25 6.6 -32.95 5.95 -32.7 3.65 -31.85 1.5 -30.9 1.35 -30.95 0.85 -31.15 5.2 -41.0 4.25 -40.85 Q0.5 -40.25 -2.5 -39.2 -6.8 -37.6 -9.85 -35.2 -12.95 -32.8 -15.05 -30.55 -17.2 -28.3 -18.2 -26.5 -21.05 -30.55 -22.65 -35.3 L-23.05 -36.2 Q-24.5 -31.2 -23.05 -26.0 L-22.05 -23.35 -20.6 -20.7 -20.8 -20.3 Q-34.95 -21.45 -46.05 -13.4 -41.5 -13.3 -37.2 -11.75 -33.15 -10.3 -32.2 -6.45 -46.75 -7.1 -56.05 3.35 L-57.2 4.7 Q-42.2 0.05 -35.25 12.7 L-33.05 15.95 -32.55 16.55 Q-27.8 22.05 -22.15 26.5 -27.9 22.3 -33.25 17.55 L-33.8 17.0 Q-35.05 15.65 -35.7 13.85 -39.5 3.4 -51.05 4.7 L-59.1 5.85 -58.55 5.15 Q-49.1 -7.4 -33.4 -7.5 -36.4 -11.25 -41.3 -11.85 L-48.4 -12.2 Q-37.6 -22.7 -22.0 -21.3 -25.05 -26.0 -24.7 -31.6 -24.45 -35.35 -23.05 -38.7 L-18.25 -27.9 -17.45 -28.95 Q-14.65 -32.8 -10.75 -35.7 -6.9 -38.7 -2.5 -40.2 0.5 -41.15 3.85 -41.6 L5.2 -41.85 5.5 -41.9 7.45 -42.0 2.4 -32.7 Q5.8 -34.1 9.1 -34.8 L13.55 -35.5 Q24.35 -36.45 33.9 -29.85 L33.95 -29.85 35.4 -28.8 37.0 -26.95 Q28.65 -27.2 21.3 -23.25 L21.2 -23.15 19.2 -21.95 19.3 -21.95 Q26.25 -21.5 31.7 -20.1 37.65 -18.55 41.8 -15.8 L44.35 -13.85 Q52.25 -6.8 53.25 -2.35 L46.1 -4.5 39.85 -5.7 Q46.75 -2.05 50.2 3.45 L51.15 5.15 Q53.1 8.95 53.55 13.55 53.95 17.25 53.35 21.5 L52.95 23.4 51.45 16.75 51.4 17.6 Q50.45 27.75 45.65 33.6 L45.0 34.4 Q40.55 39.55 39.3 39.0 L39.05 38.25 39.7 35.85 35.8 38.95 31.15 41.7 Q25.95 44.15 20.45 44.6 L19.4 44.65 Q11.5 44.95 2.85 41.05 -4.95 37.5 -12.25 33.1 5.2 42.85 24.8 42.75 L24.95 42.75 Q27.95 42.7 30.5 41.35 L31.0 41.1 Q34.1 39.3 36.7 37.0 L40.55 33.0 40.95 32.5 41.05 32.5 41.65 32.4 40.3 37.55 Q43.85 34.25 46.25 30.25 49.0 25.55 50.2 19.85 L50.45 18.4 50.9 12.95 52.95 17.7 52.75 15.05 Q52.2 10.35 50.5 6.55 L49.6 4.7 Q48.4 2.6 46.85 0.85 45.05 -1.25 42.75 -2.85 40.9 -4.15 38.75 -5.15 L38.5 -5.25 33.9 -7.05 34.7 -7.05 36.0 -7.05 37.75 -6.85 38.7 -6.7 Q45.15 -5.85 51.3 -3.95 L51.1 -4.35 48.8 -7.8 48.6 -8.0 Q45.25 -12.45 40.75 -15.3 36.35 -18.1 30.9 -19.4 L27.5 -20.05 17.5 -20.75 15.7 -20.7 16.85 -21.55 Q20.8 -24.35 25.3 -25.95 29.75 -27.6 34.75 -27.95 L32.75 -29.4 31.1 -30.45 M8.9 -24.85 L5.35 -24.45 Q2.35 -23.85 -0.4 -22.35 -3.85 -20.55 -6.9 -17.4 L-7.15 -18.15 -5.95 -19.45 Q-3.3 -21.95 -0.25 -23.5 L0.0 -23.6 0.55 -23.85 Q3.2 -25.05 6.15 -25.55 9.6 -26.1 13.45 -25.7 L13.85 -25.45 Q7.95 -23.3 4.25 -18.75 2.45 -16.6 1.2 -13.95 L2.25 -17.0 3.0 -18.45 Q5.15 -22.1 10.6 -24.85 L10.45 -24.85 8.9 -24.85 M18.2 -11.3 L13.35 -13.05 13.5 -13.15 Q17.65 -12.1 21.15 -10.7 24.3 -9.4 26.85 -7.7 31.25 -4.9 33.8 -1.05 35.6 1.7 36.95 5.6 L37.2 6.4 39.25 13.55 38.85 13.9 Q37.6 11.65 36.2 10.2 L33.85 8.4 Q29.25 6.05 18.25 6.05 L18.0 5.9 18.35 5.35 22.05 5.25 28.65 5.8 Q30.75 6.25 33.55 7.35 34.85 7.9 35.95 9.15 L36.3 9.55 37.7 11.3 37.85 11.3 37.8 11.1 36.6 7.7 36.45 7.25 35.6 5.0 Q34.1 1.15 32.2 -1.45 29.9 -4.6 26.05 -7.2 23.65 -8.85 20.65 -10.25 L18.2 -11.3" fill="#a36a6a" fill-rule="evenodd" stroke="none"/>
    <path d="M1.35 -30.95 L-3.1 -27.75 -8.65 -22.55 -6.9 -26.95 Q-4.95 -31.4 -2.6 -34.0 0.4 -37.3 3.35 -40.0 L4.25 -40.85 5.2 -41.0 0.85 -31.15 1.35 -30.95 M36.3 -15.8 L36.5 -15.8 36.5 -15.75 36.3 -15.8 M38.8 29.5 L38.75 29.7 38.75 29.55 38.8 29.5 M35.1 32.8 L35.05 33.05 35.05 32.8 35.1 32.8" fill="#cca9a9" fill-rule="evenodd" stroke="none"/>
    <path d="M31.1 -30.45 L21.15 -31.0 Q14.8 -31.0 8.5 -28.65 L8.0 -28.5 Q3.45 -26.8 1.15 -24.75 L0.0 -23.6 -0.25 -23.5 Q-3.3 -21.95 -5.95 -19.45 L-7.15 -18.15 -6.9 -17.4 Q-3.85 -20.55 -0.4 -22.35 2.35 -23.85 5.35 -24.45 L8.9 -24.85 6.55 -23.9 Q4.95 -23.15 3.55 -22.05 1.7 -20.65 0.2 -18.7 L-3.8 -13.45 -3.95 -13.3 -3.85 -13.45 -4.15 -13.6 Q-8.0 -15.4 -9.25 -16.5 -11.6 -18.5 -12.25 -23.45 -12.6 -25.85 -12.45 -28.15 L-15.15 -23.65 Q-15.7 -22.5 -15.7 -20.75 -15.7 -19.45 -15.0 -18.2 L-12.85 -13.65 -13.7 -13.7 -14.3 -13.7 -11.7 -10.8 -11.6 -10.7 -11.65 -10.65 -11.85 -10.65 -15.25 -13.0 -19.0 -15.25 -19.1 -15.1 Q-18.4 -14.4 -17.2 -10.0 -16.1 -5.85 -16.1 -4.85 L-16.3 -4.85 Q-17.5 -5.85 -23.25 -8.65 -28.7 -11.25 -32.15 -12.45 -30.95 -11.75 -27.9 -8.95 -23.9 -5.2 -22.95 -3.2 L-22.95 -2.8 -25.75 -4.0 -30.25 -4.45 -34.05 -4.05 -37.85 -3.65 -34.8 -2.45 -36.5 -2.6 -42.4 -1.85 Q-47.1 -1.05 -48.7 -0.4 -52.75 1.25 -56.05 3.35 -46.75 -7.1 -32.2 -6.45 -33.15 -10.3 -37.2 -11.75 -41.5 -13.3 -46.05 -13.4 -34.95 -21.45 -20.8 -20.3 L-20.6 -20.7 -22.05 -23.35 -23.05 -26.0 Q-24.5 -31.2 -23.05 -36.2 L-22.65 -35.3 Q-21.05 -30.55 -18.2 -26.5 -17.2 -28.3 -15.05 -30.55 -12.95 -32.8 -9.85 -35.2 -6.8 -37.6 -2.5 -39.2 0.5 -40.25 4.25 -40.85 L3.35 -40.0 Q0.4 -37.3 -2.6 -34.0 -4.95 -31.4 -6.9 -26.95 L-8.65 -22.55 -3.1 -27.75 1.35 -30.95 1.5 -30.9 3.65 -31.85 5.95 -32.7 6.6 -32.95 7.65 -33.25 12.7 -34.35 Q22.35 -35.65 31.1 -30.45 M-32.1 -1.55 L-34.8 -2.45 -30.8 -1.45 -26.95 0.0 -26.95 0.2 -32.1 -1.55" fill="#f2eaea" fill-rule="evenodd" stroke="none"/>
    <path d="M-56.05 3.35 Q-52.75 1.25 -48.7 -0.4 -47.1 -1.05 -42.4 -1.85 L-36.5 -2.6 -34.8 -2.45 -37.85 -3.65 -34.05 -4.05 -30.25 -4.45 -25.75 -4.0 -22.95 -2.8 -22.95 -3.2 Q-23.9 -5.2 -27.9 -8.95 -30.95 -11.75 -32.15 -12.45 -28.7 -11.25 -23.25 -8.65 -17.5 -5.85 -16.3 -4.85 L-16.1 -4.85 Q-16.1 -5.85 -17.2 -10.0 -18.4 -14.4 -19.1 -15.1 L-19.0 -15.25 -15.25 -13.0 -11.85 -10.65 -11.65 -10.65 -11.6 -10.7 -9.55 -8.25 -9.3 -7.95 -8.1 -6.5 -5.85 -3.65 -5.85 -3.45 -9.15 -3.85 -10.15 -3.75 -12.1 -3.25 Q-16.5 -1.65 -23.1 4.4 -28.7 9.55 -33.05 15.95 L-35.25 12.7 Q-42.2 0.05 -57.2 4.7 L-56.05 3.35 M-12.85 -13.65 L-15.0 -18.2 Q-15.7 -19.45 -15.7 -20.75 -15.7 -22.5 -15.15 -23.65 L-12.45 -28.15 Q-12.6 -25.85 -12.25 -23.45 -11.6 -18.5 -9.25 -16.5 -8.0 -15.4 -4.15 -13.6 L-3.85 -13.45 -3.95 -13.3 -4.9 -11.95 -6.5 -12.5 -9.5 -13.2 -12.85 -13.65 M36.45 7.25 Q35.15 4.8 33.45 3.5 31.95 2.35 20.5 -3.55 L20.05 -3.8 20.65 -3.65 24.8 -2.55 Q28.85 -1.3 29.7 -0.7 L22.9 -5.15 20.3 -6.7 18.1 -8.0 9.5 -12.7 11.4 -12.7 14.85 -12.0 18.2 -11.3 20.65 -10.25 Q23.65 -8.85 26.05 -7.2 29.9 -4.6 32.2 -1.45 34.1 1.15 35.6 5.0 L36.45 7.25 M36.3 -15.8 L35.15 -16.15 28.7 -17.4 Q21.5 -18.4 12.9 -17.7 L12.9 -17.9 Q13.5 -17.9 16.7 -20.2 L17.5 -20.75 27.5 -20.05 30.9 -19.4 Q36.35 -18.1 40.75 -15.3 45.25 -12.45 48.6 -8.0 L48.55 -7.95 Q45.65 -10.15 40.25 -12.25 L39.45 -12.55 36.9 -13.45 Q31.45 -15.2 26.55 -15.45 L23.25 -15.5 26.25 -15.8 26.95 -15.85 31.8 -16.1 36.3 -15.8 36.5 -15.75 36.5 -15.8 36.3 -15.8 M-32.1 -1.55 L-26.95 0.2 -26.95 0.0 -30.8 -1.45 -34.8 -2.45 -32.1 -1.55" fill="#e0cbcb" fill-rule="evenodd" stroke="none"/>
    <path d="M34.7 -7.05 L31.7 -7.5 31.8 -7.5 34.15 -7.8 36.25 -8.05 31.8 -8.5 29.7 -8.25 29.1 -8.25 Q31.6 -9.4 35.7 -9.4 L39.0 -8.95 40.95 -8.5 45.0 -7.25 44.85 -7.4 43.1 -9.05 41.05 -10.75 45.75 -8.5 Q47.5 -7.6 49.75 -5.55 L51.1 -4.35 51.3 -3.95 Q45.15 -5.85 38.7 -6.7 L37.75 -6.85 36.0 -7.05 34.7 -7.05 M46.85 0.85 Q48.4 2.6 49.6 4.7 L50.5 6.55 Q52.2 10.35 52.75 15.05 L52.95 17.7 50.9 12.95 50.45 18.4 50.2 19.85 Q49.0 25.55 46.25 30.25 L47.2 26.55 47.45 25.15 47.8 22.75 48.1 18.6 Q48.1 15.75 47.65 13.3 L46.9 10.4 46.5 9.3 46.55 9.25 47.05 10.1 48.15 12.15 49.65 15.05 49.55 14.7 Q49.5 13.05 48.75 10.7 L47.95 8.55 47.85 8.3 Q46.0 3.9 43.55 1.7 L43.55 1.65 Q46.65 4.35 48.65 6.6 L49.85 8.1 50.65 9.25 50.65 9.15 50.15 7.4 49.3 5.25 Q48.25 2.75 46.85 0.85 M41.05 32.5 L40.95 32.5 40.55 33.0 36.7 37.0 Q34.1 39.3 31.0 41.1 L30.5 41.35 Q27.95 42.7 24.95 42.75 L24.95 42.7 28.45 40.15 31.0 37.55 32.8 34.9 34.5 30.05 35.25 27.35 35.4 27.55 35.4 30.55 35.1 32.8 Q36.55 31.4 37.35 26.8 L38.3 19.5 38.4 19.65 38.95 27.15 38.8 29.5 Q40.15 26.35 41.2 22.1 42.5 16.85 42.25 13.6 L42.7 16.35 43.1 20.25 43.1 20.65 42.8 25.75 42.0 29.6 41.05 32.5 M38.8 29.5 L38.75 29.55 38.75 29.7 38.8 29.5 M35.1 32.8 L35.05 32.8 35.05 33.05 35.1 32.8" fill="url(#gradient0)" fill-rule="evenodd" stroke="none"/>
    <path d="M0.0 -23.6 L1.15 -24.75 Q3.45 -26.8 8.0 -28.5 L8.5 -28.65 Q14.8 -31.0 21.15 -31.0 L31.1 -30.45 32.75 -29.4 34.75 -27.95 Q29.75 -27.6 25.3 -25.95 20.8 -24.35 16.85 -21.55 L15.7 -20.7 17.5 -20.75 16.7 -20.2 Q13.5 -17.9 12.9 -17.9 L12.9 -17.7 Q21.5 -18.4 28.7 -17.4 L35.15 -16.15 36.3 -15.8 31.8 -16.1 26.95 -15.85 26.25 -15.8 23.25 -15.5 26.55 -15.45 Q31.45 -15.2 36.9 -13.45 L39.45 -12.55 40.25 -12.25 Q45.65 -10.15 48.55 -7.95 L48.6 -8.0 48.8 -7.8 51.1 -4.35 49.75 -5.55 Q47.5 -7.6 45.75 -8.5 L41.05 -10.75 43.1 -9.05 44.85 -7.4 45.0 -7.25 40.95 -8.5 39.0 -8.95 35.7 -9.4 Q31.6 -9.4 29.1 -8.25 L29.7 -8.25 31.8 -8.5 36.25 -8.05 34.15 -7.8 31.8 -7.5 31.7 -7.5 34.7 -7.05 33.9 -7.05 38.5 -5.25 38.75 -5.15 Q40.9 -4.15 42.75 -2.85 45.05 -1.25 46.85 0.85 48.25 2.75 49.3 5.25 L50.15 7.4 50.65 9.15 50.65 9.25 49.85 8.1 48.65 6.6 Q46.65 4.35 43.55 1.65 L43.55 1.7 Q46.0 3.9 47.85 8.3 L47.95 8.55 48.75 10.7 Q49.5 13.05 49.55 14.7 L49.65 15.05 48.15 12.15 47.05 10.1 46.55 9.25 46.5 9.3 46.9 10.4 47.65 13.3 Q48.1 15.75 48.1 18.6 L47.8 22.75 47.45 25.15 47.2 26.55 46.25 30.25 Q43.85 34.25 40.3 37.55 L41.65 32.4 41.05 32.5 42.0 29.6 42.8 25.75 43.1 20.65 43.1 20.25 42.7 16.35 42.25 13.6 Q42.5 16.85 41.2 22.1 40.15 26.35 38.8 29.5 L38.95 27.15 38.4 19.65 38.3 19.5 37.35 26.8 Q36.55 31.4 35.1 32.8 L35.4 30.55 35.4 27.55 35.25 27.35 34.5 30.05 32.8 34.9 31.0 37.55 28.45 40.15 24.95 42.7 24.95 42.75 24.8 42.75 Q5.2 42.85 -12.25 33.1 L-13.9 32.15 Q-18.25 29.6 -22.15 26.5 -27.8 22.05 -32.55 16.55 L-33.05 15.95 Q-28.7 9.55 -23.1 4.4 -16.5 -1.65 -12.1 -3.25 L-10.15 -3.75 -9.15 -3.85 -5.85 -3.45 -5.85 -3.65 -8.1 -6.5 -9.3 -7.95 -9.55 -8.25 -11.6 -10.7 -11.7 -10.8 -14.3 -13.7 -13.7 -13.7 -12.85 -13.65 -9.5 -13.2 -6.5 -12.5 -4.9 -11.95 -3.95 -13.3 -3.8 -13.45 0.2 -18.7 Q1.7 -20.65 3.55 -22.05 4.95 -23.15 6.55 -23.9 L8.9 -24.85 10.45 -24.85 10.6 -24.85 Q5.15 -22.1 3.0 -18.45 L2.25 -17.0 1.2 -13.95 Q2.45 -16.6 4.25 -18.75 7.95 -23.3 13.85 -25.45 L13.45 -25.7 Q9.6 -26.1 6.15 -25.55 3.2 -25.05 0.55 -23.85 L0.0 -23.6 M36.45 7.25 L36.6 7.7 37.8 11.1 37.85 11.3 37.7 11.3 36.3 9.55 35.95 9.15 Q34.85 7.9 33.55 7.35 30.75 6.25 28.65 5.8 L22.05 5.25 18.35 5.35 18.0 5.9 18.25 6.05 Q29.25 6.05 33.85 8.4 L36.2 10.2 Q37.6 11.65 38.85 13.9 L39.25 13.55 37.2 6.4 36.95 5.6 Q35.6 1.7 33.8 -1.05 31.25 -4.9 26.85 -7.7 24.3 -9.4 21.15 -10.7 17.65 -12.1 13.5 -13.15 L13.35 -13.05 18.2 -11.3 14.85 -12.0 11.4 -12.7 9.5 -12.7 18.1 -8.0 20.3 -6.7 22.9 -5.15 29.7 -0.7 Q28.85 -1.3 24.8 -2.55 L20.65 -3.65 20.05 -3.8 20.5 -3.55 Q31.95 2.35 33.45 3.5 35.15 4.8 36.45 7.25" fill="url(#gradient1)" fill-rule="evenodd" stroke="none"/>
    <path d="M3.3 -32.1 L-6.6 -24.65 -6.65 -24.75 Q-5.7 -26.75 -2.75 -29.0 -0.1 -31.0 3.15 -32.4 3.15 -32.15 3.3 -32.1 M18.65 -21.6 L18.8 -21.3 Q18.3 -20.7 17.15 -20.7 L15.35 -20.7 7.65 -18.3 Q8.35 -19.15 10.25 -20.05 13.5 -21.6 17.65 -21.6 L18.65 -21.6 M38.0 -6.2 L38.4 -6.0 27.0 -6.65 Q27.25 -7.35 33.55 -7.15 39.8 -6.95 38.0 -6.2 M-32.05 -7.4 Q-30.05 -7.4 -26.65 -5.4 L-23.25 -3.05 -23.3 -3.0 -27.4 -5.1 Q-30.1 -6.3 -33.8 -6.65 L-33.85 -6.7 -33.95 -6.95 -33.6 -7.3 -32.05 -7.4 M47.6 4.65 Q49.95 7.35 50.85 10.4 51.6 12.8 51.6 16.25 L51.45 18.15 Q51.1 19.25 50.85 21.0 L50.6 21.15 50.4 19.7 50.65 18.25 50.85 16.35 Q50.85 10.35 47.55 4.7 L47.6 4.65" fill="#a36a6a" fill-rule="evenodd" stroke="none"/>
  </g>
  <defs>
    <radialGradient cx="0" cy="0" gradientTransform="matrix(0.0328, -0.0089, 0.0083, 0.0307, -22.8, -14.35)" gradientUnits="userSpaceOnUse" id="gradient0" r="819.2" spreadMethod="pad">
      <stop offset="0.47843137254901963" stop-color="#ffffff"></stop>
      <stop offset="0.8823529411764706" stop-color="#f2eaea"></stop>
    </radialGradient>
    <radialGradient cx="0" cy="0" gradientTransform="matrix(0.0551, 0.0, 0.0, 0.0551, -0.5, 28.55)" gradientUnits="userSpaceOnUse" id="gradient1" r="819.2" spreadMethod="pad">
      <stop offset="0.0" stop-color="#9a5c5c"></stop>
      <stop offset="1.0" stop-color="#cca9a9"></stop>
    </radialGradient>
  </defs>
</svg>