<?xml version="1.0" encoding="UTF-8" standalone="no"?>
<svg xmlns:xlink="http://www.w3.org/1999/xlink" height="79.25px" width="99px" xmlns="http://www.w3.org/2000/svg">
  <g transform="matrix(1.0, 0.0, 0.0, 1.0, 49.5, 39.65)">
    <path d="M22.3 -21.95 L19.7 -22.95 14.35 -25.2 8.0 -27.7 Q2.15 -29.85 -3.5 -29.55 -6.8 -29.25 -9.95 -27.8 L-10.35 -27.65 -10.6 -27.55 -12.7 -26.35 -12.9 -26.4 -13.4 -26.5 -9.55 -30.8 -7.5 -33.0 -4.5 -36.7 -4.4 -36.9 -4.4 -37.0 -6.65 -36.25 -8.9 -35.45 -12.45 -34.1 -12.8 -34.0 -15.15 -33.0 -21.15 -30.05 -21.6 -29.8 Q-29.2 -25.6 -32.9 -20.95 -35.9 -17.15 -36.85 -11.95 L-37.65 -7.0 -37.7 -6.75 -38.25 -4.35 -38.2 -4.15 -38.4 -3.95 -38.45 -3.9 -38.9 -3.1 -38.95 -3.35 -38.95 -4.0 Q-39.4 -4.25 -39.9 -5.25 L-40.6 -7.05 Q-41.6 -9.95 -41.75 -12.3 L-41.9 -12.45 -41.9 -12.3 Q-42.1 -10.5 -42.45 -8.95 L-42.65 -6.25 -42.45 -3.35 Q-42.1 -0.4 -40.9 2.15 L-40.95 2.25 -41.2 2.3 -43.15 0.5 -46.0 -2.05 -46.1 -1.95 Q-43.3 1.8 -43.3 2.3 -43.3 2.75 -43.75 2.75 L-44.25 2.5 -46.25 2.25 Q-47.3 2.25 -47.55 3.0 L-47.6 3.75 Q-47.6 7.7 -47.4 8.9 -47.0 11.55 -45.35 14.3 L-45.2 11.7 Q-45.05 10.45 -44.4 9.55 L-44.4 9.4 -44.45 9.25 -44.4 8.9 -44.05 7.4 Q-43.6 6.15 -42.8 5.9 -42.7 5.7 -42.7 6.05 L-42.8 6.3 -42.95 6.5 -43.4 7.9 -43.7 9.2 -43.7 9.25 Q-43.7 11.45 -40.7 15.1 L-40.65 15.15 -38.8 17.15 -35.95 19.65 -31.65 21.25 Q-27.05 23.65 -20.3 28.25 -10.8 34.8 -1.45 36.45 L-1.75 35.4 Q-1.4 34.85 2.1 34.85 7.0 34.85 10.1 35.9 L13.2 36.95 Q14.05 36.95 14.25 36.15 L14.5 34.4 Q15.15 31.85 20.05 31.85 22.8 31.85 24.85 33.3 L26.85 35.0 26.25 33.05 26.0 32.3 25.9 31.4 25.95 30.95 26.3 30.55 26.5 30.5 Q27.05 30.5 29.15 31.6 L30.05 32.1 Q33.05 33.8 34.5 35.1 34.25 33.15 31.45 30.6 L30.9 30.1 28.8 27.95 28.0 26.7 27.65 25.95 27.15 24.3 27.35 23.0 Q27.6 21.95 27.9 21.8 L27.75 23.2 Q27.75 23.9 28.2 25.0 L30.5 26.4 32.35 27.5 34.85 28.9 Q38.05 30.55 40.45 31.35 L37.8 28.35 37.25 27.75 37.15 27.6 36.4 26.7 Q34.85 24.85 34.05 23.4 L33.4 21.95 33.4 21.55 31.45 20.95 30.8 20.7 Q30.85 20.65 31.05 20.55 L31.45 20.45 33.55 20.5 Q35.25 20.6 37.0 21.2 L38.0 21.55 Q40.2 22.5 42.05 23.8 L40.05 21.45 38.7 20.05 35.25 16.8 34.25 15.95 27.7 11.05 27.0 10.6 26.45 10.2 22.6 7.85 22.65 7.85 28.05 10.85 28.9 11.3 29.6 11.7 30.45 12.15 25.7 4.95 20.4 -3.05 20.45 -3.05 24.6 2.1 Q28.85 7.8 30.9 12.35 L31.25 12.55 34.65 14.65 Q34.05 13.1 31.65 9.2 L31.15 8.35 29.4 5.65 29.3 5.55 28.9 4.95 25.2 -0.7 21.4 -7.15 21.55 -7.15 24.0 -3.85 26.0 -2.1 Q27.9 -0.2 29.95 0.9 L34.8 3.3 37.8 4.85 38.6 5.25 36.2 2.05 Q32.15 -3.75 30.6 -5.25 L30.45 -5.3 29.55 -6.0 29.45 -6.05 28.1 -7.2 27.95 -7.3 24.65 -10.25 24.25 -10.6 23.4 -11.3 19.6 -14.15 18.85 -14.65 18.6 -14.85 18.1 -15.15 16.8 -16.0 18.25 -15.4 20.6 -14.2 Q23.15 -12.8 25.7 -10.9 L30.35 -6.9 Q38.1 -4.6 45.6 -3.55 41.9 -4.75 37.8 -6.95 L36.5 -7.65 Q33.4 -9.4 32.05 -10.6 L31.85 -10.75 29.1 -12.7 26.65 -14.1 24.15 -15.5 24.1 -15.5 Q23.15 -15.5 20.85 -16.95 19.65 -17.7 18.65 -18.5 L17.25 -19.7 Q18.7 -19.35 21.45 -18.05 L23.7 -16.8 Q26.2 -16.2 30.25 -16.7 34.6 -17.25 36.25 -18.1 30.5 -18.05 25.2 -20.0 L24.65 -20.0 19.8 -20.6 19.65 -20.65 18.15 -21.3 19.0 -21.3 25.75 -20.45 30.5 -20.8 30.3 -20.8 30.2 -20.8 Q26.45 -20.65 22.65 -21.85 L22.3 -21.95 M9.9 -13.9 L6.25 -16.0 5.55 -16.45 Q1.75 -18.85 -2.8 -18.95 L-6.4 -18.75 -9.95 -17.9 Q-6.0 -20.65 -1.8 -20.15 2.5 -19.35 6.3 -17.15 L6.95 -16.75 8.25 -16.0 9.15 -15.45 10.0 -14.95 10.4 -14.7 10.5 -14.65 Q12.2 -13.75 14.35 -13.2 L14.6 -13.1 15.95 -12.8 16.4 -12.75 16.45 -12.75 17.4 -12.6 17.45 -12.3 Q17.45 -12.0 15.9 -11.5 L15.55 -11.35 15.45 -11.35 15.3 -11.3 11.95 -10.65 10.1 -10.6 Q5.3 -10.6 1.1 -12.15 L1.1 -12.25 1.05 -12.55 1.15 -12.6 1.4 -12.7 1.55 -12.7 5.0 -12.1 8.15 -11.5 9.65 -11.5 13.65 -11.8 13.8 -11.8 15.0 -12.15 15.0 -12.25 14.9 -12.25 13.25 -12.55 10.35 -13.65 9.9 -13.9 M12.85 -27.0 L15.25 -26.0 21.3 -23.65 23.35 -22.9 Q26.7 -21.75 30.1 -21.35 L33.9 -21.3 33.15 -20.8 Q32.6 -20.5 31.3 -20.15 L27.1 -19.75 31.4 -19.1 34.95 -18.85 40.9 -18.7 39.25 -18.05 Q35.95 -16.5 32.4 -16.0 L30.6 -15.65 27.9 -15.35 27.45 -15.3 26.7 -15.25 30.25 -13.25 32.95 -11.3 Q36.25 -8.8 40.3 -6.85 L41.7 -6.2 Q46.6 -4.1 48.5 -3.75 47.2 -2.7 44.4 -2.65 41.6 -2.6 37.0 -3.7 L32.2 -5.0 32.7 -4.45 32.75 -4.45 33.15 -4.05 33.1 -4.05 37.15 0.8 38.6 2.9 41.95 7.15 Q43.0 8.45 44.05 8.95 L40.45 7.4 38.65 6.55 32.25 3.2 Q29.1 1.75 26.85 0.05 L30.05 4.55 32.8 8.8 33.0 9.05 35.7 14.1 36.45 15.9 37.15 16.45 38.8 18.05 39.85 19.3 42.4 22.6 43.55 24.2 44.1 24.95 46.8 29.0 46.75 29.3 46.35 29.45 Q46.05 29.45 43.75 27.45 L41.9 25.75 40.65 24.65 Q39.15 23.4 36.1 22.35 L35.6 22.2 34.85 22.0 34.45 21.85 34.8 22.5 34.9 22.7 Q35.75 24.2 36.1 24.5 L35.8 24.4 35.95 24.6 38.2 27.3 43.6 32.6 43.1 33.0 Q41.85 33.0 36.05 30.45 L33.8 29.45 29.7 27.5 32.4 30.15 33.25 30.8 35.5 32.6 35.05 33.2 Q35.05 33.6 35.95 35.8 L36.85 37.95 Q36.85 38.6 36.3 38.6 35.6 38.6 34.45 37.05 L33.0 35.1 Q32.35 34.4 30.3 33.5 L27.4 32.25 27.3 32.2 27.25 32.15 27.3 32.25 28.9 37.05 Q28.9 37.7 28.3 37.7 L25.55 35.45 Q23.1 33.2 20.3 33.2 15.65 33.2 15.55 35.7 L15.5 37.4 Q15.3 38.15 14.05 38.15 L9.45 36.95 Q6.1 35.9 -0.3 36.2 L-0.4 37.2 Q-0.7 37.8 -2.05 37.8 -7.5 37.8 -13.5 34.2 L-20.75 29.3 -31.65 22.75 Q-35.5 20.65 -39.15 18.1 L-40.25 17.15 -41.3 15.9 -41.95 15.05 -43.4 12.4 -44.05 10.8 -43.95 10.45 -44.05 10.8 -44.15 10.95 -44.6 13.2 -44.45 15.25 Q-44.45 16.85 -44.9 16.85 -45.35 16.85 -46.25 14.75 L-47.65 11.4 Q-48.5 9.65 -48.5 5.85 L-48.25 2.9 Q-47.45 0.25 -44.65 1.55 L-46.55 -1.1 -47.6 -2.7 -47.6 -2.95 -47.05 -3.1 Q-46.2 -3.1 -44.5 -1.75 L-42.55 -0.15 -43.25 -2.7 -43.35 -3.35 -43.4 -6.3 Q-41.9 -18.9 -41.2 -14.65 -41.2 -12.45 -40.15 -9.45 L-38.85 -6.1 Q-38.25 -15.9 -33.0 -22.25 -28.8 -27.3 -21.15 -31.45 L-18.05 -33.0 -12.4 -35.4 -12.3 -35.45 -8.75 -36.75 -2.6 -38.65 Q-2.45 -38.6 -2.45 -38.25 -2.45 -37.75 -5.65 -33.85 L-6.35 -33.0 -9.8 -28.9 -7.65 -29.6 -7.2 -29.7 -6.95 -29.75 -4.45 -30.25 4.45 -29.8 12.85 -27.0" fill="#a36a6a" fill-rule="evenodd" stroke="none"/>
    <path d="M-19.1 -19.85 L-19.2 -19.75 -19.25 -19.75 -19.1 -19.85 M-17.4 -22.75 Q-21.85 -18.9 -24.2 -16.1 L-24.3 -16.1 Q-22.75 -19.5 -18.85 -23.1 L-18.35 -23.4 -17.9 -23.65 -17.35 -23.9 -17.2 -23.95 -16.85 -24.1 -16.8 -24.15 -16.7 -24.15 -16.8 -24.2 -16.6 -24.25 -16.55 -24.2 -17.4 -22.75 M-25.75 -18.5 L-25.85 -18.45 -25.85 -18.65 -25.75 -18.5 M-21.5 -24.65 Q-26.6 -21.25 -30.35 -17.7 -28.6 -21.3 -22.65 -25.7 L-21.6 -26.45 -17.95 -28.55 Q-19.7 -27.05 -21.5 -24.65 M-24.35 -24.85 L-24.55 -24.75 -24.4 -24.95 -24.35 -24.85 M-37.65 -7.0 L-37.55 -6.85 -37.7 -6.75 -37.65 -7.0 M-41.75 -12.3 L-41.9 -12.3 -41.9 -12.45 -41.75 -12.3 M-16.8 -11.7 L-19.0 -11.9 -25.35 -12.75 -24.3 -12.8 -19.65 -12.5 -12.95 -13.3 -18.4 -13.6 -23.9 -13.95 -24.15 -14.1 -19.4 -14.5 -15.5 -14.25 -6.2 -14.6 -4.45 -14.15 -4.05 -14.05 -4.05 -13.85 -5.35 -13.65 -5.35 -13.75 -5.85 -13.55 -8.0 -13.2 -8.05 -13.2 -11.85 -12.35 -12.9 -12.05 -13.2 -11.95 -16.8 -11.7 M10.95 -11.95 Q9.1 -12.5 6.75 -13.55 L0.15 -16.85 Q1.9 -17.0 6.45 -15.1 8.2 -14.35 9.9 -13.9 L10.35 -13.65 13.25 -12.55 14.9 -12.25 15.0 -12.25 15.0 -12.15 13.8 -11.8 13.65 -11.8 13.15 -11.8 11.85 -11.85 11.0 -11.95 10.95 -11.95 M9.15 -15.45 L6.9 -17.0 Q5.4 -17.9 5.25 -18.05 4.7 -18.5 4.7 -19.1 4.7 -19.6 5.3 -19.9 L0.9 -20.25 Q0.0 -20.25 -1.05 -20.75 L-0.6 -20.75 0.7 -21.05 5.1 -21.45 8.8 -20.7 10.4 -20.8 13.0 -20.15 18.65 -18.5 Q19.65 -17.7 20.85 -16.95 23.15 -15.5 24.1 -15.5 L24.15 -15.5 26.65 -14.1 29.1 -12.7 31.85 -10.75 32.05 -10.6 Q33.4 -9.4 36.5 -7.65 L34.25 -8.55 28.55 -11.05 28.1 -11.3 28.1 -11.25 27.1 -11.65 22.95 -13.35 Q22.35 -13.6 21.85 -13.8 L20.6 -14.2 18.25 -15.4 16.8 -16.0 18.1 -15.15 18.6 -14.85 18.85 -14.65 19.6 -14.15 23.4 -11.3 24.25 -10.6 24.65 -10.25 27.95 -7.3 28.1 -7.2 29.45 -6.05 29.55 -6.0 30.45 -5.3 30.6 -5.25 Q32.15 -3.75 36.2 2.05 L38.6 5.25 37.8 4.85 37.05 4.1 34.5 1.7 29.4 -3.15 28.6 -3.9 28.3 -4.2 28.25 -4.2 Q25.2 -7.05 22.45 -8.9 20.25 -10.4 18.3 -11.2 L18.6 -10.35 21.45 -7.15 21.4 -7.15 25.2 -0.7 28.9 4.95 29.3 5.55 29.4 5.65 31.15 8.35 24.3 0.9 24.3 0.75 Q24.2 1.2 24.6 2.1 L20.45 -3.05 20.4 -3.05 25.7 4.95 22.15 2.0 18.75 -0.15 18.7 -0.15 19.95 2.2 Q21.25 4.6 21.3 5.6 L17.0 -0.65 17.3 1.35 Q17.75 3.35 18.75 5.9 L19.2 7.0 Q17.75 4.15 13.7 0.65 L2.8 -8.15 2.85 -8.25 5.5 -6.6 Q7.95 -5.2 9.8 -4.7 L14.8 -3.35 Q13.2 -5.2 11.8 -6.3 9.6 -8.05 6.55 -9.45 12.1 -9.05 15.6 -7.45 L16.7 -6.85 16.25 -7.4 15.9 -7.8 14.2 -9.4 11.95 -10.65 15.3 -11.3 15.45 -11.35 15.55 -11.35 15.9 -11.5 Q17.45 -12.0 17.45 -12.3 L17.4 -12.6 16.45 -12.75 16.4 -12.75 15.95 -12.8 14.6 -13.1 14.35 -13.2 Q12.2 -13.75 10.5 -14.65 L10.55 -14.8 10.4 -14.7 10.0 -14.95 9.15 -15.45 M8.5 -21.25 L7.8 -21.4 8.5 -21.4 8.5 -21.25 M10.7 -21.25 Q5.9 -23.3 1.1 -23.3 L-3.95 -22.5 Q-2.75 -22.9 -1.35 -23.55 L4.8 -24.15 9.6 -23.0 12.7 -21.9 15.15 -20.3 10.85 -21.2 10.7 -21.25 M8.25 -24.5 L8.15 -24.55 8.35 -24.55 8.25 -24.5 M16.8 -21.2 L13.75 -22.8 Q7.2 -26.6 1.55 -26.6 L-4.2 -25.8 -8.4 -25.1 -9.75 -24.6 Q-7.2 -26.05 -5.4 -26.45 L3.05 -27.75 Q6.75 -27.8 10.5 -26.4 L16.1 -23.85 18.8 -22.7 Q20.25 -22.2 22.3 -21.95 L22.65 -21.85 Q26.45 -20.65 30.2 -20.8 L30.3 -20.8 30.5 -20.8 25.75 -20.45 19.0 -21.3 18.15 -21.3 19.65 -20.65 17.45 -21.05 16.85 -21.2 16.8 -21.2 M26.45 10.2 L27.0 10.6 27.7 11.05 34.25 15.95 35.25 16.8 38.7 20.05 40.05 21.45 38.05 20.45 29.35 16.0 24.2 13.3 19.1 10.6 17.4 9.6 19.55 9.45 21.05 9.25 Q23.1 9.25 26.35 10.35 L26.45 10.2 M31.45 20.95 L33.4 21.55 33.4 21.95 34.05 23.4 Q34.85 24.85 36.4 26.7 L37.15 27.6 Q34.7 26.25 33.8 25.5 L32.75 24.45 Q31.45 22.85 31.45 20.95 M28.65 7.6 L28.4 7.6 28.65 7.55 28.65 7.6 M-12.1 -29.7 L-12.0 -29.9 -12.0 -29.75 -12.1 -29.7 M-4.4 -37.0 L-4.4 -36.9 -4.4 -37.0" fill="#e0cbcb" fill-rule="evenodd" stroke="none"/>
    <path d="M-12.9 -26.4 L-13.6 -25.85 -14.15 -25.35 -14.65 -24.9 -16.1 -23.2 -19.1 -19.85 -17.4 -22.75 -16.55 -24.2 -16.6 -24.25 -16.8 -24.2 -16.7 -24.15 -16.8 -24.15 -16.85 -24.1 -17.2 -23.95 -17.35 -23.9 -17.9 -23.65 -18.35 -23.4 -21.55 -21.4 -25.75 -18.5 -25.85 -18.65 -21.7 -24.45 -21.5 -24.65 Q-19.7 -27.05 -17.95 -28.55 L-21.6 -26.45 -24.35 -24.85 -24.4 -24.95 Q-23.5 -26.85 -14.4 -32.05 L-13.25 -32.7 -12.55 -33.1 -8.95 -35.05 -6.65 -36.25 -4.4 -37.0 -4.4 -36.9 -4.5 -36.7 -7.5 -33.0 -9.55 -30.8 -13.4 -26.5 -12.9 -26.4 M10.4 -20.8 L10.05 -20.9 8.5 -21.25 8.5 -21.4 9.75 -21.5 10.45 -21.3 10.7 -21.25 10.85 -21.2 15.15 -20.3 12.7 -21.9 11.7 -22.5 11.65 -22.5 8.25 -24.5 8.35 -24.55 12.05 -22.95 14.15 -22.1 16.8 -21.2 16.85 -21.2 17.45 -21.05 19.65 -20.65 19.8 -20.6 24.65 -20.0 25.2 -20.0 Q30.5 -18.05 36.25 -18.1 34.6 -17.25 30.25 -16.7 26.2 -16.2 23.7 -16.8 L21.45 -18.05 Q18.7 -19.35 17.25 -19.7 L18.65 -18.5 13.0 -20.15 10.4 -20.8 M36.5 -7.65 L37.8 -6.95 Q41.9 -4.75 45.6 -3.55 38.1 -4.6 30.35 -6.9 L25.7 -10.9 Q23.15 -12.8 20.6 -14.2 L21.85 -13.8 Q22.35 -13.6 22.95 -13.35 L27.1 -11.65 28.1 -11.25 28.55 -11.05 34.25 -8.55 36.5 -7.65 M37.8 4.85 L34.8 3.3 29.95 0.9 Q27.9 -0.2 26.0 -2.1 L24.0 -3.85 21.55 -7.15 21.4 -7.15 21.45 -7.15 18.6 -10.35 18.3 -11.2 Q20.25 -10.4 22.45 -8.9 25.2 -7.05 28.25 -4.2 L28.6 -3.9 29.4 -3.15 34.5 1.7 37.05 4.1 37.8 4.85 M31.15 8.35 L31.65 9.2 Q34.05 13.1 34.65 14.65 L31.25 12.55 30.9 12.35 Q28.85 7.8 24.6 2.1 24.2 1.2 24.3 0.75 L24.3 0.9 31.15 8.35 M28.65 7.6 L28.65 7.55 28.4 7.6 28.65 7.6 M-12.1 -29.7 L-12.0 -29.75 -12.0 -29.9 -12.1 -29.7" fill="#cca9a9" fill-rule="evenodd" stroke="none"/>
    <path d="M-12.9 -26.4 L-12.7 -26.35 -10.6 -27.55 -10.35 -27.65 -9.95 -27.8 Q-6.8 -29.25 -3.5 -29.55 2.15 -29.85 8.0 -27.7 L14.35 -25.2 19.7 -22.95 22.3 -21.95 Q20.25 -22.2 18.8 -22.7 L16.1 -23.85 10.5 -26.4 Q6.75 -27.8 3.05 -27.75 L-5.4 -26.45 Q-7.2 -26.05 -9.75 -24.6 L-8.4 -25.1 -4.2 -25.8 1.55 -26.6 Q7.2 -26.6 13.75 -22.8 L16.8 -21.2 14.15 -22.1 12.05 -22.95 8.35 -24.55 8.15 -24.55 8.25 -24.5 11.65 -22.5 11.7 -22.5 12.7 -21.9 9.6 -23.0 4.8 -24.15 -1.35 -23.55 Q-2.75 -22.9 -3.95 -22.5 L1.1 -23.3 Q5.9 -23.3 10.7 -21.25 L10.45 -21.3 9.75 -21.5 8.5 -21.4 7.8 -21.4 8.5 -21.25 10.05 -20.9 10.4 -20.8 8.8 -20.7 5.1 -21.45 0.7 -21.05 -0.6 -20.75 -1.05 -20.75 Q0.0 -20.25 0.9 -20.25 L5.3 -19.9 Q4.7 -19.6 4.7 -19.1 4.7 -18.5 5.25 -18.05 5.4 -17.9 6.9 -17.0 L9.15 -15.45 8.25 -16.0 6.95 -16.75 6.3 -17.15 Q2.5 -19.35 -1.8 -20.15 -6.0 -20.65 -9.95 -17.9 L-6.4 -18.75 -2.8 -18.95 Q1.75 -18.85 5.55 -16.45 L6.25 -16.0 9.9 -13.9 Q8.2 -14.35 6.45 -15.1 1.9 -17.0 0.15 -16.85 L6.75 -13.55 Q9.1 -12.5 10.95 -11.95 7.95 -12.4 4.4 -14.0 L3.4 -14.4 Q-0.95 -16.25 -4.95 -16.25 L-10.15 -16.05 Q-10.15 -15.9 -10.5 -15.9 L-7.2 -14.9 -6.2 -14.6 -15.5 -14.25 -19.4 -14.5 -24.15 -14.1 -23.9 -13.95 -18.4 -13.6 -12.95 -13.3 -19.65 -12.5 -24.3 -12.8 -25.35 -12.75 -19.0 -11.9 -16.8 -11.7 -18.8 -11.65 -22.35 -11.65 Q-26.9 -11.65 -31.6 -9.85 L-32.55 -5.15 Q-33.65 0.1 -35.05 3.95 L-35.3 4.65 Q-37.35 10.15 -40.7 15.1 -43.7 11.45 -43.7 9.25 L-43.7 9.2 -43.4 7.9 -42.95 6.5 -42.8 6.3 -42.7 6.05 Q-42.7 5.7 -42.8 5.9 -43.6 6.15 -44.05 7.4 L-44.4 8.9 -44.45 9.25 -44.4 9.4 -44.4 9.55 Q-45.05 10.45 -45.2 11.7 L-45.35 14.3 Q-47.0 11.55 -47.4 8.9 -47.6 7.7 -47.6 3.75 L-47.55 3.0 Q-47.3 2.25 -46.25 2.25 L-44.25 2.5 -43.75 2.75 Q-43.3 2.75 -43.3 2.3 -43.3 1.8 -46.1 -1.95 L-46.0 -2.05 -43.15 0.5 -41.2 2.3 -40.95 2.25 -40.9 2.15 Q-42.1 -0.4 -42.45 -3.35 L-42.65 -6.25 -42.45 -8.95 Q-42.1 -10.5 -41.9 -12.3 L-41.75 -12.3 Q-41.6 -9.95 -40.6 -7.05 L-39.9 -5.25 Q-39.4 -4.25 -38.95 -4.0 L-38.95 -3.35 -38.9 -3.1 -38.45 -3.9 -38.4 -3.95 -38.2 -4.15 -38.25 -4.35 -37.7 -6.75 -37.55 -6.85 -37.65 -7.0 -36.85 -11.95 Q-35.9 -17.15 -32.9 -20.95 -29.2 -25.6 -21.6 -29.8 L-21.15 -30.05 -15.15 -33.0 -12.8 -34.0 -12.45 -34.1 -8.9 -35.45 -6.65 -36.25 -8.95 -35.05 -12.55 -33.1 -13.25 -32.7 -14.4 -32.05 Q-23.5 -26.85 -24.4 -24.95 L-24.55 -24.75 -24.35 -24.85 -21.6 -26.45 -22.65 -25.7 Q-28.6 -21.3 -30.35 -17.7 -26.6 -21.25 -21.5 -24.65 L-21.7 -24.45 -25.85 -18.65 -25.85 -18.45 -25.75 -18.5 -21.55 -21.4 -18.35 -23.4 -18.85 -23.1 Q-22.75 -19.5 -24.3 -16.1 L-24.2 -16.1 Q-21.85 -18.9 -17.4 -22.75 L-19.1 -19.85 -16.1 -23.2 -14.65 -24.9 -14.15 -25.35 -13.6 -25.85 -12.9 -26.4 M-19.1 -19.85 L-19.25 -19.75 -19.2 -19.75 -19.1 -19.85 M10.4 -14.7 L10.55 -14.8 10.5 -14.65 10.4 -14.7 M28.25 -4.2 L28.3 -4.2 28.6 -3.9 28.25 -4.2 M28.1 -11.25 L28.1 -11.3 28.55 -11.05 28.1 -11.25 M-5.35 -13.65 L-5.85 -13.55 -5.35 -13.75 -5.35 -13.65" fill="url(#gradient0)" fill-rule="evenodd" stroke="none"/>
    <path d="M-40.7 15.1 Q-37.35 10.15 -35.3 4.65 L-35.05 3.95 Q-33.65 0.1 -32.55 -5.15 L-31.6 -9.85 Q-26.9 -11.65 -22.35 -11.65 L-18.8 -11.65 -16.8 -11.7 -13.2 -11.95 -12.9 -12.05 -11.85 -12.35 -8.05 -13.2 -8.0 -13.2 -5.85 -13.55 -5.35 -13.65 -4.05 -13.85 -4.05 -14.05 -4.45 -14.15 -6.2 -14.6 -7.2 -14.9 -10.5 -15.9 Q-10.15 -15.9 -10.15 -16.05 L-4.95 -16.25 Q-0.95 -16.25 3.4 -14.4 L4.4 -14.0 Q7.95 -12.4 10.95 -11.95 L11.0 -11.95 11.85 -11.85 13.15 -11.8 13.65 -11.8 9.65 -11.5 8.15 -11.5 5.0 -12.1 1.55 -12.7 1.4 -12.7 1.15 -12.6 1.05 -12.55 1.1 -12.25 1.1 -12.15 Q5.3 -10.6 10.1 -10.6 L11.95 -10.65 14.2 -9.4 15.9 -7.8 16.25 -7.4 16.7 -6.85 15.6 -7.45 Q12.1 -9.05 6.55 -9.45 9.6 -8.05 11.8 -6.3 13.2 -5.2 14.8 -3.35 L9.8 -4.7 Q7.95 -5.2 5.5 -6.6 L2.85 -8.25 2.8 -8.15 13.7 0.65 Q17.75 4.15 19.2 7.0 L18.75 5.9 Q17.75 3.35 17.3 1.35 L17.0 -0.65 21.3 5.6 Q21.25 4.6 19.95 2.2 L18.7 -0.15 18.75 -0.15 22.15 2.0 25.7 4.95 30.45 12.15 29.6 11.7 28.9 11.3 28.05 10.85 22.65 7.85 22.6 7.85 26.45 10.2 26.35 10.35 Q23.1 9.25 21.05 9.25 L19.55 9.45 17.4 9.6 19.1 10.6 24.2 13.3 29.35 16.0 38.05 20.45 40.05 21.45 42.05 23.8 Q40.2 22.5 38.0 21.55 L37.0 21.2 Q35.25 20.6 33.55 20.5 L31.45 20.45 31.05 20.55 Q30.85 20.65 30.8 20.7 L31.45 20.95 Q31.45 22.85 32.75 24.45 L33.8 25.5 Q34.7 26.25 37.15 27.6 L37.25 27.75 37.8 28.35 40.45 31.35 Q38.05 30.55 34.85 28.9 L32.35 27.5 30.5 26.4 28.2 25.0 Q27.75 23.9 27.75 23.2 L27.9 21.8 Q27.6 21.95 27.35 23.0 L27.15 24.3 27.65 25.95 28.0 26.7 28.8 27.95 30.9 30.1 31.45 30.6 Q34.25 33.15 34.5 35.1 33.05 33.8 30.05 32.1 L29.15 31.6 Q27.05 30.5 26.5 30.5 L26.3 30.55 25.95 30.95 25.9 31.4 26.0 32.3 26.25 33.05 26.85 35.0 24.85 33.3 Q22.8 31.85 20.05 31.85 15.15 31.85 14.5 34.4 L14.25 36.15 Q14.05 36.95 13.2 36.95 L10.1 35.9 Q7.0 34.85 2.1 34.85 -1.4 34.85 -1.75 35.4 L-1.45 36.45 Q-10.8 34.8 -20.3 28.25 -27.05 23.65 -31.65 21.25 L-35.95 19.65 -38.8 17.15 -40.65 15.15 -40.7 15.1 M-2.5 1.5 L-2.4 1.65 Q-2.35 1.4 -2.6 1.4 L-2.5 1.5" fill="url(#gradient1)" fill-rule="evenodd" stroke="none"/>
  </g>
  <defs>
    <radialGradient cx="0" cy="0" gradientTransform="matrix(0.0299, -0.0081, 0.005, 0.0185, -20.65, -20.85)" gradientUnits="userSpaceOnUse" id="gradient0" r="819.2" spreadMethod="pad">
      <stop offset="0.47843137254901963" stop-color="#ffffff"></stop>
      <stop offset="0.8823529411764706" stop-color="#f2eaea"></stop>
    </radialGradient>
    <radialGradient cx="0" cy="0" gradientTransform="matrix(0.0554, 0.0, 0.0, 0.0554, -13.55, 31.8)" gradientUnits="userSpaceOnUse" id="gradient1" r="819.2" spreadMethod="pad">
      <stop offset="0.0" stop-color="#9a5c5c"></stop>
      <stop offset="1.0" stop-color="#cca9a9"></stop>
    </radialGradient>
  </defs>
</svg>