<?xml version="1.0" encoding="UTF-8" standalone="no"?>
<svg xmlns:xlink="http://www.w3.org/1999/xlink" height="25.1px" width="31.55px" xmlns="http://www.w3.org/2000/svg">
  <g transform="matrix(1.0, 0.0, 0.0, 1.0, 28.65, -0.45)">
    <path d="M-0.25 17.05 L1.9 15.55 1.85 15.85 Q1.7 16.75 -3.25 20.4 -8.7 24.35 -11.35 24.0 -12.15 23.9 -12.1 23.35 L-9.55 20.4 -8.8 19.55 -10.15 20.2 Q-17.5 23.65 -21.8 23.1 -23.1 22.9 -23.35 22.5 L-26.85 24.55 Q-27.95 24.4 -27.55 23.65 -27.4 22.55 -26.15 20.9 L-26.7 20.9 Q-28.0 20.75 -27.5 19.5 -27.0 15.85 -20.85 9.3 -14.7 2.75 -10.4 1.45 L-11.8 2.55 -13.95 4.45 Q-19.45 9.1 -22.6 13.1 L-22.85 13.4 -25.4 17.3 -25.85 18.5 -26.35 19.8 -25.4 19.9 Q-23.55 17.55 -19.95 14.4 -13.3 8.35 -10.75 7.4 L-18.85 15.05 -22.05 18.1 -24.35 20.8 -25.75 22.8 Q-15.6 16.8 -11.4 11.2 -10.95 11.5 -11.0 11.85 -11.1 12.9 -14.05 15.65 L-17.55 18.6 -22.55 21.95 -19.7 21.45 Q-15.2 20.6 -10.8 19.2 -9.45 18.8 -7.1 17.1 -5.0 15.5 -3.4 15.35 -3.25 15.25 -3.3 15.7 -3.4 16.6 -6.25 18.2 L-7.85 19.9 -10.45 22.35 -10.45 22.5 -10.4 22.5 Q-7.15 21.4 -3.3 18.95 L-2.0 18.15 -2.0 18.1 -1.4 17.85 -0.95 17.5 -0.25 17.05" fill="#835252" fill-rule="evenodd" stroke="none"/>
    <path d="M-0.25 17.05 L-0.95 17.5 -1.4 17.85 -2.0 18.1 -2.0 18.15 -3.3 18.95 Q-7.15 21.4 -10.4 22.5 L-10.45 22.35 -7.85 19.9 -6.25 18.2 Q-3.4 16.6 -3.3 15.7 -3.25 15.25 -3.4 15.35 -5.0 15.5 -7.1 17.1 -9.45 18.8 -10.8 19.2 -15.2 20.6 -19.7 21.45 L-22.55 21.95 -17.55 18.6 -14.05 15.65 Q-11.1 12.9 -11.0 11.85 -10.95 11.5 -11.4 11.2 -15.6 16.8 -25.75 22.8 L-24.35 20.8 -24.35 20.85 -23.85 21.1 Q-22.9 21.2 -18.3 16.8 -18.05 15.1 -21.15 17.4 L-22.05 18.1 -18.85 15.05 -10.75 7.4 Q-13.3 8.35 -19.95 14.4 -23.55 17.55 -25.4 19.9 L-26.35 19.8 -25.85 18.5 -25.35 18.85 Q-24.85 18.9 -22.45 15.95 L-20.1 12.75 Q-19.9 11.15 -21.5 12.2 L-22.6 13.1 Q-19.45 9.1 -13.95 4.45 L-11.8 2.55 Q-11.1 2.7 -10.3 3.4 L-6.65 6.95 Q-2.3 10.5 -1.0 12.85 -0.1 14.6 -0.25 17.05 M-18.95 20.45 L-18.6 20.95 -17.05 20.3 Q-16.45 20.0 -16.4 19.65 -16.35 19.2 -16.45 19.25 L-18.0 19.55 Q-18.9 20.05 -18.95 20.45" fill="#da952e" fill-rule="evenodd" stroke="none"/>
    <path d="M-24.35 20.8 L-22.05 18.1 -21.15 17.4 Q-18.05 15.1 -18.3 16.8 -22.9 21.2 -23.85 21.1 L-24.35 20.85 -24.35 20.8 M-25.85 18.5 L-25.4 17.3 -22.85 13.4 -22.6 13.1 -21.5 12.2 Q-19.9 11.15 -20.1 12.75 L-22.45 15.95 Q-24.85 18.9 -25.35 18.85 L-25.85 18.5 M-18.95 20.45 Q-18.9 20.05 -18.0 19.55 L-16.45 19.25 Q-16.35 19.2 -16.4 19.65 -16.45 20.0 -17.05 20.3 L-18.6 20.95 -18.95 20.45" fill="#edd823" fill-rule="evenodd" stroke="none"/>
  </g>
</svg>