<?xml version="1.0" encoding="UTF-8" standalone="no"?>
<svg xmlns:xlink="http://www.w3.org/1999/xlink" height="27.5px" width="24.25px" xmlns="http://www.w3.org/2000/svg">
  <g transform="matrix(1.0, 0.0, 0.0, 1.0, 8.35, 12.2)">
    <path d="M10.25 -0.55 L10.7 0.85 12.9 1.1 Q12.3 1.6 11.4 1.55 L10.9 1.45 10.95 1.7 12.2 1.7 12.65 1.8 11.05 2.0 11.25 2.95 12.7 2.8 Q14.6 2.6 14.85 2.8 L14.85 3.2 11.4 3.5 11.9 5.95 11.85 6.05 Q11.3 5.45 10.85 3.55 L10.0 3.7 10.65 5.95 10.55 6.05 Q9.9 5.45 9.4 3.8 L8.45 3.95 7.8 3.8 9.3 3.45 9.05 2.45 9.0 2.25 7.15 2.25 7.1 2.0 7.15 1.75 8.9 1.75 8.85 1.45 6.6 1.55 6.45 1.5 Q6.85 0.95 8.75 0.85 L8.5 -1.7 8.7 -2.35 9.15 -0.3 9.3 0.8 10.2 0.8 10.05 -0.25 10.25 -0.55 M10.5 2.1 L9.55 2.25 9.85 3.25 10.05 3.2 10.7 3.05 10.6 2.6 10.5 2.1 M10.35 1.4 L9.85 1.35 9.35 1.4 9.45 1.7 10.4 1.7 10.35 1.4 M2.85 5.35 Q2.0 2.5 -1.1 0.7 L-2.15 0.05 -0.3 4.1 Q0.7 6.5 0.7 8.85 L0.25 14.25 0.15 14.3 -0.15 12.85 0.05 9.65 Q0.05 4.8 -3.4 0.15 -3.85 -0.55 -3.8 -1.75 L-3.9 -2.2 -3.75 -2.6 Q-3.75 -3.95 -4.2 -4.6 L-5.55 -5.75 Q-6.6 -6.4 -6.95 -6.95 -7.35 -7.7 -7.35 -9.25 L-7.25 -10.15 -7.25 -11.15 -7.1 -11.2 -6.65 -8.6 Q-6.35 -7.05 -4.9 -6.2 -2.9 -5.0 -2.8 -3.6 L-2.9 -2.2 -2.5 -1.85 -0.4 0.35 Q1.55 1.5 2.15 2.3 2.7 3.0 2.7 4.1 L2.95 5.3 2.85 5.35 M-2.7 -1.15 L-2.65 -1.05 -2.25 -0.65 -2.7 -1.2 -2.7 -1.15" fill="#ae5fe4" fill-rule="evenodd" stroke="none"/>
  </g>
</svg>