<?xml version="1.0" encoding="UTF-8" standalone="no"?>
<svg xmlns:xlink="http://www.w3.org/1999/xlink" height="27.7px" width="39.65px" xmlns="http://www.w3.org/2000/svg">
  <g transform="matrix(1.0, 0.0, 0.0, 1.0, 25.2, 9.25)">
    <path d="M5.15 1.15 L5.9 -0.1 5.6 0.05 4.75 0.25 3.55 0.0 3.5 -0.55 Q3.5 -1.25 3.85 -1.9 L4.2 -2.6 Q5.95 -3.65 7.9 -3.45 L6.15 -0.45 5.9 -0.05 5.15 1.15 M11.35 14.55 L10.1 14.5 9.3 14.15 8.7 13.8 6.7 12.1 4.85 10.1 Q7.05 10.45 7.85 11.25 L9.3 12.9 11.1 14.3 11.35 14.55 M-3.8 -3.65 L-3.95 -3.55 Q-4.7 -2.8 -5.15 -2.8 L-6.65 -4.15 -6.8 -4.3 -7.0 -3.2 -6.5 -6.65 Q-6.2 -8.6 -4.05 -4.75 L-3.8 -3.65 M-10.7 6.7 Q-11.6 7.15 -13.3 8.2 -16.1 9.75 -18.05 9.75 -18.95 9.75 -19.7 9.2 L-19.85 9.1 Q-17.0 8.65 -15.55 7.9 -12.7 6.45 -11.15 6.15 L-10.7 6.7" fill="#edd823" fill-rule="evenodd" stroke="none"/>
    <path d="M4.2 -2.6 L3.85 -1.9 Q3.5 -1.25 3.5 -0.55 L3.55 0.0 4.75 0.25 5.6 0.05 5.9 -0.1 5.15 1.15 Q4.65 1.95 4.5 2.5 L3.2 5.85 Q1.95 8.3 0.1 8.3 -0.9 8.3 -1.35 7.1 L-1.6 5.85 Q-1.6 3.75 1.05 0.35 L3.0 -1.75 3.1 -1.85 4.2 -2.6 M11.35 14.55 L12.4 15.65 12.5 16.0 12.45 16.25 11.0 16.5 8.1 15.35 5.3 14.05 Q1.15 12.6 1.15 11.85 L2.35 10.85 3.65 10.15 3.6 10.2 3.85 10.1 4.1 10.0 4.85 10.1 6.7 12.1 8.7 13.8 9.3 14.15 10.1 14.5 11.35 14.55 M-7.0 -3.2 L-6.8 -4.3 -6.65 -4.15 -5.15 -2.8 Q-4.7 -2.8 -3.95 -3.55 L-3.8 -3.65 -3.75 -3.1 -3.75 -3.0 -3.65 -2.6 -3.7 -2.6 -3.55 -1.4 -3.8 1.65 Q-4.25 4.7 -5.3 4.7 -6.3 4.7 -7.05 3.05 -7.7 1.6 -7.7 0.15 L-7.1 -2.6 -7.1 -2.8 -7.0 -3.2 M-10.7 6.7 L-10.5 6.85 -10.1 7.1 -9.9 7.4 Q-9.9 7.9 -12.5 9.65 -15.3 11.55 -16.95 11.55 -19.75 11.55 -21.5 10.6 L-23.2 9.45 -23.0 9.4 -19.85 9.1 -19.7 9.2 Q-18.95 9.75 -18.05 9.75 -16.1 9.75 -13.3 8.2 -11.6 7.15 -10.7 6.7" fill="#da952e" fill-rule="evenodd" stroke="none"/>
    <path d="M5.15 1.15 L5.9 -0.05 6.15 -0.45 7.9 -3.45 Q5.95 -3.65 4.2 -2.6 L3.1 -1.85 3.0 -1.75 1.05 0.35 Q-1.6 3.75 -1.6 5.85 L-1.35 7.1 Q-0.9 8.3 0.1 8.3 1.95 8.3 3.2 5.85 L4.5 2.5 Q4.65 1.95 5.15 1.15 M8.75 -3.4 Q8.75 -2.2 7.15 -0.15 5.45 2.0 5.25 3.2 4.95 4.85 3.9 6.55 2.2 9.3 -0.3 9.3 -1.55 9.3 -2.15 8.05 L-2.5 6.75 Q-2.5 0.6 3.15 -2.8 5.2 -4.05 7.0 -4.25 8.75 -4.4 8.75 -3.4 M3.65 10.15 L2.35 10.85 1.15 11.85 Q1.15 12.6 5.3 14.05 L8.1 15.35 11.0 16.5 12.45 16.25 12.5 16.0 12.4 15.65 11.35 14.55 11.1 14.3 9.3 12.9 7.85 11.25 Q7.05 10.45 4.85 10.1 L4.1 10.0 3.85 10.1 3.65 10.15 M2.75 9.4 Q5.85 8.3 8.6 10.8 L11.6 13.35 Q13.45 14.95 13.45 16.05 L13.3 16.85 Q12.9 17.45 11.45 17.45 10.2 17.45 7.45 16.25 L4.6 14.95 Q2.6 14.5 1.3 13.55 0.05 12.65 0.05 11.85 0.05 10.35 2.75 9.4 M-7.9 -3.8 L-7.85 -5.85 Q-7.85 -7.15 -7.25 -7.65 -4.85 -9.45 -3.5 -6.0 -2.55 -3.6 -2.55 -1.4 -2.6 0.45 -2.95 2.2 -3.65 5.7 -5.25 5.7 -6.15 5.7 -7.15 4.5 L-8.2 2.95 Q-8.7 1.9 -8.7 0.1 L-8.35 -1.9 -7.9 -3.8 M-7.0 -3.2 L-7.1 -2.8 -7.1 -2.6 -7.7 0.15 Q-7.7 1.6 -7.05 3.05 -6.3 4.7 -5.3 4.7 -4.25 4.7 -3.8 1.65 L-3.55 -1.4 -3.7 -2.6 -3.65 -2.6 -3.75 -3.0 -3.75 -3.1 -3.8 -3.65 -4.05 -4.75 Q-6.2 -8.6 -6.5 -6.65 L-7.0 -3.2 M-8.95 7.35 Q-8.95 8.25 -11.45 10.3 -14.3 12.65 -16.9 12.65 -20.05 12.65 -22.4 11.2 -24.2 10.05 -24.2 9.4 -24.2 8.4 -23.15 8.3 L-16.95 7.4 Q-13.25 5.25 -11.9 5.25 -10.25 5.25 -9.45 6.3 -9.05 6.8 -8.95 7.35 M-19.85 9.1 L-23.0 9.4 -23.2 9.45 -21.5 10.6 Q-19.75 11.55 -16.95 11.55 -15.3 11.55 -12.5 9.65 -9.9 7.9 -9.9 7.4 L-10.1 7.1 -10.5 6.85 -10.7 6.7 -11.15 6.15 Q-12.7 6.45 -15.55 7.9 -17.0 8.65 -19.85 9.1" fill="#624040" fill-rule="evenodd" stroke="none"/>
    <path d="M3.85 10.1 L3.6 10.2 3.65 10.15 3.85 10.1" fill="#ffffcc" fill-rule="evenodd" stroke="none"/>
  </g>
</svg>