<?xml version="1.0" encoding="UTF-8" standalone="no"?>
<svg xmlns:xlink="http://www.w3.org/1999/xlink" height="40.1px" width="38px" xmlns="http://www.w3.org/2000/svg">
  <g transform="matrix(1.0, 0.0, 0.0, 1.0, 19, 20.05)">
    <path d="M13.3 -16.1 L14.25 -15.95 16.85 -15.3 14.75 -14.25 16.6 -10.65 Q18.0 -7.7 18.0 -7.25 L17.95 -7.25 Q16.35 -7.8 15.85 -8.35 L15.6 -6.4 15.55 -6.25 Q14.75 -0.35 14.7 1.7 L12.8 -0.7 12.15 0.45 11.6 1.05 10.55 3.25 10.65 3.3 9.8 5.5 8.6 8.3 7.75 9.8 Q6.6 11.7 5.5 12.6 L5.95 11.2 5.9 9.55 5.9 9.45 Q4.15 11.6 1.6 13.8 -1.4 16.3 -3.55 17.55 -2.9 15.95 -2.85 14.85 L-2.85 14.8 -8.6 19.05 -7.5 15.45 Q-9.8 16.7 -14.25 17.85 L-15.65 17.85 -15.2 17.2 -14.0 15.2 -12.85 12.8 -12.85 12.7 Q-15.65 14.25 -16.55 15.25 L-16.35 14.6 Q-15.75 12.05 -16.0 11.25 L-16.3 10.15 -15.7 8.45 -15.45 7.9 -14.0 4.45 Q-15.45 5.4 -17.3 5.6 -17.45 5.6 -18.0 6.15 L-15.05 1.15 -14.15 -0.45 -11.55 -4.4 -11.05 -4.95 -10.15 -6.15 -10.0 -6.05 -6.45 -8.6 -11.75 -8.05 Q-9.8 -10.6 -4.4 -13.5 L-2.8 -14.35 -5.5 -16.15 -1.8 -16.2 5.65 -16.5 4.5 -19.05 5.85 -18.45 8.6 -16.9 13.3 -16.1 M14.5 -7.9 L14.75 -9.75 16.2 -9.55 14.05 -12.95 12.9 -14.55 Q12.9 -14.85 13.5 -15.1 L13.05 -15.15 7.8 -16.0 Q7.95 -15.75 7.05 -15.5 L-1.25 -15.2 Q-0.55 -14.65 1.45 -14.3 L-1.3 -14.15 -1.5 -14.15 -1.35 -14.05 -1.2 -13.95 -2.2 -13.55 -2.35 -13.5 Q-4.9 -11.8 -9.0 -9.35 L-6.75 -9.65 -3.95 -10.25 -2.6 -10.65 -2.85 -10.25 -5.9 -7.45 -9.65 -3.95 -12.15 -1.05 -12.9 0.0 Q-13.95 1.7 -14.4 3.1 L-12.8 3.35 -12.85 3.95 -13.25 5.75 -13.8 7.4 -14.8 10.7 -14.8 12.5 -13.25 11.45 Q-12.4 10.8 -11.25 10.45 L-11.2 10.95 -11.5 11.65 -12.45 13.95 -13.1 15.6 -12.15 15.4 -9.2 14.5 -6.8 13.7 -5.55 13.25 -6.05 13.85 -6.35 15.7 -6.3 15.75 -3.55 14.15 Q-1.0 12.6 0.0 11.5 L1.15 10.15 0.1 13.25 Q1.65 12.25 4.8 9.0 L5.6 8.2 8.1 6.0 8.6 4.95 Q9.75 2.35 10.8 0.7 L12.2 -1.9 12.7 -2.85 12.85 -2.6 Q13.65 -1.15 14.1 -0.8 L14.2 -0.8 Q14.15 -5.25 14.5 -7.9" fill="#a26a6a" fill-rule="evenodd" stroke="none"/>
    <path d="M13.05 -15.15 L13.5 -15.1 Q12.9 -14.85 12.9 -14.55 L14.05 -12.95 16.2 -9.55 14.75 -9.75 14.5 -7.9 13.55 -9.5 13.1 -6.6 12.5 -3.6 12.5 -6.75 9.5 -0.3 6.7 6.4 6.55 6.55 Q7.3 4.95 9.65 -3.3 L9.6 -3.3 4.05 6.95 3.55 7.75 0.65 12.3 0.5 12.45 1.85 9.6 3.05 6.3 -1.15 11.5 -1.3 11.5 -0.9 10.35 -0.55 9.15 Q-0.4 9.0 -0.75 9.0 -1.45 9.0 -4.45 11.65 L-6.8 13.7 -9.2 14.5 -7.6 12.0 -7.65 11.9 -12.15 15.4 -13.1 15.6 -12.45 13.95 Q-9.6 11.15 -6.35 7.0 L-6.35 7.3 -8.1 11.8 -8.05 11.85 -3.0 5.9 -0.8 3.1 1.45 -0.15 1.3 0.3 -3.4 9.9 -2.9 9.75 2.3 5.6 3.2 4.5 5.9 0.5 Q7.4 -1.85 7.4 -2.3 L4.05 0.9 3.7 1.2 Q4.3 -0.5 5.0 -1.7 9.1 -9.6 9.5 -9.95 7.8 -5.7 7.6 -4.6 L9.35 -7.45 11.3 -10.55 13.05 -15.15 M2.45 4.9 L2.35 5.1 2.3 5.15 2.45 4.9" fill="#cca9a9" fill-rule="evenodd" stroke="none"/>
    <path d="M13.05 -15.15 L11.3 -10.55 9.35 -7.45 7.6 -4.6 Q7.8 -5.7 9.5 -9.95 9.1 -9.6 5.0 -1.7 4.3 -0.5 3.7 1.2 L4.05 0.9 7.4 -2.3 Q7.4 -1.85 5.9 0.5 L3.2 4.5 2.3 5.6 -2.9 9.75 -3.4 9.9 1.3 0.3 1.45 -0.15 -0.8 3.1 -3.0 5.9 -8.05 11.85 -8.1 11.8 -6.35 7.3 -6.35 7.0 Q-9.6 11.15 -12.45 13.95 L-11.5 11.65 -11.2 10.95 -11.25 10.45 Q-12.4 10.8 -13.25 11.45 L-14.8 12.5 -14.8 10.7 -13.8 7.4 -13.25 5.75 -13.0 5.55 Q-12.95 6.0 -13.55 7.4 L-14.25 9.15 -14.15 9.15 -5.65 -0.85 -3.55 -3.25 -8.55 6.7 -8.5 6.7 -3.75 1.4 -3.35 1.0 1.75 -4.45 Q0.45 -3.8 -1.5 -2.15 L-4.3 0.25 -4.9 0.75 -4.9 0.6 -4.5 0.1 -3.0 -1.95 0.35 -6.05 5.3 -10.5 Q8.6 -13.3 9.2 -13.5 L3.7 -11.0 -1.7 -8.55 -1.45 -8.85 1.15 -11.55 3.5 -13.7 Q2.8 -13.65 0.55 -12.4 L-2.6 -10.65 -3.95 -10.25 -2.25 -13.45 -2.35 -13.5 -2.2 -13.55 -1.2 -13.95 -1.35 -14.05 -1.3 -14.15 1.45 -14.3 Q-0.55 -14.65 -1.25 -15.2 L7.05 -15.5 Q7.95 -15.75 7.8 -16.0 L13.05 -15.15 M-3.55 -3.25 L-3.55 -3.3 -3.4 -3.45 -3.55 -3.25 M2.45 4.9 L2.3 5.15 2.35 5.1 2.45 4.9" fill="#e0caca" fill-rule="evenodd" stroke="none"/>
    <path d="M-12.15 15.4 L-7.65 11.9 -7.6 12.0 -9.2 14.5 -12.15 15.4 M-6.8 13.7 L-4.45 11.65 Q-1.45 9.0 -0.75 9.0 -0.4 9.0 -0.55 9.15 L-0.9 10.35 -1.3 11.5 -1.15 11.5 3.05 6.3 1.85 9.6 0.5 12.45 0.65 12.3 3.55 7.75 4.05 6.95 9.6 -3.3 9.65 -3.3 Q7.3 4.95 6.55 6.55 L6.7 6.4 9.5 -0.3 12.5 -6.75 12.5 -3.6 13.1 -6.6 13.55 -9.5 14.5 -7.9 Q14.15 -5.25 14.2 -0.8 L14.1 -0.8 Q13.65 -1.15 12.85 -2.6 L12.7 -2.85 12.2 -1.9 10.8 0.7 Q9.75 2.35 8.6 4.95 L8.1 6.0 5.6 8.2 4.8 9.0 Q1.65 12.25 0.1 13.25 L1.15 10.15 0.0 11.5 Q-1.0 12.6 -3.55 14.15 L-6.3 15.75 -6.35 15.7 -6.05 13.85 -5.55 13.25 -6.8 13.7 M-2.6 -10.65 L0.55 -12.4 Q2.8 -13.65 3.5 -13.7 L1.15 -11.55 -1.45 -8.85 -1.7 -8.55 3.7 -11.0 9.2 -13.5 Q8.6 -13.3 5.3 -10.5 L0.35 -6.05 -3.0 -1.95 -4.5 0.1 -4.9 0.6 -4.9 0.75 -4.3 0.25 -1.5 -2.15 Q0.45 -3.8 1.75 -4.45 L-3.35 1.0 -3.75 1.4 -8.5 6.7 -8.55 6.7 -3.55 -3.25 -5.65 -0.85 -14.15 9.15 -14.25 9.15 -13.55 7.4 Q-12.95 6.0 -13.0 5.55 L-13.25 5.75 -12.85 3.95 -12.8 3.35 -14.4 3.1 Q-13.95 1.7 -12.9 0.0 L-12.15 -1.05 -9.65 -3.95 -5.9 -7.45 -2.85 -10.25 -2.6 -10.65 M-2.35 -13.5 L-2.25 -13.45 -3.95 -10.25 -6.75 -9.65 -9.0 -9.35 Q-4.9 -11.8 -2.35 -13.5 M-3.55 -3.25 L-3.4 -3.45 -3.55 -3.3 -3.55 -3.25" fill="#f2eaea" fill-rule="evenodd" stroke="none"/>
  </g>
</svg>