<?xml version="1.0" encoding="UTF-8" standalone="no"?>
<svg xmlns:xlink="http://www.w3.org/1999/xlink" height="42.6px" width="25.9px" xmlns="http://www.w3.org/2000/svg">
  <g transform="matrix(1.0, 0.0, 0.0, 1.0, 6.1, 22.1)">
    <path d="M6.75 -21.1 L6.9 -20.7 6.1 -16.4 5.85 -11.45 5.45 -9.3 5.5 -8.9 3.65 -2.2 Q3.65 -0.3 5.15 1.85 6.65 4.0 6.65 4.9 6.65 6.2 6.05 8.6 5.4 10.95 5.4 12.3 5.4 13.4 6.15 14.7 6.85 16.05 6.85 17.05 L6.55 19.45 6.35 19.5 6.25 18.9 6.5 17.1 Q6.5 16.5 5.7 14.9 4.9 13.35 4.9 11.5 4.9 10.5 5.45 8.2 L5.95 5.95 Q5.95 4.1 4.35 2.15 2.7 0.25 2.7 -1.35 2.7 -3.95 3.35 -5.5 L3.6 -6.05 1.8 -4.35 Q0.25 -2.8 -0.25 -1.85 -0.7 -1.0 -2.4 0.6 L-4.9 3.0 -5.05 2.95 -5.1 2.8 Q-5.1 2.1 -4.25 1.2 L-2.7 -0.3 Q-1.9 -1.05 -0.45 -3.3 L2.1 -6.25 Q3.8 -8.1 4.2 -9.25 4.6 -10.45 4.9 -15.25 5.15 -18.95 6.75 -21.1 M6.3 -5.0 Q6.65 -5.55 7.0 -5.55 7.65 -5.55 7.5 -5.0 L6.8 -3.35 6.0 -1.4 5.9 -1.25 6.95 -1.55 7.5 -1.5 7.55 -0.8 Q6.95 1.3 6.95 2.1 L6.9 2.25 6.45 2.25 6.3 1.05 6.75 -0.6 Q6.1 0.0 5.45 0.0 L4.95 0.0 4.85 -0.65 5.3 -2.0 4.8 -2.45 Q4.8 -3.1 6.25 -6.05 7.65 -8.95 8.25 -9.6 6.8 -6.55 6.3 -5.1 L6.3 -5.0 M15.9 -7.35 Q15.5 -5.95 15.6 -4.45 L15.75 -1.95 15.0 1.25 Q14.95 2.3 15.2 4.5 L15.0 8.1 14.75 8.1 14.15 1.35 14.75 -1.35 14.55 -4.1 Q14.55 -6.85 15.2 -8.3 16.0 -10.05 18.8 -12.75 18.6 -11.85 17.35 -10.05 16.15 -8.25 15.9 -7.35 M9.8 1.6 L9.15 3.55 8.1 5.3 7.85 5.25 7.8 4.95 Q7.8 3.85 9.5 0.95 L9.8 1.6" fill="#ae5fe4" fill-rule="evenodd" stroke="none"/>
  </g>
</svg>