<?xml version="1.0" encoding="UTF-8" standalone="no"?>
<svg xmlns:xlink="http://www.w3.org/1999/xlink" height="41.8px" width="27.75px" xmlns="http://www.w3.org/2000/svg">
  <g transform="matrix(1.0, 0.0, 0.0, 1.0, 9.55, 21.4)">
    <path d="M17.2 -19.9 L16.55 -18.2 15.85 -16.25 Q15.45 -14.3 15.7 -12.55 15.85 -11.25 15.3 -9.45 L15.5 -10.05 15.6 -9.7 15.65 -8.05 15.45 -5.9 16.05 -1.85 Q16.05 -0.7 15.7 0.15 L14.65 2.75 14.5 2.8 14.3 2.8 14.25 2.6 Q14.25 2.1 14.6 1.05 14.95 0.05 14.95 -1.25 L14.7 -3.55 14.45 -5.85 14.6 -7.65 13.6 -5.2 Q13.25 -4.2 11.3 -1.55 9.55 0.9 9.35 2.1 8.95 4.8 8.75 9.5 L8.55 9.6 Q8.2 9.6 8.15 8.55 L8.15 7.45 Q8.15 2.5 9.15 0.35 11.05 -2.75 12.85 -6.55 15.0 -11.1 14.55 -13.5 14.3 -15.1 15.0 -17.05 15.65 -18.9 16.9 -20.4 L17.2 -19.9 M-2.95 6.1 L-3.7 7.7 Q-4.45 9.5 -4.45 10.4 L-3.75 11.65 -3.1 12.85 Q-3.1 13.95 -3.25 14.25 L-3.4 15.45 Q-3.4 16.55 -2.55 17.85 L-1.7 19.15 -1.75 19.3 -1.75 19.35 -1.9 19.4 Q-3.2 19.4 -3.8 17.3 L-4.15 15.05 -3.95 13.5 Q-3.95 13.0 -4.75 11.95 L-5.6 10.35 Q-5.6 8.75 -4.5 7.05 L-4.75 7.25 Q-7.85 10.1 -7.85 11.95 L-7.45 13.45 -7.5 14.5 -7.55 14.65 -8.25 12.8 -8.55 11.15 Q-8.55 10.65 -7.5 8.9 L-6.25 7.0 Q-4.85 5.6 -3.75 5.1 -2.85 4.7 -2.5 4.1 L-2.05 3.15 -1.65 4.15 -3.6 6.2 -3.0 5.65 -2.95 6.1" fill="#ae5fe4" fill-rule="evenodd" stroke="none"/>
  </g>
</svg>