<?xml version="1.0" encoding="UTF-8" standalone="no"?>
<svg xmlns:xlink="http://www.w3.org/1999/xlink" height="20.45px" width="13.55px" xmlns="http://www.w3.org/2000/svg">
  <g transform="matrix(1.0, 0.0, 0.0, 1.0, 4.8, 11.2)">
    <path d="M5.25 -6.8 L3.6 -6.45 2.1 -6.35 2.35 -5.5 2.55 -5.5 5.9 -5.1 6.0 -4.9 4.6 -4.7 2.55 -4.8 2.6 -4.55 4.8 -4.6 7.7 -4.35 7.75 -4.15 7.0 -3.9 4.65 -4.0 2.7 -4.0 2.6 -4.4 3.05 -2.15 3.5 -1.0 3.35 0.15 3.3 0.75 3.2 0.8 3.1 1.8 Q3.1 2.3 3.9 3.7 L5.15 5.5 5.05 5.75 Q3.45 5.2 2.55 3.75 1.85 2.55 1.85 1.4 1.85 0.7 2.0 0.15 L1.25 -2.8 0.8 -3.55 1.05 -2.45 1.4 -0.55 Q1.4 0.8 0.15 2.5 -1.1 4.2 -1.1 5.7 L-0.75 6.95 Q-0.4 7.75 0.15 8.15 L0.15 8.25 Q-1.05 7.3 -1.45 6.45 -1.85 5.75 -1.85 4.65 -1.85 3.6 -0.75 1.95 0.3 0.3 0.3 -0.55 L0.05 -1.95 -0.25 -3.75 -0.25 -3.9 -1.4 -3.8 -2.35 -3.5 -2.9 -3.5 -3.1 -3.6 -2.05 -4.1 -0.2 -4.4 -0.1 -4.7 -2.95 -4.45 -3.55 -4.6 -3.55 -4.65 -3.4 -4.65 Q-2.05 -5.25 0.25 -5.4 L0.2 -5.55 0.0 -6.15 -1.15 -5.9 -2.75 -5.65 -3.8 -5.8 -0.95 -6.6 -0.25 -6.7 Q-1.55 -9.7 -2.45 -9.7 -2.6 -9.7 -2.65 -9.8 L-2.7 -10.0 -2.65 -10.2 Q-0.8 -8.85 0.3 -6.8 L1.45 -6.95 0.5 -9.65 0.6 -9.65 1.8 -7.25 1.95 -6.75 1.9 -7.0 3.9 -7.1 5.2 -7.0 5.25 -6.8 M0.55 -6.25 L0.7 -5.95 Q0.9 -6.35 1.5 -5.5 L1.8 -5.5 1.6 -6.3 0.55 -6.25 M1.9 -4.8 L1.95 -4.6 1.95 -4.8 1.9 -4.8 M2.15 -0.9 L1.85 -1.75 2.15 -0.65 2.15 -0.9" fill="#ae5fe4" fill-rule="evenodd" stroke="none"/>
  </g>
</svg>