<?xml version="1.0" encoding="UTF-8" standalone="no"?>
<svg xmlns:xlink="http://www.w3.org/1999/xlink" height="18.15px" width="21.85px" xmlns="http://www.w3.org/2000/svg">
  <g transform="matrix(1.0, 0.0, 0.0, 1.0, 23.95, 1.55)">
    <path d="M-20.6 13.5 L-20.65 13.55 -20.05 13.2 -18.45 12.25 -18.3 12.15 -13.8 9.35 -9.5 6.65 Q-9.05 6.3 -8.95 5.25 -8.9 4.4 -8.25 4.3 L-8.35 3.0 Q-8.5 2.8 -8.9 2.7 L-9.1 3.25 -9.45 3.3 -9.9 3.25 -9.95 2.9 -9.85 2.55 -12.1 2.5 -12.85 2.85 -14.25 3.55 -14.7 3.8 -14.7 3.85 Q-17.35 5.5 -19.05 7.95 -20.3 9.85 -21.8 14.05 L-21.8 14.15 -21.75 14.15 -20.6 13.5 M-7.85 1.65 L-8.05 2.15 Q-7.45 2.8 -7.45 3.85 L-7.5 4.35 -8.15 4.5 -7.95 5.0 Q-7.95 6.6 -9.3 7.55 L-14.15 10.45 -18.35 13.2 Q-21.55 15.15 -22.4 15.15 L-22.9 15.1 -22.95 14.75 Q-22.95 14.4 -21.35 11.0 L-21.3 10.9 -20.8 8.0 -19.95 2.35 Q-19.6 -0.5 -15.6 -0.55 -11.65 -0.65 -9.7 0.2 -7.85 1.05 -7.85 1.65 M-20.1 8.4 L-19.05 6.45 -17.35 4.25 -16.1 3.15 -14.7 2.35 -14.55 2.3 Q-11.35 1.0 -9.55 1.4 -11.65 0.45 -13.85 0.2 L-14.55 0.15 -15.3 0.1 Q-18.25 0.05 -19.0 3.0 -19.8 5.9 -20.1 8.4 L-20.15 8.5 -20.1 8.4" fill="#624040" fill-rule="evenodd" stroke="none"/>
    <path d="M-14.7 3.85 L-14.7 3.8 -14.25 3.55 -12.85 2.85 -12.1 2.5 -9.85 2.55 -9.95 2.9 -9.9 3.25 -9.45 3.3 -9.1 3.25 -8.9 2.7 Q-8.5 2.8 -8.35 3.0 L-8.25 4.3 Q-8.9 4.4 -8.95 5.25 -9.05 6.3 -9.5 6.65 L-13.8 9.35 -18.3 12.15 -18.45 12.25 -20.05 13.2 -20.65 13.55 -20.6 13.5 -18.2 10.5 Q-15.1 7.3 -12.8 6.0 L-12.75 5.9 -16.05 6.95 Q-16.7 6.95 -16.55 6.55 L-14.7 3.85 M-20.1 8.4 Q-19.8 5.9 -19.0 3.0 -18.25 0.05 -15.3 0.1 L-14.55 0.15 -13.85 0.2 Q-11.65 0.45 -9.55 1.4 -11.35 1.0 -14.55 2.3 L-14.7 2.35 -16.1 3.15 -17.35 4.25 -19.05 6.45 -20.1 8.4" fill="#da952e" fill-rule="evenodd" stroke="none"/>
    <path d="M-12.75 5.9 L-12.8 6.0 -12.75 5.9 M-20.1 8.4 L-20.15 8.5 -20.1 8.4" fill="#ffffcc" fill-rule="evenodd" stroke="none"/>
    <path d="M-14.7 3.85 L-16.55 6.55 Q-16.7 6.95 -16.05 6.95 L-12.75 5.9 -12.8 6.0 Q-15.1 7.3 -18.2 10.5 L-20.6 13.5 -21.75 14.15 -21.8 14.05 Q-20.3 9.85 -19.05 7.95 -17.35 5.5 -14.7 3.85" fill="#edd823" fill-rule="evenodd" stroke="none"/>
    <path d="M-11.3 6.7 L-10.6 6.25 -8.75 5.2 -8.15 4.9 -6.6 4.7 Q-5.65 4.8 -5.25 5.2 L-4.55 5.9 -3.95 6.6 Q-3.95 9.45 -8.05 10.4 L-14.4 12.05 -14.35 12.0 -15.0 12.2 -16.8 12.75 -16.9 12.8 -17.0 12.8 -14.5 10.9 Q-11.7 8.9 -8.8 7.05 L-8.75 6.95 -8.8 7.0 -12.0 8.15 -13.2 8.65 -11.3 6.7 M-10.45 6.95 L-10.4 6.95 -10.4 6.9 -10.45 6.95" fill="#da952e" fill-rule="evenodd" stroke="none"/>
    <path d="M-14.4 12.05 L-8.05 10.4 Q-3.95 9.45 -3.95 6.6 L-4.55 5.9 -5.25 5.2 Q-5.65 4.8 -6.6 4.7 L-8.15 4.9 -8.75 5.2 -10.6 6.25 -11.3 6.7 -12.85 7.65 Q-16.0 9.8 -19.85 13.85 L-17.05 12.85 -17.0 12.8 -16.9 12.8 -16.8 12.75 -15.0 12.2 -14.4 12.05 M-3.1 7.8 Q-3.1 9.45 -5.15 10.45 -6.9 11.35 -11.1 12.05 -13.2 12.4 -16.8 13.55 L-19.2 14.6 Q-21.35 15.6 -21.65 15.6 L-22.05 15.55 -22.1 15.1 Q-22.1 14.7 -17.95 11.0 L-13.25 6.9 Q-8.95 3.0 -5.75 4.1 -3.1 5.0 -3.1 7.8" fill="#624040" fill-rule="evenodd" stroke="none"/>
    <path d="M-8.8 7.0 L-8.75 6.95 -8.8 7.05 -8.8 7.0 M-15.0 12.2 L-14.35 12.0 -14.4 12.05 -15.0 12.2 M-10.45 6.95 L-10.4 6.9 -10.4 6.95 -10.45 6.95" fill="#ffffcc" fill-rule="evenodd" stroke="none"/>
    <path d="M-11.3 6.7 L-13.2 8.65 -12.0 8.15 -8.8 7.0 -8.8 7.05 Q-11.7 8.9 -14.5 10.9 L-17.0 12.8 -17.05 12.85 -19.85 13.85 Q-16.0 9.8 -12.85 7.65 L-11.3 6.7" fill="#edd823" fill-rule="evenodd" stroke="none"/>
    <path d="M-17.05 12.85 L-17.0 12.8 -17.05 12.85" fill="#e0cca3" fill-rule="evenodd" stroke="none"/>
  </g>
</svg>