<?xml version="1.0" encoding="UTF-8" standalone="no"?>
<svg xmlns:xlink="http://www.w3.org/1999/xlink" height="26.75px" width="12.35px" xmlns="http://www.w3.org/2000/svg">
  <g transform="matrix(1.0, 0.0, 0.0, 1.0, 6.55, 14.8)">
    <path d="M0.75 -13.5 L-1.3 -11.0 Q-1.95 -10.0 -1.95 -8.7 -1.95 -8.0 -1.55 -6.95 -1.2 -5.9 -1.2 -5.45 L-1.4 -4.6 -0.7 -1.05 Q-0.2 1.4 1.65 3.0 L1.65 3.15 1.6 3.3 1.35 3.35 Q0.3 3.35 -0.6 1.65 L-1.35 -0.5 -1.95 -3.4 -1.4 -4.6 Q-1.8 -3.5 -3.1 -1.45 L-5.3 1.85 -5.5 1.85 -5.55 1.65 Q-5.55 0.8 -3.8 -2.0 -2.1 -4.8 -2.1 -5.4 L-2.45 -6.65 Q-2.85 -7.6 -2.85 -8.65 -2.85 -10.35 -2.25 -11.25 L0.5 -13.8 0.75 -13.5 M3.6 2.1 L3.85 6.45 Q4.0 9.2 4.8 10.8 L4.65 10.95 Q4.05 10.35 3.5 8.4 3.0 6.75 3.0 6.1 3.0 3.55 3.6 2.1" fill="#ae5fe4" fill-rule="evenodd" stroke="none"/>
  </g>
</svg>