<?xml version="1.0" encoding="UTF-8" standalone="no"?>
<svg xmlns:xlink="http://www.w3.org/1999/xlink" height="24.75px" width="24.9px" xmlns="http://www.w3.org/2000/svg">
  <g transform="matrix(1.0, 0.0, 0.0, 1.0, 12.45, 12.4)">
    <path d="M-0.7 5.9 L-0.3 2.6 0.3 -1.2 Q0.65 -0.6 0.7 1.95 0.75 4.55 0.9 4.8 0.9 2.75 1.75 -2.4 L2.7 -8.1 Q2.7 -1.2 2.85 1.8 L3.0 1.35 4.25 -6.6 4.4 -6.35 4.4 -1.8 5.3 -6.5 Q5.8 -8.85 6.35 -10.2 L7.05 -9.85 Q10.1 -8.05 10.5 -5.25 L10.55 -3.0 10.4 -3.05 Q9.85 -3.05 9.85 -2.4 L10.15 -1.45 10.45 -0.6 Q10.1 3.45 10.1 4.75 L8.95 3.85 7.6 3.0 7.55 3.0 Q6.95 3.0 6.85 3.55 L6.8 3.6 6.65 4.45 Q5.2 4.0 5.0 4.6 4.65 5.55 4.15 5.7 L3.6 4.75 Q3.15 3.9 2.6 3.9 2.0 3.9 1.7 5.3 1.4 6.9 1.1 7.15 L0.75 6.4 Q0.25 5.65 -0.2 5.65 -0.5 5.65 -0.7 5.9" fill="#cca9a9" fill-rule="evenodd" stroke="none"/>
    <path d="M6.35 -10.2 Q5.8 -8.85 5.3 -6.5 L4.4 -1.8 4.4 -6.35 4.25 -6.6 3.0 1.35 2.85 1.8 Q2.7 -1.2 2.7 -8.1 L1.75 -2.4 Q0.9 2.75 0.9 4.8 0.75 4.55 0.7 1.95 0.65 -0.6 0.3 -1.2 L-0.3 2.6 -0.7 5.9 -0.95 6.3 -1.4 7.35 Q-2.5 7.05 -3.3 6.15 L-4.75 4.65 -5.0 4.95 -3.75 7.5 -2.35 10.05 -4.3 8.95 Q-5.85 8.1 -6.45 8.1 -6.95 8.1 -7.15 8.7 L-7.4 9.45 -7.85 7.25 -8.15 5.05 -8.5 5.05 Q-8.8 7.75 -9.05 8.65 -9.35 7.3 -9.35 4.45 L-9.25 1.3 Q-9.1 -0.15 -8.15 -2.15 L-8.65 -2.3 -10.4 0.55 -10.4 -0.6 Q-10.25 -2.3 -9.0 -4.55 L-9.0 -4.6 -8.95 -4.6 -8.9 -4.8 -6.8 -8.15 -6.3 -9.0 -6.1 -9.15 Q-3.35 -11.05 0.15 -11.35 3.55 -11.6 6.35 -10.2" fill="#e0cbcb" fill-rule="evenodd" stroke="none"/>
    <path d="M-0.7 5.9 Q-0.5 5.65 -0.2 5.65 0.25 5.65 0.75 6.4 L1.1 7.15 Q1.4 6.9 1.7 5.3 2.0 3.9 2.6 3.9 3.15 3.9 3.6 4.75 L4.15 5.7 Q4.65 5.55 5.0 4.6 5.2 4.0 6.65 4.45 L6.8 3.6 6.85 3.55 Q6.95 3.0 7.55 3.0 L7.6 3.0 8.95 3.85 10.1 4.75 Q10.1 3.45 10.45 -0.6 L10.15 -1.45 9.85 -2.4 Q9.85 -3.05 10.4 -3.05 L10.55 -3.0 11.1 -2.0 11.45 -0.9 11.2 2.2 11.05 4.25 Q10.75 5.85 10.25 5.85 9.4 5.85 7.9 4.35 L7.35 5.25 Q6.85 5.8 5.8 5.25 L5.25 6.2 Q4.8 6.7 4.15 6.7 3.35 6.7 3.1 6.2 L2.9 5.5 2.45 7.25 Q2.05 8.55 1.45 8.55 L0.6 7.95 0.1 7.15 -0.05 7.15 -0.2 7.9 -0.55 8.4 -0.85 8.4 -0.9 8.4 Q-1.7 8.2 -2.7 7.35 L-3.85 6.1 Q-1.3 10.5 -1.3 10.8 -1.3 11.35 -1.7 11.35 L-3.75 10.15 Q-5.85 8.9 -6.4 8.8 -6.4 9.5 -7.4 10.95 L-8.0 9.6 -8.3 8.05 -8.35 8.05 -8.6 10.65 -8.8 10.8 -9.75 7.45 -9.8 4.4 -9.7 2.35 -9.5 0.4 -9.55 0.25 -10.85 3.45 -11.35 3.4 -11.45 1.65 Q-11.45 -1.55 -10.35 -4.3 -9.0 -7.8 -6.2 -9.2 L-6.3 -9.0 -6.8 -8.15 -8.9 -4.8 -8.95 -4.6 -9.0 -4.6 -9.0 -4.55 Q-10.25 -2.3 -10.4 -0.6 L-10.4 0.55 -8.65 -2.3 -8.15 -2.15 Q-9.1 -0.15 -9.25 1.3 L-9.35 4.45 Q-9.35 7.3 -9.05 8.65 -8.8 7.75 -8.5 5.05 L-8.15 5.05 -7.85 7.25 -7.4 9.45 -7.15 8.7 Q-6.95 8.1 -6.45 8.1 -5.85 8.1 -4.3 8.95 L-2.35 10.05 -3.75 7.5 -5.0 4.95 -4.75 4.65 -3.3 6.15 Q-2.5 7.05 -1.4 7.35 L-0.95 6.3 -0.7 5.9" fill="#9b6969" fill-rule="evenodd" stroke="none"/>
  </g>
</svg>