<?xml version="1.0" encoding="UTF-8" standalone="no"?>
<svg xmlns:xlink="http://www.w3.org/1999/xlink" height="26.45px" width="28.85px" xmlns="http://www.w3.org/2000/svg">
  <g transform="matrix(1.0, 0.0, 0.0, 1.0, 19.85, 11.1)">
    <path d="M0.2 -8.75 L1.35 -3.35 2.0 1.7 Q2.0 3.05 0.55 3.65 L0.05 3.85 -0.7 2.9 -0.9 0.85 -1.15 -1.55 -0.6 -5.4 0.2 -8.75 M3.4 8.4 Q3.7 9.25 4.6 10.35 5.55 11.55 6.65 12.25 L5.45 13.0 3.5 13.3 Q3.1 13.3 1.55 11.4 L0.05 9.2 Q0.05 8.2 1.35 7.3 2.7 6.3 3.4 8.4 M-10.15 -2.7 L-9.85 -5.45 -6.6 -0.85 Q-4.3 2.45 -4.3 2.85 L-4.7 3.35 Q-5.1 3.7 -5.4 3.7 -6.5 3.7 -10.15 -2.7 M-10.2 5.05 L-10.8 6.1 -11.65 6.35 -15.25 6.65 Q-17.85 6.55 -17.9 5.2 -17.95 3.8 -17.0 4.2 L-15.15 4.75 -11.7 5.05 -10.2 5.05" fill="#da952e" fill-rule="evenodd" stroke="none"/>
    <path d="M0.2 -8.75 L-0.6 -5.4 -1.15 -1.55 -0.9 0.85 -0.7 2.9 0.05 3.85 0.55 3.65 Q2.0 3.05 2.0 1.7 L1.35 -3.35 0.2 -8.75 M0.2 4.75 L-0.15 4.75 -0.25 4.75 Q-0.9 4.75 -1.3 4.1 L-1.6 3.35 -1.6 3.3 -2.1 1.4 -2.2 -1.55 Q-2.2 -3.85 -0.9 -7.7 0.5 -12.0 1.55 -8.6 2.9 -2.25 2.9 1.7 2.8 4.75 0.2 4.75 M3.4 8.4 Q2.7 6.3 1.35 7.3 0.05 8.2 0.05 9.2 L1.55 11.4 Q3.1 13.3 3.5 13.3 L5.45 13.0 6.65 12.25 Q5.55 11.55 4.6 10.35 3.7 9.25 3.4 8.4 M4.3 8.2 L4.9 9.55 6.55 10.75 8.0 12.0 Q8.0 12.75 6.8 13.5 5.4 14.35 3.4 14.35 1.5 14.35 -1.0 9.4 -1.0 7.9 0.7 6.45 2.55 4.85 3.8 6.85 L4.3 8.2 M-10.15 -2.7 Q-6.5 3.7 -5.4 3.7 -5.1 3.7 -4.7 3.35 L-4.3 2.85 Q-4.3 2.45 -6.6 -0.85 L-9.85 -5.45 -10.15 -2.7 M-5.6 -1.05 Q-3.5 2.05 -3.5 3.1 -3.5 3.5 -4.0 4.0 -4.6 4.65 -5.35 4.65 -7.0 4.65 -9.3 0.9 L-11.2 -2.7 Q-11.2 -5.05 -10.5 -6.6 -9.55 -8.6 -8.1 -4.7 L-5.6 -1.05 M-0.05 3.9 L0.05 3.85 -0.45 4.05 -0.05 3.9 M-9.3 5.95 L-10.05 6.7 -11.15 7.25 -13.55 7.75 Q-18.85 7.75 -18.85 4.7 -18.85 2.9 -17.45 3.1 L-8.5 4.35 -8.35 4.6 -8.65 4.75 Q-8.65 5.15 -9.3 5.95 M-10.2 5.05 L-11.7 5.05 -15.15 4.75 -17.0 4.2 Q-17.95 3.8 -17.9 5.2 -17.85 6.55 -15.25 6.65 L-11.65 6.35 -10.8 6.1 -10.2 5.05" fill="#624040" fill-rule="evenodd" stroke="none"/>
  </g>
</svg>