<?xml version="1.0" encoding="UTF-8" standalone="no"?>
<svg xmlns:xlink="http://www.w3.org/1999/xlink" height="32px" width="45.15px" xmlns="http://www.w3.org/2000/svg">
  <g transform="matrix(1.0, 0.0, 0.0, 1.0, 17.55, 18.1)">
    <path d="M16.05 -17.0 L11.55 -14.2 6.6 -11.55 Q8.95 -12.0 11.2 -11.6 14.55 -11.2 17.75 -9.75 L18.45 -9.45 19.8 -8.8 20.0 -8.7 22.65 -7.25 Q24.5 -6.2 25.9 -4.7 L17.2 -5.35 17.8 -4.75 20.35 -2.45 22.75 -0.85 Q24.1 -0.15 25.6 0.4 L26.6 0.75 23.15 1.6 17.45 2.25 12.85 2.4 12.5 2.45 12.1 2.45 12.4 2.7 12.65 2.85 15.95 5.2 Q18.1 6.55 18.95 9.1 16.7 8.2 14.65 7.45 L13.4 7.05 Q14.6 9.55 14.7 12.15 L14.65 12.9 Q12.8 10.65 10.4 8.85 8.85 7.65 7.15 6.8 L7.15 10.1 6.85 12.0 4.3 7.5 Q3.6 6.4 3.25 5.1 L3.2 4.95 2.95 4.0 2.6 4.8 2.35 5.3 2.3 5.35 1.1 8.25 Q0.25 10.35 -0.15 12.8 L-1.1 11.55 -1.35 10.85 -1.6 9.7 -1.75 5.65 -1.75 5.6 -1.5 3.55 -2.9 5.6 -4.05 7.15 Q-4.65 8.0 -5.75 8.1 L-3.8 2.55 Q-5.85 3.6 -8.05 4.55 L-8.7 4.85 -11.65 5.6 -13.0 5.65 Q-11.2 4.65 -10.2 3.1 L-9.55 1.75 -10.05 2.0 Q-12.3 3.1 -14.7 3.7 L-16.55 4.0 -14.85 1.95 Q-15.65 -0.3 -15.05 -2.55 -14.3 -5.1 -12.55 -7.1 -10.35 -9.65 -7.75 -11.65 L-4.65 -13.85 Q-2.75 -15.3 -1.0 -17.1 -3.25 -12.7 -4.2 -11.75 -2.2 -12.9 -0.2 -13.7 3.15 -15.1 6.2 -15.8 L12.5 -16.8 16.05 -17.0 M18.7 -8.25 L18.05 -8.6 17.3 -9.0 15.55 -9.8 Q13.15 -10.75 10.7 -11.0 8.05 -11.2 5.5 -10.25 4.45 -9.9 3.5 -10.6 L7.0 -12.5 11.2 -14.9 13.3 -16.25 7.55 -15.15 2.6 -13.7 -2.4 -11.65 Q-5.1 -10.2 -7.25 -8.2 L-7.8 -7.7 -8.45 -7.85 -6.15 -10.65 -4.05 -13.6 -7.15 -10.85 -10.65 -8.0 Q-13.0 -6.15 -13.75 -3.2 -14.35 -0.85 -14.3 1.2 L-13.3 -0.05 -12.9 -0.6 -12.7 -0.85 -11.5 -2.65 Q-11.6 -1.85 -12.2 -0.75 L-14.3 2.4 Q-11.95 1.95 -9.85 1.05 L-9.65 0.95 Q-7.55 0.0 -5.65 -1.3 L-5.55 -1.35 -4.35 -2.1 Q-4.9 -1.1 -5.8 -0.35 L-7.35 0.65 -8.35 1.2 -10.2 4.1 -9.9 4.05 -9.2 3.9 -5.8 2.85 Q-4.45 2.3 -3.4 1.3 -2.7 0.65 -1.85 0.2 -2.35 1.9 -3.25 3.55 L-4.2 5.55 -4.45 6.25 -3.7 5.6 Q-2.8 4.6 -2.2 3.45 -1.35 1.8 0.05 0.65 L-0.85 4.9 -1.0 5.6 Q-1.2 6.9 -1.05 8.2 L-0.5 10.5 1.05 6.5 1.5 5.4 2.5 3.4 2.75 2.95 3.5 1.85 3.55 2.85 Q3.6 3.9 3.95 4.95 L4.45 6.25 6.3 9.85 6.25 8.6 Q6.05 7.2 6.7 6.0 L6.95 5.65 Q9.15 6.45 11.0 7.9 12.5 9.05 13.6 10.75 L13.9 11.25 Q13.8 9.05 12.6 7.35 12.2 6.8 12.4 6.25 L14.25 6.7 17.6 7.7 Q15.9 5.8 13.7 4.4 L12.35 3.6 12.15 3.5 9.95 2.65 9.0 2.4 6.9 2.0 11.3 1.8 12.75 1.75 13.15 1.7 23.6 0.75 21.35 -0.8 21.0 -1.05 Q19.45 -2.05 18.05 -3.45 L17.4 -4.15 17.35 -4.2 16.4 -5.2 15.85 -5.85 15.75 -5.95 15.6 -6.1 23.4 -5.65 20.1 -7.45 19.45 -7.85 18.7 -8.25" fill="#a36a6a" fill-rule="evenodd" stroke="none"/>
    <path d="M-11.55 -2.75 Q-10.05 -4.75 -8.4 -5.2 -10.2 -1.2 -10.2 -0.7 L-10.1 -0.7 -9.15 -1.3 -6.7 -3.15 Q-4.45 -4.85 -2.15 -5.45 L-1.6 -5.45 Q-1.45 -4.1 -2.55 -2.15 -3.55 -0.4 -5.2 1.25 L-5.35 1.4 -5.15 1.3 Q-3.75 1.1 -1.15 -0.9 L2.1 -3.55 Q2.35 -3.25 3.5 -2.55 4.75 -1.85 5.75 -1.55 L3.7 -3.9 2.25 -5.55 Q5.35 -3.7 8.4 -3.15 L12.3 -2.85 14.35 -2.75 15.05 -2.75 15.05 -2.85 14.45 -3.05 Q12.65 -3.75 9.3 -5.45 L6.85 -7.0 5.2 -8.15 5.25 -8.2 Q6.65 -7.7 7.2 -7.65 L10.9 -7.6 16.1 -7.95 16.75 -8.0 17.8 -8.15 18.7 -8.25 19.45 -7.85 20.1 -7.45 23.4 -5.65 15.6 -6.1 15.75 -5.95 15.85 -5.85 10.3 -5.85 13.8 -4.85 15.05 -4.45 15.9 -4.2 17.15 -3.8 18.05 -3.45 Q19.45 -2.05 21.0 -1.05 L21.35 -0.8 16.45 -0.05 13.7 0.45 13.15 0.55 13.0 0.55 9.7 0.75 Q5.15 0.75 4.95 -0.4 L4.95 3.65 4.35 -0.9 4.35 -0.8 Q4.1 -0.25 3.55 2.85 L3.5 1.85 2.75 2.95 2.5 3.4 2.35 0.2 2.55 -1.4 2.55 -2.2 2.45 -2.2 Q1.35 -0.5 0.6 1.5 -0.1 3.3 -0.6 5.6 L-1.05 8.2 Q-1.2 6.9 -1.0 5.6 L-0.85 4.9 0.05 0.65 Q-1.35 1.8 -2.2 3.45 -2.8 4.6 -3.7 5.6 L-4.45 6.25 -4.2 5.55 -3.25 3.55 Q-2.35 1.9 -1.85 0.2 -2.7 0.65 -3.4 1.3 -4.45 2.3 -5.8 2.85 L-9.2 3.9 Q-6.5 1.75 -5.8 -0.35 -4.9 -1.1 -4.35 -2.1 L-5.55 -1.35 -5.65 -1.3 Q-7.55 0.0 -9.65 0.95 L-9.85 1.05 Q-11.95 1.95 -14.3 2.4 L-12.2 -0.75 Q-11.6 -1.85 -11.5 -2.65 L-11.55 -2.75 M5.75 -1.55 L5.85 -1.55 5.75 -1.55" fill="#e0cbcb" fill-rule="evenodd" stroke="none"/>
    <path d="M15.85 -5.85 L16.4 -5.2 17.35 -4.2 17.4 -4.15 18.05 -3.45 17.15 -3.8 15.9 -4.2 15.05 -4.45 13.8 -4.85 10.3 -5.85 15.85 -5.85 M21.35 -0.8 L23.6 0.75 13.15 1.7 12.75 1.75 11.3 1.8 6.9 2.0 9.0 2.4 9.95 2.65 12.15 3.5 12.35 3.6 13.7 4.4 Q15.9 5.8 17.6 7.7 L14.25 6.7 12.4 6.25 Q12.2 6.8 12.6 7.35 13.8 9.05 13.9 11.25 L13.6 10.75 Q12.5 9.05 11.0 7.9 9.15 6.45 6.95 5.65 L6.7 6.0 Q6.05 7.2 6.25 8.6 L6.3 9.85 4.45 6.25 3.95 4.95 Q3.6 3.9 3.55 2.85 4.1 -0.25 4.35 -0.8 L4.35 -0.9 4.95 3.65 4.95 -0.4 Q5.15 0.75 9.7 0.75 L13.0 0.55 13.15 0.55 13.7 0.45 16.45 -0.05 21.35 -0.8 M2.5 3.4 L1.5 5.4 1.05 6.5 -0.5 10.5 -1.05 8.2 -0.6 5.6 Q-0.1 3.3 0.6 1.5 1.35 -0.5 2.45 -2.2 L2.55 -2.2 2.55 -1.4 2.35 0.2 2.5 3.4 M-9.2 3.9 L-9.9 4.05 -10.2 4.1 -8.35 1.2 -7.35 0.65 -5.8 -0.35 Q-6.5 1.75 -9.2 3.9" fill="#cca9a9" fill-rule="evenodd" stroke="none"/>
    <path d="M-12.9 -0.6 L-13.3 -0.05 -14.3 1.2 Q-14.35 -0.85 -13.75 -3.2 -13.0 -6.15 -10.65 -8.0 L-7.15 -10.85 -4.05 -13.6 -6.15 -10.65 -8.45 -7.85 -7.8 -7.7 -7.25 -8.2 Q-5.1 -10.2 -2.4 -11.65 L2.6 -13.7 7.55 -15.15 13.3 -16.25 11.2 -14.9 7.0 -12.5 3.5 -10.6 Q4.45 -9.9 5.5 -10.25 8.05 -11.2 10.7 -11.0 13.15 -10.75 15.55 -9.8 L17.3 -9.0 18.05 -8.6 18.7 -8.25 17.8 -8.15 16.75 -8.0 16.1 -7.95 10.9 -7.6 7.2 -7.65 Q6.65 -7.7 5.25 -8.2 L5.15 -8.2 5.2 -8.15 6.85 -7.0 9.3 -5.45 Q12.65 -3.75 14.45 -3.05 L15.05 -2.85 15.05 -2.75 14.35 -2.75 12.3 -2.85 8.4 -3.15 Q5.35 -3.7 2.25 -5.55 L3.7 -3.9 5.75 -1.55 Q4.75 -1.85 3.5 -2.55 2.35 -3.25 2.1 -3.55 L-1.15 -0.9 Q-3.75 1.1 -5.15 1.3 L-5.2 1.25 Q-3.55 -0.4 -2.55 -2.15 -1.45 -4.1 -1.6 -5.45 L-2.15 -5.45 Q-4.45 -4.85 -6.7 -3.15 L-9.15 -1.3 -10.1 -0.7 -10.2 -0.7 Q-10.2 -1.2 -8.4 -5.2 -10.05 -4.75 -11.55 -2.75 L-12.75 -0.9 -12.9 -0.6 M-8.4 -5.2 L-8.3 -5.25 -8.4 -5.25 -8.4 -5.2" fill="url(#gradient0)" fill-rule="evenodd" stroke="none"/>
  </g>
  <defs>
    <radialGradient cx="0" cy="0" gradientTransform="matrix(0.0042, -0.0073, 0.0087, 0.005, -110.45, 8.15)" gradientUnits="userSpaceOnUse" id="gradient0" r="819.2" spreadMethod="pad">
      <stop offset="0.47843137254901963" stop-color="#ffffff"></stop>
      <stop offset="0.8823529411764706" stop-color="#f2eaea"></stop>
    </radialGradient>
  </defs>
</svg>