<?xml version="1.0" encoding="UTF-8" standalone="no"?>
<svg xmlns:xlink="http://www.w3.org/1999/xlink" height="44.6px" width="48px" xmlns="http://www.w3.org/2000/svg">
  <g transform="matrix(1.0, 0.0, 0.0, 1.0, 19.15, 26.15)">
    <path d="M2.7 -7.15 L5.65 -8.65 6.95 -9.2 7.8 -9.4 9.1 -9.8 10.9 -10.55 12.7 -11.3 13.8 -12.5 Q14.75 -13.6 18.7 -16.75 L16.95 -16.55 Q11.5 -15.8 6.75 -13.5 L4.75 -12.45 1.1 -10.05 0.05 -9.25 -0.1 -9.15 2.9 -14.65 3.05 -15.05 3.2 -15.95 3.15 -18.15 Q2.9 -20.8 0.9 -23.45 -1.5 -19.95 -2.25 -16.2 L-2.6 -12.45 -2.5 -10.25 -2.15 -8.3 -2.15 -8.15 -2.2 -8.25 -3.35 -9.8 -4.95 -11.7 Q-8.3 -15.25 -12.85 -17.2 L-12.8 -17.0 Q-12.05 -13.55 -10.35 -10.5 L-9.55 -9.2 -8.65 -7.95 -8.65 -7.9 -8.6 -7.8 -8.0 -7.05 -7.05 -5.6 -5.65 -5.95 -5.6 -5.85 -4.45 -6.0 -3.75 -5.9 -3.75 -5.8 -5.4 -5.4 -6.55 -4.95 -8.1 -4.3 -8.0 -4.35 -8.65 -4.0 -10.95 -2.95 -11.05 -2.9 -14.25 -0.55 -14.4 -0.45 -15.1 0.25 -16.8 2.2 -16.35 2.2 -16.25 2.2 -15.65 2.2 Q-12.4 2.0 -9.6 0.65 -8.55 0.15 -7.55 -0.5 -6.0 -1.55 -4.7 -2.95 L-3.7 -4.05 -3.8 -3.75 -4.1 -2.95 -4.7 -1.95 Q-5.15 -0.85 -5.95 0.15 L-6.3 0.4 Q-7.0 2.05 -7.5 3.85 L-7.5 3.9 -7.8 5.0 -7.8 5.1 -8.35 8.05 -8.45 9.15 -8.6 10.85 -6.25 9.3 -5.15 8.35 -4.15 7.2 Q-2.8 5.5 -2.15 3.5 L-1.6 0.9 -1.55 1.6 Q-1.45 4.8 -0.6 7.8 L-0.25 8.95 Q0.85 12.35 2.9 15.55 L3.25 16.1 3.95 6.8 5.35 15.05 Q6.1 11.7 6.2 8.4 L6.15 5.85 6.1 5.5 6.05 4.85 5.8 2.9 7.25 5.4 8.65 7.4 Q11.95 11.8 16.6 14.9 15.7 9.15 12.35 4.45 L11.55 3.4 9.95 3.05 8.85 2.75 Q7.9 2.45 7.1 1.95 6.05 1.25 5.35 0.2 L5.0 -0.35 4.55 -1.35 5.2 -0.75 6.5 0.3 Q7.9 1.35 9.5 2.1 11.4 2.95 13.55 3.3 L14.5 3.45 14.25 2.7 Q13.35 0.15 11.65 -1.85 L9.65 -3.8 9.3 -3.7 6.0 -3.1 6.5 -3.25 7.85 -3.8 8.75 -4.15 9.15 -4.25 9.9 -4.55 13.05 -6.2 Q15.35 -7.4 17.45 -10.5 L16.75 -10.4 12.7 -9.8 9.0 -9.0 8.8 -8.95 6.65 -8.3 0.2 -5.4 2.7 -7.15 M18.75 -17.2 L18.95 -17.15 19.7 -17.05 14.1 -11.0 16.7 -11.3 17.55 -11.3 18.7 -11.35 Q17.4 -7.75 15.2 -6.25 21.5 -3.05 27.85 -3.1 23.3 0.75 17.9 1.7 L14.9 2.1 14.85 2.1 14.85 2.15 15.6 4.5 15.1 4.85 13.15 4.05 Q17.45 9.55 17.2 16.35 11.5 13.1 7.9 7.8 L6.65 5.85 7.15 8.1 7.2 8.5 7.25 9.75 Q7.25 13.35 5.05 16.5 L4.55 15.35 3.35 17.45 2.6 16.6 Q0.4 14.0 -1.2 8.9 L-1.3 8.65 -2.1 5.95 -3.3 7.9 -4.4 9.15 -6.05 10.35 Q-8.6 11.75 -9.35 11.95 L-9.35 9.9 -9.35 9.0 Q-9.25 6.6 -8.8 4.3 L-8.7 3.7 -8.15 1.5 -8.85 1.8 Q-13.25 3.7 -18.15 2.85 -15.95 -0.65 -12.6 -2.95 L-8.35 -5.55 -9.25 -7.05 -9.85 -8.1 -10.65 -9.35 Q-13.0 -13.35 -13.55 -18.0 -8.2 -16.3 -4.1 -11.95 L-3.65 -11.45 -3.6 -12.1 Q-3.35 -15.1 -2.45 -17.9 -1.35 -21.65 0.9 -25.15 3.45 -21.35 3.9 -16.8 L3.8 -14.9 3.4 -13.6 2.9 -12.6 10.85 -16.25 Q14.45 -17.6 18.3 -17.25 L18.75 -17.2 M25.7 -2.35 L26.1 -2.6 Q22.5 -2.4 19.15 -3.45 17.3 -4.0 15.55 -4.95 L14.35 -5.55 12.95 -4.75 Q11.45 -3.95 10.8 -3.8 L13.25 -1.35 14.1 0.3 14.55 1.4 15.8 1.2 Q21.0 0.3 25.7 -2.35 M-5.9 -3.2 L-5.9 -3.15 -5.95 -3.15 -5.9 -3.2" fill="#a36a6a" fill-rule="evenodd" stroke="none"/>
    <path d="M16.95 -16.55 L18.7 -16.75 Q14.75 -13.6 13.8 -12.5 L12.7 -11.3 10.9 -10.55 9.1 -9.8 7.8 -9.4 6.95 -9.2 5.65 -8.65 2.7 -7.15 7.3 -10.85 8.85 -11.85 Q12.05 -13.95 16.95 -16.55 M16.75 -10.4 L17.45 -10.5 Q15.35 -7.4 13.05 -6.2 L9.9 -4.55 9.15 -4.25 8.75 -4.15 7.85 -3.8 6.5 -3.25 6.0 -3.1 9.3 -3.7 10.0 -1.55 9.9 -1.6 6.05 -2.35 5.15 -2.55 Q1.7 -3.45 1.2 -4.55 L3.6 -4.8 7.7 -5.5 8.3 -5.65 Q10.5 -6.15 14.0 -8.5 L16.75 -10.4 M6.5 0.3 L5.2 -0.75 4.55 -1.35 5.0 -0.35 5.35 0.2 Q6.05 1.25 7.1 1.95 L5.15 1.7 4.3 1.7 3.05 -0.6 2.1 8.95 1.95 10.05 1.95 9.95 1.7 8.95 -1.5 -0.8 -4.2 3.15 -5.9 5.35 -8.35 8.05 -7.8 5.1 -7.75 5.05 -6.8 4.25 Q-1.0 -0.55 -1.0 -2.55 L-0.9 -2.3 0.0 1.2 1.2 4.6 1.65 5.75 1.85 3.1 2.0 2.05 2.05 0.8 Q2.05 -1.15 1.85 -1.5 L1.85 -2.1 2.45 -1.9 4.1 -1.6 5.55 -1.4 7.0 -1.3 10.0 -1.5 10.8 1.1 10.7 1.1 6.5 0.3 M-3.8 -3.75 L-3.7 -4.05 -4.7 -2.95 Q-6.0 -1.55 -7.55 -0.5 -8.55 0.15 -9.6 0.65 -12.4 2.0 -15.65 2.2 L-16.25 2.2 -16.35 2.2 -16.8 2.2 -15.1 0.25 Q-13.4 0.1 -11.3 -0.55 -9.15 -1.25 -8.2 -1.9 -6.55 -2.85 -5.65 -3.75 L-4.6 -4.7 -4.25 -5.05 -4.15 -5.2 -3.05 -5.75 -2.9 -5.7 -2.85 -5.55 -2.95 -5.3 -3.0 -5.3 -2.95 -5.25 -3.8 -3.75 M-5.65 -5.95 L-7.05 -5.6 -8.0 -7.05 -8.6 -7.8 -8.65 -7.9 -8.65 -7.95 -9.55 -9.2 -10.35 -10.5 Q-12.05 -13.55 -12.8 -17.0 L-10.75 -14.65 -8.7 -12.0 -8.15 -11.1 -6.15 -7.05 -5.65 -5.95 M-2.5 -10.25 L-2.6 -12.45 -2.25 -16.2 -2.0 -14.7 Q-1.75 -13.4 -1.25 -12.85 -0.95 -12.5 -0.55 -12.5 0.1 -12.5 1.4 -13.4 L1.45 -13.4 Q2.5 -14.15 3.05 -15.05 L2.9 -14.65 -0.1 -9.15 -0.1 -9.1 Q-0.85 -8.35 -1.25 -8.35 L-1.85 -8.75 -2.0 -9.0 -2.5 -10.25 M-5.9 -3.2 L-5.95 -3.15 -5.9 -3.15 -5.9 -3.2 M-4.25 -5.05 L-4.55 -5.0 -4.3 -5.05 -4.25 -5.05" fill="#e0cbcb" fill-rule="evenodd" stroke="none"/>
    <path d="M9.3 -3.7 L9.65 -3.8 11.65 -1.85 Q13.35 0.15 14.25 2.7 L14.5 3.45 13.55 3.3 Q11.4 2.95 9.5 2.1 7.9 1.35 6.5 0.3 L10.7 1.1 10.8 1.1 10.0 -1.5 10.1 -1.5 10.0 -1.55 9.3 -3.7 M7.1 1.95 Q7.9 2.45 8.85 2.75 L9.95 3.05 11.05 5.6 11.8 7.35 Q13.35 10.5 14.3 11.35 L14.35 11.45 10.15 8.15 9.0 7.2 7.25 5.4 5.8 2.9 6.05 4.85 6.1 5.5 6.15 5.85 5.85 8.05 5.8 8.5 5.6 10.45 5.5 10.45 5.1 8.65 4.1 3.3 3.15 7.5 2.85 8.95 Q2.3 11.5 2.65 12.9 3.05 14.6 2.9 15.55 0.85 12.35 -0.25 8.95 L-0.6 7.8 Q-1.45 4.8 -1.55 1.6 L-1.4 0.85 -1.4 -0.15 Q-3.35 4.3 -5.1 6.25 L-5.7 6.8 -8.45 9.15 -8.35 8.05 -5.9 5.35 -4.2 3.15 -1.5 -0.8 1.7 8.95 1.95 9.95 1.95 10.05 2.1 8.95 3.05 -0.6 4.3 1.7 5.15 1.7 7.1 1.95 M13.25 -1.35 L10.8 -3.8 Q11.45 -3.95 12.95 -4.75 L14.35 -5.55 15.55 -4.95 Q17.3 -4.0 19.15 -3.45 22.5 -2.4 26.1 -2.6 L25.7 -2.35 23.6 -2.1 20.25 -1.9 18.25 -1.95 17.75 -1.95 18.2 -1.9 21.2 -1.4 21.35 -1.35 17.55 -0.9 17.15 -0.9 13.25 -1.35" fill="#cca9a9" fill-rule="evenodd" stroke="none"/>
    <path d="M2.7 -7.15 L0.2 -5.4 6.65 -8.3 8.8 -8.95 9.0 -9.0 12.7 -9.8 16.75 -10.4 14.0 -8.5 Q10.5 -6.15 8.3 -5.65 L7.7 -5.5 3.6 -4.8 1.2 -4.55 Q1.7 -3.45 5.15 -2.55 L6.05 -2.35 9.9 -1.6 10.0 -1.55 10.1 -1.5 10.0 -1.5 7.0 -1.3 5.55 -1.4 4.1 -1.6 2.45 -1.9 1.85 -2.1 1.85 -1.5 Q2.05 -1.15 2.05 0.8 L2.0 2.05 1.85 3.1 1.65 5.75 1.2 4.6 0.0 1.2 -0.9 -2.3 -1.0 -2.55 Q-1.0 -0.55 -6.8 4.25 L-7.75 5.05 -7.8 5.1 -7.8 5.0 -7.5 3.9 -7.5 3.85 Q-7.0 2.05 -6.3 0.4 L-5.95 0.15 Q-5.15 -0.85 -4.7 -1.95 L-4.1 -2.95 -3.8 -3.75 -2.95 -5.25 -2.9 -5.3 -2.8 -5.45 -2.95 -5.3 -2.85 -5.55 -2.9 -5.7 -3.05 -5.75 -4.15 -5.2 -4.25 -5.05 -4.6 -4.7 -5.65 -3.75 Q-6.55 -2.85 -8.2 -1.9 -9.15 -1.25 -11.3 -0.55 -13.4 0.1 -15.1 0.25 L-14.4 -0.45 -14.25 -0.55 -11.05 -2.9 -10.95 -2.95 -8.65 -4.0 -8.0 -4.35 -8.1 -4.3 -6.55 -4.95 -5.4 -5.4 -3.75 -5.8 -3.75 -5.9 -4.45 -6.0 -5.6 -5.85 -5.65 -5.95 -6.15 -7.05 -8.15 -11.1 -8.7 -12.0 -10.75 -14.65 -12.8 -17.0 -12.85 -17.2 Q-8.3 -15.25 -4.95 -11.7 L-3.35 -9.8 -2.2 -8.25 -2.15 -8.15 -2.15 -8.3 -2.5 -10.25 -2.0 -9.0 -1.85 -8.75 -1.25 -8.35 Q-0.85 -8.35 -0.1 -9.1 L-0.1 -9.15 0.05 -9.25 1.1 -10.05 4.75 -12.45 6.75 -13.5 Q11.5 -15.8 16.95 -16.55 12.05 -13.95 8.85 -11.85 L7.3 -10.85 2.7 -7.15 M-2.25 -16.2 Q-1.5 -19.95 0.9 -23.45 2.9 -20.8 3.15 -18.15 L3.2 -15.95 3.05 -15.05 Q2.5 -14.15 1.45 -13.4 L1.4 -13.4 Q0.1 -12.5 -0.55 -12.5 -0.95 -12.5 -1.25 -12.85 -1.75 -13.4 -2.0 -14.7 L-2.25 -16.2 M-4.25 -5.05 L-4.3 -5.05 -4.55 -5.0 -4.25 -5.05" fill="url(#gradient0)" fill-rule="evenodd" stroke="none"/>
    <path d="M9.95 3.05 L11.55 3.4 12.35 4.45 Q15.7 9.15 16.6 14.9 11.95 11.8 8.65 7.4 L7.25 5.4 9.0 7.2 10.15 8.15 14.35 11.45 14.3 11.35 Q13.35 10.5 11.8 7.35 L11.05 5.6 9.95 3.05 M6.15 5.85 L6.2 8.4 Q6.1 11.7 5.35 15.05 L3.95 6.8 3.25 16.1 2.9 15.55 Q3.05 14.6 2.65 12.9 2.3 11.5 2.85 8.95 L3.15 7.5 4.1 3.3 5.1 8.65 5.5 10.45 5.6 10.45 5.8 8.5 5.85 8.05 6.15 5.85 M-1.55 1.6 L-1.6 0.9 -2.15 3.5 Q-2.8 5.5 -4.15 7.2 L-5.15 8.35 -6.25 9.3 -8.6 10.85 -8.45 9.15 -5.7 6.8 -5.1 6.25 Q-3.35 4.3 -1.4 -0.15 L-1.4 0.85 -1.55 1.6 M13.25 -1.35 L17.15 -0.9 17.55 -0.9 21.35 -1.35 21.2 -1.4 18.2 -1.9 17.75 -1.95 18.25 -1.95 20.25 -1.9 23.6 -2.1 25.7 -2.35 Q21.0 0.3 15.8 1.2 L14.55 1.4 14.1 0.3 13.25 -1.35" fill="url(#gradient1)" fill-rule="evenodd" stroke="none"/>
    <path d="M-2.95 -5.25 L-3.0 -5.3 -2.95 -5.3 -2.8 -5.45 -2.9 -5.3 -2.95 -5.25" fill="url(#gradient2)" fill-rule="evenodd" stroke="none"/>
  </g>
  <defs>
    <radialGradient cx="0" cy="0" gradientTransform="matrix(0.0042, -0.0073, 0.0087, 0.005, -110.45, 8.15)" gradientUnits="userSpaceOnUse" id="gradient0" r="819.2" spreadMethod="pad">
      <stop offset="0.47843137254901963" stop-color="#ffffff"></stop>
      <stop offset="0.8823529411764706" stop-color="#f2eaea"></stop>
    </radialGradient>
    <radialGradient cx="0" cy="0" gradientTransform="matrix(0.0206, -0.0358, 0.0325, 0.0188, -111.9, -24.95)" gradientUnits="userSpaceOnUse" id="gradient1" r="819.2" spreadMethod="pad">
      <stop offset="0.47843137254901963" stop-color="#ffffff"></stop>
      <stop offset="0.8823529411764706" stop-color="#f2eaea"></stop>
    </radialGradient>
    <radialGradient cx="0" cy="0" gradientTransform="matrix(0.0012, -0.0083, 0.0099, 0.0014, -97.85, 47.65)" gradientUnits="userSpaceOnUse" id="gradient2" r="819.2" spreadMethod="pad">
      <stop offset="0.47843137254901963" stop-color="#ffffff"></stop>
      <stop offset="0.8823529411764706" stop-color="#f2eaea"></stop>
    </radialGradient>
  </defs>
</svg>