<?xml version="1.0" encoding="UTF-8" standalone="no"?>
<svg xmlns:xlink="http://www.w3.org/1999/xlink" height="36.65px" width="33.05px" xmlns="http://www.w3.org/2000/svg">
  <g transform="matrix(1.0, 0.0, 0.0, 1.0, 19.5, 14.65)">
    <path d="M6.8 -11.8 L6.6 -9.95 7.85 -10.05 Q9.2 -9.8 10.0 -9.2 10.75 -8.65 11.15 -7.9 L11.7 -6.2 11.7 -6.1 Q11.9 -5.25 12.55 -4.05 L10.75 -5.25 11.2 -4.45 11.8 -3.0 11.85 -2.75 12.0 -2.2 12.2 -0.95 12.2 -0.15 12.1 1.0 11.55 3.4 10.85 5.55 10.6 6.15 9.85 7.55 Q9.35 8.6 9.3 9.85 L8.8 6.8 8.8 6.75 8.1 8.15 7.45 9.6 6.75 11.95 6.5 13.35 6.35 14.65 6.3 16.05 6.1 18.25 5.25 16.5 Q4.8 15.3 4.45 15.95 L3.45 17.05 1.9 18.65 -1.0 21.0 -0.2 18.9 0.4 17.25 0.75 16.05 0.9 15.3 1.05 13.95 Q1.4 10.55 1.35 7.25 L0.8 8.85 0.1 10.15 -0.75 11.3 -1.7 12.15 -4.8 14.55 -4.6 13.95 -4.25 12.75 -3.9 11.55 Q-3.6 10.6 -3.8 9.45 L-4.8 10.15 -5.55 11.05 -5.6 11.2 -6.8 13.1 -6.9 12.5 -7.0 11.8 -6.85 9.25 -6.6 7.8 -6.25 6.2 -5.85 4.7 -5.5 3.65 Q-5.15 2.85 -4.6 2.2 L-5.2 2.5 -7.0 3.3 -8.0 4.0 -9.75 5.55 -10.15 6.05 -10.25 6.15 -10.75 6.85 -11.4 7.8 -11.45 7.5 -11.4 6.05 -11.4 5.9 -11.05 4.0 -12.35 4.7 -14.25 5.7 -15.85 6.25 -16.25 6.4 -17.95 6.55 -14.55 2.35 -15.15 2.5 -15.7 2.75 -16.6 2.8 -17.85 2.85 -18.5 2.6 -17.9 2.1 -16.75 1.4 -15.45 0.35 -14.2 -0.7 Q-13.75 -1.1 -13.6 -1.65 L-14.7 -1.3 -14.65 -1.45 -14.3 -2.05 -13.7 -3.0 -12.75 -4.4 -12.2 -5.25 -10.35 -7.65 -8.95 -9.3 -8.95 -9.4 -8.35 -10.05 -7.1 -11.0 -5.3 -11.9 -2.6 -12.65 -1.05 -12.75 0.35 -12.65 1.55 -12.2 Q3.1 -11.7 4.2 -10.35 L5.45 -11.5 Q5.9 -11.95 6.35 -13.65 L6.8 -11.8 M10.55 -7.45 L9.8 -8.5 9.05 -9.05 6.0 -9.2 6.0 -9.65 6.3 -11.4 4.95 -10.0 4.8 -8.9 4.6 -8.9 3.85 -9.6 3.05 -10.45 2.15 -11.1 0.6 -11.85 -2.15 -12.1 -3.65 -11.75 -5.2 -11.1 -7.7 -9.55 -8.75 -8.7 -11.15 -5.7 -13.45 -2.45 -12.75 -3.05 Q-11.65 -3.85 -10.45 -4.45 L-11.6 -2.95 -12.35 -1.95 -14.55 0.45 Q-15.7 1.5 -17.2 2.2 L-16.0 2.15 Q-14.85 2.15 -13.95 1.35 -13.3 0.7 -12.65 0.6 -12.55 0.95 -12.8 1.3 L-13.5 2.3 Q-14.65 4.2 -16.35 5.75 L-15.3 5.45 -14.5 5.15 -12.8 4.2 -11.2 3.0 -10.45 2.2 -8.85 0.4 -9.05 0.9 -9.5 2.1 -10.4 4.5 -10.6 5.1 -9.75 4.3 -9.05 3.55 Q-8.35 2.85 -7.25 2.35 L-6.55 2.05 -4.6 1.35 -4.2 1.25 Q-3.9 1.25 -3.75 1.4 L-3.65 1.65 -3.75 1.85 -3.85 2.35 -4.45 3.7 -5.3 5.3 Q-5.85 6.5 -5.85 7.75 -5.9 9.3 -6.3 10.75 L-5.65 9.95 -4.65 8.95 Q-4.0 8.25 -3.2 8.3 L-3.05 8.3 -3.0 9.1 Q-2.9 11.2 -3.7 13.0 L-1.85 11.45 -0.85 10.4 Q-0.15 9.6 0.25 8.6 L0.55 7.85 1.25 5.55 1.5 4.5 Q1.8 3.35 2.3 2.75 L2.1 4.5 2.1 11.05 1.75 15.2 0.75 18.8 1.4 18.3 2.55 17.0 4.85 13.9 5.1 14.25 5.4 15.2 5.75 13.3 6.35 10.85 6.65 9.45 Q6.75 8.7 7.1 8.15 L7.65 7.25 8.35 5.55 Q8.6 3.85 8.15 2.05 L8.7 3.1 Q9.5 4.65 9.55 6.4 L10.1 5.25 10.65 3.75 11.3 0.95 11.4 -0.4 11.4 -0.5 Q11.35 -2.15 10.75 -3.6 L10.5 -4.2 9.8 -5.6 Q9.35 -6.35 9.95 -6.6 L11.15 -5.95 10.85 -6.7 10.55 -7.45" fill="#a36a6a" fill-rule="evenodd" stroke="none"/>
    <path d="M10.55 -7.45 L10.85 -6.7 11.15 -5.95 9.95 -6.6 Q9.35 -6.35 9.8 -5.6 L10.5 -4.2 9.1 -5.25 Q9.55 -3.4 9.55 -0.7 L9.55 0.85 9.5 1.4 9.1 3.0 9.0 2.95 8.35 1.65 7.75 0.65 7.0 -0.7 6.95 -0.65 6.95 1.95 6.95 2.65 6.6 5.75 6.1 9.3 6.1 9.2 5.9 7.2 6.0 5.45 3.35 13.05 3.35 12.95 3.65 10.95 3.85 7.1 3.75 4.55 3.45 2.7 3.0 0.4 1.5 3.8 0.65 5.65 -0.7 8.1 0.0 5.65 0.45 3.4 -0.95 5.6 -3.2 8.3 Q-4.0 8.25 -4.65 8.95 L-5.65 9.95 -6.3 10.75 Q-5.9 9.3 -5.85 7.75 -5.85 6.5 -5.3 5.3 L-4.45 3.7 -3.85 2.35 -3.75 1.85 -3.65 1.65 -3.75 1.4 -2.2 -1.05 -2.25 -1.1 -4.4 0.4 -5.9 1.5 -6.55 2.05 -7.25 2.35 Q-8.35 2.85 -9.05 3.55 L-9.75 4.3 -10.6 5.1 -10.4 4.5 -9.05 2.75 -6.75 0.1 Q-6.1 -0.4 -4.7 -0.95 L-3.7 -1.35 Q-2.4 -1.75 -0.75 -2.85 L-0.75 -2.35 -2.3 4.95 -2.6 6.65 -2.75 7.3 -2.75 7.4 -2.6 6.65 -1.9 5.25 0.0 2.35 Q2.7 -1.35 2.5 -4.35 L3.75 -0.1 Q4.55 3.05 4.55 3.9 L4.65 3.85 4.85 -0.8 4.7 -4.95 Q5.0 -4.25 6.8 -2.75 L9.25 -0.85 Q8.35 -1.85 7.65 -3.35 L6.25 -6.85 6.25 -7.05 9.0 -5.4 9.0 -5.35 9.05 -5.35 9.0 -5.4 Q8.9 -6.45 7.4 -8.75 L8.6 -8.75 Q9.1 -8.65 10.35 -7.6 L10.55 -7.45 M-8.85 0.4 L-10.45 2.2 -11.2 3.0 -12.8 4.2 -14.5 5.15 -15.3 5.45 -11.45 1.95 Q-8.25 -1.25 -7.6 -2.2 -7.85 -1.1 -8.75 0.4 L-8.85 0.4" fill="#e0cbcb" fill-rule="evenodd" stroke="none"/>
    <path d="M10.5 -4.2 L10.75 -3.6 Q11.35 -2.15 11.4 -0.5 L11.4 -0.4 11.3 0.95 10.65 3.75 10.1 5.25 9.55 6.4 Q9.5 4.65 8.7 3.1 L8.15 2.05 Q8.6 3.85 8.35 5.55 L7.65 7.25 7.1 8.15 Q6.75 8.7 6.65 9.45 L6.35 10.85 5.75 13.3 5.4 15.2 5.1 14.25 4.85 13.9 2.55 17.0 1.4 18.3 0.75 18.8 1.75 15.2 2.1 11.05 2.1 4.5 2.3 2.75 Q1.8 3.35 1.5 4.5 L1.25 5.55 0.55 7.85 0.25 8.6 Q-0.15 9.6 -0.85 10.4 L-1.85 11.45 -3.7 13.0 Q-2.9 11.2 -3.0 9.1 L-3.05 8.3 -3.2 8.3 -0.95 5.6 0.45 3.4 0.0 5.65 -0.7 8.1 0.65 5.65 1.5 3.8 3.0 0.4 3.45 2.7 3.75 4.55 3.85 7.1 3.65 10.95 3.35 12.95 3.35 13.05 6.0 5.45 5.9 7.2 6.1 9.2 6.1 9.3 6.6 5.75 6.95 2.65 6.95 1.95 6.95 -0.65 7.0 -0.7 7.75 0.65 8.35 1.65 9.0 2.95 9.1 3.0 9.5 1.4 9.55 0.85 9.55 -0.7 Q9.55 -3.4 9.1 -5.25 L10.5 -4.2 M-3.75 1.4 Q-3.9 1.25 -4.2 1.25 L-4.6 1.35 -6.55 2.05 -5.9 1.5 -4.4 0.4 -2.25 -1.1 -2.2 -1.05 -3.75 1.4" fill="#cca9a9" fill-rule="evenodd" stroke="none"/>
    <path d="M-15.3 5.45 L-16.35 5.75 Q-14.65 4.2 -13.5 2.3 L-12.8 1.3 Q-12.55 0.95 -12.65 0.6 -13.3 0.7 -13.95 1.35 -14.85 2.15 -16.0 2.15 L-17.2 2.2 Q-15.7 1.5 -14.55 0.45 L-12.35 -1.95 -11.6 -2.95 -10.45 -4.45 Q-11.65 -3.85 -12.75 -3.05 L-13.45 -2.45 -11.15 -5.7 -8.75 -8.7 -7.7 -9.55 -5.2 -11.1 -3.65 -11.75 -2.15 -12.1 0.6 -11.85 2.15 -11.1 3.05 -10.45 3.85 -9.6 4.6 -8.9 4.8 -8.9 4.95 -10.0 6.3 -11.4 6.0 -9.65 6.0 -9.2 9.05 -9.05 9.8 -8.5 10.55 -7.45 10.35 -7.6 Q9.1 -8.65 8.6 -8.75 L7.4 -8.75 Q8.9 -6.45 9.0 -5.4 L9.05 -5.35 9.0 -5.35 9.0 -5.4 6.25 -7.05 6.25 -6.85 7.65 -3.35 Q8.35 -1.85 9.25 -0.85 L6.8 -2.75 Q5.0 -4.25 4.7 -4.95 L4.85 -0.8 4.65 3.85 4.55 3.9 Q4.55 3.05 3.75 -0.1 L2.5 -4.35 Q2.7 -1.35 0.0 2.35 L-1.9 5.25 -2.6 6.65 -2.75 7.4 -2.75 7.3 -2.6 6.65 -2.3 4.95 -0.75 -2.35 -0.75 -2.85 Q-2.4 -1.75 -3.7 -1.35 L-4.7 -0.95 Q-6.1 -0.4 -6.75 0.1 L-9.05 2.75 -10.4 4.5 -9.5 2.1 -9.05 0.9 -8.85 0.4 -8.75 0.4 Q-7.85 -1.1 -7.6 -2.2 -8.25 -1.25 -11.45 1.95 L-15.3 5.45" fill="url(#gradient0)" fill-rule="evenodd" stroke="none"/>
  </g>
  <defs>
    <radialGradient cx="0" cy="0" gradientTransform="matrix(0.0042, -0.0073, 0.0087, 0.005, -229.45, 22.5)" gradientUnits="userSpaceOnUse" id="gradient0" r="819.2" spreadMethod="pad">
      <stop offset="0.47843137254901963" stop-color="#ffffff"></stop>
      <stop offset="0.8823529411764706" stop-color="#f2eaea"></stop>
    </radialGradient>
  </defs>
</svg>