<?xml version="1.0" encoding="UTF-8" standalone="no"?>
<svg xmlns:xlink="http://www.w3.org/1999/xlink" height="37.85px" width="35.9px" xmlns="http://www.w3.org/2000/svg">
  <g transform="matrix(1.0, 0.0, 0.0, 1.0, 18, 23.15)">
    <path d="M12.75 -17.3 L14.15 -17.65 14.45 -17.45 13.3 -16.05 9.8 -13.45 12.55 -13.45 10.8 -11.6 15.9 -13.6 Q16.05 -12.4 15.3 -11.6 13.45 -9.6 10.9 -9.05 L11.75 -8.4 12.75 -7.55 13.8 -6.5 13.9 -6.35 15.0 -4.95 Q16.75 -2.25 16.9 1.25 L16.85 2.05 11.7 -2.0 12.3 -0.9 12.3 -0.85 12.9 0.35 14.3 3.15 Q15.25 5.0 15.45 7.2 L15.85 11.7 Q15.95 12.7 15.4 13.7 L9.4 5.45 10.95 13.25 10.4 13.1 8.3 12.0 Q7.05 11.25 6.25 10.25 5.55 9.35 5.2 8.3 L2.7 0.45 0.05 9.5 -0.75 2.75 -0.8 2.85 -4.25 5.75 -1.5 -1.1 -7.1 7.65 -7.2 6.65 Q-7.75 1.9 -5.65 -2.45 L-5.65 -2.5 -5.7 -2.45 -12.0 2.55 -12.45 2.2 -8.7 -3.6 -12.35 -1.25 Q-13.65 -0.45 -15.15 -0.1 L-17.0 -0.05 -9.9 -6.5 -14.3 -4.0 -14.4 -4.25 -11.25 -8.65 -8.2 -11.85 -7.2 -12.55 Q-9.1 -13.05 -13.9 -19.8 L-12.7 -19.2 -3.0 -16.1 Q-4.2 -17.3 -4.65 -18.9 -5.1 -20.45 -4.9 -22.15 L0.45 -16.65 Q2.0 -19.25 4.55 -20.5 L6.75 -21.3 3.85 -16.75 5.85 -17.35 7.3 -17.4 10.9 -17.25 11.45 -17.2 12.75 -17.3 M12.85 -16.6 L12.9 -16.65 12.85 -16.65 10.6 -16.35 10.3 -16.35 9.35 -16.5 6.75 -16.6 6.6 -16.6 Q4.7 -16.5 2.1 -15.4 L4.8 -19.75 1.65 -16.5 0.55 -15.45 -4.1 -20.0 -0.65 -14.85 -1.5 -14.55 -1.55 -14.55 -2.05 -14.6 -5.4 -15.55 -11.65 -17.8 -10.1 -16.0 -7.1 -13.5 Q-5.85 -12.55 -4.45 -12.85 L-7.2 -10.95 Q-10.3 -8.7 -12.55 -5.9 L-12.6 -5.85 -12.55 -5.85 -12.5 -5.85 -8.95 -8.0 -8.55 -7.95 -8.5 -7.55 Q-8.5 -6.65 -10.85 -4.45 L-14.9 -1.05 -15.0 -1.0 -14.9 -1.0 -14.85 -1.0 -6.6 -5.5 -6.35 -5.65 -9.75 0.05 -10.0 0.45 -3.5 -4.75 -4.85 -1.95 -5.2 -1.25 Q-6.7 1.75 -6.7 4.95 L-6.7 5.4 -5.25 2.55 Q-4.2 0.65 -2.35 -1.05 L-1.4 -1.85 -0.4 -2.65 -2.45 3.55 -0.65 2.0 0.3 1.15 0.3 4.8 0.3 6.2 2.5 -1.4 2.85 -0.85 2.95 -0.65 4.45 3.75 5.35 6.55 6.75 9.2 6.95 9.5 8.0 10.6 10.05 11.95 8.8 7.05 8.3 5.15 8.25 4.65 Q8.15 3.85 8.7 3.3 L9.8 4.85 14.8 11.75 14.8 9.7 Q14.85 6.8 13.8 4.3 L12.45 1.25 11.85 0.1 11.55 -0.5 9.65 -3.7 11.0 -2.95 15.85 -0.2 15.7 -0.75 Q15.55 -2.45 14.65 -3.85 L14.5 -4.1 14.2 -4.45 12.85 -5.8 12.5 -6.1 10.7 -7.75 9.9 -8.65 9.45 -9.25 10.25 -9.9 14.15 -11.8 10.6 -10.65 10.55 -10.65 10.4 -10.6 8.0 -10.15 8.3 -10.4 8.4 -10.45 10.85 -12.65 10.95 -12.7 10.85 -12.7 10.65 -12.7 7.8 -12.7 7.05 -12.7 12.85 -16.6" fill="#a36a6a" fill-rule="evenodd" stroke="none"/>
    <path d="M12.85 -16.65 L12.85 -16.6 7.05 -12.7 7.05 -12.75 4.65 -12.5 3.55 -12.35 2.5 -12.25 3.95 -13.0 6.8 -14.6 10.15 -16.15 10.6 -16.35 12.85 -16.65 M1.65 -16.5 Q0.5 -14.2 0.0 -12.45 L-0.1 -12.55 -0.7 -13.9 -0.6 -12.1 -1.65 -12.95 -5.4 -15.55 -2.05 -14.6 -1.55 -14.55 -1.5 -14.55 -0.65 -14.85 -4.1 -20.0 0.55 -15.45 1.65 -16.5 M-12.55 -5.9 L-12.5 -5.85 -12.55 -5.85 -12.55 -5.9 M-10.85 -4.45 L-5.4 -8.45 Q-5.4 -8.0 -6.3 -6.15 L-6.6 -5.5 -14.85 -1.0 -14.9 -1.0 -14.9 -1.05 -10.85 -4.45 M-9.75 0.05 L-7.25 -2.5 -1.85 -8.8 -1.75 -8.75 -1.75 -6.85 -2.05 -5.15 -0.45 -8.05 -0.05 -5.2 0.0 -5.05 0.3 -2.25 0.2 -0.7 0.3 -0.7 Q2.1 -5.85 2.1 -7.65 L2.05 -8.5 2.1 -8.5 4.95 -4.9 5.0 -4.95 3.4 -8.05 3.55 -8.05 8.05 -7.05 9.0 -6.75 9.8 -6.4 9.8 -6.45 9.55 -7.1 8.2 -8.75 7.9 -9.05 Q5.85 -11.0 4.0 -11.25 L4.1 -11.25 5.9 -11.85 7.85 -12.65 7.8 -12.7 10.65 -12.7 8.7 -11.9 8.65 -11.85 6.35 -10.75 6.2 -10.6 7.9 -10.4 8.3 -10.4 8.0 -10.15 10.4 -10.6 10.55 -10.65 10.6 -10.65 14.15 -11.8 10.25 -9.9 9.45 -9.25 9.9 -8.65 12.3 -3.95 12.2 -4.05 11.05 -4.6 9.7 -5.3 Q7.5 -6.4 6.6 -6.55 L8.3 -2.95 11.4 3.1 11.6 3.45 11.4 3.1 7.85 -2.7 5.9 -5.65 5.85 -5.6 Q6.3 -5.15 7.2 -2.4 L7.2 -2.35 Q8.15 0.55 8.25 2.3 7.7 1.95 7.0 0.1 L6.3 -1.95 6.15 -2.5 6.1 -2.5 6.15 -1.9 6.6 1.3 7.05 3.9 5.45 0.0 4.8 -1.4 2.2 -6.2 2.15 -6.2 1.05 -0.7 Q0.6 1.85 0.3 4.8 L0.3 1.15 -0.65 2.0 -0.35 -0.75 -0.25 -2.6 -0.25 -3.7 -0.25 -5.85 -3.45 -1.35 -4.4 0.1 Q-5.9 2.7 -6.7 4.95 -6.7 1.75 -5.2 -1.25 L-4.85 -1.95 -3.5 -4.75 -10.0 0.45 -9.75 0.05 M11.6 3.45 L12.05 4.2 12.05 4.3 11.6 3.45 M7.4 5.25 L7.55 5.75 7.4 5.75 7.4 5.25" fill="#e0cbcb" fill-rule="evenodd" stroke="none"/>
    <path d="M10.85 -12.7 L10.85 -12.65 8.4 -10.45 8.3 -10.4 7.9 -10.4 6.2 -10.6 6.35 -10.75 8.65 -11.85 8.7 -11.9 10.65 -12.7 10.85 -12.7 M9.9 -8.65 L10.7 -7.75 12.5 -6.1 12.85 -5.8 14.2 -4.45 14.5 -4.1 14.6 -3.7 14.8 -2.1 14.7 -2.1 14.1 -2.4 10.1 -4.3 11.0 -2.95 9.65 -3.7 11.55 -0.5 11.85 0.1 12.35 1.4 13.0 3.45 14.15 7.1 14.15 7.15 14.05 7.05 13.4 5.65 12.7 4.1 12.7 4.45 13.35 8.2 13.35 8.3 13.25 8.2 10.75 4.2 8.35 0.8 Q8.65 2.15 9.75 4.7 L9.8 4.85 8.7 3.3 Q8.15 3.85 8.25 4.65 L7.9 4.1 7.9 4.2 8.5 7.35 8.4 7.35 Q8.4 6.9 7.05 3.95 L6.5 2.85 6.5 3.3 Q6.5 4.2 7.35 7.9 L7.55 8.7 8.0 10.6 6.95 9.5 6.75 9.2 5.35 6.55 4.45 3.75 2.95 -0.65 2.85 -0.85 2.5 -1.4 0.3 6.2 0.3 4.8 Q0.6 1.85 1.05 -0.7 L2.15 -6.2 2.2 -6.2 4.8 -1.4 5.45 0.0 7.05 3.9 6.6 1.3 6.15 -1.9 6.1 -2.5 6.15 -2.5 6.3 -1.95 7.0 0.1 Q7.7 1.95 8.25 2.3 8.15 0.55 7.2 -2.35 L7.2 -2.4 Q6.3 -5.15 5.85 -5.6 L5.9 -5.65 7.85 -2.7 11.4 3.1 11.6 3.45 11.4 3.1 8.3 -2.95 6.6 -6.55 Q7.5 -6.4 9.7 -5.3 L11.05 -4.6 12.2 -4.05 12.3 -3.95 9.9 -8.65 M-0.65 2.0 L-2.45 3.55 -0.4 -2.65 -1.4 -1.85 -2.35 -1.05 Q-4.2 0.65 -5.25 2.55 L-6.7 5.4 -6.7 4.95 Q-5.9 2.7 -4.4 0.1 L-3.45 -1.35 -0.25 -5.85 -0.25 -3.7 -0.25 -2.6 -0.35 -0.75 -0.65 2.0 M11.6 3.45 L12.05 4.3 12.05 4.2 11.6 3.45" fill="#cca9a9" fill-rule="evenodd" stroke="none"/>
    <path d="M14.5 -4.1 L14.65 -3.85 Q15.55 -2.45 15.7 -0.75 L15.85 -0.2 11.0 -2.95 10.1 -4.3 14.1 -2.4 14.7 -2.1 14.8 -2.1 14.6 -3.7 14.5 -4.1 M11.85 0.1 L12.45 1.25 13.8 4.3 Q14.85 6.8 14.8 9.7 L14.8 11.75 9.8 4.85 9.75 4.7 Q8.65 2.15 8.35 0.8 L10.75 4.2 13.25 8.2 13.35 8.3 13.35 8.2 12.7 4.45 12.7 4.1 13.4 5.65 14.05 7.05 14.15 7.15 14.15 7.1 13.0 3.45 12.35 1.4 11.85 0.1 M8.25 4.65 L8.3 5.15 8.8 7.05 10.05 11.95 8.0 10.6 7.55 8.7 7.35 7.9 Q6.5 4.2 6.5 3.3 L6.5 2.85 7.05 3.95 Q8.4 6.9 8.4 7.35 L8.5 7.35 7.9 4.2 7.9 4.1 8.25 4.65 M7.4 5.25 L7.4 5.75 7.55 5.75 7.4 5.25" fill="url(#gradient0)" fill-rule="evenodd" stroke="none"/>
    <path d="M10.6 -16.35 L10.15 -16.15 6.8 -14.6 3.95 -13.0 2.5 -12.25 3.55 -12.35 4.65 -12.5 7.05 -12.75 7.05 -12.7 7.8 -12.7 7.85 -12.65 5.9 -11.85 4.1 -11.25 4.0 -11.25 Q5.85 -11.0 7.9 -9.05 L8.2 -8.75 9.55 -7.1 9.8 -6.45 9.8 -6.4 9.0 -6.75 8.05 -7.05 3.55 -8.05 3.4 -8.05 5.0 -4.95 4.95 -4.9 2.1 -8.5 2.05 -8.5 2.1 -7.65 Q2.1 -5.85 0.3 -0.7 L0.2 -0.7 0.3 -2.25 0.0 -5.05 -0.05 -5.2 -0.45 -8.05 -2.05 -5.15 -1.75 -6.85 -1.75 -8.75 -1.85 -8.8 -7.25 -2.5 -9.75 0.05 -6.35 -5.65 -6.6 -5.5 -6.3 -6.15 Q-5.4 -8.0 -5.4 -8.45 L-10.85 -4.45 Q-8.5 -6.65 -8.5 -7.55 L-8.55 -7.95 -8.95 -8.0 -12.5 -5.85 -12.55 -5.9 Q-10.3 -8.7 -7.2 -10.95 L-4.45 -12.85 Q-5.85 -12.55 -7.1 -13.5 L-10.1 -16.0 -11.65 -17.8 -5.4 -15.55 -1.65 -12.95 -0.6 -12.1 -0.7 -13.9 -0.1 -12.55 0.0 -12.45 Q0.5 -14.2 1.65 -16.5 L4.8 -19.75 2.1 -15.4 Q4.7 -16.5 6.6 -16.6 L6.75 -16.6 9.35 -16.5 10.3 -16.35 10.6 -16.35" fill="url(#gradient1)" fill-rule="evenodd" stroke="none"/>
  </g>
  <defs>
    <radialGradient cx="0" cy="0" gradientTransform="matrix(0.0206, -0.0358, 0.0325, 0.0188, -2.4, -46.6)" gradientUnits="userSpaceOnUse" id="gradient0" r="819.2" spreadMethod="pad">
      <stop offset="0.47843137254901963" stop-color="#ffffff"></stop>
      <stop offset="0.8823529411764706" stop-color="#f2eaea"></stop>
    </radialGradient>
    <radialGradient cx="0" cy="0" gradientTransform="matrix(0.0042, -0.0073, 0.0087, 0.005, -0.95, -13.5)" gradientUnits="userSpaceOnUse" id="gradient1" r="819.2" spreadMethod="pad">
      <stop offset="0.47843137254901963" stop-color="#ffffff"></stop>
      <stop offset="0.8823529411764706" stop-color="#f2eaea"></stop>
    </radialGradient>
  </defs>
</svg>