<?xml version="1.0" encoding="UTF-8" standalone="no"?>
<svg xmlns:xlink="http://www.w3.org/1999/xlink" height="56.5px" width="34.65px" xmlns="http://www.w3.org/2000/svg">
  <g transform="matrix(1.0, 0.0, 0.0, 1.0, 1, 1)">
    <path d="M21.65 2.65 L21.7 4.35 Q21.7 7.35 18.8 12.0 L13.65 16.7 8.2 21.9 8.25 21.65 8.6 19.75 Q8.6 18.35 9.1 16.85 L9.6 15.85 8.2 17.8 Q6.95 19.85 6.75 21.25 L6.75 21.75 Q6.1 21.1 6.2 19.55 7.4 17.2 12.1 10.85 18.25 3.4 21.65 2.65 M7.35 11.5 L5.25 16.2 4.1 17.95 Q3.55 16.95 3.2 17.15 L3.1 18.85 1.75 19.6 Q1.7 18.05 1.8 17.6 2.05 16.35 2.65 15.55 4.7 13.0 7.35 11.5 M29.35 10.25 L26.75 13.55 Q25.2 15.1 23.35 16.0 L23.85 15.15 Q24.75 13.55 24.7 12.75 L23.3 14.4 21.65 16.65 19.65 16.8 22.2 13.1 23.4 11.5 23.75 11.85 25.8 10.35 28.3 8.6 29.35 10.25 M27.8 10.5 Q26.8 10.5 25.8 11.4 24.85 12.2 24.85 12.75 L24.95 13.2 25.35 13.25 Q26.15 12.9 26.95 12.1 L27.85 11.0 27.8 10.5 M20.8 4.8 L20.7 4.4 Q19.7 4.4 18.55 5.4 17.5 6.3 17.5 6.95 17.5 7.6 18.05 7.75 L19.6 6.6 Q20.6 5.5 20.8 4.8 M5.5 14.5 L5.3 14.15 4.4 14.2 Q4.0 14.5 4.0 14.8 L4.1 15.6 4.7 15.65 5.5 14.5 M15.65 9.9 Q15.3 10.2 15.3 10.65 15.3 11.55 16.45 11.4 L17.35 10.1 17.3 9.6 Q16.2 9.45 15.65 9.9 M16.3 7.75 Q15.25 7.3 15.25 8.45 L15.35 8.7 15.95 9.15 16.25 8.85 16.45 8.25 Q16.45 7.6 16.3 7.75 M20.95 46.1 L19.75 44.25 19.05 42.7 18.95 42.1 18.9 43.15 18.45 45.25 18.9 46.7 19.3 47.75 18.2 48.35 16.7 49.05 16.3 48.15 15.1 44.55 14.9 43.4 14.9 42.75 14.75 43.5 Q14.35 43.95 14.05 44.6 L13.9 44.9 13.55 46.1 13.2 45.6 Q12.2 44.3 12.2 43.25 L11.85 40.85 11.95 40.55 Q13.85 40.15 16.15 38.2 16.75 37.7 17.25 37.35 L18.85 38.65 Q18.2 38.85 17.95 39.2 17.7 39.55 17.7 40.5 17.7 41.15 17.85 41.5 L18.35 41.6 Q18.9 41.6 19.4 40.65 L19.85 39.55 21.85 41.45 21.9 43.05 21.8 44.15 Q21.6 45.2 20.95 46.1 M11.85 49.8 L11.65 49.3 Q10.5 46.15 10.8 45.1 L10.7 45.4 10.7 44.8 10.55 43.65 10.45 43.75 9.85 44.85 Q8.95 46.45 8.95 47.45 L9.2 49.25 7.85 48.65 7.7 47.6 6.85 45.0 6.35 43.5 Q6.05 42.3 6.8 40.8 L7.35 39.65 Q8.65 40.4 10.75 40.6 L10.85 40.6 10.85 40.7 Q10.85 41.9 12.5 45.1 L13.45 46.85 13.45 47.0 13.7 48.3 14.25 49.7 11.85 49.8 M5.85 41.9 L4.85 38.2 5.35 38.2 6.45 39.05 Q5.95 40.05 5.85 41.9 M17.8 13.55 L17.35 14.15 Q13.05 20.25 9.35 22.0 11.4 19.55 15.3 15.85 L17.8 13.55 M10.85 33.65 Q10.9 33.8 10.0 33.95 L9.1 34.1 9.2 33.35 9.5 32.35 Q9.65 32.15 10.25 32.75 L10.85 33.65 M19.75 35.5 Q20.3 35.25 21.1 37.9 L21.35 38.8 Q20.7 38.25 19.9 37.8 18.8 37.15 17.9 36.85 L19.75 35.5 M8.4 41.3 L8.1 41.5 7.6 42.0 7.95 42.5 8.55 43.1 8.75 42.75 8.8 42.0 8.65 41.45 8.4 41.3 M17.5 42.25 Q16.95 42.5 16.6 43.25 L16.6 44.45 17.3 44.5 Q17.95 44.15 17.95 43.1 L17.85 42.55 17.5 42.25" fill="#eed074" fill-rule="evenodd" stroke="none"/>
    <path d="M21.65 2.65 L21.95 2.6 Q22.95 3.7 23.1 6.55 L23.25 11.0 23.4 11.5 22.2 13.1 19.65 16.8 21.65 16.65 23.3 14.4 24.7 12.75 Q24.75 13.55 23.85 15.15 L23.35 16.0 Q25.2 15.1 26.75 13.55 L29.35 10.25 Q30.55 12.55 31.05 15.25 L31.1 16.5 30.9 16.7 Q27.2 20.35 25.0 20.3 L23.1 18.95 Q21.15 17.65 20.25 17.6 19.15 17.6 13.95 21.65 8.7 25.65 7.35 23.9 L4.8 21.0 3.25 19.9 Q2.85 19.9 1.85 20.85 L1.75 19.6 3.1 18.85 3.2 17.15 Q3.55 16.95 4.1 17.95 L5.25 16.2 7.35 11.5 8.05 11.15 8.75 12.4 Q7.3 14.75 6.7 16.35 L6.25 17.85 5.95 20.1 6.2 19.55 Q6.1 21.1 6.75 21.75 L6.75 21.25 Q6.95 19.85 8.2 17.8 L9.6 15.85 9.1 16.85 Q8.6 18.35 8.6 19.75 L8.25 21.65 8.2 21.9 13.65 16.7 18.8 12.0 Q21.7 7.35 21.7 4.35 L21.65 2.65 M4.5 36.5 L4.75 36.6 7.45 37.45 8.55 33.6 Q9.25 30.95 9.9 31.35 10.5 31.7 11.6 33.85 12.7 35.95 14.0 36.5 15.3 37.05 17.9 34.1 L20.55 31.1 Q21.05 31.1 21.55 31.75 21.1 32.5 21.1 32.8 21.1 33.8 22.7 37.15 24.2 40.45 24.75 43.6 25.25 46.45 23.55 49.05 L23.5 49.15 Q22.45 48.15 21.15 46.35 L20.95 46.1 Q21.6 45.2 21.8 44.15 L21.9 43.05 21.85 41.45 19.85 39.55 19.6 39.3 18.85 38.65 17.25 37.35 Q16.75 37.7 16.15 38.2 13.85 40.15 11.95 40.55 L11.85 40.85 12.2 43.25 Q12.2 44.3 13.2 45.6 L13.55 46.1 13.9 44.9 14.05 44.6 Q14.35 43.95 14.75 43.5 L14.6 44.55 Q14.35 46.6 14.8 48.2 L15.25 49.5 15.9 50.95 16.8 52.7 15.55 52.95 14.2 53.2 13.85 53.25 13.75 53.2 Q12.85 52.45 11.85 49.8 L14.25 49.7 13.7 48.3 13.45 47.0 13.45 46.85 12.5 45.1 Q10.85 41.9 10.85 40.7 L10.85 40.6 10.75 40.6 Q8.65 40.4 7.35 39.65 L6.8 40.8 Q6.05 42.3 6.35 43.5 5.85 43.2 5.85 42.5 L5.85 41.9 Q5.95 40.05 6.45 39.05 L5.35 38.2 4.85 38.2 4.65 37.3 4.5 36.5 M18.9 43.15 L18.95 44.3 Q19.1 45.75 19.65 46.8 L19.95 47.2 21.25 48.85 22.35 50.1 20.8 51.25 18.9 52.25 Q17.7 51.35 16.7 49.05 L18.2 48.35 19.3 47.75 18.9 46.7 18.45 45.25 18.9 43.15 M10.7 45.4 Q9.75 47.85 10.2 49.45 L10.25 49.55 11.0 51.75 11.75 53.1 12.2 53.5 11.7 53.1 10.4 52.7 Q9.55 52.25 9.0 51.45 8.2 50.4 7.85 48.65 L9.2 49.25 8.95 47.45 Q8.95 46.45 9.85 44.85 L10.45 43.75 10.55 43.65 10.7 44.8 10.7 45.4 M17.8 13.55 L15.3 15.85 Q11.4 19.55 9.35 22.0 13.05 20.25 17.35 14.15 L17.8 13.55 M11.25 35.4 Q10.4 34.45 10.5 35.1 L10.6 36.6 10.65 37.85 Q10.9 38.6 11.85 38.75 12.35 38.2 12.2 37.25 12.05 36.3 11.25 35.4 M19.75 35.5 L17.9 36.85 Q18.8 37.15 19.9 37.8 20.7 38.25 21.35 38.8 L21.1 37.9 Q20.3 35.25 19.75 35.5 M10.85 33.65 L10.25 32.75 Q9.65 32.15 9.5 32.35 L9.2 33.35 9.1 34.1 10.0 33.95 Q10.9 33.8 10.85 33.65 M9.75 35.1 Q9.75 34.45 9.0 35.4 8.35 36.3 8.3 37.25 8.25 38.2 8.85 38.75 9.8 38.6 9.95 37.85 L9.8 36.6 9.75 35.1" fill="#c4a546" fill-rule="evenodd" stroke="none"/>
    <path d="M1.85 20.85 Q2.85 19.9 3.25 19.9 L4.8 21.0 7.35 23.9 Q8.7 25.65 13.95 21.65 19.15 17.6 20.25 17.6 21.15 17.65 23.1 18.95 L25.0 20.3 Q27.2 20.35 30.9 16.7 L31.1 16.5 30.95 17.45 Q30.5 20.0 28.25 23.05 L26.15 25.65 Q22.55 29.95 21.55 31.75 21.05 31.1 20.55 31.1 L17.9 34.1 Q15.3 37.05 14.0 36.5 12.7 35.95 11.6 33.85 10.5 31.7 9.9 31.35 9.25 30.95 8.55 33.6 L7.45 37.45 4.75 36.6 4.5 36.5 4.15 34.9 4.0 34.05 5.05 35.4 6.3 35.25 7.2 35.0 7.3 33.75 7.55 30.5 Q7.7 29.1 7.5 27.75 7.1 25.1 4.8 23.0 2.5 20.9 2.25 22.1 L2.0 23.1 1.85 20.85 M21.7 22.25 Q22.05 20.6 21.2 20.2 20.35 19.75 16.4 22.3 12.4 24.8 12.0 28.1 11.85 28.95 12.0 29.95 L12.7 34.3 14.1 34.25 16.2 34.0 Q17.6 33.0 18.55 31.6 19.65 30.05 20.25 27.9 L21.7 22.25" fill="#8c742d" fill-rule="evenodd" stroke="none"/>
    <path d="M32.1 12.3 L32.6 14.85 32.5 17.25 Q31.85 21.0 28.3 24.85 L27.75 25.45 24.2 29.45 Q22.55 32.05 23.4 34.5 25.85 41.5 25.9 46.8 25.9 52.0 18.0 53.85 L10.9 54.35 Q8.9 53.95 8.05 52.65 7.4 51.65 6.15 47.65 L4.8 43.15 2.8 35.45 1.45 29.65 Q0.75 26.65 0.5 24.3 L0.1 21.85 Q-0.25 18.95 0.55 16.65 1.3 14.2 3.1 12.5 L8.1 8.6 8.4 9.2 9.45 11.4 11.85 8.4 Q17.75 1.5 19.65 0.75 23.2 -0.75 23.65 0.7 L24.35 4.7 24.85 8.75 Q26.2 7.85 29.45 6.4 L30.4 8.45 31.45 10.75 32.1 12.3 M23.4 11.5 L23.25 11.0 23.1 6.55 Q22.95 3.7 21.95 2.6 L21.65 2.65 Q18.25 3.4 12.1 10.85 7.4 17.2 6.2 19.55 L5.95 20.1 6.25 17.85 6.7 16.35 Q7.3 14.75 8.75 12.4 L8.05 11.15 7.35 11.5 Q4.7 13.0 2.65 15.55 2.05 16.35 1.8 17.6 1.7 18.05 1.75 19.6 L1.85 20.85 2.0 23.1 2.25 22.1 Q2.5 20.9 4.8 23.0 7.1 25.1 7.5 27.75 7.7 29.1 7.55 30.5 L7.3 33.75 7.2 35.0 6.3 35.25 5.05 35.4 4.0 34.05 4.15 34.9 4.5 36.5 4.65 37.3 4.85 38.2 5.85 41.9 5.85 42.5 Q5.85 43.2 6.35 43.5 L6.85 45.0 7.7 47.6 7.85 48.65 Q8.2 50.4 9.0 51.45 9.55 52.25 10.4 52.7 L11.7 53.1 12.2 53.5 11.75 53.1 11.0 51.75 10.25 49.55 10.2 49.45 Q9.75 47.85 10.7 45.4 L10.8 45.1 Q10.5 46.15 11.65 49.3 L11.85 49.8 Q12.85 52.45 13.75 53.2 L13.85 53.25 14.2 53.2 15.55 52.95 16.8 52.7 15.9 50.95 15.25 49.5 14.8 48.2 Q14.35 46.6 14.6 44.55 L14.75 43.5 14.9 42.75 14.9 43.4 15.1 44.55 16.3 48.15 16.7 49.05 Q17.7 51.35 18.9 52.25 L20.8 51.25 22.35 50.1 21.25 48.85 19.95 47.2 19.65 46.8 Q19.1 45.75 18.95 44.3 L18.9 43.15 18.95 42.1 19.05 42.7 19.75 44.25 20.95 46.1 21.15 46.35 Q22.45 48.15 23.5 49.15 L23.55 49.05 Q25.25 46.45 24.75 43.6 24.2 40.45 22.7 37.15 21.1 33.8 21.1 32.8 21.1 32.5 21.55 31.75 22.55 29.95 26.15 25.65 L28.25 23.05 Q30.5 20.0 30.95 17.45 L31.1 16.5 31.05 15.25 Q30.55 12.55 29.35 10.25 L28.3 8.6 25.8 10.35 23.75 11.85 23.4 11.5 M21.7 22.25 L20.25 27.9 Q19.65 30.05 18.55 31.6 17.6 33.0 16.2 34.0 L14.1 34.25 12.7 34.3 12.0 29.95 Q11.85 28.95 12.0 28.1 12.4 24.8 16.4 22.3 20.35 19.75 21.2 20.2 22.05 20.6 21.7 22.25 M17.3 30.1 L18.75 28.5 19.15 27.9 Q21.0 24.9 20.55 22.5 L19.3 22.85 Q15.8 23.95 14.75 26.9 14.5 27.45 14.4 28.2 14.05 29.75 14.1 32.1 L14.25 32.4 Q15.95 31.45 17.3 30.1 M11.25 35.4 Q12.05 36.3 12.2 37.25 12.35 38.2 11.85 38.75 10.9 38.6 10.65 37.85 L10.6 36.6 10.5 35.1 Q10.4 34.45 11.25 35.4 M5.85 33.15 L6.25 33.45 6.35 33.1 Q6.4 29.6 6.0 28.0 L5.9 27.65 Q5.4 26.0 4.35 25.3 3.6 24.85 2.55 24.8 2.4 26.15 2.65 27.45 L2.8 28.1 3.4 29.9 Q4.35 32.05 5.85 33.15 M9.75 35.1 L9.8 36.6 9.95 37.85 Q9.8 38.6 8.85 38.75 8.25 38.2 8.3 37.25 8.35 36.3 9.0 35.4 9.75 34.45 9.75 35.1" fill="#5f4e1a" fill-rule="evenodd" stroke="none"/>
    <path d="M19.3 22.85 Q17.8 25.55 17.45 27.1 L17.35 28.4 17.3 29.65 17.3 30.1 Q15.95 31.45 14.25 32.4 L14.1 32.1 Q14.05 29.75 14.4 28.2 14.5 27.45 14.75 26.9 15.8 23.95 19.3 22.85 M4.35 25.3 L4.25 27.5 4.25 27.55 Q4.25 28.9 5.05 31.3 L5.85 33.15 Q4.35 32.05 3.4 29.9 L2.8 28.1 2.65 27.45 Q2.4 26.15 2.55 24.8 3.6 24.85 4.35 25.3" fill="#463912" fill-rule="evenodd" stroke="none"/>
    <path d="M20.8 4.8 Q20.6 5.5 19.6 6.6 L18.05 7.75 Q17.5 7.6 17.5 6.95 17.5 6.3 18.55 5.4 19.7 4.4 20.7 4.4 L20.8 4.8 M27.8 10.5 L27.85 11.0 26.95 12.1 Q26.15 12.9 25.35 13.25 L24.95 13.2 24.85 12.75 Q24.85 12.2 25.8 11.4 26.8 10.5 27.8 10.5 M16.3 7.75 Q16.45 7.6 16.45 8.25 L16.25 8.85 15.95 9.15 15.35 8.7 15.25 8.45 Q15.25 7.3 16.3 7.75 M15.65 9.9 Q16.2 9.45 17.3 9.6 L17.35 10.1 16.45 11.4 Q15.3 11.55 15.3 10.65 15.3 10.2 15.65 9.9 M5.5 14.5 L4.7 15.65 4.1 15.6 4.0 14.8 Q4.0 14.5 4.4 14.2 L5.3 14.15 5.5 14.5 M8.4 41.3 L8.65 41.45 8.8 42.0 8.75 42.75 8.55 43.1 7.95 42.5 7.6 42.0 8.1 41.5 8.4 41.3 M18.85 38.65 L19.6 39.3 19.85 39.55 19.4 40.65 Q18.9 41.6 18.35 41.6 L17.85 41.5 Q17.7 41.15 17.7 40.5 17.7 39.55 17.95 39.2 18.2 38.85 18.85 38.65 M17.5 42.25 L17.85 42.55 17.95 43.1 Q17.95 44.15 17.3 44.5 L16.6 44.45 16.6 43.25 Q16.95 42.5 17.5 42.25" fill="#ffe7a1" fill-rule="evenodd" stroke="none"/>
    <path d="M19.3 22.85 L20.55 22.5 Q21.0 24.9 19.15 27.9 L18.75 28.5 17.3 30.1 17.3 29.65 17.35 28.4 17.45 27.1 Q17.8 25.55 19.3 22.85 M4.35 25.3 Q5.4 26.0 5.9 27.65 L6.0 28.0 Q6.4 29.6 6.35 33.1 L6.25 33.45 5.85 33.15 5.05 31.3 Q4.25 28.9 4.25 27.55 L4.25 27.5 4.35 25.3" fill="#fde425" fill-rule="evenodd" stroke="none"/>
  </g>
</svg>