<?xml version="1.0" encoding="UTF-8" standalone="no"?>
<svg xmlns:xlink="http://www.w3.org/1999/xlink" height="43.4px" width="50.45px" xmlns="http://www.w3.org/2000/svg">
  <g transform="matrix(1.0, 0.0, 0.0, 1.0, 25.15, 18.25)">
    <path d="M7.3 -14.0 Q7.3 -12.85 6.4 -11.95 4.95 -10.45 1.45 -10.45 -0.7 -10.45 -2.05 -13.15 -2.05 -15.6 2.65 -16.2 7.3 -16.85 7.3 -14.0 M5.3 -5.1 Q4.6 -5.1 4.15 -5.85 L3.9 -6.45 Q3.9 -7.25 5.65 -7.25 7.35 -7.25 7.35 -6.05 7.35 -5.1 5.3 -5.1 M8.45 -11.35 Q8.8 -13.55 11.9 -12.25 14.95 -11.0 15.2 -9.25 15.4 -7.55 13.1 -7.6 10.75 -7.7 9.2 -8.55 8.05 -9.15 8.45 -11.35" fill="#ffffff" fill-rule="evenodd" stroke="none"/>
    <path d="M19.7 -6.4 Q20.2 -7.25 20.7 -5.6 20.8 -3.8 21.75 -2.25 L23.35 0.85 Q24.3 3.15 24.3 4.3 24.3 5.6 18.1 13.35 17.6 13.35 17.6 12.8 L19.45 9.85 Q21.3 6.8 21.3 3.8 21.3 3.1 20.3 -0.25 19.25 -3.6 19.25 -4.8 19.25 -5.7 19.7 -6.4 M21.0 16.25 Q19.05 19.1 16.05 19.5 11.7 20.1 6.55 22.25 2.05 24.15 -0.3 24.15 -5.4 24.15 -9.85 21.05 L-14.6 17.45 -22.0 15.05 Q-24.15 13.95 -24.15 11.85 L-23.75 8.75 Q-23.4 6.6 -23.4 5.25 -23.4 1.0 -20.7 -1.35 -19.75 -2.2 -18.95 -2.25 L-19.5 0.05 -20.1 4.9 Q-20.1 7.0 -19.45 8.25 -18.45 10.2 -15.45 11.85 -12.45 13.5 -9.2 16.45 -7.35 18.15 -4.5 17.95 -1.65 17.7 2.6 15.7 6.85 13.65 9.4 13.9 11.95 14.1 14.05 14.75 L16.2 15.35 Q18.0 15.35 19.9 13.75 L21.95 11.7 Q22.5 11.85 22.5 12.2 22.5 14.0 21.0 16.25 M-24.15 -0.5 L-23.15 -2.65 -21.9 -5.25 Q-20.95 -8.5 -19.35 -10.05 -18.7 -10.7 -15.95 -11.95 -13.2 -13.2 -12.3 -14.1 -11.05 -15.3 -8.4 -16.25 -6.0 -17.1 -3.65 -17.25 L-3.6 -17.0 -6.55 -16.25 Q-9.95 -15.05 -12.15 -12.75 L-14.05 -10.85 Q-15.55 -9.5 -17.0 -8.7 -17.9 -8.2 -20.4 -4.05 -22.75 -0.15 -24.05 -0.2 L-24.15 -0.5" fill="#7deeff" fill-rule="evenodd" stroke="none"/>
  </g>
</svg>