<?xml version="1.0" encoding="UTF-8" standalone="no"?>
<svg xmlns:xlink="http://www.w3.org/1999/xlink" height="7.8px" width="8.25px" xmlns="http://www.w3.org/2000/svg">
  <g transform="matrix(1.0, 0.0, 0.0, 1.0, 3.4, 3.75)">
    <path d="M3.2 -0.45 L2.95 -0.05 2.45 0.9 1.95 1.6 1.2 2.5 0.4 3.05 -1.3 2.6 -2.4 1.85 -2.4 0.2 -1.65 0.15 -0.25 -0.3 Q0.75 -0.7 1.5 -1.6 L2.55 -2.75 2.1 -1.4 2.05 -1.0 2.0 -0.75 2.7 -1.25 3.75 -2.25 3.8 -2.35 3.85 -2.5 3.85 -2.35 Q3.75 -1.35 3.2 -0.45 M3.05 -1.3 L3.35 -1.65 3.75 -2.25 3.35 -1.65 3.05 -1.3 2.0 -0.15 2.05 -0.1 3.05 -1.3 M1.3 0.05 L1.7 0.2 2.05 -0.1 1.7 0.2 1.3 0.05" fill="#ffffff" fill-rule="evenodd" stroke="none"/>
    <path d="M2.05 -1.0 L2.1 -1.4 2.55 -2.75 1.5 -1.6 Q0.75 -0.7 -0.25 -0.3 L-1.65 0.15 -2.4 0.2 -2.4 1.85 -1.3 2.6 0.4 3.05 1.2 2.5 1.95 1.6 2.45 0.9 2.95 -0.05 3.2 -0.45 M3.85 -2.5 L3.8 -2.35 3.75 -2.25 3.35 -1.65 3.05 -1.3 2.05 -0.1 1.7 0.2 1.3 0.05" fill="none" stroke="#660000" stroke-linecap="round" stroke-linejoin="round" stroke-opacity="0.6" stroke-width="1"/>
  </g>
</svg>