<?xml version="1.0" encoding="UTF-8" standalone="no"?>
<svg xmlns:xlink="http://www.w3.org/1999/xlink" height="22.15px" width="21.2px" xmlns="http://www.w3.org/2000/svg">
  <g transform="matrix(1.0, 0.0, 0.0, 1.0, 11.6, 3.2)">
    <path d="M-7.7 1.2 L-7.65 1.15 Q-4.25 -2.95 0.7 -2.05 5.25 -1.0 7.55 3.05 8.75 5.15 8.6 7.45 8.3 11.15 6.25 14.45 L5.45 15.75 Q3.8 18.45 0.55 17.8 L-1.85 17.55 -3.35 17.7 -5.85 15.7 -7.5 14.25 Q-9.95 14.85 -10.4 11.95 -11.1 7.45 -9.35 3.4 -8.8 2.15 -7.7 1.2" fill="#bdd7ff" fill-opacity="0.4509804" fill-rule="evenodd" stroke="none"/>
    <path d="M-7.65 1.15 Q-4.25 -2.95 0.7 -2.05 5.25 -1.0 7.55 3.05 8.75 5.15 8.6 7.45 8.3 11.15 6.25 14.45 L5.45 15.75 Q3.8 18.45 0.55 17.8 L-1.85 17.55 -3.35 17.7 -5.85 15.7 -7.5 14.25 Q-9.95 14.85 -10.4 11.95 -11.1 7.45 -9.35 3.4 -8.8 2.15 -7.7 1.2" fill="none" stroke="#ffffff" stroke-linecap="round" stroke-linejoin="round" stroke-width="1"/>
    <path d="M5.55 5.75 Q7.45 11.35 1.8 13.3 0.15 13.85 -1.2 12.5 -4.5 14.5 -6.55 11.2 -7.05 10.4 -7.0 9.4 -6.65 4.65 -4.05 0.7 0.65 0.1 4.3 3.55 5.15 4.35 5.55 5.75" fill="#88a8ff" fill-rule="evenodd" stroke="none"/>
  </g>
</svg>