<?xml version="1.0" encoding="UTF-8" standalone="no"?>
<svg xmlns:xlink="http://www.w3.org/1999/xlink" height="18.75px" width="19.25px" xmlns="http://www.w3.org/2000/svg">
  <g transform="matrix(1.0, 0.0, 0.0, 1.0, 10.75, 1.8)">
    <path d="M6.8 4.8 Q8.35 8.05 6.35 11.3 5.8 12.15 5.6 13.25 5.35 14.6 4.4 15.5 3.7 12.15 6.1 8.8 7.1 7.3 6.65 5.25 L6.8 4.8 M-7.8 11.45 Q-5.55 10.7 -4.45 12.25 -4.0 12.95 -3.8 13.85 -3.6 14.95 -2.55 15.2 L-0.5 14.7 -1.4 15.9 Q-5.15 16.25 -6.7 12.55 -10.75 10.9 -9.45 5.8 L-9.05 5.55 -8.65 5.7 Q-9.0 7.95 -8.5 10.4 L-7.8 11.45" fill="#7deeff" fill-rule="evenodd" stroke="none"/>
    <path d="M-1.5 -0.55 Q0.4 3.5 -3.55 5.4 -5.15 6.2 -6.8 5.8 -8.45 2.65 -4.8 0.45 L-1.85 -0.8 -1.5 -0.55 M0.45 1.2 L0.95 0.7 Q1.2 0.45 1.6 0.3 1.95 0.35 2.3 0.55 L2.9 0.95 2.95 1.25 2.75 2.3 1.15 2.35 0.45 1.2" fill="#ffffff" fill-rule="evenodd" stroke="none"/>
  </g>
</svg>