<?xml version="1.0" encoding="UTF-8" standalone="no"?>
<svg xmlns:xlink="http://www.w3.org/1999/xlink" height="18.75px" width="19.55px" xmlns="http://www.w3.org/2000/svg">
  <g transform="matrix(1.0, 0.0, 0.0, 1.0, 11, 1.7)">
    <path d="M7.25 6.15 Q8.0 8.2 6.8 9.9 5.85 11.15 5.75 12.8 5.6 15.1 4.05 15.4 L6.55 4.5 7.25 6.15 M-5.85 11.2 L-4.2 11.9 -2.95 15.1 -0.65 15.05 Q-0.95 15.8 -1.85 16.05 -5.4 16.2 -6.7 12.55 L-8.65 12.0 -9.2 10.55 -9.8 8.65 Q-10.5 6.2 -8.6 5.5 L-7.7 11.45 -5.85 11.2" fill="#7deeff" fill-rule="evenodd" stroke="none"/>
    <path d="M1.75 0.3 Q3.0 0.35 3.0 1.65 L2.75 2.3 Q2.4 2.7 1.75 2.7 1.05 2.7 0.45 1.2 0.45 0.25 1.75 0.3 M-7.5 4.7 Q-7.15 2.1 -4.95 0.3 -3.1 -1.15 -1.2 -0.5 -0.65 0.5 -0.8 1.9 -1.0 3.9 -2.75 5.05 -4.9 6.4 -7.05 5.6 L-7.5 4.7" fill="#ffffff" fill-rule="evenodd" stroke="none"/>
  </g>
</svg>