<?xml version="1.0" encoding="UTF-8" standalone="no"?>
<svg xmlns:xlink="http://www.w3.org/1999/xlink" height="22.15px" width="21.25px" xmlns="http://www.w3.org/2000/svg">
  <g transform="matrix(1.0, 0.0, 0.0, 1.0, 11.35, 3.45)">
    <path d="M-7.65 1.15 Q-5.5 -1.75 -2.1 -2.4 0.0 -2.65 2.05 -1.65 L4.3 -0.3 Q7.7 2.4 8.75 6.5 9.1 7.95 8.6 9.25 L7.55 11.7 7.25 12.65 Q6.8 14.85 5.05 16.3 L3.3 17.1 2.25 17.3 Q-0.5 16.7 -3.35 17.7 L-7.5 14.25 -9.25 14.25 Q-10.0 13.6 -10.15 12.65 L-10.35 8.7 Q-10.3 6.6 -9.8 4.6 -9.25 2.55 -7.7 1.2 L-7.65 1.15" fill="#bdd7ff" fill-opacity="0.4509804" fill-rule="evenodd" stroke="none"/>
    <path d="M-7.7 1.2 Q-9.25 2.55 -9.8 4.6 -10.3 6.6 -10.35 8.7 L-10.15 12.65 Q-10.0 13.6 -9.25 14.25 L-7.5 14.25 -3.35 17.7 Q-0.5 16.7 2.25 17.3 L3.3 17.1 5.05 16.3 Q6.8 14.85 7.25 12.65 L7.55 11.7 8.6 9.25 Q9.1 7.95 8.75 6.5 7.7 2.4 4.3 -0.3 L2.05 -1.65 Q0.0 -2.65 -2.1 -2.4 -5.5 -1.75 -7.65 1.15" fill="none" stroke="#ffffff" stroke-linecap="round" stroke-linejoin="round" stroke-width="1"/>
    <path d="M1.7 1.85 L4.95 3.85 5.9 10.55 2.05 13.5 -1.2 12.5 -2.55 12.95 -4.5 13.15 Q-5.8 12.95 -6.6 12.0 L-7.05 10.7 Q-7.6 8.05 -6.45 5.55 L-4.05 0.7 -2.75 0.5 Q-1.0 0.15 0.35 1.15 L1.7 1.85" fill="#88a8ff" fill-rule="evenodd" stroke="none"/>
  </g>
</svg>