<?xml version="1.0" encoding="UTF-8" standalone="no"?>
<svg xmlns:xlink="http://www.w3.org/1999/xlink" height="22.3px" width="31.45px" xmlns="http://www.w3.org/2000/svg">
  <g transform="matrix(1.0, 0.0, 0.0, 1.0, 15.9, 11.35)">
    <path d="M3.25 -5.65 L4.4 -5.8 Q6.75 -5.85 8.3 -3.95 9.2 -2.0 8.6 0.05 L8.4 0.55 Q3.15 4.6 -3.05 6.9 L-6.55 6.75 Q-12.55 4.1 -9.35 -0.7 -8.0 -2.75 -5.35 -3.4 -1.15 -4.3 3.25 -5.65" fill="#88a8ff" fill-rule="evenodd" stroke="none"/>
    <path d="M1.45 -10.35 L1.6 -8.65 Q1.65 -6.7 3.25 -5.65 -1.15 -4.3 -5.35 -3.4 -8.0 -2.75 -9.35 -0.7 -12.55 4.1 -6.55 6.75 L-3.05 6.9 Q3.15 4.6 8.4 0.55 L8.6 0.05 Q9.2 -2.0 8.3 -3.95 L14.5 -5.9 Q14.9 1.55 9.3 5.6 3.45 9.9 -3.55 9.95 -8.95 10.0 -13.05 7.15 L-14.6 2.4 -14.9 1.7 Q-10.9 -4.6 -4.55 -8.3 -1.75 -9.95 1.45 -10.35" fill="#bdd7ff" fill-opacity="0.4509804" fill-rule="evenodd" stroke="none"/>
    <path d="M14.5 -5.9 Q14.9 1.55 9.3 5.6 3.45 9.9 -3.55 9.95 -8.95 10.0 -13.05 7.15 M-14.9 1.7 Q-10.9 -4.6 -4.55 -8.3 -1.75 -9.95 1.45 -10.35" fill="none" stroke="#ffffff" stroke-linecap="round" stroke-linejoin="round" stroke-width="1"/>
    <path d="M11.05 -0.7 L11.3 0.05 Q7.0 6.7 -1.2 7.85 L-2.9 7.8 Q-9.6 9.05 -11.5 3.25 -12.3 0.9 -10.8 -0.15 -9.75 1.55 -9.0 4.1 L-8.35 4.85 Q-5.35 6.25 -1.8 6.3 4.45 2.4 10.9 -0.7 L11.05 -0.7" fill="#7deeff" fill-rule="evenodd" stroke="none"/>
    <path d="M4.8 -5.75 L5.1 -5.0 4.2 -4.3 -1.7 -4.15 -2.1 -4.5 Q0.4 -6.95 4.45 -6.0 L4.8 -5.75 M-7.35 -2.25 L-6.9 -3.15 -4.2 -3.5 -3.95 -2.4 -3.9 -2.0 -6.2 -1.1 -6.7 -1.2 -7.15 -1.6 -7.35 -2.25" fill="#ffffff" fill-rule="evenodd" stroke="none"/>
  </g>
</svg>