<?xml version="1.0" encoding="UTF-8" standalone="no"?>
<svg xmlns:xlink="http://www.w3.org/1999/xlink" height="31px" width="25.05px" xmlns="http://www.w3.org/2000/svg">
  <g transform="matrix(1.0, 0.0, 0.0, 1.0, 13.35, 12.9)">
    <path d="M5.1 -5.0 L6.8 -1.6 Q11.05 8.05 3.25 12.5 2.0 12.55 1.05 12.1 -8.2 8.2 -8.85 -3.25 L-8.3 -4.9 -8.6 -5.5 Q-2.5 -11.55 5.1 -5.0" fill="#88a8ff" fill-rule="evenodd" stroke="none"/>
    <path d="M-11.35 -4.75 L-12.35 -4.8 -12.35 -5.25 -10.65 -6.45 -11.35 -4.75" fill="#bcd9ff" fill-rule="evenodd" stroke="none"/>
    <path d="M5.1 -5.0 Q-2.5 -11.55 -8.6 -5.5 L-8.3 -4.9 -8.85 -3.25 Q-8.2 8.2 1.05 12.1 2.0 12.55 3.25 12.5 11.05 8.05 6.8 -1.6 L5.1 -5.0 M-10.65 -6.45 L-10.25 -6.75 -9.3 -7.95 Q-7.8 -9.7 -5.95 -10.75 L-4.7 -11.45 -3.95 -11.9 Q4.55 -9.35 9.0 -1.6 12.2 4.0 9.45 10.3 7.6 14.5 3.9 17.1 -2.65 17.05 -6.85 11.95 L-7.7 10.85 -8.5 8.95 Q-11.2 2.4 -11.35 -4.75 L-10.65 -6.45" fill="#bdd7ff" fill-opacity="0.4509804" fill-rule="evenodd" stroke="none"/>
    <path d="M-10.65 -6.45 L-10.25 -6.75 M-4.7 -11.45 L-3.95 -11.9 Q4.55 -9.35 9.0 -1.6 12.2 4.0 9.45 10.3 7.6 14.5 3.9 17.1 M-7.7 10.85 L-8.5 8.95 Q-11.2 2.4 -11.35 -4.75 L-10.65 -6.45" fill="none" stroke="#ffffff" stroke-linecap="round" stroke-linejoin="round" stroke-width="1"/>
    <path d="M7.8 4.35 Q8.4 7.4 6.6 10.0 2.3 16.1 -3.25 11.5 -9.95 6.05 -8.75 -3.1 L-6.8 2.65 Q-4.45 9.95 2.6 8.85 6.8 8.45 7.8 4.35" fill="#7deeff" fill-rule="evenodd" stroke="none"/>
    <path d="M-2.8 -8.6 L-2.45 -8.35 Q-1.55 -8.25 -2.4 -5.45 -3.3 -2.7 -9.4 -2.4 -9.4 -5.05 -9.2 -5.45 -7.05 -9.45 -2.8 -8.6 M3.8 -6.5 L3.8 -5.2 Q1.3 -4.7 -0.35 -5.8 L0.05 -7.65 Q-0.5 -8.0 0.25 -8.05 0.95 -8.15 2.25 -7.5 L3.8 -6.5" fill="#ffffff" fill-rule="evenodd" stroke="none"/>
  </g>
</svg>