<?xml version="1.0" encoding="UTF-8" standalone="no"?>
<svg xmlns:xlink="http://www.w3.org/1999/xlink" height="22.35px" width="27.15px" xmlns="http://www.w3.org/2000/svg">
  <g transform="matrix(1.0, 0.0, 0.0, 1.0, 13.7, 11.3)">
    <path d="M-3.15 1.6 L-3.2 1.7 -3.25 1.7 -3.15 1.6 M-9.5 1.5 L-9.4 2.2 -9.25 2.75 -9.3 2.6 Q-11.1 2.65 -11.1 4.35 -11.1 4.7 -10.5 5.7 -9.8 6.8 -9.2 6.8 -7.75 6.8 -7.1 5.75 L-6.65 5.8 -6.15 5.8 -6.35 6.25 -6.5 6.6 -6.95 7.05 Q-7.95 8.0 -9.3 7.9 L-10.05 7.85 Q-11.1 7.65 -11.85 7.0 L-12.3 6.45 Q-13.1 5.1 -12.3 3.65 L-11.9 3.15 -9.55 1.45 -9.5 1.5" fill="#bcd9ff" fill-rule="evenodd" stroke="none"/>
    <path d="M0.9 -3.75 L-1.65 -4.55 -5.35 -5.35 -7.1 -3.35 Q-8.9 -1.4 -9.6 -1.4 -10.4 -1.4 -10.4 -3.15 -10.4 -4.7 -7.85 -6.75 -4.85 -9.2 -1.9 -8.15 -0.85 -7.55 0.55 -6.55 L2.95 -4.8 Q4.85 -3.35 5.35 -3.25 L7.1 -2.6 7.45 -2.1 Q8.85 -1.6 9.7 0.45 L10.35 3.2 Q10.35 3.95 9.6 4.65 8.75 5.45 7.55 5.45 6.8 5.45 5.5 4.55 L4.7 4.0 3.7 3.6 Q3.2 3.6 2.4 4.5 1.6 5.35 1.25 6.25 L1.15 7.65 Q0.85 8.45 -1.5 8.45 -2.5 8.45 -3.0 7.35 L-3.3 6.2 Q-3.3 4.35 -1.05 2.8 L-0.45 1.9 Q-0.15 1.4 0.7 1.55 L2.4 1.45 5.45 1.15 5.05 0.35 4.7 -0.4 Q4.25 -1.1 3.45 -1.2 3.35 -1.0 3.15 -1.05 L2.2 -1.2 1.6 -1.05 1.25 -0.95 -0.3 -0.65 -0.8 -0.45 -1.55 0.05 -2.1 0.4 Q-2.8 0.8 -3.15 1.6 L-3.25 1.7 -4.9 2.95 Q-6.55 4.2 -6.95 4.2 -7.95 4.2 -7.8 2.65 -7.8 0.4 -4.8 -0.9 L-3.6 -1.7 -1.1 -2.45 1.25 -2.4 Q1.25 -2.7 1.4 -2.8 L2.0 -3.25 0.9 -3.75 M-0.8 -0.45 L-1.4 -0.1 -1.55 0.05 -1.4 -0.1 -0.8 -0.45 M-9.25 2.75 L-9.2 2.9 -8.9 3.65 -8.7 4.25 -8.55 4.6 -8.45 4.75 Q-8.0 5.6 -7.1 5.75 -7.75 6.8 -9.2 6.8 -9.8 6.8 -10.5 5.7 -11.1 4.7 -11.1 4.35 -11.1 2.65 -9.3 2.6 L-9.25 2.75" fill="#88a8ff" fill-rule="evenodd" stroke="none"/>
    <path d="M-9.1 0.55 L-9.05 0.4 -8.95 0.2 -8.45 -0.55 -8.2 -0.85 -7.5 -2.05 -7.3 -2.45 -6.6 -3.55 -5.6 -4.2 -5.4 -4.3 -5.0 -4.4 -4.75 -4.5 -4.35 -4.6 -2.15 -4.25 0.9 -3.75 2.0 -3.25 1.4 -2.8 Q1.25 -2.7 1.25 -2.4 L-1.1 -2.45 -3.6 -1.7 -4.8 -0.9 Q-7.8 0.4 -7.8 2.65 -7.95 4.2 -6.95 4.2 -6.55 4.2 -4.9 2.95 L-3.25 1.7 -3.2 1.7 -3.15 1.6 Q-2.8 0.8 -2.1 0.4 L-1.55 0.05 -0.8 -0.45 -0.3 -0.65 1.25 -0.95 1.55 -0.95 2.05 -0.85 4.2 -0.1 2.05 -0.85 1.55 -0.95 1.25 -0.95 1.6 -1.05 2.2 -1.2 3.15 -1.05 Q3.35 -1.0 3.45 -1.2 4.25 -1.1 4.7 -0.4 L5.05 0.35 5.45 1.15 2.4 1.45 0.7 1.55 Q-0.15 1.4 -0.45 1.9 L-1.05 2.8 Q-3.3 4.35 -3.3 6.2 L-3.0 7.35 Q-2.5 8.45 -1.5 8.45 0.85 8.45 1.15 7.65 L1.25 6.25 Q1.6 5.35 2.4 4.5 3.2 3.6 3.7 3.6 L4.7 4.0 Q3.7 4.4 3.3 4.8 L3.1 4.9 2.9 5.0 2.75 5.3 2.75 5.5 2.65 7.15 Q2.6 8.35 1.7 9.1 1.0 9.75 0.15 9.9 L-1.8 10.05 -2.4 9.95 -3.7 9.2 -4.25 8.75 -4.65 8.15 Q-4.95 7.2 -4.7 6.25 L-4.6 5.75 -4.4 5.1 -4.0 4.0 -3.35 2.25 -3.25 1.85 -3.2 1.7 -3.25 1.85 -3.35 2.25 -4.0 4.0 -4.4 5.1 -5.55 5.65 -6.15 5.8 -6.65 5.8 -7.1 5.75 Q-8.0 5.6 -8.45 4.75 L-8.55 4.6 -8.7 4.25 -8.9 3.65 -9.2 2.9 -9.25 2.75 -9.4 2.2 -9.5 1.5 -9.45 1.4 -9.1 0.55" fill="#bdd8ff" fill-opacity="0.6" fill-rule="evenodd" stroke="none"/>
    <path d="M-9.1 0.55 L-9.3 0.6 -10.05 0.8 Q-11.05 0.85 -11.75 0.05 -12.35 -0.65 -12.15 -1.65 L-12.0 -2.25 Q-11.5 -4.1 -10.4 -5.55 L-10.15 -5.95 -9.2 -7.4 -8.8 -7.8 -7.5 -9.15 -7.1 -9.5 -5.8 -9.95 -3.75 -10.2 0.1 -10.0 Q1.85 -9.55 3.25 -8.25 L4.65 -6.75 5.7 -5.6 6.25 -5.1 7.35 -4.3 8.95 -3.35 9.2 -3.15 9.7 -2.75 9.95 -2.55 Q10.2 -0.85 10.55 -0.2 12.05 2.65 12.45 4.25 L12.45 4.4 12.3 4.6 11.6 5.15 11.5 5.25 9.65 6.15 8.7 6.5 5.95 6.95 Q3.85 6.85 2.9 5.0 L3.1 4.9 3.3 4.8 Q3.7 4.4 4.7 4.0 L5.5 4.55 Q6.8 5.45 7.55 5.45 8.75 5.45 9.6 4.65 10.35 3.95 10.35 3.2 L9.7 0.45 Q8.85 -1.6 7.45 -2.1 L7.1 -2.6 5.35 -3.25 Q4.85 -3.35 2.95 -4.8 L0.55 -6.55 Q-0.85 -7.55 -1.9 -8.15 -4.85 -9.2 -7.85 -6.75 -10.4 -4.7 -10.4 -3.15 -10.4 -1.4 -9.6 -1.4 -8.9 -1.4 -7.1 -3.35 L-5.35 -5.35 -1.65 -4.55 0.9 -3.75 -2.15 -4.25 -4.35 -4.6 -4.75 -4.5 -5.0 -4.4 -5.4 -4.3 -5.6 -4.2 -6.6 -3.55 -7.3 -2.45 -7.5 -2.05 -8.2 -0.85 -8.45 -0.55 -8.95 0.2 -9.05 0.4 -9.1 0.55" fill="#bdd7ff" fill-opacity="0.4509804" fill-rule="evenodd" stroke="none"/>
    <path d="M9.95 -2.55 L9.7 -2.75 9.2 -3.15 8.95 -3.35 7.35 -4.3 6.25 -5.1 5.7 -5.6 4.65 -6.75 3.25 -8.25 Q1.85 -9.55 0.1 -10.0 L-3.75 -10.2 -5.8 -9.95 -7.1 -9.5 -7.5 -9.15 -8.8 -7.8 -9.2 -7.4 -10.15 -5.95 -10.4 -5.55 Q-11.5 -4.1 -12.0 -2.25 L-12.15 -1.65 Q-12.35 -0.65 -11.75 0.05 -11.05 0.85 -10.05 0.8 L-9.3 0.6 -9.1 0.55 -9.05 0.4 -8.95 0.2 -8.45 -0.55 -8.2 -0.85 -7.5 -2.05 -7.3 -2.45 -6.6 -3.55 -5.6 -4.2 -5.4 -4.3 -5.0 -4.4 -4.75 -4.5 -4.35 -4.6 -2.15 -4.25 0.9 -3.75 M4.7 4.0 Q3.7 4.4 3.3 4.8 L3.1 4.9 2.9 5.0 Q3.85 6.85 5.95 6.95 L8.7 6.5 9.65 6.15 11.5 5.25 11.6 5.15 12.3 4.6 12.45 4.4 12.45 4.25 M1.25 -0.95 L1.55 -0.95 2.05 -0.85 4.2 -0.1 M1.25 -0.95 L-0.3 -0.65 -0.8 -0.45 -1.4 -0.1 -1.55 0.05 -2.1 0.4 Q-2.8 0.8 -3.15 1.6 L-3.2 1.7 -3.25 1.85 -3.35 2.25 -4.0 4.0 -4.4 5.1 -4.6 5.75 -4.7 6.25 Q-4.95 7.2 -4.65 8.15 L-4.25 8.75 -3.7 9.2 -2.4 9.95 -1.8 10.05 0.15 9.9 Q1.0 9.75 1.7 9.1 2.6 8.35 2.65 7.15 L2.75 5.5 2.75 5.3 2.9 5.0 M-9.1 0.55 L-9.45 1.4 -9.5 1.5 -9.4 2.2 -9.25 2.75 -9.2 2.9 -8.9 3.65 -8.7 4.25 -8.55 4.6 -8.45 4.75 Q-8.0 5.6 -7.1 5.75 L-6.65 5.8 -6.15 5.8 -5.55 5.65 -4.4 5.1 M-9.45 1.4 L-9.55 1.45 -11.9 3.15 -12.3 3.65 Q-13.1 5.1 -12.3 6.45 L-11.85 7.0 Q-11.1 7.65 -10.05 7.85 L-9.3 7.9 Q-7.95 8.0 -6.95 7.05 L-6.5 6.6 -6.35 6.25 -6.15 5.8" fill="none" stroke="#ffffff" stroke-linecap="round" stroke-linejoin="round" stroke-width="1"/>
    <path d="M-9.15 -0.8 Q-9.6 -0.8 -11.25 -3.05 -11.25 -4.7 -8.7 -1.4 -8.7 -0.8 -9.15 -0.8 M-4.8 3.75 L-5.35 4.4 Q-5.95 4.8 -6.4 4.8 -7.6 4.8 -9.15 2.55 -9.15 1.7 -8.0 1.2 L-7.15 2.15 Q-6.8 2.7 -7.2 3.15 -6.85 3.5 -4.95 3.5 L-4.85 3.55 -4.8 3.75 M-9.35 6.95 Q-10.45 6.95 -11.2 6.0 L-11.7 5.0 Q-11.7 3.7 -8.15 6.45 -8.15 6.95 -9.35 6.95 M-3.65 8.15 L-4.1 6.75 Q-4.1 5.25 -3.25 6.3 -1.9 7.95 -1.1 7.95 0.1 7.95 0.6 7.4 L1.2 6.8 Q1.65 6.8 1.65 7.25 1.65 7.95 0.75 8.6 -0.3 9.35 -1.7 9.35 -3.0 9.35 -3.65 8.15 M10.55 3.15 L10.65 3.45 Q10.65 4.05 9.9 4.9 8.95 6.0 7.5 6.0 6.65 6.0 5.5 5.25 4.5 4.55 4.5 4.25 4.5 3.65 4.95 3.65 5.3 3.65 6.1 4.15 6.9 4.65 7.6 4.65 8.5 4.65 9.4 3.9 L10.4 3.0 10.55 3.15" fill="#7deeff" fill-rule="evenodd" stroke="none"/>
    <path d="M-4.35 -6.75 Q-5.0 -6.0 -6.2 -6.0 -7.9 -6.0 -7.85 -7.1 -7.85 -8.7 -5.85 -9.1 -3.9 -9.45 -3.9 -7.7 -3.9 -7.25 -4.35 -6.75 M-2.55 -2.6 Q-2.55 -1.4 -4.85 -1.4 -5.75 -1.4 -5.6 -2.25 -5.6 -3.4 -4.05 -3.4 -2.55 -3.45 -2.55 -2.6 M-1.1 1.65 Q-1.1 0.85 0.45 0.75 2.0 0.7 2.0 1.6 2.0 2.1 1.3 2.55 L-0.15 3.0 Q-1.2 3.0 -1.1 1.65" fill="#ffffff" fill-rule="evenodd" stroke="none"/>
  </g>
</svg>