<?xml version="1.0" encoding="UTF-8" standalone="no"?>
<svg xmlns:xlink="http://www.w3.org/1999/xlink" height="11.4px" width="28.55px" xmlns="http://www.w3.org/2000/svg">
  <g transform="matrix(1.0, 0.0, 0.0, 1.0, 14.25, 5.7)">
    <path d="M-9.25 -3.0 L-8.45 -3.35 Q-5.95 -4.4 -1.95 -4.65 L1.35 -4.55 2.05 -4.5 2.65 -4.4 4.6 -4.2 5.75 -4.1 7.15 -3.75 8.35 -3.4 Q8.55 -3.3 8.85 -3.15 L10.25 -2.5 11.0 -2.05 11.25 -1.9 12.85 -1.0 12.95 -0.8 Q13.45 -0.05 13.25 0.7 L13.1 0.8 Q12.5 1.4 11.35 1.9 L10.65 2.25 Q9.85 2.7 9.6 3.2 9.1 3.95 7.2 4.35 L6.0 4.55 5.35 4.65 4.05 4.65 3.5 4.6 1.35 4.4 -0.7 4.45 -3.3 4.7 -3.65 4.65 -5.45 4.15 -7.5 3.4 -7.85 3.25 -9.6 3.15 -11.9 2.95 Q-12.95 2.4 -13.05 1.7 L-13.1 1.35 -13.15 -0.35 -12.7 -1.05 -12.3 -1.4 -11.75 -1.8 -11.25 -2.15 -9.3 -3.0 -9.25 -3.0 M9.25 0.6 L9.25 0.5 Q9.25 -1.2 7.75 -1.75 L5.65 -2.2 4.65 -2.4 3.45 -2.3 Q2.5 -2.3 1.7 -3.0 L1.75 -3.1 -0.05 -3.4 0.0 -3.15 -3.65 -2.85 -4.7 -2.55 -5.75 -2.25 -7.55 -1.5 -6.8 -1.65 -6.1 -1.95 -4.1 -2.35 -0.2 -2.65 -0.05 -2.65 -0.2 -2.35 0.8 -2.4 1.4 -2.2 2.8 -2.1 5.7 -1.85 Q7.8 -1.15 7.8 -0.6 7.8 0.3 5.5 0.9 L-0.1 1.5 Q-5.85 1.5 -5.85 0.4 -5.85 -0.35 -3.15 -0.4 L2.45 -0.8 4.85 -0.6 5.35 -0.2 Q4.9 0.25 3.65 0.25 L2.4 0.35 Q1.75 0.4 1.75 0.1 L3.45 0.1 4.8 -0.05 4.9 -0.15 4.5 -0.3 2.5 -0.4 -1.75 -0.1 -5.25 0.35 -4.05 0.8 -3.35 0.9 -1.2 0.9 0.7 1.0 Q5.7 1.0 7.25 -0.6 4.95 -1.7 -0.1 -1.7 L-1.15 -1.65 Q-2.95 -0.8 -7.15 -0.8 L-7.75 -0.8 -8.35 -0.1 -8.55 0.4 -8.85 0.8 Q-8.85 1.4 -8.45 1.75 L-9.0 1.8 Q-10.8 1.8 -11.15 -0.25 L-10.85 -0.75 -10.55 -1.0 Q-12.0 -1.1 -12.15 -0.25 -12.15 0.45 -11.75 1.1 -10.95 2.35 -9.0 2.35 L-7.95 2.3 Q-7.5 2.75 -5.85 3.35 L-2.85 4.0 -0.4 3.75 0.55 3.3 -0.8 3.4 -2.35 3.55 -3.6 3.3 -4.2 2.95 -4.2 2.65 -3.4 2.65 -1.55 2.45 -0.45 2.25 0.75 2.55 2.5 2.85 4.65 2.55 5.6 2.25 7.0 1.95 7.3 1.95 7.2 2.05 6.75 2.85 6.5 3.5 6.75 3.75 Q8.1 3.45 8.35 2.9 8.5 2.35 8.8 2.05 L10.2 1.05 Q11.2 0.5 11.2 0.2 L10.85 -0.7 Q10.55 -1.35 9.9 -1.45 L9.7 -1.35 10.15 -0.25 9.8 0.2 9.25 0.6" fill="#bdd7ff" fill-opacity="0.4509804" fill-rule="evenodd" stroke="none"/>
    <path d="M-8.45 1.75 Q-8.85 1.4 -8.85 0.8 L-8.55 0.4 -8.35 -0.1 -7.75 -0.8 -7.15 -0.8 Q-2.95 -0.8 -1.15 -1.65 L-0.1 -1.7 Q4.95 -1.7 7.25 -0.6 5.7 1.0 0.7 1.0 L-1.2 0.9 -3.35 0.9 -4.05 0.8 -5.25 0.35 -1.75 -0.1 2.5 -0.4 4.5 -0.3 4.9 -0.15 4.8 -0.05 3.45 0.1 1.75 0.1 Q1.75 0.4 2.4 0.35 L3.65 0.25 Q4.9 0.25 5.35 -0.2 L4.85 -0.6 2.45 -0.8 -3.15 -0.4 Q-5.85 -0.35 -5.85 0.4 -5.85 1.5 -0.1 1.5 L5.5 0.9 Q7.8 0.3 7.8 -0.6 7.8 -1.15 5.7 -1.85 L2.8 -2.1 1.4 -2.2 0.8 -2.4 -0.2 -2.35 -0.05 -2.65 -0.2 -2.65 -4.1 -2.35 -6.1 -1.95 -6.8 -1.65 -7.55 -1.5 -5.75 -2.25 -4.7 -2.55 -3.65 -2.85 0.0 -3.15 -0.05 -3.4 1.75 -3.1 1.7 -3.0 Q2.5 -2.3 3.45 -2.3 L4.65 -2.4 5.65 -2.2 7.75 -1.75 Q9.25 -1.2 9.25 0.5 L9.25 0.6 8.55 1.0 7.9 1.4 7.3 1.95 7.0 1.95 5.6 2.25 4.65 2.55 2.5 2.85 0.75 2.55 -0.45 2.25 -1.55 2.45 -3.4 2.65 -4.2 2.65 -4.3 2.25 Q-4.8 1.7 -6.8 1.7 L-8.45 1.75" fill="#88a8ff" fill-rule="evenodd" stroke="none"/>
    <path d="M-8.45 1.75 L-6.8 1.7 Q-4.8 1.7 -4.3 2.25 L-4.2 2.65 -4.2 2.95 -3.6 3.3 -2.35 3.55 -0.8 3.4 0.55 3.3 -0.4 3.75 -2.85 4.0 -5.85 3.35 Q-7.5 2.75 -7.95 2.3 L-9.0 2.35 Q-10.95 2.35 -11.75 1.1 -12.15 0.45 -12.15 -0.25 -12.0 -1.1 -10.55 -1.0 L-10.85 -0.75 -11.15 -0.25 Q-10.8 1.8 -9.0 1.8 L-8.45 1.75 M7.3 1.95 L7.9 1.4 8.55 1.0 9.25 0.6 9.8 0.2 10.15 -0.25 9.7 -1.35 9.9 -1.45 Q10.55 -1.35 10.85 -0.7 L11.2 0.2 Q11.2 0.5 10.2 1.05 L8.8 2.05 Q8.5 2.35 8.35 2.9 8.1 3.45 6.75 3.75 L6.5 3.5 6.75 2.85 7.2 2.05 7.3 1.95" fill="#7deeff" fill-rule="evenodd" stroke="none"/>
    <path d="M-9.25 -3.0 L-8.45 -3.35 Q-5.95 -4.4 -1.95 -4.65 L1.35 -4.55 2.05 -4.5 2.65 -4.4 4.6 -4.2 5.75 -4.1 7.15 -3.75 8.35 -3.4 Q8.55 -3.3 8.85 -3.15 L10.25 -2.5 11.0 -2.05 11.25 -1.9 12.85 -1.0 12.95 -0.8 Q13.45 -0.05 13.25 0.7 L13.1 0.8 Q12.5 1.4 11.35 1.9 L10.65 2.25 Q9.85 2.7 9.6 3.2 9.1 3.95 7.2 4.35 L6.0 4.55 5.35 4.65 4.05 4.65 3.5 4.6 1.35 4.4 -0.7 4.45 -3.3 4.7 -3.65 4.65 -5.45 4.15 -7.5 3.4 -7.85 3.25 -9.6 3.15 -11.9 2.95 Q-12.95 2.4 -13.05 1.7 L-13.1 1.35 -13.15 -0.35 -12.7 -1.05 -12.3 -1.4 -11.75 -1.8 -11.25 -2.15 -9.3 -3.0" fill="none" stroke="#ffffff" stroke-linecap="round" stroke-linejoin="round" stroke-width="1"/>
    <path d="M-11.9 -0.65 L-12.15 -0.35 -12.25 0.15 Q-12.6 1.0 -11.8 1.5 L-11.6 1.65 Q-11.15 2.05 -10.55 2.15 L-10.25 2.25 -9.85 2.35 -7.85 2.55 -7.45 2.65 Q-6.5 2.75 -5.7 3.3 L-5.35 3.5 -2.6 3.95 -1.6 3.9 -0.75 3.85 M1.25 3.55 Q1.3 3.7 1.55 3.7 L3.35 3.85 M5.45 3.9 L6.15 3.7" fill="none" stroke="#ffffff" stroke-linecap="round" stroke-linejoin="round" stroke-width="1"/>
  </g>
</svg>