<?xml version="1.0" encoding="UTF-8" standalone="no"?>
<svg xmlns:xlink="http://www.w3.org/1999/xlink" height="15.1px" width="30.6px" xmlns="http://www.w3.org/2000/svg">
  <g transform="matrix(1.0, 0.0, 0.0, 1.0, 15.3, 7.55)">
    <path d="M0.2 -3.2 L-2.05 -0.95 Q-2.05 -0.05 -0.35 -0.05 L2.65 -0.25 Q5.2 -0.25 6.3 0.65 7.0 1.25 7.0 2.0 7.0 2.8 6.25 3.4 5.4 4.1 4.0 4.1 L1.55 3.35 Q-0.25 2.6 -5.05 2.6 -8.0 2.6 -9.25 4.05 -9.6 4.5 -11.35 5.2 -13.05 5.85 -13.05 5.55 L-13.95 5.0 -14.3 4.25 Q-8.85 -6.55 -0.65 -6.55 2.4 -6.55 2.4 -5.55 2.4 -5.1 0.2 -3.2 M1.0 -5.3 L1.05 -5.35 1.0 -5.35 1.0 -5.3" fill="#ff00ff" fill-rule="evenodd" stroke="none"/>
    <path d="M2.3 -2.6 Q2.3 -3.95 4.2 -4.3 L8.3 -3.9 Q14.3 -2.1 14.3 2.2 L14.2 4.45 Q13.85 6.55 12.65 6.55 L11.1 6.2 9.65 5.5 7.6 5.25 Q6.55 5.15 6.55 4.45 6.55 2.7 8.65 2.3 10.7 1.85 10.7 0.85 10.7 -0.45 6.5 -0.8 2.3 -1.15 2.3 -2.6" fill="#00ffff" fill-rule="evenodd" stroke="none"/>
  </g>
</svg>