<?xml version="1.0" encoding="UTF-8" standalone="no"?>
<svg xmlns:xlink="http://www.w3.org/1999/xlink" height="35.7px" width="55.75px" xmlns="http://www.w3.org/2000/svg">
  <g transform="matrix(1.0, 0.0, 0.0, 1.0, 27.85, 17.6)">
    <path d="M-19.35 -16.2 L-20.75 -16.5 Q-15.9 -16.9 -11.3 -15.4 L-9.8 -14.9 -6.8 -13.8 -5.0 -13.0 -3.35 -12.2 0.0 -10.35 0.5 -10.1 3.8 -9.8 5.75 -9.1 6.1 -8.95 6.85 -8.55 9.25 -7.05 9.6 -6.65 12.0 -6.4 Q14.3 -6.1 15.75 -4.45 L17.15 -2.8 18.25 -1.35 20.0 -0.8 23.6 -0.3 24.9 -0.35 25.75 -0.25 26.25 0.2 26.3 0.3 26.85 0.85 26.9 1.0 26.7 1.35 23.85 3.6 Q22.3 4.6 20.55 5.2 19.7 5.55 18.9 6.0 L17.2 6.6 15.5 7.15 13.75 7.6 13.1 7.75 12.95 7.8 12.9 7.8 12.6 7.9 Q9.1 8.6 5.75 10.2 L4.15 10.9 0.0 12.65 -5.0 13.65 -9.8 15.15 -11.3 15.45 -19.25 16.75 -26.85 17.1 -26.85 15.8 -16.45 15.15 -16.55 15.15 -11.3 14.2 -9.8 13.9 -5.0 12.2 -1.65 9.45 -2.9 11.75 -2.95 11.75 -3.25 12.25 -1.8 11.8 0.0 11.25 3.0 10.05 5.75 8.65 6.95 7.5 8.35 5.6 8.6 5.35 8.6 5.3 8.85 4.85 8.45 6.05 8.4 6.15 7.5 8.45 12.6 6.75 17.85 5.1 21.45 3.6 22.7 2.9 23.95 2.2 25.1 1.45 25.6 1.1 25.7 1.0 25.7 0.95 25.6 1.0 25.1 1.0 24.2 1.0 23.55 0.95 20.9 1.05 20.55 1.1 19.45 0.9 18.4 0.45 17.7 -0.15 16.45 -1.25 15.3 -2.45 14.15 -3.85 13.6 -4.3 12.95 -4.6 12.1 -4.75 11.8 -4.9 10.7 -5.2 11.3 -4.0 11.6 -3.2 11.8 -2.7 11.75 -2.55 11.55 -2.75 11.2 -3.25 10.35 -4.55 10.25 -4.7 9.15 -5.85 Q8.6 -6.15 7.9 -6.6 L6.1 -7.45 4.4 -8.15 1.1 -9.35 2.1 -8.05 Q3.4 -6.15 4.2 -4.2 L4.05 -2.2 3.25 1.0 Q3.45 -2.15 2.3 -4.9 1.45 -7.0 0.0 -8.4 -1.4 -9.85 -3.35 -10.75 L-4.3 -11.25 -5.0 -11.5 -7.5 -12.45 -9.8 -13.25 -11.3 -13.85 Q-15.2 -15.35 -19.35 -16.2" fill="#a36a6a" fill-rule="evenodd" stroke="none"/>
    <path d="M-16.45 15.15 Q-13.65 14.1 -11.3 12.6 L-9.8 11.55 -7.15 8.9 Q-6.2 7.8 -5.6 6.4 L-3.35 6.5 -3.15 6.55 Q-1.75 6.4 -0.05 5.6 L0.0 5.6 0.6 5.25 0.7 5.05 Q2.0 2.75 3.15 1.25 L3.45 1.85 3.35 2.75 3.0 3.85 4.1 3.8 5.75 3.35 Q8.15 2.25 9.35 -0.15 10.2 -1.95 10.2 -4.05 10.2 -4.45 10.35 -4.55 L11.2 -3.25 11.55 -2.75 11.75 -2.55 11.85 -0.75 Q11.7 1.2 16.1 0.55 L18.4 0.45 19.45 0.9 20.55 1.1 20.9 1.05 23.55 0.95 24.2 1.0 25.1 1.0 25.6 1.0 25.7 0.95 25.6 1.1 Q25.45 1.15 25.25 1.3 L25.1 1.45 23.95 2.2 22.7 2.9 21.45 3.6 17.85 5.1 12.6 6.75 7.5 8.45 8.4 6.15 8.45 6.1 8.45 6.05 8.85 4.85 8.6 5.3 8.6 5.35 Q8.45 5.4 8.35 5.55 L8.35 5.6 6.95 7.5 5.75 8.65 3.0 10.05 0.0 11.25 -1.8 11.8 -3.25 12.25 -2.95 11.75 -2.9 11.75 -1.65 9.45 -5.0 12.2 -9.8 13.9 -11.3 14.2 -16.55 15.15 -16.45 15.15 M4.2 -4.2 Q3.4 -6.15 2.1 -8.05 L1.1 -9.35 4.4 -8.15 Q5.45 -5.8 4.3 -4.05 L4.2 -4.2 M11.6 -3.2 L11.3 -4.0 10.7 -5.2 11.8 -4.9 12.1 -4.75 Q12.1 -3.4 11.6 -3.2" fill="#cca9a9" fill-rule="evenodd" stroke="none"/>
    <path d="M6.1 -6.35 L5.75 -6.25 5.65 -6.2 5.4 -6.0 5.15 -5.8 5.1 -5.55 Q5.1 -4.55 5.75 -3.7 L6.1 -3.35 Q6.5 -3.05 6.95 -3.15 7.5 -3.25 7.95 -4.0 L8.3 -4.95 Q8.3 -5.9 6.65 -6.3 L6.1 -6.35 M-5.6 6.4 Q-4.95 -0.9 -9.65 -6.8 L-9.8 -6.95 -11.3 -8.85 -13.6 -11.65 Q-16.0 -14.4 -19.35 -16.2 -15.2 -15.35 -11.3 -13.85 L-9.8 -13.25 -7.5 -12.45 -5.0 -11.5 -4.3 -11.25 -3.35 -10.75 Q-1.4 -9.85 0.0 -8.4 1.45 -7.0 2.3 -4.9 3.45 -2.15 3.25 1.0 L4.05 -2.2 4.2 -4.2 4.3 -4.05 Q5.45 -5.8 4.4 -8.15 L6.1 -7.45 7.9 -6.6 Q8.6 -6.15 9.15 -5.85 L10.25 -4.7 10.35 -4.55 Q10.2 -4.45 10.2 -4.05 10.2 -1.95 9.35 -0.15 8.15 2.25 5.75 3.35 L4.1 3.8 3.0 3.85 3.35 2.75 3.45 1.85 3.15 1.25 Q2.0 2.75 0.7 5.05 L0.6 5.25 0.0 5.6 -0.05 5.6 Q-1.75 6.4 -3.15 6.55 L-3.35 6.5 -5.6 6.4 M11.75 -2.55 L11.8 -2.7 11.6 -3.2 Q12.1 -3.4 12.1 -4.75 L12.95 -4.6 13.6 -4.3 14.15 -3.85 15.3 -2.45 16.45 -1.25 17.7 -0.15 18.4 0.45 16.1 0.55 Q11.7 1.2 11.85 -0.75 L11.75 -2.55 M25.7 0.95 L25.7 1.0 25.6 1.1 25.1 1.45 25.25 1.3 Q25.45 1.15 25.6 1.1 L25.7 0.95 M8.4 6.15 L8.45 6.05 8.45 6.1 8.4 6.15 M8.6 5.35 L8.35 5.6 8.35 5.55 Q8.45 5.4 8.6 5.35 M13.6 -3.5 L13.55 -4.1 12.55 -3.95 12.5 -3.4 12.6 -3.05 Q12.75 -2.75 13.25 -2.9 L13.55 -3.1 13.6 -3.5 M7.5 -2.25 Q6.1 -2.05 6.1 -1.05 L6.35 -0.45 Q6.8 0.1 7.65 -0.15 8.9 -0.45 8.9 -1.35 8.9 -2.55 7.5 -2.25 M-4.9 -8.2 Q-4.9 -7.5 -3.6 -6.3 L-3.35 -6.1 -2.4 -5.5 -1.35 -5.1 -1.05 -5.2 -1.0 -5.6 Q-0.6 -8.4 -3.35 -9.65 -4.9 -10.55 -4.9 -8.2" fill="#e0cbcb" fill-rule="evenodd" stroke="none"/>
    <path d="M6.1 -6.35 L6.65 -6.3 Q8.3 -5.9 8.3 -4.95 L7.95 -4.0 Q7.5 -3.25 6.95 -3.15 6.5 -3.05 6.1 -3.35 L5.75 -3.7 Q5.1 -4.55 5.1 -5.55 L5.15 -5.8 5.4 -6.0 5.65 -6.2 5.75 -6.25 6.1 -6.35 M7.5 -2.25 Q8.9 -2.55 8.9 -1.35 8.9 -0.45 7.65 -0.15 6.8 0.1 6.35 -0.45 L6.1 -1.05 Q6.1 -2.05 7.5 -2.25 M13.6 -3.5 L13.55 -3.1 13.25 -2.9 Q12.75 -2.75 12.6 -3.05 L12.5 -3.4 12.55 -3.95 13.55 -4.1 13.6 -3.5 M-4.9 -8.2 Q-4.9 -10.55 -3.35 -9.65 -0.6 -8.4 -1.0 -5.6 L-1.05 -5.2 -1.35 -5.1 -2.4 -5.5 -3.35 -6.1 -3.6 -6.3 Q-4.9 -7.5 -4.9 -8.2" fill="#f2eaea" fill-rule="evenodd" stroke="none"/>
  </g>
</svg>