<?xml version="1.0" encoding="UTF-8" standalone="no"?>
<svg xmlns:xlink="http://www.w3.org/1999/xlink" height="37.2px" width="71.75px" xmlns="http://www.w3.org/2000/svg">
  <g transform="matrix(1.0, 0.0, 0.0, 1.0, 35.9, 18.6)">
    <path d="M19.8 -13.3 L19.8 -13.25 22.6 -12.05 22.9 -10.65 Q22.9 -6.75 20.95 -4.7 17.35 -0.85 7.05 -0.85 -0.75 -0.85 -8.85 -4.7 -12.75 -6.5 -14.55 -8.0 L-14.05 -8.3 -12.55 -9.1 Q-8.15 -11.4 -3.0 -13.5 4.4 -16.6 7.05 -16.4 9.65 -16.25 15.55 -14.7 L19.8 -13.3 M-2.85 -0.75 Q-2.85 -0.65 -3.1 -0.65 L-8.75 -1.3 Q-13.55 -2.1 -13.55 -3.3 -13.55 -4.1 -9.05 -2.95 -4.9 -1.85 -2.8 -0.85 L-2.85 -0.75" fill="url(#gradient0)" fill-rule="evenodd" stroke="none"/>
    <path d="M-14.05 -8.3 L-14.55 -8.0 Q-12.75 -6.5 -8.85 -4.7 -0.75 -0.85 7.05 -0.85 17.35 -0.85 20.95 -4.7 22.9 -6.75 22.9 -10.65 L22.6 -12.05 19.8 -13.25 19.8 -13.3 22.6 -12.05 26.85 -9.65 Q31.85 -6.45 33.1 -2.3 L33.2 -1.1 Q32.7 2.45 30.55 4.7 L29.1 6.2 Q28.25 6.9 26.5 7.2 L22.55 7.2 Q19.4 7.35 18.55 8.9 18.0 9.95 14.2 11.55 9.8 13.45 6.05 13.45 0.35 13.45 -1.45 12.0 L-2.3 11.0 Q-2.65 10.55 -3.15 10.55 L-3.85 10.8 -3.85 11.4 Q-4.15 12.25 -8.05 12.25 -11.2 12.25 -17.2 10.7 L-23.2 9.0 -24.55 8.5 -29.65 5.85 Q-32.25 4.45 -33.65 4.05 L-34.35 2.4 -34.55 1.85 -34.55 1.65 Q-34.55 0.35 -31.75 -0.65 L-26.3 -2.0 Q-25.05 -2.25 -23.7 -3.0 -23.05 -3.35 -22.4 -3.85 L-21.9 -4.15 -22.4 -3.8 -23.6 -2.95 -23.5 -3.0 -20.65 -4.5 -20.1 -4.85 -20.05 -4.85 -16.3 -7.0 -14.05 -8.3 M-2.85 -0.75 L-2.8 -0.85 Q-4.9 -1.85 -9.05 -2.95 -13.55 -4.1 -13.55 -3.3 -13.55 -2.1 -8.75 -1.3 L-3.1 -0.65 Q-2.85 -0.65 -2.85 -0.75 M33.0 5.1 L32.95 5.1 33.35 3.85 33.0 5.1" fill="#e0cbcb" fill-rule="evenodd" stroke="none"/>
    <path d="M19.8 -13.3 L15.55 -14.7 Q9.65 -16.25 7.05 -16.4 4.4 -16.6 -3.0 -13.5 -8.15 -11.4 -12.55 -9.1 L-14.05 -8.3 -16.3 -7.0 -20.05 -4.85 -20.1 -4.85 -20.65 -4.5 -23.5 -3.0 -23.6 -2.95 -22.4 -3.8 -21.9 -4.15 Q-14.55 -9.25 -6.55 -13.25 -0.25 -16.5 6.05 -17.6 12.55 -17.45 19.3 -14.75 26.0 -12.05 30.0 -8.65 36.0 -3.45 34.55 3.95 33.65 8.75 30.15 11.35 L23.95 13.8 Q15.85 16.55 7.35 17.35 L-10.1 16.75 -14.55 15.9 Q-19.65 14.65 -24.55 12.6 L-26.35 11.85 -28.15 10.85 -31.25 8.6 -33.7 5.85 Q-34.45 4.35 -34.8 2.55 L-34.85 0.65 -34.55 1.85 -34.35 2.4 -33.65 4.05 -33.7 4.05 -33.65 4.1 -32.95 5.3 -32.55 5.85 Q-31.6 7.2 -30.25 8.2 L-28.0 9.65 -24.55 11.3 Q-17.65 14.1 -10.1 15.35 L-3.0 16.2 14.1 15.25 Q22.7 13.75 30.15 9.65 31.4 8.45 32.25 6.85 L33.0 5.1 33.35 3.85 33.5 -0.2 33.25 -1.65 33.25 -1.75 33.1 -2.3 Q31.85 -6.45 26.85 -9.65 L22.6 -12.05 19.8 -13.3" fill="#a36a6a" fill-rule="evenodd" stroke="none"/>
    <path d="M-33.65 4.05 Q-32.25 4.45 -29.65 5.85 L-24.55 8.5 -23.2 9.0 -17.2 10.7 Q-11.2 12.25 -8.05 12.25 -4.15 12.25 -3.85 11.4 L-3.85 10.8 -3.15 10.55 Q-2.65 10.55 -2.3 11.0 L-1.45 12.0 Q0.35 13.45 6.05 13.45 9.8 13.45 14.2 11.55 18.0 9.95 18.55 8.9 19.4 7.35 22.55 7.2 L26.5 7.2 Q28.25 6.9 29.1 6.2 L30.55 4.7 Q32.7 2.45 33.2 -1.1 L33.1 -2.3 33.25 -1.75 33.25 -1.65 33.5 -0.2 33.35 3.85 32.95 5.1 33.0 5.1 32.25 6.85 Q31.4 8.45 30.15 9.65 22.7 13.75 14.1 15.25 L-3.0 16.2 -10.1 15.35 Q-17.65 14.1 -24.55 11.3 L-28.0 9.65 -30.25 8.2 Q-31.6 7.2 -32.55 5.85 L-32.95 5.3 -33.65 4.1 -33.7 4.05 -33.65 4.05" fill="#cca9a9" fill-rule="evenodd" stroke="none"/>
  </g>
  <defs>
    <radialGradient cx="0" cy="0" gradientTransform="matrix(0.0345, -0.0139, 0.0086, 0.0213, 7.4, -22.75)" gradientUnits="userSpaceOnUse" id="gradient0" r="819.2" spreadMethod="pad">
      <stop offset="0.47843137254901963" stop-color="#ffffff"></stop>
      <stop offset="0.8823529411764706" stop-color="#f2eaea"></stop>
    </radialGradient>
  </defs>
</svg>