<?xml version="1.0" encoding="UTF-8" standalone="no"?>
<svg xmlns:xlink="http://www.w3.org/1999/xlink" height="30.35px" width="37.1px" xmlns="http://www.w3.org/2000/svg">
  <g transform="matrix(1.0, 0.0, 0.0, 1.0, 18.55, 15.2)">
    <path d="M-17.2 6.15 L-17.3 5.95 Q-17.3 5.55 -16.3 4.7 L-15.1 3.55 -15.05 3.55 -14.55 2.75 -14.55 2.8 -14.0 1.25 -13.65 -1.0 -13.05 -5.65 Q-12.45 -8.55 -8.95 -10.4 -2.4 -13.5 1.2 -13.5 L2.05 -13.45 4.7 -14.0 Q6.85 -14.45 10.55 -13.9 14.2 -13.3 16.45 -12.5 18.65 -11.75 16.5 -11.2 L12.75 -12.15 9.45 -12.65 9.0 -12.7 8.85 -12.75 8.0 -12.85 5.55 -12.9 3.7 -12.75 Q1.35 -12.5 -0.75 -11.65 L-0.8 -11.6 -2.7 -10.7 -2.75 -10.7 -2.8 -10.75 -2.85 -10.8 -2.8 -10.85 -0.8 -12.3 -1.0 -12.25 -1.25 -12.2 -1.45 -12.15 -3.1 -11.65 -8.0 -9.65 Q-9.9 -8.85 -10.95 -7.5 L-10.95 -7.55 -11.0 -7.5 Q-11.85 -6.4 -12.05 -5.25 L-12.65 -0.7 Q-12.65 0.2 -13.0 1.75 L-13.05 2.05 -13.05 2.25 -13.05 2.3 -13.2 2.6 Q-13.55 3.6 -14.0 3.9 L-14.35 4.35 -14.35 4.4 -15.75 5.65 -16.05 5.85 -16.95 6.25 -17.05 6.25 -17.2 6.15 M-13.2 2.6 L-13.25 2.6 -13.2 2.6 M10.85 -5.55 L10.95 -5.5 10.95 -5.45 10.95 -4.25 Q10.85 -1.7 9.8 0.6 8.55 3.3 6.3 5.35 4.55 6.75 2.55 7.45 L1.6 8.55 -0.05 10.25 -1.2 11.75 -2.0 12.7 -2.0 12.75 -2.3 13.05 -2.4 13.15 -2.5 13.15 -2.75 12.95 -2.6 12.25 Q-2.1 11.0 -0.05 8.75 L0.65 7.95 -3.0 8.75 -3.05 8.75 -3.7 8.9 -4.15 8.95 -4.25 8.95 -4.3 8.9 -4.3 8.8 -4.25 8.75 -1.3 7.75 -1.15 7.7 0.5 7.1 1.05 6.85 3.6 5.6 3.6 5.55 Q6.65 3.85 8.25 0.95 L8.3 0.95 10.0 -2.85 10.3 -3.7 10.75 -5.45 10.8 -5.5 10.85 -5.55" fill="#a36a6a" fill-rule="evenodd" stroke="none"/>
    <path d="M-17.2 6.15 L-17.05 6.25 -16.95 6.25 -16.05 5.85 -15.75 5.65 -14.35 4.4 -14.35 4.35 -14.0 3.9 Q-13.55 3.6 -13.2 2.6 L-13.05 2.3 -13.05 2.25 -13.05 2.05 -13.0 1.75 Q-12.65 0.2 -12.65 -0.7 L-12.05 -5.25 Q-11.85 -6.4 -11.0 -7.5 L-10.95 -7.5 Q-9.9 -8.85 -8.0 -9.65 L-3.1 -11.65 -1.45 -12.15 -1.25 -12.2 -1.0 -12.25 -0.8 -12.3 -2.8 -10.85 -2.85 -10.8 -2.8 -10.75 -2.75 -10.7 -2.7 -10.7 -0.8 -11.6 -0.75 -11.65 Q1.35 -12.5 3.7 -12.75 L5.55 -12.9 8.0 -12.85 8.85 -12.75 9.0 -12.7 9.45 -12.65 12.75 -12.15 16.5 -11.2 14.35 -9.7 13.65 -9.9 8.25 -11.0 Q5.45 -11.0 0.4 -9.1 L-4.5 -7.5 -4.75 -7.05 Q-5.7 -4.8 -6.5 -0.6 -7.15 3.05 -10.25 5.8 L-16.25 11.25 -16.3 11.25 -16.55 10.9 -16.8 10.5 -16.85 10.5 Q-17.55 9.35 -17.55 8.0 L-17.2 6.15" fill="url(#gradient0)" fill-rule="evenodd" stroke="none"/>
    <path d="M-13.2 2.6 L-13.25 2.6 -13.2 2.6 M14.35 -9.7 L12.05 -8.1 11.6 -7.65 Q11.25 -7.25 10.9 -5.55 L10.85 -5.55 10.8 -5.5 10.75 -5.45 10.3 -3.7 10.0 -2.85 8.3 0.95 8.25 0.95 Q6.65 3.85 3.6 5.55 L3.6 5.6 1.05 6.85 0.5 7.1 -1.15 7.7 -1.3 7.75 -4.25 8.75 -4.3 8.8 -4.3 8.9 -4.25 8.95 -4.15 8.95 -3.7 8.9 -4.1 8.95 -4.1 11.5 -4.55 12.8 -5.0 14.05 -4.2 13.95 -7.1 14.15 Q-13.3 14.15 -15.95 11.6 L-16.25 11.25 -10.25 5.8 Q-7.15 3.05 -6.5 -0.6 -5.7 -4.8 -4.75 -7.05 L-4.5 -7.5 0.4 -9.1 Q5.45 -11.0 8.25 -11.0 L13.65 -9.9 14.35 -9.7 M-2.0 12.7 L-2.0 12.75 -2.15 13.1 -2.75 13.5 -2.6 13.4 -2.4 13.15 -2.3 13.05 -2.0 12.75 -2.0 12.7 M-3.25 13.7 L-3.35 13.7 -3.5 13.75 -3.45 13.65 -3.8 13.5 -3.25 13.7 M-16.55 10.9 L-16.85 10.5 -16.8 10.5 -16.55 10.9 M0.0 5.4 L0.65 4.9 Q1.9 3.85 2.2 3.0 L2.25 2.55 Q2.25 0.75 -1.3 2.2 -4.9 3.6 -4.9 5.6 -4.9 6.3 -3.75 6.45 L-3.3 6.45 -2.85 6.45 -2.35 6.3 -0.55 5.65 0.0 5.4 M-3.0 8.75 L-3.0 8.85 -3.05 8.75 -3.0 8.75" fill="#e0cbcb" fill-rule="evenodd" stroke="none"/>
    <path d="M0.0 5.4 L-0.55 5.65 -2.35 6.3 -2.85 6.45 -3.3 6.45 -3.75 6.45 Q-4.9 6.3 -4.9 5.6 -4.9 3.6 -1.3 2.2 2.25 0.75 2.25 2.55 L2.2 3.0 Q1.9 3.85 0.65 4.9 L0.0 5.4" fill="url(#gradient1)" fill-rule="evenodd" stroke="none"/>
    <path d="M-2.75 13.5 L-3.25 13.7 -3.8 13.5 -3.45 13.65 -3.5 13.75 -4.2 13.95 -5.0 14.05 -4.55 12.8 -4.1 11.5 -4.1 8.95 -3.7 8.9 -3.05 8.75 -3.0 8.85 -3.0 8.75 0.65 7.95 -0.05 8.75 Q-2.1 11.0 -2.6 12.25 L-2.75 12.95 -2.5 13.15 -2.4 13.15 -2.6 13.4 -2.75 13.5" fill="#cca9a9" fill-rule="evenodd" stroke="none"/>
  </g>
  <defs>
    <radialGradient cx="0" cy="0" gradientTransform="matrix(0.0114, -0.0198, 0.0122, 0.007, -24.55, 6.45)" gradientUnits="userSpaceOnUse" id="gradient0" r="819.2" spreadMethod="pad">
      <stop offset="0.47843137254901963" stop-color="#ffffff"></stop>
      <stop offset="0.8823529411764706" stop-color="#f2eaea"></stop>
    </radialGradient>
    <radialGradient cx="0" cy="0" gradientTransform="matrix(0.0114, -0.0198, 0.0122, 0.007, -45.45, -12.6)" gradientUnits="userSpaceOnUse" id="gradient1" r="819.2" spreadMethod="pad">
      <stop offset="0.47843137254901963" stop-color="#ffffff"></stop>
      <stop offset="0.8823529411764706" stop-color="#f2eaea"></stop>
    </radialGradient>
  </defs>
</svg>