<?xml version="1.0" encoding="UTF-8" standalone="no"?>
<svg xmlns:xlink="http://www.w3.org/1999/xlink" height="35.55px" width="84.6px" xmlns="http://www.w3.org/2000/svg">
  <g transform="matrix(1.0, 0.0, 0.0, 1.0, 60, 25.25)">
    <path d="M10.15 -23.9 L10.35 -23.55 10.15 -23.85 Q11.25 -23.75 12.2 -21.9 L12.3 -21.75 12.4 -21.5 12.6 -21.05 12.6 -21.0 12.65 -20.95 12.7 -20.85 13.1 -19.4 13.15 -16.55 13.2 -16.2 13.2 -14.9 13.25 -14.55 Q13.3 -13.5 13.95 -12.1 L14.1 -11.85 14.15 -11.65 Q15.05 -9.8 15.75 -9.6 L15.8 -9.6 16.05 -9.55 16.5 -9.55 16.65 -9.6 16.65 -9.95 Q15.4 -10.85 14.75 -12.2 L15.85 -11.75 Q19.05 -10.35 22.65 -11.2 L22.65 -11.1 22.5 -9.95 22.45 -9.95 22.1 -8.85 Q21.0 -6.7 19.95 -6.15 L18.55 -5.5 18.4 -5.45 17.75 -5.2 17.2 -4.95 16.95 -4.9 16.85 -4.85 16.4 -4.7 15.95 -4.5 14.6 -3.9 10.85 -6.15 9.25 -6.95 9.55 -6.8 7.35 -6.9 2.95 -6.5 Q-4.55 -3.1 -12.4 -5.6 L-16.5 -6.5 -17.15 -6.35 -18.8 -5.75 -18.85 -5.7 -18.9 -5.85 -18.6 -6.2 -17.4 -6.7 -16.05 -7.2 -13.55 -6.8 -11.65 -6.45 -8.95 -7.1 -6.75 -7.8 -2.3 -8.4 -0.7 -8.75 Q1.4 -9.35 3.0 -10.35 L5.65 -12.45 Q7.85 -14.45 9.15 -16.75 10.5 -19.15 10.5 -21.25 L10.15 -23.9 M14.15 -14.4 L14.05 -15.3 16.7 -15.25 17.25 -13.95 16.7 -13.65 Q15.55 -13.7 14.7 -14.15 14.4 -14.3 14.15 -14.4 M8.05 -7.4 L8.6 -7.8 8.05 -7.4 M12.9 -7.9 L12.75 -7.85 12.8 -7.8 12.9 -7.9 M2.55 4.15 L1.1 4.45 -0.55 4.5 -3.1 4.1 -3.2 4.1 -3.65 4.0 Q-4.0 3.2 -4.4 -0.3 L-3.7 -0.75 -3.1 -0.55 -1.2 0.8 2.55 4.15 M-23.6 8.25 L-26.8 7.9 -27.2 7.8 -27.5 7.75 -29.7 7.05 -31.5 6.4 Q-32.1 6.1 -32.55 5.95 L-30.65 4.0 -28.05 1.55 Q-26.55 0.4 -26.4 2.25 L-26.4 2.3 Q-25.5 3.0 -24.6 5.25 -23.85 7.15 -23.6 8.25" fill="#cca9a9" fill-rule="evenodd" stroke="none"/>
    <path d="M12.6 -21.05 L12.65 -21.3 Q14.0 -20.1 14.05 -16.55 L15.3 -16.6 16.7 -16.3 17.45 -15.8 18.2 -14.4 18.65 -13.85 22.9 -14.5 Q23.75 -12.9 23.6 -11.2 L23.5 -10.3 23.3 -8.85 23.2 -8.6 Q22.55 -6.65 20.85 -5.4 19.9 -4.7 17.5 -4.05 15.25 -3.4 14.4 -2.6 L12.75 -0.85 11.25 0.6 Q8.8 2.55 6.35 3.75 2.0 5.75 -1.35 5.2 -5.6 4.45 -8.9 5.25 -10.45 5.6 -15.45 7.65 -19.5 9.3 -21.85 9.3 -25.7 9.3 -30.3 7.8 -35.9 6.0 -47.85 5.1 -50.05 4.95 -53.6 1.2 -54.65 0.2 -55.65 -0.35 -56.55 -0.8 -59.0 -1.7 -58.7 -2.5 -56.05 -3.25 L-53.3 -4.05 -53.25 -4.6 Q-53.15 -5.1 -53.55 -5.5 L-54.6 -6.45 -54.9 -7.3 Q-52.1 -9.1 -50.55 -9.5 L-50.45 -8.9 -51.2 -12.45 -52.05 -16.95 Q-52.05 -21.55 -50.9 -23.45 L-50.85 -23.45 -50.55 -22.7 -51.0 -19.9 -51.0 -19.55 -50.85 -17.15 -50.1 -13.15 -49.2 -8.75 -49.2 -8.35 -49.2 -8.3 -49.4 -6.65 Q-49.7 -5.5 -50.45 -4.7 -52.2 -2.9 -56.9 -2.1 -55.65 -1.6 -53.6 0.3 L-53.55 0.35 -53.4 0.45 -52.1 1.7 Q-49.45 4.25 -46.2 4.8 L-40.85 4.65 Q-37.0 4.4 -34.95 5.25 L-33.3 5.7 -32.55 5.95 Q-32.1 6.1 -31.5 6.4 L-29.7 7.05 -27.5 7.75 -27.2 7.8 -26.8 7.9 -23.6 8.25 -22.25 8.25 Q-19.4 8.25 -14.4 6.35 -9.7 4.4 -9.0 4.2 L-4.1 3.9 -3.1 4.1 -0.55 4.5 1.1 4.45 2.55 4.15 Q5.95 3.15 10.65 -0.2 L12.0 -1.6 13.7 -3.35 14.6 -3.9 15.95 -4.5 16.4 -4.7 16.85 -4.85 16.95 -4.9 17.2 -4.95 17.75 -5.2 18.4 -5.45 18.55 -5.5 19.95 -6.15 Q21.0 -6.7 22.1 -8.85 L22.45 -9.95 22.5 -9.95 22.65 -11.1 22.65 -11.2 22.55 -12.6 22.4 -13.65 18.55 -12.95 19.0 -13.05 16.7 -12.75 Q15.3 -12.8 14.35 -13.4 L14.2 -14.0 14.35 -13.35 14.75 -12.2 Q15.4 -10.85 16.65 -9.95 L16.65 -9.6 16.5 -9.55 16.05 -9.55 15.8 -9.6 15.75 -9.6 Q15.05 -9.8 14.15 -11.65 L14.1 -11.85 13.95 -12.1 Q13.3 -13.5 13.25 -14.55 L13.2 -14.9 13.2 -16.2 13.15 -16.55 13.1 -19.4 13.05 -20.1 12.7 -20.85 12.65 -20.95 12.6 -21.0 12.6 -21.05 M14.15 -14.4 Q14.4 -14.3 14.7 -14.15 15.55 -13.7 16.7 -13.65 L17.25 -13.95 16.7 -15.25 14.05 -15.3 14.15 -14.4 M-53.6 -6.85 Q-52.3 -5.95 -52.3 -5.05 -52.3 -4.75 -52.45 -4.4 L-52.25 -4.55 Q-50.4 -6.0 -50.4 -8.35 L-50.4 -8.5 -51.6 -7.85 Q-52.55 -7.3 -53.6 -6.85" fill="#a36a6a" fill-rule="evenodd" stroke="none"/>
    <path d="M-51.0 -19.55 L-50.35 -18.95 -48.3 -16.35 Q-45.95 -14.5 -41.85 -13.1 L-33.6 -11.3 Q-24.45 -9.8 -13.85 -9.8 L-12.55 -9.8 Q-6.65 -9.95 -0.9 -11.35 L2.45 -12.7 3.6 -13.5 Q6.7 -15.65 7.55 -17.25 L8.75 -20.05 9.7 -22.75 9.5 -23.6 Q9.5 -24.6 10.05 -24.0 L10.15 -23.9 10.5 -21.25 Q10.5 -19.15 9.15 -16.75 7.85 -14.45 5.65 -12.45 L3.0 -10.35 Q1.4 -9.35 -0.7 -8.75 L-2.3 -8.4 -6.75 -7.8 -8.95 -7.1 -11.65 -6.45 -13.55 -6.8 -16.05 -7.2 -17.4 -6.7 -18.6 -6.2 -18.9 -5.85 -18.85 -5.7 -18.8 -5.75 -17.15 -6.35 -16.5 -6.5 -12.4 -5.6 Q-4.55 -3.1 2.95 -6.5 L7.35 -6.9 9.55 -6.8 9.25 -6.95 10.85 -6.15 14.6 -3.9 13.7 -3.35 12.0 -1.6 10.65 -0.2 Q5.95 3.15 2.55 4.15 L-1.2 0.8 -3.1 -0.55 -3.7 -0.75 -4.4 -0.3 Q-4.0 3.2 -3.65 4.0 L-3.2 4.1 -3.1 4.1 -4.1 3.9 -9.0 4.2 Q-9.7 4.4 -14.4 6.35 -19.4 8.25 -22.25 8.25 L-23.6 8.25 Q-23.85 7.15 -24.6 5.25 -25.5 3.0 -26.4 2.3 L-26.4 2.25 Q-26.55 0.4 -28.05 1.55 L-30.65 4.0 -32.55 5.95 -33.3 5.7 -34.95 5.25 Q-37.0 4.4 -40.85 4.65 L-46.2 4.8 Q-49.45 4.25 -52.1 1.7 L-53.4 0.45 -48.5 -1.85 Q-46.5 -2.8 -46.5 -4.35 -46.5 -5.75 -48.45 -7.95 L-49.2 -8.75 -50.1 -13.15 -50.85 -17.15 -51.0 -19.55 M22.65 -11.2 Q19.05 -10.35 15.85 -11.75 L14.75 -12.2 14.35 -13.35 14.35 -13.4 Q15.3 -12.8 16.7 -12.75 L19.0 -13.05 18.55 -12.95 22.4 -13.65 22.55 -12.6 22.65 -11.2 M8.05 -7.4 L8.6 -7.8 8.05 -7.4 M0.5 -2.5 L0.45 -2.05 1.65 -0.95 Q3.15 0.15 4.8 0.15 6.55 0.15 8.25 -0.85 9.9 -1.75 9.9 -2.6 L9.75 -2.9 8.55 -2.9 5.45 -2.9 1.2 -3.05 0.95 -2.95 0.5 -2.5 M12.9 -7.9 L12.8 -7.8 12.75 -7.85 12.9 -7.9 M-53.55 0.35 L-53.6 0.3 -53.55 0.25 -53.55 0.35 M-13.5 -2.1 Q-16.7 -4.2 -19.2 -1.55 -19.95 -0.8 -20.8 1.4 -21.6 3.55 -21.6 4.65 -21.55 6.35 -20.1 6.35 -17.75 6.35 -14.1 4.25 -10.65 2.3 -10.65 1.4 -10.65 -0.3 -13.5 -2.1 M-35.0 -3.05 Q-36.8 -3.05 -40.4 -0.8 -44.0 1.4 -44.0 2.45 -44.05 3.05 -43.5 3.05 L-40.5 2.7 -37.8 3.3 Q-35.25 3.65 -33.9 2.45 L-33.3 1.7 -32.85 1.05 -32.1 -0.25 -31.5 -1.85 Q-31.5 -2.6 -32.1 -2.8 L-35.0 -3.05" fill="#e0cbcb" fill-rule="evenodd" stroke="none"/>
    <path d="M0.5 -2.5 L0.95 -2.95 1.2 -3.05 5.45 -2.9 8.55 -2.9 9.75 -2.9 9.9 -2.6 Q9.9 -1.75 8.25 -0.85 6.55 0.15 4.8 0.15 3.15 0.15 1.65 -0.95 L0.45 -2.05 0.5 -2.5 M-53.4 0.45 L-53.55 0.35 -53.55 0.25 -53.6 0.3 Q-55.65 -1.6 -56.9 -2.1 -52.2 -2.9 -50.45 -4.7 -49.7 -5.5 -49.4 -6.65 L-49.2 -8.3 -49.2 -8.35 -49.2 -8.75 -48.45 -7.95 Q-46.5 -5.75 -46.5 -4.35 -46.5 -2.8 -48.5 -1.85 L-53.4 0.45 M-53.6 -6.85 Q-52.55 -7.3 -51.6 -7.85 L-50.4 -8.5 -50.4 -8.35 Q-50.4 -6.0 -52.25 -4.55 L-52.45 -4.4 Q-52.3 -4.75 -52.3 -5.05 -52.3 -5.95 -53.6 -6.85 M-35.0 -3.05 L-32.1 -2.8 Q-31.5 -2.6 -31.5 -1.85 L-32.1 -0.25 -32.85 1.05 -33.3 1.7 -33.9 2.45 Q-35.25 3.65 -37.8 3.3 L-40.5 2.7 -43.5 3.05 Q-44.05 3.05 -44.0 2.45 -44.0 1.4 -40.4 -0.8 -36.8 -3.05 -35.0 -3.05 M-13.5 -2.1 Q-10.65 -0.3 -10.65 1.4 -10.65 2.3 -14.1 4.25 -17.75 6.35 -20.1 6.35 -21.55 6.35 -21.6 4.65 -21.6 3.55 -20.8 1.4 -19.95 -0.8 -19.2 -1.55 -16.7 -4.2 -13.5 -2.1" fill="url(#gradient0)" fill-rule="evenodd" stroke="none"/>
  </g>
  <defs>
    <radialGradient cx="0" cy="0" gradientTransform="matrix(0.0307, 0.0114, -0.0046, 0.0122, -37.8, -1.35)" gradientUnits="userSpaceOnUse" id="gradient0" r="819.2" spreadMethod="pad">
      <stop offset="0.47843137254901963" stop-color="#ffffff"></stop>
      <stop offset="0.8823529411764706" stop-color="#f2eaea"></stop>
    </radialGradient>
  </defs>
</svg>