<?xml version="1.0" encoding="UTF-8" standalone="no"?>
<svg xmlns:xlink="http://www.w3.org/1999/xlink" height="14.5px" width="40.85px" xmlns="http://www.w3.org/2000/svg">
  <g transform="matrix(1.0, 0.0, 0.0, 1.0, 20.4, 7.25)">
    <path d="M-14.6 5.9 L-14.7 5.95 -15.8 6.25 Q-16.8 6.25 -17.9 5.2 -18.8 4.3 -18.9 3.65 L-17.65 2.65 Q-17.0 1.9 -15.8 1.05 L-13.45 -0.3 -11.4 -1.2 -8.95 -1.75 -6.7 -2.05 -4.25 -2.2 -5.85 -1.6 Q-8.9 -0.15 -11.95 2.5 -14.3 4.5 -14.75 5.2 L-14.9 5.55 -14.85 5.65 -14.75 5.8 -14.7 5.85 -14.6 5.9 M-11.95 0.4 L-13.3 0.7 Q-14.65 1.2 -16.15 4.55 -14.75 4.2 -11.95 0.4" fill="#e0cbcb" fill-rule="evenodd" stroke="none"/>
    <path d="M-18.9 3.65 L-18.9 3.5 -18.9 3.4 -18.9 3.35 -18.55 2.95 -18.45 2.8 -18.35 2.65 -18.15 2.15 -18.15 2.1 -17.3 0.75 -12.85 -1.7 Q-9.6 -3.3 -5.45 -4.35 L-3.55 -4.8 1.35 -5.1 6.75 -4.45 12.45 -3.75 2.45 -3.2 2.0 -3.15 -3.45 -2.45 -4.25 -2.2 -6.7 -2.05 -8.95 -1.75 -11.4 -1.2 -13.45 -0.3 -15.8 1.05 Q-17.0 1.9 -17.65 2.65 L-18.9 3.65" fill="url(#gradient0)" fill-rule="evenodd" stroke="none"/>
    <path d="M-18.9 3.4 L-19.05 3.5 -19.4 3.05 Q-19.4 0.7 -17.25 -0.75 -16.2 -1.45 -10.2 -4.05 L-8.3 -4.8 -6.25 -5.45 0.1 -6.25 6.7 -5.55 13.2 -4.75 Q15.35 -4.75 19.0 -5.7 L19.4 -5.6 19.45 -5.3 Q19.45 -4.4 14.5 -3.25 9.5 -2.1 5.55 -2.1 0.45 -2.1 -3.45 -0.9 -6.8 0.1 -9.3 1.95 -10.45 2.75 -12.4 4.7 -13.65 5.95 -14.3 5.95 L-14.6 5.9 -14.7 5.85 -14.75 5.8 -14.85 5.65 -14.9 5.55 -14.75 5.2 Q-14.3 4.5 -11.95 2.5 -8.9 -0.15 -5.85 -1.6 L-4.25 -2.2 -3.45 -2.45 2.0 -3.15 2.45 -3.2 12.45 -3.75 6.75 -4.45 1.35 -5.1 -3.55 -4.8 -5.45 -4.35 Q-9.6 -3.3 -12.85 -1.7 L-17.3 0.75 -18.15 2.1 -18.35 2.65 -18.45 2.8 -18.55 2.95 -18.9 3.35 -18.9 3.4 M-11.95 0.4 Q-14.75 4.2 -16.15 4.55 -14.65 1.2 -13.3 0.7 L-11.95 0.4" fill="#a36a6a" fill-rule="evenodd" stroke="none"/>
  </g>
  <defs>
    <radialGradient cx="0" cy="0" gradientTransform="matrix(0.0114, -0.0198, 0.0122, 0.007, -39.0, 8.35)" gradientUnits="userSpaceOnUse" id="gradient0" r="819.2" spreadMethod="pad">
      <stop offset="0.47843137254901963" stop-color="#ffffff"></stop>
      <stop offset="0.8823529411764706" stop-color="#f2eaea"></stop>
    </radialGradient>
  </defs>
</svg>