<?xml version="1.0" encoding="UTF-8" standalone="no"?>
<svg xmlns:xlink="http://www.w3.org/1999/xlink" height="29.75px" width="27.95px" xmlns="http://www.w3.org/2000/svg">
  <g transform="matrix(1.0, 0.0, 0.0, 1.0, -1.4, 13.3)">
    <path d="M17.65 -10.55 L18.55 -8.25 Q18.9 -7.35 18.8 -5.95 L18.65 -3.7 Q18.65 -2.05 19.3 -0.5 20.15 1.65 21.85 2.35 L21.85 2.45 21.65 2.5 Q20.05 2.5 18.8 0.6 17.85 -0.75 17.7 -1.8 17.4 -3.2 17.65 -6.1 L17.2 -9.4 Q16.6 -11.7 15.7 -12.15 L15.7 -12.3 Q16.95 -11.9 17.65 -10.55 M22.15 -4.0 L22.45 -3.6 22.65 -3.05 22.6 -2.75 22.3 -2.65 Q21.95 -2.65 21.85 -3.0 L21.8 -3.4 21.85 -3.6 22.15 -4.0 M27.9 -2.35 Q28.35 -2.65 28.35 -1.0 28.35 0.45 27.85 1.6 27.35 2.8 26.05 4.25 L25.85 4.25 27.5 1.35 27.45 -0.55 Q27.45 -2.0 27.9 -2.35 M23.65 5.45 L23.75 5.65 22.3 6.25 20.4 6.55 20.05 6.25 20.1 5.95 18.9 5.5 Q18.4 5.25 18.4 4.9 18.4 4.15 20.8 4.7 L23.65 5.45" fill="#ffffff" fill-rule="evenodd" stroke="none"/>
    <path d="M2.85 11.8 L2.95 11.6 Q4.55 13.1 5.35 15.0 4.75 15.55 3.85 15.4 L3.2 14.8 2.4 11.85 2.45 11.75 2.85 11.8" fill="#ffffff" fill-opacity="0.49803922" fill-rule="evenodd" stroke="none"/>
  </g>
</svg>