<?xml version="1.0" encoding="UTF-8" standalone="no"?>
<svg xmlns:xlink="http://www.w3.org/1999/xlink" height="29.15px" width="76.1px" xmlns="http://www.w3.org/2000/svg">
  <g transform="matrix(1.0, 0.0, 0.0, 1.0, 36, 15.95)">
    <path d="M10.6 -14.0 L10.45 -13.65 10.05 -12.2 10.05 -12.05 Q9.85 -11.4 9.45 -10.9 L8.2 -9.6 7.8 -10.2 7.55 -10.5 7.3 -10.75 7.8 -11.2 9.3 -12.6 10.5 -14.2 10.6 -14.0 M6.65 -10.4 L6.8 -10.25 6.9 -10.05 6.95 -10.0 7.2 -9.65 7.75 -8.85 9.25 -8.75 9.7 -8.75 9.1 -8.45 Q7.5 -7.6 7.5 -6.25 L7.55 -6.1 8.15 -5.75 9.15 -5.05 Q9.65 -4.1 11.35 -3.2 14.5 -1.5 19.9 -1.5 22.65 -1.5 23.1 -2.4 L29.05 -3.05 Q26.8 -3.1 25.05 -4.05 23.15 -5.0 23.15 -6.3 L23.35 -8.65 23.35 -8.8 23.65 -8.45 23.75 -8.35 24.0 -8.05 25.35 -6.8 Q26.3 -6.15 27.45 -5.65 28.05 -5.25 28.8 -4.95 L29.75 -4.75 32.0 -4.25 33.05 -4.25 33.05 -4.2 33.8 -4.2 34.65 -4.15 34.85 -4.15 35.45 -4.1 36.4 -4.0 34.4 -3.35 32.55 -2.85 30.95 -2.4 28.05 -1.7 26.6 -1.45 25.15 -1.2 23.7 -1.05 22.3 -0.9 20.8 -0.75 19.4 -0.7 17.95 -0.7 15.4 -0.9 13.1 -1.4 12.1 -1.7 10.35 -2.85 8.9 -4.1 7.75 -5.1 7.3 -5.6 6.65 -6.25 6.35 -6.6 5.55 -7.85 5.3 -8.15 4.85 -8.8 5.35 -9.05 Q6.5 -9.5 6.55 -9.95 L6.65 -10.4 M4.25 -8.35 L4.35 -8.1 4.4 -8.0 4.4 -7.95 4.25 -8.3 4.25 -8.35 M-5.2 1.15 L-5.8 2.05 Q-6.5 2.9 -6.5 3.7 L-6.5 3.9 Q-6.4 6.25 -3.9 7.8 L-1.45 8.95 -1.1 9.05 3.25 10.1 3.35 10.15 3.7 10.2 3.9 10.25 4.2 10.3 4.35 10.3 4.65 10.35 4.35 10.5 2.65 10.9 -1.2 11.15 Q-15.5 11.15 -24.6 8.4 -33.9 5.55 -33.9 0.95 L-33.9 0.85 -33.6 0.15 -32.9 -0.6 -33.0 -0.2 Q-33.0 2.3 -31.2 3.45 L-29.8 4.1 -29.75 4.1 -27.0 5.5 -26.9 5.55 -23.5 6.7 -23.4 6.7 -23.3 6.75 Q-14.8 9.25 -11.65 9.45 L-9.95 9.65 -10.2 9.45 -10.15 9.45 -6.4 9.95 -1.9 9.6 -4.4 9.05 Q-10.2 7.6 -10.2 6.05 -10.2 4.95 -7.7 2.9 L-5.2 1.15 M-26.8 -4.2 Q-25.7 -4.95 -25.7 -5.25 L-25.85 -6.1 -25.85 -6.2 -25.95 -6.45 -26.0 -6.6 -25.05 -6.35 -23.95 -6.4 -23.5 -6.4 -23.55 -6.25 -23.7 -5.45 -23.7 -5.35 -23.7 -5.3 -23.5 -4.6 -23.1 -4.0 -23.15 -4.0 -23.3 -4.05 -25.0 -4.45 -26.8 -4.2 M-26.9 -6.45 L-27.25 -5.9 -27.25 -6.0 -26.9 -6.45 M-20.1 -8.55 L-20.45 -7.6 -20.5 -7.4 -20.7 -6.85 Q-21.3 -5.3 -22.6 -4.4 L-22.7 -4.55 Q-22.85 -4.9 -22.45 -6.05 L-22.4 -6.15 -22.35 -6.35 -22.3 -6.6 -20.95 -7.8 -20.05 -8.8 -20.1 -8.55" fill="#cca9a9" fill-rule="evenodd" stroke="none"/>
    <path d="M10.6 -14.0 L10.65 -14.1 10.85 -13.05 10.7 -11.45 10.05 -9.75 13.1 -10.3 15.0 -10.85 15.75 -11.1 17.9 -11.65 19.3 -11.65 20.9 -11.45 22.6 -10.7 24.05 -9.6 25.15 -8.5 26.65 -7.2 Q27.45 -6.6 28.45 -6.25 29.25 -5.9 30.05 -5.7 L34.25 -5.1 35.75 -4.95 37.35 -4.8 39.1 -4.7 38.5 -4.3 36.85 -3.45 34.7 -2.55 32.75 -1.9 31.2 -1.45 28.75 -0.9 27.1 -0.55 26.35 -0.4 24.8 -0.15 23.35 0.15 21.9 0.3 19.75 0.35 17.45 0.35 15.55 0.3 13.75 -0.05 12.15 -0.5 10.75 -1.2 Q9.35 -1.85 8.25 -2.85 L7.25 -3.95 6.4 -5.1 5.7 -6.1 5.35 -6.45 4.35 -6.3 2.45 -6.35 Q1.7 -6.65 1.1 -7.1 L0.1 -8.05 0.3 -8.0 0.9 -7.95 2.1 -7.6 2.4 -7.55 3.9 -7.2 4.65 -7.55 4.4 -8.0 4.35 -8.1 4.25 -8.35 4.05 -8.9 4.05 -9.45 4.75 -8.9 4.85 -8.8 5.3 -8.15 5.55 -7.85 6.35 -6.6 6.65 -6.25 7.3 -5.6 7.75 -5.1 8.9 -4.1 10.35 -2.85 12.1 -1.7 13.1 -1.4 15.4 -0.9 17.95 -0.7 19.4 -0.7 20.8 -0.75 22.3 -0.9 23.7 -1.05 25.15 -1.2 26.6 -1.45 28.05 -1.7 30.95 -2.4 32.55 -2.85 34.4 -3.35 36.4 -4.0 35.45 -4.1 34.85 -4.15 34.65 -4.15 33.8 -4.2 33.05 -4.25 32.0 -4.25 29.75 -4.75 28.8 -4.95 Q28.05 -5.25 27.45 -5.65 26.3 -6.15 25.35 -6.8 L24.0 -8.05 23.75 -8.35 23.65 -8.45 23.35 -8.8 22.25 -9.95 21.05 -10.6 19.15 -10.7 17.9 -10.65 17.05 -10.45 15.75 -10.05 12.2 -9.1 10.65 -8.75 9.7 -8.75 9.25 -8.75 7.75 -8.85 7.2 -9.65 6.95 -10.0 6.9 -10.05 6.8 -10.25 6.65 -10.4 6.15 -11.1 6.95 -11.1 7.3 -10.75 7.55 -10.5 7.8 -10.2 8.2 -9.6 9.45 -10.9 Q9.85 -11.4 10.05 -12.05 L10.05 -12.2 10.45 -13.65 10.6 -14.0 M-33.6 0.15 L-33.9 0.85 -33.9 0.95 Q-33.9 5.55 -24.6 8.4 -15.5 11.15 -1.2 11.15 L2.65 10.9 4.35 10.5 4.65 10.35 4.35 10.3 4.2 10.3 3.9 10.25 3.7 10.2 3.35 10.15 3.25 10.1 -1.1 9.05 -1.45 8.95 -3.9 7.8 Q-6.4 6.25 -6.5 3.9 L-6.5 3.7 Q-6.5 2.9 -5.8 2.05 L-5.2 1.15 -5.1 0.55 Q-5.1 -0.75 -8.0 -1.2 L-14.4 -1.65 Q-21.45 -2.05 -23.15 -4.0 L-23.1 -4.0 -23.5 -4.6 -23.7 -5.3 -23.7 -5.35 -23.7 -5.45 -23.55 -6.25 -23.5 -6.4 -23.4 -7.35 -22.8 -7.35 -22.3 -6.6 -22.35 -6.35 -22.4 -6.15 -22.45 -6.05 Q-22.85 -4.9 -22.7 -4.55 L-22.6 -4.4 Q-21.3 -5.3 -20.7 -6.85 L-20.5 -7.4 -20.45 -7.6 -20.1 -8.55 -19.95 -9.05 -19.85 -9.35 Q-19.6 -9.15 -19.3 -8.2 L-19.05 -7.2 Q-19.05 -6.8 -20.1 -5.45 -21.15 -4.0 -22.05 -3.9 -20.0 -2.7 -11.4 -2.4 L-5.6 -1.6 Q-3.9 -0.9 -3.9 1.15 -3.9 1.7 -4.5 2.6 L-5.15 3.75 Q-5.15 6.5 0.45 8.2 6.0 9.85 6.0 10.5 6.0 11.0 3.5 11.55 L-3.3 12.2 Q-16.55 12.2 -25.55 9.15 -35.0 5.95 -35.0 0.9 -35.0 -1.2 -31.1 -3.25 L-29.45 -4.15 -30.55 -5.25 Q-31.1 -6.15 -31.1 -6.8 L-31.05 -7.35 -30.75 -7.3 -30.2 -6.9 -30.05 -6.3 -30.0 -6.15 -29.0 -5.25 -28.45 -4.8 Q-27.65 -5.4 -27.25 -5.9 L-26.9 -6.45 -26.85 -6.75 -26.45 -6.9 -25.95 -6.45 -25.85 -6.2 -25.85 -6.1 -25.7 -5.25 Q-25.7 -4.95 -26.8 -4.2 L-29.8 -2.6 Q-32.85 -1.05 -33.6 0.15" fill="#a36a6a" fill-rule="evenodd" stroke="none"/>
    <path d="M7.3 -10.75 L6.95 -11.1 6.15 -11.1 6.65 -10.4 6.55 -9.95 Q6.5 -9.5 5.35 -9.05 L4.85 -8.8 4.75 -8.9 4.05 -9.45 4.05 -8.9 4.25 -8.35 4.25 -8.3 4.4 -7.95 4.4 -8.0 4.65 -7.55 3.9 -7.2 2.4 -7.55 2.1 -7.6 0.9 -7.95 0.3 -8.0 0.15 -8.4 0.0 -9.6 Q0.0 -12.8 5.4 -14.4 9.5 -15.6 10.5 -14.2 L9.3 -12.6 7.8 -11.2 7.3 -10.75 M9.7 -8.75 L10.65 -8.75 12.2 -9.1 15.75 -10.05 17.05 -10.45 17.9 -10.65 19.15 -10.7 21.05 -10.6 22.25 -9.95 23.35 -8.8 23.35 -8.65 23.15 -6.3 Q23.15 -5.0 25.05 -4.05 26.8 -3.1 29.05 -3.05 L23.1 -2.4 23.15 -2.75 Q18.6 -6.25 16.35 -6.9 11.95 -8.4 10.15 -7.85 8.9 -7.5 8.9 -6.0 L9.15 -5.05 8.15 -5.75 7.55 -6.1 7.5 -6.25 Q7.5 -7.6 9.1 -8.45 L9.7 -8.75 M33.05 -4.25 L33.8 -4.2 33.05 -4.2 33.05 -4.25 M3.45 -10.65 L4.35 -11.3 4.35 -11.55 3.55 -11.4 Q3.15 -11.15 3.15 -10.7 L3.45 -10.65 M22.3 -2.75 L22.35 -2.75 22.25 -2.7 22.3 -2.75 M-33.6 0.15 Q-32.85 -1.05 -29.8 -2.6 L-26.8 -4.2 -25.0 -4.45 -23.3 -4.05 -23.15 -4.0 Q-21.45 -2.05 -14.4 -1.65 L-8.0 -1.2 Q-5.1 -0.75 -5.1 0.55 L-5.2 1.15 -7.7 2.9 Q-10.2 4.95 -10.2 6.05 -10.2 7.6 -4.4 9.05 L-1.9 9.6 -6.4 9.95 -10.15 9.45 Q-10.65 9.05 -11.45 8.6 -12.6 7.95 -12.6 7.25 -12.6 6.7 -11.8 5.65 -11.0 4.6 -11.0 3.95 -11.0 2.3 -15.45 0.6 -18.6 -0.6 -23.1 -1.55 L-25.3 -2.75 Q-27.05 -3.45 -28.5 -2.1 L-30.95 -0.05 Q-31.8 0.6 -31.8 1.45 -31.8 2.8 -29.8 4.1 L-31.2 3.45 Q-33.0 2.3 -33.0 -0.2 L-32.9 -0.6 -33.6 0.15 M-25.95 -6.45 L-26.45 -6.9 -26.85 -6.75 -26.9 -6.45 -27.25 -6.0 -27.25 -5.9 Q-27.65 -5.4 -28.45 -4.8 L-29.0 -5.25 -30.0 -6.15 -30.05 -6.3 -30.2 -6.9 -30.75 -7.3 -30.75 -7.35 Q-30.75 -11.15 -25.15 -10.95 -22.95 -10.9 -21.3 -10.05 L-19.95 -9.05 -20.1 -8.55 -20.05 -8.8 -20.95 -7.8 -22.3 -6.6 -22.8 -7.35 -23.4 -7.35 -23.5 -6.4 -23.95 -6.4 -25.05 -6.35 -26.0 -6.6 -25.95 -6.45 M-28.4 -8.45 Q-28.35 -7.2 -27.5 -7.2 -24.45 -7.2 -24.45 -8.7 -24.45 -9.75 -26.4 -9.75 -28.4 -9.75 -28.4 -8.45" fill="#e0cbcb" fill-rule="evenodd" stroke="none"/>
    <path d="M9.15 -5.05 L8.9 -6.0 Q8.9 -7.5 10.15 -7.85 11.95 -8.4 16.35 -6.9 18.6 -6.25 23.15 -2.75 L23.1 -2.4 Q22.65 -1.5 19.9 -1.5 14.5 -1.5 11.35 -3.2 9.65 -4.1 9.15 -5.05 M3.45 -10.65 L3.15 -10.7 Q3.15 -11.15 3.55 -11.4 L4.35 -11.55 4.35 -11.3 3.45 -10.65 M22.3 -2.75 L22.25 -2.7 22.35 -2.75 22.3 -2.75 M-10.15 9.45 L-10.2 9.45 -9.95 9.65 -11.65 9.45 Q-14.8 9.25 -23.3 6.75 L-23.4 6.7 -23.5 6.7 -26.9 5.55 -27.0 5.5 -29.75 4.1 -29.8 4.1 Q-31.8 2.8 -31.8 1.45 -31.8 0.6 -30.95 -0.05 L-28.5 -2.1 Q-27.05 -3.45 -25.3 -2.75 L-23.1 -1.55 Q-18.6 -0.6 -15.45 0.6 -11.0 2.3 -11.0 3.95 -11.0 4.6 -11.8 5.65 -12.6 6.7 -12.6 7.25 -12.6 7.95 -11.45 8.6 -10.65 9.05 -10.15 9.45 M-28.4 -8.45 Q-28.4 -9.75 -26.4 -9.75 -24.45 -9.75 -24.45 -8.7 -24.45 -7.2 -27.5 -7.2 -28.35 -7.2 -28.4 -8.45" fill="url(#gradient0)" fill-rule="evenodd" stroke="none"/>
  </g>
  <defs>
    <radialGradient cx="0" cy="0" gradientTransform="matrix(0.0307, 0.0114, -0.0046, 0.0122, -29.1, 6.3)" gradientUnits="userSpaceOnUse" id="gradient0" r="819.2" spreadMethod="pad">
      <stop offset="0.47843137254901963" stop-color="#ffffff"></stop>
      <stop offset="0.8823529411764706" stop-color="#f2eaea"></stop>
    </radialGradient>
  </defs>
</svg>