<?xml version="1.0" encoding="UTF-8" standalone="no"?>
<svg xmlns:xlink="http://www.w3.org/1999/xlink" height="25.45px" width="55px" xmlns="http://www.w3.org/2000/svg">
  <g transform="matrix(1.0, 0.0, 0.0, 1.0, 28.4, 8.9)">
    <path d="M17.85 -6.6 L25.6 -5.15 25.55 -4.95 25.4 -4.9 Q16.3 -6.15 13.75 -6.9 L14.55 -6.95 15.9 -6.75 17.85 -6.6 M10.3 -7.1 Q9.65 -7.35 9.65 -7.55 9.65 -8.1 11.25 -7.8 12.8 -7.45 12.8 -7.05 L12.35 -6.8 10.3 -7.1 M-9.85 15.4 L-9.8 15.45 -10.0 15.55 Q-11.4 15.55 -13.75 14.65 -15.95 13.8 -15.95 13.45 -15.95 13.15 -13.0 14.2 L-9.85 15.4 M-18.35 13.1 L-23.5 10.65 -23.45 10.4 Q-22.95 10.1 -20.45 11.0 -17.95 11.95 -17.95 12.7 -17.95 13.1 -18.35 13.1 M-26.85 8.75 L-24.2 9.85 Q-24.2 10.3 -25.25 10.3 L-27.0 9.7 Q-27.9 9.35 -26.85 8.75" fill="#ffffff" fill-rule="evenodd" stroke="none"/>
  </g>
</svg>