<?xml version="1.0" encoding="UTF-8" standalone="no"?>
<svg xmlns:xlink="http://www.w3.org/1999/xlink" height="20.05px" width="47.95px" xmlns="http://www.w3.org/2000/svg">
  <g transform="matrix(1.0, 0.0, 0.0, 1.0, 38.7, 7.6)">
    <path d="M1.45 -6.6 L2.9 -4.5 Q3.8 -3.3 5.05 -2.45 L5.05 -2.35 4.85 -2.2 Q3.65 -2.2 1.25 -6.2 L1.35 -6.6 1.45 -6.6 M8.25 -1.1 L8.2 -0.95 7.95 -0.85 Q6.65 -1.4 6.6 -1.45 6.65 -1.85 7.25 -1.65 L8.25 -1.1 M-8.45 11.25 Q-8.45 11.45 -9.05 11.45 L-9.8 11.2 -9.65 11.0 -8.55 11.05 -8.45 11.25 M-16.3 10.7 L-12.85 11.0 -11.8 11.2 -11.85 11.3 -16.35 10.7 -16.3 10.7 M-26.1 8.95 L-28.4 8.4 Q-29.95 7.75 -30.45 7.7 -32.0 7.45 -33.45 6.15 -32.25 6.25 -25.9 8.9 L-26.1 8.95 M-34.7 5.8 L-34.95 5.9 Q-35.35 5.9 -35.75 5.3 -35.75 4.9 -35.4 4.95 -35.05 5.0 -34.65 5.6 L-34.7 5.8 M-36.3 4.35 L-36.35 4.75 -36.65 4.85 Q-37.1 4.85 -37.7 3.0 -37.7 0.05 -33.5 -1.35 -37.05 1.0 -37.05 2.55 L-36.3 4.35" fill="#ffffff" fill-rule="evenodd" stroke="none"/>
  </g>
</svg>