<?xml version="1.0" encoding="UTF-8" standalone="no"?>
<svg xmlns:xlink="http://www.w3.org/1999/xlink" height="20.75px" width="60.7px" xmlns="http://www.w3.org/2000/svg">
  <g transform="matrix(1.0, 0.0, 0.0, 1.0, 39.3, 10.3)">
    <path d="M8.1 -8.1 L8.0 -7.8 7.2 -7.8 7.05 -8.25 Q7.45 -8.55 8.0 -8.25 L8.1 -8.1 M4.75 -9.25 Q5.6 -9.1 5.6 -8.45 5.6 -7.85 5.0 -7.85 4.3 -7.85 4.05 -8.3 3.9 -8.55 3.9 -8.75 3.9 -9.4 4.75 -9.25 M19.2 -4.65 Q19.2 -5.15 19.8 -5.15 20.4 -5.15 20.4 -4.65 20.4 -4.2 19.85 -4.2 19.2 -4.2 19.2 -4.65 M-37.55 -6.75 Q-38.45 -6.75 -38.25 -7.8 -38.25 -8.7 -37.6 -8.6 -36.95 -8.5 -36.95 -7.65 -36.95 -6.75 -37.55 -6.75 M-1.1 8.6 L-1.3 9.15 -1.7 9.45 Q-2.35 9.45 -2.25 8.85 -2.25 8.15 -1.2 8.3 L-1.1 8.6 M-13.45 8.7 Q-14.35 8.7 -14.1 8.1 -14.1 7.6 -13.25 7.6 -12.45 7.6 -12.45 8.1 L-12.75 8.65 -13.45 8.7 M-24.05 1.8 Q-23.4 1.8 -23.1 2.25 L-22.95 2.7 Q-22.95 3.3 -23.45 3.3 -24.8 3.3 -24.9 2.4 -24.9 1.8 -24.05 1.8" fill="#ffffff" fill-rule="evenodd" stroke="none"/>
  </g>
</svg>