<?xml version="1.0" encoding="UTF-8" standalone="no"?>
<svg xmlns:xlink="http://www.w3.org/1999/xlink" height="39.7px" width="87.05px" xmlns="http://www.w3.org/2000/svg">
  <g transform="matrix(1.0, 0.0, 0.0, 1.0, 42.6, 18.2)">
    <use data-characterId="1464" height="33.05" transform="matrix(1.0, 0.0, 0.0, 1.0, -38.9, -11.55)" width="83.35" xlink:href="#shape0"/>
    <use data-characterId="1466" height="21.9" transform="matrix(1.0, 0.0, 0.0, 1.0, -40.5, -14.3)" width="52.85" xlink:href="#sprite0"/>
    <use data-characterId="1468" height="18.85" transform="matrix(1.0, 0.0, 0.0, 1.0, -42.6, -18.2)" width="50.65" xlink:href="#sprite1"/>
  </g>
  <defs>
    <g id="shape0" transform="matrix(1.0, 0.0, 0.0, 1.0, 38.9, 11.55)">
      <path d="M9.8 -10.2 L8.45 -9.45 Q7.4 -8.6 7.4 -8.2 7.4 -7.35 11.65 -6.6 L18.55 -5.8 25.3 -4.9 35.05 -4.0 Q35.9 -4.0 36.5 -4.4 L36.6 -4.45 36.1 -4.6 42.5 -2.95 35.85 -2.85 27.6 -3.25 27.6 -3.35 27.15 -4.1 Q26.65 -4.7 26.65 -4.0 L26.8 -3.55 26.95 -3.3 24.25 -3.55 Q24.05 -3.8 24.0 -4.2 L23.8 -5.0 Q23.55 -4.8 23.55 -4.0 L23.6 -3.6 20.45 -3.9 11.2 -4.9 10.9 -5.25 Q10.4 -5.85 10.4 -6.45 L10.35 -6.75 Q10.05 -6.6 10.05 -5.9 L10.15 -5.1 10.15 -5.05 9.95 -5.1 7.15 -5.55 Q6.7 -6.35 6.7 -6.85 L7.15 -8.05 7.05 -8.15 6.35 -7.3 6.25 -6.45 6.4 -5.7 5.2 -5.95 4.85 -6.0 4.85 -7.65 5.5 -8.75 Q6.7 -9.95 8.4 -10.6 L9.3 -10.3 9.8 -10.2 M-25.0 2.95 L-30.1 3.3 -32.85 3.65 Q-34.25 4.0 -34.15 4.8 L-34.15 4.9 Q-33.95 6.2 -32.25 7.1 L-29.2 8.75 -26.2 10.2 -22.4 11.7 -18.15 13.2 -14.75 14.35 -13.0 14.9 Q-12.55 15.05 -11.6 15.35 L-9.05 16.15 -4.4 17.45 -0.15 18.25 Q1.25 18.25 1.4 17.5 L1.45 17.15 1.95 17.5 2.5 17.95 4.9 20.3 2.4 20.3 Q-3.25 19.75 -9.15 18.45 L-11.4 17.9 -11.7 16.3 -11.95 16.2 -12.0 17.6 -13.4 17.05 -13.15 15.95 -13.8 16.95 -15.55 16.65 -19.85 15.35 -26.45 13.4 Q-30.2 12.3 -32.95 10.75 L-33.15 9.85 -32.9 8.9 -33.0 8.8 Q-33.6 9.0 -33.6 10.0 L-33.6 10.35 -34.7 9.65 -34.9 8.65 -34.8 8.0 -34.85 7.85 -35.25 8.55 -35.35 9.2 -35.95 8.7 -36.2 8.45 -37.0 7.75 -37.7 7.0 -37.95 6.7 -38.15 6.45 -38.5 5.9 Q-37.55 3.75 -34.75 2.35 -32.8 1.45 -30.55 1.45 L-28.6 1.3 -28.55 1.3 -26.35 2.35 Q-26.05 2.45 -25.7 2.65 L-25.45 2.75 -25.0 2.95 M-33.7 7.1 L-33.4 6.75 Q-33.4 6.45 -33.7 6.55 L-33.8 6.6 -33.95 6.65 -34.1 6.75 -34.45 7.0 -34.55 7.2 -34.3 7.45 -34.0 7.35 -33.7 7.1" fill="#e0cbcb" fill-rule="evenodd" stroke="none"/>
      <path d="M36.1 -4.6 L35.8 -4.7 34.95 -4.9 34.3 -5.1 25.3 -7.5 11.35 -9.95 10.75 -10.05 10.25 -10.1 9.8 -10.2 9.3 -10.3 8.4 -10.6 11.0 -11.2 12.15 -11.35 12.35 -11.55 13.75 -11.3 Q22.15 -9.85 28.45 -8.05 L37.05 -5.7 Q44.45 -3.55 44.45 -2.85 L44.15 -2.05 Q43.85 -1.75 43.4 -1.75 L39.55 -1.75 36.4 -1.7 10.15 -3.8 4.85 -4.7 4.85 -6.0 5.2 -5.95 6.4 -5.7 6.25 -6.45 6.35 -7.3 7.05 -8.15 7.15 -8.05 6.7 -6.85 Q6.7 -6.35 7.15 -5.55 L9.95 -5.1 10.15 -5.05 10.15 -5.1 10.05 -5.9 Q10.05 -6.6 10.35 -6.75 L10.4 -6.45 Q10.4 -5.85 10.9 -5.25 L11.2 -4.9 20.45 -3.9 23.6 -3.6 23.55 -4.0 Q23.55 -4.8 23.8 -5.0 L24.0 -4.2 Q24.05 -3.8 24.25 -3.55 L26.95 -3.3 26.8 -3.55 26.65 -4.0 Q26.65 -4.7 27.15 -4.1 L27.6 -3.35 27.6 -3.25 35.85 -2.85 42.5 -2.95 36.1 -4.6 M-25.0 2.95 L-25.45 2.75 -25.7 2.65 Q-26.05 2.45 -26.35 2.35 L-28.55 1.3 -25.5 1.0 -12.35 7.7 Q4.5 16.3 6.05 19.65 6.4 19.85 6.35 20.55 L6.25 21.15 4.1 21.5 -5.3 20.4 -8.85 19.75 -12.35 18.9 -16.5 17.75 -21.05 16.4 -27.55 14.35 Q-33.6 12.2 -36.7 9.8 L-37.6 9.05 -37.85 8.8 -37.95 8.7 -38.05 8.6 -38.15 8.5 -38.9 7.6 -38.5 5.9 -38.15 6.45 -37.95 6.7 -37.7 7.0 -37.0 7.75 -36.2 8.45 -35.95 8.7 -35.35 9.2 -35.25 8.55 -34.85 7.85 -34.8 8.0 -34.9 8.65 -34.7 9.65 -33.6 10.35 -33.6 10.0 Q-33.6 9.0 -33.0 8.8 L-32.9 8.9 -33.15 9.85 -32.95 10.75 Q-30.2 12.3 -26.45 13.4 L-19.85 15.35 -15.55 16.65 -13.8 16.95 -13.15 15.95 -13.4 17.05 -12.0 17.6 -11.95 16.2 -11.7 16.3 -11.4 17.9 -9.15 18.45 Q-3.25 19.75 2.4 20.3 L4.9 20.3 2.5 17.95 1.95 17.5 1.45 17.15 0.8 16.65 0.0 16.1 -1.1 15.4 -1.15 15.4 -2.75 15.3 -5.45 15.55 -7.15 15.8 -7.5 15.8 -8.35 15.8 -8.25 15.75 -7.95 15.55 Q-6.35 14.75 -2.3 14.75 L-2.25 14.75 -12.25 9.15 Q-13.5 8.45 -17.25 6.6 L-18.6 5.95 Q-20.6 5.15 -22.85 4.9 L-27.15 5.4 -28.45 5.5 Q-26.45 4.55 -24.75 4.45 L-22.05 4.35 -22.0 4.35 -23.75 3.5 -25.0 2.95 M-33.7 7.1 L-34.0 7.35 -34.3 7.45 -34.55 7.2 -34.45 7.0 -34.1 6.75 -33.95 6.65 -33.8 6.6 -33.7 6.55 Q-33.4 6.45 -33.4 6.75 L-33.7 7.1" fill="#a36a6a" fill-rule="evenodd" stroke="none"/>
      <path d="M36.1 -4.6 L36.6 -4.45 36.5 -4.4 Q35.9 -4.0 35.05 -4.0 L25.3 -4.9 18.55 -5.8 11.65 -6.6 Q7.4 -7.35 7.4 -8.2 7.4 -8.6 8.45 -9.45 L9.8 -10.2 10.25 -10.1 10.75 -10.05 11.35 -9.95 25.3 -7.5 34.3 -5.1 34.95 -4.9 35.8 -4.7 36.1 -4.6 M1.45 17.15 L1.4 17.5 Q1.25 18.25 -0.15 18.25 L-4.4 17.45 -9.05 16.15 -11.6 15.35 Q-12.55 15.05 -13.0 14.9 L-14.75 14.35 -18.15 13.2 -22.4 11.7 -26.2 10.2 -29.2 8.75 -32.25 7.1 Q-33.95 6.2 -34.15 4.9 L-34.15 4.8 Q-34.25 4.0 -32.85 3.65 L-30.1 3.3 -25.0 2.95 -23.75 3.5 -22.0 4.35 -22.05 4.35 -24.75 4.45 Q-26.45 4.55 -28.45 5.5 L-27.15 5.4 -22.85 4.9 Q-20.6 5.15 -18.6 5.95 L-17.25 6.6 Q-13.5 8.45 -12.25 9.15 L-2.25 14.75 -2.3 14.75 Q-6.35 14.75 -7.95 15.55 L-8.25 15.75 -8.35 15.8 -7.5 15.8 -7.15 15.8 -5.45 15.55 -2.75 15.3 -1.15 15.4 -1.1 15.4 0.0 16.1 0.8 16.65 1.45 17.15" fill="url(#gradient0)" fill-rule="evenodd" stroke="none"/>
    </g>
    <radialGradient cx="0" cy="0" gradientTransform="matrix(0.0256, 0.0095, -0.0034, 0.0092, -22.3, 12.7)" gradientUnits="userSpaceOnUse" id="gradient0" r="819.2" spreadMethod="pad">
      <stop offset="0.47843137254901963" stop-color="#ffffff"/>
      <stop offset="0.8823529411764706" stop-color="#f2eaea"/>
    </radialGradient>
    <g id="sprite0" transform="matrix(1.0, 0.0, 0.0, 1.0, 26.45, 10.95)">
      <use data-characterId="1465" height="21.9" transform="matrix(1.0, 0.0, 0.0, 1.0, -26.45, -10.95)" width="52.85" xlink:href="#shape1"/>
    </g>
    <g id="shape1" transform="matrix(1.0, 0.0, 0.0, 1.0, 26.45, 10.95)">
      <path d="M20.7 -10.75 L21.35 -10.75 21.4 -10.85 21.65 -10.95 22.0 -10.95 21.8 -9.35 Q21.8 -9.05 25.75 -8.3 L26.4 -8.2 26.2 -8.0 25.05 -7.85 22.45 -7.25 21.9 -7.45 21.35 -7.8 20.5 -8.95 20.45 -9.15 20.45 -9.3 20.7 -10.75 M18.9 -2.65 L18.9 -1.35 18.85 -1.35 Q13.75 -2.55 13.65 -4.25 L13.5 -5.85 14.0 -6.25 14.55 -6.65 14.7 -5.55 14.75 -5.05 14.85 -4.7 14.85 -4.65 14.95 -4.4 15.1 -4.2 Q15.6 -3.5 16.95 -3.1 L17.3 -3.0 18.9 -2.65 M-17.9 -0.1 L-16.6 -0.3 -16.6 0.1 -16.85 1.6 -11.45 4.35 -14.5 4.65 -14.55 4.65 -15.8 3.95 Q-15.95 3.85 -16.05 3.8 L-16.5 3.55 Q-18.1 2.45 -18.1 1.6 L-18.05 1.35 -18.05 1.25 -18.05 1.15 -17.9 -0.1 M-24.45 9.25 L-24.85 10.95 Q-26.45 8.85 -26.45 6.45 L-26.05 4.0 -25.7 3.65 -24.6 2.8 -24.85 4.0 -25.05 5.05 -25.3 6.35 Q-25.3 7.8 -24.45 9.25" fill="#a36a6a" fill-opacity="0.6" fill-rule="evenodd" stroke="none"/>
      <path d="M14.55 -6.65 Q17.65 -8.9 20.5 -10.75 L20.7 -10.75 20.45 -9.3 20.45 -9.15 20.5 -8.95 21.35 -7.8 21.9 -7.45 20.95 -7.35 19.0 -6.8 Q18.15 -6.4 17.75 -5.85 17.3 -5.2 17.05 -3.65 L16.95 -3.1 Q15.6 -3.5 15.1 -4.2 L14.95 -4.4 14.85 -4.65 14.85 -4.7 14.8 -4.95 14.75 -5.15 14.7 -5.55 14.55 -6.65 M-24.6 2.8 Q-21.6 0.55 -17.9 -0.1 L-18.05 1.15 -18.05 1.25 -18.05 1.35 -18.1 1.6 Q-18.1 2.45 -16.5 3.55 L-16.05 3.8 Q-15.95 3.85 -15.8 3.95 L-16.45 3.85 -17.65 3.7 -17.85 3.65 -20.05 3.35 -22.7 3.55 Q-23.3 3.65 -25.05 5.05 L-24.85 4.0 -24.6 2.8 M-24.4 3.4 L-24.35 3.4 -24.4 3.35 -24.4 3.4" fill="#cca9a9" fill-opacity="0.6" fill-rule="evenodd" stroke="none"/>
      <path d="M22.45 -7.25 Q20.75 -6.6 19.55 -5.4 L18.9 -4.3 18.9 -2.65 17.3 -3.0 16.95 -3.1 17.05 -3.65 Q17.3 -5.2 17.75 -5.85 18.15 -6.4 19.0 -6.8 L20.95 -7.35 21.9 -7.45 22.45 -7.25 M14.7 -5.55 L14.75 -5.15 14.8 -4.95 14.85 -4.7 14.75 -5.05 14.7 -5.55 M-14.55 4.65 L-16.5 4.8 Q-18.75 4.8 -20.7 5.7 -23.5 7.1 -24.45 9.25 -25.3 7.8 -25.3 6.35 L-25.05 5.05 Q-23.3 3.65 -22.7 3.55 L-20.05 3.35 -17.85 3.65 -17.65 3.7 -16.45 3.85 -15.8 3.95 -14.55 4.65 M-24.4 3.4 L-24.4 3.35 -24.35 3.4 -24.4 3.4" fill="#e0cbcb" fill-opacity="0.6" fill-rule="evenodd" stroke="none"/>
    </g>
    <g id="sprite1" transform="matrix(1.0, 0.0, 0.0, 1.0, 25.35, 9.45)">
      <use data-characterId="1467" height="18.85" transform="matrix(1.0, 0.0, 0.0, 1.0, -25.35, -9.45)" width="50.65" xlink:href="#shape2"/>
    </g>
    <g id="shape2" transform="matrix(1.0, 0.0, 0.0, 1.0, 25.35, 9.45)">
      <path d="M16.65 -4.85 L17.4 -3.3 17.45 -3.25 17.5 -2.95 17.75 -1.25 17.2 -0.85 16.7 -0.45 16.25 -2.65 13.6 -3.05 14.05 -4.15 15.8 -4.1 14.95 -5.75 15.35 -6.3 15.5 -6.45 16.65 -4.85 M23.9 -5.35 L24.05 -6.6 23.65 -8.7 23.4 -9.25 24.45 -9.45 Q25.3 -7.9 25.3 -6.5 L25.2 -5.55 24.85 -5.55 24.6 -5.45 24.55 -5.35 23.9 -5.35 M-21.4 8.2 L-22.5 9.05 -22.85 9.4 -22.8 9.15 -22.4 6.7 Q-22.4 5.4 -23.3 3.05 L-24.2 0.75 -24.25 0.5 -25.35 -0.2 -23.4 -0.5 -22.8 1.0 -22.7 1.25 -22.6 1.45 -21.7 3.95 -21.65 4.05 -21.45 4.85 -21.25 6.25 -21.25 6.55 -21.25 6.7 -21.4 8.2 M-15.2 -0.1 L-14.25 0.05 Q-13.9 1.0 -13.7 2.1 L-13.45 1.55 -13.0 0.3 -11.9 0.5 -11.9 0.95 Q-11.9 1.35 -12.75 2.95 L-13.45 4.0 -13.4 5.1 -14.7 5.3 -14.65 4.85 -14.65 4.6 -14.6 3.7 -14.6 3.6 -14.6 2.7 -14.85 1.0 -15.2 -0.1" fill="#a36a6a" fill-opacity="0.29803923" fill-rule="evenodd" stroke="none"/>
      <path d="M16.65 -4.85 L16.7 -4.85 17.8 -4.65 Q21.0 -4.65 22.45 -6.6 23.25 -7.7 23.25 -8.7 L23.3 -9.25 23.4 -9.25 23.65 -8.7 24.05 -6.6 23.9 -5.35 23.7 -5.35 Q20.85 -3.5 17.75 -1.25 L17.5 -2.95 17.45 -3.25 17.4 -3.3 16.65 -4.85 M-23.4 -0.5 L-23.15 -0.55 -22.95 -0.3 Q-22.05 0.65 -18.95 0.65 L-16.9 0.2 -16.0 -0.25 -15.2 -0.1 -14.85 1.0 -14.6 2.7 -14.6 3.6 -14.6 3.7 -14.65 4.6 -14.65 4.85 -14.7 5.3 Q-18.4 5.95 -21.4 8.2 L-21.25 6.7 -21.25 6.55 -21.25 6.25 -21.45 4.85 -21.65 4.05 -21.7 3.95 -22.6 1.45 -22.7 1.25 -22.8 1.0 -23.4 -0.5 M-15.95 1.3 L-15.9 1.4 -15.9 1.25 -15.95 1.3 M14.95 -5.75 L15.8 -4.1 14.05 -4.15 14.95 -5.75" fill="#cca9a9" fill-opacity="0.29803923" fill-rule="evenodd" stroke="none"/>
      <path d="M23.3 -9.25 L23.25 -8.7 Q23.25 -7.7 22.45 -6.6 21.0 -4.65 17.8 -4.65 L16.7 -4.85 16.65 -4.85 15.5 -6.45 Q17.85 -9.15 21.95 -9.2 L23.3 -9.25 M-23.15 -0.55 L-22.25 -0.65 -16.0 -0.25 -16.9 0.2 -18.95 0.65 Q-22.05 0.65 -22.95 -0.3 L-23.15 -0.55 M-14.25 0.05 L-13.0 0.3 -13.45 1.55 -13.7 2.1 Q-13.9 1.0 -14.25 0.05 M-15.95 1.3 L-15.9 1.25 -15.9 1.4 -15.95 1.3" fill="#e0cbcb" fill-opacity="0.29803923" fill-rule="evenodd" stroke="none"/>
    </g>
  </defs>
</svg>
