<?xml version="1.0" encoding="UTF-8" standalone="no"?>
<svg xmlns:xlink="http://www.w3.org/1999/xlink" height="30.5px" width="57px" xmlns="http://www.w3.org/2000/svg">
  <g transform="matrix(1.0, 0.0, 0.0, 1.0, 22.35, 9.75)">
    <path d="M17.1 -6.35 Q18.95 -4.25 18.75 -2.25 L18.3 0.3 18.75 2.1 22.55 2.85 24.25 3.25 33.65 5.15 25.7 4.1 22.65 3.9 18.45 3.35 18.35 3.3 Q16.15 -0.1 15.25 -4.2 L14.9 -5.1 Q12.45 -5.6 10.75 -7.1 10.65 -7.15 10.7 -7.3 12.5 -9.25 15.4 -8.55 17.35 -8.3 17.1 -6.35 M-19.4 0.3 L-19.35 0.15 Q-18.15 0.45 -18.15 2.95 L-18.5 4.05 -19.1 4.95 -19.55 4.5 -19.3 3.2 -19.05 2.0 -19.4 0.3 M-20.2 9.0 L-20.55 10.85 Q-20.55 11.55 -19.45 12.35 -18.35 13.1 -4.7 19.75 L-18.05 14.4 Q-19.8 13.5 -20.7 12.25 -21.35 11.45 -21.35 10.7 -21.35 9.8 -20.95 8.65 -20.6 7.55 -20.6 6.45 -20.6 6.0 -20.95 4.95 L-21.35 3.4 Q-21.35 3.0 -21.15 3.0 -20.35 4.05 -20.1 4.75 -19.85 5.45 -19.85 6.45 -19.85 7.8 -20.2 9.0" fill="#ffffff" fill-rule="evenodd" stroke="none"/>
  </g>
</svg>