<?xml version="1.0" encoding="UTF-8" standalone="no"?>
<svg xmlns:xlink="http://www.w3.org/1999/xlink" height="69.75px" width="33.65px" xmlns="http://www.w3.org/2000/svg">
  <g transform="matrix(1.0, 0.0, 0.0, 1.0, 15.9, 34.9)">
    <clipPath id="clipPath0" transform="matrix(1.0, 0.0, 0.0, 1.0, 0.0, 0.0)">
      <path d="M6.2 -33.3 Q7.55 -32.45 7.55 -28.25 7.55 -22.8 3.45 -19.8 0.1 -17.4 -4.3 -17.4 L-6.0 -17.4 -6.15 -17.7 Q1.9 -18.45 4.95 -22.0 6.9 -24.25 6.9 -28.05 L6.65 -30.7 6.15 -33.15 6.2 -33.3 M15.45 -25.4 Q15.45 -22.4 12.7 -19.45 8.55 -15.0 0.45 -15.0 -2.4 -15.0 -4.5 -16.1 L-3.75 -16.55 -2.35 -16.3 0.55 -16.05 Q3.95 -16.05 7.5 -17.55 10.3 -18.7 12.3 -20.4 13.5 -21.35 14.1 -23.15 L15.15 -25.95 15.45 -25.4 M14.75 -16.65 Q17.45 -19.05 17.45 -17.7 17.45 -15.45 8.8 -13.6 0.7 -11.85 -3.45 -12.45 L-3.5 -12.75 -1.4 -13.1 Q2.95 -13.35 10.2 -14.85 L12.3 -15.45 Q14.25 -16.1 14.75 -16.65 M13.4 -1.5 Q12.05 -2.8 9.75 -4.1 5.15 -6.75 -0.45 -6.75 L-2.3 -6.5 -2.85 -6.3 Q-3.35 -6.3 -3.3 -6.8 -3.3 -9.65 5.45 -7.25 14.15 -4.9 14.15 -2.15 L13.95 -1.75 13.4 -1.5 M17.75 -9.05 Q17.75 -8.55 17.25 -8.55 L10.5 -9.4 -1.8 -9.9 -2.7 -9.9 -2.75 -10.2 Q-2.75 -10.65 -1.3 -10.95 L4.5 -11.15 13.3 -10.5 Q17.75 -9.85 17.75 -9.05 M10.55 8.25 Q10.1 9.0 9.35 9.0 8.55 9.0 7.95 7.6 L6.7 4.55 Q4.55 0.05 -0.9 0.05 L-5.75 0.55 Q-6.65 0.55 -7.1 -0.05 L-7.4 -0.75 Q-7.4 -2.15 -4.55 -2.8 -1.65 -3.4 1.75 -2.7 10.9 -0.8 10.9 7.25 L10.55 8.25 M5.35 7.6 L6.5 10.85 Q7.2 13.15 7.2 14.25 L6.95 14.9 Q6.65 15.25 6.3 15.25 5.45 15.25 5.3 13.65 5.0 11.0 4.7 10.15 2.9 5.05 -7.15 5.05 -8.4 5.05 -8.5 4.2 -8.5 3.2 -5.55 3.05 -2.35 2.85 0.65 4.3 2.35 4.9 3.7 5.9 4.95 6.8 5.35 7.6 M1.3 14.35 Q-1.2 12.65 -2.75 11.95 -5.3 10.8 -10.7 10.9 L-11.3 10.35 Q-11.3 9.05 -8.75 9.1 -6.3 9.1 -3.1 10.35 5.05 13.5 5.05 18.65 L4.95 19.1 Q4.9 19.35 4.45 19.35 L4.15 19.2 3.0 17.05 Q1.95 14.65 1.3 14.35 M2.1 23.5 L-2.3 24.1 Q-6.8 24.45 -10.35 23.3 -13.8 22.2 -13.9 20.7 L-13.9 20.4 -11.3 21.6 -10.35 22.0 -10.2 22.05 Q-7.05 23.4 -2.95 23.1 L2.65 22.35 3.1 22.7 Q3.1 23.25 2.1 23.5 M2.85 21.0 Q1.1 21.0 -4.65 18.45 L-8.8 17.2 Q-11.45 16.35 -11.45 15.35 -11.45 14.35 -3.9 17.25 3.65 20.1 3.65 20.35 3.65 21.0 2.85 21.0 M3.3 24.95 Q3.3 26.6 -0.75 28.45 -4.65 30.2 -7.75 30.2 -12.55 30.2 -14.6 28.3 -15.9 27.15 -15.9 25.6 L-15.65 24.9 Q-15.1 25.2 -14.45 27.2 -12.85 29.05 -7.4 29.05 -3.35 29.05 -0.5 27.3 1.95 25.25 3.2 24.8 L3.25 24.75 3.3 24.95" fill="#00ff00" fill-rule="evenodd" stroke="none"/>
    </clipPath>
    <g clip-path="url(#clipPath0)">
      <use data-characterId="1438" height="69.75" transform="matrix(1.0, 0.0, 0.0, 1.0, -15.45, -34.9)" width="30.9" xlink:href="#shape1"/>
    </g>
  </g>
  <defs>
    <g id="shape1" transform="matrix(1.0, 0.0, 0.0, 1.0, 15.45, 34.9)">
      <path d="M5.65 27.0 Q5.35 28.25 -1.65 30.25 -8.5 32.2 -11.1 32.2 L-13.65 31.95 -13.85 31.15 Q-14.15 29.45 -13.95 26.75 L-13.95 26.65 Q-12.55 28.05 -10.2 28.05 -6.7 28.05 -5.3 25.25 L-2.35 16.35 0.55 9.85 Q1.75 7.3 1.75 4.35 1.75 -0.3 -2.55 0.5 L-2.8 0.55 Q-1.95 -1.8 -1.45 -3.7 L-1.0 -5.65 0.15 -5.65 Q1.3 -5.7 2.45 -7.75 3.55 -9.8 4.65 -13.25 5.75 -16.75 3.65 -19.55 1.5 -22.4 -1.15 -23.75 -2.65 -24.75 -4.8 -25.75 L-7.1 -26.55 -9.45 -27.95 -9.7 -28.05 Q-8.2 -30.95 -4.95 -32.95 L-0.8 -31.9 3.35 -30.3 Q5.45 -29.5 7.25 -28.35 L11.35 -25.8 11.5 -25.5 Q13.65 -21.4 14.15 -16.95 L14.25 -14.75 Q14.25 -8.85 7.8 4.95 1.35 18.75 1.35 22.35 1.35 23.65 2.25 25.05 L2.35 25.2 4.45 26.6 4.55 26.65 4.6 26.65 5.65 27.0 M-0.1 -7.05 L-0.75 -6.85 -0.1 -7.05" fill="#e0cbcb" fill-rule="evenodd" stroke="none"/>
      <path d="M-0.2 -34.7 L0.0 -34.9 Q5.55 -33.75 9.65 -29.95 12.95 -26.85 14.2 -22.5 L15.35 -16.95 15.45 -13.8 Q15.45 -8.5 9.05 5.5 2.75 19.15 2.6 22.75 L5.15 23.2 8.95 24.1 11.0 24.85 3.65 23.9 2.8 23.7 3.1 24.35 Q4.5 26.15 6.75 26.95 L8.75 27.9 5.65 27.0 4.6 26.65 4.55 26.65 4.45 26.6 2.35 25.2 2.25 25.05 Q1.35 23.65 1.35 22.35 1.35 18.75 7.8 4.95 14.25 -8.85 14.25 -14.75 L14.15 -16.95 Q13.65 -21.4 11.5 -25.5 L11.35 -25.8 8.55 -29.25 Q7.35 -30.5 5.7 -31.35 L1.9 -33.2 Q0.95 -33.65 0.2 -34.25 L-0.2 -34.7 M-13.65 31.95 L-13.6 32.1 Q-13.0 33.85 -12.95 34.65 -12.95 35.45 -14.3 32.9 -15.65 30.35 -15.4 27.65 -15.15 24.95 -13.75 21.05 -12.4 17.1 -10.75 14.2 L-8.45 10.1 Q-4.5 3.0 -2.9 -3.7 L-2.2 -7.15 Q-1.75 -9.5 -1.85 -11.8 -1.95 -13.65 -2.75 -15.2 -3.45 -16.6 -4.6 -17.3 L-5.6 -17.75 -6.0 -17.85 Q-7.1 -18.05 -8.25 -17.85 L-8.55 -17.8 -8.9 -17.75 -10.4 -17.35 -10.6 -17.85 -9.85 -18.25 -9.1 -18.45 -5.6 -18.7 -5.25 -18.65 Q-3.55 -18.5 -2.5 -17.3 L-1.75 -16.1 -1.75 -16.05 Q-0.75 -13.85 -0.6 -11.6 L-0.55 -9.4 -0.65 -8.05 -0.75 -7.45 -0.8 -7.15 -1.0 -5.65 -1.45 -3.7 Q-1.95 -1.8 -2.8 0.55 L-2.9 0.85 -3.85 3.25 Q-5.55 7.25 -8.2 12.3 L-11.75 19.15 Q-12.8 21.35 -13.35 23.4 L-13.7 24.95 -13.95 26.65 -13.95 26.75 Q-14.15 29.45 -13.85 31.15 L-13.65 31.95" fill="#a36a6a" fill-rule="evenodd" stroke="none"/>
      <path d="M-4.95 -32.95 L-2.35 -34.05 -0.2 -34.7 0.2 -34.25 Q0.95 -33.65 1.9 -33.2 L5.7 -31.35 Q7.35 -30.5 8.55 -29.25 L11.35 -25.8 7.25 -28.35 Q5.45 -29.5 3.35 -30.3 L-0.8 -31.9 -4.95 -32.95" fill="url(#gradient0)" fill-rule="evenodd" stroke="none"/>
      <path d="M-9.85 -18.25 Q-10.45 -18.8 -10.75 -20.05 L-11.05 -22.4 Q-11.05 -24.95 -10.15 -27.1 L-9.7 -28.05 -9.45 -27.95 -7.1 -26.55 -4.8 -25.75 Q-2.65 -24.75 -1.15 -23.75 1.5 -22.4 3.65 -19.55 5.75 -16.75 4.65 -13.25 3.55 -9.8 2.45 -7.75 1.3 -5.7 0.15 -5.65 L-1.0 -5.65 -0.8 -7.15 -0.75 -7.45 -0.65 -8.05 -0.55 -9.4 -0.6 -11.6 Q-0.75 -13.85 -1.75 -16.05 L-1.75 -16.1 -2.5 -17.3 Q-3.55 -18.5 -5.25 -18.65 L-5.6 -18.7 -9.1 -18.45 -9.85 -18.25 M-0.1 -7.05 L-0.75 -6.85 -0.1 -7.05" fill="#cca9a9" fill-rule="evenodd" stroke="none"/>
      <path d="M-2.8 0.55 L-2.55 0.5 Q1.75 -0.3 1.75 4.35 1.75 7.3 0.55 9.85 L-2.35 16.35 -5.3 25.25 Q-6.7 28.05 -10.2 28.05 -12.55 28.05 -13.95 26.65 L-13.7 24.95 -13.35 23.4 Q-12.8 21.35 -11.75 19.15 L-8.2 12.3 Q-5.55 7.25 -3.85 3.25 L-2.9 0.85 -2.8 0.55" fill="url(#gradient1)" fill-rule="evenodd" stroke="none"/>
    </g>
    <radialGradient cx="0" cy="0" gradientTransform="matrix(0.0114, 0.0, 0.0, 0.0114, -18.0, -42.45)" gradientUnits="userSpaceOnUse" id="gradient0" r="819.2" spreadMethod="pad">
      <stop offset="0.47843137254901963" stop-color="#ffffff"/>
      <stop offset="0.8823529411764706" stop-color="#f2eaea"/>
    </radialGradient>
    <radialGradient cx="0" cy="0" gradientTransform="matrix(0.0114, -0.0198, 0.0122, 0.007, -15.25, 15.55)" gradientUnits="userSpaceOnUse" id="gradient1" r="819.2" spreadMethod="pad">
      <stop offset="0.47843137254901963" stop-color="#ffffff"/>
      <stop offset="0.8823529411764706" stop-color="#f2eaea"/>
    </radialGradient>
  </defs>
</svg>
