<?xml version="1.0" encoding="UTF-8" standalone="no"?>
<svg xmlns:xlink="http://www.w3.org/1999/xlink" height="35.25px" width="10.1px" xmlns="http://www.w3.org/2000/svg">
  <g transform="matrix(1.0, 0.0, 0.0, 1.0, -3.3, 21.25)">
    <path d="M12.25 -20.2 L12.4 -19.75 12.15 -12.0 Q12.15 -11.1 10.7 -9.3 L8.4 -6.35 Q7.6 -5.05 7.95 -3.4 L8.5 -0.85 Q8.5 2.25 6.9 4.9 5.1 7.95 4.5 13.0 L4.35 13.0 4.3 12.05 Q4.3 9.1 6.05 6.15 7.75 3.2 7.75 0.25 7.0 -4.5 7.0 -5.3 7.0 -7.0 8.7 -8.65 10.4 -10.3 10.3 -12.8 L10.05 -16.65 Q10.15 -19.0 11.85 -20.25 L12.25 -20.2" fill="#a51616" fill-rule="evenodd" stroke="none"/>
  </g>
</svg>