<?xml version="1.0" encoding="UTF-8" standalone="no"?>
<svg xmlns:xlink="http://www.w3.org/1999/xlink" height="11.5px" width="44.9px" xmlns="http://www.w3.org/2000/svg">
  <g transform="matrix(1.0, 0.0, 0.0, 1.0, 22.45, 5.75)">
    <path d="M-12.35 -1.8 L-12.35 -1.75 -12.15 -1.8 -10.95 -1.8 -10.75 -1.8 -9.35 -1.85 -13.65 -0.55 Q-17.0 0.35 -17.15 0.65 L-18.55 3.05 -19.4 4.7 -19.65 4.7 -20.05 4.7 -20.45 4.6 -20.45 4.4 -20.45 3.95 Q-20.45 2.15 -20.05 1.35 -19.6 0.5 -17.75 -0.65 -16.25 -1.7 -12.35 -1.8 M-4.0 -2.15 L-0.25 -2.6 0.4 -2.7 0.7 -2.75 5.75 -3.45 Q5.15 -3.0 3.75 -2.5 1.2 -1.55 -0.5 -1.55 L-3.25 -1.85 Q-3.9 -2.0 -4.0 -2.15" fill="url(#gradient0)" fill-rule="evenodd" stroke="none"/>
    <path d="M-12.15 -1.8 L-12.35 -1.8 Q-16.25 -1.7 -17.75 -0.65 -19.6 0.5 -20.05 1.35 -20.45 2.15 -20.45 3.95 L-20.45 4.4 -20.45 4.6 -20.45 4.65 -20.75 4.75 Q-21.6 4.75 -21.4 2.85 -21.4 1.2 -20.2 -0.35 -19.0 -1.9 -15.1 -2.35 L-7.45 -2.85 -2.05 -3.25 1.35 -3.75 4.2 -4.25 9.7 -4.75 Q13.3 -4.75 17.35 -3.25 20.5 -2.05 21.45 -1.15 L21.3 -0.85 20.85 -0.85 19.1 -1.05 16.55 -1.4 13.2 -1.8 4.75 -1.15 Q-0.4 0.15 -4.95 0.8 L-10.65 1.05 Q-12.25 1.0 -14.45 2.2 L-15.65 3.45 -16.75 4.5 -17.2 4.3 -17.3 3.95 -17.2 3.55 Q-16.85 2.7 -15.05 1.5 -12.4 -0.35 -9.4 -0.1 -5.4 0.25 -0.25 -1.2 4.75 -2.6 8.75 -2.75 L17.3 -2.15 19.1 -1.7 19.4 -1.75 16.3 -2.8 Q13.0 -3.75 10.2 -3.75 L5.75 -3.45 0.7 -2.75 0.4 -2.7 -0.25 -2.6 -4.0 -2.15 -9.3 -1.85 -9.35 -1.85 -10.75 -1.8 -10.95 -1.8 -12.15 -1.8" fill="#a36a6a" fill-rule="evenodd" stroke="none"/>
    <path d="M-12.35 -1.8 L-12.15 -1.8 -12.35 -1.75 -12.35 -1.8 M-9.35 -1.85 L-9.3 -1.85 -4.0 -2.15 Q-3.9 -2.0 -3.25 -1.85 L-0.5 -1.55 Q1.2 -1.55 3.75 -2.5 5.15 -3.0 5.75 -3.45 L10.2 -3.75 Q13.0 -3.75 16.3 -2.8 L19.4 -1.75 19.1 -1.7 17.3 -2.15 8.75 -2.75 Q4.75 -2.6 -0.25 -1.2 -5.4 0.25 -9.4 -0.1 -12.4 -0.35 -15.05 1.5 -16.85 2.7 -17.2 3.55 L-17.3 3.95 -17.2 4.3 -19.4 4.7 -18.55 3.05 -17.15 0.65 Q-17.0 0.35 -13.65 -0.55 L-9.35 -1.85" fill="#e0cbcb" fill-rule="evenodd" stroke="none"/>
  </g>
  <defs>
    <radialGradient cx="0" cy="0" gradientTransform="matrix(0.0114, -0.0198, 0.0122, 0.007, -23.1, -2.55)" gradientUnits="userSpaceOnUse" id="gradient0" r="819.2" spreadMethod="pad">
      <stop offset="0.47843137254901963" stop-color="#ffffff"></stop>
      <stop offset="0.8823529411764706" stop-color="#f2eaea"></stop>
    </radialGradient>
  </defs>
</svg>