<?xml version="1.0" encoding="UTF-8" standalone="no"?>
<svg xmlns:xlink="http://www.w3.org/1999/xlink" height="20.95px" width="23px" xmlns="http://www.w3.org/2000/svg">
  <g transform="matrix(1.0, 0.0, 0.0, 1.0, 4.2, 18.8)">
    <path d="M17.8 -17.5 L16.8 -14.5 16.95 -11.1 17.3 -8.65 Q17.3 -5.75 15.8 -3.15 13.3 1.15 7.65 1.15 7.05 1.15 6.85 0.75 7.35 0.4 9.15 0.05 11.0 -0.4 11.8 -0.85 12.6 -1.3 13.3 -2.15 L14.45 -3.45 Q15.0 -4.0 15.6 -5.95 L16.15 -8.65 15.65 -11.9 Q15.1 -14.75 14.55 -15.45 14.6 -15.6 15.35 -16.0 L16.4 -16.7 16.85 -17.45 Q17.15 -17.85 17.7 -17.8 L17.8 -17.5 M-0.95 -2.15 Q-0.95 -1.85 -1.7 -0.8 L-2.9 0.5 -3.2 0.2 -2.55 -1.2 Q-1.75 -2.45 -1.15 -2.7 L-0.95 -2.15" fill="#ffffff" fill-rule="evenodd" stroke="none"/>
  </g>
</svg>