<?xml version="1.0" encoding="UTF-8" standalone="no"?>
<svg xmlns:xlink="http://www.w3.org/1999/xlink" height="30.35px" width="26.35px" xmlns="http://www.w3.org/2000/svg">
  <g transform="matrix(1.0, 0.0, 0.0, 1.0, 13.2, 15.2)">
    <path d="M8.9 -13.8 L8.4 -13.4 7.1 -13.1 Q6.55 -13.1 6.55 -13.45 L7.4 -13.95 8.45 -14.2 Q8.9 -14.2 8.9 -13.8 M6.2 -11.45 L5.7 -11.0 5.05 -10.85 Q4.7 -10.85 4.55 -11.05 L4.5 -11.25 Q4.5 -11.55 5.35 -11.8 6.2 -12.0 6.2 -11.45 M11.4 -6.0 Q12.15 -7.0 12.15 -5.85 L11.25 -3.85 Q10.35 -2.2 10.35 -0.95 L10.6 0.05 10.55 0.4 10.6 0.5 Q11.85 3.3 11.85 5.35 11.85 10.35 6.75 12.65 3.45 14.15 -0.65 14.15 -12.2 14.15 -12.2 0.7 -12.2 -1.55 -11.85 -2.85 -11.35 -4.85 -9.9 -6.3 L-6.35 -9.8 Q-4.0 -12.0 -1.8 -12.9 L-1.6 -12.75 -1.9 -12.45 -3.95 -10.55 -8.8 -5.95 -10.35 -3.6 -10.85 -2.3 -11.2 0.25 Q-11.2 4.7 -10.15 7.25 -8.65 10.8 -5.4 12.15 -3.65 12.85 -1.4 13.0 L-0.6 13.0 3.95 12.55 4.1 12.15 4.3 11.7 4.45 11.3 4.55 11.1 4.6 10.9 4.65 9.9 Q4.7 9.25 4.95 9.0 L5.2 9.8 5.3 10.45 5.15 11.6 5.05 11.9 4.95 12.3 6.2 11.85 6.15 11.7 6.65 10.3 7.15 8.0 6.9 6.7 Q6.9 6.5 7.25 6.3 7.75 7.65 7.75 9.15 L7.6 10.65 7.35 11.2 8.95 9.9 9.1 9.75 9.6 6.35 9.35 4.7 9.4 4.55 Q10.1 4.9 10.3 5.9 L10.35 7.5 10.35 7.75 10.45 7.55 10.75 5.5 Q10.75 2.25 8.3 -1.0 L8.3 -1.05 7.85 -1.55 7.4 -2.1 6.75 -2.8 6.0 -3.55 5.75 -3.75 5.75 -4.3 6.05 -4.35 6.25 -4.3 6.75 -4.1 8.5 -2.5 9.4 -1.4 Q9.55 -2.85 10.5 -4.6 L10.5 -4.65 10.55 -4.65 10.75 -5.05 10.9 -5.3 10.9 -5.25 11.1 -5.55 11.15 -5.6 11.4 -5.95 11.4 -6.0" fill="#a36a6a" fill-rule="evenodd" stroke="none"/>
    <path d="M3.25 -11.6 L6.4 -9.55 9.3 -7.3 Q7.75 -5.1 6.25 -4.3 L6.05 -4.35 5.75 -4.3 5.75 -3.75 6.0 -3.55 5.95 -3.25 Q5.95 -3.0 6.65 -1.2 L7.3 1.2 5.25 5.85 4.9 4.85 Q4.35 3.8 3.7 5.0 L2.1 6.4 Q1.15 6.95 1.15 7.55 1.1 8.45 2.1 8.45 3.45 8.45 4.45 7.7 L2.95 11.05 -2.15 11.45 -1.7 11.1 Q-0.8 10.35 -0.8 9.65 L-0.85 9.3 -0.9 9.35 -3.3 10.2 Q-4.65 10.75 -4.65 11.25 L-4.55 11.7 -4.0 11.8 -5.4 12.15 Q-8.65 10.8 -10.15 7.25 -11.2 4.7 -11.2 0.25 L-10.85 -2.3 Q-9.5 -0.9 -6.95 -0.9 -5.05 -0.9 -3.8 -1.75 -1.9 -3.05 -0.5 -6.6 -0.15 -7.5 2.1 -9.95 2.85 -10.8 3.25 -11.6 M-0.6 13.0 L-1.4 13.0 -0.5 12.8 -0.6 13.0 M10.35 7.5 L10.45 7.55 10.35 7.5" fill="#e0cbcb" fill-rule="evenodd" stroke="none"/>
    <path d="M-3.95 -10.55 L-3.85 -10.6 -1.85 -12.45 -0.15 -12.7 0.35 -12.7 2.25 -12.0 Q2.75 -11.75 3.25 -11.6 2.85 -10.8 2.1 -9.95 -0.15 -7.5 -0.5 -6.6 -1.9 -3.05 -3.8 -1.75 -5.05 -0.9 -6.95 -0.9 -9.5 -0.9 -10.85 -2.3 L-10.35 -3.6 -8.8 -5.95 -3.95 -10.55" fill="url(#gradient0)" fill-rule="evenodd" stroke="none"/>
    <path d="M9.3 -7.3 L10.75 -6.5 11.4 -6.0 11.35 -6.0 11.15 -5.6 11.1 -5.55 10.9 -5.25 10.9 -5.3 10.75 -5.05 10.55 -4.65 10.5 -4.65 10.5 -4.6 Q9.55 -2.85 9.4 -1.4 L8.5 -2.5 6.75 -4.1 6.25 -4.3 Q7.75 -5.1 9.3 -7.3 M-5.4 12.15 L-4.0 11.8 -4.55 11.7 -4.65 11.25 Q-4.65 10.75 -3.3 10.2 L-0.9 9.35 -0.85 9.3 -0.8 9.65 Q-0.8 10.35 -1.7 11.1 L-2.15 11.45 2.95 11.05 4.45 7.7 Q3.45 8.45 2.1 8.45 1.1 8.45 1.15 7.55 1.15 6.95 2.1 6.4 L3.7 5.0 Q4.35 3.8 4.9 4.85 L5.25 5.85 7.3 1.2 6.65 -1.2 Q5.95 -3.0 5.95 -3.25 L6.0 -3.55 6.75 -2.8 7.4 -2.1 7.85 -1.55 8.3 -1.05 8.3 -1.0 Q10.75 2.25 10.75 5.5 L10.45 7.55 10.35 7.5 10.3 5.9 Q10.1 4.9 9.4 4.55 L9.35 4.7 9.6 6.35 9.1 9.75 8.95 9.9 7.35 11.2 7.6 10.65 7.75 9.15 Q7.75 7.65 7.25 6.3 6.9 6.5 6.9 6.7 L7.15 8.0 6.65 10.3 6.15 11.7 6.2 11.85 4.95 12.3 5.05 11.9 5.15 11.6 5.3 10.45 5.2 9.8 4.95 9.0 Q4.7 9.25 4.65 9.9 L4.6 10.9 4.55 11.1 4.45 11.3 4.3 11.7 4.1 12.15 3.95 12.55 -0.6 13.0 -0.5 12.8 -1.4 13.0 Q-3.65 12.85 -5.4 12.15" fill="#cca9a9" fill-rule="evenodd" stroke="none"/>
  </g>
  <defs>
    <radialGradient cx="0" cy="0" gradientTransform="matrix(0.0153, -0.0169, 0.0104, 0.0095, -10.35, -3.45)" gradientUnits="userSpaceOnUse" id="gradient0" r="819.2" spreadMethod="pad">
      <stop offset="0.47843137254901963" stop-color="#ffffff"></stop>
      <stop offset="0.8823529411764706" stop-color="#f2eaea"></stop>
    </radialGradient>
  </defs>
</svg>