<?xml version="1.0" encoding="UTF-8" standalone="no"?>
<svg xmlns:xlink="http://www.w3.org/1999/xlink" height="49px" width="24.95px" xmlns="http://www.w3.org/2000/svg">
  <g transform="matrix(1.0, 0.0, 0.0, 1.0, 12.45, 24.5)">
    <path d="M0.5 4.55 L1.15 2.5 0.9 -1.95 0.8 -2.4 Q0.4 -4.05 1.95 -6.3 3.5 -8.45 5.95 -9.95 7.65 -10.95 8.75 -13.65 9.6 -15.55 10.2 -16.5 L10.45 -16.9 10.55 -17.0 10.8 -17.35 11.5 -16.95 9.9 -12.9 Q8.95 -10.5 7.1 -9.15 1.6 -5.15 2.0 -1.65 2.7 4.85 0.2 7.5 -1.1 8.8 -1.35 9.55 -1.95 11.05 -1.4 13.95 L-0.7 15.85 Q-0.15 17.15 0.05 18.2 0.25 19.4 -0.8 21.2 -2.15 23.5 -4.7 23.5 -6.55 23.5 -7.75 21.85 -8.5 20.85 -8.65 20.0 L-8.4 19.0 Q-8.05 18.5 -7.7 18.5 -7.3 18.5 -6.8 19.05 L-7.1 19.45 -6.6 18.9 -6.3 19.35 -5.95 19.95 Q-4.65 20.0 -4.15 19.2 -3.85 18.6 -3.95 18.05 -4.2 16.55 -6.45 13.95 -8.7 11.4 -9.05 9.55 -9.45 7.35 -8.05 3.85 -6.65 0.4 -7.15 -2.3 L-9.05 -6.3 Q-10.95 -9.9 -11.3 -11.8 -11.95 -15.25 -9.7 -18.15 -7.85 -20.6 -3.2 -23.5 L-3.1 -23.1 -3.05 -22.75 -3.65 -21.9 -4.35 -21.3 -8.4 -18.1 Q-10.85 -16.2 -10.2 -12.25 L-10.15 -11.85 -9.85 -10.7 -9.45 -9.55 -9.4 -9.55 -8.2 -7.25 Q-6.55 -4.85 -6.1 -2.35 -5.8 -0.65 -6.1 1.2 L-6.35 2.5 -6.45 2.85 -6.95 4.2 -7.6 6.0 -7.7 6.4 -8.1 9.2 -8.05 9.65 Q-7.8 10.8 -5.4 13.5 -3.1 16.25 -2.75 18.1 L-2.75 18.75 -3.15 19.85 Q-3.8 21.15 -4.9 21.15 -6.1 21.15 -6.8 20.55 L-7.25 19.85 -7.4 19.8 -6.95 21.1 Q-6.4 22.25 -4.95 22.25 L-4.85 22.25 -4.05 22.2 -3.65 22.1 Q-1.95 21.6 -1.4 19.7 L-1.2 17.7 -1.2 17.0 -2.45 13.45 Q-3.3 9.1 -0.5 5.95 L-0.2 5.65 0.05 5.35 0.5 4.55" fill="#a36a6a" fill-rule="evenodd" stroke="none"/>
    <path d="M10.55 -17.0 L10.45 -16.9 10.2 -16.5 Q9.6 -15.55 8.75 -13.65 7.65 -10.95 5.95 -9.95 3.5 -8.45 1.95 -6.3 0.4 -4.05 0.8 -2.4 L0.9 -1.95 1.15 2.5 0.5 4.55 0.65 3.05 Q0.65 0.3 -1.0 -1.5 -2.7 -3.3 -2.7 -4.7 -2.7 -5.85 -2.15 -6.2 L1.1 -8.5 2.55 -10.25 4.25 -12.45 6.2 -14.4 7.85 -16.5 8.6 -17.9 9.25 -17.7 9.9 -17.4 10.55 -17.0 M-0.2 5.65 L-0.5 5.95 Q-3.3 9.1 -2.45 13.45 L-1.2 17.0 -1.2 17.7 Q-2.45 16.6 -4.3 13.1 -4.3 12.6 -3.15 10.25 L-2.05 8.0 0.0 5.35 -0.2 5.65" fill="#cca9a9" fill-rule="evenodd" stroke="none"/>
    <path d="M-3.65 22.1 L-4.05 22.2 -4.85 22.25 -4.95 22.25 Q-6.4 22.25 -6.95 21.1 L-7.4 19.8 -7.25 19.85 -6.8 20.55 Q-6.1 21.15 -4.9 21.15 -3.8 21.15 -3.15 19.85 L-2.75 18.75 Q-2.5 19.1 -2.5 19.65 -2.5 20.55 -3.1 21.45 L-3.65 22.1 M-8.1 9.2 L-7.7 6.4 -7.6 6.0 -6.95 4.2 -6.45 2.85 -6.35 2.5 -6.1 1.2 -5.15 0.65 Q-2.1 -0.95 -2.1 3.45 -3.6 9.85 -6.55 9.85 -7.5 9.85 -8.1 9.2 M-9.4 -9.55 L-9.45 -9.55 -9.85 -10.7 -10.15 -11.85 -10.2 -12.25 Q-10.85 -16.2 -8.4 -18.1 L-4.35 -21.3 -3.65 -21.9 -3.05 -22.75 -2.15 -22.55 -0.05 -21.85 0.95 -21.5 2.3 -20.95 1.3 -19.15 -0.8 -15.6 Q-0.95 -13.35 -1.55 -11.65 -2.65 -8.45 -5.8 -8.45 -7.9 -8.45 -9.4 -9.55" fill="url(#gradient0)" fill-rule="evenodd" stroke="none"/>
    <path d="M8.6 -17.9 L7.85 -16.5 6.2 -14.4 4.25 -12.45 2.55 -10.25 1.1 -8.5 -2.15 -6.2 Q-2.7 -5.85 -2.7 -4.7 -2.7 -3.3 -1.0 -1.5 0.65 0.3 0.65 3.05 L0.5 4.55 0.05 5.35 -0.2 5.65 0.0 5.35 -2.05 8.0 -3.15 10.25 Q-4.3 12.6 -4.3 13.1 -2.45 16.6 -1.2 17.7 L-1.4 19.7 Q-1.95 21.6 -3.65 22.1 L-3.1 21.45 Q-2.5 20.55 -2.5 19.65 -2.5 19.1 -2.75 18.75 L-2.75 18.1 Q-3.1 16.25 -5.4 13.5 -7.8 10.8 -8.05 9.65 L-8.1 9.2 Q-7.5 9.85 -6.55 9.85 -3.6 9.85 -2.1 3.45 -2.1 -0.95 -5.15 0.65 L-6.1 1.2 Q-5.8 -0.65 -6.1 -2.35 -6.55 -4.85 -8.2 -7.25 L-9.4 -9.55 Q-7.9 -8.45 -5.8 -8.45 -2.65 -8.45 -1.55 -11.65 -0.95 -13.35 -0.8 -15.6 L1.3 -19.15 2.3 -20.95 3.75 -20.3 5.45 -19.2 Q6.45 -18.6 7.6 -18.25 L8.6 -17.9" fill="#e0cbcb" fill-rule="evenodd" stroke="none"/>
  </g>
  <defs>
    <radialGradient cx="0" cy="0" gradientTransform="matrix(0.0153, -0.0169, 0.0104, 0.0095, -12.95, -21.15)" gradientUnits="userSpaceOnUse" id="gradient0" r="819.2" spreadMethod="pad">
      <stop offset="0.47843137254901963" stop-color="#ffffff"></stop>
      <stop offset="0.8823529411764706" stop-color="#f2eaea"></stop>
    </radialGradient>
  </defs>
</svg>