<?xml version="1.0" encoding="UTF-8" standalone="no"?>
<svg xmlns:xlink="http://www.w3.org/1999/xlink" height="31.35px" width="32.5px" xmlns="http://www.w3.org/2000/svg">
  <g transform="matrix(1.0, 0.0, 0.0, 1.0, 16.25, 14.6)">
    <path d="M5.25 -9.45 L5.3 -9.4 6.95 -8.2 11.45 -5.9 Q10.0 -4.85 9.05 -3.2 L8.25 -1.1 7.2 0.1 6.8 0.65 5.15 -1.2 Q3.7 -2.55 2.0 -3.35 L1.6 -3.8 Q2.5 -3.95 3.6 -5.15 4.65 -6.3 4.65 -6.95 4.65 -7.85 5.15 -9.25 L5.25 -9.45 4.0 -10.35 4.05 -10.35 4.1 -10.3 5.25 -9.45 M2.0 -2.9 L6.2 1.15 6.25 1.2 6.35 2.5 5.3 2.5 5.45 4.55 Q5.35 5.95 3.35 6.65 L3.0 6.75 3.45 7.9 3.3 7.55 3.25 7.6 Q1.85 8.45 -0.05 8.35 L-3.15 7.9 -6.35 7.45 -9.25 7.75 -12.25 8.05 -14.2 7.9 -14.5 4.7 -14.3 2.5 -14.0 2.5 -13.3 0.65 -10.9 -0.35 Q-8.85 -1.35 -6.15 -1.35 L-4.4 -1.0 -1.5 -0.7 Q0.55 -0.7 0.55 -2.25 L2.0 -1.45 2.3 -1.55 Q2.25 -2.15 1.55 -2.55 L2.0 -2.9 M-4.15 -4.1 L-4.0 -4.1 -4.4 -4.25 -4.8 -4.35 -4.85 -4.35 -6.4 -4.6 Q-5.4 -5.2 -4.35 -6.15 L-4.2 -6.3 -3.9 -6.55 -3.85 -6.1 Q-4.1 -5.35 -3.75 -4.7 L-3.3 -3.8 -4.15 -4.1" fill="#e0cbcb" fill-rule="evenodd" stroke="none"/>
    <path d="M5.25 -9.45 L5.15 -9.25 Q4.65 -7.85 4.65 -6.95 4.65 -6.3 3.6 -5.15 2.5 -3.95 1.6 -3.8 L2.0 -3.35 1.65 -3.5 1.3 -3.65 1.3 -3.45 2.0 -2.9 1.55 -2.55 1.1 -2.8 -0.85 -3.5 -0.7 -3.25 -0.55 -3.1 Q-0.2 -2.75 0.55 -2.25 0.55 -0.7 -1.5 -0.7 L-4.4 -1.0 -6.15 -1.35 Q-8.85 -1.35 -10.9 -0.35 L-13.3 0.65 -13.15 0.4 -13.0 0.15 -12.65 -0.35 -12.6 -0.45 -12.1 -1.05 -11.45 -1.65 -9.9 -2.75 Q-7.6 -4.0 -4.15 -4.1 L-3.3 -3.8 -3.75 -4.7 Q-4.1 -5.35 -3.85 -6.1 L-3.9 -6.55 -2.3 -8.05 0.6 -10.75 1.15 -11.3 1.5 -11.65 1.7 -11.85 3.15 -11.0 4.05 -10.35 4.0 -10.35 5.25 -9.45 M1.95 -11.15 L2.0 -11.1 2.0 -11.15 1.95 -11.15" fill="url(#gradient0)" fill-rule="evenodd" stroke="none"/>
    <path d="M2.0 -3.35 Q3.7 -2.55 5.15 -1.2 L6.8 0.65 7.15 1.1 7.2 1.15 7.2 2.0 6.25 1.2 6.2 1.15 2.0 -2.9 1.3 -3.45 1.3 -3.65 1.65 -3.5 2.0 -3.35 M13.75 -4.75 L15.15 -6.0 15.25 -5.75 13.8 -3.1 11.85 0.15 11.4 1.15 10.55 2.9 Q9.95 3.95 9.5 5.55 9.0 7.1 8.95 8.3 L8.75 10.05 8.05 12.15 Q5.8 16.25 1.15 15.65 -1.1 15.35 -2.4 14.25 L-4.0 13.05 Q-4.1 13.05 -5.85 13.8 L-9.45 14.2 Q-13.3 13.7 -14.65 9.25 -15.3 7.1 -15.25 4.7 L-15.1 2.5 -15.05 2.5 Q-14.35 -0.9 -11.4 -3.0 -9.5 -4.35 -7.5 -4.55 L-1.1 -10.8 Q2.55 -14.35 2.5 -13.4 2.5 -12.8 1.7 -11.85 L1.5 -11.65 1.15 -11.3 0.6 -10.75 -2.3 -8.05 -3.9 -6.55 -4.2 -6.3 -4.35 -6.15 Q-5.4 -5.2 -6.4 -4.6 L-4.85 -4.35 -4.8 -4.35 -4.4 -4.25 -4.0 -4.1 -4.15 -4.1 Q-7.6 -4.0 -9.9 -2.75 L-11.45 -1.65 -12.1 -1.05 -12.6 -0.45 -12.65 -0.35 -13.0 0.15 -13.15 0.4 -13.3 0.65 -14.0 2.5 -14.3 2.5 -14.5 4.7 -14.2 7.9 -14.25 7.9 -14.05 8.55 -13.95 8.8 -13.9 9.05 Q-12.7 12.7 -9.35 13.1 -7.8 13.25 -6.05 12.65 -4.25 11.95 -3.95 12.0 -3.3 12.05 -2.05 13.15 L-1.4 13.65 -0.5 14.1 0.15 14.3 1.3 14.5 Q6.4 15.1 7.55 9.55 L7.65 8.8 7.95 7.1 8.3 5.55 8.7 4.2 Q9.3 2.6 10.15 1.15 L11.2 -0.9 13.35 -4.25 13.75 -4.75 M1.55 -2.55 Q2.25 -2.15 2.3 -1.55 L2.0 -1.45 0.55 -2.25 Q-0.2 -2.75 -0.55 -3.1 L-0.7 -3.25 -0.85 -3.5 1.1 -2.8 1.55 -2.55" fill="#a36a6a" fill-rule="evenodd" stroke="none"/>
    <path d="M6.8 0.65 L7.2 0.1 8.25 -1.1 9.05 -3.2 Q10.0 -4.85 11.45 -5.9 L11.6 -6.0 Q12.05 -5.65 12.85 -5.65 L12.95 -5.65 12.55 -5.35 13.75 -4.75 13.35 -4.25 11.2 -0.9 10.15 1.15 Q9.3 2.6 8.7 4.2 L8.3 5.55 7.95 7.1 7.65 8.8 7.55 9.55 Q6.4 15.1 1.3 14.5 L0.15 14.3 -0.5 14.1 -1.4 13.65 -2.05 13.15 Q-3.3 12.05 -3.95 12.0 -4.25 11.95 -6.05 12.65 -7.8 13.25 -9.35 13.1 -12.7 12.7 -13.9 9.05 L-13.95 8.8 -14.05 8.55 -14.25 7.9 -14.2 7.9 -12.25 8.05 -9.25 7.75 -6.35 7.45 -3.15 7.9 -0.05 8.35 Q1.85 8.45 3.25 7.6 L3.3 7.55 3.45 7.9 3.0 6.75 3.35 6.65 Q5.35 5.95 5.45 4.55 L5.3 2.5 6.35 2.5 6.25 1.2 7.2 2.0 7.2 1.15 7.15 1.1 6.8 0.65" fill="#cca9a9" fill-rule="evenodd" stroke="none"/>
  </g>
  <defs>
    <radialGradient cx="0" cy="0" gradientTransform="matrix(0.0153, -0.0169, 0.0104, 0.0095, -11.45, -5.5)" gradientUnits="userSpaceOnUse" id="gradient0" r="819.2" spreadMethod="pad">
      <stop offset="0.47843137254901963" stop-color="#ffffff"></stop>
      <stop offset="0.8823529411764706" stop-color="#f2eaea"></stop>
    </radialGradient>
  </defs>
</svg>