<?xml version="1.0" encoding="UTF-8" standalone="no"?>
<svg xmlns:xlink="http://www.w3.org/1999/xlink" height="16.5px" width="21.05px" xmlns="http://www.w3.org/2000/svg">
  <g transform="matrix(1.0, 0.0, 0.0, 1.0, 19.5, 10.55)">
    <path d="M-3.5 -7.3 Q-4.1 -7.3 -4.1 -7.75 -4.1 -8.1 -3.5 -8.15 -2.9 -8.2 -2.9 -7.75 -2.9 -7.3 -3.5 -7.3 M-2.15 -8.6 Q-3.05 -8.6 -3.05 -9.05 L-2.8 -9.35 -1.85 -9.55 Q-1.4 -9.55 -1.4 -9.05 -1.4 -8.6 -2.15 -8.6 M-0.85 3.9 L0.05 3.6 Q0.55 3.6 0.55 4.05 L0.2 4.6 Q-0.2 4.95 -0.65 4.95 -1.4 4.95 -1.35 4.45 L-0.85 3.9 M-17.25 1.55 L-17.05 1.95 Q-17.05 2.5 -17.55 2.5 -18.5 2.5 -18.5 1.75 -18.55 1.15 -17.85 1.15 -17.5 1.15 -17.25 1.55" fill="#ffffff" fill-rule="evenodd" stroke="none"/>
  </g>
</svg>