<?xml version="1.0" encoding="UTF-8" standalone="no"?>
<svg xmlns:xlink="http://www.w3.org/1999/xlink" height="21.85px" width="11.35px" xmlns="http://www.w3.org/2000/svg">
  <g transform="matrix(1.0, 0.0, 0.0, 1.0, 16.25, 15.35)">
    <path d="M-5.9 -14.2 L-6.9 -13.75 -8.35 -13.25 -11.45 -11.9 Q-12.05 -11.9 -12.0 -12.5 -12.0 -13.2 -7.65 -14.05 L-5.95 -14.35 -5.9 -14.2 M-12.7 -10.85 Q-13.15 -10.5 -13.9 -10.5 -14.45 -10.5 -14.9 -10.9 L-15.25 -11.35 Q-15.25 -11.9 -13.8 -11.9 -12.35 -11.9 -12.35 -11.25 L-12.7 -10.85 M-9.8 4.0 Q-9.8 4.3 -10.35 4.85 -10.95 5.5 -11.55 5.5 -11.85 5.5 -12.2 4.55 -12.2 4.15 -11.7 3.85 -11.25 3.55 -10.75 3.55 -9.8 3.55 -9.8 4.0" fill="#ffffff" fill-rule="evenodd" stroke="none"/>
  </g>
</svg>