<?xml version="1.0" encoding="UTF-8" standalone="no"?>
<svg xmlns:xlink="http://www.w3.org/1999/xlink" height="17.4px" width="14.5px" xmlns="http://www.w3.org/2000/svg">
  <g transform="matrix(1.0, 0.0, 0.0, 1.0, 12.55, 8.55)">
    <path d="M0.35 -1.35 L-0.3 -0.75 Q-0.9 -1.0 -0.9 -1.45 -0.9 -1.95 -0.2 -2.35 0.55 -2.75 0.95 -2.1 L0.35 -1.35 M-8.0 -5.5 L-9.05 -4.55 -9.45 -5.1 Q-9.45 -6.2 -8.25 -7.15 -7.05 -8.1 -7.05 -6.9 -7.05 -6.5 -8.0 -5.5 M-9.95 7.75 L-10.7 7.85 Q-11.55 7.85 -11.55 7.2 -11.55 6.55 -10.6 6.55 -9.65 6.55 -9.65 7.2 -9.65 7.65 -9.95 7.75" fill="#ffffff" fill-rule="evenodd" stroke="none"/>
  </g>
</svg>