<?xml version="1.0" encoding="UTF-8" standalone="no"?>
<svg xmlns:xlink="http://www.w3.org/1999/xlink" height="25.1px" width="13.3px" xmlns="http://www.w3.org/2000/svg">
  <g transform="matrix(1.0, 0.0, 0.0, 1.0, 4.4, 15.6)">
    <path d="M7.9 -14.6 Q7.8 -13.35 6.45 -11.3 5.05 -9.1 3.85 -8.25 0.95 -6.15 0.1 -4.8 -0.65 -3.65 -0.65 -1.7 L-0.7 2.95 Q-0.7 4.35 -1.3 5.8 -2.0 7.55 -3.3 8.5 L-3.4 8.0 Q-3.4 7.55 -2.7 6.4 -2.0 5.2 -2.0 4.5 -2.0 3.2 -2.15 2.15 L-2.3 -1.0 Q-3.0 -2.85 -2.55 -3.25 L2.95 -8.9 Q7.5 -13.7 7.9 -14.6" fill="#ffffff" fill-rule="evenodd" stroke="none"/>
  </g>
</svg>