<?xml version="1.0" encoding="UTF-8" standalone="no"?>
<svg xmlns:xlink="http://www.w3.org/1999/xlink" height="21.05px" width="21.85px" xmlns="http://www.w3.org/2000/svg">
  <g id="shape0" transform="matrix(1.0, 0.0, 0.0, 1.0, 10.9, 10.55)">
    <path d="M-8.2 -4.8 L-7.5 -5.95 -6.45 -7.1 -6.45 -7.5 -6.25 -7.8 Q-5.15 -8.7 -3.6 -9.0 L0.75 -9.55 -0.75 -9.15 Q1.85 -9.15 4.2 -8.0 5.6 -7.35 6.7 -6.4 L5.3 -6.6 7.35 -4.5 9.95 -0.5 8.95 -1.0 8.85 -1.0 8.85 -0.95 9.0 0.3 6.3 0.35 Q6.75 1.1 6.75 1.95 L6.7 2.35 6.35 2.4 4.85 1.75 Q3.45 1.0 2.4 0.8 L1.7 0.65 1.75 0.7 3.9 3.1 3.85 3.45 3.6 3.5 1.95 2.75 0.0 1.75 -2.05 1.0 -2.75 0.65 -3.7 0.75 -5.15 -0.55 Q-6.6 -2.0 -7.95 -4.35 L-8.2 -4.8 M9.4 9.5 L9.3 9.5 9.3 9.4 9.4 9.5" fill="#faf8f8" fill-rule="evenodd" stroke="none"/>
    <path d="M-8.2 -4.8 L-7.95 -4.35 Q-6.6 -2.0 -5.15 -0.55 L-3.7 0.75 -2.75 0.65 -2.05 1.0 0.0 1.75 1.95 2.75 3.6 3.5 3.85 3.45 3.9 3.1 1.75 0.7 1.7 0.65 2.4 0.8 Q3.45 1.0 4.85 1.75 L6.35 2.4 6.7 2.35 6.75 1.95 Q6.75 1.1 6.3 0.35 L9.0 0.3 9.15 1.4 9.15 1.55 9.2 1.75 9.2 2.0 9.3 2.65 9.55 5.7 9.65 7.05 Q9.0 6.3 9.15 7.3 L9.3 9.4 9.3 9.5 6.3 8.65 6.0 9.1 4.65 9.35 0.8 9.2 0.45 8.25 1.2 8.45 Q1.55 8.45 1.5 8.3 1.65 7.9 0.9 7.0 0.3 6.35 -0.15 6.3 L-0.05 6.7 -0.2 6.0 Q-0.3 4.7 -0.9 4.2 L-2.6 3.85 -1.7 4.0 -2.0 3.0 -1.8 2.7 -1.65 2.4 Q-1.65 1.4 -2.45 2.3 L-3.3 3.6 -3.3 3.9 Q-3.65 4.0 -3.65 4.35 L-3.0 8.0 -3.4 7.75 -4.65 7.1 -7.8 4.35 -9.25 2.1 -9.85 0.2 -9.7 -1.65 -8.75 -3.9 -8.2 -4.8" fill="#d6baba" fill-rule="evenodd" stroke="none"/>
    <path d="M0.8 9.2 L0.7 9.2 -0.85 8.85 -1.3 8.65 -2.5 8.25 -3.0 8.0 -3.65 4.35 Q-3.65 4.0 -3.3 3.9 L-3.3 3.6 -2.45 2.3 Q-1.65 1.4 -1.65 2.4 L-1.8 2.7 -2.0 3.0 -1.7 4.0 -2.6 3.85 -0.9 4.2 Q-0.3 4.7 -0.2 6.0 L-0.05 6.7 -0.15 6.3 Q0.3 6.35 0.9 7.0 1.65 7.9 1.5 8.3 1.55 8.45 1.2 8.45 L0.45 8.25 0.8 9.2" fill="#c29a9a" fill-rule="evenodd" stroke="none"/>
    <path d="M9.0 0.3 L8.85 -0.95 8.85 -1.0 8.95 -1.0 9.95 -0.5 7.35 -4.5 5.3 -6.6 6.7 -6.4 Q5.6 -7.35 4.2 -8.0 1.85 -9.15 -0.75 -9.15 L0.75 -9.55 -3.6 -9.0 Q-5.15 -8.7 -6.25 -7.8 L-6.45 -7.5 -6.45 -7.1 -7.5 -5.95 -8.2 -4.8 -8.75 -3.9 -9.7 -1.65 -9.85 0.2 -9.25 2.1 -7.8 4.35 -4.65 7.1 -3.4 7.75 -3.0 8.0 -2.5 8.25 -1.3 8.65 -0.85 8.85 0.7 9.2 0.8 9.2 4.65 9.35 6.0 9.1 6.3 8.65 9.3 9.5 9.4 9.5 9.4 9.4 9.3 9.4 9.15 7.3 Q9.0 6.3 9.65 7.05 L9.55 5.7 9.3 2.65 9.2 2.0 9.2 1.75 9.15 1.55 9.15 1.4 9.0 0.3 Z" fill="none" stroke="#a36a6a" stroke-linecap="round" stroke-linejoin="round" stroke-width="1"/>
  </g>
</svg>