<?xml version="1.0" encoding="UTF-8" standalone="no"?>
<svg xmlns:xlink="http://www.w3.org/1999/xlink" height="9.1px" width="9.15px" xmlns="http://www.w3.org/2000/svg">
  <g id="shape0" transform="matrix(1.0, 0.0, 0.0, 1.0, 4.55, 4.55)">
    <path d="M-0.85 -2.25 Q-1.85 -2.5 -1.65 -3.15 L-1.5 -3.3 -1.05 -3.55 -0.8 -3.5 1.35 -3.2 Q3.25 -3.25 3.6 -1.9 L3.4 -1.85 2.35 -1.9 1.25 -2.0 1.1 -2.05 0.95 -2.05 0.85 -2.1 0.3 -2.2 0.15 -2.15 0.3 -2.2 0.85 -2.1 0.95 -2.05 1.1 -2.05 1.25 -2.0 2.35 -1.9 2.55 -1.8 2.45 -1.15 2.65 -0.15 2.05 0.75 Q1.1 1.7 -0.65 1.7 -2.25 1.7 -3.25 0.8 L-3.55 0.55 -3.45 0.05 -3.45 0.0 -3.4 -0.05 -2.9 -0.95 -1.45 -2.05 -0.85 -2.25 -0.6 -2.2 0.15 -2.15 0.15 -2.2 0.05 -2.25 -0.85 -2.25 M-2.6 3.15 L-2.85 2.8 Q-1.9 1.75 -1.9 2.4 L-2.2 2.8 -2.6 3.15 M0.25 -1.5 L0.85 -2.1 0.25 -1.5" fill="#faf8f8" fill-rule="evenodd" stroke="none"/>
    <path d="M-3.55 0.55 L-3.25 0.8 Q-2.25 1.7 -0.65 1.7 1.1 1.7 2.05 0.75 L2.65 -0.15 2.9 0.45 3.5 1.25 3.45 1.3 3.2 1.75 2.85 2.15 1.3 3.15 0.75 3.35 0.1 3.5 -0.55 3.55 -1.55 3.35 -1.95 3.2 -2.25 3.25 -2.7 3.35 -3.0 3.3 -3.1 3.1 -3.0 2.8 -2.9 2.55 -2.95 2.45 Q-3.55 1.7 -3.55 0.75 L-3.55 0.55 M-0.8 2.85 L-1.95 3.2 -0.8 2.85 M-2.6 3.15 L-2.2 2.8 -1.9 2.4 Q-1.9 1.75 -2.85 2.8 L-2.6 3.15" fill="#d6baba" fill-rule="evenodd" stroke="none"/>
    <path d="M-0.8 -3.5 L-1.05 -3.55 -1.5 -3.3 -1.65 -3.15 Q-1.85 -2.5 -0.85 -2.25 L-0.6 -2.2 0.15 -2.15 0.3 -2.2 0.85 -2.1 0.95 -2.05 1.1 -2.05 1.25 -2.0 2.35 -1.9 3.4 -1.85 3.6 -1.9 Q3.25 -3.25 1.35 -3.2 M-0.85 -2.25 L-1.45 -2.05 -2.9 -0.95 -3.4 -0.05 -3.45 0.0 -3.45 0.05 -3.55 0.55 -3.55 0.75 Q-3.55 1.7 -2.95 2.45 L-2.9 2.55 -3.0 2.8 -3.1 3.1 -3.0 3.3 -2.7 3.35 -2.25 3.25 -1.95 3.2 -0.8 2.85 M2.65 -0.15 L2.45 -1.15 2.55 -1.8 2.35 -1.9 M-1.95 3.2 L-1.55 3.35 -0.55 3.55 0.1 3.5 0.75 3.35 1.3 3.15 2.85 2.15 3.2 1.75 3.45 1.3 3.5 1.25 2.9 0.45 2.65 -0.15 M0.85 -2.1 L0.25 -1.5" fill="none" stroke="#a36a6a" stroke-linecap="round" stroke-linejoin="round" stroke-width="1"/>
  </g>
</svg>