<?xml version="1.0" encoding="UTF-8" standalone="no"?>
<svg xmlns:xlink="http://www.w3.org/1999/xlink" height="10.8px" width="14.3px" xmlns="http://www.w3.org/2000/svg">
  <g id="shape0" transform="matrix(1.0, 0.0, 0.0, 1.0, 7.15, 5.4)">
    <path d="M-2.3 -4.25 L-2.6 -4.05 -3.1 -3.7 Q-3.95 -3.0 -4.25 -1.85 L-3.0 -2.95 -2.8 -3.0 -1.05 -3.65 0.9 -3.9 2.75 -3.8 4.2 -3.2 0.7 -2.9 Q-0.35 -2.75 -1.25 -2.2 L3.1 -2.05 1.5 -1.7 4.35 -1.65 5.05 -1.05 6.15 0.4 5.9 0.05 Q5.5 -0.3 4.75 -0.5 L3.2 -0.7 2.2 -0.75 2.0 -0.65 2.5 -0.25 3.85 0.75 4.5 1.3 3.6 0.85 2.55 0.7 0.9 0.55 0.3 0.75 1.75 4.1 Q-3.8 5.45 -6.15 1.15 L-6.1 -0.6 -5.9 -1.95 -5.85 -1.95 -5.65 -0.5 -5.35 -1.7 -4.8 -2.45 -3.8 -3.4 -2.3 -4.25 -2.05 -4.4 -2.0 -4.35 -2.05 -4.35 -2.3 -4.25 M-3.85 0.4 L-3.05 -0.05 Q-2.35 -0.55 -1.4 -0.65 L-0.1 -0.85 0.55 -0.85 -0.5 -0.45 -1.35 0.2 -2.05 0.95 -1.35 0.2 -0.5 -0.45 0.55 -0.85 -0.1 -0.85 -1.4 -0.65 Q-2.35 -0.55 -3.05 -0.05 L-3.85 0.4" fill="#faf8f8" fill-rule="evenodd" stroke="none"/>
    <path d="M-3.0 -2.95 L-4.25 -1.85 Q-3.95 -3.0 -3.1 -3.7 L-2.6 -4.05 -2.3 -4.25 -2.05 -4.35 -3.0 -2.95 M1.75 4.1 L0.3 0.75 0.9 0.55 2.55 0.7 3.6 0.85 4.5 1.3 3.85 0.75 2.5 -0.25 2.0 -0.65 2.2 -0.75 3.2 -0.7 4.75 -0.5 Q5.5 -0.3 5.9 0.05 L6.15 0.4 4.45 -0.35 4.45 -0.3 5.3 1.85 Q5.7 2.85 5.55 4.1 L1.75 4.1 M4.35 -1.65 L1.5 -1.7 3.1 -2.05 -1.25 -2.2 Q-0.35 -2.75 0.7 -2.9 L4.2 -3.2 4.65 -2.9 1.9 -2.75 2.85 -2.3 4.35 -1.65" fill="#d6baba" fill-rule="evenodd" stroke="none"/>
    <path d="M-3.0 -2.95 L-2.05 -4.35 -2.0 -4.35 -2.05 -4.4 -2.3 -4.25 -3.8 -3.4 -4.8 -2.45 -5.35 -1.7 -5.65 -0.5 -5.85 -1.95 -5.9 -2.05 -5.9 -1.95 -6.1 -0.6 -6.15 1.15 Q-3.8 5.45 1.75 4.1 L5.55 4.1 Q5.7 2.85 5.3 1.85 L4.45 -0.3 4.45 -0.35 6.15 0.4 5.05 -1.05 4.35 -1.65 2.85 -2.3 1.9 -2.75 4.65 -2.9 4.2 -3.2 2.75 -3.8 0.9 -3.9 -1.05 -3.65 -2.8 -3.0 -3.0 -2.95 M-2.05 0.95 L-1.35 0.2 -0.5 -0.45 0.55 -0.85 -0.1 -0.85 -1.4 -0.65 Q-2.35 -0.55 -3.05 -0.05 L-3.85 0.4" fill="none" stroke="#a36a6a" stroke-linecap="round" stroke-linejoin="round" stroke-width="1"/>
  </g>
</svg>