<?xml version="1.0" encoding="UTF-8" standalone="no"?>
<svg xmlns:xlink="http://www.w3.org/1999/xlink" height="5.45px" width="9.05px" xmlns="http://www.w3.org/2000/svg">
  <g id="shape0" transform="matrix(1.0, 0.0, 0.0, 1.0, 4.5, 2.7)">
    <path d="M2.8 -1.7 L3.35 -1.2 3.55 -0.55 3.55 -0.2 1.65 1.05 1.05 1.3 Q0.05 1.85 -1.0 1.7 L-1.4 1.65 -1.2 1.55 Q-0.25 1.25 -0.25 0.85 L-0.1 0.4 Q-0.25 0.15 -0.5 0.15 L-1.35 0.3 -2.3 0.1 -3.35 -0.1 -3.5 -0.05 -3.4 -0.8 -3.35 -1.1 -3.15 -1.6 -2.05 -1.4 -0.3 -1.2 Q1.45 -1.2 2.8 -1.7" fill="#d6baba" fill-rule="evenodd" stroke="none"/>
    <path d="M-3.5 -0.05 L-3.35 -0.1 -2.3 0.1 -1.35 0.3 -0.5 0.15 Q-0.25 0.15 -0.1 0.4 L-0.25 0.85 Q-0.25 1.25 -1.2 1.55 L-1.4 1.65 -3.25 1.35 -3.35 1.25 -3.5 0.2 -3.5 0.15 -3.5 -0.05" fill="#faf8f8" fill-rule="evenodd" stroke="none"/>
    <path d="M-1.4 1.65 L-1.0 1.7 Q0.05 1.85 1.05 1.3 L1.65 1.05 3.55 -0.2 3.55 -0.55 3.35 -1.2 2.8 -1.7 M-3.15 -1.6 L-3.35 -1.1 -3.4 -0.8 -3.5 -0.05 -3.5 0.15 -3.5 0.2 -3.35 1.25 -3.25 1.35 -1.4 1.65" fill="none" stroke="#a36a6a" stroke-linecap="round" stroke-linejoin="round" stroke-width="1"/>
  </g>
</svg>