<?xml version="1.0" encoding="UTF-8" standalone="no"?>
<svg xmlns:xlink="http://www.w3.org/1999/xlink" height="12.1px" width="9.8px" xmlns="http://www.w3.org/2000/svg">
  <g id="shape0" transform="matrix(1.0, 0.0, 0.0, 1.0, 4.9, 6.05)">
    <path d="M1.0 -3.3 L2.6 -5.05 3.2 -3.6 2.5 -2.6 2.35 -2.3 2.0 -1.75 2.3 -1.75 2.3 -1.7 2.0 -1.25 1.85 -0.95 2.1 -0.35 2.35 0.15 Q2.65 0.85 2.5 1.8 L2.5 2.1 -0.1 4.85 -1.9 4.5 Q-2.5 4.35 -2.9 4.0 L-3.65 2.85 -3.9 1.3 -3.8 0.6 -3.55 -0.25 Q-3.25 -1.0 -2.3 -1.55 L-1.1 -2.0 -0.55 -2.25 Q0.2 -2.0 1.0 -2.6 L1.75 -3.2 1.0 -3.3" fill="#faf8f8" fill-rule="evenodd" stroke="none"/>
    <path d="M3.2 -3.6 L3.35 -3.15 3.35 -2.85 3.4 -2.4 3.15 -2.0 3.05 -1.6 3.1 -1.2 3.7 0.45 3.9 1.5 3.7 2.5 2.45 4.3 Q1.55 5.3 1.05 5.0 L0.05 4.8 -0.1 4.85 2.5 2.1 2.5 1.8 Q2.65 0.85 2.35 0.15 L2.1 -0.35 1.85 -0.95 2.0 -1.25 2.3 -1.7 2.3 -1.75 2.0 -1.75 2.35 -2.3 2.5 -2.6 3.2 -3.6 M-0.55 -2.25 L0.8 -3.1 1.0 -3.3 1.75 -3.2 1.0 -2.6 Q0.2 -2.0 -0.55 -2.25" fill="#d6baba" fill-rule="evenodd" stroke="none"/>
    <path d="M1.0 -3.3 L2.6 -5.05 3.2 -3.6 3.35 -3.15 3.35 -2.85 3.4 -2.4 3.15 -2.0 3.05 -1.6 3.1 -1.2 3.7 0.45 3.9 1.5 3.7 2.5 2.45 4.3 Q1.55 5.3 1.05 5.0 L0.05 4.8 M-0.1 4.85 L-1.9 4.5 Q-2.5 4.35 -2.9 4.0 L-3.65 2.85 -3.9 1.3 -3.8 0.6 -3.55 -0.25 Q-3.25 -1.0 -2.3 -1.55 L-1.1 -2.0 -0.55 -2.25 0.8 -3.1 1.0 -3.3" fill="none" stroke="#a36a6a" stroke-linecap="round" stroke-linejoin="round" stroke-width="1"/>
  </g>
</svg>