<?xml version="1.0" encoding="UTF-8" standalone="no"?>
<svg xmlns:xlink="http://www.w3.org/1999/xlink" height="19.65px" width="11.55px" xmlns="http://www.w3.org/2000/svg">
  <g transform="matrix(1.0, 0.0, 0.0, 1.0, 2.45, 3.8)">
    <path d="M0.25 1.7 L-0.85 0.65 Q-1.4 0.05 -1.45 -0.7 L-1.45 -0.85 Q-1.45 -1.65 -0.85 -2.2 -0.3 -2.8 0.55 -2.8 1.35 -2.8 1.95 -2.2 L5.85 1.55 Q7.95 3.6 8.1 5.85 L8.1 6.35 8.1 6.55 7.4 6.85 Q6.75 7.1 6.25 5.9 L5.65 4.6 5.05 3.5 4.2 2.6 2.45 2.1 1.0 2.0 0.7 2.1 0.25 1.7" fill="#e3ad8a" fill-rule="evenodd" stroke="none"/>
    <path d="M0.25 1.7 L0.7 2.1 1.0 2.0 2.45 2.1 4.2 2.6 5.05 3.5 5.65 4.6 6.25 5.9 Q6.75 7.1 7.4 6.85 L8.1 6.55 8.05 6.75 Q7.95 9.3 5.25 12.05 L5.3 11.95 3.15 14.2 Q2.55 14.8 1.75 14.85 0.9 14.9 0.3 14.35 -0.3 13.75 -0.35 12.95 -0.4 12.1 0.2 11.5 L2.35 9.25 2.4 9.2 Q3.85 7.7 4.1 6.45 4.05 5.35 3.05 4.4 L0.25 1.7" fill="#d88c5a" fill-rule="evenodd" stroke="none"/>
    <path d="M1.3 2.7 L3.05 4.4 Q4.05 5.35 4.1 6.45 3.85 7.7 2.4 9.2 L2.35 9.25 0.2 11.5 Q-0.4 12.1 -0.35 12.95 -0.3 13.75 0.3 14.35 0.9 14.9 1.75 14.85 2.55 14.8 3.15 14.2 L5.3 11.95 5.25 12.05 Q7.95 9.3 8.05 6.75 8.4 4.0 5.85 1.55 L1.95 -2.2 Q1.35 -2.8 0.55 -2.8 -0.3 -2.8 -0.85 -2.2 -1.45 -1.6 -1.45 -0.75" fill="none" stroke="#975224" stroke-linecap="round" stroke-linejoin="round" stroke-width="1"/>
  </g>
</svg>