<?xml version="1.0" encoding="UTF-8" standalone="no"?>
<svg xmlns:xlink="http://www.w3.org/1999/xlink" height="7.9px" width="13.4px" xmlns="http://www.w3.org/2000/svg">
  <g transform="matrix(1.0, 0.0, 0.0, 1.0, 10.7, 3.95)">
    <path d="M-7.15 1.2 L-7.7 0.8 -8.95 1.7 Q-9.55 1.7 -9.55 1.25 L-9.0 -0.2 -8.4 -1.0 -9.2 -0.8 -9.4 -0.55 -9.7 -1.2 -9.25 -1.9 Q-8.7 -2.45 -8.0 -2.45 L-7.5 -2.1 -7.4 -2.05 -7.3 -1.45 -7.3 -1.4 -7.05 -1.4 -6.5 -1.15 -7.05 -1.4 -6.95 -1.4 -7.35 -2.2 -7.5 -2.45 Q-7.5 -3.2 -6.7 -2.8 -5.9 -2.45 -5.9 -2.05 L-6.0 -1.8 -6.2 -1.55 -6.2 -1.5 -6.5 -1.15 -6.4 -1.0 -6.3 -0.45 -5.9 0.0 -5.8 0.4 -6.0 1.0 Q-6.3 1.45 -6.75 1.45 L-7.15 1.2 M-8.4 -1.0 Q-7.8 -1.4 -7.3 -1.4 -7.8 -1.4 -8.4 -1.0" fill="#f3ddcf" fill-rule="evenodd" stroke="none"/>
    <path d="M-7.5 -2.1 L-7.35 -2.2 -6.95 -1.4 -7.05 -1.4 -7.3 -1.4 -7.3 -1.45 -7.4 -2.05 -7.5 -2.1 M-6.0 -1.8 L-0.9 -1.8 1.15 -1.35 Q2.0 -0.8 1.5 0.35 0.95 1.5 0.45 1.5 L-2.2 1.1 -4.05 1.9 -4.2 2.0 Q-5.15 2.95 -5.8 2.95 L-6.85 2.1 -6.95 2.0 -7.6 0.9 -7.15 1.2 -6.75 1.45 Q-6.3 1.45 -6.0 1.0 L-5.8 0.4 -5.9 0.0 -6.3 -0.45 -6.4 -1.0 -6.5 -1.15 -6.2 -1.5 -6.2 -1.55 -6.0 -1.8 M-5.6 -1.75 L-5.75 -1.6 -5.9 -1.2 -6.05 -0.8 -5.2 -0.05 -4.15 -0.45 -2.5 -0.6 -1.6 -0.75 -3.0 -1.35 -3.15 -1.6 -4.4 -1.65 -5.6 -1.75 M-7.05 -1.4 L-7.3 -1.4 -7.05 -1.4" fill="#d88c5a" fill-rule="evenodd" stroke="none"/>
    <path d="M-5.6 -1.75 L-4.4 -1.65 -3.15 -1.6 -3.0 -1.35 -1.6 -0.75 -2.5 -0.6 -4.15 -0.45 -5.2 -0.05 -6.05 -0.8 -5.9 -1.2 -5.75 -1.6 -5.6 -1.75" fill="#e3ad8a" fill-rule="evenodd" stroke="none"/>
    <path d="M-7.15 1.2 L-7.7 0.8 -8.95 1.7 Q-9.55 1.7 -9.55 1.25 L-9.0 -0.2 -8.4 -1.0 -9.2 -0.8 -9.4 -0.55 -9.7 -1.2 -9.25 -1.9 Q-8.7 -2.45 -8.0 -2.45 L-7.5 -2.1 M-7.35 -2.2 L-7.5 -2.45 Q-7.5 -3.2 -6.7 -2.8 -5.9 -2.45 -5.9 -2.05 L-6.0 -1.8 -0.9 -1.8 1.15 -1.35 Q2.0 -0.8 1.5 0.35 0.95 1.5 0.45 1.5 L-2.2 1.1 -4.05 1.9 -4.2 2.0 Q-5.15 2.95 -5.8 2.95 L-6.85 2.1 -6.95 2.0 -7.6 0.9 -7.15 1.2 M-6.5 -1.15 L-7.05 -1.4 -7.3 -1.4 Q-7.8 -1.4 -8.4 -1.0" fill="none" stroke="#975224" stroke-linecap="round" stroke-linejoin="round" stroke-width="1"/>
  </g>
</svg>