<?xml version="1.0" encoding="UTF-8" standalone="no"?>
<svg xmlns:xlink="http://www.w3.org/1999/xlink" height="28.3px" width="27.85px" xmlns="http://www.w3.org/2000/svg">
  <g id="shape0" transform="matrix(1.0, 0.0, 0.0, 1.0, 14.6, 18.3)">
    <path d="M-11.6 -9.85 L-7.15 -3.55 -6.95 -3.25 -5.1 -0.7 -7.05 -5.6 -5.45 -3.55 -5.2 -3.2 -2.2 0.2 Q-2.95 -1.0 -3.9 -3.55 L-4.4 -5.3 Q-5.65 -9.1 -6.45 -13.05 L-5.8 -11.55 Q-4.6 -9.15 -3.0 -6.95 L-2.85 -6.75 Q-1.05 -4.2 0.7 -3.0 L-0.2 -5.15 -0.85 -6.5 -1.45 -7.85 -0.2 -6.45 3.1 -3.1 1.3 -6.5 0.85 -7.5 -0.25 -10.35 -0.7 -11.65 -0.75 -11.8 -0.6 -11.65 Q0.85 -9.25 2.75 -7.25 L3.65 -6.35 6.85 -3.1 5.45 -8.7 5.55 -8.65 Q5.85 -7.7 6.65 -6.4 L7.65 -5.0 9.45 -1.9 10.35 -0.1 10.35 -2.3 Q10.7 -4.0 9.75 -7.15 L9.6 -7.55 8.55 -10.5 10.3 -8.0 10.65 -7.4 Q12.25 -4.55 12.25 -2.15 12.25 0.9 11.0 3.2 10.55 4.1 9.4 4.8 L8.4 5.35 8.05 5.4 7.9 5.6 6.55 6.65 6.6 6.85 Q6.6 7.3 5.8 7.95 L5.3 8.5 Q4.35 8.95 3.5 9.0 L1.3 8.9 -5.0 7.25 -6.1 6.9 Q-7.05 6.6 -9.05 4.9 L-10.8 2.7 -11.0 2.35 -12.1 0.45 -12.05 0.45 -11.0 1.25 -9.8 2.1 -8.25 3.1 -8.25 2.95 Q-9.6 1.95 -11.0 -0.6 L-11.4 -1.4 -12.4 -3.55 -13.6 -8.55 -9.85 -5.8 -11.6 -9.85 M4.85 7.7 L6.35 6.85 6.55 6.65 6.35 6.85 4.85 7.7 M-0.75 -11.8 L-0.8 -11.85 -0.8 -11.9 -0.75 -11.8" fill="#d6baba" fill-rule="evenodd" stroke="none"/>
    <path d="M-6.85 -8.3 L-7.2 -11.65 -7.45 -13.7 -7.8 -15.6 -7.8 -15.85 -7.65 -15.8 -6.0 -14.15 -5.65 -13.7 -4.6 -12.2 -4.5 -15.1 -4.25 -16.65 -4.15 -16.95 -4.25 -17.2 -4.1 -17.3 -1.05 -13.65 Q-0.25 -12.65 1.15 -11.65 L1.65 -11.2 3.15 -9.75 3.2 -9.7 3.25 -9.7 3.15 -9.75 2.5 -11.65 2.35 -11.95 1.45 -14.1 1.45 -15.1 2.95 -13.4 Q3.95 -12.35 4.8 -11.65 L5.7 -10.8 Q7.3 -9.5 8.3 -7.95 L8.95 -6.9 8.6 -8.45 8.15 -11.05 8.55 -10.5 9.6 -7.55 9.75 -7.15 Q10.7 -4.0 10.35 -2.3 L10.35 -0.1 9.45 -1.9 7.65 -5.0 6.65 -6.4 Q5.85 -7.7 5.55 -8.65 L5.45 -8.7 6.85 -3.1 3.65 -6.35 2.75 -7.25 Q0.85 -9.25 -0.6 -11.65 L-0.75 -11.8 -0.7 -11.65 -0.25 -10.35 0.85 -7.5 1.3 -6.5 3.1 -3.1 -0.2 -6.45 -1.45 -7.85 -0.85 -6.5 -0.2 -5.15 0.7 -3.0 Q-1.05 -4.2 -2.85 -6.75 L-3.0 -6.95 Q-4.6 -9.15 -5.8 -11.55 L-6.45 -13.05 Q-5.65 -9.1 -4.4 -5.3 L-3.9 -3.55 Q-2.95 -1.0 -2.2 0.2 L-5.2 -3.2 -5.45 -3.55 -7.05 -5.6 -5.1 -0.7 -6.95 -3.25 -7.15 -3.55 -11.6 -9.85 -11.85 -10.35 -6.85 -8.3 -6.35 -6.2 -6.85 -8.3 M9.25 -5.8 L9.35 -5.6 8.95 -6.9 9.25 -5.8 M-0.75 -11.8 L-0.8 -11.9 -0.8 -11.85 -0.75 -11.8" fill="#ffffff" fill-rule="evenodd" stroke="none"/>
    <path d="M8.95 -6.9 L8.3 -7.95 Q7.3 -9.5 5.7 -10.8 L4.8 -11.65 Q3.95 -12.35 2.95 -13.4 L1.45 -15.1 1.45 -14.1 2.35 -11.95 2.5 -11.65 3.15 -9.75 3.25 -9.7 3.2 -9.7 3.15 -9.75 1.65 -11.2 1.15 -11.65 Q-0.25 -12.65 -1.05 -13.65 L-4.1 -17.3 -4.25 -17.2 -4.15 -16.95 -4.25 -16.65 -4.5 -15.1 -4.6 -12.2 -5.65 -13.7 -6.0 -14.15 -7.65 -15.8 -7.8 -15.85 -7.8 -15.6 -7.45 -13.7 -7.2 -11.65 -6.85 -8.3 -6.35 -6.2 M8.15 -11.05 L8.6 -8.45 8.95 -6.9 9.35 -5.6 9.25 -5.8 M-11.6 -9.85 L-9.85 -5.8 -13.6 -8.55 -12.4 -3.55 -11.4 -1.4 -11.0 -0.6 Q-9.6 1.95 -8.25 2.95 L-8.25 3.1 -9.8 2.1 -11.0 1.25 -12.05 0.45 -12.1 0.45 -11.0 2.35 -10.8 2.7 -9.05 4.9 Q-7.05 6.6 -6.1 6.9 L-5.0 7.25 1.3 8.9 3.5 9.0 Q4.35 8.95 5.3 8.5 L5.8 7.95 Q6.6 7.3 6.6 6.85 L6.55 6.65 6.35 6.85 4.85 7.7 M6.55 6.65 L7.9 5.6 8.05 5.4 8.4 5.35 9.4 4.8 Q10.55 4.1 11.0 3.2 12.25 0.9 12.25 -2.15 12.25 -4.55 10.65 -7.4 L10.3 -8.0 8.55 -10.5 M-6.85 -8.3 L-11.85 -10.35 -11.6 -9.85" fill="none" stroke="#a36a6a" stroke-linecap="round" stroke-linejoin="round" stroke-width="1"/>
  </g>
</svg>