<?xml version="1.0" encoding="UTF-8" standalone="no"?>
<svg xmlns:xlink="http://www.w3.org/1999/xlink" height="27.5px" width="35.75px" xmlns="http://www.w3.org/2000/svg">
  <g id="shape0" transform="matrix(1.0, 0.0, 0.0, 1.0, 14.2, 15.45)">
    <path d="M-10.45 4.25 L-10.35 3.8 -9.3 1.75 Q-8.65 0.4 -7.75 -0.05 -6.9 -0.3 -6.8 -0.45 L-8.7 -2.15 -8.6 -2.15 Q-7.85 -2.3 -6.05 -1.5 -4.45 -0.8 -4.3 -0.55 L-4.3 -0.65 -8.65 -5.8 -6.25 -4.8 Q-3.95 -3.6 -3.8 -2.3 L-3.8 -2.35 Q-3.6 -5.9 -2.2 -8.9 L-2.15 -9.05 -2.15 -8.4 -2.3 -4.95 -0.7 -6.9 0.7 -8.3 Q1.25 -8.8 5.3 -10.3 L7.15 -10.95 8.6 -11.35 8.6 -11.3 Q7.25 -10.5 6.0 -8.6 4.65 -6.5 4.4 -4.5 L4.45 -4.5 7.95 -7.65 8.1 -7.85 8.2 -7.9 7.95 -7.65 Q6.8 -6.25 6.5 -4.3 7.45 -6.1 11.3 -7.95 15.05 -9.8 18.5 -10.3 L20.55 -10.35 16.15 -7.8 Q13.8 -6.05 12.95 -4.1 L12.65 -3.2 12.7 -3.2 13.3 -3.35 14.5 -3.5 17.3 -3.15 17.15 -3.1 Q16.65 -3.1 15.25 -2.35 L13.05 -0.95 10.95 1.1 10.15 2.2 9.9 2.3 Q9.5 2.5 9.1 2.8 L7.65 3.05 6.35 2.85 Q5.85 2.85 5.05 3.45 L3.9 4.05 3.7 3.6 3.6 2.15 3.55 2.15 Q1.35 4.9 -0.15 8.35 L-1.4 11.05 -2.85 9.75 Q-4.15 8.4 -4.35 8.4 -5.05 8.4 -5.0 11.05 L-5.1 11.0 -6.8 8.55 -7.5 6.45 -7.85 4.8 -7.9 4.8 -9.15 7.25 -9.2 7.25 -9.5 6.05 -9.75 5.7 -10.35 4.45 -10.45 4.25 M1.0 -3.5 L1.85 -7.2 0.15 -5.4 -0.15 -5.05 -2.1 -2.1 0.65 -2.15 1.0 -3.5" fill="#d6baba" fill-rule="evenodd" stroke="none"/>
    <path d="M-13.2 0.75 L-12.3 -2.0 Q-11.45 -4.0 -9.95 -5.0 L-12.6 -5.85 Q-11.4 -7.25 -9.4 -7.25 L-8.35 -7.0 -7.7 -6.75 -8.4 -9.0 -9.0 -11.3 Q-8.45 -10.55 -7.3 -9.7 L-5.2 -8.5 -5.2 -8.6 Q-5.65 -8.75 -6.75 -10.6 L-7.4 -11.3 -4.95 -11.55 -4.65 -11.55 -2.55 -11.1 -1.3 -10.3 -0.45 -14.45 -0.4 -14.45 0.75 -12.2 1.4 -10.25 1.45 -10.25 Q1.65 -10.55 3.2 -11.35 L4.15 -11.8 6.25 -12.55 9.85 -13.0 12.35 -13.5 12.25 -13.4 9.6 -9.1 Q12.35 -10.3 16.35 -10.3 L18.35 -10.3 18.5 -10.3 Q15.05 -9.8 11.3 -7.95 7.45 -6.1 6.5 -4.3 6.8 -6.25 7.95 -7.65 L8.2 -7.9 8.1 -7.85 7.95 -7.65 4.45 -4.5 4.4 -4.5 Q4.65 -6.5 6.0 -8.6 7.25 -10.5 8.6 -11.3 L8.6 -11.35 7.15 -10.95 5.3 -10.3 Q1.25 -8.8 0.7 -8.3 L-0.7 -6.9 -2.3 -4.95 -2.15 -8.4 -2.15 -9.05 -2.2 -8.9 Q-3.6 -5.9 -3.8 -2.35 L-3.8 -2.3 Q-3.95 -3.6 -6.25 -4.8 L-8.65 -5.8 -4.3 -0.65 -4.3 -0.55 Q-4.45 -0.8 -6.05 -1.5 -7.85 -2.3 -8.6 -2.15 L-8.7 -2.15 -6.8 -0.45 Q-6.9 -0.3 -7.75 -0.05 -8.65 0.4 -9.3 1.75 L-10.35 3.8 -10.45 4.25 -10.75 2.5 Q-10.75 -0.25 -9.9 -1.1 L-10.3 -1.1 Q-12.5 0.15 -13.15 0.8 L-13.2 0.75 M1.0 -3.5 L0.65 -2.15 -2.1 -2.1 -0.15 -5.05 0.15 -5.4 1.85 -7.2 1.0 -3.5" fill="#ffffff" fill-rule="evenodd" stroke="none"/>
    <path d="M18.35 -10.3 L16.35 -10.3 Q12.35 -10.3 9.6 -9.1 L12.25 -13.4 12.35 -13.5 9.85 -13.0 6.25 -12.55 4.15 -11.8 3.2 -11.35 Q1.65 -10.55 1.45 -10.25 L1.4 -10.25 0.75 -12.2 -0.4 -14.45 -0.45 -14.45 -1.3 -10.3 -2.55 -11.1 -4.65 -11.55 -4.95 -11.55 -7.4 -11.3 -6.75 -10.6 Q-5.65 -8.75 -5.2 -8.6 L-5.2 -8.5 -7.3 -9.7 Q-8.45 -10.55 -9.0 -11.3 L-8.4 -9.0 -7.7 -6.75 -8.35 -7.0 -9.4 -7.25 Q-11.4 -7.25 -12.6 -5.85 L-9.95 -5.0 Q-11.45 -4.0 -12.3 -2.0 L-13.2 0.75 -13.2 0.8 -13.15 0.8 Q-12.5 0.15 -10.3 -1.1 L-9.9 -1.1 Q-10.75 -0.25 -10.75 2.5 L-10.45 4.25 -10.35 4.45 -9.75 5.7 -9.5 6.05 -9.2 7.25 -9.2 7.3 -9.15 7.25 -7.9 4.8 -7.85 4.8 -7.5 6.45 -6.8 8.55 -5.1 11.0 -5.0 11.05 Q-5.05 8.4 -4.35 8.4 -4.15 8.4 -2.85 9.75 L-1.4 11.05 -0.15 8.35 Q1.35 4.9 3.55 2.15 L3.6 2.15 3.7 3.6 3.9 4.05 5.05 3.45 Q5.85 2.85 6.35 2.85 L7.65 3.05 9.1 2.8 Q9.5 2.5 9.9 2.3 L10.15 2.2 10.95 1.1 13.05 -0.95 15.25 -2.35 Q16.65 -3.1 17.15 -3.1 L17.3 -3.15 14.5 -3.5 13.3 -3.35 12.7 -3.2 12.65 -3.2 12.95 -4.1 Q13.8 -6.05 16.15 -7.8 L20.55 -10.35 18.5 -10.3" fill="none" stroke="#a36a6a" stroke-linecap="round" stroke-linejoin="round" stroke-width="1"/>
  </g>
</svg>