<?xml version="1.0" encoding="UTF-8" standalone="no"?>
<svg xmlns:xlink="http://www.w3.org/1999/xlink" height="12.6px" width="14.6px" xmlns="http://www.w3.org/2000/svg">
  <g id="shape0" transform="matrix(1.0, 0.0, 0.0, 1.0, 8.3, 7.8)">
    <path d="M2.35 -4.9 L2.95 -4.4 3.5 -3.65 3.9 -4.85 4.3 -1.95 Q4.55 -2.0 5.1 -2.55 L5.2 -1.95 4.55 -0.8 5.25 0.6 5.3 1.05 4.45 0.05 4.45 0.15 3.8 1.65 3.2 2.35 2.3 2.8 1.35 2.9 1.35 2.8 2.0 2.05 1.95 1.95 1.0 1.95 1.05 1.75 3.15 0.25 1.4 0.3 -0.25 0.05 -0.2 -0.05 Q-0.1 -0.05 -0.15 -0.15 L2.0 -0.5 -3.25 -1.85 -3.2 -1.9 -1.25 -1.85 0.35 -1.7 -0.6 -2.3 -0.6 -2.4 1.5 -2.45 -0.3 -3.35 Q-1.8 -4.15 -2.0 -4.45 L-2.0 -4.5 0.0 -4.1 1.9 -3.9 1.85 -4.0 0.55 -4.75 -0.8 -5.55 -0.7 -5.65 0.95 -5.25 2.35 -4.9" fill="#ffffff" fill-rule="evenodd" stroke="none"/>
    <path d="M2.35 -4.9 L0.95 -5.25 -0.7 -5.65 -0.8 -5.55 0.55 -4.75 1.85 -4.0 1.9 -3.9 0.0 -4.1 -2.0 -4.5 -2.0 -4.45 Q-1.8 -4.15 -0.3 -3.35 L1.5 -2.45 -0.6 -2.4 -0.6 -2.3 0.35 -1.7 -1.25 -1.85 -3.2 -1.9 -3.25 -1.85 2.0 -0.5 -0.15 -0.15 Q-0.1 -0.05 -0.2 -0.05 L-0.25 0.05 1.4 0.3 3.15 0.25 1.05 1.75 1.0 1.95 1.95 1.95 2.0 2.05 1.35 2.8 1.35 2.9 2.3 2.8 3.2 2.35 3.8 1.65 3.6 1.95 3.2 2.35 Q2.0 3.55 0.0 3.8 L-1.0 3.75 -0.95 3.65 Q-0.35 3.35 0.35 2.45 L0.25 2.5 -1.25 2.9 Q-2.75 3.15 -3.55 2.55 L-1.15 0.6 -2.9 0.7 -4.9 0.7 -4.8 0.55 Q-4.65 0.35 -3.25 -0.15 L-1.7 -0.55 -4.55 -1.2 -6.6 -2.05 Q-7.15 -2.35 -7.3 -2.65 L-6.65 -2.6 -6.1 -2.6 -4.35 -2.55 Q-3.0 -2.75 -2.6 -3.15 L-4.1 -4.1 -4.05 -4.1 -2.5 -4.3 -3.95 -4.8 Q-5.15 -5.2 -5.25 -5.45 L-3.1 -5.7 -0.8 -5.35 -0.95 -5.45 -3.55 -6.7 -3.55 -6.8 0.35 -5.85 2.35 -4.9" fill="#d6baba" fill-rule="evenodd" stroke="none"/>
    <path d="M3.8 1.65 L4.45 0.15 4.45 0.05 5.3 1.05 5.25 0.6 4.55 -0.8 5.2 -1.95 5.1 -2.55 Q4.55 -2.0 4.3 -1.95 L3.9 -4.85 3.5 -3.65 2.95 -4.4 2.35 -4.9 0.35 -5.85 -3.55 -6.8 -3.7 -6.75 -3.55 -6.7 -0.95 -5.45 -0.8 -5.35 -3.1 -5.7 -5.25 -5.45 Q-5.15 -5.2 -3.95 -4.8 L-2.5 -4.3 -4.05 -4.1 -4.1 -4.1 -2.6 -3.15 Q-3.0 -2.75 -4.35 -2.55 L-6.1 -2.6 -6.65 -2.6 -7.3 -2.65 Q-7.15 -2.35 -6.6 -2.05 L-4.55 -1.2 -1.7 -0.55 -3.25 -0.15 Q-4.65 0.35 -4.8 0.55 L-4.9 0.7 -2.9 0.7 -1.15 0.6 -3.55 2.55 Q-2.75 3.15 -1.25 2.9 L0.25 2.5 0.35 2.45 Q-0.35 3.35 -0.95 3.65 L-1.0 3.75 0.0 3.8 Q2.0 3.55 3.2 2.35 L3.6 1.95 3.8 1.65 Z" fill="none" stroke="#a36a6a" stroke-linecap="round" stroke-linejoin="round" stroke-width="1"/>
  </g>
</svg>