<?xml version="1.0" encoding="UTF-8" standalone="no"?>
<svg xmlns:xlink="http://www.w3.org/1999/xlink" height="75.2px" width="39.85px" xmlns="http://www.w3.org/2000/svg">
  <g transform="matrix(1.0, 0.0, 0.0, 1.0, 20.85, 37.6)">
    <path d="M-4.3 31.25 Q-3.9 29.7 -3.85 28.4 L-1.7 29.65 Q-3.8 33.0 -5.35 36.6 -5.05 33.9 -4.3 31.25 M-13.25 13.7 Q-12.3 16.85 -10.8 19.8 -14.3 19.05 -17.6 22.45 -14.8 18.35 -13.25 13.7 M-15.15 -1.65 Q-16.3 -2.65 -17.85 -3.45 L-14.95 -5.55 -15.15 -1.65 M-19.85 -21.6 Q-16.1 -19.0 -11.7 -18.3 -12.95 -15.65 -13.7 -12.65 -15.15 -17.85 -19.85 -21.6 M-3.3 -29.3 L-4.55 -28.35 Q-4.45 -32.35 -4.7 -36.45 L-4.4 -33.9 Q-4.05 -31.55 -3.3 -29.3 M10.95 25.55 L10.65 25.1 Q10.7 25.0 10.8 25.0 L10.95 25.55 M7.15 -31.0 Q8.55 -33.6 9.0 -36.6 9.3 -34.85 8.9 -33.05 8.6 -31.75 8.6 -30.5 L7.15 -31.0 M13.5 -27.2 Q14.45 -27.6 15.3 -28.25 L18.0 -31.25 Q17.3 -27.85 15.5 -24.8 L13.5 -27.2" fill="#ffffff" fill-rule="evenodd" stroke="none"/>
  </g>
</svg>