<?xml version="1.0" encoding="UTF-8" standalone="no"?><svg xmlns:xlink="http://www.w3.org/1999/xlink" height="5.65px" width="5.1px" xmlns="http://www.w3.org/2000/svg"><g id="shape0" transform="matrix(1.0, 0.0, 0.0, 1.0, 2.55, 2.8)"><path d="M-1.4 1.4 Q-1.75 0.75 -1.2 -1.55 L-0.75 -1.8 -0.3 -1.65 -0.15 0.35 -0.15 0.55 -0.3 0.55 -0.9 0.55 -1.0 0.7 -0.3 0.8 -0.15 0.8 -0.45 1.3 -0.95 1.45 -1.4 1.4" fill="#8E645F" fill-rule="evenodd" stroke="none"/><path d="M0.1 -0.95 L0.3 -0.5 1.55 0.0 Q1.7 1.2 0.65 1.8 L0.15 1.85 -0.05 1.8 -0.1 1.8 -0.55 1.7 -1.1 1.6 -1.2 1.6 -1.2 1.55 -1.4 1.4 -0.95 1.45 -0.45 1.3 -0.15 0.8 -0.3 0.8 -1.0 0.7 -0.9 0.55 -0.3 0.55 -0.15 0.55 -0.15 0.35 -0.3 -1.65 -0.05 -1.55 0.05 -1.1 0.1 -0.95 0.3 -0.5 0.1 -0.95 M-1.4 1.4 L-1.2 1.55 -1.4 1.4" fill="#6A2621" fill-rule="evenodd" stroke="none"/><path d="M0.3 -0.5 L1.55 0.0 Q1.7 1.2 0.65 1.8 L0.15 1.85 -0.05 1.8 -0.1 1.8 -0.55 1.7 -1.1 1.6 -1.2 1.6 -1.2 1.55 -1.4 1.4 Q-1.75 0.75 -1.2 -1.55 L-0.75 -1.8 -0.3 -1.65 -0.05 -1.55 0.05 -1.1 0.1 -0.95 0.3 -0.5 Z" fill="none" stroke="#370000" stroke-linecap="round" stroke-linejoin="round" stroke-width="1"/></g></svg>