<?xml version="1.0" encoding="UTF-8" standalone="no"?><svg xmlns:xlink="http://www.w3.org/1999/xlink" height="12.4px" width="11.85px" xmlns="http://www.w3.org/2000/svg"><g id="shape0" transform="matrix(1.0, 0.0, 0.0, 1.0, 1.05, 1)"><path d="M0.2 4.3 Q-0.25 2.25 0.2 0.0 1.0 1.55 2.35 2.7 5.35 5.2 9.2 5.3 L9.25 5.3 Q9.9 5.25 9.8 6.0 L9.35 7.55 2.35 4.65 2.2 5.35 0.0 1.75 0.2 4.3" fill="#7F6921" fill-rule="evenodd" stroke="none"/><path d="M0.2 4.3 L0.0 1.75 2.2 5.35 2.35 4.65 9.35 7.55 9.1 8.05 Q8.75 8.85 8.0 9.3 L6.35 10.05 5.0 10.4 4.2 10.3 Q2.05 8.85 1.05 6.5 L0.3 4.7 0.2 4.3" fill="#5B2B00" fill-rule="evenodd" stroke="none"/><path d="M9.35 7.55 L9.8 6.0 Q9.9 5.25 9.25 5.3 L9.2 5.3 Q5.35 5.2 2.35 2.7 1.0 1.55 0.2 0.0 -0.25 2.25 0.2 4.3 L0.3 4.7 1.05 6.5 Q2.05 8.85 4.2 10.3 L5.0 10.4 6.35 10.05 8.0 9.3 Q8.75 8.85 9.1 8.05 L9.35 7.55 Z" fill="none" stroke="#280000" stroke-linecap="round" stroke-linejoin="round" stroke-width="1"/></g></svg>