<?xml version="1.0" encoding="UTF-8" standalone="no"?>
<svg xmlns:xlink="http://www.w3.org/1999/xlink" height="38.3px" width="48.3px" xmlns="http://www.w3.org/2000/svg">
  <g transform="matrix(1.0, 0.0, 0.0, 1.0, 24.15, 19.15)">
    <path d="M20.9 -1.35 L20.35 -0.7 Q17.95 2.4 17.5 6.1 17.6 8.7 17.15 10.75 16.85 10.95 16.4 11.3 15.1 12.4 13.7 12.4 10.3 12.4 9.25 10.1 L8.4 8.45 8.35 8.3 Q7.75 6.75 5.75 5.5 3.8 4.2 1.5 4.7 L-1.4 5.5 -1.95 5.35 Q-4.2 5.35 -4.95 4.15 L-5.25 3.65 -5.3 2.7 -4.95 1.55 -4.6 0.55 -5.4 1.25 -5.65 1.85 -5.9 2.9 -5.9 2.8 -6.45 2.9 Q-7.6 2.9 -8.0 2.0 -8.4 1.1 -8.7 1.1 L-8.95 -0.25 -9.4 -2.7 -9.5 -3.0 Q-10.55 -7.25 -14.45 -8.2 L-15.75 -8.0 Q-16.7 -7.8 -17.5 -7.15 -19.5 -5.65 -20.15 -3.25 L-20.8 -0.75 Q-22.45 -2.0 -22.15 -4.1 L-21.8 -5.65 -20.25 -6.8 Q-16.9 -9.3 -13.85 -9.3 -10.3 -9.3 -9.25 -5.2 L-8.5 -2.4 Q-7.95 -1.1 -6.85 -1.1 -4.7 -1.1 -4.7 -4.8 L-5.15 -7.1 -3.2 -5.9 Q-1.75 -5.0 1.1 -4.2 -1.05 -2.75 -3.3 0.95 -3.65 2.6 -0.95 2.6 L3.05 2.25 Q7.6 3.65 9.5 3.65 13.25 3.65 13.25 0.9 12.3 -1.05 10.95 -2.35 L20.9 -1.35 M-6.75 -3.2 L-6.75 -3.3 -6.7 -3.3 -6.75 -3.2" fill="#e0cbcb" fill-rule="evenodd" stroke="none"/>
    <path d="M20.9 -1.35 L22.75 -3.25 Q23.15 -3.15 23.15 -2.95 20.1 1.6 19.4 3.45 18.75 5.1 18.8 9.8 18.75 11.4 17.75 13.4 16.4 15.8 14.15 16.15 L11.15 15.7 10.0 14.9 9.95 14.85 9.35 14.2 8.5 12.9 Q7.55 14.75 6.05 16.0 L5.55 16.2 5.25 16.35 5.6 16.25 7.1 16.95 7.8 17.35 8.3 17.7 7.85 18.15 -3.05 14.3 -3.05 13.95 -2.45 13.9 Q-3.25 12.8 -3.55 11.2 L-3.65 10.2 -3.7 9.65 -3.7 9.15 -3.65 9.0 -3.45 8.4 -3.25 8.0 -4.35 7.9 Q-4.8 7.65 -5.2 7.5 L-5.65 7.0 -6.15 6.1 -6.3 5.4 -6.9 5.55 -7.4 5.6 Q-8.55 5.6 -9.0 4.55 L-9.5 5.45 -9.9 6.1 -10.0 6.25 -10.05 6.3 -10.45 6.75 -10.75 7.1 -10.85 7.2 -11.15 7.4 -11.1 7.4 -11.25 7.5 -11.5 7.7 -11.6 7.75 Q-12.95 8.55 -14.55 8.65 L-16.15 8.65 -16.05 9.4 Q-16.05 9.75 -16.2 9.75 L-18.35 6.4 Q-19.55 4.95 -22.55 3.45 -22.4 3.25 -22.15 3.3 -21.8 3.25 -21.15 3.55 L-21.15 3.15 -21.1 1.55 -20.95 0.4 Q-22.75 -0.5 -23.0 -2.5 L-23.15 -3.9 Q-23.15 -5.5 -22.5 -7.0 L-22.3 -7.45 Q-21.2 -9.55 -18.55 -11.9 -15.85 -14.45 -13.2 -18.15 L-13.8 -16.65 -14.25 -15.6 -15.95 -13.05 -17.85 -11.15 -18.5 -10.55 -21.0 -7.4 -21.2 -7.05 -21.55 -6.4 -21.8 -5.65 -22.15 -4.1 Q-22.45 -2.0 -20.8 -0.75 L-20.15 -3.25 Q-19.5 -5.65 -17.5 -7.15 -16.7 -7.8 -15.75 -8.0 L-14.45 -8.2 Q-10.55 -7.25 -9.5 -3.0 L-9.4 -2.7 -8.95 -0.25 -8.7 1.1 -8.65 1.45 -8.4 3.05 Q-8.3 3.95 -7.55 4.65 L-6.75 4.45 -6.4 3.95 -5.9 2.9 -5.65 1.85 -5.4 1.25 -4.6 0.55 -4.95 1.55 -5.3 2.7 -5.25 3.65 -5.1 6.05 -4.15 6.95 Q-3.1 6.55 -1.85 5.75 L-1.4 5.5 1.5 4.7 Q3.8 4.2 5.75 5.5 7.75 6.75 8.35 8.3 L8.4 8.45 8.95 10.05 Q9.05 11.4 9.5 12.65 L9.65 13.1 Q10.1 14.3 11.2 14.6 L14.15 14.85 Q15.8 14.45 16.65 12.45 L17.05 11.25 17.1 11.05 17.15 10.75 Q17.6 8.7 17.5 6.1 17.95 2.4 20.35 -0.7 L20.9 -1.35 M4.5 5.95 Q2.9 5.3 1.45 5.4 -0.05 5.6 -0.85 6.5 -1.95 7.65 -2.25 8.5 L-2.7 9.15 -2.75 9.55 Q-2.75 11.0 -1.8 12.65 -0.35 15.25 2.55 15.45 L3.3 15.45 Q6.3 15.1 7.45 12.4 7.95 10.95 7.85 9.75 7.05 6.95 4.5 5.95 M-18.3 -5.15 L-19.1 -3.35 Q-19.95 -0.95 -20.2 1.55 L-20.1 4.2 -19.55 4.6 Q-18.2 5.6 -17.8 6.15 L-16.75 7.6 -14.85 7.8 Q-13.5 7.8 -12.2 7.0 -11.35 6.5 -10.75 5.85 -9.6 4.8 -9.7 3.15 L-10.1 -1.0 -10.5 -2.7 -10.75 -3.25 -11.85 -4.9 -14.0 -6.5 Q-15.15 -7.1 -16.15 -6.75 -17.6 -6.3 -18.3 -5.15" fill="#a36a6a" fill-rule="evenodd" stroke="none"/>
    <path d="M-21.8 -5.65 L-21.55 -6.4 -21.2 -7.05 -21.0 -7.4 -18.5 -10.55 -17.85 -11.15 -15.95 -13.05 -14.25 -15.6 -13.8 -16.65 -13.5 -16.35 -13.95 -15.0 Q-13.95 -12.5 -11.5 -10.8 L-10.7 -10.35 -8.1 -8.85 -7.7 -8.6 -6.4 -7.85 -5.8 -7.5 -5.15 -7.1 -4.7 -4.8 Q-4.7 -1.1 -6.85 -1.1 -7.95 -1.1 -8.5 -2.4 L-9.25 -5.2 Q-10.3 -9.3 -13.85 -9.3 -16.9 -9.3 -20.25 -6.8 L-21.8 -5.65 M-11.6 7.75 L-11.5 7.7 -11.5 7.75 -11.55 7.75 -11.65 7.75 -11.6 7.75 M1.1 -4.2 Q4.8 -3.15 10.95 -2.35 12.3 -1.05 13.25 0.9 13.25 3.65 9.5 3.65 7.6 3.65 3.05 2.25 L-0.95 2.6 Q-3.65 2.6 -3.3 0.95 -1.05 -2.75 1.1 -4.2 M-6.75 -3.2 L-6.7 -3.3 -6.75 -3.3 -6.75 -3.2" fill="url(#gradient0)" fill-rule="evenodd" stroke="none"/>
    <path d="M17.15 10.75 L17.1 11.05 17.05 11.25 16.65 12.45 Q15.8 14.45 14.15 14.85 L11.2 14.6 Q10.1 14.3 9.65 13.1 L9.5 12.65 Q9.05 11.4 8.95 10.05 L8.4 8.45 9.25 10.1 Q10.3 12.4 13.7 12.4 15.1 12.4 16.4 11.3 16.85 10.95 17.15 10.75 M-1.4 5.5 L-1.85 5.75 Q-3.1 6.55 -4.15 6.95 L-5.1 6.05 -5.25 3.65 -4.95 4.15 Q-4.2 5.35 -1.95 5.35 L-1.4 5.5 M-5.9 2.9 L-6.4 3.95 -6.75 4.45 -7.55 4.65 Q-8.3 3.95 -8.4 3.05 L-8.65 1.45 -8.7 1.1 Q-8.4 1.1 -8.0 2.0 -7.6 2.9 -6.45 2.9 L-5.9 2.8 -5.9 2.9 M-11.5 7.7 L-11.25 7.5 -11.1 7.4 -11.15 7.4 -10.85 7.2 -10.75 7.1 -10.45 6.75 -10.05 6.3 -10.0 6.25 -9.9 6.1 -9.5 5.45 -9.0 4.55 Q-8.55 5.6 -7.4 5.6 L-6.9 5.55 -6.3 5.4 -6.15 6.1 -5.65 7.0 -5.2 7.5 Q-4.8 7.65 -4.35 7.9 L-3.25 8.0 -3.45 8.4 -3.65 9.0 -3.7 9.15 -3.7 9.65 -3.65 10.2 -3.55 11.2 -4.65 9.65 Q-5.8 8.1 -8.35 7.7 L-9.25 7.6 -9.65 7.6 -9.7 7.6 -10.4 7.55 -10.85 7.6 -11.5 7.75 -11.5 7.7 M7.8 17.35 L7.1 16.95 5.6 16.25 5.55 16.2 6.05 16.0 Q7.55 14.75 8.5 12.9 L9.35 14.2 9.95 14.85 9.9 14.9 10.0 14.9 11.15 15.7 8.35 15.95 Q7.75 16.0 7.85 16.6 L7.8 17.35 M-5.75 10.5 L-8.1 9.45 -10.95 8.8 Q-10.65 8.4 -9.6 8.4 -8.4 8.4 -7.05 9.05 -5.6 9.75 -5.6 10.4 L-5.75 10.5" fill="#cca9a9" fill-rule="evenodd" stroke="none"/>
  </g>
  <defs>
    <radialGradient cx="0" cy="0" gradientTransform="matrix(0.0221, -0.0349, 0.0207, 0.0131, -8.0, -16.0)" gradientUnits="userSpaceOnUse" id="gradient0" r="819.2" spreadMethod="pad">
      <stop offset="0.47843137254901963" stop-color="#ffffff"></stop>
      <stop offset="0.8823529411764706" stop-color="#f2eaea"></stop>
    </radialGradient>
  </defs>
</svg>