<?xml version="1.0" encoding="UTF-8" standalone="no"?>
<svg xmlns:xlink="http://www.w3.org/1999/xlink" height="40.8px" width="51.1px" xmlns="http://www.w3.org/2000/svg">
  <g transform="matrix(1.0, 0.0, 0.0, 1.0, 24.35, 20.4)">
    <path d="M3.05 -7.55 Q5.0 -8.65 7.3 -8.8 L7.85 -8.8 Q10.15 -8.8 10.75 -7.8 L10.95 -7.3 10.95 -7.1 10.95 -7.0 10.9 -6.6 Q10.05 -8.2 7.6 -8.2 L4.9 -7.8 2.75 -6.8 2.5 -6.6 2.45 -6.6 1.75 -6.05 1.3 -5.65 1.25 -5.6 1.2 -5.55 1.15 -5.55 0.9 -5.2 0.8 -5.0 0.7 -4.9 0.5 -4.85 0.45 -4.95 0.5 -5.25 0.65 -5.65 0.8 -5.85 2.45 -7.2 2.45 -7.25 3.05 -7.55 M22.45 -6.55 L23.35 -8.7 22.95 -7.2 22.75 -6.55 22.4 -5.05 22.0 -3.4 21.5 -0.7 20.95 3.15 21.0 3.85 21.15 6.65 Q21.3 9.65 19.9 11.6 18.95 12.9 17.3 13.3 L16.6 13.45 16.0 13.5 15.8 13.5 15.65 13.5 15.25 13.5 11.85 13.15 10.85 15.1 Q10.0 16.25 8.85 17.0 L8.8 17.0 9.5 17.65 9.95 18.2 10.15 18.9 Q10.15 19.4 9.75 19.4 8.85 18.15 6.75 16.9 2.65 14.4 -3.45 14.4 -5.25 14.4 -5.25 13.9 L-3.55 13.55 -4.2 11.95 -4.75 9.75 -4.5 7.95 -3.8 6.4 Q-4.5 5.9 -4.7 3.7 L-4.85 3.05 -7.6 4.25 -7.65 4.2 -7.65 4.25 -7.65 4.3 -8.55 6.45 Q-10.35 9.4 -14.35 9.4 -18.85 9.4 -20.85 5.85 -22.0 3.8 -22.0 1.5 -22.0 -0.1 -21.45 -1.45 -23.15 -2.7 -23.35 -6.1 -23.35 -9.05 -18.1 -12.9 -16.05 -14.35 -14.3 -16.8 L-14.05 -17.2 -13.35 -18.35 -12.75 -19.4 -13.95 -16.65 -14.7 -15.45 Q-15.7 -13.9 -17.05 -12.55 L-18.75 -11.0 -20.65 -9.3 -21.1 -8.8 Q-22.4 -7.4 -22.4 -6.4 -22.4 -5.2 -21.4 -3.45 L-20.9 -2.6 -20.75 -2.85 Q-18.85 -5.75 -14.7 -5.75 -8.3 -5.75 -7.4 0.45 L-7.3 1.4 -7.3 1.85 -7.3 2.3 -7.35 2.9 -6.7 2.65 -5.75 2.45 -4.95 2.3 -4.9 2.3 -4.9 2.2 -4.75 1.35 -4.75 1.2 -4.4 0.05 -4.25 -0.3 -2.7 -3.6 -2.45 -3.35 -2.9 -2.2 -3.65 0.8 -3.8 1.9 -3.8 2.0 -3.75 2.7 -3.65 3.35 -3.6 3.35 -2.9 5.2 -2.05 4.35 -1.35 3.8 -1.15 3.65 -0.6 3.25 -0.55 3.2 -0.45 3.15 -0.35 3.05 -0.3 3.0 0.15 2.7 Q2.35 1.15 4.7 1.55 8.8 2.15 10.9 4.6 11.85 5.7 12.25 6.95 L12.5 8.5 12.25 11.85 15.25 12.3 Q18.45 12.0 19.4 10.1 L19.65 9.3 19.7 9.25 19.75 8.8 19.9 7.75 20.05 5.6 20.15 3.15 Q20.45 -0.6 21.6 -4.25 L21.85 -5.0 22.0 -5.45 22.45 -6.55 M-6.0 -14.05 Q-5.05 -13.8 -4.45 -13.05 L-4.55 -13.15 -4.1 -12.6 -3.85 -12.05 -3.65 -11.35 -3.55 -10.9 -3.45 -9.95 -3.55 -9.25 -3.75 -7.75 -3.8 -7.5 -4.0 -7.4 -4.3 -7.7 -4.05 -10.05 -4.05 -10.4 Q-4.2 -11.4 -4.9 -12.3 -5.45 -12.95 -6.15 -13.3 L-6.5 -13.4 -6.65 -13.45 -6.7 -13.5 -8.4 -13.65 -8.55 -13.75 Q-7.9 -14.2 -7.05 -14.2 L-6.95 -14.2 -6.9 -14.2 -6.4 -14.15 -5.95 -14.05 -6.0 -14.05 M11.4 8.4 Q11.4 6.65 9.25 4.65 7.1 2.6 3.8 2.65 L1.9 3.0 Q0.95 3.25 0.1 3.85 -1.25 4.7 -2.5 6.2 -3.6 8.0 -3.6 9.9 -3.4 11.6 -2.3 13.3 L1.75 13.85 2.8 14.2 3.2 14.3 5.8 15.35 7.6 16.25 8.9 15.1 Q10.95 13.15 11.25 10.35 L11.4 8.5 11.4 8.4 M-20.55 -1.45 Q-21.1 -0.2 -21.1 1.2 -21.1 2.75 -20.6 4.1 L-20.1 5.15 -19.5 6.0 Q-17.75 8.25 -14.35 8.25 -8.95 8.25 -8.5 2.3 -8.5 -4.7 -14.9 -4.95 L-14.95 -4.95 -15.4 -4.95 -17.5 -4.5 Q-19.15 -3.9 -20.1 -2.35 L-20.45 -1.7 -20.55 -1.45" fill="#a36a6a" fill-rule="evenodd" stroke="none"/>
    <path d="M18.25 -6.35 L18.35 -6.35 22.05 -6.55 22.45 -6.55 22.0 -5.45 21.85 -5.0 21.6 -4.25 Q20.45 -0.6 20.15 3.15 L20.05 5.6 20.1 4.75 Q18.3 8.85 16.05 8.85 15.05 8.85 12.3 6.95 L12.25 6.95 Q11.85 5.7 10.9 4.6 8.8 2.15 4.7 1.55 2.35 1.15 0.15 2.7 L-0.3 3.0 Q-1.85 3.1 -2.7 2.1 L-3.65 0.8 -2.9 -2.2 -2.45 -3.35 -2.7 -3.6 -4.25 -0.3 -4.65 0.1 Q-5.05 0.5 -6.35 0.5 L-7.4 0.45 Q-8.3 -5.75 -14.7 -5.75 -18.85 -5.75 -20.75 -2.85 L-20.9 -2.6 -21.4 -3.45 Q-22.4 -5.2 -22.4 -6.4 -22.4 -7.4 -21.1 -8.8 -20.8 -7.3 -18.45 -7.3 L-15.0 -7.5 -11.55 -6.9 -8.55 -6.3 Q-5.3 -6.3 -5.3 -9.7 -5.25 -11.95 -5.6 -12.95 L-6.15 -13.3 Q-5.45 -12.95 -4.9 -12.3 -4.2 -11.4 -4.05 -10.4 L-4.05 -10.05 -4.3 -7.7 -4.0 -7.4 -3.8 -7.5 -3.7 -7.5 -3.75 -7.75 -3.55 -9.25 -3.45 -9.95 -3.55 -10.9 -3.65 -11.35 -3.85 -12.05 -4.1 -12.6 -4.55 -13.15 -4.45 -13.05 Q-3.35 -11.95 -2.35 -9.35 -1.45 -7.0 0.45 -7.0 L3.6 -7.85 3.05 -7.55 2.45 -7.25 2.45 -7.2 0.8 -5.85 0.65 -5.65 0.5 -5.25 Q-0.8 -3.9 -0.8 -2.3 -0.8 -0.8 1.05 0.1 L1.15 0.15 1.35 0.15 Q2.75 0.15 6.25 -0.9 11.9 -0.9 13.3 -0.15 15.95 -0.15 15.95 -2.1 L15.7 -3.4 Q15.7 -3.85 17.5 -5.55 L18.25 -6.35 M0.5 -5.6 L0.5 -5.65 0.45 -5.65 0.5 -5.6 M-4.9 2.2 L-4.9 2.3 -4.95 2.3 -4.9 2.2 M-2.2 -2.5 L-2.15 -2.35 -2.15 -2.75 -2.15 -2.95 -2.2 -2.5" fill="#e0cbcb" fill-rule="evenodd" stroke="none"/>
    <path d="M10.75 -7.8 L12.8 -7.3 16.55 -6.5 18.25 -6.35 17.5 -5.55 Q15.7 -3.85 15.7 -3.4 L15.95 -2.1 Q15.95 -0.15 13.3 -0.15 11.9 -0.9 6.25 -0.9 2.75 0.15 1.35 0.15 L1.15 0.15 1.05 0.1 Q-0.8 -0.8 -0.8 -2.3 -0.8 -3.9 0.5 -5.25 L0.45 -4.95 0.5 -4.85 0.7 -4.9 0.8 -5.0 0.9 -5.2 1.15 -5.55 1.2 -5.55 1.25 -5.6 1.3 -5.65 1.75 -6.05 2.45 -6.6 2.5 -6.6 2.75 -6.8 4.9 -7.8 7.6 -8.2 Q10.05 -8.2 10.9 -6.6 L10.95 -7.0 10.95 -7.1 10.95 -7.3 10.75 -7.8 M-2.2 -2.5 L-2.15 -2.95 -2.15 -2.75 -2.15 -2.35 -2.2 -2.5" fill="url(#gradient0)" fill-rule="evenodd" stroke="none"/>
    <path d="M-13.95 -16.65 L-14.0 -16.5 -13.2 -18.2 -11.05 -16.2 Q-10.15 -15.55 -7.9 -14.8 L-6.0 -14.05 -5.95 -14.05 -6.4 -14.15 -6.9 -14.2 -6.95 -14.2 -7.05 -14.2 Q-7.9 -14.2 -8.55 -13.75 L-8.4 -13.65 -6.7 -13.5 -6.65 -13.45 -6.5 -13.4 -6.15 -13.3 -5.6 -12.95 Q-5.25 -11.95 -5.3 -9.7 -5.3 -6.3 -8.55 -6.3 L-11.55 -6.9 -15.0 -7.5 -18.45 -7.3 Q-20.8 -7.3 -21.1 -8.8 L-20.65 -9.3 -18.75 -11.0 -17.05 -12.55 Q-15.7 -13.9 -14.7 -15.45 L-13.95 -16.65" fill="url(#gradient1)" fill-rule="evenodd" stroke="none"/>
    <path d="M22.95 -7.2 L23.0 -5.2 Q23.0 -2.75 23.6 -2.75 L25.75 -3.8 25.25 -2.6 25.25 -2.45 21.0 4.25 21.0 3.85 20.95 3.15 21.5 -0.7 22.0 -3.4 22.4 -5.05 22.75 -6.55 22.95 -7.2 M17.3 13.3 L12.35 15.15 9.95 18.2 9.5 17.65 8.85 17.05 8.85 17.0 Q10.0 16.25 10.85 15.1 L11.85 13.15 15.25 13.5 15.65 13.5 15.8 13.5 16.0 13.5 16.6 13.45 17.3 13.3 M-4.5 7.95 L-5.55 7.05 Q-7.15 6.25 -8.95 7.05 L-8.55 6.45 -7.65 4.3 -7.65 4.25 -7.65 4.2 -7.6 4.25 -4.85 3.05 -4.7 3.7 Q-4.5 5.9 -3.8 6.4 L-4.5 7.95 M20.05 5.6 L19.9 7.75 19.75 8.8 19.7 9.25 19.65 9.3 19.4 10.1 Q18.45 12.0 15.25 12.3 L12.25 11.85 12.5 8.5 12.25 6.95 12.3 6.95 Q15.05 8.85 16.05 8.85 18.3 8.85 20.1 4.75 L20.05 5.6 M-0.3 3.0 L-0.35 3.05 -0.45 3.15 -0.55 3.2 -0.6 3.25 -1.15 3.65 -1.35 3.8 -2.05 4.35 -2.9 5.2 -3.6 3.35 -3.65 3.35 -3.75 2.7 -3.8 2.0 -3.8 1.9 -3.65 0.8 -2.7 2.1 Q-1.85 3.1 -0.3 3.0 M-4.25 -0.3 L-4.4 0.05 -4.75 1.2 -4.75 1.35 -4.9 2.2 -4.95 2.3 -5.75 2.45 -6.7 2.65 -7.35 2.9 -7.3 2.3 -7.3 1.85 -7.3 1.4 -7.4 0.45 -6.35 0.5 Q-5.05 0.5 -4.65 0.1 L-4.25 -0.3 M-8.55 8.15 Q-8.55 7.65 -8.0 7.65 -7.3 7.65 -6.3 8.55 L-5.4 9.45 Q-5.4 10.05 -6.15 9.85 L-8.55 8.15" fill="#cca9a9" fill-rule="evenodd" stroke="none"/>
  </g>
  <defs>
    <radialGradient cx="0" cy="0" gradientTransform="matrix(0.0113, 0.0, 0.0, 0.0071, 5.7, -5.7)" gradientUnits="userSpaceOnUse" id="gradient0" r="819.2" spreadMethod="pad">
      <stop offset="0.47843137254901963" stop-color="#ffffff"></stop>
      <stop offset="0.8823529411764706" stop-color="#f2eaea"></stop>
    </radialGradient>
    <radialGradient cx="0" cy="0" gradientTransform="matrix(0.0221, -0.0349, 0.0207, 0.0131, -13.1, -12.85)" gradientUnits="userSpaceOnUse" id="gradient1" r="819.2" spreadMethod="pad">
      <stop offset="0.47843137254901963" stop-color="#ffffff"></stop>
      <stop offset="0.8823529411764706" stop-color="#f2eaea"></stop>
    </radialGradient>
  </defs>
</svg>