<?xml version="1.0" encoding="UTF-8" standalone="no"?>
<svg xmlns:xlink="http://www.w3.org/1999/xlink" height="59.3px" width="68.9px" xmlns="http://www.w3.org/2000/svg">
  <g transform="matrix(1.0, 0.0, 0.0, 1.0, 34.25, 33.75)">
    <path d="M11.15 -19.95 L12.3 -21.1 12.7 -21.55 10.8 -18.15 8.45 -13.8 8.05 -13.05 8.2 -12.9 7.05 -12.75 6.15 -12.85 Q6.8 -14.5 11.15 -19.95 M20.8 -13.1 L19.6 -14.3 20.3 -14.6 24.9 -16.7 24.95 -16.65 21.2 -13.5 21.15 -13.45 20.8 -13.1 M22.1 1.1 L21.4 1.35 Q20.55 1.35 20.1 0.25 19.8 -0.45 19.8 -0.9 L20.0 -1.9 20.4 -2.35 20.4 -2.4 21.25 -2.65 21.55 -2.5 26.4 -2.35 30.85 -2.5 27.65 -1.6 24.75 -0.55 24.65 -0.55 24.05 -0.4 24.0 -0.4 23.95 -0.3 21.55 0.6 21.05 0.85 21.1 0.95 21.4 1.25 21.45 1.25 21.5 1.25 21.65 1.2 22.1 1.05 22.1 1.1 M24.55 3.45 L24.7 1.9 24.9 0.5 25.5 0.7 25.45 0.7 30.05 1.7 Q26.7 2.6 25.1 3.2 L24.55 3.45 M22.45 11.3 L22.85 11.55 24.55 12.45 27.4 13.8 25.35 13.85 22.2 13.9 22.15 13.9 21.45 13.95 22.45 11.3" fill="#e0cbcb" fill-rule="evenodd" stroke="none"/>
    <path d="M8.2 -12.9 L8.05 -13.05 8.45 -13.8 10.8 -18.15 12.7 -21.55 12.3 -21.1 11.15 -19.95 Q8.7 -17.65 5.8 -15.6 L5.3 -15.2 5.1 -15.1 4.9 -15.1 4.85 -15.1 4.85 -15.4 9.6 -19.75 Q13.65 -23.4 14.1 -23.4 14.4 -23.4 14.35 -23.05 L11.45 -17.85 11.4 -17.8 10.65 -16.5 9.8 -15.1 8.7 -13.25 8.35 -12.75 8.2 -12.9 M19.6 -14.3 L18.4 -13.9 17.85 -14.15 Q18.5 -14.75 22.05 -16.3 25.85 -18.1 27.05 -18.15 L27.5 -17.7 21.1 -12.05 20.3 -12.6 20.8 -13.1 21.15 -13.45 21.2 -13.5 24.95 -16.65 24.9 -16.7 20.3 -14.6 19.6 -14.3 M6.8 -11.15 L7.35 -10.95 7.35 -10.85 6.8 -10.65 6.2 -10.85 6.2 -11.1 6.8 -11.15 M6.75 -11.85 L6.65 -12.15 Q6.65 -12.45 7.15 -12.45 L8.3 -12.2 Q8.05 -11.95 6.75 -11.85 M-3.2 -3.65 L-3.25 -3.75 -3.25 -3.8 Q-3.25 -4.45 0.15 -4.5 L2.65 -4.8 Q3.6 -4.8 3.6 -4.35 3.6 -4.2 -1.8 -0.2 L-1.85 -0.2 -2.1 -0.2 -2.15 -0.2 -2.2 -0.25 -2.25 -0.45 -2.25 -0.55 -1.8 -1.05 -1.65 -1.15 1.85 -3.75 -2.5 -3.45 -3.1 -3.5 -3.15 -3.5 -3.2 -3.55 -3.2 -3.65 M20.0 -1.9 L18.95 -0.95 Q18.9 -0.75 18.9 -1.1 18.9 -2.35 20.05 -2.7 L20.25 -2.6 20.4 -2.4 20.4 -2.35 20.0 -1.9 M21.25 -2.65 L21.25 -2.7 21.2 -2.75 27.1 -3.25 31.55 -3.5 Q33.65 -3.5 33.65 -2.85 33.65 -2.3 28.85 -1.05 L26.2 -0.2 28.65 0.45 Q31.75 0.7 31.75 1.5 31.75 2.15 28.3 3.05 L24.75 4.05 24.8 4.05 24.65 4.1 24.6 4.1 23.9 4.2 23.85 4.2 23.65 4.1 23.65 4.05 23.6 4.0 23.65 3.95 24.45 3.45 24.55 3.45 25.1 3.2 Q26.7 2.6 30.05 1.7 L25.45 0.7 24.8 0.45 24.5 0.3 22.1 1.1 22.1 1.05 21.65 1.2 21.5 1.25 21.45 1.25 21.4 1.25 21.1 0.95 21.05 0.85 21.55 0.6 23.95 -0.3 24.0 -0.4 24.05 -0.4 24.65 -0.55 24.75 -0.55 27.65 -1.6 30.85 -2.5 26.4 -2.35 21.55 -2.5 21.25 -2.65 M22.45 11.3 L21.5 10.4 21.5 10.3 21.55 10.25 21.6 10.2 21.8 10.2 25.75 12.0 Q29.1 13.45 29.05 13.9 29.05 14.65 23.4 14.65 L23.35 14.65 21.2 14.65 Q20.3 14.55 20.3 14.25 20.3 14.05 21.45 13.95 L22.15 13.9 22.2 13.9 25.35 13.85 27.4 13.8 24.55 12.45 22.85 11.55 22.45 11.3 M19.0 21.05 Q18.25 20.0 18.25 19.5 18.25 19.1 18.65 19.1 L18.7 19.1 18.75 19.15 20.55 21.6 21.75 23.9 21.75 23.95 Q21.75 24.55 21.1 24.55 L21.05 24.55 18.6 23.65 Q16.55 23.35 16.6 22.6 16.6 22.25 16.95 22.25 L18.0 22.5 18.35 22.6 18.55 22.7 20.65 23.5 19.55 21.7 19.3 21.4 19.0 21.05 M20.1 0.75 L19.95 0.75 Q19.65 0.45 19.65 0.0 L19.8 0.0 20.1 0.75 M-0.65 12.25 L-0.35 12.05 Q0.65 11.35 3.6 10.65 L7.65 9.5 1.7 9.25 0.25 9.2 Q-0.45 9.1 -0.45 8.85 L-0.3 8.7 2.85 8.35 Q9.6 8.35 9.6 9.3 9.6 9.85 7.3 10.45 L5.1 11.05 Q0.3 12.7 -0.45 12.7 L-0.65 12.65 -0.75 12.65 -0.8 12.65 -0.85 12.6 -0.85 12.5 -0.65 12.25 M1.85 12.5 L1.9 12.7 1.85 12.75 0.4 13.45 0.2 13.35 0.15 13.3 0.15 13.25 Q0.3 12.6 1.65 12.4 L1.7 12.4 1.85 12.5 M-1.1 -21.8 L-1.2 -22.35 Q-1.8 -24.85 -2.45 -31.4 L-3.4 -25.7 -3.9 -22.15 -3.9 -22.0 -3.95 -21.75 -4.0 -21.5 Q-4.3 -20.5 -4.55 -20.15 L-3.7 -16.4 -3.8 -16.1 -3.8 -16.15 -3.9 -16.1 -4.05 -16.1 -4.15 -16.15 -4.2 -16.15 -4.35 -16.3 -4.65 -16.95 -4.7 -17.15 -4.9 -18.45 -5.6 -20.85 -6.75 -25.6 -6.8 -20.95 -7.15 -17.2 -7.4 -16.4 -7.45 -16.65 -7.45 -16.85 -7.65 -19.45 -7.5 -24.0 Q-7.5 -28.55 -7.15 -28.55 -6.7 -28.55 -5.25 -22.5 L-5.0 -21.6 -4.2 -26.65 -3.6 -30.3 Q-3.15 -32.75 -2.55 -32.75 -1.65 -32.75 -1.3 -30.3 L-1.0 -27.0 -0.2 -21.2 Q-0.2 -20.75 -0.6 -20.75 -0.85 -20.75 -1.1 -21.8 M-25.6 -1.65 L-25.35 -1.45 -25.0 -1.05 -25.1 -0.65 Q-25.2 -0.4 -27.2 -2.3 L-29.9 -4.95 -33.25 -8.9 -32.85 -9.4 -27.95 -6.6 Q-23.3 -4.7 -23.3 -4.4 -23.3 -4.1 -23.6 -4.05 L-24.5 -4.35 -25.0 -4.55 -30.85 -7.35 -26.0 -2.05 -25.6 -1.65 M-18.25 6.4 L-18.3 6.4 Q-18.75 6.4 -21.25 2.1 -23.35 -1.4 -23.35 -2.2 -23.35 -2.6 -22.85 -2.6 L-19.0 0.7 -17.25 2.35 -15.4 3.95 -15.6 4.2 -15.65 4.2 -16.4 3.65 -16.45 3.65 -22.05 -1.1 -18.6 5.35 -18.1 6.2 -18.1 6.25 -18.25 6.4 M-7.0 -15.4 L-7.1 -15.6 -7.05 -15.7 -7.0 -15.75 -6.9 -15.75 Q-6.2 -15.75 -5.1 -15.0 L-5.1 -14.95 -5.1 -14.75 -5.45 -14.6 Q-6.5 -14.6 -7.0 -15.4 M-17.3 -15.2 L-17.9 -15.6 -19.0 -16.5 -18.45 -15.15 -18.45 -15.05 -18.25 -14.5 -18.1 -13.95 -18.1 -12.95 -20.4 -18.1 -20.1 -18.5 -15.85 -15.05 -16.15 -14.8 Q-16.6 -14.8 -17.3 -15.2 M-1.8 1.05 L-2.25 0.9 -2.3 0.65 Q-2.3 -0.05 -1.05 -0.05 -0.65 -0.05 -0.65 0.2 -1.15 1.05 -1.8 1.05 M-20.1 5.6 L-19.2 6.75 -19.4 6.8 Q-20.15 6.8 -20.15 5.6 L-20.1 5.6 M-17.25 6.95 L-17.75 6.8 -17.75 6.5 -16.2 6.45 Q-16.85 6.95 -17.25 6.95 M-28.5 5.7 L-28.75 5.75 -28.9 5.75 -30.3 5.75 -30.45 5.7 -29.35 6.9 -29.0 7.25 -28.6 7.7 -28.65 7.85 -28.9 8.0 Q-29.7 8.0 -31.5 5.25 -31.5 4.85 -30.9 4.85 L-27.65 5.2 -27.4 5.4 -28.5 5.7" fill="#a36a6a" fill-rule="evenodd" stroke="none"/>
    <path d="M11.15 -19.95 Q6.8 -14.5 6.15 -12.85 4.85 -13.2 4.85 -14.7 L4.9 -15.1 5.1 -15.1 5.3 -15.2 5.8 -15.55 5.8 -15.6 Q8.7 -17.65 11.15 -19.95 M-2.25 -0.45 L-2.8 -0.85 -3.35 -1.35 -3.65 -2.35 Q-3.65 -3.35 -3.2 -3.65 L-3.2 -3.55 -3.15 -3.5 -3.1 -3.5 -2.5 -3.45 1.85 -3.75 -1.65 -1.15 -1.8 -1.05 -2.25 -0.55 -2.25 -0.45 M24.75 4.05 L24.6 4.1 24.65 4.1 24.8 4.05 24.75 4.05 M18.0 22.5 L19.0 21.05 19.3 21.4 19.55 21.7 20.65 23.5 18.55 22.7 18.35 22.6 18.0 22.5 M-0.3 8.7 L-0.45 8.85 Q-0.45 9.1 0.25 9.2 L1.7 9.25 7.65 9.5 3.6 10.65 Q0.65 11.35 -0.35 12.05 L-0.65 12.25 Q-1.5 12.05 -1.35 10.75 -1.35 8.9 -0.3 8.7 M-4.0 -21.5 L-3.95 -21.75 -3.9 -22.0 -3.9 -22.15 -3.4 -25.7 -2.45 -31.4 Q-1.8 -24.85 -1.2 -22.35 L-1.1 -21.8 -1.95 -21.75 -4.0 -21.5 M-7.45 -16.85 L-7.45 -16.65 -7.4 -16.4 -7.15 -17.2 -6.8 -20.95 -6.75 -25.6 -5.6 -20.85 -4.9 -18.45 -4.7 -17.15 -4.65 -16.95 -4.35 -16.3 -4.2 -16.15 -4.15 -16.15 -4.05 -16.1 -3.9 -16.1 -3.8 -16.15 -3.8 -16.1 Q-3.8 -15.05 -5.1 -14.95 L-5.1 -15.0 Q-6.2 -15.75 -6.9 -15.75 L-7.0 -15.75 -7.05 -15.7 -7.1 -15.6 -7.0 -15.4 Q-7.5 -15.85 -7.5 -16.7 L-7.45 -16.85 M-24.5 -4.35 L-25.6 -1.65 -26.0 -2.05 -30.85 -7.35 -25.0 -4.55 -24.5 -4.35 M-15.65 4.2 Q-15.55 4.5 -15.6 4.75 -15.6 6.45 -17.7 6.45 L-18.25 6.4 -18.1 6.25 -18.1 6.2 -18.6 5.35 -22.05 -1.1 -16.45 3.65 -16.4 3.65 -15.65 4.2 M-18.25 -14.5 L-18.45 -15.05 -18.45 -15.15 -19.0 -16.5 -17.9 -15.6 -17.3 -15.2 -17.75 -14.85 -18.25 -14.5 M-29.0 7.25 L-29.35 6.9 -30.45 5.7 -30.3 5.75 -28.9 5.75 -28.75 5.75 -28.5 5.7 -28.35 5.7 -28.3 5.85 -29.0 7.25" fill="#f7f2f2" fill-rule="evenodd" stroke="none"/>
  </g>
</svg>