<?xml version="1.0" encoding="UTF-8" standalone="no"?>
<svg xmlns:xlink="http://www.w3.org/1999/xlink" height="41.45px" width="40.25px" xmlns="http://www.w3.org/2000/svg">
  <g transform="matrix(1.0, 0.0, 0.0, 1.0, 22, 34.3)">
    <path d="M-0.3 2.4 L-0.15 1.3 0.2 0.15 4.75 -6.8 Q7.65 -11.25 9.6 -15.25 L11.65 -19.15 13.4 -22.3 15.45 -24.95 16.5 -25.85 17.15 -25.75 17.2 -24.3 17.15 -21.95 16.85 -19.15 Q16.3 -13.45 15.05 -9.15 13.3 -2.85 9.95 1.65 L6.65 5.5 6.3 5.4 5.55 5.85 5.4 5.85 4.4 5.6 4.5 5.55 4.85 5.3 5.7 4.65 6.5 4.0 Q8.2 2.55 9.15 1.2 10.65 -0.95 11.8 -3.2 12.95 -5.5 14.35 -10.6 15.75 -15.7 15.85 -18.8 L15.85 -19.15 16.1 -22.55 16.05 -23.1 15.4 -21.45 15.05 -21.0 14.8 -21.1 16.15 -24.5 15.6 -23.7 15.1 -23.0 14.3 -21.8 12.8 -19.15 8.25 -10.8 7.65 -9.7 7.5 -9.45 7.3 -9.1 5.9 -6.7 3.75 -3.35 2.15 -1.0 1.75 -0.4 1.35 0.1 0.4 1.45 -0.3 2.4 M-18.85 -1.05 Q-19.5 -2.05 -19.7 -3.2 L-20.2 -5.85 -20.6 -8.35 Q-20.95 -10.35 -21.0 -14.45 -21.05 -18.6 -20.35 -23.35 -19.65 -28.1 -17.55 -32.0 L-16.55 -33.3 -16.25 -33.2 Q-15.85 -32.95 -15.95 -32.4 L-15.9 -31.85 -15.45 -26.25 -15.2 -21.85 Q-14.95 -18.75 -14.35 -15.75 L-13.3 -11.7 Q-12.75 -10.05 -11.6 -8.75 L-11.0 -8.0 -10.95 -6.65 -11.55 -6.8 -11.6 -6.8 -11.75 -6.95 -11.75 -6.9 -12.0 -7.15 -12.35 -7.55 -13.25 -9.1 -13.75 -10.25 -14.8 -14.25 Q-16.1 -20.6 -16.3 -27.15 L-16.3 -27.25 -16.35 -27.95 -16.35 -29.95 -16.35 -30.15 -17.05 -27.9 -17.15 -27.8 -17.15 -27.95 -17.25 -29.2 Q-17.2 -30.1 -16.75 -30.9 L-16.5 -32.35 -16.7 -31.9 Q-18.5 -28.45 -19.15 -24.75 -19.95 -20.7 -20.05 -16.7 L-20.05 -12.15 -19.6 -6.75 -19.45 -6.05 -19.3 -5.15 -18.3 -2.7 -18.25 -2.6 -17.9 -1.7 -17.85 -1.35 -17.9 -1.35 Q-17.9 -1.0 -18.05 -0.65 L-18.15 -0.55 -18.75 -0.85 -18.8 -0.9 -18.85 -1.05" fill="#a36a6a" fill-rule="evenodd" stroke="none"/>
    <path d="M7.65 -9.7 L8.25 -10.8 12.8 -19.15 14.3 -21.8 15.1 -23.0 15.6 -23.7 13.9 -19.15 13.0 -16.3 Q12.05 -10.25 10.55 -7.35 L10.55 -7.45 10.45 -7.3 10.65 -10.65 Q10.6 -11.15 10.45 -10.65 L9.2 -7.95 Q7.75 -5.0 4.8 -2.85 L4.6 -2.75 6.35 -6.6 7.65 -9.7 M9.8 -8.3 L9.75 -8.35 9.8 -8.4 9.8 -8.3 M-18.85 -1.05 L-18.8 -0.9 -18.75 -0.85 -18.85 -0.9 -18.85 -1.05 M-20.05 -12.15 L-20.05 -16.7 Q-19.95 -20.7 -19.15 -24.75 -18.5 -28.45 -16.7 -31.9 L-16.5 -32.35 -16.75 -30.9 Q-17.2 -30.1 -17.25 -29.2 L-17.15 -27.95 -17.2 -28.15 -17.75 -24.4 Q-17.9 -23.15 -17.25 -16.0 L-17.35 -16.05 Q-17.95 -17.0 -18.45 -20.65 L-18.3 -17.1 Q-18.35 -11.15 -17.95 -8.25 L-17.8 -7.15 Q-18.4 -8.75 -18.6 -10.35 L-18.9 -16.0 -18.9 -14.3 Q-19.0 -11.7 -18.75 -9.15 L-18.65 -8.55 -20.05 -12.15 M-18.7 -5.6 L-18.65 -5.65 -18.7 -5.6" fill="#ffffcc" fill-rule="evenodd" stroke="none"/>
    <path d="M2.15 -1.0 L3.75 -3.35 5.9 -6.7 7.3 -9.1 7.5 -9.45 7.65 -9.7 6.35 -6.6 4.6 -2.75 4.8 -2.85 Q7.75 -5.0 9.2 -7.95 L10.45 -10.65 Q10.6 -11.15 10.65 -10.65 L10.45 -7.3 8.95 -4.4 8.95 -4.45 7.3 -1.7 Q6.35 -0.15 4.5 1.75 L2.1 2.45 2.1 1.85 2.5 0.45 2.95 -0.05 Q4.7 -1.85 4.8 -2.85 L2.25 -0.4 2.15 -1.0 M15.6 -23.7 L16.15 -24.5 14.8 -21.1 15.05 -21.0 15.4 -21.45 16.05 -23.1 16.1 -22.55 15.85 -19.15 15.85 -18.8 Q15.75 -15.7 14.35 -10.6 12.95 -5.5 11.8 -3.2 10.65 -0.95 9.15 1.2 8.2 2.55 6.5 4.0 5.25 4.3 4.9 4.5 L4.25 4.5 4.3 4.45 5.45 2.6 7.45 -0.2 9.3 -3.35 9.45 -3.6 Q10.6 -5.95 10.55 -7.35 12.05 -10.25 13.0 -16.3 L13.9 -19.15 15.6 -23.7 M9.8 -8.3 L9.8 -8.4 9.75 -8.35 9.8 -8.3 M-18.25 -2.6 L-18.3 -2.7 -19.3 -5.15 -19.45 -6.05 -19.6 -6.75 -20.05 -12.15 -18.65 -8.55 -18.65 -8.5 -17.85 -4.6 -17.9 -4.6 -17.25 -2.5 -18.25 -2.6 M-17.15 -27.95 L-17.15 -27.8 -17.05 -27.9 -16.35 -30.15 -16.35 -29.95 -16.35 -27.95 -16.3 -27.25 -16.3 -27.15 Q-16.1 -20.6 -14.8 -14.25 L-13.75 -10.25 -13.25 -9.1 -13.5 -8.7 -12.95 -6.65 -14.75 -7.3 -14.2 -6.55 -15.0 -7.6 -16.5 -11.75 Q-16.25 -9.35 -15.3 -7.05 L-15.35 -6.95 -13.8 -2.8 -13.85 -2.6 Q-14.85 -2.85 -16.3 -3.95 L-16.5 -3.9 -17.6 -6.65 -17.8 -7.15 -17.95 -8.25 Q-18.35 -11.15 -18.3 -17.1 L-18.45 -20.65 Q-17.95 -17.0 -17.35 -16.05 L-17.25 -16.0 Q-17.9 -23.15 -17.75 -24.4 L-17.2 -28.15 -17.15 -27.95 M-18.7 -5.6 L-18.65 -5.65 -18.7 -5.6 M-13.55 -5.75 L-13.6 -5.75 -13.6 -5.8 -13.55 -5.75" fill="#e0cca3" fill-rule="evenodd" stroke="none"/>
    <path d="M-0.3 2.4 L0.4 1.45 1.35 0.1 1.75 -0.4 2.15 -1.0 2.25 -0.4 4.8 -2.85 Q4.7 -1.85 2.95 -0.05 L2.5 0.45 2.1 1.85 2.1 2.45 4.5 1.75 Q6.35 -0.15 7.3 -1.7 L8.95 -4.45 8.95 -4.4 10.45 -7.3 10.55 -7.45 10.55 -7.35 Q10.6 -5.95 9.45 -3.6 L9.3 -3.35 7.45 -0.2 5.45 2.6 4.3 4.45 4.25 4.5 4.9 4.5 Q5.25 4.3 6.5 4.0 L5.7 4.65 4.85 5.3 4.5 5.55 4.4 5.6 5.4 5.85 5.25 5.95 2.8 6.15 2.3 6.15 1.4 5.7 Q-0.3 4.85 -0.3 2.85 L-0.3 2.4 M-18.15 -0.55 L-18.05 -0.65 Q-17.9 -1.0 -17.9 -1.35 L-17.85 -1.35 -17.9 -1.7 -18.25 -2.6 -17.25 -2.5 -17.9 -4.6 -17.85 -4.6 -18.65 -8.5 -18.65 -8.55 -18.75 -9.15 Q-19.0 -11.7 -18.9 -14.3 L-18.9 -16.0 -18.6 -10.35 Q-18.4 -8.75 -17.8 -7.15 L-17.6 -6.65 -16.5 -3.9 -16.3 -3.95 Q-14.85 -2.85 -13.85 -2.6 L-13.8 -2.8 -15.35 -6.95 -15.3 -7.05 Q-16.25 -9.35 -16.5 -11.75 L-15.0 -7.6 -14.2 -6.55 -14.75 -7.3 -12.95 -6.65 -13.5 -8.7 -13.25 -9.1 -12.35 -7.55 -12.0 -7.15 -11.75 -6.9 -11.75 -6.95 -11.6 -6.8 -11.55 -6.8 -10.95 -6.65 -11.05 -5.65 Q-11.2 -4.25 -11.85 -3.0 L-11.85 -2.95 -12.15 -2.45 -12.65 -1.7 -12.9 -1.45 Q-13.8 -0.45 -15.05 -0.2 L-15.5 -0.1 -16.55 -0.15 -18.15 -0.55 M-13.55 -5.75 L-13.6 -5.8 -13.6 -5.75 -13.55 -5.75" fill="#d0aa73" fill-rule="evenodd" stroke="none"/>
  </g>
</svg>