<?xml version="1.0" encoding="UTF-8" standalone="no"?>
<svg xmlns:xlink="http://www.w3.org/1999/xlink" height="78.9px" width="70.95px" xmlns="http://www.w3.org/2000/svg">
  <g transform="matrix(1.0, 0.0, 0.0, 1.0, 32.45, 42.9)">
    <path d="M13.65 -40.05 Q10.05 -37.1 5.75 -35.75 L4.6 -35.5 2.55 -40.85 -4.7 -36.9 -6.5 -39.45 -16.55 -18.35 -17.0 -17.2 -17.5 -15.95 -18.85 -12.1 -20.05 -8.6 -20.15 -8.35 -20.75 -6.9 -21.9 -3.75 -22.9 -1.1 -23.5 0.45 -24.55 3.55 -25.3 5.75 -25.5 6.5 Q-25.5 7.2 -25.8 7.8 -27.95 9.8 -29.4 12.35 L-29.9 13.65 Q-31.15 18.55 -28.25 23.1 -27.3 24.6 -25.8 25.75 L-24.65 26.6 Q-21.55 28.85 -19.25 30.0 L-16.35 31.45 -15.55 31.85 -15.45 31.9 -15.45 31.95 -14.6 32.35 -13.7 32.8 -14.15 33.05 -14.6 33.1 Q-15.25 33.1 -18.75 31.35 L-21.1 30.15 Q-23.95 28.75 -26.3 26.55 -30.25 23.3 -31.15 18.65 -32.05 13.95 -30.1 11.3 -28.2 8.65 -26.55 7.0 L-26.5 6.35 -26.45 6.05 -25.1 0.95 -24.3 -1.65 -22.45 -7.1 -21.85 -8.6 -20.5 -12.3 -20.05 -13.6 -18.7 -17.3 -18.55 -17.7 -18.0 -19.0 -16.55 -22.9 Q-12.3 -31.45 -7.7 -39.6 L-6.45 -41.4 -6.15 -41.25 -5.7 -40.4 -4.65 -37.85 0.4 -40.7 Q1.65 -41.4 3.0 -41.9 L5.5 -36.85 14.0 -41.55 Q15.0 -41.0 15.45 -39.8 16.35 -37.15 16.8 -34.35 L24.7 -37.35 25.15 -37.2 Q26.35 -34.85 25.7 -31.95 25.45 -30.85 25.5 -29.7 L30.9 -31.8 33.0 -31.75 32.65 -28.25 32.2 -25.9 32.25 -24.9 36.75 -27.5 37.5 -27.05 29.35 -4.0 28.1 -0.35 25.95 5.75 24.2 9.65 23.5 10.9 22.8 12.0 21.75 13.7 20.2 16.1 19.65 17.0 17.8 19.55 16.35 21.35 16.3 21.35 15.85 21.75 15.85 21.8 15.95 23.55 15.55 26.4 Q15.05 29.0 13.3 31.3 10.1 35.5 4.85 34.95 L4.75 34.95 0.3 34.3 -0.35 34.2 0.05 34.1 0.5 34.1 4.75 34.0 4.85 34.0 Q9.7 33.9 12.75 29.95 14.95 27.1 14.7 23.55 L14.55 21.9 14.1 18.75 Q13.95 18.45 14.6 18.5 15.25 18.55 15.65 20.55 L16.3 19.6 16.75 18.95 18.25 16.85 18.25 16.9 18.8 16.1 19.9 14.5 20.95 12.7 21.3 12.0 22.55 9.65 Q24.25 6.4 25.55 3.0 L26.25 1.05 26.7 -0.35 31.75 -15.8 35.7 -25.5 33.05 -24.0 32.2 -23.55 31.25 -23.7 31.5 -27.5 31.95 -30.8 29.25 -29.65 25.7 -28.75 24.7 -28.7 24.3 -29.2 24.45 -36.15 23.3 -35.6 18.0 -33.5 16.6 -33.15 13.65 -40.05" fill="#a36a6a" fill-rule="evenodd" stroke="none"/>
    <path d="M-29.9 13.65 L-29.4 12.35 Q-27.95 9.8 -25.8 7.8 -25.5 7.2 -25.5 6.5 L-25.3 5.75 -24.55 3.55 -23.5 0.45 -22.9 -1.1 -21.9 -3.75 -20.75 -6.9 -20.15 -8.35 -20.05 -8.6 -18.85 -12.1 -17.5 -15.95 -17.0 -17.2 -16.55 -18.35 -6.5 -39.45 -4.7 -36.9 2.55 -40.85 4.6 -35.5 5.75 -35.75 Q10.05 -37.1 13.65 -40.05 13.65 -36.0 15.2 -32.7 L16.6 -33.15 18.0 -33.5 23.3 -35.6 20.65 -28.4 21.05 -28.0 21.2 -28.1 Q23.05 -27.95 24.3 -29.2 L24.7 -28.7 25.7 -28.75 29.25 -29.65 Q23.25 -22.35 20.3 -13.3 18.1 -6.55 14.85 -0.35 L13.7 1.45 Q12.0 3.95 10.7 4.9 L7.55 6.3 Q5.15 7.3 5.15 7.8 5.15 8.2 6.75 10.45 L7.55 12.0 Q8.35 13.95 8.35 15.9 L8.35 16.1 Q8.3 19.15 6.5 22.95 L4.75 25.8 Q3.25 27.4 0.95 28.15 L0.55 28.25 -6.75 27.75 Q-13.55 26.3 -20.0 23.5 -23.3 22.05 -25.8 19.5 L-29.9 13.65" fill="url(#gradient0)" fill-rule="evenodd" stroke="none"/>
    <path d="M-29.9 13.65 L-25.8 19.5 Q-23.3 22.05 -20.0 23.5 -13.55 26.3 -6.75 27.75 L0.55 28.25 0.95 28.15 Q3.25 27.4 4.75 25.8 L6.5 22.95 Q8.3 19.15 8.35 16.1 L8.35 15.9 Q8.35 13.95 7.55 12.0 L6.75 10.45 Q5.15 8.2 5.15 7.8 5.15 7.3 7.55 6.3 L10.7 4.9 Q12.0 3.95 13.7 1.45 L14.85 -0.35 Q18.1 -6.55 20.3 -13.3 23.25 -22.35 29.25 -29.65 L31.95 -30.8 31.5 -27.5 31.25 -23.7 32.2 -23.55 33.05 -24.0 35.7 -25.5 31.75 -15.8 30.3 -13.25 Q27.1 -7.1 24.85 -0.35 L24.25 1.2 Q21.95 5.85 19.45 9.35 L23.65 -0.35 25.9 -6.55 22.95 -0.35 21.8 2.05 16.65 12.0 16.5 12.3 12.4 14.2 Q11.05 14.6 10.6 16.1 11.4 18.85 10.95 21.6 L10.95 21.65 11.0 21.85 10.95 22.95 10.75 23.55 10.3 25.05 Q9.0 28.9 5.35 30.65 L4.95 30.4 7.05 28.6 4.75 29.8 Q-0.1 31.95 -7.0 31.95 L-16.35 31.45 -19.25 30.0 Q-21.55 28.85 -24.65 26.6 L-25.8 25.75 Q-27.3 24.6 -28.25 23.1 -31.15 18.55 -29.9 13.65 M24.3 -29.2 Q23.05 -27.95 21.2 -28.1 L21.05 -28.0 20.65 -28.4 23.3 -35.6 24.45 -36.15 24.3 -29.2 M16.6 -33.15 L15.2 -32.7 Q13.65 -36.0 13.65 -40.05 L16.6 -33.15 M18.55 14.3 L18.4 14.25 18.6 14.1 18.55 14.3 M19.15 12.4 L19.25 12.3 19.15 12.4" fill="#e0cbcb" fill-rule="evenodd" stroke="none"/>
    <path d="M-14.15 33.05 L-13.7 32.8 -14.6 32.35 -15.45 31.95 -15.45 31.9 -15.55 31.85 -16.35 31.45 -7.0 31.95 Q-0.1 31.95 4.75 29.8 L7.05 28.6 4.95 30.4 5.35 30.65 Q9.0 28.9 10.3 25.05 L10.75 23.55 10.95 22.95 11.0 21.85 10.95 21.65 10.95 21.6 Q11.4 18.85 10.6 16.1 11.05 14.6 12.4 14.2 L16.5 12.3 16.65 12.0 21.8 2.05 22.95 -0.35 25.9 -6.55 23.65 -0.35 19.45 9.35 Q21.95 5.85 24.25 1.2 L24.85 -0.35 Q27.1 -7.1 30.3 -13.25 L31.75 -15.8 26.7 -0.35 26.25 1.05 25.55 3.0 Q24.25 6.4 22.55 9.65 L21.3 12.0 20.95 12.7 19.9 14.5 18.8 16.1 18.25 16.9 18.25 16.85 16.75 18.95 16.3 19.6 15.65 20.55 Q15.25 18.55 14.6 18.5 13.95 18.45 14.1 18.75 L14.55 21.9 14.7 23.55 Q14.95 27.1 12.75 29.95 9.7 33.9 4.85 34.0 L4.75 34.0 0.5 34.1 0.05 34.1 -4.9 34.2 Q-11.35 34.3 -14.15 33.05 M18.55 14.3 L18.6 14.1 18.4 14.25 18.55 14.3 M19.15 12.4 L19.25 12.3 19.15 12.4" fill="#cca9a9" fill-rule="evenodd" stroke="none"/>
  </g>
  <defs>
    <radialGradient cx="0" cy="0" gradientTransform="matrix(0.0186, -0.0323, 0.0199, 0.0115, -3.65, -8.4)" gradientUnits="userSpaceOnUse" id="gradient0" r="819.2" spreadMethod="pad">
      <stop offset="0.47843137254901963" stop-color="#ffffff"></stop>
      <stop offset="0.8823529411764706" stop-color="#f2eaea"></stop>
    </radialGradient>
  </defs>
</svg>