<?xml version="1.0" encoding="UTF-8" standalone="no"?>
<svg xmlns:xlink="http://www.w3.org/1999/xlink" height="46.65px" width="54.65px" xmlns="http://www.w3.org/2000/svg">
  <g transform="matrix(1.0, 0.0, 0.0, 1.0, 24.35, 34.4)">
    <path d="M27.5 -20.8 L26.95 -20.1 26.1 -18.8 24.5 -16.0 19.6 -6.95 18.95 -5.8 18.8 -5.55 18.6 -5.1 17.1 -2.6 14.8 1.0 13.05 3.55 12.6 4.2 12.2 4.75 11.15 6.2 10.45 7.2 10.6 6.0 10.95 4.8 15.85 -2.7 Q18.95 -7.45 21.05 -11.75 L23.25 -16.0 25.15 -19.3 Q26.05 -20.8 27.35 -22.15 L28.45 -23.15 29.15 -23.0 29.25 -21.5 29.15 -18.95 28.85 -16.0 Q28.25 -9.85 26.95 -5.15 25.0 1.6 21.45 6.35 L17.9 10.5 17.5 10.45 16.7 10.95 16.55 10.95 15.45 10.65 15.55 10.6 15.95 10.35 16.9 9.6 17.75 8.9 20.6 5.9 23.45 1.2 Q24.65 -1.25 26.2 -6.75 27.7 -12.25 27.8 -15.55 L27.8 -16.0 28.05 -19.6 28.0 -20.2 27.3 -18.4 26.9 -17.95 Q26.8 -17.95 26.65 -18.05 L28.1 -21.65 27.5 -20.8 M-20.2 -28.0 L-20.45 -29.25 Q-20.45 -30.15 -20.05 -31.0 L-19.95 -32.45 -20.1 -32.0 Q-21.75 -28.35 -22.1 -24.6 -22.5 -20.5 -22.15 -16.5 L-21.6 -11.95 -20.4 -6.65 -20.15 -6.0 -19.85 -5.1 Q-19.3 -3.8 -18.4 -2.75 L-18.35 -2.65 -17.8 -1.8 -17.75 -1.5 -17.75 -1.45 -17.9 -0.75 -18.0 -0.65 -18.7 -0.85 -18.75 -0.9 -18.85 -1.05 Q-19.7 -1.95 -20.1 -3.1 L-21.0 -5.7 -21.8 -8.15 Q-22.4 -10.1 -22.95 -14.2 -23.55 -18.3 -23.3 -23.1 -23.05 -27.9 -21.15 -32.0 L-20.1 -33.4 -19.75 -33.35 Q-19.25 -33.1 -19.35 -32.55 L-19.2 -32.0 -18.0 -26.5 -17.15 -22.15 Q-16.5 -19.1 -15.4 -16.15 L-13.7 -12.25 Q-12.85 -10.65 -11.4 -9.5 L-10.6 -8.8 -10.4 -7.45 -11.1 -7.55 -11.3 -7.65 -11.65 -7.85 -12.1 -8.2 -13.35 -9.65 -14.05 -10.75 -15.8 -14.65 Q-18.0 -20.8 -19.1 -27.3 L-19.1 -27.4 -19.2 -28.05 -19.5 -30.05 -19.5 -30.25 -20.05 -27.95 -20.15 -27.85 -20.2 -28.0" fill="#a36a6a" fill-rule="evenodd" stroke="none"/>
    <path d="M22.0 -3.25 L22.2 -6.8 Q22.15 -7.4 21.95 -6.8 L20.6 -3.9 Q19.05 -0.7 15.9 1.55 L15.7 1.7 15.7 1.65 Q15.95 0.65 17.55 -2.45 18.9 -5.1 18.95 -5.8 L19.6 -6.95 24.5 -16.0 26.1 -18.8 26.95 -20.1 27.5 -20.8 25.65 -16.0 24.7 -12.9 Q23.7 -6.4 22.05 -3.25 L22.05 -3.35 22.0 -3.25 M-21.6 -11.95 L-22.15 -16.5 Q-22.5 -20.5 -22.1 -24.6 -21.75 -28.35 -20.1 -32.0 L-19.95 -32.45 -20.05 -31.0 Q-20.45 -30.15 -20.45 -29.25 L-20.2 -28.0 -20.25 -28.2 -20.45 -24.4 Q-20.45 -23.15 -18.85 -16.1 L-18.95 -16.15 Q-19.75 -17.05 -20.8 -20.6 L-20.2 -17.1 Q-19.5 -11.15 -18.7 -8.35 L-18.35 -7.25 -19.7 -10.35 -20.75 -15.95 -20.55 -14.25 Q-20.3 -11.65 -19.7 -9.15 L-19.55 -8.55 -21.6 -11.95 M-18.85 -1.05 L-18.75 -0.9 -18.7 -0.85 -18.8 -0.9 -18.85 -1.05 M-19.25 -5.6 L-19.15 -5.65 -19.2 -5.6 -19.25 -5.6" fill="#ffffcc" fill-rule="evenodd" stroke="none"/>
    <path d="M18.95 -5.8 Q18.9 -5.1 17.55 -2.45 15.95 0.65 15.7 1.65 L15.7 1.7 15.9 1.55 Q19.05 -0.7 20.6 -3.9 L21.95 -6.8 Q22.15 -7.4 22.2 -6.8 L22.0 -3.25 22.0 -3.2 20.35 -0.1 20.35 -0.15 18.6 2.75 Q17.6 4.45 15.55 6.5 L13.0 7.25 13.0 6.6 13.4 5.05 13.95 4.55 Q15.8 2.7 15.9 1.55 L13.15 4.2 13.05 3.55 14.8 1.0 17.1 -2.6 18.6 -5.1 18.8 -5.55 18.95 -5.8 M22.05 -3.25 Q23.7 -6.4 24.7 -12.9 L25.65 -16.0 27.5 -20.8 28.1 -21.65 26.65 -18.05 Q26.8 -17.95 26.9 -17.95 L27.3 -18.4 28.0 -20.2 28.05 -19.6 27.8 -16.0 27.8 -15.55 Q27.7 -12.25 26.2 -6.75 24.65 -1.25 23.45 1.2 L20.6 5.9 17.75 8.9 16.0 9.45 15.3 9.45 15.35 9.4 16.6 7.4 18.75 4.4 20.75 1.0 20.9 0.75 Q22.1 -1.8 22.05 -3.25 M-20.2 -28.0 L-20.15 -27.85 -20.05 -27.95 -19.5 -30.25 -19.5 -30.05 -19.2 -28.05 -19.1 -27.4 -19.1 -27.3 Q-18.0 -20.8 -15.8 -14.65 L-14.05 -10.75 -13.35 -9.65 -13.6 -9.25 -12.7 -7.25 -14.85 -7.7 -14.1 -7.0 -15.2 -8.0 -17.45 -11.95 Q-16.85 -9.55 -15.45 -7.4 L-15.5 -7.3 -13.2 -3.35 -13.25 -3.15 Q-14.4 -3.3 -16.25 -4.25 L-16.5 -4.15 -18.1 -6.8 -18.35 -7.25 -18.7 -8.35 Q-19.5 -11.15 -20.2 -17.1 L-20.8 -20.6 Q-19.75 -17.05 -18.95 -16.15 L-18.85 -16.1 Q-20.45 -23.15 -20.45 -24.4 L-20.25 -28.2 -20.2 -28.0 M-18.35 -2.65 L-18.4 -2.75 Q-19.3 -3.8 -19.85 -5.1 L-20.15 -6.0 -20.4 -6.65 -21.6 -11.95 -19.55 -8.55 -19.5 -8.5 -18.15 -4.7 -17.15 -2.65 -18.35 -2.65 M-13.3 -6.3 L-13.35 -6.35 -13.3 -6.3 M-19.25 -5.6 L-19.2 -5.6 -19.15 -5.65 -19.25 -5.6 M-14.35 -0.6 L-14.35 -0.65 -14.3 -0.6 -14.35 -0.6" fill="#e0cca3" fill-rule="evenodd" stroke="none"/>
    <path d="M22.0 -3.25 L22.05 -3.35 22.05 -3.25 Q22.1 -1.8 20.9 0.75 L20.75 1.0 18.75 4.4 16.6 7.4 15.35 9.4 15.3 9.45 16.0 9.45 17.75 8.9 16.9 9.6 15.95 10.35 15.55 10.6 15.45 10.65 16.55 10.95 16.4 11.0 13.75 11.25 13.2 11.25 12.25 10.75 Q10.4 9.85 10.4 7.7 L10.45 7.2 11.15 6.2 12.2 4.75 12.6 4.2 13.05 3.55 13.15 4.2 15.9 1.55 Q15.8 2.7 13.95 4.55 L13.4 5.05 13.0 6.6 13.0 7.25 15.55 6.5 Q17.6 4.45 18.6 2.75 L20.35 -0.15 20.35 -0.1 22.0 -3.2 22.0 -3.25 M-13.35 -9.65 L-12.1 -8.2 -11.65 -7.85 -11.3 -7.65 -11.1 -7.55 -10.4 -7.45 -10.35 -6.45 Q-10.35 -5.05 -10.95 -3.75 L-10.95 -3.7 -11.25 -3.15 -11.7 -2.35 -11.95 -2.05 Q-12.9 -1.0 -14.3 -0.6 L-14.35 -0.65 -14.35 -0.6 -14.85 -0.5 -16.05 -0.4 -18.0 -0.65 -17.9 -0.75 -17.75 -1.45 -17.75 -1.5 -17.8 -1.8 -18.35 -2.65 -17.15 -2.65 -18.15 -4.7 -19.5 -8.5 -19.55 -8.55 -19.7 -9.15 Q-20.3 -11.65 -20.55 -14.25 L-20.75 -15.95 -19.7 -10.35 -18.35 -7.25 -18.1 -6.8 -16.5 -4.15 -16.25 -4.25 Q-14.4 -3.3 -13.25 -3.15 L-13.2 -3.35 -15.5 -7.3 -15.45 -7.4 Q-16.85 -9.55 -17.45 -11.95 L-15.2 -8.0 -14.1 -7.0 -14.85 -7.7 -12.7 -7.25 -13.6 -9.25 -13.35 -9.65 M-13.3 -6.3 L-13.35 -6.35 -13.3 -6.3" fill="#d0aa73" fill-rule="evenodd" stroke="none"/>
  </g>
</svg>