<?xml version="1.0" encoding="UTF-8" standalone="no"?>
<svg xmlns:xlink="http://www.w3.org/1999/xlink" height="23.25px" width="31.5px" xmlns="http://www.w3.org/2000/svg">
  <g transform="matrix(1.0, 0.0, 0.0, 1.0, 15.75, 11.65)">
    <path d="M0.25 -9.9 L4.95 -9.45 5.7 -9.2 Q7.55 -8.25 8.9 -5.45 L9.85 -6.25 10.5 -4.0 Q11.0 -2.3 10.75 -2.0 14.75 -2.0 14.75 -0.7 L14.75 -0.6 14.6 -0.55 11.6 -0.2 10.5 0.15 11.3 0.55 13.25 2.15 13.4 2.45 13.45 3.1 9.55 2.7 Q9.6 4.45 8.8 6.1 L8.65 6.35 8.55 6.1 7.85 5.1 7.4 6.1 7.05 6.75 6.0 8.15 5.6 8.45 5.2 8.6 5.3 7.5 5.25 5.95 4.7 6.3 3.3 6.95 1.3 7.9 Q0.15 8.5 -0.7 9.5 L-1.65 10.6 -1.5 7.05 -4.6 8.55 -4.6 8.4 -4.55 4.85 -4.5 4.3 -5.45 4.35 -7.55 4.75 -9.45 5.4 Q-10.15 5.6 -11.45 6.3 L-11.3 5.9 -9.75 2.9 -10.15 2.95 -10.2 2.95 -12.65 2.45 Q-14.4 2.0 -14.75 1.5 L-14.7 1.5 -13.1 0.8 -12.1 0.35 -10.9 -0.4 -9.9 -1.1 -9.45 -1.55 -8.4 -2.7 -7.6 -3.65 -6.3 -5.05 -6.3 -5.1 -6.7 -5.65 -7.2 -6.2 -4.3 -6.55 -2.55 -6.7 -2.65 -8.8 -2.7 -10.65 0.0 -9.0 0.25 -8.85 1.05 -8.45 0.25 -9.85 0.25 -9.9 M7.65 -5.65 L7.55 -5.8 7.65 -5.6 7.65 -5.65 8.0 -4.65 8.15 -5.0 7.65 -5.65 M7.9 -3.1 L7.75 -2.95 7.75 -2.9 7.75 -2.8 7.65 -2.8 7.4 -2.8 7.1 -3.1 7.05 -3.25 7.05 -3.3 7.2 -4.2 7.2 -4.55 Q7.0 -5.45 6.05 -6.75 L6.0 -6.85 6.05 -6.95 6.15 -6.95 6.35 -6.95 7.05 -6.6 6.7 -7.3 5.7 -8.1 4.05 -8.8 2.95 -9.05 1.65 -9.2 2.45 -8.1 3.55 -6.15 3.45 -5.85 3.3 -5.45 2.2 -5.65 0.7 -5.85 -0.55 -6.0 -3.4 -6.0 -3.6 -5.95 -5.8 -5.7 Q-4.3 -3.4 -2.2 -2.45 L-2.2 -2.4 -2.15 -2.4 -2.2 -2.3 -2.25 -2.15 Q-2.5 -2.0 -2.75 -2.0 L-2.9 -2.1 -3.35 -2.4 -3.85 -2.7 -4.2 -1.9 -4.7 -1.1 Q-5.5 -0.1 -6.85 0.7 L-7.35 0.95 -4.9 1.85 -4.25 1.85 -3.0 1.4 -1.9 1.25 -1.85 1.25 -1.65 1.35 -1.55 1.4 -1.55 1.5 -1.6 1.6 Q-2.1 1.95 -2.8 2.15 -3.7 3.55 -3.7 4.85 L-3.65 7.2 -2.7 6.6 -2.2 6.25 Q-1.05 5.6 0.4 5.2 L0.45 5.2 0.6 5.35 0.5 5.5 -0.85 6.6 -0.85 6.65 -0.75 8.15 -0.4 8.05 0.35 7.75 1.05 7.45 1.1 7.4 Q2.75 6.65 3.85 5.9 L5.6 4.6 Q5.65 4.5 5.7 4.55 L5.8 4.7 5.85 4.9 5.95 6.7 5.95 6.75 6.0 6.7 6.2 6.5 Q7.05 5.3 7.05 3.95 L7.25 3.3 Q7.6 2.95 7.85 3.65 L8.3 4.9 Q8.95 4.85 9.05 3.1 L8.95 2.05 12.45 2.35 Q11.65 1.35 10.0 0.55 L9.9 0.5 9.85 0.55 Q9.55 1.0 9.15 0.7 L9.05 0.55 9.45 0.15 Q9.55 -0.3 10.8 -0.75 L13.05 -1.15 10.55 -1.3 10.3 -1.0 10.2 -0.95 9.85 -0.95 9.8 -1.0 9.75 -1.05 9.65 -1.3 9.95 -2.9 9.95 -2.95 9.9 -3.5 9.9 -3.65 9.9 -3.7 9.6 -4.7 7.9 -3.1 M5.4 -2.9 L5.35 -2.7 5.3 -2.6 5.2 -2.3 Q5.0 -2.05 4.85 -2.15 L4.8 -2.15 4.05 -2.55 3.95 -2.6 3.75 -2.7 3.05 -2.9 2.85 -2.95 -0.2 -2.8 1.15 -1.1 1.35 -0.85 1.45 -0.75 2.45 0.1 2.9 0.4 3.5 1.0 3.5 1.15 3.35 1.2 3.1 1.2 2.7 1.05 1.85 0.55 1.3 0.1 0.7 -0.5 0.15 -1.1 -1.0 -2.6 -2.0 -3.9 -1.1 -3.65 0.15 -3.65 1.05 -3.65 2.85 -3.6 3.05 -3.6 3.75 -3.45 4.7 -3.15 5.25 -4.15 5.3 -4.2 5.6 -4.6 6.15 -5.25 6.2 -5.3 6.35 -5.0 6.25 -4.75 5.8 -3.95 5.65 -3.65 5.6 -3.6 5.4 -2.9 M2.35 4.1 L3.65 3.85 4.8 3.45 3.6 4.35 2.75 4.7 2.65 4.7 2.0 4.85 1.65 4.9 0.65 4.9 -0.65 4.7 -1.1 4.5 -1.3 4.35 1.65 1.5 2.0 1.9 1.75 2.35 1.65 2.45 1.45 2.7 0.55 3.7 0.15 4.1 0.3 4.15 2.15 4.1 2.35 4.1 M7.9 -1.75 L6.5 1.0 6.3 0.95 6.25 0.8 Q6.25 0.2 7.2 -1.0 L7.7 -1.65 7.8 -1.8 7.9 -1.75 M0.9 -6.7 L0.95 -6.7 2.4 -6.6 1.45 -7.95 1.3 -7.95 0.35 -8.1 0.25 -8.1 Q-0.15 -8.25 -0.55 -8.5 L-2.0 -9.5 -1.9 -7.5 -1.75 -6.7 -0.55 -6.75 0.9 -6.7 M4.9 0.2 L5.0 -0.1 5.0 -0.2 5.1 -0.2 5.15 -0.1 6.05 1.6 5.85 1.8 5.55 1.65 5.45 1.45 5.1 0.7 4.9 0.2 M6.3 1.7 L5.25 3.8 5.1 3.8 5.05 3.65 5.5 2.55 Q5.9 1.7 6.2 1.65 L6.3 1.7 M-9.0 1.2 L-9.25 1.15 -9.75 0.9 -10.1 0.8 -9.7 0.75 -7.4 0.25 -6.0 -1.1 -5.9 -1.2 -5.0 -2.4 -4.45 -3.25 -5.5 -4.2 -6.0 -3.9 -6.15 -3.8 -6.75 -3.35 -7.8 -2.25 -8.95 -1.15 -9.7 -0.4 -11.55 0.8 -12.8 1.6 -12.5 1.7 -11.6 2.0 -9.9 2.25 -9.1 2.1 -8.65 2.1 -8.6 2.15 -8.5 2.2 -8.45 2.5 -8.45 2.55 -8.5 2.65 -8.55 2.65 -9.15 2.8 -10.0 4.75 -4.25 3.25 -3.8 2.3 -4.8 2.4 -8.25 1.45 -9.0 1.2" fill="#a36a6a" fill-rule="evenodd" stroke="none"/>
    <path d="M7.2 -4.55 L7.2 -4.2 7.05 -3.3 7.05 -3.25 7.1 -3.1 7.4 -2.8 7.65 -2.8 7.75 -2.8 7.75 -2.9 7.75 -2.95 7.9 -3.1 8.05 -2.85 7.85 -2.1 Q9.3 -3.75 9.7 -3.75 L9.9 -3.7 9.9 -3.65 9.9 -3.5 9.95 -2.95 9.95 -2.9 9.65 -1.3 9.75 -1.05 9.8 -1.0 9.85 -0.95 10.2 -0.95 10.3 -1.0 10.55 -1.3 13.05 -1.15 10.8 -0.75 Q9.55 -0.3 9.45 0.15 L9.05 0.55 9.15 0.7 Q9.55 1.0 9.85 0.55 L9.9 0.5 10.0 0.55 Q11.65 1.35 12.45 2.35 L8.95 2.05 9.05 3.1 Q8.95 4.85 8.3 4.9 L7.85 3.65 Q7.6 2.95 7.25 3.3 L7.05 3.95 Q7.05 5.3 6.2 6.5 L6.35 6.25 6.45 4.6 6.1 3.45 5.95 3.45 5.8 4.7 5.7 4.55 Q5.65 4.5 5.6 4.6 L3.85 5.9 Q2.75 6.65 1.1 7.4 L1.05 7.45 0.35 7.75 -0.4 8.05 0.75 6.05 1.2 5.1 1.3 5.0 1.25 4.9 1.65 4.9 2.0 4.85 2.65 4.7 2.75 4.7 3.6 4.35 4.8 3.45 3.65 3.85 2.35 4.1 2.6 3.9 Q4.15 2.7 4.85 1.4 L4.85 1.3 3.1 1.2 3.35 1.2 3.5 1.15 3.5 1.0 2.9 0.4 2.45 0.1 1.45 -0.75 1.7 -0.8 3.2 -0.45 3.3 -0.5 2.8 -1.0 5.35 -0.75 5.05 -2.15 5.2 -2.3 5.3 -2.6 5.35 -2.7 5.4 -2.9 5.9 -2.4 Q6.7 -4.1 7.2 -4.55 M7.65 -5.65 L8.15 -5.0 8.0 -4.65 7.65 -5.65 M7.9 -1.75 L7.8 -1.8 7.7 -1.65 7.2 -1.0 Q6.25 0.2 6.25 0.8 L6.3 0.95 6.5 1.0 7.9 -1.75 M6.3 1.7 L6.2 1.65 Q5.9 1.7 5.5 2.55 L5.05 3.65 5.1 3.8 5.25 3.8 6.3 1.7 M4.9 0.2 L5.1 0.7 5.45 1.45 5.55 1.65 5.85 1.8 6.05 1.6 5.15 -0.1 5.1 -0.2 5.0 -0.2 5.0 -0.1 4.9 0.2" fill="#cca9a9" fill-rule="evenodd" stroke="none"/>
    <path d="M7.2 -4.55 Q6.7 -4.1 5.9 -2.4 L5.4 -2.9 5.6 -3.6 5.65 -3.65 5.65 -3.6 5.8 -3.95 6.25 -4.75 6.35 -5.0 6.2 -5.3 6.15 -5.25 5.6 -4.6 5.3 -4.2 5.25 -4.15 4.7 -3.15 3.75 -3.45 3.05 -3.6 Q2.65 -4.3 2.2 -5.65 L3.3 -5.45 3.45 -5.85 4.8 -4.9 Q4.6 -6.75 3.75 -8.1 L2.95 -9.05 4.05 -8.8 5.7 -8.1 6.7 -7.3 7.05 -6.6 6.35 -6.95 6.15 -6.95 6.05 -6.95 6.0 -6.85 6.05 -6.75 Q7.0 -5.45 7.2 -4.55 M5.2 -2.3 L5.05 -2.15 5.35 -0.75 2.8 -1.0 1.8 -1.9 1.8 -2.0 4.0 -1.15 4.1 -1.1 3.05 -2.9 3.75 -2.7 3.95 -2.6 4.05 -2.45 4.05 -2.55 4.8 -2.15 4.85 -2.15 Q5.0 -2.05 5.2 -2.3 M3.1 1.2 L4.85 1.3 4.85 1.4 Q4.15 2.7 2.6 3.9 L2.35 4.1 2.15 4.1 0.3 4.15 0.15 4.1 0.55 3.7 1.05 3.65 Q2.85 3.65 3.6 2.45 L1.65 2.45 1.75 2.35 2.0 1.9 1.65 1.5 -1.3 4.35 -1.1 4.5 -0.65 4.7 0.65 4.9 1.65 4.9 1.25 4.9 1.3 5.0 1.2 5.1 0.75 6.05 -0.4 8.05 -0.75 8.15 -0.85 6.65 -0.85 6.6 0.5 5.5 0.6 5.35 0.45 5.2 0.4 5.2 Q-1.05 5.6 -2.2 6.25 L-2.7 6.6 -3.65 7.2 -3.65 6.7 -2.1 3.1 -1.75 2.1 -1.6 1.6 -1.55 1.5 -1.55 1.4 -1.65 1.35 -1.85 1.25 -1.9 1.25 -3.0 1.4 -4.25 1.85 -4.9 1.85 -7.35 0.95 -6.85 0.7 -5.4 0.8 -1.2 0.25 -0.35 -0.1 -0.45 0.05 -1.0 0.8 -0.7 0.4 0.7 -0.5 1.3 0.1 1.85 0.55 2.7 1.05 3.1 1.2 M5.8 4.7 L5.95 3.45 6.1 3.45 6.45 4.6 6.35 6.25 6.2 6.5 6.0 6.7 5.95 6.7 5.85 4.9 5.8 4.7 M9.9 -3.7 L9.7 -3.75 Q9.3 -3.75 7.85 -2.1 L8.05 -2.85 7.9 -3.1 9.6 -4.7 9.9 -3.7 M-2.0 -9.5 L-0.55 -8.5 Q-0.15 -8.25 0.25 -8.1 L0.35 -8.1 1.3 -7.95 1.45 -7.95 2.4 -6.6 0.95 -6.7 0.9 -6.7 0.85 -6.75 -0.55 -7.65 -1.6 -8.9 -2.0 -9.5 M-5.8 -5.7 L-5.5 -5.7 -3.0 -4.1 -2.0 -3.9 -1.0 -2.6 -0.65 -2.1 -0.9 -2.1 -2.45 -1.6 -4.05 -0.8 -4.1 -1.0 Q-4.1 -1.5 -2.95 -2.1 L-2.9 -2.1 -2.75 -2.0 Q-2.5 -2.0 -2.25 -2.15 L-2.2 -2.3 -2.15 -2.4 -2.2 -2.4 -2.2 -2.45 Q-4.3 -3.4 -5.8 -5.7 M-9.0 1.2 L-8.25 1.45 -4.8 2.4 -3.8 2.3 -4.25 3.25 -10.0 4.75 -9.15 2.8 -8.55 2.65 -8.5 2.65 -8.45 2.55 -8.45 2.5 -8.5 2.2 -8.6 2.15 -8.65 2.1 -9.1 2.1 -9.9 2.25 -11.6 2.0 -12.5 1.7 -9.75 1.5 -9.0 1.2" fill="#e0cbcb" fill-rule="evenodd" stroke="none"/>
    <path d="M2.8 -1.0 L3.3 -0.5 3.2 -0.45 1.7 -0.8 1.45 -0.75 1.35 -0.85 1.15 -1.1 -0.2 -2.8 2.85 -2.95 3.05 -2.9 4.1 -1.1 4.0 -1.15 1.8 -2.0 1.8 -1.9 2.8 -1.0 M2.95 -9.05 L3.75 -8.1 Q4.6 -6.75 4.8 -4.9 L3.45 -5.85 3.55 -6.15 2.45 -8.1 1.65 -9.2 2.95 -9.05 M2.2 -5.65 Q2.65 -4.3 3.05 -3.6 L2.85 -3.6 1.05 -3.65 0.15 -3.65 -1.1 -3.65 -2.0 -3.9 -3.0 -4.1 -5.5 -5.7 -5.8 -5.7 -3.6 -5.95 -3.4 -6.0 -0.55 -6.0 0.7 -5.85 2.2 -5.65 M5.8 -3.95 L5.65 -3.6 5.65 -3.65 5.8 -3.95 M-2.0 -9.5 L-1.6 -8.9 -0.55 -7.65 0.85 -6.75 0.9 -6.7 -0.55 -6.75 -1.75 -6.7 -1.9 -7.5 -2.0 -9.5 M-2.9 -2.1 L-2.95 -2.1 Q-4.1 -1.5 -4.1 -1.0 L-4.05 -0.8 -2.45 -1.6 -0.9 -2.1 -0.65 -2.1 -1.0 -2.6 0.15 -1.1 0.7 -0.5 -0.7 0.4 -1.0 0.8 -0.45 0.05 -0.35 -0.1 -1.2 0.25 -5.4 0.8 -6.85 0.7 Q-5.5 -0.1 -4.7 -1.1 L-4.2 -1.9 -3.85 -2.7 -3.35 -2.4 -2.9 -2.1 M3.95 -2.6 L4.05 -2.55 4.05 -2.45 3.95 -2.6 M-1.6 1.6 L-1.75 2.1 -2.1 3.1 -3.65 6.7 -3.65 7.2 -3.7 4.85 Q-3.7 3.55 -2.8 2.15 -2.1 1.95 -1.6 1.6 M1.65 2.45 L3.6 2.45 Q2.85 3.65 1.05 3.65 L0.55 3.7 1.45 2.7 1.65 2.45 M-12.5 1.7 L-12.8 1.6 -11.55 0.8 -9.7 -0.4 -8.95 -1.15 -7.8 -2.25 -6.75 -3.35 -6.15 -3.8 -6.0 -3.9 -5.5 -4.2 -4.45 -3.25 -5.0 -2.4 -5.9 -1.2 -6.0 -1.1 -7.4 0.25 -9.7 0.75 -10.1 0.8 -9.75 0.9 -9.25 1.15 -9.0 1.2 -9.75 1.5 -12.5 1.7" fill="#ffffff" fill-rule="evenodd" stroke="none"/>
  </g>
</svg>