<?xml version="1.0" encoding="UTF-8" standalone="no"?>
<svg xmlns:xlink="http://www.w3.org/1999/xlink" height="49.6px" width="39.05px" xmlns="http://www.w3.org/2000/svg">
  <g transform="matrix(1.0, 0.0, 0.0, 1.0, 19.55, 24.8)">
    <path d="M-0.25 -3.0 L-0.25 -3.05 -0.3 -4.5 -0.25 -5.1 -0.15 -7.5 -0.05 -10.25 0.85 -9.35 3.15 -6.95 3.85 -6.2 4.95 -2.45 Q6.0 0.45 6.0 5.75 6.25 8.8 5.2 8.8 4.65 8.8 0.9 0.35 L-0.25 -3.0 M11.75 10.85 L11.45 9.5 12.4 8.35 15.4 5.7 17.45 4.1 17.5 4.4 Q13.15 10.6 11.75 10.85 M-13.0 21.15 L-13.05 21.15 -13.85 20.95 -16.2 20.45 -16.65 20.35 Q-12.25 18.4 -7.5 17.5 L-5.3 17.1 -5.25 17.1 -5.15 17.25 -4.8 17.85 -3.9 19.85 Q-3.9 20.55 -10.8 21.0 L-13.0 21.15 M-13.2 6.0 L-13.25 5.95 -13.65 4.85 -14.65 1.45 -14.7 1.3 -14.95 0.1 -15.55 -5.05 -15.65 -7.1 -10.4 -3.8 Q-8.45 -1.1 -7.5 0.85 -4.25 7.85 -3.9 9.6 -3.6 11.35 -4.2 11.35 -4.8 11.35 -8.2 9.5 -11.65 7.65 -12.8 6.4 L-13.2 6.0 M-10.2 -7.45 L-10.3 -7.7 -10.4 -7.95 -10.55 -8.35 -10.65 -8.55 -10.7 -8.7 -11.05 -9.65 -11.4 -10.6 -11.7 -11.65 -12.3 -13.75 Q-13.25 -17.8 -13.55 -22.05 L-8.85 -17.7 -6.45 -14.95 -5.6 -13.8 -5.1 -13.15 Q-4.0 -9.85 -3.85 -3.65 -6.0 -4.05 -10.2 -7.45" fill="url(#gradient0)" fill-rule="evenodd" stroke="none"/>
    <path d="M3.85 -6.2 L4.35 -5.6 4.95 -4.7 5.95 -3.25 6.6 -2.05 7.25 -0.7 7.95 0.75 8.55 2.2 9.4 4.65 8.4 7.4 Q7.15 11.25 6.2 12.45 L2.4 9.05 1.75 7.6 0.4 3.3 0.15 2.2 0.0 0.7 -0.15 -1.05 -0.25 -2.75 -0.25 -3.0 0.9 0.35 Q4.65 8.8 5.2 8.8 6.25 8.8 6.0 5.75 6.0 0.45 4.95 -2.45 L3.85 -6.2 M11.9 11.35 L11.8 11.05 11.75 10.85 Q13.15 10.6 17.5 4.4 17.7 6.9 17.1 9.3 L16.55 11.05 16.8 10.3 Q14.0 12.1 12.85 12.1 L11.9 11.35 M11.45 9.5 L11.4 9.35 12.4 8.35 11.45 9.5 M-5.25 17.1 L-5.15 17.2 -5.15 17.25 -5.25 17.1 M-4.7 16.35 L-5.8 15.5 -7.1 14.45 -7.65 13.95 -8.3 13.25 -11.3 9.5 -12.3 7.9 -13.2 6.0 -12.8 6.4 Q-11.65 7.65 -8.2 9.5 -4.8 11.35 -4.2 11.35 -3.6 11.35 -3.9 9.6 -4.25 7.85 -7.5 0.85 -8.45 -1.1 -10.4 -3.8 L-9.8 -3.45 -6.3 -0.25 -4.85 1.15 -1.4 5.1 0.35 7.45 Q1.4 11.6 1.4 15.8 L1.4 16.25 Q1.2 16.7 0.2 16.7 L-4.05 16.15 -4.7 16.35 M2.15 10.4 L2.05 10.05 2.15 10.45 2.15 10.4 M-5.1 -13.15 Q-3.2 -10.45 -2.6 -8.55 L-1.7 -5.4 -1.45 -3.85 -1.35 -2.9 -0.6 2.2 0.1 5.35 Q-2.05 2.45 -3.6 0.9 L-5.75 -1.2 Q-7.5 -2.7 -8.5 -4.25 -9.45 -5.7 -10.2 -7.45 -6.0 -4.05 -3.85 -3.65 -4.0 -9.85 -5.1 -13.15" fill="#e0cbcb" fill-rule="evenodd" stroke="none"/>
    <path d="M9.4 4.65 L9.45 4.9 9.9 6.5 10.45 9.4 10.75 11.05 11.0 12.1 11.8 14.65 12.1 15.45 12.4 15.05 12.25 13.2 11.9 11.35 12.85 12.1 Q14.0 12.1 16.8 10.3 L16.55 11.05 16.25 11.8 16.05 12.2 15.6 13.1 15.4 13.5 14.7 14.85 14.6 15.15 15.2 14.95 Q14.25 16.75 11.75 20.0 10.3 21.9 5.1 23.0 L-1.05 23.7 -2.2 23.65 -1.65 23.35 -9.05 22.0 -12.4 21.25 -13.0 21.15 -10.8 21.0 Q-3.9 20.55 -3.9 19.85 L-4.8 17.85 -5.15 17.25 -5.15 17.2 -2.85 18.7 -0.35 19.9 0.4 20.2 1.15 20.35 0.4 19.9 -2.7 17.8 -4.7 16.35 -4.05 16.15 0.2 16.7 Q1.2 16.7 1.4 16.25 L1.4 15.8 Q1.4 11.6 0.35 7.45 L0.75 8.0 1.4 8.9 1.7 9.4 2.05 9.9 2.05 9.95 2.1 10.05 5.35 15.75 Q5.05 14.0 4.35 12.55 L4.2 12.25 3.65 11.35 2.4 9.05 6.2 12.45 Q7.15 11.25 8.4 7.4 L9.4 4.65 M2.15 10.4 L2.15 10.45 2.05 10.05 2.15 10.4" fill="#cca9a9" fill-rule="evenodd" stroke="none"/>
    <path d="M0.05 -10.05 L-0.05 -7.5 -0.15 -5.1 -0.2 -4.5 -0.15 -3.05 -0.15 -3.0 -0.15 -2.75 -0.05 -1.05 0.1 0.7 0.25 2.2 0.5 3.25 Q1.1 5.5 1.85 7.55 L2.5 9.0 3.75 11.3 4.3 12.2 4.45 12.5 Q5.15 14.0 5.45 15.75 L5.45 15.8 5.4 15.85 5.35 15.85 5.3 15.8 5.25 15.8 2.0 10.1 2.0 10.05 1.95 10.0 1.95 9.95 1.6 9.45 1.3 8.95 0.65 8.05 0.3 7.55 0.3 7.5 0.25 7.5 -1.5 5.15 -4.9 1.2 -6.35 -0.2 -9.8 -3.35 -9.85 -3.35 -15.55 -6.9 -15.45 -5.05 -14.85 0.1 -14.6 1.3 -14.55 1.4 -13.55 4.8 -13.15 5.9 -13.1 5.95 -12.2 7.85 -11.2 9.45 -8.25 13.2 -7.6 13.9 -7.1 14.4 -7.1 14.35 -7.05 14.35 -5.75 15.4 -4.65 16.25 -2.65 17.7 0.45 19.8 1.2 20.25 1.2 20.3 1.25 20.35 1.25 20.4 1.2 20.45 1.15 20.45 0.35 20.3 -0.4 20.0 -2.9 18.8 -5.2 17.3 -5.3 17.2 -7.5 17.6 Q-12.1 18.45 -16.3 20.35 L-16.2 20.35 -13.85 20.85 -13.05 21.05 -13.0 21.05 -12.4 21.15 -9.05 21.9 -1.65 23.25 -1.55 23.35 -1.55 23.4 -1.6 23.45 -2.1 23.75 -2.1 23.7 -2.15 23.75 -2.25 23.8 -2.3 23.8 Q-8.55 23.4 -14.55 22.2 -16.6 21.8 -18.5 20.75 L-18.55 20.7 -18.55 20.65 -18.5 20.6 -18.5 20.55 Q-16.25 18.65 -13.4 17.8 L-13.35 17.8 -6.35 16.5 -8.55 14.5 -9.7 13.3 -9.75 13.25 -9.8 13.25 -9.85 13.2 -12.75 9.4 -13.7 7.95 Q-16.15 3.2 -16.6 -2.3 -16.85 -5.1 -16.5 -8.8 L-16.4 -8.9 -16.35 -8.9 -15.85 -8.55 -14.75 -7.8 -13.7 -7.15 -10.45 -5.35 -12.05 -9.45 -13.3 -13.75 -13.9 -16.85 -14.2 -20.35 -14.25 -23.7 -14.15 -23.8 -14.1 -23.75 -13.85 -23.5 -13.8 -23.5 -6.8 -17.05 Q-3.3 -13.5 -1.7 -8.75 L-1.35 -7.95 -1.1 -12.5 -1.0 -12.6 3.25 -8.45 3.3 -8.45 3.8 -7.85 3.85 -7.85 4.35 -7.25 4.8 -6.7 5.55 -5.7 6.3 -4.65 7.5 -2.55 8.1 -1.45 8.6 -0.35 9.6 2.15 9.75 2.65 11.35 8.0 11.9 7.3 11.95 7.3 12.0 7.3 13.6 5.7 13.6 5.65 16.95 3.2 18.2 2.3 18.25 2.3 18.35 2.35 18.35 2.4 18.35 2.5 18.35 2.6 Q18.7 7.5 18.2 9.45 L17.3 12.05 16.0 14.25 15.25 15.05 14.6 15.25 14.55 15.25 14.5 15.2 14.5 15.15 14.6 14.85 14.6 14.8 15.3 13.45 15.5 13.05 15.95 12.15 16.15 11.75 16.45 11.0 17.0 9.3 Q17.6 6.85 17.4 4.4 L17.4 4.3 15.45 5.8 12.45 8.4 11.5 9.35 11.55 9.5 11.85 10.85 11.9 11.05 12.0 11.35 12.35 13.2 12.5 15.05 12.5 15.1 12.2 15.5 12.2 15.55 12.1 15.55 12.05 15.5 12.0 15.5 11.7 14.7 10.9 12.15 10.65 11.05 10.35 9.4 9.8 6.5 9.35 4.95 9.3 4.7 8.45 2.25 7.85 0.8 7.15 -0.65 6.5 -2.0 5.85 -3.2 4.85 -4.65 4.25 -5.55 3.75 -6.15 3.8 -6.15 3.1 -6.9 0.8 -9.3 0.05 -10.05 M-5.2 -13.1 L-5.7 -13.75 -6.55 -14.9 -8.9 -17.65 -13.45 -21.8 Q-13.1 -17.75 -12.2 -13.8 L-11.6 -11.7 -11.3 -10.65 -10.95 -9.7 -10.6 -8.75 -10.55 -8.6 -10.45 -8.4 -10.3 -8.0 -10.2 -7.75 -10.1 -7.5 Q-9.35 -5.75 -8.4 -4.3 -7.4 -2.75 -5.7 -1.3 L-5.65 -1.25 -5.65 -1.2 -3.55 0.85 -0.1 4.9 -0.7 2.2 -1.45 -2.9 -1.55 -3.85 -1.8 -5.4 -2.7 -8.5 Q-3.3 -10.4 -5.2 -13.1" fill="#a36a6a" fill-rule="evenodd" stroke="none"/>
  </g>
  <defs>
    <radialGradient cx="0" cy="0" gradientTransform="matrix(0.0114, -0.0059, 0.0129, 0.0249, -11.25, -6.45)" gradientUnits="userSpaceOnUse" id="gradient0" r="819.2" spreadMethod="pad">
      <stop offset="0.47843137254901963" stop-color="#ffffff"></stop>
      <stop offset="0.8823529411764706" stop-color="#f2eaea"></stop>
    </radialGradient>
  </defs>
</svg>