<?xml version="1.0" encoding="UTF-8" standalone="no"?>
<svg xmlns:xlink="http://www.w3.org/1999/xlink" height="29.15px" width="66.6px" xmlns="http://www.w3.org/2000/svg">
  <g transform="matrix(1.0, 0.0, 0.0, 1.0, 33.3, 14.55)">
    <path d="M12.65 5.7 L12.4 3.85 12.3 2.45 Q12.4 -0.6 13.8 -3.3 15.0 -5.55 16.6 -7.5 18.2 -9.45 20.5 -10.85 21.65 -11.45 22.9 -11.75 23.4 -11.95 23.95 -11.75 24.95 -11.55 25.65 -10.9 28.75 -8.25 28.8 -4.15 28.85 -2.45 29.3 -0.6 L29.9 2.45 Q29.9 2.35 29.7 2.35 L29.4 2.9 29.45 5.35 29.55 6.15 29.75 7.25 28.7 5.65 Q28.3 5.2 27.9 5.65 L27.75 5.9 Q27.5 6.55 27.55 7.65 L27.5 7.65 27.05 6.85 26.3 6.05 26.0 6.1 25.7 6.45 Q24.55 8.6 24.7 10.9 L24.6 10.95 24.0 8.75 Q23.75 8.1 23.15 7.9 21.65 8.75 21.1 10.5 L20.85 9.7 Q20.55 8.75 19.95 8.25 19.2 7.55 18.35 8.35 L18.25 8.95 Q16.35 8.7 15.4 10.5 L15.1 10.2 Q15.9 10.1 15.7 9.2 15.7 8.35 14.65 5.35 13.95 3.45 13.05 4.95 L12.65 5.7 M15.05 4.15 L14.95 4.45 Q16.5 8.5 16.9 8.5 17.7 8.5 17.65 7.9 17.65 7.4 16.8 5.85 15.85 4.1 15.1 4.05 L15.05 4.15 M-29.45 -3.2 L-29.75 -3.4 Q-29.35 -5.2 -29.2 -7.0 L-28.6 -9.65 -28.1 -10.7 Q-24.35 -11.75 -20.35 -11.7 L-17.6 -11.35 -15.7 -10.55 Q-11.35 -8.1 -8.55 -3.85 L-7.15 -1.85 Q-5.4 0.7 -5.7 3.9 -5.8 5.4 -6.8 6.2 -9.1 7.95 -11.9 7.3 L-19.0 6.15 -20.4 6.4 -20.7 6.3 -22.2 5.45 Q-23.2 5.05 -23.85 5.85 L-23.85 6.15 -24.05 5.2 Q-24.6 2.8 -25.15 2.8 L-25.85 3.25 -26.3 4.0 -26.05 -1.35 Q-26.05 -2.25 -26.8 -2.25 -27.15 -2.25 -27.55 -1.65 L-28.25 -0.8 -27.65 -6.45 Q-27.65 -9.25 -28.5 -8.05 -29.35 -6.85 -29.35 -4.05 L-29.45 -3.2 M-27.5 1.4 L-27.65 1.1 -27.4 0.55 -27.5 1.4" fill="#cca9a9" fill-rule="evenodd" stroke="none"/>
    <path d="M27.55 7.65 Q27.5 6.55 27.75 5.9 L27.9 5.65 Q28.3 5.2 28.7 5.65 L29.75 7.25 29.55 6.15 29.45 5.35 29.4 2.9 29.7 2.35 Q29.9 2.35 29.9 2.45 L29.3 -0.6 Q28.85 -2.45 28.8 -4.15 28.75 -8.25 25.65 -10.9 24.95 -11.55 23.95 -11.75 23.4 -11.95 22.9 -11.75 21.65 -11.45 20.5 -10.85 18.2 -9.45 16.6 -7.5 15.0 -5.55 13.8 -3.3 12.4 -0.6 12.3 2.45 L12.4 3.85 12.65 5.7 12.8 6.8 12.85 7.0 12.85 7.2 Q13.0 8.4 13.9 9.15 L15.1 10.2 15.4 10.5 Q16.35 8.7 18.25 8.95 L18.35 8.35 Q19.2 7.55 19.95 8.25 20.55 8.75 20.85 9.7 L21.1 10.5 Q21.65 8.75 23.15 7.9 23.75 8.1 24.0 8.75 L24.6 10.95 24.6 11.05 24.7 10.9 Q24.55 8.6 25.7 6.45 L26.0 6.1 26.3 6.05 27.05 6.85 27.5 7.65 27.55 7.7 27.55 7.65 M15.6 -9.1 Q17.85 -12.0 21.4 -12.9 24.1 -13.4 26.6 -12.4 L28.05 -11.4 29.15 -9.8 29.75 -7.35 30.0 -4.1 Q30.2 -1.45 31.1 1.0 L32.3 4.7 32.3 4.85 30.45 4.9 30.65 5.9 31.1 8.05 31.1 8.9 30.9 9.1 Q30.1 9.3 29.6 8.8 L28.6 7.6 28.55 10.3 27.75 10.55 27.5 10.25 26.4 7.95 Q26.05 10.65 25.25 13.05 L24.9 13.6 24.35 13.15 Q23.55 12.4 23.35 11.25 L23.1 10.1 22.45 11.05 Q21.9 12.2 20.65 12.55 L20.45 12.5 20.3 12.25 Q19.65 11.2 19.45 10.0 L18.95 10.75 18.65 10.65 Q17.85 10.3 17.25 10.3 L17.15 10.5 Q16.9 11.45 16.15 11.9 L15.4 12.25 Q12.85 10.7 11.85 7.75 11.0 5.2 10.95 2.4 10.95 0.6 11.4 -1.05 12.7 -5.5 15.6 -9.1 M-31.75 -2.4 L-30.55 -7.65 -29.85 -10.1 -29.2 -11.6 -23.55 -13.3 -18.9 -13.55 -16.35 -12.85 -14.0 -11.7 Q-11.65 -10.2 -9.8 -8.05 -8.15 -6.2 -6.85 -4.4 -5.1 -1.95 -4.3 0.95 -3.9 2.35 -4.2 3.6 L-4.4 4.6 Q-4.85 7.55 -7.6 8.4 L-9.25 8.95 -13.0 8.65 -14.8 8.05 Q-16.7 7.35 -18.65 7.5 L-18.8 7.6 -19.3 7.85 -20.55 7.55 -21.85 7.35 -22.4 7.0 -22.5 6.9 -22.6 7.6 -22.55 7.9 -22.5 8.6 -22.6 9.05 -22.85 9.5 -23.15 9.35 -23.65 9.2 -24.55 8.3 -25.7 6.75 Q-25.9 8.1 -26.55 9.25 L-28.05 11.8 Q-28.4 12.4 -28.9 12.3 -29.4 12.1 -29.35 11.65 L-29.1 8.8 -28.85 3.9 -28.85 3.0 -28.95 3.2 -29.55 3.85 -30.45 4.75 -31.15 5.2 -31.7 5.35 -31.85 5.2 -32.0 4.5 -31.95 3.85 -31.5 2.2 -31.25 1.45 -31.3 1.35 Q-31.5 1.2 -31.7 1.2 L-32.05 0.95 Q-32.4 0.5 -32.25 -0.15 L-31.75 -2.4 M-23.85 6.15 L-23.85 5.85 Q-23.2 5.05 -22.2 5.45 L-20.7 6.3 -20.4 6.4 -19.0 6.15 -11.9 7.3 Q-9.1 7.95 -6.8 6.2 -5.8 5.4 -5.7 3.9 -5.4 0.7 -7.15 -1.85 L-8.55 -3.85 Q-11.35 -8.1 -15.7 -10.55 L-17.6 -11.35 -20.35 -11.7 Q-24.35 -11.75 -28.1 -10.7 L-28.6 -9.65 -29.2 -7.0 Q-29.35 -5.2 -29.75 -3.4 L-29.45 -3.2 -29.2 -3.05 -29.15 -3.0 -28.8 -2.85 Q-28.55 -1.95 -28.95 -0.95 L-29.4 0.3 -29.85 2.0 -28.9 0.7 -28.05 0.6 -27.65 1.1 -27.5 1.4 -27.5 1.45 -27.45 1.65 -27.45 1.8 Q-27.2 4.95 -27.55 8.35 L-26.65 5.35 Q-26.4 4.6 -25.6 4.45 -24.85 4.75 -24.55 5.5 L-23.95 6.8 -23.85 6.15" fill="#a36a6a" fill-rule="evenodd" stroke="none"/>
    <path d="M12.65 5.7 L13.05 4.95 Q13.95 3.45 14.65 5.35 15.7 8.35 15.7 9.2 15.9 10.1 15.1 10.2 L13.9 9.15 Q13.0 8.4 12.85 7.2 L12.85 7.0 12.8 6.8 12.65 5.7 M15.05 4.15 L15.1 4.05 Q15.85 4.1 16.8 5.85 17.65 7.4 17.65 7.9 17.7 8.5 16.9 8.5 16.5 8.5 14.95 4.45 L15.05 4.15 M-29.45 -3.2 L-29.35 -4.05 Q-29.35 -6.85 -28.5 -8.05 -27.65 -9.25 -27.65 -6.45 L-28.25 -0.8 -27.55 -1.65 Q-27.15 -2.25 -26.8 -2.25 -26.05 -2.25 -26.05 -1.35 L-26.3 4.0 -25.85 3.25 -25.15 2.8 Q-24.6 2.8 -24.05 5.2 L-23.85 6.15 -23.95 6.8 -24.55 5.5 Q-24.85 4.75 -25.6 4.45 -26.4 4.6 -26.65 5.35 L-27.55 8.35 Q-27.2 4.95 -27.45 1.8 L-27.45 1.65 -27.5 1.45 -27.5 1.4 -27.4 0.55 -27.65 1.1 -28.05 0.6 -28.9 0.7 -29.85 2.0 -29.4 0.3 -28.95 -0.95 Q-28.55 -1.95 -28.8 -2.85 L-29.15 -3.0 -29.2 -3.05 -29.45 -3.2" fill="#ffffff" fill-rule="evenodd" stroke="none"/>
  </g>
</svg>