<?xml version="1.0" encoding="UTF-8" standalone="no"?>
<svg xmlns:xlink="http://www.w3.org/1999/xlink" height="9.7px" width="34.8px" xmlns="http://www.w3.org/2000/svg">
  <g transform="matrix(1.0, 0.0, 0.0, 1.0, 18.45, 5.6)">
    <path d="M-7.5 2.9 L-7.6 2.65 Q-7.6 1.95 -6.45 1.6 -5.35 1.2 -5.35 1.9 L-6.15 2.5 -7.15 3.1 -7.5 2.9 M14.25 -3.75 L14.05 -4.05 Q14.05 -4.7 14.7 -4.6 15.35 -4.5 15.35 -4.05 15.3 -3.6 14.65 -3.6 14.45 -3.6 14.25 -3.75" fill="#ffffff" fill-rule="evenodd" stroke="none"/>
    <path d="M-17.45 0.45 L-17.4 0.15 -16.8 0.0 -16.8 0.25 Q-16.8 0.6 -17.1 0.6 L-17.4 0.6 -17.45 0.45" fill="#e0cbcb" fill-rule="evenodd" stroke="none"/>
  </g>
</svg>