<?xml version="1.0" encoding="UTF-8" standalone="no"?>
<svg xmlns:xlink="http://www.w3.org/1999/xlink" height="25px" width="36.6px" xmlns="http://www.w3.org/2000/svg">
  <g transform="matrix(1.0, 0.0, 0.0, 1.0, 18.7, 11.45)">
    <path d="M16.8 -4.35 Q17.05 -2.65 16.55 -0.85 15.6 2.6 12.0 3.05 9.05 3.45 6.5 0.95 4.65 -0.95 4.5 -2.0 4.1 -5.25 5.75 -7.6 7.25 -9.75 9.75 -10.3 12.25 -10.85 14.15 -9.4 16.35 -7.8 16.8 -4.35 M-16.75 1.75 L-15.1 0.2 Q-11.65 -2.4 -11.05 -0.95 L-10.05 -1.2 Q-8.75 -1.3 -8.65 -0.6 L-11.95 1.25 Q-15.3 3.15 -15.0 5.3 -14.8 6.3 -14.2 7.15 -12.95 9.0 -10.9 8.75 -8.3 8.4 -6.2 5.25 L-4.6 2.6 -4.5 2.7 -4.15 3.65 -3.9 4.75 -3.85 5.15 -3.8 8.65 -3.8 8.75 -4.05 8.9 Q-6.5 11.35 -7.7 11.5 L-8.15 11.4 -8.65 11.3 -8.95 11.7 Q-9.2 12.0 -9.85 12.1 L-11.05 12.0 -12.95 12.0 -13.15 12.2 -13.15 12.25 -15.1 11.5 -17.45 7.95 -17.6 7.3 -17.65 6.6 -17.7 6.15 -17.7 6.05 -17.0 2.3 -16.75 1.75" fill="#e1e4ea" fill-rule="evenodd" stroke="none"/>
    <path d="M-4.5 2.7 L-4.6 2.6 -6.2 5.25 Q-8.3 8.4 -10.9 8.75 -12.95 9.0 -14.2 7.15 -14.8 6.3 -15.0 5.3 -15.3 3.15 -11.95 1.25 L-8.65 -0.6 Q-8.75 -1.3 -10.05 -1.2 L-11.05 -0.95 Q-11.65 -2.4 -15.1 0.2 L-16.75 1.75 -16.25 0.9 Q-14.55 -1.25 -11.7 -1.55 -8.95 -1.8 -6.7 -0.1 -5.25 1.05 -4.5 2.7 M-17.45 7.95 L-15.1 11.5 -16.15 10.7 Q-17.15 9.75 -17.45 7.95 M-13.15 12.25 L-13.15 12.2 -12.95 12.0 -11.05 12.0 -9.85 12.1 Q-9.2 12.0 -8.95 11.7 L-8.65 11.3 -8.15 11.4 -7.7 11.5 Q-6.5 11.35 -4.05 8.9 L-3.8 8.75 Q-4.4 11.95 -7.2 12.3 -10.8 12.8 -13.15 12.25" fill="#ffffff" fill-rule="evenodd" stroke="none"/>
  </g>
</svg>