<?xml version="1.0" encoding="UTF-8" standalone="no"?>
<svg xmlns:xlink="http://www.w3.org/1999/xlink" height="15.45px" width="35.05px" xmlns="http://www.w3.org/2000/svg">
  <g transform="matrix(1.0, 0.0, 0.0, 1.0, 19.05, 6.95)">
    <path d="M10.7 -0.85 Q10.3 -2.25 10.3 -3.6 10.3 -6.85 12.65 -5.6 14.95 -4.35 14.95 -1.1 L14.85 0.25 Q14.45 1.6 13.05 1.6 11.4 1.6 10.7 -0.85 M12.45 -1.45 L12.15 -0.75 Q12.15 0.1 13.05 0.1 14.6 0.1 14.6 -1.05 14.6 -2.05 13.55 -2.05 12.85 -2.05 12.45 -1.45 M-7.95 3.7 Q-7.95 4.95 -8.95 5.95 -10.5 7.5 -14.15 7.5 -16.1 7.5 -17.25 5.65 -18.05 4.35 -18.05 3.45 -18.05 2.35 -16.65 0.65 -15.0 -1.35 -13.15 -1.35 -10.75 -1.35 -9.15 0.95 -7.95 2.65 -7.95 3.7 M-12.8 3.8 L-14.75 3.55 Q-15.65 3.55 -15.65 4.5 -15.65 5.15 -15.1 5.4 L-13.2 5.65 Q-11.25 5.65 -10.3 4.9 -9.65 4.4 -9.65 3.85 -9.65 2.5 -11.05 3.0 L-12.8 3.8" fill="#ff0000" fill-rule="evenodd" stroke="none"/>
    <path d="M12.45 -1.45 Q12.85 -2.05 13.55 -2.05 14.6 -2.05 14.6 -1.05 14.6 0.1 13.05 0.1 12.15 0.1 12.15 -0.75 L12.45 -1.45 M-12.8 3.8 L-11.05 3.0 Q-9.65 2.5 -9.65 3.85 -9.65 4.4 -10.3 4.9 -11.25 5.65 -13.2 5.65 L-15.1 5.4 Q-15.65 5.15 -15.65 4.5 -15.65 3.55 -14.75 3.55 L-12.8 3.8" fill="#ff00ff" fill-rule="evenodd" stroke="none"/>
  </g>
</svg>