<?xml version="1.0" encoding="UTF-8" standalone="no"?>
<svg xmlns:xlink="http://www.w3.org/1999/xlink" height="17.9px" width="14.35px" xmlns="http://www.w3.org/2000/svg">
  <g transform="matrix(1.0, 0.0, 0.0, 1.0, 2.3, 8.8)">
    <path d="M0.6 -3.95 L0.25 -2.65 Q-0.15 -1.4 -0.4 -1.4 -0.6 -1.4 -0.95 -1.75 L-1.3 -2.45 Q-1.3 -3.9 -0.35 -4.5 0.6 -5.1 0.6 -3.95 M3.8 -7.45 Q3.8 -7.95 3.9 -7.75 6.95 -7.65 7.55 -5.7 L7.75 -2.4 9.45 0.6 Q11.05 3.2 11.05 4.0 11.05 6.95 10.2 8.1 L10.05 8.0 10.65 5.1 Q10.65 3.9 9.05 2.0 L6.55 -1.15 Q6.25 -1.65 6.25 -2.65 L6.25 -4.3 Q6.15 -5.75 4.95 -6.65 L3.8 -7.45 M3.65 -6.3 L3.55 -7.2 Q4.95 -7.15 4.85 -5.5 4.85 -4.5 4.1 -3.65 3.2 -2.6 2.85 -1.05 L2.75 1.25 Q2.7 2.7 1.9 3.45 L1.75 3.5 1.7 3.2 1.9 1.5 1.9 -1.05 Q1.8 -2.2 2.75 -3.65 L3.75 -5.45 3.65 -6.3" fill="#990000" fill-rule="evenodd" stroke="none"/>
  </g>
</svg>