<?xml version="1.0" encoding="UTF-8" standalone="no"?>
<svg xmlns:xlink="http://www.w3.org/1999/xlink" height="36.65px" width="35.75px" xmlns="http://www.w3.org/2000/svg">
  <g transform="matrix(1.0, 0.0, 0.0, 1.0, 18, 18.5)">
    <path d="M-13.45 -11.3 L-13.35 -11.95 -13.45 -3.75 -10.35 -6.7 -12.7 -2.7 -11.3 -2.7 -11.3 -1.75 -14.1 3.05 -12.95 3.25 -15.15 9.4 -14.55 10.15 -11.65 7.5 -11.2 8.55 -10.2 13.3 -9.85 12.6 -9.3 12.25 -8.0 12.3 -7.55 10.35 Q-5.65 11.3 -4.8 13.25 L-3.6 15.5 -3.55 15.6 -3.45 15.6 -2.25 10.95 -0.5 13.9 0.4 12.65 6.15 15.05 6.45 13.45 7.9 14.4 7.15 11.35 10.9 12.65 13.6 13.8 13.25 12.35 15.3 12.1 12.45 4.85 13.45 4.75 10.2 -1.6 10.7 -2.3 10.7 -2.25 10.75 -2.3 9.0 -10.3 9.2 -11.4 12.2 -0.55 11.45 0.0 15.65 6.85 13.35 6.25 16.75 13.9 14.45 12.9 14.65 15.15 8.25 12.7 9.15 16.6 7.15 14.85 7.15 15.85 0.65 13.1 0.3 15.65 -1.95 12.8 -3.1 17.15 -7.05 12.5 -8.15 14.65 -9.15 13.7 -9.9 15.75 -10.55 15.8 -12.0 9.35 -15.3 12.65 -15.75 11.1 -16.75 10.95 -17.0 10.05 -14.6 5.0 -16.7 5.0 -12.85 -1.15 -14.35 -0.8 -14.95 -1.05 -14.05 -2.6 -13.45 -11.3 M5.9 7.75 L7.6 8.35 7.25 5.15 8.05 4.8 8.4 7.05 8.75 9.85 7.8 9.85 Q7.05 9.75 6.55 9.25 5.9 8.6 5.9 7.75 M4.05 -9.1 L4.7 -7.1 5.15 -5.1 Q5.3 -4.1 4.9 -3.25 L1.95 -6.15 3.7 -5.75 3.5 -10.3 4.05 -9.1 M1.6 -0.5 L1.25 -2.75 3.0 0.45 3.55 2.3 3.55 2.8 Q3.4 3.3 2.95 3.3 2.45 3.3 1.6 -0.5 M-3.05 1.5 Q-3.35 0.5 -2.45 1.3 L-1.7 1.65 -1.6 -0.2 -0.85 3.2 -3.05 1.5 M-7.0 8.2 L-7.2 6.65 -6.35 4.3 -6.4 6.25 -5.2 5.35 -4.55 5.95 Q-3.35 6.75 -3.75 8.2 L-3.8 8.45 -3.95 8.65 -5.1 6.35 -7.0 8.2" fill="#a36a6a" fill-rule="evenodd" stroke="none"/>
    <path d="M-11.55 -15.2 Q-11.35 -13.8 -10.65 -13.25 L-10.45 -13.5 -10.0 -11.35 Q-9.65 -9.7 -9.3 -9.35 L-8.65 -13.0 -8.55 -13.0 -7.15 -10.65 -7.15 -10.7 -7.55 -13.35 -7.55 -14.85 Q-6.6 -13.9 -6.2 -13.9 L-6.2 -13.95 -6.2 -15.1 -3.25 -12.3 -3.25 -12.85 Q-3.25 -14.25 -3.65 -15.1 L-3.65 -16.05 Q-1.75 -13.6 -1.0 -13.1 L-0.95 -13.35 -1.15 -14.6 1.9 -9.2 1.9 -9.9 1.05 -14.3 1.05 -15.25 4.95 -10.65 4.15 -14.05 4.25 -13.95 Q4.2 -13.55 4.95 -12.8 L5.75 -12.05 7.05 -9.55 Q8.3 -7.2 8.6 -7.05 L8.6 -7.15 8.1 -10.4 7.95 -11.6 8.65 -10.55 8.8 -10.3 8.8 -10.35 9.0 -10.3 10.75 -2.3 10.7 -2.3 10.2 -1.6 13.45 4.75 12.45 4.85 15.3 12.1 13.25 12.35 13.6 13.8 10.9 12.65 8.4 7.05 8.05 4.8 7.25 5.15 7.6 8.35 5.9 7.75 4.95 2.9 3.15 -2.65 2.1 -2.6 -2.25 -13.6 -3.3 -8.0 -6.05 -11.95 -6.75 -7.05 -7.9 -7.35 -8.05 -7.95 -8.0 -7.5 -7.6 1.15 -8.8 1.35 -9.65 -0.95 -12.05 5.05 -14.95 9.35 -14.4 9.85 -12.35 7.55 -12.15 7.15 -12.0 6.7 -11.9 6.15 Q-11.3 6.45 -10.75 6.7 L-11.2 8.55 -11.65 7.5 -14.55 10.15 -15.15 9.4 -12.95 3.25 -9.85 -1.25 -11.45 -0.9 -14.1 3.05 -11.3 -1.75 -11.3 -2.7 -12.7 -2.7 -10.35 -6.7 -13.45 -3.75 -13.35 -11.95 -13.45 -11.3 Q-13.45 -13.5 -11.7 -15.05 L-11.55 -15.2 M-13.45 -3.75 L-12.35 -5.15 -12.0 -7.35 Q-11.6 -10.15 -11.45 -13.0 -11.45 -14.05 -11.95 -14.45 -12.5 -13.15 -13.1 -10.3 L-13.45 -3.75 M4.05 -9.1 L3.5 -10.3 3.7 -5.75 1.95 -6.15 4.9 -3.25 Q5.3 -4.1 5.15 -5.1 L4.7 -7.1 4.05 -9.1 M-12.45 -2.9 L-11.45 -3.1 -9.05 -5.6 -10.95 -5.25 -12.5 -2.9 -12.55 -2.85 -12.45 -2.9" fill="#cca9a9" fill-rule="evenodd" stroke="none"/>
    <path d="M-11.2 8.55 L-10.75 6.7 Q-11.3 6.45 -11.9 6.15 L-12.3 5.9 -12.05 5.05 -9.65 -0.95 -8.8 1.35 -7.6 1.15 -8.0 -7.5 -7.9 -7.35 -6.75 -7.05 -6.05 -11.95 -3.3 -8.0 -2.25 -13.6 2.1 -2.6 3.15 -2.65 4.95 2.9 4.1 0.65 3.0 0.45 1.25 -2.75 1.6 -0.5 1.15 -1.5 0.5 -0.7 0.3 3.9 -0.85 3.2 -1.6 -0.2 -1.7 1.65 -2.45 1.3 Q-3.35 0.5 -3.05 1.5 L-3.65 1.75 Q-4.65 1.55 -5.1 0.6 L-5.75 -0.55 -6.55 -0.6 -6.4 0.85 -7.6 1.15 -7.2 6.65 -7.0 8.2 -6.85 9.1 -5.9 9.05 -5.2 9.85 -4.6 9.45 Q-3.95 9.55 -3.4 9.95 -2.9 10.25 -2.55 10.85 L5.65 11.55 5.2 9.35 7.6 9.95 7.8 9.85 8.75 9.85 8.4 7.05 10.9 12.65 7.15 11.35 7.9 14.4 6.45 13.45 6.15 15.05 0.4 12.65 -0.5 13.9 -2.25 10.95 -3.45 15.6 -3.55 15.6 -3.6 15.5 -4.8 13.25 Q-5.65 11.3 -7.55 10.35 L-8.0 12.3 -9.3 12.25 -9.85 12.6 -10.2 13.3 -11.2 8.55" fill="#e0cbcb" fill-rule="evenodd" stroke="none"/>
    <path d="M-8.0 -7.5 L-8.05 -7.95 -7.9 -7.35 -8.0 -7.5 M4.95 2.9 L5.9 7.75 Q5.9 8.6 6.55 9.25 7.05 9.75 7.8 9.85 L7.6 9.95 5.2 9.35 5.65 11.55 -2.55 10.85 Q-2.9 10.25 -3.4 9.95 -3.95 9.55 -4.6 9.45 L-5.2 9.85 -5.9 9.05 -6.85 9.1 -7.0 8.2 -5.1 6.35 -3.95 8.65 -3.8 8.45 -3.75 8.2 Q-3.35 6.75 -4.55 5.95 L-5.2 5.35 -6.4 6.25 -6.35 4.3 -7.2 6.65 -7.6 1.15 -6.4 0.85 -6.55 -0.6 -5.75 -0.55 -5.1 0.6 Q-4.65 1.55 -3.65 1.75 L-3.05 1.5 -0.85 3.2 0.3 3.9 0.5 -0.7 1.15 -1.5 1.6 -0.5 Q2.45 3.3 2.95 3.3 3.4 3.3 3.55 2.8 L3.55 2.3 3.0 0.45 4.1 0.65 4.95 2.9 M-12.5 -2.9 L-12.45 -2.9 -12.55 -2.85 -12.5 -2.9" fill="#f2eaea" fill-rule="evenodd" stroke="none"/>
    <path d="M-13.45 -3.75 L-13.1 -10.3 Q-12.5 -13.15 -11.95 -14.45 -11.45 -14.05 -11.45 -13.0 -11.6 -10.15 -12.0 -7.35 L-12.35 -5.15 -13.45 -3.75 M-14.1 3.05 L-11.45 -0.9 -9.85 -1.25 -12.95 3.25 -14.1 3.05 M-11.9 6.15 L-12.0 6.7 -12.15 7.15 -12.35 7.55 -14.4 9.85 -14.95 9.35 -12.05 5.05 -12.3 5.9 -11.9 6.15 M-12.45 -2.9 L-12.5 -2.9 -10.95 -5.25 -9.05 -5.6 -11.45 -3.1 -12.45 -2.9" fill="#ffffff" fill-rule="evenodd" stroke="none"/>
    <path d="M7.95 -11.6 L8.1 -10.4 8.6 -7.15 8.6 -7.05 Q8.3 -7.2 7.05 -9.55 L5.75 -12.05 4.95 -12.8 Q4.2 -13.55 4.25 -13.95 L4.15 -14.05 4.95 -10.65 1.05 -15.25 1.05 -14.3 1.9 -9.9 1.9 -9.2 -1.15 -14.6 -0.95 -13.35 -1.0 -13.1 Q-1.75 -13.6 -3.65 -16.05 L-3.65 -15.1 Q-3.25 -14.25 -3.25 -12.85 L-3.25 -12.3 -6.2 -15.1 -6.2 -13.95 -6.2 -13.9 Q-6.6 -13.9 -7.55 -14.85 L-7.55 -13.35 -7.15 -10.7 -7.15 -10.65 -8.55 -13.0 -8.65 -13.0 -9.3 -9.35 Q-9.65 -9.7 -10.0 -11.35 L-10.45 -13.5 -10.65 -13.25 Q-11.35 -13.8 -11.55 -15.2 -9.85 -16.65 -7.5 -16.65 L-7.25 -16.7 Q-5.75 -17.65 -2.75 -17.45 L-2.2 -17.4 -1.4 -17.3 1.35 -16.65 3.55 -15.65 Q6.15 -14.2 7.95 -11.6" fill="#cca9a9" fill-opacity="0.4509804" fill-rule="evenodd" stroke="none"/>
  </g>
</svg>