<?xml version="1.0" encoding="UTF-8" standalone="no"?>
<svg xmlns:xlink="http://www.w3.org/1999/xlink" height="35.25px" width="55.15px" xmlns="http://www.w3.org/2000/svg">
  <g transform="matrix(1.0, 0.0, 0.0, 1.0, 31.65, 14.1)">
    <path d="M18.05 8.25 Q17.9 7.8 17.4 7.65 L17.3 7.65 Q16.95 7.15 15.8 6.9 L15.6 6.85 15.15 6.75 15.1 6.7 14.45 6.65 14.05 6.65 13.75 6.65 12.9 6.7 12.35 6.7 8.1 7.2 6.15 7.55 4.8 7.8 2.45 8.3 0.95 8.7 Q-4.5 10.2 -8.35 13.05 -13.4 16.65 -13.05 19.15 L-12.9 19.6 -12.9 20.05 -13.65 20.15 -13.75 20.0 -13.9 20.15 Q-17.6 19.8 -19.95 18.3 -22.15 16.8 -22.45 15.05 L-22.35 14.65 Q-19.8 15.65 -18.85 15.75 L-18.9 15.7 -20.25 14.2 Q-21.15 13.4 -21.25 12.65 L-21.2 12.25 -20.9 12.05 -19.3 12.9 -19.25 12.95 -19.95 10.9 Q-20.05 10.15 -19.75 9.5 L-19.55 9.7 Q-18.9 8.1 -16.6 5.95 -17.95 5.95 -19.0 4.95 -19.85 4.25 -20.0 3.45 L-20.0 3.2 -22.25 3.45 -22.55 3.2 -21.8 2.45 -24.2 2.85 Q-25.35 3.5 -25.5 2.65 -25.55 2.35 -23.15 0.75 L-22.9 0.35 Q-22.6 0.05 -21.8 -0.15 L-24.05 -0.1 Q-25.45 0.15 -28.05 1.1 -28.4 1.15 -28.45 0.95 -28.5 0.5 -27.1 -0.4 L-25.1 -1.5 -28.0 -1.9 Q-30.6 -2.4 -30.6 -2.7 L-30.6 -2.95 -30.35 -3.0 -29.5 -2.7 -27.6 -2.6 -25.25 -3.1 -24.5 -3.3 -22.7 -4.0 -22.9 -4.1 Q-23.45 -4.25 -25.7 -5.55 L-28.1 -7.25 -28.05 -7.35 -28.2 -7.35 -28.35 -7.3 -28.25 -7.5 -28.05 -7.55 -25.75 -7.05 Q-23.0 -6.55 -19.6 -7.1 L-19.55 -7.1 -17.0 -7.95 -14.45 -8.75 -11.0 -9.9 Q-7.55 -10.95 -6.1 -10.6 L-6.1 -11.45 -6.25 -13.1 -5.0 -11.9 Q-4.55 -11.15 -4.55 -10.3 L-4.5 -10.3 -3.45 -12.0 -3.3 -11.95 -3.3 -11.9 Q-3.05 -10.0 -3.45 -8.95 L-3.85 -8.25 -2.65 -8.6 Q2.55 -9.95 7.05 -9.55 L6.9 -9.75 Q5.0 -10.85 5.0 -10.9 L5.0 -11.15 7.5 -10.6 9.95 -9.45 8.75 -11.35 8.9 -11.55 10.25 -10.75 11.3 -9.75 11.8 -9.25 12.95 -8.4 13.4 -7.95 14.1 -7.7 Q15.95 -6.8 16.35 -4.5 L16.05 -2.7 15.75 -1.9 16.1 -1.85 Q18.35 -1.55 19.7 -0.7 L19.8 -0.65 20.1 -0.45 20.1 -0.6 20.2 -2.2 Q20.6 -3.9 20.85 -3.2 L21.15 -1.7 21.25 0.35 21.3 0.3 22.15 -0.85 22.3 -0.8 22.5 -0.45 21.3 5.5 21.55 5.35 21.5 5.65 Q20.7 9.1 18.9 9.35 L18.55 9.35 18.4 9.3 18.5 9.25 17.9 9.15 18.0 8.85 18.1 8.4 18.05 8.25 18.35 8.35 18.35 8.55 18.8 8.85 Q19.95 7.75 20.6 5.9 L20.75 5.5 20.7 5.15 Q20.6 4.2 21.35 1.6 L21.15 1.8 20.75 2.05 Q20.45 2.1 20.4 1.6 L20.4 1.25 20.05 1.4 19.5 1.05 19.85 0.65 19.7 0.5 Q18.7 -0.25 17.1 -0.55 L14.7 -0.9 14.7 -0.85 13.85 -0.9 13.75 -0.95 8.35 -0.85 8.2 -0.85 5.25 -0.6 3.7 -0.45 3.65 -0.45 3.65 -0.5 3.7 -0.7 3.55 -0.65 3.5 -0.65 1.9 -0.6 1.8 -0.6 Q0.25 -0.8 -1.4 -1.5 L-2.35 -1.9 -1.3 -1.05 -1.3 -0.8 -1.65 -0.7 -1.85 -0.7 -5.2 -1.6 -5.2 -1.55 -4.8 -1.2 Q-4.75 -0.95 -4.95 -0.85 L-3.65 -0.7 Q-2.65 -0.45 -2.6 -0.1 L-2.7 0.15 -2.15 0.25 -2.75 0.3 -2.85 0.25 -4.3 0.45 -6.15 0.75 -8.45 0.8 -9.55 0.9 -8.9 1.45 -8.9 1.55 -9.25 1.85 -9.0 1.95 -10.45 2.6 -11.0 2.9 -11.6 3.2 Q-13.35 4.2 -15.0 5.55 -17.6 7.65 -18.55 9.45 L-18.7 9.75 -18.9 10.2 -19.1 10.7 -19.1 10.75 -19.15 10.8 -19.15 10.85 -18.85 12.0 -17.95 13.4 -17.25 14.5 -17.35 14.75 -17.65 14.85 Q-18.05 14.8 -18.45 14.35 L-18.5 14.35 -19.8 13.65 -19.9 13.6 -19.85 13.75 Q-18.7 14.5 -18.3 15.2 -17.95 15.7 -18.05 16.25 L-18.15 16.3 -18.65 16.4 -18.7 16.4 Q-19.85 16.65 -21.65 15.4 L-21.8 15.3 -21.75 15.4 -20.75 16.7 -20.7 16.75 -19.2 18.1 -16.95 18.85 -16.85 18.85 -16.55 18.9 -16.4 18.95 -16.0 19.05 Q-14.5 19.5 -13.85 19.8 L-14.0 19.35 Q-14.65 15.0 -6.85 10.9 -3.15 8.85 0.8 7.75 L2.25 7.3 3.75 6.95 4.95 6.65 7.8 6.1 11.3 5.6 11.45 5.6 13.15 5.55 16.15 5.95 Q17.35 6.3 17.85 6.75 L18.05 8.25 M10.9 -8.95 L10.65 -8.6 7.8 -9.9 8.8 -9.25 9.5 -8.6 9.7 -8.45 10.1 -8.25 9.65 -8.4 9.45 -7.95 8.75 -8.5 -1.05 -8.2 -1.8 -8.05 -3.2 -7.75 -4.25 -7.45 -4.3 -7.4 -5.25 -7.15 -8.05 -5.9 -8.55 -5.65 -8.7 -5.55 -9.9 -4.95 -10.3 -4.7 -11.65 -3.85 -11.95 -3.7 -13.55 -2.55 -14.0 -2.25 -14.5 -1.9 -14.9 -1.65 -14.95 -1.6 -16.05 -0.9 -16.75 -0.35 -16.75 -0.3 -17.05 -0.15 Q-18.5 0.95 -19.1 2.6 L-19.1 2.75 -19.15 3.1 -18.6 3.75 -18.15 4.15 -18.0 4.25 -17.95 4.25 -17.8 4.35 -17.7 4.45 Q-16.7 5.2 -16.0 5.05 L-15.55 4.95 -15.45 5.0 -15.75 5.25 -15.4 5.05 -15.1 4.8 -14.7 4.45 -11.8 2.5 -11.3 2.25 -10.75 1.9 -10.75 1.85 -9.95 1.25 -11.25 1.1 Q-12.1 1.0 -12.15 0.7 L-12.1 0.45 -11.0 0.35 -9.45 0.15 -5.55 -0.1 -5.5 -0.1 -4.15 -0.1 -3.7 -0.1 -3.7 -0.15 -4.3 -0.25 -5.1 -0.35 -6.1 -0.45 -6.5 -0.5 Q-8.3 -0.8 -8.7 -1.15 L-8.25 -1.3 -7.6 -1.35 -6.75 -1.3 -6.7 -1.3 -5.75 -1.3 -5.7 -1.3 -5.9 -1.35 -6.6 -1.6 -7.3 -1.75 -7.5 -1.75 -7.6 -1.9 -7.55 -2.05 -7.1 -2.1 -6.85 -2.05 -5.1 -1.9 -2.7 -1.55 -3.45 -2.3 -4.0 -2.8 -3.95 -3.05 -2.2 -2.6 -0.6 -2.05 -0.2 -1.9 -0.1 -1.85 0.65 -1.7 2.6 -1.4 3.3 -1.35 3.55 -1.35 3.5 -1.3 3.55 -1.3 4.2 -1.35 6.95 -1.75 7.0 -1.75 13.6 -2.05 14.05 -2.0 14.45 -2.6 14.8 -3.1 14.75 -3.15 14.75 -3.35 14.9 -3.2 15.0 -3.05 14.9 -3.25 Q15.3 -4.0 15.2 -4.55 15.1 -5.4 14.35 -6.1 L13.35 -6.8 12.35 -7.5 12.55 -7.55 12.35 -7.7 11.45 -8.4 10.95 -8.95 10.85 -9.15 10.9 -8.95 M7.0 -5.25 L5.55 -5.3 8.45 -5.45 10.65 -5.45 14.1 -5.1 Q14.65 -4.95 14.7 -4.65 L14.65 -4.5 14.6 -4.5 14.5 -4.45 13.8 -4.55 10.5 -5.15 7.0 -5.25 M4.15 -3.9 L3.45 -3.9 3.4 -3.9 4.1 -3.95 6.75 -3.95 5.75 -3.85 4.35 -3.9 4.15 -3.9 M10.25 -9.85 L10.25 -9.8 10.45 -9.55 10.25 -9.85 M4.1 1.9 L2.3 2.15 2.15 2.2 0.4 2.6 1.5 2.2 2.0 2.05 2.65 1.85 4.05 1.65 4.35 1.6 5.05 1.5 6.05 1.4 7.65 1.2 10.8 1.15 11.0 1.2 11.8 1.35 13.35 1.6 13.35 1.65 12.9 1.7 12.35 1.65 11.55 1.6 8.15 1.6 6.4 1.7 5.45 1.75 4.25 1.85 4.1 1.9 M-23.5 -1.75 L-24.7 -0.95 -26.4 -0.1 -25.95 -0.2 -25.45 -0.3 -22.25 -0.65 -21.8 -0.65 Q-20.1 -0.55 -20.05 -0.25 L-20.4 -0.1 -20.8 0.05 -20.65 0.05 -20.4 0.0 -20.75 0.3 -20.8 0.3 -20.85 0.35 -20.95 0.35 -21.1 0.4 -21.15 0.4 -23.0 1.7 -22.25 1.6 -22.05 1.6 -21.95 1.6 -21.65 1.55 -21.6 1.55 Q-20.55 1.45 -20.5 1.75 L-20.95 2.55 -19.95 2.5 -19.55 1.55 -19.15 0.8 -18.65 0.15 -18.5 0.1 -18.55 0.3 -16.75 -1.35 -16.25 -1.75 -15.9 -2.0 -14.3 -3.1 -12.8 -4.0 -11.55 -4.7 -10.85 -5.15 -10.8 -5.15 -10.2 -5.5 -9.2 -6.05 -8.85 -6.2 -8.35 -6.5 -7.45 -7.05 -5.75 -7.6 -5.05 -7.9 -5.1 -7.9 -5.1 -7.95 -4.75 -8.55 -5.55 -8.9 -6.0 -9.55 -6.1 -9.55 -6.45 -9.75 -8.7 -9.6 -13.05 -8.15 -13.65 -7.95 -13.7 -7.9 -14.2 -7.75 -16.8 -6.9 -18.1 -6.55 -18.9 -6.35 -19.1 -6.35 -20.5 -6.05 Q-21.95 -5.85 -25.45 -6.15 L-25.2 -5.95 -24.75 -5.75 -24.05 -5.35 -22.15 -4.65 -20.7 -4.3 -20.7 -4.05 Q-20.9 -3.85 -21.6 -3.55 L-22.85 -3.15 -24.1 -2.8 -24.15 -2.8 -24.3 -2.75 -26.9 -2.1 -24.85 -2.0 -24.75 -2.0 -24.55 -2.0 -23.6 -1.85 -23.55 -1.85 -23.5 -1.75 M-4.0 -10.05 L-3.85 -10.25 -4.05 -10.05 -4.0 -10.05 M-5.75 -12.25 L-5.4 -10.85 -5.4 -10.3 -5.3 -10.2 -5.4 -10.25 -5.75 -9.65 -5.25 -9.65 -4.75 -9.5 -4.75 -9.55 Q-4.85 -10.2 -5.7 -12.25 L-5.7 -12.3 -5.75 -12.25 M-8.15 4.4 L-8.7 5.2 Q-9.6 6.3 -11.9 8.1 -15.45 10.8 -15.95 11.95 -15.8 10.65 -12.7 8.1 L-9.35 5.4 -8.15 4.4 M-3.85 6.3 L-3.7 6.3 -2.65 5.95 -3.55 6.4 -8.4 8.85 Q-11.25 10.6 -12.7 12.0 -11.75 10.4 -8.65 8.5 -6.1 7.0 -3.85 6.3" fill="#a36a6a" fill-rule="evenodd" stroke="none"/>
    <path d="M-11.6 3.2 L-11.0 2.9 -10.45 2.6 -9.0 1.95 -9.25 1.85 -8.9 1.55 -8.9 1.45 -9.55 0.9 -8.45 0.8 -6.15 0.75 -4.3 0.45 0.0 0.45 0.9 0.55 0.5 0.9 0.2 0.95 0.1 1.05 0.6 1.15 0.8 1.15 3.25 0.8 5.3 0.4 6.35 0.25 10.3 -0.35 12.95 -0.1 15.6 0.45 8.75 0.7 7.15 0.85 3.85 1.4 1.85 1.85 2.65 1.85 2.0 2.05 1.5 2.2 0.4 2.6 2.15 2.2 2.3 2.15 4.1 1.9 15.6 2.1 9.35 2.5 7.35 2.65 7.1 2.8 9.45 2.55 10.8 2.55 14.75 2.55 18.4 2.1 Q19.25 1.95 19.5 1.05 L20.05 1.4 20.4 1.25 20.4 1.6 Q20.45 2.1 20.75 2.05 L21.15 1.8 20.5 3.05 Q19.6 4.1 18.5 4.1 L15.4 3.85 15.35 3.85 15.0 3.8 11.75 3.75 11.05 3.85 9.5 4.1 8.95 4.2 6.7 4.65 5.75 4.9 4.15 5.25 3.35 5.5 2.25 5.75 -0.25 6.45 -1.1 6.7 -7.15 8.85 Q-5.25 7.7 -1.9 6.1 L-1.15 5.8 -1.1 5.75 1.1 4.8 Q1.5 4.55 1.95 4.45 3.2 3.9 4.1 3.65 4.95 3.3 5.55 3.25 L2.7 3.25 2.05 3.3 0.55 3.4 -0.65 3.5 -2.8 3.6 -3.9 3.85 -4.85 4.1 -6.6 4.6 -7.15 4.8 -7.3 4.8 -8.7 5.2 -8.15 4.4 -8.15 4.35 -8.1 4.35 -7.55 4.1 -5.95 3.4 -5.05 3.05 -2.55 2.05 -2.0 1.85 -2.0 1.75 -2.35 1.65 -2.95 1.7 -5.8 2.5 -6.75 2.8 -6.8 2.85 -8.75 3.5 -9.45 3.7 -12.95 4.8 -11.6 3.2 M12.35 -7.5 L13.35 -6.8 14.35 -6.1 14.1 -5.1 10.65 -5.45 8.45 -5.45 10.25 -5.75 Q12.35 -6.2 12.35 -7.3 L12.35 -7.5 M-0.6 -2.05 L-2.2 -2.6 -3.95 -3.05 -4.0 -2.8 -3.45 -2.3 -2.7 -1.55 -5.1 -1.9 -6.85 -2.05 -7.1 -2.1 -7.55 -2.05 -7.6 -1.9 -7.5 -1.75 -9.2 -1.75 -8.8 -2.05 -7.7 -2.75 -7.15 -3.1 -5.9 -3.8 Q-5.55 -3.95 -5.35 -4.05 L-6.0 -3.9 -6.65 -3.75 -7.2 -3.75 -7.15 -3.8 -8.75 -3.55 -9.85 -3.35 -10.8 -3.1 Q-12.15 -2.65 -12.5 -2.0 L-12.55 -2.05 -11.85 -3.4 -11.75 -3.6 -11.65 -3.85 -10.3 -4.7 -9.9 -4.95 -8.7 -5.55 -9.6 -4.05 -7.0 -4.6 -6.15 -4.75 -5.7 -4.75 -5.9 -4.55 Q-6.1 -4.35 -6.3 -4.3 L-6.3 -4.15 -2.85 -4.95 -1.15 -5.25 4.25 -5.7 6.4 -5.7 0.7 -4.05 7.0 -5.25 10.5 -5.15 13.8 -4.55 Q13.15 -3.75 11.75 -3.65 L7.45 -3.15 5.45 -2.9 5.1 -2.9 2.7 -2.7 2.45 -2.7 1.2 -2.55 0.0 -2.3 -0.5 -2.1 -0.6 -2.05 M4.15 -3.9 L4.35 -3.9 5.75 -3.85 6.75 -3.95 4.1 -3.95 3.4 -3.9 3.45 -3.9 4.15 -3.9 M-25.2 -5.95 L-25.45 -6.15 Q-21.95 -5.85 -20.5 -6.05 L-19.1 -6.35 -18.9 -6.35 -18.1 -6.55 -16.7 -6.4 -15.8 -6.35 -13.3 -6.25 -11.75 -6.5 -11.7 -6.45 Q-13.0 -5.45 -14.55 -5.15 L-13.05 -5.0 -10.85 -5.15 -11.55 -4.7 -12.8 -4.0 -14.3 -3.1 -15.9 -2.0 -16.25 -1.75 -19.5 -2.05 -19.55 -2.05 -19.55 -2.25 -17.35 -2.65 -16.55 -2.8 -14.6 -3.3 Q-13.85 -3.55 -13.6 -3.7 L-13.65 -3.75 -14.85 -3.4 -18.2 -3.25 -21.1 -3.45 -21.1 -3.6 -20.05 -3.8 -16.65 -4.65 -15.25 -5.05 -15.05 -5.15 -15.4 -5.15 -17.3 -5.15 -24.8 -5.95 -25.2 -5.95" fill="#e0cbcb" fill-rule="evenodd" stroke="none"/>
    <path d="M-16.0 19.05 L-16.4 18.95 -16.55 18.9 -16.85 18.85 -16.95 18.85 -17.25 18.4 -17.2 18.2 -15.15 17.65 Q-14.25 17.4 -14.25 18.1 L-14.5 18.6 Q-14.95 19.05 -15.85 19.05 L-16.0 19.05 M-20.75 16.7 L-21.75 15.4 -21.65 15.4 Q-19.85 16.65 -18.7 16.4 L-18.65 16.4 -17.65 16.75 -17.7 16.7 -18.15 16.3 -18.05 16.25 Q-17.95 15.7 -18.3 15.2 -18.7 14.5 -19.85 13.75 L-19.8 13.65 -18.5 14.35 -18.45 14.35 Q-18.05 14.8 -17.65 14.85 L-17.35 14.75 -17.25 14.5 -17.95 13.4 -18.85 12.0 -19.15 10.85 -19.1 10.85 -19.1 10.75 -19.1 10.7 -18.9 10.2 -18.7 9.75 -18.55 9.45 -18.05 11.1 Q-17.7 12.6 -16.8 13.35 -16.15 11.95 -15.85 11.95 L-15.65 12.05 -15.6 12.1 -15.55 12.45 -15.85 13.2 -15.85 14.65 -15.45 13.95 Q-15.1 13.4 -14.45 13.4 -14.15 13.4 -14.0 13.6 -14.4 14.2 -14.75 16.1 -15.3 17.7 -16.95 17.7 -18.8 17.7 -20.75 16.7 M-14.7 4.45 L-15.1 4.8 -15.75 4.2 -16.45 4.65 -17.7 4.45 -17.8 4.35 -17.95 4.25 -18.0 4.25 -18.15 4.15 Q-18.7 3.6 -18.7 2.55 -18.7 1.6 -17.95 0.9 -17.2 0.2 -17.2 1.1 -17.2 2.25 -17.65 3.05 L-16.5 3.5 -16.4 2.55 Q-16.3 1.9 -15.85 1.9 L-15.55 2.1 -15.1 3.65 -14.7 4.45 M-23.5 -1.75 L-23.55 -1.85 -23.6 -1.85 -24.55 -2.0 -24.75 -2.0 -24.85 -2.0 -26.9 -2.1 -24.3 -2.75 -24.15 -2.8 -24.1 -2.8 -22.85 -2.8 -21.4 -2.5 Q-21.4 -1.95 -23.5 -1.75 M-21.6 1.55 L-21.65 1.55 -21.95 1.6 -22.05 1.6 -22.25 1.6 -23.0 1.7 -21.15 0.4 -21.1 0.4 -20.95 0.35 -20.85 0.35 -20.8 0.3 -20.75 0.3 -20.65 0.25 Q-20.35 0.3 -20.15 0.55 -20.55 0.95 -21.6 1.55 M-22.25 -0.65 L-25.45 -0.3 -24.6 -0.95 -22.6 -1.55 -21.45 -1.5 Q-21.15 -1.4 -21.15 -1.1 L-22.25 -0.65" fill="#ffffff" fill-rule="evenodd" stroke="none"/>
    <path d="M18.05 8.25 L17.85 6.75 Q17.35 6.3 16.15 5.95 L13.15 5.55 11.45 5.6 11.3 5.6 7.8 6.1 4.95 6.65 3.75 6.95 2.25 7.3 0.8 7.75 Q-3.15 8.85 -6.85 10.9 -14.65 15.0 -14.0 19.35 L-13.85 19.8 Q-14.5 19.5 -16.0 19.05 L-15.85 19.05 Q-14.95 19.05 -14.5 18.6 L-14.25 18.1 Q-14.25 17.4 -15.15 17.65 L-17.2 18.2 -17.25 18.4 -16.95 18.85 -19.2 18.1 -20.7 16.75 -20.75 16.7 Q-18.8 17.7 -16.95 17.7 -15.3 17.7 -14.75 16.1 -14.4 14.2 -14.0 13.6 -14.15 13.4 -14.45 13.4 -15.1 13.4 -15.45 13.95 L-15.85 14.65 -15.85 13.2 -15.55 12.45 -15.6 12.1 -15.65 12.05 -15.85 11.95 Q-16.15 11.95 -16.8 13.35 -17.7 12.6 -18.05 11.1 L-18.55 9.45 Q-17.6 7.65 -15.0 5.55 -13.35 4.2 -11.6 3.2 L-12.95 4.8 -9.45 3.7 -8.75 3.5 -6.8 2.85 -6.75 2.8 -5.8 2.5 -2.95 1.7 -2.35 1.65 -2.0 1.75 -2.0 1.85 -2.55 2.05 -5.05 3.05 -5.95 3.4 -7.55 4.1 -8.1 4.35 -8.15 4.35 -8.2 4.4 -8.15 4.4 -9.35 5.4 -12.7 8.1 Q-15.8 10.65 -15.95 11.95 -15.45 10.8 -11.9 8.1 -9.6 6.3 -8.7 5.2 L-7.3 4.8 -7.15 4.8 -6.6 4.6 -4.85 4.1 -3.9 3.85 -2.8 3.6 -0.65 3.5 0.55 3.4 2.05 3.3 2.7 3.25 5.55 3.25 Q4.95 3.3 4.1 3.65 3.2 3.9 1.95 4.45 1.5 4.55 1.1 4.8 L-1.1 5.75 -1.15 5.8 -1.9 6.1 Q-5.25 7.7 -7.15 8.85 L-1.1 6.7 -0.25 6.45 2.25 5.75 3.35 5.5 4.15 5.25 5.75 4.9 6.7 4.65 8.95 4.2 9.5 4.1 11.05 3.85 11.75 3.75 15.0 3.8 15.35 3.85 15.4 3.85 18.5 4.1 Q19.6 4.1 20.5 3.05 L21.15 1.8 21.35 1.6 Q20.6 4.2 20.7 5.15 L20.75 5.5 20.6 5.9 Q19.95 7.75 18.8 8.85 L18.35 8.55 18.35 8.35 18.05 8.25 M-18.65 16.4 L-18.15 16.3 -17.7 16.7 -17.65 16.75 -18.65 16.4 M-19.15 10.85 L-19.15 10.8 -19.1 10.75 -19.1 10.85 -19.15 10.85 M14.35 -6.1 Q15.1 -5.4 15.2 -4.55 15.3 -4.0 14.9 -3.25 L14.9 -3.2 14.75 -3.35 14.75 -3.15 14.8 -3.1 14.45 -2.6 14.05 -2.0 13.6 -2.05 7.0 -1.75 6.95 -1.75 4.2 -1.35 3.55 -1.3 3.55 -1.35 3.3 -1.35 2.6 -1.4 0.65 -1.7 -0.1 -1.85 -0.2 -1.9 -0.6 -2.05 -0.5 -2.1 0.0 -2.3 1.2 -2.55 2.45 -2.7 2.7 -2.7 5.1 -2.9 5.45 -2.9 7.45 -3.15 11.75 -3.65 Q13.15 -3.75 13.8 -4.55 L14.5 -4.45 14.6 -4.5 14.65 -4.5 14.7 -4.65 Q14.65 -4.95 14.1 -5.1 L14.35 -6.1 M-7.5 -1.75 L-7.3 -1.75 -6.6 -1.6 -6.7 -1.3 -6.75 -1.3 -7.6 -1.35 -8.25 -1.3 -8.7 -1.15 Q-8.3 -0.8 -6.5 -0.5 L-6.1 -0.45 -5.1 -0.35 -4.3 -0.25 -3.7 -0.15 -3.7 -0.1 -4.15 -0.1 -5.5 -0.1 -5.55 -0.1 -9.45 0.15 -11.0 0.35 -12.1 0.45 -12.15 0.7 Q-12.1 1.0 -11.25 1.1 L-9.95 1.25 -10.75 1.85 -10.75 1.9 -11.3 2.25 -11.8 2.5 -14.7 4.45 -15.1 3.65 -15.55 2.1 -15.85 1.9 Q-16.3 1.9 -16.4 2.55 L-16.5 3.5 -17.65 3.05 Q-17.2 2.25 -17.2 1.1 -17.2 0.2 -17.95 0.9 -18.7 1.6 -18.7 2.55 -18.7 3.6 -18.15 4.15 L-18.6 3.75 -19.15 3.1 -19.1 2.75 -19.1 2.6 Q-18.5 0.95 -17.05 -0.15 L-16.75 -0.3 -16.75 -0.35 -16.05 -0.9 -14.95 -1.6 -14.9 -1.65 -14.5 -1.9 -14.0 -2.25 -13.55 -2.55 -11.95 -3.7 -11.65 -3.85 -11.75 -3.6 -11.85 -3.4 -12.55 -2.05 -12.55 -1.95 -12.5 -2.0 Q-12.15 -2.65 -10.8 -3.1 L-9.85 -3.35 -8.75 -3.55 -7.15 -3.8 -7.2 -3.75 -6.65 -3.75 -6.0 -3.9 -5.35 -4.05 Q-5.55 -3.95 -5.9 -3.8 L-7.15 -3.1 -7.7 -2.75 -8.8 -2.05 -9.2 -1.75 -7.5 -1.75 M-15.1 4.8 L-15.4 5.05 -15.45 5.0 -15.55 4.95 -16.0 5.05 Q-16.7 5.2 -17.7 4.45 L-16.45 4.65 -15.75 4.2 -15.1 4.8 M-25.45 -0.3 L-25.95 -0.2 -26.4 -0.1 -24.7 -0.95 -23.5 -1.75 Q-21.4 -1.95 -21.4 -2.5 L-22.85 -2.8 -24.1 -2.8 -22.85 -3.15 -21.6 -3.55 Q-20.9 -3.85 -20.7 -4.05 L-20.7 -4.3 -22.15 -4.65 -24.05 -5.35 -24.75 -5.75 -25.2 -5.95 -24.8 -5.95 -17.3 -5.15 -15.4 -5.15 -15.05 -5.15 -15.25 -5.05 -16.65 -4.65 -20.05 -3.8 -21.1 -3.6 -21.1 -3.45 -18.2 -3.25 -14.85 -3.4 -13.65 -3.75 -13.6 -3.7 Q-13.85 -3.55 -14.6 -3.3 L-16.55 -2.8 -17.35 -2.65 -19.55 -2.25 -19.55 -2.05 -19.5 -2.05 -16.25 -1.75 -16.75 -1.35 -18.55 0.3 -18.5 0.1 -18.65 0.15 -19.15 0.8 -19.55 1.55 -19.95 2.5 -20.95 2.55 -20.5 1.75 Q-20.55 1.45 -21.6 1.55 -20.55 0.95 -20.15 0.55 -20.35 0.3 -20.65 0.25 L-20.75 0.3 -20.4 0.0 -20.4 -0.1 -20.05 -0.25 Q-20.1 -0.55 -21.8 -0.65 L-22.25 -0.65 -21.15 -1.1 Q-21.15 -1.4 -21.45 -1.5 L-22.6 -1.55 -24.6 -0.95 -25.45 -0.3 M-3.85 6.3 Q-6.1 7.0 -8.65 8.5 -11.75 10.4 -12.7 12.0 -11.25 10.6 -8.4 8.85 L-3.55 6.4 -2.65 5.95 -3.7 6.3 -3.85 6.3" fill="#cca9a9" fill-rule="evenodd" stroke="none"/>
    <path d="M-4.3 0.45 L-2.85 0.25 -2.75 0.3 -2.15 0.25 -2.7 0.15 -2.6 -0.1 Q-2.65 -0.45 -3.65 -0.7 L-4.95 -0.85 Q-4.75 -0.95 -4.8 -1.2 L-5.2 -1.55 -5.2 -1.6 -1.85 -0.7 -1.65 -0.7 -1.3 -0.8 -1.3 -1.05 -2.35 -1.9 -1.4 -1.5 Q0.25 -0.8 1.8 -0.6 L1.9 -0.6 3.5 -0.65 3.55 -0.65 3.7 -0.7 3.65 -0.5 3.65 -0.45 3.7 -0.45 5.25 -0.6 8.2 -0.85 8.35 -0.85 13.75 -0.95 13.85 -0.9 14.7 -0.85 14.7 -0.9 17.1 -0.55 Q18.7 -0.25 19.7 0.5 L19.85 0.65 19.5 1.05 Q19.25 1.95 18.4 2.1 L14.75 2.55 10.8 2.55 9.45 2.55 7.1 2.8 7.35 2.65 9.35 2.5 15.6 2.1 4.1 1.9 4.25 1.85 5.45 1.75 6.4 1.7 8.15 1.6 11.55 1.6 12.35 1.65 12.9 1.7 13.35 1.65 13.35 1.6 11.8 1.35 11.0 1.2 10.8 1.15 7.65 1.2 6.05 1.4 5.05 1.5 4.35 1.6 4.05 1.65 2.65 1.85 1.85 1.85 3.85 1.4 7.15 0.85 8.75 0.7 15.6 0.45 12.95 -0.1 10.3 -0.35 6.35 0.25 5.3 0.4 3.25 0.8 0.8 1.15 0.6 1.15 0.1 1.05 0.2 0.95 0.5 0.9 0.9 0.55 0.0 0.45 -4.3 0.45 M-8.7 -5.55 L-8.55 -5.65 -8.05 -5.9 -5.25 -7.15 -4.3 -7.4 -4.25 -7.45 -3.2 -7.75 -1.8 -8.05 -1.05 -8.2 8.75 -8.5 9.45 -7.95 9.65 -8.4 10.1 -8.25 9.7 -8.45 9.5 -8.6 8.8 -9.25 7.8 -9.9 10.65 -8.6 10.9 -8.95 10.95 -8.95 11.45 -8.4 12.35 -7.7 12.55 -7.55 12.35 -7.5 12.35 -7.3 Q12.35 -6.2 10.25 -5.75 L8.45 -5.45 5.55 -5.3 7.0 -5.25 0.7 -4.05 6.4 -5.7 4.25 -5.7 -1.15 -5.25 -2.85 -4.95 -6.3 -4.15 -6.3 -4.3 Q-6.1 -4.35 -5.9 -4.55 L-5.7 -4.75 -6.15 -4.75 -7.0 -4.6 -9.6 -4.05 -8.7 -5.55 M-6.6 -1.6 L-5.9 -1.35 -5.7 -1.3 -5.75 -1.3 -6.7 -1.3 -6.6 -1.6 M-18.1 -6.55 L-16.8 -6.9 -14.2 -7.75 -13.7 -7.9 -13.65 -7.95 -13.05 -8.15 -8.7 -9.6 -6.45 -9.75 -6.1 -9.55 -6.0 -9.55 -5.55 -8.9 -4.75 -8.55 -5.1 -7.95 -5.1 -7.9 -5.05 -7.9 -5.75 -7.6 -7.45 -7.05 -8.35 -6.5 -8.85 -6.2 -9.2 -6.05 -10.2 -5.5 -10.8 -5.15 -10.85 -5.15 -13.05 -5.0 -14.55 -5.15 Q-13.0 -5.45 -11.7 -6.45 L-11.75 -6.5 -13.3 -6.25 -15.8 -6.35 -16.7 -6.4 -18.1 -6.55 M-12.5 -2.0 L-12.55 -1.95 -12.55 -2.05 -12.5 -2.0 M-5.7 -12.25 Q-4.85 -10.2 -4.75 -9.55 L-4.75 -9.5 -5.25 -9.65 -5.75 -9.65 -5.4 -10.25 -5.3 -10.2 -5.4 -10.3 -5.4 -10.85 -5.75 -12.25 -5.7 -12.25 M-8.15 4.35 L-8.15 4.4 -8.2 4.4 -8.15 4.35" fill="url(#gradient0)" fill-rule="evenodd" stroke="none"/>
  </g>
  <defs>
    <radialGradient cx="0" cy="0" gradientTransform="matrix(0.0182, -0.0316, 0.0195, 0.0113, 285.95, 59.75)" gradientUnits="userSpaceOnUse" id="gradient0" r="819.2" spreadMethod="pad">
      <stop offset="0.47843137254901963" stop-color="#ffffff"></stop>
      <stop offset="0.8823529411764706" stop-color="#f2eaea"></stop>
    </radialGradient>
  </defs>
</svg>