<?xml version="1.0" encoding="UTF-8" standalone="no"?>
<svg xmlns:xlink="http://www.w3.org/1999/xlink" height="33.1px" width="55.35px" xmlns="http://www.w3.org/2000/svg">
  <g transform="matrix(1.0, 0.0, 0.0, 1.0, 28, 17.15)">
    <path d="M15.95 -14.9 L16.1 -14.75 15.75 -13.7 Q14.6 -11.9 13.9 -9.8 L13.65 -8.8 26.35 -9.15 Q26.15 -7.25 24.6 -6.15 L23.65 -5.45 22.65 -4.75 Q21.2 -3.6 19.25 -3.6 L18.75 -3.65 Q20.95 -2.3 22.35 -0.4 L22.85 0.2 23.85 2.15 25.25 5.35 24.65 4.55 24.2 3.9 23.65 3.25 20.65 0.9 16.95 -0.95 19.25 1.75 19.95 2.55 20.6 3.3 23.6 6.6 24.0 7.0 21.55 6.95 20.65 7.1 16.85 5.6 16.15 5.25 15.45 4.85 Q13.4 3.9 12.0 2.05 L11.85 6.3 11.8 7.0 11.75 7.7 Q11.7 8.8 11.15 9.85 L10.9 9.9 9.9 8.05 8.9 6.0 8.35 5.0 Q7.25 3.35 5.5 2.05 L6.25 5.3 6.5 5.85 7.0 6.85 9.35 10.4 9.9 11.35 9.85 11.35 7.0 10.3 Q6.15 9.95 5.8 9.6 L2.25 6.55 Q0.55 5.1 -0.15 2.8 -0.45 4.55 -1.4 5.9 L-1.8 6.55 -2.15 7.2 -3.95 10.25 Q-4.65 11.4 -5.65 12.05 -5.45 11.0 -5.65 9.55 L-6.05 7.2 -6.15 6.75 Q-6.5 9.05 -7.55 11.05 L-7.9 11.6 -8.35 12.0 Q-10.2 13.9 -12.4 14.95 -13.15 13.9 -13.0 12.3 L-12.9 11.5 -12.6 10.65 Q-11.75 9.1 -11.5 7.4 -13.1 7.85 -14.3 8.8 L-14.8 9.2 -15.2 9.7 Q-16.65 11.6 -18.65 12.85 L-18.9 12.9 Q-19.25 11.5 -19.0 9.75 L-18.9 9.0 -18.55 7.85 -17.6 5.75 Q-20.0 5.65 -22.1 4.4 L-22.7 4.05 -23.35 3.65 Q-25.5 2.25 -26.55 -0.25 L-27.0 -1.65 -26.85 -1.95 -26.5 -2.15 Q-24.8 -1.15 -22.75 -1.0 L-21.55 -1.0 -20.45 -1.1 Q-19.1 -1.35 -17.7 -1.95 -18.05 -3.25 -19.0 -4.85 L-19.55 -5.85 -20.1 -6.85 -20.3 -7.4 -17.25 -5.8 -16.45 -5.2 Q-14.2 -3.4 -11.4 -3.15 L-9.5 -3.0 -12.1 -5.9 -12.5 -6.45 -13.2 -7.35 -15.0 -9.8 -14.5 -9.6 -10.4 -8.0 -9.4 -7.5 Q-7.35 -6.4 -5.1 -5.85 L-6.6 -8.05 -6.0 -7.8 -3.3 -6.55 -2.7 -6.2 Q-1.7 -5.75 -0.55 -5.55 -1.3 -7.55 -2.65 -9.15 L-3.15 -9.75 -3.65 -10.5 -4.15 -11.4 Q-2.35 -11.25 -0.65 -10.25 L0.0 -9.75 0.7 -9.3 Q1.8 -10.3 2.45 -12.25 L2.7 -12.9 3.0 -13.5 4.6 -16.15 Q5.1 -14.35 5.0 -13.15 4.95 -12.0 5.35 -10.7 L5.55 -9.95 5.7 -9.25 Q6.95 -11.15 8.65 -12.3 L9.5 -12.85 10.4 -13.25 Q13.0 -14.55 15.95 -14.9 M10.0 -12.15 L5.55 -7.2 3.9 -13.0 1.2 -7.75 -0.8 -9.15 -1.3 -9.4 -1.1 -8.5 0.25 -4.85 -0.4 -4.6 -3.05 -5.15 -3.25 -4.5 -8.85 -6.15 -12.0 -7.7 -10.75 -6.0 -8.55 -3.6 Q-7.65 -2.8 -7.95 -2.0 L-12.4 -2.3 Q-14.1 -2.65 -15.5 -3.35 L-18.65 -5.65 -18.7 -5.7 -18.7 -5.6 -16.4 -1.55 Q-18.1 -0.55 -19.8 -0.15 L-24.25 -0.25 -25.65 -0.65 -25.7 -0.65 -25.65 -0.6 -23.15 2.7 -18.85 3.95 -16.2 4.25 -15.0 4.0 Q-16.55 5.9 -17.5 8.1 -17.9 9.1 -17.75 10.25 L-17.6 10.65 Q-16.0 9.05 -14.2 7.9 -12.4 6.85 -10.15 6.4 L-10.85 9.15 -11.4 10.4 Q-11.95 11.95 -11.95 13.45 L-10.5 12.7 Q-8.9 11.15 -7.85 9.15 -6.7 6.9 -7.2 4.5 -7.45 3.2 -7.1 2.05 L-6.85 2.0 Q-5.25 3.45 -5.0 6.15 L-4.8 8.7 -0.2 1.35 Q2.8 6.0 6.6 8.9 L7.5 9.55 Q6.2 7.8 5.4 5.7 4.45 3.25 4.55 0.7 L4.65 0.1 4.85 0.15 5.7 0.85 10.9 7.1 Q11.15 4.7 10.9 2.4 L10.5 0.6 10.05 -0.5 10.25 -1.25 10.5 -1.6 11.75 -0.1 Q12.9 1.7 14.45 3.0 16.15 4.25 18.15 5.1 L22.05 6.5 22.05 6.4 20.65 4.95 17.55 1.4 16.05 -0.9 15.75 -1.9 18.1 -1.65 Q20.1 -0.7 21.8 0.6 L23.1 1.55 20.0 -1.45 17.2 -3.95 21.6 -5.5 Q22.6 -5.85 23.4 -6.65 L24.55 -7.8 Q22.05 -7.05 19.5 -7.05 L14.1 -7.6 13.35 -7.8 12.75 -8.15 12.55 -8.55 12.8 -9.6 14.25 -13.55 10.0 -12.15" fill="#a36a6a" fill-rule="evenodd" stroke="none"/>
    <path d="M5.55 -7.2 Q4.85 -5.75 4.8 -4.25 4.75 -3.0 5.75 -2.85 L6.6 -3.75 8.95 -7.95 Q9.9 -9.95 10.0 -12.15 L14.25 -13.55 12.8 -9.6 10.9 -5.9 13.35 -7.8 14.1 -7.6 19.5 -7.05 Q22.05 -7.05 24.55 -7.8 L23.4 -6.65 Q22.6 -5.85 21.6 -5.5 L17.2 -3.95 20.0 -1.45 23.1 1.55 21.8 0.6 Q20.1 -0.7 18.1 -1.65 L15.75 -1.9 16.05 -0.9 17.55 1.4 20.65 4.95 16.85 2.75 Q15.6 2.1 14.85 1.0 13.35 -1.0 11.3 -2.25 L11.35 -1.8 11.75 -0.1 10.5 -1.6 10.25 -1.25 10.05 -0.5 10.5 0.6 10.9 2.4 Q11.15 4.7 10.9 7.1 L10.2 5.5 9.2 3.35 Q7.85 0.75 5.9 -0.95 L5.05 -0.85 5.7 0.85 4.85 0.15 4.65 0.1 4.55 0.7 Q4.45 3.25 5.4 5.7 6.2 7.8 7.5 9.55 L6.6 8.9 4.2 5.65 Q2.95 4.05 2.45 1.95 L0.8 -2.45 0.4 -2.65 Q-0.8 -1.95 -1.6 -0.65 L-4.55 3.95 -4.5 3.65 Q-3.7 0.95 -4.1 -1.9 L-4.55 -2.05 Q-6.85 -0.45 -8.65 1.8 L-8.7 0.9 -11.4 1.0 -15.5 -3.35 Q-14.1 -2.65 -12.4 -2.3 L-7.95 -2.0 -7.05 -1.1 -6.25 -1.35 -7.6 -3.2 -6.4 -3.2 -8.85 -6.15 -3.25 -4.5 -3.05 -5.15 -0.4 -4.6 1.55 -4.2 2.0 -3.5 3.2 -7.2 2.55 -7.7 1.5 -6.6 1.2 -7.75 3.9 -13.0 5.55 -7.2 M-6.85 2.0 L-7.1 2.05 -6.95 1.85 -6.85 2.0 M-1.1 -8.5 L-1.3 -9.4 -0.8 -9.15 -1.1 -8.5" fill="url(#gradient0)" fill-rule="evenodd" stroke="none"/>
    <path d="M5.55 -7.2 L10.0 -12.15 Q9.9 -9.95 8.95 -7.95 L6.6 -3.75 5.75 -2.85 Q4.75 -3.0 4.8 -4.25 4.85 -5.75 5.55 -7.2 M12.8 -9.6 L12.55 -8.55 12.75 -8.15 13.35 -7.8 10.9 -5.9 12.8 -9.6 M20.65 4.95 L22.05 6.4 22.05 6.5 18.15 5.1 Q16.15 4.25 14.45 3.0 12.9 1.7 11.75 -0.1 L11.35 -1.8 11.3 -2.25 Q13.35 -1.0 14.85 1.0 15.6 2.1 16.85 2.75 L20.65 4.95 M10.9 7.1 L5.7 0.85 5.05 -0.85 5.9 -0.95 Q7.85 0.75 9.2 3.35 L10.2 5.5 10.9 7.1 M6.6 8.9 Q2.8 6.0 -0.2 1.35 L-4.8 8.7 -5.0 6.15 Q-5.25 3.45 -6.85 2.0 L-6.95 1.85 -7.1 2.05 Q-7.45 3.2 -7.2 4.5 -6.7 6.9 -7.85 9.15 -8.9 11.15 -10.5 12.7 -10.6 11.2 -10.2 10.0 L-9.3 7.0 -10.85 9.15 -10.15 6.4 Q-12.4 6.85 -14.2 7.9 -16.0 9.05 -17.6 10.65 L-14.2 4.65 -14.2 3.35 -18.4 3.3 Q-20.8 3.25 -22.65 1.75 L-24.75 0.2 -23.15 2.7 -25.65 -0.6 -25.65 -0.65 -24.25 -0.25 -19.8 -0.15 Q-18.1 -0.55 -16.4 -1.55 L-18.7 -5.6 -18.65 -5.65 -15.5 -3.35 -11.4 1.0 -8.7 0.9 -8.65 1.8 Q-6.85 -0.45 -4.55 -2.05 L-4.1 -1.9 Q-3.7 0.95 -4.5 3.65 L-4.55 3.95 -1.6 -0.65 Q-0.8 -1.95 0.4 -2.65 L0.8 -2.45 2.45 1.95 Q2.95 4.05 4.2 5.65 L6.6 8.9 M-7.95 -2.0 Q-7.65 -2.8 -8.55 -3.6 L-10.75 -6.0 -12.0 -7.7 -8.85 -6.15 -6.4 -3.2 -7.6 -3.2 -6.25 -1.35 -7.05 -1.1 -7.95 -2.0 M-0.4 -4.6 L0.25 -4.85 -1.1 -8.5 -0.8 -9.15 1.2 -7.75 1.5 -6.6 2.55 -7.7 3.2 -7.2 2.0 -3.5 1.55 -4.2 -0.4 -4.6" fill="#e0cbcb" fill-rule="evenodd" stroke="none"/>
    <path d="M-10.5 12.7 L-11.95 13.45 Q-11.95 11.95 -11.4 10.4 L-10.85 9.15 -9.3 7.0 -10.2 10.0 Q-10.6 11.2 -10.5 12.7 M-17.6 10.65 L-17.75 10.25 Q-17.9 9.1 -17.5 8.1 -16.55 5.9 -15.0 4.0 L-16.2 4.25 -18.85 3.95 -23.15 2.7 -24.75 0.2 -22.65 1.75 Q-20.8 3.25 -18.4 3.3 L-14.2 3.35 -14.2 4.65 -17.6 10.65" fill="#ffffff" fill-rule="evenodd" stroke="none"/>
  </g>
  <defs>
    <radialGradient cx="0" cy="0" gradientTransform="matrix(0.0186, -0.0323, 0.0199, 0.0115, -22.0, 46.8)" gradientUnits="userSpaceOnUse" id="gradient0" r="819.2" spreadMethod="pad">
      <stop offset="0.47843137254901963" stop-color="#ffffff"></stop>
      <stop offset="0.8823529411764706" stop-color="#f2eaea"></stop>
    </radialGradient>
  </defs>
</svg>