<?xml version="1.0" encoding="UTF-8" standalone="no"?>
<svg xmlns:xlink="http://www.w3.org/1999/xlink" height="62px" width="46.4px" xmlns="http://www.w3.org/2000/svg">
  <g transform="matrix(1.0, 0.0, 0.0, 1.0, 23.2, 31)">
    <path d="M9.2 -26.55 L9.25 -26.5 Q9.95 -25.45 10.25 -23.55 10.65 -20.6 11.75 -19.2 L15.8 -14.65 Q18.1 -12.1 18.5 -10.45 L20.8 -1.65 Q22.2 4.0 22.2 7.3 22.2 10.85 20.05 13.8 L18.05 15.9 17.85 16.45 Q16.35 16.45 14.35 17.6 14.1 17.7 13.8 18.0 L12.35 18.4 5.95 20.05 1.05 21.5 Q-1.35 21.35 -3.0 22.1 L-3.9 22.55 -6.4 22.85 -7.25 22.75 Q-9.25 22.75 -10.6 23.4 L-10.55 23.2 -11.2 23.65 Q-13.0 25.05 -13.7 25.05 -14.35 25.05 -14.35 24.4 L-13.85 23.15 -13.2 21.8 Q-14.85 22.15 -17.9 24.25 L-18.4 24.2 -18.55 23.75 -18.0 20.5 Q-17.45 18.15 -17.45 16.3 L-18.95 18.35 Q-20.5 20.2 -21.4 20.2 -22.2 20.2 -22.2 19.45 -22.2 18.65 -21.35 16.8 -20.55 14.9 -20.55 12.65 -20.55 9.75 -21.05 7.4 -21.6 5.05 -21.6 3.0 L-21.45 1.0 -21.45 0.9 -21.55 0.9 -21.35 -0.55 -21.35 -0.8 -21.2 -0.85 -21.3 -0.4 -21.2 -0.8 -20.35 -4.65 Q-19.15 -9.25 -19.15 -11.1 -19.15 -13.0 -20.15 -16.2 L-21.2 -19.15 -21.15 -19.5 -21.0 -19.55 -20.75 -19.3 -20.1 -18.5 -19.9 -18.15 Q-19.15 -17.0 -18.65 -15.35 -18.0 -13.05 -18.0 -10.55 -18.0 -9.2 -18.4 -6.8 L-19.1 -3.25 -20.0 1.6 -20.2 3.3 -20.25 4.15 -19.8 7.35 -19.4 10.7 -19.5 14.1 -19.55 14.35 -19.55 14.4 Q-19.75 16.05 -20.3 17.45 L-20.55 18.05 -20.4 18.1 -18.55 15.25 Q-17.35 13.35 -17.0 13.35 L-16.4 13.5 -16.35 17.3 -16.35 18.3 -16.35 20.6 -16.35 20.75 -16.35 21.75 -14.35 20.55 -13.95 20.4 Q-13.0 19.95 -11.9 19.95 L-11.8 19.95 -11.45 20.05 -11.2 20.05 -11.15 20.6 -11.45 21.25 -11.75 21.7 -12.5 22.75 -12.55 22.75 -12.45 22.75 -10.95 21.65 -10.0 21.15 -10.05 21.75 -10.05 21.5 -9.8 21.4 Q-8.3 20.8 -4.7 20.15 L3.95 18.8 10.1 17.05 14.05 16.25 13.8 15.9 Q17.7 14.55 19.35 12.05 20.7 10.1 20.7 7.2 20.7 3.95 19.45 -1.0 L17.25 -9.0 Q16.35 -12.5 12.1 -16.5 10.35 -18.15 9.45 -20.35 L8.95 -22.05 8.9 -22.25 Q8.55 -23.7 8.55 -25.35 L8.55 -25.55 8.55 -25.85 8.55 -25.95 8.55 -26.1 Q8.7 -27.3 9.2 -26.55 M14.1 22.15 Q12.4 23.55 10.2 24.2 L14.1 22.15 M-12.5 30.0 L-12.55 29.95 -13.0 29.6 -12.75 29.6 -12.5 30.0" fill="#a36a6a" fill-rule="evenodd" stroke="none"/>
    <path d="M9.2 -26.55 Q8.7 -27.3 8.55 -26.1 L8.55 -25.95 8.55 -25.85 8.55 -25.55 8.55 -25.35 Q8.55 -23.7 8.9 -22.25 L8.8 -22.25 8.9 -22.05 9.45 -20.35 Q10.25 -18.35 11.85 -16.75 L11.25 -16.55 10.15 -17.15 Q9.1 -17.8 8.9 -18.35 L8.8 -18.2 9.1 -16.65 Q7.85 -13.0 6.4 -13.0 4.9 -13.0 3.95 -14.85 2.9 -17.0 1.4 -17.45 L1.35 -16.7 Q1.2 -16.15 0.2 -16.15 -0.1 -16.15 -0.5 -16.45 L-1.1 -16.9 Q-1.5 -11.45 -0.15 -11.75 L1.05 -11.85 Q0.85 -11.5 0.2 -11.5 -0.8 -11.5 -3.0 -13.55 L-5.75 -16.55 Q-5.85 -14.5 -6.1 -13.45 -6.45 -11.45 -8.15 -11.45 -8.75 -11.45 -8.85 -12.05 L-9.3 -8.5 Q-9.85 -4.9 -11.35 -4.9 -12.25 -4.9 -12.5 -7.0 L-12.65 -10.3 -15.45 -7.85 Q-17.35 -6.35 -17.7 -6.35 -18.1 -6.35 -18.4 -6.8 -18.0 -9.2 -18.0 -10.55 -18.0 -13.05 -18.65 -15.35 -19.15 -17.0 -19.9 -18.15 L-20.1 -18.5 -20.75 -19.3 Q-20.2 -23.5 1.65 -29.85 4.75 -30.45 7.25 -28.65 8.9 -27.45 9.2 -26.55 M-9.8 21.4 L-10.05 21.5 -10.05 21.75 -10.0 21.15 -10.95 21.65 -12.45 22.75 -12.5 22.75 -11.75 21.7 -11.45 21.25 -11.15 20.6 -11.2 20.05 -11.45 20.05 -11.8 19.95 -11.9 19.95 Q-13.0 19.95 -13.95 20.4 L-14.35 20.55 -16.35 21.75 -16.35 20.75 -16.3 20.6 -16.35 20.6 -16.35 18.3 -15.4 16.9 -14.9 17.05 Q-14.9 18.65 -15.05 19.45 L-14.9 19.45 -10.7 10.9 -10.65 10.9 Q-10.05 10.9 -10.0 12.05 L-10.1 13.3 Q-9.5 12.2 -9.5 9.35 L-9.4 9.05 Q-9.0 7.4 -8.55 7.05 -8.2 6.75 -8.1 7.45 L-8.05 8.25 -8.05 8.3 -8.15 9.9 -7.7 7.9 Q-7.1 4.35 -4.25 10.4 -5.65 13.9 -7.4 17.3 L-9.8 21.4 M-0.35 -21.2 L-0.6 -21.8 -0.7 -21.7 -0.35 -21.2" fill="#cca9a9" fill-rule="evenodd" stroke="none"/>
    <path d="M8.9 -22.25 L8.95 -22.05 9.45 -20.35 Q10.35 -18.15 12.1 -16.5 16.35 -12.5 17.25 -9.0 L19.45 -1.0 Q20.7 3.95 20.7 7.2 20.7 10.1 19.35 12.05 17.7 14.55 13.8 15.9 L14.05 16.25 10.1 17.05 3.95 18.8 -4.7 20.15 Q-8.3 20.8 -9.8 21.4 L-7.4 17.3 Q-5.65 13.9 -4.25 10.4 -7.1 4.35 -7.7 7.9 L-8.15 9.9 -8.05 8.3 -8.05 8.25 -8.1 7.45 Q-8.2 6.75 -8.55 7.05 -9.0 7.4 -9.4 9.05 L-9.85 8.55 -9.9 8.5 -9.85 8.3 Q-9.85 7.15 -10.35 7.45 L-10.25 6.85 -10.4 5.45 -10.5 5.4 -10.85 5.3 Q-11.4 5.3 -11.55 5.9 -11.6 6.6 -11.75 6.8 L-11.5 3.6 -11.6 1.7 Q-11.8 0.5 -12.4 0.7 L-12.4 0.6 Q-12.5 0.25 -13.0 0.25 -13.55 0.25 -14.15 2.05 -14.75 3.8 -16.55 3.8 -17.2 3.8 -17.9 3.2 L-19.5 1.9 -20.0 1.6 -19.1 -3.25 -18.4 -6.8 Q-18.1 -6.35 -17.7 -6.35 -17.35 -6.35 -15.45 -7.85 L-12.65 -10.3 -12.5 -7.0 Q-12.25 -4.9 -11.35 -4.9 -9.85 -4.9 -9.3 -8.5 L-8.85 -12.05 Q-8.75 -11.45 -8.15 -11.45 -6.45 -11.45 -6.1 -13.45 -5.85 -14.5 -5.75 -16.55 L-3.0 -13.55 Q-0.8 -11.5 0.2 -11.5 0.85 -11.5 1.05 -11.85 L-0.15 -11.75 Q-1.5 -11.45 -1.1 -16.9 L-0.5 -16.45 Q-0.1 -16.15 0.2 -16.15 1.2 -16.15 1.35 -16.7 L1.4 -17.45 Q2.9 -17.0 3.95 -14.85 4.9 -13.0 6.4 -13.0 7.85 -13.0 9.1 -16.65 L8.8 -18.2 8.9 -18.35 Q9.1 -17.8 10.15 -17.15 L11.25 -16.55 11.85 -16.75 Q10.25 -18.35 9.45 -20.35 L8.9 -22.05 8.8 -22.25 8.9 -22.25 M-16.35 20.75 L-16.35 20.6 -16.3 20.6 -16.35 20.75 M-16.35 17.3 L-16.4 13.5 -17.0 13.35 Q-17.35 13.35 -18.55 15.25 L-20.4 18.1 -20.55 18.05 -20.3 17.45 -19.7 16.45 -17.75 12.95 Q-17.75 11.0 -19.45 13.35 L-19.5 14.1 -19.4 10.7 -19.8 7.35 -20.25 4.15 -20.2 3.3 -17.35 5.05 -17.7 5.25 Q-18.25 5.55 -18.25 6.85 L-18.05 8.55 Q-17.75 9.95 -17.2 9.95 -16.8 9.95 -16.2 8.65 L-15.35 6.7 -15.25 6.55 -14.45 8.9 -14.1 9.7 -14.6 11.35 Q-14.6 12.1 -13.9 12.1 -13.4 12.1 -12.75 11.2 L-14.45 15.25 -15.0 15.1 Q-15.4 15.1 -16.35 17.3 M-0.35 -21.2 L-0.7 -21.7 -0.6 -21.8 -0.35 -21.2 M-12.9 3.0 L-12.9 3.05 -12.95 3.05 -12.9 3.0" fill="#f2eaea" fill-rule="evenodd" stroke="none"/>
    <path d="M-16.35 18.3 L-16.35 17.3 Q-15.4 15.1 -15.0 15.1 L-14.45 15.25 -12.75 11.2 Q-13.4 12.1 -13.9 12.1 -14.6 12.1 -14.6 11.35 L-14.1 9.7 -14.45 8.9 -15.25 6.55 -15.35 6.7 -16.2 8.65 Q-16.8 9.95 -17.2 9.95 -17.75 9.95 -18.05 8.55 L-18.25 6.85 Q-18.25 5.55 -17.7 5.25 L-17.35 5.05 -20.2 3.3 -20.0 1.6 -19.5 1.9 -17.9 3.2 Q-17.2 3.8 -16.55 3.8 -14.75 3.8 -14.15 2.05 -13.55 0.25 -13.0 0.25 -12.5 0.25 -12.4 0.6 L-12.4 0.7 Q-11.8 0.5 -11.6 1.7 L-11.5 3.6 -11.75 6.8 Q-11.6 6.6 -11.55 5.9 -11.4 5.3 -10.85 5.3 L-10.5 5.4 -10.4 5.45 -10.25 6.85 -10.35 7.45 Q-9.85 7.15 -9.85 8.3 L-9.9 8.5 -9.85 8.55 -9.4 9.05 -9.5 9.35 Q-9.5 12.2 -10.1 13.3 L-10.0 12.05 Q-10.05 10.9 -10.65 10.9 L-10.7 10.9 -14.9 19.45 -15.05 19.45 Q-14.9 18.65 -14.9 17.05 L-15.4 16.9 -16.35 18.3 M-20.3 17.45 Q-19.75 16.05 -19.55 14.4 L-19.55 14.35 -19.5 14.1 -19.45 13.35 Q-17.75 11.0 -17.75 12.95 L-19.7 16.45 -20.3 17.45 M-12.9 3.0 L-12.95 3.05 -12.9 3.05 -12.9 3.0" fill="#e0cbcb" fill-rule="evenodd" stroke="none"/>
  </g>
</svg>