<?xml version="1.0" encoding="UTF-8" standalone="no"?>
<svg xmlns:xlink="http://www.w3.org/1999/xlink" height="24.8px" width="29.2px" xmlns="http://www.w3.org/2000/svg">
  <g transform="matrix(1.0, 0.0, 0.0, 1.0, 14.6, 12.4)">
    <path d="M6.45 -0.5 L6.75 -0.1 Q8.3 1.75 9.1 3.15 L9.3 3.0 9.85 2.85 9.9 2.85 10.25 3.05 11.1 3.85 11.25 4.0 11.5 4.25 12.25 5.1 12.4 4.35 11.85 1.3 11.05 -1.5 Q10.15 -3.85 8.5 -5.85 L7.85 -6.65 7.05 -7.55 7.15 -7.95 8.15 -7.55 Q10.75 -6.2 12.25 -2.5 13.6 0.85 13.6 4.35 13.45 7.35 12.7 7.35 L11.6 6.2 10.15 4.8 10.3 5.55 Q10.25 6.1 9.4 6.1 L7.6 3.35 Q5.65 0.45 4.9 -0.3 L4.85 -0.2 4.45 3.1 Q4.15 5.2 3.4 5.2 L1.25 3.15 -1.4 0.6 Q-0.45 3.3 -1.85 3.3 -2.45 3.3 -3.5 1.65 L-2.65 3.7 Q-2.0 5.05 -2.0 5.5 L-2.05 5.8 Q-2.2 6.1 -2.75 6.1 -3.35 6.1 -4.5 4.9 L-5.9 3.25 -6.3 5.75 Q-6.6 7.5 -7.2 7.5 -7.85 7.5 -8.9 5.65 L-9.3 9.15 Q-9.55 11.4 -10.45 11.4 -11.75 11.4 -12.75 7.6 -13.6 4.5 -13.6 2.6 -13.6 0.15 -13.25 -0.95 L-12.5 -3.1 Q-11.8 -4.65 -11.2 -4.7 L-11.15 -4.7 -10.8 -4.6 -10.7 -4.5 -10.6 -4.1 -10.6 -3.95 -10.8 -3.4 -11.45 -1.65 -11.7 -0.9 Q-12.35 0.95 -12.35 2.65 L-12.05 5.4 -10.8 8.05 -10.7 8.2 -10.5 6.5 -10.5 6.3 -10.35 5.8 -10.3 5.5 -10.3 5.45 Q-9.85 3.75 -9.4 3.75 -9.05 3.75 -8.45 4.4 L-7.65 5.3 -7.6 5.35 -7.6 5.25 Q-7.8 4.65 -7.35 3.65 L-7.0 2.95 -6.85 2.5 -6.8 2.15 -6.8 2.1 Q-7.4 0.6 -6.4 0.6 L-6.3 0.6 -6.1 0.75 -5.95 0.85 -5.8 1.05 -5.4 1.6 -4.45 3.0 Q-5.0 1.0 -5.0 -0.35 -5.2 -1.55 -4.45 -1.55 -4.05 -1.55 -3.5 -0.6 L-2.6 0.85 -2.7 -0.75 Q-2.7 -1.8 -1.9 -1.8 L0.25 0.15 3.1 3.0 3.6 -0.25 Q3.85 -2.25 4.4 -2.25 4.95 -2.25 6.45 -0.5 M3.9 -10.2 L3.85 -10.2 3.65 -10.2 3.55 -10.2 1.7 -10.1 1.35 -10.05 Q-1.45 -9.7 -4.4 -8.3 L-7.1 -6.7 -7.7 -6.3 Q-8.3 -6.3 -8.3 -7.05 L-8.25 -7.3 Q-8.0 -9.5 -2.15 -10.8 3.95 -12.1 3.95 -10.55 L3.9 -10.2" fill="#a36a6a" fill-rule="evenodd" stroke="none"/>
    <path d="M8.15 -7.55 L7.15 -7.95 7.05 -7.55 7.85 -6.65 8.5 -5.85 Q10.15 -3.85 11.05 -1.5 L11.85 1.3 12.4 4.35 12.25 5.1 11.5 4.25 11.25 4.0 11.1 3.85 10.25 3.05 9.9 2.85 9.85 2.85 9.3 3.0 9.1 3.15 Q8.3 1.75 6.75 -0.1 L6.45 -0.5 5.1 -2.7 Q3.9 -4.7 3.9 -5.25 L3.95 -5.55 Q5.6 -4.75 7.45 -1.65 L7.6 -1.45 7.95 -2.3 8.0 -2.95 Q6.95 -4.85 4.2 -7.5 L1.7 -10.1 3.55 -10.2 3.65 -10.2 3.75 -10.1 3.85 -10.2 3.9 -10.2 4.75 -9.85 Q7.65 -8.55 8.15 -7.55 M-5.8 1.05 L-5.95 0.85 -6.1 0.75 -6.3 0.6 -6.4 0.6 Q-7.4 0.6 -6.8 2.1 L-6.8 2.15 -6.85 2.5 -7.0 2.95 -7.35 3.65 Q-7.8 4.65 -7.6 5.25 L-7.65 5.3 -8.45 4.4 Q-9.05 3.75 -9.4 3.75 -9.85 3.75 -10.3 5.45 L-10.8 -0.15 Q-10.8 -0.45 -10.95 -0.5 L-11.4 -0.45 -11.7 -0.9 -11.45 -1.65 -10.8 -3.4 -10.6 -3.95 -10.6 -4.1 -10.7 -4.5 -10.8 -4.6 -11.15 -4.7 -10.1 -6.05 -9.9 -6.2 -9.35 -6.65 -9.3 -6.7 -9.0 -6.9 -9.3 -5.5 Q-9.65 -4.4 -9.1 -2.95 L-8.55 -1.1 -8.25 -2.4 Q-7.85 -3.3 -7.25 -3.3 -6.85 -3.3 -6.0 0.2 L-5.8 1.05 M-10.5 6.5 L-10.7 8.2 -10.8 8.05 -10.8 7.9 -11.1 6.9 -10.5 6.5 M-10.95 -1.05 L-10.45 0.8 -9.6 2.7 -9.2 2.2 Q-9.2 1.5 -10.65 -2.7 L-10.95 -1.05" fill="#cca9a9" fill-rule="evenodd" stroke="none"/>
    <path d="M6.45 -0.5 Q4.95 -2.25 4.4 -2.25 3.85 -2.25 3.6 -0.25 L3.1 3.0 0.25 0.15 -1.9 -1.8 Q-2.7 -1.8 -2.7 -0.75 L-2.6 0.85 -3.5 -0.6 Q-4.05 -1.55 -4.45 -1.55 -5.2 -1.55 -5.0 -0.35 -5.0 1.0 -4.45 3.0 L-5.4 1.6 -5.8 1.05 -6.0 0.2 Q-6.85 -3.3 -7.25 -3.3 -7.85 -3.3 -8.25 -2.4 L-8.55 -1.1 -9.1 -2.95 Q-9.65 -4.4 -9.3 -5.5 L-9.0 -6.9 -8.25 -7.3 -8.3 -7.05 Q-8.3 -6.3 -7.7 -6.3 L-7.1 -6.7 -4.4 -8.3 Q-1.45 -9.7 1.35 -10.05 L1.7 -10.1 4.2 -7.5 Q6.95 -4.85 8.0 -2.95 L7.95 -2.3 7.6 -1.45 7.45 -1.65 Q5.6 -4.75 3.95 -5.55 L3.9 -5.25 Q3.9 -4.7 5.1 -2.7 L6.45 -0.5 M-7.6 5.25 L-7.6 5.35 -7.65 5.3 -7.6 5.25 M-11.15 -4.7 L-11.2 -4.7 -11.15 -4.7 M3.85 -10.2 L3.75 -10.1 3.65 -10.2 3.85 -10.2" fill="#f2eaea" fill-rule="evenodd" stroke="none"/>
    <path d="M-10.3 5.45 L-10.3 5.5 -10.35 5.8 -10.5 6.3 -10.5 6.5 -11.1 6.9 -10.8 7.9 -10.8 8.05 -12.05 5.4 -12.35 2.65 Q-12.35 0.95 -11.7 -0.9 L-11.4 -0.45 -10.95 -0.5 Q-10.8 -0.45 -10.8 -0.15 L-10.3 5.45 M-10.95 -1.05 L-10.65 -2.7 Q-9.2 1.5 -9.2 2.2 L-9.6 2.7 -10.45 0.8 -10.95 -1.05" fill="#ffffff" fill-rule="evenodd" stroke="none"/>
  </g>
</svg>