<?xml version="1.0" encoding="UTF-8" standalone="no"?>
<svg xmlns:xlink="http://www.w3.org/1999/xlink" height="25.85px" width="33.5px" xmlns="http://www.w3.org/2000/svg">
  <g transform="matrix(1.0, 0.0, 0.0, 1.0, 19.1, 7.05)">
    <path d="M8.2 -5.35 L8.15 -5.3 7.8 -5.0 7.4 -4.75 7.15 -4.6 Q5.2 -3.5 1.6 -3.5 L-2.1 -3.7 -2.2 -3.7 -3.9 -4.1 -5.15 -4.45 -6.95 -4.75 -9.6 -4.55 -10.0 -4.45 -10.2 -4.45 -11.4 -4.1 -12.05 -3.85 -12.2 -3.8 -12.8 -3.45 -13.05 -3.25 -13.1 -3.2 -13.15 -3.15 -13.85 -2.65 -15.2 -1.45 -15.5 -1.2 -15.75 -1.0 -16.1 -0.7 -16.25 -0.55 -16.7 -0.05 -17.35 0.85 -17.3 1.25 Q-17.1 2.25 -15.8 2.4 L-13.05 2.8 -12.85 2.9 Q-12.15 3.2 -11.7 3.8 -11.4 4.25 -11.25 4.9 L-11.0 6.1 Q-10.75 6.85 -10.0 7.1 L-6.25 8.1 -4.8 8.4 -4.7 8.45 -4.65 8.45 -4.0 8.7 -3.2 9.45 -2.5 10.6 -1.35 11.4 -0.85 11.65 0.8 11.75 Q2.0 11.75 2.6 12.3 L2.9 12.65 4.65 14.9 Q6.3 16.85 7.45 16.85 L8.45 16.65 9.15 16.15 9.75 15.45 10.6 13.9 11.6 13.0 12.45 12.2 12.5 11.4 12.5 11.25 12.5 11.15 Q12.55 10.7 12.9 10.5 L13.1 10.6 13.15 10.65 13.2 10.95 13.25 11.0 13.4 11.9 Q13.4 12.6 12.45 13.4 11.3 14.35 11.0 15.1 L9.85 16.7 9.6 16.95 9.0 17.35 7.25 17.8 Q5.65 17.8 4.0 15.65 L2.15 13.15 1.3 12.75 0.35 12.6 -1.6 12.4 -2.35 11.95 -3.2 11.3 -3.95 10.05 Q-4.5 9.3 -5.55 9.0 L-8.35 8.6 Q-9.85 8.45 -10.85 7.7 L-11.85 6.45 -12.05 5.25 Q-12.2 3.2 -15.2 3.1 -18.1 3.0 -18.1 0.9 L-18.05 0.55 -17.65 -0.25 -17.4 -0.55 -16.95 -1.0 -16.8 -1.15 -16.4 -1.55 -16.1 -1.75 -14.75 -2.8 -13.55 -3.55 -13.35 -3.65 -13.3 -3.65 -12.8 -3.95 -12.4 -4.15 -10.6 -4.9 -10.55 -4.9 -9.9 -5.1 -7.55 -5.4 -3.4 -4.9 0.7 -4.4 Q4.55 -4.4 7.05 -5.6 8.45 -6.25 8.45 -5.95 L8.2 -5.35 M-11.9 0.85 L-12.8 1.5 -12.9 1.55 -12.85 1.45 -12.2 0.4 -11.8 0.0 -11.3 -0.3 -11.2 -0.3 -10.55 -0.55 -8.7 -0.7 -8.3 -0.7 -7.6 -0.7 -6.9 -0.75 -6.85 -0.75 -6.75 -0.75 -5.55 -0.7 -3.7 -0.35 -1.75 0.6 -1.35 0.75 -1.3 0.8 -1.2 0.7 -1.05 0.85 -0.15 1.15 0.05 1.2 0.45 1.35 1.15 1.55 3.45 2.3 Q6.45 3.4 7.95 4.55 L7.5 4.65 6.3 4.35 1.8 2.7 0.95 2.35 0.7 2.25 0.5 2.2 -0.5 1.75 -0.55 1.75 -0.25 2.55 0.0 3.05 0.55 3.85 0.7 4.05 1.15 4.65 1.15 4.7 1.35 5.35 2.25 6.25 2.45 6.35 2.55 6.4 2.8 6.55 4.45 7.6 4.5 7.65 4.8 7.85 4.9 7.95 5.7 8.5 5.15 8.2 5.0 8.15 4.85 8.05 4.7 8.0 3.05 7.15 2.85 7.0 2.8 7.0 2.4 6.8 Q0.8 5.95 0.4 5.1 L0.15 4.6 -1.35 1.45 -1.1 1.5 -1.35 1.4 -1.4 1.4 -4.7 0.15 -5.9 -0.2 -6.3 -0.15 -6.5 -0.15 -7.6 -0.1 -8.15 -0.05 -8.3 -0.05 -9.5 0.05 Q-8.2 1.0 -7.4 2.15 L-6.9 3.05 Q-6.5 3.95 -6.8 4.65 L-5.05 4.95 -4.7 5.05 -4.5 5.1 -3.95 5.25 -2.95 5.6 -2.25 5.9 -1.4 6.45 Q-0.3 7.25 0.15 8.4 L0.3 8.9 0.1 8.95 -0.7 7.7 -1.3 7.05 -1.5 6.95 -1.65 6.85 -1.85 6.75 -2.0 6.65 -2.05 6.65 -3.55 6.05 -3.6 6.0 -4.15 5.75 Q-4.35 5.6 -4.6 5.55 L-6.15 5.65 Q-6.8 5.8 -7.3 5.25 L-7.65 3.95 -7.7 3.3 -7.9 2.6 Q-9.9 0.75 -9.9 0.2 L-9.9 0.1 -10.85 0.25 -10.9 0.3 -11.9 0.85" fill="#a36a6a" fill-rule="evenodd" stroke="none"/>
    <path d="M7.8 -5.0 L8.15 -5.3 8.2 -5.35 8.65 -4.3 9.0 -2.1 10.0 2.25 10.3 3.65 Q9.75 4.2 9.2 4.2 8.4 4.2 6.9 2.9 L4.8 1.35 Q0.5 0.3 -1.1 -0.35 L-1.7 -0.55 -2.65 -0.9 -2.95 -1.0 -6.6 -1.7 -7.5 -1.7 -7.7 -1.65 -9.25 -1.5 -11.05 -1.35 -11.4 -1.4 Q-12.45 -1.65 -12.7 -2.7 L-12.8 -3.45 -12.2 -3.8 -12.05 -3.85 -11.4 -4.1 -10.2 -4.45 -10.0 -4.45 -9.6 -4.55 -6.95 -4.75 -5.15 -4.45 -3.9 -4.1 -2.2 -3.7 -2.1 -3.7 1.6 -3.5 Q5.2 -3.5 7.15 -4.6 L7.4 -4.75 7.4 -4.7 7.8 -5.0 M-4.0 8.7 L-4.65 8.45 -4.7 8.45 -4.8 8.4 Q-7.3 7.35 -8.6 6.05 L-8.6 5.9 -7.85 5.9 -7.55 5.95 -6.4 6.25 -5.55 6.5 -5.45 6.5 -4.6 6.5 -4.0 6.75 Q-3.1 7.35 -1.6 9.05 L-0.6 9.75 0.6 10.35 1.05 10.5 0.95 10.5 0.6 10.35 -4.0 8.7 M-17.3 1.25 L-17.35 0.85 -16.7 -0.05 -16.25 -0.55 -16.1 -0.7 -15.75 -1.0 -15.5 -1.2 -15.2 -1.45 -14.85 -1.45 -14.45 -0.7 -14.25 -0.05 -14.45 0.45 -14.55 0.55 -15.2 0.95 -15.25 1.0 -16.45 1.35 -17.3 1.25 M-1.4 1.4 L-1.35 1.4 -1.35 1.45 -1.4 1.4 M-1.9 3.55 L-1.95 3.5 -1.85 3.5 -1.9 3.55 M4.9 9.85 L5.25 10.0 5.3 10.0 5.6 10.2 6.55 10.65 Q7.1 10.95 7.1 11.5 7.1 12.15 6.55 12.15 L6.3 12.1 5.4 11.8 5.15 11.7 4.75 11.5 4.25 11.3 3.1 10.75 3.1 10.0 3.15 10.0 3.2 9.95 Q3.65 9.65 4.15 9.65 L4.8 9.8 4.9 9.85" fill="#f2eaea" fill-rule="evenodd" stroke="none"/>
    <path d="M12.5 11.15 L12.5 11.25 12.5 11.4 12.45 12.2 11.6 13.0 10.6 13.9 9.75 15.45 9.15 16.15 8.45 16.65 7.45 16.85 Q6.3 16.85 4.65 14.9 L2.9 12.65 3.55 12.7 4.65 13.0 5.8 13.4 6.35 13.55 7.9 13.85 8.05 13.85 Q8.95 13.85 9.25 13.15 9.65 12.1 10.1 11.7 10.5 11.35 11.8 11.2 L12.5 11.15 M-11.9 0.85 L-10.9 0.3 -10.85 0.25 -9.9 0.1 -9.9 0.2 Q-9.9 0.75 -7.9 2.6 L-7.7 3.3 -7.95 3.0 Q-8.7 2.1 -9.55 1.8 L-10.65 1.8 -10.65 2.3 -9.4 5.05 -10.45 3.7 -10.7 3.35 -10.8 3.15 -11.05 2.75 -11.9 0.85 M-2.95 5.6 L-3.95 5.25 -4.5 5.1 -4.7 5.05 -5.05 4.95 -6.8 4.65 Q-6.5 3.95 -6.9 3.05 L-7.4 2.15 Q-8.2 1.0 -9.5 0.05 L-8.3 -0.05 -8.15 -0.05 -7.6 -0.1 -6.5 -0.15 -6.3 -0.15 -5.9 -0.2 -4.7 0.15 -1.4 1.4 -1.35 1.45 0.15 4.6 -1.75 3.55 -1.85 3.5 -1.95 3.5 -1.9 3.55 0.2 6.45 1.4 8.05 -1.2 5.6 -2.8 4.35 -3.15 4.1 -3.9 3.6 -4.65 3.05 Q-4.2 4.15 -2.95 5.6 M4.9 7.95 L4.8 7.85 4.5 7.65 4.45 7.6 2.8 6.55 2.55 6.4 2.45 6.35 2.25 6.25 1.35 5.35 1.15 4.7 1.15 4.65 0.7 4.05 0.55 3.85 0.0 3.05 -0.25 2.55 -0.55 1.75 -0.5 1.75 0.5 2.2 0.7 2.25 0.95 2.35 1.8 2.7 6.3 4.35 4.65 4.0 Q4.1 4.0 4.1 5.05 L4.15 5.7 4.9 7.95" fill="#cca9a9" fill-rule="evenodd" stroke="none"/>
    <path d="M-12.8 -3.45 L-12.7 -2.7 Q-12.45 -1.65 -11.4 -1.4 L-11.05 -1.35 -9.25 -1.5 -7.7 -1.65 -7.5 -1.7 -6.6 -1.7 -2.95 -1.0 -2.65 -0.9 -1.7 -0.55 -1.1 -0.35 Q0.5 0.3 4.8 1.35 L6.9 2.9 Q8.4 4.2 9.2 4.2 9.75 4.2 10.3 3.65 10.65 5.5 11.05 6.55 L12.3 9.05 13.1 10.6 12.9 10.5 Q12.55 10.7 12.5 11.15 L11.8 11.2 Q10.5 11.35 10.1 11.7 9.65 12.1 9.25 13.15 8.95 13.85 8.05 13.85 L7.9 13.85 6.35 13.55 5.8 13.4 4.65 13.0 3.55 12.7 2.9 12.65 2.6 12.3 Q2.0 11.75 0.8 11.75 L-0.85 11.65 -1.35 11.4 -2.5 10.6 -3.2 9.45 -4.0 8.7 0.6 10.35 0.95 10.5 1.05 10.5 0.6 10.35 -0.6 9.75 -1.6 9.05 Q-3.1 7.35 -4.0 6.75 L-4.6 6.5 -5.45 6.5 -5.55 6.5 -6.4 6.25 -7.55 5.95 -7.85 5.9 -8.6 5.9 -8.6 6.05 Q-7.3 7.35 -4.8 8.4 L-6.25 8.1 -10.0 7.1 Q-10.75 6.85 -11.0 6.1 L-11.25 4.9 Q-11.4 4.25 -11.7 3.8 -12.15 3.2 -12.85 2.9 L-13.05 2.8 -15.8 2.4 Q-17.1 2.25 -17.3 1.25 L-16.45 1.35 -15.25 1.0 -15.2 0.95 -14.55 0.55 -14.45 0.45 -14.25 -0.05 -14.45 -0.7 -14.85 -1.45 -15.2 -1.45 -13.85 -2.65 -13.15 -3.15 -13.1 -3.2 -13.05 -3.25 -12.8 -3.45 M6.3 4.35 L7.5 4.65 7.95 4.55 Q6.45 3.4 3.45 2.3 L1.15 1.55 0.45 1.35 0.05 1.2 -0.15 1.15 -1.05 0.85 -1.2 0.7 -1.3 0.8 -1.35 0.75 -1.75 0.6 -3.7 -0.35 -5.55 -0.7 -6.75 -0.75 -6.85 -0.75 -6.9 -0.75 -7.6 -0.7 -8.3 -0.7 -8.7 -0.7 -10.55 -0.55 -11.2 -0.3 -11.3 -0.3 -11.8 0.0 -12.2 0.4 -12.85 1.45 -12.9 1.55 -12.8 1.5 -11.9 0.85 -11.05 2.75 -10.8 3.15 -10.7 3.35 -10.45 3.7 -9.4 5.05 -10.65 2.3 -10.65 1.8 -9.55 1.8 Q-8.7 2.1 -7.95 3.0 L-7.7 3.3 -7.65 3.95 -7.3 5.25 Q-6.8 5.8 -6.15 5.65 L-4.6 5.55 Q-4.35 5.6 -4.15 5.75 L-3.6 6.0 -3.55 6.05 -2.05 6.65 -2.0 6.65 -1.85 6.75 -1.65 6.85 -1.5 6.95 -1.3 7.05 -0.7 7.7 0.1 8.95 0.3 8.9 0.15 8.4 Q-0.3 7.25 -1.4 6.45 L-2.25 5.9 -2.95 5.6 Q-4.2 4.15 -4.65 3.05 L-3.9 3.6 -3.15 4.1 -2.8 4.35 -1.2 5.6 1.4 8.05 0.2 6.45 -1.9 3.55 -1.85 3.5 -1.75 3.55 0.15 4.6 0.4 5.1 Q0.8 5.95 2.4 6.8 L2.8 7.0 2.85 7.0 3.05 7.15 4.7 8.0 4.85 8.05 5.0 8.15 5.15 8.2 5.7 8.5 4.9 7.95 4.15 5.7 4.1 5.05 Q4.1 4.0 4.65 4.0 L6.3 4.35 M4.9 9.85 L4.8 9.8 4.15 9.65 Q3.65 9.65 3.2 9.95 L3.15 10.0 3.1 10.0 3.1 10.75 4.25 11.3 4.75 11.5 5.15 11.7 5.4 11.8 6.3 12.1 6.55 12.15 Q7.1 12.15 7.1 11.5 7.1 10.95 6.55 10.65 L5.6 10.2 5.3 10.0 5.25 10.0 4.9 9.85" fill="#e0cbcb" fill-rule="evenodd" stroke="none"/>
  </g>
</svg>