<?xml version="1.0" encoding="UTF-8" standalone="no"?>
<svg xmlns:xlink="http://www.w3.org/1999/xlink" height="48.65px" width="68.4px" xmlns="http://www.w3.org/2000/svg">
  <g transform="matrix(1.0, 0.0, 0.0, 1.0, 15, 14)">
    <path d="M8.8 -7.5 L8.75 -7.5 8.75 -8.0 8.8 -7.8 8.8 -7.5 M13.65 3.7 L13.5 3.65 13.65 3.65 13.65 3.7 M11.85 7.4 L11.8 7.55 11.75 7.5 11.85 7.4" fill="#885f55" fill-rule="evenodd" stroke="none"/>
    <path d="M-11.9 -5.35 L-11.95 -5.0 -12.0 -5.15 -11.9 -5.35 M-0.95 7.0 L-0.95 7.05 -1.0 7.0 -0.95 7.0 M19.4 -0.7 L18.75 -0.15 18.75 -0.25 19.4 -0.7 M40.45 -5.4 L40.55 -5.35 40.5 -5.35 40.45 -5.4 M-4.45 31.95 L-4.45 31.9 -4.45 31.8 -4.45 31.95 M5.7 15.45 L5.6 15.5 5.65 15.4 5.7 15.45 M0.7 16.1 L0.75 16.15 0.6 16.2 0.7 16.1" fill="#ffffcc" fill-rule="evenodd" stroke="none"/>
    <path d="M-7.85 30.0 L-8.55 29.3 -8.55 29.25 -7.85 29.95 -7.85 30.0 M37.8 -3.95 L37.75 -3.95 37.8 -4.05 37.8 -3.95" fill="#c9a97a" fill-rule="evenodd" stroke="none"/>
    <path d="M46.65 -8.6 L47.05 -8.4 46.9 -8.3 46.65 -8.6 M1.2 8.75 L1.2 8.85 1.15 8.8 1.2 8.75 M5.95 -2.55 L5.8 -2.5 5.8 -2.55 5.95 -2.55 M27.3 -3.75 L27.3 -3.6 27.15 -3.65 27.3 -3.75 M25.65 -4.6 L25.55 -4.65 25.65 -4.6 M31.65 -3.55 L31.65 -3.45 31.55 -3.45 31.65 -3.55" fill="#e3d2a3" fill-rule="evenodd" stroke="none"/>
    <path d="M9.25 -9.1 L9.3 -9.2 9.45 -9.2 9.85 -3.25 10.05 1.35 10.1 1.55 9.9 1.7 11.85 0.35 Q16.35 -2.8 21.2 -5.45 L21.75 -5.75 26.5 -8.2 Q29.6 -9.45 34.35 -10.95 L44.05 -10.6 Q47.25 -9.85 49.35 -8.1 52.4 -5.6 52.4 -2.3 52.4 -0.35 51.3 2.0 L51.1 2.4 Q49.3 5.85 45.75 5.85 L45.2 5.85 44.1 6.15 43.75 5.95 43.55 5.7 Q45.75 3.85 45.75 1.6 45.75 1.15 45.2 0.6 44.35 -0.3 42.9 -0.3 40.25 -0.3 33.4 3.85 L31.0 5.35 Q27.8 7.45 25.1 9.95 22.65 12.2 20.6 14.85 L20.0 15.6 17.9 18.65 16.15 21.0 10.6 27.15 Q5.3 32.65 2.65 33.2 L-2.2 33.6 Q-9.75 32.8 -12.35 25.75 -14.1 21.0 -14.0 15.85 L-13.95 14.75 -13.75 8.7 -13.7 8.5 -13.7 8.4 -13.6 7.0 -13.55 6.5 -13.35 4.2 Q-12.8 -0.95 -11.95 -5.0 L-11.9 -5.35 -11.75 -6.05 Q-11.6 -6.05 -11.45 -5.85 L-11.4 -5.75 -11.25 -5.4 -11.45 -4.5 -11.7 -2.85 -11.9 -0.75 -12.6 5.85 -12.6 6.5 -12.6 7.25 -12.65 9.0 -12.9 14.75 -12.95 15.7 -12.9 16.65 -12.85 17.35 -12.8 17.85 -12.75 18.4 -12.4 21.55 Q-11.5 25.35 -9.05 28.65 L-8.55 29.3 -7.85 30.0 -6.9 30.75 -6.45 30.6 Q-6.05 30.7 -5.65 30.95 L-4.5 31.1 Q-3.65 31.1 -2.85 30.55 L-1.95 29.85 Q-1.65 30.45 -2.5 31.15 -3.4 31.8 -4.45 31.8 L-4.85 31.8 -4.5 31.95 -4.45 31.95 Q0.55 33.75 5.15 30.3 9.9 26.7 12.95 22.75 L14.3 21.0 18.35 15.6 20.6 12.8 23.6 9.75 24.0 9.4 Q26.3 7.35 28.7 5.35 31.25 3.5 34.8 1.8 L37.75 0.4 39.9 -0.45 40.15 -0.5 Q41.9 -1.15 43.15 -1.25 L43.25 -1.25 44.9 -1.15 Q46.65 -0.7 46.65 1.55 L46.35 3.9 46.0 4.85 Q47.25 4.5 48.3 3.75 L50.0 1.95 50.0 1.9 50.7 0.8 Q51.45 -0.75 51.45 -2.3 51.45 -4.9 49.35 -6.85 L47.05 -8.4 46.65 -8.6 Q43.25 -10.1 37.7 -10.1 33.45 -10.1 27.8 -7.7 L26.7 -7.2 20.75 -3.9 20.45 -3.7 Q15.5 -0.95 8.0 5.3 L5.7 7.25 5.3 7.6 4.15 8.6 2.1 10.45 1.8 10.75 0.65 11.75 0.15 12.2 -0.4 12.7 -0.55 12.85 -0.9 13.2 -1.5 13.75 -3.2 15.4 -3.6 15.75 -5.0 17.1 -7.0 19.05 Q-6.35 17.7 -5.3 16.7 L-5.2 16.6 -4.0 15.45 -3.6 15.05 -1.95 13.45 -1.9 13.45 0.45 11.1 0.95 10.6 1.3 10.25 1.55 10.0 Q1.75 9.75 2.0 9.6 L3.55 8.0 4.05 7.5 8.8 2.6 8.8 -0.5 8.7 -3.6 8.7 -6.55 8.75 -7.15 8.75 -7.5 8.8 -7.5 8.85 -7.8 9.25 -9.1 M13.55 4.5 Q13.15 5.6 11.55 6.8 L11.3 6.75 11.25 6.6 12.4 5.3 12.5 5.2 Q13.3 4.4 13.5 3.65 L13.65 3.7 13.55 4.5 M41.4 -6.3 L41.7 -6.45 42.45 -6.45 Q43.05 -6.45 43.05 -6.15 L42.3 -5.9 41.7 -6.05 41.4 -6.3 M43.0 -7.25 Q42.1 -7.5 42.0 -7.65 43.75 -8.3 44.3 -7.2 L44.3 -7.1 44.0 -7.05 43.0 -7.25 M-8.15 1.8 L-8.15 1.65 -8.1 1.55 -8.0 1.5 -7.7 1.85 -7.65 2.05 Q-7.65 2.45 -7.95 2.55 L-8.15 1.8 M-6.35 2.85 L-6.4 2.65 -6.6 1.8 -6.3 0.9 Q-6.05 0.9 -5.9 1.55 L-5.75 2.35 -6.0 3.0 -6.05 3.0 Q-6.3 3.0 -6.35 2.85 M-8.55 29.25 L-5.05 29.15 -4.7 29.25 -4.75 29.7 -6.8 30.0 -7.85 29.95 -8.55 29.25 M11.85 7.4 L13.05 6.3 Q13.4 6.3 13.4 6.75 13.2 7.65 12.15 7.65 L11.8 7.55 11.85 7.4" fill="#9397b9" fill-rule="evenodd" stroke="none"/>
    <path d="M9.25 -9.1 L8.85 -7.8 8.8 -7.8 8.75 -8.0 8.75 -7.5 8.75 -7.15 8.7 -6.55 8.7 -3.6 8.8 -0.5 8.8 2.6 4.05 7.5 3.55 8.0 2.0 9.6 Q1.75 9.75 1.55 10.0 L1.3 10.25 0.95 10.6 0.45 11.1 -0.95 7.05 -0.95 7.0 -0.9 7.0 -0.85 7.05 1.15 8.8 1.2 8.85 1.2 8.75 0.7 7.2 -0.7 1.9 Q-2.4 -6.1 -3.85 -12.1 L-3.75 -12.15 Q2.9 -13.85 6.55 -12.05 8.95 -10.9 9.25 -9.1 M-5.0 17.1 L-3.6 15.75 -3.2 15.4 -1.5 13.75 -0.9 13.2 -0.55 12.85 -0.4 12.7 0.75 11.75 Q2.65 10.6 4.3 8.85 L5.7 7.25 8.0 5.3 Q15.5 -0.95 20.45 -3.7 L20.75 -3.9 26.7 -7.2 27.8 -7.7 Q33.45 -10.1 37.7 -10.1 43.25 -10.1 46.65 -8.6 L46.9 -8.3 48.2 -6.35 47.95 -6.35 46.7 -6.8 46.5 -6.8 47.75 -4.85 47.75 -4.6 Q46.2 -5.5 43.1 -5.7 L38.7 -5.95 40.4 -5.5 40.45 -5.4 40.5 -5.35 36.15 -4.7 31.65 -3.55 31.55 -3.45 31.65 -3.45 36.65 -3.3 31.7 -2.3 Q28.5 -1.55 26.6 -0.35 L24.8 0.75 24.5 0.75 25.25 -0.15 21.65 0.6 23.5 -1.65 25.65 -4.6 25.55 -4.65 20.7 -1.65 19.7 -0.95 15.95 1.15 16.1 1.8 Q16.1 2.75 13.75 4.35 L13.55 4.5 13.65 3.7 13.65 3.65 13.5 3.65 Q13.3 4.4 12.5 5.2 L10.25 6.75 7.3 9.7 Q4.4 12.15 2.2 12.15 L2.1 12.15 Q1.3 12.8 0.45 13.55 L-4.35 17.55 -4.45 17.5 -5.0 17.1 M5.95 -2.55 L5.8 -2.55 5.8 -2.5 5.85 -2.2 5.7 -1.85 6.05 -0.4 6.5 1.0 Q6.75 1.0 6.8 -0.45 L6.55 -1.55 5.95 -2.55 M27.3 -3.6 L27.5 -3.6 Q28.05 -3.6 30.0 -4.85 L29.85 -5.1 Q27.65 -4.45 27.3 -3.75 L27.15 -3.65 27.3 -3.6 M38.85 -8.9 L38.9 -8.95 Q38.65 -9.3 37.7 -9.3 L36.25 -9.05 36.25 -8.95 37.4 -8.8 38.85 -8.9 M43.0 -7.25 L44.0 -7.05 44.3 -7.1 44.3 -7.2 Q43.75 -8.3 42.0 -7.65 42.1 -7.5 43.0 -7.25 M41.4 -6.3 L41.7 -6.05 42.3 -5.9 43.05 -6.15 Q43.05 -6.45 42.45 -6.45 L41.7 -6.45 41.4 -6.3 M5.25 2.35 L5.6 1.7 Q5.4 0.45 4.8 0.4 L5.1 1.4 Q5.1 2.15 5.25 2.35 M1.7 2.3 L2.35 2.7 2.3 2.0 Q1.9 2.0 1.7 2.3" fill="#f7fbff" fill-rule="evenodd" stroke="none"/>
    <path d="M5.8 -2.5 L5.95 -2.55 6.55 -1.55 6.8 -0.45 Q6.75 1.0 6.5 1.0 L6.05 -0.4 5.7 -1.85 5.85 -2.2 5.8 -2.5 M27.3 -3.75 Q27.65 -4.45 29.85 -5.1 L30.0 -4.85 Q28.05 -3.6 27.5 -3.6 L27.3 -3.6 27.3 -3.75 M49.3 -1.3 L49.35 -1.35 49.3 -1.3 M38.85 -8.9 L37.4 -8.8 36.25 -8.95 36.25 -9.05 37.7 -9.3 Q38.65 -9.3 38.9 -8.95 L38.85 -8.9 M1.7 2.3 Q1.9 2.0 2.3 2.0 L2.35 2.7 1.7 2.3 M5.25 2.35 Q5.1 2.15 5.1 1.4 L4.8 0.4 Q5.4 0.45 5.6 1.7 L5.25 2.35" fill="#c5c9e4" fill-rule="evenodd" stroke="none"/>
    <path d="M50.7 0.8 L50.0 1.9 50.1 1.65 Q50.1 0.0 49.35 -0.45 L49.5 -1.0 49.5 -1.4 49.3 -1.5 48.0 -5.1 Q49.15 -4.5 50.15 -2.7 51.1 -0.9 50.7 0.8 M48.3 3.75 Q47.25 4.5 46.0 4.85 L46.35 3.9 46.65 1.55 Q46.65 -0.7 44.9 -1.15 L45.4 -1.0 45.9 -1.05 Q47.05 -1.05 47.5 -0.6 L49.05 0.35 48.6 2.05 48.15 3.0 Q48.15 3.5 48.3 3.75 M39.9 -0.45 L37.75 0.4 34.8 1.8 34.65 1.65 38.3 0.1 39.9 -0.45 M-12.8 17.85 L-12.85 17.35 -12.9 16.65 -12.85 17.25 -12.65 17.9 -12.8 17.85 M8.4 25.25 L8.15 25.55 7.95 25.5 Q8.4 25.05 8.4 25.25" fill="#e8e786" fill-rule="evenodd" stroke="none"/>
    <path d="M50.0 1.9 L50.0 1.95 48.3 3.75 Q48.15 3.5 48.15 3.0 L48.6 2.05 49.05 0.35 47.5 -0.6 Q47.05 -1.05 45.9 -1.05 L45.4 -1.0 44.9 -1.15 43.25 -1.25 43.15 -1.25 Q41.9 -1.15 40.15 -0.5 L39.9 -0.45 38.3 0.1 34.65 1.65 34.8 1.8 Q31.25 3.5 28.7 5.35 26.3 7.35 24.0 9.4 L23.6 9.75 20.6 12.8 18.35 15.6 14.3 21.0 12.95 22.75 Q9.9 26.7 5.15 30.3 0.55 33.75 -4.45 31.95 L-4.45 31.8 Q-3.4 31.8 -2.5 31.15 -1.65 30.45 -1.95 29.85 L-2.85 30.55 Q-3.65 31.1 -4.5 31.1 L-5.65 30.95 Q-6.05 30.7 -6.45 30.6 L-6.9 30.75 -7.85 30.0 -7.85 29.95 -6.8 30.0 -4.75 29.7 -4.7 29.25 -5.05 29.15 -8.55 29.25 -8.55 29.3 -9.05 28.65 Q-11.5 25.35 -12.4 21.55 L-12.75 18.4 -12.8 17.85 -12.65 17.9 -12.85 17.25 -12.9 16.65 -12.95 15.7 -12.9 14.75 -12.65 9.0 -12.6 7.25 -12.6 6.5 -12.6 5.85 -11.9 -0.75 -11.7 0.15 -11.7 1.6 Q-11.7 3.4 -11.85 4.7 L-12.05 7.2 -11.1 18.9 Q-10.05 19.2 -8.9 21.3 -7.95 23.1 -7.95 23.65 -4.25 27.6 -3.15 27.6 L-0.5 27.85 1.7 28.1 5.5 25.45 11.1 20.9 Q18.35 14.55 18.35 13.4 18.35 12.55 21.15 9.5 23.8 6.55 24.45 6.3 25.75 5.75 30.2 2.6 34.15 -0.2 35.0 -0.2 L35.45 0.0 35.75 0.15 38.8 -1.2 39.35 -1.1 39.75 -1.05 39.75 -1.2 39.45 -1.4 39.3 -1.8 39.45 -2.0 Q39.65 -2.25 40.0 -2.25 L40.6 -2.05 41.75 -1.85 41.85 -2.05 42.25 -2.3 43.1 -2.0 Q43.25 -2.6 44.0 -2.4 44.65 -2.25 44.9 -1.8 L45.15 -2.1 45.45 -2.25 Q46.05 -2.25 46.65 -1.7 L47.1 -2.1 47.45 -1.9 47.7 -1.5 47.75 -1.85 Q47.8 -2.1 48.15 -2.1 L48.45 -1.95 48.35 -0.75 48.45 -0.75 48.55 -1.25 Q48.7 -1.55 49.05 -1.55 L49.2 -1.55 49.3 -1.3 49.35 -1.2 49.35 -1.35 49.3 -1.5 49.5 -1.4 49.5 -1.0 49.35 -0.45 Q50.1 0.0 50.1 1.65 L50.0 1.9 M8.4 25.25 Q8.4 25.05 7.95 25.5 L8.15 25.55 8.4 25.25" fill="#ffffff" fill-rule="evenodd" stroke="none"/>
    <path d="M-1.9 13.45 L-1.95 13.45 -3.6 15.05 -4.0 15.45 -5.2 16.6 -5.3 16.7 Q-6.35 17.7 -7.0 19.05 L-5.0 17.1 -4.45 17.5 -4.35 17.55 -2.95 18.05 -1.8 17.85 -5.7 20.75 -4.85 20.75 Q-3.15 20.75 -0.3 19.45 L0.35 19.15 0.75 19.0 2.85 17.75 1.75 19.2 1.45 19.65 1.3 19.95 0.8 20.75 1.6 20.2 1.85 20.0 4.8 17.8 6.9 16.2 7.95 15.35 9.45 14.15 10.1 13.6 15.9 8.8 18.45 6.5 Q20.5 4.6 23.0 2.85 24.9 1.5 26.6 0.7 L27.4 0.35 28.55 -0.15 34.1 -1.6 Q38.1 -2.55 39.95 -3.5 L37.8 -3.95 37.8 -4.05 42.15 -4.2 Q44.55 -4.2 46.45 -3.55 48.5 -2.85 49.2 -1.55 L49.05 -1.55 Q48.7 -1.55 48.55 -1.25 L48.45 -0.75 48.35 -0.75 48.45 -1.95 48.15 -2.1 Q47.8 -2.1 47.75 -1.85 L47.7 -1.5 47.45 -1.9 47.1 -2.1 46.65 -1.7 Q46.05 -2.25 45.45 -2.25 L45.15 -2.1 44.9 -1.8 Q44.65 -2.25 44.0 -2.4 43.25 -2.6 43.1 -2.0 L42.25 -2.3 41.85 -2.05 41.75 -1.85 40.6 -2.05 40.0 -2.25 Q39.65 -2.25 39.45 -2.0 L39.3 -1.8 39.45 -1.4 39.75 -1.2 39.75 -1.05 39.35 -1.1 38.8 -1.2 35.75 0.15 35.45 0.0 35.0 -0.2 Q34.15 -0.2 30.2 2.6 25.75 5.75 24.45 6.3 23.8 6.55 21.15 9.5 18.35 12.55 18.35 13.4 18.35 14.55 11.1 20.9 L5.5 25.45 1.7 28.1 -0.5 27.85 -3.15 27.6 Q-4.25 27.6 -7.95 23.65 -7.95 23.1 -8.9 21.3 -10.05 19.2 -11.1 18.9 L-12.05 7.2 -11.85 4.7 Q-11.7 3.4 -11.7 1.6 L-11.7 0.15 -11.9 -0.75 -11.7 -2.85 -11.45 -4.5 -11.25 -5.4 -11.4 -5.75 -11.45 -5.85 -8.3 -8.7 -5.15 -11.2 -4.0 -4.4 -3.35 0.3 -3.05 1.5 -1.65 7.0 -1.55 7.3 -1.5 7.5 -1.85 7.05 -1.9 7.0 -1.9 6.95 -4.2 4.35 -4.05 4.9 -3.95 5.25 -3.55 6.85 -2.95 9.6 Q-2.4 12.5 -1.9 13.45 M-6.35 2.85 Q-6.3 3.0 -6.05 3.0 L-6.0 3.0 -5.75 2.35 -5.9 1.55 Q-6.05 0.9 -6.3 0.9 L-6.6 1.8 -6.4 2.65 -6.35 2.85 M-8.15 1.8 L-7.95 2.55 Q-7.65 2.45 -7.65 2.05 L-7.7 1.85 -8.0 1.5 -8.1 1.55 -8.15 1.65 -8.15 1.8" fill="url(#gradient0)" fill-rule="evenodd" stroke="none"/>
    <path d="M0.45 11.1 L-1.9 13.45 Q-2.4 12.5 -2.95 9.6 L-3.55 6.85 -3.95 5.25 -4.05 4.9 -4.2 4.35 -1.9 6.95 -1.9 7.0 -1.85 7.05 -1.5 7.5 -1.55 7.3 -1.65 7.0 -3.05 1.5 -3.35 0.3 -4.0 -4.4 -5.15 -11.2 -3.85 -12.1 Q-2.4 -6.1 -0.7 1.9 L0.7 7.2 1.2 8.75 1.15 8.8 -0.85 7.05 -0.9 7.0 -0.95 7.0 -1.0 7.0 -0.95 7.05 0.45 11.1 M-0.4 12.7 L0.15 12.2 0.65 11.75 1.8 10.75 2.1 10.45 4.15 8.6 5.3 7.6 5.7 7.25 4.3 8.85 Q2.65 10.6 0.75 11.75 L-0.4 12.7 M47.05 -8.4 L49.35 -6.85 Q51.45 -4.9 51.45 -2.3 51.45 -0.75 50.7 0.8 51.1 -0.9 50.15 -2.7 49.15 -4.5 48.0 -5.1 L49.3 -1.5 49.35 -1.35 49.3 -1.3 49.2 -1.55 Q48.5 -2.85 46.45 -3.55 44.55 -4.2 42.15 -4.2 L37.8 -4.05 37.75 -3.95 37.8 -3.95 39.95 -3.5 Q38.1 -2.55 34.1 -1.6 L28.55 -0.15 27.4 0.35 26.6 0.7 Q24.9 1.5 23.0 2.85 20.5 4.6 18.45 6.5 L15.9 8.8 10.1 13.6 9.45 14.15 7.95 15.35 6.9 16.2 4.8 17.8 1.85 20.0 1.6 20.2 0.8 20.75 1.3 19.95 1.45 19.65 1.75 19.2 2.85 17.75 0.75 19.0 0.35 19.15 -0.3 19.45 Q-3.15 20.75 -4.85 20.75 L-5.7 20.75 -1.8 17.85 -2.95 18.05 -4.35 17.55 0.45 13.55 Q1.3 12.8 2.1 12.15 L2.2 12.15 Q4.4 12.15 7.3 9.7 L10.25 6.75 12.5 5.2 12.4 5.3 11.25 6.6 11.3 6.75 11.55 6.8 Q13.15 5.6 13.55 4.5 L13.75 4.35 Q16.1 2.75 16.1 1.8 L15.95 1.15 19.7 -0.95 20.7 -1.65 25.55 -4.65 25.65 -4.6 23.5 -1.65 21.65 0.6 25.25 -0.15 24.5 0.75 24.8 0.75 26.6 -0.35 Q28.5 -1.55 31.7 -2.3 L36.65 -3.3 31.65 -3.45 31.65 -3.55 36.15 -4.7 40.5 -5.35 40.55 -5.35 40.45 -5.4 40.4 -5.5 38.7 -5.95 43.1 -5.7 Q46.2 -5.5 47.75 -4.6 L47.75 -4.85 46.5 -6.8 46.7 -6.8 47.95 -6.35 48.2 -6.35 46.9 -8.3 47.05 -8.4 M19.4 -0.7 L18.75 -0.25 18.75 -0.15 19.4 -0.7 M-1.8 17.85 L-1.55 17.75 -1.7 17.75 -1.8 17.85 M2.85 17.75 L2.85 17.7 2.85 17.75 M37.65 -4.05 L37.75 -4.0 37.75 -4.05 37.65 -4.05 M11.8 7.55 L12.15 7.65 Q13.2 7.65 13.4 6.75 13.4 6.3 13.05 6.3 L11.85 7.4 11.75 7.5 11.8 7.55 M0.7 16.1 L0.6 16.2 0.75 16.15 0.7 16.1 M5.7 15.45 L5.65 15.4 5.6 15.5 5.7 15.45" fill="#7b839d" fill-rule="evenodd" stroke="none"/>
  </g>
  <defs>
    <linearGradient gradientTransform="matrix(0.0047, 0.0115, -0.0222, 0.0091, -4.0, 12.25)" gradientUnits="userSpaceOnUse" id="gradient0" spreadMethod="pad" x1="-819.2" x2="819.2">
      <stop offset="0.00784313725490196" stop-color="#cfedf3"></stop>
      <stop offset="1.0" stop-color="#e8e786"></stop>
    </linearGradient>
  </defs>
</svg>