<?xml version="1.0" encoding="UTF-8" standalone="no"?>
<svg xmlns:xlink="http://www.w3.org/1999/xlink" height="22px" width="20.15px" xmlns="http://www.w3.org/2000/svg">
  <g transform="matrix(1.0, 0.0, 0.0, 1.0, 10.05, 11.05)">
    <path d="M8.75 8.65 Q9.4 9.3 8.9 9.95 L8.5 9.85 6.8 9.7 5.1 9.5 3.75 8.9 2.85 8.25 Q1.7 6.65 -0.2 6.1 L-0.8 6.8 -1.75 7.0 Q-3.15 7.05 -4.15 6.3 L-5.7 4.95 -7.5 3.55 Q-9.0 2.35 -9.05 0.55 L-8.9 0.25 -8.65 -0.05 -7.8 -0.7 -6.6 -1.45 -3.25 -3.05 -1.95 -3.75 -1.2 -4.35 0.55 -5.45 Q1.9 -6.05 3.15 -6.75 L4.05 -7.3 4.75 -7.8 8.05 -10.0 8.25 -10.05 Q8.75 -9.7 8.3 -9.15 L8.2 -8.95 8.2 -8.9 7.75 -8.35 7.65 -8.2 6.6 -7.1 6.1 -7.05 5.0 -6.35 3.7 -5.5 2.9 -5.05 2.1 -4.5 -0.75 -2.85 -2.6 -1.8 -4.8 -0.6 -6.85 0.5 -6.9 0.5 -7.65 0.9 -7.75 0.95 -7.05 2.0 -5.8 3.35 -4.85 4.15 Q-3.45 5.5 -1.6 5.6 L-1.4 5.35 Q-1.2 5.1 -0.75 4.95 L-0.05 4.85 0.85 5.05 0.9 5.05 1.25 5.25 2.4 5.95 3.15 6.7 3.3 6.85 4.0 7.5 5.45 8.3 6.3 8.4 7.15 8.5 8.75 8.65 M8.2 2.65 L8.25 2.75 Q8.75 3.1 8.35 3.75 L8.05 3.75 8.0 3.75 7.15 3.4 5.85 2.65 4.2 1.95 2.9 1.7 Q2.3 2.05 1.85 2.5 1.65 2.75 1.6 3.15 L1.9 3.6 2.25 4.0 2.3 4.05 Q2.5 4.3 2.3 4.45 L2.05 4.55 1.95 4.55 Q0.95 4.15 0.6 3.35 L0.55 2.9 0.5 2.8 Q0.7 1.65 1.8 1.05 L-0.3 0.8 -1.55 0.9 -3.4 1.35 -4.1 1.55 -4.5 1.55 Q-5.05 1.45 -5.35 1.0 L-5.3 0.9 -4.15 0.25 -2.55 -0.35 -1.0 -0.5 0.3 -0.6 2.2 -0.3 3.75 0.1 5.4 0.95 6.6 1.65 8.2 2.65" fill="#a36a6a" fill-rule="evenodd" stroke="none"/>
    <path d="M-4.8 -0.6 L-2.6 -1.8 -0.75 -2.85 2.1 -4.5 2.9 -5.05 3.7 -5.5 5.0 -6.35 6.1 -7.05 6.6 -7.1 7.65 -8.2 7.75 -8.35 8.2 -8.9 8.2 -8.95 8.3 -9.15 8.55 -8.3 8.35 -6.55 8.1 -4.8 Q8.1 -3.8 8.35 -2.75 L8.6 -0.25 8.4 1.35 8.2 2.65 6.6 1.65 5.4 0.95 3.75 0.1 2.2 -0.3 0.3 -0.6 -1.0 -0.5 -2.55 -0.35 -4.15 0.25 -4.8 -0.6" fill="#f2eaea" fill-rule="evenodd" stroke="none"/>
    <path d="M-4.5 1.55 L-4.1 1.55 -3.4 1.35 -1.55 0.9 -0.3 0.8 1.8 1.05 Q0.7 1.65 0.5 2.8 L0.55 2.9 -3.1 2.3 Q-4.25 2.15 -4.45 1.65 L-4.5 1.55 M2.3 4.45 Q2.5 4.3 2.3 4.05 L2.25 4.0 1.9 3.6 1.6 3.15 Q1.65 2.75 1.85 2.5 2.3 2.05 2.9 1.7 L4.2 1.95 5.85 2.65 7.15 3.4 8.0 3.75 8.05 3.75 8.15 4.1 Q8.15 4.45 6.75 5.2 5.25 6.0 4.25 6.0 3.35 6.0 3.35 5.25 3.5 4.65 4.1 4.5 L2.3 4.45" fill="#cca9a9" fill-rule="evenodd" stroke="none"/>
    <path d="M8.75 8.65 L7.15 8.5 6.3 8.4 6.8 8.45 6.65 8.35 4.85 7.1 2.5 4.9 2.3 4.95 2.2 5.15 Q2.2 5.55 3.3 6.85 L3.15 6.7 2.4 5.95 1.25 5.25 Q1.1 4.15 0.25 3.75 -0.85 3.25 -0.85 4.3 L-0.55 4.9 -0.05 4.85 -0.75 4.95 Q-1.2 5.1 -1.4 5.35 L-1.2 5.15 -3.1 4.3 -5.15 2.75 -6.65 0.7 -6.85 0.5 -4.8 -0.6 -4.15 0.25 -5.3 0.9 -5.35 1.0 Q-5.05 1.45 -4.5 1.55 L-4.45 1.65 Q-4.25 2.15 -3.1 2.3 L0.55 2.9 0.6 3.35 Q0.95 4.15 1.95 4.55 L2.05 4.55 2.3 4.45 4.1 4.5 Q3.5 4.65 3.35 5.25 3.35 6.0 4.25 6.0 5.25 6.0 6.75 5.2 8.15 4.45 8.15 4.1 L8.05 3.75 8.35 3.75 8.5 5.75 8.55 7.35 8.75 8.65 M-7.05 2.0 L-7.75 0.95 -7.65 0.9 -7.05 2.0" fill="#e0cbcb" fill-rule="evenodd" stroke="none"/>
    <path d="M6.3 8.4 L5.45 8.3 4.0 7.5 3.3 6.85 Q2.2 5.55 2.2 5.15 L2.3 4.95 2.5 4.9 4.85 7.1 6.65 8.35 6.8 8.45 6.3 8.4 M1.25 5.25 L0.9 5.05 0.85 5.05 -0.05 4.85 -0.55 4.9 -0.85 4.3 Q-0.85 3.25 0.25 3.75 1.1 4.15 1.25 5.25 M-1.4 5.35 L-1.6 5.6 Q-3.45 5.5 -4.85 4.15 L-5.8 3.35 -7.05 2.0 -7.65 0.9 -6.9 0.5 -6.85 0.5 -6.65 0.7 -5.15 2.75 -3.1 4.3 -1.2 5.15 -1.4 5.35" fill="#ffffff" fill-rule="evenodd" stroke="none"/>
  </g>
</svg>