<?xml version="1.0" encoding="UTF-8" standalone="no"?>
<svg xmlns:xlink="http://www.w3.org/1999/xlink" height="35.7px" width="29.95px" xmlns="http://www.w3.org/2000/svg">
  <g transform="matrix(1.0, 0.0, 0.0, 1.0, 14.15, 5.75)">
    <path d="M3.6 -1.4 L3.0 -1.55 0.7 -2.1 Q-4.0 -3.35 -6.7 -3.35 -9.7 -3.35 -10.6 -0.7 -11.05 0.65 -11.15 2.8 L-11.3 3.55 -11.35 3.65 -11.75 5.95 -12.05 9.3 -11.9 10.6 -11.6 12.7 -11.5 13.1 -11.35 14.0 -11.2 14.75 Q-10.3 18.85 -9.0 18.8 L-8.3 18.35 Q-8.05 18.05 -7.5 18.05 L-5.7 20.6 -3.15 24.05 -3.05 24.1 -2.9 24.1 -2.85 24.1 -2.8 24.0 -2.85 24.0 -2.55 23.55 -2.55 23.6 -1.9 23.45 0.5 24.35 0.85 24.5 3.55 25.5 3.6 25.55 Q9.15 27.5 10.55 27.5 L11.45 27.45 13.3 27.65 13.35 27.65 13.7 27.3 13.65 25.7 Q13.3 23.9 11.9 21.85 L10.55 20.05 Q7.1 15.9 7.1 13.65 7.1 11.9 7.55 10.25 7.85 9.2 8.25 8.5 8.65 7.8 9.2 7.4 L9.05 8.05 8.65 10.15 8.2 13.7 Q8.2 15.15 11.55 19.3 L11.7 19.5 Q14.65 23.2 14.8 26.7 L14.8 27.05 14.8 28.05 Q14.6 28.95 13.55 28.95 9.4 28.95 3.6 26.85 L-1.55 24.6 -1.6 24.6 -1.7 24.6 -1.8 24.7 -2.0 25.1 -3.05 25.35 Q-4.05 25.3 -5.9 22.6 -7.6 19.7 -7.85 19.6 -11.1 19.6 -11.95 17.75 L-12.4 14.65 -12.4 14.55 -12.4 14.5 -12.65 12.75 -12.7 12.2 -12.85 11.35 -13.0 9.9 -13.15 8.25 Q-13.15 6.45 -12.45 3.15 L-12.35 2.7 -12.35 2.65 Q-11.7 -0.3 -11.1 -1.55 L-11.1 -1.6 -10.9 -2.9 Q-10.75 -3.75 -10.15 -4.2 -8.2 -5.5 -1.25 -3.85 L5.1 -2.6 9.75 -1.5 9.2 -1.2 9.15 -1.2 8.55 -0.95 7.95 -0.9 7.8 -0.9 3.6 -1.4 M-9.1 9.2 L-9.15 9.05 -9.25 8.65 -9.35 8.0 -9.45 6.85 -9.25 5.55 -9.2 5.45 -8.8 3.8 Q-8.1 1.3 -7.55 0.95 L-7.55 1.0 -4.8 1.05 -4.75 1.05 -1.6 2.45 -0.4 2.7 1.2 2.95 1.6 3.05 2.25 3.15 5.65 3.85 5.35 4.0 5.35 4.05 5.35 4.1 3.75 4.2 2.25 4.2 0.15 3.9 -3.3 3.1 -3.4 3.1 -3.45 3.15 -3.55 3.25 -4.2 5.85 -4.6 9.0 -4.6 9.55 -4.55 9.9 -4.4 11.95 Q-4.25 13.1 -3.9 13.7 L-3.8 13.85 -3.8 13.9 -3.4 14.4 -3.3 14.45 -3.2 14.55 -2.95 14.9 -2.7 15.15 0.7 19.25 0.6 19.3 0.45 19.3 -0.05 19.25 Q-1.1 18.9 -2.4 17.35 L-3.95 15.1 -4.3 14.45 -4.4 14.2 -4.7 12.6 -4.85 11.85 -5.1 10.05 -5.2 9.3 -5.2 9.05 Q-5.15 7.2 -4.75 5.3 -4.4 3.75 -3.95 3.25 L-3.9 3.1 -3.9 3.0 -4.0 2.9 -4.05 2.9 -6.85 2.1 -6.9 2.1 Q-7.8 2.05 -8.65 5.95 L-8.7 6.1 -8.9 7.05 -8.9 7.1 -8.25 10.0 -7.8 11.2 -7.6 12.15 -8.95 9.65 -8.95 9.6 -9.1 9.2 M2.9 13.5 L2.75 14.2 2.5 15.45 2.6 15.95 3.5 17.1 5.1 18.5 5.15 18.55 6.0 19.9 6.15 20.1 6.4 20.55 6.15 20.4 5.75 20.05 5.55 19.95 3.8 18.6 Q1.85 17.05 1.75 15.9 L1.75 15.85 1.9 15.35 2.0 14.85 2.4 13.2 2.7 11.7 2.75 11.45 2.55 10.9 2.2 10.4 1.75 9.75 1.95 9.65 2.0 9.65 2.55 10.05 3.15 10.65 3.3 11.6 3.25 12.15 2.95 13.25 2.9 13.5 M9.35 7.2 L9.3 7.1 9.4 7.15 9.35 7.2 M9.3 7.3 L9.2 7.4 9.2 7.2 9.25 7.15 9.35 7.25 9.3 7.3" fill="#a36a6a" fill-rule="evenodd" stroke="none"/>
    <path d="M-11.35 14.0 L-11.5 13.1 -11.6 12.7 -11.9 10.6 -12.05 9.3 -11.75 5.95 -11.35 3.65 -11.3 3.55 -11.15 2.8 Q-11.05 0.65 -10.6 -0.7 -9.7 -3.35 -6.7 -3.35 -4.0 -3.35 0.7 -2.1 L3.0 -1.55 3.6 -1.4 4.4 -0.7 Q5.0 0.0 5.0 0.55 5.0 3.0 2.0 3.0 L1.65 3.0 1.6 3.05 1.2 2.95 -0.4 2.7 -1.6 2.45 -4.75 1.05 -4.8 1.05 -7.55 1.0 -7.55 0.95 Q-8.1 1.3 -8.8 3.8 L-9.2 5.45 -9.25 5.55 -9.45 6.85 -9.35 8.0 -9.25 8.65 -9.15 9.05 -9.1 9.2 -9.2 9.2 -8.75 12.35 -8.7 12.6 -8.7 13.35 Q-8.9 14.3 -9.9 14.3 L-10.0 14.3 -11.35 14.0 M3.0 13.5 L2.9 13.5 2.95 13.25 3.0 13.5 M6.0 19.9 Q6.85 19.35 7.55 19.35 8.2 19.35 9.45 19.9 L10.65 20.75 Q10.65 21.35 6.2 22.25 L3.8 22.65 2.25 22.9 1.0 23.1 Q-1.65 23.1 -2.8 20.65 L-2.9 20.3 -2.55 20.5 -2.55 20.3 -3.0 19.9 -3.8 17.2 -0.85 19.25 0.65 20.3 2.9 21.8 3.2 21.9 4.95 20.65 5.6 20.15 5.75 20.05 6.15 20.4 6.4 20.55 6.15 20.1 6.0 19.9 M0.05 14.6 L0.25 15.15 0.8 16.85 0.65 16.85 -0.3 16.15 Q-0.8 15.85 -0.8 15.35 L-0.75 15.15 -0.3 13.7 -0.2 13.45 -0.15 13.65 0.05 14.6 M-0.2 13.45 L-0.2 13.35 Q-0.2 12.7 0.25 12.3 L-0.15 13.35 -0.2 13.45" fill="#f2eaea" fill-rule="evenodd" stroke="none"/>
    <path d="M-8.7 12.6 L-8.75 12.35 -9.2 9.2 -9.1 9.2 -8.95 9.6 -8.95 9.65 -7.6 12.15 -7.8 11.2 -8.25 10.0 -8.9 7.1 -8.9 7.05 -8.7 6.1 -8.65 5.95 Q-7.8 2.05 -6.9 2.1 L-6.85 2.1 -4.05 2.9 -4.0 2.9 -3.9 3.0 -3.9 3.1 -3.95 3.25 Q-4.4 3.75 -4.75 5.3 -5.15 7.2 -5.2 9.05 L-5.2 9.3 -5.35 9.35 -5.4 9.1 -5.5 8.75 Q-6.1 6.6 -6.2 4.7 L-6.65 7.7 -6.7 7.95 -6.75 8.35 -7.2 12.4 -7.15 13.1 Q-7.05 14.2 -6.5 15.0 L-6.35 15.15 -5.75 15.85 -5.6 16.05 -4.35 17.85 -4.1 18.35 -3.0 19.9 -2.55 20.3 -2.55 20.5 -2.9 20.3 -4.1 19.35 -7.05 16.65 -7.65 15.9 -8.05 14.9 -8.55 13.2 -8.7 12.6 M11.9 21.85 Q13.3 23.9 13.65 25.7 L13.7 27.3 13.35 27.65 13.3 27.65 11.45 27.45 10.55 27.5 Q9.15 27.5 3.6 25.55 L3.55 25.5 0.85 24.5 0.5 24.35 0.65 24.3 1.75 24.1 2.8 23.9 4.05 23.75 5.0 23.65 5.7 23.6 6.6 23.6 9.0 23.6 9.3 23.6 11.05 23.45 Q12.0 23.3 12.0 22.95 L11.9 21.85 M3.75 4.2 L4.3 4.6 Q5.4 5.55 5.4 6.8 L4.4 10.25 Q3.8 11.95 3.55 13.15 L3.35 14.55 3.15 14.55 3.05 13.8 3.0 13.5 2.95 13.25 3.25 12.15 3.3 11.6 3.15 10.65 2.55 10.05 2.0 9.65 1.95 9.65 0.9 7.95 0.0 5.9 Q-0.9 7.75 -2.25 9.8 L-2.8 11.15 -2.9 11.45 -3.15 13.8 -3.0 14.65 -2.95 14.9 -3.2 14.55 -3.3 14.45 -3.4 14.4 -3.4 14.35 -4.4 11.95 -4.55 9.9 -4.6 9.55 -4.6 9.0 -4.2 5.85 -3.55 3.25 -3.45 3.15 -3.4 3.1 -3.3 3.1 0.15 3.9 2.25 4.2 3.75 4.2" fill="#cca9a9" fill-rule="evenodd" stroke="none"/>
    <path d="M-11.35 14.0 L-10.0 14.3 -9.9 14.3 Q-8.9 14.3 -8.7 13.35 L-8.7 12.6 -8.55 13.2 -8.05 14.9 -7.65 15.9 -7.05 16.65 -4.1 19.35 -2.9 20.3 -2.8 20.65 Q-1.65 23.1 1.0 23.1 L2.25 22.9 3.8 22.65 6.2 22.25 Q10.65 21.35 10.65 20.75 L9.45 19.9 Q8.2 19.35 7.55 19.35 6.85 19.35 6.0 19.9 L5.15 18.55 5.1 18.5 3.5 17.1 2.6 15.95 2.5 15.45 2.75 14.2 2.9 13.5 3.0 13.5 3.05 13.8 3.15 14.55 3.35 14.55 3.55 13.15 Q3.8 11.95 4.4 10.25 L5.4 6.8 Q5.4 5.55 4.3 4.6 L3.75 4.2 5.35 4.1 5.35 4.0 5.65 3.85 2.25 3.15 1.6 3.05 1.65 3.0 2.0 3.0 Q5.0 3.0 5.0 0.55 5.0 0.0 4.4 -0.7 L3.6 -1.4 7.8 -0.9 7.95 -0.9 8.55 -0.95 Q10.0 0.2 10.45 1.65 10.8 2.65 10.8 5.1 L9.05 8.05 9.2 7.4 Q8.65 7.8 8.25 8.5 7.85 9.2 7.55 10.25 7.1 11.9 7.1 13.65 7.1 15.9 10.55 20.05 L11.9 21.85 12.0 22.95 Q12.0 23.3 11.05 23.45 L9.3 23.6 9.0 23.6 6.6 23.6 5.7 23.6 5.0 23.65 4.05 23.75 2.8 23.9 1.75 24.1 0.65 24.3 0.5 24.35 -1.9 23.45 -2.55 23.6 -2.55 23.55 -2.85 24.0 -2.8 24.0 -2.85 24.1 -2.9 24.1 -3.05 24.1 -3.15 24.05 -5.7 20.6 -7.5 18.05 Q-8.05 18.05 -8.3 18.35 L-9.0 18.8 Q-10.3 18.85 -11.2 14.75 L-11.35 14.0 M-4.4 11.95 L-3.4 14.35 -3.4 14.4 -3.8 13.9 -3.8 13.85 -3.9 13.7 Q-4.25 13.1 -4.4 11.95 M-2.95 14.9 L-3.0 14.65 -3.15 13.8 -2.9 11.45 -2.8 11.15 -2.25 9.8 Q-0.9 7.75 0.0 5.9 L0.9 7.95 1.95 9.65 1.75 9.75 2.2 10.4 2.55 10.9 2.75 11.45 2.7 11.7 2.4 13.2 2.0 14.85 1.9 15.35 1.75 15.85 1.75 15.9 Q1.85 17.05 3.8 18.6 L5.55 19.95 5.75 20.05 5.6 20.15 4.95 20.65 3.2 21.9 2.9 21.8 0.65 20.3 -0.85 19.25 -3.8 17.2 -3.0 19.9 -4.1 18.35 -4.35 17.85 -5.6 16.05 -5.75 15.85 -6.35 15.15 -6.5 15.0 Q-7.05 14.2 -7.15 13.1 L-7.2 12.4 -6.75 8.35 -6.7 7.95 -6.65 7.7 -6.2 4.7 Q-6.1 6.6 -5.5 8.75 L-5.4 9.1 -5.35 9.35 -5.2 9.3 -5.1 10.05 -4.85 11.85 -4.7 12.6 -4.4 14.2 -4.3 14.45 -3.95 15.1 -2.4 17.35 Q-1.1 18.9 -0.05 19.25 L0.45 19.3 0.6 19.3 0.7 19.25 -2.7 15.15 -2.95 14.9 M9.35 7.2 L9.4 7.15 9.3 7.1 9.35 7.2 M9.3 7.3 L9.35 7.25 9.25 7.15 9.2 7.2 9.2 7.4 9.3 7.3 M0.05 14.6 L-0.15 13.65 -0.2 13.45 -0.3 13.7 -0.75 15.15 -0.8 15.35 Q-0.8 15.85 -0.3 16.15 L0.65 16.85 0.8 16.85 0.25 15.15 0.05 14.6 M-0.2 13.45 L-0.15 13.35 0.25 12.3 Q-0.2 12.7 -0.2 13.35 L-0.2 13.45" fill="#e0cbcb" fill-rule="evenodd" stroke="none"/>
    <path d="M-1.7 24.6 L-1.6 24.6" fill="none" stroke="#ff0000" stroke-linecap="round" stroke-linejoin="round" stroke-width="1"/>
  </g>
</svg>