<?xml version="1.0" encoding="UTF-8" standalone="no"?>
<svg xmlns:xlink="http://www.w3.org/1999/xlink" height="27.8px" width="31.1px" xmlns="http://www.w3.org/2000/svg">
  <g transform="matrix(1.0, 0.0, 0.0, 1.0, 18.1, 6.25)">
    <path d="M8.85 -4.4 L8.6 -4.35 8.1 -4.2 7.5 -4.05 0.85 -2.0 -3.0 -0.2 -6.35 1.65 -6.65 1.85 -7.05 2.05 -7.75 2.7 -10.3 5.1 -11.85 6.6 -12.45 7.2 -12.55 7.3 -13.4 8.15 -15.5 10.55 -16.05 11.65 -14.9 12.05 Q-13.65 12.3 -13.25 12.8 L-11.5 14.3 Q-8.4 14.3 -7.95 15.1 -7.15 16.5 -6.35 16.9 -5.55 17.25 -4.1 18.55 -2.45 19.7 0.15 19.7 L1.2 19.25 4.55 18.7 5.9 17.3 6.1 17.1 6.75 16.4 7.3 15.8 8.65 14.4 9.95 11.6 10.7 10.15 10.75 9.45 10.85 9.2 11.2 8.9 11.55 8.8 Q12.0 8.8 12.0 9.3 L12.0 9.35 Q11.95 11.4 9.2 15.35 L7.8 16.9 6.4 18.35 5.65 19.25 4.8 19.85 -0.4 20.55 Q-3.0 20.55 -4.4 19.7 L-6.3 18.05 -7.9 16.35 Q-9.35 15.05 -10.55 15.05 L-11.1 15.2 -11.8 15.35 Q-12.15 15.35 -13.1 14.55 L-14.1 13.6 Q-14.55 13.0 -15.9 12.65 -17.1 12.35 -17.1 11.95 L-16.25 10.25 -14.05 7.65 -13.3 6.9 -13.15 6.7 -12.35 5.95 -11.05 4.65 -8.65 2.3 -7.1 1.15 -7.05 1.1 -6.9 1.0 -3.65 -0.9 -1.4 -2.05 Q4.85 -5.25 8.1 -5.25 L9.3 -5.15 9.5 -4.8 8.85 -4.4 M10.1 4.6 Q10.1 5.05 8.1 5.65 L6.45 6.05 5.0 6.3 4.25 6.5 2.4 6.75 1.5 6.8 1.5 7.95 1.45 8.4 Q1.3 9.35 1.85 10.3 2.05 10.7 2.85 10.9 L3.15 10.95 4.7 11.15 4.9 11.2 5.8 11.3 6.25 11.3 Q7.15 11.35 7.15 11.65 L7.0 11.75 6.15 11.75 5.15 11.75 2.3 11.2 1.75 10.9 1.35 10.6 1.3 10.5 Q0.7 9.8 0.7 8.6 L0.95 6.8 -1.9 6.8 -2.35 6.8 -2.4 6.8 -2.75 7.35 -2.9 7.55 -3.45 8.35 Q-4.1 9.4 -4.2 10.2 L-4.25 10.55 -4.2 10.65 -4.15 10.8 -4.05 11.05 -3.95 11.35 -3.8 11.75 -3.65 12.85 -3.8 13.4 -3.95 13.5 Q-4.95 11.5 -4.95 10.7 L-4.9 10.35 -4.85 10.15 -4.25 8.85 -3.9 8.2 -3.25 7.3 -3.0 7.05 -2.85 6.85 -2.8 6.8 -2.9 6.8 -3.15 6.85 -3.65 6.95 -4.15 7.05 -5.55 7.35 -7.3 7.6 -9.45 8.4 -10.15 8.8 -10.25 8.9 -10.75 9.3 -11.25 9.75 -12.3 10.8 -12.7 11.2 -12.75 11.15 -12.85 10.85 -11.75 9.5 -11.65 9.45 -11.1 8.9 -10.55 8.45 -10.4 8.3 -10.1 8.15 -8.65 7.25 -7.95 7.0 -6.15 6.65 -4.55 6.2 -3.8 6.0 -3.65 5.95 -3.55 5.9 -3.1 5.8 1.5 5.45 4.95 5.3 8.45 4.5 10.1 4.6 M9.7 9.95 L9.8 9.95 Q9.6 11.2 7.65 14.15 L6.6 15.45 6.55 15.55 Q5.95 16.05 5.15 16.2 L4.95 16.2 0.85 16.9 -1.75 17.25 Q-3.8 17.25 -5.05 16.55 L-6.45 15.7 -6.35 15.6 -5.25 16.3 -3.25 16.75 -0.15 16.25 1.35 15.6 Q2.05 15.1 4.0 15.15 L4.25 15.15 Q5.45 15.1 6.2 14.5 L6.3 14.4 6.45 14.3 6.65 14.0 9.7 9.95" fill="#a36a6a" fill-rule="evenodd" stroke="none"/>
    <path d="M-7.75 2.7 L-7.05 2.05 -6.65 1.85 -6.35 1.65 -3.0 -0.2 0.85 -2.0 7.5 -4.05 8.1 -4.2 8.6 -4.35 8.85 -4.4 Q9.4 -3.55 9.3 -1.8 9.25 -1.05 9.7 -0.05 L10.6 1.7 10.95 2.95 11.0 3.05 10.15 3.15 7.45 2.85 4.3 2.55 Q2.85 2.55 -0.15 3.25 L-1.6 3.55 -4.4 4.2 -5.0 4.3 -6.85 4.55 -7.8 4.45 -7.95 3.65 -7.75 2.7 M2.85 13.55 L0.95 14.45 0.75 14.55 0.15 14.8 -1.4 15.35 -1.55 15.35 -1.95 15.4 -2.9 15.3 -2.8 15.0 -2.75 14.85 -2.25 14.3 -1.75 14.2 -1.2 13.95 0.2 13.2 0.6 13.05 1.15 12.85 2.2 12.75 2.3 12.75 3.4 13.15 2.9 13.5 2.85 13.55 M-9.75 12.15 L-5.4 9.75 -4.95 9.75 -5.05 9.95 -5.15 10.25 Q-5.7 11.65 -5.65 13.3 L-5.65 14.05 -5.65 14.1 -6.5 14.1 Q-6.7 13.8 -8.3 13.45 -9.4 13.2 -9.7 12.6 L-9.85 12.15 -9.75 12.15" fill="#f2eaea" fill-rule="evenodd" stroke="none"/>
    <path d="M6.45 6.05 L5.7 6.95 5.3 7.75 Q4.95 8.55 4.95 9.35 L5.05 10.05 5.3 10.65 5.8 11.3 4.9 11.2 4.7 11.15 3.15 10.95 2.85 10.9 Q2.05 10.7 1.85 10.3 1.3 9.35 1.45 8.4 L1.5 7.95 1.5 6.8 2.4 6.75 4.25 6.5 5.0 6.3 6.45 6.05 M1.3 10.5 L1.1 10.4 1.0 10.35 0.15 9.8 0.0 9.7 Q-1.2 8.75 -1.55 7.6 L-2.25 8.05 Q-2.9 8.6 -3.35 9.8 L-3.65 10.85 -3.8 11.75 -3.95 11.35 -4.05 11.05 -4.15 10.8 -4.2 10.65 -4.2 10.2 Q-4.1 9.4 -3.45 8.35 L-2.9 7.55 -2.75 7.35 -2.4 6.8 -2.35 6.8 -1.9 6.8 0.95 6.8 0.7 8.6 Q0.7 9.8 1.3 10.5 M-4.25 8.85 L-4.5 8.8 -7.35 9.3 -8.65 9.75 Q-9.55 10.1 -10.1 10.5 -11.2 11.2 -11.2 11.95 L-11.2 12.1 Q-11.1 12.75 -9.75 13.5 L-9.75 13.6 -11.2 12.8 -12.25 11.7 -12.4 11.2 -12.4 10.95 -12.3 10.8 -11.25 9.75 -10.75 9.3 -10.25 8.9 -10.15 8.8 -9.45 8.4 -7.3 7.6 -5.55 7.35 -4.15 7.05 -3.65 6.95 -3.15 6.85 -2.9 6.8 -2.85 6.85 -3.0 7.05 -3.25 7.3 -3.9 8.2 -4.25 8.85" fill="#cca9a9" fill-rule="evenodd" stroke="none"/>
    <path d="M-7.75 2.7 L-7.95 3.65 -7.8 4.45 -6.85 4.55 -5.0 4.3 -4.4 4.2 -1.6 3.55 -0.15 3.25 Q2.85 2.55 4.3 2.55 L7.45 2.85 10.15 3.15 11.0 3.05 11.45 5.35 12.0 8.8 12.0 9.35 12.0 9.3 Q12.0 8.8 11.55 8.8 L11.2 8.9 Q10.95 8.95 10.85 9.25 L10.85 9.2 10.75 9.45 10.7 10.15 9.95 11.6 8.65 14.4 7.3 15.8 6.75 16.4 6.1 17.1 5.9 17.3 4.55 18.7 1.2 19.25 0.15 19.7 Q-2.45 19.7 -4.1 18.55 -5.55 17.25 -6.35 16.9 -7.15 16.5 -7.95 15.1 -8.4 14.3 -11.5 14.3 L-13.25 12.8 Q-13.65 12.3 -14.9 12.05 L-16.05 11.65 -15.5 10.55 -13.4 8.15 -12.55 7.3 -12.45 7.2 -11.85 6.6 -10.3 5.1 -7.75 2.7 M10.1 4.6 L10.15 4.6 10.15 4.55 10.1 4.6 8.45 4.5 4.95 5.3 1.5 5.45 -3.1 5.8 -3.55 5.9 -3.65 5.95 -3.8 6.0 -4.55 6.2 -6.15 6.65 -7.95 7.0 -8.65 7.25 -10.1 8.15 -10.4 8.3 -10.55 8.45 -11.1 8.9 -11.65 9.45 -11.75 9.5 -12.85 10.85 -12.75 11.15 -12.7 11.2 -12.3 10.8 -12.4 10.95 -12.4 11.2 -12.25 11.7 -11.2 12.8 -9.75 13.6 -9.75 13.5 Q-11.1 12.75 -11.2 12.1 L-11.2 11.95 Q-11.2 11.2 -10.1 10.5 -9.55 10.1 -8.65 9.75 L-7.35 9.3 -4.5 8.8 -4.25 8.85 -4.85 10.15 -4.9 10.35 -4.95 10.7 Q-4.95 11.5 -3.95 13.5 L-3.8 13.4 -3.65 12.85 -3.8 11.75 -3.65 10.85 -3.35 9.8 Q-2.9 8.6 -2.25 8.05 L-1.55 7.6 Q-1.2 8.75 0.0 9.7 L0.15 9.8 1.0 10.35 1.1 10.4 1.3 10.5 1.35 10.6 1.75 10.9 2.3 11.2 5.15 11.75 6.15 11.75 7.0 11.75 7.15 11.65 Q7.15 11.35 6.25 11.3 L5.8 11.3 5.3 10.65 5.05 10.05 4.95 9.35 Q4.95 8.55 5.3 7.75 L5.7 6.95 6.45 6.05 8.1 5.65 Q10.1 5.05 10.1 4.6 M-4.2 10.2 L-4.2 10.65 -4.15 10.8 -4.2 10.65 -4.25 10.55 -4.2 10.2 M9.7 9.95 L6.65 14.0 6.45 14.3 6.3 14.4 6.2 14.5 Q5.45 15.1 4.25 15.15 L4.0 15.15 Q2.05 15.1 1.35 15.6 L-0.15 16.25 -3.25 16.75 -5.25 16.3 -6.35 15.6 -6.45 15.7 -5.05 16.55 Q-3.8 17.25 -1.75 17.25 L0.85 16.9 4.95 16.2 5.15 16.2 Q5.95 16.05 6.55 15.55 L6.6 15.45 7.65 14.15 Q9.6 11.2 9.8 9.95 L9.7 9.95 M2.85 13.55 L2.9 13.5 3.4 13.15 2.3 12.75 2.2 12.75 1.15 12.85 0.6 13.05 0.2 13.2 -1.2 13.95 -1.75 14.2 -2.25 14.3 -2.75 14.85 -2.8 15.0 -2.9 15.3 -1.95 15.4 -1.55 15.35 -1.4 15.35 0.15 14.8 0.75 14.55 0.95 14.45 2.85 13.55 M-9.75 12.15 L-9.85 12.15 -9.7 12.6 Q-9.4 13.2 -8.3 13.45 -6.7 13.8 -6.5 14.1 L-5.65 14.1 -5.65 14.05 -5.65 13.3 Q-5.7 11.65 -5.15 10.25 L-5.05 9.95 -4.95 9.75 -5.4 9.75 -9.75 12.15" fill="#e0cbcb" fill-rule="evenodd" stroke="none"/>
  </g>
</svg>