<?xml version="1.0" encoding="UTF-8" standalone="no"?>
<svg xmlns:xlink="http://www.w3.org/1999/xlink" height="15.8px" width="22px" xmlns="http://www.w3.org/2000/svg">
  <g transform="matrix(1.0, 0.0, 0.0, 1.0, 11, 7.9)">
    <path d="M-3.55 -6.9 Q-1.6 -6.9 1.45 -5.9 3.95 -5.05 4.6 -4.6 6.0 -3.55 10.0 -1.35 10.0 -0.95 9.55 -0.9 L5.85 -0.8 6.0 -0.7 6.95 0.75 Q6.95 1.2 6.1 1.2 L4.15 0.85 4.15 0.9 4.35 2.1 Q4.35 2.8 1.8 4.75 -1.0 6.9 -3.0 6.9 -7.05 6.9 -8.9 3.35 -10.0 1.25 -10.0 -0.8 -10.0 -2.15 -9.45 -3.8 L-8.9 -5.4 -9.25 -5.8 Q-9.25 -6.1 -7.85 -6.45 L-3.55 -6.9 M-2.95 -5.85 L-7.05 -5.65 Q-7.85 -5.55 -7.85 -4.95 -7.8 -4.65 -8.35 -3.6 L-8.7 -2.15 -8.9 -0.9 Q-8.9 1.15 -7.65 3.1 -6.0 5.75 -2.9 5.75 -1.0 5.75 1.15 4.05 L3.4 2.05 3.0 0.35 3.05 0.0 Q3.15 -0.35 3.6 -0.35 L5.35 0.1 4.85 -0.5 4.4 -1.35 Q4.4 -2.05 7.0 -1.7 5.4 -3.1 3.05 -4.05 0.95 -4.9 -2.95 -5.85" fill="#a36a6a" fill-rule="evenodd" stroke="none"/>
    <path d="M-2.95 -5.85 Q0.95 -4.9 3.05 -4.05 5.4 -3.1 7.0 -1.7 4.4 -2.05 4.4 -1.35 L4.85 -0.5 5.35 0.1 3.6 -0.35 Q3.15 -0.35 3.05 0.0 L3.0 0.35 3.4 2.05 1.15 4.05 Q-1.0 5.75 -2.9 5.75 -6.0 5.75 -7.65 3.1 -8.9 1.15 -8.9 -0.9 L-8.7 -2.15 -8.35 -3.6 Q-7.8 -4.65 -7.85 -4.95 -7.85 -5.55 -7.05 -5.65 L-2.95 -5.85" fill="#e0cbcb" fill-rule="evenodd" stroke="none"/>
  </g>
</svg>