<?xml version="1.0" encoding="UTF-8" standalone="no"?>
<svg xmlns:xlink="http://www.w3.org/1999/xlink" height="60.1px" width="79.95px" xmlns="http://www.w3.org/2000/svg">
  <g transform="matrix(1.0, 0.0, 0.0, 1.0, 14.5, 34.5)">
    <path d="M54.9 -26.55 L52.0 -29.2 Q52.75 -29.1 53.9 -28.3 55.1 -27.5 55.1 -26.95 L54.9 -26.55 M53.05 -26.95 Q53.75 -26.65 54.25 -25.75 L54.7 -24.45 54.65 -24.3 54.45 -24.35 Q53.85 -26.2 52.8 -26.85 L53.05 -26.95 M4.55 -1.2 L3.6 -2.0 3.75 -2.15 Q4.4 -2.2 5.1 -1.6 L6.0 -0.6 5.65 -0.5 Q5.35 -0.5 4.55 -1.2 M1.35 -2.75 Q0.85 -2.75 0.1 -3.65 L-0.75 -4.9 Q0.1 -4.7 1.6 -2.95 L1.55 -2.8 1.35 -2.75 M58.35 -25.7 Q59.65 -24.15 60.55 -22.35 L61.6 -19.9 62.15 -18.05 62.2 -17.85 62.1 -18.05 62.35 -17.3 62.4 -17.05 62.4 -17.1 62.45 -16.7 62.1 -17.8 62.45 -16.45 62.5 -12.3 Q62.65 -9.0 62.05 -6.85 L61.45 -5.1 60.4 -2.65 59.65 -1.15 58.0 1.8 59.95 -0.55 60.45 -1.15 60.7 -1.45 60.55 -1.15 Q59.55 0.9 57.25 3.3 L50.55 9.9 49.45 11.2 49.35 11.1 50.2 9.1 Q47.15 12.35 43.05 13.85 38.35 15.6 33.2 16.5 L36.05 16.65 38.15 16.7 36.05 17.35 29.9 18.0 Q19.35 18.0 12.4 15.3 9.55 14.2 -2.15 7.5 L1.85 8.75 6.35 9.65 7.5 9.5 7.5 9.35 Q-1.9 4.45 -6.3 -1.3 L-8.9 -5.2 -10.65 -7.45 -10.6 -7.55 Q-9.7 -8.75 -8.6 -9.3 -7.1 -5.35 -0.95 0.5 6.5 7.6 14.15 11.1 L13.65 11.1 11.4 10.5 9.55 9.9 Q13.95 13.3 18.95 14.4 L30.6 16.45 31.1 16.45 31.1 16.35 28.05 14.4 30.35 14.7 34.85 14.55 40.5 13.15 Q43.45 12.1 46.05 10.45 L50.15 7.65 51.4 6.7 52.65 5.7 Q55.7 2.9 57.1 -0.8 L56.7 1.95 56.8 1.95 57.85 -1.15 58.45 -3.4 58.75 -5.1 Q59.25 -8.3 59.35 -12.85 L59.45 -12.85 59.85 -11.25 60.2 -10.0 60.2 -10.1 60.4 -14.95 60.2 -18.05 59.9 -19.9 59.9 -19.95 59.3 -22.35 58.35 -25.7 M32.55 12.05 L34.25 12.3 35.5 12.1 36.0 12.3 35.95 12.45 35.25 12.9 33.95 13.0 Q31.95 13.0 31.95 12.4 31.95 11.95 32.55 12.05 M33.5 11.1 L34.2 11.4 33.45 11.6 32.6 11.5 32.4 11.25 32.55 11.05 33.5 11.1" fill="#e3d2a3" fill-rule="evenodd" stroke="none"/>
    <path d="M1.35 -2.75 L1.55 -2.8 1.6 -2.95 Q0.1 -4.7 -0.75 -4.9 L0.1 -3.65 Q0.85 -2.75 1.35 -2.75 M4.55 -1.2 Q5.35 -0.5 5.65 -0.5 L6.0 -0.6 5.1 -1.6 Q4.4 -2.2 3.75 -2.15 L3.6 -2.0 4.55 -1.2 M53.05 -26.95 L52.8 -26.85 Q53.85 -26.2 54.45 -24.35 L54.65 -24.3 54.7 -24.45 54.25 -25.75 Q53.75 -26.65 53.05 -26.95 M54.9 -26.55 L55.1 -26.95 Q55.1 -27.5 53.9 -28.3 52.75 -29.1 52.0 -29.2 L54.9 -26.55 M-8.6 -9.3 L-5.0 -9.55 Q0.45 -8.2 4.5 -4.2 9.8 0.8 16.4 4.45 22.55 8.0 29.7 8.2 37.3 9.05 44.2 5.95 49.3 3.6 52.35 -1.15 53.2 -2.45 53.85 -3.9 L54.4 -5.1 55.05 -6.8 Q57.3 -12.5 55.5 -18.05 L54.75 -19.9 54.5 -20.4 53.45 -22.35 Q50.45 -27.15 45.15 -29.55 41.35 -31.35 37.2 -31.5 43.15 -32.7 48.8 -31.45 53.9 -30.5 57.45 -26.75 L58.35 -25.7 59.3 -22.35 59.9 -19.95 59.9 -19.9 60.2 -18.05 60.4 -14.95 60.2 -10.1 60.2 -10.0 59.85 -11.25 59.45 -12.85 59.35 -12.85 Q59.25 -8.3 58.75 -5.1 L58.45 -3.4 57.85 -1.15 56.8 1.95 56.7 1.95 57.1 -0.8 Q55.7 2.9 52.65 5.7 L51.4 6.7 51.9 5.7 51.75 5.7 50.0 7.5 50.15 7.65 46.05 10.45 Q43.45 12.1 40.5 13.15 L34.85 14.55 30.35 14.7 28.05 14.4 31.1 16.35 31.1 16.45 30.6 16.45 18.95 14.4 Q13.95 13.3 9.55 9.9 L11.4 10.5 13.65 11.1 14.15 11.1 Q6.5 7.6 -0.95 0.5 -7.1 -5.35 -8.6 -9.3 M62.1 -17.8 L62.5 -16.4 62.45 -16.45 62.1 -17.8 M55.4 -25.65 Q56.15 -24.4 57.0 -24.0 L57.05 -24.4 56.55 -25.1 55.4 -25.65 M50.1 6.15 L48.3 7.5 48.3 7.65 48.55 7.65 Q49.0 7.65 49.6 7.0 L50.15 6.15 50.1 6.15 M49.45 11.2 L49.35 11.25 49.35 11.1 49.45 11.2 M33.5 11.1 L32.55 11.05 32.4 11.25 32.6 11.5 33.45 11.6 34.2 11.4 33.5 11.1 M32.55 12.05 Q31.95 11.95 31.95 12.4 31.95 13.0 33.95 13.0 L35.25 12.9 35.95 12.45 36.0 12.3 35.5 12.1 34.25 12.3 32.55 12.05 M12.9 7.1 L11.55 6.45 Q11.95 7.2 14.1 7.95 13.95 7.65 12.9 7.1 M16.5 6.85 Q14.15 4.55 12.8 4.2 13.9 5.8 16.35 7.05 16.5 7.25 16.5 6.85" fill="#ffffcc" fill-rule="evenodd" stroke="none"/>
    <path d="M58.35 -25.7 L57.45 -26.75 Q53.9 -30.5 48.8 -31.45 43.15 -32.7 37.2 -31.5 41.35 -31.35 45.15 -29.55 50.45 -27.15 53.45 -22.35 L54.5 -20.4 54.75 -19.9 55.5 -18.05 Q57.3 -12.5 55.05 -6.8 L54.4 -5.1 53.85 -3.9 Q53.2 -2.45 52.35 -1.15 49.3 3.6 44.2 5.95 37.3 9.05 29.7 8.2 22.55 8.0 16.4 4.45 9.8 0.8 4.5 -4.2 0.45 -8.2 -5.0 -9.55 L-8.6 -9.3 Q-9.7 -8.75 -10.6 -7.55 L-10.65 -7.45 Q-13.9 -2.8 -11.5 2.15 -7.95 9.55 -1.3 14.4 7.7 20.85 18.85 22.8 26.9 24.15 34.8 22.15 40.4 20.65 45.75 18.2 47.6 17.4 49.2 16.2 56.0 11.3 59.75 3.55 60.9 1.2 61.65 -1.15 L62.6 -5.1 Q63.55 -10.65 62.5 -16.4 L62.1 -17.8 62.45 -16.7 62.4 -17.1 62.4 -17.05 62.35 -17.3 62.1 -18.05 62.2 -17.85 62.15 -18.05 61.6 -19.9 60.55 -22.35 Q59.65 -24.15 58.35 -25.7 M50.15 7.65 L50.0 7.5 51.75 5.7 51.9 5.7 51.4 6.7 50.15 7.65 M55.4 -29.75 Q56.75 -28.85 57.9 -27.75 60.4 -25.4 62.0 -22.35 L63.0 -19.9 63.3 -19.0 63.55 -18.1 63.6 -18.05 Q65.25 -11.7 63.7 -5.25 L63.7 -5.1 62.55 -1.15 Q60.9 3.8 58.3 8.25 54.65 14.45 48.7 17.95 42.75 21.45 36.6 23.2 30.4 24.9 24.0 24.5 17.0 23.8 10.15 22.0 3.4 20.15 -1.95 15.65 -7.5 10.95 -11.45 4.9 -15.25 -0.85 -12.0 -6.85 L-11.25 -8.0 Q-10.2 -9.45 -8.85 -10.1 -6.55 -11.3 -3.35 -10.05 3.2 -7.55 8.05 -2.6 12.0 0.5 16.15 2.9 19.15 4.65 22.6 5.85 26.45 7.2 30.65 7.1 35.8 7.65 40.9 6.2 44.5 5.3 47.25 2.95 49.45 1.05 51.15 -1.15 L52.35 -2.85 53.65 -5.1 Q56.75 -11.35 54.25 -18.05 L53.5 -19.9 53.45 -19.95 52.05 -22.35 Q49.6 -25.95 45.65 -27.95 40.65 -30.4 34.95 -30.6 37.75 -33.35 41.95 -33.45 49.35 -33.8 55.4 -29.75 M55.4 -25.65 L56.55 -25.1 57.05 -24.4 57.0 -24.0 Q56.15 -24.4 55.4 -25.65 M50.1 6.15 L50.15 6.15 49.6 7.0 Q49.0 7.65 48.55 7.65 L48.3 7.65 48.3 7.5 50.1 6.15 M16.5 6.85 Q16.5 7.25 16.35 7.05 13.9 5.8 12.8 4.2 14.15 4.55 16.5 6.85 M12.9 7.1 Q13.95 7.65 14.1 7.95 11.95 7.2 11.55 6.45 L12.9 7.1" fill="#885f55" fill-rule="evenodd" stroke="none"/>
    <path d="M62.5 -16.4 Q63.55 -10.65 62.6 -5.1 L61.65 -1.15 Q60.9 1.2 59.75 3.55 56.0 11.3 49.2 16.2 47.6 17.4 45.75 18.2 40.4 20.65 34.8 22.15 26.9 24.15 18.85 22.8 7.7 20.85 -1.3 14.4 -7.95 9.55 -11.5 2.15 -13.9 -2.8 -10.65 -7.45 L-8.9 -5.2 -6.3 -1.3 Q-1.9 4.45 7.5 9.35 L7.5 9.5 6.35 9.65 1.85 8.75 -2.15 7.5 Q9.55 14.2 12.4 15.3 19.35 18.0 29.9 18.0 L36.05 17.35 38.15 16.7 36.05 16.65 33.2 16.5 Q38.35 15.6 43.05 13.85 47.15 12.35 50.2 9.1 L49.35 11.1 49.35 11.25 49.45 11.2 50.55 9.9 57.25 3.3 Q59.55 0.9 60.55 -1.15 L60.7 -1.45 60.45 -1.15 59.95 -0.55 58.0 1.8 59.65 -1.15 60.4 -2.65 61.45 -5.1 62.05 -6.85 Q62.65 -9.0 62.5 -12.3 L62.45 -16.45 62.5 -16.4" fill="#c9a97a" fill-rule="evenodd" stroke="none"/>
  </g>
</svg>