<?xml version="1.0" encoding="UTF-8" standalone="no"?>
<svg xmlns:xlink="http://www.w3.org/1999/xlink" height="17.55px" width="11.65px" xmlns="http://www.w3.org/2000/svg">
  <g transform="matrix(1.0, 0.0, 0.0, 1.0, 6.25, 9.75)">
    <path d="M3.05 -5.55 Q1.7 -3.6 1.75 -0.65 L1.45 3.05 Q1.1 6.8 0.1 6.8 -2.75 6.8 -4.2 5.55 -5.25 4.6 -5.25 3.5 L-3.6 -3.55 Q-3.25 -4.8 -0.85 -7.1 0.55 -7.9 1.85 -8.35 4.4 -9.3 4.4 -7.9 4.4 -7.45 3.05 -5.55 M3.8 -7.85 L3.7 -8.1 Q0.65 -7.35 -1.2 -5.7 -2.8 -4.25 -2.95 -2.7 -3.1 -1.4 -4.4 3.45 -4.4 4.15 -3.65 4.9 -2.5 6.0 -0.25 6.0 0.55 6.0 0.7 3.3 L0.7 -0.95 Q0.55 -4.35 2.15 -6.15 L3.8 -7.85" fill="#a36a6a" fill-rule="evenodd" stroke="none"/>
    <path d="M3.8 -7.85 L2.15 -6.15 Q0.55 -4.35 0.7 -0.95 L0.7 3.3 Q0.55 6.0 -0.25 6.0 -2.5 6.0 -3.65 4.9 -4.4 4.15 -4.4 3.45 -3.1 -1.4 -2.95 -2.7 -2.8 -4.25 -1.2 -5.7 0.65 -7.35 3.7 -8.1 L3.8 -7.85" fill="#e0cbcb" fill-rule="evenodd" stroke="none"/>
  </g>
</svg>