<?xml version="1.0" encoding="UTF-8" standalone="no"?>
<svg xmlns:xlink="http://www.w3.org/1999/xlink" height="64.9px" width="55.15px" xmlns="http://www.w3.org/2000/svg">
  <g transform="matrix(1.0, 0.0, 0.0, 1.0, 22.35, 46.2)">
    <path d="M-7.85 -44.95 L-7.8 -44.95 -7.25 -42.8 Q-6.9 -41.65 -6.0 -40.85 L-4.5 -39.9 Q-1.0 -37.7 -0.9 -37.2 1.05 -36.95 2.8 -36.0 5.9 -34.35 5.9 -33.05 L5.85 -32.7 Q7.85 -32.45 9.0 -31.8 L11.1 -30.3 12.95 -28.65 14.45 -27.05 18.15 -23.05 20.25 -20.55 23.05 -17.9 23.65 -17.25 23.85 -17.05 Q25.75 -14.9 26.75 -12.95 28.0 -10.5 28.4 -6.75 L29.75 -5.6 Q31.4 -4.05 31.75 -2.4 L31.8 -1.6 Q31.45 1.3 30.4 4.05 28.4 9.45 25.05 9.6 L24.45 10.45 Q19.35 17.7 9.85 17.7 3.65 17.7 0.0 13.45 -2.75 10.25 -2.75 7.35 -2.65 1.35 -0.1 -2.2 2.45 -5.75 3.2 -6.15 0.55 -8.65 -3.0 -10.35 -6.6 -12.1 -13.4 -17.25 -20.25 -22.4 -20.25 -24.2 L-20.25 -24.5 -20.1 -24.5 -19.3 -23.75 Q-14.65 -19.4 -9.1 -15.65 L-0.3 -10.0 Q3.85 -7.25 5.55 -5.05 7.65 -2.25 7.65 1.7 L7.95 5.35 Q7.7 9.2 6.3 9.2 L5.85 8.9 5.75 8.6 Q5.75 8.35 6.25 7.4 L6.75 5.8 6.75 5.65 Q5.85 6.9 4.65 6.9 3.35 6.9 3.35 6.3 3.35 6.05 3.75 6.05 L4.6 6.2 6.3 5.15 6.75 4.75 Q6.55 1.3 5.25 -2.2 L4.0 -4.95 Q2.55 -4.2 1.35 -2.5 0.1 -0.8 -0.6 0.8 -1.35 2.35 -1.55 4.55 L-1.7 8.3 Q-1.65 9.85 0.6 12.6 3.9 16.65 9.8 16.65 19.1 16.65 23.8 9.55 22.0 9.35 21.05 8.3 20.25 7.4 20.25 6.3 L20.4 5.65 20.9 5.05 21.35 4.65 21.8 4.35 Q23.25 3.6 23.3 1.85 L23.3 1.65 23.0 -0.05 Q22.95 -0.6 23.5 -1.25 L23.6 -1.35 23.9 -1.7 24.85 -2.5 24.95 -2.55 25.85 -3.25 26.5 -3.8 27.55 -4.95 Q27.25 -9.5 25.45 -12.8 L24.35 -14.6 23.55 -15.65 Q21.75 -17.85 19.05 -20.2 18.25 -20.65 17.15 -21.95 L13.85 -26.1 Q8.8 -32.15 3.65 -32.15 1.15 -32.15 -0.7 -31.25 L-1.9 -30.55 -3.0 -29.6 -3.25 -29.3 Q-4.65 -26.45 -4.9 -26.45 -5.2 -26.45 -5.2 -26.85 -5.2 -28.35 -3.65 -30.1 L-3.6 -30.15 -3.6 -30.2 Q-2.45 -31.45 -0.85 -32.1 1.0 -32.9 3.55 -32.9 L4.05 -32.9 5.2 -32.8 4.55 -33.5 3.25 -34.8 Q2.8 -35.35 1.9 -35.7 0.2 -36.4 -3.45 -36.4 -5.85 -36.4 -7.8 -35.55 L-9.1 -34.9 -9.45 -34.7 -9.5 -34.65 -10.75 -33.65 -10.9 -33.45 -12.4 -31.35 -12.85 -30.9 -12.9 -30.9 -13.1 -30.95 -13.1 -31.0 -13.15 -31.05 -13.25 -31.65 Q-13.25 -32.35 -11.65 -33.85 L-10.7 -34.75 -9.8 -35.45 Q-7.6 -37.1 -5.95 -36.9 L-2.45 -37.3 -5.0 -39.15 -5.95 -40.0 -6.05 -40.05 Q-8.2 -42.1 -8.2 -43.85 L-8.05 -44.55 -7.95 -44.85 -7.9 -44.95 -7.85 -44.95 M25.35 -1.1 L25.3 -1.05 25.25 -1.05 24.55 -0.4 24.35 0.0 24.3 0.05 24.3 0.45 24.35 3.45 24.35 3.5 24.4 3.7 Q24.3 4.3 23.0 4.95 22.3 5.3 21.9 5.6 21.35 6.0 21.35 6.35 21.35 6.9 22.2 7.6 23.1 8.3 24.45 8.5 L25.5 8.6 25.95 8.5 Q27.8 7.95 29.45 3.6 L30.65 -0.1 30.9 -1.2 30.9 -1.65 30.9 -1.75 30.45 -3.45 29.1 -5.25 28.55 -4.2 28.55 -4.1 27.8 -3.05 27.1 -2.15 26.15 -1.6 25.55 -1.2 25.35 -1.1 M-12.1 -39.4 Q-14.45 -38.6 -15.1 -37.9 L-15.2 -38.0 Q-15.0 -38.95 -12.5 -39.95 -9.9 -40.95 -8.15 -40.65 L-12.1 -39.4" fill="#a36a6a" fill-rule="evenodd" stroke="none"/>
    <path d="M-7.85 -44.95 L-7.9 -44.95 -7.85 -44.95 M-6.05 -40.05 L-5.95 -40.0 -5.0 -39.15 -2.45 -37.3 -5.95 -36.9 Q-7.6 -37.1 -9.8 -35.45 L-10.7 -34.75 -11.65 -33.85 -12.1 -34.85 Q-12.1 -35.7 -11.35 -36.75 L-10.0 -38.15 Q-7.85 -40.0 -6.1 -40.0 L-6.05 -40.05 M-9.5 -34.65 L-9.45 -34.7 -9.1 -34.9 -7.8 -35.55 Q-5.85 -36.4 -3.45 -36.4 0.2 -36.4 1.9 -35.7 2.8 -35.35 3.25 -34.8 L4.55 -33.5 5.2 -32.8 4.05 -32.9 3.55 -32.9 Q1.0 -32.9 -0.85 -32.1 -2.45 -31.45 -3.6 -30.2 L-3.6 -30.15 -3.65 -30.1 -3.7 -30.1 -4.95 -29.9 Q-6.45 -29.9 -7.95 -30.45 -9.8 -31.15 -9.8 -32.3 L-9.5 -34.6 -9.5 -34.65 M-0.7 -31.25 Q1.15 -32.15 3.65 -32.15 8.8 -32.15 13.85 -26.1 L17.15 -21.95 Q18.25 -20.65 19.05 -20.2 21.75 -17.85 23.55 -15.65 23.2 -13.7 22.05 -12.3 20.5 -10.4 18.2 -10.25 L17.85 -10.25 Q14.25 -10.25 11.45 -13.45 9.85 -15.25 6.95 -19.5 L2.7 -24.3 2.3 -24.75 1.8 -25.2 0.2 -26.45 -0.55 -27.35 Q-1.1 -28.25 -1.1 -29.2 L-1.05 -30.05 -0.7 -31.15 -0.7 -31.25 M25.35 -1.1 L25.55 -1.2 26.15 -1.6 27.1 -2.15 27.8 -3.05 28.55 -4.1 28.55 -4.2 29.1 -5.25 30.45 -3.45 30.9 -1.75 30.9 -1.65 30.9 -1.2 29.65 0.2 Q28.95 0.7 27.4 0.8 L27.1 0.8 26.75 0.65 26.35 0.4 25.9 0.0 Q25.4 -0.6 25.35 -1.1 M-13.25 -31.05 L-13.15 -31.05 -13.25 -31.05" fill="#f2eaea" fill-rule="evenodd" stroke="none"/>
    <path d="M-7.9 -44.95 L-7.95 -44.85 -8.05 -44.55 -8.2 -43.85 Q-8.2 -42.1 -6.05 -40.05 L-6.1 -40.0 Q-7.85 -40.0 -10.0 -38.15 L-11.35 -36.75 Q-12.1 -35.7 -12.1 -34.85 L-11.65 -33.85 Q-13.25 -32.35 -13.25 -31.65 L-13.15 -31.05 -13.25 -31.05 Q-13.6 -30.55 -14.05 -30.55 -14.8 -30.55 -15.35 -32.9 L-15.8 -36.1 -15.7 -36.85 Q-16.3 -37.1 -17.25 -39.1 -17.9 -40.55 -18.5 -41.05 -16.75 -42.65 -14.7 -43.55 -8.25 -45.85 -7.85 -44.95 L-7.9 -44.95 M-13.1 -31.0 L-13.1 -30.95 -12.9 -30.9 -12.85 -30.9 -12.4 -31.35 -10.9 -33.45 -10.75 -33.65 -9.5 -34.65 -9.5 -34.6 -9.8 -32.3 Q-9.8 -31.15 -7.95 -30.45 -6.45 -29.9 -4.95 -29.9 L-3.7 -30.1 -3.65 -30.1 Q-5.2 -28.35 -5.2 -26.85 -5.2 -26.45 -4.9 -26.45 -4.65 -26.45 -3.25 -29.3 L-3.0 -29.6 -1.9 -30.55 -0.7 -31.25 -0.7 -31.15 -1.05 -30.05 -1.1 -29.2 Q-1.1 -28.25 -0.55 -27.35 L0.2 -26.45 1.8 -25.2 2.3 -24.75 2.7 -24.3 6.95 -19.5 Q9.85 -15.25 11.45 -13.45 14.25 -10.25 17.85 -10.25 L18.2 -10.25 Q20.5 -10.4 22.05 -12.3 23.2 -13.7 23.55 -15.65 L24.35 -14.6 Q24.4 -13.75 25.4 -10.55 26.3 -7.6 24.35 -4.0 L24.35 -3.95 24.05 -3.45 23.35 -2.45 21.6 -1.0 19.35 -0.7 18.2 -1.05 15.7 -2.35 Q14.35 -3.2 13.85 -4.0 L11.6 -7.45 8.75 -11.7 6.3 -15.1 5.95 -15.55 0.35 -21.4 -3.0 -23.25 Q-4.3 -23.95 -4.75 -25.0 L-5.0 -26.3 Q-5.25 -26.05 -6.0 -25.7 -6.9 -25.25 -7.4 -25.25 L-7.65 -25.25 Q-9.5 -25.4 -11.5 -27.4 -13.4 -29.25 -13.2 -30.6 L-13.1 -31.0 M24.35 0.0 L24.55 -0.4 25.25 -1.05 25.3 -1.05 25.35 -1.1 Q25.4 -0.6 25.9 0.0 L26.35 0.4 26.75 0.65 27.1 0.8 27.4 0.8 Q28.95 0.7 29.65 0.2 L30.9 -1.2 30.65 -0.1 29.45 1.0 Q28.5 1.55 26.75 1.65 L26.35 1.65 26.05 1.65 Q24.55 1.65 24.35 0.1 L24.35 0.0 M21.9 5.6 Q22.3 5.3 23.0 4.95 24.3 4.3 24.4 3.7 L24.5 3.7 25.2 4.0 Q25.5 4.25 25.5 4.65 L25.45 4.95 25.45 5.0 Q25.3 5.55 24.55 5.9 L23.1 6.25 22.15 5.8 21.9 5.6 M-12.1 -39.4 L-8.15 -40.65 Q-9.9 -40.95 -12.5 -39.95 -15.0 -38.95 -15.2 -38.0 L-15.1 -37.9 Q-14.45 -38.6 -12.1 -39.4" fill="#e0cbcb" fill-rule="evenodd" stroke="none"/>
    <path d="M-13.15 -31.05 L-13.1 -31.0 -13.2 -30.6 Q-13.4 -29.25 -11.5 -27.4 -9.5 -25.4 -7.65 -25.25 L-7.4 -25.25 Q-6.9 -25.25 -6.0 -25.7 -5.25 -26.05 -5.0 -26.3 L-4.75 -25.0 Q-4.3 -23.95 -3.0 -23.25 L0.35 -21.4 5.95 -15.55 6.3 -15.1 8.75 -11.7 11.6 -7.45 13.85 -4.0 Q14.35 -3.2 15.7 -2.35 L18.2 -1.05 19.35 -0.7 21.6 -1.0 23.35 -2.45 24.05 -3.45 24.35 -3.95 24.35 -4.0 Q26.3 -7.6 25.4 -10.55 24.4 -13.75 24.35 -14.6 L25.45 -12.8 Q27.25 -9.5 27.55 -4.95 L26.5 -3.8 25.85 -3.25 24.95 -2.55 24.85 -2.5 23.9 -1.7 23.6 -1.35 23.5 -1.25 Q22.95 -0.6 23.0 -0.05 L23.3 1.65 23.3 1.85 Q23.25 3.6 21.8 4.35 L21.35 4.65 20.9 5.05 20.4 5.65 20.25 6.3 Q20.25 7.4 21.05 8.3 22.0 9.35 23.8 9.55 19.1 16.65 9.8 16.65 3.9 16.65 0.6 12.6 -1.65 9.85 -1.7 8.3 L-1.55 4.55 Q-1.35 2.35 -0.6 0.8 0.1 -0.8 1.35 -2.5 2.55 -4.2 4.0 -4.95 L5.25 -2.2 Q6.55 1.3 6.75 4.75 L6.3 5.15 4.6 6.2 3.75 6.05 Q3.35 6.05 3.35 6.3 3.35 6.9 4.65 6.9 5.85 6.9 6.75 5.65 L6.75 5.8 6.25 7.4 Q5.75 8.35 5.75 8.6 L5.85 8.9 6.3 9.2 Q7.7 9.2 7.95 5.35 L7.65 1.7 Q7.65 -2.25 5.55 -5.05 3.85 -7.25 -0.3 -10.0 L-9.1 -15.65 Q-14.65 -19.4 -19.3 -23.75 L-20.1 -24.5 -20.25 -24.5 Q-20.7 -25.7 -21.0 -28.35 L-21.35 -33.4 -21.1 -36.85 Q-20.7 -38.75 -19.3 -40.3 L-18.6 -40.95 -18.5 -41.05 Q-17.9 -40.55 -17.25 -39.1 -16.3 -37.1 -15.7 -36.85 L-15.8 -36.1 -15.35 -32.9 Q-14.8 -30.55 -14.05 -30.55 -13.6 -30.55 -13.25 -31.05 L-13.15 -31.05 M5.0 -10.3 L2.3 -12.1 0.05 -13.85 Q-1.15 -15.0 -5.35 -17.35 -6.4 -17.95 -7.45 -19.15 L-9.35 -20.85 -12.25 -22.65 -14.5 -24.45 -16.0 -26.25 Q-17.1 -27.4 -18.35 -27.85 L-18.45 -27.85 -18.55 -27.8 -18.55 -27.75 -18.6 -27.65 -18.65 -27.25 Q-18.7 -26.75 -15.9 -23.55 -14.0 -21.35 -11.05 -20.0 L-8.55 -18.3 Q-7.25 -17.0 -6.4 -16.5 L-3.6 -14.95 Q-2.05 -14.0 -1.2 -13.2 L3.55 -9.7 Q6.45 -7.65 7.05 -6.25 L8.4 -2.75 8.85 -0.9 9.1 0.7 8.9 4.45 8.45 6.35 8.15 8.05 7.9 8.75 7.9 8.8 7.9 8.9 7.95 9.0 8.0 9.05 8.1 9.1 8.2 9.1 8.3 9.05 Q10.0 7.25 10.0 0.7 L9.15 -3.35 8.1 -6.6 Q7.0 -8.7 5.0 -10.3 M30.65 -0.1 L29.45 3.6 Q27.8 7.95 25.95 8.5 L25.5 8.6 24.45 8.5 Q23.1 8.3 22.2 7.6 21.35 6.9 21.35 6.35 21.35 6.0 21.9 5.6 L22.15 5.8 23.1 6.25 24.55 5.9 Q25.3 5.55 25.45 5.0 L25.45 4.95 25.5 4.65 Q25.5 4.25 25.2 4.0 L24.5 3.7 24.4 3.7 24.35 3.5 24.35 3.45 24.3 0.45 24.3 0.05 24.35 0.0 24.35 0.1 Q24.55 1.65 26.05 1.65 L26.35 1.65 26.75 1.65 Q28.5 1.55 29.45 1.0 L30.65 -0.1 M-0.2 9.0 Q0.75 11.15 2.2 12.35 L2.25 12.25 1.1 10.1 Q-0.1 8.0 -0.1 5.9 -0.1 3.95 0.6 1.95 1.4 -0.35 2.85 -1.9 0.85 -1.4 -0.25 1.35 -1.1 3.4 -1.1 5.4 -1.1 7.05 -0.2 9.0" fill="#cca9a9" fill-rule="evenodd" stroke="none"/>
    <path d="M5.0 -10.3 Q7.0 -8.7 8.1 -6.6 L9.15 -3.35 10.0 0.7 Q10.0 7.25 8.3 9.05 L8.2 9.1 8.1 9.1 8.0 9.05 7.95 9.0 7.9 8.9 7.9 8.8 7.9 8.75 8.15 8.05 8.45 6.35 8.9 4.45 9.1 0.7 8.85 -0.9 8.4 -2.75 7.05 -6.25 Q6.45 -7.65 3.55 -9.7 L-1.2 -13.2 Q-2.05 -14.0 -3.6 -14.95 L-6.4 -16.5 Q-7.25 -17.0 -8.55 -18.3 L-11.05 -20.0 Q-14.0 -21.35 -15.9 -23.55 -18.7 -26.75 -18.65 -27.25 L-18.6 -27.65 -18.55 -27.75 -18.55 -27.8 -18.45 -27.85 -18.35 -27.85 Q-17.1 -27.4 -16.0 -26.25 L-14.5 -24.45 -12.25 -22.65 -9.35 -20.85 -7.45 -19.15 Q-6.4 -17.95 -5.35 -17.35 -1.15 -15.0 0.05 -13.85 L2.3 -12.1 5.0 -10.3 M-0.2 9.0 Q-1.1 7.05 -1.1 5.4 -1.1 3.4 -0.25 1.35 0.85 -1.4 2.85 -1.9 1.4 -0.35 0.6 1.95 -0.1 3.95 -0.1 5.9 -0.1 8.0 1.1 10.1 L2.25 12.25 2.2 12.35 Q0.75 11.15 -0.2 9.0" fill="#ffffff" fill-rule="evenodd" stroke="none"/>
  </g>
</svg>