<?xml version="1.0" encoding="UTF-8" standalone="no"?>
<svg xmlns:xlink="http://www.w3.org/1999/xlink" height="36.6px" width="23.95px" xmlns="http://www.w3.org/2000/svg">
  <g transform="matrix(1.0, 0.0, 0.0, 1.0, 4.3, 35.15)">
    <path d="M-3.3 -33.65 Q-3.35 -34.15 -2.5 -34.15 -1.65 -34.15 -1.6 -33.65 -1.6 -33.15 -2.6 -33.15 -3.3 -33.15 -3.3 -33.65 M12.3 -10.95 Q12.55 -8.4 12.4 -7.5 L11.7 -5.55 11.9 -7.2 Q12.05 -8.5 11.2 -12.5 10.35 -16.5 8.7 -19.65 10.45 -19.45 11.25 -16.5 12.05 -13.5 12.3 -10.95 M11.0 -4.9 L11.1 -4.5 11.05 -4.55 11.0 -4.9 M7.75 -22.4 L8.2 -21.65 7.75 -21.2 7.35 -21.85 7.0 -22.5 7.1 -22.75 7.75 -22.4 M5.2 -26.7 L5.15 -26.45 4.8 -26.35 0.75 -30.85 Q6.1 -27.8 5.2 -26.7" fill="#ffffff" fill-rule="evenodd" stroke="none"/>
    <path d="M14.45 -14.15 L15.5 -15.5 M15.3 -10.25 L18.15 -10.75 M14.75 -5.7 L17.05 -4.15 M11.7 -11.15 L12.4 -11.9 M11.7 -17.35 L12.8 -19.2 M12.0 -1.2 L12.8 -0.05 M8.5 -11.9 L6.45 -12.5 M8.8 -6.95 L7.75 -6.25" fill="none" stroke="#330101" stroke-linecap="round" stroke-linejoin="round" stroke-opacity="0.2509804" stroke-width="1.0"/>
  </g>
</svg>