<?xml version="1.0" encoding="UTF-8" standalone="no"?>
<svg xmlns:xlink="http://www.w3.org/1999/xlink" height="36.95px" width="32.9px" xmlns="http://www.w3.org/2000/svg">
  <g transform="matrix(1.0, 0.0, 0.0, 1.0, 4.15, 35.9)">
    <path d="M-2.7 -33.75 L-3.15 -34.4 Q-3.15 -35.05 -2.3 -34.85 -1.5 -34.6 -1.5 -34.1 -1.5 -33.45 -2.1 -33.45 -2.3 -33.45 -2.7 -33.75 M27.75 -0.65 L27.7 -0.35 Q27.55 0.05 26.85 0.05 25.95 0.05 25.95 -0.5 25.95 -1.0 26.85 -1.15 27.75 -1.3 27.75 -0.65 M5.3 -28.95 Q4.25 -28.9 3.4 -29.45 2.6 -29.95 2.6 -30.45 L2.7 -30.75 Q4.1 -31.35 5.4 -29.25 L5.3 -28.95 M6.2 -28.25 Q6.2 -28.6 6.3 -28.5 11.05 -26.5 14.6 -22.6 L19.85 -15.9 19.8 -15.8 Q18.55 -16.75 16.65 -18.85 L13.55 -21.95 6.2 -28.25" fill="#ffffff" fill-rule="evenodd" stroke="none"/>
  </g>
</svg>