<?xml version="1.0" encoding="UTF-8" standalone="no"?>
<svg xmlns:xlink="http://www.w3.org/1999/xlink" height="28px" width="25.45px" xmlns="http://www.w3.org/2000/svg">
  <g transform="matrix(1.0, 0.0, 0.0, 1.0, 22.35, 46.2)">
    <path d="M-7.9 -44.95 L-7.85 -44.95 -7.8 -44.95 -7.25 -42.8 Q-6.9 -41.65 -6.0 -40.85 L-4.5 -39.9 -3.3 -39.15 -5.85 -39.9 -5.95 -40.0 -6.05 -40.05 Q-8.2 -42.1 -8.2 -43.85 L-8.05 -44.55 -7.95 -44.85 -7.9 -44.95 M-15.75 -20.65 L-16.75 -19.9 Q-20.25 -22.9 -20.25 -24.2 L-20.25 -24.5 -20.1 -24.5 -19.3 -23.75 -15.75 -20.65 M-15.1 -37.9 L-15.2 -38.0 Q-15.0 -38.95 -12.5 -39.95 -9.9 -40.95 -8.15 -40.65 L-12.1 -39.4 Q-14.45 -38.6 -15.1 -37.9 M-3.55 -36.4 L-3.45 -36.8 -3.4 -36.9 -4.0 -37.1 Q-2.8 -37.25 -2.5 -36.4 L-3.45 -36.4 -3.55 -36.4" fill="#a36a6a" fill-rule="evenodd" stroke="none"/>
    <path d="M0.95 -28.75 L0.9 -28.75 Q1.0 -29.1 1.5 -29.0 L1.65 -28.9 2.05 -29.0 Q2.25 -28.1 0.95 -28.75 M-7.85 -44.95 L-7.9 -44.95 -7.85 -44.95 M-6.8 -39.9 L-6.05 -38.95 -8.05 -38.7 -8.2 -38.7 -7.7 -37.6 -10.35 -37.8 -10.0 -38.15 Q-8.25 -39.65 -6.8 -39.9 M-11.35 -36.7 L-11.35 -36.6 -11.45 -36.6 -11.35 -36.7 M-11.85 -35.8 Q-11.35 -35.3 -12.0 -34.4 L-12.1 -34.85 -11.85 -35.8 M-9.8 -32.35 L-9.55 -32.3 -9.8 -32.2 Q-9.15 -32.2 -9.5 -31.55 L-9.5 -31.45 -9.8 -32.2 -9.8 -32.3 -9.8 -32.35 M-2.5 -36.4 Q-2.4 -35.95 -2.45 -35.3 L-2.5 -35.2 Q-3.75 -35.35 -3.55 -36.4 L-3.45 -36.4 -2.5 -36.4 M-4.9 -31.3 L-5.55 -31.05 Q-6.25 -31.35 -6.35 -32.15 L-6.3 -32.3 -6.4 -32.3 -6.3 -32.4 -6.3 -32.3 Q-5.05 -32.6 -4.85 -31.3 L-4.9 -31.3 M-1.2 -34.0 L-1.1 -34.05 -0.6 -33.7 Q0.45 -33.15 -0.6 -33.15 L-0.75 -33.15 Q-1.75 -33.65 -1.2 -34.0 M-5.2 -34.6 L-5.3 -34.45 -5.5 -34.35 -5.8 -35.1 -5.8 -35.2 Q-5.05 -35.25 -5.2 -34.6 M-8.05 -34.55 L-8.05 -34.05 Q-7.95 -33.65 -8.95 -34.7 L-8.95 -34.8 Q-8.15 -35.25 -8.05 -34.55" fill="#f2eaea" fill-rule="evenodd" stroke="none"/>
    <path d="M-7.9 -44.95 L-7.95 -44.85 -8.05 -44.55 -8.2 -43.85 Q-8.2 -42.1 -6.05 -40.05 L-6.1 -40.0 -6.2 -40.0 -7.05 -40.25 -6.8 -39.9 Q-8.25 -39.65 -10.0 -38.15 L-10.35 -37.8 Q-11.15 -38.05 -11.95 -38.45 L-11.35 -36.7 -11.45 -36.6 -12.75 -36.6 -12.65 -36.3 -12.45 -36.3 -12.2 -36.05 -11.85 -35.8 -12.1 -34.85 -12.0 -34.4 -12.5 -33.85 -12.6 -33.8 Q-13.5 -34.2 -13.7 -35.25 L-14.35 -35.3 -14.0 -33.7 -15.1 -33.7 -14.5 -32.3 -15.15 -32.2 -15.35 -32.9 -15.8 -36.1 -15.7 -36.85 Q-16.3 -37.1 -17.25 -39.1 -17.9 -40.55 -18.5 -41.05 -16.75 -42.65 -14.7 -43.55 -8.25 -45.85 -7.85 -44.95 L-7.9 -44.95 M-15.1 -37.9 Q-14.45 -38.6 -12.1 -39.4 L-8.15 -40.65 Q-9.9 -40.95 -12.5 -39.95 -15.0 -38.95 -15.2 -38.0 L-15.1 -37.9 M-13.95 -30.55 L-14.05 -30.7 -14.1 -30.8 -14.0 -32.05 -14.0 -32.15 Q-12.95 -32.05 -13.35 -30.9 -13.6 -30.6 -13.95 -30.55 M-9.5 -31.45 L-9.55 -31.4 -10.7 -31.65 -10.85 -31.8 Q-10.65 -32.45 -9.85 -32.35 L-9.8 -32.35 -9.8 -32.3 -9.8 -32.2 -10.1 -32.15 -9.8 -32.2 -9.5 -31.45 M-10.95 -28.05 L-11.1 -28.65 -11.1 -28.75 -10.35 -28.85 -10.35 -28.75 -10.95 -28.05 -10.65 -27.8 -11.1 -27.9 -10.95 -28.05 M-8.05 -30.25 L-7.3 -30.0 -7.45 -29.5 Q-6.55 -29.85 -6.4 -28.75 L-6.4 -28.65 Q-7.05 -28.25 -7.7 -29.0 L-8.05 -30.25" fill="#e0cbcb" fill-rule="evenodd" stroke="none"/>
    <path d="M-15.15 -32.2 L-16.0 -32.15 Q-15.8 -30.85 -15.1 -30.0 L-16.5 -30.25 -15.0 -28.4 -16.15 -28.0 -15.9 -26.7 -16.0 -26.75 -16.05 -26.3 -18.35 -27.85 -18.45 -27.85 -18.55 -27.8 -18.55 -27.75 -18.6 -27.65 -18.65 -27.25 Q-18.7 -26.8 -16.15 -23.85 L-15.5 -20.95 -15.75 -20.65 -19.3 -23.75 -20.1 -24.5 -20.25 -24.5 Q-20.7 -25.7 -21.0 -28.35 L-21.35 -33.4 -21.1 -36.85 Q-20.7 -38.75 -19.3 -40.3 L-18.6 -40.95 -18.5 -41.05 Q-17.9 -40.55 -17.25 -39.1 -16.3 -37.1 -15.7 -36.85 L-15.8 -36.1 -15.35 -32.9 -15.15 -32.2 M-13.35 -30.9 L-13.45 -30.65 -13.5 -30.5 -13.95 -30.55 Q-13.6 -30.6 -13.35 -30.9 M-12.85 -27.25 Q-12.15 -27.0 -12.2 -26.35 L-12.2 -26.1 -13.1 -26.1 Q-13.85 -26.7 -13.5 -27.5 L-13.35 -27.65 -13.5 -27.25 -12.85 -27.25 M-7.8 -24.85 L-8.3 -24.6 Q-7.75 -24.35 -7.55 -23.7 L-7.55 -23.6 -8.8 -23.6 Q-9.1 -23.75 -9.05 -24.1 L-8.95 -24.35 Q-8.7 -24.9 -8.05 -24.85 L-7.8 -24.85 M-4.8 -22.1 L-4.65 -22.7 -3.75 -22.45 Q-3.3 -21.2 -4.65 -21.95 L-4.8 -22.1 M-11.2 -22.0 L-12.25 -22.65 -13.2 -23.35 -13.1 -23.7 -13.0 -23.85 -13.0 -23.6 -12.35 -23.7 Q-11.25 -23.2 -11.2 -22.0 M-12.75 -20.05 Q-11.95 -20.1 -12.55 -19.25 L-12.6 -19.2 Q-13.8 -19.7 -13.0 -20.2 L-12.75 -20.05" fill="#cca9a9" fill-rule="evenodd" stroke="none"/>
    <path d="M-16.05 -26.3 L-15.75 -25.85 -15.65 -25.75 Q-15.55 -24.7 -16.0 -24.35 L-16.25 -24.2 -16.15 -23.85 Q-18.7 -26.8 -18.65 -27.25 L-18.6 -27.65 -18.55 -27.75 -18.55 -27.8 -18.45 -27.85 -18.35 -27.85 -16.05 -26.3 M-13.2 -23.35 L-12.25 -22.65 -11.2 -22.0 -11.2 -21.7 Q-11.6 -21.4 -12.1 -21.45 L-12.2 -21.45 Q-13.55 -22.25 -13.2 -23.35" fill="#ffffff" fill-rule="evenodd" stroke="none"/>
  </g>
</svg>