<?xml version="1.0" encoding="UTF-8" standalone="no"?>
<svg xmlns:xlink="http://www.w3.org/1999/xlink" height="44.65px" width="38.05px" xmlns="http://www.w3.org/2000/svg">
  <g transform="matrix(1.0, 0.0, 0.0, 1.0, 21.75, 45.1)">
    <path d="M0.3 -35.65 L0.0 -35.8 -2.75 -36.95 -2.7 -36.9 -4.75 -37.75 -5.85 -39.0 -5.9 -39.15 -6.1 -39.45 Q-6.75 -40.7 -6.8 -42.2 L-6.85 -42.65 -6.7 -42.85 -6.65 -42.9 -5.55 -40.3 -5.4 -40.05 -4.75 -39.2 -4.05 -38.6 Q-2.8 -37.7 -1.3 -37.25 L-1.05 -37.2 -0.45 -37.0 1.45 -36.4 2.3 -35.0 1.4 -35.25 1.35 -35.3 0.3 -35.65 M-9.75 -11.4 L-9.95 -11.4 -10.25 -10.05 -13.6 -13.6 -16.6 -17.0 Q-19.0 -19.95 -19.0 -20.35 L-19.0 -20.45 -18.95 -20.75 -18.75 -21.0 Q-18.6 -21.1 -18.3 -20.8 L-17.7 -20.2 -16.25 -18.15 Q-14.7 -16.0 -13.0 -14.7 -11.35 -13.4 -9.75 -11.4 M0.1 -33.4 L1.35 -33.75 1.55 -33.2 1.55 -33.05 0.8 -32.75 0.1 -33.4 M-13.05 -34.1 Q-10.55 -36.5 -6.85 -36.95 -8.55 -36.2 -10.0 -35.15 L-10.25 -35.0 -13.75 -32.0 -13.8 -31.95 -13.85 -31.85 -14.05 -31.65 -14.35 -31.3 -14.7 -30.9 -14.7 -30.85 -14.75 -30.85 -15.35 -30.0 -16.05 -29.05 -15.85 -29.9 -15.7 -30.35 -15.2 -31.4 -14.45 -32.55 -13.05 -34.1 M-14.45 -41.85 Q-12.8 -42.75 -11.9 -42.75 L-10.85 -42.65 Q-10.1 -42.55 -9.9 -42.2 L-12.6 -41.6 Q-14.8 -41.15 -15.85 -40.25 L-15.95 -40.35 -16.05 -40.55 -15.5 -41.15 -14.6 -41.75 -14.45 -41.85 M-15.55 -35.35 L-16.35 -34.65 -16.0 -35.35 -15.85 -35.6 -15.8 -35.75 Q-14.25 -38.45 -11.25 -38.95 L-6.95 -38.7 Q-10.8 -38.6 -13.7 -36.95 L-15.55 -35.35 M-5.05 -30.15 Q-4.8 -29.9 -4.7 -29.5 L-4.8 -29.45 -5.6 -28.85 -5.65 -28.85 -6.15 -29.2 -5.8 -29.5 -5.05 -30.15" fill="#a36a6a" fill-rule="evenodd" stroke="none"/>
    <path d="M0.3 -35.65 L1.35 -35.3 1.4 -35.25 2.3 -35.0 2.35 -34.85 2.35 -34.75 1.65 -35.05 Q2.15 -34.6 2.0 -33.85 L0.75 -34.1 1.35 -33.75 0.1 -33.4 Q-0.3 -34.1 -0.1 -35.15 L1.2 -35.25 0.3 -35.65 M-5.85 -39.0 L-4.75 -37.75 -2.7 -36.9 -1.3 -34.75 Q-3.2 -34.8 -5.3 -36.05 -4.6 -35.2 -4.65 -34.5 L-7.95 -35.7 -7.65 -34.75 -7.75 -34.05 -8.4 -34.15 -8.5 -34.3 -9.4 -34.3 -8.5 -32.5 -8.5 -31.75 -10.9 -32.5 -10.55 -33.15 -9.9 -34.45 -9.9 -34.95 -10.0 -35.15 Q-8.55 -36.2 -6.85 -36.95 -10.55 -36.5 -13.05 -34.1 L-12.65 -35.8 Q-11.65 -37.7 -8.55 -37.7 -6.85 -37.7 -6.05 -38.7 L-5.85 -39.0 M-11.15 -31.45 L-10.15 -28.95 -11.1 -29.25 -11.15 -29.5 -11.25 -30.5 -11.15 -31.45 M-19.0 -20.35 L-19.05 -20.35 -19.0 -20.45 -19.0 -20.35 M-16.35 -41.65 L-16.3 -41.75 -16.35 -41.65 M3.35 -29.95 L2.45 -29.95 3.15 -29.2 3.2 -29.1 3.05 -28.5 2.55 -28.55 Q2.15 -28.55 2.0 -28.95 L1.8 -29.3 1.9 -30.1 3.1 -30.2 3.35 -29.95 M4.1 -25.3 Q3.0 -24.5 2.55 -25.55 L2.75 -26.1 3.35 -26.2 3.55 -26.2 Q4.35 -26.25 4.15 -25.45 L4.1 -25.3 M6.9 -29.1 L6.85 -29.1 Q6.55 -28.8 6.2 -29.3 5.75 -30.25 6.65 -30.35 L6.55 -30.4 Q7.35 -30.3 6.9 -29.1 M10.2 -19.9 Q8.7 -20.65 9.5 -21.9 L9.85 -21.9 10.1 -21.65 10.1 -20.9 10.25 -19.9 10.2 -19.9 M8.2 -6.2 L8.4 -5.85 Q9.15 -5.45 8.85 -4.85 L8.75 -4.75 7.85 -4.75 Q7.45 -4.95 7.4 -5.55 L7.4 -5.75 Q7.5 -6.3 8.1 -6.3 L8.2 -6.2 M9.05 -3.15 L9.45 -2.95 9.5 -2.85 Q9.6 -2.15 8.95 -2.3 L8.85 -2.6 8.75 -2.45 8.8 -2.7 Q8.35 -3.9 9.3 -3.75 L9.05 -3.15 M10.75 -9.4 L11.25 -9.0 11.3 -8.75 11.25 -8.8 11.15 -8.0 11.05 -7.95 10.5 -8.3 Q10.25 -8.9 10.55 -9.35 L10.65 -9.4 10.75 -9.4 M15.0 -8.1 L15.3 -7.3 Q15.2 -6.5 14.6 -6.5 L14.4 -6.5 Q14.05 -6.55 13.95 -7.05 L14.05 -7.65 Q14.15 -8.2 14.7 -8.2 L15.0 -8.1 14.95 -8.2 15.05 -8.05 15.0 -8.1 M12.95 -2.75 Q13.3 -2.35 12.7 -1.5 L12.6 -1.45 Q11.8 -1.8 12.45 -2.6 L12.6 -2.75 12.75 -2.75 12.5 -3.0 12.9 -2.8 12.95 -2.75 M-15.8 -35.7 L-15.85 -35.9 -15.75 -35.9 -15.8 -35.75 -15.8 -35.7 M-3.4 -32.05 Q-3.95 -31.8 -4.1 -32.3 L-4.1 -33.2 -3.95 -33.3 -4.65 -33.75 -4.1 -33.75 Q-3.1 -33.15 -3.4 -32.05 M-6.35 -29.4 L-6.85 -30.2 -6.75 -30.95 Q-6.15 -31.2 -5.65 -30.75 L-5.3 -30.3 -5.05 -30.15 -5.8 -29.5 -6.35 -29.4 M-4.7 -29.5 L-4.65 -29.3 -4.8 -29.45 -4.7 -29.5 M-1.1 -28.7 L-0.9 -28.65 -1.1 -28.0 Q-0.55 -27.7 -0.65 -27.1 L-0.65 -27.0 Q-0.75 -26.5 -1.45 -26.5 L-1.75 -26.55 Q-2.3 -26.85 -2.15 -27.7 L-2.1 -28.0 Q-1.8 -28.7 -1.1 -28.7 M-2.2 -23.35 L-2.2 -23.2 -2.65 -23.0 -3.0 -23.0 -3.65 -24.1 Q-3.3 -24.7 -2.55 -24.6 L-2.3 -24.55 -2.55 -24.45 Q-2.15 -23.95 -2.2 -23.35" fill="#f2eaea" fill-rule="evenodd" stroke="none"/>
    <path d="M-6.7 -42.85 L-6.85 -42.65 -6.8 -42.2 Q-6.75 -40.7 -6.1 -39.45 L-5.9 -39.15 -5.85 -39.0 -6.05 -38.7 Q-6.85 -37.7 -8.55 -37.7 -11.65 -37.7 -12.65 -35.8 L-13.05 -34.1 -14.45 -32.55 -15.2 -31.4 -15.0 -31.75 -14.15 -34.4 -14.95 -35.05 Q-15.35 -35.15 -15.55 -35.35 L-13.7 -36.95 Q-10.8 -38.6 -6.95 -38.7 L-11.25 -38.95 Q-14.25 -38.45 -15.8 -35.75 L-15.85 -35.6 -15.8 -35.7 -15.8 -35.75 -15.75 -35.9 -15.85 -35.9 Q-15.85 -36.65 -16.15 -37.45 L-16.75 -39.1 -17.55 -39.85 -16.35 -41.65 -16.3 -41.75 Q-14.1 -44.1 -9.6 -44.1 -7.0 -44.1 -6.7 -42.85 M-10.9 -32.5 L-11.95 -32.95 -12.15 -32.95 -11.15 -31.45 -11.25 -30.5 -11.15 -29.5 -11.1 -29.25 -11.9 -29.5 -12.1 -30.25 Q-12.35 -31.5 -12.85 -31.5 L-13.8 -31.15 -14.65 -30.85 -14.7 -30.85 -14.7 -30.9 -14.35 -31.3 -14.05 -31.65 -13.85 -31.85 -13.8 -31.95 -13.75 -32.0 -10.25 -35.0 -10.0 -35.15 -9.9 -34.95 -9.9 -34.45 -10.55 -33.15 -10.9 -32.5 M-14.6 -41.75 L-15.5 -41.15 -16.05 -40.55 -15.95 -40.35 -15.85 -40.25 Q-14.8 -41.15 -12.6 -41.6 L-9.9 -42.2 Q-10.1 -42.55 -10.85 -42.65 L-11.9 -42.75 Q-12.8 -42.75 -14.45 -41.85 L-14.5 -41.85 -14.6 -41.75 M-4.65 -29.3 L-4.65 -29.2 Q-4.8 -28.85 -5.2 -28.85 L-5.6 -28.85 -4.8 -29.45 -4.65 -29.3 M-6.15 -29.2 L-6.35 -29.4 -5.8 -29.5 -6.15 -29.2 M-8.05 -26.55 Q-7.25 -26.15 -6.95 -25.2 L-6.95 -25.1 Q-8.2 -24.5 -8.95 -25.9 L-8.95 -26.55 Q-8.25 -27.25 -7.2 -27.1 L-7.05 -27.0 -8.5 -26.55 -8.05 -26.55 M-7.85 -21.9 L-7.4 -22.0 -7.95 -22.8 Q-7.2 -22.7 -6.75 -22.1 L-6.5 -21.9 Q-6.2 -21.25 -6.4 -20.9 L-6.55 -20.7 -6.75 -20.85 -7.85 -21.9" fill="#e0cbcb" fill-rule="evenodd" stroke="none"/>
    <path d="M-11.9 -29.5 L-13.05 -29.85 -13.15 -29.85 Q-11.9 -26.6 -9.85 -24.2 -11.65 -24.1 -13.3 -25.15 L-13.5 -25.2 -10.6 -21.0 -13.4 -22.0 -13.5 -22.0 Q-12.45 -19.9 -10.85 -18.35 L-11.55 -18.4 -13.3 -20.15 Q-16.35 -23.4 -17.45 -26.1 -17.85 -25.8 -17.85 -25.35 -17.85 -22.15 -14.4 -18.5 L-10.85 -15.15 -9.8 -14.15 -10.95 -14.15 Q-9.75 -13.15 -9.05 -11.85 L-8.95 -11.7 Q-9.25 -11.4 -9.75 -11.4 -11.35 -13.4 -13.0 -14.7 -14.7 -16.0 -16.25 -18.15 L-17.7 -20.2 -18.3 -20.8 Q-18.6 -21.1 -18.75 -21.0 L-18.95 -20.75 -19.0 -20.45 -19.05 -20.35 Q-20.2 -20.6 -20.6 -23.7 L-20.75 -27.2 Q-20.75 -33.35 -19.6 -35.8 L-18.1 -38.8 -17.55 -39.85 -16.75 -39.1 -16.15 -37.45 Q-15.85 -36.65 -15.85 -35.9 L-15.8 -35.7 -15.85 -35.6 -16.0 -35.35 -16.35 -34.65 -15.55 -35.35 Q-15.35 -35.15 -14.95 -35.05 L-14.15 -34.4 -15.0 -31.75 -15.2 -31.4 -15.7 -30.35 -15.85 -29.9 -16.05 -29.05 -15.35 -30.0 -14.75 -30.85 -14.7 -30.85 -14.65 -30.85 -13.8 -31.15 -12.85 -31.5 Q-12.35 -31.5 -12.1 -30.25 L-11.9 -29.5 M-6.55 -20.7 Q-7.1 -20.25 -7.85 -20.35 L-8.3 -20.55 -8.75 -21.35 -7.85 -21.9 -6.75 -20.85 -6.55 -20.7 M-7.5 -17.8 L-7.05 -16.8 Q-6.5 -16.05 -7.3 -15.8 L-7.4 -15.7 Q-8.25 -15.95 -8.85 -16.7 L-9.15 -17.8 Q-8.7 -18.3 -7.85 -18.25 L-7.5 -17.8 M-3.65 -13.5 L-3.75 -13.6 Q-4.55 -14.45 -4.1 -15.6 L-3.55 -16.05 -3.1 -14.05 Q-2.9 -13.25 -3.65 -13.5 M-5.15 -11.45 L-5.15 -11.6 -5.1 -11.6 -4.4 -11.5 -4.3 -11.4 -4.35 -11.2 -4.1 -10.45 -4.1 -10.4 -4.4 -10.4 -5.15 -11.45" fill="#cca9a9" fill-rule="evenodd" stroke="none"/>
    <path d="M-11.55 -18.4 L-13.25 -18.8 -13.4 -18.8 -8.95 -14.15 -9.8 -14.15 -10.85 -15.15 -14.4 -18.5 Q-17.85 -22.15 -17.85 -25.35 -17.85 -25.8 -17.45 -26.1 -16.35 -23.4 -13.3 -20.15 L-11.55 -18.4 M-4.4 -10.4 L-4.85 -10.4 Q-5.2 -10.95 -5.15 -11.45 L-4.4 -10.4" fill="#ffffff" fill-rule="evenodd" stroke="none"/>
  </g>
</svg>