<?xml version="1.0" encoding="UTF-8" standalone="no"?>
<svg xmlns:xlink="http://www.w3.org/1999/xlink" height="71.6px" width="110.9px" xmlns="http://www.w3.org/2000/svg">
  <g transform="matrix(1.0, 0.0, 0.0, 1.0, -291.3, -224.3)">
    <path d="M374.75 243.75 L375.05 243.1 376.25 243.7 375.9 243.3 Q377.8 241.3 383.25 245.6 388.35 249.65 389.35 252.65 L389.4 252.85 388.25 253.05 385.75 251.3 385.7 252.3 Q385.55 252.65 384.45 252.65 381.85 252.65 378.55 249.2 376.35 246.85 374.7 244.05 L374.75 243.75 M367.9 240.25 Q364.15 240.25 359.3 237.8 354.45 235.3 350.75 235.3 349.75 235.3 349.25 234.8 L348.6 234.0 348.6 231.45 352.05 231.2 345.95 227.3 Q347.4 222.8 355.35 228.35 361.0 232.3 363.2 235.2 366.35 236.8 370.55 239.25 369.55 240.25 367.9 240.25 M324.75 242.65 L325.0 242.55 Q323.45 241.15 323.45 239.1 323.45 237.95 323.8 237.6 324.05 237.35 325.0 237.05 L332.2 237.05 340.05 238.65 336.85 236.75 Q336.7 236.25 336.7 234.8 339.05 235.3 341.85 236.5 L343.25 237.1 Q348.8 239.65 355.85 244.7 362.4 249.35 367.7 252.55 L369.25 253.05 369.35 253.55 Q373.9 256.15 377.4 257.6 376.8 259.25 374.55 259.25 369.5 259.25 355.1 249.05 L346.6 243.1 345.45 243.3 Q335.85 240.25 332.05 240.25 L327.6 240.4 Q329.25 242.6 329.7 243.8 L329.7 243.85 332.35 246.65 331.65 247.45 Q331.2 247.85 330.2 247.85 329.1 247.85 327.2 246.1 325.25 244.25 324.75 242.65 M349.1 263.75 Q334.75 256.2 334.75 255.1 L334.8 254.15 334.95 253.8 Q338.5 255.8 351.0 260.95 362.3 266.1 364.8 270.3 L364.75 270.9 363.55 271.1 Q363.0 271.1 349.1 263.75 M330.1 269.35 Q329.95 269.65 328.9 269.65 326.75 269.65 321.9 266.65 316.3 263.15 314.35 262.6 L305.7 260.55 Q300.4 259.35 298.35 258.35 297.6 251.05 312.05 257.75 322.2 262.45 330.2 268.35 L330.1 269.35 M325.65 280.05 Q326.5 280.35 324.9 280.35 320.55 280.35 307.7 272.6 294.7 264.75 292.3 260.55 299.5 261.75 310.55 269.05 L325.7 279.55 325.65 280.05 M330.0 286.55 Q330.0 285.55 330.25 284.75 L330.65 283.55 Q331.85 283.75 333.45 285.85 335.0 287.85 335.2 289.3 L335.2 289.65 334.5 289.8 Q332.25 289.7 331.0 288.55 330.0 287.65 330.0 286.55 M341.7 294.0 Q341.25 293.35 341.15 292.55 341.4 291.85 344.3 291.9 344.3 292.5 344.95 293.3 L344.3 294.25 342.75 294.9 Q342.15 294.7 341.7 294.0 M355.05 284.35 Q354.2 284.45 352.65 283.3 351.0 282.05 348.05 282.15 350.15 281.4 351.65 281.8 353.0 282.15 354.9 283.85 L355.05 284.35 M345.75 284.9 Q346.1 284.0 347.4 284.2 348.45 284.6 348.85 286.0 L348.05 287.5 345.95 287.5 345.8 287.15 Q345.6 286.95 345.6 286.0 345.6 285.2 345.75 284.9 M363.35 288.15 Q362.75 289.65 361.45 289.8 360.15 289.1 359.85 287.35 360.05 286.85 362.75 286.85 L363.35 288.15 M399.75 258.35 Q400.9 258.95 401.2 260.7 400.55 261.65 399.75 261.95 398.35 260.75 397.85 259.55 398.0 259.05 399.75 258.35 M388.75 256.75 L391.0 257.25 Q392.4 257.7 393.25 258.25 L393.25 259.75 393.0 260.15 Q392.75 260.55 391.75 260.55 391.2 260.55 390.4 259.8 L388.75 258.25 388.75 256.75 M383.3 276.55 L383.0 277.3 381.7 277.6 Q376.4 274.3 376.4 272.4 L376.55 271.1 Q378.6 271.1 380.85 273.0 383.0 274.8 383.3 276.55" fill="#84edff" fill-rule="evenodd" stroke="none"/>
  </g>
</svg>