<?xml version="1.0" encoding="UTF-8" standalone="no"?>
<svg xmlns:xlink="http://www.w3.org/1999/xlink" height="59.85px" width="86.25px" xmlns="http://www.w3.org/2000/svg">
  <g transform="matrix(1.0, 0.0, 0.0, 1.0, -284, -230.15)">
    <path d="M336.35 231.15 Q337.3 231.15 341.5 235.05 345.95 239.25 345.95 241.05 L345.8 242.5 Q345.6 243.1 344.8 243.3 342.95 241.8 339.85 238.35 336.2 234.35 336.2 233.15 L336.35 231.15 M325.75 237.65 L325.85 237.25 327.25 237.05 Q328.4 238.65 337.05 245.25 345.15 251.4 346.6 254.45 L346.45 254.95 334.95 248.1 Q325.65 242.35 325.65 239.25 L325.75 237.65 M329.1 246.7 L330.2 246.5 Q339.1 251.1 339.5 251.95 L339.3 252.4 337.0 252.1 334.3 251.95 Q337.0 258.55 347.75 266.8 L369.25 281.5 369.0 282.4 Q368.7 282.8 367.65 282.8 365.0 282.8 348.95 275.0 333.3 267.35 331.15 265.35 326.35 260.85 319.25 256.25 309.95 250.25 301.9 247.85 301.6 247.3 301.6 246.8 313.95 247.15 325.8 255.9 L336.65 264.15 Q343.8 269.35 350.9 272.8 L352.3 273.05 338.65 260.6 Q330.85 252.75 328.9 247.15 L329.1 246.7 M357.6 240.2 L358.7 241.85 357.95 242.5 Q356.05 241.35 355.7 240.45 L355.55 239.1 Q356.8 239.15 357.6 240.2 M362.5 247.15 L362.05 248.1 Q358.75 247.85 355.25 245.65 L350.1 241.85 Q353.3 241.25 362.05 246.15 L362.5 247.15 M329.85 289.0 Q323.8 289.0 304.3 277.65 285.0 266.4 285.0 263.4 L285.0 262.35 285.15 262.15 285.7 261.75 287.2 261.5 Q289.05 261.5 296.55 267.35 L306.2 275.25 306.7 275.25 Q303.15 272.4 299.8 267.9 295.8 262.55 295.8 259.35 295.8 257.15 298.7 257.85 301.55 258.55 306.7 261.95 L306.3 262.2 304.9 262.4 Q304.1 262.4 303.05 261.65 302.0 260.85 301.15 260.85 L299.5 261.05 299.05 261.2 Q301.3 267.3 310.85 274.6 319.1 280.9 331.7 287.35 L331.3 288.5 Q330.95 289.0 329.85 289.0 M294.1 249.8 L294.75 249.5 Q311.95 259.0 314.15 263.7 L301.5 257.3 Q293.6 252.75 294.1 249.8" fill="#84edff" fill-rule="evenodd" stroke="none"/>
  </g>
</svg>