<?xml version="1.0" encoding="UTF-8" standalone="no"?>
<svg xmlns:xlink="http://www.w3.org/1999/xlink" height="196.95px" width="448.0px" xmlns="http://www.w3.org/2000/svg">
  <g transform="matrix(1.0, 0.0, 0.0, 1.0, 0.0, 26.3)">
    <use data-characterId="265" height="86.45" transform="matrix(1.0, 0.0, 0.0, 1.0, 0.0, 14.85)" width="448.0" xlink:href="#morphshape0"/>
    <use data-characterId="266" height="157.25" transform="matrix(1.0, 0.0, 0.0, 1.0, 0.0, -26.3)" width="448.0" xlink:href="#morphshape1"/>
    <use data-characterId="267" height="102.4" transform="matrix(1.0, 0.0, 0.0, 1.0, 0.0, 68.25)" width="448.0" xlink:href="#morphshape2"/>
  </g>
  <defs>
    <g id="morphshape0" transform="matrix(1.0, 0.0, 0.0, 1.0, 0.0, -14.85)">
      <path d="M-0.1 40.6 L-0.1 94.6 7.25 94.75 Q42.65 92.3 86.1 85.65 139.2 78.65 225.1 90.25 L248.1 92.85 Q319.35 100.5 356.65 98.05 367.45 97.35 377.95 96.8 L418.55 94.65 Q432.95 93.95 442.85 95.0 L447.95 95.15 447.95 39.0 447.6 38.95 Q439.45 38.4 423.15 39.55 407.7 40.4 376.3 45.7 L365.6 47.45 Q324.3 54.3 238.65 44.5 L229.95 43.55 Q151.65 34.7 96.1 37.8 40.9 41.5 0.0 40.7" fill="#cc65e7" fill-opacity="0.30980393" fill-rule="evenodd" stroke="none"/>
      <path d="M0.0 40.7 Q40.9 41.5 96.1 37.8 151.65 34.7 229.95 43.55 L238.65 44.5 Q324.3 54.3 365.6 47.45 L376.3 45.7 Q407.7 40.4 423.15 39.55 439.45 38.4 447.6 38.95 L447.95 39.0 447.95 95.15 442.85 95.0 Q432.95 93.95 418.55 94.65 L377.95 96.8 Q367.45 97.35 356.65 98.05 319.35 100.5 248.1 92.85 L225.1 90.25 Q139.2 78.65 86.1 85.65 42.65 92.3 7.25 94.75 L-0.1 94.6 -0.1 40.6" fill="none" stroke="#000000" stroke-linecap="round" stroke-linejoin="round" stroke-opacity="0.0" stroke-width="1.0"/>
    </g>
    <g id="morphshape1" transform="matrix(1.0, 0.0, 0.0, 1.0, 0.0, 26.3)">
      <path d="M0.05 -13.1 L0.05 86.85 2.25 108.35 Q13.15 103.85 32.0 106.2 L47.85 108.2 Q70.3 111.35 93.55 115.1 126.4 120.55 185.05 108.2 203.15 104.45 223.8 98.7 308.75 73.8 361.1 88.4 409.75 103.5 447.75 109.1 L448.05 106.35 448.05 6.45 446.5 -8.0 Q405.75 -7.5 350.7 -16.4 298.95 -23.8 227.15 -6.4 L208.35 -1.7 Q123.2 21.6 82.15 6.1 L73.6 2.9 Q40.15 -9.55 24.7 -11.85 8.05 -14.55 0.0 -13.15" fill="#cc65e7" fill-opacity="0.29803923" fill-rule="evenodd" stroke="none"/>
      <path d="M0.0 -13.15 Q8.05 -14.55 24.7 -11.85 40.15 -9.55 73.6 2.9 L82.15 6.1 Q123.2 21.6 208.35 -1.7 L227.15 -6.4 Q298.95 -23.8 350.7 -16.4 405.75 -7.5 446.5 -8.0 L448.05 6.45 448.05 106.35 447.75 109.1 Q409.75 103.5 361.1 88.4 308.75 73.8 223.8 98.7 203.15 104.45 185.05 108.2 126.4 120.55 93.55 115.1 70.3 111.35 47.85 108.2 L32.0 106.2 Q13.15 103.85 2.25 108.35 L0.05 86.85 0.05 -13.1" fill="none" stroke="#000000" stroke-linecap="round" stroke-linejoin="round" stroke-opacity="0.0" stroke-width="1.0"/>
    </g>
    <g id="morphshape2" transform="matrix(1.0, 0.0, 0.0, 1.0, 0.0, -68.25)">
      <path d="M0.05 133.1 L0.05 161.75 2.65 161.6 Q43.75 155.3 84.2 148.8 136.15 141.15 223.7 152.7 234.35 153.95 244.9 155.15 319.1 163.2 356.9 162.15 366.65 161.9 376.15 161.75 L418.65 161.2 Q432.85 161.0 442.65 161.65 L448.0 161.45 448.0 135.65 447.65 132.1 Q439.25 131.75 422.95 133.4 408.5 134.7 380.15 142.2 373.1 144.1 365.95 145.95 325.05 157.0 238.95 144.3 L233.2 143.5 Q152.55 131.45 96.0 132.5 40.85 134.1 0.0 132.95" fill="#cc65e7" fill-opacity="0.29803923" fill-rule="evenodd" stroke="none"/>
      <path d="M0.0 132.95 Q40.85 134.1 96.0 132.5 152.55 131.45 233.2 143.5 L238.95 144.3 Q325.05 157.0 365.95 145.95 373.1 144.1 380.15 142.2 408.5 134.7 422.95 133.4 439.25 131.75 447.65 132.1 L448.0 135.65 448.0 161.45 442.65 161.65 Q432.85 161.0 418.65 161.2 L376.15 161.75 Q366.65 161.9 356.9 162.15 319.1 163.2 244.9 155.15 234.35 153.95 223.7 152.7 136.15 141.15 84.2 148.8 43.75 155.3 2.65 161.6 L0.05 161.75 0.05 133.1" fill="none" stroke="#000000" stroke-linecap="round" stroke-linejoin="round" stroke-opacity="0.0" stroke-width="1.0"/>
    </g>
  </defs>
</svg>
