<?xml version="1.0" encoding="UTF-8" standalone="no"?>
<svg xmlns:xlink="http://www.w3.org/1999/xlink" height="196.95px" width="448.0px" xmlns="http://www.w3.org/2000/svg">
  <g transform="matrix(1.0, 0.0, 0.0, 1.0, 0.0, 26.3)">
    <use data-characterId="276" height="86.45" transform="matrix(1.0, 0.0, 0.0, 1.0, 0.0, 14.85)" width="448.0" xlink:href="#morphshape0"/>
    <use data-characterId="277" height="154.3" transform="matrix(1.0, 0.0, 0.0, 1.0, 0.0, -23.35)" width="448.0" xlink:href="#morphshape1"/>
    <use data-characterId="278" height="76.4" transform="matrix(1.0, 0.0, 0.0, 1.0, 0.0, 68.25)" width="448.0" xlink:href="#morphshape2"/>
  </g>
  <defs>
    <g id="morphshape0" transform="matrix(1.0, 0.0, 0.0, 1.0, 0.0, -14.85)">
      <path d="M0.0 27.8 L0.0 82.2 3.7 86.4 Q43.3 88.5 84.25 87.05 154.2 87.75 226.7 90.35 L249.85 89.95 Q319.45 87.6 358.85 87.0 370.2 86.85 380.35 87.3 L421.05 89.4 Q434.4 90.0 445.45 91.5 L448.0 88.75 448.0 32.2 447.8 31.95 Q439.1 31.95 423.3 32.2 403.5 31.65 375.7 33.4 L364.9 33.85 Q320.15 36.15 236.8 38.7 L228.2 39.05 Q158.9 40.4 94.8 36.8 44.95 35.5 0.0 27.9" fill="#cc65e7" fill-opacity="0.3529412" fill-rule="evenodd" stroke="none"/>
      <path d="M0.0 27.9 Q44.95 35.5 94.8 36.8 158.9 40.4 228.2 39.05 L236.8 38.7 Q320.15 36.15 364.9 33.85 L375.7 33.4 Q403.5 31.65 423.3 32.2 439.1 31.95 447.8 31.95 L448.0 32.2 448.0 88.75 445.45 91.5 Q434.4 90.0 421.05 89.4 L380.35 87.3 Q370.2 86.85 358.85 87.0 319.45 87.6 249.85 89.95 L226.7 90.35 Q154.2 87.75 84.25 87.05 43.3 88.5 3.7 86.4 L0.0 82.2 0.0 27.8" fill="none" stroke="#000000" stroke-linecap="round" stroke-linejoin="round" stroke-opacity="0.0" stroke-width="1.0"/>
    </g>
    <g id="morphshape1" transform="matrix(1.0, 0.0, 0.0, 1.0, 0.0, 23.35)">
      <path d="M0.05 8.2 L0.05 106.05 11.95 114.25 Q24.4 110.3 40.85 109.85 L56.55 109.05 Q76.8 108.5 101.1 111.2 135.6 115.1 190.65 115.5 208.5 115.85 229.15 113.9 299.05 103.5 362.65 106.35 406.0 112.15 446.95 109.95 L448.0 108.75 448.0 10.9 Q443.55 8.95 439.15 6.8 395.3 16.7 346.45 16.0 287.9 18.1 224.5 18.8 L205.45 18.55 Q125.1 20.2 81.9 14.45 L73.4 13.4 Q41.85 9.35 24.35 8.8 8.6 7.95 0.0 8.2" fill="#cc65e7" fill-opacity="0.29803923" fill-rule="evenodd" stroke="none"/>
      <path d="M0.0 8.2 Q8.6 7.95 24.35 8.8 41.85 9.35 73.4 13.4 L81.9 14.45 Q125.1 20.2 205.45 18.55 L224.5 18.8 Q287.9 18.1 346.45 16.0 395.3 16.7 439.15 6.8 443.55 8.95 448.0 10.9 L448.0 108.75 446.95 109.95 Q406.0 112.15 362.65 106.35 299.05 103.5 229.15 113.9 208.5 115.85 190.65 115.5 135.6 115.1 101.1 111.2 76.8 108.5 56.55 109.05 L40.85 109.85 Q24.4 110.3 11.95 114.25 L0.05 106.05 0.05 8.2" fill="none" stroke="#000000" stroke-linecap="round" stroke-linejoin="round" stroke-opacity="0.0" stroke-width="1.0"/>
    </g>
    <g id="morphshape2" transform="matrix(1.0, 0.0, 0.0, 1.0, 0.0, -68.25)">
      <path d="M-0.05 89.15 L-0.05 117.9 1.25 119.3 Q44.5 117.85 84.55 115.2 153.75 112.7 226.9 114.55 237.85 114.4 248.2 114.05 320.3 111.5 360.2 113.0 370.3 113.35 379.45 114.3 L421.45 118.9 Q434.5 120.1 445.3 121.75 L448.0 118.75 448.0 92.9 446.15 91.15 Q435.7 91.05 421.25 91.95 402.95 92.6 377.65 96.35 370.7 97.3 363.35 98.35 318.8 104.75 235.85 105.45 L230.15 105.55 Q159.4 104.95 94.05 99.65 44.6 97.0 0.0 89.1" fill="#cc65e7" fill-opacity="0.29803923" fill-rule="evenodd" stroke="none"/>
      <path d="M0.0 89.1 Q44.6 97.0 94.05 99.65 159.4 104.95 230.15 105.55 L235.85 105.45 Q318.8 104.75 363.35 98.35 370.7 97.3 377.65 96.35 402.95 92.6 421.25 91.95 435.7 91.05 446.15 91.15 L448.0 92.9 448.0 118.75 445.3 121.75 Q434.5 120.1 421.45 118.9 L379.45 114.3 Q370.3 113.35 360.2 113.0 320.3 111.5 248.2 114.05 237.85 114.4 226.9 114.55 153.75 112.7 84.55 115.2 44.5 117.85 1.25 119.3 L-0.05 117.9 -0.05 89.15" fill="none" stroke="#000000" stroke-linecap="round" stroke-linejoin="round" stroke-opacity="0.0" stroke-width="1.0"/>
    </g>
  </defs>
</svg>
