<?xml version="1.0" encoding="UTF-8" standalone="no"?>
<svg xmlns:xlink="http://www.w3.org/1999/xlink" height="196.95px" width="448.0px" xmlns="http://www.w3.org/2000/svg">
  <g transform="matrix(1.0, 0.0, 0.0, 1.0, 0.0, 26.3)">
    <use data-characterId="276" height="86.45" transform="matrix(1.0, 0.0, 0.0, 1.0, 0.0, 14.85)" width="448.0" xlink:href="#morphshape0"/>
    <use data-characterId="277" height="154.3" transform="matrix(1.0, 0.0, 0.0, 1.0, 0.0, -23.35)" width="448.0" xlink:href="#morphshape1"/>
    <use data-characterId="278" height="76.4" transform="matrix(1.0, 0.0, 0.0, 1.0, 0.0, 68.25)" width="448.0" xlink:href="#morphshape2"/>
  </g>
  <defs>
    <g id="morphshape0" transform="matrix(1.0, 0.0, 0.0, 1.0, 0.0, -14.85)">
      <path d="M0.0 30.65 L0.0 84.95 4.45 88.35 Q43.2 89.5 84.65 86.95 151.15 86.05 226.4 90.5 L249.55 90.75 Q319.5 90.4 358.5 89.45 369.7 89.15 379.9 89.4 L420.55 90.6 Q434.1 90.95 444.9 92.35 L448.0 90.2 448.0 33.7 447.8 33.5 Q439.2 33.4 423.3 33.8 404.4 33.55 375.85 36.0 L365.1 36.75 Q321.05 39.95 237.25 40.0 L228.6 40.05 Q157.45 39.3 95.1 37.05 44.15 36.8 0.0 30.55" fill="#cc65e7" fill-opacity="0.34509805" fill-rule="evenodd" stroke="none"/>
      <path d="M0.0 30.55 Q44.15 36.8 95.1 37.05 157.45 39.3 228.6 40.05 L237.25 40.0 Q321.05 39.95 365.1 36.75 L375.85 36.0 Q404.4 33.55 423.3 33.8 439.2 33.4 447.8 33.5 L448.0 33.7 448.0 90.2 444.9 92.35 Q434.1 90.95 420.55 90.6 L379.9 89.4 Q369.7 89.15 358.5 89.45 319.5 90.4 249.55 90.75 L226.4 90.5 Q151.15 86.05 84.65 86.95 43.2 89.5 4.45 88.35 L0.0 84.95 0.0 30.65" fill="none" stroke="#000000" stroke-linecap="round" stroke-linejoin="round" stroke-opacity="0.0" stroke-width="1.0"/>
    </g>
    <g id="morphshape1" transform="matrix(1.0, 0.0, 0.0, 1.0, 0.0, 23.35)">
      <path d="M-0.05 4.35 L-0.05 102.7 9.9 113.6 Q22.05 109.55 39.0 109.65 L54.75 109.45 Q75.45 109.7 99.5 112.6 133.7 116.85 189.55 114.4 207.45 113.8 228.15 111.0 301.25 97.3 362.5 102.9 406.8 110.95 447.15 110.35 L448.0 109.0 448.0 10.65 Q444.25 7.55 440.6 4.3 397.35 12.25 347.25 9.9 290.15 10.05 225.1 14.15 L206.0 14.9 Q124.65 20.95 81.85 13.2 L73.4 11.75 Q41.4 6.0 24.35 5.1 8.45 3.85 0.0 4.35" fill="#cc65e7" fill-opacity="0.29803923" fill-rule="evenodd" stroke="none"/>
      <path d="M0.0 4.35 Q8.45 3.85 24.35 5.1 41.4 6.0 73.4 11.75 L81.85 13.2 Q124.65 20.95 206.0 14.9 L225.1 14.15 Q290.15 10.05 347.25 9.9 397.35 12.25 440.6 4.3 444.25 7.55 448.0 10.65 L448.0 109.0 447.15 110.35 Q406.8 110.95 362.5 102.9 301.25 97.3 228.15 111.0 207.45 113.8 189.55 114.4 133.7 116.85 99.5 112.6 75.45 109.7 54.75 109.45 L39.0 109.65 Q22.05 109.55 9.9 113.6 L-0.05 102.7 -0.05 4.35" fill="none" stroke="#000000" stroke-linecap="round" stroke-linejoin="round" stroke-opacity="0.0" stroke-width="1.0"/>
    </g>
    <g id="morphshape2" transform="matrix(1.0, 0.0, 0.0, 1.0, 0.0, -68.25)">
      <path d="M0.05 93.25 L0.05 121.95 1.65 123.05 Q44.5 120.6 84.6 117.15 150.3 113.6 226.35 117.45 237.2 117.6 247.6 117.55 320.15 117.2 359.6 118.2 369.6 118.45 378.8 119.2 L420.9 122.75 Q434.15 123.7 444.75 125.15 L448.0 122.75 448.0 96.9 446.45 94.8 Q436.45 94.65 421.65 95.7 404.1 96.45 378.15 101.0 371.2 102.1 363.85 103.35 320.05 110.7 236.5 108.65 L230.8 108.55 Q158.0 105.6 94.45 101.6 43.8 99.85 0.0 93.3" fill="#cc65e7" fill-opacity="0.29803923" fill-rule="evenodd" stroke="none"/>
      <path d="M0.0 93.3 Q43.8 99.85 94.45 101.6 158.0 105.6 230.8 108.55 L236.5 108.65 Q320.05 110.7 363.85 103.35 371.2 102.1 378.15 101.0 404.1 96.45 421.65 95.7 436.45 94.65 446.45 94.8 L448.0 96.9 448.0 122.75 444.75 125.15 Q434.15 123.7 420.9 122.75 L378.8 119.2 Q369.6 118.45 359.6 118.2 320.15 117.2 247.6 117.55 237.2 117.6 226.35 117.45 150.3 113.6 84.6 117.15 44.5 120.6 1.65 123.05 L0.05 121.95 0.05 93.25" fill="none" stroke="#000000" stroke-linecap="round" stroke-linejoin="round" stroke-opacity="0.0" stroke-width="1.0"/>
    </g>
  </defs>
</svg>
