<?xml version="1.0" encoding="UTF-8" standalone="no"?>
<svg xmlns:xlink="http://www.w3.org/1999/xlink" height="196.95px" width="448.0px" xmlns="http://www.w3.org/2000/svg">
  <g transform="matrix(1.0, 0.0, 0.0, 1.0, 0.0, 26.3)">
    <use data-characterId="276" height="86.45" transform="matrix(1.0, 0.0, 0.0, 1.0, 0.0, 14.85)" width="448.0" xlink:href="#morphshape0"/>
    <use data-characterId="277" height="154.3" transform="matrix(1.0, 0.0, 0.0, 1.0, 0.0, -23.35)" width="448.0" xlink:href="#morphshape1"/>
    <use data-characterId="278" height="76.4" transform="matrix(1.0, 0.0, 0.0, 1.0, 0.0, 68.25)" width="448.0" xlink:href="#morphshape2"/>
  </g>
  <defs>
    <g id="morphshape0" transform="matrix(1.0, 0.0, 0.0, 1.0, 0.0, -14.85)">
      <path d="M-0.05 20.05 L-0.05 74.7 1.45 81.4 Q43.65 86.3 83.05 88.0 163.3 93.4 227.6 90.5 L250.9 88.3 Q319.5 79.8 360.25 80.4 371.9 80.55 381.8 81.65 L422.5 86.3 Q435.2 87.7 446.95 89.45 L448.0 84.95 448.0 28.1 447.95 27.75 Q438.9 28.1 423.4 27.75 400.95 26.35 375.35 25.9 L364.55 25.6 Q317.7 25.05 235.8 35.2 L227.2 36.3 Q163.4 43.9 94.05 36.2 47.45 31.9 0.0 20.1" fill="#cc65e7" fill-opacity="0.38039216" fill-rule="evenodd" stroke="none"/>
      <path d="M0.0 20.1 Q47.45 31.9 94.05 36.2 163.4 43.9 227.2 36.3 L235.8 35.2 Q317.7 25.05 364.55 25.6 L375.35 25.9 Q400.95 26.35 423.4 27.75 438.9 28.1 447.95 27.75 L448.0 28.1 448.0 84.95 446.95 89.45 Q435.2 87.7 422.5 86.3 L381.8 81.65 Q371.9 80.55 360.25 80.4 319.5 79.8 250.9 88.3 L227.6 90.5 Q163.3 93.4 83.05 88.0 43.65 86.3 1.45 81.4 L-0.05 74.7 -0.05 20.05" fill="none" stroke="#000000" stroke-linecap="round" stroke-linejoin="round" stroke-opacity="0.0" stroke-width="1.0"/>
    </g>
    <g id="morphshape1" transform="matrix(1.0, 0.0, 0.0, 1.0, 0.0, 23.35)">
      <path d="M-0.1 19.7 L-0.1 116.2 17.8 116.35 Q31.2 112.75 46.2 110.55 L61.65 108.1 Q80.6 105.3 105.6 107.35 141.15 110.35 193.95 119.15 211.5 122.2 232.0 122.85 292.45 122.5 363.25 116.95 403.6 115.85 446.35 108.9 L447.9 108.15 447.9 11.65 Q441.2 13.1 434.6 14.25 388.8 29.85 343.75 34.2 281.0 42.1 222.7 32.65 L203.65 29.3 Q126.2 17.7 81.65 17.9 L73.1 18.1 Q42.75 19.25 24.05 19.8 8.9 20.05 0.0 19.6" fill="#cc65e7" fill-opacity="0.29803923" fill-rule="evenodd" stroke="none"/>
      <path d="M0.0 19.6 Q8.9 20.05 24.05 19.8 42.75 19.25 73.1 18.1 L81.65 17.9 Q126.2 17.7 203.65 29.3 L222.7 32.65 Q281.0 42.1 343.75 34.2 388.8 29.85 434.6 14.25 441.2 13.1 447.9 11.65 L447.9 108.15 446.35 108.9 Q403.6 115.85 363.25 116.95 292.45 122.5 232.0 122.85 211.5 122.2 193.95 119.15 141.15 110.35 105.6 107.35 80.6 105.3 61.65 108.1 L46.2 110.55 Q31.2 112.75 17.8 116.35 L-0.1 116.2 -0.1 19.7" fill="none" stroke="#000000" stroke-linecap="round" stroke-linejoin="round" stroke-opacity="0.0" stroke-width="1.0"/>
    </g>
    <g id="morphshape2" transform="matrix(1.0, 0.0, 0.0, 1.0, 0.0, -68.25)">
      <path d="M-0.05 76.65 L-0.05 105.4 0.5 107.75 Q45.1 109.25 84.85 108.95 164.6 109.6 228.9 105.5 240.0 104.5 250.25 103.2 321.05 94.2 362.2 97.25 372.5 98.0 381.4 99.65 L423.1 107.4 Q435.4 109.5 446.85 111.75 L447.95 107.05 447.95 81.15 445.15 80.5 Q433.5 80.55 420.25 80.95 399.55 81.15 376.1 82.65 369.25 83.0 361.75 83.6 314.95 87.15 233.95 96.05 L228.3 96.7 Q163.6 103.1 92.85 93.9 46.85 88.7 0.0 76.6" fill="#cc65e7" fill-opacity="0.29803923" fill-rule="evenodd" stroke="none"/>
      <path d="M0.0 76.6 Q46.85 88.7 92.85 93.9 163.6 103.1 228.3 96.7 L233.95 96.05 Q314.95 87.15 361.75 83.6 369.25 83.0 376.1 82.65 399.55 81.15 420.25 80.95 433.5 80.55 445.15 80.5 L447.95 81.15 447.95 107.05 446.85 111.75 Q435.4 109.5 423.1 107.4 L381.4 99.65 Q372.5 98.0 362.2 97.25 321.05 94.2 250.25 103.2 240.0 104.5 228.9 105.5 164.6 109.6 84.85 108.95 45.1 109.25 0.5 107.75 L-0.05 105.4 -0.05 76.65" fill="none" stroke="#000000" stroke-linecap="round" stroke-linejoin="round" stroke-opacity="0.0" stroke-width="1.0"/>
    </g>
  </defs>
</svg>
