<?xml version="1.0" encoding="UTF-8" standalone="no"?>
<svg xmlns:xlink="http://www.w3.org/1999/xlink" height="196.95px" width="448.0px" xmlns="http://www.w3.org/2000/svg">
  <g transform="matrix(1.0, 0.0, 0.0, 1.0, 0.0, 26.3)">
    <use data-characterId="265" height="86.45" transform="matrix(1.0, 0.0, 0.0, 1.0, 0.0, 14.85)" width="448.0" xlink:href="#morphshape0"/>
    <use data-characterId="266" height="157.25" transform="matrix(1.0, 0.0, 0.0, 1.0, 0.0, -26.3)" width="448.0" xlink:href="#morphshape1"/>
    <use data-characterId="267" height="102.4" transform="matrix(1.0, 0.0, 0.0, 1.0, 0.0, 68.25)" width="448.0" xlink:href="#morphshape2"/>
  </g>
  <defs>
    <g id="morphshape0" transform="matrix(1.0, 0.0, 0.0, 1.0, 0.0, -14.85)">
      <path d="M-0.05 29.3 L-0.05 83.65 4.0 87.45 Q43.2 89.1 84.4 87.1 152.65 87.0 226.5 90.5 L249.65 90.4 Q319.4 89.05 358.6 88.3 369.9 88.1 380.05 88.45 L420.75 90.1 Q434.2 90.6 445.15 92.05 L447.95 89.6 447.95 33.05 447.75 32.8 Q439.1 32.75 423.25 33.05 403.9 32.65 375.75 34.75 L364.95 35.35 Q320.55 38.1 237.0 39.4 L228.4 39.6 Q158.2 39.9 94.95 36.95 44.55 36.15 0.0 29.2" fill="#cc65e7" fill-opacity="0.34901962" fill-rule="evenodd" stroke="none"/>
      <path d="M0.0 29.2 Q44.55 36.15 94.95 36.95 158.2 39.9 228.4 39.6 L237.0 39.4 Q320.55 38.1 364.95 35.35 L375.75 34.75 Q403.9 32.65 423.25 33.05 439.1 32.75 447.75 32.8 L447.95 33.05 447.95 89.6 445.15 92.05 Q434.2 90.6 420.75 90.1 L380.05 88.45 Q369.9 88.1 358.6 88.3 319.4 89.05 249.65 90.4 L226.5 90.5 Q152.65 87.0 84.4 87.1 43.2 89.1 4.0 87.45 L-0.05 83.65 -0.05 29.3" fill="none" stroke="#000000" stroke-linecap="round" stroke-linejoin="round" stroke-opacity="0.0" stroke-width="1.0"/>
    </g>
    <g id="morphshape1" transform="matrix(1.0, 0.0, 0.0, 1.0, 0.0, 26.3)">
      <path d="M0.1 4.85 L0.1 102.85 11.1 112.45 Q23.4 108.45 40.1 108.25 L55.65 107.75 Q76.2 107.6 100.55 110.45 134.9 114.55 190.2 114.1 207.85 114.15 228.2 112.05 299.35 101.05 361.95 104.25 406.05 110.15 446.7 108.75 L448.1 106.95 448.1 8.95 440.35 3.9 Q396.7 12.9 347.15 11.4 289.1 12.65 224.7 15.05 L205.95 15.3 Q125.05 19.1 82.0 12.35 L73.35 11.05 Q41.7 6.15 24.4 5.5 8.55 4.45 0.0 4.8" fill="#cc65e7" fill-opacity="0.29803923" fill-rule="evenodd" stroke="none"/>
      <path d="M0.0 4.8 Q8.55 4.45 24.4 5.5 41.7 6.15 73.35 11.05 L82.0 12.35 Q125.05 19.1 205.95 15.3 L224.7 15.05 Q289.1 12.65 347.15 11.4 396.7 12.9 440.35 3.9 L448.1 8.95 448.1 106.95 446.7 108.75 Q406.05 110.15 361.95 104.25 299.35 101.05 228.2 112.05 207.85 114.15 190.2 114.1 134.9 114.55 100.55 110.45 76.2 107.6 55.65 107.75 L40.1 108.25 Q23.4 108.45 11.1 112.45 L0.1 102.85 0.1 4.85" fill="none" stroke="#000000" stroke-linecap="round" stroke-linejoin="round" stroke-opacity="0.0" stroke-width="1.0"/>
    </g>
    <g id="morphshape2" transform="matrix(1.0, 0.0, 0.0, 1.0, 0.0, -68.25)">
      <path d="M0.1 104.1 L0.1 132.85 1.55 134.1 Q44.6 132.15 84.65 129.1 152.1 126.1 226.7 128.95 237.6 128.95 247.95 128.75 320.25 127.3 359.95 128.55 370.0 128.85 379.15 129.7 L421.2 133.8 Q434.35 134.9 445.05 136.45 L448.0 133.75 448.0 107.9 446.3 106.0 Q436.05 105.9 421.45 106.85 403.5 107.55 377.9 111.7 370.95 112.7 363.6 113.85 319.4 120.7 236.15 120.05 L230.45 120.05 Q158.7 118.3 94.25 113.65 44.2 111.45 0.0 104.2" fill="#cc65e7" fill-opacity="0.29803923" fill-rule="evenodd" stroke="none"/>
      <path d="M0.0 104.2 Q44.2 111.45 94.25 113.65 158.7 118.3 230.45 120.05 L236.15 120.05 Q319.4 120.7 363.6 113.85 370.95 112.7 377.9 111.7 403.5 107.55 421.45 106.85 436.05 105.9 446.3 106.0 L448.0 107.9 448.0 133.75 445.05 136.45 Q434.35 134.9 421.2 133.8 L379.15 129.7 Q370.0 128.85 359.95 128.55 320.25 127.3 247.95 128.75 237.6 128.95 226.7 128.95 152.1 126.1 84.65 129.1 44.6 132.15 1.55 134.1 L0.1 132.85 0.1 104.1" fill="none" stroke="#000000" stroke-linecap="round" stroke-linejoin="round" stroke-opacity="0.0" stroke-width="1.0"/>
    </g>
  </defs>
</svg>
