<?xml version="1.0" encoding="UTF-8" standalone="no"?>
<svg xmlns:xlink="http://www.w3.org/1999/xlink" height="196.95px" width="448.0px" xmlns="http://www.w3.org/2000/svg">
  <g transform="matrix(1.0, 0.0, 0.0, 1.0, 0.0, 26.3)">
    <use data-characterId="276" height="86.45" transform="matrix(1.0, 0.0, 0.0, 1.0, 0.0, 14.85)" width="448.0" xlink:href="#morphshape0"/>
    <use data-characterId="277" height="154.3" transform="matrix(1.0, 0.0, 0.0, 1.0, 0.0, -23.35)" width="448.0" xlink:href="#morphshape1"/>
    <use data-characterId="278" height="76.4" transform="matrix(1.0, 0.0, 0.0, 1.0, 0.0, 68.25)" width="448.0" xlink:href="#morphshape2"/>
  </g>
  <defs>
    <g id="morphshape0" transform="matrix(1.0, 0.0, 0.0, 1.0, 0.0, -14.85)">
      <path d="M0.05 35.7 L0.05 89.85 6.0 91.6 Q43.05 90.9 85.5 86.25 145.1 82.2 225.8 90.35 L248.85 91.8 Q319.5 95.55 357.6 93.8 368.6 93.3 378.95 93.15 L419.6 92.65 Q433.6 92.45 443.95 93.65 L448.05 92.7 448.05 36.4 447.75 36.3 Q439.4 35.95 423.3 36.75 406.15 37.05 376.15 40.95 L365.4 42.2 Q322.75 47.3 238.0 42.3 L229.35 41.85 Q154.5 36.95 95.65 37.45 42.5 39.2 0.0 35.75" fill="#cc65e7" fill-opacity="0.3254902" fill-rule="evenodd" stroke="none"/>
      <path d="M0.0 35.75 Q42.5 39.2 95.65 37.45 154.5 36.95 229.35 41.85 L238.0 42.3 Q322.75 47.3 365.4 42.2 L376.15 40.95 Q406.15 37.05 423.3 36.75 439.4 35.95 447.75 36.3 L448.05 36.4 448.05 92.7 443.95 93.65 Q433.6 92.45 419.6 92.65 L378.95 93.15 Q368.6 93.3 357.6 93.8 319.5 95.55 248.85 91.8 L225.8 90.35 Q145.1 82.2 85.5 86.25 43.05 90.9 6.0 91.6 L0.05 89.85 0.05 35.7" fill="none" stroke="#000000" stroke-linecap="round" stroke-linejoin="round" stroke-opacity="0.0" stroke-width="1.0"/>
    </g>
    <g id="morphshape1" transform="matrix(1.0, 0.0, 0.0, 1.0, 0.0, 23.35)">
      <path d="M0.1 -3.25 L0.1 96.0 6.05 112.3 Q17.55 108.0 35.5 109.25 L51.4 110.15 Q72.95 111.9 96.5 115.2 130.0 120.05 187.35 112.0 205.45 109.6 226.25 105.05 305.65 84.65 362.1 95.85 408.4 108.5 447.55 111.1 L448.05 109.45 448.05 10.2 Q445.8 4.85 443.6 -0.6 401.65 3.55 349.05 -2.15 294.75 -5.9 226.3 5.0 L207.2 7.8 Q123.9 22.7 82.0 10.95 L73.6 8.65 Q40.8 -0.55 24.55 -2.2 8.25 -4.2 0.0 -3.25" fill="#cc65e7" fill-opacity="0.29803923" fill-rule="evenodd" stroke="none"/>
      <path d="M0.0 -3.25 Q8.25 -4.2 24.55 -2.2 40.8 -0.55 73.6 8.65 L82.0 10.95 Q123.9 22.7 207.2 7.8 L226.3 5.0 Q294.75 -5.9 349.05 -2.15 401.65 3.55 443.6 -0.6 445.8 4.85 448.05 10.2 L448.05 109.45 447.55 111.1 Q408.4 108.5 362.1 95.85 305.65 84.65 226.25 105.05 205.45 109.6 187.35 112.0 130.0 120.05 96.5 115.2 72.95 111.9 51.4 110.15 L35.5 109.25 Q17.55 108.0 6.05 112.3 L0.1 96.0 0.1 -3.25" fill="none" stroke="#000000" stroke-linecap="round" stroke-linejoin="round" stroke-opacity="0.0" stroke-width="1.0"/>
    </g>
    <g id="morphshape2" transform="matrix(1.0, 0.0, 0.0, 1.0, 0.0, -68.25)">
      <path d="M0.05 101.7 L0.05 130.4 2.15 130.85 Q44.1 126.4 84.4 121.4 143.05 115.75 225.0 123.55 235.75 124.25 246.25 124.85 319.65 128.8 358.25 128.75 368.1 128.75 377.45 129.05 L419.75 130.5 Q433.5 130.85 443.7 131.9 L448.05 130.65 448.05 104.8 447.1 101.95 Q437.9 101.7 422.3 103.05 406.35 104.1 379.15 110.15 372.15 111.65 364.9 113.2 322.6 122.45 237.75 114.95 L232.05 114.5 Q155.2 106.85 95.25 105.45 42.3 105.4 0.0 101.65" fill="#cc65e7" fill-opacity="0.29803923" fill-rule="evenodd" stroke="none"/>
      <path d="M0.0 101.65 Q42.3 105.4 95.25 105.45 155.2 106.85 232.05 114.5 L237.75 114.95 Q322.6 122.45 364.9 113.2 372.15 111.65 379.15 110.15 406.35 104.1 422.3 103.05 437.9 101.7 447.1 101.95 L448.05 104.8 448.05 130.65 443.7 131.9 Q433.5 130.85 419.75 130.5 L377.45 129.05 Q368.1 128.75 358.25 128.75 319.65 128.8 246.25 124.85 235.75 124.25 225.0 123.55 143.05 115.75 84.4 121.4 44.1 126.4 2.15 130.85 L0.05 130.4 0.05 101.7" fill="none" stroke="#000000" stroke-linecap="round" stroke-linejoin="round" stroke-opacity="0.0" stroke-width="1.0"/>
    </g>
  </defs>
</svg>
