<?xml version="1.0" encoding="UTF-8" standalone="no"?>
<svg xmlns:xlink="http://www.w3.org/1999/xlink" height="196.95px" width="448.0px" xmlns="http://www.w3.org/2000/svg">
  <g transform="matrix(1.0, 0.0, 0.0, 1.0, 0.0, 26.3)">
    <use data-characterId="276" height="86.45" transform="matrix(1.0, 0.0, 0.0, 1.0, 0.0, 14.85)" width="448.0" xlink:href="#morphshape0"/>
    <use data-characterId="277" height="154.3" transform="matrix(1.0, 0.0, 0.0, 1.0, 0.0, -23.35)" width="448.0" xlink:href="#morphshape1"/>
    <use data-characterId="278" height="76.4" transform="matrix(1.0, 0.0, 0.0, 1.0, 0.0, 68.25)" width="448.0" xlink:href="#morphshape2"/>
  </g>
  <defs>
    <g id="morphshape0" transform="matrix(1.0, 0.0, 0.0, 1.0, 0.0, -14.85)">
      <path d="M0.05 25.3 L0.05 79.75 3.0 84.8 Q43.45 87.8 83.9 87.4 157.3 89.65 227.1 90.4 L250.3 89.4 Q319.55 85.0 359.4 84.8 370.85 84.75 380.9 85.4 L421.6 88.35 Q434.7 89.25 445.95 90.85 L448.0 87.5 448.0 30.85 447.85 30.55 Q439.0 30.7 423.3 30.75 402.65 29.95 375.55 30.95 L364.75 31.15 Q319.3 32.5 236.45 37.6 L227.85 38.2 Q160.4 41.6 94.55 36.6 45.8 34.3 0.0 25.3" fill="#cc65e7" fill-opacity="0.3647059" fill-rule="evenodd" stroke="none"/>
      <path d="M0.0 25.3 Q45.8 34.3 94.55 36.6 160.4 41.6 227.85 38.2 L236.45 37.6 Q319.3 32.5 364.75 31.15 L375.55 30.95 Q402.65 29.95 423.3 30.75 439.0 30.7 447.85 30.55 L448.0 30.85 448.0 87.5 445.95 90.85 Q434.7 89.25 421.6 88.35 L380.9 85.4 Q370.85 84.75 359.4 84.8 319.55 85.0 250.3 89.4 L227.1 90.4 Q157.3 89.65 83.9 87.4 43.45 87.8 3.0 84.8 L0.05 79.75 0.05 25.3" fill="none" stroke="#000000" stroke-linecap="round" stroke-linejoin="round" stroke-opacity="0.0" stroke-width="1.0"/>
    </g>
    <g id="morphshape1" transform="matrix(1.0, 0.0, 0.0, 1.0, 0.0, 23.35)">
      <path d="M-0.05 11.95 L-0.05 109.35 13.85 114.85 Q26.65 111.05 42.6 110.0 L58.2 108.65 Q78.05 107.35 102.6 109.85 137.45 113.45 191.75 116.65 209.5 117.9 230.1 116.85 296.85 109.8 362.85 109.85 405.2 113.35 446.75 109.55 L447.95 108.5 447.95 11.1 Q442.75 10.25 437.65 9.2 393.15 21.0 345.55 22.0 285.6 26.05 223.9 23.35 L204.85 22.05 Q125.45 19.25 81.8 15.5 L73.3 14.9 Q42.15 12.6 24.25 12.45 8.7 11.95 0.0 12.0" fill="#cc65e7" fill-opacity="0.29803923" fill-rule="evenodd" stroke="none"/>
      <path d="M0.0 12.0 Q8.7 11.95 24.25 12.45 42.15 12.6 73.3 14.9 L81.8 15.5 Q125.45 19.25 204.85 22.05 L223.9 23.35 Q285.6 26.05 345.55 22.0 393.15 21.0 437.65 9.2 442.75 10.25 447.95 11.1 L447.95 108.5 446.75 109.55 Q405.2 113.35 362.85 109.85 296.85 109.8 230.1 116.85 209.5 117.9 191.75 116.65 137.45 113.45 102.6 109.85 78.05 107.35 58.2 108.65 L42.6 110.0 Q26.65 111.05 13.85 114.85 L-0.05 109.35 -0.05 11.95" fill="none" stroke="#000000" stroke-linecap="round" stroke-linejoin="round" stroke-opacity="0.0" stroke-width="1.0"/>
    </g>
    <g id="morphshape2" transform="matrix(1.0, 0.0, 0.0, 1.0, 0.0, -68.25)">
      <path d="M0.0 84.85 L0.0 113.6 1.05 115.35 Q44.75 114.9 84.7 113.0 157.45 111.55 227.65 111.45 238.65 111.05 248.95 110.35 320.65 105.65 360.95 107.7 371.1 108.2 380.15 109.4 L422.05 115.05 Q434.85 116.55 445.85 118.4 L448.0 114.85 448.0 89.0 445.85 87.65 Q435.0 87.6 420.95 88.35 401.85 88.85 377.15 91.85 370.25 92.6 362.85 93.5 317.55 98.95 235.25 102.35 L229.55 102.6 Q160.8 104.35 93.65 97.75 45.35 94.25 0.0 84.95" fill="#cc65e7" fill-opacity="0.29803923" fill-rule="evenodd" stroke="none"/>
      <path d="M0.0 84.95 Q45.35 94.25 93.65 97.75 160.8 104.35 229.55 102.6 L235.25 102.35 Q317.55 98.95 362.85 93.5 370.25 92.6 377.15 91.85 401.85 88.85 420.95 88.35 435.0 87.6 445.85 87.65 L448.0 89.0 448.0 114.85 445.85 118.4 Q434.85 116.55 422.05 115.05 L380.15 109.4 Q371.1 108.2 360.95 107.7 320.65 105.65 248.95 110.35 238.65 111.05 227.65 111.45 157.45 111.55 84.7 113.0 44.75 114.9 1.05 115.35 L0.0 113.6 0.0 84.85" fill="none" stroke="#000000" stroke-linecap="round" stroke-linejoin="round" stroke-opacity="0.0" stroke-width="1.0"/>
    </g>
  </defs>
</svg>
