<?xml version="1.0" encoding="UTF-8" standalone="no"?>
<svg xmlns:xlink="http://www.w3.org/1999/xlink" height="187.65px" width="106.1px" xmlns="http://www.w3.org/2000/svg">
  <g transform="matrix(1.0, 0.0, 0.0, 1.0, 0.0, 1.25)">
    <use data-characterId="273" height="187.65" transform="matrix(1.0, 0.0, 0.0, 1.0, 0.0, -1.25)" width="106.1" xlink:href="#morphshape0"/>
  </g>
  <defs>
    <g id="morphshape0" transform="matrix(1.0, 0.0, 0.0, 1.0, 0.0, 1.25)">
      <path d="M27.0 98.6 L36.35 102.15 Q47.95 106.35 62.45 107.55 51.9 117.1 41.4 126.6 36.1 131.35 33.1 132.8 34.25 132.65 40.65 135.45 45.7 137.75 47.55 138.9 45.3 141.6 31.75 148.15 36.8 148.85 41.85 150.3 52.0 153.15 52.2 156.6 52.45 162.1 50.15 166.7 48.55 169.85 44.9 173.65 42.2 176.6 39.55 179.55 37.25 182.75 37.25 186.05 56.6 182.6 75.95 179.2 76.05 179.1 76.15 179.0 78.35 176.4 79.85 173.25 72.5 172.05 56.45 167.9 78.1 163.8 79.45 162.45 81.35 160.55 82.25 159.2 71.05 155.95 59.85 152.75 58.4 149.45 56.95 146.2 67.8 136.35 78.6 126.5 64.35 126.15 50.15 125.8 71.4 113.35 74.9 110.3 76.85 108.5 78.8 106.75 73.15 103.1 67.5 99.45 62.5 95.9 57.5 92.4 58.6 91.05 64.0 87.0 69.45 82.85 79.6 73.9 L80.05 73.55 Q64.8 66.55 49.55 59.6 63.6 55.4 72.6 53.0 71.75 52.15 70.95 51.3 66.55 47.0 53.25 47.95 56.85 44.4 63.75 35.25 67.15 30.5 70.55 25.8 36.3 16.1 51.55 11.2 69.6 5.3 69.45 1.55 69.4 0.15 68.9 -1.25 53.95 1.4 39.0 4.05 39.2 9.15 36.15 14.65 34.35 17.7 30.9 21.7 30.9 22.25 30.9 22.75 35.6 26.25 40.25 29.75 49.05 36.65 50.7 38.3 49.45 44.4 39.55 54.0 35.9 57.4 32.25 60.75 28.6 64.1 27.75 65.55 28.1 66.0 65.65 74.9 38.9 89.25 27.0 98.6" fill="url(#gradient0)" fill-rule="evenodd" stroke="none"/>
      <path d="M27.0 98.6 Q38.9 89.25 65.65 74.9 28.1 66.0 27.75 65.55 28.6 64.1 32.25 60.75 35.9 57.4 39.55 54.0 49.45 44.4 50.7 38.3 49.05 36.65 40.25 29.75 35.6 26.25 30.9 22.75 30.9 22.25 30.9 21.7 34.35 17.7 36.15 14.65 39.2 9.15 39.0 4.05 53.95 1.4 68.9 -1.25 69.4 0.15 69.45 1.55 69.6 5.3 51.55 11.2 36.3 16.1 70.55 25.8 67.15 30.5 63.75 35.25 56.85 44.4 53.25 47.95 66.55 47.0 70.95 51.3 71.75 52.15 72.6 53.0 63.6 55.4 49.55 59.6 64.8 66.55 80.05 73.55 L79.6 73.9 Q69.45 82.85 64.0 87.0 58.6 91.05 57.5 92.4 62.5 95.9 67.5 99.45 73.15 103.1 78.8 106.75 76.85 108.5 74.9 110.3 71.4 113.35 50.15 125.8 64.35 126.15 78.6 126.5 67.8 136.35 56.95 146.2 58.4 149.45 59.85 152.75 71.05 155.95 82.25 159.2 81.35 160.55 79.45 162.45 78.1 163.8 56.45 167.9 72.5 172.05 79.85 173.25 78.35 176.4 76.15 179.0 76.05 179.1 75.95 179.2 56.6 182.6 37.25 186.05 37.25 182.75 39.55 179.55 42.2 176.6 44.9 173.65 48.55 169.85 50.15 166.7 52.45 162.1 52.2 156.6 52.0 153.15 41.85 150.3 36.8 148.85 31.75 148.15 45.3 141.6 47.55 138.9 45.7 137.75 40.65 135.45 34.25 132.65 33.1 132.8 36.1 131.35 41.4 126.6 51.9 117.1 62.45 107.55 47.95 106.35 36.35 102.15 L27.0 98.6 Z" fill="none" stroke="#000000" stroke-linecap="round" stroke-linejoin="round" stroke-opacity="0.0" stroke-width="1.0"/>
    </g>
    <linearGradient gradientTransform="matrix(0.0066, 0.1056, -0.0329, 0.0074, 53.8, 90.9)" gradientUnits="userSpaceOnUse" id="gradient0" spreadMethod="pad" x1="-819.2" x2="819.2">
      <stop offset="0.0" stop-color="#ffffff" stop-opacity="0.08627451"/>
      <stop offset="0.47843137254901963" stop-color="#ffffff"/>
      <stop offset="1.0" stop-color="#ffffff" stop-opacity="0.02745098"/>
    </linearGradient>
  </defs>
</svg>
