<?xml version="1.0" encoding="UTF-8" standalone="no"?>
<svg xmlns:xlink="http://www.w3.org/1999/xlink" height="187.65px" width="106.1px" xmlns="http://www.w3.org/2000/svg">
  <g transform="matrix(1.0, 0.0, 0.0, 1.0, 0.0, 1.25)">
    <use data-characterId="272" height="187.65" transform="matrix(1.0, 0.0, 0.0, 1.0, 0.0, -1.25)" width="106.1" xlink:href="#morphshape0"/>
  </g>
  <defs>
    <g id="morphshape0" transform="matrix(1.0, 0.0, 0.0, 1.0, 0.0, 1.25)">
      <path d="M13.5 91.75 L18.6 93.6 Q34.85 97.9 47.6 99.35 47.8 105.0 43.7 110.2 40.75 112.95 31.05 118.85 26.8 121.7 25.2 126.05 29.75 127.7 32.65 128.75 35.1 130.85 49.4 135.75 38.75 139.25 28.1 143.1 44.3 147.05 55.55 151.3 54.7 155.95 52.55 160.15 41.7 165.65 29.85 171.45 29.5 173.4 30.1 175.4 30.35 177.4 50.9 176.5 46.15 180.15 49.15 180.6 50.9 181.75 53.3 182.5 54.5 181.25 55.35 179.7 70.0 176.7 80.3 172.25 90.8 168.55 89.0 166.8 89.05 165.45 84.85 163.45 75.4 160.7 67.95 157.9 64.6 154.5 63.5 150.15 68.7 143.5 83.2 135.05 80.6 133.1 78.1 131.55 75.45 124.95 74.8 122.55 77.35 120.7 82.75 117.65 85.55 113.15 83.8 111.15 78.35 109.25 70.4 106.3 60.15 103.2 52.05 98.75 68.1 93.05 83.5 84.1 L92.0 80.25 Q72.3 74.7 38.25 69.8 79.15 55.5 83.95 54.0 82.6 53.1 78.4 51.8 72.45 48.75 62.05 48.35 53.6 44.0 55.25 36.7 58.3 33.15 67.4 25.6 54.2 18.05 65.75 12.95 74.75 9.75 74.65 7.6 70.95 5.7 68.75 3.85 57.8 3.15 49.95 1.95 35.9 6.35 20.25 10.95 19.0 13.25 17.35 15.95 17.6 18.1 35.0 17.45 52.05 18.4 23.65 32.05 31.75 37.1 36.25 39.5 43.0 45.6 41.8 51.4 27.5 55.4 22.1 60.1 19.55 62.4 18.45 63.7 29.7 63.15 59.55 66.8 32.8 80.6 13.5 91.85" fill="url(#gradient0)" fill-rule="evenodd" stroke="none"/>
      <path d="M13.5 91.85 Q32.8 80.6 59.55 66.8 29.7 63.15 18.45 63.7 19.55 62.4 22.1 60.1 27.5 55.4 41.8 51.4 43.0 45.6 36.25 39.5 31.75 37.1 23.65 32.05 52.05 18.4 35.0 17.45 17.6 18.1 17.35 15.95 19.0 13.25 20.25 10.95 35.9 6.35 49.95 1.95 57.8 3.15 68.75 3.85 70.95 5.7 74.65 7.6 74.75 9.75 65.75 12.95 54.2 18.05 67.4 25.6 58.3 33.15 55.25 36.7 53.6 44.0 62.05 48.35 72.45 48.75 78.4 51.8 82.6 53.1 83.95 54.0 79.15 55.5 38.25 69.8 72.3 74.7 92.0 80.25 L83.5 84.1 Q68.1 93.05 52.05 98.75 60.15 103.2 70.4 106.3 78.35 109.25 83.8 111.15 85.55 113.15 82.75 117.65 77.35 120.7 74.8 122.55 75.45 124.95 78.1 131.55 80.6 133.1 83.2 135.05 68.7 143.5 63.5 150.15 64.6 154.5 67.95 157.9 75.4 160.7 84.85 163.45 89.05 165.45 89.0 166.8 90.8 168.55 80.3 172.25 70.0 176.7 55.35 179.7 54.5 181.25 53.3 182.5 50.9 181.75 49.15 180.6 46.15 180.15 50.9 176.5 30.35 177.4 30.1 175.4 29.5 173.4 29.85 171.45 41.7 165.65 52.55 160.15 54.7 155.95 55.55 151.3 44.3 147.05 28.1 143.1 38.75 139.25 49.4 135.75 35.1 130.85 32.65 128.75 29.75 127.7 25.2 126.05 26.8 121.7 31.05 118.85 40.75 112.95 43.7 110.2 47.8 105.0 47.6 99.35 34.85 97.9 18.6 93.6 L13.5 91.75" fill="none" stroke="#000000" stroke-linecap="round" stroke-linejoin="round" stroke-opacity="0.0" stroke-width="1.0"/>
    </g>
    <linearGradient gradientTransform="matrix(0.0103, 0.1076, -0.0476, 0.0077, 53.3, 91.6)" gradientUnits="userSpaceOnUse" id="gradient0" spreadMethod="pad" x1="-819.2" x2="819.2">
      <stop offset="0.0" stop-color="#ffee80" stop-opacity="0.08627451"/>
      <stop offset="0.47843137254901963" stop-color="#ffee80"/>
      <stop offset="1.0" stop-color="#ffee80" stop-opacity="0.02745098"/>
    </linearGradient>
  </defs>
</svg>
