<?xml version="1.0" encoding="UTF-8" standalone="no"?>
<svg xmlns:xlink="http://www.w3.org/1999/xlink" height="94.3px" width="46.75px" xmlns="http://www.w3.org/2000/svg">
  <g transform="matrix(1.0, 0.0, 0.0, 1.0, -93.3, -5.8)">
    <path d="M122.15 14.35 Q124.65 12.15 124.65 8.85 L128.1 6.8 Q128.2 18.5 138.15 24.55 L138.6 30.0 Q139.35 39.3 138.85 48.75 138.5 55.4 137.65 62.0 134.95 82.75 122.05 99.1 107.95 96.75 94.3 92.95 99.5 90.4 103.55 86.3 108.2 81.75 110.9 75.7 113.35 70.05 114.8 63.85 120.45 40.1 118.6 15.6 120.6 15.65 122.15 14.35" fill="url(#gradient0)" fill-rule="evenodd" stroke="none"/>
  </g>
  <defs>
    <linearGradient gradientTransform="matrix(0.0045, 0.0707, -0.0233, 0.0015, 122.75, 19.75)" gradientUnits="userSpaceOnUse" id="gradient0" spreadMethod="pad" x1="-819.2" x2="819.2">
      <stop offset="0.0" stop-color="#ffffff" stop-opacity="0.0"></stop>
      <stop offset="1.0" stop-color="#ffffff"></stop>
    </linearGradient>
  </defs>
</svg>