<?xml version="1.0" encoding="UTF-8" standalone="no"?>
<svg xmlns:xlink="http://www.w3.org/1999/xlink" height="157.2px" width="66.5px" xmlns="http://www.w3.org/2000/svg">
  <g transform="matrix(1.0, 0.0, 0.0, 1.0, -78.2, 63.5)">
    <path d="M84.2 -44.65 L83.2 -46.5 Q80.8 -51.45 79.2 -62.5 81.3 -59.15 82.5 -55.4 83.4 -52.45 84.05 -48.15 L84.2 -44.95 84.2 -44.85 84.2 -44.65" fill="url(#gradient0)" fill-rule="evenodd" stroke="none"/>
    <path d="M120.65 -11.85 Q122.95 -7.3 123.8 -6.4 L124.55 -5.9 124.65 -5.9 125.6 -6.05 126.25 -6.7 126.4 -7.65 126.4 -7.6 124.15 -22.1 Q124.6 -21.75 125.2 -21.8 125.8 -21.85 126.2 -22.3 L126.25 -22.35 Q128.55 -25.1 127.85 -29.9 L127.85 -29.95 125.7 -39.7 127.6 -37.5 127.65 -37.45 129.0 -35.6 Q130.2 -27.55 131.1 -15.75 L131.1 -15.7 Q132.4 -5.0 137.4 8.8 L138.05 9.55 138.1 9.55 139.05 9.75 139.1 9.75 140.0 9.25 Q141.25 7.8 142.2 0.3 L142.25 0.1 Q143.9 12.05 143.65 37.7 143.3 73.3 124.65 92.7 101.8 88.25 82.8 82.9 106.9 75.85 111.75 55.95 L111.75 55.9 Q116.6 35.8 116.0 10.2 L116.0 10.15 Q115.65 -1.5 114.5 -9.85 L115.6 -7.65 115.65 -7.6 118.75 -0.15 118.75 -0.1 119.4 0.6 119.35 0.55 120.3 0.8 120.35 0.8 121.2 0.4 121.65 -0.45 121.85 -1.75 121.85 -1.9 121.85 -1.95 Q121.95 -3.8 121.3 -8.35 L120.65 -11.85 M129.15 -15.85 L128.45 -16.5 128.35 -16.5 Q127.85 -16.7 127.4 -16.5 L127.45 -16.55 126.65 -16.0 126.65 -15.95 Q126.35 -15.55 126.35 -15.05 L126.65 -2.55 126.65 -2.35 126.65 -2.25 Q127.35 2.45 127.75 3.4 L127.8 3.45 Q128.1 4.25 129.8 5.95 L129.75 5.95 Q130.05 6.3 130.55 6.4 L130.6 6.4 131.5 6.25 132.15 5.7 132.1 5.7 132.35 4.85 132.35 4.8 131.15 -10.0 131.15 -9.95 Q130.6 -13.5 129.15 -15.85" fill="url(#gradient1)" fill-rule="evenodd" stroke="none"/>
  </g>
  <defs>
    <linearGradient gradientTransform="matrix(0.0045, 0.0707, -0.0233, 0.0015, 95.3, 4.65)" gradientUnits="userSpaceOnUse" id="gradient0" spreadMethod="pad" x1="-819.2" x2="819.2">
      <stop offset="0.0" stop-color="#ffffff" stop-opacity="0.0"></stop>
      <stop offset="1.0" stop-color="#ffffff"></stop>
    </linearGradient>
    <linearGradient gradientTransform="matrix(0.0045, 0.0707, -0.0233, 0.0015, 123.95, 8.95)" gradientUnits="userSpaceOnUse" id="gradient1" spreadMethod="pad" x1="-819.2" x2="819.2">
      <stop offset="0.0" stop-color="#ffffff" stop-opacity="0.0"></stop>
      <stop offset="1.0" stop-color="#ffffff"></stop>
    </linearGradient>
  </defs>
</svg>