<?xml version="1.0" encoding="UTF-8" standalone="no"?>
<svg xmlns:xlink="http://www.w3.org/1999/xlink" height="11.2px" width="23.5px" xmlns="http://www.w3.org/2000/svg">
  <g transform="matrix(1.0, 0.0, 0.0, 1.0, 33.05, -114.75)">
    <path d="M-32.05 124.25 L-31.85 123.75 -30.7 123.6 Q-30.7 124.35 -30.95 124.75 L-31.7 124.75 -32.05 124.25 M-22.05 123.25 Q-21.35 122.9 -20.65 123.45 -20.05 123.85 -20.05 124.2 -20.05 125.05 -20.3 124.7 L-21.35 124.95 -22.25 124.3 -22.4 123.75 -22.05 123.25 M-28.45 115.9 Q-26.4 115.5 -25.8 116.3 -25.55 116.65 -25.55 117.75 L-25.55 118.5 Q-25.8 119.15 -26.95 119.15 L-28.2 118.9 Q-28.7 118.6 -28.7 117.75 L-28.45 115.9 M-10.55 122.15 L-10.9 122.6 -11.8 123.2 -12.25 122.15 Q-12.0 121.8 -11.5 121.65 -11.0 121.5 -10.6 121.65 L-10.55 121.55 -10.55 122.15" fill="#5b340e" fill-opacity="0.6901961" fill-rule="evenodd" stroke="none"/>
  </g>
</svg>