<?xml version="1.0" encoding="UTF-8" standalone="no"?>
<svg xmlns:xlink="http://www.w3.org/1999/xlink" height="23.85px" width="49.25px" xmlns="http://www.w3.org/2000/svg">
  <g transform="matrix(1.0, 0.0, 0.0, 1.0, 44.15, -102.85)">
    <path d="M-42.45 125.7 L-43.0 125.6 -43.1 125.5 -43.15 124.75 -43.05 124.0 -41.4 124.1 Q-40.65 124.35 -40.65 124.85 -40.65 125.35 -40.8 125.5 L-40.95 125.65 -42.45 125.7 M-26.75 124.95 Q-26.75 124.15 -26.0 123.75 L-25.5 123.9 Q-25.25 124.05 -25.25 124.6 L-26.35 125.65 -26.75 124.95 M-7.0 122.9 L-5.1 123.1 Q-4.3 123.3 -4.3 124.0 L-4.4 124.6 -4.55 124.65 -5.5 124.85 -6.3 125.0 Q-7.35 124.25 -7.35 123.8 -7.35 123.25 -7.15 123.05 L-7.0 122.9 M-20.0 121.5 L-18.9 121.6 -18.9 123.75 -20.65 123.9 Q-21.2 123.9 -21.1 123.7 L-21.0 123.45 -21.15 123.15 -21.15 122.55 -21.1 121.65 -20.0 121.5 M-14.05 104.05 L-11.3 104.2 Q-11.1 104.45 -11.1 105.75 -11.1 106.65 -11.35 107.15 L-12.8 107.25 Q-13.6 107.25 -13.9 106.8 L-14.15 105.4 -14.05 104.05 M1.65 117.95 L2.2 117.85 3.4 118.55 4.1 119.35 Q3.65 120.65 2.65 120.65 1.45 120.65 1.45 118.55 1.45 118.0 1.65 117.95" fill="#5b340e" fill-opacity="0.6901961" fill-rule="evenodd" stroke="none"/>
  </g>
</svg>