<?xml version="1.0" encoding="UTF-8" standalone="no"?>
<svg xmlns:xlink="http://www.w3.org/1999/xlink" height="10.9px" width="26.55px" xmlns="http://www.w3.org/2000/svg">
  <g transform="matrix(1.0, 0.0, 0.0, 1.0, -15.1, -117.5)">
    <path d="M26.65 125.25 L27.85 125.9 27.2 126.9 Q26.6 127.4 25.9 127.4 L25.25 126.5 24.75 125.3 Q24.75 124.75 25.0 124.65 L25.55 124.6 26.65 125.25 M35.35 125.3 Q35.35 126.05 33.95 126.8 L32.2 125.3 Q31.85 125.05 31.85 124.65 31.85 120.6 33.6 122.0 35.35 123.4 35.35 125.3 M35.9 126.2 Q35.8 126.45 35.8 125.6 35.8 123.55 37.3 122.7 39.0 121.7 40.65 124.95 L39.15 125.85 36.55 126.45 35.95 126.35 35.9 126.2 M18.45 126.6 Q18.05 125.95 18.05 125.15 18.05 123.4 19.3 123.75 20.55 124.1 20.55 126.35 L20.55 127.0 20.4 127.15 Q20.65 127.4 19.75 127.4 18.95 127.4 18.45 126.6 M16.35 119.95 L16.85 119.9 Q18.25 120.1 18.25 121.4 L18.0 122.0 16.85 121.95 16.15 121.55 16.1 120.55 Q16.1 120.05 16.35 119.95 M28.1 121.7 L28.7 121.2 Q29.75 121.85 29.75 122.9 29.9 124.75 28.0 124.75 L27.05 124.65 Q26.75 124.5 26.75 123.9 L27.4 123.1 28.0 122.5 28.1 121.7 M24.9 121.45 L23.75 122.05 Q22.2 121.8 22.2 121.1 22.2 119.1 23.95 118.6 25.65 118.1 25.65 120.7 L24.9 121.45" fill="#5b340e" fill-opacity="0.6901961" fill-rule="evenodd" stroke="none"/>
  </g>
</svg>