<?xml version="1.0" encoding="UTF-8" standalone="no"?>
<svg xmlns:xlink="http://www.w3.org/1999/xlink" height="25.5px" width="57.2px" xmlns="http://www.w3.org/2000/svg">
  <g transform="matrix(1.0, 0.0, 0.0, 1.0, 33.1, -100.8)">
    <path d="M-32.1 124.5 L-31.85 123.75 Q-30.8 123.65 -29.85 124.6 L-30.0 124.95 -31.15 125.3 Q-32.05 125.15 -32.1 124.5 M-24.2 115.5 L-23.95 114.95 -22.5 114.85 -21.85 115.55 -21.85 118.05 -23.2 118.15 -24.2 115.5 M-7.25 118.95 L-7.2 118.3 Q-6.05 118.15 -5.0 118.8 L-5.35 120.05 -5.7 120.3 -6.45 120.4 -7.05 120.25 -7.1 120.05 -7.25 118.95 M-18.9 122.75 Q-18.1 122.4 -17.65 122.75 -17.5 123.3 -17.95 123.9 -18.45 124.6 -19.3 124.6 L-20.05 123.7 Q-19.7 123.1 -18.9 122.75 M-8.7 107.15 Q-9.1 107.9 -10.0 107.9 -10.85 107.9 -10.95 107.5 L-11.1 106.6 -11.05 105.7 -8.6 105.55 -8.5 106.35 -8.7 107.15 M7.6 123.05 Q7.1 122.4 7.1 122.05 L7.2 121.45 8.75 121.2 Q10.65 121.2 10.65 122.5 L10.55 123.65 8.5 123.75 7.6 123.05 M5.85 103.45 L5.95 102.05 Q7.2 101.45 7.95 102.35 8.55 103.05 8.55 103.9 L8.45 104.9 6.85 105.2 Q5.85 105.2 5.85 103.45 M21.5 115.9 Q23.1 116.15 23.1 118.05 L22.95 118.7 Q22.6 119.35 21.45 119.35 19.85 119.35 19.85 117.8 19.85 115.7 21.5 115.9" fill="#5b340e" fill-opacity="0.6901961" fill-rule="evenodd" stroke="none"/>
  </g>
</svg>