<?xml version="1.0" encoding="UTF-8" standalone="no"?>
<svg xmlns:xlink="http://www.w3.org/1999/xlink" height="24.6px" width="19.6px" xmlns="http://www.w3.org/2000/svg">
  <g transform="matrix(1.0, 0.0, 0.0, 1.0, 48.75, -100.4)">
    <path d="M-47.75 122.0 L-47.65 121.35 -45.9 121.8 Q-45.2 122.2 -45.2 122.8 L-45.3 123.5 Q-45.5 123.95 -46.45 124.0 -47.45 123.65 -47.6 122.95 -47.6 122.25 -47.75 122.0 M-32.75 120.75 L-33.05 119.7 Q-33.05 117.95 -31.6 118.2 -30.15 118.45 -30.15 120.1 L-30.2 121.5 -32.25 121.5 -32.75 120.75 M-37.55 104.55 Q-37.85 104.95 -39.0 105.1 L-40.6 104.05 -40.75 103.0 Q-40.75 101.7 -39.1 101.45 -37.45 101.15 -37.45 103.9 L-37.55 104.55" fill="#5b340e" fill-opacity="0.6901961" fill-rule="evenodd" stroke="none"/>
  </g>
</svg>