<?xml version="1.0" encoding="UTF-8" standalone="no"?>
<svg xmlns:xlink="http://www.w3.org/1999/xlink" height="26.45px" width="34.8px" xmlns="http://www.w3.org/2000/svg">
  <g transform="matrix(1.0, 0.0, 0.0, 1.0, -32.95, -27.5)">
    <path d="M50.85 28.75 L50.8 28.8 50.5 29.2 50.0 30.0 46.25 33.3 46.0 32.9 45.85 32.7 46.0 32.9 46.25 33.3 46.8 34.2 46.45 34.3 45.95 33.55 45.25 32.35 Q44.0 30.15 43.9 29.4 L45.35 31.7 45.6 32.1 45.8 32.5 45.85 32.7 Q46.65 31.75 48.35 30.4 L48.55 30.2 50.85 28.75 M52.55 34.35 L55.05 33.35 50.7 32.9 49.65 32.45 49.4 32.2 50.55 31.6 50.4 32.0 52.8 31.9 55.8 31.9 64.6 32.65 64.55 32.7 58.65 33.25 55.75 33.4 54.55 34.9 57.3 35.6 54.35 37.3 53.65 37.25 53.1 35.5 52.95 35.25 52.55 34.35 M59.1 34.7 L62.75 37.2 66.15 39.85 65.9 39.75 Q62.7 38.9 60.7 37.7 L56.9 35.0 Q57.1 34.7 58.35 34.65 L59.1 34.7 M36.6 43.7 L35.85 43.65 36.4 43.25 38.65 41.4 39.3 41.3 39.0 42.15 36.9 43.6 36.6 43.7 M35.0 41.35 L33.95 41.25 39.1 37.2 39.05 37.2 39.95 37.0 Q40.2 37.1 40.1 37.6 L39.9 38.3 38.05 39.6 35.6 41.05 35.0 41.35 M36.4 36.6 L35.5 36.35 38.95 35.4 39.6 36.0 39.7 36.0 39.45 36.05 38.35 36.2 37.9 36.3 36.4 36.6 M35.25 28.75 L39.35 32.0 42.1 34.3 42.2 34.4 43.15 35.3 42.35 35.95 41.0 35.05 39.9 34.1 37.2 31.45 Q35.65 29.8 35.25 28.75 M41.25 31.55 L41.3 30.75 43.85 33.7 43.2 33.95 43.0 33.7 42.1 32.7 41.25 31.55" fill="#ffcc00" fill-rule="evenodd" stroke="none"/>
    <path d="M46.25 33.3 L50.0 30.0 50.5 29.2 50.8 28.8 50.85 28.75 50.9 28.75 Q51.3 28.5 51.55 28.5 L50.55 31.6 49.4 32.2 49.65 32.45 50.7 32.9 55.05 33.35 52.55 34.35 51.5 33.2 Q51.15 33.1 50.85 33.45 L50.65 33.7 50.4 34.3 50.6 36.45 47.8 35.5 46.8 34.2 46.25 33.3 M54.35 37.3 L57.3 35.6 54.55 34.9 55.75 33.4 58.65 33.25 64.55 32.7 Q63.6 33.4 62.1 33.65 L58.75 34.35 58.65 34.4 59.1 34.7 58.35 34.65 Q57.1 34.7 56.9 35.0 L60.7 37.7 Q62.7 38.9 65.9 39.75 L66.15 39.85 66.75 40.5 56.9 38.0 56.9 38.05 59.4 42.5 54.75 39.05 54.65 38.7 54.55 38.35 54.5 37.85 54.35 37.3 M38.55 43.85 L36.6 43.7 36.9 43.6 39.0 42.15 38.55 43.85 M38.65 41.4 L35.0 41.35 35.6 41.05 38.05 39.6 39.9 38.3 40.1 37.6 Q40.2 37.1 39.95 37.0 L39.05 37.2 36.4 36.6 37.9 36.3 38.35 36.2 39.45 36.05 39.7 36.0 39.6 36.0 38.95 35.4 37.05 33.05 36.6 32.4 Q35.05 30.05 35.1 28.65 L35.25 28.75 Q35.65 29.8 37.2 31.45 L39.9 34.1 41.0 35.05 42.35 35.95 40.95 36.85 Q40.1 38.6 39.4 40.8 L39.3 41.3 38.65 41.4 M42.2 34.4 L42.15 34.3 Q41.3 32.7 41.25 31.55 L42.1 32.7 43.0 33.7 43.2 33.95 43.85 33.7 44.0 33.6 45.1 33.15 44.9 32.55 44.8 32.4 Q43.65 29.7 43.65 29.3 L43.9 29.4 Q44.0 30.15 45.25 32.35 L45.95 33.55 46.45 34.3 45.85 34.55 46.25 35.45 45.85 35.65 45.5 35.95 45.35 36.1 43.15 35.3 42.2 34.4" fill="#af8c00" fill-rule="evenodd" stroke="none"/>
    <path d="M47.8 35.5 L50.6 36.45 50.4 34.3 50.65 33.7 50.85 33.45 Q51.15 33.1 51.5 33.2 L52.55 34.35 52.95 35.25 53.1 35.5 53.65 37.25 54.35 37.3 54.5 37.85 54.55 38.35 54.3 38.3 53.05 38.2 51.9 37.9 49.6 37.1 48.35 36.45 48.1 36.35 47.9 37.05 47.45 36.95 Q47.0 36.85 46.2 36.0 L45.85 35.65 46.25 35.45 47.35 35.55 47.8 35.5 M53.0 36.55 Q53.0 35.75 52.45 35.05 L51.65 34.25 51.6 34.2 51.55 34.25 Q51.4 34.2 51.3 34.4 L51.25 34.8 51.25 35.3 Q51.15 36.75 52.15 37.65 L52.4 37.85 52.85 37.55 52.95 37.15 53.0 36.55 M44.55 37.2 L44.6 37.05 Q44.85 36.45 45.35 36.1 L45.5 35.95 46.2 36.6 47.65 37.65 47.35 38.5 47.1 38.65 46.55 38.6 Q45.8 38.4 45.1 37.6 L44.9 37.4 44.55 37.2 M44.3 37.75 L44.7 38.1 Q45.5 38.85 46.55 39.3 L46.95 39.4 Q46.2 40.8 45.4 40.6 L44.6 40.05 Q44.05 39.5 44.1 38.7 L44.1 38.6 44.25 38.0 44.3 37.75" fill="#858585" fill-rule="evenodd" stroke="none"/>
    <path d="M53.0 36.55 L52.95 37.15 52.85 37.55 52.8 37.45 52.05 36.85 51.55 36.15 51.25 35.3 51.25 34.8 51.3 34.4 Q51.4 34.2 51.55 34.25 L51.6 34.2 51.5 34.45 Q51.4 35.15 51.95 36.15 L52.65 37.0 Q52.9 37.05 53.0 36.55 M40.95 36.85 L42.35 35.95 42.7 36.15 43.95 36.8 44.55 37.2 44.3 37.75 44.25 38.0 44.1 38.6 44.1 38.7 Q44.0 39.4 44.05 40.25 L40.95 36.85 M46.25 35.45 L45.85 34.55 46.45 34.3 47.35 35.55 46.25 35.45" fill="#129c7a" fill-rule="evenodd" stroke="none"/>
    <path d="M51.6 34.2 L51.65 34.25 52.45 35.05 Q53.0 35.75 53.0 36.55 52.9 37.05 52.65 37.0 L51.95 36.15 Q51.4 35.15 51.5 34.45 L51.6 34.2" fill="#7effde" fill-rule="evenodd" stroke="none"/>
    <path d="M46.8 34.2 L47.8 35.5 47.35 35.55 46.45 34.3 46.8 34.2 M52.85 37.55 L52.4 37.85 52.15 37.65 Q51.15 36.75 51.25 35.3 L51.55 36.15 52.05 36.85 52.8 37.45 52.85 37.55 M42.35 35.95 L43.15 35.3 45.35 36.1 Q44.85 36.45 44.6 37.05 L44.55 37.2 43.95 36.8 42.7 36.15 42.35 35.95" fill="#1fc69c" fill-rule="evenodd" stroke="none"/>
    <path d="M54.75 39.05 L54.8 39.25 54.65 39.25 52.5 38.8 52.45 38.8 48.95 37.25 Q48.4 37.1 47.85 38.45 L47.4 39.55 Q46.7 42.15 45.45 41.8 L44.9 41.5 Q44.35 41.1 44.05 40.25 44.0 39.4 44.1 38.7 44.05 39.5 44.6 40.05 L45.4 40.6 Q46.2 40.8 46.95 39.4 L46.55 39.3 Q45.5 38.85 44.7 38.1 L44.3 37.75 44.55 37.2 44.9 37.4 45.1 37.6 Q45.8 38.4 46.55 38.6 L47.1 38.65 47.35 38.5 47.65 37.65 46.2 36.6 45.5 35.95 45.85 35.65 46.2 36.0 Q47.0 36.85 47.45 36.95 L47.9 37.05 48.1 36.35 48.35 36.45 49.6 37.1 51.9 37.9 53.05 38.2 54.3 38.3 54.55 38.35 54.65 38.7 54.75 39.05" fill="#484848" fill-rule="evenodd" stroke="none"/>
    <path d="M54.65 39.25 L54.65 39.4 54.6 40.1 53.45 39.9 52.7 39.8 Q51.3 39.65 50.65 40.05 L51.15 40.6 50.75 40.45 50.35 40.25 48.95 39.25 50.35 40.25 50.75 40.45 51.15 40.6 51.25 40.65 51.2 40.65 51.1 40.75 50.95 40.75 50.2 40.8 Q49.6 40.65 49.25 40.1 48.95 39.65 48.95 39.25 L48.75 39.0 47.85 38.45 Q48.4 37.1 48.95 37.25 L52.45 38.8 52.5 38.8 54.65 39.25 M53.4 40.95 Q54.2 40.85 54.45 40.4 L54.5 40.4 Q54.5 41.65 53.9 41.45 L53.5 41.15 53.4 40.95 M59.45 46.8 L59.4 47.15 58.7 47.15 57.7 46.35 58.1 46.25 59.15 46.5 59.45 46.8" fill="#980101" fill-rule="evenodd" stroke="none"/>
    <path d="M54.65 39.4 L54.9 40.15 55.5 41.8 55.65 42.2 55.7 42.25 55.0 42.05 54.65 42.0 Q54.5 42.15 55.0 43.25 55.5 44.25 53.75 43.15 51.9 42.05 51.1 41.85 L50.05 41.7 49.8 41.75 48.05 42.2 47.0 42.55 48.3 42.95 47.7 43.55 47.95 43.65 48.05 43.65 48.4 43.85 Q51.4 45.2 53.9 47.4 L54.85 48.3 56.9 50.5 55.3 50.0 53.65 49.05 53.6 49.05 Q52.45 47.95 51.35 47.5 L48.5 46.2 48.35 46.0 47.1 44.95 Q45.7 43.9 44.7 43.35 L43.95 42.95 44.9 41.5 45.45 41.8 Q46.7 42.15 47.4 39.55 L47.85 38.45 48.75 39.0 48.95 39.25 Q48.95 39.65 49.25 40.1 49.6 40.65 50.2 40.8 L50.95 40.75 51.1 40.75 51.2 40.65 51.25 40.65 51.4 40.65 51.5 40.7 52.95 40.95 53.4 40.95 53.5 41.15 53.9 41.45 Q54.5 41.65 54.5 40.4 L54.6 40.1 54.65 39.4" fill="url(#gradient0)" fill-rule="evenodd" stroke="none"/>
    <path d="M55.7 42.25 Q56.3 43.75 57.35 44.55 L61.0 46.3 61.0 47.3 Q60.85 48.2 57.6 52.95 57.5 51.65 57.05 50.7 L57.05 50.65 56.9 50.5 54.85 48.3 53.9 47.4 Q51.4 45.2 48.4 43.85 L48.05 43.65 47.95 43.65 47.7 43.55 48.3 42.95 47.0 42.55 48.05 42.2 49.8 41.75 50.05 41.7 51.1 41.85 Q51.9 42.05 53.75 43.15 55.5 44.25 55.0 43.25 54.5 42.15 54.65 42.0 L55.0 42.05 55.7 42.25 M50.35 43.0 L50.35 43.15 50.6 43.45 50.8 43.35 50.85 43.25 50.35 43.0 M48.7 42.45 L48.3 42.95 48.7 42.45 M51.65 43.05 L51.35 43.25 51.45 43.5 51.75 43.6 51.85 43.5 51.9 43.3 51.65 43.05 M52.15 44.95 L52.25 44.7 52.2 44.6 Q51.8 44.45 51.8 44.6 L51.85 44.85 52.15 44.95 M54.6 44.9 L54.55 44.65 Q54.25 44.6 54.1 44.85 L54.4 45.05 54.6 44.9 M57.7 46.35 L58.7 47.15 59.4 47.15 59.45 46.8 59.15 46.5 58.1 46.25 57.7 46.35" fill="url(#gradient1)" fill-rule="evenodd" stroke="none"/>
    <path d="M39.15 46.05 L38.85 46.0 38.85 45.8 38.85 45.75 38.95 45.7 39.0 45.65 39.25 45.9 39.25 46.0 39.15 46.05 M50.35 43.0 L50.85 43.25 50.8 43.35 50.6 43.45 50.35 43.15 50.35 43.0 M41.25 40.0 L41.55 40.25 41.4 40.55 41.1 40.05 41.25 40.0 M42.65 41.7 L42.6 41.75 42.25 41.65 42.25 41.4 42.6 41.45 42.65 41.7 M41.1 41.35 L41.1 41.05 41.35 41.3 41.1 41.35 M40.55 43.7 L40.3 43.55 40.3 43.4 Q40.55 43.45 40.6 43.6 L40.55 43.7 M51.65 43.05 L51.9 43.3 51.85 43.5 51.75 43.6 51.45 43.5 51.35 43.25 51.65 43.05 M54.6 44.9 L54.4 45.05 54.1 44.85 Q54.25 44.6 54.55 44.65 L54.6 44.9 M52.15 44.95 L51.85 44.85 51.8 44.6 Q51.8 44.45 52.2 44.6 L52.25 44.7 52.15 44.95 M39.65 42.85 L39.75 42.8 39.95 42.95 39.9 43.15 39.8 43.15 39.65 42.85" fill="#ffffcc" fill-rule="evenodd" stroke="none"/>
    <path d="M48.5 46.2 L49.15 48.5 Q49.7 50.4 49.05 52.05 48.65 51.65 47.1 52.55 L46.3 52.9 45.9 51.85 45.4 50.55 44.1 47.3 44.05 47.65 Q43.95 48.5 44.65 50.9 L44.75 51.55 44.8 52.1 44.35 51.65 44.15 51.5 44.0 51.35 41.65 49.75 39.15 46.05 39.25 46.0 39.25 45.9 39.0 45.65 38.95 45.7 38.85 45.75 37.7 44.35 38.55 43.85 39.0 42.15 39.3 41.3 39.4 40.8 Q40.1 38.6 40.95 36.85 L44.05 40.25 Q44.35 41.1 44.9 41.5 L43.95 42.95 44.7 43.35 Q45.7 43.9 47.1 44.95 L48.35 46.0 48.5 46.2 M41.1 41.35 L41.35 41.3 41.1 41.05 41.1 41.35 M42.65 41.7 L42.6 41.45 42.25 41.4 42.25 41.65 42.6 41.75 42.65 41.7 M41.25 40.0 L41.1 40.05 41.4 40.55 41.55 40.25 41.25 40.0 M41.55 47.25 Q41.9 48.65 43.15 49.2 L43.3 47.95 41.7 42.85 Q41.4 45.8 41.45 46.5 L41.45 46.55 41.5 46.9 41.55 47.25 M40.55 43.7 L40.6 43.6 Q40.55 43.45 40.3 43.4 L40.3 43.55 40.55 43.7 M46.35 49.45 L46.2 50.55 46.5 50.6 47.1 50.3 47.4 49.6 47.3 48.05 47.2 47.35 46.35 49.45 M39.65 42.85 L39.8 43.15 39.9 43.15 39.95 42.95 39.75 42.8 39.65 42.85" fill="url(#gradient2)" fill-rule="evenodd" stroke="none"/>
    <path d="M46.3 52.9 L46.05 52.85 44.8 52.1 44.75 51.55 44.65 50.9 Q43.95 48.5 44.05 47.65 L44.1 47.3 45.4 50.55 45.9 51.85 46.3 52.9 M41.55 47.25 L41.5 46.9 41.45 46.55 41.45 46.5 Q41.4 45.8 41.7 42.85 L43.3 47.95 43.15 49.2 Q41.9 48.65 41.55 47.25" fill="url(#gradient3)" fill-rule="evenodd" stroke="none"/>
    <path d="M46.35 49.45 L47.2 47.35 47.3 48.05 47.4 49.6 47.1 50.3 46.5 50.6 46.2 50.55 46.35 49.45" fill="url(#gradient4)" fill-rule="evenodd" stroke="none"/>
    <path d="M51.15 40.6 L50.65 40.05 Q51.3 39.65 52.7 39.8 L53.45 39.9 54.6 40.1 54.5 40.4 54.45 40.4 Q54.2 40.85 53.4 40.95 L52.95 40.95 51.5 40.7 51.4 40.65 51.25 40.65 51.15 40.6" fill="url(#gradient5)" fill-rule="evenodd" stroke="none"/>
    <path d="M50.85 28.75 L48.55 30.2 48.35 30.4 Q46.65 31.75 45.85 32.7 L46.0 32.9 46.25 33.3 46.8 34.2 47.8 35.5 M50.55 31.6 L51.55 28.5 Q51.3 28.5 50.9 28.75 L50.85 28.75 M64.55 32.7 L64.6 32.65 55.8 31.9 52.8 31.9 50.4 32.0 50.55 31.6 M64.55 32.7 Q63.6 33.4 62.1 33.65 L58.75 34.35 58.65 34.4 59.1 34.7 62.75 37.2 66.15 39.85 66.75 40.5 56.9 38.0 56.9 38.05 59.4 42.5 54.75 39.05 M38.55 43.85 L36.6 43.7 35.85 43.65 36.4 43.25 38.65 41.4 35.0 41.35 33.95 41.25 39.1 37.2 39.05 37.2 36.4 36.6 35.5 36.35 38.95 35.4 37.05 33.05 36.6 32.4 Q35.05 30.05 35.1 28.65 L35.25 28.75 39.35 32.0 42.1 34.3 42.2 34.4 42.15 34.3 Q41.3 32.7 41.25 31.55 L41.3 30.75 43.85 33.7 44.0 33.6 45.1 33.15 44.9 32.55 44.8 32.4 Q43.65 29.7 43.65 29.3 L43.9 29.4 45.35 31.7 45.6 32.1 45.8 32.5 45.85 32.7" fill="none" stroke="#b47400" stroke-linecap="round" stroke-linejoin="round" stroke-opacity="0.9019608" stroke-width="1"/>
    <path d="M54.65 39.25 L54.65 39.4 54.9 40.15 55.5 41.8 55.65 42.2 55.7 42.25 Q56.3 43.75 57.35 44.55 L61.0 46.3 61.0 47.3 Q60.85 48.2 57.6 52.95 57.5 51.65 57.05 50.7 L57.0 50.65 56.9 50.5 55.3 50.0 53.65 49.05 53.6 49.05 Q52.45 47.95 51.35 47.5 L48.5 46.2 49.15 48.5 Q49.7 50.4 49.05 52.05 M37.7 44.35 L38.55 43.85 M52.45 38.8 L52.5 38.8 M47.85 38.45 L48.75 39.0 48.95 39.25 50.35 40.25 50.75 40.45 51.15 40.6 51.25 40.65 51.4 40.65 51.5 40.7 52.95 40.95 53.4 40.95 Q54.2 40.85 54.45 40.4 L54.5 40.4 54.6 40.1 54.65 39.4 M48.95 39.25 Q48.95 39.65 49.25 40.1 49.6 40.65 50.2 40.8 L50.95 40.75 51.1 40.75 51.2 40.65 51.25 40.65 M48.3 42.95 L48.7 42.45 M56.9 50.5 L54.85 48.3 53.9 47.4 Q51.4 45.2 48.4 43.85 L48.05 43.65 47.95 43.65 47.7 43.55 48.3 42.95 M53.4 40.95 L53.5 41.15 53.9 41.45 Q54.5 41.65 54.5 40.4 M59.45 46.8 L59.15 46.5 58.1 46.25 57.7 46.35 M57.05 50.7 L57.05 50.65 56.9 50.5" fill="none" stroke="#4f0202" stroke-linecap="round" stroke-linejoin="round" stroke-opacity="0.49803922" stroke-width="1"/>
  </g>
  <defs>
    <linearGradient gradientTransform="matrix(-0.0112, -0.003, 0.0088, -0.0573, 35.85, 83.1)" gradientUnits="userSpaceOnUse" id="gradient0" spreadMethod="pad" x1="-819.2" x2="819.2">
      <stop offset="0.0" stop-color="#980101" stop-opacity="0.9019608"></stop>
      <stop offset="1.0" stop-color="#7b0000"></stop>
    </linearGradient>
    <radialGradient cx="0" cy="0" gradientTransform="matrix(0.017, 0.0045, -0.0027, 0.0173, 60.75, 46.6)" gradientUnits="userSpaceOnUse" id="gradient1" r="819.2" spreadMethod="pad">
      <stop offset="0.0" stop-color="#e37960"></stop>
      <stop offset="1.0" stop-color="#b93535"></stop>
    </radialGradient>
    <linearGradient gradientTransform="matrix(5.0E-4, -0.0012, 0.0088, 0.005, 43.7, 44.6)" gradientUnits="userSpaceOnUse" id="gradient2" spreadMethod="pad" x1="-819.2" x2="819.2">
      <stop offset="0.0" stop-color="#980101" stop-opacity="0.9019608"></stop>
      <stop offset="1.0" stop-color="#7b0000"></stop>
    </linearGradient>
    <radialGradient cx="0" cy="0" gradientTransform="matrix(0.0045, 0.0012, -7.0E-4, 0.0045, 42.5, 45.4)" gradientUnits="userSpaceOnUse" id="gradient3" r="819.2" spreadMethod="pad">
      <stop offset="0.0" stop-color="#e37960"></stop>
      <stop offset="1.0" stop-color="#b93535"></stop>
    </radialGradient>
    <radialGradient cx="0" cy="0" gradientTransform="matrix(0.0125, 0.0033, -0.002, 0.0127, 50.6, 52.55)" gradientUnits="userSpaceOnUse" id="gradient4" r="819.2" spreadMethod="pad">
      <stop offset="0.0" stop-color="#e37960"></stop>
      <stop offset="1.0" stop-color="#b93535"></stop>
    </radialGradient>
    <radialGradient cx="0" cy="0" gradientTransform="matrix(0.0287, -0.0022, 0.0051, 0.0302, 207.85, 73.0)" gradientUnits="userSpaceOnUse" id="gradient5" r="819.2" spreadMethod="pad">
      <stop offset="0.0" stop-color="#e37960"></stop>
      <stop offset="1.0" stop-color="#b93535"></stop>
    </radialGradient>
  </defs>
</svg>