<?xml version="1.0" encoding="UTF-8" standalone="no"?>
<svg xmlns:xlink="http://www.w3.org/1999/xlink" height="12.9px" width="14.85px" xmlns="http://www.w3.org/2000/svg">
  <g transform="matrix(1.0, 0.0, 0.0, 1.0, 1, 2.1)">
    <path d="M10.25 5.9 L10.65 6.4 11.25 7.1 5.4 6.45 Q3.95 5.1 2.9 4.55 L2.9 5.6 Q4.35 8.0 5.35 9.05 L6.15 9.75 Q3.95 9.25 2.35 7.6 L0.35 5.25 0.05 4.65 Q-0.15 4.05 0.6 0.0 3.05 -2.15 5.45 0.0 L7.05 0.9 8.35 1.5 6.35 1.5 Q5.35 2.05 4.65 3.05 L4.1 4.15 Q4.95 4.85 7.4 5.35 L10.25 5.9" fill="url(#gradient0)" fill-rule="evenodd" stroke="none"/>
    <path d="M11.75 3.55 L12.7 4.25 12.85 4.4 12.4 4.55 11.4 4.65 9.5 4.45 9.15 4.45 7.85 3.4 8.1 3.15 9.1 3.1 11.75 3.55" fill="#980101" fill-rule="evenodd" stroke="none"/>
    <path d="M10.25 5.9 L7.4 5.35 Q4.95 4.85 4.1 4.15 L4.65 3.05 Q5.35 2.05 6.35 1.5 L8.35 1.5 10.15 2.5 11.75 3.55 9.1 3.1 8.1 3.15 7.85 3.4 9.15 4.45 8.85 4.4 10.25 5.9 M7.05 0.9 L5.45 0.0 6.3 0.0 6.25 0.45 6.25 0.55 7.05 0.9 M6.15 9.75 L5.35 9.05 Q4.35 8.0 2.9 5.6 L2.9 4.55 Q3.95 5.1 5.4 6.45 L5.1 6.4 6.5 9.8 6.15 9.75" fill="url(#gradient1)" fill-rule="evenodd" stroke="none"/>
    <path d="M5.4 6.45 L11.25 7.1 10.65 6.4 10.25 5.9 8.85 4.4 9.15 4.45 M8.35 1.5 L7.05 0.9 6.25 0.55 6.25 0.45 6.3 0.0 M0.6 0.0 Q-0.15 4.05 0.05 4.65 L0.35 5.25 2.35 7.6 Q3.95 9.25 6.15 9.75 L6.5 9.8 5.1 6.4 5.4 6.45 M11.75 3.55 L12.7 4.25 12.85 4.4 12.4 4.55 11.4 4.65 9.5 4.45 M11.75 3.55 L10.15 2.5 8.35 1.5" fill="none" stroke="#4f0202" stroke-linecap="round" stroke-linejoin="round" stroke-opacity="0.49803922" stroke-width="1"/>
  </g>
  <defs>
    <linearGradient gradientTransform="matrix(0.0033, -0.0098, 0.0077, 0.0026, 7.95, -4.25)" gradientUnits="userSpaceOnUse" id="gradient0" spreadMethod="pad" x1="-819.2" x2="819.2">
      <stop offset="0.0" stop-color="#980101" stop-opacity="0.9019608"></stop>
      <stop offset="1.0" stop-color="#7b0000"></stop>
    </linearGradient>
    <radialGradient cx="0" cy="0" gradientTransform="matrix(0.028, -0.0096, 0.0096, 0.028, 191.2, -91.75)" gradientUnits="userSpaceOnUse" id="gradient1" r="819.2" spreadMethod="pad">
      <stop offset="0.0" stop-color="#e37960"></stop>
      <stop offset="1.0" stop-color="#b93535"></stop>
    </radialGradient>
  </defs>
</svg>