<?xml version="1.0" encoding="UTF-8" standalone="no"?>
<svg xmlns:xlink="http://www.w3.org/1999/xlink" height="32.3px" width="17.25px" xmlns="http://www.w3.org/2000/svg">
  <g transform="matrix(1.0, 0.0, 0.0, 1.0, 2.45, 1.55)">
    <path d="M11.1 12.25 L10.85 12.1 10.5 12.4 10.7 12.6 11.1 12.5 11.1 12.25 M7.8 0.0 L8.4 0.5 Q9.0 1.3 10.55 5.2 L12.4 10.25 Q13.15 12.65 13.6 16.05 L13.75 17.45 Q13.9 19.6 13.5 20.4 13.0 21.35 12.65 23.4 L11.8 27.4 Q10.3 27.2 9.55 25.35 L9.45 25.1 Q8.7 23.05 8.15 17.95 L8.1 17.45 7.15 11.9 7.05 11.45 Q5.55 2.25 4.8 -0.15 L7.8 0.0 M9.95 7.9 L9.65 7.7 9.4 7.85 9.4 8.3 9.8 8.3 9.95 7.9 M7.95 4.05 L7.65 4.3 7.95 4.6 8.1 4.55 8.2 4.4 7.95 4.05 M7.35 4.5 L7.1 4.75 Q7.1 4.95 7.45 5.0 L7.65 4.85 7.65 4.65 7.35 4.5 M9.4 12.4 L9.8 12.55 Q9.8 12.4 9.95 12.4 L9.95 12.0 Q9.4 12.0 9.4 12.4 M9.95 15.3 L9.95 15.45 10.25 15.55 10.3 15.4 9.95 15.3 M11.2 17.65 L11.25 17.45 10.9 17.4 10.9 17.6 11.2 17.65 M12.2 15.0 L11.95 14.65 11.8 14.7 Q11.65 14.75 11.65 14.9 L11.95 15.2 12.1 15.15 12.2 15.0" fill="url(#gradient0)" fill-rule="evenodd" stroke="none"/>
    <path d="M11.8 27.4 L11.55 28.25 Q7.8 31.4 5.35 27.95 L5.15 27.7 5.15 27.8 Q4.4 24.0 3.1 19.8 L2.2 17.45 2.05 17.15 Q1.25 15.4 -0.7 6.6 -2.7 -2.25 0.8 -0.15 3.45 5.45 4.1 9.25 L4.85 13.95 5.3 15.95 5.65 17.45 Q6.45 20.85 6.9 21.65 L6.9 19.8 6.8 17.45 6.75 17.1 5.85 12.8 Q4.55 7.1 2.15 0.1 L4.8 -0.15 Q5.55 2.25 7.05 11.45 L7.15 11.9 8.1 17.45 8.15 17.95 Q8.7 23.05 9.45 25.1 L9.55 25.35 Q10.3 27.2 11.8 27.4" fill="url(#gradient1)" fill-rule="evenodd" stroke="none"/>
    <path d="M0.8 -0.15 L2.15 0.1 Q4.55 7.1 5.85 12.8 L6.75 17.1 6.8 17.45 6.9 19.8 6.9 21.65 Q6.45 20.85 5.65 17.45 L5.3 15.95 4.85 13.95 4.1 9.25 Q3.45 5.45 0.8 -0.15" fill="url(#gradient2)" fill-rule="evenodd" stroke="none"/>
    <path d="M11.1 12.25 L11.1 12.5 10.7 12.6 10.5 12.4 10.85 12.1 11.1 12.25 M7.35 4.5 L7.65 4.65 7.65 4.85 7.45 5.0 Q7.1 4.95 7.1 4.75 L7.35 4.5 M7.95 4.05 L8.2 4.4 8.1 4.55 7.95 4.6 7.65 4.3 7.95 4.05 M9.95 7.9 L9.8 8.3 9.4 8.3 9.4 7.85 9.65 7.7 9.95 7.9 M9.95 15.3 L10.3 15.4 10.25 15.55 9.95 15.45 9.95 15.3 M9.4 12.4 Q9.4 12.0 9.95 12.0 L9.95 12.4 Q9.8 12.4 9.8 12.55 L9.4 12.4 M12.2 15.0 L12.1 15.15 11.95 15.2 11.65 14.9 Q11.65 14.75 11.8 14.7 L11.95 14.65 12.2 15.0 M11.2 17.65 L10.9 17.6 10.9 17.4 11.25 17.45 11.2 17.65" fill="#ffffcc" fill-rule="evenodd" stroke="none"/>
    <path d="M7.8 0.0 L8.4 0.5 Q9.0 1.3 10.55 5.2 L12.4 10.25 Q13.15 12.65 13.6 16.05 L13.75 17.45 Q13.9 19.6 13.5 20.4 13.0 21.35 12.65 23.4 L11.8 27.4 11.55 28.25 M5.35 27.95 L5.15 27.8 Q4.4 24.0 3.1 19.8 L2.2 17.45 2.05 17.15 Q1.25 15.4 -0.7 6.6 M5.15 27.7 L5.15 27.8" fill="none" stroke="#4f0202" stroke-linecap="round" stroke-linejoin="round" stroke-opacity="0.49803922" stroke-width="1"/>
  </g>
  <defs>
    <radialGradient cx="0" cy="0" gradientTransform="matrix(0.0231, 0.0, 0.0, 0.0231, 11.2, 8.6)" gradientUnits="userSpaceOnUse" id="gradient0" r="819.2" spreadMethod="pad">
      <stop offset="0.0" stop-color="#e37960"></stop>
      <stop offset="1.0" stop-color="#b93535"></stop>
    </radialGradient>
    <linearGradient gradientTransform="matrix(0.0014, -0.0143, 0.0091, 9.0E-4, 5.35, 31.45)" gradientUnits="userSpaceOnUse" id="gradient1" spreadMethod="pad" x1="-819.2" x2="819.2">
      <stop offset="0.0" stop-color="#980101" stop-opacity="0.9019608"></stop>
      <stop offset="1.0" stop-color="#7b0000"></stop>
    </linearGradient>
    <radialGradient cx="0" cy="0" gradientTransform="matrix(0.028, -0.0096, 0.0096, 0.028, 163.25, -44.95)" gradientUnits="userSpaceOnUse" id="gradient2" r="819.2" spreadMethod="pad">
      <stop offset="0.0" stop-color="#e37960"></stop>
      <stop offset="1.0" stop-color="#b93535"></stop>
    </radialGradient>
  </defs>
</svg>