<?xml version="1.0" encoding="UTF-8" standalone="no"?>
<svg xmlns:xlink="http://www.w3.org/1999/xlink" height="14.2px" width="14.85px" xmlns="http://www.w3.org/2000/svg">
  <g transform="matrix(1.0, 0.0, 0.0, 1.0, 1.75, 1)">
    <path d="M9.1 4.0 Q9.8 3.9 10.45 4.3 L11.8 5.65 Q12.5 6.55 11.45 7.25 L10.0 8.1 Q12.25 9.15 9.25 10.1 10.35 10.65 10.25 11.2 10.15 11.8 9.4 12.0 L8.2 12.2 6.75 12.2 4.4 12.0 4.05 11.75 3.05 11.15 Q2.4 10.8 3.4 10.5 L4.45 10.1 4.0 10.0 Q3.95 9.6 4.4 8.65 4.9 7.6 5.25 7.45 L5.0 6.8 5.0 6.65 Q5.9 5.85 6.85 4.2 L7.05 5.5 Q7.5 6.65 8.7 6.7 8.7 5.85 9.05 4.15 L9.1 4.0 M10.0 8.1 L8.85 8.2 Q6.0 8.2 5.25 7.45 6.0 8.2 8.85 8.2 L10.0 8.1 M9.25 10.1 L9.2 10.1 4.45 10.1 9.2 10.1 9.25 10.1" fill="#980101" fill-rule="evenodd" stroke="none"/>
    <path d="M4.05 11.75 L3.85 11.95 3.7 12.0 Q0.1 12.2 0.2 9.75 -1.6 8.2 0.0 4.9 0.25 3.75 1.1 3.45 L2.3 3.0 2.75 2.55 3.8 1.45 Q5.35 0.0 5.9 0.0 L7.5 1.1 9.5 2.3 9.1 4.0 9.05 4.15 Q8.7 5.85 8.7 6.7 7.5 6.65 7.05 5.5 L6.85 4.2 Q5.9 5.85 5.0 6.65 L5.0 6.8 5.25 7.45 Q4.9 7.6 4.4 8.65 3.95 9.6 4.0 10.0 L4.45 10.1 3.4 10.5 Q2.4 10.8 3.05 11.15 L4.05 11.75 M0.8 6.2 L1.25 7.25 2.4 7.4 Q3.85 7.4 4.7 6.85 L5.0 6.65 4.7 6.85 Q3.85 7.4 2.4 7.4 L1.25 7.25 0.8 6.2" fill="url(#gradient0)" fill-rule="evenodd" stroke="none"/>
    <path d="M9.1 4.0 Q9.8 3.9 10.45 4.3 L11.8 5.65 Q12.5 6.55 11.45 7.25 L10.0 8.1 Q12.25 9.15 9.25 10.1 10.35 10.65 10.25 11.2 10.15 11.8 9.4 12.0 L8.2 12.2 6.75 12.2 4.4 12.0 4.05 11.75 3.85 11.95 3.7 12.0 Q0.1 12.2 0.2 9.75 M2.3 3.0 L2.75 2.55 3.8 1.45 Q5.35 0.0 5.9 0.0 L7.5 1.1 9.5 2.3 9.1 4.0 9.05 4.15 Q8.7 5.85 8.7 6.7 7.5 6.65 7.05 5.5 L6.85 4.2 Q5.9 5.85 5.0 6.65 L5.0 6.8 5.25 7.45 Q6.0 8.2 8.85 8.2 L10.0 8.1 M5.0 6.65 L4.7 6.85 Q3.85 7.4 2.4 7.4 L1.25 7.25 0.8 6.2 M4.05 11.75 L3.05 11.15 Q2.4 10.8 3.4 10.5 L4.45 10.1 4.0 10.0 Q3.95 9.6 4.4 8.65 4.9 7.6 5.25 7.45 M4.45 10.1 L9.2 10.1 9.25 10.1" fill="none" stroke="#4f0202" stroke-linecap="round" stroke-linejoin="round" stroke-opacity="0.49803922" stroke-width="1"/>
  </g>
  <defs>
    <linearGradient gradientTransform="matrix(-0.0061, -0.0035, 0.0045, -0.0078, -13.85, -2.95)" gradientUnits="userSpaceOnUse" id="gradient0" spreadMethod="pad" x1="-819.2" x2="819.2">
      <stop offset="0.0" stop-color="#980101" stop-opacity="0.9019608"></stop>
      <stop offset="1.0" stop-color="#7b0000"></stop>
    </linearGradient>
  </defs>
</svg>