<?xml version="1.0" encoding="UTF-8" standalone="no"?>
<svg xmlns:xlink="http://www.w3.org/1999/xlink" height="43.9px" width="37.35px" xmlns="http://www.w3.org/2000/svg">
  <g transform="matrix(1.0, 0.0, 0.0, 1.0, 1, 1)">
    <path d="M21.55 14.6 Q13.8 23.8 12.6 28.65 12.25 30.0 12.25 31.5 11.65 32.9 7.6 36.05 2.0 40.3 0.65 41.9 L0.0 41.9 1.55 35.55 2.05 35.1 2.85 34.0 6.05 29.3 8.55 23.95 Q11.15 18.55 12.6 16.5 15.9 11.75 25.15 5.75 30.55 2.2 34.95 0.0 L35.35 0.45 Q28.3 6.6 21.55 14.6" fill="#880505" fill-rule="evenodd" stroke="none"/>
    <path d="M21.55 14.6 Q13.8 23.8 12.6 28.65 12.25 30.0 12.25 31.5 11.65 32.9 7.6 36.05 2.0 40.3 0.65 41.9 L0.0 41.9 1.55 35.55 2.05 35.1 2.85 34.0 6.05 29.3 8.55 23.95 Q11.15 18.55 12.6 16.5 15.9 11.75 25.15 5.75 30.55 2.2 34.95 0.0 L35.35 0.45 Q28.3 6.6 21.55 14.6 Z" fill="none" stroke="#4f0202" stroke-linecap="round" stroke-linejoin="round" stroke-opacity="0.49803922" stroke-width="1"/>
  </g>
</svg>