<?xml version="1.0" encoding="UTF-8" standalone="no"?>
<svg xmlns:xlink="http://www.w3.org/1999/xlink" height="126.45px" width="30px" xmlns="http://www.w3.org/2000/svg">
  <g transform="matrix(1.0, 0.0, 0.0, 1.0, 4.4, -3.05)">
    <path d="M16.5 17.7 L16.4 21.2 16.1 28.4 15.85 55.75 16.4 59.35 15.3 58.1 Q13.8 56.9 12.8 56.65 15.55 55.15 15.6 52.2 15.65 49.2 12.6 46.75 14.4 43.7 15.25 40.7 16.1 37.7 14.4 35.5 12.7 33.25 12.25 33.2 L14.5 31.05 Q15.95 29.35 16.1 27.15 16.3 24.9 15.5 23.65 14.65 22.4 12.95 21.6 L12.95 21.45 Q14.0 21.05 15.1 19.9 16.2 18.75 16.5 17.7" fill="#aaa6a6" fill-rule="evenodd" stroke="none"/>
    <path d="M16.75 61.0 L17.2 62.3 6.1 62.9 6.5 58.45 9.1 59.6 8.8 56.15 Q8.55 53.4 8.95 51.9 L9.3 49.4 Q9.3 48.45 7.75 44.85 6.5 41.8 5.75 40.8 L7.05 39.3 Q8.2 37.5 8.0 35.35 7.75 33.2 6.6 31.95 5.5 30.75 4.2 30.6 5.25 30.65 6.45 29.45 7.65 28.15 7.95 25.7 8.25 23.2 7.6 18.85 6.95 14.45 5.5 11.45 4.05 8.4 2.45 6.4 L8.7 9.15 Q13.05 11.15 14.45 12.0 L14.5 12.0 13.5 11.55 Q11.25 10.5 9.45 10.5 6.1 10.45 7.35 14.7 L8.1 18.2 Q8.3 19.85 9.9 21.35 L10.6 21.9 Q9.65 22.85 9.1 24.1 L9.0 27.0 8.75 29.7 Q8.45 31.35 9.2 32.1 9.9 32.85 10.35 33.0 L10.45 33.05 9.55 33.9 Q8.95 34.45 8.6 36.05 L8.15 38.3 8.1 38.4 8.1 38.45 7.6 40.75 8.95 45.3 Q9.75 47.8 11.35 50.25 9.9 49.45 9.5 51.35 9.1 54.55 9.9 57.4 10.3 58.7 12.55 60.05 14.65 61.3 15.8 61.3 L16.75 61.0 M10.85 21.65 L10.8 21.6 10.85 21.6 10.85 21.65" fill="#797979" fill-opacity="0.98039216" fill-rule="evenodd" stroke="none"/>
    <path d="M6.5 58.45 Q6.15 53.2 5.0 46.25 L0.5 23.4 -3.4 4.05 2.45 6.4 Q4.05 8.4 5.5 11.45 6.95 14.45 7.6 18.85 8.25 23.2 7.95 25.7 7.65 28.15 6.45 29.45 5.25 30.65 4.2 30.6 5.5 30.75 6.6 31.95 7.75 33.2 8.0 35.35 8.2 37.5 7.05 39.3 L5.75 40.8 Q6.5 41.8 7.75 44.85 9.3 48.45 9.3 49.4 L8.95 51.9 Q8.55 53.4 8.8 56.15 L9.1 59.6 6.5 58.45" fill="url(#gradient0)" fill-rule="evenodd" stroke="none"/>
    <path d="M14.5 12.0 L16.6 13.15 16.5 17.55 16.5 17.65 16.5 17.7 Q16.2 18.75 15.1 19.9 14.0 21.05 12.95 21.45 L12.95 21.6 Q14.65 22.4 15.5 23.65 16.3 24.9 16.1 27.15 15.95 29.35 14.5 31.05 L12.25 33.2 Q12.7 33.25 14.4 35.5 16.1 37.7 15.25 40.7 14.4 43.7 12.6 46.75 15.65 49.2 15.6 52.2 15.55 55.15 12.8 56.65 13.8 56.9 15.3 58.1 L16.4 59.35 16.6 60.4 16.75 61.0 15.8 61.3 Q14.65 61.3 12.55 60.05 10.3 58.7 9.9 57.4 9.1 54.55 9.5 51.35 9.9 49.45 11.35 50.25 9.75 47.8 8.95 45.3 L7.6 40.75 8.1 38.45 8.1 38.4 8.15 38.3 8.6 36.05 Q8.95 34.45 9.55 33.9 L10.45 33.05 10.35 33.0 Q9.9 32.85 9.2 32.1 8.45 31.35 8.75 29.7 L9.0 27.0 9.1 24.1 Q9.65 22.85 10.6 21.9 L9.9 21.35 Q8.3 19.85 8.1 18.2 L7.35 14.7 Q6.1 10.45 9.45 10.5 11.25 10.5 13.5 11.55 L14.5 12.0 M16.65 16.85 L16.7 16.75 16.65 16.95 16.6 17.3 16.65 16.85 M10.85 21.65 L10.85 21.6 10.8 21.6 10.85 21.65" fill="url(#gradient1)" fill-rule="evenodd" stroke="none"/>
    <path d="M14.45 12.0 L14.3 11.85 14.5 12.0 16.6 13.15 16.5 17.55 M16.5 17.7 L16.4 21.2 16.1 28.4 15.85 55.75 16.4 59.35 16.6 60.4 16.75 61.0 17.2 62.3 6.1 62.9 6.5 58.45 Q6.15 53.2 5.0 46.25 L0.5 23.4 -3.4 4.05 2.45 6.4 8.7 9.15 Q13.05 11.15 14.45 12.0 L14.5 12.0" fill="none" stroke="#999999" stroke-linecap="round" stroke-linejoin="round" stroke-opacity="0.98039216" stroke-width="1"/>
    <path d="M19.5 60.1 Q20.65 61.05 21.45 61.05 L21.95 60.9 22.15 61.2 24.55 61.0 Q25.25 62.2 14.15 63.1 L9.9 63.5 Q-1.95 64.25 -3.05 62.9 L-0.2 62.8 0.2 61.85 1.45 62.3 1.95 62.25 2.25 62.65 19.15 61.4 Q19.15 61.05 19.5 60.1" fill="#666666" fill-rule="evenodd" stroke="none"/>
    <path d="M19.5 60.1 L19.55 60.05 19.95 59.0 21.35 60.1 21.95 60.9 21.45 61.05 Q20.65 61.05 19.5 60.1 M0.2 61.85 Q0.65 61.05 1.15 60.8 L1.95 62.25 1.45 62.3 0.2 61.85" fill="#aaa6a6" fill-rule="evenodd" stroke="none"/>
    <path d="M10.6 71.2 L10.55 70.65 10.35 67.25 Q10.85 67.75 11.45 67.95 L11.9 69.85 12.2 71.4 11.85 71.4 10.75 71.25 10.6 71.2" fill="#43483e" fill-rule="evenodd" stroke="none"/>
    <path d="M13.7 126.85 L13.65 125.4 Q13.6 118.6 12.3 96.6 L10.95 75.45 10.95 75.4 11.15 74.6 Q11.35 74.1 11.6 74.1 12.4 74.1 12.65 75.75 L12.75 78.25 15.95 123.45 Q16.4 127.0 15.3 127.05 L13.7 126.85" fill="#6d889c" fill-rule="evenodd" stroke="none"/>
    <path d="M14.15 63.1 L14.1 66.05 14.1 66.85 Q13.5 68.0 12.05 68.0 L11.45 67.95 Q10.85 67.75 10.35 67.25 L10.15 65.35 9.9 63.5 14.15 63.1 M13.05 72.75 L11.8 72.8 13.05 72.75 Q13.95 73.05 14.15 74.8 L14.15 74.85 15.8 98.65 Q17.45 121.75 18.05 128.0 L16.2 128.5 Q14.85 128.6 13.7 128.0 L13.7 126.85 15.3 127.05 Q16.4 127.0 15.95 123.45 L12.75 78.25 12.65 75.75 Q12.4 74.1 11.6 74.1 11.35 74.1 11.15 74.6 L10.95 75.4 10.8 73.85 10.8 73.5 11.25 72.9 11.35 72.8 12.8 72.7 13.05 72.75" fill="#455966" fill-rule="evenodd" stroke="none"/>
    <path d="M14.1 66.85 L14.05 70.7 14.05 70.8 14.05 72.7 13.05 72.75 14.05 72.7 14.15 74.8 Q13.95 73.05 13.05 72.75 L12.8 72.7 11.35 72.8 11.25 72.9 10.8 73.5 10.7 72.85 11.35 72.8 10.7 72.85 10.6 71.2 10.75 71.25 11.85 71.4 12.2 71.4 11.9 69.85 11.45 67.95 12.05 68.0 Q13.5 68.0 14.1 66.85" fill="#33383c" fill-rule="evenodd" stroke="none"/>
    <path d="M21.95 60.9 L21.35 60.1 19.95 59.0 19.55 60.05 19.5 60.1 Q19.15 61.05 19.15 61.4 L2.25 62.65 1.95 62.25 1.15 60.8 Q0.65 61.05 0.2 61.85 L-0.2 62.8 -3.05 62.9 Q-1.95 64.25 9.9 63.5 M21.95 60.9 L22.15 61.2 24.55 61.0 Q25.25 62.2 14.15 63.1" fill="none" stroke="#999999" stroke-linecap="round" stroke-linejoin="round" stroke-opacity="0.98039216" stroke-width="1"/>
    <path d="M14.15 63.1 L14.1 66.05 14.1 66.85 14.05 70.7 14.05 70.8 14.05 72.7 14.15 74.8 M14.15 74.85 L15.8 98.65 Q17.45 121.75 18.05 128.0 L16.2 128.5 Q14.85 128.6 13.7 128.0 L13.7 126.85 13.65 125.4 Q13.6 118.6 12.3 96.6 L10.95 75.45 10.95 75.4 10.8 73.85 10.8 73.5 10.7 72.85 10.6 71.2 10.55 70.65 10.35 67.25 10.15 65.35 9.9 63.5" fill="none" stroke="#33383c" stroke-linecap="round" stroke-linejoin="round" stroke-opacity="0.98039216" stroke-width="1"/>
  </g>
  <defs>
    <linearGradient gradientTransform="matrix(0.0078, 0.0, 0.0, 0.034, 3.0, 31.85)" gradientUnits="userSpaceOnUse" id="gradient0" spreadMethod="pad" x1="-819.2" x2="819.2">
      <stop offset="0.0" stop-color="#ffffff"></stop>
      <stop offset="1.0" stop-color="#aaa6a6" stop-opacity="0.9882353"></stop>
    </linearGradient>
    <linearGradient gradientTransform="matrix(-0.0053, 0.0, 0.0, -0.0324, 10.45, 34.75)" gradientUnits="userSpaceOnUse" id="gradient1" spreadMethod="pad" x1="-819.2" x2="819.2">
      <stop offset="0.0" stop-color="#ffffff"></stop>
      <stop offset="1.0" stop-color="#aaa6a6" stop-opacity="0.9882353"></stop>
    </linearGradient>
  </defs>
</svg>