<?xml version="1.0" encoding="UTF-8" standalone="no"?>
<svg xmlns:xlink="http://www.w3.org/1999/xlink" height="9.4px" width="11.8px" xmlns="http://www.w3.org/2000/svg">
  <g transform="matrix(1.0, 0.0, 0.0, 1.0, 1, 1)">
    <path d="M1.05 2.75 L1.85 2.85 2.7 2.9 4.1 1.45 Q5.65 0.0 6.2 0.0 L7.8 1.1 Q9.5 2.2 9.8 2.3 L9.8 2.35 8.3 2.0 Q7.9 2.0 7.65 2.25 7.5 2.3 6.05 3.65 L4.85 4.8 3.95 5.05 1.5 4.75 0.0 4.8 Q-0.1 3.35 1.05 2.75" fill="url(#gradient0)" fill-rule="evenodd" stroke="none"/>
    <path d="M0.0 4.8 L1.5 4.75 3.95 5.05 4.85 4.8 6.05 3.65 Q7.5 2.3 7.65 2.25 7.9 2.0 8.3 2.0 L9.8 2.35 9.4 4.0 9.35 4.15 Q9.0 5.85 9.0 6.7 7.8 6.65 7.35 5.5 L7.15 4.2 5.3 6.65 5.0 6.85 Q4.15 7.4 2.7 7.4 L1.55 7.25 0.6 6.4 Q0.05 6.0 0.0 4.8" fill="url(#gradient1)" fill-rule="evenodd" stroke="none"/>
    <path d="M9.8 2.35 L9.8 2.3 Q9.5 2.2 7.8 1.1 L6.2 0.0 Q5.65 0.0 4.1 1.45 L2.7 2.9 1.85 2.85 1.05 2.75 M9.8 2.35 L9.4 4.0 9.35 4.15 Q9.0 5.85 9.0 6.7 7.8 6.65 7.35 5.5 L7.15 4.2 5.3 6.65 5.0 6.85 Q4.15 7.4 2.7 7.4 L1.55 7.25 0.6 6.4" fill="none" stroke="#712424" stroke-linecap="round" stroke-linejoin="round" stroke-opacity="0.98039216" stroke-width="1"/>
  </g>
  <defs>
    <radialGradient cx="0" cy="0" gradientTransform="matrix(0.0079, 0.0, 0.0, 0.0079, 6.95, 1.2)" gradientUnits="userSpaceOnUse" id="gradient0" r="819.2" spreadMethod="pad">
      <stop offset="0.0" stop-color="#e37960"></stop>
      <stop offset="1.0" stop-color="#b93535"></stop>
    </radialGradient>
    <linearGradient gradientTransform="matrix(-0.0061, -0.0035, 0.0045, -0.0078, -5.7, -63.35)" gradientUnits="userSpaceOnUse" id="gradient1" spreadMethod="pad" x1="-819.2" x2="819.2">
      <stop offset="0.0" stop-color="#980101" stop-opacity="0.9019608"></stop>
      <stop offset="1.0" stop-color="#7b0000"></stop>
    </linearGradient>
  </defs>
</svg>