<?xml version="1.0" encoding="UTF-8" standalone="no"?>
<svg xmlns:xlink="http://www.w3.org/1999/xlink" height="60.9px" width="88.55px" xmlns="http://www.w3.org/2000/svg">
  <g transform="matrix(1.0, 0.0, 0.0, 1.0, 10.15, 12.7)">
    <path d="M67.45 -7.9 Q69.45 -10.35 72.3 -11.25 75.0 -12.1 77.4 -11.3 L77.35 -11.1 Q76.9 -8.2 77.1 -7.0 74.1 -6.1 73.25 -4.5 72.8 -3.7 72.8 -1.8 72.9 0.15 73.6 1.95 74.35 3.7 75.5 4.65 L75.8 6.65 76.95 15.8 76.4 18.05 Q74.75 24.1 72.0 29.2 64.45 43.15 52.0 43.7 44.6 46.05 32.4 47.2 27.15 47.2 24.2 45.95 21.65 44.8 19.95 42.3 L19.5 41.55 15.85 34.2 15.8 34.15 15.7 34.0 15.45 33.55 Q14.65 31.85 13.7 30.75 L12.9 30.0 12.25 28.15 10.2 24.2 7.8 19.45 7.45 18.9 Q3.5 14.45 2.35 13.65 L2.05 11.1 1.95 11.25 -1.65 18.05 Q-4.75 16.95 -7.25 13.5 -9.15 10.8 -9.15 10.0 -9.15 9.35 -7.0 7.15 -4.65 4.8 -2.25 3.35 -0.6 2.35 0.65 2.05 L0.0 0.8 0.8 2.0 Q2.5 1.6 3.45 2.55 6.55 3.6 9.35 7.65 L9.5 7.9 Q11.05 10.4 15.8 19.9 17.65 23.6 18.75 27.05 19.85 30.5 22.95 36.2 26.0 41.85 33.75 42.6 41.45 43.3 49.55 39.3 L53.65 37.05 53.4 36.8 53.65 36.25 Q55.3 35.3 56.8 33.95 L57.5 33.9 58.25 32.5 58.25 32.45 59.05 31.45 58.7 32.55 Q63.65 26.7 65.25 24.3 70.0 17.15 70.0 9.4 70.0 7.65 67.75 2.75 65.5 -2.1 65.5 -3.35 65.5 -5.55 67.45 -7.9" fill="url(#gradient0)" fill-rule="evenodd" stroke="none"/>
  </g>
  <defs>
    <linearGradient gradientTransform="matrix(0.0434, 0.0196, -0.0186, 0.0412, 42.0, 13.35)" gradientUnits="userSpaceOnUse" id="gradient0" spreadMethod="pad" x1="-819.2" x2="819.2">
      <stop offset="0.0" stop-color="#99b86c"></stop>
      <stop offset="1.0" stop-color="#b6d983"></stop>
    </linearGradient>
  </defs>
</svg>