<?xml version="1.0" encoding="UTF-8" standalone="no"?>
<svg xmlns:xlink="http://www.w3.org/1999/xlink" height="29.85px" width="95.2px" xmlns="http://www.w3.org/2000/svg">
  <g transform="matrix(1.0, 0.0, 0.0, 1.0, -11.6, -7.8)">
    <path d="M105.8 22.8 Q105.8 24.35 102.1 27.85 L105.8 31.0 Q103.45 34.4 101.15 35.2 L98.4 35.4 Q94.75 35.4 79.25 30.45 69.8 27.45 62.8 24.9 58.0 26.6 55.6 26.6 51.0 26.6 48.9 24.8 46.8 23.0 41.1 23.0 35.0 23.0 32.2 26.6 30.8 28.4 30.6 30.4 L30.85 31.3 Q29.65 32.65 28.6 34.15 L24.5 36.65 Q21.85 35.7 17.8 32.45 12.6 28.25 12.6 27.4 L12.65 26.95 17.6 27.2 Q25.85 27.2 28.05 25.6 28.8 25.05 28.8 23.2 28.8 22.0 27.45 21.05 L27.8 20.4 Q30.95 15.0 33.2 15.0 35.3 15.0 38.7 16.05 L44.6 17.8 57.8 20.5 Q58.35 20.05 58.65 19.95 L63.95 19.1 67.05 18.15 71.4 16.95 Q72.95 15.2 74.05 12.45 77.0 8.8 88.0 8.8 89.2 8.8 96.95 11.65 105.05 14.65 105.8 15.8 105.3 16.5 104.7 18.1 105.8 20.05 105.8 22.8 M81.0 14.6 L82.0 14.45 81.0 14.2 81.0 14.6" fill="#a65415" fill-rule="evenodd" stroke="none"/>
  </g>
</svg>