<?xml version="1.0" encoding="UTF-8" standalone="no"?>
<svg xmlns:xlink="http://www.w3.org/1999/xlink" height="34.4px" width="94.4px" xmlns="http://www.w3.org/2000/svg">
  <g transform="matrix(1.0, 0.0, 0.0, 1.0, -13.2, -2.8)">
    <path d="M104.9 23.1 Q106.6 24.75 106.6 27.8 106.6 28.4 104.75 30.85 L103.15 32.9 104.0 33.6 104.1 34.05 104.2 35.4 Q102.85 36.2 98.4 36.2 86.9 36.2 80.85 31.5 77.2 28.65 76.7 25.75 L73.85 25.0 73.7 24.9 70.2 24.8 69.1 22.35 Q68.6 21.0 68.6 19.7 68.6 18.75 69.9 18.6 71.75 18.3 73.4 15.8 71.6 14.5 66.75 13.7 L60.2 12.6 54.0 12.6 Q52.15 15.0 48.05 17.85 42.3 21.8 37.6 21.8 L26.5 21.15 14.6 20.6 14.2 18.2 Q17.9 17.15 18.3 16.6 L18.2 15.0 Q18.2 13.45 20.0 13.4 L27.8 13.6 40.6 13.0 Q40.9 9.05 45.15 6.85 48.75 5.0 56.8 3.8 L59.4 6.0 Q74.3 4.3 79.65 10.6 81.0 12.2 82.65 15.2 84.15 17.4 86.2 17.4 L90.6 14.6 95.2 11.8 97.6 14.9 Q100.55 18.0 104.0 18.2 105.8 20.15 105.8 20.7 105.8 22.05 104.9 23.1 M85.4 29.4 L83.65 28.7 82.2 28.4 83.35 29.0 85.2 29.6 85.4 29.4" fill="#a65415" fill-rule="evenodd" stroke="none"/>
  </g>
</svg>