<?xml version="1.0" encoding="UTF-8" standalone="no"?>
<svg xmlns:xlink="http://www.w3.org/1999/xlink" height="36.8px" width="91.2px" xmlns="http://www.w3.org/2000/svg">
  <g transform="matrix(1.0, 0.0, 0.0, 1.0, -16.4, 2)">
    <path d="M104.6 21.8 Q104.6 22.8 105.6 24.65 106.6 26.5 106.6 27.5 106.6 30.5 104.85 32.0 102.75 33.8 98.0 33.8 95.5 33.8 86.85 27.3 78.15 20.8 73.2 20.8 L69.4 23.3 Q65.05 25.8 58.8 25.8 37.3 25.8 30.95 17.95 29.35 15.95 27.75 11.65 26.35 7.95 24.8 6.8 L18.2 6.4 17.6 6.05 Q17.4 5.85 17.4 4.6 17.4 3.9 20.4 1.4 23.25 -1.0 23.6 -1.0 29.85 -1.0 36.45 7.35 39.8 11.65 43.4 17.0 L55.6 17.0 Q59.05 16.5 61.15 15.25 62.35 14.55 64.15 13.0 67.9 10.2 77.6 10.2 90.75 10.2 98.25 14.0 104.6 17.25 104.6 21.8" fill="#a65415" fill-rule="evenodd" stroke="none"/>
  </g>
</svg>