<?xml version="1.0" encoding="UTF-8" standalone="no"?>
<svg xmlns:xlink="http://www.w3.org/1999/xlink" height="186.7px" width="87px" xmlns="http://www.w3.org/2000/svg">
  <g transform="matrix(1.0, 0.0, 0.0, 1.0, -1.25, -28.55)">
    <path d="M87.25 30.1 Q83.0 32.9 77.3 37.0 67.1 44.3 60.45 50.65 L60.5 50.7 59.1 51.9 58.75 52.25 58.6 52.2 57.25 52.8 54.4 53.85 53.95 53.75 53.8 53.65 53.75 53.25 Q53.75 52.85 55.75 51.1 55.95 49.45 69.35 40.6 L86.5 29.6 87.1 29.6 Q87.25 29.45 87.25 30.1 M51.75 56.5 Q51.75 57.1 44.6 64.1 35.1 73.3 28.8 80.8 5.85 108.05 5.85 131.55 5.85 133.0 6.6 142.0 7.45 137.7 9.5 132.0 11.85 125.4 13.15 125.4 L13.6 125.5 13.8 125.65 13.85 126.05 12.35 131.8 Q10.85 137.35 10.85 141.0 10.85 143.2 11.15 145.5 L11.65 142.45 Q12.4 138.65 13.5 136.35 L15.9 129.8 Q17.35 126.2 19.5 124.75 L19.6 124.8 19.7 125.15 18.45 132.1 Q18.45 139.0 24.45 149.05 31.7 161.15 40.75 161.6 L41.45 162.3 40.7 164.75 Q40.7 166.25 41.8 167.35 43.35 169.0 46.75 169.0 48.85 169.0 51.25 167.8 L53.65 166.6 Q54.5 166.6 54.7 167.05 L54.7 167.55 54.35 170.75 53.95 173.85 Q53.95 180.7 58.35 187.65 63.4 195.7 72.75 201.0 L72.05 201.25 71.45 201.2 72.25 201.4 72.85 201.9 72.75 202.25 71.5 202.5 70.0 202.35 72.7 205.9 77.85 212.05 82.95 214.0 82.75 214.15 82.25 214.25 Q78.15 214.25 63.15 208.25 49.35 202.7 41.75 198.5 32.55 193.4 25.95 188.25 19.75 183.4 17.2 179.4 12.4 173.7 8.2 163.5 2.25 148.95 2.25 139.25 2.25 118.6 11.2 100.55 20.85 81.1 42.25 61.85 42.7 62.45 42.5 63.0 L46.65 58.95 Q49.55 56.4 51.6 56.2 51.75 55.9 51.75 56.5 M41.45 64.35 L41.65 64.2 42.1 63.7 41.45 64.35 M68.85 200.55 L70.45 200.95 68.5 200.0 68.85 200.55" fill="#ffffcc" fill-rule="evenodd" stroke="none"/>
  </g>
</svg>