<?xml version="1.0" encoding="UTF-8" standalone="no"?>
<svg xmlns:xlink="http://www.w3.org/1999/xlink" height="110.6px" width="69.05px" xmlns="http://www.w3.org/2000/svg">
  <g transform="matrix(1.0, 0.0, 0.0, 1.0, -1.6, -100.25)">
    <path d="M13.35 101.8 Q10.45 110.6 9.1 110.6 L8.4 110.5 8.35 109.55 Q10.2 101.25 13.25 101.25 L13.35 101.8 M7.25 159.6 L6.6 159.85 Q5.55 159.85 4.0 153.0 L2.6 146.1 Q2.6 141.9 5.0 149.95 L7.35 158.85 7.25 159.6 M10.75 167.15 L10.25 167.35 Q8.85 166.45 8.6 164.0 9.6 163.75 10.3 164.9 10.85 165.75 10.85 166.5 L10.75 167.15 M36.0 196.1 Q35.15 196.1 34.9 195.5 L34.85 195.05 Q34.85 194.2 35.6 194.45 36.35 194.65 36.6 195.75 36.6 196.1 36.0 196.1 M67.1 208.55 L67.15 208.0 Q67.85 208.0 68.6 208.35 69.5 208.7 69.6 209.15 69.8 209.35 69.45 209.6 L68.85 209.85 Q67.9 209.85 67.45 209.3 67.1 208.9 67.1 208.55 M48.6 200.35 Q49.2 200.35 53.85 202.6 L59.85 205.6 59.55 206.15 Q59.4 206.35 59.0 206.35 56.95 206.35 49.35 202.75 42.1 199.25 42.1 198.95 42.1 198.5 45.0 199.35 L48.6 200.35" fill="#ffffcc" fill-rule="evenodd" stroke="none"/>
  </g>
</svg>