<?xml version="1.0" encoding="UTF-8" standalone="no"?>
<svg xmlns:xlink="http://www.w3.org/1999/xlink" height="213.55px" width="185.35px" xmlns="http://www.w3.org/2000/svg">
  <g transform="matrix(1.0, 0.0, 0.0, 1.0, 0.75, -0.55)">
    <path d="M183.6 1.85 L183.5 1.95 180.8 2.15 173.7 4.3 Q169.85 5.35 166.1 7.0 L165.75 7.2 171.6 6.25 177.5 5.2 177.9 5.25 178.0 5.5 178.0 5.55 182.75 4.25 177.75 5.8 Q176.0 7.5 171.5 8.1 156.95 13.85 141.9 24.15 135.25 28.7 128.9 33.85 142.2 25.7 156.75 18.5 L156.9 18.85 Q138.6 28.55 122.5 39.25 114.25 46.5 106.5 54.8 91.0 71.35 81.6 87.65 72.2 103.95 72.2 114.3 72.2 125.65 80.7 137.25 91.35 151.8 110.0 156.5 L108.85 154.0 Q107.75 151.65 107.75 151.05 107.75 150.15 109.15 150.15 110.35 150.15 111.25 150.85 L112.45 152.0 112.5 151.65 111.9 148.2 111.25 144.4 Q111.15 144.15 111.75 144.15 113.6 147.05 117.05 150.45 123.4 156.7 131.0 159.4 L131.0 159.35 131.3 159.4 131.7 159.6 131.7 159.65 132.35 159.85 132.45 160.0 132.0 160.45 131.8 160.6 Q132.4 160.75 132.5 160.85 L132.6 161.0 131.5 161.2 126.35 161.4 Q125.6 162.2 125.6 162.65 L126.5 165.8 127.35 169.55 127.25 170.6 123.1 170.4 Q120.9 170.4 119.8 171.2 119.1 171.7 119.1 172.1 L119.6 175.45 119.5 177.0 Q119.2 178.0 118.25 178.0 L116.55 177.85 117.95 181.45 117.7 182.05 117.25 182.35 113.7 182.15 104.0 182.0 102.85 181.6 101.5 181.15 103.7 186.25 103.55 186.5 103.45 186.7 103.45 186.75 Q104.35 187.25 104.35 187.3 104.35 187.95 100.55 188.85 95.35 190.1 87.4 190.1 L86.0 190.1 90.8 191.75 Q95.35 193.45 95.35 194.35 L92.35 197.65 86.5 204.1 82.8 208.7 81.1 210.45 82.0 210.6 82.5 210.7 82.7 211.15 82.45 211.55 82.0 211.85 80.0 211.85 79.55 211.75 Q77.75 213.1 76.4 213.1 L75.95 213.0 75.75 212.8 75.7 212.3 76.15 212.0 Q72.65 211.4 66.35 208.45 32.7 198.4 15.75 175.95 4.15 160.5 1.5 141.3 0.25 135.6 0.25 129.5 0.25 113.05 14.3 94.4 25.95 78.95 49.95 58.7 77.55 35.4 121.6 17.05 141.2 8.85 157.55 4.8 174.5 0.55 183.6 1.85" fill="#ffffcc" fill-rule="evenodd" stroke="none"/>
  </g>
</svg>