<?xml version="1.0" encoding="UTF-8" standalone="no"?>
<svg xmlns:xlink="http://www.w3.org/1999/xlink" height="148.1px" width="81.25px" xmlns="http://www.w3.org/2000/svg">
  <g transform="matrix(1.0, 0.0, 0.0, 1.0, -1.7, -67.25)">
    <path d="M36.75 68.25 L36.85 68.35 36.95 68.75 29.7 76.85 Q22.45 84.9 22.45 86.35 L22.95 86.85 23.45 87.35 17.9 95.6 Q11.75 104.45 9.5 111.0 L9.0 111.2 Q8.45 110.6 8.45 109.25 8.45 102.05 19.5 86.55 30.2 71.5 36.75 68.25 M6.95 115.2 Q5.95 125.5 5.95 128.65 L6.05 134.2 Q6.25 135.75 7.7 141.25 L9.7 147.6 Q10.75 150.75 11.95 152.3 L12.95 153.25 12.35 156.0 Q11.7 158.65 11.7 159.85 11.7 164.65 13.85 169.75 L15.95 174.65 15.45 176.25 15.0 176.35 Q6.9 161.95 5.0 156.2 2.7 149.45 2.7 138.15 L2.7 132.3 Q2.8 129.65 3.45 125.4 4.05 121.35 5.5 116.95 6.95 112.4 6.95 115.2 M11.75 102.45 L12.2 101.5 11.7 102.35 11.75 102.45 M19.0 180.25 Q19.25 180.2 22.15 182.1 25.4 184.25 30.0 184.25 33.75 184.25 35.55 183.45 37.3 182.6 38.4 182.6 39.0 182.6 39.35 183.6 L40.2 185.75 Q41.8 188.85 46.9 188.85 L51.55 193.55 Q56.65 199.05 61.1 201.9 66.0 205.1 70.4 207.15 75.0 209.35 81.7 211.6 80.8 212.8 79.2 212.0 L78.6 212.0 Q78.85 212.2 80.35 212.8 L81.95 213.75 81.8 214.1 81.25 214.35 72.95 211.5 61.75 207.85 Q53.5 205.55 41.5 199.15 38.55 197.6 29.8 191.2 18.95 183.2 18.95 180.8 L19.0 180.25" fill="#ffffcc" fill-rule="evenodd" stroke="none"/>
  </g>
</svg>