<?xml version="1.0" encoding="UTF-8" standalone="no"?>
<svg xmlns:xlink="http://www.w3.org/1999/xlink" height="102.85px" width="53px" xmlns="http://www.w3.org/2000/svg">
  <g transform="matrix(1.0, 0.0, 0.0, 1.0, -2.35, -103)">
    <path d="M11.1 104.75 Q10.6 106.65 10.0 106.85 9.35 106.7 9.35 106.0 9.35 105.4 9.7 104.8 10.15 103.95 11.0 104.0 L11.1 104.75 M5.25 154.65 L4.75 154.85 3.85 153.15 Q3.35 152.0 3.35 151.15 3.35 149.55 4.35 151.3 5.35 153.0 5.35 153.7 L5.25 154.65 M54.25 204.6 L54.1 204.8 53.6 204.85 Q52.65 204.85 51.2 204.05 50.0 203.35 49.85 203.1 50.55 201.8 52.3 202.65 53.65 203.3 54.35 204.25 L54.25 204.6" fill="#ffffcc" fill-rule="evenodd" stroke="none"/>
  </g>
</svg>