<?xml version="1.0" encoding="UTF-8" standalone="no"?>
<svg xmlns:xlink="http://www.w3.org/1999/xlink" height="118.1px" width="80px" xmlns="http://www.w3.org/2000/svg">
  <g transform="matrix(1.0, 0.0, 0.0, 1.0, -0.95, -95.75)">
    <path d="M14.85 96.85 L14.95 97.25 Q14.95 98.3 12.9 103.45 10.8 108.7 9.75 109.95 L9.3 109.5 9.2 108.85 Q9.2 107.5 11.45 102.5 13.75 97.35 14.75 96.75 L14.85 96.85 M1.95 138.15 Q1.95 132.5 2.2 129.5 3.65 130.65 3.75 133.95 L3.95 139.75 4.95 145.6 Q5.45 148.5 6.9 149.85 8.2 150.7 8.2 151.05 L7.7 152.7 Q7.2 154.2 7.2 155.3 7.2 158.35 10.95 165.3 L15.7 174.15 Q15.9 174.35 15.55 174.6 L14.9 174.85 Q13.65 174.85 10.05 167.65 7.35 162.3 5.0 156.5 2.95 151.4 2.35 147.2 1.95 144.3 1.95 138.15 M26.95 188.5 Q28.05 188.9 30.7 190.9 L35.0 193.85 37.35 195.25 Q39.1 196.2 44.1 196.75 46.85 197.05 48.2 198.8 49.45 200.5 50.0 200.5 51.05 200.5 51.55 199.95 52.1 199.35 52.65 199.35 53.4 199.35 56.9 202.2 61.05 205.55 62.85 206.5 64.6 207.4 70.05 209.1 L79.95 212.1 79.6 212.65 79.0 212.85 Q73.7 212.85 62.85 208.95 54.85 206.1 46.7 202.25 36.55 197.4 26.95 189.65 L26.95 188.5" fill="#ffffcc" fill-rule="evenodd" stroke="none"/>
  </g>
</svg>