<?xml version="1.0" encoding="UTF-8" standalone="no"?>
<svg xmlns:xlink="http://www.w3.org/1999/xlink" height="68.55px" width="48.6px" xmlns="http://www.w3.org/2000/svg">
  <g transform="matrix(1.0, 0.0, 0.0, 1.0, 1.25, 1.55)">
    <path d="M19.95 23.65 L19.95 23.5 20.1 21.6 20.1 17.75 20.3 14.3 20.1 6.9 19.85 3.25 Q20.25 1.05 19.75 0.55 L19.9 0.5 23.8 0.55 24.6 0.7 31.45 26.5 20.0 25.5 19.95 23.65" fill="#da5e3f" fill-rule="evenodd" stroke="none"/>
    <path d="M0.9 52.25 L0.7 52.0 0.85 51.85 1.15 51.5 1.8 50.7 2.5 49.6 5.6 45.3 Q8.45 41.4 10.8 38.8 L15.75 32.25 Q19.55 26.95 19.8 25.8 L20.0 25.5 31.45 26.5 31.6 26.9 31.6 26.95 22.2 53.0 22.0 53.65 21.8 53.65 0.9 52.25" fill="#dc935c" fill-rule="evenodd" stroke="none"/>
    <path d="M26.0 0.9 L34.2 25.3 26.65 51.0 22.2 53.0 31.6 26.95 31.6 26.9 31.75 26.55 31.45 26.5 24.6 0.7 26.0 0.9 M23.6 65.0 L19.9 64.2 13.95 63.15 9.7 62.05 5.65 61.1 2.8 55.45 0.9 52.25 21.8 53.65 21.85 54.0 23.6 65.0" fill="#756051" fill-rule="evenodd" stroke="none"/>
    <path d="M44.9 42.6 L44.45 43.55 43.65 45.25 43.5 45.5 41.2 50.35 41.15 50.45 41.05 50.7 38.6 55.15 Q37.0 58.2 36.6 59.45 L34.6 60.15 30.65 61.95 26.95 63.45 Q24.75 64.45 23.95 65.1 L23.6 65.0 21.85 54.0 22.0 53.65 22.2 53.0 26.65 51.0 44.9 42.6" fill="#655345" fill-rule="evenodd" stroke="none"/>
    <path d="M45.0 42.4 L44.9 42.6 26.65 51.0 34.2 25.3 26.0 0.9 28.9 1.3 29.3 1.4 32.6 9.8 Q36.5 19.15 37.45 21.95 43.7 40.25 45.0 42.4" fill="#78849c" fill-rule="evenodd" stroke="none"/>
    <path d="M24.15 -0.55 L28.3 0.15 Q30.45 0.55 30.45 1.0 30.45 1.4 30.05 1.45 L30.2 1.7 31.85 5.35 34.2 10.6 Q36.15 14.85 38.25 21.1 L42.55 32.9 45.6 41.6 45.75 41.45 Q46.35 40.85 46.35 41.9 L41.95 51.35 37.75 59.3 38.0 59.65 Q38.0 60.35 32.25 62.6 25.05 65.4 23.9 66.0 L23.5 65.9 23.5 65.8 12.9 63.85 7.55 62.6 Q4.8 61.95 4.8 61.5 L4.85 61.15 -0.25 52.0 Q-0.25 51.4 0.0 51.4 0.05 50.85 0.75 50.15 L1.7 49.45 Q3.9 46.2 10.35 38.0 L15.25 31.35 18.2 26.9 Q19.1 25.6 19.5 25.4 L19.3 23.95 19.3 22.5 19.5 14.3 19.2 7.65 Q18.85 3.6 18.85 0.45 L18.9 0.45 Q18.6 0.3 18.6 -0.05 18.6 -0.4 19.9 -0.55 L24.15 -0.55 M44.45 43.55 L44.7 43.05 45.05 42.45 45.0 42.4 Q43.7 40.25 37.45 21.95 36.5 19.15 32.6 9.8 L29.3 1.4 29.3 1.35 28.9 1.3 26.0 0.9 24.6 0.7 23.8 0.55 19.9 0.5 19.75 0.55 Q20.25 1.05 19.85 3.25 L20.1 6.9 20.3 14.3 20.1 17.75 20.1 21.6 19.95 23.5 19.95 23.65 19.75 25.4 19.8 25.65 19.8 25.8 Q19.55 26.95 15.75 32.25 L10.8 38.8 Q8.45 41.4 5.6 45.3 L2.5 49.6 1.8 50.7 1.15 51.5 0.85 51.85 0.7 52.0 0.9 52.25 2.8 55.45 5.65 61.1 9.7 62.05 13.95 63.15 19.9 64.2 23.6 65.0 23.95 65.1 Q24.75 64.45 26.95 63.45 L30.65 61.95 34.6 60.15 36.6 59.45 Q37.0 58.2 38.6 55.15 L41.05 50.7 41.15 50.45 41.2 50.35 43.5 45.5 43.65 45.25 44.45 43.55" fill="#452625" fill-rule="evenodd" stroke="none"/>
  </g>
</svg>