<?xml version="1.0" encoding="UTF-8" standalone="no"?>
<svg xmlns:xlink="http://www.w3.org/1999/xlink" height="22.25px" width="14.85px" xmlns="http://www.w3.org/2000/svg">
  <g transform="matrix(1.0, 0.0, 0.0, 1.0, 4.55, 11)">
    <path d="M3.8 -9.8 Q3.8 -9.2 3.25 -8.3 2.55 -7.15 1.65 -7.15 L1.05 -7.85 Q1.05 -8.2 1.95 -9.05 2.95 -9.85 3.7 -10.0 L3.8 -9.8 M2.7 -8.65 L1.95 -8.05 2.65 -8.05 2.7 -8.65" fill="#66ffff" fill-rule="evenodd" stroke="none"/>
    <path d="M3.1 -0.8 L4.4 -0.95 5.15 -1.1 Q6.55 -1.1 7.8 1.1 L8.75 3.5 Q9.3 3.95 9.3 4.8 9.3 6.05 8.3 7.4 L7.0 8.65 6.5 9.2 Q5.45 10.25 4.4 10.25 2.2 10.25 0.3 8.35 L-0.8 7.05 -1.95 5.55 Q-3.55 2.9 -3.55 0.65 L-3.55 0.4 -3.55 0.15 -3.25 -1.8 -2.05 -3.65 Q-0.6 -4.8 -0.3 -5.35 0.4 -6.55 0.85 -6.4 1.2 -6.25 1.2 -5.5 0.85 -4.0 0.85 -3.35 L1.05 -1.85 1.0 -1.55 Q1.6 -0.8 3.1 -0.8" fill="#9df9f4" fill-rule="evenodd" stroke="none"/>
  </g>
</svg>