<?xml version="1.0" encoding="UTF-8" standalone="no"?>
<svg xmlns:xlink="http://www.w3.org/1999/xlink" height="20.8px" width="14.85px" xmlns="http://www.w3.org/2000/svg">
  <g transform="matrix(1.0, 0.0, 0.0, 1.0, 3.65, 10.7)">
    <path d="M2.5 -9.05 Q3.2 -9.7 3.55 -9.7 L3.65 -9.5 3.55 -8.8 3.1 -8.15 Q2.55 -7.65 2.1 -7.6 L1.8 -7.65 1.75 -7.85 Q1.75 -8.3 2.5 -9.05 M1.3 -5.95 L1.8 -5.4 Q1.8 -4.95 0.15 -3.45 -0.45 -3.45 -0.3 -4.35 -0.3 -5.25 0.4 -5.85 L1.3 -5.95" fill="#24f0e6" fill-rule="evenodd" stroke="none"/>
    <path d="M0.2 -2.2 Q0.7 -2.4 1.3 -1.7 L1.95 -0.8 Q2.1 -0.45 2.75 -0.45 3.35 -0.45 4.25 -1.2 5.15 -1.95 5.55 -1.95 L6.0 -1.9 Q6.9 -2.55 7.8 -2.55 8.9 -2.55 9.65 -0.35 10.2 1.25 10.2 2.3 10.2 3.8 9.15 6.0 7.65 9.1 5.05 9.1 2.55 9.1 0.4 7.8 L-1.3 6.5 Q-2.35 6.2 -2.65 3.25 -2.65 2.3 -2.1 0.95 -1.5 -0.5 -1.05 -0.5 L-1.0 0.4 Q-0.5 -0.05 -0.6 -0.8 L-0.65 -2.0 Q-0.65 -2.85 -0.3 -3.05 L0.1 -2.1 0.2 -2.2 M1.25 0.3 L1.05 0.1 1.2 0.35 1.25 0.3" fill="#9df9f4" fill-rule="evenodd" stroke="none"/>
  </g>
</svg>