<?xml version="1.0" encoding="UTF-8" standalone="no"?>
<svg xmlns:xlink="http://www.w3.org/1999/xlink" height="133.45px" width="38.75px" xmlns="http://www.w3.org/2000/svg">
  <g transform="matrix(1.0, 0.0, 0.0, 1.0, 7.35, 52.9)">
    <path d="M6.45 -36.35 Q3.4 -41.7 -5.85 -49.65 -1.1 -48.2 6.8 -42.1 13.9 -36.55 18.35 -31.6 L18.0 -31.15 Q17.75 -30.9 17.1 -30.95 16.2 -31.0 12.8 -32.3 14.95 -31.25 14.75 -30.45 14.15 -29.65 14.1 -29.2 L17.4 -25.75 Q20.95 -22.15 21.65 -20.8 L21.55 -20.15 Q21.45 -19.7 20.8 -19.75 L16.65 -21.25 Q13.05 -22.75 11.35 -23.0 L9.15 -24.0 Q7.0 -25.2 6.55 -26.1 8.05 -27.15 9.0 -27.25 L9.1 -27.7 Q8.05 -29.2 5.3 -31.5 3.35 -33.05 3.45 -34.55 L3.75 -35.6 Q4.35 -36.45 6.45 -36.35 M16.05 -13.95 Q19.75 -10.95 19.75 -10.4 19.7 -9.65 19.25 -9.45 L17.6 -9.35 Q15.1 -9.55 5.95 -14.0 -2.95 -18.3 -6.3 -20.8 L-6.35 -21.7 -4.7 -21.9 -1.4 -21.15 1.9 -20.45 Q2.35 -20.4 3.55 -21.05 4.9 -21.8 5.75 -21.95 8.8 -22.55 11.8 -17.5 L16.05 -13.95 M13.3 -8.95 L15.55 -8.7 Q16.45 -8.6 16.35 -7.5 15.0 1.5 13.45 3.05 L10.5 0.7 Q8.85 -1.05 8.9 -2.3 8.95 -2.95 11.6 -5.4 13.95 -7.65 13.3 -8.95 M-3.35 -50.35 L-3.55 -50.15 -4.15 -50.45 Q-4.55 -50.75 -4.5 -51.4 L-4.45 -51.9 -4.3 -51.65 -4.3 -51.8 Q-3.65 -51.55 -3.35 -50.35 M-0.5 50.85 Q-0.45 50.35 3.45 46.0 L8.5 40.25 Q7.1 39.8 6.9 39.45 L6.85 38.9 8.8 36.4 10.25 34.25 Q7.6 33.95 6.85 33.3 6.5 32.95 6.55 32.25 6.55 31.8 9.35 28.25 L12.0 24.75 11.6 24.6 Q11.55 24.25 11.8 23.55 L12.0 22.65 11.2 21.1 11.8 20.55 11.65 20.1 7.0 21.55 2.05 21.7 0.05 21.35 0.05 19.95 5.7 14.5 Q11.35 9.2 11.55 5.85 L12.85 4.2 Q14.3 2.5 15.4 2.2 16.4 3.65 16.6 4.45 L16.55 6.35 Q16.45 8.35 15.05 10.7 13.65 13.2 11.85 14.25 L11.85 14.4 21.15 14.95 Q22.4 15.3 22.35 16.3 22.25 17.6 18.75 21.2 16.35 23.6 14.75 24.45 14.85 25.95 15.25 27.75 16.15 32.3 16.0 34.2 15.95 35.15 13.45 39.45 11.05 43.65 11.25 44.25 L11.75 44.75 Q12.95 45.1 15.75 43.9 18.8 42.55 20.55 42.7 L22.35 43.0 22.45 43.2 22.5 43.9 18.55 49.6 Q14.3 55.65 13.15 58.6 L13.15 58.8 Q13.65 58.55 14.1 58.4 L15.6 58.2 16.85 58.5 16.9 58.7 16.95 59.4 Q16.9 60.35 7.45 70.05 -1.85 79.55 -2.15 79.55 L-3.15 79.25 -3.2 78.3 Q-3.05 76.65 1.95 64.9 L8.1 50.5 8.1 50.3 5.45 51.25 Q3.15 52.3 1.55 52.15 L-0.45 51.85 -0.5 50.85 M26.15 47.65 L21.9 52.25 Q20.95 51.3 21.05 50.0 21.35 45.5 26.05 40.95 27.95 39.05 29.15 39.05 30.6 39.05 30.4 41.5 30.3 42.95 26.15 47.65" fill="#ffcc99" fill-opacity="0.29803923" fill-rule="evenodd" stroke="none"/>
  </g>
</svg>