<?xml version="1.0" encoding="UTF-8" standalone="no"?>
<svg xmlns:xlink="http://www.w3.org/1999/xlink" height="130.7px" width="13.65px" xmlns="http://www.w3.org/2000/svg">
  <g transform="matrix(1.0, 0.0, 0.0, 1.0, 5.05, 50.3)">
    <path d="M0.9 -17.85 Q-1.05 -18.0 -2.3 -19.05 -3.25 -19.85 -3.15 -20.7 L-3.05 -21.4 -2.9 -21.7 Q-2.3 -21.8 -0.2 -20.65 L2.35 -18.85 Q1.75 -17.8 0.9 -17.85 M2.0 -44.4 Q2.25 -44.95 2.6 -44.95 L3.65 -43.8 3.4 -43.2 2.45 -42.95 1.65 -43.55 2.0 -44.4 M3.75 17.15 Q4.2 16.8 4.1 17.8 4.1 18.25 3.6 18.65 3.0 19.1 2.2 19.05 L2.0 19.2 3.55 19.35 3.7 20.15 2.95 21.55 Q2.25 22.45 1.0 22.4 0.05 22.3 -1.0 20.3 -0.95 19.6 0.75 18.35 2.6 17.0 3.75 17.15 M5.9 32.05 Q5.95 31.4 6.45 31.25 L7.25 31.2 7.6 31.85 Q7.35 32.5 6.55 32.75 L6.05 32.75 Q5.85 32.65 5.9 32.05 M0.25 77.3 L-0.4 79.2 -1.55 79.4 -2.05 79.35 -2.2 78.7 Q-2.15 77.9 -1.6 77.35 -1.0 76.75 0.05 76.85 L0.25 77.3 M0.5 52.7 Q-0.4 52.65 -1.45 51.7 L-0.4 50.45 Q0.2 50.15 1.8 50.75 L1.9 51.75 1.4 52.3 Q1.0 52.75 0.5 52.7 M-2.3 -46.1 Q-4.0 -47.7 -4.05 -48.5 L-3.9 -49.3 Q-3.1 -49.25 -1.55 -47.7 L0.2 -45.65 -0.05 -45.05 0.0 -44.9 -0.7 -44.8 -2.3 -46.1" fill="#ffcc99" fill-opacity="0.29803923" fill-rule="evenodd" stroke="none"/>
  </g>
</svg>