<?xml version="1.0" encoding="UTF-8" standalone="no"?>
<svg xmlns:xlink="http://www.w3.org/1999/xlink" height="49.3px" width="61px" xmlns="http://www.w3.org/2000/svg">
  <g transform="matrix(1.0, 0.0, 0.0, 1.0, 1, 1)">
    <path d="M32.35 28.2 L32.75 28.0 Q39.45 24.5 44.2 23.55 L44.85 23.35 Q45.2 22.3 46.7 21.1 L47.55 20.2 50.0 18.25 Q50.7 17.8 53.1 16.5 L56.0 15.15 54.5 13.9 51.95 11.7 50.65 10.7 48.75 9.5 46.95 8.3 45.2 7.15 Q42.4 7.75 41.15 11.25 40.4 13.35 40.15 15.65 L37.65 17.8 Q36.8 18.4 35.8 18.4 33.55 18.4 21.0 26.9 L15.0 30.5 Q11.15 32.55 10.15 32.55 L8.15 31.5 Q6.0 30.4 4.85 30.4 L4.3 30.35 4.5 30.15 Q4.85 29.45 4.65 28.05 L4.0 28.5 2.0 30.3 2.15 31.15 Q2.6 32.55 4.25 35.1 L4.8 36.0 5.25 36.6 5.35 36.7 6.0 37.7 9.75 42.55 11.3 44.1 Q14.85 38.25 27.65 30.8 28.8 30.1 29.95 29.5 L31.5 28.65 32.35 28.2 M52.7 10.1 L55.05 11.95 55.65 12.25 55.95 12.4 56.2 12.6 58.15 14.25 59.0 15.0 58.6 15.15 Q56.75 15.95 52.25 18.7 47.15 21.8 46.9 22.85 L46.65 23.1 45.25 24.5 45.15 24.65 44.95 24.6 Q41.35 25.1 35.7 27.45 32.7 28.7 29.8 30.35 21.7 34.95 14.45 42.5 L13.65 43.65 13.2 44.45 13.0 45.2 11.95 46.7 11.6 47.3 Q10.5 46.5 8.1 43.65 L5.1 39.5 3.6 36.7 Q2.75 35.65 1.55 33.1 L0.75 31.75 0.2 30.4 0.05 30.2 0.0 30.0 0.2 29.7 0.25 29.65 Q0.45 29.4 1.0 29.15 L2.4 28.55 Q3.35 27.8 3.85 27.5 L4.4 27.2 4.5 27.05 4.45 27.2 4.6 27.2 Q4.15 23.75 4.75 21.65 4.9 21.05 5.55 19.95 L6.45 21.25 7.35 22.25 Q8.7 19.55 8.7 17.5 9.4 17.55 10.25 18.5 L11.35 19.8 Q11.3 16.85 12.2 15.4 L13.0 16.7 Q13.65 17.7 14.2 17.95 14.55 14.85 15.1 13.85 L16.5 15.55 Q17.5 16.9 17.4 16.2 17.35 14.85 17.65 13.5 17.85 12.25 18.15 12.05 19.3 13.0 20.25 14.25 L20.3 13.85 Q20.1 12.4 21.4 11.05 22.5 9.9 23.2 9.9 24.3 9.9 24.4 9.5 L24.4 6.05 Q24.35 4.3 27.3 2.1 30.05 0.0 31.75 0.0 34.0 0.0 34.1 1.25 L34.25 4.4 35.85 9.7 36.05 10.2 35.95 10.05 36.25 10.9 36.3 11.0 36.55 12.05 36.7 12.7 Q38.55 12.65 39.05 13.9 L39.3 15.6 39.6 15.45 Q39.65 12.95 40.5 10.6 42.25 5.9 46.7 5.9 47.4 5.9 48.6 6.75 L48.5 6.75 48.45 6.75 49.1 7.2 52.7 10.1 M33.35 0.95 Q33.25 0.8 32.95 0.8 L30.45 1.2 28.7 2.25 28.45 2.4 26.85 3.4 26.4 3.75 26.15 3.95 24.95 5.0 24.85 5.95 25.05 9.05 24.85 9.6 24.6 10.9 Q24.6 11.5 24.75 11.8 L24.15 10.9 Q23.9 10.55 23.15 10.55 22.1 10.55 21.2 12.65 L20.3 15.15 18.2 12.8 17.85 15.35 17.55 16.95 17.05 16.9 Q16.45 16.7 15.3 14.55 L15.1 15.2 14.9 16.55 Q14.9 18.35 14.35 18.5 L13.0 17.2 12.3 16.2 Q12.1 17.2 11.9 17.2 L11.8 19.3 11.6 20.15 11.2 20.35 9.9 19.15 8.95 18.1 8.6 20.2 8.35 20.85 Q7.75 22.25 7.7 22.9 L7.65 22.95 7.4 22.95 6.8 22.4 5.95 21.9 5.55 20.95 5.1 23.45 6.3 24.7 7.0 23.8 Q8.65 24.85 9.35 26.7 10.75 23.25 11.4 22.1 L12.1 22.85 13.45 26.3 13.6 25.95 Q14.55 24.7 14.45 23.75 14.35 22.8 15.55 21.1 16.5 21.3 17.2 22.5 L17.95 24.2 18.05 23.7 Q18.05 22.6 19.9 18.15 20.75 18.35 21.15 18.85 L22.1 20.25 23.25 16.95 25.6 18.3 Q25.85 17.85 26.2 17.7 L26.45 17.6 26.45 16.9 Q26.5 15.0 26.9 14.9 27.8 14.9 28.95 16.3 L30.25 14.6 31.4 13.3 32.75 14.45 Q35.4 14.45 36.15 13.45 L36.25 13.25 36.3 13.2 36.35 12.9 35.45 10.25 34.2 6.85 33.65 3.8 33.55 2.65 33.65 2.1 Q33.6 1.05 33.35 0.95 M27.15 17.25 L26.8 17.9 26.05 19.25 26.45 20.0 27.35 21.25 27.5 21.25 Q29.25 20.95 29.25 19.85 29.25 18.3 28.4 17.2 L27.25 15.7 Q27.45 16.4 27.15 17.25 M31.45 14.9 L30.35 16.15 Q29.55 16.85 29.55 17.25 L29.75 18.1 29.9 18.35 30.35 18.55 30.8 18.75 32.25 17.25 32.55 16.35 32.2 15.1 31.7 14.35 31.45 14.9 M23.5 23.35 L24.1 23.65 25.5 21.9 26.1 21.25 Q26.1 20.15 23.65 17.65 L23.5 17.65 23.65 18.75 Q23.6 19.5 23.2 19.6 22.35 19.85 22.35 21.05 22.35 22.7 23.0 23.05 L23.5 23.35 M20.6 19.6 L20.25 19.15 20.15 19.05 18.5 24.5 19.3 25.3 19.85 25.7 20.8 26.0 Q21.45 26.0 21.8 24.65 L22.05 22.55 Q21.35 20.7 20.6 19.6 M35.25 17.3 L36.3 17.35 Q38.55 17.0 38.55 15.55 L38.25 14.05 37.9 13.3 36.55 14.25 36.1 14.65 35.1 15.5 Q34.25 15.5 32.85 14.7 L33.25 16.1 34.4 16.95 34.65 17.1 35.25 17.3 M5.15 26.85 L5.15 26.95 Q5.4 29.1 5.95 29.35 L7.3 30.0 7.1 29.45 7.5 28.6 8.25 29.5 Q9.4 30.85 10.7 31.3 L10.85 30.85 10.75 30.6 10.8 30.6 11.25 30.45 11.3 30.75 11.25 30.9 11.9 31.05 Q13.0 31.05 13.1 27.85 L11.75 23.6 11.6 23.25 11.4 23.7 Q11.2 23.65 10.95 24.2 L10.35 25.6 9.8 27.15 9.65 27.85 8.7 26.45 Q7.65 25.0 7.3 25.05 L7.05 24.7 6.75 25.4 Q6.6 25.55 6.6 26.1 L6.1 25.75 6.0 25.7 5.95 25.1 5.15 25.0 5.15 26.5 5.15 26.85 M15.85 22.3 L15.65 22.0 Q14.85 25.75 13.65 27.25 13.85 27.8 15.0 28.5 L15.75 28.95 16.65 27.95 Q17.35 26.85 17.35 25.55 17.35 24.3 15.85 22.3" fill="#452625" fill-rule="evenodd" stroke="none"/>
    <path d="M48.75 9.5 L50.65 10.7 51.95 11.7 54.5 13.9 56.0 15.15 53.1 16.5 Q50.7 17.8 50.0 18.25 L47.55 20.2 46.7 21.1 Q45.2 22.3 44.85 23.35 L44.2 23.55 Q39.45 24.5 32.75 28.0 L32.35 28.2 32.75 28.0 Q37.4 25.2 42.3 22.85 45.8 21.1 48.4 18.05 50.3 15.7 52.75 14.2 L48.75 9.5" fill="#729ac2" fill-rule="evenodd" stroke="none"/>
    <path d="M5.35 36.7 L5.25 36.6 4.8 36.0 4.25 35.1 Q2.6 32.55 2.15 31.15 L2.0 30.3 4.0 28.5 4.65 28.05 Q4.85 29.45 4.5 30.15 L4.3 30.35 4.85 30.4 Q6.0 30.4 8.15 31.5 L10.15 32.55 Q11.15 32.55 15.0 30.5 L21.0 26.9 Q33.55 18.4 35.8 18.4 36.8 18.4 37.65 17.8 L40.15 15.65 Q40.4 13.35 41.15 11.25 42.4 7.75 45.2 7.15 L46.95 8.3 47.85 10.7 49.0 12.95 50.0 15.3 47.1 17.8 Q43.95 20.6 43.0 22.1 42.65 22.6 41.15 23.0 L38.5 23.7 Q37.35 24.05 32.6 25.95 L32.45 26.0 31.6 26.35 31.6 24.85 31.6 24.55 31.6 23.65 31.55 22.8 31.55 22.4 31.45 22.45 31.1 21.8 31.0 22.7 30.65 24.95 30.65 25.0 30.4 26.95 29.3 27.5 Q24.8 29.75 19.55 33.85 14.1 38.15 11.95 41.15 9.95 40.65 7.8 39.1 6.25 38.0 5.35 36.7 M40.8 20.95 L42.2 19.05 Q44.0 16.8 45.95 14.8 45.45 14.3 42.85 13.3 41.0 17.35 39.85 18.25 38.05 19.05 36.1 20.15 33.8 21.25 31.75 22.3 L32.2 24.3 Q35.75 22.8 39.2 21.8 40.35 21.45 40.8 20.95 M12.6 33.9 L11.3 34.25 8.45 33.7 5.15 32.65 2.95 31.85 Q3.55 33.35 5.35 36.05 L7.2 37.65 Q8.85 38.9 9.6 38.9 L9.8 38.9 10.1 38.9 10.45 38.7 11.8 37.3 12.35 36.55 12.4 36.55 Q18.75 30.7 27.65 26.35 L29.55 25.5 29.8 23.3 24.5 26.05 Q16.9 30.15 12.75 33.85 L12.6 33.9" fill="#756051" fill-rule="evenodd" stroke="none"/>
    <path d="M32.35 28.2 L31.5 28.65 29.95 29.5 Q28.8 30.1 27.65 30.8 14.85 38.25 11.3 44.1 L9.75 42.55 6.0 37.7 5.35 36.7 Q6.25 38.0 7.8 39.1 9.95 40.65 11.95 41.15 14.1 38.15 19.55 33.85 24.8 29.75 29.3 27.5 L30.4 26.95 30.65 25.0 30.65 24.95 31.0 22.7 31.1 21.8 31.45 22.45 31.55 22.8 31.6 23.65 31.6 24.55 31.6 24.85 31.6 26.35 32.45 26.0 32.6 25.95 Q37.35 24.05 38.5 23.7 L41.15 23.0 Q42.65 22.6 43.0 22.1 43.95 20.6 47.1 17.8 L50.0 15.3 49.0 12.95 47.85 10.7 46.95 8.3 48.75 9.5 52.75 14.2 Q50.3 15.7 48.4 18.05 45.8 21.1 42.3 22.85 37.4 25.2 32.75 28.0 L32.35 28.2 M27.5 21.25 L27.75 20.7 27.95 19.4 Q27.95 17.85 27.2 17.25 L27.15 17.25 Q27.45 16.4 27.25 15.7 L28.4 17.2 Q29.25 18.3 29.25 19.85 29.25 20.95 27.5 21.25 M31.45 14.9 L31.7 14.35 32.2 15.1 32.55 16.35 32.25 17.25 30.8 18.75 30.35 18.55 30.85 17.6 Q31.45 16.25 31.45 14.9 M23.65 18.75 L23.5 17.65 23.65 17.65 Q26.1 20.15 26.1 21.25 L25.5 21.9 24.1 23.65 23.5 23.35 24.0 22.1 24.65 20.5 Q24.65 19.7 24.25 19.2 23.95 18.8 23.65 18.75 M19.85 25.7 L20.75 24.3 21.0 22.05 Q21.0 21.05 20.6 19.6 21.35 20.7 22.05 22.55 L21.8 24.65 Q21.45 26.0 20.8 26.0 L19.85 25.7 M36.55 14.25 L37.9 13.3 38.25 14.05 38.55 15.55 Q38.55 17.0 36.3 17.35 L35.25 17.3 36.0 16.75 Q36.65 16.05 36.65 15.15 L36.55 14.25 M15.0 28.5 L15.45 27.95 15.65 26.55 16.0 24.65 15.95 23.6 15.85 22.3 Q17.35 24.3 17.35 25.55 17.35 26.85 16.65 27.95 L15.75 28.95 15.0 28.5" fill="#78849c" fill-rule="evenodd" stroke="none"/>
    <path d="M40.8 20.95 Q40.35 21.45 39.2 21.8 35.75 22.8 32.2 24.3 L31.75 22.3 Q33.8 21.25 36.1 20.15 38.05 19.05 39.85 18.25 41.0 17.35 42.85 13.3 45.45 14.3 45.95 14.8 44.0 16.8 42.2 19.05 L40.8 20.95 M31.55 22.8 L31.45 22.45 31.55 22.4 31.55 22.8 M5.15 26.85 L5.15 26.5 Q5.15 25.25 5.85 25.7 6.3 26.0 6.45 26.65 L6.65 26.65 6.9 26.8 6.7 26.3 Q6.7 24.45 7.95 26.15 9.2 27.8 9.2 28.25 L8.95 28.75 8.4 28.95 Q7.8 28.95 7.2 27.55 L7.2 27.5 Q7.1 27.7 6.8 27.7 L6.5 27.7 6.4 27.9 6.1 28.1 Q5.2 28.1 5.15 26.85 M11.6 26.25 L11.35 27.95 10.85 29.35 Q10.3 29.35 10.15 28.55 L10.1 27.65 Q10.1 26.65 10.85 25.85 11.6 25.05 11.6 26.25 M12.6 33.9 L12.75 33.85 Q16.9 30.15 24.5 26.05 L29.8 23.3 29.55 25.5 27.65 26.35 Q18.75 30.7 12.4 36.55 L12.35 36.55 11.8 37.3 10.45 38.7 10.1 38.9 9.8 38.9 9.6 38.9 Q8.85 38.9 7.2 37.65 L5.35 36.05 Q3.55 33.35 2.95 31.85 L5.15 32.65 8.45 33.7 11.3 34.25 12.6 33.9" fill="#dc935c" fill-rule="evenodd" stroke="none"/>
    <path d="M33.35 0.95 Q33.6 1.05 33.65 2.1 L33.55 2.65 33.65 3.8 34.2 6.85 35.45 10.25 36.35 12.9 36.3 13.2 36.25 13.25 36.15 13.45 Q35.4 14.45 32.75 14.45 L31.4 13.3 30.25 14.6 28.95 16.3 Q27.8 14.9 26.9 14.9 26.5 15.0 26.45 16.9 L26.45 17.6 26.2 17.7 Q25.85 17.85 25.6 18.3 L23.25 16.95 22.1 20.25 21.15 18.85 Q20.75 18.35 19.9 18.15 18.05 22.6 18.05 23.7 L17.95 24.2 17.2 22.5 Q16.5 21.3 15.55 21.1 14.35 22.8 14.45 23.75 14.55 24.7 13.6 25.95 L13.45 26.3 12.1 22.85 11.4 22.1 Q10.75 23.25 9.35 26.7 8.65 24.85 7.0 23.8 L6.3 24.7 5.1 23.45 5.55 20.95 5.95 21.9 6.8 22.4 7.4 22.95 7.65 22.95 7.7 22.9 Q7.75 22.25 8.35 20.85 L8.6 20.2 8.95 18.1 9.9 19.15 11.2 20.35 11.6 20.15 11.8 19.3 11.9 17.2 Q12.1 17.2 12.3 16.2 L13.0 17.2 14.35 18.5 Q14.9 18.35 14.9 16.55 L15.1 15.2 15.3 14.55 Q16.45 16.7 17.05 16.9 L17.55 16.95 17.85 15.35 18.2 12.8 20.3 15.15 21.2 12.65 Q22.1 10.55 23.15 10.55 23.9 10.55 24.15 10.9 L24.75 11.8 Q24.6 11.5 24.6 10.9 L24.85 9.6 25.05 9.05 24.85 5.95 24.95 5.0 26.15 3.95 26.4 3.75 26.85 3.4 28.45 2.4 28.7 2.25 30.45 1.2 32.95 0.8 Q33.25 0.8 33.35 0.95" fill="#644049" fill-rule="evenodd" stroke="none"/>
    <path d="M27.15 17.25 L27.2 17.25 Q27.95 17.85 27.95 19.4 L27.75 20.7 27.5 21.25 27.35 21.25 26.45 20.0 26.05 19.25 26.8 17.9 27.15 17.25 M30.35 18.55 L29.9 18.35 29.75 18.1 29.55 17.25 Q29.55 16.85 30.35 16.15 L31.45 14.9 Q31.45 16.25 30.85 17.6 L30.35 18.55 M23.5 23.35 L23.0 23.05 Q22.35 22.7 22.35 21.05 22.35 19.85 23.2 19.6 23.6 19.5 23.65 18.75 23.95 18.8 24.25 19.2 24.65 19.7 24.65 20.5 L24.0 22.1 23.5 23.35 M19.85 25.7 L19.3 25.3 18.5 24.5 20.15 19.05 20.25 19.15 20.6 19.6 Q21.0 21.05 21.0 22.05 L20.75 24.3 19.85 25.7 M35.25 17.3 L34.65 17.1 34.4 16.95 33.25 16.1 32.85 14.7 Q34.25 15.5 35.1 15.5 L36.1 14.65 36.55 14.25 36.65 15.15 Q36.65 16.05 36.0 16.75 L35.25 17.3 M5.15 26.5 L5.15 25.0 5.95 25.1 6.0 25.7 6.1 25.75 6.6 26.1 Q6.6 25.55 6.75 25.4 L7.05 24.7 7.3 25.05 Q7.65 25.0 8.7 26.45 L9.65 27.85 9.8 27.15 10.35 25.6 10.95 24.2 Q11.2 23.65 11.4 23.7 L11.6 23.25 11.75 23.6 13.1 27.85 Q13.0 31.05 11.9 31.05 L11.25 30.9 11.3 30.75 11.25 30.45 10.8 30.6 10.75 30.6 10.85 30.85 10.7 31.3 Q9.4 30.85 8.25 29.5 L7.5 28.6 7.1 29.45 7.3 30.0 5.95 29.35 Q5.4 29.1 5.15 26.95 L5.15 26.85 Q5.2 28.1 6.1 28.1 L6.4 27.9 6.5 27.7 6.8 27.7 Q7.1 27.7 7.2 27.5 L7.2 27.55 Q7.8 28.95 8.4 28.95 L8.95 28.75 9.2 28.25 Q9.2 27.8 7.95 26.15 6.7 24.45 6.7 26.3 L6.9 26.8 6.65 26.65 6.45 26.65 Q6.3 26.0 5.85 25.7 5.15 25.25 5.15 26.5 M15.0 28.5 Q13.85 27.8 13.65 27.25 14.85 25.75 15.65 22.0 L15.85 22.3 15.95 23.6 16.0 24.65 15.65 26.55 15.45 27.95 15.0 28.5 M11.6 26.25 Q11.6 25.05 10.85 25.85 10.1 26.65 10.1 27.65 L10.15 28.55 Q10.3 29.35 10.85 29.35 L11.35 27.95 11.6 26.25" fill="#967656" fill-rule="evenodd" stroke="none"/>
  </g>
</svg>