<?xml version="1.0" encoding="UTF-8" standalone="no"?>
<svg xmlns:xlink="http://www.w3.org/1999/xlink" height="94.45px" width="93.15px" xmlns="http://www.w3.org/2000/svg">
  <g transform="matrix(1.0, 0.0, 0.0, 1.0, 2.4, 2.8)">
    <path d="M82.15 0.85 L82.6 0.0 87.75 30.5 87.45 31.1 79.25 26.35 79.45 26.2 79.9 26.3 79.95 25.85 82.15 0.85" fill="#78849c" fill-rule="evenodd" stroke="none"/>
    <path d="M70.25 23.45 L70.15 23.45 82.15 0.85 79.95 25.85 79.45 26.2 78.5 25.9 70.25 23.45" fill="#d6925f" fill-rule="evenodd" stroke="none"/>
    <path d="M10.8 49.2 Q32.2 40.7 46.85 22.25 L54.05 22.75 53.6 23.5 Q37.7 43.35 16.45 52.15 L16.3 52.25 10.8 49.2" fill="#cb7c4e" fill-rule="evenodd" stroke="none"/>
    <path d="M87.45 31.1 L72.6 61.25 72.55 61.3 37.95 68.3 37.85 68.3 37.85 68.25 33.8 59.7 34.05 59.65 33.75 59.5 33.55 59.15 Q48.9 43.1 53.6 23.5 L54.2 22.75 54.35 22.75 62.05 26.95 70.9 31.5 71.35 31.7 71.3 31.2 79.25 26.35 87.45 31.1" fill="#756051" fill-rule="evenodd" stroke="none"/>
    <path d="M62.05 26.95 L70.25 23.45 78.5 25.9 79.25 26.35 71.3 31.2 70.9 31.5 62.05 26.95" fill="#655345" fill-rule="evenodd" stroke="none"/>
    <path d="M16.9 88.6 L16.65 88.6 16.15 88.35 8.45 66.2 8.55 66.0 8.95 65.9 33.15 59.85 33.8 59.7 37.85 68.25 37.85 68.3 37.85 68.4 37.7 68.5 16.9 88.6 M7.25 83.55 L0.0 62.85 0.15 62.65 5.8 64.75 14.6 86.0 7.25 83.55 M33.55 59.15 L33.45 59.4 16.95 52.6 16.4 52.3 16.3 52.25 16.45 52.15 Q37.7 43.35 53.6 23.5 48.9 43.1 33.55 59.15" fill="#dc935c" fill-rule="evenodd" stroke="none"/>
    <path d="M16.15 88.35 L7.45 84.1 7.25 83.55 14.6 86.0 5.8 64.75 8.95 65.9 8.55 66.0 8.45 66.2 16.15 88.35 M33.45 59.4 L33.4 59.5 10.05 64.3 16.4 52.3 16.95 52.6 33.45 59.4" fill="#eacb8a" fill-rule="evenodd" stroke="none"/>
    <path d="M0.15 62.65 L9.25 49.8 10.8 49.2 16.3 52.25 16.4 52.3 10.05 64.3 33.4 59.5 33.15 59.85 8.95 65.9 5.8 64.75 0.15 62.65" fill="#f1e0b8" fill-rule="evenodd" stroke="none"/>
    <path d="M72.55 61.3 L38.95 89.05 37.7 68.5 37.85 68.4 37.95 68.3 72.55 61.3" fill="#957181" fill-rule="evenodd" stroke="none"/>
    <path d="M38.95 89.05 L38.9 89.1 16.9 88.6 37.7 68.5 38.95 89.05" fill="#7e5f6d" fill-rule="evenodd" stroke="none"/>
    <path d="M83.45 -0.55 L84.1 1.7 84.6 4.7 Q84.6 8.45 87.0 19.0 L89.15 28.4 Q89.75 28.0 89.75 29.25 89.75 30.35 83.85 40.35 L80.35 47.55 Q74.7 58.8 72.7 60.95 71.45 62.6 66.1 67.15 L64.55 68.6 57.15 75.3 47.2 83.2 39.8 88.7 39.4 89.05 39.5 89.3 Q39.5 90.0 37.65 90.35 L34.25 90.65 27.25 90.45 18.75 90.0 Q16.75 90.0 11.7 88.1 6.6 86.15 6.6 85.2 L6.65 85.1 5.85 84.15 Q4.35 80.9 3.05 76.95 -1.4 63.1 -1.4 62.25 L-1.25 61.65 -1.25 61.6 Q-1.25 60.6 3.3 54.75 5.65 50.5 6.65 49.25 L7.25 48.75 7.65 48.8 14.5 45.45 Q23.5 40.7 29.25 36.0 L38.7 28.2 41.4 25.85 42.7 24.45 Q45.85 21.2 46.6 21.2 46.95 21.2 47.15 21.35 L47.25 21.35 47.75 21.3 48.7 21.3 Q54.95 21.3 55.05 22.35 56.2 22.5 58.25 23.7 L61.45 25.5 Q62.55 25.5 68.15 22.75 L68.1 22.5 70.9 17.4 75.05 9.75 Q77.05 5.6 79.75 1.5 82.7 -3.0 82.8 -1.35 L82.9 -1.25 Q83.4 -1.5 83.45 -0.55 M83.3 36.85 Q85.35 32.7 86.85 30.3 L87.3 30.25 Q86.5 27.7 85.15 19.95 83.85 12.6 83.85 11.25 L83.65 9.85 83.4 8.4 83.0 5.25 82.55 3.15 82.25 2.0 77.75 9.95 70.2 22.95 70.4 23.45 69.5 24.1 69.45 24.15 66.8 25.3 66.05 25.55 65.85 25.65 62.5 27.2 62.15 27.3 Q60.8 27.3 57.9 25.7 L54.8 23.85 54.15 23.7 53.85 23.7 47.55 23.7 46.45 23.4 Q44.35 27.3 30.9 37.7 14.7 50.3 9.3 50.3 L9.25 50.3 5.1 56.1 0.3 62.7 1.0 64.85 1.65 66.5 3.6 72.15 5.55 77.65 5.8 78.45 6.55 80.75 7.25 83.4 7.25 83.5 7.45 83.7 11.0 85.2 12.5 85.9 Q15.85 87.15 17.05 87.85 L17.1 87.85 17.7 87.8 18.05 87.85 20.8 87.75 Q21.45 88.25 21.9 88.25 22.75 88.25 22.9 87.8 L38.6 88.2 38.7 88.2 38.75 88.2 Q39.85 86.55 47.15 80.55 54.1 74.85 56.4 73.2 L62.6 68.2 62.95 67.85 Q67.2 63.75 69.75 62.25 L71.75 60.65 71.75 60.45 72.05 59.7 72.35 59.1 Q72.35 58.8 73.1 57.2 L73.2 57.3 73.4 57.15 73.5 56.45 75.6 52.15 79.75 44.35 79.8 44.25 82.75 38.0 83.15 38.1 83.85 37.35 83.3 36.85 M87.9 29.7 L87.95 29.7 88.0 29.6 87.9 29.45 87.9 29.7 M87.6 30.25 L87.6 30.2 87.5 30.25 87.6 30.25" fill="#452625" fill-rule="evenodd" stroke="none"/>
    <path d="M73.1 57.2 L72.6 56.1 72.1 50.8 72.05 50.25 71.85 47.4 71.15 47.35 Q70.85 46.95 70.55 46.95 L69.25 47.0 69.2 46.75 70.9 44.4 Q72.5 42.05 72.6 40.5 L72.9 39.8 73.2 39.6 73.2 39.25 73.15 39.15 73.2 39.0 73.1 39.05 72.95 38.6 72.95 38.25 72.1 36.8 71.45 35.95 71.05 35.55 Q70.45 35.55 68.6 36.45 L66.65 37.25 66.2 37.2 66.15 37.2 62.65 30.6 61.5 27.9 61.55 27.6 Q62.55 27.8 63.3 29.2 L64.4 31.55 66.75 36.15 68.65 35.2 Q70.15 34.35 71.1 34.35 72.5 34.35 74.1 38.4 L74.1 39.05 74.1 39.1 74.4 39.75 Q74.65 38.9 77.35 36.35 L80.1 33.9 Q80.6 33.9 81.9 35.4 L83.3 36.85 83.85 37.35 83.15 38.1 82.75 38.0 81.5 36.9 80.95 36.25 Q81.1 36.3 81.25 36.45 L81.6 36.8 81.75 36.6 81.05 35.55 Q80.6 34.85 80.1 35.1 L79.95 35.4 79.95 35.45 78.3 37.15 77.15 37.95 75.15 39.5 73.9 40.65 73.8 40.55 73.7 40.9 Q73.55 41.15 73.55 41.3 L73.55 41.4 73.25 42.3 Q72.25 45.05 70.95 46.1 L70.65 46.4 71.4 46.25 Q72.5 46.25 72.8 48.2 L72.9 50.6 73.1 53.85 73.5 56.1 73.5 56.45 73.4 57.15 73.2 57.3 73.1 57.2" fill="#5f4541" fill-rule="evenodd" stroke="none"/>
    <path d="M72.6 56.1 L72.6 56.45 72.6 56.9 72.3 57.3 Q71.75 57.05 71.7 56.3 L71.7 55.1 71.45 52.8 Q71.15 51.2 71.15 50.15 L70.95 48.0 70.7 47.9 68.85 48.45 Q68.0 48.45 68.0 47.65 68.0 47.15 69.25 47.0 L70.55 46.95 Q70.85 46.95 71.15 47.35 71.7 48.15 72.1 50.8 L72.6 56.1 M72.6 40.5 L71.5 43.2 Q70.2 45.7 68.15 47.25 L68.0 46.7 70.5 42.65 71.5 40.5 Q71.9 39.8 72.4 39.4 L71.85 38.55 70.95 36.8 Q70.4 37.35 68.65 38.0 L66.35 38.6 66.25 38.6 65.9 38.7 Q65.2 38.7 62.75 33.45 60.45 28.4 60.45 27.9 60.45 27.35 60.75 27.3 L61.45 28.7 61.5 28.65 62.65 30.6 66.15 37.2 66.2 37.2 66.65 37.25 66.75 37.25 66.8 37.45 70.95 35.7 71.45 35.95 72.1 36.8 72.95 38.6 73.1 39.05 73.2 39.0 73.15 39.15 73.2 39.25 73.2 39.6 72.9 39.8 72.6 40.5 M79.95 35.45 L79.95 35.4 80.1 35.1 Q80.6 34.85 81.05 35.55 L81.75 36.6 81.6 36.8 81.25 36.45 Q81.1 36.3 80.95 36.25 L80.55 36.15 78.0 38.4 Q75.9 40.35 74.45 41.1 L73.8 41.4 Q73.6 41.65 73.55 41.4 L73.55 41.3 Q73.55 41.15 73.7 40.9 L73.9 40.65 75.15 39.5 77.15 37.95 78.3 37.15 78.85 36.75 Q80.05 35.85 79.95 35.45" fill="#78849c" fill-rule="evenodd" stroke="none"/>
    <path d="M20.3 87.4 L20.15 87.45 18.45 87.5 17.5 87.4 16.65 87.3 Q16.1 87.3 15.45 85.95 L14.85 84.5 Q14.85 84.0 16.4 82.3 L18.3 80.25 19.35 78.15 Q19.95 76.95 20.7 76.95 21.0 76.95 21.15 77.25 L21.3 77.65 Q21.3 78.7 20.45 80.35 L19.2 82.15 Q17.9 84.0 17.9 84.65 L17.9 84.7 17.9 84.75 18.05 84.9 19.4 86.5 20.3 87.4" fill="#6cb07a" fill-rule="evenodd" stroke="none"/>
    <path d="M20.8 87.75 L20.3 87.4 19.4 86.5 18.05 84.9 17.9 84.7 17.9 84.65 Q17.9 84.0 19.2 82.15 L20.45 80.35 20.85 79.7 21.8 77.4 Q22.2 76.4 23.0 76.4 23.75 76.4 23.75 77.1 23.75 78.45 21.8 81.4 L19.8 84.55 21.4 85.75 Q22.95 86.95 22.95 87.5 L22.9 87.8 Q22.75 88.25 21.9 88.25 21.45 88.25 20.8 87.75" fill="#98ac73" fill-rule="evenodd" stroke="none"/>
    <path d="M23.1 68.9 Q23.45 68.55 23.85 68.55 L23.85 68.95 23.55 69.6 23.1 70.2 22.75 70.0 22.5 69.8 23.1 68.9 M19.85 69.05 L20.1 68.6 20.45 68.65 20.55 68.85 Q20.55 69.9 18.9 73.8 18.95 73.95 18.6 73.95 L18.3 73.75 18.15 73.45 18.7 71.85 19.35 70.6 19.85 69.05 M16.8 56.3 L17.1 55.95 17.3 56.7 Q17.3 57.45 15.75 61.1 L15.65 61.4 15.45 61.5 15.05 61.5 15.05 61.05 Q16.8 57.45 16.8 56.3 M25.35 75.25 Q25.7 74.6 26.1 74.45 L26.3 75.05 26.1 76.05 25.65 76.85 Q25.2 77.6 25.2 77.9 L25.1 78.15 24.9 78.15 24.5 77.7 24.95 76.1 25.05 75.9 25.35 75.25" fill="#fbe484" fill-rule="evenodd" stroke="none"/>
    <path d="M22.5 69.8 L22.2 70.05 Q21.9 69.75 21.9 69.4 21.9 69.05 22.25 68.65 22.65 68.15 23.3 68.0 L23.1 68.9 22.5 69.8 M18.7 71.85 L18.35 72.5 18.15 72.5 18.05 72.3 Q18.05 71.5 18.5 70.35 18.95 69.2 19.5 68.7 19.85 68.7 19.85 69.0 L19.85 69.05 19.35 70.6 18.7 71.85 M15.05 61.05 L15.0 61.05 14.75 60.95 14.7 60.7 Q14.7 59.75 15.55 58.15 L16.35 56.1 16.45 55.8 16.65 55.8 16.8 56.3 Q16.8 57.45 15.05 61.05 M24.95 76.1 L24.3 77.1 Q24.15 77.0 24.15 76.55 24.15 76.25 24.65 75.25 L25.2 74.25 25.45 74.25 25.55 74.55 25.35 75.25 25.05 75.9 24.95 76.1" fill="#cb471a" fill-rule="evenodd" stroke="none"/>
  </g>
</svg>