<?xml version="1.0" encoding="UTF-8" standalone="no"?>
<svg xmlns:xlink="http://www.w3.org/1999/xlink" height="54.85px" width="70.25px" xmlns="http://www.w3.org/2000/svg">
  <g transform="matrix(1.0, 0.0, 0.0, 1.0, 1, 1)">
    <path d="M61.65 32.15 L63.4 30.3 65.9 27.65 Q66.8 26.15 66.8 21.65 66.8 14.8 65.7 12.3 64.6 9.8 61.05 7.55 L60.65 7.3 59.9 6.85 58.5 6.15 54.15 3.85 50.35 2.15 48.25 1.5 46.6 1.25 46.05 1.2 44.6 1.05 43.75 1.0 43.25 0.9 43.15 0.95 42.1 0.75 Q43.45 0.0 45.25 0.0 L49.4 0.35 Q53.0 1.1 56.95 3.55 L62.65 6.65 Q65.15 7.9 66.1 8.95 68.25 11.35 68.25 21.3 68.25 24.1 67.9 26.4 67.6 28.5 67.2 29.0 64.9 31.75 62.3 34.05 60.25 35.95 60.0 35.95 58.25 35.05 57.0 34.5 L55.1 33.95 Q54.4 33.65 53.6 31.9 L53.55 32.15 49.55 37.45 Q48.9 38.35 48.45 38.35 L45.9 37.25 45.15 36.95 45.4 37.95 44.75 39.05 44.25 39.65 42.5 39.7 42.45 39.75 42.3 39.9 42.05 40.45 Q41.8 40.9 41.05 40.9 L40.1 40.75 39.4 41.0 39.1 41.2 Q38.55 43.1 37.5 43.2 L37.1 43.45 36.35 43.25 35.45 43.0 33.9 45.2 33.9 45.3 Q33.9 45.65 33.6 45.65 L33.0 45.35 32.65 44.95 31.95 44.7 31.65 45.3 29.7 47.1 29.1 46.45 29.05 46.4 28.65 45.65 28.1 45.1 28.2 45.75 Q27.0 49.1 26.15 49.1 25.85 49.1 25.3 48.6 L24.7 48.0 23.55 47.65 23.45 47.65 23.45 47.75 Q23.45 49.25 22.95 49.85 L21.4 51.85 21.3 52.0 21.1 52.1 Q20.9 52.1 20.6 51.3 L19.95 50.05 18.8 48.85 Q18.1 52.85 17.3 52.85 L15.5 51.05 15.4 51.25 15.25 50.95 15.0 50.45 14.85 50.75 14.35 51.55 14.25 51.55 Q14.2 51.7 13.95 51.7 13.5 51.7 12.75 50.75 L12.45 50.35 12.4 50.45 11.95 51.1 12.0 51.2 11.6 51.95 11.5 51.65 Q10.85 52.45 10.45 52.45 10.1 52.45 3.55 48.0 L1.55 46.55 Q0.0 45.05 0.0 43.2 0.0 42.4 1.65 40.8 L3.3 38.8 Q3.3 37.9 1.65 35.65 L0.0 33.4 Q1.75 31.85 2.05 31.9 L8.6 31.55 Q11.4 31.2 15.8 27.65 L18.0 25.85 18.55 25.4 20.65 23.4 19.3 21.45 18.75 20.3 Q18.75 19.75 20.65 17.75 L23.0 14.9 Q23.55 13.75 23.6 10.85 23.7 10.7 25.2 9.7 27.05 8.5 28.15 7.4 30.1 5.5 35.3 3.3 39.8 1.45 40.7 1.45 L41.35 1.5 40.7 1.65 Q40.05 1.75 40.05 2.1 L40.1 2.25 31.85 6.25 Q24.6 9.75 24.6 11.55 24.6 14.85 22.0 17.45 L21.5 18.0 Q19.85 19.6 19.5 20.35 L19.4 20.65 21.05 23.1 23.25 21.9 23.45 21.75 24.35 21.55 24.5 22.1 Q24.5 21.75 25.15 20.9 L25.25 20.8 26.7 19.1 Q29.05 16.6 29.4 15.3 L29.8 13.55 29.95 13.15 30.3 12.5 30.35 12.55 30.4 12.55 30.45 13.25 29.95 15.75 29.8 16.3 29.15 17.75 29.0 17.95 26.25 20.8 25.75 21.35 25.35 22.1 25.4 22.55 Q25.5 23.25 25.95 23.55 L26.95 24.1 Q27.9 23.0 31.1 21.95 L32.75 21.45 33.1 21.35 35.15 21.0 Q36.65 21.0 41.35 23.05 L45.85 25.1 Q46.9 25.1 48.2 23.25 48.2 22.3 46.5 21.2 44.75 20.05 44.75 19.15 44.75 17.95 46.6 14.65 L47.7 12.8 Q48.95 10.85 50.2 9.85 L50.5 9.6 50.45 9.7 50.25 10.3 50.1 10.6 Q48.75 13.85 46.95 16.0 45.55 17.75 45.55 19.0 L47.3 20.25 Q49.0 21.65 49.0 23.55 L48.95 24.2 48.8 24.15 47.85 24.7 46.15 25.65 45.25 25.8 Q44.3 25.8 43.1 25.15 L43.1 25.7 43.2 26.1 42.95 27.7 Q42.6 28.85 42.0 29.2 L39.7 30.4 37.7 31.35 37.55 31.25 34.3 28.6 33.25 27.75 28.95 24.25 26.65 24.9 25.4 23.85 23.7 22.8 Q22.7 22.8 20.1 24.7 L19.5 25.1 18.65 25.75 13.55 29.7 12.25 30.85 Q11.0 31.8 9.6 32.15 L7.8 32.35 5.3 32.15 Q3.8 32.0 2.3 33.0 L2.1 32.9 Q1.6 32.9 1.6 33.3 L1.65 33.4 1.3 33.65 1.75 34.15 1.7 34.25 2.15 34.7 2.15 34.75 2.75 34.85 4.1 35.35 Q4.85 35.4 5.1 36.75 L5.1 36.85 5.0 37.0 4.45 37.55 4.05 38.1 Q4.05 38.45 4.5 38.45 L4.65 38.45 4.65 38.8 4.45 39.15 2.6 42.25 2.25 42.8 2.3 43.35 Q2.65 45.55 5.85 48.05 L9.25 50.65 10.0 51.2 10.3 51.4 10.4 51.45 12.1 48.9 12.2 48.75 13.45 47.1 15.75 44.85 Q16.1 45.45 18.25 45.15 20.85 44.75 23.95 43.0 26.1 41.8 28.95 40.6 31.75 39.4 35.2 38.15 L41.65 35.8 41.3 35.7 41.2 35.6 40.4 35.25 40.85 35.05 41.2 35.0 41.7 35.0 Q42.4 35.0 44.95 36.0 47.45 36.95 48.6 36.95 52.05 32.95 52.05 32.1 52.05 31.45 50.0 29.25 L49.3 28.45 Q47.75 26.6 47.4 25.3 L47.7 24.8 48.05 24.75 Q49.3 26.55 51.05 28.1 53.75 30.45 56.0 30.45 L57.3 29.25 57.4 29.1 Q58.85 27.75 60.0 27.45 L60.15 27.4 60.35 27.65 60.35 27.7 Q60.0 28.65 58.2 29.95 56.65 31.05 56.1 31.1 L54.4 30.4 55.2 31.3 55.65 32.2 56.25 32.95 Q57.4 34.1 59.35 34.1 L61.1 32.6 61.65 32.15 M39.2 39.4 L39.3 40.25 40.1 40.1 40.8 40.2 41.2 40.2 41.65 39.6 42.0 39.0 Q42.25 38.55 42.6 38.4 43.0 38.25 43.0 38.7 L42.8 39.1 43.9 39.0 44.35 38.45 44.7 37.9 44.45 36.75 44.45 36.65 Q43.75 36.4 43.25 36.3 L42.45 36.15 39.85 37.2 38.5 37.8 Q38.9 38.15 39.2 39.4 M42.25 27.75 L41.15 24.1 Q39.65 21.8 35.1 21.8 31.1 21.8 30.25 22.5 L29.55 23.95 34.65 27.7 37.75 30.2 39.7 29.3 42.25 27.75 M12.8 34.55 L12.3 34.65 12.35 34.55 12.55 34.55 12.55 34.5 12.8 34.55 M2.65 34.05 L2.65 34.15 2.5 34.0 2.65 34.05 M16.55 46.3 L16.4 46.0 16.4 45.95 Q15.0 46.45 13.9 48.0 L14.6 48.85 15.0 49.5 15.15 49.75 15.25 49.9 15.5 50.2 15.7 50.5 15.75 50.55 16.05 50.9 17.15 51.9 17.8 50.5 18.2 48.9 18.05 48.05 18.05 47.9 17.2 47.0 16.55 46.3 M13.7 48.25 L13.2 49.05 12.8 49.8 12.8 49.85 13.15 50.25 14.0 51.1 Q14.1 50.5 14.6 49.85 L14.35 49.5 13.7 48.25 M20.75 45.0 L20.45 45.1 18.95 45.5 18.7 46.85 18.7 47.6 18.8 47.95 19.55 48.65 20.45 49.75 20.6 50.0 20.95 50.75 21.15 51.2 21.8 50.25 22.85 48.65 22.85 47.5 22.75 47.35 22.85 47.15 22.85 46.75 22.4 45.55 22.0 44.5 20.75 45.0 M25.65 47.9 L26.1 48.3 Q27.45 46.25 27.45 45.7 L27.15 44.3 26.7 42.9 25.95 42.95 Q25.75 42.95 25.7 42.85 L25.05 43.15 24.8 43.25 24.1 43.6 23.65 45.35 23.55 46.55 23.5 46.9 Q24.55 47.0 25.65 47.9 M30.35 41.25 L29.8 41.0 Q28.9 41.35 27.9 41.85 L27.9 41.95 27.5 43.2 27.85 44.05 28.05 44.15 28.45 44.5 28.85 44.75 29.0 45.05 29.5 45.75 29.85 46.3 31.2 44.8 31.65 43.8 31.65 43.4 Q31.65 41.9 30.65 41.35 L30.35 41.25 M35.9 41.55 L35.9 41.85 35.95 42.15 35.85 42.4 36.35 42.45 37.2 42.75 37.9 41.95 38.65 40.9 38.7 40.75 38.7 40.65 38.6 40.1 38.45 39.2 38.0 38.25 37.85 38.1 36.65 38.6 35.2 39.1 34.05 39.4 34.05 39.5 Q34.85 39.55 35.45 40.55 L35.9 41.55 M32.15 43.85 L32.1 44.05 32.7 44.25 33.6 44.8 35.05 42.55 35.45 42.05 35.25 41.65 34.95 40.95 33.9 39.7 33.8 39.7 33.5 39.6 32.75 39.85 32.65 39.85 30.5 40.7 31.2 40.95 31.95 41.65 32.15 43.25 32.15 43.85" fill="#452625" fill-rule="evenodd" stroke="none"/>
    <path d="M61.65 32.15 L61.1 32.6 59.35 34.1 Q57.4 34.1 56.25 32.95 L55.65 32.2 58.25 32.85 Q59.1 32.85 60.45 31.65 L62.0 29.95 62.95 28.9 63.4 27.95 63.65 25.45 64.85 24.55 64.9 24.55 64.85 26.1 Q64.85 27.0 61.65 32.15 M60.35 27.7 L60.35 27.65 Q60.8 27.3 61.25 27.05 60.75 27.4 60.35 27.7 M60.0 27.45 Q58.85 27.75 57.4 29.1 L57.3 29.25 54.4 28.6 54.5 28.45 Q55.2 27.85 56.75 27.0 L58.75 25.7 60.15 24.25 60.05 24.05 60.7 23.25 Q61.05 22.95 61.2 23.0 62.4 21.5 62.4 20.75 62.4 20.0 61.8 18.4 L61.6 17.8 Q60.35 18.85 59.35 21.35 58.15 24.25 56.8 24.25 L56.5 24.25 56.65 23.9 56.45 23.55 55.8 23.35 55.55 22.75 55.7 22.15 55.8 22.15 56.05 22.05 56.25 21.8 56.25 21.7 55.9 21.5 56.25 20.35 56.4 19.95 56.75 20.1 57.3 19.75 57.5 19.1 Q57.5 18.65 57.05 18.65 L57.0 18.35 Q57.1 18.1 57.35 18.0 L57.55 17.85 Q57.55 17.3 57.0 17.6 L56.9 17.65 56.95 17.45 57.0 17.45 57.3 17.2 Q57.3 16.75 57.0 16.6 L57.05 16.2 57.3 15.95 57.35 15.95 57.7 15.55 57.5 15.25 57.45 15.15 57.55 15.1 57.75 15.15 58.3 14.8 58.5 14.25 58.25 13.65 Q57.95 13.35 57.75 13.75 L57.5 14.2 57.2 14.0 57.45 13.6 57.35 13.3 57.45 13.05 57.35 12.75 57.7 12.4 57.45 12.05 Q57.25 11.9 57.05 11.9 L57.3 11.4 57.0 10.85 56.65 10.25 56.3 9.05 55.85 8.35 56.05 8.3 56.1 8.5 56.25 8.55 56.45 8.35 56.4 8.2 56.25 8.25 56.35 8.05 Q56.35 7.65 55.7 7.65 L55.4 7.75 55.45 7.45 55.5 6.85 55.5 6.8 55.9 6.6 56.2 6.25 56.2 6.15 56.85 6.45 58.15 7.95 59.65 9.9 61.4 11.55 62.85 13.0 62.9 13.0 62.9 12.7 62.3 9.55 Q65.05 14.8 65.05 15.3 L64.1 22.55 60.85 26.25 60.0 27.45 M49.3 28.45 L50.0 29.25 Q52.05 31.45 52.05 32.1 52.05 32.95 48.6 36.95 47.45 36.95 44.95 36.0 42.4 35.0 41.7 35.0 L41.2 35.0 41.5 34.65 42.05 34.15 44.9 34.85 46.7 34.7 48.2 34.35 48.0 33.9 Q48.0 33.7 48.6 33.55 L49.2 33.15 48.95 32.65 49.5 32.45 49.9 32.05 49.65 31.4 50.15 31.25 50.45 30.95 49.95 30.05 49.4 29.0 49.3 28.45 M47.7 12.8 L46.6 14.65 Q44.75 17.95 44.75 19.15 44.75 20.05 46.5 21.2 48.2 22.3 48.2 23.25 46.9 25.1 45.85 25.1 L41.35 23.05 Q36.65 21.0 35.15 21.0 L33.1 21.35 34.05 21.05 35.45 20.75 Q37.8 20.75 40.55 21.95 L42.0 22.5 43.45 23.15 45.55 24.15 Q46.2 24.15 47.25 22.6 L45.4 21.25 Q43.5 20.0 43.5 19.7 43.5 18.85 45.1 16.25 46.25 14.35 47.7 12.8 M55.15 6.0 L55.55 6.05 55.15 6.25 55.15 6.0 M56.5 9.4 L56.55 9.8 57.0 10.15 Q57.35 10.15 57.35 9.6 57.35 9.05 56.95 8.9 56.5 8.8 56.5 9.4 M56.9 20.55 Q56.4 20.55 56.4 21.1 56.4 21.5 56.85 21.5 57.35 21.5 57.35 21.1 57.35 20.55 56.9 20.55 M57.3 16.6 L57.35 16.95 57.65 17.25 Q58.3 17.25 58.3 16.55 58.3 15.95 57.8 16.0 57.3 16.05 57.3 16.6 M58.3 13.0 Q58.75 13.0 58.75 12.5 58.75 12.1 58.35 12.1 57.9 12.1 57.9 12.5 L57.95 12.75 Q58.05 13.0 58.3 13.0 M6.85 47.4 L6.05 46.3 Q11.35 45.25 13.5 44.4 L13.85 44.1 14.6 43.55 16.4 42.35 18.95 40.35 19.5 40.65 20.3 40.95 20.9 40.7 20.9 40.05 20.4 37.7 22.85 36.15 22.85 36.1 22.7 35.8 22.55 35.6 Q22.85 35.2 24.6 34.45 L24.6 35.0 26.7 33.65 26.7 33.5 26.4 33.2 26.05 33.3 25.75 33.3 26.75 32.35 Q27.8 31.55 28.05 31.5 L28.1 31.55 27.75 32.15 27.35 32.9 27.6 33.05 29.1 32.0 32.6 33.45 35.7 34.6 Q36.25 34.6 36.25 33.85 L37.45 34.35 38.9 34.85 34.9 36.05 33.25 36.55 33.25 36.5 33.7 36.1 31.7 36.55 31.55 36.5 31.6 36.4 33.3 34.9 33.25 34.9 29.0 36.5 29.05 36.5 30.4 36.25 30.95 36.3 30.85 36.35 29.95 37.0 30.6 37.0 30.85 36.9 31.2 36.85 31.75 36.85 31.75 36.9 26.95 39.25 26.95 39.15 Q28.9 37.65 29.2 37.55 28.6 37.7 26.6 38.55 24.6 39.4 23.55 40.0 L23.6 40.0 25.25 39.65 25.75 39.75 25.75 39.8 22.9 41.2 19.45 42.5 17.35 42.25 Q17.15 42.25 15.45 43.75 L13.55 45.5 10.45 49.3 6.85 47.4 M31.35 31.35 Q31.35 31.9 30.6 31.95 L30.1 31.5 29.7 31.15 Q29.7 30.8 30.0 30.8 L30.8 31.0 Q31.35 31.2 31.35 31.35" fill="#78849c" fill-rule="evenodd" stroke="none"/>
    <path d="M55.65 32.2 L55.2 31.3 54.4 30.4 56.1 31.1 Q56.65 31.05 58.2 29.95 60.0 28.65 60.35 27.7 60.75 27.4 61.25 27.05 L61.4 26.9 63.65 25.35 63.65 25.45 63.4 27.95 62.95 28.9 62.0 29.95 60.45 31.65 Q59.1 32.85 58.25 32.85 L55.65 32.2 M57.3 29.25 L56.0 30.45 Q53.75 30.45 51.05 28.1 49.3 26.55 48.05 24.75 L47.7 24.8 47.4 25.3 Q47.75 26.6 49.3 28.45 L49.4 29.0 49.95 30.05 50.45 30.95 50.15 31.25 49.65 31.4 49.9 32.05 49.5 32.45 48.95 32.65 49.2 33.15 48.6 33.55 Q48.0 33.7 48.0 33.9 L48.2 34.35 46.7 34.7 44.9 34.85 42.05 34.15 41.5 34.65 41.2 35.0 40.85 35.05 40.4 35.25 41.2 35.6 41.3 35.7 41.65 35.8 35.2 38.15 Q31.75 39.4 28.95 40.6 26.1 41.8 23.95 43.0 20.85 44.75 18.25 45.15 16.1 45.45 15.75 44.85 L13.45 47.1 Q16.5 43.1 16.95 43.1 L19.8 43.35 25.1 40.85 Q30.4 38.2 31.4 37.85 34.7 36.65 40.05 35.45 L40.1 35.2 40.4 34.2 39.05 34.85 38.9 34.85 37.45 34.35 36.25 33.85 Q36.25 34.6 35.7 34.6 L32.6 33.45 29.1 32.0 27.6 33.05 27.35 32.9 27.75 32.15 28.1 31.55 28.05 31.5 Q27.8 31.55 26.75 32.35 L25.75 33.3 26.05 33.3 26.4 33.2 26.7 33.5 26.7 33.65 24.6 35.0 24.6 34.45 Q22.85 35.2 22.55 35.6 L22.7 35.8 22.85 36.1 22.85 36.15 20.4 37.7 20.9 40.05 20.9 40.7 20.3 40.95 19.5 40.65 18.95 40.35 16.4 42.35 14.6 43.55 13.85 44.1 13.5 44.4 Q11.35 45.25 6.05 46.3 L6.85 47.4 8.0 49.0 9.25 50.65 5.85 48.05 Q2.65 45.55 2.3 43.35 L3.65 44.15 4.6 44.8 7.15 44.45 10.35 43.85 Q11.95 43.4 13.85 42.2 L16.85 40.0 16.55 40.0 10.25 40.5 6.05 39.95 Q4.85 39.6 4.45 39.15 L4.65 38.8 4.65 38.45 5.4 37.8 5.8 36.95 5.55 36.45 Q5.35 36.35 5.1 36.85 L5.1 36.75 Q4.85 35.4 4.1 35.35 L2.75 34.85 2.15 34.75 2.15 34.7 1.7 34.25 1.75 34.15 1.3 33.65 1.65 33.4 1.6 33.3 Q1.6 32.9 2.1 32.9 L2.3 33.0 Q7.8 35.0 9.05 35.0 L11.6 34.75 11.55 34.55 11.75 34.55 12.1 34.5 12.55 34.5 12.55 34.55 12.35 34.55 12.3 34.65 12.8 34.55 16.25 34.05 19.2 33.6 20.85 33.35 23.25 30.95 Q26.5 27.7 28.1 26.85 L28.25 26.9 30.25 28.2 32.85 30.1 33.0 30.1 Q31.9 29.15 30.1 26.65 L29.9 26.4 Q28.95 25.35 27.4 25.35 L25.15 25.6 Q24.35 25.6 24.0 24.8 23.65 23.95 23.1 23.95 L20.7 24.45 Q20.35 24.55 20.1 24.7 22.7 22.8 23.7 22.8 L25.4 23.85 26.65 24.9 28.95 24.25 33.25 27.75 33.15 27.7 Q32.8 27.7 32.8 27.9 L33.5 28.7 34.55 29.8 36.75 31.7 37.0 31.95 Q37.8 32.85 38.1 32.85 L38.15 32.85 38.45 33.15 39.75 33.2 Q40.15 32.7 43.5 32.45 L47.05 32.15 47.9 31.35 Q48.55 30.55 48.15 29.3 L47.75 28.9 47.0 28.25 46.2 27.65 45.05 26.95 Q44.2 26.4 43.2 26.1 L43.1 25.7 43.1 25.15 Q44.3 25.8 45.25 25.8 L46.15 25.65 47.85 24.7 48.8 24.15 48.95 24.2 49.0 23.55 Q49.0 21.65 47.3 20.25 L45.55 19.0 Q45.55 17.75 46.95 16.0 48.75 13.85 50.1 10.6 L50.25 10.3 50.45 9.7 50.5 9.6 50.2 9.85 Q48.95 10.85 47.7 12.8 46.25 14.35 45.1 16.25 43.5 18.85 43.5 19.7 43.5 20.0 45.4 21.25 L47.25 22.6 Q46.2 24.15 45.55 24.15 L43.45 23.15 42.0 22.5 40.55 21.95 Q37.8 20.75 35.45 20.75 L34.05 21.05 33.1 21.35 32.75 21.45 31.1 21.95 Q27.9 23.0 26.95 24.1 L25.95 23.55 Q25.5 23.25 25.4 22.55 L31.2 20.5 Q33.1 19.7 36.7 19.7 39.45 19.7 42.0 20.9 L45.7 22.7 43.55 21.0 Q41.6 19.6 41.6 19.3 41.6 18.15 45.2 14.4 L47.85 10.8 Q49.4 8.9 49.4 6.95 L49.25 5.8 49.05 4.95 Q49.05 4.4 52.75 4.15 L53.5 4.15 50.35 2.15 54.15 3.85 58.5 6.15 61.05 9.75 60.6 9.45 58.8 8.05 57.15 6.65 56.85 6.45 56.2 6.15 56.2 6.25 55.9 6.6 55.5 6.8 55.5 6.85 55.45 7.45 55.4 7.75 55.7 7.65 Q56.35 7.65 56.35 8.05 L56.25 8.25 56.4 8.2 56.45 8.35 56.25 8.55 56.1 8.5 56.05 8.3 55.85 8.35 56.3 9.05 56.65 10.25 57.0 10.85 57.3 11.4 57.05 11.9 Q57.25 11.9 57.45 12.05 L57.7 12.4 57.35 12.75 57.45 13.05 57.35 13.3 57.45 13.6 57.2 14.0 57.5 14.2 57.75 13.75 Q57.95 13.35 58.25 13.65 L58.5 14.25 58.3 14.8 57.75 15.15 57.55 15.1 57.45 15.15 57.5 15.25 57.7 15.55 57.35 15.95 57.3 15.95 57.05 16.2 57.0 16.6 Q57.3 16.75 57.3 17.2 L57.0 17.45 56.95 17.45 56.9 17.65 57.0 17.6 Q57.55 17.3 57.55 17.85 L57.35 18.0 Q57.1 18.1 57.0 18.35 L57.05 18.65 Q57.5 18.65 57.5 19.1 L57.3 19.75 56.75 20.1 56.4 19.95 56.25 20.35 55.9 21.5 56.25 21.7 56.25 21.8 56.05 22.05 55.8 22.15 55.7 22.15 55.55 22.75 55.8 23.35 56.45 23.55 56.65 23.9 56.5 24.25 56.8 24.25 Q58.15 24.25 59.35 21.35 60.35 18.85 61.6 17.8 L61.8 18.4 Q62.4 20.0 62.4 20.75 62.4 21.5 61.2 23.0 61.05 22.95 60.7 23.25 L60.05 24.05 60.15 24.25 58.75 25.7 56.75 27.0 Q55.2 27.85 54.5 28.45 L54.4 28.6 57.3 29.25 M12.1 48.9 L10.4 51.45 10.3 51.4 12.1 48.9 M29.95 13.15 L29.8 13.55 29.4 15.3 Q29.05 16.6 26.7 19.1 L25.25 20.8 25.15 20.9 Q24.5 21.75 24.5 22.1 L24.35 21.55 23.45 21.75 23.25 21.9 21.05 23.1 19.4 20.65 19.5 20.35 Q21.55 21.35 23.6 20.85 L24.1 20.15 Q24.8 19.2 24.65 18.4 L25.05 15.25 25.1 14.95 25.15 14.35 25.2 14.35 25.65 18.25 25.5 19.7 25.5 19.9 Q25.6 19.25 26.8 17.95 L28.4 16.15 29.2 14.4 29.85 12.5 29.9 12.45 29.95 13.15 M45.7 22.7 L45.85 22.95 45.85 22.8 45.7 22.7 M55.15 6.0 L55.15 6.25 55.55 6.05 55.15 6.0 M52.95 23.15 L53.2 23.3 53.15 23.45 53.75 23.35 53.75 22.35 Q53.45 20.55 54.4 18.7 55.4 16.65 55.4 15.9 55.4 15.0 54.45 13.25 L53.0 10.6 52.9 10.7 52.6 11.35 51.55 13.25 Q50.25 16.25 50.25 19.05 50.25 20.8 51.2 21.75 L52.95 23.15 M56.5 9.4 Q56.5 8.8 56.95 8.9 57.35 9.05 57.35 9.6 57.35 10.15 57.0 10.15 L56.55 9.8 56.5 9.4 M58.3 13.0 Q58.05 13.0 57.95 12.75 L57.9 12.5 Q57.9 12.1 58.35 12.1 58.75 12.1 58.75 12.5 58.75 13.0 58.3 13.0 M57.3 16.6 Q57.3 16.05 57.8 16.0 58.3 15.95 58.3 16.55 58.3 17.25 57.65 17.25 L57.35 16.95 57.3 16.6 M56.9 20.55 Q57.35 20.55 57.35 21.1 57.35 21.5 56.85 21.5 56.4 21.5 56.4 21.1 56.4 20.55 56.9 20.55 M17.7 35.65 Q17.5 35.2 16.5 35.25 L14.35 35.25 12.5 35.35 11.85 35.9 11.35 36.35 11.05 36.9 11.15 37.2 Q10.85 37.25 10.85 37.55 L11.9 38.45 Q13.0 39.3 13.45 39.3 14.05 39.3 18.1 36.1 18.1 35.65 17.7 35.65 M2.65 34.05 L2.5 34.0 2.65 34.15 2.65 34.05 M31.35 31.35 Q31.35 31.2 30.8 31.0 L30.0 30.8 Q29.7 30.8 29.7 31.15 L30.1 31.5 30.6 31.95 Q31.35 31.9 31.35 31.35" fill="#756051" fill-rule="evenodd" stroke="none"/>
    <path d="M2.3 43.35 L2.25 42.8 2.6 42.25 4.3 43.25 5.9 43.5 10.05 42.95 12.3 42.5 13.85 42.2 Q11.95 43.4 10.35 43.85 L7.15 44.45 4.6 44.8 3.65 44.15 2.3 43.35 M37.55 31.25 L37.7 31.35 39.7 30.4 42.0 29.2 Q42.6 28.85 42.95 27.7 L43.2 26.1 Q44.2 26.4 45.05 26.95 L46.2 27.65 47.0 28.25 47.75 28.9 48.15 29.3 Q48.55 30.55 47.9 31.35 L47.05 32.15 43.5 32.45 Q40.15 32.7 39.75 33.2 L38.45 33.15 38.15 32.85 38.35 32.55 37.65 31.65 37.9 31.7 38.15 32.0 Q38.5 32.35 39.2 32.35 L44.25 31.65 Q47.7 31.65 47.7 30.4 47.7 29.5 45.95 28.3 44.85 27.6 44.05 27.25 L43.85 27.5 43.95 27.6 Q43.95 28.4 41.55 30.1 39.15 31.75 38.25 31.75 L37.9 31.7 37.55 31.25 M25.4 22.55 L25.35 22.1 25.75 21.35 26.25 20.8 29.0 17.95 29.15 17.75 Q28.15 20.2 26.85 21.35 28.55 20.45 31.35 19.85 L36.6 19.25 36.7 19.25 38.75 19.5 41.35 20.1 40.95 19.25 Q40.95 18.85 43.2 15.8 L45.6 12.65 48.1 9.9 Q48.8 8.5 48.8 6.15 L48.65 5.15 48.45 4.5 Q48.45 4.3 49.8 3.95 L51.35 3.6 Q50.7 2.65 49.2 2.35 L47.6 1.7 46.6 1.25 48.25 1.5 50.35 2.15 53.5 4.15 52.75 4.15 Q49.05 4.4 49.05 4.95 L49.25 5.8 49.4 6.95 Q49.4 8.9 47.85 10.8 L45.2 14.4 Q41.6 18.15 41.6 19.3 41.6 19.6 43.55 21.0 L45.7 22.7 42.0 20.9 Q39.45 19.7 36.7 19.7 33.1 19.7 31.2 20.5 L25.4 22.55 M19.5 20.35 Q19.85 19.6 21.5 18.0 L20.3 19.95 22.9 20.4 Q23.7 20.4 24.4 17.9 L25.05 15.25 24.65 18.4 Q24.8 19.2 24.1 20.15 L23.6 20.85 Q21.55 21.35 19.5 20.35 M52.6 11.35 L52.9 10.7 53.0 10.6 54.45 13.25 Q55.4 15.0 55.4 15.9 55.4 16.65 54.4 18.7 53.45 20.55 53.75 22.35 L53.75 23.35 53.15 23.45 53.2 23.3 52.95 23.15 53.15 22.2 53.0 20.7 Q53.0 19.8 53.8 18.15 L54.6 16.15 Q54.6 15.3 53.65 13.25 L52.6 11.35 M29.9 26.4 L30.1 26.65 Q31.9 29.15 33.0 30.1 L32.85 30.1 30.25 28.2 28.25 26.9 28.1 26.85 Q26.5 27.7 23.25 30.95 L20.85 33.35 19.2 33.6 19.3 33.5 22.55 30.65 25.0 28.45 Q27.25 26.45 27.6 26.45 L29.2 26.75 29.7 26.55 29.9 26.4" fill="#d78242" fill-rule="evenodd" stroke="none"/>
    <path d="M2.6 42.25 L4.45 39.15 Q4.85 39.6 6.05 39.95 L10.25 40.5 16.55 40.0 16.85 40.0 13.85 42.2 12.3 42.5 10.05 42.95 5.9 43.5 4.3 43.25 2.6 42.25 M4.65 38.45 L4.5 38.45 Q4.05 38.45 4.05 38.1 L4.45 37.55 5.0 37.0 5.1 36.85 Q5.35 36.35 5.55 36.45 L5.8 36.95 5.4 37.8 4.65 38.45 M2.3 33.0 Q3.8 32.0 5.3 32.15 L7.8 32.35 6.9 32.45 5.1 32.75 3.75 33.25 7.2 33.35 8.25 33.45 8.9 33.7 10.05 34.1 10.1 34.2 15.25 33.15 18.45 32.5 19.8 31.1 20.5 30.6 22.6 28.75 23.55 27.75 25.25 26.75 25.25 26.6 23.35 26.4 22.05 26.05 22.65 25.5 22.65 25.3 22.1 25.25 18.65 25.75 19.5 25.1 20.1 24.7 Q20.35 24.55 20.7 24.45 L23.1 23.95 Q23.65 23.95 24.0 24.8 24.35 25.6 25.15 25.6 L27.4 25.35 Q28.95 25.35 29.9 26.4 L29.7 26.55 29.2 26.75 27.6 26.45 Q27.25 26.45 25.0 28.45 L22.55 30.65 19.3 33.5 19.2 33.6 16.25 34.05 12.8 34.55 12.55 34.5 12.1 34.5 11.75 34.55 11.55 34.55 11.6 34.75 9.05 35.0 Q7.8 35.0 2.3 33.0 M33.25 27.75 L34.3 28.6 37.55 31.25 37.9 31.7 38.25 31.75 Q39.15 31.75 41.55 30.1 43.95 28.4 43.95 27.6 L43.85 27.5 44.05 27.25 Q44.85 27.6 45.95 28.3 47.7 29.5 47.7 30.4 47.7 31.65 44.25 31.65 L39.2 32.35 Q38.5 32.35 38.15 32.0 L37.9 31.7 37.65 31.65 38.35 32.55 38.15 32.85 38.1 32.85 Q37.8 32.85 37.0 31.95 L36.75 31.7 34.55 29.8 33.5 28.7 32.8 27.9 Q32.8 27.7 33.15 27.7 L33.25 27.75 M29.15 17.75 L29.8 16.3 29.95 15.75 30.45 13.25 30.4 12.55 30.35 12.55 30.3 12.5 29.95 13.15 29.9 12.45 29.85 12.5 29.2 14.4 28.4 16.15 26.8 17.95 Q25.6 19.25 25.5 19.9 L25.5 19.7 25.65 18.25 25.2 14.35 25.15 14.35 25.1 14.95 25.05 15.25 24.4 17.9 Q23.7 20.4 22.9 20.4 L20.3 19.95 21.5 18.0 22.0 17.45 Q24.6 14.85 24.6 11.55 24.6 9.75 31.85 6.25 L40.1 2.25 40.05 2.1 Q40.05 1.75 40.7 1.65 L41.35 1.5 42.05 1.3 Q42.6 1.0 43.15 0.95 L43.25 0.9 43.75 1.0 44.6 1.05 46.05 1.2 46.6 1.25 47.6 1.7 49.2 2.35 Q50.7 2.65 51.35 3.6 L49.8 3.95 Q48.45 4.3 48.45 4.5 L48.65 5.15 48.8 6.15 Q48.8 8.5 48.1 9.9 L45.6 12.65 43.2 15.8 Q40.95 18.85 40.95 19.25 L41.35 20.1 38.75 19.5 36.7 19.25 36.6 19.25 31.35 19.85 Q28.55 20.45 26.85 21.35 28.15 20.2 29.15 17.75 M45.7 22.7 L45.85 22.8 45.85 22.95 45.7 22.7 M52.95 23.15 L51.2 21.75 Q50.25 20.8 50.25 19.05 50.25 16.25 51.55 13.25 L52.6 11.35 53.65 13.25 Q54.6 15.3 54.6 16.15 L53.8 18.15 Q53.0 19.8 53.0 20.7 L53.15 22.2 52.95 23.15 M42.5 10.8 L42.35 10.1 43.3 9.4 43.4 8.85 42.85 7.75 Q43.05 6.6 44.0 5.75 L46.95 2.75 40.2 3.05 Q38.5 3.7 37.05 4.6 L32.35 6.8 Q29.85 7.7 28.1 9.55 L25.85 12.0 26.1 13.3 26.5 16.8 26.95 16.1 Q28.1 14.2 28.7 11.85 L30.35 10.6 31.6 9.65 Q32.6 8.8 32.9 8.8 31.35 10.7 31.1 13.15 L30.65 15.55 30.2 16.85 28.9 19.3 29.35 19.1 28.5 20.25 28.5 20.35 30.4 19.55 32.65 18.75 Q33.25 18.6 33.85 17.9 34.4 17.25 34.8 17.25 L37.0 17.85 39.15 18.0 40.0 17.7 40.35 17.15 40.15 16.7 Q40.15 16.35 41.1 15.6 L42.05 14.65 41.7 13.95 Q41.35 13.4 41.35 12.8 41.35 12.35 41.65 11.55 L41.8 11.1 42.5 10.8 M45.0 29.85 L45.05 29.85 45.0 29.85 M45.25 29.0 Q44.75 28.5 44.15 29.1 42.15 30.1 42.15 30.65 42.15 31.15 43.05 31.15 43.95 31.15 44.9 30.75 45.9 30.3 45.9 29.8 L45.25 29.0 M23.75 17.8 L24.15 15.5 24.1 15.5 Q23.3 16.95 21.3 19.0 L21.6 19.0 23.15 19.5 Q23.45 19.5 23.75 17.8 M17.7 35.65 Q18.1 35.65 18.1 36.1 14.05 39.3 13.45 39.3 13.0 39.3 11.9 38.45 L10.85 37.55 Q10.85 37.25 11.15 37.2 L11.2 37.2 Q11.5 37.2 12.35 37.75 L13.35 38.3 15.35 37.0 Q17.25 35.65 17.65 35.65 L17.7 35.65 M7.45 41.4 L6.7 41.15 5.25 40.75 5.25 40.6 Q5.25 39.8 4.45 40.6 3.65 41.4 3.65 41.75 L3.9 42.2 5.35 42.35 5.45 42.35 6.25 42.5 Q9.0 42.5 9.9 41.95 L10.35 41.8 10.6 41.85 Q11.0 41.85 11.0 41.55 L10.7 41.25 Q10.6 41.1 10.15 41.1 L9.15 41.25 8.75 41.25 7.45 41.4 M12.5 41.0 Q12.2 41.0 12.2 41.35 L12.2 41.5 12.45 41.65 Q12.8 41.65 12.8 41.35 12.8 41.0 12.5 41.0 M11.85 41.1 L11.55 40.85 Q11.2 40.85 11.2 41.1 L11.25 41.25 Q11.35 41.4 11.55 41.4 L11.85 41.1 M11.7 41.65 L11.45 41.45 Q11.2 41.45 11.2 41.65 L11.45 41.9 11.7 41.65" fill="#dc935c" fill-rule="evenodd" stroke="none"/>
    <path d="M7.8 32.35 L9.6 32.15 Q11.0 31.8 12.25 30.85 L13.55 29.7 18.65 25.75 22.1 25.25 22.65 25.3 22.65 25.5 22.05 26.05 23.35 26.4 25.25 26.6 25.25 26.75 23.55 27.75 22.6 28.75 20.5 30.6 19.8 31.1 18.45 32.5 15.25 33.15 10.1 34.2 10.05 34.1 8.9 33.7 8.25 33.45 7.2 33.35 3.75 33.25 5.1 32.75 6.9 32.45 7.8 32.35 M40.7 6.9 L41.0 6.75 41.15 6.45 Q41.15 6.1 40.75 6.1 40.3 6.1 40.3 6.5 L40.35 6.7 40.65 6.9 Q40.35 6.9 40.35 7.3 L40.35 7.5 40.65 7.75 Q41.0 7.75 41.0 7.3 41.0 6.95 40.7 6.9 M42.5 10.8 L41.8 11.1 41.65 11.55 Q41.35 12.35 41.35 12.8 41.35 13.4 41.7 13.95 L42.05 14.65 41.1 15.6 Q40.15 16.35 40.15 16.7 L40.35 17.15 40.0 17.7 39.15 18.0 37.0 17.85 34.8 17.25 Q34.4 17.25 33.85 17.9 33.25 18.6 32.65 18.75 L30.4 19.55 28.5 20.35 28.5 20.25 29.35 19.1 28.9 19.3 30.2 16.85 30.65 15.55 31.1 13.15 Q31.35 10.7 32.9 8.8 32.6 8.8 31.6 9.65 L30.35 10.6 28.7 11.85 Q28.1 14.2 26.95 16.1 L26.5 16.8 26.1 13.3 25.85 12.0 28.1 9.55 Q29.85 7.7 32.35 6.8 L37.05 4.6 Q38.5 3.7 40.2 3.05 L46.95 2.75 44.0 5.75 Q43.05 6.6 42.85 7.75 L43.4 8.85 43.3 9.4 42.35 10.1 42.5 10.8 M45.25 29.0 L45.9 29.8 Q45.9 30.3 44.9 30.75 43.95 31.15 43.05 31.15 42.15 31.15 42.15 30.65 42.15 30.1 44.15 29.1 44.75 28.5 45.25 29.0 M45.0 29.85 L45.05 29.85 45.0 29.85 M35.85 11.75 L36.1 11.8 36.15 11.8 36.15 11.85 35.85 12.35 36.45 12.15 36.65 12.15 36.9 12.15 37.5 12.5 38.15 12.1 38.4 11.5 38.25 11.15 38.25 11.0 38.3 11.0 Q38.75 11.0 39.25 10.15 L39.1 9.65 38.9 9.3 39.1 8.95 39.05 8.75 38.7 8.8 39.0 8.4 Q39.0 8.2 38.55 8.2 L38.45 8.2 38.65 8.0 38.9 7.45 39.1 7.1 38.9 6.8 38.75 6.85 38.75 6.65 38.6 6.2 Q38.5 5.95 38.25 6.0 L37.9 6.3 37.85 6.25 38.7 5.3 Q38.7 4.5 37.8 5.15 36.9 5.8 36.9 6.25 L36.9 6.5 36.35 6.7 36.05 6.55 35.9 6.6 Q35.85 6.25 35.35 6.25 34.65 6.25 34.2 6.8 L33.8 6.7 Q33.15 6.7 33.15 7.15 33.15 7.5 33.4 7.55 L33.8 7.6 33.8 7.7 34.05 7.9 34.55 7.65 34.8 7.65 34.95 8.05 Q34.45 8.1 34.45 8.6 34.45 9.05 35.05 9.1 L35.15 9.15 35.5 9.25 Q35.1 9.6 35.05 9.9 34.75 9.85 34.75 10.25 34.75 10.7 35.1 10.7 L35.25 10.7 35.4 10.75 35.3 10.8 35.2 10.9 Q35.1 10.85 35.05 10.95 L34.55 10.9 34.35 11.0 34.45 10.7 34.6 10.15 34.5 9.95 34.65 9.7 Q34.65 9.3 34.2 9.5 L33.8 9.8 33.45 10.0 33.25 10.2 33.05 11.1 33.15 11.4 33.1 11.55 32.95 11.75 32.95 11.85 Q32.7 11.9 32.7 12.15 L32.7 12.2 32.45 12.8 32.6 13.2 Q32.15 13.25 32.15 13.65 L32.2 13.75 32.05 13.7 Q31.7 13.6 31.7 13.95 L31.8 14.15 32.1 14.35 31.9 14.65 31.8 14.65 Q31.4 14.65 31.4 14.95 L31.6 15.3 31.6 15.35 31.8 15.65 32.05 15.25 32.15 15.1 32.8 14.0 33.0 13.65 33.25 13.2 33.3 13.2 Q33.7 13.2 33.9 12.65 L33.7 12.4 34.05 11.75 34.4 11.85 Q34.65 11.85 34.9 11.65 L34.95 11.7 34.95 11.75 35.0 11.9 Q34.45 11.85 34.45 12.45 L34.55 12.75 Q34.7 13.0 35.0 13.0 L35.4 12.8 35.55 12.4 Q35.55 12.05 35.2 11.95 L35.25 11.95 35.5 12.0 35.85 11.75 M33.9 9.0 L34.05 8.7 Q34.05 8.4 33.7 8.45 33.35 8.55 33.35 8.8 L33.4 9.0 Q33.45 9.15 33.65 9.15 L33.9 9.0 M36.15 8.2 L36.35 8.15 36.35 8.2 36.3 8.2 36.25 8.25 36.15 8.2 M37.85 6.55 L37.85 6.65 37.75 6.95 37.7 6.9 37.85 6.55 M39.6 9.15 L40.0 8.85 39.7 8.45 Q39.35 8.45 39.35 8.8 39.35 9.15 39.6 9.15 M36.75 10.95 L37.0 10.85 37.0 10.95 37.05 11.1 36.75 10.95 M23.75 17.8 Q23.45 19.5 23.15 19.5 L21.6 19.0 21.3 19.0 Q23.3 16.95 24.1 15.5 L24.15 15.5 23.75 17.8 M7.45 41.4 L8.75 41.25 9.15 41.25 10.15 41.1 Q10.6 41.1 10.7 41.25 L11.0 41.55 Q11.0 41.85 10.6 41.85 L10.35 41.8 9.9 41.95 Q9.0 42.5 6.25 42.5 L5.45 42.35 5.35 42.35 3.9 42.2 3.65 41.75 Q3.65 41.4 4.45 40.6 5.25 39.8 5.25 40.6 L5.25 40.75 6.7 41.15 7.45 41.4 M11.7 41.65 L11.45 41.9 11.2 41.65 Q11.2 41.45 11.45 41.45 L11.7 41.65 M11.85 41.1 L11.55 41.4 Q11.35 41.4 11.25 41.25 L11.2 41.1 Q11.2 40.85 11.55 40.85 L11.85 41.1 M12.5 41.0 Q12.8 41.0 12.8 41.35 12.8 41.65 12.45 41.65 L12.2 41.5 12.2 41.35 Q12.2 41.0 12.5 41.0 M19.9 46.85 Q19.9 46.25 20.4 46.6 L20.9 47.35 20.55 47.7 20.05 47.3 19.9 46.85 M24.55 45.45 L24.4 44.8 24.6 44.45 Q24.85 44.4 25.15 44.9 L25.45 45.7 Q25.45 46.1 25.1 46.1 24.75 46.1 24.55 45.45" fill="#eacb8a" fill-rule="evenodd" stroke="none"/>
    <path d="M12.0 51.2 L11.95 51.1 12.4 50.45 12.1 50.95 12.0 51.2 M43.25 36.3 L43.5 37.15 43.45 37.6 43.15 37.6 Q42.9 37.45 42.6 37.45 42.1 37.45 41.9 38.1 41.7 38.8 41.1 38.9 L39.65 39.1 Q39.35 39.2 39.2 39.4 38.9 38.15 38.5 37.8 L39.85 37.2 42.45 36.15 43.25 36.3 M16.05 50.9 L15.75 50.55 15.7 50.5 15.5 50.2 15.25 49.9 15.15 49.75 15.0 49.5 14.6 48.85 13.9 48.0 Q15.0 46.45 16.4 45.95 L16.4 46.0 16.55 46.3 Q16.65 46.9 17.1 47.85 L17.4 49.5 17.15 51.35 16.85 51.35 16.05 50.9 M13.7 48.25 L14.35 49.5 14.6 49.85 Q14.1 50.5 14.0 51.1 L13.15 50.25 12.8 49.85 12.8 49.8 13.2 49.05 13.7 48.25 M16.7 49.45 Q16.7 47.8 15.75 47.1 14.8 46.45 14.8 48.3 L15.4 49.5 Q16.05 50.6 16.4 50.6 16.8 50.6 16.8 50.0 L16.7 49.45 M20.6 50.0 L20.45 49.75 19.55 48.65 18.8 47.95 18.7 47.6 18.7 46.85 18.95 45.5 20.45 45.1 20.75 45.0 Q21.55 45.05 21.7 45.65 L22.35 47.75 21.65 48.9 20.85 50.15 20.6 50.0 M19.65 45.95 Q19.3 46.4 19.3 47.3 L20.85 48.95 Q21.25 48.95 21.25 48.4 L20.9 46.15 Q20.1 45.4 19.65 45.95 M25.05 43.15 Q25.7 43.35 26.15 44.0 26.75 44.8 26.75 46.1 26.75 46.6 25.65 47.9 24.55 47.0 23.5 46.9 L23.55 46.55 23.65 45.35 24.1 43.6 24.8 43.25 25.05 43.15 M28.95 42.05 Q28.2 42.05 28.2 42.85 28.2 43.2 28.75 43.9 L29.05 44.5 29.7 44.95 Q30.0 44.95 30.0 44.35 L29.85 42.6 Q29.75 42.0 28.95 42.05 M29.5 45.75 L29.0 45.05 28.85 44.75 28.45 44.5 28.05 44.15 27.85 44.05 27.5 43.2 27.9 41.95 27.9 41.85 Q28.9 41.35 29.8 41.0 L30.35 41.25 30.45 41.45 Q30.9 42.45 30.9 43.7 30.9 44.25 30.5 44.55 L29.5 45.75 M24.45 44.45 Q24.0 45.05 24.0 45.5 L24.55 46.45 Q25.15 47.3 25.45 47.3 25.8 47.3 25.8 46.65 L25.5 44.55 Q24.95 43.7 24.45 44.45 M36.65 38.6 L37.1 39.05 37.75 40.15 37.35 41.1 36.75 41.65 35.9 41.55 35.45 40.55 Q34.85 39.55 34.05 39.5 L34.05 39.4 35.2 39.1 36.65 38.6 M32.15 43.85 L32.15 43.25 31.95 41.65 31.2 40.95 30.5 40.7 32.65 39.85 32.75 39.85 33.65 40.45 Q34.35 41.2 34.35 41.75 L33.95 42.9 33.2 43.85 32.15 43.85" fill="#967656" fill-rule="evenodd" stroke="none"/>
    <path d="M42.25 27.75 L39.7 29.3 37.75 30.2 34.65 27.7 29.55 23.95 30.25 22.5 Q31.1 21.8 35.1 21.8 39.65 21.8 41.15 24.1 L42.25 27.75 M11.15 37.2 L11.05 36.9 11.35 36.35 11.85 35.9 12.5 35.35 14.35 35.25 16.5 35.25 Q17.5 35.2 17.7 35.65 L17.65 35.65 Q17.25 35.65 15.35 37.0 L13.35 38.3 12.35 37.75 Q11.5 37.2 11.2 37.2 L11.15 37.2" fill="#432a52" fill-rule="evenodd" stroke="none"/>
    <path d="M16.7 49.45 L16.8 50.0 Q16.8 50.6 16.4 50.6 16.05 50.6 15.4 49.5 L14.8 48.3 Q14.8 46.45 15.75 47.1 16.7 47.8 16.7 49.45 M19.9 46.85 L20.05 47.3 20.55 47.7 20.9 47.35 20.4 46.6 Q19.9 46.25 19.9 46.85 M19.65 45.95 Q20.1 45.4 20.9 46.15 L21.25 48.4 Q21.25 48.95 20.85 48.95 L19.3 47.3 Q19.3 46.4 19.65 45.95 M28.95 42.05 Q29.75 42.0 29.85 42.6 L30.0 44.35 Q30.0 44.95 29.7 44.95 L29.05 44.5 28.75 43.9 Q28.2 43.2 28.2 42.85 28.2 42.05 28.95 42.05 M24.45 44.45 Q24.95 43.7 25.5 44.55 L25.8 46.65 Q25.8 47.3 25.45 47.3 25.15 47.3 24.55 46.45 L24.0 45.5 Q24.0 45.05 24.45 44.45 M24.55 45.45 Q24.75 46.1 25.1 46.1 25.45 46.1 25.45 45.7 L25.15 44.9 Q24.85 44.4 24.6 44.45 L24.4 44.8 24.55 45.45" fill="#efc585" fill-rule="evenodd" stroke="none"/>
    <path d="M40.7 6.9 Q41.0 6.95 41.0 7.3 41.0 7.75 40.65 7.75 L40.35 7.5 40.35 7.3 Q40.35 6.9 40.65 6.9 L40.35 6.7 40.3 6.5 Q40.3 6.1 40.75 6.1 41.15 6.1 41.15 6.45 L41.0 6.75 40.7 6.9 M35.05 9.1 Q34.45 9.05 34.45 8.6 34.45 8.1 34.95 8.05 L34.8 7.65 34.55 7.65 34.05 7.9 33.8 7.7 33.8 7.6 33.4 7.55 Q33.15 7.5 33.15 7.15 33.15 6.7 33.8 6.7 L34.2 6.8 Q34.65 6.25 35.35 6.25 35.85 6.25 35.9 6.6 L36.05 6.55 36.35 6.7 36.9 6.5 36.9 6.25 Q36.9 5.8 37.8 5.15 38.7 4.5 38.7 5.3 L37.85 6.25 37.9 6.3 38.25 6.0 Q38.5 5.95 38.6 6.2 L38.75 6.65 38.75 6.85 38.9 6.8 39.1 7.1 38.9 7.45 38.65 8.0 38.45 8.2 38.55 8.2 Q39.0 8.2 39.0 8.4 L38.7 8.8 39.05 8.75 39.1 8.95 38.9 9.3 39.1 9.65 39.25 10.15 Q38.75 11.0 38.3 11.0 L38.25 11.0 38.25 11.15 38.4 11.5 38.15 12.1 37.5 12.5 36.9 12.15 36.65 12.15 36.45 12.15 35.85 12.35 36.15 11.85 36.15 11.8 36.1 11.8 35.85 11.75 35.85 11.7 35.65 11.45 36.1 10.95 35.85 10.75 35.15 10.95 34.9 11.25 34.9 11.4 35.15 11.55 35.1 11.7 35.15 11.85 35.25 11.95 35.2 11.95 Q35.55 12.05 35.55 12.4 L35.4 12.8 35.0 13.0 Q34.7 13.0 34.55 12.75 L34.45 12.45 Q34.45 11.85 35.0 11.9 L34.95 11.75 34.95 11.7 34.9 11.65 Q34.65 11.85 34.4 11.85 L34.05 11.75 33.7 12.4 33.9 12.65 Q33.7 13.2 33.3 13.2 L33.25 13.2 33.0 13.65 32.8 14.0 32.15 15.1 32.05 15.25 31.8 15.65 31.6 15.35 31.6 15.3 31.4 14.95 Q31.4 14.65 31.8 14.65 L31.9 14.65 32.1 14.35 31.8 14.15 31.7 13.95 Q31.7 13.6 32.05 13.7 L32.2 13.75 32.15 13.65 Q32.15 13.25 32.6 13.2 L32.45 12.8 32.7 12.2 32.7 12.15 Q32.7 11.9 32.95 11.85 L32.95 11.9 33.15 12.0 33.45 11.7 Q33.45 11.4 33.2 11.5 L33.1 11.55 33.15 11.4 33.05 11.1 33.25 10.2 33.3 10.3 Q33.35 10.45 33.5 10.45 L33.7 10.35 33.8 10.2 33.55 9.95 33.45 10.0 33.8 9.8 34.2 9.5 Q34.65 9.3 34.65 9.7 L34.5 9.95 34.6 10.15 34.45 10.7 34.35 11.0 34.55 10.9 35.05 10.95 Q35.1 10.85 35.2 10.9 L35.3 10.8 35.4 10.75 35.25 10.7 35.1 10.7 Q34.75 10.7 34.75 10.25 34.75 9.85 35.05 9.9 35.1 9.6 35.5 9.25 L35.15 9.15 35.3 9.15 35.6 9.0 35.75 8.7 Q35.75 8.25 35.3 8.3 34.85 8.35 34.85 8.75 L34.9 8.95 35.05 9.1 M33.9 9.0 L33.65 9.15 Q33.45 9.15 33.4 9.0 L33.35 8.8 Q33.35 8.55 33.7 8.45 34.05 8.4 34.05 8.7 L33.9 9.0 M38.25 8.15 L38.55 7.85 Q38.55 7.3 37.9 7.65 L37.7 7.75 37.7 7.65 Q37.7 7.35 37.35 7.35 36.95 7.35 36.95 7.7 L37.0 7.9 37.3 8.1 37.35 8.1 37.25 8.35 Q37.25 8.8 37.55 8.8 L37.7 8.7 37.85 8.75 37.9 8.75 37.9 9.0 38.05 9.05 38.0 9.2 38.05 9.35 Q38.1 9.5 38.3 9.5 L38.5 9.2 38.3 8.95 38.35 8.85 38.15 8.65 37.95 8.75 38.15 8.6 38.3 8.35 38.25 8.15 M35.0 7.95 L35.35 8.15 35.9 7.5 Q35.9 7.05 35.45 7.2 35.0 7.35 35.0 7.75 L35.0 7.95 M39.6 9.15 Q39.35 9.15 39.35 8.8 39.35 8.45 39.7 8.45 L40.0 8.85 39.6 9.15 M37.85 6.55 L37.7 6.9 37.75 6.95 37.85 6.65 37.85 6.55 M36.15 8.2 L36.25 8.25 36.3 8.2 36.35 8.2 36.35 8.15 36.15 8.2 M37.7 10.15 L37.75 10.35 38.0 10.55 38.65 9.9 Q38.65 9.5 38.2 9.6 37.7 9.7 37.7 10.15 M37.65 9.25 Q37.65 8.9 37.25 9.0 36.85 9.1 36.85 9.4 L36.9 9.6 37.2 9.75 37.5 9.55 37.65 9.25 M35.9 9.05 L35.95 9.25 36.05 9.4 35.75 9.55 35.55 9.9 35.55 10.15 35.55 10.2 35.6 10.35 35.85 10.5 36.05 10.4 36.15 10.2 36.15 10.1 36.25 10.1 Q36.65 10.1 36.65 9.65 L36.6 9.4 36.85 9.2 36.9 9.15 37.05 8.85 36.65 8.6 36.35 8.65 35.9 9.05 M36.05 8.4 L36.05 8.1 Q35.9 7.95 35.75 8.1 L35.65 8.25 35.7 8.4 35.9 8.45 36.05 8.4 M36.75 10.95 L37.05 11.1 37.0 10.95 37.0 10.85 36.75 10.95" fill="#f0daaa" fill-rule="evenodd" stroke="none"/>
    <path d="M35.85 11.75 L35.5 12.0 35.25 11.95 35.15 11.85 35.1 11.7 35.15 11.55 34.9 11.4 34.9 11.25 35.15 10.95 35.85 10.75 36.1 10.95 35.65 11.45 35.85 11.7 35.85 11.75 M32.95 11.85 L32.95 11.75 33.1 11.55 33.2 11.5 Q33.45 11.4 33.45 11.7 L33.15 12.0 32.95 11.9 32.95 11.85 M33.25 10.2 L33.45 10.0 33.55 9.95 33.8 10.2 33.7 10.35 33.5 10.45 Q33.35 10.45 33.3 10.3 L33.25 10.2 M35.15 9.15 L35.05 9.1 34.9 8.95 34.85 8.75 Q34.85 8.35 35.3 8.3 35.75 8.25 35.75 8.7 L35.6 9.0 35.3 9.15 35.15 9.15 M35.0 7.95 L35.0 7.75 Q35.0 7.35 35.45 7.2 35.9 7.05 35.9 7.5 L35.35 8.15 35.0 7.95 M38.25 8.15 L38.3 8.35 38.15 8.6 37.95 8.75 38.15 8.65 38.35 8.85 38.3 8.95 38.5 9.2 38.3 9.5 Q38.1 9.5 38.05 9.35 L38.0 9.2 38.05 9.05 37.9 9.0 37.9 8.75 37.85 8.75 37.7 8.7 37.55 8.8 Q37.25 8.8 37.25 8.35 L37.35 8.1 37.3 8.1 37.0 7.9 36.95 7.7 Q36.95 7.35 37.35 7.35 37.7 7.35 37.7 7.65 L37.7 7.75 37.9 7.65 Q38.55 7.3 38.55 7.85 L38.25 8.15 M36.05 8.4 L35.9 8.45 35.7 8.4 35.65 8.25 35.75 8.1 Q35.9 7.95 36.05 8.1 L36.05 8.4 M35.9 9.05 L36.35 8.65 36.65 8.6 37.05 8.85 36.9 9.15 36.85 9.2 36.6 9.4 36.65 9.65 Q36.65 10.1 36.25 10.1 L36.15 10.1 36.15 10.2 36.05 10.4 35.85 10.5 35.6 10.35 35.55 10.2 35.55 10.15 35.55 9.9 35.75 9.55 36.05 9.4 35.95 9.25 35.9 9.05 M37.65 9.25 L37.5 9.55 37.2 9.75 36.9 9.6 36.85 9.4 Q36.85 9.1 37.25 9.0 37.65 8.9 37.65 9.25 M37.7 10.15 Q37.7 9.7 38.2 9.6 38.65 9.5 38.65 9.9 L38.0 10.55 37.75 10.35 37.7 10.15" fill="#fbf4e6" fill-rule="evenodd" stroke="none"/>
    <path d="M58.5 6.15 L59.9 6.85 60.65 7.3 61.05 7.55 Q64.6 9.8 65.7 12.3 66.8 14.8 66.8 21.65 66.8 26.15 65.9 27.65 L63.4 30.3 61.65 32.15 Q64.85 27.0 64.85 26.1 L64.9 24.55 64.85 24.55 63.65 25.45 63.65 25.35 61.4 26.9 61.25 27.05 Q60.8 27.3 60.35 27.65 L60.15 27.4 60.0 27.45 60.85 26.25 64.1 22.55 65.05 15.3 Q65.05 14.8 62.3 9.55 L62.9 12.7 62.9 13.0 62.85 13.0 61.4 11.55 59.65 9.9 58.15 7.95 56.85 6.45 57.15 6.65 58.8 8.05 60.6 9.45 61.05 9.75 58.5 6.15 M13.45 47.1 L12.2 48.75 12.1 48.9 10.3 51.4 10.0 51.2 9.25 50.65 8.0 49.0 6.85 47.4 10.45 49.3 13.55 45.5 15.45 43.75 Q17.15 42.25 17.35 42.25 L19.45 42.5 22.9 41.2 25.75 39.8 25.75 39.75 25.25 39.65 23.6 40.0 23.55 40.0 Q24.6 39.4 26.6 38.55 28.6 37.7 29.2 37.55 28.9 37.65 26.95 39.15 L26.95 39.25 31.75 36.9 31.75 36.85 31.2 36.85 30.85 36.9 30.6 37.0 29.95 37.0 30.85 36.35 30.95 36.3 30.4 36.25 29.05 36.5 29.0 36.5 33.25 34.9 33.3 34.9 31.6 36.4 31.55 36.5 31.7 36.55 33.7 36.1 33.25 36.5 33.25 36.55 34.9 36.05 38.9 34.85 39.05 34.85 40.4 34.2 40.1 35.2 40.05 35.45 Q34.7 36.65 31.4 37.85 30.4 38.2 25.1 40.85 L19.8 43.35 16.95 43.1 Q16.5 43.1 13.45 47.1 M43.25 36.3 Q43.75 36.4 44.45 36.65 L44.45 36.75 44.7 37.9 44.35 38.45 43.9 39.0 42.8 39.1 43.0 38.7 Q43.0 38.25 42.6 38.4 42.25 38.55 42.0 39.0 L41.65 39.6 41.2 40.2 40.8 40.2 40.1 40.1 39.3 40.25 39.2 39.4 Q39.35 39.2 39.65 39.1 L41.1 38.9 Q41.7 38.8 41.9 38.1 42.1 37.45 42.6 37.45 42.9 37.45 43.15 37.6 L43.45 37.6 43.5 37.15 43.25 36.3 M16.05 50.9 L16.85 51.35 17.15 51.35 17.4 49.5 17.1 47.85 Q16.65 46.9 16.55 46.3 L17.2 47.0 18.05 47.9 18.05 48.05 18.2 48.9 17.8 50.5 17.15 51.9 16.05 50.9 M20.6 50.0 L20.85 50.15 21.65 48.9 22.35 47.75 21.7 45.65 Q21.55 45.05 20.75 45.0 L22.0 44.5 22.4 45.55 22.85 46.75 22.85 47.15 22.75 47.35 22.85 47.5 22.85 48.65 21.8 50.25 21.15 51.2 20.95 50.75 20.6 50.0 M25.05 43.15 L25.7 42.85 Q25.75 42.95 25.95 42.95 L26.7 42.9 27.15 44.3 27.45 45.7 Q27.45 46.25 26.1 48.3 L25.65 47.9 Q26.75 46.6 26.75 46.1 26.75 44.8 26.15 44.0 25.7 43.35 25.05 43.15 M29.5 45.75 L30.5 44.55 Q30.9 44.25 30.9 43.7 30.9 42.45 30.45 41.45 L30.35 41.25 30.65 41.35 Q31.65 41.9 31.65 43.4 L31.65 43.8 31.2 44.8 29.85 46.3 29.5 45.75 M36.65 38.6 L37.85 38.1 38.0 38.25 38.45 39.2 38.6 40.1 38.7 40.65 38.7 40.75 38.65 40.9 37.9 41.95 37.2 42.75 36.35 42.45 35.85 42.4 35.95 42.15 35.9 41.85 35.9 41.55 36.75 41.65 37.35 41.1 37.75 40.15 37.1 39.05 36.65 38.6 M32.75 39.85 L33.5 39.6 33.8 39.7 33.9 39.7 34.95 40.95 35.25 41.65 35.45 42.05 35.05 42.55 33.6 44.8 32.7 44.25 32.1 44.05 32.15 43.85 33.2 43.85 33.95 42.9 34.35 41.75 Q34.35 41.2 33.65 40.45 L32.75 39.85" fill="#729ac2" fill-rule="evenodd" stroke="none"/>
  </g>
</svg>