<?xml version="1.0" encoding="UTF-8" standalone="no"?>
<svg xmlns:xlink="http://www.w3.org/1999/xlink" height="49.9px" width="69.35px" xmlns="http://www.w3.org/2000/svg">
  <g transform="matrix(1.0, 0.0, 0.0, 1.0, -2.2, -1)">
    <path d="M52.15 10.6 L52.25 10.9 52.15 11.6 51.5 11.9 50.5 11.6 50.4 11.05 Q50.6 10.7 50.95 10.5 L52.1 10.25 52.15 10.6" fill="#4f423e" fill-rule="evenodd" stroke="none"/>
    <path d="M43.7 4.45 L44.15 4.65 Q45.45 5.0 47.5 6.35 47.35 7.6 48.65 8.6 50.1 9.75 52.3 9.75 L52.35 9.75 Q54.05 9.75 54.75 8.9 L55.15 8.15 55.25 6.25 Q55.25 5.1 54.8 4.3 L55.45 4.75 Q56.6 5.75 56.6 7.2 56.6 9.5 54.75 10.25 L52.55 10.6 52.15 10.6 52.1 10.25 50.95 10.5 49.0 9.95 Q47.95 9.35 47.45 8.05 L47.2 7.55 47.35 8.4 Q47.35 10.5 44.8 10.5 43.3 10.5 42.75 9.55 L42.9 9.15 42.9 9.0 43.1 8.95 Q43.45 9.5 44.05 9.7 L44.35 9.75 44.6 9.75 Q45.65 9.75 45.9 8.75 L46.0 7.3 Q46.0 6.6 45.3 6.25 L45.55 6.2 46.35 6.45 45.15 5.55 Q43.85 4.8 43.7 4.45 M42.4 7.8 Q42.45 6.45 43.2 6.15 42.7 6.5 42.65 7.6 L42.4 7.8 M46.8 6.85 L46.35 6.45 47.2 7.55 46.8 6.85" fill="#202433" fill-opacity="0.30588236" fill-rule="evenodd" stroke="none"/>
    <path d="M52.35 9.75 Q53.95 9.6 53.95 8.4 L53.9 8.0 53.55 7.7 54.1 7.6 54.1 7.35 53.9 7.25 53.85 7.0 Q53.85 6.8 54.3 6.8 L54.45 6.0 Q54.45 5.35 53.65 5.1 L52.8 4.75 53.05 4.45 53.3 4.1 53.1 3.75 52.8 3.55 52.9 3.1 52.75 2.65 Q54.15 3.15 54.75 4.25 L54.8 4.3 Q55.25 5.1 55.25 6.25 L55.15 8.15 54.75 8.9 Q54.05 9.75 52.35 9.75 M44.85 6.05 L45.3 6.25 Q46.0 6.6 46.0 7.3 L45.9 8.75 Q45.65 9.75 44.6 9.75 L44.35 9.75 Q44.65 9.7 44.95 9.45 L45.3 8.9 45.2 8.8 45.55 7.6 Q45.55 6.9 45.2 6.4 L44.85 6.05" fill="#78849c" fill-rule="evenodd" stroke="none"/>
    <path d="M50.05 3.65 Q50.5 3.95 50.5 4.5 50.5 5.15 50.0 5.15 L49.5 4.85 49.4 4.25 48.75 4.45 Q48.5 4.45 48.5 4.0 L48.5 3.7 48.75 3.55 48.9 3.45 49.2 3.4 49.25 3.4 50.05 3.65" fill="#966c43" fill-rule="evenodd" stroke="none"/>
    <path d="M52.75 2.65 L52.9 3.1 52.8 3.55 53.1 3.75 53.3 4.1 53.05 4.45 52.8 4.75 53.65 5.1 Q54.45 5.35 54.45 6.0 L54.3 6.8 Q53.85 6.8 53.85 7.0 L53.9 7.25 54.1 7.35 54.1 7.6 53.55 7.7 53.9 8.0 53.95 8.4 Q53.95 9.6 52.35 9.75 L52.3 9.75 Q50.1 9.75 48.65 8.6 47.35 7.6 47.5 6.35 45.45 5.0 44.15 4.65 L43.7 4.45 43.5 4.25 Q43.5 3.8 43.95 3.4 L44.05 3.65 45.55 4.75 Q47.45 5.55 47.8 6.1 L48.3 7.3 Q48.55 8.1 48.85 8.35 50.05 9.45 50.9 9.45 L51.9 9.25 Q52.5 8.95 52.55 8.45 L52.55 8.15 52.1 8.2 Q51.8 8.15 51.8 7.8 L52.05 7.05 51.75 6.5 51.05 6.25 Q50.65 6.25 50.35 6.65 50.1 7.0 50.2 7.35 L49.85 7.35 49.5 7.05 49.25 6.75 49.25 6.15 48.75 5.65 49.0 5.3 Q49.0 4.85 48.5 4.85 L48.1 4.95 Q47.75 4.9 47.75 4.65 L48.1 3.95 Q47.6 3.95 47.6 3.6 47.6 3.5 48.2 3.15 L48.8 2.6 48.55 2.3 48.2 2.05 49.4 2.05 Q51.4 2.1 52.75 2.65 M43.2 6.15 Q43.4 6.0 43.7 5.95 L43.95 5.9 44.35 5.95 44.85 6.05 45.2 6.4 Q45.55 6.9 45.55 7.6 L45.2 8.8 45.3 8.9 44.95 9.45 Q44.65 9.7 44.35 9.75 L44.05 9.7 Q43.45 9.5 43.1 8.95 L43.15 8.85 43.2 8.65 Q43.2 7.85 42.8 7.65 L42.65 7.6 Q42.7 6.5 43.2 6.15 M50.05 3.65 L49.25 3.4 49.2 3.4 48.9 3.45 48.75 3.55 48.5 3.7 48.5 4.0 Q48.5 4.45 48.75 4.45 L49.4 4.25 49.5 4.85 50.0 5.15 Q50.5 5.15 50.5 4.5 50.5 3.95 50.05 3.65 M43.55 6.05 L43.3 6.35 Q43.15 6.65 43.15 7.05 43.15 7.6 43.65 7.55 L43.3 8.3 43.8 8.55 44.15 8.95 44.35 8.7 44.45 8.3 44.75 8.4 Q45.2 8.4 45.2 7.55 45.2 7.0 44.7 6.5 L44.65 6.45 Q44.2 6.05 43.75 6.05 L43.55 6.05" fill="#3d482d" fill-rule="evenodd" stroke="none"/>
    <path d="M48.2 2.05 L48.55 2.3 48.8 2.6 48.2 3.15 Q47.6 3.5 47.6 3.6 47.6 3.95 48.1 3.95 L47.75 4.65 Q47.75 4.9 48.1 4.95 L48.5 4.85 Q49.0 4.85 49.0 5.3 L48.75 5.65 49.25 6.15 49.25 6.75 49.5 7.05 49.85 7.35 50.2 7.35 Q50.1 7.0 50.35 6.65 50.65 6.25 51.05 6.25 L51.75 6.5 52.05 7.05 51.8 7.8 Q51.8 8.15 52.1 8.2 L52.55 8.15 52.55 8.45 Q52.5 8.95 51.9 9.25 L50.9 9.45 Q50.05 9.45 48.85 8.35 48.55 8.1 48.3 7.3 L47.8 6.1 Q47.45 5.55 45.55 4.75 L44.05 3.65 43.95 3.4 Q44.4 2.95 45.35 2.6 L46.9 2.2 48.2 2.05 M43.55 6.05 L43.75 6.05 Q44.2 6.05 44.65 6.45 L44.7 6.5 Q45.2 7.0 45.2 7.55 45.2 8.4 44.75 8.4 L44.45 8.3 44.35 8.7 44.15 8.95 43.8 8.55 43.3 8.3 43.65 7.55 Q43.15 7.6 43.15 7.05 43.15 6.65 43.3 6.35 L43.55 6.05" fill="#7a8f5a" fill-rule="evenodd" stroke="none"/>
    <path d="M57.7 7.45 L57.45 6.9 57.7 6.45 57.7 6.4 57.75 6.2 57.75 7.5 57.7 7.45" fill="#5297e2" fill-rule="evenodd" stroke="none"/>
    <path d="M61.85 5.15 L61.8 5.4 62.85 6.05 63.5 6.45 63.6 6.7 64.0 7.9 64.05 8.7 63.8 11.2 63.55 11.5 Q62.5 12.95 62.15 13.8 L61.25 14.6 Q61.05 14.7 60.8 14.85 L60.2 15.25 59.85 16.05 Q58.7 17.35 58.7 18.05 L58.75 18.45 58.5 18.7 58.95 18.85 59.15 18.9 59.6 19.15 Q60.5 19.3 60.85 19.8 L61.2 20.7 Q61.25 21.1 62.45 22.2 63.8 23.45 64.6 23.45 L67.05 22.95 68.3 22.25 Q67.55 21.95 67.55 21.5 67.55 21.2 67.8 21.0 L68.3 20.8 Q69.5 20.8 69.7 22.1 L69.7 22.2 68.55 23.3 67.6 23.95 Q66.85 24.35 65.6 24.35 63.6 24.35 62.25 23.55 61.15 22.85 60.9 22.1 L60.55 21.6 60.25 20.85 59.6 20.25 59.4 20.2 59.1 19.95 Q59.05 19.45 58.45 19.4 L57.6 19.55 57.5 19.5 57.1 19.75 56.35 20.3 57.25 18.8 57.1 18.15 57.65 17.5 57.85 17.7 Q58.05 16.75 60.5 14.55 62.85 12.45 62.85 11.5 L62.8 11.2 62.5 11.35 63.15 9.6 62.7 8.0 62.2 6.6 61.25 6.65 Q60.5 6.65 60.3 6.2 L60.25 5.85 Q60.25 4.9 61.7 5.1 L61.85 5.15 M49.5 28.0 L48.75 27.7 Q48.15 27.35 48.15 26.95 48.15 26.05 49.8 26.55 L50.6 26.8 50.55 26.6 Q50.55 24.5 53.3 24.4 L53.6 22.75 53.6 23.1 Q53.75 23.6 54.1 23.6 L55.2 22.0 54.85 24.7 54.55 25.55 54.45 25.7 52.6 26.2 52.3 26.2 52.3 26.3 52.05 26.45 52.05 27.1 Q51.95 27.6 51.45 27.6 L50.1 27.45 Q49.5 27.4 49.5 28.0 M53.7 21.6 L53.7 21.45 Q53.85 20.1 55.2 19.2 54.05 20.4 53.7 21.6 M42.75 9.55 L42.65 9.7 42.15 9.95 41.25 10.75 40.55 10.45 39.3 10.15 38.95 10.15 Q38.6 9.45 37.05 10.7 36.35 11.1 35.8 11.8 L35.75 11.85 35.45 12.2 36.05 10.75 36.05 10.35 Q37.35 9.4 39.7 9.4 L40.65 9.55 40.95 9.7 41.95 8.7 42.35 8.45 42.35 8.15 42.4 7.8 42.65 7.6 42.8 7.65 Q43.2 7.85 43.2 8.65 L43.15 8.85 43.1 8.95 42.9 9.0 42.9 9.15 42.75 9.55 M34.95 21.1 L34.4 21.35 34.3 21.35 Q33.75 21.35 33.1 20.15 L32.65 19.2 32.3 18.7 Q32.3 18.45 33.2 17.6 34.05 16.75 34.05 16.1 L34.05 16.05 34.35 16.2 34.6 16.1 34.7 15.75 34.65 15.6 34.9 15.2 34.95 15.35 35.1 15.85 35.15 16.35 34.5 17.6 33.9 18.7 33.65 18.95 33.75 19.1 33.75 19.2 34.05 20.15 Q34.4 21.1 34.85 21.1 L34.95 21.1 M34.4 11.0 L34.65 10.3 Q34.85 9.7 35.25 9.75 L36.4 7.05 Q36.4 6.2 34.85 5.85 33.3 5.5 33.3 5.15 33.3 4.0 35.3 4.9 37.3 5.75 37.3 6.95 37.3 8.0 36.0 10.2 35.8 9.25 34.7 10.6 L34.4 11.0 M51.0 32.0 L49.75 32.0 Q50.2 33.0 50.2 34.6 L50.2 35.85 Q50.05 36.8 49.4 36.8 48.8 36.8 48.7 36.35 L48.7 35.9 49.0 33.8 Q49.0 31.95 47.65 31.6 L43.1 30.15 Q42.15 30.15 41.25 30.65 L40.1 31.1 Q38.6 31.1 38.6 30.5 38.6 30.35 40.35 29.65 L42.35 28.9 45.15 29.6 47.35 30.35 Q48.15 30.45 48.75 30.85 L50.05 30.75 Q52.2 30.75 52.2 31.75 52.2 32.35 51.7 32.35 51.1 32.35 51.0 32.0 M6.3 45.25 Q5.45 45.1 5.6 44.15 5.6 43.75 6.1 42.8 L6.6 41.5 Q6.6 40.65 4.9 40.15 3.2 39.7 3.2 39.1 3.2 38.2 5.4 39.1 7.55 40.05 7.55 41.5 L7.35 42.45 6.65 43.95 6.6 44.05 7.8 43.75 Q7.35 43.9 7.35 44.2 7.1 44.75 8.75 44.75 L8.1 44.85 6.3 45.25 M9.8 43.4 Q10.3 42.85 11.35 42.2 L11.9 41.9 11.55 42.3 9.9 43.35 9.8 43.4 M13.6 41.0 L13.95 40.7 12.95 40.35 Q12.25 40.2 12.15 39.95 L12.15 39.4 12.25 38.9 11.9 38.3 Q11.55 38.05 11.55 37.75 11.55 36.4 12.85 37.25 14.2 38.1 13.65 38.95 L14.7 39.65 14.45 39.6 14.4 39.85 15.3 40.9 13.0 42.55 12.9 42.65 Q13.6 41.85 13.6 41.3 L13.6 41.0 M14.1 46.75 Q13.2 49.9 12.25 49.9 11.8 49.9 11.7 49.6 L11.7 49.25 Q11.7 48.8 12.25 47.7 L12.95 46.45 11.1 45.35 10.7 45.15 10.7 45.1 Q10.7 44.65 9.55 44.7 L11.3 44.0 Q11.4 44.4 12.15 44.6 L12.95 44.85 13.6 45.4 13.7 46.1 14.1 46.75" fill="#36a73f" fill-opacity="0.49803922" fill-rule="evenodd" stroke="none"/>
    <path d="M63.5 6.45 L62.85 6.05 61.8 5.4 61.85 5.15 Q62.0 4.4 63.05 5.05 64.25 5.8 64.95 7.2 L65.2 10.3 Q65.2 11.7 64.9 12.3 L63.1 14.7 60.9 16.85 Q59.65 18.9 59.25 18.9 L59.15 18.9 58.95 18.85 58.75 18.5 58.75 18.45 58.7 18.05 Q58.7 17.35 59.85 16.05 L61.25 14.6 62.15 13.8 62.55 13.4 Q63.4 12.6 63.8 11.2 L64.05 8.7 64.0 7.9 63.9 7.0 Q63.9 6.75 63.5 6.45 M57.6 19.55 L58.45 19.4 Q59.05 19.45 59.1 19.95 L59.4 20.2 60.55 21.6 60.9 22.1 Q61.15 22.85 62.25 23.55 63.6 24.35 65.6 24.35 66.85 24.35 67.6 23.95 L68.55 23.3 69.7 22.2 70.0 21.95 Q70.45 21.95 70.55 22.75 70.55 23.5 69.1 24.5 67.45 25.6 65.55 25.6 63.45 25.6 61.8 24.4 L60.5 23.2 59.0 21.5 58.5 20.85 57.9 21.2 Q56.65 21.8 56.6 22.7 L56.35 24.4 Q56.2 24.95 56.2 25.6 56.2 26.25 55.85 26.6 55.15 27.15 53.15 27.1 L53.1 27.95 Q52.8 28.8 51.6 28.8 L50.1 28.5 49.5 28.0 Q49.5 27.4 50.1 27.45 L51.45 27.6 Q51.95 27.6 52.05 27.1 L52.05 26.45 52.3 26.3 52.6 26.2 54.45 25.7 55.0 25.6 54.9 24.95 Q54.9 21.3 57.0 19.85 L57.6 19.55 M42.65 9.7 Q43.0 9.65 43.0 10.2 L42.45 11.2 41.4 11.9 40.5 11.55 39.25 11.2 38.45 11.25 37.5 12.05 Q35.95 13.35 35.95 14.2 L36.3 16.1 Q36.3 16.75 34.95 19.15 L35.35 20.2 35.25 20.3 35.4 20.65 34.95 21.1 34.85 21.1 Q34.4 21.1 34.05 20.15 L33.75 19.2 33.75 19.1 33.9 18.7 34.5 17.6 35.15 16.35 35.1 15.85 34.95 15.35 34.9 15.2 34.95 14.8 34.85 13.35 35.45 12.2 35.75 11.85 35.8 11.8 Q36.35 11.1 37.05 10.7 38.6 9.45 38.95 10.15 L39.3 10.15 40.55 10.45 41.25 10.75 42.15 9.95 42.65 9.7 M33.0 24.6 Q33.5 24.6 33.75 25.0 L33.9 25.5 Q33.9 26.05 33.0 26.5 L31.75 26.9 30.35 26.55 29.25 26.0 28.5 26.15 28.45 26.1 28.4 26.55 28.65 27.75 28.9 29.0 28.4 29.8 Q27.9 30.4 27.9 30.65 27.9 31.35 30.4 32.75 32.85 34.2 32.85 36.5 32.85 37.35 31.9 38.8 30.9 40.35 29.75 40.75 L29.0 40.05 Q29.0 39.6 30.35 37.85 L31.65 36.0 Q31.65 34.5 29.1 33.85 26.5 33.25 26.5 30.65 L26.85 30.0 27.15 29.15 Q26.35 26.75 26.35 26.0 26.35 24.15 28.65 24.2 L33.0 24.6 M14.7 39.65 L16.15 40.05 Q16.6 40.3 16.6 40.75 16.6 41.4 15.1 42.7 L13.1 43.9 Q14.7 45.05 14.7 46.05 L14.6 46.45 14.25 46.75 14.1 46.75 13.7 46.1 13.6 45.4 13.45 45.1 12.95 44.85 12.15 44.6 Q11.4 44.4 11.3 44.0 L12.2 43.3 12.9 42.65 13.0 42.55 15.3 40.9 14.4 39.85 14.45 39.6 14.7 39.65 M10.7 45.15 Q10.7 45.65 10.15 45.85 L7.5 46.1 Q5.5 46.1 5.5 45.5 L6.3 45.25 8.1 44.85 8.75 44.75 8.8 44.75 9.55 44.7 Q10.7 44.65 10.7 45.1 L10.7 45.15" fill="#216726" fill-opacity="0.5882353" fill-rule="evenodd" stroke="none"/>
    <path d="M34.05 16.05 L33.85 15.75 34.1 15.75 34.65 15.6 34.7 15.75 34.6 16.1 34.35 16.2 34.05 16.05" fill="#5ed02d" fill-opacity="0.67058825" fill-rule="evenodd" stroke="none"/>
    <path d="M62.5 11.35 L62.8 11.2 62.85 11.5 Q62.85 12.45 60.5 14.55 58.05 16.75 57.85 17.7 L57.65 17.5 57.5 17.2 Q57.5 16.5 58.75 15.05 59.0 14.6 59.4 14.3 L59.85 13.8 Q61.65 11.9 62.5 11.35 M57.1 18.15 L57.25 18.8 56.35 20.3 55.2 22.0 54.1 23.6 Q53.75 23.6 53.6 23.1 L53.6 22.75 53.55 22.55 Q53.55 22.05 53.7 21.6 54.05 20.4 55.2 19.2 L55.4 19.0 Q56.7 17.75 57.1 18.15 M33.85 15.75 Q33.4 15.55 33.3 14.85 L33.3 13.9 33.3 13.8 Q33.3 12.35 34.4 11.0 L34.7 10.6 Q35.8 9.25 36.0 10.2 L36.05 10.35 36.05 10.75 35.45 12.2 34.85 13.35 34.95 14.8 34.9 15.2 34.65 15.6 34.1 15.75 33.85 15.75 M7.8 43.75 L8.25 43.6 9.8 43.4 9.9 43.35 11.55 42.3 11.9 41.9 12.75 41.05 13.6 41.0 13.6 41.3 Q13.6 41.85 12.9 42.65 L12.2 43.3 11.3 44.0 9.55 44.7 8.8 44.75 8.75 44.75 Q7.1 44.75 7.35 44.2 7.35 43.9 7.8 43.75" fill="#a2d726" fill-opacity="0.64705884" fill-rule="evenodd" stroke="none"/>
  </g>
</svg>