<?xml version="1.0" encoding="UTF-8" standalone="no"?>
<svg xmlns:xlink="http://www.w3.org/1999/xlink" height="38.8px" width="52.4px" xmlns="http://www.w3.org/2000/svg">
  <g transform="matrix(1.0, 0.0, 0.0, 1.0, 1, 1)">
    <path d="M48.2 28.5 Q49.5 29.05 49.4 29.85 L50.35 30.4 50.4 31.0 Q50.4 31.75 50.0 31.75 L49.65 31.65 49.7 31.05 49.15 30.9 Q48.55 30.7 48.55 29.7 L47.3 29.2 Q46.85 29.1 46.85 28.65 46.85 27.95 48.2 28.5 M30.95 6.9 L31.45 6.35 33.9 3.55 33.5 2.55 Q33.5 2.2 34.9 1.15 36.35 0.1 37.05 0.0 L37.2 0.05 37.25 0.2 36.7 0.95 36.65 0.9 36.6 0.95 36.55 0.9 Q36.2 0.95 35.5 1.75 34.8 2.45 34.8 2.7 L34.9 2.9 35.0 3.15 31.9 6.95 31.65 7.25 31.35 7.5 31.35 7.45 Q31.35 6.95 30.95 6.9 M27.45 12.75 L27.5 12.7 Q29.8 10.6 30.65 10.6 L31.65 10.75 31.65 10.7 32.1 10.8 32.2 10.8 35.4 10.5 Q35.85 10.4 35.85 10.95 L35.55 11.35 34.6 11.35 33.0 11.5 32.75 11.45 32.85 11.6 32.8 11.85 33.2 13.0 33.75 14.15 34.05 15.4 34.0 15.7 33.6 15.8 Q33.25 15.8 32.4 13.4 L31.75 11.5 31.85 11.35 31.55 11.1 30.45 11.3 30.15 11.25 29.8 11.6 28.65 12.45 Q28.05 12.45 27.0 13.85 L27.2 13.55 27.3 13.4 27.5 13.1 27.45 12.75 M18.5 17.8 L18.45 17.75 18.3 17.4 Q18.3 17.0 19.35 16.2 20.45 15.4 21.15 15.35 L21.65 15.35 22.55 15.45 22.5 15.65 22.7 15.95 22.45 16.1 22.5 16.15 22.1 16.6 21.55 17.3 19.7 17.6 18.5 17.8 M0.65 34.25 L0.6 34.45 0.85 35.55 0.8 35.9 0.6 36.0 Q0.15 36.0 0.05 35.25 L0.0 34.5 Q0.0 33.2 0.95 33.15 2.15 33.05 2.5 32.1 L2.65 30.8 Q2.8 30.05 4.15 29.45 6.1 28.55 6.2 26.6 6.35 24.6 7.3 24.15 L7.35 24.55 7.15 26.6 7.25 26.55 7.85 26.35 Q8.05 26.35 8.55 26.65 L9.4 26.95 14.85 25.0 Q16.4 24.45 17.55 25.4 L18.9 26.5 19.7 26.3 20.15 26.35 20.25 26.65 19.75 27.0 18.85 27.25 Q18.6 27.25 17.4 26.25 L16.75 25.7 17.1 25.5 16.95 25.25 16.65 25.25 16.2 25.3 16.1 25.25 15.65 25.35 Q14.05 25.55 12.5 26.3 L11.45 26.9 9.4 27.7 8.75 27.35 Q8.25 27.0 7.8 27.0 L7.6 27.1 7.35 27.2 7.3 27.2 7.15 27.1 6.95 27.25 6.85 27.25 6.85 27.35 6.65 27.95 Q6.55 28.75 6.1 29.0 L4.6 29.55 Q3.7 29.8 3.3 30.35 3.05 30.65 3.1 31.45 L3.15 31.85 3.1 32.0 2.35 32.9 2.25 32.95 1.15 33.45 Q0.65 33.65 0.65 34.25 M34.7 29.4 L36.6 31.2 Q37.45 31.95 37.7 32.55 L37.9 33.75 Q37.9 36.5 37.4 36.8 36.85 36.1 36.85 35.0 L36.9 33.2 Q36.8 32.5 35.4 31.3 33.8 29.95 32.3 29.95 L30.7 30.15 30.15 30.3 Q29.65 30.3 29.25 29.55 L28.95 28.75 29.0 28.45 Q29.35 28.45 29.7 28.8 L30.15 29.25 30.65 29.1 32.35 28.9 Q34.1 28.9 34.7 29.4" fill="#432a52" fill-opacity="0.29803923" fill-rule="evenodd" stroke="none"/>
    <path d="M36.7 0.95 L36.9 1.15 36.4 1.75 35.85 2.35 36.05 2.9 Q36.05 3.6 32.35 7.6 L27.9 12.25 27.75 12.25 27.35 12.6 27.25 12.4 Q27.25 12.1 29.05 10.05 L30.15 8.85 30.45 8.5 31.1 7.8 31.0 7.8 30.5 7.6 29.6 7.85 28.75 8.1 28.3 7.95 28.15 7.75 Q27.6 7.75 26.35 8.75 L24.7 10.35 23.65 11.7 22.6 13.15 22.55 13.15 Q21.95 14.1 21.85 14.5 L21.95 14.55 22.0 14.55 22.5 14.4 24.3 14.2 24.9 14.45 25.05 14.75 Q25.0 15.7 24.7 15.7 L24.65 15.7 24.4 15.35 24.35 14.95 22.9 15.05 22.2 15.25 Q21.6 15.25 21.4 14.85 L21.3 14.4 Q21.3 13.9 22.15 12.65 L23.1 11.5 23.25 11.3 24.5 9.8 Q27.2 7.1 28.35 7.1 28.6 7.1 28.7 7.25 L28.85 7.4 30.35 6.95 30.95 6.9 Q31.35 6.95 31.35 7.45 L31.35 7.5 31.35 7.55 31.65 7.25 31.9 6.95 35.0 3.15 35.0 3.1 34.9 2.9 34.8 2.7 Q34.8 2.45 35.5 1.75 36.2 0.95 36.55 0.9 L36.6 0.95 36.65 0.9 36.7 0.95 M35.55 11.35 L36.0 11.35 36.15 11.6 36.05 11.9 33.55 12.0 33.9 13.0 34.1 14.15 33.9 14.3 33.75 14.15 33.2 13.0 32.8 11.85 32.85 11.6 32.9 11.5 33.0 11.5 34.6 11.35 35.55 11.35 M31.75 11.5 L31.55 11.7 Q29.9 11.45 27.5 14.65 25.35 17.5 25.35 18.75 L25.45 19.55 26.0 20.5 25.8 20.75 25.65 21.0 25.45 20.8 24.9 19.9 24.3 18.9 25.9 15.75 27.0 13.85 Q28.05 12.45 28.65 12.45 L29.8 11.6 30.45 11.3 31.55 11.1 31.85 11.35 31.75 11.5 M22.45 6.6 Q22.75 5.3 23.9 3.8 L24.8 2.85 Q25.15 2.65 25.15 3.25 23.55 5.45 23.1 6.35 L22.85 7.15 21.95 7.45 21.15 7.65 19.55 8.2 18.3 8.5 17.85 8.9 17.35 9.45 18.05 10.25 Q18.75 10.85 18.75 11.45 L18.45 13.3 18.3 13.35 18.15 13.3 18.1 13.1 18.1 12.85 18.25 11.55 17.45 10.55 16.7 9.6 16.65 9.45 16.65 9.35 17.4 8.5 17.5 8.4 17.7 8.25 18.1 8.05 Q18.55 7.75 19.7 7.4 L22.05 6.85 22.4 6.8 22.45 6.6 M22.55 15.45 L22.95 15.35 Q23.35 15.45 23.35 15.85 L23.1 16.5 22.4 17.25 21.75 18.05 19.9 18.35 18.25 18.0 Q18.25 17.85 18.5 17.8 L19.7 17.6 21.55 17.3 22.1 16.6 22.5 16.15 22.7 16.0 22.7 15.95 22.5 15.65 22.55 15.45 M0.65 34.25 Q0.65 33.65 1.15 33.45 L2.25 32.95 2.35 32.9 2.9 32.5 3.15 31.85 3.1 31.45 Q3.05 30.65 3.3 30.35 3.7 29.8 4.6 29.55 L6.1 29.0 Q6.55 28.75 6.65 27.95 L6.85 27.35 6.85 27.25 6.95 27.25 7.15 27.1 7.3 27.2 7.3 27.25 7.5 27.2 9.05 27.6 9.55 27.9 11.45 26.9 12.5 26.3 Q14.05 25.55 15.65 25.35 L16.2 25.3 16.65 25.25 16.95 25.25 17.1 25.5 16.75 25.7 14.8 26.3 12.85 26.8 9.75 28.2 9.75 28.35 9.5 28.45 7.4 27.65 Q7.35 29.25 5.65 29.8 3.8 30.4 3.65 31.2 L3.7 32.2 Q3.65 32.9 2.75 33.25 1.95 33.5 1.7 33.7 1.15 34.05 1.1 34.75 L1.0 34.85 0.8 34.9 0.65 34.25" fill="#ffffff" fill-opacity="0.47843137" fill-rule="evenodd" stroke="none"/>
    <path d="M27.25 12.75 L27.45 12.75 27.5 13.1 27.3 13.4 27.2 13.55 27.0 13.85 25.9 15.75 24.3 18.9 24.9 19.9 25.45 20.8 25.45 20.85 25.35 21.1 25.2 21.1 Q24.85 21.1 24.25 20.05 L23.7 18.9 Q23.7 18.45 25.15 15.95 25.5 15.95 25.55 15.2 L25.6 15.1 26.8 13.25 26.7 12.95 27.0 12.3 27.2 12.6 27.25 12.8 27.25 12.75 M24.8 2.85 L23.9 3.8 Q22.75 5.3 22.45 6.6 L22.05 6.85 19.7 7.4 Q18.55 7.75 18.1 8.05 L17.7 8.25 17.65 8.25 17.6 8.25 17.4 8.5 16.65 9.35 16.65 9.45 16.55 9.55 16.7 9.6 17.45 10.55 18.25 11.55 18.1 12.85 18.1 13.1 18.15 13.3 17.6 14.75 16.3 16.85 16.15 16.6 17.05 14.7 Q17.9 12.85 17.9 11.9 17.9 11.4 16.9 10.55 L15.9 9.6 16.85 8.25 Q17.8 6.95 17.8 6.35 L17.6 5.85 Q17.6 5.55 17.9 5.55 L18.25 5.9 18.35 6.3 17.95 7.65 20.1 6.95 21.35 6.5 22.3 5.7 23.3 3.85 Q24.15 2.6 24.5 2.6 L24.8 2.85" fill="#432a52" fill-opacity="0.49803922" fill-rule="evenodd" stroke="none"/>
    <path d="M27.35 12.6 L27.25 12.75 27.25 12.8 27.2 12.6 27.0 12.3 26.7 12.95 26.8 13.25 25.6 15.1 25.55 15.2 Q25.5 15.95 25.15 15.95 23.7 18.45 23.7 18.9 L24.25 20.05 Q24.85 21.1 25.2 21.1 L25.35 21.1 25.3 21.2 24.8 21.3 23.85 20.2 23.1 19.05 Q23.1 18.65 24.65 15.7 L24.7 15.7 Q25.0 15.7 25.05 14.75 L24.9 14.45 24.3 14.2 22.5 14.4 22.0 14.55 21.85 14.5 Q21.95 14.1 22.55 13.15 L22.6 13.15 23.65 11.7 24.7 10.35 26.35 8.75 Q27.6 7.75 28.15 7.75 L28.3 7.95 28.75 8.1 29.6 7.85 30.5 7.6 31.0 7.8 31.1 7.8 30.45 8.5 30.15 8.85 29.05 10.05 Q27.25 12.1 27.25 12.4 L27.35 12.6" fill="#432a52" fill-opacity="0.60784316" fill-rule="evenodd" stroke="none"/>
  </g>
</svg>