<?xml version="1.0" encoding="UTF-8" standalone="no"?>
<svg xmlns:xlink="http://www.w3.org/1999/xlink" height="36.7px" width="60.15px" xmlns="http://www.w3.org/2000/svg">
  <g transform="matrix(1.0, 0.0, 0.0, 1.0, -4.05, 0.25)">
    <path d="M52.55 15.3 Q51.1 15.4 50.6 13.8 L50.35 11.65 Q50.35 11.1 50.6 10.65 L50.8 9.85 50.55 9.15 Q49.65 9.0 49.2 8.1 L48.8 6.8 47.65 7.6 45.85 8.1 Q45.2 8.1 44.5 7.6 L43.85 7.2 43.95 7.1 Q43.95 6.35 42.9 6.65 42.0 6.85 41.9 7.4 L41.8 7.35 41.75 7.75 42.55 9.75 43.8 12.35 Q44.3 13.4 45.55 15.15 L46.55 16.4 46.75 16.85 47.1 17.7 46.9 18.05 Q46.9 18.7 47.2 18.9 47.05 19.55 46.1 20.5 44.95 21.7 44.95 22.3 44.95 23.2 47.2 26.25 47.2 26.95 44.1 30.7 L41.45 34.15 Q40.45 35.15 40.0 35.15 L39.55 34.8 39.45 34.4 Q46.2 26.7 46.2 26.25 L45.05 24.45 Q43.85 22.85 43.85 22.05 43.85 21.3 44.45 20.9 L46.4 19.45 45.75 18.75 45.7 18.2 Q45.7 17.55 46.2 17.15 L45.65 16.35 44.6 14.65 Q43.15 12.9 42.8 11.85 L41.35 9.0 Q40.3 7.05 40.3 6.1 40.3 5.05 41.65 4.55 43.1 4.0 43.3 3.3 43.55 2.4 45.2 1.3 46.95 0.15 46.95 1.45 46.95 1.85 45.65 2.7 44.35 3.6 44.35 3.95 44.3 4.75 43.1 5.3 41.75 5.85 41.4 6.1 L41.65 6.65 41.65 6.6 Q42.15 6.1 43.15 6.1 44.15 6.1 44.95 6.6 L45.95 7.05 Q46.8 7.05 47.55 6.4 48.35 5.75 48.85 5.75 49.55 5.75 50.05 6.85 L50.4 7.55 51.05 7.85 54.0 6.95 56.05 6.35 56.05 6.1 Q56.05 5.4 56.65 5.6 56.95 5.7 57.15 5.95 L58.6 5.35 59.4 4.45 60.0 3.35 Q60.4 2.75 61.45 2.2 L62.55 2.1 62.25 2.25 Q61.5 2.75 60.75 3.8 L60.3 5.15 60.0 5.65 59.95 5.75 59.1 6.1 Q57.1 6.55 56.45 7.95 56.1 8.7 56.05 10.15 L56.0 10.5 56.1 11.2 56.1 11.3 56.05 11.85 Q56.05 12.95 56.8 13.7 L57.45 14.5 57.05 15.85 57.05 15.9 56.9 16.0 55.7 17.0 54.6 17.0 53.9 16.0 53.1 15.25 53.05 15.2 52.9 15.1 52.55 15.15 52.55 15.3 M52.55 14.1 Q53.35 14.05 54.1 14.95 L55.35 16.35 Q56.25 16.35 56.55 13.95 L55.8 12.7 Q55.0 11.6 55.0 10.55 55.0 9.75 55.55 8.45 L55.85 7.5 54.2 8.05 52.8 7.9 Q51.3 8.25 51.3 9.55 L51.05 12.7 51.05 13.6 Q51.2 14.5 52.0 14.5 52.45 14.3 52.55 14.1 M20.4 3.7 L20.45 3.65 Q20.45 1.8 17.35 4.95 L15.8 6.5 15.45 6.8 15.45 6.85 13.95 8.3 13.6 8.3 13.15 8.25 12.9 8.05 Q12.4 7.55 12.05 7.55 11.7 7.55 11.35 8.1 10.85 8.5 10.6 9.45 10.35 10.25 10.25 11.2 L10.05 11.8 9.25 13.25 Q8.2 14.55 6.4 14.55 L5.75 14.45 5.65 14.45 5.1 14.0 5.05 13.4 5.5 11.1 6.1 9.1 Q6.55 7.9 7.6 6.35 L8.5 4.9 7.85 4.3 Q7.2 3.85 7.2 3.6 7.2 3.2 7.65 3.2 9.1 3.2 9.45 4.9 L8.1 7.4 Q6.55 10.4 5.95 13.5 L6.2 13.6 Q8.2 13.6 8.95 11.9 L9.35 10.1 Q10.75 6.55 12.35 6.55 12.8 6.55 13.0 6.8 L13.4 7.35 Q14.45 7.15 14.6 6.7 L14.65 6.0 15.45 5.3 16.35 4.85 Q20.7 1.15 20.7 3.3 L20.4 3.7" fill="#66cc66" fill-opacity="0.6156863" fill-rule="evenodd" stroke="none"/>
    <path d="M62.55 2.1 Q63.2 1.65 63.2 2.6 L61.3 4.75 61.05 5.8 Q60.85 6.5 60.2 6.8 L58.55 7.45 Q57.55 7.85 57.35 8.55 L57.0 9.75 56.95 10.55 57.15 12.05 57.1 12.35 57.7 13.2 Q58.45 14.15 58.45 14.95 58.45 16.55 56.0 17.95 L54.35 17.95 Q53.45 17.55 53.15 16.85 L52.55 15.6 52.55 15.3 52.55 15.15 52.9 15.1 53.05 15.2 53.1 15.25 53.9 16.0 54.6 17.0 55.7 17.0 56.9 16.0 57.05 15.9 57.55 15.0 57.45 14.5 56.8 13.7 Q56.05 12.95 56.05 11.85 L56.1 11.3 56.1 11.2 56.05 10.4 56.05 10.15 Q56.1 8.7 56.45 7.95 57.1 6.55 59.1 6.1 L59.95 5.75 60.3 5.15 60.75 3.8 Q61.5 2.75 62.25 2.25 L62.55 2.1 M43.85 7.2 L43.1 7.45 42.6 7.8 42.55 7.95 Q43.1 8.45 43.5 9.3 L44.6 11.75 46.3 14.3 47.25 15.75 Q48.25 17.15 48.25 18.6 48.25 19.75 47.15 20.95 L46.05 22.25 48.25 26.05 Q48.25 28.15 41.35 35.45 L41.0 35.05 41.45 34.15 44.1 30.7 Q47.2 26.95 47.2 26.25 44.95 23.2 44.95 22.3 44.95 21.7 46.1 20.5 47.05 19.55 47.2 18.9 L47.25 18.6 47.1 17.7 46.75 16.85 46.55 16.4 45.55 15.15 Q44.3 13.4 43.8 12.35 L42.55 9.75 41.75 7.75 41.8 7.35 41.9 7.4 Q42.0 6.85 42.9 6.65 43.95 6.35 43.95 7.1 L43.85 7.2 M54.2 8.05 L54.25 8.3 53.2 8.8 Q52.2 9.1 52.35 10.55 L52.25 11.75 52.1 12.9 52.35 13.4 52.55 14.0 52.55 14.1 Q52.45 14.3 52.0 14.5 51.2 14.5 51.05 13.6 L51.05 12.7 51.3 9.55 Q51.3 8.25 52.8 7.9 L54.2 8.05 M15.8 6.5 L17.35 4.95 Q20.45 1.8 20.45 3.65 L20.4 3.7 16.8 6.7 15.45 8.25 Q14.3 9.55 13.7 9.55 12.8 9.55 12.1 8.7 11.65 9.3 11.35 10.5 L10.95 12.35 9.6 14.1 Q8.05 15.55 6.65 15.55 5.25 15.55 5.25 14.85 5.25 14.45 5.65 14.45 L5.75 14.45 6.4 14.55 6.75 14.6 Q9.15 14.6 10.05 11.8 L10.25 11.2 10.25 11.1 Q10.75 8.95 11.35 8.1 11.7 7.55 12.05 7.55 12.4 7.55 12.9 8.05 L13.15 8.25 13.6 8.55 13.95 8.3 15.45 6.85 15.8 6.5" fill="#669966" fill-opacity="0.6156863" fill-rule="evenodd" stroke="none"/>
  </g>
</svg>