<?xml version="1.0" encoding="UTF-8" standalone="no"?>
<svg xmlns:xlink="http://www.w3.org/1999/xlink" height="8.3px" width="21.85px" xmlns="http://www.w3.org/2000/svg">
  <g id="shape0" transform="matrix(1.0, 0.0, 0.0, 1.0, 10.9, 4.15)">
    <path d="M3.25 -2.6 L3.7 -2.65 5.8 -3.0 6.6 -3.1 6.75 -3.15 7.1 -3.15 Q9.0 -3.25 9.95 -1.85 L8.7 -0.9 8.15 -0.5 7.65 -0.5 5.5 0.1 4.65 0.35 1.2 1.35 0.35 1.6 -0.6 1.85 -1.2 2.05 -2.2 2.3 -2.45 2.4 -3.3 2.6 -5.05 3.1 -6.4 3.15 Q-8.45 3.25 -9.9 2.0 L-9.65 0.9 -8.4 0.5 -6.7 -0.05 -6.25 -0.35 -5.75 -0.35 -4.55 -0.7 -4.25 -0.75 -3.0 -1.15 -2.6 -1.45 -2.0 -1.5 -0.65 -1.8 -0.15 -1.95 0.45 -2.05 1.25 -2.2 3.1 -2.55 3.25 -2.6" fill="#faf8f8" fill-rule="evenodd" stroke="none"/>
    <path d="M3.7 -2.65 L3.25 -2.6 M1.25 -2.2 L0.45 -2.05 M-0.65 -1.8 L-2.0 -1.5 M-4.25 -0.75 L-4.55 -0.7 M-8.4 0.5 L-9.65 0.9 -9.9 2.0 Q-8.45 3.25 -6.4 3.15 L-5.05 3.1 -3.3 2.6 M-2.45 2.4 L-2.2 2.3 M-1.2 2.05 L-0.6 1.85 M0.35 1.6 L1.2 1.35 M4.65 0.35 L5.5 0.1 M8.7 -0.9 L9.95 -1.85 Q9.0 -3.25 7.1 -3.15 M6.75 -3.15 L6.6 -3.1 5.8 -3.0" fill="none" stroke="#a36a6a" stroke-linecap="round" stroke-linejoin="round" stroke-opacity="0.6901961" stroke-width="1"/>
    <path d="M3.25 -2.6 L3.1 -2.55 1.25 -2.2 M0.45 -2.05 L-0.15 -1.95 -0.65 -1.8 M-2.0 -1.5 L-2.6 -1.45 -3.0 -1.15 -4.25 -0.75 M-4.55 -0.7 L-5.75 -0.35 -6.25 -0.35 -6.7 -0.05 -8.4 0.5 M7.65 -0.5 L8.15 -0.5 8.7 -0.9 M7.1 -3.15 L6.75 -3.15 M5.8 -3.0 L3.7 -2.65" fill="none" stroke="#a36a6a" stroke-linecap="round" stroke-linejoin="round" stroke-opacity="0.2627451" stroke-width="1"/>
    <path d="M-3.3 2.6 L-2.45 2.4 M-2.2 2.3 L-1.2 2.05 M-0.6 1.85 L0.35 1.6 M1.2 1.35 L4.65 0.35 M5.5 0.1 L7.65 -0.5" fill="none" stroke="#a36a6a" stroke-linecap="round" stroke-linejoin="round" stroke-opacity="0.09019608" stroke-width="1"/>
  </g>
</svg>