<?xml version="1.0" encoding="UTF-8" standalone="no"?>
<svg xmlns:xlink="http://www.w3.org/1999/xlink" height="19.85px" width="22.75px" xmlns="http://www.w3.org/2000/svg">
  <g id="shape0" transform="matrix(1.0, 0.0, 0.0, 1.0, 11.7, 10.15)">
    <path d="M9.6 -2.9 L9.65 -2.7 9.6 -2.4 9.45 -2.15 9.25 -1.9 9.6 -1.5 9.9 -1.0 9.9 -0.5 9.7 -0.25 Q9.45 0.0 9.65 0.25 10.25 1.1 10.0 2.1 L9.85 2.45 9.65 2.7 9.65 2.8 9.75 3.15 9.85 3.9 9.8 4.05 9.65 4.65 Q9.5 5.25 8.95 5.45 L8.35 5.6 8.3 5.6 8.2 6.25 7.9 6.65 7.45 6.95 6.9 7.15 6.75 7.15 Q6.6 7.2 6.55 7.05 L6.45 6.95 6.4 7.0 6.35 7.35 6.0 7.8 5.55 8.15 4.85 8.4 Q4.3 8.5 3.9 8.15 L3.75 7.95 3.7 7.85 3.4 8.0 3.0 8.35 1.5 8.7 0.55 8.65 0.2 8.35 0.2 8.25 0.15 8.25 0.0 8.45 -0.25 8.6 -0.8 8.65 -1.6 8.55 -2.7 7.9 -2.75 7.8 -2.75 7.75 -2.95 7.85 -3.3 7.9 -3.45 7.7 -3.5 7.35 -5.75 7.5 -6.2 7.3 -6.6 7.1 -6.9 6.9 -7.15 6.7 -7.25 6.1 -7.15 5.9 -7.75 5.9 -8.35 5.75 -9.05 5.45 -9.5 5.0 -9.5 4.9 -9.6 4.75 -9.75 3.6 -9.8 3.45 -9.95 3.25 -10.3 2.95 -10.6 2.35 -10.7 1.95 -10.5 1.5 -10.2 1.25 -9.85 1.1 -9.65 1.05 Q-10.2 0.2 -10.05 -0.8 L-9.6 -1.4 -9.25 -0.4 -8.75 0.1 -8.2 0.2 -7.75 0.1 -7.5 0.0 -7.6 0.25 -7.5 0.9 -7.25 1.75 -6.85 2.45 -6.1 3.05 -5.45 3.15 -4.85 3.0 -4.45 2.7 -4.4 3.65 -3.7 4.6 -3.1 4.9 -2.6 4.9 -2.35 4.8 -2.25 4.85 -2.05 5.05 -1.9 5.2 -1.75 5.5 -1.4 5.75 -0.95 5.85 -0.45 5.9 0.1 5.85 0.5 5.8 0.95 5.55 1.2 5.2 Q1.4 4.65 1.0 4.25 L1.65 4.35 2.55 4.4 3.35 4.2 3.7 3.9 3.8 3.7 4.1 2.5 4.3 2.55 4.75 2.65 5.4 2.65 5.8 2.45 6.05 2.2 6.15 1.5 6.15 1.45 7.25 1.65 8.1 1.45 Q8.45 1.4 8.6 1.15 9.25 0.3 9.0 -0.75 L8.8 -1.3 8.55 -1.75 8.5 -1.85 Q9.15 -1.8 9.45 -2.45 L9.6 -2.9 M2.25 -3.1 L2.45 -2.85 2.0 -2.5 1.85 -2.55 1.8 -2.65 2.25 -3.1 M6.5 -0.4 L6.8 -0.55 Q7.15 -0.6 7.3 -0.95 7.9 -1.7 7.9 -1.1 L7.7 -0.5 7.05 -0.05 Q6.5 -0.05 6.5 -0.4 M4.85 1.0 L4.55 1.8 Q4.15 2.45 3.55 2.45 L3.2 2.3 3.15 2.15 3.55 1.8 3.95 1.55 3.75 1.0 Q3.75 0.5 4.3 0.5 4.85 0.5 4.85 1.0 M0.15 3.75 Q-0.3 4.2 -0.85 4.2 -1.65 4.2 -2.15 3.45 L-1.8 3.15 -0.85 3.45 0.0 3.05 0.55 3.1 0.15 3.75 M0.3 0.2 Q-0.15 0.7 -0.7 0.7 -1.4 0.7 -1.35 0.4 L-1.0 0.1 0.25 -0.05 0.3 0.2" fill="#d6baba" fill-rule="evenodd" stroke="none"/>
    <path d="M2.9 -8.7 L2.95 -8.75 3.7 -8.9 4.95 -8.8 5.2 -8.7 5.65 -8.0 5.75 -8.0 6.2 -8.0 6.6 -7.95 Q7.35 -7.8 7.85 -7.2 L8.25 -6.6 8.25 -6.5 8.25 -6.25 8.75 -5.25 Q8.8 -4.9 8.45 -4.7 L8.3 -4.55 8.1 -4.45 Q8.55 -4.5 8.85 -4.1 L9.1 -3.75 9.35 -3.35 9.6 -2.9 9.45 -2.45 Q9.15 -1.8 8.5 -1.85 L8.55 -1.75 8.8 -1.3 9.0 -0.75 Q9.25 0.3 8.6 1.15 8.45 1.4 8.1 1.45 L7.25 1.65 6.15 1.45 6.15 1.5 6.05 2.2 5.8 2.45 5.4 2.65 4.75 2.65 4.3 2.55 4.1 2.5 3.8 3.7 3.7 3.9 3.35 4.2 2.55 4.4 1.65 4.35 1.0 4.25 Q1.4 4.65 1.2 5.2 L0.95 5.55 0.5 5.8 0.1 5.85 -0.45 5.9 -0.95 5.85 -1.4 5.75 -1.75 5.5 -1.9 5.2 -2.05 5.05 -2.25 4.85 -2.35 4.8 -2.6 4.9 -3.1 4.9 -3.7 4.6 -4.4 3.65 -4.45 2.7 -4.85 3.0 -5.45 3.15 -6.1 3.05 -6.85 2.45 -7.25 1.75 -7.5 0.9 -7.6 0.25 -7.5 0.0 -7.75 0.1 -8.2 0.2 -8.75 0.1 -9.25 -0.4 -9.6 -1.4 -9.35 -1.55 -8.9 -1.6 -8.75 -1.65 -8.7 -1.75 Q-8.8 -2.75 -8.15 -3.55 L-7.7 -4.0 -7.15 -4.15 -6.8 -4.2 -6.6 -4.25 -6.6 -4.3 -6.3 -5.2 -5.7 -5.9 -5.1 -6.4 -4.3 -6.45 -4.2 -6.5 -3.85 -7.05 -3.45 -7.55 -2.95 -7.95 -2.4 -8.1 -1.45 -8.0 -1.2 -7.95 -1.15 -8.0 -0.75 -8.7 -0.6 -8.85 -0.1 -8.9 0.05 -8.85 0.45 -8.75 0.5 -8.8 1.5 -9.1 1.95 -9.15 2.5 -8.9 2.7 -8.75 2.85 -8.7 2.9 -8.7 M6.5 -0.4 Q6.5 -0.05 7.05 -0.05 L7.7 -0.5 7.9 -1.1 Q7.9 -1.7 7.3 -0.95 7.15 -0.6 6.8 -0.55 L6.5 -0.4 M2.25 -3.1 L1.8 -2.65 1.85 -2.55 2.0 -2.5 2.45 -2.85 2.25 -3.1 M0.3 0.2 L0.25 -0.05 -1.0 0.1 -1.35 0.4 Q-1.4 0.7 -0.7 0.7 -0.15 0.7 0.3 0.2 M0.15 3.75 L0.55 3.1 0.0 3.05 -0.85 3.45 -1.8 3.15 -2.15 3.45 Q-1.65 4.2 -0.85 4.2 -0.3 4.2 0.15 3.75 M4.85 1.0 Q4.85 0.5 4.3 0.5 3.75 0.5 3.75 1.0 L3.95 1.55 3.55 1.8 3.15 2.15 3.2 2.3 3.55 2.45 Q4.15 2.45 4.55 1.8 L4.85 1.0" fill="#faf8f8" fill-rule="evenodd" stroke="none"/>
    <path d="M9.85 3.9 L9.8 4.05 9.65 4.65 Q9.5 5.25 8.95 5.45 L8.35 5.6 8.3 5.6 8.2 6.25 7.9 6.65 7.45 6.95 6.9 7.15 6.75 7.15 Q6.6 7.2 6.55 7.05 L6.45 6.95 6.4 7.0 6.35 7.35 6.0 7.8 5.55 8.15 4.85 8.4 Q4.3 8.5 3.9 8.15 L3.75 7.95 3.7 7.85 3.4 8.0 3.0 8.35 1.5 8.7 0.55 8.65 0.2 8.35 0.2 8.25 0.15 8.25 0.0 8.45 -0.25 8.6 -0.8 8.65 -1.6 8.55 -2.7 7.9 -2.75 7.8 -2.75 7.75 -2.95 7.85 -3.3 7.9 -3.45 7.7 -3.5 7.35 -5.75 7.5 -6.2 7.3 -6.6 7.1 -6.9 6.9 -7.15 6.7 -7.25 6.1 -7.15 5.9 -7.75 5.9 -8.35 5.75 -9.05 5.45 -9.5 5.0 -9.5 4.9 -9.6 4.75 -9.75 3.6 -9.8 3.45 -9.95 3.25 -10.3 2.95 -10.6 2.35 -10.7 1.95 -10.5 1.5 -10.2 1.25 -9.85 1.1 -9.65 1.05 Q-10.2 0.2 -10.05 -0.8 L-9.6 -1.4 -9.35 -1.55 -8.9 -1.6 -8.75 -1.65 -8.7 -1.75 Q-8.8 -2.75 -8.15 -3.55 L-7.7 -4.0 -7.15 -4.15 -6.8 -4.2 -6.6 -4.25 -6.6 -4.3 -6.3 -5.2 -5.7 -5.9 -5.1 -6.4 -4.3 -6.45 -4.2 -6.5 -3.85 -7.05 -3.45 -7.55 -2.95 -7.95 -2.4 -8.1 -1.45 -8.0 -1.2 -7.95 -1.15 -8.0 -0.75 -8.7 -0.6 -8.85 -0.1 -8.9 0.05 -8.85 0.45 -8.75 0.5 -8.8 1.5 -9.1 1.95 -9.15 2.5 -8.9 2.7 -8.75 2.85 -8.7 2.9 -8.7" fill="none" stroke="#a36a6a" stroke-linecap="round" stroke-linejoin="round" stroke-width="1"/>
  </g>
</svg>