<?xml version="1.0" encoding="UTF-8" standalone="no"?>
<svg xmlns:xlink="http://www.w3.org/1999/xlink" height="8.55px" width="10.1px" xmlns="http://www.w3.org/2000/svg">
  <g id="shape0" transform="matrix(1.0, 0.0, 0.0, 1.0, 5.05, 4.25)">
    <path d="M3.7 2.15 Q3.65 1.0 3.2 0.35 L2.5 -0.4 2.1 -1.0 Q1.85 -1.4 1.85 -0.75 L1.7 -0.2 1.45 1.25 1.65 1.8 Q1.4 0.9 0.65 0.05 L0.05 -0.55 0.8 -1.5 0.75 -1.65 -0.8 -0.3 -1.2 0.4 -1.2 0.55 -1.35 -0.1 -1.45 -0.2 -1.75 -0.05 -2.25 0.3 -1.9 0.05 -0.65 -1.0 Q-0.65 -1.7 -3.1 0.35 L-2.15 -1.4 -3.1 -0.8 -3.85 -0.35 -4.05 -0.3 -3.85 -0.55 -2.35 -2.05 Q-1.25 -2.9 0.05 -3.25 L0.9 -3.05 2.7 -2.05 3.55 -1.15 3.8 -0.8 3.95 -0.4 3.95 -0.25 Q4.2 0.85 3.75 2.05 L3.7 2.15 M-0.35 0.15 L-0.35 0.1 -0.3 0.05 -0.35 0.15 M1.75 3.1 L1.75 3.0 1.95 2.7 1.75 3.1" fill="#faf8f8" fill-rule="evenodd" stroke="none"/>
    <path d="M-1.2 0.55 L-1.2 0.4 -0.8 -0.3 0.75 -1.65 0.8 -1.5 0.05 -0.55 0.65 0.05 Q1.4 0.9 1.65 1.8 L1.45 1.25 1.7 -0.2 1.85 -0.75 Q1.85 -1.4 2.1 -1.0 L2.5 -0.4 3.2 0.35 Q3.65 1.0 3.7 2.15 L3.5 2.5 3.7 2.15 3.7 2.2 3.5 2.5 3.4 2.55 3.15 2.2 2.75 1.35 2.45 0.8 2.4 0.85 2.2 1.6 2.05 2.3 2.0 2.45 1.95 2.7 1.75 3.0 1.75 3.1 1.65 3.2 1.55 3.3 1.55 3.15 1.05 1.7 Q0.65 0.65 -0.25 0.0 L-0.3 0.0 -0.3 0.05 -0.35 0.1 -0.35 0.15 -0.7 0.75 -0.35 0.15 -0.35 0.2 -0.7 0.75 -0.95 1.35 -1.0 1.4 -1.05 1.35 -1.15 1.0 -1.2 0.55 M-3.1 0.35 Q-0.65 -1.7 -0.65 -1.0 L-1.9 0.05 -2.25 0.3 -3.35 1.0 -3.45 1.0 -3.45 0.9 -3.1 0.35 M1.75 3.1 L1.65 3.2 1.75 3.1" fill="#d6baba" fill-rule="evenodd" stroke="none"/>
    <path d="M3.7 2.15 L3.75 2.05 Q4.2 0.85 3.95 -0.25 L3.95 -0.4 3.8 -0.8 3.55 -1.15 M0.9 -3.05 L0.05 -3.25 Q-1.25 -2.9 -2.35 -2.05 L-3.85 -0.55 -4.05 -0.3 -3.85 -0.35 -3.1 -0.8 -2.15 -1.4 -3.1 0.35 -3.45 0.9 -3.45 1.0 -3.35 1.0 -2.25 0.3 -1.75 -0.05 -1.45 -0.2 -1.35 -0.1 -1.2 0.55 -1.15 1.0 -1.05 1.35 -1.05 1.45 -1.0 1.4 -0.95 1.35 -0.7 0.75 -0.35 0.15 -0.3 0.05 -0.3 0.0 -0.25 0.0 Q0.65 0.65 1.05 1.7 L1.55 3.15 1.55 3.3 1.65 3.2 1.75 3.1 1.95 2.7 2.0 2.45 2.05 2.3 2.2 1.6 2.4 0.85 2.45 0.8 2.75 1.35 3.15 2.2 3.4 2.55 3.5 2.5 3.7 2.15" fill="none" stroke="#a36a6a" stroke-linecap="round" stroke-linejoin="round" stroke-width="1"/>
  </g>
</svg>