<?xml version="1.0" encoding="UTF-8" standalone="no"?>
<svg xmlns:xlink="http://www.w3.org/1999/xlink" height="10.4px" width="14.95px" xmlns="http://www.w3.org/2000/svg">
  <g id="shape0" transform="matrix(1.0, 0.0, 0.0, 1.0, 7.45, 5.2)">
    <path d="M2.85 -3.6 L3.15 -3.85 3.85 -4.15 4.25 -4.2 5.95 -3.5 6.35 -3.25 6.4 -3.15 6.5 -2.8 4.9 -3.85 5.25 -3.5 Q5.75 -2.8 5.5 -2.2 L5.35 -2.3 Q4.95 -2.45 4.65 -2.7 L4.7 -1.6 3.35 -2.4 3.6 -1.85 Q4.05 -0.95 3.45 -0.35 L2.7 -1.2 1.65 -1.85 -0.05 -2.35 1.65 -1.85 2.15 -0.4 1.4 -0.85 0.2 -1.5 0.6 -0.25 Q0.8 0.7 0.4 0.95 0.0 -0.1 -1.05 -0.45 L-0.7 0.5 -0.7 1.25 -1.35 0.6 Q-2.3 -0.2 -3.25 -0.4 L-2.6 0.6 -3.35 0.25 -3.05 1.2 Q-3.5 0.6 -4.05 0.45 L-4.85 0.1 -5.85 0.25 -5.35 -0.3 Q-4.6 -1.3 -3.6 -1.15 L-2.85 -1.6 -1.4 -2.05 -0.05 -2.35 1.25 -3.15 2.85 -3.6 3.8 -3.4 4.45 -3.05 3.8 -3.4 2.85 -3.6 M-4.65 0.5 L-4.6 0.6 -5.6 0.85 -5.8 1.75 Q-5.75 2.45 -6.1 1.8 L-6.15 1.6 -5.95 0.75 -5.1 0.3 -4.65 0.5 M-1.55 -0.8 L-3.6 -1.15 -1.55 -0.8" fill="#faf8f8" fill-rule="evenodd" stroke="none"/>
    <path d="M1.65 -1.85 L2.7 -1.2 3.45 -0.35 Q4.05 -0.95 3.6 -1.85 L3.35 -2.4 4.7 -1.6 4.65 -2.7 Q4.95 -2.45 5.35 -2.3 L5.5 -2.2 Q5.75 -2.8 5.25 -3.5 L4.9 -3.85 6.5 -2.8 Q6.5 -1.65 6.1 -0.85 5.65 -0.05 5.05 -0.05 L4.2 0.55 2.4 1.3 1.65 2.05 0.05 2.45 -0.9 2.95 -2.55 3.8 -4.3 4.2 -5.1 3.7 -5.85 2.8 -6.45 1.2 -5.85 0.25 -4.85 0.1 -4.05 0.45 Q-3.5 0.6 -3.05 1.2 L-3.35 0.25 -2.6 0.6 -3.25 -0.4 Q-2.3 -0.2 -1.35 0.6 L-0.7 1.25 -0.7 0.5 -1.05 -0.45 Q0.0 -0.1 0.4 0.95 0.8 0.7 0.6 -0.25 L0.2 -1.5 1.4 -0.85 2.15 -0.4 1.65 -1.85 M5.25 -0.65 L5.05 -0.05 5.25 -0.65 4.7 -1.6 5.25 -0.65 Q5.7 -1.0 5.55 -1.6 L5.5 -2.2 5.55 -1.6 Q5.7 -1.0 5.25 -0.65 M2.2 0.3 L2.4 1.3 2.2 0.3 M-4.65 0.5 L-5.1 0.3 -5.95 0.75 -6.15 1.6 -6.1 1.8 Q-5.75 2.45 -5.8 1.75 L-5.6 0.85 -4.6 0.6 -4.65 0.5 M0.1 1.65 L0.05 2.45 0.1 1.65 M-0.9 1.75 L-0.7 1.25 -0.9 1.75 M-3.05 1.2 Q-2.45 2.45 -3.7 3.25 L-4.7 3.0 -4.9 2.8 Q-5.5 1.9 -5.05 1.05 L-4.9 1.0 -4.15 1.45 -4.9 1.0 -5.05 1.05 Q-5.5 1.9 -4.9 2.8 L-4.7 3.0 -3.7 3.25 Q-2.45 2.45 -3.05 1.2" fill="#d6baba" fill-rule="evenodd" stroke="none"/>
    <path d="M6.5 -2.8 L6.4 -3.15 6.35 -3.25 5.95 -3.5 4.25 -4.2 3.85 -4.15 3.15 -3.85 2.85 -3.6 3.8 -3.4 4.45 -3.05 M2.85 -3.6 L1.25 -3.15 -0.05 -2.35 1.65 -1.85 M2.7 -1.2 L3.45 -0.35 M6.5 -2.8 Q6.5 -1.65 6.1 -0.85 5.65 -0.05 5.05 -0.05 L4.2 0.55 2.4 1.3 1.65 2.05 0.05 2.45 -0.9 2.95 -2.55 3.8 -4.3 4.2 -5.1 3.7 -5.85 2.8 -6.45 1.2 -5.85 0.25 -5.35 -0.3 Q-4.6 -1.3 -3.6 -1.15 L-2.85 -1.6 -1.4 -2.05 -0.05 -2.35 M4.7 -1.6 L5.25 -0.65 Q5.7 -1.0 5.55 -1.6 L5.5 -2.2 M5.05 -0.05 L5.25 -0.65 M2.4 1.3 L2.2 0.3 M-3.05 1.2 Q-3.5 0.6 -4.05 0.45 L-4.85 0.1 -5.85 0.25 M-4.15 1.45 L-4.9 1.0 -5.05 1.05 Q-5.5 1.9 -4.9 2.8 L-4.7 3.0 -3.7 3.25 Q-2.45 2.45 -3.05 1.2 M-0.7 1.25 L-0.9 1.75 M0.05 2.45 L0.1 1.65 M-3.6 -1.15 L-1.55 -0.8" fill="none" stroke="#a36a6a" stroke-linecap="round" stroke-linejoin="round" stroke-width="1"/>
  </g>
</svg>