<?xml version="1.0" encoding="UTF-8" standalone="no"?>
<svg xmlns:xlink="http://www.w3.org/1999/xlink" height="8.15px" width="9.35px" xmlns="http://www.w3.org/2000/svg">
  <g id="shape0" transform="matrix(1.0, 0.0, 0.0, 1.0, 4.65, 4.1)">
    <path d="M-0.75 -3.0 L-0.7 -3.0 -0.15 -2.75 -0.7 -3.0 0.6 -3.1 0.0 -2.85 0.1 -2.65 0.0 -2.7 -0.15 -2.75 -0.85 -2.6 -1.4 -2.25 -1.45 -2.35 Q-1.7 -1.8 -2.3 -1.95 -2.55 -1.75 -2.4 -1.5 L-2.9 -1.1 -3.25 -0.65 -3.25 -0.5 -3.65 -0.6 -3.3 -1.7 -2.85 -2.55 -2.1 -2.65 -1.95 -2.75 -1.4 -3.1 -0.75 -3.0 M-1.55 -1.0 Q-1.55 -1.4 -0.9 -1.3 L-0.65 -1.4 Q-0.7 -1.7 -1.3 -1.7 L-1.25 -1.75 -0.6 -1.9 0.45 -2.45 1.5 -2.5 1.55 -2.45 1.6 -2.5 2.3 -2.75 3.05 -2.55 3.55 -1.55 3.3 -0.3 2.8 -0.95 2.35 -1.6 1.55 -2.45 2.35 -1.6 2.8 -0.95 2.85 -0.75 2.55 -1.3 2.45 0.05 1.55 -0.9 1.8 -0.35 1.85 0.85 1.65 0.45 Q1.45 -0.2 0.85 -0.5 L0.8 -0.45 0.85 0.2 0.5 0.0 0.15 -0.3 -0.7 -1.1 -1.55 -1.0 M-0.6 -1.9 L1.0 -1.3 1.55 -0.9 1.0 -1.3 -0.6 -1.9 M1.85 -0.1 L1.9 -0.05 1.9 0.0 1.85 -0.1 M-2.1 -2.65 L-1.45 -2.35 -2.1 -2.65" fill="#faf8f8" fill-rule="evenodd" stroke="none"/>
    <path d="M-0.15 -2.75 L0.0 -2.7 0.1 -2.65 0.0 -2.85 0.6 -3.1 1.25 -2.95 1.6 -2.5 1.5 -2.5 0.45 -2.45 -0.6 -1.9 -1.25 -1.75 -1.3 -1.7 Q-0.7 -1.7 -0.65 -1.4 L-0.9 -1.3 Q-1.55 -1.4 -1.55 -1.0 L-1.6 -0.95 Q-1.85 -1.4 -2.4 -1.5 -1.85 -1.4 -1.6 -0.95 L-1.55 -1.0 -0.7 -1.1 0.15 -0.3 0.5 0.0 0.85 0.2 0.8 -0.45 0.85 -0.5 Q1.45 -0.2 1.65 0.45 L1.85 0.85 1.8 -0.35 1.55 -0.9 2.45 0.05 2.55 -1.3 2.85 -0.75 2.8 -0.95 3.3 -0.3 3.55 -1.55 3.7 0.0 3.7 1.5 2.7 2.7 2.25 2.85 1.55 2.15 1.05 2.65 0.3 3.05 0.35 1.6 0.35 0.1 Q-0.2 -0.65 -1.1 -0.75 L-2.45 -0.85 -3.25 -0.65 -2.9 -1.1 -2.4 -1.5 Q-2.55 -1.75 -2.3 -1.95 -1.7 -1.8 -1.45 -2.35 L-1.4 -2.25 -0.85 -2.6 -0.15 -2.75 M0.1 -2.65 L0.45 -2.45 0.1 -2.65 M1.9 0.0 L1.9 -0.05 1.85 -0.1 1.9 0.0 1.95 0.8 1.95 1.1 1.55 2.15 1.95 1.1 1.95 0.8 1.9 0.0 M1.85 -0.1 L1.8 -0.35 1.85 -0.1 M2.25 2.85 L2.5 2.15 2.9 0.45 2.85 -0.75 2.9 0.45 2.5 2.15 2.25 2.85 M0.35 0.1 L0.15 -0.3 0.35 0.1" fill="#d6baba" fill-rule="evenodd" stroke="none"/>
    <path d="M-0.7 -3.0 L-0.75 -3.0 -0.7 -3.0 -0.15 -2.75 0.0 -2.7 0.1 -2.65 0.45 -2.45 1.5 -2.5 1.6 -2.5 1.25 -2.95 0.6 -3.1 -0.7 -3.0 M-1.4 -2.25 L-1.45 -2.35 -2.1 -2.65 -1.95 -2.75 -1.4 -3.1 -0.75 -3.0 M-2.4 -1.5 Q-1.85 -1.4 -1.6 -0.95 L-1.55 -1.0 -0.7 -1.1 0.15 -0.3 0.35 0.1 0.35 1.6 0.3 3.05 M-1.25 -1.75 L-0.6 -1.9 0.45 -2.45 M1.8 -0.35 L1.55 -0.9 1.0 -1.3 -0.6 -1.9 M1.6 -2.5 L2.3 -2.75 3.05 -2.55 3.55 -1.55 3.7 0.0 3.7 1.5 M-3.25 -0.65 L-3.25 -0.5 M-3.65 -0.6 L-3.3 -1.7 -2.85 -2.55 -2.1 -2.65 M1.5 -2.5 L1.55 -2.45 2.35 -1.6 2.8 -0.95 2.85 -0.75 2.9 0.45 2.5 2.15 2.25 2.85 M1.9 0.0 L1.95 0.8 1.95 1.1 1.55 2.15 M1.85 -0.1 L1.9 0.0 M1.8 -0.35 L1.85 -0.1 M-2.4 -1.5 L-2.9 -1.1 -3.25 -0.65" fill="none" stroke="#a36a6a" stroke-linecap="round" stroke-linejoin="round" stroke-width="1"/>
  </g>
</svg>