<?xml version="1.0" encoding="UTF-8" standalone="no"?>
<svg xmlns:xlink="http://www.w3.org/1999/xlink" height="5.75px" width="7.8px" xmlns="http://www.w3.org/2000/svg">
  <g id="shape0" transform="matrix(1.0, 0.0, 0.0, 1.0, 3.9, 2.9)">
    <path d="M-2.9 0.75 L1.05 -1.0 1.75 -1.3 2.9 -1.9 1.15 1.1 0.85 1.65 0.75 1.75 0.5 1.8 -1.65 1.55 -2.0 1.4 -2.9 0.75 M-0.7 1.2 L-0.3 0.8 0.1 0.35 0.75 -0.2 1.05 -0.4 0.75 -0.2 0.1 0.35 -0.3 0.8 -0.7 1.2" fill="#faf8f8" fill-rule="evenodd" stroke="none"/>
    <path d="M-2.9 0.75 L1.05 -1.0 1.75 -1.3 2.9 -1.9 1.15 1.1 0.85 1.65" fill="none" stroke="#a36a6a" stroke-linecap="round" stroke-linejoin="round" stroke-width="1"/>
    <path d="M1.05 -0.4 L0.75 -0.2 0.1 0.35 -0.3 0.8 -0.7 1.2" fill="none" stroke="#a36a6a" stroke-linecap="round" stroke-linejoin="round" stroke-opacity="0.44313726" stroke-width="1"/>
  </g>
</svg>