<?xml version="1.0" encoding="UTF-8" standalone="no"?>
<svg xmlns:xlink="http://www.w3.org/1999/xlink" height="5.8px" width="8.2px" xmlns="http://www.w3.org/2000/svg">
  <g id="shape0" transform="matrix(1.0, 0.0, 0.0, 1.0, 4.1, 2.9)">
    <path d="M-1.7 -0.35 L-2.6 -1.1 -2.65 -1.45 -2.45 -1.9 -1.45 -1.75 -0.85 -1.1 0.35 -1.3 0.75 -1.15 1.75 -0.1 Q2.2 0.75 3.1 0.85 L2.6 0.95 Q2.15 0.5 1.4 0.65 L-0.25 0.2 -1.1 -0.15 -1.7 -0.35 -1.1 -0.15 -0.25 0.2 1.4 0.65 Q2.15 0.5 2.6 0.95 L1.85 1.35 0.45 1.9 -0.9 1.5 -2.2 1.1 Q-3.35 0.6 -3.05 -0.25 L-1.7 -0.35" fill="#faf8f8" fill-rule="evenodd" stroke="none"/>
    <path d="M2.6 0.95 L3.1 0.85 Q2.2 0.75 1.75 -0.1 L0.75 -1.15 0.35 -1.3 -0.85 -1.1 -1.45 -1.75 -2.45 -1.9 -2.65 -1.45 -2.6 -1.1 -1.7 -0.35 -1.1 -0.15 -0.25 0.2 1.4 0.65 Q2.15 0.5 2.6 0.95 L1.85 1.35 0.45 1.9 -0.9 1.5 -2.2 1.1 Q-3.35 0.6 -3.05 -0.25 L-1.7 -0.35" fill="none" stroke="#a36a6a" stroke-linecap="round" stroke-linejoin="round" stroke-width="1"/>
  </g>
</svg>