<?xml version="1.0" encoding="UTF-8" standalone="no"?>
<svg xmlns:xlink="http://www.w3.org/1999/xlink" height="6.95px" width="5.9px" xmlns="http://www.w3.org/2000/svg">
  <g id="shape0" transform="matrix(1.0, 0.0, 0.0, 1.0, 2.95, 3.45)">
    <path d="M1.2 -2.1 L1.1 -1.7 0.95 0.05 0.85 0.75 0.7 1.25 0.2 1.05 -0.25 0.95 -1.0 0.7 -1.95 0.45 -1.0 0.7 -0.25 0.95 0.2 1.05 0.7 1.25 0.6 1.45 Q0.25 1.9 -1.15 1.9 L-1.35 1.9 -1.45 1.85 -1.45 1.8 -1.75 1.45 -1.85 1.3 -1.85 1.15 -1.95 0.45 -1.9 -0.2 -1.8 -0.8 -1.5 -1.95 -1.3 -2.45 -1.15 -2.3 -0.9 -2.0 -0.1 -1.9 1.2 -2.1 M1.5 -1.7 L1.55 -1.55 1.55 -1.6 1.5 -1.7 M1.9 -0.35 L1.95 -0.05 1.95 0.6 1.9 0.7 1.95 0.95 1.9 0.95 1.9 0.7 1.9 -0.35 M-0.15 -0.55 L0.2 -1.45 -0.15 -0.55" fill="#faf8f8" fill-rule="evenodd" stroke="none"/>
    <path d="M0.7 1.25 L0.85 0.75 0.95 0.05 1.1 -1.7 1.2 -2.1 1.45 -1.75 1.5 -1.7 1.55 -1.6 1.55 -1.55 1.6 -1.4 1.7 -1.2 1.8 -0.9 1.9 -0.4 1.9 -0.35 1.9 0.7 1.9 0.95 1.95 0.95 1.9 0.7 1.95 0.6 1.95 0.95 1.95 1.2 1.7 2.1 1.4 2.5 -1.0 2.1 -1.35 1.9 -1.15 1.9 Q0.25 1.9 0.6 1.45 L0.7 1.25 1.65 1.45 0.7 1.25" fill="#d6baba" fill-rule="evenodd" stroke="none"/>
    <path d="M-1.3 -2.45 L-1.5 -1.95 -1.8 -0.8 -1.9 -0.2 -1.95 0.45 -1.0 0.7 -0.25 0.95 0.2 1.05 0.7 1.25 1.65 1.45 M1.2 -2.1 L1.45 -1.75 1.5 -1.7 1.55 -1.55 M1.6 -1.4 L1.7 -1.2 1.8 -0.9 1.9 -0.4 1.9 -0.35 1.95 -0.05 1.95 0.6 1.95 0.95 1.95 1.2 1.7 2.1 1.4 2.5 M-1.45 1.85 L-1.45 1.8 -1.75 1.45 -1.85 1.3 -1.85 1.15 -1.95 0.45 M0.2 -1.45 L-0.15 -0.55" fill="none" stroke="#a36a6a" stroke-linecap="round" stroke-linejoin="round" stroke-width="1"/>
  </g>
</svg>