<?xml version="1.0" encoding="UTF-8" standalone="no"?>
<svg xmlns:xlink="http://www.w3.org/1999/xlink" height="5.15px" width="5.6px" xmlns="http://www.w3.org/2000/svg">
  <g id="shape0" transform="matrix(1.0, 0.0, 0.0, 1.0, 2.8, 2.55)">
    <path d="M-1.25 0.95 L-1.55 0.35 Q-2.05 -0.9 -1.55 -1.45 L0.55 -1.2 1.3 -0.75 0.7 -1.1 0.2 -0.7 -1.25 0.95" fill="#ffffff" fill-rule="evenodd" stroke="none"/>
    <path d="M-1.25 0.95 L0.2 -0.7 0.7 -1.1 1.3 -0.75 1.65 -0.55 1.7 -0.55 Q1.9 -0.45 1.7 0.2 L0.95 1.2 Q0.55 1.7 -0.3 1.6 L-0.35 1.6 -0.95 1.3 -1.25 0.95 M1.05 -0.05 Q0.65 -0.05 0.45 0.2 0.65 -0.05 1.05 -0.05" fill="#d6baba" fill-rule="evenodd" stroke="none"/>
    <path d="M1.3 -0.75 L0.55 -1.2 -1.55 -1.45 Q-2.05 -0.9 -1.55 0.35 L-1.25 0.95 -0.95 1.3 -0.35 1.6 -0.3 1.6 Q0.55 1.7 0.95 1.2 L1.7 0.2 Q1.9 -0.45 1.7 -0.55 L1.65 -0.55 1.3 -0.75 M0.45 0.2 Q0.65 -0.05 1.05 -0.05" fill="none" stroke="#a36a6a" stroke-linecap="round" stroke-linejoin="round" stroke-width="1"/>
  </g>
</svg>