<?xml version="1.0" encoding="UTF-8" standalone="no"?>
<svg xmlns:xlink="http://www.w3.org/1999/xlink" height="15.95px" width="21px" xmlns="http://www.w3.org/2000/svg">
  <g transform="matrix(1.0, 0.0, 0.0, 1.0, 10.5, 8)">
    <path d="M6.5 -5.75 Q3.65 -4.6 1.75 -2.65 -0.15 -0.75 -0.15 -0.35 L1.65 -1.55 3.5 -2.85 3.25 -2.65 3.0 -2.25 5.25 -2.55 2.25 -0.75 Q-1.9 2.0 -2.15 4.7 -4.4 3.6 -4.8 4.9 -3.95 1.1 -3.15 0.0 -4.5 0.55 -6.7 3.3 L-8.35 5.85 -8.4 5.85 -9.5 6.95 Q-8.65 -1.45 -2.25 -7.0 L-3.7 -2.95 -4.1 -1.6 Q0.35 -4.55 6.5 -5.75" fill="#ffffff" fill-rule="evenodd" stroke="none"/>
    <path d="M3.5 -2.85 L1.65 -1.55 -0.15 -0.35 Q-0.15 -0.75 1.75 -2.65 3.65 -4.6 6.5 -5.75 L7.3 -5.9 8.0 -5.95 3.5 -2.85 M-8.35 5.85 L-6.7 3.3 Q-4.5 0.55 -3.15 0.0 -3.95 1.1 -4.8 4.9 L-6.35 4.5 -6.55 4.6 -6.65 4.65 -8.35 5.85 M-2.15 4.7 Q-1.9 2.0 2.25 -0.75 L5.25 -2.55 9.5 -3.1 9.25 -3.0 7.7 -2.4 9.25 -3.0 7.8 -2.4 7.7 -2.4 Q4.0 -0.6 1.85 3.2 3.55 3.75 5.2 4.8 L6.0 5.5 0.25 5.85 -0.85 4.85 -2.15 4.7" fill="#d6baba" fill-rule="evenodd" stroke="none"/>
    <path d="M6.5 -5.75 Q0.35 -4.55 -4.1 -1.6 L-3.7 -2.95 -2.25 -7.0 Q-8.65 -1.45 -9.5 6.95 M-8.4 5.85 L-8.35 5.85 M5.25 -2.55 L3.0 -2.25 3.25 -2.65 3.5 -2.85 8.0 -5.95 7.3 -5.9 6.5 -5.75 M7.7 -2.4 Q4.0 -0.6 1.85 3.2 3.55 3.75 5.2 4.8 L6.0 5.5 0.25 5.85 M9.25 -3.0 L9.5 -3.1 5.25 -2.55 M7.7 -2.4 L9.25 -3.0" fill="none" stroke="#660000" stroke-linecap="round" stroke-linejoin="round" stroke-opacity="0.49803922" stroke-width="1"/>
    <path d="M-9.5 6.95 L-8.4 5.85 M-4.8 4.9 Q-4.4 3.6 -2.15 4.7 L-0.85 4.85 0.25 5.85 M-4.8 4.9 L-6.35 4.5 -6.55 4.6 -6.65 4.65 -8.35 5.85" fill="none" stroke="#660000" stroke-linecap="round" stroke-linejoin="round" stroke-opacity="0.2509804" stroke-width="1"/>
  </g>
</svg>