<?xml version="1.0" encoding="UTF-8" standalone="no"?>
<svg xmlns:xlink="http://www.w3.org/1999/xlink" height="9.75px" width="8.25px" xmlns="http://www.w3.org/2000/svg">
  <g transform="matrix(1.0, 0.0, 0.0, 1.0, 4.1, 4.85)">
    <path d="M-0.95 -3.8 L-0.8 -3.85 -0.15 -3.05 Q1.8 -0.65 2.9 2.3 L3.1 2.95 Q3.4 4.05 2.25 3.9 L1.45 3.55 1.1 3.35 0.65 2.95 0.35 2.7 0.35 2.6 0.6 0.45 -0.7 -1.25 Q-1.75 -2.55 -1.95 -3.55 L-1.35 -3.75 -1.3 -3.75 -1.05 -3.8 -0.95 -3.8" fill="#d6baba" fill-rule="evenodd" stroke="none"/>
    <path d="M-1.35 -3.75 L-1.95 -3.55 Q-1.75 -2.55 -0.7 -1.25 L0.6 0.45 0.35 2.6 0.35 2.7 -0.4 1.9 -0.95 1.35 -1.5 0.75 Q-2.5 -0.45 -2.85 -2.05 L-2.85 -2.1 -3.1 -3.0 -1.35 -3.75" fill="#ffffff" fill-rule="evenodd" stroke="none"/>
    <path d="M0.35 2.7 L0.65 2.95 1.1 3.35 1.45 3.55 2.25 3.9 Q3.4 4.05 3.1 2.95 L2.9 2.3 Q1.8 -0.65 -0.15 -3.05 L-0.8 -3.85 -0.95 -3.8 M0.35 2.7 L-0.4 1.9 -0.95 1.35 -1.5 0.75 Q-2.5 -0.45 -2.85 -2.05 L-2.85 -2.1 -3.1 -3.0" fill="none" stroke="#660000" stroke-linecap="round" stroke-linejoin="round" stroke-opacity="0.49803922" stroke-width="1"/>
  </g>
</svg>