<?xml version="1.0" encoding="UTF-8" standalone="no"?>
<svg xmlns:xlink="http://www.w3.org/1999/xlink" height="12.6px" width="10.15px" xmlns="http://www.w3.org/2000/svg">
  <g transform="matrix(1.0, 0.0, 0.0, 1.0, 5.55, 7.25)">
    <path d="M-0.8 -0.95 Q1.4 -2.4 2.65 -4.15 L2.75 -4.35 3.1 -4.05 Q3.8 -2.5 3.55 -0.75 L3.1 1.1 Q2.45 2.8 0.95 3.7 -0.5 4.6 -2.35 4.25 L-3.65 2.75 Q-3.3 1.55 -2.55 0.65 L-2.55 1.25 -2.05 2.15 -1.6 2.4 Q-0.9 2.55 -0.5 2.0 L-0.1 1.25 Q0.2 0.35 -0.25 -0.35 L-0.8 -0.95" fill="#ffffcc" fill-rule="evenodd" stroke="none"/>
    <path d="M-2.55 0.65 L-2.25 0.25 -0.8 -0.95 -0.25 -0.35 Q0.2 0.35 -0.1 1.25 L-0.5 2.0 Q-0.9 2.55 -1.6 2.4 L-2.05 2.15 -2.55 1.25 -2.55 0.65" fill="#cc0000" fill-rule="evenodd" stroke="none"/>
    <path d="M-0.8 -0.95 Q1.4 -2.4 2.65 -4.15 L2.75 -4.35 3.1 -4.05 Q3.8 -2.5 3.55 -0.75 L3.1 1.1 Q2.45 2.8 0.95 3.7 -0.5 4.6 -2.35 4.25 L-3.65 2.75 Q-3.3 1.55 -2.55 0.65 L-2.25 0.25 -0.8 -0.95 -0.25 -0.35 Q0.2 0.35 -0.1 1.25 L-0.5 2.0 Q-0.9 2.55 -1.6 2.4 L-2.05 2.15 -2.55 1.25 -2.55 0.65" fill="none" stroke="#660000" stroke-linecap="round" stroke-linejoin="round" stroke-opacity="0.4" stroke-width="1"/>
    <path d="M-4.55 -1.15 L-1.75 -3.75 -0.15 -4.95 2.2 -6.25" fill="none" stroke="#660000" stroke-linecap="round" stroke-linejoin="round" stroke-opacity="0.49803922" stroke-width="1"/>
  </g>
</svg>