<?xml version="1.0" encoding="UTF-8" standalone="no"?>
<svg xmlns:xlink="http://www.w3.org/1999/xlink" height="22.3px" width="8.05px" xmlns="http://www.w3.org/2000/svg">
  <g transform="matrix(1.0, 0.0, 0.0, 1.0, 4.05, 11.15)">
    <path d="M-2.95 -1.45 L-2.4 -2.15 -1.35 -3.7 Q-0.9 -4.55 -0.75 -5.45 -0.5 -7.0 0.45 -8.4 L1.2 -9.45 Q1.75 -10.1 2.7 -10.15 L1.95 -8.5 Q1.45 -7.0 1.35 -5.4 L-0.15 -3.65 Q-1.1 -2.35 -2.95 -1.15 L-2.95 -0.2 -3.0 -0.2 -2.95 -1.45" fill="#ffffff" fill-rule="evenodd" stroke="none"/>
    <path d="M1.35 -5.4 L1.3 -5.3 1.3 -5.05 1.25 -4.1 Q1.25 -2.8 1.6 -1.65 L2.4 1.0 Q3.1 3.25 2.95 5.55 L2.65 9.45 2.45 10.15 Q2.25 8.65 1.5 7.35 L-0.35 4.7 Q-1.55 3.25 -3.05 2.5 L-3.0 -0.2 -2.95 -0.2 -2.95 -1.15 Q-1.1 -2.35 -0.15 -3.65 L1.35 -5.4" fill="#d6baba" fill-rule="evenodd" stroke="none"/>
    <path d="M-2.95 -1.45 L-2.4 -2.15 -1.35 -3.7 Q-0.9 -4.55 -0.75 -5.45 -0.5 -7.0 0.45 -8.4 L1.2 -9.45 Q1.75 -10.1 2.7 -10.15 L1.95 -8.5 Q1.45 -7.0 1.35 -5.4 L1.3 -5.3 1.3 -5.05 1.25 -4.1 Q1.25 -2.8 1.6 -1.65 L2.4 1.0 Q3.1 3.25 2.95 5.55 L2.65 9.45 2.45 10.15 Q2.25 8.65 1.5 7.35 L-0.35 4.7 Q-1.55 3.25 -3.05 2.5" fill="none" stroke="#660000" stroke-linecap="round" stroke-linejoin="round" stroke-opacity="0.49803922" stroke-width="1"/>
  </g>
</svg>