<?xml version="1.0" encoding="UTF-8" standalone="no"?>
<svg xmlns:xlink="http://www.w3.org/1999/xlink" height="17.05px" width="49.65px" xmlns="http://www.w3.org/2000/svg">
  <g transform="matrix(1.0, 0.0, 0.0, 1.0, 24.85, 8.55)">
    <path d="M9.45 -5.9 Q17.65 -8.1 17.65 -7.35 17.65 -7.1 16.45 -6.05 L15.15 -5.05 15.0 -4.95 19.55 -5.05 23.25 -5.45 23.7 -5.4 23.8 -5.05 Q23.8 -4.65 19.6 -3.7 L14.4 -2.55 Q15.4 -2.05 16.1 -1.35 16.85 -0.65 16.85 -0.15 16.85 0.25 16.1 0.15 14.9 0.05 13.7 0.95 12.9 1.65 12.4 2.6 L12.4 2.65 14.65 2.4 17.1 2.8 17.1 3.1 16.9 3.15 16.25 3.05 14.55 2.9 12.5 3.2 12.05 3.35 11.35 4.5 11.25 4.65 12.0 4.45 15.55 4.0 17.9 4.25 19.1 4.65 18.9 4.85 17.7 4.65 12.8 4.95 11.15 5.2 Q10.7 5.45 10.2 5.65 13.9 6.55 13.9 7.05 13.9 7.5 13.5 7.5 L11.95 7.4 9.75 7.35 8.8 7.45 8.6 7.4 8.55 7.25 9.15 6.95 10.9 6.8 8.05 6.1 3.3 5.4 0.85 5.35 -3.3 5.8 Q-3.9 6.05 -4.25 6.25 L-4.6 5.95 -4.05 5.4 -3.85 5.25 -3.95 5.1 Q-3.95 4.8 -1.65 1.45 L1.65 -3.05 Q2.85 -4.35 9.45 -5.9 M4.6 -3.65 Q2.5 -2.6 0.25 0.65 L-0.15 1.25 -0.05 1.9 Q-0.05 3.15 0.65 3.8 L1.2 4.45 5.95 4.75 8.4 5.25 9.05 4.6 9.3 4.05 Q9.95 2.7 9.95 1.45 9.95 -0.25 8.95 -1.55 7.55 -3.45 4.6 -3.65 M5.95 -4.1 Q8.4 -4.0 9.75 -1.6 10.65 0.05 10.65 1.45 L10.55 2.85 10.6 2.8 Q12.9 0.0 12.9 -1.25 12.9 -2.15 10.35 -3.2 8.0 -4.15 6.55 -4.15 L5.95 -4.1 M-21.95 -5.35 L-21.35 -5.75 -20.1 -3.0 -18.5 0.1 Q-17.7 1.7 -17.35 3.1 -17.0 4.5 -17.0 4.85 L-17.05 5.05 -18.1 3.8 -18.0 5.15 Q-17.65 5.25 -17.65 5.45 -17.65 5.75 -18.2 5.85 L-19.7 6.2 -21.5 6.8 -21.9 6.7 -21.7 6.35 Q-23.8 4.65 -23.8 2.6 L-23.85 1.45 -23.6 0.25 -22.5 -1.4 Q-23.1 -4.4 -21.95 -5.35 M-21.85 -1.35 L-22.3 -0.5 -22.9 0.6 -23.1 2.55 Q-23.1 3.45 -22.35 4.6 -21.55 5.8 -20.85 5.8 L-19.95 5.45 Q-19.25 5.1 -18.5 5.1 L-18.9 2.05 -18.9 1.95 -19.8 -0.1 Q-20.6 -1.65 -21.35 -1.75 L-21.85 -1.6 -21.85 -1.35 M-2.7 4.7 L0.15 4.45 -0.25 3.75 -0.6 2.6 -0.5 1.75 -2.7 4.7" fill="#9d6060" fill-rule="evenodd" stroke="none"/>
  </g>
</svg>