<?xml version="1.0" encoding="UTF-8" standalone="no"?>
<svg xmlns:xlink="http://www.w3.org/1999/xlink" height="7.4px" width="39px" xmlns="http://www.w3.org/2000/svg">
  <g transform="matrix(1.0, 0.0, 0.0, 1.0, 24.2, 1.6)">
    <path d="M13.15 2.1 L11.2 3.2 9.8 4.25 Q8.9 4.8 7.2 4.8 L4.45 4.55 2.05 4.35 0.1 4.35 -1.7 4.4 -1.45 4.45 Q-3.35 4.45 -3.35 3.95 L-1.2 2.7 Q0.85 1.45 0.85 1.1 5.25 -0.95 7.6 -0.5 L12.85 0.15 Q13.8 0.55 13.8 1.2 13.8 1.75 13.15 2.1 M5.85 3.45 Q9.65 3.45 9.65 2.0 9.65 1.6 7.4 1.75 L3.15 1.95 1.65 1.85 1.65 2.2 Q1.65 3.45 5.85 3.45 M-18.65 2.35 L-18.6 2.4 -17.05 3.75 -17.25 4.0 -17.85 4.15 -18.7 4.1 -18.9 4.15 -19.25 4.35 -19.6 4.45 -19.75 4.35 -20.5 4.55 -20.85 4.55 -21.35 4.4 -21.5 4.05 -22.4 3.6 -23.2 2.25 Q-23.2 1.6 -22.6 0.95 -21.85 0.1 -20.75 0.1 -20.1 0.1 -19.35 0.95 -18.65 1.7 -18.65 2.1 L-18.65 2.35 M-19.35 1.85 L-19.3 1.85 -19.35 1.85 M-19.95 3.35 Q-18.8 3.35 -18.8 2.6 -18.8 2.2 -20.5 2.1 -22.25 2.0 -22.25 2.55 -22.25 3.35 -19.95 3.35" fill="#ff0000" fill-rule="evenodd" stroke="none"/>
    <path d="M5.85 3.45 Q1.65 3.45 1.65 2.2 L1.65 1.85 3.15 1.95 7.4 1.75 Q9.65 1.6 9.65 2.0 9.65 3.45 5.85 3.45 M-19.95 3.35 Q-22.25 3.35 -22.25 2.55 -22.25 2.0 -20.5 2.1 -18.8 2.2 -18.8 2.6 -18.8 3.35 -19.95 3.35" fill="#ff00ff" fill-rule="evenodd" stroke="none"/>
  </g>
</svg>