<?xml version="1.0" encoding="UTF-8" standalone="no"?>
<svg xmlns:xlink="http://www.w3.org/1999/xlink" height="53.8px" width="59.75px" xmlns="http://www.w3.org/2000/svg">
  <g transform="matrix(1.0, 0.0, 0.0, 1.0, 29.85, 26.9)">
    <path d="M-0.7 23.35 L0.75 25.9 -3.35 20.8 Q-5.9 18.05 -7.8 17.85 L-8.35 17.65 -10.4 17.1 -12.45 16.55 -13.85 16.25 -15.65 15.85 -18.2 15.6 -19.35 15.5 -25.35 15.4 -23.65 13.9 -24.75 14.15 -24.8 14.15 -27.3 14.7 -26.85 13.75 -25.7 11.85 -25.35 11.35 -27.75 12.5 -28.85 13.3 Q-28.3 10.35 -26.85 9.0 L-25.55 7.7 -27.55 8.45 -28.6 9.0 Q-27.45 6.3 -25.85 5.2 L-25.6 5.0 -25.15 4.75 -23.1 3.2 -23.5 0.8 -23.5 -0.45 -23.5 -0.8 -23.5 -1.05 -24.05 -2.75 -24.25 -4.3 Q-24.65 -7.95 -22.8 -11.9 -22.15 -13.45 -21.15 -14.65 -20.0 -16.2 -18.1 -17.3 -15.05 -19.75 -10.15 -20.6 -11.2 -21.6 -15.1 -22.45 L-8.65 -22.7 -4.35 -22.2 Q-5.15 -22.95 -5.5 -24.15 L-6.15 -25.9 -3.95 -24.9 Q-1.8 -24.0 2.6 -22.6 L7.95 -20.8 Q7.7 -21.5 7.85 -23.3 L9.1 -21.75 Q10.45 -20.05 11.1 -19.75 14.85 -18.05 16.6 -16.95 L18.15 -15.9 20.7 -13.9 23.55 -11.0 23.7 -10.65 Q24.85 -9.0 25.65 -5.65 26.45 -1.3 25.85 3.0 L25.6 4.6 26.35 5.75 27.8 7.95 28.9 9.55 Q25.95 8.45 23.1 7.9 L21.4 7.45 23.3 11.1 Q23.45 11.15 24.65 11.75 25.85 12.15 25.25 12.1 L23.75 11.9 Q22.95 11.9 19.35 12.85 L19.05 12.8 Q21.0 14.7 23.5 16.0 L18.8 16.2 12.5 16.1 12.45 16.1 12.3 15.65 12.05 15.45 11.9 15.4 13.3 15.0 20.45 15.25 17.65 12.85 Q16.15 11.5 14.95 11.2 L18.0 11.45 20.4 11.05 19.65 10.8 16.95 9.5 Q15.45 8.65 12.9 7.75 14.45 7.7 17.9 8.9 L21.5 10.15 20.45 6.65 Q23.55 7.1 26.6 7.95 L25.2 5.75 24.4 4.0 24.3 3.45 24.7 3.75 Q25.85 -0.85 24.9 -5.65 24.45 -7.35 23.55 -8.85 L23.3 -9.35 Q21.25 -12.5 17.5 -15.1 L10.1 -19.15 Q9.85 -18.7 10.5 -17.9 L7.9 -19.15 Q4.95 -20.7 2.65 -21.4 -1.5 -22.4 -4.05 -23.7 L-2.9 -22.25 -1.7 -21.05 -4.45 -21.35 -10.0 -21.7 Q-7.65 -20.6 -5.3 -19.55 L-10.65 -19.3 Q-13.95 -19.3 -18.2 -15.65 -20.95 -13.65 -22.15 -11.1 -22.85 -9.9 -23.1 -8.35 -23.85 -5.55 -22.6 -1.1 L-22.6 -1.05 -22.5 -1.05 -22.55 -0.45 -22.65 0.85 -22.25 3.55 -21.9 3.8 -23.75 5.0 -27.15 7.6 -24.2 7.0 -27.45 10.95 -28.0 12.0 Q-27.25 11.3 -26.8 11.15 L-25.2 10.75 -24.0 10.45 -24.75 11.55 -26.2 13.65 -24.75 13.2 -21.9 13.0 -22.25 13.3 -23.3 14.6 -19.35 14.5 Q-14.25 14.5 -8.3 16.6 L-7.8 16.8 Q-4.1 18.05 -1.15 22.6 L-0.7 23.35 M8.7 16.9 L13.05 19.1 14.35 19.65 13.0 19.5 9.95 19.2 4.6 18.05 Q7.2 19.75 8.2 20.95 L5.65 19.5 5.7 19.5 -2.0 15.1 Q-0.6 14.6 3.4 17.15 L3.75 17.45 3.9 17.45 3.75 17.35 4.15 17.05 8.7 17.65 8.75 17.6 6.2 16.3 Q4.9 15.7 3.95 14.95 L4.0 14.75 Q5.05 15.15 7.9 16.5 L8.3 16.75 8.7 16.9 M2.3 22.9 L2.7 23.6 -0.25 19.9 -0.35 19.8 -1.4 18.4 -2.35 16.7 Q-1.2 17.0 0.05 18.85 L0.85 20.1 2.3 22.9" fill="#a36a6a" fill-rule="evenodd" stroke="none"/>
    <path d="M-22.15 -11.1 Q-20.95 -13.65 -18.2 -15.65 -13.95 -19.3 -10.65 -19.3 L-5.3 -19.55 Q-7.65 -20.6 -10.0 -21.7 L-4.45 -21.35 -1.7 -21.05 -2.9 -22.25 -4.05 -23.7 Q-1.5 -22.4 2.65 -21.4 4.95 -20.7 7.9 -19.15 L10.5 -17.9 Q9.85 -18.7 10.1 -19.15 L17.5 -15.1 16.5 -13.65 Q15.0 -12.05 13.15 -11.55 L13.1 -11.7 13.25 -11.95 13.35 -12.25 13.35 -12.75 Q13.5 -13.35 13.1 -13.35 L12.95 -12.95 12.45 -12.45 10.35 -10.7 Q8.65 -9.35 6.7 -8.55 L5.5 -7.95 Q3.65 -6.85 1.6 -6.5 0.75 -6.45 0.6 -6.8 L0.8 -6.95 0.9 -7.2 1.2 -7.6 1.35 -7.85 Q1.7 -8.3 1.15 -8.7 1.0 -8.55 0.75 -8.5 -0.4 -7.95 -1.15 -7.2 -4.25 -4.65 -8.2 -4.35 L-8.7 -4.3 -8.75 -4.5 -8.6 -5.05 Q-8.25 -6.25 -8.7 -7.65 L-8.9 -7.6 Q-10.0 -7.2 -10.85 -6.3 L-12.2 -5.4 -12.35 -5.55 -12.4 -5.95 -12.65 -6.55 -13.25 -7.65 -13.35 -7.6 -14.55 -3.05 -14.7 -2.8 -14.85 -3.05 -16.0 -4.3 -16.4 -5.05 Q-16.8 -6.0 -17.35 -6.3 L-17.25 -5.95 -17.7 -4.65 -17.85 -5.0 -18.05 -5.35 -18.4 -6.3 -19.35 -9.2 Q-20.8 -7.5 -21.35 -5.25 -21.35 -6.15 -21.65 -7.1 -22.15 -8.7 -22.2 -10.4 L-22.15 -11.1" fill="url(#gradient0)" fill-rule="evenodd" stroke="none"/>
    <path d="M12.5 16.1 L12.5 16.15 10.8 16.55 8.7 16.9 8.3 16.75 7.9 16.5 Q5.05 15.15 4.0 14.75 L3.95 14.95 Q4.9 15.7 6.2 16.3 L8.75 17.6 8.7 17.65 4.15 17.05 3.75 17.35 3.75 17.45 3.4 17.15 Q-0.6 14.6 -2.0 15.1 L5.7 19.5 5.65 19.5 4.45 19.25 2.35 18.9 2.45 21.4 2.3 22.9 0.85 20.1 0.05 18.85 Q-1.2 17.0 -2.35 16.7 L-1.4 18.4 -0.35 19.8 -0.25 19.9 -0.35 19.85 -1.35 19.15 Q-1.05 19.65 -0.9 20.55 L-0.75 22.1 -0.7 23.35 -1.15 22.6 Q-4.1 18.05 -7.8 16.8 L-8.3 16.6 Q-14.25 14.5 -19.35 14.5 L-23.3 14.6 -22.25 13.3 -21.9 13.0 -24.75 13.2 -26.2 13.65 -24.75 11.55 -24.15 11.5 -18.1 11.6 -17.2 11.6 -11.25 12.2 -9.85 12.45 -7.8 12.85 Q-5.0 12.65 -1.85 13.6 0.1 14.05 2.15 14.85 L3.2 14.75 Q1.95 13.3 0.5 12.0 -1.25 10.5 -2.95 9.7 L-0.7 10.25 4.0 11.7 Q5.45 12.15 6.7 12.9 7.6 13.3 7.25 12.75 5.75 10.9 3.95 9.4 8.0 10.05 12.25 12.2 L9.55 9.9 4.1 5.9 2.75 4.95 2.5 4.7 7.2 5.0 0.95 3.45 -4.2 3.65 -7.8 5.05 -10.7 5.55 Q-15.75 6.25 -20.35 3.25 L-22.25 3.55 -22.65 0.85 -22.55 -0.45 -22.5 -1.05 -22.6 -1.05 -22.6 -1.1 Q-23.85 -5.55 -23.1 -8.35 -22.85 -9.9 -22.15 -11.1 L-22.2 -10.4 Q-22.15 -8.7 -21.65 -7.1 -21.35 -6.15 -21.35 -5.25 -20.8 -7.5 -19.35 -9.2 L-18.4 -6.3 -18.05 -5.35 -17.85 -5.0 -17.7 -4.65 -17.25 -5.95 -17.35 -6.3 Q-16.8 -6.0 -16.4 -5.05 L-16.0 -4.3 -14.85 -3.05 -14.7 -2.8 -14.55 -3.05 -13.35 -7.6 -13.25 -7.65 -12.65 -6.55 -12.4 -5.95 -12.35 -5.55 -12.2 -5.4 -10.85 -6.3 Q-10.0 -7.2 -8.9 -7.6 L-8.7 -7.65 Q-8.25 -6.25 -8.6 -5.05 L-8.75 -4.5 -8.7 -4.3 -8.2 -4.35 Q-4.25 -4.65 -1.15 -7.2 -0.4 -7.95 0.75 -8.5 1.0 -8.55 1.15 -8.7 1.7 -8.3 1.35 -7.85 L1.2 -7.6 0.9 -7.2 0.8 -6.95 0.6 -6.8 Q0.75 -6.45 1.6 -6.5 3.65 -6.85 5.5 -7.95 L6.7 -8.55 Q8.65 -9.35 10.35 -10.7 L12.45 -12.45 12.95 -12.95 13.1 -13.35 Q13.5 -13.35 13.35 -12.75 L13.35 -12.25 13.25 -11.95 13.1 -11.7 13.15 -11.55 Q15.0 -12.05 16.5 -13.65 L17.5 -15.1 Q21.25 -12.5 23.3 -9.35 L23.55 -8.85 Q24.45 -7.35 24.9 -5.65 25.85 -0.85 24.7 3.75 L24.3 3.45 24.4 4.0 25.2 5.75 26.6 7.95 Q23.55 7.1 20.45 6.65 L21.5 10.15 17.9 8.9 Q14.45 7.7 12.9 7.75 15.45 8.65 16.95 9.5 L19.65 10.8 20.4 11.05 18.0 11.45 14.95 11.2 Q16.15 11.5 17.65 12.85 L20.45 15.25 13.3 15.0 11.9 15.4 11.95 15.45 12.05 15.45 12.3 15.65 12.45 16.1 12.5 16.1 M10.1 16.0 L9.95 16.0 9.95 16.05 10.1 16.0" fill="#e0cbcb" fill-rule="evenodd" stroke="none"/>
    <path d="M-24.75 11.55 L-24.0 10.45 -25.2 10.75 -26.8 11.15 Q-27.25 11.3 -28.0 12.0 L-27.45 10.95 -24.2 7.0 -27.15 7.6 -23.75 5.0 -21.9 3.8 -22.25 3.55 -20.35 3.25 Q-15.75 6.25 -10.7 5.55 L-7.8 5.05 -4.2 3.65 0.95 3.45 7.2 5.0 2.5 4.7 2.75 4.95 4.1 5.9 9.55 9.9 12.25 12.2 Q8.0 10.05 3.95 9.4 5.75 10.9 7.25 12.75 7.6 13.3 6.7 12.9 5.45 12.15 4.0 11.7 L-0.7 10.25 -2.95 9.7 Q-1.25 10.5 0.5 12.0 1.95 13.3 3.2 14.75 L2.15 14.85 Q0.1 14.05 -1.85 13.6 -5.0 12.65 -7.8 12.85 L-9.85 12.45 -11.25 12.2 -17.2 11.6 -18.1 11.6 -24.15 11.5 -24.75 11.55" fill="url(#gradient1)" fill-rule="evenodd" stroke="none"/>
  </g>
  <defs>
    <radialGradient cx="0" cy="0" gradientTransform="matrix(0.051, -0.009, 0.0026, 0.0247, -11.55, -26.35)" gradientUnits="userSpaceOnUse" id="gradient0" r="819.2" spreadMethod="pad">
      <stop offset="0.47843137254901963" stop-color="#ffffff"></stop>
      <stop offset="0.8823529411764706" stop-color="#f2eaea"></stop>
    </radialGradient>
    <radialGradient cx="0" cy="0" gradientTransform="matrix(0.0263, -0.0027, 0.0016, 0.0162, -18.35, -0.2)" gradientUnits="userSpaceOnUse" id="gradient1" r="819.2" spreadMethod="pad">
      <stop offset="0.47843137254901963" stop-color="#ffffff"></stop>
      <stop offset="0.8823529411764706" stop-color="#f2eaea"></stop>
    </radialGradient>
  </defs>
</svg>