<?xml version="1.0" encoding="UTF-8" standalone="no"?>
<svg xmlns:xlink="http://www.w3.org/1999/xlink" height="24px" width="23.2px" xmlns="http://www.w3.org/2000/svg">
  <g transform="matrix(1.0, 0.0, 0.0, 1.0, 11.6, 12)">
    <path d="M4.1 -9.8 L4.3 -9.6 5.55 -8.1 6.4 -6.95 7.3 -5.35 8.1 -3.35 7.8 -2.85 Q6.45 -0.25 4.3 1.65 L4.8 -0.2 Q5.85 -2.95 5.8 -5.8 L5.35 -4.9 4.1 -2.8 4.15 -7.15 4.1 -9.8 M8.4 -2.05 L8.55 -0.2 8.35 0.4 8.5 0.55 8.6 0.65 7.1 2.6 6.95 2.6 6.95 2.4 7.25 1.5 7.8 -0.35 8.3 -2.05 8.4 -2.05" fill="url(#gradient0)" fill-rule="evenodd" stroke="none"/>
    <path d="M4.4 -10.0 L5.55 -9.8 5.85 -9.35 8.15 -5.85 8.35 -5.6 Q9.5 -3.4 9.15 -1.8 L10.1 -2.25 10.6 -2.7 9.35 -0.2 9.3 -0.05 8.85 0.3 8.55 0.55 8.5 0.55 8.35 0.4 8.55 -0.2 8.4 -2.05 8.4 -2.1 8.35 -2.3 8.1 -3.35 7.3 -5.35 6.4 -6.95 5.55 -8.1 4.3 -9.6 4.1 -9.8 3.8 -10.05 4.05 -10.05 4.25 -10.0 4.4 -10.0 M6.95 6.75 L6.45 8.55 6.35 8.85 6.15 8.45 Q5.75 7.95 5.55 7.1 L5.55 6.95 5.45 6.95 5.0 8.55 4.8 9.25 Q4.55 10.15 4.45 11.0 L3.95 9.3 3.6 8.55 2.95 7.15 2.9 7.1 2.2 8.5 2.2 8.55 Q1.5 9.7 1.1 10.8 1.25 9.55 0.8 8.6 L0.8 8.55 Q0.3 7.6 -0.2 7.3 L-0.15 8.55 -0.15 9.15 -0.7 8.55 -1.05 8.2 -1.45 7.85 -1.75 7.6 -3.3 6.3 Q-4.95 5.25 -6.15 3.75 L-8.2 1.45 Q-10.1 -0.75 -10.1 -1.3 L-10.0 -1.55 -9.65 -1.7 -6.3 1.8 -1.6 6.15 -1.2 6.4 -1.1 6.2 -0.6 6.1 Q0.5 6.1 1.6 7.7 L2.85 5.6 2.95 5.45 3.1 5.7 Q3.95 7.1 4.05 7.8 L4.15 7.8 4.65 6.2 5.15 4.45 6.2 6.2 6.45 5.9 7.5 4.1 7.25 5.55 7.05 6.5 6.95 6.75" fill="#a36a6a" fill-rule="evenodd" stroke="none"/>
    <path d="M4.4 -10.0 L4.25 -10.0 4.05 -10.05 3.8 -10.05 4.1 -9.8 4.15 -7.15 4.1 -2.8 5.35 -4.9 5.8 -5.8 Q5.85 -2.95 4.8 -0.2 L4.3 1.65 Q6.45 -0.25 7.8 -2.85 L8.1 -3.35 8.35 -2.3 8.4 -2.1 8.3 -2.05 7.8 -0.35 7.25 1.5 6.95 2.4 6.95 2.6 7.1 2.6 8.6 0.65 8.55 0.55 8.85 0.3 9.3 -0.05 9.35 -0.2 9.35 0.45 Q9.35 1.5 8.5 3.95 L7.15 6.6 6.95 6.75 7.05 6.5 7.25 5.55 7.5 4.1 6.45 5.9 6.2 6.2 5.15 4.45 5.0 4.4 2.9 4.75 Q3.45 2.6 3.3 0.2 L2.7 1.65 2.1 3.15 Q1.8 4.1 1.15 4.55 L1.05 4.55 Q0.7 4.65 0.7 4.15 L0.4 2.9 0.1 1.85 0.0 0.8 0.2 1.0 0.3 1.0 Q1.0 -1.85 2.2 -4.5 L1.35 -3.25 -1.0 -0.2 -1.25 0.0 -1.0 -1.05 0.35 -5.85 Q1.1 -8.4 2.4 -10.75 L3.6 -10.35 3.9 -10.25 4.05 -10.15 4.25 -10.05 4.4 -10.0 M5.55 7.1 L5.45 6.95 5.55 6.95 5.55 7.1 M-1.65 1.65 L-1.5 1.85 -1.65 1.85 -1.65 1.65" fill="#e0cbcb" fill-rule="evenodd" stroke="none"/>
    <path d="M8.4 -2.1 L8.4 -2.05 8.3 -2.05 8.4 -2.1 M8.5 0.55 L8.55 0.55 8.6 0.65 8.5 0.55 M-10.0 -1.55 L-10.25 -2.35 -10.6 -4.55 Q-10.6 -6.85 -9.25 -8.45 -7.15 -11.2 -2.0 -10.9 L2.4 -10.75 Q1.1 -8.4 0.35 -5.85 L-1.0 -1.05 -1.25 0.0 -1.0 -0.2 1.35 -3.25 2.2 -4.5 Q1.0 -1.85 0.3 1.0 L0.2 1.0 0.0 0.8 0.1 1.85 0.4 2.9 0.7 4.15 Q0.7 4.65 1.05 4.55 L1.15 4.55 Q1.8 4.1 2.1 3.15 L2.7 1.65 3.3 0.2 Q3.45 2.6 2.9 4.75 L5.0 4.4 5.15 4.45 4.65 6.2 4.15 7.8 4.05 7.8 Q3.95 7.1 3.1 5.7 L2.95 5.45 2.85 5.6 1.6 7.7 Q0.5 6.1 -0.6 6.1 L-1.1 6.2 -1.2 6.4 -1.6 6.15 -6.3 1.8 -9.65 -1.7 -10.0 -1.55 M-1.65 1.65 L-1.65 1.85 -1.5 1.85 -1.65 1.65" fill="#cca9a9" fill-rule="evenodd" stroke="none"/>
  </g>
  <defs>
    <radialGradient cx="0" cy="0" gradientTransform="matrix(0.0132, -0.0229, 0.0141, 0.0082, -20.65, -9.35)" gradientUnits="userSpaceOnUse" id="gradient0" r="819.2" spreadMethod="pad">
      <stop offset="0.47843137254901963" stop-color="#ffffff"></stop>
      <stop offset="0.8823529411764706" stop-color="#f2eaea"></stop>
    </radialGradient>
  </defs>
</svg>