<?xml version="1.0" encoding="UTF-8" standalone="no"?>
<svg xmlns:xlink="http://www.w3.org/1999/xlink" height="21.95px" width="9.45px" xmlns="http://www.w3.org/2000/svg">
  <g transform="matrix(1.0, 0.0, 0.0, 1.0, -0.1, 20.3)">
    <path d="M2.6 -17.15 Q3.85 -18.95 5.6 -19.25 7.35 -19.55 7.35 -18.1 7.35 -16.9 5.85 -16.2 L5.7 -15.95 Q7.6 -15.5 8.2 -14.8 8.55 -14.4 8.55 -13.5 8.55 -11.25 6.75 -10.95 L7.9 -8.1 8.1 -5.55 Q8.1 -3.75 7.8 -3.05 L6.45 0.5 6.15 0.5 Q6.0 0.95 6.0 0.2 L6.65 -2.1 Q7.25 -4.25 7.25 -5.4 7.25 -6.3 5.55 -11.4 5.55 -11.9 6.05 -12.25 7.1 -12.95 7.35 -13.2 5.9 -13.4 4.85 -13.85 L4.65 -13.95 4.8 -12.95 Q4.8 -11.7 3.65 -10.7 2.45 -9.7 2.45 -9.05 L3.1 -7.25 Q3.75 -5.75 3.75 -4.65 L3.35 -2.7 1.9 -5.95 Q1.1 -7.8 1.1 -9.3 1.1 -10.2 1.95 -10.95 3.0 -11.85 3.3 -12.6 L3.35 -14.4 Q3.3 -15.0 3.4 -15.4 3.35 -15.9 3.65 -16.5 L2.6 -17.15" fill="#a51616" fill-rule="evenodd" stroke="none"/>
  </g>
</svg>