<?xml version="1.0" encoding="UTF-8" standalone="no"?>
<svg xmlns:xlink="http://www.w3.org/1999/xlink" height="21.2px" width="9.95px" xmlns="http://www.w3.org/2000/svg">
  <g transform="matrix(1.0, 0.0, 0.0, 1.0, 11.75, 15)">
    <path d="M-10.55 -13.7 L-10.15 -14.0 Q-5.45 -10.4 -4.3 -8.3 L-3.45 -5.7 Q-2.8 -3.4 -2.8 -2.65 -2.8 -0.9 -3.65 1.35 -4.05 2.45 -4.95 3.7 -6.1 5.2 -6.85 5.2 -7.95 5.2 -8.0 3.95 L-7.9 3.6 -7.7 3.15 -7.95 3.45 -8.5 3.8 -8.75 3.1 -8.5 1.15 -8.5 1.1 -8.85 1.65 Q-9.15 2.1 -9.4 2.1 -9.75 2.1 -9.95 0.5 L-10.2 -2.05 -10.45 -4.1 -10.65 -6.2 -10.4 -7.3 -10.5 -8.3 -10.25 -12.05 -10.25 -12.9 Q-10.75 -12.8 -10.75 -13.3 L-10.55 -13.7 M-7.95 -1.25 L-6.65 -2.65 -5.55 -4.15 Q-5.55 -5.25 -7.1 -3.75 -8.7 -2.3 -8.7 -1.75 -8.65 -1.25 -7.95 -1.25 M-5.65 -1.85 Q-5.65 -3.9 -7.7 -0.2 L-7.55 0.15 -7.2 0.45 Q-6.85 0.45 -6.25 -0.65 L-5.65 -1.85 M-8.15 2.75 L-8.2 2.7 -8.2 2.75 -8.15 2.75" fill="#cca9a9" fill-rule="evenodd" stroke="none"/>
    <path d="M-5.65 -1.85 L-6.25 -0.65 Q-6.85 0.45 -7.2 0.45 L-7.55 0.15 -7.7 -0.2 Q-5.65 -3.9 -5.65 -1.85 M-7.95 -1.25 Q-8.65 -1.25 -8.7 -1.75 -8.7 -2.3 -7.1 -3.75 -5.55 -5.25 -5.55 -4.15 L-6.65 -2.65 -7.95 -1.25" fill="#e0cbcb" fill-rule="evenodd" stroke="none"/>
  </g>
</svg>