<?xml version="1.0" encoding="UTF-8" standalone="no"?>
<svg xmlns:xlink="http://www.w3.org/1999/xlink" height="24.5px" width="32.7px" xmlns="http://www.w3.org/2000/svg">
  <g transform="matrix(1.0, 0.0, 0.0, 1.0, 16.35, 12.25)">
    <path d="M2.35 -9.55 L2.45 -9.55 2.55 -9.5 2.6 -9.5 1.4 -9.0 0.5 -8.45 -1.8 -8.7 2.35 -9.55 M12.9 -3.15 Q11.25 -2.3 9.4 -1.6 10.05 -2.0 10.05 -2.3 L10.05 -2.35 9.5 -2.15 9.5 -2.2 10.05 -2.35 10.0 -2.5 9.15 -2.55 2.9 -1.75 0.75 -1.5 -1.15 -1.3 -3.4 -1.1 -3.55 -1.15 -3.4 -1.15 Q-0.6 -2.4 5.25 -3.3 -2.4 -4.0 -5.55 -3.25 -8.7 -2.5 -9.3 -1.85 L-9.9 -2.55 -11.1 -4.05 Q-5.75 -5.3 -3.05 -5.3 L3.75 -4.9 7.85 -4.25 12.9 -3.15 M8.15 1.15 L8.2 1.2 8.3 1.3 6.65 2.05 3.55 3.75 -0.8 4.25 -1.2 4.3 1.35 3.2 3.0 2.4 Q1.5 1.85 -2.6 1.25 L-0.6 0.85 1.9 0.35 2.7 1.15 4.2 1.55 7.25 1.35 8.15 1.15 M-1.75 11.15 L-1.25 11.05 -1.5 11.25 -1.75 11.15 M-1.05 -2.3 L-1.15 -2.25 -1.15 -2.3 -1.05 -2.3 M0.2 0.25 L-0.1 0.3 0.15 0.2 0.2 0.25" fill="#e0cbcb" fill-rule="evenodd" stroke="none"/>
    <path d="M-1.8 -8.7 L0.5 -8.45 1.4 -9.0 2.6 -9.5 2.55 -9.5 2.45 -9.55 2.35 -9.55 1.1 -9.8 -0.35 -10.0 -7.3 -10.3 -13.1 -9.95 -14.45 -9.65 -14.8 -9.65 -15.2 -9.7 -15.25 -9.7 -15.3 -9.75 -15.35 -10.05 -15.35 -10.1 Q-15.4 -10.55 -12.65 -10.9 L-7.2 -11.25 -0.2 -10.95 Q3.7 -10.6 3.7 -9.7 3.7 -9.1 2.9 -8.65 L1.95 -8.25 3.8 -8.0 Q15.4 -6.2 15.35 -3.75 15.35 -3.0 13.45 -2.05 L9.85 -0.65 7.25 -0.05 Q9.2 0.3 9.2 1.4 9.2 2.65 6.0 4.7 L4.3 5.7 Q4.95 6.0 4.95 6.85 4.95 7.8 2.3 9.45 0.25 10.65 -1.2 11.05 L-1.25 11.05 -1.75 11.15 -1.8 11.15 -2.15 11.15 -2.2 11.15 -2.25 11.1 -2.25 11.05 -2.2 11.0 -1.9 10.8 -1.85 10.75 -1.8 10.75 -1.1 10.35 1.6 8.8 1.6 8.85 Q4.05 7.45 4.05 6.65 L3.65 6.3 3.45 6.15 0.4 7.6 0.3 7.6 -0.05 7.25 -0.1 7.15 4.2 4.65 Q8.35 2.25 8.35 1.45 L8.35 1.35 8.3 1.3 8.2 1.2 8.15 1.15 7.3 0.9 2.55 0.4 2.55 0.45 2.45 0.45 Q2.3 0.5 2.3 0.2 2.35 0.0 3.2 -0.1 L5.1 -0.2 5.25 -0.2 8.55 -1.3 8.75 -1.35 9.4 -1.6 Q11.25 -2.3 12.9 -3.15 L13.0 -3.2 13.0 -3.25 13.85 -3.7 13.9 -3.75 14.2 -3.95 Q12.5 -5.05 7.05 -6.25 L-2.05 -7.65 -5.95 -7.7 -6.0 -7.7 -6.05 -7.75 -6.15 -7.9 -6.15 -8.0 Q-6.25 -8.35 -5.85 -8.55 L-5.8 -8.55 -5.2 -8.75 -2.2 -8.75 -1.8 -8.7" fill="#a36a6a" fill-rule="evenodd" stroke="none"/>
    <path d="M2.35 -9.55 L-1.8 -8.7 -2.2 -8.75 -5.2 -8.75 -5.8 -8.55 -5.85 -8.55 Q-6.25 -8.35 -6.15 -8.0 L-6.15 -7.9 -6.05 -7.75 -6.0 -7.7 -5.95 -7.7 -2.05 -7.65 7.05 -6.25 Q12.5 -5.05 14.2 -3.95 L13.9 -3.75 13.85 -3.7 13.0 -3.25 13.0 -3.2 12.9 -3.15 7.85 -4.25 3.75 -4.9 -3.05 -5.3 Q-5.75 -5.3 -11.1 -4.05 L-11.55 -4.65 -11.8 -4.95 -13.75 -7.35 -13.85 -7.45 Q-14.85 -8.85 -14.85 -9.65 L-14.8 -9.65 -14.45 -9.65 -13.1 -9.95 -7.3 -10.3 -0.35 -10.0 1.1 -9.8 2.35 -9.55 M2.3 0.2 Q2.3 0.5 2.45 0.45 L2.55 0.45 2.55 0.4 7.3 0.9 8.15 1.15 7.25 1.35 4.2 1.55 2.7 1.15 1.9 0.35 1.85 0.25 2.3 0.2 M-13.9 -8.45 L-13.85 -8.35 -13.8 -8.4 -13.9 -8.45" fill="url(#gradient0)" fill-rule="evenodd" stroke="none"/>
    <path d="M9.4 -1.6 L8.75 -1.35 8.55 -1.3 5.25 -0.2 5.1 -0.2 3.2 -0.1 Q2.35 0.0 2.3 0.2 L1.85 0.25 1.9 0.35 -0.6 0.85 -2.6 1.25 Q1.5 1.85 3.0 2.4 L1.35 3.2 -1.2 4.3 -0.8 4.25 3.55 3.75 6.65 2.05 8.3 1.3 8.35 1.35 8.35 1.45 Q8.35 2.25 4.2 4.65 L-0.1 7.15 -0.05 7.25 0.3 7.6 0.4 7.6 3.45 6.15 3.65 6.3 4.05 6.65 Q4.05 7.45 1.6 8.85 L1.6 8.8 -1.1 10.35 -1.8 10.75 -1.5 9.2 Q-1.5 8.6 -1.65 8.0 L-1.8 7.35 -1.85 7.25 -1.25 6.45 -2.2 6.25 -2.25 6.25 -2.35 6.05 -2.9 5.1 -3.2 4.65 -3.2 4.6 -3.35 4.45 -4.05 3.5 -2.15 3.1 -5.9 1.45 -6.9 0.45 Q-5.75 -0.05 -4.75 -0.85 L-8.75 -1.25 -9.3 -1.85 Q-8.7 -2.5 -5.55 -3.25 -2.4 -4.0 5.25 -3.3 -0.6 -2.4 -3.4 -1.15 L-3.55 -1.15 -3.4 -1.1 -1.15 -1.3 0.75 -1.5 2.9 -1.75 9.15 -2.55 10.0 -2.5 10.05 -2.35 9.5 -2.2 9.5 -2.15 10.05 -2.35 10.05 -2.3 Q10.05 -2.0 9.4 -1.6 M-1.05 -2.3 L-1.15 -2.3 -1.15 -2.25 -1.05 -2.3 M0.2 0.25 L0.15 0.2 -0.1 0.3 0.2 0.25" fill="#cca9a9" fill-rule="evenodd" stroke="none"/>
  </g>
  <defs>
    <radialGradient cx="0" cy="0" gradientTransform="matrix(0.0193, 0.0, 0.0, 0.0193, -6.8, -19.3)" gradientUnits="userSpaceOnUse" id="gradient0" r="819.2" spreadMethod="pad">
      <stop offset="0.47843137254901963" stop-color="#ffffff"></stop>
      <stop offset="0.8823529411764706" stop-color="#f2eaea"></stop>
    </radialGradient>
  </defs>
</svg>