<?xml version="1.0" encoding="UTF-8" standalone="no"?>
<svg xmlns:xlink="http://www.w3.org/1999/xlink" height="29.05px" width="28.15px" xmlns="http://www.w3.org/2000/svg">
  <g transform="matrix(1.0, 0.0, 0.0, 1.0, 14.1, 14.55)">
    <use data-characterId="1789" height="25.35" transform="matrix(1.0, 0.0, 0.0, 1.0, -14.1, -10.85)" width="26.85" xlink:href="#shape0"/>
    <use data-characterId="1791" height="17.45" transform="matrix(1.0, 0.0, 0.0, 1.0, -2.5, -14.55)" width="16.55" xlink:href="#sprite0"/>
  </g>
  <defs>
    <g id="shape0" transform="matrix(1.0, 0.0, 0.0, 1.0, 14.1, 10.85)">
      <path d="M2.7 -3.9 L5.45 -6.4 6.1 -7.25 5.3 -4.45 6.8 -5.6 7.15 -5.95 6.8 -3.85 6.5 -3.05 6.3 -2.55 8.8 -4.9 8.55 -4.35 9.05 -4.25 7.85 -0.7 7.75 -0.8 7.75 -0.9 7.8 -1.1 7.7 -0.9 7.55 -0.5 7.55 -0.45 7.75 -0.5 7.55 -0.05 6.0 1.0 4.9 1.65 4.2 2.05 4.9 2.15 7.5 1.55 7.4 1.7 6.35 2.95 5.3 5.35 4.3 8.1 4.4 8.1 5.0 7.85 6.1 7.3 Q6.85 6.9 7.5 6.65 6.6 8.05 5.2 8.95 L4.4 9.45 3.95 9.7 3.25 10.0 1.15 10.85 -0.9 11.5 -1.65 11.75 -1.95 11.9 -2.05 11.85 -3.4 11.1 -3.4 11.05 -3.55 10.85 -4.15 10.25 -0.15 5.6 0.95 4.7 Q-0.05 5.1 -1.05 5.65 -2.2 6.2 -3.4 6.15 L-3.55 6.15 -3.45 6.1 -3.45 6.05 -2.65 5.5 -1.2 4.45 -0.15 3.6 1.0 2.6 2.4 0.75 2.5 0.65 2.25 0.75 0.35 1.7 Q-0.55 2.15 -1.5 2.2 L-1.65 2.2 -1.55 2.15 -1.55 2.1 -1.25 1.75 1.5 -1.5 2.7 -3.9 M9.15 -0.95 L9.65 -1.45 9.5 -1.1 9.15 -0.95 M3.05 -9.0 L4.4 -10.65 4.6 -10.85 3.1 -5.8 1.5 -4.7 1.25 -4.6 1.1 -4.6 1.2 -4.65 1.2 -4.7 1.35 -4.9 1.5 -5.05 Q2.65 -6.1 2.85 -7.45 L3.05 -9.0 M5.7 -2.3 L5.65 -2.25 5.7 -2.25 5.7 -2.3" fill="#e0cbcb" fill-rule="evenodd" stroke="none"/>
      <path d="M-1.9 -6.45 L0.3 -8.15 0.5 -8.3 Q0.65 -7.25 0.3 -6.2 L3.05 -9.0 2.85 -7.45 Q2.65 -6.1 1.5 -5.05 L1.35 -4.9 1.2 -4.7 1.2 -4.65 1.1 -4.6 1.25 -4.6 1.5 -4.7 3.1 -5.8 2.35 -3.8 2.1 -3.4 2.7 -3.9 1.5 -1.5 -1.25 1.75 -1.55 2.1 -1.55 2.15 -1.65 2.2 -1.5 2.2 Q-0.55 2.15 0.35 1.7 L2.25 0.75 2.5 0.65 2.4 0.75 1.0 2.6 -0.15 3.6 -1.2 4.45 -2.65 5.5 -3.45 6.05 -3.45 6.1 -3.55 6.15 -3.4 6.15 Q-2.2 6.2 -1.05 5.65 -0.05 5.1 0.95 4.7 L-0.15 5.6 -4.15 10.25 -6.15 9.05 Q-8.3 8.1 -10.1 7.95 L-9.3 7.1 -9.4 6.85 -9.7 6.75 -10.15 6.95 -12.05 8.15 -12.0 8.1 -10.9 6.45 -10.15 5.1 -9.95 4.75 -8.1 2.65 -6.95 1.45 -7.3 1.05 Q-8.1 1.35 -10.15 2.55 L-10.35 2.65 -10.15 2.45 -7.7 0.4 -5.45 -0.85 -3.9 -1.95 -2.65 -4.25 -2.35 -4.8 Q-1.95 -5.7 -1.9 -6.45" fill="url(#gradient0)" fill-rule="evenodd" stroke="none"/>
      <path d="M8.8 -4.9 L9.05 -5.25 9.3 -5.5 9.05 -4.25 8.55 -4.35 8.8 -4.9 M7.55 -0.05 L6.95 1.05 9.15 -0.95 9.5 -1.1 Q9.9 -1.25 9.6 -1.3 L9.65 -1.45 9.95 -1.75 10.7 2.9 11.3 1.1 11.9 5.8 11.9 6.5 11.85 6.5 11.4 3.8 11.0 3.7 Q10.55 3.7 9.35 6.9 L8.05 10.85 7.75 12.05 7.7 12.05 7.65 10.9 7.65 10.85 Q7.55 10.0 7.15 10.0 L5.85 11.35 3.85 13.3 3.85 12.8 Q3.6 11.75 3.05 11.9 L1.05 12.35 -1.95 11.9 -1.65 11.75 -0.9 11.5 1.15 10.85 3.25 10.0 3.95 9.7 4.4 9.45 5.2 8.95 Q6.6 8.05 7.5 6.65 6.85 6.9 6.1 7.3 L5.0 7.85 4.4 8.1 4.3 8.1 5.3 5.35 6.35 2.95 7.4 1.7 7.5 1.55 4.9 2.15 4.2 2.05 4.9 1.65 6.0 1.0 7.55 -0.05" fill="#cca9a9" fill-rule="evenodd" stroke="none"/>
      <path d="M11.3 1.1 L11.4 0.6 11.45 0.35 12.25 1.35 12.2 1.5 12.5 3.7 12.75 6.9 12.75 7.85 Q12.65 8.6 12.2 8.6 11.55 8.6 11.2 7.4 L10.95 5.5 9.05 9.5 8.8 10.85 8.7 11.75 Q8.4 13.4 7.6 13.4 7.2 13.4 7.0 12.6 L6.8 11.65 Q6.1 12.65 3.5 14.5 2.95 14.5 2.95 13.95 L3.05 13.3 Q-0.7 13.65 -3.2 12.35 L-4.95 11.1 -5.05 10.85 -5.15 10.5 -5.1 10.4 -6.35 9.8 Q-8.65 8.65 -10.15 8.45 L-10.95 8.35 -13.65 10.25 -14.05 10.2 -14.1 9.85 -12.05 6.7 -10.15 4.05 -9.15 2.75 -9.1 2.7 -11.95 4.3 -12.3 4.25 -12.35 3.95 Q-12.35 3.2 -10.15 1.55 L-9.6 1.15 -5.8 -1.3 -6.5 -1.5 -4.7 -3.15 Q-3.5 -4.25 -3.25 -4.85 L-2.8 -6.75 Q-2.65 -7.85 -2.3 -8.35 -2.05 -8.2 -1.95 -7.65 L-2.5 -5.85 -1.9 -6.45 Q-1.95 -5.7 -2.35 -4.8 L-2.65 -4.25 -3.9 -1.95 -5.45 -0.85 -7.7 0.4 -10.15 2.45 -10.35 2.65 -10.15 2.55 Q-8.1 1.35 -7.3 1.05 L-6.95 1.45 -8.1 2.65 -9.95 4.75 -10.15 5.1 -10.9 6.45 -12.0 8.1 -12.05 8.15 -10.15 6.95 -9.7 6.75 -9.4 6.85 -9.3 7.1 -10.1 7.95 Q-8.3 8.1 -6.15 9.05 L-4.15 10.25 -3.55 10.85 -3.4 11.05 -3.4 11.1 -2.05 11.85 -1.95 11.9 1.05 12.35 3.05 11.9 Q3.6 11.75 3.85 12.8 L3.85 13.3 5.85 11.35 7.15 10.0 Q7.55 10.0 7.65 10.85 L7.65 10.9 7.7 12.05 7.75 12.05 8.05 10.85 9.35 6.9 Q10.55 3.7 11.0 3.7 L11.4 3.8 11.85 6.5 11.9 6.5 11.9 5.8 11.3 1.1" fill="#a36a6a" fill-rule="evenodd" stroke="none"/>
    </g>
    <radialGradient cx="0" cy="0" gradientTransform="matrix(0.0132, -0.0229, 0.0141, 0.0082, -8.95, -0.05)" gradientUnits="userSpaceOnUse" id="gradient0" r="819.2" spreadMethod="pad">
      <stop offset="0.47843137254901963" stop-color="#ffffff"/>
      <stop offset="0.8823529411764706" stop-color="#f2eaea"/>
    </radialGradient>
    <g id="sprite0" transform="matrix(1.0, 0.0, 0.0, 1.0, 8.25, 8.75)">
      <use data-characterId="1790" height="17.45" transform="matrix(1.0, 0.0, 0.0, 1.0, -8.25, -8.75)" width="16.55" xlink:href="#shape1"/>
    </g>
    <g id="shape1" transform="matrix(1.0, 0.0, 0.0, 1.0, 8.25, 8.75)">
      <path d="M-2.55 -7.25 L-1.5 -8.65 -1.45 -6.05 -0.6 -8.0 -0.1 -8.75 Q0.45 -8.3 0.5 -7.3 L0.55 -4.6 0.35 -2.45 2.35 -5.85 2.6 -5.3 1.65 -0.7 3.45 -2.8 3.75 -2.4 3.65 -0.7 3.05 0.9 0.55 3.25 0.75 2.75 1.05 1.95 1.4 -0.15 1.05 0.2 -0.45 1.35 0.35 -1.45 -0.3 -0.6 -3.05 1.9 -1.8 -0.6 -2.65 0.0 -1.15 -5.05 -1.35 -4.85 -2.7 -3.2 -2.6 -5.45 -2.55 -7.25 M3.9 4.35 L3.4 4.85 3.15 4.9 2.4 5.15 2.3 5.3 1.8 5.75 2.0 5.3 2.2 5.2 2.1 5.1 3.3 1.55 3.55 1.55 3.65 2.2 3.55 3.25 3.75 3.65 3.85 3.9 3.9 4.25 3.9 4.35" fill="#e0cbcb" fill-opacity="0.49803922" fill-rule="evenodd" stroke="none"/>
      <path d="M3.65 -0.7 L4.25 -1.45 4.75 -1.85 4.25 0.7 5.4 -0.55 6.25 -1.05 6.55 -1.2 3.9 2.25 6.6 2.3 6.2 3.05 Q5.8 2.65 5.85 3.2 L5.8 3.55 5.4 4.05 5.35 4.15 5.9 4.1 6.15 4.9 6.45 6.05 6.35 6.0 5.65 6.05 Q5.5 6.2 5.5 6.4 L5.55 6.9 4.95 8.7 4.2 4.05 3.9 4.35 3.9 4.25 3.85 3.9 3.75 3.65 3.55 3.25 3.65 2.2 3.55 1.55 3.3 1.55 3.55 0.3 3.3 0.55 3.05 0.9 3.65 -0.7 M3.4 4.85 L1.2 6.85 1.8 5.75 2.3 5.3 2.4 5.15 3.15 4.9 3.4 4.85" fill="#cca9a9" fill-opacity="0.49803922" fill-rule="evenodd" stroke="none"/>
      <path d="M-3.05 1.9 L-3.65 2.4 -3.4 2.0 -2.65 0.0 -1.8 -0.6 -3.05 1.9 M-2.7 -3.2 L-5.45 -0.4 Q-5.1 -1.45 -5.25 -2.5 L-5.45 -2.35 -7.65 -0.65 -7.65 -0.8 -7.65 -0.9 Q-6.7 -2.95 -6.5 -3.7 L-6.05 -5.85 -5.55 -7.55 -4.5 -3.45 -4.45 -3.3 -4.25 -3.65 -2.55 -7.25 -2.6 -5.45 -2.7 -3.2" fill="url(#gradient1)" fill-rule="evenodd" stroke="none"/>
      <path d="M6.2 3.05 L7.1 4.9 7.3 5.3 7.65 5.95 8.3 7.4 Q8.3 7.9 7.85 7.9 L7.3 7.65 7.1 7.5 6.55 7.1 6.5 7.15 5.7 6.15 5.65 6.4 5.55 6.9 5.5 6.4 Q5.5 6.2 5.65 6.05 L6.35 6.0 6.45 6.05 6.15 4.9 5.9 4.1 5.8 3.55 5.85 3.2 Q5.8 2.65 6.2 3.05 M-7.65 -0.65 L-8.25 -0.05 -7.7 -1.85 -7.65 -0.9 -7.65 -0.8 -7.65 -0.65" fill="#a36a6a" fill-opacity="0.49803922" fill-rule="evenodd" stroke="none"/>
    </g>
    <radialGradient cx="0" cy="0" gradientTransform="matrix(0.0132, -0.0229, 0.0141, 0.0082, -14.7, 5.75)" gradientUnits="userSpaceOnUse" id="gradient1" r="819.2" spreadMethod="pad">
      <stop offset="0.47843137254901963" stop-color="#ffffff" stop-opacity="0.49803922"/>
      <stop offset="0.8823529411764706" stop-color="#f2eaea" stop-opacity="0.49803922"/>
    </radialGradient>
  </defs>
</svg>
