<?xml version="1.0" encoding="UTF-8" standalone="no"?>
<svg xmlns:xlink="http://www.w3.org/1999/xlink" height="4.9px" width="12.1px" xmlns="http://www.w3.org/2000/svg">
  <g transform="matrix(1.0, 0.0, 0.0, 1.0, 6.05, 2.45)">
    <path d="M3.95 0.15 L4.1 -0.1 5.05 -0.2 4.8 -0.15 4.8 0.1 4.5 0.9 3.6 1.45 Q2.6 1.45 2.45 0.5 L2.55 0.1 3.05 0.15 3.0 0.35 Q2.95 0.8 3.55 0.8 L3.95 0.15 M-3.65 -1.2 L-2.75 -1.45 -2.55 -1.4 -2.95 -1.3 -3.0 -1.2 -3.25 -0.25 -3.65 0.35 -4.0 0.45 Q-5.0 0.45 -5.05 -0.6 L-5.0 -1.25 -4.95 -1.4 -4.95 -1.45 -4.35 -1.3 -4.4 -1.3 -4.4 -1.2 -4.4 -0.75 -4.35 -0.4 -4.1 -0.3 -3.75 -1.1 -3.7 -1.2 -3.65 -1.2" fill="#a36a6a" fill-rule="evenodd" stroke="none"/>
    <path d="M3.05 0.15 L3.6 0.1 3.95 0.15 3.55 0.8 Q2.95 0.8 3.0 0.35 L3.05 0.15 M-4.4 -1.2 L-4.1 -1.3 -3.65 -1.2 -3.7 -1.2 -3.75 -1.1 -4.1 -0.3 -4.35 -0.4 -4.4 -0.75 -4.4 -1.2" fill="#ffffcc" fill-rule="evenodd" stroke="none"/>
  </g>
</svg>