<?xml version="1.0" encoding="UTF-8" standalone="no"?>
<svg xmlns:xlink="http://www.w3.org/1999/xlink" height="9px" width="12.2px" xmlns="http://www.w3.org/2000/svg">
  <g transform="matrix(1.0, 0.0, 0.0, 1.0, 6.55, 2.7)">
    <path d="M3.4 4.0 L4.15 0.55 4.2 0.05 4.65 -0.1 4.65 0.5 Q3.95 5.3 3.1 5.3 2.35 5.3 2.25 1.35 L2.3 0.2 2.4 -0.05 2.95 0.05 2.85 0.4 2.8 0.5 2.75 0.8 Q2.75 2.55 3.2 4.55 L3.4 4.0 M-3.75 -1.15 L-3.7 -1.25 -3.2 -1.35 -3.2 -1.25 -4.0 1.6 -4.35 3.2 Q-4.6 4.15 -5.05 4.15 -5.4 4.15 -5.55 0.9 L-5.45 -0.75 Q-5.3 -0.95 -5.3 -1.5 L-5.2 -1.7 -4.75 -1.4 -4.75 -1.35 -4.8 -0.95 -4.85 -0.8 -4.85 -0.6 -5.05 0.9 -5.0 2.15 -4.95 3.2 -4.25 0.3 -3.9 -0.8 -3.75 -1.15" fill="#a36a6a" fill-rule="evenodd" stroke="none"/>
    <path d="M4.2 0.05 L4.15 0.55 3.4 4.0 3.55 2.0 Q3.55 0.4 3.05 0.4 L2.8 0.5 2.85 0.4 2.95 0.05 3.05 0.05 3.85 0.05 4.2 0.05 M-4.75 -1.35 L-4.65 -1.35 -4.5 -1.3 -4.45 -1.3 -4.25 -1.25 -3.85 -1.2 -3.75 -1.15 -3.9 -0.8 -4.25 0.3 -4.95 3.2 -5.0 2.15 -4.9 1.3 -4.5 -0.4 -4.8 -0.8 -4.85 -0.8 -4.8 -0.95 -4.75 -1.35" fill="#e0cca3" fill-rule="evenodd" stroke="none"/>
    <path d="M2.8 0.5 L3.05 0.4 Q3.55 0.4 3.55 2.0 L3.4 4.0 3.2 4.55 Q2.75 2.55 2.75 0.8 L2.8 0.5 M-5.0 2.15 L-5.05 0.9 -4.85 -0.6 -4.85 -0.8 -4.8 -0.8 -4.5 -0.4 -4.9 1.3 -5.0 2.15" fill="#ffffcc" fill-rule="evenodd" stroke="none"/>
  </g>
</svg>