<?xml version="1.0" encoding="UTF-8" standalone="no"?>
<svg xmlns:xlink="http://www.w3.org/1999/xlink" height="4.95px" width="14.85px" xmlns="http://www.w3.org/2000/svg">
  <g transform="matrix(1.0, 0.0, 0.0, 1.0, 9.6, 1.05)">
    <path d="M2.9 1.55 L3.05 1.35 4.25 1.25 3.95 1.3 3.95 1.55 3.55 2.35 Q3.1 2.9 2.4 2.9 1.15 2.9 0.95 1.95 L1.1 1.55 1.7 1.6 1.7 1.65 1.65 1.8 Q1.6 2.25 2.35 2.25 L2.9 1.55 M-6.7 0.15 L-5.65 0.0 -5.4 0.05 -5.95 0.15 -6.0 0.25 -6.3 1.2 -6.8 1.8 -7.25 1.9 Q-8.55 1.9 -8.6 0.85 L-8.55 0.2 -8.5 0.05 -8.5 0.0 -7.7 0.15 -7.8 0.15 -7.8 0.7 -7.7 1.05 -7.4 1.15 -6.95 0.35 -6.9 0.25 -6.7 0.15" fill="#a36a6a" fill-rule="evenodd" stroke="none"/>
    <path d="M1.7 1.65 L1.85 1.5 2.4 1.3 Q2.8 1.3 2.9 1.55 L2.35 2.25 Q1.6 2.25 1.65 1.8 L1.7 1.65 M-7.8 0.7 Q-7.8 -0.1 -7.2 -0.05 -6.85 -0.05 -6.7 0.15 L-6.9 0.25 -6.95 0.35 -7.4 1.15 -7.7 1.05 -7.8 0.7" fill="#ffffcc" fill-rule="evenodd" stroke="none"/>
  </g>
</svg>