<?xml version="1.0" encoding="UTF-8" standalone="no"?>
<svg xmlns:xlink="http://www.w3.org/1999/xlink" height="8.15px" width="22.55px" xmlns="http://www.w3.org/2000/svg">
  <g transform="matrix(1.0, 0.0, 0.0, 1.0, 9.2, 5.3)">
    <path d="M5.2 -2.0 L5.85 -2.3 7.05 -2.55 Q7.75 -2.55 8.4 -1.55 8.1 -1.05 7.95 -0.05 L6.35 -1.05 5.4 -1.95 5.2 -2.0 M9.15 1.5 L4.4 0.35 1.65 -0.5 1.85 -0.5 5.05 -1.2 6.2 -0.3 7.9 0.65 8.6 0.1 8.55 0.25 8.95 0.6 9.0 1.15 9.15 1.5 M-8.05 -1.25 L-8.2 -2.9 -8.15 -3.25 -7.0 -2.95 -5.6 -2.5 Q-6.5 -1.75 -8.05 -1.25" fill="#ffffcc" fill-rule="evenodd" stroke="none"/>
    <path d="M5.2 -2.0 L5.0 -2.0 4.95 -2.0 Q4.4 -2.05 3.75 -1.7 2.5 -1.05 0.4 -0.9 L-2.2 -1.85 -2.15 -1.9 3.3 -3.1 Q6.25 -4.0 9.45 -4.3 10.5 -4.35 11.4 -2.05 L10.2 -1.65 9.75 -1.8 8.95 -1.95 8.9 -1.95 8.4 -1.55 Q7.75 -2.55 7.05 -2.55 L5.85 -2.3 5.2 -2.0 M9.15 1.5 L9.0 1.15 8.95 0.6 8.55 0.25 8.6 0.1 8.65 -0.15 8.65 -0.2 8.8 -0.55 9.2 -1.05 10.35 -0.8 11.3 -1.2 11.65 -1.4 12.35 1.5 12.3 1.8 10.6 1.85 9.25 1.55 9.15 1.5" fill="#e0cca3" fill-rule="evenodd" stroke="none"/>
  </g>
</svg>