<?xml version="1.0" encoding="UTF-8" standalone="no"?>
<svg xmlns:xlink="http://www.w3.org/1999/xlink" height="20.95px" width="20.5px" xmlns="http://www.w3.org/2000/svg">
  <g transform="matrix(1.0, 0.0, 0.0, 1.0, 9.45, 5.6)">
    <path d="M-4.7 13.5 L-4.9 13.7 -5.2 13.95 -5.95 14.35 -6.5 14.35 Q-7.95 13.9 -8.45 12.5 -8.45 11.0 -7.95 9.65 L-6.7 6.45 -4.8 1.7 -3.65 -1.1 Q-3.3 -1.95 -2.35 -2.55 L-0.5 -3.95 Q0.4 -4.7 4.15 -4.6 7.85 -4.55 9.95 -2.55 L9.8 -2.2 Q9.65 -1.8 9.05 -1.95 L7.25 -3.25 4.85 -3.45 0.6 -3.0 Q-1.15 -2.8 -2.1 -1.35 L-3.15 0.75 Q-4.1 3.15 -5.45 5.5 L-6.35 7.9 -7.0 10.2 Q-7.3 11.2 -7.2 11.95 -7.1 12.7 -6.5 13.1 L-5.2 13.35 Q-4.55 13.2 -4.7 13.5" fill="#a36a6a" fill-rule="evenodd" stroke="none"/>
    <path d="M-4.7 13.5 Q-4.55 13.2 -5.2 13.35 L-6.5 13.1 Q-7.1 12.7 -7.2 11.95 -7.3 11.2 -7.0 10.2 L-6.35 7.9 -5.45 5.5 Q-4.1 3.15 -3.15 0.75 L-2.1 -1.35 Q-1.15 -2.8 0.6 -3.0 L4.85 -3.45 7.25 -3.25 9.05 -1.95 Q9.65 -1.8 9.8 -2.2 L9.95 -2.55 Q10.3 -0.1 9.1 1.9 L6.35 5.75 2.1 9.6 Q0.9 10.5 -0.25 11.5 -2.25 13.05 -4.7 13.5" fill="#e0cbcb" fill-rule="evenodd" stroke="none"/>
  </g>
</svg>