<?xml version="1.0" encoding="UTF-8" standalone="no"?>
<svg xmlns:xlink="http://www.w3.org/1999/xlink" height="30.1px" width="22.2px" xmlns="http://www.w3.org/2000/svg">
  <g transform="matrix(1.0, 0.0, 0.0, 1.0, 11.1, 15.05)">
    <path d="M0.15 -10.35 L0.1 -6.6 Q0.05 -4.5 0.3 -2.45 L1.2 -3.25 2.75 -4.35 1.35 -1.2 1.0 -0.15 0.85 0.2 0.0 4.3 -0.2 5.5 -0.25 5.55 -0.85 2.4 -0.9 1.35 -0.9 1.2 -1.0 1.2 -2.05 4.65 -2.2 5.85 -2.45 5.9 -2.55 4.15 Q-2.5 3.7 -2.6 3.3 L-2.6 3.25 -2.75 3.3 -3.55 4.5 -3.95 5.7 Q-4.5 7.3 -4.6 9.0 L-4.75 9.65 -4.95 10.55 -4.95 10.6 -5.1 10.6 -5.25 9.5 -5.35 8.65 -5.4 7.95 -5.4 6.55 -5.5 6.55 -6.25 9.15 -7.3 13.15 -7.35 13.55 -8.35 12.8 -9.4 11.35 -10.0 9.8 -10.05 8.5 -10.1 8.15 -9.9 7.55 -9.75 7.55 -9.7 7.55 -9.6 7.5 -9.2 7.25 Q-8.25 6.35 -5.85 2.85 -2.8 -1.65 -2.3 -3.0 L-0.35 -8.8 0.15 -10.35" fill="url(#gradient0)" fill-rule="evenodd" stroke="none"/>
    <path d="M1.0 -13.5 L1.0 -13.45 0.55 -11.7 0.15 -10.35 -0.35 -8.8 -2.3 -3.0 Q-2.8 -1.65 -5.85 2.85 -8.25 6.35 -9.2 7.25 L-9.6 7.5 -9.7 7.55 -9.75 7.55 -9.9 7.55 -10.1 7.25 -7.25 3.1 Q-4.15 -1.3 -3.15 -3.45 L-0.95 -9.35 0.05 -12.0 Q0.6 -13.45 0.9 -13.8 L0.95 -13.85 1.0 -13.7 1.0 -13.5 M-0.6 12.85 L-0.75 12.65 -0.85 12.55 -0.95 12.35 -1.0 12.2 -1.3 11.45 Q-1.3 10.95 -0.9 10.9 L-1.5 10.6 -1.55 10.2 -0.6 9.2 1.85 6.5 3.2 4.35 Q3.4 3.7 4.7 3.4 L6.05 3.0 4.5 2.95 4.25 2.7 Q4.25 2.45 5.4 1.9 L6.8 1.25 6.8 1.15 5.6 0.95 6.95 -2.15 8.45 -6.05 8.75 -7.05 8.9 -7.2 Q8.9 -7.0 9.55 -7.5 L9.8 -7.7 10.1 -7.35 Q10.1 -6.6 6.95 -0.05 L6.75 0.45 8.8 0.4 7.85 1.3 Q6.75 2.1 5.95 2.35 L5.85 2.45 7.7 2.8 6.1 3.7 Q4.6 4.3 4.45 4.45 L2.95 6.4 Q2.5 7.0 1.75 8.35 1.0 9.55 -0.15 10.2 L0.9 10.45 1.15 10.8 0.75 11.2 -0.4 11.65 -0.15 12.4 Q-0.15 12.9 -0.5 12.9 L-0.6 12.85" fill="#a36a6a" fill-rule="evenodd" stroke="none"/>
    <path d="M0.15 -10.35 L0.55 -11.7 1.0 -13.45 1.0 -13.5 1.9 -13.9 4.85 -13.6 Q6.05 -13.45 6.7 -12.85 L7.8 -11.75 Q9.55 -10.4 9.55 -7.65 L9.55 -7.5 Q8.9 -7.0 8.9 -7.2 L8.75 -7.05 8.45 -6.05 6.95 -2.15 5.6 0.95 6.8 1.15 6.8 1.25 5.4 1.9 Q4.25 2.45 4.25 2.7 L4.5 2.95 6.05 3.0 4.7 3.4 Q3.4 3.7 3.2 4.35 L1.85 6.5 -0.6 9.2 -1.55 10.2 -1.5 10.6 -0.9 10.9 Q-1.3 10.95 -1.3 11.45 L-1.0 12.2 -0.95 12.35 -0.85 12.55 -0.75 12.65 -0.6 12.85 -1.2 13.4 Q-2.25 14.05 -4.55 14.05 L-6.65 13.8 -7.35 13.55 -7.3 13.15 -6.25 9.15 -5.5 6.55 -5.4 6.55 -5.4 7.95 -5.35 8.65 -5.25 9.5 -5.1 10.6 -4.95 10.6 -4.95 10.55 -4.75 9.65 -4.6 9.0 Q-4.5 7.3 -3.95 5.7 L-3.55 4.5 -2.75 3.3 -2.6 3.3 Q-2.5 3.7 -2.55 4.15 L-2.45 5.9 -2.2 5.85 -2.05 4.65 -1.0 1.2 -0.9 1.2 -0.9 1.35 -0.85 2.4 -0.25 5.55 -0.2 5.5 0.0 4.3 0.85 0.2 1.0 -0.15 1.35 -1.2 2.75 -4.35 1.2 -3.25 0.3 -2.45 Q0.05 -4.5 0.1 -6.6 L0.15 -10.35" fill="#e0cbcb" fill-rule="evenodd" stroke="none"/>
    <path d="M-2.6 3.3 L-2.75 3.3 -2.6 3.25 -2.6 3.3" fill="#cca9a9" fill-rule="evenodd" stroke="none"/>
  </g>
  <defs>
    <radialGradient cx="0" cy="0" gradientTransform="matrix(0.0132, -0.0229, 0.0141, 0.0082, -12.2, -9.3)" gradientUnits="userSpaceOnUse" id="gradient0" r="819.2" spreadMethod="pad">
      <stop offset="0.47843137254901963" stop-color="#ffffff"></stop>
      <stop offset="0.8823529411764706" stop-color="#f2eaea"></stop>
    </radialGradient>
  </defs>
</svg>