<?xml version="1.0" encoding="UTF-8" standalone="no"?>
<svg xmlns:xlink="http://www.w3.org/1999/xlink" height="26.5px" width="15.75px" xmlns="http://www.w3.org/2000/svg">
  <g transform="matrix(1.0, 0.0, 0.0, 1.0, 6.35, 17.25)">
    <path d="M-1.85 8.0 Q-1.95 8.25 -2.3 8.25 -2.75 8.25 -3.65 6.55 L-4.7 3.9 -4.85 3.25 -5.1 2.5 -5.3 0.45 -5.3 0.15 -5.35 -0.35 -4.95 -2.7 -4.8 -3.5 -3.45 -7.95 -3.15 -13.05 Q-3.1 -14.3 -2.7 -15.0 -2.55 -15.75 -1.95 -16.1 -0.8 -16.7 0.75 -14.85 L1.1 -14.3 1.8 -13.6 Q4.0 -11.3 5.0 -9.25 L5.35 -9.65 6.1 -10.7 5.85 -9.0 6.05 -7.1 6.45 -7.4 7.15 -7.85 7.0 -7.55 Q6.75 -7.0 7.3 -5.65 L7.75 -4.35 8.0 -3.55 8.3 -1.05 8.3 -0.85 8.15 0.4 8.0 0.4 7.8 -1.1 Q7.35 -3.65 6.15 -5.7 L6.65 -5.3 Q6.3 -6.1 6.3 -6.45 5.55 -6.3 5.45 -7.0 L5.35 -8.2 5.0 -7.85 1.8 -12.15 1.75 -12.2 1.75 -12.15 1.6 -12.35 Q-0.5 -15.45 -1.5 -15.5 -1.95 -14.95 -2.0 -13.45 L-1.9 -10.6 Q-1.9 -8.65 -3.1 -5.5 -4.35 -2.4 -4.35 0.45 L-4.1 2.35 -3.15 5.15 -2.25 7.0 -1.85 7.85 -1.85 8.0 M4.3 1.8 L3.95 1.25 2.55 -1.7 3.0 -2.1 1.75 -3.6 Q0.9 -4.65 1.05 -5.25 1.2 -5.25 1.55 -5.4 L2.55 -5.1 1.9 -6.05 Q1.65 -6.4 1.55 -6.7 L0.75 -7.4 0.1 -8.05 Q-1.2 -9.5 -1.2 -10.7 L-1.15 -10.95 Q-0.55 -10.7 -0.05 -9.9 L0.95 -8.35 1.8 -7.45 Q3.0 -7.45 3.9 -4.5 3.9 -3.95 3.45 -3.95 L2.85 -4.1 1.95 -4.35 2.95 -3.0 4.25 -1.5 Q4.05 -1.2 3.65 -1.2 L4.7 1.65 4.7 1.95 4.45 2.0 4.3 1.8 M-1.95 -2.2 Q-1.6 -1.75 -1.4 -0.75 -1.4 0.05 -2.9 -0.3 L-3.0 -0.35 -2.95 -0.25 Q-1.7 2.6 0.4 4.7 L0.1 4.95 -0.4 4.8 Q-1.25 4.25 -2.45 2.1 L-3.8 -0.8 -3.45 -1.15 -2.2 -0.85 -2.0 -0.9 -2.35 -1.35 -2.95 -2.6 Q-2.35 -2.75 -1.95 -2.2" fill="#a36a6a" fill-rule="evenodd" stroke="none"/>
    <path d="M-1.85 8.0 L-1.85 7.85 -2.25 7.0 -3.15 5.15 -4.1 2.35 -4.35 0.45 Q-4.35 -2.4 -3.1 -5.5 -1.9 -8.65 -1.9 -10.6 L-2.0 -13.45 Q-1.95 -14.95 -1.5 -15.5 -0.5 -15.45 1.6 -12.35 L1.75 -12.15 1.8 -12.15 5.0 -7.85 5.35 -8.2 5.45 -7.0 Q5.55 -6.3 6.3 -6.45 6.3 -6.1 6.65 -5.3 L6.15 -5.7 Q7.35 -3.65 7.8 -1.1 L8.0 0.4 8.15 0.4 8.3 -0.85 8.3 -1.05 8.4 -0.3 Q8.4 2.7 4.6 5.6 1.35 8.1 -0.55 8.1 L-1.85 8.0 M4.3 1.8 L4.45 2.0 4.7 1.95 4.7 1.65 3.65 -1.2 Q4.05 -1.2 4.25 -1.5 L2.95 -3.0 1.95 -4.35 2.85 -4.1 3.45 -3.95 Q3.9 -3.95 3.9 -4.5 3.0 -7.45 1.8 -7.45 L0.95 -8.35 -0.05 -9.9 Q-0.55 -10.7 -1.15 -10.95 L-1.2 -10.7 Q-1.2 -9.5 0.1 -8.05 L-1.7 -8.1 -1.05 -6.75 -0.25 -5.35 -0.55 -5.4 -2.0 -5.6 -2.75 -5.45 -2.85 -5.45 -2.65 -5.15 -1.0 -4.05 -0.8 -3.95 -0.45 -3.65 -0.25 -3.45 -1.65 -3.25 -1.65 -3.15 -1.2 -2.3 -1.95 -2.2 Q-2.35 -2.75 -2.95 -2.6 L-2.35 -1.35 -2.0 -0.9 -2.2 -0.85 -3.45 -1.15 -3.8 -0.8 -2.45 2.1 Q-1.25 4.25 -0.4 4.8 L0.8 5.45 2.2 5.2 3.9 3.7 4.25 2.85 4.25 2.65 4.3 1.8 M-2.9 -0.3 L-2.95 -0.25 -3.0 -0.35 -2.9 -0.3" fill="#e0cbcb" fill-rule="evenodd" stroke="none"/>
  </g>
</svg>