<?xml version="1.0" encoding="UTF-8" standalone="no"?>
<svg xmlns:xlink="http://www.w3.org/1999/xlink" height="10.45px" width="14.15px" xmlns="http://www.w3.org/2000/svg">
  <g transform="matrix(1.0, 0.0, 0.0, 1.0, 8.55, 3)">
    <path d="M0.05 6.35 L0.25 6.25 0.55 6.05 0.1 5.9 -4.05 5.25 Q-6.55 5.0 -6.95 4.25 -3.95 2.7 -1.3 1.95 L-1.2 1.95 -0.4 1.65 0.05 1.55 3.15 0.6 3.35 0.55 3.6 0.45 3.65 0.4 3.25 0.25 0.65 0.55 -1.05 1.1 -1.1 1.0 -2.2 -0.1 0.55 -0.9 3.65 -1.4 4.2 -1.45 4.45 -1.5 4.55 -0.85 Q2.45 6.45 0.35 6.45 L0.05 6.35" fill="#e0cbcb" fill-rule="evenodd" stroke="none"/>
    <path d="M0.05 6.35 L-0.35 6.35 -5.5 5.75 Q-7.55 5.15 -7.55 4.25 -7.55 3.4 -5.15 2.45 L-1.95 1.4 -1.9 1.4 -2.1 1.2 Q-2.85 0.4 -2.85 -0.15 -2.85 -1.1 -0.4 -1.6 L2.65 -2.0 4.1 -1.95 4.6 -1.6 4.45 -1.5 4.2 -1.45 3.65 -1.4 0.55 -0.9 -2.2 -0.1 -1.1 1.0 -1.05 1.1 0.65 0.55 3.25 0.25 3.65 0.4 3.6 0.45 3.35 0.55 3.15 0.6 0.05 1.55 -0.4 1.65 -1.2 1.95 -1.3 1.95 Q-3.95 2.7 -6.95 4.25 -6.55 5.0 -4.05 5.25 L0.1 5.9 0.55 6.05 0.25 6.25 0.05 6.35" fill="#a36a6a" fill-rule="evenodd" stroke="none"/>
  </g>
</svg>