<?xml version="1.0" encoding="UTF-8" standalone="no"?>
<svg xmlns:xlink="http://www.w3.org/1999/xlink" height="33.45px" width="42.35px" xmlns="http://www.w3.org/2000/svg">
  <g transform="matrix(1.0, 0.0, 0.0, 1.0, 21.9, -3.8)">
    <path d="M-20.6 14.3 L-20.65 14.3 -20.9 13.5 Q-21.15 12.15 -18.6 10.1 L-15.4 7.7 -13.8 6.9 -13.0 6.5 -12.35 5.95 -12.05 5.55 -11.55 5.0 -11.4 4.85 -11.05 4.85 Q-10.9 4.9 -11.0 5.15 L-11.2 5.95 -8.7 5.05 -8.65 5.05 -8.6 5.1 -8.5 5.2 -8.5 5.25 -8.5 5.3 -9.35 6.15 -7.95 6.1 -5.2 6.25 -4.9 6.3 -3.05 6.95 -1.85 7.5 -0.5 8.25 -0.45 8.25 0.95 8.6 1.95 9.0 Q2.75 9.4 2.7 9.6 L2.7 9.65 2.65 9.85 2.6 9.9 2.55 9.9 1.45 9.9 1.6 10.05 2.45 10.85 3.3 11.75 3.65 12.4 3.65 12.5 3.65 12.55 3.55 12.55 3.5 12.55 2.3 11.9 2.35 11.9 1.9 11.75 1.75 11.75 1.95 12.15 1.95 12.3 2.35 13.5 2.7 14.8 Q3.3 16.95 3.35 24.75 3.95 31.2 7.35 31.45 L8.6 31.45 9.8 31.1 10.65 30.05 11.2 28.9 11.45 28.05 11.7 26.0 Q11.7 25.35 12.2 24.8 L12.4 24.6 12.65 24.65 12.75 25.35 13.2 27.7 16.2 26.1 16.25 26.05 16.3 26.05 Q16.85 26.3 16.8 26.45 L15.85 27.7 17.65 28.5 Q19.1 29.15 19.05 29.4 19.05 29.8 16.7 30.6 L18.2 32.15 Q19.45 33.5 19.45 34.1 19.45 34.6 18.8 34.6 L17.8 34.35 15.7 34.05 14.6 34.25 Q13.95 34.4 13.65 34.6 L13.9 36.1 13.9 36.2 13.85 36.25 13.75 36.2 13.0 35.75 13.0 35.8 11.45 35.2 11.4 35.2 Q11.0 34.95 10.55 34.9 L10.15 35.2 8.55 35.85 7.4 36.2 7.35 36.2 6.15 36.25 Q1.2 36.25 -1.35 31.5 -3.0 28.45 -3.1 22.8 L-3.15 21.7 -3.8 21.65 -3.85 21.6 -3.9 21.55 -3.9 21.5 -3.25 20.15 -3.2 19.1 -3.3 19.1 -3.3 19.0 Q-3.6 16.2 -4.2 14.6 -5.2 12.0 -7.85 12.0 -10.6 11.95 -13.5 13.6 L-16.6 15.5 -16.65 15.5 -16.7 15.5 -16.85 15.35 -17.05 15.15 -17.1 14.75 -16.65 14.3 -16.15 13.9 -14.45 12.9 Q-11.3 11.2 -7.75 11.05 -5.1 10.9 -3.85 12.85 L-3.15 14.5 -2.45 18.25 -2.4 18.45 -2.35 19.6 -2.65 20.7 -2.75 21.15 -2.7 21.25 -2.35 21.3 -2.3 21.3 -2.25 21.35 -2.2 21.4 -2.2 23.25 Q-2.0 29.15 0.4 32.2 2.75 35.2 5.6 35.3 L7.35 35.25 8.95 34.9 8.9 34.9 9.0 34.85 9.6 34.55 9.65 34.55 10.6 34.1 10.65 34.1 Q11.15 34.1 12.85 34.95 L12.7 34.1 Q12.8 33.6 13.35 33.4 L15.3 33.05 15.35 33.05 17.8 33.45 18.1 33.45 16.7 32.05 Q15.45 30.8 15.45 30.4 L15.7 30.1 15.75 30.1 15.85 30.05 15.9 30.05 17.2 29.45 17.05 29.35 16.75 29.25 16.35 29.05 15.8 28.8 Q14.75 28.25 14.75 27.85 L14.8 27.65 14.85 27.6 14.75 27.65 14.7 27.7 14.6 27.75 14.45 27.85 12.95 28.65 12.85 28.65 12.6 28.6 12.55 28.6 12.5 28.55 12.45 28.15 12.15 29.0 Q11.75 30.3 10.85 31.5 L10.6 31.85 10.55 31.85 10.5 31.9 10.25 32.0 9.3 32.45 9.25 32.45 7.7 32.55 7.35 32.55 6.15 32.35 Q4.15 31.75 3.4 29.45 2.45 26.35 2.3 20.65 2.15 15.2 1.5 13.55 L0.8 11.9 0.4 11.25 0.4 11.2 0.25 10.8 0.3 10.75 0.3 10.7 0.4 10.7 1.75 11.0 0.05 9.65 0.0 9.6 0.0 9.55 0.2 9.3 -0.55 9.1 -0.6 9.1 -1.5 8.65 -1.95 8.35 -1.95 8.4 -2.0 8.35 -2.9 7.9 -4.4 7.35 -5.25 7.1 -5.8 7.0 -7.95 6.95 -8.0 6.95 -11.0 6.8 -11.05 6.8 -11.1 6.75 -11.1 6.7 -11.05 6.65 -10.8 6.45 -10.85 6.45 -11.3 6.7 -11.35 6.7 Q-11.6 6.7 -11.65 6.55 L-11.85 6.45 -12.25 6.9 Q-12.55 7.3 -13.9 7.95 -15.2 8.55 -17.1 9.9 -18.7 11.05 -19.65 12.4 L-19.95 12.9 -20.0 12.95 -20.05 13.1 -20.25 13.8 -20.4 14.2 -20.45 14.3 -20.6 14.3 M-2.95 21.45 L-2.95 21.5 -2.9 21.5 -2.95 21.45" fill="#a36a6a" fill-rule="evenodd" stroke="none"/>
    <path d="M-16.85 15.35 L-17.9 15.6 -19.65 15.45 -19.55 15.45 -19.25 15.15 -17.45 13.15 Q-16.95 12.55 -15.2 11.5 L-12.45 9.85 -12.5 9.9 Q-12.45 10.25 -12.95 11.15 L-10.2 9.55 -8.65 9.1 -7.75 8.9 -7.65 8.9 -6.95 8.8 -7.1 8.8 -6.75 8.75 -5.05 9.25 -2.8 10.25 Q-3.25 9.3 -3.85 9.0 L-4.5 8.7 -1.5 8.65 -0.6 9.1 -0.55 9.1 0.2 9.3 0.0 9.55 0.0 9.6 0.05 9.65 1.75 11.0 0.4 10.7 0.3 10.7 0.3 10.75 0.25 10.8 0.4 11.2 0.4 11.25 0.8 11.9 1.5 13.55 Q2.15 15.2 2.3 20.65 2.45 26.35 3.4 29.45 4.15 31.75 6.15 32.35 L5.85 32.5 5.95 32.5 6.85 32.7 5.85 32.6 4.7 32.25 Q3.0 31.65 1.6 30.55 L1.8 30.85 1.85 31.05 2.05 31.65 2.0 31.55 1.75 31.2 1.6 30.85 1.35 30.35 1.25 30.15 1.15 29.75 0.95 28.05 0.95 27.45 Q1.0 25.9 0.4 24.5 L2.1 25.0 1.5 23.6 1.2 23.0 Q0.65 21.7 -0.7 21.0 -1.0 20.85 -0.75 20.85 L-0.1 20.95 0.7 20.85 -0.25 19.9 -1.05 18.65 -1.3 18.15 -1.6 17.6 -1.65 17.15 -1.25 17.4 -0.7 17.55 -2.2 14.9 -2.3 14.7 Q-2.9 13.65 -3.85 12.85 -5.1 10.9 -7.75 11.05 -11.3 11.2 -14.45 12.9 L-16.15 13.9 -16.65 14.3 -17.1 14.75 -17.05 15.15 -16.85 15.35 M7.7 32.55 L9.25 32.45 9.3 32.45 10.25 32.0 10.1 32.1 14.4 32.1 15.0 32.25 15.45 32.0 13.95 31.1 15.45 30.3 Q15.5 30.15 15.7 30.1 L15.45 30.4 Q15.45 30.8 16.7 32.05 L18.1 33.45 17.8 33.45 15.35 33.05 15.3 33.05 13.35 33.4 Q12.8 33.6 12.7 34.1 L12.85 34.95 Q11.15 34.1 10.65 34.1 L10.6 34.1 9.65 34.55 9.6 34.55 9.0 34.85 8.65 34.0 8.3 33.4 7.7 32.55 M14.8 27.65 L14.75 27.85 Q14.75 28.25 15.8 28.8 L16.35 29.05 16.1 29.05 13.55 29.25 13.55 29.2 14.8 27.65 M17.05 29.35 L17.2 29.45 15.9 30.05 15.95 30.05 17.05 29.35" fill="#e0cbcb" fill-rule="evenodd" stroke="none"/>
    <path d="M-19.65 15.45 Q-20.4 15.45 -20.55 14.85 L-20.6 14.35 -20.6 14.3 -20.45 14.3 -20.4 14.2 -20.25 13.8 -20.05 13.1 -20.0 12.95 -19.95 12.9 -19.65 12.4 Q-18.7 11.05 -17.1 9.9 -15.2 8.55 -13.9 7.95 -12.55 7.3 -12.25 6.9 L-11.85 6.45 -11.65 6.55 Q-11.6 6.7 -11.35 6.7 L-11.3 6.7 -10.85 6.45 -10.8 6.45 -11.05 6.65 -11.1 6.7 -11.1 6.75 -11.05 6.8 -11.0 6.8 -8.0 6.95 -7.95 6.95 -5.8 7.0 -5.25 7.1 -4.4 7.35 -2.9 7.9 -2.0 8.35 -1.95 8.4 -1.95 8.35 -1.5 8.65 -4.5 8.7 -3.85 9.0 Q-3.25 9.3 -2.8 10.25 L-5.05 9.25 -6.75 8.75 -7.1 8.8 -6.95 8.8 -7.65 8.9 -7.75 8.9 -8.65 9.1 -10.2 9.55 -12.95 11.15 Q-12.45 10.25 -12.5 9.9 L-12.45 9.85 -15.2 11.5 Q-16.95 12.55 -17.45 13.15 L-19.25 15.15 -19.55 15.45 -19.65 15.45 M10.25 32.0 L10.5 31.9 10.55 31.85 10.6 31.85 10.85 31.5 Q11.75 30.3 12.15 29.0 L12.45 28.15 12.5 28.55 12.55 28.6 12.6 28.6 12.85 28.65 12.95 28.65 14.45 27.85 14.6 27.75 14.7 27.7 14.75 27.65 14.85 27.6 14.8 27.65 13.55 29.2 13.55 29.25 16.1 29.05 16.35 29.05 16.75 29.25 17.05 29.35 15.95 30.05 15.9 30.05 15.85 30.05 15.75 30.1 15.7 30.1 Q15.5 30.15 15.45 30.3 L13.95 31.1 15.45 32.0 15.0 32.25 14.4 32.1 10.1 32.1 10.25 32.0" fill="url(#gradient0)" fill-rule="evenodd" stroke="none"/>
    <path d="M6.15 32.35 L7.35 32.55 7.7 32.55 8.3 33.4 8.65 34.0 9.0 34.85 8.9 34.9 8.95 34.9 7.35 35.25 5.6 35.3 Q2.75 35.2 0.4 32.2 -2.0 29.15 -2.2 23.25 L-2.2 21.4 -2.25 21.35 -2.3 21.3 -2.35 21.3 -2.7 21.25 -2.75 21.15 -2.65 20.7 -2.35 19.6 -2.4 18.45 -2.45 18.25 -3.15 14.5 -3.85 12.85 Q-2.9 13.65 -2.3 14.7 L-2.2 14.9 -0.7 17.55 -1.25 17.4 -1.65 17.15 -1.6 17.6 -1.3 18.15 -1.05 18.65 -0.25 19.9 0.7 20.85 -0.1 20.95 -0.75 20.85 Q-1.0 20.85 -0.7 21.0 0.65 21.7 1.2 23.0 L1.5 23.6 2.1 25.0 0.4 24.5 Q1.0 25.9 0.95 27.45 L0.95 28.05 1.15 29.75 1.25 30.15 1.35 30.35 1.6 30.85 1.75 31.2 2.0 31.55 2.05 31.65 1.85 31.05 1.8 30.85 1.6 30.55 Q3.0 31.65 4.7 32.25 L5.85 32.6 6.85 32.7 5.95 32.5 5.85 32.5 6.15 32.35" fill="#cca9a9" fill-rule="evenodd" stroke="none"/>
  </g>
  <defs>
    <radialGradient cx="0" cy="0" gradientTransform="matrix(0.0193, 0.0, 0.0, 0.0193, -161.0, 38.15)" gradientUnits="userSpaceOnUse" id="gradient0" r="819.2" spreadMethod="pad">
      <stop offset="0.47843137254901963" stop-color="#ffffff"></stop>
      <stop offset="0.8823529411764706" stop-color="#f2eaea"></stop>
    </radialGradient>
  </defs>
</svg>