<?xml version="1.0" encoding="UTF-8" standalone="no"?>
<svg xmlns:xlink="http://www.w3.org/1999/xlink" height="23.35px" width="27px" xmlns="http://www.w3.org/2000/svg">
  <g transform="matrix(1.0, 0.0, 0.0, 1.0, 39.55, 3)">
    <path d="M-38.35 12.85 Q-38.7 11.85 -38.5 10.75 L-38.05 9.0 -37.45 7.3 -36.5 5.15 -35.55 3.2 -34.5 1.45 -33.15 -0.05 -31.5 -1.2 -29.75 -2.0 Q-27.85 -1.6 -27.3 -0.1 -25.4 -1.65 -23.85 -1.6 L-21.8 -1.4 Q-21.3 -1.25 -20.95 -0.9 L-20.35 -0.05 -19.85 1.0 -17.35 1.1 -17.15 1.2 Q-16.1 1.55 -15.4 2.25 L-14.55 3.8 Q-14.2 4.6 -14.0 5.45 L-13.8 6.55 -13.55 9.15 Q-13.5 10.9 -13.75 12.6 L-13.75 12.7 -14.05 14.1 -15.7 18.65 -16.05 19.35 Q-16.9 14.45 -18.75 9.6 L-19.45 8.4 -20.95 16.05 -22.45 8.4 -24.15 9.45 -24.65 11.95 -26.05 10.75 -34.6 16.55 -34.6 16.5 -33.35 15.55 -32.3 14.65 -31.3 13.85 -30.45 13.1 -29.0 11.9 -27.95 11.1 -27.0 10.45 -25.45 9.4 -23.85 8.3 -22.25 7.5 -20.55 6.9 -19.55 6.7 -18.55 6.45 -17.5 6.25 -17.15 6.2 -16.4 6.05 -16.55 6.15 -17.15 6.4 -17.2 6.4 -17.85 6.6 -18.05 6.7 -18.1 6.7 -18.75 6.95 -19.05 7.15 -19.45 7.35 -19.5 7.4 -19.35 7.65 -19.25 7.75 -18.9 8.0 -18.25 8.7 -18.05 9.05 -17.65 9.85 -17.4 10.4 -17.3 10.55 -17.15 11.15 -16.8 12.6 -15.85 17.55 -15.45 16.55 -15.15 15.7 -14.9 14.7 -14.8 14.05 -14.5 12.6 Q-14.25 10.2 -14.35 8.25 L-14.45 6.65 -14.45 6.55 -14.5 6.0 -14.6 5.4 -14.95 4.4 -15.15 3.95 -15.4 3.4 -15.65 3.05 -16.65 2.25 -17.3 1.9 -20.2 1.95 Q-23.8 2.5 -28.35 6.85 -32.55 10.8 -33.9 13.0 L-34.1 13.3 -34.15 13.4 -35.0 14.6 -35.05 14.15 -34.95 13.8 Q-34.55 12.0 -29.2 6.85 -23.9 1.7 -20.75 1.15 L-20.9 0.75 -21.0 0.5 -21.3 -0.1 Q-21.8 -0.6 -22.8 -0.6 -27.25 -0.6 -32.3 5.7 -34.65 8.7 -36.75 12.2 L-37.15 12.85 -37.3 12.75 -37.2 12.55 -37.05 12.15 Q-36.1 9.85 -34.85 7.85 L-34.25 6.95 -31.7 3.7 -28.55 0.9 Q-27.65 0.35 -28.6 -0.75 -29.6 -1.85 -31.65 -0.2 -33.75 1.45 -34.9 3.7 L-36.8 7.65 Q-37.75 9.85 -37.95 11.1 L-38.05 11.6 -38.35 12.85 M-22.1 8.2 L-20.8 13.5 -19.95 7.95 -20.65 7.45 -22.1 8.2 M-24.9 11.2 L-24.7 9.8 -25.4 10.6 -24.9 11.2" fill="#a36a6a" fill-rule="evenodd" stroke="none"/>
    <path d="M-34.6 16.55 Q-36.15 16.55 -37.25 15.5 -38.35 14.4 -38.35 12.85 L-38.05 11.6 -37.95 11.1 Q-37.75 9.85 -36.8 7.65 L-34.9 3.7 Q-33.75 1.45 -31.65 -0.2 -29.6 -1.85 -28.6 -0.75 -27.65 0.35 -28.55 0.9 L-31.7 3.7 -34.25 6.95 -34.85 7.85 Q-36.1 9.85 -37.05 12.15 L-37.2 12.55 -37.3 12.75 -37.15 12.85 -36.75 12.2 Q-34.65 8.7 -32.3 5.7 -27.25 -0.6 -22.8 -0.6 -21.8 -0.6 -21.3 -0.1 L-21.0 0.5 -20.9 0.75 -22.2 1.15 Q-24.85 1.85 -26.65 3.1 L-30.1 6.55 Q-35.45 12.45 -35.55 13.5 L-35.15 14.0 -35.05 14.15 -35.0 14.6 -34.15 13.4 -34.1 13.3 -33.9 13.0 Q-32.55 10.8 -28.35 6.85 -23.8 2.5 -20.2 1.95 L-17.3 1.9 -16.65 2.25 -15.65 3.05 -15.4 3.4 -15.15 3.95 -14.95 4.4 -14.6 5.4 -15.4 5.3 -17.15 5.4 Q-18.6 5.4 -21.1 6.25 -23.85 7.15 -26.25 8.85 -28.7 10.5 -30.55 12.4 L-34.65 15.95 -34.6 16.5 -34.6 16.55" fill="url(#gradient0)" fill-rule="evenodd" stroke="none"/>
    <path d="M-20.9 0.75 L-20.75 1.15 Q-23.9 1.7 -29.2 6.85 -34.55 12.0 -34.95 13.8 L-35.05 14.15 -35.15 14.0 -35.55 13.5 Q-35.45 12.45 -30.1 6.55 L-26.65 3.1 Q-24.85 1.85 -22.2 1.15 L-20.9 0.75 M-14.6 5.4 L-14.5 6.0 -15.4 5.95 -16.55 6.15 -16.4 6.05 -17.15 6.2 -17.5 6.25 -18.55 6.45 -19.55 6.7 -20.55 6.9 -22.25 7.5 -23.85 8.3 -25.45 9.4 -27.0 10.45 -27.95 11.1 -29.0 11.9 -30.45 13.1 -31.3 13.85 -32.3 14.65 -33.35 15.55 -34.6 16.5 -34.65 15.95 -30.55 12.4 Q-28.7 10.5 -26.25 8.85 -23.85 7.15 -21.1 6.25 -18.6 5.4 -17.15 5.4 L-15.4 5.3 -14.6 5.4 M-19.05 7.15 L-18.75 6.95 -18.1 6.7 -18.2 6.75 -18.8 7.0 -19.05 7.15" fill="#e0cbcb" fill-rule="evenodd" stroke="none"/>
    <path d="M-14.5 6.0 L-14.45 6.55 -14.45 6.65 -14.35 8.25 Q-14.25 10.2 -14.5 12.6 L-14.8 14.05 -14.9 14.7 -15.15 15.7 -15.45 16.55 -15.85 17.55 -16.8 12.6 -17.15 11.15 -17.3 10.55 -17.4 10.4 -17.65 9.85 -18.05 9.05 -18.25 8.7 -18.9 8.0 -19.25 7.75 -19.35 7.65 -19.5 7.4 -19.45 7.35 -19.05 7.15 -18.8 7.0 -18.2 6.75 -18.1 6.7 -18.05 6.7 -17.85 6.6 -17.2 6.4 -17.15 6.4 -16.55 6.15 -15.4 5.95 -14.5 6.0 M-22.1 8.2 L-20.65 7.45 -19.95 7.95 -20.8 13.5 -22.1 8.2 M-24.9 11.2 L-25.4 10.6 -24.7 9.8 -24.9 11.2" fill="#cca9a9" fill-rule="evenodd" stroke="none"/>
  </g>
  <defs>
    <radialGradient cx="0" cy="0" gradientTransform="matrix(0.0193, 0.0, 0.0, 0.0193, -29.1, -3.6)" gradientUnits="userSpaceOnUse" id="gradient0" r="819.2" spreadMethod="pad">
      <stop offset="0.47843137254901963" stop-color="#ffffff"></stop>
      <stop offset="0.8823529411764706" stop-color="#f2eaea"></stop>
    </radialGradient>
  </defs>
</svg>