<?xml version="1.0" encoding="UTF-8" standalone="no"?>
<svg xmlns:xlink="http://www.w3.org/1999/xlink" height="119.2px" width="106.05px" xmlns="http://www.w3.org/2000/svg">
  <g transform="matrix(1.0, 0.0, 0.0, 1.0, -0.05, 1)">
    <path d="M104.9 60.9 Q104.55 62.9 103.8 65.0 101.95 69.95 97.55 75.4 L94.1 79.3 91.15 81.85 94.75 81.65 Q97.1 81.6 99.35 82.65 101.6 83.65 102.2 87.35 101.7 86.7 100.45 86.25 99.2 85.8 91.85 87.85 L84.2 89.8 82.65 90.05 78.9 89.55 79.05 92.8 Q79.05 95.35 78.4 97.55 77.5 100.45 75.4 102.7 L74.1 103.95 73.05 104.75 71.0 105.85 73.45 106.3 74.1 106.3 74.3 106.3 78.5 105.8 Q80.5 105.2 81.85 104.1 L82.6 103.35 83.1 102.75 Q84.1 101.5 84.2 100.6 84.25 99.45 82.9 98.15 L81.55 97.2 80.45 97.05 Q79.4 97.2 78.9 98.1 L78.85 98.15 78.8 98.05 Q78.8 96.9 79.8 95.8 80.85 94.65 82.55 94.45 L83.3 94.4 Q87.5 94.4 89.55 99.9 90.8 103.3 90.8 105.85 90.8 107.55 89.35 109.55 L87.1 112.05 Q82.65 116.3 76.35 117.15 L76.3 117.15 75.25 117.2 74.45 117.2 Q69.55 117.15 64.15 115.25 57.7 112.9 54.85 109.0 52.0 105.1 51.45 101.95 L49.55 101.75 48.0 101.65 Q44.1 101.65 42.25 103.9 41.15 105.2 40.8 107.15 40.85 108.65 41.8 110.0 42.55 111.75 44.75 113.85 L45.1 114.15 45.05 114.15 43.3 113.9 41.75 113.7 Q40.65 113.5 39.65 113.1 36.65 111.8 34.95 108.65 L34.55 107.8 Q32.9 104.2 32.9 99.55 32.9 94.1 35.25 90.95 37.4 88.05 41.5 86.5 42.5 86.05 43.65 85.75 L43.85 85.7 46.5 85.1 44.95 83.35 44.65 83.15 Q43.45 82.55 40.95 82.85 40.75 83.05 37.6 82.85 L35.3 82.65 Q32.0 82.65 30.15 75.2 29.2 71.5 28.95 67.75 28.95 64.3 30.45 58.75 L31.9 52.95 Q26.55 53.25 19.85 50.1 L18.25 49.3 17.45 48.85 17.0 48.6 14.35 47.0 Q12.9 45.25 12.25 43.45 L14.35 44.5 Q17.5 46.1 20.1 46.1 22.3 46.1 24.2 45.0 L24.6 44.75 Q26.5 43.5 27.1 43.4 L26.5 42.65 Q23.9 39.5 20.85 37.55 16.55 34.8 11.35 34.4 L8.9 34.35 1.05 34.7 3.55 31.95 3.7 31.9 6.65 30.6 Q9.2 29.6 11.75 28.95 L15.1 28.15 19.4 27.5 Q28.4 27.75 34.55 31.2 37.9 33.0 40.45 35.8 L41.85 37.55 43.5 40.05 44.35 40.0 46.1 39.85 47.25 39.85 49.25 40.25 48.8 39.1 Q48.55 38.35 48.55 36.95 48.6 35.55 48.85 34.8 L49.05 34.35 48.2 33.35 Q44.95 29.75 43.8 27.6 42.2 24.6 41.9 20.9 L41.8 18.95 Q41.8 17.15 42.45 15.3 43.55 12.05 46.6 8.55 L47.55 7.5 48.15 6.9 Q50.9 4.05 54.85 1.1 L55.85 0.35 56.3 0.0 56.05 0.95 Q55.1 5.05 55.05 8.85 54.95 12.65 57.6 17.1 58.65 18.85 62.3 23.3 L64.8 21.45 67.0 19.4 67.6 18.85 69.05 17.25 70.2 15.75 Q71.15 14.2 71.4 12.65 L71.45 12.5 71.75 9.8 72.2 10.5 Q73.15 12.35 73.75 16.35 L74.05 19.0 74.2 20.45 74.25 21.7 74.35 25.75 Q74.35 29.2 73.6 31.45 72.8 33.7 70.6 36.85 71.9 41.15 71.9 46.25 71.9 49.05 71.15 51.45 72.6 49.75 72.8 48.05 L73.05 41.85 Q72.9 38.9 75.35 35.4 76.85 33.25 78.7 32.05 L79.75 31.45 Q78.15 33.9 78.15 36.3 L78.15 36.95 78.15 37.0 78.15 37.25 78.15 37.3 Q78.35 40.25 82.0 45.65 84.55 49.4 85.4 52.1 85.8 53.45 85.8 54.5 85.8 56.9 85.15 58.8 L85.05 59.2 84.5 60.35 Q81.95 65.05 75.35 65.4 79.4 66.6 84.9 66.0 89.55 65.45 93.8 62.7 L94.8 62.0 95.4 61.55 Q100.4 57.75 101.65 52.8 L102.2 50.65 103.0 46.1 104.05 49.7 104.15 50.55 Q105.1 53.45 105.1 58.0 L104.9 60.9 M103.5 62.0 L103.95 57.9 Q103.95 56.15 103.15 51.75 103.2 55.85 97.5 61.0 L95.9 62.35 93.25 64.25 Q88.15 67.4 82.8 67.4 76.55 67.4 72.2 65.6 L71.45 65.25 70.85 65.1 66.5 63.35 Q63.3 62.0 61.75 61.75 L61.15 61.65 Q57.85 62.85 53.75 64.4 L52.3 64.95 51.4 65.3 Q50.9 65.45 50.35 65.7 L49.9 65.85 49.5 66.0 Q47.35 66.9 45.8 68.05 L45.0 68.7 Q43.15 70.25 42.3 72.2 40.4 76.3 40.35 78.1 L40.35 80.5 42.15 78.95 47.05 75.7 47.6 75.35 Q51.55 72.7 54.35 71.3 57.05 69.85 58.65 69.65 60.25 69.4 62.55 70.4 L64.25 71.2 Q66.05 72.15 68.2 73.75 L71.8 76.35 Q75.75 79.05 78.85 80.7 83.0 82.9 87.05 81.75 L87.65 81.55 90.85 80.1 Q93.1 78.9 94.9 77.25 97.8 74.5 99.7 70.75 L102.65 64.6 102.8 64.2 103.5 62.0 M69.25 55.35 L66.4 58.05 62.95 60.75 Q64.3 60.95 68.7 62.7 L70.7 63.5 73.1 64.4 74.65 64.35 Q79.15 64.0 81.7 61.65 L83.0 60.2 83.95 58.4 84.15 57.9 Q84.6 56.3 84.6 54.4 84.6 52.05 80.0 44.55 78.1 41.5 77.35 39.4 76.4 36.85 77.05 35.65 L77.65 34.3 Q74.85 37.65 74.35 40.4 74.1 41.65 74.15 45.35 74.15 50.1 71.4 53.2 L70.6 54.0 69.95 54.5 69.75 54.65 69.25 55.35 M93.45 82.55 L89.65 83.3 86.2 84.1 84.65 84.45 82.6 84.2 Q79.2 83.25 74.6 79.5 75.3 80.15 76.25 82.15 77.15 84.2 78.1 88.4 L82.45 88.95 84.5 88.85 Q87.9 88.55 90.8 87.2 92.5 86.35 95.6 85.65 L100.95 85.4 Q100.9 85.0 100.25 84.15 98.65 82.15 97.1 82.15 L93.45 82.55 M88.75 101.65 L88.35 100.45 87.95 99.35 Q86.45 95.55 84.95 95.5 L82.2 95.65 82.1 95.65 Q81.2 95.85 81.4 96.0 L81.35 96.05 81.9 96.3 Q85.3 97.8 85.3 100.1 85.3 101.15 84.5 102.45 L83.8 103.5 82.9 104.5 Q81.0 106.5 78.1 106.95 L76.3 107.1 74.4 107.05 73.65 107.0 72.8 106.95 Q71.1 106.7 69.95 106.25 67.75 105.35 66.3 103.9 L64.95 102.25 64.25 101.15 Q62.3 97.65 62.3 94.15 L62.4 92.4 Q62.7 90.3 63.6 88.25 64.7 85.65 64.8 82.75 L64.8 81.9 Q64.75 78.45 63.3 75.35 62.0 72.65 59.6 71.85 L58.7 71.6 Q56.95 71.85 55.35 72.4 L53.1 73.3 52.25 73.7 Q50.15 74.85 47.45 76.8 L49.55 76.65 50.0 76.65 Q53.2 76.8 54.4 78.85 L54.95 80.4 53.9 79.3 53.7 79.15 Q52.0 77.9 50.45 77.65 L47.3 78.0 46.5 78.3 46.45 78.3 46.3 78.35 Q45.6 78.7 44.6 79.35 L44.2 79.65 43.75 79.9 42.1 81.3 43.35 81.8 44.85 82.6 Q46.4 83.5 47.15 84.35 L47.55 84.95 47.75 84.95 51.35 84.65 54.7 83.5 55.0 82.15 55.05 81.8 55.05 82.55 Q55.05 85.25 54.1 88.0 L53.85 88.8 Q52.15 93.95 52.15 96.7 52.15 98.85 52.45 100.7 L52.75 102.25 Q53.35 104.6 54.9 107.05 56.4 109.45 62.65 113.3 68.6 116.95 74.8 116.25 L75.15 116.2 75.35 116.2 76.0 116.1 Q82.05 115.05 86.15 111.3 L88.55 108.65 Q89.65 107.05 89.65 105.85 89.65 104.4 88.75 101.65 M65.5 22.2 L62.9 24.0 63.45 24.65 65.7 27.55 67.95 30.9 69.25 33.3 70.2 35.6 71.5 32.9 Q73.3 29.2 73.3 25.65 L73.15 23.3 72.95 21.0 72.8 19.85 72.7 18.85 72.2 14.85 70.4 17.5 68.9 19.2 67.15 20.85 65.5 22.2 M54.15 9.55 L54.05 7.5 Q54.05 5.85 54.2 5.05 L54.95 2.3 55.05 2.15 55.0 2.2 54.85 2.3 Q50.6 5.4 47.8 8.45 L46.05 10.55 Q42.7 14.95 42.7 18.9 L42.75 20.5 42.85 21.6 Q43.25 24.9 44.7 27.45 45.7 29.15 49.15 32.9 L50.45 34.6 Q53.0 37.95 53.55 39.2 55.35 43.2 55.55 49.0 L55.55 50.3 Q55.55 55.7 51.95 60.3 L51.7 60.6 48.0 64.35 45.9 66.25 44.8 67.2 44.4 67.5 Q39.4 71.7 37.35 75.6 35.6 78.95 38.65 82.3 L38.7 82.4 38.7 82.3 38.6 79.1 Q38.6 74.55 41.85 71.15 43.0 69.9 44.95 68.5 L49.25 65.75 49.3 65.7 49.9 65.35 51.35 64.55 51.75 64.35 54.25 63.0 61.2 59.5 65.2 57.55 Q66.95 56.7 69.2 53.55 L69.3 53.35 69.8 52.35 Q70.85 49.8 71.05 46.95 71.25 43.55 69.7 38.25 L68.25 34.1 Q67.4 32.0 66.6 30.9 L65.2 28.9 63.05 25.8 60.8 22.65 Q54.85 16.9 54.15 9.55 M49.7 39.2 L50.2 40.6 Q52.7 41.55 54.0 43.1 53.5 41.0 52.55 39.2 51.7 37.55 49.9 35.35 49.55 36.05 49.5 37.25 49.45 38.4 49.7 39.2 M52.85 43.8 L52.45 43.15 Q50.45 40.3 45.7 41.1 L44.3 41.35 44.2 41.35 Q45.25 43.5 45.9 45.85 46.8 49.15 46.8 52.85 L46.75 54.5 Q48.2 55.5 48.75 56.85 L48.85 57.1 Q49.3 58.3 49.25 59.85 49.15 61.5 47.75 63.3 50.55 61.6 52.2 59.15 L53.6 56.35 Q54.5 53.7 54.55 48.7 L54.55 48.6 Q54.65 46.55 52.85 43.8 M41.55 39.65 L40.8 38.5 37.7 34.9 36.9 34.2 Q26.75 25.6 9.4 31.35 L5.9 32.6 3.05 33.8 8.6 33.5 10.7 33.4 Q17.05 33.05 22.7 37.4 L24.2 38.65 27.0 41.55 27.7 42.4 Q30.2 45.5 31.85 49.15 33.05 51.9 33.05 52.75 L32.55 55.45 31.5 59.1 Q29.95 64.25 29.95 67.75 29.95 71.6 30.8 74.2 31.75 77.15 34.55 81.0 36.8 70.2 41.0 64.45 L42.85 61.8 43.85 60.35 44.05 60.05 45.45 57.35 45.65 55.9 45.75 52.65 Q45.75 49.45 44.25 45.3 L44.05 44.75 Q43.0 41.95 41.55 39.65 M24.2 46.25 Q21.65 47.35 20.0 47.35 18.3 47.35 17.0 46.7 L15.2 46.05 Q17.65 48.65 22.2 50.0 L24.3 50.55 Q29.3 51.3 31.65 52.0 L31.8 52.05 30.95 49.8 30.55 48.95 Q29.4 46.6 27.85 44.45 L25.4 45.7 24.2 46.25 M42.1 63.75 L39.2 67.8 Q36.95 71.55 36.2 76.25 L36.45 75.75 Q38.55 71.95 42.55 68.65 L44.7 66.55 45.05 66.15 46.4 64.15 46.85 63.1 47.15 62.0 Q47.8 58.7 47.45 57.55 47.05 56.4 46.6 55.95 46.2 58.05 45.25 59.35 L44.45 60.5 43.95 61.2 42.1 63.75 M49.05 86.2 L47.45 86.5 44.85 86.9 43.0 87.4 Q34.05 90.15 34.05 99.55 L34.05 100.45 Q34.15 103.9 35.0 106.05 L35.55 107.15 Q36.55 108.9 38.75 110.6 41.1 112.5 42.75 112.75 L40.55 110.15 Q39.75 109.1 39.95 107.15 40.2 104.65 42.1 102.15 43.25 100.7 46.0 100.1 L49.3 99.95 51.35 100.35 51.0 96.7 Q51.0 93.5 53.1 87.55 L54.0 84.95 52.3 85.55 49.05 86.2 M76.7 87.35 L75.65 83.5 73.6 80.1 71.95 77.65 71.9 77.6 67.25 73.4 Q65.8 72.35 64.45 71.85 L63.8 71.65 61.7 71.35 61.45 71.35 Q65.35 73.4 65.35 82.5 L65.35 83.3 Q65.15 85.1 64.35 88.15 L64.05 89.55 63.9 90.2 Q63.35 92.6 63.35 94.2 63.35 95.25 63.7 97.2 64.05 99.15 65.7 101.4 L67.65 103.75 67.75 103.8 Q70.6 104.65 72.7 103.45 L74.0 102.45 74.7 101.6 Q76.45 99.25 77.0 96.05 L77.2 92.6 76.7 87.35" fill="#a37276" fill-rule="evenodd" stroke="none"/>
    <path d="M53.75 64.4 Q57.85 62.85 61.15 61.65 L61.75 61.75 Q63.3 62.0 66.5 63.35 L70.85 65.1 71.45 65.25 72.2 65.6 Q76.55 67.4 82.8 67.4 88.15 67.4 93.25 64.25 L95.9 62.35 97.5 61.0 Q103.2 55.85 103.15 51.75 103.95 56.15 103.95 57.9 L103.5 62.0 Q102.15 63.05 100.95 64.05 L96.5 68.0 96.5 67.75 97.75 65.9 98.85 63.85 98.6 63.85 91.1 70.4 88.4 72.55 Q85.75 74.0 79.15 73.45 L72.75 72.5 76.75 71.4 82.0 69.9 81.75 69.9 Q77.8 70.25 71.25 68.5 L71.1 68.45 68.05 67.65 62.95 66.35 Q57.85 65.1 53.75 64.4 M71.4 53.2 Q74.15 50.1 74.15 45.35 74.1 41.65 74.35 40.4 74.85 37.65 77.65 34.3 L77.05 35.65 Q76.4 36.85 77.35 39.4 L77.15 40.55 Q77.15 42.6 77.75 44.75 L78.35 47.5 Q78.35 49.4 76.65 50.95 L71.6 54.3 70.85 54.75 71.4 53.2 M89.85 72.3 L90.6 71.8 92.05 70.75 91.85 71.6 92.1 71.6 94.45 70.35 96.9 68.75 96.9 69.0 Q96.3 70.55 92.25 73.15 L89.55 74.65 Q87.15 75.75 85.8 75.25 L89.85 72.3 M92.05 70.75 Q92.5 69.75 94.0 69.15 L92.05 70.75 M84.5 102.45 L85.6 101.5 85.6 101.75 84.1 103.85 81.85 106.7 83.8 105.5 84.95 104.75 86.3 103.65 86.3 103.9 85.45 105.3 81.65 110.85 Q79.9 112.35 76.0 112.85 L75.2 112.95 74.9 112.95 72.15 113.05 69.15 112.35 66.5 111.35 70.9 111.05 74.5 110.2 74.65 110.1 74.75 110.0 74.65 110.1 74.45 110.15 Q72.95 110.7 70.1 109.25 67.3 107.8 66.05 106.05 L66.3 106.05 69.0 107.05 72.8 107.05 72.8 106.95 73.65 107.0 74.4 107.05 76.3 107.1 78.1 106.95 Q81.0 106.5 82.9 104.5 L83.8 103.5 84.5 102.45 M42.75 20.5 L42.7 18.9 Q42.7 14.95 46.05 10.55 L47.8 8.45 Q50.6 5.4 54.85 2.3 L55.0 2.2 55.05 2.15 54.95 2.3 54.2 5.05 Q54.05 5.85 54.05 7.5 L54.15 9.55 53.95 10.2 Q52.5 15.2 50.2 17.6 L49.4 18.3 49.8 16.1 49.9 15.7 Q50.4 13.8 50.85 12.75 L50.85 12.5 49.45 14.75 Q46.8 18.7 44.55 20.25 L44.55 18.75 45.75 15.65 Q44.55 16.35 43.8 17.65 42.95 18.95 42.9 20.5 L42.75 20.5 M51.7 60.6 L51.95 60.3 Q55.55 55.7 55.55 50.3 L55.55 49.0 Q55.35 43.2 53.55 39.2 53.0 37.95 50.45 34.6 L49.4 32.05 Q47.75 27.9 47.75 27.25 L51.3 31.8 51.55 31.8 51.1 29.3 Q50.6 27.45 50.6 26.25 50.6 23.85 51.1 22.1 L51.25 21.6 51.8 19.0 52.05 19.0 Q52.55 21.35 58.8 29.55 61.5 33.1 62.65 35.55 63.85 38.1 63.4 39.5 L63.65 39.5 64.1 31.55 64.15 31.65 65.6 35.5 Q66.75 39.25 66.75 41.55 66.75 46.2 63.5 51.4 L63.4 51.6 60.25 55.9 59.75 56.4 59.95 54.75 60.25 52.55 60.55 50.7 60.75 49.5 60.75 48.5 60.2 50.55 59.4 52.7 Q57.25 57.85 53.05 61.0 L51.05 62.3 50.85 62.65 50.85 62.4 51.05 62.3 51.7 60.6 M52.85 43.8 Q53.25 45.1 53.25 47.1 L53.25 48.25 53.2 49.25 52.55 51.1 52.55 50.85 51.9 49.05 51.3 47.75 Q51.3 49.1 49.65 54.5 L49.65 54.25 Q49.95 53.15 48.45 49.05 L47.35 46.3 Q46.45 44.3 45.55 43.35 L48.65 43.6 48.65 43.35 46.3 41.55 45.7 41.1 Q50.45 40.3 52.45 43.15 L52.85 43.8 M41.55 39.65 L41.9 41.0 41.9 43.1 41.65 43.1 41.4 42.8 36.6 36.85 Q36.6 37.85 37.8 40.7 L38.75 43.45 39.0 45.3 Q39.0 47.8 38.55 49.4 37.35 46.5 34.9 42.9 L34.25 41.95 Q32.0 38.85 30.6 38.05 L30.6 38.3 32.2 41.3 34.0 44.8 33.75 44.8 30.3 40.65 27.05 36.85 Q24.5 33.9 22.65 32.9 20.65 31.85 17.05 31.55 L9.4 31.35 Q26.75 25.6 36.9 34.2 L37.7 34.9 40.8 38.5 41.55 39.65 M79.0 49.0 L79.1 48.8 Q80.0 47.35 80.05 46.0 L80.25 46.0 Q80.25 47.15 80.65 48.1 L81.0 49.55 Q81.0 52.45 80.35 53.85 79.65 55.4 77.85 56.4 77.4 56.65 76.9 56.85 L77.2 56.2 Q78.6 52.9 78.8 51.55 76.4 54.75 74.75 54.75 L74.75 54.5 Q75.7 53.95 77.5 51.55 L77.65 51.35 79.0 49.0 M63.8 71.65 L64.45 71.85 Q65.8 72.35 67.25 73.4 L71.9 77.6 71.95 77.65 73.6 80.1 75.65 83.5 76.7 87.35 76.45 88.05 75.75 89.5 74.25 85.5 72.8 82.0 72.8 82.25 73.75 84.7 Q74.25 86.6 74.25 88.1 74.25 90.15 73.55 92.3 L73.2 93.15 72.6 94.45 71.0 97.0 Q69.8 98.55 68.25 99.55 68.25 98.45 69.1 96.3 69.85 94.4 69.9 92.75 L69.9 92.4 69.9 91.05 69.4 90.15 69.3 90.4 69.15 90.4 67.35 92.7 65.55 94.5 67.4 90.05 68.35 86.75 68.35 86.6 68.5 84.35 68.75 84.35 69.35 86.55 70.6 87.95 Q71.1 81.95 68.9 77.9 66.65 73.85 65.35 72.85 L64.5 72.2 63.8 71.65 M56.7 73.55 L56.5 73.4 55.9 73.0 55.85 72.95 56.65 72.8 57.6 72.85 59.6 73.15 Q60.0 73.25 59.45 73.3 L58.1 73.25 59.95 73.6 Q60.75 74.1 61.65 75.35 63.6 78.15 63.65 81.5 L63.65 81.6 63.6 84.05 62.65 86.3 62.65 82.9 62.4 82.9 60.95 88.0 Q59.5 92.55 59.5 93.05 L59.5 92.8 60.5 82.2 60.3 79.55 59.45 76.9 59.4 76.85 Q58.7 75.1 56.7 73.55" fill="#fffcfc" fill-rule="evenodd" stroke="none"/>
    <path d="M53.75 64.4 Q57.85 65.1 62.95 66.35 L68.05 67.65 71.1 68.45 71.25 68.5 Q77.8 70.25 81.75 69.9 L82.0 69.9 76.75 71.4 72.75 72.5 79.15 73.45 Q85.75 74.0 88.4 72.55 L91.1 70.4 98.6 63.85 98.85 63.85 97.75 65.9 96.5 67.75 96.5 68.0 100.95 64.05 Q102.15 63.05 103.5 62.0 L102.8 64.2 102.65 64.6 99.7 70.75 Q97.8 74.5 94.9 77.25 93.1 78.9 90.85 80.1 L87.5 80.5 86.05 80.5 81.25 80.25 Q83.7 79.0 84.9 78.05 L82.5 78.05 79.8 78.8 78.4 78.8 71.6 73.95 70.4 73.05 Q67.25 70.7 64.7 69.35 L63.6 68.8 Q60.5 67.25 58.3 67.25 57.95 67.25 55.15 68.75 L53.0 69.85 50.15 71.1 50.15 70.85 52.05 68.75 52.2 68.55 Q54.1 66.45 54.5 66.25 L54.25 66.25 50.85 67.5 50.55 67.6 48.75 68.25 45.8 68.25 45.8 68.05 Q47.35 66.9 49.5 66.0 L49.9 65.85 50.35 65.7 Q50.9 65.45 51.4 65.3 L52.3 64.95 53.75 64.4 M84.15 57.9 L83.75 58.35 81.95 60.1 Q79.25 62.25 77.4 62.65 L74.75 62.65 74.75 62.4 76.35 60.45 77.65 58.7 77.65 58.3 Q76.9 59.2 75.25 60.05 L72.35 61.0 72.35 60.75 74.75 58.05 71.95 58.55 70.35 58.9 69.55 59.0 67.0 58.8 69.25 55.35 69.75 54.65 69.95 54.5 70.6 54.0 71.4 53.2 70.85 54.75 71.6 54.3 76.65 50.95 Q78.35 49.4 78.35 47.5 L77.75 44.75 Q77.15 42.6 77.15 40.55 L77.35 39.4 Q78.1 41.5 80.0 44.55 84.6 52.05 84.6 54.4 84.6 56.3 84.15 57.9 M89.85 72.3 L85.8 75.25 Q87.15 75.75 89.55 74.65 L92.25 73.15 Q96.3 70.55 96.9 69.0 L96.9 68.75 94.45 70.35 92.1 71.6 91.85 71.6 92.05 70.75 90.6 71.8 89.85 72.3 M92.05 70.75 L94.0 69.15 Q92.5 69.75 92.05 70.75 M93.45 82.55 L93.55 82.55 Q96.4 83.2 96.9 84.1 L85.95 84.8 80.5 85.1 82.6 84.2 84.65 84.45 86.2 84.1 89.65 83.3 93.45 82.55 M84.5 102.45 Q85.3 101.15 85.3 100.1 85.3 97.8 81.9 96.3 L81.35 96.05 81.4 96.0 Q81.2 95.85 82.1 95.65 L82.2 95.65 84.95 95.5 Q86.45 95.55 87.95 99.35 L88.35 100.45 88.75 101.65 Q88.7 104.95 87.55 107.55 86.65 109.55 85.1 111.15 81.6 114.75 75.8 115.2 L75.2 115.25 75.1 115.25 74.15 115.25 Q68.6 115.25 66.1 113.9 62.6 112.05 60.4 106.35 L66.55 109.0 66.55 108.75 Q65.3 108.5 63.1 104.95 60.9 101.35 60.75 99.3 L61.0 99.3 64.35 101.85 64.95 102.25 66.3 103.9 Q67.75 105.35 69.95 106.25 71.1 106.7 72.8 106.95 L72.8 107.05 69.0 107.05 66.3 106.05 66.05 106.05 Q67.3 107.8 70.1 109.25 72.95 110.7 74.45 110.15 L74.65 110.1 74.75 110.0 74.65 110.1 74.5 110.2 70.9 111.05 66.5 111.35 69.15 112.35 72.15 113.05 74.9 112.95 75.2 112.95 76.0 112.85 Q79.9 112.35 81.65 110.85 L85.45 105.3 86.3 103.9 86.3 103.65 84.95 104.75 83.8 105.5 81.85 106.7 84.1 103.85 85.6 101.75 85.6 101.5 84.5 102.45 M53.1 73.3 L55.35 72.4 Q56.95 71.85 58.7 71.6 L59.6 71.85 Q62.0 72.65 63.3 75.35 64.75 78.45 64.8 81.9 L64.8 82.75 Q64.7 85.65 63.6 88.25 62.7 90.3 62.4 92.4 L61.65 93.5 58.8 97.85 58.6 96.4 58.65 95.1 59.3 93.75 Q58.05 95.2 57.85 98.55 L57.75 98.6 57.6 98.8 Q56.35 97.4 56.1 96.35 L56.0 93.05 Q56.0 90.8 56.7 86.65 L57.35 81.1 Q57.35 79.4 54.95 77.4 53.3 76.05 52.1 75.6 L51.35 75.4 Q51.65 74.6 53.1 73.3 M73.15 23.3 Q72.0 24.35 68.75 25.05 L64.6 25.05 64.6 24.8 65.6 24.35 Q66.15 24.0 67.25 23.55 L67.35 23.5 72.95 21.0 73.15 23.3 M72.8 19.85 L70.8 20.65 68.0 21.6 67.2 21.85 Q66.1 22.25 65.3 22.6 L65.5 22.2 67.15 20.85 68.9 19.2 70.4 17.5 72.2 14.85 72.7 18.85 72.8 19.85 M42.75 20.5 L42.9 20.5 Q42.95 18.95 43.8 17.65 44.55 16.35 45.75 15.65 L44.55 18.75 44.55 20.25 Q46.8 18.7 49.45 14.75 L50.85 12.5 50.85 12.75 Q50.4 13.8 49.9 15.7 L49.8 16.1 49.4 18.3 50.2 17.6 Q52.5 15.2 53.95 10.2 L54.15 9.55 Q54.85 16.9 60.8 22.65 L63.05 25.8 65.2 28.9 66.6 30.9 Q67.4 32.0 68.25 34.1 L69.7 38.25 Q71.25 43.55 71.05 46.95 70.85 49.8 69.8 52.35 L69.3 53.35 69.2 53.55 Q66.95 56.7 65.2 57.55 L61.2 59.5 54.25 63.0 51.75 64.35 51.35 64.55 49.9 65.35 49.3 65.7 49.7 65.45 49.15 65.6 47.0 66.25 45.9 66.25 48.0 64.35 51.7 60.6 51.05 62.3 50.85 62.4 50.85 62.65 51.05 62.3 53.05 61.0 Q57.25 57.85 59.4 52.7 L60.2 50.55 60.75 48.5 60.75 49.5 60.55 50.7 60.25 52.55 59.95 54.75 59.75 56.4 60.25 55.9 63.4 51.6 63.5 51.4 Q66.75 46.2 66.75 41.55 66.75 39.25 65.6 35.5 L64.15 31.65 64.1 31.55 63.65 39.5 63.4 39.5 Q63.85 38.1 62.65 35.55 61.5 33.1 58.8 29.55 52.55 21.35 52.05 19.0 L51.8 19.0 51.25 21.6 51.1 22.1 Q50.6 23.85 50.6 26.25 50.6 27.45 51.1 29.3 L51.55 31.8 51.3 31.8 47.75 27.25 Q47.75 27.9 49.4 32.05 L50.45 34.6 49.15 32.9 Q45.7 29.15 44.7 27.45 43.25 24.9 42.85 21.6 L42.75 20.5 M45.7 41.1 L46.3 41.55 48.65 43.35 48.65 43.6 45.55 43.35 Q46.45 44.3 47.35 46.3 L48.45 49.05 Q49.95 53.15 49.65 54.25 L49.65 54.5 Q51.3 49.1 51.3 47.75 L51.9 49.05 52.55 50.85 52.55 51.1 53.2 49.25 53.25 48.25 53.25 47.1 Q53.25 45.1 52.85 43.8 54.65 46.55 54.55 48.6 L54.55 48.7 Q54.5 53.7 53.6 56.35 L52.2 59.15 Q50.55 61.6 47.75 63.3 49.15 61.5 49.25 59.85 49.3 58.3 48.85 57.1 L48.75 56.85 Q48.2 55.5 46.75 54.5 L46.8 52.85 Q46.8 49.15 45.9 45.85 45.25 43.5 44.2 41.35 L44.3 41.35 45.7 41.1 M9.4 31.35 L17.05 31.55 Q20.65 31.85 22.65 32.9 24.5 33.9 27.05 36.85 L30.3 40.65 33.75 44.8 34.0 44.8 32.2 41.3 30.6 38.3 30.6 38.05 Q32.0 38.85 34.25 41.95 L34.9 42.9 Q37.35 46.5 38.55 49.4 39.0 47.8 39.0 45.3 L38.75 43.45 37.8 40.7 Q36.6 37.85 36.6 36.85 L41.4 42.8 41.65 43.1 41.9 43.1 41.9 41.0 41.55 39.65 Q43.0 41.95 44.05 44.75 L44.25 45.3 Q45.75 49.45 45.75 52.65 L45.65 55.9 45.3 56.35 Q46.3 54.45 44.0 51.25 L42.25 49.15 40.25 47.5 40.25 47.75 Q40.95 48.9 40.25 52.55 L39.55 55.15 Q39.0 56.45 38.3 56.6 38.25 56.05 37.4 55.05 36.45 53.9 35.65 53.75 35.65 54.7 34.6 57.45 L33.25 60.5 33.0 60.0 Q33.15 58.35 32.55 55.45 L33.05 52.75 Q33.05 51.9 31.85 49.15 30.2 45.5 27.7 42.4 L27.0 41.55 24.2 38.65 22.7 37.4 Q17.05 33.05 10.7 33.4 L8.6 33.5 3.05 33.8 5.9 32.6 9.4 31.35 M79.0 49.0 L77.65 51.35 77.5 51.55 Q75.7 53.95 74.75 54.5 L74.75 54.75 Q76.4 54.75 78.8 51.55 78.6 52.9 77.2 56.2 L76.9 56.85 Q77.4 56.65 77.85 56.4 79.65 55.4 80.35 53.85 81.0 52.45 81.0 49.55 L80.65 48.1 Q80.25 47.15 80.25 46.0 L80.05 46.0 Q80.0 47.35 79.1 48.8 L79.0 49.0 M22.2 50.0 Q17.65 48.65 15.2 46.05 L17.0 46.7 Q18.3 47.35 20.0 47.35 21.65 47.35 24.2 46.25 L22.15 47.75 26.75 47.9 Q25.85 48.9 24.05 49.55 L22.2 50.0 M30.95 49.8 L31.8 52.05 31.65 52.0 30.95 49.8 M45.05 66.15 L45.05 65.75 46.4 64.15 45.05 66.15 M49.05 86.2 L49.4 86.3 49.4 86.55 47.6 87.55 41.9 90.85 42.15 90.85 Q42.45 90.3 44.9 89.75 L47.85 89.3 48.7 89.25 50.85 89.5 50.85 89.9 48.2 92.0 47.0 92.85 Q43.85 95.3 43.1 96.9 43.6 95.65 44.8 93.85 46.15 91.9 47.0 91.35 L46.75 91.35 42.5 94.0 Q40.85 95.1 39.8 95.95 38.15 97.2 37.8 97.85 L37.8 97.65 Q37.8 96.75 38.3 95.75 L36.4 99.25 Q35.15 101.75 34.75 102.0 L34.25 100.85 34.05 100.45 34.05 99.55 Q34.05 90.15 43.0 87.4 L44.85 86.9 47.45 86.5 49.05 86.2 M76.7 87.35 L77.2 92.6 77.0 96.05 Q76.45 99.25 74.7 101.6 L74.0 102.45 72.7 103.45 Q70.6 104.65 67.75 103.8 L67.65 103.75 65.7 101.4 Q64.05 99.15 63.7 97.2 63.35 95.25 63.35 94.2 63.35 92.6 63.9 90.2 L64.05 89.55 64.35 88.15 Q65.15 85.1 65.35 83.3 L65.35 82.5 Q65.35 73.4 61.45 71.35 L61.7 71.35 63.8 71.65 64.5 72.2 65.35 72.85 Q66.65 73.85 68.9 77.9 71.1 81.95 70.6 87.95 L69.35 86.55 68.75 84.35 68.5 84.35 68.35 86.6 68.35 86.75 67.4 90.05 65.55 94.5 67.35 92.7 69.15 90.4 69.3 90.4 69.4 90.15 69.9 91.05 69.9 92.4 69.9 92.75 Q69.85 94.4 69.1 96.3 68.25 98.45 68.25 99.55 69.8 98.55 71.0 97.0 L72.6 94.45 73.2 93.15 73.55 92.3 Q74.25 90.15 74.25 88.1 74.25 86.6 73.75 84.7 L72.8 82.25 72.8 82.0 74.25 85.5 75.75 89.5 76.45 88.05 76.7 87.35 M56.7 73.55 Q58.7 75.1 59.4 76.85 L59.45 76.9 60.3 79.55 60.5 82.2 59.5 92.8 59.5 93.05 Q59.5 92.55 60.95 88.0 L62.4 82.9 62.65 82.9 62.65 86.3 63.6 84.05 63.65 81.6 63.65 81.5 Q63.6 78.15 61.65 75.35 60.75 74.1 59.95 73.6 L58.1 73.25 59.45 73.3 Q60.0 73.25 59.6 73.15 L57.6 72.85 56.65 72.8 55.85 72.95 55.9 73.0 56.5 73.4 56.7 73.55 M60.4 106.35 L60.25 106.3 60.25 106.05 60.4 106.35" fill="#f1dbdb" fill-rule="evenodd" stroke="none"/>
    <path d="M90.85 80.1 L87.65 81.55 87.05 81.75 Q83.0 82.9 78.85 80.7 75.75 79.05 71.8 76.35 L68.2 73.75 Q66.05 72.15 64.25 71.2 L62.55 70.4 Q60.25 69.4 58.65 69.65 57.05 69.85 54.35 71.3 51.55 72.7 47.6 75.35 L47.05 75.7 42.15 78.95 40.35 80.5 40.35 78.1 Q40.4 76.3 42.3 72.2 43.15 70.25 45.0 68.7 L45.8 68.05 45.8 68.25 48.75 68.25 50.55 67.6 50.85 67.5 54.25 66.25 54.5 66.25 Q54.1 66.45 52.2 68.55 L52.05 68.75 50.15 70.85 50.15 71.1 53.0 69.85 55.15 68.75 Q57.95 67.25 58.3 67.25 60.5 67.25 63.6 68.8 L64.7 69.35 Q67.25 70.7 70.4 73.05 L71.6 73.95 78.4 78.8 79.8 78.8 82.5 78.05 84.9 78.05 Q83.7 79.0 81.25 80.25 L86.05 80.5 87.5 80.5 90.85 80.1 M84.15 57.9 L83.95 58.4 83.0 60.2 81.7 61.65 Q79.15 64.0 74.65 64.35 L73.1 64.4 70.7 63.5 68.7 62.7 Q64.3 60.95 62.95 60.75 L66.4 58.05 69.25 55.35 67.0 58.8 69.55 59.0 70.35 58.9 71.95 58.55 74.75 58.05 72.35 60.75 72.35 61.0 75.25 60.05 Q76.9 59.2 77.65 58.3 L77.65 58.7 76.35 60.45 74.75 62.4 74.75 62.65 77.4 62.65 Q79.25 62.25 81.95 60.1 L83.75 58.35 84.15 57.9 M82.6 84.2 L80.5 85.1 85.95 84.8 96.9 84.1 Q96.4 83.2 93.55 82.55 L93.45 82.55 97.1 82.15 Q98.65 82.15 100.25 84.15 100.9 85.0 100.95 85.4 L95.6 85.65 Q92.5 86.35 90.8 87.2 87.9 88.55 84.5 88.85 L82.45 88.95 78.1 88.4 Q77.15 84.2 76.25 82.15 75.3 80.15 74.6 79.5 79.2 83.25 82.6 84.2 M64.95 102.25 L64.35 101.85 61.0 99.3 60.75 99.3 Q60.9 101.35 63.1 104.95 65.3 108.5 66.55 108.75 L66.55 109.0 60.4 106.35 Q62.6 112.05 66.1 113.9 68.6 115.25 74.15 115.25 L75.1 115.25 75.2 115.25 75.8 115.2 Q81.6 114.75 85.1 111.15 86.65 109.55 87.55 107.55 88.7 104.95 88.75 101.65 89.65 104.4 89.65 105.85 89.65 107.05 88.55 108.65 L86.15 111.3 Q82.05 115.05 76.0 116.1 L75.35 116.2 75.15 116.2 74.8 116.25 Q68.6 116.95 62.65 113.3 56.4 109.45 54.9 107.05 53.35 104.6 52.75 102.25 L52.45 100.7 Q52.15 98.85 52.15 96.7 52.15 93.95 53.85 88.8 L54.1 88.0 Q55.05 85.25 55.05 82.55 L55.05 81.8 55.0 82.15 54.55 80.55 53.9 79.3 54.95 80.4 54.4 78.85 Q53.2 76.8 50.0 76.65 L49.55 76.65 47.45 76.8 Q50.15 74.85 52.25 73.7 L53.1 73.3 Q51.65 74.6 51.35 75.4 L52.1 75.6 Q53.3 76.05 54.95 77.4 57.35 79.4 57.35 81.1 L56.7 86.65 Q56.0 90.8 56.0 93.05 L56.1 96.35 Q56.35 97.4 57.6 98.8 L57.75 98.6 57.85 98.55 Q58.05 95.2 59.3 93.75 L58.65 95.1 58.6 96.4 58.8 97.85 61.65 93.5 62.4 92.4 62.3 94.15 Q62.3 97.65 64.25 101.15 L64.95 102.25 M51.35 84.65 L47.75 84.95 47.55 84.95 47.15 84.35 Q46.4 83.5 44.85 82.6 L43.35 81.8 42.1 81.3 43.75 79.9 44.2 79.65 45.65 79.5 46.05 79.5 46.5 79.55 Q48.65 79.75 50.4 81.25 52.05 82.6 52.05 83.4 52.05 84.2 51.35 84.65 M73.15 23.3 L73.3 25.65 Q73.3 29.2 71.5 32.9 L70.2 35.6 69.25 33.3 67.95 30.9 65.7 27.55 63.45 24.65 62.9 24.0 65.5 22.2 65.3 22.6 Q66.1 22.25 67.2 21.85 L68.0 21.6 70.8 20.65 72.8 19.85 72.95 21.0 67.35 23.5 67.25 23.55 Q66.15 24.0 65.6 24.35 L64.6 24.8 64.6 25.05 68.75 25.05 Q72.0 24.35 73.15 23.3 M49.7 39.2 Q49.45 38.4 49.5 37.25 49.55 36.05 49.9 35.35 51.7 37.55 52.55 39.2 53.5 41.0 54.0 43.1 52.7 41.55 50.2 40.6 L49.7 39.2 M32.55 55.45 Q33.15 58.35 33.0 60.0 L33.25 60.5 34.6 57.45 Q35.65 54.7 35.65 53.75 36.45 53.9 37.4 55.05 38.25 56.05 38.3 56.6 39.0 56.45 39.55 55.15 L40.25 52.55 Q40.95 48.9 40.25 47.75 L40.25 47.5 42.25 49.15 44.0 51.25 Q46.3 54.45 45.3 56.35 L45.65 55.9 45.45 57.35 44.05 60.05 43.85 60.35 42.85 61.8 41.0 64.45 Q36.8 70.2 34.55 81.0 31.75 77.15 30.8 74.2 29.95 71.6 29.95 67.75 29.95 64.25 31.5 59.1 L32.55 55.45 M22.2 50.0 L24.05 49.55 Q25.85 48.9 26.75 47.9 L22.15 47.75 24.2 46.25 25.4 45.7 27.85 44.45 Q29.4 46.6 30.55 48.95 L30.95 49.8 31.65 52.0 Q29.3 51.3 24.3 50.55 L22.2 50.0 M47.15 62.0 L47.0 62.15 47.0 58.8 Q46.75 59.0 46.5 59.0 L45.05 61.15 44.65 61.6 44.1 62.2 Q42.9 63.4 42.1 63.75 L43.95 61.2 44.45 60.5 45.25 59.35 Q46.2 58.05 46.6 55.95 47.05 56.4 47.45 57.55 47.8 58.7 47.15 62.0 M34.05 100.45 L34.25 100.85 34.75 102.0 Q35.15 101.75 36.4 99.25 L38.3 95.75 Q37.8 96.75 37.8 97.65 L37.8 97.85 Q38.15 97.2 39.8 95.95 40.85 95.1 42.5 94.0 L46.75 91.35 47.0 91.35 Q46.15 91.9 44.8 93.85 43.6 95.65 43.1 96.9 43.85 95.3 47.0 92.85 L48.2 92.0 50.85 89.9 50.85 89.5 48.7 89.25 47.85 89.3 44.9 89.75 Q42.45 90.3 42.15 90.85 L41.9 90.85 47.6 87.55 49.4 86.55 49.4 86.3 49.05 86.2 52.3 85.55 54.0 84.95 53.1 87.55 Q51.0 93.5 51.0 96.7 L51.35 100.35 49.3 99.95 46.0 100.1 Q43.25 100.7 42.1 102.15 40.2 104.65 39.95 107.15 39.75 109.1 40.55 110.15 L42.75 112.75 Q41.1 112.5 38.75 110.6 36.55 108.9 35.55 107.15 L35.0 106.05 Q34.15 103.9 34.05 100.45 M60.4 106.35 L60.25 106.05 60.25 106.3 60.4 106.35" fill="#dcb8b8" fill-rule="evenodd" stroke="none"/>
    <path d="M55.0 82.15 L54.7 83.5 51.35 84.65 Q52.05 84.2 52.05 83.4 52.05 82.6 50.4 81.25 48.65 79.75 46.5 79.55 L46.05 79.5 45.65 79.5 44.2 79.65 44.6 79.35 Q45.6 78.7 46.3 78.35 L46.45 78.3 46.5 78.3 47.3 78.0 50.45 77.65 Q52.0 77.9 53.7 79.15 L53.9 79.3 54.55 80.55 55.0 82.15 M49.3 65.7 L49.25 65.75 44.95 68.5 Q43.0 69.9 41.85 71.15 38.6 74.55 38.6 79.1 L38.7 82.3 38.7 82.4 38.65 82.3 Q35.6 78.95 37.35 75.6 39.4 71.7 44.4 67.5 L44.8 67.2 45.9 66.25 47.0 66.25 49.15 65.6 49.7 65.45 49.3 65.7 M45.05 66.15 L44.7 66.55 42.55 68.65 Q38.55 71.95 36.45 75.75 L36.2 76.25 Q36.95 71.55 39.2 67.8 L42.1 63.75 Q42.9 63.4 44.1 62.2 L44.65 61.6 45.05 61.15 46.5 59.0 Q46.75 59.0 47.0 58.8 L47.0 62.15 47.15 62.0 46.85 63.1 46.4 64.15 45.05 65.75 45.05 66.15" fill="#c4a0a0" fill-rule="evenodd" stroke="none"/>
  </g>
</svg>