<?xml version="1.0" encoding="UTF-8" standalone="no"?>
<svg xmlns:xlink="http://www.w3.org/1999/xlink" height="62.8px" width="122.55px" xmlns="http://www.w3.org/2000/svg">
  <g transform="matrix(1.0, 0.0, 0.0, 1.0, 41.15, -2)">
    <path d="M18.3 42.0 L18.55 42.1 23.85 44.1 15.5 44.2 15.5 44.05 15.4 43.55 0.25 42.4 Q-2.0 42.4 -3.4 43.55 L0.75 44.4 -0.55 44.7 -1.65 45.9 -1.55 46.65 Q-10.8 45.95 -13.2 45.1 L-13.45 43.45 Q-5.5 41.1 0.5 40.2 L2.6 41.05 8.8 42.05 18.3 42.0 M-7.95 34.35 Q-7.95 33.15 -7.4 32.15 L-2.1 32.4 -2.2 32.85 -2.1 34.05 -5.5 34.15 -7.95 34.35 M-3.2 25.6 L-11.25 25.3 -2.55 25.3 -3.2 25.6 M-8.25 20.65 L-6.35 19.95 -10.7 19.8 Q-10.7 19.25 -11.8 18.4 L-11.8 16.75 -6.5 16.65 Q-4.75 16.05 -2.75 15.8 L-2.75 15.4 -2.75 15.2 -2.15 15.15 -2.2 15.4 -1.85 15.7 0.9 15.55 7.0 15.9 9.15 16.0 -3.3 16.7 Q-4.8 16.9 -5.0 17.75 L-4.95 18.7 -3.3 19.35 1.1 19.35 9.1 18.65 18.7 18.2 19.5 18.05 Q19.9 17.85 19.9 16.95 19.9 16.1 19.55 15.95 L18.7 15.7 21.45 15.7 22.5 15.9 Q23.1 16.1 23.1 16.95 23.1 17.85 22.75 18.05 L22.0 18.2 11.7 18.55 11.8 18.65 Q5.85 19.5 4.0 20.4 L-8.25 20.65 M-1.9 13.0 Q-6.75 13.2 -9.95 13.95 L-10.3 13.65 -10.45 12.7 Q-10.45 11.85 -8.65 11.35 L-11.55 11.25 -11.25 11.05 -7.25 11.1 -6.3 10.95 11.0 9.8 15.05 9.5 Q16.65 9.6 17.9 10.1 L19.9 11.6 20.05 12.0 6.05 12.85 4.9 12.85 Q1.15 12.8 -1.9 13.0 M18.05 22.8 L18.0 23.35 18.05 23.85 10.95 23.95 11.0 22.85 14.85 23.1 18.05 22.8" fill="#c2c2c2" fill-rule="evenodd" stroke="none"/>
    <path d="M40.45 32.5 L40.7 33.0 39.9 34.25 36.45 32.5 40.45 32.5 M44.15 40.3 L43.55 41.35 Q42.5 41.65 41.8 41.9 L18.3 42.0 8.8 42.05 2.6 41.05 0.5 40.2 0.35 40.1 11.9 39.45 13.15 39.4 25.7 40.7 Q33.9 41.05 41.8 40.7 L44.15 40.3 M23.85 44.1 L27.5 44.0 28.0 44.25 22.95 45.6 Q17.45 47.1 12.1 47.3 L13.05 48.4 5.5 48.4 -1.1 47.55 -1.55 46.65 -1.65 45.9 -0.55 44.7 0.75 44.4 3.85 45.1 14.3 44.85 15.1 44.9 Q15.45 44.85 15.5 44.2 L23.85 44.1 M-2.1 32.4 L-1.9 32.0 6.05 32.55 13.1 32.2 Q14.35 31.95 15.25 30.9 L12.7 30.55 14.1 30.45 18.4 30.25 19.25 30.4 19.45 30.45 Q15.5 31.55 11.1 33.9 L7.7 34.1 Q2.25 33.9 -2.1 34.05 L-2.2 32.85 -2.1 32.4 M-4.6 27.25 Q-4.45 26.25 -3.2 25.6 L-2.55 25.3 9.9 25.3 10.45 24.95 Q10.8 24.7 10.95 23.95 L18.05 23.85 18.15 24.4 18.55 24.65 35.8 24.75 22.25 26.35 18.15 27.25 -4.6 27.25 M-2.15 15.15 L-2.0 13.3 -1.9 13.0 Q1.15 12.8 4.9 12.85 L6.05 12.85 6.15 13.2 22.55 13.45 35.45 12.9 38.6 12.7 41.8 12.75 43.55 13.25 43.75 13.4 28.9 13.7 11.65 14.55 11.4 14.4 Q11.15 14.6 11.1 15.9 L9.15 16.0 7.0 15.9 0.9 15.55 -1.85 15.7 -2.2 15.4 -2.15 15.15" fill="#b84a4a" fill-rule="evenodd" stroke="none"/>
    <path d="M53.6 23.75 L57.2 23.75 59.1 24.65 Q59.75 25.2 59.9 26.35 L44.95 28.5 Q44.95 29.4 45.35 29.95 L44.4 30.0 26.1 30.0 26.5 28.35 25.3 27.25 18.15 27.25 22.25 26.35 35.8 24.75 45.1 24.8 53.6 23.75 M39.9 34.25 L40.95 34.85 51.7 34.75 53.75 35.2 54.05 35.35 50.3 35.3 Q51.15 37.5 54.9 38.55 54.75 39.3 54.4 39.55 L53.6 39.7 45.35 39.75 44.15 40.3 41.8 40.7 Q33.9 41.05 25.7 40.7 L13.15 39.4 24.85 38.75 24.75 36.3 Q23.65 34.45 21.5 34.05 18.75 33.5 11.1 33.9 15.5 31.55 19.45 30.45 L19.25 30.4 18.4 30.25 20.6 30.15 Q19.75 30.65 19.25 31.8 19.65 32.2 20.35 32.5 L36.45 32.5 39.9 34.25 M28.0 44.25 L31.4 43.25 Q41.0 41.15 55.0 46.75 L55.25 47.4 Q54.95 48.0 52.65 47.75 L48.4 47.3 Q38.35 47.3 31.35 48.95 L28.9 49.5 29.15 49.75 Q28.85 50.05 27.4 50.45 23.0 50.1 15.2 50.55 L14.85 50.1 14.2 49.65 13.05 48.4 12.1 47.3 Q17.45 47.1 22.95 45.6 L28.0 44.25 M13.3 6.75 L16.6 6.45 20.6 7.6 Q23.8 8.25 28.6 7.7 39.5 6.35 43.8 7.85 45.05 8.25 46.35 9.1 42.5 8.25 37.35 8.9 L22.55 10.75 21.6 11.0 Q21.3 11.15 21.3 12.0 21.3 12.85 21.45 12.95 L21.85 13.1 28.6 13.25 37.1 12.1 47.3 10.9 48.6 10.8 48.95 11.1 48.95 11.55 38.6 12.7 35.45 12.9 22.55 13.45 6.15 13.2 6.05 12.85 20.05 12.0 19.9 11.6 17.9 10.1 Q16.65 9.6 15.05 9.5 L16.5 8.8 15.5 7.15 13.3 6.75 M43.75 13.4 L61.05 13.3 Q61.05 13.85 62.15 15.5 53.95 20.0 50.35 20.7 L47.65 20.6 50.85 20.45 50.85 20.25 Q48.35 17.4 37.75 18.3 L26.1 19.9 11.0 20.1 10.1 20.4 8.8 19.8 7.15 20.35 4.0 20.4 Q5.85 19.5 11.8 18.65 L11.7 18.55 22.0 18.2 22.75 18.05 Q23.1 17.85 23.1 16.95 23.1 16.1 22.5 15.9 L21.45 15.7 18.7 15.7 13.25 15.85 11.1 15.9 Q11.15 14.6 11.4 14.4 L11.65 14.55 28.9 13.7 43.75 13.4 M11.0 22.85 L18.1 22.75 18.05 22.8 14.85 23.1 11.0 22.85" fill="#722222" fill-rule="evenodd" stroke="none"/>
    <path d="M-11.25 11.05 Q-19.1 11.1 -23.1 12.35 L-33.25 12.35 -33.65 11.9 Q-34.1 11.4 -34.1 9.75 -34.1 8.05 -33.8 7.8 L-33.55 7.95 -6.25 5.9 -8.3 7.35 Q-7.2 8.25 -5.5 8.25 L7.7 7.8 Q9.55 7.8 10.7 6.65 L10.35 6.4 13.3 6.75 15.5 7.15 16.5 8.8 15.05 9.5 11.0 9.8 -6.3 10.95 -7.25 11.1 -11.25 11.05 M-40.15 22.25 Q-35.7 16.7 -26.95 19.25 -26.95 19.8 -26.1 20.6 -26.5 21.65 -28.7 22.5 -30.9 23.35 -33.0 23.35 L-38.5 23.1 -38.7 22.7 Q-39.1 22.25 -40.15 22.25" fill="#eedda7" fill-rule="evenodd" stroke="none"/>
    <path d="M-11.25 25.3 L-22.0 25.3 Q-25.3 24.75 -26.1 23.9 L-26.1 21.45 -20.9 20.9 -8.25 20.65 4.0 20.4 7.15 20.35 8.8 19.8 10.1 20.4 9.8 20.55 Q8.8 21.15 8.8 21.75 L8.9 22.7 9.2 22.85 11.0 22.85 10.95 23.95 Q10.8 24.7 10.45 24.95 L9.9 25.3 -2.55 25.3 -11.25 25.3 M-34.35 25.85 Q-31.15 24.65 -26.1 25.3 -22.4 25.8 -19.25 26.95 L-19.25 29.15 -27.7 28.4 -34.1 27.5 -34.35 25.85" fill="#de9e11" fill-rule="evenodd" stroke="none"/>
    <path d="M0.35 40.1 L-7.7 40.7 -16.5 40.7 Q-20.8 40.05 -21.45 39.05 -16.7 35.2 -7.95 34.35 L-5.5 34.15 -2.1 34.05 Q2.25 33.9 7.7 34.1 L11.1 33.9 Q18.75 33.5 21.5 34.05 23.65 34.45 24.75 36.3 L24.85 38.75 13.15 39.4 11.9 39.45 0.35 40.1 M2.2 39.7 L15.8 38.8 Q19.85 38.0 21.3 36.4 19.7 36.2 11.0 36.6 L1.65 37.05 -2.85 36.7 -7.2 36.5 -7.4 36.55 -7.45 37.3 -7.3 38.3 -7.2 38.5 -1.25 39.2 2.2 39.7" fill="#933535" fill-rule="evenodd" stroke="none"/>
    <path d="M47.65 20.6 L37.9 21.35 28.15 22.25 46.2 22.1 59.2 20.25 74.1 19.8 74.25 19.7 74.35 20.6 Q74.35 21.25 64.1 22.5 L53.6 23.75 45.1 24.8 35.8 24.75 18.55 24.65 18.15 24.4 18.05 23.85 18.0 23.35 18.05 22.8 18.1 22.75 11.0 22.85 9.2 22.85 8.9 22.7 8.8 21.75 Q8.8 21.15 9.8 20.55 L10.1 20.4 11.0 20.1 26.1 19.9 37.75 18.3 Q48.35 17.4 50.85 20.25 L50.85 20.45 47.65 20.6 M59.9 26.35 L61.7 26.2 Q65.4 26.0 79.2 26.1 L80.05 26.25 Q80.4 26.35 80.4 27.2 80.4 28.1 80.05 28.4 L79.2 28.7 63.55 29.45 55.8 30.6 Q56.95 30.9 57.05 31.25 56.85 32.25 52.8 32.5 L40.45 32.5 36.45 32.5 20.35 32.5 Q19.65 32.2 19.25 31.8 19.75 30.65 20.6 30.15 L24.7 30.0 26.0 30.0 26.1 30.0 44.4 30.0 45.4 30.0 45.35 29.95 Q44.95 29.4 44.95 28.5 L59.9 26.35 M54.05 35.35 L62.5 35.2 Q69.4 35.45 74.1 38.2 L73.55 39.3 Q67.6 39.75 62.3 39.55 L54.9 38.55 Q51.15 37.5 50.3 35.3 L54.05 35.35 M27.4 50.45 L28.7 50.55 51.8 52.55 52.75 53.3 Q53.1 53.85 53.1 54.5 52.4 55.5 50.65 55.65 49.4 55.6 49.4 55.1 L34.75 53.95 20.35 52.9 3.75 54.2 2.3 54.1 2.2 53.8 2.1 52.85 Q2.1 51.95 2.4 51.75 L3.3 51.45 15.2 50.55 Q23.0 50.1 27.4 50.45 M-11.8 16.75 L-17.8 16.8 -18.7 17.15 -29.7 17.15 -30.55 16.95 Q-30.85 16.85 -30.85 16.0 -30.85 15.1 -30.55 14.9 L-29.7 14.6 -17.6 14.4 -17.6 14.05 -4.4 14.05 -3.35 14.3 Q-2.85 14.5 -2.75 15.2 L-2.75 15.4 -2.75 15.8 Q-4.75 16.05 -6.5 16.65 L-11.8 16.75 M46.35 9.1 Q48.2 9.45 49.75 10.2 L49.0 10.7 48.6 10.8 47.3 10.9 37.1 12.1 28.6 13.25 21.85 13.1 21.45 12.95 Q21.3 12.85 21.3 12.0 21.3 11.15 21.6 11.0 L22.55 10.75 37.35 8.9 Q42.5 8.25 46.35 9.1 M39.65 56.55 Q39.8 57.8 39.9 57.8 L20.35 58.9 5.25 58.15 Q4.55 57.4 3.3 57.5 L3.3 56.3 15.7 55.85 29.75 55.45 Q36.6 55.2 37.65 55.4 38.5 55.55 39.65 56.55 M17.15 61.7 L17.35 62.2 Q16.3 62.25 16.4 62.6 16.45 63.05 16.15 63.2 L0.55 63.8 -0.15 63.6 Q-0.45 63.45 -0.45 62.6 L-0.4 61.85 0.0 61.6 13.45 61.55 17.15 61.7" fill="#be4949" fill-rule="evenodd" stroke="none"/>
    <path d="M-1.9 32.0 L-9.55 30.25 -9.65 29.55 -8.75 29.15 -8.85 28.45 -8.8 27.6 -8.8 27.8 -8.05 27.55 -7.7 27.25 -4.6 27.25 18.15 27.25 25.3 27.25 26.5 28.35 26.1 30.0 26.0 30.0 24.7 30.0 20.6 30.15 18.4 30.25 14.1 30.45 12.7 30.55 15.25 30.9 Q14.35 31.95 13.1 32.2 L6.05 32.55 -1.9 32.0 M-6.25 5.9 Q-2.05 3.05 1.4 3.0 5.1 3.0 10.35 6.4 L10.7 6.65 Q9.55 7.8 7.7 7.8 L-5.5 8.25 Q-7.2 8.25 -8.3 7.35 L-6.25 5.9 M9.15 16.0 L11.1 15.9 13.25 15.85 18.7 15.7 19.55 15.95 Q19.9 16.1 19.9 16.95 19.9 17.85 19.5 18.05 L18.7 18.2 9.1 18.65 1.1 19.35 -3.3 19.35 -4.95 18.7 -5.0 17.75 Q-4.8 16.9 -3.3 16.7 L9.15 16.0 M15.5 44.2 Q15.45 44.85 15.1 44.9 L14.3 44.85 3.85 45.1 0.75 44.4 -3.4 43.55 Q-2.0 42.4 0.25 42.4 L15.4 43.55 15.5 44.05 15.5 44.2 M2.2 39.7 L-1.25 39.2 -7.2 38.5 -7.3 38.3 -7.45 37.3 -7.4 36.55 -7.2 36.5 -2.85 36.7 1.65 37.05 11.0 36.6 Q19.7 36.2 21.3 36.4 19.85 38.0 15.8 38.8 L2.2 39.7" fill="#7e7e7e" fill-rule="evenodd" stroke="none"/>
  </g>
</svg>