<?xml version="1.0" encoding="UTF-8" standalone="no"?>
<svg xmlns:xlink="http://www.w3.org/1999/xlink" height="12.3px" width="39.35px" xmlns="http://www.w3.org/2000/svg">
  <g transform="matrix(1.0, 0.0, 0.0, 1.0, -1, -29.15)">
    <path d="M3.8 31.5 Q5.8 30.2 9.25 30.15 14.05 30.0 27.6 36.4 L25.3 37.05 20.5 37.45 14.4 36.45 Q10.55 35.7 9.05 35.15 L6.0 34.25 Q4.9 33.85 4.1 32.1 L3.8 31.5" fill="#3a3a3a" fill-rule="evenodd" stroke="none"/>
    <path d="M27.6 36.4 L28.95 35.95 29.15 35.85 39.35 31.9 36.9 35.9 Q36.15 36.85 34.5 37.85 29.9 40.45 21.6 40.45 L12.95 39.75 7.4 38.6 4.2 37.3 Q2.65 36.4 2.1 35.2 L2.1 35.1 Q1.9 34.6 2.05 33.95 L2.2 33.45 Q2.5 32.35 3.8 31.5 L4.1 32.1 Q4.9 33.85 6.0 34.25 L9.05 35.15 Q10.55 35.7 14.4 36.45 L20.5 37.45 25.3 37.05 27.6 36.4" fill="url(#gradient0)" fill-rule="evenodd" stroke="none"/>
    <path d="M39.35 31.9 L36.9 35.9 Q36.15 36.85 34.5 37.85 29.9 40.45 21.6 40.45 L12.95 39.75 7.4 38.6 4.2 37.3 Q2.65 36.4 2.1 35.2 L2.1 35.1" fill="none" stroke="#3a3a3a" stroke-linecap="round" stroke-linejoin="round" stroke-width="1"/>
  </g>
  <defs>
    <linearGradient gradientTransform="matrix(0.0, 0.0031, -0.0228, 0.0, 20.7, 38.0)" gradientUnits="userSpaceOnUse" id="gradient0" spreadMethod="pad" x1="-819.2" x2="819.2">
      <stop offset="0.0" stop-color="#8c8c8c"></stop>
      <stop offset="1.0" stop-color="#e0e0e0"></stop>
    </linearGradient>
  </defs>
</svg>