<?xml version="1.0" encoding="UTF-8" standalone="no"?>
<svg xmlns:xlink="http://www.w3.org/1999/xlink" height="24.35px" width="19.6px" xmlns="http://www.w3.org/2000/svg">
  <g transform="matrix(1.0, 0.0, 0.0, 1.0, 2.9, 5.1)">
    <path d="M-1.55 3.2 Q-2.35 1.6 -1.35 -0.4 -0.4 -2.45 4.95 -3.8 10.3 -5.2 14.05 0.0 14.75 2.1 15.1 4.5 15.7 9.05 15.7 10.6 L15.65 11.45 15.6 11.6 14.9 13.75 Q14.05 15.8 12.65 17.85 13.75 16.15 12.65 13.85 11.5 11.55 10.6 10.95 9.75 10.3 8.7 10.45 L6.5 10.65 6.25 10.9 Q5.9 11.3 5.4 11.3 L4.8 11.15 Q4.7 11.15 4.7 10.75 L4.7 10.7 3.75 10.7 4.0 11.05 3.65 11.35 Q2.9 11.15 2.9 10.8 L3.1 10.65 2.2 10.45 0.95 10.0 0.95 9.95 -0.25 6.95 -1.55 3.2 M11.95 3.3 L12.1 3.55 12.35 3.65 12.65 3.4 12.65 3.2 12.45 3.05 Q11.95 3.05 11.95 3.3 M12.3 2.35 Q12.3 2.1 11.9 2.0 11.6 2.0 11.6 2.5 L12.1 2.65 12.3 2.35 M11.25 5.55 L11.35 5.6 11.8 5.6 11.95 5.3 Q11.85 5.05 11.55 5.0 L11.35 5.0 11.15 5.3 11.25 5.55 M12.45 11.45 L12.3 11.15 Q11.75 11.15 11.75 11.45 L12.3 11.6 12.45 11.45 M13.4 8.45 L13.45 8.15 Q13.4 7.95 13.0 7.85 12.65 7.85 12.65 8.15 L12.65 8.45 13.2 8.5 13.4 8.45 M12.35 10.7 L12.45 11.15 12.65 11.15 12.85 10.75 12.5 10.65 12.35 10.7 M5.25 1.25 L5.7 1.4 5.9 1.1 5.65 0.8 Q5.15 0.8 5.15 1.1 5.15 1.5 5.25 1.25 M13.2 11.05 L13.4 11.6 13.95 11.45 13.75 11.0 13.2 11.05 M13.2 12.35 Q13.3 12.0 12.75 11.9 12.3 11.75 12.3 12.15 L12.6 12.45 13.0 12.65 13.2 12.35 M9.35 5.4 L8.85 5.0 8.4 5.45 8.85 5.95 9.15 5.9 9.35 5.4 M2.0 8.6 Q1.45 8.4 1.45 8.7 1.45 9.1 1.6 8.9 L2.15 8.9 2.2 8.75 2.0 8.6 M3.05 7.15 L2.9 7.1 2.7 7.1 2.5 7.4 2.95 7.4 3.05 7.15 M4.05 8.15 Q4.05 8.35 4.35 8.6 L5.2 8.45 5.25 8.1 Q5.25 7.5 4.65 7.5 4.05 7.5 4.05 8.15 M2.3 5.3 L1.95 5.0 Q1.6 5.3 1.6 5.5 L1.95 5.65 2.3 5.5 2.3 5.3 M0.9 3.2 L1.4 3.2 1.45 2.9 Q1.15 2.9 0.9 3.2 M0.1 1.6 L0.1 1.4 -0.45 1.3 -0.45 1.45 0.1 1.6 M0.85 1.75 L0.65 1.4 0.5 1.4 0.3 2.05 0.65 2.15 0.85 2.05 0.85 1.75 M4.55 0.8 Q4.05 1.05 4.05 1.3 L4.25 1.4 4.7 1.25 4.7 0.85 4.55 0.8 M3.6 9.95 L3.65 9.8 3.3 9.5 3.05 9.55 2.95 9.75 2.7 9.7 2.7 10.05 Q2.7 10.4 2.9 10.3 L3.45 10.3 3.6 10.1 3.6 9.95 M7.1 10.25 L7.55 10.4 7.85 10.1 7.55 9.8 Q7.1 10.05 7.1 10.25 M9.95 9.15 L9.9 9.05 9.15 8.9 9.0 8.95 9.0 9.15 9.55 9.5 9.95 9.15 M9.15 7.55 L9.35 7.4 9.15 7.25 8.65 7.25 8.65 7.4 9.15 7.55 M4.6 9.15 L4.7 9.35 5.15 9.5 5.35 9.35 5.45 9.65 5.85 9.7 6.2 9.4 6.05 9.2 5.45 9.25 5.45 9.2 5.1 8.9 Q4.9 8.9 4.6 9.15 M6.4 12.25 L6.75 12.55 6.75 12.8 6.2 12.85 6.0 12.85 6.0 12.6 6.2 12.35 6.4 12.25 M9.15 9.8 L9.35 9.5 8.85 9.1 8.4 9.45 8.4 9.65 8.85 9.85 9.15 9.8 M8.95 12.1 L8.95 11.9 9.1 11.6 Q8.65 11.5 8.65 11.05 8.65 10.75 9.4 10.7 10.05 10.65 10.05 11.1 10.05 11.55 9.7 11.65 L9.95 11.9 9.9 12.1 9.5 12.25 8.95 12.1" fill="#913333" fill-rule="evenodd" stroke="none"/>
    <path d="M12.65 17.85 L8.95 18.05 Q7.3 17.65 4.65 15.5 L3.05 13.75 2.65 13.2 1.15 10.4 0.95 10.0 2.2 10.45 3.1 10.65 2.9 10.8 Q2.9 11.15 3.65 11.35 L4.0 11.05 3.75 10.7 4.7 10.7 4.7 10.75 Q4.7 11.15 4.8 11.15 L5.4 11.3 Q5.9 11.3 6.25 10.9 L6.5 10.65 8.7 10.45 Q9.75 10.3 10.6 10.95 11.5 11.55 12.65 13.85 13.75 16.15 12.65 17.85 M12.3 2.35 L12.1 2.65 11.6 2.5 Q11.6 2.0 11.9 2.0 12.3 2.1 12.3 2.35 M11.95 3.3 Q11.95 3.05 12.45 3.05 L12.65 3.2 12.65 3.4 12.35 3.65 12.1 3.55 11.95 3.3 M13.4 8.45 L13.2 8.5 12.65 8.45 12.65 8.15 Q12.65 7.85 13.0 7.85 13.4 7.95 13.45 8.15 L13.4 8.45 M12.45 11.45 L12.3 11.6 11.75 11.45 Q11.75 11.15 12.3 11.15 L12.45 11.45 M13.2 12.35 L13.0 12.65 12.6 12.45 12.3 12.15 Q12.3 11.75 12.75 11.9 13.3 12.0 13.2 12.35 M13.2 11.05 L13.75 11.0 13.95 11.45 13.4 11.6 13.2 11.05 M5.25 1.25 Q5.15 1.5 5.15 1.1 5.15 0.8 5.65 0.8 L5.9 1.1 5.7 1.4 5.25 1.25 M4.55 0.8 L4.7 0.85 4.7 1.25 4.25 1.4 4.05 1.3 Q4.05 1.05 4.55 0.8 M0.85 1.75 L0.85 2.05 0.65 2.15 0.3 2.05 0.5 1.4 0.65 1.4 0.85 1.75 M0.1 1.6 L-0.45 1.45 -0.45 1.3 0.1 1.4 0.1 1.6 M0.9 3.2 Q1.15 2.9 1.45 2.9 L1.4 3.2 0.9 3.2 M2.3 5.3 L2.3 5.5 1.95 5.65 1.6 5.5 Q1.6 5.3 1.95 5.0 L2.3 5.3 M4.05 8.15 Q4.05 7.5 4.65 7.5 5.25 7.5 5.25 8.1 L5.2 8.45 4.35 8.6 Q4.05 8.35 4.05 8.15 M3.05 7.15 L2.95 7.4 2.5 7.4 2.7 7.1 2.9 7.1 3.05 7.15 M2.0 8.6 L2.2 8.75 2.15 8.9 1.6 8.9 Q1.45 9.1 1.45 8.7 1.45 8.4 2.0 8.6 M2.95 9.75 L3.05 9.55 3.3 9.5 3.65 9.8 3.6 9.95 2.95 9.75 M4.6 9.15 Q4.9 8.9 5.1 8.9 L5.45 9.2 5.45 9.25 6.05 9.2 6.2 9.4 5.85 9.7 5.45 9.65 5.35 9.35 5.15 9.5 4.7 9.35 4.6 9.15 M9.15 7.55 L8.65 7.4 8.65 7.25 9.15 7.25 9.35 7.4 9.15 7.55 M9.95 9.15 L9.55 9.5 9.0 9.15 9.0 8.95 9.15 8.9 9.9 9.05 9.95 9.15 M7.1 10.25 Q7.1 10.05 7.55 9.8 L7.85 10.1 7.55 10.4 7.1 10.25 M5.85 12.05 L5.75 11.75 5.65 11.65 Q4.6 11.8 4.6 12.15 L5.25 12.55 5.7 12.4 5.85 12.05 M6.4 12.25 L6.2 12.35 6.0 12.6 6.0 12.85 6.2 12.85 6.75 12.8 6.75 12.55 6.4 12.25 M8.95 12.1 L9.5 12.25 9.9 12.1 9.95 11.9 9.7 11.65 Q10.05 11.55 10.05 11.1 10.05 10.65 9.4 10.7 8.65 10.75 8.65 11.05 8.65 11.5 9.1 11.6 L8.95 11.9 8.95 12.1" fill="#b84a4a" fill-rule="evenodd" stroke="none"/>
    <path d="M11.25 5.55 L11.15 5.3 11.35 5.0 11.55 5.0 Q11.85 5.05 11.95 5.3 L11.8 5.6 11.35 5.6 11.25 5.55 M12.35 10.7 L12.5 10.65 12.85 10.75 12.65 11.15 12.45 11.15 12.35 10.7 M9.35 5.4 L9.15 5.9 8.85 5.95 8.4 5.45 8.85 5.0 9.35 5.4 M3.6 9.95 L3.6 10.1 3.45 10.3 2.9 10.3 Q2.7 10.4 2.7 10.05 L2.7 9.7 2.95 9.75 3.6 9.95 M5.85 12.05 L5.7 12.4 5.25 12.55 4.6 12.15 Q4.6 11.8 5.65 11.65 L5.75 11.75 5.85 12.05 M9.15 9.8 L8.85 9.85 8.4 9.65 8.4 9.45 8.85 9.1 9.35 9.5 9.15 9.8" fill="#ffffcc" fill-rule="evenodd" stroke="none"/>
    <path d="M14.05 0.0 Q14.75 2.1 15.1 4.5 15.7 9.05 15.7 10.6 L15.65 11.45 15.6 11.6 14.9 13.75 M3.05 13.75 L2.65 13.2 1.15 10.4 0.95 10.0 0.95 9.95 -0.25 6.95 -1.55 3.2" fill="none" stroke="#6d0000" stroke-linecap="round" stroke-linejoin="round" stroke-width="1"/>
  </g>
</svg>