<?xml version="1.0" encoding="UTF-8" standalone="no"?>
<svg xmlns:xlink="http://www.w3.org/1999/xlink" height="62.9px" width="87.95px" xmlns="http://www.w3.org/2000/svg">
  <g transform="matrix(1.0, 0.0, 0.0, 1.0, 42.2, 50.95)">
    <use data-characterId="969" height="36.45" transform="matrix(-0.1868, -0.9816, 0.7956, -0.1514, -36.4006, 10.3455)" width="8.85" xlink:href="#sprite0"/>
    <use data-characterId="969" height="36.45" transform="matrix(0.1603, -0.9863, 0.8882, 0.1443, -41.959, -3.908)" width="8.85" xlink:href="#sprite0"/>
    <use data-characterId="969" height="36.45" transform="matrix(0.488, -0.872, 0.872, 0.488, -42.2094, -20.8482)" width="8.85" xlink:href="#sprite0"/>
    <use data-characterId="969" height="36.45" transform="matrix(0.7568, -0.6525, 0.6525, 0.7568, -32.4683, -34.5082)" width="8.85" xlink:href="#sprite0"/>
    <use data-characterId="969" height="36.45" transform="matrix(0.9343, -0.3543, 0.3543, 0.9343, -18.6391, -44.0122)" width="8.85" xlink:href="#sprite0"/>
    <use data-characterId="969" height="36.45" transform="matrix(0.9991, -0.0134, 0.0134, 0.9991, -2.3958, -48.2142)" width="8.85" xlink:href="#sprite0"/>
    <use data-characterId="969" height="36.45" transform="matrix(0.9435, 0.3291, -0.3291, 0.9435, 14.3072, -46.6097)" width="8.85" xlink:href="#sprite0"/>
    <use data-characterId="969" height="36.45" transform="matrix(0.774, 0.6319, -0.6319, 0.774, 29.4523, -39.3869)" width="8.85" xlink:href="#sprite0"/>
    <use data-characterId="969" height="36.45" transform="matrix(0.5112, 0.8586, -0.8586, 0.5112, 41.217, -27.4207)" width="8.85" xlink:href="#sprite0"/>
    <use data-characterId="969" height="36.45" transform="matrix(0.1867, 0.9816, -0.88, 0.1674, 43.2713, -11.2193)" width="8.85" xlink:href="#sprite0"/>
    <use data-characterId="969" height="36.45" transform="matrix(-0.1603, 0.9863, -0.8165, -0.1327, 41.2995, 3.2462)" width="8.85" xlink:href="#sprite0"/>
  </g>
  <defs>
    <g id="sprite0" transform="matrix(1.0, 0.0, 0.0, 1.0, 3.15, 48.25)">
      <use data-characterId="968" height="36.45" transform="matrix(1.0, 0.0, 0.0, 1.0, -3.15, -48.25)" width="8.85" xlink:href="#shape0"/>
    </g>
    <g id="shape0" transform="matrix(1.0, 0.0, 0.0, 1.0, 3.15, 48.25)">
      <path d="M2.8 -47.65 L0.3 -43.6 Q0.3 -42.8 1.75 -40.8 3.2 -38.85 3.2 -38.0 3.2 -36.55 0.8 -33.75 L-1.6 -31.15 Q-1.6 -30.05 0.25 -28.25 2.05 -26.5 2.05 -25.65 2.05 -23.85 0.3 -22.15 L-1.45 -20.15 Q-1.45 -19.4 -0.25 -18.25 0.95 -17.15 0.95 -16.35 0.95 -14.85 0.65 -14.45 0.35 -14.1 0.35 -12.4 L0.3 -12.1 0.25 -12.05 Q0.35 -11.8 -0.15 -11.8 -1.0 -11.8 -0.9 -12.95 L-0.3 -15.6 Q-0.3 -15.9 -1.7 -17.4 -3.15 -18.9 -3.15 -20.0 -3.15 -21.45 -1.2 -22.9 0.75 -24.35 0.75 -25.6 L-1.0 -27.7 Q-2.8 -29.65 -2.8 -31.25 -2.8 -32.15 -0.55 -34.5 1.7 -36.9 1.7 -37.85 L0.3 -40.0 Q-1.15 -41.85 -1.15 -43.45 0.2 -48.25 2.6 -48.25 2.8 -48.15 2.8 -47.65 M3.2 -29.25 Q3.2 -29.95 3.85 -31.2 4.5 -32.6 5.1 -32.75 L4.55 -31.05 Q4.1 -29.9 4.1 -29.25 4.1 -28.7 4.9 -27.9 5.7 -27.05 5.7 -26.1 5.7 -23.7 3.85 -21.95 1.95 -20.15 1.95 -19.6 1.95 -19.15 2.45 -17.9 L2.9 -16.25 2.7 -15.25 Q2.45 -14.5 1.95 -14.45 L2.35 -14.9 2.55 -15.3 Q2.55 -16.15 1.95 -17.7 1.35 -19.2 1.35 -20.25 1.35 -20.55 2.85 -22.45 4.35 -24.3 4.35 -26.15 L3.8 -27.55 3.2 -29.25" fill="#ffffff" fill-rule="evenodd" stroke="none"/>
    </g>
  </defs>
</svg>
