<?xml version="1.0" encoding="UTF-8" standalone="no"?>
<svg xmlns:xlink="http://www.w3.org/1999/xlink" height="168.8px" width="143.3px" xmlns="http://www.w3.org/2000/svg">
  <g transform="matrix(1.0, 0.0, 0.0, 1.0, 1, 1)">
    <path d="M66.45 38.6 L66.75 36.95 Q67.7 31.6 68.5 29.4 L68.9 30.45 72.35 40.35 74.3 36.55 Q75.75 33.75 77.55 30.65 86.45 15.3 92.85 11.05 L92.8 11.65 Q91.1 16.45 82.65 31.1 81.5 33.05 80.25 37.95 L79.05 42.4 78.1 45.85 78.1 46.25 79.85 43.35 84.9 34.1 85.3 34.1 Q83.85 41.55 82.35 46.45 L81.65 48.5 Q79.9 53.4 75.05 62.9 80.05 59.4 83.05 55.95 L86.75 51.8 87.45 51.0 87.25 52.4 87.25 52.45 87.15 53.0 87.15 53.8 87.75 53.05 93.45 47.55 94.8 46.3 Q101.75 39.95 103.05 39.55 L104.25 39.55 Q99.95 44.25 95.35 50.3 L93.55 52.65 90.65 56.6 82.65 66.7 82.65 67.1 Q82.95 66.75 87.4 64.25 L92.1 61.4 92.1 62.15 Q89.35 70.45 88.7 71.25 L88.7 71.65 Q92.9 65.85 94.55 61.45 L95.1 59.75 96.4 55.15 98.45 54.8 104.3 54.1 115.25 53.0 117.75 53.0 105.4 59.05 102.45 60.5 Q98.1 62.65 96.4 63.7 L103.65 62.25 108.7 61.5 Q111.15 60.8 114.1 58.75 L116.3 58.0 Q115.45 62.55 110.75 65.6 L107.3 67.5 101.6 70.15 97.4 72.0 106.15 72.0 109.5 70.65 111.3 69.75 111.55 69.65 114.35 69.05 118.65 68.3 120.2 68.4 120.1 68.5 Q119.75 69.3 110.3 74.25 L114.05 81.5 113.7 81.5 Q113.3 81.1 108.95 78.25 L106.1 76.4 103.3 77.8 102.3 78.35 93.25 83.0 93.25 83.4 Q92.5 76.85 92.5 75.8 92.2 76.85 84.5 81.65 L84.25 81.8 73.9 87.95 73.55 87.95 74.85 85.3 75.8 83.0 Q75.05 83.65 71.85 84.75 68.6 85.85 67.85 85.65 L67.5 85.65 72.1 77.7 75.45 70.9 75.45 70.5 Q74.55 73.15 67.75 77.4 L65.7 78.65 Q61.75 81.0 58.0 82.65 L58.75 82.65 59.05 82.6 61.0 82.95 Q63.7 83.15 65.6 81.5 L65.95 81.5 65.7 82.0 Q64.7 84.1 60.65 94.0 L60.65 94.4 65.7 91.8 69.75 89.45 Q69.75 94.75 69.4 97.05 L77.85 89.65 84.35 83.95 85.65 82.65 86.05 82.65 85.85 85.15 85.65 87.95 87.15 86.2 Q87.8 85.1 88.7 84.9 L88.9 90.35 89.1 97.05 89.1 97.4 Q90.75 94.95 96.45 88.7 101.3 83.35 101.6 82.25 101.6 82.9 103.05 85.5 L104.5 87.85 105.75 81.85 106.15 81.5 110.1 84.55 111.4 87.4 116.0 97.4 115.6 97.4 Q114.5 97.05 111.05 94.6 107.45 92.1 106.5 90.95 L105.4 102.35 105.0 102.35 100.1 95.5 96.05 104.7 92.1 113.35 84.15 102.7 Q84.15 103.8 80.05 108.6 L75.45 114.1 75.25 113.75 75.05 113.7 Q75.05 113.1 73.65 108.05 72.3 103.1 72.4 102.7 L71.65 102.7 Q70.05 104.35 65.7 106.35 L64.45 106.9 65.0 102.95 65.2 98.55 65.2 98.95 Q64.65 99.2 60.55 103.7 L55.35 109.55 55.35 108.4 56.15 105.8 57.25 102.7 56.85 102.7 55.3 103.75 53.45 104.6 46.25 104.6 46.25 104.25 50.75 100.1 51.75 101.1 51.8 101.1 55.1 100.85 50.75 93.5 51.05 93.5 55.75 93.75 55.85 93.75 55.85 93.5 48.25 85.1 48.5 85.1 53.7 85.6 47.05 81.8 46.65 81.6 Q47.0 79.9 46.95 77.7 L47.65 74.35 47.75 74.35 49.25 66.9 50.85 70.75 52.1 73.85 Q51.75 71.8 51.9 69.25 52.0 66.95 52.5 64.25 L54.3 66.65 56.3 69.25 56.7 69.85 56.65 69.25 Q56.7 68.0 57.5 65.2 59.25 66.95 61.45 68.3 L63.25 69.25 63.5 69.3 63.5 69.25 60.5 61.5 60.5 60.15 64.6 59.95 69.05 59.15 64.25 54.85 69.9 54.85 70.35 54.85 69.45 51.7 67.55 45.5 67.55 43.15 67.8 43.15 71.45 45.7 72.05 46.1 68.8 42.15 68.5 41.95 66.85 39.25 66.45 38.6 M120.55 93.6 L120.9 93.6 125.65 99.7 Q130.0 105.35 131.9 107.25 L131.55 107.25 Q131.1 106.65 128.9 105.55 L125.85 103.85 130.0 111.05 128.15 111.05 121.25 109.95 116.0 109.15 113.7 109.15 Q108.75 115.55 106.5 119.0 L105.6 117.65 103.1 114.45 98.2 119.0 98.2 118.65 103.5 107.25 106.9 110.2 108.2 111.2 Q109.0 108.05 111.45 101.95 113.05 101.9 116.25 103.55 121.15 106.1 123.2 106.9 L123.2 106.5 120.8 100.6 119.8 97.95 Q120.6 98.2 121.6 99.0 L125.1 101.95 125.1 101.6 122.7 97.55 120.55 93.6 M114.5 88.25 L115.25 89.1 115.25 89.45 114.5 88.25 M70.15 117.05 L70.9 113.7 71.75 116.2 72.0 117.15 Q72.2 118.1 71.95 118.25 L72.05 121.65 Q72.85 121.65 77.15 117.7 L81.5 113.7 82.6 117.15 83.8 120.15 85.45 117.5 85.9 116.55 Q86.55 114.85 86.45 114.1 86.8 114.1 86.8 113.7 L89.2 116.75 Q90.95 118.95 92.5 119.8 L92.5 120.15 Q92.05 120.15 90.7 119.35 L89.1 118.25 86.2 122.35 83.0 126.6 82.65 126.6 Q82.65 124.6 81.9 119.8 L81.5 119.4 75.3 123.9 Q69.35 128.2 68.6 129.25 L68.25 129.25 69.65 120.2 70.15 117.05" fill="#cdb16f" fill-rule="evenodd" stroke="none"/>
    <path d="M6.1 91.9 L35.35 103.25 48.9 108.9 65.7 116.9 62.7 116.8 Q55.8 116.7 53.8 116.0 L48.45 113.8 44.5 112.2 43.55 112.2 48.9 117.9 Q45.7 115.6 40.05 112.0 L31.2 106.55 29.95 105.8 30.35 105.4 30.8 104.7 23.55 100.75 Q19.35 98.65 18.4 98.9 L12.45 95.5 6.1 91.9 M41.3 21.5 Q41.15 18.75 41.15 15.85 41.15 12.45 41.6 9.85 42.25 6.25 44.2 0.0 47.45 7.05 51.55 14.45 L51.6 14.5 Q56.35 23.1 60.45 28.8 L66.45 38.65 66.45 38.6 66.85 39.25 68.5 41.95 68.8 42.15 72.05 46.1 71.45 45.7 67.8 43.15 67.55 43.15 67.55 45.5 69.45 51.7 70.35 54.85 69.9 54.85 65.1 49.05 61.4 44.75 61.4 49.3 Q61.75 50.45 61.75 51.55 L61.4 51.55 54.25 37.25 53.25 35.15 50.0 27.75 Q46.85 20.2 43.55 11.0 L43.55 11.4 Q42.25 14.25 41.5 19.5 L41.3 21.5 M37.05 78.75 L36.6 76.4 42.1 79.2 43.8 80.1 46.65 81.6 47.05 81.8 53.7 85.6 48.5 85.1 48.25 85.1 55.85 93.5 55.85 93.75 55.75 93.75 47.95 88.2 43.35 84.2 37.05 78.75 M43.85 6.1 L45.3 11.05 Q47.15 16.4 48.7 16.4 L49.65 16.1 49.75 15.1 Q48.3 10.85 46.8 7.7 43.85 1.3 43.85 6.1 M59.1 32.5 L58.55 32.65 Q58.25 32.8 58.25 33.45 L58.35 34.5 59.5 34.55 59.95 33.8 Q59.95 32.85 59.1 32.5 M53.45 24.05 L53.5 22.75 53.3 21.15 Q52.8 19.95 51.25 21.0 L51.1 22.9 Q51.2 23.7 52.65 24.35 L53.45 24.05 M66.45 38.65 L66.85 39.25 66.45 38.65 M45.65 84.4 Q46.65 84.4 46.25 84.05 42.45 79.35 39.8 79.4 39.9 80.75 42.15 82.6 44.35 84.4 45.65 84.4 M39.75 110.35 L39.8 109.8 Q39.4 109.05 38.3 108.4 36.95 107.55 35.8 108.0 36.1 108.7 37.45 109.7 38.7 110.65 39.05 110.65 39.65 110.65 39.75 110.35" fill="#a86464" fill-rule="evenodd" stroke="none"/>
    <path d="M53.45 135.45 L54.15 135.3 54.2 135.15 54.3 134.1 Q54.3 132.95 52.55 132.0 50.9 131.05 48.8 130.9 49.1 132.35 51.15 134.0 L53.45 135.45 M43.7 127.15 L44.6 126.05 Q45.4 125.05 47.55 126.3 L56.75 132.75 Q63.8 137.95 63.3 141.55 L62.5 141.5 Q57.85 139.9 52.1 137.05 50.95 136.45 49.95 135.85 45.85 133.5 43.85 130.9 43.55 129.75 43.55 128.6 43.55 127.8 43.7 127.15 M67.35 140.2 L70.55 136.15 72.5 138.95 73.3 140.35 Q69.7 141.25 66.3 141.45 L67.35 140.2 M79.1 143.95 L79.35 143.7 80.3 142.9 80.55 142.8 81.3 142.5 Q83.65 141.7 85.4 141.7 L85.95 141.75 Q84.95 142.85 82.95 143.85 80.65 145.0 78.75 145.0 L78.35 144.95 78.4 144.95 79.1 143.95 M65.7 160.55 Q63.7 159.95 61.8 159.15 52.6 155.4 52.3 148.8 L54.2 149.35 59.15 148.85 65.7 149.45 69.15 150.25 74.65 151.65 Q77.45 151.65 84.9 148.75 L95.0 144.55 99.55 144.55 99.55 145.8 Q99.2 146.95 98.6 151.4 98.0 155.5 98.0 156.9 95.25 159.15 91.4 160.4 86.0 162.2 77.9 162.2 71.45 162.2 65.7 160.55 M92.35 132.05 L91.8 132.35 86.6 135.15 Q82.5 137.3 78.6 138.75 L83.3 135.15 92.15 128.25 92.35 132.05 M88.95 150.15 L88.35 150.0 Q87.0 150.55 87.0 152.05 87.0 153.05 87.3 152.5 89.2 151.7 89.2 150.9 L88.95 150.15 M91.75 155.4 L94.8 153.5 Q95.6 152.9 95.6 151.75 95.6 148.8 92.5 150.85 89.35 152.85 89.35 154.25 L89.45 155.4 91.75 155.4" fill="#665380" fill-rule="evenodd" stroke="none"/>
    <path d="M108.45 157.45 L102.6 159.45 Q94.1 162.3 91.25 162.85 85.85 164.0 77.65 164.0 71.1 164.0 65.7 162.45 60.3 160.9 56.05 157.8 49.2 152.8 49.2 147.55 L49.2 146.8 49.6 140.3 49.4 138.45 49.35 138.0 Q44.9 134.6 43.85 130.9 45.85 133.5 49.95 135.85 50.95 136.45 52.1 137.05 57.85 139.9 62.5 141.5 L63.3 141.55 Q63.8 137.95 56.75 132.75 L47.55 126.3 Q45.4 125.05 44.6 126.05 L43.7 127.15 Q43.95 126.1 44.55 125.3 44.95 124.75 46.7 123.15 L57.75 129.05 Q62.65 130.1 64.15 129.05 L65.1 139.15 65.7 138.45 Q67.6 136.15 70.0 133.75 72.8 130.95 74.25 130.1 L74.5 130.1 Q74.35 131.4 75.65 134.3 L77.4 137.55 Q94.7 121.45 96.15 120.45 97.15 122.3 97.0 124.95 96.85 127.25 96.1 129.2 L95.8 129.8 94.6 132.15 Q100.1 128.8 103.4 126.5 L109.05 122.2 108.05 126.55 102.5 150.05 110.5 140.55 108.45 157.45 M58.55 145.25 L54.7 142.1 54.35 141.8 49.5 138.1 49.35 138.0 49.5 138.1 54.35 141.8 54.7 142.1 58.55 145.25 M55.2 143.05 L56.55 145.6 Q53.05 144.9 51.4 143.75 49.75 142.6 49.6 140.3 49.75 142.6 51.4 143.75 53.05 144.9 56.55 145.6 L55.2 143.05 54.7 142.1 55.2 143.05 M67.35 140.2 L66.3 141.45 Q69.7 141.25 73.3 140.35 L72.5 138.95 70.55 136.15 67.35 140.2 M79.1 143.95 L78.4 144.95 78.35 144.95 78.75 145.0 Q80.65 145.0 82.95 143.85 84.95 142.85 85.95 141.75 L85.4 141.7 Q83.65 141.7 81.3 142.5 L80.55 142.8 80.3 142.9 79.35 143.7 79.1 143.95 M69.35 145.3 L77.55 142.4 74.7 147.2 Q86.55 146.7 90.75 139.65 L84.05 139.45 Q90.75 137.5 94.6 132.15 90.75 137.5 84.05 139.45 L90.75 139.65 Q86.55 146.7 74.7 147.2 L77.55 142.4 69.35 145.3 M65.7 160.55 Q71.45 162.2 77.9 162.2 86.0 162.2 91.4 160.4 95.25 159.15 98.0 156.9 98.0 155.5 98.6 151.4 99.2 146.95 99.55 145.8 L99.55 144.55 95.0 144.55 84.9 148.75 Q77.45 151.65 74.65 151.65 L69.15 150.25 65.7 149.45 59.15 148.85 54.2 149.35 52.3 148.8 Q52.6 155.4 61.8 159.15 63.7 159.95 65.7 160.55 M92.35 132.05 L92.15 128.25 83.3 135.15 78.6 138.75 Q82.5 137.3 86.6 135.15 L91.8 132.35 92.35 132.05" fill="#503f66" fill-rule="evenodd" stroke="none"/>
    <path d="M92.8 11.65 Q92.45 15.85 90.1 32.45 L88.9 41.05 87.45 51.0 86.75 51.8 83.05 55.95 Q80.05 59.4 75.05 62.9 79.9 53.4 81.65 48.5 L82.35 46.45 Q83.85 41.55 85.3 34.1 L84.9 34.1 79.85 43.35 78.1 46.25 78.1 45.85 79.05 42.4 80.25 37.95 Q81.5 33.05 82.65 31.1 91.1 16.45 92.8 11.65 M104.25 39.55 L105.05 39.55 97.2 52.4 97.05 52.7 95.3 55.45 96.4 55.15 95.1 59.75 94.55 61.45 Q92.9 65.85 88.7 71.65 L88.7 71.25 Q89.35 70.45 92.1 62.15 L92.1 61.4 87.4 64.25 Q82.95 66.75 82.65 67.1 L82.65 66.7 90.65 56.6 93.55 52.65 95.35 50.3 Q99.95 44.25 104.25 39.55 M117.75 53.0 L118.9 53.0 112.55 59.35 114.1 58.75 Q111.15 60.8 108.7 61.5 L103.65 62.25 96.4 63.7 Q98.1 62.65 102.45 60.5 L105.4 59.05 117.75 53.0 M116.3 58.0 L116.4 57.95 Q116.4 59.5 113.45 64.75 L110.45 69.8 111.55 69.65 111.3 69.75 109.5 70.65 106.15 72.0 97.4 72.0 101.6 70.15 107.3 67.5 110.75 65.6 Q115.45 62.55 116.3 58.0 M120.2 68.4 L122.1 68.6 Q118.9 73.0 117.05 77.3 L128.0 88.9 Q139.25 105.45 141.3 109.75 L141.3 110.15 140.95 115.6 140.55 119.95 139.6 118.2 137.6 114.45 137.2 114.95 137.2 115.8 137.05 118.65 136.85 122.05 Q136.1 121.7 134.5 120.2 L134.2 119.95 Q132.4 118.25 131.5 117.85 L131.5 118.25 132.75 124.25 132.75 124.3 Q133.65 129.75 134.2 130.75 L133.8 130.75 131.0 129.0 Q129.5 131.85 128.15 135.3 127.55 131.3 125.5 126.55 L119.8 141.35 Q119.8 134.65 119.25 128.8 L118.95 125.65 108.05 136.8 107.65 136.8 107.65 134.15 108.05 126.55 109.05 122.2 103.4 126.5 Q100.1 128.8 94.6 132.15 L95.8 129.8 96.1 129.2 Q96.85 127.25 97.0 124.95 97.15 122.3 96.15 120.45 94.7 121.45 77.4 137.55 L75.65 134.3 Q74.35 131.4 74.5 130.1 L74.25 130.1 Q72.8 130.95 70.0 133.75 67.6 136.15 65.7 138.45 L65.1 139.15 64.15 129.05 Q64.05 127.95 65.7 123.85 L65.9 123.35 66.5 122.6 66.3 122.5 66.25 122.35 65.7 122.2 62.15 120.6 58.15 118.6 65.7 117.75 67.15 117.55 65.7 116.9 48.9 108.9 35.35 103.25 37.7 102.05 43.95 98.8 33.15 95.05 42.15 94.35 42.55 94.3 42.2 93.65 40.85 91.85 33.5 82.8 26.4 73.7 24.4 71.15 47.65 74.35 46.95 77.7 Q47.0 79.9 46.65 81.6 L43.8 80.1 42.1 79.2 36.6 76.4 37.05 78.75 37.3 79.7 38.2 82.8 Q38.9 84.9 39.8 86.3 L42.6 90.25 48.55 97.9 50.75 100.1 46.25 104.25 46.25 104.6 53.45 104.6 55.3 103.75 56.85 102.7 57.25 102.7 56.15 105.8 55.35 108.4 55.35 109.55 60.55 103.7 Q64.65 99.2 65.2 98.95 L65.2 98.55 65.0 102.95 64.45 106.9 65.7 106.35 Q70.05 104.35 71.65 102.7 L72.4 102.7 Q72.3 103.1 73.65 108.05 75.05 113.1 75.05 113.7 L75.25 113.75 75.45 114.1 80.05 108.6 Q84.15 103.8 84.15 102.7 L92.1 113.35 96.05 104.7 100.1 95.5 105.0 102.35 105.4 102.35 106.5 90.95 Q107.45 92.1 111.05 94.6 114.5 97.05 115.6 97.4 L116.0 97.4 111.4 87.4 110.1 84.55 106.15 81.5 105.75 81.85 104.5 87.85 103.05 85.5 Q101.6 82.9 101.6 82.25 101.3 83.35 96.45 88.7 90.75 94.95 89.1 97.4 L89.1 97.05 88.9 90.35 88.7 84.9 Q87.8 85.1 87.15 86.2 L85.65 87.95 85.85 85.15 86.05 82.65 85.65 82.65 84.35 83.95 77.85 89.65 69.4 97.05 Q69.75 94.75 69.75 89.45 L65.7 91.8 60.65 94.4 60.65 94.0 Q64.7 84.1 65.7 82.0 L65.95 81.5 65.6 81.5 Q63.7 83.15 61.0 82.95 L59.05 82.6 58.75 82.65 58.0 82.65 Q61.75 81.0 65.7 78.65 L67.75 77.4 Q74.55 73.15 75.45 70.5 L75.45 70.9 72.1 77.7 67.5 85.65 67.85 85.65 Q68.6 85.85 71.85 84.75 75.05 83.65 75.8 83.0 L74.85 85.3 73.55 87.95 73.9 87.95 84.25 81.8 84.5 81.65 Q92.2 76.85 92.5 75.8 92.5 76.85 93.25 83.4 L93.25 83.0 102.3 78.35 103.3 77.8 106.1 76.4 108.95 78.25 Q113.3 81.1 113.7 81.5 L114.05 81.5 110.3 74.25 Q119.75 69.3 120.1 68.5 L120.2 68.4 M29.55 124.3 Q31.8 120.25 33.85 115.75 L39.2 119.05 Q43.05 121.3 46.7 123.15 44.95 124.75 44.55 125.3 43.95 126.1 43.7 127.15 43.55 127.8 43.55 128.6 43.55 129.75 43.85 130.9 44.9 134.6 49.35 138.0 L49.4 138.45 48.5 142.5 Q47.35 141.55 45.6 137.95 44.05 134.8 43.95 133.65 L43.95 133.8 Q43.5 134.2 42.8 136.4 42.1 138.45 42.1 139.1 L41.7 139.1 Q40.4 134.7 39.25 130.05 37.0 120.75 37.55 118.6 37.0 119.15 32.5 122.3 L29.55 124.3 M30.9 113.85 L17.9 113.85 24.6 109.55 26.75 111.05 30.9 113.85 M46.6 79.45 L46.95 77.7 46.6 79.45 M120.55 93.6 L122.7 97.55 125.1 101.6 125.1 101.95 121.6 99.0 Q120.6 98.2 119.8 97.95 L120.8 100.6 123.2 106.5 123.2 106.9 Q121.15 106.1 116.25 103.55 113.05 101.9 111.45 101.95 109.0 108.05 108.2 111.2 L106.9 110.2 103.5 107.25 98.2 118.65 98.2 119.0 103.1 114.45 105.6 117.65 106.5 119.0 Q108.75 115.55 113.7 109.15 L116.0 109.15 121.25 109.95 128.15 111.05 130.0 111.05 125.85 103.85 128.9 105.55 Q131.1 106.65 131.55 107.25 L131.9 107.25 Q130.0 105.35 125.65 99.7 L120.9 93.6 120.55 93.6 M114.5 88.25 L115.25 89.45 115.25 89.1 114.5 88.25 M109.25 121.2 L109.05 122.2 109.25 121.2 M70.15 117.05 L69.65 120.2 68.25 129.25 68.6 129.25 Q69.35 128.2 75.3 123.9 L81.5 119.4 81.9 119.8 Q82.65 124.6 82.65 126.6 L83.0 126.6 86.2 122.35 89.1 118.25 90.7 119.35 Q92.05 120.15 92.5 120.15 L92.5 119.8 Q90.95 118.95 89.2 116.75 L86.8 113.7 Q86.8 114.1 86.45 114.1 86.55 114.85 85.9 116.55 L85.45 117.5 83.8 120.15 82.6 117.15 81.5 113.7 77.15 117.7 Q72.85 121.65 72.05 121.65 L71.95 118.25 Q72.2 118.1 72.0 117.15 L71.75 116.2 70.9 113.7 70.15 117.05" fill="#b19656" fill-rule="evenodd" stroke="none"/>
    <path d="M33.85 115.75 L30.9 113.85 26.75 111.05 24.6 109.55 Q18.4 105.15 12.45 100.35 6.1 95.2 0.0 89.55 L6.1 91.9 12.45 95.5 18.4 98.9 Q18.1 99.0 18.1 99.25 L23.0 102.6 Q28.15 105.85 29.55 105.85 L29.95 105.8 31.2 106.55 40.05 112.0 Q45.7 115.6 48.9 117.9 L43.55 112.2 44.5 112.2 48.45 113.8 53.8 116.0 Q55.8 116.7 62.7 116.8 L65.7 116.9 67.15 117.55 65.7 117.75 58.15 118.6 62.15 120.6 65.7 122.2 66.25 122.35 66.3 122.5 66.5 122.6 65.9 123.35 65.7 123.85 Q64.05 127.95 64.15 129.05 62.65 130.1 57.75 129.05 L46.7 123.15 Q43.05 121.3 39.2 119.05 L33.85 115.75 M52.5 64.25 L50.4 61.05 47.2 51.65 Q44.5 43.65 43.5 39.15 L43.1 37.25 Q41.65 30.05 41.3 21.5 L41.5 19.5 Q42.25 14.25 43.55 11.4 L43.55 11.0 Q46.85 20.2 50.0 27.75 L53.25 35.15 54.25 37.25 61.4 51.55 61.75 51.55 Q61.75 50.45 61.4 49.3 L61.4 44.75 65.1 49.05 69.9 54.85 64.25 54.85 69.05 59.15 64.6 59.95 60.5 60.15 60.5 61.5 63.5 69.25 63.5 69.3 63.25 69.25 61.45 68.3 Q59.25 66.95 57.5 65.2 56.7 68.0 56.65 69.25 L56.7 69.85 56.3 69.25 54.3 66.65 52.5 64.25 M50.75 100.1 L48.55 97.9 42.6 90.25 39.8 86.3 Q38.9 84.9 38.2 82.8 L37.3 79.7 37.05 78.75 43.35 84.2 47.95 88.2 55.75 93.75 51.05 93.5 50.75 93.5 55.1 100.85 51.8 101.1 51.75 101.1 50.75 100.1" fill="#8e5151" fill-rule="evenodd" stroke="none"/>
    <path d="M43.85 6.1 Q43.85 1.3 46.8 7.7 48.3 10.85 49.75 15.1 L49.65 16.1 48.7 16.4 Q47.15 16.4 45.3 11.05 L43.85 6.1 M53.45 24.05 L52.65 24.35 Q51.2 23.7 51.1 22.9 L51.25 21.0 Q52.8 19.95 53.3 21.15 L53.5 22.75 53.45 24.05 M59.1 32.5 Q59.95 32.85 59.95 33.8 L59.5 34.55 58.35 34.5 58.25 33.45 Q58.25 32.8 58.55 32.65 L59.1 32.5 M18.4 98.9 Q19.35 98.65 23.55 100.75 L30.8 104.7 30.35 105.4 29.95 105.8 29.55 105.85 Q28.15 105.85 23.0 102.6 L18.1 99.25 Q18.1 99.0 18.4 98.9 M45.65 84.4 Q44.35 84.4 42.15 82.6 39.9 80.75 39.8 79.4 42.45 79.35 46.25 84.05 46.65 84.4 45.65 84.4 M39.75 110.35 Q39.65 110.65 39.05 110.65 38.7 110.65 37.45 109.7 36.1 108.7 35.8 108.0 36.95 107.55 38.3 108.4 39.4 109.05 39.8 109.8 L39.75 110.35" fill="#c98181" fill-rule="evenodd" stroke="none"/>
    <path d="M140.55 119.95 L139.65 129.05 Q136.55 127.25 135.75 125.8 L136.05 127.25 137.7 135.3 Q136.2 134.4 134.35 131.9 L135.65 149.8 130.05 141.55 130.05 160.7 125.3 154.35 123.15 157.25 118.9 162.3 118.8 162.15 118.7 162.1 117.95 158.05 117.6 156.6 107.3 166.8 108.45 157.45 110.5 140.55 102.5 150.05 108.05 126.55 107.65 134.15 107.65 136.8 108.05 136.8 118.95 125.65 119.25 128.8 Q119.8 134.65 119.8 141.35 L125.5 126.55 Q127.55 131.3 128.15 135.3 129.5 131.85 131.0 129.0 L133.8 130.75 134.2 130.75 Q133.65 129.75 132.75 124.3 L132.75 124.25 131.5 118.25 131.5 117.85 Q132.4 118.25 134.2 119.95 L134.5 120.2 Q136.1 121.7 136.85 122.05 L137.05 118.65 137.2 115.8 137.2 114.95 137.6 114.45 139.6 118.2 140.55 119.95 M49.2 146.8 L45.35 155.15 43.25 141.85 Q39.2 151.6 38.65 153.75 38.3 155.2 38.25 156.95 35.85 145.95 34.9 127.6 27.55 136.45 20.85 137.8 25.3 131.65 28.25 126.6 L29.55 124.3 32.5 122.3 Q37.0 119.15 37.55 118.6 37.0 120.75 39.25 130.05 40.4 134.7 41.7 139.1 L42.1 139.1 Q42.1 138.45 42.8 136.4 43.5 134.2 43.95 133.8 L43.95 133.65 Q44.05 134.8 45.6 137.95 47.35 141.55 48.5 142.5 L49.4 138.45 49.6 140.3 49.2 146.8" fill="#9f8341" fill-rule="evenodd" stroke="none"/>
    <path d="M53.45 135.45 L51.15 134.0 Q49.1 132.35 48.8 130.9 50.9 131.05 52.55 132.0 54.3 132.95 54.3 134.1 L54.2 135.15 54.15 135.3 53.45 135.45 M91.75 155.4 L89.45 155.4 89.35 154.25 Q89.35 152.85 92.5 150.85 95.6 148.8 95.6 151.75 95.6 152.9 94.8 153.5 L91.75 155.4 M88.95 150.15 L89.2 150.9 Q89.2 151.7 87.3 152.5 87.0 153.05 87.0 152.05 87.0 150.55 88.35 150.0 L88.95 150.15" fill="#7f6a9c" fill-rule="evenodd" stroke="none"/>
    <path d="M66.85 39.25 L66.45 38.65 M55.2 143.05 L54.7 142.1" fill="none" stroke="#333333" stroke-linecap="round" stroke-linejoin="round" stroke-width="1"/>
    <path d="M108.45 157.45 L102.6 159.45 Q94.1 162.3 91.25 162.85 85.85 164.0 77.65 164.0 71.1 164.0 65.7 162.45 60.3 160.9 56.05 157.8 49.2 152.8 49.2 147.55 L49.2 146.8 49.6 140.3 Q49.75 142.6 51.4 143.75 53.05 144.9 56.55 145.6 L55.2 143.05 M43.7 127.15 Q43.95 126.1 44.55 125.3 44.95 124.75 46.7 123.15 M43.85 130.9 Q44.9 134.6 49.35 138.0 L49.5 138.1 54.35 141.8 54.7 142.1 58.55 145.25 M43.85 130.9 Q43.55 129.75 43.55 128.6 43.55 127.8 43.7 127.15 M94.6 132.15 Q90.75 137.5 84.05 139.45 L90.75 139.65 Q86.55 146.7 74.7 147.2 L77.55 142.4 69.35 145.3" fill="none" stroke="#452d66" stroke-linecap="round" stroke-linejoin="round" stroke-width="1"/>
    <path d="M66.45 38.6 L66.75 36.95 Q67.7 31.6 68.5 29.4 L68.9 30.45 72.35 40.35 74.3 36.55 Q75.75 33.75 77.55 30.65 86.45 15.3 92.85 11.05 L92.8 11.65 Q92.45 15.85 90.1 32.45 L88.9 41.05 87.45 51.0 87.25 52.4 87.25 52.45 87.15 53.0 87.15 53.8 87.75 53.05 93.45 47.55 94.8 46.3 Q101.75 39.95 103.05 39.55 L104.25 39.55 105.05 39.55 97.2 52.4 97.05 52.7 95.3 55.45 96.4 55.15 98.45 54.8 104.3 54.1 115.25 53.0 117.75 53.0 118.9 53.0 112.55 59.35 114.1 58.75 116.3 58.0 116.4 57.95 Q116.4 59.5 113.45 64.75 L110.45 69.8 111.55 69.65 114.35 69.05 118.65 68.3 120.2 68.4 122.1 68.6 Q118.9 73.0 117.05 77.3 L128.0 88.9 Q139.25 105.45 141.3 109.75 L141.3 110.15 140.95 115.6 140.55 119.95 139.65 129.05 Q136.55 127.25 135.75 125.8 L136.05 127.25 137.7 135.3 Q136.2 134.4 134.35 131.9 L135.65 149.8 130.05 141.55 130.05 160.7 125.3 154.35 123.15 157.25 118.9 162.3 118.8 162.15 118.7 162.1 117.95 158.05 117.6 156.6 107.3 166.8 108.45 157.45 110.5 140.55 102.5 150.05 108.05 126.55 109.05 122.2 109.25 121.2 M49.2 146.8 L45.35 155.15 43.25 141.85 Q39.2 151.6 38.65 153.75 38.3 155.2 38.25 156.95 35.85 145.95 34.9 127.6 27.55 136.45 20.85 137.8 25.3 131.65 28.25 126.6 L29.55 124.3 Q31.8 120.25 33.85 115.75 M30.9 113.85 L17.9 113.85 24.6 109.55 M35.35 103.25 L37.7 102.05 43.95 98.8 33.15 95.05 42.15 94.35 42.55 94.3 42.2 93.65 40.85 91.85 33.5 82.8 26.4 73.7 24.4 71.15 47.65 74.35 47.75 74.35 49.25 66.9 50.85 70.75 52.1 73.85 Q51.75 71.8 51.9 69.25 52.0 66.95 52.5 64.25 L54.3 66.65 56.3 69.25 56.7 69.85 56.65 69.25 Q56.7 68.0 57.5 65.2 59.25 66.95 61.45 68.3 L63.25 69.25 63.5 69.3 63.5 69.25 60.5 61.5 60.5 60.15 64.6 59.95 69.05 59.15 64.25 54.85 69.9 54.85 70.35 54.85 69.45 51.7 67.55 45.5 67.55 43.15 67.8 43.15 71.45 45.7 72.05 46.1 M66.45 38.6 L66.85 39.25 M68.5 41.95 L68.8 42.15 M46.95 77.7 L46.6 79.45 M46.95 77.7 L47.65 74.35 M55.75 93.75 L55.85 93.75 55.85 93.5 48.25 85.1 48.5 85.1 53.7 85.6 M51.75 101.1 L51.8 101.1 55.1 100.85 50.75 93.5 51.05 93.5 55.75 93.75 M67.15 117.55 L65.7 117.75 58.15 118.6 62.15 120.6 65.7 122.2 66.25 122.35 66.3 122.5 66.5 122.6 65.9 123.35 65.7 123.85 Q64.05 127.95 64.15 129.05 L65.1 139.15 65.7 138.45 Q67.6 136.15 70.0 133.75 72.8 130.95 74.25 130.1 L74.5 130.1 Q74.35 131.4 75.65 134.3 L77.4 137.55 Q94.7 121.45 96.15 120.45 97.15 122.3 97.0 124.95 96.85 127.25 96.1 129.2 L95.8 129.8 94.6 132.15 Q100.1 128.8 103.4 126.5 L109.05 122.2 M49.4 138.45 L49.35 138.0 M49.4 138.45 L49.6 140.3" fill="none" stroke="#79622b" stroke-linecap="round" stroke-linejoin="round" stroke-width="1"/>
    <path d="M33.85 115.75 L30.9 113.85 26.75 111.05 24.6 109.55 Q18.4 105.15 12.45 100.35 6.1 95.2 0.0 89.55 L6.1 91.9 35.35 103.25 48.9 108.9 65.7 116.9 67.15 117.55 M52.5 64.25 L50.4 61.05 47.2 51.65 Q44.5 43.65 43.5 39.15 L43.1 37.25 Q41.65 30.05 41.3 21.5 41.15 18.75 41.15 15.85 41.15 12.45 41.6 9.85 42.25 6.25 44.2 0.0 47.45 7.05 51.55 14.45 L51.6 14.5 Q56.35 23.1 60.45 28.8 L66.45 38.65 M66.85 39.25 L68.5 41.95 M68.8 42.15 L72.05 46.1 M50.75 100.1 L48.55 97.9 42.6 90.25 39.8 86.3 Q38.9 84.9 38.2 82.8 L37.3 79.7 37.05 78.75 36.6 76.4 42.1 79.2 43.8 80.1 46.65 81.6 47.05 81.8 53.7 85.6 M50.75 100.1 L51.75 101.1 M46.7 123.15 Q43.05 121.3 39.2 119.05 L33.85 115.75 M64.15 129.05 Q62.65 130.1 57.75 129.05 L46.7 123.15" fill="none" stroke="#743636" stroke-linecap="round" stroke-linejoin="round" stroke-width="1"/>
  </g>
</svg>