<?xml version="1.0" encoding="UTF-8" standalone="no"?>
<svg xmlns:xlink="http://www.w3.org/1999/xlink" height="72.25px" width="64.3px" xmlns="http://www.w3.org/2000/svg">
  <g transform="matrix(1.0, 0.0, 0.0, 1.0, 36, 36)">
    <path d="M3.7 -26.2 L2.1 -28.05 Q1.55 -29.35 0.55 -29.95 -0.55 -30.6 -2.55 -30.6 L-5.85 -30.1 -6.75 -29.6 -6.85 -29.6 -7.55 -30.0 Q-8.3 -30.45 -9.0 -30.45 L-9.4 -30.4 -10.0 -29.8 -10.35 -29.35 -10.4 -29.3 -11.0 -28.35 -11.45 -27.0 Q-11.45 -26.55 -9.8 -26.0 L-8.55 -25.65 Q-5.25 -24.85 -4.35 -23.7 L-3.65 -22.85 -2.0 -21.3 Q-0.8 -20.4 0.4 -20.1 L1.55 -20.0 2.7 -20.1 Q3.5 -20.3 4.05 -20.75 5.0 -21.5 5.0 -22.85 L4.7 -24.6 4.15 -25.6 3.95 -25.85 3.7 -26.2 M7.5 -24.95 Q7.1 -24.0 7.05 -23.45 L7.05 -23.4 Q7.05 -21.4 10.55 -20.45 L15.25 -19.85 15.3 -19.85 16.85 -19.45 18.3 -19.05 Q20.4 -19.05 20.4 -20.55 20.4 -22.85 16.55 -24.45 L14.3 -25.25 11.05 -26.1 8.55 -26.1 Q8.05 -26.1 7.5 -24.95 M0.8 -17.25 L-0.35 -17.85 -1.25 -18.15 -1.7 -18.45 -1.7 -16.65 Q-1.45 -14.45 -0.85 -13.45 L-0.35 -12.85 Q0.15 -12.3 1.0 -12.15 L1.4 -12.15 1.5 -12.15 Q5.45 -12.15 7.95 -13.35 10.25 -14.4 10.25 -15.9 10.25 -17.2 8.95 -18.0 7.75 -18.75 5.85 -18.75 L3.6 -18.5 2.25 -18.1 Q1.15 -17.65 0.8 -17.25 M1.1 -9.55 L0.5 -10.0 -0.45 -10.25 -1.4 -9.55 -3.65 -8.15 -3.9 -8.0 Q-5.55 -7.0 -5.55 -5.5 L-5.55 -5.45 Q-5.5 -4.95 -4.95 -4.65 -4.3 -5.3 -1.05 -6.7 L-0.15 -7.1 -0.1 -7.1 Q1.7 -8.05 1.7 -8.6 1.7 -9.05 1.1 -9.55 M9.05 -4.8 Q9.05 -4.35 8.55 -3.65 L7.85 -2.95 8.0 -2.3 Q8.25 -1.95 7.5 -1.95 L6.75 -2.15 6.45 -2.55 Q6.35 -2.2 6.35 -2.95 L6.75 -3.0 Q6.6 -3.2 6.6 -3.6 6.6 -4.2 7.1 -4.75 7.75 -5.45 8.9 -5.4 L9.05 -4.8 M27.3 -20.5 L26.85 -20.2 26.75 -20.45 Q26.65 -20.45 26.55 -20.55 L18.25 -15.9 12.05 -11.65 11.8 -11.5 3.75 -7.55 Q-2.25 -4.6 -4.75 -2.85 -5.3 -3.9 -7.55 -4.55 L-11.55 -5.4 -15.85 -7.05 -18.35 -7.8 -18.45 -8.1 -27.2 -12.55 Q-33.0 -15.5 -34.15 -15.55 L-35.0 -15.95 -29.1 -19.65 -29.05 -19.7 -28.05 -20.35 -12.05 -30.45 -8.35 -32.85 -4.95 -35.0 27.3 -20.5 M25.85 -19.65 L17.8 -15.0 21.95 -17.55 25.85 -19.65 M-8.3 -2.55 L-5.7 -1.4 -5.7 -1.35 -5.8 -1.3 -8.3 -2.55 M16.85 -2.35 L16.8 0.3 15.9 4.25 15.35 4.65 Q14.0 3.1 13.65 1.1 L13.55 -2.35 Q13.55 -5.95 15.2 -6.1 16.85 -6.2 16.85 -2.35 M21.75 -11.4 Q22.4 -10.6 22.4 -9.75 22.2 -9.3 21.15 -9.3 L20.9 -9.35 20.85 -9.9 21.2 -10.65 21.75 -11.4 M18.9 12.1 L18.95 13.2 Q18.8 13.95 17.85 13.95 16.35 13.95 15.35 9.3 18.9 7.5 18.9 12.1 M3.05 5.35 Q2.5 7.05 1.7 7.05 0.45 7.05 0.2 5.75 L0.15 4.45 Q0.15 1.3 1.85 0.95 3.5 0.65 3.5 3.15 L3.05 5.35 M1.35 15.75 L1.35 15.25 1.5 15.05 Q5.0 15.2 6.75 16.65 8.15 17.8 8.15 19.5 L8.15 20.6 Q7.95 21.2 6.75 21.2 5.05 21.2 3.0 18.5 L1.35 15.75 M-24.5 -19.15 Q-24.5 -17.9 -22.8 -15.35 L-21.0 -12.6 Q-20.45 -11.0 -19.3 -10.35 L-18.35 -9.95 -15.2 -9.6 -12.35 -9.9 -10.1 -9.35 -9.95 -9.3 -8.45 -8.85 Q-5.7 -8.85 -4.05 -10.45 -3.15 -11.3 -2.8 -12.25 L-2.6 -13.55 Q-2.6 -15.0 -3.2 -16.35 L-3.75 -17.4 -4.85 -19.35 -5.1 -20.0 Q-5.45 -22.25 -6.6 -23.1 -7.3 -23.6 -8.65 -23.75 L-10.0 -23.85 -13.15 -23.35 Q-14.4 -22.9 -14.55 -22.2 L-14.7 -22.2 Q-14.9 -23.4 -16.8 -23.75 L-17.2 -23.85 -18.9 -23.85 Q-21.95 -22.6 -23.15 -21.6 -24.5 -20.55 -24.5 -19.15 M-26.9 -10.25 Q-26.1 -9.6 -25.5 -8.4 L-23.8 -6.1 -23.7 -5.95 Q-22.95 -4.8 -22.55 -3.7 -22.2 -2.65 -22.2 -1.7 -22.2 -0.3 -23.05 1.35 L-23.4 2.0 -23.55 2.25 Q-24.8 4.2 -26.25 4.2 -27.3 4.2 -27.8 3.1 -28.3 2.0 -28.55 -0.75 -28.6 -1.5 -28.95 -2.5 L-30.0 -4.75 -30.2 -5.15 Q-31.65 -7.85 -31.65 -9.3 L-31.6 -9.75 -31.4 -10.05 Q-30.4 -11.0 -29.1 -11.0 L-28.2 -10.9 Q-27.5 -10.75 -26.9 -10.25 M-21.35 -6.25 L-20.85 -6.35 Q-19.7 -6.35 -18.9 -5.5 -18.15 -4.7 -18.15 -3.6 -18.15 -2.9 -18.45 -2.3 -18.7 -1.75 -19.05 -1.6 L-19.4 -1.55 Q-20.1 -1.55 -20.85 -2.85 L-21.15 -3.4 -21.6 -4.7 -21.75 -5.0 -22.05 -5.8 Q-21.8 -6.15 -21.35 -6.25 M-26.4 -7.45 Q-28.8 -8.65 -28.8 -6.7 -28.8 -5.45 -28.05 -3.8 L-27.8 -3.35 Q-26.65 -1.35 -24.65 -1.35 -24.15 -1.35 -24.05 -2.2 L-24.0 -3.65 Q-24.0 -4.8 -24.45 -5.65 -25.05 -6.8 -26.4 -7.45 M-14.45 -2.4 L-12.45 -2.85 Q-10.8 -2.85 -9.45 0.2 L-8.4 3.2 Q-7.75 5.45 -7.4 7.55 -6.95 10.15 -6.95 12.5 L-6.95 13.3 Q-7.05 14.7 -7.5 15.2 -7.95 15.7 -9.45 15.75 L-9.8 15.75 -10.6 15.7 -11.35 15.45 -12.2 14.7 -12.35 14.35 Q-12.95 13.1 -13.95 9.3 -14.15 8.4 -14.7 7.75 -15.35 6.95 -16.35 6.45 L-17.25 5.95 -18.15 4.9 -18.05 4.05 -17.85 3.4 -17.3 2.0 -16.65 0.7 -15.95 -0.5 Q-15.6 -1.8 -14.45 -2.4 M-14.25 3.3 Q-14.25 5.1 -13.8 5.5 -12.4 6.4 -10.55 8.1 -10.05 7.2 -10.05 5.45 -10.05 1.95 -12.15 0.95 -14.25 -0.05 -14.25 3.3 M-19.95 6.15 Q-20.2 7.05 -20.75 7.7 -21.5 8.55 -22.0 8.55 -22.8 8.55 -22.8 7.5 L-21.65 4.6 -21.55 4.4 -20.7 2.45 -20.55 2.4 Q-20.1 2.4 -19.85 3.15 L-19.7 4.25 Q-19.7 5.3 -19.95 6.15 M-11.8 19.2 Q-11.3 18.65 -10.8 18.65 -9.8 18.65 -8.9 19.1 L-8.6 19.25 Q-7.35 20.0 -6.35 21.7 -4.95 24.15 -4.95 26.25 L-4.95 27.15 Q-5.15 29.7 -6.45 29.7 L-7.7 29.15 -7.95 29.0 -8.3 28.8 -11.0 27.15 Q-11.6 26.8 -13.7 26.05 -14.9 25.65 -14.9 25.0 L-14.75 24.25 -13.65 21.6 -12.45 19.75 -11.85 19.2 -11.8 19.2 M-19.6 14.8 Q-18.7 15.7 -17.15 16.6 -15.35 17.7 -15.35 18.9 -15.35 19.6 -17.1 21.0 -19.15 22.65 -21.2 22.65 -22.5 22.65 -23.35 21.6 L-23.85 20.85 -24.8 18.8 -26.95 14.6 Q-27.75 13.1 -27.75 11.45 L-27.55 9.05 -27.2 7.5 Q-26.8 7.55 -26.45 7.9 -26.05 8.25 -25.8 8.9 -24.85 11.5 -24.2 11.85 L-22.65 12.15 Q-21.35 12.5 -20.45 13.8 L-19.6 14.8 M-19.45 9.2 L-18.75 8.4 -17.6 8.65 Q-16.8 9.05 -16.25 9.95 L-16.1 10.35 Q-15.5 11.7 -15.5 14.05 L-15.65 15.5 -15.8 15.5 -18.05 13.95 -18.65 13.4 Q-20.0 12.1 -20.0 11.0 -20.0 10.05 -19.45 9.2 M-19.55 19.65 L-19.35 18.1 Q-19.35 15.85 -21.75 14.3 -24.15 12.75 -24.15 15.0 L-23.55 17.65 Q-22.6 20.4 -20.9 20.4 -19.85 20.4 -19.55 19.65 M-9.15 22.2 Q-11.4 21.6 -11.4 23.5 L-11.1 25.35 Q-10.35 27.05 -8.1 27.05 L-6.9 26.9 -6.9 25.65 Q-6.9 22.8 -9.15 22.2" fill="#3782e9" fill-rule="evenodd" stroke="none"/>
    <path d="M0.9 -2.15 L2.55 -1.8 3.45 -1.25 Q4.65 -0.35 4.65 1.1 L4.65 1.65 4.65 2.3 Q4.5 4.55 3.9 6.4 2.95 9.3 1.2 9.3 -0.1 9.3 -1.35 7.65 L-1.55 7.4 Q-2.45 6.1 -2.75 4.95 L-2.85 4.0 Q-2.85 2.9 -2.3 1.25 L-1.85 0.0 -1.5 -0.8 -1.05 -1.6 Q-0.2 -2.15 0.9 -2.15 M9.05 -4.8 L8.9 -5.4 Q7.75 -5.45 7.1 -4.75 6.6 -4.2 6.6 -3.6 6.6 -3.2 6.75 -3.0 L6.35 -2.95 Q6.35 -2.2 6.45 -2.55 L6.75 -2.15 7.5 -1.95 Q8.25 -1.95 8.0 -2.3 L7.85 -2.95 8.55 -3.65 Q9.05 -4.35 9.05 -4.8 M9.5 -6.05 L9.8 -4.95 9.5 -3.15 9.1 -2.05 Q8.3 0.35 7.3 0.45 L7.2 0.45 6.7 -0.35 6.15 -1.25 5.15 -3.3 5.3 -3.8 6.35 -5.2 Q8.1 -6.5 8.85 -6.5 9.25 -6.5 9.5 -6.05 M-3.15 23.7 L-2.55 29.4 Q-3.15 26.05 -3.15 23.8 L-3.15 23.7 M-20.15 -7.9 L-20.25 -7.85 -20.15 -7.65 -20.7 -7.85 -20.7 -7.5 -19.9 -7.4 Q-19.05 -6.6 -16.85 -5.85 L-13.5 -4.8 -8.3 -2.55 -5.8 -1.3 -5.7 -0.35 -5.7 1.65 -5.0 6.2 -3.6 19.5 -3.75 23.75 Q-3.75 28.95 -2.5 34.7 L-26.45 21.65 -35.0 -15.95 -34.15 -15.55 Q-34.5 -15.55 -34.5 -15.35 -34.5 -15.6 -27.6 -11.7 -22.4 -8.75 -20.15 -7.9 M16.2 -9.85 Q16.9 -8.2 17.55 -4.45 L17.9 -2.45 18.45 2.5 Q18.45 6.5 11.4 6.5 11.05 6.5 10.7 4.8 L10.55 3.6 10.4 1.1 Q10.4 -2.3 11.65 -5.3 L12.75 -7.6 Q14.1 -9.9 15.5 -10.95 L16.2 -9.85 M19.55 -8.25 Q19.55 -9.65 21.2 -12.6 L22.7 -14.95 Q23.75 -14.1 23.75 -11.25 23.75 -9.45 22.65 -8.4 21.65 -7.5 20.3 -7.5 19.95 -7.5 19.7 -7.8 L19.55 -8.25 M16.85 -2.35 Q16.85 -6.2 15.2 -6.1 13.55 -5.95 13.55 -2.35 L13.65 1.1 Q14.0 3.1 15.35 4.65 L15.9 4.25 16.8 0.3 16.85 -2.35 M19.55 -1.1 Q19.55 -2.0 20.1 -3.4 L20.55 -4.35 21.05 -4.95 21.95 -5.4 Q23.15 -5.4 23.15 -3.15 23.15 0.35 20.7 2.55 L20.05 1.35 Q19.55 0.2 19.55 -1.1 M21.75 -11.4 L21.2 -10.65 20.85 -9.9 20.9 -9.35 21.15 -9.3 Q22.2 -9.3 22.4 -9.75 22.4 -10.6 21.75 -11.4 M13.75 11.8 L12.75 10.05 Q12.75 9.7 13.4 9.05 L14.6 8.1 18.5 8.1 18.95 8.55 Q19.55 9.45 19.55 12.85 19.55 15.05 18.55 16.85 L18.05 17.6 Q17.25 18.6 16.3 18.6 15.95 18.6 15.7 18.35 L15.2 17.2 15.05 16.4 14.9 15.35 Q14.8 13.4 13.75 11.8 M18.9 12.1 Q18.9 7.5 15.35 9.3 16.35 13.95 17.85 13.95 18.8 13.95 18.95 13.2 L18.9 12.1 M8.75 5.05 Q9.15 5.8 9.15 7.15 9.15 8.85 8.55 9.95 L7.5 10.85 7.2 10.85 Q6.2 10.65 6.2 9.25 6.2 8.65 6.95 6.85 L7.15 6.35 7.3 6.0 8.1 4.3 8.75 5.0 8.75 5.05 M3.05 5.35 L3.5 3.15 Q3.5 0.65 1.85 0.95 0.15 1.3 0.15 4.45 L0.2 5.75 Q0.45 7.05 1.7 7.05 2.5 7.05 3.05 5.35 M8.85 13.95 L8.5 13.2 Q8.8 12.75 9.35 12.45 L9.7 12.25 10.4 12.0 Q11.55 12.0 11.55 14.1 L11.5 15.0 11.35 15.5 10.85 16.2 Q9.4 14.9 8.85 13.95 M6.25 14.4 L6.75 14.75 Q10.7 17.7 10.7 20.2 10.7 21.2 8.35 23.3 5.95 25.5 4.6 25.5 L3.35 25.2 Q2.1 24.55 0.85 22.6 -1.05 19.8 -1.05 17.3 L-0.95 14.3 -0.75 13.2 -0.6 13.1 Q0.7 12.15 1.55 12.15 3.1 12.15 6.25 14.4 M1.35 15.75 L3.0 18.5 Q5.05 21.2 6.75 21.2 7.95 21.2 8.15 20.6 L8.15 19.5 Q8.15 17.8 6.75 16.65 5.0 15.2 1.5 15.05 L1.35 15.25 1.35 15.75 M13.45 19.55 L14.4 19.4 Q16.05 19.4 16.05 20.05 16.05 20.55 15.1 21.85 L14.8 22.25 Q13.6 23.6 12.15 23.6 L11.55 23.45 Q11.5 23.05 11.9 21.75 12.35 20.3 12.7 19.9 13.05 19.65 13.45 19.55 M0.35 31.35 Q-0.15 29.6 -0.15 27.75 L-0.15 27.6 -0.05 27.15 Q0.55 26.85 1.05 26.85 2.05 26.85 2.75 27.6 3.3 28.2 3.6 29.3 3.6 29.7 2.45 30.35 L2.4 30.4 1.95 30.6 0.35 31.35 M-28.2 -10.9 L-29.1 -11.0 Q-30.4 -11.0 -31.4 -10.05 L-31.6 -9.75 -31.65 -9.3 Q-31.65 -7.85 -30.2 -5.15 L-30.0 -4.75 -28.95 -2.5 Q-28.6 -1.5 -28.55 -0.75 -28.3 2.0 -27.8 3.1 -27.3 4.2 -26.25 4.2 -24.8 4.2 -23.55 2.25 L-23.4 2.0 -23.05 1.35 Q-22.2 -0.3 -22.2 -1.7 -22.2 -2.65 -22.55 -3.7 -22.95 -4.8 -23.7 -5.95 L-23.8 -6.1 -25.5 -8.4 Q-26.1 -9.6 -26.9 -10.25 L-25.75 -9.9 -24.8 -10.05 -26.25 -10.9 Q-27.85 -11.65 -28.8 -11.3 L-28.2 -10.9 M-21.35 -6.25 Q-21.8 -6.15 -22.05 -5.8 L-21.75 -5.0 -21.6 -4.7 -21.15 -3.4 -20.85 -2.85 Q-20.1 -1.55 -19.4 -1.55 L-19.05 -1.6 Q-18.7 -1.75 -18.45 -2.3 -18.15 -2.9 -18.15 -3.6 -18.15 -4.7 -18.9 -5.5 -19.7 -6.35 -20.85 -6.35 L-21.35 -6.25 M-14.45 -2.4 Q-15.6 -1.8 -15.95 -0.5 L-16.65 0.7 -17.3 2.0 -17.85 3.4 -18.05 4.05 -18.15 4.9 -17.25 5.95 -16.35 6.45 Q-15.35 6.95 -14.7 7.75 -14.15 8.4 -13.95 9.3 -12.95 13.1 -12.35 14.35 L-12.2 14.7 -11.35 15.45 -10.6 15.7 -9.8 15.75 -9.45 15.75 Q-7.95 15.7 -7.5 15.2 -7.05 14.7 -6.95 13.3 L-6.95 12.5 Q-6.95 10.15 -7.4 7.55 -7.75 5.45 -8.4 3.2 L-9.45 0.2 Q-10.8 -2.85 -12.45 -2.85 L-14.45 -2.4 M-19.95 6.15 Q-19.7 5.3 -19.7 4.25 L-19.85 3.15 Q-20.1 2.4 -20.55 2.4 L-20.7 2.45 -21.55 4.4 -21.65 4.6 -22.8 7.5 Q-22.8 8.55 -22.0 8.55 -21.5 8.55 -20.75 7.7 -20.2 7.05 -19.95 6.15 M-19.45 9.2 Q-20.0 10.05 -20.0 11.0 -20.0 12.1 -18.65 13.4 L-18.05 13.95 -15.8 15.5 -15.65 15.5 -15.5 14.05 Q-15.5 11.7 -16.1 10.35 L-16.25 9.95 Q-16.8 9.05 -17.6 8.65 L-18.75 8.4 -19.45 9.2 M-19.6 14.8 L-20.45 13.8 Q-21.35 12.5 -22.65 12.15 L-24.2 11.85 Q-24.85 11.5 -25.8 8.9 -26.05 8.25 -26.45 7.9 -26.8 7.55 -27.2 7.5 L-27.55 9.05 -27.75 11.45 Q-27.75 13.1 -26.95 14.6 L-24.8 18.8 -23.85 20.85 -23.35 21.6 Q-22.5 22.65 -21.2 22.65 -19.15 22.65 -17.1 21.0 -15.35 19.6 -15.35 18.9 -15.35 17.7 -17.15 16.6 -18.7 15.7 -19.6 14.8 M-11.8 19.2 L-11.85 19.2 -12.45 19.75 -13.65 21.6 -14.75 24.25 -14.9 25.0 Q-14.9 25.65 -13.7 26.05 -11.6 26.8 -11.0 27.15 L-8.3 28.8 -7.95 29.0 -7.7 29.15 -6.45 29.7 Q-5.15 29.7 -4.95 27.15 L-4.95 26.25 Q-4.95 24.15 -6.35 21.7 -7.35 20.0 -8.6 19.25 L-8.9 19.1 Q-9.8 18.65 -10.8 18.65 -11.3 18.65 -11.8 19.2" fill="#2665bd" fill-rule="evenodd" stroke="none"/>
    <path d="M0.9 -2.15 Q-0.2 -2.15 -1.05 -1.6 L-1.5 -0.8 -1.85 0.0 -2.3 1.25 Q-2.85 2.9 -2.85 4.0 L-2.75 4.95 Q-2.45 6.1 -1.55 7.4 L-1.35 7.65 Q-0.1 9.3 1.2 9.3 2.95 9.3 3.9 6.4 4.5 4.55 4.65 2.3 L4.65 1.65 4.65 1.1 Q4.65 -0.35 3.45 -1.25 L2.55 -1.8 0.9 -2.15 M9.5 -6.05 Q9.25 -6.5 8.85 -6.5 8.1 -6.5 6.35 -5.2 L5.3 -3.8 5.15 -3.3 6.15 -1.25 6.7 -0.35 7.2 0.45 7.3 0.45 Q8.3 0.35 9.1 -2.05 L9.5 -3.15 9.8 -4.95 9.5 -6.05 M-4.6 -1.4 L-4.2 -1.35 Q-2.75 -1.35 1.25 -4.1 L5.45 -7.05 Q9.2 -8.5 11.65 -10.75 L11.85 -10.65 17.8 -15.0 25.85 -19.65 26.85 -20.15 26.85 -20.2 27.3 -20.5 20.05 21.7 -1.85 34.95 -1.7 34.25 -2.4 30.15 -2.55 29.4 -3.15 23.7 -2.85 19.45 -2.65 16.9 -2.55 15.45 Q-2.55 13.9 -3.2 10.8 -3.85 7.6 -3.9 6.0 L-3.85 1.2 Q-3.9 -0.55 -4.6 -1.4 M12.0 -11.6 L11.8 -11.5 12.05 -11.65 12.0 -11.6 M19.55 -8.25 L19.7 -7.8 Q19.95 -7.5 20.3 -7.5 21.65 -7.5 22.65 -8.4 23.75 -9.45 23.75 -11.25 23.75 -14.1 22.7 -14.95 L21.2 -12.6 Q19.55 -9.65 19.55 -8.25 M16.2 -9.85 L15.5 -10.95 Q14.1 -9.9 12.75 -7.6 L11.65 -5.3 Q10.4 -2.3 10.4 1.1 L10.55 3.6 10.7 4.8 Q11.05 6.5 11.4 6.5 18.45 6.5 18.45 2.5 L17.9 -2.45 17.55 -4.45 Q16.9 -8.2 16.2 -9.85 M19.55 -1.1 Q19.55 0.2 20.05 1.35 L20.7 2.55 Q23.15 0.35 23.15 -3.15 23.15 -5.4 21.95 -5.4 L21.05 -4.95 20.55 -4.35 20.1 -3.4 Q19.55 -2.0 19.55 -1.1 M13.75 11.8 Q14.8 13.4 14.9 15.35 L15.05 16.4 15.2 17.2 15.7 18.35 Q15.95 18.6 16.3 18.6 17.25 18.6 18.05 17.6 L18.55 16.85 Q19.55 15.05 19.55 12.85 19.55 9.45 18.95 8.55 L18.5 8.1 14.6 8.1 13.4 9.05 Q12.75 9.7 12.75 10.05 L13.75 11.8 M8.75 5.05 L8.75 5.0 8.1 4.3 7.3 6.0 7.15 6.35 6.95 6.85 Q6.2 8.65 6.2 9.25 6.2 10.65 7.2 10.85 L7.5 10.85 8.55 9.95 Q9.15 8.85 9.15 7.15 9.15 5.8 8.75 5.05 M6.25 14.4 Q3.1 12.15 1.55 12.15 0.7 12.15 -0.6 13.1 L-0.75 13.2 -0.95 14.3 -1.05 17.3 Q-1.05 19.8 0.85 22.6 2.1 24.55 3.35 25.2 L4.6 25.5 Q5.95 25.5 8.35 23.3 10.7 21.2 10.7 20.2 10.7 17.7 6.75 14.75 L6.25 14.4 M8.85 13.95 Q9.4 14.9 10.85 16.2 L11.35 15.5 11.5 15.0 11.55 14.1 Q11.55 12.0 10.4 12.0 L9.7 12.25 9.35 12.45 Q8.8 12.75 8.5 13.2 L8.85 13.95 M13.45 19.55 Q13.05 19.65 12.7 19.9 12.35 20.3 11.9 21.75 11.5 23.05 11.55 23.45 L12.15 23.6 Q13.6 23.6 14.8 22.25 L15.1 21.85 Q16.05 20.55 16.05 20.05 16.05 19.4 14.4 19.4 L13.45 19.55 M0.35 31.35 L1.95 30.6 2.4 30.4 2.45 30.35 Q3.6 29.7 3.6 29.3 3.3 28.2 2.75 27.6 2.05 26.85 1.05 26.85 0.55 26.85 -0.05 27.15 L-0.15 27.6 -0.15 27.75 Q-0.15 29.6 0.35 31.35 M-5.7 -1.35 L-5.7 -0.35 -5.8 -1.3 -5.7 -1.35 M-5.0 6.2 L-4.45 9.95 Q-3.5 16.1 -3.45 17.2 L-3.45 17.55 -3.6 18.05 -3.6 18.6 -3.5 18.6 -3.55 18.9 -3.6 19.5 -5.0 6.2" fill="#1f4e8e" fill-rule="evenodd" stroke="none"/>
    <path d="M7.5 -24.95 Q8.05 -26.1 8.55 -26.1 L11.05 -26.1 14.3 -25.25 16.55 -24.45 Q20.4 -22.85 20.4 -20.55 20.4 -19.05 18.3 -19.05 L16.85 -19.45 15.3 -19.85 15.25 -19.85 10.55 -20.45 Q7.05 -21.4 7.05 -23.4 L7.05 -23.45 Q7.1 -24.0 7.5 -24.95 M3.7 -26.2 L3.95 -25.85 4.15 -25.6 4.7 -24.6 5.0 -22.85 Q5.0 -21.5 4.05 -20.75 3.5 -20.3 2.7 -20.1 L1.55 -20.0 0.4 -20.1 Q-0.8 -20.4 -2.0 -21.3 L-3.65 -22.85 -4.35 -23.7 Q-5.25 -24.85 -8.55 -25.65 L-9.8 -26.0 Q-11.45 -26.55 -11.45 -27.0 L-11.0 -28.35 -10.4 -29.3 -10.35 -29.35 -10.0 -29.8 -9.4 -30.4 -9.0 -30.45 Q-8.3 -30.45 -7.55 -30.0 L-6.85 -29.6 -6.75 -29.6 -5.85 -30.1 -2.55 -30.6 Q-0.55 -30.6 0.55 -29.95 1.55 -29.35 2.1 -28.05 L3.7 -26.2 M4.35 -17.75 L2.7 -17.2 Q1.95 -16.8 1.95 -16.15 1.95 -15.3 2.55 -14.75 4.15 -15.55 5.9 -16.0 6.75 -16.2 6.75 -16.65 6.75 -18.1 4.35 -17.75 M0.6 -22.55 Q1.1 -22.55 1.2 -23.2 L1.2 -23.55 1.2 -24.4 Q1.2 -25.85 -0.45 -27.3 -2.55 -29.15 -5.85 -28.95 L-5.85 -27.45 -5.55 -26.9 Q-4.95 -25.95 -3.35 -24.55 -1.5 -23.0 -0.1 -22.65 L0.6 -22.55 M15.7 -22.35 L16.05 -23.0 Q16.05 -24.4 13.65 -24.85 11.25 -25.3 11.25 -23.3 11.25 -22.65 11.5 -22.4 L12.75 -21.65 15.05 -21.65 15.7 -22.35 M0.8 -17.25 Q1.15 -17.65 2.25 -18.1 L3.6 -18.5 5.85 -18.75 Q7.75 -18.75 8.95 -18.0 10.25 -17.2 10.25 -15.9 10.25 -14.4 7.95 -13.35 5.45 -12.15 1.5 -12.15 L1.4 -12.15 1.0 -12.15 Q0.15 -12.3 -0.35 -12.85 L-0.85 -13.45 Q-1.45 -14.45 -1.7 -16.65 L-1.7 -18.45 -1.25 -18.15 -0.35 -17.85 0.8 -17.25 M1.1 -9.55 Q1.7 -9.05 1.7 -8.6 1.7 -8.05 -0.1 -7.1 L-0.15 -7.1 -1.05 -6.7 Q-4.3 -5.3 -4.95 -4.65 -5.5 -4.95 -5.55 -5.45 L-5.55 -5.5 Q-5.55 -7.0 -3.9 -8.0 L-3.65 -8.15 -1.4 -9.55 -0.45 -10.25 0.5 -10.0 1.1 -9.55 M-24.5 -19.15 Q-24.5 -20.55 -23.15 -21.6 -21.95 -22.6 -18.9 -23.85 L-17.2 -23.85 -16.8 -23.75 Q-14.9 -23.4 -14.7 -22.2 L-14.55 -22.2 Q-14.4 -22.9 -13.15 -23.35 L-10.0 -23.85 -8.65 -23.75 Q-7.3 -23.6 -6.6 -23.1 -5.45 -22.25 -5.1 -20.0 L-4.85 -19.35 -3.75 -17.4 -3.2 -16.35 Q-2.6 -15.0 -2.6 -13.55 L-2.8 -12.25 Q-3.15 -11.3 -4.05 -10.45 -5.7 -8.85 -8.45 -8.85 L-9.95 -9.3 -10.1 -9.35 -12.35 -9.9 -15.2 -9.6 -18.35 -9.95 -19.3 -10.35 Q-20.45 -11.0 -21.0 -12.6 L-22.8 -15.35 Q-24.5 -17.9 -24.5 -19.15 M-26.4 -7.45 Q-25.05 -6.8 -24.45 -5.65 -24.0 -4.8 -24.0 -3.65 L-24.05 -2.2 Q-24.15 -1.35 -24.65 -1.35 -26.65 -1.35 -27.8 -3.35 L-28.05 -3.8 Q-28.8 -5.45 -28.8 -6.7 -28.8 -8.65 -26.4 -7.45 M-6.0 -13.4 L-6.0 -14.5 Q-6.0 -17.0 -6.95 -17.9 -7.45 -18.4 -8.25 -18.4 -10.45 -18.5 -10.5 -15.4 L-10.5 -15.25 Q-10.5 -14.2 -10.1 -13.25 -9.4 -11.7 -7.8 -11.55 L-7.5 -11.55 Q-6.4 -11.55 -6.1 -12.75 L-6.0 -13.4 M-9.9 -18.75 Q-9.0 -18.75 -9.0 -19.5 -9.45 -20.25 -10.1 -20.35 -10.85 -20.45 -11.3 -19.5 -10.7 -18.75 -9.9 -18.75 M-14.3 -12.75 L-13.75 -13.7 Q-13.25 -14.95 -13.25 -16.2 -13.25 -19.3 -16.8 -21.1 -20.4 -22.9 -20.4 -17.85 -20.45 -16.3 -19.85 -14.9 -18.7 -12.15 -15.5 -12.15 L-15.1 -12.2 -14.3 -12.75 M-0.45 -8.15 L-0.95 -8.7 -1.1 -8.75 -1.55 -8.45 -1.8 -7.85 -1.1 -7.35 -0.7 -7.75 -0.6 -7.9 -0.45 -8.15 M-14.25 3.3 Q-14.25 -0.05 -12.15 0.95 -10.05 1.95 -10.05 5.45 -10.05 7.2 -10.55 8.1 -12.4 6.4 -13.8 5.5 -14.25 5.1 -14.25 3.3 M-19.55 19.65 Q-19.85 20.4 -20.9 20.4 -22.6 20.4 -23.55 17.65 L-24.15 15.0 Q-24.15 12.75 -21.75 14.3 -19.35 15.85 -19.35 18.1 L-19.55 19.65 M-9.15 22.2 Q-6.9 22.8 -6.9 25.65 L-6.9 26.9 -8.1 27.05 Q-10.35 27.05 -11.1 25.35 L-11.4 23.5 Q-11.4 21.6 -9.15 22.2" fill="#6ba9ff" fill-rule="evenodd" stroke="none"/>
    <path d="M15.7 -22.35 L15.05 -21.65 12.75 -21.65 11.5 -22.4 Q11.25 -22.65 11.25 -23.3 11.25 -25.3 13.65 -24.85 16.05 -24.4 16.05 -23.0 L15.7 -22.35 M0.6 -22.55 L-0.1 -22.65 Q-1.5 -23.0 -3.35 -24.55 -4.95 -25.95 -5.55 -26.9 L-5.85 -27.45 -5.85 -28.95 Q-2.55 -29.15 -0.45 -27.3 1.2 -25.85 1.2 -24.4 L1.2 -23.55 1.2 -23.2 Q1.1 -22.55 0.6 -22.55 M4.35 -17.75 Q6.75 -18.1 6.75 -16.65 6.75 -16.2 5.9 -16.0 4.15 -15.55 2.55 -14.75 1.95 -15.3 1.95 -16.15 1.95 -16.8 2.7 -17.2 L4.35 -17.75 M-4.6 -1.4 Q-3.9 -0.55 -3.85 1.2 L-3.9 6.0 Q-3.85 7.6 -3.2 10.8 -2.55 13.9 -2.55 15.45 L-2.65 16.9 -2.85 19.45 -3.15 23.7 -3.15 23.8 Q-3.15 26.05 -2.55 29.4 L-2.4 30.15 -1.7 34.25 -1.85 34.95 -1.95 35.15 -2.4 35.25 -2.5 34.7 Q-3.75 28.95 -3.75 23.75 L-3.6 19.5 -3.55 18.9 -3.5 18.6 -3.6 18.6 -3.6 18.05 -3.45 17.55 -3.45 17.2 Q-3.5 16.1 -4.45 9.95 L-5.0 6.2 -5.7 1.65 -5.7 -0.35 -5.7 -1.35 -5.7 -1.4 -5.7 -2.1 Q-5.0 -1.95 -4.6 -1.4 M26.85 -20.2 L26.85 -20.15 25.85 -19.65 21.95 -17.55 17.8 -15.0 11.85 -10.65 11.65 -10.75 11.55 -11.0 12.0 -11.6 12.05 -11.65 18.25 -15.9 26.55 -20.55 Q26.65 -20.45 26.75 -20.45 L26.85 -20.2 M-18.35 -7.8 Q-18.5 -7.55 -18.8 -7.55 L-20.15 -7.9 Q-22.4 -8.75 -27.6 -11.7 -34.5 -15.6 -34.5 -15.35 -34.5 -15.55 -34.15 -15.55 -33.0 -15.5 -27.2 -12.55 L-18.45 -8.1 -18.35 -7.8 M-1.55 -25.95 Q-2.75 -25.9 -3.0 -24.8 -1.9 -24.7 -2.0 -24.05 -2.1 -23.4 -0.8 -23.25 L-0.3 -23.4 -0.3 -24.3 Q-0.3 -26.0 -1.55 -25.95 M-9.9 -18.75 Q-10.7 -18.75 -11.3 -19.5 -10.85 -20.45 -10.1 -20.35 -9.45 -20.25 -9.0 -19.5 -9.0 -18.75 -9.9 -18.75 M-6.0 -13.4 L-6.1 -12.75 Q-6.4 -11.55 -7.5 -11.55 L-7.8 -11.55 Q-9.4 -11.7 -10.1 -13.25 -10.5 -14.2 -10.5 -15.25 L-10.5 -15.4 Q-10.45 -18.5 -8.25 -18.4 -7.45 -18.4 -6.95 -17.9 -6.0 -17.0 -6.0 -14.5 L-6.0 -13.4 M-18.05 -16.35 Q-17.5 -14.7 -15.95 -14.7 -15.2 -14.7 -15.05 -15.75 L-15.0 -16.95 Q-15.0 -19.2 -16.65 -19.7 -18.3 -20.2 -18.3 -18.05 L-18.05 -16.35 M-7.2 -14.55 L-7.0 -14.7 -6.75 -15.0 -6.9 -15.6 -8.3 -15.6 -8.4 -15.0 Q-8.4 -14.55 -7.2 -14.55 M-14.3 -12.75 L-15.1 -12.2 -15.5 -12.15 Q-18.7 -12.15 -19.85 -14.9 -20.45 -16.3 -20.4 -17.85 -20.4 -22.9 -16.8 -21.1 -13.25 -19.3 -13.25 -16.2 -13.25 -14.95 -13.75 -13.7 L-14.3 -12.75 M-0.45 -8.15 L-0.6 -7.9 -0.7 -7.75 -1.1 -7.35 -1.8 -7.85 -1.55 -8.45 -1.1 -8.75 -0.95 -8.7 -0.45 -8.15" fill="#aaceff" fill-rule="evenodd" stroke="none"/>
    <path d="M11.65 -10.75 Q9.2 -8.5 5.45 -7.05 L1.25 -4.1 Q-2.75 -1.35 -4.2 -1.35 L-4.6 -1.4 Q-5.0 -1.95 -5.7 -2.1 L-5.7 -1.4 -8.3 -2.55 -13.5 -4.8 -16.85 -5.85 Q-19.05 -6.6 -19.9 -7.4 L-20.7 -7.5 -20.7 -7.85 -20.15 -7.65 -20.25 -7.85 -20.15 -7.9 -18.8 -7.55 Q-18.5 -7.55 -18.35 -7.8 L-15.85 -7.05 -11.55 -5.4 -7.55 -4.55 Q-5.3 -3.9 -4.75 -2.85 -2.25 -4.6 3.75 -7.55 L11.8 -11.5 12.0 -11.6 11.55 -11.0 11.65 -10.75 M-1.55 -25.95 Q-0.3 -26.0 -0.3 -24.3 L-0.3 -23.4 -0.8 -23.25 Q-2.1 -23.4 -2.0 -24.05 -1.9 -24.7 -3.0 -24.8 -2.75 -25.9 -1.55 -25.95 M-26.9 -10.25 Q-27.5 -10.75 -28.2 -10.9 L-28.8 -11.3 Q-27.85 -11.65 -26.25 -10.9 L-24.8 -10.05 -25.75 -9.9 -26.9 -10.25 M-7.2 -14.55 Q-8.4 -14.55 -8.4 -15.0 L-8.3 -15.6 -6.9 -15.6 -6.75 -15.0 -7.0 -14.7 -7.2 -14.55 M-18.05 -16.35 L-18.3 -18.05 Q-18.3 -20.2 -16.65 -19.7 -15.0 -19.2 -15.0 -16.95 L-15.05 -15.75 Q-15.2 -14.7 -15.95 -14.7 -17.5 -14.7 -18.05 -16.35" fill="#ffffff" fill-rule="evenodd" stroke="none"/>
  </g>
</svg>