<?xml version="1.0" encoding="UTF-8" standalone="no"?>
<svg xmlns:xlink="http://www.w3.org/1999/xlink" height="4.5px" width="6.2px" xmlns="http://www.w3.org/2000/svg">
  <g id="shape0" transform="matrix(1.0, 0.0, 0.0, 1.0, 3.1, 2.25)">
    <path d="M0.2 -0.35 L0.2 -0.1 0.15 -0.05 -0.05 0.25 -0.15 0.25 -0.5 0.25 -0.55 0.2 -0.6 -0.1 -0.55 -0.4 Q-0.45 -0.75 -0.1 -0.7 L0.15 -0.4 0.2 -0.35 M1.25 -0.7 L1.45 -1.25 1.95 -1.2 2.05 -0.75 2.0 -0.65 1.7 -0.3 1.6 -0.3 Q1.45 -0.3 1.4 -0.4 L1.25 -0.6 1.25 -0.7 M-1.25 1.05 L-1.55 1.25 -2.0 1.15 -2.1 0.95 Q-2.15 0.55 -1.85 0.5 L-1.8 0.45 -1.55 0.5 -1.45 0.5 -1.4 0.55 -1.25 0.8 -1.25 1.05" fill="#d6baba" fill-rule="evenodd" stroke="none"/>
    <path d="M0.2 -0.35 L0.2 -0.1 0.15 -0.05 -0.05 0.25 -0.15 0.25 -0.5 0.25 -0.55 0.2 -0.6 -0.1 -0.55 -0.4 Q-0.45 -0.75 -0.1 -0.7 L0.15 -0.4 0.2 -0.35 M1.25 -0.7 L1.45 -1.25 1.95 -1.2 2.05 -0.75 2.0 -0.65 1.7 -0.3 1.6 -0.3 Q1.45 -0.3 1.4 -0.4 L1.25 -0.6 1.25 -0.7 M-1.25 1.05 L-1.55 1.25 -2.0 1.15 -2.1 0.95 Q-2.15 0.55 -1.85 0.5 L-1.8 0.45 -1.55 0.5 -1.45 0.5 -1.4 0.55 -1.25 0.8 -1.25 1.05 Z" fill="none" stroke="#a36a6a" stroke-linecap="round" stroke-linejoin="round" stroke-width="1"/>
  </g>
</svg>