<?xml version="1.0" encoding="UTF-8" standalone="no"?>
<svg xmlns:xlink="http://www.w3.org/1999/xlink" height="7.9px" width="10.9px" xmlns="http://www.w3.org/2000/svg">
  <g id="shape0" transform="matrix(1.0, 0.0, 0.0, 1.0, 5.35, 3.95)">
    <path d="M4.25 -2.35 L3.4 -1.55 2.5 -0.55 Q1.6 0.45 -0.55 1.2 L-2.45 1.2 Q-3.45 0.85 -3.45 0.0 -3.45 -0.5 -2.8 -0.75 L-2.65 -0.8 -2.5 -0.75 -0.1 -2.45 1.75 -2.9 2.65 -2.95 3.4 -2.9 3.7 -2.75 3.75 -2.7 4.2 -2.45 4.25 -2.35" fill="#faf8f8" fill-rule="evenodd" stroke="none"/>
    <path d="M-2.65 -0.8 L-2.8 -0.75 Q-3.45 -0.5 -3.45 0.0 -3.45 0.85 -2.45 1.2 L-0.55 1.2 Q1.6 0.45 2.5 -0.55 L3.4 -1.55 4.25 -2.35 4.4 -1.9 4.55 -1.35 Q4.65 0.0 3.75 1.15 2.55 2.65 0.65 2.9 L-0.9 2.95 -2.8 2.35 -3.7 1.85 -4.15 1.45 -4.35 1.3 -4.35 0.6 -4.05 -0.25 -3.45 -0.85 -3.15 -1.05 -2.85 -0.85 -2.65 -0.8" fill="#d6baba" fill-rule="evenodd" stroke="none"/>
    <path d="M4.25 -2.35 L4.2 -2.45 3.75 -2.7 3.7 -2.75 3.4 -2.9 2.65 -2.95 1.75 -2.9 -0.1 -2.45 -2.5 -0.75 -2.65 -0.8 -2.85 -0.85 -3.15 -1.05 M-4.15 1.45 L-3.7 1.85 -2.8 2.35 -0.9 2.95 0.65 2.9 Q2.55 2.65 3.75 1.15 4.65 0.0 4.55 -1.35 L4.4 -1.9 4.25 -2.35" fill="none" stroke="#a36a6a" stroke-linecap="round" stroke-linejoin="round" stroke-width="1"/>
  </g>
</svg>