<?xml version="1.0" encoding="UTF-8" standalone="no"?>
<svg xmlns:xlink="http://www.w3.org/1999/xlink" height="3.7px" width="3.7px" xmlns="http://www.w3.org/2000/svg">
  <g id="shape0" transform="matrix(1.0, 0.0, 0.0, 1.0, 1.85, 1.85)">
    <path d="M0.6 -0.6 L0.85 0.0 0.8 0.35 0.6 0.6 0.0 0.85 -0.6 0.6 -0.75 0.35 -0.85 0.0 -0.6 -0.6 0.0 -0.85 0.6 -0.6 M0.35 0.35 L0.1 0.0 -0.25 0.1 -0.5 0.0 -0.75 0.2 -0.1 0.7 Q0.35 0.7 0.35 0.35" fill="#a36a6a" fill-rule="evenodd" stroke="none"/>
    <path d="M0.35 0.35 Q0.35 0.7 -0.1 0.7 L-0.75 0.2 -0.5 0.0 -0.25 0.1 0.1 0.0 0.35 0.35" fill="#e0cbcb" fill-rule="evenodd" stroke="none"/>
    <path d="M0.6 -0.6 L0.85 0.0 0.8 0.35 0.6 0.6 0.0 0.85 -0.6 0.6 -0.75 0.35 -0.85 0.0 -0.6 -0.6 0.0 -0.85 0.6 -0.6 Z" fill="none" stroke="#a36a6a" stroke-linecap="round" stroke-linejoin="round" stroke-width="1"/>
  </g>
</svg>