<?xml version="1.0" encoding="UTF-8" standalone="no"?>
<svg xmlns:xlink="http://www.w3.org/1999/xlink" height="5.35px" width="7.4px" xmlns="http://www.w3.org/2000/svg">
  <g id="shape0" transform="matrix(1.0, 0.0, 0.0, 1.0, 3.7, 2.65)">
    <path d="M2.6 -0.55 L2.5 -0.45 Q2.15 -0.05 1.05 0.15 -0.45 0.45 -1.4 -0.45 L-1.8 -0.9 -1.9 -1.0 Q-1.35 -1.35 -0.8 -1.5 L0.35 -1.65 1.2 -1.6 1.35 -1.6 2.4 -0.95 2.45 -0.9 2.6 -0.55" fill="#faf8f8" fill-rule="evenodd" stroke="none"/>
    <path d="M-1.9 -1.0 L-1.8 -0.9 -1.4 -0.45 Q-0.45 0.45 1.05 0.15 2.15 -0.05 2.5 -0.45 L2.6 -0.55 Q2.85 0.2 2.5 0.75 L1.45 1.7 1.35 1.65 0.15 1.7 -1.65 1.25 Q-2.55 1.0 -2.7 0.05 -2.75 -0.65 -2.0 -1.0 L-1.9 -1.0" fill="#d6baba" fill-rule="evenodd" stroke="none"/>
    <path d="M1.35 -1.6 L1.2 -1.6 0.35 -1.65 -0.8 -1.5 Q-1.35 -1.35 -1.9 -1.0 L-2.0 -1.0 Q-2.75 -0.65 -2.7 0.05 -2.55 1.0 -1.65 1.25 L0.15 1.7 1.35 1.65 1.45 1.7" fill="none" stroke="#a36a6a" stroke-linecap="round" stroke-linejoin="round" stroke-width="1"/>
  </g>
</svg>