<?xml version="1.0" encoding="UTF-8" standalone="no"?>
<svg xmlns:xlink="http://www.w3.org/1999/xlink" height="31.8px" width="52.4px" xmlns="http://www.w3.org/2000/svg">
  <g transform="matrix(1.0, 0.0, 0.0, 1.0, 26.2, 15.9)">
    <path d="M-25.15 -0.9 Q-25.05 -2.0 -24.2 -4.1 L-23.15 -6.75 -21.95 -9.3 -18.65 -14.5 -18.35 -14.9 -17.75 -14.8 Q-21.85 -9.3 -24.95 -1.1 L-25.15 -0.9 M-0.9 -10.6 L0.85 -10.65 1.05 -10.7 2.75 -10.8 8.8 -11.0 Q12.35 -10.75 15.4 -8.95 L15.85 -8.7 16.4 -8.35 18.1 -7.05 17.45 -6.8 15.9 -6.0 15.05 -5.55 14.9 -5.4 14.6 -5.65 14.05 -6.0 13.55 -6.35 12.05 -7.15 11.85 -7.25 13.8 -8.15 14.95 -8.75 14.55 -8.95 11.8 -9.9 5.95 -10.45 1.85 -10.3 Q-0.35 -10.1 -1.7 -9.45 -5.7 -7.6 -5.7 -3.35 -5.7 -1.75 -5.0 -0.15 -4.05 -0.15 -2.25 -0.7 L-1.65 0.8 -1.2 1.65 -0.1 3.3 -1.2 3.85 -2.3 4.55 Q-0.6 7.2 2.15 9.35 L0.75 8.4 Q-1.1 7.0 -2.75 4.85 L-4.45 2.25 -5.65 -0.15 -6.0 -1.3 Q-7.6 -7.1 -1.6 -10.6 L-0.9 -10.6" fill="#b7f0f7" fill-rule="evenodd" stroke="none"/>
    <path d="M-25.15 -0.9 L-24.95 -1.1 -24.7 -1.4 -23.7 -2.4 Q-22.5 -3.15 -21.8 -3.65 L-19.15 -9.9 Q-18.2 -12.1 -16.85 -13.9 L-16.5 -14.3 Q-15.6 -13.8 -15.55 -13.2 L-15.7 -12.85 -16.0 -12.3 -17.6 -8.75 -17.8 -8.1 -18.1 -6.3 -18.1 -5.85 -18.1 -5.25 -18.1 -5.15 -18.1 -5.05 -18.05 -4.85 -18.65 -4.05 -20.35 -2.65 Q-21.55 -1.75 -22.4 -1.55 L-22.85 -1.55 -22.95 -1.55 -23.65 -1.2 -24.15 -0.6 -24.75 -0.1 Q-25.2 -0.1 -25.2 -0.6 L-25.2 -0.65 -25.15 -0.9 M18.75 -6.45 Q26.25 -0.75 19.8 7.65 18.15 9.8 15.65 10.8 9.9 13.2 5.25 11.4 2.85 10.45 0.75 8.4 L2.15 9.35 Q7.4 12.35 14.15 9.5 16.65 8.5 18.3 6.35 24.05 -1.1 18.75 -6.45 M3.85 6.95 L3.7 6.85 Q1.6 5.7 -0.1 3.3 L-1.2 1.65 -1.65 0.8 -2.25 -0.7 -2.35 -0.95 Q-3.5 -5.15 0.85 -7.8 6.55 -9.35 11.85 -7.25 L12.05 -7.15 13.55 -6.35 14.05 -6.0 14.6 -5.65 14.0 -5.95 10.95 -6.9 9.9 -7.0 5.5 -6.85 4.3 -6.8 2.35 -6.8 Q-1.35 -4.55 -1.05 -1.15 L-0.85 0.05 -0.5 1.05 0.3 2.65 0.55 3.05 Q1.9 5.3 3.55 6.7 L3.85 6.95" fill="#1e7979" fill-rule="evenodd" stroke="none"/>
    <path d="M-24.95 -1.1 Q-21.85 -9.3 -17.75 -14.8 L-16.95 -14.5 -16.5 -14.3 -16.85 -13.9 Q-18.2 -12.1 -19.15 -9.9 L-21.8 -3.65 Q-22.5 -3.15 -23.7 -2.4 L-24.7 -1.4 -24.95 -1.1 M18.1 -7.05 L18.75 -6.45 Q24.05 -1.1 18.3 6.35 16.65 8.5 14.15 9.5 7.4 12.35 2.15 9.35 -0.6 7.2 -2.3 4.55 L-1.2 3.85 -0.1 3.3 Q1.6 5.7 3.7 6.85 L3.85 6.95 3.9 7.0 Q7.6 8.9 12.3 6.9 14.15 6.15 15.35 4.6 18.95 -0.1 16.5 -3.7 L14.9 -5.4 15.05 -5.55 15.9 -6.0 17.45 -6.8 18.1 -7.05 M-2.25 -0.7 Q-4.05 -0.15 -5.0 -0.15 -5.7 -1.75 -5.7 -3.35 -5.7 -7.6 -1.7 -9.45 -0.35 -10.1 1.85 -10.3 L5.95 -10.45 11.8 -9.9 14.55 -8.95 14.95 -8.75 13.8 -8.15 11.85 -7.25 Q6.55 -9.35 0.85 -7.8 -3.5 -5.15 -2.35 -0.95 L-2.25 -0.7" fill="#9ed3de" fill-rule="evenodd" stroke="none"/>
    <path d="M-15.7 -12.85 L-13.4 -12.8 -8.55 -12.45 -3.75 -11.35 -7.95 -6.7 -9.05 -6.75 -13.5 -7.3 Q-15.75 -7.3 -17.8 -8.1 L-17.6 -8.75 -16.0 -12.3 -15.7 -12.85 M-5.1 -11.15 L-15.5 -12.25 -16.95 -9.2 -13.15 -8.4 -9.1 -8.05 -8.05 -8.3 -6.9 -9.45 -5.1 -11.15" fill="#972222" fill-rule="evenodd" stroke="none"/>
    <path d="M20.65 -6.5 L21.05 -6.3 Q23.15 -5.2 24.3 -2.85 25.4 -0.55 25.15 2.8 24.9 6.1 21.5 10.4 L20.15 11.85 Q17.15 14.7 13.25 14.85 L12.8 14.9 Q8.35 14.95 5.55 14.2 2.65 13.35 0.15 11.6 -1.5 10.45 -2.7 8.3 L-4.85 5.3 -7.1 1.6 Q-8.2 -0.3 -8.6 -0.7 L-9.95 -2.2 -11.65 -3.45 -12.05 -3.65 -12.95 -3.85 -17.35 -4.65 -17.9 -4.55 -18.05 -4.6 -18.05 -4.85 -18.1 -5.05 -18.1 -5.15 -18.1 -5.25 -18.1 -5.85 -18.1 -6.3 -17.1 -6.15 -15.8 -5.95 -14.95 -6.05 Q-10.75 -6.05 -8.25 -2.35 -6.75 -0.15 -3.7 5.65 -0.95 9.8 2.45 11.85 6.5 14.25 12.05 14.25 L15.65 13.8 17.35 13.0 Q18.65 12.5 20.2 10.75 L22.6 7.2 Q24.35 3.75 24.35 0.7 24.35 -1.9 23.2 -3.8 22.35 -5.2 20.65 -6.5" fill="#37001c" fill-rule="evenodd" stroke="none"/>
    <path d="M-3.75 -11.35 L-0.9 -10.6 -1.6 -10.6 Q-7.6 -7.1 -6.0 -1.3 L-5.65 -0.15 -4.45 2.25 -2.75 4.85 Q-1.1 7.0 0.75 8.4 2.85 10.45 5.25 11.4 9.9 13.2 15.65 10.8 18.15 9.8 19.8 7.65 26.25 -0.75 18.75 -6.45 L18.1 -7.05 16.4 -8.35 19.85 -6.9 20.65 -6.5 Q22.35 -5.2 23.2 -3.8 24.35 -1.9 24.35 0.7 24.35 3.75 22.6 7.2 L20.2 10.75 Q18.65 12.5 17.35 13.0 L15.65 13.8 12.05 14.25 Q6.5 14.25 2.45 11.85 -0.95 9.8 -3.7 5.65 -6.75 -0.15 -8.25 -2.35 -10.75 -6.05 -14.95 -6.05 L-15.8 -5.95 -17.1 -6.15 -18.1 -6.3 -17.8 -8.1 Q-15.75 -7.3 -13.5 -7.3 L-9.05 -6.75 -7.95 -6.7 -3.75 -11.35" fill="#660033" fill-rule="evenodd" stroke="none"/>
    <path d="M14.9 -5.4 L16.5 -3.7 Q13.4 -3.6 8.95 -0.7 6.65 0.8 5.4 2.3 3.85 4.1 3.85 5.9 L3.9 7.0 3.85 6.95 3.55 6.7 Q2.4 5.25 1.65 3.3 L0.9 0.95 Q3.75 0.5 8.45 -2.05 12.25 -4.1 14.0 -5.95 L14.6 -5.65 14.9 -5.4" fill="#ffffff" fill-opacity="0.3529412" fill-rule="evenodd" stroke="none"/>
    <path d="M5.5 -6.85 Q3.1 -6.25 1.85 -4.75 0.65 -3.3 0.65 -1.15 L0.9 0.95 -0.25 1.05 -0.5 1.05 -0.85 0.05 -1.05 -1.15 Q-1.35 -4.55 2.35 -6.8 L4.3 -6.8 5.5 -6.85" fill="#9ed3de" fill-opacity="0.6117647" fill-rule="evenodd" stroke="none"/>
    <path d="M16.5 -3.7 Q18.95 -0.1 15.35 4.6 14.15 6.15 12.3 6.9 7.6 8.9 3.9 7.0 L3.85 5.9 Q3.85 4.1 5.4 2.3 6.65 0.8 8.95 -0.7 13.4 -3.6 16.5 -3.7 M14.0 -5.95 Q12.25 -4.1 8.45 -2.05 3.75 0.5 0.9 0.95 L0.65 -1.15 Q0.65 -3.3 1.85 -4.75 3.1 -6.25 5.5 -6.85 L9.9 -7.0 10.95 -6.9 14.0 -5.95" fill="#9ed3de" fill-opacity="0.3529412" fill-rule="evenodd" stroke="none"/>
    <path d="M0.9 0.95 L1.65 3.3 Q2.4 5.25 3.55 6.7 1.9 5.3 0.55 3.05 L0.3 2.65 -0.5 1.05 -0.25 1.05 0.9 0.95" fill="#e9d7d7" fill-opacity="0.7921569" fill-rule="evenodd" stroke="none"/>
    <path d="M-5.1 -11.15 L-6.9 -9.45 -8.05 -8.3 -9.1 -8.05 -13.15 -8.4 -16.95 -9.2 -15.5 -12.25 -5.1 -11.15" fill="#d64e4e" fill-rule="evenodd" stroke="none"/>
  </g>
</svg>