<?xml version="1.0" encoding="UTF-8" standalone="no"?>
<svg xmlns:xlink="http://www.w3.org/1999/xlink" height="42.2px" width="42.25px" xmlns="http://www.w3.org/2000/svg">
  <g transform="matrix(1.0, 0.0, 0.0, 1.0, 18.9, 6.75)">
    <path d="M-1.1 5.35 L-1.0 5.3 -0.6 5.15 0.05 4.95 Q-0.1 3.55 0.4 2.35 L0.8 1.55 2.5 2.9 2.85 1.55 3.6 -0.2 4.05 -1.3 Q4.6 -2.4 5.55 -3.15 L5.7 -3.2 6.15 -2.6 7.35 -1.25 7.45 -1.4 7.6 -1.65 7.8 -1.65 8.0 -1.45 8.3 -1.25 8.3 -1.35 8.6 -1.95 Q8.8 -2.5 9.45 -2.8 12.0 -2.15 14.0 -0.15 L14.75 -0.8 14.95 -0.65 Q15.6 0.15 15.75 1.25 L19.4 1.05 18.3 3.6 17.95 4.55 18.55 4.95 19.85 5.55 Q20.15 6.5 19.45 7.7 L18.85 8.85 21.3 8.75 20.85 9.8 19.65 11.35 21.85 11.55 21.9 11.7 21.85 11.75 20.9 13.0 20.65 14.3 20.4 15.55 22.35 18.15 22.3 18.25 21.85 18.6 20.75 19.25 20.65 19.4 21.4 20.75 20.45 21.55 19.95 21.55 20.45 24.1 20.25 24.5 18.45 25.25 19.65 26.7 19.9 27.15 Q19.65 28.05 18.35 28.05 L16.9 28.3 16.35 28.0 16.35 29.7 16.4 31.05 16.05 31.15 Q14.6 30.6 13.6 29.65 L13.15 30.65 12.25 32.7 Q11.45 32.5 11.15 31.8 L10.85 31.15 10.75 30.95 10.35 30.1 8.5 31.3 7.3 32.05 7.1 30.95 6.95 29.75 Q6.6 29.95 6.35 30.25 L4.85 31.75 4.7 31.65 4.65 31.4 4.6 30.25 3.45 30.6 2.15 30.95 1.95 30.35 Q1.7 29.0 2.25 27.75 -0.45 27.45 -2.0 25.2 L-2.05 25.15 -1.7 24.55 -1.6 24.4 -0.2 23.15 -1.6 22.55 -2.8 21.95 -2.45 21.05 -1.2 19.1 -1.95 19.35 -2.4 19.4 Q-2.8 19.45 -2.9 19.1 L-2.85 18.8 -1.8 17.05 -2.15 17.1 -3.05 16.75 -3.45 16.5 -3.35 16.2 -1.8 14.1 -2.5 13.45 -3.35 12.6 -3.6 12.0 -3.25 11.75 -1.8 11.05 -0.75 10.6 Q-2.2 9.0 -3.0 6.95 L-3.2 6.5 Q-2.35 5.8 -1.1 5.35" fill="#663333" fill-rule="evenodd" stroke="none"/>
    <path d="M-1.1 5.35 L-1.2 5.0 -1.35 4.25 -0.95 1.8 -0.6 0.0 -0.45 0.0 0.7 1.15 1.25 1.6 Q1.4 0.35 2.0 -1.1 L2.95 -3.4 3.6 -2.1 4.05 -1.3 3.6 -0.2 2.85 1.55 2.5 2.9 0.8 1.55 0.4 2.35 Q-0.1 3.55 0.05 4.95 L-0.6 5.15 -1.0 5.3 -1.1 5.35 M-1.8 11.05 L-4.4 8.15 Q-4.4 7.85 -3.0 6.95 -2.2 9.0 -0.75 10.6 L-1.8 11.05" fill="#000033" fill-opacity="0.25882354" fill-rule="evenodd" stroke="none"/>
    <path d="M10.85 31.15 L10.75 31.9 10.85 32.85 9.25 32.3 7.9 33.45 6.35 34.45 Q5.4 33.25 5.5 32.8 L4.45 33.4 Q3.65 33.8 3.2 33.8 L2.9 33.7 2.8 33.1 3.0 31.85 2.6 31.8 1.25 32.1 0.4 32.1 0.4 30.95 0.6 29.4 Q-3.35 27.0 -3.35 26.35 L-2.8 25.35 Q-2.2 24.5 -1.75 24.5 L-1.75 24.3 -4.15 22.75 -3.6 21.6 -2.95 20.7 -3.8 20.55 -4.7 20.45 -3.35 17.8 Q-4.5 17.1 -4.9 17.0 L-4.15 15.85 -3.35 14.8 -4.15 14.4 -5.1 14.0 -3.45 12.65 -3.35 12.6 -2.5 13.45 -1.8 14.1 -3.35 16.2 -3.45 16.5 -3.05 16.75 -2.15 17.1 -1.8 17.05 -2.85 18.8 -2.9 19.1 Q-2.8 19.45 -2.4 19.4 L-1.95 19.35 -1.2 19.1 -2.45 21.05 -2.8 21.95 -1.6 22.55 -0.2 23.15 -1.6 24.4 -1.7 24.55 -2.05 25.15 -2.0 25.2 Q-0.45 27.45 2.25 27.75 1.7 29.0 1.95 30.35 L2.15 30.95 3.45 30.6 4.6 30.25 4.65 31.4 4.7 31.65 4.85 31.75 6.35 30.25 Q6.6 29.95 6.95 29.75 L7.1 30.95 7.3 32.05 8.5 31.3 10.35 30.1 10.75 30.95 10.85 31.15" fill="#000033" fill-opacity="0.34117648" fill-rule="evenodd" stroke="none"/>
    <path d="M18.4 1.5 L18.45 1.5 18.4 1.5 M16.0 30.25 L15.95 30.3 15.8 30.3 15.95 30.25 16.0 30.25 M12.1 31.7 L12.1 31.8 12.05 31.8 12.1 31.7 M7.8 31.3 L7.8 31.35 7.75 31.25 7.8 31.3 M-1.0 25.5 L-1.2 25.3 -1.15 25.25 -0.9 25.3 -1.0 25.5 M1.0 2.5 L1.05 2.35 1.1 2.4 1.0 2.5 M2.85 4.1 L2.95 4.2 2.95 4.25 2.85 4.1" fill="#e0cbcb" fill-rule="evenodd" stroke="none"/>
    <path d="M9.65 27.05 Q8.3 26.7 7.15 25.65 L5.45 23.6 Q3.15 19.9 3.15 14.75 3.15 10.55 4.7 7.3 L4.9 9.0 5.1 11.1 4.95 13.45 Q4.95 14.8 5.4 16.1 L5.5 17.05 Q5.7 18.55 6.25 19.85 L6.5 20.5 6.55 20.6 6.65 20.85 7.3 22.0 Q8.65 24.1 10.4 24.75 L9.65 27.05 M17.55 7.65 L17.75 7.55 17.75 7.6 17.55 7.65 M14.45 10.25 L14.9 12.15 15.9 12.15 17.7 12.15 15.5 14.85 16.1 17.85 14.95 16.65 13.95 16.65 13.0 17.75 13.5 15.0 11.2 12.4 14.05 12.15 14.45 10.25" fill="#ff0000" fill-rule="evenodd" stroke="none"/>
    <path d="M10.9 2.25 L10.9 2.3 11.35 4.55 Q9.0 4.85 7.3 7.5 5.35 10.5 5.35 14.75 L5.4 16.1 Q4.95 14.8 4.95 13.45 L5.1 11.1 4.9 9.0 4.7 7.3 Q3.15 10.55 3.15 14.75 3.15 19.9 5.45 23.6 L7.15 25.65 Q8.3 26.7 9.65 27.05 L10.4 27.2 9.65 27.25 9.6 27.25 8.3 27.1 Q7.35 26.85 6.5 26.3 L5.85 25.8 3.95 23.6 Q2.25 20.85 1.8 17.3 L1.65 15.15 1.65 14.9 1.65 14.75 1.7 13.35 1.85 11.85 Q2.35 8.5 3.95 5.9 5.35 3.75 7.1 2.85 L7.9 2.55 9.15 2.3 9.65 2.25 10.4 2.3 10.9 2.25 M15.9 12.15 L14.9 12.15 14.45 10.25 14.9 7.95 15.9 12.15 M13.0 17.75 L13.95 16.65 14.95 16.65 12.7 19.2 12.8 18.85 12.8 18.7 13.0 17.75 M16.1 17.85 L15.5 14.85 17.7 12.15 18.7 12.1 16.5 14.85 17.3 18.85 17.35 19.1 17.1 18.85 16.1 17.85" fill="#990000" fill-rule="evenodd" stroke="none"/>
    <path d="M8.35 0.4 Q8.4 -0.1 8.8 -1.2 L9.35 -2.5 9.75 -0.85 Q10.15 0.3 10.65 0.9 L11.1 1.35 11.05 1.35 10.7 1.2 8.7 0.4 8.35 0.4 M15.8 30.3 L14.65 29.85 Q13.75 29.3 13.45 28.6 L13.2 28.45 Q13.45 27.2 14.55 27.0 14.65 28.0 15.1 29.05 L15.9 30.25 15.8 30.3 M11.9 31.65 L11.2 30.55 10.7 29.35 10.75 29.3 10.7 29.3 10.6 29.3 10.2 29.4 11.0 28.6 Q11.65 28.05 12.1 28.0 11.7 28.65 11.7 30.2 L11.9 31.65 M7.75 31.25 Q7.45 30.7 7.45 29.75 L7.6 28.7 8.65 27.65 8.65 28.3 8.2 29.7 7.75 31.25 M4.95 30.15 L4.95 29.5 4.95 29.45 Q5.0 28.7 5.2 28.45 L5.2 28.4 5.2 28.45 4.8 28.75 4.8 28.55 5.2 27.05 Q5.55 26.15 5.85 25.8 L6.5 26.3 6.2 26.8 5.8 27.7 6.3 27.8 5.45 29.1 5.35 29.3 4.95 30.15 M2.35 29.9 L2.35 29.75 2.75 27.95 3.05 27.05 3.45 26.85 3.9 26.6 5.05 25.55 Q4.7 27.05 3.7 28.45 L2.35 29.9 M-1.15 25.25 Q-0.5 24.2 0.65 23.55 0.95 23.35 1.35 23.25 L1.85 23.15 2.05 23.15 2.75 23.35 3.75 23.75 3.75 23.9 2.1 24.7 Q0.5 25.3 -0.9 25.3 L-1.15 25.25 M-1.65 21.05 L-1.8 20.9 -1.65 20.65 -0.75 19.3 0.15 18.25 0.6 18.35 0.8 18.85 1.65 20.1 Q0.7 20.65 -1.65 21.05 M-1.2 17.85 L-1.45 17.85 -0.7 16.9 -0.3 16.4 Q0.45 15.55 1.3 15.15 L1.65 15.15 1.8 17.3 0.65 17.55 0.3 17.65 -1.2 17.85 M-2.45 16.45 L-2.6 16.45 -1.6 15.05 Q-0.95 14.4 -0.3 14.05 L0.15 14.35 0.05 14.5 -0.4 15.55 -0.45 15.55 Q-0.45 15.3 -1.8 16.05 L-2.45 16.45 M-2.7 12.1 Q-1.85 11.3 -0.25 11.2 L0.3 11.15 0.85 11.2 Q0.45 11.3 -0.05 11.6 -0.85 12.05 -0.95 12.35 L-1.55 12.2 -2.55 12.05 -2.7 12.1 M-0.05 10.1 L-0.15 9.95 -0.65 9.35 -2.35 6.9 -1.9 7.05 -0.75 7.5 -0.5 7.65 -0.55 7.65 -0.2 8.45 0.1 8.9 1.1 9.9 0.85 10.0 0.4 10.15 0.2 10.15 0.0 10.15 -0.05 10.1 M0.85 5.9 L1.15 5.95 Q0.85 5.3 0.85 4.2 0.85 3.05 1.0 2.5 L1.45 4.25 Q2.05 6.4 2.5 7.15 L1.25 6.2 0.85 5.9 M2.95 4.2 L2.95 4.1 3.1 3.55 Q3.45 2.3 4.45 0.45 L5.7 -1.65 5.45 0.95 5.35 3.35 5.0 2.75 4.8 2.0 4.75 1.95 3.7 3.95 Q3.05 5.5 3.1 6.2 2.9 5.55 2.85 4.6 L2.95 4.5 2.95 4.2 M7.55 0.05 L7.75 -0.55 7.85 -0.55 7.8 0.2 7.8 0.6 7.8 2.0 7.9 2.55 7.1 2.85 Q7.1 1.6 7.4 0.45 L7.55 0.05 M10.35 -0.5 L10.95 -0.05 11.6 0.4 12.15 2.0 Q10.55 0.15 10.35 -0.5 M1.85 11.85 L1.7 13.35 0.9 13.25 -0.4 13.55 -0.45 13.5 Q0.15 12.7 1.85 11.85 M6.4 1.0 L6.0 2.75 5.9 -0.45 6.4 1.0 M0.7 9.05 L-0.15 7.9 0.6 7.95 0.7 9.05" fill="#f0e5d4" fill-rule="evenodd" stroke="none"/>
    <path d="M10.5 5.8 L10.65 5.7 10.85 5.8 11.45 6.05 12.05 6.3 13.5 7.2 Q12.65 7.75 11.8 8.75 10.1 10.7 10.1 13.8 L10.3 15.3 10.45 16.6 10.15 17.35 9.4 17.8 8.15 19.1 Q7.2 19.1 6.75 16.85 6.45 15.4 6.45 13.8 6.45 11.2 7.5 9.15 8.55 7.05 10.5 5.8" fill="#ffffff" fill-rule="evenodd" stroke="none"/>
    <path d="M18.45 8.7 L18.45 8.75 18.65 9.0 18.8 9.3 19.45 10.65 19.55 10.85 19.55 10.95 19.8 11.7 19.9 12.25 19.9 12.55 19.9 13.15 19.9 13.2 19.8 13.75 18.8 16.3 18.65 16.85 18.65 17.0 Q18.05 18.85 17.35 18.85 L17.3 18.85 16.5 14.85 18.7 12.1 17.7 12.15 17.7 12.1 15.9 12.15 14.9 7.95 14.45 10.25 14.05 12.15 11.2 12.4 13.5 15.0 13.0 17.75 12.8 18.7 12.7 18.85 12.8 18.85 12.7 19.2 14.95 16.65 16.1 17.85 17.1 18.85 17.5 20.15 15.15 17.95 13.6 19.6 11.4 21.65 11.35 21.6 12.15 19.25 11.15 20.05 Q9.55 21.35 8.5 21.35 7.35 21.35 6.55 20.55 L6.5 20.5 6.25 19.85 Q5.7 18.55 5.5 17.05 L5.4 16.1 5.35 14.75 Q5.35 10.5 7.3 7.5 9.0 4.85 11.35 4.55 L11.95 4.5 Q13.15 4.5 14.45 5.15 L15.05 5.5 15.4 5.7 17.55 7.65 17.95 8.05 18.45 8.7 M10.5 5.8 Q8.55 7.05 7.5 9.15 6.45 11.2 6.45 13.8 6.45 15.4 6.75 16.85 7.2 19.1 8.15 19.1 L9.4 17.8 10.15 17.35 10.45 16.6 10.3 15.3 10.1 13.8 Q10.1 10.7 11.8 8.75 12.65 7.75 13.5 7.2 L12.05 6.3 11.45 6.05 10.85 5.8 10.65 5.7 10.5 5.8" fill="#d9cbb5" fill-rule="evenodd" stroke="none"/>
    <path d="M8.35 0.4 L8.7 0.4 10.7 1.2 11.05 1.35 11.1 1.35 10.65 0.9 Q10.15 0.3 9.75 -0.85 L9.35 -2.5 9.35 -2.55 Q9.65 -2.4 10.05 -2.2 L12.0 -0.95 13.5 0.6 13.85 1.1 13.9 1.1 14.3 0.45 14.8 -0.05 14.8 0.05 14.95 1.3 14.95 1.45 15.15 2.1 15.2 2.2 Q16.55 1.4 17.65 1.4 L18.4 1.5 Q17.15 3.15 17.15 4.9 L17.15 5.05 17.2 5.15 17.3 5.2 18.3 5.5 19.15 5.85 19.25 5.85 18.5 8.65 18.45 8.7 17.95 8.05 17.75 7.6 17.75 7.55 16.8 5.9 Q15.75 4.25 14.5 3.35 12.95 2.25 11.15 2.25 L10.9 2.25 10.4 2.3 9.65 2.25 9.15 2.3 7.9 2.55 7.8 2.0 7.8 0.6 7.8 0.2 7.85 -0.55 8.2 0.4 8.35 0.4 M18.8 9.3 L20.25 9.5 20.3 9.55 19.75 10.2 19.45 10.65 18.8 9.3 M19.8 11.7 L19.9 11.75 20.1 11.8 20.85 11.95 20.9 12.0 20.05 13.15 19.95 12.6 19.9 12.25 19.8 11.7 M19.9 15.95 L20.35 16.6 21.6 17.85 19.7 18.85 20.15 20.0 20.45 20.55 20.5 20.6 19.35 20.9 19.3 20.9 19.75 24.2 19.75 24.3 17.75 24.9 18.05 25.9 Q18.35 26.7 18.75 27.15 L18.4 27.3 17.3 27.5 16.3 27.3 15.85 27.05 Q15.65 27.5 15.65 28.6 15.65 29.75 16.0 30.25 L15.95 30.25 15.8 30.3 15.9 30.25 15.1 29.05 Q14.65 28.0 14.55 27.0 13.45 27.2 13.2 28.45 L13.45 28.6 13.1 29.15 12.7 29.9 12.7 29.95 Q12.1 31.15 12.1 31.7 L12.05 31.8 11.9 31.65 11.7 30.2 Q11.7 28.65 12.1 28.0 11.65 28.05 11.0 28.6 L10.2 29.4 9.7 29.7 Q9.3 29.9 8.85 30.3 L8.8 30.4 7.8 31.3 7.75 31.25 8.2 29.7 8.65 28.3 8.65 27.65 7.6 28.7 7.6 28.55 7.55 28.55 7.15 28.7 7.0 28.75 7.05 28.8 6.9 28.9 4.85 30.75 4.95 30.15 5.35 29.3 5.45 29.1 6.3 27.8 5.8 27.7 6.2 26.8 6.5 26.3 Q7.35 26.85 8.3 27.1 L9.6 27.25 9.65 27.25 10.4 27.2 11.15 27.25 Q14.45 27.25 16.8 23.6 17.8 22.05 18.35 20.25 L18.95 19.05 19.9 15.95 M4.95 29.45 L2.45 30.25 2.35 29.9 3.7 28.45 Q4.7 27.05 5.05 25.55 L3.9 26.6 3.45 26.85 3.05 27.05 3.1 26.95 2.65 27.0 2.6 27.0 Q1.65 27.0 0.45 26.35 L-1.0 25.5 -0.9 25.3 Q0.5 25.3 2.1 24.7 L3.75 23.9 3.75 23.75 2.75 23.35 2.05 23.15 1.85 23.15 1.35 23.25 1.5 23.15 1.45 23.15 -0.05 22.25 -1.65 21.05 Q0.7 20.65 1.65 20.1 L0.8 18.85 0.6 18.35 0.15 18.25 -0.1 18.2 -1.2 17.85 0.3 17.65 0.65 17.55 1.8 17.3 Q2.25 20.85 3.95 23.6 L5.85 25.8 Q5.55 26.15 5.2 27.05 L4.8 28.55 4.8 28.75 5.2 28.45 5.2 28.4 5.2 28.45 Q5.0 28.7 4.95 29.45 M-0.7 16.9 Q-1.25 16.5 -2.45 16.45 L-1.8 16.05 Q-0.45 15.3 -0.45 15.55 L-0.4 15.55 0.05 14.5 0.15 14.35 -0.3 14.05 -1.4 13.25 -2.8 12.2 -2.7 12.1 -2.55 12.05 -1.55 12.2 -0.95 12.35 Q-0.85 12.05 -0.05 11.6 0.45 11.3 0.85 11.2 L0.3 11.15 -0.25 11.2 -0.05 10.15 -0.05 10.1 0.0 10.15 0.2 10.15 0.4 10.15 0.85 10.0 1.1 9.9 0.1 8.9 -0.2 8.45 -0.55 7.65 -0.5 7.65 -0.75 7.5 -1.9 7.05 -2.35 6.9 -2.35 6.85 -1.45 6.45 Q-0.55 6.05 0.1 5.95 L0.65 5.85 0.85 5.9 1.25 6.2 2.5 7.15 Q2.05 6.4 1.45 4.25 L1.0 2.5 1.1 2.4 2.85 4.1 2.95 4.25 2.95 4.5 2.85 4.6 Q2.9 5.55 3.1 6.2 3.05 5.5 3.7 3.95 L4.75 1.95 4.8 2.0 5.0 2.75 5.35 3.35 5.45 0.95 5.7 -1.65 5.75 -1.75 6.65 -0.75 7.55 0.05 7.4 0.45 Q7.1 1.6 7.1 2.85 5.35 3.75 3.95 5.9 2.35 8.5 1.85 11.85 0.15 12.7 -0.45 13.5 L-0.4 13.55 0.9 13.25 1.7 13.35 1.65 14.75 1.65 14.9 1.65 15.15 1.3 15.15 Q0.45 15.55 -0.3 16.4 L-0.7 16.9 M10.35 -0.5 Q10.55 0.15 12.15 2.0 L11.6 0.4 10.95 -0.05 10.35 -0.5 M6.4 1.0 L5.9 -0.45 6.0 2.75 6.4 1.0 M0.7 9.05 L0.6 7.95 -0.15 7.9 0.7 9.05" fill="#cca9a9" fill-rule="evenodd" stroke="none"/>
    <path d="M11.35 4.55 L10.9 2.3 10.9 2.25 11.15 2.25 Q12.95 2.25 14.5 3.35 15.75 4.25 16.8 5.9 L17.75 7.55 17.55 7.65 15.4 5.7 15.05 5.5 14.45 5.15 Q13.15 4.5 11.95 4.5 L11.35 4.55 M10.4 27.2 L9.65 27.05 10.4 24.75 11.95 25.0 Q13.55 25.0 15.05 23.95 L17.15 22.0 18.35 20.25 Q17.8 22.05 16.8 23.6 14.45 27.25 11.15 27.25 L10.4 27.2 M17.75 7.6 L17.95 8.05 17.55 7.65 17.75 7.6" fill="#de1212" fill-rule="evenodd" stroke="none"/>
    <path d="M6.55 20.55 L6.55 20.6 6.5 20.5 6.55 20.55" fill="#b59db6" fill-rule="evenodd" stroke="none"/>
    <path d="M20.05 13.3 L20.0 14.9 19.95 15.3 19.9 15.95 18.95 19.05 18.35 20.25 17.15 22.0 15.05 23.95 Q13.55 25.0 11.95 25.0 L10.4 24.75 Q8.65 24.1 7.3 22.0 L6.65 20.85 6.55 20.6 6.55 20.55 Q7.35 21.35 8.5 21.35 9.55 21.35 11.15 20.05 L12.15 19.25 11.35 21.6 11.4 21.65 13.6 19.6 15.15 17.95 17.5 20.15 17.1 18.85 17.35 19.1 17.3 18.85 17.35 18.85 Q18.05 18.85 18.65 17.0 L18.65 16.85 18.8 16.3 19.8 13.75 19.9 13.2 19.9 13.3 20.05 13.3 M12.8 18.7 L12.8 18.85 12.7 18.85 12.8 18.7" fill="#cd7878" fill-rule="evenodd" stroke="none"/>
    <path d="M20.05 13.15 L20.05 13.2 20.05 13.3 19.9 13.3 19.9 13.2 19.9 13.15 19.9 12.55 19.9 12.25 19.95 12.6 20.05 13.15" fill="#a34e6a" fill-rule="evenodd" stroke="none"/>
    <path d="M-6.75 -4.15 L-6.9 -4.05 -6.95 -4.15 -6.75 -4.15" fill="#690000" fill-rule="evenodd" stroke="none"/>
    <path d="M11.7 -0.25 L12.2 0.55 Q13.55 2.75 14.2 4.95 L14.1 4.95 9.95 5.05 Q8.45 5.75 7.6 7.0 7.2 3.95 5.4 0.9 L8.4 0.3 11.7 -0.25 M-6.0 -5.75 L-0.15 -5.75 0.3 -5.75 0.8 -5.75 1.15 -5.75 5.4 -5.0 -0.35 -4.5 -3.2 -5.4 -6.0 -5.75" fill="#351751" fill-rule="evenodd" stroke="none"/>
    <path d="M6.85 -4.4 L0.9 -3.85 -0.35 -4.5 5.4 -5.0 6.85 -4.4 M5.0 0.25 L11.1 -1.0 11.7 -0.25 8.4 0.3 5.4 0.9 5.2 0.55 5.0 0.25" fill="#4e1d7b" fill-rule="evenodd" stroke="none"/>
    <path d="M6.85 -4.4 Q9.3 -3.25 11.1 -1.0 L5.0 0.25 Q3.3 -2.35 0.9 -3.85 L6.85 -4.4" fill="#7530b6" fill-rule="evenodd" stroke="none"/>
    <path d="M0.9 -3.85 Q3.3 -2.35 5.0 0.25 L5.2 0.55 5.4 0.9 Q7.2 3.95 7.6 7.0 6.5 8.35 5.8 10.95 5.5 4.4 3.7 1.5 L3.1 0.65 Q1.0 -2.2 -2.05 -3.35 -4.15 -4.15 -6.75 -4.15 L-6.95 -4.15 Q-12.85 -4.25 -16.3 -0.2 L-16.6 -0.05 -17.9 -0.45 Q-14.35 -5.35 -8.05 -5.7 L-7.4 -5.75 -7.2 -5.75 -6.7 -5.75 -6.2 -5.75 -6.0 -5.75 -3.2 -5.4 -0.35 -4.5 0.9 -3.85" fill="#1e0635" fill-rule="evenodd" stroke="none"/>
    <path d="M-6.9 -4.05 L-8.2 -3.2 Q-12.35 -2.5 -16.3 -0.2 -12.85 -4.25 -6.95 -4.15 L-6.9 -4.05" fill="#0b0212" fill-rule="evenodd" stroke="none"/>
  </g>
</svg>