<?xml version="1.0" encoding="UTF-8" standalone="no"?>
<svg xmlns:xlink="http://www.w3.org/1999/xlink" height="9.35px" width="9.7px" xmlns="http://www.w3.org/2000/svg">
  <g id="shape0" transform="matrix(1.0, 0.0, 0.0, 1.0, 4.4, 4.35)">
    <path d="M2.4 -2.2 L1.7 -2.15 0.3 -1.8 0.2 -1.95 0.5 -2.3 0.6 -2.35 0.65 -2.35 2.45 -2.65 2.4 -2.2 M2.55 0.2 L2.5 0.0 Q3.2 -0.35 3.8 0.4 L4.2 1.0 4.25 1.4 4.0 1.05 Q3.55 0.25 2.85 0.25 L2.55 0.2 M-1.1 -3.0 L-1.4 -2.85 Q-2.25 -2.45 -2.7 -1.9 L-3.4 -0.55 Q-3.45 -2.6 -1.35 -3.35 L-1.1 -3.0" fill="#faf8f8" fill-rule="evenodd" stroke="none"/>
    <path d="M0.3 -1.8 L1.7 -2.15 2.4 -2.2 2.3 -1.55 1.65 -0.8 1.3 -1.05 0.65 -1.25 0.3 -1.8 M0.6 -2.35 L0.5 -2.3 0.2 -1.95 0.5 -2.35 0.6 -2.35 M4.25 1.4 L3.6 1.45 3.2 1.7 2.75 1.7 2.55 0.2 2.85 0.25 Q3.55 0.25 4.0 1.05 L4.25 1.4 M3.25 4.0 L2.15 3.8 2.4 2.45 2.95 2.8 3.25 3.25 3.25 4.0 M-3.4 -0.55 L-2.7 -1.9 Q-2.25 -2.45 -1.4 -2.85 L-1.1 -3.0 Q-0.55 -1.9 -1.7 -1.0 -2.45 -0.4 -3.4 -0.3 L-3.4 -0.55" fill="#d6baba" fill-rule="evenodd" stroke="none"/>
    <path d="M0.3 -1.8 L0.65 -1.25 1.3 -1.05 1.65 -0.8 2.3 -1.55 2.4 -2.2 2.45 -2.65 0.65 -2.35 0.6 -2.35 0.5 -2.35 0.2 -1.95 0.3 -1.8 M2.55 0.2 L2.5 0.0 Q3.2 -0.35 3.8 0.4 L4.2 1.0 4.25 1.4 3.6 1.45 3.2 1.7 2.75 1.7 2.55 0.2 M3.25 4.0 L2.15 3.8 2.4 2.45 2.95 2.8 3.25 3.25 3.25 4.0 M-3.4 -0.55 L-3.4 -0.3 Q-2.45 -0.4 -1.7 -1.0 -0.55 -1.9 -1.1 -3.0 L-1.35 -3.35 Q-3.45 -2.6 -3.4 -0.55 Z" fill="none" stroke="#a36a6a" stroke-linecap="round" stroke-linejoin="round" stroke-width="1"/>
  </g>
</svg>