<?xml version="1.0" encoding="UTF-8" standalone="no"?>
<svg xmlns:xlink="http://www.w3.org/1999/xlink" height="7.6px" width="11px" xmlns="http://www.w3.org/2000/svg">
  <g id="shape0" transform="matrix(1.0, 0.0, 0.0, 1.0, 5.5, 3.85)">
    <path d="M-4.35 -0.15 L-4.4 -0.35 Q-4.4 -0.8 -2.8 -1.6 L-1.25 -2.2 -0.95 -2.25 -0.85 -2.3 -0.5 -2.3 2.25 -1.85 3.05 -1.25 3.65 -0.5 3.7 -0.45 4.4 1.1 Q4.65 1.95 4.3 2.7 L4.0 2.3 Q3.5 1.85 2.7 2.05 L2.4 2.5 2.25 2.75 2.15 2.75 1.55 2.5 1.55 2.35 Q1.55 1.9 0.0 0.95 -0.5 1.2 -1.1 0.7 L-1.6 0.0 Q-1.6 -1.0 -2.45 -1.0 L-3.2 -0.75 -3.5 -0.8 -4.35 -0.15" fill="#d6baba" fill-rule="evenodd" stroke="none"/>
    <path d="M3.05 -1.25 L2.25 -1.85 -0.5 -2.3 -0.85 -2.3 -0.95 -2.25 -1.25 -2.2 -2.8 -1.6 Q-4.4 -0.8 -4.4 -0.35 L-4.35 -0.15 -4.4 -0.15 -4.5 -0.95 Q-2.9 -3.2 0.0 -2.75 1.85 -2.4 3.05 -1.25 M-3.5 -0.8 L-3.2 -0.75 -2.45 -1.0 Q-1.6 -1.0 -1.6 0.0 L-1.1 0.7 Q-0.5 1.2 0.0 0.95 1.55 1.9 1.55 2.35 L1.55 2.5 -0.1 1.75 -1.7 1.4 Q-2.35 1.25 -2.5 0.95 L-2.15 0.5 -2.35 -0.35 -2.5 -0.6 -3.5 -0.8 M2.25 2.75 L2.4 2.5 2.4 2.55 2.25 2.75" fill="#faf8f8" fill-rule="evenodd" stroke="none"/>
    <path d="M-4.35 -0.15 L-3.5 -0.8 -2.5 -0.6 -2.35 -0.35 -2.15 0.5 -2.5 0.95 M2.25 2.75 L2.4 2.5 2.7 2.05 Q3.5 1.85 4.0 2.3 L4.3 2.7 Q4.65 1.95 4.4 1.1 L3.7 -0.45 3.65 -0.5 3.05 -1.25 Q1.85 -2.4 0.0 -2.75 -2.9 -3.2 -4.5 -0.95 L-4.4 -0.15 -4.35 -0.15" fill="none" stroke="#a36a6a" stroke-linecap="round" stroke-linejoin="round" stroke-width="1"/>
  </g>
</svg>