<?xml version="1.0" encoding="UTF-8" standalone="no"?>
<svg xmlns:xlink="http://www.w3.org/1999/xlink" height="11.3px" width="11.05px" xmlns="http://www.w3.org/2000/svg">
  <g id="shape0" transform="matrix(1.0, 0.0, 0.0, 1.0, 5.55, 4.8)">
    <path d="M1.9 -2.45 L2.0 -3.35 2.2 -3.75 2.6 -3.8 3.75 -3.5 3.75 -3.45 3.45 -2.75 3.4 -2.85 3.45 -2.75 3.55 -2.6 3.55 -2.5 3.25 -2.3 3.1 -2.45 2.6 -2.2 2.25 -2.25 1.9 -2.45 M-0.6 3.05 Q-1.2 2.0 -2.25 1.85 L-2.45 1.95 -2.65 2.0 -4.55 0.6 -4.4 0.55 -4.25 0.45 -4.0 0.4 -0.5 -0.15 Q1.1 -0.1 2.35 -0.7 L2.8 -0.65 3.1 -0.25 1.15 1.45 -0.6 3.05 M3.15 -2.8 L3.05 -2.55 3.1 -2.45 3.05 -2.55 3.15 -2.8 3.3 -2.85 3.4 -2.85 3.2 -2.85 3.15 -2.8" fill="#faf8f8" fill-rule="evenodd" stroke="none"/>
    <path d="M3.75 -3.5 L4.1 -3.2 4.3 -2.8 4.5 -1.65 Q4.5 -1.1 4.0 -0.35 L3.25 0.6 2.85 1.1 1.75 2.05 Q0.8 2.75 0.55 3.75 L0.15 5.5 -0.25 3.95 -0.4 3.45 -0.6 3.05 1.15 1.45 3.1 -0.25 2.8 -0.65 2.35 -0.7 3.15 -1.15 2.3 -1.3 2.0 -1.7 1.95 -1.9 1.9 -2.45 2.25 -2.25 2.6 -2.2 3.1 -2.45 3.25 -2.3 3.55 -2.5 3.55 -2.6 3.7 -2.35 Q3.95 -1.65 3.15 -1.15 3.95 -1.65 3.7 -2.35 L3.55 -2.6 3.45 -2.75 3.75 -3.45 3.75 -3.5 M3.15 -2.8 L3.2 -2.85 3.4 -2.85 3.3 -2.85 3.15 -2.8 M3.25 -2.0 L3.1 -2.45 3.25 -2.0" fill="#d6baba" fill-rule="evenodd" stroke="none"/>
    <path d="M1.9 -2.45 L2.0 -3.35 2.2 -3.75 2.6 -3.8 3.75 -3.5 4.1 -3.2 4.3 -2.8 4.5 -1.65 Q4.5 -1.1 4.0 -0.35 L3.25 0.6 2.85 1.1 1.75 2.05 Q0.8 2.75 0.55 3.75 L0.15 5.5 M-4.55 0.6 L-4.4 0.55 -4.25 0.45 -4.0 0.4 -0.5 -0.15 Q1.1 -0.1 2.35 -0.7 L3.15 -1.15 2.3 -1.3 2.0 -1.7 1.95 -1.9 1.9 -2.45 M3.1 -2.45 L3.05 -2.55 3.15 -2.8 3.2 -2.85 3.4 -2.85 3.45 -2.75 3.55 -2.6 3.7 -2.35 Q3.95 -1.65 3.15 -1.15 M3.1 -2.45 L3.25 -2.0" fill="none" stroke="#a36a6a" stroke-linecap="round" stroke-linejoin="round" stroke-width="1"/>
  </g>
</svg>