<?xml version="1.0" encoding="UTF-8" standalone="no"?>
<svg xmlns:xlink="http://www.w3.org/1999/xlink" height="6.5px" width="4.55px" xmlns="http://www.w3.org/2000/svg">
  <g transform="matrix(1.0, 0.0, 0.0, 1.0, 1, 1)">
    <path d="M0.1 2.8 Q0.4 2.0 0.85 2.9 L1.15 3.4 0.9 1.95 2.15 0.2 2.05 0.05 1.85 0.05 Q2.45 -0.2 2.55 0.6 L2.4 1.5 Q1.75 3.0 1.75 4.5 L0.5 3.05 0.25 3.55 0.1 2.8" fill="#d6baba" fill-rule="evenodd" stroke="none"/>
    <path d="M1.85 0.05 L2.05 0.05 2.15 0.2 0.9 1.95 1.15 3.4 0.85 2.9 Q0.4 2.0 0.1 2.8 L0.0 2.2 0.1 1.55 0.5 0.5 1.85 0.05" fill="#f5e3e3" fill-rule="evenodd" stroke="none"/>
    <path d="M0.1 2.8 L0.25 3.55 0.5 3.05 1.75 4.5 Q1.75 3.0 2.4 1.5 L2.55 0.6 Q2.45 -0.2 1.85 0.05 L0.5 0.5 0.1 1.55 0.0 2.2 0.1 2.8 Z" fill="none" stroke="#a36a6a" stroke-linecap="round" stroke-linejoin="round" stroke-width="1"/>
  </g>
</svg>