<?xml version="1.0" encoding="UTF-8" standalone="no"?>
<svg xmlns:xlink="http://www.w3.org/1999/xlink" height="8.85px" width="9.05px" xmlns="http://www.w3.org/2000/svg">
  <g id="shape0" transform="matrix(1.0, 0.0, 0.0, 1.0, 5.45, 4.8)">
    <path d="M-4.4 0.95 L-3.45 0.6 -1.65 -0.05 -1.4 -0.15 -1.55 -0.3 -1.7 -0.65 -1.7 -0.85 -1.5 -1.45 Q-1.25 -2.0 -0.5 -1.95 L-0.45 -1.95 Q-0.25 -2.1 -0.2 -2.3 L0.15 -2.7 1.35 -2.45 1.4 -2.4 1.8 -3.15 1.85 -3.8 2.2 -3.45 2.5 -3.0 2.45 -2.95 1.75 -1.85 1.6 -2.1 1.5 -1.9 1.05 -1.5 0.4 -1.3 0.2 -1.6 -0.45 0.45 -1.05 1.0 -2.25 2.25 -2.75 3.05 -3.85 2.25 Q-4.55 1.7 -4.4 0.95 M0.5 -0.35 L0.45 -0.25 0.5 -0.45 0.5 -0.35 M-1.2 -0.2 L-1.0 -0.05 -0.8 -0.3 -0.75 -0.35 -0.65 -0.6 Q-0.65 -0.9 -0.95 -0.75 L-1.25 -0.3 -1.2 -0.2 -1.4 -0.15 -1.2 -0.2 M1.6 -2.1 L1.4 -2.4 1.6 -2.1 M0.2 -1.6 Q-0.05 -1.9 -0.45 -1.95 -0.05 -1.9 0.2 -1.6" fill="#faf8f8" fill-rule="evenodd" stroke="none"/>
    <path d="M2.5 -3.0 L2.55 -2.1 2.1 -1.35 1.6 -1.1 1.05 -0.35 0.5 -0.35 0.5 -0.45 0.45 -0.25 0.45 -0.15 0.3 0.3 0.15 0.7 -0.1 1.35 -0.25 1.5 -1.3 3.05 -2.75 3.05 -2.25 2.25 -1.05 1.0 -0.45 0.45 0.2 -1.6 0.4 -1.3 1.05 -1.5 1.5 -1.9 1.6 -2.1 1.75 -1.85 2.45 -2.95 2.5 -3.0 M-1.2 -0.2 L-1.25 -0.3 -0.95 -0.75 Q-0.65 -0.9 -0.65 -0.6 L-0.75 -0.35 -0.8 -0.3 -1.0 -0.05 -1.2 -0.2 -0.75 -0.35 -1.2 -0.2 M1.6 -1.1 L1.75 -1.85 1.6 -1.1 M0.3 0.3 L0.45 -0.25 0.3 0.3 M0.5 -0.75 L0.5 -0.45 0.5 -0.75" fill="#d6baba" fill-rule="evenodd" stroke="none"/>
    <path d="M-4.4 0.95 L-3.45 0.6 -1.65 -0.05 -1.4 -0.15 -1.55 -0.3 -1.7 -0.65 -1.7 -0.85 -1.5 -1.45 Q-1.25 -2.0 -0.5 -1.95 L-0.45 -1.95 Q-0.25 -2.1 -0.2 -2.3 L0.15 -2.7 1.35 -2.45 1.4 -2.4 1.8 -3.15 1.85 -3.8 2.2 -3.45 2.5 -3.0 2.55 -2.1 2.1 -1.35 1.6 -1.1 1.05 -0.35 0.5 -0.35 0.45 -0.25 0.3 0.3 0.15 0.7 -0.1 1.35 -0.25 1.5 -1.3 3.05 M-1.2 -0.2 L-1.4 -0.15 M-1.2 -0.2 L-0.75 -0.35 M1.75 -1.85 L1.6 -1.1 M1.4 -2.4 L1.6 -2.1 M0.4 -1.3 L0.2 -1.6 Q-0.05 -1.9 -0.45 -1.95 M0.5 -0.35 L0.5 -0.45 0.5 -0.75" fill="none" stroke="#a36a6a" stroke-linecap="round" stroke-linejoin="round" stroke-width="1"/>
  </g>
</svg>