<?xml version="1.0" encoding="UTF-8" standalone="no"?>
<svg xmlns:xlink="http://www.w3.org/1999/xlink" height="8.35px" width="7.15px" xmlns="http://www.w3.org/2000/svg">
  <g id="shape0" transform="matrix(1.0, 0.0, 0.0, 1.0, 4.65, 3.4)">
    <path d="M-2.05 -0.75 L-1.75 -1.3 -1.15 -1.95 -0.7 -2.25 0.45 -2.35 0.9 -2.2 1.1 -2.1 1.3 -1.75 1.45 -1.2 Q1.15 -0.8 0.15 -0.85 -0.45 -0.85 -0.85 -0.5 -1.3 -0.15 -1.55 -0.15 -2.1 -0.35 -2.05 -0.75 M-2.6 2.55 L-3.65 0.85 -3.1 0.9 -3.05 0.9 -2.0 1.1 Q-1.75 1.25 -1.75 1.55 L-2.6 2.55 M-2.1 -0.65 L-2.1 -0.7 -2.15 -0.5 -2.1 -0.65 M0.0 -0.35 L0.0 -0.25 0.05 -0.05 Q0.05 0.4 -0.25 0.4 L-0.5 0.05 -0.5 -0.05 -0.2 -0.45 -0.5 -0.05 -0.5 -0.1 -0.2 -0.45 -0.1 -0.45 0.0 -0.4 0.0 -0.35 -0.05 -0.4 -0.1 -0.45 -0.05 -0.4 0.0 -0.35" fill="#faf8f8" fill-rule="evenodd" stroke="none"/>
    <path d="M1.45 -1.2 L1.5 -1.15 1.5 -0.95 1.5 -0.6 1.5 -0.55 0.9 1.1 -0.95 3.5 -1.4 3.95 -1.65 3.55 -2.25 2.9 -2.45 2.7 -2.5 2.7 -2.6 2.55 -1.75 1.55 Q-1.75 1.25 -2.0 1.1 L-1.6 1.15 -1.55 1.15 -2.0 0.75 -2.1 0.65 -2.15 0.55 -2.25 0.15 -2.2 -0.45 -2.1 -0.65 -2.15 -0.5 -2.1 -0.7 -2.05 -0.75 Q-2.1 -0.35 -1.55 -0.15 -1.3 -0.15 -0.85 -0.5 -0.45 -0.85 0.15 -0.85 1.15 -0.8 1.45 -1.2 M-0.5 -0.05 L-0.5 0.05 -0.25 0.4 Q0.05 0.4 0.05 -0.05 L0.0 -0.25 0.0 -0.35 0.15 -0.05 0.15 0.1 0.1 0.35 -0.15 0.75 -0.55 1.05 -0.85 1.2 -1.3 1.25 -1.45 1.25 -1.55 1.15 -1.45 1.25 -1.3 1.25 -0.85 1.2 -0.55 1.05 -0.15 0.75 0.1 0.35 0.15 0.1 0.15 -0.05 0.0 -0.35 0.0 -0.4 -0.1 -0.45 -0.2 -0.45 -0.5 -0.1 -0.5 -0.05" fill="#d6baba" fill-rule="evenodd" stroke="none"/>
    <path d="M-2.05 -0.75 L-1.75 -1.3 -1.15 -1.95 -0.7 -2.25 0.45 -2.35 0.9 -2.2 1.1 -2.1 1.3 -1.75 1.45 -1.2 1.5 -1.15 1.5 -0.95 1.5 -0.6 1.5 -0.55 0.9 1.1 -0.95 3.5 -1.4 3.95 M-3.65 0.85 L-3.1 0.9 -3.05 0.9 -2.0 1.1 -1.6 1.15 -1.55 1.15 -2.0 0.75 -2.1 0.65 -2.15 0.55 -2.25 0.15 -2.2 -0.45 -2.1 -0.65 -2.1 -0.7 -2.05 -0.75 M0.0 -0.35 L-0.05 -0.4 -0.1 -0.45 -0.2 -0.45 -0.5 -0.05 M0.0 -0.35 L0.15 -0.05 0.15 0.1 0.1 0.35 -0.15 0.75 -0.55 1.05 -0.85 1.2 -1.3 1.25 -1.45 1.25 -1.55 1.15" fill="none" stroke="#a36a6a" stroke-linecap="round" stroke-linejoin="round" stroke-width="1"/>
  </g>
</svg>