<?xml version="1.0" encoding="UTF-8" standalone="no"?>
<svg xmlns:xlink="http://www.w3.org/1999/xlink" height="39.45px" width="136px" xmlns="http://www.w3.org/2000/svg">
  <g transform="matrix(1.0, 0.0, 0.0, 1.0, -28.5, 69.05)">
    <path d="M71.45 -56.4 Q70.65 -55.3 69.65 -55.3 68.35 -55.3 68.0 -56.15 67.8 -56.6 67.9 -57.1 67.9 -59.45 70.0 -59.8 72.1 -60.15 72.1 -57.8 L71.45 -56.4 M64.0 -53.55 Q67.4 -53.9 67.4 -50.0 67.4 -48.75 66.6 -47.75 65.6 -46.55 63.85 -46.55 61.45 -46.55 60.8 -48.1 60.45 -48.9 60.6 -49.75 60.6 -53.15 64.0 -53.55 M34.2 -31.15 Q33.35 -30.6 32.4 -30.6 30.5 -30.6 29.85 -31.75 29.5 -32.35 29.5 -33.0 29.5 -35.9 32.4 -35.45 35.25 -35.0 35.25 -32.9 35.25 -31.8 34.2 -31.15 M115.65 -65.65 Q115.2 -65.25 114.8 -65.25 113.8 -65.25 113.5 -66.0 L113.4 -66.6 Q113.4 -68.05 114.8 -68.05 116.2 -68.05 116.2 -66.6 116.2 -66.1 115.65 -65.65 M158.25 -48.55 Q158.25 -51.1 160.9 -50.95 163.5 -50.75 163.5 -48.4 163.5 -47.45 162.75 -46.75 161.95 -46.0 160.75 -46.0 158.25 -46.0 158.25 -48.55" fill="#ffffff" fill-rule="evenodd" stroke="none"/>
  </g>
</svg>