<?xml version="1.0" encoding="UTF-8" standalone="no"?>
<svg xmlns:xlink="http://www.w3.org/1999/xlink" height="25.15px" width="135.9px" xmlns="http://www.w3.org/2000/svg">
  <g transform="matrix(1.0, 0.0, 0.0, 1.0, -28.6, 47.45)">
    <path d="M33.4 -23.95 Q32.7 -23.3 31.85 -23.3 30.35 -23.3 29.85 -24.6 29.55 -25.2 29.6 -25.6 29.6 -27.65 31.9 -27.6 34.15 -27.55 34.15 -25.5 34.15 -24.6 33.4 -23.95 M66.0 -41.8 Q65.1 -40.6 63.7 -40.6 61.9 -40.6 61.3 -41.9 60.95 -42.55 61.0 -43.3 61.0 -46.05 63.9 -46.4 66.75 -46.8 66.75 -43.8 66.75 -42.8 66.0 -41.8 M160.3 -41.9 L160.2 -42.65 Q160.2 -44.3 161.85 -44.3 163.5 -44.3 163.5 -42.55 163.5 -41.7 162.85 -41.3 162.4 -40.95 161.85 -40.95 160.65 -40.95 160.3 -41.9" fill="#ffffff" fill-rule="evenodd" stroke="none"/>
  </g>
</svg>