<?xml version="1.0" encoding="UTF-8" standalone="no"?>
<svg xmlns:xlink="http://www.w3.org/1999/xlink" height="56.55px" width="135.5px" xmlns="http://www.w3.org/2000/svg">
  <g transform="matrix(1.0, 0.0, 0.0, 1.0, -27.7, 71.45)">
    <path d="M59.5 -51.8 Q59.5 -53.05 60.75 -54.35 62.0 -55.6 63.6 -56.0 67.65 -57.1 67.65 -51.7 67.65 -50.35 66.5 -49.15 65.2 -47.85 63.35 -47.85 60.9 -47.85 59.95 -49.8 59.5 -50.8 59.5 -51.8 M71.65 -56.2 Q70.95 -54.95 70.0 -54.95 68.65 -54.95 68.25 -56.2 L68.1 -57.45 Q68.1 -60.0 70.15 -60.25 72.2 -60.5 72.2 -57.75 72.2 -57.2 71.65 -56.2 M34.7 -33.25 Q33.85 -32.3 32.2 -32.3 30.25 -32.3 29.3 -33.5 28.7 -34.3 28.7 -35.2 28.7 -38.6 32.05 -38.6 35.35 -38.6 35.35 -35.05 35.35 -34.0 34.7 -33.25 M139.25 -51.8 Q141.1 -51.9 141.1 -49.85 L140.75 -48.6 Q140.25 -47.75 139.3 -47.75 137.4 -47.75 137.4 -49.95 137.4 -51.7 139.25 -51.8 M159.25 -53.3 Q162.2 -53.2 162.2 -50.45 162.2 -49.2 161.5 -48.5 160.75 -47.75 159.45 -47.75 157.8 -47.75 156.9 -49.15 156.3 -50.05 156.3 -50.7 156.3 -53.4 159.25 -53.3 M115.0 -67.3 Q113.85 -67.3 113.45 -68.05 113.2 -68.4 113.2 -68.9 113.2 -70.45 115.0 -70.45 116.75 -70.45 116.75 -68.9 116.75 -67.3 115.0 -67.3 M113.75 -16.65 Q113.2 -15.9 112.0 -15.9 110.6 -15.9 110.15 -16.9 L110.0 -17.75 Q110.0 -19.6 112.05 -19.6 114.1 -19.6 114.1 -17.75 114.1 -17.15 113.75 -16.65" fill="#ffffff" fill-rule="evenodd" stroke="none"/>
  </g>
</svg>