<?xml version="1.0" encoding="UTF-8" standalone="no"?>
<svg xmlns:xlink="http://www.w3.org/1999/xlink" height="43.65px" width="109.95px" xmlns="http://www.w3.org/2000/svg">
  <g transform="matrix(1.0, 0.0, 0.0, 1.0, -35.25, 34.7)">
    <path d="M36.5 -4.7 L36.25 -5.2 Q41.65 -8.65 48.85 -6.05 51.25 -5.25 53.7 -6.75 56.25 -12.05 61.75 -10.5 L62.55 -12.85 51.45 -20.95 51.7 -21.8 Q64.2 -19.75 77.45 -15.6 L77.65 -17.05 Q73.0 -27.6 85.25 -27.9 90.05 -28.0 91.55 -23.5 97.25 -30.2 104.95 -33.7 L105.35 -33.35 Q103.35 -26.4 99.6 -19.8 101.7 -19.9 102.25 -18.15 L107.15 -17.4 106.5 -17.6 111.6 -19.85 Q118.9 -26.15 127.85 -28.55 L128.3 -28.05 128.45 -26.65 118.65 -14.6 Q121.15 -14.6 122.25 -12.5 134.2 -16.0 144.2 -13.4 L144.05 -12.65 Q134.9 -7.5 124.95 -4.4 L123.75 -2.7 Q132.2 -2.45 140.35 -0.65 L140.35 1.25 Q125.95 6.55 111.2 1.0 L111.65 0.65 Q103.55 6.2 93.9 3.4 90.3 7.55 86.65 5.65 L86.65 4.2 83.7 3.95 77.75 7.95 Q75.3 6.9 76.4 4.5 L76.75 3.85 Q70.5 8.5 66.25 5.45 L65.9 4.85 66.9 3.9 65.55 3.0 Q59.65 7.5 54.9 4.6 54.55 4.35 54.45 3.7 L58.0 0.95 Q49.95 -4.95 39.45 -3.3 37.5 -2.85 36.5 -4.7 M64.5 -7.7 L63.95 -6.65 65.7 -6.7 64.5 -7.7 M81.8 -1.5 L81.15 -0.3 82.25 -0.25 81.8 -1.5 M112.15 -14.6 L112.55 -14.2 113.45 -15.1 112.95 -15.4 112.15 -14.6" fill="#ffffff" fill-rule="evenodd" stroke="none"/>
  </g>
</svg>