<?xml version="1.0" encoding="UTF-8" standalone="no"?>
<svg xmlns:xlink="http://www.w3.org/1999/xlink" height="31.7px" width="136.5px" xmlns="http://www.w3.org/2000/svg">
  <g transform="matrix(1.0, 0.0, 0.0, 1.0, -28.5, 57.3)">
    <path d="M70.1 -52.95 Q69.25 -52.0 68.85 -52.0 67.8 -52.0 67.45 -53.05 67.3 -53.6 67.3 -54.2 67.3 -55.75 69.2 -56.2 71.05 -56.65 71.05 -54.8 71.05 -54.0 70.1 -52.95 M33.4 -27.4 Q32.75 -26.6 31.65 -26.6 30.25 -26.6 29.75 -27.55 L29.5 -28.55 Q29.5 -30.45 31.75 -30.6 33.95 -30.75 33.95 -28.95 33.95 -28.1 33.4 -27.4 M66.0 -43.6 Q65.3 -42.7 64.05 -42.7 62.2 -42.7 61.25 -44.1 60.7 -45.0 60.7 -45.75 60.7 -48.2 63.65 -48.35 66.55 -48.45 66.55 -45.4 66.55 -44.35 66.0 -43.6 M160.05 -43.3 Q159.7 -43.85 159.7 -44.45 159.7 -46.3 161.85 -46.3 164.0 -46.3 164.0 -44.45 164.0 -43.95 163.6 -43.3 163.0 -42.35 161.85 -42.35 160.6 -42.35 160.05 -43.3" fill="#ffffff" fill-rule="evenodd" stroke="none"/>
  </g>
</svg>