<?xml version="1.0" encoding="UTF-8" standalone="no"?>
<svg xmlns:xlink="http://www.w3.org/1999/xlink" height="82.3px" width="235.55px" xmlns="http://www.w3.org/2000/svg">
  <g transform="matrix(1.0, 0.0, 0.0, 1.0, -81.05, -71.1)">
    <path d="M265.95 89.25 L260.45 89.75 260.45 90.0 Q260.45 93.1 262.25 97.15 L264.05 101.0 Q264.05 101.4 262.25 104.6 260.45 107.85 260.45 108.45 260.45 109.25 261.0 110.3 L261.0 110.25 Q264.75 102.9 271.35 102.9 L278.3 103.35 278.45 101.05 278.75 97.95 Q278.75 94.8 277.4 93.0 L276.1 91.65 279.8 93.75 Q280.55 93.6 280.55 93.15 275.6 88.9 271.25 86.95 L270.5 86.65 272.9 86.55 Q277.65 86.75 279.95 91.5 281.45 94.65 281.45 98.1 L281.15 100.95 Q280.75 103.3 280.7 104.35 L281.5 105.0 283.7 107.05 Q281.55 105.75 278.85 104.75 L278.3 104.7 278.3 104.55 Q270.05 101.8 270.05 105.8 270.05 106.25 270.35 106.55 L271.95 107.7 Q278.25 106.65 282.5 109.6 283.6 110.4 284.75 111.35 284.25 111.4 284.15 111.6 284.6 112.95 286.95 114.15 L288.25 113.9 288.5 113.3 288.05 111.6 287.6 111.55 287.6 111.05 Q287.6 110.2 286.6 109.2 288.15 110.25 288.8 110.4 L289.25 110.35 289.7 111.05 289.05 110.85 289.35 111.15 290.55 115.15 Q291.3 117.6 291.3 119.4 291.3 121.95 288.4 126.75 L286.5 129.95 295.4 130.05 Q298.7 123.7 306.8 114.05 L314.1 105.35 Q314.1 101.9 310.5 96.3 306.8 90.45 303.2 88.95 300.5 87.8 298.7 86.65 296.6 85.85 294.0 82.75 290.6 78.7 290.6 76.8 L290.65 75.95 290.9 75.75 291.3 75.75 Q288.2 73.2 281.3 73.2 266.65 73.2 262.1 81.45 260.75 83.9 260.45 86.85 L263.4 86.7 266.35 86.7 Q265.85 87.3 265.85 88.5 L265.95 89.25 M303.25 87.75 L307.4 91.5 Q315.6 99.05 315.6 105.6 315.6 108.6 311.85 111.55 306.2 115.95 303.8 119.25 302.7 120.7 300.35 126.05 298.15 131.0 296.3 133.05 L286.6 133.05 283.65 137.45 Q280.35 142.5 278.4 146.25 L277.95 146.7 276.7 148.45 Q273.85 150.9 263.7 150.9 262.5 149.7 262.5 146.25 L261.9 145.65 259.25 148.15 Q257.2 150.0 255.45 150.0 251.55 150.0 250.65 149.35 249.95 148.8 250.2 146.85 L247.85 150.15 Q246.0 152.4 244.5 152.4 243.45 152.4 240.75 150.05 238.05 147.65 238.05 146.55 238.05 142.0 243.25 133.85 244.8 131.4 246.3 129.55 245.15 127.8 245.15 126.05 245.15 125.35 246.75 121.3 L248.3 117.3 Q248.3 116.55 247.7 114.6 247.1 112.65 247.1 111.9 247.1 109.0 249.0 106.65 248.15 108.3 248.15 109.2 248.15 110.55 249.35 114.2 L250.55 118.4 Q250.55 119.1 249.15 120.9 247.7 122.7 247.7 123.8 247.7 124.75 249.3 126.35 L250.45 127.6 254.35 123.0 Q258.8 117.25 258.8 116.25 L258.65 115.4 259.25 114.0 258.8 112.95 Q257.75 110.25 257.75 108.45 257.75 106.8 258.95 104.6 260.15 102.4 260.15 100.8 258.8 95.75 258.8 94.7 258.8 93.05 259.15 90.05 255.7 90.9 254.6 92.85 255.0 91.45 255.35 90.6 256.35 88.1 258.15 87.35 L259.55 87.0 Q260.35 81.2 261.05 80.1 262.35 78.1 266.45 76.05 270.65 73.9 275.6 72.9 288.15 70.25 293.45 76.35 L294.95 78.65 Q292.65 76.5 291.05 76.95 L294.5 83.05 Q297.35 86.7 303.2 87.9 L303.25 87.75 M296.0 79.75 L298.1 82.2 296.3 80.1 296.0 79.75 M254.0 98.85 L252.45 101.15 253.25 98.4 254.05 95.05 254.05 96.4 Q254.2 98.4 254.0 98.85 M286.3 120.0 Q283.85 121.1 283.85 123.6 283.85 125.85 284.75 127.7 286.35 127.7 286.8 127.25 288.75 122.85 288.75 121.65 288.75 118.9 286.3 120.0 M284.3 115.55 Q283.15 113.9 281.7 113.55 L281.1 114.85 Q280.5 116.0 280.5 117.75 280.5 120.75 280.8 120.0 L280.8 120.6 282.9 120.05 Q284.3 119.5 285.45 118.8 285.45 117.2 284.3 115.55 M274.0 109.85 L274.05 112.2 Q274.05 117.7 267.4 126.9 259.2 137.25 256.05 142.05 L256.05 142.35 Q259.8 138.9 280.5 114.0 280.5 110.35 273.45 109.05 L274.0 109.85 M266.8 105.5 Q266.6 105.75 266.6 107.0 L266.9 107.8 Q267.4 108.75 268.35 109.55 268.8 108.6 269.55 107.95 270.05 107.55 270.05 106.85 270.05 105.95 269.85 105.7 L269.6 105.35 266.8 105.5 M261.9 116.6 Q260.3 116.8 258.85 118.75 256.8 121.5 256.8 123.5 256.8 125.0 256.95 124.8 L258.65 124.95 Q259.8 124.1 261.45 121.65 L264.15 117.15 Q263.65 116.85 263.15 116.7 L262.7 116.7 261.9 116.6 M279.15 135.35 L279.0 135.6 276.15 136.35 Q274.65 137.0 274.65 138.3 274.65 139.8 274.8 139.8 L276.5 139.95 278.2 138.2 Q279.3 137.15 279.3 136.25 L279.15 135.35 M84.6 121.9 Q84.65 124.3 84.9 125.1 85.35 126.6 87.3 127.4 88.8 128.05 103.75 130.9 L103.7 130.35 Q103.7 129.25 103.9 128.85 104.3 127.95 105.4 127.9 L105.4 127.85 Q104.65 126.1 101.1 125.8 L100.25 122.6 101.75 122.8 102.15 122.9 101.55 122.15 Q101.25 121.6 101.25 119.1 101.25 116.55 103.2 113.45 L103.45 113.1 108.1 108.6 Q110.45 107.25 112.65 107.25 L112.65 105.5 Q112.65 96.4 123.3 97.7 120.75 95.5 113.85 94.95 L109.8 94.8 Q92.65 94.8 87.0 107.1 L86.45 108.5 Q84.0 109.35 83.35 111.4 83.1 112.25 83.1 115.95 83.1 118.65 83.25 119.35 83.6 120.75 84.6 121.9 M85.65 111.05 Q85.1 113.3 84.85 115.95 L84.85 115.25 Q84.95 112.95 85.65 111.05 M125.55 98.05 Q128.55 98.7 131.35 100.15 135.1 102.1 136.05 104.1 136.5 107.05 140.1 108.7 144.3 110.65 145.1 112.05 146.45 114.45 146.45 120.15 L146.2 125.5 Q145.85 126.6 142.05 131.85 L141.8 131.85 Q147.6 141.85 150.5 150.0 L150.2 150.6 149.0 150.9 Q148.25 150.9 147.55 150.4 146.85 149.85 146.1 149.85 142.4 149.85 138.55 142.9 L134.15 133.25 Q133.05 134.4 131.1 137.4 L133.35 140.4 Q133.35 141.8 131.25 143.85 129.0 146.1 126.8 146.1 L125.4 145.95 125.1 145.8 Q125.1 142.65 125.7 140.75 124.75 142.3 122.8 143.35 121.0 144.3 119.45 144.3 117.0 144.3 117.15 143.55 117.25 143.1 117.0 142.85 L116.45 144.0 Q117.75 146.2 119.3 150.45 L119.15 151.2 Q118.9 151.65 117.95 151.65 114.7 151.65 111.05 146.35 L109.8 143.05 Q108.0 138.1 105.3 135.4 95.6 135.0 88.5 130.95 82.05 127.25 82.05 124.2 82.05 106.75 89.1 99.65 96.55 92.15 114.3 93.15 123.0 94.4 125.55 98.05 M144.5 114.2 Q142.9 109.8 136.95 110.25 136.5 109.9 133.75 104.25 131.7 100.05 127.95 100.05 L126.3 100.1 126.9 103.8 Q127.65 109.7 127.65 114.25 L129.9 115.75 Q130.8 115.25 131.1 115.25 L132.9 115.65 135.4 119.45 136.1 120.55 Q135.5 121.05 134.8 121.05 137.35 124.4 140.2 129.15 L140.25 129.25 140.25 128.55 Q141.4 128.55 141.75 129.3 144.2 127.15 144.8 124.4 L144.95 119.9 Q144.95 115.5 144.5 114.2 M122.8 100.3 L122.55 99.6 Q118.65 98.15 116.85 99.3 115.65 100.05 115.65 101.6 115.65 102.55 115.85 102.55 L116.25 102.55 Q115.35 103.3 115.05 104.35 114.6 106.0 115.5 107.8 118.85 109.2 121.8 114.0 L122.9 113.65 124.65 113.4 125.7 113.5 125.7 112.35 Q125.7 109.65 124.95 102.9 L124.55 100.15 122.8 100.3 M117.9 101.5 Q118.95 100.65 119.5 100.7 L120.1 100.8 117.9 101.5 M121.8 118.45 Q119.45 120.75 117.0 120.75 L114.95 123.2 Q112.7 125.9 111.05 126.75 L111.65 127.6 Q112.35 128.55 114.0 129.0 L118.25 124.8 Q121.8 121.35 123.15 121.35 126.2 121.35 127.25 122.3 127.85 122.8 127.85 123.9 L123.8 129.6 Q119.4 135.45 118.25 138.3 L118.4 138.45 Q120.65 136.7 123.8 131.5 126.85 126.35 129.45 124.4 L126.4 120.9 126.35 120.9 125.8 120.5 125.65 120.2 Q123.2 118.0 121.8 118.45 M131.3 117.75 Q130.55 118.35 129.45 120.2 129.45 122.0 131.25 124.5 133.0 126.85 134.25 127.1 L134.9 126.3 134.1 121.65 Q133.5 119.0 131.3 117.75 M126.45 133.8 Q123.2 137.75 121.65 140.0 L121.5 140.45 129.1 134.0 Q133.35 129.85 131.1 128.1 L126.45 133.8 M130.35 138.45 L129.4 139.75 Q128.65 141.05 128.55 141.9 L128.7 142.05 Q130.35 140.9 130.35 138.45 M118.95 114.6 L120.0 114.4 120.3 113.85 120.35 113.25 120.15 112.55 Q119.4 111.65 118.2 111.55 117.05 111.4 116.25 112.2 L116.5 113.4 116.75 114.3 117.3 114.45 118.95 114.6 M108.9 120.65 L109.5 119.75 Q108.8 117.7 110.25 115.65 111.9 113.3 111.9 112.4 111.9 107.5 108.3 111.95 106.5 114.2 104.7 117.5 104.7 118.65 105.25 119.1 105.95 119.7 108.9 120.65 M117.8 129.0 Q119.7 128.2 121.1 126.7 122.3 125.45 122.4 124.55 L120.05 126.55 Q118.5 127.85 117.95 128.7 L117.8 129.0 M112.95 131.6 Q110.75 130.45 110.75 130.7 L111.95 133.95 112.35 133.95 112.95 131.6 M115.2 133.8 L116.85 132.85 117.95 132.05 Q116.2 131.85 115.6 132.7 L115.2 133.8 M104.85 123.95 Q104.85 125.2 105.95 126.2 107.0 127.2 106.85 128.85 L106.6 131.4 106.6 131.45 108.0 131.7 108.7 132.0 109.2 126.65 Q109.2 123.9 107.05 122.9 104.85 121.95 104.85 123.95 M114.0 136.8 L113.25 136.8 114.1 139.4 114.9 139.95 Q115.1 138.8 115.8 136.95 L114.0 136.8" fill="#f3e300" fill-rule="evenodd" stroke="none"/>
    <path d="M265.95 89.25 L265.85 88.5 Q265.85 87.3 266.35 86.7 267.4 85.45 270.5 86.65 L271.25 86.95 Q275.6 88.9 280.55 93.15 280.55 93.6 279.8 93.75 L276.1 91.65 275.5 91.3 Q273.2 89.95 266.3 89.4 L266.1 89.5 265.95 89.25 M286.6 109.2 Q287.6 110.2 287.6 111.05 L287.6 111.55 288.05 111.6 288.5 113.3 288.25 113.9 286.95 114.15 Q284.6 112.95 284.15 111.6 284.25 111.4 284.75 111.35 283.6 110.4 282.5 109.6 278.25 106.65 271.95 107.7 L270.35 106.55 Q270.05 106.25 270.05 105.8 270.05 101.8 278.3 104.55 L278.3 104.7 278.85 104.75 Q281.55 105.75 283.7 107.05 L284.45 107.6 286.6 109.2 M294.95 78.65 L295.9 79.65 296.0 79.75 296.3 80.1 298.1 82.2 Q301.6 86.1 303.35 87.45 L303.25 87.75 303.2 87.9 Q297.35 86.7 294.5 83.05 L291.05 76.95 Q292.65 76.5 294.95 78.65 M286.3 120.0 Q288.75 118.9 288.75 121.65 288.75 122.85 286.8 127.25 286.35 127.7 284.75 127.7 283.85 125.85 283.85 123.6 283.85 121.1 286.3 120.0 M266.8 105.5 L269.6 105.35 269.85 105.7 Q270.05 105.95 270.05 106.85 270.05 107.55 269.55 107.95 268.8 108.6 268.35 109.55 267.4 108.75 266.9 107.8 L266.6 107.0 Q266.6 105.75 266.8 105.5 M261.9 116.6 L262.7 116.7 263.15 116.7 Q263.65 116.85 264.15 117.15 L261.45 121.65 Q259.8 124.1 258.65 124.95 L256.95 124.8 Q256.8 125.0 256.8 123.5 256.8 121.5 258.85 118.75 260.3 116.8 261.9 116.6 M279.15 135.35 L279.3 136.25 Q279.3 137.15 278.2 138.2 L276.5 139.95 274.8 139.8 Q274.65 139.8 274.65 138.3 274.65 137.0 276.15 136.35 L279.0 135.6 279.15 135.35 M86.45 108.5 L87.0 108.3 Q86.15 109.55 85.65 111.05 84.95 112.95 84.85 115.25 L84.85 115.95 Q84.7 119.45 85.95 122.25 L85.5 122.7 84.6 121.9 Q83.6 120.75 83.25 119.35 83.1 118.65 83.1 115.95 83.1 112.25 83.35 111.4 84.0 109.35 86.45 108.5 M116.25 102.55 L115.85 102.55 Q115.65 102.55 115.65 101.6 115.65 100.05 116.85 99.3 118.65 98.15 122.55 99.6 L122.8 100.3 122.85 100.5 120.1 100.8 119.5 100.7 Q118.95 100.65 117.9 101.5 L116.85 102.45 116.25 102.55 M131.3 117.75 Q133.5 119.0 134.1 121.65 L134.9 126.3 134.25 127.1 Q133.0 126.85 131.25 124.5 129.45 122.0 129.45 120.2 130.55 118.35 131.3 117.75 M108.9 120.65 Q105.95 119.7 105.25 119.1 104.7 118.65 104.7 117.5 106.5 114.2 108.3 111.95 111.9 107.5 111.9 112.4 111.9 113.3 110.25 115.65 108.8 117.7 109.5 119.75 L108.9 120.65 M118.95 114.6 L117.3 114.45 116.75 114.3 116.5 113.4 116.25 112.2 Q117.05 111.4 118.2 111.55 119.4 111.65 120.15 112.55 L120.35 113.25 120.3 113.85 120.0 114.4 118.95 114.6 M104.85 123.95 Q104.85 121.95 107.05 122.9 109.2 123.9 109.2 126.65 L108.7 132.0 108.0 131.7 106.6 131.45 106.6 131.4 106.85 128.85 Q107.0 127.2 105.95 126.2 104.85 125.2 104.85 123.95" fill="#ffffff" fill-rule="evenodd" stroke="none"/>
  </g>
</svg>