<?xml version="1.0" encoding="UTF-8" standalone="no"?>
<svg xmlns:xlink="http://www.w3.org/1999/xlink" height="423.25px" width="452.5px" xmlns="http://www.w3.org/2000/svg">
  <g transform="matrix(1.0, 0.0, 0.0, 1.0, 29.75, -0.05)">
    <path d="M420.65 1.55 Q421.1 13.45 421.2 25.35 421.35 37.9 421.15 50.45 L420.5 72.25 419.25 98.05 418.35 111.95 417.3 126.45 416.25 141.0 415.2 155.55 Q414.7 162.8 414.5 170.05 L414.2 184.6 413.85 198.45 413.65 212.35 413.65 226.2 413.65 251.35 413.65 273.8 413.7 294.3 Q413.75 306.9 412.0 319.35 L408.4 345.15 406.95 355.8 Q405.55 365.65 404.8 375.55 L402.7 406.4 M372.5 23.35 Q371.15 27.6 371.45 32.6 371.8 39.2 371.8 45.85 L371.6 65.0 371.25 82.85 370.9 104.0 370.4 127.8 369.7 151.6 369.1 172.7 369.0 182.6 368.7 207.05 Q368.45 217.35 369.35 227.55 369.8 232.35 371.2 236.75 374.15 242.1 373.4 247.45 L373.1 251.35 Q372.85 262.25 372.15 273.15 L371.15 283.05 Q369.7 294.95 369.25 306.85 369.0 313.15 369.0 319.4 369.0 331.0 369.45 342.55 L370.15 353.1 Q371.1 363.65 371.3 374.25 L371.55 384.8 Q371.8 394.4 371.45 403.95 M367.6 45.15 Q366.6 41.6 367.15 37.95 M395.5 5.5 Q398.2 13.1 398.9 21.35 399.35 27.0 399.45 32.6 399.7 40.85 399.25 49.15 398.65 60.05 397.35 70.95 L394.05 96.75 392.0 110.6 Q391.0 117.55 390.15 124.5 L388.3 139.7 386.6 153.55 Q385.75 160.5 385.3 167.45 384.35 180.65 383.95 193.85 L383.55 215.0 Q383.4 228.0 386.55 240.6 387.5 244.4 389.6 247.85 L390.65 250.2 Q392.0 254.65 392.45 259.25 L392.7 265.2 392.55 283.75 391.9 302.25 390.4 324.7 Q389.45 336.55 388.65 348.45 387.85 360.7 387.3 372.9 L386.55 395.4 386.15 404.65 385.75 407.3 M336.2 21.35 Q336.55 32.65 335.2 43.9 333.75 55.75 332.9 67.65 332.0 79.2 331.4 90.8 L329.9 116.55 329.25 130.45 Q328.95 137.4 328.8 144.3 L328.6 170.05 328.7 192.5 Q328.75 204.6 331.55 216.25 334.1 227.0 337.35 237.5 L338.2 241.45 Q339.3 249.8 336.2 257.5 334.8 260.9 334.05 264.55 331.65 275.45 329.55 286.45 328.6 291.65 327.9 296.95 326.45 308.5 325.8 320.1 325.1 332.5 327.35 344.65 L328.9 354.35 Q330.25 365.3 330.95 376.2 331.3 381.5 332.0 386.8 333.7 399.9 340.2 411.35 L341.85 414.55 M360.6 20.05 Q358.25 18.35 358.55 20.7 358.95 23.45 358.45 26.1 356.8 35.25 355.45 44.45 L353.05 59.05 350.1 76.25 346.85 96.05 Q345.25 106.0 344.15 115.9 342.75 127.8 342.9 139.7 343.0 152.95 347.85 165.5 349.9 171.0 350.35 176.65 L350.6 181.3 Q351.25 191.9 350.25 202.45 349.0 215.35 346.85 228.25 345.6 235.8 344.8 243.4 L342.3 267.2 Q341.05 278.75 340.85 290.35 340.75 296.6 340.1 302.9 339.3 310.75 339.6 318.75 339.75 323.5 342.25 327.0 343.9 328.35 344.35 329.45 346.85 335.05 346.8 341.25 L346.6 364.95 Q346.55 377.05 348.55 388.85 L350.9 402.0 Q351.4 404.4 352.55 406.5 M350.15 47.8 L350.15 45.85 M293.7 25.35 Q286.0 35.8 284.1 48.45 282.65 58.05 282.25 67.65 281.85 76.25 281.85 84.85 281.85 95.05 282.2 105.3 L283.05 125.8 284.05 146.3 285.05 172.0 285.35 185.9 285.35 211.7 285.55 214.95 Q286.0 228.85 285.85 241.45 285.65 253.65 284.9 265.9 L283.8 288.35 283.4 300.25 Q283.25 305.55 283.85 310.75 285.5 313.6 285.95 315.45 289.15 327.15 290.15 339.25 291.15 351.1 291.0 363.0 L290.6 388.75 290.2 396.05 Q289.35 404.6 290.05 413.15 290.2 415.2 291.0 417.15 M309.75 26.65 Q308.35 28.05 308.35 29.95 L308.0 53.1 Q307.65 66.0 307.65 78.9 L307.65 101.35 307.5 125.8 306.95 150.25 306.05 172.7 305.0 191.2 Q304.2 204.1 304.45 216.95 304.45 218.8 305.2 219.35 305.6 230.35 304.2 240.2 307.35 241.3 307.3 244.05 L307.4 248.7 Q307.9 261.3 306.95 273.8 306.15 285.0 306.85 296.25 306.95 297.6 307.65 298.95 311.65 307.05 311.55 316.1 L311.6 324.7 312.15 345.85 Q312.15 347.05 313.6 347.8 315.7 356.6 315.45 364.3 315.1 377.25 316.25 390.15 L316.95 400.0 Q317.3 406.65 318.0 413.25 L318.4 415.8 M242.75 20.7 Q243.45 22.35 243.75 26.05 244.15 30.65 244.15 35.25 244.1 45.85 243.05 56.4 242.05 66.3 241.6 76.25 L240.65 100.05 Q240.3 111.95 240.3 123.85 L240.45 144.3 Q240.5 157.25 242.65 170.05 243.7 176.3 246.55 181.85 248.0 184.6 248.05 185.9 248.5 198.5 246.6 211.1 L244.6 224.85 Q243.0 236.8 241.7 248.75 240.3 261.25 239.5 273.8 238.75 285.4 239.15 296.95 239.25 299.6 240.3 302.15 L241.7 305.65 Q246.2 316.45 246.2 328.0 L246.25 350.45 245.95 374.25 Q245.75 383.2 247.0 392.05 247.6 396.45 248.35 400.65 M265.1 21.35 L265.4 24.0 Q266.55 37.3 266.7 51.8 266.85 65.4 265.45 78.95 264.75 85.8 264.2 92.75 263.1 106.9 263.5 121.2 263.75 129.85 263.35 138.35 263.0 145.95 262.95 153.55 L262.6 164.8 Q261.85 180.75 262.75 196.5 L263.15 203.75 Q263.5 209.85 266.65 213.45 L264.15 247.35 263.3 260.6 262.45 279.1 Q262.3 285.7 262.9 292.25 263.0 293.95 263.95 295.5 266.65 297.4 266.7 299.6 267.0 310.6 265.5 321.45 L264.9 327.35 Q264.45 336.75 266.15 345.9 L266.7 349.75 Q268.35 364.15 268.3 378.85 268.3 386.95 269.55 394.65 L270.6 401.35 Q272.3 411.45 272.05 421.8 270.65 420.5 270.0 419.2 M203.7 10.8 Q204.55 13.15 204.7 16.1 205.1 26.0 204.9 35.9 204.75 44.2 204.1 52.45 L203.15 62.35 200.8 84.85 199.75 96.75 198.1 119.85 Q197.75 125.15 197.55 130.45 197.05 143.0 197.3 155.55 197.4 160.85 198.4 166.05 199.4 171.35 200.9 176.0 202.2 180.05 201.9 184.6 201.6 188.9 201.6 193.15 L201.6 216.95 201.4 238.1 Q201.25 248.7 200.7 259.25 200.2 269.5 199.2 279.75 198.05 292.3 197.45 304.9 197.4 306.2 198.0 307.25 199.15 308.5 199.25 309.5 200.65 321.7 200.1 333.95 199.85 338.9 199.75 343.9 L199.15 366.3 Q198.85 375.25 197.6 384.15 197.4 385.45 197.7 386.75 200.45 396.0 200.9 405.3 L198.8 402.0 M221.85 43.2 L221.85 37.25 Q223.4 46.75 223.35 57.05 223.25 68.95 222.3 80.85 L218.65 125.8 Q217.65 137.4 217.05 148.95 L216.35 168.7 216.15 176.65 Q215.9 182.95 215.9 189.2 215.9 192.5 216.65 195.75 216.95 197.15 217.75 198.4 220.15 199.9 220.2 203.1 220.8 232.25 219.05 261.25 L218.55 273.15 Q218.35 282.15 220.15 291.05 221.4 297.35 223.1 303.6 225.15 311.4 225.55 319.4 L225.75 325.35 Q226.0 340.25 225.75 355.05 L225.55 361.65 Q225.3 368.9 222.65 408.25 M166.7 20.05 Q170.7 24.2 170.5 30.65 170.2 39.55 170.2 48.45 170.15 61.7 169.0 74.9 168.1 84.5 167.75 94.1 167.4 102.35 167.6 110.6 L168.15 123.85 Q168.45 128.1 169.1 132.35 169.5 135.05 170.3 137.7 171.05 140.15 171.25 143.0 172.6 163.7 169.8 184.65 168.35 195.45 168.65 206.4 L169.0 224.25 Q169.1 231.35 170.9 238.1 172.0 242.45 174.15 244.95 175.0 245.95 175.3 247.3 178.8 264.95 178.65 283.05 178.55 294.3 179.2 305.55 179.55 311.8 180.35 318.05 180.65 320.1 181.3 322.05 182.6 325.9 182.8 330.0 183.4 339.05 181.85 347.9 181.0 352.45 180.9 357.05 180.65 368.95 180.65 380.85 180.65 383.5 181.15 386.05 181.35 387.45 182.3 388.55 M143.7 21.35 Q146.75 33.55 145.95 46.5 L144.8 64.35 143.75 76.25 141.05 102.65 Q139.85 115.9 139.25 129.1 138.8 140.7 139.3 152.25 139.85 164.8 141.3 177.25 141.95 182.6 142.75 187.95 143.45 192.6 144.5 197.15 L146.0 203.05 Q147.95 210.2 148.55 217.6 148.9 221.95 149.75 226.3 151.65 236.8 153.2 247.45 L155.1 259.9 158.35 283.05 161.35 304.25 162.7 315.45 Q163.7 326.3 163.15 337.25 162.7 346.85 161.4 356.45 160.35 364.55 162.65 372.2 L165.1 379.55 166.05 382.8 168.1 391.4 163.9 386.15 M95.6 11.45 Q98.55 21.75 98.5 32.6 98.4 44.85 97.8 57.05 97.35 66.65 96.25 76.25 95.25 84.5 94.6 92.8 94.2 98.05 95.05 103.25 95.6 106.3 97.3 109.1 98.4 110.95 99.85 112.55 103.45 116.45 102.9 121.9 101.75 133.35 101.8 145.0 L101.55 168.7 Q101.2 181.3 101.45 193.85 101.75 205.2 99.45 216.35 98.4 221.6 97.85 226.9 96.6 239.55 94.5 252.05 92.4 264.85 93.6 277.7 93.85 280.1 94.9 282.4 99.75 293.55 100.9 305.55 101.95 316.1 101.9 326.7 L101.9 351.1 102.1 365.65 Q102.25 369.1 103.15 372.25 L105.6 407.95 Q102.6 373.9 103.15 372.25 M120.0 35.25 Q122.05 40.1 122.5 44.5 123.7 54.7 123.55 65.0 L123.1 84.15 122.15 96.05 Q120.7 109.3 119.4 122.5 L118.05 137.05 Q116.9 150.6 116.2 164.15 115.5 176.7 115.1 189.2 114.8 199.45 114.8 209.7 114.75 220.9 119.1 230.95 120.0 232.85 120.65 233.55 124.2 237.4 125.0 242.75 126.75 254.2 127.4 265.9 L128.1 276.45 130.0 302.25 131.0 314.8 132.15 326.65 134.45 348.45 135.6 360.35 Q136.65 371.6 137.15 382.8 L137.45 394.7 Q137.1 391.4 136.05 388.75 M52.35 15.4 Q52.75 22.05 52.45 27.3 51.75 38.25 50.3 49.15 L47.2 71.55 Q45.4 84.3 48.4 96.65 48.85 98.7 49.8 100.6 52.15 105.2 51.7 110.6 50.85 121.6 48.45 132.45 47.1 138.7 46.1 145.0 44.3 156.5 44.45 168.05 44.5 178.45 48.9 187.9 49.5 192.9 49.15 196.5 L48.65 201.75 47.05 227.55 46.5 235.5 Q46.25 240.95 48.0 245.9 L49.15 248.65 Q50.5 252.95 50.75 257.95 L51.1 263.9 51.45 271.15 Q51.8 277.85 50.6 284.45 49.9 288.05 49.45 291.65 49.0 295.15 50.5 296.8 52.1 298.65 52.05 302.25 52.0 303.9 52.1 305.55 53.0 317.9 51.3 330.05 50.95 332.65 50.95 335.3 50.95 338.9 51.25 342.55 L51.4 344.55 Q52.05 350.55 51.0 356.4 48.8 368.85 49.45 381.5 49.55 383.8 50.2 386.15 L50.25 386.35 50.3 386.5 50.9 389.45 M76.05 25.35 Q75.15 24.6 75.3 28.0 75.85 40.6 74.6 53.1 L72.55 74.25 69.8 102.65 Q69.1 109.95 68.75 117.2 68.05 132.4 67.85 147.6 67.7 160.5 67.85 173.35 L68.2 195.15 68.6 213.65 68.9 226.9 69.35 238.8 69.7 240.75 Q71.85 248.55 71.45 257.3 71.2 263.9 71.2 270.5 L71.0 296.3 70.65 318.75 70.6 341.25 Q70.65 345.4 73.85 347.95 75.4 349.15 75.6 351.1 L75.75 353.75 Q76.6 366.25 76.7 378.85 L76.75 388.75 M31.4 4.2 Q32.0 14.85 30.15 25.35 27.85 38.15 27.35 51.1 27.2 54.75 27.85 58.3 28.25 60.35 29.65 62.15 L31.25 63.85 Q32.5 69.75 31.45 74.25 29.15 84.7 27.85 95.4 26.3 108.3 26.45 121.2 26.5 124.8 27.3 128.45 29.45 138.25 29.2 148.3 29.0 154.3 28.25 160.25 L26.95 171.35 25.8 179.95 Q24.1 190.35 26.35 200.35 L27.2 203.1 Q27.35 214.05 26.15 224.95 24.85 237.15 24.2 249.35 23.85 255.1 26.0 259.9 26.7 272.2 25.55 283.75 L23.8 298.95 Q22.1 312.0 24.6 324.65 24.9 326.25 25.7 327.4 28.0 330.55 28.3 334.6 28.9 341.6 27.65 348.4 26.75 352.8 25.15 357.05 23.95 360.2 24.2 363.65 L24.7 370.9 25.55 379.5 25.8 384.8 M-4.2 8.8 Q-4.05 21.7 -3.3 34.6 -2.55 47.2 -0.5 59.7 0.9 68.65 3.8 77.25 4.9 80.55 4.45 84.1 3.5 90.8 1.95 97.35 -0.85 108.9 -2.85 120.65 -4.55 130.75 -5.5 141.0 -6.1 147.15 -4.4 152.95 -1.1 164.75 -2.4 177.3 -3.15 184.6 -4.35 191.85 -5.7 199.75 -5.0 207.65 -4.9 208.7 -4.0 209.55 -2.45 212.0 -2.3 213.65 -1.5 226.0 -3.0 238.2 -4.2 247.7 -4.65 257.3 -5.1 265.95 -3.65 274.45 -1.7 285.95 -1.75 297.6 1.0 303.0 0.35 308.9 L-0.25 315.45 Q-1.0 326.35 -1.05 337.25 L-1.25 353.1 Q-1.45 361.25 0.4 369.0 0.7 370.25 0.65 371.6 0.3 380.95 1.65 390.15 2.1 393.4 2.1 396.7 2.1 399.7 1.15 402.4 -0.35 402.0 -0.7 401.35 M50.25 386.35 Q49.75 384.9 48.85 383.5 M-18.15 8.15 Q-19.55 14.3 -18.65 20.75 -18.15 24.35 -18.3 28.0 -18.7 38.9 -20.45 49.75 L-22.8 63.75 Q-24.8 76.5 -24.65 89.45 -24.55 94.7 -23.5 98.15 -23.0 99.7 -23.0 101.35 -23.0 113.6 -23.3 125.8 -23.55 135.15 -21.7 144.3 -21.0 147.9 -20.7 151.6 L-20.5 153.55 Q-20.25 160.25 -21.75 166.8 -23.2 172.95 -23.5 179.3 -23.7 184.25 -24.25 189.2 -25.05 197.75 -24.95 206.4 -24.9 209.05 -23.9 210.45 -23.1 211.55 -22.9 213.0 -21.5 225.05 -22.85 237.45 -23.25 241.5 -22.15 244.9 -21.6 246.4 -21.95 248.0 -24.55 260.6 -23.5 273.8 L-22.95 277.1 Q-22.4 279.55 -21.55 280.8 -20.9 281.75 -20.9 283.05 -21.15 295.35 -25.6 306.9 -28.85 315.5 -27.65 324.7 -26.0 337.8 -23.3 350.5 -22.2 355.65 -22.5 361.0 -23.15 372.75 -28.25 382.8" fill="none" stroke="#f3e300" stroke-linecap="round" stroke-linejoin="round" stroke-width="1.0"/>
    <path d="M255.75 88.45 L257.1 87.45 Q256.3 88.35 255.65 89.35 L255.75 88.45 M254.1 95.9 L254.0 97.55 253.3 98.6 Q252.75 103.55 249.75 106.4 L247.2 108.95 Q246.05 110.45 246.05 112.7 246.05 115.95 246.7 117.0 247.35 118.0 251.9 121.7 L254.5 121.55 Q258.8 115.95 258.8 114.95 L258.65 114.1 259.25 112.7 258.8 111.65 258.55 110.9 260.75 108.5 261.0 109.0 261.0 108.95 Q263.35 104.35 266.8 102.65 267.15 93.7 273.2 90.25 277.9 87.6 284.9 88.6 L285.2 84.8 Q285.2 83.35 283.1 81.65 280.9 79.85 278.6 79.85 271.25 79.85 266.0 81.65 273.8 77.45 278.85 78.4 285.3 79.65 286.05 88.8 L287.45 89.1 Q295.45 90.95 301.65 95.95 L301.7 95.95 301.6 96.2 301.55 96.5 303.35 99.25 302.15 97.85 Q295.6 90.7 286.1 90.4 L286.1 91.15 285.2 95.65 Q284.3 99.85 284.3 100.4 L285.05 101.65 Q285.9 102.9 286.25 104.0 L286.25 107.9 286.25 109.4 285.9 109.65 285.5 110.15 284.5 110.1 Q284.25 110.15 284.15 110.3 284.6 111.65 286.95 112.85 L288.25 112.6 288.5 112.0 288.05 110.3 287.6 110.25 287.6 109.75 Q287.6 109.05 286.9 108.2 L287.5 108.5 Q288.35 109.0 288.8 109.1 L289.25 109.05 289.7 109.75 289.05 109.55 289.35 109.85 290.55 113.85 Q291.3 116.3 291.3 118.1 291.3 120.65 288.4 125.45 L286.5 128.65 287.05 128.65 286.9 128.95 Q285.85 131.55 285.3 133.7 L284.55 134.8 Q287.85 135.55 289.25 136.7 L293.3 136.85 Q302.25 125.65 304.25 121.55 305.3 119.45 306.3 114.15 L307.15 108.65 307.9 110.95 307.25 115.35 Q306.25 121.1 304.55 123.65 301.2 128.65 299.55 132.8 298.7 135.05 298.05 137.55 297.55 139.0 296.35 139.3 L290.9 139.55 285.75 139.15 282.3 138.3 Q279.9 142.05 278.4 144.95 L277.95 145.4 276.7 147.15 Q273.85 149.6 263.7 149.6 262.5 148.4 262.5 144.95 L261.9 144.35 259.25 146.85 Q257.2 148.7 255.45 148.7 251.55 148.7 250.65 148.05 249.95 147.5 250.2 145.55 L247.85 148.85 Q246.0 151.1 244.5 151.1 243.45 151.1 240.75 148.75 238.05 146.35 238.05 145.25 238.05 140.7 243.25 132.55 244.8 130.1 246.3 128.25 L246.0 127.75 249.35 125.1 250.45 126.3 252.5 124.0 Q249.5 123.3 247.4 121.7 243.35 118.65 243.35 112.7 243.35 107.65 245.65 106.25 249.75 103.8 251.45 101.15 L251.65 95.05 Q251.8 93.55 252.4 92.3 L252.2 94.85 Q252.2 96.65 252.5 97.55 L253.55 97.55 254.1 95.9 M298.1 80.9 L296.3 78.8 296.0 78.45 298.1 80.9 M283.55 106.4 L283.55 105.95 282.65 103.7 281.75 101.65 Q281.75 99.7 283.5 94.35 L284.6 90.35 Q273.0 90.5 270.15 96.8 269.05 99.2 269.25 101.8 L271.35 101.6 275.25 101.7 277.35 102.95 Q270.05 100.7 270.05 104.5 270.05 104.95 270.35 105.25 L271.95 106.4 Q278.25 105.35 282.5 108.3 L283.15 108.75 283.25 108.05 283.55 106.4 M284.3 114.25 Q283.15 112.6 281.7 112.25 L281.1 113.55 Q280.5 114.7 280.5 116.45 280.5 119.45 280.8 118.7 L280.8 119.3 282.9 118.75 Q284.3 118.2 285.45 117.5 285.45 115.9 284.3 114.25 M288.75 120.35 Q288.75 117.6 286.3 118.7 283.85 119.8 283.85 122.3 283.85 124.55 284.75 126.4 286.35 126.4 286.8 125.95 288.75 121.55 288.75 120.35 M274.05 110.9 Q274.05 116.4 267.4 125.6 259.2 135.95 256.05 140.75 L256.05 141.05 Q259.8 137.6 280.5 112.7 280.5 109.05 273.45 107.75 L274.0 108.55 274.05 110.9 M266.6 105.7 L266.9 106.5 Q267.4 107.45 268.35 108.25 268.75 107.4 269.45 106.75 L268.7 107.15 Q267.45 106.25 267.05 105.4 266.8 104.95 266.8 104.25 266.6 104.55 266.6 105.7 M269.85 104.4 L269.65 104.2 270.05 105.4 Q270.05 104.65 269.85 104.4 M258.85 117.45 Q257.35 119.45 256.95 121.05 L258.8 120.65 Q259.75 120.65 260.15 121.1 L260.6 121.6 261.45 120.35 264.15 115.85 Q263.65 115.55 263.15 115.4 L262.7 115.4 261.9 115.3 Q260.3 115.5 258.85 117.45 M279.3 134.95 L279.15 134.05 279.0 134.3 276.15 135.05 Q274.65 135.7 274.65 137.0 274.65 138.5 274.8 138.5 L276.5 138.65 278.2 136.9 Q279.3 135.85 279.3 134.95 M114.95 73.6 L114.3 73.4 114.3 73.25 114.95 73.6 M121.85 78.65 Q124.65 81.5 125.3 84.55 126.1 88.1 124.95 95.5 124.95 100.65 129.75 104.0 L133.05 106.15 Q134.55 107.25 134.55 108.2 134.55 109.8 132.8 112.0 132.0 113.0 131.55 114.0 L132.9 114.35 135.4 118.15 136.1 119.25 Q135.5 119.75 134.8 119.75 137.35 123.1 140.2 127.85 L140.25 127.95 140.25 127.25 140.65 127.3 142.35 130.1 142.35 130.15 142.05 130.55 141.8 130.55 Q147.6 140.55 150.5 148.7 L150.2 149.3 149.0 149.6 Q148.25 149.6 147.55 149.1 146.85 148.55 146.1 148.55 142.4 148.55 138.55 141.6 L134.15 131.95 Q133.05 133.1 131.1 136.1 L133.35 139.1 Q133.35 140.5 131.25 142.55 129.0 144.8 126.8 144.8 L125.4 144.65 125.1 144.5 Q125.1 141.35 125.7 139.45 124.75 141.0 122.8 142.05 121.0 143.0 119.45 143.0 117.0 143.0 117.15 142.25 117.25 141.8 117.0 141.55 L116.45 142.7 Q117.75 144.9 119.3 149.15 L119.15 149.9 Q118.9 150.35 117.95 150.35 114.7 150.35 111.05 145.05 L109.95 142.15 108.0 143.05 103.8 143.05 Q98.35 141.9 93.4 134.5 89.4 128.55 89.4 126.65 89.4 118.45 97.6 112.1 93.45 108.1 93.45 104.75 93.45 103.75 91.5 97.55 89.55 91.4 89.55 90.35 89.55 85.0 93.55 79.6 98.85 72.35 108.3 72.35 L108.3 72.5 Q98.7 73.2 93.85 80.0 90.45 84.8 90.45 90.05 90.45 91.3 93.3 96.85 96.15 102.4 96.15 104.0 96.15 107.95 99.55 110.65 104.15 107.55 108.05 107.35 L108.1 107.3 Q109.2 106.65 110.3 106.35 L116.95 107.3 Q119.5 108.95 121.8 112.7 L122.9 112.35 124.65 112.1 125.7 112.2 125.7 111.45 Q126.6 111.9 127.65 112.05 L127.65 112.95 128.4 113.35 Q128.55 112.55 128.95 112.05 L131.25 109.1 131.4 108.5 Q124.3 105.85 123.5 98.7 L123.4 96.25 124.05 96.35 Q124.6 94.55 124.95 92.2 L125.25 88.85 Q125.25 86.7 123.85 82.65 122.95 80.15 121.85 78.65 M119.55 76.65 L119.35 76.45 119.7 76.75 119.55 76.65 M125.8 119.2 L125.65 118.9 Q123.2 116.7 121.8 117.15 119.45 119.45 117.0 119.45 L114.95 121.9 Q112.7 124.6 111.05 125.45 L111.65 126.3 Q112.35 127.25 114.0 127.7 L118.25 123.5 Q121.8 120.05 123.15 120.05 126.2 120.05 127.25 121.0 127.85 121.5 127.85 122.6 L123.8 128.3 Q119.4 134.15 118.25 137.0 L118.4 137.15 Q120.65 135.4 123.8 130.2 126.85 125.05 129.45 123.1 L126.4 119.6 126.35 119.6 125.8 119.2 M129.45 118.9 Q129.45 120.7 131.25 123.2 133.0 125.55 134.25 125.8 L134.9 125.0 134.1 120.35 Q133.5 117.7 131.3 116.45 130.55 117.05 129.45 118.9 M126.45 132.5 Q123.2 136.45 121.65 138.7 L121.5 139.15 129.1 132.7 Q133.35 128.55 131.1 126.8 L126.45 132.5 M128.7 140.75 Q130.35 139.6 130.35 137.15 L129.4 138.45 Q128.65 139.75 128.55 140.6 L128.7 140.75 M119.5 99.4 L120.1 99.5 117.9 100.2 Q118.95 99.35 119.5 99.4 M120.15 111.25 Q119.4 110.35 118.2 110.25 117.05 110.1 116.25 110.9 L116.5 112.1 116.75 113.0 117.3 113.15 118.95 113.3 120.0 113.1 120.3 112.55 120.35 111.95 120.15 111.25 M111.9 111.1 Q111.9 109.35 111.45 108.8 L111.45 109.55 109.5 109.35 108.3 110.65 Q106.75 112.55 105.25 115.25 L106.35 117.05 106.05 117.95 105.9 118.2 108.9 119.35 109.5 118.45 Q108.8 116.4 110.25 114.35 111.9 112.0 111.9 111.1 M103.2 112.15 L103.45 111.8 106.1 109.3 Q103.0 109.6 100.2 111.15 L100.5 111.35 102.75 112.95 103.2 112.15 M102.15 121.6 L101.55 120.85 Q101.25 120.3 101.25 117.8 101.25 116.85 101.55 115.85 L98.4 112.85 98.05 112.55 Q96.25 113.9 94.55 115.9 91.7 119.2 90.3 122.65 90.3 125.9 93.75 131.9 98.45 140.15 105.5 140.15 107.05 140.15 108.7 139.15 107.2 136.05 105.3 134.1 L104.65 134.1 103.8 131.75 102.9 129.45 103.75 129.6 103.7 129.05 Q103.7 127.95 103.9 127.55 104.3 126.65 105.4 126.6 L105.4 126.55 Q104.65 124.8 101.1 124.5 L100.25 121.3 101.75 121.5 102.15 121.6 M107.05 121.6 Q104.85 120.65 104.85 122.65 104.85 123.9 105.95 124.9 107.0 125.9 106.85 127.55 L106.6 130.1 106.6 130.15 108.0 130.4 108.7 130.7 109.2 125.35 Q109.2 122.6 107.05 121.6 M84.85 114.65 L84.85 113.95 Q84.95 111.65 85.65 109.75 85.1 112.0 84.85 114.65 M121.1 125.4 Q122.3 124.15 122.4 123.25 L120.05 125.25 Q118.5 126.55 117.95 127.4 L117.8 127.7 Q119.7 126.9 121.1 125.4 M115.2 132.5 L116.85 131.55 117.95 130.75 Q116.2 130.55 115.6 131.4 L115.2 132.5 M114.0 135.5 L113.25 135.5 114.1 138.1 114.9 138.65 Q115.1 137.5 115.8 135.65 L114.0 135.5 M112.95 130.3 Q110.75 129.15 110.75 129.4 L111.95 132.65 112.35 132.65 112.95 130.3" fill="#f3e300" fill-rule="evenodd" stroke="none"/>
    <path d="M252.4 92.3 L252.9 89.6 Q253.85 85.6 255.2 85.85 L255.65 86.15 255.8 87.2 255.75 88.45 255.65 89.35 Q255.3 92.05 254.1 95.9 L253.55 97.55 252.5 97.55 Q252.2 96.65 252.2 94.85 L252.4 92.3 M301.7 95.95 L301.85 95.6 Q303.75 96.25 307.25 101.75 310.65 107.05 310.65 108.7 310.65 112.65 309.75 116.45 L307.9 110.95 307.15 108.65 306.55 106.8 Q305.2 102.4 303.35 99.25 L301.55 96.5 301.6 96.2 301.7 95.95 M277.35 102.95 Q278.45 103.55 279.75 104.3 L283.55 106.4 283.25 108.05 283.15 108.75 282.5 108.3 Q278.25 105.35 271.95 106.4 L270.35 105.25 Q270.05 104.95 270.05 104.5 270.05 100.7 277.35 102.95 M286.25 107.9 L286.9 108.2 Q287.6 109.05 287.6 109.75 L287.6 110.25 288.05 110.3 288.5 112.0 288.25 112.6 286.95 112.85 Q284.6 111.65 284.15 110.3 284.25 110.15 284.5 110.1 L285.5 110.15 285.9 109.65 286.25 109.4 286.25 107.9 M288.75 120.35 Q288.75 121.55 286.8 125.95 286.35 126.4 284.75 126.4 283.85 124.55 283.85 122.3 283.85 119.8 286.3 118.7 288.75 117.6 288.75 120.35 M269.85 104.4 Q270.05 104.65 270.05 105.4 L269.65 104.2 269.85 104.4 M266.6 105.7 Q266.6 104.55 266.8 104.25 266.8 104.95 267.05 105.4 267.45 106.25 268.7 107.15 L269.45 106.75 Q268.75 107.4 268.35 108.25 267.4 107.45 266.9 106.5 L266.6 105.7 M258.85 117.45 Q260.3 115.5 261.9 115.3 L262.7 115.4 263.15 115.4 Q263.65 115.55 264.15 115.85 L261.45 120.35 260.6 121.6 260.15 121.1 Q259.75 120.65 258.8 120.65 L256.95 121.05 Q257.35 119.45 258.85 117.45 M279.3 134.95 Q279.3 135.85 278.2 136.9 L276.5 138.65 274.8 138.5 Q274.65 138.5 274.65 137.0 274.65 135.7 276.15 135.05 L279.0 134.3 279.15 134.05 279.3 134.95 M123.4 96.25 L123.0 96.2 Q122.9 95.45 123.1 93.9 L123.3 91.45 Q123.3 88.9 121.75 83.8 120.2 78.6 118.65 76.4 L119.55 76.65 119.7 76.75 121.85 78.65 Q122.95 80.15 123.85 82.65 125.25 86.7 125.25 88.85 L124.95 92.2 Q124.6 94.55 124.05 96.35 L123.4 96.25 M129.45 118.9 Q130.55 117.05 131.3 116.45 133.5 117.7 134.1 120.35 L134.9 125.0 134.25 125.8 Q133.0 125.55 131.25 123.2 129.45 120.7 129.45 118.9 M111.9 111.1 Q111.9 112.0 110.25 114.35 108.8 116.4 109.5 118.45 L108.9 119.35 105.9 118.2 106.05 117.95 106.35 117.05 105.25 115.25 Q106.75 112.55 108.3 110.65 L109.5 109.35 111.45 109.55 111.45 108.8 Q111.9 109.35 111.9 111.1 M120.15 111.25 L120.35 111.95 120.3 112.55 120.0 113.1 118.95 113.3 117.3 113.15 116.75 113.0 116.5 112.1 116.25 110.9 Q117.05 110.1 118.2 110.25 119.4 110.35 120.15 111.25 M107.05 121.6 Q109.2 122.6 109.2 125.35 L108.7 130.7 108.0 130.4 106.6 130.15 106.6 130.1 106.85 127.55 Q107.0 125.9 105.95 124.9 104.85 123.9 104.85 122.65 104.85 120.65 107.05 121.6" fill="#ffffff" fill-rule="evenodd" stroke="none"/>
  </g>
</svg>