<?xml version="1.0" encoding="UTF-8" standalone="no"?>
<svg xmlns:xlink="http://www.w3.org/1999/xlink" height="81.75px" width="213.95px" xmlns="http://www.w3.org/2000/svg">
  <g transform="matrix(1.0, 0.0, 0.0, 1.0, -91.1, -71.65)">
    <path d="M255.8 87.45 Q255.9 87.35 256.05 87.3 260.0 86.3 265.15 82.15 268.15 80.75 271.35 79.65 273.25 79.0 275.05 78.5 L284.25 81.05 284.5 81.15 Q279.8 79.9 271.9 83.0 265.55 85.45 258.5 90.15 252.45 94.25 252.45 94.95 252.45 95.65 254.25 99.6 L256.05 103.65 Q256.05 105.75 253.65 106.4 250.2 107.35 249.0 108.45 249.25 110.0 251.25 112.85 253.45 115.9 256.35 118.5 257.4 118.15 258.6 115.55 L261.0 110.25 Q264.75 102.9 271.35 102.9 278.4 102.9 280.15 103.95 L281.5 105.0 Q282.4 105.7 283.95 106.2 283.95 103.9 287.65 99.75 291.3 95.65 291.3 93.75 291.3 83.3 285.05 81.3 L293.55 83.75 Q294.0 85.45 294.0 87.6 294.0 92.45 290.05 98.0 286.05 103.55 286.05 104.1 286.05 105.75 286.5 106.35 286.95 107.0 286.95 107.85 L286.95 108.45 291.0 107.55 Q294.85 108.35 297.7 111.3 L297.6 113.7 Q297.6 115.2 298.75 116.25 299.85 117.3 299.85 118.8 299.85 120.25 299.45 122.4 L299.25 124.05 Q298.55 121.75 297.1 118.9 293.65 112.15 289.05 110.85 L289.35 111.15 290.55 115.15 Q291.3 117.6 291.3 119.4 291.3 121.95 288.4 126.75 L285.55 131.55 287.85 131.25 Q292.05 131.25 292.0 132.7 L291.75 134.15 292.0 135.25 293.05 134.35 295.0 132.65 Q296.4 130.7 297.0 130.35 L297.35 130.5 299.85 127.65 299.6 125.45 299.8 125.55 302.55 125.85 304.0 125.7 304.05 127.05 Q304.05 130.6 298.5 135.55 L297.4 138.25 Q295.75 142.35 293.4 142.35 L289.65 142.2 288.15 142.05 Q287.6 141.5 287.35 139.85 L286.95 136.5 283.05 138.55 283.05 141.45 285.15 140.45 Q284.25 141.65 284.25 142.8 284.25 144.0 284.55 144.75 281.6 145.95 279.3 145.95 278.45 145.95 277.95 146.7 L276.7 148.45 Q273.85 150.9 263.7 150.9 262.5 149.7 262.5 146.25 L261.9 145.65 259.25 148.15 Q257.2 150.0 255.45 150.0 251.55 150.0 250.65 149.35 249.95 148.8 250.2 146.85 L247.85 150.15 Q246.0 152.4 244.5 152.4 243.45 152.4 240.75 150.05 238.05 147.65 238.05 146.55 238.05 142.0 243.25 133.85 248.5 125.65 253.05 123.3 L250.0 120.05 250.35 118.5 Q247.8 107.35 243.5 106.6 L243.95 106.15 250.65 102.3 Q248.7 98.95 248.7 94.95 248.7 92.3 255.8 87.45 M266.6 84.45 Q271.75 82.6 272.25 81.75 270.2 79.8 266.4 82.15 L260.4 86.25 Q261.7 86.25 266.6 84.45 M291.15 79.75 Q288.75 78.7 285.05 77.35 L286.9 77.65 Q289.5 78.25 291.15 79.75 M286.3 120.0 Q283.85 121.1 283.85 123.6 283.85 125.85 284.75 127.7 286.35 127.7 286.8 127.25 288.75 122.85 288.75 121.65 288.75 118.9 286.3 120.0 M287.6 111.05 Q287.6 109.65 284.85 107.75 282.3 106.0 278.85 104.75 270.05 101.65 270.05 105.8 270.05 106.25 270.35 106.55 L271.95 107.7 Q278.25 106.65 282.5 109.6 283.6 110.4 284.75 111.35 284.25 111.4 284.15 111.6 284.6 112.95 286.95 114.15 L288.25 113.9 288.5 113.3 288.05 111.6 287.6 111.55 287.6 111.05 M284.3 115.55 Q283.15 113.9 281.7 113.55 L281.1 114.85 Q280.5 116.0 280.5 117.75 280.5 120.75 280.8 120.0 L280.8 120.6 282.9 120.05 Q284.3 119.5 285.45 118.8 285.45 117.2 284.3 115.55 M292.25 135.6 L292.5 135.9 292.95 135.4 292.25 135.6 M274.0 109.85 L274.05 112.2 Q274.05 117.7 267.4 126.9 259.2 137.25 256.05 142.05 L256.05 142.35 Q259.8 138.9 280.5 114.0 280.5 110.35 273.45 109.05 L274.0 109.85 M279.15 135.35 L279.0 135.6 276.15 136.35 Q274.65 137.0 274.65 138.3 274.65 139.8 274.8 139.8 L276.5 139.95 278.2 138.2 Q279.3 137.15 279.3 136.25 L279.15 135.35 M258.85 118.75 Q256.8 121.5 256.8 123.5 256.8 125.0 256.95 124.8 L258.65 124.95 Q259.8 124.1 261.45 121.65 L264.15 117.15 Q261.35 115.4 258.85 118.75 M266.8 105.5 Q266.6 105.75 266.6 107.0 L266.9 107.8 Q267.4 108.75 268.35 109.55 268.8 108.6 269.55 107.95 270.05 107.55 270.05 106.85 270.05 105.95 269.85 105.7 L269.6 105.35 266.8 105.5 M121.3 73.05 Q127.3 73.9 132.35 82.8 134.75 87.0 136.35 92.1 137.7 96.45 137.7 98.55 137.7 99.75 136.75 102.45 135.8 105.15 135.8 106.55 L137.05 109.75 Q138.3 112.55 138.3 113.85 138.3 115.8 137.55 118.05 136.5 121.0 134.8 121.05 137.35 124.4 140.2 129.15 147.2 140.8 150.5 150.0 L150.2 150.6 149.0 150.9 Q148.25 150.9 147.55 150.4 146.85 149.85 146.1 149.85 142.4 149.85 138.55 142.9 L134.15 133.25 Q133.05 134.4 131.1 137.4 L133.35 140.4 Q133.35 141.8 131.25 143.85 129.0 146.1 126.8 146.1 L125.4 145.95 125.1 145.8 Q125.1 142.65 125.7 140.75 124.75 142.3 122.8 143.35 121.0 144.3 119.45 144.3 117.0 144.3 117.15 143.55 117.25 143.1 117.0 142.85 L116.45 144.0 Q117.75 146.2 119.3 150.45 L119.15 151.2 Q118.9 151.65 117.95 151.65 114.05 151.65 109.65 144.1 106.15 146.25 104.4 146.25 L100.2 146.1 Q97.4 141.9 93.6 138.2 92.1 136.75 92.1 133.25 92.1 132.5 94.7 129.9 L94.25 129.15 Q93.95 128.55 93.95 127.65 93.95 125.4 95.25 124.15 L96.5 124.25 98.4 124.1 Q99.3 123.8 99.3 122.6 L101.75 122.8 102.15 122.9 101.55 122.15 Q101.25 121.6 101.25 119.1 101.25 116.55 103.2 113.45 L104.8 111.3 103.75 109.35 Q100.8 104.2 100.8 100.1 100.8 92.85 104.25 85.55 108.65 76.05 116.8 73.5 L117.05 74.55 117.35 74.55 Q116.25 75.0 114.95 75.95 L110.85 79.5 112.4 79.05 Q109.75 81.8 106.95 87.0 102.05 96.0 102.05 100.2 102.05 103.15 104.5 103.05 108.0 102.9 108.9 103.65 L108.9 105.45 103.7 105.6 Q104.3 107.65 106.0 110.15 106.95 109.25 108.1 108.6 115.75 104.2 121.8 114.0 L122.9 113.65 124.65 113.4 Q127.05 113.4 129.9 115.75 130.8 115.25 131.1 115.25 132.5 115.25 133.25 115.9 L134.6 117.05 Q135.5 115.55 135.5 113.75 135.5 112.2 134.0 109.4 132.45 106.6 132.45 106.2 L133.7 102.9 Q134.9 99.65 134.9 98.45 134.9 94.25 130.7 86.75 126.3 78.95 121.95 75.95 L118.6 75.95 120.5 74.7 Q122.55 74.95 123.8 75.9 L127.5 78.6 127.85 78.15 Q128.1 76.55 123.8 74.15 122.45 73.4 121.3 73.05 M126.35 120.9 L125.8 120.5 125.65 120.2 Q123.2 118.0 121.8 118.45 119.45 120.75 117.0 120.75 L114.95 123.2 Q112.7 125.9 111.05 126.75 L111.65 127.6 Q112.35 128.55 114.0 129.0 L118.25 124.8 Q121.8 121.35 123.15 121.35 126.2 121.35 127.25 122.3 127.85 122.8 127.85 123.9 L123.8 129.6 Q119.4 135.45 118.25 138.3 L118.4 138.45 Q120.65 136.7 123.8 131.5 126.85 126.35 129.45 124.4 L126.4 120.9 126.35 120.9 M131.3 117.75 Q130.55 118.35 129.45 120.2 129.45 122.0 131.25 124.5 133.0 126.85 134.25 127.1 L134.9 126.3 134.1 121.65 Q133.5 119.0 131.3 117.75 M126.45 133.8 Q123.2 137.75 121.65 140.0 L121.5 140.45 129.1 134.0 Q133.35 129.85 131.1 128.1 L126.45 133.8 M128.7 142.05 Q130.35 140.9 130.35 138.45 L129.4 139.75 Q128.65 141.05 128.55 141.9 L128.7 142.05 M120.0 114.4 L120.3 113.85 120.35 113.25 120.15 112.55 Q119.4 111.65 118.2 111.55 117.05 111.4 116.25 112.2 L116.5 113.4 116.75 114.3 117.3 114.45 118.95 114.6 120.0 114.4 M108.9 120.65 L109.5 119.75 Q108.8 117.7 110.25 115.65 111.9 113.3 111.9 112.4 111.9 107.5 108.3 111.95 106.5 114.2 104.7 117.5 104.7 118.65 105.25 119.1 105.95 119.7 108.9 120.65 M99.15 129.75 Q99.15 130.9 96.95 132.3 94.7 133.7 94.7 135.65 94.7 137.15 102.75 144.15 106.1 144.15 108.65 142.35 L108.15 141.4 Q103.7 132.75 103.7 130.35 103.7 129.25 103.9 128.85 104.3 127.95 105.4 127.9 L105.4 127.85 Q104.5 125.7 99.3 125.7 97.35 125.7 96.9 126.5 96.7 126.9 96.75 127.5 L98.55 128.75 Q99.15 129.25 99.15 129.75 M117.95 128.7 L117.8 129.0 Q119.7 128.2 121.1 126.7 122.3 125.45 122.4 124.55 L120.05 126.55 Q118.5 127.85 117.95 128.7 M115.2 133.8 L116.85 132.85 117.95 132.05 Q116.2 131.85 115.6 132.7 L115.2 133.8 M112.35 133.95 L112.95 131.6 Q110.75 130.45 110.75 130.7 L111.95 133.95 112.35 133.95 M104.85 123.95 Q104.85 125.2 105.95 126.2 107.0 127.2 106.85 128.85 L106.6 131.4 Q106.55 132.9 107.7 133.95 L108.45 133.65 109.2 126.65 Q109.2 123.9 107.05 122.9 104.85 121.95 104.85 123.95 M114.0 136.8 L113.25 136.8 114.1 139.4 114.9 139.95 Q115.1 138.8 115.8 136.95 L114.0 136.8" fill="#f3e300" fill-rule="evenodd" stroke="none"/>
    <path d="M266.6 84.45 Q261.7 86.25 260.4 86.25 L266.4 82.15 Q270.2 79.8 272.25 81.75 271.75 82.6 266.6 84.45 M287.6 111.05 L287.6 111.55 288.05 111.6 288.5 113.3 288.25 113.9 286.95 114.15 Q284.6 112.95 284.15 111.6 284.25 111.4 284.75 111.35 283.6 110.4 282.5 109.6 278.25 106.65 271.95 107.7 L270.35 106.55 Q270.05 106.25 270.05 105.8 270.05 101.65 278.85 104.75 282.3 106.0 284.85 107.75 287.6 109.65 287.6 111.05 M286.3 120.0 Q288.75 118.9 288.75 121.65 288.75 122.85 286.8 127.25 286.35 127.7 284.75 127.7 283.85 125.85 283.85 123.6 283.85 121.1 286.3 120.0 M266.8 105.5 L269.6 105.35 269.85 105.7 Q270.05 105.95 270.05 106.85 270.05 107.55 269.55 107.95 268.8 108.6 268.35 109.55 267.4 108.75 266.9 107.8 L266.6 107.0 Q266.6 105.75 266.8 105.5 M258.85 118.75 Q261.35 115.4 264.15 117.15 L261.45 121.65 Q259.8 124.1 258.65 124.95 L256.95 124.8 Q256.8 125.0 256.8 123.5 256.8 121.5 258.85 118.75 M279.15 135.35 L279.3 136.25 Q279.3 137.15 278.2 138.2 L276.5 139.95 274.8 139.8 Q274.65 139.8 274.65 138.3 274.65 137.0 276.15 136.35 L279.0 135.6 279.15 135.35 M116.8 73.5 L116.75 73.25 121.3 73.05 Q122.45 73.4 123.8 74.15 128.1 76.55 127.85 78.15 L127.5 78.6 123.8 75.9 Q122.55 74.95 120.5 74.7 L118.6 75.95 116.6 77.1 112.4 79.05 110.85 79.5 114.95 75.95 Q116.25 75.0 117.35 74.55 L117.05 74.55 116.8 73.5 M131.3 117.75 Q133.5 119.0 134.1 121.65 L134.9 126.3 134.25 127.1 Q133.0 126.85 131.25 124.5 129.45 122.0 129.45 120.2 130.55 118.35 131.3 117.75 M108.9 120.65 Q105.95 119.7 105.25 119.1 104.7 118.65 104.7 117.5 106.5 114.2 108.3 111.95 111.9 107.5 111.9 112.4 111.9 113.3 110.25 115.65 108.8 117.7 109.5 119.75 L108.9 120.65 M120.0 114.4 L118.95 114.6 117.3 114.45 116.75 114.3 116.5 113.4 116.25 112.2 Q117.05 111.4 118.2 111.55 119.4 111.65 120.15 112.55 L120.35 113.25 120.3 113.85 120.0 114.4 M104.85 123.95 Q104.85 121.95 107.05 122.9 109.2 123.9 109.2 126.65 L108.45 133.65 107.7 133.95 Q106.55 132.9 106.6 131.4 L106.85 128.85 Q107.0 127.2 105.95 126.2 104.85 125.2 104.85 123.95" fill="#ffffff" fill-rule="evenodd" stroke="none"/>
  </g>
</svg>