<?xml version="1.0" encoding="UTF-8" standalone="no"?>
<svg xmlns:xlink="http://www.w3.org/1999/xlink" height="242.6px" width="300.5px" xmlns="http://www.w3.org/2000/svg">
  <g transform="matrix(1.0, 0.0, 0.0, 1.0, 1, 57.25)">
    <path d="M285.7 43.85 Q286.9 45.15 287.15 46.05 L287.7 51.7 Q288.0 55.2 289.25 55.2 290.1 55.2 291.0 51.9 L291.65 58.8 Q292.1 62.8 293.0 65.5 L293.9 68.9 Q294.4 70.9 295.25 72.35 L297.7 76.5 298.5 77.6 298.2 77.6 297.85 77.6 297.3 77.7 Q295.75 77.7 294.15 75.8 L292.35 73.7 Q290.25 72.75 288.2 72.3 284.7 71.5 275.7 71.05 L256.05 70.95 234.9 72.9 193.1 74.5 166.25 74.3 164.85 74.0 149.05 74.0 138.85 74.65 119.6 74.75 117.9 75.05 88.45 75.15 87.05 75.45 75.25 75.55 70.05 76.2 58.5 77.35 50.95 77.9 48.2 78.5 36.3 78.4 35.5 78.15 Q28.9 80.0 25.15 80.0 20.3 80.0 16.15 76.4 12.45 73.25 11.45 69.55 10.85 67.25 8.4 63.2 L6.7 60.25 Q6.55 62.95 5.9 66.0 4.55 72.2 1.7 72.2 L0.5 72.1 0.0 72.0 Q0.0 69.85 0.75 68.6 L1.05 68.6 1.15 69.25 1.05 70.3 1.15 70.75 Q4.5 65.8 4.95 64.3 5.15 63.6 5.15 59.1 L4.9 55.05 5.35 53.05 5.55 49.75 5.75 47.3 5.65 43.55 6.9 44.0 Q7.2 46.2 8.4 46.2 8.8 46.2 10.5 41.55 L12.2 36.3 Q12.2 34.45 11.45 33.5 11.5 33.4 11.6 33.4 12.15 34.4 13.15 34.4 14.25 34.4 14.85 31.9 15.25 30.2 15.25 28.75 L15.0 26.55 15.65 21.8 16.85 24.7 Q17.0 26.35 17.55 28.0 L17.6 28.05 17.65 28.65 18.1 29.55 Q17.55 29.55 17.55 30.3 17.55 30.8 18.05 31.6 L18.35 32.0 18.3 32.55 Q18.3 33.55 18.4 33.45 L18.55 33.55 19.45 33.65 Q20.45 33.65 20.5 33.35 L20.6 32.05 20.6 31.95 21.7 32.1 Q22.2 32.1 22.85 31.55 L22.95 31.45 22.85 31.9 22.95 33.05 23.1 33.15 24.0 33.25 Q24.3 33.25 24.75 32.7 L24.85 32.8 Q25.35 33.25 26.25 33.25 27.45 33.25 28.25 31.9 29.5 31.5 30.0 29.45 L30.5 29.25 31.35 25.3 31.65 22.05 31.25 18.8 31.0 16.85 Q31.5 17.6 32.2 20.7 L32.4 21.65 32.4 23.7 32.5 29.25 34.5 29.45 Q36.55 29.45 37.5 26.95 L38.45 23.9 38.5 23.9 38.8 25.1 Q39.25 26.4 40.2 26.4 42.05 26.4 42.5 24.75 L42.6 24.15 43.05 23.75 43.15 26.2 43.4 26.3 44.35 26.4 Q45.55 26.4 45.9 24.85 L46.1 22.3 46.1 21.6 46.5 22.05 46.5 22.3 46.6 24.0 Q46.9 25.65 48.0 25.65 48.4 25.65 48.8 25.05 L49.25 24.4 49.95 24.4 50.0 24.4 50.15 24.4 51.35 24.3 Q51.65 24.15 51.75 23.2 L52.4 21.9 52.6 22.0 52.6 22.1 53.35 22.2 54.25 22.0 54.5 21.75 54.7 20.7 54.85 19.55 Q54.85 18.9 54.55 18.7 L55.15 16.3 55.25 12.15 55.05 8.3 54.85 2.85 54.7 0.1 55.05 0.0 Q55.5 9.75 56.2 15.05 56.6 18.4 57.4 20.6 56.85 21.1 56.85 22.7 L56.85 23.4 Q57.0 24.05 57.75 24.05 58.1 24.05 58.65 23.1 L60.2 24.5 60.3 25.8 60.55 25.9 61.5 26.0 Q62.05 26.0 62.8 24.85 L62.85 24.85 63.2 24.8 63.1 25.4 Q63.1 26.05 63.6 26.5 64.9 26.0 65.2 23.05 L65.15 22.75 Q65.6 22.3 65.9 22.3 L67.45 23.8 67.75 24.75 67.7 26.35 67.75 27.65 Q67.85 28.35 68.45 28.85 L68.7 28.8 68.25 29.55 68.3 30.05 68.8 30.15 69.4 29.55 69.75 28.8 70.15 29.0 70.25 29.0 70.55 29.2 70.5 29.7 Q70.6 30.15 71.4 30.15 72.1 30.15 72.35 29.4 72.85 29.3 73.15 29.0 L73.25 29.45 73.5 29.65 73.6 29.75 74.0 29.8 74.0 30.4 74.55 30.5 75.2 29.85 75.35 29.65 76.0 29.0 76.95 30.45 Q77.85 31.65 78.55 31.65 79.95 31.65 80.35 28.05 L80.55 28.05 81.15 27.9 81.45 24.1 82.35 22.65 Q82.9 21.75 82.9 20.8 82.6 18.45 82.65 17.2 L83.25 16.95 Q83.75 17.9 83.85 19.8 83.7 20.5 83.7 21.6 L83.8 23.95 Q83.75 25.65 84.05 26.85 84.75 32.05 86.45 32.05 87.0 32.05 87.3 31.55 L88.25 32.6 88.2 33.55 88.2 34.9 Q88.35 36.25 89.1 36.25 L89.45 36.1 90.05 35.4 90.25 35.25 Q91.3 37.05 91.6 38.85 93.15 38.5 93.95 37.6 94.7 36.75 95.05 36.75 95.75 36.75 96.1 37.65 L96.3 38.7 96.45 38.95 97.2 38.7 Q97.45 39.7 98.15 39.7 98.9 39.7 99.25 37.75 L99.3 37.65 99.4 37.85 99.7 37.95 Q100.4 37.8 100.6 37.15 L100.65 36.2 100.65 35.35 100.65 34.1 100.2 28.55 100.35 26.55 101.9 30.05 102.15 31.8 Q103.0 37.2 104.7 37.2 L105.4 37.05 105.85 37.75 105.9 37.9 106.25 38.45 107.9 40.75 108.5 40.0 Q109.5 39.8 110.65 36.5 L111.7 33.0 Q112.0 33.05 112.25 33.25 L112.3 34.9 Q112.65 36.95 113.95 36.95 L114.4 36.75 114.55 36.6 115.25 36.6 115.5 36.75 116.1 36.95 116.45 36.6 116.55 36.6 117.15 35.8 Q120.75 31.7 121.15 30.6 L122.15 27.05 122.55 25.0 122.75 24.6 122.7 24.75 Q122.75 25.75 123.75 25.75 124.8 25.75 125.4 22.1 L126.15 16.8 126.7 16.9 127.0 16.85 127.05 15.9 126.9 14.5 127.95 12.1 127.85 14.15 127.9 17.2 Q128.2 20.2 129.5 20.2 130.0 20.2 129.95 20.0 130.05 18.65 130.7 17.65 L130.65 18.7 130.9 22.95 131.3 28.4 Q131.7 32.85 131.95 33.35 L132.65 32.85 133.45 32.85 Q133.7 33.5 134.4 33.5 134.95 33.5 135.35 32.8 L136.25 32.8 137.15 35.25 Q138.1 37.35 138.4 37.35 139.45 37.35 139.65 34.3 L139.65 33.3 139.95 33.75 Q140.55 32.85 140.7 31.35 L140.8 29.85 140.95 29.75 141.0 33.75 Q141.2 36.8 142.6 36.8 143.2 36.8 143.5 36.2 L143.75 35.45 143.95 35.7 144.4 35.85 Q145.05 35.85 145.55 34.45 146.1 33.0 147.6 32.85 L147.9 28.75 Q148.65 29.5 149.1 32.4 149.5 34.9 151.5 35.9 L151.5 37.4 152.2 37.5 153.5 37.8 155.25 38.1 Q156.3 38.1 156.85 36.2 L156.9 36.0 157.1 35.65 157.6 35.3 Q157.7 36.0 158.6 36.0 L160.15 34.45 161.8 31.95 162.0 32.2 162.5 32.35 163.3 31.35 163.85 29.95 164.15 30.45 Q164.0 30.9 164.0 31.4 L163.95 34.1 Q164.2 36.65 165.75 36.75 165.75 37.55 166.15 38.3 166.75 39.4 167.95 39.4 L168.65 38.9 168.7 38.85 168.75 38.85 170.55 38.6 170.6 38.85 171.35 39.05 Q172.2 38.65 172.85 37.15 L173.1 36.85 173.15 36.85 Q173.9 37.25 174.2 36.6 L174.4 35.7 174.8 36.15 175.35 36.35 Q176.5 36.35 176.4 34.85 L176.45 34.85 Q177.1 36.8 178.25 38.85 179.7 41.5 180.6 41.5 L180.95 41.5 Q181.6 41.9 182.4 41.9 184.85 41.9 186.25 40.55 L186.3 40.55 Q188.1 40.55 188.75 35.7 189.15 30.0 189.5 28.3 L189.55 28.4 Q189.55 32.3 189.7 33.95 189.95 37.5 190.9 37.5 L191.4 37.4 191.65 37.45 Q191.65 38.05 192.15 38.9 L192.55 39.45 192.85 40.1 193.2 39.85 193.45 39.85 Q193.85 39.85 194.05 39.5 195.55 38.8 197.2 32.1 198.25 32.1 198.65 31.3 198.7 32.4 199.05 33.65 199.55 35.4 200.2 35.4 L200.6 35.5 200.65 35.8 201.75 35.8 202.3 35.85 Q203.1 35.85 203.35 35.35 L203.55 34.95 203.7 34.8 204.35 35.25 Q205.3 35.25 205.85 33.5 L206.25 31.9 206.7 31.2 207.6 31.1 Q208.5 28.3 209.65 26.45 L210.0 25.35 211.05 25.1 Q212.7 25.0 213.35 23.6 L213.4 23.8 Q213.55 24.0 213.85 24.0 214.35 24.0 214.25 23.85 L214.65 21.1 214.9 18.7 215.8 18.85 Q215.6 19.55 216.35 21.05 217.2 22.7 217.2 23.4 L217.2 26.25 Q217.55 28.2 219.15 28.2 220.6 28.2 220.2 26.05 L220.75 25.9 221.5 26.0 222.85 25.8 222.9 26.25 223.45 26.35 226.05 21.15 Q226.25 27.65 227.8 27.65 L228.6 27.05 229.5 27.35 230.85 27.65 231.45 27.45 231.55 27.45 Q233.3 27.45 233.65 24.3 L233.7 21.95 233.9 19.25 234.1 14.15 234.15 13.75 234.3 13.7 234.85 15.25 235.85 23.4 Q237.2 23.95 238.8 27.1 240.3 30.0 241.2 30.0 L241.9 29.8 242.55 30.4 243.35 28.8 243.85 27.3 Q244.3 27.3 244.6 26.85 245.15 27.8 246.4 28.55 L247.7 29.2 Q248.4 29.2 248.9 28.0 L249.05 27.7 249.5 27.55 249.55 28.75 250.05 28.85 252.95 25.9 Q253.9 25.9 254.55 23.35 254.95 22.25 255.0 21.0 255.4 18.4 255.6 14.4 L255.45 11.1 255.8 9.95 256.35 9.1 256.25 8.7 256.35 8.0 256.95 14.05 Q257.35 17.8 257.95 17.8 L258.4 17.65 258.6 17.35 Q258.6 19.6 259.4 22.6 260.2 25.6 261.45 26.6 L261.7 27.15 262.3 27.05 262.8 27.1 262.85 27.1 263.5 27.2 Q264.5 27.2 265.65 25.0 266.55 23.35 266.85 22.0 268.2 22.3 268.45 21.2 L268.75 19.55 269.25 19.65 269.75 20.75 270.25 21.9 Q270.4 23.35 270.7 24.35 271.25 26.35 271.7 27.2 272.55 28.95 273.7 28.95 L274.2 28.85 274.85 29.15 275.0 29.35 Q275.55 30.1 276.75 30.1 278.05 30.1 278.5 29.3 L278.7 27.95 Q279.9 27.9 280.35 25.9 L280.6 23.85 280.6 19.25 280.8 19.25 281.35 27.95 Q281.7 33.65 282.25 37.25 L282.9 38.85 283.9 40.85 284.45 41.65 284.45 41.8 Q284.55 42.6 285.7 43.85" fill="url(#gradient0)" fill-rule="evenodd" stroke="none"/>
    <path d="M217.55 135.35 L218.7 134.95 218.75 136.3 219.25 136.4 Q221.4 136.4 221.9 135.35 222.2 135.7 222.2 137.2 222.2 138.3 223.05 138.3 L223.65 138.05 Q223.7 136.75 224.75 133.9 225.5 131.8 225.45 130.5 L225.75 134.25 Q225.95 136.95 226.85 136.95 L227.4 136.8 227.65 133.65 228.35 133.45 Q229.3 134.15 229.4 136.65 229.55 139.0 230.65 139.65 L230.65 140.1 230.7 140.25 230.75 144.15 Q230.95 147.05 231.6 147.05 232.75 147.05 232.8 145.8 L232.8 145.6 232.85 145.7 232.95 150.45 Q233.05 154.4 235.65 155.55 L236.0 156.3 236.55 156.55 Q237.05 156.55 237.0 156.35 236.75 155.25 237.95 155.0 239.35 154.65 239.45 153.9 L239.8 150.6 239.85 150.85 Q240.15 151.7 240.55 151.9 L240.8 152.8 240.65 156.55 Q240.5 160.35 240.7 162.3 L241.1 167.2 Q241.5 170.05 242.65 171.95 L243.05 171.75 243.0 170.3 243.65 173.05 243.65 173.55 Q243.65 175.4 244.5 177.5 245.5 179.95 246.8 179.95 L246.9 179.9 247.8 180.85 247.95 182.55 Q248.25 183.0 247.5 183.05 L247.45 183.85 Q247.3 184.35 246.65 184.35 243.2 184.35 237.15 178.3 233.0 174.2 231.4 171.8 229.15 168.45 224.75 165.3 219.7 161.65 214.15 160.1 208.1 158.4 191.7 155.85 L154.95 150.95 141.5 150.95 118.25 155.2 Q101.75 158.35 93.25 162.35 88.4 164.65 76.55 172.15 67.35 177.95 58.1 180.95 L54.3 180.95 53.75 180.85 53.55 180.3 52.75 180.2 Q52.6 180.6 52.6 179.6 52.6 178.55 53.15 177.5 L53.5 177.35 53.6 177.2 53.55 178.65 53.7 178.85 54.8 174.4 54.95 174.1 Q56.25 172.05 56.25 170.85 L56.5 167.65 56.7 164.6 56.95 164.9 57.4 165.15 Q57.9 165.15 58.0 164.9 L58.2 160.2 58.2 157.15 58.0 150.05 Q57.65 146.6 57.65 142.75 L57.1 139.2 Q57.8 140.0 58.3 141.1 58.6 142.45 58.55 144.65 L58.6 148.5 58.8 153.3 Q59.2 156.2 61.1 156.2 L61.7 156.4 62.7 156.55 Q64.8 156.55 65.45 148.25 L65.8 139.15 66.55 139.6 Q67.35 139.6 67.55 138.4 L67.55 136.9 67.5 135.3 Q67.45 133.85 67.55 133.1 L67.9 129.15 68.15 126.9 68.45 132.4 Q69.1 138.05 70.75 138.05 L71.05 138.05 71.85 139.8 71.9 140.8 Q72.0 142.3 73.05 142.3 L73.3 142.0 Q73.95 143.8 74.35 143.8 L74.95 143.55 74.75 141.05 Q74.75 139.7 75.45 139.15 76.6 138.25 76.95 137.35 L77.2 135.45 77.5 133.4 77.4 132.35 77.6 131.75 78.25 131.85 78.55 131.8 78.6 129.65 Q78.7 128.5 80.2 128.7 81.7 131.35 83.5 135.95 85.25 131.45 85.85 130.6 L86.3 131.25 86.85 131.4 87.6 129.45 88.1 129.8 88.1 130.6 88.3 132.45 88.9 132.55 Q89.4 132.55 89.8 131.85 L90.05 132.15 90.65 132.4 91.3 132.6 92.1 132.75 92.7 132.2 93.0 133.0 Q93.35 133.7 93.8 133.7 94.85 133.7 94.9 132.05 L94.75 129.85 Q95.45 130.0 96.1 128.4 96.65 127.0 96.65 126.0 L96.6 125.25 Q97.05 124.05 97.05 122.85 L97.1 122.8 98.05 122.75 Q98.05 123.05 98.8 123.55 L99.3 123.9 99.9 124.75 Q99.9 126.2 100.05 126.55 L100.8 127.45 101.45 128.2 101.5 129.5 Q101.6 130.3 102.45 130.3 103.05 130.3 103.5 129.05 104.4 128.85 104.65 128.1 L104.85 126.6 Q106.35 128.65 106.15 120.4 L105.9 117.1 106.75 116.5 107.65 117.9 107.65 117.95 108.0 118.95 Q108.3 120.15 109.3 120.15 109.9 120.15 109.95 119.15 110.0 117.95 110.95 117.5 L110.95 118.5 Q111.1 119.2 111.9 119.2 L112.45 118.8 Q112.85 119.6 113.5 119.6 114.3 119.6 114.5 118.15 L114.6 116.65 114.75 116.55 Q115.7 116.75 116.25 115.45 L116.8 115.6 Q118.35 115.6 118.35 110.8 120.0 110.15 119.95 108.3 119.65 106.45 119.8 105.55 L119.9 105.4 120.1 106.65 Q120.3 107.6 121.0 107.6 121.75 107.6 121.85 106.4 L121.9 104.85 121.95 104.85 122.0 105.8 Q122.1 106.65 122.65 106.65 L124.75 107.0 125.3 106.95 126.3 109.5 126.45 109.6 126.55 108.85 126.7 108.65 Q127.0 108.4 127.6 108.4 128.65 108.4 129.3 110.65 129.8 112.35 129.8 113.7 L129.9 113.8 130.25 111.6 Q130.65 109.9 131.8 109.9 132.1 109.9 135.6 117.25 139.1 124.55 142.05 124.55 145.65 124.55 149.55 113.85 153.5 101.4 155.3 97.9 158.55 91.7 159.35 90.85 163.2 86.7 166.95 93.25 L170.35 99.75 Q172.25 103.8 172.95 106.55 L172.95 105.05 Q173.15 103.8 174.25 103.8 175.3 103.8 175.85 105.15 176.25 106.15 176.25 107.15 L176.6 107.05 177.5 106.85 Q178.1 106.85 180.5 114.65 181.15 116.85 181.9 118.45 181.75 118.85 181.75 119.55 181.75 120.05 182.1 120.5 L182.85 121.7 183.1 123.25 Q183.35 124.4 184.2 124.4 184.7 124.4 185.0 123.5 L185.2 122.4 Q186.4 125.05 186.55 126.4 L187.05 126.5 Q187.95 126.5 188.6 123.55 L189.5 124.15 Q189.95 124.35 189.8 124.85 L190.75 124.95 191.45 124.85 192.1 124.15 192.2 124.7 192.75 124.95 Q193.6 124.95 194.7 120.65 195.7 116.95 196.0 113.85 L196.05 113.95 196.8 121.55 Q196.95 122.75 196.7 125.45 L196.75 126.0 196.6 126.65 Q196.75 127.4 197.55 127.95 L198.5 128.7 198.5 129.4 Q198.6 129.9 199.25 129.9 199.5 129.9 199.65 129.7 199.75 129.5 200.0 129.5 L200.3 129.8 Q200.6 130.1 200.8 130.1 L201.35 129.75 Q201.55 129.35 201.85 129.35 L203.35 129.25 203.3 128.95 203.6 129.0 Q203.75 129.55 204.2 129.55 L204.8 129.3 Q204.8 130.4 206.05 131.5 207.1 132.4 207.6 132.4 L209.35 131.15 209.75 131.6 210.3 131.8 Q212.2 131.8 212.35 130.5 212.2 128.6 212.6 127.35 L212.8 127.6 212.75 128.45 Q212.75 128.9 213.25 129.1 L213.7 128.95 Q213.75 131.2 214.4 133.5 215.3 136.75 216.8 136.75 L217.5 136.65 217.55 135.6 217.55 135.35" fill="url(#gradient1)" fill-rule="evenodd" stroke="none"/>
    <path d="M17.35 -41.5 L18.65 -40.15 18.65 -35.55 18.35 -35.3 18.2 -34.95 16.65 -35.1 16.3 -38.45 Q16.0 -40.6 15.3 -42.15 L15.6 -42.4 16.2 -42.6 17.35 -41.5 M64.7 -11.05 L64.2 -10.35 60.75 -10.45 60.1 -13.5 Q59.6 -15.45 59.6 -16.75 59.6 -19.0 59.85 -18.2 62.0 -18.2 63.5 -16.05 L65.35 -12.25 64.7 -11.05 M96.3 -39.2 L96.4 -36.65 95.8 -36.4 95.5 -36.0 Q93.7 -37.1 93.7 -40.6 L95.5 -40.6 Q96.1 -40.25 96.3 -39.2 M161.8 -44.95 L162.0 -45.2 164.2 -42.8 165.15 -41.05 164.45 -40.05 Q162.3 -40.2 161.75 -41.45 L161.55 -43.2 Q161.55 -44.6 161.8 -44.95 M132.3 -22.5 Q132.3 -20.35 130.95 -16.2 L129.9 -15.95 129.7 -15.6 Q129.45 -15.55 129.45 -16.95 129.45 -18.7 130.25 -21.8 131.0 -25.0 131.6 -25.4 L132.2 -24.55 132.3 -22.5 M153.65 -10.8 Q153.75 -10.7 154.35 -10.5 154.55 -10.45 154.55 -9.1 154.55 -6.85 153.0 -4.8 L151.45 -5.1 Q151.05 -5.4 151.05 -6.95 151.05 -7.8 151.35 -8.55 151.95 -10.05 153.65 -10.8 M200.45 -52.75 Q200.35 -52.8 200.35 -54.2 200.35 -56.45 200.55 -56.25 L202.15 -56.25 Q203.0 -55.35 203.7 -53.55 203.2 -52.5 201.0 -52.5 L200.45 -52.75 M197.1 -19.65 L196.85 -15.95 196.45 -15.7 196.2 -15.3 194.15 -15.5 193.95 -19.55 Q193.95 -21.3 194.4 -22.8 194.9 -24.45 195.75 -25.2 L196.75 -22.55 Q197.1 -21.25 197.1 -19.65 M239.15 -35.85 Q239.15 -37.45 240.7 -37.65 L243.3 -37.35 243.55 -36.65 242.5 -35.5 Q241.8 -34.85 241.3 -34.65 L239.6 -34.5 Q239.15 -34.5 239.15 -35.85 M237.6 -6.6 Q237.6 -5.1 237.4 -4.65 L236.9 -3.9 234.9 -3.9 234.45 -4.5 234.45 -9.0 237.05 -9.05 Q237.6 -8.6 237.6 -6.6" fill="url(#gradient2)" fill-rule="evenodd" stroke="none"/>
    <path d="M210.0 94.95 Q210.0 96.75 209.55 97.4 L208.45 97.4 208.45 92.8 Q208.6 91.8 209.45 91.8 210.0 93.0 210.0 94.95 M226.4 118.45 L227.2 119.1 Q227.4 119.35 227.4 120.15 L227.1 121.4 226.4 122.3 225.1 122.3 225.0 121.1 Q225.0 119.7 226.4 118.45 M215.2 109.55 Q215.6 108.2 216.25 107.75 216.85 108.15 217.05 108.65 L217.25 109.95 217.2 111.5 Q216.95 112.4 215.85 112.7 L215.1 112.35 Q214.85 112.05 214.85 111.3 214.85 110.6 215.2 109.55 M208.0 123.3 L207.0 123.75 Q205.65 122.15 205.65 118.9 L205.7 116.9 205.8 116.65 207.05 117.75 208.0 119.0 208.0 123.3 M200.3 105.35 L200.75 107.0 200.3 107.65 198.75 107.55 198.75 104.9 198.9 103.7 199.8 103.7 200.3 105.35 M68.6 110.6 L68.7 112.1 Q68.7 114.2 67.35 115.2 L66.7 114.8 66.5 113.75 66.7 112.3 66.7 110.95 Q67.1 110.4 68.6 110.6 M58.05 120.95 L57.6 121.3 56.45 121.2 56.45 119.25 Q56.8 117.65 57.35 117.65 58.05 118.9 58.05 120.95" fill="url(#gradient3)" fill-rule="evenodd" stroke="none"/>
  </g>
  <defs>
    <linearGradient gradientTransform="matrix(0.0, 0.0488, -0.1827, 0.0, 149.65, 40.0)" gradientUnits="userSpaceOnUse" id="gradient0" spreadMethod="pad" x1="-819.2" x2="819.2">
      <stop offset="0.0" stop-color="#c0271e"></stop>
      <stop offset="1.0" stop-color="#231912"></stop>
    </linearGradient>
    <linearGradient gradientTransform="matrix(0.0, 0.058, -0.1193, 0.0, 150.35, 136.8)" gradientUnits="userSpaceOnUse" id="gradient1" spreadMethod="pad" x1="-819.2" x2="819.2">
      <stop offset="0.0" stop-color="#c0271e"></stop>
      <stop offset="1.0" stop-color="#231912"></stop>
    </linearGradient>
    <linearGradient gradientTransform="matrix(0.0, 0.0488, -0.1827, 0.0, 149.65, 40.0)" gradientUnits="userSpaceOnUse" id="gradient2" spreadMethod="pad" x1="-819.2" x2="819.2">
      <stop offset="0.0" stop-color="#c0271e"></stop>
      <stop offset="1.0" stop-color="#231912"></stop>
    </linearGradient>
    <linearGradient gradientTransform="matrix(0.0, 0.058, -0.1193, 0.0, 150.35, 136.8)" gradientUnits="userSpaceOnUse" id="gradient3" spreadMethod="pad" x1="-819.2" x2="819.2">
      <stop offset="0.0" stop-color="#c0271e"></stop>
      <stop offset="1.0" stop-color="#231912"></stop>
    </linearGradient>
  </defs>
</svg>