<?xml version="1.0" encoding="UTF-8" standalone="no"?>
<svg xmlns:xlink="http://www.w3.org/1999/xlink" height="60.9px" width="38.6px" xmlns="http://www.w3.org/2000/svg">
  <g transform="matrix(1.0, 0.0, 0.0, 1.0, 23.65, 16.7)">
    <path d="M-4.65 31.35 L-5.3 32.15 Q-6.55 34.6 -9.2 35.25 L-9.7 35.3 Q-11.95 34.1 -12.95 32.2 -13.9 30.3 -13.85 27.75 L-13.6 26.25 -13.6 22.35 Q-13.65 21.0 -14.4 16.25 L-14.65 14.5 -14.95 12.9 Q-16.35 15.55 -16.3 16.1 L-16.5 16.1 -16.7 15.6 -18.35 12.35 Q-19.6 9.8 -19.8 8.55 -20.15 6.45 -19.45 5.6 -20.35 6.3 -20.8 7.65 L-21.4 9.3 -21.9 5.1 -21.15 0.45 Q-20.7 -1.6 -19.15 -4.45 L-17.5 -6.8 -17.0 -7.3 -12.9 -10.4 -12.7 -10.45 Q-7.15 -14.15 -3.25 -14.7 L-3.0 -14.75 0.3 -14.95 4.3 -14.45 5.45 -14.1 5.6 -14.1 7.2 -13.4 7.5 -13.25 7.6 -13.15 7.75 -13.15 8.0 -12.95 8.05 -12.9 Q12.2 -10.35 12.95 -5.5 L12.7 -1.0 12.35 3.65 12.1 3.7 Q11.95 3.25 11.0 2.55 10.4 2.0 9.9 1.85 L8.95 5.1 Q8.2 9.15 5.25 13.15 L5.15 13.05 5.0 13.0 4.95 13.05 4.85 12.75 3.5 15.3 3.45 15.4 1.55 14.5 3.45 15.4 Q0.5 20.95 -3.3 29.35 L-4.65 31.35 -6.6 29.7 -4.65 31.35 M-12.95 23.5 Q-13.4 24.2 -13.55 26.0 L-13.1 23.9 -12.95 23.5" fill="#999999" fill-rule="evenodd" stroke="none"/>
    <path d="M3.45 15.4 L3.5 15.3 4.85 12.75 4.95 13.05 5.0 13.0 5.15 13.05 5.25 13.15 Q8.2 9.15 8.95 5.1 L9.9 1.85 Q10.4 2.0 11.0 2.55 11.95 3.25 12.1 3.7 L12.35 3.65 12.7 -1.0 12.95 -5.5 Q12.2 -10.35 8.05 -12.9 L8.0 -12.95 7.75 -13.15 7.6 -13.15 7.5 -13.25 7.2 -13.4 5.6 -14.1 5.45 -14.1 4.3 -14.45 0.3 -14.95 -3.0 -14.75 -3.25 -14.7 Q-7.15 -14.15 -12.7 -10.45 L-12.9 -10.4 -17.0 -7.3 -17.5 -6.8 -19.15 -4.45 Q-20.7 -1.6 -21.15 0.45 L-21.9 5.1 -21.4 9.3 -20.8 7.65 Q-20.35 6.3 -19.45 5.6 -20.15 6.45 -19.8 8.55 -19.6 9.8 -18.35 12.35 L-16.7 15.6 -16.5 16.1 -16.3 16.1 Q-16.35 15.55 -14.95 12.9 L-14.65 14.5 -14.4 16.25 Q-13.65 21.0 -13.6 22.35 L-13.6 26.25 -13.85 27.75 Q-13.9 30.3 -12.95 32.2 -11.95 34.1 -9.7 35.3 L-9.2 35.25 Q-6.55 34.6 -5.3 32.15 L-4.65 31.35 -6.6 29.7 M1.55 14.5 L3.45 15.4 M-3.3 29.35 L-4.65 31.35" fill="none" stroke="#11162d" stroke-linecap="round" stroke-linejoin="miter-clip" stroke-miterlimit="3.0" stroke-width="1.5"/>
    <path d="M-13.6 26.25 L-13.55 26.0 -13.1 23.9 -12.95 23.5 -12.45 22.3 Q-12.1 21.5 -11.6 21.4 -9.95 21.15 -9.5 24.0 L-9.2 28.5 -8.4 31.3 Q-8.15 32.85 -10.0 33.15 -11.2 33.3 -12.85 32.25 L-12.95 32.2 Q-13.9 30.3 -13.85 27.75 L-13.6 26.25" fill="#8b2ba4" fill-rule="evenodd" stroke="none"/>
    <path d="M-12.95 23.5 Q-12.05 20.5 -10.55 20.25 -9.25 20.05 -8.1 24.3 L-7.6 26.3 -7.7 28.35 Q-7.2 31.6 -5.3 32.15 -6.55 34.6 -9.2 35.25 L-9.7 35.3 Q-11.95 34.1 -12.95 32.2 L-12.85 32.25 Q-11.2 33.3 -10.0 33.15 -8.15 32.85 -8.4 31.3 L-9.2 28.5 -9.5 24.0 Q-9.95 21.15 -11.6 21.4 -12.1 21.5 -12.45 22.3 L-12.95 23.5" fill="#4a1757" fill-rule="evenodd" stroke="none"/>
    <path d="M-14.4 16.25 L-13.9 15.35 Q-13.45 14.3 -13.1 12.85 L-13.0 12.55 -11.8 15.9 Q-8.2 12.5 -7.15 7.35 L-7.0 7.25 Q-4.9 10.55 -4.45 14.15 L-5.45 17.8 -6.5 18.0 -12.2 18.6 -14.05 18.55 -14.4 16.25" fill="#f1b261" fill-rule="evenodd" stroke="none"/>
    <path d="M-14.95 12.9 L-14.9 12.85 -14.1 11.25 -13.55 10.2 -12.95 8.65 -12.8 8.65 -12.55 9.2 -12.2 9.7 -11.95 10.15 -11.9 10.3 -11.75 10.7 -11.55 11.3 -11.35 11.4 -9.7 8.9 -9.2 7.8 -9.15 7.7 -8.55 6.25 Q-8.0 4.65 -8.05 3.65 L-7.9 3.55 -7.35 3.9 -5.5 6.75 -5.15 7.35 -4.2 9.1 -4.0 9.5 -3.8 9.85 -3.7 10.1 -3.65 10.1 -3.4 9.6 -2.45 7.6 Q-1.7 5.85 -1.65 4.9 0.8 6.4 2.75 8.95 L3.25 9.55 3.9 10.55 4.85 12.75 3.5 15.3 Q0.55 20.85 -3.3 29.35 L-5.3 32.15 Q-7.2 31.6 -7.7 28.35 L-7.6 26.3 -8.1 24.3 Q-9.25 20.05 -10.55 20.25 -12.05 20.5 -12.95 23.5 -13.4 24.2 -13.55 26.0 L-13.6 26.25 -13.6 22.35 -14.05 18.55 -12.2 18.6 -6.5 18.0 -5.45 17.8 -4.45 14.15 Q-4.9 10.55 -7.0 7.25 L-7.15 7.35 Q-8.2 12.5 -11.8 15.9 L-13.0 12.55 -13.1 12.85 Q-13.45 14.3 -13.9 15.35 L-14.4 16.25 -14.65 14.5 -14.95 12.9 M8.95 5.1 L9.1 1.6 9.9 1.85 8.95 5.1" fill="#ab703c" fill-rule="evenodd" stroke="none"/>
    <path d="M-14.95 12.9 Q-16.35 15.55 -16.3 16.1 L-16.5 16.1 -16.7 15.6 -18.35 12.35 Q-19.6 9.8 -19.8 8.55 -20.15 6.45 -19.45 5.6 -20.35 6.3 -20.8 7.65 L-21.4 9.3 -21.9 5.1 -21.15 0.45 Q-20.7 -1.6 -19.15 -4.45 L-17.5 -6.8 -17.0 -7.3 -12.9 -10.4 -12.7 -10.45 Q-7.15 -14.15 -3.25 -14.7 1.65 -15.45 5.6 -14.1 L7.2 -13.4 7.5 -13.25 8.05 -12.9 Q12.2 -10.35 12.95 -5.5 L12.7 -1.0 12.35 3.65 12.1 3.7 Q11.95 3.25 11.0 2.55 10.4 2.0 9.9 1.85 L9.1 1.6 8.95 5.1 Q8.2 9.15 5.25 13.15 L4.95 13.05 4.85 12.75 3.9 10.55 3.25 9.55 2.75 8.95 Q0.8 6.4 -1.65 4.9 -1.7 5.85 -2.45 7.6 L-3.4 9.6 -3.65 10.1 -3.7 10.1 -3.8 9.85 -4.0 9.5 -4.2 9.1 -5.15 7.35 -5.5 6.75 -7.35 3.9 -7.9 3.55 -8.05 3.65 Q-8.0 4.65 -8.55 6.25 L-9.15 7.7 -9.2 7.8 -9.7 8.9 -11.35 11.4 -11.55 11.3 -11.75 10.7 -11.9 10.3 -11.95 10.15 -12.2 9.7 -12.55 9.2 -12.8 8.65 -12.95 8.65 -13.55 10.2 -14.1 11.25 -14.9 12.85 -14.95 12.9" fill="url(#gradient0)" fill-rule="evenodd" stroke="none"/>
    <path d="M1.95 -1.25 Q3.85 2.95 4.35 6.1 L4.6 8.4 4.45 10.6 2.5 7.55 Q0.95 5.5 -0.05 4.85 0.9 4.25 1.5 2.05 2.05 0.05 1.85 -1.15 L1.95 -1.25" fill="#ffffcc" fill-opacity="0.4" fill-rule="evenodd" stroke="none"/>
    <path d="M10.2 2.0 Q10.05 1.85 9.9 1.85 L9.1 1.6 8.95 5.1 8.55 6.75 Q7.7 9.95 5.25 13.15 L5.25 13.05 5.0 13.0 Q6.2 9.55 5.9 5.9 L4.9 -0.9 3.15 -3.25 2.1 -4.45 0.55 -2.4 Q-1.4 0.2 -3.2 2.05 L-1.85 4.45 -1.6 4.95 -1.65 4.9 Q-1.7 5.85 -2.45 7.6 L-3.4 9.6 -3.5 9.8 Q-3.2 8.0 -3.2 6.3 L-3.45 2.25 -6.55 4.95 -7.2 4.2 Q-7.4 3.95 -7.9 3.55 L-8.05 3.65 -8.05 4.05 -8.55 6.25 -9.15 7.7 -9.2 7.8 -9.7 8.9 -11.35 11.4 -11.55 11.3 -11.75 10.7 -11.9 10.3 -11.95 10.15 -12.2 9.7 -12.55 9.2 -12.8 8.65 -12.95 8.65 -13.55 10.2 -14.1 11.25 -14.9 12.85 -14.95 12.9 Q-16.35 15.55 -16.3 16.1 L-16.5 16.1 -16.7 15.6 -18.35 12.35 Q-19.6 9.8 -19.8 8.55 -20.15 6.45 -19.45 5.6 -20.35 6.3 -20.8 7.65 L-21.4 9.3 -21.9 5.1 -21.15 0.45 Q-20.7 -1.6 -19.15 -4.45 L-17.5 -6.8 -17.0 -7.3 -12.9 -10.4 -12.7 -10.45 Q-7.15 -14.15 -3.25 -14.7 L0.3 -14.95 Q3.1 -15.0 5.6 -14.1 L5.85 -13.95 Q8.25 -11.05 9.55 -7.65 11.2 -2.95 10.2 2.0" fill="#1f2643" fill-opacity="0.6509804" fill-rule="evenodd" stroke="none"/>
    <path d="M10.2 2.0 Q11.2 -2.95 9.55 -7.65 8.25 -11.05 5.85 -13.95 L7.2 -13.4 7.5 -13.25 7.75 -13.15 8.05 -12.9 Q12.2 -10.35 12.95 -5.5 L12.7 -1.0 12.35 3.65 12.1 3.7 Q11.95 3.25 11.0 2.55 L10.2 2.0" fill="#245662" fill-opacity="0.32941177" fill-rule="evenodd" stroke="none"/>
    <path d="M-0.1 23.6 L1.15 25.05 1.5 25.9 Q2.5 28.3 2.3 31.15 L1.6 30.45 0.1 28.65 Q0.5 31.1 -0.15 33.8 -0.95 37.65 -4.35 39.65 L-4.55 39.75 -4.5 38.7 Q-4.45 37.35 -5.15 36.4 L-5.45 36.05 -5.9 37.45 Q-6.75 39.3 -8.05 41.05 L-8.2 40.8 -8.75 39.8 Q-9.5 37.75 -11.3 36.7 L-11.6 37.1 Q-13.05 39.05 -13.05 41.35 L-13.5 40.85 -13.8 40.55 Q-17.2 36.9 -17.15 31.65 L-17.2 31.7 Q-19.55 33.6 -21.2 36.05 L-20.9 34.35 -20.9 34.15 Q-20.5 29.2 -18.25 24.7 L-17.95 24.2 -17.95 28.05 -0.1 28.05 -0.1 23.6" fill="#666666" fill-rule="evenodd" stroke="none"/>
    <path d="M-17.95 24.2 L-18.25 24.7 Q-20.5 29.2 -20.9 34.15 L-20.9 34.35 -21.2 36.05 Q-19.55 33.6 -17.2 31.7 L-17.15 31.65 Q-17.2 36.9 -13.8 40.55 L-13.5 40.85 -13.05 41.35 Q-13.05 39.05 -11.6 37.1 L-11.3 36.7 Q-9.5 37.75 -8.75 39.8 L-8.2 40.8 -8.05 41.05 Q-6.75 39.3 -5.9 37.45 L-5.45 36.05 -5.15 36.4 Q-4.45 37.35 -4.5 38.7 L-4.55 39.75 -4.35 39.65 Q-0.95 37.65 -0.15 33.8 0.5 31.1 0.1 28.65 L1.6 30.45 2.3 31.15 Q2.5 28.3 1.5 25.9 L1.15 25.05 -0.1 23.6" fill="none" stroke="#121334" stroke-linecap="round" stroke-linejoin="miter-clip" stroke-miterlimit="3.0" stroke-width="1.5"/>
    <path d="M1.15 25.05 L1.5 25.9 Q2.5 28.3 2.3 31.15 L1.6 30.45 0.1 28.65 Q0.5 31.1 -0.15 33.8 -0.95 37.65 -4.35 39.65 L-4.55 39.75 -4.5 38.7 Q-4.45 37.35 -5.15 36.4 L-5.45 36.05 -5.9 37.45 Q-6.75 39.3 -8.05 41.05 L-8.2 40.8 -8.75 39.8 Q-9.5 37.75 -11.3 36.7 L-11.6 37.1 Q-13.05 39.05 -13.05 41.35 L-13.5 40.85 -13.8 40.55 Q-17.2 36.9 -17.15 31.65 L-17.2 31.7 Q-19.55 33.6 -21.2 36.05 L-20.9 34.35 -20.9 34.15 Q-20.5 29.2 -18.25 24.7 -17.4 23.15 -16.0 22.15 L-15.9 22.05 -15.6 21.85 Q-11.65 19.2 -6.65 20.2 L-6.35 20.25 Q-5.15 20.5 -4.0 21.0 -0.9 22.25 1.15 25.05" fill="url(#gradient1)" fill-rule="evenodd" stroke="none"/>
    <path d="M-21.2 36.05 L-20.9 34.35 Q-20.05 32.65 -18.4 30.8 L-15.4 27.75 -15.25 27.75 -16.9 30.9 -17.2 31.7 Q-19.55 33.6 -21.2 36.05 M2.3 31.15 L1.6 30.45 0.1 28.65 Q0.5 31.1 -0.15 33.8 -0.95 37.65 -4.35 39.65 L-3.35 37.8 Q-2.0 34.95 -2.0 32.1 -2.0 28.8 -3.25 25.4 L-3.5 24.7 Q-3.65 25.7 -4.15 26.75 L-5.15 29.25 -5.25 29.1 Q-5.65 27.7 -6.55 26.4 -7.65 24.7 -8.9 24.25 L-8.9 24.35 Q-9.3 27.0 -9.5 27.1 L-9.95 25.8 Q-10.3 24.95 -10.65 24.85 L-13.9 30.5 -14.4 27.65 -14.1 25.6 -13.75 24.25 -15.45 25.45 Q-16.9 26.6 -17.15 27.1 L-17.15 26.8 -16.55 24.0 -16.0 22.15 -15.9 22.05 -15.9 22.55 -16.0 24.0 -16.0 24.5 -13.4 23.5 -12.75 23.5 -12.9 26.85 -11.75 25.0 -10.65 23.1 Q-9.9 23.6 -9.65 24.5 L-9.4 24.5 -8.75 22.25 Q-7.85 22.6 -5.5 26.0 -4.85 25.95 -4.35 23.0 L-4.0 21.0 Q-0.9 22.25 1.15 25.05 L1.5 25.9 Q2.5 28.3 2.3 31.15 M-8.65 26.9 L-5.95 33.0 Q-5.3 34.8 -5.15 36.4 L-5.45 36.05 -5.9 37.45 Q-6.75 39.3 -8.05 41.05 L-8.2 40.8 Q-7.5 37.9 -7.5 34.8 -7.5 32.5 -7.8 30.25 -8.15 28.0 -8.65 26.9 M-11.75 33.8 L-11.6 37.1 Q-13.05 39.05 -13.05 41.35 L-13.5 40.85 Q-14.15 38.95 -14.15 37.15 -14.15 35.55 -13.0 32.55 -12.0 30.0 -11.3 29.1 L-11.7 31.25 -11.75 33.8" fill="#1f2643" fill-opacity="0.49803922" fill-rule="evenodd" stroke="none"/>
  </g>
  <defs>
    <radialGradient cx="0" cy="0" gradientTransform="matrix(0.0337, -0.0052, 0.0043, 0.0283, -11.1, -4.8)" gradientUnits="userSpaceOnUse" id="gradient0" r="819.2" spreadMethod="pad">
      <stop offset="0.0" stop-color="#6cdbbc"></stop>
      <stop offset="0.5843137254901961" stop-color="#2db09c"></stop>
      <stop offset="0.9921568627450981" stop-color="#1c7155"></stop>
    </radialGradient>
    <radialGradient cx="0" cy="0" gradientTransform="matrix(0.0222, -0.0034, 0.0034, 0.0222, -15.45, 26.3)" gradientUnits="userSpaceOnUse" id="gradient1" r="819.2" spreadMethod="pad">
      <stop offset="0.0" stop-color="#6cdbbc"></stop>
      <stop offset="0.5843137254901961" stop-color="#2db09c"></stop>
      <stop offset="0.9921568627450981" stop-color="#1c7155"></stop>
    </radialGradient>
  </defs>
</svg>