<?xml version="1.0" encoding="UTF-8" standalone="no"?>
<svg xmlns:xlink="http://www.w3.org/1999/xlink" height="35.55px" width="31.2px" xmlns="http://www.w3.org/2000/svg">
  <g transform="matrix(1.0, 0.0, 0.0, 1.0, 13.7, 19.2)">
    <path d="M-4.55 6.1 L-2.55 2.75 Q-6.05 2.65 -9.95 -0.2 L-10.65 -0.75 Q-12.4 -2.55 -11.8 -5.15 L-11.1 -7.1 -10.65 -7.85 -6.5 -8.9 Q-1.9 -9.75 1.95 -9.1 L2.2 -9.05 2.55 -8.85 Q5.9 -7.1 7.45 -7.45 8.5 -7.65 9.9 -8.75 L10.1 -8.9 11.55 -10.25 11.95 -10.25 12.1 -10.25 15.25 -15.95 15.5 -14.2 Q16.0 -10.25 13.7 -7.1 L13.6 -6.05 13.2 -3.85 Q11.95 1.5 8.45 8.65 L7.0 11.4 Q6.25 12.8 5.2 13.7 L-7.05 10.4 -4.55 6.1" fill="#999999" fill-rule="evenodd" stroke="none"/>
    <path d="M8.45 8.65 Q11.95 1.5 13.2 -3.85 L13.6 -6.05 13.7 -7.1 Q16.0 -10.25 15.5 -14.2 L15.25 -15.95 12.1 -10.25 11.95 -10.25 11.55 -10.25 10.1 -8.9 9.9 -8.75 Q8.5 -7.65 7.45 -7.45 5.9 -7.1 2.55 -8.85 L2.2 -9.05 1.95 -9.1 Q-1.9 -9.75 -6.5 -8.9 L-10.65 -7.85 -11.1 -7.1 -11.8 -5.15 Q-12.4 -2.55 -10.65 -0.75 L-9.95 -0.2 Q-6.05 2.65 -2.55 2.75 L-4.55 6.1" fill="none" stroke="#11162d" stroke-linecap="round" stroke-linejoin="miter-clip" stroke-miterlimit="3.0" stroke-width="1.5"/>
    <path d="M-11.1 -7.1 L-7.1 -5.9 -7.4 -4.4 -7.1 -3.05 -6.75 -2.35 Q-3.35 3.55 3.35 0.3 6.0 -1.05 7.9 -3.15 L8.6 -3.6 7.1 1.4 5.75 4.95 4.65 7.9 4.2 8.95 Q2.6 12.4 0.4 15.35 L-0.4 15.3 Q-5.55 15.05 -7.05 10.4 L-4.1 5.35 -2.1 5.75 Q2.5 6.2 4.75 0.95 0.95 2.85 -2.55 2.75 -6.05 2.65 -9.95 -0.2 L-10.65 -0.75 Q-12.4 -2.55 -11.8 -5.15 L-11.1 -7.1" fill="#f1b261" fill-rule="evenodd" stroke="none"/>
    <path d="M12.1 -10.25 L11.1 -9.1 10.7 -8.8 9.4 -6.9 Q10.2 -6.25 11.15 -5.75 11.65 -5.4 12.2 -5.45 L11.75 -3.25 8.8 4.0 Q8.6 4.0 7.6 6.5 L6.9 8.3 6.25 9.65 Q3.45 13.8 1.85 15.2 L1.45 15.25 0.4 15.35 Q2.6 12.4 4.2 8.95 L4.65 7.9 5.75 4.95 7.1 1.4 8.6 -3.6 7.9 -3.15 Q6.0 -1.05 3.35 0.3 -3.35 3.55 -6.75 -2.35 L-7.1 -3.05 -7.4 -4.4 -7.1 -5.9 -11.1 -7.1 -10.65 -7.85 -6.5 -8.9 Q-1.9 -9.75 1.95 -9.1 L2.2 -9.05 2.55 -8.85 Q5.9 -7.1 7.45 -7.45 8.5 -7.65 9.9 -8.75 L10.1 -8.9 11.55 -10.25 11.95 -10.25 12.1 -10.25 M-2.55 2.75 Q0.95 2.85 4.75 0.95 2.5 6.2 -2.1 5.75 L-4.1 5.35 -2.55 2.75" fill="#ab703c" fill-rule="evenodd" stroke="none"/>
    <path d="M15.1 -15.65 L15.1 -15.25 14.85 -12.85 14.15 -10.3 13.2 -8.25 Q12.8 -7.15 12.55 -7.15 L12.45 -7.05 12.35 -6.95 11.8 -6.7 Q11.95 -6.5 12.35 -6.25 L12.4 -6.2 12.85 -5.95 12.55 -5.6 12.2 -5.45 Q11.65 -5.4 11.15 -5.75 10.2 -6.25 9.4 -6.9 L10.7 -8.8 11.1 -9.1 12.1 -10.25 15.1 -15.65" fill="#440071" fill-rule="evenodd" stroke="none"/>
    <path d="M12.85 -5.95 L12.4 -6.2 12.35 -6.25 Q11.95 -6.5 11.8 -6.7 L12.35 -6.95 12.45 -7.05 12.55 -7.15 Q12.8 -7.15 13.2 -8.25 L14.15 -10.3 14.85 -12.85 15.1 -15.25 15.1 -15.65 15.25 -15.95 15.5 -14.2 Q16.0 -10.25 13.7 -7.1 L12.85 -5.95" fill="#8e2ca7" fill-rule="evenodd" stroke="none"/>
    <path d="M12.85 -5.95 L13.7 -7.1 13.6 -6.05 13.2 -3.85 Q11.95 1.5 8.45 8.6 L7.0 11.4 Q5.25 14.6 1.85 15.2 3.45 13.8 6.25 9.65 L6.9 8.3 7.6 6.5 Q8.6 4.0 8.8 4.0 L11.75 -3.25 12.2 -5.45 12.55 -5.6 12.85 -5.95" fill="#b49770" fill-rule="evenodd" stroke="none"/>
    <path d="M0.1 -3.35 L1.65 -3.7 2.2 -3.35 Q1.25 -0.65 0.95 -0.65 L0.45 -0.25 0.3 -0.15 0.15 -0.05 -1.15 0.35 -1.85 0.15 -2.25 -0.3 -1.75 -1.65 -1.85 -2.35 -1.8 -2.4 -1.65 -2.5 -1.5 -2.6 Q-0.9 -3.0 -0.65 -3.0 L-0.2 -3.15 -0.05 -3.25 0.1 -3.35 M0.1 -5.15 L-0.4 -4.25 -1.25 -3.7 -2.25 -4.0 -2.6 -3.9 -3.3 -4.1 -3.6 -4.45 -3.9 -5.15 -3.6 -5.9 -2.95 -6.35 -2.35 -6.5 -0.15 -6.85 0.45 -6.75 0.55 -6.35 0.1 -5.15 M-1.6 5.45 L-0.35 5.55 Q-0.1 5.55 -0.05 5.4 L0.35 5.45 0.55 5.6 0.7 6.05 -0.3 7.7 Q-1.3 9.0 -1.65 9.0 L-2.95 9.2 -4.3 8.65 -4.65 8.2 Q-3.45 6.05 -2.55 5.25 L-2.2 5.3 -1.6 5.45 M-8.7 -3.35 L-8.25 -3.5 -7.5 -3.3 -5.0 -2.95 -4.35 -3.0 -4.05 -2.75 -3.75 -2.3 -3.5 -1.85 -3.35 -1.45 -3.5 -0.55 Q-3.7 0.1 -4.05 0.1 L-4.2 0.2 -4.35 0.25 -5.45 0.65 Q-6.25 0.65 -7.6 -0.2 -9.05 -1.15 -9.05 -2.05 L-9.2 -2.45 -9.05 -2.95 -8.7 -3.35 M-5.3 10.1 L-5.05 10.05 -4.9 9.95 -4.8 9.85 -3.15 10.15 Q-2.05 10.5 -2.05 11.1 L-1.85 11.8 Q-1.85 12.35 -2.2 13.0 -2.55 13.7 -2.9 13.7 -3.6 13.7 -4.1 13.3 -4.6 12.9 -4.6 12.25 L-5.0 11.25 -5.2 10.65 -5.35 10.2 -5.35 10.15 -5.3 10.1 M-0.5 9.05 Q-0.2 8.15 0.4 8.15 L1.35 8.4 2.15 8.75 2.65 8.95 3.15 9.4 3.35 9.75 3.5 10.25 3.05 11.95 Q2.55 13.0 2.05 13.0 L1.75 13.3 Q-1.25 13.3 -1.1 9.75 L-0.5 9.05 M11.0 1.0 Q11.0 1.9 10.45 2.75 L9.05 4.9 8.65 4.4 8.55 4.4 7.9 4.15 7.8 4.1 7.3 3.55 8.2 1.7 Q9.0 0.15 9.4 0.15 L10.35 0.45 Q11.0 0.75 11.0 1.0 M7.35 0.05 L7.6 0.75 Q7.6 1.5 7.0 2.5 L6.2 3.4 5.5 3.15 5.05 3.3 4.25 4.0 4.1 4.0 4.05 3.8 3.95 3.65 3.85 3.5 3.7 3.1 3.45 1.95 Q3.45 1.1 3.95 1.1 L4.95 0.7 5.4 0.55 7.35 0.05 M7.35 5.9 L7.05 7.45 6.25 8.95 5.0 8.65 Q4.0 8.6 4.0 8.3 L3.4 7.9 Q3.4 7.5 3.7 7.5 L4.35 5.95 5.15 4.35 6.75 4.65 Q7.35 5.0 7.35 5.9 M0.85 5.25 Q0.85 4.9 1.35 4.65 1.75 4.4 2.05 4.4 3.0 4.4 3.0 5.4 L3.2 6.1 2.85 7.1 2.1 7.55 1.25 7.25 1.3 6.85 1.1 6.0 0.85 5.25" fill="#1f2643" fill-opacity="0.14117648" fill-rule="evenodd" stroke="none"/>
  </g>
</svg>