<?xml version="1.0" encoding="UTF-8" standalone="no"?>
<svg xmlns:xlink="http://www.w3.org/1999/xlink" height="74.55px" width="38.1px" xmlns="http://www.w3.org/2000/svg">
  <g transform="matrix(1.0, 0.0, 0.0, 1.0, 57.4, 25.25)">
    <path d="M-43.0 -10.65 L-42.85 -10.65 Q-38.15 -3.05 -29.9 1.4 -27.65 2.55 -25.55 0.9 -21.75 -2.1 -21.45 -6.65 L-20.3 -6.25 Q-21.2 -1.95 -21.1 2.35 L-21.05 3.95 Q-27.35 5.2 -29.5 9.6 -30.0 10.55 -30.9 15.25 L-31.75 20.9 Q-31.6 23.7 -30.9 26.4 L-36.5 26.7 -37.8 27.1 -37.8 26.0 -36.1 24.9 Q-32.0 22.2 -33.0 20.9 L-35.4 18.2 Q-36.75 16.85 -41.45 15.4 -43.35 14.85 -47.75 12.4 L-45.1 12.4 -41.6 13.65 Q-37.35 14.95 -33.7 12.85 -34.7 0.25 -43.0 -10.65 M-49.2 -22.6 L-49.25 -22.0 Q-48.0 -18.8 -46.25 -16.0 L-46.4 -16.0 -49.3 -19.5 Q-51.2 -21.6 -51.15 -24.25 L-50.3 -22.9 -49.2 -22.6 M-33.15 43.1 L-33.45 43.35 -34.55 44.5 Q-36.05 46.25 -36.6 48.3 L-37.25 47.1 -35.0 43.1 -33.15 43.1 M-24.95 37.95 L-23.6 43.1 -25.45 42.9 -28.15 36.45 -29.25 37.35 -31.1 37.35 Q-29.45 33.7 -29.6 30.45 -27.55 35.45 -24.15 37.15 L-24.95 37.95 M-56.4 8.5 L-55.5 8.4 -51.15 10.45 -51.15 12.15 Q-53.9 10.9 -56.4 9.15 L-56.4 8.5 M-48.65 31.2 Q-46.15 30.1 -43.1 28.2 L-43.1 29.3 Q-46.05 30.15 -48.65 31.2" fill="#ffffff" fill-rule="evenodd" stroke="none"/>
  </g>
</svg>