<?xml version="1.0" encoding="UTF-8" standalone="no"?>
<svg xmlns:xlink="http://www.w3.org/1999/xlink" height="67.9px" width="35.65px" xmlns="http://www.w3.org/2000/svg">
  <g transform="matrix(1.0, 0.0, 0.0, 1.0, 52.5, 20.15)">
    <path d="M-19.8 -11.25 Q-19.35 -12.7 -19.25 -14.25 L-17.85 -13.8 -18.2 -11.7 -19.8 -11.25 M-45.65 -19.15 L-45.5 -19.15 Q-40.4 -10.9 -31.85 -5.7 -34.75 -3.85 -35.65 -2.55 L-36.35 -1.4 Q-39.25 -10.75 -45.65 -19.15 M-24.65 45.25 L-21.95 46.4 -21.9 46.75 -24.15 46.5 -24.65 45.25 M-48.25 9.05 L-43.95 10.6 -41.75 11.1 -42.15 13.3 -43.8 12.75 Q-46.1 12.1 -51.5 9.05 L-48.25 9.05" fill="#ffffff" fill-rule="evenodd" stroke="none"/>
  </g>
</svg>