<?xml version="1.0" encoding="UTF-8" standalone="no"?>
<svg xmlns:xlink="http://www.w3.org/1999/xlink" height="81.95px" width="48.1px" xmlns="http://www.w3.org/2000/svg">
  <g transform="matrix(1.0, 0.0, 0.0, 1.0, 67.25, 37.65)">
    <path d="M-52.75 -27.45 L-52.9 -27.45 -56.15 -31.35 Q-58.25 -33.65 -58.2 -36.65 L-57.25 -35.1 -56.05 -34.8 -56.1 -34.1 Q-54.7 -30.55 -52.75 -27.45 M-37.8 23.0 Q-36.7 22.3 -35.95 21.65 L-35.05 24.35 -38.25 25.0 -39.7 25.45 -39.7 24.25 -37.8 23.0 M-37.25 14.3 L-37.1 15.4 Q-38.75 13.95 -43.75 12.4 -45.85 11.8 -50.75 9.05 L-47.8 9.05 -43.9 10.45 Q-40.2 11.6 -36.85 10.4 -37.25 12.25 -37.25 14.3 M-45.45 -16.6 L-45.3 -16.6 Q-40.05 -8.15 -30.85 -3.2 -28.35 -1.9 -26.05 -3.75 -21.8 -7.1 -21.45 -12.15 L-20.15 -11.7 Q-20.95 -8.1 -21.05 -4.45 -23.9 -4.55 -27.6 -2.25 -33.15 1.2 -35.5 6.15 -37.35 -6.0 -45.45 -16.6 M-30.15 36.9 L-32.2 36.9 Q-31.1 34.4 -30.7 32.15 -28.05 35.3 -24.45 36.65 L-25.35 37.55 -23.85 43.3 -25.9 43.05 -28.9 35.85 -30.15 36.9 M-60.4 7.6 Q-63.45 6.2 -66.25 4.25 L-66.25 3.5 -65.25 3.4 -60.4 5.7 -60.4 7.6 M-49.7 29.9 L-49.7 31.1 -55.85 33.2 Q-53.1 32.0 -49.7 29.9" fill="#ffffff" fill-rule="evenodd" stroke="none"/>
  </g>
</svg>