<?xml version="1.0" encoding="UTF-8" standalone="no"?>
<svg xmlns:xlink="http://www.w3.org/1999/xlink" height="41.2px" width="14.05px" xmlns="http://www.w3.org/2000/svg">
  <g transform="matrix(1.0, 0.0, 0.0, 1.0, -29.25, 24.9)">
    <path d="M35.65 -23.15 L35.6 -19.1 35.4 -18.85 Q34.9 -19.25 34.9 -21.25 34.9 -22.3 35.25 -23.9 L35.45 -23.9 35.65 -23.15 M39.1 -12.8 L39.3 -11.35 39.15 -9.5 38.95 -9.35 38.55 -9.4 38.5 -10.35 38.75 -12.8 39.1 -12.8 M30.45 -10.4 L30.25 -12.35 Q30.25 -14.45 30.85 -14.95 L30.85 -10.6 Q30.8 -10.45 30.45 -10.4 M34.1 -7.3 Q34.8 -6.7 34.85 -5.55 L35.1 -3.45 35.05 -3.15 34.95 -3.0 Q33.9 -5.0 33.9 -6.8 L34.1 -7.3 M41.5 -2.05 L41.5 -0.85 41.4 -0.75 41.1 -3.25 41.25 -3.25 41.5 -2.05 M41.9 13.85 L41.8 15.2 41.75 15.3 41.3 15.25 41.3 12.55 Q41.4 11.85 41.65 11.75 L41.9 13.85 M39.9 5.4 L40.1 8.1 40.0 10.35 39.65 10.4 39.5 8.15 39.6 5.4 39.9 5.4 M34.85 3.5 L35.7 7.55 35.55 8.0 34.9 6.75 34.45 5.35 Q34.45 4.0 34.85 3.5 M33.05 11.45 Q33.05 12.75 32.5 14.0 L32.25 14.0 32.15 13.4 32.65 10.7 32.85 10.7 33.05 11.45" fill="#bb8d38" fill-rule="evenodd" stroke="none"/>
    <path d="M31.35 -19.8 L31.5 -19.25 31.35 -18.0 31.35 -17.9 30.95 -17.9 30.9 -18.45 31.05 -19.8 31.35 -19.8 M38.15 -17.75 L38.15 -18.15 Q38.15 -18.9 38.4 -19.05 L38.7 -17.1 Q38.2 -17.35 38.15 -17.75 M30.6 -7.35 L30.75 -7.35 30.95 -6.6 30.65 -5.1 30.5 -4.95 30.3 -5.95 30.45 -6.55 30.6 -7.35 M33.15 -11.4 Q32.85 -11.4 32.85 -11.85 L32.9 -12.3 33.15 -12.3 33.3 -11.55 33.15 -11.4 M33.45 -3.2 L33.5 -2.6 33.3 -2.6 33.3 -3.2 33.45 -3.2 M42.15 -9.0 Q41.7 -9.65 41.7 -10.4 42.3 -10.55 42.3 -9.75 L42.15 -9.0 M40.25 3.6 L40.25 4.5 40.2 4.65 Q39.9 4.4 39.9 4.0 39.9 3.6 40.05 3.3 L40.1 3.3 40.25 3.6" fill="#ffe6a8" fill-rule="evenodd" stroke="none"/>
  </g>
</svg>