<?xml version="1.0" encoding="UTF-8" standalone="no"?>
<svg xmlns:xlink="http://www.w3.org/1999/xlink" height="39.15px" width="18.9px" xmlns="http://www.w3.org/2000/svg">
  <g transform="matrix(1.0, 0.0, 0.0, 1.0, -26.7, 24.05)">
    <path d="M33.75 -23.05 L34.1 -23.05 34.25 -22.95 34.3 -22.6 34.25 -22.15 34.15 -22.0 33.75 -22.05 33.7 -22.55 33.75 -23.05 M30.8 -15.3 Q30.25 -15.95 30.25 -16.45 30.25 -17.25 30.7 -17.35 L31.15 -15.75 31.05 -15.35 30.8 -15.3 M28.5 -10.25 L28.2 -9.2 27.85 -9.15 Q27.7 -9.3 27.7 -9.65 27.7 -11.2 28.25 -11.75 L28.5 -10.25 M36.45 -10.5 L36.7 -9.5 36.65 -8.25 36.4 -8.0 Q36.1 -8.5 36.1 -9.45 36.1 -10.4 36.45 -10.5 M33.7 -9.4 L33.35 -7.45 33.35 -7.4 Q32.9 -7.85 32.9 -8.4 L33.1 -9.35 33.45 -10.1 33.7 -9.4 M30.9 -2.55 L30.95 0.85 Q31.0 2.85 31.35 4.2 L31.2 4.5 Q30.45 4.3 30.25 3.15 L30.2 1.55 Q30.2 -1.0 30.6 -2.55 L30.9 -2.55 M34.25 -0.05 L34.7 6.25 34.65 6.6 34.4 6.65 Q33.85 6.05 33.85 3.85 L34.1 -0.05 34.25 -0.05 M36.1 -3.15 L35.9 2.6 35.75 2.85 35.35 2.8 35.25 -0.4 Q35.25 -1.95 35.7 -4.45 L35.85 -4.45 36.1 -3.15 M38.75 -1.8 L39.1 -1.8 Q39.4 -0.1 39.5 2.55 L39.35 2.7 38.9 2.65 38.7 -0.95 38.75 -1.8 M40.3 -5.55 L40.1 -4.65 39.85 -4.65 39.75 -5.1 Q39.75 -5.55 40.3 -5.55 M43.5 3.2 Q43.55 4.65 43.85 5.45 L43.7 5.6 Q43.1 5.2 42.95 4.4 L42.9 3.1 43.1 0.95 43.25 0.95 43.5 3.2 M41.5 4.45 L41.7 7.45 41.55 10.0 41.2 10.0 41.1 7.5 41.2 4.5 41.5 4.45 M38.25 2.95 L38.55 6.45 38.3 7.45 37.9 7.45 37.65 5.1 Q37.65 3.0 38.25 2.95" fill="#bb8d38" fill-rule="evenodd" stroke="none"/>
    <path d="M28.95 -0.05 L28.95 2.15 Q28.6 1.75 28.5 1.1 L28.5 -0.05 28.5 -1.55 28.8 -1.55 28.95 -0.05 M36.15 -7.35 L36.45 -6.35 36.35 -5.3 36.15 -5.1 Q35.85 -5.45 35.85 -6.35 35.85 -7.2 36.15 -7.35 M39.8 -2.4 L39.75 -1.05 Q39.65 -0.9 39.45 -0.9 39.3 -1.35 39.3 -2.4 39.3 -3.25 39.6 -3.45 L39.8 -2.4 M44.6 -0.2 L44.4 0.9 44.25 0.9 44.0 -0.75 44.05 -0.95 44.25 -0.9 Q44.6 -0.75 44.6 -0.2 M42.6 10.4 L42.6 13.65 42.45 13.8 42.0 13.8 41.85 10.0 Q41.85 9.45 42.15 9.45 L42.6 10.4 M38.7 5.0 L38.4 8.0 38.0 8.1 37.85 6.3 37.9 5.25 38.4 4.2 38.7 5.0 M33.15 1.85 L33.45 3.4 33.35 4.35 33.2 4.5 32.75 4.5 32.7 3.4 Q32.7 2.25 33.15 1.85 M34.7 10.0 L34.4 13.85 34.2 14.1 33.9 13.55 33.7 11.3 Q33.7 9.2 34.5 8.55 L34.7 10.0 M30.3 7.45 L29.85 9.65 29.55 9.75 Q29.4 9.55 29.4 9.1 L29.85 6.45 30.15 6.45 30.3 7.45" fill="#ffe6a8" fill-rule="evenodd" stroke="none"/>
  </g>
</svg>