<?xml version="1.0" encoding="UTF-8" standalone="no"?>
<svg xmlns:xlink="http://www.w3.org/1999/xlink" height="32.9px" width="13.65px" xmlns="http://www.w3.org/2000/svg">
  <g transform="matrix(1.0, 0.0, 0.0, 1.0, -31.25, 27.4)">
    <path d="M37.1 -26.25 L37.15 -25.85 37.15 -25.55 37.1 -25.65 36.9 -25.5 36.45 -25.5 Q36.25 -26.15 36.9 -26.4 L37.1 -26.25 M33.3 -14.95 L33.15 -14.7 32.8 -14.75 32.75 -14.7 32.7 -15.05 32.85 -15.4 33.1 -15.4 33.3 -14.95 M37.6 -17.65 L37.45 -16.9 37.3 -16.9 37.2 -17.9 37.5 -17.95 37.6 -17.65 M43.85 -7.35 L43.9 -7.0 Q43.9 -6.6 43.5 -6.1 43.25 -6.1 43.05 -6.25 L43.2 -6.85 Q43.4 -7.35 43.7 -7.45 L43.85 -7.35 M38.5 3.55 Q38.65 3.35 38.9 3.35 L39.1 4.25 38.95 4.5 38.5 4.45 38.5 3.55 M34.2 3.65 L34.1 3.25 Q34.1 2.6 34.5 2.6 L34.7 3.5 34.2 3.65" fill="#bb8d38" fill-rule="evenodd" stroke="none"/>
    <path d="M40.35 -21.9 L40.4 -21.5 40.35 -21.35 40.05 -21.3 40.05 -21.9 40.35 -21.9 M33.0 -20.7 L33.15 -20.4 33.0 -19.95 32.85 -19.95 32.75 -20.7 33.0 -20.7 M40.35 -16.7 L40.2 -16.5 39.75 -16.5 39.65 -16.8 39.75 -17.1 39.95 -17.1 40.35 -16.7 M37.8 -12.5 L37.8 -12.3 37.5 -12.05 Q37.35 -12.15 37.35 -12.4 L37.35 -12.6 37.8 -12.5 M32.7 -5.25 L32.55 -5.1 32.25 -5.6 32.7 -5.6 32.7 -5.25" fill="#ffe6a8" fill-rule="evenodd" stroke="none"/>
  </g>
</svg>