<?xml version="1.0" encoding="UTF-8" standalone="no"?>
<svg xmlns:xlink="http://www.w3.org/1999/xlink" height="29.65px" width="16.2px" xmlns="http://www.w3.org/2000/svg">
  <g transform="matrix(1.0, 0.0, 0.0, 1.0, -27.7, 21.4)">
    <path d="M37.0 -20.3 L37.3 -20.4 37.8 -19.65 38.15 -18.8 38.0 -17.3 37.6 -17.05 37.3 -18.6 37.0 -20.3 M33.45 -17.85 L33.85 -18.9 34.15 -17.25 34.05 -14.85 33.8 -14.6 33.45 -14.7 33.45 -17.85 M37.9 -15.6 L37.55 -12.05 37.55 -12.0 Q37.05 -12.5 37.05 -14.15 37.05 -15.85 37.65 -15.9 37.9 -16.1 37.9 -15.6 M32.7 -0.75 L33.05 4.2 32.95 4.65 32.5 4.85 Q32.15 4.75 32.15 4.25 L32.4 -0.7 32.7 -0.75 M31.3 -1.5 L30.9 -1.5 30.85 -1.7 31.15 -5.8 31.5 -5.8 31.7 -4.3 31.3 -1.5 M36.05 -2.65 L36.25 -1.75 Q35.95 0.65 36.05 1.85 L35.45 2.05 35.25 0.7 35.9 -2.65 36.05 -2.65 M42.7 6.55 L42.65 7.1 42.55 7.25 Q41.85 7.0 41.85 3.9 41.85 1.8 42.0 0.65 L42.25 0.65 42.7 6.55 M39.65 1.15 L40.05 6.25 39.9 6.55 Q39.3 6.1 39.3 4.2 L39.5 1.15 39.65 1.15" fill="#bb8d38" fill-rule="evenodd" stroke="none"/>
    <path d="M35.25 -7.25 L34.8 -4.35 34.5 -4.35 34.4 -5.1 35.0 -7.8 35.25 -7.25 M34.2 -0.05 L34.2 2.2 Q34.2 3.6 34.5 4.5 L34.35 4.8 Q33.6 4.45 33.6 2.7 L33.85 1.5 34.05 -0.05 34.2 -0.05 M37.85 -3.35 L37.95 -0.15 37.8 0.0 Q37.2 -0.85 37.1 -2.5 L36.95 -5.4 Q37.75 -5.3 37.85 -3.35 M42.9 -0.1 Q42.9 2.55 42.05 5.25 L41.6 5.25 41.6 4.4 42.05 1.7 Q42.35 -0.1 42.8 -0.6 L42.9 -0.1 M41.15 -3.6 Q41.1 -3.45 40.95 -3.45 40.65 -4.0 40.65 -5.1 40.65 -5.9 40.8 -6.3 41.25 -6.05 41.25 -5.1 L41.15 -3.6 M40.25 1.7 L40.2 1.85 Q39.9 1.5 39.9 0.65 L40.1 -0.5 40.35 0.65 40.25 1.7 M29.55 5.55 L29.45 6.65 29.3 6.9 28.85 6.9 28.7 4.05 29.1 0.45 29.25 0.45 29.55 5.55" fill="#ffe6a8" fill-rule="evenodd" stroke="none"/>
  </g>
</svg>