<?xml version="1.0" encoding="UTF-8" standalone="no"?>
<svg xmlns:xlink="http://www.w3.org/1999/xlink" height="41.7px" width="19.3px" xmlns="http://www.w3.org/2000/svg">
  <g transform="matrix(1.0, 0.0, 0.0, 1.0, -28.55, 28.55)">
    <path d="M36.7 -27.55 L37.3 -25.0 37.15 -24.6 37.15 -24.55 Q36.25 -25.95 36.25 -26.7 L36.3 -27.05 36.7 -27.55 M33.6 -19.75 L33.85 -17.9 33.8 -17.4 33.7 -17.25 Q33.1 -17.7 33.1 -19.95 L33.1 -21.45 33.25 -21.45 33.6 -19.75 M30.0 -5.55 Q29.85 -6.0 29.85 -6.6 L29.9 -8.0 Q30.1 -9.4 30.7 -9.6 30.85 -9.85 30.85 -9.35 30.85 -7.55 30.35 -5.55 L30.0 -5.55 M35.65 -5.2 L35.1 -4.0 34.9 -3.95 34.7 -7.85 Q34.7 -8.65 35.05 -8.95 L35.65 -5.2 M41.35 -8.3 L41.3 -7.05 41.0 -6.9 Q40.45 -7.5 40.45 -9.75 40.45 -10.5 40.9 -10.8 L41.35 -8.3 M42.9 4.25 Q43.3 6.4 43.3 8.2 L43.25 8.75 42.85 8.95 Q42.45 7.5 42.45 6.25 42.45 5.25 42.6 4.25 L42.9 4.25 M46.85 10.5 L46.7 12.15 46.45 12.15 46.35 10.5 46.45 8.7 46.65 8.7 46.85 10.5" fill="#bb8d38" fill-rule="evenodd" stroke="none"/>
    <path d="M37.5 -7.8 L37.8 -7.8 37.95 -6.35 37.7 -4.7 37.55 -4.7 37.4 -6.4 37.5 -7.8 M31.9 -10.1 L31.95 -9.8 Q31.95 -8.8 31.35 -7.2 31.05 -7.25 31.05 -7.8 L31.25 -9.05 Q31.5 -10.0 31.8 -10.2 L31.9 -10.1 M34.35 -2.45 L34.65 1.05 34.5 1.35 34.05 1.35 33.95 -0.2 33.9 -1.35 Q33.9 -2.3 34.35 -2.45 M40.95 -6.95 L40.95 -5.55 40.85 -5.4 Q40.5 -5.55 40.5 -6.95 40.5 -8.4 40.8 -8.7 L40.95 -6.95 M40.95 -0.3 L41.25 2.4 41.25 3.15 40.8 3.3 Q40.4 2.3 40.4 1.3 L40.65 0.55 40.85 -0.3 40.95 -0.3 M42.6 4.7 L42.2 7.5 41.9 7.5 41.85 6.3 42.15 3.8 42.35 3.8 42.6 4.7 M36.95 5.75 L36.8 6.8 36.75 8.1 36.6 8.4 36.15 8.4 36.05 7.5 Q36.05 6.1 36.75 5.25 L36.95 5.75 M34.05 7.9 L33.9 8.85 33.6 9.9 33.3 9.9 Q33.15 10.0 33.15 9.65 L33.6 7.4 33.9 7.4 34.05 7.9 M30.35 3.1 L30.5 5.35 30.35 6.15 30.0 6.15 29.55 0.75 30.15 0.75 30.35 3.1" fill="#ffe6a8" fill-rule="evenodd" stroke="none"/>
  </g>
</svg>