<?xml version="1.0" encoding="UTF-8" standalone="no"?>
<svg xmlns:xlink="http://www.w3.org/1999/xlink" height="24.85px" width="52.3px" xmlns="http://www.w3.org/2000/svg">
  <g transform="matrix(1.0, 0.0, 0.0, 1.0, 5.75, 1)">
    <path d="M30.65 8.2 L29.65 8.95 31.5 9.6 33.3 10.35 34.75 10.8 38.4 11.25 41.8 11.4 37.7 12.25 33.25 12.85 Q34.15 12.95 35.85 15.2 L38.45 18.4 Q39.95 19.5 45.4 20.2 L45.55 20.2 43.3 20.6 40.1 21.0 36.65 20.5 38.7 22.85 33.2 20.2 34.1 21.1 Q25.3 18.9 22.5 18.9 L17.9 19.25 10.8 19.55 Q3.55 19.55 -0.1 17.95 -2.55 16.85 -3.8 15.35 -4.9 14.1 -4.75 13.05 -4.2 8.7 8.3 0.0 8.4 1.8 6.65 5.05 L14.75 2.55 11.1 6.25 12.4 6.35 9.65 6.6 9.6 6.8 9.65 7.05 14.25 6.5 17.9 6.35 16.5 7.3 Q12.6 10.05 10.25 9.85 L10.45 10.1 11.3 10.15 Q12.3 10.15 13.55 9.65 L13.05 10.05 13.15 10.15 Q14.4 9.55 17.3 7.95 L16.45 9.1 17.2 8.7 Q22.65 5.95 23.15 5.35 L21.4 9.05 Q34.8 3.85 35.15 3.4 L32.5 6.4 31.45 7.45 29.8 8.05 Q26.55 9.3 25.6 10.1 L25.75 10.2 30.0 8.45 30.65 8.2 M17.95 7.05 L17.4 7.3 18.2 6.7 17.95 7.05 M23.15 9.85 L23.3 9.9 23.75 9.9 Q24.35 9.6 28.95 7.65 32.15 6.3 33.25 5.15 L28.45 7.35 Q24.8 8.95 23.15 9.85" fill="url(#gradient0)" fill-rule="evenodd" stroke="none"/>
    <path d="M30.65 8.2 L30.0 8.45 25.75 10.2 25.6 10.1 Q26.55 9.3 29.8 8.05 L31.45 7.45 34.45 6.35 Q33.6 7.05 30.65 8.2 M17.3 7.95 Q14.4 9.55 13.15 10.15 L13.05 10.05 13.55 9.65 Q12.3 10.15 11.3 10.15 L10.45 10.1 10.25 9.85 Q12.6 10.05 16.5 7.3 L17.9 6.35 20.6 4.5 18.2 6.7 17.4 7.3 17.95 7.05 Q19.25 6.45 20.25 6.25 L17.3 7.95 M14.25 6.5 L9.65 7.05 9.6 6.8 9.65 6.6 12.4 6.35 15.65 5.9 19.95 4.45 Q17.3 5.9 15.75 6.25 L14.25 6.5 M23.15 9.85 Q24.8 8.95 28.45 7.35 L33.25 5.15 Q32.15 6.3 28.95 7.65 24.35 9.6 23.75 9.9 L23.3 9.9 23.15 9.85" fill="#ffe6a8" fill-rule="evenodd" stroke="none"/>
  </g>
  <defs>
    <linearGradient gradientTransform="matrix(-0.0032, 0.008, -0.0281, -0.0112, 21.6, 13.6)" gradientUnits="userSpaceOnUse" id="gradient0" spreadMethod="pad" x1="-819.2" x2="819.2">
      <stop offset="0.0" stop-color="#f5ca60"></stop>
      <stop offset="1.0" stop-color="#bd742e"></stop>
    </linearGradient>
  </defs>
</svg>