<?xml version="1.0" encoding="UTF-8" standalone="no"?>
<svg xmlns:xlink="http://www.w3.org/1999/xlink" height="35px" width="16.9px" xmlns="http://www.w3.org/2000/svg">
  <g transform="matrix(1.0, 0.0, 0.0, 1.0, -27.05, 20.55)">
    <path d="M37.9 -18.8 L38.05 -18.05 37.75 -17.7 Q37.3 -18.15 37.3 -18.55 37.3 -19.45 37.65 -19.55 L37.9 -18.8 M32.9 -15.2 Q32.9 -13.7 32.5 -12.65 L32.25 -12.65 32.2 -12.85 32.5 -17.45 32.65 -17.45 32.9 -15.2 M29.7 -0.05 L29.9 0.6 Q29.9 2.9 29.35 5.35 L29.0 5.35 Q28.85 4.7 28.85 3.75 L29.35 -0.05 29.7 -0.05 M30.3 -5.6 Q30.45 -6.5 31.05 -7.25 L31.3 -6.4 30.8 -4.3 Q30.45 -3.1 31.1 -2.3 L31.05 -2.0 Q31.0 -1.85 30.65 -1.8 30.25 -2.65 30.25 -3.95 L30.3 -5.6 M39.55 -10.0 L39.3 -7.85 39.15 -7.7 38.7 -7.75 38.65 -8.8 Q38.65 -10.75 39.3 -11.15 L39.55 -10.0 M35.9 -8.4 L36.15 -5.45 36.05 -3.45 35.8 -3.2 Q35.45 -4.0 35.45 -5.45 L35.45 -7.1 Q35.5 -8.25 35.9 -8.4 M34.9 -3.55 L35.2 0.0 34.95 4.25 34.45 4.45 Q34.2 3.7 34.2 2.55 L34.6 -3.55 34.9 -3.55 M41.05 10.75 L41.05 13.3 40.95 13.45 40.6 13.4 40.55 11.95 Q40.55 10.45 40.7 8.95 L40.85 8.95 41.05 10.75 M41.9 6.55 L41.65 6.55 40.9 0.45 Q40.9 -0.25 41.25 -0.35 41.65 0.95 42.1 5.65 L41.9 6.55 M34.95 11.75 L34.6 11.75 34.3 9.2 34.4 7.85 34.7 7.85 35.1 10.4 34.95 11.75" fill="#bb8d38" fill-rule="evenodd" stroke="none"/>
    <path d="M28.8 -2.6 L28.65 -2.45 Q28.05 -2.9 28.05 -3.35 28.05 -3.85 28.4 -4.05 L28.8 -2.6 M36.45 -9.45 L36.3 -9.2 35.7 -9.3 35.7 -9.9 35.75 -10.1 36.05 -10.1 36.45 -9.45 M39.05 -7.2 L39.3 -7.2 39.45 -6.6 39.3 -5.6 39.3 -5.55 Q39.0 -5.9 39.0 -6.6 L39.05 -7.2 M32.75 -2.25 L33.0 -0.9 32.85 0.15 Q32.45 0.0 32.45 -0.85 L32.7 -2.25 32.75 -2.25 M42.95 -7.1 L42.9 -6.3 42.6 -6.3 42.6 -7.4 42.9 -7.4 42.95 -7.1 M42.05 6.95 L42.35 10.4 42.2 10.65 41.85 10.65 41.7 8.15 Q41.7 7.0 42.15 6.6 L42.05 6.95 M38.0 3.55 L37.85 0.8 Q38.85 0.7 38.85 1.5 L38.7 3.35 38.45 6.05 38.25 6.05 Q38.05 5.15 38.0 3.55 M34.35 4.05 L34.55 7.2 34.5 9.75 34.4 9.8 33.9 9.75 33.9 8.75 33.75 6.15 Q33.75 4.6 34.35 4.05 M29.85 7.25 L29.75 7.4 29.4 7.4 29.3 5.95 Q29.3 4.65 29.6 4.5 L29.85 7.25" fill="#ffe6a8" fill-rule="evenodd" stroke="none"/>
  </g>
</svg>