<?xml version="1.0" encoding="UTF-8" standalone="no"?>
<svg xmlns:xlink="http://www.w3.org/1999/xlink" height="40.7px" width="14.3px" xmlns="http://www.w3.org/2000/svg">
  <g transform="matrix(1.0, 0.0, 0.0, 1.0, -28.25, 30.7)">
    <path d="M34.8 -29.1 L34.75 -29.4 34.95 -29.7 35.45 -29.65 35.45 -29.5 Q35.15 -29.2 34.85 -29.2 L34.8 -29.1 M35.7 -20.75 Q34.45 -21.2 34.45 -23.15 L34.5 -24.05 Q34.6 -24.6 35.05 -24.65 L35.4 -22.9 Q35.45 -21.7 35.9 -21.05 L35.7 -20.75 M32.75 -15.0 L32.5 -13.2 32.15 -13.2 32.05 -15.0 Q32.05 -16.25 32.45 -16.65 L32.75 -15.0 M37.1 -12.95 L37.35 -12.2 37.15 -9.65 37.0 -9.5 36.45 -9.55 36.45 -11.8 36.85 -12.95 37.1 -12.95 M31.55 -8.55 L31.15 -6.75 30.7 -6.75 30.65 -7.8 30.7 -8.7 Q30.8 -9.25 31.25 -9.3 L31.55 -8.55 M34.7 -3.4 L35.1 -0.7 34.95 0.8 34.6 0.8 34.3 -2.35 34.3 -2.85 34.7 -3.4 M40.05 -0.05 L40.3 2.8 40.15 4.6 39.8 4.6 39.7 2.8 39.9 -0.05 40.05 -0.05 M41.1 -2.8 L40.85 -2.8 40.55 -7.45 Q41.5 -8.25 41.35 -5.85 L41.1 -2.8 M34.5 5.3 L34.35 8.9 34.3 9.0 Q33.85 8.9 33.75 8.35 L33.7 7.45 33.75 6.1 34.45 4.55 34.5 5.3 M29.75 3.6 Q29.35 3.15 29.3 2.35 L29.25 1.0 Q29.25 -2.55 30.05 -3.25 L29.85 3.35 29.75 3.6" fill="#bb8d38" fill-rule="evenodd" stroke="none"/>
    <path d="M34.2 -29.1 L34.5 -27.95 34.35 -27.15 34.2 -27.15 Q33.9 -28.05 33.9 -28.5 33.9 -29.1 34.2 -29.1 M39.3 -22.25 Q39.0 -22.95 39.0 -23.9 39.0 -25.05 39.3 -25.35 L39.45 -23.9 39.3 -22.35 39.3 -22.25 M29.7 -0.15 L29.6 -1.95 29.6 -2.75 Q29.6 -3.6 29.9 -3.8 L30.15 -1.95 30.15 -0.3 29.7 -0.15 M33.45 -10.4 L33.65 -9.2 33.6 -7.85 33.5 -7.8 Q33.15 -8.15 33.15 -9.15 33.15 -10.3 33.45 -10.4 M41.35 -9.15 L41.55 -7.8 41.4 -7.25 41.4 -7.2 Q40.75 -7.6 40.8 -8.7 L40.8 -10.25 40.95 -10.5 41.35 -9.15 M36.65 3.0 Q36.0 2.65 36.0 1.7 L36.0 0.2 36.2 0.15 36.85 1.35 37.05 2.85 36.65 3.0 M34.35 0.45 L34.5 4.05 34.4 5.0 34.2 5.1 Q33.9 3.6 33.9 2.7 33.9 0.75 34.35 0.45" fill="#ffe6a8" fill-rule="evenodd" stroke="none"/>
  </g>
</svg>