<?xml version="1.0" encoding="UTF-8" standalone="no"?>
<svg xmlns:xlink="http://www.w3.org/1999/xlink" height="13.4px" width="13.4px" xmlns="http://www.w3.org/2000/svg">
  <g transform="matrix(1.0, 0.0, 0.0, 1.0, 1, 3.2)">
    <path d="M11.05 4.05 L10.4 5.55 10.4 5.6 10.4 5.55 10.4 5.6 9.55 5.95 9.35 5.9 9.5 5.05 Q9.5 4.0 9.1 4.0 8.65 4.0 8.55 4.3 L7.7 5.15 7.15 5.4 Q6.05 6.0 4.4 6.0 2.8 6.0 1.9 5.4 L1.5 5.15 1.0 4.6 Q0.8 4.0 0.25 4.0 L0.05 4.05 0.1 3.7 0.1 3.6 0.2 3.1 Q0.6 2.5 1.9 1.95 3.6 1.2 5.05 1.2 7.65 1.2 9.55 2.65 L11.05 4.05 M6.55 4.95 Q7.15 4.95 7.7 3.35 7.5 3.35 6.95 3.85 L6.15 4.55 6.1 4.8 6.55 4.95" fill="#83694f" fill-rule="evenodd" stroke="none"/>
    <path d="M10.4 5.6 L9.3 7.45 Q8.25 9.1 5.95 9.2 L2.6 8.85 Q1.5 8.45 0.8 7.8 0.1 7.1 0.05 6.1 L0.0 4.8 0.05 4.05 0.25 4.0 Q0.8 4.0 1.0 4.6 L1.5 5.15 1.9 5.4 Q2.8 6.0 4.4 6.0 6.05 6.0 7.15 5.4 L7.7 5.15 8.55 4.3 Q8.65 4.0 9.1 4.0 9.5 4.0 9.5 5.05 L9.35 5.9 9.55 5.95 10.4 5.6 M6.35 6.65 L7.7 5.15 6.35 6.65 M1.5 5.15 L2.75 6.5 1.5 5.15" fill="url(#gradient0)" fill-rule="evenodd" stroke="none"/>
    <path d="M0.2 3.1 L0.25 2.8 Q0.4 2.1 1.5 0.4 L3.0 -1.55 Q4.2 -2.2 6.2 -2.2 7.35 -2.2 8.75 -1.25 L10.85 0.75 11.4 2.1 11.05 4.05 9.55 2.65 Q7.65 1.2 5.05 1.2 3.6 1.2 1.9 1.95 0.6 2.5 0.2 3.1" fill="#775f45" fill-rule="evenodd" stroke="none"/>
    <path d="M6.55 4.95 L6.1 4.8 6.15 4.55 6.95 3.85 Q7.5 3.35 7.7 3.35 7.15 4.95 6.55 4.95" fill="#c9a581" fill-rule="evenodd" stroke="none"/>
    <path d="M11.05 4.05 L10.4 5.55 10.4 5.6 9.3 7.45 Q8.25 9.1 5.95 9.2 L2.6 8.85 Q1.5 8.45 0.8 7.8 0.1 7.1 0.05 6.1 L0.0 4.8 0.05 4.05 0.1 3.7 0.1 3.6 0.2 3.1 M1.5 5.15 L1.0 4.6 M2.75 6.5 L1.5 5.15 M7.7 5.15 L6.35 6.65" fill="none" stroke="#3c2a18" stroke-linecap="round" stroke-linejoin="round" stroke-width="1"/>
  </g>
  <defs>
    <linearGradient gradientTransform="matrix(0.0, -0.0027, 0.0064, 0.0, 5.25, 6.2)" gradientUnits="userSpaceOnUse" id="gradient0" spreadMethod="pad" x1="-819.2" x2="819.2">
      <stop offset="0.0" stop-color="#644d35"></stop>
      <stop offset="1.0" stop-color="#83694f"></stop>
    </linearGradient>
  </defs>
</svg>