<?xml version="1.0" encoding="UTF-8" standalone="no"?>
<svg xmlns:xlink="http://www.w3.org/1999/xlink" height="22.8px" width="31.9px" xmlns="http://www.w3.org/2000/svg">
  <g transform="matrix(1.0, 0.0, 0.0, 1.0, 1, 1.35)">
    <path d="M8.55 0.5 Q9.05 0.0 9.85 -0.2 L11.65 -0.35 11.1 0.05 10.0 0.55 8.95 0.95 8.85 0.95 Q6.9 1.6 8.15 1.0 L8.55 0.5 M21.65 19.75 L21.0 20.2 Q20.85 20.15 21.1 19.8 L21.4 19.25 19.65 19.75 19.85 19.55 18.85 19.75 18.55 19.7 17.95 19.85 17.35 20.45 Q17.3 20.2 17.6 19.65 L16.85 19.9 Q16.25 20.15 16.25 19.55 16.25 19.0 15.8 18.95 L15.3 18.75 14.2 19.9 Q13.6 19.9 13.3 19.6 L13.0 19.35 12.95 19.25 Q12.8 19.25 12.95 19.6 12.6 19.6 12.0 18.8 L11.95 20.2 Q11.75 19.1 11.0 18.95 9.05 18.65 6.8 17.35 L7.05 18.5 4.85 16.75 5.4 17.25 7.05 18.55 7.05 18.6 7.65 18.95 7.0 18.7 Q6.65 19.15 5.05 18.0 L4.85 17.85 2.8 17.05 1.9 15.3 1.05 13.4 1.05 13.35 1.15 11.85 1.55 13.9 1.75 13.05 3.25 14.25 3.05 13.8 2.7 12.85 Q2.4 11.6 3.2 13.35 L3.8 14.75 4.65 15.7 Q5.3 15.7 5.2 15.35 L5.75 16.15 6.4 17.2 6.65 17.5 6.0 16.25 5.75 15.6 4.85 13.65 4.6 13.5 4.85 13.65 4.6 13.25 Q4.15 12.4 5.3 13.9 L6.6 14.95 7.65 15.95 Q6.35 14.65 5.4 13.35 L5.55 12.85 5.65 12.75 Q5.85 13.7 7.2 15.2 L8.2 16.3 8.45 16.45 8.25 15.3 6.85 14.2 8.4 15.1 8.45 15.05 8.7 15.25 9.8 15.9 9.8 15.5 9.95 16.0 10.35 16.25 10.15 15.05 10.8 16.35 11.6 16.5 10.9 14.4 Q12.15 16.7 12.5 16.85 L12.45 15.85 Q12.95 16.15 13.45 17.2 L13.5 16.5 12.55 15.9 Q10.8 14.75 10.6 13.65 L10.6 13.15 11.55 14.05 Q12.45 15.05 13.0 15.25 L11.7 13.65 16.0 16.6 16.0 16.55 16.05 16.6 16.45 16.9 16.5 16.35 16.7 17.05 16.9 17.25 17.15 16.55 17.25 17.45 Q17.65 17.4 17.8 16.6 18.0 17.5 18.35 17.5 18.7 17.5 18.8 16.4 L18.95 16.9 19.0 17.25 19.6 16.8 19.6 17.2 Q19.6 17.8 19.75 17.65 L19.75 17.75 21.35 16.75 17.05 14.85 Q14.45 13.6 13.65 12.8 L14.05 12.35 Q14.7 13.15 16.6 14.3 L16.95 13.8 18.5 14.2 21.3 14.85 21.3 14.95 21.2 14.95 19.9 14.8 19.9 15.55 18.55 15.15 21.4 16.5 21.4 16.8 21.35 16.75 21.1 17.15 Q21.5 17.0 21.2 17.4 L21.45 17.25 21.65 19.75 M0.85 13.1 L0.85 13.15 1.45 15.7 0.3 12.5 0.35 12.2 0.55 9.95 0.85 13.1 M20.55 4.25 L20.55 4.6 17.55 3.5 15.4 2.75 17.15 3.05 17.0 2.8 15.35 2.5 13.85 2.25 16.05 1.9 15.75 1.7 15.7 1.7 15.6 1.65 12.55 1.65 12.15 1.4 11.85 1.4 11.85 1.3 12.55 1.45 15.3 1.45 15.5 1.5 15.1 1.25 Q16.55 1.55 18.0 2.35 19.4 3.15 19.4 3.65 L20.55 4.25 M20.75 7.5 Q17.75 6.7 17.15 6.3 L17.55 6.4 Q19.2 7.15 20.15 7.2 L20.2 7.05 18.5 6.65 Q18.7 6.4 19.35 6.45 L18.5 5.55 20.4 6.0 20.65 6.15 20.75 7.5 M20.8 8.1 L20.8 8.2 20.85 8.4 20.4 8.25 19.0 7.45 19.25 7.55 20.8 8.1 M20.85 8.5 L20.9 9.15 20.0 9.0 20.15 9.05 19.55 8.9 Q19.9 9.15 19.2 9.15 L20.95 10.15 21.0 10.9 20.3 10.65 18.2 10.05 19.35 10.55 17.95 10.1 18.0 9.75 19.2 9.65 18.9 9.2 18.85 8.75 19.35 8.85 18.35 8.45 17.2 8.0 17.25 7.95 17.9 7.9 19.1 8.1 20.85 8.5 M21.2 13.55 L21.3 14.8 Q17.6 14.0 17.6 12.85 17.6 12.25 17.0 12.1 L14.2 11.15 14.5 10.65 15.3 11.45 Q15.0 11.05 15.35 10.5 L17.15 11.8 Q16.4 10.85 16.8 10.75 17.55 11.75 19.25 12.6 L21.2 13.35 21.2 13.4 20.55 13.3 21.2 13.55 M21.1 11.95 L21.1 12.3 16.7 10.55 21.1 11.95 M15.3 0.8 L15.9 0.95 15.9 1.05 15.65 1.05 10.65 1.1 10.55 1.0 10.55 0.9 10.4 0.95 10.1 0.95 10.05 0.8 11.8 0.4 14.5 0.2 14.5 0.3 12.05 0.55 10.7 0.85 14.5 0.75 15.3 0.8 M15.4 4.3 L15.75 3.95 Q18.45 4.1 19.6 5.15 L19.25 5.0 19.6 5.15 19.9 5.5 19.95 5.6 18.1 5.15 15.4 4.3 M18.9 9.8 L18.4 9.8 20.15 10.3 19.65 10.0 18.9 9.8 M2.25 11.3 L2.35 11.3 2.8 13.35 2.45 12.8 2.25 11.3 M10.05 16.5 L10.15 16.45 10.05 16.4 10.05 16.5 M9.8 16.25 L9.7 16.2 9.3 15.95 9.65 16.6 9.8 16.25 M2.0 16.75 L1.75 16.45 1.6 16.05 2.0 16.75 M16.45 17.35 L16.25 17.3 16.4 17.65 16.45 17.35 M17.45 15.4 L17.5 15.35 Q18.55 15.8 19.3 16.55 L16.75 15.45 17.05 15.1 17.05 15.05 17.1 14.95 17.1 15.05 17.1 15.15 Q17.15 15.65 17.45 15.4 M19.05 13.6 Q18.95 13.45 18.4 13.2 L17.9 12.95 19.05 13.6 M16.0 17.15 L15.6 16.95 15.95 17.45 16.0 17.15 M16.8 17.55 L16.85 17.45 16.8 17.45 16.8 17.55 M12.85 13.2 L13.65 13.7 13.5 13.3 Q13.45 13.0 13.65 13.0 L14.3 14.15 12.85 13.2 M14.2 16.1 L14.6 17.0 14.8 17.1 14.8 17.05 Q15.1 16.95 15.1 17.35 L15.25 17.45 15.0 16.6 14.2 16.1 M14.1 16.05 L13.5 15.65 11.05 14.0 13.55 16.1 13.55 15.7 13.65 16.2 14.0 16.5 14.1 16.05 M13.95 16.75 L13.8 16.65 13.9 17.05 13.95 16.75" fill="#51402e" fill-rule="evenodd" stroke="none"/>
    <path d="M8.55 0.5 L8.15 1.0 Q6.9 1.6 8.85 0.95 L8.95 0.95 20.45 4.9 20.6 4.95 20.65 6.15 20.4 6.0 18.5 5.55 19.35 6.45 Q18.7 6.4 18.5 6.65 L20.2 7.05 20.15 7.2 Q19.2 7.15 17.55 6.4 L17.15 6.3 Q17.75 6.7 20.75 7.5 L20.8 8.1 19.25 7.55 19.0 7.45 20.4 8.25 20.85 8.4 20.85 8.5 19.1 8.1 17.9 7.9 17.25 7.95 17.2 8.0 18.35 8.45 Q16.5 8.75 13.45 10.0 9.5 11.65 6.35 11.65 1.25 11.65 0.1 8.65 L0.3 7.7 Q0.55 7.0 0.9 6.55 L1.35 6.55 1.6 7.7 Q1.85 8.2 2.2 8.2 L2.8 7.7 3.05 6.55 3.55 6.55 3.05 6.3 2.8 5.35 2.5 5.0 2.55 4.75 2.1 4.6 3.55 3.35 5.7 1.75 Q6.75 1.15 7.95 0.7 L8.55 0.5 M10.0 0.55 L11.1 0.05 13.5 0.15 10.0 0.55 M15.15 0.6 Q15.8 0.8 16.45 1.15 L17.55 1.8 Q16.25 1.4 15.65 1.05 L15.9 1.05 15.9 0.95 15.3 0.8 15.15 0.6 M15.4 4.3 L18.1 5.15 19.95 5.6 19.9 5.5 19.6 5.15 19.25 5.0 19.6 5.15 Q18.45 4.1 15.75 3.95 L15.4 4.3 M10.9 5.0 L10.65 5.2 Q9.55 6.1 8.8 6.4 L10.25 6.4 10.25 6.6 Q10.25 7.3 10.5 7.75 L11.1 8.25 Q11.45 8.25 11.7 7.75 L11.95 6.6 11.95 6.4 13.4 6.4 13.5 5.75 Q13.5 4.7 12.3 4.45 L11.55 4.4 10.9 5.0" fill="url(#gradient0)" fill-rule="evenodd" stroke="none"/>
    <path d="M28.6 11.7 L28.6 12.4 Q28.6 16.15 25.4 18.25 23.6 19.4 21.65 19.75 L21.45 17.25 21.2 17.4 Q21.5 17.0 21.1 17.15 L21.35 16.75 21.4 16.8 21.4 16.5 18.55 15.15 19.9 15.55 19.9 14.8 21.2 14.95 21.3 14.95 21.3 14.85 18.5 14.2 16.95 13.8 16.6 14.3 Q14.7 13.15 14.05 12.35 L13.65 12.8 Q14.45 13.6 17.05 14.85 L21.35 16.75 19.75 17.75 19.75 17.65 Q19.6 17.8 19.6 17.2 L19.6 16.8 19.0 17.25 18.95 16.9 18.8 16.4 Q18.7 17.5 18.35 17.5 18.0 17.5 17.8 16.6 17.65 17.4 17.25 17.45 L17.15 16.55 16.9 17.25 16.7 17.05 16.5 16.35 16.45 16.9 16.05 16.6 16.0 16.55 16.0 16.6 11.7 13.65 13.0 15.25 Q12.45 15.05 11.55 14.05 L10.6 13.15 10.6 13.65 Q10.8 14.75 12.55 15.9 L13.5 16.5 13.45 17.2 Q12.95 16.15 12.45 15.85 L12.5 16.85 Q12.15 16.7 10.9 14.4 L11.6 16.5 10.8 16.35 10.15 15.05 10.35 16.25 9.95 16.0 9.8 15.5 9.8 15.9 8.7 15.25 8.45 15.05 8.4 15.1 6.85 14.2 8.25 15.3 8.45 16.45 8.2 16.3 7.2 15.2 Q5.85 13.7 5.65 12.75 L5.55 12.85 5.4 13.35 Q6.35 14.65 7.65 15.95 L6.6 14.95 5.3 13.9 Q4.15 12.4 4.6 13.25 L4.85 13.65 4.6 13.5 4.85 13.65 5.75 15.6 6.0 16.25 5.75 16.15 5.2 15.35 Q5.3 15.7 4.65 15.7 L3.8 14.75 3.2 13.35 Q2.4 11.6 2.7 12.85 L3.05 13.8 3.25 14.25 1.75 13.05 1.55 13.9 1.15 11.85 1.05 13.35 0.85 13.1 0.55 9.95 0.35 12.2 0.0 10.6 0.1 8.8 0.1 8.65 Q1.25 11.65 6.35 11.65 9.5 11.65 13.45 10.0 16.5 8.75 18.35 8.45 L19.35 8.85 18.85 8.75 18.9 9.2 19.2 9.65 18.0 9.75 17.95 10.1 19.35 10.55 18.2 10.05 20.3 10.65 21.0 10.9 20.95 10.15 19.2 9.15 Q19.9 9.15 19.55 8.9 L20.15 9.05 20.0 9.0 20.9 9.15 20.85 8.5 20.85 8.4 20.8 8.2 20.95 8.2 Q23.45 8.2 25.9 9.6 27.55 10.55 28.6 11.7 M21.1 11.95 L16.7 10.55 21.1 12.3 21.1 11.95 M21.2 13.55 L20.55 13.3 21.2 13.4 21.2 13.35 19.25 12.6 Q17.55 11.75 16.8 10.75 16.4 10.85 17.15 11.8 L15.35 10.5 Q15.0 11.05 15.3 11.45 L14.5 10.65 14.2 11.15 17.0 12.1 Q17.6 12.25 17.6 12.85 17.6 14.0 21.3 14.8 L21.2 13.55 M18.9 9.8 L19.65 10.0 20.15 10.3 18.4 9.8 18.9 9.8 M2.25 11.3 L2.45 12.8 2.8 13.35 2.35 11.3 2.25 11.3 M9.8 16.25 L9.65 16.6 9.3 15.95 9.7 16.2 9.8 16.25 M10.05 16.5 L10.05 16.4 10.15 16.45 10.05 16.5 M19.05 13.6 L17.9 12.95 18.4 13.2 Q18.95 13.45 19.05 13.6 M17.45 15.4 Q17.15 15.65 17.1 15.15 L17.1 15.05 17.1 14.95 17.05 15.05 17.05 15.1 16.75 15.45 19.3 16.55 Q18.55 15.8 17.5 15.35 L17.45 15.4 M16.45 17.35 L16.4 17.65 16.25 17.3 16.45 17.35 M16.8 17.55 L16.8 17.45 16.85 17.45 16.8 17.55 M16.0 17.15 L15.95 17.45 15.6 16.95 16.0 17.15 M12.85 13.2 L14.3 14.15 13.65 13.0 Q13.45 13.0 13.5 13.3 L13.65 13.7 12.85 13.2 M14.1 16.05 L14.0 16.5 13.65 16.2 13.55 15.7 13.55 16.1 11.05 14.0 13.5 15.65 14.1 16.05 M14.2 16.1 L15.0 16.6 15.25 17.45 15.1 17.35 Q15.1 16.95 14.8 17.05 L14.8 17.1 14.6 17.0 14.2 16.1 M13.95 16.75 L13.9 17.05 13.8 16.65 13.95 16.75" fill="url(#gradient1)" fill-rule="evenodd" stroke="none"/>
    <path d="M10.9 5.0 L11.55 4.4 12.3 4.45 Q13.5 4.7 13.5 5.75 L13.4 6.4 11.95 6.4 11.7 5.4 11.1 4.95 10.9 5.0 M10.25 6.4 L8.8 6.4 Q9.55 6.1 10.65 5.2 L10.5 5.4 Q10.3 5.85 10.25 6.4" fill="url(#gradient2)" fill-rule="evenodd" stroke="none"/>
    <path d="M0.9 6.55 Q1.15 5.65 2.1 4.6 L2.55 4.75 2.5 5.0 2.2 4.9 2.0 4.95 Q1.85 5.0 1.75 5.15 L1.6 5.35 Q1.4 5.8 1.35 6.35 L1.35 6.55 0.9 6.55 M3.05 6.3 L3.55 6.55 3.05 6.55 3.05 6.35 3.05 6.3" fill="url(#gradient3)" fill-rule="evenodd" stroke="none"/>
    <path d="M8.95 0.95 L10.0 0.55 13.5 0.15 14.9 0.1 15.25 0.1 15.1 0.5 15.15 0.6 15.3 0.8 14.5 0.75 10.7 0.85 12.05 0.55 14.5 0.3 14.5 0.2 11.8 0.4 10.05 0.8 10.1 0.95 10.4 0.95 10.55 0.9 10.55 1.0 10.65 1.1 15.65 1.05 Q16.25 1.4 17.55 1.8 L18.6 2.05 20.4 2.5 Q23.3 3.1 25.7 5.6 28.3 8.3 28.6 11.7 27.55 10.55 25.9 9.6 23.45 8.2 20.95 8.2 L20.8 8.2 20.8 8.1 20.75 7.5 20.65 6.15 20.6 4.95 20.45 4.9 8.95 0.95 M20.55 4.25 L19.4 3.65 Q19.4 3.15 18.0 2.35 16.55 1.55 15.1 1.25 L15.5 1.5 15.3 1.45 12.55 1.45 11.85 1.3 11.85 1.4 12.15 1.4 12.55 1.65 15.6 1.65 15.7 1.7 15.75 1.7 16.05 1.9 13.85 2.25 15.35 2.5 17.0 2.8 17.15 3.05 15.4 2.75 17.55 3.5 20.55 4.6 20.55 4.25" fill="#83684b" fill-rule="evenodd" stroke="none"/>
    <path d="M10.65 5.2 L10.9 5.0 11.1 4.95 11.7 5.4 11.95 6.4 11.95 6.6 11.7 7.75 Q11.45 8.25 11.1 8.25 L10.5 7.75 Q10.25 7.3 10.25 6.6 L10.25 6.4 Q10.3 5.85 10.5 5.4 L10.65 5.2 M2.5 5.0 L2.8 5.35 3.05 6.3 3.05 6.35 3.05 6.55 2.8 7.7 2.2 8.2 Q1.85 8.2 1.6 7.7 L1.35 6.55 1.35 6.35 Q1.4 5.8 1.6 5.35 L1.75 5.15 Q1.85 5.0 2.0 4.95 L2.2 4.9 2.5 5.0" fill="#ffffff" fill-rule="evenodd" stroke="none"/>
    <path d="M11.1 0.05 L13.5 0.15 M15.15 0.6 Q15.8 0.8 16.45 1.15 L17.55 1.8 M2.1 4.6 L3.55 3.35 5.7 1.75 Q6.75 1.15 7.95 0.7 L8.55 0.5" fill="none" stroke="#3c2a18" stroke-linecap="round" stroke-linejoin="round" stroke-width="1"/>
    <path d="M15.35 13.45 L15.45 13.15 Q17.45 14.55 18.75 15.25 L15.35 13.45 M16.3 2.3 L16.55 2.0 19.7 2.5 16.3 2.3 M21.35 17.7 L21.9 17.85 23.95 17.65 21.35 17.7 M27.25 17.2 L27.1 17.3 23.9 18.1 24.85 18.15 25.2 18.3 24.95 18.5 23.95 18.6 Q22.0 18.6 19.45 17.85 16.35 16.9 15.3 15.5 L17.4 16.8 Q19.55 17.9 20.95 17.85 L20.05 17.45 19.7 17.2 20.0 17.15 20.05 16.75 22.15 17.0 22.4 16.95 22.4 17.05 22.8 17.05 22.7 16.95 22.7 16.9 22.4 16.6 22.4 16.8 18.3 15.7 18.4 15.65 19.85 15.8 19.35 15.6 20.0 15.8 22.5 15.95 24.45 15.9 22.55 15.6 21.1 15.85 Q20.6 15.9 20.6 15.3 20.6 14.75 20.15 14.65 L26.05 14.9 Q21.6 14.05 19.3 12.7 L21.2 13.15 25.25 14.0 Q27.85 14.5 27.85 14.75 27.85 15.35 28.65 15.55 L28.85 15.6 25.15 15.5 26.35 15.8 27.6 15.5 Q26.0 16.7 24.85 17.15 L27.25 17.2 M21.75 8.7 L22.55 9.05 25.4 9.95 23.85 9.25 21.75 8.7 M25.3 4.85 L24.05 4.85 27.8 8.2 Q25.85 6.95 23.05 5.75 20.05 4.5 18.1 4.15 L19.45 4.5 Q22.65 5.4 24.85 6.65 L26.65 7.9 25.75 7.95 27.7 9.1 29.9 10.55 29.85 10.65 26.65 9.05 27.75 9.85 28.95 11.25 26.1 9.25 25.15 8.95 24.85 9.2 26.8 10.3 27.05 10.75 26.0 10.5 24.65 10.3 25.55 10.85 29.7 12.2 28.7 12.15 Q27.8 12.0 27.8 12.55 L27.8 12.85 27.5 12.8 25.65 12.35 Q24.05 11.8 24.8 11.55 24.3 11.2 22.2 10.9 L17.95 10.15 19.6 10.9 25.25 12.4 24.7 12.55 23.65 12.4 27.35 13.2 27.35 13.4 26.35 13.4 29.45 14.4 27.85 14.2 22.6 13.05 Q18.5 12.05 18.15 11.5 L21.85 12.05 21.05 11.85 Q18.6 11.55 17.9 10.9 L17.25 9.85 21.55 10.5 19.6 9.9 Q18.4 9.4 18.4 9.15 L20.8 9.7 18.45 8.55 18.5 8.4 21.8 9.75 21.55 9.2 21.5 9.1 22.4 9.55 22.55 9.6 Q21.1 8.75 20.4 8.3 19.75 8.0 19.75 7.6 19.75 7.0 19.4 7.05 L19.0 7.1 19.6 6.6 Q19.8 7.0 20.8 7.25 L25.0 8.45 24.05 7.75 Q23.25 7.3 20.45 6.7 18.1 6.25 17.75 5.6 L22.05 6.4 21.3 6.05 Q20.85 5.75 19.1 5.15 17.55 4.65 16.45 3.8 L18.95 3.8 18.85 3.75 17.3 2.55 18.35 2.8 Q21.9 2.8 23.1 3.7 L20.7 3.35 Q21.9 3.55 25.3 4.85" fill="#51402e" fill-rule="evenodd" stroke="none"/>
  </g>
  <defs>
    <linearGradient gradientTransform="matrix(0.0019, -0.007, 0.0219, 0.0058, 19.55, 7.35)" gradientUnits="userSpaceOnUse" id="gradient0" spreadMethod="pad" x1="-819.2" x2="819.2">
      <stop offset="0.0" stop-color="#6d5740"></stop>
      <stop offset="1.0" stop-color="#876b4d"></stop>
    </linearGradient>
    <linearGradient gradientTransform="matrix(0.0, -0.004, 0.024, 0.0, 19.65, 13.05)" gradientUnits="userSpaceOnUse" id="gradient1" spreadMethod="pad" x1="-819.2" x2="819.2">
      <stop offset="0.0" stop-color="#51402e"></stop>
      <stop offset="1.0" stop-color="#6d5740"></stop>
    </linearGradient>
    <linearGradient gradientTransform="matrix(0.0, 0.0014, -0.0033, 0.0, 10.8, 5.9)" gradientUnits="userSpaceOnUse" id="gradient2" spreadMethod="pad" x1="-819.2" x2="819.2">
      <stop offset="0.0" stop-color="#51402e"></stop>
      <stop offset="1.0" stop-color="#6d5740"></stop>
    </linearGradient>
    <linearGradient gradientTransform="matrix(0.0, 0.0018, -0.0022, 0.0, 2.75, 6.35)" gradientUnits="userSpaceOnUse" id="gradient3" spreadMethod="pad" x1="-819.2" x2="819.2">
      <stop offset="0.0" stop-color="#51402e"></stop>
      <stop offset="1.0" stop-color="#6d5740"></stop>
    </linearGradient>
  </defs>
</svg>