<?xml version="1.0" encoding="UTF-8" standalone="no"?>
<svg xmlns:xlink="http://www.w3.org/1999/xlink" height="72.8px" width="37.5px" xmlns="http://www.w3.org/2000/svg">
  <g transform="matrix(1.0, 0.0, 0.0, 1.0, -185.5, 84.3)">
    <path d="M213.4 -71.15 Q205.2 -84.8 187.5 -79.35 L187.0 -78.65 Q186.5 -78.3 186.5 -79.85 186.5 -85.55 199.85 -81.85 205.15 -80.4 209.8 -78.0 214.6 -75.55 216.0 -73.5 218.25 -69.55 219.95 -65.25 222.0 -59.95 222.0 -57.0 222.0 -45.7 214.6 -34.05 206.15 -20.75 191.0 -12.5 L189.0 -13.0 188.75 -14.1 Q197.9 -16.8 208.4 -32.3 218.25 -46.75 218.25 -54.25 218.25 -63.05 213.4 -71.15" fill="#ffffff" fill-rule="evenodd" stroke="none"/>
  </g>
</svg>