<?xml version="1.0" encoding="UTF-8" standalone="no"?>
<svg xmlns:xlink="http://www.w3.org/1999/xlink" height="37.6px" width="128.05px" xmlns="http://www.w3.org/2000/svg">
  <g transform="matrix(1.0, 0.0, 0.0, 1.0, -226.7, 2.6)">
    <path d="M353.5 -1.6 Q353.75 -1.65 353.75 -0.1 353.75 1.85 331.4 12.7 309.5 23.3 301.75 25.5 293.55 28.3 285.9 30.25 271.25 34.0 259.0 34.0 238.85 34.0 232.4 32.0 230.4 31.4 229.3 30.4 L227.75 29.25 227.75 27.75 227.7 27.5 229.5 27.25 Q231.0 27.25 235.25 28.65 239.5 30.0 249.5 30.0 276.55 30.0 308.55 18.3 319.7 14.25 333.25 8.05 L353.25 -1.25 353.5 -1.6" fill="#ffffff" fill-rule="evenodd" stroke="none"/>
  </g>
</svg>