<?xml version="1.0" encoding="UTF-8" standalone="no"?>
<svg xmlns:xlink="http://www.w3.org/1999/xlink" height="45.25px" width="162.5px" xmlns="http://www.w3.org/2000/svg">
  <g transform="matrix(1.0, 0.0, 0.0, 1.0, -94.25, 7)">
    <path d="M219.95 23.25 L204.25 28.75 Q201.6 29.65 199.25 30.95 L195.55 32.95 Q190.5 35.3 178.0 37.25 L167.5 36.5 137.25 36.0 Q116.2 34.2 108.35 32.3 L95.25 27.75 95.25 25.75 96.4 25.4 99.0 25.0 116.5 27.9 137.75 31.25 168.0 31.75 169.55 32.0 173.0 32.25 Q200.8 32.25 230.15 13.75 244.95 4.4 255.5 -6.0 257.2 -1.45 246.25 6.65 232.55 15.7 227.75 19.5 225.8 21.05 219.95 23.25" fill="#ffffff" fill-rule="evenodd" stroke="none"/>
  </g>
</svg>