<?xml version="1.0" encoding="UTF-8" standalone="no"?>
<svg xmlns:xlink="http://www.w3.org/1999/xlink" height="111.25px" width="72.5px" xmlns="http://www.w3.org/2000/svg">
  <g transform="matrix(1.0, 0.0, 0.0, 1.0, -314, 77.75)">
    <path d="M323.25 -11.35 Q327.85 -1.95 335.75 6.3 355.7 27.05 384.5 29.25 L384.9 30.15 385.5 31.25 385.5 32.15 Q385.5 32.5 384.0 32.5 352.3 32.5 331.25 7.7 323.6 -1.35 318.95 -11.95 315.0 -20.95 315.0 -26.35 315.0 -41.8 325.95 -54.05 339.65 -69.4 368.5 -76.75 L369.5 -76.0 Q342.55 -64.95 330.2 -52.05 319.0 -40.45 319.0 -26.5 319.0 -20.0 323.25 -11.35" fill="#ffffff" fill-rule="evenodd" stroke="none"/>
  </g>
</svg>