<?xml version="1.0" encoding="UTF-8" standalone="no"?>
<svg xmlns:xlink="http://www.w3.org/1999/xlink" height="103px" width="109.75px" xmlns="http://www.w3.org/2000/svg">
  <g transform="matrix(1.0, 0.0, 0.0, 1.0, -179.5, 69)">
    <path d="M271.0 -68.0 Q281.15 -67.55 285.5 -57.8 288.25 -51.55 288.25 -42.5 288.25 -34.15 282.8 -22.6 276.6 -9.45 267.75 -3.5 244.05 12.3 234.05 17.85 206.85 33.0 191.0 33.0 L185.45 32.65 Q181.75 32.25 181.25 31.75 L180.8 30.55 Q180.5 29.7 180.5 28.75 L182.1 28.9 185.0 29.0 Q202.0 29.0 220.5 21.3 237.2 14.35 252.25 2.5 266.4 -8.7 275.0 -20.95 283.75 -33.3 283.75 -42.5 283.75 -49.35 281.25 -55.3 278.05 -62.95 271.0 -68.0" fill="#ffffff" fill-rule="evenodd" stroke="none"/>
  </g>
</svg>