<?xml version="1.0" encoding="UTF-8" standalone="no"?>
<svg xmlns:xlink="http://www.w3.org/1999/xlink" height="38.95px" width="173.9px" xmlns="http://www.w3.org/2000/svg">
  <g transform="matrix(1.0, 0.0, 0.0, 1.0, 15.1, 1.4)">
    <path d="M155.7 5.3 Q146.7 5.95 139.95 9.3 137.6 10.45 135.3 12.15 127.3 12.9 120.05 17.2 115.2 20.05 109.95 25.1 L110.6 25.75 Q100.0 29.25 88.1 29.25 L77.85 28.55 Q75.7 27.3 72.6 25.75 67.45 23.15 62.4 21.05 L60.9 20.35 Q58.75 19.4 56.15 18.6 43.05 13.85 37.55 14.95 L29.25 14.65 Q22.05 14.9 22.05 17.15 L22.25 18.3 15.25 19.35 4.2 20.85 -0.55 20.4 -3.3 22.05 -7.55 24.45 -11.05 26.3 Q-8.8 28.25 -5.8 30.05 -0.3 33.25 2.35 33.6 3.7 34.35 7.45 34.35 13.5 34.35 15.7 33.2 L17.35 31.95 18.35 31.95 13.5 35.1 10.2 36.55 Q8.6 35.75 5.0 35.15 L-1.75 34.5 -3.35 32.35 Q-6.75 28.3 -9.85 30.35 L-13.6 25.95 -13.95 25.7 -14.1 24.65 Q-14.1 22.35 -8.1 11.85 -1.8 0.9 0.6 0.9 L7.6 1.05 13.15 1.15 13.25 1.2 Q18.4 3.3 31.5 3.3 L32.05 3.3 Q38.2 3.15 46.35 -0.2 52.0 0.95 57.55 2.95 64.05 5.25 68.15 8.0 L82.15 8.6 84.75 9.4 85.3 9.75 84.2 9.95 83.2 10.5 Q82.65 11.0 82.65 11.3 L82.8 12.2 Q83.1 12.5 84.55 12.95 L86.6 13.55 92.7 13.55 95.1 12.35 96.2 12.35 96.15 12.9 96.15 13.85 96.55 14.05 98.1 14.25 Q107.15 10.7 107.85 10.7 117.0 10.4 119.6 9.35 120.9 8.85 120.9 7.35 120.9 6.4 120.45 6.1 L119.4 5.7 117.25 5.55 126.8 2.7 131.0 2.35 Q135.15 1.9 135.15 2.7 L135.2 3.3 Q141.2 3.2 149.7 1.65 155.1 0.65 157.75 -0.4 L157.8 1.8 Q157.8 3.35 155.7 5.3" fill="#202020" fill-rule="evenodd" stroke="none"/>
  </g>
</svg>