<?xml version="1.0" encoding="UTF-8" standalone="no"?>
<svg xmlns:xlink="http://www.w3.org/1999/xlink" height="51.7px" width="172.45px" xmlns="http://www.w3.org/2000/svg">
  <g transform="matrix(1.0, 0.0, 0.0, 1.0, 17.55, 7.45)">
    <path d="M50.85 -6.0 L57.5 -6.4 Q63.35 -6.85 68.85 -3.25 L71.3 -1.95 Q75.2 0.1 79.6 1.1 L81.15 -0.3 85.7 -0.5 Q85.85 0.15 86.75 0.65 89.05 1.9 95.3 1.9 99.5 1.9 103.45 0.35 105.5 -0.45 106.7 -1.3 111.65 -0.85 116.7 0.7 L119.1 3.3 Q123.05 7.2 127.8 9.65 131.9 10.75 135.75 12.65 L140.35 13.5 140.95 13.95 141.1 14.9 Q142.85 20.35 147.3 20.35 L148.15 20.2 Q151.3 23.15 153.9 26.25 153.1 27.5 153.1 28.95 L153.2 32.15 153.3 32.25 148.15 39.55 Q146.1 41.6 145.3 43.25 145.05 42.75 145.05 41.4 145.05 40.7 145.9 38.4 148.45 38.35 150.15 35.2 151.4 32.75 151.4 30.7 151.4 27.75 148.5 24.9 144.65 21.15 137.6 21.2 L128.05 15.85 Q124.1 14.6 119.8 14.25 116.25 11.6 110.9 12.5 107.95 12.95 105.8 14.35 L104.8 15.1 Q100.9 15.95 98.35 17.5 L94.35 19.8 92.6 20.35 Q90.45 19.4 84.15 17.85 78.5 16.45 76.5 17.0 72.1 13.8 65.7 13.8 L61.55 14.0 56.75 13.4 Q57.0 12.5 56.7 11.55 50.75 11.45 42.1 16.0 38.8 17.75 36.8 19.2 L35.1 19.65 27.3 19.65 Q26.25 18.35 24.9 17.55 20.95 15.25 8.55 15.4 6.6 15.7 -0.35 19.65 L-2.2 19.65 -5.85 20.6 Q-11.75 22.15 -13.05 22.65 L-11.45 24.25 -11.45 24.45 Q-11.45 27.05 -9.95 28.6 -8.3 30.3 -5.1 30.4 L-5.0 30.5 -0.8 33.45 -1.1 33.8 Q-0.4 34.85 1.4 36.1 L2.0 36.55 0.9 36.6 0.75 36.6 -0.7 35.2 Q-2.25 33.9 -4.45 32.7 -6.3 31.6 -9.4 30.65 L-10.8 30.25 Q-11.3 29.5 -14.2 27.95 L-15.2 27.45 -16.55 26.05 -16.5 25.75 Q-15.75 23.1 -15.75 21.3 L-15.85 20.15 -15.8 20.15 Q-15.65 17.2 -15.0 14.4 L-13.3 7.55 -12.4 5.2 -12.05 4.7 -8.85 -0.2 -8.05 -1.2 -7.35 -2.35 Q-7.2 -2.8 -6.65 -2.75 L-4.55 -2.25 -4.5 -2.35 -3.9 -2.0 -1.0 -0.45 4.25 2.45 6.1 3.6 Q10.95 3.05 19.0 3.45 24.0 6.2 30.25 6.2 L32.5 5.8 Q33.75 5.35 33.75 4.65 33.75 3.5 33.45 4.15 L33.25 3.9 33.8 3.9 39.05 0.9 46.1 -3.7 Q49.5 -5.85 50.85 -6.0 M23.2 19.65 L23.45 19.4 23.7 19.65 23.2 19.65" fill="#202020" fill-rule="evenodd" stroke="none"/>
  </g>
</svg>