<?xml version="1.0" encoding="UTF-8" standalone="no"?>
<svg xmlns:xlink="http://www.w3.org/1999/xlink" height="49.55px" width="181.4px" xmlns="http://www.w3.org/2000/svg">
  <g transform="matrix(1.0, 0.0, 0.0, 1.0, 13.35, 12)">
    <path d="M7.5 -2.4 L9.5 -2.3 Q12.35 -1.7 15.1 -0.7 L20.6 1.35 Q23.15 2.2 26.2 2.35 L26.85 2.35 28.95 2.7 29.7 2.9 33.8 3.3 Q37.4 3.3 42.8 1.15 47.85 -1.0 50.3 -0.65 53.35 -0.35 55.05 -4.6 55.55 -5.95 56.2 -7.0 64.7 -10.65 74.0 -11.0 L76.95 -10.1 Q78.45 -7.25 81.55 -4.2 89.45 3.5 102.85 4.15 L105.25 4.7 113.2 4.95 115.8 7.05 116.65 7.5 Q117.25 9.15 118.95 11.3 122.6 15.9 128.15 15.9 133.55 15.9 140.45 10.5 L149.6 9.05 151.25 9.35 Q157.25 9.35 161.65 5.65 L167.05 3.95 162.4 7.0 162.3 7.05 162.4 7.05 158.6 9.7 153.4 11.2 152.35 11.6 151.3 11.4 Q148.15 11.2 144.25 12.4 136.35 14.9 134.5 20.7 L130.6 22.6 126.35 23.15 122.45 22.7 118.55 22.2 Q114.3 22.2 112.1 22.9 110.0 23.65 107.9 23.65 L100.1 19.05 Q91.75 14.35 86.9 14.35 83.9 14.35 80.15 16.2 76.6 18.0 76.05 18.05 71.45 19.15 66.95 17.7 63.65 16.65 59.25 19.15 L55.45 21.8 Q54.55 24.1 53.05 25.75 45.85 26.3 41.8 27.9 38.3 30.2 37.55 30.2 L33.75 28.2 Q30.05 26.25 26.35 26.25 L26.2 26.25 22.55 26.55 21.1 25.5 17.55 22.0 Q16.35 20.75 14.65 20.25 L12.25 20.35 9.8 21.05 4.65 21.25 1.35 21.65 Q-2.2 22.3 -5.45 23.3 L-6.6 23.7 -1.1 -2.55 2.2 -2.15 7.5 -2.4 M0.2 32.2 L1.05 32.75 1.5 32.45 Q5.9 33.95 10.75 34.45 L12.95 36.55 Q11.85 35.8 10.25 35.55 L5.3 34.05 1.1 33.65 Q-1.1 34.0 -2.6 35.85 -4.15 33.35 -6.45 31.6 L-8.1 30.35 -9.25 29.5 -10.25 28.75 Q-10.9 28.15 -11.7 27.9 L-12.35 27.8 -12.35 24.3 -7.7 24.3 Q-9.25 25.3 -10.3 26.95 L-7.2 29.25 Q-5.15 31.1 -3.55 33.45 L-0.9 32.35 0.2 32.2" fill="#202020" fill-rule="evenodd" stroke="none"/>
  </g>
</svg>