<?xml version="1.0" encoding="UTF-8" standalone="no"?>
<svg xmlns:xlink="http://www.w3.org/1999/xlink" height="85.1px" width="69.05px" xmlns="http://www.w3.org/2000/svg">
  <g transform="matrix(1.0, 0.0, 0.0, 1.0, 40.2, 80)">
    <path d="M27.5 -78.65 L27.85 -77.8 Q27.85 -77.3 27.5 -76.95 27.15 -76.6 26.65 -76.6 26.15 -76.6 25.8 -76.95 25.45 -77.3 25.45 -77.8 25.45 -78.3 25.8 -78.65 26.15 -79.0 26.65 -79.0 27.15 -79.0 27.5 -78.65 M0.65 -34.9 Q-0.75 -34.45 -1.1 -35.65 -1.15 -36.15 -0.8 -36.45 L-0.3 -36.75 Q0.5 -36.8 0.85 -36.15 L1.0 -35.95 Q1.2 -35.55 0.95 -35.25 L0.65 -34.9 M24.95 -15.2 Q25.4 -15.7 26.1 -15.7 26.8 -15.7 27.3 -15.2 L27.75 -14.1 Q27.75 -13.45 27.3 -12.95 26.8 -12.5 26.1 -12.5 25.4 -12.5 24.95 -12.95 24.45 -13.45 24.45 -14.1 24.45 -14.75 24.95 -15.2 M-13.9 -39.5 L-13.6 -39.45 -13.05 -39.35 Q-12.45 -38.95 -12.4 -38.25 -12.35 -37.9 -12.45 -37.6 -13.0 -36.6 -14.2 -36.35 -15.5 -36.7 -15.65 -38.05 L-15.65 -38.25 Q-15.1 -39.35 -13.9 -39.5 M-36.8 -43.7 Q-36.4 -43.3 -36.4 -42.75 -36.4 -42.2 -36.8 -41.8 -37.2 -41.4 -37.8 -41.4 -38.4 -41.4 -38.8 -41.8 -39.2 -42.2 -39.2 -42.75 -39.2 -43.3 -38.8 -43.7 -38.4 -44.1 -37.8 -44.1 -37.2 -44.1 -36.8 -43.7 M-25.65 2.85 Q-25.65 3.35 -26.0 3.75 -26.4 4.1 -26.95 4.1 L-27.85 3.75 Q-28.25 3.35 -28.25 2.85 -28.25 2.35 -27.85 2.0 -27.5 1.6 -26.95 1.6 -26.4 1.6 -26.0 2.0 -25.65 2.35 -25.65 2.85" fill="#f7ecd5" fill-rule="evenodd" stroke="none"/>
  </g>
</svg>