<?xml version="1.0" encoding="UTF-8" standalone="no"?>
<svg xmlns:xlink="http://www.w3.org/1999/xlink" height="96.1px" width="48px" xmlns="http://www.w3.org/2000/svg">
  <g transform="matrix(1.0, 0.0, 0.0, 1.0, 21.7, 61.5)">
    <path d="M18.55 -58.85 Q18.55 -58.15 18.1 -57.65 17.6 -57.2 16.95 -57.2 16.3 -57.2 15.85 -57.65 15.35 -58.15 15.35 -58.85 15.35 -59.55 15.85 -60.0 16.3 -60.5 16.95 -60.5 17.6 -60.5 18.1 -60.0 18.55 -59.55 18.55 -58.85 M7.6 -38.9 Q8.3 -40.0 9.55 -40.2 L10.45 -39.9 10.85 -39.75 11.45 -38.65 11.45 -38.25 Q10.0 -36.3 7.9 -36.95 7.5 -37.5 7.5 -38.25 L7.6 -38.9 M6.95 -12.2 L7.55 -12.1 8.05 -11.45 8.2 -11.0 Q7.5 -9.35 5.5 -9.0 4.35 -9.3 4.3 -10.45 L4.25 -10.65 Q5.1 -12.05 6.65 -12.25 L6.95 -12.2 M4.4 -3.6 Q4.4 -2.85 3.9 -2.3 3.35 -1.8 2.65 -1.8 1.95 -1.8 1.45 -2.3 0.9 -2.85 0.9 -3.6 0.9 -4.35 1.45 -4.85 1.95 -5.4 2.65 -5.4 3.35 -5.4 3.9 -4.85 4.4 -4.35 4.4 -3.6 M24.55 -4.9 L24.9 -4.7 Q25.4 -4.0 25.3 -3.2 L25.15 -2.55 Q23.8 -0.65 21.7 -1.8 20.8 -4.7 24.05 -5.05 L24.55 -4.9 M-11.9 -37.8 Q-10.15 -37.75 -9.55 -36.15 L-9.5 -35.95 Q-11.4 -32.95 -14.15 -35.35 -14.05 -36.9 -12.55 -37.55 L-11.9 -37.8 M-14.7 -25.9 Q-16.85 -22.25 -20.7 -25.15 L-20.05 -27.75 -18.05 -28.9 -17.4 -29.0 Q-15.6 -29.2 -14.65 -27.6 -14.1 -26.8 -14.7 -25.9 M-10.3 -32.65 L-7.9 -33.15 Q-5.85 -31.25 -8.05 -29.7 -10.2 -29.2 -11.25 -30.95 L-10.5 -32.0 -10.3 -32.65 M-16.75 -2.15 Q-17.6 -1.7 -18.2 -2.45 -18.95 -4.3 -17.5 -5.7 L-17.1 -6.1 -16.95 -6.15 -16.55 -6.2 -16.5 -6.25 Q-12.75 -4.25 -16.75 -2.15 M-7.0 32.1 Q-7.0 32.7 -7.25 33.15 -7.55 33.6 -7.9 33.6 -8.25 33.6 -8.5 33.15 L-8.8 32.1 -8.5 31.05 Q-8.25 30.6 -7.9 30.6 -7.55 30.6 -7.25 31.05 -7.0 31.5 -7.0 32.1" fill="#f7ecd5" fill-rule="evenodd" stroke="none"/>
  </g>
</svg>