<?xml version="1.0" encoding="UTF-8" standalone="no"?>
<svg xmlns:xlink="http://www.w3.org/1999/xlink" height="64.25px" width="78.35px" xmlns="http://www.w3.org/2000/svg">
  <g transform="matrix(1.0, 0.0, 0.0, 1.0, 44.65, 79.5)">
    <path d="M32.6 -77.3 L32.5 -77.05 Q31.6 -76.15 30.8 -76.7 30.4 -77.1 30.5 -77.6 L30.55 -78.0 Q31.1 -78.6 31.85 -78.5 33.0 -78.25 32.6 -77.3 M1.8 -34.25 L1.75 -34.65 Q2.0 -35.5 2.9 -35.6 L2.9 -35.65 Q3.75 -35.45 3.7 -34.65 L3.6 -34.4 Q3.15 -33.4 2.1 -33.75 L1.8 -34.25 M25.4 -16.75 Q25.05 -17.65 25.45 -18.4 25.7 -18.8 26.05 -18.85 27.7 -18.6 27.85 -17.15 L27.8 -16.95 Q27.7 -16.4 27.1 -16.35 L26.65 -16.25 Q26.1 -16.35 25.6 -16.6 L25.4 -16.75 M-40.95 -41.75 Q-40.95 -41.2 -41.35 -40.8 -41.75 -40.45 -42.3 -40.45 -42.85 -40.45 -43.25 -40.8 -43.65 -41.2 -43.65 -41.75 -43.65 -42.3 -43.25 -42.65 -42.85 -43.05 -42.3 -43.05 -41.75 -43.05 -41.35 -42.65 -40.95 -42.3 -40.95 -41.75 M-10.25 -41.15 Q-9.95 -40.8 -9.95 -40.3 -9.95 -39.8 -10.25 -39.45 -10.6 -39.1 -11.1 -39.1 -11.6 -39.1 -11.9 -39.45 -12.25 -39.8 -12.25 -40.3 L-11.9 -41.15 Q-11.6 -41.5 -11.1 -41.5 -10.6 -41.5 -10.25 -41.15" fill="#f7ecd5" fill-rule="evenodd" stroke="none"/>
  </g>
</svg>