<?xml version="1.0" encoding="UTF-8" standalone="no"?>
<svg xmlns:xlink="http://www.w3.org/1999/xlink" height="56.7px" width="41.15px" xmlns="http://www.w3.org/2000/svg">
  <g transform="matrix(1.0, 0.0, 0.0, 1.0, 19.2, 35.6)">
    <path d="M8.0 -29.9 L8.95 -30.95 9.25 -31.05 9.4 -31.15 9.85 -31.2 Q15.25 -30.3 11.85 -26.6 L11.75 -26.5 Q7.9 -25.65 7.4 -28.95 7.55 -29.5 8.0 -29.9 M19.1 -34.45 L19.7 -33.0 Q20.6 -28.75 15.85 -29.35 14.3 -33.3 18.55 -34.6 L19.1 -34.45 M1.1 -1.1 Q-0.65 0.45 -2.75 -0.6 -4.0 -2.05 -3.2 -3.65 L-2.45 -4.7 -1.45 -5.05 Q2.35 -4.85 1.15 -1.3 L1.1 -1.1 M8.15 -5.4 L7.95 -5.15 Q2.8 -4.25 4.2 -8.35 4.7 -9.85 6.1 -10.05 10.75 -9.45 8.15 -5.4 M20.8 5.9 Q19.55 9.15 16.2 8.0 L15.8 6.3 17.5 4.55 20.95 5.2 20.8 5.9 M-1.05 -25.15 Q-1.05 -24.3 -1.65 -23.65 -2.3 -23.05 -3.15 -23.05 -4.0 -23.05 -4.6 -23.65 -5.25 -24.3 -5.25 -25.15 -5.25 -26.0 -4.6 -26.6 -4.0 -27.25 -3.15 -27.25 -2.3 -27.25 -1.65 -26.6 -1.05 -26.0 -1.05 -25.15 M-7.3 -18.8 L-9.15 -18.85 Q-10.45 -20.4 -9.4 -22.4 L-8.5 -23.3 -7.95 -23.45 -7.55 -23.55 Q-2.6 -21.6 -7.3 -18.8 M-15.35 -17.3 Q-12.05 -18.6 -10.95 -15.45 -13.25 -11.1 -17.95 -12.8 L-18.15 -13.5 Q-18.55 -15.55 -16.8 -16.65 L-15.35 -17.3 M-14.3 -4.4 Q-13.3 -9.5 -8.25 -7.95 -7.15 -5.65 -8.95 -3.95 -11.2 -1.9 -13.8 -2.6 L-14.3 -4.4 M-1.75 16.2 L-1.4 16.35 Q-0.4 18.0 -1.85 19.45 L-2.25 19.85 Q-3.4 20.45 -4.3 19.5 -4.6 18.7 -4.3 17.95 L-4.2 17.3 Q-3.55 16.2 -2.3 16.0 L-1.75 16.2" fill="#f7ecd5" fill-rule="evenodd" stroke="none"/>
  </g>
</svg>