<?xml version="1.0" encoding="UTF-8" standalone="no"?>
<svg xmlns:xlink="http://www.w3.org/1999/xlink" height="82.15px" width="63.85px" xmlns="http://www.w3.org/2000/svg">
  <g transform="matrix(1.0, 0.0, 0.0, 1.0, 34.9, 78.45)">
    <path d="M20.85 -77.0 Q21.3 -77.45 21.95 -77.45 22.6 -77.45 23.05 -77.0 23.5 -76.55 23.5 -75.9 23.5 -75.25 23.05 -74.8 22.6 -74.35 21.95 -74.35 21.3 -74.35 20.85 -74.8 20.4 -75.25 20.4 -75.9 20.4 -76.55 20.85 -77.0 M13.35 -45.7 Q14.0 -45.7 14.25 -45.15 L14.35 -44.9 13.85 -44.0 13.7 -43.7 Q12.75 -43.3 12.35 -44.2 L12.3 -44.4 Q12.3 -45.2 13.0 -45.6 L13.35 -45.7 M13.6 -0.55 L13.9 0.2 13.6 0.95 12.9 1.25 Q12.5 1.25 12.2 0.95 11.9 0.65 11.9 0.2 11.9 -0.25 12.2 -0.55 12.5 -0.85 12.9 -0.85 L13.6 -0.55 M27.35 -12.4 Q27.95 -11.85 27.95 -11.0 27.95 -10.15 27.35 -9.55 26.75 -9.0 25.9 -9.0 25.05 -9.0 24.45 -9.55 23.85 -10.15 23.85 -11.0 23.85 -11.85 24.45 -12.4 25.05 -13.0 25.9 -13.0 26.75 -13.0 27.35 -12.4 M-13.75 -37.3 Q-13.1 -36.8 -13.1 -36.05 -13.1 -35.3 -13.75 -34.75 -14.45 -34.25 -15.4 -34.25 -16.35 -34.25 -17.0 -34.75 -17.7 -35.3 -17.7 -36.05 -17.7 -36.8 -17.0 -37.3 -16.35 -37.85 -15.4 -37.85 -14.45 -37.85 -13.75 -37.3 M-1.0 -35.9 Q-1.0 -35.25 -1.35 -34.8 -1.75 -34.35 -2.3 -34.35 -2.85 -34.35 -3.2 -34.8 -3.6 -35.25 -3.6 -35.9 -3.6 -36.55 -3.2 -37.0 -2.85 -37.45 -2.3 -37.45 -1.75 -37.45 -1.35 -37.0 -1.0 -36.55 -1.0 -35.9 M-32.15 -43.4 Q-31.25 -43.2 -30.85 -42.35 L-30.8 -42.15 Q-30.8 -41.5 -31.3 -41.05 L-31.75 -40.65 Q-32.85 -40.2 -33.75 -40.95 -34.3 -42.6 -32.5 -43.3 L-32.15 -43.4 M-23.25 0.7 Q-23.0 1.35 -23.35 2.0 L-23.9 2.65 Q-25.3 2.85 -26.2 1.6 L-26.35 0.95 -26.2 0.05 -25.2 -0.5 Q-24.05 -0.45 -23.4 0.5 L-23.25 0.7" fill="#f7ecd5" fill-rule="evenodd" stroke="none"/>
  </g>
</svg>