<?xml version="1.0" encoding="UTF-8" standalone="no"?>
<svg xmlns:xlink="http://www.w3.org/1999/xlink" height="23.5px" width="77.9px" xmlns="http://www.w3.org/2000/svg">
  <g transform="matrix(1.0, 0.0, 0.0, 1.0, 48.35, 41.25)">
    <path d="M28.5 -19.85 L28.55 -19.65 28.05 -18.95 27.8 -18.85 26.3 -19.0 Q25.75 -19.8 26.1 -20.7 26.25 -21.1 26.65 -21.1 27.9 -20.95 28.5 -19.85 M-45.75 -40.25 Q-45.1 -40.25 -44.6 -39.85 -44.15 -39.5 -44.15 -39.0 -44.15 -38.5 -44.6 -38.1 -45.1 -37.75 -45.75 -37.75 -46.4 -37.75 -46.85 -38.1 -47.35 -38.5 -47.35 -39.0 -47.35 -39.5 -46.85 -39.85 -46.4 -40.25 -45.75 -40.25" fill="#f7ecd5" fill-rule="evenodd" stroke="none"/>
  </g>
</svg>