<?xml version="1.0" encoding="UTF-8" standalone="no"?>
<svg xmlns:xlink="http://www.w3.org/1999/xlink" height="18.8px" width="82.55px" xmlns="http://www.w3.org/2000/svg">
  <g transform="matrix(1.0, 0.0, 0.0, 1.0, 50.55, 37.5)">
    <path d="M31.0 -21.1 Q31.0 -20.5 30.6 -20.1 30.15 -19.7 29.55 -19.7 28.95 -19.7 28.55 -20.1 28.1 -20.5 28.1 -21.1 28.1 -21.7 28.55 -22.1 28.95 -22.5 29.55 -22.5 30.15 -22.5 30.6 -22.1 31.0 -21.7 31.0 -21.1 M-47.45 -36.15 L-47.3 -35.95 Q-47.15 -35.5 -47.3 -35.05 L-47.45 -34.65 Q-48.2 -33.9 -49.2 -34.35 -50.2 -35.9 -48.4 -36.45 L-48.4 -36.5 Q-47.8 -36.6 -47.45 -36.15" fill="#f7ecd5" fill-rule="evenodd" stroke="none"/>
  </g>
</svg>