<?xml version="1.0" encoding="UTF-8" standalone="no"?>
<svg xmlns:xlink="http://www.w3.org/1999/xlink" height="42.85px" width="38.85px" xmlns="http://www.w3.org/2000/svg">
  <g transform="matrix(1.0, 0.0, 0.0, 1.0, 17.8, 27.2)">
    <path d="M11.6 -26.2 Q13.15 -26.2 13.7 -24.75 L13.75 -24.55 Q13.5 -19.2 8.7 -21.65 8.2 -23.1 8.95 -24.35 L9.4 -25.15 Q10.35 -26.1 11.6 -26.2 M14.4 -18.55 Q14.2 -22.15 17.95 -23.2 L18.75 -22.8 20.05 -19.75 Q19.75 -18.8 18.95 -18.1 16.55 -16.1 14.4 -18.55 M9.6 -6.2 L9.7 -6.0 Q7.5 0.15 2.1 -4.1 0.95 -5.0 1.65 -6.4 2.45 -8.0 4.1 -8.9 L4.9 -9.1 4.9 -9.15 Q8.05 -8.9 9.6 -6.2 M14.35 5.3 Q14.9 5.85 14.9 6.65 14.9 7.45 14.35 8.05 13.75 8.6 12.95 8.6 12.15 8.6 11.6 8.05 11.0 7.45 11.0 6.65 11.0 5.85 11.6 5.3 12.15 4.7 12.95 4.7 13.75 4.7 14.35 5.3 M-3.0 -23.35 L-3.35 -20.7 -1.65 -19.35 -1.85 -16.95 Q-4.95 -15.15 -6.25 -18.3 L-5.0 -20.35 -7.1 -21.8 -6.4 -24.2 -4.25 -24.6 -3.0 -23.35 M-14.5 -13.95 Q-12.25 -13.95 -10.95 -11.9 L-10.6 -11.35 Q-11.6 -8.0 -14.75 -9.05 -15.8 -9.3 -16.75 -9.85 -17.15 -12.45 -14.9 -13.85 L-14.5 -13.95 M-14.35 -6.0 Q-12.65 -9.1 -9.3 -9.4 -3.95 -9.25 -5.5 -4.9 -8.3 3.05 -13.85 -2.3 -15.5 -3.9 -14.35 -6.0 M-3.05 -5.3 L-2.6 -5.35 Q2.4 -4.2 -1.15 0.05 -2.55 1.75 -4.15 0.2 -6.05 -1.65 -4.7 -4.25 -4.1 -5.1 -3.05 -5.3 M-0.3 11.6 Q0.2 12.1 0.2 12.85 0.2 13.6 -0.3 14.15 -0.85 14.65 -1.6 14.65 -2.35 14.65 -2.85 14.15 -3.4 13.6 -3.4 12.85 -3.4 12.1 -2.85 11.6 -2.35 11.05 -1.6 11.05 -0.85 11.05 -0.3 11.6" fill="#f7ecd5" fill-rule="evenodd" stroke="none"/>
  </g>
</svg>