<?xml version="1.0" encoding="UTF-8" standalone="no"?>
<svg xmlns:xlink="http://www.w3.org/1999/xlink" height="72.3px" width="46.5px" xmlns="http://www.w3.org/2000/svg">
  <g transform="matrix(1.0, 0.0, 0.0, 1.0, 22.3, 46.35)">
    <path d="M17.0 -44.7 Q17.55 -44.05 17.55 -43.1 17.55 -42.15 17.0 -41.5 16.4 -40.85 15.55 -40.85 14.7 -40.85 14.15 -41.5 13.55 -42.15 13.55 -43.1 13.55 -44.05 14.15 -44.7 14.7 -45.35 15.55 -45.35 16.4 -45.35 17.0 -44.7 M8.25 -33.1 L8.55 -33.5 9.4 -34.4 9.7 -34.5 10.15 -34.6 Q14.8 -33.65 11.65 -29.95 L11.45 -29.75 Q8.15 -29.6 8.25 -32.9 L8.25 -33.1 M9.2 -9.05 Q9.2 -8.2 8.6 -7.6 8.0 -7.0 7.15 -7.0 6.3 -7.0 5.7 -7.6 5.1 -8.2 5.1 -9.05 5.1 -9.9 5.7 -10.5 6.3 -11.1 7.15 -11.1 8.0 -11.1 8.6 -10.5 9.2 -9.9 9.2 -9.05 M2.6 -3.25 Q2.6 -2.35 2.0 -1.7 1.35 -1.1 0.5 -1.1 -0.35 -1.1 -0.95 -1.7 -1.6 -2.35 -1.6 -3.25 -1.6 -4.15 -0.95 -4.75 -0.35 -5.4 0.5 -5.4 1.35 -5.4 2.0 -4.75 2.6 -4.15 2.6 -3.25 M22.7 2.3 L22.95 2.45 Q24.05 5.9 20.2 5.65 L19.85 5.5 Q18.45 3.2 21.05 2.15 21.45 1.95 21.7 1.9 L22.7 2.3 M-11.7 -27.15 L-10.75 -27.5 Q-6.0 -25.9 -10.35 -23.65 -10.95 -23.35 -11.55 -23.85 -12.65 -24.75 -12.6 -26.15 L-11.7 -27.15 M-2.9 -31.6 L-2.55 -31.45 Q-1.6 -30.45 -1.6 -29.05 -1.6 -28.7 -1.75 -28.4 -3.65 -26.1 -5.8 -28.2 L-5.9 -29.05 -5.85 -29.9 Q-5.1 -31.5 -3.5 -31.8 L-2.9 -31.6 M-15.15 -17.1 L-18.1 -15.85 Q-19.5 -15.8 -20.7 -16.5 -22.9 -21.4 -16.8 -22.0 -13.15 -20.85 -15.0 -17.3 L-15.15 -17.1 M-10.35 -6.8 Q-9.55 -6.0 -9.55 -4.85 -9.55 -3.7 -10.35 -2.9 -11.15 -2.1 -12.25 -2.1 -13.35 -2.1 -14.15 -2.9 -14.95 -3.7 -14.95 -4.85 -14.95 -6.0 -14.15 -6.8 -13.35 -7.6 -12.25 -7.6 -11.15 -7.6 -10.35 -6.8 M-3.5 21.25 L-3.1 21.45 Q-2.4 22.15 -2.45 23.2 L-2.6 23.85 Q-4.7 26.25 -6.1 23.4 -6.15 22.5 -5.45 21.85 L-5.1 21.45 -4.05 21.1 -3.5 21.25" fill="#f7ecd5" fill-rule="evenodd" stroke="none"/>
  </g>
</svg>