<?xml version="1.0" encoding="UTF-8" standalone="no"?>
<svg xmlns:xlink="http://www.w3.org/1999/xlink" height="75.25px" width="57.5px" xmlns="http://www.w3.org/2000/svg">
  <g transform="matrix(1.0, 0.0, 0.0, 1.0, 28.85, 73.35)">
    <path d="M19.8 -71.55 L19.9 -71.35 19.25 -70.25 18.55 -69.85 Q17.95 -69.65 17.5 -70.1 L17.1 -70.55 Q17.1 -71.25 17.45 -71.85 L18.25 -72.35 Q19.25 -72.3 19.8 -71.55 M12.3 -44.75 Q12.75 -44.3 12.75 -43.65 12.75 -43.0 12.3 -42.55 11.8 -42.1 11.15 -42.1 10.5 -42.1 10.05 -42.55 9.55 -43.0 9.55 -43.65 9.55 -44.3 10.05 -44.75 10.5 -45.2 11.15 -45.2 11.8 -45.2 12.3 -44.75 M5.45 -15.7 L5.8 -15.8 Q6.6 -15.9 6.95 -15.2 L7.05 -15.0 Q7.05 -13.8 5.85 -13.3 L5.5 -13.2 Q4.7 -13.25 4.5 -14.0 L4.5 -14.2 Q4.55 -15.2 5.45 -15.7 M9.6 -2.3 Q10.15 -2.3 10.55 -1.9 L10.9 -1.0 Q10.9 -0.45 10.55 -0.05 10.15 0.3 9.6 0.3 9.05 0.3 8.7 -0.05 8.3 -0.45 8.3 -1.0 8.3 -1.55 8.7 -1.9 9.05 -2.3 9.6 -2.3 M27.65 -8.15 Q27.65 -7.3 26.95 -6.7 26.25 -6.15 25.25 -6.15 24.25 -6.15 23.55 -6.7 22.85 -7.3 22.85 -8.15 22.85 -9.0 23.55 -9.55 24.25 -10.15 25.25 -10.15 26.25 -10.15 26.95 -9.55 27.65 -9.0 27.65 -8.15 M-13.9 -33.2 Q-13.9 -32.3 -14.65 -31.65 -15.4 -31.0 -16.45 -31.0 -17.5 -31.0 -18.25 -31.65 -19.0 -32.3 -19.0 -33.2 -19.0 -34.1 -18.25 -34.75 -17.5 -35.4 -16.45 -35.4 -15.4 -35.4 -14.65 -34.75 -13.9 -34.1 -13.9 -33.2 M-6.15 -35.95 Q-5.2 -36.9 -4.05 -37.15 -2.8 -36.85 -2.25 -35.7 L-2.15 -35.5 Q-3.1 -32.0 -6.25 -34.2 L-6.35 -35.05 -6.15 -35.95 M-24.05 -38.5 Q-24.05 -37.7 -24.6 -37.15 -25.15 -36.6 -25.95 -36.6 -26.75 -36.6 -27.3 -37.15 -27.85 -37.7 -27.85 -38.5 -27.85 -39.3 -27.3 -39.85 -26.75 -40.4 -25.95 -40.4 -25.15 -40.4 -24.6 -39.85 -24.05 -39.3 -24.05 -38.5 M-20.5 -2.15 Q-19.95 -1.65 -19.95 -0.9 -19.95 -0.15 -20.5 0.4 -21.05 0.9 -21.8 0.9 -22.55 0.9 -23.1 0.4 -23.65 -0.15 -23.65 -0.9 -23.65 -1.65 -23.1 -2.15 -22.55 -2.7 -21.8 -2.7 -21.05 -2.7 -20.5 -2.15" fill="#f7ecd5" fill-rule="evenodd" stroke="none"/>
  </g>
</svg>