<?xml version="1.0" encoding="UTF-8" standalone="no"?>
<svg xmlns:xlink="http://www.w3.org/1999/xlink" height="28.85px" width="41.4px" xmlns="http://www.w3.org/2000/svg">
  <g transform="matrix(1.0, 0.0, 0.0, 1.0, 22, 20.65)">
    <path d="M13.7 -15.65 Q13.7 -14.4 12.85 -13.5 11.95 -12.65 10.7 -12.65 9.45 -12.65 8.6 -13.5 7.7 -14.4 7.7 -15.65 7.7 -16.9 8.6 -17.75 9.45 -18.65 10.7 -18.65 11.95 -18.65 12.85 -17.75 13.7 -16.9 13.7 -15.65 M3.15 -14.8 Q1.1 -14.15 -0.75 -15.5 L-1.0 -17.45 2.3 -19.65 3.2 -19.1 Q5.85 -17.0 3.15 -14.8 M8.35 -8.9 Q12.55 -5.25 9.2 -0.65 L11.0 1.5 11.1 2.4 Q9.95 4.25 7.7 4.8 6.5 5.1 5.5 4.4 L5.0 2.25 Q3.05 2.5 1.15 1.75 -0.5 1.0 -1.4 -0.75 L-3.4 2.4 Q-0.75 1.5 1.65 2.7 2.75 3.25 3.15 4.3 2.55 7.05 -0.6 7.2 -3.9 6.85 -4.6 3.6 L-7.65 3.5 Q-12.3 4.4 -13.6 -0.3 L-17.2 2.6 -21.0 -0.7 Q-20.75 -2.15 -20.15 -3.4 -19.0 -5.75 -16.5 -5.95 L-13.75 -3.65 Q-10.3 -8.85 -4.05 -9.55 L-0.35 -5.7 6.95 -9.9 8.35 -8.9 M17.3 -1.95 Q15.35 1.05 12.15 -1.4 L11.6 -1.8 Q10.75 -5.2 13.55 -7.0 14.2 -7.4 14.75 -7.45 20.35 -6.55 17.3 -1.95 M-6.6 -15.55 Q-6.6 -16.25 -6.05 -16.75 -5.55 -17.3 -4.8 -17.3 -4.05 -17.3 -3.5 -16.75 -3.0 -16.25 -3.0 -15.55 -3.0 -14.85 -3.5 -14.3 -4.05 -13.8 -4.8 -13.8 -5.55 -13.8 -6.05 -14.3 -6.6 -14.85 -6.6 -15.55 M-8.1 -13.05 Q-10.9 -12.05 -12.2 -14.65 L-12.2 -15.3 -12.05 -16.15 Q-11.1 -17.85 -9.3 -17.95 -7.7 -17.7 -7.05 -16.3 L-6.95 -16.1 Q-7.0 -15.05 -7.45 -14.15 L-8.1 -13.05" fill="#f7ecd5" fill-rule="evenodd" stroke="none"/>
  </g>
</svg>