<?xml version="1.0" encoding="UTF-8" standalone="no"?>
<svg xmlns:xlink="http://www.w3.org/1999/xlink" height="68.8px" width="49.6px" xmlns="http://www.w3.org/2000/svg">
  <g transform="matrix(1.0, 0.0, 0.0, 1.0, 21.8, 68.65)">
    <path d="M18.45 -65.5 Q18.45 -64.6 17.9 -63.95 17.35 -63.35 16.6 -63.35 15.85 -63.35 15.3 -63.95 14.75 -64.6 14.75 -65.5 14.75 -66.4 15.3 -67.0 15.85 -67.65 16.6 -67.65 17.35 -67.65 17.9 -67.0 18.45 -66.4 18.45 -65.5 M10.9 -42.7 L11.35 -41.6 Q11.35 -40.95 10.9 -40.45 10.4 -40.0 9.75 -40.0 9.1 -40.0 8.65 -40.45 8.15 -40.95 8.15 -41.6 8.15 -42.25 8.65 -42.7 9.1 -43.2 9.75 -43.2 10.4 -43.2 10.9 -42.7 M5.7 -14.1 Q6.3 -14.1 6.75 -13.55 7.2 -13.05 7.2 -12.35 7.2 -11.65 6.75 -11.1 6.3 -10.6 5.7 -10.6 5.1 -10.6 4.65 -11.1 4.2 -11.65 4.2 -12.35 4.2 -13.05 4.65 -13.55 5.1 -14.1 5.7 -14.1 M7.3 -3.25 Q7.7 -2.85 7.7 -2.25 7.7 -1.65 7.3 -1.25 6.85 -0.85 6.25 -0.85 5.65 -0.85 5.25 -1.25 4.8 -1.65 4.8 -2.25 4.8 -2.85 5.25 -3.25 5.65 -3.65 6.25 -3.65 6.85 -3.65 7.3 -3.25 M26.65 -6.35 L26.8 -6.15 Q26.15 -2.9 22.65 -4.2 22.3 -4.45 22.25 -4.8 22.1 -5.4 22.3 -5.95 23.2 -7.0 24.6 -7.15 25.85 -7.25 26.65 -6.35 M-17.15 -37.95 Q-16.6 -37.45 -16.6 -36.75 -16.6 -36.05 -17.15 -35.55 -17.75 -35.05 -18.55 -35.05 -19.35 -35.05 -19.9 -35.55 -20.5 -36.05 -20.5 -36.75 -20.5 -37.45 -19.9 -37.95 -19.35 -38.45 -18.55 -38.45 -17.75 -38.45 -17.15 -37.95 M-18.7 -30.75 Q-17.95 -31.45 -16.85 -31.45 -15.75 -31.45 -14.95 -30.75 -14.2 -30.05 -14.2 -29.1 -14.2 -28.15 -14.95 -27.45 -15.75 -26.75 -16.85 -26.75 -17.95 -26.75 -18.7 -27.45 -19.5 -28.15 -19.5 -29.1 -19.5 -30.05 -18.7 -30.75 M-5.25 -32.95 Q-5.25 -32.05 -5.8 -31.4 -6.35 -30.8 -7.15 -30.8 -7.95 -30.8 -8.5 -31.4 -9.05 -32.05 -9.05 -32.95 -9.05 -33.85 -8.5 -34.45 -7.95 -35.1 -7.15 -35.1 -6.35 -35.1 -5.8 -34.45 -5.25 -33.85 -5.25 -32.95 M-20.4 -4.4 L-20.15 -4.85 Q-19.35 -5.3 -18.55 -5.2 L-18.05 -5.05 -17.75 -4.85 Q-17.2 -4.3 -17.15 -3.55 L-17.25 -2.9 Q-18.6 -0.8 -20.7 -1.8 -21.05 -3.1 -20.4 -4.4" fill="#f7ecd5" fill-rule="evenodd" stroke="none"/>
  </g>
</svg>