<?xml version="1.0" encoding="UTF-8" standalone="no"?>
<svg xmlns:xlink="http://www.w3.org/1999/xlink" height="76.7px" width="147.75px" xmlns="http://www.w3.org/2000/svg">
  <g transform="matrix(1.0, 0.0, 0.0, 1.0, 112.75, -41.45)">
    <path d="M33.9 105.4 L34.0 106.1 Q34.0 107.25 27.6 109.95 21.4 112.6 19.55 112.6 L18.35 112.5 17.95 112.4 17.9 111.25 Q17.9 110.95 20.55 108.7 L23.3 106.4 Q19.95 105.85 19.95 104.45 L20.0 103.9 20.15 103.7 27.45 103.9 33.8 105.35 33.9 105.4 M2.4 102.7 Q1.8 101.95 1.8 100.9 1.8 98.8 5.5 99.45 9.2 100.1 9.2 102.05 9.2 103.95 5.9 103.95 3.45 103.95 2.4 102.7 M2.8 115.2 L2.6 114.4 Q2.6 111.55 7.55 111.1 12.5 110.65 12.5 112.8 12.5 113.45 10.7 114.55 8.35 115.9 5.3 115.9 3.4 115.9 2.8 115.2 M-58.25 46.65 L-57.75 45.65 -57.7 45.6 -57.75 47.1 Q-57.75 49.8 -55.25 53.4 L-55.1 53.65 -55.05 53.7 -55.5 54.0 Q-56.45 54.55 -57.55 54.55 L-59.3 54.35 -59.4 51.55 Q-59.4 49.2 -58.25 46.65 M-13.9 98.95 L-19.95 97.95 -20.1 95.45 Q-20.1 91.6 -18.25 91.7 -16.15 91.85 -12.65 97.8 L-13.1 98.5 Q-13.45 98.95 -13.9 98.95 M-111.35 71.45 L-111.2 69.6 -111.0 70.2 -110.35 71.05 -111.35 71.45 M-10.2 108.0 Q-10.2 108.75 -10.6 109.55 -11.1 110.55 -11.85 110.55 -13.9 110.55 -14.75 108.95 L-15.15 107.45 Q-15.15 105.75 -12.65 105.9 -10.2 106.05 -10.2 108.0 M-10.2 114.45 L-8.35 114.25 Q-5.65 114.25 -5.65 115.7 -5.65 116.1 -6.25 116.55 -7.0 117.15 -8.1 117.15 -10.0 117.15 -10.5 116.3 L-10.6 115.35 Q-10.6 114.6 -10.2 114.45 M-33.6 101.05 Q-28.75 102.75 -28.75 103.7 -28.75 104.25 -30.65 104.9 -32.5 105.55 -32.5 106.1 L-31.45 108.65 -30.4 110.6 Q-30.4 111.3 -31.05 111.75 L-31.85 112.2 Q-34.25 112.2 -37.3 106.85 L-39.9 101.45 -39.8 99.6 Q-38.3 99.35 -33.6 101.05" fill="#000000" fill-rule="evenodd" stroke="none"/>
    <path d="M-55.1 53.65 L-55.25 53.4 Q-57.75 49.8 -57.75 47.1 L-57.7 45.6 -57.75 45.65 -58.25 46.65 -58.2 45.55 -58.1 44.75 Q-57.6 41.3 -55.25 43.0 -52.25 45.15 -52.25 49.25 -52.25 50.35 -53.3 51.95 -54.25 53.25 -55.1 53.65 M-111.2 69.6 L-111.25 69.0 Q-111.25 67.15 -109.25 67.05 -107.25 66.95 -107.25 69.1 L-107.5 71.85 -107.85 75.3 -108.15 75.55 -109.25 75.75 Q-110.75 75.75 -111.4 74.45 L-111.5 74.15 -111.75 73.0 -111.65 71.75 -111.35 71.45 -110.35 71.05 -111.0 70.2 -111.2 69.6 M-85.1 96.5 Q-80.75 96.7 -79.05 97.95 -77.75 98.85 -77.75 100.75 -77.75 102.15 -78.35 102.5 L-80.25 102.75 Q-82.3 102.75 -84.0 100.25 L-85.25 97.75 -85.15 96.65 -85.1 96.5" fill="#0e0e0e" fill-rule="evenodd" stroke="none"/>
  </g>
</svg>