<?xml version="1.0" encoding="UTF-8" standalone="no"?>
<svg xmlns:xlink="http://www.w3.org/1999/xlink" height="68.6px" width="150.75px" xmlns="http://www.w3.org/2000/svg">
  <g transform="matrix(1.0, 0.0, 0.0, 1.0, 115.75, -48.7)">
    <path d="M34.0 105.25 Q34.0 106.3 33.35 106.8 32.9 107.25 32.35 107.25 L31.35 107.15 31.15 107.05 30.9 105.9 30.7 104.45 Q30.7 103.3 32.35 103.45 34.0 103.65 34.0 105.25 M9.4 100.4 L9.55 100.45 9.65 101.1 Q9.65 102.15 9.45 101.9 L9.25 102.1 8.4 102.3 7.6 102.2 7.55 102.05 7.25 101.85 7.15 101.1 Q7.15 100.45 7.75 100.25 L9.4 100.4 M9.75 113.2 Q10.35 112.8 11.5 112.8 L11.6 112.95 11.7 113.7 11.6 114.45 11.5 114.85 10.45 115.1 Q9.65 114.85 9.25 114.5 L9.2 113.9 Q9.2 113.55 9.75 113.2 M-14.5 96.9 L-14.75 97.2 -15.55 97.3 Q-16.6 97.3 -17.0 96.5 L-17.2 95.8 Q-17.2 94.7 -15.95 94.85 -14.75 95.0 -14.3 96.3 L-14.5 96.9 M-12.0 106.45 L-10.4 106.6 -10.25 106.65 -10.2 107.3 -10.25 108.1 -10.5 108.3 -11.45 108.45 Q-12.45 108.45 -12.25 108.25 L-12.6 108.05 -12.65 107.3 Q-12.65 106.65 -12.0 106.45 M-5.45 114.45 L-5.3 114.5 -5.25 115.15 -5.3 115.7 -6.25 116.3 -7.0 115.75 -7.3 114.85 Q-6.7 114.2 -5.45 114.45 M-36.85 106.6 L-37.05 105.0 -35.2 105.45 Q-34.15 105.95 -34.15 106.75 L-34.2 107.7 -34.45 107.9 -35.4 108.05 Q-36.45 108.05 -36.85 106.6" fill="#000000" fill-rule="evenodd" stroke="none"/>
    <path d="M-62.75 53.15 Q-62.75 47.8 -60.0 50.7 -57.25 53.65 -57.25 56.75 -57.25 59.25 -59.25 59.25 -61.8 59.25 -62.5 56.25 L-62.75 53.15 M-111.5 74.25 Q-112.1 74.75 -112.75 74.75 -114.35 74.75 -114.7 73.0 L-114.75 71.4 Q-114.75 68.15 -112.75 68.7 -110.75 69.2 -110.75 72.5 -110.75 73.6 -111.5 74.25 M-83.5 100.25 Q-82.05 100.25 -80.35 101.5 -78.75 102.75 -78.75 103.65 -78.75 104.65 -79.5 105.25 -80.1 105.75 -80.75 105.75 -83.05 105.75 -84.35 103.95 -85.25 102.7 -85.25 102.0 L-85.1 100.5 -83.5 100.25" fill="#0e0e0e" fill-rule="evenodd" stroke="none"/>
  </g>
</svg>