<?xml version="1.0" encoding="UTF-8" standalone="no"?>
<svg xmlns:xlink="http://www.w3.org/1999/xlink" height="73.4px" width="149.25px" xmlns="http://www.w3.org/2000/svg">
  <g transform="matrix(1.0, 0.0, 0.0, 1.0, 114.25, -44.35)">
    <path d="M34.0 105.8 Q34.0 106.55 32.4 107.7 30.75 108.9 29.45 108.9 L28.65 108.8 28.6 108.7 28.3 108.45 28.2 107.75 Q28.2 107.25 28.65 107.1 L29.1 106.45 Q29.1 105.95 28.65 105.75 28.2 105.6 28.2 105.05 28.2 104.2 28.85 104.0 L30.05 103.95 Q32.55 103.95 33.45 104.55 34.0 104.9 34.0 105.8 M5.55 102.05 L5.55 99.6 Q7.0 99.6 8.45 100.15 10.05 100.65 10.05 101.25 10.05 102.3 9.85 102.05 L7.75 102.3 5.55 102.05 M6.35 115.65 L6.35 114.45 Q6.35 112.9 6.8 112.65 L12.3 112.0 12.45 112.15 12.5 112.9 Q12.5 113.45 10.65 115.1 8.75 116.75 8.0 116.75 6.6 116.75 6.35 115.65 M-15.15 97.75 Q-16.85 97.75 -17.2 96.6 L-17.2 95.75 Q-17.2 94.1 -15.35 94.45 -13.5 94.9 -13.5 96.3 -13.5 97.75 -15.15 97.75 M-81.85 99.0 L-81.0 99.2 -80.9 99.2 -80.8 99.45 -81.85 99.0 M-9.85 106.25 L-9.8 106.9 Q-9.8 107.25 -10.4 108.05 -11.05 108.9 -11.65 108.9 -12.25 108.9 -12.4 108.7 L-12.85 108.3 -12.95 108.05 -13.1 107.25 -13.0 106.3 -12.95 106.2 Q-12.05 106.0 -10.0 106.2 L-9.85 106.25 M-8.55 115.15 Q-8.55 114.5 -7.85 114.3 L-5.85 114.45 -5.75 114.5 -5.65 115.15 Q-5.65 116.2 -5.75 115.95 L-6.1 116.15 -7.1 116.3 -8.1 116.1 -8.45 115.9 -8.55 115.15 M-32.5 108.15 Q-32.5 109.3 -34.55 109.7 -35.75 109.7 -37.15 107.25 L-38.25 104.95 Q-38.25 102.85 -35.4 104.1 -32.5 105.35 -32.5 108.15" fill="#000000" fill-rule="evenodd" stroke="none"/>
    <path d="M-55.75 49.15 Q-54.75 51.45 -54.75 53.5 -54.75 54.5 -55.85 56.05 -57.1 57.75 -58.25 57.75 -60.75 57.75 -61.25 54.8 L-61.25 52.25 Q-61.25 43.35 -58.0 45.9 -56.75 46.85 -55.75 49.15 M-108.25 72.6 Q-108.25 73.8 -109.0 74.75 -109.8 75.75 -111.0 75.75 -112.9 75.75 -113.25 73.9 L-113.25 71.85 Q-113.25 69.1 -112.95 68.45 -112.2 66.75 -109.0 66.5 -108.85 66.9 -109.05 67.6 L-109.25 69.1 -108.75 70.85 Q-108.25 72.0 -108.25 72.6 M-80.8 99.45 L-80.55 99.55 Q-78.25 100.7 -78.25 102.35 -78.25 103.7 -78.75 104.0 L-80.5 104.25 Q-81.8 104.25 -83.25 103.25 L-84.75 102.0 -84.75 98.55 -81.85 99.0 -80.8 99.45" fill="#0e0e0e" fill-rule="evenodd" stroke="none"/>
  </g>
</svg>