<?xml version="1.0" encoding="UTF-8" standalone="no"?>
<svg xmlns:xlink="http://www.w3.org/1999/xlink" height="135.35px" width="117px" xmlns="http://www.w3.org/2000/svg">
  <g transform="matrix(1.0, 0.0, 0.0, 1.0, 190.25, 31.75)">
    <path d="M-169.85 -22.6 Q-162.4 -30.6 -158.0 -27.75 -154.7 -26.4 -152.25 -22.5 -149.25 -17.7 -147.75 -16.5 -146.9 -15.8 -140.75 -12.25 L-139.55 -11.55 -139.25 -11.55 -126.4 -15.5 Q-115.5 -18.8 -113.75 -18.8 -110.25 -18.8 -106.45 -13.65 -103.7 -10.0 -101.4 -8.95 -100.45 -9.8 -99.6 -11.15 -98.5 -12.95 -96.05 -19.1 -93.8 -24.7 -91.95 -27.1 -89.05 -30.75 -85.0 -30.75 -81.4 -27.4 -79.15 -22.3 -77.8 -20.45 -77.25 -18.25 L-76.65 -13.7 -76.3 -11.45 Q-76.05 -9.55 -75.9 -5.5 L-75.8 -4.0 Q-74.75 8.6 -74.75 11.45 L-75.1 19.1 -74.65 20.65 Q-74.25 22.4 -74.25 24.05 -74.25 28.8 -78.5 40.45 L-80.55 45.85 -82.8 51.4 Q-85.8 58.6 -87.85 61.05 L-91.45 67.0 Q-113.9 102.6 -144.75 102.6 -157.6 102.6 -165.95 97.55 -170.5 96.35 -175.65 88.2 -179.75 81.65 -182.95 73.25 -183.95 70.65 -185.95 62.2 -188.05 53.2 -188.2 49.65 L-188.85 45.05 Q-189.25 40.95 -189.25 38.0 -189.25 19.85 -179.45 -7.45 -176.6 -15.45 -169.85 -22.6" fill="#b0ffff" fill-rule="evenodd" stroke="none"/>
  </g>
</svg>