<?xml version="1.0" encoding="UTF-8" standalone="no"?>
<svg xmlns:xlink="http://www.w3.org/1999/xlink" height="249.75px" width="136.5px" xmlns="http://www.w3.org/2000/svg">
  <g transform="matrix(1.0, 0.0, 0.0, 1.0, 185.75, 151)">
    <path d="M-50.25 -120.95 L-50.5 -120.6 Q-50.75 -120.25 -51.5 -120.25 -52.2 -120.25 -53.5 -121.75 -54.75 -123.2 -54.75 -123.9 -54.75 -126.0 -53.2 -125.85 -51.65 -125.7 -50.25 -123.2 L-50.25 -120.95 M-140.25 -105.5 Q-139.25 -104.95 -139.25 -103.65 -139.25 -102.4 -140.75 -98.75 -142.4 -94.75 -143.5 -94.75 -145.35 -94.75 -145.75 -96.7 L-145.75 -98.85 Q-145.75 -104.35 -142.5 -105.6 L-140.25 -105.5 M-112.7 -145.2 Q-113.3 -144.75 -115.0 -144.75 -119.75 -144.75 -121.0 -146.25 L-121.25 -147.65 Q-121.25 -150.95 -116.75 -149.65 -112.25 -148.35 -112.25 -146.35 -112.25 -145.5 -112.7 -145.2 M-98.75 -66.5 Q-99.35 -65.75 -100.5 -65.75 -102.35 -65.75 -102.75 -67.15 L-102.75 -68.15 Q-102.75 -71.9 -100.5 -71.3 -98.25 -70.75 -98.25 -68.0 -98.25 -67.1 -98.75 -66.5 M-138.6 -93.1 Q-138.9 -92.75 -139.75 -92.75 L-140.95 -92.85 -141.2 -93.0 -141.25 -94.4 Q-141.25 -95.65 -140.2 -95.65 -139.1 -95.7 -138.25 -94.0 L-138.6 -93.1 M-127.3 -25.3 Q-119.0 -28.7 -116.0 -30.75 L-115.15 -30.45 Q-114.75 -30.2 -114.75 -29.4 -114.75 -28.5 -116.75 -25.15 -118.75 -21.8 -118.75 -20.25 -118.75 -18.15 -114.65 -14.45 -110.35 -10.5 -107.15 -10.5 -103.75 -10.5 -102.4 -16.8 L-101.75 -23.25 Q-101.75 -25.6 -102.5 -31.35 -103.25 -37.1 -103.25 -39.65 -103.25 -45.15 -97.2 -33.6 -91.35 -22.4 -89.25 -14.5 -87.55 -8.75 -85.8 0.25 -83.75 10.75 -83.75 16.0 L-84.25 38.1 Q-84.25 42.3 -88.75 53.95 -93.5 66.25 -93.75 68.3 -94.85 76.45 -99.5 83.3 -103.65 89.45 -109.9 92.75 -110.7 93.95 -114.65 95.3 -121.7 97.75 -134.25 97.75 -149.9 97.75 -156.3 95.0 -162.9 92.15 -172.45 81.0 -173.7 79.5 -177.85 71.8 L-178.65 70.25 -178.75 70.25 Q-181.55 70.25 -183.4 61.15 L-184.75 51.9 Q-184.75 44.45 -181.45 33.35 -177.8 21.05 -171.7 10.0 -156.35 -17.5 -134.75 -22.15 L-127.3 -25.3 M-86.75 -45.2 Q-82.75 -39.4 -82.75 -34.15 -82.75 -31.9 -83.25 -29.75 -83.95 -26.75 -85.25 -26.75 L-86.45 -26.85 -86.7 -27.0 Q-86.85 -34.7 -88.8 -37.4 -90.75 -40.05 -90.75 -44.15 -90.75 -47.5 -89.5 -47.55 -88.4 -47.6 -86.75 -45.2" fill="#b0ffff" fill-rule="evenodd" stroke="none"/>
  </g>
</svg>