<?xml version="1.0" encoding="UTF-8" standalone="no"?>
<svg xmlns:xlink="http://www.w3.org/1999/xlink" height="190.6px" width="113.5px" xmlns="http://www.w3.org/2000/svg">
  <g transform="matrix(1.0, 0.0, 0.0, 1.0, 186.75, 87.5)">
    <path d="M-88.75 -64.05 Q-86.5 -43.25 -79.7 -20.05 -76.9 -10.6 -75.85 -4.2 -74.25 5.2 -74.25 17.3 -74.25 28.7 -74.4 29.6 -74.8 32.2 -78.75 46.95 -80.35 53.4 -86.05 64.55 -91.8 75.7 -93.5 75.7 L-94.6 75.6 -94.75 75.45 -95.15 75.2 -95.25 74.45 Q-99.65 78.85 -105.0 83.15 -128.55 102.1 -147.75 102.1 -158.6 102.1 -166.35 97.15 L-167.0 97.2 Q-171.0 97.2 -176.05 87.1 -179.1 80.95 -182.25 71.75 -185.3 63.15 -185.7 58.3 L-185.75 46.7 Q-185.75 34.95 -181.8 20.9 -177.8 6.7 -170.95 -5.5 -163.6 -18.55 -154.85 -26.0 -145.05 -34.3 -135.0 -34.3 -131.2 -34.3 -128.95 -32.0 -127.6 -30.6 -125.9 -26.9 -124.15 -23.25 -122.8 -21.85 -120.5 -19.55 -116.65 -19.55 -109.85 -19.55 -108.05 -26.15 -107.25 -29.7 -106.65 -31.2 L-106.3 -31.95 -106.25 -32.55 -108.0 -42.0 Q-109.75 -50.95 -109.75 -60.45 -109.75 -71.6 -103.35 -80.45 -96.4 -90.2 -88.75 -84.3 L-88.75 -64.05" fill="#b0ffff" fill-rule="evenodd" stroke="none"/>
  </g>
</svg>