<?xml version="1.0" encoding="UTF-8" standalone="no"?>
<svg xmlns:xlink="http://www.w3.org/1999/xlink" height="129.5px" width="22.5px" xmlns="http://www.w3.org/2000/svg">
  <g transform="matrix(1.0, 0.0, 0.0, 1.0, -63.75, 18.35)">
    <path d="M65.25 -14.0 Q64.9 -14.15 64.85 -14.2 L64.75 -15.1 Q64.75 -16.15 66.5 -16.8 L69.5 -17.1 Q69.75 -17.8 69.75 -16.55 69.75 -16.15 69.05 -15.5 L69.25 -15.25 68.95 -14.5 68.0 -13.75 67.05 -14.2 66.25 -13.75 65.3 -13.85 65.25 -14.0 M85.15 47.55 L85.25 48.35 Q85.25 49.6 85.05 49.3 L84.0 49.75 83.1 49.45 Q82.75 49.15 82.75 48.35 82.75 47.55 83.45 47.35 L85.0 47.5 85.15 47.55 M68.55 2.8 L69.5 3.0 69.65 3.05 69.75 3.85 Q69.75 5.1 69.55 4.8 L68.5 5.25 67.95 5.05 67.5 5.25 Q66.25 4.0 66.25 3.6 66.25 2.8 66.85 2.45 L68.5 2.5 68.55 2.8 M71.25 108.55 L71.05 109.65 70.0 110.15 Q68.75 109.05 68.75 108.6 68.75 107.7 69.3 107.4 69.85 107.15 71.0 107.4 L71.25 108.55" fill="#d5ffff" fill-rule="evenodd" stroke="none"/>
  </g>
</svg>