<?xml version="1.0" encoding="UTF-8" standalone="no"?>
<svg xmlns:xlink="http://www.w3.org/1999/xlink" height="125.15px" width="46.5px" xmlns="http://www.w3.org/2000/svg">
  <g transform="matrix(1.0, 0.0, 0.0, 1.0, -28.25, 10.5)">
    <path d="M55.3 -5.85 Q58.75 -9.25 61.5 -9.5 L61.65 -9.25 61.75 -8.35 56.4 -1.85 Q50.7 4.8 49.55 7.0 L51.25 8.25 Q49.45 11.35 45.0 15.7 L42.2 18.3 Q43.15 18.45 43.5 19.25 L43.75 20.35 43.45 21.5 43.0 22.25 42.75 22.5 46.75 22.25 48.5 22.5 48.65 22.55 48.75 23.35 Q48.75 24.0 47.4 25.5 46.0 27.0 46.0 28.05 46.0 28.7 46.65 28.85 47.25 29.0 47.25 29.6 L46.75 32.35 Q46.75 33.15 45.9 33.55 44.9 33.95 44.5 34.25 L40.0 34.25 37.95 31.75 Q36.75 30.5 36.75 29.35 36.75 28.3 37.5 27.5 38.1 26.8 39.55 26.05 40.3 25.3 39.05 25.3 L37.0 26.05 33.0 26.75 31.45 26.65 30.8 26.5 30.75 25.1 Q30.75 24.45 35.3 19.45 38.55 15.9 40.85 13.9 L41.05 13.5 40.4 13.9 39.0 14.25 38.6 14.25 30.5 21.75 29.6 21.3 Q29.25 20.95 29.25 20.1 43.4 3.4 52.2 -2.35 L55.3 -5.85 M62.15 7.05 L62.25 7.85 Q62.25 9.5 55.5 15.25 49.0 20.75 48.25 20.75 L47.3 20.65 47.25 20.5 Q46.75 19.75 46.75 17.6 46.75 14.45 52.05 11.25 56.35 8.6 62.0 7.0 L62.15 7.05 M42.0 41.75 L41.1 41.45 Q40.75 41.15 40.75 40.35 40.75 37.8 46.75 36.65 52.75 35.5 52.75 39.35 L51.95 39.65 Q50.1 40.15 46.5 41.75 L42.0 41.75 M73.35 47.45 Q73.75 47.6 73.75 48.35 73.75 49.15 73.3 49.45 L72.5 49.75 Q71.15 49.95 60.5 53.2 L56.2 54.45 55.15 55.15 Q52.7 56.65 49.3 57.8 50.25 57.9 50.95 58.3 L51.0 58.25 51.85 58.45 Q52.25 58.6 52.25 59.35 L52.2 59.9 52.25 60.5 Q52.25 62.1 50.4 63.9 48.15 66.1 47.75 67.0 L46.8 69.9 Q46.0 72.0 44.5 73.25 L43.5 72.2 43.25 71.5 46.25 59.5 Q46.25 58.9 45.75 58.35 45.25 57.8 45.25 57.15 45.25 56.25 46.25 54.5 46.3 51.25 48.3 50.0 52.25 47.6 65.5 47.5 L66.4 47.3 72.5 47.25 73.35 47.45 M38.95 91.65 L43.05 90.4 40.4 87.5 Q38.25 85.1 38.25 84.15 L39.2 82.05 Q40.15 79.85 40.3 77.0 L41.45 76.9 44.5 77.0 44.65 77.15 44.75 78.05 Q44.75 78.6 43.75 79.75 42.75 80.85 42.75 81.4 42.75 85.6 53.75 94.65 L61.3 100.8 Q64.75 103.8 64.75 104.9 L64.65 105.65 Q64.5 105.7 64.5 105.9 L62.25 106.15 Q60.5 106.15 49.0 99.7 37.75 93.35 37.75 92.9 37.75 92.0 38.95 91.65 M51.25 112.7 L51.05 113.15 51.0 113.4 50.0 113.65 Q47.25 113.65 34.75 97.3 34.75 90.6 43.0 100.55 47.15 105.5 51.25 111.85 L51.25 112.7" fill="#d5ffff" fill-rule="evenodd" stroke="none"/>
  </g>
</svg>