<?xml version="1.0" encoding="UTF-8" standalone="no"?>
<svg xmlns:xlink="http://www.w3.org/1999/xlink" height="100.15px" width="113.85px" xmlns="http://www.w3.org/2000/svg">
  <g transform="matrix(1.0, 0.0, 0.0, 1.0, 63.4, 49.15)">
    <path d="M1.6 -40.45 L-1.25 -33.35 -1.25 -48.15 1.6 -47.95 1.6 -40.45 M26.9 -33.9 L22.1 -30.05 28.6 -46.15 32.6 -43.65 26.9 -33.9 M49.45 -12.8 L35.65 -12.8 46.05 -21.05 Q48.45 -17.25 49.45 -12.8 M44.0 19.75 L37.5 15.55 42.55 7.15 47.0 7.15 Q47.0 11.9 45.6 16.1 L44.0 19.75 M23.75 13.6 L23.05 14.75 19.2 12.8 20.3 11.4 23.75 13.6 M29.5 5.8 L26.95 10.15 23.55 8.85 26.05 5.8 29.5 5.8 M6.0 3.4 L5.4 3.1 6.6 1.9 7.2 1.9 6.0 3.4 M2.9 7.25 L1.8 7.35 1.6 6.9 2.55 5.9 3.35 6.7 2.9 7.25 M1.45 28.5 L0.9 28.2 0.8 27.9 1.65 28.45 1.45 28.5 M18.05 33.65 L20.65 43.25 18.0 44.3 13.6 31.4 18.05 33.65 M33.2 25.6 L38.05 31.65 36.9 32.85 36.45 33.4 34.3 35.2 32.2 27.25 33.2 25.6 M6.0 50.0 L4.75 40.8 7.9 49.9 6.0 50.0 M-45.55 -24.9 L-33.7 -18.45 -47.75 -19.1 Q-47.15 -21.55 -46.15 -23.7 L-45.55 -24.9 M-11.1 -47.0 L-8.2 -47.75 -5.75 -32.85 -6.15 -32.9 -11.1 -47.0 M-37.1 -36.85 L-28.85 -27.7 -27.95 -25.1 -40.05 -33.8 -38.65 -35.4 -37.1 -36.85 M-5.95 -10.8 L-4.15 -10.55 -4.7 -9.3 -4.7 -9.25 Q-5.1 -8.4 -4.9 -7.4 L-6.5 -5.9 -7.45 -7.9 -5.95 -10.8 M-28.55 38.15 L-21.9 31.9 -20.6 32.4 -19.9 32.7 -19.15 33.0 -22.8 41.95 Q-25.9 40.45 -28.55 38.15 M-38.65 24.7 Q-40.75 22.05 -42.0 19.05 L-36.55 19.05 -33.85 20.25 -38.65 24.7 M-49.55 1.4 L-55.0 4.85 -62.0 4.85 Q-62.4 2.6 -62.4 0.2 L-62.4 -0.4 -48.9 0.2 -49.55 1.4" fill="#ffffff" fill-rule="evenodd" stroke="none"/>
  </g>
</svg>