<?xml version="1.0" encoding="UTF-8" standalone="no"?>
<svg xmlns:xlink="http://www.w3.org/1999/xlink" height="81.5px" width="78.5px" xmlns="http://www.w3.org/2000/svg">
  <g transform="matrix(1.0, 0.0, 0.0, 1.0, 42, 40.8)">
    <path d="M2.05 7.5 L1.5 8.2 1.45 8.2 2.05 7.5 M-3.6 7.3 L-3.45 8.6 -3.45 8.65 -3.6 7.3 M-7.95 12.25 L-7.9 12.3 -7.95 12.3 -7.95 12.25" fill="#ffffff" fill-rule="evenodd" stroke="none"/>
    <path d="M6.7 -21.7 L2.35 -11.0 -5.3 -12.0 -11.9 -30.6 Q-6.45 -33.0 0.0 -33.0 L6.7 -32.3 6.7 -21.7" fill="#ffffff" fill-rule="evenodd" stroke="none"/>
    <path d="M10.7 -29.2 L10.7 -39.8 14.55 -38.65 10.7 -29.2" fill="#ffffff" fill-rule="evenodd" stroke="none"/>
    <path d="M29.3 -24.55 L9.8 -9.0 6.05 -9.0 16.25 -34.15 Q22.1 -32.0 26.9 -27.2 L27.7 -26.35 29.3 -24.55" fill="#ffffff" fill-rule="evenodd" stroke="none"/>
    <path d="M8.6 -4.5 L28.1 -20.05 Q33.55 -13.25 34.4 -4.5 L8.6 -4.5" fill="#ffffff" fill-rule="evenodd" stroke="none"/>
    <path d="M16.6 17.05 L26.25 1.0 35.4 1.0 35.5 4.0 Q35.5 16.4 26.7 25.2 L26.25 25.7 Q23.35 28.45 20.15 30.3 L16.6 17.05" fill="#ffffff" fill-rule="evenodd" stroke="none"/>
    <path d="M22.25 -1.5 L12.6 14.55 3.0 9.7 12.05 -1.5 22.25 -1.5" fill="#ffffff" fill-rule="evenodd" stroke="none"/>
    <path d="M3.4 13.9 L5.45 13.7 5.5 13.7 15.1 18.55 18.65 31.8 Q14.85 33.95 10.55 34.85 L3.4 13.9" fill="#ffffff" fill-rule="evenodd" stroke="none"/>
    <path d="M0.25 34.5 L-1.8 34.45 -3.9 18.35 -7.65 16.8 -3.2 13.15 -3.2 13.1 -0.35 12.9 6.8 33.85 0.25 34.5" fill="#ffffff" fill-rule="evenodd" stroke="none"/>
    <path d="M-7.15 23.6 L-5.05 39.7 Q-9.3 39.45 -13.1 38.1 L-7.15 23.6" fill="#ffffff" fill-rule="evenodd" stroke="none"/>
    <path d="M-13.1 32.85 Q-19.25 30.7 -24.25 25.7 L-24.85 25.1 -14.4 15.3 -10.95 16.75 -10.95 16.8 -10.9 16.8 -7.15 18.35 -13.1 32.85" fill="#ffffff" fill-rule="evenodd" stroke="none"/>
    <path d="M-23.35 9.15 L-15.9 12.3 -26.35 22.1 Q-31.8 16.35 -33.6 9.15 L-23.35 9.15" fill="#ffffff" fill-rule="evenodd" stroke="none"/>
    <path d="M-40.8 -3.75 L-19.6 -2.85 -22.9 3.3 -29.85 7.65 -40.1 7.65 Q-41.0 4.0 -41.0 0.0 L-40.8 -3.75" fill="#ffffff" fill-rule="evenodd" stroke="none"/>
    <path d="M-17.4 -33.1 L-10.8 -14.5 -14.1 -8.35 -35.3 -9.25 Q-34.75 -13.95 -32.85 -18.05 -30.7 -22.75 -26.75 -26.7 -22.5 -30.95 -17.4 -33.1" fill="#ffffff" fill-rule="evenodd" stroke="none"/>
    <path d="M-13.45 11.0 L-24.35 6.4 -17.4 2.05 -13.45 11.0" fill="#ffffff" fill-rule="evenodd" stroke="none"/>
    <path d="M-10.2 13.0 L-14.15 4.05 -10.85 -2.1 -5.85 8.05 -5.7 9.4 -10.15 13.05 -10.2 13.0" fill="#ffffff" fill-rule="evenodd" stroke="none"/>
    <path d="M10.55 -3.0 L1.45 8.2 1.5 8.2 1.45 8.2 -3.45 8.6 -3.6 7.3 -8.6 -2.85 -5.3 -9.0 2.35 -8.0 0.35 -3.0 10.55 -3.0" fill="#ffffff" fill-rule="evenodd" stroke="none"/>
  </g>
</svg>