<?xml version="1.0" encoding="UTF-8" standalone="no"?>
<svg xmlns:xlink="http://www.w3.org/1999/xlink" height="100.15px" width="119.6px" xmlns="http://www.w3.org/2000/svg">
  <g transform="matrix(1.0, 0.0, 0.0, 1.0, 66.4, 52.1)">
    <path d="M28.1 -38.55 L26.45 -37.2 31.1 -48.7 33.3 -47.35 28.1 -38.55 M42.5 -13.8 L49.8 -19.55 Q51.35 -16.85 52.2 -13.8 L42.5 -13.8 M0.6 -44.65 L-0.25 -42.5 -0.25 -51.1 0.6 -51.05 0.6 -44.65 M42.85 17.25 L47.15 10.15 50.0 10.15 Q49.85 14.15 48.65 17.8 L47.65 20.3 42.85 17.25 M27.2 10.05 L28.55 8.4 29.75 8.4 28.5 10.55 27.2 10.05 M1.25 27.95 L1.3 27.6 1.65 27.65 1.25 27.95 M18.4 38.35 L20.65 46.7 19.85 47.05 16.55 37.4 18.4 38.35 M35.25 30.6 L38.75 35.0 38.2 35.55 37.8 36.05 37.75 36.1 36.9 36.85 35.25 30.6 M-10.0 -50.55 L-9.2 -45.85 -10.8 -50.35 -10.0 -50.55 M-41.4 -20.85 L-49.85 -21.25 -48.65 -24.45 -48.5 -24.7 -41.4 -20.85 M-39.15 -37.45 L-32.75 -30.35 -40.6 -35.95 -39.95 -36.7 -39.15 -37.45 M-25.3 43.0 L-29.05 40.5 -23.65 35.45 -22.95 35.75 -22.45 35.95 -25.3 43.0 M-38.05 21.75 L-40.9 24.45 -42.85 21.25 -39.15 21.25 -38.05 21.75 M-59.3 3.85 L-65.15 3.85 -65.4 0.65 -54.95 1.1 -59.3 3.85" fill="#ffffff" fill-rule="evenodd" stroke="none"/>
  </g>
</svg>