<?xml version="1.0" encoding="UTF-8" standalone="no"?>
<svg xmlns:xlink="http://www.w3.org/1999/xlink" height="91.1px" width="90px" xmlns="http://www.w3.org/2000/svg">
  <g transform="matrix(1.0, 0.0, 0.0, 1.0, 50, 45.5)">
    <path d="M30.7 -32.5 L31.45 -31.65 31.5 -31.65 32.4 -30.7 13.95 -16.0 12.05 -16.0 21.3 -38.85 Q26.45 -36.75 30.7 -32.5 M13.2 -44.5 L14.75 -44.05 13.2 -40.3 13.2 -44.5 M4.2 -27.9 L0.25 -18.1 -6.05 -18.9 -12.1 -36.05 Q-7.25 -38.0 -1.5 -38.0 L4.2 -37.45 4.2 -27.9 M8.6 -0.5 L1.1 8.75 -2.4 9.05 -2.45 8.7 -2.55 8.35 -3.7 6.0 2.95 -0.5 8.6 -0.5 M37.8 -7.0 L15.95 -7.0 32.45 -20.15 Q36.8 -14.3 37.8 -7.0 M38.95 3.35 L39.0 5.35 Q39.0 17.35 30.5 25.85 L30.0 26.45 30.05 26.35 Q27.75 28.5 25.3 30.1 L22.2 18.55 31.35 3.35 38.95 3.35 M15.75 22.25 L19.0 34.3 Q16.0 35.9 12.7 36.7 L6.25 17.8 6.8 17.75 15.75 22.25 M17.05 1.0 L25.0 1.0 16.75 14.75 9.05 10.85 17.05 1.0 M1.75 38.0 L0.6 38.0 -1.4 22.75 -1.6 22.25 -2.0 21.95 -4.2 21.05 -1.25 18.6 0.45 18.45 7.0 37.6 1.75 38.0 M-23.95 -34.75 L-17.9 -17.55 -19.5 -14.5 -34.95 -25.65 -32.05 -29.0 Q-28.35 -32.7 -23.95 -34.75 M-36.35 -23.55 L-19.55 -14.45 -20.65 -12.35 -40.15 -13.2 Q-39.55 -17.15 -37.95 -20.6 L-36.35 -23.55 M-0.95 -4.2 L-0.55 -3.7 -0.3 -3.55 -5.1 1.05 -7.75 -4.35 -5.05 -9.4 0.65 -8.65 -0.9 -4.85 -0.95 -4.2 M-30.2 -1.9 L-32.65 2.6 -39.1 6.65 -48.3 6.65 Q-49.0 3.45 -49.0 0.0 L-48.9 -2.7 -30.2 -1.9 M-7.05 11.55 L-10.05 14.0 -13.3 6.65 -11.2 2.65 -7.1 10.9 -7.05 11.55 M-13.25 20.8 L-10.55 21.9 -15.75 34.6 Q-21.1 32.5 -25.5 28.15 L-16.3 19.5 -13.65 20.6 -13.25 20.8 M-35.25 11.65 L-26.55 11.65 -20.7 14.15 -29.25 22.2 Q-33.55 17.4 -35.25 11.65 M-20.85 3.55 L-18.4 9.1 -25.15 6.25 -20.85 3.55 M-8.55 33.5 L-7.1 44.6 -12.65 43.5 -8.55 33.5" fill="#ffffff" fill-rule="evenodd" stroke="none"/>
  </g>
</svg>