<?xml version="1.0" encoding="UTF-8" standalone="no"?>
<svg xmlns:xlink="http://www.w3.org/1999/xlink" height="70px" width="72.8px" xmlns="http://www.w3.org/2000/svg">
  <g transform="matrix(1.0, 0.0, 0.0, 1.0, 34.9, 34.35)">
    <path d="M0.9 -30.75 Q0.4 -30.15 -0.5 -30.15 -1.55 -30.15 -1.85 -30.8 L-1.95 -31.6 Q-1.95 -33.35 -0.35 -33.35 1.15 -33.35 1.25 -31.65 L0.9 -30.75 M5.6 -30.1 L5.45 -30.6 Q5.45 -31.4 6.4 -31.45 7.35 -31.45 7.35 -30.35 7.35 -29.6 6.6 -29.6 5.9 -29.6 5.6 -30.1 M11.25 -29.6 Q11.25 -30.65 12.3 -30.55 13.35 -30.45 13.35 -29.65 L13.1 -28.95 Q12.75 -28.55 12.2 -28.55 11.55 -28.55 11.35 -29.05 L11.25 -29.6 M17.15 -26.7 Q17.15 -27.5 18.05 -27.5 18.9 -27.5 18.9 -26.75 18.9 -25.95 18.0 -25.95 17.4 -25.95 17.2 -26.3 L17.15 -26.7 M31.55 -13.4 L31.3 -12.75 Q31.0 -12.3 30.45 -12.3 29.8 -12.3 29.55 -12.85 L29.4 -13.4 Q29.4 -14.6 30.5 -14.6 31.55 -14.6 31.55 -13.4 M26.2 -22.8 Q27.8 -23.0 27.8 -21.35 27.8 -20.9 27.45 -20.4 26.95 -19.65 26.1 -19.65 25.1 -19.65 24.75 -20.25 L24.6 -20.85 Q24.6 -22.6 26.2 -22.8 M31.55 -7.25 Q31.55 -7.85 32.3 -7.9 33.0 -7.95 33.0 -7.25 33.0 -6.6 32.25 -6.6 31.8 -6.6 31.6 -6.9 L31.55 -7.25 M36.9 1.7 Q36.9 2.4 36.3 3.35 35.45 4.65 34.0 4.65 32.55 4.65 31.95 3.5 31.65 2.9 31.65 2.2 31.65 1.4 32.1 0.7 32.85 -0.5 34.75 -0.5 36.3 -0.5 36.75 0.5 L36.9 1.7 M31.35 11.2 L31.15 11.7 30.45 12.0 Q30.05 12.0 29.85 11.65 L29.7 11.25 Q29.7 10.4 30.55 10.5 31.35 10.6 31.35 11.2 M25.5 19.95 L25.2 19.3 Q25.2 18.15 26.85 17.45 28.5 16.75 28.5 18.55 L28.05 19.6 Q27.45 20.4 26.85 20.4 25.95 20.4 25.5 19.95 M12.6 30.0 L11.85 30.45 Q11.0 30.45 11.0 29.6 11.0 28.85 11.9 28.7 12.8 28.55 12.8 29.45 L12.6 30.0 M3.35 29.7 Q5.55 29.5 5.55 32.5 5.55 33.1 4.7 33.9 3.9 34.65 3.25 34.65 1.65 34.65 1.1 32.2 1.1 29.9 3.35 29.7 M20.65 26.45 L20.6 25.9 Q20.6 24.6 21.7 24.5 22.8 24.4 22.8 25.55 L22.45 26.45 Q22.05 27.0 21.6 27.0 20.9 27.0 20.65 26.45 M-18.55 -26.8 Q-17.4 -27.0 -17.4 -25.7 -17.4 -24.6 -18.65 -24.6 -19.15 -24.6 -19.45 -25.05 L-19.7 -25.65 Q-19.7 -26.65 -18.55 -26.8 M-7.55 -30.65 L-7.75 -30.0 Q-8.05 -29.55 -8.55 -29.55 -9.6 -29.55 -9.6 -30.65 -9.6 -31.6 -8.55 -31.6 -7.55 -31.6 -7.55 -30.65 M-27.15 -21.25 Q-25.35 -21.4 -25.35 -19.35 -25.35 -18.8 -25.7 -18.1 -26.25 -17.15 -27.3 -17.15 -28.5 -17.15 -28.85 -18.05 L-29.0 -19.1 Q-29.0 -21.05 -27.15 -21.25 M-30.45 -11.6 Q-28.95 -11.95 -28.95 -10.15 -28.95 -9.5 -29.45 -8.8 -30.05 -7.95 -30.85 -7.95 -31.65 -7.95 -31.9 -8.7 L-32.0 -9.45 Q-32.0 -11.25 -30.45 -11.6 M-30.05 3.8 Q-30.7 4.5 -31.65 4.5 -33.15 4.5 -33.65 3.35 -33.95 2.75 -33.9 2.15 -33.9 -0.15 -31.7 0.3 -29.55 0.75 -29.55 2.65 -29.55 3.2 -30.05 3.8 M-25.5 20.5 Q-25.5 19.35 -24.5 19.25 -23.55 19.15 -23.55 20.4 -23.55 20.75 -23.85 21.1 -24.15 21.45 -24.6 21.45 -25.5 21.45 -25.5 20.5 M-29.55 13.15 Q-29.55 12.25 -28.65 12.2 -27.75 12.15 -27.75 12.95 L-28.0 13.6 Q-28.3 13.95 -28.7 13.95 -29.5 13.95 -29.55 13.15 M-7.4 29.4 Q-6.85 29.4 -6.6 29.8 L-6.45 30.2 Q-6.45 31.05 -7.5 31.05 -8.4 31.05 -8.4 30.25 -8.45 29.4 -7.4 29.4 M-18.0 26.9 Q-18.0 25.4 -16.35 25.5 -14.75 25.65 -14.75 27.55 -14.75 28.05 -15.15 28.4 -15.55 28.8 -16.1 28.8 -16.85 28.8 -17.5 27.8 L-18.0 26.9" fill="#ffffff" fill-rule="evenodd" stroke="none"/>
  </g>
</svg>