<?xml version="1.0" encoding="UTF-8" standalone="no"?>
<svg xmlns:xlink="http://www.w3.org/1999/xlink" height="72.15px" width="75.95px" xmlns="http://www.w3.org/2000/svg">
  <g transform="matrix(1.0, 0.0, 0.0, 1.0, 36.4, 36.05)">
    <path d="M0.65 -32.15 Q0.15 -31.55 -0.5 -31.55 -1.9 -31.55 -2.0 -33.0 -2.0 -34.95 -0.45 -35.05 1.05 -35.15 1.05 -33.15 1.05 -32.7 0.65 -32.15 M6.6 -31.95 L6.6 -32.45 Q6.6 -33.0 7.15 -33.0 7.7 -33.0 7.7 -32.45 7.7 -31.8 7.1 -31.8 6.9 -31.8 6.6 -31.95 M13.85 -31.25 L13.55 -30.6 Q13.3 -30.35 13.05 -30.35 12.4 -30.35 12.15 -30.85 L12.05 -31.25 Q12.05 -32.1 12.95 -32.05 13.85 -32.0 13.85 -31.25 M18.05 -27.6 Q18.05 -28.35 18.85 -28.25 19.65 -28.15 19.65 -27.6 19.65 -26.85 18.8 -26.85 18.35 -26.85 18.15 -27.3 L18.05 -27.6 M32.7 -14.0 L32.45 -13.35 Q32.1 -12.9 31.6 -12.9 31.0 -12.9 30.65 -13.5 L30.45 -14.1 Q30.45 -15.05 31.6 -15.2 32.7 -15.4 32.7 -14.0 M25.8 -21.3 L25.65 -21.95 Q25.65 -23.3 27.0 -23.3 28.35 -23.3 28.35 -22.25 L28.05 -21.35 Q27.6 -20.75 26.7 -20.75 26.05 -20.75 25.8 -21.3 M32.55 -7.55 Q32.55 -8.25 33.25 -8.25 33.95 -8.25 33.95 -7.6 L33.75 -7.15 Q33.55 -6.9 33.3 -6.9 32.8 -6.9 32.65 -7.2 L32.55 -7.55 M36.05 3.9 L34.9 3.65 Q34.6 4.65 33.6 4.65 32.4 4.65 32.4 3.6 32.4 2.55 33.7 2.5 L34.05 2.5 33.8 1.55 Q33.8 -0.45 36.35 -0.45 37.85 -0.45 38.3 0.3 L38.55 1.45 38.1 2.85 Q37.45 3.9 36.05 3.9 M31.3 11.75 L31.25 11.45 Q31.25 10.75 32.0 10.75 32.7 10.75 32.7 11.45 32.7 12.15 31.95 12.15 31.5 12.15 31.3 11.75 M27.8 20.5 L27.75 19.8 Q27.75 18.55 29.1 18.35 30.45 18.1 30.45 19.7 L30.1 20.7 Q29.65 21.2 29.0 21.2 28.05 21.2 27.8 20.5 M11.3 30.45 Q11.3 29.7 12.2 29.7 13.05 29.65 13.05 30.45 13.05 31.2 12.25 31.2 11.65 31.2 11.4 30.85 L11.3 30.45 M3.45 35.1 Q2.0 35.1 1.55 33.35 1.55 30.4 3.4 30.8 5.25 31.2 5.25 33.15 L5.05 34.4 Q4.7 35.1 3.45 35.1 M23.9 28.2 Q23.25 28.2 22.95 27.65 L22.8 27.1 Q22.8 25.85 23.95 25.95 25.05 26.05 25.05 27.1 L24.85 27.75 Q24.5 28.2 23.9 28.2 M-18.35 -27.0 L-18.55 -26.4 Q-18.85 -25.95 -19.35 -25.95 -20.4 -25.95 -20.4 -27.0 -20.4 -27.95 -19.35 -27.95 -18.35 -27.95 -18.35 -27.0 M-8.35 -31.2 Q-8.7 -30.8 -9.15 -30.8 -10.35 -30.8 -10.2 -31.85 -10.2 -32.95 -9.15 -32.95 -8.1 -32.95 -8.1 -31.9 L-8.35 -31.2 M-29.45 -18.9 L-29.6 -19.85 Q-29.6 -21.55 -28.1 -21.75 -26.6 -21.9 -26.6 -20.1 -26.6 -19.45 -26.85 -18.9 -27.25 -18.0 -28.1 -18.0 -29.15 -18.0 -29.45 -18.9 M-31.8 -8.45 Q-32.9 -8.45 -32.9 -9.55 -32.9 -11.65 -31.6 -11.85 -30.3 -12.0 -30.3 -10.25 -30.3 -9.7 -30.6 -9.15 -31.05 -8.45 -31.8 -8.45 M-35.15 3.35 L-35.4 2.15 Q-35.4 1.5 -34.95 1.0 -34.35 0.35 -33.2 0.35 -32.0 0.35 -31.35 1.45 -30.95 2.2 -30.95 2.65 -30.95 3.15 -31.45 3.7 -32.1 4.35 -33.0 4.35 -34.55 4.35 -35.15 3.35 M-29.6 14.6 Q-30.45 14.6 -30.3 13.9 -30.3 13.25 -29.55 13.25 -28.8 13.25 -28.8 13.9 -28.8 14.6 -29.6 14.6 M-26.6 21.75 Q-26.6 20.95 -25.7 21.05 -24.8 21.1 -24.8 21.7 -24.8 22.05 -25.1 22.3 L-25.8 22.55 Q-26.65 22.55 -26.6 21.75 M-7.05 31.35 L-7.35 31.95 -8.0 32.4 Q-9.1 32.4 -8.9 31.45 -8.9 30.5 -7.95 30.5 -7.05 30.55 -7.05 31.35 M-16.05 29.7 Q-16.5 30.15 -17.25 30.15 -18.9 30.15 -18.9 28.75 -18.9 27.4 -17.3 27.3 -15.75 27.2 -15.75 29.05 -15.75 29.35 -16.05 29.7" fill="#ffffff" fill-rule="evenodd" stroke="none"/>
  </g>
</svg>