<?xml version="1.0" encoding="UTF-8" standalone="no"?>
<svg xmlns:xlink="http://www.w3.org/1999/xlink" height="73.65px" width="78.5px" xmlns="http://www.w3.org/2000/svg">
  <g transform="matrix(1.0, 0.0, 0.0, 1.0, 38.05, 36.8)">
    <path d="M0.6 -33.9 L-0.15 -33.5 Q-1.4 -33.5 -1.55 -34.7 -1.55 -35.75 -0.3 -35.8 0.9 -35.85 0.9 -34.6 L0.6 -33.9 M7.55 -33.2 L7.3 -33.25 7.05 -33.45 Q7.1 -34.25 7.6 -34.45 8.1 -34.65 8.1 -33.75 L8.0 -33.5 7.9 -33.35 7.55 -33.2 M13.6 -33.4 Q14.3 -33.4 14.3 -32.7 14.3 -31.95 13.55 -31.95 13.05 -31.95 12.95 -32.4 L12.9 -32.7 Q12.9 -33.4 13.6 -33.4 M19.7 -29.35 Q20.4 -29.35 20.4 -28.7 20.4 -27.9 19.65 -27.9 18.95 -27.9 18.95 -28.65 18.95 -29.3 19.7 -29.35 M33.0 -15.85 Q33.9 -15.75 33.9 -14.85 33.9 -13.95 33.0 -13.95 32.1 -13.95 32.1 -14.95 32.1 -15.95 33.0 -15.85 M29.1 -22.75 Q29.1 -21.9 28.0 -21.9 26.9 -21.9 26.9 -22.8 26.9 -23.7 28.15 -23.7 29.1 -23.7 29.1 -22.75 M34.3 -8.55 Q34.8 -8.55 34.8 -7.85 34.8 -7.35 34.25 -7.35 33.75 -7.35 33.75 -7.85 33.75 -8.55 34.3 -8.55 M37.55 3.2 Q36.45 3.2 36.05 2.4 L35.85 1.6 Q35.85 0.05 37.65 -0.05 39.45 -0.2 39.45 1.55 L39.0 2.55 Q38.4 3.2 37.55 3.2 M34.9 3.05 Q35.85 3.1 35.85 3.85 35.85 4.7 34.9 4.7 34.2 4.7 34.0 4.3 L33.9 3.9 Q33.9 3.05 34.9 3.05 M32.9 11.85 Q32.9 11.4 33.95 11.45 L34.05 11.85 Q34.05 12.35 33.5 12.35 L33.0 12.3 32.9 11.85 M29.9 20.55 Q29.9 19.6 31.15 19.35 32.4 19.05 32.4 20.4 L32.1 21.05 Q31.7 21.5 30.9 21.5 30.35 21.5 30.05 21.05 L29.9 20.55 M13.4 32.05 Q13.4 32.85 12.65 32.85 12.15 32.85 12.0 32.45 L11.9 32.0 Q11.9 31.3 12.65 31.3 13.4 31.3 13.4 32.05 M1.95 33.8 Q1.95 32.4 3.45 32.3 4.95 32.25 4.95 34.1 L4.9 35.15 Q4.7 35.85 4.05 35.85 2.25 35.85 1.95 33.8 M25.05 29.15 L24.9 28.7 Q24.9 27.85 25.95 27.75 27.0 27.7 27.0 28.75 27.0 29.7 25.95 29.7 25.35 29.7 25.05 29.15 M-20.05 -28.05 Q-20.25 -27.8 -20.45 -27.8 -21.35 -27.8 -21.3 -28.6 -21.3 -29.4 -20.55 -29.3 -19.8 -29.2 -19.8 -28.55 L-20.05 -28.05 M-9.9 -32.7 Q-10.7 -32.7 -10.8 -33.5 -10.8 -34.35 -9.95 -34.25 -9.15 -34.1 -9.15 -33.5 L-9.35 -33.0 Q-9.6 -32.7 -9.9 -32.7 M-28.35 -20.7 Q-28.35 -20.25 -28.65 -19.7 -29.1 -19.05 -29.8 -19.05 -30.7 -19.05 -30.95 -19.95 L-31.05 -20.8 Q-31.05 -21.8 -29.7 -22.05 -28.35 -22.3 -28.35 -20.7 M-34.1 -10.05 Q-34.1 -11.75 -32.95 -11.9 -31.8 -12.05 -31.8 -10.4 L-32.05 -9.6 Q-32.35 -9.0 -33.05 -9.0 -34.25 -9.0 -34.1 -10.05 M-37.05 2.3 Q-37.05 0.5 -35.4 0.7 -33.75 0.9 -33.75 2.95 -33.75 3.35 -34.05 3.75 -34.5 4.2 -35.3 4.2 -36.5 4.2 -36.9 3.2 L-37.05 2.3 M-31.2 13.9 Q-30.5 13.85 -30.5 14.55 -30.5 15.3 -31.2 15.3 -32.0 15.3 -31.95 14.6 -31.95 14.0 -31.2 13.9 M-27.15 22.6 Q-26.4 22.55 -26.4 23.2 -26.4 23.9 -27.2 23.9 -28.05 23.9 -27.95 23.25 -27.95 22.65 -27.15 22.6 M-8.6 33.45 Q-9.45 33.45 -9.3 32.85 -9.3 32.2 -8.6 32.2 -7.95 32.2 -7.95 32.85 -7.95 33.45 -8.6 33.45 M-19.95 30.8 Q-19.95 29.7 -18.7 29.7 -17.45 29.7 -17.45 31.05 -17.45 32.1 -18.65 32.1 -19.35 32.1 -19.75 31.4 L-19.95 30.8" fill="#ffffff" fill-rule="evenodd" stroke="none"/>
  </g>
</svg>