<?xml version="1.0" encoding="UTF-8" standalone="no"?>
<svg xmlns:xlink="http://www.w3.org/1999/xlink" height="76.05px" width="81.95px" xmlns="http://www.w3.org/2000/svg">
  <g transform="matrix(1.0, 0.0, 0.0, 1.0, 40.15, 38.3)">
    <path d="M0.25 -35.75 Q-0.05 -35.3 -0.5 -35.3 -1.5 -35.3 -1.5 -36.3 -1.5 -37.3 -0.5 -37.3 0.45 -37.3 0.45 -36.35 L0.25 -35.75 M14.7 -34.2 Q14.7 -33.6 14.1 -33.6 13.75 -33.6 13.6 -33.85 L13.55 -34.15 Q13.55 -34.75 14.15 -34.75 14.7 -34.75 14.7 -34.2 M33.85 -16.4 Q34.65 -16.35 34.65 -15.65 34.65 -14.85 33.9 -14.85 33.35 -14.85 33.15 -15.2 L33.05 -15.6 Q33.05 -16.45 33.85 -16.4 M29.85 -23.5 Q29.85 -22.5 28.8 -22.5 27.75 -22.5 27.75 -23.5 27.75 -24.45 28.8 -24.45 29.85 -24.45 29.85 -23.5 M-11.7 -34.55 Q-11.7 -35.4 -10.85 -35.3 -10.05 -35.15 -10.05 -34.55 L-10.25 -34.05 Q-10.5 -33.75 -10.8 -33.75 -11.75 -33.75 -11.7 -34.55 M-29.75 -20.8 Q-30.1 -20.3 -30.7 -20.3 -32.05 -20.3 -32.0 -21.6 -32.0 -22.65 -30.7 -22.85 -29.4 -23.05 -29.4 -21.75 -29.4 -21.25 -29.75 -20.8 M-33.3 -11.25 Q-33.3 -10.9 -33.65 -10.25 -34.05 -9.6 -34.4 -9.6 -35.5 -9.6 -35.4 -10.5 -35.4 -11.35 -34.35 -11.8 -33.3 -12.3 -33.3 -11.25 M-35.75 3.05 Q-35.75 3.5 -36.1 3.95 -36.6 4.5 -37.35 4.5 -38.5 4.5 -38.9 3.6 L-39.15 2.7 Q-39.15 0.95 -37.45 0.95 -35.75 0.95 -35.75 3.05 M-32.45 15.1 Q-31.8 15.25 -31.8 15.6 -31.8 16.25 -32.55 16.25 -33.2 16.25 -33.15 15.65 -33.15 14.9 -32.45 15.1 M-28.95 24.95 Q-28.95 24.55 -28.35 24.55 -27.75 24.55 -27.75 24.95 -27.75 25.5 -28.35 25.5 -28.95 25.5 -28.95 24.95 M-18.75 32.8 Q-18.75 33.9 -19.9 33.9 -21.0 33.9 -21.0 32.85 -21.0 31.8 -19.85 31.85 -18.75 31.85 -18.75 32.8 M35.85 4.7 Q35.4 4.7 35.25 4.3 L35.25 4.05 Q35.25 3.4 35.95 3.4 36.6 3.4 36.6 4.05 36.6 4.7 35.85 4.7 M39.35 3.3 Q38.15 3.3 37.8 2.7 37.65 2.45 37.65 1.85 37.65 0.4 39.25 0.3 40.8 0.15 40.8 1.9 L40.4 2.75 Q39.9 3.3 39.35 3.3 M34.05 20.95 L33.7 21.8 Q33.3 22.2 32.75 22.2 31.95 22.2 31.75 21.7 L31.65 21.15 Q31.65 20.0 32.85 19.95 34.05 19.85 34.05 20.95 M13.7 33.9 L13.25 34.05 Q12.75 34.05 12.6 33.65 L12.6 33.35 Q12.6 32.7 13.3 32.7 13.95 32.7 13.95 33.35 L13.7 33.9 M5.15 35.5 Q5.15 36.75 3.9 36.75 2.45 36.75 2.6 35.4 2.6 33.9 3.9 34.05 5.15 34.2 5.15 35.5 M27.15 29.6 Q27.15 28.55 28.0 28.65 28.85 28.75 28.85 29.6 28.75 30.45 28.05 30.45 27.5 30.45 27.3 30.05 L27.15 29.6" fill="#ffffff" fill-rule="evenodd" stroke="none"/>
  </g>
</svg>