<?xml version="1.0" encoding="UTF-8" standalone="no"?>
<svg xmlns:xlink="http://www.w3.org/1999/xlink" height="78.1px" width="85.25px" xmlns="http://www.w3.org/2000/svg">
  <g transform="matrix(1.0, 0.0, 0.0, 1.0, 42.25, 39.45)">
    <path d="M0.35 -37.05 L-0.15 -36.75 Q-0.85 -36.75 -1.05 -37.25 L-1.1 -37.65 Q-1.1 -38.5 -0.25 -38.45 0.6 -38.4 0.6 -37.65 L0.35 -37.05 M15.0 -36.15 L15.45 -35.75 15.0 -35.4 14.6 -35.8 14.7 -36.15 15.0 -36.15 M34.35 -15.9 L34.35 -16.2 Q34.35 -16.85 35.05 -16.85 35.7 -16.85 35.7 -16.2 L35.45 -15.65 35.0 -15.5 Q34.5 -15.5 34.35 -15.9 M29.4 -23.55 Q28.9 -23.55 28.7 -23.95 L28.65 -24.25 Q28.65 -24.9 29.4 -24.9 30.15 -24.9 30.15 -24.2 30.15 -23.55 29.4 -23.55 M-31.95 -23.3 Q-30.9 -23.1 -30.9 -22.2 -30.9 -21.15 -31.95 -21.15 -33.0 -21.15 -33.0 -22.2 -33.0 -23.45 -31.95 -23.3 M-34.55 -11.1 L-34.8 -10.45 Q-35.1 -10.1 -35.3 -10.1 -36.1 -10.1 -36.15 -10.95 -36.15 -11.75 -35.35 -11.75 -34.55 -11.75 -34.55 -11.1 M-20.8 33.8 Q-20.0 33.8 -20.0 34.55 -20.0 35.4 -20.7 35.4 -21.65 35.4 -21.6 34.6 -21.6 33.8 -20.8 33.8 M-39.65 4.4 Q-40.55 4.4 -40.95 3.75 L-41.25 3.0 Q-41.25 1.95 -39.65 1.65 -38.1 1.3 -38.1 3.0 -38.1 4.4 -39.65 4.4 M40.95 3.15 Q40.2 3.15 39.85 2.5 L39.6 1.85 Q39.6 0.8 40.8 0.9 42.0 1.0 42.0 2.1 42.0 3.15 40.95 3.15 M35.45 22.3 Q35.45 23.15 34.55 23.15 33.95 23.15 33.8 22.65 L33.75 22.3 Q33.75 21.3 34.6 21.45 35.45 21.6 35.45 22.3 M4.3 37.65 Q3.5 37.65 3.15 36.9 L3.0 36.2 Q3.0 35.35 4.25 35.2 5.45 35.05 5.45 36.55 5.45 37.65 4.3 37.65 M30.35 30.75 L30.15 31.25 29.6 31.5 Q29.05 31.5 28.9 31.1 L28.85 30.75 Q28.85 29.95 29.6 30.05 30.35 30.15 30.35 30.75" fill="#ffffff" fill-rule="evenodd" stroke="none"/>
  </g>
</svg>