<?xml version="1.0" encoding="UTF-8" standalone="no"?>
<svg xmlns:xlink="http://www.w3.org/1999/xlink" height="66.1px" width="87.8px" xmlns="http://www.w3.org/2000/svg">
  <g transform="matrix(1.0, 0.0, 0.0, 1.0, 43.45, 26.4)">
    <path d="M30.25 -25.4 Q30.75 -25.4 30.75 -24.8 30.75 -24.3 30.2 -24.3 29.7 -24.3 29.7 -24.8 29.7 -25.4 30.25 -25.4 M43.35 2.15 L43.05 2.85 Q42.75 3.2 42.3 3.2 41.65 3.2 41.4 2.7 L41.25 2.15 Q41.25 1.1 42.3 1.1 43.35 1.05 43.35 2.15 M36.3 24.15 Q35.8 24.15 35.65 23.75 L35.55 23.35 Q35.55 22.6 36.35 22.5 37.1 22.45 37.1 23.3 37.1 24.15 36.3 24.15 M5.45 37.6 Q5.45 38.7 4.35 38.7 3.15 38.7 3.15 37.15 3.15 36.15 4.3 36.4 5.45 36.6 5.45 37.6 M32.1 32.05 L31.9 32.4 31.6 32.55 Q30.95 32.55 30.95 32.05 30.95 31.55 31.55 31.55 32.1 31.55 32.1 32.05 M-34.35 -22.55 Q-34.35 -23.65 -33.3 -23.7 -32.3 -23.7 -32.3 -22.6 L-32.55 -21.9 Q-32.85 -21.5 -33.35 -21.5 -34.45 -21.5 -34.35 -22.55 M-22.4 35.9 L-22.35 35.5 -21.35 35.55 -21.3 35.9 Q-21.3 36.5 -21.9 36.5 -22.45 36.5 -22.4 35.9 M-39.95 3.7 Q-40.4 4.25 -41.25 4.25 -42.6 4.25 -42.45 3.15 -42.45 1.75 -41.0 1.6 -39.6 1.45 -39.6 2.8 -39.6 3.3 -39.95 3.7" fill="#ffffff" fill-rule="evenodd" stroke="none"/>
  </g>
</svg>