<?xml version="1.0" encoding="UTF-8" standalone="no"?>
<svg xmlns:xlink="http://www.w3.org/1999/xlink" height="40.15px" width="90.4px" xmlns="http://www.w3.org/2000/svg">
  <g transform="matrix(1.0, 0.0, 0.0, 1.0, 44.85, -0.45)">
    <path d="M42.8 2.65 L42.75 2.25 Q42.75 1.4 43.65 1.45 44.55 1.5 44.55 2.25 L44.3 2.9 43.75 3.15 Q43.05 3.15 42.8 2.65 M3.75 38.7 Q3.75 37.7 4.7 37.7 5.6 37.7 5.6 38.7 L5.4 39.2 4.65 39.6 Q3.8 39.6 3.75 38.7 M-43.85 3.15 Q-43.85 2.1 -42.65 2.0 -41.45 1.95 -41.45 3.05 L-41.7 3.7 Q-42.1 4.2 -42.9 4.2 -43.95 4.2 -43.85 3.15" fill="#ffffff" fill-rule="evenodd" stroke="none"/>
  </g>
</svg>