<?xml version="1.0" encoding="UTF-8" standalone="no"?>
<svg xmlns:xlink="http://www.w3.org/1999/xlink" height="40.9px" width="92.75px" xmlns="http://www.w3.org/2000/svg">
  <g transform="matrix(1.0, 0.0, 0.0, 1.0, 46, -0.65)">
    <path d="M44.25 2.8 L44.1 2.4 Q44.1 1.6 44.95 1.65 45.75 1.75 45.75 2.35 L45.55 2.85 44.9 3.2 Q44.5 3.2 44.25 2.8 M4.2 39.8 Q4.2 39.0 4.95 39.1 5.7 39.2 5.7 39.8 L5.45 40.35 Q5.25 40.55 5.05 40.55 4.15 40.55 4.2 39.8 M-44.0 4.35 Q-45.0 4.35 -45.0 3.35 -45.0 2.4 -43.85 2.4 -43.4 2.4 -43.1 2.8 L-42.9 3.35 Q-42.9 4.35 -44.0 4.35" fill="#ffffff" fill-rule="evenodd" stroke="none"/>
  </g>
</svg>