<?xml version="1.0" encoding="UTF-8" standalone="no"?>
<svg xmlns:xlink="http://www.w3.org/1999/xlink" height="45.8px" width="61.9px" xmlns="http://www.w3.org/2000/svg">
  <g transform="matrix(1.0, 0.0, 0.0, 1.0, 30.95, 22.9)">
    <path d="M-4.05 -5.6 Q-3.1 -5.6 -3.15 -4.75 -3.05 -4.6 -4.3 -3.55 -3.5 -3.0 -3.5 -1.85 -3.5 3.65 -7.75 7.4 -9.1 8.5 -12.15 9.95 L-15.65 11.4 -15.7 11.4 Q-16.95 11.65 -17.3 12.15 L-17.35 12.2 -18.0 13.3 -18.1 13.4 Q-20.3 15.65 -21.6 15.6 -23.65 15.6 -24.1 13.65 L-24.15 13.5 Q-24.15 12.5 -23.45 11.75 L-23.45 11.8 -23.1 11.35 Q-25.25 12.2 -26.95 12.2 -29.6 12.25 -29.85 10.5 -30.25 8.75 -28.55 7.5 L-28.3 7.45 -25.9 6.85 -25.85 6.85 -23.75 5.45 -23.7 5.45 Q-22.5 4.6 -19.95 4.6 L-16.65 4.85 Q-12.8 4.15 -10.0 -0.05 L-8.35 -2.8 -6.45 -4.3 Q-4.6 -5.65 -4.05 -5.6" fill="#666666" fill-rule="evenodd" stroke="none"/>
    <path d="M-6.2 -3.95 L-4.05 -5.1 Q-3.6 -5.1 -3.6 -4.75 -3.6 -4.65 -5.2 -3.45 -4.0 -3.15 -4.0 -1.85 -4.0 3.45 -8.1 7.0 L-12.4 9.55 -15.8 10.95 Q-17.3 11.2 -17.7 11.9 L-18.4 13.1 Q-20.45 15.15 -21.6 15.15 -23.3 15.15 -23.7 13.5 -23.7 12.7 -23.15 12.1 L-21.85 10.35 -21.85 10.25 Q-24.75 11.7 -26.95 11.75 -29.15 11.8 -29.4 10.4 -29.7 8.95 -28.25 7.9 L-25.75 7.25 -23.45 5.85 Q-22.35 5.05 -19.95 5.05 L-16.65 5.35 Q-12.55 4.6 -9.65 0.15 L-8.0 -2.55 Q-7.8 -2.85 -6.2 -3.95" fill="#ffffff" fill-rule="evenodd" stroke="none"/>
    <path d="M14.55 -16.3 L14.55 -16.0 Q13.9 -14.0 11.45 -13.15 L9.25 -12.35 9.05 -12.35 8.8 -12.45 Q5.0 -15.2 0.05 -15.15 -6.25 -15.2 -10.7 -10.7 -15.15 -6.25 -15.15 0.05 -15.15 4.85 -12.5 8.65 L-12.4 8.95 -12.5 9.25 -12.7 9.55 -12.95 9.75 -13.05 9.75 -13.1 9.95 -13.3 10.15 -15.6 11.35 -15.75 11.5 -15.95 11.6 -16.2 11.65 -16.3 11.75 -16.6 11.95 -17.8 12.15 -18.1 12.1 -18.3 11.9 Q-21.75 6.65 -21.75 0.05 -21.75 -9.0 -15.35 -15.4 -8.95 -21.85 0.1 -21.8 8.35 -21.85 14.4 -16.55 L14.55 -16.3 M-13.05 9.75 L-13.0 9.7 -13.05 9.65 -13.05 9.75" fill="#660000" fill-rule="evenodd" stroke="none"/>
    <path d="M9.1 -12.85 Q5.15 -15.7 0.05 -15.65 -6.45 -15.7 -11.05 -11.05 -15.65 -6.45 -15.65 0.05 -15.65 5.05 -12.9 8.95 L-13.15 9.25 -13.35 9.35 -13.55 9.7 -15.85 10.9 -16.1 11.15 -16.5 11.25 -16.7 11.45 -17.9 11.65 Q-21.25 6.5 -21.25 0.05 -21.25 -8.8 -15.0 -15.05 -8.75 -21.35 0.1 -21.3 8.15 -21.35 14.05 -16.15 13.45 -14.35 11.3 -13.6 L9.1 -12.85" fill="#cc0000" fill-rule="evenodd" stroke="none"/>
    <path d="M8.6 -7.15 L11.6 -5.7 11.75 -5.55 11.85 -5.3 11.8 -5.05 11.1 -3.1 10.65 -1.5 13.0 -3.8 13.3 -3.9 13.6 -3.85 13.75 -3.6 13.75 -3.25 12.55 -0.9 Q11.5 1.3 11.25 3.8 L11.1 4.1 10.35 4.95 8.95 6.25 Q9.95 7.35 10.9 8.05 L11.55 8.5 13.6 9.95 13.6 10.0 Q14.6 10.8 14.6 11.85 L14.4 12.8 Q13.3 16.2 2.6 16.45 -5.05 16.4 -9.35 13.15 -12.85 10.45 -12.8 7.4 L-12.8 6.95 -13.05 6.3 -13.05 6.25 -13.1 5.05 -13.1 5.0 -13.0 3.15 -12.85 2.5 Q-12.6 -0.35 -10.9 -3.15 -9.1 -6.15 -9.05 -7.95 -9.1 -8.55 -9.75 -9.05 L-10.35 -8.65 Q-12.65 -6.75 -13.35 -3.5 -13.55 3.7 -19.45 3.65 -23.55 3.65 -25.35 0.35 -26.4 -1.55 -26.35 -3.45 L-26.25 -4.9 Q-26.95 -5.65 -27.2 -7.6 -27.2 -9.75 -25.15 -9.7 L-23.95 -9.6 Q-22.75 -10.85 -20.95 -11.75 -17.1 -13.75 -16.5 -15.25 L-16.5 -15.2 -16.2 -16.25 -16.25 -16.75 Q-16.25 -18.45 -14.95 -19.9 -13.2 -21.95 -9.75 -21.9 -6.25 -21.95 -4.4 -19.35 -3.2 -17.7 -3.2 -16.2 -3.25 -15.45 -3.45 -14.8 -3.25 -13.85 -3.2 -12.3 -2.15 -9.8 -1.55 -9.0 L-0.95 -9.3 Q0.8 -10.1 3.05 -10.0 L3.1 -10.0 Q4.6 -9.85 6.25 -8.75 L8.6 -7.1 8.6 -7.15 M-10.45 7.75 L-11.05 7.35 -10.85 8.15 -10.45 7.75" fill="#666666" fill-rule="evenodd" stroke="none"/>
    <path d="M8.35 -6.75 Q10.25 -5.75 11.4 -5.25 L10.65 -3.2 9.5 0.15 13.35 -3.5 12.15 -1.1 Q11.05 1.2 10.8 3.75 L9.95 4.65 Q9.0 5.9 8.2 6.05 L10.6 8.4 11.3 8.9 13.3 10.3 Q14.1 11.0 14.1 11.8 L14.0 12.65 Q12.9 15.8 2.6 15.95 -4.9 15.95 -9.1 12.75 -12.35 10.25 -12.35 7.4 L-12.3 6.85 -12.6 6.2 -12.65 5.0 -12.55 3.25 -12.4 2.55 Q-12.15 -0.25 -10.55 -2.95 -8.6 -6.1 -8.6 -7.95 -8.6 -8.85 -9.75 -9.6 L-10.65 -9.05 Q-13.05 -7.05 -13.8 -3.6 -13.95 3.2 -19.45 3.2 -23.25 3.2 -24.95 0.15 -25.9 -1.65 -25.9 -3.5 L-25.8 -5.1 Q-26.5 -5.65 -26.75 -7.65 -26.75 -9.3 -25.15 -9.3 L-23.8 -9.1 Q-22.65 -10.35 -20.75 -11.35 -16.65 -13.5 -16.05 -15.1 L-15.75 -16.2 -15.8 -16.75 Q-15.8 -18.25 -14.6 -19.6 -12.95 -21.45 -9.75 -21.45 -6.5 -21.45 -4.8 -19.1 -3.7 -17.55 -3.7 -16.2 L-3.9 -14.85 Q-3.7 -13.9 -3.65 -12.2 -2.3 -9.0 -1.7 -8.4 L-0.75 -8.9 Q0.85 -9.65 3.0 -9.55 4.45 -9.4 6.0 -8.35 L8.35 -6.75 M-10.85 7.7 L-10.9 7.7 -10.9 7.75 -10.85 7.7" fill="#ffffff" fill-rule="evenodd" stroke="none"/>
    <path d="M8.6 -13.0 Q9.1 -12.45 10.0 -12.45 11.4 -12.45 13.35 -13.65 14.5 -13.8 14.5 -15.25 14.5 -16.25 13.95 -16.65 L14.1 -16.65 14.4 -16.55 15.55 -15.4 Q21.95 -9.0 22.0 0.05 21.95 9.1 15.55 15.5 9.15 21.9 0.1 21.9 -8.95 21.9 -15.35 15.5 L-17.5 13.0 -18.3 11.9 -18.4 11.6 -18.25 11.3 -18.1 11.2 Q-17.5 12.0 -16.65 12.0 -15.7 12.0 -14.3 10.95 -12.55 10.95 -12.55 10.15 -12.75 9.0 -13.25 8.55 L-13.05 8.45 -12.8 8.45 8.6 -13.0 M15.25 0.05 Q15.25 -4.55 12.95 -8.1 L-8.1 12.9 Q-4.5 15.25 0.05 15.25 6.35 15.25 10.8 10.8 15.25 6.3 15.25 0.05" fill="#660000" fill-rule="evenodd" stroke="none"/>
    <path d="M14.05 -16.15 L15.2 -15.05 Q21.45 -8.8 21.5 0.05 21.45 8.9 15.2 15.15 8.95 21.4 0.1 21.4 -8.75 21.4 -15.0 15.15 L-17.1 12.7 -17.9 11.65 -16.7 11.45 -16.5 11.25 -16.1 11.15 -15.85 10.9 -13.55 9.7 -13.35 9.35 -13.15 9.25 -12.9 8.95 -12.8 9.1 9.15 -12.8 9.1 -12.85 11.3 -13.6 Q13.45 -14.35 14.05 -16.15 M11.15 11.15 Q15.75 6.5 15.75 0.05 15.75 -5.0 13.0 -8.9 L-8.85 13.0 Q-5.0 15.7 0.05 15.75 6.55 15.75 11.15 11.15" fill="#cc0000" fill-rule="evenodd" stroke="none"/>
    <path d="M13.55 -4.3 Q13.05 -3.8 12.6 -3.8 11.85 -3.8 11.9 -4.15 L12.05 -4.5 Q12.0 -5.35 11.0 -5.45 L10.75 -4.95 11.0 -5.5 11.25 -5.7 11.6 -5.7 Q12.3 -5.4 12.75 -5.3 L12.8 -5.25 14.05 -5.25 14.7 -5.25 15.55 -5.25 Q20.25 -5.25 23.85 -4.0 27.55 -2.7 27.7 -0.95 L29.25 1.55 Q29.95 3.0 29.95 4.65 29.95 5.85 29.55 6.2 29.2 6.6 28.3 6.7 27.9 6.75 27.7 7.1 26.25 9.15 23.4 9.2 22.15 9.15 21.25 8.6 L21.2 8.55 20.9 8.25 Q19.75 9.0 17.5 9.05 14.4 9.05 13.35 6.05 12.6 3.75 12.0 3.65 11.55 3.65 11.1 4.1 L10.85 4.2 10.6 4.15 10.45 4.05 10.85 3.6 Q12.0 2.6 12.05 2.0 L12.15 1.2 12.0 0.8 13.1 -0.8 12.85 -1.35 13.95 -2.45 13.95 -3.0 14.15 -3.65 Q14.1 -4.3 13.55 -4.3" fill="#666666" fill-rule="evenodd" stroke="none"/>
    <path d="M14.05 -4.8 L14.7 -4.8 15.55 -4.8 Q20.15 -4.8 23.65 -3.55 27.1 -2.4 27.2 -0.75 L28.8 1.7 Q29.5 3.1 29.5 4.65 29.5 5.6 29.2 5.9 L28.2 6.25 Q27.6 6.3 27.3 6.85 26.0 8.7 23.4 8.7 22.3 8.7 21.45 8.2 L20.8 7.7 Q19.8 8.55 17.5 8.55 14.7 8.55 13.8 5.9 12.9 3.2 11.95 3.2 11.4 3.2 10.8 3.75 11.05 1.2 12.15 -1.1 L13.35 -3.5 9.5 0.15 10.65 -3.2 11.4 -5.25 12.65 -4.85 14.05 -4.8" fill="#ffffff" fill-rule="evenodd" stroke="none"/>
    <path d="M8.55 -0.25 L8.6 -0.25 8.65 -0.3 10.25 -2.0 10.35 -2.1 Q11.5 -3.2 13.8 -3.2 L13.85 -3.2 15.25 -3.05 15.3 -3.0 Q10.8 -3.05 9.35 -0.15 L9.35 -0.1 7.0 1.35 6.9 1.35 Q5.8 1.9 5.8 3.15 L6.2 4.7 Q6.8 6.0 7.85 6.0 L8.6 5.8 8.65 5.75 8.9 5.95 8.9 6.0 8.55 6.4 7.3 6.55 Q6.1 6.55 5.55 4.95 L5.55 4.9 5.2 3.2 5.2 3.15 Q5.2 2.25 5.8 1.7 L5.9 1.6 5.95 1.55 8.5 -0.25 8.55 -0.25 M27.0 5.05 Q27.5 5.6 27.55 6.3 27.55 6.9 26.9 7.35 L26.75 7.1 26.95 6.35 Q26.95 5.85 25.5 4.15 24.0 2.45 24.05 1.4 24.05 0.95 24.35 0.6 24.85 2.6 25.5 3.45 L27.0 5.05 M20.45 0.8 L20.05 2.65 Q20.05 3.65 20.6 4.9 21.15 6.05 21.15 6.7 21.35 8.55 20.15 8.55 L19.85 8.35 20.55 7.5 Q20.55 6.45 20.05 5.15 19.5 3.8 19.5 2.75 19.5 0.8 20.4 0.65 L20.45 0.8 M-21.3 -6.8 L-21.6 -7.3 Q-21.65 -8.35 -20.1 -8.3 -19.4 -8.3 -19.45 -7.65 -19.5 -6.75 -20.35 -6.75 L-21.0 -7.05 -21.3 -6.8 M-21.2 -8.95 L-20.75 -9.55 Q-20.35 -10.0 -19.25 -10.0 L-18.8 -10.0 Q-17.7 -9.95 -16.9 -9.05 -16.35 -8.3 -16.3 -7.7 -16.35 -7.05 -17.15 -6.05 -18.2 -4.95 -19.55 -4.95 -19.9 -4.95 -19.9 -5.15 -19.9 -5.4 -18.9 -5.6 -17.9 -5.9 -17.65 -6.2 L-16.95 -7.75 Q-16.95 -9.5 -19.85 -9.5 -20.7 -9.5 -21.0 -8.9 L-21.2 -8.95 M-26.9 -9.0 Q-26.55 -9.6 -25.7 -9.6 L-23.85 -9.25 -25.3 -9.1 Q-26.05 -9.1 -26.35 -8.6 -26.7 -8.2 -26.7 -7.25 -26.7 -6.4 -25.4 -5.3 L-25.65 -5.1 Q-26.9 -5.15 -27.2 -7.25 L-27.2 -7.3 Q-27.3 -8.45 -26.9 -9.0 M-10.1 -15.0 Q-10.55 -14.15 -11.25 -14.15 -12.0 -14.2 -12.2 -14.6 L-12.35 -15.1 Q-12.35 -15.6 -11.85 -15.6 L-11.3 -15.45 -11.15 -15.6 -11.25 -16.05 Q-11.95 -16.35 -11.9 -16.85 L-11.6 -17.2 -11.1 -17.25 Q-10.25 -17.35 -10.1 -15.15 L-10.1 -15.0 M-15.25 -16.75 L-15.15 -16.95 -15.0 -17.0 -14.75 -17.05 Q-14.3 -17.05 -14.1 -16.75 -13.95 -16.5 -13.95 -16.0 -14.1 -14.7 -14.7 -14.75 L-14.85 -14.8 -15.1 -15.05 -15.2 -15.15 -15.2 -15.3 -14.95 -16.15 -15.15 -16.4 -15.25 -16.55 -15.25 -16.75 M-3.85 -6.8 L-3.9 -6.95 -2.95 -8.05 -1.75 -8.9 -1.35 -8.65 Q-3.0 -7.15 -3.85 -6.8 M-10.05 -9.0 L-10.35 -9.3 Q-10.4 -9.6 -9.3 -10.15 -8.15 -10.8 -7.3 -10.75 -5.55 -10.8 -5.55 -9.85 -5.55 -8.95 -6.9 -8.95 L-8.9 -9.4 -10.05 -9.0" fill="#666666" fill-rule="evenodd" stroke="none"/>
  </g>
</svg>