<?xml version="1.0" encoding="UTF-8" standalone="no"?>
<svg xmlns:xlink="http://www.w3.org/1999/xlink" height="53.4px" width="93.25px" xmlns="http://www.w3.org/2000/svg">
  <g transform="matrix(1.0, 0.0, 0.0, 1.0, 40.9, 42.45)">
    <path d="M24.4 -41.15 Q25.4 -40.0 24.4 -38.6 23.7 -37.65 22.6 -37.3 L20.2 -36.25 23.55 -41.2 24.4 -41.15 M-37.1 -31.9 L-35.55 -32.35 Q-32.45 -29.45 -31.7 -25.2 -35.45 -27.25 -37.3 -31.15 L-37.1 -31.9 M-17.9 -37.25 Q-19.5 -38.25 -19.7 -40.25 L-19.65 -41.1 Q-17.75 -41.55 -16.8 -39.8 L-16.25 -38.2 -17.35 -37.05 -17.9 -37.25 M37.6 4.45 Q35.8 3.85 34.4 2.3 32.0 -0.15 30.3 -3.0 35.8 -1.45 39.95 2.65 L39.9 3.65 Q39.0 5.0 37.6 4.45 M51.1 -13.25 L51.35 -13.0 51.05 -12.2 Q48.8 -10.75 46.6 -11.6 43.6 -12.85 41.2 -15.1 46.4 -15.6 51.1 -13.25 M-35.8 -16.2 Q-30.85 -16.3 -27.35 -12.7 L-34.6 -11.75 Q-36.45 -11.4 -38.3 -12.45 -40.35 -13.55 -39.75 -15.65 L-35.8 -16.2 M-26.75 -3.75 Q-27.3 -3.4 -28.05 -3.4 -29.45 -3.75 -29.4 -5.3 -29.35 -6.75 -28.4 -7.6 -27.1 -8.6 -25.6 -9.25 L-18.95 -12.0 Q-16.15 -11.15 -16.4 -8.15 -16.55 -6.5 -18.15 -5.8 L-22.3 -5.7 Q-24.85 -5.15 -26.75 -3.75 M-15.6 -1.05 L-12.3 -2.85 Q-6.9 -2.3 -1.55 -0.8 -0.95 -0.7 -0.45 -0.3 0.45 0.4 0.95 1.4 3.1 5.7 -0.3 9.0 -2.35 10.9 -4.65 9.0 L-5.65 7.8 Q-6.75 5.5 -9.0 4.75 -11.2 4.1 -13.35 3.0 -16.15 1.65 -15.6 -1.05" fill="url(#gradient0)" fill-rule="evenodd" stroke="none"/>
    <path d="M6.2 -6.5 Q5.95 -8.65 8.1 -9.75 10.45 -10.95 13.05 -11.1 15.3 -11.3 15.65 -8.95 15.8 -7.9 16.4 -6.95 L18.4 -4.2 Q20.15 -2.15 18.95 0.05 L17.2 0.1 Q14.25 -1.65 13.05 -5.1 L12.45 -5.7 Q10.45 -6.25 8.75 -5.25 7.35 -5.05 6.5 -6.1 L6.2 -6.5 M13.35 -21.4 Q13.7 -20.1 12.8 -19.0 10.9 -16.75 7.8 -16.7 6.65 -16.7 5.35 -17.35 3.95 -18.15 2.4 -18.35 L-2.1 -17.9 Q-3.85 -18.25 -4.95 -19.4 L-5.35 -19.85 Q-6.55 -22.55 -8.45 -25.2 -9.25 -26.35 -9.0 -27.85 L-6.5 -29.3 Q-4.55 -30.3 -2.9 -28.9 L-0.15 -26.9 Q4.2 -23.55 9.55 -23.85 L10.9 -23.7 Q12.8 -23.25 13.35 -21.4 M37.55 -26.5 Q37.85 -25.85 37.3 -25.35 33.9 -22.5 29.2 -22.55 29.5 -24.45 31.65 -25.25 34.1 -26.35 36.65 -26.7 L37.55 -26.5" fill="url(#gradient1)" fill-rule="evenodd" stroke="none"/>
    <path d="M24.4 -41.15 L23.55 -41.2 20.2 -36.25 22.6 -37.3 Q23.7 -37.65 24.4 -38.6 25.4 -40.0 24.4 -41.15 M37.55 -26.5 L36.65 -26.7 Q34.1 -26.35 31.65 -25.25 29.5 -24.45 29.2 -22.55 33.9 -22.5 37.3 -25.35 37.85 -25.85 37.55 -26.5 M13.35 -21.4 Q12.8 -23.25 10.9 -23.7 L9.55 -23.85 Q4.2 -23.55 -0.15 -26.9 L-2.9 -28.9 Q-4.55 -30.3 -6.5 -29.3 L-9.0 -27.85 Q-9.25 -26.35 -8.45 -25.2 -6.55 -22.55 -5.35 -19.85 L-4.95 -19.4 Q-3.85 -18.25 -2.1 -17.9 L2.4 -18.35 Q3.95 -18.15 5.35 -17.35 6.65 -16.7 7.8 -16.7 10.9 -16.75 12.8 -19.0 13.7 -20.1 13.35 -21.4 M6.2 -6.5 L6.5 -6.1 Q7.35 -5.05 8.75 -5.25 10.45 -6.25 12.45 -5.7 L13.05 -5.1 Q14.25 -1.65 17.2 0.1 L18.95 0.05 Q20.15 -2.15 18.4 -4.2 L16.4 -6.95 Q15.8 -7.9 15.65 -8.95 15.3 -11.3 13.05 -11.1 10.45 -10.95 8.1 -9.75 5.95 -8.65 6.2 -6.5 M51.1 -13.25 Q46.4 -15.6 41.2 -15.1 43.6 -12.85 46.6 -11.6 48.8 -10.75 51.05 -12.2 L51.35 -13.0 51.1 -13.25 M37.6 4.45 Q39.0 5.0 39.9 3.65 L39.95 2.65 Q35.8 -1.45 30.3 -3.0 32.0 -0.15 34.4 2.3 35.8 3.85 37.6 4.45 M-17.9 -37.25 L-17.35 -37.05 -16.25 -38.2 -16.8 -39.8 Q-17.75 -41.55 -19.65 -41.1 L-19.7 -40.25 Q-19.5 -38.25 -17.9 -37.25 M-37.1 -31.9 L-37.3 -31.15 Q-35.45 -27.25 -31.7 -25.2 -32.45 -29.45 -35.55 -32.35 L-37.1 -31.9 M-35.8 -16.2 Q-30.85 -16.3 -27.35 -12.7 L-34.6 -11.75 Q-36.45 -11.4 -38.3 -12.45 -40.35 -13.55 -39.75 -15.65 L-35.8 -16.2 M-26.75 -3.75 Q-27.3 -3.4 -28.05 -3.4 -29.45 -3.75 -29.4 -5.3 -29.35 -6.75 -28.4 -7.6 -27.1 -8.6 -25.6 -9.25 L-18.95 -12.0 Q-16.15 -11.15 -16.4 -8.15 -16.55 -6.5 -18.15 -5.8 L-22.3 -5.7 Q-24.85 -5.15 -26.75 -3.75 M-15.6 -1.05 Q-16.15 1.65 -13.35 3.0 -11.2 4.1 -9.0 4.75 -6.75 5.5 -5.65 7.8 L-4.65 9.0 Q-2.35 10.9 -0.3 9.0 3.1 5.7 0.95 1.4 0.45 0.4 -0.45 -0.3 -0.95 -0.7 -1.55 -0.8 -6.9 -2.3 -12.3 -2.85 L-15.6 -1.05 Z" fill="none" stroke="#660000" stroke-linecap="round" stroke-linejoin="round" stroke-opacity="0.4" stroke-width="1"/>
  </g>
  <defs>
    <radialGradient cx="0" cy="0" gradientTransform="matrix(0.035, -0.0068, 0.0037, 0.0191, -7.5, -5.45)" gradientUnits="userSpaceOnUse" id="gradient0" r="819.2" spreadMethod="pad">
      <stop offset="0.2549019607843137" stop-color="#ef8f8f"></stop>
      <stop offset="1.0" stop-color="#d66a6a"></stop>
    </radialGradient>
    <linearGradient gradientTransform="matrix(0.0026, 0.0331, -0.0137, 0.0011, -64.55, -40.6)" gradientUnits="userSpaceOnUse" id="gradient1" spreadMethod="pad" x1="-819.2" x2="819.2">
      <stop offset="0.0" stop-color="#a90101"></stop>
      <stop offset="1.0" stop-color="#8b1b98"></stop>
    </linearGradient>
  </defs>
</svg>