<?xml version="1.0" encoding="UTF-8" standalone="no"?>
<svg xmlns:xlink="http://www.w3.org/1999/xlink" height="40.55px" width="58.55px" xmlns="http://www.w3.org/2000/svg">
  <g transform="matrix(1.0, 0.0, 0.0, 1.0, 27.2, 33.95)">
    <path d="M-22.55 -18.15 Q-22.45 -18.85 -22.65 -19.6 -23.25 -22.15 -22.1 -24.4 L-21.85 -24.5 Q-20.2 -24.7 -18.8 -24.0 -17.5 -23.35 -16.75 -24.5 -16.15 -25.35 -15.85 -26.3 L-15.25 -27.9 Q-13.75 -30.7 -11.4 -32.65 -11.0 -32.95 -10.55 -32.95 L-9.8 -32.75 Q-8.95 -32.25 -8.5 -31.25 L-8.05 -30.2 -7.6 -29.15 -6.95 -27.9 Q-6.05 -26.3 -4.3 -25.85 -3.15 -25.6 -2.2 -26.1 L-1.35 -26.65 -0.7 -27.05 -0.2 -27.35 Q0.9 -27.85 1.45 -27.1 L1.6 -26.55 1.35 -25.6 Q0.8 -24.25 0.8 -22.8 0.8 -21.85 1.7 -21.3 L3.05 -21.15 Q4.5 -21.6 5.7 -22.55 L7.15 -23.8 8.9 -25.45 Q10.85 -27.45 13.55 -27.15 14.0 -27.1 14.3 -26.7 15.2 -25.75 14.1 -24.75 L13.0 -23.9 Q11.6 -22.9 10.9 -21.35 L10.7 -20.55 Q10.45 -18.35 12.45 -17.9 14.4 -17.45 16.4 -17.85 17.55 -18.05 18.6 -18.75 L19.25 -19.0 Q20.85 -19.35 22.4 -20.0 L23.6 -20.7 Q24.7 -21.6 26.1 -21.95 L27.15 -22.1 Q27.9 -22.2 28.45 -21.75 29.05 -21.35 28.7 -20.65 L28.15 -19.9 Q27.1 -18.7 25.65 -18.25 L25.1 -18.05 Q24.45 -17.75 24.3 -16.95 L24.15 -16.2 Q23.9 -15.5 24.15 -14.8 L24.55 -14.35 21.7 -12.6 20.9 -12.1 Q19.5 -11.35 17.9 -11.65 L17.05 -11.95 16.2 -12.4 Q15.35 -13.0 15.05 -13.95 14.85 -14.7 13.95 -14.55 L13.05 -14.35 Q10.2 -13.5 7.75 -11.8 L6.25 -10.8 3.55 -8.9 Q2.95 -8.45 2.25 -8.25 1.85 -8.1 1.4 -8.25 -0.35 -8.85 -1.45 -10.35 L-2.25 -10.85 Q-4.25 -11.1 -6.0 -10.15 L-6.95 -9.65 -9.1 -8.7 -10.35 -8.4 -11.2 -8.6 Q-12.7 -9.6 -13.7 -11.15 -14.45 -12.3 -14.75 -13.75 L-14.95 -14.9 Q-15.0 -15.9 -15.8 -16.55 L-16.45 -16.8 -18.45 -16.55 -18.85 -16.45 Q-20.8 -16.2 -22.1 -17.65 L-22.55 -18.15" fill="url(#gradient0)" fill-rule="evenodd" stroke="none"/>
    <path d="M24.55 -14.35 Q26.55 -15.2 28.85 -15.25 29.7 -15.25 30.05 -14.5 L30.25 -13.9 Q30.45 -13.35 30.15 -12.85 29.45 -11.7 28.35 -11.05 L27.2 -10.45 26.9 -10.25 26.5 -9.9 26.1 -9.4 26.05 -9.05 Q27.05 -9.0 27.55 -8.45 28.25 -7.65 27.3 -6.8 25.05 -4.7 22.05 -3.35 20.2 -2.5 18.7 -1.1 L17.55 0.0 16.95 0.55 16.3 1.05 16.0 1.25 15.5 1.45 Q14.25 1.85 13.0 3.25 L11.9 3.55 Q4.3 5.6 0.1 5.6 -3.35 5.6 -8.9 3.75 -13.45 2.25 -14.65 1.4 L-18.75 -1.25 -19.5 -1.75 -19.8 -2.45 -20.5 -4.6 -21.0 -6.2 -21.25 -6.95 Q-22.25 -9.3 -23.65 -11.35 L-23.95 -11.85 -24.3 -12.45 Q-25.6 -14.3 -26.15 -16.0 L-26.2 -16.4 -25.85 -18.6 -25.6 -19.0 -25.05 -19.6 Q-24.5 -20.0 -24.05 -19.45 L-23.75 -19.2 -22.55 -18.15 -22.1 -17.65 Q-20.8 -16.2 -18.85 -16.45 L-18.45 -16.55 -16.45 -16.8 -15.8 -16.55 Q-15.0 -15.9 -14.95 -14.9 L-14.75 -13.75 Q-14.45 -12.3 -13.7 -11.15 -12.7 -9.6 -11.2 -8.6 L-10.35 -8.4 -9.1 -8.7 -6.95 -9.65 -6.0 -10.15 Q-4.25 -11.1 -2.25 -10.85 L-1.45 -10.35 Q-0.35 -8.85 1.4 -8.25 1.85 -8.1 2.25 -8.25 2.95 -8.45 3.55 -8.9 L6.25 -10.8 7.75 -11.8 Q10.2 -13.5 13.05 -14.35 L13.95 -14.55 Q14.85 -14.7 15.05 -13.95 15.35 -13.0 16.2 -12.4 L17.05 -11.95 17.9 -11.65 Q19.5 -11.35 20.9 -12.1 L21.7 -12.6 24.55 -14.35" fill="url(#gradient1)" fill-rule="evenodd" stroke="none"/>
    <path d="M-22.55 -18.15 Q-22.45 -18.85 -22.65 -19.6 -23.25 -22.15 -22.1 -24.4 L-21.85 -24.5 Q-20.2 -24.7 -18.8 -24.0 -17.5 -23.35 -16.75 -24.5 -16.15 -25.35 -15.85 -26.3 L-15.25 -27.9 Q-13.75 -30.7 -11.4 -32.65 -11.0 -32.95 -10.55 -32.95 L-9.8 -32.75 Q-8.95 -32.25 -8.5 -31.25 L-8.05 -30.2 -7.6 -29.15 -6.95 -27.9 Q-6.05 -26.3 -4.3 -25.85 -3.15 -25.6 -2.2 -26.1 L-1.35 -26.65 -0.7 -27.05 -0.2 -27.35 Q0.9 -27.85 1.45 -27.1 L1.6 -26.55 1.35 -25.6 Q0.8 -24.25 0.8 -22.8 0.8 -21.85 1.7 -21.3 L3.05 -21.15 Q4.5 -21.6 5.7 -22.55 L7.15 -23.8 8.9 -25.45 Q10.85 -27.45 13.55 -27.15 14.0 -27.1 14.3 -26.7 15.2 -25.75 14.1 -24.75 L13.0 -23.9 Q11.6 -22.9 10.9 -21.35 L10.7 -20.55 Q10.45 -18.35 12.45 -17.9 14.4 -17.45 16.4 -17.85 17.55 -18.05 18.6 -18.75 L19.25 -19.0 Q20.85 -19.35 22.4 -20.0 L23.6 -20.7 Q24.7 -21.6 26.1 -21.95 L27.15 -22.1 Q27.9 -22.2 28.45 -21.75 29.05 -21.35 28.7 -20.65 L28.15 -19.9 Q27.1 -18.7 25.65 -18.25 L25.1 -18.05 Q24.45 -17.75 24.3 -16.95 L24.15 -16.2 Q23.9 -15.5 24.15 -14.8 L24.55 -14.35 Q26.55 -15.2 28.85 -15.25 29.7 -15.25 30.05 -14.5 L30.25 -13.9 Q30.45 -13.35 30.15 -12.85 29.45 -11.7 28.35 -11.05 L27.2 -10.45 26.9 -10.25 26.5 -9.9 26.1 -9.4 26.05 -9.05 Q27.05 -9.0 27.55 -8.45 28.25 -7.65 27.3 -6.8 25.05 -4.7 22.05 -3.35 20.2 -2.5 18.7 -1.1 L17.55 0.0 16.95 0.55 16.3 1.05 16.0 1.25 15.5 1.45 Q14.25 1.85 13.0 3.25 M-19.5 -1.75 Q-18.5 0.65 -16.35 2.25 L-15.65 2.55 -15.05 2.65 M24.55 -14.35 L21.7 -12.6 20.9 -12.1 Q19.5 -11.35 17.9 -11.65 L17.05 -11.95 16.2 -12.4 Q15.35 -13.0 15.05 -13.95 14.85 -14.7 13.95 -14.55 L13.05 -14.35 Q10.2 -13.5 7.75 -11.8 L6.25 -10.8 3.55 -8.9 Q2.95 -8.45 2.25 -8.25 1.85 -8.1 1.4 -8.25 -0.35 -8.85 -1.45 -10.35 L-2.25 -10.85 Q-4.25 -11.1 -6.0 -10.15 L-6.95 -9.65 -9.1 -8.7 -10.35 -8.4 -11.2 -8.6 Q-12.7 -9.6 -13.7 -11.15 -14.45 -12.3 -14.75 -13.75 L-14.95 -14.9 Q-15.0 -15.9 -15.8 -16.55 L-16.45 -16.8 -18.45 -16.55 -18.85 -16.45 Q-20.8 -16.2 -22.1 -17.65 L-22.55 -18.15 -23.75 -19.2 -24.05 -19.45 Q-24.5 -20.0 -25.05 -19.6 L-25.6 -19.0 -25.85 -18.6 -26.2 -16.4 -26.15 -16.0 Q-25.6 -14.3 -24.3 -12.45 L-23.95 -11.85 -23.65 -11.35 Q-22.25 -9.3 -21.25 -6.95 L-21.0 -6.2 -20.5 -4.6 -19.8 -2.45 -19.5 -1.75" fill="none" stroke="#660000" stroke-linecap="round" stroke-linejoin="round" stroke-opacity="0.4" stroke-width="1"/>
  </g>
  <defs>
    <linearGradient gradientTransform="matrix(0.0018, 0.0224, -0.0137, 0.0011, -47.7, -18.45)" gradientUnits="userSpaceOnUse" id="gradient0" spreadMethod="pad" x1="-819.2" x2="819.2">
      <stop offset="0.0" stop-color="#a90101"></stop>
      <stop offset="1.0" stop-color="#8b1b98"></stop>
    </linearGradient>
    <radialGradient cx="0" cy="0" gradientTransform="matrix(0.035, -0.0068, 0.0037, 0.0191, -7.5, -5.45)" gradientUnits="userSpaceOnUse" id="gradient1" r="819.2" spreadMethod="pad">
      <stop offset="0.2549019607843137" stop-color="#ef8f8f"></stop>
      <stop offset="1.0" stop-color="#d66a6a"></stop>
    </radialGradient>
  </defs>
</svg>