<?xml version="1.0" encoding="UTF-8" standalone="no"?>
<svg xmlns:xlink="http://www.w3.org/1999/xlink" height="14.9px" width="12.45px" xmlns="http://www.w3.org/2000/svg">
  <g transform="matrix(1.0, 0.0, 0.0, 1.0, 4.8, 7.6)">
    <path d="M-1.3 -0.2 Q-2.05 -0.55 -2.0 -0.8 L-1.95 -1.75 -1.65 -2.5 -1.2 -2.55 -0.4 -2.0 -0.35 -1.95 0.35 -1.5 3.85 1.45 Q5.5 3.15 6.35 5.4 L6.65 6.3 5.65 5.0 Q4.05 3.15 2.1 1.9 L-1.2 -0.15 -1.3 -0.2" fill="#746058" fill-rule="evenodd" stroke="none"/>
    <path d="M-2.45 -6.6 L-1.95 -6.05 -1.65 -5.75 -1.45 -5.55 Q-0.85 -4.95 -0.55 -4.1 -0.25 -3.25 -0.3 -2.35 L-0.4 -2.05 -0.4 -2.0 -1.2 -2.55 -1.65 -2.5 -1.95 -1.75 -2.0 -0.8 Q-2.05 -0.55 -1.3 -0.2 L-2.35 0.1 -3.2 -0.05 -3.2 -0.3 Q-3.2 -0.8 -3.35 -1.1 L-3.2 -1.35 -3.65 -2.75 Q-3.9 -3.75 -3.75 -4.75 L-3.6 -5.3 Q-3.05 -6.35 -2.45 -6.6" fill="#ef8f8f" fill-rule="evenodd" stroke="none"/>
    <path d="M-0.4 -2.0 L-0.4 -2.05 -0.3 -2.35 Q-0.25 -3.25 -0.55 -4.1 -0.85 -4.95 -1.45 -5.55 L-1.65 -5.75 -1.95 -6.05 -2.45 -6.6 M-3.2 -0.05 L-2.35 0.1 -1.3 -0.2 Q-2.05 -0.55 -2.0 -0.8 L-1.95 -1.75 -1.65 -2.5 -1.2 -2.55 -0.4 -2.0 -0.35 -1.95 0.35 -1.5 3.85 1.45 Q5.5 3.15 6.35 5.4 L6.65 6.3 5.65 5.0 Q4.05 3.15 2.1 1.9 L-1.2 -0.15 -1.3 -0.2" fill="none" stroke="#660000" stroke-linecap="round" stroke-linejoin="round" stroke-opacity="0.4" stroke-width="1"/>
  </g>
</svg>