<?xml version="1.0" encoding="UTF-8" standalone="no"?>
<svg xmlns:xlink="http://www.w3.org/1999/xlink" height="8.9px" width="9.5px" xmlns="http://www.w3.org/2000/svg">
  <g transform="matrix(1.0, 0.0, 0.0, 1.0, 4.65, 4.55)">
    <path d="M-3.55 -0.25 L-3.6 -0.2 -3.6 -0.3 -3.55 -0.25" fill="#d6baba" fill-rule="evenodd" stroke="none"/>
    <path d="M1.35 -2.6 L1.75 -1.55 2.0 -0.6 Q2.35 0.8 3.4 1.65 L3.85 2.0 3.75 2.55 3.2 3.35 2.85 3.05 Q1.15 1.65 -1.05 1.65 -3.35 1.65 -3.6 -0.2 L-3.55 -0.25 Q-3.2 0.95 -1.7 0.9 -0.2 0.85 0.6 -0.2 1.35 -1.25 1.35 -2.15 L1.35 -2.6" fill="#8b1b98" fill-rule="evenodd" stroke="none"/>
    <path d="M1.35 -2.6 L1.35 -2.15 Q1.35 -1.25 0.6 -0.2 -0.2 0.85 -1.7 0.9 -3.2 0.95 -3.55 -0.25 L-3.6 -0.3 -3.6 -1.05 -3.3 -2.05 Q-2.9 -2.95 -1.85 -3.3 L-1.35 -3.45 Q0.5 -3.9 1.35 -2.6 M-1.5 -1.55 Q-2.4 -0.8 -1.8 0.05 -2.4 -0.8 -1.5 -1.55" fill="#cc0000" fill-rule="evenodd" stroke="none"/>
    <path d="M3.85 2.0 L3.4 1.65 Q2.35 0.8 2.0 -0.6 L1.75 -1.55 1.35 -2.6 Q0.5 -3.9 -1.35 -3.45 L-1.85 -3.3 Q-2.9 -2.95 -3.3 -2.05 L-3.6 -1.05 -3.6 -0.3 -3.6 -0.2 Q-3.35 1.65 -1.05 1.65 1.15 1.65 2.85 3.05 L3.2 3.35" fill="none" stroke="#660000" stroke-linecap="round" stroke-linejoin="round" stroke-opacity="0.4" stroke-width="1"/>
    <path d="M-1.8 0.05 Q-2.4 -0.8 -1.5 -1.55" fill="none" stroke="#333333" stroke-linecap="round" stroke-linejoin="round" stroke-width="1"/>
    <path d="M-1.4 -2.45 Q-1.4 -2.1 -1.7 -2.1 -2.15 -2.1 -2.15 -2.45 -2.15 -2.7 -1.75 -2.75 -1.4 -2.8 -1.4 -2.45" fill="#ffffff" fill-rule="evenodd" stroke="none"/>
    <path d="M-1.4 -2.45 Q-1.4 -2.8 -1.75 -2.75 -2.15 -2.7 -2.15 -2.45 -2.15 -2.1 -1.7 -2.1 -1.4 -2.1 -1.4 -2.45 M-2.0 -1.25 Q-2.75 -1.25 -2.75 -1.9 L-2.4 -2.65 Q-1.9 -3.15 -1.2 -3.15 -0.45 -3.15 -0.45 -2.25 -0.45 -1.25 -2.0 -1.25" fill="#ffffff" fill-opacity="0.4" fill-rule="evenodd" stroke="none"/>
    <path d="M0.7 -0.8 Q-0.1 0.55 -1.7 0.55 L-2.85 0.3 -3.25 -0.1 -3.25 -0.4 -3.05 -0.45 -2.65 -0.2 -1.6 0.05 Q-0.75 0.05 0.0 -0.35 L0.7 -0.8" fill="#ffffff" fill-opacity="0.6117647" fill-rule="evenodd" stroke="none"/>
  </g>
</svg>