<?xml version="1.0" encoding="UTF-8" standalone="no"?>
<svg xmlns:xlink="http://www.w3.org/1999/xlink" height="19.35px" width="36.6px" xmlns="http://www.w3.org/2000/svg">
  <g transform="matrix(1.0, 0.0, 0.0, 1.0, 18.25, 9.65)">
    <path d="M-12.3 1.9 L-11.7 0.4 -11.25 -0.5 -10.75 -1.4 Q-10.0 -2.55 -8.9 -3.5 L-5.25 -6.05 Q-3.1 -7.15 -0.75 -7.65 L3.75 -8.4 8.55 -8.6 12.7 -8.05 Q14.7 -7.45 16.2 -5.9 17.0 -5.1 17.2 -3.85 17.55 -1.65 17.2 -0.9 L15.7 1.2 Q14.55 2.55 12.35 2.8 10.1 3.05 8.5 4.85 6.85 6.65 4.95 6.15 L2.1 5.3 -0.3 4.95 Q-1.1 5.2 -1.75 5.65 -2.75 6.3 -3.85 6.5 L-4.85 6.55 -5.25 6.95 -5.5 7.95 -5.65 8.3 -5.95 8.65 -6.5 8.7 Q-7.95 8.5 -8.85 7.4 L-10.35 5.7 -10.65 5.4 -11.45 5.05 -11.85 4.9 -12.35 4.7 Q-13.85 4.6 -14.55 5.1 -13.85 4.6 -12.35 4.7 L-11.85 4.9 -11.05 5.75 Q-10.9 6.2 -11.25 6.8 L-15.05 6.6 -15.8 6.35 Q-16.5 5.95 -16.85 5.4 -17.25 4.7 -17.25 3.85 L-17.2 3.4 Q-16.4 2.0 -14.65 1.8 L-12.3 1.9 -11.05 2.4 -9.8 3.1 -8.85 3.9 -7.7 5.1 -8.85 3.9 -9.8 3.1 -11.05 2.4 -12.3 1.9 M-7.05 6.95 Q-6.55 6.95 -6.55 6.45 -6.55 5.9 -7.05 5.9 -7.6 5.9 -7.6 6.35 -7.5 6.95 -7.05 6.95 M-8.85 5.25 Q-8.45 5.55 -8.6 4.8 -8.8 4.05 -10.55 3.05 -12.35 2.0 -13.35 2.0 -14.75 2.0 -15.95 2.7 -16.95 3.3 -16.95 3.75 -16.95 4.15 -16.55 4.15 L-15.4 3.55 Q-14.3 2.95 -13.55 2.95 -12.4 2.95 -10.8 3.95 -9.2 4.95 -8.85 5.25 M-1.45 3.65 Q-3.0 4.1 -3.0 4.75 L-2.55 5.1 -2.05 4.85 -1.45 4.45 -0.2 4.15 0.05 3.9 Q0.05 3.25 -1.45 3.65 M9.25 2.1 L9.05 2.05 6.9 1.95 4.95 1.4 Q4.6 1.4 4.6 1.7 L6.4 4.05 6.55 3.9 Q6.2 4.25 6.2 4.45 L6.25 4.6 Q6.35 4.75 6.55 4.75 L8.35 3.35 9.5 2.65 10.4 2.0 9.25 2.1" fill="#8b1b98" fill-rule="evenodd" stroke="none"/>
    <path d="M-1.45 3.65 Q0.05 3.25 0.05 3.9 L-0.2 4.15 -1.45 4.45 -2.05 4.85 -2.55 5.1 -3.0 4.75 Q-3.0 4.1 -1.45 3.65 M-8.85 5.25 Q-9.2 4.95 -10.8 3.95 -12.4 2.95 -13.55 2.95 -14.3 2.95 -15.4 3.55 L-16.55 4.15 Q-16.95 4.15 -16.95 3.75 -16.95 3.3 -15.95 2.7 -14.75 2.0 -13.35 2.0 -12.35 2.0 -10.55 3.05 -8.8 4.05 -8.6 4.8 -8.45 5.55 -8.85 5.25 M-7.05 6.95 Q-7.5 6.95 -7.6 6.35 -7.6 5.9 -7.05 5.9 -6.55 5.9 -6.55 6.45 -6.55 6.95 -7.05 6.95 M9.25 2.1 L10.4 2.0 9.5 2.65 8.35 3.35 6.55 4.75 Q6.35 4.75 6.25 4.6 L6.2 4.45 Q6.2 4.25 6.55 3.9 L6.4 4.05 4.6 1.7 Q4.6 1.4 4.95 1.4 L6.9 1.95 9.05 2.05 9.25 2.1" fill="#c081dc" fill-rule="evenodd" stroke="none"/>
    <path d="M-11.85 4.9 L-11.45 5.05 -10.65 5.4 -10.35 5.7 -8.85 7.4 Q-7.95 8.5 -6.5 8.7 L-5.95 8.65 -5.65 8.3 -5.5 7.95 -5.25 6.95 -4.85 6.55 -3.85 6.5 Q-2.75 6.3 -1.75 5.65 -1.1 5.2 -0.3 4.95 L2.1 5.3 4.95 6.15 Q6.85 6.65 8.5 4.85 10.1 3.05 12.35 2.8 14.55 2.55 15.7 1.2 L17.2 -0.9 Q17.55 -1.65 17.2 -3.85 17.0 -5.1 16.2 -5.9 14.7 -7.45 12.7 -8.05 L8.55 -8.6 3.75 -8.4 -0.75 -7.65 Q-3.1 -7.15 -5.25 -6.05 L-8.9 -3.5 Q-10.0 -2.55 -10.75 -1.4 L-11.25 -0.5 -11.7 0.4 -12.3 1.9 -11.05 2.4 -9.8 3.1 -8.85 3.9 -7.7 5.1 M-11.85 4.9 L-12.35 4.7 Q-13.85 4.6 -14.55 5.1 M-12.3 1.9 L-14.65 1.8 Q-16.4 2.0 -17.2 3.4 L-17.25 3.85 Q-17.25 4.7 -16.85 5.4 -16.5 5.95 -15.8 6.35 L-15.05 6.6 -11.25 6.8 Q-10.9 6.2 -11.05 5.75 L-11.85 4.9" fill="none" stroke="#333333" stroke-linecap="round" stroke-linejoin="round" stroke-opacity="0.49019608" stroke-width="1"/>
  </g>
</svg>