<?xml version="1.0" encoding="UTF-8" standalone="no"?>
<svg xmlns:xlink="http://www.w3.org/1999/xlink" height="19.35px" width="35.75px" xmlns="http://www.w3.org/2000/svg">
  <g transform="matrix(1.0, 0.0, 0.0, 1.0, 17.8, 9.8)">
    <path d="M-0.7 -7.75 L1.0 -8.05 2.85 -8.6 Q5.75 -8.9 8.65 -8.7 L9.9 -8.5 11.95 -7.85 13.75 -7.15 15.7 -5.55 Q16.5 -4.6 16.8 -3.35 L16.95 -1.4 16.7 -0.6 16.1 0.1 15.45 0.65 14.6 1.25 13.7 1.55 Q12.55 1.85 11.55 2.4 10.9 2.8 10.5 3.5 L10.15 4.3 9.8 5.25 8.5 5.85 7.8 6.15 6.85 6.2 4.6 5.65 4.25 5.55 2.7 5.1 0.0 4.45 -1.75 5.15 -3.4 5.85 -4.2 6.2 -5.2 7.85 -6.0 8.55 -7.2 8.35 Q-8.15 8.0 -8.85 7.35 L-9.95 6.15 -10.5 5.6 -11.5 4.55 -11.7 4.35 -11.7 4.5 -10.85 6.2 -11.5 6.95 -11.7 6.95 -12.75 6.95 -14.1 6.75 -15.35 6.2 Q-16.05 5.9 -16.4 5.25 -16.85 4.55 -16.8 3.7 -16.8 3.05 -16.35 2.65 -15.6 2.05 -14.6 1.95 L-13.5 1.8 -12.35 1.85 -11.95 1.05 -11.7 0.65 -11.55 0.45 -9.55 -2.25 -7.1 -4.85 -6.45 -5.35 -4.65 -6.3 -2.5 -7.2 -0.7 -7.75 M3.3 4.4 Q3.55 3.9 3.0 3.65 0.35 2.3 -1.85 2.85 L-1.75 3.15 -1.7 3.35 -1.55 4.25 3.3 4.4 M11.1 1.5 L10.35 2.0 9.55 1.8 7.85 1.6 5.8 0.95 5.7 0.95 5.5 0.85 Q5.25 0.85 5.25 1.15 L5.25 1.25 5.25 1.35 6.85 3.0 7.65 3.95 8.15 4.5 8.1 4.55 8.05 4.65 8.0 4.75 8.15 5.0 8.35 5.05 Q8.85 5.05 8.85 4.75 L8.9 4.65 9.25 4.1 9.8 3.15 Q10.85 2.2 12.25 1.5 12.25 0.85 11.1 1.5 M-7.95 4.4 L-9.65 3.4 -7.95 4.4 M-11.45 2.35 L-11.7 2.3 -12.85 2.2 Q-16.25 2.05 -16.25 3.45 -16.25 3.9 -15.65 3.9 -15.25 3.9 -14.75 3.45 -14.25 2.95 -12.95 2.95 L-11.7 3.25 -10.85 3.65 -10.35 4.0 Q-9.5 5.5 -8.9 5.5 -8.6 5.5 -8.6 5.0 -8.6 4.1 -9.55 3.5 L-9.65 3.45 -9.55 3.8 -9.65 3.4 -11.45 2.35 -12.35 1.85 -11.45 2.35 M-7.35 6.4 Q-7.35 6.95 -6.85 6.95 -6.35 6.95 -6.35 6.45 -6.35 5.9 -6.85 5.95 -7.35 6.0 -7.35 6.4" fill="#8b1b98" fill-rule="evenodd" stroke="none"/>
    <path d="M11.1 1.5 Q12.25 0.85 12.25 1.5 10.85 2.2 9.8 3.15 L9.25 4.1 8.9 4.65 8.85 4.75 Q8.85 5.05 8.35 5.05 L8.15 5.0 8.0 4.75 8.05 4.65 8.1 4.55 8.15 4.5 7.65 3.95 6.85 3.0 5.25 1.35 5.25 1.25 5.25 1.15 Q5.25 0.85 5.5 0.85 L5.7 0.95 5.8 0.95 7.85 1.6 9.55 1.8 10.35 2.0 11.1 1.5 M3.3 4.4 L-1.55 4.25 -1.7 3.35 -1.75 3.15 -1.85 2.85 Q0.35 2.3 3.0 3.65 3.55 3.9 3.3 4.4 M-9.65 3.4 L-9.55 3.8 -9.65 3.45 -9.55 3.5 Q-8.6 4.1 -8.6 5.0 -8.6 5.5 -8.9 5.5 -9.5 5.5 -10.35 4.0 L-10.85 3.65 -11.7 3.25 -12.95 2.95 Q-14.25 2.95 -14.75 3.45 -15.25 3.9 -15.65 3.9 -16.25 3.9 -16.25 3.45 -16.25 2.05 -12.85 2.2 L-11.7 2.3 -11.45 2.35 -9.65 3.4 M-7.35 6.4 Q-7.35 6.0 -6.85 5.95 -6.35 5.9 -6.35 6.45 -6.35 6.95 -6.85 6.95 -7.35 6.95 -7.35 6.4" fill="#c081dc" fill-rule="evenodd" stroke="none"/>
    <path d="M-0.7 -7.75 L1.0 -8.05 2.85 -8.6 Q5.75 -8.9 8.65 -8.7 L9.9 -8.5 11.95 -7.85 13.75 -7.15 15.7 -5.55 Q16.5 -4.6 16.8 -3.35 L16.95 -1.4 16.7 -0.6 16.1 0.1 15.45 0.65 14.6 1.25 13.7 1.55 Q12.55 1.85 11.55 2.4 10.9 2.8 10.5 3.5 L10.15 4.3 9.8 5.25 8.5 5.85 7.8 6.15 6.85 6.2 4.6 5.65 4.25 5.55 2.7 5.1 0.0 4.45 -1.75 5.15 -3.4 5.85 -4.2 6.2 -5.2 7.85 -6.0 8.55 -7.2 8.35 Q-8.15 8.0 -8.85 7.35 L-9.95 6.15 -10.5 5.6 -11.5 4.55 -11.7 4.35 -11.7 4.5 -10.85 6.2 -11.5 6.95 -11.7 6.95 -12.75 6.95 -14.1 6.75 -15.35 6.2 Q-16.05 5.9 -16.4 5.25 -16.85 4.55 -16.8 3.7 -16.8 3.05 -16.35 2.65 -15.6 2.05 -14.6 1.95 L-13.5 1.8 -12.35 1.85 -11.95 1.05 -11.7 0.65 -11.55 0.45 -9.55 -2.25 -7.1 -4.85 -6.45 -5.35 -4.65 -6.3 -2.5 -7.2 -0.7 -7.75 M-9.65 3.4 L-7.95 4.4 M-11.45 2.35 L-12.35 1.85 M-11.45 2.35 L-9.65 3.4" fill="none" stroke="#660000" stroke-linecap="round" stroke-linejoin="round" stroke-opacity="0.4" stroke-width="1"/>
  </g>
</svg>