<?xml version="1.0" encoding="UTF-8" standalone="no"?>
<svg xmlns:xlink="http://www.w3.org/1999/xlink" height="11.3px" width="13.45px" xmlns="http://www.w3.org/2000/svg">
  <g transform="matrix(1.0, 0.0, 0.0, 1.0, -10.3, 8.75)">
    <path d="M17.15 -6.6 L16.7 -5.5 17.0 -5.4 19.25 -7.75 17.5 -5.25 18.65 -4.85 20.2 -6.4 20.45 -6.1 Q20.45 -5.6 19.6 -4.45 L20.6 -4.0 20.75 -4.15 21.05 -3.85 Q22.4 -3.25 22.75 -2.9 L22.75 -2.8 21.95 -2.75 20.8 -3.2 20.75 -3.15 21.35 -2.9 21.5 -2.45 Q21.3 -2.3 21.15 -2.3 L20.2 -2.45 19.1 -1.2 17.75 0.25 18.8 0.55 18.8 0.65 18.55 0.95 17.15 0.9 16.4 1.55 16.0 1.2 16.25 0.8 14.95 0.55 14.0 1.45 13.75 1.2 14.05 0.4 13.1 0.15 12.2 1.1 12.2 0.9 Q12.2 0.6 12.55 0.0 L12.5 0.0 12.2 0.35 11.9 0.1 12.0 -0.15 12.95 -1.75 11.3 -2.2 11.3 -2.4 11.3 -2.75 11.65 -2.8 13.4 -2.4 14.05 -3.35 14.1 -3.4 11.6 -3.7 Q12.35 -4.35 14.85 -4.4 L15.2 -4.9 12.95 -5.2 Q12.55 -5.2 12.5 -5.35 L15.15 -5.8 15.85 -5.7 17.0 -7.0 17.15 -6.6 M13.6 -0.45 L14.55 -0.35 15.35 -1.3 14.5 -1.45 13.6 -0.45 M17.95 -4.15 L16.9 -4.45 16.75 -4.25 17.9 -4.05 17.95 -4.15 M19.1 -3.8 L19.05 -3.75 20.0 -3.45 19.1 -3.8 M15.9 -3.15 L16.2 -3.6 15.0 -2.05 15.8 -1.85 16.85 -3.0 16.9 -3.0 15.9 -3.15 M15.6 -3.85 L16.3 -4.6 16.15 -4.65 15.45 -3.7 15.6 -3.85 M16.6 -1.1 L15.7 -0.2 16.8 0.05 17.65 -0.95 17.45 -0.95 16.6 -1.1 M19.2 -2.65 L18.25 -2.8 18.65 -3.3 17.1 -1.55 18.0 -1.35 19.2 -2.65" fill="#660000" fill-opacity="0.42352942" fill-rule="evenodd" stroke="none"/>
  </g>
</svg>