<?xml version="1.0" encoding="UTF-8" standalone="no"?>
<svg xmlns:xlink="http://www.w3.org/1999/xlink" height="64.05px" width="65px" xmlns="http://www.w3.org/2000/svg">
  <g transform="matrix(1.0, 0.0, 0.0, 1.0, 32.5, 32.05)">
    <path d="M7.85 -26.0 L7.65 -26.6 6.7 -27.5 6.7 -27.55 4.2 -28.6 1.95 -29.3 1.8 -29.35 -2.15 -29.95 -3.4 -30.0 -5.25 -29.65 -5.3 -29.65 -5.5 -29.65 -6.95 -28.95 -7.25 -28.85 -7.7 -28.65 Q-10.65 -27.3 -11.4 -27.1 L-12.1 -26.95 -17.05 -25.6 -18.2 -25.05 -18.95 -24.6 -18.9 -24.6 -20.1 -23.8 Q-25.95 -19.45 -27.6 -15.2 -30.55 -7.7 -30.65 -4.95 L-30.3 -1.55 -30.3 -1.15 -30.25 -0.3 -29.45 -0.9 -27.55 -1.8 Q-23.55 -3.6 -20.2 -6.25 L-17.85 -8.25 Q-16.35 -9.7 -15.0 -11.3 L-14.95 -11.35 -13.05 -13.95 -13.1 -13.95 -12.45 -15.0 -12.8 -13.9 -13.25 -12.8 -14.5 -10.5 Q-15.95 -8.2 -20.35 -4.85 -24.75 -1.55 -29.6 0.05 L-30.2 0.3 -30.25 -0.1 -30.2 0.7 -30.2 0.8 -30.15 0.8 -30.1 0.75 -30.0 0.7 -29.65 0.55 -29.5 0.6 -29.5 0.75 -29.6 1.05 -29.8 1.45 -29.8 1.5 -29.8 1.75 -29.75 1.75 -29.4 3.1 Q-28.85 4.15 -28.6 5.25 -28.2 7.05 -26.05 9.05 -24.45 10.5 -22.6 12.95 L-19.6 16.65 -18.8 17.4 Q-14.3 20.6 -9.35 22.95 L0.4 27.8 Q5.7 30.5 11.5 29.3 17.05 28.3 21.45 24.45 25.15 21.25 27.4 16.95 L27.55 16.65 Q28.9 14.25 29.5 12.4 L29.7 11.55 29.9 10.75 30.0 10.0 30.2 6.2 30.2 5.65 30.2 5.5 30.15 4.1 30.1 3.1 30.1 3.05 30.05 2.4 29.95 1.6 29.8 1.7 29.1 1.9 Q28.65 1.9 28.5 1.65 L28.45 1.35 29.45 -0.3 30.3 -2.3 30.4 -3.35 Q30.4 -6.0 29.2 -8.1 L27.9 -9.85 27.35 -10.4 25.3 -11.7 24.25 -12.3 24.3 -12.55 24.75 -12.9 24.9 -12.9 25.2 -12.85 23.65 -14.8 20.1 -19.0 Q16.9 -21.95 12.3 -23.8 L9.15 -25.2 9.1 -24.9 8.65 -24.65 Q8.05 -24.65 7.95 -25.4 L7.85 -26.0 M1.4 -24.1 L1.5 -24.35 1.7 -24.05 1.95 -23.45 1.95 -23.35 1.5 -22.25 1.25 -22.25 1.2 -23.0 1.25 -23.45 1.4 -24.1 M7.0 -25.1 Q7.0 -25.5 7.15 -25.6 L7.45 -25.5 8.6 -23.5 8.55 -23.0 8.15 -22.9 Q7.85 -22.9 7.35 -23.75 L6.95 -24.65 7.0 -25.1 M9.05 -26.15 Q10.0 -26.4 13.6 -24.5 17.95 -22.2 20.65 -20.0 26.55 -13.55 26.55 -12.55 L26.55 -12.25 28.05 -11.3 30.2 -8.65 Q31.05 -7.4 31.35 -5.95 L31.5 -3.25 Q31.3 -1.25 30.9 0.0 L30.9 0.1 31.25 5.65 Q31.25 16.1 23.7 23.75 16.8 30.75 8.85 31.0 L6.3 31.0 Q1.5 30.4 -2.15 28.0 -5.55 25.3 -7.25 24.4 L-14.5 20.9 Q-18.7 18.9 -20.25 17.35 L-23.25 13.6 Q-25.15 11.05 -26.9 9.55 -29.5 7.15 -29.5 5.75 -29.5 4.6 -30.1 3.65 L-30.55 2.65 -30.65 2.65 Q-31.6 2.65 -31.5 -5.65 -31.5 -6.65 -30.75 -9.2 L-29.85 -12.5 Q-29.45 -14.5 -26.55 -19.25 -25.55 -20.7 -23.55 -22.6 -21.5 -24.45 -19.2 -26.0 L-15.95 -27.3 -11.4 -28.25 Q-8.95 -28.6 -7.7 -29.5 L-7.55 -29.6 Q-6.2 -30.55 -5.1 -30.85 L-4.7 -30.85 -4.75 -30.65 -4.75 -30.7 -1.4 -31.05 -1.25 -31.0 3.8 -29.9 Q7.65 -28.75 7.65 -28.0 8.7 -27.1 9.05 -26.15 M-8.15 -25.35 Q-8.7 -25.0 -8.95 -25.0 L-9.35 -25.1 -9.45 -25.45 Q-9.45 -25.65 -8.65 -25.95 L-8.4 -26.05 -7.55 -26.3 -7.4 -26.05 -8.15 -25.35 M1.95 -16.5 L2.65 -17.2 2.7 -17.25 2.8 -17.2 2.8 -17.1 2.15 -16.2 1.15 -14.9 -1.8 -11.6 Q-5.4 -8.1 -9.9 -5.85 L-10.55 -5.55 -10.8 -5.45 -10.85 -5.45 -10.9 -5.5 -10.95 -5.55 -10.9 -5.6 -10.75 -5.7 -9.65 -6.5 -9.55 -6.55 -9.5 -6.6 -9.3 -6.75 -8.25 -7.5 Q-4.9 -10.05 -1.7 -13.0 L0.75 -15.3 1.4 -15.95 1.95 -16.5 M20.05 -5.65 L20.25 -6.05 21.05 -6.15 21.1 -5.95 20.75 -5.6 20.35 -5.4 20.1 -5.45 20.05 -5.65 M22.6 -11.15 Q23.3 -11.0 23.3 -10.65 23.3 -10.35 22.75 -10.35 21.85 -10.35 21.85 -10.8 21.85 -11.25 22.6 -11.15 M20.55 -7.35 L20.5 -7.5 Q20.5 -7.8 21.1 -7.85 21.65 -7.9 21.65 -7.5 21.65 -7.15 21.05 -7.15 L20.55 -7.35 M25.85 -0.4 L25.95 -0.2 25.85 0.65 25.75 0.75 25.45 0.4 25.4 0.2 25.4 -0.25 25.85 -0.4 M27.95 1.5 L27.75 1.9 27.65 1.95 27.45 1.9 27.35 1.55 27.6 0.4 27.8 0.4 28.05 0.9 27.95 1.5 M20.45 9.35 L15.15 10.1 14.65 10.1 14.55 10.0 Q14.75 9.6 17.75 9.0 L23.2 8.35 23.65 8.35 24.05 8.35 24.95 8.45 25.25 8.55 20.45 9.35 M-5.9 -25.15 L-5.55 -24.85 -6.5 -23.9 -6.7 -23.95 -6.8 -24.25 -6.5 -24.8 -5.9 -25.15" fill="#a36a6a" fill-rule="evenodd" stroke="none"/>
    <path d="M-6.95 -28.95 L-5.5 -29.65 -5.3 -29.65 -5.25 -29.65 -3.4 -30.0 -2.15 -29.95 1.8 -29.35 1.95 -29.3 4.2 -28.6 6.7 -27.55 6.7 -27.5 7.65 -26.6 7.85 -26.0 7.45 -25.5 7.15 -25.6 Q7.0 -25.5 7.0 -25.1 5.65 -24.05 3.25 -24.05 L1.7 -24.05 1.5 -24.35 1.4 -24.1 Q-2.75 -24.3 -5.0 -25.5 -7.05 -26.55 -7.05 -27.95 L-6.95 -28.95 M9.1 -24.9 L9.15 -25.2 12.3 -23.8 Q16.9 -21.95 20.1 -19.0 L23.65 -14.8 25.2 -12.85 24.9 -12.9 24.75 -12.9 24.3 -12.55 Q23.65 -12.8 21.8 -14.45 L21.8 -14.5 21.8 -14.55 Q21.8 -15.35 20.45 -16.4 18.7 -17.6 17.85 -18.3 L14.7 -20.05 Q12.75 -21.15 11.55 -21.4 L11.6 -21.35 9.9 -22.05 Q9.1 -22.45 9.1 -24.75 L9.1 -24.9 M25.3 -11.7 L27.35 -10.4 27.9 -9.85 29.2 -8.1 Q30.4 -6.0 30.4 -3.35 L30.3 -2.3 29.9 -2.35 29.1 -2.2 27.95 -2.05 27.2 -2.05 Q26.05 -2.3 25.15 -2.85 L23.9 -4.15 23.75 -4.15 Q22.85 -5.4 22.85 -6.9 L22.95 -8.35 23.65 -10.1 25.3 -11.7 M29.8 1.7 L29.95 1.6 30.05 2.4 29.95 1.75 29.8 1.7 M30.15 4.1 L30.2 5.5 30.2 5.65 30.15 6.0 30.2 6.2 30.0 10.0 29.8 10.8 29.9 10.75 29.7 11.55 29.5 12.4 29.25 12.4 28.9 12.65 28.35 12.85 Q27.75 12.85 27.6 12.15 L27.6 11.4 27.8 9.3 28.3 6.4 28.55 5.05 Q28.75 4.2 29.35 3.9 29.95 3.6 30.15 4.1 M-18.9 -24.6 L-18.95 -24.6 -18.2 -25.05 -17.05 -25.6 -12.1 -26.95 Q-11.15 -26.8 -11.15 -26.35 -11.15 -25.75 -13.8 -25.55 L-18.6 -24.75 -18.9 -24.6 M-9.5 -6.6 L-9.55 -6.55 -9.45 -6.65 -9.5 -6.6 M7.9 -5.35 L7.9 -5.25 7.8 -5.15 7.9 -5.35" fill="#f2eaea" fill-rule="evenodd" stroke="none"/>
    <path d="M30.3 -2.3 L29.45 -0.3 28.45 1.35 28.5 1.65 Q28.65 1.9 29.1 1.9 L29.8 1.7 29.95 1.75 30.05 2.4 30.1 3.05 30.1 3.1 29.75 3.25 Q28.4 3.8 28.25 4.5 28.05 5.25 28.15 7.0 L27.5 9.3 27.55 10.1 Q27.55 11.15 26.8 12.45 26.05 13.8 26.05 14.5 26.05 15.15 26.95 16.0 L27.55 16.65 27.4 16.95 Q23.5 21.3 18.25 23.4 12.65 25.55 6.65 25.15 1.2 24.55 -4.1 23.1 -9.65 21.65 -14.95 19.2 L-18.8 17.4 -19.6 16.65 -22.6 12.95 Q-24.45 10.5 -26.05 9.05 -28.2 7.05 -28.6 5.25 -28.85 4.15 -29.4 3.1 L-29.75 1.75 -29.8 1.75 -29.8 1.5 -29.8 1.45 -29.6 1.05 -29.5 0.75 -29.3 0.75 -26.4 0.75 Q-16.35 -0.1 -12.1 -1.1 L-3.5 -3.25 Q-1.5 -3.6 4.0 -5.6 9.35 -8.1 9.9 -7.8 L8.8 -7.65 Q10.1 -8.85 10.1 -7.85 L9.05 -4.85 Q7.95 -1.55 7.95 -1.15 7.95 -0.15 4.1 6.2 1.4 10.65 -0.55 12.3 L1.7 11.35 Q3.6 10.6 4.6 10.45 L13.85 6.15 Q16.1 5.0 18.8 3.3 23.05 0.65 23.05 -0.15 L22.7 -0.95 Q22.35 -1.3 22.35 -1.85 L22.6 -3.25 Q23.0 -4.3 23.9 -4.15 L25.15 -2.85 Q25.6 -2.2 27.2 -2.05 L27.95 -2.05 29.1 -2.2 29.9 -2.35 30.3 -2.3 M-30.0 0.7 L-30.1 0.75 -30.15 0.8 -30.2 0.8 -30.2 0.7 -30.0 0.7 M-13.25 -12.8 L-12.8 -13.9 -12.7 -13.6 Q-12.7 -13.35 -13.25 -12.8 M-13.1 -13.95 L-13.05 -13.95 -14.95 -11.35 -15.0 -11.3 Q-16.35 -9.7 -17.85 -8.25 L-20.2 -6.25 Q-23.55 -3.6 -27.55 -1.8 L-29.45 -0.9 -30.25 -0.3 -30.3 -1.15 -30.3 -1.55 -30.3 -1.85 -30.45 -3.35 -29.35 -5.05 Q-28.4 -6.85 -23.4 -8.05 -21.45 -8.5 -19.65 -9.3 -17.8 -10.15 -16.85 -10.95 L-14.55 -13.05 Q-13.55 -13.9 -13.1 -13.95 M21.8 -14.5 Q21.75 -13.65 19.75 -13.7 17.65 -13.8 15.95 -16.2 14.25 -18.65 11.55 -21.4 12.75 -21.15 14.7 -20.05 L17.85 -18.3 Q18.7 -17.6 20.45 -16.4 21.8 -15.35 21.8 -14.55 L21.8 -14.5 M1.25 -23.45 L1.2 -23.0 1.25 -22.25 1.5 -22.25 1.95 -23.35 1.95 -23.45 5.35 -23.85 4.0 -22.5 Q2.8 -21.3 0.05 -21.3 -2.7 -21.3 -5.7 -23.2 -7.6 -24.4 -8.15 -25.35 L-7.4 -26.05 -7.55 -26.3 -8.4 -26.05 -8.4 -26.15 Q-8.4 -27.05 -7.3 -26.3 -5.4 -25.05 -4.55 -24.85 L-2.05 -24.05 1.25 -23.45 M2.15 -16.2 L1.2 -14.95 1.15 -14.9 2.15 -16.2 M-9.9 -5.85 L-10.15 -5.55 -10.55 -5.55 -9.9 -5.85 M-10.75 -5.7 L-10.8 -5.75 -9.7 -8.05 -7.85 -11.8 Q-7.6 -12.45 -5.65 -13.15 L-2.7 -14.25 -0.1 -15.7 Q1.45 -16.5 1.95 -16.5 L1.4 -15.95 0.75 -15.3 -1.7 -13.0 Q-4.9 -10.05 -8.25 -7.5 L-9.3 -6.75 -9.5 -6.6 -9.45 -6.65 -9.55 -6.55 -9.65 -6.5 -10.75 -5.7 M7.9 -5.35 L7.8 -5.15 7.9 -5.25 7.9 -5.35 M25.85 -0.4 L25.4 -0.25 25.4 0.2 25.45 0.4 25.75 0.75 25.85 0.65 25.95 -0.2 25.85 -0.4 M27.95 1.5 L28.05 0.9 27.8 0.4 27.6 0.4 27.35 1.55 27.45 1.9 27.65 1.95 27.75 1.9 27.95 1.5 M20.45 9.35 L25.25 8.55 24.95 8.45 24.05 8.35 23.65 8.35 23.2 8.35 17.75 9.0 Q14.75 9.6 14.55 10.0 L14.65 10.1 15.15 10.1 20.45 9.35 M-5.9 -25.15 L-6.5 -24.8 -6.8 -24.25 -6.7 -23.95 -6.5 -23.9 -5.55 -24.85 -5.9 -25.15" fill="#e0cbcb" fill-rule="evenodd" stroke="none"/>
    <path d="M27.4 16.95 Q25.15 21.25 21.45 24.45 17.05 28.3 11.5 29.3 5.7 30.5 0.4 27.8 L-9.35 22.95 Q-14.3 20.6 -18.8 17.4 L-14.95 19.2 Q-9.65 21.65 -4.1 23.1 1.2 24.55 6.65 25.15 12.65 25.55 18.25 23.4 23.5 21.3 27.4 16.95" fill="#cca9a9" fill-rule="evenodd" stroke="none"/>
    <path d="M-6.95 -28.95 L-7.05 -27.95 Q-7.05 -26.55 -5.0 -25.5 -2.75 -24.3 1.4 -24.1 L1.25 -23.45 -2.05 -24.05 -4.55 -24.85 Q-5.4 -25.05 -7.3 -26.3 -8.4 -27.05 -8.4 -26.15 L-8.4 -26.05 -8.65 -25.95 Q-9.45 -25.65 -9.45 -25.45 L-9.35 -25.1 -8.95 -25.0 Q-8.7 -25.0 -8.15 -25.35 -7.6 -24.4 -5.7 -23.2 -2.7 -21.3 0.05 -21.3 2.8 -21.3 4.0 -22.5 L5.35 -23.85 1.95 -23.45 1.7 -24.05 3.25 -24.05 Q5.65 -24.05 7.0 -25.1 L6.95 -24.65 7.35 -23.75 Q7.85 -22.9 8.15 -22.9 L8.55 -23.0 8.6 -23.5 7.45 -25.5 7.85 -26.0 7.95 -25.4 Q8.05 -24.65 8.65 -24.65 L9.1 -24.9 9.1 -24.75 Q9.1 -22.45 9.9 -22.05 L11.6 -21.35 11.55 -21.4 Q14.25 -18.65 15.95 -16.2 17.65 -13.8 19.75 -13.7 21.75 -13.65 21.8 -14.5 L21.8 -14.45 Q23.65 -12.8 24.3 -12.55 L24.25 -12.3 25.3 -11.7 23.65 -10.1 22.95 -8.35 22.85 -6.9 Q22.85 -5.4 23.75 -4.15 L23.9 -4.15 Q23.0 -4.3 22.6 -3.25 L22.35 -1.85 Q22.35 -1.3 22.7 -0.95 L23.05 -0.15 Q23.05 0.65 18.8 3.3 16.1 5.0 13.85 6.15 L4.6 10.45 Q3.6 10.6 1.7 11.35 L-0.55 12.3 Q1.4 10.65 4.1 6.2 7.95 -0.15 7.95 -1.15 7.95 -1.55 9.05 -4.85 L10.1 -7.85 Q10.1 -8.85 8.8 -7.65 L9.9 -7.8 Q9.35 -8.1 4.0 -5.6 -1.5 -3.6 -3.5 -3.25 L-12.1 -1.1 Q-16.35 -0.1 -26.4 0.75 L-29.3 0.75 -29.5 0.75 -29.5 0.6 -29.65 0.55 -30.0 0.7 -30.2 0.7 -30.25 -0.1 -30.2 0.3 -29.6 0.05 Q-24.75 -1.55 -20.35 -4.85 -15.95 -8.2 -14.5 -10.5 L-13.25 -12.8 Q-12.7 -13.35 -12.7 -13.6 L-12.8 -13.9 -12.45 -15.0 -13.1 -13.95 Q-13.55 -13.9 -14.55 -13.05 L-16.85 -10.95 Q-17.8 -10.15 -19.65 -9.3 -21.45 -8.5 -23.4 -8.05 -28.4 -6.85 -29.35 -5.05 L-30.45 -3.35 -30.3 -1.85 -30.3 -1.55 -30.65 -4.95 Q-30.55 -7.7 -27.6 -15.2 -25.95 -19.45 -20.1 -23.8 L-18.9 -24.6 -18.6 -24.75 -13.8 -25.55 Q-11.15 -25.75 -11.15 -26.35 -11.15 -26.8 -12.1 -26.95 L-11.4 -27.1 Q-10.65 -27.3 -7.7 -28.65 L-7.25 -28.85 -6.95 -28.95 M30.1 3.1 L30.15 4.1 Q29.95 3.6 29.35 3.9 28.75 4.2 28.55 5.05 L28.3 6.4 27.8 9.3 27.6 11.4 27.6 12.15 Q27.75 12.85 28.35 12.85 L28.9 12.65 29.25 12.4 29.5 12.4 Q28.9 14.25 27.55 16.65 L26.95 16.0 Q26.05 15.15 26.05 14.5 26.05 13.8 26.8 12.45 27.55 11.15 27.55 10.1 L27.5 9.3 28.15 7.0 Q28.05 5.25 28.25 4.5 28.4 3.8 29.75 3.25 L30.1 3.1 M30.2 5.65 L30.2 6.2 30.15 6.0 30.2 5.65 M30.0 10.0 L29.9 10.75 29.8 10.8 30.0 10.0 M2.15 -16.2 L2.8 -17.1 2.8 -17.2 2.7 -17.25 2.65 -17.2 1.95 -16.5 Q1.45 -16.5 -0.1 -15.7 L-2.7 -14.25 -5.65 -13.15 Q-7.6 -12.45 -7.85 -11.8 L-9.7 -8.05 -10.8 -5.75 -10.75 -5.7 -10.9 -5.6 -10.95 -5.55 -10.9 -5.5 -10.85 -5.45 -10.8 -5.45 -10.55 -5.55 -10.15 -5.55 -9.9 -5.85 Q-5.4 -8.1 -1.8 -11.6 L1.15 -14.9 1.2 -14.95 2.15 -16.2 M20.05 -5.65 L20.1 -5.45 20.35 -5.4 20.75 -5.6 21.1 -5.95 21.05 -6.15 20.25 -6.05 20.05 -5.65 M25.15 -2.85 Q26.05 -2.3 27.2 -2.05 25.6 -2.2 25.15 -2.85 M20.55 -7.35 L21.05 -7.15 Q21.65 -7.15 21.65 -7.5 21.65 -7.9 21.1 -7.85 20.5 -7.8 20.5 -7.5 L20.55 -7.35 M22.6 -11.15 Q21.85 -11.25 21.85 -10.8 21.85 -10.35 22.75 -10.35 23.3 -10.35 23.3 -10.65 23.3 -11.0 22.6 -11.15" fill="url(#gradient0)" fill-rule="evenodd" stroke="none"/>
  </g>
  <defs>
    <radialGradient cx="0" cy="0" gradientTransform="matrix(0.048, 0.0, 0.0, 0.0437, -2.7, 1.1)" gradientUnits="userSpaceOnUse" id="gradient0" r="819.2" spreadMethod="pad">
      <stop offset="0.34901960784313724" stop-color="#f2eaea"></stop>
      <stop offset="1.0" stop-color="#e0cbcb"></stop>
    </radialGradient>
  </defs>
</svg>