<?xml version="1.0" encoding="UTF-8" standalone="no"?>
<svg xmlns:xlink="http://www.w3.org/1999/xlink" height="34.8px" width="60.25px" xmlns="http://www.w3.org/2000/svg">
  <g transform="matrix(1.0, 0.0, 0.0, 1.0, 29.85, 40.65)">
    <path d="M0.75 -38.65 Q0.75 -38.3 0.4 -38.3 -0.3 -38.3 -0.3 -38.75 -0.3 -39.1 0.3 -39.1 L0.75 -38.65 M9.95 -28.25 Q8.65 -28.4 8.15 -29.45 L9.05 -29.0 9.95 -28.3 9.95 -28.25 M13.3 -26.0 Q13.05 -25.8 12.8 -25.8 L11.9 -26.55 11.3 -27.25 12.4 -27.2 Q13.5 -26.65 13.5 -26.3 L13.3 -26.0 M14.05 -25.85 Q15.25 -25.85 15.85 -24.45 L15.6 -24.1 15.4 -24.0 Q15.35 -23.85 15.15 -23.85 14.95 -23.85 14.85 -24.0 L14.65 -24.1 14.35 -24.3 Q13.95 -24.3 13.6 -24.8 13.3 -25.2 13.3 -25.35 13.3 -25.85 14.05 -25.85 M15.95 -23.1 Q15.95 -23.6 16.95 -23.1 17.9 -22.65 17.9 -22.1 17.9 -21.55 17.45 -21.55 L16.55 -22.35 15.95 -23.1 M18.2 -20.85 L17.85 -21.1 17.85 -21.25 Q17.85 -21.6 18.15 -21.55 18.4 -21.55 18.45 -20.95 L18.2 -20.85 M19.65 -19.35 L19.45 -19.25 19.1 -19.5 18.9 -19.9 19.0 -20.15 Q19.45 -20.15 19.7 -19.5 L19.65 -19.35 M17.55 -9.2 L17.6 -9.05 Q17.6 -8.6 16.85 -8.6 16.55 -8.6 16.55 -8.85 16.55 -9.4 17.55 -9.2 M15.45 -7.8 Q14.75 -7.8 14.75 -8.25 14.75 -8.8 15.6 -9.1 16.45 -9.35 16.45 -8.45 16.45 -7.8 15.45 -7.8 M14.85 -7.6 L14.25 -6.85 14.0 -7.1 14.45 -7.75 Q14.85 -8.1 14.85 -7.6 M24.8 -12.8 Q24.45 -12.95 24.45 -13.25 24.45 -13.8 25.6 -14.2 L26.65 -14.15 26.75 -13.8 26.4 -13.15 26.3 -13.0 Q25.85 -12.7 25.4 -12.7 L25.1 -12.7 25.2 -12.45 25.05 -12.2 24.9 -12.15 Q24.55 -12.15 24.5 -12.35 L24.5 -12.5 Q24.5 -12.75 24.8 -12.8 M27.5 -14.3 L27.9 -13.9 27.8 -13.7 27.6 -13.55 27.15 -13.85 27.05 -14.05 Q27.05 -14.35 27.5 -14.3 M29.4 -13.25 L29.05 -12.95 Q28.7 -12.95 28.6 -13.15 L28.55 -13.35 28.95 -13.65 29.4 -13.25 M23.45 -11.95 L23.1 -11.75 22.9 -11.8 22.85 -11.95 Q22.85 -12.35 23.3 -12.5 23.7 -12.7 23.7 -12.3 L23.45 -11.95 M22.3 -11.6 L22.35 -11.4 21.95 -11.0 21.7 -11.1 21.7 -11.6 22.05 -11.65 22.3 -11.6 M-5.5 -38.05 L-5.2 -38.7 -5.0 -38.85 -4.75 -39.0 -4.0 -39.15 -3.4 -38.9 Q-3.55 -39.1 -3.85 -39.15 -3.6 -39.5 -2.65 -38.8 L-2.9 -38.45 -3.15 -38.3 -3.1 -37.9 Q-3.1 -37.1 -4.05 -37.1 -4.8 -37.1 -5.2 -37.45 L-5.5 -38.05 M-6.9 -37.9 Q-6.9 -38.25 -6.3 -38.4 -5.75 -38.6 -5.75 -38.1 L-5.75 -38.0 -5.4 -37.65 -5.2 -37.25 Q-5.2 -37.1 -5.35 -36.9 -5.55 -36.65 -5.8 -36.65 -6.4 -36.65 -6.55 -37.45 -6.9 -37.5 -6.9 -37.9 M-1.4 -38.45 Q-1.8 -38.45 -2.1 -39.2 -2.1 -39.8 -1.5 -39.6 -0.95 -39.35 -0.95 -38.95 -0.95 -38.45 -1.4 -38.45 M-10.25 -28.05 L-10.5 -27.95 -10.8 -28.1 -10.5 -28.55 Q-10.2 -28.5 -10.2 -28.25 L-10.25 -28.05 M-10.85 -27.1 L-11.05 -26.4 Q-11.3 -25.85 -11.7 -25.85 L-12.05 -26.05 -12.15 -26.3 -11.8 -26.85 -11.05 -27.55 -10.85 -27.1 M-11.85 -25.1 Q-11.85 -24.5 -12.35 -24.5 L-12.7 -24.8 Q-12.55 -25.35 -11.9 -25.35 L-11.85 -25.1 M-11.25 -25.45 L-11.45 -25.5 -10.95 -26.05 -10.85 -25.85 Q-10.85 -25.45 -11.25 -25.45 M-7.2 -35.55 Q-7.9 -35.55 -7.9 -35.95 -7.9 -36.35 -7.25 -36.35 -6.65 -36.35 -6.65 -35.9 -6.65 -35.55 -7.2 -35.55 M-7.05 -34.9 L-7.1 -34.7 -7.35 -34.6 -7.65 -34.7 Q-7.65 -35.3 -7.1 -35.05 L-7.05 -34.9 M-27.65 -25.35 L-28.4 -24.75 Q-28.85 -24.75 -28.85 -25.25 -28.85 -26.05 -28.05 -26.35 -27.3 -26.65 -27.3 -26.0 -27.3 -25.85 -27.65 -25.35 M-26.9 -26.75 L-26.95 -27.0 -26.65 -27.4 Q-26.3 -27.55 -26.05 -27.2 -26.2 -26.75 -26.9 -26.75 M-28.45 -24.2 L-28.6 -24.4 -28.55 -24.55 Q-28.45 -24.55 -28.45 -24.6 L-28.25 -24.4 -28.45 -24.2 M-23.35 -8.25 Q-23.35 -7.8 -24.0 -7.7 L-24.3 -7.8 -24.35 -8.05 -23.85 -8.6 Q-23.35 -8.75 -23.35 -8.25 M-19.3 -12.9 Q-19.75 -12.9 -19.75 -13.35 -19.75 -14.0 -19.15 -14.1 -18.55 -14.15 -18.55 -13.5 L-18.85 -13.1 Q-19.1 -12.9 -19.3 -12.9 M-16.6 -15.05 L-16.95 -14.65 Q-17.25 -14.35 -17.45 -14.35 -17.85 -14.35 -17.85 -14.7 -17.85 -15.05 -17.45 -15.25 -16.95 -15.5 -16.6 -15.05" fill="#ffffff" fill-opacity="0.6" fill-rule="evenodd" stroke="none"/>
  </g>
</svg>