<?xml version="1.0" encoding="UTF-8" standalone="no"?>
<svg xmlns:xlink="http://www.w3.org/1999/xlink" height="51.2px" width="63.15px" xmlns="http://www.w3.org/2000/svg">
  <g transform="matrix(1.0, 0.0, 0.0, 1.0, 26.7, 37.9)">
    <path d="M30.15 -31.75 Q31.4 -31.75 31.2 -30.7 31.2 -29.9 30.55 -29.6 L31.3 -29.0 31.1 -28.4 31.5 -27.6 32.3 -26.8 Q32.75 -26.4 33.45 -26.25 L33.7 -25.75 Q35.3 -26.5 35.3 -25.45 L34.2 -24.45 Q33.4 -23.65 33.2 -22.6 L33.4 -20.55 Q33.6 -20.05 33.95 -19.55 L34.75 -18.15 34.3 -17.2 34.55 -17.25 Q35.45 -17.2 35.45 -16.5 L35.2 -15.9 Q34.85 -15.5 34.2 -15.5 33.7 -15.5 33.65 -16.15 L32.95 -14.6 32.85 -12.8 32.55 -11.1 Q32.35 -11.25 32.3 -11.9 L32.3 -12.6 32.4 -13.6 32.2 -13.55 32.1 -14.4 32.4 -16.9 32.7 -18.95 Q32.7 -22.25 32.1 -23.85 31.6 -25.15 29.3 -26.35 27.45 -27.3 27.3 -28.15 L27.2 -28.25 26.2 -29.05 Q22.35 -29.8 20.45 -30.55 L18.4 -31.1 16.55 -31.75 15.15 -32.3 11.65 -32.75 11.65 -32.9 6.95 -32.75 Q5.2 -32.75 3.65 -33.45 2.3 -34.05 2.2 -34.55 4.1 -33.5 6.1 -33.5 L7.85 -33.7 10.45 -33.95 14.4 -33.7 15.0 -33.55 Q14.45 -33.85 14.45 -34.2 14.45 -34.55 14.8 -34.65 L15.4 -34.75 Q16.95 -34.75 17.15 -33.8 L17.15 -33.6 17.6 -33.7 19.9 -32.25 20.25 -32.05 23.6 -31.1 Q28.75 -29.5 28.75 -30.3 L28.9 -30.3 28.9 -30.4 28.95 -31.15 Q29.15 -31.75 30.15 -31.75 M30.2 -29.25 L30.4 -29.2 30.5 -29.5 30.35 -29.5 30.2 -29.25 M0.45 -35.4 Q0.0 -35.1 -0.4 -35.1 -0.95 -35.1 -1.05 -35.45 L-1.05 -35.85 Q-1.05 -36.5 -0.4 -36.5 L0.3 -36.2 0.9 -35.75 0.6 -35.5 0.45 -35.4 M11.2 -22.05 L12.05 -21.5 11.8 -21.3 11.55 -21.15 Q10.8 -21.15 10.8 -21.7 10.8 -22.3 11.2 -22.05 M10.5 -20.95 Q10.25 -20.95 9.75 -21.5 L9.3 -22.05 Q9.3 -23.15 10.9 -21.3 10.9 -20.95 10.5 -20.95 M12.0 -21.25 Q12.75 -21.35 12.75 -20.7 12.75 -20.15 12.25 -20.15 L11.65 -20.2 Q13.7 -18.85 13.7 -17.3 13.7 -16.65 13.25 -16.65 L12.65 -17.05 12.65 -16.85 12.6 -16.65 12.7 -16.65 13.4 -16.1 Q13.4 -15.65 12.55 -15.65 12.0 -15.65 12.0 -16.1 12.0 -16.45 12.15 -16.6 11.55 -16.6 11.2 -16.9 10.85 -17.15 10.85 -17.4 10.85 -17.9 11.55 -17.7 L12.0 -17.45 10.0 -18.6 10.1 -18.45 10.25 -17.8 Q10.25 -17.45 9.8 -17.45 L9.4 -17.75 9.4 -18.75 9.7 -18.8 7.45 -20.0 7.6 -19.8 7.3 -19.75 Q6.45 -19.75 6.45 -20.2 L6.5 -20.45 5.45 -20.85 Q3.45 -21.5 1.65 -22.7 -0.65 -23.6 -7.7 -24.05 L-5.95 -24.5 -3.65 -24.35 Q0.45 -24.35 5.45 -22.85 L5.25 -23.1 Q5.25 -23.4 5.55 -23.4 L5.85 -23.1 5.75 -22.75 7.0 -22.35 Q9.7 -21.4 11.35 -20.4 L11.25 -20.65 Q11.25 -21.15 12.0 -21.25 M13.65 -19.95 Q14.25 -19.8 14.25 -19.3 14.25 -18.85 13.65 -18.85 13.0 -18.85 13.0 -19.4 L13.0 -19.45 Q13.0 -20.15 13.65 -19.95 M14.65 -16.05 L14.45 -15.45 Q13.95 -15.4 13.95 -16.1 13.95 -16.55 14.3 -16.6 14.65 -16.7 14.65 -16.05 M14.65 -17.8 Q14.65 -18.1 15.2 -18.0 15.7 -17.9 15.7 -17.55 15.7 -17.3 15.35 -17.3 15.05 -17.3 14.85 -17.55 L14.65 -17.8 M12.15 -18.1 L12.25 -18.1 11.95 -18.45 12.15 -18.1 M11.95 -18.5 L11.75 -18.9 11.9 -18.5 11.95 -18.5 M14.35 -13.65 L14.2 -13.15 13.9 -13.15 13.85 -13.4 13.85 -13.65 14.3 -13.85 14.35 -13.65 M7.15 -22.85 L7.45 -23.05 7.65 -22.85 7.35 -22.65 7.15 -22.85 M4.2 -20.4 L4.05 -20.1 Q3.55 -20.2 3.55 -20.4 L3.65 -20.6 4.15 -20.65 4.2 -20.4 M33.5 -19.6 L33.5 -19.4 33.5 -18.95 33.65 -19.3 33.5 -19.6 M34.3 -18.1 L34.35 -18.2 34.3 -18.25 34.3 -18.1 M32.8 -6.55 L32.7 -6.25 Q32.5 -6.35 32.35 -7.2 L32.25 -8.15 Q32.25 -8.75 32.45 -8.8 32.8 -8.25 32.8 -6.55 M34.65 -4.5 Q35.45 -4.45 35.45 -3.9 35.45 -3.4 34.35 -3.4 33.85 -3.4 33.85 -3.95 33.85 -4.55 34.65 -4.5 M21.9 5.6 L22.85 5.55 Q22.7 5.95 22.3 5.95 21.9 5.95 21.9 5.6 M23.7 6.8 L22.2 6.95 20.55 7.85 Q19.3 8.6 18.8 8.75 L18.55 9.15 18.15 9.95 17.85 9.65 17.95 8.35 Q17.95 7.8 19.75 7.15 L20.3 7.0 20.4 7.0 21.0 6.9 21.4 6.7 23.0 6.6 Q24.0 6.55 24.75 5.85 25.7 4.9 26.15 5.1 L25.15 6.2 Q24.55 6.75 23.7 6.8 M20.75 8.5 Q20.75 8.15 21.75 8.15 L21.8 8.3 21.15 8.75 20.8 8.7 20.75 8.5 M12.5 11.95 Q12.5 11.5 13.7 11.0 14.75 10.5 15.9 10.3 L15.95 10.4 Q13.85 12.3 12.95 12.3 L12.5 11.95 M16.85 8.55 L15.85 8.95 15.8 8.8 16.85 8.55 M17.55 10.3 L17.3 10.4 17.1 10.35 17.05 10.0 17.55 10.05 17.55 10.3 M-11.65 -36.3 Q-11.65 -37.0 -10.7 -36.9 -9.75 -36.8 -9.75 -36.25 -9.75 -35.7 -10.9 -35.7 -11.6 -35.7 -11.65 -36.3 M-2.35 -34.45 L0.1 -34.2 Q-0.15 -33.85 -0.75 -33.8 L-2.3 -33.75 -4.55 -33.85 -4.7 -34.0 -4.1 -34.4 -2.35 -34.45 M-9.0 -34.2 L-8.25 -34.05 -8.5 -33.85 -9.75 -33.95 -9.0 -34.2 M-21.05 -34.4 Q-20.65 -34.4 -20.55 -34.1 L-20.5 -33.8 -20.8 -33.3 Q-21.1 -33.0 -21.4 -33.0 -22.25 -33.0 -22.15 -33.65 L-21.85 -34.15 -21.05 -34.4 M-25.2 -24.95 Q-25.7 -25.0 -25.7 -25.4 L-25.2 -25.95 Q-24.7 -26.2 -24.7 -25.8 L-24.75 -25.05 -25.1 -24.95 -25.2 -24.95" fill="#ffffff" fill-opacity="0.6" fill-rule="evenodd" stroke="none"/>
  </g>
</svg>