<?xml version="1.0" encoding="UTF-8" standalone="no"?>
<svg xmlns:xlink="http://www.w3.org/1999/xlink" height="67.7px" width="76.15px" xmlns="http://www.w3.org/2000/svg">
  <g transform="matrix(1.0, 0.0, 0.0, 1.0, 33.55, 38.1)">
    <path d="M26.0 -26.65 L26.05 -28.1 Q26.05 -32.6 21.9 -32.6 L20.65 -32.55 17.9 -32.2 17.0 -32.0 Q12.0 -30.8 7.45 -33.05 L5.45 -34.4 3.4 -35.95 1.5 -36.35 Q-1.65 -36.35 -4.15 -35.55 L-4.45 -35.45 -6.75 -34.45 -6.8 -34.4 -7.0 -34.35 -7.95 -33.8 -8.9 -32.85 -9.7 -31.1 -10.75 -29.1 -11.05 -28.55 -11.35 -28.05 -12.8 -26.1 -14.0 -25.6 -16.05 -25.2 -21.4 -24.95 Q-22.8 -24.85 -24.6 -23.6 L-24.8 -23.45 Q-26.85 -22.0 -26.85 -21.1 L-25.5 -18.2 Q-24.4 -15.55 -24.2 -13.55 L-23.7 -14.65 Q-23.45 -15.2 -23.1 -16.9 L-22.5 -18.6 -22.45 -18.75 -22.35 -18.95 -22.25 -18.45 -22.35 -17.05 Q-22.9 -13.9 -25.7 -9.1 L-26.8 -7.25 -27.8 -5.85 -29.45 -3.7 -30.1 -3.0 -30.2 -2.95 -30.1 -2.6 -30.1 -2.55 -30.85 -1.3 Q-31.65 -0.05 -31.65 1.15 -31.65 2.75 -31.05 4.7 L-29.85 8.55 Q-28.8 12.6 -24.8 15.95 -22.1 18.15 -18.9 20.05 -18.85 20.05 -18.75 20.15 L-18.5 20.25 -18.05 20.55 Q-13.5 23.1 -8.0 25.0 -0.2 27.7 4.25 27.7 7.65 27.7 9.95 25.35 L11.5 23.9 Q11.9 23.55 12.3 23.35 12.9 22.95 13.4 22.95 L14.7 23.25 16.6 23.5 Q19.15 23.5 22.1 21.6 L23.2 20.75 23.95 19.9 24.05 19.6 24.2 19.15 24.25 19.05 24.55 17.5 25.1 15.85 Q25.3 15.45 25.65 15.15 L26.15 14.65 26.3 14.55 26.4 14.45 26.75 14.25 Q27.55 13.75 30.05 12.95 L30.75 12.5 30.65 12.45 32.85 10.05 33.1 9.75 33.35 9.3 33.9 7.95 34.05 6.3 33.65 4.35 33.55 4.0 33.45 3.6 33.25 2.9 32.9 1.5 32.85 1.3 32.85 1.15 32.85 0.95 37.0 -4.1 37.75 -4.75 39.9 -6.95 40.2 -7.45 40.45 -8.0 40.55 -8.2 40.55 -8.3 40.45 -9.2 39.3 -11.65 38.25 -13.0 38.2 -13.05 Q35.45 -14.95 32.5 -15.85 27.35 -17.4 26.1 -18.8 L26.05 -18.85 Q25.6 -19.4 25.45 -20.8 L25.4 -22.15 25.45 -22.8 25.75 -25.15 26.0 -26.65 M-10.4 -14.65 Q-10.45 -13.05 -12.55 -10.15 -14.15 -7.9 -14.85 -7.35 -16.45 -5.65 -19.25 -3.95 -23.1 -1.6 -26.0 -1.6 L-26.3 -1.65 -26.1 -1.7 -25.75 -1.85 -25.8 -1.8 -23.85 -2.55 -23.85 -2.6 Q-21.45 -3.55 -20.05 -4.2 -19.1 -4.6 -17.8 -5.8 L-15.75 -7.7 Q-13.8 -9.2 -12.5 -11.4 L-10.75 -14.65 -10.6 -14.95 -10.45 -14.9 -10.4 -14.75 -10.4 -14.65 M33.55 -4.2 L35.05 -6.15 Q37.1 -8.45 37.1 -9.45 37.1 -10.95 36.05 -12.6 L36.2 -12.8 Q37.9 -11.35 37.9 -9.4 L37.75 -8.35 Q37.6 -7.85 37.25 -7.5 L35.8 -5.95 35.15 -5.2 35.05 -5.1 35.05 -5.05 34.95 -4.9 34.9 -4.9 Q33.65 -3.2 32.9 -1.0 L32.8 -1.0 32.85 -1.55 32.95 -2.6 Q32.95 -3.25 33.55 -4.2 M23.6 -20.75 Q22.65 -23.1 23.1 -25.65 L23.4 -27.6 23.55 -28.6 22.75 -31.25 23.6 -30.2 Q24.3 -29.2 24.0 -28.0 23.25 -24.7 23.75 -21.35 L24.0 -20.35 23.6 -20.75 M21.95 -33.45 Q26.9 -33.45 26.9 -28.1 L26.65 -25.1 26.25 -22.1 Q26.25 -19.7 27.3 -19.0 27.95 -18.55 34.25 -16.2 36.7 -15.25 38.7 -13.8 L38.85 -13.6 39.8 -12.6 Q41.6 -10.5 41.6 -8.55 L41.35 -7.25 Q41.1 -6.55 40.65 -6.3 L37.95 -3.55 Q33.8 0.05 33.8 1.1 L34.4 3.4 34.95 6.3 Q34.95 7.55 34.15 9.65 33.5 11.2 32.75 12.0 L32.7 12.05 Q32.7 12.5 30.5 13.6 L27.7 14.95 Q26.4 15.6 25.85 16.6 25.65 17.0 25.35 18.3 23.6 24.5 16.6 24.5 L14.5 24.25 13.4 23.95 Q12.8 23.95 10.45 26.3 8.05 28.6 4.35 28.6 -0.05 28.6 -6.35 26.5 L-12.95 23.95 Q-16.3 22.5 -20.0 20.2 L-25.45 16.6 Q-28.45 14.65 -30.7 8.55 -32.55 3.7 -32.55 1.4 -32.55 -0.15 -31.3 -1.85 L-31.2 -2.0 -32.05 -1.35 -29.05 -5.8 Q-27.0 -8.65 -26.25 -10.25 L-24.95 -12.3 -25.1 -13.2 Q-25.4 -15.4 -25.8 -16.25 L-26.8 -18.55 -27.7 -21.1 Q-27.7 -22.35 -25.95 -23.7 L-24.6 -24.55 -21.4 -25.75 Q-18.35 -25.6 -16.45 -25.75 -13.95 -26.0 -12.25 -28.2 L-11.65 -28.95 -11.55 -29.1 -11.05 -29.95 -9.95 -32.15 Q-8.65 -34.95 -4.0 -36.25 L1.6 -37.1 Q2.6 -37.1 3.8 -36.55 4.95 -36.0 6.6 -34.7 8.25 -33.45 9.0 -33.3 12.05 -32.05 15.4 -32.8 L17.0 -32.9 17.8 -33.05 20.65 -33.4 21.95 -33.45 M6.5 -31.95 L3.4 -34.35 2.0 -35.25 Q2.1 -35.45 2.4 -35.45 L3.4 -35.05 5.9 -32.75 6.5 -31.95 M6.3 -18.15 Q5.8 -17.15 3.7 -14.9 L0.55 -11.8 Q-4.2 -7.4 -7.85 -5.7 L-7.85 -5.75 -8.2 -5.6 -8.3 -5.55 -8.45 -5.5 -8.5 -5.6 -7.6 -6.2 -7.65 -6.15 -7.4 -6.4 -7.15 -6.55 -0.05 -12.25 3.45 -15.75 4.1 -16.45 4.85 -17.25 6.25 -18.8 6.3 -18.85 6.35 -18.9 6.45 -18.7 6.45 -18.65 6.35 -18.35 6.3 -18.15 M28.55 11.35 L29.65 9.65 30.75 7.7 31.0 7.1 31.35 5.75 31.75 3.95 Q32.0 4.2 32.1 5.75 L32.1 5.8 31.95 6.8 31.6 7.75 31.0 8.85 30.65 9.45 30.5 9.65 29.4 10.9 29.1 11.15 Q29.0 11.15 28.95 11.25 L28.4 11.55 28.55 11.35 M19.0 19.55 Q19.85 18.8 21.1 18.15 L22.65 16.75 22.65 16.8 22.85 16.45 22.95 16.25 24.05 14.35 24.3 14.75 24.3 14.95 Q24.3 16.0 23.5 17.0 L23.45 17.05 23.4 17.15 23.2 17.35 22.75 17.8 22.6 17.9 22.55 17.9 22.55 17.95 21.8 18.45 16.9 21.8 18.4 20.05 19.0 19.55 M19.5 8.55 L17.85 8.65 17.65 8.65 13.55 8.85 11.8 9.2 9.5 9.5 9.15 9.45 9.05 9.35 Q9.9 8.75 11.85 8.45 L17.8 8.05 19.15 8.25 19.65 8.45 19.5 8.55" fill="#a36a6a" fill-rule="evenodd" stroke="none"/>
    <path d="M-4.15 -35.55 Q-1.65 -36.35 1.5 -36.35 L3.4 -35.95 5.45 -34.4 7.45 -33.05 Q12.0 -30.8 17.0 -32.0 L17.9 -32.2 20.65 -32.55 21.9 -32.6 Q26.05 -32.6 26.05 -28.1 L26.0 -26.65 25.35 -27.1 24.45 -27.6 24.0 -28.0 Q24.3 -29.2 23.6 -30.2 L22.75 -31.25 23.55 -28.6 23.25 -27.9 23.4 -27.6 23.1 -25.65 Q22.65 -23.1 23.6 -20.75 L23.35 -21.2 24.0 -20.0 Q24.8 -18.95 26.1 -18.8 27.35 -17.4 32.5 -15.85 35.45 -14.95 38.2 -13.05 L38.25 -13.0 39.3 -11.65 40.45 -9.2 Q39.15 -8.05 38.85 -8.05 L38.2 -8.2 37.75 -8.35 37.9 -9.4 Q37.9 -11.35 36.2 -12.8 L36.05 -12.6 Q37.1 -10.95 37.1 -9.45 37.1 -8.45 35.05 -6.15 L33.55 -4.2 31.35 -1.6 Q29.2 1.55 25.25 1.75 13.5 2.35 9.2 3.6 5.85 5.2 2.3 6.0 -1.4 6.8 -5.15 9.2 L-10.8 13.1 Q-12.5 14.25 -15.45 16.7 L-18.7 19.8 -18.9 20.05 Q-22.1 18.15 -24.8 15.95 -28.8 12.6 -29.85 8.55 L-31.05 4.7 Q-31.65 2.75 -31.65 1.15 -31.65 -0.05 -30.85 -1.3 L-30.1 -2.55 -29.75 -2.4 Q-28.05 -1.7 -26.75 -1.7 L-26.1 -1.7 -26.3 -1.65 -26.0 -1.6 Q-23.1 -1.6 -19.25 -3.95 -16.45 -5.65 -14.85 -7.35 -14.15 -7.9 -12.55 -10.15 -10.45 -13.05 -10.4 -14.65 L-10.05 -15.95 Q-9.35 -17.5 -8.4 -20.4 L-7.9 -21.95 -6.35 -26.1 -5.65 -27.8 -3.85 -27.6 Q-2.6 -27.6 1.05 -29.0 L1.3 -29.1 Q4.6 -30.35 4.6 -30.6 L4.55 -30.9 3.4 -32.15 2.0 -33.0 Q-1.1 -34.6 -4.35 -33.1 L-5.6 -32.2 -6.0 -32.65 -5.05 -34.0 Q-4.3 -34.95 -4.15 -35.55 M21.65 -26.6 Q21.65 -28.65 20.65 -29.5 19.75 -30.25 18.05 -30.0 16.75 -29.8 15.7 -29.1 L15.55 -29.0 Q14.4 -28.2 14.4 -27.45 14.4 -27.0 16.8 -24.75 19.25 -22.4 20.05 -22.4 21.65 -22.4 21.65 -26.6 M6.5 -31.95 L5.9 -32.75 3.4 -35.05 2.4 -35.45 Q2.1 -35.45 2.0 -35.25 L3.4 -34.35 6.5 -31.95 M7.95 -21.0 L8.25 -21.55 9.8 -24.55 7.6 -23.4 Q5.75 -22.6 4.4 -21.85 3.0 -21.1 2.0 -20.8 -0.95 -19.95 -2.45 -18.1 L-4.25 -15.05 Q-6.2 -10.8 -7.3 -8.9 -8.2 -7.3 -10.4 -4.9 L-11.5 -3.65 -8.3 -5.45 -8.15 -5.55 -8.05 -5.6 -7.9 -5.7 -7.85 -5.7 Q-4.2 -7.4 0.55 -11.8 L3.7 -14.9 Q5.8 -17.15 6.3 -18.15 L6.2 -17.95 6.5 -18.45 6.55 -18.5 6.55 -18.55 6.65 -18.65 7.95 -21.0 M0.55 -1.55 L4.25 -2.0 5.55 -2.25 8.55 -2.85 11.65 -3.55 14.6 -4.3 16.8 -4.8 Q17.6 -5.05 18.15 -6.0 L19.6 -8.4 21.75 -12.75 20.7 -12.25 17.75 -11.15 15.65 -10.2 11.95 -8.1 9.75 -6.9 6.5 -5.1 Q4.9 -4.15 3.1 -3.4 L1.15 -2.25 0.55 -1.55 M27.05 -14.4 Q26.5 -14.3 26.0 -13.8 25.75 -13.5 25.75 -12.2 L26.65 -8.2 Q27.7 -4.2 28.4 -4.2 31.85 -4.2 34.4 -10.8 34.4 -12.4 33.0 -13.05 29.4 -14.7 28.65 -14.7 L27.6 -14.55 27.05 -14.4 M40.2 -7.45 L40.15 -7.5 40.25 -7.6 40.45 -8.0 40.2 -7.45 M37.45 -7.3 L37.7 -7.3 37.6 -7.25 37.45 -7.3 M33.65 4.35 L34.05 6.3 33.9 7.95 33.65 8.3 32.7 8.8 Q31.85 8.8 31.85 7.65 L31.95 6.8 32.1 5.8 Q32.45 4.0 32.9 4.0 L33.45 4.2 33.65 4.35 M-16.05 -25.2 L-15.35 -24.85 -15.25 -24.3 -15.3 -23.85 Q-15.75 -22.9 -18.25 -23.1 L-21.4 -22.8 Q-22.15 -22.65 -22.8 -22.2 L-23.4 -21.7 Q-24.35 -20.75 -24.35 -20.1 -23.5 -18.6 -22.7 -18.25 L-22.5 -18.6 -23.1 -16.9 Q-23.45 -15.2 -23.7 -14.65 L-24.2 -13.55 Q-24.4 -15.55 -25.5 -18.2 L-26.85 -21.1 Q-26.85 -22.0 -24.8 -23.45 L-24.6 -23.6 Q-22.8 -24.85 -21.4 -24.95 L-16.05 -25.2" fill="#f2eaea" fill-rule="evenodd" stroke="none"/>
    <path d="M-6.35 -26.1 L-7.9 -21.95 -8.4 -20.4 Q-9.35 -17.5 -10.05 -15.95 L-10.4 -14.65 -10.4 -14.75 -10.45 -14.9 -10.6 -14.95 -10.75 -14.65 -12.5 -11.4 Q-13.8 -9.2 -15.75 -7.7 L-17.8 -5.8 Q-19.1 -4.6 -20.05 -4.2 -21.45 -3.55 -23.85 -2.6 L-23.85 -2.55 -25.8 -1.8 -25.75 -1.85 -21.6 -6.4 -14.4 -14.1 Q-11.6 -17.1 -9.85 -20.4 L-8.05 -23.55 -6.5 -25.95 -6.35 -26.1 M-18.7 19.8 L-15.45 16.7 -13.65 15.65 -6.45 12.25 Q-4.35 11.3 -2.1 10.8 L1.9 10.1 7.45 8.9 11.85 8.45 Q9.9 8.75 9.05 9.35 L9.15 9.45 9.5 9.5 11.8 9.2 13.55 8.85 17.65 8.65 17.85 8.65 19.5 8.55 19.55 8.7 Q16.3 9.9 13.05 11.35 6.75 14.2 6.55 17.9 L7.6 18.75 Q9.05 20.4 13.6 20.65 L15.0 20.7 Q16.65 20.7 19.0 19.55 L18.4 20.05 16.9 21.8 21.8 18.45 22.55 17.95 22.55 17.9 22.6 17.9 22.75 17.8 23.05 18.4 22.95 19.2 23.95 19.9 23.2 20.75 22.1 21.6 Q19.15 23.5 16.6 23.5 L14.7 23.25 13.4 22.95 Q12.9 22.95 12.3 23.35 11.9 23.55 11.5 23.9 L9.95 25.35 Q7.65 27.7 4.25 27.7 -0.2 27.7 -8.0 25.0 -13.5 23.1 -18.05 20.55 L-18.5 20.25 -18.75 20.15 -18.75 20.1 -18.7 19.8 M7.95 -21.0 L6.65 -18.65 6.55 -18.55 6.55 -18.5 6.35 -18.35 6.45 -18.65 6.45 -18.7 6.35 -18.9 6.3 -18.85 6.25 -18.8 4.85 -17.25 4.1 -16.45 3.45 -15.75 -0.05 -12.25 -7.15 -6.55 -7.4 -6.4 -7.65 -6.15 -7.6 -6.2 -6.35 -7.65 -1.25 -13.15 Q1.8 -16.2 3.9 -17.7 L6.85 -20.3 8.2 -21.45 7.95 -21.0 M-7.85 -5.7 L-7.9 -5.7 -8.05 -5.6 -8.15 -5.55 -8.3 -5.45 -8.2 -5.6 -7.85 -5.75 -7.85 -5.7 M35.8 -5.95 L36.05 -5.6 Q36.6 -4.75 37.6 -4.75 L37.75 -4.75 37.0 -4.1 32.85 0.95 32.55 0.85 32.35 0.35 Q32.35 -0.4 32.85 -1.55 L32.8 -1.0 32.9 -1.0 Q33.65 -3.2 34.9 -4.9 L34.95 -4.9 35.1 -5.0 35.05 -5.05 35.05 -5.1 35.15 -5.2 35.8 -5.95 M32.85 10.05 L30.65 12.45 30.75 12.5 30.05 12.95 Q27.55 13.75 26.75 14.25 L26.4 14.45 26.3 14.55 26.15 14.35 25.9 13.85 Q25.9 13.3 27.05 12.4 L28.55 11.35 28.4 11.55 28.95 11.25 Q29.0 11.15 29.1 11.15 L29.4 10.9 30.5 9.65 30.65 9.45 Q31.4 9.0 31.8 10.0 L32.85 10.05" fill="#cca9a9" fill-rule="evenodd" stroke="none"/>
    <path d="M-4.15 -35.55 Q-4.3 -34.95 -5.05 -34.0 L-6.0 -32.65 -5.6 -32.2 -4.35 -33.1 Q-1.1 -34.6 2.0 -33.0 L3.4 -32.15 4.55 -30.9 4.6 -30.6 Q4.6 -30.35 1.3 -29.1 L1.05 -29.0 Q-2.6 -27.6 -3.85 -27.6 L-5.65 -27.8 -6.35 -26.1 -6.5 -25.95 -8.05 -23.55 -9.85 -20.4 Q-11.6 -17.1 -14.4 -14.1 L-21.6 -6.4 -25.75 -1.85 -26.1 -1.7 -26.75 -1.7 Q-28.05 -1.7 -29.75 -2.4 L-30.1 -2.55 -30.1 -2.6 -30.2 -2.95 -30.1 -3.0 -29.45 -3.7 -27.8 -5.85 -26.8 -7.25 -25.7 -9.1 Q-22.9 -13.9 -22.35 -17.05 L-22.25 -18.45 -22.35 -18.95 -22.45 -18.75 -22.5 -18.6 -22.7 -18.25 Q-23.5 -18.6 -24.35 -20.1 -24.35 -20.75 -23.4 -21.7 L-22.8 -22.2 Q-22.15 -22.65 -21.4 -22.8 L-18.25 -23.1 Q-15.75 -22.9 -15.3 -23.85 L-15.25 -24.3 -15.35 -24.85 -16.05 -25.2 -14.0 -25.6 -12.8 -26.1 -11.35 -28.05 -11.05 -28.55 -10.75 -29.1 -9.7 -31.1 -8.9 -32.85 -7.95 -33.8 -7.0 -34.35 -6.8 -34.4 -6.75 -34.45 -4.45 -35.45 -4.15 -35.55 M-18.9 20.05 L-18.7 19.8 -18.75 20.1 -18.75 20.15 Q-18.85 20.05 -18.9 20.05 M-15.45 16.7 Q-12.5 14.25 -10.8 13.1 L-5.15 9.2 Q-1.4 6.8 2.3 6.0 5.85 5.2 9.2 3.6 13.5 2.35 25.25 1.75 29.2 1.55 31.35 -1.6 L33.55 -4.2 Q32.95 -3.25 32.95 -2.6 L32.85 -1.55 Q32.35 -0.4 32.35 0.35 L32.55 0.85 32.85 0.95 32.85 1.15 32.85 1.3 32.9 1.5 33.25 2.9 33.45 3.6 33.55 4.0 33.65 4.35 33.45 4.2 32.9 4.0 Q32.45 4.0 32.1 5.8 L32.1 5.75 Q32.0 4.2 31.75 3.95 L31.35 5.75 31.0 7.1 30.75 7.7 29.65 9.65 28.55 11.35 27.05 12.4 Q25.9 13.3 25.9 13.85 L26.15 14.35 26.3 14.55 26.15 14.65 25.65 15.15 Q25.3 15.45 25.1 15.85 L24.55 17.5 24.25 19.05 24.2 19.15 24.05 19.6 23.95 19.9 22.95 19.2 23.05 18.4 22.75 17.8 23.2 17.35 23.4 17.15 23.45 17.05 23.5 17.0 Q24.3 16.0 24.3 14.95 L24.3 14.75 24.05 14.35 22.95 16.25 22.85 16.45 22.65 16.8 22.65 16.75 21.1 18.15 Q19.85 18.8 19.0 19.55 16.65 20.7 15.0 20.7 L13.6 20.65 Q9.05 20.4 7.6 18.75 L6.55 17.9 Q6.75 14.2 13.05 11.35 16.3 9.9 19.55 8.7 L19.5 8.55 19.65 8.45 19.15 8.25 17.8 8.05 11.85 8.45 7.45 8.9 1.9 10.1 -2.1 10.8 Q-4.35 11.3 -6.45 12.25 L-13.65 15.65 -15.45 16.7 M37.75 -8.35 L38.2 -8.2 38.85 -8.05 Q39.15 -8.05 40.45 -9.2 L40.55 -8.3 40.55 -8.2 40.45 -8.0 40.25 -7.6 40.15 -7.5 40.2 -7.45 39.9 -6.95 37.75 -4.75 37.6 -4.75 Q36.6 -4.75 36.05 -5.6 L35.8 -5.95 37.25 -7.5 Q37.6 -7.85 37.75 -8.35 M26.1 -18.8 Q24.8 -18.95 24.0 -20.0 L23.35 -21.2 23.6 -20.75 24.0 -20.35 23.75 -21.35 Q23.25 -24.7 24.0 -28.0 L24.45 -27.6 25.35 -27.1 26.0 -26.65 25.75 -25.15 25.45 -22.8 25.4 -22.15 25.45 -20.8 Q25.6 -19.4 26.05 -18.85 L26.1 -18.8 M23.4 -27.6 L23.25 -27.9 23.55 -28.6 23.4 -27.6 M21.65 -26.6 Q21.65 -22.4 20.05 -22.4 19.25 -22.4 16.8 -24.75 14.4 -27.0 14.4 -27.45 14.4 -28.2 15.55 -29.0 L15.7 -29.1 Q16.75 -29.8 18.05 -30.0 19.75 -30.25 20.65 -29.5 21.65 -28.65 21.65 -26.6 M-8.3 -5.45 L-11.5 -3.65 -10.4 -4.9 Q-8.2 -7.3 -7.3 -8.9 -6.2 -10.8 -4.25 -15.05 L-2.45 -18.1 Q-0.95 -19.95 2.0 -20.8 3.0 -21.1 4.4 -21.85 5.75 -22.6 7.6 -23.4 L9.8 -24.55 8.25 -21.55 7.95 -21.0 8.2 -21.45 6.85 -20.3 3.9 -17.7 Q1.8 -16.2 -1.25 -13.15 L-6.35 -7.65 -7.6 -6.2 -8.5 -5.6 -8.45 -5.5 -8.3 -5.55 -8.2 -5.6 -8.3 -5.45 M6.55 -18.5 L6.5 -18.45 6.2 -17.95 6.3 -18.15 6.35 -18.35 6.55 -18.5 M0.55 -1.55 L1.15 -2.25 3.1 -3.4 Q4.9 -4.15 6.5 -5.1 L9.75 -6.9 11.95 -8.1 15.65 -10.2 17.75 -11.15 20.7 -12.25 21.75 -12.75 19.6 -8.4 18.15 -6.0 Q17.6 -5.05 16.8 -4.8 L14.6 -4.3 11.65 -3.55 8.55 -2.85 5.55 -2.25 4.25 -2.0 0.55 -1.55 M27.05 -14.4 L27.6 -14.55 28.65 -14.7 Q29.4 -14.7 33.0 -13.05 34.4 -12.4 34.4 -10.8 31.85 -4.2 28.4 -4.2 27.7 -4.2 26.65 -8.2 L25.75 -12.2 Q25.75 -13.5 26.0 -13.8 26.5 -14.3 27.05 -14.4 M37.45 -7.3 L37.6 -7.25 37.7 -7.3 37.45 -7.3 M35.05 -5.05 L35.1 -5.0 34.95 -4.9 35.05 -5.05 M33.9 7.95 L33.35 9.3 33.1 9.75 32.85 10.05 31.8 10.0 Q31.4 9.0 30.65 9.45 L31.0 8.85 31.6 7.75 31.95 6.8 31.85 7.65 Q31.85 8.8 32.7 8.8 L33.65 8.3 33.9 7.95" fill="#e0cbcb" fill-rule="evenodd" stroke="none"/>
  </g>
</svg>