<?xml version="1.0" encoding="UTF-8" standalone="no"?>
<svg xmlns:xlink="http://www.w3.org/1999/xlink" height="64.95px" width="64.5px" xmlns="http://www.w3.org/2000/svg">
  <g transform="matrix(1.0, 0.0, 0.0, 1.0, 31.35, 30)">
    <path d="M11.15 -22.4 L11.3 -22.25 11.0 -22.05 Q5.65 -24.0 4.05 -24.95 L0.0 -26.0 -4.3 -26.8 -5.3 -27.0 -5.3 -27.1 -1.6 -26.8 2.95 -26.2 6.2 -25.0 7.7 -24.3 Q8.35 -23.9 9.05 -23.75 L9.8 -23.35 10.35 -22.95 10.4 -22.9 10.45 -22.9 10.55 -22.8 11.15 -22.4 M-9.65 -27.35 L-10.0 -27.3 -11.0 -27.0 -12.9 -26.55 -13.9 -26.35 -14.9 -26.05 -16.6 -25.45 -18.05 -24.75 -19.35 -23.95 -20.6 -23.0 -21.75 -21.8 -22.9 -20.55 -24.0 -19.25 -24.95 -17.9 -25.95 -16.3 -26.85 -14.55 -27.6 -12.9 -28.3 -11.15 -28.7 -9.65 -29.05 -8.0 -29.2 -6.85 -29.3 -4.95 -29.35 -3.6 -29.3 -1.6 -29.0 0.05 -28.75 1.1 -28.65 1.95 -28.6 2.25 -28.15 3.8 -27.45 5.5 -26.7 7.0 -26.1 8.3 -25.5 9.55 -25.0 10.5 -24.5 11.45 -24.4 11.65 -24.2 11.95 -23.95 12.4 -23.6 12.9 -23.05 13.8 -22.75 14.15 -22.35 14.65 -22.1 14.9 -21.7 15.35 -21.1 16.0 -21.15 16.0 -21.05 16.1 -20.35 16.8 -19.9 17.25 -18.7 18.55 -17.85 19.6 -17.6 19.95 -17.3 20.4 -16.45 21.6 -16.25 21.9 -15.35 23.1 -14.2 24.4 -13.25 25.45 -12.15 26.5 -11.5 27.1 -10.05 28.25 -9.5 28.65 -7.0 29.9 Q-4.45 31.4 -1.85 32.05 1.0 32.95 3.95 33.0 6.7 33.0 9.4 32.05 12.1 31.05 14.8 29.55 L19.9 26.35 24.25 22.7 25.4 21.4 26.25 20.35 26.8 19.65 27.75 18.2 28.85 16.3 30.25 13.05 Q30.85 11.3 31.1 9.45 L31.2 8.1 31.2 7.65 31.2 7.55 30.85 2.05 30.85 1.8 30.8 1.4 30.75 1.25 30.65 0.2 30.55 -0.85 30.55 -0.9 30.55 -1.3 30.65 -1.45 30.35 -1.85 Q30.15 -2.45 30.2 -3.05 L30.35 -4.8 30.35 -4.95 30.35 -5.05 30.45 -6.25 30.4 -7.2 30.35 -8.4 30.2 -9.25 30.2 -9.3 30.0 -10.3 29.65 -11.15 28.8 -13.05 27.7 -14.95 26.45 -16.8 25.25 -18.6 23.95 -20.25 23.2 -21.0 21.45 -22.25 20.4 -22.8 19.25 -23.2 18.3 -23.3 17.45 -23.4 15.7 -23.4 15.65 -23.4 13.85 -24.0 12.35 -24.55 10.85 -25.15 10.7 -25.2 9.75 -25.55 9.55 -25.6 9.35 -25.7 8.55 -26.0 7.85 -26.2 7.8 -26.2 7.35 -26.3 6.7 -26.45 5.4 -26.8 4.05 -27.05 2.25 -27.2 1.05 -27.45 -0.15 -27.55 -1.35 -27.75 -3.0 -27.95 -4.7 -28.0 -6.35 -27.95 -8.05 -27.7 -9.65 -27.35 M2.5 -28.35 L3.55 -28.05 4.55 -27.85 5.65 -27.7 7.4 -27.45 8.75 -27.15 10.6 -26.5 11.75 -25.9 Q12.6 -25.5 13.55 -25.25 L15.4 -24.8 17.0 -24.7 18.6 -24.4 20.0 -24.0 21.2 -23.4 22.45 -22.8 23.5 -22.05 24.95 -20.7 25.8 -19.7 Q26.5 -19.0 26.8 -18.05 L27.25 -17.1 28.25 -15.5 29.3 -13.95 30.1 -12.55 30.75 -11.0 31.1 -9.85 31.5 -8.05 31.7 -6.25 31.75 -4.95 31.75 -3.75 Q31.75 -2.75 31.15 -1.9 L31.3 -1.4 31.5 -0.85 31.7 0.1 32.0 6.1 32.1 6.8 32.1 7.5 Q32.25 10.25 31.5 13.0 30.75 15.6 29.15 17.95 L25.6 22.6 Q23.8 24.65 21.65 26.35 L17.15 29.2 12.3 31.65 Q9.65 32.8 7.0 33.35 L1.65 33.9 Q-1.1 33.55 -3.6 32.6 L-7.0 31.25 -8.1 30.6 -9.25 29.85 -9.85 29.15 -9.4 29.95 -9.55 29.95 -9.9 29.9 -10.45 29.55 -11.8 28.3 -13.25 26.9 -14.55 25.6 -15.25 24.75 -16.1 23.7 -17.2 22.3 -18.05 21.1 -18.85 20.1 -20.15 18.45 -23.6 14.65 -24.2 13.85 -24.8 12.9 -25.35 11.95 -25.95 10.85 -26.7 9.3 -27.75 7.0 -28.4 5.6 -28.95 4.05 -29.45 2.65 -30.0 0.8 -30.35 -0.65 -30.3 -0.95 -30.05 -1.35 -30.1 -1.85 -30.15 -2.55 -30.25 -3.25 -30.3 -4.65 -30.3 -6.05 -30.0 -8.15 -29.7 -9.55 -29.4 -10.85 -29.05 -12.15 -28.55 -13.45 -28.0 -14.65 -27.45 -15.85 -26.8 -17.05 -26.15 -18.3 -25.35 -19.4 -24.05 -21.05 -22.6 -22.45 -21.6 -23.25 -21.1 -23.65 -20.05 -24.4 -18.95 -25.1 -17.6 -25.75 -16.3 -26.4 -15.6 -26.65 -14.25 -27.15 -13.0 -27.5 -11.8 -27.9 -11.2 -28.1 -9.4 -28.5 -8.8 -28.65 -8.0 -28.75 -7.3 -28.85 -5.85 -29.0 -5.1 -29.0 -3.7 -29.0 -2.25 -28.9 -0.85 -28.7 0.55 -28.55 1.9 -28.35 2.5 -28.35 M15.8 -19.8 L14.65 -20.1 Q14.05 -20.4 14.05 -20.65 14.05 -21.15 16.4 -20.05 L15.8 -19.8 M17.3 -15.7 L17.85 -15.65 17.9 -15.45 17.85 -15.35 17.25 -15.25 16.75 -15.3 16.75 -15.6 17.3 -15.7 M-8.9 -6.75 L-7.15 -8.15 -6.95 -8.25 -2.15 -12.1 Q-0.15 -13.75 2.35 -16.35 L3.7 -17.8 3.85 -18.0 Q2.25 -15.45 -1.6 -11.85 L-5.6 -8.45 -7.65 -6.95 Q-8.95 -6.15 -9.45 -6.15 L-9.65 -6.2 Q-9.3 -6.5 -8.9 -6.75 M22.2 -7.25 L21.0 -6.5 20.8 -6.8 21.25 -7.35 22.05 -7.75 22.5 -7.8 22.55 -7.65 22.2 -7.25 M23.35 -6.4 L23.35 -6.15 22.4 -5.3 Q22.2 -5.3 22.2 -5.45 L22.2 -5.6 22.5 -6.05 23.05 -6.4 23.35 -6.4 M29.1 -4.0 L29.15 -4.1 29.55 -4.2 29.6 -3.95 29.05 -2.15 Q28.85 -2.15 28.75 -2.6 L28.7 -3.1 28.85 -3.75 28.9 -3.75 29.05 -3.95 29.1 -4.0 M26.6 14.35 L25.2 17.35 24.3 18.85 24.1 19.15 23.55 20.05 Q22.15 22.0 20.3 23.5 L15.95 26.7 Q13.4 28.2 10.55 28.8 L13.65 27.2 19.1 23.35 22.3 20.2 24.0 17.9 24.65 16.9 25.1 16.15 25.95 14.55 Q27.25 12.05 27.6 9.2 L27.6 9.0 28.1 2.95 27.95 8.45 27.9 9.1 Q27.7 11.65 26.75 14.0 L26.6 14.35 M13.0 10.5 L19.15 9.1 19.2 9.15 Q19.2 9.4 15.9 10.2 L11.7 11.1 8.4 11.1 7.25 10.85 Q4.9 10.2 3.75 9.35 L3.7 9.3 3.7 9.0 Q4.75 9.3 5.6 9.8 6.8 10.25 10.35 10.5 L13.0 10.5 M5.4 19.9 L5.4 19.85 9.45 18.75 10.35 18.65 14.85 18.5 9.8 19.25 5.85 19.95 5.45 20.05 5.4 19.9 M-11.55 -14.9 L-10.65 -16.2 Q-12.2 -12.5 -14.75 -9.05 -15.55 -7.95 -18.45 -5.65 -19.25 -4.95 -21.3 -3.95 -23.2 -3.05 -23.55 -3.05 -23.7 -3.05 -23.8 -3.15 L-23.3 -3.4 -22.55 -3.8 -22.55 -3.85 Q-22.05 -4.1 -21.3 -4.5 -19.6 -5.35 -18.85 -6.1 -16.4 -8.2 -15.3 -9.45 -14.2 -10.6 -12.85 -12.85 L-12.55 -13.3 -11.55 -14.9" fill="#a36a6a" fill-rule="evenodd" stroke="none"/>
    <path d="M-4.3 -26.8 L-6.4 -27.0 -9.65 -27.35 -8.05 -27.7 -6.35 -27.95 -4.7 -28.0 -3.0 -27.95 -1.35 -27.75 -0.15 -27.55 1.05 -27.45 2.25 -27.2 4.05 -27.05 5.4 -26.8 6.7 -26.45 7.35 -26.3 7.8 -26.2 7.85 -26.2 7.95 -26.15 9.55 -25.6 9.75 -25.55 10.7 -25.2 10.85 -25.15 12.35 -24.55 13.85 -24.0 15.65 -23.4 15.7 -23.4 14.7 -22.55 Q13.55 -21.75 12.65 -21.75 11.85 -22.1 11.15 -22.4 L10.55 -22.8 10.45 -22.9 10.4 -22.9 10.35 -22.95 9.8 -23.35 9.05 -23.75 Q8.35 -23.9 7.7 -24.3 L6.2 -25.0 2.95 -26.2 -1.6 -26.8 -5.3 -27.1 -5.3 -27.0 -4.3 -26.8 M21.3 -9.6 L19.75 -12.35 Q17.4 -15.7 17.4 -20.85 17.4 -22.3 17.85 -22.8 L18.3 -23.3 19.25 -23.2 20.4 -22.8 21.45 -22.25 23.2 -21.0 23.95 -20.25 25.25 -18.6 26.45 -16.8 27.7 -14.95 28.8 -13.05 29.65 -11.15 30.0 -10.3 30.2 -9.3 30.2 -9.25 30.35 -8.4 30.4 -7.2 30.45 -6.25 28.35 -4.85 Q26.3 -4.85 24.5 -6.55 L22.7 -8.65 21.3 -9.6 M30.65 0.2 L30.75 1.25 30.8 1.4 30.85 1.8 30.85 2.05 31.2 7.55 31.2 7.65 31.2 8.1 31.1 9.45 Q30.85 11.3 30.25 13.05 L28.85 16.3 Q27.7 16.2 27.45 15.55 L27.45 14.7 Q27.45 13.35 28.1 11.55 28.7 9.75 28.7 7.85 L28.5 4.55 28.45 3.5 28.65 2.0 Q29.2 0.45 30.35 0.25 L30.65 0.2 M29.65 3.0 L29.65 3.1 29.7 3.15 29.75 2.35 29.75 2.4 29.65 3.0" fill="#f2eaea" fill-rule="evenodd" stroke="none"/>
    <path d="M-28.75 1.1 L-23.6 1.4 -14.05 1.4 -3.85 -0.65 Q-1.1 -1.4 2.15 -2.9 L7.5 -5.85 Q11.35 -7.95 11.35 -7.5 L9.9 -2.6 7.6 3.8 6.35 6.05 7.5 5.95 11.55 5.8 14.85 4.5 Q17.8 3.35 19.65 0.55 20.1 -0.2 20.35 -1.5 L20.8 -3.5 19.95 -4.45 Q17.7 -7.0 17.7 -8.05 17.7 -9.4 18.7 -9.95 19.65 -10.5 21.3 -9.6 L22.7 -8.65 24.5 -6.55 Q26.3 -4.85 28.35 -4.85 L30.45 -6.25 30.35 -5.05 30.35 -4.95 30.35 -4.8 30.2 -3.05 Q30.15 -2.45 30.35 -1.85 L30.65 -1.45 30.55 -1.3 30.55 -0.9 30.55 -0.85 30.65 0.2 30.35 0.25 Q29.2 0.45 28.65 2.0 L28.45 3.5 28.5 4.55 28.7 7.85 Q28.7 9.75 28.1 11.55 27.45 13.35 27.45 14.7 L27.45 15.55 Q27.7 16.2 28.85 16.3 L27.75 18.2 26.8 19.65 Q25.6 19.55 25.3 19.0 L25.2 18.2 25.2 17.35 26.6 14.35 26.45 14.75 27.15 13.15 Q28.0 10.8 28.0 9.75 L27.9 9.1 27.95 8.45 28.1 2.95 27.6 9.0 27.6 9.2 27.5 9.3 27.6 8.95 27.9 6.2 Q27.5 6.85 26.85 8.9 26.3 10.85 25.35 11.95 22.35 15.45 11.4 16.25 L8.55 16.3 8.3 16.35 3.95 16.35 -11.25 14.1 -16.0 12.6 Q-20.45 11.35 -23.8 11.35 L-24.5 11.45 -25.0 10.5 -25.5 9.55 -26.1 8.3 -26.7 7.0 -27.45 5.5 -28.15 3.8 -28.6 2.25 -28.65 1.95 -28.75 1.1 M3.7 -17.8 L2.35 -16.35 Q-0.15 -13.75 -2.15 -12.1 L-6.95 -8.25 -7.15 -8.15 -8.9 -6.75 -9.55 -6.25 -8.0 -9.5 -7.45 -11.25 -6.55 -12.8 Q-5.85 -13.4 -3.75 -14.25 L-0.85 -15.45 1.35 -16.75 Q2.5 -17.45 3.7 -17.8 M22.2 -7.25 L22.55 -7.65 22.5 -7.8 22.05 -7.75 21.25 -7.35 20.8 -6.8 21.0 -6.5 22.2 -7.25 M23.35 -6.4 L23.05 -6.4 22.5 -6.05 22.2 -5.6 22.2 -5.45 Q22.2 -5.3 22.4 -5.3 L23.35 -6.15 23.35 -6.4 M29.1 -4.0 L29.05 -3.95 28.9 -3.75 28.85 -3.75 28.7 -3.1 28.75 -2.6 Q28.85 -2.15 29.05 -2.15 L29.6 -3.95 29.55 -4.2 29.15 -4.1 29.1 -4.0 M21.85 -2.75 Q22.75 -0.5 24.7 0.8 L25.65 1.45 26.5 1.45 29.1 -1.1 Q25.3 -1.1 21.85 -2.75 M29.65 3.0 L29.75 2.4 29.75 2.35 29.7 3.15 29.65 3.1 29.65 3.0 M13.0 10.5 L10.35 10.5 Q6.8 10.25 5.6 9.8 4.75 9.3 3.7 9.0 L3.7 9.3 3.75 9.35 Q4.9 10.2 7.25 10.85 L8.4 11.1 11.7 11.1 15.9 10.2 Q19.2 9.4 19.2 9.15 L19.15 9.1 13.0 10.5 M-23.3 -3.4 L-23.35 -3.65 Q-23.35 -6.9 -20.0 -9.3 -15.2 -12.2 -11.55 -14.9 L-12.55 -13.3 -12.85 -12.85 Q-14.2 -10.6 -15.3 -9.45 -16.4 -8.2 -18.85 -6.1 -19.6 -5.35 -21.3 -4.5 -22.05 -4.1 -22.55 -3.85 L-22.55 -3.8 -23.3 -3.4" fill="#e0cbcb" fill-rule="evenodd" stroke="none"/>
    <path d="M26.8 19.65 L26.25 20.35 25.4 21.4 24.25 22.7 19.9 26.35 14.8 29.55 Q12.1 31.05 9.4 32.05 6.7 33.0 3.95 33.0 1.0 32.95 -1.85 32.05 -4.45 31.4 -7.0 29.9 L-9.5 28.65 -10.05 28.25 -11.5 27.1 -12.15 26.5 -13.25 25.45 -14.2 24.4 -15.35 23.1 -16.25 21.9 -16.45 21.6 -17.3 20.4 -17.6 19.95 -17.85 19.6 -18.7 18.55 -19.9 17.25 -20.35 16.8 -21.05 16.1 -21.15 16.0 -21.1 16.0 -21.7 15.35 -22.1 14.9 -22.35 14.65 -22.75 14.15 -23.05 13.8 -23.6 12.9 -23.95 12.4 -24.2 11.95 -24.4 11.65 -24.5 11.45 -23.8 11.35 Q-20.45 11.35 -16.0 12.6 L-11.25 14.1 3.95 16.35 8.3 16.35 8.55 16.3 11.4 16.25 Q22.35 15.45 25.35 11.95 26.3 10.85 26.85 8.9 27.5 6.85 27.9 6.2 L27.6 8.95 27.5 9.3 27.6 9.2 Q27.25 12.05 25.95 14.55 L25.1 16.15 24.65 16.9 24.0 17.9 22.3 20.2 19.1 23.35 13.65 27.2 10.55 28.8 Q13.4 28.2 15.95 26.7 L20.3 23.5 Q22.15 22.0 23.55 20.05 L24.1 19.15 24.3 18.85 25.2 17.35 25.2 18.2 25.3 19.0 Q25.6 19.55 26.8 19.65 M21.85 -2.75 Q25.3 -1.1 29.1 -1.1 L26.5 1.45 25.65 1.45 24.7 0.8 Q22.75 -0.5 21.85 -2.75 M27.9 9.1 L28.0 9.75 Q28.0 10.8 27.15 13.15 L26.45 14.75 26.6 14.35 26.75 14.0 Q27.7 11.65 27.9 9.1 M5.4 19.9 L5.45 20.05 5.85 19.95 9.8 19.25 14.85 18.5 10.35 18.65 9.45 18.75 5.4 19.85 5.4 19.9" fill="#cca9a9" fill-rule="evenodd" stroke="none"/>
    <path d="M-4.3 -26.8 L0.0 -26.0 4.05 -24.95 Q5.65 -24.0 11.0 -22.05 L11.3 -22.25 11.15 -22.4 Q11.85 -22.1 12.65 -21.75 13.55 -21.75 14.7 -22.55 L15.7 -23.4 17.45 -23.4 18.3 -23.3 17.85 -22.8 Q17.4 -22.3 17.4 -20.85 17.4 -15.7 19.75 -12.35 L21.3 -9.6 Q19.65 -10.5 18.7 -9.95 17.7 -9.4 17.7 -8.05 17.7 -7.0 19.95 -4.45 L20.8 -3.5 20.35 -1.5 Q20.1 -0.2 19.65 0.55 17.8 3.35 14.85 4.5 L11.55 5.8 7.5 5.95 6.35 6.05 7.6 3.8 9.9 -2.6 11.35 -7.5 Q11.35 -7.95 7.5 -5.85 L2.15 -2.9 Q-1.1 -1.4 -3.85 -0.65 L-14.05 1.4 -23.6 1.4 -28.75 1.1 -29.0 0.05 -29.3 -1.6 -29.35 -3.6 -29.3 -4.95 -29.2 -6.85 -29.05 -8.0 -28.7 -9.65 -28.3 -11.15 -27.6 -12.9 -26.85 -14.55 -25.95 -16.3 -24.95 -17.9 -24.0 -19.25 -22.9 -20.55 -21.75 -21.8 -20.6 -23.0 -19.35 -23.95 -18.05 -24.75 -16.6 -25.45 -14.9 -26.05 -13.9 -26.35 -12.9 -26.55 -11.0 -27.0 -10.0 -27.3 -9.65 -27.35 -6.4 -27.0 -4.3 -26.8 M7.85 -26.2 L8.55 -26.0 9.35 -25.7 9.55 -25.6 7.95 -26.15 7.85 -26.2 M17.3 -15.7 L16.75 -15.6 16.75 -15.3 17.25 -15.25 17.85 -15.35 17.9 -15.45 17.85 -15.65 17.3 -15.7 M15.8 -19.8 L16.4 -20.05 Q14.05 -21.15 14.05 -20.65 14.05 -20.4 14.65 -20.1 L15.8 -19.8 M3.7 -17.8 Q2.5 -17.45 1.35 -16.75 L-0.85 -15.45 -3.75 -14.25 Q-5.85 -13.4 -6.55 -12.8 L-7.45 -11.25 -8.0 -9.5 -9.55 -6.25 -8.9 -6.75 Q-9.3 -6.5 -9.65 -6.2 L-9.45 -6.15 Q-8.95 -6.15 -7.65 -6.95 L-5.6 -8.45 -1.6 -11.85 Q2.25 -15.45 3.85 -18.0 L3.7 -17.8 M-23.3 -3.4 L-23.8 -3.15 Q-23.7 -3.05 -23.55 -3.05 -23.2 -3.05 -21.3 -3.95 -19.25 -4.95 -18.45 -5.65 -15.55 -7.95 -14.75 -9.05 -12.2 -12.5 -10.65 -16.2 L-11.55 -14.9 Q-15.2 -12.2 -20.0 -9.3 -23.35 -6.9 -23.35 -3.65 L-23.3 -3.4" fill="url(#gradient0)" fill-rule="evenodd" stroke="none"/>
  </g>
  <defs>
    <radialGradient cx="0" cy="0" gradientTransform="matrix(0.048, 0.0, 0.0, 0.0437, -2.7, 1.1)" gradientUnits="userSpaceOnUse" id="gradient0" r="819.2" spreadMethod="pad">
      <stop offset="0.34901960784313724" stop-color="#f2eaea"></stop>
      <stop offset="1.0" stop-color="#e0cbcb"></stop>
    </radialGradient>
  </defs>
</svg>