<?xml version="1.0" encoding="UTF-8" standalone="no"?>
<svg xmlns:xlink="http://www.w3.org/1999/xlink" height="56.5px" width="62.5px" xmlns="http://www.w3.org/2000/svg">
  <g transform="matrix(1.0, 0.0, 0.0, 1.0, 23.2, 20.05)">
    <path d="M6.45 -11.15 L6.45 -10.8 6.05 -10.65 5.75 -10.8 5.7 -11.1 Q5.7 -11.4 6.35 -11.4 L6.45 -11.15 M2.7 -11.9 L2.7 -12.35 Q2.7 -12.85 3.25 -12.8 3.8 -12.75 3.8 -12.3 L3.65 -11.95 Q3.5 -11.75 3.25 -11.75 L2.7 -11.9 M0.2 -9.85 Q0.0 -9.6 -0.2 -9.6 -0.65 -9.6 -0.8 -9.85 L-0.75 -9.35 -1.1 -8.05 -0.5 -8.6 Q0.8 -9.7 0.8 -8.3 L0.25 -7.2 -0.45 -6.5 -0.2 -5.85 -0.7 -5.25 Q-1.25 -4.8 -1.55 -4.8 L-2.1 -5.0 -2.05 -5.25 -2.4 -4.3 -2.55 -3.9 -2.7 -3.5 -2.85 -3.2 -2.4 -3.75 -2.15 -3.95 Q-1.6 -4.4 -1.05 -4.25 L-0.95 -3.9 Q-0.95 -3.6 -1.6 -3.0 -2.3 -2.4 -2.6 -2.4 -3.05 -2.4 -3.0 -2.85 L-3.0 -2.9 -3.0 -2.95 -3.0 -2.9 -4.2 -0.45 -4.25 -0.4 -4.2 -0.45 -4.0 -0.55 Q-2.75 -1.15 -2.75 -0.3 L-3.55 0.55 -4.55 1.2 -4.9 1.15 -5.0 1.1 -5.05 1.1 -5.1 1.2 -5.15 1.35 -4.95 1.2 Q-4.8 1.4 -4.8 1.8 L-4.85 2.45 -5.4 3.0 -5.7 2.55 -5.65 2.25 -5.75 2.45 -6.1 3.15 -5.55 3.15 -5.45 3.45 -5.9 3.9 -6.45 3.8 -6.45 3.75 -6.8 4.35 Q-6.6 4.45 -6.55 4.5 L-6.45 4.75 -6.5 5.1 -6.8 5.15 -7.05 5.15 -7.1 4.95 -7.5 5.7 -8.35 7.2 -8.75 7.8 -9.0 7.8 -9.15 7.7 -9.2 7.35 -7.95 4.55 -6.8 2.1 -6.35 1.15 -5.75 -0.05 -6.1 -0.45 -6.15 -0.8 Q-6.15 -1.7 -5.3 -1.5 L-5.05 -1.4 -4.15 -3.25 -4.0 -3.5 -4.5 -3.3 Q-5.2 -3.3 -5.25 -3.95 -5.25 -4.65 -4.1 -5.1 -4.65 -5.25 -4.55 -5.9 -4.55 -6.8 -3.6 -6.7 L-2.9 -6.5 -2.7 -6.2 -2.7 -6.0 Q-2.7 -5.7 -2.95 -5.45 L-3.15 -5.25 -3.05 -5.2 -3.0 -5.15 -2.2 -6.05 -2.1 -6.2 Q-2.7 -6.35 -2.55 -7.55 -2.55 -9.2 -1.65 -9.85 L-0.85 -9.95 -0.9 -10.25 Q-0.9 -10.9 -0.2 -10.9 0.45 -10.9 0.45 -10.25 L0.2 -9.85 M2.4 -10.2 L2.25 -9.75 Q2.05 -9.5 1.8 -9.5 1.15 -9.5 0.8 -10.25 0.8 -10.75 1.6 -10.9 L2.3 -10.7 2.4 -10.4 2.4 -10.3 2.4 -10.25 2.4 -10.2 M3.9 -8.6 L3.6 -8.15 3.3 -8.0 Q2.95 -8.0 2.85 -8.25 L2.85 -8.55 Q2.85 -9.15 3.75 -8.9 L3.9 -8.6 M1.05 -5.55 Q0.75 -5.25 0.45 -5.25 L0.0 -5.3 0.0 -5.75 Q0.0 -6.35 0.7 -6.4 1.35 -6.45 1.35 -6.0 L1.05 -5.55 M19.95 -8.1 Q19.95 -8.6 20.7 -8.4 L20.75 -8.15 20.7 -7.8 Q20.8 -7.65 20.4 -7.65 20.0 -7.65 19.95 -7.85 L19.95 -8.1 M13.05 -0.05 L13.45 -0.05 13.4 -0.2 Q13.4 -0.8 14.1 -0.9 L14.3 -0.9 14.5 -0.9 14.45 -1.25 Q14.45 -1.9 15.05 -1.85 15.6 -1.85 15.65 -1.3 L16.6 -2.45 16.75 -2.55 16.65 -2.7 16.55 -3.0 Q16.55 -3.6 17.2 -3.7 17.65 -3.75 17.8 -3.45 18.35 -3.75 18.55 -3.25 L18.6 -3.3 19.3 -3.4 20.0 -3.25 Q20.05 -4.2 20.65 -4.05 21.3 -3.95 21.3 -3.2 L21.15 -2.8 21.05 -2.7 21.15 -2.7 Q21.75 -2.7 21.75 -2.1 21.75 -1.4 21.2 -1.4 20.75 -1.4 20.6 -1.75 L20.55 -2.1 Q20.55 -2.4 20.7 -2.55 L20.6 -2.55 20.2 -2.65 Q20.0 -2.3 19.2 -2.3 L18.55 -2.45 18.4 -2.05 18.95 -1.85 Q19.15 -2.1 19.7 -2.15 20.6 -2.25 20.6 -1.55 20.6 -0.75 19.8 -0.75 L19.1 -0.9 Q18.95 -0.35 18.45 0.0 L16.25 1.2 Q15.95 1.35 15.35 2.4 15.0 3.0 12.8 3.0 L11.5 4.1 11.75 4.5 11.5 5.0 10.9 5.25 10.35 5.0 10.25 5.1 10.25 5.3 9.95 6.0 9.2 6.45 8.8 6.2 8.9 6.1 7.5 7.0 7.4 7.05 Q7.35 7.1 6.4 7.5 L6.3 7.55 5.0 8.05 4.3 8.35 3.6 8.7 Q2.3 9.3 1.4 9.85 L1.5 10.25 1.2 10.85 0.7 11.1 Q-0.05 11.1 0.0 10.5 0.0 9.95 0.75 9.75 L0.8 9.75 3.0 8.2 2.7 8.1 2.7 7.6 Q2.7 7.05 3.25 6.75 3.4 6.3 3.85 6.15 4.5 5.95 4.5 6.7 L4.3 7.35 4.25 7.4 4.15 7.45 3.75 7.5 3.65 7.5 3.6 7.6 3.4 7.95 4.25 7.4 4.4 7.25 8.5 4.45 8.1 4.2 8.15 4.15 8.1 4.15 Q8.2 3.85 8.45 3.7 L8.75 3.6 Q9.15 3.5 9.2 3.9 L9.75 3.45 11.25 1.95 Q11.1 1.75 11.1 1.2 11.1 0.25 11.8 0.15 L12.4 0.3 Q12.45 0.0 13.05 -0.05 M18.7 -5.35 L18.6 -5.7 Q18.6 -6.45 19.6 -6.3 20.55 -6.15 20.55 -5.55 20.55 -4.95 19.75 -4.95 18.95 -4.95 18.7 -5.35 M16.25 -5.6 L15.9 -5.6 15.8 -5.9 Q15.8 -6.3 16.1 -6.3 L16.5 -6.0 16.25 -5.6 M23.7 -4.25 L23.5 -3.9 23.1 -3.75 Q22.55 -3.75 22.4 -4.05 L22.35 -4.4 Q22.35 -5.0 23.05 -4.9 23.7 -4.8 23.7 -4.25 M24.45 -1.8 L24.0 -1.5 Q23.55 -1.6 23.55 -2.0 L23.8 -2.45 Q24.1 -2.6 24.5 -2.0 L24.45 -1.8 M27.95 -1.2 L27.9 -0.95 27.8 -0.85 27.55 -0.8 27.15 -0.9 27.15 -1.5 27.8 -1.5 27.95 -1.2 M27.95 5.55 Q28.55 5.5 28.55 6.0 L28.4 6.4 28.05 6.6 Q27.7 6.6 27.5 6.4 L27.35 6.05 Q27.35 5.6 27.95 5.55 M20.7 0.45 Q20.7 -0.1 21.7 -0.3 22.65 -0.5 22.65 0.2 22.65 0.95 21.5 0.95 20.7 0.95 20.7 0.45 M25.15 8.05 Q25.65 8.05 25.65 8.55 L25.2 9.0 Q24.85 9.0 24.7 8.8 L24.6 8.55 Q24.6 8.05 25.15 8.05 M22.75 10.4 Q23.4 10.55 23.4 10.85 L23.4 11.0 23.65 11.05 Q24.0 11.2 24.0 11.6 L23.9 12.1 24.0 12.1 24.35 12.05 24.9 12.05 Q25.1 11.7 25.85 11.45 26.85 11.15 26.85 11.95 L26.4 12.6 26.15 12.8 25.1 12.9 24.95 12.8 25.05 12.9 24.95 12.95 26.55 12.8 Q27.45 12.8 27.45 13.3 L25.5 13.95 25.55 14.2 Q25.55 14.85 24.8 14.85 23.9 14.85 23.9 14.25 L22.6 14.45 22.0 14.55 22.05 14.55 22.2 14.55 22.1 14.6 Q23.85 15.25 23.85 15.7 23.85 16.4 23.0 16.4 20.75 16.4 20.75 15.45 20.75 14.85 21.4 14.65 L20.15 14.85 20.25 15.15 19.9 15.65 19.25 15.9 Q18.8 15.9 18.65 15.6 L18.65 15.3 18.7 15.1 16.85 15.3 15.75 15.5 15.75 15.6 15.15 16.05 14.85 16.65 14.2 16.95 Q13.65 16.95 13.55 16.65 L13.5 16.3 13.75 15.9 12.65 16.1 12.2 16.15 12.2 16.2 Q12.2 16.55 11.1 16.8 L10.85 16.75 10.8 16.5 10.85 16.4 8.75 16.75 8.35 16.8 8.25 16.8 7.8 16.8 7.5 16.7 7.35 16.7 7.35 16.5 Q7.35 16.4 7.9 16.2 L9.25 15.85 16.05 14.4 16.6 14.3 16.5 13.95 Q16.5 13.05 17.35 13.2 18.15 13.3 18.15 13.95 L18.15 14.05 18.85 13.9 18.65 13.45 Q18.65 12.6 19.75 12.85 L20.45 13.1 Q20.5 12.6 20.8 12.3 L20.7 12.3 Q20.3 12.3 20.3 11.8 20.3 11.35 20.75 11.35 21.15 11.35 21.15 11.75 L21.15 12.1 21.4 12.0 22.15 12.05 Q22.35 12.2 22.35 12.6 L22.15 12.95 21.8 13.4 22.35 13.3 22.35 13.2 Q22.35 12.6 23.35 12.25 L22.9 12.45 22.5 12.1 22.5 11.7 22.55 11.4 22.15 11.1 22.05 10.75 Q22.05 10.25 22.75 10.4 M28.5 9.0 Q28.5 9.2 28.1 9.2 27.8 9.2 27.6 8.85 L27.45 8.5 Q27.45 8.1 28.0 8.1 28.5 8.1 28.5 8.7 L28.5 9.0 M25.65 6.2 Q25.95 5.95 26.4 6.6 26.45 6.9 25.85 7.05 L25.4 6.55 25.65 6.2 M27.65 10.8 L27.4 11.25 27.15 11.4 26.5 11.05 26.45 10.8 Q26.45 10.25 27.05 10.2 27.65 10.2 27.65 10.8 M29.7 11.25 L29.7 10.4 30.3 10.45 30.75 10.95 30.2 11.4 29.7 11.25 M29.35 13.2 L28.8 13.35 28.2 13.1 Q28.25 12.7 28.6 12.4 L29.55 12.35 29.65 12.45 29.7 12.7 29.35 13.2 M26.55 14.8 L26.45 14.4 Q26.45 13.6 27.2 13.6 27.9 13.6 27.9 14.35 27.9 15.15 27.2 15.15 26.75 15.15 26.55 14.8 M30.75 13.35 L30.65 12.85 Q30.65 12.25 31.2 12.25 31.7 12.25 31.7 12.9 31.7 13.5 31.2 13.5 L30.9 13.45 30.75 13.35 M30.75 15.75 Q30.75 15.4 31.05 15.3 L31.4 15.5 31.05 15.9 30.75 15.75 M17.85 0.75 Q17.85 0.15 18.6 0.15 19.35 0.1 19.35 0.6 19.35 1.35 18.45 1.35 L18.0 1.05 17.85 0.75 M16.85 2.05 L16.65 2.85 Q16.35 3.3 15.8 3.3 15.35 3.3 15.35 2.85 15.35 2.05 16.1 1.7 16.85 1.4 16.85 2.05 M13.05 1.05 L12.5 0.9 12.4 1.25 12.1 1.35 12.8 1.15 13.35 1.05 13.05 1.05 M12.9 4.35 L12.15 4.05 Q12.35 3.3 13.15 3.15 13.95 2.95 13.95 3.6 13.95 4.35 12.9 4.35 M10.65 6.7 Q10.65 6.15 11.1 6.15 11.55 6.15 11.55 6.65 11.55 7.2 11.1 7.2 L10.8 7.15 10.65 7.05 10.65 6.7 M5.0 8.15 L5.0 8.05 5.8 7.75 6.15 8.1 5.95 8.55 5.6 8.75 5.1 8.6 5.0 8.15 M7.55 8.9 Q7.55 9.45 6.9 9.45 6.3 9.45 6.3 8.9 6.3 8.35 6.95 8.35 7.55 8.35 7.55 8.9 M7.45 15.0 Q7.95 15.05 7.95 15.45 L7.85 15.75 7.5 15.9 7.05 15.75 6.95 15.45 Q6.95 15.0 7.45 15.0 M7.2 16.95 L7.2 17.1 6.6 17.7 6.3 17.6 Q6.15 17.55 6.15 17.3 6.15 17.1 6.5 17.0 L7.2 16.95 M6.0 16.85 L5.7 17.25 5.75 17.3 5.25 17.9 Q4.95 17.85 4.95 17.45 L4.95 17.25 Q4.8 17.2 4.8 16.8 L5.05 16.55 5.85 16.5 5.95 16.6 6.0 16.85 M16.8 12.6 Q16.8 12.1 17.7 12.1 18.6 12.1 18.6 12.6 18.6 13.2 17.7 13.2 16.8 13.2 16.8 12.6 M17.1 16.1 L17.0 15.85 Q17.0 15.3 17.75 15.3 18.45 15.3 18.45 15.9 18.45 16.4 17.6 16.4 L17.1 16.1 M11.45 14.5 Q11.45 15.0 10.8 15.0 10.25 15.0 10.25 14.45 10.25 13.85 11.4 14.1 L11.45 14.5 M14.75 15.7 L13.75 15.9 14.3 15.8 14.75 15.75 14.75 15.7 M-15.6 -3.35 Q-15.6 -3.2 -15.75 -3.0 -15.95 -2.85 -16.1 -2.85 -16.65 -2.85 -16.65 -3.35 -16.65 -3.85 -16.1 -3.85 -15.6 -3.85 -15.6 -3.35 M-15.65 -1.5 L-15.05 -1.95 -14.9 -1.85 -14.85 -1.7 -14.85 -1.65 -14.9 -1.2 -14.45 -1.35 -14.05 -1.25 Q-13.95 -1.7 -13.4 -1.6 -12.75 -1.5 -12.75 -0.8 -12.75 -0.3 -13.3 -0.3 L-13.85 -0.45 -14.05 -0.25 -14.3 -0.05 -14.3 0.25 Q-14.3 0.75 -14.85 0.75 L-15.3 0.6 Q-15.25 -0.05 -15.0 -0.3 L-14.75 -0.1 -15.05 -0.4 -15.05 -0.35 -15.1 -0.55 -15.1 -0.6 -15.3 -0.35 -15.45 -0.3 Q-15.8 -0.45 -15.8 -0.95 L-15.75 -1.2 -15.65 -1.5 M-14.4 -5.55 Q-14.85 -5.7 -14.85 -6.15 L-14.4 -6.5 Q-14.0 -6.6 -14.0 -6.15 -14.0 -5.7 -14.4 -5.55 M-15.15 -3.35 L-14.95 -3.75 -14.8 -3.9 -14.9 -3.8 -14.35 -4.25 Q-13.8 -4.25 -13.8 -3.75 -13.8 -3.3 -14.25 -3.3 L-14.4 -3.3 -14.9 -3.0 -15.1 -3.15 -15.15 -3.35 M-12.9 -3.35 L-12.95 -2.95 -12.8 -2.6 Q-12.8 -2.1 -13.4 -2.1 -14.05 -2.1 -13.95 -2.7 L-13.8 -3.05 -13.8 -3.35 Q-13.55 -3.95 -13.2 -3.8 -12.9 -3.65 -12.9 -3.35 M-3.15 -8.9 Q-3.15 -9.4 -2.6 -9.55 L-2.0 -9.5 -2.45 -8.45 -2.6 -8.45 Q-3.15 -8.45 -3.15 -8.9 M-1.9 -6.2 L-1.65 -6.55 -1.9 -6.2 M-0.6 10.8 L-0.8 11.05 -1.2 11.25 -1.55 10.8 Q-1.55 10.4 -1.15 10.4 -0.75 10.4 -0.6 10.8 M-14.9 3.3 Q-15.15 3.6 -15.45 3.6 -16.2 3.6 -16.1 2.85 L-16.05 2.6 -16.15 2.8 -16.35 3.55 -16.5 4.4 -16.65 4.65 Q-17.1 5.55 -17.65 5.55 L-17.55 5.55 -17.95 6.25 -19.5 9.05 -20.05 9.85 -19.9 9.65 -19.65 9.9 -19.7 10.2 Q-19.8 10.5 -20.25 10.5 L-20.7 10.35 -20.35 9.65 -20.45 9.5 -20.25 9.15 -20.0 8.5 -19.25 6.8 -18.7 5.7 -18.3 4.9 -18.3 4.85 -17.6 3.2 -17.75 3.5 -18.0 3.3 -18.0 3.05 Q-18.0 2.5 -17.55 2.5 L-17.3 2.6 -17.35 2.75 -17.2 2.4 -16.25 0.7 -16.5 0.75 Q-16.6 0.25 -16.2 0.15 L-16.05 0.4 -16.25 0.7 -16.05 0.35 Q-15.65 0.4 -15.5 0.85 L-15.45 0.85 Q-14.55 1.05 -14.55 1.75 -14.55 2.15 -14.85 2.25 L-15.1 2.25 Q-14.7 2.4 -14.7 2.85 L-14.9 3.3 M-17.45 1.5 L-18.0 1.3 -18.0 1.05 Q-18.0 0.35 -17.45 0.45 -16.95 0.5 -16.95 0.9 -16.95 1.5 -17.45 1.5 M-15.85 2.2 L-15.9 2.3 -15.75 2.25 -15.85 2.2 M-3.45 13.05 L-3.8 12.95 -3.9 12.65 Q-3.9 12.1 -3.2 12.3 L-3.15 12.6 -3.15 13.0 -3.45 13.05" fill="#f2eaea" fill-rule="evenodd" stroke="none"/>
    <path d="M20.1 -14.9 Q20.85 -15.0 20.85 -14.45 L20.5 -13.9 Q20.25 -13.65 20.0 -13.65 19.5 -13.65 19.4 -13.9 L19.35 -14.25 Q19.35 -14.8 20.1 -14.9 M20.05 -13.2 L20.15 -13.25 20.75 -13.7 21.05 -13.8 21.4 -13.85 21.35 -14.05 Q21.35 -14.75 22.1 -14.75 22.85 -14.8 22.85 -14.25 L22.85 -14.1 23.15 -14.1 Q23.85 -13.95 23.85 -13.4 L23.65 -13.0 Q23.4 -12.75 23.1 -12.75 L23.05 -13.0 23.1 -12.2 Q24.05 -12.2 24.05 -11.6 24.05 -11.35 23.5 -10.95 23.05 -10.65 22.8 -10.65 L22.45 -10.75 22.4 -10.7 Q22.95 -10.6 22.95 -10.1 22.95 -9.45 22.05 -9.45 L21.6 -9.55 21.45 -9.15 21.0 -8.85 Q20.3 -8.85 20.3 -9.35 L20.35 -9.5 Q20.0 -9.6 19.8 -10.0 L19.7 -10.4 Q19.7 -11.05 20.3 -11.15 L20.15 -11.35 19.95 -11.65 19.95 -11.3 19.75 -10.85 19.35 -10.65 Q18.7 -10.65 18.45 -11.1 L18.35 -11.55 Q18.35 -12.35 18.8 -12.5 18.9 -13.0 19.45 -13.0 L19.85 -12.9 19.8 -12.85 20.05 -13.2 M2.9 -18.75 L2.85 -18.45 Q2.85 -18.3 2.45 -18.3 2.25 -18.3 1.95 -18.45 L1.95 -18.75 Q2.25 -19.05 2.85 -19.05 L2.9 -18.75 M0.85 -18.65 Q1.55 -18.65 1.55 -17.9 L1.4 -17.55 1.35 -17.45 1.7 -17.15 Q1.95 -17.4 2.5 -17.45 3.5 -17.5 3.5 -16.65 L3.15 -16.0 2.55 -15.65 2.5 -15.6 2.55 -15.5 2.55 -15.35 2.25 -14.8 1.65 -14.55 Q1.2 -14.55 1.05 -14.8 0.35 -14.3 -0.5 -14.3 -1.5 -14.3 -2.2 -15.05 L-2.7 -16.05 -2.7 -16.1 -2.9 -16.05 -3.4 -16.1 -3.3 -15.65 -3.45 -15.25 -3.9 -15.05 Q-4.6 -15.05 -4.5 -15.75 -4.5 -16.45 -3.9 -16.35 L-3.6 -16.25 -3.6 -16.65 Q-3.6 -17.35 -2.9 -17.45 -2.3 -17.55 -2.25 -16.95 L-0.35 -17.65 0.1 -17.7 0.15 -17.7 0.15 -17.9 Q0.15 -18.5 0.65 -18.6 L0.85 -18.65 M4.7 -17.1 Q4.95 -17.6 5.55 -17.6 6.15 -17.6 6.15 -17.15 L5.85 -16.75 5.55 -16.65 4.95 -16.85 4.7 -17.1 M1.05 -13.0 L0.6 -12.8 Q-0.25 -12.8 -0.2 -13.65 -0.2 -14.3 0.55 -14.2 1.25 -14.15 1.25 -13.4 L1.05 -13.0 M3.85 -14.8 Q3.65 -14.6 3.45 -14.6 2.75 -14.6 2.85 -15.2 2.85 -15.75 3.45 -15.85 4.05 -15.9 4.05 -15.3 L3.85 -14.8 M17.8 -10.35 Q17.55 -10.2 17.4 -10.2 16.95 -10.2 16.95 -10.7 L16.95 -11.1 Q18.0 -11.5 18.0 -10.65 L17.8 -10.35 M23.55 -15.2 Q24.15 -15.2 24.15 -14.6 24.15 -14.1 23.55 -14.1 22.95 -14.1 22.95 -14.6 22.95 -15.2 23.55 -15.2 M25.0 -12.45 Q24.8 -12.3 24.65 -12.3 24.25 -12.3 24.15 -12.5 L24.15 -12.75 Q24.15 -13.3 24.7 -13.3 25.2 -13.25 25.2 -12.8 L25.0 -12.45 M21.15 -10.35 L21.1 -9.95 21.4 -9.9 21.35 -10.1 21.5 -10.55 21.15 -10.6 21.15 -10.35 M23.35 -6.75 L23.05 -6.75 Q22.35 -6.75 22.35 -7.25 22.35 -7.7 23.0 -7.7 23.6 -7.75 23.6 -7.25 L23.35 -6.75 M23.95 -8.55 Q23.4 -8.55 23.4 -9.05 23.4 -9.65 24.0 -9.65 24.6 -9.65 24.6 -9.05 24.6 -8.55 23.95 -8.55 M35.7 2.4 Q35.7 1.45 36.55 1.65 L37.3 2.1 Q37.65 2.15 37.65 2.5 L37.55 2.85 37.35 2.9 37.05 2.75 36.9 2.9 36.3 3.3 36.25 3.3 36.3 4.0 36.3 3.8 36.75 3.75 37.2 4.0 Q37.5 4.3 37.5 4.9 L37.5 5.0 37.3 5.4 36.95 5.6 37.05 6.0 Q37.05 6.75 36.2 6.75 L35.6 6.55 Q35.1 7.35 34.35 7.35 L34.05 7.35 34.05 7.45 Q34.05 8.0 33.5 8.0 L33.45 8.0 32.9 7.85 32.85 7.45 33.0 7.05 33.25 6.95 33.2 6.9 33.2 6.85 33.05 6.7 32.65 6.0 32.3 4.7 32.35 4.95 32.15 4.95 31.55 4.6 31.55 4.25 Q31.55 3.55 32.2 3.6 L32.5 3.7 32.95 3.15 32.9 2.9 Q32.9 2.3 33.45 2.3 L33.55 2.55 33.45 2.25 Q33.45 1.85 34.0 1.8 34.5 1.7 34.5 2.25 L34.5 2.35 35.7 2.45 35.7 2.4 M35.95 5.75 L36.1 5.35 36.25 5.35 36.3 5.35 36.15 5.15 35.95 5.75 M33.15 1.1 Q33.15 0.55 33.75 0.55 34.35 0.55 34.35 1.2 34.35 1.7 33.8 1.7 33.3 1.7 33.2 1.35 L33.15 1.1 M30.7 2.85 Q30.1 2.85 29.9 2.55 L29.85 2.2 Q29.85 1.55 30.75 1.55 31.65 1.6 31.65 2.25 31.65 2.85 30.7 2.85 M35.3 7.65 Q35.3 7.1 35.9 7.0 36.45 6.95 36.45 7.4 L36.3 8.45 35.85 8.7 35.4 8.45 35.3 7.65 M31.55 6.75 Q31.55 7.25 30.9 7.25 L30.45 7.1 Q30.3 6.85 30.55 6.5 30.85 6.05 31.5 6.35 L31.55 6.75 M34.1 9.75 Q34.1 8.95 35.1 8.9 L35.15 9.55 Q35.15 10.5 34.65 10.5 34.2 10.5 34.1 10.15 L34.1 9.75 M38.3 6.95 Q38.3 7.5 37.75 7.5 L37.4 7.4 37.3 7.4 37.25 7.1 Q37.25 6.65 38.25 6.6 L38.3 6.95 M29.85 21.4 Q30.2 20.65 31.0 20.35 L31.55 20.25 31.5 19.95 Q31.5 19.15 32.35 19.25 33.15 19.35 33.15 19.9 L32.85 20.45 32.35 20.7 32.25 20.7 32.35 20.95 32.7 20.7 33.35 20.6 33.9 20.1 Q34.5 19.9 34.5 20.5 L34.35 21.15 Q34.15 21.6 33.8 21.6 L33.45 21.5 33.5 21.35 33.2 22.2 33.0 22.75 33.15 23.1 32.8 23.75 32.75 23.8 32.25 24.15 Q31.8 24.15 31.65 23.7 L31.65 23.25 Q31.2 23.75 30.6 23.75 L29.85 23.55 29.65 23.25 29.55 22.8 29.4 22.8 Q28.1 22.8 28.1 22.15 28.1 21.6 29.3 21.4 L29.85 21.4 M32.6 17.9 Q32.6 17.35 33.05 17.35 33.45 17.35 33.45 17.9 L33.45 18.3 Q33.4 18.5 33.0 18.5 32.7 18.5 32.6 18.2 L32.6 17.9 M31.7 19.2 L31.55 18.9 31.95 18.45 32.4 18.8 32.35 19.0 31.95 19.25 31.7 19.2 M18.7 33.45 L18.25 33.2 18.2 32.9 Q18.2 32.4 18.65 32.45 19.05 32.55 19.05 32.9 19.05 33.45 18.7 33.45 M19.45 35.4 L19.35 35.25 19.35 35.1 19.55 34.8 20.15 34.95 20.25 35.15 19.75 35.45 19.45 35.4 M30.5 26.3 Q30.1 26.3 30.0 26.0 L29.9 25.65 Q29.9 24.75 30.65 24.7 31.35 24.6 31.35 25.4 31.35 26.3 30.5 26.3 M29.55 26.1 L28.85 26.85 28.35 26.75 28.35 26.5 Q28.7 25.95 29.4 25.85 L29.55 26.1 M26.7 26.55 Q26.7 27.15 26.25 27.15 25.8 27.15 25.7 26.9 L25.7 26.6 Q25.7 25.7 26.6 26.15 L26.7 26.55 M22.5 30.5 L22.55 30.8 Q22.55 31.25 22.15 31.25 L21.75 31.2 Q21.6 31.2 21.6 30.8 21.6 30.6 21.9 30.5 L22.5 30.5 M22.3 27.9 Q22.95 28.1 22.95 28.75 L22.5 29.3 21.85 28.85 21.6 28.35 Q21.6 27.7 22.3 27.9 M24.9 28.8 L24.95 29.15 Q24.95 29.65 24.15 30.0 23.75 29.85 23.75 29.45 23.75 29.15 24.0 28.95 L24.9 28.8 M23.1 32.1 Q22.65 32.1 22.5 31.7 L22.5 31.4 Q22.5 30.7 23.15 30.65 23.75 30.65 23.75 31.4 L23.55 31.85 23.1 32.1 M21.6 32.7 L20.7 33.3 Q20.15 33.3 20.15 32.6 20.15 32.25 21.25 31.6 22.35 30.9 22.35 31.95 L21.6 32.7 M21.8 34.5 Q21.45 34.5 21.2 34.25 21.35 33.35 22.5 33.75 L22.4 34.2 Q22.25 34.5 21.8 34.5 M-20.7 -7.1 L-20.95 -6.75 -21.3 -6.45 Q-21.75 -6.6 -21.75 -7.1 -21.75 -7.65 -21.2 -7.65 -20.7 -7.65 -20.7 -7.1 M-20.3 -6.8 Q-20.3 -8.0 -18.85 -8.2 L-18.9 -8.2 -18.95 -8.45 Q-18.95 -8.95 -18.45 -8.9 -18.0 -8.9 -18.0 -8.45 L-18.05 -8.15 Q-17.5 -8.0 -17.4 -7.3 L-17.4 -7.1 Q-17.4 -6.55 -17.95 -6.1 L-18.05 -6.0 Q-18.4 -5.8 -18.85 -5.75 L-18.9 -5.65 Q-18.6 -5.45 -18.6 -5.0 L-18.8 -4.5 -19.2 -4.35 -19.05 -3.5 -19.25 -3.15 Q-19.45 -3.0 -19.55 -3.0 -20.35 -3.0 -20.25 -3.8 L-20.15 -4.1 -20.3 -3.8 Q-20.55 -3.5 -20.85 -3.5 -21.5 -3.5 -21.5 -4.2 -21.5 -4.8 -20.8 -4.95 L-20.2 -4.8 -20.0 -4.95 -19.95 -5.0 -20.3 -4.95 Q-20.9 -4.95 -20.9 -5.9 -20.9 -6.4 -20.3 -6.6 L-20.3 -6.8 M-21.3 -5.3 L-21.4 -4.95 -21.6 -4.8 Q-22.2 -4.7 -22.2 -5.25 -22.2 -5.7 -21.45 -5.6 -21.3 -5.65 -21.3 -5.3 M-1.95 -18.05 Q-1.95 -18.9 -1.05 -18.8 -0.2 -18.7 -0.2 -18.15 L-0.4 -17.65 -1.5 -17.35 Q-1.9 -17.5 -1.95 -18.05 M-2.7 -13.35 L-2.2 -13.45 Q-1.7 -13.55 -1.7 -12.95 L-1.75 -12.65 Q-1.9 -12.45 -2.25 -12.45 -2.7 -12.45 -2.7 -12.95 L-2.7 -13.35 M-3.6 -14.1 Q-3.6 -14.75 -2.75 -14.75 -1.95 -14.75 -1.95 -14.1 -1.95 -13.4 -2.85 -13.4 -3.6 -13.4 -3.6 -14.1 M-14.6 -8.25 L-14.55 -8.0 -14.6 -7.65 -15.0 -7.65 -15.05 -7.95 -14.95 -8.25 -14.75 -8.3 -14.6 -8.25 M-15.6 -8.55 L-15.6 -8.2 -16.0 -7.65 Q-16.25 -7.5 -16.45 -7.5 -17.1 -7.5 -17.1 -8.1 L-16.65 -8.55 -15.6 -8.55 M-16.3 -5.5 Q-16.55 -5.25 -16.8 -5.25 -17.4 -5.25 -17.3 -5.85 -17.3 -6.3 -16.7 -6.4 -16.1 -6.45 -16.1 -5.9 L-16.3 -5.5" fill="#cca8a8" fill-rule="evenodd" stroke="none"/>
  </g>
</svg>