<?xml version="1.0" encoding="UTF-8" standalone="no"?>
<svg xmlns:xlink="http://www.w3.org/1999/xlink" height="44.8px" width="65.2px" xmlns="http://www.w3.org/2000/svg">
  <g transform="matrix(1.0, 0.0, 0.0, 1.0, 24.85, 36.95)">
    <path d="M22.6 -31.35 Q22.6 -32.1 23.5 -31.8 24.4 -31.55 24.4 -31.1 L24.25 -30.75 23.8 -30.45 Q23.2 -30.45 22.85 -30.95 L22.6 -31.35 M24.45 -28.7 L24.2 -29.75 Q24.2 -30.45 24.7 -30.2 25.2 -30.0 25.2 -29.45 L25.1 -29.0 24.85 -28.6 24.45 -28.7 M24.75 -26.7 L24.75 -26.95 Q24.75 -27.8 25.2 -27.5 25.6 -27.15 25.6 -26.7 25.6 -26.35 25.25 -26.35 24.8 -26.35 24.75 -26.7 M1.85 -34.55 Q1.85 -34.15 1.45 -34.15 1.05 -34.15 1.05 -34.6 1.05 -34.95 1.45 -34.9 L1.85 -34.55 M14.6 -21.9 Q14.6 -22.2 15.05 -22.35 15.5 -22.5 15.5 -22.1 L14.95 -21.6 14.65 -21.7 14.6 -21.9 M12.1 -20.5 L11.8 -20.55 11.75 -20.85 Q11.75 -21.3 12.4 -21.35 13.0 -21.4 13.0 -21.0 L12.65 -20.65 12.1 -20.5 M12.4 -18.75 L12.85 -18.75 12.95 -18.5 12.75 -18.25 12.3 -18.1 12.25 -18.1 12.2 -18.05 11.75 -17.5 Q11.4 -17.5 11.25 -18.0 L11.2 -18.5 Q11.2 -19.1 11.8 -19.2 12.4 -19.3 12.4 -18.75 M12.5 -20.0 L12.55 -19.7 12.3 -19.15 11.95 -19.5 11.95 -20.0 12.5 -20.0 M13.95 -20.85 Q13.5 -20.85 13.45 -21.15 L13.45 -21.3 Q13.45 -21.8 14.05 -21.75 14.65 -21.7 14.65 -21.3 14.65 -20.85 13.95 -20.85 M9.85 -18.2 Q11.1 -19.1 11.1 -17.7 L7.25 -13.55 6.85 -13.65 6.8 -13.95 7.1 -14.5 7.65 -15.3 Q7.65 -16.25 8.1 -16.6 L9.85 -18.2 M8.95 -14.3 Q8.65 -14.0 8.4 -14.0 L8.2 -14.05 8.15 -14.3 Q8.15 -14.6 8.7 -14.95 9.2 -15.25 9.2 -14.7 L8.95 -14.3 M6.45 -13.05 Q6.45 -12.65 5.25 -11.55 4.1 -10.45 3.75 -10.45 L3.4 -10.5 3.35 -10.7 4.9 -12.9 Q6.45 -14.75 6.45 -13.05 M2.7 -10.15 L2.8 -9.95 1.55 -8.9 1.3 -9.2 1.8 -9.85 Q2.35 -10.3 2.7 -10.15 M34.05 -14.1 Q34.05 -14.4 34.5 -14.4 35.25 -14.4 35.8 -13.65 35.55 -13.4 35.3 -13.4 34.8 -13.4 34.4 -13.7 L34.05 -14.1 M37.3 -13.45 Q38.35 -13.45 38.7 -12.55 L38.85 -11.65 Q38.85 -11.15 38.45 -11.15 L37.35 -12.15 36.5 -13.15 Q36.5 -13.45 37.3 -13.45 M38.9 -9.1 Q38.6 -9.1 38.45 -9.6 L38.35 -10.1 Q38.35 -10.7 38.85 -10.5 39.35 -10.35 39.35 -9.85 39.35 -9.1 38.9 -9.1 M33.55 6.4 L33.5 6.7 33.15 6.85 Q32.8 6.85 32.8 6.4 L32.95 6.1 33.5 6.15 33.55 6.4 M-0.75 -35.85 Q0.45 -36.2 0.45 -35.4 0.45 -34.45 -0.85 -34.45 -1.75 -34.45 -1.95 -34.7 L-2.0 -35.0 Q-2.0 -35.55 -0.75 -35.85 M-2.7 -35.05 Q-2.2 -35.05 -2.2 -34.65 L-2.4 -34.3 Q-2.55 -34.15 -2.7 -34.15 -3.2 -34.15 -3.2 -34.55 -3.2 -35.0 -2.7 -35.05 M-22.0 -23.3 Q-22.75 -22.75 -23.5 -22.75 -23.85 -22.75 -23.85 -23.15 -23.85 -23.85 -22.55 -24.35 -21.3 -24.8 -21.3 -24.05 L-22.0 -23.3 M-21.0 -23.9 Q-21.0 -24.25 -20.45 -24.25 -19.95 -24.25 -19.5 -23.9 -19.75 -23.4 -20.4 -23.4 -21.05 -23.4 -21.0 -23.9 M-3.8 -23.65 L-3.75 -23.6 -3.9 -23.6 Q-4.35 -23.6 -4.25 -24.25 -4.25 -25.0 -3.7 -24.8 L-3.65 -24.6 Q-3.65 -24.1 -3.8 -23.65 M-4.0 -22.0 Q-4.7 -18.85 -5.35 -18.0 -5.6 -18.05 -5.85 -18.45 L-6.1 -19.0 -5.4 -20.75 -4.3 -22.5 -4.0 -22.0 M-6.6 -16.45 L-6.35 -16.1 -6.6 -15.65 -7.1 -15.1 -7.3 -15.1 -7.35 -15.3 -7.1 -15.9 -6.6 -16.45 M-8.2 -13.55 L-7.9 -14.1 -7.3 -14.7 -7.0 -14.2 -7.25 -13.6 Q-7.5 -13.25 -7.75 -13.25 -8.2 -13.25 -8.2 -13.55 M-8.3 -12.85 L-8.25 -12.65 -8.85 -11.75 -8.85 -11.45 Q-8.85 -11.15 -9.35 -10.6 L-10.3 -10.0 Q-10.7 -10.0 -10.7 -10.35 L-10.0 -11.3 -9.45 -12.2 -9.4 -12.25 -8.9 -12.7 -8.3 -12.85" fill="#ffffff" fill-opacity="0.6" fill-rule="evenodd" stroke="none"/>
  </g>
</svg>