<?xml version="1.0" encoding="UTF-8" standalone="no"?>
<svg xmlns:xlink="http://www.w3.org/1999/xlink" height="72.4px" width="75.35px" xmlns="http://www.w3.org/2000/svg">
  <g transform="matrix(1.0, 0.0, 0.0, 1.0, 34.4, 42.4)">
    <path d="M23.85 -35.45 Q23.95 -32.85 24.3 -31.9 24.55 -31.1 26.4 -30.05 28.0 -29.2 29.6 -28.75 32.9 -27.75 33.15 -25.65 32.85 -23.25 33.25 -22.1 33.55 -21.35 34.95 -20.25 L37.0 -18.7 Q38.05 -17.75 38.4 -16.85 L38.65 -15.15 Q38.65 -14.15 38.15 -12.9 L37.65 -11.3 Q37.65 -10.95 38.8 -9.0 39.95 -7.1 39.95 -4.85 39.95 -3.1 37.65 1.05 L35.55 4.5 35.5 4.65 Q35.5 5.4 36.05 6.95 L36.55 9.05 Q36.55 10.25 35.05 11.35 33.4 12.6 33.0 14.25 32.6 15.8 32.0 16.75 31.1 18.3 29.35 19.4 19.55 25.4 16.35 26.9 11.95 29.0 7.85 29.0 3.7 29.0 -2.9 26.55 L-7.25 25.1 Q-9.6 24.25 -10.65 23.35 L-14.55 19.2 -17.9 15.55 Q-19.1 14.45 -23.2 11.75 -27.15 9.15 -28.35 7.95 -32.9 3.2 -32.9 0.15 L-32.8 -0.6 -32.85 -1.2 -32.35 -4.85 Q-32.35 -5.4 -32.85 -6.9 -33.4 -8.4 -33.4 -10.05 -33.4 -11.15 -32.6 -12.75 -31.85 -14.3 -31.85 -15.5 -31.85 -16.3 -32.45 -17.95 L-33.1 -20.3 Q-33.1 -21.95 -31.1 -23.25 -29.15 -24.55 -29.15 -25.45 L-29.35 -26.85 Q-29.35 -27.6 -28.0 -28.55 L-25.45 -30.35 Q-24.65 -31.0 -24.45 -32.15 L-24.15 -34.05 Q-23.4 -36.15 -20.8 -36.75 L-17.3 -37.25 -15.3 -38.9 Q-13.3 -40.4 -11.75 -40.4 -10.7 -40.4 -9.85 -39.75 -7.55 -39.6 -5.65 -35.8 -5.1 -34.7 -3.7 -30.55 -3.45 -29.9 -3.1 -26.0 L-2.8 -21.35 -2.8 -21.3 Q1.0 -25.2 2.35 -28.15 4.15 -32.15 5.05 -35.2 L5.3 -36.95 5.5 -38.75 Q5.75 -39.8 6.65 -40.5 8.05 -41.6 10.65 -41.35 11.75 -41.1 12.95 -39.7 14.0 -38.5 16.4 -38.35 20.65 -38.0 22.45 -37.1 23.65 -36.5 23.85 -35.45 M23.2 -32.85 L23.0 -35.05 Q22.45 -36.8 19.1 -37.35 L17.9 -37.4 15.35 -37.65 Q13.15 -38.15 11.95 -39.3 L11.9 -39.35 11.8 -39.45 Q10.7 -40.55 9.9 -40.55 7.15 -40.55 6.45 -38.95 L6.45 -38.85 6.25 -37.15 5.65 -33.65 Q5.25 -31.65 2.6 -26.6 0.45 -22.55 -3.05 -19.45 L-7.3 -15.3 Q-10.3 -12.5 -11.15 -12.5 -11.95 -12.5 -11.75 -13.3 L-10.05 -19.55 Q-8.35 -26.05 -8.35 -28.9 L-8.7 -34.35 -8.75 -34.65 -8.65 -34.5 -8.55 -34.25 -8.4 -33.85 -8.35 -33.75 -8.3 -33.6 -7.75 -32.35 Q-7.4 -31.55 -7.35 -30.2 L-7.3 -28.95 Q-7.3 -25.5 -8.35 -21.8 L-10.5 -14.2 -10.5 -14.15 -5.45 -18.8 -4.85 -19.35 -3.85 -20.3 -3.75 -21.25 -4.2 -26.0 -4.8 -30.35 -6.2 -34.1 -6.6 -34.9 Q-6.95 -35.85 -7.45 -36.65 L-7.8 -37.2 -8.4 -37.85 Q-9.2 -38.75 -10.05 -39.05 L-10.8 -39.2 -11.7 -39.45 Q-12.65 -39.45 -13.7 -38.7 L-14.15 -38.3 -14.85 -37.8 -15.9 -36.8 Q-16.6 -36.2 -17.55 -36.1 L-17.6 -36.1 -19.8 -35.7 Q-21.65 -35.35 -22.4 -34.8 L-22.5 -34.7 -22.9 -34.25 -23.45 -33.2 -23.6 -32.6 -23.8 -31.5 Q-23.95 -30.45 -24.75 -29.75 L-25.4 -29.3 -25.6 -29.2 -25.8 -29.05 -25.85 -29.05 -26.25 -28.8 -27.05 -28.35 -27.1 -28.3 -27.45 -28.1 -27.7 -27.9 -28.35 -27.15 -28.45 -26.75 -28.3 -25.85 -28.2 -25.0 Q-28.2 -24.0 -30.15 -22.65 L-31.35 -21.7 Q-32.15 -20.95 -32.15 -20.25 -32.15 -19.85 -31.55 -18.6 L-31.5 -18.45 -31.45 -18.35 -31.3 -18.05 -31.1 -17.4 -30.9 -16.65 -30.9 -16.45 Q-30.9 -14.3 -31.65 -12.6 L-31.7 -12.55 Q-32.5 -10.85 -32.5 -10.05 L-32.35 -8.25 -32.25 -7.9 -32.0 -7.0 Q-31.5 -5.6 -31.5 -4.45 L-31.7 -2.4 -31.8 -1.8 -31.6 -1.4 -31.7 -0.7 -31.85 0.0 Q-31.85 1.35 -30.2 3.85 L-27.15 7.5 -22.0 11.1 Q-18.15 13.6 -16.9 14.85 L-14.1 18.3 -13.85 18.6 -13.2 19.4 -13.0 19.6 -10.95 21.5 -8.2 23.3 -6.1 24.25 -3.5 25.25 -0.45 26.15 2.35 26.95 5.55 27.7 9.45 27.85 12.75 27.0 15.3 26.05 18.1 24.6 21.2 22.95 24.45 21.15 28.0 18.9 Q31.85 16.3 31.9 13.95 32.2 12.85 33.85 10.95 L34.8 9.9 35.2 9.4 35.45 9.05 Q34.75 7.25 34.6 5.9 L34.55 5.15 34.55 4.3 34.55 4.15 Q34.55 3.05 36.75 0.35 37.9 -1.1 38.5 -2.45 L38.95 -4.85 Q38.95 -6.75 38.3 -8.05 L37.85 -8.75 Q36.7 -10.15 36.7 -11.3 36.7 -11.95 37.0 -12.75 L37.2 -13.35 37.65 -15.1 37.65 -15.2 37.6 -15.85 37.2 -16.8 35.5 -18.6 35.15 -18.9 33.45 -20.35 Q32.4 -21.3 32.25 -22.0 L32.05 -24.1 32.1 -25.45 Q31.6 -27.45 28.0 -28.4 L26.55 -28.85 Q24.85 -29.5 24.1 -30.5 23.75 -30.95 23.55 -31.45 L23.2 -32.85 M-29.2 -15.9 L-28.9 -16.25 -28.7 -16.0 Q-28.7 -15.55 -29.25 -14.35 L-29.85 -12.95 -29.9 -11.75 -30.2 -10.25 -30.3 -10.0 Q-30.75 -10.3 -30.65 -12.15 L-30.55 -12.7 -30.05 -14.3 -30.0 -14.35 -30.0 -14.4 -29.95 -14.5 -29.55 -15.25 -29.2 -15.85 -29.2 -15.9 M5.3 7.15 L6.35 6.8 11.75 4.95 14.3 3.8 16.9 2.75 Q16.8 3.35 15.25 4.1 13.05 5.1 12.85 5.25 9.5 7.25 7.65 7.65 L6.8 7.75 Q5.0 7.75 4.85 7.4 L4.8 7.3 Q4.8 7.25 5.3 7.15 M31.1 8.4 L31.55 6.25 Q32.25 2.55 33.0 1.1 L33.05 1.15 33.25 1.35 33.25 1.45 33.25 1.5 33.25 1.6 33.25 1.65 33.2 1.75 33.2 1.8 32.5 5.6 32.3 6.5 Q31.75 9.1 29.85 11.55 L29.75 11.5 Q30.55 10.3 31.1 8.4 M34.05 -6.85 L33.45 -9.9 Q32.75 -11.75 32.75 -13.6 32.75 -15.0 32.25 -16.0 L30.1 -18.55 Q31.75 -18.45 32.85 -16.1 33.7 -14.2 33.6 -13.05 L34.2 -11.45 34.65 -10.4 34.7 -10.15 34.75 -9.9 34.75 -9.85 34.85 -6.75 34.8 -5.15 Q34.7 -4.1 34.2 -3.6 33.85 -3.85 33.95 -4.4 L34.1 -5.25 34.05 -6.85 M23.9 -26.6 Q22.75 -26.6 21.2 -28.1 L19.75 -29.8 18.5 -31.6 Q17.55 -32.75 16.1 -33.25 16.95 -33.75 18.45 -32.5 L20.4 -30.5 Q20.75 -29.7 22.0 -28.5 L24.05 -26.65 23.9 -26.6 M9.5 -36.5 L11.6 -36.25 Q12.35 -36.05 12.7 -35.65 L13.3 -35.1 13.3 -34.9 12.95 -34.85 Q9.75 -35.8 8.4 -35.8 L8.15 -35.9 Q8.35 -36.55 9.5 -36.5 M3.9 -16.9 L3.95 -17.0 4.0 -16.85 2.15 -14.6 -1.15 -11.0 Q-2.4 -9.7 -5.2 -7.7 -8.05 -5.7 -8.8 -5.7 L-8.85 -5.7 -9.5 -5.8 -7.95 -6.7 -7.4 -7.05 Q-4.9 -8.75 -2.15 -11.25 L0.6 -13.8 3.9 -16.9 M28.2 -22.7 L27.95 -22.5 25.6 -24.7 Q26.15 -25.0 27.1 -24.15 L28.2 -22.7 M-13.35 -34.95 L-17.55 -33.0 -15.95 -34.4 Q-14.75 -35.25 -13.45 -35.1 L-13.35 -34.95 M-20.75 -30.15 Q-22.65 -28.3 -25.35 -24.5 L-28.25 -20.15 -28.3 -20.4 Q-28.3 -22.25 -25.25 -26.25 -22.25 -30.25 -20.9 -30.35 L-20.75 -30.15 M-29.1 -1.95 L-29.7 -1.35 -29.9 -1.2 -30.0 -1.25 Q-29.5 -2.9 -27.1 -5.45 L-23.4 -9.65 Q-21.65 -12.05 -20.9 -13.9 -20.65 -14.5 -20.5 -15.95 L-20.4 -16.9 -20.1 -18.05 -19.85 -17.6 -19.85 -17.4 -19.85 -16.45 -19.95 -15.55 -20.15 -14.05 Q-20.7 -11.65 -22.0 -9.7 -23.5 -7.4 -29.1 -1.95" fill="#a36a6a" fill-rule="evenodd" stroke="none"/>
    <path d="M22.6 -31.35 L22.05 -32.0 Q21.6 -32.45 20.1 -32.85 L18.35 -33.45 Q17.15 -34.3 16.15 -35.65 L15.45 -36.4 16.8 -36.85 Q17.55 -37.15 17.9 -37.4 L19.1 -37.35 Q22.45 -36.8 23.0 -35.05 L23.2 -32.85 Q22.65 -32.1 22.6 -31.35 M11.85 -37.8 L10.25 -38.05 8.45 -37.95 Q7.05 -37.95 6.55 -38.65 L6.45 -38.85 6.45 -38.95 Q7.15 -40.55 9.9 -40.55 10.7 -40.55 11.8 -39.45 L11.9 -39.35 11.95 -39.3 11.85 -37.9 11.85 -37.8 M-9.4 -37.35 L-9.65 -37.15 Q-10.35 -36.7 -12.25 -36.7 L-14.35 -37.0 -14.15 -38.3 -13.7 -38.7 Q-12.65 -39.45 -11.7 -39.45 L-10.8 -39.2 -10.05 -39.05 -9.65 -37.95 -9.4 -37.35 M-18.05 -34.7 Q-18.45 -34.35 -19.2 -33.95 -21.05 -32.85 -22.15 -32.85 -23.0 -32.85 -23.25 -33.55 L-22.9 -34.25 -22.5 -34.7 -22.4 -34.8 Q-21.65 -35.35 -19.8 -35.7 L-17.6 -36.1 -17.55 -36.1 -17.6 -35.6 Q-17.6 -35.3 -17.95 -34.8 L-18.0 -34.7 -18.05 -34.7 M-24.95 -27.8 Q-26.25 -26.9 -27.5 -26.9 L-28.35 -27.15 -27.7 -27.9 -27.45 -28.1 -27.1 -28.3 -27.05 -28.35 -26.25 -28.8 -25.85 -29.05 -25.8 -29.05 -25.6 -29.2 Q-25.0 -29.1 -25.0 -28.45 -25.0 -28.15 -25.5 -27.7 L-25.25 -27.75 -24.95 -27.8 M-29.9 -21.7 L-30.45 -21.2 Q-30.85 -21.2 -31.0 -21.65 L-30.85 -21.65 -30.8 -21.65 -30.65 -21.65 -29.9 -21.7 M34.75 -13.35 L34.9 -13.6 Q34.45 -14.1 34.15 -14.8 33.8 -15.7 33.8 -16.95 L33.9 -18.65 34.0 -18.95 34.55 -18.9 35.15 -18.9 35.5 -18.6 37.2 -16.8 37.6 -15.85 37.65 -15.2 37.65 -15.1 37.2 -13.35 37.0 -12.75 36.85 -12.4 Q36.15 -12.5 35.4 -12.95 L34.75 -13.35 M31.55 -23.3 Q29.95 -23.3 28.75 -25.15 L27.2 -27.5 Q26.3 -28.0 25.55 -28.5 L25.8 -28.5 27.35 -28.55 26.55 -28.85 28.0 -28.4 Q31.6 -27.45 32.1 -25.45 L32.05 -24.1 31.55 -23.3 M38.3 -8.05 Q38.95 -6.75 38.95 -4.85 L38.5 -2.45 37.2 -2.95 Q35.4 -3.45 35.4 -5.55 35.4 -7.8 37.65 -8.0 L38.3 -8.05 M34.6 5.9 Q34.75 7.25 35.45 9.05 L35.2 9.4 35.05 9.4 Q34.05 9.4 33.75 8.3 L33.65 6.95 33.75 5.6 34.6 5.9 M-31.1 -17.4 L-30.95 -16.85 -30.85 -16.75 -30.9 -16.65 -31.1 -17.4 M-32.35 -8.25 L-32.2 -8.2 -32.25 -7.9 -32.35 -8.25" fill="#f2eaea" fill-rule="evenodd" stroke="none"/>
    <path d="M22.6 -31.35 Q22.65 -32.1 23.2 -32.85 L23.55 -31.45 Q23.75 -30.95 24.1 -30.5 24.85 -29.5 26.55 -28.85 L27.35 -28.55 25.8 -28.5 25.55 -28.5 Q22.6 -28.6 22.6 -31.25 L22.6 -31.35 M17.9 -37.4 Q17.55 -37.15 16.8 -36.85 L15.45 -36.4 14.4 -36.3 Q12.65 -36.3 12.1 -37.05 11.85 -37.3 11.85 -37.8 L11.85 -37.9 11.95 -39.3 Q13.15 -38.15 15.35 -37.65 L17.9 -37.4 M-8.75 -34.65 L-8.75 -34.7 -8.9 -36.0 -9.4 -37.35 -9.65 -37.95 -10.05 -39.05 Q-9.2 -38.75 -8.4 -37.85 L-7.8 -37.2 -7.45 -36.65 Q-6.95 -35.85 -6.6 -34.9 L-6.2 -34.1 -4.8 -30.35 -4.2 -26.0 -3.75 -21.25 -3.85 -20.3 -4.85 -19.35 -4.85 -19.7 -4.9 -22.2 -5.55 -26.55 Q-6.05 -29.5 -6.7 -31.4 -7.35 -33.35 -7.9 -33.9 L-8.65 -34.5 -8.75 -34.65 M-14.35 -37.0 Q-14.6 -36.3 -15.1 -35.65 -15.95 -34.5 -16.75 -34.5 L-18.05 -34.7 -18.0 -34.7 -17.95 -34.8 Q-17.6 -35.3 -17.6 -35.6 L-17.55 -36.1 Q-16.6 -36.2 -15.9 -36.8 L-14.85 -37.8 -14.15 -38.3 -14.35 -37.0 M-23.6 -32.6 L-23.35 -31.35 -23.15 -30.2 Q-23.15 -28.95 -23.55 -28.5 -24.0 -28.0 -24.95 -27.8 L-25.25 -27.75 -25.5 -27.7 Q-25.0 -28.15 -25.0 -28.45 -25.0 -29.1 -25.6 -29.2 L-25.4 -29.3 -24.75 -29.75 Q-23.95 -30.45 -23.8 -31.5 L-23.6 -32.6 M-28.3 -25.85 Q-27.5 -25.1 -27.5 -23.85 -27.5 -22.9 -27.85 -22.5 -28.4 -21.85 -29.9 -21.7 L-30.65 -21.65 -30.8 -21.65 -30.85 -21.65 -31.35 -21.7 -30.15 -22.65 Q-28.2 -24.0 -28.2 -25.0 L-28.3 -25.85 M-31.55 -18.6 L-31.75 -19.0 Q-31.4 -18.95 -30.7 -18.3 -29.35 -16.95 -29.2 -15.9 L-29.2 -15.85 -29.55 -15.25 -29.95 -14.5 -30.0 -14.4 -30.0 -14.35 -30.05 -14.3 -30.55 -12.7 -30.65 -12.15 Q-30.75 -10.3 -30.3 -10.0 L-30.2 -10.25 -29.9 -11.75 -29.85 -12.4 -29.7 -12.1 -29.45 -10.9 -30.45 -5.2 Q-31.1 -2.1 -31.7 -0.7 L-31.6 -1.4 -31.8 -1.8 -31.7 -2.4 -31.5 -4.45 Q-31.5 -5.6 -32.0 -7.0 L-32.25 -7.9 -32.2 -8.2 -32.35 -8.25 -32.5 -10.05 Q-32.5 -10.85 -31.7 -12.55 L-31.65 -12.6 Q-30.9 -14.3 -30.9 -16.45 L-30.9 -16.65 -30.85 -16.75 -30.95 -16.85 -31.1 -17.4 -31.3 -18.05 -31.45 -18.35 -31.5 -18.45 -31.55 -18.6 M-14.1 18.3 Q-13.6 17.3 -12.1 15.65 L-9.55 13.0 -6.3 9.5 -6.0 9.25 -6.2 8.8 -6.9 6.35 Q-6.9 4.9 -6.35 3.7 L-4.75 0.6 Q-3.35 -2.05 -1.35 -2.2 L2.1 -2.7 4.45 -3.4 Q5.7 -3.7 9.6 -5.2 L15.3 -7.3 Q16.2 -7.65 19.3 -9.75 L22.5 -12.1 19.1 -7.4 13.55 -0.05 10.8 3.05 Q8.95 4.9 6.95 6.2 L5.9 6.8 6.05 6.9 5.4 7.1 5.3 7.15 Q4.8 7.25 4.8 7.3 L4.85 7.4 Q5.0 7.75 6.8 7.75 L7.65 7.65 Q8.25 7.95 8.95 8.25 15.3 11.05 22.35 12.15 L27.15 12.15 Q28.55 11.55 29.65 10.2 L31.1 8.4 Q30.55 10.3 29.75 11.5 L29.85 11.55 Q31.75 9.1 32.3 6.5 L32.5 5.6 33.2 1.8 33.2 1.75 33.25 1.65 33.25 1.6 33.25 1.5 33.25 1.45 33.25 1.35 33.05 1.15 33.1 1.0 Q33.75 -0.4 33.75 -1.95 L33.65 -4.75 Q33.65 -5.4 34.0 -6.7 L34.05 -6.85 34.1 -5.25 33.95 -4.4 Q33.85 -3.85 34.2 -3.6 34.7 -4.1 34.8 -5.15 L34.85 -6.75 34.75 -9.85 34.75 -9.9 34.7 -10.15 34.65 -10.4 34.55 -10.7 34.6 -10.9 34.25 -11.9 Q34.25 -12.5 34.75 -13.35 L35.4 -12.95 Q36.15 -12.5 36.85 -12.4 L37.0 -12.75 Q36.7 -11.95 36.7 -11.3 36.7 -10.15 37.85 -8.75 L38.3 -8.05 37.65 -8.0 Q35.4 -7.8 35.4 -5.55 35.4 -3.45 37.2 -2.95 L38.5 -2.45 Q37.9 -1.1 36.75 0.35 34.55 3.05 34.55 4.15 L34.55 4.3 34.55 5.15 34.6 5.9 33.75 5.6 33.65 6.95 33.75 8.3 Q34.05 9.4 35.05 9.4 L35.2 9.4 34.8 9.9 33.85 10.95 Q32.2 12.85 31.9 13.95 31.85 16.3 28.0 18.9 L24.45 21.15 21.45 20.35 20.9 20.0 20.7 19.5 Q21.45 17.85 23.1 16.95 L24.95 15.75 21.4 16.2 18.4 16.5 11.25 16.1 3.9 15.2 -2.1 14.3 -5.45 14.35 Q-6.25 14.35 -6.95 14.75 L-8.8 16.0 -11.2 17.85 -12.5 19.1 -13.0 19.6 -13.2 19.4 -13.85 18.6 -14.1 18.3 M34.55 -18.9 Q32.8 -19.05 31.85 -19.95 31.1 -20.65 31.1 -21.45 31.1 -22.35 31.55 -23.3 L32.05 -24.1 32.25 -22.0 Q32.4 -21.3 33.45 -20.35 L35.15 -18.9 34.55 -18.9 M3.9 -16.9 L0.6 -13.8 -2.15 -11.25 Q-4.9 -8.75 -7.4 -7.05 L-7.95 -6.7 -9.5 -5.8 -8.85 -5.7 -8.8 -5.7 -8.7 -5.7 -9.2 -5.45 -9.65 -5.85 -7.5 -8.45 -4.35 -12.05 -2.3 -13.4 0.2 -14.75 Q2.95 -16.7 3.9 -16.9 M24.9 14.85 L25.2 14.95 25.2 14.9 24.9 14.85 M-29.1 -1.95 L-28.7 -2.3 -28.9 -2.05 Q-29.8 -0.55 -30.05 -0.55 -30.45 -0.55 -30.45 -1.0 L-28.6 -5.3 -26.15 -9.65 -24.05 -11.75 Q-22.85 -13.0 -22.2 -14.0 L-20.4 -16.9 -20.5 -15.95 Q-20.65 -14.5 -20.9 -13.9 -21.65 -12.05 -23.4 -9.65 L-27.1 -5.45 Q-29.5 -2.9 -30.0 -1.25 L-29.9 -1.2 -29.7 -1.35 -29.1 -1.95 M-19.95 -15.55 L-19.8 -15.4 Q-19.8 -14.9 -20.15 -14.05 L-19.95 -15.55" fill="#e0cbcb" fill-rule="evenodd" stroke="none"/>
    <path d="M24.45 21.15 L21.2 22.95 18.1 24.6 15.3 26.05 12.75 27.0 9.45 27.85 5.55 27.7 2.35 26.95 -0.45 26.15 -3.5 25.25 -6.1 24.25 -8.2 23.3 -10.95 21.5 -13.0 19.6 -12.5 19.1 -11.2 17.85 -8.8 16.0 -6.95 14.75 Q-6.25 14.35 -5.45 14.35 L-2.1 14.3 3.9 15.2 11.25 16.1 18.4 16.5 21.4 16.2 24.95 15.75 23.1 16.95 Q21.45 17.85 20.7 19.5 L20.9 20.0 21.45 20.35 24.45 21.15 M24.9 14.85 L25.2 14.9 25.2 14.95 24.9 14.85 M-4.85 -19.35 L-5.45 -18.8 -10.5 -14.15 -10.5 -14.2 -8.35 -21.8 Q-7.3 -25.5 -7.3 -28.95 L-7.35 -30.2 Q-7.4 -31.55 -7.75 -32.35 L-8.3 -33.6 -8.35 -33.75 -8.4 -33.85 -8.55 -34.25 -8.65 -34.5 -7.9 -33.9 Q-7.35 -33.35 -6.7 -31.4 -6.05 -29.5 -5.55 -26.55 L-4.9 -22.2 -4.85 -19.7 -4.85 -19.35" fill="#cca9a9" fill-rule="evenodd" stroke="none"/>
    <path d="M15.45 -36.4 L16.15 -35.65 Q17.15 -34.3 18.35 -33.45 L20.1 -32.85 Q21.6 -32.45 22.05 -32.0 L22.6 -31.35 22.6 -31.25 Q22.6 -28.6 25.55 -28.5 26.3 -28.0 27.2 -27.5 L28.75 -25.15 Q29.95 -23.3 31.55 -23.3 31.1 -22.35 31.1 -21.45 31.1 -20.65 31.85 -19.95 32.8 -19.05 34.55 -18.9 L34.0 -18.95 33.9 -18.65 33.8 -16.95 Q33.8 -15.7 34.15 -14.8 34.45 -14.1 34.9 -13.6 L34.75 -13.35 Q34.25 -12.5 34.25 -11.9 L34.6 -10.9 34.55 -10.7 34.65 -10.4 34.2 -11.45 33.6 -13.05 Q33.7 -14.2 32.85 -16.1 31.75 -18.45 30.1 -18.55 L32.25 -16.0 Q32.75 -15.0 32.75 -13.6 32.75 -11.75 33.45 -9.9 L34.05 -6.85 34.0 -6.7 Q33.65 -5.4 33.65 -4.75 L33.75 -1.95 Q33.75 -0.4 33.1 1.0 L33.05 1.15 33.0 1.1 Q32.25 2.55 31.55 6.25 L31.1 8.4 29.65 10.2 Q28.55 11.55 27.15 12.15 L22.35 12.15 Q15.3 11.05 8.95 8.25 8.25 7.95 7.65 7.65 9.5 7.25 12.85 5.25 13.05 5.1 15.25 4.1 16.8 3.35 16.9 2.75 L14.3 3.8 11.75 4.95 6.35 6.8 5.3 7.15 5.4 7.1 6.05 6.9 5.9 6.8 6.95 6.2 Q8.95 4.9 10.8 3.05 L13.55 -0.05 19.1 -7.4 22.5 -12.1 19.3 -9.75 Q16.2 -7.65 15.3 -7.3 L9.6 -5.2 Q5.7 -3.7 4.45 -3.4 L2.1 -2.7 -1.35 -2.2 Q-3.35 -2.05 -4.75 0.6 L-6.35 3.7 Q-6.9 4.9 -6.9 6.35 L-6.2 8.8 -6.0 9.25 -6.3 9.5 -9.55 13.0 -12.1 15.65 Q-13.6 17.3 -14.1 18.3 L-16.9 14.85 Q-18.15 13.6 -22.0 11.1 L-27.15 7.5 -30.2 3.85 Q-31.85 1.35 -31.85 0.0 L-31.7 -0.7 Q-31.1 -2.1 -30.45 -5.2 L-29.45 -10.9 -29.7 -12.1 -29.85 -12.4 -29.9 -11.75 -29.85 -12.95 -29.25 -14.35 Q-28.7 -15.55 -28.7 -16.0 L-28.9 -16.25 -29.2 -15.9 Q-29.35 -16.95 -30.7 -18.3 -31.4 -18.95 -31.75 -19.0 L-31.55 -18.6 Q-32.15 -19.85 -32.15 -20.25 -32.15 -20.95 -31.35 -21.7 L-30.85 -21.65 -31.0 -21.65 Q-30.85 -21.2 -30.45 -21.2 L-29.9 -21.7 Q-28.4 -21.85 -27.85 -22.5 -27.5 -22.9 -27.5 -23.85 -27.5 -25.1 -28.3 -25.85 L-28.45 -26.75 -28.35 -27.15 -27.5 -26.9 Q-26.25 -26.9 -24.95 -27.8 -24.0 -28.0 -23.55 -28.5 -23.15 -28.95 -23.15 -30.2 L-23.35 -31.35 -23.6 -32.6 -23.45 -33.2 -22.9 -34.25 -23.25 -33.55 Q-23.0 -32.85 -22.15 -32.85 -21.05 -32.85 -19.2 -33.95 -18.45 -34.35 -18.05 -34.7 L-16.75 -34.5 Q-15.95 -34.5 -15.1 -35.65 -14.6 -36.3 -14.35 -37.0 L-12.25 -36.7 Q-10.35 -36.7 -9.65 -37.15 L-9.4 -37.35 -8.9 -36.0 -8.75 -34.7 -8.75 -34.65 -8.7 -34.35 -8.35 -28.9 Q-8.35 -26.05 -10.05 -19.55 L-11.75 -13.3 Q-11.95 -12.5 -11.15 -12.5 -10.3 -12.5 -7.3 -15.3 L-3.05 -19.45 Q0.45 -22.55 2.6 -26.6 5.25 -31.65 5.65 -33.65 L6.25 -37.15 6.45 -38.85 6.55 -38.65 Q7.05 -37.95 8.45 -37.95 L10.25 -38.05 11.85 -37.8 Q11.85 -37.3 12.1 -37.05 12.65 -36.3 14.4 -36.3 L15.45 -36.4 M23.9 -26.6 L24.05 -26.65 22.0 -28.5 Q20.75 -29.7 20.4 -30.5 L18.45 -32.5 Q16.95 -33.75 16.1 -33.25 17.55 -32.75 18.5 -31.6 L19.75 -29.8 21.2 -28.1 Q22.75 -26.6 23.9 -26.6 M9.5 -36.5 Q8.35 -36.55 8.15 -35.9 L8.4 -35.8 Q9.75 -35.8 12.95 -34.85 L13.3 -34.9 13.3 -35.1 12.7 -35.65 Q12.35 -36.05 11.6 -36.25 L9.5 -36.5 M-8.8 -5.7 Q-8.05 -5.7 -5.2 -7.7 -2.4 -9.7 -1.15 -11.0 L2.15 -14.6 4.0 -16.85 3.95 -17.0 3.9 -16.9 Q2.95 -16.7 0.2 -14.75 L-2.3 -13.4 -4.35 -12.05 -7.5 -8.45 -9.65 -5.85 -9.2 -5.45 -8.7 -5.7 -8.8 -5.7 M28.2 -22.7 L27.1 -24.15 Q26.15 -25.0 25.6 -24.7 L27.95 -22.5 28.2 -22.7 M-13.35 -34.95 L-13.45 -35.1 Q-14.75 -35.25 -15.95 -34.4 L-17.55 -33.0 -13.35 -34.95 M-20.75 -30.15 L-20.9 -30.35 Q-22.25 -30.25 -25.25 -26.25 -28.3 -22.25 -28.3 -20.4 L-28.25 -20.15 -25.35 -24.5 Q-22.65 -28.3 -20.75 -30.15 M-20.4 -16.9 L-22.2 -14.0 Q-22.85 -13.0 -24.05 -11.75 L-26.15 -9.65 -28.6 -5.3 -30.45 -1.0 Q-30.45 -0.55 -30.05 -0.55 -29.8 -0.55 -28.9 -2.05 L-28.7 -2.3 -29.1 -1.95 Q-23.5 -7.4 -22.0 -9.7 -20.7 -11.65 -20.15 -14.05 -19.8 -14.9 -19.8 -15.4 L-19.95 -15.55 -19.85 -16.45 -19.85 -17.4 -19.85 -17.6 -20.1 -18.05 -20.4 -16.9" fill="url(#gradient0)" fill-rule="evenodd" stroke="none"/>
  </g>
  <defs>
    <radialGradient cx="0" cy="0" gradientTransform="matrix(0.048, 0.0, 0.0, 0.0437, -2.7, 1.1)" gradientUnits="userSpaceOnUse" id="gradient0" r="819.2" spreadMethod="pad">
      <stop offset="0.34901960784313724" stop-color="#f2eaea"></stop>
      <stop offset="1.0" stop-color="#e0cbcb"></stop>
    </radialGradient>
  </defs>
</svg>