<?xml version="1.0" encoding="UTF-8" standalone="no"?>
<svg xmlns:xlink="http://www.w3.org/1999/xlink" height="67px" width="70.95px" xmlns="http://www.w3.org/2000/svg">
  <g transform="matrix(1.0, 0.0, 0.0, 1.0, 32.9, 37.95)">
    <path d="M28.8 -32.0 Q30.9 -31.2 32.05 -29.95 33.05 -28.8 33.0 -27.65 32.95 -27.1 33.25 -26.7 L34.75 -25.5 36.0 -24.35 36.15 -23.3 35.75 -21.55 35.35 -19.85 Q35.35 -19.5 36.2 -18.3 37.05 -17.05 37.05 -15.7 L36.45 -13.1 35.75 -11.0 35.2 -8.1 35.0 -7.1 36.95 -1.55 Q36.95 -0.1 35.6 2.4 34.25 4.95 34.25 6.45 34.25 7.65 34.55 9.2 L34.85 11.65 Q34.85 13.0 34.05 14.55 33.15 16.3 31.65 17.25 30.15 18.15 27.2 20.6 L26.8 20.95 Q25.85 22.8 20.05 25.25 13.4 28.05 9.65 28.05 2.8 28.05 -1.3 26.15 -4.25 24.8 -4.55 23.35 L-4.5 23.25 -5.1 22.6 -6.85 20.95 -8.85 19.45 -10.5 17.85 -12.85 14.9 Q-14.4 13.1 -17.5 11.6 -19.55 10.55 -21.4 8.55 L-24.0 5.35 -26.95 2.45 Q-28.8 0.75 -28.85 -0.45 L-30.3 -2.35 Q-31.15 -3.5 -31.15 -4.9 L-30.95 -7.05 -31.4 -9.0 -31.9 -11.4 Q-31.9 -12.8 -31.35 -13.7 -29.9 -16.0 -29.6 -16.65 L-29.55 -21.8 Q-29.55 -23.05 -28.95 -24.0 L-27.0 -26.85 -27.0 -30.8 -26.0 -32.65 Q-25.15 -33.8 -23.65 -34.25 L-21.1 -34.65 Q-19.35 -34.95 -18.3 -35.6 -16.95 -36.4 -14.1 -36.95 L-11.4 -36.95 -7.25 -35.25 -5.2 -35.8 -3.15 -36.4 -0.5 -36.4 1.85 -35.05 Q3.75 -33.85 4.65 -33.85 L7.4 -34.5 13.0 -35.2 Q16.5 -35.2 19.4 -33.2 22.0 -31.45 26.25 -32.0 L28.8 -32.0 M18.5 -32.6 Q16.05 -34.1 12.35 -34.1 L8.85 -33.75 8.4 -33.65 7.7 -33.5 7.35 -33.4 4.6 -32.75 Q3.3 -32.75 1.75 -34.0 L1.65 -34.05 0.95 -34.55 0.7 -34.65 -0.1 -35.0 -0.35 -35.1 -1.8 -35.3 -4.6 -34.95 -5.35 -34.7 Q-6.75 -34.15 -7.3 -34.15 -8.05 -34.15 -9.45 -35.0 L-9.5 -35.05 -10.55 -35.5 -10.7 -35.55 -12.75 -35.85 -16.6 -35.4 -16.7 -35.35 -17.8 -34.55 -19.15 -33.75 -21.0 -33.4 -21.85 -33.5 -22.85 -33.35 Q-25.35 -32.65 -26.0 -30.35 L-26.0 -30.2 -26.0 -26.5 Q-26.15 -25.95 -27.15 -24.75 L-27.3 -24.6 -28.55 -22.7 -28.55 -20.5 -28.45 -18.95 Q-28.2 -16.2 -29.5 -14.35 L-29.75 -14.0 Q-30.9 -12.3 -30.9 -11.4 L-30.85 -11.0 -30.45 -9.2 -30.05 -7.05 -30.3 -4.45 -30.3 -4.35 -30.25 -4.15 -30.25 -4.1 -30.1 -3.7 -29.8 -3.15 -29.05 -2.1 -28.45 -1.2 -28.0 -0.85 -26.3 1.4 -24.6 2.95 -23.2 4.55 -20.75 7.8 Q-18.9 9.7 -16.55 10.85 -15.2 11.5 -14.15 12.2 L-14.2 12.2 -13.65 12.6 -13.15 12.95 -13.0 13.1 -12.0 14.15 -9.6 17.15 -9.0 17.65 -8.4 18.15 -7.2 19.0 -6.35 19.6 -5.55 20.15 Q-3.15 22.0 -3.15 23.4 L-3.25 23.75 -1.8 24.95 Q1.35 26.85 9.7 26.85 12.05 26.85 15.45 25.65 L15.5 25.65 16.05 25.45 20.6 23.45 24.6 21.35 Q25.75 20.25 28.85 18.05 33.75 14.55 33.75 11.65 L33.6 9.7 33.5 9.3 Q33.2 8.1 33.2 6.45 33.2 4.35 34.55 2.05 L35.15 1.0 Q35.9 -0.6 35.9 -1.65 35.9 -2.4 35.2 -3.75 L35.0 -4.1 Q34.2 -5.45 34.1 -6.65 L33.95 -7.05 33.9 -7.75 Q33.9 -9.2 34.7 -11.8 L34.85 -12.35 35.8 -15.75 Q35.8 -16.65 35.35 -17.4 L35.05 -17.75 35.0 -17.8 Q34.15 -18.7 34.15 -19.85 L34.35 -21.25 34.55 -21.95 34.95 -23.25 Q34.95 -23.95 33.4 -25.0 31.8 -26.0 31.8 -27.05 L31.55 -28.65 Q30.75 -30.8 27.5 -30.8 L26.05 -30.7 23.6 -30.6 Q21.35 -30.6 18.85 -32.35 L18.5 -32.6 M14.5 -22.95 L15.15 -22.45 14.95 -22.55 14.7 -22.65 Q12.15 -23.9 9.1 -24.65 L-2.95 -26.55 -7.05 -26.5 -15.1 -25.75 Q-16.5 -25.5 -17.2 -25.1 L-17.35 -25.05 -17.85 -24.7 -18.15 -25.05 Q-18.15 -25.5 -17.0 -25.9 L-15.85 -26.25 -14.95 -26.45 -14.9 -26.5 -7.2 -27.35 -2.9 -27.35 -2.75 -27.3 -0.8 -27.1 Q6.6 -26.25 9.5 -25.4 11.55 -24.8 13.65 -23.5 L14.5 -22.95 M23.45 -18.1 L23.15 -18.85 23.3 -18.85 Q24.95 -16.45 25.55 -13.6 25.95 -11.85 26.0 -9.15 L26.0 -9.05 26.0 -8.4 26.0 -8.2 26.0 -8.0 26.0 -7.9 25.95 -6.85 25.75 -5.75 Q25.45 -3.25 24.1 -1.0 L24.1 -1.05 Q25.05 -5.65 25.05 -10.4 L25.05 -10.6 Q25.05 -14.5 23.45 -18.1 M11.3 6.45 Q8.15 7.75 6.85 7.75 L6.25 7.5 Q9.3 5.6 13.2 4.5 L16.1 3.75 18.35 3.0 Q14.8 4.75 11.3 6.45 M-23.5 -19.8 L-23.85 -18.4 -24.25 -16.95 Q-24.25 -15.7 -25.4 -11.7 L-26.75 -7.55 -26.85 -7.5 -26.85 -7.55 -26.95 -7.9 -26.45 -10.35 -26.0 -12.7 Q-25.15 -18.6 -23.55 -20.15 L-23.5 -20.0 -23.5 -19.8 M-24.05 -8.05 Q-23.95 -9.05 -23.45 -10.0 -22.95 -10.95 -22.95 -10.15 L-23.8 -7.65 Q-24.65 -5.45 -25.1 -4.9 L-25.25 -4.9 -25.3 -5.1 -24.65 -6.55 -24.05 -8.05" fill="#a36a6a" fill-rule="evenodd" stroke="none"/>
    <path d="M18.5 -32.6 L18.4 -32.2 Q18.4 -31.5 19.6 -30.2 20.65 -29.05 21.6 -28.8 L23.8 -29.45 Q26.0 -30.2 26.05 -30.7 L27.5 -30.8 Q30.75 -30.8 31.55 -28.65 L31.25 -28.2 30.65 -26.9 30.45 -25.75 30.5 -25.1 Q30.75 -24.55 31.9 -24.55 L33.4 -25.0 Q34.95 -23.95 34.95 -23.25 L34.55 -21.95 34.35 -21.25 34.5 -21.8 33.75 -21.25 Q32.45 -19.95 32.45 -19.4 32.45 -19.05 33.75 -17.95 34.85 -16.95 35.65 -16.75 L35.35 -17.4 Q35.8 -16.65 35.8 -15.75 L34.85 -12.35 34.7 -11.8 33.85 -11.1 Q31.95 -9.35 31.95 -7.75 L32.55 -5.7 Q33.4 -3.9 35.2 -3.75 35.9 -2.4 35.9 -1.65 35.9 -0.6 35.15 1.0 L33.95 1.85 33.4 2.35 32.7 3.2 Q31.8 3.65 30.35 5.15 L30.35 5.2 30.2 5.35 30.15 5.1 30.95 1.55 Q31.55 -0.85 31.7 -3.3 L31.15 -6.4 Q30.55 -8.7 30.55 -9.8 30.55 -10.75 31.2 -13.3 L31.8 -15.95 Q31.8 -20.15 27.2 -23.9 L24.05 -26.2 23.0 -27.05 22.55 -27.05 Q19.0 -27.05 16.15 -29.15 L13.95 -30.5 15.0 -30.3 10.1 -31.1 5.8 -30.6 Q3.3 -30.6 0.95 -31.4 L-0.6 -31.9 -1.85 -31.9 -2.95 -32.1 -3.75 -31.9 -6.35 -31.6 -9.3 -31.75 -10.9 -32.15 -12.5 -32.4 -16.85 -31.9 Q-20.15 -31.6 -21.65 -30.3 L-22.0 -29.9 -22.55 -29.15 -22.25 -29.55 -22.55 -28.85 -23.15 -27.7 -23.7 -26.95 -23.7 -27.15 -23.75 -27.2 Q-24.05 -28.5 -25.45 -29.75 L-26.0 -30.2 -26.0 -30.35 Q-25.35 -32.65 -22.85 -33.35 L-21.85 -33.5 Q-21.4 -32.1 -20.45 -31.75 L-19.8 -31.65 Q-18.45 -31.65 -17.5 -32.65 L-17.25 -32.95 -17.0 -33.3 -16.95 -33.45 Q-16.2 -34.7 -16.2 -35.5 L-16.6 -35.4 -12.75 -35.85 -10.7 -35.55 -10.7 -35.5 -10.05 -34.0 -9.35 -33.15 -10.05 -33.25 -9.65 -33.2 -9.65 -33.15 -9.25 -33.05 Q-8.55 -32.5 -7.7 -32.5 -7.0 -32.5 -6.35 -32.85 L-6.15 -33.0 -5.45 -33.65 -5.4 -33.7 Q-4.75 -34.45 -4.6 -34.95 L-1.8 -35.3 -0.35 -35.1 0.15 -34.3 1.15 -33.2 1.75 -32.0 1.85 -31.9 Q2.45 -31.05 3.7 -31.05 4.9 -31.05 6.1 -31.6 L7.65 -32.65 8.85 -33.75 12.35 -34.1 Q16.05 -34.1 18.5 -32.6 M26.4 -25.75 L26.3 -25.8 26.4 -25.75 M-13.35 -33.1 L-11.7 -33.25 -11.3 -33.3 -13.8 -33.1 -13.35 -33.1 M-27.15 -24.75 L-26.15 -24.6 -26.05 -24.6 -25.5 -24.65 Q-26.8 -22.95 -26.8 -21.05 L-26.75 -18.85 -26.85 -18.0 -27.0 -18.4 Q-27.4 -19.3 -28.5 -20.45 L-28.55 -20.5 -28.55 -22.7 -27.3 -24.6 -27.15 -24.75 M-29.75 -14.0 Q-29.25 -14.15 -28.8 -14.45 L-28.6 -13.15 Q-28.6 -12.15 -30.15 -10.95 L-30.45 -10.65 -30.85 -11.0 -30.9 -11.4 Q-30.9 -12.3 -29.75 -14.0 M-30.3 -4.45 L-30.15 -4.5 -30.25 -4.15 -30.3 -4.35 -30.3 -4.45 M-26.3 -14.85 L-26.2 -15.05 Q-26.1 -14.95 -26.25 -14.8 L-26.3 -14.85" fill="#f2eaea" fill-rule="evenodd" stroke="none"/>
    <path d="M26.05 -30.7 Q26.0 -30.2 23.8 -29.45 L21.6 -28.8 Q20.65 -29.05 19.6 -30.2 18.4 -31.5 18.4 -32.2 L18.5 -32.6 18.85 -32.35 Q21.35 -30.6 23.6 -30.6 L26.05 -30.7 M8.85 -33.75 L7.65 -32.65 6.1 -31.6 Q4.9 -31.05 3.7 -31.05 2.45 -31.05 1.85 -31.9 L1.75 -32.0 1.15 -33.2 0.15 -34.3 -0.35 -35.1 -0.1 -35.0 0.7 -34.65 0.95 -34.55 1.65 -34.05 1.75 -34.0 Q3.3 -32.75 4.6 -32.75 L7.35 -33.4 7.7 -33.5 8.4 -33.65 8.85 -33.75 M-4.6 -34.95 Q-4.75 -34.45 -5.4 -33.7 L-5.45 -33.65 -6.15 -33.0 -6.35 -32.85 Q-7.0 -32.5 -7.7 -32.5 -8.55 -32.5 -9.25 -33.05 L-9.35 -33.15 -10.05 -34.0 -10.7 -35.5 -10.7 -35.55 -10.55 -35.5 -9.5 -35.05 -9.45 -35.0 Q-8.05 -34.15 -7.3 -34.15 -6.75 -34.15 -5.35 -34.7 L-4.6 -34.95 M-16.6 -35.4 L-16.2 -35.5 Q-16.2 -34.7 -16.95 -33.45 L-17.0 -33.3 -17.25 -32.95 -17.5 -32.65 Q-18.45 -31.65 -19.8 -31.65 L-20.45 -31.75 Q-21.4 -32.1 -21.85 -33.5 L-21.0 -33.4 -19.15 -33.75 -17.8 -34.55 -16.7 -35.35 -16.6 -35.4 M-26.0 -30.2 L-25.45 -29.75 Q-24.05 -28.5 -23.75 -27.2 L-23.7 -27.15 -23.7 -26.95 -23.65 -26.45 Q-23.65 -25.8 -24.35 -25.25 -24.85 -24.8 -25.5 -24.65 L-26.05 -24.6 -26.15 -24.6 -27.15 -24.75 Q-26.15 -25.95 -26.0 -26.5 L-26.0 -30.2 M30.2 5.35 L30.35 5.2 30.35 5.15 Q31.8 3.65 32.7 3.2 L33.4 2.35 33.95 1.85 35.15 1.0 34.55 2.05 Q33.2 4.35 33.2 6.45 33.2 8.1 33.5 9.3 L33.6 9.7 33.75 11.65 Q33.75 14.55 28.85 18.05 25.75 20.25 24.6 21.35 L20.6 23.45 Q17.8 24.45 14.4 24.45 11.8 24.45 10.4 22.65 9.35 20.75 8.9 20.55 7.9 20.05 7.5 19.55 L6.85 18.5 Q6.05 17.3 5.5 16.95 4.5 16.3 2.8 16.65 L0.45 17.05 -4.5 17.45 -9.5 17.25 -9.0 17.65 -9.6 17.15 -12.0 14.15 -13.0 13.1 -13.15 12.95 -13.65 12.6 -14.2 12.2 -14.15 12.2 -11.6 11.7 -6.75 10.9 -1.9 10.1 Q-0.2 9.25 1.0 8.7 1.5 8.45 1.9 8.35 L7.8 4.2 Q10.8 2.0 14.45 -2.1 17.5 -5.6 20.15 -9.2 23.1 -13.15 23.45 -18.1 25.05 -14.5 25.05 -10.6 L25.05 -10.4 Q24.3 -6.65 22.8 -3.0 20.8 1.95 16.1 3.75 L13.2 4.5 Q9.3 5.6 6.25 7.5 L6.85 7.75 Q8.15 7.75 11.3 6.45 L14.5 5.65 18.7 4.5 Q21.1 3.95 22.8 2.35 26.2 -0.8 25.75 -5.75 L25.95 -6.85 26.0 -7.9 26.0 -8.0 26.0 -8.2 26.0 -8.4 26.0 -9.05 26.0 -9.15 26.4 -7.65 26.6 -2.75 26.55 -1.4 26.6 -1.9 26.15 -0.95 25.35 1.4 Q24.45 3.9 21.3 6.15 20.05 7.0 16.85 8.15 13.35 9.4 11.95 10.2 7.6 12.55 7.6 14.95 L8.3 16.95 Q9.5 18.9 12.0 18.9 13.0 18.9 14.3 18.0 L18.25 15.35 Q18.75 15.05 21.95 14.45 24.9 13.95 26.35 12.6 27.15 11.8 27.4 10.7 L27.85 8.8 29.05 6.9 29.75 5.8 30.2 5.35 M35.2 -3.75 Q33.4 -3.9 32.55 -5.7 L31.95 -7.75 Q31.95 -9.35 33.85 -11.1 L34.7 -11.8 Q33.9 -9.2 33.9 -7.75 L33.95 -7.05 34.1 -6.65 Q34.2 -5.45 35.0 -4.1 L35.2 -3.75 M35.35 -17.4 L35.65 -16.75 Q34.85 -16.95 33.75 -17.95 32.45 -19.05 32.45 -19.4 32.45 -19.95 33.75 -21.25 L34.5 -21.8 34.35 -21.25 34.15 -19.85 Q34.15 -18.7 35.0 -17.8 L35.05 -17.75 35.35 -17.4 M33.4 -25.0 L31.9 -24.55 Q30.75 -24.55 30.5 -25.1 L30.45 -25.75 30.65 -26.9 31.25 -28.2 31.55 -28.65 31.8 -27.05 Q31.8 -26.0 33.4 -25.0 M14.5 -22.95 L13.65 -23.5 Q11.55 -24.8 9.5 -25.4 6.6 -26.25 -0.8 -27.1 L-2.75 -27.3 -2.9 -27.35 -7.2 -27.35 -14.9 -26.5 -14.95 -26.45 -15.85 -26.25 -17.0 -25.9 -17.4 -25.75 -13.1 -28.35 -7.4 -28.75 -1.85 -27.9 8.35 -28.05 Q11.2 -27.7 15.25 -23.05 L15.0 -22.55 14.5 -22.95 M-17.35 -25.05 L-17.2 -25.1 -17.35 -25.05 M14.7 -22.65 L14.95 -22.55 14.85 -22.55 14.7 -22.65 M-26.85 -18.0 L-26.75 -17.45 -26.0 -18.25 -24.25 -20.55 Q-23.3 -21.65 -23.3 -20.4 L-23.5 -19.8 -23.5 -20.0 -23.55 -20.15 Q-25.15 -18.6 -26.0 -12.7 L-26.45 -10.35 -26.95 -7.9 -26.85 -7.55 -27.8 -5.8 Q-29.2 -3.25 -29.7 -3.05 L-29.8 -3.15 -30.1 -3.7 -30.25 -4.1 -30.25 -4.15 -30.15 -4.5 -30.3 -4.45 -30.05 -7.05 -30.45 -9.2 -30.85 -11.0 -30.45 -10.65 -30.15 -10.95 Q-28.6 -12.15 -28.6 -13.15 L-28.8 -14.45 Q-29.25 -14.15 -29.75 -14.0 L-29.5 -14.35 Q-28.2 -16.2 -28.45 -18.95 L-28.55 -20.5 -28.5 -20.45 Q-27.4 -19.3 -27.0 -18.4 L-26.85 -18.0 M-26.3 -14.85 L-26.25 -14.8 Q-26.1 -14.95 -26.2 -15.05 L-26.3 -14.85" fill="#e0cbcb" fill-rule="evenodd" stroke="none"/>
    <path d="M-9.0 17.65 L-9.5 17.25 -4.5 17.45 0.45 17.05 2.8 16.65 Q4.5 16.3 5.5 16.95 6.05 17.3 6.85 18.5 L7.5 19.55 Q7.9 20.05 8.9 20.55 9.35 20.75 10.4 22.65 11.8 24.45 14.4 24.45 17.8 24.45 20.6 23.45 L16.05 25.45 15.5 25.65 15.45 25.65 Q12.05 26.85 9.7 26.85 1.35 26.85 -1.8 24.95 L-3.25 23.75 -3.15 23.4 Q-3.15 22.0 -5.55 20.15 L-6.35 19.6 -7.2 19.0 -8.4 18.15 -9.0 17.65 M25.75 -5.75 Q26.2 -0.8 22.8 2.35 21.1 3.95 18.7 4.5 L14.5 5.65 11.3 6.45 Q14.8 4.75 18.35 3.0 L16.1 3.75 Q20.8 1.95 22.8 -3.0 24.3 -6.65 25.05 -10.4 25.05 -5.65 24.1 -1.05 L24.1 -1.0 Q25.45 -3.25 25.75 -5.75" fill="#cca9a9" fill-rule="evenodd" stroke="none"/>
    <path d="M-9.25 -33.05 L-9.65 -33.15 -9.65 -33.2 -10.05 -33.25 -9.35 -33.15 -9.25 -33.05 M-23.7 -26.95 L-23.15 -27.7 -22.55 -28.85 -22.25 -29.55 -22.55 -29.15 -22.0 -29.9 -21.65 -30.3 Q-20.15 -31.6 -16.85 -31.9 L-12.5 -32.4 -10.9 -32.15 -9.3 -31.75 -6.35 -31.6 -3.75 -31.9 -2.95 -32.1 -1.85 -31.9 -0.6 -31.9 0.95 -31.4 Q3.3 -30.6 5.8 -30.6 L10.1 -31.1 15.0 -30.3 13.95 -30.5 16.15 -29.15 Q19.0 -27.05 22.55 -27.05 L23.0 -27.05 24.05 -26.2 27.2 -23.9 Q31.8 -20.15 31.8 -15.95 L31.2 -13.3 Q30.55 -10.75 30.55 -9.8 30.55 -8.7 31.15 -6.4 L31.7 -3.3 Q31.55 -0.85 30.95 1.55 L30.15 5.1 30.2 5.35 29.75 5.8 29.05 6.9 27.85 8.8 27.4 10.7 Q27.15 11.8 26.35 12.6 24.9 13.95 21.95 14.45 18.75 15.05 18.25 15.35 L14.3 18.0 Q13.0 18.9 12.0 18.9 9.5 18.9 8.3 16.95 L7.6 14.95 Q7.6 12.55 11.95 10.2 13.35 9.4 16.85 8.15 20.05 7.0 21.3 6.15 24.45 3.9 25.35 1.4 L26.15 -0.95 26.6 -1.9 26.55 -1.4 26.6 -2.75 26.4 -7.65 26.0 -9.15 Q25.95 -11.85 25.55 -13.6 24.95 -16.45 23.3 -18.85 L23.15 -18.85 23.45 -18.1 Q23.1 -13.15 20.15 -9.2 17.5 -5.6 14.45 -2.1 10.8 2.0 7.8 4.2 L1.9 8.35 Q1.5 8.45 1.0 8.7 -0.2 9.25 -1.9 10.1 L-6.75 10.9 -11.6 11.7 -14.15 12.2 Q-15.2 11.5 -16.55 10.85 -18.9 9.7 -20.75 7.8 L-23.2 4.55 -24.6 2.95 -26.3 1.4 -28.0 -0.85 -28.45 -1.2 -29.05 -2.1 -29.8 -3.15 -29.7 -3.05 Q-29.2 -3.25 -27.8 -5.8 L-26.85 -7.55 -26.85 -7.5 -26.75 -7.55 -25.4 -11.7 Q-24.25 -15.7 -24.25 -16.95 L-23.85 -18.4 -23.5 -19.8 -23.3 -20.4 Q-23.3 -21.65 -24.25 -20.55 L-26.0 -18.25 -26.75 -17.45 -26.85 -18.0 -26.75 -18.85 -26.8 -21.05 Q-26.8 -22.95 -25.5 -24.65 -24.85 -24.8 -24.35 -25.25 -23.65 -25.8 -23.65 -26.45 L-23.7 -26.95 M26.4 -25.75 L26.3 -25.8 26.4 -25.75 M14.95 -22.55 L15.15 -22.45 14.5 -22.95 15.0 -22.55 15.25 -23.05 Q11.2 -27.7 8.35 -28.05 L-1.85 -27.9 -7.4 -28.75 -13.1 -28.35 -17.4 -25.75 -17.0 -25.9 Q-18.15 -25.5 -18.15 -25.05 L-17.85 -24.7 -17.35 -25.05 -17.2 -25.1 Q-16.5 -25.5 -15.1 -25.75 L-7.05 -26.5 -2.95 -26.55 9.1 -24.65 Q12.15 -23.9 14.7 -22.65 L14.85 -22.55 14.95 -22.55 M-13.35 -33.1 L-13.8 -33.1 -11.3 -33.3 -11.7 -33.25 -13.35 -33.1 M-24.05 -8.05 L-24.65 -6.55 -25.3 -5.1 -25.25 -4.9 -25.1 -4.9 Q-24.65 -5.45 -23.8 -7.65 L-22.95 -10.15 Q-22.95 -10.95 -23.45 -10.0 -23.95 -9.05 -24.05 -8.05" fill="url(#gradient0)" fill-rule="evenodd" stroke="none"/>
  </g>
  <defs>
    <radialGradient cx="0" cy="0" gradientTransform="matrix(0.048, 0.0, 0.0, 0.0437, -2.7, 1.1)" gradientUnits="userSpaceOnUse" id="gradient0" r="819.2" spreadMethod="pad">
      <stop offset="0.34901960784313724" stop-color="#f2eaea"></stop>
      <stop offset="1.0" stop-color="#e0cbcb"></stop>
    </radialGradient>
  </defs>
</svg>