<?xml version="1.0" encoding="UTF-8" standalone="no"?>
<svg xmlns:xlink="http://www.w3.org/1999/xlink" height="25.95px" width="49.8px" xmlns="http://www.w3.org/2000/svg">
  <g transform="matrix(1.0, 0.0, 0.0, 1.0, 19.6, 30.05)">
    <path d="M4.1 -28.65 L5.75 -28.45 7.35 -28.25 Q8.2 -27.85 8.2 -27.45 L8.1 -27.15 7.5 -27.05 Q6.95 -27.05 5.25 -27.75 L2.75 -28.75 2.75 -29.05 4.1 -28.65 M11.25 -25.8 Q9.35 -25.8 9.35 -26.55 9.35 -27.25 10.65 -27.1 11.9 -26.9 11.9 -26.3 11.9 -25.8 11.25 -25.8 M13.15 -25.95 Q14.05 -25.75 14.05 -25.15 14.05 -24.6 13.25 -24.6 12.2 -24.6 12.2 -25.25 12.2 -26.2 13.15 -25.95 M16.1 -22.9 L15.1 -23.1 14.6 -23.45 14.8 -24.15 15.6 -24.6 17.0 -23.5 Q17.0 -22.9 16.1 -22.9 M16.9 -22.25 Q16.9 -22.7 17.45 -22.7 18.3 -22.7 18.3 -22.25 18.3 -21.75 17.4 -21.75 16.9 -21.75 16.9 -22.25 M19.2 -21.1 L18.75 -21.4 Q18.75 -21.7 19.05 -21.7 L19.35 -21.4 19.2 -21.1 M7.7 -23.0 L8.3 -21.4 8.1 -21.15 7.7 -20.95 Q7.55 -20.95 7.15 -22.05 L6.75 -23.2 7.15 -24.4 7.5 -24.65 7.7 -23.8 7.7 -23.0 M8.7 -22.5 L8.35 -22.05 8.1 -22.35 Q8.1 -22.75 8.65 -22.8 L8.7 -22.5 M7.45 -20.5 L8.1 -21.1 8.35 -20.75 8.15 -20.4 8.15 -20.35 8.25 -20.45 8.45 -20.55 8.75 -20.5 8.8 -20.3 8.15 -19.2 Q7.45 -18.25 7.0 -18.25 L6.75 -18.3 6.15 -17.45 5.95 -17.45 5.9 -17.65 6.55 -19.9 Q6.75 -20.95 7.1 -21.15 7.45 -21.4 7.45 -20.5 M4.55 -15.6 Q5.2 -16.25 5.2 -15.7 L4.7 -15.0 4.1 -14.35 3.85 -14.6 Q3.85 -14.9 4.55 -15.6 M3.7 -13.9 Q3.7 -13.4 2.9 -12.65 L1.45 -11.6 1.3 -11.6 1.25 -11.8 2.5 -13.55 Q3.7 -15.1 3.7 -13.9 M5.95 -16.75 Q5.95 -16.35 5.45 -16.1 L5.2 -16.4 5.45 -16.7 5.85 -17.0 5.95 -16.75 M26.35 -9.6 Q25.5 -9.6 25.3 -10.1 25.2 -10.3 25.25 -10.6 25.25 -11.0 25.7 -11.3 L26.55 -11.6 Q27.15 -11.6 27.3 -10.45 28.15 -10.55 28.15 -9.15 28.15 -8.3 27.4 -8.3 L26.3 -9.4 26.35 -9.6 M28.5 -6.85 Q28.35 -6.7 28.25 -6.7 27.95 -6.7 27.85 -6.95 L27.75 -7.15 28.2 -7.5 Q28.6 -7.55 28.6 -7.1 L28.5 -6.85 M28.6 -5.1 L28.3 -5.2 28.25 -5.45 Q28.25 -6.0 28.75 -6.5 29.2 -7.05 29.2 -5.9 29.2 -5.35 28.6 -5.1 M-17.65 -25.1 Q-18.25 -24.65 -18.5 -24.65 L-18.6 -24.9 Q-18.6 -25.85 -14.85 -26.85 L-9.95 -27.85 -9.9 -27.65 -12.75 -26.8 -13.95 -26.3 -13.85 -25.8 -13.85 -25.95 -13.4 -26.15 -13.15 -26.1 -13.1 -25.9 -13.6 -25.4 -14.35 -24.85 -14.55 -24.55 -15.3 -23.5 -15.45 -22.0 -15.4 -21.8 -15.45 -19.75 -15.6 -19.7 -16.55 -23.3 -16.45 -23.45 -16.35 -23.65 -16.6 -24.05 -16.6 -24.75 -16.5 -24.9 -16.55 -24.9 -16.9 -25.45 -17.65 -25.1 M-5.2 -28.3 L-4.4 -28.35 -4.35 -28.15 Q-4.35 -27.7 -5.75 -27.7 L-6.1 -27.75 -6.15 -27.95 -5.2 -28.3 M-8.4 -27.3 Q-8.95 -27.3 -8.95 -27.65 -8.95 -28.15 -7.85 -28.15 L-7.2 -27.9 -7.15 -27.8 -7.65 -27.45 -8.4 -27.3 M-15.9 -23.75 L-15.7 -24.3 -16.0 -24.2 -15.9 -23.75 M-16.45 -16.75 Q-16.75 -19.0 -15.65 -19.15 L-15.6 -18.4 -15.85 -16.6 -16.15 -15.45 -16.5 -14.0 Q-16.8 -14.15 -16.8 -14.7 L-16.45 -16.75 M-17.4 -13.9 L-17.15 -13.55 Q-17.15 -13.1 -17.6 -12.05 L-18.2 -10.8 -18.4 -11.1 -18.0 -12.5 -17.4 -13.9 M-2.05 -9.05 L0.4 -11.0 Q-0.2 -9.7 -1.85 -8.95 L-2.05 -9.05" fill="#ffffff" fill-opacity="0.6" fill-rule="evenodd" stroke="none"/>
  </g>
</svg>