<?xml version="1.0" encoding="UTF-8" standalone="no"?>
<svg xmlns:xlink="http://www.w3.org/1999/xlink" height="64.25px" width="67.25px" xmlns="http://www.w3.org/2000/svg">
  <g transform="matrix(1.0, 0.0, 0.0, 1.0, 33.6, 32.1)">
    <path d="M12.8 -4.3 L14.1 -7.3 Q15.65 -10.55 16.25 -11.4 L19.35 -15.55 21.5 -18.55 21.85 -19.25 21.7 -20.0 Q21.3 -21.7 19.9 -22.8 L16.7 -24.95 13.65 -26.6 11.6 -27.45 9.5 -28.2 9.3 -28.25 7.25 -28.9 4.7 -29.55 2.05 -30.1 -1.85 -30.1 -3.5 -29.9 -6.7 -29.5 -9.5 -29.1 -13.15 -28.5 -15.1 -28.0 -17.2 -27.2 -17.35 -27.15 -17.75 -27.0 -18.05 -26.9 Q-19.45 -26.3 -20.25 -25.0 L-20.45 -24.55 -20.65 -23.9 -21.2 -21.2 Q-21.7 -19.9 -22.6 -14.8 -23.35 -10.6 -23.8 -10.6 -24.55 -10.6 -24.8 -13.95 -25.05 -16.95 -24.75 -19.2 L-24.75 -19.8 Q-26.25 -17.55 -27.8 -13.4 L-30.0 -6.7 Q-30.65 -4.2 -31.3 0.1 L-31.4 1.45 -31.45 2.05 -31.5 2.8 -31.5 2.9 -31.6 4.15 -31.7 5.6 Q-31.85 6.65 -32.1 6.65 L-32.45 6.5 -32.6 2.9 Q-32.6 0.2 -31.85 -3.55 -31.1 -7.2 -30.05 -9.8 L-29.0 -12.95 -27.8 -16.15 Q-24.6 -22.35 -24.3 -22.35 L-24.25 -22.35 Q-24.05 -22.9 -23.1 -21.6 L-22.3 -20.35 -21.6 -23.65 -21.2 -25.0 -20.65 -25.85 Q-19.6 -27.25 -17.95 -27.9 L-15.35 -28.9 -11.8 -29.7 -9.65 -30.1 -7.3 -30.45 -4.7 -30.75 -1.95 -31.1 2.35 -31.1 4.3 -30.6 7.25 -29.9 10.45 -28.7 13.65 -27.4 17.0 -25.95 18.7 -24.85 21.25 -22.5 Q22.6 -21.1 23.0 -19.25 L23.0 -19.15 23.05 -17.85 Q23.45 -15.75 23.45 -14.0 L23.45 -13.0 Q25.65 -14.45 27.1 -14.45 27.95 -14.45 28.5 -13.25 L28.9 -12.55 Q30.5 -9.75 31.6 -5.45 L32.5 -0.55 32.65 3.7 Q32.65 10.75 27.05 18.85 23.55 23.9 18.95 26.95 14.05 30.15 7.9 31.15 L5.3 31.15 Q3.3 30.5 1.0 28.95 L-0.45 27.9 -2.15 26.95 -3.1 26.3 -6.1 24.4 -10.9 23.15 Q-12.45 22.75 -12.9 22.15 L-13.1 21.6 Q-13.1 21.1 -12.2 21.3 L-11.5 21.5 -8.75 22.6 -6.7 23.3 -5.5 23.65 Q-3.45 24.3 -3.05 24.8 -2.9 24.5 -2.7 24.5 -1.95 24.5 -0.7 25.9 L0.15 26.95 0.2 27.05 1.8 28.2 Q4.35 30.05 6.55 30.05 11.2 30.05 16.3 27.05 L16.5 26.95 19.25 25.1 19.55 24.9 23.2 21.85 24.05 21.0 24.35 20.65 26.65 17.35 28.6 14.0 30.35 10.65 30.55 10.1 31.25 7.8 31.3 7.5 31.35 7.2 31.45 6.45 31.55 4.05 31.45 0.25 30.6 -4.7 Q30.25 -6.75 28.8 -10.2 L27.85 -12.25 27.45 -12.7 27.1 -13.4 26.35 -13.1 25.6 -12.7 23.0 -11.05 18.6 -7.5 13.05 -2.85 Q12.65 -2.85 12.55 -3.15 L12.55 -3.45 12.8 -4.3 M8.8 -25.9 L8.85 -25.9 8.6 -26.1 8.55 -26.15 Q9.55 -26.1 10.35 -25.6 L12.15 -24.45 Q12.7 -24.1 13.2 -23.7 L13.55 -23.45 15.5 -21.6 16.45 -20.6 16.75 -20.2 16.9 -19.25 16.85 -19.2 16.5 -19.0 16.15 -19.25 14.65 -20.75 10.95 -24.25 8.8 -25.9 M2.75 -18.5 L3.6 -19.35 3.85 -19.25 3.5 -18.75 2.8 -17.8 Q-0.05 -14.15 -4.95 -10.1 -10.3 -5.7 -11.7 -5.7 -12.05 -5.7 -12.25 -5.95 L-12.35 -6.2 -12.2 -6.3 -12.15 -6.3 -11.45 -6.85 -9.05 -8.5 Q-5.2 -11.1 -3.25 -12.85 L1.35 -17.1 2.55 -18.3 2.75 -18.5 M28.4 0.5 L28.55 -0.2 28.65 0.05 28.85 1.95 28.85 2.15 28.85 2.3 28.85 2.45 28.85 2.55 28.85 2.65 28.6 4.5 28.6 4.6 27.7 7.8 27.55 8.15 27.15 9.15 Q25.6 12.95 23.65 15.2 L23.0 15.9 23.45 14.95 24.35 12.85 27.9 3.25 28.15 1.85 28.4 0.55 28.4 0.5 M14.25 -5.05 L14.25 -5.0 14.3 -5.0 20.15 -10.5 22.6 -12.45 Q22.3 -13.75 22.2 -17.75 L22.2 -18.15 20.05 -15.0 Q16.5 -9.85 14.25 -5.05 M-23.6 -14.45 L-22.65 -18.85 -23.9 -21.05 -23.9 -20.6 -23.95 -18.85 -23.65 -14.5 -23.65 -14.4 -23.6 -14.4 -23.6 -14.45" fill="#a36a6a" fill-rule="evenodd" stroke="none"/>
    <path d="M-20.45 -24.55 L-20.25 -25.0 Q-19.45 -26.3 -18.05 -26.9 L-17.75 -27.0 -17.35 -27.15 -17.2 -27.2 -15.1 -28.0 -13.15 -28.5 -9.5 -29.1 -6.7 -29.5 -3.5 -29.9 -1.85 -30.1 2.05 -30.1 4.7 -29.55 7.25 -28.9 9.3 -28.25 9.5 -28.2 11.6 -27.45 13.65 -26.6 16.7 -24.95 19.9 -22.8 Q21.3 -21.7 21.7 -20.0 L21.85 -19.25 21.5 -18.55 19.35 -15.55 16.25 -11.4 Q15.65 -10.55 14.1 -7.3 L12.8 -4.3 12.65 -3.9 12.65 -4.05 Q12.65 -7.15 15.85 -12.25 19.05 -17.35 19.05 -17.95 19.05 -18.45 17.45 -19.65 L16.75 -20.2 16.45 -20.6 15.5 -21.6 13.55 -23.45 12.75 -24.1 12.15 -24.45 10.35 -25.6 Q9.55 -26.1 8.55 -26.15 L8.6 -26.1 8.85 -25.9 8.8 -25.9 7.5 -26.3 1.55 -27.75 -5.0 -27.75 -12.75 -27.15 -15.95 -26.35 -18.75 -25.25 -20.45 -24.55 M23.0 -11.05 L25.6 -12.7 26.35 -13.1 27.1 -13.4 27.45 -12.7 27.85 -12.25 28.8 -10.2 Q30.25 -6.75 30.6 -4.7 L31.45 0.25 31.55 4.05 31.45 6.45 31.35 7.2 31.3 7.5 31.25 7.8 30.55 10.1 Q29.6 10.75 28.5 10.75 27.65 10.75 27.5 9.85 L27.5 8.9 27.55 8.15 27.7 7.8 28.6 4.6 28.6 4.5 28.85 2.65 28.85 2.55 28.85 2.45 28.85 2.3 28.85 2.15 28.85 1.95 28.65 0.05 28.65 -0.25 Q28.75 -3.2 28.15 -5.75 27.0 -10.8 23.65 -10.8 L22.6 -10.75 23.0 -11.05 M14.3 -5.0 L14.25 -5.0 14.25 -5.05 14.3 -5.0 M-23.65 -14.5 L-23.6 -14.45 -23.6 -14.4 -23.65 -14.4 -23.65 -14.5" fill="#f2eaea" fill-rule="evenodd" stroke="none"/>
    <path d="M19.55 24.9 L19.25 25.1 16.5 26.95 16.3 27.05 Q11.2 30.05 6.55 30.05 4.35 30.05 1.8 28.2 L0.2 27.05 0.15 26.95 -0.7 25.9 Q-1.95 24.5 -2.7 24.5 -2.9 24.5 -3.05 24.8 -3.45 24.3 -5.5 23.65 L-6.7 23.3 -5.3 23.5 -2.0 24.5 -2.2 24.45 -1.75 23.2 0.4 20.4 2.7 16.8 Q3.85 15.05 3.85 16.65 L3.65 17.9 3.45 19.15 Q3.45 20.3 3.95 22.8 4.15 23.8 5.15 25.1 L5.65 25.75 8.05 25.8 Q12.25 25.4 13.65 24.75 L14.85 24.25 16.75 24.05 Q17.85 24.2 19.55 24.9 M14.3 -5.0 L14.25 -5.05 Q16.5 -9.85 20.05 -15.0 L22.2 -18.15 22.2 -17.75 Q22.3 -13.75 22.6 -12.45 L20.15 -10.5 14.3 -5.0 M-23.65 -14.5 L-23.95 -18.85 -23.9 -20.6 -23.9 -21.05 -22.65 -18.85 -23.6 -14.45 -23.65 -14.5 M27.9 3.25 L24.35 12.85 23.45 14.95 Q18.35 17.5 11.2 15.9 15.7 13.8 19.85 11.1 24.65 7.95 27.9 3.25" fill="#cca9a9" fill-rule="evenodd" stroke="none"/>
    <path d="M24.35 20.65 L24.05 21.0 23.2 21.85 19.55 24.9 Q17.85 24.2 16.75 24.05 L14.85 24.25 13.65 24.75 Q12.25 25.4 8.05 25.8 L5.65 25.75 5.15 25.1 Q4.15 23.8 3.95 22.8 3.45 20.3 3.45 19.15 L3.65 17.9 3.85 16.65 Q3.85 15.05 2.7 16.8 L0.4 20.4 -1.75 23.2 -2.2 24.45 -2.0 24.5 -5.3 23.5 -6.7 23.3 -8.75 22.6 -11.5 21.5 -12.2 21.3 Q-13.1 21.1 -13.1 21.6 L-12.9 22.15 Q-13.7 22.15 -14.1 21.55 L-14.6 20.55 -15.3 19.65 Q-15.8 19.0 -16.45 18.65 -20.75 16.1 -22.4 15.25 L-28.8 11.6 -30.5 9.75 Q-31.3 8.6 -32.05 8.25 L-32.1 6.65 Q-31.85 6.65 -31.7 5.6 L-31.6 4.15 -31.5 2.9 -31.5 2.8 -31.45 2.05 -31.4 1.45 -28.25 2.65 -23.75 3.4 -17.55 4.3 -13.0 4.25 Q-4.7 1.95 -1.3 -0.3 L1.4 -1.95 3.7 -3.35 5.4 -4.55 Q6.45 -5.4 8.5 -8.15 L6.0 -1.1 4.2 3.5 1.6 8.0 -1.6 12.45 -1.65 12.5 Q3.0 10.9 6.35 8.65 L9.55 6.35 13.3 3.25 20.6 -3.45 21.8 -4.5 23.8 -6.05 Q24.6 -6.6 25.45 -5.9 L26.2 -5.05 Q27.25 -3.75 27.9 -1.75 L28.4 0.5 28.4 0.55 28.15 1.85 27.9 3.25 Q24.65 7.95 19.85 11.1 15.7 13.8 11.2 15.9 18.35 17.5 23.45 14.95 L23.0 15.9 23.65 15.2 23.05 16.05 Q21.55 18.0 21.55 19.2 21.55 19.7 21.85 19.95 22.2 20.3 23.45 20.65 L24.35 20.65 M3.5 -18.75 L3.7 -18.75 Q3.7 -18.4 2.8 -17.8 L3.5 -18.75 M-12.2 -6.3 Q-11.3 -7.2 -9.55 -9.65 -7.8 -12.1 -6.7 -14.05 -3.55 -15.95 -0.9 -17.05 L2.75 -18.5 2.55 -18.3 1.35 -17.1 -3.25 -12.85 Q-5.2 -11.1 -9.05 -8.5 L-11.45 -6.85 -12.15 -6.3 -12.2 -6.3" fill="#e0cbcb" fill-rule="evenodd" stroke="none"/>
    <path d="M12.8 -4.3 L12.55 -3.45 12.55 -3.15 Q12.65 -2.85 13.05 -2.85 L18.6 -7.5 23.0 -11.05 22.6 -10.75 23.65 -10.8 Q27.0 -10.8 28.15 -5.75 28.75 -3.2 28.65 -0.25 L28.65 0.05 28.55 -0.2 28.4 0.5 27.9 -1.75 Q27.25 -3.75 26.2 -5.05 L25.45 -5.9 Q24.6 -6.6 23.8 -6.05 L21.8 -4.5 20.6 -3.45 13.3 3.25 9.55 6.35 6.35 8.65 Q3.0 10.9 -1.65 12.5 L-1.6 12.45 1.6 8.0 4.2 3.5 6.0 -1.1 8.5 -8.15 Q6.45 -5.4 5.4 -4.55 L3.7 -3.35 1.4 -1.95 -1.3 -0.3 Q-4.7 1.95 -13.0 4.25 L-17.55 4.3 -23.75 3.4 -28.25 2.65 -31.4 1.45 -31.3 0.1 Q-30.65 -4.2 -30.0 -6.7 L-27.8 -13.4 Q-26.25 -17.55 -24.75 -19.8 L-24.75 -19.2 Q-25.05 -16.95 -24.8 -13.95 -24.55 -10.6 -23.8 -10.6 -23.35 -10.6 -22.6 -14.8 -21.7 -19.9 -21.2 -21.2 L-20.65 -23.9 -20.45 -24.55 -18.75 -25.25 -15.95 -26.35 -12.75 -27.15 -5.0 -27.75 1.55 -27.75 7.5 -26.3 8.8 -25.9 10.95 -24.25 14.65 -20.75 16.15 -19.25 16.5 -19.0 16.85 -19.2 16.9 -19.25 16.75 -20.2 17.45 -19.65 Q19.05 -18.45 19.05 -17.95 19.05 -17.35 15.85 -12.25 12.65 -7.15 12.65 -4.05 L12.65 -3.9 12.8 -4.3 M30.55 10.1 L30.35 10.65 28.6 14.0 26.65 17.35 24.35 20.65 23.45 20.65 Q22.2 20.3 21.85 19.95 21.55 19.7 21.55 19.2 21.55 18.0 23.05 16.05 L23.65 15.2 Q25.6 12.95 27.15 9.15 L27.55 8.15 27.5 8.9 27.5 9.85 Q27.65 10.75 28.5 10.75 29.6 10.75 30.55 10.1 M12.15 -24.45 L12.75 -24.1 13.55 -23.45 13.2 -23.7 Q12.7 -24.1 12.15 -24.45 M3.5 -18.75 L3.85 -19.25 3.6 -19.35 2.75 -18.5 -0.9 -17.05 Q-3.55 -15.95 -6.7 -14.05 -7.8 -12.1 -9.55 -9.65 -11.3 -7.2 -12.2 -6.3 L-12.35 -6.2 -12.25 -5.95 Q-12.05 -5.7 -11.7 -5.7 -10.3 -5.7 -4.95 -10.1 -0.05 -14.15 2.8 -17.8 3.7 -18.4 3.7 -18.75 L3.5 -18.75" fill="url(#gradient0)" fill-rule="evenodd" stroke="none"/>
  </g>
  <defs>
    <radialGradient cx="0" cy="0" gradientTransform="matrix(0.048, 0.0, 0.0, 0.0437, -2.7, 1.1)" gradientUnits="userSpaceOnUse" id="gradient0" r="819.2" spreadMethod="pad">
      <stop offset="0.34901960784313724" stop-color="#f2eaea"></stop>
      <stop offset="1.0" stop-color="#e0cbcb"></stop>
    </radialGradient>
  </defs>
</svg>