<?xml version="1.0" encoding="UTF-8" standalone="no"?>
<svg xmlns:xlink="http://www.w3.org/1999/xlink" height="37.15px" width="60.25px" xmlns="http://www.w3.org/2000/svg">
  <g id="shape0" transform="matrix(1.0, 0.0, 0.0, 1.0, 25.6, 28.2)">
    <path d="M15.7 -23.85 Q16.85 -23.85 16.85 -23.1 L16.7 -22.6 Q16.7 -22.2 16.35 -21.8 L16.2 -22.1 16.35 -21.6 Q16.35 -21.1 15.8 -21.1 15.55 -21.1 15.45 -21.25 L15.15 -21.25 Q14.7 -21.25 14.5 -21.55 L14.35 -21.85 14.55 -22.5 14.7 -22.5 14.35 -22.5 13.95 -22.55 13.05 -21.2 Q14.05 -20.85 14.05 -20.25 14.05 -19.9 13.55 -19.7 L12.9 -19.55 12.0 -19.75 12.15 -19.15 Q12.15 -18.2 11.3 -18.2 10.0 -18.2 10.0 -19.0 L10.0 -19.05 11.7 -20.0 Q10.6 -19.25 9.35 -18.85 L9.55 -18.35 9.55 -18.3 9.95 -17.8 Q9.8 -17.15 9.25 -17.15 8.65 -17.15 8.5 -17.45 L8.3 -17.45 7.5 -17.65 7.35 -17.35 7.2 -17.15 7.5 -16.4 Q7.5 -15.45 6.25 -15.45 5.9 -15.45 5.7 -16.25 L5.55 -17.05 Q5.55 -18.0 6.55 -18.25 L7.4 -18.1 7.5 -18.45 7.2 -18.45 5.9 -18.25 Q5.1 -18.25 5.0 -18.6 L4.85 -18.65 4.85 -18.4 4.35 -17.5 Q3.7 -16.9 2.6 -16.9 1.2 -16.9 1.55 -18.05 L1.55 -18.15 1.25 -18.05 0.8 -18.05 0.45 -17.65 0.3 -17.5 -0.05 -17.5 Q0.55 -17.7 0.55 -16.95 L0.35 -16.55 Q0.1 -16.3 -0.15 -16.3 -0.8 -16.3 -0.75 -16.85 L-0.65 -17.2 -2.05 -17.3 -2.4 -17.75 Q-2.4 -18.1 -1.3 -18.55 L-2.5 -19.0 Q-4.4 -19.8 -4.5 -20.15 L-4.4 -20.0 Q-5.4 -20.15 -5.7 -20.65 -6.25 -20.85 -6.25 -21.45 -6.25 -22.5 -5.35 -21.95 L-4.9 -22.25 -3.85 -22.45 -2.55 -21.6 Q-2.25 -21.35 -2.25 -20.8 L-2.3 -20.4 -1.25 -20.25 -1.25 -20.3 -1.2 -20.55 -1.6 -21.1 Q-1.6 -21.6 -1.05 -21.6 -0.6 -21.6 -0.55 -21.1 L0.4 -21.2 1.5 -20.9 1.25 -20.7 Q1.35 -20.95 1.8 -20.95 2.25 -20.95 2.4 -20.6 L4.1 -20.5 4.2 -20.25 Q4.2 -19.65 2.35 -19.65 L1.1 -19.9 0.7 -19.75 Q1.5 -19.45 1.75 -19.0 L1.75 -19.05 Q2.2 -19.6 3.8 -19.6 L4.6 -19.3 4.6 -19.35 Q4.6 -20.1 5.35 -20.1 L6.3 -19.9 Q6.85 -19.9 7.05 -20.15 L7.65 -20.4 8.4 -20.15 Q8.9 -20.15 10.15 -20.95 L10.25 -21.0 10.2 -21.25 Q10.2 -22.35 11.05 -22.05 L11.4 -21.85 11.6 -22.0 13.6 -23.4 Q13.7 -24.2 14.55 -24.15 15.2 -24.1 15.45 -23.75 L15.7 -23.85 M15.65 -19.15 L15.4 -19.0 Q14.9 -19.0 14.9 -19.45 14.9 -19.85 15.35 -19.9 L15.8 -19.45 15.65 -19.15 M18.95 -18.8 Q18.95 -18.35 18.4 -18.35 L17.95 -18.6 17.9 -18.8 Q17.9 -19.2 18.45 -19.2 18.95 -19.2 18.95 -18.8 M12.9 -23.35 Q12.55 -23.35 12.4 -23.65 L12.35 -23.85 Q12.35 -24.45 12.9 -24.45 13.45 -24.45 13.45 -23.85 13.45 -23.35 12.9 -23.35 M11.4 -15.9 L10.85 -15.7 10.55 -15.75 10.5 -16.05 Q10.5 -16.4 10.8 -16.5 11.15 -16.6 11.55 -16.2 L11.4 -15.9 M9.5 -21.85 Q9.5 -21.3 8.95 -21.3 L8.3 -21.7 8.2 -22.0 Q8.2 -22.65 8.85 -22.55 9.5 -22.45 9.5 -21.85 M5.75 -21.95 Q5.75 -21.55 5.35 -21.35 L4.85 -21.45 4.8 -21.95 Q4.8 -22.5 5.3 -22.5 5.75 -22.5 5.75 -21.95 M0.45 -22.1 Q0.35 -21.95 0.1 -21.95 -0.15 -21.95 -0.3 -22.45 0.55 -23.1 0.55 -22.45 L0.45 -22.1 M16.8 -6.7 L16.4 -6.85 16.35 -7.2 Q16.35 -7.65 16.85 -7.65 17.35 -7.65 17.35 -7.2 17.25 -6.7 16.8 -6.7 M19.35 -6.65 Q19.0 -6.65 18.85 -6.95 L18.8 -7.15 Q18.8 -7.65 19.4 -7.65 20.0 -7.65 20.0 -7.15 20.0 -6.65 19.35 -6.65 M19.4 -1.7 Q18.95 -1.7 18.85 -2.0 L18.85 -2.2 Q18.85 -2.7 19.35 -2.7 19.85 -2.7 19.85 -2.15 19.85 -1.7 19.4 -1.7 M19.95 -4.7 Q19.95 -5.75 20.8 -5.45 21.65 -5.15 21.65 -4.35 21.65 -3.8 21.05 -3.8 20.45 -3.8 20.15 -4.2 L19.95 -4.7 M19.6 -12.45 Q19.6 -12.85 20.25 -12.75 L20.3 -12.4 19.95 -12.05 19.6 -12.45 M22.95 -17.05 L22.9 -17.35 Q22.9 -17.95 23.5 -17.95 24.1 -17.95 24.1 -17.35 23.9 -16.75 23.4 -16.75 L22.95 -17.05 M22.7 -14.4 Q22.7 -14.9 23.2 -14.9 23.65 -14.9 23.65 -14.4 23.55 -13.95 23.15 -13.95 L22.75 -14.2 22.7 -14.4 M24.15 -13.9 Q23.9 -14.15 23.9 -14.5 23.9 -15.25 24.85 -15.25 25.85 -15.25 25.95 -14.7 L26.8 -14.9 Q27.7 -14.85 27.8 -14.3 L27.9 -14.25 28.35 -13.7 Q28.35 -13.1 27.6 -13.1 L25.9 -13.3 Q25.05 -13.3 24.45 -12.65 L23.95 -12.05 Q24.75 -12.0 24.75 -11.4 24.75 -10.8 23.85 -10.8 L23.35 -10.85 23.25 -10.55 22.7 -7.8 22.9 -7.15 23.1 -7.25 Q23.8 -7.55 23.8 -6.5 23.8 -5.35 23.1 -5.35 L23.0 -4.5 23.05 -4.85 23.55 -4.6 Q23.95 -5.4 24.5 -4.4 L24.7 -2.9 Q24.7 -2.3 24.4 -2.15 L24.1 -2.1 23.95 -2.1 23.95 -1.85 24.3 -1.4 24.25 -1.45 Q24.4 -2.0 25.2 -1.55 L25.7 -1.15 Q25.75 -1.6 26.25 -1.5 L26.75 -1.0 Q26.75 -0.55 26.3 -0.55 L26.05 -0.55 26.2 0.35 26.1 0.85 26.55 1.25 26.4 1.1 Q26.5 0.5 27.1 0.55 27.8 0.6 27.8 1.6 L27.7 1.9 27.65 1.95 27.65 2.0 28.85 2.45 29.75 2.65 29.65 2.35 Q29.65 1.7 30.9 1.6 32.1 1.5 32.1 2.25 L32.05 2.55 32.5 2.35 32.7 2.4 33.05 2.35 Q33.65 2.4 33.65 2.85 L33.05 3.3 33.0 3.3 33.05 3.75 Q32.6 5.45 32.3 5.45 31.9 5.45 31.7 4.6 L31.55 3.7 31.55 3.65 31.25 3.7 30.45 3.75 29.05 3.55 29.45 3.65 29.45 3.85 Q29.45 4.85 28.45 4.85 28.0 4.85 27.85 4.55 L27.8 4.25 Q27.8 3.75 28.6 3.45 L28.05 3.25 28.0 3.25 27.85 3.15 27.4 2.95 Q26.15 2.4 25.55 1.8 L25.25 1.5 25.0 1.8 24.5 2.05 Q24.15 2.05 24.0 1.7 L23.95 1.35 Q23.95 0.75 24.65 0.8 L24.85 0.85 24.35 -0.05 23.9 -0.85 24.2 -0.35 Q24.1 0.4 23.6 0.5 L23.65 0.8 Q23.65 1.15 23.25 1.3 22.8 1.3 22.7 1.0 L22.65 0.8 Q22.65 0.45 22.9 0.35 L22.7 -0.35 22.75 -0.75 22.35 -1.05 22.25 -1.4 22.35 -2.1 21.4 -2.0 Q20.7 -2.0 20.55 -2.35 L20.5 -2.6 Q20.5 -3.4 21.55 -3.2 L21.95 -3.1 22.25 -3.0 22.3 -2.95 22.25 -3.05 21.95 -3.8 21.9 -3.9 21.9 -3.95 21.9 -4.05 21.8 -4.4 21.6 -5.9 Q21.1 -6.1 20.75 -6.6 L20.4 -7.35 Q20.4 -8.75 21.6 -7.9 L21.7 -7.85 21.75 -8.05 21.75 -8.1 21.85 -8.5 22.05 -9.35 22.25 -10.2 21.85 -10.65 21.65 -11.1 Q21.65 -11.7 22.45 -11.55 L22.65 -11.5 22.9 -12.05 22.65 -12.35 22.45 -12.75 Q22.45 -13.35 23.2 -13.35 L23.65 -13.25 24.2 -13.85 24.15 -13.9 M26.6 -15.8 Q26.6 -15.45 26.05 -15.45 25.7 -15.45 25.7 -15.75 25.7 -16.45 26.55 -15.95 L26.6 -15.8 M24.5 -8.85 L24.45 -9.05 Q24.45 -9.55 24.95 -9.55 25.4 -9.55 25.4 -9.05 25.4 -8.6 24.95 -8.6 24.6 -8.6 24.5 -8.85 M23.25 -3.85 L22.95 -3.95 22.9 -3.7 22.95 -3.5 23.0 -3.45 23.05 -3.35 23.05 -3.3 23.15 -3.15 23.25 -3.0 23.4 -2.7 23.4 -2.75 23.35 -2.9 23.25 -3.35 23.2 -3.7 23.25 -3.85 M25.95 -4.3 L25.6 -4.65 Q25.6 -5.05 25.9 -5.0 L26.35 -4.5 Q26.2 -4.35 25.95 -4.3 M31.3 5.6 L31.35 5.9 31.3 6.2 30.9 6.25 Q30.4 6.25 30.4 5.85 30.4 5.55 31.3 5.6 M32.5 7.5 L32.1 7.2 32.0 6.85 Q32.0 6.4 32.55 6.4 33.05 6.4 33.05 6.9 33.05 7.5 32.5 7.5 M29.1 1.3 Q28.45 1.3 28.45 0.8 28.45 0.3 29.05 0.3 29.65 0.3 29.65 0.8 29.65 1.3 29.1 1.3 M25.45 4.0 Q25.0 4.0 24.85 3.7 L24.75 3.35 Q24.75 2.6 25.5 2.6 26.25 2.6 26.25 3.35 26.25 4.0 25.45 4.0 M30.15 3.9 Q30.6 3.9 30.6 4.35 L30.15 4.8 Q29.7 4.8 29.7 4.3 29.7 3.9 30.15 3.9 M21.0 2.7 Q20.55 2.7 20.45 2.45 L20.45 2.15 Q20.45 1.6 21.0 1.6 21.55 1.65 21.55 2.1 21.55 2.7 21.0 2.7 M24.45 5.65 L24.4 5.35 Q24.4 4.85 25.1 4.85 25.8 4.85 25.8 5.35 25.8 5.9 25.05 5.9 L24.45 5.65 M29.1 7.35 L28.35 7.95 28.0 7.85 27.95 7.5 Q27.95 7.0 28.6 7.0 29.1 7.0 29.1 7.35 M-10.75 -25.55 L-11.25 -25.5 -11.55 -25.8 -10.75 -26.6 -9.65 -27.05 -8.85 -27.0 Q-7.15 -27.55 -7.15 -26.4 -7.15 -25.95 -8.15 -25.35 -7.15 -25.45 -7.15 -24.7 L-7.2 -23.7 Q-7.4 -23.15 -8.5 -23.15 -9.8 -23.15 -9.9 -24.25 L-9.8 -24.65 -10.05 -24.65 Q-10.9 -24.65 -10.8 -25.3 L-10.75 -25.55 M-21.95 -18.9 Q-21.45 -20.05 -20.45 -20.85 L-19.8 -21.2 -19.9 -21.25 -19.95 -21.65 Q-19.95 -22.15 -19.5 -22.15 -19.05 -22.15 -19.05 -21.65 -19.05 -21.15 -19.4 -21.15 L-19.5 -21.15 Q-19.35 -21.05 -19.35 -20.55 -19.35 -20.25 -20.15 -19.5 -21.05 -18.75 -21.7 -18.75 L-21.95 -18.9 M-22.3 -17.7 L-22.3 -17.75 -21.95 -17.8 Q-21.35 -17.65 -21.35 -17.35 -21.35 -17.1 -21.7 -16.95 L-22.05 -16.85 Q-22.5 -16.85 -22.55 -17.2 L-22.7 -17.2 Q-23.05 -17.2 -23.05 -17.65 -23.05 -18.0 -22.65 -18.0 -22.3 -18.0 -22.3 -17.7 M-23.2 -15.95 L-23.35 -15.65 -23.7 -15.45 Q-24.15 -15.45 -24.15 -16.0 -24.15 -16.4 -23.65 -16.4 -23.2 -16.4 -23.2 -15.95 M-24.15 -13.35 L-24.55 -13.5 -24.6 -13.75 -24.15 -14.2 Q-23.7 -14.3 -23.7 -13.9 -23.7 -13.35 -24.15 -13.35 M-23.6 -11.05 Q-23.6 -10.75 -23.95 -10.75 L-24.35 -10.8 -24.4 -11.05 Q-24.4 -11.5 -23.7 -11.35 L-23.6 -11.05 M-2.35 -22.45 Q-2.9 -22.45 -2.9 -22.9 -2.9 -23.3 -2.4 -23.35 -1.9 -23.35 -1.9 -22.9 -1.9 -22.45 -2.35 -22.45 M-4.35 -18.8 L-4.5 -18.5 -4.9 -18.25 Q-5.7 -18.25 -5.6 -18.85 -5.6 -19.45 -4.95 -19.4 -4.35 -19.35 -4.35 -18.8 M-5.45 -23.85 Q-5.45 -23.4 -5.9 -23.4 -6.7 -23.4 -6.5 -23.9 -6.5 -24.4 -5.95 -24.35 -5.45 -24.3 -5.45 -23.85 M-6.75 -21.75 Q-6.75 -21.3 -7.25 -21.3 -7.8 -21.3 -7.8 -21.95 -7.8 -22.6 -7.25 -22.45 -6.75 -22.35 -6.75 -21.75 M-7.15 -15.3 L-7.5 -15.65 Q-7.5 -16.0 -7.1 -16.0 -6.75 -16.0 -6.65 -15.7 L-7.15 -15.3 M-11.5 -23.9 L-11.55 -23.7 -11.85 -23.6 -12.05 -23.65 -12.15 -24.1 -11.6 -24.1 -11.5 -23.9 M-10.8 -20.6 Q-11.4 -20.6 -11.4 -21.15 -11.4 -21.65 -10.8 -21.65 -10.25 -21.65 -10.25 -21.15 -10.25 -20.6 -10.8 -20.6 M-19.25 -19.0 Q-18.9 -19.05 -18.9 -18.7 L-18.95 -18.4 -19.15 -18.35 -19.55 -18.4 -19.6 -18.65 -19.25 -19.0 M-11.8 -16.9 L-11.85 -16.7 -12.15 -16.55 -12.45 -16.9 Q-12.45 -17.35 -11.95 -17.25 L-11.8 -16.9 M-6.55 -11.75 L-6.8 -11.55 -7.0 -11.85 -6.6 -11.95 -6.55 -11.75" fill="#f2eaea" fill-rule="evenodd" stroke="none"/>
  </g>
</svg>