<?xml version="1.0" encoding="UTF-8" standalone="no"?>
<svg xmlns:xlink="http://www.w3.org/1999/xlink" height="33.9px" width="54.3px" xmlns="http://www.w3.org/2000/svg">
  <g transform="matrix(1.0, 0.0, 0.0, 1.0, 23.2, 26.95)">
    <path d="M15.2 -20.0 L14.95 -19.95 14.6 -20.0 14.55 -20.25 14.6 -20.55 15.25 -20.3 15.2 -20.0 M15.15 -17.7 L15.1 -17.5 Q15.05 -17.35 14.8 -17.35 L14.35 -17.65 14.5 -17.95 15.1 -18.0 15.15 -17.7 M11.95 -15.15 Q11.95 -15.6 12.55 -15.6 13.1 -15.6 13.1 -15.2 13.1 -14.65 12.45 -14.65 11.95 -14.65 11.95 -15.15 M13.9 -13.3 L14.25 -13.2 14.75 -13.85 Q14.45 -14.0 14.45 -14.45 14.45 -15.45 15.25 -15.65 16.0 -15.85 16.0 -14.8 16.0 -14.15 15.65 -13.9 L16.15 -13.45 16.05 -13.1 16.7 -12.4 Q16.7 -11.9 15.95 -11.9 L15.8 -11.9 16.7 -10.15 17.05 -10.25 Q17.6 -10.25 17.6 -9.75 L17.85 -9.3 17.55 -8.9 17.45 -8.85 17.75 -8.4 Q17.85 -8.75 18.2 -8.75 18.25 -9.35 18.85 -9.4 19.5 -9.4 19.5 -8.9 L19.3 -8.4 19.25 -8.35 19.55 -7.65 19.4 -7.25 19.5 -6.95 19.5 -6.85 19.7 -6.5 19.6 -6.2 20.85 -5.15 21.35 -5.3 Q21.95 -5.3 21.95 -4.7 L21.8 -4.25 22.1 -3.8 22.4 -4.25 Q22.8 -4.65 23.2 -3.95 L23.5 -2.9 23.55 -2.9 Q24.4 -2.85 24.4 -2.15 24.4 -1.55 23.65 -1.55 L23.45 -1.55 23.4 -1.4 23.75 -0.65 23.9 -0.7 23.95 -0.7 Q24.0 -1.2 24.6 -1.15 25.2 -1.1 25.2 -0.65 25.2 -0.1 24.5 -0.1 L24.5 -0.05 Q24.5 0.55 24.0 0.55 L23.7 0.95 23.9 1.5 23.65 1.85 22.95 2.05 Q22.5 2.05 22.35 1.65 L22.25 1.25 22.25 1.0 21.7 0.95 21.45 1.35 20.9 1.55 Q20.45 1.55 20.3 1.25 L20.2 0.9 20.25 0.65 20.05 0.6 18.95 0.65 18.95 0.9 18.95 0.95 19.15 1.45 19.0 1.7 18.55 1.9 Q17.8 1.9 17.65 1.45 L17.0 1.7 Q17.0 3.0 16.2 3.0 15.75 3.0 15.55 2.25 L15.3 2.3 14.8 2.1 Q14.4 2.05 14.3 1.85 L14.25 1.55 14.3 1.35 12.7 1.7 12.75 1.95 12.55 2.5 12.55 2.55 Q12.55 3.1 11.9 3.1 L11.65 3.05 11.3 2.9 11.2 2.9 Q10.35 2.9 10.05 2.5 L10.05 2.35 8.8 2.65 8.85 2.7 9.0 2.65 Q9.65 2.5 9.65 3.1 L9.4 3.65 8.9 4.0 8.35 3.7 8.3 3.5 8.0 3.55 Q7.55 3.55 7.45 3.3 L7.4 3.0 7.4 2.9 5.0 3.2 4.45 2.95 4.45 2.7 Q4.0 2.7 3.85 2.4 L3.8 2.05 Q3.8 1.55 4.5 1.5 L5.0 1.6 Q5.15 1.2 5.65 0.95 L6.0 0.85 6.65 -0.05 7.5 -1.2 7.4 -1.2 Q6.95 -1.2 6.8 -1.5 L6.75 -1.8 Q6.75 -3.1 7.75 -3.3 8.4 -3.45 8.6 -3.05 L8.75 -3.35 8.4 -3.6 8.35 -3.9 Q8.35 -4.45 8.9 -4.45 L9.2 -4.35 9.75 -6.0 9.55 -6.6 Q9.55 -7.35 10.3 -7.2 L10.9 -8.15 11.1 -8.4 Q10.75 -8.4 10.6 -8.7 L10.55 -9.0 Q10.55 -9.45 11.0 -9.5 L10.8 -10.1 10.8 -10.4 10.7 -10.7 10.8 -11.0 Q10.85 -12.6 11.95 -12.45 12.75 -12.35 13.0 -11.45 L13.35 -11.95 13.3 -12.4 13.3 -12.45 12.85 -12.75 12.85 -12.95 Q12.85 -13.45 13.4 -13.45 L13.85 -13.3 13.9 -13.3 M17.15 -18.15 L16.95 -18.2 16.85 -18.4 17.1 -18.65 17.4 -18.25 17.15 -18.15 M17.3 -14.9 L17.25 -14.7 17.0 -14.6 16.7 -14.85 16.75 -15.15 17.0 -15.2 17.3 -14.9 M8.45 -9.35 L8.1 -9.4 8.05 -9.65 8.1 -10.0 8.75 -9.75 8.45 -9.35 M8.55 -5.5 L8.25 -5.05 7.75 -4.85 Q7.3 -4.85 7.15 -5.15 L7.1 -5.45 Q7.1 -6.1 7.85 -6.0 8.55 -5.95 8.55 -5.5 M17.75 -11.5 Q17.15 -11.5 17.15 -12.0 17.15 -12.5 17.7 -12.5 18.25 -12.5 18.25 -11.95 18.25 -11.5 17.75 -11.5 M21.25 -8.7 Q21.25 -8.3 20.85 -8.3 20.6 -8.3 20.45 -8.6 L20.55 -8.9 21.15 -9.0 21.25 -8.7 M22.2 -5.8 L22.05 -6.15 Q22.05 -6.7 22.65 -6.5 L23.25 -5.95 Q23.25 -5.5 22.65 -5.5 L22.2 -5.8 M25.15 -2.0 L25.55 -1.65 25.25 -1.4 24.9 -1.7 25.15 -2.0 M27.95 -0.3 Q27.95 0.15 27.35 0.15 26.75 0.15 26.75 -0.3 26.75 -0.75 27.35 -0.75 27.85 -0.75 27.95 -0.3 M29.85 2.55 L29.65 2.5 29.6 2.35 30.0 2.15 30.1 2.4 29.85 2.55 M25.85 1.0 Q25.85 1.45 25.05 1.55 L24.45 1.3 24.4 1.0 Q24.4 0.5 25.1 0.5 25.5 0.5 25.7 0.75 L25.85 1.0 M26.8 1.65 L26.6 2.0 26.3 2.1 25.85 1.85 25.75 1.65 Q25.75 1.25 26.3 1.25 26.8 1.25 26.8 1.65 M20.6 2.95 Q20.2 2.95 20.1 2.55 L20.05 2.1 Q20.05 1.6 20.55 1.55 21.05 1.5 21.05 2.1 21.05 2.95 20.6 2.95 M18.9 4.55 Q18.4 4.55 18.4 4.05 18.4 3.7 18.85 3.7 19.3 3.7 19.3 4.1 19.3 4.55 18.9 4.55 M13.55 4.05 L13.25 4.2 Q12.8 4.2 12.8 3.7 12.8 3.3 13.25 3.3 13.7 3.3 13.7 3.75 L13.55 4.05 M5.2 0.55 Q4.7 0.55 4.55 0.25 L4.5 0.0 Q4.5 -0.55 5.25 -0.55 5.95 -0.55 5.95 0.0 5.95 0.55 5.2 0.55 M6.35 3.9 L6.2 4.25 5.8 4.5 Q5.35 4.5 5.25 4.25 L5.25 4.0 Q5.25 3.4 5.8 3.4 6.35 3.4 6.35 3.9 M9.7 5.6 L9.7 5.85 9.4 5.95 9.1 5.65 9.15 5.4 9.4 5.35 9.7 5.6 M0.9 5.75 L0.65 5.95 0.45 5.6 0.8 5.6 0.9 5.75 M3.4 3.25 Q4.0 3.1 4.0 3.7 4.0 4.45 3.65 4.6 L2.85 5.1 2.6 4.8 2.9 4.45 2.8 3.85 Q2.8 3.35 3.4 3.25 M-8.25 -24.8 Q-8.25 -24.45 -8.6 -24.35 L-9.0 -24.65 Q-9.0 -25.05 -8.6 -25.1 -8.25 -25.15 -8.25 -24.8 M-20.8 -16.55 Q-21.3 -16.55 -21.3 -17.05 -21.3 -17.45 -20.8 -17.45 -20.4 -17.45 -20.35 -17.1 L-18.95 -18.5 -19.0 -18.55 -19.1 -18.85 Q-19.1 -19.3 -18.65 -19.25 L-18.25 -19.05 -17.45 -19.6 -17.45 -19.85 Q-17.45 -20.3 -16.85 -20.3 L-16.8 -20.3 -16.85 -20.5 Q-16.85 -21.1 -16.3 -21.05 -15.8 -21.0 -15.75 -20.55 L-14.15 -21.35 -13.15 -22.15 Q-13.45 -22.25 -13.45 -22.65 -13.45 -23.45 -12.55 -23.4 -11.85 -23.4 -11.7 -23.05 L-11.4 -23.15 -11.45 -23.55 Q-11.45 -24.3 -10.65 -24.25 -9.9 -24.2 -9.9 -23.7 -9.9 -23.5 -10.3 -23.25 L-10.35 -23.2 Q-10.2 -23.0 -10.2 -22.6 L-10.2 -22.0 Q-9.75 -21.9 -9.75 -21.45 L-9.85 -21.05 -9.7 -21.05 -9.65 -20.7 -9.7 -20.45 -9.95 -20.4 -10.35 -20.45 -10.4 -20.7 -10.35 -20.8 -10.5 -21.0 -10.6 -20.85 -10.8 -19.95 Q-10.35 -19.95 -10.35 -19.5 L-10.55 -19.0 Q-10.8 -18.65 -11.05 -18.65 L-11.35 -18.65 -11.75 -17.9 Q-11.4 -17.95 -11.4 -17.5 -11.4 -16.4 -12.05 -16.4 -12.4 -16.4 -12.55 -16.55 L-13.0 -15.85 -12.75 -15.85 -12.7 -15.65 Q-12.7 -15.2 -13.15 -15.05 L-13.5 -15.15 -14.15 -14.3 -13.9 -14.35 Q-13.45 -14.35 -13.45 -13.8 -13.45 -13.35 -13.9 -13.35 -14.5 -13.35 -14.35 -13.85 L-14.3 -14.1 -14.7 -13.6 -16.1 -11.9 -15.9 -11.45 Q-15.9 -10.7 -16.7 -10.7 L-17.05 -10.75 -17.35 -10.4 -17.3 -10.0 Q-17.3 -9.5 -17.9 -9.5 L-18.0 -9.5 -18.55 -8.6 Q-17.85 -8.75 -17.85 -8.05 L-18.05 -7.5 Q-18.3 -7.05 -18.65 -7.05 -19.0 -7.05 -19.15 -7.2 -19.2 -6.65 -19.85 -6.65 L-19.9 -6.65 -20.8 -5.65 Q-21.4 -5.65 -21.25 -7.45 L-21.2 -8.2 -21.3 -8.2 Q-21.9 -8.2 -21.85 -9.2 -21.85 -9.9 -21.3 -9.95 L-20.95 -9.85 -20.8 -10.95 -20.9 -10.95 -21.35 -11.0 -21.35 -11.45 Q-22.05 -11.45 -22.2 -12.2 -22.2 -12.9 -21.45 -12.75 L-21.15 -12.65 -20.95 -12.8 -21.05 -13.15 -21.35 -14.35 Q-21.35 -15.5 -20.7 -16.55 L-20.8 -16.55 M-22.2 -13.8 Q-22.3 -14.5 -21.55 -14.1 L-21.5 -13.75 -21.55 -13.35 -21.85 -13.25 Q-22.3 -13.25 -22.2 -13.8 M-21.65 -6.7 Q-21.25 -6.7 -21.25 -6.2 -21.25 -5.55 -21.65 -5.55 -22.1 -5.55 -22.1 -6.2 -22.1 -6.7 -21.65 -6.7 M-21.0 -4.75 L-21.15 -4.4 Q-21.35 -4.1 -21.55 -4.1 L-21.9 -4.25 -21.95 -4.45 Q-21.95 -4.85 -21.15 -5.0 L-21.0 -4.75 M-7.8 -21.75 L-8.05 -21.55 -8.35 -21.85 -7.9 -22.05 -7.8 -21.75 M-9.1 -23.2 L-9.3 -23.1 Q-10.1 -23.1 -9.9 -23.6 -9.9 -24.05 -9.4 -24.0 -8.9 -23.95 -8.9 -23.55 L-9.1 -23.2 M-14.4 -21.95 L-14.65 -21.4 -15.15 -21.0 Q-15.7 -21.0 -15.7 -21.65 -15.7 -22.3 -15.05 -22.4 -14.4 -22.5 -14.4 -21.95 M-11.05 -14.85 L-11.1 -14.65 -11.4 -14.6 -11.75 -14.65 -11.8 -14.85 -11.75 -15.15 -11.1 -15.15 -11.05 -14.85 M-15.45 -10.9 Q-15.85 -10.9 -15.85 -11.3 -15.85 -11.75 -15.45 -11.75 -15.05 -11.7 -15.05 -11.3 -15.05 -11.2 -15.2 -11.05 -15.35 -10.9 -15.45 -10.9 M-16.6 -8.4 Q-16.75 -8.25 -16.9 -8.25 -17.3 -8.25 -17.3 -8.65 L-16.85 -9.1 Q-16.45 -9.05 -16.45 -8.65 L-16.6 -8.4" fill="#f2eaea" fill-rule="evenodd" stroke="none"/>
    <path d="M1.6 -24.85 L1.7 -24.85 Q2.2 -24.75 2.2 -24.4 L2.15 -24.15 3.15 -24.0 Q3.2 -24.5 3.85 -24.45 4.5 -24.4 4.95 -24.0 L5.0 -23.85 4.6 -23.65 Q5.5 -23.35 5.95 -22.8 L6.4 -22.85 Q7.0 -22.8 7.0 -22.25 7.0 -21.75 6.4 -21.75 L6.25 -21.75 5.5 -21.45 5.65 -20.9 5.6 -20.7 5.8 -20.75 Q6.3 -20.7 6.3 -20.3 L6.1 -19.95 5.8 -19.8 Q5.35 -19.8 5.3 -20.05 L5.3 -20.3 5.4 -20.6 4.95 -20.55 4.2 -20.25 3.45 -20.45 3.45 -20.5 3.1 -20.3 3.2 -20.2 3.45 -20.15 Q4.2 -20.0 4.2 -19.55 4.2 -19.1 3.75 -19.1 3.05 -19.1 2.85 -19.35 L2.1 -19.25 1.75 -19.3 1.2 -18.9 0.9 -18.95 0.8 -18.9 0.2 -18.45 0.4 -17.9 -0.75 -16.45 -1.5 -16.6 -1.5 -16.4 Q-1.5 -16.2 -1.95 -15.95 -2.4 -15.65 -2.9 -15.65 -3.55 -15.65 -3.55 -16.1 L-4.0 -15.9 -4.2 -15.7 -4.45 -15.4 Q-4.2 -15.35 -4.2 -14.85 -4.2 -14.6 -4.85 -14.0 L-5.5 -13.45 -5.75 -13.65 -5.85 -13.9 Q-5.85 -14.7 -5.0 -15.25 L-4.85 -15.3 Q-5.45 -15.4 -5.35 -16.0 -5.35 -16.65 -4.65 -16.8 L-4.25 -17.45 -4.3 -17.7 -4.8 -18.0 -4.8 -18.35 Q-4.8 -18.85 -4.25 -18.9 -3.8 -18.95 -3.7 -18.6 L-3.65 -18.6 -3.4 -19.25 -3.65 -19.25 Q-4.25 -19.25 -4.3 -19.9 -4.3 -20.35 -3.5 -20.65 L-3.55 -20.9 Q-3.55 -21.35 -3.1 -21.3 L-3.05 -21.5 -3.65 -21.3 Q-4.1 -21.3 -4.1 -21.75 -4.1 -22.2 -3.55 -22.15 -3.0 -22.1 -3.0 -21.7 L-2.75 -23.3 -2.7 -23.45 -3.1 -23.45 Q-3.65 -23.45 -3.65 -23.8 -3.65 -24.55 -2.75 -24.55 L-2.3 -24.5 -2.5 -25.25 Q-2.5 -26.15 -1.7 -25.9 -0.95 -25.65 -0.95 -24.7 -0.95 -24.3 -1.25 -24.15 L-0.4 -24.25 -0.4 -24.4 -0.35 -24.85 0.45 -25.1 0.9 -25.05 Q0.9 -25.45 1.2 -25.55 1.55 -25.65 1.95 -25.15 L1.6 -24.85 M8.8 -21.85 L8.45 -21.4 8.1 -21.2 Q7.45 -21.2 7.45 -21.7 7.45 -22.25 8.15 -22.25 8.8 -22.25 8.8 -21.85 M7.15 -21.1 Q8.15 -21.45 8.15 -20.75 8.15 -20.3 7.6 -20.3 L7.15 -20.4 7.1 -20.75 7.15 -21.1 M10.1 -20.3 L9.8 -20.0 9.5 -20.3 9.8 -20.6 10.1 -20.3 M1.65 -21.5 Q1.6 -20.95 2.2 -20.95 2.65 -20.95 2.65 -21.45 2.65 -21.9 2.15 -21.9 1.65 -21.9 1.65 -21.5 M1.0 -22.05 Q1.0 -22.6 0.45 -22.6 -0.1 -22.6 -0.1 -22.05 -0.15 -21.5 0.45 -21.5 1.0 -21.5 1.0 -22.05 M0.8 -23.15 L0.7 -23.35 0.2 -23.35 0.25 -22.95 0.5 -22.9 0.75 -23.0 0.8 -23.15 M1.7 -17.65 Q1.05 -17.65 1.05 -18.2 1.05 -18.85 1.7 -18.75 2.35 -18.65 2.35 -18.15 2.35 -17.65 1.7 -17.65 M14.5 -8.95 Q14.5 -9.3 14.9 -9.3 15.3 -9.35 15.3 -8.9 15.3 -8.5 14.9 -8.5 14.5 -8.5 14.5 -8.95 M14.4 -3.55 L14.55 -3.55 14.9 -3.55 Q15.55 -3.45 15.55 -2.95 15.55 -2.45 14.85 -2.45 L14.75 -2.45 14.3 -2.4 Q13.85 -2.4 13.65 -2.65 L13.1 -2.5 Q12.55 -2.5 12.45 -2.8 12.35 -2.9 12.4 -3.1 12.4 -3.65 13.1 -3.65 13.55 -3.7 13.7 -3.35 L14.4 -3.55 M14.9 -5.3 Q14.9 -5.85 15.45 -5.85 16.0 -5.85 16.0 -5.3 16.0 -4.75 15.45 -4.75 15.1 -4.75 14.95 -5.05 L14.9 -5.3 M12.15 -1.2 Q11.9 -1.2 11.8 -1.45 L11.75 -1.65 12.2 -2.0 12.65 -1.65 Q12.65 -1.2 12.15 -1.2 M14.1 -0.35 L13.85 0.2 13.35 0.4 Q12.85 0.4 12.75 0.15 L12.75 -0.1 Q12.75 -0.75 14.05 -0.65 L14.1 -0.35 M18.4 -4.3 L18.3 -4.5 Q18.3 -4.85 18.8 -4.9 19.3 -4.95 19.3 -4.5 19.3 -4.05 18.85 -4.05 18.55 -4.05 18.4 -4.3 M18.75 -2.5 Q18.75 -2.05 18.25 -2.05 17.6 -2.05 17.6 -2.55 17.6 -3.05 18.2 -3.05 18.75 -3.05 18.75 -2.5 M10.2 -0.15 L10.05 0.0 Q9.9 -0.05 9.9 -0.2 L10.2 -0.15 M21.25 -1.1 Q20.7 -1.1 20.7 -1.55 20.7 -2.15 21.2 -2.05 21.65 -2.0 21.65 -1.5 21.65 -1.1 21.25 -1.1 M-2.0 -24.05 L-2.0 -24.0 -1.5 -24.15 -2.05 -24.25 -2.0 -24.05 M-2.2 -19.65 Q-2.25 -19.1 -1.55 -19.1 -1.15 -19.1 -1.15 -19.65 -1.15 -20.15 -1.65 -20.15 -2.2 -20.15 -2.2 -19.65 M-0.1 -21.4 Q-0.6 -21.4 -0.6 -20.9 L-0.55 -20.6 -0.1 -20.45 0.35 -20.9 Q0.35 -21.4 -0.1 -21.4 M-0.75 -20.85 L-0.85 -21.15 Q-1.45 -21.3 -1.45 -20.8 L-1.4 -20.6 -1.0 -20.55 Q-0.75 -20.55 -0.75 -20.85 M-1.45 -22.55 L-1.4 -22.3 -1.0 -22.25 -0.8 -22.3 -0.75 -22.6 Q-0.75 -22.85 -1.4 -22.85 L-1.45 -22.55 M-5.45 -22.9 L-5.6 -22.65 -5.75 -22.55 Q-6.25 -22.55 -6.25 -22.9 -6.25 -23.65 -5.5 -23.25 L-5.45 -22.9 M-1.8 -16.85 L-1.85 -17.05 -2.1 -16.9 -1.8 -16.85 M-13.05 -19.65 L-13.25 -19.2 Q-13.45 -19.0 -13.65 -19.0 -13.2 -19.0 -13.2 -18.65 L-13.35 -18.4 Q-13.5 -18.25 -13.65 -18.25 L-14.1 -18.65 Q-14.1 -19.0 -13.65 -19.0 L-13.9 -19.05 -13.95 -19.2 -13.75 -19.5 -13.2 -19.9 -13.05 -19.65 M-15.45 -16.75 Q-15.45 -16.2 -16.0 -16.2 -16.6 -16.2 -16.55 -16.75 -16.55 -17.3 -16.0 -17.3 -15.45 -17.3 -15.45 -16.75 M-15.95 -18.55 Q-15.95 -18.95 -15.45 -18.95 -15.0 -18.95 -15.0 -18.5 -15.0 -18.05 -15.35 -18.05 -16.0 -18.05 -15.95 -18.55 M-17.35 -15.85 L-17.75 -15.7 Q-18.0 -15.7 -18.15 -15.85 L-18.2 -16.2 -17.75 -16.65 Q-17.3 -16.65 -17.3 -16.2 L-17.35 -15.85 M-18.9 -14.25 L-19.2 -14.05 Q-19.75 -14.05 -19.75 -14.5 -19.75 -14.95 -19.25 -14.95 -18.75 -14.95 -18.75 -14.55 L-18.9 -14.25 M-18.45 -14.95 Q-18.45 -15.55 -17.8 -15.55 L-17.3 -15.35 Q-17.25 -15.8 -16.7 -15.7 L-16.15 -15.25 Q-16.15 -15.0 -16.45 -14.85 L-16.8 -14.75 -17.2 -14.85 Q-17.3 -14.45 -17.75 -14.45 -18.4 -14.45 -18.45 -14.95 M-18.2 -12.4 L-18.45 -11.95 -19.0 -11.6 Q-19.7 -11.6 -19.7 -12.35 -19.7 -13.05 -18.95 -12.95 -18.2 -12.9 -18.2 -12.4 M-14.25 -16.5 Q-14.95 -16.5 -14.95 -17.0 -14.95 -17.5 -14.3 -17.5 -13.7 -17.5 -13.7 -16.95 -13.7 -16.5 -14.25 -16.5 M-5.95 -11.95 Q-6.05 -11.7 -6.3 -11.7 L-6.7 -11.85 -6.7 -12.35 Q-6.65 -12.7 -5.95 -12.6 L-5.9 -12.2 -5.95 -11.95" fill="#cca8a8" fill-rule="evenodd" stroke="none"/>
    <path d="M0.8 -23.15 L0.75 -23.0 0.5 -22.9 0.25 -22.95 0.2 -23.35 0.7 -23.35 0.8 -23.15 M1.0 -22.05 Q1.0 -21.5 0.45 -21.5 -0.15 -21.5 -0.1 -22.05 -0.1 -22.6 0.45 -22.6 1.0 -22.6 1.0 -22.05 M1.65 -21.5 Q1.65 -21.9 2.15 -21.9 2.65 -21.9 2.65 -21.45 2.65 -20.95 2.2 -20.95 1.6 -20.95 1.65 -21.5 M-1.45 -22.55 L-1.4 -22.85 Q-0.75 -22.85 -0.75 -22.6 L-0.8 -22.3 -1.0 -22.25 -1.4 -22.3 -1.45 -22.55 M-0.75 -20.85 Q-0.75 -20.55 -1.0 -20.55 L-1.4 -20.6 -1.45 -20.8 Q-1.45 -21.3 -0.85 -21.15 L-0.75 -20.85 M-0.1 -21.4 Q0.35 -21.4 0.35 -20.9 L-0.1 -20.45 -0.55 -20.6 -0.6 -20.9 Q-0.6 -21.4 -0.1 -21.4 M-2.2 -19.65 Q-2.2 -20.15 -1.65 -20.15 -1.15 -20.15 -1.15 -19.65 -1.15 -19.1 -1.55 -19.1 -2.25 -19.1 -2.2 -19.65" fill="#f2eaea" fill-rule="evenodd" stroke="none"/>
  </g>
</svg>