<?xml version="1.0" encoding="UTF-8" standalone="no"?>
<svg xmlns:xlink="http://www.w3.org/1999/xlink" height="35.55px" width="41.85px" xmlns="http://www.w3.org/2000/svg">
  <g transform="matrix(1.0, 0.0, 0.0, 1.0, 24.15, 27.45)">
    <path d="M5.4 -25.55 Q5.35 -24.95 4.75 -24.9 4.25 -24.9 4.25 -25.15 L4.25 -25.4 Q4.25 -26.0 4.85 -26.0 5.4 -26.05 5.4 -25.55 M10.3 -23.95 L10.6 -24.0 10.85 -23.65 10.55 -23.35 10.25 -23.65 10.3 -23.95 M-18.85 -8.0 L-20.2 -6.55 -20.95 -5.0 -20.95 -4.9 -20.6 -7.3 Q-20.75 -7.15 -21.05 -7.15 -21.85 -7.15 -21.75 -7.65 -21.75 -8.2 -21.05 -8.2 -20.6 -8.2 -20.5 -7.85 L-20.25 -8.75 Q-20.8 -8.75 -20.75 -9.3 -20.75 -9.85 -20.25 -9.85 L-19.95 -9.85 -19.9 -10.0 Q-20.15 -10.05 -20.15 -10.6 -20.15 -11.15 -19.6 -11.0 L-19.6 -11.1 -18.9 -13.25 -19.25 -13.4 -19.3 -13.6 -19.25 -13.75 Q-19.85 -13.8 -20.2 -14.15 L-20.35 -14.5 Q-20.35 -15.35 -19.4 -15.25 -18.55 -15.2 -18.55 -14.4 L-18.55 -14.3 -17.95 -15.7 -18.0 -15.7 Q-18.7 -15.7 -18.75 -16.15 -18.75 -16.75 -17.95 -16.8 L-17.4 -16.65 Q-16.6 -18.2 -15.55 -19.05 L-15.45 -19.1 -15.55 -19.45 Q-15.55 -19.95 -15.05 -20.0 L-14.55 -19.8 -13.65 -20.45 -13.65 -20.6 -13.7 -20.6 Q-14.4 -20.6 -14.4 -21.2 -14.4 -21.9 -13.75 -21.85 L-13.5 -21.8 Q-13.5 -22.2 -12.9 -22.25 -12.35 -22.3 -12.35 -21.85 -12.35 -21.4 -12.9 -21.4 L-13.15 -21.4 -13.15 -21.2 -12.95 -21.15 -12.9 -20.9 -11.25 -21.6 -10.95 -21.7 -9.9 -22.15 -9.95 -22.55 Q-9.95 -23.1 -9.5 -23.2 L-9.65 -23.3 -9.9 -23.15 -10.4 -23.5 -10.5 -23.8 Q-10.5 -24.5 -9.85 -24.35 L-9.25 -24.05 Q-8.85 -24.0 -8.85 -23.55 L-9.0 -23.35 -9.1 -23.25 Q-8.55 -23.25 -8.55 -22.6 L-8.55 -22.55 -6.9 -22.9 -7.05 -23.05 -7.4 -23.75 Q-7.35 -24.85 -6.1 -24.4 -4.95 -23.95 -4.95 -23.45 L-4.95 -23.15 -3.3 -23.35 -0.35 -23.3 Q-1.0 -23.55 -0.75 -24.2 -0.7 -25.1 0.6 -25.15 1.95 -25.15 1.95 -24.15 L1.95 -23.85 2.25 -24.0 Q3.0 -24.25 3.0 -23.3 L2.9 -23.0 7.05 -22.2 7.0 -22.5 Q5.65 -22.5 5.7 -23.1 5.7 -23.6 6.45 -23.6 6.55 -24.2 7.25 -24.1 8.05 -24.1 8.05 -23.55 L8.2 -23.55 Q9.25 -23.25 9.2 -22.55 L9.05 -21.7 8.85 -21.3 9.3 -20.9 9.3 -20.95 Q9.35 -22.15 10.15 -22.05 10.9 -21.9 10.85 -20.55 L10.7 -20.05 Q11.8 -19.55 11.75 -18.95 L11.75 -18.75 12.35 -18.05 12.4 -17.95 Q12.6 -18.2 13.05 -18.35 13.9 -18.85 13.85 -17.7 L13.55 -17.0 13.55 -16.95 13.6 -16.9 13.9 -16.6 14.05 -16.4 14.45 -16.4 Q15.2 -15.9 15.1 -14.25 L15.0 -13.65 14.65 -13.55 Q14.1 -13.5 13.95 -13.75 L13.85 -13.5 13.95 -13.5 14.45 -13.2 14.8 -12.75 14.7 -12.5 14.7 -12.25 15.15 -12.4 Q15.55 -12.5 15.7 -12.2 15.8 -12.45 16.15 -12.4 16.75 -12.4 16.7 -12.0 L16.15 -11.5 Q15.75 -11.5 15.65 -11.7 L15.35 -11.4 14.95 -11.2 Q14.55 -11.2 14.5 -11.4 L14.1 -11.25 Q13.65 -11.25 13.25 -11.85 L13.15 -12.15 12.75 -11.1 13.45 -11.25 Q14.1 -11.3 14.15 -10.6 14.1 -10.05 13.7 -9.85 L13.7 -9.4 13.85 -8.95 13.55 -8.5 Q13.3 -8.05 12.75 -8.05 L12.35 -8.15 11.95 -7.65 11.85 -7.3 12.0 -7.15 12.45 -7.15 12.55 -6.9 12.35 -6.5 11.9 -6.1 11.7 -6.1 11.7 -5.65 Q11.6 -4.1 10.2 -4.0 L9.95 -3.7 9.05 -3.05 Q8.7 -3.05 8.6 -3.3 L8.55 -3.5 8.45 -3.35 8.05 -3.1 Q7.95 -3.1 7.7 -3.25 L7.7 -3.3 Q5.9 -1.1 5.55 -1.05 5.35 -1.05 5.25 -1.3 L5.25 -1.35 3.95 -0.25 1.5 1.9 1.5 1.95 Q1.45 2.45 0.95 2.45 L0.85 2.45 0.1 3.05 Q0.6 2.95 0.6 3.45 L0.45 4.0 -0.05 4.3 Q-0.75 4.25 -0.6 3.65 -4.45 6.55 -5.8 6.6 -6.35 6.6 -6.35 6.2 L-3.6 4.35 -3.6 4.2 Q-3.6 3.7 -3.1 3.7 L-2.85 3.75 -1.9 3.1 1.45 0.55 1.35 0.55 1.2 0.3 1.5 0.2 1.95 0.1 2.4 -0.25 Q2.25 -0.6 2.55 -0.95 L2.2 -0.9 1.75 -1.15 1.8 -1.35 2.05 -1.9 2.75 -2.1 3.0 -2.1 3.05 -1.75 2.95 -1.5 4.65 -2.6 Q4.85 -2.65 5.15 -2.85 L5.1 -3.0 Q5.1 -3.75 5.95 -3.75 L6.25 -3.7 8.1 -5.7 8.15 -5.75 8.6 -6.25 Q8.1 -6.25 8.0 -6.6 L7.9 -7.0 Q7.9 -7.35 8.2 -7.5 L8.7 -7.65 8.8 -7.65 Q9.25 -7.65 9.35 -7.2 L10.55 -9.0 Q10.05 -9.0 9.9 -9.35 L9.8 -9.65 9.85 -9.8 9.6 -10.0 9.6 -10.2 9.6 -10.25 9.65 -10.35 9.7 -10.4 10.0 -10.65 10.2 -10.7 Q10.65 -10.65 10.7 -10.3 L11.15 -10.2 11.35 -10.55 11.45 -10.8 11.6 -11.2 11.2 -11.2 Q10.35 -11.2 10.4 -11.9 10.4 -12.65 11.35 -12.65 L11.55 -12.65 11.5 -12.75 11.6 -13.0 11.85 -13.05 12.1 -13.1 12.15 -13.75 Q12.25 -15.35 11.5 -16.7 L11.45 -16.45 11.45 -16.3 11.45 -16.25 11.8 -14.45 11.65 -14.0 11.25 -13.9 10.7 -14.0 10.6 -13.95 Q11.0 -13.9 10.95 -13.25 10.9 -12.55 10.5 -12.5 9.9 -12.5 9.95 -13.25 9.95 -13.75 10.3 -13.9 L10.25 -13.9 Q9.85 -13.9 9.8 -14.2 9.7 -14.35 9.75 -14.45 9.75 -14.8 10.05 -14.9 L10.0 -15.35 10.1 -15.8 10.2 -16.1 10.25 -16.1 10.3 -16.25 10.25 -16.45 Q10.15 -16.7 10.2 -16.9 10.25 -17.95 10.65 -17.95 L10.35 -18.35 9.95 -18.6 9.95 -18.55 9.55 -18.35 Q9.05 -18.35 8.8 -18.85 L8.6 -19.3 8.8 -19.7 8.55 -19.9 7.75 -20.3 7.85 -19.9 7.85 -19.85 7.75 -19.55 8.0 -19.6 Q8.6 -19.65 8.6 -19.15 8.55 -18.65 8.0 -18.65 7.5 -18.65 7.35 -18.9 L7.35 -18.95 7.05 -18.7 6.7 -19.1 6.75 -19.25 5.7 -19.35 5.15 -19.75 5.05 -20.0 Q5.1 -20.55 5.75 -20.65 5.75 -21.0 6.15 -21.0 L5.0 -21.35 4.4 -20.75 3.45 -20.6 Q1.4 -20.5 1.55 -21.25 1.55 -21.6 2.3 -21.8 L1.6 -21.9 1.6 -21.7 Q1.55 -21.05 0.15 -20.9 L-0.1 -20.85 Q-0.9 -20.85 -0.75 -21.55 L-0.75 -21.65 -0.6 -21.85 -0.55 -22.0 -2.45 -21.9 -4.25 -21.75 -4.25 -21.6 -4.25 -21.55 Q-4.3 -21.35 -4.9 -20.65 L-5.55 -20.0 -6.15 -20.2 -6.6 -20.4 -6.8 -20.25 -7.1 -20.15 Q-7.7 -20.1 -7.7 -20.8 L-7.7 -21.05 -7.7 -21.15 -7.85 -21.15 -7.85 -21.1 -8.0 -20.7 -8.45 -20.05 -8.8 -19.65 Q-8.35 -19.75 -8.35 -19.15 L-8.45 -18.55 -8.85 -18.15 Q-9.5 -18.15 -9.65 -18.9 L-9.55 -19.25 -9.85 -19.2 -10.25 -18.55 -11.2 -17.75 Q-11.95 -17.75 -11.9 -18.4 L-12.3 -18.3 -12.45 -18.3 -12.7 -18.25 -13.25 -18.1 -13.6 -17.95 -13.65 -17.85 -13.95 -17.65 -14.15 -17.65 -14.5 -17.4 -14.85 -17.05 -14.85 -17.0 -15.0 -16.85 -15.15 -16.65 -15.1 -16.5 -15.05 -16.15 -15.25 -15.6 -15.55 -15.15 -15.55 -15.1 Q-15.6 -14.75 -15.85 -14.7 L-16.15 -15.05 -16.15 -15.1 -16.55 -14.5 -16.4 -14.45 -16.15 -14.35 -15.85 -14.4 -15.55 -14.4 -15.4 -14.15 -15.4 -14.0 -15.45 -13.75 -15.4 -13.45 -15.55 -12.9 -16.0 -12.55 Q-16.55 -12.55 -17.05 -13.3 L-17.1 -13.25 -17.55 -11.8 Q-16.9 -12.05 -16.9 -11.25 L-16.9 -11.2 -16.6 -11.2 -16.55 -11.05 -16.55 -10.65 -16.6 -10.5 -16.25 -10.55 -15.75 -10.3 -16.75 -9.65 -16.9 -10.0 -16.9 -10.05 -16.75 -10.35 -17.0 -10.3 -17.25 -10.35 -17.25 -10.4 -17.25 -10.6 -17.3 -10.55 -17.5 -10.3 -17.75 -10.1 Q-17.9 -10.0 -17.95 -10.0 L-18.0 -10.0 -18.25 -10.0 -18.8 -8.3 Q-18.7 -8.65 -18.2 -8.7 L-18.15 -8.7 -17.85 -8.65 -17.75 -8.6 -18.55 -8.3 -18.85 -8.05 -18.85 -8.15 -18.85 -8.0 M4.5 -4.05 L4.35 -4.05 4.0 -4.1 3.85 -4.35 3.85 -4.55 Q3.85 -5.1 4.45 -5.0 L4.5 -5.0 4.75 -4.95 5.0 -4.75 5.0 -4.55 Q5.0 -4.1 4.5 -4.05 M8.5 -8.55 L8.25 -8.5 8.1 -8.5 7.9 -8.45 Q7.3 -8.5 7.35 -8.9 7.35 -9.3 7.85 -9.3 L8.0 -9.3 8.05 -9.4 Q8.15 -9.55 8.35 -9.5 8.75 -9.55 8.75 -8.9 L8.65 -8.7 8.5 -8.55 M7.95 -10.7 L7.85 -10.7 7.8 -10.85 7.85 -11.0 8.0 -11.1 8.3 -11.1 8.4 -10.9 8.05 -10.7 7.95 -10.7 M-10.2 -16.65 L-10.2 -16.55 Q-10.2 -16.15 -10.5 -16.0 L-10.6 -16.0 -10.65 -16.0 Q-10.9 -15.95 -11.0 -16.15 L-11.1 -16.4 Q-11.1 -16.9 -10.65 -16.95 L-10.6 -16.95 -10.2 -16.65 M-13.95 -13.85 L-13.9 -14.1 -13.45 -14.1 -13.35 -13.85 -13.4 -13.65 -13.65 -13.55 -13.8 -13.7 -13.95 -13.85 M11.8 -20.4 L11.75 -20.65 Q11.8 -21.3 12.35 -21.35 12.9 -21.35 12.9 -20.7 12.85 -20.2 12.3 -20.15 11.9 -20.15 11.8 -20.4 M-1.05 -21.75 Q-0.8 -21.65 -0.8 -21.2 -0.85 -20.85 -1.3 -20.55 L-2.2 -20.2 Q-3.1 -20.2 -3.1 -20.8 L-2.6 -21.3 -1.9 -21.6 -1.05 -21.75 M16.05 -15.25 L15.75 -15.6 Q15.75 -15.95 16.1 -16.0 16.5 -16.1 16.5 -15.65 L16.05 -15.25 M15.4 -16.75 Q14.3 -16.75 14.4 -17.55 14.4 -18.3 15.25 -18.2 15.9 -18.1 15.9 -17.45 15.85 -16.8 15.4 -16.75 M6.8 -20.7 L6.6 -20.8 6.6 -20.75 6.8 -20.7 M4.15 -23.9 Q4.15 -24.55 4.8 -24.45 5.4 -24.5 5.35 -23.95 5.3 -23.4 4.7 -23.3 4.3 -23.3 4.15 -23.65 L4.15 -23.9 M1.55 -23.15 L1.6 -23.45 0.85 -23.25 1.55 -23.15 M0.2 -18.85 Q-0.45 -18.85 -0.4 -19.3 -0.4 -19.8 0.2 -19.75 0.65 -19.8 0.65 -19.35 0.6 -18.95 0.2 -18.85 M3.9 -19.4 L3.5 -18.95 3.05 -19.05 3.0 -19.3 Q3.0 -19.8 3.5 -19.8 3.9 -19.8 3.9 -19.4 M9.0 -16.8 Q9.05 -17.25 9.65 -17.35 10.15 -17.45 10.15 -17.0 10.1 -16.55 9.5 -16.45 9.0 -16.45 9.0 -16.8 M6.95 -16.95 L7.0 -16.65 6.9 -16.35 6.65 -16.3 Q6.2 -16.3 6.25 -16.6 6.25 -17.2 6.95 -16.95 M5.4 -14.15 Q5.4 -14.65 6.1 -14.4 L6.1 -14.15 6.05 -13.85 5.7 -13.7 Q5.4 -13.7 5.4 -14.15 M9.75 -14.65 Q9.75 -14.3 9.3 -14.25 L8.95 -14.45 8.9 -14.6 Q8.9 -15.0 9.35 -15.0 9.75 -15.1 9.75 -14.65 M5.75 -6.35 L5.4 -6.1 Q4.95 -6.1 4.95 -6.6 4.95 -7.05 5.5 -7.1 6.0 -7.1 6.0 -6.8 L5.75 -6.35 M0.45 -2.2 L0.55 -1.75 0.5 -1.45 0.2 -1.3 -0.25 -1.4 -0.45 -1.95 Q-0.45 -2.5 0.15 -2.4 L0.45 -2.2 M9.75 -5.5 L10.2 -6.45 10.35 -6.6 10.25 -6.8 9.4 -5.65 9.75 -5.5 M8.6 -4.0 L8.65 -3.8 8.75 -4.0 8.7 -4.0 8.6 -4.0 M7.15 -0.75 Q7.8 -0.8 7.8 -0.45 7.8 0.0 7.1 0.1 6.6 0.1 6.5 -0.15 L6.5 -0.35 Q6.5 -0.75 7.15 -0.75 M7.95 -1.8 L7.9 -2.0 Q7.9 -2.5 8.45 -2.4 L8.9 -1.95 Q8.9 -1.5 8.4 -1.5 8.0 -1.5 7.95 -1.8 M11.95 -1.5 Q11.9 -1.0 11.5 -0.95 L11.0 -1.35 10.95 -1.55 Q11.0 -2.4 11.5 -2.2 L11.95 -1.5 M8.25 0.0 Q8.3 -0.5 8.7 -0.5 9.05 -0.5 9.05 0.0 L9.0 0.3 8.65 0.4 Q8.4 0.4 8.3 0.15 L8.25 0.0 M4.15 2.15 Q3.7 2.1 3.65 1.9 L3.65 1.65 Q3.65 1.15 4.3 1.1 4.95 1.0 4.95 1.55 L4.75 1.9 4.15 2.15 M-7.0 -25.3 Q-7.0 -26.0 -6.35 -25.9 -5.65 -25.95 -5.65 -25.45 -5.7 -24.95 -6.35 -24.85 -7.0 -24.8 -7.0 -25.3 M-0.85 -26.45 Q-0.25 -26.45 -0.25 -26.0 -0.3 -25.5 -0.95 -25.45 -1.5 -25.45 -1.5 -25.9 -1.5 -26.4 -0.85 -26.45 M-21.35 -12.3 Q-20.95 -12.35 -20.9 -11.95 L-21.05 -11.65 Q-21.2 -11.5 -21.3 -11.5 -21.85 -11.5 -21.85 -11.95 L-21.35 -12.3 M-21.45 -3.6 L-21.7 -2.85 -21.8 -3.2 Q-21.85 -3.6 -21.45 -3.6 M-22.7 -4.95 Q-23.15 -4.95 -23.15 -5.4 L-22.7 -5.85 Q-22.3 -5.9 -22.3 -5.4 -22.3 -5.0 -22.7 -4.95 M-3.85 -24.15 Q-3.85 -24.8 -3.25 -24.85 -2.7 -24.85 -2.7 -24.2 -2.75 -23.7 -3.3 -23.65 -3.95 -23.65 -3.85 -24.15 M-4.0 -19.7 Q-4.05 -19.0 -4.6 -18.95 -5.2 -18.95 -5.1 -19.6 -5.1 -20.1 -4.55 -20.2 -4.0 -20.35 -4.0 -19.7 M-6.95 -19.3 L-6.95 -19.25 Q-7.0 -18.7 -7.5 -18.7 -8.05 -18.7 -8.0 -19.2 -8.0 -19.75 -7.45 -19.75 -6.95 -19.7 -6.95 -19.3 M-5.4 -21.5 L-4.95 -21.7 -5.65 -21.55 -5.4 -21.5 M-5.6 -16.2 L-5.5 -16.35 -5.25 -16.35 -5.2 -16.15 -5.4 -16.0 -5.6 -16.0 -5.6 -16.2 M-12.0 -24.4 Q-11.65 -24.45 -11.65 -24.0 L-11.8 -23.75 -12.05 -23.55 Q-12.65 -23.55 -12.45 -24.0 -12.45 -24.4 -12.0 -24.4 M-11.0 -19.8 L-10.85 -19.9 -10.8 -20.0 -11.35 -19.75 -11.0 -19.8 M-16.15 -19.7 Q-15.6 -19.7 -15.6 -19.25 -15.65 -18.8 -16.2 -18.75 -16.8 -18.75 -16.75 -19.2 -16.75 -19.7 -16.15 -19.7 M-17.05 -20.45 Q-17.05 -19.8 -17.55 -19.75 -18.35 -19.7 -18.25 -20.4 -18.25 -21.05 -17.6 -21.05 -17.05 -21.05 -17.05 -20.45 M-18.7 -17.2 L-19.05 -17.4 -19.0 -17.8 -18.35 -17.8 -18.3 -17.55 -18.3 -17.4 Q-18.4 -17.25 -18.7 -17.2 M-14.75 -16.45 Q-14.75 -17.5 -13.95 -17.6 -13.7 -17.4 -13.7 -17.05 L-13.9 -16.35 Q-14.1 -15.7 -14.35 -15.7 -14.75 -15.7 -14.75 -16.45 M-13.5 -16.85 Q-13.5 -17.4 -12.95 -17.45 -12.4 -17.45 -12.4 -16.95 -12.4 -16.45 -13.0 -16.4 -13.65 -16.35 -13.5 -16.85 M-5.55 4.9 L-5.65 5.15 Q-5.8 5.35 -6.05 5.35 -6.7 5.4 -6.95 5.0 L-7.05 4.6 Q-7.05 4.05 -6.25 4.25 -5.55 4.5 -5.55 4.9 M-4.1 6.45 Q-4.1 6.85 -4.75 7.1 L-5.05 6.75 -4.85 6.45 -4.2 6.25 -4.1 6.45" fill="#f2eaea" fill-rule="evenodd" stroke="none"/>
    <path d="M1.95 0.1 L2.2 -0.9 2.55 -0.95 Q2.25 -0.6 2.4 -0.25 L1.95 0.1 M2.75 -2.1 L2.8 -2.35 4.3 -3.7 4.5 -4.05 Q5.0 -4.1 5.0 -4.55 L5.0 -4.75 6.45 -5.05 6.3 -6.35 Q6.35 -7.2 7.6 -7.45 L8.2 -7.5 Q7.9 -7.35 7.9 -7.0 L8.0 -6.6 Q8.1 -6.25 8.6 -6.25 L8.15 -5.75 8.1 -5.75 8.1 -5.7 6.25 -3.7 5.95 -3.75 Q5.1 -3.75 5.1 -3.0 L5.15 -2.85 Q4.85 -2.65 4.65 -2.6 L2.95 -1.5 3.05 -1.75 3.0 -2.1 2.75 -2.1 M4.0 -4.1 L3.6 -4.05 Q3.05 -4.05 2.95 -4.35 2.85 -4.5 2.9 -4.65 2.9 -4.9 3.45 -5.2 3.9 -5.6 4.4 -5.6 L4.8 -5.55 4.85 -5.4 4.75 -4.95 4.5 -5.0 4.45 -5.0 Q3.85 -5.1 3.85 -4.55 L3.85 -4.35 4.0 -4.1 M8.8 -7.65 L9.35 -7.95 8.5 -8.55 8.65 -8.7 8.75 -8.9 Q8.75 -9.55 8.35 -9.5 8.15 -9.55 8.05 -9.4 8.1 -9.8 8.6 -9.95 L9.65 -10.35 9.6 -10.25 9.6 -10.2 9.6 -10.0 9.85 -9.8 9.8 -9.65 9.9 -9.35 Q10.05 -9.0 10.55 -9.0 L9.35 -7.2 Q9.25 -7.65 8.8 -7.65 M10.0 -10.65 L10.15 -10.75 10.1 -10.9 8.7 -10.3 Q8.05 -10.3 7.95 -10.7 L8.05 -10.7 8.4 -10.9 8.3 -11.1 8.0 -11.1 7.85 -11.0 7.85 -11.15 8.05 -11.85 9.15 -12.65 9.3 -13.35 9.6 -14.05 Q6.35 -13.45 6.4 -15.0 6.45 -15.8 7.8 -16.5 7.25 -16.75 7.1 -17.65 6.85 -18.55 5.65 -18.9 L4.8 -18.85 Q4.65 -18.25 4.0 -17.75 3.3 -17.15 2.2 -17.05 1.2 -17.05 1.2 -17.9 L1.45 -19.1 0.0 -18.1 Q-1.05 -17.55 -1.7 -17.55 L-2.7 -17.75 -2.85 -18.15 -2.95 -18.2 -3.7 -17.9 Q-4.6 -17.85 -4.55 -18.8 L-4.6 -18.85 -6.7 -18.7 Q-6.75 -17.8 -7.0 -17.6 -7.75 -17.05 -10.2 -16.65 L-10.6 -16.95 -10.65 -16.95 Q-11.1 -16.9 -11.1 -16.4 L-11.0 -16.15 Q-10.9 -15.95 -10.65 -16.0 L-10.6 -16.0 -10.5 -16.0 Q-10.55 -15.75 -11.35 -15.05 -12.15 -14.4 -12.6 -14.4 -13.65 -14.3 -14.15 -14.85 -15.1 -14.8 -15.55 -14.4 L-15.85 -14.4 -16.15 -14.35 -16.4 -14.45 -16.55 -14.5 -16.15 -15.1 -16.15 -15.05 -15.85 -14.7 Q-15.6 -14.75 -15.55 -15.1 L-15.55 -15.15 -15.25 -15.6 -15.05 -16.15 -15.1 -16.5 -15.0 -16.55 -14.85 -17.0 -14.85 -17.05 -14.5 -17.4 -14.15 -17.65 -13.95 -17.65 -13.65 -17.85 -13.6 -17.95 -13.15 -18.1 -12.75 -18.2 -12.7 -18.25 -12.45 -18.3 -12.3 -18.3 -11.9 -18.4 Q-11.95 -17.75 -11.2 -17.75 L-10.25 -18.55 -9.85 -19.2 -9.55 -19.25 -9.65 -18.9 Q-9.5 -18.15 -8.85 -18.15 L-8.45 -18.55 -8.35 -19.15 Q-8.35 -19.75 -8.8 -19.65 L-8.45 -20.05 -8.0 -20.7 -7.7 -20.8 Q-7.7 -20.1 -7.1 -20.15 L-6.8 -20.25 -6.6 -20.4 -6.15 -20.2 -5.55 -20.0 -4.9 -20.65 Q-4.3 -21.35 -4.25 -21.55 L-4.25 -21.6 -3.75 -21.7 Q-3.0 -21.75 -2.6 -21.3 L-3.1 -20.8 Q-3.1 -20.2 -2.2 -20.2 L-1.3 -20.55 Q-0.85 -20.85 -0.8 -21.2 -0.8 -21.65 -1.05 -21.75 L-0.6 -21.85 -0.75 -21.65 -0.75 -21.55 Q-0.9 -20.85 -0.1 -20.85 L0.15 -20.9 0.25 -20.9 0.2 -20.35 1.45 -21.2 1.55 -21.25 Q1.4 -20.5 3.45 -20.6 L4.4 -20.75 4.5 -20.65 5.75 -20.65 Q5.1 -20.55 5.05 -20.0 L5.15 -19.75 5.7 -19.35 6.75 -19.25 6.7 -19.1 7.05 -18.7 7.35 -18.95 7.35 -18.9 Q7.5 -18.65 8.0 -18.65 8.55 -18.65 8.6 -19.15 8.6 -19.65 8.0 -19.6 L7.75 -19.55 7.85 -19.85 8.0 -19.75 8.55 -19.9 8.8 -19.7 8.6 -19.3 8.8 -18.85 Q9.05 -18.35 9.55 -18.35 L9.95 -18.55 9.95 -18.6 10.35 -18.35 10.65 -17.95 Q10.25 -17.95 10.2 -16.9 10.15 -16.7 10.25 -16.45 L10.3 -16.25 10.25 -16.1 10.2 -16.1 9.85 -15.9 9.75 -15.75 10.1 -15.8 10.0 -15.35 10.05 -14.9 Q9.75 -14.8 9.75 -14.45 9.7 -14.35 9.8 -14.2 9.85 -13.9 10.25 -13.9 L10.3 -13.9 Q9.95 -13.75 9.95 -13.25 9.9 -12.5 10.5 -12.5 10.9 -12.55 10.95 -13.25 11.0 -13.9 10.6 -13.95 L10.7 -14.0 11.25 -13.9 11.65 -14.0 11.85 -13.15 11.85 -13.05 11.6 -13.0 11.5 -12.75 11.55 -12.65 11.35 -12.65 Q10.4 -12.65 10.4 -11.9 10.35 -11.2 11.2 -11.2 L11.6 -11.2 11.45 -10.8 11.35 -10.55 11.15 -10.2 10.7 -10.3 Q10.65 -10.65 10.2 -10.7 L10.0 -10.65 M-15.4 -14.15 L-14.1 -13.95 -13.95 -13.85 -13.8 -13.7 -13.75 -13.45 -14.05 -12.85 Q-14.4 -12.4 -15.05 -12.55 L-15.25 -12.45 Q-14.9 -12.25 -14.9 -11.85 -14.9 -11.25 -15.8 -10.9 L-16.55 -10.65 -16.55 -11.05 -16.6 -11.2 -16.9 -11.2 -16.9 -11.25 Q-16.9 -12.05 -17.55 -11.8 L-17.1 -13.25 -17.05 -13.3 Q-16.55 -12.55 -16.0 -12.55 L-15.55 -12.9 -15.4 -13.45 -15.45 -13.75 -15.4 -14.0 -15.4 -14.15 M-16.75 -9.65 L-17.6 -8.65 -17.75 -8.6 -17.85 -8.65 -18.15 -8.7 -18.2 -8.7 Q-18.7 -8.65 -18.8 -8.3 L-18.25 -10.0 -18.0 -10.0 -17.95 -10.0 Q-17.9 -10.0 -17.75 -10.1 L-16.9 -10.0 -16.75 -9.65 M-18.85 -8.05 L-18.85 -8.0 -18.85 -8.15 -18.85 -8.05 M3.9 -19.4 Q3.9 -19.8 3.5 -19.8 3.0 -19.8 3.0 -19.3 L3.05 -19.05 3.5 -18.95 3.9 -19.4 M0.2 -18.85 Q0.6 -18.95 0.65 -19.35 0.65 -19.8 0.2 -19.75 -0.4 -19.8 -0.4 -19.3 -0.45 -18.85 0.2 -18.85 M4.8 -15.45 L4.65 -15.1 4.3 -14.95 Q3.55 -14.95 3.6 -15.5 3.6 -15.9 4.2 -15.95 4.8 -16.0 4.8 -15.45 M9.0 -16.8 Q9.0 -16.45 9.5 -16.45 10.1 -16.55 10.15 -17.0 10.15 -17.45 9.65 -17.35 9.05 -17.25 9.0 -16.8 M7.1 -13.1 Q7.0 -12.3 6.4 -12.3 6.0 -12.3 5.9 -12.55 L5.8 -12.75 Q7.15 -14.2 7.1 -13.1 M9.75 -14.65 Q9.75 -15.1 9.35 -15.0 8.9 -15.0 8.9 -14.6 L8.95 -14.45 9.3 -14.25 Q9.75 -14.3 9.75 -14.65 M7.0 -11.1 Q7.6 -11.15 7.55 -10.45 7.55 -9.95 6.95 -9.85 6.45 -9.85 6.35 -10.15 L6.3 -10.45 Q6.3 -11.1 7.0 -11.1 M7.2 -8.35 L7.0 -7.85 6.55 -7.35 Q6.15 -7.35 6.05 -7.7 L6.05 -8.15 Q6.05 -8.6 6.7 -8.75 7.2 -8.9 7.2 -8.35 M0.45 -2.2 L0.6 -2.4 Q1.55 -3.0 1.5 -2.25 L1.15 -1.3 0.3 -0.45 Q-0.45 -0.45 -0.35 -1.25 L-0.25 -1.4 0.2 -1.3 0.5 -1.45 0.55 -1.75 0.45 -2.2 M-4.0 -19.7 Q-4.0 -20.35 -4.55 -20.2 -5.1 -20.1 -5.1 -19.6 -5.2 -18.95 -4.6 -18.95 -4.05 -19.0 -4.0 -19.7 M-6.95 -19.3 Q-6.95 -19.7 -7.45 -19.75 -8.0 -19.75 -8.0 -19.2 -8.05 -18.7 -7.5 -18.7 -7.0 -18.7 -6.95 -19.25 L-6.95 -19.3 M-7.35 -14.05 L-7.4 -14.15 Q-7.4 -14.45 -6.6 -14.45 L-6.5 -14.2 -6.55 -13.95 -6.85 -13.85 -7.35 -14.05 M-0.85 -15.45 Q-1.55 -15.45 -1.45 -15.9 -1.45 -16.4 -0.85 -16.35 -0.2 -16.35 -0.2 -15.95 -0.25 -15.5 -0.85 -15.45 M-14.75 -16.45 Q-14.75 -15.7 -14.35 -15.7 -14.1 -15.7 -13.9 -16.35 L-13.7 -17.05 Q-13.7 -17.4 -13.95 -17.6 -14.75 -17.5 -14.75 -16.45 M-13.5 -16.85 Q-13.65 -16.35 -13.0 -16.4 -12.4 -16.45 -12.4 -16.95 -12.4 -17.45 -12.95 -17.45 -13.5 -17.4 -13.5 -16.85 M-11.05 -13.5 Q-10.6 -13.55 -10.6 -13.1 L-10.75 -12.85 Q-10.95 -12.6 -11.1 -12.6 -11.5 -12.6 -11.5 -13.1 -11.5 -13.55 -11.05 -13.5 M-12.5 -11.0 L-12.45 -11.3 -12.2 -11.4 -11.9 -11.1 -11.95 -10.9 -12.2 -10.75 -12.5 -11.0 M-17.25 -10.4 L-17.5 -10.3 -17.3 -10.55 -17.25 -10.6 -17.25 -10.4 M-3.5 1.95 Q-3.5 1.45 -2.95 1.4 -2.45 1.35 -2.5 1.9 -2.5 2.4 -2.95 2.45 -3.7 2.4 -3.5 1.95" fill="#cca8a8" fill-rule="evenodd" stroke="none"/>
  </g>
</svg>