<?xml version="1.0" encoding="UTF-8" standalone="no"?>
<svg xmlns:xlink="http://www.w3.org/1999/xlink" height="15.8px" width="25px" xmlns="http://www.w3.org/2000/svg">
  <g transform="matrix(1.0, 0.0, 0.0, 1.0, 12.5, 7.9)">
    <path d="M-11.1 2.1 L-10.85 1.3 -10.7 0.3 -10.65 0.15 -10.35 -0.9 -10.35 -0.7 -10.3 -0.7 -10.25 -1.15 -10.15 -1.3 -9.9 -1.6 -9.05 -2.55 -8.95 -2.65 -8.85 -2.7 Q-9.35 -1.7 -9.35 -0.65 -9.35 0.8 -7.8 2.2 -5.35 4.45 0.05 4.45 3.15 4.45 6.2 2.55 8.3 1.25 9.05 0.25 L9.75 -2.5 10.1 -3.7 10.25 -3.5 10.75 -2.65 10.85 -2.65 10.85 -2.9 10.9 -3.2 10.9 -3.25 Q11.4 -2.9 11.4 -2.05 L11.4 -1.75 11.4 -1.6 11.5 -0.35 11.45 0.55 10.85 0.1 10.75 0.0 10.35 -0.35 9.85 -0.95 Q9.5 -1.35 9.5 -0.75 9.5 -0.55 10.05 0.15 L10.35 0.5 10.4 0.55 Q10.8 0.9 11.1 0.9 L11.2 0.9 11.4 0.85 Q10.5 4.7 3.9 6.9 L0.1 6.9 -0.85 6.75 -5.2 6.75 Q-6.95 6.75 -9.05 5.5 -11.1 4.3 -11.1 3.4 L-11.0 3.05 -11.1 2.3 -11.1 2.1 M8.15 2.9 L7.9 2.55 7.6 2.0 Q7.35 1.75 7.35 2.25 L7.5 3.0 7.65 3.3 Q7.9 3.65 8.4 3.65 L8.65 3.6 8.7 3.4 8.3 3.0 8.15 2.9 M-9.2 3.3 L-9.95 4.35 -9.45 4.6 -8.95 4.05 -8.5 3.25 Q-8.5 2.45 -9.2 3.3 M-8.0 4.5 L-8.45 4.95 -7.95 5.1 -7.2 4.25 -7.3 4.1 Q-7.5 4.1 -8.0 4.5" fill="#e0cbcb" fill-rule="evenodd" stroke="none"/>
    <path d="M-11.1 2.1 L-11.25 2.3 -11.5 1.75 -11.4 -0.35 Q-11.4 -1.45 -10.4 -2.45 L-9.5 -3.35 Q-7.4 -5.1 -4.7 -5.7 L1.2 -6.65 Q3.6 -7.05 6.0 -6.75 L7.2 -6.65 7.85 -6.5 8.95 -6.05 9.6 -5.45 10.4 -4.4 10.9 -3.25 10.9 -3.2 10.85 -2.9 10.85 -2.65 10.75 -2.65 10.25 -3.5 10.1 -3.7 9.2 -4.7 Q8.45 -5.25 7.35 -5.7 5.05 -6.3 2.4 -5.75 L0.2 -5.6 -5.5 -4.45 Q-7.1 -4.05 -8.3 -3.25 L-8.95 -2.65 -9.05 -2.55 -9.9 -1.6 -10.15 -1.3 -10.25 -1.15 -10.35 -0.9 -10.65 0.15 -10.7 0.3 -10.85 1.3 -11.1 2.1 M11.45 0.55 L11.5 0.6 11.4 0.85 11.2 0.9 11.1 0.9 Q10.8 0.9 10.4 0.55 L10.35 0.5 10.05 0.15 Q9.5 -0.55 9.5 -0.75 9.5 -1.35 9.85 -0.95 L10.35 -0.35 10.75 0.0 10.85 0.1 11.45 0.55 M8.15 2.9 L8.3 3.0 8.7 3.4 8.65 3.6 8.4 3.65 Q7.9 3.65 7.65 3.3 L7.5 3.0 7.35 2.25 Q7.35 1.75 7.6 2.0 L7.9 2.55 8.15 2.9 M-8.0 4.5 Q-7.5 4.1 -7.3 4.1 L-7.2 4.25 -7.95 5.1 -8.45 4.95 -8.0 4.5 M-9.2 3.3 Q-8.5 2.45 -8.5 3.25 L-8.95 4.05 -9.45 4.6 -9.95 4.35 -9.2 3.3" fill="#a36a6a" fill-rule="evenodd" stroke="none"/>
    <path d="M-8.95 -2.65 L-8.3 -3.25 Q-7.1 -4.05 -5.5 -4.45 L0.2 -5.6 2.4 -5.75 Q5.05 -6.3 7.35 -5.7 8.45 -5.25 9.2 -4.7 L10.1 -3.7 9.75 -2.5 9.05 0.25 Q8.3 1.25 6.2 2.55 3.15 4.45 0.05 4.45 -5.35 4.45 -7.8 2.2 -9.35 0.8 -9.35 -0.65 -9.35 -1.7 -8.85 -2.7 L-8.95 -2.65" fill="#f2eaea" fill-rule="evenodd" stroke="none"/>
    <path d="M5.5 -3.0 Q6.6 -2.2 6.6 -1.7 6.6 -0.5 4.85 0.65 2.9 1.95 0.3 2.05 L-3.1 1.85 Q-6.35 1.15 -6.35 -0.6 -6.35 -1.75 -4.1 -2.9 -1.35 -4.3 2.65 -4.05 4.2 -4.0 5.5 -3.0" fill="#a36a6a" fill-rule="evenodd" stroke="none"/>
  </g>
</svg>