<?xml version="1.0" encoding="UTF-8" standalone="no"?>
<svg xmlns:xlink="http://www.w3.org/1999/xlink" height="9.4px" width="18.55px" xmlns="http://www.w3.org/2000/svg">
  <g transform="matrix(1.0, 0.0, 0.0, 1.0, 235.95, -58.1)">
    <path d="M-218.4 63.45 Q-218.4 63.8 -218.9 63.7 L-219.25 63.35 Q-219.15 62.6 -218.7 62.7 -218.3 62.85 -218.4 63.45 M-219.4 63.95 Q-219.0 64.0 -219.05 64.45 L-219.35 64.85 -219.85 64.95 Q-220.5 64.9 -220.4 64.45 L-220.1 64.05 -219.4 63.95 M-221.9 66.25 Q-221.9 65.95 -221.6 66.1 L-221.55 66.25 -221.7 66.5 Q-222.0 66.5 -221.9 66.25 M-221.1 65.2 Q-221.1 64.85 -220.7 64.9 -220.35 64.95 -220.4 65.3 L-220.6 65.55 -220.9 65.6 Q-221.2 65.6 -221.1 65.2 M-233.9 59.1 L-233.5 59.15 -233.55 59.45 -233.95 59.4 -233.95 59.25 -233.9 59.1 M-234.35 59.6 Q-233.9 59.9 -233.95 60.25 L-234.25 60.5 -234.6 60.65 Q-235.05 60.6 -234.95 59.9 -234.85 59.25 -234.35 59.6" fill="#ffffff" fill-opacity="0.6" fill-rule="evenodd" stroke="none"/>
  </g>
</svg>