<?xml version="1.0" encoding="UTF-8" standalone="no"?>
<svg xmlns:xlink="http://www.w3.org/1999/xlink" height="25.45px" width="30.7px" xmlns="http://www.w3.org/2000/svg">
  <g transform="matrix(1.0, 0.0, 0.0, 1.0, 15.35, 12.75)">
    <path d="M12.3 -10.05 L12.55 -9.15 Q12.55 -8.05 11.7 -7.2 10.55 -6.05 8.5 -6.05 L7.3 -6.15 6.8 -6.25 5.4 -6.25 5.35 -6.3 2.8 -6.35 Q-0.9 -6.35 -6.45 -2.95 L-10.25 0.05 -10.35 0.1 Q-11.1 0.5 -11.4 0.5 L-11.85 0.25 -11.5 -0.75 Q-11.0 -2.0 -8.95 -4.45 -7.5 -6.25 -6.4 -6.95 L-6.3 -6.85 -5.4 -7.2 -5.05 -7.35 -2.25 -8.6 1.95 -10.0 6.8 -10.65 Q8.9 -11.05 11.2 -10.6 L12.3 -10.05 M-12.0 0.75 L-11.95 0.75 -12.1 0.9 -12.0 0.75 M-1.3 10.85 L-1.85 11.0 -2.5 11.0 -1.85 10.95 -1.25 10.85 -1.3 10.85 M-7.65 10.55 L-7.85 10.5 -8.6 9.95 -8.15 10.3 -8.1 10.3 -8.05 10.35 -8.0 10.4 Q-7.95 10.4 -7.85 10.5 L-7.8 10.5 -7.65 10.55 M5.15 -3.55 L5.35 -3.3 5.6 -2.8 5.1 -2.35 4.6 -2.15 2.85 -2.15 -1.05 -1.5 -4.1 -0.65 Q-5.95 -0.15 -8.4 1.25 L-10.7 2.55 -11.15 2.25 -10.25 1.6 -8.65 0.55 Q-7.7 -0.1 -4.5 -1.25 L-0.25 -2.7 Q2.55 -3.55 4.9 -3.55 L5.15 -3.55 M0.55 9.0 L3.45 8.2 5.95 7.3 7.1 6.6 7.3 6.55 7.25 7.1 7.05 7.55 3.5 9.1 1.4 9.8 -1.45 10.3 -2.8 10.3 -4.0 9.6 -3.75 9.6 0.55 9.0 M-13.9 8.65 L-13.95 8.6 -14.0 8.45 -13.9 8.65" fill="#f2eaea" fill-rule="evenodd" stroke="none"/>
    <path d="M-11.85 0.25 L-11.4 0.5 Q-11.1 0.5 -10.35 0.1 L-10.25 0.05 -6.45 -2.95 Q-0.9 -6.35 2.8 -6.35 L5.35 -6.3 5.4 -6.25 6.8 -6.25 7.3 -6.15 8.5 -6.05 Q10.55 -6.05 11.7 -7.2 12.55 -8.05 12.55 -9.15 L12.3 -10.05 12.3 -10.1 12.9 -9.45 13.15 -8.95 13.4 -8.1 13.4 -8.05 13.5 -7.45 Q13.6 -6.15 13.35 -4.95 L13.15 -4.2 12.8 -2.65 12.95 -2.7 13.2 -2.8 13.4 -3.0 12.55 0.45 12.25 3.05 Q12.0 4.6 11.2 5.5 L10.15 6.5 Q8.6 8.65 7.75 8.75 L6.45 9.45 4.05 10.45 -0.65 11.65 -1.1 11.7 -3.0 11.7 -3.8 11.65 Q-6.0 11.7 -7.85 10.5 L-7.65 10.55 -6.6 10.9 -3.0 11.05 -1.85 11.0 -1.3 10.85 -0.7 10.7 -0.6 10.65 -0.25 10.45 -0.35 10.4 -5.65 10.5 -7.85 9.8 -9.0 9.0 -9.2 8.8 -9.2 8.95 -9.15 9.1 -8.95 9.55 -8.65 9.9 Q-9.0 9.55 -9.55 9.55 L-11.35 9.7 -11.8 9.65 -12.4 9.65 -13.2 9.25 -13.65 8.9 -13.0 9.05 -12.85 9.05 -12.8 9.0 -12.75 8.8 -13.05 8.2 -13.35 7.35 Q-13.35 6.2 -12.5 5.15 L-11.65 3.85 -11.6 3.4 -11.7 3.25 -13.2 4.8 -13.55 5.25 Q-14.15 6.15 -14.15 7.35 L-14.05 8.3 -14.2 7.85 -14.35 7.0 Q-14.35 6.1 -13.05 3.05 L-12.55 2.05 -12.55 2.0 -12.4 1.65 -12.2 1.25 -12.1 0.9 -11.95 0.75 -12.0 0.75 -11.9 0.45 -11.85 0.25 M-11.15 2.25 L-10.7 2.55 -8.4 1.25 Q-5.95 -0.15 -4.1 -0.65 L-1.05 -1.5 2.85 -2.15 4.6 -2.15 5.1 -2.35 5.6 -2.8 5.35 -3.3 5.15 -3.55 6.35 -3.35 Q7.3 -3.15 8.15 -2.6 9.95 -1.45 9.85 0.45 L9.55 0.15 7.75 -1.1 5.35 -1.7 3.85 -1.8 Q-1.6 -1.3 -4.0 -0.45 -5.8 0.1 -8.15 1.8 L-8.7 2.3 -8.9 2.45 -9.95 3.8 -10.3 4.35 -11.15 5.6 -11.85 6.9 Q-11.85 7.4 -11.0 7.45 -9.7 7.55 -8.9 8.05 L-7.6 8.7 -6.05 9.2 -4.1 9.2 0.95 8.65 Q4.4 8.0 6.45 6.8 L7.7 5.95 8.95 5.0 9.8 4.05 Q10.6 3.25 11.35 3.25 L11.75 3.2 11.8 3.15 11.85 3.05 11.85 2.95 11.65 2.6 10.85 1.65 9.85 0.45 10.0 0.5 10.35 -0.15 10.55 -1.1 Q10.55 -2.0 8.65 -3.25 6.55 -4.65 4.55 -4.35 L-1.15 -3.35 Q-2.9 -2.9 -5.25 -1.9 L-8.6 -0.25 -9.2 0.15 -10.8 1.55 -11.8 2.45 -11.85 2.5 -11.95 2.6 -11.9 2.7 -11.75 2.7 Q-11.55 2.5 -11.15 2.25 M0.55 9.0 L-3.75 9.6 -4.0 9.6 -2.8 10.3 -1.45 10.3 1.4 9.8 3.5 9.1 7.05 7.55 7.25 7.1 7.3 6.55 7.1 6.6 5.95 7.3 3.45 8.2 0.55 9.0 M-7.85 10.5 L-7.95 10.4 -7.75 10.5 -7.65 10.55 -7.8 10.5 -7.85 10.5" fill="#e0cbcb" fill-rule="evenodd" stroke="none"/>
    <path d="M12.3 -10.05 L11.2 -10.6 Q8.9 -11.05 6.8 -10.65 L1.95 -10.0 -2.25 -8.6 -5.05 -7.35 -5.4 -7.2 -6.3 -6.85 -6.4 -6.95 -6.45 -6.95 -3.9 -8.7 Q-0.25 -10.65 3.75 -11.2 L10.0 -11.75 12.15 -11.2 13.4 -10.45 13.95 -9.8 Q14.5 -8.1 14.3 -6.2 L13.9 -3.9 13.4 -3.0 13.2 -2.8 12.95 -2.7 12.8 -2.65 13.15 -4.2 13.35 -4.95 Q13.6 -6.15 13.5 -7.45 L13.4 -8.05 13.4 -8.1 13.15 -8.95 12.9 -9.45 12.3 -10.1 12.3 -10.05 M-14.05 8.3 L-14.15 7.35 Q-14.15 6.15 -13.55 5.25 L-13.2 4.8 -11.7 3.25 -11.6 3.4 -11.65 3.85 -12.5 5.15 Q-13.35 6.2 -13.35 7.35 L-13.05 8.2 -12.75 8.8 -12.8 9.0 -12.85 9.05 -13.0 9.05 -13.65 8.9 -13.9 8.65 -14.0 8.45 -14.05 8.3 M-8.65 9.9 L-8.95 9.55 -9.15 9.1 -9.2 8.95 -9.2 8.8 -9.0 9.0 -7.85 9.8 -5.65 10.5 -0.35 10.4 -0.25 10.45 -0.6 10.65 -0.7 10.7 -1.3 10.85 -1.25 10.85 -1.85 10.95 -2.5 11.0 -3.0 11.05 -6.6 10.9 -7.65 10.55 -7.75 10.5 -7.95 10.4 -7.85 10.5 Q-7.95 10.4 -8.0 10.4 L-8.05 10.35 -8.1 10.3 -8.15 10.3 -8.6 9.95 -8.65 9.9 M0.9 -0.85 Q-4.2 -0.2 -6.8 1.75 -9.05 3.4 -9.05 5.55 L-8.9 6.45 -8.2 7.25 -7.35 8.1 Q-6.7 8.55 -6.35 8.6 L-2.85 8.65 Q-0.85 8.65 2.4 7.65 L5.9 6.35 8.4 4.55 9.6 3.55 9.6 3.4 9.8 2.7 Q9.8 1.8 9.2 0.9 L9.15 0.85 8.65 0.4 Q7.05 -0.95 3.4 -1.1 L0.9 -0.85 M-11.15 2.25 Q-11.55 2.5 -11.75 2.7 L-11.9 2.7 -11.95 2.6 -11.85 2.5 -11.8 2.45 -10.8 1.55 -9.2 0.15 -8.6 -0.25 -5.25 -1.9 Q-2.9 -2.9 -1.15 -3.35 L4.55 -4.35 Q6.55 -4.65 8.65 -3.25 10.55 -2.0 10.55 -1.1 L10.35 -0.15 10.0 0.5 9.85 0.45 10.85 1.65 11.65 2.6 11.85 2.95 11.85 3.05 11.8 3.15 11.75 3.2 11.35 3.25 Q10.6 3.25 9.8 4.05 L8.95 5.0 7.7 5.95 6.45 6.8 Q4.4 8.0 0.95 8.65 L-4.1 9.2 -6.05 9.2 -7.6 8.7 -8.9 8.05 Q-9.7 7.55 -11.0 7.45 -11.85 7.4 -11.85 6.9 L-11.15 5.6 -10.3 4.35 -9.95 3.8 -8.9 2.45 -8.7 2.3 -8.15 1.8 Q-5.8 0.1 -4.0 -0.45 -1.6 -1.3 3.85 -1.8 L5.35 -1.7 7.75 -1.1 9.55 0.15 9.85 0.45 Q9.95 -1.45 8.15 -2.6 7.3 -3.15 6.35 -3.35 L5.15 -3.55 4.9 -3.55 Q2.55 -3.55 -0.25 -2.7 L-4.5 -1.25 Q-7.7 -0.1 -8.65 0.55 L-10.25 1.6 -11.15 2.25" fill="#a36a6a" fill-rule="evenodd" stroke="none"/>
  </g>
</svg>