<?xml version="1.0" encoding="UTF-8" standalone="no"?>
<svg xmlns:xlink="http://www.w3.org/1999/xlink" height="14.6px" width="11.85px" xmlns="http://www.w3.org/2000/svg">
  <g transform="matrix(1.0, 0.0, 0.0, 1.0, 5.15, -1.75)">
    <path d="M-3.55 14.45 L-3.9 14.25 -4.15 14.1 -4.15 13.7 -3.75 12.1 -2.95 8.75 -1.85 5.6 Q-0.5 2.75 1.25 2.75 2.2 2.75 2.6 3.95 L2.85 5.4 3.8 8.25 4.7 11.25 5.35 12.7 5.7 13.95 5.45 14.05 5.25 14.15 4.8 12.9 4.6 12.35 4.0 11.05 3.1 8.6 2.1 5.25 1.7 3.8 1.4 3.65 0.85 3.65 Q0.5 3.6 0.15 4.0 L-0.2 4.3 -1.4 6.75 -2.45 9.8 -3.35 13.15 -3.55 14.45" fill="#885f55" fill-rule="evenodd" stroke="none"/>
    <path d="M-3.35 13.15 L-2.45 9.8 -1.4 6.75 -0.2 4.3 0.15 4.0 Q0.5 3.6 0.85 3.65 L1.4 3.65 1.7 3.8 2.1 5.25 3.1 8.6 4.0 11.05 4.6 12.35 4.05 13.35 2.9 14.3 2.7 14.45 1.7 11.95 1.15 10.4 0.9 8.8 1.0 8.55 0.9 8.4 Q0.6 8.45 0.45 9.2 0.3 9.75 0.3 10.25 L0.4 11.95 0.5 12.85 0.4 12.2 0.35 12.55 0.15 14.35 0.15 14.85 0.0 14.25 -0.35 11.6 Q-0.35 10.4 -0.7 11.3 L-1.15 12.8 -1.45 14.8 Q-2.55 14.45 -2.9 13.55 L-3.2 12.7 -3.35 13.15" fill="#ffffcc" fill-rule="evenodd" stroke="none"/>
    <path d="M-3.55 14.45 L-3.35 13.15 -3.2 12.7 -2.9 13.55 Q-2.55 14.45 -1.45 14.8 L-1.15 12.8 -0.7 11.3 Q-0.35 10.4 -0.35 11.6 L0.0 14.25 0.15 14.85 0.15 14.35 0.35 12.55 0.4 12.2 0.5 12.85 0.4 11.95 0.3 10.25 Q0.3 9.75 0.45 9.2 0.6 8.45 0.9 8.4 L1.0 8.55 0.9 8.8 1.15 10.4 1.7 11.95 2.7 14.45 2.9 14.3 4.05 13.35 4.6 12.35 4.8 12.9 5.25 14.15 2.5 15.1 1.65 15.25 0.25 15.35 0.0 15.35 -1.5 15.2 Q-2.6 15.0 -3.55 14.45" fill="#c9a97a" fill-rule="evenodd" stroke="none"/>
  </g>
</svg>