<?xml version="1.0" encoding="UTF-8" standalone="no"?>
<svg xmlns:xlink="http://www.w3.org/1999/xlink" height="20.65px" width="12.5px" xmlns="http://www.w3.org/2000/svg">
  <g transform="matrix(1.0, 0.0, 0.0, 1.0, 3.85, 15.5)">
    <path d="M0.45 -12.65 L0.3 -12.9 Q1.95 -14.35 2.2 -13.65 L2.2 -13.7 Q2.2 -13.95 2.5 -14.0 2.5 -14.5 3.1 -14.5 3.75 -14.5 3.8 -14.0 L3.75 -13.75 4.1 -13.6 4.2 -13.6 Q4.55 -13.6 4.6 -13.3 4.6 -13.0 4.2 -13.0 L3.95 -13.05 3.75 -12.9 3.5 -13.0 3.3 -12.8 2.8 -12.65 2.55 -12.8 2.5 -13.0 2.7 -13.3 2.25 -13.55 2.25 -13.3 1.95 -12.8 Q1.55 -12.4 1.0 -12.4 0.65 -12.4 0.45 -12.65 M0.75 -13.7 Q0.75 -14.0 1.35 -14.1 1.85 -14.2 1.9 -13.9 1.55 -13.9 0.9 -13.4 0.75 -13.5 0.75 -13.7 M3.35 -13.25 L3.35 -13.3 3.4 -13.5 3.35 -13.5 3.25 -13.4 3.3 -13.3 3.35 -13.25 M4.7 -13.7 L4.6 -13.85 4.9 -14.15 5.65 -14.35 Q6.15 -14.35 6.15 -14.0 6.15 -13.55 5.05 -13.55 L4.7 -13.7 M7.3 -13.05 Q7.1 -13.05 7.0 -13.2 L6.95 -13.35 7.0 -13.6 Q7.65 -13.6 7.65 -13.35 7.65 -13.05 7.3 -13.05 M0.9 -7.75 L0.9 -7.8 Q0.9 -8.1 1.2 -8.1 L1.6 -7.8 Q1.6 -7.5 1.15 -7.5 L0.95 -7.65 0.95 -7.55 0.8 -7.3 0.4 -7.15 Q-0.05 -7.15 -0.05 -7.45 -0.05 -7.7 0.45 -7.8 L0.9 -7.75 M4.35 -7.55 Q4.1 -7.55 4.0 -7.7 L3.95 -7.85 Q4.6 -8.2 4.6 -7.85 L4.35 -7.55 M2.9 -7.3 Q1.9 -7.3 1.9 -7.7 1.9 -8.05 2.7 -8.2 3.45 -8.35 3.45 -7.75 3.45 -7.3 2.9 -7.3 M5.4 2.9 L5.05 3.15 4.75 2.9 Q4.75 2.6 5.1 2.6 L5.4 2.9 M2.25 3.9 Q2.25 4.15 1.85 4.15 L1.6 3.9 Q1.6 3.65 1.9 3.65 L2.25 3.9 M3.35 3.3 L3.35 3.4 Q3.35 3.0 3.95 2.95 4.55 2.9 4.55 3.3 4.55 3.75 3.95 3.75 L3.6 3.7 Q3.5 3.9 3.25 3.9 2.75 3.9 2.75 3.55 2.75 3.3 3.2 3.3 L3.35 3.3 M-2.6 -11.5 L-2.85 -11.75 -2.35 -12.25 Q-1.85 -12.4 -1.85 -12.0 L-2.6 -11.5 M-0.65 -12.05 Q-1.15 -12.05 -1.15 -12.6 -1.15 -13.35 -0.6 -13.3 -0.1 -13.25 -0.1 -12.55 -0.1 -12.05 -0.65 -12.05" fill="#ffffff" fill-opacity="0.6" fill-rule="evenodd" stroke="none"/>
  </g>
</svg>