<?xml version="1.0" encoding="UTF-8" standalone="no"?>
<svg xmlns:xlink="http://www.w3.org/1999/xlink" height="14.6px" width="18.4px" xmlns="http://www.w3.org/2000/svg">
  <g transform="matrix(1.0, 0.0, 0.0, 1.0, 8.4, -6.8)">
    <path d="M7.7 14.9 L7.8 16.1 Q2.15 21.05 -4.8 17.85 L-5.1 17.6 -5.3 16.1 -2.45 14.1 Q2.7 13.15 7.05 14.15 7.55 14.25 7.7 14.9" fill="#885f55" fill-rule="evenodd" stroke="none"/>
    <path d="M2.3 7.8 Q6.55 8.05 8.1 10.4 9.0 11.8 9.0 14.2 L8.55 15.7 7.9 17.5 Q7.5 18.55 5.85 19.2 L5.5 19.35 4.05 19.7 3.2 19.85 3.15 19.85 0.25 20.35 -0.6 20.3 -0.6 20.4 -0.65 20.35 -1.65 19.95 Q-4.8 19.15 -6.25 17.3 -7.4 15.85 -7.4 14.0 -7.4 11.95 -5.9 10.4 -3.85 8.25 0.5 7.8 L2.3 7.8 M6.9 10.55 L6.25 10.0 Q5.1 9.2 3.3 8.95 L3.2 8.95 3.1 8.9 2.15 8.8 0.65 8.85 0.55 8.85 Q-2.25 8.95 -4.0 10.1 L-5.05 10.95 Q-6.4 12.4 -6.4 14.0 -6.4 16.4 -3.5 17.95 -2.3 18.6 -1.6 19.0 L-1.4 19.1 -0.25 19.35 3.1 18.75 4.45 18.55 Q6.4 17.95 6.85 17.25 L7.5 15.9 8.0 14.15 Q8.0 12.1 7.2 10.95 L6.9 10.55" fill="#885f55" fill-rule="evenodd" stroke="none"/>
    <path d="M-4.0 10.1 Q-2.25 8.95 0.55 8.85 L0.65 8.85 2.15 8.8 3.1 8.9 3.2 8.95 3.3 8.95 Q5.1 9.2 6.25 10.0 L6.9 10.55 7.0 11.45 6.95 12.2 7.0 11.75 7.45 12.25 7.85 13.2 7.75 13.75 7.55 13.85 6.9 12.6 6.65 13.15 6.95 14.25 6.8 15.5 Q6.55 16.6 5.9 16.6 5.55 16.6 5.55 16.25 L5.95 14.85 5.8 13.85 4.95 14.25 5.0 14.8 5.0 15.35 Q4.95 16.7 3.9 17.0 L3.8 16.75 4.05 15.7 4.25 14.5 3.0 14.8 0.7 14.8 -2.2 13.8 -2.5 14.15 -3.0 14.6 -3.3 14.3 -2.95 13.75 -2.65 13.5 -3.35 13.0 Q-4.1 12.3 -4.1 11.0 L-4.0 10.1 M-0.1 13.35 L0.05 13.35 -0.3 13.3 -0.1 13.35 M-4.85 13.9 L-5.15 13.65 -3.95 12.1 -3.55 12.8 -4.05 13.35 -4.85 13.9" fill="#ffffcc" fill-rule="evenodd" stroke="none"/>
    <path d="M-4.0 10.1 L-4.1 11.0 Q-4.1 12.3 -3.35 13.0 L-2.65 13.5 -2.95 13.75 -3.3 14.3 -3.0 14.6 -2.5 14.15 -2.2 13.8 0.7 14.8 3.0 14.8 4.25 14.5 4.05 15.7 3.8 16.75 3.9 17.0 Q4.95 16.7 5.0 15.35 L5.0 14.8 4.95 14.25 5.8 13.85 5.95 14.85 5.55 16.25 Q5.55 16.6 5.9 16.6 6.55 16.6 6.8 15.5 L6.95 14.25 6.65 13.15 6.9 12.6 7.55 13.85 7.75 13.75 7.85 13.2 7.45 12.25 7.0 11.75 6.95 12.2 7.0 11.45 6.9 10.55 7.2 10.95 Q8.0 12.1 8.0 14.15 L7.5 15.9 6.85 17.25 Q6.4 17.95 4.45 18.55 L3.1 18.75 -0.25 19.35 -1.4 19.1 -1.6 19.0 Q-2.3 18.6 -3.5 17.95 -6.4 16.4 -6.4 14.0 -6.4 12.4 -5.05 10.95 L-4.0 10.1 M-4.85 13.9 L-4.05 13.35 -3.55 12.8 -3.95 12.1 -5.15 13.65 -4.85 13.9" fill="#c9a97a" fill-rule="evenodd" stroke="none"/>
  </g>
</svg>