<?xml version="1.0" encoding="UTF-8" standalone="no"?>
<svg xmlns:xlink="http://www.w3.org/1999/xlink" height="7.9px" width="19.2px" xmlns="http://www.w3.org/2000/svg">
  <g transform="matrix(1.0, 0.0, 0.0, 1.0, 236.5, -58.85)">
    <path d="M-218.75 61.65 Q-218.3 61.65 -218.3 62.2 -218.3 62.6 -218.85 62.6 L-219.1 62.55 -219.2 62.3 -219.1 61.8 -218.75 61.65 M-219.1 62.95 L-218.9 63.35 -219.1 63.75 -219.15 63.8 Q-219.35 64.0 -219.6 64.0 -220.2 63.95 -220.2 63.5 L-219.9 63.1 -219.3 62.9 -219.1 62.95 M-220.2 64.55 L-220.55 64.7 Q-220.85 64.7 -220.8 64.35 -220.85 64.0 -220.45 64.0 -220.1 64.05 -220.05 64.35 L-220.2 64.55 M-221.3 65.75 L-221.5 65.5 Q-221.5 65.2 -221.15 65.35 L-221.1 65.5 -221.3 65.75 M-233.9 60.15 L-234.05 60.2 -234.25 60.15 -234.3 60.0 -234.25 59.85 -233.9 59.9 -233.9 60.15 M-235.2 60.5 L-235.2 61.65 Q-235.5 61.55 -235.5 60.9 -235.45 60.45 -235.2 60.5 M-234.4 61.35 L-234.8 61.5 -234.9 61.5 -234.9 60.35 -234.65 60.4 Q-234.2 60.65 -234.2 61.0 L-234.4 61.35" fill="#ffffff" fill-opacity="0.6" fill-rule="evenodd" stroke="none"/>
  </g>
</svg>