<?xml version="1.0" encoding="UTF-8" standalone="no"?>
<svg xmlns:xlink="http://www.w3.org/1999/xlink" height="17px" width="11.25px" xmlns="http://www.w3.org/2000/svg">
  <g transform="matrix(1.0, 0.0, 0.0, 1.0, 4.3, -3.25)">
    <path d="M4.7 16.05 L4.7 15.95 4.4 16.15 2.8 16.35 1.35 16.1 Q0.4 15.75 0.35 15.5 0.3 14.9 0.5 14.2 L0.9 12.95 1.15 11.1 0.9 9.95 0.6 8.6 Q0.4 7.1 0.9 6.25 L0.95 5.65 0.95 5.6 Q1.35 5.3 1.9 5.2 L2.25 5.1 2.3 5.1 Q3.65 4.95 3.9 6.9 L3.9 7.0 3.75 8.45 3.6 9.55 Q3.3 9.85 3.3 10.4 L3.3 10.6 Q2.55 11.95 1.35 15.2 L1.55 15.4 3.15 12.95 3.6 14.1 3.8 14.5 4.1 14.9 4.25 15.1 4.7 15.5 5.35 16.0 4.95 15.7 4.7 16.05" fill="#ffffcc" fill-rule="evenodd" stroke="none"/>
    <path d="M4.7 16.05 L4.95 15.7 5.35 16.0 4.7 15.5 4.25 15.1 4.1 14.9 3.8 14.5 3.6 14.1 3.15 12.95 1.55 15.4 1.35 15.2 Q2.55 11.95 3.3 10.6 L3.3 10.4 Q3.3 9.85 3.6 9.55 L3.75 8.45 3.9 7.0 3.9 6.9 Q3.65 4.95 2.3 5.1 L2.25 5.1 1.9 5.2 Q1.35 5.3 0.95 5.6 0.25 6.1 -0.15 7.05 L-0.2 7.15 -0.25 7.35 -0.5 8.8 -0.3 9.65 -0.1 10.55 Q0.05 11.8 -1.35 13.55 -2.05 14.45 -2.25 15.55 -2.65 16.3 -2.55 17.0 -2.45 17.85 -2.0 18.15 L0.6 18.85 2.05 18.7 4.15 17.9 Q5.45 17.2 5.4 16.6 5.35 16.05 4.7 16.05 M4.45 5.45 L4.75 6.9 4.35 9.65 4.25 10.65 Q3.85 11.55 4.1 12.85 L4.35 13.6 4.45 13.6 5.15 14.95 Q5.95 16.0 5.95 16.35 5.95 17.55 4.05 18.45 2.3 19.25 0.5 19.25 -2.1 19.25 -2.9 18.0 -3.3 17.4 -3.3 16.0 L-3.25 14.95 -3.2 14.9 -3.15 14.9 -2.25 13.2 Q-0.9 11.6 -1.0 10.6 L-1.35 9.0 Q-1.5 7.8 -0.95 6.65 -0.05 4.55 2.65 4.25 3.9 4.1 4.45 5.45" fill="#885f55" fill-rule="evenodd" stroke="none"/>
    <path d="M0.95 5.6 L0.95 5.65 0.9 6.25 Q0.4 7.1 0.6 8.6 L0.9 9.95 1.15 11.1 0.9 12.95 0.5 14.2 Q0.3 14.9 0.35 15.5 0.4 15.75 1.35 16.1 L2.8 16.35 4.4 16.15 4.7 15.95 4.7 16.05 Q5.35 16.05 5.4 16.6 5.45 17.2 4.15 17.9 L2.05 18.7 0.6 18.85 -2.0 18.15 Q-2.45 17.85 -2.55 17.0 -2.65 16.3 -2.25 15.55 -2.05 14.45 -1.35 13.55 0.05 11.8 -0.1 10.55 L-0.3 9.65 -0.5 8.8 -0.25 7.35 -0.2 7.15 -0.15 7.05 Q0.25 6.1 0.95 5.6" fill="#c9a97a" fill-rule="evenodd" stroke="none"/>
  </g>
</svg>