<?xml version="1.0" encoding="UTF-8" standalone="no"?>
<svg xmlns:xlink="http://www.w3.org/1999/xlink" height="33.8px" width="16.5px" xmlns="http://www.w3.org/2000/svg">
  <g transform="matrix(1.0, 0.0, 0.0, 1.0, 0.2, 21)">
    <path d="M11.05 -19.15 L10.85 -19.6 Q10.85 -20.25 11.45 -19.85 L12.0 -19.35 12.1 -19.4 Q12.55 -19.4 12.55 -18.85 L12.35 -18.55 12.0 -18.4 Q11.8 -18.4 11.75 -18.5 L11.35 -18.35 10.85 -18.2 10.45 -18.35 10.4 -18.5 10.05 -18.3 Q9.75 -18.3 9.45 -18.6 L9.15 -18.95 Q9.15 -19.4 10.1 -19.4 L10.7 -19.25 10.9 -19.0 10.9 -19.05 11.05 -19.05 11.4 -18.95 11.15 -19.05 11.05 -19.15 M11.65 -18.75 L11.65 -18.8 11.6 -18.8 11.65 -18.75 M14.5 -16.7 L14.25 -16.85 14.25 -16.95 14.5 -17.25 14.75 -16.95 14.5 -16.7 M13.35 -17.35 Q13.35 -17.05 12.85 -17.05 12.5 -17.05 12.45 -17.25 L12.45 -17.35 Q12.45 -17.8 12.9 -17.7 L13.35 -17.35 M10.95 -17.7 L10.85 -17.85 Q10.85 -18.05 11.2 -18.05 11.55 -18.05 11.55 -17.8 L11.25 -17.55 Q11.05 -17.55 10.95 -17.7 M14.95 -14.9 L14.95 -15.15 15.25 -15.15 15.3 -14.9 15.1 -14.85 14.95 -14.9 M8.1 -19.05 L8.2 -19.05 Q8.6 -19.0 8.6 -18.45 8.6 -18.05 8.2 -18.05 L7.75 -18.35 7.7 -18.65 Q7.7 -19.05 8.1 -19.05 M6.55 -18.25 L6.35 -18.3 6.3 -18.45 Q6.3 -18.6 6.8 -18.6 L6.85 -18.45 6.55 -18.25 M5.85 -7.25 L6.1 -7.0 5.85 -6.75 Q5.65 -6.75 5.6 -6.9 L5.6 -7.0 5.85 -7.25 M1.1 -7.7 Q0.8 -7.7 0.8 -8.05 0.8 -8.3 1.1 -8.3 L1.4 -8.05 Q1.4 -7.7 1.1 -7.7 M4.9 -7.95 L5.25 -7.55 Q5.25 -7.3 4.8 -7.3 4.5 -7.3 4.5 -7.45 L4.5 -7.6 Q4.5 -8.0 4.9 -7.95 M3.65 -8.4 L4.05 -7.9 Q4.05 -7.6 3.5 -7.6 3.15 -7.6 2.75 -7.9 L2.35 -8.25 Q2.35 -8.6 2.85 -8.6 L3.65 -8.4 M4.85 11.25 Q5.2 11.25 5.15 11.5 5.15 11.8 4.6 11.8 L4.15 11.5 Q4.15 11.25 4.85 11.25 M5.7 11.3 L5.7 11.2 Q5.7 10.8 6.1 10.95 L6.15 11.1 5.9 11.35 5.7 11.3" fill="#ffffff" fill-opacity="0.6" fill-rule="evenodd" stroke="none"/>
  </g>
</svg>