<?xml version="1.0" encoding="UTF-8" standalone="no"?>
<svg xmlns:xlink="http://www.w3.org/1999/xlink" height="15.2px" width="15.15px" xmlns="http://www.w3.org/2000/svg">
  <g transform="matrix(1.0, 0.0, 0.0, 1.0, 7.55, 7.6)">
    <path d="M6.35 -1.15 L6.6 0.95 6.6 1.35 Q6.6 2.7 5.4 4.7 4.15 6.7 3.4 6.6 L0.9 6.6 Q-2.65 5.35 -4.75 2.5 -6.55 0.05 -6.55 -2.4 L-6.35 -4.6 Q-5.9 -6.6 -4.55 -6.6 -3.45 -6.6 -2.95 -5.6 -1.9 -4.65 -1.35 -4.45 L0.7 -3.8 4.25 -3.15 Q5.85 -2.8 6.35 -1.15 M5.55 2.35 Q5.95 1.25 5.95 0.5 L5.9 -0.55 5.45 -1.8 4.9 -2.35 3.25 -2.6 Q-0.05 -2.75 -2.05 -4.05 L-4.4 -6.1 -4.8 -6.1 -5.45 -5.35 -5.7 -4.75 -5.7 -4.65 -5.8 -4.2 -5.8 -4.15 -5.9 -3.15 Q-5.9 2.7 0.9 5.85 L3.2 5.85 4.25 5.05 Q1.65 5.0 0.0 3.75 -0.95 3.0 -1.4 2.05 L-0.5 2.75 0.8 3.7 4.15 4.25 4.7 4.35 5.1 3.5 5.25 3.2 3.85 2.8 3.25 2.5 3.15 2.45 3.1 2.4 3.05 2.35 3.0 2.3 3.0 2.2 4.85 2.6 5.45 2.7 5.55 2.35" fill="#885f55" fill-rule="evenodd" stroke="none"/>
    <path d="M-5.45 -5.35 L-4.8 -6.1 -4.4 -6.1 -2.05 -4.05 Q-0.05 -2.75 3.25 -2.6 L4.9 -2.35 5.45 -1.8 5.9 -0.55 5.95 0.5 Q5.95 1.25 5.55 2.35 L5.35 2.3 3.85 2.0 2.2 1.3 1.55 0.9 Q1.25 0.9 1.25 1.25 L1.45 1.7 1.4 1.7 -1.55 -0.3 -2.6 -1.6 -3.35 -2.6 Q-3.55 -2.6 -3.55 -2.0 L-3.35 -0.75 -3.1 0.25 -3.15 0.25 Q-4.65 -0.95 -5.0 -3.0 L-5.35 -4.7 -5.35 -5.15 -5.45 -5.35" fill="#ffffcc" fill-rule="evenodd" stroke="none"/>
    <path d="M-5.45 -5.35 L-5.35 -5.15 -5.35 -4.7 -5.0 -3.0 Q-4.65 -0.95 -3.15 0.25 L-3.1 0.25 -3.35 -0.75 -3.55 -2.0 Q-3.55 -2.6 -3.35 -2.6 L-2.6 -1.6 -1.55 -0.3 1.4 1.7 1.45 1.7 1.25 1.25 Q1.25 0.9 1.55 0.9 L2.2 1.3 3.85 2.0 5.35 2.3 5.55 2.35 5.45 2.7 4.85 2.6 3.0 2.2 3.0 2.3 3.05 2.35 3.1 2.4 3.15 2.45 3.25 2.5 3.85 2.8 5.25 3.2 5.1 3.5 4.7 4.35 4.15 4.25 0.8 3.7 -0.5 2.75 -1.4 2.05 Q-0.95 3.0 0.0 3.75 1.65 5.0 4.25 5.05 L3.2 5.85 0.9 5.85 Q-5.9 2.7 -5.9 -3.15 L-5.8 -4.15 -5.8 -4.2 -5.7 -4.65 -5.7 -4.75 -5.45 -5.35" fill="#c9a97a" fill-rule="evenodd" stroke="none"/>
  </g>
</svg>