<?xml version="1.0" encoding="UTF-8" standalone="no"?>
<svg xmlns:xlink="http://www.w3.org/1999/xlink" height="11.85px" width="21.3px" xmlns="http://www.w3.org/2000/svg">
  <g transform="matrix(1.0, 0.0, 0.0, 1.0, 10.1, 6.1)">
    <path d="M1.25 -2.0 L1.9 -2.0 6.95 -2.4 8.9 -2.1 9.2 -1.3 8.95 -1.25 8.85 -1.25 8.25 -1.05 7.8 -0.75 7.75 -0.75 7.65 -0.65 Q7.2 -0.25 9.0 -0.4 L9.35 -0.4 9.4 0.05 Q9.4 1.0 8.9 1.9 L8.25 1.5 6.5 0.1 5.45 0.1 3.05 0.4 Q0.7 0.4 -0.1 -0.65 L-0.65 -2.0 -2.4 -2.0 -2.4 -2.05 Q-2.4 -2.45 -3.3 -2.45 L-6.3 -2.4 -7.3 -2.5 -7.35 -2.5 -7.6 -2.75 -8.0 -3.15 -8.05 -3.25 Q-6.7 -4.05 -3.65 -4.05 -1.95 -4.05 -1.15 -3.0 -0.6 -2.25 0.9 -2.05 L1.0 -1.85 1.25 -2.0" fill="#ffffcc" fill-rule="evenodd" stroke="none"/>
    <path d="M8.9 1.9 Q9.4 1.0 9.4 0.05 L9.35 -0.4 9.0 -0.4 Q7.2 -0.25 7.65 -0.65 L7.75 -0.75 7.8 -0.75 8.25 -1.05 8.85 -1.25 8.95 -1.25 9.2 -1.3 8.9 -2.1 6.95 -2.4 1.9 -2.0 1.25 -2.0 0.9 -2.05 Q-0.6 -2.25 -1.15 -3.0 -1.95 -4.05 -3.65 -4.05 -6.7 -4.05 -8.05 -3.25 L-8.0 -3.15 -7.6 -2.75 -7.35 -2.5 -7.3 -2.5 -7.1 -2.35 -6.3 -2.4 -3.3 -2.45 Q-2.4 -2.45 -2.4 -2.05 L-2.4 -2.0 Q-2.45 -1.75 -3.45 -1.5 L-3.9 -1.4 -3.55 -0.85 Q-2.4 1.1 -1.2 1.1 L1.75 0.85 2.8 0.6 5.05 0.35 5.3 0.55 Q4.9 1.05 3.6 1.45 L5.35 3.0 6.95 4.0 7.75 3.3 8.9 1.9 M4.0 -3.25 L6.95 -3.45 9.35 -3.0 9.6 -2.15 Q10.2 -1.05 10.2 0.1 10.2 1.4 9.05 3.1 L8.15 4.2 7.85 4.35 6.15 4.75 6.1 4.75 5.05 4.1 Q2.55 2.4 2.4 1.75 L-0.35 2.05 Q-2.5 2.05 -3.25 1.3 L-3.85 0.15 -4.85 -1.3 -6.15 -1.25 Q-9.1 -1.25 -9.1 -3.3 -9.1 -4.05 -8.4 -4.4 L-4.55 -5.1 -3.55 -5.1 Q-1.65 -5.1 -0.65 -4.1 0.35 -3.1 1.85 -3.1 L4.0 -3.25" fill="#885f55" fill-rule="evenodd" stroke="none"/>
    <path d="M-2.4 -2.0 L-0.65 -2.0 -0.1 -0.65 Q0.7 0.4 3.05 0.4 L5.45 0.1 6.5 0.1 8.25 1.5 8.9 1.9 7.75 3.3 6.95 4.0 5.35 3.0 3.6 1.45 Q4.9 1.05 5.3 0.55 L5.05 0.35 2.8 0.6 1.75 0.85 -1.2 1.1 Q-2.4 1.1 -3.55 -0.85 L-3.9 -1.4 -3.45 -1.5 Q-2.45 -1.75 -2.4 -2.0" fill="#c9a97a" fill-rule="evenodd" stroke="none"/>
  </g>
</svg>