<?xml version="1.0" encoding="UTF-8" standalone="no"?>
<svg xmlns:xlink="http://www.w3.org/1999/xlink" height="11.5px" width="11.45px" xmlns="http://www.w3.org/2000/svg">
  <g transform="matrix(1.0, 0.0, 0.0, 1.0, 5.9, 6.05)">
    <path d="M4.3 -3.15 L4.55 -1.5 Q4.65 -0.05 4.35 0.75 3.85 2.45 2.6 3.65 1.9 4.25 1.2 4.4 L0.85 4.45 0.4 4.35 -0.8 3.6 -1.3 3.2 -2.75 1.8 -4.05 0.15 Q-5.2 -1.8 -4.8 -2.7 -4.55 -3.5 -3.0 -4.15 L-0.7 -4.7 1.0 -5.05 2.55 -4.85 2.55 -4.9 2.75 -4.85 3.55 -4.5 3.75 -4.4 3.9 -4.15 4.3 -3.15 M3.8 -2.75 L3.7 -2.9 3.6 -3.35 3.65 -3.15 1.05 -3.1 1.15 -3.25 2.4 -3.45 3.5 -3.6 Q3.1 -4.0 2.5 -4.25 L0.85 -4.35 -1.2 -4.15 -2.4 -3.65 Q-3.0 -3.5 -3.8 -3.0 -4.6 -2.55 -4.45 -1.8 -4.2 -0.6 -3.5 0.25 L-2.25 1.65 Q-0.25 3.55 0.3 3.75 L1.05 3.9 1.8 3.6 1.0 2.9 0.7 2.65 0.2 2.2 -1.25 0.7 -1.05 0.6 Q-0.8 0.7 -0.05 1.25 L1.0 2.15 1.7 2.65 2.35 3.1 2.35 3.4 2.6 3.15 2.65 3.1 Q2.7 2.85 2.9 2.8 L3.05 2.65 3.3 2.15 3.2 2.15 2.2 1.45 1.25 0.9 3.2 1.5 3.35 1.55 3.6 1.65 3.95 0.65 Q4.25 -0.25 4.1 -1.65 L3.85 -2.05 3.8 -2.75" fill="#885f55" fill-rule="evenodd" stroke="none"/>
    <path d="M3.05 2.65 L2.9 2.8 Q2.7 2.85 2.65 3.1 L2.6 3.15 2.35 3.4 2.35 3.1 1.7 2.65 1.0 2.15 -0.05 1.25 Q-0.8 0.7 -1.05 0.6 L-1.25 0.7 0.2 2.2 0.7 2.65 1.0 2.9 1.8 3.6 1.05 3.9 0.3 3.75 Q-0.25 3.55 -2.25 1.65 L-3.5 0.25 Q-4.2 -0.6 -4.45 -1.8 -4.6 -2.55 -3.8 -3.0 -3.0 -3.5 -2.4 -3.65 L-1.2 -4.15 0.85 -4.35 2.5 -4.25 Q3.1 -4.0 3.5 -3.6 L2.4 -3.45 1.15 -3.25 1.05 -3.1 3.65 -3.15 3.6 -3.35 3.7 -2.9 3.8 -2.75 3.7 -2.75 2.95 -2.9 1.05 -2.6 Q-0.95 -2.25 -0.9 -1.95 L-0.65 -1.55 -0.3 -1.35 -1.95 -1.35 1.0 0.55 0.75 0.8 -0.25 0.55 0.6 1.2 2.25 2.1 3.05 2.65 M-0.9 -0.1 L-0.8 -0.05 -0.7 -0.05 -0.9 -0.1" fill="#ffffcc" fill-rule="evenodd" stroke="none"/>
    <path d="M3.05 2.65 L2.25 2.1 0.6 1.2 -0.25 0.55 0.75 0.8 1.0 0.55 -1.95 -1.35 -0.3 -1.35 -0.65 -1.55 -0.9 -1.95 Q-0.95 -2.25 1.05 -2.6 L2.95 -2.9 3.7 -2.75 3.8 -2.75 3.85 -2.05 4.1 -1.65 Q4.25 -0.25 3.95 0.65 L3.6 1.65 3.35 1.55 3.2 1.5 1.25 0.9 2.2 1.45 3.2 2.15 3.3 2.15 3.05 2.65" fill="#c9a97a" fill-rule="evenodd" stroke="none"/>
  </g>
</svg>