<?xml version="1.0" encoding="UTF-8" standalone="no"?>
<svg xmlns:xlink="http://www.w3.org/1999/xlink" height="18.35px" width="42.7px" xmlns="http://www.w3.org/2000/svg">
  <g transform="matrix(1.0, 0.0, 0.0, 1.0, 31.5, 11.75)">
    <path d="M4.25 -4.15 L4.55 -4.15 4.65 -4.15 7.5 -4.15 8.4 -3.95 Q10.3 -2.65 10.2 -0.65 10.05 1.35 9.4 2.55 L7.95 4.5 Q7.15 5.15 5.8 5.6 L4.45 5.25 3.75 4.5 3.65 4.5 3.55 4.55 3.3 4.55 3.1 4.55 2.95 4.55 1.95 4.45 1.75 4.4 1.55 4.3 Q0.25 3.95 -0.75 2.95 L-1.8 1.25 -1.75 1.1 -4.2 1.4 Q-6.0 1.4 -8.45 -0.15 L-10.15 -1.3 -10.6 -1.85 -14.1 -1.25 Q-16.05 -1.25 -18.6 -3.0 -20.7 -4.4 -20.8 -4.95 L-23.15 -4.7 Q-24.95 -4.7 -25.55 -5.35 L-26.05 -6.3 -26.9 -7.55 -28.0 -7.5 Q-30.5 -7.5 -30.5 -9.2 -30.5 -9.85 -29.9 -10.15 L-26.65 -10.75 -25.8 -10.75 Q-24.25 -10.75 -23.4 -9.9 -22.55 -9.05 -21.3 -9.05 L-19.5 -9.15 -17.0 -9.35 Q-15.35 -9.35 -14.05 -8.5 L-13.15 -7.85 Q-12.1 -8.1 -11.05 -7.1 L-10.15 -6.35 Q-9.5 -5.95 -9.05 -5.95 L-7.1 -6.2 -5.1 -6.5 Q-3.6 -6.5 -2.6 -5.6 L-2.05 -5.0 0.95 -5.0 2.15 -4.65 2.95 -4.4 4.25 -4.15 M9.8 -1.0 Q9.8 -2.45 8.65 -3.05 L8.3 -3.1 7.5 -3.2 5.35 -3.2 4.05 -3.3 3.4 -3.45 3.3 -3.45 2.6 -3.7 0.05 -4.25 -3.45 -4.0 -3.65 -3.95 -4.2 -3.9 -4.9 -3.8 -5.15 -3.95 -5.2 -4.0 -5.2 -4.1 -5.2 -4.15 Q-5.2 -4.5 -3.4 -4.85 L-3.15 -4.9 -3.35 -4.95 Q-4.5 -5.6 -5.15 -5.6 L-6.85 -5.35 -9.05 -5.1 -10.15 -5.25 Q-10.8 -5.5 -11.2 -6.0 -12.0 -7.0 -12.9 -7.0 L-15.25 -6.8 Q-16.8 -6.65 -16.4 -7.0 L-16.3 -7.05 -15.9 -7.3 -15.4 -7.5 -15.3 -7.5 -14.45 -7.65 -14.55 -7.75 Q-15.25 -8.45 -17.0 -8.45 L-21.25 -8.1 -21.8 -8.1 -22.1 -8.15 Q-23.35 -8.35 -23.8 -8.95 -24.5 -9.85 -25.9 -9.85 -28.45 -9.85 -29.6 -9.15 L-29.55 -9.1 -29.25 -8.75 -29.0 -8.55 -28.95 -8.55 -28.8 -8.4 -28.15 -8.45 -25.6 -8.5 Q-24.85 -8.5 -24.85 -8.15 L-24.85 -8.1 Q-24.9 -7.9 -25.75 -7.7 L-26.1 -7.6 -25.8 -7.15 Q-24.85 -5.5 -23.85 -5.5 L-21.35 -5.7 -20.5 -5.95 -18.6 -6.15 -18.4 -6.0 Q-18.7 -5.55 -19.8 -5.2 L-18.35 -3.9 Q-15.5 -2.1 -15.05 -2.1 -12.4 -2.1 -10.65 -2.65 L-10.15 -2.8 -8.65 -3.2 -8.4 -3.05 -9.95 -2.15 -7.85 -0.8 Q-6.2 0.6 -4.2 0.6 L-1.3 0.05 Q0.3 -0.5 1.4 -0.5 L3.9 -0.4 4.15 -0.15 4.1 0.1 Q2.6 -0.2 0.25 0.55 L-1.1 0.95 -0.9 1.2 -0.35 2.1 Q2.05 3.7 2.85 3.7 4.75 3.7 7.3 2.2 L7.55 2.25 7.55 2.3 6.85 3.1 6.2 3.5 6.05 3.6 4.6 4.3 4.8 4.4 5.05 4.55 Q6.55 5.35 7.7 4.2 9.15 2.8 9.6 0.85 L9.8 -0.8 9.8 -1.0" fill="#885f55" fill-rule="evenodd" stroke="none"/>
    <path d="M-21.8 -8.1 L-21.25 -8.1 -17.0 -8.45 Q-15.25 -8.45 -14.55 -7.75 L-14.45 -7.65 -15.3 -7.5 -15.4 -7.5 -15.9 -7.3 -16.3 -7.05 -16.4 -7.0 Q-16.8 -6.65 -15.25 -6.8 L-12.9 -7.0 Q-12.0 -7.0 -11.2 -6.0 -10.8 -5.5 -10.15 -5.25 L-9.05 -5.1 -6.85 -5.35 -5.15 -5.6 Q-4.5 -5.6 -3.35 -4.95 L-3.15 -4.9 -3.4 -4.85 Q-5.2 -4.5 -5.2 -4.15 L-5.2 -4.1 -5.2 -4.0 -5.15 -3.95 -4.9 -3.8 -4.2 -3.9 -3.65 -3.95 -3.45 -4.0 0.05 -4.25 2.6 -3.7 3.3 -3.45 3.4 -3.45 4.05 -3.3 5.35 -3.2 7.5 -3.2 8.3 -3.1 8.65 -3.05 Q9.8 -2.45 9.8 -1.0 L9.75 -0.85 9.8 -0.8 9.6 0.85 8.45 1.15 7.3 1.25 Q5.65 1.35 4.9 0.5 4.1 -0.35 3.75 -0.95 L2.8 -1.8 1.9 -1.8 0.05 -1.3 -1.1 -1.25 Q-2.9 -1.25 -3.55 -2.05 L-3.9 -2.95 Q-4.2 -3.45 -5.05 -3.45 L-6.0 -3.55 -7.15 -3.35 Q-8.1 -3.35 -8.55 -3.8 L-9.0 -4.45 -10.15 -4.4 -10.35 -4.4 -12.35 -4.15 Q-14.25 -4.15 -15.9 -5.2 L-17.35 -6.35 -18.25 -6.35 -20.25 -6.1 Q-22.25 -6.1 -22.9 -7.0 L-23.4 -8.1 -24.85 -8.1 -24.85 -8.15 Q-24.85 -8.5 -25.6 -8.5 L-28.15 -8.45 -28.95 -8.55 -29.0 -8.55 -29.25 -8.75 -29.55 -9.1 -29.6 -9.15 Q-28.45 -9.85 -25.9 -9.85 -24.5 -9.85 -23.8 -8.95 -23.35 -8.35 -22.1 -8.15 L-22.0 -8.0 -21.8 -8.1" fill="#ffffcc" fill-rule="evenodd" stroke="none"/>
    <path d="M-24.85 -8.1 L-23.4 -8.1 -22.9 -7.0 Q-22.25 -6.1 -20.25 -6.1 L-18.25 -6.35 -17.35 -6.35 -15.9 -5.2 Q-14.25 -4.15 -12.35 -4.15 L-10.35 -4.4 -10.15 -4.4 -9.0 -4.45 -8.55 -3.8 Q-8.1 -3.35 -7.15 -3.35 L-6.0 -3.55 -5.05 -3.45 Q-4.2 -3.45 -3.9 -2.95 L-3.55 -2.05 Q-2.9 -1.25 -1.1 -1.25 L0.05 -1.3 1.9 -1.8 2.8 -1.8 3.75 -0.95 Q4.1 -0.35 4.9 0.5 5.65 1.35 7.3 1.25 L8.45 1.15 9.6 0.85 Q9.15 2.8 7.7 4.2 6.55 5.35 5.05 4.55 L4.8 4.4 4.6 4.3 6.05 3.6 6.2 3.5 6.85 3.1 7.55 2.3 7.55 2.25 7.3 2.2 Q4.75 3.7 2.85 3.7 2.05 3.7 -0.35 2.1 L-0.9 1.2 -1.1 0.95 0.25 0.55 Q2.6 -0.2 4.1 0.1 L4.15 -0.15 3.9 -0.4 1.4 -0.5 Q0.3 -0.5 -1.3 0.05 L-4.2 0.6 Q-6.2 0.6 -7.85 -0.8 L-9.95 -2.15 -8.4 -3.05 -8.65 -3.2 -10.15 -2.8 -10.65 -2.65 Q-12.4 -2.1 -15.05 -2.1 -15.5 -2.1 -18.35 -3.9 L-19.8 -5.2 Q-18.7 -5.55 -18.4 -6.0 L-18.6 -6.15 -20.5 -5.95 -21.35 -5.7 -23.85 -5.5 Q-24.85 -5.5 -25.8 -7.15 L-26.1 -7.6 -25.75 -7.7 Q-24.9 -7.9 -24.85 -8.1" fill="#c9a97a" fill-rule="evenodd" stroke="none"/>
  </g>
</svg>