<?xml version="1.0" encoding="UTF-8" standalone="no"?>
<svg xmlns:xlink="http://www.w3.org/1999/xlink" height="31.3px" width="27.8px" xmlns="http://www.w3.org/2000/svg">
  <g transform="matrix(1.0, 0.0, 0.0, 1.0, 28.55, 10.35)">
    <path d="M-10.45 -9.35 L-10.35 -9.05 -10.5 -8.75 -11.05 -8.7 -11.65 -8.9 -11.65 -9.1 -11.5 -9.35 -10.45 -9.35 M-13.0 -7.55 Q-12.55 -7.5 -12.65 -7.15 -12.7 -6.9 -13.2 -6.9 -13.8 -6.9 -13.75 -7.2 -13.65 -7.6 -13.0 -7.55 M-14.45 -7.2 L-15.15 -6.55 -15.95 -6.65 -15.85 -7.05 Q-15.9 -7.85 -14.5 -7.55 -14.35 -7.6 -14.45 -7.2 M-26.9 6.8 L-25.95 4.4 Q-24.85 1.8 -24.25 1.4 L-21.2 -1.55 Q-20.55 -1.6 -19.45 -2.25 L-19.15 -2.25 Q-18.65 -2.25 -18.2 -3.2 -17.75 -3.7 -17.75 -3.95 L-17.8 -4.3 -16.9 -4.5 -16.65 -4.5 Q-16.25 -4.45 -16.2 -3.95 L-16.25 -3.45 -15.85 -3.45 -15.8 -3.5 Q-16.05 -3.75 -15.9 -4.05 L-15.9 -4.1 -16.25 -4.5 Q-16.15 -5.0 -15.6 -4.9 L-15.3 -4.65 -14.5 -4.65 Q-13.3 -4.5 -13.4 -4.05 L-13.9 -3.55 -14.1 -3.5 Q-13.8 -3.35 -13.9 -3.0 L-14.4 -2.5 -14.3 -2.45 Q-13.55 -2.45 -13.5 -0.85 L-13.75 0.9 -13.4 2.15 Q-13.15 1.8 -12.5 1.9 -11.75 1.9 -11.85 2.4 -12.1 2.95 -12.75 3.0 L-13.05 2.95 -12.4 4.05 -12.15 4.05 Q-11.5 4.05 -11.6 4.4 L-12.0 4.8 -11.95 4.8 -11.3 4.85 Q-10.55 5.15 -10.6 5.4 -10.8 5.8 -11.45 5.8 L-11.05 6.55 -10.95 7.0 -10.95 7.1 Q-10.7 6.4 -10.0 6.65 L-9.6 6.85 Q-9.3 7.05 -9.4 7.35 L-10.05 7.7 -9.85 7.85 -9.35 8.25 -9.3 8.2 -8.95 8.25 Q-8.4 8.4 -8.55 9.05 L-8.55 9.1 Q-8.8 9.45 -9.2 9.5 L-9.5 10.25 -10.05 11.05 -10.75 11.9 -10.9 11.95 Q-9.95 11.9 -10.0 12.45 -9.75 12.05 -9.05 12.15 L-8.5 12.35 -8.5 12.25 -7.95 11.85 Q-7.55 11.85 -7.65 12.3 L-8.1 12.55 -8.35 12.55 -8.45 12.75 -8.75 13.15 -9.5 13.35 Q-10.35 13.3 -10.2 12.7 L-10.1 12.55 -11.65 13.65 -11.35 14.1 Q-11.2 14.45 -11.2 14.75 -11.2 15.5 -13.2 16.25 L-16.0 17.25 -18.65 18.75 Q-20.95 19.95 -22.25 19.95 L-23.45 19.7 -22.5 19.95 Q-21.9 19.65 -21.4 18.75 L-21.3 18.65 -19.25 17.75 -17.45 16.45 -15.3 15.65 -14.85 15.5 -17.8 16.5 -18.65 16.7 -18.7 16.6 -20.4 16.45 -19.65 16.45 -19.5 16.45 -16.3 14.6 -15.6 14.0 -15.65 14.1 Q-15.9 14.7 -15.25 14.7 -14.7 14.7 -14.5 14.15 -14.4 13.65 -14.95 13.65 L-15.45 13.7 -15.25 13.55 -14.9 12.95 -14.35 12.15 -14.7 9.65 -14.5 9.25 Q-14.45 9.95 -13.45 9.95 -12.85 9.95 -12.65 9.5 -12.6 9.2 -13.4 8.85 -14.15 8.6 -14.4 9.0 L-14.35 8.65 Q-14.3 8.25 -14.85 7.4 L-15.65 6.45 -15.5 6.45 -15.0 6.3 -14.75 6.0 Q-14.6 5.45 -15.4 5.4 -16.05 5.2 -16.3 5.6 L-16.55 5.1 Q-16.7 4.15 -17.25 3.2 L-16.7 2.9 Q-16.65 2.55 -17.1 2.55 L-17.5 2.6 -17.3 3.0 -17.65 2.4 Q-18.65 0.65 -19.45 0.65 -20.6 0.65 -21.75 1.35 L-22.15 1.25 Q-22.75 1.2 -22.85 1.6 L-22.65 1.95 Q-24.7 3.4 -26.9 6.8 M-17.55 -5.15 L-17.5 -5.25 -17.35 -5.2 -17.4 -5.25 -16.9 -5.4 -16.6 -5.0 -16.65 -4.7 -17.45 -4.55 -17.7 -4.75 -17.7 -4.95 -17.7 -5.1 -17.55 -5.15 M-17.1 -5.9 L-16.7 -6.25 -16.5 -6.1 -17.1 -5.9 M-18.6 -0.25 L-19.45 -0.15 -19.55 0.3 -18.95 0.35 -18.45 0.05 -18.6 -0.25 M-12.4 -5.45 L-12.8 -5.9 Q-12.75 -6.2 -11.8 -6.25 L-11.85 -5.95 -12.0 -5.6 -12.4 -5.45 M-12.95 -3.85 Q-12.7 -3.35 -12.8 -2.9 L-13.35 -2.55 Q-13.9 -2.6 -13.75 -2.95 L-13.35 -3.35 -12.95 -3.85 M-13.0 -0.6 Q-12.85 -1.35 -11.6 -1.25 -10.45 -1.15 -10.55 -0.65 L-10.6 -0.6 -10.6 -0.55 -10.1 -0.65 Q-9.5 -0.65 -9.55 -0.4 -9.75 -0.15 -10.35 -0.1 -10.9 -0.15 -10.75 -0.4 L-10.75 -0.45 -11.3 -0.15 -12.1 0.15 Q-11.85 0.35 -12.0 0.9 -12.2 1.35 -12.8 1.4 -13.85 1.3 -13.6 0.65 -13.45 0.0 -13.1 -0.15 L-13.0 -0.6 M-13.4 -1.35 Q-13.35 -1.6 -12.9 -1.55 -12.45 -1.6 -12.5 -1.35 -12.6 -1.05 -13.0 -1.0 -13.45 -1.05 -13.4 -1.35 M-9.8 4.6 L-10.2 4.6 Q-11.2 4.6 -11.2 4.1 L-10.8 3.45 Q-9.95 3.45 -9.6 3.85 -9.45 4.15 -9.7 4.5 L-9.8 4.6 M-9.05 5.25 Q-8.45 5.05 -8.15 5.8 -8.65 6.2 -9.0 6.2 L-9.65 6.2 -9.6 5.75 -9.05 5.25 M-7.75 8.7 Q-7.3 8.7 -7.4 9.05 L-8.05 9.45 Q-8.7 9.45 -8.4 9.05 -8.3 8.7 -7.75 8.7 M-9.0 10.95 Q-8.9 10.15 -7.4 10.55 L-7.4 10.85 Q-7.65 11.5 -8.3 11.5 -9.2 11.5 -9.0 10.95 M-6.05 9.7 Q-5.85 8.85 -4.6 8.6 -3.4 8.3 -3.55 9.0 -3.65 9.35 -5.7 10.1 L-6.05 9.7 M-3.4 8.0 Q-4.4 8.0 -4.05 7.45 -3.95 7.0 -3.15 7.0 -2.45 7.0 -2.55 7.45 L-2.95 7.85 -3.4 8.0 M-3.25 10.4 Q-3.15 9.9 -2.35 9.95 -1.65 9.85 -1.8 10.35 L-2.7 10.95 Q-3.35 10.8 -3.25 10.4 M-10.85 2.7 Q-10.6 1.65 -9.6 2.8 -9.65 3.15 -10.3 3.2 -10.85 3.15 -10.85 2.7 M-12.55 11.6 L-11.9 11.35 -11.55 11.05 Q-11.45 10.6 -12.2 10.65 -13.0 10.75 -13.1 11.2 -13.35 11.6 -12.55 11.6 M-14.25 7.65 Q-14.3 8.2 -13.55 8.2 -13.1 8.2 -12.95 7.65 -12.85 7.1 -13.45 7.15 -14.15 7.2 -14.25 7.65 M-16.05 4.65 Q-15.5 4.65 -15.35 4.25 -15.25 3.85 -15.8 3.9 -16.45 3.95 -16.5 4.25 -16.7 4.65 -16.05 4.65 M-17.4 1.9 Q-16.95 1.85 -16.8 1.55 -16.75 1.1 -17.1 1.15 -17.7 1.1 -17.75 1.5 -18.05 1.85 -17.4 1.9 M-16.95 2.15 Q-17.15 2.5 -16.5 2.55 L-15.8 2.3 -15.5 2.0 Q-15.45 1.55 -16.1 1.7 -16.85 1.7 -16.95 2.15" fill="#f2eaea" fill-opacity="0.2" fill-rule="evenodd" stroke="none"/>
    <path d="M-23.45 19.7 Q-24.75 19.1 -25.75 17.2 L-25.85 17.05 -25.9 16.95 -26.2 16.25 -26.3 16.05 Q-27.45 13.25 -27.45 11.85 L-27.4 11.5 Q-27.85 9.85 -27.1 7.4 L-26.9 6.8 Q-24.7 3.4 -22.65 1.95 L-22.85 1.6 Q-22.75 1.2 -22.15 1.25 L-21.75 1.35 Q-20.6 0.65 -19.45 0.65 -18.65 0.65 -17.65 2.4 L-17.3 3.0 -17.5 2.6 -17.1 2.55 Q-16.65 2.55 -16.7 2.9 L-17.25 3.2 Q-16.7 4.15 -16.55 5.1 L-16.3 5.6 Q-16.05 5.2 -15.4 5.4 -14.6 5.45 -14.75 6.0 L-15.0 6.3 -15.5 6.45 -15.65 6.45 -14.85 7.4 Q-14.3 8.25 -14.35 8.65 L-14.4 9.0 Q-14.15 8.6 -13.4 8.85 -12.6 9.2 -12.65 9.5 -12.85 9.95 -13.45 9.95 -14.45 9.95 -14.5 9.25 L-14.7 9.65 -14.35 12.15 -14.9 12.95 -15.25 13.55 -15.45 13.7 -14.95 13.65 Q-14.4 13.65 -14.5 14.15 -14.7 14.7 -15.25 14.7 -15.9 14.7 -15.65 14.1 L-15.6 14.0 -16.3 14.6 -19.5 16.45 -19.65 16.45 -20.4 16.45 -18.7 16.6 -18.65 16.7 -17.8 16.5 -14.85 15.5 -15.3 15.65 -17.45 16.45 -19.25 17.75 -21.3 18.65 -21.4 18.75 Q-21.9 19.65 -22.5 19.95 L-23.45 19.7 M-18.6 -0.25 L-18.45 0.05 -18.95 0.35 -19.55 0.3 -19.45 -0.15 -18.6 -0.25 M-16.95 2.15 Q-16.85 1.7 -16.1 1.7 -15.45 1.55 -15.5 2.0 L-15.8 2.3 -16.5 2.55 Q-17.15 2.5 -16.95 2.15 M-17.4 1.9 Q-18.05 1.85 -17.75 1.5 -17.7 1.1 -17.1 1.15 -16.75 1.1 -16.8 1.55 -16.95 1.85 -17.4 1.9 M-16.05 4.65 Q-16.7 4.65 -16.5 4.25 -16.45 3.95 -15.8 3.9 -15.25 3.85 -15.35 4.25 -15.5 4.65 -16.05 4.65 M-14.25 7.65 Q-14.15 7.2 -13.45 7.15 -12.85 7.1 -12.95 7.65 -13.1 8.2 -13.55 8.2 -14.3 8.2 -14.25 7.65 M-12.55 11.6 Q-13.35 11.6 -13.1 11.2 -13.0 10.75 -12.2 10.65 -11.45 10.6 -11.55 11.05 L-11.9 11.35 -12.55 11.6" fill="#f2eaea" fill-opacity="0.34901962" fill-rule="evenodd" stroke="none"/>
  </g>
</svg>