<?xml version="1.0" encoding="UTF-8" standalone="no"?>
<svg xmlns:xlink="http://www.w3.org/1999/xlink" height="33.1px" width="26.2px" xmlns="http://www.w3.org/2000/svg">
  <g transform="matrix(1.0, 0.0, 0.0, 1.0, 28.6, 11.6)">
    <path d="M-13.05 -10.25 L-13.1 -9.95 -13.5 -9.85 -14.0 -10.1 -14.1 -10.3 -13.95 -10.6 -13.15 -10.6 -13.05 -10.25 M-14.45 -6.9 L-13.7 -7.25 -13.65 -6.95 -13.75 -6.55 -14.05 -6.4 -14.45 -6.9 M-14.45 -8.25 Q-14.45 -7.95 -14.85 -7.95 -15.3 -7.95 -15.3 -8.3 -15.25 -8.7 -14.8 -8.65 -14.45 -8.6 -14.45 -8.25 M-17.3 -7.1 Q-17.4 -6.9 -17.7 -6.9 L-17.45 -7.25 -17.3 -7.1 M-15.95 -8.65 L-15.85 -8.3 -16.35 -7.6 -16.95 -7.7 -16.9 -8.15 Q-17.05 -8.95 -15.95 -8.65 M-19.65 -3.0 L-19.6 -3.1 -19.05 -3.95 -18.75 -4.3 -18.1 -5.05 -17.3 -5.4 -17.05 -5.35 Q-16.75 -5.25 -16.7 -4.8 L-16.7 -4.25 -16.35 -4.25 -16.25 -4.3 -16.5 -4.9 -16.5 -4.95 Q-16.85 -5.0 -16.8 -5.4 -16.8 -5.9 -16.4 -5.8 L-16.05 -5.55 -15.5 -5.55 Q-14.55 -5.4 -14.6 -4.9 -14.6 -4.6 -14.9 -4.35 L-14.95 -4.3 Q-14.8 -4.15 -14.8 -3.8 L-15.1 -3.2 -15.35 -3.1 -15.0 -3.2 Q-14.45 -3.2 -14.2 -1.45 L-14.05 0.35 -13.55 1.75 Q-13.45 1.4 -12.95 1.45 -12.35 1.5 -12.4 2.0 -12.4 2.65 -12.9 2.65 L-13.15 2.65 -12.55 3.8 -12.35 3.8 Q-11.85 3.85 -11.85 4.2 -11.9 4.5 -12.1 4.6 L-12.1 4.65 -11.6 4.65 Q-10.95 4.95 -10.95 5.25 -11.0 5.65 -11.45 5.7 L-11.1 6.55 -10.95 6.95 -10.95 7.1 Q-10.85 6.3 -10.3 6.6 L-9.95 6.85 -9.75 7.35 Q-9.75 7.7 -10.1 7.8 L-9.95 7.9 -9.45 8.45 -9.5 8.35 -9.25 8.35 Q-8.75 8.5 -8.8 9.15 L-8.8 9.25 -9.25 9.65 -9.3 10.45 -9.6 11.3 -10.05 12.25 -10.1 12.3 Q-9.4 12.25 -9.45 12.9 L-11.95 15.75 -12.45 15.95 -13.75 16.65 -13.15 15.8 -12.7 15.05 -12.6 14.85 Q-12.05 13.75 -12.05 12.75 L-12.25 11.55 -12.8 10.15 -12.85 10.0 -12.4 10.1 Q-11.9 10.1 -11.85 9.65 -11.85 9.3 -12.55 8.95 -13.2 8.65 -13.25 9.2 L-13.3 9.2 -13.25 8.75 Q-13.25 8.35 -13.9 7.4 L-14.6 6.4 -14.55 6.4 Q-14.4 6.4 -14.15 6.2 L-14.0 5.9 Q-14.0 5.35 -14.6 5.25 L-15.05 5.3 -15.3 4.5 -15.25 4.5 Q-14.8 4.5 -14.75 4.0 -14.7 3.55 -15.2 3.6 -15.5 3.65 -15.6 3.8 L-16.2 2.85 -15.95 2.55 Q-15.95 2.15 -16.35 2.15 L-16.65 2.25 -16.8 2.0 Q-17.85 0.15 -18.45 0.15 -19.3 0.15 -20.05 0.9 L-20.1 0.85 -18.15 -1.5 -18.3 -1.7 -18.5 -1.85 -18.25 -2.5 Q-18.25 -3.9 -19.65 -3.0 M-15.15 17.35 L-15.25 17.35 -15.3 17.3 -15.15 17.35 M-17.2 -5.6 L-17.7 -5.45 -18.1 -5.8 -17.9 -6.05 -17.85 -6.2 -17.75 -6.15 -17.5 -6.35 -17.2 -5.9 -17.2 -5.6 M-19.65 -5.15 Q-19.6 -5.55 -19.05 -5.55 -18.5 -5.55 -18.55 -5.1 -18.55 -4.75 -19.05 -4.75 -19.65 -4.75 -19.65 -5.15 M-18.55 -0.7 L-18.55 -0.25 -18.1 -0.15 -17.75 -0.5 -17.9 -0.8 -18.55 -0.7 M-14.65 -3.75 L-14.5 -4.15 -14.2 -4.65 -13.95 -3.7 Q-14.0 -3.3 -14.3 -3.3 -14.7 -3.3 -14.65 -3.75 M-13.85 -1.65 Q-14.15 -1.65 -14.15 -2.0 L-13.8 -2.25 -13.45 -2.0 Q-13.5 -1.65 -13.85 -1.65 M-13.75 -1.2 Q-13.7 -2.0 -12.75 -1.9 -11.85 -1.8 -11.9 -1.25 L-11.9 -1.15 -11.55 -1.25 Q-11.1 -1.25 -11.1 -1.0 -11.15 -0.65 -11.6 -0.65 -12.05 -0.65 -12.0 -1.0 -12.1 -0.9 -12.35 -0.7 L-12.85 -0.35 -12.75 0.35 Q-12.75 0.9 -13.2 0.9 -14.05 0.9 -14.0 0.15 -13.95 -0.55 -13.7 -0.7 L-13.75 -1.2 M-9.0 5.65 L-9.55 6.1 -10.05 6.1 -10.1 5.6 -9.75 5.1 Q-9.35 4.9 -9.0 5.65 M-5.65 7.45 Q-5.6 6.95 -5.0 6.95 -4.45 6.95 -4.5 7.45 L-4.7 7.9 -5.1 8.05 Q-5.85 8.05 -5.65 7.45 M-8.25 8.8 Q-7.9 8.8 -7.95 9.15 -7.95 9.55 -8.35 9.55 -8.8 9.55 -8.7 9.15 -8.65 8.8 -8.25 8.8 M-8.2 11.8 Q-8.9 11.8 -8.85 11.2 -8.85 10.35 -7.7 10.75 L-7.65 11.1 Q-7.7 11.8 -8.2 11.8 M-6.85 9.85 Q-6.8 9.0 -5.85 8.7 -4.95 8.4 -5.0 9.1 -5.0 9.5 -6.4 10.3 L-6.85 9.85 M-4.05 11.2 Q-4.55 11.05 -4.55 10.6 -4.5 10.1 -3.95 10.1 -3.4 10.05 -3.4 10.55 L-4.05 11.2 M-11.05 2.85 Q-11.5 2.85 -11.55 2.3 -11.5 1.25 -10.55 2.45 -10.6 2.85 -11.05 2.85 M-10.4 4.3 L-10.45 4.4 -10.75 4.45 Q-11.45 4.45 -11.6 3.85 L-11.4 3.15 Q-10.75 3.15 -10.45 3.55 -10.2 3.95 -10.4 4.3 M-11.0 11.65 L-10.75 11.3 Q-10.75 10.8 -11.35 10.9 -11.95 11.0 -12.0 11.45 -12.05 11.9 -11.45 11.9 L-11.0 11.65 M-12.85 7.15 Q-13.35 7.2 -13.35 7.7 -13.3 8.3 -12.8 8.3 -12.4 8.3 -12.35 7.7 -12.35 7.1 -12.85 7.15 M-15.45 1.9 L-15.25 1.55 Q-15.25 1.15 -15.75 1.25 -16.3 1.3 -16.3 1.7 -16.35 2.15 -15.9 2.15 L-15.45 1.9 M-17.05 1.0 Q-17.15 1.45 -16.7 1.45 -16.3 1.45 -16.3 1.05 -16.25 0.65 -16.6 0.65 -17.0 0.65 -17.05 1.0 M-8.1 13.15 L-8.3 13.55 -8.8 13.75 Q-9.5 13.75 -9.4 13.1 -9.4 12.4 -8.75 12.5 L-8.25 12.7 -8.3 12.6 -7.9 12.2 Q-7.6 12.2 -7.65 12.65 -7.65 12.9 -7.95 12.95 L-8.15 12.9 -8.1 13.15 M-22.35 2.05 L-21.3 1.05 -20.85 1.35 -20.75 1.5 -21.1 1.6 -22.35 2.05" fill="#f2eaea" fill-opacity="0.2" fill-rule="evenodd" stroke="none"/>
    <path d="M-13.75 16.65 Q-14.4 17.35 -14.85 17.35 L-15.15 17.35 -15.3 17.3 -16.4 17.15 Q-20.95 17.15 -22.65 18.85 L-24.1 20.5 Q-24.85 20.5 -25.8 18.25 -26.7 16.15 -26.85 14.75 L-27.3 11.5 -27.55 8.95 -27.55 6.85 Q-27.45 5.85 -26.75 4.6 -26.4 4.05 -26.1 1.95 -25.9 0.35 -25.2 0.35 L-24.5 0.75 -24.0 1.2 -20.35 -2.5 -19.65 -3.0 Q-18.25 -3.9 -18.25 -2.5 L-18.5 -1.85 -18.3 -1.7 -18.15 -1.5 -20.1 0.85 -20.05 0.9 Q-19.3 0.15 -18.45 0.15 -17.85 0.15 -16.8 2.0 L-16.65 2.25 -16.35 2.15 Q-15.95 2.15 -15.95 2.55 L-16.2 2.85 -15.6 3.8 Q-15.5 3.65 -15.2 3.6 -14.7 3.55 -14.75 4.0 -14.8 4.5 -15.25 4.5 L-15.3 4.5 -15.05 5.3 -14.6 5.25 Q-14.0 5.35 -14.0 5.9 L-14.15 6.2 Q-14.4 6.4 -14.55 6.4 L-14.6 6.4 -13.9 7.4 Q-13.25 8.35 -13.25 8.75 L-13.3 9.2 -13.25 9.2 Q-13.2 8.65 -12.55 8.95 -11.85 9.3 -11.85 9.65 -11.9 10.1 -12.4 10.1 L-12.85 10.0 -12.8 10.15 -12.25 11.55 -12.05 12.75 Q-12.05 13.75 -12.6 14.85 L-12.7 15.05 -13.15 15.8 -13.75 16.65 M-18.55 -0.7 L-17.9 -0.8 -17.75 -0.5 -18.1 -0.15 -18.55 -0.25 -18.55 -0.7 M-17.05 1.0 Q-17.0 0.65 -16.6 0.65 -16.25 0.65 -16.3 1.05 -16.3 1.45 -16.7 1.45 -17.15 1.45 -17.05 1.0 M-15.45 1.9 L-15.9 2.15 Q-16.35 2.15 -16.3 1.7 -16.3 1.3 -15.75 1.25 -15.25 1.15 -15.25 1.55 L-15.45 1.9 M-12.85 7.15 Q-12.35 7.1 -12.35 7.7 -12.4 8.3 -12.8 8.3 -13.3 8.3 -13.35 7.7 -13.35 7.2 -12.85 7.15 M-11.0 11.65 L-11.45 11.9 Q-12.05 11.9 -12.0 11.45 -11.95 11.0 -11.35 10.9 -10.75 10.8 -10.75 11.3 L-11.0 11.65 M-22.35 2.05 L-21.1 1.6 -20.75 1.5 -20.85 1.35 -21.3 1.05 -22.35 2.05 -22.4 2.05 -22.35 2.05 M-25.9 6.4 L-25.95 6.4 -26.05 6.55 -26.0 6.9 -25.9 6.4 M-24.7 17.5 L-24.05 18.75 -23.9 18.6 -24.6 17.4 -24.7 17.5" fill="#f2eaea" fill-opacity="0.34901962" fill-rule="evenodd" stroke="none"/>
  </g>
</svg>