<?xml version="1.0" encoding="UTF-8" standalone="no"?>
<svg xmlns:xlink="http://www.w3.org/1999/xlink" height="44.35px" width="53.1px" xmlns="http://www.w3.org/2000/svg">
  <g transform="matrix(1.0, 0.0, 0.0, 1.0, 26.55, 22.15)">
    <path d="M-6.95 -20.55 L-6.75 -20.65 -3.85 -21.0 Q0.95 -21.8 8.55 -18.4 11.9 -16.95 14.35 -15.5 L14.3 -15.25 14.5 -14.6 14.7 -13.55 Q14.7 -13.3 14.15 -13.1 13.6 -12.95 13.6 -12.65 L14.65 -11.3 Q15.65 -10.05 15.65 -8.95 L15.3 -8.2 14.95 -7.7 15.2 -7.3 15.45 -6.85 15.0 -6.25 Q14.55 -5.85 14.55 -5.5 L14.85 -4.15 15.1 -2.1 Q15.1 0.2 13.9 2.05 11.9 5.1 7.1 5.1 L5.35 4.75 3.2 4.45 3.75 3.55 Q3.75 2.2 2.65 2.65 L2.2 2.2 Q1.65 0.35 -1.55 3.85 -5.8 8.45 -7.25 9.05 -16.8 12.95 -19.65 15.85 -21.05 15.45 -21.15 10.4 -21.85 11.3 -22.4 13.7 L-22.85 16.05 -23.6 13.55 Q-24.55 9.95 -24.55 7.05 -24.55 5.85 -24.1 4.6 L-23.2 2.7 -23.1 1.35 Q-23.0 0.0 -22.1 -1.1 L-21.7 -1.4 -21.55 -0.8 -21.55 -0.35 -21.7 0.4 -21.75 0.95 -21.85 1.65 -21.7 1.8 -21.4 1.35 -20.9 -0.15 -20.85 -0.35 -20.1 -1.1 -18.85 -2.3 -15.7 -5.5 -15.7 -5.4 -15.7 -5.3 Q-15.8 -4.85 -15.4 -4.85 L-15.4 -4.9 -15.1 -5.3 -14.95 -5.6 -14.7 -6.2 -14.65 -6.15 -14.65 -6.3 -14.0 -7.9 -13.95 -7.95 -13.5 -8.9 -13.3 -9.6 -13.05 -10.2 -13.0 -10.3 -12.5 -11.5 -12.0 -12.7 -9.65 -16.65 -8.35 -18.6 -7.15 -19.75 -6.95 -19.95 -6.95 -20.0 Q-6.6 -20.85 -6.4 -20.55 L-6.4 -20.6 -6.45 -20.7 -6.95 -20.55 M-20.65 19.0 L-20.75 19.15 -20.8 19.15 -20.65 19.0 M20.9 1.85 Q20.9 3.25 20.05 4.7 18.65 7.1 15.65 7.1 14.25 7.1 13.75 6.45 L13.5 5.75 Q14.05 4.25 15.05 2.85 17.0 0.0 19.25 0.0 20.35 0.0 20.75 0.9 L20.9 1.85 M-13.15 2.05 L-13.75 1.95 Q-14.5 1.95 -16.05 3.9 -17.45 5.7 -17.45 6.2 -17.45 6.55 -17.05 6.55 L-16.2 5.8 -15.4 4.7 -15.2 4.25 -15.1 4.25 -13.85 3.8 -13.8 3.9 Q-14.35 4.45 -14.35 4.7 L-14.1 5.0 -12.6 3.8 Q-12.35 3.45 -12.35 2.7 -12.35 1.75 -13.15 2.05 M-11.5 1.45 L-10.95 2.15 Q-10.6 2.15 -10.6 1.75 -10.6 1.05 -11.6 0.4 L-14.75 0.35 Q-15.95 0.9 -17.2 2.85 L-17.05 2.85 -15.75 1.65 Q-14.55 0.75 -12.95 0.75 -11.95 0.75 -11.5 1.45" fill="#f2eaea" fill-rule="evenodd" stroke="none"/>
    <path d="M14.35 -15.5 L14.65 -15.3 14.75 -15.2 16.25 -14.25 17.1 -13.6 17.3 -13.45 17.45 -13.3 18.55 -12.3 19.2 -11.65 Q20.45 -10.3 21.45 -8.55 L22.45 -6.55 Q25.5 -2.55 25.5 1.75 25.65 2.7 25.35 3.05 25.25 1.6 24.95 1.2 L24.9 1.15 24.5 3.3 24.3 4.15 23.95 5.45 23.75 5.65 Q22.5 6.75 20.65 7.7 16.4 9.8 11.75 10.45 L9.0 10.45 6.2 10.15 4.95 10.6 0.65 12.4 Q-2.65 14.25 -5.2 14.85 -8.5 16.2 -11.0 16.2 L-11.85 16.15 -12.15 15.8 Q-12.7 15.25 -13.55 15.25 L-13.3 15.2 -15.4 15.4 -16.75 15.8 -17.2 15.95 -18.85 16.85 Q-19.55 17.4 -20.65 19.0 L-20.8 19.15 Q-21.95 18.3 -22.85 16.05 L-22.4 13.7 Q-21.85 11.3 -21.15 10.4 -21.05 15.45 -19.65 15.85 -16.8 12.95 -7.25 9.05 -5.8 8.45 -1.55 3.85 1.65 0.35 2.2 2.2 L2.65 2.65 Q3.75 2.2 3.75 3.55 L3.2 4.45 5.35 4.75 7.1 5.1 Q11.9 5.1 13.9 2.05 15.1 0.2 15.1 -2.1 L14.85 -4.15 14.55 -5.5 Q14.55 -5.85 15.0 -6.25 L15.45 -6.85 15.2 -7.3 14.95 -7.7 15.3 -8.2 15.65 -8.95 Q15.65 -10.05 14.65 -11.3 L13.6 -12.65 Q13.6 -12.95 14.15 -13.1 14.7 -13.3 14.7 -13.55 L14.5 -14.6 14.3 -15.25 14.35 -15.5 M20.9 1.85 L20.75 0.9 Q20.35 0.0 19.25 0.0 17.0 0.0 15.05 2.85 14.05 4.25 13.5 5.75 L13.75 6.45 Q14.25 7.1 15.65 7.1 18.65 7.1 20.05 4.7 20.9 3.25 20.9 1.85" fill="#e0cbcb" fill-rule="evenodd" stroke="none"/>
    <path d="M25.35 3.05 L25.35 3.8 Q25.35 6.6 22.35 9.5 18.75 12.95 12.85 13.75 L8.1 13.75 8.0 13.7 5.15 13.7 Q1.9 13.95 -1.05 15.25 -3.2 16.2 -4.55 17.4 -9.05 21.2 -13.0 21.2 -15.7 21.2 -17.45 19.5 L-18.6 17.95 -19.0 18.35 -20.55 20.35 Q-23.2 20.35 -24.65 13.75 L-25.55 7.15 Q-25.55 4.4 -24.75 2.7 L-24.5 2.2 -23.95 1.35 Q-23.45 -0.3 -22.5 -1.65 L-22.05 -2.25 -21.45 -2.4 -21.05 -2.25 -20.85 -1.7 -20.5 -2.0 -20.1 -2.3 Q-18.35 -3.75 -15.95 -6.55 L-15.3 -7.4 Q-14.5 -9.9 -12.25 -13.95 L-11.4 -15.4 -11.1 -15.8 Q-8.65 -19.85 -6.95 -20.55 L-6.45 -20.7 -6.4 -20.6 -6.4 -20.55 Q-6.6 -20.85 -6.95 -20.0 L-6.95 -19.95 -7.15 -19.75 -8.35 -18.6 -9.65 -16.65 -12.0 -12.7 -12.5 -11.5 -13.0 -10.3 -13.05 -10.2 -13.3 -9.6 -13.5 -8.9 -13.95 -7.95 -14.0 -7.9 -14.65 -6.3 -14.65 -6.15 -14.7 -6.2 -14.95 -5.6 -15.1 -5.3 -15.4 -4.9 -15.4 -4.85 Q-15.8 -4.85 -15.7 -5.3 L-15.7 -5.4 -15.7 -5.5 -18.85 -2.3 -20.1 -1.1 -20.85 -0.35 -20.9 -0.15 -21.4 1.35 -21.7 1.8 -21.85 1.65 -21.75 0.95 -21.7 0.4 -21.55 -0.35 -21.55 -0.8 -21.7 -1.4 -22.1 -1.1 Q-23.0 0.0 -23.1 1.35 L-23.2 2.7 -24.1 4.6 Q-24.55 5.85 -24.55 7.05 -24.55 9.95 -23.6 13.55 L-22.85 16.05 Q-21.95 18.3 -20.8 19.15 L-20.75 19.15 -20.65 19.0 Q-19.55 17.4 -18.85 16.85 L-17.2 15.95 -16.75 15.8 -15.4 15.4 -13.3 15.2 -13.55 15.25 Q-12.7 15.25 -12.15 15.8 L-11.85 16.15 -11.75 16.35 -11.75 16.5 -11.85 16.8 -12.25 17.05 -12.45 17.0 -12.85 16.7 Q-13.2 16.3 -13.65 16.3 L-15.35 16.45 Q-16.75 16.7 -17.8 17.4 L-16.8 18.65 Q-15.35 20.15 -13.0 20.15 -9.65 20.15 -4.85 16.35 -1.05 13.05 5.0 12.7 L8.1 12.7 8.25 12.75 12.65 12.75 Q16.2 11.95 19.1 10.35 21.75 8.9 22.95 7.35 L23.4 6.65 23.85 5.7 23.95 5.45 24.3 4.15 24.5 3.3 24.9 1.15 24.95 1.2 Q25.25 1.6 25.35 3.05 M-11.5 1.45 Q-11.95 0.75 -12.95 0.75 -14.55 0.75 -15.75 1.65 L-17.05 2.85 -17.2 2.85 Q-15.95 0.9 -14.75 0.35 L-11.6 0.4 Q-10.6 1.05 -10.6 1.75 -10.6 2.15 -10.95 2.15 L-11.5 1.45 M-13.15 2.05 Q-12.35 1.75 -12.35 2.7 -12.35 3.45 -12.6 3.8 L-14.1 5.0 -14.35 4.7 Q-14.35 4.45 -13.8 3.9 L-13.85 3.8 -15.1 4.25 -15.2 4.25 -15.4 4.7 -16.2 5.8 -17.05 6.55 Q-17.45 6.55 -17.45 6.2 -17.45 5.7 -16.05 3.9 -14.5 1.95 -13.75 1.95 L-13.15 2.05" fill="#a36a6a" fill-rule="evenodd" stroke="none"/>
    <path d="M23.95 5.45 L23.85 5.7 23.4 6.65 22.95 7.35 Q21.75 8.9 19.1 10.35 16.2 11.95 12.65 12.75 L8.25 12.75 8.1 12.7 5.0 12.7 Q-1.05 13.05 -4.85 16.35 -9.65 20.15 -13.0 20.15 -15.35 20.15 -16.8 18.65 L-17.8 17.4 Q-16.75 16.7 -15.35 16.45 L-13.65 16.3 Q-13.2 16.3 -12.85 16.7 L-12.45 17.0 -12.25 17.05 -11.85 16.8 -11.75 16.5 -11.75 16.35 -11.85 16.15 -11.0 16.2 Q-8.5 16.2 -5.2 14.85 -2.65 14.25 0.65 12.4 L4.95 10.6 6.2 10.15 9.0 10.45 11.75 10.45 Q16.4 9.8 20.65 7.7 22.5 6.75 23.75 5.65 L23.95 5.45" fill="#cca9a9" fill-rule="evenodd" stroke="none"/>
  </g>
</svg>