<?xml version="1.0" encoding="UTF-8" standalone="no"?>
<svg xmlns:xlink="http://www.w3.org/1999/xlink" height="43.35px" width="52.95px" xmlns="http://www.w3.org/2000/svg">
  <g transform="matrix(1.0, 0.0, 0.0, 1.0, 26.25, 22.15)">
    <path d="M-6.95 -20.55 L-6.75 -20.65 -3.85 -21.0 Q0.95 -21.8 8.55 -18.4 11.9 -16.95 14.35 -15.5 L14.3 -15.25 14.5 -14.6 14.7 -13.55 Q14.7 -13.3 14.15 -13.1 13.6 -12.95 13.6 -12.65 L14.65 -11.3 Q15.65 -10.05 15.65 -8.95 L15.3 -8.2 14.95 -7.7 15.2 -7.3 15.45 -6.85 15.0 -6.25 Q14.55 -5.85 14.55 -5.5 L14.85 -4.15 15.1 -2.1 Q15.1 0.2 13.9 2.05 11.9 5.1 7.1 5.1 L5.35 4.75 3.2 4.45 3.75 3.55 Q3.75 2.2 2.65 2.65 L2.2 2.2 Q1.65 0.35 -1.55 3.85 L-3.25 5.7 -2.9 5.3 -3.85 5.85 Q-5.5 6.8 -6.05 6.8 -7.1 6.8 -7.5 4.85 L-7.8 2.6 -8.3 0.2 -8.45 -0.55 -8.75 -1.6 -9.0 -2.35 -9.6 -3.35 Q-11.55 -4.7 -13.6 -4.65 L-14.8 -4.65 -14.6 -5.75 -14.55 -5.95 -14.3 -6.9 -12.6 -11.25 -12.5 -11.5 -12.0 -12.7 -9.65 -16.65 -8.35 -18.6 -7.15 -19.75 -6.95 -19.95 -6.95 -20.0 Q-6.6 -20.85 -6.4 -20.55 L-6.4 -20.6 -6.45 -20.7 -6.95 -20.55 M-19.8 18.5 L-20.1 18.55 -20.3 18.55 -20.55 18.35 -22.2 16.5 -23.4 14.1 -24.1 12.1 -24.3 8.05 Q-24.3 6.0 -23.5 4.05 -22.65 2.0 -20.95 0.4 L-19.1 -1.35 -17.8 -2.35 Q-15.45 -3.9 -12.4 -3.8 L-11.6 -3.6 -10.0 -2.75 -10.2 -2.35 -10.25 -1.75 -10.1 -0.35 Q-10.1 0.5 -10.45 1.65 -10.3 1.65 -10.2 1.75 L-11.4 1.8 Q-12.8 2.4 -12.8 3.25 L-12.75 3.4 Q-14.15 4.6 -14.15 5.5 L-13.9 5.8 Q-13.7 5.8 -13.2 5.2 L-12.45 4.55 -10.7 4.2 -11.85 7.4 -13.7 11.55 Q-14.8 13.55 -16.95 15.75 L-19.8 18.5 M20.9 1.85 Q20.9 3.25 20.05 4.7 18.65 7.1 15.65 7.1 14.25 7.1 13.75 6.45 L13.5 5.75 Q14.05 4.25 15.05 2.85 17.0 0.0 19.25 0.0 20.35 0.0 20.75 0.9 L20.9 1.85 M-19.75 1.8 L-19.25 1.25 -18.55 0.3 Q-18.55 -0.45 -19.05 -0.05 -19.3 -0.2 -19.95 0.65 -20.95 2.0 -20.95 2.6 L-20.95 2.65 Q-20.95 3.1 -20.55 3.1 L-19.75 1.8" fill="#f2eaea" fill-rule="evenodd" stroke="none"/>
    <path d="M14.35 -15.5 L14.65 -15.3 14.75 -15.2 16.25 -14.25 17.1 -13.6 17.3 -13.45 17.45 -13.3 18.55 -12.3 19.2 -11.65 Q20.45 -10.3 21.45 -8.55 L22.45 -6.55 Q24.9 -3.35 25.4 0.0 L25.7 2.15 25.6 2.5 25.35 3.05 24.9 1.15 23.95 5.45 21.85 7.05 20.65 7.7 Q16.4 9.8 11.75 10.45 L9.0 10.45 6.65 10.2 6.55 10.15 4.9 9.85 1.7 10.3 -2.45 12.05 -5.55 13.45 -6.5 13.75 -8.6 14.6 -8.8 14.65 -13.7 15.95 Q-14.5 16.25 -15.5 16.7 L-19.65 18.45 -19.8 18.5 -16.95 15.75 Q-14.8 13.55 -13.7 11.55 L-11.85 7.4 -10.7 4.2 -12.45 4.55 -13.2 5.2 Q-13.7 5.8 -13.9 5.8 L-14.15 5.5 Q-14.15 4.6 -12.75 3.4 L-10.9 2.6 -10.8 2.65 -10.75 2.75 -10.7 2.8 -10.6 2.9 -10.35 3.0 Q-10.0 3.0 -10.0 2.5 L-10.0 2.4 -10.0 2.35 -10.0 2.15 -10.05 2.0 -10.2 1.75 Q-10.3 1.65 -10.45 1.65 -10.1 0.5 -10.1 -0.35 L-10.25 -1.75 -10.2 -2.35 -10.0 -2.75 -9.85 -2.35 Q-9.25 0.1 -8.25 2.45 L-8.0 2.45 -7.95 2.15 -8.3 0.25 -8.45 -0.55 -8.3 0.2 -7.8 2.6 -7.5 4.85 Q-7.1 6.8 -6.05 6.8 -5.5 6.8 -3.85 5.85 L-2.9 5.3 -3.25 5.7 -1.55 3.85 Q1.65 0.35 2.2 2.2 L2.65 2.65 Q3.75 2.2 3.75 3.55 L3.2 4.45 5.35 4.75 7.1 5.1 Q11.9 5.1 13.9 2.05 15.1 0.2 15.1 -2.1 L14.85 -4.15 14.55 -5.5 Q14.55 -5.85 15.0 -6.25 L15.45 -6.85 15.2 -7.3 14.95 -7.7 15.3 -8.2 15.65 -8.95 Q15.65 -10.05 14.65 -11.3 L13.6 -12.65 Q13.6 -12.95 14.15 -13.1 14.7 -13.3 14.7 -13.55 L14.5 -14.6 14.3 -15.25 14.35 -15.5 M20.9 1.85 L20.75 0.9 Q20.35 0.0 19.25 0.0 17.0 0.0 15.05 2.85 14.05 4.25 13.5 5.75 L13.75 6.45 Q14.25 7.1 15.65 7.1 18.65 7.1 20.05 4.7 20.9 3.25 20.9 1.85 M-19.05 -0.05 L-19.4 0.2 Q-20.3 1.1 -20.3 1.9 L-20.25 2.2 -20.15 2.15 -19.75 1.8 -20.55 3.1 Q-20.95 3.1 -20.95 2.65 L-20.95 2.6 Q-20.95 2.0 -19.95 0.65 -19.3 -0.2 -19.05 -0.05" fill="#e0cbcb" fill-rule="evenodd" stroke="none"/>
    <path d="M25.35 3.05 Q25.2 5.35 24.2 7.45 23.35 9.1 21.85 10.4 L19.6 12.05 Q16.1 13.65 9.75 14.6 6.95 15.0 4.9 15.75 L0.85 17.5 Q-5.15 20.2 -8.35 20.2 -11.1 20.2 -13.5 19.45 -15.1 18.95 -15.55 18.45 L-17.8 19.55 Q-19.05 20.2 -20.2 20.2 -21.2 20.2 -22.5 17.95 L-24.15 14.8 -25.05 12.1 -25.25 7.45 Q-25.2 5.15 -24.25 3.2 -23.3 1.15 -21.8 -0.3 L-20.95 -1.1 -19.55 -2.35 -18.9 -2.85 -15.85 -4.55 -15.7 -5.75 -15.65 -5.95 Q-15.35 -7.45 -14.65 -8.85 L-12.6 -13.3 -12.25 -13.95 -11.4 -15.4 -11.1 -15.8 Q-8.65 -19.85 -6.95 -20.55 L-6.45 -20.7 -6.4 -20.6 -6.4 -20.55 Q-6.6 -20.85 -6.95 -20.0 L-6.95 -19.95 -7.15 -19.75 -8.35 -18.6 -9.65 -16.65 -12.0 -12.7 -12.5 -11.5 -12.6 -11.25 -14.3 -6.9 -14.55 -5.95 -14.6 -5.75 -14.8 -4.65 -13.6 -4.65 Q-11.55 -4.7 -9.6 -3.35 L-9.0 -2.35 -8.75 -1.6 -8.45 -0.55 -8.3 0.25 -7.95 2.15 -8.0 2.45 -8.25 2.45 Q-9.25 0.1 -9.85 -2.35 L-10.0 -2.75 -11.6 -3.6 -12.4 -3.8 Q-15.45 -3.9 -17.8 -2.35 L-19.1 -1.35 -20.95 0.4 Q-22.65 2.0 -23.5 4.05 -24.3 6.0 -24.3 8.05 L-24.1 12.1 -23.4 14.1 -22.2 16.5 -20.55 18.35 -20.3 18.55 -20.1 18.55 -19.8 18.5 -19.65 18.45 -15.5 16.7 Q-14.5 16.25 -13.7 15.95 L-8.8 14.65 -10.3 15.5 -11.15 16.15 -12.9 17.1 -14.05 17.7 -12.9 18.2 Q-11.15 18.95 -8.35 18.95 -5.3 18.95 1.0 16.3 6.35 13.95 9.55 13.65 15.8 13.0 19.2 11.0 L19.7 10.7 21.85 8.95 22.4 8.15 23.95 5.45 24.9 1.15 25.35 3.05 M-10.2 1.75 L-10.05 2.0 -10.0 2.15 -10.0 2.35 -10.0 2.4 -10.0 2.5 Q-10.0 3.0 -10.35 3.0 L-10.6 2.9 -10.7 2.8 -10.75 2.75 -10.8 2.65 -10.9 2.6 -12.75 3.4 -12.8 3.25 Q-12.8 2.4 -11.4 1.8 L-10.2 1.75 M-19.05 -0.05 Q-18.55 -0.45 -18.55 0.3 L-19.25 1.25 -19.75 1.8 -20.15 2.15 -20.25 2.2 -20.3 1.9 Q-20.3 1.1 -19.4 0.2 L-19.05 -0.05" fill="#a36a6a" fill-rule="evenodd" stroke="none"/>
    <path d="M23.95 5.45 L22.4 8.15 21.85 8.95 19.7 10.7 19.2 11.0 Q15.8 13.0 9.55 13.65 6.35 13.95 1.0 16.3 -5.3 18.95 -8.35 18.95 -11.15 18.95 -12.9 18.2 L-14.05 17.7 -12.9 17.1 -11.15 16.15 -10.3 15.5 -8.8 14.65 -8.6 14.6 -6.5 13.75 -5.55 13.45 -2.45 12.05 1.7 10.3 4.9 9.85 6.55 10.15 6.65 10.2 9.0 10.45 11.75 10.45 Q16.4 9.8 20.65 7.7 L21.85 7.05 23.95 5.45" fill="#cca9a9" fill-rule="evenodd" stroke="none"/>
  </g>
</svg>