<?xml version="1.0" encoding="UTF-8" standalone="no"?>
<svg xmlns:xlink="http://www.w3.org/1999/xlink" height="38.8px" width="29.3px" xmlns="http://www.w3.org/2000/svg">
  <g transform="matrix(1.0, 0.0, 0.0, 1.0, 14.65, 19.4)">
    <path d="M0.65 -3.1 L1.2 -2.7 0.65 -3.0 0.65 -3.1 M7.0 4.25 L7.0 4.15 7.1 4.2 7.0 4.25" fill="#e0cbcb" fill-rule="evenodd" stroke="none"/>
    <path d="M0.3 0.45 L0.35 -0.3 -0.05 -3.3 -0.15 -3.75 -0.1 -3.7 0.05 -3.55 0.65 -3.1 0.65 -3.0 1.2 -2.7 3.05 -1.4 Q4.9 -0.35 5.6 1.85 L6.35 4.45 6.7 6.55 Q6.5 7.2 5.85 7.2 4.7 7.2 4.3 5.95 L3.8 4.0 2.65 1.6 2.5 1.55 0.45 0.75 0.3 0.45 M7.55 7.5 L7.15 5.1 7.0 4.25 7.1 4.2 Q7.95 4.85 9.55 5.75 10.8 6.4 11.65 7.05 L12.4 7.75 12.5 7.85 12.5 7.9 12.4 7.9 10.95 8.4 10.45 8.6 8.65 8.1 7.55 7.5 M-10.7 -16.15 L-10.55 -16.05 -9.4 -15.05 Q-6.75 -12.75 -6.3 -11.75 L-6.2 -11.45 -6.05 -11.1 -6.1 -11.15 -6.35 -11.55 -7.05 -11.5 Q-9.35 -11.5 -10.25 -13.75 -10.7 -14.85 -10.7 -16.15 M-4.9 -6.7 L-4.8 -7.7 -4.8 -8.2 -4.9 -9.3 -4.1 -8.8 -3.1 -8.2 -2.25 -7.6 -1.65 -6.2 -1.3 -4.75 -0.9 -3.6 -1.0 -3.6 -1.0 -3.5 -1.1 -3.0 -1.85 -2.8 Q-1.85 -2.45 -2.4 -2.6 -3.0 -2.8 -3.6 -3.65 L-4.2 -4.55 -4.75 -6.35 -4.9 -6.7" fill="#ffffcc" fill-rule="evenodd" stroke="none"/>
    <path d="M0.65 -3.1 L0.05 -3.55 -0.1 -3.7 -0.15 -3.75 -0.05 -3.3 0.35 -0.3 0.3 0.45 0.0 0.9 -0.6 -1.95 -0.9 -3.6 -1.3 -4.75 -1.65 -6.2 -2.25 -7.6 -3.1 -8.2 -4.1 -8.8 -4.9 -9.3 -4.8 -8.2 -4.8 -7.7 -4.9 -6.7 -5.1 -6.2 -5.45 -7.65 -5.5 -8.2 -5.7 -9.7 -6.05 -11.1 -6.2 -11.45 -6.3 -11.75 Q-6.75 -12.75 -9.4 -15.05 L-10.55 -16.05 -10.7 -16.15 -12.5 -17.4 Q-12.8 -17.4 -12.75 -16.9 L-12.15 -15.6 -12.1 -15.5 -12.1 -15.65 -12.15 -16.45 Q-12.2 -16.8 -11.75 -16.05 L-10.95 -14.4 Q-10.65 -13.5 -10.75 -12.25 -10.9 -11.0 -9.5 -10.4 -8.1 -9.85 -7.65 -9.35 L-7.05 -8.2 -6.9 -7.6 -6.6 -6.0 -6.1 -4.3 -4.1 -2.65 -2.1 -1.0 Q-1.65 -0.35 -1.5 0.65 L-1.25 2.3 -0.65 3.85 Q-0.15 4.75 1.1 5.45 2.1 5.95 2.8 6.8 L2.7 5.9 2.55 4.7 2.35 3.5 2.6 2.8 Q3.4 4.85 3.75 8.05 L4.5 10.7 4.85 11.45 5.85 12.45 6.1 12.6 6.15 12.4 6.15 12.45 6.15 12.55 7.05 12.65 7.6 12.75 Q9.85 12.75 11.5 11.05 12.75 9.7 12.75 8.8 L12.65 8.0 12.6 7.9 12.5 7.9 12.5 7.85 12.4 7.75 11.65 7.05 Q10.8 6.4 9.55 5.75 7.95 4.85 7.1 4.2 L7.0 4.15 7.0 4.25 7.15 5.1 7.55 7.5 7.65 8.25 7.45 8.45 Q7.0 8.45 6.7 6.55 L6.35 4.45 5.6 1.85 Q4.9 -0.35 3.05 -1.4 L1.2 -2.7 0.65 -3.1 M1.5 -3.35 L3.45 -2.35 Q5.9 -0.95 6.35 1.15 L6.7 2.6 6.75 2.65 7.65 3.5 10.1 4.95 Q11.25 5.45 12.35 6.35 L12.45 6.45 13.25 7.2 13.55 7.6 13.45 7.65 13.65 8.8 Q13.65 10.35 11.8 11.8 9.6 13.55 6.2 13.55 L6.0 13.55 5.85 13.8 5.9 13.5 5.7 13.5 5.4 13.4 5.05 13.25 Q3.75 12.55 3.15 9.8 L3.1 9.25 2.8 8.7 2.4 7.75 0.35 6.0 -1.1 4.7 -1.75 3.05 -2.45 -0.05 Q-2.65 -1.05 -4.35 -1.9 -6.05 -2.75 -6.65 -3.6 -7.25 -4.45 -7.45 -6.0 L-7.9 -8.2 Q-8.25 -9.2 -9.0 -9.45 -10.7 -10.0 -11.25 -10.9 L-11.7 -12.5 -11.7 -13.0 -12.1 -14.0 Q-12.4 -14.85 -12.95 -15.3 L-13.6 -16.1 -13.65 -17.0 Q-13.65 -19.9 -10.15 -16.8 L-8.55 -15.35 -6.95 -13.8 Q-5.8 -12.95 -5.25 -10.95 L-5.1 -10.35 -4.65 -9.9 -3.95 -9.65 -2.9 -9.15 Q-2.1 -8.85 -1.9 -8.6 L-1.5 -8.2 Q-0.75 -7.25 -0.6 -5.85 L-0.4 -5.1 0.3 -4.35 Q0.85 -3.75 1.5 -3.35" fill="#885f55" fill-rule="evenodd" stroke="none"/>
    <path d="M6.7 6.55 Q7.0 8.45 7.45 8.45 L7.65 8.25 7.55 7.5 8.65 8.1 10.45 8.6 10.95 8.4 12.4 7.9 12.5 7.9 12.6 7.9 12.65 8.0 12.75 8.8 Q12.75 9.7 11.5 11.05 9.85 12.75 7.6 12.75 L7.05 12.65 6.15 12.55 6.15 12.45 6.15 12.4 6.1 12.6 5.85 12.45 4.85 11.45 4.5 10.7 3.75 8.05 Q3.4 4.85 2.6 2.8 L2.35 3.5 2.55 4.7 2.7 5.9 2.8 6.8 Q2.1 5.95 1.1 5.45 -0.15 4.75 -0.65 3.85 L-1.25 2.3 -1.5 0.65 Q-1.65 -0.35 -2.1 -1.0 L-4.1 -2.65 -6.1 -4.3 -6.6 -6.0 -6.9 -7.6 -7.05 -8.2 -7.65 -9.35 Q-8.1 -9.85 -9.5 -10.4 -10.9 -11.0 -10.75 -12.25 -10.65 -13.5 -10.95 -14.4 L-11.75 -16.05 Q-12.2 -16.8 -12.15 -16.45 L-12.1 -15.65 -12.15 -15.6 -12.75 -16.9 Q-12.8 -17.4 -12.5 -17.4 L-10.7 -16.15 Q-10.7 -14.85 -10.25 -13.75 -9.35 -11.5 -7.05 -11.5 L-6.35 -11.55 -6.1 -11.15 -6.05 -11.1 -5.7 -9.7 -5.5 -8.2 -5.45 -7.65 -5.1 -6.2 -4.9 -6.7 -4.75 -6.35 -4.2 -4.55 -3.6 -3.65 Q-3.0 -2.8 -2.4 -2.6 -1.85 -2.45 -1.85 -2.8 L-1.1 -3.0 -1.0 -3.5 -1.0 -3.6 -0.9 -3.6 -0.6 -1.95 0.0 0.9 0.3 0.45 0.45 0.75 2.5 1.55 2.65 1.6 3.8 4.0 4.3 5.95 Q4.7 7.2 5.85 7.2 6.5 7.2 6.7 6.55" fill="#c9a97a" fill-rule="evenodd" stroke="none"/>
    <path d="M-12.1 -15.65 L-12.1 -15.5 -12.15 -15.6 -12.1 -15.65 M7.45 14.8 L7.15 14.75 7.45 14.75 7.45 14.8 M7.45 18.4 L6.5 17.4 6.45 17.35 6.55 17.3 7.0 17.3 Q6.9 17.9 7.45 18.4" fill="#f2eaea" fill-rule="evenodd" stroke="none"/>
  </g>
</svg>