<?xml version="1.0" encoding="UTF-8" standalone="no"?>
<svg xmlns:xlink="http://www.w3.org/1999/xlink" height="13.6px" width="11.3px" xmlns="http://www.w3.org/2000/svg">
  <g transform="matrix(1.0, 0.0, 0.0, 1.0, 1.75, -0.05)">
    <path d="M5.45 4.7 L7.8 6.05 Q8.55 6.55 8.55 7.25 L8.4 7.9 7.6 9.4 6.9 10.15 4.85 11.4 Q3.95 11.95 2.85 12.3 L1.8 12.35 1.7 12.6 1.6 12.65 1.45 12.65 0.8 12.0 0.15 10.6 -0.35 9.2 -0.5 8.55 Q-1.0 6.1 -0.5 3.8 -0.25 2.65 0.35 1.65 0.7 1.0 1.4 1.05 L1.95 1.45 2.55 2.15 Q3.8 3.65 5.45 4.7 M6.1 9.9 L7.0 9.15 7.55 7.95 7.75 7.05 7.4 6.75 6.85 6.35 4.5 4.9 3.95 4.5 2.95 3.55 1.55 2.15 1.1 1.85 0.65 2.7 0.25 3.75 Q0.0 4.75 0.0 6.05 L0.05 7.45 0.3 8.7 0.65 10.45 Q0.8 11.15 1.1 11.5 L1.5 11.85 3.3 11.45 2.7 10.7 2.4 10.25 Q1.6 8.65 1.3 7.0 L1.3 6.8 1.4 6.95 1.85 7.8 2.3 8.6 2.35 8.9 3.0 9.9 4.0 11.15 4.35 10.95 3.95 10.4 3.4 9.55 2.7 8.1 2.1 6.6 2.05 6.5 2.0 6.4 1.85 6.0 1.9 6.2 1.85 6.05 1.75 5.3 2.35 6.4 2.9 7.7 3.55 8.8 4.4 9.75 5.0 10.6 6.1 9.9" fill="#885f55" fill-rule="evenodd" stroke="none"/>
    <path d="M0.25 3.75 L0.65 2.7 1.1 1.85 1.55 2.15 2.95 3.55 3.95 4.5 4.5 4.9 6.85 6.35 7.4 6.75 7.75 7.05 7.55 7.95 7.0 9.15 6.1 9.9 5.45 9.3 4.85 8.7 3.75 7.55 2.85 6.3 2.35 5.3 1.7 4.4 1.55 4.5 1.55 4.7 1.55 5.0 1.7 5.35 1.75 5.3 1.85 6.05 1.9 6.2 2.4 8.35 2.3 8.15 1.55 6.9 0.8 5.5 0.55 4.75 0.25 3.75" fill="#ffffcc" fill-rule="evenodd" stroke="none"/>
    <path d="M6.1 9.9 L5.0 10.6 4.4 9.75 3.55 8.8 2.9 7.7 2.35 6.4 1.75 5.3 1.7 5.35 1.55 5.0 1.55 4.7 1.55 4.5 1.7 4.4 2.35 5.3 2.85 6.3 3.75 7.55 4.85 8.7 5.45 9.3 6.1 9.9 M1.9 6.2 L1.85 6.0 2.0 6.4 2.05 6.5 2.1 6.6 2.7 8.1 3.4 9.55 3.95 10.4 4.35 10.95 4.0 11.15 3.0 9.9 2.35 8.9 2.3 8.6 1.85 7.8 1.4 6.95 1.3 6.8 1.3 7.0 Q1.6 8.65 2.4 10.25 L2.7 10.7 3.3 11.45 1.5 11.85 1.1 11.5 Q0.8 11.15 0.65 10.45 L0.3 8.7 0.05 7.45 0.0 6.05 Q0.0 4.75 0.25 3.75 L0.55 4.75 0.8 5.5 1.55 6.9 2.3 8.15 2.4 8.35 1.9 6.2" fill="#c9a97a" fill-rule="evenodd" stroke="none"/>
  </g>
</svg>