<?xml version="1.0" encoding="UTF-8" standalone="no"?>
<svg xmlns:xlink="http://www.w3.org/1999/xlink" height="12.1px" width="12.05px" xmlns="http://www.w3.org/2000/svg">
  <g transform="matrix(1.0, 0.0, 0.0, 1.0, 1.45, 5.35)">
    <path d="M3.05 -4.35 L4.55 -4.05 4.9 -3.95 5.2 -3.85 5.2 -3.9 5.35 -4.0 5.5 -4.0 6.9 -3.05 8.6 -1.45 Q9.6 -0.15 9.6 1.6 L9.6 2.1 9.55 2.2 9.4 2.35 7.95 3.95 7.05 4.9 7.0 4.9 6.65 5.2 6.35 5.45 6.3 5.45 4.7 5.75 Q3.65 5.75 2.8 5.15 L2.7 5.05 2.7 4.85 2.75 4.8 1.5 3.5 Q0.95 2.8 0.55 1.9 L0.55 1.95 Q-0.45 0.0 -0.45 -1.6 -0.45 -2.5 0.05 -3.2 0.9 -4.35 3.05 -4.35" fill="#ffffff" fill-rule="evenodd" stroke="none"/>
  </g>
</svg>