<?xml version="1.0" encoding="UTF-8" standalone="no"?>
<svg xmlns:xlink="http://www.w3.org/1999/xlink" height="17.05px" width="15.8px" xmlns="http://www.w3.org/2000/svg">
  <g transform="matrix(1.0, 0.0, 0.0, 1.0, 4.9, 4.6)">
    <path d="M-3.65 1.1 Q-3.0 -0.8 -0.35 -2.3 3.0 -4.15 4.75 -3.35 L6.15 -3.35 Q8.0 -3.05 9.1 -0.9 9.9 0.75 9.9 2.25 L9.05 6.95 Q8.35 9.8 4.3 11.45 L1.9 11.45 Q-2.2 10.9 -3.4 8.55 -3.85 7.65 -3.9 5.4 L-3.55 6.2 -2.1 7.3 Q-0.45 8.15 1.35 8.15 3.3 8.15 5.0 6.2 6.7 4.25 6.7 2.0 6.7 0.65 5.0 -0.6 3.2 -1.95 1.15 -1.95 -0.6 -1.95 -2.4 -0.45 L-3.5 0.75 -3.65 1.1" fill="#c7c9da" fill-rule="evenodd" stroke="none"/>
    <path d="M-3.65 1.1 L-3.5 0.75 -2.4 -0.45 Q-0.6 -1.95 1.15 -1.95 3.2 -1.95 5.0 -0.6 6.7 0.65 6.7 2.0 6.7 4.25 5.0 6.2 3.3 8.15 1.35 8.15 -0.45 8.15 -2.1 7.3 L-3.55 6.2 -3.9 5.4 -3.9 2.5 -3.9 2.2 -3.65 1.1" fill="#ffffff" fill-rule="evenodd" stroke="none"/>
  </g>
</svg>