<?xml version="1.0" encoding="UTF-8" standalone="no"?>
<svg xmlns:xlink="http://www.w3.org/1999/xlink" height="25.75px" width="31.9px" xmlns="http://www.w3.org/2000/svg">
  <g transform="matrix(1.0, 0.0, 0.0, 1.0, 4.3, 1.8)">
    <path d="M-0.6 -0.8 L1.05 -0.45 Q1.8 -0.1 1.8 0.25 1.8 0.65 1.25 0.75 L0.35 0.8 Q-1.8 0.8 -1.8 -0.15 -1.9 -0.8 -0.6 -0.8 M-2.0 12.2 L-2.45 12.3 Q-3.15 12.3 -3.3 11.6 -3.3 10.95 -2.45 11.2 -1.6 11.45 -1.6 11.9 -1.6 12.05 -2.0 12.2 M26.5 16.6 L22.35 19.4 Q20.2 20.7 17.8 21.7 L13.0 22.95 10.85 22.65 15.15 21.85 Q17.55 21.35 19.7 20.15 L23.55 17.7 Q24.75 16.7 26.1 15.75 L26.45 15.8 26.6 16.15 26.5 16.6" fill="#ffffff" fill-rule="evenodd" stroke="none"/>
  </g>
</svg>