<?xml version="1.0" encoding="UTF-8" standalone="no"?>
<svg xmlns:xlink="http://www.w3.org/1999/xlink" height="20.65px" width="25px" xmlns="http://www.w3.org/2000/svg">
  <g transform="matrix(1.0, 0.0, 0.0, 1.0, 12.5, 10.35)">
    <path d="M9.5 -3.1 L9.1 -3.95 8.25 -6.25 8.15 -6.85 8.15 -7.5 8.0 -7.7 Q7.5 -8.15 5.8 -8.3 L2.25 -8.3 Q-0.4 -8.05 -1.6 -7.35 L-1.65 -7.35 -2.05 -7.1 -3.85 -5.75 -6.05 -4.45 -7.75 -3.3 Q-8.6 -2.6 -9.55 -0.55 -10.45 1.55 -10.45 2.8 -10.45 4.5 -9.4 5.9 -7.8 7.85 -4.35 8.2 L-1.25 8.2 Q5.1 8.25 8.3 5.2 10.55 3.05 10.55 0.65 L10.55 -0.05 10.2 -1.5 9.5 -3.1 M7.0 -6.1 L7.0 -4.55 Q7.05 -3.65 7.45 -2.2 L7.55 -1.8 7.75 0.0 7.6 1.3 7.45 2.05 6.85 3.45 Q6.05 5.05 5.05 5.4 2.7 7.4 1.55 7.4 L1.0 7.2 Q1.05 6.9 2.05 6.25 L3.35 5.45 4.25 4.9 5.2 3.95 6.25 2.65 6.5 1.85 6.55 1.75 6.75 1.15 6.85 0.4 6.85 0.0 6.75 -1.05 6.55 -2.05 6.25 -4.1 6.2 -6.15 Q6.2 -7.2 -0.05 -7.4 L-0.65 -7.45 -0.7 -7.5 -0.55 -7.5 Q6.55 -7.95 6.95 -6.85 L6.95 -6.75 7.0 -6.1 M8.9 -8.6 Q9.35 -7.85 9.3 -6.9 9.25 -6.0 9.55 -5.2 L10.55 -3.1 10.75 -2.75 Q11.9 -1.0 11.25 1.2 L11.0 2.05 10.8 2.75 10.85 3.05 11.15 3.3 Q10.55 4.65 9.25 5.9 5.8 9.2 -1.4 9.3 L-4.35 9.3 Q-8.5 8.85 -10.3 6.55 -11.5 5.0 -11.5 2.8 L-10.85 -0.45 Q-10.35 -2.25 -8.85 -3.7 -7.25 -5.15 -4.35 -6.7 -3.35 -7.2 -2.45 -8.35 -1.25 -9.25 2.05 -9.35 L6.1 -9.35 Q8.4 -9.3 8.9 -8.6" fill="#a36a6a" fill-rule="evenodd" stroke="none"/>
    <path d="M8.15 -6.85 L7.95 -6.75 7.0 -6.1 6.95 -6.75 6.95 -6.85 Q6.55 -7.95 -0.55 -7.5 L-1.2 -7.5 -1.6 -7.35 Q-0.4 -8.05 2.25 -8.3 L5.8 -8.3 Q7.5 -8.15 8.0 -7.7 L8.15 -7.5 8.15 -6.85 M7.55 -1.8 L8.85 -2.65 9.5 -3.1 10.2 -1.5 10.55 -0.05 9.2 0.9 7.45 2.05 7.6 1.3 7.75 0.0 7.55 -1.8 M2.05 6.25 L-1.25 6.7 -5.05 6.0 Q-6.75 5.45 -7.1 5.05 L-7.85 4.5 -8.65 3.8 Q-8.65 3.75 -9.0 3.65 L-9.35 3.3 -9.35 2.7 Q-9.35 1.0 -7.55 -0.85 -5.8 -2.7 -3.45 -3.6 L-3.2 -3.6 -4.15 -2.9 -5.05 -2.2 -5.7 -0.65 -5.5 0.75 Q-5.2 1.5 -3.95 2.15 L-1.9 3.0 1.75 3.7 3.9 3.25 5.1 2.6 6.5 1.6 6.65 1.3 6.75 1.15 6.55 1.75 6.5 1.85 6.25 2.65 5.2 3.95 4.25 4.9 3.35 5.45 2.05 6.25" fill="#f2eaea" fill-rule="evenodd" stroke="none"/>
    <path d="M8.15 -6.85 L8.25 -6.25 9.1 -3.95 9.5 -3.1 8.85 -2.65 7.55 -1.8 7.45 -2.2 Q7.05 -3.65 7.0 -4.55 L7.0 -6.1 7.95 -6.75 8.15 -6.85 M10.55 -0.05 L10.55 0.65 Q10.55 3.05 8.3 5.2 5.1 8.25 -1.25 8.2 L-4.35 8.2 Q-7.8 7.85 -9.4 5.9 -10.45 4.5 -10.45 2.8 -10.45 1.55 -9.55 -0.55 -8.6 -2.6 -7.75 -3.3 L-6.05 -4.45 -3.85 -5.75 -2.05 -7.1 -1.65 -7.35 -1.6 -7.35 -1.2 -7.5 -0.55 -7.5 -0.7 -7.5 -0.65 -7.45 -0.05 -7.4 Q6.2 -7.2 6.2 -6.15 L6.25 -4.1 6.55 -2.05 6.75 -1.05 6.85 0.0 6.85 0.4 6.75 1.15 6.65 1.3 6.5 1.6 5.1 2.6 3.9 3.25 1.75 3.7 -1.9 3.0 -3.95 2.15 Q-5.2 1.5 -5.5 0.75 L-5.7 -0.65 -5.05 -2.2 -4.15 -2.9 -3.2 -3.6 -3.45 -3.6 Q-5.8 -2.7 -7.55 -0.85 -9.35 1.0 -9.35 2.7 L-9.35 3.3 -9.0 3.65 Q-8.65 3.75 -8.65 3.8 L-7.85 4.5 -7.1 5.05 Q-6.75 5.45 -5.05 6.0 L-1.25 6.7 2.05 6.25 Q1.05 6.9 1.0 7.2 L1.55 7.4 Q2.7 7.4 5.05 5.4 6.05 5.05 6.85 3.45 L7.45 2.05 9.2 0.9 10.55 -0.05 M2.9 -1.05 Q4.45 -2.25 4.45 -3.25 4.45 -4.9 1.5 -5.2 -1.5 -5.5 -1.5 -2.75 -1.3 0.1 0.55 0.1 1.45 0.1 2.9 -1.05" fill="#e0cbcb" fill-rule="evenodd" stroke="none"/>
    <path d="M2.9 -1.05 Q1.45 0.1 0.55 0.1 -1.3 0.1 -1.5 -2.75 -1.5 -5.5 1.5 -5.2 4.45 -4.9 4.45 -3.25 4.45 -2.25 2.9 -1.05" fill="#cca9a9" fill-rule="evenodd" stroke="none"/>
  </g>
</svg>