<?xml version="1.0" encoding="UTF-8" standalone="no"?>
<svg xmlns:xlink="http://www.w3.org/1999/xlink" height="12.85px" width="9.95px" xmlns="http://www.w3.org/2000/svg">
  <g transform="matrix(1.0, 0.0, 0.0, 1.0, 12.5, 4.55)">
    <path d="M-10.2 -2.4 L-9.75 -1.95 -9.35 -1.55 -9.0 -0.95 -8.5 -1.0 Q-8.35 -1.0 -8.25 -1.1 L-8.75 -2.5 -8.5 -3.0 -8.0 -2.3 -7.35 -1.1 Q-6.6 -0.1 -6.55 0.65 L-6.55 0.5 -6.1 1.25 -6.25 1.3 -6.5 1.1 -6.55 1.2 -6.65 1.25 -6.9 0.85 -7.7 -0.55 -7.95 -0.3 -7.8 0.1 -7.95 0.5 -8.1 0.75 -7.65 1.8 -7.2 2.75 Q-7.2 3.05 -7.45 3.05 L-8.25 1.85 -9.4 -0.15 -11.5 -3.45 -11.45 -3.55 -11.1 -3.2 -10.65 -2.9 -10.2 -2.4 M-4.3 5.85 Q-3.95 6.25 -3.9 6.65 L-3.55 7.0 -3.8 7.2 -4.05 7.1 -4.15 7.1 Q-4.35 7.25 -4.5 7.25 L-4.9 7.15 -5.7 7.3 -6.35 6.85 -6.6 6.15 Q-6.6 5.6 -6.1 6.0 -5.65 6.35 -5.55 6.6 L-4.95 6.5 -4.55 6.7 -4.35 6.6 -4.5 6.65 -4.75 6.0 Q-4.75 5.45 -4.3 5.85" fill="#ffffff" fill-rule="evenodd" stroke="none"/>
  </g>
</svg>