<?xml version="1.0" encoding="UTF-8" standalone="no"?>
<svg xmlns:xlink="http://www.w3.org/1999/xlink" height="28.2px" width="34.75px" xmlns="http://www.w3.org/2000/svg">
  <g transform="matrix(1.0, 0.0, 0.0, 1.0, -20.1, -8)">
    <path d="M41.3 23.15 Q41.3 22.6 41.7 22.85 L42.1 23.45 41.8 23.55 Q41.4 23.55 41.3 23.35 L41.3 23.15 M42.85 23.75 Q43.2 23.6 43.2 24.05 L43.1 24.75 42.65 24.85 42.5 24.2 Q42.5 23.95 42.85 23.75 M52.6 34.85 L52.0 34.6 51.95 34.35 Q51.95 34.0 52.55 34.05 53.1 34.1 53.1 34.45 L52.6 34.85 M53.7 35.2 Q52.9 35.0 53.2 34.6 L53.6 34.75 53.85 34.9 53.7 35.2 M21.15 9.05 L21.3 9.0 21.5 9.35 21.3 9.45 21.1 9.2 21.15 9.05 M22.05 10.9 Q21.7 10.9 21.55 10.6 L21.5 10.3 Q21.5 9.3 22.05 9.5 22.55 9.7 22.55 10.45 L22.05 10.9 M23.6 12.3 Q23.15 12.35 23.15 11.95 23.15 11.65 23.5 11.65 L23.8 11.95 23.6 12.3 M24.0 13.15 L23.75 12.95 23.75 12.4 Q24.25 12.2 24.25 12.7 L24.0 13.15 M32.4 18.3 Q32.4 17.7 33.1 17.85 L33.3 17.9 Q33.3 17.5 33.75 17.55 34.2 17.6 34.2 17.9 34.2 18.3 33.75 18.3 33.75 18.8 32.95 18.8 L32.5 18.55 32.4 18.3 M31.55 17.75 Q31.1 17.75 31.1 17.4 31.1 17.1 31.6 17.1 32.1 17.1 32.1 17.45 L31.55 17.75 M34.8 19.85 Q34.35 19.85 34.35 19.5 34.35 19.2 34.65 19.25 L34.95 19.55 34.8 19.85 M34.65 19.2 L34.35 19.0 34.25 18.8 Q34.25 18.4 34.65 18.45 L35.0 18.85 34.65 19.2" fill="#ffffff" fill-opacity="0.6" fill-rule="evenodd" stroke="none"/>
  </g>
</svg>