<?xml version="1.0" encoding="UTF-8" standalone="no"?>
<svg xmlns:xlink="http://www.w3.org/1999/xlink" height="41.05px" width="39.3px" xmlns="http://www.w3.org/2000/svg">
  <g transform="matrix(1.0, 0.0, 0.0, 1.0, 23.4, 18.75)">
    <path d="M-20.3 1.7 L-20.55 0.55 Q-22.3 -9.05 -22.3 -11.85 L-22.25 -13.75 -21.75 -16.15 -21.7 -16.25 -22.0 -16.15 Q-22.4 -16.15 -22.4 -16.45 -22.4 -16.85 -21.25 -17.3 L-20.85 -17.4 -20.15 -16.85 -16.4 -14.1 Q-12.05 -11.15 -9.9 -10.8 L-8.15 -9.95 Q0.85 -5.7 3.7 -3.55 9.6 0.95 11.65 3.65 14.0 6.75 14.0 10.65 L13.55 12.8 12.9 13.6 10.95 15.9 Q10.05 16.55 7.75 17.55 4.7 18.85 2.7 18.85 L2.25 18.8 1.65 19.1 Q2.8 18.6 3.6 17.65 5.25 17.15 6.7 14.1 8.05 11.25 8.05 10.2 8.05 7.9 5.15 4.75 1.3 0.55 -4.45 0.55 L-14.85 1.2 -19.05 1.2 -20.4 1.15 -20.3 1.7" fill="#f2eaea" fill-rule="evenodd" stroke="none"/>
    <path d="M-20.85 -17.4 L-21.15 -17.65 Q-20.05 -18.05 -18.4 -16.7 L-17.65 -16.1 -17.8 -16.15 -13.35 -13.55 Q-9.7 -11.5 -6.95 -10.3 -3.9 -9.2 -0.25 -7.2 3.3 -5.25 5.15 -3.7 11.0 1.2 12.8 3.8 14.9 6.75 14.9 10.65 14.9 13.35 12.2 16.6 8.3 21.3 1.25 21.3 -1.35 21.3 -2.9 19.15 L-2.55 18.75 -0.45 18.9 Q2.0 18.9 3.15 16.55 3.85 15.1 3.85 13.9 3.85 12.75 2.9 11.1 1.45 8.55 -1.25 8.55 -2.4 8.55 -8.8 10.55 L-15.3 12.55 -15.85 12.55 -17.15 12.25 -15.9 11.95 -8.35 9.5 Q-2.65 7.6 -1.35 7.6 2.0 7.6 3.7 10.65 4.75 12.55 4.75 13.9 L4.75 14.05 Q4.7 15.95 3.85 17.25 L3.75 17.45 3.6 17.65 Q2.8 18.6 1.65 19.1 L-0.5 19.55 -0.9 19.55 -1.35 19.55 Q-0.2 20.35 1.15 20.35 L1.35 20.35 2.2 20.35 Q6.0 20.1 8.75 18.45 10.35 17.45 11.6 15.9 12.95 14.25 13.55 12.8 L14.0 10.65 Q14.0 6.75 11.65 3.65 9.6 0.95 3.7 -3.55 0.85 -5.7 -8.15 -9.95 L-9.9 -10.8 Q-12.05 -11.15 -16.4 -14.1 L-20.15 -16.85 -20.85 -17.4" fill="#a36a6a" fill-rule="evenodd" stroke="none"/>
    <path d="M-15.85 12.55 Q-16.0 12.75 -16.35 12.75 -17.7 12.75 -18.5 10.25 L-19.35 6.7 -20.2 2.25 -20.3 1.7 -20.4 1.15 -19.05 1.2 -14.85 1.2 -4.45 0.55 Q1.3 0.55 5.15 4.75 8.05 7.9 8.05 10.2 8.05 11.25 6.7 14.1 5.25 17.15 3.6 17.65 L3.75 17.45 3.85 17.25 Q4.7 15.95 4.75 14.05 L4.75 13.9 Q4.75 12.55 3.7 10.65 2.0 7.6 -1.35 7.6 -2.65 7.6 -8.35 9.5 L-15.9 11.95 -17.15 12.25 -15.85 12.55 M13.55 12.8 Q12.95 14.25 11.6 15.9 10.35 17.45 8.75 18.45 6.0 20.1 2.2 20.35 L1.35 20.35 1.15 20.35 Q-0.2 20.35 -1.35 19.55 L-0.9 19.55 -0.5 19.55 1.65 19.1 2.25 18.8 2.7 18.85 Q4.7 18.85 7.75 17.55 10.05 16.55 10.95 15.9 L12.9 13.6 13.55 12.8" fill="#e0cbcb" fill-rule="evenodd" stroke="none"/>
  </g>
</svg>