<?xml version="1.0" encoding="UTF-8" standalone="no"?>
<svg xmlns:xlink="http://www.w3.org/1999/xlink" height="15.75px" width="19.5px" xmlns="http://www.w3.org/2000/svg">
  <g transform="matrix(1.0, 0.0, 0.0, 1.0, 9.75, 7.85)">
    <path d="M7.95 -3.15 Q8.4 -2.0 4.45 -0.9 L0.7 -0.1 Q0.1 0.1 -1.35 -0.75 L-3.4 -2.0 Q0.0 -2.25 0.0 -3.55 0.0 -4.15 -0.6 -4.3 L2.1 -4.9 4.8 -5.25 5.4 -5.2 4.8 -5.25 2.1 -4.9 -0.6 -4.3 -0.65 -4.3 -1.25 -4.45 Q-1.6 -5.3 -3.45 -5.5 -4.3 -5.55 -4.8 -5.0 L-5.3 -4.15 Q-5.3 -3.4 -4.75 -2.95 L-5.25 -2.85 -7.6 -3.8 -8.25 -4.3 -8.6 -4.0 Q-8.25 -4.5 -7.45 -4.8 L-4.3 -5.65 1.3 -6.85 Q2.8 -6.85 5.4 -5.2 L5.45 -5.2 Q7.5 -3.95 7.95 -3.15 M0.3 -0.75 Q1.15 -0.75 1.45 -1.15 L1.35 -1.2 Q0.6 -0.9 -0.7 -1.55 -1.8 -2.25 -1.8 -1.75 L-1.15 -1.15 Q-0.45 -0.75 0.3 -0.75 M-8.7 -3.15 L-8.75 -3.4 -8.7 -3.2 -8.7 -3.15 M-6.05 -3.95 L-5.8 -3.95 -5.75 -4.15 -6.3 -4.65 Q-6.5 -4.9 -6.65 -4.8 L-6.8 -4.6 -6.05 -3.95" fill="#9f7960" fill-rule="evenodd" stroke="none"/>
    <path d="M0.3 -0.75 Q-0.45 -0.75 -1.15 -1.15 L-1.8 -1.75 Q-1.8 -2.25 -0.7 -1.55 0.6 -0.9 1.35 -1.2 L1.45 -1.15 Q1.15 -0.75 0.3 -0.75 M-6.05 -3.95 L-6.8 -4.6 -6.65 -4.8 Q-6.5 -4.9 -6.3 -4.65 L-5.75 -4.15 -5.8 -3.95 -6.05 -3.95" fill="#fce7b6" fill-rule="evenodd" stroke="none"/>
    <path d="M-0.6 -4.3 Q0.0 -4.15 0.0 -3.55 0.0 -2.25 -3.4 -2.0 L-1.35 -0.75 Q0.1 0.1 0.7 -0.1 L4.45 -0.9 Q8.4 -2.0 7.95 -3.15 L8.0 -3.0 8.25 -2.45 Q8.75 -0.9 8.75 1.45 L8.65 3.45 Q8.3 4.55 6.7 5.2 L1.35 6.8 -0.1 6.85 Q-2.2 6.15 -3.9 5.05 L-6.45 3.1 -7.8 1.85 Q-8.35 1.35 -8.3 0.55 L-8.45 -1.0 -8.7 -2.1 -8.7 -3.15 -8.7 -3.2 -8.75 -3.4 -8.75 -3.65 -8.75 -3.8 -8.6 -4.0 -8.25 -4.3 -7.6 -3.8 -5.25 -2.85 -4.75 -2.95 -4.7 -2.95 -4.0 -2.8 -1.95 -3.1 Q-1.2 -3.5 -1.2 -4.0 L-1.2 -4.25 -0.65 -4.3 -1.2 -4.25 -1.25 -4.45 -0.65 -4.3 -0.6 -4.3 M-5.4 2.05 L-5.6 -0.55 -5.35 -1.9 -4.7 -2.95 -5.35 -1.9 -5.6 -0.55 -5.4 2.05" fill="#7a5c49" fill-rule="evenodd" stroke="none"/>
    <path d="M-1.2 -4.25 L-1.2 -4.0 Q-1.2 -3.5 -1.95 -3.1 L-4.0 -2.8 -4.7 -2.95 -4.75 -2.95 Q-5.3 -3.4 -5.3 -4.15 L-4.8 -5.0 Q-4.3 -5.55 -3.45 -5.5 -1.6 -5.3 -1.25 -4.45 L-1.2 -4.25 M-2.45 -3.5 Q-1.9 -3.95 -1.9 -4.3 -1.9 -4.95 -3.25 -4.7 -4.6 -4.45 -4.6 -3.65 -4.6 -3.05 -3.9 -3.05 -3.1 -3.05 -2.45 -3.5" fill="#00ffe6" fill-rule="evenodd" stroke="none"/>
    <path d="M-2.45 -3.5 Q-3.1 -3.05 -3.9 -3.05 -4.6 -3.05 -4.6 -3.65 -4.6 -4.45 -3.25 -4.7 -1.9 -4.95 -1.9 -4.3 -1.9 -3.95 -2.45 -3.5" fill="#01a08f" fill-rule="evenodd" stroke="none"/>
    <path d="M7.95 -3.15 Q7.5 -3.95 5.45 -5.2 L5.4 -5.2 4.8 -5.25 2.1 -4.9 -0.6 -4.3 M-0.65 -4.3 L-1.2 -4.25 -1.2 -4.0 Q-1.2 -3.5 -1.95 -3.1 L-4.0 -2.8 -4.7 -2.95 -5.35 -1.9 -5.6 -0.55 -5.4 2.05 M7.95 -3.15 L8.0 -3.0 8.25 -2.45 Q8.75 -0.9 8.75 1.45 L8.65 3.45 Q8.3 4.55 6.7 5.2 L1.35 6.8 -0.1 6.85 Q-2.2 6.15 -3.9 5.05 L-6.45 3.1 -7.8 1.85 Q-8.35 1.35 -8.3 0.55 L-8.45 -1.0 -8.7 -2.1 -8.7 -3.15 -8.75 -3.4 -8.75 -3.65 -8.75 -3.8 -8.6 -4.0 Q-8.25 -4.5 -7.45 -4.8 L-4.3 -5.65 1.3 -6.85 Q2.8 -6.85 5.4 -5.2 M-4.75 -2.95 Q-5.3 -3.4 -5.3 -4.15 L-4.8 -5.0 Q-4.3 -5.55 -3.45 -5.5 -1.6 -5.3 -1.25 -4.45 L-1.2 -4.25 M-4.75 -2.95 L-4.7 -2.95" fill="none" stroke="#660000" stroke-linecap="round" stroke-linejoin="round" stroke-opacity="0.6" stroke-width="1"/>
  </g>
</svg>