<?xml version="1.0" encoding="UTF-8" standalone="no"?>
<svg xmlns:xlink="http://www.w3.org/1999/xlink" height="10px" width="10.95px" xmlns="http://www.w3.org/2000/svg">
  <g transform="matrix(1.0, 0.0, 0.0, 1.0, 5.45, 5.05)">
    <path d="M-1.65 3.85 L-2.05 3.8 -2.55 3.75 -3.1 3.65 Q-4.5 3.2 -4.45 1.85 -4.6 0.65 -3.55 0.1 -3.75 -1.05 -3.45 -1.35 L-2.75 -1.95 -2.95 -2.25 Q-3.3 -3.25 -1.95 -3.75 L-1.2 -3.9 -0.45 -4.0 0.0 -3.25 -0.25 -2.7 -0.65 -2.6 Q-0.25 -2.1 -0.25 -1.6 -0.25 -1.2 -0.65 -0.6 L-1.2 -0.6 -1.2 -0.55 Q-0.4 0.25 -0.4 0.9 -0.9 3.15 -1.65 3.85 M-0.65 -2.6 L-1.35 -2.45 -2.1 -2.25 -2.75 -1.95 -2.1 -2.25 -1.35 -2.45 -0.65 -2.6 M-3.55 0.1 L-2.9 -0.25 -1.2 -0.55 -2.9 -0.25 -3.55 0.1" fill="#9f7960" fill-rule="evenodd" stroke="none"/>
    <path d="M-0.45 -4.0 L0.95 -4.0 Q2.95 -3.95 3.4 -3.0 L3.25 -2.4 3.0 -2.1 3.8 -1.2 4.0 -0.4 3.75 0.2 Q4.25 0.55 4.35 1.0 4.7 1.75 4.15 2.6 3.65 3.45 2.7 3.8 L-0.45 3.9 -1.65 3.85 Q-0.9 3.15 -0.4 0.9 -0.4 0.25 -1.2 -0.55 L-1.2 -0.6 -0.65 -0.6 Q-0.25 -1.2 -0.25 -1.6 -0.25 -2.1 -0.65 -2.6 L-0.25 -2.7 0.0 -3.25 -0.45 -4.0 M-0.65 -2.6 Q0.65 -2.85 1.75 -2.6 L3.0 -2.1 1.75 -2.6 Q0.65 -2.85 -0.65 -2.6 M3.75 0.2 Q2.9 -0.3 1.25 -0.6 L-0.65 -0.6 1.25 -0.6 Q2.9 -0.3 3.75 0.2" fill="#7a5c49" fill-rule="evenodd" stroke="none"/>
    <path d="M-1.65 3.85 L-2.05 3.8 -2.55 3.75 -3.1 3.65 Q-4.5 3.2 -4.45 1.85 -4.6 0.65 -3.55 0.1 -3.75 -1.05 -3.45 -1.35 L-2.75 -1.95 -2.95 -2.25 Q-3.3 -3.25 -1.95 -3.75 L-1.2 -3.9 -0.45 -4.0 0.95 -4.0 Q2.95 -3.95 3.4 -3.0 L3.25 -2.4 3.0 -2.1 3.8 -1.2 4.0 -0.4 3.75 0.2 Q4.25 0.55 4.35 1.0 4.7 1.75 4.15 2.6 3.65 3.45 2.7 3.8 L-0.45 3.9 -1.65 3.85 M-1.2 -0.55 L-2.9 -0.25 -3.55 0.1 M-2.75 -1.95 L-2.1 -2.25 -1.35 -2.45 -0.65 -2.6 Q0.65 -2.85 1.75 -2.6 L3.0 -2.1 M-0.65 -0.6 L1.25 -0.6 Q2.9 -0.3 3.75 0.2 M-0.65 -0.6 L-1.2 -0.6" fill="none" stroke="#660000" stroke-linecap="round" stroke-linejoin="round" stroke-opacity="0.6" stroke-width="1"/>
  </g>
</svg>