<?xml version="1.0" encoding="UTF-8" standalone="no"?>
<svg xmlns:xlink="http://www.w3.org/1999/xlink" height="9.25px" width="22.2px" xmlns="http://www.w3.org/2000/svg">
  <g transform="matrix(1.0, 0.0, 0.0, 1.0, 11.1, 4.6)">
    <path d="M9.95 2.5 L9.65 2.65 Q9.0 2.65 9.0 2.1 9.0 1.45 9.55 1.7 L10.1 2.2 9.95 2.5 M-1.95 -3.6 L-1.75 -3.4 -2.0 -3.0 -2.7 -2.6 -2.95 -2.9 -2.55 -3.3 Q-2.05 -3.5 -1.95 -3.6 M-2.15 -2.3 Q-2.15 -1.95 -2.65 -1.6 -3.05 -1.3 -3.4 -1.25 L-4.75 -0.55 Q-6.9 0.45 -7.6 0.45 L-7.9 0.3 -7.95 0.0 Q-7.95 -0.4 -7.25 -1.0 L-6.2 -1.9 -9.45 -1.5 Q-10.15 -1.5 -10.1 -1.9 -10.1 -2.45 -7.8 -2.95 L-4.95 -3.25 -4.85 -3.1 Q-5.0 -2.9 -5.6 -2.75 L-6.3 -2.6 -5.05 -2.5 Q-4.95 -3.05 -4.45 -3.1 -3.85 -3.15 -3.85 -2.55 L-3.85 -2.25 -3.65 -2.05 -3.3 -2.25 -2.2 -2.55 -2.15 -2.3 M-3.1 -1.3 Q-2.7 -1.25 -2.65 -1.0 -2.65 -0.75 -2.2 -0.8 L-1.9 -0.8 -1.95 -1.05 -0.8 -2.4 Q0.35 -3.3 0.35 -2.25 L-0.3 -1.2 -0.95 -0.55 -0.75 -0.3 -4.45 2.2 Q-5.0 2.2 -5.0 1.75 -5.0 0.55 -3.3 -1.25 L-3.2 -1.25 -3.1 -1.3 M-3.9 0.7 L-3.8 0.65 -3.85 0.65 -3.9 0.7 M-1.55 2.25 L-0.9 0.35 Q-0.4 -0.65 -0.35 0.2 L-0.05 0.1 0.15 0.05 Q0.15 -0.5 0.85 -0.7 1.55 -0.95 1.55 -0.4 L1.2 0.3 1.15 0.35 1.2 0.5 0.2 1.75 -0.95 2.8 Q-1.6 2.8 -1.55 2.25 M6.25 -1.45 L5.95 -0.95 5.55 -0.6 Q5.1 -0.6 5.1 -1.3 5.1 -1.95 6.2 -1.75 L6.25 -1.45 M5.5 1.0 L5.35 1.6 4.9 1.95 Q4.4 1.95 4.4 1.25 4.4 0.55 4.95 0.5 5.5 0.45 5.5 1.0 M9.4 0.4 L9.7 0.8 9.4 1.2 8.95 1.1 8.95 0.6 Q9.1 0.3 9.4 0.4 M8.0 0.45 Q7.5 0.45 7.6 -0.05 L7.9 -0.45 8.3 0.05 8.25 0.35 8.0 0.45 M1.85 -2.15 L1.5 -1.75 Q1.1 -1.4 0.85 -1.4 0.45 -1.4 0.45 -1.8 0.45 -2.05 0.8 -2.3 L1.8 -2.4 1.85 -2.15 M2.65 -1.3 L2.95 -1.0 2.35 -0.05 Q1.9 -0.05 1.9 -0.55 L2.2 -1.0 2.65 -1.3 M3.6 -0.1 L3.65 0.2 2.75 1.95 2.45 1.9 1.95 2.65 1.25 3.35 Q0.55 3.35 0.7 2.6 0.7 2.1 0.85 1.75 L0.85 1.7 1.0 1.35 1.5 1.25 1.6 1.2 2.15 1.25 Q2.2 0.75 2.5 0.35 2.95 -0.2 3.6 -0.1 M4.15 2.2 Q4.9 2.75 4.9 3.15 4.9 3.65 4.45 3.65 3.8 3.65 3.35 2.45 3.35 1.6 4.15 2.2 M7.85 3.4 L7.55 3.65 Q7.1 3.65 6.7 2.65 6.7 2.1 7.35 2.35 7.95 2.65 7.95 3.1 L7.85 3.4 M5.5 2.05 Q5.5 1.4 6.2 1.2 6.9 1.0 6.9 1.8 L6.65 2.3 6.2 2.7 Q5.45 2.7 5.5 2.05" fill="#8b6a1f" fill-rule="evenodd" stroke="none"/>
  </g>
</svg>