<?xml version="1.0" encoding="UTF-8" standalone="no"?>
<svg xmlns:xlink="http://www.w3.org/1999/xlink" height="14.2px" width="35.55px" xmlns="http://www.w3.org/2000/svg">
  <g transform="matrix(1.0, 0.0, 0.0, 1.0, 3.5, 10.25)">
    <path d="M4.8 -0.55 L3.5 0.4 0.8 2.3 Q-1.3 0.8 -2.5 -2.35 L-1.9 -3.25 -1.6 -3.65 -1.6 -3.7 -1.1 -3.7 -0.65 -2.95 2.65 -4.45 6.1 -6.2 6.55 -6.35 6.7 -6.4 7.35 -6.8 9.6 -8.0 9.95 -8.15 10.25 -8.25 9.95 -8.1 9.4 -7.55 7.35 -4.4 4.8 -0.55 M20.6 -8.0 L24.95 -5.05 29.95 0.95 30.7 1.9 29.4 1.5 Q26.45 0.25 23.8 -2.35 20.1 -5.85 15.85 -5.75 19.1 -4.75 22.1 -2.4 L27.75 1.8 27.5 1.85 24.95 0.4 Q18.5 -4.1 11.5 -4.15 L9.8 -4.1 Q13.9 -7.5 18.5 -8.15 L20.6 -8.0" fill="#705518" fill-rule="evenodd" stroke="none"/>
    <path d="M10.25 -8.25 L10.35 -8.3 10.3 -8.3 Q14.65 -10.0 19.25 -8.6 L20.6 -8.0 18.5 -8.15 Q13.9 -7.5 9.8 -4.1 L6.7 -1.9 4.8 -0.55 7.35 -4.4 9.4 -7.55 9.95 -8.1 10.25 -8.25 M30.7 1.9 L31.05 2.95 Q29.4 2.95 27.75 1.8 L22.1 -2.4 Q19.1 -4.75 15.85 -5.75 20.1 -5.85 23.8 -2.35 26.45 0.25 29.4 1.5 L30.7 1.9" fill="#8b6a1f" fill-rule="evenodd" stroke="none"/>
  </g>
</svg>