<?xml version="1.0" encoding="UTF-8" standalone="no"?>
<svg xmlns:xlink="http://www.w3.org/1999/xlink" height="19.3px" width="30.95px" xmlns="http://www.w3.org/2000/svg">
  <g transform="matrix(1.0, 0.0, 0.0, 1.0, 29.1, 8.25)">
    <path d="M-13.9 -2.75 L-14.75 -2.8 -14.75 -4.1 Q-9.85 -7.85 -3.7 -6.15 L-1.65 -4.55 -1.55 -4.45 -1.3 -4.0 -0.5 -2.6 0.8 -0.3 0.85 0.1 0.85 0.2 0.4 1.05 -0.25 1.65 -0.5 1.6 -2.2 0.65 -3.7 -0.3 Q-8.7 -2.1 -13.9 -2.75" fill="#705518" fill-rule="evenodd" stroke="none"/>
    <path d="M-8.2 -7.2 L-7.85 -7.15 -5.9 -6.75 -5.8 -6.7 -6.05 -6.7 -8.9 -5.85 Q-10.75 -5.4 -15.0 -3.25 L-15.1 -3.4 Q-12.15 -5.95 -8.2 -7.2" fill="#705518" fill-rule="evenodd" stroke="none"/>
    <path d="M-5.8 -6.7 L-3.8 -5.9 -2.35 -5.1 -17.4 0.4 Q-24.0 3.05 -28.1 10.05 -25.0 0.35 -17.6 -4.45 L-14.4 -6.25 Q-11.3 -7.55 -8.2 -7.2 -12.15 -5.95 -15.1 -3.4 L-15.0 -3.25 Q-10.75 -5.4 -8.9 -5.85 L-6.05 -6.7 -5.8 -6.7" fill="#8b6a1f" fill-rule="evenodd" stroke="none"/>
  </g>
</svg>