<?xml version="1.0" encoding="UTF-8" standalone="no"?>
<svg xmlns:xlink="http://www.w3.org/1999/xlink" height="12.55px" width="15.25px" xmlns="http://www.w3.org/2000/svg">
  <g transform="matrix(1.0, 0.0, 0.0, 1.0, 11.9, 11.4)">
    <path d="M2.2 -6.05 L1.35 -5.9 0.6 -5.7 Q-0.05 -5.7 -0.45 -6.25 L-1.4 -7.0 -1.4 -6.45 -0.9 -5.75 Q-0.9 -5.55 -2.65 -4.9 L-4.2 -4.25 -4.7 -4.75 Q-7.1 -6.75 -10.9 -8.85 -9.5 -10.25 -3.8 -10.4 L-0.1 -9.45 Q1.5 -8.2 2.05 -6.45 L2.15 -6.45 2.2 -6.05" fill="#8b6a1f" fill-rule="evenodd" stroke="none"/>
    <path d="M-4.2 -4.25 L-2.65 -4.9 Q-0.9 -5.55 -0.9 -5.75 L-1.4 -6.45 -1.4 -7.0 -0.45 -6.25 Q-0.05 -5.7 0.6 -5.7 L1.35 -5.9 2.2 -6.05 Q2.55 -4.45 2.0 -2.4 1.6 -1.0 0.05 0.15 L-0.45 -0.05 -1.1 0.0 Q-1.75 -2.1 -4.2 -4.25" fill="#705518" fill-rule="evenodd" stroke="none"/>
  </g>
</svg>