<?xml version="1.0" encoding="UTF-8" standalone="no"?>
<svg xmlns:xlink="http://www.w3.org/1999/xlink" height="96.9px" width="88.1px" xmlns="http://www.w3.org/2000/svg">
  <g id="shape0" transform="matrix(1.0, 0.0, 0.0, 1.0, -21.95, 0.9)">
    <path d="M109.05 1.75 Q109.05 6.5 106.75 10.3 104.45 14.1 104.45 17.1 L104.15 23.7 103.55 30.4 103.0 36.9 Q102.25 40.8 99.3 43.25 L99.0 43.1 98.9 44.55 98.8 48.9 98.65 53.2 Q98.45 54.95 95.85 57.8 L92.15 61.9 91.5 61.9 91.45 61.35 Q91.45 59.95 94.45 57.15 97.55 54.25 97.7 52.95 L97.85 48.6 97.95 44.1 98.65 35.25 98.2 30.4 Q98.05 27.55 99.25 26.55 L99.65 26.55 99.8 26.85 99.1 41.9 99.9 40.95 Q101.5 38.85 101.9 36.25 102.45 32.8 102.6 29.95 L103.1 23.65 103.5 17.25 103.3 16.3 103.05 15.35 Q103.05 14.35 104.9 11.3 L107.05 7.65 107.5 3.45 Q107.7 0.75 108.6 0.1 109.05 0.7 109.05 1.75 M92.45 4.4 L91.7 4.25 Q88.55 4.25 86.95 6.15 85.35 8.0 84.85 8.0 L84.4 7.9 Q84.25 8.05 84.25 7.55 L85.45 6.0 87.1 4.15 86.7 3.8 86.6 3.3 Q86.6 2.5 88.35 2.05 90.35 1.45 92.9 2.1 93.95 2.15 94.85 2.8 L95.95 3.7 98.6 6.15 Q99.95 7.8 99.95 8.75 L99.75 10.1 Q99.95 10.35 99.45 10.35 99.15 10.35 97.2 7.95 95.1 5.25 94.05 4.65 L92.45 4.4 M82.8 79.3 Q79.95 85.95 79.95 92.65 L79.7 93.4 80.35 93.85 80.0 94.6 75.2 93.15 68.1 91.35 62.7 91.4 57.2 93.15 50.75 95.0 50.6 94.85 50.55 94.45 51.0 93.2 51.4 91.7 Q51.4 87.3 48.55 81.25 45.7 75.2 45.7 73.75 45.7 72.35 47.15 75.5 L50.35 82.75 Q52.8 89.05 52.3 93.35 L56.95 92.05 62.65 90.35 68.25 90.35 75.35 91.9 Q77.6 92.45 78.95 93.05 78.8 92.65 78.8 92.15 78.8 87.8 80.8 81.4 82.8 75.0 85.2 71.85 85.65 72.15 85.65 72.8 85.65 73.8 82.8 79.3 M46.6 5.65 Q46.7 5.85 46.2 5.85 45.85 5.85 45.7 5.25 45.5 4.65 44.7 4.65 43.6 4.65 42.95 4.2 L38.8 4.0 36.15 3.8 Q34.85 3.8 34.0 7.3 33.55 9.05 33.4 10.85 L33.45 12.85 Q33.55 13.6 34.2 15.15 L33.65 15.6 Q33.05 15.6 32.45 12.9 L32.0 10.2 Q32.0 1.5 39.35 1.65 41.95 1.7 44.35 2.9 46.65 4.05 46.65 5.0 L46.6 5.65 M73.1 30.9 L72.4 32.1 Q72.4 33.2 75.3 35.35 78.15 37.55 78.15 39.05 76.65 42.95 75.45 42.95 L75.0 42.85 Q74.85 43.0 74.85 42.5 L77.2 39.25 Q77.2 38.25 74.35 35.9 72.2 34.1 71.7 32.9 L72.35 31.75 72.95 30.55 73.05 30.55 73.1 30.9 M58.6 31.3 L59.6 32.4 57.15 35.0 54.55 37.65 Q54.55 38.1 57.8 41.35 L57.7 41.75 57.7 41.8 58.2 42.05 Q59.8 43.05 61.4 44.7 L61.3 45.1 59.1 45.1 55.55 44.25 Q54.95 44.05 54.95 43.5 54.95 41.35 56.25 41.35 L54.85 39.9 Q53.35 38.1 53.35 37.8 53.35 37.25 56.05 34.65 L58.7 32.0 58.5 31.6 58.2 31.3 58.25 30.9 58.3 30.9 58.6 31.3 M67.3 33.75 L66.9 40.65 66.5 48.7 66.2 48.95 65.6 48.9 Q65.4 46.4 64.85 44.15 64.45 42.45 64.45 40.4 64.45 36.3 64.75 34.5 65.35 31.05 67.25 31.0 L67.3 33.75 M40.0 2.6 L38.8 2.65 38.6 2.75 38.1 2.8 39.65 2.75 40.0 2.6 M22.95 2.45 L23.05 1.65 Q23.2 0.85 23.45 0.65 24.2 3.9 26.5 10.05 L28.3 14.85 28.35 14.8 28.45 15.3 28.6 15.85 28.6 16.3 28.55 16.35 29.3 28.3 Q29.7 36.65 33.3 41.7 L33.6 31.65 Q33.6 30.2 34.1 29.8 L34.7 33.1 34.75 35.35 34.2 43.5 Q34.1 51.15 34.9 52.9 35.7 54.85 40.95 61.95 L40.7 62.3 Q39.6 61.65 38.8 60.1 37.85 58.4 37.05 57.75 35.2 56.35 34.55 55.3 33.8 54.3 33.75 53.05 L33.25 43.5 33.3 42.25 32.6 42.35 Q31.2 42.35 30.3 39.95 29.55 38.0 29.55 36.15 L29.3 33.0 29.0 30.0 28.25 24.3 Q27.6 19.5 27.6 17.85 L27.75 16.4 Q26.35 15.55 24.6 9.5 L22.95 2.45" fill="#ffffff" fill-rule="evenodd" stroke="none"/>
  </g>
</svg>