<?xml version="1.0" encoding="UTF-8" standalone="no"?>
<svg xmlns:xlink="http://www.w3.org/1999/xlink" height="10px" width="10.75px" xmlns="http://www.w3.org/2000/svg">
  <g id="shape0" transform="matrix(1.0, 0.0, 0.0, 1.0, 5.35, 5)">
    <path d="M-0.45 -3.95 L0.15 -4.0 1.85 -3.75 Q2.9 -3.45 3.5 -2.6 4.55 -1.05 4.35 0.9 4.15 2.45 2.95 3.3 1.9 4.1 0.6 4.0 -0.7 3.9 -1.5 3.15 L-2.25 1.9 -2.2 1.9 -2.3 1.75 -2.45 3.8 -3.25 1.8 -3.2 1.1 Q-3.0 0.0 -2.7 0.0 L-2.2 0.8 -1.6 2.05 -1.55 2.05 -1.2 0.25 Q-0.7 0.25 -0.05 2.6 0.95 0.55 0.95 -0.5 0.95 -1.75 0.2 -3.0 L-0.45 -3.95" fill="#d6baba" fill-rule="evenodd" stroke="none"/>
    <path d="M-3.25 1.8 L-3.7 0.75 -4.35 2.05 -4.35 -1.55 -3.95 -2.1 Q-3.3 -3.25 -1.85 -3.7 L-0.45 -3.95 0.2 -3.0 Q0.95 -1.75 0.95 -0.5 0.95 0.55 -0.05 2.6 -0.7 0.25 -1.2 0.25 L-1.55 2.05 -1.6 2.05 -2.2 0.8 -2.7 0.0 Q-3.0 0.0 -3.2 1.1 L-3.25 1.8 M-2.25 1.9 L-2.3 1.75 -2.2 1.9 -2.25 1.9" fill="#faf8f8" fill-rule="evenodd" stroke="none"/>
    <path d="M-3.25 1.8 L-3.7 0.75 -4.35 2.05 -4.35 -1.55 -3.95 -2.1 Q-3.3 -3.25 -1.85 -3.7 L-0.45 -3.95 0.15 -4.0 1.85 -3.75 Q2.9 -3.45 3.5 -2.6 4.55 -1.05 4.35 0.9 4.15 2.45 2.95 3.3 1.9 4.1 0.6 4.0 -0.7 3.9 -1.5 3.15 L-2.25 1.9 -2.3 1.75 -2.45 3.8 -3.25 1.8 Z" fill="none" stroke="#a36a6a" stroke-linecap="round" stroke-linejoin="round" stroke-width="1"/>
  </g>
</svg>