<?xml version="1.0" encoding="UTF-8" standalone="no"?>
<svg xmlns:xlink="http://www.w3.org/1999/xlink" height="15.3px" width="24.05px" xmlns="http://www.w3.org/2000/svg">
  <g id="shape0" transform="matrix(1.0, 0.0, 0.0, 1.0, 12, 7.65)">
    <path d="M-3.75 -1.8 L-0.8 -1.9 1.15 -1.75 2.35 -1.5 11.05 -4.5 10.5 -2.15 Q9.9 -2.7 9.1 -2.75 L9.0 -2.75 Q8.25 -2.75 4.6 -1.55 L0.2 -0.1 -4.6 1.7 Q-7.4 2.8 -7.45 3.0 -8.35 2.95 -8.85 2.55 L-8.9 2.55 -8.85 2.55 -8.25 1.85 -8.35 1.8 -9.45 2.45 -10.05 2.15 -10.65 1.7 Q-10.75 1.3 -10.95 1.35 -10.8 0.6 -10.1 0.05 -8.6 -1.2 -8.4 -2.45 -8.3 -3.75 -7.35 -4.85 L-6.25 -6.15 -5.8 -6.65 -5.4 -5.7 -6.4 -1.6 -6.35 -1.3 -5.95 -1.45 -4.75 -1.7 -3.75 -1.8 M2.2 6.6 L2.25 6.6 2.2 6.65 2.2 6.6 M1.4 5.8 L1.4 5.7 Q1.4 5.05 2.35 4.25 3.05 3.6 3.9 3.2 L4.2 3.05 4.3 3.05 5.35 2.55 6.3 1.85 7.25 0.9 7.45 0.75 7.65 0.95 Q7.65 1.35 6.05 2.65 L3.85 4.2 Q2.75 4.75 1.4 5.8 M6.8 -1.7 L6.05 -1.4 6.05 -1.45 6.8 -1.7 M-9.85 0.85 Q-9.35 0.05 -8.5 -0.45 L-6.35 -1.3 -8.5 -0.45 Q-9.35 0.05 -9.85 0.85 M-4.95 0.95 Q-6.7 0.95 -7.95 1.65 L-8.25 1.85 -7.95 1.65 Q-6.7 0.95 -4.95 0.95 M3.9 3.2 L4.3 3.05 3.9 3.2 M-1.8 -0.1 L2.35 -1.5 -1.8 -0.1" fill="#faf8f8" fill-rule="evenodd" stroke="none"/>
    <path d="M10.5 -2.15 L10.35 -1.5 10.35 -1.45 10.15 -0.5 Q10.05 0.2 9.45 0.9 L8.6 1.9 7.55 2.85 6.4 3.65 4.75 4.5 Q3.9 4.8 3.15 5.45 L2.5 6.1 2.2 6.6 2.2 6.65 Q1.9 6.7 1.6 6.3 L1.4 5.8 Q2.75 4.75 3.85 4.2 L6.05 2.65 Q7.65 1.35 7.65 0.95 L7.45 0.75 7.25 0.9 7.4 0.65 8.4 -0.75 9.0 -2.2 6.8 -1.7 6.05 -1.45 6.05 -1.4 1.15 0.4 Q-0.55 0.95 -2.1 1.85 L-5.4 3.75 -8.85 3.9 -9.1 3.6 -9.1 3.5 -9.35 3.5 -10.2 3.35 -10.3 3.35 -10.6 3.15 Q-11.15 2.15 -10.95 1.35 -10.75 1.3 -10.65 1.7 L-10.05 2.15 -9.45 2.45 -8.35 1.8 -8.25 1.85 -8.85 2.55 Q-8.35 2.95 -7.45 3.0 -7.4 2.8 -4.6 1.7 L0.2 -0.1 4.6 -1.55 Q8.25 -2.75 9.0 -2.75 L9.1 -2.75 Q9.9 -2.7 10.5 -2.15 L10.35 -1.5 10.5 -2.15 M-5.4 -5.7 L-3.75 -1.8 -4.75 -1.7 -5.95 -1.45 -6.35 -1.3 -6.4 -1.6 -5.4 -5.7 M-9.1 3.5 L-9.05 3.1 -9.05 3.0 -8.95 2.7 -8.85 2.55 -8.95 2.7 -9.05 3.0 -9.05 3.1 -9.1 3.5 M-8.85 2.55 L-8.9 2.55 -8.85 2.55" fill="#d6baba" fill-rule="evenodd" stroke="none"/>
    <path d="M-3.75 -1.8 L-0.8 -1.9 1.15 -1.75 2.35 -1.5 11.05 -4.5 10.5 -2.15 10.35 -1.5 10.35 -1.45 10.15 -0.5 Q10.05 0.2 9.45 0.9 L8.6 1.9 7.55 2.85 6.4 3.65 4.75 4.5 Q3.9 4.8 3.15 5.45 L2.5 6.1 2.2 6.6 M4.3 3.05 L5.35 2.55 6.3 1.85 7.25 0.9 7.4 0.65 8.4 -0.75 9.0 -2.2 6.8 -1.7 6.05 -1.4 1.15 0.4 Q-0.55 0.95 -2.1 1.85 L-5.4 3.75 -8.85 3.9 -9.1 3.6 -9.1 3.5 -9.05 3.1 -9.05 3.0 -8.95 2.7 -8.85 2.55 -8.25 1.85 -7.95 1.65 Q-6.7 0.95 -4.95 0.95 M-10.2 3.35 L-10.3 3.35 -10.6 3.15 Q-11.15 2.15 -10.95 1.35 -10.8 0.6 -10.1 0.05 -8.6 -1.2 -8.4 -2.45 -8.3 -3.75 -7.35 -4.85 L-6.25 -6.15 -5.8 -6.65 -5.4 -5.7 -3.75 -1.8 -4.75 -1.7 -5.95 -1.45 -6.35 -1.3 -8.5 -0.45 Q-9.35 0.05 -9.85 0.85 M4.3 3.05 L3.9 3.2 M2.35 -1.5 L-1.8 -0.1" fill="none" stroke="#a36a6a" stroke-linecap="round" stroke-linejoin="round" stroke-width="1"/>
  </g>
</svg>