<?xml version="1.0" encoding="UTF-8" standalone="no"?>
<svg xmlns:xlink="http://www.w3.org/1999/xlink" height="13.85px" width="14.75px" xmlns="http://www.w3.org/2000/svg">
  <g id="shape0" transform="matrix(1.0, 0.0, 0.0, 1.0, 1, 1)">
    <path d="M7.1 8.25 L7.15 8.2 7.8 7.7 Q8.4 7.25 9.35 6.7 11.25 5.6 12.25 5.3 L12.75 5.3 12.1 6.1 8.55 8.5 4.5 10.35 7.1 8.25 M0.4 10.6 L0.35 10.15 0.1 8.85 0.0 7.35 Q0.0 5.9 0.5 4.55 L0.6 4.3 0.65 4.3 0.95 5.6 0.95 7.0 Q0.95 9.4 0.4 10.6 M2.95 5.65 Q3.45 4.95 5.1 3.4 7.9 0.75 9.0 0.0 L9.0 0.05 7.55 3.35 Q6.6 5.35 1.6 10.5 L1.8 8.85 Q2.0 7.45 2.4 6.8 L2.95 5.65" fill="#faf8f8" fill-rule="evenodd" stroke="none"/>
    <path d="M12.1 6.1 L8.9 9.4 7.05 10.4 Q4.95 11.25 1.7 11.85 L0.5 11.85 0.4 10.6 Q0.95 9.4 0.95 7.0 L0.95 5.6 0.65 4.3 0.85 4.2 1.45 5.75 2.0 6.8 2.95 5.65 2.4 6.8 Q2.0 7.45 1.8 8.85 L1.6 10.5 Q6.6 5.35 7.55 3.35 L9.0 0.05 7.1 8.25 4.5 10.35 8.55 8.5 12.1 6.1" fill="#d6baba" fill-rule="evenodd" stroke="none"/>
    <path d="M7.1 8.25 L7.15 8.2 7.8 7.7 Q8.4 7.25 9.35 6.7 11.25 5.6 12.25 5.3 L12.75 5.3 12.1 6.1 8.9 9.4 7.05 10.4 M0.5 11.85 L0.4 10.6 0.35 10.15 0.1 8.85 0.0 7.35 Q0.0 5.9 0.5 4.55 L0.6 4.3 0.65 4.3 0.85 4.2 1.45 5.75 2.0 6.8 2.95 5.65 Q3.45 4.95 5.1 3.4 7.9 0.75 9.0 0.0 L9.0 0.05 7.1 8.25" fill="none" stroke="#a36a6a" stroke-linecap="round" stroke-linejoin="round" stroke-width="1"/>
  </g>
</svg>