<?xml version="1.0" encoding="UTF-8" standalone="no"?>
<svg xmlns:xlink="http://www.w3.org/1999/xlink" height="8.2px" width="6.35px" xmlns="http://www.w3.org/2000/svg">
  <g id="shape0" transform="matrix(1.0, 0.0, 0.0, 1.0, 3.15, 4.1)">
    <path d="M0.4 -3.0 L0.35 -2.8 0.45 -1.7 0.15 -0.75 -0.3 0.0 -1.15 -2.35 -0.75 -2.9 -0.55 -3.1 0.4 -3.0 M-1.25 2.15 L-0.95 2.4 -1.25 2.15" fill="#faf8f8" fill-rule="evenodd" stroke="none"/>
    <path d="M0.4 -3.0 L0.7 -2.95 0.75 -2.9 0.85 -2.65 0.75 -2.9 0.85 -2.65 Q1.7 -0.9 2.2 2.1 1.45 3.6 -0.15 2.85 L-0.65 2.6 -0.95 2.4 -1.25 2.15 -1.65 1.1 -2.05 -0.45 -1.8 -2.15 -1.75 -2.35 -1.55 -2.8 -1.4 -3.05 -0.8 -3.1 -0.6 -3.1 -0.55 -3.1 -0.75 -2.9 -1.15 -2.35 -0.3 0.0 0.15 -0.75 0.45 -1.7 0.35 -2.8 0.4 -3.0" fill="#d6baba" fill-rule="evenodd" stroke="none"/>
    <path d="M0.75 -2.9 L0.7 -2.95 0.4 -3.0 -0.55 -3.1 M-0.6 -3.1 L-0.8 -3.1 -1.4 -3.05 -1.55 -2.8 M-1.25 2.15 L-0.95 2.4 -0.65 2.6 -0.15 2.85 Q1.45 3.6 2.2 2.1 1.7 -0.9 0.85 -2.65 L0.75 -2.9 M-1.25 2.15 L-2.15 1.35" fill="none" stroke="#a36a6a" stroke-linecap="round" stroke-linejoin="round" stroke-width="1"/>
  </g>
</svg>