<?xml version="1.0" encoding="UTF-8" standalone="no"?>
<svg xmlns:xlink="http://www.w3.org/1999/xlink" height="14.55px" width="12.65px" xmlns="http://www.w3.org/2000/svg">
  <g id="shape0" transform="matrix(1.0, 0.0, 0.0, 1.0, 6.3, 7.25)">
    <path d="M4.35 -6.2 L4.6 -6.25 5.25 -5.95 3.3 -3.85 1.75 -1.15 0.0 1.55 -1.6 3.05 -2.65 4.15 -2.4 4.45 Q-2.2 4.45 -0.7 3.65 1.0 2.75 1.45 2.6 L1.95 2.65 1.6 3.25 -4.0 6.15 Q-5.05 6.55 -5.3 6.0 -1.55 0.65 3.8 -5.6 L4.35 -6.2 M0.9 2.15 L0.95 2.1 2.45 0.3 1.0 2.1 0.9 2.15" fill="#faf8f8" fill-rule="evenodd" stroke="none"/>
    <path d="M5.25 -5.95 L5.35 -5.4 5.35 -5.35 4.6 -4.15 Q4.45 -2.0 5.0 -0.75 L5.3 -0.25 4.95 0.95 4.95 1.05 4.85 1.25 4.25 1.65 2.6 2.65 1.6 3.25 1.95 2.65 1.45 2.6 Q1.0 2.75 -0.7 3.65 -2.2 4.45 -2.4 4.45 L-2.65 4.15 -1.6 3.05 0.0 1.55 1.75 -1.15 3.3 -3.85 5.25 -5.95 M4.6 -4.15 L2.6 -0.8 2.55 -0.8 2.3 -0.5 2.55 -0.8 2.6 -0.8 4.6 -4.15 M2.45 0.3 L0.95 2.1 0.9 2.15 1.0 2.1 2.45 0.3 3.35 -0.85 2.45 0.3" fill="#d6baba" fill-rule="evenodd" stroke="none"/>
    <path d="M5.35 -5.35 L4.6 -4.15 Q4.45 -2.0 5.0 -0.75 L5.3 -0.25 M4.95 1.05 L4.85 1.25 4.25 1.65 2.6 2.65 1.6 3.25 -4.0 6.15 Q-5.05 6.55 -5.3 6.0 -1.55 0.65 3.8 -5.6 L4.35 -6.2 M2.3 -0.5 L2.55 -0.8 2.6 -0.8 4.6 -4.15 M2.45 0.3 L3.35 -0.85 M2.45 0.3 L1.0 2.1 0.9 2.15" fill="none" stroke="#a36a6a" stroke-linecap="round" stroke-linejoin="round" stroke-width="1"/>
  </g>
</svg>