<?xml version="1.0" encoding="UTF-8" standalone="no"?>
<svg xmlns:xlink="http://www.w3.org/1999/xlink" height="24.1px" width="49.85px" xmlns="http://www.w3.org/2000/svg">
  <g transform="matrix(1.0, 0.0, 0.0, 1.0, 25.35, 23)">
    <path d="M21.35 0.1 L16.55 -7.75 Q14.55 -10.75 12.35 -12.35 8.3 -15.25 -0.4 -15.0 -10.05 -13.95 -14.55 -9.1 -19.1 -4.3 -19.7 0.1 L-24.35 0.1 -21.1 -4.85 -17.25 -9.9 Q-15.15 -12.9 -10.35 -14.95 -5.9 -16.85 0.0 -17.4 L0.45 -17.8 Q2.7 -19.45 3.05 -20.55 3.35 -21.7 4.4 -21.95 5.45 -22.25 6.3 -21.0 L6.3 -20.95 6.1 -20.25 Q5.95 -19.7 3.9 -17.5 L5.05 -17.35 4.95 -17.25 Q9.65 -16.45 13.3 -13.9 16.15 -11.95 19.1 -8.15 20.8 -5.9 22.05 -2.55 22.45 -1.45 23.5 0.1 L21.35 0.1 M-8.6 -10.35 L-8.35 -10.45 -7.3 -10.8 -8.25 -10.3 -8.45 -10.15 -8.6 -10.35" fill="#8b6630" fill-rule="evenodd" stroke="none"/>
    <path d="M21.35 0.1 L19.5 0.1 16.8 -4.8 Q14.35 -9.0 10.95 -11.3 L9.4 -11.9 Q5.65 -13.45 2.1 -13.45 -1.8 -13.45 -6.35 -11.25 -6.45 -10.75 -6.9 -10.0 -7.65 -8.75 -8.6 -8.5 -7.55 -7.75 -7.55 -7.05 -7.55 -6.75 -7.9 -6.45 L-8.65 -5.65 -8.0 -4.5 -8.05 -4.0 -8.1 -3.9 -8.5 -3.85 Q-9.1 -3.85 -9.65 -5.65 L-9.6 -6.3 -8.9 -7.0 -9.55 -7.75 -9.9 -8.35 -9.75 -9.45 Q-12.1 -8.0 -13.6 -6.7 L-13.65 -6.65 -14.25 -6.1 -14.3 -6.05 Q-15.95 -4.3 -16.45 -0.15 L-16.45 0.1 -19.7 0.1 Q-19.1 -4.3 -14.55 -9.1 -10.05 -13.95 -0.4 -15.0 8.3 -15.25 12.35 -12.35 14.55 -10.75 16.55 -7.75 L21.35 0.1 M6.3 -20.95 Q7.1 -19.7 5.25 -17.6 L5.05 -17.35 3.9 -17.5 Q5.95 -19.7 6.1 -20.25 L6.3 -20.95 M-8.6 -10.35 L-8.45 -10.15 -8.25 -10.3 -7.3 -10.8 -8.35 -10.45 -8.6 -10.35" fill="#725327" fill-rule="evenodd" stroke="none"/>
  </g>
</svg>