<?xml version="1.0" encoding="UTF-8" standalone="no"?>
<svg xmlns:xlink="http://www.w3.org/1999/xlink" height="22px" width="9.65px" xmlns="http://www.w3.org/2000/svg">
  <g transform="matrix(1.0, 0.0, 0.0, 1.0, 4.8, 18.8)">
    <path d="M2.35 -8.4 L2.2 -5.8 Q1.95 -4.9 -0.7 -4.0 -0.35 -4.75 -0.35 -5.35 -0.35 -7.35 -2.1 -9.45 -3.8 -11.55 -3.8 -12.4 -3.8 -14.25 -1.95 -16.5 -0.1 -18.8 -0.1 -17.1 L-0.8 -15.45 Q-1.55 -13.6 -1.55 -13.0 -1.55 -12.5 1.15 -9.75 L2.35 -8.4 M-2.9 1.15 L-2.2 1.75 -1.95 1.95 -2.9 1.15 M3.4 0.05 L3.05 -0.05 3.45 -0.35 3.4 0.05" fill="#8b6630" fill-rule="evenodd" stroke="none"/>
    <path d="M2.35 -8.4 Q3.85 -6.35 3.85 -4.15 L3.6 -2.1 3.45 -0.35 3.05 -0.05 3.4 0.05 3.4 0.15 Q3.4 2.2 -0.1 2.2 L-1.95 1.95 -2.2 1.75 -2.9 1.15 -3.1 0.55 -3.1 0.45 -3.1 0.4 -3.1 0.3 Q-3.1 -0.75 -1.7 -2.45 L-0.7 -4.0 Q1.95 -4.9 2.2 -5.8 L2.35 -8.4" fill="#725327" fill-rule="evenodd" stroke="none"/>
  </g>
</svg>