<?xml version="1.0" encoding="UTF-8" standalone="no"?>
<svg xmlns:xlink="http://www.w3.org/1999/xlink" height="25.05px" width="20.95px" xmlns="http://www.w3.org/2000/svg">
  <g transform="matrix(1.0, 0.0, 0.0, 1.0, 11.65, 23.85)">
    <path d="M-0.65 -18.6 L-1.45 -17.75 Q-2.25 -14.95 -2.25 -13.75 L-1.95 -13.1 -1.45 -12.6 -0.05 -14.5 0.9 -14.9 0.15 -14.8 5.25 -15.05 Q5.85 -15.05 6.6 -16.95 6.6 -17.65 5.7 -17.9 4.75 -18.15 4.75 -18.75 4.75 -20.75 6.55 -19.6 8.3 -18.4 8.3 -16.25 8.3 -14.65 7.45 -14.0 6.45 -13.25 3.8 -13.25 1.9 -13.25 1.35 -12.0 L1.15 -10.6 Q1.15 -9.85 2.35 -7.75 3.45 -5.75 3.5 -3.3 2.65 -5.15 1.0 -7.2 L-0.7 -9.55 -1.45 -9.15 -2.45 -8.55 -2.85 -9.05 -3.15 -9.4 -4.75 -11.4 -4.55 -11.5 -5.05 -11.85 Q-5.65 -12.85 -5.65 -13.55 L-5.55 -14.0 -5.8 -14.2 Q-6.1 -14.6 -6.05 -15.3 -5.95 -16.85 -6.55 -16.85 -7.6 -16.85 -8.45 -15.55 L-9.15 -13.8 -9.25 -13.65 -9.7 -13.55 Q-10.7 -13.55 -10.65 -14.8 -10.65 -18.45 -7.1 -18.65 -5.75 -18.75 -4.9 -18.25 L-4.3 -17.7 -4.2 -17.9 Q-3.15 -17.2 -2.9 -16.0 L-2.45 -15.0 Q-2.25 -16.8 -0.85 -19.0 L-0.75 -19.15 -0.65 -18.6 M3.0 -20.35 L3.0 -20.3 2.85 -19.4 3.0 -20.35" fill="#8b6630" fill-rule="evenodd" stroke="none"/>
    <path d="M2.85 -19.4 L2.7 -19.0 Q2.3 -17.95 1.65 -17.95 0.75 -17.95 0.85 -18.7 L1.15 -19.75 Q1.4 -19.9 0.9 -19.9 0.65 -19.9 -0.65 -18.6 L-0.75 -19.15 -0.85 -19.0 Q-2.25 -16.8 -2.45 -15.0 L-2.9 -16.0 Q-3.15 -17.2 -4.2 -17.9 L-3.5 -18.85 -3.4 -19.2 -2.25 -20.85 -2.25 -20.9 -3.2 -21.0 -4.05 -21.1 Q-4.45 -21.2 -4.45 -21.85 -4.45 -22.85 -3.2 -22.85 L-1.8 -22.5 -0.4 -21.5 1.5 -21.6 Q2.3 -21.6 2.7 -21.05 L2.8 -20.95 2.95 -20.65 3.0 -20.4 3.0 -20.35 2.85 -19.4 M-0.05 -14.5 L0.1 -14.75 0.1 -14.8 0.15 -14.8 0.9 -14.9 -0.05 -14.5 M3.5 -3.3 L3.5 -3.0 Q3.5 -1.25 3.15 0.2 L-1.95 0.2 Q-0.7 -1.55 -0.7 -3.35 -0.7 -6.45 -2.85 -9.05 L-2.45 -8.55 -1.45 -9.15 -0.7 -9.55 1.0 -7.2 Q2.65 -5.15 3.5 -3.3 M-4.75 -11.4 L-5.05 -11.85 -4.55 -11.5 -4.75 -11.4" fill="#725327" fill-rule="evenodd" stroke="none"/>
  </g>
</svg>