<?xml version="1.0" encoding="UTF-8" standalone="no"?>
<svg xmlns:xlink="http://www.w3.org/1999/xlink" height="52.3px" width="87.25px" xmlns="http://www.w3.org/2000/svg">
  <g transform="matrix(1.0, 0.0, 0.0, 1.0, 96.7, 2.35)">
    <path d="M-65.1 4.0 L-60.45 -1.35 -59.75 -1.1 Q-59.45 -0.95 -59.45 -0.2 -59.45 0.3 -62.45 4.55 L-62.3 4.85 -62.5 4.6 Q-63.1 3.7 -63.65 3.7 -64.35 3.7 -64.75 4.05 L-65.25 4.5 -65.1 4.0 M-62.0 5.4 L-61.55 4.75 -60.45 4.15 -59.75 4.4 Q-59.45 4.6 -59.45 5.3 -59.45 6.1 -66.7 18.65 L-74.9 32.5 Q-74.9 34.15 -75.35 34.65 -75.7 35.05 -76.55 35.2 L-78.0 37.4 -79.0 36.35 -78.7 35.3 -79.35 35.45 -80.8 34.45 -80.55 35.65 -80.4 35.85 -81.1 36.0 Q-84.25 36.0 -86.3 33.65 L-84.5 31.15 -83.25 29.05 -84.4 26.95 Q-83.8 26.75 -83.8 25.9 -84.8 24.55 -86.45 24.5 L-86.4 24.35 -86.15 24.5 Q-81.9 18.5 -78.85 18.5 L-78.5 20.0 Q-81.1 24.15 -81.1 26.0 L-81.0 26.8 -80.7 27.0 Q-77.95 24.9 -70.95 17.1 L-73.2 20.1 -76.85 25.0 -76.6 25.65 -76.2 26.65 Q-76.1 25.1 -74.9 23.4 L-67.3 12.95 Q-61.95 6.7 -61.95 5.65 L-62.0 5.4 M-88.0 32.7 L-88.4 33.2 -86.5 34.35 Q-85.65 34.85 -85.65 35.45 -85.65 36.0 -87.0 37.8 L-90.15 36.95 Q-91.85 36.1 -91.85 34.9 -91.85 33.25 -90.65 31.3 -89.95 30.05 -89.05 29.3 L-89.25 28.9 -90.9 30.7 -92.0 31.35 Q-90.65 30.45 -89.1 28.6 L-87.0 25.65 -86.8 26.4 Q-86.35 27.0 -84.9 27.0 L-84.5 26.95 -86.85 29.65 Q-88.0 31.25 -88.0 32.7 M-90.5 24.15 L-90.9 23.85 Q-91.4 23.8 -91.4 23.2 -91.4 22.05 -89.2 22.9 L-90.5 24.15 M-43.9 45.95 L-42.25 43.1 Q-41.35 41.2 -41.05 39.25 L-34.25 35.85 Q-18.7 27.8 -18.7 25.35 L-18.8 24.65 -19.15 24.5 -21.15 24.75 -23.2 24.65 -22.95 24.3 -20.95 22.35 -20.75 22.15 -20.75 22.2 -21.15 23.0 -21.2 23.45 -20.6 23.9 -20.0 24.5 -17.55 24.3 -15.5 24.5 -15.4 24.7 -15.3 25.45 Q-15.3 25.85 -18.8 28.3 L-18.7 28.9 -14.8 26.7 -10.9 24.3 -10.65 24.2 Q-10.45 24.25 -10.45 24.95 -10.45 26.45 -14.2 28.85 L-19.8 32.4 -19.2 32.6 Q-18.7 32.9 -18.7 33.6 -18.7 35.45 -32.0 41.15 L-43.9 45.95 M-22.25 20.4 Q-24.7 21.3 -29.15 23.4 L-26.9 21.75 Q-22.15 18.25 -20.75 18.2 -21.35 19.3 -22.25 20.4 M-40.1 28.95 Q-43.25 30.65 -45.15 32.05 L-44.9 29.85 -44.95 29.15 Q-40.85 27.1 -40.15 27.1 L-39.85 27.2 Q-39.75 27.2 -39.75 27.9 L-40.1 28.95 M-47.05 29.1 L-48.6 30.2 -48.0 28.7 Q-48.0 28.15 -48.45 28.0 -48.95 27.9 -48.95 27.3 -48.75 26.0 -48.85 25.4 L-50.45 25.5 Q-48.7 23.65 -47.55 24.85 L-47.45 25.35 -48.75 27.0 -48.0 26.9 Q-47.25 27.15 -47.05 27.75 L-47.0 28.55 -47.05 29.1 M-50.95 25.65 Q-53.25 26.3 -56.4 28.75 L-58.0 30.05 -56.7 28.8 Q-52.85 25.2 -51.85 25.2 -51.1 25.2 -51.0 25.5 L-50.95 25.65 M-60.5 33.2 Q-60.45 33.6 -60.25 33.4 L-59.4 33.55 -56.6 32.5 -54.45 30.65 Q-50.85 27.85 -48.75 27.95 L-48.3 28.6 Q-49.25 29.8 -51.5 31.65 L-52.6 32.55 -52.5 32.95 -52.6 33.0 -52.9 33.25 -52.6 32.55 Q-54.85 34.25 -56.55 34.8 L-57.3 34.6 Q-57.6 34.35 -57.6 33.7 L-58.7 34.4 -60.55 33.35 -60.5 33.2 M-54.8 34.85 L-55.8 35.95 -55.8 35.85 Q-55.8 35.45 -54.8 34.85 M-55.35 39.35 L-54.9 39.6 -53.2 38.05 -53.25 37.5 Q-53.25 35.1 -50.85 33.65 L-46.25 31.6 -45.6 31.65 Q-45.3 31.75 -45.3 32.45 -45.3 33.15 -48.5 35.85 L-49.1 36.35 -49.65 36.8 -50.05 38.05 -50.05 38.25 -49.6 37.85 -49.8 38.4 Q-50.2 39.5 -50.25 40.9 L-51.1 42.15 -51.05 43.0 -50.85 43.2 -49.95 43.4 -49.8 43.35 -48.85 45.1 Q-48.3 44.5 -47.6 42.45 L-48.0 42.55 -48.95 42.0 Q-48.0 39.95 -47.2 39.0 -45.8 37.35 -43.2 37.35 L-43.0 37.4 Q-42.85 37.5 -42.85 38.15 -42.85 38.55 -44.9 40.4 L-46.8 41.95 -47.5 43.25 -46.5 42.75 -46.1 42.25 -45.1 41.2 -44.65 41.4 -46.05 43.95 Q-47.25 46.2 -47.25 46.85 L-46.75 47.4 -48.4 48.95 -49.8 47.7 -49.75 47.35 -50.65 46.45 -50.6 46.0 -50.65 45.9 -50.85 44.9 -52.35 46.45 Q-53.3 47.55 -54.0 47.7 L-54.7 47.35 -54.95 46.35 Q-54.95 45.0 -51.85 40.8 L-51.65 40.6 -54.0 41.25 Q-55.05 41.1 -55.3 40.55 L-55.4 39.5 -55.35 39.35 M-26.55 33.65 Q-25.75 33.45 -23.6 32.25 -21.25 30.95 -20.7 30.3 L-20.85 30.4 -26.55 33.65 M-34.7 39.2 L-35.25 39.45 Q-34.35 39.55 -32.6 38.55 -30.1 37.15 -32.1 38.05 L-34.7 39.2 M-42.0 33.8 L-42.0 33.65 -35.0 28.7 Q-30.6 25.9 -26.85 24.95 -29.8 27.3 -33.8 29.5 L-41.1 33.4 -42.0 33.8 M-82.2 30.3 L-82.25 30.35 Q-82.8 31.6 -82.85 32.9 L-82.6 34.0 -81.9 34.4 Q-81.1 34.1 -79.65 31.75 -78.35 29.65 -78.35 29.35 L-78.45 28.4 -78.55 28.05 Q-80.7 27.95 -81.85 29.65 L-81.95 29.3 -83.25 26.15 -83.7 26.55 -83.6 26.65 -82.2 30.3 M-45.9 35.95 L-45.6 35.85 -43.9 35.45 -44.15 35.55 -46.2 37.25 -45.9 35.95" fill="#807d5a" fill-rule="evenodd" stroke="none"/>
    <path d="M-62.3 4.85 L-62.0 5.4 -61.95 5.65 Q-61.95 6.7 -67.3 12.95 L-69.9 15.9 -70.95 17.1 Q-77.95 24.9 -80.7 27.0 L-81.0 26.8 -81.1 26.0 Q-81.1 24.15 -78.5 20.0 L-73.55 12.8 Q-66.75 3.7 -65.15 2.7 L-65.1 4.0 -65.25 4.5 -64.75 4.05 Q-64.35 3.7 -63.65 3.7 -63.1 3.7 -62.5 4.6 L-62.3 4.85 M-86.3 33.65 L-86.6 33.95 -87.85 33.1 -88.0 32.7 Q-88.0 31.25 -86.85 29.65 L-84.5 26.95 -84.9 27.0 Q-86.35 27.0 -86.8 26.4 L-87.0 25.65 -89.1 28.6 Q-90.65 30.45 -92.0 31.35 -93.4 32.25 -94.55 32.25 L-95.6 32.05 -95.7 31.1 Q-95.7 29.2 -91.7 25.25 L-90.5 24.15 -89.2 22.9 -87.0 21.3 Q-86.5 21.4 -86.35 21.55 -86.05 21.75 -86.05 22.5 -86.05 23.35 -86.4 24.35 L-86.45 24.5 Q-84.8 24.55 -83.8 25.9 -83.8 26.75 -84.4 26.95 L-83.25 29.05 -84.5 31.15 -86.3 33.65 M-20.75 22.15 L-20.95 22.35 -22.95 24.3 -23.2 24.65 -21.15 24.75 -19.15 24.5 -18.8 24.65 -18.7 25.35 Q-18.7 27.8 -34.25 35.85 L-41.05 39.25 Q-41.35 41.2 -42.25 43.1 L-43.9 45.95 -45.45 48.15 -46.75 47.4 -47.25 46.85 Q-47.25 46.2 -46.05 43.95 L-44.65 41.4 -45.1 41.2 -46.8 41.95 -44.9 40.4 Q-42.85 38.55 -42.85 38.15 -42.85 37.5 -43.0 37.4 L-43.2 37.35 Q-45.8 37.35 -47.2 39.0 -48.0 39.95 -48.95 42.0 L-48.0 42.55 -47.6 42.45 Q-48.3 44.5 -48.85 45.1 L-49.8 43.35 -49.95 43.4 -50.85 43.2 -51.05 43.0 -51.1 42.15 -50.25 40.9 Q-50.2 39.5 -49.8 38.4 L-49.6 37.85 -49.1 36.35 -48.5 35.85 Q-45.3 33.15 -45.3 32.45 -45.3 31.75 -45.6 31.65 L-46.25 31.6 -50.85 33.65 Q-53.25 35.1 -53.25 37.5 L-53.2 38.05 -54.9 39.6 -55.35 39.35 -56.7 38.3 Q-56.7 37.2 -55.8 35.95 L-54.8 34.85 -52.9 33.25 -52.6 33.0 -52.5 32.95 -52.6 32.55 -51.5 31.65 Q-49.25 29.8 -48.3 28.6 L-48.75 27.95 Q-50.85 27.85 -54.45 30.65 L-56.6 32.5 -59.4 33.55 -60.25 33.4 Q-60.45 33.6 -60.5 33.2 L-60.55 32.65 Q-60.55 32.2 -58.0 30.05 L-56.4 28.75 Q-53.25 26.3 -50.95 25.65 L-50.45 25.5 -48.85 25.4 Q-48.75 26.0 -48.95 27.3 -48.95 27.9 -48.45 28.0 -48.0 28.15 -48.0 28.7 L-48.6 30.2 -47.05 29.1 -45.9 28.15 -45.05 28.8 -44.95 29.15 -44.9 29.85 -45.15 32.05 Q-43.25 30.65 -40.1 28.95 L-34.9 26.2 -29.15 23.4 Q-24.7 21.3 -22.25 20.4 L-20.1 19.8 -20.0 20.55 Q-19.95 21.2 -20.75 22.15 M-41.1 33.4 L-33.8 29.5 Q-29.8 27.3 -26.85 24.95 -30.6 25.9 -35.0 28.7 L-42.0 33.65 -42.0 33.8 -42.0 33.85 -41.1 33.4 M-81.85 29.65 Q-80.7 27.95 -78.55 28.05 L-78.45 28.4 -78.35 29.35 Q-78.35 29.65 -79.65 31.75 -81.1 34.1 -81.9 34.4 L-82.6 34.0 -82.85 32.9 Q-82.8 31.6 -82.25 30.35 L-82.2 30.3 -81.85 29.65 M-45.9 35.95 L-46.2 37.25 -44.15 35.55 -43.9 35.45 -45.6 35.85 -45.9 35.95" fill="#bdb990" fill-rule="evenodd" stroke="none"/>
  </g>
</svg>