<?xml version="1.0" encoding="UTF-8" standalone="no"?>
<svg xmlns:xlink="http://www.w3.org/1999/xlink" height="28.55px" width="21px" xmlns="http://www.w3.org/2000/svg">
  <g transform="matrix(1.0, 0.0, 0.0, 1.0, 0.1, 1)">
    <path d="M9.9 0.0 L11.15 1.2 Q13.15 3.35 15.45 7.2 19.9 14.8 19.9 20.3 19.9 22.05 15.15 24.8 12.85 26.1 11.65 26.5 L12.15 25.15 12.3 25.15 12.4 25.1 12.65 24.45 12.6 24.3 12.3 24.5 12.4 23.4 12.4 22.85 12.45 22.95 12.65 22.75 13.0 23.15 13.05 23.1 13.3 21.05 13.1 19.9 Q13.75 19.95 14.8 19.25 L15.75 18.35 15.7 18.2 15.45 18.15 Q15.2 18.15 14.3 18.7 L13.1 19.2 12.7 18.85 Q12.0 15.5 10.95 14.6 L9.1 11.2 9.05 11.2 9.15 11.7 8.15 9.85 8.4 9.75 Q7.55 7.95 6.65 7.1 L6.55 7.15 3.45 2.35 6.3 1.25 Q9.25 0.1 9.9 0.0 M11.6 18.7 L11.45 18.1 10.35 14.7 Q11.45 16.15 11.6 18.6 L11.6 18.7 M12.4 18.7 L12.3 18.85 12.3 18.8 12.25 18.65 12.35 18.8 12.4 18.7" fill="#bdb990" fill-rule="evenodd" stroke="none"/>
    <path d="M3.45 2.35 L6.55 7.15 6.5 7.15 6.45 7.3 7.05 8.6 Q7.7 9.85 8.15 9.85 L9.15 11.7 9.45 13.25 Q9.65 14.05 10.2 14.45 L10.35 14.7 11.45 18.1 11.6 18.7 12.4 22.85 12.4 23.4 12.3 24.5 12.25 24.55 12.05 24.9 12.1 25.1 12.15 25.15 11.65 26.5 10.0 26.25 8.7 25.6 7.9 22.85 Q6.2 16.15 1.4 6.65 L0.95 5.6 3.45 2.35" fill="#807d5a" fill-rule="evenodd" stroke="none"/>
    <path d="M6.55 7.15 L6.65 7.1 Q7.55 7.95 8.4 9.75 L8.15 9.85 Q7.7 9.85 7.05 8.6 L6.45 7.3 6.5 7.15 6.55 7.15 M9.15 11.7 L9.05 11.2 9.1 11.2 10.95 14.6 Q12.0 15.5 12.7 18.85 L13.1 19.2 14.3 18.7 Q15.2 18.15 15.45 18.15 L15.7 18.2 15.75 18.35 14.8 19.25 Q13.75 19.95 13.1 19.9 L13.3 21.05 13.05 23.1 13.0 23.15 12.65 22.75 12.45 22.95 12.4 22.85 11.6 18.7 11.6 18.6 Q11.45 16.15 10.35 14.7 L10.2 14.45 Q9.65 14.05 9.45 13.25 L9.15 11.7 M12.3 24.5 L12.6 24.3 12.65 24.45 12.4 25.1 12.3 25.15 12.15 25.15 12.1 25.1 12.05 24.9 12.25 24.55 12.3 24.5 M12.4 18.7 L12.35 18.8 12.25 18.65 12.3 18.8 12.3 18.85 12.4 18.7" fill="#ffffff" fill-rule="evenodd" stroke="none"/>
    <path d="M11.65 26.5 Q12.85 26.1 15.15 24.8 19.9 22.05 19.9 20.3 19.9 14.8 15.45 7.2 13.15 3.35 11.15 1.2 L9.9 0.0 M11.65 26.5 L10.0 26.25 8.7 25.6 7.9 22.85 Q6.2 16.15 1.4 6.65 L0.95 5.6" fill="none" stroke="#5f5d41" stroke-linecap="round" stroke-linejoin="round" stroke-width="1"/>
  </g>
</svg>