<?xml version="1.0" encoding="UTF-8" standalone="no"?>
<svg xmlns:xlink="http://www.w3.org/1999/xlink" height="28.1px" width="27.75px" xmlns="http://www.w3.org/2000/svg">
  <g transform="matrix(1.0, 0.0, 0.0, 1.0, 11.75, 14.7)">
    <path d="M4.0 -2.4 L3.95 -2.4 4.0 -2.45 4.0 -2.4" fill="#9295a9" fill-rule="evenodd" stroke="none"/>
    <path d="M9.75 -9.5 L9.6 -9.5 9.6 -9.65 9.75 -9.5 M14.25 -2.95 L13.75 -4.1 13.4 -4.75 14.25 -2.95" fill="#5e5f77" fill-rule="evenodd" stroke="none"/>
    <path d="M-3.65 -3.25 L-4.2 -3.5 Q-5.65 -4.3 -5.65 -4.9 L-5.55 -5.35 -4.9 -5.5 -3.2 -5.05 -0.95 -4.65 Q1.4 -4.65 2.15 -5.2 L3.45 -6.2 7.75 -6.85 Q8.6 -7.4 8.75 -8.5 8.85 -9.65 9.3 -9.9 L9.55 -9.0 9.45 -8.1 9.3 -7.45 9.3 -7.35 9.3 -7.3 9.25 -7.25 9.05 -6.7 Q7.95 -5.65 4.85 -4.3 L2.85 -3.45 2.8 -3.45 1.9 -3.3 -1.15 -3.15 -1.35 -3.15 -1.5 -3.15 -1.7 -3.15 -3.65 -3.25" fill="#ffffff" fill-rule="evenodd" stroke="none"/>
    <path d="M0.45 9.9 Q-2.85 9.9 -4.65 7.65 -5.8 6.2 -5.8 5.25 -5.8 3.3 -3.1 1.75 -0.6 0.3 2.9 -0.15 L8.9 0.25 Q11.6 1.25 11.6 3.75 11.6 5.7 8.45 7.7 4.95 9.9 0.45 9.9" fill="#22222b" fill-rule="evenodd" stroke="none"/>
    <path d="M-10.65 -6.05 L-10.65 -5.95 Q-7.75 -3.7 -3.65 -3.25 L-1.7 -3.15 -1.5 -3.15 -1.35 -3.15 -1.15 -3.15 1.9 -3.3 2.8 -3.45 2.85 -3.45 Q5.45 -3.9 7.1 -4.85 8.55 -5.7 9.05 -6.7 L9.25 -7.25 9.3 -7.3 9.3 -7.35 9.3 -7.45 9.45 -8.1 9.6 -9.5 9.55 -9.1 9.95 -8.6 Q10.65 -7.85 10.95 -6.9 L11.45 -6.25 11.95 -5.7 12.45 -4.45 Q13.1 -3.1 13.5 -0.95 13.75 0.45 14.25 0.45 14.65 0.45 14.7 -0.15 L14.7 -0.85 14.65 -1.7 15.0 0.9 14.85 1.5 Q14.35 5.05 11.9 8.3 9.4 11.55 6.55 12.0 L1.95 12.4 Q-1.25 12.4 -4.55 10.55 -7.2 9.05 -8.1 7.05 L-8.35 6.4 -8.65 4.6 Q-8.65 1.1 -3.2 -0.95 L-0.35 -1.8 3.95 -2.4 -0.35 -1.8 -3.2 -0.95 Q-8.65 1.1 -8.65 4.6 L-8.35 6.4 -10.65 1.4 -10.75 -2.45 -10.65 -6.05 M3.95 -2.4 L4.0 -2.4 4.0 -2.45 3.95 -2.4 M4.0 -2.4 L4.65 -2.45 Q7.65 -2.45 10.9 -1.15 13.9 0.1 14.85 1.5 13.9 0.1 10.9 -1.15 7.65 -2.45 4.65 -2.45 L4.0 -2.4 M0.45 9.9 Q4.95 9.9 8.45 7.7 11.6 5.7 11.6 3.75 11.6 1.25 8.9 0.25 L2.9 -0.15 Q-0.6 0.3 -3.1 1.75 -5.8 3.3 -5.8 5.25 -5.8 6.2 -4.65 7.65 -2.85 9.9 0.45 9.9" fill="#807d5a" fill-rule="evenodd" stroke="none"/>
    <path d="M9.6 -9.65 L9.6 -9.5 9.75 -9.5 10.65 -8.6 10.75 -8.5 11.25 -7.9 11.75 -7.25 12.75 -5.8 13.4 -4.75 13.75 -4.1 14.25 -2.95 14.6 -1.95 14.65 -1.7 14.7 -0.85 14.7 -0.15 Q14.65 0.45 14.25 0.45 13.75 0.45 13.5 -0.95 13.1 -3.1 12.45 -4.45 L11.95 -5.7 11.45 -6.25 10.95 -6.9 Q10.65 -7.85 9.95 -8.6 L9.55 -9.1 9.6 -9.5 9.45 -8.1 9.55 -9.0 9.3 -9.9 Q8.85 -9.65 8.75 -8.5 8.6 -7.4 7.75 -6.85 L3.45 -6.2 2.15 -5.2 Q1.4 -4.65 -0.95 -4.65 L-3.2 -5.05 -4.9 -5.5 -5.55 -5.35 -5.65 -4.9 Q-5.65 -4.3 -4.2 -3.5 L-3.65 -3.25 Q-7.75 -3.7 -10.65 -5.95 L-10.65 -6.05 -10.65 -6.35 Q-10.35 -8.6 -9.2 -10.35 -8.0 -11.7 -5.85 -12.6 -3.3 -13.7 -0.85 -13.7 5.3 -13.7 9.6 -9.65 M9.05 -6.7 Q8.55 -5.7 7.1 -4.85 5.45 -3.9 2.85 -3.45 L4.85 -4.3 Q7.95 -5.65 9.05 -6.7" fill="#bdb990" fill-rule="evenodd" stroke="none"/>
    <path d="M9.75 -9.5 L9.6 -9.65 Q5.3 -13.7 -0.85 -13.7 -3.3 -13.7 -5.85 -12.6 -8.0 -11.7 -9.2 -10.35 -10.35 -8.6 -10.65 -6.35 L-10.65 -6.05 -10.75 -2.45 -10.65 1.4 -8.35 6.4 -8.1 7.05 Q-7.2 9.05 -4.55 10.55 -1.25 12.4 1.95 12.4 L6.55 12.0 Q9.4 11.55 11.9 8.3 14.35 5.05 14.85 1.5 13.9 0.1 10.9 -1.15 7.65 -2.45 4.65 -2.45 L4.0 -2.4 3.95 -2.4 -0.35 -1.8 -3.2 -0.95 Q-8.65 1.1 -8.65 4.6 L-8.35 6.4 M14.65 -1.7 L14.6 -1.95 14.25 -2.95 13.4 -4.75 12.75 -5.8 11.75 -7.25 11.25 -7.9 10.75 -8.5 10.65 -8.6 9.75 -9.5 M14.85 1.5 L15.0 0.9 14.65 -1.7" fill="none" stroke="#5f5d41" stroke-linecap="round" stroke-linejoin="round" stroke-width="1"/>
  </g>
</svg>