<?xml version="1.0" encoding="UTF-8" standalone="no"?>
<svg xmlns:xlink="http://www.w3.org/1999/xlink" height="24px" width="40.6px" xmlns="http://www.w3.org/2000/svg">
  <g transform="matrix(1.0, 0.0, 0.0, 1.0, 17.25, 11.8)">
    <path d="M0.3 -2.3 L1.1 -2.6 4.7 -3.65 0.3 -2.3 M10.35 -7.35 L10.35 -7.6 11.0 -8.0 10.75 -7.75 10.35 -7.35 M12.6 -8.55 L12.6 -8.5 11.9 -8.8 12.6 -8.55 M-2.25 1.2 L-2.15 1.55 -2.2 1.55 -2.25 1.55 -2.4 1.55 -2.4 1.5 -2.25 1.2 M-2.1 1.9 L-2.0 2.25 -2.05 2.25 -2.1 1.9 M-9.9 2.95 L-9.9 2.85 -9.85 2.9 -9.9 2.95" fill="#9295a9" fill-rule="evenodd" stroke="none"/>
    <path d="M-2.7 -1.5 L-0.3 -3.5 Q0.05 -3.9 2.65 -4.5 L5.85 -5.3 Q6.7 -5.7 7.05 -6.45 7.45 -7.35 8.0 -7.75 L9.15 -8.35 9.55 -8.55 11.1 -9.1 11.8 -8.85 11.9 -8.8 11.0 -8.0 10.35 -7.6 10.35 -7.35 Q8.1 -5.05 7.25 -4.7 L4.7 -3.65 1.1 -2.6 0.3 -2.3 -1.1 -1.95 -2.7 -1.5 M-2.4 0.8 L-2.25 1.2 -2.4 1.5 -2.4 1.55 -2.4 1.6 -3.55 1.75 -7.55 2.4 -7.7 1.85 Q-7.7 0.95 -4.6 0.65 L-2.9 0.25 -2.6 0.25 -2.4 0.8" fill="#ffffff" fill-rule="evenodd" stroke="none"/>
    <path d="M-9.9 2.95 Q-9.0 4.6 -9.25 6.75 -9.4 7.95 -10.45 7.95 -11.5 7.95 -13.25 5.2 -15.05 2.3 -14.8 0.4 L-14.65 -0.1 -14.55 -0.2 -14.3 -0.4 -13.9 -0.45 Q-13.15 -0.45 -12.05 0.45 L-11.2 1.2 Q-10.4 1.95 -9.9 2.85 L-9.9 2.95" fill="#22222b" fill-rule="evenodd" stroke="none"/>
    <path d="M11.8 -8.85 L11.1 -9.1 9.55 -8.55 9.15 -8.35 8.0 -7.75 Q7.45 -7.35 7.05 -6.45 6.7 -5.7 5.85 -5.3 L2.65 -4.5 Q0.05 -3.9 -0.3 -3.5 L-2.7 -1.5 -3.55 -1.3 -3.2 -0.85 2.0 -1.85 Q6.1 -2.8 7.25 -3.45 9.15 -4.5 10.3 -5.4 L11.05 -6.1 13.0 -8.35 15.25 -7.3 17.15 -6.25 16.85 -6.05 15.8 -4.85 12.25 -2.45 10.25 -1.25 Q9.1 -0.5 8.2 -0.15 L3.6 0.85 -0.4 1.35 -2.4 0.8 -2.6 0.25 -2.9 0.25 -4.6 0.65 Q-7.7 0.95 -7.7 1.85 L-7.55 2.4 -7.6 2.4 -8.85 0.85 Q-10.25 -0.9 -11.65 -1.7 -14.0 -3.35 -15.4 -2.25 L-14.85 -3.1 -12.25 -4.35 -9.7 -5.2 -8.15 -4.6 Q-5.85 -6.4 -3.1 -8.95 -0.7 -10.8 2.0 -10.8 6.75 -10.8 11.8 -8.85 M-3.55 -1.3 Q-5.25 -3.4 -8.15 -4.6 -5.25 -3.4 -3.55 -1.3 M-3.2 -0.85 L-2.6 0.25 -3.2 -0.85 M-9.45 10.8 Q-10.45 10.8 -10.45 10.3 -10.45 10.05 -8.75 9.55 L-6.5 8.9 Q-5.45 8.35 -4.65 8.1 -3.1 7.55 -3.1 8.4 -3.1 8.85 -5.8 9.85 -8.4 10.8 -9.45 10.8 M-1.15 6.75 Q-0.9 6.35 -0.55 6.35 L1.25 6.55 10.0 5.5 Q13.75 4.7 15.8 3.9 18.6 2.75 19.65 1.85 L20.7 0.5 Q21.65 -0.45 21.65 0.75 21.65 1.7 19.8 3.05 17.95 4.4 15.7 5.05 L9.15 6.5 2.75 7.5 -0.75 7.3 Q-0.9 6.95 -1.15 6.75" fill="#bdb990" fill-rule="evenodd" stroke="none"/>
    <path d="M-3.55 -1.3 L-2.7 -1.5 -1.1 -1.95 0.3 -2.3 4.7 -3.65 7.25 -4.7 Q8.1 -5.05 10.35 -7.35 L10.75 -7.75 11.0 -8.0 11.9 -8.8 12.6 -8.5 12.6 -8.55 13.0 -8.35 11.05 -6.1 10.3 -5.4 Q9.15 -4.5 7.25 -3.45 6.1 -2.8 2.0 -1.85 L-3.2 -0.85 -3.55 -1.3 M17.15 -6.25 L17.75 -5.85 Q22.35 -2.9 22.35 0.1 22.35 5.15 10.2 6.9 L-2.5 7.85 -2.75 8.25 Q-3.4 9.35 -4.35 9.6 L-8.05 10.7 -10.15 11.2 Q-13.05 11.2 -15.45 6.35 -16.45 4.3 -16.2 0.55 L-16.1 -0.7 -15.6 -1.9 -15.4 -2.25 Q-14.0 -3.35 -11.65 -1.7 -10.25 -0.9 -8.85 0.85 L-7.6 2.4 -7.55 2.4 -3.55 1.75 -2.4 1.6 -2.4 1.55 -2.25 1.55 -2.2 1.55 -2.15 1.55 -2.25 1.2 -2.4 0.8 -0.4 1.35 3.6 0.85 8.2 -0.15 Q9.1 -0.5 10.25 -1.25 L12.25 -2.45 15.8 -4.85 16.85 -6.05 17.15 -6.25 M-2.1 1.9 L-2.2 1.55 -2.1 1.9 -2.05 2.25 -2.0 2.25 -2.1 1.9 M-2.5 7.85 Q-2.05 6.95 -1.95 5.75 -1.75 4.3 -2.0 2.45 L-2.0 2.3 -2.0 2.25 -2.0 2.3 -2.0 2.45 Q-1.75 4.3 -1.95 5.75 -2.05 6.95 -2.5 7.85 M-9.9 2.85 Q-10.4 1.95 -11.2 1.2 L-12.05 0.45 Q-13.15 -0.45 -13.9 -0.45 L-14.3 -0.4 -14.55 -0.2 -14.65 -0.1 -14.8 0.4 Q-15.05 2.3 -13.25 5.2 -11.5 7.95 -10.45 7.95 -9.4 7.95 -9.25 6.75 -9.0 4.6 -9.9 2.95 L-9.85 2.9 -9.9 2.85 M-1.15 6.75 Q-0.9 6.95 -0.75 7.3 L2.75 7.5 9.15 6.5 15.7 5.05 Q17.95 4.4 19.8 3.05 21.65 1.7 21.65 0.75 21.65 -0.45 20.7 0.5 L19.65 1.85 Q18.6 2.75 15.8 3.9 13.75 4.7 10.0 5.5 L1.25 6.55 -0.55 6.35 Q-0.9 6.35 -1.15 6.75 M-9.45 10.8 Q-8.4 10.8 -5.8 9.85 -3.1 8.85 -3.1 8.4 -3.1 7.55 -4.65 8.1 -5.45 8.35 -6.5 8.9 L-8.75 9.55 Q-10.45 10.05 -10.45 10.3 -10.45 10.8 -9.45 10.8" fill="#807d5a" fill-rule="evenodd" stroke="none"/>
    <path d="M11.8 -8.85 Q6.75 -10.8 2.0 -10.8 -0.7 -10.8 -3.1 -8.95 -5.85 -6.4 -8.15 -4.6 -5.25 -3.4 -3.55 -1.3 L-3.2 -0.85 2.0 -1.85 Q6.1 -2.8 7.25 -3.45 9.15 -4.5 10.3 -5.4 L11.05 -6.1 13.0 -8.35 12.6 -8.55 11.9 -8.8 11.8 -8.85 M13.0 -8.35 L15.25 -7.3 17.15 -6.25 17.75 -5.85 Q22.35 -2.9 22.35 0.1 22.35 5.15 10.2 6.9 L-2.5 7.85 -2.75 8.25 Q-3.4 9.35 -4.35 9.6 L-8.05 10.7 -10.15 11.2 Q-13.05 11.2 -15.45 6.35 -16.45 4.3 -16.2 0.55 L-16.1 -0.7 -15.6 -1.9 -15.4 -2.25 -14.85 -3.1 -12.25 -4.35 -9.7 -5.2 -8.15 -4.6 M-2.4 0.8 L-2.25 1.2 -2.15 1.55 M-2.2 1.55 L-2.1 1.9 -2.0 2.25 -2.0 2.3 -2.0 2.45 Q-1.75 4.3 -1.95 5.75 -2.05 6.95 -2.5 7.85 M-2.6 0.25 L-3.2 -0.85 M-9.9 2.85 Q-10.4 1.95 -11.2 1.2 L-12.05 0.45 Q-13.15 -0.45 -13.9 -0.45 L-14.3 -0.4 -14.55 -0.2 -14.65 -0.1 -14.8 0.4 Q-15.05 2.3 -13.25 5.2 -11.5 7.95 -10.45 7.95 -9.4 7.95 -9.25 6.75 -9.0 4.6 -9.9 2.95 L-9.9 2.85 M-2.4 0.8 L-2.6 0.25" fill="none" stroke="#5f5d41" stroke-linecap="round" stroke-linejoin="round" stroke-width="1"/>
  </g>
</svg>