<?xml version="1.0" encoding="UTF-8" standalone="no"?>
<svg xmlns:xlink="http://www.w3.org/1999/xlink" height="76.6px" width="136.35px" xmlns="http://www.w3.org/2000/svg">
  <g transform="matrix(1.0, 0.0, 0.0, 1.0, 0.6, -9.2)">
    <path d="M128.1 30.3 L128.6 26.1 128.7 26.1 129.6 31.9 129.0 33.2 128.1 30.3 M123.15 37.65 L122.65 41.15 120.8 37.05 Q121.6 34.95 121.7 33.85 L123.15 37.65 M88.25 21.25 L88.3 19.9 89.1 25.95 88.55 30.35 88.25 30.35 Q87.45 27.55 87.45 26.55 87.45 26.0 87.8 24.1 L88.25 21.25 M97.1 35.2 Q97.6 35.85 98.0 38.6 L96.95 37.55 96.7 37.75 96.2 38.5 95.85 39.75 96.2 37.35 96.8 35.4 97.1 35.2 M83.9 41.8 Q84.2 42.0 84.4 43.35 83.35 44.1 83.4 43.5 L83.8 41.85 83.9 41.8 M55.75 39.75 L55.9 39.2 56.45 40.75 Q57.1 42.15 56.9 42.75 56.35 41.85 55.8 41.6 55.55 41.5 55.55 41.0 L55.75 39.75 M46.2 14.15 L45.75 17.65 Q45.1 14.55 45.95 10.2 L46.2 12.25 46.2 14.15 M116.5 61.5 Q117.85 57.35 118.6 51.65 119.15 47.1 119.05 44.85 121.0 55.7 121.95 58.4 122.5 59.8 122.9 60.05 L123.45 58.25 123.65 57.35 123.85 57.95 Q124.05 59.0 124.6 59.6 L125.25 60.15 125.95 59.8 126.65 59.4 127.5 60.7 Q128.3 61.75 128.7 61.8 L129.95 59.75 Q130.75 58.05 131.15 56.3 131.4 58.0 132.65 60.4 133.65 62.25 134.35 63.1 L134.75 63.05 134.75 84.8 0.4 84.8 0.4 63.0 Q0.85 62.25 2.35 56.05 L4.0 48.6 4.35 50.6 6.5 59.2 Q7.3 61.2 10.1 61.8 11.35 60.75 12.5 55.1 13.8 48.45 13.95 39.4 L17.2 72.7 20.35 53.65 Q20.8 55.15 20.95 55.15 21.4 59.6 21.9 59.95 22.15 58.9 22.4 53.9 L22.65 48.3 22.55 42.0 Q22.95 47.75 24.2 59.75 24.2 60.35 24.35 60.35 L24.6 60.15 Q24.85 59.85 25.15 56.9 L25.75 51.8 25.95 53.05 26.45 56.6 Q26.6 57.65 27.95 58.5 L28.1 57.85 28.2 46.9 30.1 56.15 Q30.75 59.2 31.7 59.2 32.95 59.2 33.7 58.25 34.5 57.25 34.5 55.45 34.5 51.0 35.2 41.6 L37.4 54.1 Q38.05 57.95 38.95 58.7 L39.75 55.65 40.05 55.8 43.35 58.2 Q44.0 57.35 45.15 52.85 L45.25 53.15 Q45.45 55.95 47.0 55.95 L47.7 55.75 48.0 55.25 Q49.5 57.5 50.15 57.5 50.9 57.5 52.9 58.4 L53.9 56.45 Q54.5 57.85 55.7 59.4 L56.2 58.55 56.7 57.35 56.8 57.65 57.25 59.25 Q57.8 60.8 58.3 61.5 L59.25 58.95 Q59.7 57.05 60.6 54.95 L61.4 41.75 62.5 56.0 63.6 63.3 64.35 63.35 Q64.95 59.9 65.85 59.1 66.35 58.65 67.2 58.55 68.6 57.8 68.5 44.0 L68.85 49.1 Q69.35 53.8 70.45 56.0 L71.95 54.05 72.3 55.15 73.15 57.2 Q73.9 58.8 74.45 59.4 L74.9 58.65 75.45 57.05 76.3 58.35 76.85 58.85 77.35 58.75 78.2 56.1 78.75 48.65 Q79.4 54.35 80.55 56.6 L81.8 59.15 Q82.3 56.85 83.7 53.95 84.4 52.45 84.85 44.85 L85.05 51.25 Q85.25 53.85 85.4 54.2 L85.45 54.1 Q86.65 55.5 87.25 58.3 87.9 61.25 88.35 61.95 L88.65 60.85 Q88.7 60.3 89.25 60.3 L89.95 60.75 Q90.5 61.2 90.85 61.0 91.95 60.35 92.1 53.4 L92.65 54.35 Q95.9 59.8 95.9 61.7 L96.85 60.75 97.2 60.15 97.85 61.25 98.65 61.5 Q99.7 58.2 100.7 49.3 101.15 58.65 102.8 61.6 L104.4 63.8 Q105.45 65.15 106.1 66.9 106.6 66.45 107.75 63.85 L109.35 60.6 110.6 62.15 111.55 63.15 111.8 62.8 Q112.1 62.3 112.7 61.95 113.3 63.6 113.7 63.65 114.15 62.95 114.7 60.25 115.25 57.55 115.4 55.35 L116.5 61.5 M103.95 43.0 L104.9 40.0 105.2 41.95 105.5 45.15 103.95 43.0 M109.45 36.75 L109.95 35.55 110.35 37.7 109.95 41.0 109.35 39.95 Q108.95 39.25 108.95 38.65 108.95 38.05 109.45 36.75 M64.9 28.15 L63.75 25.65 Q62.9 23.45 64.2 18.75 L65.4 25.55 64.9 28.15 M68.8 43.4 L68.55 43.25 68.85 42.2 69.6 44.1 68.8 43.4 M80.9 46.25 Q79.85 45.65 79.85 43.75 L80.1 41.5 Q80.45 44.3 80.9 46.25 M75.7 39.2 L75.3 38.4 73.9 36.35 72.65 38.55 74.15 33.3 75.7 39.2 M20.75 23.35 L19.15 22.65 20.25 15.7 20.75 23.35 M39.05 20.85 L39.3 26.6 39.2 26.75 39.1 27.8 Q38.15 28.3 38.1 26.7 38.0 25.3 38.6 23.0 L39.05 20.85 M27.45 44.1 L27.3 43.85 Q27.0 42.8 27.25 41.65 L27.4 41.7 27.75 42.6 27.45 44.1" fill="url(#gradient0)" fill-rule="evenodd" stroke="none"/>
  </g>
  <defs>
    <linearGradient gradientTransform="matrix(0.0, -0.0317, 0.082, 0.0, 67.55, 56.65)" gradientUnits="userSpaceOnUse" id="gradient0" spreadMethod="pad" x1="-819.2" x2="819.2">
      <stop offset="0.0" stop-color="#912727"></stop>
      <stop offset="1.0" stop-color="#ffb600" stop-opacity="0.8"></stop>
    </linearGradient>
  </defs>
</svg>