<?xml version="1.0" encoding="UTF-8" standalone="no"?>
<svg xmlns:xlink="http://www.w3.org/1999/xlink" height="73.65px" width="136.35px" xmlns="http://www.w3.org/2000/svg">
  <g transform="matrix(1.0, 0.0, 0.0, 1.0, 0.6, -12.15)">
    <path d="M129.6 36.4 L129.0 37.7 128.1 34.8 128.6 30.6 128.7 30.6 129.6 36.4 M121.7 38.35 L123.15 42.15 122.65 45.65 120.8 41.55 Q121.6 39.45 121.7 38.35 M87.45 31.05 Q87.45 30.5 87.8 28.6 L88.25 25.75 88.3 24.4 89.1 30.45 88.55 34.85 88.25 34.85 Q87.45 32.05 87.45 31.05 M83.35 47.8 L83.8 46.35 83.9 46.3 Q84.35 46.65 84.2 48.9 L83.35 47.8 M96.95 42.05 L96.7 42.25 96.2 43.0 95.85 44.25 96.2 41.85 96.8 39.9 97.1 39.7 Q97.6 40.35 98.0 43.1 L96.95 42.05 M103.95 47.5 L104.9 44.5 105.2 46.45 105.5 49.65 103.95 47.5 M109.95 40.05 L110.05 42.2 109.95 45.5 109.85 45.5 109.25 44.15 Q109.1 43.9 109.95 40.05 M114.0 58.45 Q115.2 61.35 116.25 62.5 L116.6 62.65 Q117.9 62.2 119.2 58.8 L120.25 55.25 122.7 63.2 Q123.55 59.5 123.7 55.85 L124.15 57.05 Q126.0 55.45 126.7 53.05 L126.95 52.0 127.85 54.3 128.7 55.95 129.15 56.15 130.6 54.15 131.55 58.3 Q132.75 61.9 134.75 63.05 L134.75 84.8 0.4 84.8 0.4 63.0 3.4 62.9 Q5.9 62.4 7.25 60.5 L8.8 61.4 Q10.35 60.4 11.65 55.55 L12.9 50.3 Q14.7 53.75 15.3 61.9 L15.95 70.4 Q17.45 68.95 18.2 55.2 L18.65 41.15 18.75 40.5 18.75 40.35 Q19.45 41.25 20.1 44.8 20.7 48.1 20.85 51.6 L21.6 51.6 22.15 48.75 Q22.7 53.0 23.4 56.3 24.1 59.65 24.6 60.35 L24.8 60.4 26.1 56.4 27.95 58.5 28.4 56.7 Q28.9 58.5 29.55 59.1 30.0 59.5 30.9 59.5 33.4 59.5 34.85 56.1 35.7 54.05 37.35 46.6 L39.3 52.5 39.65 52.5 40.1 49.15 40.35 61.55 Q40.75 66.5 42.1 67.85 L42.2 67.9 Q43.3 64.75 43.8 52.25 L44.15 38.6 44.15 38.15 45.3 45.0 46.2 49.85 Q46.85 49.45 47.1 48.4 L47.15 48.0 Q47.8 49.15 49.35 55.55 51.0 62.25 51.9 67.65 L55.4 52.25 55.9 55.15 Q56.15 57.2 56.55 57.95 L56.65 58.05 57.4 54.15 57.5 53.35 Q58.2 54.8 58.55 57.7 L59.3 68.8 Q61.0 54.9 62.9 46.55 L63.45 50.65 Q63.8 52.6 64.55 53.6 L65.1 54.35 65.7 52.15 65.85 51.05 66.4 53.4 Q66.95 55.3 67.35 55.55 67.85 55.45 68.3 54.35 L69.25 55.15 Q69.7 55.55 70.2 55.5 L70.6 64.55 Q70.85 70.65 71.05 71.95 L71.2 71.95 Q71.8 70.75 72.4 65.35 L74.1 50.75 75.2 53.0 Q76.35 55.8 77.05 59.15 L77.8 57.05 78.0 56.9 Q78.35 58.3 78.7 70.1 L79.65 62.2 Q80.1 59.15 80.65 57.95 81.1 57.95 81.1 57.55 81.5 60.5 81.8 71.2 82.3 62.8 83.15 54.75 L84.1 55.5 84.65 55.45 Q85.0 58.65 85.35 59.55 L85.4 59.6 Q85.9 58.2 86.4 53.5 L87.05 45.5 89.0 51.9 89.25 52.3 89.55 44.95 Q91.75 54.9 92.65 57.4 93.15 58.85 93.85 59.7 L94.05 59.75 94.65 58.55 Q95.15 57.35 95.25 55.5 L95.35 56.05 95.85 56.6 97.05 53.55 Q97.65 54.9 98.9 60.6 L100.5 67.2 100.6 67.3 Q101.9 65.7 102.9 60.2 L103.7 54.55 103.75 54.2 104.3 56.95 Q104.65 58.85 105.15 59.65 L105.25 59.75 105.8 56.85 106.05 55.3 Q107.2 59.15 107.3 62.0 L107.55 72.05 Q107.55 59.05 108.05 59.55 L108.65 57.55 Q109.35 60.9 109.5 70.1 L109.6 70.1 Q110.25 66.05 110.85 57.1 111.85 60.0 112.25 60.5 L114.0 58.45 M56.9 47.25 L56.65 46.85 55.6 45.4 55.9 43.7 Q56.5 45.4 57.05 46.55 L56.9 47.25 M44.55 20.8 L45.95 13.15 Q46.6 13.1 45.55 25.6 44.55 21.8 44.55 20.8 M65.25 35.3 L64.9 36.85 63.9 33.9 Q63.2 31.65 63.2 31.05 L63.55 28.65 64.2 24.5 64.55 27.35 65.4 35.1 65.25 35.3 M68.85 46.7 L69.65 48.35 Q69.6 48.5 68.55 47.75 L68.85 46.7 M79.85 48.25 L80.1 46.0 Q80.45 48.8 80.9 50.75 79.85 50.15 79.85 48.25 M75.3 42.9 L73.9 40.85 72.65 43.05 74.15 37.8 75.7 43.7 75.3 42.9 M19.15 30.35 L20.2 24.15 20.25 23.4 21.55 35.9 21.15 38.45 21.15 32.05 20.2 32.05 19.15 30.35 M39.05 26.65 Q39.35 32.5 39.15 35.9 L39.05 35.9 37.8 32.0 38.2 30.0 39.05 26.65 M27.3 47.85 L27.5 47.9 27.7 50.0 27.6 51.5 27.55 51.4 26.3 49.65 Q26.3 48.85 27.3 47.85" fill="url(#gradient0)" fill-rule="evenodd" stroke="none"/>
  </g>
  <defs>
    <linearGradient gradientTransform="matrix(0.0, -0.0241, 0.082, 0.0, 67.55, 61.55)" gradientUnits="userSpaceOnUse" id="gradient0" spreadMethod="pad" x1="-819.2" x2="819.2">
      <stop offset="0.0" stop-color="#912727"></stop>
      <stop offset="1.0" stop-color="#ffb600" stop-opacity="0.8"></stop>
    </linearGradient>
  </defs>
</svg>