<?xml version="1.0" encoding="UTF-8" standalone="no"?>
<svg xmlns:xlink="http://www.w3.org/1999/xlink" height="36.9px" width="39.15px" xmlns="http://www.w3.org/2000/svg">
  <g transform="matrix(1.0, 0.0, 0.0, 1.0, 18.9, 18.45)">
    <path d="M-8.2 -2.5 L-1.9 -4.15 Q8.95 -8.95 9.75 -9.15 L9.65 -9.0 6.25 -4.7 8.55 -5.65 11.85 -5.8 Q13.05 -5.8 16.25 -4.6 L15.5 -4.0 14.3 -3.25 6.25 1.65 5.6 2.2 6.4 2.55 6.4 2.65 6.2 2.85 6.6 2.9 Q7.9 3.55 8.1 4.15 L3.15 4.5 2.65 4.35 0.35 3.65 Q2.7 1.85 4.9 -1.25 L6.6 -3.5 3.75 -2.75 Q-4.9 -0.7 -8.2 0.55 L-7.7 0.75 -7.1 0.85 Q-6.3 0.85 -1.0 -0.75 L0.05 -0.7 Q0.0 -0.45 0.25 -0.45 -1.05 1.5 -11.2 3.95 L-8.25 5.25 -7.0 5.7 -7.2 5.7 -9.05 5.65 -9.0 5.75 -8.8 6.05 -7.75 7.75 -6.05 10.1 Q-7.3 10.0 -11.0 8.1 L-13.1 6.95 -12.7 1.8 -12.85 1.45 -12.7 1.35 -12.45 1.15 -12.0 0.8 Q-9.6 -0.9 -8.7 -1.95 L-8.4 -2.3 -8.2 -2.5 M-11.75 11.6 L-11.9 12.05 Q-12.7 11.45 -13.4 11.0 L-13.25 9.25 -13.0 9.75 -11.75 11.6 M-15.6 -4.55 L-10.15 -14.9 -10.0 -14.4 -9.7 -11.05 -9.65 -9.9 -11.5 -4.9 -13.5 0.05 -15.6 -4.55" fill="#f2eaea" fill-rule="evenodd" stroke="none"/>
    <path d="M15.5 -4.0 L16.25 -4.6 Q13.05 -5.8 11.85 -5.8 L8.55 -5.65 6.25 -4.7 9.65 -9.0 9.75 -9.15 Q8.95 -8.95 -1.9 -4.15 L-8.2 -2.5 -8.5 -2.4 -8.9 -2.2 -8.95 -2.75 -9.05 -3.65 -9.15 -4.8 -8.95 -3.95 -9.7 -11.05 -10.0 -14.4 -10.15 -14.9 -15.6 -4.55 -16.3 -6.1 -15.3 -8.05 -14.65 -9.25 Q-11.95 -14.05 -10.0 -16.6 L-9.35 -17.45 -8.6 -10.5 -8.4 -8.75 -5.3 -12.3 -4.35 -13.4 Q-4.5 -13.0 -3.9 -10.8 -3.55 -9.35 -3.55 -7.65 -3.55 -7.15 -3.9 -5.8 L-4.05 -5.2 -2.15 -5.75 -0.95 -6.05 4.0 -8.3 Q10.25 -10.85 13.45 -10.8 L13.5 -10.55 9.85 -6.9 15.6 -6.15 17.35 -5.45 17.95 -5.15 12.8 3.05 Q16.75 5.0 19.25 6.85 L18.2 7.95 Q15.8 7.75 10.3 8.9 L6.7 9.65 6.3 9.9 4.25 11.1 4.15 11.2 Q5.9 11.9 9.65 13.35 L11.65 14.35 13.35 15.5 13.95 16.15 Q13.75 16.55 12.35 17.1 L0.35 17.0 -3.8 15.85 Q-5.75 15.15 -7.85 15.05 L-6.45 16.7 -6.7 17.45 Q-13.25 17.25 -15.35 15.4 L-15.6 14.95 -15.0 14.4 -14.95 14.45 Q-12.75 16.05 -10.75 16.05 L-8.7 15.95 Q-10.65 14.0 -11.85 12.1 L-11.9 12.05 -11.75 11.6 -11.35 11.3 -6.35 13.2 0.8 15.6 11.0 15.6 Q10.5 14.8 6.7 13.5 3.65 12.45 2.5 11.75 L3.5 10.85 4.45 10.0 1.8 9.6 Q-0.4 9.05 -1.35 8.2 L2.1 8.25 9.25 7.55 9.9 7.4 14.1 6.05 Q14.1 5.5 11.2 4.1 8.45 2.75 6.4 2.65 L6.4 2.55 8.45 2.25 Q10.6 2.05 11.1 2.25 L12.55 -0.55 Q13.75 -2.5 15.5 -4.0 M-1.0 -0.75 Q-6.3 0.85 -7.1 0.85 L-7.7 0.75 -8.2 0.55 Q-4.9 -0.7 3.75 -2.75 L6.6 -3.5 4.9 -1.25 Q2.7 1.85 0.35 3.65 L-1.75 5.0 -5.35 5.5 -5.65 5.5 -7.05 5.4 -7.9 4.85 Q-4.2 4.1 -0.2 1.85 L1.65 0.75 2.9 -0.15 Q4.35 -1.3 4.95 -2.35 L5.2 -2.65 -0.95 -0.8 -1.0 -0.75 M-4.9 -10.55 L-5.1 -10.8 -6.8 -8.2 Q-7.45 -7.15 -8.2 -6.45 L-8.15 -4.9 -8.15 -3.8 -7.05 -4.25 -4.95 -4.95 -4.55 -7.55 Q-4.55 -8.55 -4.9 -10.55" fill="#a36a6a" fill-rule="evenodd" stroke="none"/>
    <path d="M15.5 -4.0 Q13.75 -2.5 12.55 -0.55 L11.1 2.25 Q10.6 2.05 8.45 2.25 L6.4 2.55 5.6 2.2 6.25 1.65 14.3 -3.25 15.5 -4.0 M6.4 2.65 Q8.45 2.75 11.2 4.1 14.1 5.5 14.1 6.05 L9.9 7.4 9.25 7.55 2.1 8.25 -1.35 8.2 Q-0.4 9.05 1.8 9.6 L4.45 10.0 3.5 10.85 2.5 11.75 Q3.65 12.45 6.7 13.5 10.5 14.8 11.0 15.6 L0.8 15.6 -6.35 13.2 -11.35 11.3 -11.75 11.6 -13.0 9.75 -13.25 9.25 -13.1 6.95 -11.0 8.1 Q-7.3 10.0 -6.05 10.1 L-7.75 7.75 -8.8 6.05 -9.0 5.75 -9.05 5.65 -7.2 5.7 -7.0 5.7 -8.25 5.25 -11.2 3.95 Q-1.05 1.5 0.25 -0.45 0.0 -0.45 0.05 -0.7 L-1.0 -0.75 -0.95 -0.8 5.2 -2.65 4.95 -2.35 Q4.35 -1.3 2.9 -0.15 L1.65 0.75 -0.2 1.85 Q-4.2 4.1 -7.9 4.85 L-7.05 5.4 -5.65 5.5 -5.35 5.5 -1.75 5.0 0.35 3.65 2.65 4.35 3.15 4.5 8.1 4.15 Q7.9 3.55 6.6 2.9 L6.2 2.85 6.4 2.65 M-11.9 12.05 L-11.85 12.1 Q-10.65 14.0 -8.7 15.95 L-10.75 16.05 Q-12.75 16.05 -14.95 14.45 L-15.0 14.4 -13.55 13.0 -13.4 11.0 Q-12.7 11.45 -11.9 12.05 M-9.7 -11.05 L-8.95 -3.95 -9.15 -4.8 -9.05 -3.65 -8.95 -2.75 -8.9 -2.2 -8.5 -2.4 -8.2 -2.5 -8.4 -2.3 -8.7 -1.95 Q-9.6 -0.9 -12.0 0.8 L-12.45 1.15 -12.7 1.35 -12.85 1.45 -13.5 0.05 -11.5 -4.9 -9.65 -9.9 -9.7 -11.05 M-4.9 -10.55 Q-4.55 -8.55 -4.55 -7.55 L-4.95 -4.95 -7.05 -4.25 -8.15 -3.8 -8.15 -4.9 -8.2 -6.45 Q-7.45 -7.15 -6.8 -8.2 L-5.1 -10.8 -4.9 -10.55" fill="#e0cbcb" fill-rule="evenodd" stroke="none"/>
    <path d="M-12.85 1.45 L-12.7 1.8 -13.1 6.95 -14.4 6.2 -13.25 9.25 -13.4 11.0 -15.5 9.45 -17.25 7.85 -17.15 -2.2 -16.85 -2.25 -15.6 -4.55 -13.5 0.05 -14.6 2.55 -14.6 2.7 -12.85 1.45" fill="url(#gradient0)" fill-rule="evenodd" stroke="none"/>
    <path d="M-16.3 -6.1 L-15.6 -4.55 -16.85 -2.25 -17.15 -2.2 -17.5 -2.15 -17.65 -2.75 -17.15 -4.35 -16.3 -6.1" fill="url(#gradient1)" fill-rule="evenodd" stroke="none"/>
    <path d="M-15.0 14.4 L-15.6 14.95 -17.3 12.85 -17.55 12.65 -17.9 12.4 -17.75 12.1 -17.3 12.45 -15.0 14.4" fill="url(#gradient2)" fill-rule="evenodd" stroke="none"/>
    <path d="M-13.25 9.25 L-14.4 6.2 -13.1 6.95 -13.25 9.25" fill="url(#gradient3)" fill-rule="evenodd" stroke="none"/>
    <path d="M-17.25 7.85 L-15.5 9.45 -13.4 11.0 -13.55 13.0 -15.0 14.4 -17.3 12.45 -17.25 7.85" fill="url(#gradient4)" fill-rule="evenodd" stroke="none"/>
    <path d="M-13.5 0.05 L-12.85 1.45 -14.6 2.7 -14.6 2.55 -13.5 0.05" fill="url(#gradient5)" fill-rule="evenodd" stroke="none"/>
  </g>
  <defs>
    <linearGradient gradientTransform="matrix(-0.0025, 3.0E-4, -0.0013, -0.0095, -15.35, 3.35)" gradientUnits="userSpaceOnUse" id="gradient0" spreadMethod="pad" x1="-819.2" x2="819.2">
      <stop offset="0.0" stop-color="#f2eaea"></stop>
      <stop offset="1.0" stop-color="#f2eaea" stop-opacity="0.0"></stop>
    </linearGradient>
    <linearGradient gradientTransform="matrix(-8.0E-4, 0.0015, -7.0E-4, -4.0E-4, -16.85, -3.7)" gradientUnits="userSpaceOnUse" id="gradient1" spreadMethod="pad" x1="-819.2" x2="819.2">
      <stop offset="0.0" stop-color="#a36a6a"></stop>
      <stop offset="1.0" stop-color="#a36a6a" stop-opacity="0.0"></stop>
    </linearGradient>
    <linearGradient gradientTransform="matrix(-0.0013, -0.0016, 5.0E-4, -4.0E-4, -16.75, 13.05)" gradientUnits="userSpaceOnUse" id="gradient2" spreadMethod="pad" x1="-819.2" x2="819.2">
      <stop offset="0.0" stop-color="#a36a6a"></stop>
      <stop offset="1.0" stop-color="#a36a6a" stop-opacity="0.0"></stop>
    </linearGradient>
    <linearGradient gradientTransform="matrix(-7.0E-4, -0.001, 7.0E-4, -5.0E-4, -13.8, 7.3)" gradientUnits="userSpaceOnUse" id="gradient3" spreadMethod="pad" x1="-819.2" x2="819.2">
      <stop offset="0.0" stop-color="#e0cbcb"></stop>
      <stop offset="1.0" stop-color="#e0cbcb" stop-opacity="0.0"></stop>
    </linearGradient>
    <linearGradient gradientTransform="matrix(-0.0012, -0.002, 0.0021, -0.0013, -15.65, 11.2)" gradientUnits="userSpaceOnUse" id="gradient4" spreadMethod="pad" x1="-819.2" x2="819.2">
      <stop offset="0.0" stop-color="#e0cbcb"></stop>
      <stop offset="1.0" stop-color="#e0cbcb" stop-opacity="0.0"></stop>
    </linearGradient>
    <linearGradient gradientTransform="matrix(-0.001, 0.001, -6.0E-4, -6.0E-4, -14.25, 1.85)" gradientUnits="userSpaceOnUse" id="gradient5" spreadMethod="pad" x1="-819.2" x2="819.2">
      <stop offset="0.0" stop-color="#e0cbcb"></stop>
      <stop offset="1.0" stop-color="#e0cbcb" stop-opacity="0.0"></stop>
    </linearGradient>
  </defs>
</svg>