<?xml version="1.0" encoding="UTF-8" standalone="no"?>
<svg xmlns:xlink="http://www.w3.org/1999/xlink" height="12.2px" width="24.85px" xmlns="http://www.w3.org/2000/svg">
  <g transform="matrix(1.0, 0.0, 0.0, 1.0, 18.55, -8.95)">
    <path d="M4.2 17.0 L5.3 18.8 1.85 17.1 -3.8 14.35 -3.15 14.95 -2.25 15.45 -5.55 15.9 -9.5 15.75 -8.6 17.85 -7.4 20.15 -7.95 20.15 Q-9.05 20.15 -12.05 18.95 -15.1 17.7 -15.5 17.1 L-16.65 13.25 -17.55 9.95 -17.3 10.15 Q-16.35 11.0 -15.35 12.7 -13.25 14.55 -6.7 14.75 L-6.45 14.0 -7.85 12.35 Q-5.75 12.45 -3.8 13.15 L0.35 14.3 2.55 14.35 4.2 17.0 M-3.9 14.25 L-4.05 14.25 -3.8 14.35 -3.9 14.25" fill="#9c7e7e" fill-opacity="0.54509807" fill-rule="evenodd" stroke="none"/>
  </g>
</svg>