<?xml version="1.0" encoding="UTF-8" standalone="no"?>
<svg xmlns:xlink="http://www.w3.org/1999/xlink" height="23.75px" width="18.2px" xmlns="http://www.w3.org/2000/svg">
  <g transform="matrix(1.0, 0.0, 0.0, 1.0, -13.95, -6.8)">
    <path d="M25.1 10.55 L26.7 13.3 Q27.85 15.15 28.1 16.25 L27.6 16.45 Q25.1 12.5 24.55 10.75 24.75 10.55 25.1 10.55 M25.85 9.4 Q28.55 12.1 28.9 13.55 L28.65 13.85 26.9 11.6 Q25.85 10.1 25.85 9.4 M20.65 12.55 L20.95 12.55 Q21.4 13.75 21.4 15.15 21.4 16.95 20.8 19.0 L23.35 21.8 Q25.55 24.65 27.9 29.45 L27.9 29.55 Q26.05 26.55 22.6 22.7 L20.4 20.4 19.35 23.7 Q19.2 24.0 19.2 23.5 19.2 22.6 19.9 19.9 L15.3 15.1 Q18.0 16.45 20.25 18.5 L20.4 17.95 Q21.35 14.45 20.65 12.55 M30.6 24.2 Q30.35 24.4 30.35 23.9 30.35 20.0 30.95 19.85 L31.15 21.55 30.95 23.9 30.6 24.2 M17.7 7.85 L20.55 8.85 19.9 8.9 Q18.4 8.75 15.25 8.85 L14.95 8.75 Q15.95 7.55 17.7 7.85" fill="#a61515" fill-rule="evenodd" stroke="none"/>
  </g>
</svg>