<?xml version="1.0" encoding="UTF-8" standalone="no"?>
<svg xmlns:xlink="http://www.w3.org/1999/xlink" height="16.9px" width="17.8px" xmlns="http://www.w3.org/2000/svg">
  <g transform="matrix(1.0, 0.0, 0.0, 1.0, -4.85, -10.15)">
    <path d="M21.65 24.4 L21.55 24.7 19.35 23.0 19.4 22.85 Q19.95 22.8 20.75 23.4 L21.65 24.4 M7.7 21.4 L7.25 21.35 7.2 21.0 Q7.2 19.6 10.15 16.6 7.15 15.7 5.85 15.0 L10.7 16.05 11.15 15.6 Q14.25 12.65 16.55 11.15 L11.2 16.2 Q13.9 17.15 15.65 18.8 L15.6 18.9 Q13.65 17.6 10.7 16.75 L10.65 16.75 Q7.9 19.5 7.7 21.35 L7.7 21.4 M18.6 24.45 L18.85 25.7 18.8 25.95 18.8 26.0 18.0 24.65 15.9 25.1 Q16.0 24.75 17.35 24.25 L17.75 24.15 Q17.2 22.85 16.55 22.3 17.45 22.2 18.2 23.55 L18.4 23.95 19.4 23.85 19.55 24.05 18.6 24.45 M16.8 11.45 Q18.15 11.65 19.4 13.1 20.6 14.45 20.6 15.45 L19.95 15.6 Q19.85 14.4 16.8 11.45" fill="#a61515" fill-rule="evenodd" stroke="none"/>
  </g>
</svg>