<?xml version="1.0" encoding="UTF-8" standalone="no"?>
<svg xmlns:xlink="http://www.w3.org/1999/xlink" height="97.45px" width="67.55px" xmlns="http://www.w3.org/2000/svg">
  <g transform="matrix(1.0, 0.0, 0.0, 1.0, 1, 0.5)">
    <path d="M15.2 86.0 L13.4 85.1 15.15 82.45 Q17.6 78.75 20.35 71.85 L21.9 67.6 22.3 66.2 Q22.95 63.5 22.85 61.8 L22.6 59.85 21.95 57.5 21.7 57.0 20.75 55.5 Q17.85 54.35 15.35 52.75 L14.7 52.35 Q8.2 48.05 4.5 41.0 3.55 39.2 2.1 34.5 L0.85 30.1 0.55 27.75 0.45 27.1 0.3 25.7 Q-0.1 22.05 0.0 21.6 L0.25 20.5 Q1.25 17.0 4.7 12.0 9.7 6.55 15.0 4.0 22.2 0.5 32.7 0.5 35.15 0.5 41.85 1.95 51.3 4.0 55.75 7.1 57.55 8.35 60.2 10.85 L62.8 13.5 Q65.55 19.8 65.55 25.9 L65.4 29.5 65.25 31.8 64.8 35.8 62.75 45.5 62.2 48.2 Q57.8 64.85 48.95 78.8 L37.3 95.95 35.85 95.95 Q37.5 93.1 43.9 83.6 L51.15 72.65 56.5 61.9 Q59.05 56.2 61.05 46.9 L63.6 34.1 Q64.1 30.6 64.2 27.6 64.25 24.6 63.1 18.9 62.0 13.2 55.8 8.65 49.6 4.05 40.1 2.5 30.6 0.9 28.4 1.6 20.1 3.1 13.15 6.45 6.3 9.7 2.1 19.35 L1.95 20.2 1.65 22.65 Q1.65 40.1 13.05 48.8 L20.9 54.25 Q24.45 57.1 24.45 60.5 L24.15 65.15 23.95 66.05 23.4 68.35 22.8 70.4 22.25 72.15 20.3 76.85 18.7 79.8 17.05 82.45 15.2 86.0" fill="#a36a6a" fill-rule="evenodd" stroke="none"/>
    <path d="M35.85 95.95 L31.2 94.4 35.7 88.45 Q38.4 85.1 39.7 81.4 41.0 77.7 38.85 78.1 36.65 78.45 34.9 79.3 33.1 80.15 29.45 80.1 25.75 80.05 24.0 78.3 22.25 76.55 21.0 77.4 19.7 78.2 18.7 79.8 L20.3 76.85 22.25 72.15 Q22.7 74.6 23.9 75.85 25.7 77.75 31.3 77.45 36.9 77.1 42.6 73.05 48.3 69.0 52.15 55.95 56.0 42.85 55.9 34.95 55.65 16.95 40.3 12.25 L37.2 11.75 29.75 10.35 Q25.0 9.15 25.0 5.35 25.0 3.75 28.4 1.6 30.6 0.9 40.1 2.5 49.6 4.05 55.8 8.65 62.0 13.2 63.1 18.9 64.25 24.6 64.2 27.6 64.1 30.6 63.6 34.1 L61.05 46.9 Q59.05 56.2 56.5 61.9 L51.15 72.65 43.9 83.6 Q37.5 93.1 35.85 95.95 M58.05 48.85 Q57.4 48.85 57.1 49.15 L56.65 50.0 57.3 50.25 57.8 49.45 58.05 48.85 M58.75 40.8 L58.95 41.0 Q59.65 41.0 59.65 40.6 59.35 40.2 58.75 40.3 L58.75 40.8 M58.5 42.85 L58.3 42.85 Q57.15 43.2 57.15 43.55 L57.3 44.25 57.9 44.25 58.65 43.25 58.5 42.85 M60.25 33.6 L59.85 33.85 59.65 34.4 59.7 35.15 60.5 35.25 Q60.6 34.9 60.8 34.9 60.8 34.05 60.25 33.6 M58.05 28.65 L57.9 29.05 58.0 29.45 58.4 29.55 59.2 29.25 59.25 28.65 59.1 28.1 58.7 27.9 Q58.3 28.2 58.05 28.65 M58.4 21.75 L59.2 21.85 59.5 21.3 Q59.5 20.7 58.95 20.4 L58.6 20.55 58.4 21.1 58.4 21.75 M53.9 12.6 Q52.9 12.55 52.9 13.35 L53.05 14.0 Q53.45 14.6 54.55 14.6 55.2 14.6 54.8 14.5 L54.9 13.8 Q54.9 12.65 53.9 12.6 M49.65 10.55 L49.4 11.4 49.5 11.85 49.9 12.0 50.4 11.35 50.0 10.0 49.65 10.55 M46.3 7.75 L45.65 7.65 45.6 7.65 45.55 8.05 45.65 8.45 46.0 8.5 46.45 8.3 46.3 7.75 M42.55 10.3 L43.0 9.8 Q43.3 9.45 43.25 8.8 L42.0 9.0 41.9 10.25 42.55 10.3 M41.4 9.1 L41.3 8.75 41.2 8.8 Q40.05 8.75 40.05 9.65 40.05 10.3 40.25 10.05 L41.05 10.1 41.4 9.8 41.4 9.1 M43.15 5.9 L42.2 5.85 41.9 6.25 42.65 7.0 43.45 6.5 43.15 5.9 M48.2 5.5 L48.15 6.15 48.2 6.65 48.4 6.8 49.05 6.35 Q49.05 5.65 48.65 5.5 L48.2 5.5 M34.4 6.15 L35.15 6.9 35.5 6.55 35.3 6.0 34.9 5.5 34.45 5.5 34.4 6.15 M21.9 8.75 L21.7 7.75 22.3 7.65 22.65 8.25 22.4 8.75 21.9 8.75 M21.3 9.15 L21.15 9.65 21.05 9.8 20.4 9.55 20.4 8.75 21.0 8.75 21.25 8.9 21.3 9.15 M21.7 11.8 L21.8 12.0 Q21.6 12.3 21.05 12.4 L20.4 11.75 21.7 11.8 M26.7 12.15 L26.5 11.65 Q26.5 11.0 27.4 11.0 L27.95 11.55 27.4 12.25 26.7 12.15 M23.45 15.6 Q24.65 16.0 24.9 16.25 L24.25 17.1 Q23.5 17.05 23.3 16.7 L23.25 16.1 23.35 15.7 23.45 15.6 M37.95 15.1 L38.25 15.2 37.65 15.15 37.95 15.1 M34.4 14.6 L34.8 14.9 35.05 15.3 35.1 15.55 35.05 15.75 34.4 16.0 33.8 15.15 34.0 14.85 34.4 14.6 M30.7 16.05 Q31.0 15.35 31.4 15.15 L31.95 15.75 31.5 16.35 30.7 16.05 M30.15 70.35 L30.25 70.75 Q30.15 71.1 29.4 71.1 L29.25 71.05 29.2 70.65 Q29.2 70.25 29.45 70.1 L29.7 70.0 30.15 70.35 M25.4 70.65 L25.25 70.5 Q25.55 69.95 26.15 70.05 L26.2 70.25 Q25.7 70.65 25.4 70.65 M26.2 71.75 Q25.9 71.75 25.75 72.0 25.15 71.55 25.15 71.15 L26.2 71.35 26.2 71.75 M35.2 69.55 L34.4 69.75 34.2 69.35 34.15 68.75 35.2 68.75 35.4 69.15 35.25 69.55 35.2 69.55 M34.75 73.15 L34.9 73.15 35.05 73.55 34.9 74.35 Q34.65 74.35 34.65 74.55 L33.95 74.6 Q33.8 74.75 33.8 74.1 L34.0 73.75 Q34.3 73.35 34.75 73.15 M39.7 69.3 L39.05 69.55 38.85 69.45 38.8 69.05 Q38.8 68.5 39.4 68.5 L39.5 68.65 39.7 69.3 M38.2 70.9 L38.15 70.5 Q38.15 70.15 38.45 70.0 L38.75 69.85 39.3 70.4 39.2 70.8 38.4 71.0 38.2 70.9 M38.3 71.6 Q39.45 71.55 39.8 72.9 L39.7 73.2 39.25 73.3 Q38.35 73.3 38.25 72.7 L38.3 71.6 M36.15 75.25 L35.3 74.35 Q35.9 74.0 36.55 74.0 L36.8 74.3 36.65 75.0 36.15 75.25 M30.9 75.9 Q30.9 76.3 29.9 76.3 29.75 76.55 29.75 75.9 29.75 75.0 30.9 75.5 L30.9 75.9 M56.5 51.35 Q56.25 51.05 55.7 51.05 L55.9 51.6 Q56.4 51.55 56.5 51.35" fill="#e0cbcb" fill-rule="evenodd" stroke="none"/>
    <path d="M48.2 5.5 L48.65 5.5 Q49.05 5.65 49.05 6.35 L48.4 6.8 48.2 6.65 48.15 6.15 48.2 5.5 M43.15 5.9 L43.45 6.5 42.65 7.0 41.9 6.25 42.2 5.85 43.15 5.9 M41.4 9.1 L41.4 9.8 41.05 10.1 40.25 10.05 Q40.05 10.3 40.05 9.65 40.05 8.75 41.2 8.8 L41.3 8.75 41.4 9.1 M42.55 10.3 L41.9 10.25 42.0 9.0 43.25 8.8 Q43.3 9.45 43.0 9.8 L42.55 10.3 M46.3 7.75 L46.45 8.3 46.0 8.5 45.65 8.45 45.55 8.05 45.6 7.65 45.65 7.65 46.3 7.75 M49.65 10.55 L50.0 10.0 50.4 11.35 49.9 12.0 49.5 11.85 49.4 11.4 49.65 10.55 M53.9 12.6 Q54.9 12.65 54.9 13.8 L54.8 14.5 Q55.2 14.6 54.55 14.6 53.45 14.6 53.05 14.0 L52.9 13.35 Q52.9 12.55 53.9 12.6 M58.4 21.75 L58.4 21.1 58.6 20.55 58.95 20.4 Q59.5 20.7 59.5 21.3 L59.2 21.85 58.4 21.75 M58.05 28.65 Q58.3 28.2 58.7 27.9 L59.1 28.1 59.25 28.65 59.2 29.25 58.4 29.55 58.0 29.45 57.9 29.05 58.05 28.65 M60.25 33.6 Q60.8 34.05 60.8 34.9 60.6 34.9 60.5 35.25 L59.7 35.15 59.65 34.4 59.85 33.85 60.25 33.6 M58.5 42.85 L58.65 43.25 57.9 44.25 57.3 44.25 57.15 43.55 Q57.15 43.2 58.3 42.85 L58.5 42.85 M58.75 40.8 L58.75 40.3 Q59.35 40.2 59.65 40.6 59.65 41.0 58.95 41.0 L58.75 40.8 M58.05 48.85 L57.8 49.45 57.3 50.25 56.65 50.0 57.1 49.15 Q57.4 48.85 58.05 48.85 M34.4 6.15 L34.45 5.5 34.9 5.5 35.3 6.0 35.5 6.55 35.15 6.9 34.4 6.15 M32.35 83.8 L33.05 83.4 33.9 84.35 34.65 85.65 34.55 86.05 34.5 86.25 34.15 86.3 Q33.4 86.3 32.75 85.35 32.2 84.65 32.2 84.35 32.2 84.0 32.35 83.8 M37.75 81.85 L37.45 82.15 36.65 82.1 36.65 81.55 Q36.65 80.65 37.2 80.55 37.65 80.9 37.75 81.85 M20.4 83.8 L20.45 83.4 20.5 83.4 20.9 83.35 21.4 83.85 21.15 84.4 20.55 84.3 20.4 84.2 20.4 83.8 M27.3 83.25 L27.35 83.2 27.4 83.6 27.4 84.4 26.9 84.75 26.05 84.4 26.0 83.25 26.45 83.2 27.3 83.25 M25.95 86.6 L26.05 87.05 25.25 88.4 24.55 87.9 24.45 87.55 24.55 86.95 Q24.75 86.6 25.55 86.5 L25.95 86.6 M33.8 88.15 L33.1 87.65 32.7 86.85 33.9 86.75 Q34.45 87.0 34.65 87.75 L34.4 88.0 33.8 88.15 M56.5 51.35 Q56.4 51.55 55.9 51.6 L55.7 51.05 Q56.25 51.05 56.5 51.35" fill="#f5dfdf" fill-rule="evenodd" stroke="none"/>
    <path d="M22.25 72.15 L22.8 70.4 23.4 68.35 23.95 66.05 24.15 65.15 24.45 60.5 Q24.45 57.1 20.9 54.25 L13.05 48.8 Q1.65 40.1 1.65 22.65 L1.95 20.2 2.1 19.35 Q6.3 9.7 13.15 6.45 20.1 3.1 28.4 1.6 25.0 3.75 25.0 5.35 25.0 9.15 29.75 10.35 L37.2 11.75 40.3 12.25 Q55.65 16.95 55.9 34.95 56.0 42.85 52.15 55.95 48.3 69.0 42.6 73.05 36.9 77.1 31.3 77.45 25.7 77.75 23.9 75.85 22.7 74.6 22.25 72.15 M30.9 75.9 L30.9 75.5 Q29.75 75.0 29.75 75.9 29.75 76.55 29.9 76.3 30.9 76.3 30.9 75.9 M36.15 75.25 L36.65 75.0 36.8 74.3 36.55 74.0 Q35.9 74.0 35.3 74.35 L36.15 75.25 M38.3 71.6 L38.25 72.7 Q38.35 73.3 39.25 73.3 L39.7 73.2 39.8 72.9 Q39.45 71.55 38.3 71.6 M38.2 70.9 L38.4 71.0 39.2 70.8 39.3 70.4 38.75 69.85 38.45 70.0 Q38.15 70.15 38.15 70.5 L38.2 70.9 M39.7 69.3 L39.5 68.65 39.4 68.5 Q38.8 68.5 38.8 69.05 L38.85 69.45 39.05 69.55 39.7 69.3 M34.75 73.15 Q34.3 73.35 34.0 73.75 L33.8 74.1 Q33.8 74.75 33.95 74.6 L34.65 74.55 Q34.65 74.35 34.9 74.35 L35.05 73.55 34.9 73.15 34.75 73.15 M35.2 69.55 L35.25 69.55 35.4 69.15 35.2 68.75 34.15 68.75 34.2 69.35 34.4 69.75 35.2 69.55 M26.2 71.75 L26.2 71.35 25.15 71.15 Q25.15 71.55 25.75 72.0 25.9 71.75 26.2 71.75 M25.4 70.65 Q25.7 70.65 26.2 70.25 L26.15 70.05 Q25.55 69.95 25.25 70.5 L25.4 70.65 M30.15 70.35 L29.7 70.0 29.45 70.1 Q29.2 70.25 29.2 70.65 L29.25 71.05 29.4 71.1 Q30.15 71.1 30.25 70.75 L30.15 70.35 M30.7 16.05 L31.5 16.35 31.95 15.75 31.4 15.15 Q31.0 15.35 30.7 16.05 M34.4 14.6 L34.0 14.85 33.8 15.15 34.4 16.0 35.05 15.75 35.1 15.55 35.05 15.3 34.8 14.9 34.4 14.6 M37.95 15.1 L37.65 15.15 38.25 15.2 37.95 15.1 M23.45 15.6 L23.35 15.7 23.25 16.1 23.3 16.7 Q23.5 17.05 24.25 17.1 L24.9 16.25 Q24.65 16.0 23.45 15.6 M26.7 12.15 L27.4 12.25 27.95 11.55 27.4 11.0 Q26.5 11.0 26.5 11.65 L26.7 12.15 M21.7 11.8 L20.4 11.75 21.05 12.4 Q21.6 12.3 21.8 12.0 L21.7 11.8 M21.3 9.15 L21.25 8.9 21.0 8.75 20.4 8.75 20.4 9.55 21.05 9.8 21.15 9.65 21.3 9.15 M21.9 8.75 L22.4 8.75 22.65 8.25 22.3 7.65 21.7 7.75 21.9 8.75" fill="#cca9a9" fill-rule="evenodd" stroke="none"/>
    <path d="M31.2 94.4 L15.2 86.0 17.05 82.45 18.7 79.8 Q19.7 78.2 21.0 77.4 22.25 76.55 24.0 78.3 25.75 80.05 29.45 80.1 33.1 80.15 34.9 79.3 36.65 78.45 38.85 78.1 41.0 77.7 39.7 81.4 38.4 85.1 35.7 88.45 L31.2 94.4 M37.75 81.85 Q37.65 80.9 37.2 80.55 36.65 80.65 36.65 81.55 L36.65 82.1 37.45 82.15 37.75 81.85 M32.35 83.8 Q32.2 84.0 32.2 84.35 32.2 84.65 32.75 85.35 33.4 86.3 34.15 86.3 L34.5 86.25 34.55 86.05 34.65 85.65 33.9 84.35 33.05 83.4 32.35 83.8 M33.8 88.15 L34.4 88.0 34.65 87.75 Q34.45 87.0 33.9 86.75 L32.7 86.85 33.1 87.65 33.8 88.15 M25.95 86.6 L25.55 86.5 Q24.75 86.6 24.55 86.95 L24.45 87.55 24.55 87.9 25.25 88.4 26.05 87.05 25.95 86.6 M27.3 83.25 L26.45 83.2 26.0 83.25 26.05 84.4 26.9 84.75 27.4 84.4 27.4 83.6 27.35 83.2 27.3 83.25 M20.4 83.8 L20.4 84.2 20.55 84.3 21.15 84.4 21.4 83.85 20.9 83.35 20.5 83.4 20.45 83.4 20.4 83.8" fill="#f2eaea" fill-rule="evenodd" stroke="none"/>
    <path d="M55.05 28.8 Q55.55 30.15 55.45 43.15 54.0 51.25 50.4 58.85 45.2 70.0 38.1 72.95 L38.4 67.95 39.25 52.75 39.25 52.35 Q39.75 45.25 40.2 43.75 41.0 41.05 41.55 39.8 41.3 38.15 39.75 36.7 L36.8 34.2 Q35.1 32.6 34.65 30.35 L34.6 30.1 Q34.2 27.65 35.2 24.5 36.4 20.7 42.75 20.95 48.55 21.15 51.4 23.7 53.95 25.95 55.05 28.8" fill="url(#gradient0)" fill-rule="evenodd" stroke="none"/>
  </g>
  <defs>
    <linearGradient gradientTransform="matrix(-0.01, 0.0027, -0.0078, -0.0293, 49.0, 44.3)" gradientUnits="userSpaceOnUse" id="gradient0" spreadMethod="pad" x1="-819.2" x2="819.2">
      <stop offset="0.0" stop-color="#af8383" stop-opacity="0.6"></stop>
      <stop offset="1.0" stop-color="#af8383" stop-opacity="0.02745098"></stop>
    </linearGradient>
  </defs>
</svg>