<?xml version="1.0" encoding="UTF-8" standalone="no"?>
<svg xmlns:xlink="http://www.w3.org/1999/xlink" height="87.95px" width="50.35px" xmlns="http://www.w3.org/2000/svg">
  <g transform="matrix(1.0, 0.0, 0.0, 1.0, 17.1, 36.85)">
    <path d="M7.55 3.2 L7.55 3.0 7.55 3.15 7.55 3.2 M4.7 15.8 L4.65 16.05 4.65 15.9 4.7 15.8" fill="#c09999" fill-rule="evenodd" stroke="none"/>
    <path d="M2.55 -29.15 L2.7 -25.65 3.0 -22.35 4.05 -22.35 5.55 -23.8 7.1 -25.4 Q8.1 -27.0 8.4 -28.1 10.0 -26.0 11.9 -24.75 L12.75 -24.25 Q14.0 -23.55 15.0 -23.55 15.7 -23.55 16.2 -25.0 16.8 -26.65 16.8 -29.6 L16.5 -30.8 16.65 -30.8 19.5 -26.35 20.9 -23.95 21.75 -22.35 21.9 -21.8 21.9 -21.75 Q21.9 -18.8 21.15 -16.5 20.35 -14.1 18.45 -11.55 L18.45 -12.0 18.85 -15.8 19.25 -19.25 19.25 -19.95 Q18.75 -18.05 13.75 -13.75 L13.45 -13.5 7.25 -8.55 7.65 -11.1 8.1 -14.85 7.85 -16.2 Q4.85 -11.7 4.25 -11.1 L3.55 -13.45 2.4 -16.05 1.9 -13.4 Q1.75 -12.55 1.75 -10.95 L1.7 -9.75 2.0 -6.9 2.25 -4.25 Q0.35 -4.65 -2.95 -8.7 -6.65 -13.2 -6.6 -16.65 L-8.1 -10.95 -9.35 -12.7 Q-10.35 -14.45 -10.35 -15.85 L-9.9 -20.1 -10.05 -20.1 Q-11.9 -16.35 -12.3 -15.9 L-12.3 -16.05 -11.3 -20.65 -10.6 -23.3 -10.2 -24.75 -9.95 -26.25 Q-7.95 -30.15 -5.6 -31.65 -6.8 -26.7 -6.8 -23.15 -6.8 -22.4 -6.0 -21.75 -5.3 -21.15 -4.7 -21.15 -4.0 -21.15 -2.55 -23.15 L-0.5 -25.8 2.55 -29.15 M1.7 3.25 Q2.3 0.15 3.3 -0.75 L3.45 -0.95 4.95 2.35 5.6 5.15 5.15 8.15 4.8 9.25 4.5 9.8 4.5 6.6 4.45 6.9 2.2 13.65 Q-0.5 20.4 -4.35 22.65 L-3.55 21.2 0.6 15.15 Q1.75 12.95 1.8 8.65 L1.7 3.25 M2.9 15.05 Q4.2 11.8 5.15 11.5 L5.35 11.45 5.7 11.45 5.35 12.9 4.7 15.8 9.65 6.5 11.9 2.1 Q11.85 14.55 7.45 23.9 L7.15 24.6 Q4.55 29.95 1.65 32.45 L1.65 32.15 2.45 28.8 2.75 27.55 3.0 25.95 -0.45 32.95 -4.25 40.2 -3.8 35.45 Q-2.8 31.0 -0.75 26.95 L0.65 23.85 Q2.3 19.6 2.9 15.05 M7.55 3.2 L7.0 4.2 6.45 4.8 6.55 2.1 7.6 0.15 Q9.35 -2.95 10.25 -3.65 L10.75 -2.6 11.0 -1.5 11.25 0.0 Q11.25 2.1 9.65 4.25 L6.6 8.45 7.55 3.2 7.55 3.15 7.55 3.0 7.55 3.2 M17.25 -14.25 L17.3 -13.8 17.5 -12.8 17.75 -10.9 Q17.75 -8.45 17.4 -7.35 L14.85 -2.55 14.4 -1.85 14.4 -3.05 14.55 -5.4 14.75 -6.5 15.15 -8.7 14.3 -8.0 13.15 -7.1 11.1 -5.6 11.1 -5.75 11.95 -7.25 12.85 -9.1 14.05 -10.9 Q15.3 -12.55 17.15 -14.05 L17.25 -14.25 M17.55 9.0 L17.1 11.5 16.35 12.9 16.2 12.95 16.05 12.8 15.9 11.75 15.8 8.45 15.75 8.6 Q15.75 9.35 14.6 12.55 13.35 16.05 12.6 16.8 L12.6 15.45 Q13.05 7.45 15.15 0.25 17.55 6.05 17.55 9.0 M4.7 15.8 L4.65 15.9 4.65 16.05 4.7 15.8" fill="#bc9595" fill-rule="evenodd" stroke="none"/>
    <path d="M2.55 -29.15 L-0.5 -25.8 -2.55 -23.15 Q-4.0 -21.15 -4.7 -21.15 -5.3 -21.15 -6.0 -21.75 -6.8 -22.4 -6.8 -23.15 -6.8 -26.7 -5.6 -31.65 -7.95 -30.15 -9.95 -26.25 L-10.2 -24.75 -10.6 -23.3 -11.3 -20.65 -12.3 -16.05 -12.3 -15.9 Q-11.9 -16.35 -10.05 -20.1 L-9.9 -20.1 -10.35 -15.85 Q-10.35 -14.45 -9.35 -12.7 L-8.1 -10.95 -6.6 -16.65 Q-6.65 -13.2 -2.95 -8.7 0.35 -4.65 2.25 -4.25 L2.0 -6.9 1.7 -9.75 1.75 -10.95 Q1.75 -12.55 1.9 -13.4 L2.4 -16.05 3.55 -13.45 4.25 -11.1 Q4.85 -11.7 7.85 -16.2 L8.1 -14.85 7.65 -11.1 7.25 -8.55 13.45 -13.5 13.75 -13.75 Q18.75 -18.05 19.25 -19.95 L19.25 -19.25 18.85 -15.8 18.45 -12.0 18.45 -11.55 Q20.35 -14.1 21.15 -16.5 21.9 -18.8 21.9 -21.75 L21.9 -21.8 21.75 -22.35 20.9 -23.95 19.5 -26.35 16.65 -30.8 16.5 -30.8 16.8 -29.6 Q16.8 -26.65 16.2 -25.0 15.7 -23.55 15.0 -23.55 14.0 -23.55 12.75 -24.25 L11.9 -24.75 Q10.0 -26.0 8.4 -28.1 8.1 -27.0 7.1 -25.4 L5.55 -23.8 4.05 -22.35 3.0 -22.35 2.7 -25.65 2.55 -29.15 M-11.55 -29.15 L-10.75 -30.55 -9.15 -33.0 -9.85 -29.55 -10.55 -26.3 -10.55 -26.15 Q-10.55 -27.1 -9.5 -28.6 -7.65 -31.3 -2.6 -35.85 L-2.45 -35.85 -4.25 -30.5 Q-4.9 -28.55 -5.15 -26.4 L-5.25 -23.7 -1.0 -28.85 -0.95 -28.9 Q3.1 -33.4 3.45 -34.5 L4.35 -28.85 4.4 -28.25 5.4 -31.0 6.35 -34.05 12.4 -27.65 13.5 -26.45 Q12.6 -27.6 12.3 -31.75 L12.05 -35.85 18.0 -31.65 20.35 -29.85 18.9 -30.75 27.1 -21.1 Q30.9 -15.95 30.9 -13.0 30.9 -11.6 29.9 -8.95 L28.35 -5.3 28.0 -6.6 27.15 -9.65 26.85 -6.6 Q26.6 -4.95 26.15 -3.75 25.2 -1.7 24.9 -0.3 L24.6 -2.65 23.45 0.45 Q23.1 1.4 22.7 3.2 L22.7 5.8 22.3 8.75 21.5 13.95 21.45 13.8 20.5 9.9 19.05 2.55 18.6 2.7 18.5 5.1 18.35 13.65 16.75 17.25 12.6 23.7 12.6 23.55 12.15 19.3 Q10.9 20.95 9.05 25.3 L7.7 28.15 Q6.35 30.45 4.8 31.7 1.35 34.45 -1.15 38.4 L-4.65 44.6 -4.7 44.0 Q-4.7 39.55 -3.8 35.45 L-4.25 40.2 -0.45 32.95 3.0 25.95 2.75 27.55 2.45 28.8 1.65 32.15 1.65 32.45 Q4.55 29.95 7.15 24.6 L7.45 23.9 Q11.85 14.55 11.9 2.1 L9.65 6.5 4.7 15.8 5.35 12.9 5.7 11.45 5.35 11.45 5.15 11.5 Q4.2 11.8 2.9 15.05 L2.9 14.95 -0.4 20.6 -1.35 21.55 Q-2.95 23.2 -5.4 23.7 L-5.3 23.55 -3.55 21.2 -4.35 22.65 Q-0.5 20.4 2.2 13.65 L4.45 6.9 4.5 6.6 4.5 9.8 4.8 9.25 5.15 8.15 5.6 5.15 4.95 2.35 3.45 -0.95 3.3 -0.75 Q2.3 0.15 1.7 3.25 L1.7 2.8 Q1.1 3.2 -2.5 -2.1 -6.1 -7.45 -6.1 -7.9 L-6.55 -7.85 Q-7.1 -7.25 -7.1 -6.45 L-6.9 -3.6 Q-9.75 -5.8 -11.75 -11.65 L-12.65 -14.55 -13.1 -13.65 Q-13.4 -12.25 -13.65 -11.9 -14.05 -11.85 -14.65 -15.2 -15.25 -18.55 -13.2 -24.65 L-12.0 -28.05 -11.55 -29.15 M17.25 -14.25 L17.15 -14.05 Q15.3 -12.55 14.05 -10.9 L12.85 -9.1 11.95 -7.25 11.1 -5.75 11.1 -5.6 13.15 -7.1 14.3 -8.0 15.15 -8.7 14.75 -6.5 14.55 -5.4 14.4 -3.05 14.4 -1.85 14.85 -2.55 17.4 -7.35 Q17.75 -8.45 17.75 -10.9 L17.5 -12.8 17.3 -13.8 17.25 -14.25 M7.55 3.2 L6.6 8.45 9.65 4.25 Q11.25 2.1 11.25 0.0 L11.0 -1.5 10.75 -2.6 10.25 -3.65 Q9.35 -2.95 7.6 0.15 L6.55 2.1 6.45 4.8 7.0 4.2 7.55 3.2 M17.55 9.0 Q17.55 6.05 15.15 0.25 13.05 7.45 12.6 15.45 L12.6 16.8 Q13.35 16.05 14.6 12.55 15.75 9.35 15.75 8.6 L15.8 8.45 15.9 11.75 16.05 12.8 16.2 12.95 16.35 12.9 17.1 11.5 17.55 9.0" fill="#936a6a" fill-rule="evenodd" stroke="none"/>
    <path d="M20.35 -29.85 L25.95 -24.55 Q32.25 -18.1 32.25 -13.95 32.25 -11.35 30.25 -6.55 L28.2 -2.25 27.65 -3.9 25.35 1.15 24.65 3.1 Q24.25 1.85 24.2 1.05 L22.75 10.5 Q21.95 14.45 21.8 16.5 20.75 15.55 19.8 13.2 L19.7 13.0 19.25 14.15 16.95 19.35 Q14.2 24.9 10.8 28.65 L10.55 28.65 11.4 23.4 11.3 23.25 Q10.7 24.75 7.75 28.7 L1.85 36.25 Q-5.1 44.85 -5.0 49.85 L-5.25 50.1 -6.15 49.2 Q-6.15 44.65 -5.45 38.6 -4.6 31.1 -3.35 29.25 -2.5 28.05 -1.05 22.9 L-4.5 25.05 -7.25 25.05 -3.95 20.7 Q0.2 14.25 0.6 10.25 L0.6 9.55 Q0.6 7.2 0.0 4.3 L-0.15 3.5 -0.7 2.7 Q-4.45 -2.45 -5.45 -4.8 L-5.7 -1.35 -6.3 -1.05 Q-8.5 -2.4 -10.3 -5.15 -11.9 -7.6 -12.35 -9.65 L-12.45 -7.95 -12.75 -7.7 -15.15 -12.0 Q-16.1 -14.15 -16.1 -16.1 -16.1 -20.05 -14.4 -24.9 -12.85 -29.4 -10.75 -30.6 L-11.55 -29.15 -12.0 -28.05 -13.2 -24.65 Q-15.25 -18.55 -14.65 -15.2 -14.05 -11.85 -13.65 -11.9 -13.4 -12.25 -13.1 -13.65 L-12.65 -14.55 -11.75 -11.65 Q-9.75 -5.8 -6.9 -3.6 L-7.1 -6.45 Q-7.1 -7.25 -6.55 -7.85 L-6.1 -7.9 Q-6.1 -7.45 -2.5 -2.1 1.1 3.2 1.7 2.8 L1.7 3.25 1.8 8.65 Q1.75 12.95 0.6 15.15 L-3.55 21.2 -5.3 23.55 -5.4 23.7 Q-2.95 23.2 -1.35 21.55 L-0.4 20.6 2.9 14.95 2.9 15.05 Q2.3 19.6 0.65 23.85 L-0.75 26.95 Q-2.8 31.0 -3.8 35.45 -4.7 39.55 -4.7 44.0 L-4.65 44.6 -1.15 38.4 Q1.35 34.45 4.8 31.7 6.35 30.45 7.7 28.15 L9.05 25.3 Q10.9 20.95 12.15 19.3 L12.6 23.55 12.6 23.7 16.75 17.25 18.35 13.65 18.5 5.1 18.6 2.7 19.05 2.55 20.5 9.9 21.45 13.8 21.5 13.95 22.3 8.75 22.7 5.8 22.7 3.2 Q23.1 1.4 23.45 0.45 L24.6 -2.65 24.9 -0.3 Q25.2 -1.7 26.15 -3.75 26.6 -4.95 26.85 -6.6 L27.15 -9.65 28.0 -6.6 28.35 -5.3 29.9 -8.95 Q30.9 -11.6 30.9 -13.0 30.9 -15.95 27.1 -21.1 L18.9 -30.75 20.35 -29.85" fill="#775252" fill-rule="evenodd" stroke="none"/>
  </g>
</svg>