<?xml version="1.0" encoding="UTF-8" standalone="no"?>
<svg xmlns:xlink="http://www.w3.org/1999/xlink" height="10.6px" width="27.25px" xmlns="http://www.w3.org/2000/svg">
  <g transform="matrix(1.0, 0.0, 0.0, 1.0, -1.3, 0.15)">
    <path d="M23.9 1.15 Q25.55 1.5 26.55 2.9 27.45 4.15 27.55 5.25 L27.5 6.35 27.35 7.15 26.9 8.25 26.2 7.8 26.55 6.2 26.55 5.8 26.35 4.15 Q25.85 2.55 24.4 2.55 L24.35 2.55 24.1 1.5 23.9 1.15 M24.4 2.95 L25.2 3.8 Q25.65 4.85 25.65 6.05 25.6 7.25 24.95 8.2 24.25 9.1 23.15 9.3 L20.95 9.45 Q19.0 9.45 18.1 8.85 L17.05 8.35 18.9 8.05 19.3 7.3 20.25 7.5 Q22.1 7.5 23.4 5.9 L23.55 5.7 Q24.25 4.7 24.4 3.9 L24.4 3.6 24.4 2.95 M5.95 0.85 L7.2 1.0 Q9.1 1.35 9.95 3.2 L10.05 3.45 10.45 4.85 9.45 5.45 9.3 4.25 Q9.2 3.55 8.7 3.25 L8.5 3.15 8.35 3.05 7.4 3.0 7.45 3.05 7.55 3.1 Q9.2 4.3 8.9 5.75 L8.25 7.6 8.0 8.05 Q7.35 8.85 6.7 9.05 L5.65 9.2 5.35 9.2 5.3 9.2 4.4 9.15 3.3 8.8 2.3 8.15 2.75 8.25 3.95 7.9 4.3 7.9 Q5.15 7.9 5.8 7.15 L6.3 6.3 Q6.9 5.05 6.9 4.0 L6.85 3.05 6.8 2.95 6.2 1.3 5.95 0.85" fill="#e0e0b1" fill-rule="evenodd" stroke="none"/>
    <path d="M23.9 1.15 L24.1 1.5 24.35 2.55 Q23.65 2.55 23.35 2.85 L23.55 2.85 24.4 2.95 24.4 3.6 24.4 3.9 Q24.25 4.7 23.55 5.7 L23.4 5.9 Q22.1 7.5 20.25 7.5 L19.3 7.3 19.9 5.1 20.0 4.35 20.05 4.25 20.4 4.9 21.0 5.2 Q21.7 5.2 22.1 4.0 L22.2 3.8 22.4 2.4 22.2 0.95 22.35 0.95 23.9 1.15 M5.95 0.85 L6.2 1.3 6.8 2.95 6.85 3.05 6.9 4.0 Q6.9 5.05 6.3 6.3 L5.8 7.15 Q5.15 7.9 4.3 7.9 L3.95 7.9 Q4.3 7.45 4.25 6.55 L3.8 4.05 3.75 3.4 Q3.9 4.2 4.55 4.2 5.1 4.2 5.4 3.3 L5.5 3.0 5.6 2.0 5.5 0.95 5.95 0.85" fill="#ffffcc" fill-rule="evenodd" stroke="none"/>
    <path d="M20.05 4.25 L20.1 3.7 20.2 3.15 20.2 3.6 Q20.5 1.1 22.2 0.95 L22.4 2.4 22.2 3.8 22.1 4.0 Q21.7 5.2 21.0 5.2 L20.4 4.9 20.05 4.25 M3.75 3.4 L3.75 2.9 3.75 2.65 Q3.85 1.65 4.8 1.2 5.1 1.0 5.5 0.95 L5.6 2.0 5.5 3.0 5.4 3.3 Q5.1 4.2 4.55 4.2 3.9 4.2 3.75 3.4" fill="#ffffe7" fill-rule="evenodd" stroke="none"/>
  </g>
</svg>