<?xml version="1.0" encoding="UTF-8" standalone="no"?>
<svg xmlns:xlink="http://www.w3.org/1999/xlink" height="32.95px" width="34.5px" xmlns="http://www.w3.org/2000/svg">
  <g transform="matrix(1.0, 0.0, 0.0, 1.0, 1, 1)">
    <path d="M23.8 14.95 L24.35 16.15 24.5 17.9 23.9 20.45 23.9 20.55 24.5 20.3 25.05 19.85 25.15 19.75 25.75 19.2 25.8 17.75 Q25.75 15.35 25.0 13.15 L24.85 12.8 Q23.95 10.4 23.55 10.5 L23.55 11.9 22.3 7.85 Q21.15 4.6 15.55 1.6 L13.8 0.7 15.25 2.3 Q16.4 3.75 16.8 5.4 L17.45 8.8 17.5 11.95 17.45 12.3 17.4 12.5 17.35 11.9 16.45 7.55 Q15.8 5.15 15.05 4.25 L15.0 4.25 15.3 6.4 Q15.85 7.35 15.85 8.0 15.1 6.5 13.55 5.0 L13.85 5.95 14.1 7.95 14.2 10.15 14.15 11.4 13.85 14.1 13.6 13.15 13.05 11.7 12.85 11.2 11.7 8.85 Q11.05 7.65 9.95 6.75 8.8 5.85 7.35 5.3 L8.6 7.55 8.95 8.25 9.5 10.65 9.6 11.35 9.8 14.25 Q9.45 16.35 8.9 17.5 L7.45 19.8 6.45 20.45 3.55 22.45 2.8 23.3 2.3 23.95 1.95 24.45 Q1.4 25.25 1.2 25.75 L1.0 26.35 3.3 24.7 Q3.45 24.3 3.95 23.65 L4.05 23.5 4.5 22.95 4.95 22.5 5.6 22.0 Q6.5 21.4 8.5 20.35 L11.05 18.3 11.15 18.2 11.25 18.05 11.65 17.45 11.55 17.65 11.5 17.85 11.3 18.25 11.2 18.4 8.7 20.65 7.65 21.15 6.5 21.65 Q5.6 22.05 5.0 22.85 L4.45 23.6 4.05 24.15 4.0 24.3 4.05 24.25 5.05 23.7 Q7.4 22.35 12.55 19.85 L12.7 19.75 12.6 19.9 11.35 21.65 11.0 22.1 10.9 22.25 12.25 22.0 14.3 21.75 14.8 21.75 15.05 21.7 14.3 25.45 14.45 25.45 16.8 25.05 17.15 25.0 17.35 25.0 17.8 24.9 17.75 25.0 17.55 25.25 16.95 26.0 15.85 27.3 15.8 27.35 16.8 27.15 18.35 26.75 18.9 26.7 19.2 26.7 20.45 26.75 21.05 26.8 22.9 27.05 22.8 27.15 22.75 27.2 21.8 27.75 21.7 27.8 22.2 27.95 23.95 28.8 25.25 29.6 25.2 29.3 25.3 29.0 27.15 28.85 25.65 28.3 26.75 28.3 28.5 27.75 Q26.0 27.5 25.15 27.0 L25.1 26.95 25.15 26.95 28.05 24.75 29.15 23.8 31.25 22.0 28.6 23.3 26.25 24.05 27.05 23.05 28.75 20.65 Q29.95 18.4 30.55 14.05 L30.55 13.95 30.55 14.05 30.15 15.0 30.05 15.2 Q28.2 19.2 23.25 21.95 L23.15 22.0 22.8 21.95 22.7 21.55 22.9 21.0 23.95 17.15 23.7 15.95 23.5 15.35 21.8 18.05 Q20.5 20.15 19.95 21.35 L19.6 21.35 19.6 21.05 19.25 17.4 19.2 17.2 18.25 18.4 18.35 18.0 Q18.45 17.7 18.7 17.35 L19.25 16.45 19.6 16.1 19.9 19.7 Q20.4 18.6 21.4 17.1 L23.4 14.25 23.65 14.6 23.8 14.95 M23.25 7.25 Q23.5 8.8 24.1 9.65 24.9 10.2 25.85 13.3 L25.9 13.4 26.8 16.95 26.8 18.3 26.8 18.8 28.05 17.05 29.85 13.9 30.1 13.4 30.65 11.8 31.15 12.4 31.1 14.1 30.95 15.5 Q30.6 18.3 30.15 19.4 L27.8 22.9 Q28.5 22.55 29.7 22.05 L32.45 21.05 32.5 21.4 Q32.5 21.75 30.9 23.15 L26.3 26.75 30.15 27.55 27.55 28.5 28.65 29.2 28.5 29.25 25.8 29.5 26.55 30.95 22.5 28.55 21.8 28.25 20.6 28.0 20.55 28.0 21.55 27.25 20.75 27.1 19.35 27.2 16.25 27.55 14.95 27.95 14.9 27.85 16.15 26.15 16.35 25.9 16.35 25.7 16.0 25.8 13.6 26.65 13.75 25.4 13.8 24.9 14.35 22.3 11.05 22.85 9.85 23.25 9.8 23.25 Q9.7 23.2 9.75 22.6 L11.05 21.05 Q8.2 22.5 5.85 23.85 3.45 25.2 1.55 26.5 L0.0 27.6 0.15 26.25 0.7 24.35 0.75 24.25 0.85 24.1 0.8 24.15 1.55 22.85 3.9 21.3 Q7.0 19.35 7.85 18.3 8.7 17.2 8.95 13.95 9.05 12.2 8.65 10.5 8.25 8.95 7.4 7.45 L7.0 6.8 Q5.8 4.9 4.25 3.95 2.65 3.05 2.25 2.55 5.05 2.95 7.3 3.95 8.75 4.6 9.95 5.55 L11.1 6.55 Q12.35 7.75 13.6 10.0 L13.65 9.75 13.55 8.95 13.45 7.65 13.3 7.05 13.05 6.35 12.95 6.1 12.3 4.6 11.9 3.6 Q13.0 3.4 14.2 4.8 L13.55 2.75 15.2 3.4 12.75 0.0 Q13.85 -0.05 15.1 0.4 L16.95 1.2 Q21.6 3.65 23.25 7.25" fill="#a36a6a" fill-rule="evenodd" stroke="none"/>
    <path d="M15.25 2.3 L16.05 2.9 19.45 5.7 Q20.4 6.8 20.4 10.05 L20.3 12.4 20.05 13.55 19.3 14.9 Q17.35 16.4 16.7 17.8 L16.6 17.8 18.1 13.65 18.1 13.3 16.2 15.3 16.1 15.4 16.1 15.3 16.2 15.3 17.05 13.75 17.45 12.3 17.5 11.95 17.45 8.8 16.8 5.4 Q16.4 3.75 15.25 2.3 M13.85 5.95 L14.8 7.6 15.1 8.45 15.1 11.55 15.1 11.65 15.1 15.0 14.7 16.2 Q13.45 18.1 13.1 18.2 L13.1 17.9 13.6 13.15 13.85 14.1 14.15 11.4 14.2 10.15 14.1 7.95 13.85 5.95 M8.6 7.55 L8.8 7.7 9.6 8.5 10.5 10.8 11.3 12.5 Q12.0 13.85 12.0 14.65 L11.75 16.4 11.15 17.85 11.15 18.2 11.05 18.3 8.5 20.35 Q6.5 21.4 5.6 22.0 L4.95 22.5 4.5 22.95 4.1 23.3 3.9 23.5 Q2.85 24.25 1.95 24.45 L2.3 23.95 2.8 23.3 3.55 22.45 6.45 20.45 7.45 19.8 8.9 17.5 Q9.45 16.35 9.8 14.25 L9.6 11.35 9.5 10.65 8.95 8.25 8.6 7.55 M11.35 21.65 L12.75 20.1 13.1 19.7 15.0 17.9 16.15 16.6 16.2 16.55 16.2 16.4 16.2 16.5 16.2 16.55 16.15 16.7 Q15.6 18.75 13.5 20.9 L13.4 20.95 12.25 22.0 10.9 22.25 11.0 22.1 11.35 21.65 M14.8 21.75 L15.0 21.2 15.5 20.1 15.45 23.0 15.3 23.7 Q15.05 24.65 14.45 25.45 L14.3 25.45 15.05 21.7 14.8 21.75 M17.75 25.0 L18.5 25.0 18.7 25.05 20.2 25.4 Q19.7 25.4 18.9 25.75 L18.35 26.1 18.1 26.25 16.9 27.05 16.8 27.15 15.8 27.35 15.85 27.3 16.95 26.0 17.55 25.25 17.75 25.0 M22.75 27.2 L23.7 27.2 24.2 27.3 24.2 27.4 21.8 27.75 22.75 27.2 M29.15 23.8 L24.55 25.3 23.2 25.8 23.3 25.7 24.35 24.85 25.05 24.3 Q26.35 23.3 27.05 23.05 L26.25 24.05 28.6 23.3 31.25 22.0 29.15 23.8 M30.05 15.2 Q29.8 18.45 28.7 19.2 L25.35 21.75 23.7 23.1 22.0 24.6 19.7 24.6 22.8 21.95 23.15 22.0 23.25 21.95 Q28.2 19.2 30.05 15.2 M23.7 15.95 Q23.3 17.9 22.35 19.55 L21.5 20.8 18.4 23.9 18.4 24.0 18.3 24.0 18.35 23.85 Q18.4 23.25 19.15 21.85 L19.6 21.05 19.6 21.35 19.95 21.35 Q20.5 20.15 21.8 18.05 L23.5 15.35 23.7 15.95 M19.25 17.4 Q18.9 19.35 18.4 20.2 L17.55 21.35 16.1 23.0 Q16.1 22.15 16.9 20.45 L17.15 20.0 18.35 18.0 18.25 18.4 19.2 17.2 19.25 17.4 M23.65 14.6 L23.7 14.5 23.8 14.5 23.8 14.95 23.65 14.6" fill="url(#gradient0)" fill-rule="evenodd" stroke="none"/>
    <path d="M15.25 2.3 L13.8 0.7 15.55 1.6 Q21.15 4.6 22.3 7.85 L23.55 11.9 23.55 10.5 Q23.95 10.4 24.85 12.8 L25.0 13.15 Q25.75 15.35 25.8 17.75 L25.75 19.2 25.15 19.75 25.05 19.85 24.5 20.3 23.9 20.55 23.9 20.45 24.5 17.9 24.35 16.15 23.8 14.95 23.8 14.5 23.7 14.5 23.65 14.6 23.4 14.25 21.4 17.1 Q20.4 18.6 19.9 19.7 L19.6 16.1 19.25 16.45 18.7 17.35 Q18.45 17.7 18.35 18.0 L17.15 20.0 16.9 20.45 Q16.1 22.15 16.1 23.0 L17.55 21.35 18.4 20.2 Q18.9 19.35 19.25 17.4 L19.6 21.05 19.15 21.85 Q18.4 23.25 18.35 23.85 L18.3 24.0 18.4 24.0 18.4 23.9 21.5 20.8 22.35 19.55 Q23.3 17.9 23.7 15.95 L23.95 17.15 22.9 21.0 22.7 21.55 22.8 21.95 19.7 24.6 22.0 24.6 23.7 23.1 25.35 21.75 28.7 19.2 Q29.8 18.45 30.05 15.2 L30.15 15.0 30.55 14.05 30.55 13.95 30.55 14.05 Q29.95 18.4 28.75 20.65 L27.05 23.05 Q26.35 23.3 25.05 24.3 L24.35 24.85 23.3 25.7 23.2 25.8 24.55 25.3 29.15 23.8 28.05 24.75 25.15 26.95 25.1 26.95 25.15 27.0 Q26.0 27.5 28.5 27.75 L26.75 28.3 25.65 28.3 27.15 28.85 25.3 29.0 25.2 29.3 25.25 29.6 23.95 28.8 22.2 27.95 21.7 27.8 21.8 27.75 24.2 27.4 24.2 27.3 23.7 27.2 22.75 27.2 22.8 27.15 22.9 27.05 21.05 26.8 20.45 26.75 19.2 26.7 18.9 26.7 18.35 26.75 16.8 27.15 16.9 27.05 18.1 26.25 18.35 26.1 18.9 25.75 Q19.7 25.4 20.2 25.4 L18.7 25.05 18.5 25.0 17.75 25.0 17.8 24.9 17.35 25.0 17.15 25.0 16.8 25.05 14.45 25.45 Q15.05 24.65 15.3 23.7 L15.45 23.0 15.5 20.1 15.0 21.2 14.8 21.75 14.3 21.75 12.25 22.0 13.4 20.95 13.5 20.9 Q15.6 18.75 16.15 16.7 L16.2 16.55 16.2 16.5 16.2 16.4 16.2 16.55 16.15 16.6 15.0 17.9 13.1 19.7 12.75 20.1 11.35 21.65 12.6 19.9 12.7 19.75 12.55 19.85 Q7.4 22.35 5.05 23.7 L4.05 24.25 4.0 24.3 4.05 24.15 4.45 23.6 5.0 22.85 Q5.6 22.05 6.5 21.65 L7.65 21.15 8.7 20.65 11.2 18.4 11.3 18.25 11.5 17.85 11.55 17.65 11.65 17.45 11.25 18.05 11.15 18.2 11.15 17.85 11.75 16.4 12.0 14.65 Q12.0 13.85 11.3 12.5 L10.5 10.8 9.6 8.5 8.8 7.7 8.6 7.55 7.35 5.3 Q8.8 5.85 9.95 6.75 11.05 7.65 11.7 8.85 L12.85 11.2 13.05 11.7 13.6 13.15 13.1 17.9 13.1 18.2 Q13.45 18.1 14.7 16.2 L15.1 15.0 15.1 11.65 15.1 11.55 15.1 8.45 14.8 7.6 13.85 5.95 13.55 5.0 Q15.1 6.5 15.85 8.0 15.85 7.35 15.3 6.4 L15.0 4.25 15.05 4.25 Q15.8 5.15 16.45 7.55 L17.35 11.9 17.4 12.5 17.45 12.3 17.05 13.75 16.2 15.3 16.1 15.3 16.1 15.4 16.2 15.3 18.1 13.3 18.1 13.65 16.6 17.8 16.7 17.8 Q17.35 16.4 19.3 14.9 L20.05 13.55 20.3 12.4 20.4 10.05 Q20.4 6.8 19.45 5.7 L16.05 2.9 15.25 2.3 M1.95 24.45 Q2.85 24.25 3.9 23.5 L4.1 23.3 4.5 22.95 4.05 23.5 3.95 23.65 Q3.45 24.3 3.3 24.7 L1.0 26.35 1.2 25.75 Q1.4 25.25 1.95 24.45" fill="#e2cece" fill-rule="evenodd" stroke="none"/>
  </g>
  <defs>
    <radialGradient cx="0" cy="0" gradientTransform="matrix(0.0358, -0.0071, 0.0027, 0.0124, -22.7, 10.85)" gradientUnits="userSpaceOnUse" id="gradient0" r="819.2" spreadMethod="pad">
      <stop offset="0.47843137254901963" stop-color="#ffffff"></stop>
      <stop offset="0.8823529411764706" stop-color="#f2eaea"></stop>
    </radialGradient>
  </defs>
</svg>