<?xml version="1.0" encoding="UTF-8" standalone="no"?>
<svg xmlns:xlink="http://www.w3.org/1999/xlink" height="10.4px" width="9.05px" xmlns="http://www.w3.org/2000/svg">
  <g transform="matrix(1.0, 0.0, 0.0, 1.0, 1, 1)">
    <path d="M5.5 4.05 L5.7 3.55 1.25 1.0 1.3 1.35 1.4 1.4 Q2.4 1.75 3.85 3.35 4.8 3.4 5.25 3.8 L5.5 4.05 M3.8 7.35 L3.2 8.4 1.3 4.05 Q-0.15 0.4 0.0 0.05 0.1 -0.2 1.6 0.45 L2.9 1.05 6.75 2.95 7.05 2.75 5.4 4.8 5.35 4.8 5.4 4.3 4.55 3.65 3.65 3.6 3.6 3.55 3.0 3.55 2.85 3.65 Q2.45 4.0 2.45 4.6 3.4 7.2 3.8 7.35 M1.45 1.5 L1.35 1.45 2.25 4.25 2.75 3.55 3.0 3.25 3.4 3.25 1.45 1.5" fill="#a36a6a" fill-rule="evenodd" stroke="none"/>
    <path d="M5.5 4.05 L5.25 3.8 Q4.8 3.4 3.85 3.35 2.4 1.75 1.4 1.4 L1.3 1.35 1.25 1.0 5.7 3.55 5.5 4.05 M5.35 4.8 L5.25 5.0 5.1 5.3 Q4.2 4.95 3.0 3.8 L2.85 3.65 3.0 3.55 3.6 3.55 3.65 3.6 4.55 3.65 5.4 4.3 5.35 4.8 M2.75 3.55 Q1.55 2.3 1.45 1.5 L3.4 3.25 3.0 3.25 2.75 3.55" fill="#ffffcc" fill-rule="evenodd" stroke="none"/>
    <path d="M5.1 5.3 L3.8 7.35 Q3.4 7.2 2.45 4.6 2.45 4.0 2.85 3.65 L3.0 3.8 Q4.2 4.95 5.1 5.3 M2.75 3.55 L2.25 4.25 1.35 1.45 1.45 1.5 Q1.55 2.3 2.75 3.55" fill="#e0e0b1" fill-rule="evenodd" stroke="none"/>
  </g>
</svg>