<?xml version="1.0" encoding="UTF-8" standalone="no"?>
<svg xmlns:xlink="http://www.w3.org/1999/xlink" height="17.55px" width="32.35px" xmlns="http://www.w3.org/2000/svg">
  <g transform="matrix(1.0, 0.0, 0.0, 1.0, 1, -10.05)">
    <path d="M25.7 15.75 L25.75 15.85 25.55 15.75 25.45 15.8 24.3 16.15 Q23.75 16.35 23.4 16.65 L22.95 17.05 22.6 17.6 19.15 17.6 Q18.7 17.2 18.0 16.95 L17.05 16.65 16.75 16.6 14.25 16.6 11.8 17.15 7.9 16.65 Q6.7 16.35 5.9 15.65 L5.05 14.6 5.55 14.35 6.35 15.15 6.45 15.25 Q7.5 16.05 8.45 16.15 L7.0 15.4 6.6 15.15 Q5.75 14.6 5.65 13.85 5.55 13.25 5.8 12.95 5.8 14.1 7.0 14.85 8.6 15.85 12.25 16.15 L13.8 16.05 16.05 15.25 Q17.65 14.5 18.4 13.6 19.1 12.65 19.1 12.1 L19.1 11.8 Q19.55 11.9 19.2 13.25 L18.85 13.95 Q18.1 14.95 15.95 15.95 L16.1 15.95 Q18.1 15.45 19.1 14.3 L19.35 14.05 Q19.85 13.35 19.95 12.6 L20.3 12.6 20.3 12.9 20.1 14.25 19.4 15.15 Q18.45 15.55 17.9 15.9 L17.2 16.4 17.9 16.65 19.4 16.95 Q20.8 16.95 21.85 15.9 22.4 15.35 23.1 15.1 L24.55 14.85 25.25 14.95 25.7 15.75" fill="#e0cbcb" fill-rule="evenodd" stroke="none"/>
    <path d="M19.15 17.6 L18.9 17.65 18.55 17.6 17.75 17.25 17.2 17.05 14.05 17.0 11.75 17.55 11.55 17.55 10.75 17.6 11.8 17.15 14.25 16.6 16.75 16.6 17.05 16.65 18.0 16.95 Q18.7 17.2 19.15 17.6 M5.55 17.6 L4.9 17.6 4.75 17.25 4.4 16.75 4.15 16.45 Q3.8 15.95 3.05 15.9 2.0 16.75 1.55 17.6 L0.0 17.6 Q0.25 17.05 1.85 15.8 L3.7 14.4 4.75 13.9 4.9 13.8 Q4.8 13.55 5.15 13.0 5.5 12.45 5.7 12.45 L6.05 12.35 6.25 12.35 6.3 12.3 7.0 12.45 7.05 12.45 7.8 13.25 8.45 13.8 8.6 13.95 10.05 14.7 10.95 14.85 13.15 14.6 15.1 14.25 16.65 13.3 16.75 13.15 17.1 12.7 17.3 12.15 18.45 11.05 18.9 11.1 Q19.5 11.2 19.9 11.8 L20.0 11.85 Q22.15 12.2 25.15 13.85 26.5 14.6 28.5 19.05 30.3 23.1 30.35 24.3 L30.3 26.6 30.2 26.25 29.9 25.15 Q29.85 24.2 27.9 19.95 26.0 15.7 25.7 15.75 L25.25 14.95 Q24.3 14.0 23.3 13.45 21.95 12.6 20.95 12.6 L20.3 12.6 19.95 12.6 Q19.85 13.35 19.35 14.05 L19.1 14.3 Q18.1 15.45 16.1 15.95 L15.95 15.95 Q18.1 14.95 18.85 13.95 L19.2 13.25 Q19.55 11.9 19.1 11.8 L19.0 11.8 Q18.3 11.85 17.6 13.1 L17.3 13.5 16.55 14.15 15.45 14.7 11.35 15.2 Q8.9 15.05 7.95 14.2 L7.6 13.8 Q6.75 12.6 6.15 12.75 L5.8 12.95 Q5.55 13.25 5.65 13.85 5.75 14.6 6.6 15.15 L7.0 15.4 8.45 16.15 Q7.5 16.05 6.45 15.25 L6.35 15.15 5.55 14.35 5.05 14.6 5.0 14.6 4.25 15.05 3.6 15.5 4.65 16.4 4.75 16.5 5.55 17.6" fill="#a36a6a" fill-rule="evenodd" stroke="none"/>
    <path d="M18.55 17.6 L11.75 17.55 14.05 17.0 17.2 17.05 17.75 17.25 18.55 17.6 M10.75 17.6 L5.55 17.6 4.75 16.5 4.65 16.4 3.6 15.5 4.25 15.05 5.0 14.6 5.05 14.6 5.9 15.65 Q6.7 16.35 7.9 16.65 L11.8 17.15 10.75 17.6 M4.9 17.6 L1.55 17.6 Q2.0 16.75 3.05 15.9 3.8 15.95 4.15 16.45 L4.4 16.75 4.75 17.25 4.9 17.6 M25.25 14.95 L24.55 14.85 23.1 15.1 Q22.4 15.35 21.85 15.9 20.8 16.95 19.4 16.95 L17.9 16.65 17.2 16.4 17.9 15.9 Q18.45 15.55 19.4 15.15 L20.1 14.25 20.3 12.9 20.3 12.6 20.95 12.6 Q21.95 12.6 23.3 13.45 24.3 14.0 25.25 14.95 M19.1 11.8 L19.1 12.1 Q19.1 12.65 18.4 13.6 17.65 14.5 16.05 15.25 L13.8 16.05 12.25 16.15 Q8.6 15.85 7.0 14.85 5.8 14.1 5.8 12.95 L6.15 12.75 Q6.75 12.6 7.6 13.8 L7.95 14.2 Q8.9 15.05 11.35 15.2 L15.45 14.7 16.55 14.15 17.3 13.5 17.6 13.1 Q18.3 11.85 19.0 11.8 L19.1 11.8" fill="url(#gradient0)" fill-rule="evenodd" stroke="none"/>
  </g>
  <defs>
    <radialGradient cx="0" cy="0" gradientTransform="matrix(0.0358, -0.0071, 0.0027, 0.0124, -16.6, 2.55)" gradientUnits="userSpaceOnUse" id="gradient0" r="819.2" spreadMethod="pad">
      <stop offset="0.47843137254901963" stop-color="#ffffff"></stop>
      <stop offset="0.8823529411764706" stop-color="#f2eaea"></stop>
    </radialGradient>
  </defs>
</svg>