<?xml version="1.0" encoding="UTF-8" standalone="no"?>
<svg xmlns:xlink="http://www.w3.org/1999/xlink" height="20.35px" width="25px" xmlns="http://www.w3.org/2000/svg">
  <g transform="matrix(1.0, 0.0, 0.0, 1.0, -8.55, -6.2)">
    <path d="M31.35 10.8 L31.55 11.05 Q29.2 13.45 26.55 15.15 L26.55 15.0 31.35 10.8 M32.2 11.8 L32.55 12.2 27.2 15.8 30.25 13.4 32.2 11.8 M30.5 9.65 L30.6 9.75 30.65 9.85 28.75 11.8 25.8 14.1 Q28.6 11.2 30.5 9.65 M24.1 8.5 L24.25 7.9 24.75 7.35 Q25.15 7.35 25.15 7.8 L25.1 7.95 25.0 8.5 24.35 9.4 24.3 9.45 24.65 9.45 24.7 9.65 24.05 10.2 24.3 10.75 24.3 11.2 24.65 12.55 24.35 13.6 24.05 14.6 Q24.75 16.6 24.75 17.55 L24.25 18.9 23.55 20.15 23.45 20.2 Q24.45 18.2 24.45 17.35 L24.15 15.75 24.0 15.75 23.95 15.25 23.25 13.45 22.0 10.6 Q20.5 10.6 19.5 10.1 L19.9 11.7 20.2 13.75 Q20.45 14.95 20.15 17.65 L20.35 18.6 20.3 18.95 20.3 19.0 Q19.85 18.85 19.85 18.0 L20.1 15.0 19.4 12.4 Q18.8 10.85 19.25 9.95 L18.4 9.25 18.05 8.5 17.85 8.15 17.7 7.85 17.9 7.2 18.1 7.75 18.1 7.35 Q18.3 7.3 18.6 7.75 L18.1 7.8 18.0 8.15 18.1 8.5 18.35 8.8 18.4 8.85 19.5 9.7 19.2 9.5 18.75 9.1 19.1 9.3 Q20.5 10.0 22.45 9.7 L23.45 9.3 23.55 9.3 23.6 9.25 24.1 8.5 M23.45 10.45 L22.35 10.6 23.6 13.3 24.0 14.4 24.35 13.1 24.0 11.9 Q23.5 11.6 23.45 10.45 M23.35 21.65 Q23.25 22.35 22.75 22.35 L22.35 22.25 22.3 22.15 23.3 20.85 23.35 21.65 M12.1 12.15 Q12.1 12.6 11.55 13.15 L11.15 14.15 Q10.95 14.8 11.05 15.3 11.8 15.4 12.35 16.05 12.9 16.65 12.9 17.35 L12.75 19.4 12.55 21.3 Q12.55 23.25 13.0 25.0 L13.7 25.0 13.8 25.0 13.85 25.15 13.5 25.55 Q12.7 25.55 12.6 24.9 L12.65 24.2 12.45 23.55 12.25 22.75 12.4 19.65 12.6 18.75 Q12.6 16.35 11.15 15.7 L11.2 15.85 11.0 16.0 10.95 15.95 10.95 16.05 10.8 16.05 10.25 14.75 10.25 13.85 9.65 13.8 9.55 13.55 10.0 13.15 11.1 12.7 11.55 12.3 Q11.85 12.05 12.1 12.15" fill="#a61515" fill-rule="evenodd" stroke="none"/>
  </g>
</svg>