<?xml version="1.0" encoding="UTF-8" standalone="no"?>
<svg xmlns:xlink="http://www.w3.org/1999/xlink" height="7.45px" width="21.2px" xmlns="http://www.w3.org/2000/svg">
  <g transform="matrix(1.0, 0.0, 0.0, 1.0, 1.45, 1)">
    <path d="M17.1 2.75 L16.0 2.4 13.65 1.85 12.95 1.8 Q12.3 2.05 11.2 3.05 L10.7 3.55 9.1 3.35 Q13.0 0.05 14.65 0.0 L18.75 0.1 17.4 2.35 17.1 2.75 M2.7 2.85 L1.85 2.8 1.25 2.2 0.45 2.0 -0.2 2.2 -0.35 2.3 -0.45 1.0 Q1.9 1.45 2.7 2.85" fill="#e0cbcb" fill-rule="evenodd" stroke="none"/>
    <path d="M10.7 3.55 L11.2 3.05 Q12.3 2.05 12.95 1.8 L13.65 1.85 16.0 2.4 17.1 2.75 16.35 3.6 Q15.85 4.2 16.05 4.25 L10.7 3.55 M1.85 2.8 L-0.3 2.7 -0.35 2.3 -0.2 2.2 0.45 2.0 1.25 2.2 1.85 2.8" fill="#f2eaea" fill-rule="evenodd" stroke="none"/>
    <path d="M9.1 3.35 L10.7 3.55 16.05 4.25 15.45 4.4 15.35 4.55 15.1 4.75 14.1 5.45 14.05 5.45 15.1 4.75 8.7 4.05 8.65 3.7 9.1 3.35 M2.7 2.85 L2.95 3.55 -0.25 3.4 -0.3 2.7 1.85 2.8 2.7 2.85" fill="#a36a6a" fill-rule="evenodd" stroke="none"/>
  </g>
</svg>