<?xml version="1.0" encoding="UTF-8" standalone="no"?>
<svg xmlns:xlink="http://www.w3.org/1999/xlink" height="27px" width="30.7px" xmlns="http://www.w3.org/2000/svg">
  <g transform="matrix(1.0, 0.0, 0.0, 1.0, -3.45, -0.95)">
    <path d="M32.8 12.3 L32.7 14.05 33.15 15.2 33.15 17.3 32.95 17.3 Q32.95 15.75 32.5 14.95 L32.0 14.1 32.15 12.45 32.45 10.75 32.8 12.3 M30.55 9.85 Q29.7 9.55 28.9 8.3 L28.9 6.85 Q28.7 6.1 25.8 6.4 L25.6 5.3 Q25.15 5.4 24.65 5.6 L22.25 5.6 22.3 5.7 22.45 6.0 22.7 7.05 22.7 7.8 22.7 8.6 22.65 9.15 22.55 9.4 22.45 9.45 22.05 9.35 22.05 9.3 22.2 7.45 22.15 7.2 21.8 6.4 21.65 6.15 21.4 5.5 21.1 5.35 21.1 4.9 21.5 4.9 21.6 4.45 21.65 3.75 Q19.55 2.8 18.9 1.95 L21.6 3.0 21.55 2.75 21.95 2.65 21.95 3.1 22.2 3.2 Q23.9 3.9 24.9 4.55 L25.65 4.35 25.7 4.25 Q23.8 3.35 23.05 2.85 L23.05 2.7 Q23.75 2.7 24.95 3.25 L25.85 3.7 26.15 3.3 26.35 4.0 Q27.4 3.4 27.9 3.4 L28.0 3.45 28.05 3.8 Q28.05 4.2 26.5 4.9 L26.5 5.5 27.65 5.35 Q29.25 5.35 29.6 6.35 L29.7 7.5 Q29.9 8.3 31.65 9.75 L32.2 10.4 30.55 9.85 M22.05 4.85 L24.2 4.65 22.0 3.85 22.05 4.85 M23.8 10.65 L25.35 9.0 25.55 9.15 25.65 9.6 Q25.65 10.1 24.25 11.45 L22.75 12.65 22.75 12.75 22.8 13.65 23.75 14.35 24.4 15.2 24.2 17.1 Q23.85 18.3 22.75 18.85 L22.85 19.15 23.8 18.55 Q24.3 18.2 24.9 18.15 L24.95 18.35 Q24.65 19.2 23.25 20.05 L17.6 20.15 17.95 21.65 Q18.75 22.8 22.25 23.55 24.9 24.15 24.9 25.3 24.9 26.35 26.1 26.4 L26.1 26.75 25.8 26.95 Q24.1 26.95 24.0 26.05 L24.15 24.4 Q20.95 24.65 18.75 23.15 16.95 21.9 16.95 20.7 L17.15 20.15 16.85 20.15 15.7 20.35 15.45 20.45 15.05 20.4 13.8 20.45 11.85 20.3 Q11.75 20.55 11.75 20.05 11.75 19.75 12.6 19.65 L14.5 19.45 14.5 18.65 14.55 17.75 14.55 17.6 13.65 17.7 Q13.15 17.6 13.1 17.35 L13.1 16.9 14.55 16.85 14.55 16.8 15.0 16.75 15.1 16.95 15.75 17.15 15.35 17.75 15.45 18.4 15.5 19.4 16.85 19.25 22.15 19.15 22.15 18.95 Q22.15 18.6 22.95 17.85 23.75 17.1 23.75 16.4 23.75 14.85 22.85 14.6 22.0 14.35 21.9 12.9 L21.85 12.9 Q20.1 12.9 19.05 11.7 18.35 10.85 18.35 10.25 L18.65 9.95 Q19.7 12.0 21.35 12.0 22.55 12.0 23.8 10.65 M10.75 8.7 L10.85 9.05 9.6 10.25 7.85 11.15 7.7 13.0 6.65 12.95 Q6.05 12.95 6.0 14.55 5.95 15.35 6.05 16.15 L5.75 19.25 5.4 19.25 5.3 18.25 5.35 15.2 Q5.7 12.6 7.05 12.6 L7.0 11.2 7.0 11.1 Q5.65 10.85 4.95 9.75 L4.45 8.25 4.5 7.7 4.9 7.7 5.45 8.95 Q6.2 10.15 7.3 10.15 L7.35 10.15 7.7 9.95 7.85 10.0 7.9 10.1 Q8.6 9.95 9.3 9.4 L9.55 9.2 9.7 9.1 Q10.3 8.7 10.6 8.75 L10.75 8.7 M11.9 7.95 L12.15 7.9 13.3 10.2 13.95 9.35 13.4 10.5 Q14.25 12.15 15.2 13.05 L15.15 13.2 Q13.95 12.35 13.2 10.95 L12.75 11.75 Q12.0 13.25 11.95 14.0 L11.75 13.95 Q12.1 12.05 13.0 10.65 L11.9 7.95" fill="#a61515" fill-rule="evenodd" stroke="none"/>
  </g>
</svg>