<?xml version="1.0" encoding="UTF-8" standalone="no"?>
<svg xmlns:xlink="http://www.w3.org/1999/xlink" height="25.75px" width="10.2px" xmlns="http://www.w3.org/2000/svg">
  <g transform="matrix(1.0, 0.0, 0.0, 1.0, 1, 1)">
    <path d="M3.25 0.0 L8.0 17.95 8.2 19.85 Q8.25 20.55 7.8 21.05 L6.65 22.0 5.3 22.9 Q4.3 23.55 3.4 23.75 L3.2 23.75 2.0 23.65 1.2 22.55 0.2 17.45 0.2 17.25 0.0 14.0 Q0.0 8.2 1.4 4.05 2.1 1.8 3.25 0.0 M2.75 10.0 L3.25 8.65 4.1 6.6 Q3.45 3.85 3.1 1.35 L3.0 1.3 Q2.25 2.95 1.75 5.1 L1.2 7.6 Q0.6 10.9 0.6 14.0 L0.65 15.55 Q0.9 14.8 1.65 14.15 2.8 13.1 2.8 12.35 L2.6 11.95 2.35 11.55 2.75 10.0 M3.75 14.05 L4.5 13.35 5.5 11.95 4.3 7.6 3.6 9.1 2.85 10.6 2.55 11.45 2.95 12.4 2.1 14.5 Q3.0 14.5 3.75 14.05 M5.6 17.3 L5.4 17.4 5.55 17.3 Q6.3 16.6 6.55 15.7 L5.6 12.4 4.5 13.85 3.85 14.35 Q3.0 14.8 1.95 14.75 0.95 14.85 0.7 16.65 L1.4 21.15 2.05 23.05 2.2 23.4 Q2.95 23.6 2.9 22.4 2.8 21.15 3.15 20.15 L3.7 18.9 3.8 18.8 3.7 19.05 3.3 20.75 Q3.05 21.95 3.2 22.8 L4.8 22.85 6.95 21.35 7.1 21.15 Q7.7 20.3 7.55 19.5 L6.95 17.1 6.75 16.4 5.6 17.3" fill="#a36a6a" fill-rule="evenodd" stroke="none"/>
    <path d="M1.75 5.1 Q2.25 2.95 3.0 1.3 L3.1 1.35 Q3.45 3.85 4.1 6.6 L3.25 8.65 2.75 10.0 1.75 5.1 M2.85 10.6 L3.6 9.1 4.3 7.6 5.5 11.95 4.5 13.35 3.75 14.05 2.9 10.8 2.85 10.6 M5.55 17.3 Q4.6 16.55 3.85 14.35 L4.5 13.85 5.6 12.4 6.55 15.7 Q6.3 16.6 5.55 17.3 M6.95 17.1 L6.45 17.6 Q6.0 17.6 5.6 17.3 L6.75 16.4 6.95 17.1" fill="#ffffcc" fill-rule="evenodd" stroke="none"/>
    <path d="M1.75 5.1 L2.75 10.0 2.35 11.55 2.6 11.95 2.8 12.35 Q2.8 13.1 1.65 14.15 0.9 14.8 0.65 15.55 L0.6 14.0 Q0.6 10.9 1.2 7.6 L1.75 5.1 M2.85 10.6 L2.9 10.8 3.75 14.05 Q3.0 14.5 2.1 14.5 L2.95 12.4 2.55 11.45 2.85 10.6 M5.55 17.3 L5.4 17.4 5.6 17.3 Q6.0 17.6 6.45 17.6 L6.95 17.1 7.55 19.5 Q7.7 20.3 7.1 21.15 L6.95 21.35 4.8 22.85 3.2 22.8 Q3.05 21.95 3.3 20.75 L3.7 19.05 3.8 18.8 3.7 18.9 3.15 20.15 Q2.8 21.15 2.9 22.4 2.95 23.6 2.2 23.4 L2.05 23.05 1.4 21.15 0.7 16.65 Q0.95 14.85 1.95 14.75 3.0 14.8 3.85 14.35 4.6 16.55 5.55 17.3" fill="#d4d4a0" fill-rule="evenodd" stroke="none"/>
  </g>
</svg>