<?xml version="1.0" encoding="UTF-8" standalone="no"?>
<svg xmlns:xlink="http://www.w3.org/1999/xlink" height="21.15px" width="32.55px" xmlns="http://www.w3.org/2000/svg">
  <g transform="matrix(1.0, 0.0, 0.0, 1.0, -4.75, -2.95)">
    <path d="M35.95 5.4 L36.3 7.0 36.15 8.25 36.05 8.3 35.4 3.95 35.55 3.95 35.95 5.4 M30.4 11.25 L30.0 11.95 30.0 12.3 29.4 17.85 30.15 18.65 30.9 19.65 30.9 19.8 30.2 19.15 Q29.75 18.65 28.95 18.45 L29.45 15.05 29.7 11.55 29.9 11.55 29.95 11.7 30.0 10.0 Q29.85 8.8 29.25 8.25 L29.15 7.8 Q30.45 7.85 30.45 10.3 L30.4 11.25 M26.1 13.8 L24.75 13.4 22.95 12.75 22.95 12.45 24.25 12.85 26.15 13.65 26.1 13.8 M21.0 19.05 Q20.65 18.8 19.65 18.3 18.5 17.75 18.15 17.7 L18.05 17.4 Q18.65 17.0 19.85 17.75 20.9 18.4 21.0 18.9 L21.0 19.05 M10.9 11.5 L12.0 15.3 12.0 15.35 Q11.45 14.65 10.55 11.85 L9.35 13.2 9.2 13.2 10.5 11.65 Q9.6 8.9 9.6 8.4 L9.65 7.2 9.9 7.2 Q10.1 8.65 10.85 11.25 L13.85 7.8 10.9 11.5 M5.75 11.4 Q6.1 11.4 6.55 11.7 L7.65 12.45 7.5 12.6 6.5 12.15 5.75 11.4 M9.25 19.6 Q9.5 18.45 9.75 18.3 9.05 20.95 9.35 22.8 L9.2 22.85 9.0 21.3 9.25 19.6 M8.1 21.2 Q8.1 19.2 8.55 18.45 L8.4 23.0 8.15 23.1 8.1 21.2 M10.5 22.5 Q10.2 22.2 10.2 21.6 10.2 21.2 10.7 19.75 11.2 18.2 11.55 17.9 L10.5 22.5" fill="#a61515" fill-rule="evenodd" stroke="none"/>
  </g>
</svg>