<?xml version="1.0" encoding="UTF-8" standalone="no"?>
<svg xmlns:xlink="http://www.w3.org/1999/xlink" height="61.95px" width="32.05px" xmlns="http://www.w3.org/2000/svg">
  <g transform="matrix(1.0, 0.0, 0.0, 1.0, 0, -7.9)">
    <path d="M8.15 8.95 L7.9 13.95 12.05 17.5 12.1 17.65 7.9 14.65 7.65 19.0 7.35 19.0 7.25 16.15 7.15 14.15 Q4.85 12.4 3.9 11.5 L3.95 11.35 Q5.45 12.15 7.15 13.4 7.15 10.0 7.95 8.9 L8.15 8.95 M9.5 40.2 L9.0 40.45 8.2 40.3 8.2 40.0 9.4 40.05 9.5 40.2 M5.3 42.7 L5.7 42.65 6.8 43.5 7.7 44.5 Q8.05 44.65 7.55 44.65 6.9 44.65 6.05 44.05 L5.25 43.3 5.3 42.7 M4.4 45.05 Q5.25 45.1 6.2 46.5 L6.1 46.75 5.1 46.45 4.4 45.95 4.4 45.05 M24.55 35.35 L24.55 35.65 24.45 35.65 21.8 35.25 21.2 34.6 23.9 34.7 Q24.55 34.85 24.55 35.35 M28.1 40.0 L27.8 40.05 26.95 39.95 26.85 39.7 Q26.75 39.6 26.95 39.45 L27.9 39.4 28.1 39.8 28.1 40.0 M27.15 43.3 L27.2 43.5 26.9 43.55 25.2 43.1 Q25.65 42.75 26.15 42.75 26.75 42.75 27.15 43.3 M22.15 45.65 Q22.15 46.45 19.95 50.55 L20.95 51.4 21.95 52.3 26.3 46.4 26.4 46.45 26.45 46.8 Q26.45 47.65 22.35 52.75 L23.45 54.0 24.45 52.8 23.8 51.6 Q24.4 51.75 24.9 52.25 26.85 50.0 28.3 48.7 L25.35 52.75 25.95 53.75 26.5 54.9 26.9 54.45 Q28.95 52.25 30.05 52.3 29.25 53.65 27.35 55.45 L26.95 55.85 27.4 56.85 27.4 57.05 27.1 57.1 26.45 56.3 23.75 58.1 26.0 55.5 24.8 53.45 23.9 54.7 24.2 55.35 24.1 55.6 23.55 55.15 22.85 55.95 24.0 57.1 23.8 57.35 22.45 56.45 20.5 58.55 26.65 64.4 26.6 64.5 Q23.7 62.4 20.05 59.0 L18.2 60.65 18.1 60.55 19.65 58.65 19.4 58.4 18.45 57.45 15.15 60.6 14.95 60.55 18.15 57.15 16.95 56.0 13.25 62.0 12.95 62.0 12.85 61.7 Q12.85 61.45 16.2 55.3 L12.7 51.9 12.75 51.6 13.05 51.6 16.45 54.85 17.75 52.4 15.7 50.9 Q16.75 50.85 18.15 51.7 L18.75 50.6 16.65 48.6 Q17.75 48.95 19.1 49.9 L21.75 44.85 Q22.15 45.2 22.15 45.65 M30.45 58.45 L29.85 58.3 Q29.85 57.9 30.1 57.7 L31.05 57.8 30.45 58.45 M29.8 51.4 Q29.3 51.4 28.9 51.65 L28.55 51.6 28.5 51.25 Q28.5 51.0 29.0 51.0 L29.85 51.15 29.8 51.4 M21.3 53.15 L20.5 52.35 19.55 51.4 19.0 52.3 19.95 53.1 20.75 53.9 21.3 53.15 M21.65 53.6 L21.15 54.25 22.3 55.4 22.9 54.65 21.75 53.55 21.65 53.6 M28.65 60.7 L25.45 62.8 25.15 62.8 Q29.1 59.2 30.25 58.65 30.45 59.4 28.65 60.7 M20.6 54.95 L18.8 57.05 19.95 58.05 20.05 58.15 21.8 56.0 20.6 54.95 M21.0 68.85 Q20.3 68.15 19.7 66.65 L18.4 64.1 Q19.6 64.55 20.2 66.0 L21.15 68.5 21.0 68.85 M29.65 63.7 L28.6 63.55 28.55 63.3 29.6 63.0 30.75 62.95 30.2 63.45 29.65 63.7 M19.9 54.3 L18.55 53.1 18.15 53.8 17.2 55.55 18.5 56.75 20.2 54.6 19.9 54.3 M6.35 51.8 Q6.85 53.75 8.75 58.15 L8.55 58.2 Q6.0 53.45 6.0 52.25 L6.1 51.85 6.35 51.8 M4.15 53.5 L6.15 55.65 6.1 55.85 Q3.55 54.6 2.05 51.65 L2.4 51.45 4.15 53.5 M1.35 56.0 L5.5 61.1 5.1 61.45 Q1.0 57.15 1.0 56.3 L1.0 56.05 1.1 56.0 1.35 56.0 M6.05 62.05 L6.15 61.9 8.45 63.7 Q9.95 65.1 10.3 66.1 L10.3 66.2 7.95 64.3 Q6.4 62.95 6.05 62.05" fill="#660000" fill-opacity="0.42352942" fill-rule="evenodd" stroke="none"/>
  </g>
</svg>