<?xml version="1.0" encoding="UTF-8" standalone="no"?>
<svg xmlns:xlink="http://www.w3.org/1999/xlink" height="83.2px" width="36.25px" xmlns="http://www.w3.org/2000/svg">
  <g transform="matrix(1.0, 0.0, 0.0, 1.0, 1, 1)">
    <path d="M20.95 11.6 L20.75 11.45 18.65 11.15 13.6 10.95 Q10.55 11.05 8.6 13.55 6.65 16.0 7.35 16.75 8.05 17.5 8.6 19.1 9.15 20.65 9.05 24.15 8.95 27.6 10.65 30.0 12.35 32.35 13.8 33.15 15.25 33.9 15.45 34.95 L15.55 36.0 14.65 38.2 13.15 41.0 12.6 42.3 12.45 42.1 12.25 42.35 Q11.9 42.8 12.3 41.85 L12.55 41.25 13.75 37.8 Q14.15 36.0 13.3 35.75 12.75 35.55 11.4 33.75 L9.55 32.0 Q8.45 31.1 7.0 27.1 5.5 23.1 5.4 21.65 L5.25 20.15 Q5.05 18.85 3.75 16.9 L3.4 16.4 3.1 16.0 2.6 15.2 2.15 14.35 1.7 13.45 0.75 11.05 1.3 11.05 Q1.45 13.15 3.0 13.15 4.55 13.15 5.8 11.75 7.05 10.35 7.15 8.25 7.2 6.15 7.7 4.1 8.2 2.0 10.1 0.85 L10.35 0.95 13.05 1.9 Q11.0 1.55 9.7 3.3 8.4 5.05 10.0 7.5 11.6 9.9 12.1 10.0 L12.8 10.05 13.0 10.0 17.15 10.15 Q19.1 10.15 20.15 9.25 L20.4 9.1 20.6 8.85 20.95 11.6" fill="url(#gradient0)" fill-rule="evenodd" stroke="none"/>
    <path d="M31.45 68.85 L31.6 68.25 32.05 64.75 32.25 63.05 32.95 56.5 Q32.9 52.85 32.25 48.65 L31.15 43.2 30.15 40.15 29.95 39.7 28.4 35.65 Q29.15 35.75 29.9 36.8 L30.7 34.15 30.25 33.15 29.45 32.25 29.05 31.9 28.55 32.65 Q28.1 33.4 27.75 29.75 27.35 26.1 26.75 24.25 26.1 22.4 24.2 19.85 22.6 17.65 21.9 16.35 L21.6 15.75 Q21.45 15.4 21.05 12.25 L20.95 11.6 20.6 8.85 20.2 7.55 Q18.8 4.2 13.2 1.95 L13.05 1.9 10.35 0.95 10.1 0.85 10.05 0.85 8.4 0.4 Q10.05 -0.9 15.3 1.8 20.2 4.35 20.95 5.9 22.05 7.25 21.95 10.1 21.85 13.25 22.4 14.4 L27.0 22.8 Q29.05 26.95 29.35 30.2 L30.05 30.95 Q31.9 33.15 31.9 34.2 31.9 35.7 31.05 37.9 L30.8 38.5 31.45 40.7 32.2 43.55 33.35 48.55 34.05 53.35 34.2 55.45 34.25 57.55 Q34.25 61.2 33.4 64.25 L33.4 64.35 Q33.3 66.85 31.65 70.7 L30.15 73.05 28.05 75.8 27.7 76.25 Q26.6 76.95 24.9 77.45 L24.9 77.65 24.9 77.9 23.65 79.65 Q22.6 80.75 21.35 81.1 L19.45 81.2 16.6 81.1 15.95 81.05 15.6 81.05 Q10.85 80.6 8.05 79.3 L6.5 78.4 Q4.25 76.75 4.25 74.2 4.25 73.4 4.55 72.95 L2.25 71.1 Q0.0 66.25 0.0 63.45 L0.55 59.3 1.25 54.55 Q1.85 51.65 3.25 46.9 4.6 42.55 6.25 39.4 L8.3 35.2 9.2 33.45 7.1 29.9 Q5.85 27.85 5.5 26.3 L4.85 24.75 4.55 23.5 Q4.25 22.3 4.1 20.9 L4.05 20.5 Q3.55 20.4 3.1 20.1 2.15 19.4 1.25 17.7 L0.8 16.95 3.1 18.55 3.2 18.6 3.15 18.5 2.65 17.8 0.75 14.7 0.75 11.05 1.7 13.45 2.15 14.35 2.6 15.2 3.1 16.0 3.4 16.4 3.75 16.9 Q5.05 18.85 5.25 20.15 L5.4 21.65 Q5.5 23.1 7.0 27.1 8.45 31.1 9.55 32.0 L11.4 33.75 Q12.75 35.55 13.3 35.75 14.15 36.0 13.75 37.8 L12.55 41.25 12.3 41.85 Q12.05 41.3 12.05 40.55 12.05 40.1 12.4 39.05 L12.55 38.55 13.0 36.8 11.55 35.8 11.2 35.6 11.05 35.45 10.9 35.35 10.15 34.75 7.5 40.45 5.75 44.05 Q1.65 53.2 1.65 58.75 0.55 65.55 2.95 69.25 L4.05 71.1 6.35 73.1 8.7 74.65 8.75 74.7 14.35 76.4 20.65 77.0 24.1 76.65 26.15 75.75 28.0 74.65 29.8 72.0 31.45 68.85 M19.1 13.75 L19.2 14.2 19.75 16.5 Q20.1 17.65 19.0 18.9 17.85 20.1 17.85 20.5 L18.85 22.75 Q19.85 24.9 19.85 26.7 L18.9 30.7 Q18.9 31.2 19.3 31.7 L20.0 32.75 19.75 33.25 19.3 32.95 18.75 32.35 18.15 31.4 18.1 31.3 18.75 29.3 Q19.35 27.55 19.35 26.7 19.35 24.95 18.1 22.85 16.85 20.8 16.85 20.2 16.85 19.75 18.25 18.05 19.45 16.5 18.9 13.75 L19.1 13.75 M13.0 79.7 L16.8 80.15 21.95 79.6 23.4 78.65 23.65 78.2 23.85 77.75 21.35 77.9 17.5 77.8 12.05 76.9 Q10.6 76.55 8.8 75.7 L6.5 74.4 5.25 73.5 5.5 75.45 Q5.75 77.1 9.3 78.6 L13.0 79.7" fill="#a36a6a" fill-rule="evenodd" stroke="none"/>
    <path d="M12.6 42.3 L13.15 41.0 14.65 38.2 15.55 36.0 15.45 34.95 Q15.25 33.9 13.8 33.15 12.35 32.35 10.65 30.0 8.95 27.6 9.05 24.15 9.15 20.65 8.6 19.1 8.05 17.5 7.35 16.75 6.65 16.0 8.6 13.55 10.55 11.05 13.6 10.95 L18.65 11.15 20.75 11.45 20.95 11.6 21.05 12.25 Q21.45 15.4 21.6 15.75 L21.9 16.35 21.5 18.55 Q21.5 19.4 22.4 21.95 L21.5 27.4 Q21.5 28.1 20.9 29.3 L20.3 30.7 Q20.3 31.2 20.65 32.6 20.95 33.9 19.3 37.4 22.35 35.2 23.25 34.0 24.15 32.8 24.6 32.85 25.0 32.85 24.15 35.15 23.25 37.4 18.1 43.85 15.4 47.3 13.65 50.15 12.05 54.05 11.8 55.2 11.2 57.9 11.05 60.95 L11.0 63.0 11.0 63.05 Q11.15 66.35 12.8 67.65 14.35 68.95 17.8 70.1 21.25 71.25 24.8 70.0 28.35 68.75 29.8 66.85 L32.25 63.05 32.05 64.75 31.6 68.25 31.45 68.85 Q30.0 71.1 27.95 72.35 26.15 73.4 23.2 74.05 19.4 74.85 16.2 74.2 8.95 72.75 7.05 70.0 6.15 68.75 5.7 65.65 5.3 62.85 5.5 61.4 L6.75 55.35 Q8.55 47.65 12.6 42.3 M10.1 0.85 Q8.2 2.0 7.7 4.1 7.2 6.15 7.15 8.25 7.05 10.35 5.8 11.75 4.55 13.15 3.0 13.15 1.45 13.15 1.3 11.05 L1.4 11.05 1.7 9.45 Q2.1 7.75 3.1 6.0 5.25 2.15 8.75 0.85 L10.05 0.85 10.1 0.85 M30.25 33.15 L30.7 34.15 29.9 36.8 Q29.15 35.75 28.4 35.65 L29.95 39.7 27.3 35.9 27.3 34.5 27.55 34.4 28.05 34.25 28.55 34.5 Q29.05 34.65 29.65 34.0 L29.9 33.5 30.25 33.15 M18.15 31.4 L18.75 32.35 19.3 32.95 19.75 33.25 20.0 32.75 19.3 31.7 Q18.9 31.2 18.9 30.7 L19.85 26.7 Q19.85 24.9 18.85 22.75 L17.85 20.5 Q17.85 20.1 19.0 18.9 20.1 17.65 19.75 16.5 L19.2 14.2 19.1 13.75 Q18.75 13.4 18.3 13.4 L18.05 13.4 17.95 13.7 Q17.7 15.45 16.5 16.3 14.9 17.4 14.4 18.05 13.25 19.45 13.25 21.8 13.25 24.45 13.9 27.95 L14.4 29.3 Q15.65 32.3 16.3 32.3 16.9 32.3 17.35 31.85 17.8 31.4 18.15 31.4 M23.65 78.2 L23.4 78.65 21.95 79.6 16.8 80.15 13.0 79.7 12.8 78.95 Q12.7 78.3 13.95 78.65 L18.2 79.2 Q21.15 79.4 23.65 78.2" fill="#e0cbcb" fill-rule="evenodd" stroke="none"/>
    <path d="M32.25 63.05 L29.8 66.85 Q28.35 68.75 24.8 70.0 21.25 71.25 17.8 70.1 14.35 68.95 12.8 67.65 11.15 66.35 11.0 63.05 L11.0 63.0 11.05 60.95 Q11.2 57.9 11.8 55.2 12.05 54.05 13.65 50.15 15.4 47.3 18.1 43.85 23.25 37.4 24.15 35.15 25.0 32.85 24.6 32.85 24.15 32.8 23.25 34.0 22.35 35.2 19.3 37.4 20.95 33.9 20.65 32.6 20.3 31.2 20.3 30.7 L20.9 29.3 Q21.5 28.1 21.5 27.4 L22.4 21.95 Q21.5 19.4 21.5 18.55 L21.9 16.35 Q22.6 17.65 24.2 19.85 26.1 22.4 26.75 24.25 27.35 26.1 27.75 29.75 28.1 33.4 28.55 32.65 L29.05 31.9 29.45 32.25 30.25 33.15 29.9 33.5 29.65 34.0 Q29.05 34.65 28.55 34.5 L28.05 34.25 27.55 34.4 27.3 34.5 27.3 35.9 29.95 39.7 30.15 40.15 31.15 43.2 32.25 48.65 Q32.9 52.85 32.95 56.5 L32.25 63.05" fill="url(#gradient1)" fill-rule="evenodd" stroke="none"/>
    <path d="M20.6 8.85 L20.4 9.1 20.15 9.25 Q19.1 10.15 17.15 10.15 L13.0 10.0 12.8 10.05 12.1 10.0 Q11.6 9.9 10.0 7.5 8.4 5.05 9.7 3.3 11.0 1.55 13.05 1.9 L13.2 1.95 Q18.8 4.2 20.2 7.55 L20.6 8.85" fill="url(#gradient2)" fill-rule="evenodd" stroke="none"/>
    <path d="M19.1 13.75 L18.9 13.75 Q19.45 16.5 18.25 18.05 16.85 19.75 16.85 20.2 16.85 20.8 18.1 22.85 19.35 24.95 19.35 26.7 19.35 27.55 18.75 29.3 L18.1 31.3 18.15 31.4 Q17.8 31.4 17.35 31.85 16.9 32.3 16.3 32.3 15.65 32.3 14.4 29.3 L13.9 27.95 Q13.25 24.45 13.25 21.8 13.25 19.45 14.4 18.05 14.9 17.4 16.5 16.3 17.7 15.45 17.95 13.7 L18.05 13.4 18.3 13.4 Q18.75 13.4 19.1 13.75" fill="url(#gradient3)" fill-rule="evenodd" stroke="none"/>
    <path d="M12.6 42.3 Q8.55 47.65 6.75 55.35 L5.5 61.4 Q5.3 62.85 5.7 65.65 6.15 68.75 7.05 70.0 8.95 72.75 16.2 74.2 19.4 74.85 23.2 74.05 26.15 73.4 27.95 72.35 30.0 71.1 31.45 68.85 L29.8 72.0 28.0 74.65 26.15 75.75 24.1 76.65 20.65 77.0 14.35 76.4 8.75 74.7 8.7 74.65 6.35 73.1 4.05 71.1 2.95 69.25 Q0.55 65.55 1.65 58.75 1.65 53.2 5.75 44.05 L7.5 40.45 10.15 34.75 10.9 35.35 11.05 35.45 11.2 35.6 11.55 35.8 13.0 36.8 12.55 38.55 12.4 39.05 Q12.05 40.1 12.05 40.55 12.05 41.3 12.3 41.85 11.9 42.8 12.25 42.35 L12.45 42.1 12.6 42.3 M13.0 79.7 L9.3 78.6 Q5.75 77.1 5.5 75.45 L5.25 73.5 6.5 74.4 8.8 75.7 Q10.6 76.55 12.05 76.9 L17.5 77.8 21.35 77.9 23.85 77.75 23.65 78.2 Q21.15 79.4 18.2 79.2 L13.95 78.65 Q12.7 78.3 12.8 78.95 L13.0 79.7" fill="#cca9a9" fill-rule="evenodd" stroke="none"/>
  </g>
  <defs>
    <linearGradient gradientTransform="matrix(0.0027, -0.0102, 0.0122, 0.0032, 10.25, 15.5)" gradientUnits="userSpaceOnUse" id="gradient0" spreadMethod="pad" x1="-819.2" x2="819.2">
      <stop offset="0.0" stop-color="#cca9a9"></stop>
      <stop offset="1.0" stop-color="#e0cbcb"></stop>
    </linearGradient>
    <radialGradient cx="0" cy="0" gradientTransform="matrix(0.0378, 0.0, 0.0, 0.0378, 22.1, 47.2)" gradientUnits="userSpaceOnUse" id="gradient1" r="819.2" spreadMethod="pad">
      <stop offset="0.0" stop-color="#ffffff"></stop>
      <stop offset="1.0" stop-color="#e0cbcb"></stop>
    </radialGradient>
    <radialGradient cx="0" cy="0" gradientTransform="matrix(0.0107, 0.0, 0.0, 0.0107, 17.5, 4.25)" gradientUnits="userSpaceOnUse" id="gradient2" r="819.2" spreadMethod="pad">
      <stop offset="0.0" stop-color="#ffffff"></stop>
      <stop offset="1.0" stop-color="#e0cbcb"></stop>
    </radialGradient>
    <radialGradient cx="0" cy="0" gradientTransform="matrix(0.0339, -0.0071, 0.0026, 0.0124, -58.55, 4.9)" gradientUnits="userSpaceOnUse" id="gradient3" r="819.2" spreadMethod="pad">
      <stop offset="0.47843137254901963" stop-color="#ffffff"></stop>
      <stop offset="0.8823529411764706" stop-color="#f2eaea"></stop>
    </radialGradient>
  </defs>
</svg>