<?xml version="1.0" encoding="UTF-8" standalone="no"?>
<svg xmlns:xlink="http://www.w3.org/1999/xlink" height="29.1px" width="19.45px" xmlns="http://www.w3.org/2000/svg">
  <g transform="matrix(1.0, 0.0, 0.0, 1.0, 1, 1)">
    <path d="M11.45 2.25 Q11.3 2.5 11.3 1.85 11.3 1.45 11.5 1.55 L11.85 1.85 11.45 2.25 M12.75 7.35 L12.75 7.75 12.2 8.0 Q11.95 7.75 11.95 7.25 L12.3 7.25 12.75 7.35 M15.1 6.85 Q15.55 6.85 15.9 7.25 L16.35 7.95 15.8 8.45 15.05 7.65 15.1 6.85 M7.75 0.0 Q8.35 0.0 8.55 0.35 L7.95 0.6 7.75 0.0 M7.95 5.2 L8.2 5.15 8.75 5.35 8.85 5.95 8.2 6.2 7.8 6.15 7.7 5.65 Q7.7 5.3 7.95 5.2 M5.0 6.6 L5.0 6.85 4.8 7.1 Q4.2 7.1 4.2 6.45 L4.5 6.45 5.0 6.6 M8.3 10.6 L8.75 11.1 8.45 11.7 Q7.85 11.65 7.55 11.25 7.85 10.75 8.3 10.6 M8.35 13.5 L9.05 13.65 9.1 14.0 9.0 14.2 8.55 14.35 8.35 13.5 M5.35 18.1 L5.25 18.2 4.7 18.15 4.6 17.6 Q4.6 17.2 4.75 17.15 L5.05 17.1 5.5 17.55 5.35 18.1 M8.95 17.6 L9.2 18.6 Q9.2 19.1 8.8 19.5 8.45 19.9 8.1 19.9 L7.55 19.85 7.3 19.6 7.85 18.75 8.35 17.6 8.95 17.6 M4.0 14.0 L3.55 14.85 3.2 14.85 3.1 14.0 3.2 13.1 3.7 13.1 4.0 14.0 M0.95 19.15 Q0.8 19.5 0.2 19.5 L0.0 18.95 0.95 19.15 M1.95 22.1 Q2.5 22.35 2.5 23.0 L2.15 23.6 1.45 24.35 0.95 24.2 Q0.8 24.55 0.8 23.9 0.8 23.35 1.95 22.1 M17.35 14.85 L17.45 15.1 Q17.0 15.45 16.75 15.45 L16.6 14.85 Q16.95 14.6 17.35 14.85 M15.2 13.1 L15.2 14.7 15.05 15.5 14.7 16.25 13.45 16.1 14.5 13.1 15.2 13.1 M10.8 15.2 Q10.5 15.1 10.5 14.65 10.75 14.4 11.2 14.65 L11.05 14.95 10.8 15.2 M10.2 23.0 Q10.2 22.6 10.55 22.55 L11.2 22.6 11.3 23.0 11.05 23.5 10.2 23.25 10.2 23.0 M14.1 23.15 Q14.1 22.75 14.4 22.65 L14.7 22.6 15.2 22.95 15.25 23.35 14.95 23.7 14.35 23.7 14.15 23.6 14.1 23.15 M13.85 21.55 Q13.85 20.2 15.2 19.7 15.55 20.0 15.55 20.6 L15.25 21.4 Q14.8 21.95 14.0 21.85 13.85 22.15 13.85 21.55 M6.7 26.1 L6.8 26.7 6.35 27.1 5.7 26.85 5.75 25.9 6.7 26.1" fill="#a36a6a" fill-rule="evenodd" stroke="none"/>
  </g>
</svg>