<?xml version="1.0" encoding="UTF-8" standalone="no"?>
<svg xmlns:xlink="http://www.w3.org/1999/xlink" height="70.25px" width="27.15px" xmlns="http://www.w3.org/2000/svg">
  <g transform="matrix(1.0, 0.0, 0.0, 1.0, -3.1, -4.8)">
    <path d="M12.7 9.55 L10.8 9.1 8.7 8.4 11.0 8.3 Q12.1 8.65 12.65 9.4 L12.7 9.55 M15.0 7.5 Q17.95 8.8 18.55 9.25 18.85 9.45 18.35 9.45 L10.85 5.85 11.0 5.8 15.0 7.5 M14.85 14.65 L14.85 14.8 13.55 14.45 13.55 14.3 14.85 14.65 M11.3 24.0 L13.5 27.25 13.4 27.4 11.55 25.55 12.15 28.6 11.9 28.75 11.0 24.8 10.35 23.8 Q9.3 21.95 8.9 20.15 L10.8 23.15 10.75 22.65 10.95 20.0 11.15 20.0 11.05 21.9 11.3 24.0 M4.4 48.45 Q6.3 49.85 9.05 50.9 5.8 44.55 5.8 41.25 5.8 40.65 6.15 40.5 7.2 46.15 10.1 51.25 L15.25 53.1 15.05 53.25 10.5 52.0 Q12.75 55.85 16.05 59.45 L16.05 59.5 Q13.75 58.65 11.2 54.7 L11.0 55.6 10.8 61.6 Q10.8 62.05 11.25 62.8 L11.9 64.7 11.7 66.2 11.8 66.8 15.1 69.75 17.25 69.65 15.45 70.05 Q18.55 72.4 21.95 73.4 17.9 72.75 14.85 70.3 L14.7 70.15 11.65 70.45 8.6 70.2 8.55 69.8 14.25 69.75 10.7 66.25 Q10.75 66.05 11.0 66.05 L11.7 66.65 11.65 66.35 11.75 65.05 Q11.75 64.55 11.05 63.6 10.35 62.6 10.35 61.9 L10.3 58.7 10.5 55.25 10.45 54.35 10.6 53.75 9.45 51.7 8.85 51.5 Q5.8 50.4 4.1 48.65 4.15 48.45 4.4 48.45 M18.1 47.55 L18.05 47.7 12.95 43.9 13.0 43.65 15.55 45.45 18.1 47.55 M18.65 40.9 L20.6 41.8 20.6 41.85 18.6 41.55 Q16.85 41.15 16.4 40.4 16.9 40.2 18.65 40.9 M22.15 40.0 L22.0 40.25 Q21.7 40.2 21.55 40.05 L21.5 39.85 21.55 39.6 21.85 39.6 22.15 40.0 M23.6 43.45 L25.65 45.25 28.5 47.2 Q27.0 46.8 25.35 45.65 23.65 44.5 23.35 43.6 L23.6 43.45 M25.55 48.15 L28.5 50.6 28.5 50.7 Q26.95 50.05 25.45 48.8 24.05 47.65 23.3 46.5 L25.55 48.15 M20.25 61.45 L20.25 61.2 22.7 61.45 26.7 60.95 29.25 60.85 Q27.45 61.85 23.55 61.95 L20.7 61.65 20.25 61.45 M23.15 55.8 L23.3 55.6 28.85 56.1 29.15 56.2 27.2 56.6 24.8 56.3 23.15 55.8 M25.65 66.35 L25.65 68.1 25.1 72.25 Q25.1 72.9 24.8 73.1 24.3 73.4 24.0 74.05 L23.8 74.0 24.35 71.95 24.4 70.65 24.85 69.35 25.3 68.15 25.0 67.25 25.0 67.3 24.95 67.55 21.4 67.55 18.6 66.65 Q19.1 66.45 19.5 66.65 L24.9 67.15 24.95 67.1 Q24.55 66.65 24.55 66.15 L24.65 64.75 22.25 63.9 Q18.2 62.35 17.65 61.35 L22.75 63.15 24.7 63.95 24.7 63.85 25.0 63.85 25.1 64.1 28.25 65.2 28.25 65.25 27.15 65.4 25.35 64.95 25.65 66.35 M8.2 64.85 L8.3 64.6 9.45 65.4 10.9 66.65 10.9 66.7 Q10.05 66.5 9.3 65.85 L8.2 64.85" fill="#a61515" fill-rule="evenodd" stroke="none"/>
  </g>
</svg>