<?xml version="1.0" encoding="UTF-8" standalone="no"?>
<svg xmlns:xlink="http://www.w3.org/1999/xlink" height="7.85px" width="8.8px" xmlns="http://www.w3.org/2000/svg">
  <g transform="matrix(1.0, 0.0, 0.0, 1.0, 1, 1)">
    <path d="M6.35 1.15 L6.2 1.75 6.15 1.95 6.1 2.1 5.85 2.95 4.4 1.8 3.8 1.4 6.35 1.15 M5.85 3.25 L5.85 3.95 5.85 4.35 5.85 4.5 5.9 4.9 Q4.25 4.05 2.1 1.5 L3.15 1.45 4.35 2.9 4.4 2.6 Q4.5 2.45 4.7 2.45 5.05 2.45 5.6 3.0 L5.85 3.25" fill="#ffffcc" fill-rule="evenodd" stroke="none"/>
    <path d="M5.85 2.95 L5.85 3.25 5.6 3.0 Q5.05 2.45 4.7 2.45 4.5 2.45 4.4 2.6 L4.35 2.9 3.15 1.45 2.1 1.5 Q4.25 4.05 5.9 4.9 L5.9 5.85 Q1.75 3.35 0.0 0.85 L0.05 0.6 1.35 0.6 6.8 0.0 6.35 1.15 3.8 1.4 4.4 1.8 5.85 2.95" fill="#a36a6a" fill-rule="evenodd" stroke="none"/>
  </g>
</svg>