<?xml version="1.0" encoding="UTF-8" standalone="no"?>
<svg xmlns:xlink="http://www.w3.org/1999/xlink" height="65.45px" width="20.75px" xmlns="http://www.w3.org/2000/svg">
  <g transform="matrix(1.0, 0.0, 0.0, 1.0, -2.3, -7.15)">
    <path d="M16.65 8.15 L16.85 8.3 16.95 8.85 16.5 16.25 Q16.05 21.05 16.05 23.8 L16.05 24.0 16.2 25.15 16.2 25.55 16.15 25.55 Q16.3 28.25 17.05 33.0 L17.1 33.2 16.85 32.5 15.6 29.25 Q15.15 28.1 15.15 26.0 L15.2 24.5 15.05 24.0 15.15 22.65 Q15.15 21.85 13.75 20.2 L12.35 18.45 11.75 13.8 11.75 8.25 12.05 8.25 12.1 12.5 Q12.1 15.15 12.6 16.8 12.9 17.95 14.7 20.95 L15.25 21.9 15.5 15.75 Q15.75 14.95 15.7 11.9 15.7 9.3 16.65 8.15 M3.75 39.2 Q5.2 44.0 7.6 48.55 8.15 47.35 8.85 46.2 11.05 42.45 13.5 39.65 L9.4 46.7 7.95 49.2 Q11.2 55.1 16.1 60.45 L15.9 60.6 11.8 56.35 12.3 63.9 12.5 67.85 Q12.75 70.25 13.25 71.4 L12.95 71.6 Q11.7 71.0 11.7 70.8 11.7 70.45 12.05 70.0 L12.35 69.15 11.9 64.75 11.4 60.2 11.55 56.15 11.65 56.15 Q9.25 53.25 7.5 50.0 L5.6 53.55 5.4 53.55 Q6.1 51.5 7.15 49.4 4.9 45.0 3.3 39.3 L3.75 39.2 M17.6 42.15 Q17.35 45.5 18.65 51.35 L18.9 52.3 20.05 49.5 Q21.6 46.05 21.6 44.9 21.6 37.45 20.7 32.55 L21.0 32.55 Q21.85 35.05 22.05 38.5 L22.05 44.35 Q22.05 46.3 20.85 49.35 L19.15 53.45 Q20.1 58.1 20.1 60.35 L19.95 64.8 Q19.05 62.25 19.05 55.65 L18.75 54.1 Q18.5 54.2 18.55 54.6 L18.65 55.15 17.4 51.05 17.45 46.65 17.4 35.6 Q17.85 39.5 17.6 42.15" fill="#a61515" fill-rule="evenodd" stroke="none"/>
  </g>
</svg>