<?xml version="1.0" encoding="UTF-8" standalone="no"?>
<svg xmlns:xlink="http://www.w3.org/1999/xlink" height="13.8px" width="15.05px" xmlns="http://www.w3.org/2000/svg">
  <g transform="matrix(1.0, 0.0, 0.0, 1.0, 1, 1)">
    <path d="M8.3 1.25 L8.3 2.85 Q8.6 4.5 9.45 5.4 L10.05 6.35 10.3 5.35 11.45 0.7 13.05 0.0 13.05 0.05 12.4 2.85 10.85 7.2 8.9 11.8 Q5.9 10.1 3.3 6.2 1.1 2.8 0.0 0.1 L1.45 0.65 1.4 0.65 1.45 0.7 Q2.1 2.15 4.45 5.65 6.8 9.2 8.55 9.65 L9.65 7.5 9.65 7.25 Q9.65 6.7 9.3 6.1 8.85 5.25 8.15 5.25 L8.0 2.85 8.0 1.3 8.3 1.25" fill="#a36a6a" fill-rule="evenodd" stroke="none"/>
    <path d="M11.45 0.7 L10.3 5.35 10.05 6.35 9.45 5.4 Q8.6 4.5 8.3 2.85 L8.3 1.25 8.75 1.25 11.45 0.7 M8.0 1.3 L8.0 2.85 8.15 5.25 Q8.85 5.25 9.3 6.1 9.65 6.7 9.65 7.25 L9.65 7.5 8.55 9.65 Q6.8 9.2 4.45 5.65 2.1 2.15 1.45 0.7 L6.75 1.3 8.0 1.3" fill="#ffffcc" fill-rule="evenodd" stroke="none"/>
  </g>
</svg>