<?xml version="1.0" encoding="UTF-8" standalone="no"?>
<svg xmlns:xlink="http://www.w3.org/1999/xlink" height="63.4px" width="23.45px" xmlns="http://www.w3.org/2000/svg">
  <g transform="matrix(1.0, 0.0, 0.0, 1.0, -3.65, -8)">
    <path d="M14.85 9.0 L14.85 9.75 Q14.85 12.6 14.15 19.3 13.4 26.15 13.4 28.05 13.35 31.15 13.1 32.45 12.75 34.55 11.45 37.05 10.15 39.5 10.6 41.75 L11.4 45.95 10.95 63.9 Q10.95 64.7 10.05 65.95 9.4 66.9 10.2 70.25 L10.2 70.4 Q9.0 69.9 8.7 68.4 L8.6 66.15 Q8.6 65.2 9.35 62.9 10.05 60.6 10.05 59.0 L10.1 53.4 9.75 53.4 Q10.5 50.25 8.9 47.65 6.6 44.0 6.35 42.9 L6.15 40.3 6.2 37.65 5.45 35.15 Q4.65 33.05 4.65 32.4 L5.05 30.55 Q5.5 29.0 5.85 28.7 L6.4 29.1 6.5 29.8 6.2 31.05 5.9 32.3 Q5.9 34.4 6.4 36.05 6.95 37.9 7.1 41.25 7.15 43.0 7.3 43.5 7.6 44.7 8.7 45.6 9.55 46.25 10.0 47.25 L9.95 44.4 Q9.85 40.05 10.35 37.2 10.5 36.45 12.15 33.75 13.5 31.7 12.9 30.15 L12.85 26.55 Q12.8 24.35 12.9 22.8 L13.1 15.4 Q13.35 10.75 14.85 9.0 M21.2 54.05 L20.0 55.5 Q16.3 60.45 15.5 63.2 14.85 63.65 14.85 62.9 14.85 61.2 20.05 54.55 L20.8 53.65 16.55 49.4 Q18.25 50.05 20.8 52.8 L21.15 53.15 Q24.8 48.55 26.1 47.45 L21.55 53.6 24.45 57.05 24.45 57.2 21.2 54.05" fill="#a61515" fill-rule="evenodd" stroke="none"/>
  </g>
</svg>