<?xml version="1.0" encoding="UTF-8" standalone="no"?>
<svg xmlns:xlink="http://www.w3.org/1999/xlink" height="60.2px" width="27.7px" xmlns="http://www.w3.org/2000/svg">
  <g transform="matrix(1.0, 0.0, 0.0, 1.0, 1.5, -9.65)">
    <path d="M23.65 20.7 Q23.85 20.75 23.85 21.4 23.85 22.55 23.5 21.75 L22.65 21.45 22.2 21.0 Q22.4 20.4 23.3 20.55 L23.65 20.7 M20.7 13.25 L18.6 12.1 Q17.2 11.15 16.95 10.65 18.9 10.95 20.55 12.6 L20.7 13.25 M9.3 16.3 Q9.65 16.3 11.4 17.15 L13.95 18.5 14.15 18.9 Q10.1 17.4 9.2 16.55 L9.3 16.3 M12.15 21.35 L12.05 20.7 14.0 20.75 Q15.55 21.0 17.1 21.65 L17.2 22.05 Q17.15 22.5 16.0 22.5 L14.1 22.1 12.15 21.35 M19.0 28.85 L21.0 29.0 21.15 29.4 20.45 29.7 16.95 29.25 17.25 28.9 17.4 28.8 19.0 28.85 M10.85 34.65 L14.4 35.55 14.45 35.85 10.65 35.0 10.75 34.75 10.85 34.65 M3.65 36.9 Q5.2 37.4 5.85 38.25 L5.7 38.6 4.8 38.1 3.6 37.05 3.65 36.9 M6.9 33.25 L5.6 32.15 5.7 31.25 Q6.95 31.45 7.85 32.7 8.45 33.4 8.65 34.1 7.95 33.95 6.9 33.25 M9.65 39.35 L11.5 41.35 Q13.05 42.95 15.0 43.95 L14.9 44.25 Q12.95 44.1 10.95 42.2 9.15 40.55 9.1 39.6 9.3 39.35 9.65 39.35 M4.85 44.8 L10.4 52.3 12.2 50.35 10.35 48.45 10.4 47.35 11.05 47.25 Q11.15 48.05 12.8 49.75 L14.9 47.85 13.25 50.2 14.05 50.95 16.35 53.0 17.1 52.25 16.55 53.2 18.05 54.45 18.05 54.75 16.25 53.7 14.25 56.6 18.15 60.05 18.95 59.85 19.25 60.1 18.8 60.75 Q18.35 61.1 18.0 61.1 L17.55 60.75 17.85 60.25 Q15.8 58.95 13.85 57.2 L13.05 58.25 11.0 60.95 Q13.25 63.0 15.85 64.7 L15.85 64.8 Q13.45 65.4 10.05 62.15 L8.65 63.9 8.35 63.7 Q8.45 62.75 9.25 61.35 L6.7 58.45 4.95 61.0 4.1 60.75 6.15 57.75 5.55 56.95 Q-0.5 48.8 -0.5 45.6 L-0.45 44.15 0.0 44.1 Q2.65 51.3 6.95 56.65 8.45 54.6 9.9 52.9 7.6 50.0 4.5 44.9 L4.85 44.8 M19.6 37.95 Q19.05 37.7 19.05 37.15 L20.15 37.4 19.6 37.95 M13.6 46.15 L13.7 46.45 Q11.3 45.15 11.05 44.8 13.15 45.45 13.6 46.15 M22.25 45.15 Q22.8 45.25 22.85 45.45 L22.65 45.7 Q21.6 45.6 21.45 45.25 L21.75 45.05 22.25 45.15 M22.05 48.85 Q22.8 49.75 24.15 53.35 L24.15 53.45 Q22.9 52.95 22.0 51.55 21.1 50.2 21.25 49.05 L22.05 48.85 M24.6 57.05 L23.5 56.3 23.65 55.8 Q24.1 55.6 25.2 56.6 L24.6 57.05 M21.75 65.35 L20.45 63.8 20.7 63.15 21.7 64.15 22.2 64.8 21.75 65.35 M12.75 50.85 L11.0 53.05 13.5 55.85 15.9 53.4 13.6 51.55 12.75 50.85 M13.0 56.35 L10.5 53.65 9.85 54.4 7.5 57.35 10.05 60.05 11.9 57.6 13.0 56.35 M0.7 59.05 L1.8 59.25 1.7 59.55 -0.3 59.55 -0.15 59.2 0.0 59.0 0.7 59.05 M7.05 62.1 L7.3 62.25 7.35 63.05 7.25 64.05 6.5 64.05 6.6 62.1 7.05 62.1 M3.95 65.35 L5.15 65.45 4.75 65.9 Q4.1 65.7 3.95 65.35 M18.8 67.4 L18.5 67.4 18.45 66.2 18.8 66.15 19.0 66.8 18.8 67.4 M13.5 66.75 L13.85 66.6 Q14.15 66.6 14.15 67.3 L14.05 68.0 13.95 68.3 Q13.7 68.3 13.7 68.85 L13.15 68.75 13.05 67.55 Q13.05 66.85 13.3 66.75 L13.5 66.75" fill="#660000" fill-opacity="0.42352942" fill-rule="evenodd" stroke="none"/>
  </g>
</svg>