<?xml version="1.0" encoding="UTF-8" standalone="no"?>
<svg xmlns:xlink="http://www.w3.org/1999/xlink" height="57.35px" width="24.7px" xmlns="http://www.w3.org/2000/svg">
  <g transform="matrix(1.0, 0.0, 0.0, 1.0, 0.85, -14.3)">
    <path d="M12.8 15.85 L12.4 16.1 Q11.75 16.0 11.75 15.45 12.05 15.15 12.7 15.45 L12.8 15.85 M13.5 22.2 L12.6 22.75 11.8 22.85 Q11.6 22.85 11.6 22.15 11.6 21.45 11.95 21.45 L12.6 21.65 13.5 22.2 M19.25 24.6 L19.4 25.5 20.0 25.7 19.5 26.3 19.6 29.7 19.35 36.0 Q18.7 33.85 18.7 29.6 L18.75 26.7 18.7 26.7 Q17.25 26.5 17.1 25.9 L16.95 25.05 18.8 25.3 18.8 24.6 19.25 24.6 M12.4 29.75 L11.95 30.4 Q10.5 30.4 10.4 30.05 L11.85 29.6 Q12.25 29.5 12.4 29.75 M3.2 35.85 L3.2 36.0 0.15 34.55 0.35 34.2 Q1.2 34.5 3.2 35.85 M5.7 40.35 Q6.65 44.55 9.05 49.4 L10.6 46.75 Q14.1 41.3 18.8 36.9 L11.9 47.05 Q10.6 48.9 9.65 50.6 L11.5 53.95 12.2 55.0 12.2 55.1 Q13.9 57.8 15.85 60.3 L15.85 60.55 Q13.8 58.7 12.15 56.65 12.05 59.8 12.2 61.9 12.55 66.65 13.95 70.25 13.7 70.65 13.15 70.65 12.8 67.15 11.95 64.7 11.3 62.85 11.3 60.4 L11.45 55.8 8.85 51.95 Q7.25 54.9 6.75 57.15 L6.3 57.25 Q6.6 54.4 8.3 50.9 L8.25 50.8 Q5.55 45.6 5.3 40.5 L5.7 40.35 M5.7 38.8 Q5.95 38.5 6.5 38.8 L7.2 39.35 7.2 39.45 5.85 39.6 5.7 38.8 M9.7 39.55 Q10.0 39.1 10.85 39.25 L10.8 39.9 10.45 40.1 10.0 40.5 9.55 40.25 9.7 39.55 M3.65 48.6 L2.1 47.75 Q1.05 47.15 0.35 46.25 L0.6 45.9 Q1.95 46.55 3.6 48.2 L3.65 48.6 M20.65 58.75 L20.0 58.5 Q20.2 58.2 20.45 58.2 L21.35 58.5 20.65 58.75 M22.85 52.9 L22.55 53.2 20.45 52.8 20.35 51.8 21.35 51.85 Q22.25 52.1 22.65 52.55 L22.85 52.9 M9.2 64.9 L9.65 64.8 11.3 65.9 9.65 66.2 9.25 66.1 Q9.1 66.05 9.1 65.4 L9.15 64.7 9.2 64.9 M8.0 65.8 L7.45 65.7 7.45 63.5 7.9 63.5 Q8.2 64.5 8.0 65.8" fill="#a61515" fill-rule="evenodd" stroke="none"/>
  </g>
</svg>