<?xml version="1.0" encoding="UTF-8" standalone="no"?>
<svg xmlns:xlink="http://www.w3.org/1999/xlink" height="35.4px" width="32.65px" xmlns="http://www.w3.org/2000/svg">
  <g transform="matrix(1.0, 0.0, 0.0, 1.0, 1, 0.95)">
    <path d="M30.1 1.1 L25.75 1.45 24.9 1.55 21.35 1.8 19.05 2.05 17.25 2.35 15.45 2.8 Q13.95 3.25 12.7 3.95 L10.6 5.45 10.55 5.5 10.5 5.5 Q8.85 6.9 7.9 8.95 7.05 10.65 6.65 12.75 L6.55 13.3 5.05 16.15 3.2 19.45 2.65 20.3 2.65 20.35 2.45 20.75 Q1.25 22.8 1.05 24.7 L1.0 25.45 Q1.0 26.15 1.15 26.85 1.4 28.3 2.35 29.5 4.5 32.35 9.55 32.35 L11.15 32.25 Q13.0 31.9 14.35 30.8 L15.55 29.5 16.05 28.8 16.05 28.75 16.3 28.3 16.5 27.9 Q17.55 25.7 17.55 23.6 17.55 21.65 15.4 19.2 L14.95 18.65 Q13.85 17.3 13.5 16.3 13.8 15.0 14.15 14.55 L14.4 14.25 Q14.7 13.95 16.5 13.2 18.25 12.35 21.55 11.65 L24.85 11.2 23.7 13.4 21.75 13.05 19.05 13.25 Q16.1 14.15 15.2 15.0 L14.55 15.95 15.55 17.5 16.45 18.7 Q18.6 21.35 18.6 23.6 18.6 26.3 17.25 28.9 L17.15 29.05 16.5 30.15 14.7 31.95 Q12.6 33.45 9.55 33.45 3.4 33.45 1.1 29.9 0.25 28.55 0.05 26.7 L0.0 25.55 Q0.0 22.55 1.6 19.6 L3.8 15.75 Q5.45 12.8 5.5 12.25 5.75 10.2 7.05 7.9 L7.4 7.25 Q8.8 4.95 11.25 3.6 13.2 2.45 17.15 1.75 L20.6 1.2 22.9 0.85 25.05 0.6 30.65 0.05 30.1 1.1" fill="#a36a6a" fill-rule="evenodd" stroke="none"/>
    <path d="M24.9 1.55 L25.75 1.45 30.1 1.1 24.85 11.2 21.55 11.65 Q18.25 12.35 16.5 13.2 14.7 13.95 14.4 14.25 L14.15 14.55 Q13.8 15.0 13.5 16.3 13.85 17.3 14.95 18.65 L15.4 19.2 Q17.55 21.65 17.55 23.6 17.55 25.7 16.5 27.9 L16.75 27.25 16.75 25.45 Q14.9 26.1 13.4 27.3 L12.95 27.65 12.3 28.3 12.0 28.55 Q10.5 30.15 10.5 30.8 10.5 31.15 10.85 31.8 L11.15 32.25 9.55 32.35 Q4.5 32.35 2.35 29.5 1.4 28.3 1.15 26.85 1.0 26.15 1.0 25.45 L1.05 24.7 Q1.2 26.05 1.85 26.95 L2.55 27.6 2.5 28.4 Q2.5 29.5 2.65 29.75 3.0 30.25 4.6 30.25 5.95 30.25 5.95 29.4 L5.9 28.55 7.15 28.6 9.8 28.15 Q9.9 28.05 10.05 28.0 L11.6 26.7 11.8 26.3 12.55 24.3 12.6 24.25 13.6 23.5 14.25 22.35 Q14.25 21.5 13.75 20.9 L13.15 20.4 11.75 19.95 11.15 18.8 11.0 18.5 10.05 16.65 11.65 16.5 11.95 16.4 11.95 15.9 Q11.95 15.25 11.55 14.6 L11.55 14.55 10.95 13.8 9.95 13.0 10.15 12.55 10.6 11.65 11.85 10.15 Q12.7 9.4 14.3 8.75 L14.7 9.05 15.6 9.05 16.55 8.95 18.05 8.75 20.45 8.2 22.45 7.45 22.45 7.4 20.7 6.8 20.25 6.7 20.3 6.65 Q21.85 6.05 22.6 5.45 L22.65 5.4 Q24.45 4.05 24.9 1.55 M6.65 12.75 Q7.05 10.65 7.9 8.95 8.85 6.9 10.5 5.5 L10.55 5.5 10.6 5.45 10.65 5.45 10.65 8.75 8.4 10.85 6.65 12.75 M15.45 2.8 L17.25 2.35 19.05 2.05 21.35 1.8 Q19.95 2.65 19.45 3.4 L17.45 4.0 16.3 4.1 13.55 4.25 13.3 4.25 13.3 4.1 15.45 2.8 M14.3 8.75 L14.25 8.65 Q14.8 7.95 16.6 6.65 L17.35 6.1 17.7 6.15 19.7 6.55 20.2 6.65 20.25 6.7 19.9 6.8 17.85 7.5 17.25 7.65 14.3 8.75 M9.4 16.7 L8.45 16.8 8.25 16.45 Q7.75 15.55 7.75 14.95 L7.9 14.55 8.5 13.75 9.1 13.25 9.6 12.9 9.95 13.0 Q9.7 13.7 9.6 14.55 L9.55 14.85 9.5 15.15 9.5 15.3 9.4 16.65 9.4 16.7 M7.6 24.6 L8.0 24.15 8.35 23.65 9.4 22.55 Q9.85 22.6 10.15 23.2 10.5 23.85 10.5 24.9 L10.4 25.85 10.3 25.95 9.35 26.1 7.05 25.8 7.05 25.15 7.6 24.6 M4.4 21.2 L4.65 21.15 4.75 21.1 5.95 21.1 5.95 22.7 Q5.45 23.15 4.75 23.2 L3.3 23.2 Q3.3 22.95 3.85 22.0 L4.2 21.45 4.4 21.2 M12.55 24.3 L12.35 24.3 11.95 24.15 Q11.5 23.8 11.15 22.7 L10.45 20.55 10.65 20.25 Q10.9 19.9 11.4 19.9 L11.45 19.9 11.75 19.95 Q12.5 21.55 12.6 22.95 L12.6 23.35 12.55 24.05 12.55 24.3 M2.55 27.6 L2.55 27.05 Q2.6 26.05 2.8 25.5 L3.05 24.95 Q3.15 25.3 2.95 25.3 4.9 25.8 5.6 27.45 L5.9 28.55 Q3.85 28.4 2.8 27.8 L2.55 27.6" fill="#e0cbcb" fill-rule="evenodd" stroke="none"/>
    <path d="M16.5 27.9 L16.3 28.3 16.05 28.75 16.05 28.8 15.55 29.5 14.35 30.8 Q13.0 31.9 11.15 32.25 L10.85 31.8 Q10.5 31.15 10.5 30.8 10.5 30.15 12.0 28.55 L12.3 28.3 12.95 27.65 13.4 27.3 Q14.9 26.1 16.75 25.45 L16.75 27.25 16.5 27.9 M20.25 6.7 L20.7 6.8 22.45 7.4 22.45 7.45 20.45 8.2 18.05 8.75 16.55 8.95 15.6 9.05 14.7 9.05 14.3 8.75 17.25 7.65 17.85 7.5 19.9 6.8 20.25 6.7 M9.95 13.0 L10.95 13.8 11.55 14.55 11.55 14.6 Q11.95 15.25 11.95 15.9 L11.95 16.4 11.65 16.5 10.05 16.65 9.4 16.7 9.4 16.65 9.5 15.3 9.5 15.15 9.55 14.85 9.6 14.55 Q9.7 13.7 9.95 13.0 M11.75 19.95 L13.15 20.4 13.75 20.9 Q14.25 21.5 14.25 22.35 L13.6 23.5 12.6 24.25 12.55 24.3 12.55 24.05 12.6 23.35 12.6 22.95 Q12.5 21.55 11.75 19.95 M5.9 28.55 L5.95 29.4 Q5.95 30.25 4.6 30.25 3.0 30.25 2.65 29.75 2.5 29.5 2.5 28.4 L2.55 27.6 2.8 27.8 Q3.85 28.4 5.9 28.55" fill="#cca9a9" fill-rule="evenodd" stroke="none"/>
    <path d="M1.05 24.7 Q1.25 22.8 2.45 20.75 L2.65 20.35 2.65 20.3 3.2 19.45 5.05 16.15 6.55 13.3 6.65 12.75 8.4 10.85 10.65 8.75 10.65 5.45 10.6 5.45 12.7 3.95 Q13.95 3.25 15.45 2.8 L13.3 4.1 13.3 4.25 13.55 4.25 16.3 4.1 17.45 4.0 19.45 3.4 Q19.95 2.65 21.35 1.8 L24.9 1.55 Q24.45 4.05 22.65 5.4 L22.6 5.45 Q21.85 6.05 20.3 6.65 L20.25 6.7 20.2 6.65 19.7 6.55 17.7 6.15 17.35 6.1 16.6 6.65 Q14.8 7.95 14.25 8.65 L14.3 8.75 Q12.7 9.4 11.85 10.15 L10.6 11.65 10.15 12.55 9.95 13.0 9.6 12.9 9.1 13.25 8.5 13.75 7.9 14.55 7.75 14.95 Q7.75 15.55 8.25 16.45 L8.45 16.8 9.4 16.7 10.05 16.65 11.0 18.5 11.15 18.8 11.75 19.95 11.45 19.9 11.4 19.9 Q10.9 19.9 10.65 20.25 L10.45 20.55 11.15 22.7 Q11.5 23.8 11.95 24.15 L12.35 24.3 12.55 24.3 11.8 26.3 11.6 26.7 10.05 28.0 Q9.9 28.05 9.8 28.15 L7.15 28.6 5.9 28.55 5.6 27.45 Q4.9 25.8 2.95 25.3 3.15 25.3 3.05 24.95 L2.8 25.5 Q2.6 26.05 2.55 27.05 L2.55 27.6 1.85 26.95 Q1.2 26.05 1.05 24.7 M4.4 21.2 L4.2 21.45 3.85 22.0 Q3.3 22.95 3.3 23.2 L4.75 23.2 Q5.45 23.15 5.95 22.7 L5.95 21.1 4.75 21.1 4.65 21.15 4.4 21.2 M7.6 24.6 L7.05 25.15 7.05 25.8 9.35 26.1 10.3 25.95 10.4 25.85 10.5 24.9 Q10.5 23.85 10.15 23.2 9.85 22.6 9.4 22.55 L8.35 23.65 8.0 24.15 7.6 24.6" fill="url(#gradient0)" fill-rule="evenodd" stroke="none"/>
  </g>
  <defs>
    <radialGradient cx="0" cy="0" gradientTransform="matrix(0.0339, -0.0105, 0.0026, 0.0121, -10.65, 6.95)" gradientUnits="userSpaceOnUse" id="gradient0" r="819.2" spreadMethod="pad">
      <stop offset="0.47843137254901963" stop-color="#ffffff"></stop>
      <stop offset="0.8823529411764706" stop-color="#f2eaea"></stop>
    </radialGradient>
  </defs>
</svg>