<?xml version="1.0" encoding="UTF-8" standalone="no"?>
<svg xmlns:xlink="http://www.w3.org/1999/xlink" height="21.25px" width="25.15px" xmlns="http://www.w3.org/2000/svg">
  <g transform="matrix(1.0, 0.0, 0.0, 1.0, 0.75, 0.25)">
    <path d="M22.3 0.9 L22.65 0.75 23.1 2.35 23.4 4.25 23.25 5.25 Q22.8 4.9 22.5 3.15 L22.25 1.45 22.3 0.9 M21.1 10.25 Q17.5 2.9 17.5 1.65 L17.55 1.1 Q19.1 2.4 20.2 5.15 21.2 7.65 21.3 10.05 L21.1 10.25 M14.15 5.25 L11.65 7.25 15.85 11.0 15.65 11.25 10.95 7.8 5.8 12.1 5.75 12.0 9.25 8.5 10.45 7.45 Q8.5 6.05 6.85 5.7 9.25 5.35 11.15 6.85 12.7 5.65 14.0 5.05 L14.15 5.25 M2.85 19.0 L0.25 17.55 Q1.25 17.5 3.05 18.25 5.0 19.05 5.55 20.0 4.65 19.95 2.85 19.0" fill="#a61515" fill-rule="evenodd" stroke="none"/>
  </g>
</svg>