<?xml version="1.0" encoding="UTF-8" standalone="no"?>
<svg xmlns:xlink="http://www.w3.org/1999/xlink" height="38.15px" width="18.8px" xmlns="http://www.w3.org/2000/svg">
  <g transform="matrix(1.0, 0.0, 0.0, 1.0, -5.55, -1.5)">
    <path d="M10.45 5.8 L9.55 6.5 8.35 8.1 8.05 7.95 8.0 7.35 Q8.0 6.55 10.05 5.25 8.55 3.5 7.15 2.5 9.05 3.0 10.85 4.8 12.55 3.9 14.0 4.25 L16.0 6.05 15.75 6.3 13.85 4.9 12.25 4.9 11.3 5.3 11.5 5.55 Q13.0 7.35 14.0 9.5 L13.65 9.8 10.75 6.15 10.45 5.8 M9.0 16.85 L10.0 16.25 Q10.75 16.1 12.05 16.25 L12.65 16.75 11.45 17.0 9.8 17.1 9.0 16.85 M14.35 31.9 L16.4 31.9 16.75 32.3 Q13.85 32.9 11.85 34.0 13.4 36.1 16.4 38.5 L16.4 38.65 Q14.75 38.5 12.25 35.45 L11.35 34.3 Q10.7 34.7 10.15 35.15 L6.85 38.25 6.55 38.25 9.4 34.85 10.9 33.65 Q9.9 32.15 9.9 31.4 L10.05 29.1 10.25 29.1 Q10.0 31.05 11.4 33.3 12.8 32.4 14.35 31.9 M23.1 36.4 L22.8 36.4 22.75 34.15 Q22.7 32.6 22.1 31.9 23.0 31.95 23.25 32.6 L23.35 33.85 23.1 36.4" fill="#a61515" fill-rule="evenodd" stroke="none"/>
  </g>
</svg>