<?xml version="1.0" encoding="UTF-8" standalone="no"?>
<svg xmlns:xlink="http://www.w3.org/1999/xlink" height="11.15px" width="11.8px" xmlns="http://www.w3.org/2000/svg">
  <g transform="matrix(1.0, 0.0, 0.0, 1.0, -1.35, -23.35)">
    <path d="M12.05 32.5 L9.8 31.15 9.0 30.7 Q11.1 31.35 12.15 32.3 L12.05 32.5 M7.15 30.3 L6.0 30.35 Q5.45 32.0 5.65 33.25 L5.35 33.5 Q4.9 33.15 4.9 32.35 4.9 31.5 5.3 30.4 L3.95 30.7 2.35 31.1 Q3.4 30.05 5.4 30.1 5.7 29.05 6.35 27.85 7.9 24.8 9.35 24.35 6.9 27.65 6.1 30.1 L7.4 30.3 7.15 30.3" fill="#a61515" fill-rule="evenodd" stroke="none"/>
  </g>
</svg>