<?xml version="1.0" encoding="UTF-8" standalone="no"?>
<svg xmlns:xlink="http://www.w3.org/1999/xlink" height="15.7px" width="21.1px" xmlns="http://www.w3.org/2000/svg">
  <g transform="matrix(1.0, 0.0, 0.0, 1.0, -0.15, -2.95)">
    <path d="M20.25 10.85 L17.05 7.35 16.45 6.75 Q12.25 10.8 9.15 12.35 L13.4 8.05 15.6 6.05 12.5 4.0 Q14.3 3.6 16.3 5.5 L18.55 4.0 18.7 3.95 18.8 4.35 17.0 6.2 17.15 6.35 Q17.8 7.1 20.25 10.8 L20.25 10.85 M8.0 14.8 Q7.45 15.4 5.8 16.25 L2.4 17.65 2.35 17.4 Q2.8 17.3 5.2 15.8 7.2 14.55 8.0 14.8 M3.9 13.25 L3.25 13.4 2.0 13.25 1.15 12.9 2.5 12.85 3.85 13.1 3.9 13.25" fill="#a61515" fill-rule="evenodd" stroke="none"/>
  </g>
</svg>