<?xml version="1.0" encoding="UTF-8" standalone="no"?>
<svg xmlns:xlink="http://www.w3.org/1999/xlink" height="44.3px" width="43.2px" xmlns="http://www.w3.org/2000/svg">
  <g transform="matrix(1.0, 0.0, 0.0, 1.0, -11.05, -6.95)">
    <path d="M42.25 17.3 Q40.7 17.3 40.05 18.3 L39.5 20.05 39.1 20.0 39.1 18.75 Q39.55 15.55 42.6 16.05 45.65 16.55 45.65 18.55 45.65 19.45 44.9 20.8 L44.15 22.15 44.55 23.1 44.9 24.3 Q44.9 25.3 43.65 26.75 42.75 27.8 41.75 28.25 44.25 29.35 45.95 31.0 47.95 33.0 48.4 35.3 52.25 33.55 52.25 32.05 52.25 29.4 51.45 27.05 50.6 24.7 50.6 22.3 50.6 20.15 51.0 18.5 L51.35 15.2 Q51.4 13.65 50.8 12.25 49.65 9.4 46.5 9.4 42.65 9.4 40.0 11.75 37.35 14.05 37.35 17.25 37.35 18.1 37.85 18.55 L37.65 19.1 36.95 19.25 36.35 19.15 36.25 19.05 36.25 16.25 Q41.0 6.7 47.0 8.15 49.35 8.75 50.95 10.85 52.5 12.95 52.5 15.25 52.5 17.25 52.15 18.9 51.75 20.5 51.75 22.25 51.75 24.15 52.5 26.65 53.25 29.15 53.25 30.4 53.25 33.65 48.5 36.1 L48.5 36.55 Q48.5 42.1 46.9 44.85 43.7 50.25 34.3 50.25 29.55 50.25 26.45 45.8 L22.15 45.75 Q16.4 45.75 15.5 42.0 15.65 37.8 15.35 36.9 L13.55 32.6 Q12.05 29.0 12.05 27.65 12.05 23.95 15.1 21.9 18.5 19.55 19.1 16.9 L19.3 16.9 Q19.35 14.2 21.65 12.0 23.8 9.9 26.8 9.25 29.9 8.55 31.95 9.9 34.3 11.35 34.3 14.95 L34.0 18.25 Q33.3 18.25 32.85 17.65 33.25 16.75 33.25 14.8 33.25 12.7 33.05 12.25 32.05 10.25 28.0 10.25 23.45 10.25 21.5 13.6 20.55 15.3 20.5 17.0 L20.9 18.6 21.25 19.85 20.75 24.05 Q20.75 25.4 21.5 26.65 22.75 28.75 25.5 28.75 L26.35 28.75 Q27.45 27.65 28.75 27.65 L29.5 27.75 29.6 27.95 29.65 28.1 30.1 27.9 31.85 27.0 32.05 27.1 32.1 27.5 29.55 28.95 29.5 29.0 29.3 29.3 29.05 29.15 28.45 29.3 Q26.2 31.3 25.25 33.1 24.25 34.9 24.25 37.15 24.25 39.5 26.45 43.5 L27.35 44.9 29.05 44.85 Q31.9 44.85 35.45 41.9 39.0 39.0 39.0 36.9 39.0 35.45 37.65 32.4 36.3 29.45 35.1 28.1 L35.1 27.75 35.5 27.5 Q38.0 27.8 39.25 31.7 39.9 33.7 40.05 35.75 L40.5 36.2 41.45 37.15 Q43.9 37.15 47.25 35.8 46.95 33.65 45.1 31.8 43.05 29.75 39.25 28.45 L38.15 28.15 37.75 27.6 37.75 27.0 40.25 27.25 Q41.7 27.25 42.9 25.75 L43.8 24.25 43.4 23.3 43.0 22.15 43.8 20.25 44.55 18.75 Q44.55 18.25 44.0 17.8 43.3 17.3 42.25 17.3 M47.3 36.7 Q43.75 38.25 41.75 38.25 40.7 38.25 39.95 37.4 39.05 39.45 37.5 41.45 34.0 45.85 29.5 45.85 L28.05 45.85 Q30.7 49.0 34.3 49.0 43.65 49.0 46.35 43.55 47.3 41.6 47.3 36.7 M16.65 22.15 Q13.05 24.6 13.05 27.8 13.05 28.9 15.85 36.75 16.1 37.45 16.35 41.45 17.05 45.05 19.95 45.05 L25.9 44.95 25.35 44.0 Q23.1 39.75 23.1 37.15 23.1 35.3 24.35 32.1 24.95 30.5 25.7 29.5 21.55 28.95 20.0 23.3 L19.6 19.7 16.65 22.15" fill="#ffffff" fill-rule="evenodd" stroke="none"/>
  </g>
</svg>