<?xml version="1.0" encoding="UTF-8" standalone="no"?>
<svg xmlns:xlink="http://www.w3.org/1999/xlink" height="54.05px" width="47.25px" xmlns="http://www.w3.org/2000/svg">
  <g transform="matrix(1.0, 0.0, 0.0, 1.0, -6.5, -4.2)">
    <path d="M42.6 6.4 Q36.1 6.4 33.8 11.1 32.65 13.45 32.8 16.05 L32.85 16.5 Q32.95 16.95 33.3 17.05 L33.0 18.25 31.75 18.35 31.65 16.3 Q31.65 11.45 34.2 8.4 36.45 5.75 39.85 5.25 43.1 4.85 45.45 6.7 48.0 8.7 48.0 12.5 L47.85 13.25 Q48.4 13.4 48.9 13.7 52.75 15.8 52.75 19.75 52.75 22.9 50.55 25.1 47.9 27.7 46.85 31.95 47.05 32.8 47.5 33.25 49.55 34.65 51.2 37.45 52.75 40.05 52.75 41.5 52.75 47.4 45.5 52.7 39.25 57.25 35.0 57.25 29.2 57.25 27.55 56.0 25.95 54.85 23.35 48.75 L22.4 47.25 Q23.35 47.85 23.85 48.9 L25.45 53.15 Q27.35 56.65 30.3 56.65 41.65 56.65 47.65 49.65 51.6 45.1 51.6 41.5 51.6 38.15 48.6 35.6 46.55 33.85 45.9 32.35 L45.85 32.35 Q45.65 32.25 45.65 31.65 L45.65 31.6 45.6 31.0 Q45.6 29.45 45.0 28.8 43.5 27.3 38.75 27.05 L39.5 28.1 Q40.4 29.75 40.4 30.75 40.4 35.75 40.0 37.15 38.5 42.6 32.75 42.6 31.65 42.6 26.95 40.8 22.0 38.85 20.5 37.6 20.1 37.3 19.7 35.55 16.3 35.2 13.75 33.9 14.15 34.7 14.15 35.3 L13.55 37.75 Q12.9 40.15 12.9 41.05 12.9 45.9 17.5 46.35 L18.5 46.45 Q15.05 47.1 13.75 45.55 11.95 43.55 11.8 43.05 L11.75 41.0 Q11.75 39.65 12.4 37.35 L13.0 35.25 Q13.0 34.45 11.4 32.5 L10.45 31.35 9.8 30.55 Q7.5 27.55 7.5 24.65 7.5 19.2 10.6 15.3 13.4 11.75 17.7 10.55 21.95 9.4 25.55 11.05 29.4 12.85 30.8 17.35 L30.8 18.75 30.5 18.85 29.4 18.85 Q29.0 18.75 29.0 18.1 29.0 17.8 29.35 17.85 L29.65 17.6 Q29.65 16.5 28.45 14.4 26.75 11.5 24.15 11.5 16.0 11.5 12.25 14.75 8.6 17.9 8.6 24.65 8.6 27.05 10.1 29.3 L10.3 29.15 12.6 32.1 Q15.3 34.2 19.5 34.7 L19.4 34.3 Q18.85 31.8 18.85 31.25 18.85 29.1 19.35 27.4 20.25 24.1 22.65 24.1 24.2 24.1 25.1 24.7 25.95 25.25 26.65 25.25 27.95 25.25 28.1 23.8 L27.9 23.35 27.5 23.15 28.95 23.2 Q29.3 23.6 29.3 24.15 L28.55 25.4 27.5 26.5 Q25.3 26.4 24.55 25.85 23.85 25.35 22.65 25.35 20.9 25.35 20.25 28.4 19.9 29.9 19.9 31.5 19.9 32.4 20.4 34.65 L20.45 34.8 22.15 34.85 Q28.45 34.85 30.95 29.95 31.75 28.4 32.25 26.15 L32.85 23.5 33.25 23.5 33.3 24.25 Q33.3 26.8 30.9 30.5 27.55 35.65 22.05 35.65 L20.65 35.6 Q21.05 37.35 21.5 37.65 23.0 38.8 31.3 42.1 37.7 42.1 39.1 36.6 39.55 34.85 39.45 32.75 L39.25 30.8 Q39.25 29.1 37.5 28.0 35.75 26.9 35.75 26.6 L35.75 26.3 Q35.8 25.85 36.3 25.85 37.4 25.85 38.25 26.55 44.85 26.35 46.2 28.7 46.55 27.4 48.85 25.3 51.6 22.7 51.6 19.7 51.6 18.3 50.35 16.55 49.1 14.85 47.3 14.3 L44.0 18.35 Q39.6 23.1 36.75 23.1 35.7 23.1 33.8 22.15 L33.75 21.75 33.85 21.5 34.25 21.4 35.4 21.85 36.8 22.3 Q40.15 22.3 43.8 17.4 L46.05 14.05 45.3 14.0 Q41.55 14.0 39.4 16.4 37.9 18.75 37.3 18.75 L35.85 18.5 35.75 17.85 Q35.75 17.1 36.4 16.75 L36.65 17.25 Q42.35 12.35 46.6 12.95 L46.8 12.5 Q46.8 11.3 46.0 9.35 44.75 6.4 42.6 6.4" fill="#ffffff" fill-rule="evenodd" stroke="none"/>
  </g>
</svg>