<?xml version="1.0" encoding="UTF-8" standalone="no"?>
<svg xmlns:xlink="http://www.w3.org/1999/xlink" height="39.25px" width="34.35px" xmlns="http://www.w3.org/2000/svg">
  <g transform="matrix(1.0, 0.0, 0.0, 1.0, 1, 1)">
    <path d="M24.65 16.65 L28.0 13.25 27.8 12.5 Q27.8 11.95 28.4 11.0 L29.3 9.6 28.85 8.95 Q28.85 8.35 30.45 5.6 32.0 2.9 31.85 0.4 L31.85 0.0 32.05 0.45 32.35 1.6 Q32.35 2.65 30.8 5.65 L29.2 8.85 29.75 9.45 Q29.75 10.1 28.95 11.1 28.15 12.1 28.15 12.5 L28.35 13.3 26.8 14.95 25.55 16.15 26.5 15.55 25.65 16.4 25.5 16.55 25.2 16.8 24.15 17.75 Q23.05 18.8 22.7 19.4 22.7 20.3 22.3 21.25 L22.1 21.85 22.05 21.9 22.0 22.6 22.1 22.75 21.9 23.3 21.5 24.05 Q20.2 25.3 19.35 26.65 L19.6 27.05 Q19.6 27.55 18.9 28.15 L18.4 28.75 18.15 29.55 18.15 29.6 18.5 30.05 17.9 34.4 17.85 36.55 17.9 37.0 17.75 37.05 17.7 37.05 16.8 37.25 12.95 37.2 12.3 36.9 12.25 36.9 11.95 36.8 11.8 36.5 12.05 36.35 11.85 34.2 11.85 34.15 11.7 34.35 Q10.85 35.5 10.85 36.2 L10.8 36.45 10.15 36.4 7.6 35.4 7.55 35.45 7.25 35.15 7.45 33.95 Q7.7 33.2 8.0 32.95 L7.05 32.75 7.05 32.85 6.5 34.65 5.85 36.45 5.75 36.5 5.5 36.45 5.15 36.5 Q4.35 36.5 3.15 35.9 1.65 35.15 1.15 35.0 L0.5 34.15 1.15 34.25 1.15 33.95 1.15 33.65 1.2 33.1 1.4 32.95 Q1.5 32.3 1.75 31.6 L1.6 31.6 1.35 31.3 1.0 31.4 Q0.5 31.4 0.0 29.9 0.4 29.9 0.4 29.45 L0.55 29.6 0.85 29.05 1.15 28.65 1.15 28.6 1.0 28.3 0.85 28.1 1.6 26.75 2.5 24.85 2.7 23.25 2.85 21.65 3.0 18.4 Q3.0 16.8 3.3 15.75 L3.25 18.4 3.15 21.6 3.05 23.1 2.8 24.8 2.0 26.6 1.9 26.7 1.25 28.05 1.45 28.35 1.45 28.45 1.5 28.45 1.6 28.4 1.45 28.8 1.45 28.85 0.9 29.95 1.0 30.1 1.45 30.9 1.45 31.0 1.5 30.75 1.6 30.75 1.85 31.3 1.85 31.25 1.95 31.25 2.15 32.35 2.0 32.9 2.35 33.75 2.75 34.85 2.55 35.05 3.4 35.5 3.5 35.3 3.65 35.1 Q4.15 34.9 4.3 35.45 L4.1 35.75 4.55 35.85 4.9 35.35 5.6 34.8 5.75 34.2 Q5.95 33.5 6.3 33.1 L6.35 32.95 6.5 32.7 6.45 32.7 6.4 32.6 6.5 32.5 6.65 32.45 6.85 32.1 6.95 32.1 7.0 32.2 7.0 32.4 Q8.45 32.45 8.45 32.9 L8.2 33.6 8.0 34.55 7.9 34.95 8.7 35.3 9.6 35.6 10.2 34.75 10.8 33.55 11.25 32.6 Q11.6 32.3 12.45 32.9 L12.5 33.05 12.5 33.15 12.7 34.4 12.7 35.45 13.35 35.95 14.0 36.5 16.9 36.35 16.85 36.15 16.85 35.85 16.75 35.8 16.75 35.25 16.9 35.15 16.95 34.6 16.5 34.35 16.5 33.9 16.65 33.1 17.05 32.5 16.8 31.9 16.4 30.65 16.5 29.6 17.8 29.5 17.95 29.05 18.2 28.25 18.85 26.85 18.65 26.25 19.65 24.95 20.15 24.35 20.15 24.3 20.4 23.6 20.4 23.55 20.6 23.3 20.5 23.3 20.4 23.0 Q20.4 22.5 20.95 22.6 L20.9 23.1 21.35 22.8 21.1 21.5 Q21.1 20.85 21.65 20.05 L22.45 19.15 22.6 18.85 22.5 18.8 22.5 18.1 Q22.85 17.4 23.65 16.95 L23.7 16.95 24.2 16.9 24.25 17.1 24.55 16.85 24.8 16.7 24.65 16.65 M16.1 12.0 L17.1 12.35 18.9 12.05 19.05 12.3 16.1 13.05 15.5 13.15 15.4 13.2 15.25 13.2 13.0 13.75 10.15 14.5 7.85 14.75 7.55 14.75 7.55 15.25 7.5 15.5 7.9 16.05 7.55 16.8 7.45 16.95 7.75 17.35 8.3 17.95 8.2 18.05 7.45 17.85 Q7.15 17.5 6.4 17.3 L6.3 17.3 5.8 17.35 5.3 17.2 5.1 17.05 5.15 16.95 4.9 17.0 4.65 16.95 4.8 16.7 5.0 16.55 5.2 16.8 5.2 16.85 5.25 16.6 5.45 16.55 5.1 16.3 5.2 16.2 5.15 16.2 5.15 16.05 4.65 15.8 4.45 15.85 4.0 15.65 3.4 14.6 4.1 15.05 4.7 15.5 5.15 15.8 5.0 13.8 4.85 13.0 4.7 13.0 4.65 12.75 4.55 12.85 Q4.25 12.85 3.95 12.1 L3.65 11.2 3.15 10.55 3.15 10.3 3.25 10.35 2.85 8.3 2.45 5.95 2.5 5.85 2.55 5.9 3.1 8.05 3.4 10.2 3.4 10.3 3.75 10.6 Q4.3 10.7 4.75 11.1 5.3 11.55 5.3 12.0 L5.3 12.05 5.5 12.25 5.6 12.8 5.6 16.1 5.9 16.2 6.05 16.05 Q6.5 15.7 6.95 15.65 L7.05 15.2 7.25 14.7 Q6.9 14.65 6.9 14.5 L7.1 14.25 7.4 14.1 Q7.4 13.95 7.55 13.95 L8.55 14.0 8.95 13.95 8.9 13.9 8.5 13.95 8.45 13.7 Q8.45 13.45 8.85 13.35 L10.65 13.2 10.9 13.4 10.6 13.6 13.05 13.1 Q13.1 12.7 13.9 12.3 L16.15 12.15 16.1 12.0 M15.95 11.1 L16.35 11.15 16.4 11.6 16.25 11.75 15.95 11.65 15.95 11.1 M4.4 10.5 Q3.8 10.5 3.85 10.0 4.15 9.95 4.6 10.4 L4.4 10.5 M3.45 10.45 L3.4 10.3 3.4 10.4 3.45 10.45 M9.5 12.55 L9.05 12.9 8.8 12.85 Q8.75 12.4 9.2 12.4 L9.45 12.45 9.5 12.55 M8.55 17.05 L8.9 17.0 14.15 17.25 14.75 17.2 15.0 17.2 15.4 17.3 15.95 17.3 16.2 17.35 Q16.65 17.35 17.7 16.4 L18.95 15.25 19.05 15.3 19.1 15.5 16.6 17.75 16.05 18.15 15.15 18.35 Q13.75 18.35 13.75 17.85 L13.75 17.7 13.25 17.65 12.1 17.6 12.7 18.05 12.6 18.25 12.3 18.35 11.8 18.15 11.65 18.0 11.8 17.6 10.85 17.55 8.55 17.15 8.55 17.05 M17.15 18.2 L17.35 17.95 17.85 17.95 17.9 18.1 17.85 18.35 17.45 18.45 17.2 18.4 17.15 18.2 M18.25 25.9 Q18.2 26.2 17.55 26.3 17.45 26.45 17.45 26.2 17.45 25.45 18.2 25.45 L18.25 25.9 M15.15 35.05 Q15.75 35.05 16.0 35.45 L15.6 35.55 15.15 35.65 Q14.55 35.65 14.55 35.35 14.55 35.05 15.15 35.05 M13.3 34.85 L13.35 34.7 13.75 34.75 13.8 34.95 13.65 35.0 13.3 34.85 M5.05 33.2 L5.3 33.55 5.15 33.75 4.85 33.5 5.05 33.2 M4.2 33.95 L4.0 34.75 Q3.5 34.5 3.5 33.9 3.5 33.6 4.15 33.65 L4.2 33.95 M8.0 32.95 L8.05 33.0 8.05 32.95 8.0 32.95" fill="#ffda2c" fill-rule="evenodd" stroke="none"/>
    <path d="M2.0 26.6 L4.1 24.9 Q5.75 23.45 6.45 23.45 L7.6 24.1 Q8.75 24.7 9.85 24.7 10.45 24.7 12.65 22.9 L15.0 21.05 17.35 21.8 18.05 20.75 Q18.85 19.3 20.85 17.95 22.35 16.95 24.6 16.65 L24.65 16.65 24.8 16.7 24.55 16.85 24.25 17.1 24.2 16.9 23.7 16.95 23.65 16.95 Q22.85 17.4 22.5 18.1 L22.5 18.8 22.6 18.85 22.45 19.15 21.65 20.05 Q21.1 20.85 21.1 21.5 L21.35 22.8 20.9 23.1 20.95 22.6 Q20.4 22.5 20.4 23.0 L20.5 23.3 20.6 23.3 20.4 23.55 20.4 23.6 20.15 24.3 20.15 24.35 19.65 24.95 18.65 26.25 18.85 26.85 18.2 28.25 17.95 29.05 17.8 29.5 16.5 29.6 16.4 30.65 16.8 31.9 17.05 32.5 16.65 33.1 16.5 33.9 16.5 34.35 16.95 34.6 16.9 35.15 16.75 35.25 16.75 35.8 16.85 35.85 16.85 36.15 16.9 36.35 14.0 36.5 13.35 35.95 12.7 35.45 12.7 34.4 12.5 33.15 12.5 33.05 12.45 32.9 Q11.6 32.3 11.25 32.6 L10.8 33.55 10.2 34.75 9.6 35.6 8.7 35.3 7.9 34.95 8.0 34.55 8.2 33.6 8.45 32.9 Q8.45 32.45 7.0 32.4 L7.0 32.2 6.95 32.1 6.85 32.1 6.65 32.45 6.5 32.5 6.4 32.6 6.45 32.7 6.5 32.7 6.35 32.95 6.3 33.1 Q5.95 33.5 5.75 34.2 L5.6 34.8 4.9 35.35 4.55 35.85 4.1 35.75 4.3 35.45 Q4.15 34.9 3.65 35.1 L3.5 35.3 3.4 35.5 2.55 35.05 2.75 34.85 2.35 33.75 2.0 32.9 2.15 32.35 1.95 31.25 1.85 31.25 1.85 31.3 1.6 30.75 1.5 30.75 1.45 31.0 1.45 30.9 1.0 30.1 0.9 29.95 1.45 28.85 1.45 28.8 1.6 28.4 1.5 28.45 1.45 28.45 1.45 28.35 1.25 28.05 1.9 26.7 2.0 26.6 M4.2 33.95 L4.15 33.65 Q3.5 33.6 3.5 33.9 3.5 34.5 4.0 34.75 L4.2 33.95 M5.05 33.2 L4.85 33.5 5.15 33.75 5.3 33.55 5.05 33.2 M13.3 34.85 L13.65 35.0 13.8 34.95 13.75 34.75 13.35 34.7 13.3 34.85 M15.15 35.05 Q14.55 35.05 14.55 35.35 14.55 35.65 15.15 35.65 L15.6 35.55 16.0 35.45 Q15.75 35.05 15.15 35.05 M18.25 25.9 L18.2 25.45 Q17.45 25.45 17.45 26.2 17.45 26.45 17.55 26.3 18.2 26.2 18.25 25.9" fill="url(#gradient0)" fill-rule="evenodd" stroke="none"/>
  </g>
  <defs>
    <linearGradient gradientTransform="matrix(-0.0018, -0.0067, 0.0157, -0.0042, 14.15, 28.4)" gradientUnits="userSpaceOnUse" id="gradient0" spreadMethod="pad" x1="-819.2" x2="819.2">
      <stop offset="0.0" stop-color="#ffda2c" stop-opacity="0.5254902"></stop>
      <stop offset="1.0" stop-color="#ffda2c" stop-opacity="0.0"></stop>
    </linearGradient>
  </defs>
</svg>