<?xml version="1.0" encoding="UTF-8" standalone="no"?>
<svg xmlns:xlink="http://www.w3.org/1999/xlink" height="32.65px" width="103.75px" xmlns="http://www.w3.org/2000/svg">
  <g transform="matrix(1.0, 0.0, 0.0, 1.0, 1, 1)">
    <path d="M101.75 0.55 L97.6 0.05 Q99.7 -0.15 101.75 0.55 M88.3 24.35 L97.85 24.35 82.9 27.55 88.85 28.95 89.55 28.95 88.3 30.05 87.75 30.65 Q81.5 27.75 77.5 28.15 L51.45 27.45 17.4 23.85 14.9 23.5 14.75 23.5 14.65 23.5 Q11.4 22.95 2.45 20.3 L0.0 18.95 Q18.1 14.05 27.4 12.2 L47.55 8.5 50.55 9.1 52.1 9.4 Q39.2 11.5 25.75 15.0 11.95 18.6 12.25 19.0 L16.0 20.05 32.15 22.55 51.0 25.2 80.25 25.85 88.3 24.35" fill="#ffffff" fill-rule="evenodd" stroke="none"/>
  </g>
</svg>