<?xml version="1.0" encoding="UTF-8" standalone="no"?>
<svg xmlns:xlink="http://www.w3.org/1999/xlink" height="8.65px" width="6.15px" xmlns="http://www.w3.org/2000/svg">
  <g transform="matrix(1.0, 0.0, 0.0, 1.0, 1, 1)">
    <path d="M1.15 1.6 L1.1 1.5 1.5 0.75 2.0 0.0 Q3.0 1.35 3.45 3.25 L4.15 6.45 3.0 6.55 1.9 6.3 1.8 6.2 0.8 6.0 0.75 6.05 0.05 5.45 0.0 4.8 Q0.0 4.2 0.8 2.4 L1.15 1.6 M1.65 0.9 L0.6 4.85 Q0.6 5.25 0.95 5.85 L0.95 5.9 1.5 6.05 3.15 6.35 3.95 6.35 3.3 3.3 Q2.85 1.5 2.0 0.3 L1.65 0.9" fill="#ffda2c" fill-rule="evenodd" stroke="none"/>
  </g>
</svg>