<?xml version="1.0" encoding="UTF-8" standalone="no"?>
<svg xmlns:xlink="http://www.w3.org/1999/xlink" height="13.45px" width="12.25px" xmlns="http://www.w3.org/2000/svg">
  <g transform="matrix(1.0, 0.0, 0.0, 1.0, 1, 1)">
    <path d="M0.3 2.8 L0.6 5.85 0.7 6.85 0.9 8.7 0.95 9.1 Q1.2 8.7 3.05 8.0 L4.65 7.5 7.45 6.35 7.4 4.8 8.05 5.95 9.2 7.75 9.15 6.95 9.0 6.55 8.4 5.75 7.1 3.8 7.05 3.85 7.1 4.05 6.95 4.15 5.3 5.8 4.45 6.45 Q5.0 5.15 5.05 2.2 L5.05 1.8 5.05 0.45 5.75 1.15 7.55 3.3 9.0 5.35 10.25 7.45 Q10.25 8.8 6.35 10.25 L3.65 11.15 2.45 11.45 Q1.45 11.45 0.75 9.9 L0.5 9.3 Q0.05 7.85 0.0 5.85 L0.0 5.6 0.2 3.35 0.3 2.8 M3.65 9.05 L3.9 8.8 Q4.5 8.35 5.9 7.9 L5.8 7.7 5.3 7.7 3.65 8.25 Q2.1 8.85 2.1 9.15 L2.25 9.3 Q1.6 9.7 1.6 10.3 L1.65 10.5 1.85 10.55 2.55 10.45 2.65 10.45 4.25 9.7 5.4 9.05 5.15 9.05 3.65 9.05" fill="#4a5b5c" fill-rule="evenodd" stroke="none"/>
    <path d="M5.05 0.45 L5.05 1.8 5.05 2.2 Q5.0 5.15 4.45 6.45 L5.3 5.8 6.95 4.15 7.1 4.05 7.05 3.85 7.1 3.8 8.4 5.75 9.0 6.55 9.15 6.95 9.2 7.75 8.05 5.95 7.4 4.8 7.45 6.35 4.65 7.5 3.05 8.0 Q1.2 8.7 0.95 9.1 L0.9 8.7 0.7 6.85 0.6 5.85 0.3 2.8 0.45 2.0 0.7 1.8 1.55 1.2 Q3.45 0.0 4.35 0.0 L5.05 0.45 M3.9 2.0 Q3.9 0.55 2.85 2.0 1.8 3.45 1.8 4.5 L1.85 5.1 2.5 5.75 Q3.9 4.2 3.9 2.0 M3.65 9.05 L5.15 9.05 5.4 9.05 4.25 9.7 2.65 10.45 2.55 10.45 1.85 10.55 1.65 10.5 1.6 10.3 Q1.6 9.7 2.25 9.3 L2.1 9.15 Q2.1 8.85 3.65 8.25 L5.3 7.7 5.8 7.7 5.9 7.9 Q4.5 8.35 3.9 8.8 L3.65 9.05" fill="#5d7577" fill-rule="evenodd" stroke="none"/>
    <path d="M3.9 2.0 Q3.9 4.2 2.5 5.75 L1.85 5.1 1.8 4.5 Q1.8 3.45 2.85 2.0 3.9 0.55 3.9 2.0" fill="#86a3a6" fill-rule="evenodd" stroke="none"/>
    <path d="M0.3 2.8 L0.2 3.35 0.0 5.6 0.0 5.85 Q0.05 7.85 0.5 9.3 L0.75 9.9 Q1.45 11.45 2.45 11.45 L3.65 11.15 6.35 10.25 Q10.25 8.8 10.25 7.45 L9.0 5.35 7.55 3.3 5.75 1.15 5.05 0.45 4.35 0.0 Q3.45 0.0 1.55 1.2 L0.7 1.8 0.45 2.0 0.3 2.8 Z" fill="none" stroke="#2e3738" stroke-linecap="round" stroke-linejoin="round" stroke-width="1"/>
  </g>
</svg>