<?xml version="1.0" encoding="UTF-8" standalone="no"?>
<svg xmlns:xlink="http://www.w3.org/1999/xlink" height="7.65px" width="5.65px" xmlns="http://www.w3.org/2000/svg">
  <g transform="matrix(1.0, 0.0, 0.0, 1.0, 1, 1)">
    <path d="M1.4 4.5 L0.65 3.65 0.6 3.65 Q0.0 3.15 0.0 2.55 0.0 1.5 0.4 0.95 L1.2 0.0 1.5 0.05 1.55 1.8 1.5 3.8 1.45 4.3 1.4 4.5" fill="#5d7577" fill-rule="evenodd" stroke="none"/>
    <path d="M1.5 0.05 L2.4 0.2 Q3.65 0.5 3.65 1.4 L3.1 3.55 2.95 4.05 2.5 5.65 2.1 5.65 1.4 4.5 1.45 4.3 1.5 3.8 1.55 1.8 1.5 0.05" fill="#4a5b5c" fill-rule="evenodd" stroke="none"/>
    <path d="M1.4 4.5 L0.65 3.65 0.6 3.65 Q0.0 3.15 0.0 2.55 0.0 1.5 0.4 0.95 L1.2 0.0 1.5 0.05 2.4 0.2 Q3.65 0.5 3.65 1.4 L3.1 3.55 2.95 4.05 2.5 5.65 2.1 5.65 1.4 4.5 Z" fill="none" stroke="#2e3738" stroke-linecap="round" stroke-linejoin="round" stroke-width="1"/>
  </g>
</svg>