<?xml version="1.0" encoding="UTF-8" standalone="no"?>
<svg xmlns:xlink="http://www.w3.org/1999/xlink" height="11.2px" width="6.35px" xmlns="http://www.w3.org/2000/svg">
  <g transform="matrix(1.0, 0.0, 0.0, 1.0, 1, 1)">
    <path d="M0.7 6.3 L1.1 5.3 1.15 5.55 1.25 6.45 1.7 6.5 Q2.0 6.5 3.15 3.35 L3.2 3.15 3.6 1.6 3.5 1.55 Q3.2 1.85 2.8 2.9 L2.05 4.25 2.05 3.9 2.0 3.8 2.85 1.45 3.3 0.05 Q3.55 0.15 4.0 1.6 4.45 3.15 4.35 3.8 L3.5 6.85 Q2.75 9.2 2.4 9.2 L0.7 6.3" fill="#4a5b5c" fill-rule="evenodd" stroke="none"/>
    <path d="M0.7 6.3 L0.0 4.95 0.95 2.25 1.05 2.0 1.65 0.15 1.7 0.1 1.95 0.05 2.75 0.0 3.3 0.05 2.85 1.45 2.0 3.8 2.05 3.9 2.05 4.25 2.8 2.9 Q3.2 1.85 3.5 1.55 L3.6 1.6 3.2 3.15 3.15 3.35 Q2.0 6.5 1.7 6.5 L1.25 6.45 1.15 5.55 1.1 5.3 0.7 6.3 M2.7 1.45 L2.6 1.05 2.3 0.95 1.1 2.2 1.05 2.4 0.85 3.65 0.9 4.05 1.55 3.4 2.15 2.75 Q2.7 2.1 2.7 1.45" fill="#5d7577" fill-rule="evenodd" stroke="none"/>
    <path d="M2.7 1.45 Q2.7 2.1 2.15 2.75 L1.55 3.4 0.9 4.05 0.85 3.65 1.05 2.4 1.1 2.2 2.3 0.95 2.6 1.05 2.7 1.45" fill="#86a3a6" fill-rule="evenodd" stroke="none"/>
    <path d="M3.3 0.05 L2.75 0.0 1.95 0.05 1.7 0.1 1.65 0.15 1.05 2.0 0.95 2.25 0.0 4.95 0.7 6.3 2.4 9.2 Q2.75 9.2 3.5 6.85 L4.35 3.8 Q4.45 3.15 4.0 1.6 3.55 0.15 3.3 0.05 Z" fill="none" stroke="#2e3738" stroke-linecap="round" stroke-linejoin="round" stroke-width="1"/>
  </g>
</svg>