<?xml version="1.0" encoding="UTF-8" standalone="no"?>
<svg xmlns:xlink="http://www.w3.org/1999/xlink" height="8.5px" width="9.5px" xmlns="http://www.w3.org/2000/svg">
  <g transform="matrix(1.0, 0.0, 0.0, 1.0, 1, 1)">
    <path d="M3.1 1.35 L3.2 0.65 3.4 0.25 3.8 0.4 4.0 0.0 4.5 0.3 4.8 0.0 5.85 0.6 6.0 1.15 6.55 1.45 7.05 1.65 7.0 1.95 6.35 1.7 5.85 1.5 Q5.15 1.5 4.45 2.45 L4.35 2.2 4.1 1.8 5.0 1.2 5.55 0.95 5.9 1.15 6.0 1.15 5.9 1.15 5.55 0.95 5.0 1.2 4.1 1.8 3.8 1.35 3.5 1.15 3.35 1.2 3.1 1.35 M3.8 0.4 L3.5 1.15 3.8 0.4 M3.8 1.35 L4.5 0.35 4.5 0.3 4.5 0.35 3.8 1.35 M5.15 0.55 L5.0 1.2 5.15 0.55" fill="#c49161" fill-rule="evenodd" stroke="none"/>
    <path d="M7.0 1.95 L7.1 2.55 7.5 3.2 7.2 3.25 Q7.55 3.35 7.5 3.65 L6.9 4.05 6.5 4.45 6.45 4.5 5.65 4.8 4.65 5.6 3.5 5.6 Q2.45 5.8 1.3 6.3 0.1 6.8 0.0 5.9 -0.15 5.0 1.15 4.55 L2.6 3.85 2.85 2.85 3.1 1.35 3.35 1.2 3.5 1.15 3.8 1.35 4.1 1.8 4.35 2.2 4.45 2.45 Q5.15 1.5 5.85 1.5 L6.35 1.7 7.0 1.95 M7.2 3.25 L6.8 3.2 6.5 3.05 6.35 2.6 6.25 2.1 5.75 1.8 5.25 2.45 5.05 3.25 5.2 3.8 6.0 3.8 6.35 3.45 Q6.5 3.2 6.8 3.2 L7.15 3.25 7.2 3.25 M3.5 1.65 L3.8 1.35 3.5 1.65" fill="#a6764a" fill-rule="evenodd" stroke="none"/>
    <path d="M3.1 1.35 L3.2 0.65 3.4 0.25 3.8 0.4 4.0 0.0 4.5 0.3 4.8 0.0 5.85 0.6 6.0 1.15 6.55 1.45 7.05 1.65 7.0 1.95 7.1 2.55 7.5 3.2 7.2 3.25 Q7.55 3.35 7.5 3.65 L6.9 4.05 6.5 4.45 6.45 4.5 5.65 4.8 4.65 5.6 3.5 5.6 Q2.45 5.8 1.3 6.3 0.1 6.8 0.0 5.9 -0.15 5.0 1.15 4.55 L2.6 3.85 2.85 2.85 3.1 1.35 M3.35 1.2 L3.5 1.15 3.8 0.4 M6.0 1.15 L5.9 1.15 5.55 0.95 5.0 1.2 4.1 1.8 M7.2 3.25 L7.15 3.25 6.8 3.2 Q6.5 3.2 6.35 3.45 L6.0 3.8 5.2 3.8 5.05 3.25 5.25 2.45 5.75 1.8 6.25 2.1 6.35 2.6 6.5 3.05 6.8 3.2 7.2 3.25 M4.5 0.3 L4.5 0.35 3.8 1.35 3.5 1.65 M5.0 1.2 L5.15 0.55" fill="none" stroke="#855930" stroke-linecap="round" stroke-linejoin="round" stroke-width="1"/>
  </g>
</svg>