<?xml version="1.0" encoding="UTF-8" standalone="no"?>
<svg xmlns:xlink="http://www.w3.org/1999/xlink" height="14.9px" width="5.05px" xmlns="http://www.w3.org/2000/svg">
  <g transform="matrix(1.0, 0.0, 0.0, 1.0, 1, 1)">
    <path d="M0.1 1.05 L0.45 1.35 Q0.75 1.65 1.4 1.65 L1.5 1.65 2.4 1.45 2.35 2.05 2.5 3.1 2.55 3.2 Q2.0 2.7 1.5 2.7 L1.45 2.7 1.45 3.65 1.5 7.1 1.7 9.75 Q2.1 12.3 1.85 12.8 L1.75 12.9 Q0.9 13.05 0.35 12.3 L0.0 11.55 0.2 7.85 0.25 3.95 0.3 3.3 0.4 2.25 0.4 2.2 0.1 1.1 0.1 1.05" fill="#b46eaa" fill-rule="evenodd" stroke="none"/>
    <path d="M0.1 1.05 L0.15 0.9 0.7 0.35 Q1.25 0.0 1.5 0.0 1.95 -0.05 2.35 0.55 2.7 1.1 2.4 1.45 L1.5 1.65 1.4 1.65 Q0.75 1.65 0.45 1.35 L0.1 1.05 M2.55 3.2 L3.05 11.55 1.85 12.8 Q2.1 12.3 1.7 9.75 L1.5 7.1 1.45 3.65 1.45 2.7 1.5 2.7 Q2.0 2.7 2.55 3.2" fill="#e79ddd" fill-rule="evenodd" stroke="none"/>
    <path d="M2.4 1.45 Q2.7 1.1 2.35 0.55 1.95 -0.05 1.5 0.0 1.25 0.0 0.7 0.35 L0.15 0.9 0.1 1.05 0.45 1.35 Q0.75 1.65 1.4 1.65 L1.5 1.65 2.4 1.45 2.35 2.05 2.5 3.1 2.55 3.2 3.05 11.55 M0.0 11.55 L0.2 7.85 0.25 3.95 0.3 3.3 0.4 2.25 0.4 2.2 0.1 1.1 0.1 1.05" fill="none" stroke="#af63a5" stroke-linecap="round" stroke-linejoin="round" stroke-width="1"/>
  </g>
</svg>