<?xml version="1.0" encoding="UTF-8" standalone="no"?>
<svg xmlns:xlink="http://www.w3.org/1999/xlink" height="24.75px" width="15.15px" xmlns="http://www.w3.org/2000/svg">
  <g transform="matrix(1.0, 0.0, 0.0, 1.0, -9.15, 1)">
    <path d="M22.6 13.1 L22.6 13.2 22.15 13.5 Q21.5 13.5 20.8 12.5 L20.65 13.4 19.65 13.0 19.45 12.9 18.6 12.15 18.35 11.95 18.6 12.15 19.45 12.9 19.4 12.9 19.45 12.95 19.55 13.05 19.4 14.0 19.25 14.4 19.25 13.05 19.0 12.95 Q18.8 12.95 18.5 13.65 L18.05 14.7 17.95 14.7 17.8 13.9 17.55 13.6 17.5 13.6 16.95 14.1 16.4 14.7 16.2 14.7 Q16.2 13.25 16.0 12.95 15.65 12.8 14.9 13.65 L13.95 14.5 13.4 14.05 12.7 14.6 11.9 15.15 Q11.9 13.8 12.45 12.5 L12.5 12.5 12.7 12.5 Q15.4 11.4 16.5 10.5 15.4 11.4 12.7 12.5 L12.25 12.25 12.2 12.2 11.9 11.85 13.45 12.0 Q13.35 11.4 13.9 11.1 L14.65 10.8 15.15 10.05 15.85 9.45 16.25 9.9 16.5 10.5 16.5 10.4 18.55 10.65 Q21.25 11.15 22.45 12.85 L22.6 13.1 M17.75 13.25 L17.55 13.6 17.75 13.25 M18.9 15.15 L18.3 16.1 17.8 16.85 17.55 17.3 17.1 17.9 17.05 17.95 17.05 18.0 17.25 19.15 17.6 21.0 18.0 22.4 18.0 22.75 17.75 22.55 17.4 22.25 16.3 20.8 16.25 20.7 16.15 20.45 15.7 19.55 15.15 18.65 15.7 19.55 15.45 19.9 Q14.5 19.65 13.95 19.25 L12.8 18.1 Q12.2 17.35 11.95 15.95 L12.0 15.8 Q12.35 15.15 13.0 15.15 L13.5 15.35 13.9 15.9 14.0 16.0 14.15 15.7 Q14.8 14.5 15.2 14.3 L15.85 16.15 15.95 16.15 16.55 14.8 Q17.05 14.7 17.15 15.1 L17.15 15.8 17.4 15.15 17.75 15.3 17.95 15.55 18.05 15.6 18.55 14.8 18.7 14.55 18.9 15.15 M21.55 19.95 L21.85 19.4 22.2 18.55 22.45 17.3 22.5 17.0 22.55 16.15 22.55 16.05 21.45 14.7 21.4 14.65 Q20.8 13.75 20.9 13.5 21.1 13.45 21.75 13.9 22.35 14.3 22.4 14.6 L23.0 14.0 Q23.5 15.45 23.2 17.5 L22.6 20.35 22.4 20.8 21.55 22.2 21.55 19.95 M11.55 10.6 L11.8 9.75 12.1 9.3 12.25 9.15 12.7 8.75 12.7 8.7 12.8 8.7 Q13.3 8.3 13.85 8.2 L14.5 8.15 14.85 8.6 15.1 9.05 14.3 10.0 13.45 10.65 12.95 11.2 12.1 11.45 11.65 11.35 11.55 10.6 M17.05 17.95 L16.95 17.15 17.15 15.1 16.95 17.15 17.05 17.95 M14.3 16.3 L14.15 15.7 14.3 16.3 Q14.05 15.95 13.75 15.95 13.25 15.95 13.25 17.0 13.25 17.7 13.9 18.2 14.45 18.65 15.1 18.65 L15.15 18.65 14.65 17.45 14.55 17.1 14.3 16.3" fill="#e5c977" fill-rule="evenodd" stroke="none"/>
    <path d="M19.45 12.9 L19.65 13.0 20.65 13.4 20.8 12.5 Q21.5 13.5 22.15 13.5 L22.6 13.2 22.6 13.1 23.0 14.0 22.4 14.6 Q22.35 14.3 21.75 13.9 21.1 13.45 20.9 13.5 20.8 13.75 21.4 14.65 L21.35 14.6 19.55 13.05 19.45 12.95 19.4 12.9 19.45 12.9 19.45 12.95 19.45 12.9 M16.5 10.4 L16.5 10.5 16.25 9.9 15.85 9.45 15.15 10.05 14.65 10.8 13.9 11.1 Q13.35 11.4 13.45 12.0 L11.9 11.85 11.65 11.35 12.1 11.45 12.95 11.2 13.45 10.65 14.3 10.0 15.1 9.05 14.85 8.6 14.5 8.15 14.7 8.15 15.5 8.6 Q16.1 8.9 16.35 9.75 L16.5 10.25 16.5 10.4 M11.9 15.15 L12.7 14.6 13.4 14.05 13.95 14.5 14.9 13.65 Q15.65 12.8 16.0 12.95 16.2 13.25 16.2 14.7 L16.4 14.7 16.95 14.1 17.5 13.6 17.55 13.6 17.8 13.9 17.95 14.7 18.05 14.7 18.5 13.65 Q18.8 12.95 19.0 12.95 L19.25 13.05 19.25 14.4 18.9 15.15 18.7 14.55 18.55 14.8 18.05 15.6 17.95 15.55 17.75 15.3 17.4 15.15 17.15 15.8 17.15 15.1 Q17.05 14.7 16.55 14.8 L15.95 16.15 15.85 16.15 15.2 14.3 Q14.8 14.5 14.15 15.7 L14.0 16.0 13.9 15.9 13.5 15.35 13.0 15.15 Q12.35 15.15 12.0 15.8 L11.95 15.95 11.9 15.7 11.9 15.15 M17.55 13.6 L17.3 14.45 17.15 15.1 17.3 14.45 17.55 13.6 M13.95 14.5 L14.15 15.7 13.95 14.5" fill="#fff0c6" fill-rule="evenodd" stroke="none"/>
    <path d="M19.55 13.05 L21.35 14.6 21.4 14.65 21.45 14.7 22.55 16.05 22.55 16.15 22.5 17.0 22.45 17.3 22.2 18.55 21.85 19.4 21.55 19.95 Q20.3 21.4 19.2 21.25 L17.6 21.0 17.25 19.15 17.05 18.0 17.05 17.95 17.1 17.9 17.55 17.3 19.7 17.15 18.3 16.1 19.7 17.15 17.55 17.3 17.8 16.85 18.3 16.1 18.9 15.15 19.25 14.4 19.4 14.0 19.55 13.05 M19.1 20.5 Q20.05 19.95 21.55 19.95 20.05 19.95 19.1 20.5 M21.8 15.7 L21.2 17.0 22.5 17.0 21.2 17.0 21.8 15.7 M14.3 16.3 L14.55 17.1 14.65 17.45 15.15 18.65 15.1 18.65 Q14.45 18.65 13.9 18.2 13.25 17.7 13.25 17.0 13.25 15.95 13.75 15.95 14.05 15.95 14.3 16.3 M15.7 19.55 L16.15 20.45 15.45 19.9 15.7 19.55" fill="#c49161" fill-rule="evenodd" stroke="none"/>
    <path d="M10.15 4.0 L11.4 5.45 12.05 6.7 12.25 7.1 12.7 8.5 12.7 8.7 12.65 8.5 12.25 7.75 11.45 6.35 10.4 4.35 10.15 4.0 M11.85 1.85 L11.85 1.9 12.05 3.85 12.25 5.9 12.3 6.5 12.25 6.25 11.6 4.05 Q11.35 3.0 11.35 1.85 L11.35 1.6 11.65 0.0 11.85 1.85" fill="#af3636" fill-rule="evenodd" stroke="none"/>
    <path d="M22.6 13.1 L22.45 12.85 Q21.25 11.15 18.55 10.65 L16.5 10.4 16.5 10.5 Q15.4 11.4 12.7 12.5 L12.5 12.5 12.45 12.5 Q11.9 13.8 11.9 15.15 L11.9 15.7 11.95 15.95 Q12.2 17.35 12.8 18.1 L13.95 19.25 Q14.5 19.65 15.45 19.9 L15.7 19.55 16.15 20.45 16.25 20.7 16.3 20.8 17.4 22.25 17.75 22.55 18.0 22.75 18.0 22.4 17.6 21.0 M17.55 13.6 L17.75 13.25 M21.55 19.95 L21.55 22.2 22.4 20.8 22.6 20.35 23.2 17.5 Q23.5 15.45 23.0 14.0 L22.6 13.1 M11.55 10.6 L11.8 9.75 12.1 9.3 12.25 9.15 12.7 8.75 12.7 8.7 12.8 8.7 Q13.3 8.3 13.85 8.2 L14.5 8.15 14.7 8.15 M15.5 8.6 Q16.1 8.9 16.35 9.75 L16.5 10.25 16.5 10.4 M11.65 11.35 L11.9 11.85 12.2 12.2 12.25 12.25 12.7 12.5 M19.45 12.9 L18.6 12.15 18.35 11.95 M19.55 13.05 L19.45 12.95 19.4 12.9 M19.45 12.9 L19.45 12.95 M17.15 15.1 L16.95 17.15 17.05 17.95 M14.15 15.7 L14.3 16.3 14.55 17.1 14.65 17.45 15.15 18.65 15.7 19.55 M17.15 15.1 L17.3 14.45 17.55 13.6 M18.3 16.1 L17.8 16.85 M14.15 15.7 L13.95 14.5" fill="none" stroke="#8c773b" stroke-linecap="round" stroke-linejoin="round" stroke-width="1"/>
    <path d="M11.85 1.85 L11.65 0.0 11.35 1.6 11.35 1.85 Q11.35 3.0 11.6 4.05 L12.25 6.25 12.3 6.5 12.25 5.9 12.05 3.85 11.85 1.9 11.85 1.85 M10.15 4.0 L10.4 4.35 11.45 6.35 12.25 7.75 12.65 8.5 12.7 8.7 12.7 8.5 12.25 7.1 12.05 6.7 11.4 5.45 10.15 4.0 M12.8 8.7 L12.7 8.5 12.3 6.5" fill="none" stroke="#333333" stroke-linecap="round" stroke-linejoin="round" stroke-width="1"/>
    <path d="M21.4 14.65 L21.35 14.6 19.55 13.05 19.4 14.0 19.25 14.4 18.9 15.15 18.3 16.1 19.7 17.15 17.55 17.3 17.1 17.9 17.05 17.95 17.05 18.0 17.25 19.15 17.6 21.0 19.2 21.25 Q20.3 21.4 21.55 19.95 20.05 19.95 19.1 20.5 M21.4 14.65 L21.45 14.7 22.55 16.05 22.55 16.15 22.5 17.0 22.45 17.3 22.2 18.55 21.85 19.4 21.55 19.95 M22.5 17.0 L21.2 17.0 21.8 15.7 M17.8 16.85 L17.55 17.3 M14.3 16.3 Q14.05 15.95 13.75 15.95 13.25 15.95 13.25 17.0 13.25 17.7 13.9 18.2 14.45 18.65 15.1 18.65 L15.15 18.65 M16.15 20.45 L15.45 19.9" fill="none" stroke="#855930" stroke-linecap="round" stroke-linejoin="round" stroke-width="1"/>
  </g>
</svg>