<?xml version="1.0" encoding="UTF-8" standalone="no"?>
<svg xmlns:xlink="http://www.w3.org/1999/xlink" height="13.4px" width="13.65px" xmlns="http://www.w3.org/2000/svg">
  <g transform="matrix(1.0, 0.0, 0.0, 1.0, 1, 1)">
    <path d="M11.05 4.95 L10.8 4.7 8.9 3.25 8.95 4.5 9.25 7.4 Q8.7 7.05 8.0 6.8 6.4 6.15 4.9 5.3 L5.15 5.8 5.9 7.6 6.7 9.9 4.75 9.6 3.1 8.95 1.05 7.75 1.4 11.4 0.6 9.5 0.05 7.35 0.05 3.75 0.55 4.2 1.85 5.55 4.05 7.55 3.55 6.65 Q3.05 5.75 2.9 4.6 2.7 3.8 2.85 2.95 3.0 1.65 3.55 0.3 3.65 1.5 4.05 2.55 4.45 3.55 5.15 4.35 6.15 5.55 7.7 5.9 7.55 5.15 7.8 2.75 8.15 0.45 8.55 0.0 L9.25 0.8 9.85 1.45 10.55 2.55 11.2 3.9 11.55 4.75 11.65 5.5 11.05 4.95" fill="#e5c977" fill-rule="evenodd" stroke="none"/>
    <path d="M11.05 4.95 L11.65 5.5 11.55 4.75 11.2 3.9 10.55 2.55 9.85 1.45 9.25 0.8 8.55 0.0 Q8.15 0.45 7.8 2.75 7.55 5.15 7.7 5.9 6.15 5.55 5.15 4.35 4.45 3.55 4.05 2.55 3.65 1.5 3.55 0.3 3.0 1.65 2.85 2.95 2.7 3.8 2.9 4.6 3.05 5.75 3.55 6.65 L4.05 7.55 1.85 5.55 0.55 4.2 0.05 3.75 0.05 7.35 0.6 9.5 1.4 11.4 1.05 7.75 3.1 8.95 4.75 9.6 6.7 9.9 5.9 7.6 5.15 5.8 4.9 5.3 Q6.4 6.15 8.0 6.8 8.7 7.05 9.25 7.4 L8.95 4.5 8.9 3.25 10.8 4.7 11.05 4.95 Z" fill="none" stroke="#8c773b" stroke-linecap="round" stroke-linejoin="round" stroke-width="1"/>
  </g>
</svg>