<?xml version="1.0" encoding="UTF-8" standalone="no"?>
<svg xmlns:xlink="http://www.w3.org/1999/xlink" height="23.45px" width="10.6px" xmlns="http://www.w3.org/2000/svg">
  <g transform="matrix(1.0, 0.0, 0.0, 1.0, 1, 1)">
    <path d="M0.0 12.35 L0.0 12.2 0.7 8.25 Q1.35 4.45 2.15 3.7 L5.75 0.05 6.2 0.0 Q8.6 1.4 8.6 6.15 L8.35 7.9 7.9 9.1 7.75 8.8 6.55 11.9 6.3 11.35 5.1 10.25 Q4.7 10.55 4.25 11.0 L3.45 11.9 2.8 13.0 Q2.3 14.05 2.1 15.5 2.3 14.05 2.8 13.0 L3.75 13.95 3.25 14.85 5.6 15.95 5.05 18.0 4.25 20.0 3.15 21.2 2.05 21.35 Q1.3 20.6 1.15 19.65 L1.05 19.05 0.85 16.5 0.65 15.05 0.0 12.35 M1.85 9.1 Q1.25 9.95 1.25 10.3 1.25 11.0 2.3 12.35 2.85 11.5 3.6 10.8 4.2 10.25 4.75 10.0 L4.35 9.75 Q2.9 8.85 2.2 8.65 L1.85 9.1 M6.3 11.35 L5.8 10.65 5.25 10.15 5.1 10.25 5.25 10.15 5.8 10.65 6.3 11.35 M7.5 8.35 L7.75 8.8 7.5 8.35 M3.25 14.85 L3.1 15.1 Q2.5 16.4 2.4 17.8 2.3 19.0 2.85 20.15 2.3 19.0 2.4 17.8 2.5 16.4 3.1 15.1 L3.25 14.85" fill="#433d38" fill-rule="evenodd" stroke="none"/>
    <path d="M6.55 11.9 L6.15 13.05 5.75 12.6 5.15 11.8 4.3 13.05 3.75 13.95 2.8 13.0 3.45 11.9 4.25 11.0 Q4.7 10.55 5.1 10.25 L6.3 11.35 6.55 11.9 M1.85 9.1 L2.2 8.65 Q2.9 8.85 4.35 9.75 L4.75 10.0 Q4.2 10.25 3.6 10.8 2.85 11.5 2.3 12.35 1.25 11.0 1.25 10.3 1.25 9.95 1.85 9.1" fill="#62584f" fill-rule="evenodd" stroke="none"/>
    <path d="M6.15 13.05 L7.15 13.95 7.35 14.1 6.4 16.35 5.6 15.95 3.25 14.85 3.75 13.95 4.3 13.05 5.15 11.8 5.75 12.6 6.15 13.05" fill="#a6764a" fill-rule="evenodd" stroke="none"/>
    <path d="M6.15 13.05 L7.15 13.95 7.35 14.1 M6.15 13.05 L5.75 12.6 5.15 11.8 4.3 13.05 3.75 13.95 3.25 14.85 5.6 15.95" fill="none" stroke="#855930" stroke-linecap="round" stroke-linejoin="round" stroke-width="1"/>
    <path d="M7.9 9.1 L7.75 8.8 6.55 11.9 6.15 13.05 M5.6 15.95 L5.05 18.0 4.25 20.0 3.15 21.2 2.05 21.35 Q1.3 20.6 1.15 19.65 L1.05 19.05 0.85 16.5 0.65 15.05 0.0 12.35 M2.8 13.0 L3.45 11.9 4.25 11.0 Q4.7 10.55 5.1 10.25 L5.25 10.15 5.8 10.65 6.3 11.35 6.55 11.9 M7.75 8.8 L7.5 8.35 M2.85 20.15 Q2.3 19.0 2.4 17.8 2.5 16.4 3.1 15.1 L3.25 14.85 M2.8 13.0 Q2.3 14.05 2.1 15.5" fill="none" stroke="#333333" stroke-linecap="round" stroke-linejoin="round" stroke-width="1"/>
  </g>
</svg>