<?xml version="1.0" encoding="UTF-8" standalone="no"?>
<svg xmlns:xlink="http://www.w3.org/1999/xlink" height="51.05px" width="31.1px" xmlns="http://www.w3.org/2000/svg">
  <g transform="matrix(1.0, 0.0, 0.0, 1.0, 1, 2.3)">
    <path d="M7.05 30.65 L9.15 31.5 9.25 31.55 9.4 31.65 10.1 30.35 Q10.2 30.25 10.45 30.2 L10.35 30.9 10.25 32.15 10.3 32.75 9.6 33.6 9.0 34.4 8.4 33.55 7.8 32.8 Q7.55 33.0 7.4 33.55 L7.05 30.75 7.05 30.65 M18.95 21.35 L19.55 19.85 20.8 14.3 22.1 6.25 22.8 9.7 22.85 10.05 22.85 10.55 22.85 11.5 21.4 15.35 Q20.45 17.85 20.45 18.4 L20.45 18.5 Q20.4 18.9 21.0 19.5 21.6 20.1 22.05 20.1 22.45 20.1 22.85 19.7 L22.85 19.85 22.65 20.65 22.85 21.8 Q22.65 20.95 22.25 21.05 22.1 21.1 21.65 22.1 L21.45 22.55 20.9 24.2 Q20.9 25.8 21.6 27.8 L22.7 31.25 Q23.1 32.7 24.2 34.05 L27.0 36.95 27.1 37.65 25.85 36.4 24.0 34.7 22.45 32.9 21.25 28.8 18.95 21.35" fill="#a6764a" fill-rule="evenodd" stroke="none"/>
    <path d="M16.95 -1.3 L13.8 2.55 Q12.05 4.45 9.6 10.3 L6.75 17.3 Q6.3 18.45 8.3 14.7 10.25 10.95 11.85 8.6 L8.25 16.35 Q5.25 23.15 4.45 28.65 5.3 25.8 6.6 23.55 L8.4 19.75 7.45 24.75 Q6.65 29.4 6.85 30.65 L6.2 30.65 4.6 30.85 3.7 31.2 3.45 31.3 Q3.6 30.05 3.0 29.05 2.8 28.8 2.45 28.8 L0.0 29.2 Q1.0 28.2 1.4 26.8 L3.05 21.85 6.7 11.3 7.5 9.1 8.3 6.85 9.7 3.75 Q10.65 1.75 11.25 1.2 14.7 -1.4 16.95 -1.3 M9.25 31.55 L9.1 28.35 Q9.1 26.4 9.7 23.9 L10.15 22.1 10.6 20.6 12.05 15.6 11.6 20.05 11.5 24.4 11.5 29.05 11.6 29.9 10.45 30.2 Q10.2 30.25 10.1 30.35 L9.4 31.65 9.25 31.55 M12.75 31.0 Q12.9 28.3 13.4 24.85 L14.4 19.25 16.55 8.9 14.3 26.05 Q14.3 29.7 14.6 31.85 13.5 31.85 12.75 31.0 M17.55 29.3 L17.55 29.2 17.75 26.65 17.85 25.95 18.15 24.2 18.95 21.35 21.25 28.8 Q20.4 27.2 19.2 27.65 18.05 28.1 17.55 29.3 M22.8 9.7 L25.4 20.2 25.5 20.55 25.95 22.1 27.65 26.8 27.7 27.15 26.75 25.95 Q26.1 25.05 25.05 24.75 L24.8 25.15 Q24.05 26.25 23.75 27.5 L23.2 23.9 23.2 23.85 22.85 21.8 22.65 20.65 22.85 19.85 22.85 19.7 22.65 18.3 22.85 11.5 22.85 10.55 22.85 10.05 22.8 9.7 M26.65 35.2 L27.65 36.45 28.3 37.35 29.1 39.05 Q27.75 39.7 26.95 39.6 25.85 39.3 25.05 38.45 24.25 37.45 23.75 36.25 L23.55 37.75 23.35 37.75 22.45 32.9 24.0 34.7 25.85 36.4 27.1 37.65 27.0 36.95 26.65 35.2 M11.65 39.65 L11.75 39.85 12.45 42.1 13.05 44.8 Q13.3 46.3 12.65 47.2 12.0 48.15 11.05 47.4 10.15 46.7 9.4 45.35 L8.95 43.05 8.5 40.65 8.5 40.5 10.35 43.65 11.45 44.7 Q12.15 43.9 12.05 42.75 L11.65 39.65" fill="#433d38" fill-rule="evenodd" stroke="none"/>
    <path d="M21.95 0.0 L23.2 8.3 23.2 8.35 23.75 10.85 25.35 19.85 25.4 20.2 22.8 9.7 22.1 6.25 20.8 14.3 19.55 19.85 18.95 21.35 18.15 24.2 17.85 25.95 17.75 26.65 17.55 29.2 17.55 29.3 17.5 29.45 17.5 32.65 Q16.1 31.7 14.8 31.85 L14.6 31.85 Q14.3 29.7 14.3 26.05 L16.55 8.9 14.4 19.25 13.4 24.85 Q12.9 28.3 12.75 31.0 L12.6 30.85 11.85 29.85 11.6 29.9 11.5 29.05 11.5 24.4 11.6 20.05 12.05 15.6 10.6 20.6 10.15 22.1 9.7 23.9 Q9.1 26.4 9.1 28.35 L9.25 31.55 9.15 31.5 7.05 30.65 6.85 30.65 Q6.65 29.4 7.45 24.75 L8.4 19.75 6.6 23.55 Q5.3 25.8 4.45 28.65 5.25 23.15 8.25 16.35 L11.85 8.6 Q10.25 10.95 8.3 14.7 6.3 18.45 6.75 17.3 L9.6 10.3 Q12.05 4.45 13.8 2.55 L16.95 -1.3 Q21.7 -0.45 21.95 0.0" fill="#62584f" fill-rule="evenodd" stroke="none"/>
    <path d="M23.75 27.5 L24.2 30.95 26.3 34.5 26.65 35.2 27.0 36.95 24.2 34.05 Q23.1 32.7 22.7 31.25 L21.6 27.8 Q20.9 25.8 20.9 24.2 L21.45 22.55 21.65 22.1 Q22.1 21.1 22.25 21.05 22.65 20.95 22.85 21.8 L23.2 23.85 23.2 23.9 23.75 27.5 M22.85 11.5 L22.65 18.3 22.85 19.7 Q22.45 20.1 22.05 20.1 21.6 20.1 21.0 19.5 20.4 18.9 20.45 18.5 L20.45 18.4 Q20.45 17.85 21.4 15.35 L22.85 11.5 M10.3 32.75 Q10.25 34.15 10.75 36.55 11.25 38.9 11.65 39.65 L12.05 42.75 Q12.15 43.9 11.45 44.7 L10.35 43.65 8.5 40.5 Q8.55 38.55 8.15 36.95 L7.4 33.55 Q7.55 33.0 7.8 32.8 L8.4 33.55 9.0 34.4 9.6 33.6 10.3 32.75" fill="#c49161" fill-rule="evenodd" stroke="none"/>
    <path d="M23.75 27.5 L24.2 30.95 26.3 34.5 26.65 35.2 M22.45 32.9 L21.25 28.8 18.95 21.35 M22.85 10.05 L22.85 10.55 22.85 11.5 22.65 18.3 22.85 19.7 22.85 19.85 22.65 20.65 22.85 21.8 23.2 23.85 23.2 23.9 23.75 27.5 M10.45 30.2 L10.35 30.9 10.25 32.15 10.3 32.75 Q10.25 34.15 10.75 36.55 11.25 38.9 11.65 39.65 M8.5 40.5 Q8.55 38.55 8.15 36.95 L7.4 33.55 7.05 30.75 7.05 30.65" fill="none" stroke="#855930" stroke-linecap="round" stroke-linejoin="round" stroke-width="1"/>
    <path d="M25.4 20.2 L25.35 19.85 23.75 10.85 23.2 8.35 23.2 8.3 21.95 0.0 M6.85 30.65 L7.05 30.65 M11.6 29.9 L11.85 29.85 12.6 30.85 12.75 31.0 Q13.5 31.85 14.6 31.85 L14.8 31.85 Q16.1 31.7 17.5 32.65 L17.5 29.45 17.55 29.3 17.55 29.2 17.75 26.65 17.85 25.95 18.15 24.2 18.95 21.35 M25.5 20.55 L25.95 22.1 27.65 26.8 27.7 27.15 26.75 25.95 Q26.1 25.05 25.05 24.75 L24.8 25.15 Q24.05 26.25 23.75 27.5 M26.65 35.2 L27.65 36.45 28.3 37.35 29.1 39.05 Q27.75 39.7 26.95 39.6 25.85 39.3 25.05 38.45 24.25 37.45 23.75 36.25 L23.55 37.75 23.35 37.75 22.45 32.9 M21.25 28.8 Q20.4 27.2 19.2 27.65 18.05 28.1 17.55 29.3 M9.7 3.75 L8.3 6.85 7.5 9.1 6.7 11.3 3.05 21.85 1.4 26.8 Q1.0 28.2 0.0 29.2 L2.45 28.8 Q2.8 28.8 3.0 29.05 3.6 30.05 3.45 31.3 L3.7 31.2 4.6 30.85 6.2 30.65 6.85 30.65 M11.6 29.9 L10.45 30.2 M11.65 39.65 L11.75 39.85 12.45 42.1 13.05 44.8 Q13.3 46.3 12.65 47.2 12.0 48.15 11.05 47.4 10.15 46.7 9.4 45.35 L8.95 43.05 8.5 40.65 8.5 40.5" fill="none" stroke="#333333" stroke-linecap="round" stroke-linejoin="round" stroke-width="1"/>
  </g>
</svg>