<?xml version="1.0" encoding="UTF-8" standalone="no"?>
<svg xmlns:xlink="http://www.w3.org/1999/xlink" height="8.75px" width="13px" xmlns="http://www.w3.org/2000/svg">
  <g id="shape0" transform="matrix(1.0, 0.0, 0.0, 1.0, 6.5, 4.4)">
    <path d="M0.2 1.15 L-0.6 1.15 -1.1 0.8 -1.6 0.3 -1.1 0.8 -0.6 1.15 0.2 1.15 M1.1 -0.8 L1.1 -1.25 0.95 -1.65 0.65 -1.7 -0.1 -1.5 -1.45 -0.75 -0.1 -1.5 0.65 -1.7 0.95 -1.65 1.1 -1.25 1.1 -0.8 M-5.45 -0.2 L-4.0 -1.5 -3.9 -2.7 -3.85 -2.75 -2.4 -2.4 -2.3 -2.55 -2.2 -2.6 -1.15 -2.25 Q1.15 -3.3 3.65 -3.4 L1.85 -2.6 Q3.9 -1.8 5.5 -0.55 L3.9 -0.55 5.25 2.9 Q4.4 1.75 3.0 1.55 L1.7 2.85 0.95 3.35 0.7 2.2 -0.2 2.5 -1.55 3.1 Q-2.8 0.75 -5.45 -0.2 M2.5 0.35 L2.7 0.2 2.8 0.0 Q2.65 -0.5 2.1 -0.45 2.65 -0.5 2.8 0.0 L2.7 0.2 2.5 0.35" fill="#faf8f8" fill-rule="evenodd" stroke="none"/>
    <path d="M-1.45 -0.75 L-0.1 -1.5 0.65 -1.7 0.95 -1.65 1.1 -1.25 1.1 -0.8 M-1.6 0.3 L-1.1 0.8 -0.6 1.15 0.2 1.15 M-5.45 -0.2 L-4.0 -1.5 -3.9 -2.7 -3.85 -2.75 -2.4 -2.4 -2.3 -2.55 -2.2 -2.6 -1.15 -2.25 Q1.15 -3.3 3.65 -3.4 L1.85 -2.6 Q3.9 -1.8 5.5 -0.55 L3.9 -0.55 5.25 2.9 Q4.4 1.75 3.0 1.55 L1.7 2.85 0.95 3.35 0.7 2.2 -0.2 2.5 -1.55 3.1 Q-2.8 0.75 -5.45 -0.2 L-5.5 -0.2 -5.45 -0.2 M2.1 -0.45 Q2.65 -0.5 2.8 0.0 L2.7 0.2 2.5 0.35" fill="none" stroke="#a36a6a" stroke-linecap="round" stroke-linejoin="round" stroke-width="1"/>
  </g>
</svg>