<?xml version="1.0" encoding="UTF-8" standalone="no"?>
<svg xmlns:xlink="http://www.w3.org/1999/xlink" height="37.75px" width="23.7px" xmlns="http://www.w3.org/2000/svg">
  <g transform="matrix(1.0, 0.0, 0.0, 1.0, 11.85, 18.85)">
    <path d="M-1.75 14.4 L-0.9 14.9 Q1.05 15.6 2.8 14.6 L3.0 14.2 2.6 13.5 3.05 13.25 3.4 12.05 3.3 11.95 3.05 11.8 -0.4 13.4 -1.75 14.4 -2.4 14.95 -1.75 14.4 M-4.7 9.5 L9.1 9.95 8.95 11.75 8.6 13.4 8.15 14.7 4.65 14.95 3.6 16.35 3.25 17.1 3.0 17.9 -2.8 17.4 -2.4 14.95 -4.05 17.65 -5.0 17.45 -7.5 16.8 -7.3 15.55 -9.65 16.1 -10.6 14.1 -7.1 13.8 -7.1 14.25 -4.2 15.15 -4.1 15.15 Q-3.15 14.1 -2.35 12.85 L-1.85 11.95 -5.55 11.95 -4.35 11.55 -5.35 10.05 -2.9 10.6 -3.2 10.0 -3.55 9.8 -4.7 9.5 M-2.85 11.25 L-4.35 11.55 -2.85 11.25 1.45 10.8 0.8 10.55 -1.05 10.4 Q-2.95 9.9 -2.85 11.25 M3.65 10.3 L3.55 10.65 3.6 10.9 Q5.15 12.3 6.4 11.4 L6.3 11.15 Q5.95 10.2 4.9 10.05 L3.85 10.05 3.65 10.3 M-6.25 9.45 L-5.5 9.5 -5.65 9.7 Q-5.75 9.9 -6.25 9.45 M-7.3 15.55 L-7.1 14.25 -7.3 15.55" fill="#d6baba" fill-rule="evenodd" stroke="none"/>
    <path d="M-0.4 13.4 L3.05 11.8 3.3 11.95 3.4 12.05 3.05 13.25 2.6 13.5 3.0 14.2 2.8 14.6 Q1.05 15.6 -0.9 14.9 L-1.75 14.4 -0.4 13.4 M-4.7 9.5 L-3.55 9.8 -3.2 10.0 -2.9 10.6 -5.35 10.05 -4.35 11.55 -5.55 11.95 Q-6.2 11.95 -6.65 12.5 -7.1 13.05 -7.1 13.8 -7.1 13.05 -6.65 12.5 -6.2 11.95 -5.55 11.95 L-1.85 11.95 -2.35 12.85 Q-3.15 14.1 -4.1 15.15 L-4.2 15.15 -7.1 14.25 -7.1 13.8 -10.6 14.1 -10.85 12.8 -9.75 12.0 Q-8.0 10.6 -6.25 9.45 -5.75 9.9 -5.65 9.7 L-5.5 9.5 -4.75 9.5 -4.7 9.5 M-2.85 11.25 Q-2.95 9.9 -1.05 10.4 L0.8 10.55 1.45 10.8 -2.85 11.25 M3.65 10.3 L3.85 10.05 4.9 10.05 Q5.95 10.2 6.3 11.15 L6.4 11.4 Q5.15 12.3 3.6 10.9 L3.55 10.65 3.65 10.3" fill="#faf8f8" fill-rule="evenodd" stroke="none"/>
    <path d="M-1.75 14.4 L-2.4 14.95 -2.8 17.4 3.0 17.9 3.25 17.1 3.6 16.35 4.65 14.95 8.15 14.7 8.6 13.4 8.95 11.75 9.1 9.95 -4.7 9.5 M-4.35 11.55 L-2.85 11.25 M-6.25 9.45 L-5.5 9.5 -4.75 9.5 M-6.25 9.45 Q-8.0 10.6 -9.75 12.0 L-10.85 12.8 -10.6 14.1 -9.65 16.1 -7.3 15.55 -7.5 16.8 -5.0 17.45 -4.05 17.65 -2.4 14.95 M-7.1 13.8 Q-7.1 13.05 -6.65 12.5 -6.2 11.95 -5.55 11.95 L-4.35 11.55 M-7.1 14.25 L-7.3 15.55 M-1.75 14.4 L-0.4 13.4 M-7.1 13.8 L-7.1 14.25" fill="none" stroke="#a36a6a" stroke-linecap="round" stroke-linejoin="round" stroke-width="1"/>
    <path d="M-2.0 -5.65 L3.6 -7.75 7.7 -6.85 10.0 -6.4 7.65 -5.05 5.15 -3.7 7.65 -5.05 10.0 -6.4 10.15 -4.95 10.2 -3.85 10.2 -1.55 10.75 6.75 Q10.55 8.25 9.9 9.05 L7.45 10.95 Q5.45 11.9 4.5 12.55 L5.05 11.55 5.15 -3.7 4.0 -4.3 Q1.2 -5.7 -2.0 -5.65" fill="#d6baba" fill-rule="evenodd" stroke="none"/>
    <path d="M-2.0 -5.65 Q1.2 -5.7 4.0 -4.3 L5.15 -3.7 5.05 11.55 4.5 12.55 4.4 12.55 -3.5 9.4 -2.0 -5.65" fill="#faf8f8" fill-rule="evenodd" stroke="none"/>
    <path d="M10.0 -6.4 L7.7 -6.85 3.6 -7.75 -2.0 -5.65 Q1.2 -5.7 4.0 -4.3 L5.15 -3.7 7.65 -5.05 10.0 -6.4 10.15 -4.95 10.2 -3.85 10.2 -1.55 10.75 6.75 Q10.55 8.25 9.9 9.05 L7.45 10.95 Q5.45 11.9 4.5 12.55 L4.4 12.55 -3.5 9.4 -2.0 -5.65 M5.15 -3.7 L5.05 11.55 4.5 12.55" fill="none" stroke="#a36a6a" stroke-linecap="round" stroke-linejoin="round" stroke-width="1"/>
    <path d="M10.85 -16.2 L10.85 -14.5 Q10.95 -11.9 10.65 -10.5 10.4 -9.15 9.7 -8.45 L7.25 -6.85 4.45 -5.55 4.95 -6.35 5.25 -13.1 8.1 -14.6 10.85 -16.2" fill="#d6baba" fill-rule="evenodd" stroke="none"/>
    <path d="M10.85 -16.2 L8.1 -14.6 5.25 -13.1 4.95 -6.35 4.45 -5.55 4.35 -5.55 -3.25 -8.2 -2.7 -15.3 3.6 -17.85 8.25 -16.75 10.85 -16.2 M5.25 -13.1 L4.05 -13.75 Q0.9 -15.35 -2.7 -15.3 0.9 -15.35 4.05 -13.75 L5.25 -13.1 M-0.85 -11.1 L-1.55 -10.8 -1.65 -10.85 -1.5 -11.45 -1.05 -12.8 Q-0.75 -13.75 0.0 -14.2 -0.75 -13.75 -1.05 -12.8 L-1.5 -11.45 -1.65 -10.85 -1.55 -10.8 -0.85 -11.1 M2.55 -7.5 Q2.5 -8.45 2.85 -9.3 2.5 -8.45 2.55 -7.5 M2.75 -11.0 Q3.0 -11.7 2.25 -11.95 L1.65 -12.05 1.3 -11.95 0.95 -11.35 0.85 -10.35 0.75 -9.6 0.6 -9.4 Q0.3 -9.35 0.3 -9.65 0.2 -11.05 0.85 -12.3 0.2 -11.05 0.3 -9.65 0.3 -9.35 0.6 -9.4 L0.75 -9.6 0.85 -10.35 0.95 -11.35 1.3 -11.95 1.65 -12.05 2.25 -11.95 Q3.0 -11.7 2.75 -11.0" fill="#faf8f8" fill-rule="evenodd" stroke="none"/>
    <path d="M4.45 -5.55 L7.25 -6.85 9.7 -8.45 Q10.4 -9.15 10.65 -10.5 10.95 -11.9 10.85 -14.5 L10.85 -16.2 8.1 -14.6 5.25 -13.1 4.95 -6.35 4.45 -5.55 4.35 -5.55 -3.25 -8.2 -2.7 -15.3 3.6 -17.85 8.25 -16.75 10.85 -16.2 M-2.7 -15.3 Q0.9 -15.35 4.05 -13.75 L5.25 -13.1" fill="none" stroke="#a36a6a" stroke-linecap="round" stroke-linejoin="round" stroke-width="1"/>
    <path d="M0.85 -12.3 Q0.2 -11.05 0.3 -9.65 0.3 -9.35 0.6 -9.4 L0.75 -9.6 0.85 -10.35 0.95 -11.35 1.3 -11.95 1.65 -12.05 2.25 -11.95 Q3.0 -11.7 2.75 -11.0 M2.85 -9.3 Q2.5 -8.45 2.55 -7.5 M0.0 -14.2 Q-0.75 -13.75 -1.05 -12.8 L-1.5 -11.45 -1.65 -10.85 -1.55 -10.8 -0.85 -11.1" fill="none" stroke="#a36a6a" stroke-linecap="round" stroke-linejoin="round" stroke-opacity="0.47058824" stroke-width="1"/>
  </g>
</svg>