<?xml version="1.0" encoding="UTF-8" standalone="no"?>
<svg xmlns:xlink="http://www.w3.org/1999/xlink" height="26.15px" width="40.45px" xmlns="http://www.w3.org/2000/svg">
  <g id="shape0" transform="matrix(1.0, 0.0, 0.0, 1.0, 20.2, 13.1)">
    <path d="M16.9 -3.45 Q15.1 -4.45 13.1 -3.95 L9.9 -3.35 7.7 -2.9 5.0 -2.2 Q3.15 -1.9 1.5 -1.2 L-0.7 -0.3 -2.35 0.7 -4.15 1.9 -5.25 3.0 Q-6.5 4.4 -6.55 6.35 L-6.45 7.85 -10.15 5.75 Q-15.75 2.75 -16.6 2.45 L-16.6 2.5 -11.15 6.9 Q-8.7 8.75 -6.0 9.75 -5.6 10.95 -4.75 11.6 -5.1 11.55 -5.25 11.35 L-7.65 9.9 Q-9.15 9.2 -10.5 8.3 -11.7 7.5 -12.85 6.8 L-15.95 4.7 -16.85 4.05 Q-18.25 3.25 -18.7 1.65 L-19.1 -0.05 Q-16.85 1.05 -12.9 1.9 -17.0 -0.15 -19.2 -1.0 L-19.2 -1.3 -19.05 -2.8 Q-18.85 -4.45 -17.55 -5.5 L-15.15 -7.15 -13.5 -8.2 -11.45 -9.05 -8.05 -10.25 -5.3 -10.8 -3.2 -11.2 -0.05 -11.9 1.1 -12.1 Q2.1 -12.15 3.2 -11.6 L4.1 -11.1 16.9 -3.45 M-1.45 7.3 L-1.5 7.25 -1.6 6.45 -1.35 5.6 Q-1.15 5.25 -0.65 5.35 L-0.45 5.4 Q0.7 5.7 0.7 7.0 0.7 7.85 -0.15 7.85 -1.15 7.85 -1.45 7.35 L-1.45 7.3 M14.55 1.1 L14.75 1.4 Q14.45 2.2 13.1 2.2 12.5 2.2 12.3 1.8 L12.2 1.35 Q12.2 0.95 12.5 0.8 L13.0 0.6 13.2 0.55 Q14.0 0.5 14.55 1.1 M9.25 2.45 L9.2 3.35 8.8 3.5 Q8.35 3.05 8.35 2.35 8.35 1.35 8.8 1.35 9.25 1.35 9.25 2.45 M6.65 2.8 L6.85 3.7 Q6.8 3.85 6.55 3.85 6.2 3.85 6.1 3.3 L5.95 2.65 Q6.55 2.2 6.65 2.8 M3.8 4.75 L2.9 4.05 2.45 3.35 Q2.45 1.6 4.15 4.55 4.15 4.75 3.8 4.75" fill="#faf8f8" fill-rule="evenodd" stroke="none"/>
    <path d="M-6.45 7.85 L-6.55 6.35 Q-6.5 4.4 -5.25 3.0 L-4.15 1.9 -2.35 0.7 -0.7 -0.3 1.5 -1.2 Q3.15 -1.9 5.0 -2.2 L7.7 -2.9 9.9 -3.35 13.1 -3.95 Q15.1 -4.45 16.9 -3.45 L17.95 -2.65 Q19.2 -1.7 19.25 0.1 19.15 0.4 19.2 0.8 L18.45 3.15 Q17.45 4.95 15.45 5.25 13.15 5.5 11.8 4.05 L10.05 4.25 Q8.5 4.65 7.15 5.4 L4.85 6.95 2.2 9.15 2.2 9.2 Q1.3 10.8 -0.3 11.6 L-2.4 12.05 -3.6 11.9 -4.75 11.6 Q-5.6 10.95 -6.0 9.75 -8.7 8.75 -11.15 6.9 L-16.6 2.5 -16.6 2.45 Q-15.75 2.75 -10.15 5.75 L-6.45 7.85 -6.05 9.65 -6.0 9.75 -6.05 9.65 -6.45 7.85 M-19.2 -1.0 Q-17.0 -0.15 -12.9 1.9 -16.85 1.05 -19.1 -0.05 L-19.1 -0.15 -19.1 -0.2 -19.15 -0.45 -19.2 -0.9 -19.2 -1.0 M-1.45 7.3 L-1.45 7.35 Q-1.15 7.85 -0.15 7.85 0.7 7.85 0.7 7.0 0.7 5.7 -0.45 5.4 L-0.65 5.35 Q-1.15 5.25 -1.35 5.6 L-1.6 6.45 -1.5 7.25 -1.45 7.3 -1.75 7.25 Q-2.5 6.6 -2.1 5.8 -1.2 3.65 1.0 4.8 L1.7 5.45 Q2.9 7.05 2.2 9.15 2.9 7.05 1.7 5.45 L1.0 4.8 Q-1.2 3.65 -2.1 5.8 -2.5 6.6 -1.75 7.25 L-1.45 7.3 M14.55 1.1 Q14.0 0.5 13.2 0.55 L13.0 0.6 12.5 0.8 Q12.2 0.95 12.2 1.35 L12.3 1.8 Q12.5 2.2 13.1 2.2 14.45 2.2 14.75 1.4 L14.55 1.1 14.55 0.0 Q12.55 -1.05 11.6 1.1 10.95 2.7 11.8 4.05 10.95 2.7 11.6 1.1 12.55 -1.05 14.55 0.0 L14.55 1.1 M3.8 4.75 Q4.15 4.75 4.15 4.55 2.45 1.6 2.45 3.35 L2.9 4.05 3.8 4.75 M6.65 2.8 Q6.55 2.2 5.95 2.65 L6.1 3.3 Q6.2 3.85 6.55 3.85 6.8 3.85 6.85 3.7 L6.65 2.8 M9.25 2.45 Q9.25 1.35 8.8 1.35 8.35 1.35 8.35 2.35 8.35 3.05 8.8 3.5 L9.2 3.35 9.25 2.45" fill="#d6baba" fill-rule="evenodd" stroke="none"/>
    <path d="M-6.45 7.85 L-6.55 6.35 Q-6.5 4.4 -5.25 3.0 L-4.15 1.9 -2.35 0.7 -0.7 -0.3 1.5 -1.2 Q3.15 -1.9 5.0 -2.2 L7.7 -2.9 9.9 -3.35 13.1 -3.95 Q15.1 -4.45 16.9 -3.45 L4.1 -11.1 3.2 -11.6 Q2.1 -12.15 1.1 -12.1 L-0.05 -11.9 -3.2 -11.2 -5.3 -10.8 -8.05 -10.25 -11.45 -9.05 -13.5 -8.2 -15.15 -7.15 -17.55 -5.5 Q-18.85 -4.45 -19.05 -2.8 L-19.2 -1.3 -19.2 -1.0 -19.2 -0.9 -19.15 -0.45 -19.1 -0.2 -19.1 -0.15 -19.1 -0.05 -18.7 1.65 Q-18.25 3.25 -16.85 4.05 L-15.95 4.7 -12.85 6.8 Q-11.7 7.5 -10.5 8.3 -9.15 9.2 -7.65 9.9 L-5.25 11.35 Q-5.1 11.55 -4.75 11.6 -5.6 10.95 -6.0 9.75 L-6.05 9.65 -6.45 7.85 M16.9 -3.45 L17.95 -2.65 Q19.2 -1.7 19.25 0.1 19.15 0.4 19.2 0.8 L18.45 3.15 Q17.45 4.95 15.45 5.25 13.15 5.5 11.8 4.05 10.95 2.7 11.6 1.1 12.55 -1.05 14.55 0.0 L14.55 1.1 M2.2 9.15 L2.2 9.2 Q1.3 10.8 -0.3 11.6 L-2.4 12.05 -3.6 11.9 -4.75 11.6 M-1.45 7.3 L-1.75 7.25 Q-2.5 6.6 -2.1 5.8 -1.2 3.65 1.0 4.8 L1.7 5.45 Q2.9 7.05 2.2 9.15" fill="none" stroke="#a36a6a" stroke-linecap="round" stroke-linejoin="round" stroke-width="1"/>
  </g>
</svg>