<?xml version="1.0" encoding="UTF-8" standalone="no"?>
<svg xmlns:xlink="http://www.w3.org/1999/xlink" height="5.75px" width="5.95px" xmlns="http://www.w3.org/2000/svg">
  <g transform="matrix(1.0, 0.0, 0.0, 1.0, 6.45, -1.45)">
    <path d="M-2.9 5.35 L-2.7 4.4 -2.5 4.1 -1.75 4.0 -1.65 4.05 -1.55 4.2 -1.55 4.75 -1.65 4.95 -2.3 5.7 -2.45 5.85 -2.9 6.2 -2.9 5.95 -2.9 5.75 -2.9 5.35 M-4.0 2.6 L-4.35 3.0 -4.75 3.15 -5.4 3.05 -5.4 2.8 -5.2 2.65 -4.25 2.5 -4.1 2.5 -4.0 2.6" fill="#ffffcc" fill-rule="evenodd" stroke="none"/>
    <path d="M-4.0 2.6 L-4.1 2.5 -4.25 2.5 -5.2 2.65 -5.4 2.8 -5.4 3.05 -4.75 3.15 -4.35 3.0 -4.0 2.6 M-2.9 5.35 L-2.9 5.75 -2.9 5.95 -2.9 6.2 -2.45 5.85 -2.3 5.7 -1.65 4.95 -1.55 4.75 -1.55 4.2 -1.65 4.05 -1.75 4.0 -2.5 4.1 -2.7 4.4 -2.9 5.35 Z" fill="none" stroke="#a36a6a" stroke-linecap="round" stroke-linejoin="round" stroke-width="1"/>
  </g>
</svg>