<?xml version="1.0" encoding="UTF-8" standalone="no"?>
<svg xmlns:xlink="http://www.w3.org/1999/xlink" height="18.1px" width="19px" xmlns="http://www.w3.org/2000/svg">
  <g id="shape0" transform="matrix(1.0, 0.0, 0.0, 1.0, 9.5, 9)">
    <path d="M8.2 -7.7 L8.5 -7.05 8.5 -5.3 Q8.3 -4.15 7.65 -3.25 L7.6 -3.15 7.0 -2.4 6.95 -2.4 7.0 -2.35 6.65 -1.85 6.05 -1.5 5.95 -1.35 5.2 -0.7 4.55 -0.2 4.5 -0.15 1.65 1.35 -1.7 2.9 -4.25 4.15 Q-5.05 4.55 -6.65 6.65 -7.9 8.3 -8.3 8.05 L-8.25 8.05 -7.9 7.4 -7.6 6.2 -6.35 4.0 Q-5.55 2.95 -3.55 1.35 L-3.05 0.95 -2.7 0.8 Q-0.9 0.2 0.6 -0.65 L5.15 -3.0 5.25 -3.15 5.4 -3.35 5.5 -3.45 5.55 -3.55 4.9 -3.15 4.55 -2.95 3.45 -2.35 Q1.3 -1.25 -0.95 -0.45 L-1.65 -0.1 Q0.55 -1.65 3.05 -2.8 5.05 -3.7 6.5 -5.2 L6.6 -5.3 8.2 -7.7" fill="#d6baba" fill-rule="evenodd" stroke="none"/>
    <path d="M4.3 -7.8 L6.8 -7.9 8.2 -7.7 6.6 -5.3 6.5 -5.2 Q5.05 -3.7 3.05 -2.8 0.55 -1.65 -1.65 -0.1 L-0.95 -0.45 Q1.3 -1.25 3.45 -2.35 L4.55 -2.95 4.9 -3.15 5.55 -3.55 5.5 -3.45 5.4 -3.35 5.25 -3.15 5.15 -3.0 0.6 -0.65 Q-0.9 0.2 -2.7 0.8 L-3.05 0.95 -3.55 1.35 Q-5.55 2.95 -6.35 4.0 L-7.6 6.2 -7.9 7.4 -8.25 8.05 -8.3 8.05 -8.4 7.95 -8.5 7.75 -8.45 6.75 Q-8.15 5.15 -6.7 1.45 L-3.65 -3.05 Q-2.05 -5.3 -0.4 -6.0 L1.55 -6.85 2.75 -7.35 4.3 -7.8" fill="#faf8f8" fill-rule="evenodd" stroke="none"/>
    <path d="M8.5 -7.05 L8.5 -5.3 Q8.3 -4.15 7.65 -3.25 L7.6 -3.15 7.0 -2.4 7.0 -2.35 6.65 -1.85 M5.95 -1.35 L5.2 -0.7 4.55 -0.2 4.5 -0.15 1.65 1.35 -1.7 2.9 -4.25 4.15 Q-5.05 4.55 -6.65 6.65 -7.9 8.3 -8.3 8.05 L-8.4 7.95 -8.5 7.75 -8.45 6.75 Q-8.15 5.15 -6.7 1.45 L-3.65 -3.05 Q-2.05 -5.3 -0.4 -6.0 L1.55 -6.85 2.75 -7.35 4.3 -7.8" fill="none" stroke="#a36a6a" stroke-linecap="round" stroke-linejoin="round" stroke-width="1"/>
  </g>
</svg>