<?xml version="1.0" encoding="UTF-8" standalone="no"?>
<svg xmlns:xlink="http://www.w3.org/1999/xlink" height="12.5px" width="16.4px" xmlns="http://www.w3.org/2000/svg">
  <g id="shape0" transform="matrix(1.0, 0.0, 0.0, 1.0, 8.2, 6.25)">
    <path d="M-7.1 4.45 Q-6.45 2.15 -5.15 0.15 -3.45 -2.55 -0.45 -3.8 L0.25 -4.1 1.45 -4.6 3.0 -5.05 5.5 -5.15 6.9 -4.95 5.3 -2.55 5.2 -2.45 Q3.75 -0.95 1.75 -0.05 -0.75 1.1 -2.95 2.65 L-2.25 2.3 2.15 0.4 3.25 -0.2 3.6 -0.4 4.25 -0.8 4.2 -0.7 4.1 -0.6 3.95 -0.4 3.85 -0.25 -0.7 2.1 -4.0 3.55 -6.0 4.15 -7.1 4.45" fill="#faf8f8" fill-rule="evenodd" stroke="none"/>
    <path d="M-7.1 4.45 L-6.0 4.15 -4.0 3.55 -0.7 2.1 3.85 -0.25 3.95 -0.4 4.1 -0.6 4.2 -0.7 4.25 -0.8 3.6 -0.4 3.25 -0.2 2.15 0.4 -2.25 2.3 -2.95 2.65 Q-0.75 1.1 1.75 -0.05 3.75 -0.95 5.2 -2.45 L5.3 -2.55 6.9 -4.95 7.2 -4.3 7.2 -2.55 Q7.0 -1.4 6.35 -0.5 L6.3 -0.4 5.7 0.35 5.65 0.35 5.7 0.4 5.35 0.9 4.75 1.25 4.65 1.4 3.9 2.05 3.25 2.55 3.2 2.6 0.65 4.05 Q-1.3 5.1 -3.6 5.2 L-6.2 5.05 -7.1 4.85 -7.2 4.8 -7.1 4.45" fill="#d6baba" fill-rule="evenodd" stroke="none"/>
    <path d="M3.0 -5.05 L1.45 -4.6 0.25 -4.1 -0.45 -3.8 Q-3.45 -2.55 -5.15 0.15 -6.45 2.15 -7.1 4.45 L-7.2 4.8 -7.1 4.85 -6.2 5.05 -3.6 5.2 Q-1.3 5.1 0.65 4.05 L3.2 2.6 3.25 2.55 3.9 2.05 4.65 1.4 M5.7 0.35 L6.3 -0.4 6.35 -0.5 Q7.0 -1.4 7.2 -2.55 L7.2 -4.3 M5.7 0.35 L5.7 0.4 5.35 0.9" fill="none" stroke="#a36a6a" stroke-linecap="round" stroke-linejoin="round" stroke-width="1"/>
  </g>
</svg>