<?xml version="1.0" encoding="UTF-8" standalone="no"?>
<svg xmlns:xlink="http://www.w3.org/1999/xlink" height="12.5px" width="8.65px" xmlns="http://www.w3.org/2000/svg">
  <g id="shape0" transform="matrix(1.0, 0.0, 0.0, 1.0, 4.35, 6.25)">
    <path d="M0.4 -5.25 L0.45 -4.7 0.45 -4.6 0.9 -3.1 1.6 -1.6 2.45 0.0 2.6 0.3 Q3.25 1.4 3.3 2.7 L3.15 3.8 2.15 4.8 0.0 5.25 -1.95 4.6 -2.95 3.45 -3.35 2.1 -3.3 2.05 -2.75 0.7 -2.05 -0.85 -1.85 -2.1 -1.85 -2.3 -1.95 -3.6 Q-1.55 -5.1 0.4 -5.25" fill="#d6baba" fill-rule="evenodd" stroke="none"/>
    <path d="M-1.95 -3.6 L-1.85 -2.3 -1.85 -2.1 -2.05 -0.85 -2.75 0.7 -3.3 2.05 -3.35 2.1 -2.95 3.45 -1.95 4.6 0.0 5.25 2.15 4.8 3.15 3.8 3.3 2.7 Q3.25 1.4 2.6 0.3 L2.45 0.0 1.6 -1.6 0.9 -3.1 0.45 -4.6 0.45 -4.7 0.4 -5.25" fill="none" stroke="#a36a6a" stroke-linecap="round" stroke-linejoin="round" stroke-width="1"/>
  </g>
</svg>