<?xml version="1.0" encoding="UTF-8" standalone="no"?>
<svg xmlns:xlink="http://www.w3.org/1999/xlink" height="8.05px" width="8.35px" xmlns="http://www.w3.org/2000/svg">
  <g id="shape0" transform="matrix(1.0, 0.0, 0.0, 1.0, 4.2, 4)">
    <path d="M2.05 2.2 L2.15 2.2 2.05 2.2" fill="#d6baba" fill-rule="evenodd" stroke="none"/>
    <path d="M-2.8 -2.35 L-2.1 -2.55 -0.45 -3.0 -0.05 -2.8 0.3 -2.15 0.2 -1.25 0.05 -0.9 Q0.9 -1.65 1.85 -1.6 2.6 -1.55 2.9 -0.95 L3.05 -0.6 3.15 -0.4 2.4 -0.35 1.95 -0.4 Q1.5 -0.25 1.1 0.05 L0.9 0.15 0.85 0.2 Q1.5 0.55 1.85 1.3 L2.15 2.2 2.05 2.2 1.6 1.75 Q1.0 1.15 0.25 1.0 L0.05 0.9 0.15 2.5 0.2 3.05 0.0 2.75 Q-0.1 2.25 -0.45 2.0 L-1.0 1.55 -1.25 1.4 -1.45 1.4 Q-1.7 1.45 -1.55 1.2 L-1.35 0.9 -1.0 0.25 Q-0.9 -0.15 -0.95 -0.5 -0.95 -1.0 -1.5 -1.25 L-1.95 -1.3 -2.45 -1.3 -2.7 -1.25 -3.2 -1.05 -3.15 -1.5 -2.8 -2.35" fill="#ffffcc" fill-rule="evenodd" stroke="none"/>
    <path d="M-2.8 -2.35 L-2.1 -2.55 -0.45 -3.0 -0.05 -2.8 0.3 -2.15 0.2 -1.25 0.05 -0.9 Q0.9 -1.65 1.85 -1.6 2.6 -1.55 2.9 -0.95 L3.05 -0.6 3.15 -0.4 2.4 -0.35 1.95 -0.4 Q1.5 -0.25 1.1 0.05 L0.9 0.15 0.85 0.2 Q1.5 0.55 1.85 1.3 L2.15 2.2 2.15 2.3 2.05 2.2 1.6 1.75 Q1.0 1.15 0.25 1.0 L0.05 0.9 0.15 2.5 0.2 3.05 0.0 2.75 Q-0.1 2.25 -0.45 2.0 L-1.0 1.55 -1.25 1.4 -1.45 1.4 Q-1.7 1.45 -1.55 1.2 L-1.35 0.9 -1.0 0.25 Q-0.9 -0.15 -0.95 -0.5 -0.95 -1.0 -1.5 -1.25 L-1.95 -1.3 -2.45 -1.3 -2.7 -1.25 -3.2 -1.05" fill="none" stroke="#a36a6a" stroke-linecap="round" stroke-linejoin="round" stroke-width="1"/>
  </g>
</svg>