<?xml version="1.0" encoding="UTF-8" standalone="no"?>
<svg xmlns:xlink="http://www.w3.org/1999/xlink" height="7.25px" width="12.15px" xmlns="http://www.w3.org/2000/svg">
  <g transform="matrix(1.0, 0.0, 0.0, 1.0, 6.05, 3.65)">
    <path d="M0.1 -2.45 L0.8 -0.75 1.45 0.95 2.0 2.6 0.3 2.55 -0.15 0.65 -0.15 0.5 -0.2 1.05 -0.3 2.5 -2.15 2.1 -2.25 0.25 Q-2.9 0.7 -2.65 2.0 L-3.4 1.75 -4.25 1.2 -5.05 0.45 -3.9 -0.6 -2.75 -1.5 -1.35 -1.95 0.1 -2.45" fill="#faf8f8" fill-rule="evenodd" stroke="none"/>
    <path d="M2.0 2.6 L1.45 0.95 0.8 -0.75 0.1 -2.45 2.0 -2.65 2.85 -2.0 5.1 0.15 4.5 0.9 3.3 1.9 2.0 2.6 M-2.65 2.0 Q-2.9 0.7 -2.25 0.25 L-2.15 2.1 -2.65 2.0 M-0.3 2.5 L-0.2 1.05 -0.15 0.5 -0.15 0.65 0.3 2.55 0.3 2.6 -0.2 2.55 -0.3 2.5 M0.3 2.55 L-0.2 2.55 0.3 2.55" fill="#d6baba" fill-rule="evenodd" stroke="none"/>
    <path d="M2.0 2.6 L3.3 1.9 4.5 0.9 5.1 0.15 2.85 -2.0 2.0 -2.65 0.1 -2.45 -1.35 -1.95 -2.75 -1.5 -3.9 -0.6 -5.05 0.45 -4.25 1.2 -3.4 1.75 -2.65 2.0 -2.15 2.1 -0.3 2.5 -0.2 2.55 0.3 2.55 2.0 2.6 Z" fill="none" stroke="#660000" stroke-linecap="round" stroke-linejoin="round" stroke-opacity="0.4" stroke-width="1"/>
  </g>
</svg>