<?xml version="1.0" encoding="UTF-8" standalone="no"?>
<svg xmlns:xlink="http://www.w3.org/1999/xlink" height="18.4px" width="18.45px" xmlns="http://www.w3.org/2000/svg">
  <g transform="matrix(1.0, 0.0, 0.0, 1.0, -1.85, -2.65)">
    <path d="M7.75 16.4 L7.8 16.35 8.8 16.15 9.25 18.5 9.3 18.7 9.95 17.8 10.1 18.4 10.25 18.65 10.15 18.7 10.0 18.95 9.25 20.05 9.1 19.15 8.2 17.1 8.15 17.15 6.35 17.7 3.2 18.4 Q3.65 16.05 6.3 13.85 L2.85 11.85 Q4.95 11.2 8.1 9.5 8.05 6.95 9.65 3.65 L10.6 4.85 12.25 7.85 Q12.8 7.3 14.95 6.7 17.05 6.05 17.05 6.35 L16.25 10.5 Q16.25 11.0 17.7 11.35 19.2 11.8 19.3 12.35 L17.85 13.6 15.5 15.5 15.4 15.5 15.45 15.15 15.35 15.45 15.25 15.4 14.85 15.25 15.0 14.95 15.05 14.85 17.25 12.95 17.9 12.4 16.9 12.05 16.0 11.85 Q15.2 11.85 15.2 11.3 L15.6 9.35 16.1 7.1 Q15.15 7.35 12.1 8.8 11.75 8.8 10.0 5.4 L9.85 5.15 9.25 7.55 9.3 7.6 8.7 9.85 Q8.45 10.6 6.1 11.5 L4.15 11.95 5.55 12.6 7.8 13.6 7.9 13.65 6.3 15.05 Q4.8 16.5 4.45 17.3 L7.75 16.4" fill="#b47777" fill-rule="evenodd" stroke="none"/>
    <path d="M17.25 12.95 L15.85 12.35 Q14.85 11.8 14.85 11.65 L14.95 11.35 15.0 11.0 15.25 10.15 15.45 8.5 15.3 7.75 15.45 7.55 11.9 9.35 10.05 6.75 10.0 6.8 9.95 7.0 Q9.7 7.45 9.7 8.15 L9.7 8.6 9.2 10.65 9.1 11.05 8.95 11.2 7.5 11.65 5.5 12.05 5.55 12.1 Q6.4 12.1 8.5 13.95 L6.1 16.2 6.6 16.25 7.75 16.4 4.45 17.3 Q4.8 16.5 6.3 15.05 L7.9 13.65 7.8 13.6 5.55 12.6 4.15 11.95 6.1 11.5 Q8.45 10.6 8.7 9.85 L9.3 7.6 9.25 7.55 9.85 5.15 10.0 5.4 Q11.75 8.8 12.1 8.8 15.15 7.35 16.1 7.1 L15.6 9.35 15.2 11.3 Q15.2 11.85 16.0 11.85 L16.9 12.05 17.9 12.4 17.25 12.95" fill="#ffffff" fill-rule="evenodd" stroke="none"/>
    <path d="M7.75 16.4 L6.6 16.25 6.1 16.2 8.5 13.95 Q6.4 12.1 5.55 12.1 L5.5 12.05 7.5 11.65 8.95 11.2 9.1 11.05 9.2 10.65 9.7 8.6 9.7 8.15 Q9.7 7.45 9.95 7.0 L10.0 6.8 10.05 6.75 11.9 9.35 15.45 7.55 15.3 7.75 15.45 8.5 15.25 10.15 15.0 11.0 14.95 11.35 14.85 11.65 Q14.85 11.8 15.85 12.35 L17.25 12.95 15.05 14.85 14.9 14.85 15.6 13.95 16.6 13.15 16.45 13.05 13.85 12.2 15.3 8.35 13.7 9.3 11.85 10.5 10.4 8.2 10.0 9.35 9.7 11.05 9.8 11.9 9.7 11.95 9.65 11.9 9.55 11.95 Q7.75 11.95 7.35 12.35 L10.2 13.55 7.65 15.6 7.7 15.65 9.25 15.2 9.4 15.15 9.55 15.6 9.55 15.9 9.35 17.1 9.25 18.5 8.8 16.15 7.8 16.35 7.75 16.4" fill="#e2cece" fill-rule="evenodd" stroke="none"/>
    <path d="M15.35 15.45 L15.05 16.65 14.25 15.1 14.85 15.25 15.25 15.4 15.35 15.45 M10.55 17.85 L10.5 18.0 10.2 18.35 10.1 18.4 9.95 17.8 9.9 17.45 9.8 17.0 9.95 16.8 10.5 17.95 10.55 17.8 10.55 17.85" fill="#b47777" fill-opacity="0.47843137" fill-rule="evenodd" stroke="none"/>
    <path d="M14.3 17.5 L14.05 18.3 14.0 18.3 13.45 17.55 13.15 17.1 12.85 16.8 12.85 17.25 12.6 18.55 12.0 17.15 12.05 17.0 12.6 15.5 12.7 15.4 13.25 16.5 13.55 15.7 14.3 17.5 M10.5 18.0 L10.35 18.4 10.25 18.65 10.1 18.4 10.2 18.35 10.5 18.0" fill="#c9a5a5" fill-opacity="0.4" fill-rule="evenodd" stroke="none"/>
    <path d="M15.5 15.5 L15.4 15.65 15.4 15.5 15.5 15.5 M15.05 16.65 L14.95 17.1 14.75 16.55 14.65 16.4 14.5 16.45 14.3 17.5 13.55 15.7 13.85 15.0 13.95 15.1 14.0 15.05 14.15 15.1 14.25 15.1 15.05 16.65 M12.6 18.55 L12.55 18.85 12.55 19.05 11.3 17.95 10.75 17.55 10.55 17.85 10.55 17.8 10.5 17.95 9.95 16.8 10.55 16.0 11.9 17.35 12.0 17.15 12.6 18.55" fill="#e2cfcf" fill-opacity="0.4" fill-rule="evenodd" stroke="none"/>
    <path d="M9.25 18.5 L9.35 17.1 9.55 15.9 9.55 15.6 9.4 15.15 9.25 15.2 7.7 15.65 7.65 15.6 10.2 13.55 7.35 12.35 Q7.75 11.95 9.55 11.95 L9.65 11.9 9.7 11.95 9.8 11.9 9.7 11.05 10.0 9.35 10.4 8.2 11.85 10.5 13.7 9.3 15.3 8.35 13.85 12.2 16.45 13.05 16.6 13.15 15.6 13.95 14.9 14.85 15.05 14.85 15.0 14.95 14.85 15.25 14.25 15.1 14.15 15.1 14.0 15.05 13.95 15.1 13.85 15.0 13.55 15.7 13.25 16.5 12.7 15.4 12.6 15.5 12.05 17.0 12.0 17.15 11.9 17.35 10.55 16.0 9.95 16.8 9.8 17.0 9.9 17.45 9.95 17.8 9.3 18.7 9.25 18.5" fill="url(#gradient0)" fill-rule="evenodd" stroke="none"/>
  </g>
  <defs>
    <linearGradient gradientTransform="matrix(0.001, -0.0061, 0.002, 4.0E-4, 22.35, 38.95)" gradientUnits="userSpaceOnUse" id="gradient0" spreadMethod="pad" x1="-819.2" x2="819.2">
      <stop offset="0.0" stop-color="#c29a9a"></stop>
      <stop offset="1.0" stop-color="#d4a7a7"></stop>
    </linearGradient>
  </defs>
</svg>