<?xml version="1.0" encoding="UTF-8" standalone="no"?>
<svg xmlns:xlink="http://www.w3.org/1999/xlink" height="29.5px" width="30.85px" xmlns="http://www.w3.org/2000/svg">
  <g transform="matrix(1.0, 0.0, 0.0, 1.0, 1, 1)">
    <path d="M22.15 5.35 Q24.3 5.45 25.35 6.75 L25.55 7.65 26.25 9.55 26.6 11.25 26.8 13.7 26.75 15.15 Q27.75 15.75 28.85 18.8 L28.8 18.9 Q25.9 22.45 20.7 22.45 19.15 22.45 13.6 25.0 L10.9 26.2 7.35 27.5 Q5.75 27.5 4.45 25.85 3.15 24.2 3.35 23.65 3.55 23.1 4.3 22.1 L5.5 20.8 5.55 20.75 7.75 19.5 8.4 19.15 9.45 18.6 Q8.4 18.05 7.75 16.65 L7.4 15.5 7.2 14.3 7.3 13.85 0.45 13.0 0.0 10.85 0.0 10.7 Q0.9 8.25 2.7 7.6 L9.55 7.9 17.0 8.75 16.95 8.65 16.1 7.95 15.5 7.3 15.35 7.2 Q14.35 5.95 14.35 4.6 L15.0 2.25 Q16.25 0.0 19.25 0.0 20.5 0.0 20.95 2.7 21.4 5.35 22.15 5.35 M21.35 14.65 L22.75 15.25 24.2 15.75 Q25.45 15.45 25.85 14.65 L26.0 14.0 25.85 11.75 25.7 10.05 24.65 7.5 Q24.05 6.25 22.3 6.2 21.55 6.15 21.05 4.6 L19.6 1.05 17.9 0.9 Q16.15 1.25 15.45 3.15 14.75 5.05 15.05 5.7 15.3 6.3 16.75 7.3 L18.3 5.5 18.45 5.35 18.25 5.7 17.75 6.75 17.45 7.6 17.4 7.75 17.75 8.1 18.0 7.65 Q18.8 6.6 19.5 6.1 L20.2 6.15 19.5 7.0 18.5 8.2 18.2 8.75 18.25 8.95 18.45 10.55 Q18.4 11.05 19.25 12.5 L20.6 14.25 21.35 14.65 M5.35 25.35 Q6.55 26.55 7.75 26.55 8.35 26.55 10.65 25.55 L14.0 24.0 Q19.2 21.45 20.4 21.45 L23.65 21.45 Q26.6 20.15 27.25 19.05 27.9 18.0 25.7 15.6 24.75 16.25 23.35 16.25 L20.6 15.6 Q18.85 15.65 17.45 17.7 L16.9 18.5 16.9 18.05 17.6 16.75 18.6 15.25 19.7 15.0 Q18.9 14.4 18.45 13.5 17.9 11.15 17.85 10.1 L15.5 9.25 Q13.2 8.5 13.1 9.55 13.0 10.55 13.25 11.15 L13.55 11.6 Q15.95 12.05 16.9 13.35 L16.95 13.35 Q17.4 14.25 17.4 15.55 17.2 16.45 16.25 17.3 L14.95 18.2 Q16.8 19.2 17.1 20.9 L17.1 20.95 17.05 21.05 Q16.55 20.35 13.9 18.6 L12.25 18.9 10.95 18.95 10.85 18.95 10.55 18.95 10.15 19.2 9.25 19.75 9.2 19.8 9.25 19.85 9.5 20.8 Q9.75 21.7 10.6 22.2 L11.25 22.5 11.15 22.75 10.75 22.85 10.05 22.7 9.5 22.25 8.9 21.4 8.85 21.25 8.45 20.25 Q6.55 21.5 5.1 22.75 4.05 23.65 5.2 25.2 L5.35 25.35 M7.0 11.05 L6.95 11.35 7.75 12.75 8.2 12.7 8.8 12.25 Q9.85 11.7 11.1 11.5 L12.35 11.4 12.45 11.4 12.05 10.25 12.25 9.25 12.35 9.1 12.0 9.05 11.55 9.0 10.8 8.9 4.8 8.25 Q1.8 8.25 1.15 9.75 L1.05 11.15 1.1 12.0 1.9 12.25 Q4.1 13.1 5.2 13.1 L6.3 13.0 6.85 12.95 6.25 11.2 6.25 11.05 Q6.2 9.0 7.4 9.05 7.05 10.2 7.0 11.05 M9.3 13.3 L8.6 13.65 8.5 15.1 8.7 16.5 9.65 17.3 9.75 17.4 10.3 17.7 12.1 18.35 Q13.15 18.6 15.5 16.9 L14.0 17.05 Q13.2 17.05 12.55 15.3 L12.15 13.6 Q12.15 13.1 14.85 12.4 13.9 11.9 12.35 12.05 L10.8 12.6 9.3 13.3 M16.45 15.25 L16.05 13.55 15.9 13.3 15.7 13.1 13.15 13.85 13.45 15.1 Q13.85 16.15 14.5 16.15 15.95 16.15 16.45 15.3 L16.45 15.25" fill="#a36a6a" fill-rule="evenodd" stroke="none"/>
    <path d="M17.9 0.9 L19.6 1.05 21.05 4.6 Q21.55 6.15 22.3 6.2 24.05 6.25 24.65 7.5 L25.7 10.05 25.85 11.75 26.0 14.0 25.85 14.65 Q25.45 15.45 24.2 15.75 L22.75 15.25 21.35 14.65 22.15 12.9 Q20.45 7.15 19.5 7.0 L20.2 6.15 19.5 6.1 Q18.8 6.6 18.0 7.65 L17.75 8.1 17.4 7.75 17.45 7.6 17.75 6.75 18.25 5.7 18.45 5.35 18.3 5.5 18.45 5.05 18.6 3.9 Q18.6 2.9 18.25 1.85 L17.9 0.9 M12.25 18.9 L13.9 18.6 Q16.55 20.35 17.05 21.05 L17.1 20.95 17.1 20.9 Q16.8 19.2 14.95 18.2 L16.25 17.3 Q17.2 16.45 17.4 15.55 17.4 14.25 16.95 13.35 L16.9 13.35 Q15.95 12.05 13.55 11.6 L13.25 11.15 Q13.0 10.55 13.1 9.55 13.2 8.5 15.5 9.25 L17.85 10.1 Q17.9 11.15 18.45 13.5 18.9 14.4 19.7 15.0 L18.6 15.25 17.6 16.75 16.9 18.05 16.9 18.5 17.45 17.7 Q18.85 15.65 20.6 15.6 L23.35 16.25 Q24.75 16.25 25.7 15.6 27.9 18.0 27.25 19.05 26.6 20.15 23.65 21.45 L20.4 21.45 Q19.2 21.45 14.0 24.0 L10.65 25.55 Q8.35 26.55 7.75 26.55 6.55 26.55 5.35 25.35 6.35 25.3 8.4 23.9 L9.75 22.9 9.8 22.85 Q9.9 22.75 10.05 22.7 L10.75 22.85 11.15 22.75 11.25 22.5 10.6 22.2 Q12.9 20.3 12.9 19.8 L12.65 19.05 12.25 18.9 M7.0 11.05 L7.65 11.0 10.5 10.65 11.3 10.4 Q12.05 9.95 12.05 9.25 L12.0 9.05 12.35 9.1 12.25 9.25 12.05 10.25 12.45 11.4 12.35 11.4 11.1 11.5 Q9.85 11.7 8.8 12.25 L8.2 12.7 7.75 12.75 6.95 11.35 7.0 11.05 M1.05 11.15 L1.95 11.15 6.25 11.05 6.25 11.2 6.85 12.95 6.3 13.0 5.2 13.1 Q4.1 13.1 1.9 12.25 L1.1 12.0 1.05 11.15 M9.3 13.3 L10.8 12.6 12.35 12.05 Q13.9 11.9 14.85 12.4 12.15 13.1 12.15 13.6 L12.55 15.3 Q13.2 17.05 14.0 17.05 L15.5 16.9 Q13.15 18.6 12.1 18.35 L10.3 17.7 10.5 17.5 Q11.0 16.95 11.0 16.45 L10.25 14.8 9.3 13.3" fill="#dbb9b9" fill-rule="evenodd" stroke="none"/>
    <path d="M17.9 0.9 L18.25 1.85 Q18.6 2.9 18.6 3.9 L18.45 5.05 18.3 5.5 16.75 7.3 Q15.3 6.3 15.05 5.7 14.75 5.05 15.45 3.15 16.15 1.25 17.9 0.9 M19.5 7.0 Q20.45 7.15 22.15 12.9 L21.35 14.65 20.6 14.25 19.25 12.5 Q18.4 11.05 18.45 10.55 L18.25 8.95 18.2 8.75 18.5 8.2 19.5 7.0 M12.25 18.9 L12.65 19.05 12.9 19.8 Q12.9 20.3 10.6 22.2 9.75 21.7 9.5 20.8 L9.25 19.85 9.2 19.8 9.25 19.75 10.15 19.2 10.85 18.95 10.95 18.95 12.25 18.9 M10.05 22.7 Q9.9 22.75 9.8 22.85 L9.75 22.9 8.4 23.9 Q6.35 25.3 5.35 25.35 L5.2 25.2 Q4.05 23.65 5.1 22.75 6.55 21.5 8.45 20.25 L8.85 21.25 8.9 21.4 9.5 22.25 10.05 22.7 M12.0 9.05 L12.05 9.25 Q12.05 9.95 11.3 10.4 L10.5 10.65 7.65 11.0 7.0 11.05 Q7.05 10.2 7.4 9.05 6.2 9.0 6.25 11.05 L1.95 11.15 1.05 11.15 1.15 9.75 Q1.8 8.25 4.8 8.25 L10.8 8.9 11.55 9.0 12.0 9.05 M10.3 17.7 L9.75 17.4 9.65 17.3 8.7 16.5 8.5 15.1 8.6 13.65 9.3 13.3 10.25 14.8 11.0 16.45 Q11.0 16.95 10.5 17.5 L10.3 17.7 M16.45 15.25 L16.45 15.3 Q15.95 16.15 14.5 16.15 13.85 16.15 13.45 15.1 L13.15 13.85 15.7 13.1 15.9 13.3 16.05 13.55 16.45 15.25" fill="#ffffff" fill-rule="evenodd" stroke="none"/>
  </g>
</svg>