<?xml version="1.0" encoding="UTF-8" standalone="no"?>
<svg xmlns:xlink="http://www.w3.org/1999/xlink" height="17.45px" width="17px" xmlns="http://www.w3.org/2000/svg">
  <g transform="matrix(1.0, 0.0, 0.0, 1.0, 1, 1)">
    <path d="M11.3 5.0 L11.5 4.95 12.4 5.9 Q13.15 6.9 13.15 7.55 L12.5 9.8 11.5 11.1 10.0 12.5 8.35 13.3 7.05 13.65 6.6 13.45 6.25 13.15 8.95 10.75 Q11.65 8.5 11.65 7.0 L11.6 6.7 11.4 5.45 11.25 5.1 11.3 5.0" fill="#d4a7a7" fill-rule="evenodd" stroke="none"/>
    <path d="M11.3 5.0 L11.25 5.1 11.4 5.45 11.6 6.7 11.65 7.0 Q11.65 8.5 8.95 10.75 L6.25 13.15 6.6 13.45 7.05 13.65 8.35 13.3 10.0 12.5 11.5 11.1 12.5 9.8 13.15 7.55 Q13.15 6.9 12.4 5.9 L11.5 4.95 11.3 5.0 M9.1 1.35 Q10.2 1.65 11.7 3.05 13.85 5.0 13.85 6.45 13.85 9.9 12.85 11.2 11.8 12.5 9.2 13.65 6.55 14.75 5.0 14.55 3.4 14.35 2.4 13.8 L1.75 13.35 Q1.8 13.0 2.5 12.7 L4.2 12.45 Q5.25 12.45 6.5 11.9 7.7 11.35 8.95 10.0 L10.4 8.05 10.95 6.45 11.05 5.75 Q11.05 4.95 10.1 3.4 L9.1 1.45 9.1 1.35" fill="#e2cece" fill-rule="evenodd" stroke="none"/>
    <path d="M1.75 13.35 L2.4 13.8 Q3.4 14.35 5.0 14.55 6.55 14.75 9.2 13.65 11.8 12.5 12.85 11.2 13.85 9.9 13.85 6.45 13.85 5.0 11.7 3.05 10.2 1.65 9.1 1.35 8.95 1.3 8.95 1.05 8.2 6.95 5.9 8.45 3.55 9.95 2.75 10.1 L1.05 11.65 Q1.05 12.65 1.75 13.35 M15.0 6.45 Q15.0 10.65 11.9 13.25 9.3 15.45 6.3 15.45 L4.05 15.05 3.85 15.0 2.9 14.75 0.8 13.9 0.15 11.9 0.0 11.15 1.0 10.1 2.0 9.1 Q3.3 8.6 5.1 7.25 6.85 5.9 7.25 4.15 7.6 2.4 7.45 1.35 7.85 0.35 8.1 0.25 L9.2 0.0 Q9.95 0.0 12.2 1.8 15.0 4.05 15.0 6.45" fill="#b47777" fill-rule="evenodd" stroke="none"/>
    <path d="M9.1 1.35 L9.1 1.45 10.1 3.4 Q11.05 4.95 11.05 5.75 L10.95 6.45 10.4 8.05 8.95 10.0 Q7.7 11.35 6.5 11.9 5.25 12.45 4.2 12.45 L2.5 12.7 Q1.8 13.0 1.75 13.35 1.05 12.65 1.05 11.65 L2.75 10.1 Q3.55 9.95 5.9 8.45 8.2 6.95 8.95 1.05 8.95 1.3 9.1 1.35" fill="#ffffff" fill-rule="evenodd" stroke="none"/>
  </g>
</svg>