<?xml version="1.0" encoding="UTF-8" standalone="no"?>
<svg xmlns:xlink="http://www.w3.org/1999/xlink" height="15.8px" width="17.05px" xmlns="http://www.w3.org/2000/svg">
  <g transform="matrix(1.0, 0.0, 0.0, 1.0, -2.95, -2.3)">
    <path d="M18.2 4.15 Q18.4 4.35 18.4 4.7 L18.4 4.8 17.9 5.85 17.45 7.05 17.55 7.35 19.0 8.4 19.0 8.45 Q19.0 8.9 18.1 9.2 17.3 9.4 17.05 9.55 L18.7 11.35 18.3 11.6 16.1 11.3 17.05 12.8 15.65 13.15 14.0 13.15 Q14.05 14.15 14.45 15.5 14.45 15.8 13.7 16.05 L11.85 14.8 11.0 16.05 9.65 17.1 Q9.5 16.4 9.7 15.4 L9.7 14.85 8.35 15.6 8.35 15.5 8.25 14.6 8.15 14.3 7.95 14.2 4.8 14.3 5.05 13.65 5.65 12.5 3.95 11.2 5.7 10.4 4.95 8.05 5.0 7.65 7.7 7.95 8.1 6.6 Q8.7 4.5 9.1 4.5 L9.85 4.9 10.5 5.35 11.15 4.35 Q11.55 3.6 11.8 3.6 12.2 3.6 12.3 4.05 L12.4 4.85 14.0 3.3 Q13.95 3.65 14.7 4.85 L16.3 4.55 18.1 4.2 18.2 4.15 M17.55 8.25 L17.05 7.95 Q16.6 7.75 16.6 7.05 16.6 6.4 17.25 5.1 L14.8 5.6 Q13.95 5.8 13.7 4.15 L12.3 5.85 11.9 5.7 11.75 4.3 10.55 6.5 9.25 5.6 Q8.25 8.05 8.1 8.8 L7.85 8.8 5.8 8.7 7.0 10.95 Q6.75 11.2 6.15 11.25 L5.4 11.35 5.35 11.5 7.15 12.5 5.95 13.55 8.8 13.2 8.9 13.8 9.0 14.8 Q9.1 14.45 10.05 13.65 L10.3 15.15 11.35 13.75 11.5 13.6 11.5 13.55 11.55 13.45 11.85 13.05 11.95 13.2 12.8 14.5 13.3 14.9 13.4 14.85 13.0 13.0 Q13.0 12.4 14.3 12.25 L14.4 12.25 15.65 12.25 15.9 12.2 15.75 11.85 15.65 11.65 15.25 10.65 17.5 10.9 Q16.85 10.35 16.25 9.1 L16.85 8.75 17.75 8.45 17.55 8.25" fill="#b47777" fill-rule="evenodd" stroke="none"/>
    <path d="M8.9 13.8 L8.8 13.2 5.95 13.55 7.15 12.5 5.35 11.5 5.4 11.35 6.15 11.25 Q6.75 11.2 7.0 10.95 L5.8 8.7 7.85 8.8 8.1 8.8 Q8.25 8.05 9.25 5.6 L10.55 6.5 11.75 4.3 11.9 5.7 12.3 5.85 13.7 4.15 Q13.95 5.8 14.8 5.6 L17.25 5.1 Q16.6 6.4 16.6 7.05 16.6 7.75 17.05 7.95 L17.55 8.25 15.4 8.75 15.15 8.75 15.0 8.45 16.35 7.75 Q14.9 7.3 14.9 7.0 L15.6 6.15 14.45 6.7 13.75 6.95 Q13.5 6.95 13.4 6.5 L13.15 5.65 11.95 7.15 11.5 6.3 11.45 6.5 11.35 7.75 11.2 8.5 9.75 7.5 9.7 7.6 9.75 9.65 9.5 9.65 9.1 9.7 8.2 9.9 7.3 10.25 Q7.55 10.25 8.05 10.6 L8.7 11.05 6.95 11.75 8.2 12.05 8.95 12.3 9.1 12.25 9.55 12.2 9.75 12.25 9.1 13.6 8.9 13.8" fill="#ffffff" fill-rule="evenodd" stroke="none"/>
    <path d="M8.9 13.8 L9.1 13.6 9.75 12.25 9.55 12.2 9.1 12.25 8.95 12.3 8.2 12.05 6.95 11.75 8.7 11.05 8.05 10.6 Q7.55 10.25 7.3 10.25 L8.2 9.9 9.1 9.7 9.5 9.65 9.75 9.65 9.7 7.6 9.75 7.5 11.2 8.5 11.35 7.75 11.45 6.5 11.5 6.3 11.95 7.15 13.15 5.65 13.4 6.5 Q13.5 6.95 13.75 6.95 L14.45 6.7 15.6 6.15 14.9 7.0 Q14.9 7.3 16.35 7.75 L15.0 8.45 15.15 8.75 15.4 8.75 17.55 8.25 17.75 8.45 16.85 8.75 16.25 9.1 Q16.85 10.35 17.5 10.9 L15.25 10.65 15.65 11.65 14.75 10.85 14.2 10.15 14.65 9.75 Q15.1 9.4 15.3 9.4 L15.8 9.25 15.75 9.15 15.5 9.25 15.2 9.15 14.15 9.3 14.15 8.8 14.25 8.25 14.3 7.9 12.85 9.35 12.15 8.1 Q11.85 8.3 11.85 9.1 11.85 10.25 11.6 10.25 L10.45 10.05 10.0 10.0 9.85 10.05 9.9 10.15 10.3 10.55 10.55 11.05 9.5 11.2 9.3 11.2 10.05 11.5 Q10.65 11.7 10.65 11.85 L9.9 13.15 9.75 13.3 10.7 12.75 11.55 12.15 11.35 13.75 10.3 15.15 10.05 13.65 Q9.1 14.45 9.0 14.8 L8.9 13.8 M15.75 11.85 L15.9 12.2 15.65 12.25 14.4 12.25 14.2 12.05 14.0 11.7 15.75 11.85 M11.55 13.45 L11.5 13.55 11.55 13.4 11.55 13.45" fill="#e2cece" fill-rule="evenodd" stroke="none"/>
    <path d="M15.65 11.65 L15.75 11.85 14.0 11.7 14.2 12.05 14.4 12.25 14.3 12.25 Q13.0 12.4 13.0 13.0 L13.4 14.85 13.3 14.9 12.8 14.5 11.95 13.2 11.85 13.05 11.55 13.45 11.55 13.4 11.5 13.55 11.5 13.6 11.35 13.75 11.55 12.15 10.7 12.75 9.75 13.3 9.9 13.15 10.65 11.85 Q10.65 11.7 10.05 11.5 L9.3 11.2 9.5 11.2 10.55 11.05 10.3 10.55 9.9 10.15 9.85 10.05 10.0 10.0 10.45 10.05 11.6 10.25 Q11.85 10.25 11.85 9.1 11.85 8.3 12.15 8.1 L12.85 9.35 14.3 7.9 14.25 8.25 14.15 8.8 14.15 9.3 15.2 9.15 15.5 9.25 15.75 9.15 15.8 9.25 15.3 9.4 Q15.1 9.4 14.65 9.75 L14.2 10.15 14.75 10.85 15.65 11.65" fill="#d4a7a7" fill-rule="evenodd" stroke="none"/>
  </g>
</svg>