<?xml version="1.0" encoding="UTF-8" standalone="no"?>
<svg xmlns:xlink="http://www.w3.org/1999/xlink" height="20.25px" width="27.55px" xmlns="http://www.w3.org/2000/svg">
  <g transform="matrix(1.0, 0.0, 0.0, 1.0, 1, 1)">
    <path d="M9.1 4.2 L8.45 4.45 8.45 4.4 Q8.45 3.8 8.9 3.3 L13.0 1.65 12.6 2.3 12.1 3.1 12.95 2.7 14.2 2.05 15.1 1.5 Q16.6 0.65 18.2 0.65 L18.25 0.65 23.1 0.0 20.45 3.1 20.35 3.2 20.7 3.25 25.55 2.65 19.0 9.05 Q14.9 13.2 11.4 13.95 L13.1 14.15 13.8 14.2 11.25 15.5 Q7.95 16.6 6.25 16.6 5.65 16.6 4.2 16.05 L3.45 15.7 0.4 18.25 Q-0.6 16.35 0.8 14.65 L2.25 13.45 2.65 13.15 3.05 12.85 3.4 12.65 3.25 12.85 2.75 13.6 Q2.0 14.6 1.2 16.1 L3.4 14.6 4.75 15.0 5.95 15.4 6.6 15.55 9.8 15.1 Q12.45 14.55 10.55 14.7 8.6 14.9 8.45 14.7 L10.0 14.15 Q12.65 13.1 15.8 10.35 L17.05 9.15 21.5 4.05 18.2 4.5 20.6 1.5 17.4 1.75 17.3 1.8 Q16.75 1.85 15.2 2.55 14.1 3.0 12.55 3.75 L11.95 4.0 10.85 4.6 11.55 2.85 9.25 4.15 9.1 4.2 M8.7 4.9 L9.0 4.9 8.85 4.95 8.7 4.9" fill="#b47777" fill-rule="evenodd" stroke="none"/>
    <path d="M11.95 4.0 L12.55 3.75 Q14.1 3.0 15.2 2.55 16.75 1.85 17.3 1.8 L17.4 1.75 20.6 1.5 18.2 4.5 21.5 4.05 17.05 9.15 15.8 10.35 Q12.65 13.1 10.0 14.15 L8.45 14.7 Q8.6 14.9 10.55 14.7 12.45 14.55 9.8 15.1 L6.6 15.55 5.95 15.4 7.35 15.45 7.55 15.35 5.05 14.7 5.0 14.6 Q7.05 13.85 8.5 12.7 L11.95 9.45 12.25 9.1 12.7 8.4 13.6 7.25 15.0 5.9 16.0 5.15 16.0 5.1 13.0 6.2 12.95 6.25 Q12.95 5.9 14.15 4.7 14.45 4.35 15.7 3.3 L15.8 3.25 15.6 3.2 11.95 4.0 M19.5 2.2 L18.8 2.45 18.25 2.5 18.15 2.4 Q17.9 2.4 16.75 3.25 L16.6 3.4 15.75 4.05 15.95 4.0 16.6 3.8 17.15 3.7 17.3 3.65 17.5 3.55 17.6 3.65 19.5 2.2 M16.75 6.15 Q15.9 6.5 15.55 6.8 L14.8 7.6 Q14.2 8.1 13.45 9.3 L13.35 9.5 12.15 11.3 9.9 13.45 11.95 12.35 12.7 11.9 13.7 10.8 14.55 9.9 15.9 8.6 18.1 6.7 20.2 4.6 16.75 6.15" fill="#e2cece" fill-rule="evenodd" stroke="none"/>
    <path d="M19.5 2.2 L17.6 3.65 17.5 3.55 17.3 3.65 17.15 3.7 16.6 3.8 15.95 4.0 15.75 4.05 16.6 3.4 16.75 3.25 Q17.9 2.4 18.15 2.4 L18.25 2.5 18.8 2.45 19.5 2.2 M16.75 6.15 L20.2 4.6 18.1 6.7 15.9 8.6 14.55 9.9 13.7 10.8 12.7 11.9 11.95 12.35 9.9 13.45 12.15 11.3 13.35 9.5 13.45 9.3 Q14.2 8.1 14.8 7.6 L15.55 6.8 Q15.9 6.5 16.75 6.15" fill="#d4a7a7" fill-rule="evenodd" stroke="none"/>
    <path d="M3.05 12.85 Q3.75 11.65 4.4 10.75 L6.9 6.7 Q7.5 5.65 8.4 4.8 L9.1 4.2 9.25 4.15 11.55 2.85 10.85 4.6 11.95 4.0 15.6 3.2 15.8 3.25 15.7 3.3 Q14.45 4.35 14.15 4.7 12.95 5.9 12.95 6.25 L13.0 6.2 16.0 5.1 16.0 5.15 15.0 5.9 13.6 7.25 12.7 8.4 12.25 9.1 11.95 9.45 8.5 12.7 Q7.05 13.85 5.0 14.6 L5.05 14.7 7.55 15.35 7.35 15.45 5.95 15.4 4.75 15.0 3.4 14.6 1.2 16.1 Q2.0 14.6 2.75 13.6 L3.25 12.85 3.4 12.65 3.05 12.85 M8.7 4.9 L8.85 4.95 9.0 4.9 8.7 4.9" fill="#ffffff" fill-rule="evenodd" stroke="none"/>
  </g>
</svg>