<?xml version="1.0" encoding="UTF-8" standalone="no"?>
<svg xmlns:xlink="http://www.w3.org/1999/xlink" height="30.75px" width="14.05px" xmlns="http://www.w3.org/2000/svg">
  <g transform="matrix(1.0, 0.0, 0.0, 1.0, -14.7, -8.75)">
    <path d="M23.1 10.1 Q23.25 9.55 23.9 9.85 24.0 12.3 24.9 16.6 L25.55 19.5 26.15 20.7 26.85 22.85 27.4 25.05 27.6 27.1 27.75 28.65 Q27.25 27.45 27.2 26.4 27.1 25.1 26.25 23.05 L25.65 21.6 25.15 22.85 Q24.5 24.45 24.5 25.1 L25.15 28.55 Q25.15 29.7 23.85 31.95 22.5 34.2 22.5 36.2 22.5 37.05 23.0 38.45 L23.0 38.5 Q22.2 38.25 22.0 37.4 L21.95 36.15 Q21.95 35.5 23.15 32.55 L24.35 29.1 24.0 27.2 23.6 25.1 Q23.6 24.0 24.25 22.45 L24.9 20.9 Q23.05 13.45 23.05 10.95 L23.1 10.1 M17.9 14.3 Q17.7 14.65 17.05 18.2 L16.9 19.2 17.3 20.1 Q18.1 21.85 18.1 22.65 L17.8 27.25 17.6 27.55 Q16.95 27.1 16.95 26.55 L17.45 22.75 16.7 20.8 16.65 20.65 16.4 22.45 16.35 22.7 16.3 22.85 Q15.7 22.65 15.7 21.65 15.8 15.7 17.3 13.95 17.8 14.05 17.9 14.3" fill="#cc3333" fill-rule="evenodd" stroke="none"/>
  </g>
</svg>