<?xml version="1.0" encoding="UTF-8" standalone="no"?>
<svg xmlns:xlink="http://www.w3.org/1999/xlink" height="36.8px" width="34px" xmlns="http://www.w3.org/2000/svg">
  <g transform="matrix(1.0, 0.0, 0.0, 1.0, -11.45, -3.95)">
    <path d="M40.4 20.1 L40.45 20.75 41.85 19.2 42.7 18.15 43.4 16.6 Q43.65 15.45 42.9 14.75 L42.7 14.6 42.6 14.5 Q41.95 14.05 41.15 14.05 39.5 14.05 37.0 15.95 39.2 16.2 39.75 16.85 L39.85 17.0 40.1 17.8 40.4 20.1 M24.6 7.65 L24.65 7.6 24.75 7.5 Q25.35 7.7 26.15 9.0 L26.8 10.3 Q27.4 10.35 29.05 11.3 30.7 12.25 31.0 13.6 31.3 14.9 31.4 18.0 L31.4 22.75 33.55 19.55 35.4 16.65 35.9 15.95 Q36.55 15.05 37.3 14.5 38.9 13.2 40.85 13.2 41.75 13.2 42.7 13.85 L42.95 14.0 Q44.45 15.1 44.45 16.75 44.45 17.6 43.65 18.65 L41.9 20.4 35.1 26.2 31.25 30.5 Q30.35 31.8 29.45 34.7 L24.3 39.75 23.3 37.85 21.85 39.65 Q20.05 38.5 19.3 37.5 L18.2 37.2 17.05 36.8 17.05 35.75 19.25 36.55 19.25 36.2 19.25 35.8 19.3 34.6 19.6 33.8 19.65 33.7 19.8 33.45 19.8 33.5 19.95 34.85 Q20.5 37.85 21.1 38.4 L21.35 38.75 Q21.85 37.95 22.9 36.95 L23.0 36.85 23.5 36.25 23.9 35.75 23.9 35.85 23.9 36.25 Q23.95 37.25 24.25 37.8 L24.55 38.25 24.65 38.3 25.05 37.95 27.05 36.3 28.85 34.5 29.55 32.4 30.65 30.2 Q33.55 26.4 37.45 23.0 L37.3 23.1 37.45 23.0 39.0 21.85 39.0 21.8 39.55 20.85 Q39.9 19.75 39.35 18.4 L39.05 17.8 38.9 17.55 Q37.55 15.2 35.5 17.7 L33.4 20.65 32.55 22.05 29.75 26.75 29.9 25.75 30.1 23.35 30.2 21.1 30.4 15.95 Q30.7 13.2 29.0 12.1 27.25 10.95 26.75 10.85 L25.3 9.45 24.6 7.8 24.6 7.65 M17.05 28.6 Q17.2 26.85 16.75 25.45 L16.15 23.8 16.05 23.5 15.5 22.0 15.3 21.45 13.9 18.1 13.8 17.9 Q12.25 14.45 12.5 12.55 L12.5 12.5 12.55 12.55 14.1 16.5 14.35 17.1 15.1 18.9 15.35 19.55 16.5 22.8 17.75 26.8 17.75 26.9 Q17.75 27.8 17.2 28.5 L17.05 28.6" fill="#b47777" fill-rule="evenodd" stroke="none"/>
    <path d="M42.1 15.35 L41.7 14.95 39.75 16.85 Q39.2 16.2 37.0 15.95 39.5 14.05 41.15 14.05 41.95 14.05 42.6 14.5 L42.7 14.6 42.9 14.75 Q43.65 15.45 43.4 16.6 L42.7 18.15 41.85 19.2 40.45 20.75 40.4 20.1 Q42.65 18.05 42.7 16.25 L42.7 16.2 42.7 15.95 Q42.55 15.2 42.2 15.15 L42.1 15.35 M17.05 30.95 L17.05 28.6 17.2 28.5 18.5 29.95 18.6 28.6 18.15 27.35 17.75 26.8 16.5 22.8 15.35 19.55 15.75 18.55 17.35 18.65 19.55 18.75 20.3 18.5 22.3 18.0 Q24.2 18.0 25.4 20.0 26.25 21.45 26.4 23.1 L26.4 23.6 Q26.4 24.9 25.15 28.1 L24.55 29.3 24.55 29.35 23.2 31.65 23.15 31.6 22.4 30.0 21.6 28.7 19.95 31.8 17.05 30.95 M30.4 15.95 L30.2 21.1 30.1 23.35 29.9 25.75 29.75 26.75 29.45 27.45 29.8 23.3 29.85 21.75 30.4 15.95 M33.4 20.65 L35.5 17.7 Q37.55 15.2 38.9 17.55 37.05 19.0 33.4 20.65 M39.55 20.85 L39.0 21.8 39.0 21.85 37.45 23.0 37.3 23.1 39.55 20.85" fill="#ffffff" fill-rule="evenodd" stroke="none"/>
    <path d="M17.05 35.75 L17.05 32.1 Q19.0 32.95 19.6 33.8 L19.3 34.6 19.25 35.8 19.25 36.2 19.25 36.55 17.05 35.75" fill="url(#gradient0)" fill-rule="evenodd" stroke="none"/>
    <path d="M39.75 16.85 L41.7 14.95 42.1 15.35 41.5 16.1 40.1 17.8 39.85 17.0 39.75 16.85 M32.55 22.05 L33.4 20.65 Q37.05 19.0 38.9 17.55 L39.05 17.8 39.35 18.4 32.55 22.05 M24.25 37.8 Q23.95 37.25 23.9 36.25 L23.9 35.85 25.95 33.5 25.75 34.25 24.85 36.7 24.25 37.8 M17.75 26.8 L18.15 27.35 18.6 28.6 18.5 29.95 17.2 28.5 Q17.75 27.8 17.75 26.9 L17.75 26.8" fill="#e2cfcf" fill-rule="evenodd" stroke="none"/>
    <path d="M17.05 32.1 L17.05 30.95 19.95 31.8 21.6 28.7 22.4 30.0 23.15 31.6 23.2 31.65 24.55 29.35 24.55 29.3 25.15 28.1 Q26.4 24.9 26.4 23.6 L26.4 23.1 29.8 23.3 29.45 27.45 29.1 28.25 Q28.3 29.9 25.7 32.85 L25.7 32.8 26.05 30.05 25.95 29.1 25.8 28.55 25.75 28.55 25.55 29.05 25.25 29.55 25.0 30.0 24.35 31.4 23.7 32.7 23.55 33.15 23.3 33.85 23.2 33.15 23.05 32.55 22.6 31.2 22.55 31.15 22.55 31.05 21.55 34.7 Q21.3 35.85 21.3 37.65 L21.35 38.75 21.1 38.4 Q20.5 37.85 19.95 34.85 L19.8 33.5 19.8 33.45 19.65 33.7 19.6 33.8 Q19.0 32.95 17.05 32.1" fill="url(#gradient1)" fill-rule="evenodd" stroke="none"/>
    <path d="M14.35 17.1 L14.45 16.3 14.95 16.25 16.7 16.7 19.8 16.55 Q21.35 16.0 22.7 16.0 23.1 16.0 24.6 16.7 L26.5 17.85 Q27.55 18.85 27.75 19.75 27.75 18.55 26.85 16.75 L26.85 16.7 Q27.75 17.7 28.25 19.05 28.7 20.3 28.65 21.15 L28.65 21.2 28.95 20.45 28.95 18.3 28.9 17.55 Q29.15 15.2 30.4 15.95 L29.85 21.75 29.8 23.3 26.4 23.1 Q26.25 21.45 25.4 20.0 24.2 18.0 22.3 18.0 L20.3 18.5 19.55 18.75 17.35 18.65 15.75 18.55 15.35 19.55 15.1 18.9 14.35 17.1" fill="url(#gradient2)" fill-rule="evenodd" stroke="none"/>
    <path d="M12.55 12.55 L12.75 12.35 Q12.6 11.95 12.6 11.15 12.6 9.45 14.1 7.5 16.1 4.95 19.3 4.95 21.7 4.95 23.15 6.1 L24.6 7.65 24.6 7.8 25.3 9.45 26.75 10.85 Q27.25 10.95 29.0 12.1 30.7 13.2 30.4 15.95 29.15 15.2 28.9 17.55 L28.95 18.3 28.95 20.45 28.65 21.2 28.65 21.15 Q28.7 20.3 28.25 19.05 27.75 17.7 26.85 16.7 L26.85 16.75 Q27.75 18.55 27.75 19.75 27.55 18.85 26.5 17.85 L24.6 16.7 Q23.1 16.0 22.7 16.0 21.35 16.0 19.8 16.55 L16.7 16.7 14.95 16.25 14.45 16.3 14.35 17.1 14.1 16.5 12.55 12.55" fill="url(#gradient3)" fill-rule="evenodd" stroke="none"/>
    <path d="M29.75 26.75 L32.55 22.05 39.35 18.4 Q39.9 19.75 39.55 20.85 L37.3 23.1 37.45 23.0 Q33.55 26.4 30.65 30.2 L29.55 32.4 28.85 34.5 27.05 36.3 25.05 37.95 24.65 38.3 24.55 38.25 24.25 37.8 24.85 36.7 25.75 34.25 25.95 33.5 23.9 35.85 23.9 35.75 23.5 36.25 23.0 36.85 22.9 36.95 Q21.85 37.95 21.35 38.75 L21.3 37.65 Q21.3 35.85 21.55 34.7 L22.55 31.05 22.55 31.15 22.6 31.2 23.05 32.55 23.2 33.15 23.3 33.85 23.55 33.15 23.7 32.7 24.35 31.4 25.0 30.0 25.25 29.55 25.55 29.05 25.75 28.55 25.8 28.55 25.95 29.1 26.05 30.05 25.7 32.8 25.7 32.85 Q28.3 29.9 29.1 28.25 L29.45 27.45 29.75 26.75" fill="url(#gradient4)" fill-rule="evenodd" stroke="none"/>
    <path d="M42.1 15.35 L42.2 15.15 Q42.55 15.2 42.7 15.95 L42.7 16.2 42.7 16.25 Q42.65 18.05 40.4 20.1 L40.1 17.8 41.5 16.1 42.1 15.35" fill="url(#gradient5)" fill-rule="evenodd" stroke="none"/>
  </g>
  <defs>
    <radialGradient cx="0" cy="0" gradientTransform="matrix(0.0437, 0.0, 0.0, 0.0437, 29.55, 33.1)" gradientUnits="userSpaceOnUse" id="gradient0" r="819.2" spreadMethod="pad">
      <stop offset="0.0" stop-color="#b98a8a"></stop>
      <stop offset="1.0" stop-color="#cca9a9"></stop>
    </radialGradient>
    <linearGradient gradientTransform="matrix(-0.0029, -0.0029, 0.0076, -0.0076, 22.75, 28.75)" gradientUnits="userSpaceOnUse" id="gradient1" spreadMethod="pad" x1="-819.2" x2="819.2">
      <stop offset="0.0" stop-color="#e2cfcf"></stop>
      <stop offset="1.0" stop-color="#ffffff"></stop>
    </linearGradient>
    <linearGradient gradientTransform="matrix(-0.0035, 0.0062, -0.0089, -0.0051, 22.25, 19.6)" gradientUnits="userSpaceOnUse" id="gradient2" spreadMethod="pad" x1="-819.2" x2="819.2">
      <stop offset="0.0" stop-color="#e2cfcf"></stop>
      <stop offset="1.0" stop-color="#ffffff"></stop>
    </linearGradient>
    <linearGradient gradientTransform="matrix(-0.003, 0.0052, -0.0103, -0.0059, 21.95, 13.25)" gradientUnits="userSpaceOnUse" id="gradient3" spreadMethod="pad" x1="-819.2" x2="819.2">
      <stop offset="0.0" stop-color="#d4a7a7"></stop>
      <stop offset="1.0" stop-color="#e5cdcd"></stop>
    </linearGradient>
    <linearGradient gradientTransform="matrix(-0.0025, -0.0025, 0.0117, -0.0117, 29.5, 27.7)" gradientUnits="userSpaceOnUse" id="gradient4" spreadMethod="pad" x1="-819.2" x2="819.2">
      <stop offset="0.0" stop-color="#d4a7a7"></stop>
      <stop offset="1.0" stop-color="#e5cdcd"></stop>
    </linearGradient>
    <linearGradient gradientTransform="matrix(-0.0016, 0.0028, -0.001, -6.0E-4, 41.35, 17.55)" gradientUnits="userSpaceOnUse" id="gradient5" spreadMethod="pad" x1="-819.2" x2="819.2">
      <stop offset="0.0" stop-color="#d4a7a7"></stop>
      <stop offset="1.0" stop-color="#e5cdcd"></stop>
    </linearGradient>
  </defs>
</svg>