<?xml version="1.0" encoding="UTF-8" standalone="no"?>
<svg xmlns:xlink="http://www.w3.org/1999/xlink" height="13px" width="29.1px" xmlns="http://www.w3.org/2000/svg">
  <g transform="matrix(1.0, 0.0, 0.0, 1.0, 1, 1)">
    <path d="M21.65 4.85 L22.55 5.15 23.95 5.85 21.8 6.55 18.6 7.1 20.45 5.7 20.2 5.7 15.5 7.5 15.5 7.4 15.9 6.7 17.7 5.9 19.7 5.45 21.65 4.85 M20.95 1.55 L22.65 1.1 Q22.3 2.1 20.85 3.45 L20.6 3.75 17.25 5.45 18.75 4.0 20.95 1.55 M2.25 4.8 L2.85 5.9 3.5 7.0 3.6 7.0 3.6 6.2 Q4.1 6.35 4.85 7.55 L5.85 8.9 5.75 9.0 4.0 6.9 4.5 8.5 4.0 8.5 2.3 7.55 3.1 7.35 3.4 7.3 3.1 6.85 Q2.6 5.95 2.25 4.8" fill="#e2cfcf" fill-rule="evenodd" stroke="none"/>
    <path d="M23.95 5.85 L22.55 5.15 21.65 4.85 19.8 4.5 20.6 3.75 20.85 3.45 Q22.3 2.1 22.65 1.1 L20.95 1.55 19.85 1.9 Q17.3 2.85 15.5 4.45 13.15 6.55 12.9 7.3 L12.55 6.8 12.55 8.1 12.75 8.65 Q20.45 8.05 25.4 6.95 L23.95 5.85 M24.9 5.55 Q27.1 6.85 27.1 7.4 L26.95 7.85 26.8 8.0 19.75 8.75 12.45 9.65 Q11.75 9.05 11.75 7.95 L11.8 6.7 Q12.0 5.85 12.7 6.3 13.45 4.5 15.65 2.9 18.45 0.85 24.25 0.0 L21.8 4.1 Q22.7 4.25 24.7 5.45 L24.9 5.55 M10.25 10.9 L9.95 11.0 Q9.25 11.0 8.8 9.9 L8.5 8.8 Q8.5 8.1 8.9 8.0 L10.4 10.65 10.25 10.9 M6.8 5.25 L7.0 6.45 7.2 7.25 7.0 8.55 6.75 9.7 Q6.4 10.3 4.65 10.1 2.9 9.85 1.45 9.1 -0.05 8.35 0.0 7.9 0.0 7.4 0.25 7.2 0.7 6.85 2.2 6.6 L1.45 4.95 1.15 3.7 Q3.0 2.8 5.15 5.3 L6.0 6.3 6.05 6.1 Q6.35 5.35 6.8 5.25 M6.6 7.35 L6.6 7.0 6.55 6.45 5.85 7.95 Q5.35 6.8 4.55 6.05 3.3 4.85 2.05 4.2 L2.25 4.8 Q2.6 5.95 3.1 6.85 L3.4 7.3 3.1 7.35 2.3 7.55 1.65 7.7 Q1.2 7.9 1.05 8.05 3.55 9.5 6.3 9.3 6.6 9.0 6.6 7.9 L6.6 7.35" fill="#a36a6a" fill-rule="evenodd" stroke="none"/>
    <path d="M23.95 5.85 L25.4 6.95 Q20.45 8.05 12.75 8.65 L12.55 8.1 Q14.05 7.3 15.2 6.1 L16.7 4.7 16.75 4.7 16.2 6.05 15.9 6.7 15.5 7.4 15.5 7.5 20.2 5.7 20.45 5.7 18.6 7.1 21.8 6.55 23.95 5.85 M5.85 8.9 L6.6 7.35 6.6 7.9 Q6.6 9.0 6.3 9.3 3.55 9.5 1.05 8.05 1.2 7.9 1.65 7.7 L2.3 7.55 4.0 8.5 4.5 8.5 4.0 6.9 5.75 9.0 5.85 8.9" fill="#bf9494" fill-rule="evenodd" stroke="none"/>
    <path d="M12.55 8.1 L12.55 6.8 12.9 7.3 Q13.15 6.55 15.5 4.45 17.3 2.85 19.85 1.9 L20.95 1.55 18.75 4.0 17.25 5.45 20.6 3.75 19.8 4.5 21.65 4.85 19.7 5.45 17.7 5.9 15.9 6.7 16.2 6.05 16.75 4.7 16.7 4.7 15.2 6.1 Q14.05 7.3 12.55 8.1 M2.25 4.8 L2.05 4.2 Q3.3 4.85 4.55 6.05 5.35 6.8 5.85 7.95 L6.55 6.45 6.6 7.0 6.6 7.35 5.85 8.9 4.85 7.55 Q4.1 6.35 3.6 6.2 L3.6 7.0 3.5 7.0 2.85 5.9 2.25 4.8" fill="#ffffff" fill-rule="evenodd" stroke="none"/>
  </g>
</svg>