<?xml version="1.0" encoding="UTF-8" standalone="no"?>
<svg xmlns:xlink="http://www.w3.org/1999/xlink" height="4.7px" width="16.6px" xmlns="http://www.w3.org/2000/svg">
  <g transform="matrix(1.0, 0.0, 0.0, 1.0, 0.95, 0.1)">
    <path d="M14.65 1.55 L14.45 2.1 14.05 2.6 Q13.1 3.6 10.95 3.6 L10.4 3.6 Q9.0 3.45 8.3 2.55 L7.85 1.65 7.7 1.25 14.65 1.55 M10.85 2.6 L11.95 2.6 12.0 2.6 Q12.7 2.6 13.2 2.05 L11.9 1.95 10.8 1.85 10.35 1.85 10.2 2.15 9.9 2.55 10.85 2.6 M2.65 1.05 L4.2 0.9 4.05 1.4 3.75 2.1 3.25 2.8 Q2.7 3.2 1.95 3.2 0.5 3.2 0.15 1.9 L0.05 1.35 2.2 1.1 2.3 1.1 2.65 1.05 M1.25 1.75 L1.25 1.8 Q1.5 2.2 2.0 2.2 L2.4 2.2 2.15 1.65 1.9 1.7 1.25 1.75" fill="#000000" fill-rule="evenodd" stroke="none"/>
    <path d="M1.25 1.8 L1.25 1.75 1.25 1.8" fill="url(#gradient0)" fill-rule="evenodd" stroke="none"/>
    <path d="M10.85 2.6 L10.9 2.2 10.8 1.9 10.8 1.85 11.9 1.95 12.0 2.35 11.95 2.6 10.85 2.6 M1.25 1.75 L1.9 1.7 1.85 1.8 2.0 2.2 Q1.5 2.2 1.25 1.8 L1.25 1.75" fill="#b3e1f7" fill-rule="evenodd" stroke="none"/>
    <path d="M10.8 1.85 L10.8 1.9 10.9 2.2 10.85 2.6 9.9 2.55 10.2 2.15 10.35 1.85 10.8 1.85 M2.65 1.05 L2.3 1.1 2.2 1.1 2.45 0.9 2.65 1.05 M1.9 1.7 L2.15 1.65 2.4 2.2 2.0 2.2 1.85 1.8 1.9 1.7" fill="#ffffff" fill-rule="evenodd" stroke="none"/>
    <path d="M11.95 2.6 L12.0 2.35 11.9 1.95 13.2 2.05 Q12.7 2.6 12.0 2.6 L11.95 2.6" fill="url(#gradient1)" fill-rule="evenodd" stroke="none"/>
  </g>
  <defs>
    <linearGradient gradientTransform="matrix(0.0, 0.0045, -0.0061, 0.0, 10.25, 34.4)" gradientUnits="userSpaceOnUse" id="gradient0" spreadMethod="pad" x1="-819.2" x2="819.2">
      <stop offset="0.0" stop-color="#3399cc"></stop>
      <stop offset="1.0" stop-color="#73bfe5"></stop>
    </linearGradient>
    <linearGradient gradientTransform="matrix(0.0, 0.0045, -0.0061, 0.0, 8.85, 34.4)" gradientUnits="userSpaceOnUse" id="gradient1" spreadMethod="pad" x1="-819.2" x2="819.2">
      <stop offset="0.0" stop-color="#3399cc"></stop>
      <stop offset="1.0" stop-color="#73bfe5"></stop>
    </linearGradient>
  </defs>
</svg>