<?xml version="1.0" encoding="UTF-8" standalone="no"?>
<svg xmlns:xlink="http://www.w3.org/1999/xlink" height="9.05px" width="19.65px" xmlns="http://www.w3.org/2000/svg">
  <g transform="matrix(1.0, 0.0, 0.0, 1.0, 0.3, 0.25)">
    <path d="M15.25 6.25 L16.25 5.2 16.25 5.15 12.8 5.05 12.75 5.65 12.75 5.8 12.65 6.1 12.65 6.2 12.55 6.35 12.1 6.65 13.05 6.8 14.3 6.75 14.65 6.75 15.25 6.25 M17.8 5.05 L17.65 5.2 15.9 6.75 15.8 6.8 14.85 7.5 13.9 7.8 11.3 7.5 9.95 7.1 9.85 5.55 9.9 5.0 9.95 4.4 18.35 4.55 17.8 5.05 M3.3 5.35 L3.2 4.8 1.6 4.6 2.05 5.5 2.15 5.6 2.35 5.9 2.7 6.2 2.85 6.25 3.4 6.35 3.8 6.2 3.65 6.05 3.55 5.85 3.45 5.6 3.4 5.55 3.3 5.35 M1.05 4.55 L0.7 3.9 4.8 4.4 4.8 5.0 4.8 5.2 4.75 6.65 4.15 7.0 3.05 7.25 1.95 6.25 1.65 5.75 1.1 4.7 1.05 4.55" fill="#000000" fill-rule="evenodd" stroke="none"/>
    <path d="M14.3 6.75 L13.05 6.8 12.1 6.65 12.55 6.35 12.65 6.2 13.55 6.45 14.3 6.75 M15.85 0.8 L15.9 0.75 15.95 0.75 15.85 0.8 M3.55 5.85 L3.65 6.05 3.8 6.2 3.4 6.35 2.85 6.25 2.7 6.2 2.35 5.9 2.75 5.8 3.05 5.75 3.55 5.85" fill="#ffffff" fill-rule="evenodd" stroke="none"/>
    <path d="M12.75 5.8 L12.75 5.65 12.8 5.05 16.25 5.15 16.25 5.2 15.25 6.25 14.9 6.05 13.75 5.75 13.45 5.7 12.75 5.8 M2.05 5.5 L1.6 4.6 3.2 4.8 3.3 5.35 3.0 5.3 2.6 5.35 2.05 5.5" fill="url(#gradient0)" fill-rule="evenodd" stroke="none"/>
    <path d="M12.75 5.8 L13.45 5.7 13.75 5.75 14.9 6.05 15.25 6.25 14.65 6.75 14.3 6.75 13.55 6.45 12.65 6.2 12.65 6.1 12.75 5.8 M3.3 5.35 L3.4 5.55 3.45 5.6 3.55 5.85 3.05 5.75 2.75 5.8 2.35 5.9 2.15 5.6 2.05 5.5 2.6 5.35 3.0 5.3 3.3 5.35" fill="#b3e1f7" fill-rule="evenodd" stroke="none"/>
  </g>
  <defs>
    <linearGradient gradientTransform="matrix(0.0, 0.0045, -0.0061, 0.0, 13.55, 59.25)" gradientUnits="userSpaceOnUse" id="gradient0" spreadMethod="pad" x1="-819.2" x2="819.2">
      <stop offset="0.0" stop-color="#3399cc"></stop>
      <stop offset="1.0" stop-color="#73bfe5"></stop>
    </linearGradient>
  </defs>
</svg>