<?xml version="1.0" encoding="UTF-8" standalone="no"?>
<svg xmlns:xlink="http://www.w3.org/1999/xlink" height="7.2px" width="24.25px" xmlns="http://www.w3.org/2000/svg">
  <g transform="matrix(1.0, 0.0, 0.0, 1.0, 1, -3.1)">
    <path d="M22.25 4.4 L22.2 4.95 Q21.95 6.0 20.8 7.3 19.05 9.3 16.8 9.3 13.0 9.3 11.35 7.6 L11.1 7.35 Q10.25 6.35 10.2 4.95 L10.2 4.85 10.25 4.1 22.25 4.1 22.25 4.4 M18.7 4.95 L13.9 4.95 13.9 5.4 13.9 6.0 13.55 7.2 13.5 7.25 12.95 7.65 Q14.1 8.3 15.9 8.3 18.0 8.3 19.8 6.65 L21.2 4.95 20.0 4.95 18.7 4.95 M5.15 5.2 L4.9 6.35 4.05 7.85 Q3.45 8.65 2.6 8.65 0.85 8.65 0.25 6.95 L0.0 5.2 0.0 5.1 0.05 4.35 5.2 4.35 5.2 4.65 5.15 5.2 M1.9 5.2 L1.35 5.2 0.95 5.2 Q1.05 7.75 2.8 7.75 L3.6 7.35 2.95 6.95 2.85 6.75 2.85 6.25 Q2.65 6.15 2.8 5.2 L1.9 5.2" fill="#000000" fill-rule="evenodd" stroke="none"/>
    <path d="M13.9 6.0 L14.25 6.35 Q14.5 6.65 16.4 6.75 18.25 6.8 18.7 5.0 L18.7 4.95 20.0 4.95 Q19.9 6.1 18.85 6.8 17.45 7.7 16.0 7.7 L13.5 7.25 13.55 7.2 13.9 6.0 M1.35 5.2 L1.9 5.2 2.1 5.8 Q2.4 6.2 2.85 6.25 L2.85 6.75 2.7 6.75 1.75 6.45 Q1.3 6.2 1.35 5.2" fill="#b3e1f7" fill-rule="evenodd" stroke="none"/>
    <path d="M13.5 7.25 L16.0 7.7 Q17.45 7.7 18.85 6.8 19.9 6.1 20.0 4.95 L21.2 4.95 19.8 6.65 Q18.0 8.3 15.9 8.3 14.1 8.3 12.95 7.65 L13.5 7.25" fill="url(#gradient0)" fill-rule="evenodd" stroke="none"/>
    <path d="M2.85 6.75 L2.95 6.95 3.6 7.35 2.8 7.75 Q1.05 7.75 0.95 5.2 L1.35 5.2 Q1.3 6.2 1.75 6.45 L2.7 6.75 2.85 6.75" fill="url(#gradient1)" fill-rule="evenodd" stroke="none"/>
    <path d="M18.7 4.95 L18.7 5.0 Q18.25 6.8 16.4 6.75 14.5 6.65 14.25 6.35 L13.9 6.0 13.9 5.4 13.9 4.95 18.7 4.95 M1.9 5.2 L2.8 5.2 Q2.65 6.15 2.85 6.25 2.4 6.2 2.1 5.8 L1.9 5.2" fill="#ffffff" fill-rule="evenodd" stroke="none"/>
  </g>
  <defs>
    <linearGradient gradientTransform="matrix(0.0, 0.0045, -0.0061, 0.0, 16.35, 4.65)" gradientUnits="userSpaceOnUse" id="gradient0" spreadMethod="pad" x1="-819.2" x2="819.2">
      <stop offset="0.0" stop-color="#3399cc"></stop>
      <stop offset="1.0" stop-color="#73bfe5"></stop>
    </linearGradient>
    <linearGradient gradientTransform="matrix(0.0, 0.0034, -0.002, 0.0, 2.65, 4.95)" gradientUnits="userSpaceOnUse" id="gradient1" spreadMethod="pad" x1="-819.2" x2="819.2">
      <stop offset="0.0" stop-color="#3399cc"></stop>
      <stop offset="1.0" stop-color="#73bfe5"></stop>
    </linearGradient>
  </defs>
</svg>