<?xml version="1.0" encoding="UTF-8" standalone="no"?>
<svg xmlns:xlink="http://www.w3.org/1999/xlink" height="5.3px" width="16.85px" xmlns="http://www.w3.org/2000/svg">
  <g transform="matrix(1.0, 0.0, 0.0, 1.0, 1, 1)">
    <path d="M11.95 2.6 L12.0 2.6 Q13.1 2.6 13.7 1.15 L13.8 0.9 13.65 0.45 14.85 0.35 14.75 0.4 14.75 0.8 14.75 0.9 Q14.75 1.9 13.95 2.55 13.1 3.15 11.9 3.25 L10.0 3.3 Q9.35 3.2 8.55 2.45 7.7 1.7 7.6 0.35 L10.95 0.45 10.7 0.95 10.5 1.15 10.2 1.4 9.4 1.7 8.8 1.6 9.4 2.3 9.9 2.55 10.85 2.6 11.95 2.6 M2.0 2.2 Q2.3 2.25 2.8 1.95 3.3 1.65 3.4 1.2 L2.45 0.9 2.35 0.65 2.35 0.45 2.35 0.15 4.2 0.0 4.15 0.7 3.75 1.85 3.05 2.65 1.65 2.7 Q0.55 2.55 0.0 0.25 L0.95 0.15 Q0.95 1.25 1.25 1.8 1.5 2.2 2.0 2.2" fill="#000000" fill-rule="evenodd" stroke="none"/>
    <path d="M10.85 2.6 L9.9 2.55 9.4 2.3 8.8 1.6 9.4 1.7 10.2 1.4 10.5 1.6 10.8 1.9 10.9 2.2 10.85 2.6 M2.45 0.9 L3.4 1.2 Q3.3 1.65 2.8 1.95 2.3 2.25 2.0 2.2 L1.85 1.8 2.05 1.3 2.05 1.25 Q2.25 0.95 2.45 0.9" fill="#ffffff" fill-rule="evenodd" stroke="none"/>
    <path d="M11.95 2.6 L10.85 2.6 10.9 2.2 10.8 1.9 10.5 1.6 10.2 1.4 10.5 1.15 10.7 0.95 11.5 1.45 11.7 1.7 12.0 2.35 11.95 2.6 M2.0 2.2 Q1.5 2.2 1.25 1.8 L1.25 1.65 Q1.25 1.35 1.7 0.9 L2.05 0.45 2.35 0.45 2.35 0.65 2.45 0.9 Q2.25 0.95 2.05 1.25 L2.05 1.3 1.85 1.8 2.0 2.2" fill="#b3e1f7" fill-rule="evenodd" stroke="none"/>
    <path d="M1.25 1.8 Q0.95 1.25 0.95 0.15 L2.35 0.15 2.35 0.45 2.05 0.45 1.7 0.9 Q1.25 1.35 1.25 1.65 L1.25 1.8" fill="url(#gradient0)" fill-rule="evenodd" stroke="none"/>
    <path d="M13.65 0.45 L13.8 0.9 13.7 1.15 Q13.1 2.6 12.0 2.6 L11.95 2.6 12.0 2.35 11.7 1.7 11.5 1.45 10.7 0.95 10.95 0.45 12.3 0.5 13.65 0.45" fill="url(#gradient1)" fill-rule="evenodd" stroke="none"/>
  </g>
  <defs>
    <linearGradient gradientTransform="matrix(0.0, 0.0045, -0.0061, 0.0, 10.25, 34.4)" gradientUnits="userSpaceOnUse" id="gradient0" spreadMethod="pad" x1="-819.2" x2="819.2">
      <stop offset="0.0" stop-color="#3399cc"></stop>
      <stop offset="1.0" stop-color="#73bfe5"></stop>
    </linearGradient>
    <linearGradient gradientTransform="matrix(0.0, 0.0045, -0.0061, 0.0, 8.85, 34.4)" gradientUnits="userSpaceOnUse" id="gradient1" spreadMethod="pad" x1="-819.2" x2="819.2">
      <stop offset="0.0" stop-color="#3399cc"></stop>
      <stop offset="1.0" stop-color="#73bfe5"></stop>
    </linearGradient>
  </defs>
</svg>