<?xml version="1.0" encoding="UTF-8" standalone="no"?>
<svg xmlns:xlink="http://www.w3.org/1999/xlink" height="4.35px" width="23.2px" xmlns="http://www.w3.org/2000/svg">
  <g transform="matrix(1.0, 0.0, 0.0, 1.0, 0.75, -0.45)">
    <path d="M20.25 2.45 Q18.2 3.8 15.25 3.8 11.7 3.8 10.7 2.75 L10.55 2.2 13.55 2.65 13.9 2.7 15.2 2.8 15.45 2.8 16.25 2.8 Q18.2 2.65 19.4 1.95 L21.45 1.45 20.25 2.45 M3.2 2.85 L3.75 2.75 4.4 2.4 5.05 2.5 4.75 2.8 Q3.85 3.5 3.05 3.6 L1.65 3.5 Q0.75 3.15 0.3 1.65 L0.25 1.45 1.05 1.8 Q1.3 2.6 2.3 2.8 L3.0 2.85 3.2 2.85" fill="#000000" fill-rule="evenodd" stroke="none"/>
  </g>
</svg>