<?xml version="1.0" encoding="UTF-8" standalone="no"?>
<svg xmlns:xlink="http://www.w3.org/1999/xlink" height="26.25px" width="15.55px" xmlns="http://www.w3.org/2000/svg">
  <g transform="matrix(1.0, 0.0, 0.0, 1.0, -15.9, -24.6)">
    <path d="M17.1 25.65 Q17.8 25.7 20.65 27.4 L22.5 27.95 24.85 28.8 Q27.15 29.4 27.65 28.1 28.25 26.8 29.75 27.3 L30.4 27.6 30.4 28.4 30.15 28.9 30.35 28.9 30.1 30.35 Q29.9 31.5 28.65 32.85 L27.5 33.8 Q28.2 35.55 27.8 37.65 27.6 38.55 25.95 39.85 24.25 41.1 24.15 41.75 24.0 42.35 24.25 43.05 L24.4 44.4 23.5 47.15 Q22.65 49.25 21.9 49.85 L21.5 49.65 Q22.75 47.8 22.65 45.3 22.45 41.8 22.55 41.4 22.7 40.5 24.2 39.2 L25.75 37.45 Q26.0 36.05 23.4 33.05 L21.95 32.0 20.75 30.15 20.8 30.05 Q19.45 28.35 19.55 27.9 L20.35 28.2 19.85 27.6 Q19.0 26.6 17.0 26.5 16.8 26.4 16.95 25.95 16.95 25.65 17.1 25.6 L17.1 25.65" fill="#cc3333" fill-rule="evenodd" stroke="none"/>
  </g>
</svg>