<?xml version="1.0" encoding="UTF-8" standalone="no"?>
<svg xmlns:xlink="http://www.w3.org/1999/xlink" height="26.25px" width="15.55px" xmlns="http://www.w3.org/2000/svg">
  <g transform="matrix(1.0, 0.0, 0.0, 1.0, -32.5, -12.35)">
    <path d="M47.0 15.35 L47.0 16.15 46.75 16.65 46.95 16.65 46.7 18.1 Q46.5 19.25 45.25 20.6 L44.1 21.55 Q44.8 23.3 44.4 25.4 44.2 26.3 42.55 27.6 40.85 28.85 40.75 29.5 40.6 30.1 40.85 30.8 L41.0 32.15 40.1 34.9 Q39.25 37.0 38.5 37.6 L38.1 37.4 Q39.35 35.55 39.25 33.05 39.05 29.55 39.15 29.15 39.3 28.25 40.8 26.95 L42.35 25.2 Q42.6 23.8 40.0 20.8 L38.55 19.75 37.35 17.9 37.4 17.8 Q36.05 16.1 36.15 15.65 L36.95 15.95 36.45 15.35 Q35.6 14.35 33.6 14.25 33.4 14.15 33.55 13.7 33.55 13.4 33.7 13.35 L33.7 13.4 Q34.4 13.45 37.25 15.15 37.7 15.15 39.1 15.7 L41.45 16.55 Q43.75 17.15 44.25 15.85 44.85 14.55 46.35 15.05 L47.0 15.35" fill="#cc3333" fill-rule="evenodd" stroke="none"/>
  </g>
</svg>