<?xml version="1.0" encoding="UTF-8" standalone="no"?>
<svg xmlns:xlink="http://www.w3.org/1999/xlink" height="59.05px" width="86.75px" xmlns="http://www.w3.org/2000/svg">
  <g transform="matrix(1.0, 0.0, 0.0, 1.0, 1, 1)">
    <path d="M84.75 15.9 L83.1 17.5 76.95 21.75 73.3 24.15 71.6 25.2 66.15 28.65 66.35 28.8 67.8 29.95 69.45 31.2 Q72.35 33.5 72.55 34.2 L69.5 33.65 65.75 33.0 65.35 32.9 64.7 32.8 62.35 35.45 60.25 38.0 59.3 39.3 59.35 39.35 60.05 39.5 62.15 39.95 60.8 40.85 60.15 41.25 59.85 41.45 59.7 41.55 59.55 41.7 Q60.9 42.5 64.0 46.0 66.65 49.0 67.15 50.25 L67.2 50.4 61.45 50.5 62.45 56.25 62.45 56.3 62.05 56.05 61.45 55.6 59.6 53.9 57.6 52.1 57.3 51.9 Q56.8 51.9 50.95 55.4 L50.75 55.55 48.35 57.05 48.3 57.05 Q48.0 56.65 47.85 56.05 L47.75 54.7 47.75 54.4 Q47.75 52.4 48.35 50.05 48.9 47.9 49.9 46.5 L50.05 46.3 50.55 45.7 47.15 45.95 47.15 45.8 Q47.15 45.5 49.95 43.65 52.4 42.0 52.85 41.85 L52.55 41.25 52.35 40.75 51.05 39.1 50.55 38.55 49.2 36.95 46.8 34.55 43.4 31.55 42.9 33.55 42.6 35.0 42.3 36.5 41.95 37.75 41.45 36.5 39.8 32.75 39.25 31.4 38.5 29.4 36.25 31.85 34.3 34.1 31.6 37.3 30.4 38.8 29.0 40.55 28.9 40.65 28.9 40.6 28.9 40.1 28.45 35.4 Q27.95 32.0 27.95 30.15 L27.9 30.0 26.85 30.7 Q23.75 32.75 22.45 34.35 L18.8 38.1 18.8 35.5 19.6 33.7 19.6 33.65 17.15 34.3 16.6 34.45 15.25 34.8 13.75 35.2 Q13.9 34.65 15.55 32.7 L18.0 30.05 17.75 30.05 5.15 29.25 Q3.3 28.35 1.05 27.7 L0.1 27.4 Q0.0 27.7 0.0 27.05 0.0 26.55 5.1 25.25 L7.75 24.55 Q12.1 23.35 13.95 22.55 L15.45 21.65 Q18.05 20.1 20.15 19.35 L22.65 18.75 18.95 17.6 18.15 17.35 15.95 16.5 12.55 15.2 11.4 14.75 9.7 14.0 Q7.85 13.1 7.75 12.65 L9.05 12.75 13.05 12.4 16.1 11.85 21.2 11.1 Q22.9 10.95 24.55 11.05 L26.65 11.15 29.25 11.5 29.5 11.65 Q28.6 10.35 27.45 8.25 L25.6 4.85 25.05 3.9 25.05 3.8 25.1 3.75 25.15 3.7 25.5 3.65 Q27.1 3.65 31.85 6.6 L32.0 6.7 Q34.95 8.5 36.9 10.2 L38.0 11.25 38.9 12.2 Q39.6 10.1 41.7 7.55 L42.85 6.15 42.9 6.1 Q44.8 3.95 47.0 2.15 L48.5 0.9 49.7 0.0 49.6 4.7 49.45 7.05 49.25 10.55 49.2 11.5 49.05 13.45 49.0 14.0 49.45 13.9 49.8 13.8 50.1 13.7 52.1 13.05 57.45 11.1 62.2 9.55 66.75 8.4 67.9 8.15 69.6 8.15 60.9 14.8 58.7 16.5 57.1 17.75 60.1 17.25 60.35 17.2 79.0 16.55 84.55 15.45 84.65 15.5 84.75 15.9 M72.65 23.15 L72.9 22.95 80.7 18.0 81.95 17.15 78.95 17.65 Q66.15 17.2 61.95 17.7 L61.15 17.8 60.15 17.9 55.5 18.7 54.65 18.9 54.2 19.05 53.95 19.15 53.6 19.3 53.85 19.05 54.35 18.55 57.45 15.85 57.7 15.6 61.45 12.6 Q63.85 10.75 65.65 9.7 L65.7 9.65 63.95 10.15 61.9 10.75 Q58.7 11.7 55.5 12.9 L53.4 13.7 50.45 14.95 50.4 15.0 Q49.25 15.45 48.3 15.95 L48.1 15.95 47.65 15.9 48.15 12.4 48.3 11.05 48.55 7.9 48.7 5.55 48.95 1.9 48.1 2.55 47.25 3.15 Q44.95 4.9 43.4 6.75 L42.45 7.95 41.8 8.9 Q40.7 10.55 40.1 12.35 L40.0 12.7 39.75 13.65 39.55 13.95 38.45 13.05 37.4 12.25 34.55 10.05 34.1 9.7 Q30.55 7.05 27.15 5.55 L28.45 7.75 29.2 9.3 30.75 12.7 30.8 12.75 31.15 13.55 30.9 13.35 Q28.55 11.55 24.0 11.75 L22.0 11.85 15.8 12.5 10.9 13.7 14.45 15.15 16.0 15.65 16.3 15.8 16.4 15.75 18.15 16.3 19.45 16.65 26.0 18.5 Q23.65 15.5 22.75 14.8 L22.5 14.65 24.65 14.4 25.05 14.4 Q26.55 14.45 28.25 15.0 29.65 15.4 31.15 16.15 32.9 17.0 34.05 18.1 L34.85 18.95 Q35.65 20.05 36.0 21.3 L36.05 21.55 34.1 19.7 33.45 19.15 32.4 18.2 32.1 17.95 Q29.8 16.1 26.4 15.6 L25.0 15.4 25.75 16.4 27.55 19.0 28.5 20.4 29.95 22.4 29.65 22.4 29.15 22.15 27.5 20.4 27.25 20.3 Q26.1 19.75 22.7 19.75 L22.1 19.95 19.6 20.95 15.3 22.65 9.3 24.95 3.0 27.0 2.4 27.15 4.65 27.65 8.7 28.4 15.65 28.95 19.55 28.8 19.8 28.75 19.7 28.9 Q17.7 31.95 16.4 33.15 L16.3 33.3 18.1 33.1 18.45 33.0 20.1 32.55 Q20.8 31.0 21.4 30.0 L22.6 28.35 Q23.95 26.8 25.7 26.3 L26.3 26.15 Q24.9 27.1 23.7 28.65 L22.15 30.8 21.65 31.7 21.55 31.85 20.7 33.55 19.7 36.25 19.7 36.4 Q20.55 34.8 23.45 32.2 L26.85 29.45 28.0 28.65 28.7 28.15 28.85 28.5 29.0 30.0 29.0 30.3 Q29.0 32.75 29.6 37.9 L29.7 38.45 31.7 35.75 31.9 35.5 33.0 34.2 35.25 31.65 35.3 31.6 35.6 31.25 35.75 31.1 38.2 28.5 38.75 27.95 Q40.25 30.25 40.5 31.1 L41.05 33.1 41.5 34.8 41.9 33.3 42.55 30.1 Q43.25 30.35 45.4 32.0 L48.8 35.1 49.0 35.25 50.5 36.85 Q53.2 39.8 54.1 41.25 L54.25 41.5 54.3 40.6 54.3 39.4 54.05 36.45 54.0 36.15 53.05 32.9 52.95 32.6 52.9 32.4 Q53.0 32.05 53.85 32.05 L55.1 32.25 55.25 32.3 56.25 32.65 56.5 32.8 58.15 33.55 56.85 31.4 56.35 30.75 54.2 28.25 53.95 27.95 53.9 27.9 53.9 27.4 Q55.15 27.6 57.2 30.15 L57.6 30.7 Q59.65 33.55 59.65 34.3 L59.65 34.8 Q60.0 34.95 59.4 34.95 L58.3 34.75 56.65 34.2 56.2 34.05 55.55 33.8 54.5 33.4 54.4 33.25 Q54.3 33.15 54.3 33.5 L54.4 34.3 54.7 36.6 55.0 39.1 55.1 40.15 55.2 41.25 55.2 41.45 54.7 44.05 54.4 45.45 54.3 45.15 53.8 43.95 53.5 43.35 53.2 42.65 50.4 44.65 50.25 44.7 51.45 44.65 51.55 44.8 51.55 44.85 50.35 48.3 Q49.5 50.45 49.25 52.85 49.15 54.2 49.2 55.6 L50.2 54.8 50.95 54.25 51.3 54.05 Q53.35 52.65 56.9 50.75 L57.4 50.5 59.1 51.95 60.9 53.65 Q60.1 51.85 60.0 50.3 L60.0 49.9 Q60.0 49.5 60.2 49.45 L60.5 49.4 62.1 49.4 65.5 49.4 64.65 48.3 Q62.85 46.05 60.75 44.2 L60.3 43.8 59.6 43.3 58.75 42.6 58.0 42.0 57.9 41.9 58.1 41.45 58.5 41.25 58.7 41.15 60.3 40.4 57.45 39.65 57.55 39.5 58.4 38.35 58.95 37.7 59.4 37.15 60.55 35.9 64.2 32.15 67.45 32.65 70.0 33.0 67.1 30.75 64.4 28.65 64.75 28.4 65.55 27.85 Q68.0 26.05 72.05 23.5 L72.65 23.15 M37.75 20.85 Q37.75 20.25 39.5 19.05 L40.4 18.45 41.3 17.9 Q44.7 15.9 45.8 15.85 L45.95 15.9 46.0 16.2 46.0 16.3 44.7 18.2 42.6 20.7 47.55 20.8 47.75 20.95 48.25 21.55 47.8 22.05 Q47.0 22.7 45.0 23.2 L44.4 23.05 45.25 22.35 45.9 21.8 45.55 21.8 42.0 21.6 41.3 21.6 40.9 21.55 Q40.9 21.3 41.2 20.8 L41.35 20.5 43.55 17.55 43.55 17.4 40.05 19.65 37.75 21.15 37.75 20.85" fill="#a36a6a" fill-rule="evenodd" stroke="none"/>
    <path d="M63.95 10.15 Q62.75 10.85 61.7 11.55 60.3 12.4 59.2 13.15 L54.05 14.6 Q50.8 15.55 50.05 16.55 49.3 17.55 47.2 18.5 L45.85 18.95 45.85 18.8 47.75 16.45 47.9 16.2 48.1 15.95 48.3 15.95 Q49.25 15.45 50.4 15.0 L50.45 14.95 53.4 13.7 55.5 12.9 Q58.7 11.7 61.9 10.75 L63.95 10.15 M48.85 17.9 Q51.1 15.95 57.95 14.05 L56.3 15.2 56.3 15.25 Q55.25 15.55 51.9 16.8 L51.0 17.1 48.85 17.9 M64.05 21.3 Q64.05 21.7 64.15 21.5 L64.5 21.55 69.2 21.35 68.6 21.7 Q66.15 22.9 63.35 23.6 L58.6 24.65 58.5 24.65 56.55 25.1 56.55 24.95 58.3 24.3 58.65 24.15 60.0 23.45 63.6 21.65 63.1 21.65 59.0 22.6 57.25 23.0 56.05 23.3 53.6 22.85 Q55.55 22.45 58.9 20.7 61.7 19.3 68.65 19.25 L66.2 20.25 Q64.05 21.15 64.05 21.3 M55.7 47.9 L55.45 47.35 55.45 46.7 55.9 47.05 Q58.4 49.2 59.3 50.5 L60.9 53.65 59.1 51.95 57.4 50.5 56.9 50.75 56.55 49.95 55.7 47.9 M65.5 49.4 L62.4 47.85 61.75 47.55 60.1 45.75 Q58.55 43.8 58.3 42.9 L58.3 42.85 60.75 44.2 Q62.85 46.05 64.65 48.3 L65.5 49.4 M58.7 41.15 L58.5 41.1 57.45 40.75 Q56.0 40.25 55.6 39.85 L56.05 39.8 56.1 39.95 56.5 39.7 57.1 39.55 57.55 39.5 57.45 39.65 60.3 40.4 58.7 41.15 M64.75 28.4 L64.4 28.65 67.1 30.75 70.0 33.0 67.45 32.65 66.2 31.9 65.55 31.45 61.45 26.6 61.6 26.6 63.9 27.95 64.75 28.4 M37.75 21.15 L40.05 19.65 43.55 17.4 43.55 17.55 41.35 20.5 41.05 20.65 Q39.2 21.45 37.35 21.65 L37.35 21.5 37.75 21.15 M41.3 21.6 L42.0 21.6 45.55 21.8 44.95 21.85 42.5 22.15 41.35 22.35 39.3 22.75 Q39.6 22.4 41.05 21.7 L41.3 21.6 M50.2 54.8 L49.2 55.6 Q49.15 54.2 49.25 52.85 49.5 50.45 50.35 48.3 L51.55 44.85 51.55 44.8 51.45 44.65 50.25 44.7 50.4 44.65 53.2 42.65 53.5 43.35 53.8 43.95 54.3 45.15 54.05 46.15 53.65 47.45 52.25 50.2 52.0 50.6 51.45 51.6 50.2 53.65 50.2 54.8 M51.5 47.45 L50.8 49.75 50.4 51.45 50.25 52.25 50.45 51.85 Q51.15 50.4 51.8 49.45 L51.8 49.05 Q51.8 47.75 51.5 47.45 M32.1 11.6 L32.25 11.75 Q35.25 12.0 36.35 12.55 L36.8 13.3 37.75 14.9 37.6 14.9 36.25 14.25 32.95 12.35 31.85 11.6 32.1 11.6 M23.9 13.45 L22.15 13.9 18.1 14.7 20.4 13.25 24.5 13.0 25.35 13.05 23.9 13.45 M19.55 28.8 L20.35 28.25 20.9 27.95 Q22.4 27.0 22.45 26.95 L21.75 28.15 19.55 31.15 18.1 33.1 16.3 33.3 16.4 33.15 Q17.7 31.95 19.7 28.9 L19.8 28.75 19.55 28.8" fill="url(#gradient0)" fill-rule="evenodd" stroke="none"/>
    <path d="M47.2 18.5 Q49.3 17.55 50.05 16.55 50.8 15.55 54.05 14.6 L59.2 13.15 Q60.3 12.4 61.7 11.55 62.75 10.85 63.95 10.15 L65.7 9.65 65.65 9.7 Q63.85 10.75 61.45 12.6 L57.7 15.6 57.45 15.85 54.35 18.55 53.85 19.05 53.6 19.3 53.95 19.15 54.2 19.05 53.95 19.2 52.65 19.95 51.9 20.4 Q49.85 21.65 49.6 22.0 L51.75 22.5 53.65 22.15 Q56.7 21.5 58.35 20.6 L60.95 19.65 64.6 18.8 67.15 18.45 Q69.3 18.25 70.3 19.1 69.35 19.7 66.55 20.6 L66.25 20.8 69.25 20.7 70.45 20.6 Q72.0 19.85 77.0 18.75 L80.7 18.0 72.9 22.95 72.65 23.15 71.85 23.4 71.25 23.55 66.85 24.65 68.9 23.25 70.05 22.45 71.0 21.7 69.7 22.25 68.55 22.8 65.35 24.1 58.45 25.95 58.4 25.9 58.2 25.9 53.5 25.75 53.6 25.7 56.9 24.4 56.85 24.4 51.55 24.65 48.15 24.35 48.15 24.2 55.0 23.75 52.7 23.35 48.15 22.4 48.2 22.35 50.4 20.75 51.75 19.8 53.45 18.75 50.45 19.5 51.4 18.75 45.85 20.05 Q50.5 18.25 52.45 17.9 L54.5 16.2 54.45 16.2 52.05 16.95 51.05 17.25 48.85 17.9 48.7 17.95 46.75 18.65 47.2 18.5 M48.85 17.9 L51.0 17.1 51.9 16.8 Q55.25 15.55 56.3 15.25 L56.3 15.2 57.95 14.05 Q51.1 15.95 48.85 17.9 M48.1 15.95 L47.9 16.2 47.75 16.45 Q47.35 16.55 46.65 16.95 45.5 17.55 45.35 17.8 L45.35 17.7 45.4 17.6 47.35 14.3 47.25 14.3 Q43.85 16.25 40.85 17.0 L41.5 15.9 41.9 15.05 40.3 16.15 39.95 16.7 39.9 16.85 39.85 16.85 38.5 18.65 38.35 18.65 38.95 16.95 39.45 16.2 39.6 15.7 39.35 15.2 39.15 14.8 Q38.8 14.2 38.65 14.25 L38.65 14.3 38.65 14.95 38.6 16.2 Q38.4 16.2 37.95 16.0 L37.3 15.65 36.1 14.95 36.25 15.75 36.45 16.35 36.35 16.25 35.35 15.85 31.75 14.75 31.5 14.7 Q32.95 15.2 34.1 15.95 35.75 17.0 37.45 19.3 L37.45 19.4 Q35.4 17.5 33.8 16.5 31.15 14.8 25.9 14.15 L25.25 14.25 24.95 14.35 24.65 14.4 22.5 14.65 22.75 14.8 20.1 15.5 Q18.75 15.95 18.15 16.3 L16.4 15.75 16.3 15.8 16.0 15.65 14.45 15.15 15.25 15.05 16.6 14.9 Q19.75 11.55 28.85 13.4 L28.65 13.35 30.25 13.65 35.45 14.95 Q32.9 13.5 30.75 12.7 L29.2 9.3 30.85 10.85 31.05 11.0 35.6 11.55 34.55 10.05 37.4 12.25 38.45 13.05 39.55 13.95 39.75 13.65 40.0 12.7 39.75 14.25 39.7 14.45 39.7 15.25 39.8 15.25 40.85 13.0 42.25 10.3 Q42.45 9.15 44.55 7.5 L47.35 5.4 47.6 4.45 48.1 2.55 48.95 1.9 48.7 5.55 48.55 7.9 48.3 11.05 48.15 12.4 47.65 15.9 48.1 15.95 M64.05 21.3 Q64.05 21.15 66.2 20.25 L68.65 19.25 Q61.7 19.3 58.9 20.7 55.55 22.45 53.6 22.85 L56.05 23.3 57.25 23.0 59.0 22.6 63.1 21.65 63.6 21.65 60.0 23.45 58.65 24.15 58.3 24.3 56.55 24.95 56.55 25.1 58.5 24.65 58.6 24.65 63.35 23.6 Q66.15 22.9 68.6 21.7 L69.2 21.35 64.5 21.55 64.15 21.5 Q64.05 21.7 64.05 21.3 M42.75 10.85 L41.2 13.85 40.75 14.8 42.9 13.1 45.25 10.1 45.6 9.6 45.7 9.5 46.0 9.05 45.45 11.05 44.3 12.4 41.95 15.4 41.95 15.55 Q44.25 14.5 45.3 13.15 L46.65 10.6 46.8 10.25 47.1 9.5 47.1 9.35 46.45 10.05 46.35 10.1 46.65 8.85 46.6 7.9 46.8 7.4 47.1 6.4 47.2 6.05 45.35 7.9 Q43.15 10.0 42.75 10.85 M45.25 22.35 L44.85 22.4 43.05 22.7 42.35 22.9 40.55 23.35 38.8 23.55 38.9 23.65 40.0 24.95 Q40.7 26.2 41.6 27.1 L40.75 23.5 40.75 23.4 41.65 24.5 42.85 25.65 44.7 27.25 46.8 29.2 46.85 29.3 Q45.7 28.25 44.4 27.7 L44.35 27.7 Q42.7 25.7 41.7 25.15 41.8 26.3 42.55 27.3 L43.65 28.5 40.35 26.95 40.4 27.25 38.5 24.4 38.4 25.85 38.2 27.7 38.2 28.5 35.75 31.1 Q36.65 26.9 37.35 24.95 L38.05 23.55 37.15 23.45 37.15 23.4 38.65 22.4 40.55 21.25 40.45 21.25 36.9 22.1 36.5 22.1 36.5 21.95 37.75 20.85 37.75 21.15 37.35 21.5 37.35 21.65 Q39.2 21.45 41.05 20.65 L41.35 20.5 41.2 20.8 Q40.9 21.3 40.9 21.55 L41.3 21.6 41.05 21.7 Q39.6 22.4 39.3 22.75 L41.35 22.35 42.5 22.15 44.95 21.85 45.55 21.8 45.9 21.8 45.25 22.35 M47.85 27.0 L47.25 26.15 51.3 28.65 45.1 24.25 Q47.3 25.15 50.0 27.05 L53.7 30.55 54.0 30.9 51.95 30.1 50.65 29.6 Q48.95 27.65 47.9 27.0 L47.85 27.0 M54.7 44.05 L54.5 46.4 Q54.05 49.85 52.6 52.15 55.2 50.15 55.65 48.8 L55.7 47.9 56.55 49.95 56.9 50.75 Q53.35 52.65 51.3 54.05 L50.95 54.25 50.2 54.8 50.2 53.65 51.45 51.6 52.0 50.6 52.25 50.2 53.65 47.45 54.05 46.15 54.3 45.15 54.4 45.45 54.7 44.05 M55.9 47.05 L55.95 46.9 56.3 46.9 57.45 47.65 Q58.55 48.35 59.55 48.5 61.45 48.8 62.1 49.4 L60.5 49.4 60.2 49.45 Q60.0 49.5 60.0 49.9 L60.0 50.3 Q60.1 51.85 60.9 53.65 L59.3 50.5 Q58.4 49.2 55.9 47.05 M61.75 47.55 L59.65 46.5 58.85 45.95 Q57.75 45.1 56.8 43.55 L55.55 41.25 55.45 41.0 55.6 41.15 55.8 41.25 57.1 41.85 57.7 42.1 57.8 42.15 57.9 42.2 58.75 42.6 59.6 43.3 60.3 43.8 60.75 44.2 58.3 42.85 58.3 42.9 Q58.55 43.8 60.1 45.75 L61.75 47.55 M55.6 39.85 L58.8 36.65 61.75 33.45 61.75 32.95 61.55 32.25 60.85 31.55 57.65 27.85 54.3 26.0 54.3 25.85 Q55.8 26.35 57.4 27.25 L59.25 28.5 62.25 30.0 62.25 29.95 61.2 28.5 Q60.35 27.2 60.15 26.4 L60.1 26.35 60.1 25.75 60.4 25.75 62.2 26.25 64.65 27.35 65.55 27.85 64.75 28.4 63.9 27.95 61.6 26.6 61.45 26.6 65.55 31.45 66.2 31.9 67.45 32.65 64.2 32.15 60.55 35.9 59.4 37.15 58.95 37.7 58.4 38.35 57.55 39.5 57.1 39.55 56.5 39.7 56.1 39.95 56.05 39.8 55.6 39.85 M52.95 32.6 L51.15 30.2 51.95 30.55 54.55 31.55 55.1 32.25 53.85 32.05 Q53.0 32.05 52.9 32.4 L52.95 32.6 M53.85 30.25 L53.8 30.35 Q53.6 29.9 53.8 30.05 L53.85 30.25 M41.9 33.3 L41.6 29.8 40.95 28.2 40.9 27.25 Q41.35 28.2 43.2 29.1 L45.9 30.5 46.1 30.55 46.8 31.1 46.8 31.0 44.8 28.25 48.2 31.6 49.0 32.65 49.75 33.6 45.7 31.3 Q47.25 32.35 48.6 34.6 L48.9 35.1 49.0 35.25 48.8 35.1 45.4 32.0 Q43.25 30.35 42.55 30.1 L41.9 33.3 M51.5 47.45 Q51.8 47.75 51.8 49.05 L51.8 49.45 Q51.15 50.4 50.45 51.85 L50.25 52.25 50.4 51.45 50.8 49.75 51.5 47.45 M32.1 11.6 L31.85 11.6 32.95 12.35 36.25 14.25 37.6 14.9 37.75 14.9 36.8 13.3 36.35 12.55 Q35.25 12.0 32.25 11.75 L32.1 11.6 M25.75 16.4 L26.9 17.2 27.15 17.15 29.75 17.75 Q32.15 18.4 32.8 18.8 33.35 19.15 33.9 20.15 L34.3 21.05 33.8 19.95 33.35 19.3 32.4 18.2 33.45 19.15 34.1 19.7 36.05 21.55 36.0 21.3 36.5 22.1 36.6 22.25 36.5 22.25 34.8 21.7 35.0 22.35 35.25 22.95 35.15 22.95 34.8 22.75 32.25 21.45 32.15 21.4 27.55 19.0 25.75 16.4 M23.9 13.45 L25.35 13.05 24.5 13.0 20.4 13.25 18.1 14.7 22.15 13.9 23.9 13.45 M22.1 19.95 L22.6 20.05 25.6 20.9 Q27.65 21.6 28.35 22.35 L27.25 22.65 Q26.1 22.65 24.8 23.3 23.4 23.95 23.1 24.4 L22.95 24.4 21.35 24.7 23.2 23.45 23.05 23.2 21.2 23.6 Q23.55 22.65 24.4 22.5 L26.35 22.0 24.05 21.5 22.35 21.8 Q20.9 21.7 20.35 22.25 L19.3 23.75 Q15.3 24.4 13.4 25.65 L11.9 26.85 12.95 26.6 14.3 26.25 16.3 25.6 18.45 25.0 21.7 23.9 21.55 24.05 19.7 25.25 18.55 26.1 Q17.9 26.4 17.25 26.8 L18.7 26.5 21.25 26.0 18.8 27.0 18.25 27.25 Q16.05 28.3 15.65 28.95 L8.7 28.4 4.65 27.65 11.6 26.9 13.35 25.45 Q15.2 24.05 18.9 23.15 L19.7 21.85 Q20.15 21.35 21.5 21.1 L20.1 20.9 19.6 20.95 22.1 19.95 M28.6 24.85 L28.95 24.65 Q29.85 24.1 30.9 23.65 L31.0 23.6 31.2 23.5 31.55 23.5 31.5 23.7 30.4 24.65 30.15 25.0 33.35 23.3 Q33.1 24.1 32.9 28.2 L32.9 28.6 34.7 26.1 34.8 26.1 35.25 27.45 35.65 29.35 Q35.65 30.4 35.25 31.6 L35.25 31.65 33.0 34.2 33.7 31.6 33.8 31.25 34.2 29.15 32.75 31.3 32.65 30.9 32.2 29.15 Q31.7 29.5 31.0 31.0 L31.05 29.45 31.05 27.95 30.95 26.15 30.9 25.8 29.9 27.05 29.8 27.15 28.85 28.5 28.7 28.15 28.0 28.65 26.85 29.45 23.45 32.2 Q20.55 34.8 19.7 36.4 L19.7 36.25 20.7 33.55 21.55 31.85 23.9 29.85 24.95 28.95 28.2 25.35 28.6 24.85 M29.35 19.0 Q30.8 19.95 32.15 20.5 L32.6 20.65 32.95 20.8 33.65 21.0 32.05 19.55 Q30.4 18.45 27.75 17.8 L29.35 19.0 M29.6 37.9 L30.7 33.0 32.05 30.1 32.3 32.15 Q31.95 33.65 31.9 35.5 L31.7 35.75 29.7 38.45 29.6 37.9" fill="#e2cfcf" fill-rule="evenodd" stroke="none"/>
    <path d="M80.7 18.0 L77.0 18.75 Q72.0 19.85 70.45 20.6 L69.25 20.7 66.25 20.8 66.55 20.6 Q69.35 19.7 70.3 19.1 69.3 18.25 67.15 18.45 L64.6 18.8 60.95 19.65 58.35 20.6 Q56.7 21.5 53.65 22.15 L51.75 22.5 49.6 22.0 Q49.85 21.65 51.9 20.4 L52.65 19.95 53.95 19.2 54.2 19.05 54.65 18.9 55.5 18.7 60.15 17.9 61.15 17.8 61.95 17.7 Q66.15 17.2 78.95 17.65 L81.95 17.15 80.7 18.0 M48.1 2.55 L47.6 4.45 47.35 5.4 44.55 7.5 Q42.45 9.15 42.25 10.3 L40.85 13.0 39.8 15.25 39.7 15.25 39.7 14.45 39.75 14.25 40.0 12.7 40.1 12.35 Q40.7 10.55 41.8 8.9 L42.45 7.95 43.4 6.75 Q44.95 4.9 47.25 3.15 L48.1 2.55 M34.55 10.05 L35.6 11.55 31.05 11.0 30.85 10.85 29.2 9.3 28.45 7.75 27.15 5.55 Q30.55 7.05 34.1 9.7 L34.55 10.05 M30.75 12.7 Q32.9 13.5 35.45 14.95 L30.25 13.65 28.65 13.35 28.85 13.4 Q19.75 11.55 16.6 14.9 L15.25 15.05 14.45 15.15 10.9 13.7 15.8 12.5 22.0 11.85 24.0 11.75 Q28.55 11.55 30.9 13.35 L31.15 13.55 30.8 12.75 30.75 12.7 M42.75 10.85 Q43.15 10.0 45.35 7.9 L47.2 6.05 47.1 6.4 46.8 7.4 46.6 7.9 46.65 8.85 46.35 10.1 46.45 10.05 47.1 9.35 47.1 9.5 46.8 10.25 46.65 10.6 45.3 13.15 Q44.25 14.5 41.95 15.55 L41.95 15.4 44.3 12.4 45.45 11.05 46.0 9.05 45.7 9.5 45.6 9.6 45.25 10.1 42.9 13.1 40.75 14.8 41.2 13.85 42.75 10.85 M46.8 29.2 L46.65 28.95 Q45.15 26.05 45.1 25.4 L45.25 25.4 46.4 26.1 47.85 27.0 47.9 27.0 Q48.95 27.65 50.65 29.6 L51.95 30.1 54.0 30.9 54.05 30.95 54.15 31.0 53.85 30.55 53.75 30.35 53.65 30.35 49.95 25.1 52.55 27.0 54.0 28.1 54.2 28.25 56.35 30.75 56.85 31.4 58.15 33.55 56.5 32.8 56.25 32.65 55.25 32.3 55.1 32.25 54.55 31.55 51.95 30.55 51.15 30.2 52.95 32.6 53.05 32.9 54.0 36.15 54.05 36.45 54.3 39.4 54.3 40.6 53.5 39.35 Q52.65 38.65 52.25 37.4 L51.15 35.7 49.75 33.6 49.0 32.65 48.2 31.6 44.8 28.25 46.8 31.0 46.8 31.1 46.1 30.55 45.9 30.5 43.2 29.1 Q41.35 28.2 40.9 27.25 L40.95 28.2 41.6 29.8 41.9 33.3 41.5 34.8 41.05 33.1 40.5 31.1 Q40.25 30.25 38.75 27.95 L38.2 28.5 38.2 27.7 38.4 25.85 38.5 24.4 40.4 27.25 40.35 26.95 43.65 28.5 42.55 27.3 Q41.8 26.3 41.7 25.15 42.7 25.7 44.35 27.7 L44.4 27.7 Q45.7 28.25 46.85 29.3 L46.8 29.2 M53.85 30.25 L53.8 30.05 Q53.6 29.9 53.8 30.35 L53.85 30.25 M32.4 18.2 L33.35 19.3 33.8 19.95 34.3 21.05 33.9 20.15 Q33.35 19.15 32.8 18.8 32.15 18.4 29.75 17.75 L27.15 17.15 26.9 17.2 25.75 16.4 25.0 15.4 26.4 15.6 Q29.8 16.1 32.1 17.95 L32.4 18.2 M23.1 24.4 L26.2 23.9 27.3 23.9 27.3 24.2 Q26.15 25.05 22.2 25.8 L21.25 26.0 18.7 26.5 17.25 26.8 Q17.9 26.4 18.55 26.1 L19.7 25.25 21.55 24.05 21.7 23.9 18.45 25.0 16.3 25.6 14.3 26.25 12.95 26.6 11.9 26.85 13.4 25.65 Q15.3 24.4 19.3 23.75 L20.35 22.25 Q20.9 21.7 22.35 21.8 L24.05 21.5 26.35 22.0 24.4 22.5 Q23.55 22.65 21.2 23.6 L23.05 23.2 23.2 23.45 21.35 24.7 22.95 24.4 23.1 24.4 M25.7 26.3 L26.05 26.0 Q28.2 24.3 29.2 23.9 L29.35 23.75 28.6 24.85 28.2 25.35 24.95 28.95 23.9 29.85 21.55 31.85 21.65 31.7 22.15 30.8 23.7 28.65 Q24.9 27.1 26.3 26.15 L25.7 26.3 M29.35 19.0 L27.75 17.8 Q30.4 18.45 32.05 19.55 L33.65 21.0 32.95 20.8 32.6 20.65 32.15 20.5 Q30.8 19.95 29.35 19.0 M19.6 20.95 L20.1 20.9 21.5 21.1 Q20.15 21.35 19.7 21.85 L18.9 23.15 Q15.2 24.05 13.35 25.45 L11.6 26.9 4.65 27.65 2.4 27.15 3.0 27.0 9.3 24.95 15.3 22.65 19.6 20.95 M28.85 28.5 L29.8 27.15 29.9 27.05 30.9 25.8 30.95 26.15 31.05 27.95 31.05 29.45 31.0 31.0 Q31.7 29.5 32.2 29.15 L32.65 30.9 32.75 31.3 34.2 29.15 33.8 31.25 33.7 31.6 33.0 34.2 31.9 35.5 Q31.95 33.65 32.3 32.15 L32.05 30.1 30.7 33.0 29.6 37.9 Q29.0 32.75 29.0 30.3 L29.0 30.0 28.85 28.5" fill="#ffffff" fill-rule="evenodd" stroke="none"/>
    <path d="M47.2 18.5 L46.75 18.65 48.7 17.95 48.85 17.9 51.05 17.25 52.05 16.95 54.45 16.2 54.5 16.2 52.45 17.9 Q50.5 18.25 45.85 20.05 L51.4 18.75 50.45 19.5 53.45 18.75 51.75 19.8 50.4 20.75 48.2 22.35 48.15 22.4 52.7 23.35 55.0 23.75 48.15 24.2 48.15 24.35 51.55 24.65 56.85 24.4 56.9 24.4 53.6 25.7 53.5 25.75 58.2 25.9 58.4 25.9 58.45 25.95 65.35 24.1 68.55 22.8 69.7 22.25 71.0 21.7 70.05 22.45 68.9 23.25 66.85 24.65 71.25 23.55 71.85 23.4 72.65 23.15 72.05 23.5 Q68.0 26.05 65.55 27.85 L64.65 27.35 62.2 26.25 60.4 25.75 60.1 25.75 60.1 26.35 60.15 26.4 Q60.35 27.2 61.2 28.5 L62.25 29.95 62.25 30.0 59.25 28.5 57.4 27.25 Q55.8 26.35 54.3 25.85 L54.3 26.0 57.65 27.85 60.85 31.55 61.55 32.25 61.75 32.95 61.75 33.45 58.8 36.65 55.6 39.85 Q56.0 40.25 57.45 40.75 L58.5 41.1 58.7 41.15 58.5 41.25 58.1 41.45 57.9 41.9 58.0 42.0 58.75 42.6 57.9 42.2 57.8 42.15 57.7 42.1 57.1 41.85 55.8 41.25 55.6 41.15 55.45 41.0 55.55 41.25 56.8 43.55 Q57.75 45.1 58.85 45.95 L59.65 46.5 61.75 47.55 62.4 47.85 65.5 49.4 62.1 49.4 Q61.45 48.8 59.55 48.5 58.55 48.35 57.45 47.65 L56.3 46.9 55.95 46.9 55.9 47.05 55.45 46.7 55.45 47.35 55.7 47.9 55.65 48.8 Q55.2 50.15 52.6 52.15 54.05 49.85 54.5 46.4 L54.7 44.05 55.2 41.45 55.2 41.25 55.1 40.15 55.0 39.1 54.7 36.6 54.4 34.3 54.3 33.5 Q54.3 33.15 54.4 33.25 L54.5 33.4 55.55 33.8 56.2 34.05 56.65 34.2 58.3 34.75 59.4 34.95 Q60.0 34.95 59.65 34.8 L59.65 34.3 Q59.65 33.55 57.6 30.7 L57.2 30.15 Q55.15 27.6 53.9 27.4 L53.9 27.9 53.95 27.95 54.2 28.25 54.0 28.1 52.55 27.0 49.95 25.1 53.65 30.35 53.75 30.35 53.85 30.55 54.15 31.0 54.05 30.95 54.0 30.9 53.7 30.55 50.0 27.05 Q47.3 25.15 45.1 24.25 L51.3 28.65 47.25 26.15 47.85 27.0 46.4 26.1 45.25 25.4 45.1 25.4 Q45.15 26.05 46.65 28.95 L46.8 29.2 44.7 27.25 42.85 25.65 41.65 24.5 40.75 23.4 40.75 23.5 41.6 27.1 Q40.7 26.2 40.0 24.95 L38.9 23.65 38.8 23.55 40.55 23.35 42.35 22.9 43.05 22.7 44.85 22.4 45.25 22.35 44.4 23.05 45.0 23.2 Q47.0 22.7 47.8 22.05 L48.25 21.55 47.75 20.95 47.55 20.8 42.6 20.7 44.7 18.2 46.0 16.3 46.0 16.2 45.95 15.9 45.8 15.85 Q44.7 15.9 41.3 17.9 L40.4 18.45 39.5 19.05 Q37.75 20.25 37.75 20.85 L36.5 21.95 36.5 22.1 36.9 22.1 40.45 21.25 40.55 21.25 38.65 22.4 37.15 23.4 37.15 23.45 38.05 23.55 37.35 24.95 Q36.65 26.9 35.75 31.1 L35.6 31.25 35.3 31.6 35.25 31.65 35.25 31.6 Q35.65 30.4 35.65 29.35 L35.25 27.45 34.8 26.1 34.7 26.1 32.9 28.6 32.9 28.2 Q33.1 24.1 33.35 23.3 L30.15 25.0 30.4 24.65 31.5 23.7 31.55 23.5 31.2 23.5 31.0 23.6 30.9 23.65 Q29.85 24.1 28.95 24.65 L28.6 24.85 29.35 23.75 29.2 23.9 Q28.2 24.3 26.05 26.0 L25.7 26.3 Q23.95 26.8 22.6 28.35 L21.4 30.0 Q20.8 31.0 20.1 32.55 L18.45 33.0 18.1 33.1 19.55 31.15 21.75 28.15 22.45 26.95 Q22.4 27.0 20.9 27.95 L20.35 28.25 19.55 28.8 15.65 28.95 Q16.05 28.3 18.25 27.25 L18.8 27.0 21.25 26.0 22.2 25.8 Q26.15 25.05 27.3 24.2 L27.3 23.9 26.2 23.9 23.1 24.4 Q23.4 23.95 24.8 23.3 26.1 22.65 27.25 22.65 L28.35 22.35 Q27.65 21.6 25.6 20.9 L22.6 20.05 22.1 19.95 22.7 19.75 Q26.1 19.75 27.25 20.3 L27.5 20.4 29.15 22.15 29.65 22.4 29.95 22.4 28.5 20.4 27.55 19.0 32.15 21.4 32.25 21.45 34.8 22.75 35.15 22.95 35.25 22.95 35.0 22.35 34.8 21.7 36.5 22.25 36.6 22.25 36.5 22.1 36.0 21.3 Q35.65 20.05 34.85 18.95 L34.05 18.1 Q32.9 17.0 31.15 16.15 29.65 15.4 28.25 15.0 26.55 14.45 25.05 14.4 L24.65 14.4 24.95 14.35 25.25 14.25 25.9 14.15 Q31.15 14.8 33.8 16.5 35.4 17.5 37.45 19.4 L37.45 19.3 Q35.75 17.0 34.1 15.95 32.95 15.2 31.5 14.7 L31.75 14.75 35.35 15.85 36.35 16.25 36.45 16.35 36.25 15.75 36.1 14.95 37.3 15.65 37.95 16.0 Q38.4 16.2 38.6 16.2 L38.65 14.95 38.65 14.3 38.65 14.25 Q38.8 14.2 39.15 14.8 L39.35 15.2 39.6 15.7 39.45 16.2 38.95 16.95 38.35 18.65 38.5 18.65 39.85 16.85 39.9 16.85 39.95 16.7 40.3 16.15 41.9 15.05 41.5 15.9 40.85 17.0 Q43.85 16.25 47.25 14.3 L47.35 14.3 45.4 17.6 45.35 17.7 45.35 17.8 Q45.5 17.55 46.65 16.95 47.35 16.55 47.75 16.45 L45.85 18.8 45.85 18.95 47.2 18.5 M18.15 16.3 Q18.75 15.95 20.1 15.5 L22.75 14.8 Q23.65 15.5 26.0 18.5 L19.45 16.65 18.15 16.3 M49.75 33.6 L51.15 35.7 52.25 37.4 Q52.65 38.65 53.5 39.35 L54.3 40.6 54.25 41.5 54.1 41.25 Q53.2 39.8 50.5 36.85 L49.0 35.25 48.9 35.1 48.6 34.6 Q47.25 32.35 45.7 31.3 L49.75 33.6" fill="url(#gradient1)" fill-rule="evenodd" stroke="none"/>
  </g>
  <defs>
    <radialGradient cx="0" cy="0" gradientTransform="matrix(0.0629, 0.0, 0.0, 0.0629, 162.6, 34.1)" gradientUnits="userSpaceOnUse" id="gradient0" r="819.2" spreadMethod="pad">
      <stop offset="0.47843137254901963" stop-color="#ffffff"></stop>
      <stop offset="0.8823529411764706" stop-color="#f2eaea"></stop>
    </radialGradient>
    <radialGradient cx="0" cy="0" gradientTransform="matrix(0.0499, 0.0, 0.0, 0.0499, 41.7, 23.8)" gradientUnits="userSpaceOnUse" id="gradient1" r="819.2" spreadMethod="pad">
      <stop offset="0.0" stop-color="#b98a8a"></stop>
      <stop offset="1.0" stop-color="#cca9a9"></stop>
    </radialGradient>
  </defs>
</svg>