<?xml version="1.0" encoding="UTF-8" standalone="no"?>
<svg xmlns:xlink="http://www.w3.org/1999/xlink" height="20.1px" width="17.45px" xmlns="http://www.w3.org/2000/svg">
  <g transform="matrix(1.0, 0.0, 0.0, 1.0, -25.7, -26.85)">
    <path d="M40.6 36.15 L39.9 35.8 Q37.5 36.35 34.35 34.6 L31.5 35.0 29.85 33.9 31.95 33.55 32.7 33.45 31.8 32.75 27.95 32.6 26.7 31.65 27.45 31.55 30.85 31.15 30.7 30.7 30.25 29.45 28.95 29.8 28.35 29.2 30.65 27.85 31.1 28.0 Q31.45 28.05 31.55 28.9 L31.5 28.95 31.55 29.35 31.55 29.4 31.6 30.05 Q32.2 31.65 33.95 33.0 35.85 34.3 38.2 34.45 40.25 34.6 41.15 32.9 41.6 32.95 41.9 33.65 42.75 35.2 40.9 38.8 L42.15 39.75 Q41.6 40.55 41.55 42.0 L41.7 45.85 41.6 45.95 Q40.25 44.2 40.05 42.4 40.0 40.8 40.7 40.05 L39.5 39.05 40.5 37.0 40.6 36.15" fill="#cc3333" fill-rule="evenodd" stroke="none"/>
  </g>
</svg>