<?xml version="1.0" encoding="UTF-8" standalone="no"?>
<svg xmlns:xlink="http://www.w3.org/1999/xlink" height="18.95px" width="39px" xmlns="http://www.w3.org/2000/svg">
  <g transform="matrix(1.0, 0.0, 0.0, 1.0, 1, 1)">
    <path d="M26.45 1.75 L26.8 1.85 26.8 1.8 27.3 1.2 27.5 1.0 29.5 0.0 29.45 0.25 31.05 0.55 31.45 0.65 Q32.55 1.0 33.1 1.6 L33.45 2.25 33.55 2.65 33.55 4.3 33.45 4.3 Q33.25 4.7 32.6 4.9 L32.3 4.7 31.85 4.35 31.95 4.2 32.5 3.2 31.7 2.1 31.35 1.8 30.85 1.3 Q29.15 1.2 28.4 1.6 L28.35 1.65 27.9 2.2 26.45 1.75 M6.5 3.7 L6.6 3.65 7.15 3.05 Q8.25 2.0 10.15 1.25 L12.55 0.65 14.35 0.35 17.2 0.45 18.45 0.6 19.65 1.75 19.85 2.1 19.9 2.35 Q19.9 3.6 16.25 6.15 L16.1 6.2 Q12.05 8.95 9.2 8.95 6.45 8.95 5.9 7.7 L5.85 6.35 5.95 5.35 6.1 4.65 6.0 4.75 6.5 3.7 M18.05 1.8 L17.95 1.7 Q17.35 1.15 16.65 1.2 L15.45 1.3 13.4 1.6 13.35 1.6 13.9 2.8 16.75 2.9 15.7 3.5 Q13.8 4.55 14.7 4.1 L13.35 4.9 13.2 4.95 12.95 6.9 12.35 6.7 12.25 6.65 10.4 6.15 10.25 6.15 9.15 6.45 8.3 6.65 Q7.85 6.7 7.85 6.45 L8.0 6.15 7.9 6.15 9.1 4.35 8.15 3.7 7.8 4.1 Q7.35 4.7 6.95 6.0 L6.85 6.4 Q6.85 7.1 7.0 7.35 7.2 7.8 7.9 7.8 10.6 7.8 12.95 6.9 L15.6 5.45 15.75 5.35 Q17.85 3.9 18.75 2.45 L18.05 1.8 M11.8 1.8 L10.75 2.1 9.45 2.7 9.2 2.8 9.55 2.85 10.4 2.95 Q10.7 2.95 11.05 2.55 L11.15 2.45 11.8 1.8 M12.45 4.45 L14.5 3.35 13.4 3.4 12.4 1.95 10.85 3.45 10.8 3.5 8.9 3.5 10.1 4.25 8.65 6.15 10.6 5.25 12.5 6.2 12.4 4.5 12.45 4.45" fill="#4a1919" fill-rule="evenodd" stroke="none"/>
    <path d="M27.9 2.2 L28.35 1.65 28.4 1.6 Q29.15 1.2 30.85 1.3 L31.35 1.8 30.9 2.25 Q30.3 2.7 29.35 2.85 L28.45 2.45 27.9 2.2 M13.35 4.9 L14.7 4.1 Q13.8 4.55 15.7 3.5 L16.75 2.9 13.9 2.8 13.35 1.6 13.4 1.6 15.45 1.3 16.65 1.2 Q17.35 1.15 17.95 1.7 L18.05 1.8 Q17.8 3.15 13.8 4.7 L13.35 4.9 M6.95 6.0 Q7.35 4.7 7.8 4.1 L8.15 3.7 9.1 4.35 7.9 6.15 6.95 6.0 M11.8 1.8 L11.15 2.45 11.05 2.55 Q10.7 2.95 10.4 2.95 L9.55 2.85 9.2 2.8 9.45 2.7 10.75 2.1 11.8 1.8" fill="#953939" fill-rule="evenodd" stroke="none"/>
    <path d="M31.35 1.8 L31.7 2.1 32.5 3.2 31.95 4.2 31.85 4.35 31.85 4.4 Q30.7 3.45 29.35 2.85 30.3 2.7 30.9 2.25 L31.35 1.8 M18.05 1.8 L18.75 2.45 Q17.85 3.9 15.75 5.35 L15.6 5.45 12.95 6.9 Q10.6 7.8 7.9 7.8 7.2 7.8 7.0 7.35 6.85 7.1 6.85 6.4 L6.95 6.0 7.9 6.15 8.0 6.15 7.85 6.45 Q7.85 6.7 8.3 6.65 L9.15 6.45 10.25 6.15 10.4 6.15 12.25 6.65 12.35 6.7 12.95 6.9 13.2 4.95 13.35 4.9 13.8 4.7 Q17.8 3.15 18.05 1.8" fill="#692929" fill-rule="evenodd" stroke="none"/>
    <path d="M32.6 4.9 L32.5 4.95 32.3 4.7 32.6 4.9" fill="#3a3a3a" fill-rule="evenodd" stroke="none"/>
    <path d="M32.5 4.95 L32.55 5.0 Q33.8 6.3 34.95 8.7 L35.35 9.5 34.6 9.85 33.3 8.1 30.9 5.75 Q27.55 2.95 25.35 2.25 L24.6 2.05 19.2 1.25 19.4 1.45 19.65 1.75 18.45 0.6 23.75 1.0 25.25 1.35 25.5 1.45 26.45 1.75 27.9 2.2 28.45 2.45 29.35 2.85 Q30.7 3.45 31.85 4.4 L31.85 4.35 32.3 4.7 32.5 4.95 M9.35 16.65 L5.55 16.15 4.6 15.9 6.55 15.4 8.35 15.7 8.05 15.35 9.35 16.65 M1.45 8.95 Q2.7 7.1 5.1 4.9 L6.5 3.7 6.0 4.75 4.05 6.65 Q2.9 8.05 2.1 9.75 L1.45 8.95" fill="#232323" fill-rule="evenodd" stroke="none"/>
    <path d="M35.35 9.5 L36.5 11.55 36.55 11.55 37.0 12.95 37.0 13.1 Q37.0 13.65 35.7 14.25 L32.05 15.45 26.95 16.45 22.5 16.9 22.4 16.9 21.1 16.95 13.0 16.95 9.35 16.65 8.05 15.35 7.6 14.6 6.5 15.4 6.55 15.4 4.6 15.9 1.6 15.1 0.95 14.3 0.0 12.55 0.8 9.95 1.45 8.95 2.1 9.75 2.05 9.75 2.2 10.0 2.95 10.95 Q3.95 11.95 4.6 11.75 L4.45 11.2 Q4.45 8.95 6.2 9.8 7.2 10.3 7.65 11.3 L7.65 11.25 Q9.55 8.9 12.1 10.75 L12.15 11.65 11.8 12.45 11.4 12.8 11.7 12.9 14.2 13.3 20.25 13.75 22.75 13.7 Q27.7 13.5 30.0 12.4 L33.9 10.25 Q34.15 10.0 34.35 9.95 L34.55 9.85 34.6 9.85 35.35 9.5 M35.85 12.15 L35.15 10.85 Q33.5 11.95 29.15 13.35 26.3 14.2 22.6 14.45 L18.2 14.5 Q11.6 14.3 10.05 13.15 L10.35 12.75 11.15 11.45 11.15 11.15 Q9.6 10.85 8.9 11.7 L8.55 12.45 8.55 12.5 8.45 13.05 Q8.45 13.85 9.6 15.3 10.7 16.75 22.1 16.05 L22.2 16.05 Q33.5 15.3 36.2 12.85 L35.85 12.15 M1.25 11.7 L1.1 12.0 Q0.8 12.7 2.15 13.85 3.5 15.0 4.8 14.75 6.1 14.45 6.6 13.8 L6.95 12.85 6.75 12.25 6.6 11.8 6.45 11.45 6.15 10.8 6.1 10.7 6.1 10.75 5.5 11.2 Q5.35 11.45 5.35 11.85 L5.65 11.85 5.5 12.1 5.2 12.3 4.25 12.7 Q2.75 12.7 1.85 11.5 L1.5 11.0 1.25 11.7" fill="#a1741d" fill-rule="evenodd" stroke="none"/>
    <path d="M34.6 9.85 L34.55 9.85 34.35 9.95 Q34.15 10.0 33.9 10.25 L30.0 12.4 Q27.7 13.5 22.75 13.7 L20.25 13.75 14.2 13.3 11.7 12.9 11.4 12.8 11.8 12.45 12.15 11.65 12.1 10.75 Q9.55 8.9 7.65 11.25 L7.65 11.3 Q7.2 10.3 6.2 9.8 4.45 8.95 4.45 11.2 L4.6 11.75 Q3.95 11.95 2.95 10.95 L2.2 10.0 2.1 9.75 Q2.9 8.05 4.05 6.65 L6.0 4.75 6.1 4.65 5.95 5.35 5.85 6.35 5.9 7.7 Q6.45 8.95 9.2 8.95 12.05 8.95 16.1 6.2 L16.25 6.15 Q17.55 7.35 20.2 8.7 L23.55 10.2 Q26.3 11.25 28.3 11.25 30.8 11.25 32.25 9.8 33.15 8.9 33.3 8.1 L34.6 9.85 M6.55 15.4 L6.5 15.4 7.6 14.6 8.05 15.35 8.35 15.7 6.55 15.4" fill="#434343" fill-rule="evenodd" stroke="none"/>
    <path d="M33.3 8.1 Q33.15 8.9 32.25 9.8 30.8 11.25 28.3 11.25 26.3 11.25 23.55 10.2 L20.2 8.7 Q17.55 7.35 16.25 6.15 19.9 3.6 19.9 2.35 L19.85 2.1 19.65 1.75 19.4 1.45 19.2 1.25 24.6 2.05 25.35 2.25 Q27.55 2.95 30.9 5.75 L33.3 8.1 M26.4 3.1 L25.25 2.65 22.15 2.25 Q21.2 2.25 20.9 2.5 20.6 2.75 20.6 3.35 20.6 4.85 23.15 6.75 L24.15 7.45 Q26.25 8.7 28.2 8.7 29.2 8.7 29.2 7.3 29.2 5.05 26.95 3.45 L26.4 3.1" fill="#626262" fill-rule="evenodd" stroke="none"/>
    <path d="M8.55 12.45 L8.9 11.7 Q9.6 10.85 11.15 11.15 L11.15 11.45 10.35 12.75 10.05 13.15 Q11.6 14.3 18.2 14.5 L22.6 14.45 Q26.3 14.2 29.15 13.35 33.5 11.95 35.15 10.85 L35.85 12.15 30.65 14.1 25.35 15.0 15.85 15.45 Q10.1 15.35 9.75 14.3 9.45 13.35 9.65 12.65 L9.7 12.4 9.25 12.4 8.55 12.45 M1.25 11.7 L1.5 11.0 1.85 11.5 Q2.75 12.7 4.25 12.7 L5.2 12.3 5.5 12.1 5.65 11.85 5.35 11.85 Q5.35 11.45 5.5 11.2 L6.1 10.75 6.15 10.8 6.45 11.45 6.45 11.5 6.4 12.2 6.2 12.7 Q5.8 13.15 4.4 13.15 L2.2 12.8 Q1.45 12.45 1.25 11.7" fill="#ffdd46" fill-rule="evenodd" stroke="none"/>
    <path d="M26.75 4.5 L27.3 5.6 Q27.3 6.15 26.85 6.15 25.75 6.15 24.9 5.35 L24.3 4.2 24.3 3.65 25.0 3.65 Q26.0 3.7 26.75 4.5" fill="#a6a6a6" fill-rule="evenodd" stroke="none"/>
    <path d="M26.4 3.1 L26.95 3.45 Q29.2 5.05 29.2 7.3 29.2 8.7 28.2 8.7 26.25 8.7 24.15 7.45 L23.15 6.75 Q20.6 4.85 20.6 3.35 20.6 2.75 20.9 2.5 21.2 2.25 22.15 2.25 L25.25 2.65 26.4 3.1 M26.75 4.5 Q26.0 3.7 25.0 3.65 L24.3 3.65 24.3 4.2 24.9 5.35 Q25.75 6.15 26.85 6.15 27.3 6.15 27.3 5.6 L26.75 4.5" fill="#838383" fill-rule="evenodd" stroke="none"/>
    <path d="M8.55 12.45 L9.25 12.4 9.7 12.4 9.65 12.65 Q9.45 13.35 9.75 14.3 10.1 15.35 15.85 15.45 L25.35 15.0 30.65 14.1 35.85 12.15 36.2 12.85 Q33.5 15.3 22.2 16.05 L22.1 16.05 Q10.7 16.75 9.6 15.3 8.45 13.85 8.45 13.05 L8.55 12.5 8.55 12.45 M6.45 11.45 L6.6 11.8 6.75 12.25 6.95 12.85 6.6 13.8 Q6.1 14.45 4.8 14.75 3.5 15.0 2.15 13.85 0.8 12.7 1.1 12.0 L1.25 11.7 Q1.45 12.45 2.2 12.8 L4.4 13.15 Q5.8 13.15 6.2 12.7 L6.4 12.2 6.45 11.5 6.45 11.45" fill="#d28f2a" fill-rule="evenodd" stroke="none"/>
    <path d="M12.45 4.45 L12.4 4.5 12.5 6.2 10.6 5.25 8.65 6.15 10.1 4.25 8.9 3.5 10.8 3.5 10.85 3.45 12.4 1.95 13.4 3.4 14.5 3.35 12.45 4.45" fill="#c26363" fill-rule="evenodd" stroke="none"/>
    <path d="M6.1 10.75 L6.1 10.7 6.15 10.8 6.1 10.75" fill="#ffde46" fill-rule="evenodd" stroke="none"/>
  </g>
</svg>