<?xml version="1.0" encoding="UTF-8" standalone="no"?>
<svg xmlns:xlink="http://www.w3.org/1999/xlink" height="53.1px" width="69.4px" xmlns="http://www.w3.org/2000/svg">
  <g transform="matrix(1.0, 0.0, 0.0, 1.0, 1, 1)">
    <path d="M44.55 18.5 L44.4 19.7 Q44.9 19.4 45.6 19.05 L48.15 17.8 48.4 17.6 49.05 16.45 49.6 15.4 50.0 14.8 57.15 8.8 57.4 8.8 57.45 9.1 56.55 11.2 55.25 13.6 55.2 13.75 Q58.2 11.95 59.7 8.25 61.25 4.4 63.45 2.9 L61.25 4.1 Q54.9 7.65 50.45 10.35 L48.65 11.45 47.75 12.0 Q45.3 13.6 44.8 16.5 L44.75 16.75 44.55 18.5 M43.7 22.25 L43.1 21.6 43.15 21.55 43.15 20.55 Q43.45 13.35 48.7 9.9 49.6 9.3 50.7 8.85 L50.85 8.75 Q53.15 7.75 56.5 5.6 59.95 3.35 64.15 1.6 L67.4 0.0 Q66.1 3.6 61.4 10.75 L57.05 17.15 53.15 21.9 53.15 21.95 52.85 22.25 53.05 22.3 53.1 22.3 56.25 22.7 55.45 23.4 53.45 24.35 52.5 24.7 Q50.35 25.4 48.3 25.35 L48.3 24.4 49.7 24.2 49.95 24.15 52.75 23.65 53.95 23.4 52.8 23.4 51.5 23.25 50.5 23.0 50.4 23.0 53.75 19.25 54.3 18.65 54.9 17.95 57.05 15.15 Q61.0 9.7 64.45 3.1 L64.65 2.75 64.8 2.45 63.45 4.2 Q61.05 7.15 60.05 9.2 59.0 11.2 56.55 13.5 54.1 15.8 54.0 15.45 53.9 15.15 56.4 10.15 L56.4 10.05 50.1 15.75 49.45 17.15 49.2 17.75 48.45 18.4 Q46.4 19.45 44.3 20.45 L43.7 22.25 M51.75 34.0 L51.3 32.6 Q51.95 32.1 52.95 31.6 L53.55 31.3 53.8 31.15 55.0 30.6 Q58.45 29.1 61.15 29.0 L64.4 28.9 64.9 29.4 62.5 30.95 59.15 33.55 58.75 33.9 Q55.25 36.8 54.8 37.5 L55.4 37.85 Q56.4 38.4 57.45 40.3 L58.7 43.05 55.55 42.25 55.3 42.2 53.85 41.8 49.0 40.35 48.15 40.05 48.15 40.2 48.05 43.55 47.9 45.1 47.85 45.55 47.8 45.6 47.7 45.7 47.25 45.8 44.9 43.45 44.55 43.05 44.7 44.65 44.95 47.7 45.15 51.1 44.8 50.65 43.9 49.45 40.3 45.2 Q38.0 42.75 35.25 40.95 L30.75 38.0 32.75 38.0 Q36.0 39.55 38.65 42.0 L39.2 42.55 Q41.1 44.45 43.9 48.25 L44.1 48.25 43.95 46.9 Q43.4 43.65 41.25 40.1 L40.8 39.35 40.6 39.05 39.45 37.75 40.9 37.6 Q42.55 38.95 44.45 41.7 L45.1 42.3 45.65 42.75 45.85 42.9 47.1 43.65 47.1 42.15 47.1 39.05 47.1 38.9 47.55 39.05 49.2 39.5 51.55 40.15 53.9 40.7 57.35 41.4 56.4 40.3 53.35 37.65 Q51.65 36.5 49.9 36.25 L48.9 36.2 47.65 36.25 47.6 36.25 50.45 35.3 50.1 35.5 49.85 35.6 50.05 35.65 51.05 35.95 51.8 36.25 53.75 37.0 Q54.25 36.15 57.4 33.8 L57.55 33.65 58.9 32.65 62.0 30.3 63.15 29.65 60.15 30.1 Q56.85 30.7 54.35 31.95 L52.05 33.35 51.75 33.6 51.75 33.65 51.7 33.75 51.75 34.0 M46.8 36.5 L47.25 36.4 47.3 36.4 46.8 36.5 M23.95 37.65 L24.1 37.7 25.25 37.8 25.35 37.8 Q23.8 38.7 21.6 41.0 L20.6 42.0 17.35 45.75 Q16.75 45.4 16.7 43.9 L16.65 43.2 16.7 41.6 16.9 39.9 17.05 38.8 17.1 38.55 17.25 37.6 17.25 37.55 15.9 37.9 Q12.1 38.8 9.0 39.8 5.4 40.95 2.85 42.2 1.2 42.95 0.0 43.75 L0.4 42.35 Q0.95 40.7 1.75 39.35 L2.85 37.75 Q4.6 35.5 7.3 34.5 L8.85 34.0 9.05 33.95 11.4 33.6 8.85 31.75 5.6 29.3 8.3 28.95 10.4 28.65 10.5 28.65 10.7 28.6 12.1 28.4 15.2 31.7 15.55 31.0 14.75 33.6 15.45 34.9 15.25 34.9 15.05 34.85 14.15 34.8 10.7 34.8 10.35 34.85 Q8.2 34.95 6.15 36.45 L4.3 38.05 3.7 38.75 2.15 40.95 1.25 42.3 Q2.25 41.8 3.4 41.3 L5.95 40.2 Q8.55 39.15 11.8 38.1 L14.65 37.2 16.5 36.6 17.0 36.45 16.35 36.15 20.25 37.2 19.6 37.1 19.15 37.0 18.6 37.9 18.3 38.65 18.2 38.85 18.15 39.1 17.75 40.85 Q17.55 42.0 17.6 43.35 L17.6 43.75 17.65 43.8 18.15 43.0 18.2 42.95 19.85 41.05 20.2 40.7 20.55 40.4 23.45 38.05 23.95 37.65 M9.1 29.55 L8.6 29.55 7.5 29.55 7.35 29.65 Q8.15 30.0 9.4 30.8 L11.2 32.05 12.6 32.9 14.45 33.85 14.95 34.1 Q14.5 33.85 14.75 33.8 L14.75 33.6 14.8 33.2 14.7 33.1 13.9 32.05 11.7 29.55 9.1 29.55" fill="#a36a6a" fill-rule="evenodd" stroke="none"/>
    <path d="M61.25 4.1 L63.45 2.9 Q61.25 4.4 59.7 8.25 58.2 11.95 55.2 13.75 L55.25 13.6 56.55 11.2 57.45 9.1 57.4 8.8 57.15 8.8 50.0 14.8 49.6 15.4 49.05 16.45 48.4 17.6 48.15 17.8 45.6 19.05 Q44.9 19.4 44.4 19.7 L44.55 18.5 48.5 14.8 49.95 13.25 50.9 12.2 Q51.35 11.7 54.45 10.0 57.55 8.25 58.1 7.75 L58.1 8.65 58.35 8.65 Q59.4 8.0 61.25 4.1 M57.05 15.15 L54.9 17.95 54.3 18.65 53.75 18.9 Q51.9 19.75 49.6 21.15 L48.5 21.85 48.2 22.0 46.9 22.7 47.0 22.65 48.2 21.15 48.25 21.1 48.7 20.6 Q49.45 19.75 49.75 19.65 L54.0 17.0 57.05 15.15 M50.5 23.0 L51.5 23.25 52.8 23.4 53.95 23.4 52.75 23.65 49.95 24.15 49.7 24.2 48.35 24.05 50.2 23.15 50.5 23.0 M36.85 37.95 L37.15 37.95 37.25 37.95 37.85 37.9 Q40.4 43.05 41.45 44.4 L43.95 46.9 44.1 48.25 43.9 48.25 Q41.1 44.45 39.2 42.55 L37.55 39.3 36.85 37.95 M38.3 37.85 L39.45 37.75 40.6 39.05 38.3 37.85 M46.65 36.55 L46.8 36.5 47.3 36.4 47.25 36.4 47.45 36.3 47.65 36.4 49.65 37.45 51.8 38.45 Q55.45 40.15 56.4 40.3 L57.35 41.4 53.9 40.7 52.85 40.0 49.5 38.15 49.25 38.05 47.6 37.2 46.65 36.55 M50.45 35.3 L51.65 34.5 51.75 34.15 51.8 34.15 Q55.15 33.5 56.6 32.75 58.15 32.0 60.15 30.1 L63.15 29.65 62.0 30.3 58.9 32.65 54.35 34.15 50.05 35.65 49.85 35.6 50.1 35.5 50.45 35.3 M15.45 34.9 L15.5 34.95 15.7 35.35 15.8 35.45 15.65 35.45 15.3 35.55 13.3 35.9 12.65 36.1 Q11.2 36.5 9.95 37.25 L5.4 39.2 Q4.8 39.5 4.25 39.75 L2.15 40.95 3.7 38.75 5.1 38.35 10.3 36.45 12.0 35.75 14.15 34.8 15.05 34.85 15.25 34.9 15.45 34.9 M20.25 37.2 L20.3 37.2 22.2 37.45 22.1 37.65 21.8 38.25 20.2 39.9 19.95 40.1 19.45 40.5 18.85 41.1 18.2 42.95 18.15 43.0 17.65 43.8 17.6 43.75 17.6 43.35 Q17.55 42.0 17.75 40.85 L20.25 38.95 20.25 37.2 M9.1 29.55 L9.8 30.1 11.25 31.1 12.95 31.85 13.9 32.05 14.7 33.1 14.8 33.2 14.75 33.6 14.75 33.8 Q14.5 33.85 14.95 34.1 L14.45 33.85 12.6 32.9 11.6 31.85 9.65 30.4 8.6 29.55 9.1 29.55" fill="#e2cfcf" fill-rule="evenodd" stroke="none"/>
    <path d="M43.7 22.25 L44.3 20.45 Q46.4 19.45 48.45 18.4 L49.2 17.75 49.45 17.15 50.1 15.75 56.4 10.05 56.4 10.15 Q53.9 15.15 54.0 15.45 54.1 15.8 56.55 13.5 59.0 11.2 60.05 9.2 61.05 7.15 63.45 4.2 L64.8 2.45 64.65 2.75 64.45 3.1 Q61.0 9.7 57.05 15.15 L54.0 17.0 49.75 19.65 Q49.45 19.75 48.7 20.6 L48.25 21.1 48.2 21.15 47.0 22.65 46.9 22.7 48.2 22.0 48.5 21.85 49.6 21.15 Q51.9 19.75 53.75 18.9 L54.3 18.65 53.75 19.25 50.4 23.0 50.5 23.0 50.2 23.15 48.35 24.05 49.7 24.2 48.3 24.4 48.3 25.35 48.1 25.25 48.1 25.2 43.7 22.25 M32.75 38.0 L35.85 38.0 36.85 37.95 37.55 39.3 39.2 42.55 38.65 42.0 Q36.0 39.55 32.75 38.0 M40.9 37.6 L41.1 37.6 41.7 37.5 45.15 36.9 46.05 36.7 46.65 36.55 47.6 37.2 49.25 38.05 49.5 38.15 52.85 40.0 53.9 40.7 51.55 40.15 49.2 39.5 47.55 39.05 47.1 38.9 47.1 39.05 46.85 38.75 45.85 37.7 45.3 37.2 45.3 39.1 45.55 39.6 46.95 41.9 47.1 42.15 47.1 43.65 45.85 42.9 45.65 42.75 45.1 42.3 44.45 41.7 Q42.55 38.95 40.9 37.6 M58.9 32.65 L57.55 33.65 57.4 33.8 Q54.25 36.15 53.75 37.0 L51.8 36.25 51.05 35.95 50.05 35.65 54.35 34.15 58.9 32.65 M15.8 35.45 L16.35 36.15 17.0 36.45 16.5 36.6 14.65 37.2 11.8 38.1 Q8.55 39.15 5.95 40.2 L3.4 41.3 Q2.25 41.8 1.25 42.3 L2.15 40.95 4.25 39.75 Q4.8 39.5 5.4 39.2 L9.95 37.25 Q11.2 36.5 12.65 36.1 L13.3 35.9 15.3 35.55 15.65 35.45 15.8 35.45 M22.2 37.45 L23.95 37.65 23.45 38.05 20.55 40.4 20.2 40.7 19.85 41.05 18.2 42.95 18.85 41.1 19.45 40.5 19.95 40.1 20.2 39.9 21.8 38.25 22.1 37.65 22.2 37.45 M18.6 37.9 L19.15 37.0 19.6 37.1 19.15 37.4 18.6 37.9 M8.6 29.55 L9.65 30.4 11.6 31.85 12.6 32.9 11.2 32.05 9.4 30.8 Q8.15 30.0 7.35 29.65 L7.5 29.55 8.6 29.55" fill="url(#gradient0)" fill-rule="evenodd" stroke="none"/>
    <path d="M61.25 4.1 Q59.4 8.0 58.35 8.65 L58.1 8.65 58.1 7.75 Q57.55 8.25 54.45 10.0 51.35 11.7 50.9 12.2 L49.95 13.25 48.5 14.8 44.55 18.5 44.75 16.75 44.8 16.5 Q45.3 13.6 47.75 12.0 L48.65 11.45 50.45 10.35 Q54.9 7.65 61.25 4.1 M37.85 37.9 L38.3 37.85 40.6 39.05 40.8 39.35 41.25 40.1 Q43.4 43.65 43.95 46.9 L41.45 44.4 Q40.4 43.05 37.85 37.9 M47.45 36.3 L47.6 36.25 47.65 36.25 48.9 36.2 49.9 36.25 Q51.65 36.5 53.35 37.65 L56.4 40.3 Q55.45 40.15 51.8 38.45 L49.65 37.45 47.65 36.4 47.45 36.3 M51.75 34.15 L51.75 34.0 51.7 33.75 51.75 33.65 51.75 33.6 52.05 33.35 54.35 31.95 Q56.85 30.7 60.15 30.1 58.15 32.0 56.6 32.75 55.15 33.5 51.8 34.15 L51.75 34.15 M47.1 39.05 L47.1 42.15 46.95 41.9 45.55 39.6 45.3 39.1 45.3 37.2 45.85 37.7 46.85 38.75 47.1 39.05" fill="url(#gradient1)" fill-rule="evenodd" stroke="none"/>
    <path d="M17.75 40.85 L18.15 39.1 18.2 38.85 18.3 38.65 18.6 37.9 19.15 37.4 19.6 37.1 20.25 37.2 20.25 38.95 17.75 40.85 M13.9 32.05 L12.95 31.85 11.25 31.1 9.8 30.1 9.1 29.55 11.7 29.55 13.9 32.05 M14.15 34.8 L12.0 35.75 10.3 36.45 5.1 38.35 3.7 38.75 4.3 38.05 6.15 36.45 Q8.2 34.95 10.35 34.85 L10.7 34.8 14.15 34.8" fill="#ffffff" fill-rule="evenodd" stroke="none"/>
  </g>
  <defs>
    <radialGradient cx="0" cy="0" gradientTransform="matrix(0.0348, 0.0, 0.0, 0.0348, 103.05, 44.7)" gradientUnits="userSpaceOnUse" id="gradient0" r="819.2" spreadMethod="pad">
      <stop offset="0.0" stop-color="#b98a8a"></stop>
      <stop offset="1.0" stop-color="#cca9a9"></stop>
    </radialGradient>
    <radialGradient cx="0" cy="0" gradientTransform="matrix(0.061, 0.0, 0.0, 0.061, 82.25, 29.6)" gradientUnits="userSpaceOnUse" id="gradient1" r="819.2" spreadMethod="pad">
      <stop offset="0.47843137254901963" stop-color="#ffffff"></stop>
      <stop offset="0.8823529411764706" stop-color="#f2eaea"></stop>
    </radialGradient>
  </defs>
</svg>