<?xml version="1.0" encoding="UTF-8" standalone="no"?>
<svg xmlns:xlink="http://www.w3.org/1999/xlink" height="13.85px" width="29.5px" xmlns="http://www.w3.org/2000/svg">
  <g transform="matrix(1.0, 0.0, 0.0, 1.0, -25.9, -12.95)">
    <path d="M47.6 14.15 Q49.25 15.0 49.75 19.0 L51.35 19.1 Q51.3 20.05 52.1 21.25 L54.4 24.35 54.4 24.5 Q52.25 23.85 51.1 22.4 50.15 21.2 50.3 20.15 L48.75 20.0 48.35 17.7 48.0 16.95 47.2 17.1 Q45.55 18.95 42.0 19.3 L38.35 22.5 37.5 22.25 36.65 22.0 Q35.85 22.0 33.45 23.05 L32.7 23.4 30.25 25.8 30.55 25.4 Q32.05 23.05 34.55 20.7 36.9 18.4 37.1 18.45 L36.75 18.2 35.65 17.35 34.75 18.4 Q33.9 18.4 33.6 18.0 L32.4 17.85 Q31.75 17.95 31.15 18.4 31.95 16.95 32.95 16.6 L35.55 15.7 Q35.85 15.6 36.6 16.55 L36.35 16.25 36.35 16.3 36.65 16.6 36.7 16.65 37.15 17.15 Q38.5 18.15 40.75 18.2 43.0 18.2 44.95 17.05 46.85 15.9 46.6 14.0 L47.6 14.15 M27.1 21.1 L26.9 21.05 28.05 19.9 Q28.75 19.25 29.65 19.35 30.5 19.5 30.5 19.6 L30.5 19.65 Q29.05 19.65 28.2 20.25 L27.1 21.1 M39.95 19.3 L38.8 19.25 35.0 21.6 37.85 21.3 39.4 19.8 39.95 19.3" fill="#cc3333" fill-rule="evenodd" stroke="none"/>
  </g>
</svg>