<?xml version="1.0" encoding="UTF-8" standalone="no"?>
<svg xmlns:xlink="http://www.w3.org/1999/xlink" height="26.25px" width="15.55px" xmlns="http://www.w3.org/2000/svg">
  <g transform="matrix(1.0, 0.0, 0.0, 1.0, -42.55, -18.25)">
    <path d="M43.75 19.3 Q44.45 19.35 47.3 21.05 47.75 21.05 49.15 21.6 L51.5 22.45 Q53.8 23.05 54.3 21.75 54.9 20.45 56.4 20.95 L57.05 21.25 57.05 22.05 56.8 22.55 57.0 22.55 56.75 24.0 Q56.55 25.15 55.3 26.5 L54.15 27.45 Q54.85 29.2 54.45 31.3 54.25 32.2 52.6 33.5 50.9 34.75 50.8 35.4 50.65 36.0 50.9 36.7 L51.05 38.05 50.15 40.8 Q49.3 42.9 48.55 43.5 L48.15 43.3 Q49.4 41.45 49.3 38.95 49.1 35.45 49.2 35.05 49.35 34.15 50.85 32.85 L52.4 31.1 Q52.65 29.7 50.05 26.7 L48.6 25.65 47.4 23.8 47.45 23.7 Q46.1 22.0 46.2 21.55 L47.0 21.85 46.5 21.25 Q45.65 20.25 43.65 20.15 43.45 20.05 43.6 19.6 43.6 19.3 43.75 19.25 L43.75 19.3" fill="#cc3333" fill-rule="evenodd" stroke="none"/>
  </g>
</svg>