<?xml version="1.0" encoding="UTF-8" standalone="no"?>
<svg xmlns:xlink="http://www.w3.org/1999/xlink" height="54.75px" width="75.35px" xmlns="http://www.w3.org/2000/svg">
  <g transform="matrix(1.0, 0.0, 0.0, 1.0, 1, 1)">
    <path d="M62.2 2.05 Q62.2 2.7 58.55 8.45 54.65 14.65 52.7 16.45 L57.15 15.6 Q64.75 14.6 72.75 16.6 L73.35 16.75 73.35 16.85 Q73.35 18.0 66.65 20.5 L60.1 22.7 60.05 22.7 59.8 22.8 58.6 23.1 59.4 23.85 59.45 23.9 60.65 25.2 58.55 26.6 57.15 27.45 56.05 28.15 55.85 30.05 54.5 36.4 53.75 38.55 54.25 38.35 55.75 37.95 57.1 37.7 58.4 38.0 57.7 39.0 55.65 41.05 56.35 41.6 56.4 41.6 59.8 45.5 61.5 48.8 60.85 48.75 53.5 47.1 53.65 47.95 53.8 49.1 53.75 49.95 53.4 51.8 Q53.15 52.75 52.75 52.75 L48.25 49.45 47.55 49.9 46.25 50.75 46.0 50.8 45.35 50.1 45.3 50.0 45.25 49.85 45.0 49.3 43.0 50.3 41.85 50.75 40.2 51.1 39.8 51.0 39.7 49.65 39.8 48.75 39.85 48.5 40.25 46.4 40.7 44.5 39.3 44.3 38.75 44.2 35.05 43.95 Q34.7 43.85 34.7 43.6 34.7 42.7 37.85 41.0 L38.0 40.9 38.35 40.75 38.45 40.7 Q39.85 39.9 41.0 39.45 L42.8 38.8 42.35 36.9 Q42.15 35.6 41.75 34.9 L41.75 34.15 43.1 34.6 44.1 35.1 45.6 36.25 46.6 37.4 47.65 35.4 Q48.3 33.75 48.25 32.95 L47.65 30.2 45.9 31.2 44.3 31.85 43.75 31.75 43.7 29.75 Q43.7 27.95 44.15 26.65 L43.6 26.75 42.1 26.55 42.1 26.5 Q42.1 26.25 43.2 25.45 L44.55 24.55 44.65 24.45 Q43.0 25.05 41.15 25.45 L39.1 25.8 37.85 26.0 Q35.8 26.3 34.9 26.7 L35.2 26.65 Q33.0 27.25 31.15 28.5 L31.15 28.45 31.0 28.55 29.7 29.15 30.1 28.55 30.8 27.6 32.25 25.45 Q30.7 26.4 28.15 26.9 L25.1 27.35 19.9 27.9 11.05 28.45 6.6 28.35 4.3 27.9 3.5 27.4 5.6 26.4 Q7.65 25.3 10.15 23.6 L10.65 23.3 16.3 20.0 12.15 17.85 11.35 17.35 12.8 17.25 14.8 17.0 15.1 16.95 Q11.65 16.0 5.95 8.9 0.7 2.3 0.0 0.0 L2.05 0.3 13.1 1.25 Q21.7 1.75 24.5 3.1 L24.65 3.2 Q31.1 6.6 33.45 10.4 L33.0 8.15 32.7 6.85 32.65 6.65 Q31.65 3.15 30.25 0.3 L31.25 0.75 Q32.85 1.45 34.2 2.4 35.8 3.55 36.95 5.0 L37.2 5.3 Q39.4 8.15 40.8 11.0 43.0 7.65 48.25 4.95 49.95 4.1 51.7 3.45 L52.8 3.1 Q56.75 1.85 60.9 1.75 L61.8 1.7 Q62.2 1.7 62.05 1.8 L62.15 1.8 62.2 2.05 M69.35 16.9 Q60.9 15.8 53.75 16.95 L53.1 17.05 51.65 17.3 Q51.2 16.6 52.95 15.25 55.35 12.65 57.4 9.2 L59.4 5.65 60.9 2.8 60.0 2.8 58.15 2.75 Q53.45 2.75 47.3 6.5 44.7 8.0 43.15 9.35 L42.1 10.35 Q41.05 11.4 40.9 12.35 L39.8 10.7 38.45 8.75 37.45 7.4 Q35.05 4.3 32.15 2.35 L32.35 3.2 33.25 6.7 33.6 8.15 34.15 11.6 33.75 12.2 Q31.6 8.7 28.2 6.45 23.85 3.6 17.4 2.7 L8.45 1.95 3.35 1.45 1.55 1.05 Q2.2 3.0 4.55 5.85 L7.85 9.8 10.15 11.95 11.4 13.0 11.9 13.4 13.55 14.8 16.9 17.35 17.25 17.6 13.75 17.8 13.45 17.8 14.1 18.15 17.05 19.45 18.35 18.6 19.3 18.05 19.9 17.7 Q21.5 16.8 23.95 16.45 L24.55 16.4 24.8 16.4 25.5 16.35 25.2 16.55 22.45 17.55 Q21.4 18.0 20.2 18.6 L20.15 18.6 20.05 18.65 5.1 27.5 16.1 27.05 19.7 26.9 21.1 26.85 27.8 26.3 Q30.8 25.65 33.35 24.0 L34.75 22.55 35.05 22.15 36.95 19.95 36.3 21.0 35.9 21.6 35.0 22.85 32.25 26.65 32.95 26.5 40.7 24.75 41.8 24.5 43.35 24.15 46.85 23.25 43.95 25.85 43.9 25.9 46.2 25.2 46.25 25.15 46.2 25.25 46.05 25.45 46.15 25.4 45.9 25.85 44.65 28.35 44.65 30.5 44.7 30.5 Q45.75 30.3 46.8 29.55 L47.85 28.85 Q48.45 28.85 49.2 32.7 L49.05 33.25 47.1 38.45 45.6 37.2 45.55 37.15 Q44.3 35.8 42.75 35.25 L42.65 35.2 43.2 37.6 43.6 39.2 43.6 39.45 43.55 39.45 43.3 39.55 42.6 39.7 Q39.05 40.4 35.75 43.25 L37.3 43.4 38.75 43.5 40.2 43.65 41.2 43.7 41.05 44.85 40.45 50.0 40.4 50.2 40.35 50.3 40.55 50.35 41.7 50.1 41.8 50.05 42.55 49.75 43.55 49.3 45.05 48.6 45.1 48.55 45.3 48.45 45.95 49.45 46.25 50.05 46.4 49.95 47.7 48.95 48.2 48.55 Q48.85 48.55 52.6 51.75 L53.0 50.8 53.2 49.2 52.8 46.85 52.7 46.2 52.7 45.7 52.75 45.7 Q53.3 45.65 56.6 46.7 L59.3 47.6 60.05 47.9 60.3 47.9 55.65 42.15 54.65 41.35 56.0 39.8 57.25 38.35 Q55.3 38.7 53.1 40.1 L52.55 40.45 55.6 27.7 55.6 27.6 56.55 26.95 57.85 26.1 59.5 25.05 Q57.5 23.2 57.5 22.85 L57.65 22.8 61.6 21.55 62.35 21.35 67.0 19.6 71.9 17.25 69.35 16.9 M45.1 48.55 L45.1 48.6 45.1 48.55" fill="#a36a6a" fill-rule="evenodd" stroke="none"/>
    <path d="M69.35 16.9 L65.9 17.2 57.3 18.0 53.85 17.7 52.6 17.6 Q52.9 17.3 53.75 16.95 60.9 15.8 69.35 16.9 M67.05 18.4 L68.0 18.4 66.2 18.95 64.95 19.2 Q61.65 20.0 57.1 20.0 L55.5 19.8 61.0 18.45 61.6 18.25 61.8 18.2 64.0 18.35 64.5 18.4 67.05 18.4 M16.9 17.35 L17.3 17.4 Q18.45 17.65 19.3 18.05 L18.35 18.6 17.05 19.45 14.1 18.15 13.45 17.8 13.75 17.8 17.25 17.6 16.9 17.35 M46.85 23.25 L47.05 23.05 47.1 23.0 48.3 22.25 Q49.85 21.4 50.8 21.4 L51.1 21.4 51.2 21.4 48.65 23.35 48.2 25.25 46.45 28.35 44.7 30.5 44.65 30.5 44.65 28.35 45.9 25.85 46.15 25.4 46.05 25.45 46.2 25.25 46.3 25.15 46.3 25.1 46.3 25.05 46.3 25.1 46.25 25.15 46.2 25.2 43.9 25.9 43.95 25.85 46.85 23.25 M53.0 50.8 L51.95 48.95 Q51.2 47.85 51.2 46.8 51.2 44.6 51.6 42.2 L52.35 44.45 52.75 45.7 52.7 45.7 52.7 46.2 52.8 46.85 53.2 49.2 53.0 50.8 M59.3 47.6 L55.7 45.25 Q52.5 43.1 52.4 42.4 L52.6 42.4 Q52.9 42.7 54.3 43.25 L55.25 43.65 53.4 41.4 55.65 42.15 60.3 47.9 60.05 47.9 59.3 47.6 M56.0 39.8 L53.6 40.2 53.1 40.1 Q55.3 38.7 57.25 38.35 L56.0 39.8 M54.65 21.75 L54.4 21.0 57.65 22.8 57.5 22.85 Q57.5 23.2 59.5 25.05 L57.85 26.1 56.1 24.45 56.9 24.75 58.25 24.95 Q57.6 24.4 56.5 23.9 L55.4 23.45 55.25 23.15 54.65 21.75 M49.2 32.7 Q50.1 25.4 50.0 23.6 L50.2 23.25 50.9 22.3 51.0 22.2 51.6 28.8 51.35 31.05 49.5 35.3 51.0 33.35 52.1 31.8 Q51.8 34.45 50.3 37.05 L47.7 40.8 44.75 37.75 Q43.95 36.85 43.5 36.15 L42.75 35.25 Q44.3 35.8 45.55 37.15 L45.6 37.2 47.1 38.45 49.05 33.25 49.2 32.7 M42.6 39.7 L42.9 39.75 Q41.05 40.7 37.3 43.4 L35.75 43.25 Q39.05 40.4 42.6 39.7 M41.05 44.85 Q41.7 43.35 42.9 42.7 43.75 42.25 45.2 41.85 L44.3 43.45 Q41.8 48.2 40.45 50.0 L41.05 44.85 M45.05 48.6 Q45.0 48.2 45.05 48.45 L45.1 48.55 45.85 46.4 46.6 44.2 47.0 44.2 47.0 46.8 46.65 48.65 46.45 49.7 46.4 49.95 46.25 50.05 45.95 49.45 45.3 48.45 45.1 48.55 45.05 48.6 M20.95 12.2 L22.8 12.75 23.65 13.2 Q25.6 14.25 27.2 14.6 L27.2 14.8 19.95 13.75 Q18.05 13.1 13.0 9.8 L19.35 11.75 21.4 13.4 21.6 13.0 20.95 12.2 M20.2 18.6 L20.15 18.6 20.2 18.6 M28.0 21.65 L21.2 23.45 24.65 22.05 25.25 21.85 25.3 21.8 Q26.6 21.35 27.5 21.05 29.6 20.4 31.6 20.4 L32.4 20.4 28.0 21.65 M38.4 23.2 L38.65 23.2 38.6 23.2 38.4 23.2 M17.05 6.05 L16.8 6.0 17.0 6.0 17.05 6.05" fill="#ffffff" fill-rule="evenodd" stroke="none"/>
    <path d="M67.05 18.4 L64.5 18.4 64.0 18.35 61.8 18.2 61.6 18.25 61.0 18.45 55.5 19.8 57.1 20.0 Q61.65 20.0 64.95 19.2 L66.2 18.95 68.0 18.4 67.05 18.4 M53.75 16.95 Q52.9 17.3 52.6 17.6 L53.85 17.7 57.3 18.0 65.9 17.2 69.35 16.9 71.9 17.25 67.0 19.6 62.35 21.35 62.95 20.95 64.3 20.15 63.3 20.3 57.95 20.9 58.1 20.85 52.65 20.55 53.85 20.05 55.05 19.65 54.9 19.65 51.65 19.2 48.9 18.6 49.05 18.45 53.1 17.05 53.75 16.95 M52.1 13.05 L53.0 12.25 Q56.45 8.75 56.65 6.4 L57.95 5.0 60.0 2.8 60.9 2.8 59.4 5.65 59.4 5.4 59.25 5.45 58.1 7.3 56.6 9.3 54.75 11.1 53.05 12.65 52.1 13.05 M43.15 9.35 Q42.1 11.35 41.4 15.8 L47.3 11.55 Q50.25 9.4 51.6 7.8 L51.8 7.8 49.8 12.0 Q51.9 10.95 54.85 8.2 L54.3 10.3 Q53.6 11.95 51.0 13.2 L50.6 13.4 50.1 13.45 47.05 14.0 47.05 13.9 48.25 12.2 48.15 12.2 Q47.9 12.6 45.05 14.5 L41.75 16.6 Q40.65 17.4 40.7 17.9 L40.6 17.9 40.6 17.45 Q40.6 15.05 41.3 12.8 L42.1 10.35 43.15 9.35 M39.8 10.7 L40.3 13.9 40.3 14.65 37.9 12.6 37.9 12.65 38.55 14.7 Q37.5 13.35 36.35 11.0 L35.95 9.15 39.0 12.3 38.95 11.95 38.45 8.75 39.8 10.7 M38.75 15.4 L38.9 15.9 Q35.1 13.05 34.9 11.9 L34.5 9.7 33.6 8.15 33.25 6.7 32.35 3.2 Q33.7 5.95 35.35 8.3 L35.5 8.6 35.7 9.95 36.0 11.3 37.9 14.0 38.65 15.25 38.75 15.4 M28.7 12.9 L25.6 12.2 25.2 12.2 25.2 12.3 26.95 13.95 28.25 15.45 27.75 15.45 22.4 14.95 16.4 13.6 Q14.95 13.1 12.9 11.1 L10.1 7.85 10.5 7.85 13.15 8.3 7.55 5.75 Q7.75 6.95 9.5 9.85 L11.4 13.0 10.15 11.95 9.35 10.95 6.9 7.45 2.65 1.9 2.65 1.8 Q14.15 5.4 15.4 6.45 16.35 9.7 17.45 10.45 L19.35 11.75 13.0 9.8 Q18.05 13.1 19.95 13.75 L27.2 14.8 27.2 14.6 Q25.6 14.25 23.65 13.2 L22.8 12.75 20.95 12.2 19.15 10.7 Q17.6 9.5 17.15 8.8 L22.6 10.4 17.05 6.05 Q19.35 6.55 21.85 7.55 23.75 9.5 27.3 11.95 L28.7 12.9 M24.8 16.4 L26.3 16.0 26.9 16.0 25.65 17.3 24.25 18.4 24.25 18.5 28.2 17.7 31.7 17.1 31.95 17.1 Q30.2 17.5 27.15 18.45 L20.65 20.6 25.25 16.55 25.2 16.55 25.5 16.35 24.8 16.4 M29.6 18.55 L23.15 21.95 16.65 25.0 24.85 24.25 25.15 24.25 Q20.2 25.95 17.9 26.1 L17.8 26.2 17.8 26.35 21.1 26.85 19.7 26.9 Q13.6 26.65 10.2 26.8 L6.8 27.0 Q7.0 26.8 13.05 24.7 L20.45 22.15 29.6 18.55 M40.95 18.7 L41.05 18.65 Q42.7 18.0 45.1 17.4 L47.6 16.65 47.75 16.65 Q47.15 18.4 45.85 19.55 44.95 20.35 43.0 21.4 L47.45 20.4 Q46.25 22.3 43.35 24.15 L41.8 24.5 40.7 24.75 32.95 26.5 34.15 25.85 37.25 24.35 38.2 24.05 42.05 23.05 Q44.45 22.3 46.0 21.45 L38.65 23.2 41.7 20.85 Q44.65 18.65 46.8 17.6 L46.6 17.6 40.95 18.7 M51.1 21.4 L52.5 20.7 52.5 27.2 52.2 29.7 54.0 26.45 54.15 26.45 54.15 27.65 Q54.55 30.8 52.0 37.0 50.95 39.55 50.2 43.45 50.05 45.75 50.25 47.05 L50.6 48.95 50.55 49.1 Q49.7 47.75 49.55 46.7 L49.05 43.05 47.7 48.95 46.4 49.95 46.45 49.7 46.65 48.65 47.0 46.8 47.0 44.2 46.6 44.2 45.85 46.4 45.1 48.55 45.05 48.45 Q45.0 48.2 45.05 48.6 L43.55 49.3 44.0 48.2 44.85 45.8 45.3 44.15 45.25 44.15 Q44.45 44.65 43.1 47.2 42.0 49.2 41.8 50.05 L41.7 50.1 40.55 50.35 40.35 50.3 40.4 50.2 40.45 50.0 Q41.8 48.2 44.3 43.45 L45.2 41.85 Q43.75 42.25 42.9 42.7 41.7 43.35 41.05 44.85 L41.2 43.7 40.2 43.65 Q40.65 43.25 41.25 42.8 L43.3 40.95 40.8 42.3 38.75 43.5 37.3 43.4 Q41.05 40.7 42.9 39.75 L42.6 39.7 43.3 39.55 43.55 39.45 43.6 39.45 43.6 39.2 43.2 37.6 42.65 35.2 42.75 35.25 43.5 36.15 Q43.95 36.85 44.75 37.75 L47.7 40.8 50.3 37.05 Q51.8 34.45 52.1 31.8 L51.0 33.35 49.5 35.3 51.35 31.05 51.6 28.8 51.0 22.2 50.9 22.3 50.2 23.25 50.0 23.6 Q50.1 25.4 49.2 32.7 48.45 28.85 47.85 28.85 L46.8 29.55 Q45.75 30.3 44.7 30.5 L46.45 28.35 48.2 25.25 48.65 23.35 51.2 21.4 51.1 21.4 M56.55 26.95 L55.3 25.4 Q54.75 23.1 53.55 20.85 L53.7 20.85 54.5 21.65 54.65 21.75 55.25 23.15 55.4 23.45 56.5 23.9 Q57.6 24.4 58.25 24.95 L56.9 24.75 56.1 24.45 57.85 26.1 56.55 26.95 M43.0 21.4 L42.75 21.45 42.9 21.45 43.0 21.4 M45.1 48.55 L45.1 48.6 45.1 48.55 M25.3 21.8 Q28.2 20.2 32.25 19.2 L36.1 18.45 36.5 18.45 Q34.3 21.05 30.35 21.55 L28.0 21.65 32.4 20.4 31.6 20.4 Q29.6 20.4 27.5 21.05 26.6 21.35 25.3 21.8" fill="#e2cfcf" fill-rule="evenodd" stroke="none"/>
    <path d="M53.1 17.05 L49.05 18.45 48.9 18.6 51.65 19.2 54.9 19.65 55.05 19.65 53.85 20.05 52.65 20.55 58.1 20.85 57.95 20.9 63.3 20.3 64.3 20.15 62.95 20.95 62.35 21.35 61.6 21.55 57.65 22.8 54.4 21.0 54.65 21.75 54.5 21.65 53.7 20.85 53.55 20.85 Q54.75 23.1 55.3 25.4 L56.55 26.95 55.6 27.6 55.6 27.7 52.55 40.45 53.1 40.1 53.6 40.2 56.0 39.8 54.65 41.35 55.65 42.15 53.4 41.4 55.25 43.65 54.3 43.25 Q52.9 42.7 52.6 42.4 L52.4 42.4 Q52.5 43.1 55.7 45.25 L59.3 47.6 56.6 46.7 Q53.3 45.65 52.75 45.7 L52.35 44.45 51.6 42.2 Q51.2 44.6 51.2 46.8 51.2 47.85 51.95 48.95 L53.0 50.8 52.6 51.75 Q48.85 48.55 48.2 48.55 L47.7 48.95 49.05 43.05 49.55 46.7 Q49.7 47.75 50.55 49.1 L50.6 48.95 50.25 47.05 Q50.05 45.75 50.2 43.45 50.95 39.55 52.0 37.0 54.55 30.8 54.15 27.65 L54.15 26.45 54.0 26.45 52.2 29.7 52.5 27.2 52.5 20.7 51.1 21.4 50.8 21.4 Q49.85 21.4 48.3 22.25 L47.1 23.0 47.05 23.05 46.85 23.25 43.35 24.15 Q46.25 22.3 47.45 20.4 L43.0 21.4 Q44.95 20.35 45.85 19.55 47.15 18.4 47.75 16.65 L47.6 16.65 45.1 17.4 Q42.7 18.0 41.05 18.65 L40.95 18.7 39.45 18.95 Q38.15 19.15 36.3 21.0 L36.95 19.95 35.05 22.15 34.75 22.55 33.35 24.0 Q30.8 25.65 27.8 26.3 L21.1 26.85 17.8 26.35 17.8 26.2 17.9 26.1 Q20.2 25.95 25.15 24.25 L24.85 24.25 16.65 25.0 23.15 21.95 29.6 18.55 33.8 16.8 31.95 17.1 31.7 17.1 28.2 17.7 24.25 18.5 24.25 18.4 25.65 17.3 26.9 16.0 26.3 16.0 24.8 16.4 24.55 16.4 23.95 16.45 Q21.5 16.8 19.9 17.7 L19.3 18.05 Q18.45 17.65 17.3 17.4 L16.9 17.35 13.55 14.8 11.9 13.4 11.4 13.0 9.5 9.85 Q7.75 6.95 7.55 5.75 L13.15 8.3 10.5 7.85 10.1 7.85 12.9 11.1 Q14.95 13.1 16.4 13.6 L22.4 14.95 27.75 15.45 28.25 15.45 26.95 13.95 25.2 12.3 25.2 12.2 25.6 12.2 28.7 12.9 33.6 16.1 33.05 15.55 31.85 13.9 Q31.35 13.2 29.25 12.3 27.15 11.45 26.75 10.85 L25.5 9.25 28.35 10.9 34.2 14.8 31.55 9.9 28.2 6.45 Q31.6 8.7 33.75 12.2 L34.15 11.6 33.6 8.15 34.5 9.7 34.9 11.9 Q35.1 13.05 38.9 15.9 L38.75 15.4 40.15 16.35 Q39.4 15.9 38.55 14.7 L37.9 12.65 37.9 12.6 40.3 14.65 40.3 13.9 39.8 10.7 40.9 12.35 Q41.05 11.4 42.1 10.35 L41.3 12.8 Q40.6 15.05 40.6 17.45 L40.6 17.9 40.7 17.9 Q40.65 17.4 41.75 16.6 L45.05 14.5 Q47.9 12.6 48.15 12.2 L48.25 12.2 47.05 13.9 47.05 14.0 50.1 13.45 50.6 13.4 Q49.15 13.9 48.35 14.3 46.9 14.75 46.15 15.2 L49.1 14.6 Q50.8 14.0 52.1 13.05 L53.05 12.65 54.75 11.1 56.6 9.3 58.1 7.3 59.25 5.45 59.4 5.4 59.4 5.65 57.4 9.2 Q55.35 12.65 52.95 15.25 51.2 16.6 51.65 17.3 L53.1 17.05 M43.0 21.4 L42.9 21.45 42.75 21.45 43.0 21.4 M38.75 43.5 L40.8 42.3 43.3 40.95 41.25 42.8 Q40.65 43.25 40.2 43.65 L38.75 43.5 M41.8 50.05 Q42.0 49.2 43.1 47.2 44.45 44.65 45.25 44.15 L45.3 44.15 44.85 45.8 44.0 48.2 43.55 49.3 42.55 49.75 41.8 50.05 M28.0 21.65 L30.35 21.55 Q34.3 21.05 36.5 18.45 L36.1 18.45 32.25 19.2 Q28.2 20.2 25.3 21.8 L25.25 21.85 24.65 22.05 21.2 23.45 28.0 21.65" fill="url(#gradient0)" fill-rule="evenodd" stroke="none"/>
    <path d="M60.0 2.8 L57.95 5.0 56.65 6.4 Q56.45 8.75 53.0 12.25 L52.1 13.05 Q50.8 14.0 49.1 14.6 L46.15 15.2 Q46.9 14.75 48.35 14.3 49.15 13.9 50.6 13.4 L51.0 13.2 Q53.6 11.95 54.3 10.3 L54.85 8.2 Q51.9 10.95 49.8 12.0 L51.8 7.8 51.6 7.8 Q50.25 9.4 47.3 11.55 L41.4 15.8 Q42.1 11.35 43.15 9.35 44.7 8.0 47.3 6.5 53.45 2.75 58.15 2.75 L60.0 2.8" fill="url(#gradient1)" fill-rule="evenodd" stroke="none"/>
    <path d="M36.3 21.0 Q38.15 19.15 39.45 18.95 L40.95 18.7 46.6 17.6 46.8 17.6 Q44.65 18.65 41.7 20.85 L38.65 23.2 46.0 21.45 Q44.45 22.3 42.05 23.05 L38.2 24.05 37.25 24.35 34.15 25.85 32.95 26.5 32.25 26.65 35.0 22.85 35.9 21.6 36.3 21.0 M38.4 23.2 L38.6 23.2 38.65 23.2 38.4 23.2" fill="url(#gradient2)" fill-rule="evenodd" stroke="none"/>
    <path d="M38.55 14.7 Q39.4 15.9 40.15 16.35 L38.75 15.4 38.65 15.25 37.9 14.0 36.0 11.3 35.7 9.95 35.5 8.6 35.35 8.3 Q33.7 5.95 32.35 3.2 L32.15 2.35 Q35.05 4.3 37.45 7.4 L38.45 8.75 38.95 11.95 39.0 12.3 35.95 9.15 36.35 11.0 Q37.5 13.35 38.55 14.7" fill="url(#gradient3)" fill-rule="evenodd" stroke="none"/>
    <path d="M28.2 6.45 L31.55 9.9 34.2 14.8 28.35 10.9 25.5 9.25 26.75 10.85 Q27.15 11.45 29.25 12.3 31.35 13.2 31.85 13.9 L33.05 15.55 33.6 16.1 28.7 12.9 27.3 11.95 Q23.75 9.5 21.85 7.55 19.35 6.55 17.05 6.05 L22.6 10.4 17.15 8.8 Q17.6 9.5 19.15 10.7 L20.95 12.2 21.6 13.0 21.4 13.4 19.35 11.75 17.45 10.45 Q16.35 9.7 15.4 6.45 14.15 5.4 2.65 1.8 L2.65 1.9 6.9 7.45 9.35 10.95 10.15 11.95 7.85 9.8 4.55 5.85 Q2.2 3.0 1.55 1.05 L3.35 1.45 8.45 1.95 17.4 2.7 Q23.85 3.6 28.2 6.45 M17.05 6.05 L17.0 6.0 16.8 6.0 17.05 6.05" fill="url(#gradient4)" fill-rule="evenodd" stroke="none"/>
    <path d="M31.95 17.1 L33.8 16.8 29.6 18.55 20.45 22.15 13.05 24.7 Q7.0 26.8 6.8 27.0 L10.2 26.8 Q13.6 26.65 19.7 26.9 L16.1 27.05 5.1 27.5 20.05 18.65 20.15 18.6 20.2 18.6 Q21.4 18.0 22.45 17.55 L25.2 16.55 25.25 16.55 20.65 20.6 27.15 18.45 Q30.2 17.5 31.95 17.1" fill="url(#gradient5)" fill-rule="evenodd" stroke="none"/>
  </g>
  <defs>
    <radialGradient cx="0" cy="0" gradientTransform="matrix(0.0588, 0.0, 0.0, 0.0588, 45.0, 21.0)" gradientUnits="userSpaceOnUse" id="gradient0" r="819.2" spreadMethod="pad">
      <stop offset="0.0" stop-color="#b98a8a"></stop>
      <stop offset="1.0" stop-color="#cca9a9"></stop>
    </radialGradient>
    <radialGradient cx="0" cy="0" gradientTransform="matrix(0.0162, 0.0, 0.0, 0.0162, 50.4, 7.0)" gradientUnits="userSpaceOnUse" id="gradient1" r="819.2" spreadMethod="pad">
      <stop offset="0.47843137254901963" stop-color="#ffffff"></stop>
      <stop offset="0.8823529411764706" stop-color="#f2eaea"></stop>
    </radialGradient>
    <radialGradient cx="0" cy="0" gradientTransform="matrix(0.015, 0.0, 0.0, 0.015, 36.2, 23.2)" gradientUnits="userSpaceOnUse" id="gradient2" r="819.2" spreadMethod="pad">
      <stop offset="0.47843137254901963" stop-color="#ffffff"></stop>
      <stop offset="0.8823529411764706" stop-color="#f2eaea"></stop>
    </radialGradient>
    <radialGradient cx="0" cy="0" gradientTransform="matrix(0.0118, 0.0, 0.0, 0.0118, 34.0, 6.2)" gradientUnits="userSpaceOnUse" id="gradient3" r="819.2" spreadMethod="pad">
      <stop offset="0.47843137254901963" stop-color="#ffffff"></stop>
      <stop offset="0.8823529411764706" stop-color="#f2eaea"></stop>
    </radialGradient>
    <radialGradient cx="0" cy="0" gradientTransform="matrix(0.0254, 0.0, 0.0, 0.0254, 16.0, 5.6)" gradientUnits="userSpaceOnUse" id="gradient4" r="819.2" spreadMethod="pad">
      <stop offset="0.47843137254901963" stop-color="#ffffff"></stop>
      <stop offset="0.8823529411764706" stop-color="#f2eaea"></stop>
    </radialGradient>
    <radialGradient cx="0" cy="0" gradientTransform="matrix(0.0211, 0.0, 0.0, 0.0211, 17.2, 21.4)" gradientUnits="userSpaceOnUse" id="gradient5" r="819.2" spreadMethod="pad">
      <stop offset="0.47843137254901963" stop-color="#ffffff"></stop>
      <stop offset="0.8823529411764706" stop-color="#f2eaea"></stop>
    </radialGradient>
  </defs>
</svg>