<?xml version="1.0" encoding="UTF-8" standalone="no"?>
<svg xmlns:xlink="http://www.w3.org/1999/xlink" height="41.6px" width="93.9px" xmlns="http://www.w3.org/2000/svg">
  <g transform="matrix(1.0, 0.0, 0.0, 1.0, 1, 1)">
    <path d="M91.9 15.9 L91.9 16.0 91.75 15.75 91.9 15.9 M67.1 0.65 L64.05 0.7 Q61.3 0.9 56.65 2.5 56.05 8.2 51.0 13.15 L50.85 13.25 Q51.5 13.3 52.05 13.7 L52.1 13.75 52.9 13.45 54.6 12.5 Q56.45 11.3 59.8 7.2 L61.15 5.8 63.65 5.9 66.15 6.45 67.35 7.05 67.6 7.2 Q70.5 13.7 72.1 14.1 L77.75 14.95 77.6 14.35 77.0 11.9 Q76.6 9.7 76.65 8.85 L74.3 8.45 Q72.85 7.8 71.9 6.55 L71.8 6.35 71.05 4.95 70.0 2.35 Q69.35 1.15 68.15 0.85 L67.9 0.75 67.25 0.65 67.1 0.65 M74.95 35.9 Q73.95 36.9 73.25 38.65 L73.2 38.8 72.15 39.6 71.7 39.6 71.6 39.5 Q71.95 33.9 69.45 32.45 66.9 30.95 64.1 31.05 L56.9 31.2 56.25 31.25 55.25 28.85 Q50.8 18.55 48.4 18.4 46.0 18.2 42.95 19.5 40.2 20.65 39.1 21.55 39.65 23.15 39.5 24.0 39.35 24.95 25.7 26.0 L18.0 26.45 16.2 26.5 6.85 25.9 0.0 24.2 Q0.3 20.65 1.3 18.1 L1.85 16.6 Q2.6 15.8 5.3 16.25 L6.15 16.45 12.4 17.5 35.1 15.0 37.25 17.35 37.25 17.4 39.05 17.4 40.25 16.45 43.6 14.6 Q44.6 14.05 46.7 13.5 L48.85 13.05 50.4 13.05 52.4 10.8 Q54.5 8.4 55.15 5.85 L55.9 1.8 Q56.7 1.4 60.75 0.65 L67.35 0.0 70.15 0.1 Q70.15 2.05 71.35 4.25 72.05 5.5 73.1 6.35 74.35 7.4 76.05 7.75 L77.5 7.85 77.8 7.85 77.8 8.25 Q76.9 8.75 76.9 10.2 76.9 11.25 77.5 12.25 L78.15 13.05 78.55 14.5 78.7 14.95 78.85 15.35 79.1 15.95 77.55 15.95 73.55 15.3 72.45 14.95 70.25 14.15 68.9 12.15 67.35 9.25 Q66.2 6.45 63.65 6.55 61.05 6.6 59.5 8.5 L57.65 10.95 55.3 12.8 53.0 14.3 55.9 19.55 Q58.85 24.9 59.4 25.45 L63.6 23.95 Q68.0 22.4 68.95 22.4 L72.5 24.3 Q76.3 26.55 77.75 28.25 L80.15 31.65 81.5 33.95 80.4 37.4 80.35 37.4 Q80.1 37.4 79.55 36.65 L79.65 36.1 Q79.55 34.55 78.05 34.55 77.15 34.55 76.4 34.9 79.0 33.1 79.35 33.2 L80.15 33.35 79.55 32.45 Q73.6 23.45 68.3 23.45 L68.0 23.5 67.95 23.55 67.25 23.75 58.65 27.05 56.0 21.9 52.9 16.0 Q52.45 15.15 51.85 14.8 50.1 13.55 47.5 13.9 L47.05 14.0 Q45.8 14.2 44.5 14.85 L43.9 15.15 Q42.1 16.1 40.2 17.85 L39.3 18.65 39.15 18.6 38.85 18.5 37.65 18.25 36.95 18.3 36.55 18.55 36.15 19.3 36.3 19.45 39.15 19.9 Q41.0 19.5 42.95 18.55 44.9 17.6 47.05 17.45 49.15 17.3 50.2 18.1 50.7 18.5 52.4 21.55 L55.0 26.6 Q56.85 30.5 57.65 30.45 L61.4 30.1 66.25 29.75 Q68.15 29.75 69.8 31.5 71.4 33.2 73.2 37.25 L73.2 37.4 74.95 35.9 M7.9 23.2 L5.15 22.4 1.3 21.05 0.75 23.4 3.85 24.35 9.65 25.45 10.45 25.5 Q15.65 25.8 21.55 25.3 L23.4 25.1 38.4 23.3 37.75 21.5 31.75 22.2 27.0 22.45 Q26.2 22.45 26.1 22.25 L30.0 21.65 Q32.1 21.25 35.25 19.85 L35.0 19.75 Q33.35 19.1 29.45 19.05 L34.25 18.0 35.85 17.65 Q35.05 16.4 34.65 16.4 L29.2 16.75 Q20.45 17.4 12.5 18.9 7.35 17.05 5.3 16.9 L4.05 16.8 2.75 16.8 2.45 17.45 4.7 19.2 4.9 19.3 4.95 19.3 Q6.6 20.4 8.1 20.8 L6.7 20.5 6.45 20.4 3.55 19.3 2.0 18.55 1.5 20.35 6.35 22.35 Q8.6 23.15 10.85 23.35 L7.9 23.2 M39.0 20.9 L38.85 20.75 36.95 20.35 36.3 21.1 37.6 21.35 38.15 21.25 39.0 20.9" fill="#a36a6a" fill-rule="evenodd" stroke="none"/>
    <path d="M67.1 0.65 Q66.4 0.7 64.3 1.65 61.85 2.75 61.85 3.15 63.05 4.05 67.95 6.35 L71.05 7.8 72.35 8.45 72.4 8.4 72.4 8.15 71.9 6.55 Q72.85 7.8 74.3 8.45 73.9 8.35 73.4 9.6 72.85 10.8 72.85 11.75 L72.9 12.9 Q72.95 13.2 73.3 13.3 L76.25 14.05 77.6 14.35 77.75 14.95 72.1 14.1 Q70.5 13.7 67.6 7.2 L67.35 7.05 66.15 6.45 63.65 5.9 61.15 5.8 59.8 7.2 Q56.45 11.3 54.6 12.5 L52.9 13.45 52.1 13.75 52.05 13.7 Q51.5 13.3 50.85 13.25 L51.0 13.15 Q56.05 8.2 56.65 2.5 61.3 0.9 64.05 0.7 L67.1 0.65" fill="url(#gradient0)" fill-rule="evenodd" stroke="none"/>
    <path d="M71.9 6.55 L72.4 8.15 72.4 8.4 72.35 8.45 71.05 7.8 67.95 6.35 Q63.05 4.05 61.85 3.15 61.85 2.75 64.3 1.65 66.4 0.7 67.1 0.65 L67.25 0.65 67.9 0.75 68.15 0.85 Q69.35 1.15 70.0 2.35 L71.05 4.95 71.8 6.35 71.9 6.55 M77.6 14.35 L76.25 14.05 73.3 13.3 Q72.95 13.2 72.9 12.9 L72.85 11.75 Q72.85 10.8 73.4 9.6 73.9 8.35 74.3 8.45 L76.65 8.85 Q76.6 9.7 77.0 11.9 L77.6 14.35 M47.5 13.9 Q50.1 13.55 51.85 14.8 52.45 15.15 52.9 16.0 53.75 17.65 53.75 18.4 L53.4 19.05 Q53.0 18.45 49.95 16.8 46.75 15.0 45.45 14.9 L47.1 14.1 47.5 13.9 M67.95 23.55 L68.0 23.5 68.3 23.45 Q73.6 23.45 79.55 32.45 78.8 32.2 77.05 33.1 75.15 34.1 74.55 35.05 L74.55 34.9 Q73.3 30.35 70.9 28.65 68.45 26.9 65.9 26.6 65.85 26.2 66.75 24.95 67.6 23.65 67.95 23.55 M29.2 16.75 L31.05 16.85 31.1 17.0 Q29.8 18.0 25.35 19.25 L25.25 19.3 27.7 19.55 24.2 20.65 Q21.3 21.65 19.25 21.65 L11.5 21.45 6.5 19.45 13.45 20.0 Q3.95 17.9 3.95 17.15 L4.05 16.8 5.3 16.9 Q7.35 17.05 12.5 18.9 20.45 17.4 29.2 16.75 M10.85 23.35 L11.6 23.35 18.75 22.95 Q24.35 22.55 25.5 22.85 L27.3 23.45 26.15 24.15 15.6 24.95 Q8.9 25.0 7.5 23.2 L7.9 23.2 10.85 23.35" fill="#e2cfcf" fill-rule="evenodd" stroke="none"/>
    <path d="M76.4 34.9 Q75.6 35.25 74.95 35.9 L73.2 37.4 73.2 37.25 Q71.4 33.2 69.8 31.5 68.15 29.75 66.25 29.75 L61.4 30.1 57.65 30.45 Q56.85 30.5 55.0 26.6 L52.4 21.55 Q50.7 18.5 50.2 18.1 49.15 17.3 47.05 17.45 44.9 17.6 42.95 18.55 41.0 19.5 39.15 19.9 L36.3 19.45 36.15 19.3 36.55 18.55 36.95 18.3 37.65 18.25 38.85 18.5 39.15 18.6 39.3 18.65 40.2 17.85 Q42.1 16.1 43.9 15.15 L44.5 14.85 Q45.8 14.2 47.05 14.0 L47.5 13.9 47.1 14.1 45.45 14.9 Q46.75 15.0 49.95 16.8 53.0 18.45 53.4 19.05 L53.75 18.4 Q53.75 17.65 52.9 16.0 L56.0 21.9 58.65 27.05 67.25 23.75 67.95 23.55 Q67.6 23.65 66.75 24.95 65.85 26.2 65.9 26.6 68.45 26.9 70.9 28.65 73.3 30.35 74.55 34.9 L74.55 35.05 Q75.15 34.1 77.05 33.1 78.8 32.2 79.55 32.45 L80.15 33.35 79.35 33.2 Q79.0 33.1 76.4 34.9 M29.2 16.75 L34.65 16.4 Q35.05 16.4 35.85 17.65 L34.25 18.0 29.45 19.05 Q33.35 19.1 35.0 19.75 L35.25 19.85 Q32.1 21.25 30.0 21.65 L26.1 22.25 Q26.2 22.45 27.0 22.45 L31.75 22.2 37.75 21.5 38.4 23.3 23.4 25.1 21.55 25.3 Q15.65 25.8 10.45 25.5 L9.65 25.45 3.85 24.35 0.75 23.4 1.3 21.05 5.15 22.4 7.9 23.2 7.5 23.2 Q8.9 25.0 15.6 24.95 L26.15 24.15 27.3 23.45 25.5 22.85 Q24.35 22.55 18.75 22.95 L11.6 23.35 10.85 23.35 Q8.6 23.15 6.35 22.35 L1.5 20.35 2.0 18.55 3.55 19.3 6.45 20.4 6.7 20.5 8.1 20.8 Q6.6 20.4 4.95 19.3 L4.9 19.3 4.7 19.2 2.45 17.45 2.75 16.8 4.05 16.8 3.95 17.15 Q3.95 17.9 13.45 20.0 L6.5 19.45 11.5 21.45 19.25 21.65 Q21.3 21.65 24.2 20.65 L27.7 19.55 25.25 19.3 25.35 19.25 Q29.8 18.0 31.1 17.0 L31.05 16.85 29.2 16.75 M39.0 20.9 L38.15 21.25 37.6 21.35 36.3 21.1 36.95 20.35 38.85 20.75 39.0 20.9" fill="url(#gradient1)" fill-rule="evenodd" stroke="none"/>
  </g>
  <defs>
    <radialGradient cx="0" cy="0" gradientTransform="matrix(0.0427, 0.0, 0.0, 0.0427, 68.8, 13.85)" gradientUnits="userSpaceOnUse" id="gradient0" r="819.2" spreadMethod="pad">
      <stop offset="0.0" stop-color="#b98a8a"></stop>
      <stop offset="1.0" stop-color="#cca9a9"></stop>
    </radialGradient>
    <radialGradient cx="0" cy="0" gradientTransform="matrix(0.0588, 0.0, 0.0, 0.0588, 75.3, 13.85)" gradientUnits="userSpaceOnUse" id="gradient1" r="819.2" spreadMethod="pad">
      <stop offset="0.0" stop-color="#b98a8a"></stop>
      <stop offset="1.0" stop-color="#cca9a9"></stop>
    </radialGradient>
  </defs>
</svg>