<?xml version="1.0" encoding="UTF-8" standalone="no"?>
<svg xmlns:xlink="http://www.w3.org/1999/xlink" height="27.75px" width="26.2px" xmlns="http://www.w3.org/2000/svg">
  <g transform="matrix(1.0, 0.0, 0.0, 1.0, -2.3, -7.65)">
    <path d="M16.4 18.95 L16.05 18.1 16.2 18.25 16.4 18.95" fill="#9933cc" fill-rule="evenodd" stroke="none"/>
    <path d="M11.7 17.15 L11.4 19.15 Q11.4 20.4 12.25 21.2 13.35 22.25 13.85 24.0 14.1 25.05 13.95 26.55 L13.75 28.75 14.15 32.25 14.1 33.3 Q13.95 33.9 13.45 34.2 13.25 33.95 13.35 33.3 L13.55 32.25 13.35 30.2 13.45 27.9 Q13.45 25.75 13.05 24.6 12.5 23.0 11.35 21.5 10.55 20.5 10.55 19.15 L10.5 16.95 10.6 16.5 9.7 15.5 8.75 14.55 8.05 13.45 Q7.85 13.6 7.7 14.4 L7.55 16.6 5.25 19.1 3.35 20.8 3.3 20.55 3.9 19.35 4.45 18.05 5.15 17.3 6.95 15.75 Q6.7 15.05 6.9 14.25 5.3 12.9 5.2 10.3 5.1 7.7 12.15 9.15 L21.15 11.0 Q26.7 12.2 26.7 12.8 26.7 14.05 24.9 15.85 L24.4 16.3 Q24.45 17.95 25.05 18.8 26.1 20.4 27.5 24.65 L23.9 20.4 23.55 22.7 Q23.2 24.15 23.2 26.1 23.2 28.6 22.6 32.35 22.1 35.4 20.5 33.95 21.2 33.05 21.9 28.95 20.05 27.45 19.5 26.3 18.9 25.15 19.2 24.25 L19.45 23.05 Q19.45 22.25 18.95 21.5 L17.7 20.35 16.4 18.95 16.2 18.25 16.05 18.1 15.95 17.9 15.9 17.9 15.85 17.8 15.7 16.7 Q15.65 16.25 15.25 16.25 14.95 16.25 14.65 16.55 L13.85 16.85 13.1 16.7 12.65 16.15 12.4 16.0 Q12.15 16.0 11.95 16.25 L11.75 16.8 11.75 16.9 11.7 17.15 M21.7 17.8 L19.5 18.1 18.6 18.1 Q17.95 18.65 18.55 19.7 L19.65 21.2 Q20.1 21.6 20.05 22.2 L19.55 24.85 21.0 26.25 22.05 27.5 21.75 25.8 21.35 23.0 Q21.35 22.5 21.75 21.7 L22.15 20.35 21.75 18.15 21.7 17.8 M10.45 29.5 L10.3 29.65 9.85 29.6 Q9.7 28.35 9.7 26.95 L9.75 25.15 Q10.55 25.1 10.65 25.9 L10.6 26.95 10.45 29.5" fill="#cc3333" fill-rule="evenodd" stroke="none"/>
    <path d="M16.05 18.1 L15.9 17.9 15.85 17.8 15.7 16.7 Q15.65 16.25 15.25 16.25 14.95 16.25 14.65 16.55 L13.85 16.85 13.1 16.7 12.65 16.15 12.4 16.0 Q12.15 16.0 11.95 16.25 L11.75 16.8 11.75 16.9 11.7 17.15 M16.4 18.95 L16.2 18.25 16.05 18.1" fill="none" stroke="#a36a6a" stroke-linecap="round" stroke-linejoin="round" stroke-width="1"/>
  </g>
</svg>