<?xml version="1.0" encoding="UTF-8" standalone="no"?>
<svg xmlns:xlink="http://www.w3.org/1999/xlink" height="27.55px" width="23.6px" xmlns="http://www.w3.org/2000/svg">
  <g transform="matrix(1.0, 0.0, 0.0, 1.0, 0.95, 1)">
    <path d="M21.6 19.9 L20.45 18.5 18.95 16.8 17.7 13.35 Q17.2 12.2 16.7 11.85 L13.5 9.9 12.6 9.7 11.5 9.35 14.35 9.75 12.45 8.35 14.65 8.7 14.55 7.5 Q14.3 5.35 13.3 3.25 L12.0 0.4 11.95 0.3 12.05 0.0 12.1 0.1 14.75 4.3 Q15.15 4.9 15.5 7.15 L15.65 10.0 18.1 11.75 18.75 14.1 Q19.2 15.9 19.55 16.15 L21.3 18.15 Q21.65 18.45 21.65 19.3 L21.6 19.9 M11.15 2.6 L11.5 2.7 11.45 2.8 11.1 3.05 10.95 3.05 10.45 2.85 9.45 2.65 7.55 2.8 Q3.3 3.6 1.7 8.65 1.45 9.4 1.15 11.6 0.85 13.9 0.9 14.65 L0.9 14.85 Q0.75 15.65 0.85 16.35 1.25 19.2 5.35 21.15 8.9 22.8 12.7 24.15 16.25 25.4 17.9 24.75 16.65 25.55 15.3 25.55 14.25 25.55 12.85 24.95 3.75 21.7 2.65 20.55 L0.65 18.4 Q0.4 18.1 0.25 17.0 0.0 15.75 0.1 14.65 0.65 8.95 1.8 6.4 4.35 0.85 10.4 2.4 L11.15 2.6" fill="#b47777" fill-rule="evenodd" stroke="none"/>
    <path d="M12.6 9.7 L13.5 9.9 16.7 11.85 Q17.2 12.2 17.7 13.35 L18.95 16.8 20.45 18.5 21.6 19.9 21.0 21.7 19.4 19.05 17.7 16.05 17.35 14.75 16.7 13.45 14.25 10.7 12.6 9.7 M12.0 0.4 L13.3 3.25 Q14.3 5.35 14.55 7.5 14.1 7.25 13.4 6.95 L11.85 6.35 12.15 7.75 Q11.35 7.75 9.85 8.3 8.55 8.75 8.3 9.0 L8.3 10.2 13.05 11.15 13.9 11.9 14.9 13.05 Q15.1 13.6 15.1 17.15 L14.15 17.25 12.25 15.4 12.5 17.4 10.5 15.25 Q8.75 13.35 6.9 13.35 3.8 13.35 1.95 15.0 L0.85 16.35 Q0.75 15.65 0.9 14.85 L2.4 13.75 Q3.45 13.0 5.05 12.75 7.2 12.45 9.6 14.0 10.8 14.75 11.55 15.6 L11.55 14.2 14.2 15.95 14.2 14.05 Q14.3 13.45 13.6 12.85 L10.2 11.65 Q7.15 10.7 7.15 10.55 7.15 8.8 7.95 8.3 8.5 7.95 10.45 7.35 10.8 7.2 10.9 6.0 11.05 4.9 12.1 5.05 L12.15 5.0 Q12.0 4.05 10.25 3.05 L9.45 2.65 10.45 2.85 10.95 3.05 11.1 3.05 11.45 2.8 11.5 2.7 11.15 2.6 Q11.9 2.55 12.0 0.4" fill="#e2cfcf" fill-rule="evenodd" stroke="none"/>
    <path d="M9.45 2.65 L10.25 3.05 Q12.0 4.05 12.15 5.0 L12.1 5.05 Q11.05 4.9 10.9 6.0 10.8 7.2 10.45 7.35 8.5 7.95 7.95 8.3 7.15 8.8 7.15 10.55 7.15 10.7 10.2 11.65 L13.6 12.85 Q14.3 13.45 14.2 14.05 L14.2 15.95 11.55 14.2 11.55 15.6 Q10.8 14.75 9.6 14.0 7.2 12.45 5.05 12.75 3.45 13.0 2.4 13.75 L0.9 14.85 0.9 14.65 Q0.85 13.9 1.15 11.6 1.45 9.4 1.7 8.65 3.3 3.6 7.55 2.8 L9.45 2.65" fill="#ffffff" fill-rule="evenodd" stroke="none"/>
    <path d="M12.6 9.7 L14.25 10.7 16.7 13.45 17.35 14.75 17.7 16.05 19.4 19.05 21.0 21.7 Q20.05 23.8 17.9 24.75 16.25 25.4 12.7 24.15 8.9 22.8 5.35 21.15 1.25 19.2 0.85 16.35 L1.95 15.0 Q3.8 13.35 6.9 13.35 8.75 13.35 10.5 15.25 L12.5 17.4 12.25 15.4 14.15 17.25 15.1 17.15 Q15.1 13.6 14.9 13.05 L13.9 11.9 13.05 11.15 8.3 10.2 8.3 9.0 Q8.55 8.75 9.85 8.3 11.35 7.75 12.15 7.75 L11.85 6.35 13.4 6.95 Q14.1 7.25 14.55 7.5 L14.65 8.7 12.45 8.35 14.35 9.75 11.5 9.35 12.6 9.7" fill="url(#gradient0)" fill-rule="evenodd" stroke="none"/>
  </g>
  <defs>
    <linearGradient gradientTransform="matrix(0.0029, 0.0049, -0.0088, 0.0051, 11.1, 18.1)" gradientUnits="userSpaceOnUse" id="gradient0" spreadMethod="pad" x1="-819.2" x2="819.2">
      <stop offset="0.0" stop-color="#b98a8a"></stop>
      <stop offset="1.0" stop-color="#e5b4b4"></stop>
    </linearGradient>
  </defs>
</svg>