<?xml version="1.0" encoding="UTF-8" standalone="no"?>
<svg xmlns:xlink="http://www.w3.org/1999/xlink" height="19.35px" width="28px" xmlns="http://www.w3.org/2000/svg">
  <g transform="matrix(1.0, 0.0, 0.0, 1.0, 1, 1)">
    <path d="M10.75 3.85 L12.3 4.15 12.75 4.3 14.55 5.05 21.25 5.15 21.85 5.15 22.2 5.15 23.85 5.5 24.55 5.75 Q25.1 6.0 25.45 6.35 L25.8 6.8 26.0 8.15 25.95 9.55 25.85 10.0 25.3 10.9 25.25 10.9 25.25 12.8 24.9 14.25 Q24.65 14.85 22.65 14.8 L22.35 14.8 22.0 14.75 22.0 15.75 21.5 16.55 Q20.8 17.2 19.3 17.2 14.7 17.2 14.7 15.6 L14.95 14.45 15.3 13.85 14.0 13.8 13.25 13.75 13.3 14.2 13.35 14.7 13.35 15.1 13.35 16.15 13.35 16.8 Q13.1 17.2 11.25 17.35 L9.3 17.25 8.2 16.9 Q7.05 16.35 7.0 15.9 L7.0 15.4 7.05 15.25 Q6.1 15.1 5.5 14.7 L4.95 14.25 Q4.35 12.8 3.5 12.25 L0.85 10.4 Q0.05 9.55 0.05 8.55 L0.05 8.5 Q-0.1 8.4 0.35 7.1 0.8 5.7 1.4 4.6 2.0 3.6 3.6 2.65 L2.5 4.0 1.4 6.2 1.1 6.95 0.7 8.35 0.7 8.95 Q0.75 9.9 2.55 11.1 4.35 12.25 5.0 13.25 5.6 14.25 6.45 14.45 L9.35 13.95 9.2 14.1 8.3 14.7 9.8 15.2 9.55 15.25 7.8 15.35 Q7.55 15.95 8.75 16.5 L9.35 16.7 12.65 16.5 12.7 16.1 12.7 16.05 12.7 16.0 12.8 15.1 12.8 14.85 12.8 14.15 12.65 13.45 12.45 12.7 12.4 12.5 Q11.95 11.1 11.1 10.85 L10.65 10.75 10.1 10.75 8.45 11.05 7.4 11.35 7.7 10.85 8.35 10.45 Q9.15 10.05 10.2 10.1 L11.4 10.35 Q12.05 10.5 12.45 11.1 L12.9 12.2 13.15 13.05 13.2 13.05 13.6 13.1 15.15 13.0 16.4 13.05 Q16.65 12.85 17.6 12.4 L18.25 12.15 18.95 12.1 17.7 13.2 19.7 13.1 19.75 13.3 18.8 13.8 16.7 13.55 16.45 13.65 16.35 13.7 Q15.85 14.0 15.6 14.45 L15.5 14.65 15.3 15.5 Q15.35 15.75 15.95 16.2 L20.8 16.5 Q21.25 16.4 21.4 15.4 L21.45 13.9 21.45 13.8 21.45 13.3 Q21.25 11.35 20.4 10.65 19.85 10.2 17.65 9.9 L16.15 9.7 13.85 9.5 13.6 9.5 13.75 9.4 14.9 9.2 15.35 9.15 15.7 9.15 18.3 9.45 18.35 9.45 Q20.5 9.9 21.3 10.5 L21.45 10.65 Q21.75 10.5 22.6 10.3 L22.75 10.4 21.75 11.25 22.0 13.65 22.0 14.25 22.6 14.35 23.45 14.3 Q24.4 14.15 24.6 12.55 L24.6 11.9 24.6 11.7 24.6 11.25 24.25 9.7 23.6 8.7 23.25 8.4 Q22.45 7.8 21.0 7.5 L20.25 7.35 16.6 6.7 16.2 6.6 17.3 6.55 17.75 6.55 17.9 6.55 18.25 6.55 21.5 7.15 21.8 7.25 Q24.1 8.05 24.75 8.9 L25.05 9.75 25.3 8.2 25.3 7.85 25.25 7.6 24.8 6.7 Q24.35 6.35 23.5 6.15 L23.05 6.05 20.3 5.75 18.95 5.7 17.6 5.65 16.75 5.6 15.0 5.65 12.8 5.1 12.0 4.8 10.9 4.4 10.45 4.25 9.65 4.0 8.7 3.65 10.75 3.85" fill="#a36a6a" fill-rule="evenodd" stroke="none"/>
    <path d="M10.75 3.85 L8.7 3.65 9.65 4.0 8.55 3.75 6.45 3.3 6.1 3.3 Q7.2 4.2 9.45 5.35 L10.7 6.0 12.25 6.5 14.95 6.2 17.6 5.65 18.95 5.7 20.7 6.25 22.0 6.8 Q22.75 7.1 23.1 7.35 23.95 7.9 24.9 7.9 L25.3 7.85 25.3 8.2 25.05 9.75 24.75 8.9 Q24.1 8.05 21.8 7.25 L21.5 7.15 18.25 6.55 17.9 6.55 17.55 6.5 17.3 6.55 16.2 6.6 16.6 6.7 15.1 7.0 Q16.15 8.05 18.9 9.0 L22.0 9.9 Q22.45 10.0 24.6 11.25 L24.6 11.7 24.6 11.9 24.6 12.55 24.25 12.95 Q23.75 13.45 22.95 13.6 L22.2 13.65 22.0 13.65 21.75 11.25 22.75 10.4 22.6 10.3 Q21.75 10.5 21.45 10.65 L21.3 10.5 Q20.5 9.9 18.35 9.45 L18.3 9.45 15.7 9.15 15.35 9.15 14.9 9.2 13.75 9.4 12.2 9.65 12.15 9.7 16.15 10.95 17.55 11.35 19.3 11.85 Q20.65 12.3 20.8 12.7 21.05 13.4 21.45 13.8 L21.45 13.9 21.4 15.4 21.3 15.4 18.8 16.0 Q15.65 16.0 15.6 14.45 15.85 14.0 16.35 13.7 L16.45 13.65 16.7 13.55 18.8 13.8 19.75 13.3 19.7 13.1 17.7 13.2 18.95 12.1 18.25 12.15 17.6 12.4 Q16.65 12.85 16.4 13.05 L15.15 13.0 13.6 13.1 13.2 13.05 13.15 13.05 12.9 12.2 12.45 11.1 Q12.05 10.5 11.4 10.35 L10.2 10.1 Q9.15 10.05 8.35 10.45 L7.7 10.85 6.3 11.45 Q7.15 12.35 9.5 12.65 L9.85 12.7 12.4 13.0 12.45 12.7 12.65 13.45 12.8 14.15 12.8 14.85 12.8 15.1 12.7 16.0 12.7 16.05 12.7 16.1 10.7 16.35 9.35 16.35 Q8.8 16.25 8.8 16.05 8.8 15.8 9.25 15.55 L10.1 15.05 9.3 14.5 10.4 13.3 10.1 13.3 6.7 14.0 Q6.3 14.0 6.0 13.65 L5.25 12.75 4.0 11.65 Q2.7 10.85 1.95 10.2 1.0 9.4 0.7 8.35 L1.1 6.95 1.4 6.2 2.5 4.0 3.6 2.65 3.7 2.55 3.7 2.5 Q5.8 -0.65 8.9 0.15 10.95 0.65 11.05 2.2 L11.05 2.7 10.85 3.5 10.75 3.85" fill="url(#gradient0)" fill-rule="evenodd" stroke="none"/>
    <path d="M17.9 6.55 L17.75 6.55 17.3 6.55 17.55 6.5 17.9 6.55" fill="#8e7038" fill-rule="evenodd" stroke="none"/>
    <path d="M9.65 4.0 L10.45 4.25 10.9 4.4 12.0 4.8 12.8 5.1 15.0 5.65 16.75 5.6 17.6 5.65 14.95 6.2 12.25 6.5 10.7 6.0 9.45 5.35 Q7.2 4.2 6.1 3.3 L6.45 3.3 8.55 3.75 9.65 4.0 M18.95 5.7 L20.3 5.75 23.05 6.05 23.5 6.15 Q24.35 6.35 24.8 6.7 L25.25 7.6 25.3 7.85 24.9 7.9 Q23.95 7.9 23.1 7.35 22.75 7.1 22.0 6.8 L20.7 6.25 18.95 5.7 M16.6 6.7 L20.25 7.35 21.0 7.5 Q22.45 7.8 23.25 8.4 L23.6 8.7 24.25 9.7 24.6 11.25 Q22.45 10.0 22.0 9.9 L18.9 9.0 Q16.15 8.05 15.1 7.0 L16.6 6.7 M13.75 9.4 L13.6 9.5 13.85 9.5 16.15 9.7 17.65 9.9 Q19.85 10.2 20.4 10.65 21.25 11.35 21.45 13.3 L21.45 13.8 Q21.05 13.4 20.8 12.7 20.65 12.3 19.3 11.85 L17.55 11.35 16.15 10.95 12.15 9.7 12.2 9.65 13.75 9.4 M7.7 10.85 L7.4 11.35 8.45 11.05 10.1 10.75 10.65 10.75 11.1 10.85 Q11.95 11.1 12.4 12.5 L12.45 12.7 12.4 13.0 9.85 12.7 9.5 12.65 Q7.15 12.35 6.3 11.45 L7.7 10.85" fill="#ffffff" fill-rule="evenodd" stroke="none"/>
    <path d="M24.6 12.55 Q24.4 14.15 23.45 14.3 L22.6 14.35 22.0 14.25 22.0 13.65 22.2 13.65 22.95 13.6 Q23.75 13.45 24.25 12.95 L24.6 12.55 M21.4 15.4 Q21.25 16.4 20.8 16.5 L15.95 16.2 Q15.35 15.75 15.3 15.5 L15.5 14.65 15.6 14.45 Q15.65 16.0 18.8 16.0 L21.3 15.4 21.4 15.4 M12.7 16.1 L12.65 16.5 9.35 16.7 8.75 16.5 Q7.55 15.95 7.8 15.35 L9.55 15.25 9.8 15.2 8.3 14.7 9.2 14.1 9.35 13.95 6.45 14.45 Q5.6 14.25 5.0 13.25 4.35 12.25 2.55 11.1 0.75 9.9 0.7 8.95 L0.7 8.35 Q1.0 9.4 1.95 10.2 2.7 10.85 4.0 11.65 L5.25 12.75 6.0 13.65 Q6.3 14.0 6.7 14.0 L10.1 13.3 10.4 13.3 9.3 14.5 10.1 15.05 9.25 15.55 Q8.8 15.8 8.8 16.05 8.8 16.25 9.35 16.35 L10.7 16.35 12.7 16.1" fill="#e7c5c5" fill-rule="evenodd" stroke="none"/>
  </g>
  <defs>
    <radialGradient cx="0" cy="0" gradientTransform="matrix(0.0588, 0.0, 0.0, 0.0588, -29.95, -44.95)" gradientUnits="userSpaceOnUse" id="gradient0" r="819.2" spreadMethod="pad">
      <stop offset="0.0" stop-color="#b98a8a"></stop>
      <stop offset="1.0" stop-color="#cca9a9"></stop>
    </radialGradient>
  </defs>
</svg>