<?xml version="1.0" encoding="UTF-8" standalone="no"?>
<svg xmlns:xlink="http://www.w3.org/1999/xlink" height="18.8px" width="30.4px" xmlns="http://www.w3.org/2000/svg">
  <g transform="matrix(1.0, 0.0, 0.0, 1.0, 1, 1.15)">
    <path d="M22.8 -0.1 Q23.9 -0.15 25.25 0.8 26.55 1.8 27.5 3.1 28.4 4.4 28.4 6.8 L28.4 6.85 Q28.1 8.15 27.0 9.0 L26.75 9.2 26.6 9.3 26.8 9.5 Q27.25 10.25 27.25 11.25 27.25 12.55 26.75 13.3 L25.25 14.8 23.65 16.2 20.25 16.65 Q17.3 16.65 16.8 14.95 L16.75 14.8 16.7 14.75 16.65 14.65 16.65 14.8 16.5 15.3 Q15.75 16.3 13.65 16.3 L12.4 16.25 Q10.85 16.0 10.6 15.25 L10.45 14.8 10.2 14.35 Q10.1 14.3 10.05 14.4 L9.7 14.8 9.55 15.05 8.4 15.8 7.05 15.95 6.1 15.9 Q4.85 15.65 4.35 14.8 L4.05 14.2 4.1 13.55 4.05 13.5 4.1 11.45 4.15 11.4 3.95 11.4 Q1.1 11.4 0.35 10.85 -0.1 10.55 0.05 9.55 L0.1 9.35 0.25 8.2 2.45 4.9 2.45 4.85 Q3.75 3.25 5.05 3.25 L7.7 4.0 8.45 3.7 11.6 2.05 Q12.0 1.8 12.35 1.65 L12.45 1.6 Q13.95 1.1 14.3 1.15 L14.4 1.25 15.1 2.2 12.45 2.35 12.35 2.4 11.35 2.85 8.0 5.0 6.15 4.35 5.05 4.0 Q3.95 4.0 3.1 4.95 L1.45 7.95 1.35 8.15 1.2 8.6 0.95 9.4 0.95 9.45 Q0.75 10.95 4.3 10.55 L4.35 10.3 4.7 9.05 4.1 8.75 4.05 8.7 3.05 8.35 3.15 8.25 3.7 7.85 3.75 7.8 4.3 7.65 4.6 7.65 Q5.0 7.7 5.15 8.0 L5.3 7.7 5.8 6.9 5.85 6.8 6.0 6.6 Q7.4 4.75 9.35 5.45 L9.75 5.65 8.45 6.0 7.15 6.6 6.95 6.8 Q6.3 7.45 5.75 8.55 L5.4 9.45 5.3 9.8 5.2 10.3 5.05 11.2 4.85 13.55 Q5.0 13.95 6.25 14.1 L6.75 14.15 8.6 14.05 8.7 14.1 8.2 14.45 7.45 14.55 7.25 14.55 7.0 14.55 6.45 14.55 5.45 14.4 6.15 14.8 6.65 14.95 8.5 15.0 8.65 14.95 8.75 14.9 8.85 14.8 9.4 14.25 9.75 13.35 Q9.65 12.4 9.7 10.95 L9.85 9.55 9.9 8.75 Q10.1 7.35 10.4 6.8 L10.5 6.65 10.55 6.6 10.85 6.3 10.95 6.25 Q11.4 5.9 12.1 5.85 L12.35 5.85 12.75 5.85 12.9 5.75 Q13.3 5.45 13.9 5.25 L15.35 5.0 15.45 5.05 15.2 5.25 14.2 6.2 15.05 6.55 15.05 6.75 14.65 6.6 12.85 6.25 12.35 6.3 Q11.95 6.35 11.65 6.6 L11.5 6.75 11.45 6.8 Q10.9 7.35 10.65 8.7 L10.55 9.6 10.45 11.0 10.5 12.25 10.55 12.65 11.15 13.3 11.2 13.35 11.95 13.7 12.4 13.8 15.3 13.7 15.45 13.65 15.5 13.85 15.45 13.95 Q15.35 14.4 13.45 14.4 L12.4 14.35 11.2 13.95 10.8 13.7 10.9 14.1 11.25 14.8 Q11.7 15.45 12.4 15.6 L12.5 15.65 14.6 15.5 Q15.9 15.25 16.1 14.75 L16.25 13.65 15.85 10.65 15.65 8.5 Q15.65 7.6 16.4 6.8 L16.55 6.6 Q17.4 5.65 18.7 5.4 L19.95 5.35 18.05 6.6 17.8 6.8 Q16.35 7.9 16.25 8.55 L16.55 10.5 17.45 14.0 17.45 14.05 17.5 14.1 17.9 14.25 21.4 13.9 21.5 14.05 20.6 14.55 19.75 14.8 19.6 14.85 18.5 14.9 17.8 14.9 Q18.45 15.75 21.25 15.9 23.4 16.0 24.05 14.8 L24.1 14.75 25.25 13.55 Q26.45 12.3 26.45 11.75 L26.3 10.75 Q26.1 10.25 25.45 10.45 L24.85 11.7 24.8 11.75 24.8 11.85 24.8 12.0 Q25.05 12.45 24.3 14.25 L24.3 14.05 Q24.6 12.3 23.25 11.3 L22.9 11.05 20.8 9.8 20.65 9.7 21.05 9.8 22.0 10.0 23.5 10.5 22.75 9.8 Q22.15 9.5 21.35 9.35 22.25 8.65 23.65 9.85 L23.8 9.95 24.65 10.8 25.05 9.85 26.1 8.65 27.0 7.75 27.45 7.05 27.6 6.3 27.4 4.75 Q27.1 3.7 26.8 3.45 L26.65 3.25 24.9 1.3 Q23.5 0.0 22.8 -0.1" fill="#b47777" fill-rule="evenodd" stroke="none"/>
    <path d="M14.3 1.15 L14.7 0.95 14.9 0.85 Q17.0 0.0 20.6 -0.15 L22.75 -0.1 22.8 -0.1 Q23.5 0.0 24.9 1.3 L26.65 3.25 26.65 3.3 26.65 3.35 27.15 5.25 27.15 5.7 27.0 6.1 23.95 9.85 23.85 9.9 23.8 9.95 23.65 9.85 Q22.25 8.65 21.35 9.35 22.15 9.5 22.75 9.8 L23.5 10.5 22.0 10.0 21.05 9.8 20.65 9.7 20.8 9.8 22.9 11.05 23.25 11.3 23.2 11.85 23.25 14.15 21.6 14.65 20.8 14.8 20.05 14.85 19.6 14.85 19.75 14.8 20.6 14.55 21.5 14.05 21.4 13.9 17.9 14.25 17.5 14.1 17.45 14.05 17.45 14.0 16.55 10.5 17.15 10.3 18.4 9.8 18.6 9.75 Q21.15 8.55 21.55 6.8 L21.45 5.25 Q21.05 3.95 19.5 3.15 L19.2 3.0 Q17.4 2.2 15.1 2.2 L14.4 1.25 14.3 1.15 M24.3 14.25 Q25.05 12.45 24.8 12.0 L24.8 11.85 24.8 11.75 24.85 11.7 25.45 10.45 Q26.1 10.25 26.3 10.75 L26.45 11.75 Q26.45 12.3 25.25 13.55 L24.1 14.75 23.95 14.9 24.3 14.25 M18.7 5.4 Q17.4 5.65 16.55 6.6 L16.4 6.8 Q15.65 7.6 15.65 8.5 L15.85 10.65 16.25 13.65 15.65 13.8 15.5 13.85 15.45 13.65 15.3 13.7 12.4 13.8 11.95 13.7 11.2 13.35 11.15 13.3 10.55 12.65 10.5 12.25 10.45 11.0 12.0 11.05 12.35 11.05 13.2 11.0 13.65 11.0 Q14.3 10.75 14.7 9.65 L14.7 9.55 14.9 8.85 15.5 6.85 15.55 6.8 15.8 6.6 Q16.15 6.35 16.95 5.95 18.35 5.25 18.7 5.4 M10.95 6.25 L10.85 6.3 10.55 6.6 10.5 6.65 10.4 6.8 Q10.1 7.35 9.9 8.75 L9.85 9.55 9.7 10.95 Q9.65 12.4 9.75 13.35 L9.4 14.25 7.45 14.55 8.2 14.45 8.7 14.1 8.6 14.05 6.75 14.15 6.25 14.1 Q5.0 13.95 4.85 13.55 L5.05 11.2 5.2 10.3 5.3 9.8 5.75 10.0 7.95 10.7 8.45 9.55 Q9.1 7.9 9.8 6.95 L9.95 6.8 10.2 6.6 10.8 6.3 10.95 6.25 M5.8 6.9 L5.3 7.7 5.15 8.0 Q5.0 7.7 4.6 7.65 L4.3 7.65 5.8 6.9 M3.75 7.8 L3.7 7.85 3.15 8.25 3.05 8.35 4.05 8.7 4.1 8.75 4.7 9.05 4.35 10.3 Q2.95 10.25 2.05 9.7 L1.65 9.4 Q1.25 9.05 1.2 8.6 L1.35 8.15 1.45 7.95 3.1 4.95 Q3.95 4.0 5.05 4.0 L6.15 4.35 Q5.65 4.55 4.9 5.25 4.2 5.85 3.95 6.6 L3.9 6.8 Q3.75 7.25 3.75 7.7 L3.75 7.8 M11.35 2.85 L12.35 2.4 12.45 2.35 15.1 2.2 12.35 2.6 11.7 2.75 11.35 2.85" fill="url(#gradient0)" fill-rule="evenodd" stroke="none"/>
    <path d="M19.6 14.85 L20.05 14.85 20.8 14.8 21.6 14.65 23.25 14.15 23.2 11.85 23.25 11.3 Q24.6 12.3 24.3 14.05 L24.3 14.25 23.95 14.9 24.1 14.75 24.05 14.8 Q23.4 16.0 21.25 15.9 18.45 15.75 17.8 14.9 L18.5 14.9 19.6 14.85 M23.8 9.95 L23.85 9.9 23.95 9.85 27.0 6.1 27.15 5.7 27.15 5.25 26.65 3.35 26.65 3.3 26.65 3.25 26.8 3.45 Q27.1 3.7 27.4 4.75 L27.6 6.3 27.45 7.05 27.0 7.75 26.1 8.65 25.05 9.85 24.65 10.8 23.8 9.95 M16.25 13.65 L16.1 14.75 Q15.9 15.25 14.6 15.5 L12.5 15.65 12.4 15.6 Q11.7 15.45 11.25 14.8 L10.9 14.1 10.8 13.7 11.2 13.95 12.4 14.35 13.45 14.4 Q15.35 14.4 15.45 13.95 L15.5 13.85 15.65 13.8 16.25 13.65 M9.4 14.25 L8.85 14.8 8.75 14.9 8.65 14.95 8.5 15.0 6.65 14.95 6.15 14.8 5.45 14.4 6.45 14.55 7.0 14.55 7.25 14.55 7.45 14.55 9.4 14.25 M4.35 10.3 L4.3 10.55 Q0.75 10.95 0.95 9.45 L0.95 9.4 1.2 8.6 Q1.25 9.05 1.65 9.4 L2.05 9.7 Q2.95 10.25 4.35 10.3" fill="#e2cfcf" fill-rule="evenodd" stroke="none"/>
    <path d="M15.1 2.2 Q17.4 2.2 19.2 3.0 L19.5 3.15 Q21.05 3.95 21.45 5.25 L21.55 6.8 Q21.15 8.55 18.6 9.75 L18.4 9.8 17.15 10.3 16.55 10.5 16.25 8.55 Q16.35 7.9 17.8 6.8 L18.05 6.6 19.95 5.35 18.7 5.4 Q18.35 5.25 16.95 5.95 16.15 6.35 15.8 6.6 L15.55 6.8 15.5 6.85 14.9 8.85 14.7 9.55 14.7 9.65 Q14.3 10.75 13.65 11.0 L13.2 11.0 12.35 11.05 12.0 11.05 10.45 11.0 10.55 9.6 10.65 8.7 Q10.9 7.35 11.45 6.8 L11.5 6.75 11.65 6.6 Q11.95 6.35 12.35 6.3 L12.85 6.25 14.65 6.6 15.05 6.75 15.05 6.55 14.2 6.2 15.2 5.25 15.45 5.05 15.35 5.0 13.9 5.25 Q13.3 5.45 12.9 5.75 L12.75 5.85 12.35 5.85 12.1 5.85 Q11.4 5.9 10.95 6.25 L10.8 6.3 10.2 6.6 9.95 6.8 9.8 6.95 Q9.1 7.9 8.45 9.55 L7.95 10.7 5.75 10.0 5.3 9.8 5.4 9.45 5.75 8.55 Q6.3 7.45 6.95 6.8 L7.15 6.6 8.45 6.0 9.75 5.65 9.35 5.45 Q7.4 4.75 6.0 6.6 L5.85 6.8 5.8 6.9 4.3 7.65 3.75 7.8 3.75 7.7 Q3.75 7.25 3.9 6.8 L3.95 6.6 Q4.2 5.85 4.9 5.25 5.65 4.55 6.15 4.35 L8.0 5.0 11.35 2.85 11.7 2.75 12.35 2.6 15.1 2.2" fill="#ffffff" fill-rule="evenodd" stroke="none"/>
  </g>
  <defs>
    <radialGradient cx="0" cy="0" gradientTransform="matrix(0.0624, 0.0, 0.0, 0.0624, 48.45, -28.55)" gradientUnits="userSpaceOnUse" id="gradient0" r="819.2" spreadMethod="pad">
      <stop offset="0.0" stop-color="#b98a8a"></stop>
      <stop offset="1.0" stop-color="#cca9a9"></stop>
    </radialGradient>
  </defs>
</svg>