<?xml version="1.0" encoding="UTF-8" standalone="no"?>
<svg xmlns:xlink="http://www.w3.org/1999/xlink" height="40.25px" width="39.1px" xmlns="http://www.w3.org/2000/svg">
  <g transform="matrix(1.0, 0.0, 0.0, 1.0, 1, 1)">
    <path d="M37.1 5.65 Q37.1 10.25 36.55 19.0 L36.65 20.55 36.8 23.7 Q36.95 26.55 36.65 26.55 35.75 26.55 33.5 21.15 32.55 22.85 28.5 27.75 27.75 26.55 27.55 25.05 L27.45 23.25 Q24.6 27.6 18.8 30.2 18.45 29.95 18.5 28.2 L18.6 26.5 14.5 29.5 14.75 26.75 14.75 26.65 14.65 26.85 Q13.8 28.4 9.6 33.95 L9.6 33.6 10.1 30.85 Q8.75 32.95 8.25 34.85 L7.65 38.1 7.55 38.25 6.7 36.1 Q4.4 30.45 4.25 28.6 L3.05 29.85 Q2.9 29.85 2.5 27.25 L2.05 23.85 2.0 23.75 0.05 25.75 0.0 25.35 Q0.0 24.8 0.95 21.4 L1.2 20.6 1.65 18.95 2.0 17.8 3.55 12.85 3.55 17.05 Q4.4 14.5 5.25 14.5 L5.3 17.5 5.3 18.05 5.2 20.5 Q8.0 22.3 9.5 22.25 10.85 22.2 11.5 18.55 L11.6 18.15 12.3 14.1 Q13.65 14.5 13.8 17.15 L13.9 18.75 14.0 20.55 14.05 21.55 14.15 21.7 17.4 19.0 20.15 16.55 Q20.6 16.55 20.4 19.1 L20.4 19.25 20.35 19.65 21.4 19.35 Q23.7 18.35 27.85 14.7 33.1 10.05 33.75 8.3 L34.9 3.55 Q35.55 0.9 36.75 0.0 L37.1 5.65 M4.55 20.9 L4.5 20.8 4.5 20.5 4.5 20.35 4.6 18.0 4.85 15.3 4.65 15.75 4.05 17.1 3.65 17.95 3.15 19.05 3.0 19.5 2.95 19.25 2.9 18.7 2.9 17.9 2.9 16.5 2.7 17.85 2.35 19.7 2.05 21.05 1.7 22.7 1.95 22.3 2.65 21.7 3.15 28.4 4.15 26.95 4.15 26.65 4.2 25.05 4.2 24.75 Q4.25 23.85 4.45 23.2 4.35 24.8 4.95 27.9 L5.25 29.3 Q6.15 33.4 7.2 35.45 8.3 32.4 10.3 29.3 L10.6 31.6 12.3 29.05 12.5 28.75 15.7 24.55 15.5 26.4 15.3 27.65 17.5 26.25 19.4 25.0 19.4 27.75 19.3 28.85 Q22.25 27.4 25.5 23.9 L26.9 22.35 27.9 21.05 28.6 24.35 28.95 25.85 28.95 25.9 Q32.65 22.0 33.5 20.3 L33.7 19.5 34.3 20.4 36.0 24.2 36.05 24.2 Q35.75 22.6 35.75 20.5 L35.85 17.3 36.25 10.4 36.25 2.75 35.4 5.65 34.55 8.4 34.5 8.5 33.2 10.25 31.6 11.9 30.95 12.6 28.2 15.25 22.35 19.4 19.85 20.55 19.9 19.7 19.9 17.7 19.55 18.15 18.55 19.1 17.15 20.35 14.0 23.0 13.75 22.4 Q13.35 21.2 13.05 18.65 L12.8 15.55 12.2 18.0 12.05 18.6 11.45 21.15 Q11.15 22.75 10.75 22.75 L8.4 22.8 Q4.75 21.55 4.55 20.9" fill="#a36a6a" fill-rule="evenodd" stroke="none"/>
    <path d="M4.55 20.9 L4.55 21.4 4.65 22.5 4.65 22.55 5.0 24.75 5.0 24.65 5.25 24.0 5.35 24.1 6.95 27.95 8.75 24.75 9.1 24.85 9.1 27.4 9.2 27.4 11.65 23.45 12.6 25.15 13.15 26.65 13.25 26.65 Q13.5 25.8 15.25 24.25 L17.2 22.7 17.0 23.35 17.0 23.9 18.75 22.65 20.1 21.85 20.3 24.65 20.45 24.5 23.75 20.45 23.85 20.55 23.85 21.2 23.55 21.85 23.45 22.5 23.55 22.5 25.85 19.95 26.1 19.7 28.35 17.15 28.45 20.05 28.55 20.05 28.6 19.9 29.2 18.1 29.85 16.4 29.95 16.5 30.3 18.95 30.3 18.85 Q30.25 17.35 30.9 16.3 32.55 13.55 33.9 10.4 L33.9 9.95 Q33.6 9.95 33.2 10.25 L34.5 8.5 34.55 8.4 35.4 5.65 35.5 6.45 Q35.5 8.0 34.95 10.3 34.35 12.65 34.35 13.4 33.65 13.35 32.75 15.45 31.95 17.25 31.9 18.1 L31.55 20.15 31.4 20.55 29.95 23.15 29.85 18.95 29.45 20.0 28.9 22.25 28.6 24.35 27.9 21.05 26.9 22.35 Q27.15 21.1 27.3 21.0 L27.3 20.9 Q26.85 21.05 24.55 23.5 L22.3 26.0 22.9 23.35 22.9 22.9 Q22.55 23.0 20.1 26.9 L19.4 27.75 19.4 25.0 17.5 26.25 17.85 25.35 18.5 23.9 18.5 23.75 17.25 24.95 16.15 26.15 16.25 25.25 15.5 26.4 15.7 24.55 12.5 28.75 11.35 29.55 11.35 29.45 11.35 27.45 11.0 25.5 8.65 29.75 8.65 29.65 8.7 28.8 8.55 28.25 8.45 28.35 7.7 30.05 Q6.95 31.7 6.95 32.0 L5.55 25.05 5.45 25.15 4.95 27.9 Q4.35 24.8 4.45 23.2 4.25 23.85 4.2 24.75 L4.2 25.05 4.05 21.95 3.95 21.95 3.45 23.1 3.1 24.4 3.1 24.3 2.65 20.55 Q2.4 20.6 2.05 21.05 L2.35 19.7 2.95 19.25 3.0 19.5 3.15 19.05 3.3 18.95 3.4 19.7 3.0 21.85 3.1 21.85 4.0 20.65 Q3.85 19.85 3.85 18.9 L3.9 17.95 4.05 17.1 4.65 15.75 4.85 15.3 4.6 18.0 4.5 20.35 4.5 20.5 4.5 20.8 4.55 20.9 M19.9 19.7 L19.15 20.4 Q17.4 21.85 17.0 22.25 L18.9 19.15 19.55 18.15 19.9 17.7 19.9 19.7 M13.75 22.4 L13.45 24.5 13.25 24.3 12.65 20.55 12.3 18.6 12.2 18.0 12.8 15.55 13.05 18.65 Q13.35 21.2 13.75 22.4" fill="#e2cfcf" fill-rule="evenodd" stroke="none"/>
    <path d="M33.2 10.25 Q33.6 9.95 33.9 9.95 L33.9 10.4 Q32.55 13.55 30.9 16.3 30.25 17.35 30.3 18.85 L30.3 18.95 29.95 16.5 29.85 16.4 29.2 18.1 28.6 19.9 28.55 20.05 28.45 20.05 28.35 17.15 26.1 19.7 25.85 19.95 23.55 22.5 23.45 22.5 23.55 21.85 23.85 21.2 23.85 20.55 23.75 20.45 20.45 24.5 20.3 24.65 20.1 21.85 18.75 22.65 17.0 23.9 17.0 23.35 17.2 22.7 15.25 24.25 Q13.5 25.8 13.25 26.65 L13.15 26.65 12.6 25.15 11.65 23.45 9.2 27.4 9.1 27.4 9.1 24.85 8.75 24.75 6.95 27.95 5.35 24.1 5.25 24.0 5.0 24.65 5.0 24.75 4.65 22.55 4.65 22.5 4.55 21.4 4.55 20.9 Q4.75 21.55 8.4 22.8 L10.75 22.75 Q11.15 22.75 11.45 21.15 L12.05 18.6 12.2 18.0 12.3 18.6 12.65 20.55 13.25 24.3 13.45 24.5 13.75 22.4 14.0 23.0 17.15 20.35 18.55 19.1 19.55 18.15 18.9 19.15 17.0 22.25 Q17.4 21.85 19.15 20.4 L19.9 19.7 19.85 20.55 22.35 19.4 28.2 15.25 30.95 12.6 31.6 11.9 33.2 10.25 M4.05 17.1 L3.9 17.95 3.85 18.9 Q3.85 19.85 4.0 20.65 L3.1 21.85 3.0 21.85 3.4 19.7 3.3 18.95 3.15 19.05 3.65 17.95 4.05 17.1 M2.95 19.25 L2.35 19.7 2.7 17.85 2.9 16.5 2.9 17.9 2.9 18.7 2.95 19.25 M22.3 26.0 L22.25 26.15 22.25 26.0 22.3 26.0" fill="#ffffff" fill-rule="evenodd" stroke="none"/>
    <path d="M2.05 21.05 Q2.4 20.6 2.65 20.55 L3.1 24.3 3.1 24.4 3.45 23.1 3.95 21.95 4.05 21.95 4.2 25.05 4.15 26.65 4.15 26.95 3.15 28.4 2.65 21.7 1.95 22.3 1.7 22.7 2.05 21.05 M4.95 27.9 L5.45 25.15 5.55 25.05 6.95 32.0 Q6.95 31.7 7.7 30.05 L8.45 28.35 8.55 28.25 8.7 28.8 8.65 29.65 8.65 29.75 11.0 25.5 11.35 27.45 11.35 29.45 11.35 29.55 12.5 28.75 12.3 29.05 10.6 31.6 10.3 29.3 Q8.3 32.4 7.2 35.45 6.15 33.4 5.25 29.3 L4.95 27.9 M15.5 26.4 L16.25 25.25 16.15 26.15 17.25 24.95 18.5 23.75 18.5 23.9 17.85 25.35 17.5 26.25 15.3 27.65 15.5 26.4 M19.4 27.75 L20.1 26.9 Q22.55 23.0 22.9 22.9 L22.9 23.35 22.3 26.0 24.55 23.5 Q26.85 21.05 27.3 20.9 L27.3 21.0 Q27.15 21.1 26.9 22.35 L25.5 23.9 Q22.25 27.4 19.3 28.85 L19.4 27.75 M28.6 24.35 L28.9 22.25 29.45 20.0 29.85 18.95 29.95 23.15 31.4 20.55 31.55 20.15 31.9 18.1 Q31.95 17.25 32.75 15.45 33.65 13.35 34.35 13.4 34.35 12.65 34.95 10.3 35.5 8.0 35.5 6.45 L35.4 5.65 36.25 2.75 36.25 10.4 35.85 17.3 35.75 20.5 Q35.75 22.6 36.05 24.2 L36.0 24.2 34.3 20.4 33.7 19.5 33.5 20.3 Q32.65 22.0 28.95 25.9 L28.95 25.85 28.6 24.35 M22.3 26.0 L22.25 26.0 22.25 26.15 22.3 26.0" fill="#bf9494" fill-rule="evenodd" stroke="none"/>
  </g>
</svg>