<?xml version="1.0" encoding="UTF-8" standalone="no"?>
<svg xmlns:xlink="http://www.w3.org/1999/xlink" height="10.6px" width="17px" xmlns="http://www.w3.org/2000/svg">
  <g transform="matrix(1.0, 0.0, 0.0, 1.0, 1, 1)">
    <path d="M13.6 6.65 Q11.65 8.6 7.8 8.6 3.35 8.6 1.65 6.05 0.25 4.05 1.0 3.1 0.0 2.45 0.0 1.9 0.0 1.35 1.0 0.6 2.1 -0.25 3.2 0.1 L3.35 0.4 1.9 0.95 Q1.25 1.25 1.1 1.7 L1.55 2.25 Q3.15 3.45 6.25 3.45 8.85 3.45 13.05 0.75 14.15 0.0 14.55 0.45 15.0 0.95 15.0 3.6 15.0 5.25 13.6 6.65" fill="#a36a6a" fill-rule="evenodd" stroke="none"/>
  </g>
</svg>