<?xml version="1.0" encoding="UTF-8" standalone="no"?>
<svg xmlns:xlink="http://www.w3.org/1999/xlink" height="15.35px" width="17.6px" xmlns="http://www.w3.org/2000/svg">
  <g transform="matrix(1.0, 0.0, 0.0, 1.0, -9.95, -2.95)">
    <path d="M19.35 11.1 L20.0 10.95 Q20.85 10.95 20.8 11.6 L20.65 12.5 19.7 13.8 19.1 14.25 17.55 14.7 Q17.2 14.7 17.0 14.5 17.1 13.75 18.0 12.6 L18.65 11.8 19.35 11.1 M21.65 12.35 L22.2 12.8 Q22.35 12.05 23.25 10.65 L23.3 10.5 23.65 10.1 24.05 10.05 24.25 10.0 Q24.9 10.0 24.9 11.05 24.8 12.35 23.95 13.25 L23.7 13.5 23.25 13.85 Q22.1 14.6 21.25 14.6 20.8 14.6 20.8 14.0 20.8 13.65 21.35 12.75 L21.5 12.5 21.65 12.35" fill="#d95757" fill-rule="evenodd" stroke="none"/>
    <path d="M23.65 15.5 L23.9 15.4 Q21.55 17.1 18.2 17.3 14.95 17.45 13.7 15.25 L13.65 15.1 13.55 15.1 13.5 14.95 Q16.15 15.95 18.6 16.25 L19.9 16.3 22.15 15.9 23.65 15.5 M13.65 7.5 L14.15 7.6 14.55 7.65 14.55 7.7 14.55 8.0 14.55 8.1 14.95 9.35 13.55 9.05 13.55 9.0 Q13.55 8.6 13.95 8.45 L13.65 7.8 13.65 7.5 M15.65 7.7 L19.25 7.2 19.3 8.0 18.85 9.5 17.55 9.55 16.1 9.5 Q15.5 8.8 15.65 8.0 L15.65 7.7 M20.2 6.9 L20.35 6.85 20.55 6.8 21.45 6.4 21.5 6.8 21.25 7.8 21.75 7.7 22.1 8.0 22.1 8.15 21.7 9.05 19.95 9.4 20.25 8.15 20.35 8.0 20.25 7.15 20.2 6.9" fill="#ffffff" fill-rule="evenodd" stroke="none"/>
    <path d="M12.25 13.45 Q11.3 11.15 10.95 8.95 L11.05 8.6 Q11.7 9.15 14.15 9.9 L16.0 10.45 Q15.2 10.75 14.95 11.35 14.7 11.9 14.15 12.1 13.65 12.3 13.65 12.65 L13.65 12.7 Q12.8 12.85 12.45 13.4 L12.25 13.45" fill="#000000" fill-rule="evenodd" stroke="none"/>
    <path d="M21.65 12.35 L21.55 12.25 21.5 11.5 Q21.55 10.85 22.4 9.7 L26.0 8.2 24.05 9.7 23.65 10.1 23.3 10.5 23.25 10.65 Q22.35 12.05 22.2 12.8 L21.65 12.35 M20.45 10.3 Q19.95 10.55 19.35 11.1 L18.65 11.8 18.0 12.6 Q17.1 13.75 17.0 14.5 16.95 15.0 17.35 15.3 L17.35 15.35 17.6 15.45 16.15 15.1 Q15.9 14.5 16.25 13.75 L16.3 13.65 16.55 12.9 17.3 11.85 17.45 11.65 17.65 11.5 17.8 11.3 18.25 10.8 18.3 10.85 18.7 10.5 18.3 10.5 20.45 10.3" fill="#772626" fill-rule="evenodd" stroke="none"/>
    <path d="M26.0 8.2 L26.1 8.5 26.55 10.75 Q26.5 12.3 25.45 13.85 L25.2 14.0 24.05 14.65 22.85 15.15 Q20.8 15.95 18.95 15.8 L17.6 15.45 17.35 15.35 17.35 15.3 Q16.95 15.0 17.0 14.5 17.2 14.7 17.55 14.7 L19.1 14.25 19.7 13.8 20.65 12.5 20.8 11.6 Q20.85 10.95 20.0 10.95 L19.35 11.1 Q19.95 10.55 20.45 10.3 L20.9 10.15 22.4 9.7 Q21.55 10.85 21.5 11.5 L21.55 12.25 21.65 12.35 21.5 12.5 21.35 12.75 Q20.8 13.65 20.8 14.0 20.8 14.6 21.25 14.6 22.1 14.6 23.25 13.85 L23.7 13.5 23.95 13.25 Q24.8 12.35 24.9 11.05 24.9 10.0 24.25 10.0 L24.05 10.05 23.65 10.1 24.05 9.7 26.0 8.2" fill="#b13f3f" fill-rule="evenodd" stroke="none"/>
    <path d="M22.65 5.7 L23.65 5.1 23.6 5.2 23.9 6.0 23.95 7.45 23.95 8.0 23.95 8.15 24.05 8.1 Q24.9 7.6 25.55 7.25 L25.65 7.2 26.0 8.2 22.4 9.7 20.9 10.15 20.45 10.3 18.3 10.5 17.65 10.5 18.2 10.75 18.25 10.8 17.8 11.3 17.45 11.05 Q16.9 10.9 16.45 11.05 15.9 11.25 15.6 11.8 L16.5 11.7 Q16.95 11.8 17.15 12.0 L17.3 11.85 16.55 12.9 16.65 12.55 Q15.35 12.0 14.15 12.8 16.05 12.95 16.25 13.75 15.9 14.5 16.15 15.1 L17.6 15.45 18.95 15.8 Q20.8 15.95 22.85 15.15 L24.05 14.65 25.2 14.0 25.45 13.85 23.65 15.5 22.15 15.9 19.9 16.3 18.6 16.25 Q16.15 15.95 13.5 14.95 L13.55 15.1 12.25 13.45 12.45 13.4 Q12.8 12.85 13.65 12.7 L13.65 12.65 Q13.65 12.3 14.15 12.1 14.7 11.9 14.95 11.35 15.2 10.75 16.0 10.45 L14.15 9.9 Q11.7 9.15 11.05 8.6 L10.95 7.7 11.7 8.2 12.1 8.45 12.1 8.15 12.1 7.95 12.15 7.55 12.25 7.05 13.05 7.35 Q12.9 7.6 12.9 8.0 L13.4 9.0 13.55 9.05 14.95 9.35 14.55 8.1 14.55 8.0 14.55 7.7 15.65 7.7 15.65 8.0 Q15.5 8.8 16.1 9.5 L17.55 9.55 18.85 9.5 19.3 8.0 19.25 7.2 20.2 6.9 20.25 7.15 20.35 8.0 20.25 8.15 19.95 9.4 21.7 9.05 23.05 8.6 23.0 8.0 23.0 7.5 Q23.0 6.15 22.65 5.7 M14.3 13.3 Q13.1 13.25 13.05 14.2 L15.25 14.75 Q15.4 13.35 14.3 13.3" fill="#35546b" fill-rule="evenodd" stroke="none"/>
    <path d="M23.65 5.1 L24.55 3.95 25.6 6.85 25.6 6.95 25.65 7.2 25.55 7.25 Q24.9 7.6 24.05 8.1 L23.95 8.15 23.95 8.0 23.95 7.45 23.9 6.0 23.6 5.2 23.65 5.1 M10.95 7.7 L10.95 7.5 10.95 7.3 11.1 5.95 11.45 6.35 12.25 7.0 12.25 7.05 12.15 7.55 12.1 7.95 12.1 8.15 12.1 8.45 11.7 8.2 10.95 7.7 M13.05 7.35 L13.65 7.5 13.65 7.8 13.95 8.45 Q13.55 8.6 13.55 9.0 L13.55 9.05 13.4 9.0 12.9 8.0 Q12.9 7.6 13.05 7.35 M21.45 6.4 L21.65 6.3 22.6 5.75 22.65 5.7 Q23.0 6.15 23.0 7.5 L23.0 8.0 23.05 8.6 21.7 9.05 22.1 8.15 22.1 8.0 21.75 7.7 21.25 7.8 21.5 6.8 21.45 6.4 M17.3 11.85 L17.15 12.0 Q16.95 11.8 16.5 11.7 L15.6 11.8 Q15.9 11.25 16.45 11.05 16.9 10.9 17.45 11.05 L17.8 11.3 17.65 11.5 17.45 11.65 17.3 11.85 M18.25 10.8 L18.2 10.75 17.65 10.5 18.3 10.5 18.7 10.5 18.3 10.85 18.25 10.8 M16.55 12.9 L16.3 13.65 16.25 13.75 Q16.05 12.95 14.15 12.8 15.35 12.0 16.65 12.55 L16.55 12.9 M14.3 13.3 Q15.4 13.35 15.25 14.75 L13.05 14.2 Q13.1 13.25 14.3 13.3" fill="#92b9d7" fill-rule="evenodd" stroke="none"/>
  </g>
</svg>