<?xml version="1.0" encoding="UTF-8" standalone="no"?>
<svg xmlns:xlink="http://www.w3.org/1999/xlink" height="8.2px" width="14.55px" xmlns="http://www.w3.org/2000/svg">
  <g transform="matrix(1.0, 0.0, 0.0, 1.0, -10.05, -3.2)">
    <path d="M19.0 6.55 L19.7 6.1 20.8 5.45 20.4 7.6 20.35 7.7 20.25 7.7 19.3 6.95 18.9 6.6 19.0 6.55" fill="#ffffff" fill-rule="evenodd" stroke="none"/>
    <path d="M22.2 4.8 L21.85 7.1 21.55 7.95 Q21.05 8.85 20.3 8.85 L19.15 8.2 18.9 8.0 18.05 7.0 19.0 6.55 18.9 6.6 19.3 6.95 20.25 7.7 20.35 7.7 20.4 7.6 20.8 5.45 22.2 4.8" fill="#35546b" fill-rule="evenodd" stroke="none"/>
    <path d="M12.1 8.35 L11.3 6.85 11.35 6.8 11.6 6.65 13.05 7.1 13.0 7.1 Q12.8 7.1 12.4 7.4 12.0 7.7 12.1 8.35 M16.45 7.45 L18.05 7.0 16.8 8.85 16.35 8.8 16.25 8.3 16.45 7.45" fill="#772626" fill-rule="evenodd" stroke="none"/>
    <path d="M22.2 4.8 L22.3 4.8 22.4 4.75 23.25 4.2 Q23.7 5.1 23.6 6.3 L22.95 7.75 22.95 7.7 Q22.95 7.05 22.15 7.05 L21.85 7.1 22.2 4.8 M21.35 9.2 L19.7 9.9 Q19.05 9.55 18.5 8.5 L16.85 8.95 Q15.35 8.95 14.3 8.2 13.25 7.4 12.45 7.4 L12.4 7.4 Q12.8 7.1 13.0 7.1 L13.05 7.1 16.5 7.35 16.45 7.45 16.25 8.3 16.35 8.8 16.8 8.85 18.05 7.0 18.9 8.0 19.15 8.2 20.3 8.85 Q21.05 8.85 21.55 7.95 L21.45 8.65 21.35 9.2" fill="#b13f3f" fill-rule="evenodd" stroke="none"/>
    <path d="M11.3 6.85 L11.05 6.3 11.6 6.65 11.35 6.8 11.3 6.85" fill="#000000" fill-rule="evenodd" stroke="none"/>
    <path d="M21.85 7.1 L22.15 7.05 Q22.95 7.05 22.95 7.7 L22.95 7.75 22.1 8.6 21.35 9.2 21.45 8.65 21.55 7.95 21.85 7.1 M19.7 9.9 L15.9 10.4 Q13.6 10.4 12.2 8.6 L12.05 8.35 12.1 8.35 Q12.0 7.7 12.4 7.4 L12.45 7.4 Q13.25 7.4 14.3 8.2 15.35 8.95 16.85 8.95 L18.5 8.5 Q19.05 9.55 19.7 9.9" fill="#d95757" fill-rule="evenodd" stroke="none"/>
  </g>
</svg>