<?xml version="1.0" encoding="UTF-8" standalone="no"?>
<svg xmlns:xlink="http://www.w3.org/1999/xlink" height="28.1px" width="26.4px" xmlns="http://www.w3.org/2000/svg">
  <g transform="matrix(1.0, 0.0, 0.0, 1.0, 1, 1)">
    <path d="M10.95 14.6 L11.05 14.6 Q13.25 14.3 14.85 10.9 L15.05 10.35 15.15 10.15 Q16.7 6.45 17.0 6.35 L17.35 6.3 17.45 6.4 17.35 7.45 16.9 9.35 17.35 9.9 17.8 10.35 17.95 10.5 18.15 10.25 19.9 7.9 21.9 5.4 22.25 5.4 22.4 5.55 21.85 6.75 22.25 6.6 22.35 6.6 22.65 6.65 23.8 9.95 24.35 12.65 Q24.55 15.2 23.9 15.7 L21.7 17.2 19.45 18.4 13.1 19.1 12.3 19.5 8.4 23.25 Q5.1 26.1 4.55 26.1 L3.25 25.35 Q2.2 24.4 2.2 23.1 2.2 22.4 4.75 20.1 L10.05 16.5 10.05 15.75 9.7 15.35 7.9 15.75 1.5 17.3 1.2 17.2 Q0.45 17.0 0.25 16.25 L0.05 14.95 Q-0.05 14.2 0.15 13.55 0.3 12.75 0.8 12.1 L1.5 11.35 1.85 11.1 Q2.3 10.75 2.9 10.45 L2.9 9.65 Q3.0 7.95 4.85 6.6 5.35 6.2 5.9 5.9 L7.9 5.1 12.4 3.65 12.75 3.6 Q13.25 3.15 13.9 2.85 L15.85 2.3 18.0 1.1 19.5 0.05 22.75 0.15 23.4 0.3 23.3 1.15 21.7 1.3 19.85 1.35 Q19.65 1.4 18.5 2.25 L16.45 3.4 14.65 4.25 14.4 4.35 Q13.2 5.0 12.15 8.8 L11.9 9.55 11.5 11.5 10.9 14.6 10.95 14.6 M3.8 23.65 L3.9 23.85 4.0 24.0 4.7 24.65 14.1 17.7 14.4 17.7 16.85 17.9 Q18.3 18.1 21.3 16.0 22.8 15.0 23.35 13.95 23.9 12.9 23.5 11.85 L21.9 7.1 21.85 6.9 19.7 9.8 19.55 10.0 19.5 10.05 18.1 11.55 17.15 12.5 15.95 13.45 15.9 13.4 Q16.05 12.25 17.1 11.25 L16.45 10.75 16.35 10.65 16.35 10.7 16.1 11.25 Q14.5 15.05 12.85 15.5 L9.15 18.05 8.6 18.45 4.3 21.35 Q3.45 22.2 3.45 22.85 3.45 23.05 3.8 23.65 M4.45 9.45 L4.3 10.0 4.4 10.0 7.6 9.2 10.25 8.2 10.6 8.1 12.05 7.95 12.45 5.2 Q11.95 5.35 11.55 5.55 L10.15 6.0 9.05 6.4 6.1 7.45 Q5.55 7.6 4.95 8.45 4.55 8.95 4.45 9.45 M1.0 14.95 L1.15 15.65 Q1.25 15.95 3.2 15.65 L6.5 14.95 8.9 14.0 10.2 13.75 10.9 11.6 11.1 11.0 11.75 9.05 6.55 10.6 4.9 11.1 Q4.05 11.4 2.45 12.2 L2.2 12.3 1.5 12.9 1.2 13.35 Q0.9 14.0 1.0 14.95" fill="#a36a6a" fill-rule="evenodd" stroke="none"/>
    <path d="M22.35 6.6 L22.25 6.6 21.85 6.75 22.4 5.55 22.25 5.4 21.9 5.4 19.9 7.9 18.15 10.25 17.95 10.5 17.8 10.35 17.35 9.9 16.9 9.35 17.35 7.45 17.45 6.4 17.35 6.3 17.0 6.35 Q16.7 6.45 15.15 10.15 L15.05 10.35 14.85 10.9 Q13.25 14.3 11.05 14.6 L10.95 14.6 12.9 11.65 13.05 11.2 13.5 9.4 13.85 7.9 14.4 4.35 14.65 4.25 16.45 3.4 18.5 2.25 Q19.65 1.4 19.85 1.35 L21.7 1.3 23.3 1.15 23.45 1.8 Q23.45 4.35 22.85 5.75 L22.35 6.6 M19.55 10.0 L19.7 9.8 21.85 6.9 21.9 7.1 23.5 11.85 Q23.9 12.9 23.35 13.95 22.8 15.0 21.3 16.0 18.3 18.1 16.85 17.9 L14.4 17.7 14.1 17.7 4.7 24.65 4.0 24.0 3.9 23.85 3.8 23.65 Q6.3 22.65 7.6 21.25 8.9 19.8 8.9 18.75 L8.6 18.45 9.15 18.05 12.85 15.5 Q14.5 15.05 16.1 11.25 L16.35 10.7 16.35 10.65 16.45 10.75 17.1 11.25 Q16.05 12.25 15.9 13.4 L15.95 13.45 Q15.1 14.7 15.1 15.45 L15.3 16.1 Q15.5 16.4 15.7 16.4 17.15 16.4 18.7 14.75 L20.2 12.5 20.85 10.2 20.85 9.75 20.45 9.7 19.55 10.0 M9.05 6.4 L10.15 6.0 11.55 5.55 Q11.95 5.35 12.45 5.2 L12.05 7.95 10.6 8.1 10.25 8.2 7.6 9.2 4.4 10.0 4.3 10.0 4.45 9.45 6.7 8.5 Q8.0 7.8 8.6 7.15 L9.05 6.4 M6.55 10.6 L11.75 9.05 11.1 11.0 10.9 11.6 10.2 13.75 8.9 14.0 6.5 14.95 3.2 15.65 Q1.25 15.95 1.15 15.65 L1.0 14.95 2.85 14.55 4.75 13.6 6.05 12.5 Q6.65 11.75 6.65 11.0 L6.55 10.6" fill="#dbb9b9" fill-rule="evenodd" stroke="none"/>
    <path d="M14.4 4.35 L13.85 7.9 13.5 9.4 13.05 11.2 12.9 11.65 10.95 14.6 10.9 14.6 11.5 11.5 11.9 9.55 12.15 8.8 Q13.2 5.0 14.4 4.35 M19.55 10.0 L20.45 9.7 20.85 9.75 20.85 10.2 20.2 12.5 18.7 14.75 Q17.15 16.4 15.7 16.4 15.5 16.4 15.3 16.1 L15.1 15.45 Q15.1 14.7 15.95 13.45 L17.15 12.5 18.1 11.55 19.5 10.05 19.55 10.0 M8.6 18.45 L8.9 18.75 Q8.9 19.8 7.6 21.25 6.3 22.65 3.8 23.65 3.45 23.05 3.45 22.85 3.45 22.2 4.3 21.35 L8.6 18.45 M4.45 9.45 Q4.55 8.95 4.95 8.45 5.55 7.6 6.1 7.45 L9.05 6.4 8.6 7.15 Q8.0 7.8 6.7 8.5 L4.45 9.45 M1.0 14.95 Q0.9 14.0 1.2 13.35 L1.5 12.9 2.2 12.3 2.45 12.2 Q4.05 11.4 4.9 11.1 L6.55 10.6 6.65 11.0 Q6.65 11.75 6.05 12.5 L4.75 13.6 2.85 14.55 1.0 14.95" fill="#ffffff" fill-rule="evenodd" stroke="none"/>
  </g>
</svg>