<?xml version="1.0" encoding="UTF-8" standalone="no"?>
<svg xmlns:xlink="http://www.w3.org/1999/xlink" height="17.1px" width="19.95px" xmlns="http://www.w3.org/2000/svg">
  <g transform="matrix(1.0, 0.0, 0.0, 1.0, 1.9, 1.75)">
    <path d="M3.5 13.8 L2.8 14.35 Q1.8 14.1 1.05 13.55 L0.05 12.5 Q-0.9 11.05 -0.9 8.1 -0.6 5.9 0.75 3.65 L1.4 2.65 3.0 1.2 Q4.05 0.4 5.85 -0.1 L8.3 -0.7 9.35 -0.75 11.1 -0.6 13.45 -0.05 14.95 0.5 15.6 0.9 16.1 1.2 16.95 2.0 17.05 1.8 17.05 3.05 17.0 3.0 16.1 2.15 15.6 1.7 15.1 1.35 14.6 1.0 14.3 0.9 Q13.9 0.65 13.4 0.5 L10.35 0.0 9.85 0.0 Q5.7 0.0 2.85 2.6 L2.2 3.2 Q0.4 5.1 0.0 6.95 L-0.1 7.4 -0.2 8.15 -0.2 8.3 Q-0.2 12.55 2.75 13.55 L3.5 13.8 M17.05 10.55 L17.05 11.65 16.1 11.25 15.6 11.05 14.35 10.5 10.65 8.8 11.8 11.75 12.75 13.35 12.05 13.15 10.7 10.9 10.2 10.2 10.05 9.9 9.7 9.35 Q7.9 6.6 4.95 7.6 L6.7 6.9 10.1 7.95 10.2 8.0 17.05 10.55" fill="#b47777" fill-rule="evenodd" stroke="none"/>
    <path d="M-0.1 7.4 L0.0 6.95 Q0.4 5.1 2.2 3.2 L2.85 2.6 Q5.7 0.0 9.85 0.0 L10.35 0.0 13.4 0.5 Q13.9 0.65 14.3 0.9 L14.6 1.0 15.1 1.35 15.6 1.7 16.1 2.15 17.0 3.0 17.05 3.05 17.05 5.5 15.2 4.95 10.25 3.55 10.2 3.55 9.3 3.45 Q6.7 3.45 4.15 5.05 L3.9 5.2 Q1.95 6.5 1.9 7.4 L4.4 7.9 4.5 7.9 4.75 7.95 7.0 8.55 4.15 8.8 4.7 9.45 4.95 9.8 2.5 9.0 Q1.1 7.2 0.4 7.2 L-0.1 7.4" fill="#ffffff" fill-rule="evenodd" stroke="none"/>
    <path d="M17.05 5.5 L17.05 6.7 16.1 6.3 15.6 6.1 14.7 5.7 10.2 4.4 9.35 4.3 7.5 4.45 Q6.8 4.6 4.95 5.45 L4.85 5.45 8.0 6.25 8.0 6.35 4.45 6.25 3.45 6.25 Q3.5 6.85 4.35 7.7 L4.5 7.9 4.4 7.9 1.9 7.4 Q1.95 6.5 3.9 5.2 L4.15 5.05 Q6.7 3.45 9.3 3.45 L10.2 3.55 10.25 3.55 15.2 4.95 17.05 5.5 M12.05 13.15 L10.25 12.65 10.2 12.6 9.95 12.25 Q8.95 10.8 8.05 8.05 L10.2 10.2 10.7 10.9 12.05 13.15" fill="#e2cfcf" fill-rule="evenodd" stroke="none"/>
    <path d="M3.5 13.8 L2.75 13.55 Q-0.2 12.55 -0.2 8.3 L-0.2 8.15 -0.1 7.4 0.4 7.2 Q1.1 7.2 2.5 9.0 L4.95 9.8 4.7 9.45 4.15 8.8 7.0 8.55 4.75 7.95 4.5 7.9 4.35 7.7 Q3.5 6.85 3.45 6.25 L4.45 6.25 8.0 6.35 8.0 6.25 4.85 5.45 4.95 5.45 Q6.8 4.6 7.5 4.45 L9.35 4.3 10.2 4.4 14.7 5.7 15.6 6.1 16.1 6.3 17.05 6.7 17.05 10.55 10.2 8.0 10.1 7.95 6.7 6.9 4.95 7.6 Q7.9 6.6 9.7 9.35 L10.05 9.9 10.2 10.2 8.05 8.05 Q8.95 10.8 9.95 12.25 L10.2 12.6 10.25 12.65 10.2 12.65 6.35 11.55 3.5 13.8" fill="url(#gradient0)" fill-rule="evenodd" stroke="none"/>
  </g>
  <defs>
    <linearGradient gradientTransform="matrix(-0.0031, -0.0054, 0.0089, -0.0051, 7.5, 7.0)" gradientUnits="userSpaceOnUse" id="gradient0" spreadMethod="pad" x1="-819.2" x2="819.2">
      <stop offset="0.0" stop-color="#bb8e8e"></stop>
      <stop offset="1.0" stop-color="#e2cfcf"></stop>
    </linearGradient>
  </defs>
</svg>