<?xml version="1.0" encoding="UTF-8" standalone="no"?>
<svg xmlns:xlink="http://www.w3.org/1999/xlink" height="29.2px" width="31.6px" xmlns="http://www.w3.org/2000/svg">
  <g transform="matrix(1.0, 0.0, 0.0, 1.0, 7.3, 4.3)">
    <path d="M14.5 8.25 L14.65 7.5 Q15.25 8.0 16.15 8.2 L15.55 8.65 15.35 8.85 14.85 9.95 13.0 13.05 Q11.6 15.05 10.15 15.0 8.65 14.95 8.65 14.5 L8.4 13.4 7.85 12.35 6.55 10.0 6.3 9.65 5.95 8.5 4.7 5.05 3.25 4.95 0.7 5.15 0.0 4.9 -0.65 4.75 -0.5 4.7 Q1.95 3.9 6.45 3.65 L7.0 3.95 7.6 6.7 7.7 6.85 7.75 7.0 8.0 8.2 8.2 8.95 Q8.9 11.65 10.2 11.95 L11.35 11.75 Q13.2 10.95 13.95 9.65 L14.5 8.25" fill="#cca9a9" fill-rule="evenodd" stroke="none"/>
    <path d="M8.7 -0.7 L8.2 -0.5 Q7.8 -0.4 7.6 0.0 7.45 0.4 7.45 1.0 7.45 1.6 7.8 3.1 L8.25 5.05 Q8.7 4.7 9.5 4.7 L9.95 4.75 10.6 5.1 11.2 5.65 11.3 5.85 11.6 6.3 Q12.45 7.65 12.45 8.25 L12.25 8.75 11.3 8.95 Q10.55 9.15 10.15 9.75 L9.95 10.3 10.65 11.15 Q12.0 11.85 13.65 7.65 13.6 5.85 12.7 3.95 L12.25 3.05 Q11.55 1.55 11.35 0.6 L12.05 0.45 13.2 2.05 14.65 5.85 14.75 6.0 15.7 6.95 Q16.85 7.7 18.35 7.65 L19.2 7.55 19.25 7.55 22.15 7.75 21.6 8.25 21.2 8.25 18.8 8.25 18.75 8.25 18.7 8.25 17.9 8.4 Q16.05 8.7 15.65 9.15 L15.5 9.2 15.35 9.45 Q15.0 10.15 14.8 12.2 14.65 13.55 12.55 14.8 10.9 15.75 8.2 16.6 L8.7 18.55 8.85 19.45 11.05 18.9 15.1 18.1 Q16.25 17.8 20.25 15.4 21.4 14.7 22.25 14.45 L21.85 15.95 21.55 17.05 21.55 16.8 21.3 16.95 Q19.3 18.1 15.65 19.05 L9.35 20.65 8.9 20.65 Q8.85 21.4 8.25 22.05 L7.75 22.5 Q6.2 23.7 3.6 23.9 L2.85 23.9 0.5 23.85 Q-0.35 22.7 -0.95 20.8 L-1.35 19.5 -1.85 18.0 Q-4.35 16.1 -4.9 12.8 L-4.9 12.2 Q-6.05 11.9 -6.25 8.5 -6.5 5.35 -5.9 4.95 L-4.1 4.65 -0.35 3.65 Q1.95 2.95 6.6 2.4 L6.65 2.4 6.6 2.25 6.45 1.6 6.35 0.95 Q6.2 -2.1 16.2 -3.3 16.9 -3.05 19.75 3.25 L20.85 5.55 Q19.0 3.35 18.25 1.75 17.45 0.1 16.25 -1.25 15.05 -2.6 12.3 -1.75 L8.7 -0.7 M14.5 8.25 L13.95 9.65 Q13.2 10.95 11.35 11.75 L10.2 11.95 Q8.9 11.65 8.2 8.95 L8.0 8.2 7.75 7.0 7.7 6.85 7.6 6.7 7.0 3.95 6.45 3.65 Q1.95 3.9 -0.5 4.7 L-0.65 4.75 0.0 4.9 0.7 5.15 3.25 4.95 4.7 5.05 5.95 8.5 6.3 9.65 6.55 10.0 7.85 12.35 8.4 13.4 8.65 14.5 Q8.65 14.95 10.15 15.0 11.6 15.05 13.0 13.05 L14.85 9.95 15.35 8.85 15.55 8.65 16.15 8.2 Q15.25 8.0 14.65 7.5 L14.5 8.25 M11.05 6.7 Q10.75 5.9 10.1 5.65 L9.45 5.55 Q8.75 5.55 8.55 6.15 L8.9 7.2 9.2 8.4 9.5 9.35 9.7 9.1 Q10.4 8.15 11.35 8.2 L11.55 8.2 11.25 7.05 11.05 6.7 M4.9 9.1 L4.7 9.45 Q4.3 9.85 3.15 9.9 L2.8 9.65 Q2.3 9.1 1.75 6.95 1.75 6.5 3.0 6.5 L4.55 6.6 3.7 5.9 Q3.1 5.65 2.35 5.9 L0.05 6.4 -3.4 6.55 -3.45 6.4 -3.45 6.35 -3.4 6.25 Q-3.3 5.85 -2.15 5.7 L-1.6 5.7 -0.7 5.65 -0.15 5.45 -0.65 5.4 -2.0 5.2 -3.65 5.7 -5.4 6.25 Q-4.95 10.7 -4.45 11.25 L-1.6 10.95 -1.55 10.95 -0.4 10.8 3.15 10.5 Q4.3 10.45 4.9 10.0 5.35 9.55 5.35 8.85 L5.15 7.9 4.95 7.4 4.05 7.25 3.1 7.2 2.65 7.4 2.85 8.15 3.05 8.95 4.1 9.05 4.9 8.95 4.9 9.1 M7.45 14.35 L6.75 12.5 6.45 11.95 5.45 12.1 4.9 12.1 4.75 12.1 Q3.5 12.2 3.5 12.6 L3.7 13.5 3.8 14.0 Q4.1 15.15 4.4 15.15 L5.25 15.05 6.55 14.7 6.6 14.7 6.55 14.9 6.35 15.2 5.85 15.5 4.5 15.9 Q3.75 15.9 3.1 14.2 L3.1 14.1 Q2.6 12.85 2.6 12.2 L3.7 11.5 5.2 11.15 5.65 11.05 6.05 11.0 5.9 10.8 5.85 10.8 5.1 10.8 1.65 11.4 -1.15 11.95 -1.3 12.0 -3.45 12.35 -3.05 14.5 Q-2.4 17.05 -1.2 17.05 L0.7 16.95 0.8 16.95 2.45 16.7 2.9 16.65 4.55 16.2 6.45 15.65 7.5 14.95 7.5 14.75 7.45 14.35 M7.75 19.45 L7.25 17.8 7.1 17.8 7.05 17.85 5.2 18.55 5.6 20.4 5.75 20.45 7.1 19.95 7.3 20.0 5.75 21.55 Q5.35 21.55 4.8 19.95 L4.4 18.25 5.55 17.5 6.0 17.3 1.25 18.05 0.95 18.05 0.35 18.1 -0.6 18.1 -0.45 18.45 0.05 20.0 Q0.8 22.7 1.9 22.7 L3.05 22.7 3.1 22.7 Q5.45 22.5 6.75 21.7 7.7 21.05 7.8 20.45 L7.8 20.3 7.8 20.15 7.75 19.45" fill="#b47777" fill-rule="evenodd" stroke="none"/>
    <path d="M11.2 5.65 L10.6 5.1 9.95 4.75 9.5 4.7 Q8.7 4.7 8.25 5.05 L7.8 3.1 Q7.45 1.6 7.45 1.0 7.45 0.4 7.6 0.0 7.8 -0.4 8.2 -0.5 L8.7 -0.7 Q9.9 -0.5 10.55 3.3 L11.0 4.65 11.2 5.65 M12.55 14.8 Q14.65 13.55 14.8 12.2 15.0 10.15 15.35 9.45 L15.5 9.2 15.65 9.15 Q16.05 8.7 17.9 8.4 L18.7 8.25 18.75 8.25 18.85 8.35 19.2 8.65 19.35 9.3 Q19.35 10.25 18.6 11.45 L18.05 12.15 Q16.2 14.25 12.7 15.4 L12.55 14.8 M10.65 11.15 L9.95 10.3 10.15 9.75 Q10.55 9.15 11.3 8.95 L11.05 10.15 10.65 11.15 M11.05 6.7 L11.25 7.05 11.55 8.2 11.35 8.2 Q10.4 8.15 9.7 9.1 L9.5 9.35 9.2 8.4 8.9 7.2 8.55 6.15 Q8.75 5.55 9.45 5.55 L10.1 5.65 Q10.75 5.9 11.05 6.7 M-3.45 6.4 L-3.7 6.7 Q-4.0 7.1 -4.0 8.2 -4.0 9.3 -3.0 10.15 L-1.6 10.95 -4.45 11.25 Q-4.95 10.7 -5.4 6.25 L-3.65 5.7 -2.0 5.2 -0.65 5.4 -0.15 5.45 -0.7 5.65 -1.6 5.7 -2.15 5.7 Q-3.3 5.85 -3.4 6.25 L-3.45 6.35 -3.45 6.4 M5.35 8.85 L4.9 9.1 4.9 8.95 4.1 9.05 3.05 8.95 2.85 8.15 2.65 7.4 3.1 7.2 4.05 7.25 4.95 7.4 5.15 7.9 5.35 8.85 M6.55 14.9 L6.6 14.7 6.55 14.7 5.25 15.05 4.4 15.15 Q4.1 15.15 3.8 14.0 L3.7 13.5 3.5 12.6 Q3.5 12.2 4.75 12.1 L4.9 12.1 5.45 12.1 6.45 11.95 6.75 12.5 7.45 14.35 6.85 14.7 6.55 14.9 M0.7 16.95 L-1.2 17.05 Q-2.4 17.05 -3.05 14.5 L-3.45 12.35 -1.3 12.0 Q-1.6 12.5 -1.6 13.5 -1.6 14.9 -0.6 16.0 L0.7 16.95 M7.1 19.95 L5.75 20.45 5.6 20.4 5.2 18.55 7.05 17.85 7.1 17.8 7.25 17.8 7.75 19.45 7.55 19.6 7.1 19.95 M3.05 22.7 L1.9 22.7 Q0.8 22.7 0.05 20.0 L-0.45 18.45 -0.6 18.1 0.35 18.1 0.95 18.05 Q0.8 18.45 0.8 18.9 0.8 20.35 2.05 21.75 L3.05 22.7" fill="#ffffff" fill-rule="evenodd" stroke="none"/>
    <path d="M8.7 -0.7 L12.3 -1.75 Q15.05 -2.6 16.25 -1.25 17.45 0.1 18.25 1.75 19.0 3.35 20.85 5.55 L19.75 3.25 Q20.7 4.2 22.05 7.4 23.3 10.55 23.3 11.45 23.3 12.85 22.6 14.45 L21.85 15.95 22.25 14.45 Q21.4 14.7 20.25 15.4 16.25 17.8 15.1 18.1 L11.05 18.9 8.85 19.45 8.7 18.55 8.2 16.6 Q10.9 15.75 12.55 14.8 L12.7 15.4 Q16.2 14.25 18.05 12.15 L18.6 11.45 Q19.35 10.25 19.35 9.3 L19.2 8.65 18.85 8.35 18.75 8.25 18.8 8.25 21.2 8.25 21.6 8.25 22.15 7.75 19.25 7.55 19.2 7.55 18.35 7.65 Q16.85 7.7 15.7 6.95 L14.75 6.0 14.65 5.85 13.2 2.05 12.05 0.45 11.35 0.6 Q11.55 1.55 12.25 3.05 L12.7 3.95 Q13.6 5.85 13.65 7.65 12.0 11.85 10.65 11.15 L11.05 10.15 11.3 8.95 12.25 8.75 12.45 8.25 Q12.45 7.65 11.6 6.3 L11.3 5.85 11.2 5.65 11.0 4.65 10.55 3.3 Q9.9 -0.5 8.7 -0.7 M-3.45 6.4 L-3.4 6.55 0.05 6.4 2.35 5.9 Q3.1 5.65 3.7 5.9 L4.55 6.6 3.0 6.5 Q1.75 6.5 1.75 6.95 2.3 9.1 2.8 9.65 L3.15 9.9 Q4.3 9.85 4.7 9.45 L4.9 9.1 5.35 8.85 Q5.35 9.55 4.9 10.0 4.3 10.45 3.15 10.5 L-0.4 10.8 -1.55 10.95 -1.6 10.95 -3.0 10.15 Q-4.0 9.3 -4.0 8.2 -4.0 7.1 -3.7 6.7 L-3.45 6.4 M7.45 14.35 L7.5 14.75 7.5 14.95 6.45 15.65 4.55 16.2 2.9 16.65 2.45 16.7 0.8 16.95 0.7 16.95 -0.6 16.0 Q-1.6 14.9 -1.6 13.5 -1.6 12.5 -1.3 12.0 L-1.15 11.95 1.65 11.4 5.1 10.8 5.85 10.8 5.9 10.8 6.05 11.0 5.65 11.05 5.2 11.15 3.7 11.5 2.6 12.2 Q2.6 12.85 3.1 14.1 L3.1 14.2 Q3.75 15.9 4.5 15.9 L5.85 15.5 6.35 15.2 6.55 14.9 6.85 14.7 7.45 14.35 M7.75 19.45 L7.8 20.15 7.8 20.3 7.8 20.45 Q7.7 21.05 6.75 21.7 5.45 22.5 3.1 22.7 L3.05 22.7 2.05 21.75 Q0.8 20.35 0.8 18.9 0.8 18.45 0.95 18.05 L1.25 18.05 6.0 17.3 5.55 17.5 4.4 18.25 4.8 19.95 Q5.35 21.55 5.75 21.55 L7.3 20.0 7.1 19.95 7.55 19.6 7.75 19.45" fill="#dbb9b9" fill-rule="evenodd" stroke="none"/>
  </g>
</svg>