<?xml version="1.0" encoding="UTF-8" standalone="no"?>
<svg xmlns:xlink="http://www.w3.org/1999/xlink" height="22.1px" width="14.4px" xmlns="http://www.w3.org/2000/svg">
  <g transform="matrix(1.0, 0.0, 0.0, 1.0, 0.3, -0.3)">
    <path d="M11.25 5.25 L11.2 5.3 10.55 6.2 8.15 3.25 8.05 3.15 8.15 5.15 9.15 6.1 5.4 4.9 3.3 3.9 3.2 3.95 3.85 5.45 5.25 8.7 5.6 10.05 5.65 10.25 5.65 10.75 5.1 11.3 3.15 11.7 2.65 11.75 6.35 13.6 6.3 13.8 4.9 16.4 9.2 14.05 10.65 14.65 9.65 15.3 Q6.55 16.5 4.2 18.65 L1.4 21.05 1.15 21.4 2.55 16.85 4.1 14.4 4.3 14.1 4.4 14.05 0.7 11.45 0.8 10.7 4.35 10.05 1.55 3.5 1.35 2.1 2.35 1.8 3.1 2.0 6.25 3.5 7.35 4.45 7.3 1.3 9.15 3.35 Q10.55 4.9 11.25 5.25" fill="#b47777" fill-rule="evenodd" stroke="none"/>
    <path d="M3.15 11.7 L4.8 11.85 6.35 12.0 8.0 11.9 7.35 12.5 Q7.5 13.2 9.0 13.95 L9.2 14.05 4.9 16.4 6.3 13.8 6.35 13.6 2.65 11.75 3.15 11.7" fill="#ffffff" fill-rule="evenodd" stroke="none"/>
    <path d="M10.55 6.2 L10.4 6.5 Q9.3 5.65 8.15 3.25 L10.55 6.2" fill="#f1e7e7" fill-rule="evenodd" stroke="none"/>
    <path d="M11.25 5.25 L11.6 5.35 11.85 5.35 12.0 6.3 10.65 6.35 10.55 6.2 11.2 5.3 11.25 5.25 M12.95 13.5 L13.1 14.4 12.3 14.55 Q10.9 14.85 9.65 15.3 L10.65 14.65 9.2 14.05 9.6 13.85 9.85 13.65 12.95 13.5" fill="#b47777" fill-opacity="0.47843137" fill-rule="evenodd" stroke="none"/>
    <path d="M10.55 6.2 L10.65 6.35 12.0 6.3 12.1 7.0 10.8 6.8 10.4 6.5 10.55 6.2 M12.65 11.0 L12.95 13.5 9.85 13.65 9.6 13.85 9.2 14.05 9.0 13.95 Q7.5 13.2 7.35 12.5 L8.0 11.9 10.35 11.35 12.65 11.0" fill="#e2cfcf" fill-opacity="0.4" fill-rule="evenodd" stroke="none"/>
    <path d="M12.1 7.0 L12.65 11.0 10.35 11.35 8.0 11.9 9.65 10.4 Q10.6 9.75 11.35 9.85 L11.45 9.7 10.45 9.25 11.0 8.5 11.45 7.85 10.85 7.5 10.2 7.15 10.4 6.5 10.8 6.8 12.1 7.0" fill="#c9a5a5" fill-opacity="0.4" fill-rule="evenodd" stroke="none"/>
    <path d="M10.4 6.5 L10.2 7.15 10.85 7.5 11.45 7.85 11.0 8.5 10.45 9.25 11.45 9.7 11.35 9.85 Q10.6 9.75 9.65 10.4 L8.0 11.9 6.35 12.0 4.8 11.85 3.15 11.7 5.1 11.3 5.65 10.75 5.65 10.25 5.6 10.05 5.25 8.7 3.85 5.45 3.2 3.95 3.3 3.9 5.4 4.9 9.15 6.1 8.15 5.15 8.05 3.15 8.15 3.25 Q9.3 5.65 10.4 6.5" fill="url(#gradient0)" fill-rule="evenodd" stroke="none"/>
  </g>
  <defs>
    <radialGradient cx="0" cy="0" gradientTransform="matrix(0.0433, -0.0059, -0.0059, -0.0433, 44.9, -50.3)" gradientUnits="userSpaceOnUse" id="gradient0" r="819.2" spreadMethod="pad">
      <stop offset="0.0" stop-color="#b98a8a"></stop>
      <stop offset="1.0" stop-color="#cca9a9"></stop>
    </radialGradient>
  </defs>
</svg>