<?xml version="1.0" encoding="UTF-8" standalone="no"?>
<svg xmlns:xlink="http://www.w3.org/1999/xlink" height="27px" width="28px" xmlns="http://www.w3.org/2000/svg">
  <g transform="matrix(1.0, 0.0, 0.0, 1.0, -0.25, -1.35)">
    <path d="M23.6 11.35 L24.4 12.45 25.05 15.3 25.4 15.55 Q26.8 16.95 27.15 18.05 27.75 19.7 23.95 22.9 20.95 25.55 18.35 26.65 L17.25 27.2 14.35 27.25 13.1 27.05 12.0 26.6 Q10.85 26.15 10.45 25.15 L10.05 23.85 9.95 24.05 8.95 24.7 7.2 25.4 4.7 25.45 Q3.65 25.2 2.85 24.65 1.95 23.9 1.45 22.65 0.7 20.25 3.05 17.6 L4.05 16.7 5.65 15.45 5.8 15.45 Q6.95 15.65 7.7 16.2 L7.6 15.75 7.2 14.25 Q6.85 11.9 8.3 10.35 9.3 9.25 10.65 8.9 11.25 8.65 11.8 8.55 L11.05 8.2 Q9.8 7.75 9.25 6.65 L9.15 6.3 8.95 5.75 8.95 5.65 8.9 5.2 Q8.9 4.45 9.3 3.85 L9.6 3.45 9.65 3.4 Q10.25 2.7 11.05 2.45 12.55 1.95 13.8 3.85 15.1 6.0 17.4 6.1 19.05 6.2 20.6 8.35 L21.2 8.95 22.45 10.25 23.6 11.35 M13.8 26.35 L14.1 26.4 Q15.8 26.65 16.55 26.4 L17.0 26.3 18.5 25.8 21.4 24.15 24.85 21.25 Q26.2 19.95 26.15 18.6 L26.0 17.9 25.05 16.4 24.1 15.5 23.95 15.4 22.75 14.7 Q22.7 14.55 22.8 14.4 L23.8 14.4 23.9 14.45 23.95 14.55 23.55 12.8 22.2 11.45 20.3 9.45 Q18.45 6.8 17.5 6.95 15.55 7.05 13.8 5.05 12.2 3.1 11.5 3.35 L10.85 3.65 10.5 3.9 Q9.5 4.85 10.0 6.25 10.2 6.8 11.4 7.25 L12.7 8.1 13.05 8.35 13.1 8.4 13.15 8.4 13.15 8.45 13.9 8.45 Q16.6 8.85 17.5 11.65 18.0 13.15 17.35 13.85 L17.2 13.9 18.25 15.15 18.95 15.85 Q19.6 14.8 20.6 14.5 L21.35 14.4 21.45 14.4 21.75 14.4 21.8 14.4 Q22.0 14.4 22.1 14.55 L22.0 15.1 Q20.7 15.05 19.75 16.45 L19.65 16.55 19.3 17.2 Q18.85 18.25 18.6 19.75 L19.4 21.55 19.35 22.25 18.95 23.0 17.25 24.45 15.3 25.8 14.15 25.9 13.7 25.65 13.9 25.65 14.35 25.6 15.7 24.7 17.25 23.2 Q16.15 23.55 15.5 22.8 L14.95 21.85 Q14.7 21.1 14.85 20.55 15.1 19.6 16.4 19.15 L16.7 19.15 Q16.55 19.15 16.55 18.9 L15.05 18.8 Q13.6 18.95 13.3 19.4 L12.95 19.85 12.85 19.75 Q10.55 20.85 11.55 24.75 L12.2 25.65 Q12.8 26.1 13.8 26.35 M13.0 14.1 L14.9 13.75 16.95 12.9 16.85 12.5 16.75 12.75 14.5 12.7 Q13.7 12.5 13.5 11.9 L13.3 10.9 Q13.2 10.15 13.45 10.1 L14.25 10.0 15.4 9.9 Q14.75 9.45 13.75 9.35 L13.5 9.35 11.55 9.55 11.05 9.7 10.45 9.9 Q8.95 10.5 8.4 11.55 7.75 12.7 8.15 14.55 L8.5 15.85 9.45 17.6 9.5 17.65 10.35 17.7 12.15 15.45 9.7 15.25 9.65 14.9 9.75 14.85 9.75 14.75 13.0 14.1 M14.2 10.8 L14.3 11.8 14.7 11.9 16.7 12.05 16.55 11.45 16.45 11.15 14.65 10.8 14.2 10.8 M3.45 23.85 L4.5 24.45 6.4 24.75 8.15 23.95 Q9.7 23.2 9.9 22.85 L11.25 19.45 11.4 19.4 Q11.6 19.1 12.15 18.75 L12.2 18.7 Q12.6 18.25 12.45 17.85 L12.1 17.1 Q11.85 17.2 10.95 18.6 L10.05 19.8 9.55 20.55 9.7 20.95 Q9.85 21.55 9.35 22.7 L9.15 22.65 9.3 22.05 9.3 20.95 9.3 21.0 Q9.2 21.7 8.5 22.5 7.6 23.7 6.85 23.8 L6.5 23.85 6.45 23.55 7.3 23.0 8.1 22.25 8.45 21.2 Q8.2 21.3 8.5 20.3 L8.8 19.25 Q8.1 17.45 6.35 16.7 5.85 17.7 6.1 18.4 L7.25 20.25 Q6.3 21.15 5.6 21.45 L4.8 21.55 4.4 21.45 Q3.6 21.15 3.15 20.05 2.8 18.95 4.2 17.45 1.2 19.05 2.25 22.3 2.6 23.2 3.45 23.85 M5.4 18.45 L5.15 17.75 5.1 17.8 4.35 18.9 Q3.9 19.5 4.1 20.05 L4.7 20.55 5.05 20.7 5.3 20.65 Q5.8 20.5 6.25 19.85 L5.4 18.45 M16.6 14.25 L15.9 14.5 13.7 15.1 13.7 15.25 13.05 16.75 12.95 16.9 13.25 17.45 13.4 17.95 14.5 17.75 15.6 17.75 16.15 17.75 Q17.15 17.9 17.85 18.85 L18.05 19.0 18.1 18.3 18.45 16.8 Q17.8 16.45 17.2 15.45 L16.6 14.25 M18.2 21.35 L18.3 21.25 18.3 21.2 17.8 20.05 17.55 20.1 16.3 20.4 15.85 20.9 Q15.75 21.1 15.8 21.35 L15.9 21.7 Q15.95 22.05 16.95 22.25 L17.1 22.3 17.75 22.2 17.95 22.0 18.2 21.35" fill="#a36a6a" fill-rule="evenodd" stroke="none"/>
    <path d="M10.85 3.65 L11.5 3.35 Q12.2 3.1 13.8 5.05 15.55 7.05 17.5 6.95 18.45 6.8 20.3 9.45 L22.2 11.45 23.55 12.8 23.95 14.55 23.9 14.45 23.8 14.4 22.8 14.4 Q22.7 14.55 22.75 14.7 L23.95 15.4 24.1 15.5 25.05 16.4 26.0 17.9 26.15 18.6 Q26.2 19.95 24.85 21.25 L21.4 24.15 18.5 25.8 17.0 26.3 16.55 26.4 Q15.8 26.65 14.1 26.4 L13.8 26.35 14.0 26.1 14.15 25.9 15.3 25.8 17.25 24.45 18.95 23.0 19.35 22.25 19.4 21.55 18.6 19.75 Q18.85 18.25 19.3 17.2 L19.65 16.55 19.75 16.45 Q20.7 15.05 22.0 15.1 L22.1 14.55 Q22.0 14.4 21.8 14.4 L21.75 14.4 21.45 14.4 21.35 14.4 20.6 14.5 Q19.6 14.8 18.95 15.85 L18.25 15.15 17.2 13.9 17.35 13.85 Q18.0 13.15 17.5 11.65 16.6 8.85 13.9 8.45 L13.15 8.45 13.15 8.4 13.1 8.4 13.05 8.35 12.7 8.1 12.85 8.05 13.25 7.9 13.15 7.2 Q12.95 6.1 11.85 4.7 L10.85 3.65 M12.95 19.85 L13.3 19.4 Q13.6 18.95 15.05 18.8 L16.55 18.9 Q16.55 19.15 16.7 19.15 L16.4 19.15 Q15.1 19.6 14.85 20.55 14.7 21.1 14.95 21.85 L15.5 22.8 Q16.15 23.55 17.25 23.2 L15.7 24.7 14.35 25.6 Q15.05 24.4 14.95 23.0 L14.85 22.3 14.2 20.8 13.75 20.5 12.95 19.85 M10.45 9.9 L11.05 9.7 11.55 9.55 13.5 9.35 13.75 9.35 Q14.75 9.45 15.4 9.9 L14.25 10.0 13.45 10.1 Q13.2 10.15 13.3 10.9 L13.5 11.9 Q13.7 12.5 14.5 12.7 L16.75 12.75 16.85 12.5 16.95 12.9 14.9 13.75 13.0 14.1 13.7 13.6 12.05 13.6 Q9.95 13.45 9.7 12.15 9.55 11.35 10.2 10.3 L10.45 9.9 M9.75 14.85 L9.65 14.9 9.7 15.25 12.15 15.45 10.35 17.7 9.5 17.65 9.45 17.6 8.5 15.85 8.15 14.55 8.35 14.65 9.75 14.85 M4.8 21.55 L5.6 21.45 Q6.3 21.15 7.25 20.25 L6.1 18.4 Q5.85 17.7 6.35 16.7 8.1 17.45 8.8 19.25 L8.5 20.3 Q8.2 21.3 8.45 21.2 L8.1 22.25 7.3 23.0 6.45 23.55 6.5 23.85 6.85 23.8 Q7.6 23.7 8.5 22.5 9.2 21.7 9.3 21.0 L9.3 20.95 9.3 22.05 9.15 22.65 9.35 22.7 Q9.85 21.55 9.7 20.95 L9.55 20.55 10.05 19.8 10.95 18.6 Q11.85 17.2 12.1 17.1 L12.45 17.85 Q12.6 18.25 12.2 18.7 L12.15 18.75 Q11.6 19.1 11.4 19.4 L11.25 19.45 9.9 22.85 Q9.7 23.2 8.15 23.95 L6.4 24.75 4.5 24.45 3.45 23.85 4.2 22.65 4.8 21.55 M16.6 14.25 L17.2 15.45 Q17.8 16.45 18.45 16.8 L18.1 18.3 18.05 19.0 17.85 18.85 Q17.15 17.9 16.15 17.75 L15.6 17.75 14.5 17.75 13.4 17.95 13.25 17.45 12.95 16.9 13.05 16.75 13.7 15.25 13.7 15.1 15.9 14.5 16.6 14.25" fill="#dbb9b9" fill-rule="evenodd" stroke="none"/>
    <path d="M10.85 3.65 L11.85 4.7 Q12.95 6.1 13.15 7.2 L13.25 7.9 12.85 8.05 12.7 8.1 11.4 7.25 Q10.2 6.8 10.0 6.25 9.5 4.85 10.5 3.9 L10.85 3.65 M14.15 25.9 L14.0 26.1 13.8 26.35 Q12.8 26.1 12.2 25.65 L11.55 24.75 Q10.55 20.85 12.85 19.75 L12.95 19.85 13.75 20.5 14.2 20.8 14.85 22.3 14.95 23.0 Q15.05 24.4 14.35 25.6 L13.9 25.65 13.7 25.65 14.15 25.9 M13.0 14.1 L9.75 14.75 9.75 14.85 8.35 14.65 8.15 14.55 Q7.75 12.7 8.4 11.55 8.95 10.5 10.45 9.9 L10.2 10.3 Q9.55 11.35 9.7 12.15 9.95 13.45 12.05 13.6 L13.7 13.6 13.0 14.1 M14.2 10.8 L14.65 10.8 16.45 11.15 16.55 11.45 16.7 12.05 14.7 11.9 14.3 11.8 14.2 10.8 M3.45 23.85 Q2.6 23.2 2.25 22.3 1.2 19.05 4.2 17.45 2.8 18.95 3.15 20.05 3.6 21.15 4.4 21.45 L4.8 21.55 4.2 22.65 3.45 23.85 M5.4 18.45 L6.25 19.85 Q5.8 20.5 5.3 20.65 L5.05 20.7 4.7 20.55 4.1 20.05 Q3.9 19.5 4.35 18.9 L5.1 17.8 5.15 17.75 5.4 18.45 M18.2 21.35 L17.95 22.0 17.75 22.2 17.1 22.3 16.95 22.25 Q15.95 22.05 15.9 21.7 L15.8 21.35 Q15.75 21.1 15.85 20.9 L16.3 20.4 17.55 20.1 17.8 20.05 18.3 21.2 18.3 21.25 18.2 21.35" fill="#ffffff" fill-rule="evenodd" stroke="none"/>
  </g>
</svg>