<?xml version="1.0" encoding="UTF-8" standalone="no"?>
<svg xmlns:xlink="http://www.w3.org/1999/xlink" height="11.35px" width="12.35px" xmlns="http://www.w3.org/2000/svg">
  <g transform="matrix(1.0, 0.0, 0.0, 1.0, 6.35, 5.7)">
    <path d="M-2.6 0.2 L-2.6 0.0 -2.55 0.0 -2.6 0.2" fill="#faf8f8" fill-rule="evenodd" stroke="none"/>
    <path d="M-4.6 0.15 L-5.2 0.9 -5.35 -0.3 Q-5.35 -1.95 -4.8 -3.05 L-4.3 -3.9 -4.0 -4.15 -4.05 -3.9 -3.7 -1.7 Q-3.45 -0.75 -3.0 -0.1 L-3.65 -0.2 -3.9 -0.15 -4.3 -0.05 -4.6 0.15 M-1.15 -4.5 L-0.25 -4.2 Q0.7 -3.05 0.95 -1.3 L1.2 0.9 -0.8 0.0 Q-2.3 -0.55 -2.55 0.0 L-2.6 0.0 -2.6 -0.15 -2.3 -1.75 -1.15 -4.5" fill="#f6e4d4" fill-rule="evenodd" stroke="none"/>
    <path d="M-0.9 0.55 L-1.2 1.4 Q-1.6 2.4 -1.9 2.4 L-2.85 1.75 -3.1 0.55 -3.05 0.15 -2.85 0.05 -2.6 0.25 -2.6 0.2 -2.55 0.0 -2.2 -0.05 Q-1.5 -0.05 -0.9 0.55" fill="#d69c9c" fill-rule="evenodd" stroke="none"/>
    <path d="M1.4 -3.7 L1.5 -3.65 1.55 -3.65 2.9 -3.0 Q3.7 -2.5 4.0 -1.5 L4.35 -0.3 4.75 1.4 4.95 2.55 4.45 2.55 Q3.35 2.55 2.55 1.6 1.6 0.55 1.4 -1.5 L1.4 -3.7 M-0.8 0.0 L-0.9 0.55 Q-1.5 -0.05 -2.2 -0.05 L-2.55 0.0 Q-2.3 -0.55 -0.8 0.0 M-2.85 1.75 L-4.0 -0.15 -4.3 -0.05 -3.9 -0.15 -3.65 -0.2 -3.0 -0.1 -2.85 0.05 -3.05 0.15 -3.1 0.55 -2.85 1.75" fill="#aa5f5f" fill-rule="evenodd" stroke="none"/>
    <path d="M1.4 -3.7 L1.4 -1.5 Q1.6 0.55 2.55 1.6 3.35 2.55 4.45 2.55 L4.95 2.55 5.0 3.25 Q4.55 4.1 3.75 4.45 L3.7 4.45 1.1 4.55 -0.8 3.8 -2.35 3.05 -3.35 2.2 -4.25 1.1 -4.6 0.15 -4.3 -0.05 -4.0 -0.15 -2.85 1.75 -1.9 2.4 Q-1.6 2.4 -1.2 1.4 L-0.9 0.55 -0.8 0.0 1.2 0.9 0.95 -1.3 Q0.7 -3.05 -0.25 -4.2 L-0.05 -4.1 1.4 -3.7 M2.4 2.35 Q1.5 1.8 0.4 2.1 L-0.35 2.5 -0.95 3.05 -0.05 3.8 Q0.65 4.2 1.6 4.2 2.2 4.2 3.25 3.35 2.9 2.65 2.4 2.35" fill="#4a3523" fill-rule="evenodd" stroke="none"/>
    <path d="M-3.8 -4.35 L-3.7 -4.45 -2.75 -4.7 -1.55 -4.6 -1.2 -4.5 -1.15 -4.5 -2.3 -1.75 -2.6 -0.15 -2.6 0.0 -2.6 0.2 -2.6 0.25 -2.85 0.05 -3.0 -0.1 Q-3.45 -0.75 -3.7 -1.7 L-4.05 -3.9 -4.0 -4.15 -3.8 -4.35" fill="#9b7947" fill-rule="evenodd" stroke="none"/>
    <path d="M2.4 2.35 Q2.9 2.65 3.25 3.35 2.2 4.2 1.6 4.2 0.65 4.2 -0.05 3.8 L-0.95 3.05 -0.35 2.5 0.4 2.1 Q1.5 1.8 2.4 2.35" fill="#7b593c" fill-rule="evenodd" stroke="none"/>
    <path d="M4.95 2.55 L4.75 1.4 4.35 -0.3 4.0 -1.5 Q3.7 -2.5 2.9 -3.0 L1.55 -3.65 1.5 -3.65 1.4 -3.7 -0.05 -4.1 -0.25 -4.2 Q0.7 -3.05 0.95 -1.3 L1.2 0.9 -0.8 0.0 Q-2.3 -0.55 -2.55 0.0 L-2.6 0.2 -2.6 0.0 -2.6 -0.15 -2.3 -1.75 -1.15 -4.5 -0.25 -4.2 M4.95 2.55 L5.0 3.25 Q4.55 4.1 3.75 4.45 L3.7 4.45 1.1 4.55 -0.8 3.8 -2.35 3.05 -3.35 2.2 -4.25 1.1 -4.6 0.15 -5.2 0.9 -5.35 -0.3 Q-5.35 -1.95 -4.8 -3.05 L-4.3 -3.9 -3.8 -4.35 -3.7 -4.45 -2.75 -4.7 -1.55 -4.6 -1.2 -4.5 -1.15 -4.5 M-4.3 -0.05 L-4.6 0.15 M-4.3 -3.9 L-4.0 -4.15 -3.8 -4.35 M-3.0 -0.1 Q-3.45 -0.75 -3.7 -1.7 L-4.05 -3.9 -4.0 -4.15 M-4.3 -0.05 L-3.9 -0.15 -3.65 -0.2 -3.0 -0.1 -2.85 0.05 -2.6 0.25 -2.6 0.2" fill="none" stroke="#660000" stroke-linecap="round" stroke-linejoin="round" stroke-opacity="0.4" stroke-width="1"/>
  </g>
</svg>