<?xml version="1.0" encoding="UTF-8" standalone="no"?>
<svg xmlns:xlink="http://www.w3.org/1999/xlink" height="14.3px" width="12.85px" xmlns="http://www.w3.org/2000/svg">
  <g transform="matrix(1.0, 0.0, 0.0, 1.0, 7.6, 5.2)">
    <path d="M3.25 3.9 L1.75 5.4 Q0.4 6.9 0.35 7.45 L-0.25 6.05 -1.0 8.1 Q-1.3 7.5 -1.65 7.35 L-3.9 6.9 -3.05 6.65 Q-2.3 6.35 -2.0 6.1 L-3.75 6.0 Q-1.95 5.45 -1.5 4.95 -0.55 3.95 -0.5 1.1 -2.15 1.55 -2.75 1.95 L-2.6 1.45 -2.3 0.8 -3.8 1.6 -3.95 1.65 Q-4.15 1.6 -4.15 0.6 -4.15 -0.7 -3.4 -1.6 L-6.6 -0.95 -5.45 -1.9 Q-3.6 -3.45 -2.85 -3.45 L-4.55 -3.65 -3.75 -4.0 -2.7 -4.2 -2.55 -4.05 -2.15 -3.25 Q-2.15 -2.7 -3.0 -2.3 L-4.25 -1.95 -3.5 -2.05 -2.1 -1.8 Q-1.75 -1.65 -1.45 -1.25 L-2.0 -0.7 -0.5 0.4 0.0 1.0 0.45 1.35 0.8 1.25 1.95 1.65 2.3 2.3 2.2 2.4 2.4 2.35 Q3.15 2.35 3.15 3.35 L3.25 3.9 M-1.0 -4.05 Q0.3 -3.95 1.55 -3.3 4.1 -2.0 4.25 0.7 4.3 1.65 4.0 2.4 L3.9 2.4 Q3.55 2.4 3.1 1.8 L2.65 1.0 Q2.65 0.6 2.85 0.45 L2.55 0.45 2.0 0.7 Q1.5 0.7 0.35 -0.15 L-0.75 -1.15 -0.8 -1.35 -0.2 -1.7 0.25 -1.75 Q-0.55 -1.9 -1.1 -2.45 -1.65 -2.95 -1.65 -3.45 L-1.0 -4.05" fill="#e9dfdf" fill-rule="evenodd" stroke="none"/>
    <path d="M-2.7 -4.2 L-1.0 -4.05 -1.65 -3.45 Q-1.65 -2.95 -1.1 -2.45 -0.55 -1.9 0.25 -1.75 L-0.2 -1.7 -0.8 -1.35 -0.75 -1.15 0.35 -0.15 Q1.5 0.7 2.0 0.7 L2.55 0.45 2.85 0.45 Q2.65 0.6 2.65 1.0 L3.1 1.8 Q3.55 2.4 3.9 2.4 L4.0 2.4 3.25 3.9 3.15 3.35 Q3.15 2.35 2.4 2.35 L2.2 2.4 2.3 2.3 1.95 1.65 0.8 1.25 0.45 1.35 0.0 1.0 -0.5 0.4 -2.0 -0.7 -1.45 -1.25 Q-1.75 -1.65 -2.1 -1.8 L-3.5 -2.05 -4.25 -1.95 -3.0 -2.3 Q-2.15 -2.7 -2.15 -3.25 L-2.55 -4.05 -2.7 -4.2" fill="#ffffff" fill-rule="evenodd" stroke="none"/>
    <path d="M3.25 3.9 L1.75 5.4 Q0.4 6.9 0.35 7.45 L-0.25 6.05 -1.0 8.1 Q-1.3 7.5 -1.65 7.35 L-3.9 6.9 -3.05 6.65 Q-2.3 6.35 -2.0 6.1 L-3.75 6.0 Q-1.95 5.45 -1.5 4.95 -0.55 3.95 -0.5 1.1 -2.15 1.55 -2.75 1.95 L-2.6 1.45 -2.3 0.8 -3.8 1.6 -3.95 1.65 Q-4.15 1.6 -4.15 0.6 -4.15 -0.7 -3.4 -1.6 L-6.6 -0.95 -5.45 -1.9 Q-3.6 -3.45 -2.85 -3.45 L-4.55 -3.65 -3.75 -4.0 -2.7 -4.2 -1.0 -4.05 Q0.3 -3.95 1.55 -3.3 4.1 -2.0 4.25 0.7 4.3 1.65 4.0 2.4 L3.25 3.9 Z" fill="none" stroke="#5c4a4a" stroke-linecap="round" stroke-linejoin="round" stroke-width="1"/>
  </g>
</svg>