<?xml version="1.0" encoding="UTF-8" standalone="no"?>
<svg xmlns:xlink="http://www.w3.org/1999/xlink" height="10.3px" width="5px" xmlns="http://www.w3.org/2000/svg">
  <g transform="matrix(1.0, 0.0, 0.0, 1.0, 2.5, 5.15)">
    <path d="M1.45 -3.45 L1.5 -2.35 1.5 0.75 1.4 3.5 0.6 4.05 -0.15 4.1 -0.05 2.45 0.0 0.9 0.0 0.6 0.2 -1.75 0.15 -4.1 0.5 -4.1 1.45 -3.45" fill="#aa5f5f" fill-rule="evenodd" stroke="none"/>
    <path d="M0.15 -4.1 L0.2 -1.75 0.0 0.6 0.0 0.9 -0.05 2.45 -0.15 4.1 -0.7 4.15 -1.5 3.5 -1.15 -2.9 -0.85 -3.45 0.15 -4.1" fill="#803d3d" fill-rule="evenodd" stroke="none"/>
    <path d="M1.4 3.5 L1.5 0.75 1.5 -2.35 1.45 -3.45 M-1.5 3.5 L-1.15 -2.9" fill="none" stroke="#660000" stroke-linecap="round" stroke-linejoin="round" stroke-opacity="0.4" stroke-width="1"/>
  </g>
</svg>