<?xml version="1.0" encoding="UTF-8" standalone="no"?>
<svg xmlns:xlink="http://www.w3.org/1999/xlink" height="18.55px" width="21.25px" xmlns="http://www.w3.org/2000/svg">
  <g id="shape0" transform="matrix(1.0, 0.0, 0.0, 1.0, 10.35, 10.15)">
    <path d="M9.45 -3.35 L9.5 -3.15 9.45 -2.9 9.3 -2.65 9.15 -2.4 9.45 -2.05 9.75 -1.6 9.75 -1.1 9.55 -0.9 Q9.3 -0.65 9.5 -0.4 10.05 0.35 9.85 1.3 L9.7 1.6 9.5 1.85 9.5 1.95 9.6 2.25 9.65 3.1 9.5 3.65 Q9.35 4.2 8.85 4.4 L8.3 4.55 8.25 4.55 8.15 5.15 7.9 5.5 7.45 5.8 6.95 6.0 6.8 6.0 6.65 5.9 6.55 5.8 6.5 5.85 6.45 6.15 6.1 6.6 5.7 6.9 5.05 7.15 Q4.55 7.25 4.15 6.9 L4.05 6.7 4.0 6.65 3.7 6.75 3.35 7.1 1.95 7.4 1.05 7.35 0.75 7.1 0.75 7.0 0.7 7.0 0.55 7.2 0.3 7.35 -0.2 7.35 -0.95 7.3 Q-1.55 7.15 -1.95 6.7 L-2.0 6.6 -2.0 6.55 -2.2 6.65 -2.5 6.7 -2.65 6.5 -2.7 6.15 -4.8 6.3 -5.2 6.1 -5.05 6.1 -4.55 6.0 -4.4 5.95 -4.35 5.9 -4.2 5.9 -4.0 5.95 -3.2 5.8 -2.95 5.5 -2.75 5.2 -2.5 4.6 -2.45 4.55 -2.35 4.75 -1.85 5.15 -1.7 5.3 0.15 5.45 0.45 5.35 0.65 5.1 0.8 4.8 1.0 4.75 1.45 4.5 1.65 4.15 Q1.85 3.7 1.55 3.35 L1.65 3.55 Q1.3 4.2 0.6 4.2 L0.35 4.1 0.3 3.9 Q0.3 3.65 0.75 3.15 1.25 2.5 1.75 2.35 L1.9 2.7 1.75 3.35 2.1 3.4 2.9 3.45 Q3.35 3.45 3.65 3.25 L4.05 2.8 4.35 1.65 4.55 1.7 4.95 1.8 5.55 1.8 5.95 1.6 6.15 1.4 6.25 0.75 6.25 0.7 7.25 0.9 8.05 0.7 8.55 0.4 Q9.15 -0.35 8.9 -1.35 L8.7 -1.85 8.5 -2.25 8.45 -2.35 Q9.05 -2.3 9.3 -2.9 L9.45 -3.35 M5.75 -0.05 Q5.55 -0.05 5.45 -0.2 L5.4 -0.35 Q7.3 -3.4 7.3 -1.35 7.3 -1.2 5.75 -0.05 M3.45 0.95 L3.2 0.9 Q3.2 0.0 3.9 -0.05 L4.0 0.15 3.45 0.95 M0.4 1.7 L0.2 1.65 0.15 1.45 0.4 0.65 0.8 -0.1 1.05 1.15 Q1.05 1.7 0.4 1.7 M-1.6 3.35 L-1.55 3.45 -1.8 3.75 -2.1 3.85 -2.35 3.8 -2.4 3.6 Q-2.05 3.2 -1.6 3.35" fill="#d6baba" fill-rule="evenodd" stroke="none"/>
    <path d="M-5.2 6.1 Q-5.4 6.05 -5.55 5.95 L-5.85 5.75 -6.1 5.55 -6.15 5.0 -6.1 4.8 -6.65 4.8 -7.2 4.7 -7.85 4.4 -8.25 4.0 -8.25 3.9 -8.35 3.75 -8.5 2.7 -8.55 2.55 -8.7 2.35 -9.0 2.1 -9.3 1.55 -9.35 1.15 -9.2 0.75 -8.9 0.5 -8.6 0.35 -8.4 0.3 Q-8.9 -0.45 -8.75 -1.4 -8.7 -1.95 -8.1 -2.1 L-7.7 -2.15 -7.55 -2.2 -7.5 -2.25 Q-7.6 -3.2 -7.0 -3.95 L-6.6 -4.35 -6.1 -4.5 -5.75 -4.55 -5.55 -4.6 -5.55 -4.65 -5.3 -5.45 -4.75 -6.1 -4.2 -6.6 -3.45 -6.65 Q-3.35 -6.65 -3.35 -6.7 L-3.0 -7.2 -2.65 -7.65 -2.2 -8.0 -1.7 -8.15 -0.8 -8.05 -0.55 -8.0 -0.5 -8.05 -0.15 -8.7 0.0 -8.85 0.45 -8.9 0.6 -8.85 0.95 -8.75 1.0 -8.8 1.95 -9.1 2.35 -9.15 2.85 -8.9 3.05 -8.75 3.2 -8.7 3.3 -8.75 4.0 -8.9 5.15 -8.8 5.35 -8.7 5.8 -8.05 5.9 -8.05 6.3 -8.05 6.65 -8.0 Q7.35 -7.9 7.85 -7.35 L8.2 -6.75 8.2 -6.7 8.2 -6.45 8.65 -5.5 Q8.7 -5.2 8.4 -5.0 L8.25 -4.85 8.05 -4.8 Q8.5 -4.8 8.75 -4.45 L9.0 -4.15 9.2 -3.75 9.45 -3.35 9.3 -2.9 Q9.05 -2.3 8.45 -2.35 L8.5 -2.25 8.7 -1.85 8.9 -1.35 Q9.15 -0.35 8.55 0.4 L8.05 0.7 7.25 0.9 6.25 0.7 6.25 0.75 6.15 1.4 5.95 1.6 5.55 1.8 4.95 1.8 4.55 1.7 4.35 1.65 4.05 2.8 3.65 3.25 Q3.35 3.45 2.9 3.45 L2.1 3.4 1.75 3.35 1.9 2.7 1.75 2.35 Q1.25 2.5 0.75 3.15 0.3 3.65 0.3 3.9 L0.35 4.1 0.6 4.2 Q1.3 4.2 1.65 3.55 L1.55 3.35 Q1.85 3.7 1.65 4.15 L1.45 4.5 1.0 4.75 0.8 4.8 0.65 5.1 0.45 5.35 0.15 5.45 -1.7 5.3 -1.85 5.15 -2.35 4.75 -2.45 4.55 -2.5 4.6 -2.75 5.2 -2.95 5.5 -3.2 5.8 -4.0 5.95 -4.2 5.9 -4.35 5.9 -4.4 5.95 -4.55 6.0 -5.05 6.1 -5.2 6.1 M-1.6 3.35 Q-2.05 3.2 -2.4 3.6 L-2.35 3.8 -2.1 3.85 -1.8 3.75 -1.55 3.45 -1.6 3.35 M0.4 1.7 Q1.05 1.7 1.05 1.15 L0.8 -0.1 0.4 0.65 0.15 1.45 0.2 1.65 0.4 1.7 M3.45 0.95 L4.0 0.15 3.9 -0.05 Q3.2 0.0 3.2 0.9 L3.45 0.95 M5.75 -0.05 Q7.3 -1.2 7.3 -1.35 7.3 -3.4 5.4 -0.35 L5.45 -0.2 Q5.55 -0.05 5.75 -0.05" fill="#faf8f8" fill-rule="evenodd" stroke="none"/>
    <path d="M-5.2 6.1 Q-5.4 6.05 -5.55 5.95 L-5.85 5.75 -6.1 5.55 -6.15 5.0 -6.1 4.8 -6.65 4.8 -7.2 4.7 -7.85 4.4 -8.25 4.0 -8.25 3.9 -8.35 3.75 -8.5 2.7 -8.55 2.55 -8.7 2.35 -9.0 2.1 -9.3 1.55 -9.35 1.15 -9.2 0.75 -8.9 0.5 -8.6 0.35 -8.4 0.3 Q-8.9 -0.45 -8.75 -1.4 -8.7 -1.95 -8.1 -2.1 L-7.7 -2.15 -7.55 -2.2 -7.5 -2.25 Q-7.6 -3.2 -7.0 -3.95 L-6.6 -4.35 -6.1 -4.5 -5.75 -4.55 -5.55 -4.6 -5.55 -4.65 -5.3 -5.45 -4.75 -6.1 -4.2 -6.6 -3.45 -6.65 Q-3.35 -6.65 -3.35 -6.7 L-3.0 -7.2 -2.65 -7.65 -2.2 -8.0 -1.7 -8.15 -0.8 -8.05 -0.55 -8.0 -0.5 -8.05 -0.15 -8.7 0.0 -8.85 0.45 -8.9 0.6 -8.85 0.95 -8.75 1.0 -8.8 1.95 -9.1 2.35 -9.15 2.85 -8.9 3.05 -8.75 3.2 -8.7 3.3 -8.75 4.0 -8.9 5.15 -8.8 5.35 -8.7 5.8 -8.05 5.9 -8.05 6.3 -8.05 6.65 -8.0 Q7.35 -7.9 7.85 -7.35 L8.2 -6.75 8.2 -6.7 8.2 -6.45 8.65 -5.5 Q8.7 -5.2 8.4 -5.0 L8.25 -4.85 8.05 -4.8 Q8.5 -4.8 8.75 -4.45 L9.0 -4.15 9.2 -3.75 9.45 -3.35 9.5 -3.15 9.45 -2.9 9.3 -2.65 9.15 -2.4 9.45 -2.05 9.75 -1.6 9.75 -1.1 9.55 -0.9 Q9.3 -0.65 9.5 -0.4 10.05 0.35 9.85 1.3 L9.7 1.6 9.5 1.85 9.5 1.95 9.6 2.25 9.65 3.1 9.5 3.65 Q9.35 4.2 8.85 4.4 L8.3 4.55 8.25 4.55 8.15 5.15 7.9 5.5 7.45 5.8 6.95 6.0 6.8 6.0 6.65 5.9 6.55 5.8 6.5 5.85 6.45 6.15 6.1 6.6 5.7 6.9 5.05 7.15 Q4.55 7.25 4.15 6.9 L4.05 6.7 4.0 6.65 3.7 6.75 3.35 7.1 1.95 7.4 1.05 7.35 0.75 7.1 0.75 7.0 0.7 7.0 0.55 7.2 0.3 7.35 -0.2 7.35 -0.95 7.3 Q-1.55 7.15 -1.95 6.7 L-2.0 6.6 -2.0 6.55 -2.2 6.65 -2.5 6.7 -2.65 6.5 -2.7 6.15 -4.8 6.3 -5.2 6.1 Z" fill="none" stroke="#a36a6a" stroke-linecap="round" stroke-linejoin="round" stroke-width="1"/>
  </g>
</svg>