<?xml version="1.0" encoding="UTF-8" standalone="no"?>
<svg xmlns:xlink="http://www.w3.org/1999/xlink" height="19.6px" width="22.4px" xmlns="http://www.w3.org/2000/svg">
  <g id="shape0" transform="matrix(1.0, 0.0, 0.0, 1.0, 11.2, 9.8)">
    <path d="M8.75 -4.95 L8.75 -4.9 8.6 -2.5 8.55 -2.5 Q7.7 -5.0 6.8 -5.3 7.2 -4.9 7.25 -4.3 L7.35 -2.1 7.6 0.85 7.1 -0.9 6.85 -1.6 Q6.1 -3.4 5.35 -4.1 6.05 -1.5 5.85 1.3 L4.95 -0.55 5.0 0.95 4.9 3.1 3.95 0.1 2.95 -1.75 2.95 -0.9 2.9 -0.15 2.45 -1.4 Q0.6 -3.35 -1.55 -4.55 L-4.5 -5.05 -6.4 -4.65 -5.45 -5.65 -3.1 -7.4 -1.0 -8.15 0.9 -8.7 Q2.7 -8.95 4.5 -8.65 L5.95 -8.15 7.65 -7.0 8.75 -4.95 M-8.8 -0.5 L-7.7 -0.7 Q-6.1 -0.7 -4.2 0.15 -3.0 0.65 -2.95 1.55 L-2.85 3.4 -2.8 3.55 -2.6 3.65 -3.0 3.4 Q-3.25 3.1 -5.1 3.1 L-7.5 3.35 -8.85 3.55 -9.45 3.5 Q-9.95 1.95 -9.8 0.55 L-8.85 0.65 -8.8 -0.5 M1.05 -7.35 L4.5 -7.45 1.05 -7.35 M-1.95 -6.25 L-1.3 -6.15 Q0.55 -5.5 1.7 -4.1 0.55 -5.5 -1.3 -6.15 L-1.95 -6.25 M7.3 1.65 L7.35 1.75 7.3 1.75 7.3 1.65 M1.45 3.6 L1.45 3.5 1.5 3.55 1.45 3.6 M-8.3 0.6 L-8.85 0.65 -8.3 0.6" fill="#faf8f8" fill-rule="evenodd" stroke="none"/>
    <path d="M-6.4 -4.65 L-4.5 -5.05 -1.55 -4.55 Q0.6 -3.35 2.45 -1.4 L2.9 -0.15 2.95 -0.9 2.95 -1.75 3.95 0.1 4.9 3.1 5.0 0.95 4.95 -0.55 5.85 1.3 Q6.05 -1.5 5.35 -4.1 6.1 -3.4 6.85 -1.6 L7.1 -0.9 7.6 0.85 7.35 -2.1 7.25 -4.3 Q7.2 -4.9 6.8 -5.3 7.7 -5.0 8.55 -2.5 L8.6 -2.5 8.75 -4.9 8.75 -4.95 9.3 -3.3 9.5 -2.35 9.65 -0.8 9.55 1.0 9.6 3.6 Q9.65 4.55 10.2 5.35 L8.1 4.2 Q8.05 5.75 8.65 7.3 L8.95 8.0 6.4 6.4 6.3 7.05 6.35 7.45 6.45 7.7 6.45 7.8 6.45 7.9 4.7 6.7 Q3.9 6.15 3.4 5.25 L3.35 6.75 Q3.3 7.8 3.85 8.8 L3.0 8.15 Q2.0 7.2 1.25 5.9 0.45 6.2 0.05 7.15 -0.2 7.7 -0.95 7.85 L-1.15 6.1 Q-1.75 6.1 -2.1 6.5 -3.1 7.4 -4.25 7.45 L-4.95 5.9 -5.65 6.25 -7.3 6.7 -6.9 5.5 -8.05 5.1 Q-9.05 4.75 -9.9 4.2 L-10.2 3.9 -9.35 3.8 -9.35 3.7 -9.45 3.5 -8.85 3.55 -7.5 3.35 -5.1 3.1 Q-3.25 3.1 -3.0 3.4 L-2.6 3.65 -2.8 3.55 -2.85 3.4 -2.95 1.55 Q-3.0 0.65 -4.2 0.15 -6.1 -0.7 -7.7 -0.7 L-8.8 -0.5 -8.75 -1.75 -7.2 -3.8 -6.4 -4.65 M7.3 1.65 L7.2 0.45 7.05 -0.45 7.1 -0.9 7.05 -0.45 7.2 0.45 7.3 1.65 7.3 1.75 7.35 1.75 7.3 1.65 M7.3 4.25 L7.3 3.2 7.3 1.75 7.3 3.2 7.3 4.25 M1.45 3.6 L1.5 3.55 1.45 3.5 1.45 3.6" fill="#d6baba" fill-rule="evenodd" stroke="none"/>
    <path d="M5.95 -8.15 L4.5 -8.65 Q2.7 -8.95 0.9 -8.7 L-1.0 -8.15 -3.1 -7.4 -5.45 -5.65 -6.4 -4.65 -7.2 -3.8 -8.75 -1.75 -8.8 -0.5 -8.85 0.65 -8.3 0.6 M-9.35 3.7 L-9.35 3.8 -10.2 3.9 -9.9 4.2 Q-9.05 4.75 -8.05 5.1 L-6.9 5.5 -7.3 6.7 -5.65 6.25 -4.95 5.9 -4.25 7.45 Q-3.1 7.4 -2.1 6.5 -1.75 6.1 -1.15 6.1 L-0.95 7.85 Q-0.2 7.7 0.05 7.15 0.45 6.2 1.25 5.9 2.0 7.2 3.0 8.15 L3.85 8.8 Q3.3 7.8 3.35 6.75 L3.4 5.25 Q3.9 6.15 4.7 6.7 L6.45 7.9 6.45 7.8 6.45 7.7 6.35 7.45 6.3 7.05 6.4 6.4 8.95 8.0 8.65 7.3 Q8.05 5.75 8.1 4.2 L10.2 5.35 M1.7 -4.1 Q0.55 -5.5 -1.3 -6.15 L-1.95 -6.25 M4.5 -7.45 L1.05 -7.35 M7.1 -0.9 L7.05 -0.45 7.2 0.45 7.3 1.65 7.3 1.75 7.3 3.2 7.3 4.25 M-9.45 3.5 Q-9.95 1.95 -9.8 0.55 L-8.85 0.65" fill="none" stroke="#a36a6a" stroke-linecap="round" stroke-linejoin="round" stroke-width="1"/>
    <path d="M7.65 -7.0 L5.95 -8.15" fill="none" stroke="#a36a6a" stroke-linecap="round" stroke-linejoin="round" stroke-opacity="0.29803923" stroke-width="1"/>
    <path d="M10.2 5.35 Q9.65 4.55 9.6 3.6 L9.55 1.0 9.65 -0.8 9.5 -2.35 9.3 -3.3" fill="none" stroke="#a36a6a" stroke-linecap="round" stroke-linejoin="round" stroke-opacity="0.6901961" stroke-width="1"/>
  </g>
</svg>