<?xml version="1.0" encoding="UTF-8" standalone="no"?>
<svg xmlns:xlink="http://www.w3.org/1999/xlink" height="6.5px" width="19.65px" xmlns="http://www.w3.org/2000/svg">
  <g id="shape0" transform="matrix(1.0, 0.0, 0.0, 1.0, 9.8, 3.25)">
    <path d="M7.95 -0.85 L7.9 -0.8 6.6 -0.65 6.5 -0.65 5.95 -0.55 5.85 -0.55 4.9 -0.65 Q5.75 0.2 7.1 0.25 L7.75 0.25 6.3 0.65 Q5.1 0.3 4.2 -0.35 3.65 -0.7 3.95 -1.1 L5.8 -1.3 6.4 -0.95 7.95 -0.85 M3.45 1.65 L2.45 1.1 Q1.15 0.6 1.1 -0.4 L1.25 -0.45 2.5 0.2 2.45 0.25 3.7 0.85 5.0 1.35 5.55 1.5 3.85 1.7 3.65 1.65 3.45 1.65 3.65 1.65 3.45 1.65 M0.4 1.85 L-1.25 1.05 -2.25 0.3 -2.4 0.0 -2.05 0.1 -1.2 0.35 -0.05 1.1 1.15 1.45 0.9 1.8 0.7 1.8 0.4 1.85 M-4.95 0.55 Q-4.2 0.7 -3.65 1.15 L-3.15 1.75 -3.85 1.6 Q-4.7 1.3 -4.95 0.55" fill="#faf8f8" fill-rule="evenodd" stroke="none"/>
    <path d="M8.35 -0.95 L8.4 -0.9 7.9 -0.8 7.95 -0.85 8.35 -0.95 M2.5 0.2 L1.25 -0.45 1.1 -0.4 Q1.15 0.6 2.45 1.1 L3.45 1.65 2.7 1.6 1.7 1.25 -0.8 0.5 -0.05 1.1 -1.2 0.35 -2.05 0.1 -2.4 0.0 -2.25 0.3 -1.25 1.05 0.4 1.85 -0.2 1.85 -1.75 1.45 -3.3 1.25 -2.1 1.75 -0.45 1.95 -0.4 2.0 -1.7 2.15 -3.6 2.25 -5.45 1.8 -7.1 1.05 -8.3 0.1 -8.7 -0.25 -8.3 0.1 -8.7 0.6 -8.8 0.55 -8.7 -0.25 -8.0 -1.0 Q-7.25 -1.5 -6.2 -1.65 L-4.7 -1.65 -3.2 -1.5 -1.35 -1.6 0.25 -1.35 2.0 -1.5 3.35 -2.0 4.6 -2.2 4.7 -2.25 5.8 -1.3 3.95 -1.1 Q3.65 -0.7 4.2 -0.35 5.1 0.3 6.3 0.65 L5.7 0.7 4.05 0.65 2.5 0.2 M5.55 1.5 L5.0 1.35 5.7 1.4 6.4 1.35 6.4 1.4 5.55 1.5 M-0.8 0.5 L-0.9 0.45 -0.85 0.5 -0.8 0.5 -0.85 0.5 -0.9 0.45 -0.8 0.5 M2.65 1.6 L0.9 1.8 1.15 1.45 2.65 1.6 M5.95 -0.55 L6.5 -0.65 6.6 -0.65 5.95 -0.55 M-4.95 0.55 Q-4.7 1.3 -3.85 1.6 L-3.15 1.75 -3.65 1.15 Q-4.2 0.7 -4.95 0.55" fill="#d6baba" fill-rule="evenodd" stroke="none"/>
    <path d="M8.35 -0.95 L7.95 -0.85 6.4 -0.95 5.8 -1.3 4.7 -2.25 4.6 -2.2 M7.9 -0.8 L8.4 -0.9 8.85 -1.1 8.35 -0.95 M3.45 1.65 L3.65 1.65 3.85 1.7 5.55 1.5 6.4 1.4 6.45 1.35 6.4 1.35 5.7 1.4 5.0 1.35 3.7 0.85 2.45 0.25 2.5 0.2 4.05 0.65 5.7 0.7 6.3 0.65 7.75 0.25 7.1 0.25 Q5.75 0.2 4.9 -0.65 L5.85 -0.55 M-8.7 -0.25 L-8.3 0.1 -7.1 1.05 -5.45 1.8 -3.6 2.25 -1.7 2.15 -0.4 2.0 -0.45 1.95 -2.1 1.75 -3.3 1.25 -1.75 1.45 -0.2 1.85 0.4 1.85 M-0.05 1.1 L-0.8 0.5 -0.85 0.5 -0.9 0.45 -0.8 0.5 1.7 1.25 2.7 1.6 3.45 1.65 M2.65 1.6 L0.9 1.8 0.7 1.8 M1.15 1.45 L2.65 1.6 2.7 1.6 M1.15 1.45 L-0.05 1.1 M6.6 -0.65 L7.9 -0.8 M5.95 -0.55 L6.6 -0.65" fill="none" stroke="#a36a6a" stroke-linecap="round" stroke-linejoin="round" stroke-width="1"/>
  </g>
</svg>