<?xml version="1.0" encoding="UTF-8" standalone="no"?>
<svg xmlns:xlink="http://www.w3.org/1999/xlink" height="6.6px" width="6.55px" xmlns="http://www.w3.org/2000/svg">
  <g id="shape0" transform="matrix(1.0, 0.0, 0.0, 1.0, 3.25, 3.3)">
    <path d="M-0.15 0.0 L0.1 -2.3 0.45 -0.8 1.25 -1.75 Q0.9 -0.65 1.1 0.65 L0.55 -0.15 0.5 1.0 -0.15 0.0 -0.35 0.9 -1.4 0.7 -1.8 -1.25 -0.85 -0.1 -0.65 -1.5 -0.15 0.0 M-0.45 1.45 L-0.5 1.45 -0.45 1.4 -0.45 1.45" fill="#faf8f8" fill-rule="evenodd" stroke="none"/>
    <path d="M-0.15 0.0 L0.5 1.0 0.55 -0.15 1.1 0.65 Q0.9 -0.65 1.25 -1.75 1.25 -0.75 1.8 0.45 L2.25 -0.15 2.3 1.1 2.15 1.25 2.15 1.2 2.25 1.05 2.05 0.85 Q1.85 1.0 1.6 1.1 1.6 1.0 1.45 1.0 L0.75 1.15 0.2 1.2 -0.35 1.1 -1.45 1.4 -2.25 0.2 -1.4 0.7 -0.35 0.9 -0.15 0.0" fill="#d6baba" fill-rule="evenodd" stroke="none"/>
    <path d="M2.3 1.1 L2.3 1.15 1.7 1.85 1.5 1.45 0.8 2.3 0.6 1.45 -0.8 1.85 -0.45 1.5 -0.45 1.45 -0.45 1.4 -0.5 1.45 -2.0 1.8 -2.0 1.75 -1.45 1.4 -0.35 1.1 0.2 1.2 0.75 1.15 1.45 1.0 Q1.6 1.0 1.6 1.1 1.85 1.0 2.05 0.85 L2.25 1.05 2.15 1.2 2.15 1.25 2.3 1.1" fill="#d6baba" fill-opacity="0.4" fill-rule="evenodd" stroke="none"/>
    <path d="M1.25 -1.75 L0.45 -0.8 0.1 -2.3 -0.15 0.0 -0.65 -1.5 -0.85 -0.1 -1.8 -1.25 -1.4 0.7 -2.25 0.2 -1.45 1.4 -2.0 1.75 -2.05 1.75 -2.0 1.8 -0.5 1.45 -0.45 1.45 -0.45 1.5 -0.8 1.85 0.6 1.45 M1.25 -1.75 Q1.25 -0.75 1.8 0.45 L2.25 -0.15 2.3 1.1 2.3 1.15" fill="none" stroke="#a36a6a" stroke-linecap="round" stroke-linejoin="round" stroke-width="1"/>
  </g>
</svg>