<?xml version="1.0" encoding="UTF-8" standalone="no"?>
<svg xmlns:xlink="http://www.w3.org/1999/xlink" height="4.9px" width="7.05px" xmlns="http://www.w3.org/2000/svg">
  <g id="shape0" transform="matrix(1.0, 0.0, 0.0, 1.0, 3.5, 2.45)">
    <path d="M2.15 -0.2 L1.75 -0.4 1.5 -0.35 0.35 0.15 -0.55 -0.05 -1.1 -0.3 -1.1 -0.1 -1.05 0.1 -2.05 0.25 -2.5 -0.9 Q-2.65 -2.05 0.1 -0.75 L1.5 -0.5 2.15 -0.2" fill="#faf8f8" fill-rule="evenodd" stroke="none"/>
    <path d="M-2.05 0.25 L-1.05 0.1 -1.1 -0.1 -1.1 -0.3 -0.55 -0.05 0.35 0.15 1.5 -0.35 1.75 -0.4 2.15 -0.2 2.55 0.25 2.4 0.7 2.15 1.0 0.95 1.4 Q-0.3 1.65 -1.25 0.95 L-1.5 0.75 -2.05 0.25" fill="#d6baba" fill-rule="evenodd" stroke="none"/>
    <path d="M2.15 -0.2 L1.5 -0.5 0.1 -0.75 Q-2.65 -2.05 -2.5 -0.9 L-2.05 0.25 -1.5 0.75 -1.25 0.95 Q-0.3 1.65 0.95 1.4 L2.15 1.0 2.4 0.7 2.55 0.25 2.15 -0.2 Z" fill="none" stroke="#a36a6a" stroke-linecap="round" stroke-linejoin="round" stroke-width="1"/>
  </g>
</svg>