<?xml version="1.0" encoding="UTF-8" standalone="no"?>
<svg xmlns:xlink="http://www.w3.org/1999/xlink" height="6.35px" width="10px" xmlns="http://www.w3.org/2000/svg">
  <g id="shape0" transform="matrix(1.0, 0.0, 0.0, 1.0, 5, 3.2)">
    <path d="M-0.3 -0.75 L-0.35 -0.75 -0.8 -0.95 -0.3 -0.75 M-2.05 -1.45 L-2.05 -1.4 -2.2 -1.45 -2.25 -1.5 -2.7 -1.65 -2.25 -1.0 Q-1.8 -0.65 -1.9 -0.2 -2.0 0.25 -1.7 0.25 L-1.1 -0.15 -1.05 0.05 -0.85 0.15 0.45 -0.45 0.05 -0.6 0.65 -0.4 2.05 0.1 1.15 0.2 1.3 1.55 -0.55 0.45 -0.6 1.4 -1.1 0.95 -1.65 1.55 -3.25 0.4 -4.0 -2.2 -2.05 -1.45 M-0.15 1.4 L-0.25 1.4 -0.25 1.25 -0.15 1.4" fill="#faf8f8" fill-rule="evenodd" stroke="none"/>
    <path d="M-0.8 -0.95 L-0.35 -0.75 -0.3 -0.75 0.05 -0.6 0.45 -0.45 -0.85 0.15 -1.05 0.05 -1.1 -0.15 -1.7 0.25 Q-2.0 0.25 -1.9 -0.2 -1.8 -0.65 -2.25 -1.0 L-2.7 -1.65 -2.25 -1.5 -2.2 -1.45 -2.05 -1.4 -2.05 -1.45 -2.0 -1.4 -0.8 -0.95 M2.05 0.1 L2.45 0.15 4.0 -0.1 3.25 0.4 Q2.45 1.05 1.6 0.85 L1.35 2.15 0.95 1.95 -0.15 1.4 -0.25 1.25 -0.25 1.4 -0.85 1.65 -0.9 1.65 -1.65 1.55 -1.1 0.95 -0.6 1.4 -0.55 0.45 1.3 1.55 1.15 0.2 2.05 0.1" fill="#d6baba" fill-rule="evenodd" stroke="none"/>
    <path d="M-2.0 -1.4 L-2.05 -1.45 -4.0 -2.2 -3.25 0.4 -1.65 1.55 -0.9 1.65 M2.05 0.1 L2.45 0.15 4.0 -0.1 3.25 0.4 Q2.45 1.05 1.6 0.85 L1.35 2.15 0.95 1.95 -0.15 1.4 -0.25 1.4 -0.85 1.65 M0.65 -0.4 L2.05 0.1" fill="none" stroke="#a36a6a" stroke-linecap="round" stroke-linejoin="round" stroke-width="1"/>
  </g>
</svg>