<?xml version="1.0" encoding="UTF-8" standalone="no"?>
<svg xmlns:xlink="http://www.w3.org/1999/xlink" height="5.4px" width="7.4px" xmlns="http://www.w3.org/2000/svg">
  <g transform="matrix(1.0, 0.0, 0.0, 1.0, 3.75, 2.4)">
    <path d="M1.1 -0.1 L1.0 -0.2 1.1 -0.1 Q1.4 0.6 1.15 1.15 1.4 0.6 1.1 -0.1 L1.5 0.05 1.8 0.1 2.65 0.3 2.4 0.95 2.3 1.05 1.6 1.2 1.15 1.15 0.3 2.0 Q-0.45 2.0 -0.5 1.35 L-0.55 0.6 -0.4 -0.7 -0.55 0.6 -0.5 1.35 Q-1.25 1.55 -1.7 1.0 L-1.9 0.7 -1.9 0.05 Q-2.4 -0.1 -2.45 -0.2 L-2.7 -0.7 -2.75 -1.15 -2.65 -1.3 -2.0 -1.35 -1.55 -1.15 -1.9 -0.55 -1.9 0.05 -1.9 -0.55 -1.55 -1.15 -0.4 -0.7 1.0 -0.2 1.05 -0.2 1.1 -0.1" fill="#e0cca3" fill-rule="evenodd" stroke="none"/>
    <path d="M1.0 -0.2 L1.1 -0.1 1.05 -0.2 1.0 -0.2 -0.4 -0.7 -0.55 0.6 -0.5 1.35 Q-0.45 2.0 0.3 2.0 L1.15 1.15 Q1.4 0.6 1.1 -0.1 L1.5 0.05 1.8 0.1 2.65 0.3 2.4 0.95 2.3 1.05 1.6 1.2 1.15 1.15 M-1.9 0.05 L-1.9 -0.55 -1.55 -1.15 -2.0 -1.35 -2.65 -1.3 -2.75 -1.15 -2.7 -0.7 -2.45 -0.2 Q-2.4 -0.1 -1.9 0.05 L-1.9 0.7 -1.7 1.0 Q-1.25 1.55 -0.5 1.35 M-0.4 -0.7 L-1.55 -1.15" fill="none" stroke="#a36a6a" stroke-linecap="round" stroke-linejoin="round" stroke-width="1"/>
  </g>
</svg>