<?xml version="1.0" encoding="UTF-8" standalone="no"?>
<svg xmlns:xlink="http://www.w3.org/1999/xlink" height="5.6px" width="6.65px" xmlns="http://www.w3.org/2000/svg">
  <g transform="matrix(1.0, 0.0, 0.0, 1.0, 3.3, 4.5)">
    <path d="M1.9 0.1 L1.55 0.1 0.45 -0.2 0.85 -0.65 1.5 -1.45 Q2.1 -2.2 2.3 -3.1 L2.3 -2.55 2.35 -1.95 2.1 -0.45 1.9 0.05 1.9 0.1 M-1.15 -0.65 L-1.2 -0.65 Q-1.65 -0.65 -2.1 -0.95 L-2.3 -1.1 -2.25 -1.6 -2.2 -1.65 -2.15 -2.3 -1.7 -3.5 Q-1.75 -2.35 -1.35 -1.3 L-1.3 -1.2 -1.15 -0.65" fill="#e0cca3" fill-rule="evenodd" stroke="none"/>
    <path d="M0.45 -0.2 L0.85 -0.65 1.5 -1.45 Q2.1 -2.2 2.3 -3.1 L2.3 -2.55 2.35 -1.95 2.1 -0.45 1.9 0.05 1.9 0.1 M-2.3 -1.1 L-2.25 -1.6 -2.2 -1.65 -2.15 -2.3 -1.7 -3.5 Q-1.75 -2.35 -1.35 -1.3 L-1.3 -1.2 -1.15 -0.65" fill="none" stroke="#a36a6a" stroke-linecap="round" stroke-linejoin="round" stroke-width="1"/>
  </g>
</svg>