<?xml version="1.0" encoding="UTF-8" standalone="no"?>
<svg xmlns:xlink="http://www.w3.org/1999/xlink" height="4.95px" width="4.8px" xmlns="http://www.w3.org/2000/svg">
  <g id="shape0" transform="matrix(1.0, 0.0, 0.0, 1.0, 2.4, 2.45)">
    <path d="M-1.0 -1.25 L0.0 -0.85 1.25 -0.45 Q1.8 0.75 0.6 1.5 -0.05 1.5 -0.1 0.9 -0.75 1.1 -1.15 0.6 L-1.3 0.35 -1.3 -0.75 -1.0 -1.25 M-0.1 0.9 L-0.15 0.25 0.0 -0.85 -0.15 0.25 -0.1 0.9" fill="#e0cca3" fill-rule="evenodd" stroke="none"/>
    <path d="M-1.0 -1.25 L-1.4 -1.45 M-1.0 -1.25 L0.0 -0.85 1.25 -0.45 Q1.8 0.75 0.6 1.5 -0.05 1.5 -0.1 0.9 -0.75 1.1 -1.15 0.6 L-1.3 0.35 -1.3 -0.75 -1.0 -1.25 M0.0 -0.85 L-0.15 0.25 -0.1 0.9" fill="none" stroke="#a36a6a" stroke-linecap="round" stroke-linejoin="round" stroke-width="1"/>
  </g>
</svg>