<?xml version="1.0" encoding="UTF-8" standalone="no"?>
<svg xmlns:xlink="http://www.w3.org/1999/xlink" height="21.8px" width="24.2px" xmlns="http://www.w3.org/2000/svg">
  <g id="shape0" transform="matrix(1.0, 0.0, 0.0, 1.0, 1, 1)">
    <path d="M19.65 5.9 Q20.55 6.2 20.55 7.1 L20.4 8.1 19.6 8.7 Q18.75 9.05 18.35 9.45 L17.8 10.1 17.45 10.35 Q16.75 10.35 16.7 9.1 L17.05 8.1 Q17.25 7.5 18.0 6.75 18.85 5.9 19.55 5.9 L19.65 5.9 M10.5 10.5 L10.9 11.05 Q10.9 11.55 10.15 11.55 L9.35 11.45 8.05 11.7 7.75 11.65 7.75 11.2 Q8.1 10.5 8.8 10.1 L9.1 10.05 9.2 10.05 10.5 10.5 M5.45 8.8 L5.4 8.45 Q5.4 6.75 8.05 6.5 L9.6 6.45 10.05 6.75 10.3 7.1 Q10.3 7.6 9.3 7.8 L8.25 7.85 Q6.75 8.05 6.65 8.4 L6.5 8.85 6.2 9.15 Q5.7 9.15 5.45 8.8 M12.25 5.6 L12.5 5.2 Q13.05 4.3 13.05 3.1 L12.85 2.35 12.85 2.3 12.8 2.0 12.65 2.0 12.45 1.7 Q11.95 0.95 12.0 0.55 L12.0 0.5 13.5 0.35 14.85 0.0 15.1 0.0 Q16.15 2.0 16.15 3.55 L16.0 4.35 15.7 4.85 15.65 4.95 15.55 5.05 15.05 5.55 Q14.35 6.1 13.55 6.1 L12.4 5.9 12.25 5.6 M0.75 17.05 L0.95 17.1 1.15 17.3 1.65 17.3 2.4 16.95 2.55 17.2 2.15 17.65 Q1.7 18.0 1.45 18.0 L0.4 17.3 Q0.4 17.05 0.75 17.05 M1.6 18.8 L2.05 18.9 2.55 18.6 3.1 18.15 2.85 18.7 2.2 19.25 1.6 19.25 1.3 18.85 1.6 18.8" fill="#faf8f8" fill-rule="evenodd" stroke="none"/>
    <path d="M19.65 5.9 Q21.45 5.9 22.2 6.65 21.4 6.75 21.3 8.55 L21.35 11.15 21.35 11.35 Q20.4 9.8 19.3 9.8 18.45 9.8 17.3 11.8 16.15 13.8 14.5 13.8 L12.75 12.75 Q11.4 11.7 10.2 11.7 9.05 11.7 8.3 12.2 L7.4 13.0 5.8 14.3 Q6.6 13.35 6.9 12.2 6.6 13.35 5.8 14.3 L5.75 14.35 5.65 14.5 3.85 17.95 2.9 19.45 Q2.65 19.8 2.05 19.8 1.45 19.8 0.7 18.25 L0.5 17.85 0.0 16.45 0.8 16.75 Q1.85 16.75 3.2 15.6 L4.85 13.85 5.4 13.15 5.7 12.55 6.2 10.9 5.8 9.75 5.45 8.8 Q5.7 9.15 6.2 9.15 L6.5 8.85 6.65 8.4 Q6.75 8.05 8.25 7.85 L9.3 7.8 Q10.3 7.6 10.3 7.1 L10.05 6.75 9.6 6.45 9.8 6.45 Q11.35 6.55 12.25 5.6 L12.4 5.9 13.55 6.1 Q14.35 6.1 15.05 5.55 L15.55 5.05 14.3 6.75 Q12.95 8.4 10.8 8.4 L8.45 8.15 Q7.3 8.15 6.95 8.7 6.8 9.0 6.8 9.7 L6.9 11.45 6.9 12.2 7.05 11.75 Q7.3 10.25 8.8 10.1 8.1 10.5 7.75 11.2 L7.75 11.65 8.05 11.7 9.35 11.45 10.15 11.55 Q10.9 11.55 10.9 11.05 L10.5 10.5 11.5 10.85 Q13.65 11.65 14.45 11.65 16.05 11.65 16.7 9.1 16.75 10.35 17.45 10.35 L17.8 10.1 18.35 9.45 Q18.75 9.05 19.6 8.7 L20.4 8.1 20.55 7.1 Q20.55 6.2 19.65 5.9 M12.85 2.35 L12.65 2.0 12.8 2.0 12.85 2.3 12.85 2.35 M5.65 14.5 L5.4 13.15 5.65 14.5 M0.75 17.05 Q0.4 17.05 0.4 17.3 L1.45 18.0 Q1.7 18.0 2.15 17.65 L2.55 17.2 2.4 16.95 1.65 17.3 1.15 17.3 0.95 17.1 0.75 17.05 M3.9 15.75 Q3.0 18.0 1.75 18.5 L0.7 18.25 1.75 18.5 Q3.0 18.0 3.9 15.75 M1.6 18.8 L1.3 18.85 1.6 19.25 2.2 19.25 2.85 18.7 3.1 18.15 2.55 18.6 2.05 18.9 1.6 18.8" fill="#d6baba" fill-rule="evenodd" stroke="none"/>
    <path d="M5.8 14.3 L7.4 13.0 8.3 12.2 Q9.05 11.7 10.2 11.7 11.4 11.7 12.75 12.75 L14.5 13.8 Q16.15 13.8 17.3 11.8 18.45 9.8 19.3 9.8 20.4 9.8 21.35 11.35 L21.35 11.15 21.3 8.55 Q21.4 6.75 22.2 6.65 21.45 5.9 19.65 5.9 L19.55 5.9 Q18.85 5.9 18.0 6.75 17.25 7.5 17.05 8.1 L16.7 9.1 Q16.05 11.65 14.45 11.65 13.65 11.65 11.5 10.85 L10.5 10.5 9.2 10.05 9.1 10.05 8.8 10.1 Q7.3 10.25 7.05 11.75 L6.9 12.2 Q6.6 13.35 5.8 14.3 L5.75 14.35 5.65 14.5 3.85 17.95 2.9 19.45 Q2.65 19.8 2.05 19.8 1.45 19.8 0.7 18.25 L0.5 17.85 0.0 16.45 0.8 16.75 Q1.85 16.75 3.2 15.6 L4.85 13.85 5.4 13.15 5.7 12.55 6.2 10.9 5.8 9.75 5.45 8.8 5.4 8.45 Q5.4 6.75 8.05 6.5 L9.6 6.45 9.8 6.45 Q11.35 6.55 12.25 5.6 L12.5 5.2 Q13.05 4.3 13.05 3.1 L12.85 2.35 12.65 2.0 12.45 1.7 Q11.95 0.95 12.0 0.55 L12.0 0.5 13.5 0.35 14.85 0.0 15.1 0.0 Q16.15 2.0 16.15 3.55 L16.0 4.35 15.7 4.85 15.65 4.95 15.55 5.05 14.3 6.75 Q12.95 8.4 10.8 8.4 L8.45 8.15 Q7.3 8.15 6.95 8.7 6.8 9.0 6.8 9.7 L6.9 11.45 6.9 12.2 M5.4 13.15 L5.65 14.5 M0.7 18.25 L1.75 18.5 Q3.0 18.0 3.9 15.75" fill="none" stroke="#a36a6a" stroke-linecap="round" stroke-linejoin="round" stroke-width="1"/>
  </g>
</svg>