<?xml version="1.0" encoding="UTF-8" standalone="no"?>
<svg xmlns:xlink="http://www.w3.org/1999/xlink" height="7.55px" width="13.9px" xmlns="http://www.w3.org/2000/svg">
  <g id="shape0" transform="matrix(1.0, 0.0, 0.0, 1.0, 6.95, 3.8)">
    <path d="M-5.45 2.65 L-5.0 1.85 Q-4.65 1.15 -3.85 0.9 L-1.5 0.3 1.15 -0.5 Q2.3 -0.9 3.95 -1.95 L5.15 -2.8 5.95 -2.8 Q4.35 -0.3 0.1 1.1 L-4.5 2.45 -4.95 2.6 -5.0 2.65 -5.15 2.7 -5.3 2.75 -5.45 2.65" fill="#d6baba" fill-rule="evenodd" stroke="none"/>
    <path d="M5.15 -2.8 L3.95 -1.95 Q2.3 -0.9 1.15 -0.5 L-1.5 0.3 -3.85 0.9 Q-4.65 1.15 -5.0 1.85 L-5.45 2.65 -5.65 2.45 -5.7 2.3 -5.85 2.0 -5.95 1.6 -5.65 1.1 -5.25 0.35 Q-4.2 -1.05 -2.8 -1.3 L4.6 -2.8 5.15 -2.8" fill="#faf8f8" fill-rule="evenodd" stroke="none"/>
    <path d="M-5.15 2.7 L-5.0 2.65 -4.95 2.6 -4.5 2.45 0.1 1.1 Q4.35 -0.3 5.95 -2.8 L5.15 -2.8 4.6 -2.8 -2.8 -1.3 Q-4.2 -1.05 -5.25 0.35 L-5.65 1.1 -5.95 1.6" fill="none" stroke="#a36a6a" stroke-linecap="round" stroke-linejoin="round" stroke-width="1"/>
  </g>
</svg>