<?xml version="1.0" encoding="UTF-8" standalone="no"?>
<svg xmlns:xlink="http://www.w3.org/1999/xlink" height="6.75px" width="6.3px" xmlns="http://www.w3.org/2000/svg">
  <g id="shape0" transform="matrix(1.0, 0.0, 0.0, 1.0, 5.4, 1.6)">
    <path d="M-0.35 1.55 L-0.15 2.1 -0.2 2.1 Q-0.8 2.1 -1.25 2.65 -1.7 3.2 -1.7 4.0 L-2.7 2.3 -0.85 2.2 -0.95 2.05 -1.55 1.65 -1.95 1.5 -0.35 1.55" fill="#faf8f8" fill-rule="evenodd" stroke="none"/>
    <path d="M-2.25 4.15 L-3.7 2.95 -4.15 2.5 Q-4.75 1.95 -3.95 1.3 -2.9 0.35 -1.45 -0.35 L-1.0 -0.45 -0.1 -0.6 -0.1 -0.5 -0.35 0.05 Q-0.6 0.8 -0.35 1.55 L-1.95 1.5 -1.55 1.65 -0.95 2.05 -0.85 2.2 -2.7 2.3 -1.7 4.0 -2.1 4.0 -2.25 4.15" fill="#d6baba" fill-rule="evenodd" stroke="none"/>
    <path d="M-0.1 -0.5 L-0.35 0.05 Q-0.6 0.8 -0.35 1.55 L-0.15 2.1 -0.2 2.1 Q-0.8 2.1 -1.25 2.65 -1.7 3.2 -1.7 4.0 L-2.1 4.0 -2.25 4.15" fill="none" stroke="#a36a6a" stroke-linecap="round" stroke-linejoin="round" stroke-width="1"/>
  </g>
</svg>