<?xml version="1.0" encoding="UTF-8" standalone="no"?>
<svg xmlns:xlink="http://www.w3.org/1999/xlink" height="9.9px" width="9.95px" xmlns="http://www.w3.org/2000/svg">
  <g id="shape0" transform="matrix(1.0, 0.0, 0.0, 1.0, 5, 4.95)">
    <path d="M-3.55 3.35 Q-4.4 1.3 -3.7 -0.7 -3.1 -2.45 -1.6 -3.4 -1.0 -3.75 -0.3 -3.9 L2.1 -3.7 3.0 -2.6 3.55 -1.55 3.6 -1.45 1.5 0.7 -2.25 2.6 -3.55 3.35" fill="#faf8f8" fill-rule="evenodd" stroke="none"/>
    <path d="M3.6 -1.45 L3.95 -0.1 3.95 0.1 3.3 1.5 Q1.15 2.4 -0.8 3.55 -1.3 3.85 -1.95 3.95 -2.85 4.0 -3.55 3.4 L-3.55 3.35 -2.25 2.6 1.5 0.7 3.6 -1.45" fill="#d6baba" fill-rule="evenodd" stroke="none"/>
    <path d="M3.6 -1.45 L3.95 -0.1 3.95 0.1 3.3 1.5 Q1.15 2.4 -0.8 3.55 -1.3 3.85 -1.95 3.95 -2.85 4.0 -3.55 3.4 L-3.55 3.35 Q-4.4 1.3 -3.7 -0.7 -3.1 -2.45 -1.6 -3.4 -1.0 -3.75 -0.3 -3.9 L2.1 -3.7 3.0 -2.6 3.55 -1.55 3.6 -1.45 Z" fill="none" stroke="#a36a6a" stroke-linecap="round" stroke-linejoin="round" stroke-width="1"/>
  </g>
</svg>