<?xml version="1.0" encoding="UTF-8" standalone="no"?>
<svg xmlns:xlink="http://www.w3.org/1999/xlink" height="8.65px" width="10.05px" xmlns="http://www.w3.org/2000/svg">
  <g transform="matrix(1.0, 0.0, 0.0, 1.0, 5, 4.3)">
    <path d="M1.9 -2.4 L1.75 -1.9 1.75 -1.15 1.95 -0.45 2.1 -0.4 2.95 -0.15 3.9 0.7 Q4.65 2.15 0.95 3.1 L-0.35 3.35 Q-0.85 3.35 -1.65 2.95 L-2.4 2.55 -2.6 2.5 -3.0 2.15 -3.9 1.35 -4.0 1.15 -3.9 0.8 -3.7 0.55 -3.55 0.65 -3.2 0.95 -2.8 1.3 -1.95 1.6 -1.7 1.7 Q-1.55 1.7 -1.5 1.8 L-1.45 1.9 -1.55 2.1 -0.95 2.25 0.8 1.9 1.7 1.5 0.95 0.3 Q0.25 -0.55 0.05 -1.35 L0.0 -2.05 Q0.05 -2.6 -0.4 -2.8 L-1.05 -3.2 -0.75 -3.3 Q-0.55 -3.1 -0.35 -3.05 L0.0 -2.95 0.75 -2.75 0.8 -2.75 1.2 -2.65 1.9 -2.4 M-1.7 1.7 Q-1.95 1.75 -2.0 1.9 L-2.0 2.15 -2.0 2.25 -1.9 2.45 -1.65 2.95 -1.9 2.45 -2.0 2.25 -2.0 2.15 -2.0 1.9 Q-1.95 1.75 -1.7 1.7 M-3.0 2.15 L-3.3 1.7 -3.35 1.65 -3.45 1.5 -3.45 1.4 -3.45 1.3 -3.4 1.1 -3.2 0.95 -3.4 1.1 -3.45 1.3 -3.45 1.4 -3.45 1.5 -3.35 1.65 -3.3 1.7 -3.0 2.15" fill="#d6baba" fill-rule="evenodd" stroke="none"/>
    <path d="M-3.7 0.55 L-2.95 0.1 -0.75 -0.45 Q-1.5 -1.8 -1.5 -2.5 -1.5 -3.05 -1.05 -3.2 L-0.4 -2.8 Q0.05 -2.6 0.0 -2.05 L0.05 -1.35 Q0.25 -0.55 0.95 0.3 L1.7 1.5 0.8 1.9 -0.95 2.25 -1.55 2.1 -1.45 1.9 -1.5 1.8 Q-1.55 1.7 -1.7 1.7 L-1.95 1.6 -2.8 1.3 -3.2 0.95 -3.55 0.65 -3.7 0.55 M-0.55 0.25 L-0.75 -0.45 -0.55 0.25 M-2.6 0.75 L-3.2 0.95 -2.6 0.75" fill="#faf8f8" fill-rule="evenodd" stroke="none"/>
    <path d="M1.9 -2.4 L1.75 -1.9 1.75 -1.15 1.95 -0.45 2.1 -0.4 2.95 -0.15 3.9 0.7 Q4.65 2.15 0.95 3.1 L-0.35 3.35 Q-0.85 3.35 -1.65 2.95 L-2.4 2.55 -2.6 2.5 -3.0 2.15 -3.9 1.35 -4.0 1.15 -3.9 0.8 -3.7 0.55 -2.95 0.1 -0.75 -0.45 Q-1.5 -1.8 -1.5 -2.5 -1.5 -3.05 -1.05 -3.2 L-0.75 -3.3 M-1.7 1.7 Q-1.55 1.7 -1.5 1.8 M-1.65 2.95 L-1.9 2.45 -2.0 2.25 -2.0 2.15 -2.0 1.9 Q-1.95 1.75 -1.7 1.7 M-3.2 0.95 L-3.4 1.1 -3.45 1.3 -3.45 1.4 -3.45 1.5 -3.35 1.65 -3.3 1.7 -3.0 2.15 M-3.2 0.95 L-2.6 0.75 M-0.75 -0.45 L-0.55 0.25" fill="none" stroke="#a36a6a" stroke-linecap="round" stroke-linejoin="round" stroke-width="1"/>
  </g>
</svg>