<?xml version="1.0" encoding="UTF-8" standalone="no"?>
<svg xmlns:xlink="http://www.w3.org/1999/xlink" height="71.2px" width="90px" xmlns="http://www.w3.org/2000/svg">
  <g transform="matrix(1.0, 0.0, 0.0, 1.0, -197.25, 83.2)">
    <path d="M204.5 -58.2 Q199.55 -54.5 198.25 -54.25 217.0 -73.3 234.45 -79.45 249.6 -84.75 262.2 -79.9 273.25 -75.65 280.0 -64.8 286.25 -54.7 286.25 -43.25 286.25 -33.0 285.3 -28.7 283.5 -20.8 277.0 -13.0 274.75 -13.0 274.0 -13.75 277.5 -18.4 279.8 -25.4 282.0 -31.95 282.0 -36.6 282.0 -50.8 278.75 -58.75 271.25 -77.25 248.35 -77.25 232.65 -77.25 215.45 -66.05 L204.5 -58.2" fill="#ffffff" fill-rule="evenodd" stroke="none"/>
  </g>
</svg>