<?xml version="1.0" encoding="UTF-8" standalone="no"?>
<svg xmlns:xlink="http://www.w3.org/1999/xlink" height="48.8px" width="153.35px" xmlns="http://www.w3.org/2000/svg">
  <g transform="matrix(1.0, 0.0, 0.0, 1.0, 17.95, 12.4)">
    <path d="M53.9 -2.25 Q57.25 -3.7 59.7 -5.0 70.1 -9.15 70.1 -10.5 70.1 -11.5 74.85 -11.4 L86.0 -11.1 Q89.8 -11.1 94.5 -9.3 L103.65 -2.1 Q116.15 7.5 119.7 7.5 L121.05 7.15 121.2 7.05 122.75 8.95 122.7 10.8 123.7 15.0 Q125.05 19.95 126.8 24.1 130.25 32.25 134.4 35.35 L133.35 35.4 Q130.95 35.4 128.15 32.45 128.1 29.5 125.6 24.75 123.2 20.3 119.95 16.6 116.55 12.75 114.3 12.1 112.55 11.6 112.0 13.4 108.0 10.15 103.3 7.75 L103.15 7.2 102.65 6.45 Q103.95 6.3 104.35 5.4 L104.55 4.5 Q91.85 0.45 85.1 -0.5 74.9 -1.95 69.35 1.3 63.35 1.75 57.95 4.2 L52.75 6.6 Q48.1 7.65 40.9 10.05 L31.15 13.45 Q30.35 12.9 28.8 12.65 L22.15 12.85 Q12.45 14.4 12.45 18.0 L12.9 18.5 1.65 20.85 1.5 20.85 Q-2.0 22.1 -6.55 22.95 L-9.65 24.85 Q-7.0 25.7 -2.45 27.5 L-1.45 27.9 Q-1.25 28.75 -0.3 29.7 1.25 31.2 3.6 31.2 L5.0 30.95 Q8.2 32.75 9.2 34.35 L9.05 34.65 Q7.7 34.1 0.3 32.1 L0.3 31.8 Q0.3 28.3 -5.1 28.65 -7.65 28.85 -9.0 29.45 -12.6 28.05 -13.3 26.35 L-16.95 22.2 Q-16.95 21.25 -14.5 17.25 -12.05 13.25 -12.05 12.7 L-12.35 10.0 -12.65 7.1 -12.4 3.65 Q-11.7 1.8 -10.95 -0.95 -9.8 -5.05 -2.2 -3.0 3.6 -1.4 5.85 0.35 L10.25 0.9 26.35 0.9 Q29.9 2.7 36.3 2.7 42.2 2.7 53.9 -2.25" fill="#202020" fill-rule="evenodd" stroke="none"/>
  </g>
</svg>