<?xml version="1.0" encoding="UTF-8" standalone="no"?>
<svg xmlns:xlink="http://www.w3.org/1999/xlink" height="39.05px" width="90.5px" xmlns="http://www.w3.org/2000/svg">
  <g transform="matrix(1.0, 0.0, 0.0, 1.0, 31.7, 17.2)">
    <path d="M3.1 14.75 L2.45 13.2 Q2.15 12.8 2.45 11.25 2.7 9.7 3.1 8.8 3.45 7.85 5.2 5.15 7.0 2.45 9.6 -0.1 12.15 -2.65 15.3 -4.1 18.7 -5.55 22.4 -4.9 L25.0 -6.6 Q26.25 -7.45 27.7 -7.5 28.65 -7.55 29.2 -6.9 29.65 -6.35 29.4 -5.7 28.7 -4.3 29.2 -2.8 L30.05 -2.1 31.35 -1.9 32.95 -2.3 Q33.85 -2.6 34.4 -3.4 L35.4 -4.9 36.2 -5.8 37.05 -5.95 Q38.75 -5.15 38.15 -3.05 L38.45 -2.7 Q39.05 -2.3 40.0 -2.05 40.85 -1.85 41.7 -2.5 42.45 -3.2 42.4 -4.85 42.4 -6.55 42.05 -8.15 41.7 -9.8 42.35 -11.3 42.8 -12.3 43.85 -12.25 45.2 -11.8 45.6 -10.15 45.9 -9.0 46.55 -8.15 L47.55 -8.05 Q48.4 -8.45 48.65 -9.65 L49.0 -12.35 Q49.0 -13.9 50.15 -15.15 L52.15 -14.1 54.5 -15.75 Q56.15 -16.7 57.4 -15.55 58.05 -14.5 57.7 -13.35 57.0 -10.75 55.35 -8.35 L56.75 -7.2 57.35 -6.15 Q57.65 -5.0 56.65 -4.25 L55.8 -4.0 Q54.15 -4.2 52.6 -3.95 51.1 -1.9 50.35 0.5 L52.15 2.7 Q53.05 3.6 53.05 4.8 53.0 5.65 52.55 6.15 L51.0 7.0 Q49.65 7.45 48.5 7.0 47.0 6.4 46.45 7.55 L46.75 7.95 Q48.85 10.2 48.35 13.2 48.2 13.95 47.5 14.35 45.75 15.4 43.55 15.65 L40.95 15.35 Q40.4 15.2 40.05 14.85 L37.85 12.8 Q37.05 13.35 36.9 14.1 L36.45 15.9 Q35.9 17.3 34.1 17.4 L32.1 16.9 30.9 16.0 29.0 13.25 28.55 13.15 Q27.55 13.8 27.35 14.95 L26.7 17.3 Q26.0 18.95 24.05 19.2 L22.35 19.0 Q21.85 18.7 21.6 18.2 20.95 16.75 21.65 15.45 L21.95 14.45 Q22.3 12.7 21.05 11.35 L19.6 10.85 17.2 9.9 12.25 9.75 11.85 9.9 Q10.4 11.5 9.5 14.85 8.35 19.7 7.65 17.2 L7.8 16.55 Q8.8 12.65 10.3 9.9 11.2 9.25 12.35 8.75 L15.3 8.55 Q17.65 8.5 21.75 10.75 L22.35 12.25 Q23.35 13.55 22.7 15.1 22.15 16.3 22.05 17.6 L22.65 18.4 23.3 18.55 24.6 18.35 25.2 17.75 Q26.55 15.95 26.7 13.7 L28.95 12.5 30.3 13.4 30.7 14.1 31.95 15.6 Q32.95 16.55 33.85 16.45 L35.1 16.05 Q36.45 15.05 36.1 13.2 L38.05 11.8 Q38.7 12.05 39.15 12.45 L40.0 13.4 Q40.45 13.9 42.2 14.55 43.85 15.2 45.9 14.15 47.8 13.1 47.55 11.4 47.25 9.7 45.8 8.05 L45.65 7.6 45.8 6.95 47.4 6.0 47.35 6.05 Q48.05 5.95 48.9 6.45 L50.65 6.3 Q51.8 5.85 52.2 4.8 52.25 4.15 51.8 3.6 50.7 2.05 49.85 1.7 L49.35 0.05 49.85 -0.6 50.0 -1.0 55.85 -10.6 Q56.7 -11.85 56.95 -13.35 57.2 -14.65 56.25 -15.3 L55.85 -15.4 Q53.7 -14.9 52.15 -13.0 L51.7 -13.4 51.3 -13.75 50.8 -13.8 50.35 -13.55 Q49.65 -12.15 49.75 -10.55 49.85 -9.65 49.45 -8.85 L48.7 -7.45 48.45 -7.45 46.8 -7.15 Q45.8 -7.25 45.3 -8.35 L44.3 -10.35 44.0 -10.75 43.75 -11.2 43.6 -11.35 Q42.85 -11.2 42.85 -10.35 42.8 -8.5 43.05 -6.9 43.4 -4.95 43.0 -3.05 L43.0 -2.9 42.85 -2.55 Q42.2 -1.5 41.25 -1.0 L40.15 -0.95 Q38.0 -1.2 37.25 -3.0 L37.3 -4.6 36.9 -5.15 36.75 -4.95 36.15 -4.35 34.8 -2.4 Q34.25 -1.5 33.25 -1.3 L33.2 -1.3 32.9 -1.15 Q30.8 -0.45 28.75 -1.6 27.75 -3.5 28.3 -4.9 28.8 -6.35 28.35 -6.7 L28.0 -6.7 Q26.45 -6.6 24.9 -5.4 23.95 -4.55 22.25 -4.1 L17.25 -3.85 Q13.5 -2.45 10.65 0.4 7.95 3.05 5.8 6.1 4.45 8.05 3.75 9.9 L3.3 11.85 3.1 13.85 3.1 14.75 M41.15 4.0 L42.6 3.75 39.6 4.8 35.25 5.75 30.65 5.0 26.0 3.4 Q24.05 2.55 22.5 2.4 L19.85 2.5 17.45 3.15 Q16.1 3.5 15.9 4.1 L15.55 4.7 Q15.3 4.05 15.6 3.5 16.3 2.45 17.6 2.25 L22.95 1.75 Q25.7 1.9 27.75 2.9 L31.15 4.3 34.95 4.85 41.15 4.0 M53.4 -4.75 L54.2 -4.65 55.5 -4.65 56.1 -4.85 56.75 -5.4 56.65 -6.05 54.9 -7.65 54.0 -6.0 53.4 -4.75 M-25.2 -12.75 L-25.4 -12.4 -25.45 -12.2 -25.9 -11.3 -27.1 -8.95 -26.55 -9.15 -26.65 -8.65 -26.8 -8.1 -27.9 -7.2 Q-29.0 -6.2 -29.3 -5.1 -30.15 -1.65 -29.9 1.45 L-29.7 3.05 Q-29.3 5.55 -28.2 8.5 L-26.65 12.25 -24.7 16.05 -24.0 17.3 -23.65 18.1 Q-23.2 19.15 -23.4 19.45 L-23.45 19.5 -23.55 19.55 -23.75 19.55 -24.85 17.3 -26.55 14.05 Q-28.2 11.1 -29.4 8.0 -30.3 5.55 -30.6 3.05 -30.9 0.35 -30.45 -2.45 L-29.85 -5.2 Q-29.6 -6.15 -29.0 -6.9 -28.0 -8.15 -27.5 -9.5 L-26.25 -12.75 Q-25.55 -14.5 -23.75 -14.9 -22.5 -15.15 -22.1 -13.9 -21.75 -12.7 -21.8 -11.45 -21.1 -12.65 -20.05 -13.35 L-18.5 -13.3 Q-18.05 -12.45 -18.25 -11.4 L-18.65 -9.0 Q-17.45 -9.85 -15.9 -10.3 L-15.2 -9.85 -15.0 -8.8 -14.8 -9.1 -14.7 -9.2 -14.6 -9.85 Q-14.2 -11.35 -13.45 -11.35 L-13.4 -11.35 -12.25 -12.3 Q-12.1 -12.95 -11.25 -12.95 L-10.9 -12.75 -10.1 -12.55 Q-9.3 -11.9 -9.2 -10.95 L-9.05 -9.1 Q-9.0 -8.2 -9.1 -7.25 L-9.3 -5.65 -9.4 -4.05 -9.5 -3.55 -9.05 -2.9 Q-8.45 -1.55 -9.6 -0.6 L-10.45 -0.55 Q-10.45 0.4 -10.0 1.25 -9.1 3.1 -10.8 4.4 -11.0 4.45 -11.15 4.6 L-11.55 4.6 -11.55 4.7 Q-11.1 5.6 -11.5 6.8 -12.1 8.65 -13.85 8.45 L-14.75 8.0 Q-15.1 7.75 -15.55 7.55 L-16.2 7.3 -18.25 10.2 -20.25 10.05 -20.45 9.95 -21.55 9.0 -20.3 12.35 -20.3 12.45 -19.35 14.9 Q-18.9 16.0 -19.3 16.85 L-19.6 17.25 -20.0 15.75 -20.1 15.35 -20.45 14.35 -20.85 13.2 -22.0 10.2 -23.45 5.75 -24.05 3.05 -24.15 2.25 -24.3 0.15 Q-24.5 -1.6 -23.05 -2.7 L-23.25 -1.65 -23.4 0.15 -23.2 3.05 -22.9 4.6 -21.9 7.95 -21.45 8.15 -21.05 8.55 -20.45 9.1 -20.05 9.4 -18.8 9.5 -17.8 8.3 -16.95 6.95 -15.55 5.5 Q-13.3 3.25 -11.95 0.1 L-10.55 -3.05 -10.2 -4.05 -10.1 -4.55 -9.8 -5.8 -9.65 -7.3 Q-9.6 -9.5 -10.05 -11.7 L-10.15 -11.85 Q-10.55 -11.35 -10.95 -12.05 L-11.25 -12.35 -11.35 -12.4 Q-11.8 -12.4 -11.9 -11.5 L-11.75 -11.15 -11.75 -10.95 -11.9 -10.9 Q-12.25 -10.9 -12.3 -11.5 L-12.9 -10.85 -12.15 -9.85 -12.35 -9.65 -12.9 -10.0 -13.6 -10.65 -14.1 -8.75 -14.15 -8.65 Q-14.4 -7.3 -14.55 -7.3 L-14.65 -7.3 -14.8 -7.95 -14.8 -8.05 -15.05 -8.0 -15.45 -7.1 -14.1 -6.25 -13.5 -5.75 -13.35 -5.55 Q-14.1 -5.4 -15.45 -6.25 -16.8 -7.1 -18.3 -7.75 L-20.15 -8.45 -21.45 -8.75 -21.5 -8.7 -21.5 -8.6 -21.8 -8.6 -22.0 -8.6 -22.15 -8.75 -22.25 -8.95 -22.4 -9.45 -22.6 -10.75 -22.6 -12.3 Q-22.5 -13.2 -23.15 -13.95 L-23.55 -14.1 Q-24.6 -13.75 -25.2 -12.75 M-19.0 -11.4 L-19.05 -12.15 -19.15 -12.4 -19.3 -12.6 -19.7 -12.3 -19.8 -12.2 -21.8 -10.85 -21.85 -10.25 -21.75 -9.9 -21.6 -9.5 -21.55 -9.35 -20.9 -9.25 -19.35 -9.05 -19.2 -9.7 -19.0 -11.4 M-21.25 -2.1 Q-21.25 -2.75 -19.8 -2.45 -18.35 -2.15 -18.1 -1.7 L-17.35 -0.75 -16.3 0.1 -16.3 0.15 -18.4 -1.15 Q-19.7 -2.05 -21.2 -1.9 L-21.25 -2.1 M-16.65 -9.5 L-17.25 -9.3 -17.65 -9.2 -18.5 -8.75 -17.35 -8.1 -17.25 -8.05 -16.9 -7.8 -16.7 -7.65 -15.75 -7.6 -15.65 -7.8 -15.6 -8.4 -15.75 -9.25 -16.2 -9.65 -16.65 -9.5 M-9.85 -1.55 L-9.6 -1.9 -9.55 -2.1 -9.65 -2.9 -9.85 -1.55 M-12.3 5.25 Q-12.65 4.2 -12.5 3.25 L-15.4 6.7 -14.2 7.45 Q-13.55 7.85 -13.0 7.45 -11.85 6.6 -12.3 5.25 M-10.6 1.55 L-10.8 0.65 -11.15 0.65 -12.05 2.55 -11.8 3.8 -10.65 3.35 -10.5 2.65 -10.6 1.55" fill="#a36a6a" fill-rule="evenodd" stroke="none"/>
    <path d="M3.1 14.75 L3.1 13.85 3.2 12.8 3.3 13.15 3.1 14.75 M-21.6 -9.5 L-20.9 -9.3 -20.9 -9.25 -21.55 -9.35 -21.6 -9.5 M-19.15 -12.4 L-19.35 -12.55 -19.7 -12.3 -19.3 -12.6 -19.15 -12.4" fill="#e0cbcb" fill-rule="evenodd" stroke="none"/>
    <path d="M-17.35 -8.1 L-18.5 -8.75 -17.65 -9.2 -17.25 -9.3 -17.45 -8.75 -17.35 -8.1" fill="#ccaaaa" fill-rule="evenodd" stroke="none"/>
    <path d="M28.0 -6.7 L28.35 -6.7 Q28.8 -6.35 28.3 -4.9 27.75 -3.5 28.75 -1.6 30.8 -0.45 32.9 -1.15 33.35 -0.55 34.35 -0.7 35.65 -0.9 36.5 -2.15 37.2 -3.2 37.1 -3.8 L36.75 -4.95 36.9 -5.15 37.3 -4.6 37.25 -3.0 Q38.0 -1.2 40.15 -0.95 L41.25 -1.0 Q42.2 -1.5 42.85 -2.55 L43.0 -2.9 Q45.1 -3.4 44.85 -7.55 L44.3 -10.35 45.3 -8.35 Q45.8 -7.25 46.8 -7.15 L48.45 -7.45 49.05 -7.4 Q50.1 -7.6 51.05 -9.8 52.0 -11.85 51.9 -12.55 L51.7 -13.4 52.15 -13.0 Q53.7 -14.9 55.85 -15.4 L56.25 -15.3 Q57.2 -14.65 56.95 -13.35 56.7 -11.85 55.85 -10.6 L50.0 -1.0 49.85 -0.6 49.35 0.05 49.85 1.7 Q50.7 2.05 51.8 3.6 52.25 4.15 52.2 4.8 51.8 5.85 50.65 6.3 L48.9 6.45 Q48.05 5.95 47.35 6.05 L47.4 6.0 45.8 6.95 45.65 7.6 45.8 8.05 Q47.25 9.7 47.55 11.4 47.8 13.1 45.9 14.15 43.85 15.2 42.2 14.55 40.45 13.9 40.0 13.4 L39.15 12.45 Q38.7 12.05 38.05 11.8 L36.1 13.2 Q36.45 15.05 35.1 16.05 L33.85 16.45 Q32.95 16.55 31.95 15.6 L30.7 14.1 30.3 13.4 28.95 12.5 26.7 13.7 Q26.55 15.95 25.2 17.75 L24.6 18.35 23.3 18.55 22.65 18.4 22.05 17.6 Q22.15 16.3 22.7 15.1 23.35 13.55 22.35 12.25 L21.75 10.75 Q17.65 8.5 15.3 8.55 L12.35 8.75 Q11.2 9.25 10.3 9.9 8.8 12.65 7.8 16.55 L7.65 17.2 7.65 17.35 7.15 18.0 4.65 20.85 4.4 20.2 Q5.3 18.9 7.95 9.9 L8.4 9.3 11.55 4.35 Q13.0 1.75 17.4 0.15 21.8 -1.45 23.5 -1.7 25.1 -2.0 26.55 -3.85 28.15 -5.65 28.05 -6.5 L28.0 -6.7 M53.4 -4.75 L54.0 -6.0 54.9 -7.65 56.65 -6.05 56.75 -5.4 56.1 -4.85 55.5 -4.65 54.2 -4.65 53.4 -4.75 M41.15 4.0 L34.95 4.85 31.15 4.3 27.75 2.9 Q25.7 1.9 22.95 1.75 L17.6 2.25 Q16.3 2.45 15.6 3.5 15.3 4.05 15.55 4.7 L15.9 4.1 Q16.1 3.5 17.45 3.15 L19.85 2.5 22.5 2.4 Q24.05 2.55 26.0 3.4 L30.65 5.0 35.25 5.75 39.6 4.8 42.6 3.75 41.15 4.0 M-25.9 -11.3 L-25.95 -10.95 Q-25.85 -9.35 -24.7 -9.35 -24.2 -9.35 -23.5 -10.25 -22.85 -11.05 -22.85 -11.5 -22.85 -13.5 -24.4 -13.1 L-25.2 -12.75 Q-24.6 -13.75 -23.55 -14.1 L-23.15 -13.95 Q-22.5 -13.2 -22.6 -12.3 L-22.6 -10.75 -22.4 -9.45 -22.25 -8.95 -23.3 -9.1 -26.65 -8.65 -26.55 -9.15 -27.1 -8.95 -25.9 -11.3 M-19.3 16.85 L-19.3 16.95 Q-19.3 17.7 -20.05 18.65 -21.0 19.8 -22.25 19.8 L-23.55 19.55 -23.45 19.5 -23.4 19.45 Q-23.2 19.15 -23.65 18.1 L-24.0 17.3 -24.7 16.05 -26.65 12.25 -26.5 12.2 -26.45 12.1 -26.35 11.1 -27.3 3.05 -27.35 2.8 Q-27.35 -0.45 -26.4 -2.75 -24.95 -6.1 -21.75 -6.1 L-19.2 -5.6 -17.45 -5.15 Q-16.45 -5.15 -16.45 -6.2 -16.45 -6.75 -18.6 -7.8 L-20.15 -8.45 -18.3 -7.75 Q-16.8 -7.1 -15.45 -6.25 -14.1 -5.4 -13.35 -5.55 L-13.5 -5.75 -14.1 -6.25 -15.45 -7.1 -15.05 -8.0 -14.8 -8.05 -14.8 -7.95 -14.65 -7.3 -14.6 -7.2 -14.55 -7.3 Q-14.4 -7.3 -14.15 -8.65 L-14.1 -8.75 -14.0 -8.6 -14.3 -7.55 -14.1 -7.35 -13.4 -8.55 -12.9 -9.8 -12.9 -10.0 -12.35 -9.65 -12.15 -9.85 -12.9 -10.85 -12.3 -11.5 Q-12.25 -10.9 -11.9 -10.9 L-11.75 -10.95 -11.75 -11.15 -11.7 -11.15 Q-10.95 -11.15 -10.95 -11.9 L-10.95 -12.05 Q-10.55 -11.35 -10.15 -11.85 L-10.05 -11.7 Q-9.6 -9.5 -9.65 -7.3 L-9.8 -5.8 -10.1 -4.55 -10.2 -4.05 -10.55 -3.05 -11.95 0.1 Q-13.3 3.25 -15.55 5.5 L-16.95 6.95 -17.8 8.3 -18.8 9.5 -20.05 9.4 -20.45 9.1 -21.05 8.55 -21.45 8.15 -21.9 7.95 -22.9 4.6 -23.2 3.05 -23.4 0.15 -23.25 -1.65 -23.05 -2.7 Q-24.5 -1.6 -24.3 0.15 L-24.15 2.25 -24.05 3.05 -23.45 5.75 -22.0 10.2 -20.85 13.2 -20.45 14.35 -20.1 15.35 -20.0 15.75 -19.6 17.25 -19.3 16.85 M-20.9 -9.3 L-19.85 -10.25 Q-19.15 -11.0 -19.0 -11.4 L-19.2 -9.7 -19.35 -9.05 -20.9 -9.25 -20.9 -9.3 M-21.25 -2.1 L-21.2 -1.9 Q-19.7 -2.05 -18.4 -1.15 L-16.3 0.15 -16.3 0.1 -17.35 -0.75 -18.1 -1.7 Q-18.35 -2.15 -19.8 -2.45 -21.25 -2.75 -21.25 -2.1 M-16.65 -9.5 L-16.2 -9.65 -15.75 -9.25 -15.6 -8.4 -15.65 -7.8 -15.75 -7.6 -16.7 -7.65 -16.9 -7.8 -16.65 -7.8 Q-15.85 -7.8 -15.85 -8.7 -15.85 -9.45 -16.65 -9.5 M-9.85 -1.55 L-9.65 -2.9 -9.55 -2.1 -9.6 -1.9 -9.85 -1.55 M-10.6 1.55 L-10.5 2.65 -10.65 3.35 -11.8 3.8 -12.05 2.55 -11.15 0.65 -10.8 0.65 -10.6 1.55 M-12.3 5.25 Q-11.85 6.6 -13.0 7.45 -13.55 7.85 -14.2 7.45 L-15.4 6.7 -12.5 3.25 Q-12.65 4.2 -12.3 5.25" fill="#d2b5b5" fill-rule="evenodd" stroke="none"/>
    <path d="M32.9 -1.15 L33.2 -1.3 33.25 -1.3 Q34.25 -1.5 34.8 -2.4 L36.15 -4.35 36.75 -4.95 37.1 -3.8 Q37.2 -3.2 36.5 -2.15 35.65 -0.9 34.35 -0.7 33.35 -0.55 32.9 -1.15 M43.0 -2.9 L43.0 -3.05 Q43.4 -4.95 43.05 -6.9 42.8 -8.5 42.85 -10.35 42.85 -11.2 43.6 -11.35 L43.75 -11.2 44.0 -10.75 44.3 -10.35 44.85 -7.55 Q45.1 -3.4 43.0 -2.9 M48.45 -7.45 L48.7 -7.45 49.45 -8.85 Q49.85 -9.65 49.75 -10.55 49.65 -12.15 50.35 -13.55 L50.8 -13.8 51.3 -13.75 51.7 -13.4 51.9 -12.55 Q52.0 -11.85 51.05 -9.8 50.1 -7.6 49.05 -7.4 L48.45 -7.45" fill="url(#gradient0)" fill-rule="evenodd" stroke="none"/>
    <path d="M3.3 11.85 L3.75 9.9 Q4.45 8.05 5.8 6.1 7.95 3.05 10.65 0.4 13.5 -2.45 17.25 -3.85 L22.25 -4.1 Q23.95 -4.55 24.9 -5.4 26.45 -6.6 28.0 -6.7 L28.05 -6.5 Q28.15 -5.65 26.55 -3.85 25.1 -2.0 23.5 -1.7 21.8 -1.45 17.4 0.15 13.0 1.75 11.55 4.35 L8.4 9.3 7.95 9.9 Q5.3 18.9 4.4 20.2 L3.8 18.25 3.15 15.4 3.1 14.85 3.1 14.75 3.3 13.15 3.2 12.8 3.3 11.85" fill="url(#gradient1)" fill-rule="evenodd" stroke="none"/>
    <path d="M-25.2 -12.75 L-24.4 -13.1 Q-22.85 -13.5 -22.85 -11.5 -22.85 -11.05 -23.5 -10.25 -24.2 -9.35 -24.7 -9.35 -25.85 -9.35 -25.95 -10.95 L-25.9 -11.3 -25.45 -12.2 -25.4 -12.4 -25.2 -12.75 M-26.65 -8.65 L-23.3 -9.1 -22.25 -8.95 -22.15 -8.75 -22.0 -8.6 -21.8 -8.6 -21.5 -8.6 -21.45 -8.75 -20.15 -8.45 -18.6 -7.8 Q-16.45 -6.75 -16.45 -6.2 -16.45 -5.15 -17.45 -5.15 L-19.2 -5.6 -21.75 -6.1 Q-24.95 -6.1 -26.4 -2.75 -27.35 -0.45 -27.35 2.8 L-27.3 3.05 -26.35 11.1 -26.45 12.1 -26.5 12.2 -26.65 12.25 -28.2 8.5 Q-29.3 5.55 -29.7 3.05 L-29.9 1.45 Q-30.15 -1.65 -29.3 -5.1 -29.0 -6.2 -27.9 -7.2 L-26.8 -8.1 -26.65 -8.65 M-20.9 -9.3 L-21.6 -9.5 -21.75 -9.9 -21.85 -10.25 -21.8 -10.85 -19.8 -12.2 -19.7 -12.3 -19.35 -12.55 -19.15 -12.4 -19.05 -12.15 -19.0 -11.4 Q-19.15 -11.0 -19.85 -10.25 L-20.9 -9.3 M-10.95 -12.05 L-10.95 -11.9 Q-10.95 -11.15 -11.7 -11.15 L-11.75 -11.15 -11.9 -11.5 Q-11.8 -12.4 -11.35 -12.4 L-11.25 -12.35 -10.95 -12.05 M-12.9 -10.0 L-12.9 -9.8 -13.4 -8.55 -14.1 -7.35 -14.3 -7.55 -14.0 -8.6 -14.1 -8.75 -13.6 -10.65 -12.9 -10.0 M-17.25 -9.3 L-16.65 -9.5 Q-15.85 -9.45 -15.85 -8.7 -15.85 -7.8 -16.65 -7.8 L-16.9 -7.8 -17.25 -8.05 -17.35 -8.1 -17.45 -8.75 -17.25 -9.3" fill="url(#gradient2)" fill-rule="evenodd" stroke="none"/>
  </g>
  <defs>
    <radialGradient cx="0" cy="0" gradientTransform="matrix(0.0177, -0.0204, 0.0142, 0.0123, -144.5, 38.3)" gradientUnits="userSpaceOnUse" id="gradient0" r="819.2" spreadMethod="pad">
      <stop offset="0.47843137254901963" stop-color="#ffffff"></stop>
      <stop offset="0.8823529411764706" stop-color="#f2eaea"></stop>
    </radialGradient>
    <radialGradient cx="0" cy="0" gradientTransform="matrix(0.0177, -0.0533, 0.0142, 0.0321, -144.5, 83.95)" gradientUnits="userSpaceOnUse" id="gradient1" r="819.2" spreadMethod="pad">
      <stop offset="0.47843137254901963" stop-color="#ffffff"></stop>
      <stop offset="0.8823529411764706" stop-color="#f2eaea"></stop>
    </radialGradient>
    <radialGradient cx="0" cy="0" gradientTransform="matrix(0.0208, -0.0173, 0.012, 0.0145, -146.55, 17.2)" gradientUnits="userSpaceOnUse" id="gradient2" r="819.2" spreadMethod="pad">
      <stop offset="0.47843137254901963" stop-color="#ffffff"></stop>
      <stop offset="0.8823529411764706" stop-color="#f2eaea"></stop>
    </radialGradient>
  </defs>
</svg>