<?xml version="1.0" encoding="UTF-8" standalone="no"?>
<svg xmlns:xlink="http://www.w3.org/1999/xlink" height="10.95px" width="59.1px" xmlns="http://www.w3.org/2000/svg">
  <g transform="matrix(1.0, 0.0, 0.0, 1.0, -7.85, 34.3)">
    <path d="M9.9 -26.6 Q10.95 -27.25 10.95 -26.05 10.95 -25.55 10.35 -24.95 L9.25 -24.35 Q8.85 -24.35 8.85 -24.8 8.85 -25.9 9.9 -26.6 M16.65 -27.7 L16.15 -27.5 15.7 -27.75 15.5 -28.05 15.65 -28.0 Q15.8 -28.0 16.35 -28.35 16.85 -28.55 16.85 -28.0 L16.65 -27.7 M63.55 -26.9 Q63.55 -27.25 64.05 -27.25 L65.35 -27.05 65.95 -26.5 Q65.95 -26.25 65.5 -26.25 L64.15 -26.45 63.55 -26.9 M48.65 -32.45 L47.75 -32.3 47.55 -32.35 47.5 -32.5 Q47.5 -33.1 47.8 -33.2 L49.2 -33.3 50.25 -32.95 51.0 -32.4 Q51.0 -32.05 50.6 -32.05 L48.65 -32.45" fill="#ffffff" fill-rule="evenodd" stroke="none"/>
  </g>
</svg>