<?xml version="1.0" encoding="UTF-8" standalone="no"?>
<svg xmlns:xlink="http://www.w3.org/1999/xlink" height="38.4px" width="71.15px" xmlns="http://www.w3.org/2000/svg">
  <g transform="matrix(1.0, 0.0, 0.0, 1.0, 38.35, 18.15)">
    <path d="M15.9 -16.05 L13.1 -15.95 10.95 -15.45 9.1 -14.8 7.25 -13.8 5.65 -12.5 4.2 -10.95 2.85 -9.3 1.25 -6.4 Q0.7 -5.15 0.45 -3.75 L0.3 -2.7 0.2 0.2 0.5 3.55 0.75 5.3 1.2 3.9 1.3 3.6 1.45 3.15 1.9 2.0 2.65 0.35 3.55 -1.4 Q5.6 -5.0 9.05 -7.6 L11.35 -9.0 Q12.5 -9.65 13.8 -10.1 L14.35 -10.2 14.45 -10.2 17.55 -9.8 Q19.5 -9.5 21.0 -8.15 21.9 -7.25 22.65 -5.8 23.45 -4.25 23.45 -2.2 L23.45 -1.5 23.35 -0.45 23.15 0.3 23.15 0.25 22.95 0.9 22.7 1.55 22.45 2.0 22.25 2.35 Q21.15 4.35 19.4 6.15 17.65 7.95 15.2 9.3 L12.8 10.65 9.25 12.65 Q7.05 13.8 3.5 16.2 L3.5 16.15 2.05 16.85 1.35 17.15 1.9 16.7 2.65 16.05 3.05 15.75 Q4.05 14.95 5.15 14.25 L8.85 11.95 15.1 8.15 16.75 7.0 Q18.9 5.45 20.1 3.7 L21.9 0.6 22.3 -0.45 22.35 -2.2 Q22.4 -4.05 21.65 -5.7 L20.95 -7.15 Q19.25 -8.1 17.6 -8.5 L14.45 -8.7 14.35 -8.7 13.8 -8.6 10.2 -7.15 Q8.5 -6.25 7.35 -4.8 L6.0 -2.8 4.85 -0.85 3.8 1.1 2.8 3.1 1.85 5.1 0.65 7.9 0.65 8.05 Q0.2 7.4 0.1 6.25 L-0.25 3.65 -0.6 -0.25 -0.6 -1.6 -0.45 -3.0 -0.15 -4.35 -0.15 -4.4 0.2 -5.65 Q1.1 -8.7 3.2 -11.15 L6.2 -14.0 Q8.5 -16.0 11.4 -16.55 L13.1 -16.9 13.2 -16.9 14.3 -17.05 Q16.15 -17.25 17.85 -17.05 L21.25 -16.25 Q24.75 -14.95 25.55 -14.3 L26.8 -13.25 28.15 -11.9 29.75 -9.85 Q30.65 -8.5 31.15 -6.95 31.65 -5.45 31.75 -3.75 L31.75 -0.45 31.4 1.4 Q30.9 3.65 29.55 5.8 L27.4 8.55 25.6 10.1 Q24.15 11.25 22.3 12.05 L20.5 12.8 17.05 14.2 Q14.15 15.2 11.4 16.35 8.5 17.5 6.0 19.25 L6.3 18.9 7.2 17.95 Q8.15 17.05 9.3 16.4 11.75 14.95 14.4 14.1 17.35 13.35 20.45 11.95 L25.3 9.2 28.1 6.35 Q29.2 4.9 30.0 2.55 L30.85 -0.45 31.0 -3.8 30.55 -6.45 29.8 -8.05 27.9 -10.6 26.4 -12.4 24.05 -14.0 Q22.65 -14.9 19.25 -15.5 L19.0 -15.55 17.55 -15.8 17.45 -15.85 15.9 -16.05 M-27.55 -14.6 Q-28.35 -15.2 -29.2 -15.5 L-30.8 -15.85 -31.7 -15.85 -31.75 -15.85 -32.65 -15.65 -33.5 -15.4 -33.55 -15.35 Q-35.9 -14.4 -36.2 -11.5 -36.65 -7.9 -36.4 -5.0 L-36.35 -4.55 -36.3 -4.4 -36.2 -3.7 -36.15 -3.4 -36.0 -2.6 -36.0 -2.45 -35.85 -1.9 -35.8 -1.7 -34.75 1.35 Q-33.5 4.15 -30.05 8.5 L-30.8 3.0 -31.25 -2.4 -31.1 -6.85 Q-30.75 -8.6 -29.85 -9.6 L-29.2 -10.35 Q-28.45 -10.9 -27.6 -10.9 L-27.0 -10.75 Q-27.6 -10.7 -29.1 -9.85 -29.7 -9.05 -30.0 -7.6 L-28.7 -5.0 -27.95 -3.4 -27.75 -2.85 -27.7 -2.85 Q-25.7 1.8 -25.2 4.95 L-23.75 13.95 -23.2 17.0 -22.95 18.45 -23.4 17.85 -23.65 17.9 Q-24.7 15.55 -25.25 11.7 -25.65 7.45 -26.0 5.55 -26.6 2.0 -27.8 -1.35 -29.05 -4.7 -30.35 -6.3 L-30.55 -2.35 -30.05 2.9 -29.3 8.25 -29.3 9.9 -32.2 6.75 Q-34.45 4.25 -35.35 2.0 L-36.65 -1.35 Q-37.1 -2.45 -37.3 -6.8 -37.5 -11.2 -36.5 -13.5 -35.55 -15.8 -32.3 -16.75 -29.1 -17.75 -25.35 -13.4 -21.65 -9.1 -21.15 -3.5 L-20.3 7.55 Q-19.9 13.05 -17.75 18.25 L-18.5 18.25 -18.8 18.25 -19.0 17.65 -19.15 17.3 Q-21.45 10.7 -21.45 2.95 -21.45 -5.4 -24.55 -10.85 -25.4 -12.4 -26.35 -13.45 L-26.45 -13.55 -27.55 -14.6" fill="#a36a6a" fill-rule="evenodd" stroke="none"/>
    <path d="M0.45 -3.75 Q1.1 -3.3 1.9 -3.3 3.35 -3.3 5.15 -6.45 7.3 -10.1 9.15 -11.1 L13.05 -12.3 Q16.45 -13.5 16.45 -14.7 16.45 -15.5 15.9 -16.05 L17.45 -15.85 17.55 -15.8 17.55 -15.45 Q17.55 -14.85 17.9 -14.45 18.25 -14.05 18.75 -14.05 19.5 -14.05 19.5 -14.65 L19.25 -15.5 Q22.65 -14.9 24.05 -14.0 L26.4 -12.4 27.9 -10.6 29.8 -8.05 30.55 -6.45 31.0 -3.8 30.85 -0.45 30.0 2.55 Q29.2 4.9 28.1 6.35 L25.3 9.2 20.45 11.95 Q17.35 13.35 14.4 14.1 11.75 14.95 9.3 16.4 8.15 17.05 7.2 17.95 L6.3 18.9 5.3 19.05 Q3.6 19.05 2.75 18.45 L4.65 17.6 7.5 15.7 Q8.85 14.5 11.9 12.9 L17.65 9.95 Q20.4 8.55 22.0 6.45 23.6 4.35 23.6 2.15 23.6 1.25 23.15 0.3 L23.35 -0.45 23.45 -1.5 23.45 -2.2 Q23.45 -4.25 22.65 -5.8 21.9 -7.25 21.0 -8.15 19.5 -9.5 17.55 -9.8 L14.45 -10.2 14.35 -10.2 13.8 -10.1 Q12.5 -9.65 11.35 -9.0 L9.05 -7.6 Q5.6 -5.0 3.55 -1.4 L2.65 0.35 1.9 2.0 1.45 3.15 1.3 3.6 1.2 3.9 0.75 5.3 0.5 3.55 0.2 0.2 0.3 -2.7 0.45 -3.75 M3.05 15.75 L2.65 16.05 2.25 16.4 2.75 15.9 3.05 15.75 M-27.55 -14.6 Q-27.9 -14.5 -27.9 -14.1 -27.55 -12.9 -26.9 -12.9 -26.35 -12.9 -26.35 -13.35 L-26.35 -13.45 Q-25.4 -12.4 -24.55 -10.85 -21.45 -5.4 -21.45 2.95 -21.45 10.7 -19.15 17.3 L-19.0 17.65 -18.8 18.25 -18.5 18.25 -18.55 18.3 -19.2 18.3 -19.75 18.75 Q-20.2 19.2 -21.1 19.2 L-22.55 13.35 -23.35 7.05 Q-23.85 3.15 -24.7 0.8 -25.35 -1.35 -25.9 -2.35 -27.3 -4.25 -28.6 -4.95 L-28.7 -5.0 -30.0 -7.6 Q-29.7 -9.05 -29.1 -9.85 -27.6 -10.7 -27.0 -10.75 L-27.6 -10.9 Q-28.45 -10.9 -29.2 -10.35 L-29.85 -9.6 Q-30.75 -8.6 -31.1 -6.85 L-31.25 -2.4 -30.8 3.0 -30.05 8.5 Q-33.5 4.15 -34.75 1.35 L-35.8 -1.7 Q-34.2 -1.75 -33.6 -3.4 L-32.95 -7.7 Q-32.7 -9.35 -30.65 -11.05 -28.7 -12.65 -28.7 -14.05 -28.7 -14.8 -29.2 -15.5 -28.35 -15.2 -27.55 -14.6 M-30.3 -15.05 L-30.2 -15.1 -30.2 -15.05 -30.3 -15.05 M-33.5 -15.4 L-33.5 -15.3 -33.55 -15.35 -33.5 -15.4" fill="#d2b5b5" fill-rule="evenodd" stroke="none"/>
    <path d="M0.45 -3.75 Q0.7 -5.15 1.25 -6.4 L2.85 -9.3 4.2 -10.95 5.65 -12.5 7.25 -13.8 9.1 -14.8 10.95 -15.45 13.1 -15.95 15.9 -16.05 Q16.45 -15.5 16.45 -14.7 16.45 -13.5 13.05 -12.3 L9.15 -11.1 Q7.3 -10.1 5.15 -6.45 3.35 -3.3 1.9 -3.3 1.1 -3.3 0.45 -3.75 M17.55 -15.8 L19.0 -15.55 19.25 -15.5 19.5 -14.65 Q19.5 -14.05 18.75 -14.05 18.25 -14.05 17.9 -14.45 17.55 -14.85 17.55 -15.45 L17.55 -15.8 M2.05 16.85 L3.5 16.15 3.5 16.2 Q7.05 13.8 9.25 12.65 L12.8 10.65 15.2 9.3 Q17.65 7.95 19.4 6.15 21.15 4.35 22.25 2.35 L22.45 2.0 22.7 1.55 22.95 0.9 23.15 0.25 23.15 0.3 Q23.6 1.25 23.6 2.15 23.6 4.35 22.0 6.45 20.4 8.55 17.65 9.95 L11.9 12.9 Q8.85 14.5 7.5 15.7 L4.65 17.6 2.75 18.45 2.6 18.35 2.2 17.9 2.0 17.45 2.0 17.3 2.05 16.85" fill="url(#gradient0)" fill-rule="evenodd" stroke="none"/>
    <path d="M-30.3 -15.05 L-30.2 -15.05 -30.2 -15.1 -30.3 -15.05 M-26.35 -13.45 L-26.35 -13.35 Q-26.35 -12.9 -26.9 -12.9 -27.55 -12.9 -27.9 -14.1 -27.9 -14.5 -27.55 -14.6 L-26.45 -13.55 -26.35 -13.45 M-29.2 -15.5 Q-28.7 -14.8 -28.7 -14.05 -28.7 -12.65 -30.65 -11.05 -32.7 -9.35 -32.95 -7.7 L-33.6 -3.4 Q-34.2 -1.75 -35.8 -1.7 L-35.85 -1.9 -36.0 -2.45 -36.0 -2.6 -36.15 -3.4 -36.2 -3.7 -36.3 -4.4 -36.35 -4.55 -36.4 -5.0 Q-36.65 -7.9 -36.2 -11.5 -35.9 -14.4 -33.55 -15.35 L-33.5 -15.3 -33.5 -15.4 -32.65 -15.65 -31.75 -15.85 -31.7 -15.85 -30.8 -15.85 -29.2 -15.5 M-28.7 -5.0 L-28.6 -4.95 Q-27.3 -4.25 -25.9 -2.35 -25.35 -1.35 -24.7 0.8 -23.85 3.15 -23.35 7.05 L-22.55 13.35 -21.1 19.2 -21.2 19.2 -22.3 19.0 -23.1 18.45 -23.4 17.85 -22.95 18.45 -23.2 17.0 -23.75 13.95 -25.2 4.95 Q-25.7 1.8 -27.7 -2.85 L-27.75 -2.85 -27.95 -3.4 -28.7 -5.0" fill="url(#gradient1)" fill-rule="evenodd" stroke="none"/>
  </g>
  <defs>
    <radialGradient cx="0" cy="0" gradientTransform="matrix(0.0208, -0.0173, 0.012, 0.0145, -84.1, 10.35)" gradientUnits="userSpaceOnUse" id="gradient0" r="819.2" spreadMethod="pad">
      <stop offset="0.47843137254901963" stop-color="#ffffff"></stop>
      <stop offset="0.8823529411764706" stop-color="#f2eaea"></stop>
    </radialGradient>
    <radialGradient cx="0" cy="0" gradientTransform="matrix(0.0208, -0.0173, 0.012, 0.0145, -83.85, 8.1)" gradientUnits="userSpaceOnUse" id="gradient1" r="819.2" spreadMethod="pad">
      <stop offset="0.47843137254901963" stop-color="#ffffff"></stop>
      <stop offset="0.8823529411764706" stop-color="#f2eaea"></stop>
    </radialGradient>
  </defs>
</svg>