<?xml version="1.0" encoding="UTF-8" standalone="no"?>
<svg xmlns:xlink="http://www.w3.org/1999/xlink" height="14.2px" width="42.1px" xmlns="http://www.w3.org/2000/svg">
  <g transform="matrix(1.0, 0.0, 0.0, 1.0, -19.6, 18.55)">
    <path d="M24.8 -13.45 Q24.8 -13.85 25.3 -13.6 L25.8 -13.15 25.75 -12.95 25.55 -12.9 Q25.2 -12.9 24.95 -13.2 L24.8 -13.45 M23.8 -14.45 Q23.8 -14.05 23.35 -14.05 22.85 -14.05 21.7 -14.75 20.6 -15.35 20.6 -15.45 20.6 -15.9 21.3 -15.9 22.25 -15.9 23.1 -15.3 L23.8 -14.45 M25.45 -17.25 L27.35 -17.15 Q29.2 -16.35 29.2 -15.7 29.2 -15.3 28.85 -15.3 L26.9 -16.45 Q25.45 -17.45 25.45 -17.25 M29.95 -14.5 L29.6 -14.5 29.55 -14.7 29.6 -14.9 Q29.9 -14.9 30.05 -14.7 L29.95 -14.5 M58.3 -14.35 Q58.3 -15.45 59.5 -14.15 60.7 -12.85 60.7 -11.75 L60.4 -10.6 59.0 -12.8 Q58.3 -14.05 58.3 -14.35 M50.0 -7.1 L47.7 -8.65 45.75 -9.2 Q44.9 -9.4 44.9 -9.85 44.9 -10.45 46.3 -10.15 47.55 -9.9 48.6 -9.3 L49.55 -8.2 50.25 -7.15 50.0 -7.1 M56.1 -8.8 L56.3 -8.55 56.25 -8.45 56.2 -8.35 55.85 -8.5 56.0 -8.65 56.1 -8.8 M60.65 -8.8 L60.4 -8.65 60.2 -8.7 60.15 -9.1 60.6 -9.05 60.65 -8.8 M52.55 -11.65 Q52.3 -11.95 50.7 -12.45 L48.8 -13.15 Q50.45 -14.1 53.05 -12.4 55.4 -10.9 55.4 -9.9 L55.25 -9.7 55.05 -9.6 53.75 -10.45 52.55 -11.65 M51.5 -5.55 L51.25 -5.35 51.0 -5.45 50.95 -5.9 Q51.35 -5.9 51.5 -5.55" fill="#ffffff" fill-opacity="0.8" fill-rule="evenodd" stroke="none"/>
  </g>
</svg>