<?xml version="1.0" encoding="UTF-8" standalone="no"?>
<svg xmlns:xlink="http://www.w3.org/1999/xlink" height="20.1px" width="40.8px" xmlns="http://www.w3.org/2000/svg">
  <g transform="matrix(1.0, 0.0, 0.0, 1.0, 26.55, -2.8)">
    <path d="M0.05 18.8 L3.05 12.35 3.9 10.65 4.7 9.15 5.4 7.9 6.0 6.9 7.0 5.65 Q7.5 5.15 8.1 4.75 L9.15 4.0 10.3 3.8 Q11.15 3.8 11.9 4.15 L12.8 4.85 Q13.1 5.3 13.2 5.9 L13.2 7.85 12.75 9.7 12.15 11.1 11.4 12.65 10.45 14.2 9.5 15.7 6.5 19.25 6.05 19.25 5.95 19.05 5.9 18.95 5.9 18.9 6.4 17.95 7.8 15.7 8.85 14.05 9.9 12.45 10.5 11.45 11.0 10.55 11.75 8.8 12.1 7.75 12.3 6.65 Q11.7 5.15 11.2 5.0 L9.95 4.9 Q9.2 5.0 8.4 5.7 L7.05 7.05 6.0 8.6 5.5 9.55 5.05 10.4 4.3 11.85 3.7 13.1 3.3 14.05 3.05 14.55 Q1.95 16.9 1.9 17.45 L1.05 18.3 0.4 18.6 0.3 18.65 Q0.15 18.75 0.05 18.8 M-18.4 20.6 L-18.75 19.15 -18.95 18.45 -19.75 15.2 Q-20.35 12.7 -21.05 11.3 L-21.45 10.6 Q-21.8 9.7 -22.85 9.55 L-23.0 9.5 -23.05 9.5 Q-24.25 9.5 -24.5 10.6 L-24.5 11.75 Q-24.5 13.7 -23.65 16.55 L-22.9 18.85 -22.7 19.4 -21.95 21.45 -22.15 21.25 -22.35 21.0 Q-23.8 19.3 -24.65 16.8 -25.55 14.2 -25.55 11.65 -25.55 8.65 -23.05 8.35 -20.45 8.0 -19.3 12.55 L-18.15 16.95 Q-17.9 18.05 -17.9 20.45 L-17.95 20.8 -18.05 20.8 -18.0 20.85 -18.3 20.9 -18.4 20.6" fill="#a36a6a" fill-rule="evenodd" stroke="none"/>
    <path d="M5.95 19.05 L4.6 19.4 2.15 19.25 1.85 18.55 Q1.8 18.2 1.35 18.25 L1.05 18.3 1.9 17.45 Q1.95 16.9 3.05 14.55 L3.3 14.05 4.35 13.9 5.25 13.6 7.65 9.95 Q8.2 8.9 9.5 8.0 9.85 7.7 11.55 7.5 L11.75 7.4 11.35 8.05 12.3 6.65 12.1 7.75 11.75 8.8 11.0 10.55 10.5 11.45 9.9 12.45 8.85 14.05 7.8 15.7 6.4 17.95 5.9 18.9 5.9 18.95 5.95 19.05 M0.4 18.6 L0.05 18.8 Q0.15 18.75 0.3 18.65 L0.4 18.6 M-21.05 11.3 Q-20.35 12.7 -19.75 15.2 L-18.95 18.45 -18.75 19.15 -18.4 20.6 -18.85 21.15 Q-19.6 21.9 -20.85 21.9 -21.95 21.9 -22.45 20.9 L-22.35 21.0 -22.15 21.25 -21.95 21.45 -22.7 19.4 -22.9 18.85 -22.65 18.5 Q-22.4 18.05 -22.4 17.6 L-22.9 15.45 Q-23.2 14.2 -22.35 13.55 -21.55 12.9 -21.05 11.3" fill="#d2b5b5" fill-rule="evenodd" stroke="none"/>
    <path d="M12.3 6.65 L11.35 8.05 11.75 7.4 11.55 7.5 Q9.85 7.7 9.5 8.0 8.2 8.9 7.65 9.95 L5.25 13.6 4.35 13.9 3.3 14.05 3.7 13.1 4.3 11.85 5.05 10.4 5.5 9.55 6.0 8.6 7.05 7.05 8.4 5.7 Q9.2 5.0 9.95 4.9 L11.2 5.0 Q11.7 5.15 12.3 6.65" fill="url(#gradient0)" fill-rule="evenodd" stroke="none"/>
    <path d="M-22.9 18.85 L-23.65 16.55 Q-24.5 13.7 -24.5 11.75 L-24.5 10.6 Q-24.25 9.5 -23.05 9.5 L-23.0 9.5 -22.85 9.55 Q-21.8 9.7 -21.45 10.6 L-21.05 11.3 Q-21.55 12.9 -22.35 13.55 -23.2 14.2 -22.9 15.45 L-22.4 17.6 Q-22.4 18.05 -22.65 18.5 L-22.9 18.85" fill="url(#gradient1)" fill-rule="evenodd" stroke="none"/>
  </g>
  <defs>
    <radialGradient cx="0" cy="0" gradientTransform="matrix(0.0167, -0.0213, 0.0148, 0.0116, -148.9, 44.45)" gradientUnits="userSpaceOnUse" id="gradient0" r="819.2" spreadMethod="pad">
      <stop offset="0.47843137254901963" stop-color="#ffffff"></stop>
      <stop offset="0.8823529411764706" stop-color="#f2eaea"></stop>
    </radialGradient>
    <radialGradient cx="0" cy="0" gradientTransform="matrix(0.0208, -0.0173, 0.012, 0.0145, -150.4, 12.6)" gradientUnits="userSpaceOnUse" id="gradient1" r="819.2" spreadMethod="pad">
      <stop offset="0.47843137254901963" stop-color="#ffffff"></stop>
      <stop offset="0.8823529411764706" stop-color="#f2eaea"></stop>
    </radialGradient>
  </defs>
</svg>