<?xml version="1.0" encoding="UTF-8" standalone="no"?>
<svg xmlns:xlink="http://www.w3.org/1999/xlink" height="26.05px" width="60.1px" xmlns="http://www.w3.org/2000/svg">
  <g transform="matrix(1.0, 0.0, 0.0, 1.0, 34.45, 5.7)">
    <path d="M2.85 17.0 L2.8 17.0 Q2.35 17.05 2.3 16.55 L3.95 15.25 4.4 14.8 Q6.8 12.4 7.7 10.0 8.6 7.6 7.85 5.65 7.1 3.75 7.95 1.0 8.8 -1.75 11.15 -3.45 13.35 -5.25 19.35 -4.5 22.25 -2.7 23.4 -1.1 24.3 0.15 24.6 2.35 25.15 6.7 20.8 8.6 15.85 10.05 14.7 10.65 13.1 11.65 12.0 12.8 L10.15 15.05 8.85 17.45 Q7.95 19.1 7.55 19.15 L7.3 19.1 7.25 19.0 7.2 18.8 7.2 18.45 Q7.35 17.2 9.3 14.4 11.5 11.35 12.9 10.5 13.35 10.2 17.95 8.5 22.05 7.0 22.5 6.3 L23.4 4.15 Q23.6 3.5 23.45 2.45 23.2 0.45 21.75 -1.35 L21.3 -1.85 21.3 -1.9 Q19.55 -3.65 17.05 -3.9 L14.75 -3.85 Q11.55 -3.45 9.95 -0.6 L9.75 -0.3 9.6 0.0 Q8.6 2.0 8.8 3.6 L8.85 3.9 9.2 5.95 Q9.6 9.25 7.0 13.2 L4.15 16.45 3.8 16.7 2.85 17.0 M-28.5 8.25 L-25.55 10.7 Q-24.65 11.65 -23.65 14.7 -22.95 16.75 -22.9 17.85 L-23.0 18.75 -23.05 18.95 -23.45 18.9 -24.0 17.25 -24.45 15.05 Q-25.15 13.1 -25.4 12.75 -26.0 11.55 -27.05 10.4 -27.8 9.65 -31.45 7.25 -34.45 4.6 -32.9 1.25 -32.15 -0.45 -31.05 -1.2 -29.8 -2.2 -27.05 -2.95 -22.05 -2.5 -20.75 -0.4 -19.5 1.7 -19.45 4.05 -19.4 6.3 -20.3 7.8 -21.15 9.25 -21.2 10.3 -21.1 13.65 -19.8 16.2 L-19.1 17.45 -18.9 17.75 -18.65 18.05 -18.55 18.2 -18.8 18.45 -19.05 18.45 -19.1 18.4 -19.9 17.7 Q-20.75 16.65 -21.45 14.3 -22.6 10.45 -21.45 7.95 L-20.75 5.9 Q-20.25 4.8 -20.5 2.35 -20.8 -0.05 -23.5 -1.25 -24.7 -1.8 -25.8 -1.95 L-28.0 -1.8 Q-28.9 -1.6 -29.7 -1.05 -31.35 0.1 -32.05 1.6 L-32.4 3.0 -32.2 4.8 -32.2 4.9 Q-32.05 5.6 -29.05 7.85 L-28.5 8.25" fill="#a36a6a" fill-rule="evenodd" stroke="none"/>
    <path d="M2.85 17.0 L3.8 16.7 4.15 16.45 7.0 13.2 Q9.6 9.25 9.2 5.95 L8.85 3.9 8.8 3.6 9.0 4.0 Q10.4 6.65 12.9 6.65 17.9 6.65 20.25 3.6 21.75 1.7 21.75 -0.15 21.75 -1.05 21.3 -1.85 L21.75 -1.35 Q23.2 0.45 23.45 2.45 23.6 3.5 23.4 4.15 L22.5 6.3 Q22.05 7.0 17.95 8.5 13.35 10.2 12.9 10.5 11.5 11.35 9.3 14.4 7.35 17.2 7.2 18.45 L7.2 18.8 7.25 19.0 7.3 19.1 6.15 19.25 Q4.8 19.25 3.75 18.3 2.9 17.55 2.85 17.0 M-28.5 8.25 L-28.25 8.25 Q-24.65 8.25 -23.25 5.5 -22.55 4.1 -22.55 2.35 -22.55 -0.15 -25.45 -1.75 L-25.8 -1.95 Q-24.7 -1.8 -23.5 -1.25 -20.8 -0.05 -20.5 2.35 -20.25 4.8 -20.75 5.9 L-21.45 7.95 Q-22.6 10.45 -21.45 14.3 -20.75 16.65 -19.9 17.7 L-19.1 18.4 -19.05 18.45 -18.8 18.45 -19.4 18.95 Q-20.2 19.35 -21.2 19.35 L-23.1 19.0 -23.05 18.95 -23.0 18.75 -22.9 17.85 Q-22.95 16.75 -23.65 14.7 -24.65 11.65 -25.55 10.7 L-28.5 8.25 M-18.65 18.05 L-18.9 17.75 -19.1 17.45 Q-18.65 17.45 -18.65 17.9 L-18.65 18.05" fill="#d2b5b5" fill-rule="evenodd" stroke="none"/>
    <path d="M8.8 3.6 Q8.6 2.0 9.6 0.0 L9.75 -0.3 9.95 -0.6 Q11.55 -3.45 14.75 -3.85 L17.05 -3.9 Q19.55 -3.65 21.3 -1.9 L21.3 -1.85 Q21.75 -1.05 21.75 -0.15 21.75 1.7 20.25 3.6 17.9 6.65 12.9 6.65 10.4 6.65 9.0 4.0 L8.8 3.6 M-25.8 -1.95 L-25.45 -1.75 Q-22.55 -0.15 -22.55 2.35 -22.55 4.1 -23.25 5.5 -24.65 8.25 -28.25 8.25 L-28.5 8.25 -29.05 7.85 Q-32.05 5.6 -32.2 4.9 L-32.2 4.8 -32.4 3.0 -32.05 1.6 Q-31.35 0.1 -29.7 -1.05 -28.9 -1.6 -28.0 -1.8 L-25.8 -1.95" fill="url(#gradient0)" fill-rule="evenodd" stroke="none"/>
  </g>
  <defs>
    <radialGradient cx="0" cy="0" gradientTransform="matrix(0.0208, -0.0173, 0.012, 0.0145, -194.5, 30.7)" gradientUnits="userSpaceOnUse" id="gradient0" r="819.2" spreadMethod="pad">
      <stop offset="0.47843137254901963" stop-color="#ffffff"></stop>
      <stop offset="0.8823529411764706" stop-color="#f2eaea"></stop>
    </radialGradient>
  </defs>
</svg>