<?xml version="1.0" encoding="UTF-8" standalone="no"?>
<svg xmlns:xlink="http://www.w3.org/1999/xlink" height="32.85px" width="67.1px" xmlns="http://www.w3.org/2000/svg">
  <g transform="matrix(1.0, 0.0, 0.0, 1.0, 36.35, 10.85)">
    <path d="M2.5 -6.75 L2.9 -6.85 Q6.4 -7.3 7.45 -6.4 L8.55 -5.15 8.7 -4.95 Q9.4 -3.95 10.25 -0.5 L10.5 2.0 10.5 2.05 10.0 4.85 10.0 4.95 8.75 8.35 Q6.8 12.15 4.4 13.9 L2.85 14.75 2.65 14.8 2.0 14.95 1.8 14.8 Q7.75 10.85 9.0 4.65 10.0 0.05 8.4 -3.9 6.95 -7.75 1.15 -5.5 L0.2 -4.8 0.25 -5.55 0.9 -6.85 Q1.6 -7.6 3.25 -8.8 8.2 -11.15 12.05 -8.3 14.55 -6.5 15.6 -3.8 L16.2 -1.4 16.25 -1.3 17.0 -2.0 Q17.2 -2.3 18.95 -3.0 23.1 -4.65 26.4 -1.9 28.4 -0.25 29.25 1.85 30.35 6.7 29.0 8.4 L28.45 6.85 Q26.15 1.0 19.6 3.7 15.25 5.35 12.1 11.4 10.5 14.4 9.5 17.75 L9.3 17.3 9.1 16.75 9.1 16.1 Q9.35 14.45 12.0 9.8 15.25 4.05 19.85 2.55 24.4 1.0 26.85 2.95 28.25 4.0 28.9 5.9 L28.85 3.6 28.25 1.5 28.1 1.2 27.75 0.5 27.35 -0.15 27.3 -0.1 25.7 -1.6 Q23.35 -3.3 20.6 -2.75 L19.45 -2.4 19.25 -2.35 Q17.5 -1.65 16.7 -0.8 L16.15 -0.05 15.8 0.0 15.7 -0.2 15.35 -1.8 14.9 -3.5 13.25 -6.05 12.0 -7.25 Q10.75 -8.25 9.35 -8.75 7.0 -9.45 4.35 -8.4 L2.95 -7.65 2.25 -7.15 1.4 -6.45 2.5 -6.75 M-22.5 20.55 L-23.15 21.0 Q-23.35 19.5 -23.8 18.1 L-24.65 15.65 -26.6 10.1 -28.0 6.8 -30.35 2.5 -31.8 3.6 -34.2 6.3 -34.7 6.2 -34.9 5.55 Q-35.55 3.05 -35.25 0.45 -34.9 -1.75 -33.3 -3.2 L-30.7 -3.85 Q-29.45 -4.05 -28.45 -3.25 L-27.3 -4.75 Q-26.15 -5.7 -24.55 -5.55 -22.5 -5.4 -21.15 -3.75 -20.4 -2.85 -19.75 -1.55 -18.85 0.2 -19.1 2.15 L-19.85 1.3 Q-21.05 0.15 -22.65 -0.3 -23.75 0.95 -23.55 2.75 L-22.6 7.35 Q-21.0 12.85 -17.7 17.65 L-18.45 18.05 -18.7 17.75 -19.15 17.2 -21.3 13.25 -21.25 13.25 -22.1 11.2 -23.3 7.45 -24.3 3.35 Q-24.8 1.2 -22.6 -0.85 -21.1 -0.9 -19.95 0.4 -20.35 -1.55 -21.5 -3.4 L-21.8 -3.8 Q-22.55 -4.45 -24.4 -4.7 -26.75 -5.1 -27.9 -2.8 L-26.45 -1.1 -26.45 -0.95 -26.5 -0.85 -27.95 -2.1 Q-28.35 -2.5 -28.8 -2.7 L-30.65 -3.05 -30.75 -3.0 -31.6 -2.95 Q-32.8 -2.7 -33.85 -1.6 -34.25 -1.05 -34.4 0.95 L-34.45 4.2 -34.45 4.9 -32.85 3.7 -32.35 3.4 -32.35 3.35 Q-32.2 3.1 -31.9 3.0 L-31.25 2.6 -30.7 2.15 -29.7 2.2 Q-28.6 4.0 -27.65 5.95 L-27.6 6.1 -26.6 8.25 -26.5 8.55 -26.0 9.95 -25.5 11.4 -25.05 12.5 -24.7 13.65 -24.1 15.5 -22.8 19.15 -22.5 20.55" fill="#a36a6a" fill-rule="evenodd" stroke="none"/>
    <path d="M8.7 -4.95 L9.55 -4.3 Q10.95 -3.45 11.9 -3.6 13.55 -3.85 13.3 -5.55 L13.25 -6.05 14.9 -3.5 15.35 -1.8 15.7 -0.2 15.8 0.0 16.15 -0.05 16.7 -0.8 Q17.5 -1.65 19.25 -2.35 L19.45 -2.4 20.0 -1.75 Q21.1 -0.6 22.2 -0.65 L24.4 -0.55 25.4 0.0 26.05 0.8 Q26.8 1.4 27.8 1.25 L28.1 1.2 28.25 1.5 28.85 3.6 28.9 5.9 Q28.25 4.0 26.85 2.95 24.4 1.0 19.85 2.55 15.25 4.05 12.0 9.8 9.35 14.45 9.1 16.1 L9.1 16.75 9.3 17.3 8.9 17.65 Q8.1 18.4 7.1 18.55 L5.15 18.45 8.25 13.5 Q11.7 7.6 11.3 4.85 L10.5 2.05 10.5 2.0 10.25 -0.5 Q9.4 -3.95 8.7 -4.95 M2.25 -7.15 L2.25 -6.9 2.5 -6.75 1.4 -6.45 2.25 -7.15 M-26.5 8.55 L-26.6 8.25 -26.5 8.5 -26.5 8.55 M-27.65 5.95 Q-28.6 4.0 -29.7 2.2 L-30.7 2.15 -31.25 2.6 -31.9 3.0 Q-32.2 3.1 -32.35 3.35 L-31.6 2.0 -29.9 0.55 Q-28.35 -0.95 -28.55 -2.15 L-28.8 -2.7 Q-28.35 -2.5 -27.95 -2.1 L-26.5 -0.85 -26.45 -0.95 -26.1 -1.0 -25.25 -1.7 -24.5 -2.45 Q-23.2 -3.15 -22.1 -3.45 L-21.8 -3.8 -21.5 -3.4 Q-20.35 -1.55 -19.95 0.4 -21.1 -0.9 -22.6 -0.85 -24.8 1.2 -24.3 3.35 L-23.3 7.45 -22.1 11.2 -21.25 13.25 -21.3 13.25 -19.15 17.2 -18.7 17.75 -18.45 18.05 -19.4 18.6 -20.25 19.1 -20.7 17.8 -22.7 13.2 -24.65 8.8 -26.35 6.6 Q-27.0 6.1 -27.65 5.95" fill="#d2b5b5" fill-rule="evenodd" stroke="none"/>
    <path d="M8.7 -4.95 L8.55 -5.15 7.45 -6.4 Q6.4 -7.3 2.9 -6.85 L2.5 -6.75 2.25 -6.9 2.25 -7.15 2.95 -7.65 4.35 -8.4 Q7.0 -9.45 9.35 -8.75 10.75 -8.25 12.0 -7.25 L13.25 -6.05 13.3 -5.55 Q13.55 -3.85 11.9 -3.6 10.95 -3.45 9.55 -4.3 L8.7 -4.95 M5.15 18.45 L4.0 17.9 3.4 17.4 2.2 15.85 Q2.1 15.25 2.65 14.8 L2.85 14.75 4.4 13.9 Q6.8 12.15 8.75 8.35 L10.0 4.95 10.0 4.85 10.5 2.05 11.3 4.85 Q11.7 7.6 8.25 13.5 L5.15 18.45 M28.1 1.2 L27.8 1.25 Q26.8 1.4 26.05 0.8 L25.4 0.0 24.4 -0.55 22.2 -0.65 Q21.1 -0.6 20.0 -1.75 L19.45 -2.4 20.6 -2.75 Q23.35 -3.3 25.7 -1.6 L27.3 -0.1 27.35 -0.15 27.75 0.5 28.1 1.2" fill="url(#gradient0)" fill-rule="evenodd" stroke="none"/>
    <path d="M-22.5 20.55 L-22.8 19.15 -24.1 15.5 -24.7 13.65 -25.05 12.5 -25.5 11.4 -26.0 9.95 -26.5 8.55 -26.5 8.5 -26.6 8.25 -27.6 6.1 -27.65 5.95 Q-27.0 6.1 -26.35 6.6 L-24.65 8.8 -22.7 13.2 -20.7 17.8 -20.25 19.1 -22.5 20.55 M-32.35 3.35 L-32.35 3.4 -32.85 3.7 -34.45 4.9 -34.45 4.2 -34.4 0.95 Q-34.25 -1.05 -33.85 -1.6 -32.8 -2.7 -31.6 -2.95 L-30.75 -3.0 -30.65 -3.05 -28.8 -2.7 -28.55 -2.15 Q-28.35 -0.95 -29.9 0.55 L-31.6 2.0 -32.35 3.35 M-26.45 -0.95 L-26.45 -1.1 -27.9 -2.8 Q-26.75 -5.1 -24.4 -4.7 -22.55 -4.45 -21.8 -3.8 L-22.1 -3.45 Q-23.2 -3.15 -24.5 -2.45 L-25.25 -1.7 -26.1 -1.0 -26.45 -0.95" fill="url(#gradient1)" fill-rule="evenodd" stroke="none"/>
  </g>
  <defs>
    <radialGradient cx="0" cy="0" gradientTransform="matrix(0.018, -0.0202, 0.014, 0.0125, -82.95, 43.7)" gradientUnits="userSpaceOnUse" id="gradient0" r="819.2" spreadMethod="pad">
      <stop offset="0.47843137254901963" stop-color="#ffffff"></stop>
      <stop offset="0.8823529411764706" stop-color="#f2eaea"></stop>
    </radialGradient>
    <radialGradient cx="0" cy="0" gradientTransform="matrix(0.0159, -0.0246, 0.0155, 0.0142, -80.25, 48.65)" gradientUnits="userSpaceOnUse" id="gradient1" r="819.2" spreadMethod="pad">
      <stop offset="0.47843137254901963" stop-color="#ffffff"></stop>
      <stop offset="0.8823529411764706" stop-color="#f2eaea"></stop>
    </radialGradient>
  </defs>
</svg>