<?xml version="1.0" encoding="UTF-8" standalone="no"?>
<svg xmlns:xlink="http://www.w3.org/1999/xlink" height="13.25px" width="62.4px" xmlns="http://www.w3.org/2000/svg">
  <g transform="matrix(1.0, 0.0, 0.0, 1.0, -9.55, 41.95)">
    <path d="M21.1 -32.5 L21.05 -32.85 Q21.05 -33.75 21.5 -33.4 L21.95 -32.45 21.9 -32.2 21.6 -32.1 Q21.25 -32.1 21.1 -32.5 M21.65 -35.55 Q21.65 -34.6 20.75 -34.6 20.05 -34.6 19.9 -35.15 L19.9 -35.7 Q19.9 -36.95 20.8 -36.9 21.65 -36.85 21.65 -35.55 M11.05 -32.2 L10.7 -32.3 10.65 -32.6 Q10.65 -33.3 11.25 -34.1 11.8 -34.9 11.8 -33.75 11.5 -32.2 11.05 -32.2 M11.05 -30.0 L10.95 -29.75 10.6 -29.7 10.55 -29.9 10.7 -30.1 10.85 -30.25 11.05 -30.0 M70.2 -35.85 Q69.4 -34.9 68.85 -34.9 68.5 -34.9 68.5 -35.25 L68.75 -35.95 69.0 -36.8 Q69.0 -37.45 70.0 -37.8 70.95 -38.1 70.95 -37.0 L70.2 -35.85 M52.65 -37.2 L52.35 -36.65 51.8 -36.25 51.5 -36.4 51.5 -36.95 52.3 -37.6 Q52.65 -37.7 52.65 -37.2 M54.55 -40.8 Q56.1 -41.35 56.1 -40.15 56.1 -39.55 55.65 -39.1 55.05 -38.5 53.95 -38.5 53.35 -38.5 53.1 -38.85 L53.0 -39.2 Q53.0 -40.3 54.55 -40.8 M52.35 -34.45 L52.3 -34.25 52.15 -34.2 Q51.75 -34.2 51.75 -34.6 L52.1 -35.15 52.35 -34.45" fill="#ffffff" fill-rule="evenodd" stroke="none"/>
  </g>
</svg>