<?xml version="1.0" encoding="UTF-8" standalone="no"?>
<svg xmlns:xlink="http://www.w3.org/1999/xlink" height="14.55px" width="74.2px" xmlns="http://www.w3.org/2000/svg">
  <g transform="matrix(1.0, 0.0, 0.0, 1.0, -13.1, 37.6)">
    <path d="M25.9 -33.05 L26.25 -32.85 26.15 -32.55 25.9 -32.55 25.55 -32.75 25.9 -33.05 M29.05 -32.85 Q28.7 -32.85 28.65 -33.15 L28.65 -33.45 Q28.65 -34.05 29.0 -34.0 29.35 -33.95 29.35 -33.4 29.35 -32.85 29.05 -32.85 M23.1 -35.25 Q22.7 -34.85 22.35 -34.85 22.1 -34.85 22.1 -35.15 22.1 -35.5 22.8 -35.85 23.45 -36.2 23.45 -35.7 L23.1 -35.25 M31.0 -35.05 L30.7 -35.15 30.65 -35.4 Q30.65 -35.85 31.15 -36.05 31.6 -36.25 31.6 -35.75 31.4 -35.05 31.0 -35.05 M18.15 -36.35 L18.95 -36.4 18.2 -35.35 17.9 -35.75 18.15 -36.35 M17.3 -31.75 L15.95 -29.85 Q14.6 -28.0 14.6 -26.2 L14.55 -25.9 14.4 -25.75 Q14.1 -26.85 14.1 -27.75 14.1 -31.7 17.25 -32.1 L17.3 -31.75 M18.95 -31.8 L18.6 -31.95 19.1 -32.15 19.2 -31.95 18.95 -31.8 M64.3 -28.15 Q65.0 -28.15 65.0 -27.8 65.0 -27.4 64.25 -27.4 63.6 -27.4 63.6 -27.8 63.6 -28.15 64.3 -28.15 M69.25 -30.2 L68.95 -29.75 68.45 -29.45 67.9 -29.55 Q67.9 -29.9 68.25 -30.25 68.6 -30.65 69.15 -30.5 L69.25 -30.2 M57.6 -25.8 L54.25 -24.05 54.2 -24.2 Q54.2 -25.2 56.95 -26.45 59.7 -27.7 61.45 -27.35 61.2 -26.8 59.8 -26.4 L57.6 -25.8 M86.3 -33.65 L86.15 -32.9 Q86.15 -32.8 85.9 -32.8 85.65 -32.8 85.55 -33.2 L85.5 -33.6 Q85.5 -34.3 85.9 -34.6 L86.3 -33.65" fill="#ffffff" fill-rule="evenodd" stroke="none"/>
  </g>
</svg>