<?xml version="1.0" encoding="UTF-8" standalone="no"?>
<svg xmlns:xlink="http://www.w3.org/1999/xlink" height="31.8px" width="26px" xmlns="http://www.w3.org/2000/svg">
  <g transform="matrix(1.0, 0.0, 0.0, 1.0, 11.5, 13.7)">
    <path d="M6.3 -9.75 L6.4 -9.8 6.3 -9.75 4.8 -9.6 Q2.7 -9.6 1.1 -10.2 L-1.0 -11.2 -2.9 -11.85 -3.9 -12.15 -6.4 -12.2 -6.5 -12.3 -5.6 -12.6 -3.9 -12.7 Q-2.55 -12.6 -1.1 -11.95 2.7 -10.2 4.85 -10.2 L7.8 -10.4 6.85 -9.2 Q6.0 -8.4 5.15 -8.35 7.3 -7.25 8.45 -4.5 9.4 -2.15 9.95 -2.15 11.35 -2.15 11.8 -2.75 L12.0 -3.4 Q12.0 -3.8 11.4 -4.25 12.65 -4.45 13.1 -3.75 13.5 -3.1 13.5 -2.55 13.5 0.0 10.65 0.1 L10.95 0.65 11.05 1.35 10.7 3.05 Q10.35 4.25 10.35 4.85 10.35 5.7 10.7 7.15 L10.95 8.05 10.1 7.6 9.9 7.45 8.7 6.7 8.85 7.85 Q8.85 9.65 5.45 10.7 2.05 11.7 2.05 13.9 2.05 14.65 2.85 14.55 L3.9 14.25 Q3.75 14.45 3.95 15.15 4.1 15.8 3.35 16.45 2.6 17.1 1.65 17.1 -0.2 17.1 -0.5 15.85 L-0.4 13.95 -2.9 14.25 -4.95 14.55 Q-5.35 13.85 -4.95 13.2 L-4.3 11.45 Q-6.0 12.1 -8.7 14.7 L-8.5 11.0 -8.4 8.6 Q-8.4 6.95 -9.45 3.2 -10.25 0.5 -10.45 -1.15 L-10.45 -2.25 -10.0 -3.95 -9.2 -5.4 -9.0 -5.45 -9.1 -4.95 -9.65 -3.25 -9.75 -2.9 -9.8 -2.5 -9.75 -1.15 -8.8 3.05 Q-7.75 6.75 -7.75 8.6 L-8.15 13.35 -5.35 11.05 -3.8 9.7 -3.7 9.55 -3.6 10.85 -3.6 11.85 -4.7 13.85 Q-0.5 13.55 0.6 12.25 1.0 12.85 0.65 13.5 0.25 14.15 0.25 14.7 0.25 16.4 2.05 16.4 2.8 16.4 3.3 15.25 L3.3 15.2 2.3 15.35 Q1.1 15.35 1.3 13.65 1.3 11.5 4.75 10.2 8.15 8.95 8.15 7.35 L7.9 6.7 7.4 6.25 Q7.1 5.8 7.1 5.45 L7.15 5.05 7.3 4.25 Q7.55 3.3 7.9 3.1 L7.7 4.1 7.6 4.85 7.5 5.45 7.8 5.9 8.75 6.2 9.95 6.55 10.1 6.6 9.85 5.95 9.75 4.85 Q9.75 3.95 10.1 2.8 L10.45 1.3 Q10.45 0.85 9.85 0.25 L9.25 -0.3 10.85 -0.45 Q11.95 -0.6 12.45 -1.25 L13.0 -2.65 Q13.05 -3.45 12.6 -3.45 12.7 -2.75 12.45 -2.35 12.1 -1.55 10.5 -1.55 9.15 -1.55 8.45 -2.95 L7.65 -5.15 6.4 -6.95 Q5.2 -8.0 2.85 -8.35 L4.5 -8.75 Q6.0 -9.2 6.3 -9.75 M2.7 -6.85 L2.6 -6.95 Q2.25 -7.1 1.95 -7.35 L1.15 -7.2 0.55 -6.9 -0.05 -6.6 Q-0.7 -6.35 -1.4 -6.6 L-1.5 -6.65 -1.75 -6.95 -1.8 -7.05 -1.8 -7.1 -1.75 -7.2 -1.65 -7.25 -0.35 -7.05 0.95 -7.95 Q2.7 -8.0 3.25 -6.7 3.45 -6.1 3.25 -5.6 L2.45 -5.6 1.85 -5.65 1.9 -5.7 2.75 -6.15 2.85 -6.3 2.85 -6.35 2.7 -6.85 M1.5 2.55 L1.35 2.3 1.35 2.25 1.3 1.95 2.05 1.95 2.3 2.2 2.4 3.15 2.3 4.0 2.0 4.15 1.35 4.4 -0.15 4.05 -0.9 3.55 -1.15 1.9 -0.9 0.45 -0.6 0.1 -0.75 1.8 -0.55 2.8 0.05 3.4 1.05 3.85 Q1.55 4.0 1.85 3.45 L1.7 2.9 1.5 2.55" fill="#a36a6a" fill-rule="evenodd" stroke="none"/>
    <path d="M6.3 -9.75 Q6.0 -9.2 4.5 -8.75 L2.85 -8.35 Q5.2 -8.0 6.4 -6.95 L7.65 -5.15 8.45 -2.95 Q9.15 -1.55 10.5 -1.55 12.1 -1.55 12.45 -2.35 12.7 -2.75 12.6 -3.45 13.05 -3.45 13.0 -2.65 L12.45 -1.25 Q11.95 -0.6 10.85 -0.45 L9.25 -0.3 9.85 0.25 Q10.45 0.85 10.45 1.3 L10.1 2.8 Q9.75 3.95 9.75 4.85 L9.85 5.95 9.7 5.5 Q9.35 4.1 9.0 4.1 L7.6 4.85 7.7 4.1 7.9 3.1 Q7.55 3.3 7.3 4.25 L7.15 5.05 5.8 5.5 5.9 5.5 3.55 6.85 3.35 6.75 3.35 6.65 3.9 6.2 Q4.45 5.7 4.45 4.95 4.0 4.4 4.0 3.5 L4.2 2.5 4.05 2.1 4.7 2.45 Q5.2 2.85 5.2 3.3 5.7 3.05 6.4 2.75 6.85 2.45 6.85 1.85 6.85 1.15 6.45 0.7 6.0 0.2 5.3 0.2 4.4 0.2 3.85 0.6 L4.95 -0.4 Q5.35 -0.9 5.4 -1.65 L4.8 -1.0 Q4.0 -0.4 2.85 -0.4 2.2 -0.4 0.5 -1.4 -1.15 -2.45 -2.6 -2.45 L-3.9 -2.3 -4.05 -2.35 -3.9 -2.4 Q0.0 -3.05 0.7 -3.45 -0.4 -3.45 -2.0 -3.95 -3.1 -4.25 -3.9 -4.7 L-5.1 -5.8 -5.45 -6.2 -5.25 -6.0 -4.7 -5.95 Q-3.15 -5.95 -2.45 -6.85 -1.95 -7.45 -1.95 -8.15 -1.95 -9.3 -3.15 -9.4 -4.4 -9.55 -4.4 -8.4 L-4.35 -8.1 -3.9 -8.5 -3.2 -8.75 Q-3.05 -8.75 -2.85 -8.55 L-2.65 -8.1 -2.95 -7.4 Q-3.4 -6.7 -4.45 -6.7 -5.45 -6.7 -6.2 -7.25 -6.9 -7.8 -7.25 -7.8 L-7.5 -7.65 -7.35 -7.55 -8.8 -8.2 -8.65 -8.75 -7.55 -11.15 Q-7.1 -12.1 -6.4 -12.2 L-3.9 -12.15 -2.9 -11.85 -1.0 -11.2 1.1 -10.2 Q2.7 -9.6 4.8 -9.6 L6.3 -9.75 M2.45 -5.6 L3.25 -5.6 Q3.45 -6.1 3.25 -6.7 2.7 -8.0 0.95 -7.95 L-0.35 -7.05 -1.65 -7.25 -1.75 -7.2 -1.8 -7.1 -1.8 -7.05 -1.75 -6.95 -1.5 -6.65 -1.4 -6.6 Q-0.7 -6.35 -0.05 -6.6 L0.55 -6.9 1.15 -7.2 1.95 -7.35 Q2.25 -7.1 2.6 -6.95 L2.7 -6.85 1.9 -6.75 Q0.6 -6.45 0.6 -5.8 L0.65 -5.5 1.4 -5.3 2.45 -5.6 M4.8 -4.25 L4.85 -3.9 Q4.95 -3.75 5.4 -3.75 L5.35 -3.65 Q3.95 -3.15 3.45 -3.15 L2.85 -3.15 2.9 -3.05 Q3.0 -2.75 3.8 -2.75 4.5 -2.75 5.25 -3.15 6.1 -3.6 6.1 -4.15 6.1 -4.8 5.45 -4.9 4.8 -5.0 4.8 -4.25 M5.3 -4.35 L5.6 -4.4 5.6 -4.35 5.3 -4.3 5.3 -4.35 M5.1 3.35 L5.2 3.35 5.2 3.3 5.1 3.35 M5.1 5.4 L5.45 5.5 4.8 5.25 5.1 5.4 M1.5 2.55 L1.05 3.5 Q0.75 3.5 0.75 2.95 L0.9 2.45 0.15 1.65 0.15 1.35 Q0.5 1.35 1.05 1.8 L1.3 2.05 1.35 2.25 1.35 2.3 1.5 2.55" fill="#e0cbcb" fill-rule="evenodd" stroke="none"/>
    <path d="M9.85 5.95 L10.1 6.6 9.95 6.55 8.75 6.2 7.8 5.9 7.5 5.45 7.6 4.85 9.0 4.1 Q9.35 4.1 9.7 5.5 L9.85 5.95 M7.15 5.05 L7.1 5.45 Q7.1 5.8 7.4 6.25 L7.9 6.7 8.15 7.35 Q8.15 8.95 4.75 10.2 1.3 11.5 1.3 13.65 1.1 15.35 2.3 15.35 L3.3 15.2 3.3 15.25 Q2.8 16.4 2.05 16.4 0.25 16.4 0.25 14.7 0.25 14.15 0.65 13.5 1.0 12.85 0.6 12.25 -0.5 13.55 -4.7 13.85 L-3.6 11.85 -3.6 10.85 -3.7 9.55 -3.8 9.7 -5.35 11.05 -8.15 13.35 -7.75 8.6 Q-7.75 6.75 -8.8 3.05 L-9.75 -1.15 -9.8 -2.5 -9.75 -2.9 -9.65 -3.25 -9.1 -4.95 -9.0 -5.45 -9.2 -5.4 -10.0 -3.95 -9.8 -4.95 -9.15 -6.6 Q-8.8 -7.4 -8.8 -8.2 L-7.35 -7.55 -7.5 -7.65 -7.25 -7.8 Q-6.9 -7.8 -6.2 -7.25 -5.45 -6.7 -4.45 -6.7 -3.4 -6.7 -2.95 -7.4 L-2.65 -8.1 -2.85 -8.55 Q-3.05 -8.75 -3.2 -8.75 L-3.9 -8.5 -4.35 -8.1 -4.4 -8.4 Q-4.4 -9.55 -3.15 -9.4 -1.95 -9.3 -1.95 -8.15 -1.95 -7.45 -2.45 -6.85 -3.15 -5.95 -4.7 -5.95 L-5.25 -6.0 -5.45 -6.2 -5.1 -5.8 -3.9 -4.7 Q-3.1 -4.25 -2.0 -3.95 -0.4 -3.45 0.7 -3.45 0.0 -3.05 -3.9 -2.4 L-4.05 -2.35 -3.9 -2.3 -2.6 -2.45 Q-1.15 -2.45 0.5 -1.4 2.2 -0.4 2.85 -0.4 4.0 -0.4 4.8 -1.0 L5.4 -1.65 Q5.35 -0.9 4.95 -0.4 L3.85 0.6 Q4.4 0.2 5.3 0.2 6.0 0.2 6.45 0.7 6.85 1.15 6.85 1.85 6.85 2.45 6.4 2.75 5.7 3.05 5.2 3.3 5.2 2.85 4.7 2.45 L4.05 2.1 4.2 2.5 4.0 3.5 Q4.0 4.4 4.45 4.95 4.45 5.7 3.9 6.2 L3.35 6.65 3.35 6.75 3.55 6.85 5.9 5.5 5.8 5.5 7.15 5.05 M2.7 -6.85 L2.85 -6.35 2.85 -6.3 2.75 -6.15 1.9 -5.7 1.85 -5.65 2.45 -5.6 1.4 -5.3 0.65 -5.5 0.6 -5.8 Q0.6 -6.45 1.9 -6.75 L2.7 -6.85 M4.8 -4.25 Q4.8 -5.0 5.45 -4.9 6.1 -4.8 6.1 -4.15 6.1 -3.6 5.25 -3.15 4.5 -2.75 3.8 -2.75 3.0 -2.75 2.9 -3.05 L2.85 -3.15 3.45 -3.15 Q3.95 -3.15 5.35 -3.65 L5.4 -3.75 Q4.95 -3.75 4.85 -3.9 L4.8 -4.25 M5.3 -4.35 L5.3 -4.3 5.6 -4.35 5.6 -4.4 5.3 -4.35 M5.1 3.35 L5.2 3.3 5.2 3.35 5.1 3.35 M5.1 5.4 L4.8 5.25 5.45 5.5 5.1 5.4 M1.35 2.25 L1.3 2.05 1.05 1.8 Q0.5 1.35 0.15 1.35 L0.15 1.65 0.9 2.45 0.75 2.95 Q0.75 3.5 1.05 3.5 L1.5 2.55 1.7 2.9 1.85 3.45 Q1.55 4.0 1.05 3.85 L0.05 3.4 -0.55 2.8 -0.75 1.8 -0.6 0.1 -0.9 0.45 -1.15 1.9 -0.9 3.55 -0.15 4.05 1.35 4.4 2.0 4.15 2.3 4.0 2.4 3.15 2.3 2.2 2.05 1.95 1.3 1.95 1.35 2.25" fill="#cca9a9" fill-rule="evenodd" stroke="none"/>
  </g>
</svg>