<?xml version="1.0" encoding="UTF-8" standalone="no"?>
<svg xmlns:xlink="http://www.w3.org/1999/xlink" height="8.35px" width="10.1px" xmlns="http://www.w3.org/2000/svg">
  <g transform="matrix(1.0, 0.0, 0.0, 1.0, 7.95, 3.1)">
    <path d="M0.3 -0.7 L0.05 -0.55 -0.65 0.35 -0.95 1.75 -0.8 2.95 Q-1.95 1.85 -1.95 0.6 L-1.65 -0.1 -1.75 -0.3 -3.5 0.7 -3.5 0.65 -2.75 -0.4 -2.3 -1.2 -2.3 -1.15 -2.25 -1.35 -2.2 -1.45 -2.2 -1.8 -2.2 -1.95 -0.95 -2.1 Q0.6 -2.1 0.6 -0.9 L0.6 -0.8 0.3 -0.7" fill="#cca9a9" fill-rule="evenodd" stroke="none"/>
    <path d="M-3.5 0.7 L-1.75 -0.3 -1.65 -0.1 -1.95 0.6 Q-1.95 1.85 -0.8 2.95 L-0.95 1.75 -0.65 0.35 0.05 -0.55 0.3 -0.7 0.95 -0.85 1.1 -0.8 1.15 -0.7 Q0.15 -0.05 -0.15 0.5 L-0.45 1.7 -0.15 2.85 0.35 3.95 0.05 4.25 Q-0.95 4.25 -1.7 2.8 L-2.25 1.3 -2.35 0.85 -2.4 0.7 Q-3.55 1.85 -5.45 1.85 -7.05 1.85 -6.95 1.25 L-5.8 1.05 Q-4.35 0.8 -3.3 -0.65 L-2.6 -1.75 Q-2.3 -2.2 -2.2 -1.95 L-2.2 -1.8 -2.2 -1.45 -2.25 -1.35 -2.3 -1.2 -2.75 -0.4 -3.5 0.65 -3.55 0.7 -3.5 0.7" fill="#a36a6a" fill-rule="evenodd" stroke="none"/>
  </g>
</svg>