<?xml version="1.0" encoding="UTF-8" standalone="no"?>
<svg xmlns:xlink="http://www.w3.org/1999/xlink" height="24.45px" width="50.3px" xmlns="http://www.w3.org/2000/svg">
  <g transform="matrix(1.0, 0.0, 0.0, 1.0, 1.3, 10.95)">
    <path d="M22.6 -8.65 Q26.9 -9.8 31.4 -9.85 36.15 -10.2 40.75 -9.0 44.55 -7.9 47.8 -5.85 L48.0 -5.2 47.45 -5.05 44.7 -4.35 46.55 -1.85 47.0 -0.9 44.75 -0.85 Q43.3 -1.3 42.3 -0.15 41.55 0.65 41.45 1.9 L42.95 4.8 43.25 5.55 Q41.85 5.6 40.3 4.6 L34.5 0.85 34.55 1.7 30.55 1.6 Q28.45 2.7 24.15 6.3 L18.7 10.95 17.35 12.25 18.15 7.65 Q15.15 9.4 11.65 9.7 L7.15 9.2 Q2.65 9.1 -0.3 12.5 -0.1 9.85 1.2 7.6 L3.25 4.45 Q5.15 1.6 7.8 -0.3 10.5 -3.15 13.8 -5.2 17.95 -7.6 22.6 -8.65" fill="#a33c3c" fill-opacity="0.4" fill-rule="evenodd" stroke="none"/>
  </g>
</svg>