<?xml version="1.0" encoding="UTF-8" standalone="no"?>
<svg xmlns:xlink="http://www.w3.org/1999/xlink" height="35.1px" width="55.35px" xmlns="http://www.w3.org/2000/svg">
  <g transform="matrix(1.0, 0.0, 0.0, 1.0, 27.3, 12.55)">
    <path d="M1.1 -4.7 L2.65 -4.35 Q3.65 -4.5 4.6 -4.95 L5.0 -5.15 5.05 -5.15 6.6 -6.35 6.85 -6.6 Q7.35 -7.35 7.35 -8.05 L7.35 -8.15 7.15 -7.8 6.9 -7.5 6.5 -7.05 6.45 -7.0 6.35 -6.95 5.8 -6.6 5.45 -6.35 5.05 -6.1 Q4.15 -5.65 3.25 -5.75 L3.1 -5.75 3.0 -5.8 2.65 -5.75 1.0 -5.85 0.95 -5.85 -2.3 -5.95 -5.2 -5.15 -5.9 -4.75 Q-6.8 -3.95 -7.35 -2.75 L-7.4 -2.8 -7.6 -3.2 -7.2 -4.1 -6.65 -4.9 -5.2 -6.2 -3.9 -6.75 -4.85 -6.7 -6.8 -6.85 Q-7.65 -7.0 -8.2 -7.45 L-8.65 -7.95 -8.75 -8.05 Q-9.3 -8.85 -9.5 -9.9 L-10.15 -8.55 Q-9.95 -7.45 -9.3 -6.65 L-9.2 -6.6 -8.85 -6.25 -8.75 -6.15 -8.25 -5.5 -8.75 -5.3 -9.2 -5.45 -9.3 -5.45 -9.5 -5.5 -9.8 -5.6 -10.6 -5.75 -13.65 -6.3 -16.4 -5.8 -18.0 -4.95 -19.9 -3.1 -20.0 -3.0 -19.95 -3.0 -16.1 -3.3 Q-18.55 -2.5 -20.55 -1.1 L-22.65 0.55 Q-24.05 1.9 -24.6 3.85 L-25.3 7.05 -25.55 9.75 -24.9 8.45 Q-23.65 6.45 -22.35 5.25 L-22.05 5.0 -19.95 3.1 -18.4 1.8 Q-17.95 1.45 -17.75 1.4 L-16.3 -0.05 Q-14.55 -1.55 -13.85 -1.5 L-13.75 -1.45 -13.6 -1.45 -14.1 -1.1 -16.0 0.5 -17.35 1.7 -17.35 1.85 -18.55 3.85 -20.9 6.3 -20.55 4.8 -22.3 7.1 -22.9 9.25 -23.0 10.8 -23.3 12.3 -23.3 13.5 -21.65 10.85 -21.25 10.15 -18.75 6.55 -14.5 3.05 -14.05 2.75 -13.3 2.25 Q-12.45 1.75 -11.6 1.45 -10.3 0.95 -11.3 -0.25 L-11.9 -0.85 -11.05 -0.35 -10.55 -0.1 -9.0 0.75 -8.65 0.75 -7.85 0.45 Q-6.85 0.7 -5.95 1.1 -4.8 1.65 -3.8 2.55 -3.15 3.1 -2.65 3.8 L-2.55 3.9 -1.45 5.35 -0.85 6.2 -0.75 6.35 1.0 8.8 1.55 9.55 2.05 10.3 2.05 10.35 2.4 10.85 4.05 13.75 5.75 17.4 Q6.15 14.25 5.2 11.2 L4.45 8.65 4.6 9.2 4.2 8.45 3.65 7.55 1.95 5.2 1.0 4.05 0.9 3.9 0.65 3.65 0.7 3.65 0.95 3.85 1.0 3.95 4.15 6.8 4.95 7.6 4.95 7.65 5.65 8.5 6.6 9.7 7.0 10.2 7.05 10.25 8.95 12.0 Q10.5 13.25 11.55 14.65 L13.55 17.3 15.5 19.55 Q15.4 17.0 14.4 14.5 13.55 12.3 12.3 10.3 L11.35 8.55 Q12.95 8.55 14.2 9.85 L18.35 13.9 19.65 15.2 15.7 10.4 14.85 9.35 15.1 8.85 16.55 9.55 Q18.45 10.5 20.4 10.35 L21.75 10.3 Q23.65 10.15 25.05 8.7 21.9 9.2 19.0 7.8 L16.0 6.3 15.4 5.5 15.25 5.35 Q14.45 4.5 13.55 4.1 L12.95 3.85 12.0 3.45 11.45 3.2 10.7 2.95 9.5 2.6 9.35 2.6 7.1 2.1 6.85 2.05 6.85 1.7 7.2 1.7 7.35 1.7 10.1 1.95 12.55 2.7 13.55 3.2 14.55 3.9 17.9 6.5 Q19.3 5.45 21.0 4.75 L21.75 4.25 24.2 1.25 Q22.6 2.2 20.7 1.75 19.7 1.7 18.7 1.05 L18.6 0.95 18.0 0.45 17.4 -0.2 17.3 -0.3 15.95 -1.5 15.0 -2.1 14.55 -2.35 Q12.9 -3.25 11.0 -3.5 L10.2 -3.55 7.2 -3.7 5.05 -3.7 4.15 -3.8 3.65 -3.85 3.0 -3.9 4.9 -2.45 5.05 -2.3 5.25 -2.15 5.5 -1.95 Q6.45 -1.3 7.55 -0.95 L8.95 -0.65 9.9 -0.65 10.5 -0.75 9.4 -0.2 8.95 -0.15 8.6 -0.15 7.8 -0.2 7.4 -0.2 6.6 -0.7 5.05 -1.7 4.45 -2.15 4.15 -2.45 2.65 -3.45 2.25 -3.6 1.0 -3.85 -1.15 -3.8 -3.9 -3.05 -5.05 -2.75 -5.35 -2.95 -5.1 -3.15 -3.5 -3.75 -1.95 -4.3 0.55 -4.65 0.6 -4.65 0.9 -4.7 1.0 -4.7 1.1 -4.7 M5.2 -7.7 L6.05 -8.3 8.1 -9.8 8.25 -9.25 8.25 -9.1 8.25 -9.05 8.4 -7.75 8.1 -6.6 7.85 -6.35 5.6 -4.6 7.95 -4.45 9.0 -4.4 11.5 -4.1 14.05 -3.3 15.1 -2.8 16.4 -2.05 18.05 -1.0 19.05 -0.2 19.65 0.25 20.05 0.4 20.1 0.4 21.75 0.8 23.3 0.45 24.4 0.0 25.55 -0.4 25.45 0.05 Q25.15 1.7 24.45 2.65 L22.95 4.35 21.1 5.7 19.1 6.9 Q21.05 7.75 23.1 7.9 L26.75 7.55 27.05 7.8 25.4 9.45 23.65 10.6 Q22.7 11.3 21.4 11.45 L19.0 11.4 18.15 11.15 20.2 14.55 20.95 16.35 21.4 17.95 13.5 10.55 15.15 14.1 Q15.95 16.2 16.2 18.15 16.45 20.05 16.05 21.55 L14.25 19.35 12.0 16.45 Q10.7 14.75 8.7 13.15 L6.5 11.2 6.05 10.95 6.6 13.8 Q7.05 15.7 6.6 17.95 L6.15 20.5 Q5.35 19.15 5.05 17.95 L4.45 16.3 2.4 13.0 1.0 10.75 -0.45 8.55 -1.5 7.1 -2.05 6.4 -3.4 4.8 -3.8 4.4 Q-5.0 3.2 -6.45 2.3 -7.25 1.75 -8.15 1.35 L-8.75 1.6 -8.75 1.35 -9.4 1.5 -10.35 1.8 Q-12.1 2.4 -13.8 3.4 L-14.5 3.85 -14.95 4.15 Q-17.05 5.6 -18.85 7.65 L-21.2 10.9 -21.5 11.5 -22.55 13.4 -23.6 15.35 -23.85 15.35 -23.9 15.05 -23.75 14.4 -23.85 12.5 -23.55 9.0 -25.1 12.0 -25.7 13.3 -26.25 10.1 -26.3 9.7 -26.3 8.6 Q-26.25 5.9 -25.4 3.4 L-24.45 1.45 -22.85 -0.6 -21.55 -2.05 -20.9 -3.3 -20.4 -4.2 -19.05 -5.55 Q-17.5 -6.8 -15.6 -7.15 L-13.65 -7.45 -10.7 -6.95 Q-11.05 -8.25 -10.6 -9.45 -10.05 -10.8 -8.9 -11.55 L-8.7 -10.7 -7.95 -9.25 -7.55 -8.6 -7.55 -8.55 -6.5 -7.2 -3.35 -7.45 -2.9 -6.9 -1.85 -6.8 -1.15 -6.75 0.7 -6.55 1.0 -6.45 Q1.8 -6.3 2.65 -6.45 L3.1 -6.6 3.5 -6.75 5.2 -7.7" fill="#a36a6a" fill-rule="evenodd" stroke="none"/>
    <path d="M3.1 -5.75 L3.25 -5.75 Q4.15 -5.65 5.05 -6.1 L5.45 -6.35 5.8 -6.6 6.35 -6.95 6.45 -7.0 6.5 -7.05 6.9 -7.5 7.15 -7.8 7.35 -8.15 7.35 -8.05 Q7.35 -7.35 6.85 -6.6 L6.6 -6.35 5.05 -5.15 5.0 -5.15 4.6 -4.95 Q3.65 -4.5 2.65 -4.35 L1.1 -4.7 3.1 -5.7 3.1 -5.75 M6.6 -0.7 L7.4 -0.2 7.8 -0.2 8.6 -0.15 8.95 -0.15 9.4 -0.2 10.5 -0.75 9.9 -0.65 8.95 -0.65 7.55 -0.95 8.15 -0.9 9.05 -0.85 11.7 -0.9 12.6 -0.5 14.3 0.5 14.35 0.5 15.6 1.25 16.7 1.75 18.55 1.1 18.7 1.05 Q19.7 1.7 20.7 1.75 22.6 2.2 24.2 1.25 L21.75 4.25 21.0 4.75 Q19.3 5.45 17.9 6.5 L14.55 3.9 13.55 3.2 12.55 2.7 10.1 1.95 7.35 1.7 7.2 1.7 6.85 1.7 6.85 2.05 7.1 2.1 9.35 2.6 8.45 2.65 9.0 3.1 10.75 5.05 11.0 5.4 11.2 5.65 Q11.75 6.2 12.9 6.2 L14.2 5.75 15.25 5.35 15.4 5.5 16.0 6.3 19.0 7.8 Q21.9 9.2 25.05 8.7 23.65 10.15 21.75 10.3 L20.4 10.35 Q18.45 10.5 16.55 9.55 L15.1 8.85 14.85 9.35 15.7 10.4 19.65 15.2 18.35 13.9 14.2 9.85 Q12.95 8.55 11.35 8.55 L12.3 10.3 Q13.55 12.3 14.4 14.5 15.4 17.0 15.5 19.55 L13.55 17.3 11.55 14.65 Q10.5 13.25 8.95 12.0 L7.05 10.25 7.0 10.2 6.6 9.7 5.65 8.5 4.95 7.65 4.95 7.6 4.15 6.8 1.0 3.95 0.95 3.85 0.7 3.65 0.65 3.65 0.9 3.9 1.0 4.05 1.95 5.2 3.65 7.55 4.2 8.45 4.6 9.2 4.45 8.65 5.2 11.2 Q6.15 14.25 5.75 17.4 L4.05 13.75 2.4 10.85 2.05 10.35 2.05 10.3 1.55 9.55 0.35 5.55 0.1 4.95 -0.55 3.75 -1.45 2.3 -1.75 1.85 -3.9 -1.0 -3.65 -1.0 Q-2.35 -0.8 0.0 0.4 L1.05 1.0 2.5 1.8 6.0 3.8 7.6 4.55 6.25 3.4 5.6 2.8 3.4 0.65 3.35 0.55 Q2.95 0.05 1.95 -0.5 L1.05 -0.9 -0.15 -1.45 -2.55 -2.25 -1.75 -2.45 0.0 -2.2 1.85 -1.8 2.65 -1.6 4.8 -1.1 6.6 -0.7 M5.25 -2.15 L5.05 -2.3 5.25 -2.15 M-10.55 -0.1 L-11.05 -0.35 -10.9 -0.45 -10.55 -0.1 M-11.3 -0.25 Q-10.3 0.95 -11.6 1.45 -12.45 1.75 -13.3 2.25 L-14.05 2.75 -14.5 3.05 -18.75 6.55 -21.25 10.15 -21.65 10.85 -23.3 13.5 -23.3 12.3 -23.0 10.8 -22.9 9.25 -22.3 7.1 -20.55 4.8 -20.9 6.3 -18.55 3.85 -17.35 1.85 -17.35 1.7 -16.0 0.5 -14.1 -1.1 Q-15.65 0.55 -16.55 2.3 -14.05 1.05 -12.6 0.35 L-12.45 0.3 -11.3 -0.25 M-13.75 -1.45 L-13.85 -1.5 Q-14.55 -1.55 -16.3 -0.05 L-17.75 1.4 Q-17.95 1.45 -18.4 1.8 L-19.95 3.1 -22.05 5.0 -22.35 5.25 Q-23.65 6.45 -24.9 8.45 L-25.55 9.75 -25.3 7.05 -24.7 6.0 -22.55 3.0 -21.4 1.9 -20.7 1.45 -19.1 0.65 -15.75 -1.1 Q-13.2 -2.2 -12.75 -2.45 L-13.75 -1.45 M-9.2 -5.45 L-8.75 -5.3 -8.25 -5.5 -8.75 -6.15 -8.85 -6.25 -9.2 -6.6 -8.7 -6.55 -6.9 -6.15 -7.1 -5.4 Q-7.35 -4.9 -7.8 -4.9 -8.6 -4.9 -9.2 -5.45" fill="#e0cbcb" fill-rule="evenodd" stroke="none"/>
    <path d="M1.1 -4.7 L1.0 -4.7 0.9 -4.7 0.6 -4.65 0.55 -4.65 -1.95 -4.3 -3.5 -3.75 -5.1 -3.15 -5.35 -2.95 -5.05 -2.75 -3.9 -3.05 -1.15 -3.8 1.0 -3.85 2.25 -3.6 2.65 -3.45 4.15 -2.45 4.45 -2.15 5.05 -1.7 6.6 -0.7 4.8 -1.1 2.65 -1.6 1.85 -1.8 0.0 -2.2 -1.75 -2.45 -2.55 -2.25 -0.15 -1.45 1.05 -0.9 1.95 -0.5 Q2.95 0.05 3.35 0.55 L3.4 0.65 5.6 2.8 6.25 3.4 7.6 4.55 6.0 3.8 2.5 1.8 1.05 1.0 0.0 0.4 Q-2.35 -0.8 -3.65 -1.0 L-3.9 -1.0 -1.75 1.85 -1.45 2.3 -0.55 3.75 0.1 4.95 0.35 5.55 1.55 9.55 1.0 8.8 -0.75 6.35 -0.85 6.2 -1.45 5.35 -2.55 3.9 -2.65 3.8 Q-3.15 3.1 -3.8 2.55 -4.8 1.65 -5.95 1.1 -6.85 0.7 -7.85 0.45 L-8.65 0.75 -9.0 0.75 -10.55 -0.1 -10.9 -0.45 -11.05 -0.35 -11.9 -0.85 -11.3 -0.25 -12.45 0.3 -12.6 0.35 Q-14.05 1.05 -16.55 2.3 -15.65 0.55 -14.1 -1.1 L-13.6 -1.45 -13.75 -1.45 -12.75 -2.45 Q-13.2 -2.2 -15.75 -1.1 L-19.1 0.65 -20.7 1.45 -21.4 1.9 -22.55 3.0 -24.7 6.0 -25.3 7.05 -24.6 3.85 Q-24.05 1.9 -22.65 0.55 L-20.55 -1.1 Q-18.55 -2.5 -16.1 -3.3 L-19.95 -3.0 -20.0 -3.0 -19.9 -3.1 -18.0 -4.95 -16.4 -5.8 -13.65 -6.3 -10.6 -5.75 -9.8 -5.6 -9.5 -5.5 -9.3 -5.45 -9.2 -5.45 Q-8.6 -4.9 -7.8 -4.9 -7.35 -4.9 -7.1 -5.4 L-6.9 -6.15 -8.7 -6.55 -9.2 -6.6 -9.3 -6.65 Q-9.95 -7.45 -10.15 -8.55 L-9.5 -9.9 Q-9.3 -8.85 -8.75 -8.05 L-8.65 -7.95 -8.2 -7.45 Q-7.65 -7.0 -6.8 -6.85 L-4.85 -6.7 -3.9 -6.75 -5.2 -6.2 -6.65 -4.9 -7.2 -4.1 -7.6 -3.2 -7.4 -2.8 -7.35 -2.75 Q-6.8 -3.95 -5.9 -4.75 L-5.2 -5.15 -2.3 -5.95 0.95 -5.85 1.0 -5.85 2.65 -5.75 3.0 -5.8 3.1 -5.75 3.1 -5.7 1.1 -4.7 M7.55 -0.95 Q6.45 -1.3 5.5 -1.95 L5.25 -2.15 5.05 -2.3 4.9 -2.45 3.0 -3.9 3.65 -3.85 4.15 -3.8 5.05 -3.7 7.2 -3.7 10.2 -3.55 11.0 -3.5 Q12.9 -3.25 14.55 -2.35 L15.0 -2.1 15.95 -1.5 17.3 -0.3 17.4 -0.2 18.0 0.45 18.6 0.95 18.7 1.05 18.55 1.1 16.7 1.75 15.6 1.25 14.35 0.5 14.3 0.5 12.6 -0.5 11.7 -0.9 9.05 -0.85 8.15 -0.9 7.55 -0.95 M9.35 2.6 L9.5 2.6 10.7 2.95 11.45 3.2 12.0 3.45 12.95 3.85 13.55 4.1 Q14.45 4.5 15.25 5.35 L14.2 5.75 12.9 6.2 Q11.75 6.2 11.2 5.65 L11.0 5.4 10.75 5.05 9.0 3.1 8.45 2.65 9.35 2.6" fill="url(#gradient0)" fill-rule="evenodd" stroke="none"/>
  </g>
  <defs>
    <radialGradient cx="0" cy="0" gradientTransform="matrix(0.0224, -0.0152, 0.0106, 0.0155, -12.9, -10.0)" gradientUnits="userSpaceOnUse" id="gradient0" r="819.2" spreadMethod="pad">
      <stop offset="0.47843137254901963" stop-color="#ffffff"></stop>
      <stop offset="0.8823529411764706" stop-color="#f2eaea"></stop>
    </radialGradient>
  </defs>
</svg>