<?xml version="1.0" encoding="UTF-8" standalone="no"?>
<svg xmlns:xlink="http://www.w3.org/1999/xlink" height="32.3px" width="54.35px" xmlns="http://www.w3.org/2000/svg">
  <g transform="matrix(1.0, 0.0, 0.0, 1.0, 33.2, 17.45)">
    <path d="M7.1 -13.6 Q5.55 -12.3 4.6 -10.5 L4.65 -10.5 5.3 -10.3 5.55 -10.2 7.9 -9.5 8.3 -9.4 9.95 -8.95 11.95 -8.85 12.4 -8.85 12.6 -8.9 13.65 -9.15 15.2 -9.85 15.45 -9.95 15.8 -10.15 15.75 -10.05 15.3 -9.4 14.7 -8.45 Q14.0 -7.4 12.95 -6.65 L12.15 -6.05 15.9 -3.85 Q17.35 -2.7 18.45 -1.2 19.55 0.2 20.15 1.85 L15.3 0.45 Q17.0 2.15 17.9 4.15 L18.55 6.3 19.25 10.15 19.6 13.85 Q18.05 12.9 17.05 11.25 16.05 9.45 14.85 7.9 L13.45 6.15 9.8 8.8 6.8 10.4 6.3 10.3 Q6.9 7.95 7.15 5.45 L7.3 3.45 4.15 5.2 Q2.7 5.75 1.45 6.4 0.0 7.1 -1.4 7.95 L-2.8 8.65 -3.7 8.95 -1.2 5.3 -5.5 5.95 -5.65 5.95 -8.55 6.15 -9.1 6.2 -9.9 6.5 -10.25 6.6 -10.65 6.1 -10.85 5.85 -11.7 4.65 -12.6 3.5 -13.3 2.7 -13.5 2.5 -13.6 2.4 Q-14.05 1.9 -14.6 1.6 L-15.75 1.0 -15.9 0.95 -16.85 0.6 -17.25 0.5 -19.65 -0.1 -22.8 -0.55 -24.6 -0.8 Q-23.25 -1.65 -21.75 -1.9 -20.0 -2.1 -18.15 -1.95 L-17.35 -1.95 -20.35 -3.85 -22.1 -4.65 -23.8 -5.1 Q-26.0 -5.45 -28.35 -5.15 L-32.2 -4.55 -31.7 -5.1 Q-30.65 -6.2 -29.2 -6.8 L-25.45 -8.1 -21.45 -8.6 -18.15 -8.4 -16.0 -8.0 -15.95 -8.0 -15.45 -7.9 -13.95 -7.35 -12.9 -7.0 -12.0 -6.65 -12.3 -7.1 -13.3 -8.45 -13.8 -9.1 -14.0 -9.35 -14.8 -10.25 -15.65 -11.15 -14.65 -10.95 -13.45 -10.65 -12.0 -10.2 -11.75 -10.05 -11.0 -9.7 -9.45 -8.55 -9.3 -8.45 -8.45 -7.75 -8.4 -8.45 -8.2 -10.25 -7.85 -11.8 -7.2 -14.05 -5.65 -16.45 -4.3 -16.45 -4.8 -13.65 -4.9 -13.05 -5.5 -10.25 -5.5 -10.2 -5.4 -10.25 -1.95 -12.3 -1.7 -12.4 Q-1.2 -12.65 -0.65 -12.85 L0.35 -13.25 1.4 -13.55 2.35 -13.75 7.4 -13.95 7.1 -13.6 M-4.8 5.1 L-2.8 4.65 0.75 3.75 -1.25 6.6 0.4 5.95 Q0.8 5.65 1.85 5.25 L4.85 3.75 6.6 2.8 7.95 1.95 8.05 2.5 8.05 3.05 7.85 8.1 7.75 8.8 8.4 8.35 9.15 7.95 Q11.4 6.8 13.3 5.1 L13.9 5.5 14.35 5.95 Q16.1 7.5 17.2 9.75 L18.65 12.4 18.55 11.45 18.3 9.5 17.55 6.45 16.35 3.6 14.8 1.15 Q13.95 -0.1 12.7 -0.8 L13.9 -0.7 15.6 -0.35 18.25 0.6 17.95 0.05 17.7 -0.45 Q16.45 -2.75 14.25 -3.9 12.45 -4.85 10.6 -5.2 L9.95 -5.4 13.65 -8.4 12.35 -7.95 11.5 -8.0 11.4 -8.0 10.4 -8.05 9.65 -8.2 9.05 -8.45 9.0 -8.45 8.05 -8.8 7.35 -9.0 4.35 -9.5 3.5 -9.5 3.95 -10.7 Q4.75 -12.15 5.65 -13.05 L4.75 -13.05 2.35 -13.05 1.95 -13.0 1.4 -12.9 -0.05 -12.35 -1.5 -11.75 -1.95 -11.5 -2.3 -11.35 -1.95 -11.05 -1.25 -10.35 -1.05 -10.1 -0.35 -9.25 -0.25 -9.05 0.1 -8.45 0.6 -7.1 0.65 -6.9 0.7 -6.45 -0.6 -8.45 -0.6 -8.55 -0.85 -8.9 -0.9 -8.9 -0.95 -9.0 -1.4 -9.5 -1.65 -9.85 -1.75 -9.95 -1.65 -9.65 -1.35 -8.9 -1.3 -8.65 -1.25 -8.55 -1.25 -8.45 -1.1 -6.75 -1.1 -6.7 -1.05 -6.05 -1.25 -6.6 -1.85 -8.3 -1.95 -8.45 -2.2 -9.15 -2.3 -9.5 -2.45 -10.0 -2.5 -10.25 -2.5 -11.05 -3.95 -10.25 -5.2 -9.3 -5.95 -8.7 -5.95 -8.85 -6.05 -9.4 -6.1 -9.5 -6.15 -10.25 -5.8 -12.65 -5.4 -14.55 -5.05 -15.9 -5.05 -15.95 -5.05 -16.05 -5.15 -15.95 Q-6.55 -14.35 -7.05 -12.2 L-7.05 -12.15 -7.45 -10.25 -7.55 -9.5 -7.55 -8.45 -7.7 -6.2 -10.65 -8.4 -11.3 -8.9 -12.0 -9.4 -12.55 -9.7 -13.15 -9.95 -13.9 -10.3 -13.55 -9.85 -13.4 -9.6 -13.15 -9.4 -13.05 -9.3 -12.65 -8.85 -12.15 -8.25 -11.7 -7.6 -10.95 -6.45 -10.65 -5.9 -10.6 -5.65 -10.6 -5.4 -10.65 -5.35 -11.05 -5.25 -12.3 -5.9 -13.8 -6.4 -15.15 -6.95 -15.95 -7.2 -17.1 -7.45 -19.8 -7.65 Q-21.75 -7.9 -23.7 -7.65 -25.9 -7.45 -27.9 -6.7 L-30.3 -5.7 -26.8 -5.95 -25.25 -5.9 -23.05 -5.55 -21.35 -5.05 Q-19.8 -4.55 -18.45 -3.7 L-16.55 -2.0 -16.05 -1.4 -22.35 -1.1 -19.15 -0.75 -16.65 -0.05 Q-16.3 0.05 -15.95 0.25 L-15.3 0.55 -14.75 0.8 Q-14.0 1.2 -13.3 1.75 L-13.05 1.9 -12.65 2.25 -12.0 2.8 -11.15 3.8 -10.65 4.6 -10.3 5.2 -7.0 2.9 -7.35 3.2 -7.6 3.5 -9.05 5.25 -8.85 5.3 -8.05 5.3 -7.55 5.3 -6.35 5.3 -4.8 5.1 M-7.7 1.1 L-7.25 1.1 -6.05 0.85 -5.9 0.8 Q-4.5 0.2 -2.95 -0.1 L-2.2 -0.25 -1.55 -0.35 -1.6 -0.3 -3.2 0.5 -4.25 0.95 -4.5 1.05 -6.0 1.6 -6.25 1.65 -10.35 1.85 -6.6 -0.95 -6.0 -1.3 -4.5 -1.6 -5.0 -1.3 Q-6.55 -0.4 -7.75 1.0 L-7.85 1.1 -7.7 1.1 M2.9 -6.4 L4.45 -6.9 7.3 -7.1 6.15 -6.1 5.8 -5.85 5.4 -5.55 4.35 -4.85 4.55 -5.25 4.65 -5.35 5.05 -5.7 6.05 -6.55 2.2 -6.05 2.9 -6.4 M-14.9 -3.7 L-13.75 -4.35 Q-12.45 -5.05 -11.25 -5.15 L-11.15 -5.15 -11.05 -5.15 -11.0 -5.15 -10.65 -5.25 -8.3 -5.4 -10.65 -4.85 -10.7 -4.85 -12.0 -4.4 -12.3 -4.3 -14.05 -3.55 -13.05 -3.45 -12.95 -3.45 -12.25 -3.35 -11.95 -3.3 -11.15 -2.8 -12.15 -2.7 -12.4 -2.75 -13.55 -2.85 -13.75 -2.8 -14.15 -2.75 -15.1 -2.7 -15.15 -2.7 -15.75 -2.8 -15.45 -3.25 -14.9 -3.7" fill="#a36a6a" fill-rule="evenodd" stroke="none"/>
    <path d="M4.75 -13.05 L5.65 -13.05 Q4.75 -12.15 3.95 -10.7 L3.5 -9.5 4.35 -9.5 7.35 -9.0 8.05 -8.8 9.0 -8.45 9.05 -8.45 9.65 -8.2 10.4 -8.05 11.4 -8.0 11.5 -8.0 12.35 -7.95 13.65 -8.4 9.95 -5.4 10.6 -5.2 Q12.45 -4.85 14.25 -3.9 16.45 -2.75 17.7 -0.45 L17.95 0.05 18.25 0.6 15.6 -0.35 13.9 -0.7 12.7 -0.8 Q13.95 -0.1 14.8 1.15 L16.35 3.6 17.55 6.45 18.3 9.5 18.55 11.45 18.65 12.4 17.2 9.75 Q16.1 7.5 14.35 5.95 L13.9 5.5 13.3 5.1 Q11.4 6.8 9.15 7.95 L8.4 8.35 7.75 8.8 7.85 8.1 8.05 3.05 8.05 2.5 7.95 1.95 6.6 2.8 4.85 3.75 1.85 5.25 Q0.8 5.65 0.4 5.95 L-1.25 6.6 0.75 3.75 -2.8 4.65 -4.8 5.1 -3.5 3.9 Q-2.8 3.25 -2.8 2.85 -2.8 2.25 -3.15 1.8 L-3.15 1.4 -5.35 3.75 -5.5 3.5 -5.9 2.4 -6.0 1.6 -4.5 1.05 -4.25 0.95 -3.2 0.5 -1.6 -0.3 -1.55 -0.35 -2.2 -0.25 -2.95 -0.1 Q-4.5 0.2 -5.9 0.8 L-6.05 0.85 -7.25 1.1 -7.7 1.1 -6.65 0.6 Q-5.3 -0.05 -4.1 -0.15 L-2.75 -0.25 -2.2 -0.35 -2.3 -0.65 -3.25 -1.8 -0.55 -2.1 -0.3 -2.15 0.3 -2.2 0.4 -2.2 1.25 -1.95 4.5 -0.95 4.5 -1.1 2.8 -2.75 1.7 -3.55 1.65 -3.6 0.25 -4.5 0.25 -3.9 0.25 -3.75 Q-0.95 -4.95 -2.5 -4.95 L-2.6 -4.95 -3.35 -4.8 -2.35 -5.7 -1.25 -6.6 -1.05 -6.05 -1.1 -6.7 -1.1 -6.75 -1.25 -8.45 -1.25 -8.55 -1.3 -8.65 -1.35 -8.9 -1.65 -9.65 -1.75 -9.95 -1.65 -9.85 -1.4 -9.5 -0.95 -9.0 -0.9 -8.9 -0.85 -8.9 -0.6 -8.55 -0.6 -8.45 0.7 -6.45 0.65 -6.9 0.6 -7.1 0.1 -8.45 -0.25 -9.05 -0.35 -9.25 -1.05 -10.1 -1.25 -10.35 Q-0.55 -11.1 1.2 -11.7 L4.75 -13.05 M-16.55 -2.0 L-18.45 -3.7 Q-19.8 -4.55 -21.35 -5.05 L-23.05 -5.55 -25.25 -5.9 -24.85 -5.95 -20.6 -5.45 -18.05 -4.85 Q-15.55 -4.1 -14.9 -3.7 L-15.45 -3.25 -15.75 -2.8 -15.15 -2.7 -15.1 -2.7 -16.1 -2.2 -16.55 -2.0 M-5.15 -15.95 L-5.05 -16.05 -5.05 -15.95 -5.05 -15.9 -5.4 -14.55 -5.8 -12.65 -6.15 -10.25 -6.1 -9.5 -6.05 -9.4 -5.95 -8.85 -5.95 -8.7 -6.0 -8.75 -6.35 -7.9 -6.45 -7.55 -6.75 -8.25 -6.9 -8.7 -7.05 -9.6 -6.6 -12.35 Q-6.15 -14.0 -5.05 -15.9 L-5.1 -15.95 -5.15 -15.95 M2.9 -6.4 L2.2 -6.05 6.05 -6.55 5.05 -5.7 4.65 -5.35 4.55 -5.25 4.35 -4.85 5.4 -5.55 5.8 -5.85 6.15 -6.1 7.3 -7.1 4.45 -6.9 2.9 -6.4 M-11.05 -5.15 L-11.05 -5.25 -11.0 -5.15 -11.05 -5.15 M-12.4 -2.75 L-12.15 -2.7 -11.15 -2.8 -11.95 -3.3 -12.25 -3.35 -12.95 -3.45 -12.6 -3.55 -9.85 -4.0 -7.5 -3.9 -7.5 -3.75 Q-8.65 -3.55 -10.35 -2.5 L-12.6 -1.1 -12.6 -1.25 -12.4 -2.75" fill="#e0cbcb" fill-rule="evenodd" stroke="none"/>
    <path d="M4.75 -13.05 L1.2 -11.7 Q-0.55 -11.1 -1.25 -10.35 L-1.95 -11.05 -2.3 -11.35 -1.95 -11.5 -1.5 -11.75 -0.05 -12.35 1.4 -12.9 1.95 -13.0 2.35 -13.05 4.75 -13.05 M-1.25 -6.6 L-2.35 -5.7 -3.35 -4.8 -2.6 -4.95 -2.5 -4.95 Q-0.95 -4.95 0.25 -3.75 L0.25 -3.9 0.25 -4.5 1.65 -3.6 1.7 -3.55 2.8 -2.75 4.5 -1.1 4.5 -0.95 1.25 -1.95 0.4 -2.2 0.3 -2.2 -0.3 -2.15 -0.55 -2.1 -3.25 -1.8 -2.3 -0.65 -2.2 -0.35 -2.75 -0.25 -4.1 -0.15 Q-5.3 -0.05 -6.65 0.6 L-7.7 1.1 -7.85 1.1 -7.75 1.0 Q-6.55 -0.4 -5.0 -1.3 L-4.5 -1.6 -6.0 -1.3 -6.6 -0.95 -10.35 1.85 -6.25 1.65 -6.0 1.6 -5.9 2.4 -5.5 3.5 -5.35 3.75 -3.15 1.4 -3.15 1.8 Q-2.8 2.25 -2.8 2.85 -2.8 3.25 -3.5 3.9 L-4.8 5.1 -6.35 5.3 -7.55 5.3 -8.05 5.3 -8.85 5.3 -9.05 5.25 -7.6 3.5 -7.35 3.2 -7.0 2.9 -10.3 5.2 -10.65 4.6 -11.15 3.8 -12.0 2.8 -12.65 2.25 -13.05 1.9 -13.3 1.75 Q-14.0 1.2 -14.75 0.8 L-15.3 0.55 -15.95 0.25 Q-16.3 0.05 -16.65 -0.05 L-19.15 -0.75 -22.35 -1.1 -16.05 -1.4 -16.55 -2.0 -16.1 -2.2 -15.1 -2.7 -14.15 -2.75 -13.75 -2.8 -13.55 -2.85 -12.4 -2.75 -12.6 -1.25 -12.6 -1.1 -10.35 -2.5 Q-8.65 -3.55 -7.5 -3.75 L-7.5 -3.9 -9.85 -4.0 -12.6 -3.55 -12.95 -3.45 -13.05 -3.45 -14.05 -3.55 -12.3 -4.3 -12.0 -4.4 -10.7 -4.85 -10.65 -4.85 -8.3 -5.4 -10.65 -5.25 -10.65 -5.35 -10.6 -5.4 -10.6 -5.65 -10.65 -5.9 -10.95 -6.45 -11.7 -7.6 -12.15 -8.25 -12.65 -8.85 -13.05 -9.3 -13.15 -9.4 -13.4 -9.6 -13.55 -9.85 -13.9 -10.3 -13.15 -9.95 -12.55 -9.7 -12.0 -9.4 -11.3 -8.9 -10.65 -8.4 -7.7 -6.2 -7.55 -8.45 -7.55 -9.5 -7.45 -10.25 -7.05 -12.15 -7.05 -12.2 Q-6.55 -14.35 -5.15 -15.95 L-5.1 -15.95 -5.05 -15.9 Q-6.15 -14.0 -6.6 -12.35 L-7.05 -9.6 -6.9 -8.7 -6.75 -8.25 -6.45 -7.55 -6.35 -7.9 -6.0 -8.75 -5.95 -8.7 -5.2 -9.3 -3.95 -10.25 -2.5 -11.05 -2.5 -10.25 -2.45 -10.0 -2.3 -9.5 -2.2 -9.15 -1.95 -8.45 -1.85 -8.3 -1.25 -6.6 M-25.25 -5.9 L-26.8 -5.95 -30.3 -5.7 -27.9 -6.7 Q-25.9 -7.45 -23.7 -7.65 -21.75 -7.9 -19.8 -7.65 L-17.1 -7.45 -15.95 -7.2 -15.15 -6.95 -13.8 -6.4 -12.3 -5.9 -11.05 -5.25 -11.05 -5.15 -11.15 -5.15 -11.25 -5.15 Q-12.45 -5.05 -13.75 -4.35 L-14.9 -3.7 Q-15.55 -4.1 -18.05 -4.85 L-20.6 -5.45 -24.85 -5.95 -25.25 -5.9" fill="url(#gradient0)" fill-rule="evenodd" stroke="none"/>
  </g>
  <defs>
    <radialGradient cx="0" cy="0" gradientTransform="matrix(0.0269, 0.0022, -0.0015, 0.0187, -11.95, -12.05)" gradientUnits="userSpaceOnUse" id="gradient0" r="819.2" spreadMethod="pad">
      <stop offset="0.47843137254901963" stop-color="#ffffff"></stop>
      <stop offset="0.8823529411764706" stop-color="#f2eaea"></stop>
    </radialGradient>
  </defs>
</svg>