<?xml version="1.0" encoding="UTF-8" standalone="no"?>
<svg xmlns:xlink="http://www.w3.org/1999/xlink" height="27.75px" width="52.1px" xmlns="http://www.w3.org/2000/svg">
  <g transform="matrix(1.0, 0.0, 0.0, 1.0, 21.8, 16.85)">
    <path d="M-18.9 9.4 L-19.15 9.75 -19.25 9.6 -19.1 9.15 -18.45 7.4 Q-17.85 5.5 -17.85 4.05 -17.85 2.35 -18.5 0.35 L-18.85 -0.7 Q-19.3 -1.95 -19.85 -2.85 L-20.2 -3.55 -20.6 -4.35 -20.8 -4.9 -17.9 -2.9 -16.75 -1.55 -16.1 -0.45 -16.2 -2.15 Q-16.45 -4.5 -17.45 -7.8 L-17.6 -8.1 -18.7 -10.55 -17.7 -9.4 -16.0 -6.6 -14.55 -3.85 -13.85 -2.05 -12.35 -5.9 -10.75 -9.1 Q-8.25 -13.15 -3.65 -15.85 L-3.6 -15.6 -4.85 -13.35 -6.85 -9.4 -6.9 -9.25 -6.9 -9.15 -6.85 -9.15 -4.8 -10.25 -3.15 -10.8 1.25 -11.95 2.3 -12.15 Q7.9 -13.3 12.15 -13.15 L12.5 -13.1 12.6 -12.8 12.45 -12.7 6.5 -8.7 7.7 -8.9 8.2 -9.0 Q10.65 -9.65 12.0 -10.6 L12.15 -10.75 12.2 -10.8 13.85 -12.55 13.65 -11.75 13.55 -11.5 Q12.1 -8.9 10.9 -7.8 L9.95 -7.15 12.55 -6.9 19.6 -6.35 25.1 -5.9 26.85 -5.7 Q27.1 -5.55 24.5 -4.85 L16.45 -3.3 16.3 -3.25 16.4 -3.2 Q18.45 -2.45 20.65 -1.25 L23.35 -0.8 25.45 -0.7 26.1 -0.65 28.35 -0.2 29.3 0.2 29.0 0.45 25.75 1.1 19.45 1.8 Q18.6 1.85 17.75 2.35 15.9 3.6 14.7 5.4 L14.2 6.2 19.1 5.95 Q21.05 6.05 21.05 6.4 L20.1 6.5 19.9 6.55 19.1 6.6 13.3 7.6 12.95 7.65 11.1 8.1 11.55 7.6 11.7 7.4 12.45 6.55 13.1 5.7 14.3 4.6 16.45 2.4 16.2 2.4 16.2 2.35 16.0 2.35 13.15 2.4 13.1 2.35 13.1 2.25 13.05 2.1 Q13.05 1.6 17.45 1.15 L26.65 0.2 21.2 -0.3 19.15 -1.15 Q13.7 -3.2 13.7 -3.4 13.7 -3.65 16.95 -4.15 L23.9 -5.4 24.1 -5.4 23.95 -5.4 23.15 -5.45 21.35 -5.6 15.8 -5.8 10.7 -6.35 10.6 -6.35 9.85 -6.3 8.3 -6.0 7.45 -5.7 7.2 -5.65 6.75 -5.95 Q6.85 -6.25 8.05 -6.85 L9.6 -7.7 9.65 -7.7 11.45 -9.6 11.0 -9.25 9.95 -8.65 Q9.0 -8.1 6.7 -8.0 L5.0 -7.95 4.4 -8.0 4.35 -8.25 6.9 -9.9 10.65 -12.4 9.5 -12.25 4.35 -11.6 0.75 -11.0 -0.55 -10.85 Q-1.6 -10.65 -3.85 -9.85 L-4.45 -9.65 -7.5 -7.8 Q-8.0 -7.8 -7.9 -8.2 L-7.65 -8.95 -6.75 -11.05 -5.3 -14.25 Q-9.9 -9.9 -11.0 -7.4 L-11.2 -6.8 -12.5 -3.4 Q-13.55 -0.65 -13.85 -0.65 L-15.1 -3.3 -15.25 -3.65 -16.05 -5.4 -16.2 -5.8 -16.05 -5.45 -15.8 -4.55 -15.7 -3.7 -15.6 -2.75 -15.5 -0.9 -15.5 -0.45 -15.55 1.05 -15.75 1.2 -17.15 -0.8 -17.3 -1.0 Q-18.7 -2.85 -19.1 -2.75 L-19.15 -2.75 Q-18.55 -2.1 -17.95 -0.25 L-17.8 0.25 Q-17.15 2.4 -17.15 4.1 -17.15 5.8 -17.55 6.85 L-18.8 9.25 -18.9 9.4 M-5.3 -14.25 L-5.3 -14.3 -5.3 -14.25 M11.45 -9.6 L11.45 -9.65 11.45 -9.6 M0.75 -7.4 L0.85 -7.45 0.75 -7.4 Q-1.55 -7.0 -3.95 -5.7 L-6.2 -4.25 -6.6 -3.85 -6.75 -3.75 -6.8 -3.8 Q-6.65 -4.5 -5.6 -5.2 L-5.35 -5.4 -2.6 -6.85 Q1.2 -8.5 3.65 -8.4 L3.7 -8.25 2.75 -7.7 2.0 -7.3 0.7 -6.45 -2.45 -3.95 -2.5 -4.0 -1.2 -5.7 -0.85 -6.05 0.25 -7.05 0.75 -7.4 M8.05 -3.6 Q3.2 -0.15 2.15 -0.15 L1.5 -0.25 1.5 -0.4 Q3.4 -0.8 6.75 -3.55 L7.85 -4.45 8.0 -4.55 10.0 -6.15 10.05 -5.9 9.25 -4.3 7.85 -2.05 Q6.7 -0.45 4.75 0.85 L3.05 1.75 Q2.85 1.7 2.85 1.45 3.1 1.2 3.7 0.8 L4.85 0.0 Q6.3 -1.05 8.1 -3.6 L8.15 -3.7 8.05 -3.6 M16.5 2.3 L16.5 2.35 16.55 2.3 16.5 2.3 M-2.9 6.15 Q-1.75 5.55 -0.05 4.95 L0.2 4.85 2.9 4.0 Q6.2 3.0 8.9 2.6 L9.0 2.85 6.15 4.6 6.1 4.6 5.2 5.15 0.55 7.75 0.05 8.0 -0.05 8.0 -0.15 8.0 Q0.65 7.15 2.6 5.85 2.95 5.6 3.45 5.3 L5.1 4.2 5.8 3.75 5.45 3.8 4.6 3.9 3.4 4.25 2.05 4.75 0.7 5.3 0.1 5.55 Q-3.25 7.05 -4.75 8.2 L-5.0 8.35 -5.1 8.45 -5.35 8.65 -5.5 8.65 -5.5 8.6 -5.55 8.45 Q-5.55 7.4 -2.9 6.15 M-14.35 7.6 L-12.55 4.4 Q-11.45 2.1 -10.25 -1.2 L-10.0 -0.85 -10.6 1.4 -11.25 3.65 -11.45 4.15 -11.45 4.2 -10.55 3.5 -9.1 2.5 Q-7.45 1.45 -7.0 1.45 L-6.7 1.55 -6.65 1.5 -6.65 1.65 -6.8 1.9 -7.15 2.2 -7.35 2.3 -8.05 2.75 -9.5 3.6 -10.2 4.2 -10.7 4.65 -11.15 5.05 -11.3 5.15 -11.9 5.5 -12.25 5.4 -12.3 5.1 -12.1 4.5 -12.05 4.3 -12.05 4.25 Q-13.4 6.6 -14.2 7.55 L-14.45 7.85 -14.5 7.8 -14.35 7.6" fill="#a36a6a" fill-rule="evenodd" stroke="none"/>
    <path d="M-18.9 9.4 L-18.8 9.25 -17.55 6.85 Q-17.15 5.8 -17.15 4.1 -17.15 2.4 -17.8 0.25 L-17.95 -0.25 Q-18.55 -2.1 -19.15 -2.75 L-19.1 -2.75 -18.35 -1.75 -17.6 -0.65 -17.1 0.65 -16.4 3.0 -15.95 4.5 Q-15.5 3.85 -15.5 2.8 L-15.55 1.05 -15.5 -0.45 -15.5 -0.9 -15.6 -2.75 -15.7 -3.7 -15.45 -2.95 -13.55 1.65 -12.9 -1.6 -11.9 -4.2 -12.0 0.45 Q-11.9 0.45 -11.9 0.6 L-10.45 -2.15 -9.9 -3.25 -8.85 -5.55 -7.4 -7.75 -7.5 -7.8 -4.45 -9.65 -3.85 -9.85 -4.6 -8.9 -5.9 -6.9 Q-2.85 -8.9 -0.9 -9.8 L0.75 -10.55 Q3.15 -11.35 9.5 -12.25 L10.65 -12.4 6.9 -9.9 4.35 -8.25 4.4 -8.0 5.0 -7.95 6.7 -8.0 5.9 -7.3 5.25 -6.7 4.45 -6.1 8.9 -7.5 9.4 -7.7 10.95 -9.25 11.0 -9.25 11.45 -9.6 9.65 -7.7 9.6 -7.7 8.05 -6.85 Q6.85 -6.25 6.75 -5.95 L7.2 -5.65 7.45 -5.7 6.2 -4.6 6.3 -4.55 7.85 -4.45 6.75 -3.55 Q3.4 -0.8 1.5 -0.4 L1.5 -0.25 2.15 -0.15 Q3.2 -0.15 8.05 -3.6 L8.1 -3.6 Q6.3 -1.05 4.85 0.0 L3.7 0.8 Q3.1 1.2 2.85 1.45 2.85 1.7 3.05 1.75 L4.75 0.85 Q6.7 -0.45 7.85 -2.05 L9.25 -4.3 12.4 -3.85 12.9 -3.75 23.15 -5.45 23.95 -5.4 23.9 -5.4 16.95 -4.15 Q13.7 -3.65 13.7 -3.4 13.7 -3.2 19.15 -1.15 L21.2 -0.3 26.65 0.2 17.45 1.15 Q13.05 1.6 13.05 2.1 L13.1 2.25 13.1 2.35 13.15 2.4 16.0 2.35 16.2 2.35 16.2 2.4 16.45 2.4 14.3 4.6 13.1 5.7 12.45 6.55 11.7 7.4 11.55 7.6 8.75 7.1 Q7.7 7.1 7.3 6.7 L5.45 6.3 4.0 7.05 Q2.6 7.8 1.5 7.8 0.95 7.8 0.3 8.25 L-0.2 8.15 Q-1.15 7.95 -1.5 7.3 L-3.9 9.05 -4.05 9.05 Q-0.95 6.65 1.95 5.15 L3.3 4.5 3.3 4.3 3.4 4.25 4.6 3.9 5.45 3.8 5.8 3.75 5.1 4.2 3.45 5.3 Q2.95 5.6 2.6 5.85 0.65 7.15 -0.15 8.0 L-0.05 8.0 0.05 8.0 0.55 7.75 5.2 5.15 6.1 4.6 6.15 4.6 9.0 2.85 8.9 2.6 Q6.2 3.0 2.9 4.0 L0.2 4.85 -0.05 4.95 Q-1.75 5.55 -2.9 6.15 L-2.0 4.8 -1.5 3.6 -0.85 1.0 -0.65 0.3 Q0.25 -2.4 1.65 -3.75 -3.35 -2.7 -5.85 1.4 L-6.15 1.95 -7.65 4.8 -8.6 6.8 -8.7 6.6 -9.75 7.3 -10.7 7.8 -11.55 7.5 -11.6 6.8 -11.7 6.75 Q-12.6 7.95 -13.0 7.85 L-14.0 7.5 -14.2 7.55 Q-13.4 6.6 -12.05 4.25 L-12.05 4.3 -12.1 4.5 -12.3 5.1 -12.25 5.4 -11.9 5.5 -11.3 5.15 -10.75 6.0 -10.05 7.05 -8.85 4.95 -7.25 2.35 -7.3 2.3 -7.35 2.3 -7.15 2.2 -6.8 1.9 -6.65 1.65 -6.65 1.5 -6.7 1.55 -7.0 1.45 Q-7.45 1.45 -9.1 2.5 L-10.55 3.5 -11.45 4.2 -11.45 4.15 -11.25 3.65 -10.6 1.4 -10.0 -0.85 -10.25 -1.2 Q-11.45 2.1 -12.55 4.4 L-14.35 7.6 -14.5 7.65 -16.65 8.4 -18.45 9.9 Q-18.85 9.9 -18.9 9.65 L-18.9 9.4 M-16.05 -5.45 L-16.2 -5.8 -16.05 -5.4 -16.05 -5.45 M13.3 7.6 L19.1 6.6 19.9 6.55 20.1 6.5 20.25 6.65 Q19.9 7.5 18.0 8.45 16.2 9.3 15.35 9.3 14.85 9.3 14.85 8.85 14.85 8.55 15.0 8.3 L14.05 8.1 Q13.5 8.1 13.35 7.8 L13.3 7.6 M-6.2 -4.25 L-6.35 -4.0 -6.6 -3.5 Q-7.1 -2.35 -7.1 -1.05 -6.5 -2.55 -3.05 -5.0 L-2.1 -5.65 0.25 -7.05 -0.85 -6.05 -1.2 -5.7 -2.5 -4.0 -2.45 -3.95 0.7 -6.45 2.0 -7.3 2.75 -7.7 3.7 -8.25 3.65 -8.4 Q1.2 -8.5 -2.6 -6.85 L-5.35 -5.4 -5.6 -5.2 Q-6.65 -4.5 -6.8 -3.8 L-6.75 -3.75 -6.6 -3.85 -6.2 -4.25 M11.15 -0.05 L11.9 -0.1 13.6 -0.45 15.35 -1.05 13.85 -1.05 13.4 -0.85 12.25 -0.8 11.75 -0.8 9.7 -0.7 Q10.05 -0.05 11.15 -0.05" fill="#e0cbcb" fill-rule="evenodd" stroke="none"/>
    <path d="M-19.1 -2.75 Q-18.7 -2.85 -17.3 -1.0 L-17.15 -0.8 -15.75 1.2 -15.55 1.05 -15.5 2.8 Q-15.5 3.85 -15.95 4.5 L-16.4 3.0 -17.1 0.65 -17.6 -0.65 -18.35 -1.75 -19.1 -2.75 M-15.7 -3.7 L-15.8 -4.55 -16.05 -5.45 -16.05 -5.4 -15.25 -3.65 -15.1 -3.3 -13.85 -0.65 Q-13.55 -0.65 -12.5 -3.4 L-11.2 -6.8 -11.0 -7.4 Q-9.9 -9.9 -5.3 -14.25 L-6.75 -11.05 -7.65 -8.95 -7.9 -8.2 Q-8.0 -7.8 -7.5 -7.8 L-7.4 -7.75 -8.85 -5.55 -9.9 -3.25 -10.45 -2.15 -11.9 0.6 Q-11.9 0.45 -12.0 0.45 L-11.9 -4.2 -12.9 -1.6 -13.55 1.65 -15.45 -2.95 -15.7 -3.7 M-3.85 -9.85 Q-1.6 -10.65 -0.55 -10.85 L0.75 -11.0 4.35 -11.6 9.5 -12.25 Q3.15 -11.35 0.75 -10.55 L-0.9 -9.8 Q-2.85 -8.9 -5.9 -6.9 L-4.6 -8.9 -3.85 -9.85 M6.7 -8.0 Q9.0 -8.1 9.95 -8.65 L11.0 -9.25 10.95 -9.25 9.4 -7.7 8.9 -7.5 4.45 -6.1 5.25 -6.7 5.9 -7.3 6.7 -8.0 M7.45 -5.7 L8.3 -6.0 9.85 -6.3 10.6 -6.35 10.7 -6.35 15.8 -5.8 21.35 -5.6 23.15 -5.45 12.9 -3.75 12.4 -3.85 9.25 -4.3 10.05 -5.9 10.0 -6.15 8.0 -4.55 7.85 -4.45 6.3 -4.55 6.2 -4.6 7.45 -5.7 M-6.2 -4.25 L-3.95 -5.7 Q-1.55 -7.0 0.75 -7.4 L0.25 -7.05 -2.1 -5.65 -3.05 -5.0 Q-6.5 -2.55 -7.1 -1.05 -7.1 -2.35 -6.6 -3.5 L-6.35 -4.0 -6.2 -4.25 M11.15 -0.05 Q10.05 -0.05 9.7 -0.7 L11.75 -0.8 12.25 -0.8 13.4 -0.85 13.85 -1.05 15.35 -1.05 13.6 -0.45 11.9 -0.1 11.15 -0.05 M-2.9 6.15 Q-5.55 7.4 -5.55 8.45 L-5.5 8.6 -6.3 8.9 Q-6.95 8.9 -6.95 8.5 -7.0 7.95 -7.35 7.7 L-8.4 6.95 -8.6 6.8 -7.65 4.8 -6.15 1.95 -5.85 1.4 Q-3.35 -2.7 1.65 -3.75 0.25 -2.4 -0.65 0.3 L-0.85 1.0 -1.5 3.6 -2.0 4.8 -2.9 6.15 M-5.1 8.45 L-5.0 8.35 -4.75 8.2 Q-3.25 7.05 0.1 5.55 L0.7 5.3 2.05 4.75 3.3 4.3 3.3 4.5 1.95 5.15 Q-0.95 6.65 -4.05 9.05 -5.1 9.0 -5.3 8.65 L-5.1 8.45 M-7.35 2.3 L-7.3 2.3 -7.25 2.35 -8.85 4.95 -10.05 7.05 -10.75 6.0 -11.3 5.15 -11.15 5.05 -10.7 4.65 -10.2 4.2 Q-9.55 3.7 -8.9 3.3 L-8.05 2.75 -7.35 2.3 M-6.3 3.5 L-6.75 3.65 -6.75 3.75 -6.3 3.5 M-4.8 4.65 L-4.85 4.55 -4.85 4.65 -4.8 4.65" fill="url(#gradient0)" fill-rule="evenodd" stroke="none"/>
  </g>
  <defs>
    <radialGradient cx="0" cy="0" gradientTransform="matrix(0.0255, -0.0091, 0.0063, 0.0177, -7.35, -7.5)" gradientUnits="userSpaceOnUse" id="gradient0" r="819.2" spreadMethod="pad">
      <stop offset="0.47843137254901963" stop-color="#ffffff"></stop>
      <stop offset="0.8823529411764706" stop-color="#f2eaea"></stop>
    </radialGradient>
  </defs>
</svg>