<?xml version="1.0" encoding="UTF-8" standalone="no"?>
<svg xmlns:xlink="http://www.w3.org/1999/xlink" height="47.7px" width="54.45px" xmlns="http://www.w3.org/2000/svg">
  <g transform="matrix(1.0, 0.0, 0.0, 1.0, 27.25, 23.85)">
    <path d="M-17.4 17.1 L-17.15 17.25 -14.1 18.85 -13.75 19.0 -13.45 19.1 -12.9 19.3 -12.65 19.4 -8.15 20.75 -6.45 21.15 -5.55 21.35 3.4 22.15 Q7.95 22.1 11.9 20.45 15.8 18.8 18.8 14.85 21.8 10.9 23.55 6.7 25.25 2.65 25.45 -1.6 25.65 -5.85 24.2 -9.85 23.15 -12.8 21.1 -14.95 L21.1 -15.0 18.4 -17.35 18.35 -17.35 18.15 -17.5 Q14.6 -19.8 10.65 -21.2 6.1 -22.3 1.55 -22.3 -3.45 -22.3 -8.1 -20.45 -12.6 -18.65 -16.1 -15.3 L-19.2 -11.9 -21.1 -9.4 -22.75 -7.0 -24.35 -3.75 -25.2 -0.35 -25.5 1.1 -25.35 3.9 Q-25.0 6.3 -24.15 8.55 -23.35 10.7 -22.05 12.55 L-21.75 12.95 Q-19.9 15.4 -17.4 17.1 M1.6 -22.85 Q7.8 -22.95 13.3 -20.6 17.2 -19.0 20.5 -16.35 22.05 -15.15 23.3 -13.5 25.2 -10.8 25.8 -7.55 L25.95 -6.6 Q26.5 -2.95 25.95 0.7 L25.75 1.85 Q24.75 7.1 22.1 11.6 20.0 15.0 17.25 17.75 14.0 21.0 9.55 22.05 L-0.05 22.8 Q-4.65 22.45 -9.25 21.2 -13.35 20.05 -17.3 17.95 -20.1 16.4 -22.05 14.0 L-22.55 13.3 Q-24.1 11.25 -24.9 8.9 L-26.05 4.15 Q-26.45 1.9 -26.0 -0.35 L-25.8 -1.5 Q-25.45 -3.5 -24.45 -5.6 L-22.3 -9.2 -20.2 -11.9 -19.7 -12.5 Q-16.65 -16.15 -12.9 -18.65 -9.2 -21.15 -3.65 -22.3 L1.6 -22.85" fill="#a36a6a" fill-rule="evenodd" stroke="none"/>
    <path d="M18.35 -17.35 L18.4 -17.35 21.1 -15.0 21.1 -14.95 Q23.15 -12.8 24.2 -9.85 25.65 -5.85 25.45 -1.6 25.25 2.65 23.55 6.7 21.8 10.9 18.8 14.85 15.8 18.8 11.9 20.45 7.95 22.1 3.4 22.15 L-5.55 21.35 -6.45 21.15 -8.15 20.75 -12.65 19.4 -12.9 19.3 -13.45 19.1 -13.75 19.0 -14.1 18.85 -17.15 17.25 -17.4 17.1 -17.1 17.2 Q-11.8 18.75 -6.35 18.75 7.7 18.75 14.75 11.2 L14.9 10.25 Q14.9 9.3 14.2 7.45 L13.5 5.5 Q17.35 3.65 18.95 2.25 L20.3 0.8 Q21.3 -3.05 21.15 -7.25 21.15 -11.35 19.15 -15.65 L18.35 -17.35" fill="#cca9a9" fill-rule="evenodd" stroke="none"/>
    <path d="M-17.4 17.1 Q-19.9 15.4 -21.75 12.95 L-22.05 12.55 Q-23.35 10.7 -24.15 8.55 -25.0 6.3 -25.35 3.9 L-25.5 1.1 -24.85 1.75 Q-23.75 2.75 -22.05 3.3 L-17.95 3.95 -17.15 4.05 -11.2 4.2 Q-8.45 3.95 -3.3 2.4 1.45 1.0 4.25 -0.95 6.95 -2.85 9.3 -7.2 11.8 -11.85 11.8 -15.6 11.8 -19.0 10.65 -21.2 14.6 -19.8 18.15 -17.5 L18.35 -17.35 19.15 -15.65 Q21.15 -11.35 21.15 -7.25 21.3 -3.05 20.3 0.8 L18.95 2.25 Q17.35 3.65 13.5 5.5 L14.2 7.45 Q14.9 9.3 14.9 10.25 L14.75 11.2 Q7.7 18.75 -6.35 18.75 -11.8 18.75 -17.1 17.2 L-17.4 17.1" fill="#e0cbcb" fill-rule="evenodd" stroke="none"/>
    <path d="M-25.5 1.1 L-25.2 -0.35 -24.35 -3.75 -22.75 -7.0 -21.1 -9.4 -19.2 -11.9 -16.1 -15.3 Q-12.6 -18.65 -8.1 -20.45 -3.45 -22.3 1.55 -22.3 6.1 -22.3 10.65 -21.2 11.8 -19.0 11.8 -15.6 11.8 -11.85 9.3 -7.2 6.95 -2.85 4.25 -0.95 1.45 1.0 -3.3 2.4 -8.45 3.95 -11.2 4.2 L-17.15 4.05 -17.95 3.95 -22.05 3.3 Q-23.75 2.75 -24.85 1.75 L-25.5 1.1" fill="url(#gradient0)" fill-rule="evenodd" stroke="none"/>
  </g>
  <defs>
    <radialGradient cx="0" cy="0" gradientTransform="matrix(0.0224, -0.0152, 0.0106, 0.0155, -10.4, -13.85)" gradientUnits="userSpaceOnUse" id="gradient0" r="819.2" spreadMethod="pad">
      <stop offset="0.47843137254901963" stop-color="#ffffff"></stop>
      <stop offset="0.8823529411764706" stop-color="#f2eaea"></stop>
    </radialGradient>
  </defs>
</svg>