<?xml version="1.0" encoding="UTF-8" standalone="no"?>
<svg xmlns:xlink="http://www.w3.org/1999/xlink" height="14.5px" width="12.9px" xmlns="http://www.w3.org/2000/svg">
  <g transform="matrix(1.0, 0.0, 0.0, 1.0, 6.45, 7.25)">
    <path d="M4.6 -3.65 L4.5 -3.1 4.25 -1.7 4.25 -1.45 4.2 -1.3 3.6 3.35 3.55 3.35 3.3 2.85 Q3.05 2.6 3.1 2.4 1.7 4.5 0.35 5.3 L0.25 4.2 -0.15 3.6 -1.15 4.25 Q-1.9 4.8 -2.65 4.8 L-3.65 4.65 -3.75 4.35 0.55 -0.65 Q3.85 -4.15 4.6 -3.65" fill="#cca9a9" fill-rule="evenodd" stroke="none"/>
    <path d="M-3.65 4.65 L-2.65 4.8 Q-1.9 4.8 -1.15 4.25 L-0.15 3.6 0.25 4.2 0.35 5.3 Q1.7 4.5 3.1 2.4 3.05 2.6 3.3 2.85 L3.55 3.35 3.6 3.35 4.2 -1.3 4.25 -1.45 4.25 -1.7 4.5 -3.1 4.6 -3.65 5.25 -6.25 5.45 -4.7 4.95 -0.9 Q4.45 1.45 4.45 3.15 L4.45 5.1 4.15 4.85 3.05 3.75 3.0 3.7 Q2.75 4.4 1.5 5.35 0.3 6.25 -0.4 6.25 L-0.55 4.8 -0.6 4.7 -1.35 5.35 -2.65 5.55 -4.05 5.3 -5.45 4.9 -5.25 4.6 -4.35 4.55 -3.65 4.65" fill="#a36a6a" fill-rule="evenodd" stroke="none"/>
  </g>
</svg>