<?xml version="1.0" encoding="UTF-8" standalone="no"?>
<svg xmlns:xlink="http://www.w3.org/1999/xlink" height="8.2px" width="16.75px" xmlns="http://www.w3.org/2000/svg">
  <g transform="matrix(1.0, 0.0, 0.0, 1.0, 8.35, 4.1)">
    <path d="M4.2 -2.05 L3.75 -2.0 2.8 -2.25 1.35 -2.6 0.95 -2.8 2.95 -3.0 4.2 -2.35 4.2 -2.05 M7.1 3.1 Q6.7 3.1 5.3 2.3 3.9 1.45 0.15 1.45 L-4.1 1.75 -6.95 2.3 -7.15 2.35 -7.35 2.15 Q-7.35 1.75 -4.2 1.2 L-0.55 0.65 Q5.0 0.15 7.35 2.95 L7.4 3.05 7.1 3.1 M5.3 0.15 Q3.8 -0.55 -0.75 -0.55 L-2.85 -0.2 Q-3.1 -0.2 -3.2 -0.35 -0.15 -1.55 3.5 -1.0 6.9 -0.5 6.9 0.55 L6.9 0.8 6.7 0.85 5.3 0.15" fill="#a36a6a" fill-rule="evenodd" stroke="none"/>
  </g>
</svg>