<?xml version="1.0" encoding="UTF-8" standalone="no"?>
<svg xmlns:xlink="http://www.w3.org/1999/xlink" height="15.6px" width="12.3px" xmlns="http://www.w3.org/2000/svg">
  <g transform="matrix(1.0, 0.0, 0.0, 1.0, 4.4, 5.35)">
    <path d="M0.1 -4.0 L0.8 -4.25 3.6 -3.95 5.15 -2.2 Q6.9 0.2 6.9 1.55 L6.55 2.8 6.3 3.55 6.2 3.5 5.75 3.9 5.15 4.5 Q4.25 5.45 4.1 5.75 3.75 6.3 3.2 8.25 2.5 8.1 1.0 6.9 0.65 6.9 0.65 8.15 L0.7 8.6 Q-0.5 7.85 -0.9 6.65 -1.4 4.5 -1.55 4.5 L-2.8 5.7 -2.65 5.1 -2.55 3.75 -2.4 2.2 -2.0 0.7 -1.3 -0.7 -1.55 -0.95 -2.2 -0.75 -2.25 -0.8 -1.2 -2.5 -0.4 -3.5 -0.4 -3.55 0.1 -4.0" fill="#e0cbcb" fill-rule="evenodd" stroke="none"/>
    <path d="M6.3 3.55 L6.35 3.6 5.35 4.85 4.35 6.1 3.8 7.55 Q3.5 8.65 3.25 8.65 L2.05 8.2 1.1 7.55 1.05 8.05 1.2 8.95 1.0 9.25 Q0.5 9.25 -0.2 8.55 L-1.1 7.4 -1.7 5.1 -3.4 7.1 -3.15 5.05 -2.9 2.55 Q-2.75 1.05 -2.1 -0.3 L-2.1 -0.35 -3.4 0.3 Q-3.1 0.05 -2.75 -0.7 L-2.15 -1.95 -1.35 -3.15 Q-0.85 -3.9 0.1 -4.05 L0.1 -4.0 -0.4 -3.55 -0.4 -3.5 -1.2 -2.5 -2.25 -0.8 -2.25 -0.75 -2.2 -0.75 -1.55 -0.95 -1.3 -0.7 -2.0 0.7 -2.4 2.2 -2.55 3.75 -2.65 5.1 -2.8 5.7 -1.55 4.5 Q-1.4 4.5 -0.9 6.65 -0.5 7.85 0.7 8.6 L0.65 8.15 Q0.65 6.9 1.0 6.9 2.5 8.1 3.2 8.25 3.75 6.3 4.1 5.75 4.25 5.45 5.15 4.5 L5.75 3.9 6.2 3.5 6.3 3.55" fill="#a36a6a" fill-rule="evenodd" stroke="none"/>
  </g>
</svg>