<?xml version="1.0" encoding="UTF-8" standalone="no"?>
<svg xmlns:xlink="http://www.w3.org/1999/xlink" height="10.05px" width="15.25px" xmlns="http://www.w3.org/2000/svg">
  <g transform="matrix(1.0, 0.0, 0.0, 1.0, 7.65, 5)">
    <path d="M-5.0 0.7 Q-4.6 0.3 -3.3 -0.35 -1.1 -1.45 1.1 -1.45 L3.6 -1.2 3.75 -1.35 3.9 -1.3 4.65 -0.75 4.6 -0.75 4.7 -0.7 Q5.75 0.15 5.75 1.0 5.75 1.9 3.55 2.6 L-1.05 3.25 Q-3.25 3.25 -4.5 1.45 L-4.55 1.45 -5.0 0.7 M-2.2 0.25 L-2.2 0.15 -2.3 0.2 -2.2 0.25" fill="#cca9a9" fill-rule="evenodd" stroke="none"/>
    <path d="M4.7 -0.7 L4.6 -0.75 4.65 -0.75 3.9 -1.3 3.75 -1.35 3.6 -1.2 1.1 -1.45 Q-1.1 -1.45 -3.3 -0.35 -4.6 0.3 -5.0 0.7 -5.55 -0.4 -5.9 -2.0 L-5.9 -2.7 Q-0.85 -3.7 2.8 -1.9 4.0 -1.3 4.7 -0.7 M-2.2 0.25 L-2.3 0.2 -2.2 0.15 -2.2 0.25" fill="#e0cbcb" fill-rule="evenodd" stroke="none"/>
    <path d="M4.7 -0.7 Q4.0 -1.3 2.8 -1.9 -0.85 -3.7 -5.9 -2.7 L-5.9 -2.0 Q-5.55 -0.4 -5.0 0.7 L-4.55 1.45 -4.5 1.45 Q-3.25 3.25 -1.05 3.25 L3.55 2.6 Q5.75 1.9 5.75 1.0 5.75 0.15 4.7 -0.7 M4.75 3.05 Q2.6 4.05 -1.05 4.05 -4.25 4.05 -5.75 0.9 -6.65 -1.0 -6.65 -2.65 -6.65 -4.8 0.0 -3.55 6.6 -2.35 6.6 0.95 6.6 2.15 4.75 3.05" fill="#a36a6a" fill-rule="evenodd" stroke="none"/>
  </g>
</svg>