<?xml version="1.0" encoding="UTF-8" standalone="no"?>
<svg xmlns:xlink="http://www.w3.org/1999/xlink" height="17.65px" width="16.4px" xmlns="http://www.w3.org/2000/svg">
  <g transform="matrix(1.0, 0.0, 0.0, 1.0, 8.2, 8.85)">
    <path d="M-4.25 -7.3 L-1.95 -7.55 -1.25 -7.85 -1.2 -7.85 -1.05 -7.85 Q1.3 -7.85 3.55 -6.8 5.3 -6.0 6.1 -5.1 L6.4 -4.1 6.5 -3.0 6.85 -1.0 6.8 -0.5 6.7 -0.75 6.45 -1.25 6.5 -0.3 6.5 -0.25 6.6 1.55 6.45 4.25 Q6.4 5.1 6.7 5.1 L4.8 5.15 2.85 5.3 1.85 5.4 1.8 5.55 1.85 5.9 1.95 6.45 1.55 6.15 1.4 6.1 0.35 5.55 0.25 5.5 0.05 5.4 Q-0.55 5.3 -0.65 4.85 L-0.75 4.7 Q-1.0 4.75 -1.05 4.9 L-1.5 6.1 -1.55 6.05 -1.85 5.85 -2.15 5.55 -1.15 2.55 Q-1.05 1.4 -0.3 -0.45 L-0.3 -0.5 Q-1.45 1.45 -2.15 1.45 L-2.4 1.3 -2.4 1.15 -2.1 -1.6 Q-2.1 -3.6 -3.65 -4.7 L-4.3 -5.2 -4.3 -5.35 Q-4.2 -6.3 -4.25 -7.3 M0.7 4.3 L0.2 3.05 -0.75 4.15 0.05 4.9 1.1 5.65 0.7 4.3" fill="#cca9a9" fill-rule="evenodd" stroke="none"/>
    <path d="M6.8 -0.5 L7.1 1.4 7.15 3.9 7.2 5.1 7.2 5.85 2.25 5.75 2.4 7.55 2.3 7.8 2.1 7.65 1.5 6.7 1.3 6.45 0.8 6.2 -0.55 5.65 -0.9 5.65 -0.95 6.15 -1.0 6.45 -1.05 6.6 -1.2 6.75 -1.75 6.6 -3.1 5.5 -4.15 3.75 -4.85 4.5 -5.75 5.35 -5.35 3.3 -5.2 0.95 -5.2 0.75 -5.4 0.9 -5.9 1.4 -6.8 2.05 -7.15 2.0 -7.2 1.85 -6.45 0.1 -6.1 -1.0 -5.4 -2.95 Q-4.85 -4.5 -4.9 -6.8 L-4.25 -7.3 Q-4.2 -6.3 -4.3 -5.35 L-4.3 -5.2 Q-4.5 -3.8 -5.0 -2.45 L-5.3 -1.55 -5.75 -0.35 -6.2 0.9 -6.25 1.0 -4.85 -0.2 Q-4.5 -0.55 -4.55 -0.15 L-4.6 2.25 -4.5 3.2 -3.85 3.1 -3.7 3.3 -3.3 4.1 -2.65 5.1 -1.85 5.85 -1.55 6.05 -1.5 6.1 -1.05 4.9 Q-1.0 4.75 -0.75 4.7 L-0.65 4.85 Q-0.55 5.3 0.05 5.4 L0.25 5.5 0.35 5.55 1.4 6.1 1.55 6.15 1.95 6.45 1.85 5.9 1.8 5.55 1.85 5.4 2.85 5.3 4.8 5.15 6.7 5.1 Q6.4 5.1 6.45 4.25 L6.6 1.55 6.5 -0.25 6.5 -0.3 6.45 -1.25 6.7 -0.75 6.8 -0.5" fill="#a36a6a" fill-rule="evenodd" stroke="none"/>
    <path d="M-4.3 -5.2 L-3.65 -4.7 Q-2.1 -3.6 -2.1 -1.6 L-2.4 1.15 -2.4 1.3 -2.15 1.45 Q-1.45 1.45 -0.3 -0.5 L-0.3 -0.45 Q-1.05 1.4 -1.15 2.55 L-2.15 5.55 -1.85 5.85 -2.65 5.1 -3.3 4.1 -3.7 3.3 -3.85 3.1 -4.5 3.2 -4.6 2.25 -4.55 -0.15 Q-4.5 -0.55 -4.85 -0.2 L-6.25 1.0 -6.2 0.9 -5.75 -0.35 -5.3 -1.55 -5.0 -2.45 Q-4.5 -3.8 -4.3 -5.2 M0.7 4.3 L1.1 5.65 0.05 4.9 -0.75 4.15 0.2 3.05 0.7 4.3" fill="#e0cbcb" fill-rule="evenodd" stroke="none"/>
  </g>
</svg>