<?xml version="1.0" encoding="UTF-8" standalone="no"?>
<svg xmlns:xlink="http://www.w3.org/1999/xlink" height="84.6px" width="87.1px" xmlns="http://www.w3.org/2000/svg">
  <g transform="matrix(1.0, 0.0, 0.0, 1.0, 1, 1)">
    <path d="M74.2 33.4 L74.0 32.9 75.25 33.25 Q75.3 33.95 74.2 33.4 M76.05 42.2 L76.5 43.1 Q76.7 43.3 75.7 43.3 73.6 43.3 73.05 41.65 L74.1 41.35 76.05 42.2 M39.7 70.0 Q40.35 69.5 40.8 69.35 L41.25 69.75 41.4 69.95 41.0 69.95 Q40.45 70.1 39.95 70.95 L39.7 70.0 M65.2 59.85 Q65.45 59.6 65.85 59.6 66.25 59.6 66.55 59.85 L66.8 60.35 66.55 60.9 65.85 61.1 65.2 60.9 Q64.9 60.65 64.9 60.35 64.9 60.05 65.2 59.85" fill="#e9c9c9" fill-rule="evenodd" stroke="none"/>
    <path d="M10.1 60.55 L8.85 62.8 7.55 60.15 8.55 58.55 Q9.4 58.9 10.1 60.55 M65.35 23.05 Q65.6 22.75 66.0 22.75 66.4 22.75 66.7 23.05 L66.95 23.65 66.7 24.3 66.0 24.55 65.35 24.3 Q65.05 24.0 65.05 23.65 65.05 23.3 65.35 23.05 M49.65 40.5 Q50.6 40.55 50.9 40.15 52.05 41.85 52.7 42.2 L54.0 42.4 56.9 42.65 57.15 42.85 57.35 43.8 57.15 44.75 56.45 44.9 56.45 44.7 Q55.05 43.6 54.4 43.5 L52.25 43.45 Q51.95 43.75 52.9 44.75 L50.4 44.85 Q49.2 42.95 48.0 42.55 48.85 42.0 48.85 41.0 48.85 40.5 49.65 40.5 M57.8 41.2 L56.65 40.95 Q57.5 40.2 57.2 39.85 58.0 40.55 57.8 41.2 M46.25 43.55 L45.25 42.9 Q45.4 42.05 46.25 43.55 M61.45 30.05 Q60.55 29.9 60.65 29.45 60.9 29.35 62.4 30.15 L61.45 30.05 M64.55 25.0 L65.75 25.3 66.2 25.9 65.75 26.55 64.55 26.8 63.4 26.55 62.9 25.9 Q62.9 25.55 63.4 25.3 63.85 25.0 64.55 25.0 M36.3 51.25 Q36.8 51.75 36.8 55.5 36.8 55.9 38.15 56.4 39.5 56.85 39.5 58.9 L38.15 59.9 36.55 58.3 Q35.75 57.35 35.8 56.25 35.45 54.15 35.45 53.15 35.45 52.5 35.8 51.85 L36.3 51.25 M39.15 52.15 L41.1 56.05 40.85 56.8 40.25 57.05 Q38.9 55.4 38.9 54.4 L39.0 53.6 39.15 52.15 M24.15 59.0 L25.7 59.0 25.7 60.9 24.15 60.9 24.15 59.0 M72.25 58.25 L72.4 57.6 Q73.4 58.95 73.0 60.4 L72.55 60.4 72.4 60.25 Q72.05 59.85 72.05 58.85 72.05 58.35 72.25 58.25" fill="#dcb8b8" fill-rule="evenodd" stroke="none"/>
    <path d="M40.65 14.25 L42.1 14.25 41.35 16.05 40.65 14.25 M59.05 48.2 Q58.35 48.35 58.35 47.95 L57.65 47.45 58.55 47.25 Q59.55 47.1 59.75 47.25 59.7 48.05 59.05 48.2 M40.15 10.45 L40.35 10.95 40.15 11.5 39.6 11.7 Q39.3 11.7 39.1 11.5 L38.85 10.95 Q38.85 10.65 39.1 10.45 39.3 10.2 39.6 10.2 39.9 10.2 40.15 10.45 M28.45 23.3 Q31.2 23.85 32.65 25.05 L32.3 25.35 31.15 25.15 Q30.4 24.7 29.7 24.7 L28.2 24.8 27.9 24.05 Q27.45 23.3 28.45 23.3 M39.0 18.55 L39.0 19.65 36.4 19.65 36.4 18.55 39.0 18.55 M38.45 14.3 L35.4 15.35 34.95 15.4 Q34.5 15.35 34.45 14.9 35.85 12.65 38.45 13.4 38.65 14.1 38.45 14.3 M31.75 20.7 Q32.25 20.7 32.65 21.1 33.0 21.45 33.0 21.95 L32.65 22.85 31.75 23.2 Q31.25 23.2 30.9 22.85 30.5 22.45 30.5 21.95 30.5 21.45 30.9 21.1 31.25 20.7 31.75 20.7 M38.1 21.5 L37.6 21.7 Q37.3 21.7 37.1 21.5 L36.9 21.0 37.1 20.5 Q37.3 20.3 37.6 20.3 L38.1 20.5 38.3 21.0 38.1 21.5 M20.0 36.0 L18.5 35.85 18.25 34.65 Q19.3 35.15 20.0 36.0 M9.6 33.1 Q12.2 34.4 11.65 39.9 11.5 41.7 10.8 39.8 10.1 37.9 10.15 36.85 L9.9 36.15 8.8 38.95 Q8.15 38.9 7.6 38.55 6.95 38.1 6.95 37.4 6.95 34.8 7.8 33.65 8.55 32.6 9.6 33.1 M17.35 42.4 L16.3 41.65 Q15.45 40.8 14.95 39.05 L14.65 37.7 17.1 40.05 18.35 41.5 18.15 41.9 Q17.8 42.35 17.35 42.4 M13.8 37.5 L14.05 41.65 14.2 41.4 15.25 42.15 15.1 43.35 15.25 43.45 14.65 43.55 Q14.05 43.55 13.7 43.25 12.85 42.5 12.8 40.1 12.9 38.8 13.8 37.5 M30.55 30.85 L28.05 29.9 29.6 32.75 29.55 33.6 27.2 33.25 Q26.15 32.85 26.15 30.85 L26.55 30.05 Q26.85 29.6 26.65 28.35 30.45 28.75 30.85 30.2 L30.8 30.4 30.55 30.85 M34.3 39.65 Q36.0 40.3 36.95 41.25 37.85 42.2 38.4 43.95 37.2 44.35 36.4 43.7 35.8 43.2 34.65 41.1 L34.3 39.65 M50.85 54.4 L50.1 53.5 Q49.6 53.5 49.95 53.9 50.25 54.3 49.75 54.3 49.2 54.3 48.5 53.45 L47.25 52.25 Q47.7 52.45 47.7 51.55 L47.6 50.85 46.9 49.8 47.15 49.8 47.55 50.05 Q47.8 50.05 48.05 49.35 L51.95 53.8 52.65 55.75 50.85 54.4 M42.35 52.0 L42.75 52.8 43.15 53.95 42.35 52.0" fill="#f1dbdb" fill-rule="evenodd" stroke="none"/>
    <path d="M6.05 50.05 L7.5 47.5 6.45 47.65 4.95 49.85 5.5 40.65 Q4.95 40.65 3.6 42.2 L3.4 41.0 4.2 35.65 Q4.15 34.35 0.65 37.8 1.1 36.3 3.65 31.6 L3.75 31.4 3.05 31.15 0.0 30.15 0.0 30.0 Q0.8 29.8 3.7 28.2 3.8 27.75 3.35 27.15 L3.0 26.8 3.05 26.8 4.6 27.0 6.5 26.7 6.55 26.6 Q4.1 25.4 3.0 25.5 3.55 25.25 7.05 24.3 L8.5 23.95 7.7 23.05 5.95 20.4 8.9 20.4 6.9 18.65 11.1 17.75 10.0 16.05 11.6 16.05 Q11.6 15.8 12.95 16.05 L14.6 16.55 14.7 16.5 12.35 15.05 12.45 14.7 17.7 14.9 14.75 11.6 16.8 11.6 Q19.55 11.95 22.25 13.15 L18.9 8.0 25.25 8.0 25.25 4.7 Q25.75 4.7 29.1 7.55 L29.1 4.7 31.85 5.05 33.25 2.1 Q34.45 3.25 35.05 4.4 L35.5 2.4 35.4 2.15 37.35 4.5 Q37.55 3.55 38.45 2.35 L40.15 0.55 40.2 0.55 39.4 3.7 39.4 3.85 Q39.8 3.05 41.3 2.35 L43.2 1.55 43.45 3.5 45.1 2.25 Q44.2 4.1 42.95 5.35 42.0 6.25 42.0 6.65 42.0 7.3 42.25 7.6 L42.5 7.8 Q43.55 8.3 44.8 9.15 L44.85 9.2 45.0 9.3 45.6 9.4 46.15 9.3 47.5 8.9 47.6 6.45 44.5 6.45 Q44.8 5.7 45.5 5.35 47.85 6.55 49.75 6.55 L50.0 8.55 47.9 9.1 45.5 10.55 Q47.1 10.5 47.1 11.5 L46.7 12.95 46.3 14.35 Q46.3 16.35 47.65 16.35 L50.7 15.5 51.15 16.9 Q50.35 16.3 49.8 16.4 49.5 16.45 49.35 16.65 L51.35 19.05 50.4 18.5 47.85 18.85 Q47.9 19.3 48.5 19.95 L49.15 20.5 47.15 21.1 Q47.2 21.65 48.05 22.35 L48.9 23.0 46.35 23.35 47.7 25.95 45.2 26.25 45.05 27.0 49.25 28.95 49.3 28.95 49.25 28.9 50.45 29.45 51.85 29.65 52.7 29.55 52.6 30.7 51.1 30.6 50.0 30.05 Q50.3 31.05 50.3 33.05 L48.15 31.3 Q46.95 30.4 46.3 30.4 L43.6 29.7 42.5 29.95 Q42.15 30.2 42.15 30.9 42.15 31.9 42.6 32.45 L44.45 32.7 Q45.3 32.65 46.15 32.05 L46.85 31.45 47.2 32.15 46.15 32.05 47.95 33.8 46.95 34.3 45.2 34.75 Q44.05 34.75 43.85 33.7 43.55 32.4 39.9 31.65 L42.0 33.5 43.9 35.1 Q43.3 35.25 38.9 33.15 L41.1 35.65 Q38.65 34.9 37.65 35.65 37.6 36.4 38.4 37.35 L39.4 38.35 37.65 38.1 37.35 38.4 39.5 40.3 37.5 38.75 Q35.8 37.25 35.35 37.4 35.65 38.45 37.45 40.25 38.95 41.75 38.95 44.25 38.95 45.25 36.65 45.6 35.95 44.25 34.95 43.25 L33.9 42.45 33.3 42.35 Q32.7 41.85 32.3 39.65 32.1 40.2 32.05 40.7 32.35 43.35 33.05 45.15 L32.0 45.25 31.85 43.15 30.6 45.65 29.8 42.6 29.6 41.65 Q28.95 41.75 28.55 42.1 L28.4 44.6 28.15 48.95 27.75 53.5 26.5 53.15 27.45 54.25 27.9 55.35 Q27.9 56.35 27.7 55.7 L27.4 55.8 26.0 54.4 Q25.1 53.35 24.15 53.0 24.35 52.55 25.0 52.05 25.55 51.65 25.55 50.95 L25.3 49.25 Q25.1 48.2 25.3 47.9 26.0 46.8 26.0 45.55 L25.95 44.7 25.7 44.3 24.15 46.35 23.4 42.8 22.6 44.05 22.45 48.2 Q22.45 48.7 23.15 49.75 L23.8 51.3 Q23.8 52.3 22.6 53.25 L24.0 54.75 Q25.1 56.2 25.65 58.1 24.85 58.9 24.05 57.85 22.25 55.7 21.75 52.4 21.1 48.55 20.3 47.05 L19.8 48.15 Q19.25 49.9 19.25 51.6 19.25 54.05 20.0 55.6 L20.7 57.0 18.75 56.95 17.55 54.7 17.3 56.35 17.1 52.95 17.25 50.05 Q17.25 49.2 16.65 48.65 16.35 49.25 16.45 51.8 16.25 53.7 14.45 52.25 14.55 52.0 15.1 52.05 15.6 52.1 15.6 51.55 L15.4 50.75 14.85 50.35 Q13.55 51.15 12.8 50.85 12.95 50.4 13.65 49.35 L14.35 47.85 Q13.6 47.9 12.95 48.3 L11.65 49.9 10.75 50.65 10.65 49.7 Q10.75 48.95 11.35 47.5 L11.9 46.15 11.8 44.85 11.65 44.25 10.75 44.65 9.25 46.55 8.8 47.55 Q8.8 48.55 9.55 49.3 9.5 50.35 9.35 49.45 L6.1 51.1 6.05 50.05 M60.9 23.8 L60.65 23.5 61.2 23.5 60.9 23.8 M60.75 21.8 L61.35 22.5 57.0 22.8 57.25 23.8 59.15 23.6 Q60.15 23.6 60.65 24.65 L60.25 25.55 56.75 24.55 Q55.05 24.15 54.15 23.1 55.7 22.3 56.7 22.3 L58.5 21.9 58.55 21.9 58.8 21.75 59.0 21.6 58.9 21.6 59.2 21.2 Q60.5 19.6 62.0 21.8 L60.75 21.8 M53.75 8.85 L53.45 9.7 Q53.1 10.0 52.6 10.0 52.1 10.0 51.8 9.7 51.45 9.35 51.45 8.85 51.45 8.35 51.8 8.05 52.1 7.7 52.6 7.7 53.1 7.7 53.45 8.05 L53.75 8.85 M51.85 10.4 L50.9 11.5 49.65 11.45 50.85 10.95 Q51.25 10.25 51.05 9.85 L51.85 10.4 M59.6 11.95 L60.65 12.65 Q59.55 13.05 57.4 12.7 55.1 12.3 53.65 11.4 54.15 10.25 55.75 10.05 L58.35 9.75 58.6 9.9 Q58.45 10.7 57.15 11.3 L59.1 11.45 59.6 11.95 M40.65 14.25 L41.35 16.05 42.1 14.25 40.65 14.25 M49.15 21.85 L49.95 21.9 Q51.2 21.85 52.15 22.55 53.1 23.25 53.1 24.3 53.1 25.0 52.6 25.3 L50.45 25.4 Q50.85 26.2 49.85 25.75 L48.8 25.15 52.7 24.75 Q51.65 24.25 50.95 23.6 L49.15 21.85 M58.55 17.5 Q58.55 18.3 58.85 18.6 59.2 19.0 60.4 19.3 60.25 19.7 58.2 20.5 L58.35 21.5 56.15 21.15 56.65 20.4 Q56.2 20.05 56.8 18.3 57.5 16.4 58.9 16.1 L57.65 15.2 59.65 15.25 60.0 17.2 Q60.0 17.7 59.3 17.35 58.55 17.0 58.55 17.5 M54.5 13.05 L55.2 13.75 53.3 15.8 51.55 14.4 50.6 13.4 52.75 13.1 53.7 12.85 54.5 13.05 M56.75 25.75 L60.3 25.65 60.95 26.1 61.05 27.0 58.55 26.5 56.75 26.0 56.75 25.75 M55.7 30.4 L55.4 29.85 Q55.4 29.55 55.7 29.35 L56.35 29.1 57.05 29.35 57.3 29.85 57.05 30.4 56.35 30.6 Q55.95 30.6 55.7 30.4 M58.5 29.3 L58.25 28.95 Q58.0 28.55 58.1 28.4 L58.5 28.35 Q59.05 29.2 58.5 29.3 M49.7 27.55 L50.5 27.85 51.05 28.3 49.7 27.55 M47.15 39.0 L46.6 39.2 Q46.3 39.2 46.1 39.0 L45.85 38.45 Q45.85 38.15 46.1 37.95 46.3 37.7 46.6 37.7 L47.15 37.95 47.35 38.45 47.15 39.0 M46.65 42.3 L45.65 40.5 46.3 40.1 47.75 42.6 Q46.7 42.05 46.65 42.3 M30.55 30.85 L30.8 30.4 30.85 30.2 Q30.45 28.75 26.65 28.35 26.85 29.6 26.55 30.05 L26.15 30.85 Q26.15 32.85 27.2 33.25 L29.55 33.6 29.6 32.75 28.05 29.9 30.55 30.85 M13.8 37.5 Q12.9 38.8 12.8 40.1 12.85 42.5 13.7 43.25 14.05 43.55 14.65 43.55 L15.25 43.45 15.1 43.35 15.25 42.15 14.2 41.4 14.05 41.65 13.8 37.5 M17.35 42.4 Q17.8 42.35 18.15 41.9 L18.35 41.5 17.1 40.05 14.65 37.7 14.95 39.05 Q15.45 40.8 16.3 41.65 L17.35 42.4 M9.6 33.1 Q8.55 32.6 7.8 33.65 6.95 34.8 6.95 37.4 6.95 38.1 7.6 38.55 8.15 38.9 8.8 38.95 L9.9 36.15 10.15 36.85 Q10.1 37.9 10.8 39.8 11.5 41.7 11.65 39.9 12.2 34.4 9.6 33.1 M20.0 36.0 Q19.3 35.15 18.25 34.65 L18.5 35.85 20.0 36.0 M38.1 21.5 L38.3 21.0 38.1 20.5 37.6 20.3 Q37.3 20.3 37.1 20.5 L36.9 21.0 37.1 21.5 Q37.3 21.7 37.6 21.7 L38.1 21.5 M31.75 20.7 Q31.25 20.7 30.9 21.1 30.5 21.45 30.5 21.95 30.5 22.45 30.9 22.85 31.25 23.2 31.75 23.2 L32.65 22.85 33.0 21.95 Q33.0 21.45 32.65 21.1 32.25 20.7 31.75 20.7 M38.45 14.3 Q38.65 14.1 38.45 13.4 35.85 12.65 34.45 14.9 34.5 15.35 34.95 15.4 L35.4 15.35 38.45 14.3 M39.0 18.55 L36.4 18.55 36.4 19.65 39.0 19.65 39.0 18.55 M28.45 23.3 Q27.45 23.3 27.9 24.05 L28.2 24.8 29.7 24.7 Q30.4 24.7 31.15 25.15 L32.3 25.35 32.65 25.05 Q31.2 23.85 28.45 23.3 M40.15 10.45 Q39.9 10.2 39.6 10.2 39.3 10.2 39.1 10.45 38.85 10.65 38.85 10.95 L39.1 11.5 Q39.3 11.7 39.6 11.7 L40.15 11.5 40.35 10.95 40.15 10.45 M29.7 48.65 L30.15 48.25 31.5 48.15 Q32.15 48.15 32.05 48.35 L31.85 48.5 31.9 49.45 31.85 51.2 31.05 50.4 Q30.0 50.1 29.7 48.65 M34.3 39.65 L34.65 41.1 Q35.8 43.2 36.4 43.7 37.2 44.35 38.4 43.95 37.85 42.2 36.95 41.25 36.0 40.3 34.3 39.65 M31.75 55.45 L29.4 55.55 29.6 50.85 Q30.05 51.25 30.9 52.95 31.8 54.75 31.75 55.45 M33.1 52.0 L33.2 51.0 33.25 51.35 33.1 52.0 M16.65 56.65 L17.35 56.65 17.15 57.3 16.55 56.65 16.65 56.65 M12.5 52.75 Q12.3 53.7 12.65 55.6 L12.8 57.55 Q12.15 57.45 12.1 56.95 12.0 56.45 11.55 56.45 10.7 56.45 10.6 57.45 L10.35 57.0 Q10.0 56.7 10.0 56.2 L9.75 54.75 9.5 54.05 10.95 53.35 12.5 52.75" fill="#fffefe" fill-rule="evenodd" stroke="none"/>
    <path d="M70.6 52.75 L70.85 53.15 70.6 53.55 70.0 53.7 69.4 53.55 69.15 53.15 Q69.15 52.9 69.4 52.75 L70.0 52.6 70.6 52.75" fill="#d2a9a9" fill-rule="evenodd" stroke="none"/>
    <path d="M68.9 34.75 L67.2 34.7 67.45 34.1 Q67.8 33.45 68.1 33.4 L69.5 33.55 69.4 34.7 68.9 34.75 M69.5 32.35 L70.65 31.75 Q71.3 31.55 71.5 32.4 L70.4 33.15 69.55 33.1 69.5 32.35 M69.8 39.75 L70.95 39.75 71.75 40.35 71.9 40.75 70.0 40.7 69.8 39.75 M68.5 44.85 L67.55 44.45 66.25 43.45 67.0 42.75 68.05 43.6 Q68.45 44.1 68.5 44.85 M65.25 48.55 L66.45 48.65 66.55 49.6 65.25 49.75 63.9 49.85 64.0 49.05 64.45 48.7 65.25 48.55 M66.65 51.75 L66.45 52.25 Q66.25 52.45 66.05 52.45 65.8 52.45 65.65 52.25 L65.45 51.7 65.5 51.15 66.65 51.75 M65.1 54.0 L63.3 53.9 63.35 53.4 63.9 52.7 65.45 53.4 65.1 54.0 M58.55 55.3 L58.35 55.75 58.0 55.8 57.4 54.2 Q58.3 54.55 58.55 55.3 M56.85 59.85 L56.45 60.15 55.45 58.15 Q54.9 57.35 54.9 57.0 56.55 57.0 56.95 57.5 L57.0 59.35 56.85 59.85 M50.0 62.95 L50.15 63.2 50.2 63.5 50.0 64.1 49.45 64.3 Q49.15 64.3 48.95 64.1 L48.7 63.5 Q48.7 63.15 48.95 62.95 49.15 62.7 49.45 62.7 L50.0 62.95 M42.65 64.5 L43.0 64.7 43.15 65.2 43.0 65.7 42.65 65.9 42.3 65.7 42.15 65.2 Q42.15 64.9 42.3 64.7 L42.65 64.5" fill="#bb9191" fill-rule="evenodd" stroke="none"/>
    <path d="M13.65 69.7 L13.7 67.95 10.65 68.9 12.65 66.5 12.95 65.7 Q12.95 65.1 12.6 65.25 L12.2 65.55 9.45 67.55 10.2 60.85 10.25 61.0 Q10.8 62.4 13.05 61.7 L13.35 63.9 15.35 63.95 15.25 64.7 Q15.25 65.35 15.5 65.85 L16.05 66.7 16.5 67.15 16.6 65.3 Q16.6 63.5 16.75 62.8 L16.85 61.4 Q17.05 64.35 17.75 65.75 18.15 65.55 18.8 63.15 L19.75 64.6 20.9 66.0 Q21.3 65.95 21.35 65.75 L21.4 64.85 Q21.4 64.25 22.0 62.7 L22.6 61.25 23.2 61.95 Q23.85 62.7 23.9 63.25 L25.0 63.35 Q25.65 63.35 25.75 63.7 L26.15 65.75 Q26.8 64.05 26.6 61.95 L26.1 58.8 Q27.2 59.8 27.55 62.05 27.95 64.4 29.3 65.75 L29.1 63.7 Q29.1 62.85 29.6 60.4 L30.7 56.0 29.95 61.75 Q30.25 59.9 31.0 61.6 L32.15 64.15 31.6 64.65 31.1 65.2 30.25 65.15 Q29.4 66.0 29.4 67.05 L29.8 67.7 31.0 68.65 Q31.8 67.5 32.05 66.55 L30.9 66.6 30.7 66.25 31.4 65.7 33.05 66.1 Q32.55 65.55 32.55 64.55 32.55 64.05 32.95 64.45 33.35 64.85 33.35 64.35 33.35 63.85 32.95 63.25 32.5 62.65 32.5 62.15 L32.5 61.55 31.9 61.65 Q32.4 61.45 32.4 59.75 L32.15 57.4 32.9 56.3 33.4 57.05 33.8 58.55 33.8 59.4 34.1 56.3 34.8 56.95 35.0 57.25 Q34.3 58.35 34.5 59.7 L34.85 61.8 Q34.85 62.3 34.45 61.9 34.05 61.45 34.05 61.95 34.05 62.6 34.35 62.9 L35.25 63.65 Q35.15 64.0 36.15 64.0 36.85 64.0 37.0 63.6 L37.3 61.55 38.3 64.15 Q38.15 66.2 38.85 66.9 L40.15 66.3 Q40.9 65.65 41.05 63.65 L40.65 62.75 39.0 62.45 Q39.15 61.15 40.0 60.5 L40.9 59.9 40.35 58.35 Q41.95 60.35 42.65 60.45 L43.25 60.3 43.5 59.6 Q43.6 59.0 43.1 58.9 L44.9 59.3 46.8 59.5 46.4 56.55 46.0 54.7 46.95 55.0 47.55 55.8 Q47.85 56.1 48.45 56.1 L49.1 56.0 Q49.05 55.9 49.15 55.75 47.4 53.6 46.05 52.65 L44.4 51.25 44.15 51.35 Q45.5 53.55 45.25 54.5 L44.65 54.55 43.3 54.15 Q42.7 54.15 42.95 55.0 L43.05 55.85 42.5 55.6 41.55 53.7 41.2 51.9 41.7 50.5 42.1 51.35 Q42.8 52.45 43.8 53.15 L44.25 52.7 44.35 52.45 43.4 50.85 42.45 49.75 Q41.45 49.75 40.65 49.2 L41.1 47.9 42.0 48.65 Q43.15 49.8 43.85 49.8 L43.8 48.95 41.5 46.8 42.25 47.05 Q44.5 47.85 45.0 48.3 L46.1 49.75 46.75 49.35 Q47.15 49.1 47.65 49.05 47.65 47.8 45.25 45.95 L41.9 43.3 44.7 44.85 Q46.25 45.8 46.8 45.8 47.3 45.8 46.9 45.1 46.5 44.35 47.0 44.35 48.85 44.35 48.9 44.95 49.2 46.85 50.65 48.9 50.8 47.95 50.9 47.75 51.05 47.5 51.7 47.5 L53.0 48.05 Q54.45 48.9 55.0 50.45 L53.65 50.7 Q54.3 51.15 54.4 51.35 L54.35 51.25 54.95 51.05 55.65 51.0 55.1 49.15 57.65 52.0 58.15 52.0 58.3 51.3 Q58.3 50.8 57.95 50.4 L57.6 49.75 54.9 46.75 56.0 46.8 57.05 47.15 56.7 46.65 55.7 46.2 Q55.3 46.2 55.6 45.8 L55.95 45.35 55.8 44.9 55.9 44.3 Q56.05 44.85 57.15 45.7 L58.8 46.8 59.15 45.3 Q58.4 44.45 58.75 43.95 58.95 43.7 59.25 43.6 59.2 43.05 58.2 42.85 L57.2 42.75 57.4 42.25 57.55 41.7 60.55 40.9 61.55 40.85 62.65 41.25 62.9 40.7 62.65 40.05 60.8 39.05 Q59.05 38.1 58.45 37.0 L60.55 37.3 Q62.8 37.35 63.65 38.4 L64.45 40.0 Q64.65 40.85 64.65 39.85 64.65 39.45 63.85 38.1 63.05 36.7 62.65 36.7 60.5 36.7 59.15 35.95 L62.15 36.5 61.05 34.55 Q62.0 35.15 62.8 36.05 L64.3 37.45 Q64.9 37.25 64.95 36.7 64.4 36.1 64.95 35.8 L65.55 35.6 62.6 33.3 Q61.8 32.8 61.55 32.4 L62.4 31.9 63.25 32.65 Q64.2 33.4 64.8 33.4 L67.25 33.25 67.05 32.7 65.55 31.5 Q65.4 32.1 64.35 32.1 L63.1 30.05 65.85 30.0 65.7 31.25 66.95 30.0 66.15 28.65 67.9 29.15 Q69.15 29.4 69.25 28.85 L68.6 27.7 Q68.55 27.45 68.85 26.1 L70.95 25.9 Q70.4 24.3 68.0 23.15 L65.15 22.05 Q67.15 21.9 67.35 21.55 L67.3 21.2 66.5 20.65 67.35 20.4 67.95 19.8 65.15 18.6 Q66.1 18.5 67.65 17.0 L65.8 16.75 65.9 16.65 66.95 15.65 Q67.5 15.2 63.65 13.75 L63.75 13.65 68.35 11.2 67.65 12.35 66.55 14.0 66.5 14.05 66.5 14.15 68.45 13.75 70.65 13.5 68.7 16.3 72.75 17.4 Q72.25 17.7 71.7 18.2 L70.15 19.45 73.1 20.8 70.35 21.75 78.5 25.4 75.65 26.2 76.35 26.4 78.4 27.0 78.55 27.15 76.3 29.55 Q76.95 29.2 78.3 30.1 L80.0 31.5 Q79.6 31.5 78.45 32.05 L78.05 32.3 77.95 32.15 Q75.4 29.15 74.6 28.85 76.8 31.65 76.2 31.5 76.05 31.55 76.2 32.25 L76.7 33.65 Q76.65 33.65 74.55 34.6 L75.15 36.2 Q75.95 37.85 76.9 37.95 L76.9 38.95 75.25 39.1 74.5 40.15 74.95 41.05 Q75.55 41.9 76.15 41.9 77.15 41.9 76.7 40.5 L77.4 42.4 78.4 46.6 Q76.85 47.25 76.55 47.0 L75.15 44.15 Q74.7 44.25 75.05 47.1 73.65 46.2 72.65 46.2 L71.85 46.4 71.75 47.15 75.4 48.65 73.2 48.7 73.5 49.2 74.9 50.8 73.25 50.3 72.3 50.4 72.65 50.85 Q73.15 51.35 73.9 51.6 L74.9 52.0 72.35 51.45 74.3 53.55 Q75.95 55.1 75.95 55.5 L75.0 55.35 Q74.25 55.1 73.4 54.3 L73.75 56.9 Q73.05 56.2 71.55 56.2 71.0 56.2 70.0 55.65 69.15 55.15 69.1 55.2 L70.9 58.0 69.15 57.1 70.15 59.75 70.25 60.05 69.6 60.2 68.9 59.45 Q68.1 58.1 63.85 55.8 L64.95 57.5 Q66.4 59.35 68.0 60.4 L65.85 61.95 Q64.55 60.45 63.5 60.45 L63.05 60.5 63.4 61.7 63.75 61.95 63.6 64.15 63.35 62.8 Q63.2 61.8 62.9 61.5 L61.05 61.15 62.3 64.0 60.1 60.45 59.6 60.15 58.75 61.4 60.15 62.8 Q60.4 63.35 61.05 67.15 61.6 67.35 60.6 67.35 L59.9 67.15 59.9 66.6 59.0 68.25 57.95 67.15 57.05 71.25 56.2 71.3 Q57.2 68.95 56.25 68.9 56.95 68.9 57.0 69.35 L57.3 67.3 57.1 66.55 55.3 62.8 55.7 64.45 55.5 66.2 53.65 62.55 53.2 63.0 Q52.3 63.0 52.2 63.4 L52.75 64.35 53.65 65.75 54.6 66.75 Q55.5 67.85 55.5 68.45 55.5 69.45 54.95 69.15 54.3 68.35 53.8 68.65 L53.4 69.1 51.85 65.75 51.8 65.7 Q51.5 65.2 50.85 65.0 L50.15 64.8 50.5 66.3 48.2 70.6 48.15 68.35 Q48.05 66.7 47.75 66.05 L46.7 66.05 Q46.55 66.1 46.55 66.7 46.55 67.2 46.95 67.4 47.3 67.55 47.3 68.05 47.3 69.55 46.75 71.55 46.2 73.5 45.85 73.5 45.35 73.5 44.75 73.95 L43.95 74.2 Q44.2 72.45 43.55 71.9 42.95 71.4 42.55 72.25 L41.45 70.0 Q41.0 72.6 40.3 73.7 39.95 74.25 39.65 74.3 39.55 73.85 38.6 73.35 L37.7 72.95 36.65 75.15 36.15 74.55 Q36.2 73.7 35.5 72.35 L34.75 71.2 35.05 74.8 33.7 73.95 32.0 71.25 30.8 68.8 30.25 72.25 29.0 68.8 Q28.2 71.2 27.7 71.2 L27.1 68.95 26.8 69.35 25.6 72.4 24.55 74.2 24.15 73.45 Q23.8 72.25 23.8 71.2 L23.9 69.3 22.6 71.1 21.8 66.9 18.7 70.35 17.75 69.0 17.2 67.9 Q16.5 70.0 16.0 70.35 L15.7 67.9 14.35 69.5 Q13.8 70.1 13.65 69.7 M59.05 48.2 Q59.7 48.05 59.75 47.25 59.55 47.1 58.55 47.25 L57.65 47.45 58.35 47.95 Q58.35 48.35 59.05 48.2 M74.2 33.4 Q75.3 33.95 75.25 33.25 L74.0 32.9 74.2 33.4 M68.9 34.75 Q70.5 36.05 70.7 35.65 70.3 34.6 71.15 34.7 L71.4 34.45 70.4 33.15 71.5 32.4 Q71.3 31.55 70.65 31.75 L69.5 32.35 68.0 31.8 68.1 33.4 Q67.8 33.45 67.45 34.1 L67.2 34.7 68.9 34.75 M71.2 30.85 L72.6 31.55 72.65 30.6 Q71.6 29.0 69.65 29.1 70.05 30.15 71.2 30.85 M69.4 36.8 Q68.6 36.2 67.4 36.15 68.35 38.25 69.0 38.45 L70.3 38.15 Q70.2 37.35 69.4 36.8 M69.8 39.75 L70.0 40.7 71.9 40.75 71.75 40.35 70.95 39.75 69.8 39.75 M68.5 44.85 L70.0 45.1 Q71.0 45.2 70.55 44.65 L70.15 43.6 Q69.6 42.8 67.65 41.15 67.45 42.35 67.0 42.75 L66.25 43.45 65.95 43.7 Q66.5 45.55 67.2 46.7 L66.55 46.45 Q65.9 46.35 65.9 46.95 65.9 47.7 66.5 47.9 67.05 48.1 67.55 47.5 L67.95 47.05 Q68.45 47.2 68.45 47.9 68.9 47.65 67.55 44.45 L68.5 44.85 M62.05 42.2 L61.15 42.35 60.55 42.65 Q62.1 44.95 62.7 44.95 L62.95 44.0 Q62.75 43.15 62.05 42.2 M65.25 48.55 Q64.45 45.25 64.7 44.7 L63.9 44.25 63.45 44.6 Q63.3 44.75 63.3 45.35 63.3 46.3 64.45 48.7 L64.0 49.05 63.0 48.15 62.5 47.95 62.65 48.8 64.15 50.65 65.45 51.7 65.65 52.25 Q65.8 52.45 66.05 52.45 66.25 52.45 66.45 52.25 L66.65 51.75 Q67.05 51.75 67.15 51.55 L65.25 49.75 66.55 49.6 66.45 48.65 65.25 48.55 M76.05 42.2 L74.1 41.35 73.05 41.65 Q73.6 43.3 75.7 43.3 76.7 43.3 76.5 43.1 L76.05 42.2 M39.7 70.0 L39.95 70.95 Q40.45 70.1 41.0 69.95 L41.4 69.95 41.25 69.75 40.8 69.35 Q40.35 69.5 39.7 70.0 M70.6 52.75 L70.0 52.6 69.4 52.75 Q69.15 52.9 69.15 53.15 L69.4 53.55 70.0 53.7 70.6 53.55 70.85 53.15 70.6 52.75 M63.35 53.4 L61.3 51.7 60.85 51.6 60.75 52.25 Q60.75 53.25 63.9 55.25 65.0 55.1 65.1 54.0 L65.45 53.4 63.9 52.7 63.35 53.4 M65.2 59.85 Q64.9 60.05 64.9 60.35 64.9 60.65 65.2 60.9 L65.85 61.1 66.55 60.9 66.8 60.35 66.55 59.85 Q66.25 59.6 65.85 59.6 65.45 59.6 65.2 59.85 M62.05 57.9 Q63.05 57.9 63.75 56.8 62.3 54.15 61.45 53.55 L60.45 53.3 Q58.9 55.05 60.25 56.65 61.3 57.9 62.05 57.9 M58.55 55.3 Q58.3 54.55 57.4 54.2 L58.0 55.8 58.35 55.75 58.55 55.3 M56.95 57.5 L55.7 53.0 54.5 53.1 54.45 56.4 52.8 56.05 52.9 59.4 Q53.25 59.4 53.35 58.5 53.4 57.55 53.95 57.55 54.6 57.55 55.45 59.9 L56.2 62.25 56.85 59.85 57.0 59.35 56.95 57.5 M50.85 54.4 L52.65 55.75 51.95 53.8 48.05 49.35 Q47.8 50.05 47.55 50.05 L47.15 49.8 46.9 49.8 47.6 50.85 47.7 51.55 Q47.7 52.45 47.25 52.25 L48.5 53.45 Q49.2 54.3 49.75 54.3 50.25 54.3 49.95 53.9 49.6 53.5 50.1 53.5 L50.85 54.4 M42.35 52.0 L43.15 53.95 42.75 52.8 42.35 52.0 M46.55 61.45 Q46.3 61.05 46.0 61.05 45.7 61.05 45.5 61.45 45.25 61.8 45.25 62.35 L45.5 63.3 46.0 63.65 Q46.3 63.65 46.55 63.3 L46.75 62.35 46.55 61.45 M49.65 57.2 L49.1 58.5 Q49.1 58.95 49.8 60.35 L50.8 62.2 Q50.6 60.05 49.65 57.2 M42.65 64.5 L42.3 64.7 Q42.15 64.9 42.15 65.2 L42.3 65.7 42.65 65.9 43.0 65.7 43.15 65.2 43.0 64.7 42.65 64.5 M50.0 62.95 L49.45 62.7 Q49.15 62.7 48.95 62.95 48.7 63.15 48.7 63.5 L48.95 64.1 Q49.15 64.3 49.45 64.3 L50.0 64.1 50.2 63.5 50.15 63.2 50.0 62.95 M41.65 68.2 L41.55 69.1 42.15 69.4 43.1 68.35 42.25 68.15 41.65 68.2 M45.55 65.0 L44.3 65.0 44.3 67.2 45.55 67.2 45.55 65.0" fill="#c9a6a6" fill-rule="evenodd" stroke="none"/>
    <path d="M78.05 32.3 L80.8 36.0 81.3 37.25 79.95 36.75 82.55 40.4 81.3 40.4 81.05 40.4 82.5 42.2 80.75 42.05 81.65 43.95 Q82.55 45.7 84.05 45.95 L82.75 47.15 82.6 47.3 85.1 50.85 80.5 50.55 81.15 51.65 82.1 54.0 82.1 54.15 80.9 53.25 79.4 52.5 79.25 52.5 80.0 53.8 80.65 55.25 78.8 55.15 78.25 55.15 80.2 62.05 77.6 60.35 76.55 67.65 74.95 66.4 74.95 69.45 Q74.25 69.4 72.65 68.45 L71.4 67.6 71.7 71.15 69.4 70.8 69.4 75.1 65.6 72.25 65.85 74.2 63.4 71.7 62.05 74.75 60.2 72.75 60.05 72.9 59.6 75.0 59.15 77.1 58.0 75.2 57.5 74.45 52.65 79.3 51.95 76.85 51.9 76.9 50.15 78.6 50.0 78.45 49.5 76.45 49.15 75.35 47.15 79.1 45.2 76.55 43.25 79.3 41.65 74.4 40.15 78.9 39.25 82.6 35.4 75.75 34.8 78.5 Q34.75 77.95 33.1 76.6 L31.05 75.2 30.05 77.95 29.95 75.35 29.1 76.1 26.95 77.45 26.7 75.9 26.6 75.95 22.6 78.95 Q22.35 74.9 21.7 73.2 L21.1 72.25 19.85 77.15 17.35 72.25 16.9 78.0 Q15.3 74.6 14.9 72.35 L12.0 73.75 13.65 69.7 Q13.8 70.1 14.35 69.5 L15.7 67.9 16.0 70.35 Q16.5 70.0 17.2 67.9 L17.75 69.0 18.7 70.35 21.8 66.9 22.6 71.1 23.9 69.3 23.8 71.2 Q23.8 72.25 24.15 73.45 L24.55 74.2 25.6 72.4 26.8 69.35 27.1 68.95 27.7 71.2 Q28.2 71.2 29.0 68.8 L30.25 72.25 30.8 68.8 32.0 71.25 33.7 73.95 35.05 74.8 34.75 71.2 35.5 72.35 Q36.2 73.7 36.15 74.55 L36.65 75.15 37.7 72.95 38.6 73.35 Q39.55 73.85 39.65 74.3 39.95 74.25 40.3 73.7 41.0 72.6 41.45 70.0 L42.55 72.25 Q42.95 71.4 43.55 71.9 44.2 72.45 43.95 74.2 L44.75 73.95 Q45.35 73.5 45.85 73.5 46.2 73.5 46.75 71.55 47.3 69.55 47.3 68.05 47.3 67.55 46.95 67.4 46.55 67.2 46.55 66.7 46.55 66.1 46.7 66.05 L47.75 66.05 Q48.05 66.7 48.15 68.35 L48.2 70.6 50.5 66.3 50.15 64.8 50.85 65.0 Q51.5 65.2 51.8 65.7 L51.85 65.75 53.4 69.1 53.8 68.65 Q54.3 68.35 54.95 69.15 55.5 69.45 55.5 68.45 55.5 67.85 54.6 66.75 L53.65 65.75 52.75 64.35 52.2 63.4 Q52.3 63.0 53.2 63.0 L53.65 62.55 55.5 66.2 55.7 64.45 55.3 62.8 57.1 66.55 57.3 67.3 57.0 69.35 Q56.95 68.9 56.25 68.9 57.2 68.95 56.2 71.3 L57.05 71.25 57.95 67.15 59.0 68.25 59.9 66.6 59.9 67.15 60.6 67.35 Q61.6 67.35 61.05 67.15 60.4 63.35 60.15 62.8 L58.75 61.4 59.6 60.15 60.1 60.45 62.3 64.0 61.05 61.15 62.9 61.5 Q63.2 61.8 63.35 62.8 L63.6 64.15 63.75 61.95 63.4 61.7 63.05 60.5 63.5 60.45 Q64.55 60.45 65.85 61.95 L68.0 60.4 Q66.4 59.35 64.95 57.5 L63.85 55.8 Q68.1 58.1 68.9 59.45 L69.6 60.2 70.25 60.05 70.15 59.75 69.15 57.1 70.9 58.0 69.1 55.2 Q69.15 55.15 70.0 55.65 71.0 56.2 71.55 56.2 73.05 56.2 73.75 56.9 L73.4 54.3 Q74.25 55.1 75.0 55.35 L75.95 55.5 Q75.95 55.1 74.3 53.55 L72.35 51.45 74.9 52.0 73.9 51.6 Q73.15 51.35 72.65 50.85 L72.3 50.4 73.25 50.3 74.9 50.8 73.5 49.2 73.2 48.7 75.4 48.65 71.75 47.15 71.85 46.4 72.65 46.2 Q73.65 46.2 75.05 47.1 74.7 44.25 75.15 44.15 L76.55 47.0 Q76.85 47.25 78.4 46.6 L77.4 42.4 76.7 40.5 Q77.15 41.9 76.15 41.9 75.55 41.9 74.95 41.05 L74.5 40.15 75.25 39.1 76.9 38.95 76.9 37.95 Q75.95 37.85 75.15 36.2 L74.55 34.6 Q76.65 33.65 76.7 33.65 L76.2 32.25 Q76.05 31.55 76.2 31.5 76.8 31.65 74.6 28.85 75.4 29.15 77.95 32.15 L78.05 32.3 M39.0 62.45 L40.65 62.75 41.05 63.65 Q40.9 65.65 40.15 66.3 L38.85 66.9 Q38.15 66.2 38.3 64.15 L39.0 62.45 M31.4 65.7 L30.7 66.25 30.9 66.6 32.05 66.55 Q31.8 67.5 31.0 68.65 L29.8 67.7 29.4 67.05 Q29.4 66.0 30.25 65.15 L31.1 65.2 31.4 65.7 M70.4 33.15 L71.4 34.45 71.15 34.7 Q70.3 34.6 70.7 35.65 70.5 36.05 68.9 34.75 L69.4 34.7 69.5 33.55 68.1 33.4 68.0 31.8 69.5 32.35 69.55 33.1 70.4 33.15 M71.2 30.85 Q70.05 30.15 69.65 29.1 71.6 29.0 72.65 30.6 L72.6 31.55 71.2 30.85 M69.4 36.8 Q70.2 37.35 70.3 38.15 L69.0 38.45 Q68.35 38.25 67.4 36.15 68.6 36.2 69.4 36.8 M67.0 42.75 Q67.45 42.35 67.65 41.15 69.6 42.8 70.15 43.6 L70.55 44.65 Q71.0 45.2 70.0 45.1 L68.5 44.85 Q68.45 44.1 68.05 43.6 L67.0 42.75 M67.55 44.45 Q68.9 47.65 68.45 47.9 68.45 47.2 67.95 47.05 L67.55 47.5 Q67.05 48.1 66.5 47.9 65.9 47.7 65.9 46.95 65.9 46.35 66.55 46.45 L67.2 46.7 Q66.5 45.55 65.95 43.7 L66.25 43.45 67.55 44.45 M64.45 48.7 Q63.3 46.3 63.3 45.35 63.3 44.75 63.45 44.6 L63.9 44.25 64.7 44.7 Q64.45 45.25 65.25 48.55 L64.45 48.7 M65.25 49.75 L67.15 51.55 Q67.05 51.75 66.65 51.75 L65.5 51.15 65.45 51.7 64.15 50.65 62.65 48.8 62.5 47.95 63.0 48.15 64.0 49.05 63.9 49.85 65.25 49.75 M72.25 58.25 Q72.05 58.35 72.05 58.85 72.05 59.85 72.4 60.25 L72.55 60.4 73.0 60.4 Q73.4 58.95 72.4 57.6 L72.25 58.25 M65.1 54.0 Q65.0 55.1 63.9 55.25 60.75 53.25 60.75 52.25 L60.85 51.6 61.3 51.7 63.35 53.4 63.3 53.9 65.1 54.0 M62.05 57.9 Q61.3 57.9 60.25 56.65 58.9 55.05 60.45 53.3 L61.45 53.55 Q62.3 54.15 63.75 56.8 63.05 57.9 62.05 57.9 M56.85 59.85 L56.2 62.25 55.45 59.9 Q54.6 57.55 53.95 57.55 53.4 57.55 53.35 58.5 53.25 59.4 52.9 59.4 L52.8 56.05 54.45 56.4 54.5 53.1 55.7 53.0 56.95 57.5 Q56.55 57.0 54.9 57.0 54.9 57.35 55.45 58.15 L56.45 60.15 56.85 59.85 M49.65 57.2 Q50.6 60.05 50.8 62.2 L49.8 60.35 Q49.1 58.95 49.1 58.5 L49.65 57.2 M46.55 61.45 L46.75 62.35 46.55 63.3 Q46.3 63.65 46.0 63.65 L45.5 63.3 45.25 62.35 Q45.25 61.8 45.5 61.45 45.7 61.05 46.0 61.05 46.3 61.05 46.55 61.45 M45.55 65.0 L45.55 67.2 44.3 67.2 44.3 65.0 45.55 65.0 M41.65 68.2 L42.25 68.15 43.1 68.35 42.15 69.4 41.55 69.1 41.65 68.2" fill="#dbb3b3" fill-rule="evenodd" stroke="none"/>
    <path d="M10.2 60.85 L10.25 60.25 10.1 60.55 Q9.4 58.9 8.55 58.55 L7.55 60.15 7.45 56.25 7.7 53.35 Q5.75 55.2 4.35 57.15 L4.25 55.4 Q4.25 53.25 6.05 50.05 L6.1 51.1 9.35 49.45 Q9.5 50.35 9.55 49.3 8.8 48.55 8.8 47.55 L9.25 46.55 10.75 44.65 11.65 44.25 11.8 44.85 11.9 46.15 11.35 47.5 Q10.75 48.95 10.65 49.7 L10.75 50.65 11.65 49.9 12.95 48.3 Q13.6 47.9 14.35 47.85 L13.65 49.35 Q12.95 50.4 12.8 50.85 13.55 51.15 14.85 50.35 L15.4 50.75 15.6 51.55 Q15.6 52.1 15.1 52.05 14.55 52.0 14.45 52.25 16.25 53.7 16.45 51.8 16.35 49.25 16.65 48.65 17.25 49.2 17.25 50.05 L17.1 52.95 17.3 56.35 17.55 54.7 18.75 56.95 20.7 57.0 20.0 55.6 Q19.25 54.05 19.25 51.6 19.25 49.9 19.8 48.15 L20.3 47.05 Q21.1 48.55 21.75 52.4 22.25 55.7 24.05 57.85 24.85 58.9 25.65 58.1 25.1 56.2 24.0 54.75 L22.6 53.25 Q23.8 52.3 23.8 51.3 L23.15 49.75 Q22.45 48.7 22.45 48.2 L22.6 44.05 23.4 42.8 24.15 46.35 25.7 44.3 25.95 44.7 26.0 45.55 Q26.0 46.8 25.3 47.9 25.1 48.2 25.3 49.25 L25.55 50.95 Q25.55 51.65 25.0 52.05 24.35 52.55 24.15 53.0 25.1 53.35 26.0 54.4 L27.4 55.8 27.7 55.7 Q27.9 56.35 27.9 55.35 L27.45 54.25 26.5 53.15 27.75 53.5 28.15 48.95 28.4 44.6 28.55 42.1 Q28.95 41.75 29.6 41.65 L29.8 42.6 30.6 45.65 31.85 43.15 32.0 45.25 33.05 45.15 Q32.35 43.35 32.05 40.7 32.1 40.2 32.3 39.65 32.7 41.85 33.3 42.35 L33.9 42.45 34.95 43.25 Q35.95 44.25 36.65 45.6 38.95 45.25 38.95 44.25 38.95 41.75 37.45 40.25 35.65 38.45 35.35 37.4 35.8 37.25 37.5 38.75 L39.5 40.3 37.35 38.4 37.65 38.1 39.4 38.35 38.4 37.35 Q37.6 36.4 37.65 35.65 38.65 34.9 41.1 35.65 L38.9 33.15 Q43.3 35.25 43.9 35.1 L42.0 33.5 39.9 31.65 Q43.55 32.4 43.85 33.7 44.05 34.75 45.2 34.75 L46.95 34.3 47.95 33.8 46.15 32.05 47.2 32.15 46.85 31.45 46.15 32.05 Q45.3 32.65 44.45 32.7 L42.6 32.45 Q42.15 31.9 42.15 30.9 42.15 30.2 42.5 29.95 L43.6 29.7 46.3 30.4 Q46.95 30.4 48.15 31.3 L50.3 33.05 Q50.3 31.05 50.0 30.05 L51.1 30.6 52.6 30.7 52.7 29.55 51.85 29.65 50.45 29.45 49.25 28.9 49.3 28.95 49.25 28.95 45.05 27.0 45.2 26.25 47.7 25.95 46.35 23.35 48.9 23.0 48.05 22.35 Q47.2 21.65 47.15 21.1 L49.15 20.5 48.5 19.95 Q47.9 19.3 47.85 18.85 L50.4 18.5 51.35 19.05 49.35 16.65 Q49.5 16.45 49.8 16.4 50.35 16.3 51.15 16.9 L50.7 15.5 47.65 16.35 Q46.3 16.35 46.3 14.35 L46.7 12.95 47.1 11.5 Q47.1 10.5 45.5 10.55 L47.9 9.1 50.0 8.55 49.75 6.55 Q47.85 6.55 45.5 5.35 44.8 5.7 44.5 6.45 L47.6 6.45 47.5 8.9 46.15 9.3 45.6 9.4 45.0 9.3 44.85 9.2 44.8 9.15 Q43.55 8.3 42.5 7.8 L42.25 7.6 Q42.0 7.3 42.0 6.65 42.0 6.25 42.95 5.35 44.2 4.1 45.1 2.25 48.35 0.0 49.15 0.0 L46.8 4.3 53.05 3.35 51.7 6.85 58.1 7.4 56.4 9.2 59.0 8.7 61.7 8.25 63.9 8.6 61.15 12.35 65.6 11.5 68.4 11.15 68.35 11.2 63.75 13.65 63.65 13.75 Q67.5 15.2 66.95 15.65 L65.9 16.65 65.8 16.75 67.65 17.0 Q66.1 18.5 65.15 18.6 L67.95 19.8 67.35 20.4 66.5 20.65 67.3 21.2 67.35 21.55 Q67.15 21.9 65.15 22.05 L68.0 23.15 Q70.4 24.3 70.95 25.9 L68.85 26.1 Q68.55 27.45 68.6 27.7 L69.25 28.85 Q69.15 29.4 67.9 29.15 L66.15 28.65 66.95 30.0 65.7 31.25 65.85 30.0 63.1 30.05 64.35 32.1 Q65.4 32.1 65.55 31.5 L67.05 32.7 67.25 33.25 64.8 33.4 Q64.2 33.4 63.25 32.65 L62.4 31.9 61.55 32.4 Q61.8 32.8 62.6 33.3 L65.55 35.6 64.95 35.8 Q64.4 36.1 64.95 36.7 64.9 37.25 64.3 37.45 L62.8 36.05 Q62.0 35.15 61.05 34.55 L62.15 36.5 59.15 35.95 Q60.5 36.7 62.65 36.7 63.05 36.7 63.85 38.1 64.65 39.45 64.65 39.85 64.65 40.85 64.45 40.0 L63.65 38.4 Q62.8 37.35 60.55 37.3 L58.45 37.0 Q59.05 38.1 60.8 39.05 L62.65 40.05 62.9 40.7 62.65 41.25 61.55 40.85 60.55 40.9 57.55 41.7 57.4 42.25 57.2 42.75 58.2 42.85 Q59.2 43.05 59.25 43.6 58.95 43.7 58.75 43.95 58.4 44.45 59.15 45.3 L58.8 46.8 57.15 45.7 Q56.05 44.85 55.9 44.3 L55.8 44.9 55.95 45.35 55.6 45.8 Q55.3 46.2 55.7 46.2 L56.7 46.65 57.05 47.15 56.0 46.8 54.9 46.75 57.6 49.75 57.95 50.4 Q58.3 50.8 58.3 51.3 L58.15 52.0 57.65 52.0 55.1 49.15 55.65 51.0 54.95 51.05 54.35 51.25 54.4 51.35 Q54.3 51.15 53.65 50.7 L55.0 50.45 Q54.45 48.9 53.0 48.05 L51.7 47.5 Q51.05 47.5 50.9 47.75 50.8 47.95 50.65 48.9 49.2 46.85 48.9 44.95 48.85 44.35 47.0 44.35 46.5 44.35 46.9 45.1 47.3 45.8 46.8 45.8 46.25 45.8 44.7 44.85 L41.9 43.3 45.25 45.95 Q47.65 47.8 47.65 49.05 47.15 49.1 46.75 49.35 L46.1 49.75 45.0 48.3 Q44.5 47.85 42.25 47.05 L41.5 46.8 43.8 48.95 43.85 49.8 Q43.15 49.8 42.0 48.65 L41.1 47.9 40.65 49.2 Q41.45 49.75 42.45 49.75 L43.4 50.85 44.35 52.45 44.25 52.7 43.8 53.15 Q42.8 52.45 42.1 51.35 L41.7 50.5 41.2 51.9 41.55 53.7 42.5 55.6 43.05 55.85 42.95 55.0 Q42.7 54.15 43.3 54.15 L44.65 54.55 45.25 54.5 Q45.5 53.55 44.15 51.35 L44.4 51.25 46.05 52.65 Q47.4 53.6 49.15 55.75 49.05 55.9 49.1 56.0 L48.45 56.1 Q47.85 56.1 47.55 55.8 L46.95 55.0 46.0 54.7 46.4 56.55 46.8 59.5 44.9 59.3 43.1 58.9 Q43.6 59.0 43.5 59.6 L43.25 60.3 42.65 60.45 Q41.95 60.35 40.35 58.35 L40.9 59.9 40.0 60.5 Q39.15 61.15 39.0 62.45 L38.3 64.15 37.3 61.55 37.0 63.6 Q36.85 64.0 36.15 64.0 35.15 64.0 35.25 63.65 L34.35 62.9 Q34.05 62.6 34.05 61.95 34.05 61.45 34.45 61.9 34.85 62.3 34.85 61.8 L34.5 59.7 Q34.3 58.35 35.0 57.25 L34.8 56.95 34.1 56.3 33.8 59.4 33.8 58.55 33.4 57.05 32.9 56.3 32.15 57.4 32.4 59.75 Q32.4 61.45 31.9 61.65 L32.5 61.55 32.5 62.15 Q32.5 62.65 32.95 63.25 33.35 63.85 33.35 64.35 33.35 64.85 32.95 64.45 32.55 64.05 32.55 64.55 32.55 65.55 33.05 66.1 L31.4 65.7 31.1 65.2 31.6 64.65 32.15 64.15 31.0 61.6 Q30.25 59.9 29.95 61.75 L30.7 56.0 29.6 60.4 Q29.1 62.85 29.1 63.7 L29.3 65.75 Q27.95 64.4 27.55 62.05 27.2 59.8 26.1 58.8 L26.6 61.95 Q26.8 64.05 26.15 65.75 L25.75 63.7 Q25.65 63.35 25.0 63.35 L23.9 63.25 Q23.85 62.7 23.2 61.95 L22.6 61.25 22.0 62.7 Q21.4 64.25 21.4 64.85 L21.35 65.75 Q21.3 65.95 20.9 66.0 L19.75 64.6 18.8 63.15 Q18.15 65.55 17.75 65.75 17.05 64.35 16.85 61.4 L16.75 62.8 Q16.6 63.5 16.6 65.3 L16.5 67.15 16.05 66.7 15.5 65.85 Q15.25 65.35 15.25 64.7 L15.35 63.95 13.35 63.9 13.05 61.7 Q10.8 62.4 10.25 61.0 L10.2 60.85 M60.75 21.8 L62.0 21.8 Q60.5 19.6 59.2 21.2 L58.9 21.6 59.0 21.6 58.8 21.75 58.55 21.9 58.5 21.9 56.7 22.3 Q55.7 22.3 54.15 23.1 55.05 24.15 56.75 24.55 L60.25 25.55 60.65 24.65 Q60.15 23.6 59.15 23.6 L57.25 23.8 57.0 22.8 61.35 22.5 60.75 21.8 M60.9 23.8 L61.2 23.5 60.65 23.5 60.9 23.8 M65.35 23.05 Q65.05 23.3 65.05 23.65 65.05 24.0 65.35 24.3 L66.0 24.55 66.7 24.3 66.95 23.65 66.7 23.05 Q66.4 22.75 66.0 22.75 65.6 22.75 65.35 23.05 M53.75 8.85 L53.45 8.05 Q53.1 7.7 52.6 7.7 52.1 7.7 51.8 8.05 51.45 8.35 51.45 8.85 51.45 9.35 51.8 9.7 52.1 10.0 52.6 10.0 53.1 10.0 53.45 9.7 L53.75 8.85 M51.85 10.4 L51.05 9.85 Q51.25 10.25 50.85 10.95 L49.65 11.45 50.9 11.5 51.85 10.4 M59.6 11.95 L59.1 11.45 57.15 11.3 Q58.45 10.7 58.6 9.9 L58.35 9.75 55.75 10.05 Q54.15 10.25 53.65 11.4 55.1 12.3 57.4 12.7 59.55 13.05 60.65 12.65 L59.6 11.95 M49.15 21.85 L50.95 23.6 Q51.65 24.25 52.7 24.75 L48.8 25.15 49.85 25.75 Q50.85 26.2 50.45 25.4 L52.6 25.3 Q53.1 25.0 53.1 24.3 53.1 23.25 52.15 22.55 51.2 21.85 49.95 21.9 L49.15 21.85 M58.55 17.5 Q58.55 17.0 59.3 17.35 60.0 17.7 60.0 17.2 L59.65 15.25 57.65 15.2 58.9 16.1 Q57.5 16.4 56.8 18.3 56.2 20.05 56.65 20.4 L56.15 21.15 58.35 21.5 58.2 20.5 Q60.25 19.7 60.4 19.3 59.2 19.0 58.85 18.6 58.55 18.3 58.55 17.5 M54.5 13.05 L53.7 12.85 52.75 13.1 50.6 13.4 51.55 14.4 53.3 15.8 55.2 13.75 54.5 13.05 M58.5 29.3 Q59.05 29.2 58.5 28.35 L58.1 28.4 Q58.0 28.55 58.25 28.95 L58.5 29.3 M55.7 30.4 Q55.95 30.6 56.35 30.6 L57.05 30.4 57.3 29.85 57.05 29.35 56.35 29.1 55.7 29.35 Q55.4 29.55 55.4 29.85 L55.7 30.4 M56.75 25.75 L56.75 26.0 58.55 26.5 61.05 27.0 60.95 26.1 60.3 25.65 56.75 25.75 M49.7 27.55 L51.05 28.3 50.5 27.85 49.7 27.55 M46.65 42.3 Q46.7 42.05 47.75 42.6 L46.3 40.1 45.65 40.5 46.65 42.3 M47.15 39.0 L47.35 38.45 47.15 37.95 46.6 37.7 Q46.3 37.7 46.1 37.95 45.85 38.15 45.85 38.45 L46.1 39.0 Q46.3 39.2 46.6 39.2 L47.15 39.0 M49.65 40.5 Q48.85 40.5 48.85 41.0 48.85 42.0 48.0 42.55 49.2 42.95 50.4 44.85 L52.9 44.75 Q51.95 43.75 52.25 43.45 L54.4 43.5 Q55.05 43.6 56.45 44.7 L56.45 44.9 57.15 44.75 57.35 43.8 57.15 42.85 56.9 42.65 54.0 42.4 52.7 42.2 Q52.05 41.85 50.9 40.15 50.6 40.55 49.65 40.5 M46.25 43.55 Q45.4 42.05 45.25 42.9 L46.25 43.55 M57.8 41.2 Q58.0 40.55 57.2 39.85 57.5 40.2 56.65 40.95 L57.8 41.2 M64.55 25.0 Q63.85 25.0 63.4 25.3 62.9 25.55 62.9 25.9 L63.4 26.55 64.55 26.8 65.75 26.55 66.2 25.9 65.75 25.3 64.55 25.0 M61.45 30.05 L62.4 30.15 Q60.9 29.35 60.65 29.45 60.55 29.9 61.45 30.05 M62.05 42.2 Q62.75 43.15 62.95 44.0 L62.7 44.95 Q62.1 44.95 60.55 42.65 L61.15 42.35 62.05 42.2 M29.7 48.65 Q30.0 50.1 31.05 50.4 L31.85 51.2 31.9 49.45 31.85 48.5 32.05 48.35 Q32.15 48.15 31.5 48.15 L30.15 48.25 29.7 48.65 M39.15 52.15 L39.0 53.6 38.9 54.4 Q38.9 55.4 40.25 57.05 L40.85 56.8 41.1 56.05 39.15 52.15 M36.3 51.25 L35.8 51.85 Q35.45 52.5 35.45 53.15 35.45 54.15 35.8 56.25 35.75 57.35 36.55 58.3 L38.15 59.9 39.5 58.9 Q39.5 56.85 38.15 56.4 36.8 55.9 36.8 55.5 36.8 51.75 36.3 51.25 M33.1 52.0 L33.25 51.35 33.2 51.0 33.1 52.0 M31.75 55.45 Q31.8 54.75 30.9 52.95 30.05 51.25 29.6 50.85 L29.4 55.55 31.75 55.45 M24.15 59.0 L24.15 60.9 25.7 60.9 25.7 59.0 24.15 59.0 M12.5 52.75 L10.95 53.35 9.5 54.05 9.75 54.75 10.0 56.2 Q10.0 56.7 10.35 57.0 L10.6 57.45 Q10.7 56.45 11.55 56.45 12.0 56.45 12.1 56.95 12.15 57.45 12.8 57.55 L12.65 55.6 Q12.3 53.7 12.5 52.75 M16.65 56.65 L16.55 56.65 17.15 57.3 17.35 56.65 16.65 56.65" fill="#e7d0d0" fill-rule="evenodd" stroke="none"/>
    <path d="M78.05 32.3 L80.8 36.0 81.3 37.25 79.95 36.75 82.55 40.4 81.3 40.4 81.05 40.4 82.5 42.2 80.75 42.05 81.65 43.95 Q82.55 45.7 84.05 45.95 L82.75 47.15 82.6 47.3 85.1 50.85 80.5 50.55 81.15 51.65 82.1 54.0 82.1 54.15 80.9 53.25 79.4 52.5 79.25 52.5 80.0 53.8 80.65 55.25 78.8 55.15 78.25 55.15 80.2 62.05 77.6 60.35 76.55 67.65 74.95 66.4 74.95 69.45 Q74.25 69.4 72.65 68.45 L71.4 67.6 71.7 71.15 69.4 70.8 69.4 75.1 65.6 72.25 65.85 74.2 63.4 71.7 62.05 74.75 60.2 72.75 60.05 72.9 59.6 75.0 59.15 77.1 58.0 75.2 57.5 74.45 52.65 79.3 51.95 76.85 51.9 76.9 50.15 78.6 50.0 78.45 49.5 76.45 49.15 75.35 47.15 79.1 45.2 76.55 43.25 79.3 41.65 74.4 40.15 78.9 39.25 82.6 35.4 75.75 34.8 78.5 Q34.75 77.95 33.1 76.6 L31.05 75.2 30.05 77.95 29.95 75.35 29.1 76.1 26.95 77.45 26.7 75.9 26.6 75.95 22.6 78.95 Q22.35 74.9 21.7 73.2 L21.1 72.25 19.85 77.15 17.35 72.25 16.9 78.0 Q15.3 74.6 14.9 72.35 L12.0 73.75 13.65 69.7 13.7 67.95 10.65 68.9 12.65 66.5 12.95 65.7 Q12.95 65.1 12.6 65.25 L12.2 65.55 9.45 67.55 10.2 60.85 10.25 60.25 10.1 60.55 8.85 62.8 7.55 60.15 7.45 56.25 7.7 53.35 Q5.75 55.2 4.35 57.15 L4.25 55.4 Q4.25 53.25 6.05 50.05 L7.5 47.5 6.45 47.65 4.95 49.85 5.5 40.65 Q4.95 40.65 3.6 42.2 L3.4 41.0 4.2 35.65 Q4.15 34.35 0.65 37.8 1.1 36.3 3.65 31.6 L3.75 31.4 3.05 31.15 0.0 30.15 0.0 30.0 Q0.8 29.8 3.7 28.2 3.8 27.75 3.35 27.15 L3.0 26.8 2.3 26.55 M68.35 11.2 L68.4 11.15 65.6 11.5 61.15 12.35 63.9 8.6 61.7 8.25 59.0 8.7 56.4 9.2 58.1 7.4 51.7 6.85 53.05 3.35 46.8 4.3 49.15 0.0 Q48.35 0.0 45.1 2.25 L43.45 3.5 43.2 1.55 41.3 2.35 Q39.8 3.05 39.4 3.85 L39.4 3.7 40.2 0.55 40.15 0.55 38.45 2.35 Q37.55 3.55 37.35 4.5 L35.4 2.15 35.5 2.4 35.05 4.4 Q34.45 3.25 33.25 2.1 L31.85 5.05 29.1 4.7 29.1 7.55 Q25.75 4.7 25.25 4.7 L25.25 8.0 18.9 8.0 22.25 13.15 Q19.55 11.95 16.8 11.6 L14.75 11.6 17.7 14.9 12.45 14.7 12.35 15.05 14.7 16.5 14.6 16.55 12.95 16.05 Q11.6 15.8 11.6 16.05 L10.0 16.05 11.1 17.75 6.9 18.65 8.9 20.4 5.95 20.4 7.7 23.05 8.5 23.95 7.05 24.3 Q3.55 25.25 3.0 25.5 4.1 25.4 6.55 26.6 L6.5 26.7 4.6 27.0 3.05 26.8 3.0 26.8 M78.05 32.3 L78.45 32.05 Q79.6 31.5 80.0 31.5 L78.3 30.1 Q76.95 29.2 76.3 29.55 L78.55 27.15 78.4 27.0 76.35 26.4 75.65 26.2 78.5 25.4 70.35 21.75 73.1 20.8 70.15 19.45 71.7 18.2 Q72.25 17.7 72.75 17.4 L68.7 16.3 70.65 13.5 68.45 13.75 66.5 14.15 66.5 14.05 66.55 14.0 67.65 12.35 68.35 11.2" fill="none" stroke="#a36a6a" stroke-linecap="round" stroke-linejoin="round" stroke-width="1"/>
    <path d="M60.5 35.3 L60.85 35.3 60.75 35.15 60.7 34.95 61.05 34.9 63.15 35.2 61.95 34.35 Q61.25 33.8 60.2 33.55 L60.1 33.15 60.2 32.85 62.9 32.9 61.9 32.2 61.9 32.0 Q61.9 31.35 60.45 30.3 L60.75 30.35 62.4 30.8 61.95 31.2 63.5 32.35 64.2 33.6 62.15 33.6 63.55 34.8 64.0 35.2 64.35 35.6 64.45 35.9 64.25 36.2 63.2 36.05 63.45 36.6 63.55 36.7 Q63.4 37.2 62.35 37.15 L62.9 37.9 63.35 38.7 63.3 38.8 64.05 39.85 64.05 41.05 63.8 41.3 63.0 41.05 62.65 40.5 62.4 40.55 63.55 43.8 63.0 44.4 64.0 45.45 61.8 45.75 62.05 47.4 61.3 49.15 Q60.5 50.85 60.5 52.1 60.65 52.35 60.2 52.35 L59.0 51.7 59.0 51.75 58.85 51.9 57.95 51.4 58.25 52.35 58.6 53.2 58.25 53.45 57.8 53.1 57.1 52.9 Q56.95 53.45 57.05 55.0 56.8 56.3 55.1 56.55 L54.95 56.6 54.75 56.8 54.25 56.75 53.8 55.4 53.25 56.4 53.25 57.15 Q53.25 57.8 52.85 58.15 L52.3 57.25 Q51.9 56.5 51.3 56.35 L51.3 57.7 50.95 57.75 Q50.25 57.75 49.4 56.9 49.2 57.65 48.4 58.6 L48.3 58.5 Q47.2 58.55 46.5 60.1 L46.15 61.2 45.95 61.45 45.35 61.35 Q45.5 60.25 45.0 59.2 44.4 57.95 43.15 57.1 L43.35 57.95 43.0 58.15 42.75 59.0 Q42.55 60.15 41.9 60.35 41.5 60.05 41.5 59.1 L41.35 58.4 40.6 59.65 39.05 61.1 38.8 60.75 38.45 61.35 38.0 62.0 37.65 62.2 37.1 62.35 36.65 62.25 Q36.45 61.75 36.8 61.25 L36.55 60.9 Q35.85 61.4 34.3 63.25 L32.9 61.5 Q32.15 62.4 30.9 62.75 L30.75 59.9 30.0 61.0 Q29.5 61.8 29.7 62.5 L29.55 62.65 Q28.2 61.85 28.1 60.1 L28.0 59.9 Q27.6 60.05 27.45 60.3 L27.05 60.35 Q26.9 60.6 26.9 60.15 L27.0 59.35 27.05 59.45 27.45 59.55 27.9 59.4 28.1 59.15 Q28.5 59.35 28.45 60.05 28.45 60.85 29.0 61.2 L30.85 58.95 31.4 59.0 31.3 59.55 31.4 61.55 31.45 61.75 32.4 60.75 32.25 60.45 32.6 60.0 32.75 60.15 32.75 59.5 32.9 59.3 33.6 59.25 33.65 59.85 33.35 60.9 34.35 62.2 35.2 60.95 Q35.85 60.05 36.25 60.1 37.25 60.1 37.45 61.25 37.9 60.95 38.05 60.05 L38.45 59.25 38.5 58.05 39.0 59.05 39.05 59.25 39.25 59.45 39.55 59.85 40.4 58.55 Q40.95 57.6 40.6 56.95 41.0 56.9 41.45 57.25 L42.1 57.85 42.5 57.3 Q42.8 57.0 43.05 57.0 L43.4 56.7 Q45.6 58.35 46.05 59.8 L46.65 58.3 Q46.85 57.35 47.5 57.05 L48.1 57.65 48.55 56.6 48.85 55.5 49.6 56.15 50.5 56.8 50.55 55.2 51.85 55.6 52.7 55.95 Q53.2 55.3 53.2 54.25 L53.6 54.05 54.75 55.5 55.05 55.15 55.15 54.05 55.55 53.85 56.2 54.5 56.2 53.0 Q56.25 52.1 57.55 52.2 L55.35 50.3 55.45 50.05 55.5 50.15 56.85 50.15 57.7 50.5 57.55 50.35 57.45 50.25 57.5 50.15 Q57.65 50.0 57.95 50.0 58.3 50.0 58.8 50.35 59.3 50.8 59.65 50.8 58.7 49.8 58.6 48.95 L58.95 48.9 60.35 49.7 60.5 49.05 60.35 48.05 59.85 46.85 59.95 46.75 60.35 46.6 60.85 47.15 61.3 47.45 61.35 47.05 61.1 46.35 Q60.75 45.8 60.75 45.45 L60.8 45.05 62.75 45.0 Q60.5 44.05 60.5 43.25 L60.6 42.95 60.7 43.05 62.65 43.1 Q61.75 41.1 60.75 39.75 L62.05 39.8 63.3 40.0 61.7 38.2 61.2 38.0 61.2 37.95 61.4 37.85 61.35 37.8 62.05 37.8 60.75 36.7 60.75 36.45 61.8 36.2 60.5 35.65 60.5 35.3 M72.95 27.25 Q74.6 27.85 75.0 28.15 L74.95 28.6 74.45 29.05 72.9 29.15 Q75.1 29.9 75.9 31.15 L76.8 33.35 Q76.95 33.5 76.45 33.5 75.9 33.5 75.05 32.95 L74.9 33.0 76.4 34.0 Q77.55 34.9 77.55 35.25 L77.15 36.35 76.0 36.25 74.45 36.3 74.1 35.7 73.9 35.4 75.25 35.35 74.65 35.05 Q74.55 35.25 74.55 34.75 74.55 34.45 74.8 34.4 L75.6 34.35 73.0 32.65 73.05 32.35 73.1 32.45 75.85 32.6 Q75.3 30.15 73.5 29.5 L71.85 28.85 71.85 28.55 71.95 28.55 74.0 28.4 Q71.6 27.2 71.05 26.65 L72.95 27.25 M68.25 30.1 L67.3 29.2 67.3 28.95 Q68.2 28.5 69.15 29.5 L70.45 31.25 68.6 31.65 Q67.55 31.7 67.2 32.05 L68.3 32.65 69.85 33.6 69.2 34.2 70.85 35.4 71.6 36.7 70.2 36.7 69.45 36.8 70.9 38.0 71.9 39.15 71.65 39.5 70.55 39.35 70.8 39.9 70.9 40.05 Q70.75 40.55 69.65 40.55 L70.25 41.3 70.7 42.15 70.65 42.25 71.45 43.4 71.45 44.65 71.2 44.95 Q70.7 44.9 70.35 44.65 L69.95 44.15 69.7 44.2 70.9 47.6 70.35 48.2 71.4 49.35 69.05 49.7 69.3 51.5 68.5 53.35 Q67.7 55.2 67.7 56.55 L67.35 56.8 66.1 56.1 66.1 56.15 65.9 56.35 Q65.65 56.3 64.95 55.85 64.95 56.25 65.3 56.85 L65.65 57.75 65.3 58.05 64.8 57.65 64.05 57.45 Q63.9 58.05 64.0 59.7 63.75 61.1 61.9 61.4 L61.75 61.5 61.55 61.7 61.0 61.65 60.55 60.2 59.95 61.25 59.95 62.05 Q59.95 62.75 59.55 63.2 L58.95 62.25 Q58.5 61.45 57.9 61.25 L57.85 62.7 57.5 62.8 Q56.75 62.8 55.85 61.9 55.65 62.75 54.8 63.8 L54.7 63.65 Q53.5 63.8 52.75 65.45 52.5 66.0 52.4 66.6 L52.15 66.85 51.55 66.8 Q51.7 65.65 51.15 64.55 50.5 63.2 49.2 62.35 L49.4 63.25 49.05 63.45 48.75 64.35 Q48.55 65.6 47.85 65.8 47.45 65.55 47.45 64.5 L47.3 63.8 46.5 65.1 44.85 66.7 44.55 66.35 44.2 66.95 43.7 67.65 43.35 67.95 42.75 68.1 42.25 68.0 Q42.05 67.45 42.45 66.9 L42.15 66.55 Q41.4 67.15 39.75 69.1 L38.3 67.3 Q37.5 68.25 36.15 68.7 L36.0 65.65 35.2 66.85 Q34.65 67.7 34.85 68.45 L34.7 68.65 Q33.25 67.85 33.15 65.95 L33.05 65.75 32.45 66.2 32.05 66.25 Q31.9 66.5 31.9 66.0 L32.0 65.15 32.05 65.25 32.45 65.35 32.95 65.2 33.15 64.95 Q33.6 65.1 33.55 65.85 33.55 66.7 34.1 67.1 L36.1 64.65 36.65 64.7 36.55 65.25 36.7 67.4 36.75 67.6 37.75 66.5 37.6 66.2 Q37.6 65.9 37.95 65.7 L38.1 65.85 38.1 65.15 38.25 64.95 39.0 64.9 39.05 65.55 38.75 66.65 39.8 68.0 40.75 66.65 Q41.4 65.7 41.85 65.7 42.9 65.7 43.1 66.9 43.6 66.55 43.75 65.6 L44.2 64.75 44.25 63.45 44.75 64.5 44.8 64.75 45.05 64.95 45.35 65.4 46.25 63.95 Q46.85 62.95 46.5 62.25 L47.4 62.55 48.1 63.15 48.5 62.55 Q48.8 62.25 49.1 62.25 L49.45 61.9 Q51.8 63.55 52.3 65.1 52.6 64.75 52.9 63.5 53.15 62.5 53.85 62.15 L54.45 62.75 54.95 61.65 55.25 60.45 56.05 61.1 57.0 61.8 57.1 60.1 58.45 60.5 59.35 60.85 Q59.9 60.1 59.9 59.0 L60.35 58.75 61.55 60.3 61.85 59.9 61.95 58.7 62.4 58.5 63.1 59.2 63.1 57.6 Q63.15 56.65 64.55 56.7 L62.2 54.75 Q62.2 54.45 62.3 54.45 L62.35 54.55 63.8 54.55 64.7 54.9 64.55 54.75 64.45 54.6 64.5 54.5 Q64.65 54.35 64.95 54.35 65.35 54.35 65.85 54.75 66.4 55.15 66.75 55.15 65.75 54.15 65.65 53.25 L66.0 53.15 67.5 54.0 Q67.7 53.95 67.7 53.3 L67.5 52.2 67.0 50.95 67.1 50.85 67.5 50.7 68.05 51.2 68.55 51.55 68.6 51.1 68.3 50.35 Q67.95 49.75 67.95 49.4 L68.0 48.95 70.05 48.85 Q67.7 47.95 67.7 47.1 L67.8 46.8 67.9 46.9 69.95 46.9 Q69.0 44.75 67.95 43.35 L69.3 43.4 70.65 43.55 68.95 41.65 68.4 41.45 68.4 41.4 68.65 41.3 68.6 41.25 69.3 41.25 67.95 40.1 67.95 39.8 Q68.05 39.55 69.05 39.55 L67.7 39.0 67.7 38.65 68.05 38.6 67.95 38.45 67.9 38.25 68.25 38.15 70.5 38.45 69.2 37.55 Q68.45 37.0 67.35 36.8 L67.25 36.35 67.35 36.05 70.25 35.95 68.05 34.55 67.45 34.25 66.9 33.45 67.55 33.35 66.5 33.0 65.65 32.2 Q65.8 31.8 67.05 31.3 L69.15 30.65 Q68.9 30.4 68.25 30.1 M77.2 40.55 L77.95 41.3 77.7 41.6 76.6 42.25 78.75 44.0 78.75 44.05 78.65 44.25 Q78.45 44.5 77.6 44.55 L78.1 45.4 78.4 46.35 78.3 46.45 78.35 46.6 78.1 46.6 79.2 48.75 79.55 50.05 Q78.2 48.8 78.05 49.8 L77.6 49.35 77.5 49.15 Q78.1 51.65 78.15 53.05 77.7 52.9 77.65 53.4 L76.75 52.65 76.1 52.0 Q76.05 52.7 75.5 53.4 L75.9 54.95 76.3 56.7 Q76.4 57.9 75.55 57.9 74.6 57.8 72.35 56.55 L72.8 57.85 73.35 60.1 Q73.4 61.95 72.25 63.3 L71.7 63.2 71.65 63.2 71.6 63.15 71.25 63.2 71.15 62.7 70.8 63.2 70.75 63.2 Q70.4 63.2 69.4 64.1 L69.5 64.2 69.15 66.1 Q68.65 67.35 68.8 68.8 L68.75 68.8 67.65 67.05 67.05 66.45 67.05 66.2 Q67.05 65.4 65.8 65.5 L65.75 66.8 65.75 67.15 64.9 67.05 Q64.75 67.1 64.75 66.75 L64.55 66.7 63.9 66.45 Q63.85 66.65 63.95 66.85 L64.1 70.2 64.0 70.6 Q62.55 69.8 62.25 69.05 L61.6 67.75 61.2 69.15 60.25 70.35 59.55 70.05 59.5 69.55 59.65 67.75 58.9 69.6 Q57.75 71.9 56.7 71.1 56.3 71.05 56.2 71.95 56.05 72.0 56.15 72.15 55.9 72.95 55.45 72.85 L54.95 72.6 54.8 71.55 54.45 70.4 Q54.1 70.35 53.8 70.85 L53.95 71.9 Q53.95 72.45 53.2 73.25 L52.05 74.65 51.4 74.25 50.95 71.15 50.7 71.45 50.7 72.0 50.1 72.75 Q49.35 73.65 48.15 73.95 L48.25 71.85 47.75 70.7 47.4 71.5 Q46.9 72.5 46.5 72.5 46.0 72.4 45.9 72.0 L45.25 72.9 Q44.5 73.65 43.45 73.55 42.35 73.5 42.15 73.25 41.9 73.0 41.15 72.85 L40.5 74.1 Q39.55 74.9 38.2 74.45 37.8 75.25 37.85 75.9 L37.7 76.05 Q36.5 75.4 36.0 74.35 L35.3 72.55 35.2 72.45 34.95 72.65 Q34.75 72.75 34.8 73.1 34.8 73.6 35.35 74.75 L35.15 75.0 Q33.75 74.55 33.1 73.95 L32.15 73.05 31.45 73.1 Q30.45 73.05 29.8 72.05 L29.1 70.6 28.9 70.45 28.3 71.65 27.85 71.3 28.3 72.8 27.75 72.9 Q26.35 72.8 25.1 69.9 L24.85 69.9 25.1 73.15 24.9 73.4 Q24.1 72.85 23.2 71.3 L22.25 69.6 21.8 69.85 21.45 69.85 21.35 69.6 Q20.15 69.35 19.55 68.65 L18.9 67.55 18.55 67.95 18.05 68.7 Q17.1 68.15 17.1 67.0 L17.35 65.25 16.9 65.35 16.2 65.4 15.45 65.3 15.45 64.35 Q15.9 62.8 16.3 61.8 L14.35 62.85 Q13.55 61.45 14.2 59.55 13.15 59.85 13.0 60.35 L12.2 60.2 12.15 59.95 12.45 59.05 Q12.75 58.25 13.1 58.2 L13.25 58.5 13.2 58.75 13.1 58.95 14.75 58.3 15.4 58.35 15.6 58.7 15.3 59.5 14.7 60.15 14.7 61.75 16.0 61.25 16.7 60.95 16.85 61.05 17.65 61.15 17.55 61.2 16.5 64.3 16.5 64.35 17.4 63.65 Q17.55 63.35 17.9 63.4 L18.45 63.5 18.5 64.1 18.1 66.7 18.35 66.1 Q18.45 65.7 18.85 65.8 L21.75 68.75 22.25 68.2 Q22.85 68.75 23.15 69.9 23.45 71.0 24.1 71.6 L24.0 69.95 Q23.95 68.8 25.0 68.9 25.6 68.95 26.15 70.05 L27.0 71.55 27.1 70.5 27.4 70.15 27.45 70.35 27.5 70.05 Q27.6 69.8 28.15 69.85 29.65 69.95 29.85 70.3 30.2 71.05 31.8 72.05 L32.0 72.25 32.4 72.45 32.35 72.5 32.75 72.9 Q33.5 73.6 34.3 73.85 33.8 70.5 35.3 72.0 L37.0 74.6 37.75 73.75 Q38.3 73.1 38.55 73.1 38.9 73.1 39.2 73.85 40.0 73.75 40.35 73.15 L40.7 72.0 40.95 71.95 41.15 72.15 41.2 72.3 41.55 72.05 42.45 71.6 43.05 72.15 42.9 72.55 42.9 72.6 44.1 72.35 44.2 72.3 45.05 71.65 45.9 70.95 46.1 70.8 46.6 71.35 47.55 70.55 47.6 69.85 47.6 69.7 47.8 69.7 47.8 69.8 Q48.25 69.85 48.6 70.7 49.05 71.75 48.9 72.7 L48.95 72.95 Q49.6 72.45 50.65 70.35 L50.7 70.4 50.7 69.6 51.6 71.3 52.0 73.1 52.4 72.4 52.6 72.6 53.1 72.45 53.4 70.05 53.4 69.65 54.0 68.55 54.35 68.45 54.3 68.65 54.8 69.1 55.5 70.65 56.1 69.85 56.3 68.75 56.5 68.75 57.0 68.6 57.05 68.25 57.05 68.45 57.4 69.3 57.4 69.45 57.55 69.8 57.8 69.6 57.85 69.6 Q58.35 69.6 58.45 69.35 L58.45 68.55 58.55 68.2 58.95 67.65 Q59.85 66.3 59.85 65.75 L59.85 65.6 60.1 65.6 60.15 66.25 60.5 68.55 60.85 67.2 61.0 66.4 61.2 65.75 61.4 65.6 62.1 66.6 62.5 67.25 63.05 69.2 63.2 69.25 63.35 67.15 63.3 67.05 63.45 66.9 63.5 66.25 63.2 64.65 63.65 64.75 65.15 66.1 Q65.2 65.85 65.5 65.75 66.05 65.1 65.5 64.15 L65.6 64.1 66.1 64.2 66.25 64.2 67.25 65.15 66.5 63.3 66.5 63.25 66.85 63.2 Q67.6 63.25 67.9 63.85 L68.3 65.1 68.45 63.25 68.35 62.5 68.15 61.0 68.6 60.95 69.1 62.65 69.2 62.8 Q69.15 62.65 69.25 62.65 L69.3 62.6 69.6 63.1 70.4 61.95 70.6 61.0 Q70.6 60.45 70.4 60.25 70.45 59.35 69.9 58.5 70.55 58.6 71.1 59.6 L71.65 61.0 71.65 61.65 71.7 61.85 Q72.3 59.6 72.2 58.5 L71.9 57.8 71.5 57.1 71.1 56.5 71.1 54.95 71.05 54.9 71.55 55.1 72.75 56.25 Q74.0 57.3 74.3 57.3 75.0 57.3 75.0 56.65 75.0 56.4 73.85 55.7 L73.85 55.5 73.7 55.4 73.4 54.65 73.45 54.55 73.85 54.35 Q74.3 55.6 74.65 55.6 75.15 55.6 75.15 55.4 L75.2 54.8 74.75 53.25 75.2 52.3 75.9 50.65 77.0 51.6 76.8 50.3 76.85 49.8 Q76.85 48.3 75.95 46.7 L75.95 46.65 Q77.0 46.7 77.5 47.55 L78.05 48.6 78.15 48.65 78.2 48.4 77.1 46.6 77.55 46.6 77.5 46.45 76.9 45.65 76.4 44.55 76.45 44.5 76.55 44.1 76.4 43.75 76.45 43.6 76.75 43.45 75.75 42.85 75.0 42.1 74.65 41.75 74.65 41.65 75.4 41.4 76.25 41.25 75.1 40.25 Q74.35 39.65 74.25 39.25 L75.05 39.25 75.05 39.1 76.45 39.35 74.55 37.5 74.25 36.3 Q77.45 38.25 77.5 40.45 L77.2 40.55 M73.55 42.25 L74.2 42.7 Q73.8 42.65 73.65 42.4 L73.55 42.25" fill="#a36a6a" fill-rule="evenodd" stroke="none"/>
  </g>
</svg>