<?xml version="1.0" encoding="UTF-8" standalone="no"?>
<svg xmlns:xlink="http://www.w3.org/1999/xlink" height="8.5px" width="12.25px" xmlns="http://www.w3.org/2000/svg">
  <g transform="matrix(1.0, 0.0, 0.0, 1.0, 6.15, 4.25)">
    <path d="M1.55 -1.6 L1.35 -1.4 1.55 -1.6 2.7 -1.0 3.0 -0.75 3.3 -0.55 Q4.1 0.3 4.05 1.1 3.95 1.85 3.0 2.45 L2.65 2.65 2.65 2.7 2.45 2.8 0.9 3.25 Q-2.1 3.45 -4.05 1.75 L-4.2 1.65 -2.5 2.15 -2.2 2.2 -1.6 2.3 -1.6 2.25 -1.35 2.25 -0.9 2.2 -0.05 1.95 0.1 1.85 0.55 1.55 1.85 0.25 1.85 -0.05 1.9 -0.25 Q1.9 -0.9 1.4 -1.3 L1.35 -1.4 1.3 -1.5 0.3 -2.0 1.55 -1.6 M3.0 -0.75 L2.9 -0.2 3.0 -0.75 M2.65 0.4 L1.85 -0.05 2.65 0.4 M-0.9 2.2 L1.55 2.65 2.2 2.6 2.6 2.65 2.65 2.65 2.6 2.65 2.65 2.7 2.6 2.65 2.2 2.6 1.55 2.65 -0.9 2.2 M-2.25 2.5 L-2.1 2.55 -2.15 2.55 -2.2 2.5 -2.25 2.5" fill="#55860b" fill-rule="evenodd" stroke="none"/>
    <path d="M0.3 -2.0 L1.3 -1.5 1.35 -1.4 1.4 -1.3 Q1.9 -0.9 1.9 -0.25 L1.85 -0.05 1.85 0.25 0.55 1.55 0.1 1.85 -0.05 1.95 -0.9 2.2 -1.35 2.25 -1.6 2.25 -1.6 2.3 -2.2 2.2 -2.5 2.15 -4.2 1.65 -4.35 1.45 -4.55 1.2 -5.05 0.4 -5.15 -0.15 -5.15 -0.3 -5.15 -0.35 -5.1 -0.7 -4.55 -1.45 -4.25 -1.7 -3.0 -2.25 -1.85 -2.45 -1.7 -2.4 -1.35 -1.95 -1.7 -2.4 -0.1 -2.1 -0.05 -2.1 0.3 -2.0 M-2.25 2.5 L-2.2 2.5 -2.15 2.55 -2.1 2.55 -2.25 2.5 M-0.9 2.2 L-4.55 1.2 -0.9 2.2" fill="#78bd0f" fill-rule="evenodd" stroke="none"/>
    <path d="M1.35 -1.4 L1.55 -1.6 2.05 -2.0 M1.35 -1.4 L1.4 -1.3 M1.85 -0.05 L2.65 0.4 M2.9 -0.2 L3.0 -0.75 2.7 -1.0 M4.05 1.1 L5.1 1.15 M-3.0 -2.25 L-3.75 -2.75 M-1.7 -2.4 L-1.35 -1.95 M-0.05 -2.1 L-0.1 -2.1 0.0 -3.25" fill="none" stroke="#5c6130" stroke-linecap="round" stroke-linejoin="round" stroke-opacity="0.49803922" stroke-width="1"/>
    <path d="M1.55 -1.6 L0.3 -2.0 -0.05 -2.1 M2.7 -1.0 L1.55 -1.6 M3.0 -0.75 L3.3 -0.55 Q4.1 0.3 4.05 1.1 3.95 1.85 3.0 2.45 L2.65 2.65 2.65 2.7 2.45 2.8 0.9 3.25 Q-2.1 3.45 -4.05 1.75 L-4.2 1.65 -4.35 1.45 -4.55 1.2 -5.05 0.4 -5.15 -0.15 -5.15 -0.3 M-5.15 -0.35 L-5.1 -0.7 -4.55 -1.45 -4.25 -1.7 -3.0 -2.25 -1.85 -2.45 -1.7 -2.4 -0.1 -2.1 M2.65 2.65 L2.6 2.65 2.65 2.7 M2.6 2.65 L2.2 2.6 1.55 2.65 -0.9 2.2 -4.55 1.2" fill="none" stroke="#3d0000" stroke-linecap="round" stroke-linejoin="round" stroke-opacity="0.6" stroke-width="1"/>
  </g>
</svg>