<?xml version="1.0" encoding="UTF-8" standalone="no"?>
<svg xmlns:xlink="http://www.w3.org/1999/xlink" height="20.7px" width="25.1px" xmlns="http://www.w3.org/2000/svg">
  <g transform="matrix(1.0, 0.0, 0.0, 1.0, 13.1, 9.75)">
    <path d="M3.15 -6.4 L3.5 -6.3 4.15 -6.0 5.05 -5.35 6.6 -4.3 7.5 -3.65 8.1 -3.05 7.7 -2.55 7.5 -2.3 Q6.65 -1.45 5.8 -1.15 3.5 -0.3 2.5 -0.3 0.75 -0.3 -0.75 -1.45 -2.6 -2.65 -2.3 -4.5 L-2.15 -5.3 -2.05 -5.5 -1.05 -6.2 Q0.0 -6.75 0.9 -6.8 L2.35 -6.75 3.15 -6.4 M-10.95 0.15 L-10.85 -0.4 Q-10.35 -1.85 -9.15 -2.2 L-7.05 -2.4 -5.9 -2.2 -5.55 -2.2 Q-4.9 -2.15 -4.6 -2.8 L-4.15 -3.4 -4.05 -3.1 Q-3.75 -2.45 -3.85 -1.7 -4.0 -0.8 -4.8 -0.5 L-6.6 -0.3 Q-7.3 -0.3 -8.0 0.65 -8.55 1.6 -10.0 1.65 -10.6 1.6 -10.85 0.85 L-10.95 0.15 M2.7 2.75 L2.8 3.45 Q2.6 4.4 1.45 5.3 0.4 6.0 -0.2 6.0 -1.2 5.95 -1.95 5.25 -2.75 4.55 -2.55 3.55 L-2.05 2.3 -1.55 1.65 -0.9 1.55 0.05 1.35 Q1.45 1.35 2.35 2.25 L2.45 2.4 2.7 2.75" fill="#78bd0f" fill-rule="evenodd" stroke="none"/>
    <path d="M-2.05 -5.5 L-2.15 -5.3 -2.3 -4.5 Q-2.6 -2.65 -0.75 -1.45 0.75 -0.3 2.5 -0.3 3.5 -0.3 5.8 -1.15 6.65 -1.45 7.5 -2.3 L7.7 -2.55 8.1 -3.05 8.75 -2.35 Q10.05 -0.55 9.75 1.65 9.6 2.6 9.05 3.3 L7.45 4.45 3.8 5.55 3.15 5.5 Q2.75 7.1 1.05 8.05 -0.5 8.9 -1.8 8.75 -3.1 8.6 -4.35 6.35 L-5.85 3.9 Q-6.15 3.65 -6.45 3.55 -9.05 4.0 -10.2 3.1 -11.45 2.2 -11.0 0.25 L-10.95 0.15 -10.85 0.85 Q-10.6 1.6 -10.0 1.65 -8.55 1.6 -8.0 0.65 -7.3 -0.3 -6.6 -0.3 L-4.8 -0.5 Q-4.0 -0.8 -3.85 -1.7 -3.75 -2.45 -4.05 -3.1 L-4.15 -3.4 -2.2 -5.35 -2.05 -5.5 M2.7 2.75 Q3.45 3.7 3.25 5.1 L3.15 5.5 3.25 5.1 Q3.45 3.7 2.7 2.75 L2.45 2.4 2.35 2.25 Q1.45 1.35 0.05 1.35 L-0.9 1.55 -1.55 1.65 -2.05 2.3 -2.55 3.55 Q-2.75 4.55 -1.95 5.25 -1.2 5.95 -0.2 6.0 0.4 6.0 1.45 5.3 2.6 4.4 2.8 3.45 L2.7 2.75" fill="#55860b" fill-rule="evenodd" stroke="none"/>
    <path d="M3.15 -6.4 L2.35 -6.75 0.9 -6.8 Q0.0 -6.75 -1.05 -6.2 L-2.05 -5.5 -2.2 -5.35 -4.15 -3.4 -4.6 -2.8 Q-4.9 -2.15 -5.55 -2.2 L-5.9 -2.2 -7.05 -2.4 -9.15 -2.2 Q-10.35 -1.85 -10.85 -0.4 L-10.95 0.15 -11.0 0.25 Q-11.45 2.2 -10.2 3.1 -9.05 4.0 -6.45 3.55 -6.15 3.65 -5.85 3.9 L-4.35 6.35 Q-3.1 8.6 -1.8 8.75 -0.5 8.9 1.05 8.05 2.75 7.1 3.15 5.5 L3.25 5.1 Q3.45 3.7 2.7 2.75 L2.45 2.4 2.35 2.25 M9.05 3.3 L7.45 4.45 3.8 5.55 3.15 5.5" fill="none" stroke="#3d0000" stroke-linecap="round" stroke-linejoin="round" stroke-opacity="0.6" stroke-width="1"/>
    <path d="M8.1 -3.05 L8.75 -2.35 Q10.05 -0.55 9.75 1.65 9.6 2.6 9.05 3.3" fill="none" stroke="#3d0000" stroke-linecap="round" stroke-linejoin="round" stroke-opacity="0.29803923" stroke-width="1"/>
    <path d="M-1.75 6.65 L-1.7 7.3 Q-1.7 8.25 -2.5 8.85 -3.25 9.4 -4.3 9.4 L-5.95 9.15 Q-4.45 8.4 -4.65 7.3 -4.75 6.2 -3.2 6.2 L-2.5 6.35 -1.75 6.65 M-12.05 3.85 L-12.1 3.85 Q-12.1 -0.05 -10.4 0.05 -9.3 0.25 -9.3 1.75 -9.3 2.9 -10.5 2.9 L-11.5 2.95 -12.05 3.85" fill="#78bd0f" fill-rule="evenodd" stroke="none"/>
    <path d="M-1.75 6.65 L-1.7 7.3 Q-1.7 8.25 -2.5 8.85 -3.25 9.4 -4.3 9.4 L-5.95 9.15 Q-4.45 8.4 -4.65 7.3 -4.75 6.2 -3.2 6.2 L-2.5 6.35 -1.75 6.65 -1.75 6.6 -1.75 6.65 M-12.1 3.85 L-12.1 3.9 -12.05 3.85 -11.5 2.95 -10.5 2.9 Q-9.3 2.9 -9.3 1.75 -9.3 0.25 -10.4 0.05 -12.1 -0.05 -12.1 3.85 Z" fill="none" stroke="#3d0000" stroke-linecap="round" stroke-linejoin="round" stroke-opacity="0.6" stroke-width="1"/>
    <path d="M0.55 -6.3 L0.35 -6.75 Q0.15 -7.2 0.1 -7.6 L0.0 -8.75 M2.45 -6.5 L2.45 -6.75 2.95 -8.05 M1.3 -4.65 L1.35 -4.95 1.2 -5.75 1.0 -6.7 M3.05 -2.9 Q2.1 -3.35 2.1 -3.9 M4.05 0.35 L4.2 -0.5 4.15 -1.85 M1.85 -0.55 L2.8 -1.25 M3.85 -5.1 Q3.85 -5.6 4.3 -6.05 4.7 -6.5 5.35 -6.65 M8.95 -0.4 L9.2 -0.55 9.7 -0.75 10.15 -0.6 M7.8 -1.55 Q8.55 -1.55 9.85 -2.85 M8.4 -4.3 L8.95 -4.45 M7.5 -3.95 L8.4 -4.3 M6.65 -3.35 L7.2 -3.8 7.5 -3.95 M5.45 -4.05 L5.4 -4.7 5.6 -6.25 M4.45 -3.2 L6.15 -2.9 M10.4 1.55 L11.0 1.6 M5.9 1.55 L6.75 1.2 7.4 0.8 M5.9 2.75 L7.15 2.7 M5.55 4.35 L5.2 5.7 4.95 7.0 M8.9 3.3 L9.7 4.7 M7.15 3.75 L8.65 4.55 M7.5 0.1 L8.1 0.65 M8.6 2.75 L8.9 3.3 M0.8 4.65 Q0.9 4.2 1.5 3.75 M3.0 4.45 L3.55 4.2 Q4.05 3.95 4.15 3.95 M2.2 3.55 L3.65 2.15 M1.6 6.2 L2.8 6.35 3.45 6.25 M1.0 7.3 L1.6 8.1 Q2.2 8.5 2.75 8.55 M8.85 1.1 L10.4 1.55 M6.25 -1.1 L7.5 0.1 M-0.4 -5.45 Q-0.45 -5.9 -1.2 -6.65 L-2.35 -7.45 M-7.0 -1.7 L-7.95 -4.05 M-8.7 -1.75 L-9.25 -2.35 -10.25 -3.05 M-1.9 -1.4 L-1.25 -3.8 M-3.5 -3.3 L-3.9 -3.6 -4.4 -4.1 M-1.3 -0.2 L-1.25 -0.5 -1.35 -0.8 M-1.8 -4.6 L-2.6 -5.25 Q-3.1 -5.9 -3.1 -6.5 M-9.55 -1.05 L-11.85 -1.25 M-0.5 4.25 Q-2.0 3.5 -2.65 3.7 M-2.3 2.5 L-3.05 1.45 M-0.6 3.0 Q-0.4 2.7 -0.4 1.6 -0.4 0.6 -0.55 0.45 M-8.05 2.95 L-9.0 3.65 -9.7 4.35 M-6.55 3.05 L-6.8 3.6 -7.05 4.4 M-1.0 8.25 L-0.8 9.25 -0.5 9.95 M-4.35 4.7 L-5.75 5.45 M-4.3 5.45 L-5.55 7.15 M-6.35 1.15 Q-6.45 0.6 -7.1 -0.4 M-4.75 0.15 L-4.2 -1.1" fill="none" stroke="#5c6130" stroke-linecap="round" stroke-linejoin="round" stroke-opacity="0.49803922" stroke-width="1"/>
  </g>
</svg>