<?xml version="1.0" encoding="UTF-8" standalone="no"?>
<svg xmlns:xlink="http://www.w3.org/1999/xlink" height="10.25px" width="13.9px" xmlns="http://www.w3.org/2000/svg">
  <g transform="matrix(1.0, 0.0, 0.0, 1.0, 10.65, 5.5)">
    <path d="M2.25 -4.4 L1.9 -4.1 1.7 -4.15 1.65 -4.3 Q1.65 -4.5 1.95 -4.5 L2.25 -4.4 M0.35 -3.5 L-0.45 -4.2 -0.45 -4.35 Q0.9 -4.5 0.9 -4.05 L0.35 -3.5 M-8.6 -1.55 L-8.75 -1.25 -9.1 -1.05 -9.35 -1.15 Q-9.2 -1.5 -8.65 -1.7 L-8.6 -1.55 M-9.25 -0.35 L-9.35 -0.3 -9.6 -0.3 -9.65 -0.5 -9.3 -0.55 -9.25 -0.35 M-5.25 -1.5 L-5.2 -1.3 -5.5 -1.1 -5.8 -1.3 -5.6 -1.5 -5.25 -1.5 M-0.3 3.3 Q0.0 3.05 0.1 3.1 L0.15 3.25 -0.5 3.75 -0.65 3.65 -0.3 3.3" fill="#ffffcc" fill-rule="evenodd" stroke="none"/>
  </g>
</svg>