<?xml version="1.0" encoding="UTF-8" standalone="no"?>
<svg xmlns:xlink="http://www.w3.org/1999/xlink" height="13.5px" width="15.8px" xmlns="http://www.w3.org/2000/svg">
  <g transform="matrix(1.0, 0.0, 0.0, 1.0, 6.6, 7.7)">
    <path d="M-2.15 -5.45 L-2.0 -5.25 -1.95 -5.2 Q-1.4 -4.6 -0.45 -4.6 L1.15 -4.85 2.7 -5.1 4.8 -4.9 5.9 -5.15 6.25 -5.5 5.95 -6.35 7.45 -5.25 Q8.2 -4.25 8.2 -3.0 8.2 -1.55 7.4 -0.75 6.75 -0.1 6.1 -0.1 5.7 -0.1 5.7 -2.15 5.65 -4.2 4.2 -4.2 L2.4 -3.95 -0.65 -3.7 -2.0 -3.8 Q-2.45 -4.0 -2.4 -4.55 L-2.15 -5.45 M-1.7 -3.05 Q-0.25 -1.35 -0.25 2.55 -0.25 3.7 -0.4 4.15 -0.65 4.8 -1.35 4.8 -2.8 4.8 -3.05 2.75 L-3.35 -0.7 -3.55 -1.2 -5.6 -3.2 -4.8 -2.65 Q-3.55 -1.65 -2.0 -2.05 -1.65 -2.25 -1.65 -2.7 L-1.7 -3.05" fill="#55860b" fill-rule="evenodd" stroke="none"/>
    <path d="M-2.15 -5.45 L-2.0 -5.5 -1.5 -5.7 -0.45 -6.1 2.0 -6.6 3.8 -6.7 5.05 -6.6 5.1 -6.6 5.5 -6.5 5.95 -6.35 6.25 -5.5 5.9 -5.15 4.8 -4.9 2.7 -5.1 1.15 -4.85 -0.45 -4.6 Q-1.4 -4.6 -1.95 -5.2 L-2.0 -5.25 -2.15 -5.45 M-5.6 -3.2 L-5.6 -3.25 -5.3 -3.75 -4.6 -4.4 -2.7 -3.9 -2.0 -3.35 -1.7 -3.05 -1.65 -2.7 Q-1.65 -2.25 -2.0 -2.05 -3.55 -1.65 -4.8 -2.65 L-5.6 -3.2" fill="#78bd0f" fill-rule="evenodd" stroke="none"/>
    <path d="M5.95 -6.35 L5.5 -6.5 5.1 -6.6 5.05 -6.6 3.8 -6.7 2.0 -6.6 -0.45 -6.1 -1.5 -5.7 -2.0 -5.5 -2.15 -5.45 -2.4 -4.55 Q-2.45 -4.0 -2.0 -3.8 L-0.65 -3.7 2.4 -3.95 4.2 -4.2 Q5.65 -4.2 5.7 -2.15 5.7 -0.1 6.1 -0.1 6.75 -0.1 7.4 -0.75 8.2 -1.55 8.2 -3.0 8.2 -4.25 7.45 -5.25 L5.95 -6.35 M-5.6 -3.25 L-5.3 -3.75 -4.6 -4.4 -2.7 -3.9 -2.0 -3.35 -1.7 -3.05 Q-0.25 -1.35 -0.25 2.55 -0.25 3.7 -0.4 4.15 -0.65 4.8 -1.35 4.8 -2.8 4.8 -3.05 2.75 L-3.35 -0.7 -3.55 -1.2 -5.6 -3.2" fill="none" stroke="#3d0000" stroke-linecap="round" stroke-linejoin="round" stroke-opacity="0.6" stroke-width="1"/>
  </g>
</svg>