<?xml version="1.0" encoding="UTF-8" standalone="no"?>
<svg xmlns:xlink="http://www.w3.org/1999/xlink" height="17.3px" width="21.9px" xmlns="http://www.w3.org/2000/svg">
  <g transform="matrix(1.0, 0.0, 0.0, 1.0, 17.1, 6.2)">
    <path d="M-3.05 -2.95 L-2.7 -2.95 0.9 -2.4 3.5 -0.9 Q1.2 -0.35 0.3 1.8 -0.25 3.15 -1.4 3.35 L-3.1 3.9 -5.15 4.45 -6.5 4.25 -7.5 3.6 Q-8.05 3.1 -9.2 2.5 L-11.0 1.55 -11.65 0.95 -11.85 0.6 -11.75 0.2 -10.95 -0.75 -10.9 -0.75 -9.85 0.0 Q-9.15 0.3 -8.8 -0.45 L-8.75 -0.7 -9.85 -1.3 -9.5 -1.45 -7.25 -1.95 -7.2 -1.8 Q-6.9 -0.4 -6.3 -0.15 L-5.4 -0.25 -6.15 -2.2 Q-5.1 -2.5 -4.1 -2.95 L-4.1 -2.9 -3.4 -2.95 -3.05 -2.95 -4.1 -2.9 -3.05 -2.95 M-1.4 -1.9 L-1.45 -1.95 -2.2 -0.9 -2.85 0.05 -2.55 0.5 Q-1.85 0.75 -1.75 0.5 L-1.4 -1.9 M-5.65 1.9 L-6.0 1.85 -6.95 1.15 Q-7.45 3.35 -6.4 3.75 L-5.65 3.6 -5.25 3.15 Q-5.1 2.85 -5.2 2.35 -5.4 1.95 -5.65 1.9" fill="#78bd0f" fill-rule="evenodd" stroke="none"/>
    <path d="M-0.9 5.75 L-0.4 6.2 0.75 7.2 0.75 7.25 -1.7 6.55 -2.05 6.4 Q-3.0 5.8 -2.7 5.05 L-2.5 4.8 -1.8 4.65 -0.9 5.75 M-5.85 7.25 L-6.9 8.05 -9.45 10.1 -7.15 6.5 -6.85 6.05 Q-6.25 5.35 -5.6 5.65 -4.7 6.0 -4.9 6.45 L-5.85 7.25 M-9.55 4.65 L-11.15 5.0 -13.45 5.3 -16.1 5.75 -13.05 4.35 -11.0 3.45 -10.05 3.1 -9.35 3.25 -9.05 3.5 Q-8.9 3.95 -9.05 4.35 L-9.55 4.65 M-10.95 -0.75 L-13.5 -2.75 -14.5 -4.1 -14.25 -4.0 -13.25 -3.3 -10.55 -1.7 -9.85 -1.3 -8.75 -0.7 -8.8 -0.45 Q-9.15 0.3 -9.85 0.0 L-10.9 -0.75 -10.95 -0.75 M-7.25 -1.95 L-7.7 -5.1 -7.65 -5.15 -6.15 -2.2 -5.4 -0.25 -6.3 -0.15 Q-6.9 -0.4 -7.2 -1.8 L-7.25 -1.95 M-1.4 -1.9 L-1.75 0.5 Q-1.85 0.75 -2.55 0.5 L-2.85 0.05 -2.2 -0.9 -1.45 -1.95 -1.4 -1.9 M-5.65 1.9 Q-5.4 1.95 -5.2 2.35 -5.1 2.85 -5.25 3.15 L-5.65 3.6 -6.4 3.75 Q-7.45 3.35 -6.95 1.15 L-6.0 1.85 -5.65 1.9" fill="#ffffcc" fill-rule="evenodd" stroke="none"/>
    <path d="M3.5 -0.9 L3.8 0.0 Q2.0 1.95 0.9 4.3 L-0.9 5.75 -1.8 4.65 -2.5 4.8 -2.7 5.05 Q-3.0 5.8 -2.05 6.4 L-2.15 6.4 Q-4.8 7.65 -5.85 7.25 L-4.9 6.45 Q-4.7 6.0 -5.6 5.65 -6.25 5.35 -6.85 6.05 L-7.15 6.5 -7.7 6.1 -9.55 4.65 -9.05 4.35 Q-8.9 3.95 -9.05 3.5 L-9.35 3.25 -10.05 3.1 -11.0 3.45 -11.7 2.1 -11.85 1.45 -11.85 0.6 -11.65 0.95 -11.0 1.55 -9.2 2.5 Q-8.05 3.1 -7.5 3.6 L-6.5 4.25 -5.15 4.45 -3.1 3.9 -1.4 3.35 Q-0.25 3.15 0.3 1.8 1.2 -0.35 3.5 -0.9" fill="#55860b" fill-rule="evenodd" stroke="none"/>
    <path d="M-3.05 -2.95 L-2.7 -2.95 0.9 -2.4 3.5 -0.9 3.8 0.0 Q2.0 1.95 0.9 4.3 L-0.9 5.75 M-2.05 6.4 L-2.15 6.4 Q-4.8 7.65 -5.85 7.25 M-7.15 6.5 L-7.7 6.1 -9.55 4.65 M-11.0 3.45 L-11.7 2.1 -11.85 1.45 -11.85 0.6 -11.75 0.2 -10.95 -0.75 M-9.85 -1.3 L-9.5 -1.45 -7.25 -1.95 M-6.15 -2.2 Q-5.1 -2.5 -4.1 -2.95 M-3.05 -2.95 L-4.1 -2.9" fill="none" stroke="#3d0000" stroke-linecap="round" stroke-linejoin="round" stroke-opacity="0.6" stroke-width="1"/>
    <path d="M-0.9 5.75 L-0.4 6.2 0.75 7.2 0.75 7.25 -1.7 6.55 -2.05 6.4 Q-3.0 5.8 -2.7 5.05 L-2.5 4.8 -1.8 4.65 -0.9 5.75 M-5.85 7.25 L-6.9 8.05 -9.45 10.1 -7.15 6.5 -6.85 6.05 Q-6.25 5.35 -5.6 5.65 -4.7 6.0 -4.9 6.45 L-5.85 7.25 M-9.55 4.65 L-11.15 5.0 -13.45 5.3 -16.1 5.75 -13.05 4.35 -11.0 3.45 -10.05 3.1 -9.35 3.25 -9.05 3.5 Q-8.9 3.95 -9.05 4.35 L-9.55 4.65 M-10.95 -0.75 L-13.5 -2.75 -14.5 -4.1 -14.25 -4.0 -13.25 -3.3 -10.55 -1.7 -9.85 -1.3 -8.75 -0.7 -8.8 -0.45 Q-9.15 0.3 -9.85 0.0 L-10.9 -0.75 -10.95 -0.75 M-7.25 -1.95 L-7.7 -5.1 -7.7 -5.2 -7.65 -5.15 -6.15 -2.2 -5.4 -0.25 -6.3 -0.15 Q-6.9 -0.4 -7.2 -1.8 L-7.25 -1.95 M-1.4 -1.9 L-1.75 0.5 Q-1.85 0.75 -2.55 0.5 L-2.85 0.05 -2.2 -0.9 -1.45 -1.95 -1.4 -1.9 M-5.65 1.9 L-6.0 1.85 -6.95 1.15 Q-7.45 3.35 -6.4 3.75 L-5.65 3.6 -5.25 3.15 Q-5.1 2.85 -5.2 2.35 -5.4 1.95 -5.65 1.9 Z" fill="none" stroke="#5c6130" stroke-linecap="round" stroke-linejoin="round" stroke-opacity="0.49803922" stroke-width="1"/>
  </g>
</svg>