<?xml version="1.0" encoding="UTF-8" standalone="no"?>
<svg xmlns:xlink="http://www.w3.org/1999/xlink" height="32px" width="45.55px" xmlns="http://www.w3.org/2000/svg">
  <g transform="matrix(1.0, 0.0, 0.0, 1.0, 9.4, 22.15)">
    <path d="M35.15 -0.35 L34.85 1.0 34.85 1.05 34.8 1.1 34.65 1.8 Q33.5 6.0 26.95 7.5 L23.9 8.0 7.45 8.8 Q0.35 8.55 -4.0 6.5 -7.7 4.75 -8.35 1.15 L-8.3 -1.1 -5.55 -0.4 0.8 0.0 26.55 -0.1 27.6 -0.15 30.95 -0.15 35.15 -0.35" fill="#271818" fill-rule="evenodd" stroke="none"/>
    <path d="M-8.3 -1.1 L-8.25 -1.35 -7.4 -4.1 Q-6.7 -5.45 -5.55 -6.45 -4.55 -7.3 -3.25 -7.6 L2.8 -8.9 12.0 -8.8 20.3 -8.55 26.95 -7.6 28.25 -7.3 32.15 -5.9 Q32.95 -5.6 33.55 -4.9 L34.5 -3.5 Q35.0 -2.45 35.15 -0.35 L30.95 -0.15 27.6 -0.15 26.55 -0.1 0.8 0.0 -5.55 -0.4 -8.3 -1.1" fill="#583f3f" fill-rule="evenodd" stroke="none"/>
    <path d="M-8.3 -1.1 L-8.25 -1.35 -7.4 -4.1 Q-6.7 -5.45 -5.55 -6.45 -4.55 -7.3 -3.25 -7.6 L2.8 -8.9 12.0 -8.8 20.3 -8.55 26.95 -7.6 M26.95 7.5 L23.9 8.0 7.45 8.8 Q0.35 8.55 -4.0 6.5 -7.7 4.75 -8.35 1.15 L-8.3 -1.1" fill="none" stroke="#000000" stroke-linecap="round" stroke-linejoin="round" stroke-width="1"/>
    <path d="M-4.45 -6.65 Q-3.9 -8.9 -0.15 -13.15 4.2 -18.25 6.7 -18.35 L6.95 -18.6 Q2.15 -12.6 1.35 -10.25 4.95 -14.2 11.7 -17.6 17.4 -20.5 20.95 -21.15 20.25 -20.7 15.5 -15.95 L10.45 -10.75 23.4 -16.35 Q31.45 -19.75 32.25 -19.75 L33.1 -19.75 Q30.75 -18.45 27.1 -14.8 23.65 -11.3 23.2 -10.1 24.15 -9.85 29.2 -12.9 34.1 -15.85 34.5 -16.6 L34.7 -16.6 Q32.25 -11.95 30.65 -10.05 28.5 -7.6 26.1 -7.6 19.0 -6.05 16.2 -7.15 L10.0 -7.45 6.0 -6.65 4.3 -7.1 1.6 -7.6 -1.55 -7.15 -4.45 -6.65 M10.45 -10.75 L10.1 -10.6 10.35 -10.6 10.45 -10.75 M1.35 -10.25 L0.95 -9.85 1.2 -9.85 1.35 -10.25" fill="#bdb6b6" fill-rule="evenodd" stroke="none"/>
    <path d="M-4.45 -6.65 L-4.55 -6.2 M-4.45 -6.65 L-4.8 -6.65 -4.8 -7.1" fill="none" stroke="#330000" stroke-linecap="round" stroke-linejoin="round" stroke-opacity="0.8" stroke-width="1"/>
    <path d="M-4.45 -6.65 Q-3.9 -8.9 -0.15 -13.15 4.2 -18.25 6.7 -18.35 L6.95 -18.6 Q2.15 -12.6 1.35 -10.25 4.95 -14.2 11.7 -17.6 17.4 -20.5 20.95 -21.15 20.25 -20.7 15.5 -15.95 L10.45 -10.75 23.4 -16.35 Q31.45 -19.75 32.25 -19.75 L33.1 -19.75 Q30.75 -18.45 27.1 -14.8 23.65 -11.3 23.2 -10.1 24.15 -9.85 29.2 -12.9 34.1 -15.85 34.5 -16.6 L34.7 -16.6 Q32.25 -11.95 30.65 -10.05 28.5 -7.6 26.1 -7.6 M1.35 -10.25 L1.2 -9.85 0.95 -9.85 1.35 -10.25 M10.45 -10.75 L10.35 -10.6 10.1 -10.6 10.45 -10.75 Z" fill="none" stroke="#330000" stroke-linecap="round" stroke-linejoin="round" stroke-opacity="0.4" stroke-width="1"/>
  </g>
</svg>