<?xml version="1.0" encoding="UTF-8" standalone="no"?>
<svg xmlns:xlink="http://www.w3.org/1999/xlink" height="18.85px" width="12.5px" xmlns="http://www.w3.org/2000/svg">
  <g transform="matrix(1.0, 0.0, 0.0, 1.0, 1.75, 4.95)">
    <path d="M8.8 12.1 L8.75 12.15 8.8 11.7 8.8 12.1 M0.9 4.0 L0.85 3.65 0.85 3.6 0.9 4.0" fill="#435758" fill-rule="evenodd" stroke="none"/>
    <path d="M7.65 5.3 L7.45 4.7 Q6.35 2.1 5.05 0.35 L5.15 0.45 6.7 2.8 7.6 4.95 7.65 5.3" fill="#60797b" fill-rule="evenodd" stroke="none"/>
    <path d="M8.8 12.1 Q10.05 8.4 8.55 3.95 7.45 0.5 5.85 -1.0 L3.4 -2.65 2.85 -3.15 3.4 -3.75 4.3 -3.65 5.1 -3.3 6.5 -2.15 6.55 -2.2 6.7 -2.05 Q9.55 0.4 9.75 6.0 9.9 10.9 8.65 12.9 L8.8 12.1 M4.55 0.5 L4.55 0.7 4.5 0.85 Q4.25 3.35 3.7 4.6 L1.15 9.35 0.75 10.0 Q1.55 7.95 2.0 5.35 L2.5 2.6 Q2.6 1.3 3.8 0.7 L4.55 0.5" fill="#832b2b" fill-rule="evenodd" stroke="none"/>
    <path d="M4.3 -3.65 L3.4 -3.75 2.85 -3.15 3.4 -2.65 5.85 -1.0 Q7.45 0.5 8.55 3.95 10.05 8.4 8.8 12.1 L8.8 11.7 8.8 11.65 8.7 8.85 8.6 8.7 7.65 5.3 7.6 4.95 6.7 2.8 5.15 0.45 5.05 0.35 4.95 0.2 4.85 0.15 4.55 0.5 3.8 0.7 Q2.6 1.3 2.5 2.6 L2.0 5.35 Q1.55 7.95 0.75 10.0 L-0.65 12.0 -0.75 11.95 -0.45 11.1 0.15 9.3 0.65 7.5 0.85 5.45 0.85 5.35 0.9 4.4 0.9 4.0 0.85 3.6 0.85 2.85 0.6 1.75 0.5 1.0 0.5 0.15 0.8 -0.25 Q0.5 -1.85 1.5 -3.25 1.8 -3.7 2.45 -3.8 L3.6 -3.95 4.3 -3.65 M1.4 -0.95 L0.8 -0.25 1.4 -0.95" fill="#4f1414" fill-rule="evenodd" stroke="none"/>
    <path d="M0.8 -0.25 L1.4 -0.95 M6.5 -2.15 L6.55 -2.2 6.7 -2.05 Q9.55 0.4 9.75 6.0 9.9 10.9 8.65 12.9 L8.8 12.1 8.8 11.7 8.8 11.65 8.7 8.85 8.6 8.7 7.65 5.3 7.45 4.7 Q6.35 2.1 5.05 0.35 L4.95 0.2 4.85 0.15 4.55 0.5 4.55 0.7 4.5 0.85 Q4.25 3.35 3.7 4.6 L1.15 9.35 0.75 10.0 -0.65 12.0 -0.75 11.95 -0.45 11.1 0.15 9.3 0.65 7.5 0.85 5.45 0.85 5.35 0.9 4.4 0.9 4.0 0.85 3.6 0.85 2.85 0.6 1.75 0.5 1.0 0.5 0.15 0.8 -0.25" fill="none" stroke="#000000" stroke-linecap="round" stroke-linejoin="round" stroke-width="1"/>
  </g>
</svg>