<?xml version="1.0" encoding="UTF-8" standalone="no"?>
<svg xmlns:xlink="http://www.w3.org/1999/xlink" height="21px" width="17.25px" xmlns="http://www.w3.org/2000/svg">
  <g transform="matrix(1.0, 0.0, 0.0, 1.0, 3.45, 5.4)">
    <path d="M7.9 3.15 L7.35 2.6 Q4.85 0.3 2.6 -0.9 L2.65 -0.9 2.75 -0.85 5.65 0.95 7.6 2.8 7.9 3.15" fill="#60797b" fill-rule="evenodd" stroke="none"/>
    <path d="M0.1 5.55 L-0.3 4.75 -0.3 4.7 0.1 5.55 M12.5 10.0 L12.5 10.05 12.3 9.55 12.5 10.0" fill="#435758" fill-rule="evenodd" stroke="none"/>
    <path d="M2.7 11.7 L2.15 14.6 2.05 14.6 2.0 13.5 1.7 11.25 1.35 9.05 0.6 6.7 0.55 6.6 0.1 5.55 -0.3 4.7 -0.75 3.9 -1.55 2.8 -2.45 1.15 -2.0 -0.5 Q-1.5 -1.6 -1.0 -1.6 0.05 -2.1 0.8 -2.55 L0.85 -2.55 1.55 -3.0 Q4.6 -2.8 8.25 1.25 12.0 5.4 12.5 10.0 L12.3 9.55 10.75 6.5 10.6 6.35 Q9.5 4.65 7.9 3.15 L7.6 2.8 5.65 0.95 2.75 -0.85 2.65 -0.9 2.6 -0.9 2.1 -1.15 2.1 -0.55 2.15 -0.5 1.8 -0.3 Q0.7 0.5 0.7 1.45 0.7 2.15 1.75 6.05 2.55 9.1 2.7 11.7" fill="#4f1414" fill-rule="evenodd" stroke="none"/>
    <path d="M2.15 -0.5 L2.25 -0.1 Q3.25 2.7 3.25 4.35 3.25 8.0 2.85 10.8 L2.7 11.7 Q2.55 9.1 1.75 6.05 0.7 2.15 0.7 1.45 0.7 0.5 1.8 -0.3 L2.15 -0.5 M0.8 -2.55 L2.95 -4.4 Q7.4 -3.25 10.55 2.9 13.15 8.15 12.75 10.9 L12.5 10.0 Q12.0 5.4 8.25 1.25 4.6 -2.8 1.55 -3.0 L0.85 -2.55 0.8 -2.55" fill="#832b2b" fill-rule="evenodd" stroke="none"/>
    <path d="M2.15 -0.5 L2.25 -0.1 Q3.25 2.7 3.25 4.35 3.25 8.0 2.85 10.8 L2.7 11.7 2.15 14.6 2.05 14.6 2.0 13.5 1.7 11.25 1.35 9.05 0.6 6.7 0.55 6.6 0.1 5.55 -0.3 4.7 -0.75 3.9 -1.55 2.8 -2.45 1.15 -2.0 -0.5 Q-1.5 -1.6 -1.0 -1.6 0.05 -2.1 0.8 -2.55 L2.95 -4.4 Q7.4 -3.25 10.55 2.9 13.15 8.15 12.75 10.9 L12.5 10.0 12.3 9.55 10.75 6.5 10.6 6.35 Q9.5 4.65 7.9 3.15 L7.35 2.6 Q4.85 0.3 2.6 -0.9 L2.1 -1.15 2.1 -0.55 2.15 -0.5 Z" fill="none" stroke="#000000" stroke-linecap="round" stroke-linejoin="round" stroke-width="1"/>
  </g>
</svg>