<?xml version="1.0" encoding="UTF-8" standalone="no"?>
<svg xmlns:xlink="http://www.w3.org/1999/xlink" height="19.15px" width="37.2px" xmlns="http://www.w3.org/2000/svg">
  <g transform="matrix(1.0, 0.0, 0.0, 1.0, 18.6, 9.6)">
    <path d="M1.8 -3.1 Q1.75 -3.75 1.05 -3.65 L-1.25 -3.75 Q-2.15 -3.65 -2.5 -3.05 -1.9 -1.8 -0.25 -1.75 0.45 -1.7 0.95 -2.15 L1.1 -2.6 1.6 -2.65 1.7 -2.8 1.8 -3.1 M9.3 -3.7 L11.2 -3.8 Q12.7 -4.1 13.55 -3.05 L13.5 -2.85 13.2 -2.45 12.8 -2.15 12.3 -2.05 11.75 -1.85 11.5 -1.6 11.3 -1.25 11.35 -0.9 Q11.6 -0.65 11.95 -0.6 L15.4 0.35 Q16.95 0.15 17.6 1.4 17.35 2.1 16.7 2.25 L15.55 2.55 10.2 3.45 7.25 4.3 3.05 5.95 0.35 7.05 Q-4.75 9.1 -10.1 8.35 L-12.85 7.55 Q-15.0 6.75 -16.4 4.9 -17.65 3.3 -17.6 1.15 -17.5 -1.85 -15.8 -4.2 -14.55 -5.95 -12.9 -6.85 L-10.45 -8.0 -7.75 -8.6 -5.0 -8.3 -2.8 -7.65 1.2 -6.35 Q2.95 -5.55 4.8 -4.9 L7.65 -4.2 9.3 -3.7 M10.75 2.2 L11.5 2.0 Q10.0 0.7 7.9 0.55 6.55 -1.6 4.05 -1.8 L-1.15 -0.5 -2.75 -0.05 Q-5.4 -1.7 -8.25 -2.5 L-7.65 -3.45 -8.35 -4.6 Q-11.0 -5.0 -13.4 -4.05 -14.25 -3.65 -14.15 -2.65 L-13.85 -1.9 Q-14.45 -1.9 -14.85 -1.2 L-15.3 0.45 Q-15.7 2.3 -14.65 3.95 L-14.55 4.2 -14.75 4.8 Q-14.35 6.1 -13.1 6.55 L-11.25 7.3 -8.8 7.6 Q-7.3 7.5 -6.15 6.75 -4.35 5.65 -2.4 5.75 -1.4 5.9 -1.25 5.2 L-1.3 5.05 0.7 4.25 1.15 4.2 8.2 2.85 9.8 2.8 Q10.55 2.8 10.75 2.2" fill="#c6f358" fill-rule="evenodd" stroke="none"/>
    <path d="M1.8 -3.1 L1.7 -2.8 1.6 -2.65 1.1 -2.6 0.95 -2.15 Q0.45 -1.7 -0.25 -1.75 -1.9 -1.8 -2.5 -3.05 -2.15 -3.65 -1.25 -3.75 L1.05 -3.65 Q1.75 -3.75 1.8 -3.1 M-8.25 -2.5 Q-9.15 -1.9 -10.05 -1.65 L-13.85 -1.9 -14.15 -2.65 Q-14.25 -3.65 -13.4 -4.05 -11.0 -5.0 -8.35 -4.6 L-7.65 -3.45 -8.25 -2.5" fill="#ffffff" fill-rule="evenodd" stroke="none"/>
    <path d="M-8.25 -2.5 Q-5.4 -1.7 -2.75 -0.05 L-1.15 -0.5 4.05 -1.8 Q6.55 -1.6 7.9 0.55 10.0 0.7 11.5 2.0 L10.75 2.2 8.4 1.75 Q6.6 1.35 4.9 1.8 3.25 2.25 1.6 2.95 0.7 3.4 0.7 4.25 L-1.3 5.05 -6.1 4.8 -6.55 4.5 -9.15 4.75 Q-11.1 5.05 -12.55 3.9 -13.8 2.9 -14.4 1.4 L-15.0 0.2 -15.15 0.2 -15.3 0.45 -14.85 -1.2 Q-14.45 -1.9 -13.85 -1.9 L-10.05 -1.65 Q-9.15 -1.9 -8.25 -2.5" fill="#8fc70e" fill-rule="evenodd" stroke="none"/>
    <path d="M-15.3 0.45 L-15.15 0.2 -15.0 0.2 -14.4 1.4 Q-13.8 2.9 -12.55 3.9 -11.1 5.05 -9.15 4.75 L-6.55 4.5 -6.1 4.8 -1.3 5.05 -1.25 5.2 Q-1.4 5.9 -2.4 5.75 -4.35 5.65 -6.15 6.75 -7.3 7.5 -8.8 7.6 L-11.25 7.3 -13.1 6.55 Q-14.35 6.1 -14.75 4.8 L-14.55 4.2 -14.65 3.95 Q-15.7 2.3 -15.3 0.45 M0.7 4.25 Q0.7 3.4 1.6 2.95 3.25 2.25 4.9 1.8 6.6 1.35 8.4 1.75 L10.75 2.2 Q10.55 2.8 9.8 2.8 L8.2 2.85 1.15 4.2 0.7 4.25" fill="#ffff00" fill-rule="evenodd" stroke="none"/>
    <path d="M9.3 -3.7 L11.2 -3.8 Q12.7 -4.1 13.55 -3.05 L13.5 -2.85 13.2 -2.45 12.8 -2.15 12.3 -2.05 11.75 -1.85 11.5 -1.6 11.3 -1.25 11.35 -0.9 Q11.6 -0.65 11.95 -0.6 L15.4 0.35 Q16.95 0.15 17.6 1.4 17.35 2.1 16.7 2.25 L15.55 2.55 10.2 3.45 7.25 4.3 3.05 5.95 0.35 7.05 Q-4.75 9.1 -10.1 8.35 L-12.85 7.55 Q-15.0 6.75 -16.4 4.9 -17.65 3.3 -17.6 1.15 -17.5 -1.85 -15.8 -4.2 -14.55 -5.95 -12.9 -6.85 L-10.45 -8.0 -7.75 -8.6 -5.0 -8.3 -2.8 -7.65 1.2 -6.35 Q2.95 -5.55 4.8 -4.9 L7.65 -4.2 9.3 -3.7 Z" fill="none" stroke="#666600" stroke-linecap="round" stroke-linejoin="round" stroke-opacity="0.6" stroke-width="1"/>
  </g>
</svg>