<?xml version="1.0" encoding="UTF-8" standalone="no"?>
<svg xmlns:xlink="http://www.w3.org/1999/xlink" height="7.3px" width="4px" xmlns="http://www.w3.org/2000/svg">
  <g id="shape0" transform="matrix(1.0, 0.0, 0.0, 1.0, 2, 3.65)">
    <path d="M0.5 -1.9 L0.4 -1.6 0.45 -1.35 0.4 -1.25 0.8 0.25 0.95 1.7 0.85 2.05 0.7 2.55 Q0.1 2.8 -0.35 2.3 L-0.7 1.7 Q-1.2 0.7 -0.8 -0.4 -0.4 -1.35 -0.4 -2.3 L-0.4 -2.65 0.5 -1.9 M0.45 0.2 L0.55 -0.05 0.25 -0.6 0.2 -0.55 0.0 -1.15 -0.1 -1.15 -0.25 0.05 -0.35 -0.05 -0.6 1.0 -0.45 1.7 -0.1 1.9 0.2 1.8 0.25 1.8 0.4 1.7 0.55 0.85 0.45 0.2" fill="#c6f358" fill-rule="evenodd" stroke="none"/>
    <path d="M0.2 -0.55 L0.0 -0.15 Q0.0 0.2 0.3 0.2 L0.45 0.2 0.55 0.85 0.4 1.7 0.25 1.8 0.25 1.7 Q-0.1 1.45 -0.1 0.8 -0.05 0.3 -0.25 0.05 L-0.1 -1.15 0.0 -1.15 0.2 -0.55" fill="#8fc70e" fill-rule="evenodd" stroke="none"/>
    <path d="M0.45 0.2 L0.3 0.2 Q0.0 0.2 0.0 -0.15 L0.2 -0.55 0.25 -0.6 0.55 -0.05 0.45 0.2" fill="#ffffff" fill-rule="evenodd" stroke="none"/>
    <path d="M-0.25 0.05 Q-0.05 0.3 -0.1 0.8 -0.1 1.45 0.25 1.7 L0.25 1.8 0.2 1.8 -0.1 1.9 -0.45 1.7 -0.6 1.0 -0.35 -0.05 -0.25 0.05" fill="#ffff00" fill-rule="evenodd" stroke="none"/>
    <path d="M0.5 -1.9 L0.4 -1.6 0.45 -1.35 0.4 -1.25 0.8 0.25 0.95 1.7 M-0.7 1.7 Q-1.2 0.7 -0.8 -0.4 -0.4 -1.35 -0.4 -2.3 L-0.4 -2.65" fill="none" stroke="#660000" stroke-linecap="round" stroke-linejoin="round" stroke-opacity="0.29803923" stroke-width="1"/>
    <path d="M0.95 1.7 L0.85 2.05 0.7 2.55 Q0.1 2.8 -0.35 2.3 L-0.7 1.7" fill="none" stroke="#660000" stroke-linecap="round" stroke-linejoin="round" stroke-opacity="0.08627451" stroke-width="1"/>
  </g>
</svg>