<?xml version="1.0" encoding="UTF-8" standalone="no"?>
<svg xmlns:xlink="http://www.w3.org/1999/xlink" height="9.6px" width="24.35px" xmlns="http://www.w3.org/2000/svg">
  <g transform="matrix(1.0, 0.0, 0.0, 1.0, 9.5, 17.45)">
    <path d="M13.4 -15.55 Q12.95 -15.55 12.95 -16.0 12.95 -16.45 13.4 -16.45 13.85 -16.45 13.85 -16.05 13.85 -15.55 13.4 -15.55 M8.6 -9.85 L8.55 -9.25 7.85 -8.85 Q6.7 -8.85 6.7 -10.1 6.7 -11.0 7.75 -11.0 8.75 -11.0 8.6 -9.85 M-6.2 -14.3 Q-6.7 -13.65 -7.3 -13.65 -8.7 -13.65 -8.45 -14.65 -8.45 -15.8 -7.1 -16.1 -5.75 -16.35 -5.75 -15.3 -5.75 -14.85 -6.2 -14.3" fill="#c6f358" fill-rule="evenodd" stroke="none"/>
  </g>
</svg>