<?xml version="1.0" encoding="UTF-8" standalone="no"?>
<svg xmlns:xlink="http://www.w3.org/1999/xlink" height="16.2px" width="80.55px" xmlns="http://www.w3.org/2000/svg">
  <g transform="matrix(1.0, 0.0, 0.0, 1.0, 35.15, -2.1)">
    <path d="M44.3 14.1 L44.4 14.2 Q44.4 14.7 43.95 14.9 L43.6 15.05 Q43.05 15.2 42.65 14.75 L42.55 14.65 42.55 14.4 42.55 14.0 42.65 13.9 42.9 13.65 43.1 13.55 43.3 13.5 43.35 13.5 Q43.95 13.6 44.3 14.1 M29.65 8.3 L29.9 8.4 30.05 8.65 30.2 9.05 30.15 9.4 29.95 9.8 29.75 9.9 29.55 10.0 28.7 9.85 28.6 9.7 28.4 9.45 Q28.3 9.05 28.5 8.7 L28.85 8.3 29.05 8.25 29.3 8.2 29.65 8.3 M12.3 9.2 L12.65 9.45 12.75 9.55 Q12.3 10.65 12.0 11.8 L11.95 12.05 13.0 9.9 13.1 9.8 Q13.65 10.1 13.3 10.75 L13.3 10.85 14.2 10.9 13.55 12.15 13.5 12.25 Q15.2 10.5 17.3 10.4 L17.4 10.7 17.4 10.95 16.2 12.2 16.85 12.05 17.8 12.3 Q16.5 14.0 14.1 14.85 L18.5 14.45 17.75 14.95 Q19.6 14.45 20.85 15.3 18.9 16.25 16.4 16.4 L16.15 16.6 16.05 16.7 Q14.9 17.2 14.05 16.7 L12.0 16.55 10.15 17.15 Q9.3 17.05 9.1 16.3 9.15 15.85 9.6 15.7 10.5 12.05 12.3 9.25 L12.3 9.2 M-8.0 8.7 L-7.8 8.8 Q-6.8 12.4 -6.05 15.95 -5.25 15.75 -4.75 16.35 L-4.7 16.45 -4.7 16.55 -4.8 16.8 -4.9 16.95 -8.25 17.15 -8.75 17.15 -10.1 16.9 -11.2 16.85 -11.3 16.95 -11.4 17.1 Q-12.95 17.3 -14.45 16.7 L-15.35 16.05 -16.1 15.7 -16.25 15.6 Q-16.1 15.1 -15.5 14.95 L-15.0 14.8 -11.55 15.35 -13.15 13.75 Q-12.45 13.35 -11.7 14.15 L-11.35 13.7 -11.1 13.65 -12.35 12.55 -12.4 12.4 -12.35 12.05 Q-13.05 10.85 -13.05 9.5 L-13.0 9.25 Q-12.65 8.85 -12.2 9.1 L-9.85 12.15 -10.05 11.2 -10.0 10.8 Q-9.6 10.45 -9.1 10.4 L-9.0 9.25 -8.85 8.85 -8.5 8.7 -8.3 8.6 -8.0 8.7 M-15.7 10.7 Q-16.5 12.5 -18.45 11.4 L-18.65 10.9 -18.6 10.4 Q-18.05 9.6 -17.05 9.75 -16.05 9.75 -15.75 10.6 L-15.7 10.7 M-27.95 3.6 L-27.6 3.2 -27.35 3.15 -27.1 3.1 -26.8 3.2 -26.5 3.3 -26.35 3.55 -26.2 3.95 -26.25 4.3 -26.5 4.7 -26.65 4.8 -26.85 4.9 -27.7 4.75 -27.8 4.6 -28.0 4.35 -27.95 3.6 M-32.85 12.1 L-32.6 12.2 -32.4 12.45 -32.2 12.85 -32.3 13.35 -32.6 13.7 -33.95 13.6 -34.15 13.1 -34.1 12.55 Q-33.8 12.0 -33.2 12.0 L-32.85 12.1" fill="#ffff00" fill-rule="evenodd" stroke="none"/>
  </g>
</svg>