<?xml version="1.0" encoding="UTF-8" standalone="no"?>
<svg xmlns:xlink="http://www.w3.org/1999/xlink" height="40.45px" width="64.75px" xmlns="http://www.w3.org/2000/svg">
  <g transform="matrix(1.0, 0.0, 0.0, 1.0, 32.4, 20.2)">
    <path d="M-15.75 -12.4 Q-15.75 -11.8 -16.15 -11.15 -16.75 -10.15 -18.0 -10.15 -19.3 -10.15 -19.85 -11.1 L-20.2 -12.35 Q-20.2 -14.55 -17.95 -14.6 -15.75 -14.65 -15.75 -12.4 M-3.3 -3.0 Q-2.25 -4.75 -2.25 -5.4 L-2.35 -6.0 -2.5 -6.2 Q-4.05 -6.2 -5.05 -4.05 L-5.7 -1.85 Q-5.7 -1.3 -5.35 -1.2 L-4.7 -1.15 Q-4.3 -1.35 -3.3 -3.0 M-1.3 -6.85 Q-1.3 -6.0 -2.45 -2.55 -3.7 1.25 -4.45 1.25 -5.85 1.25 -6.95 -1.85 -6.95 -5.2 -4.1 -7.85 -1.3 -10.5 -1.3 -6.85 M27.5 -16.15 Q27.25 -16.65 27.25 -17.25 27.25 -19.2 29.3 -19.2 31.35 -19.2 31.35 -17.2 31.35 -16.45 30.75 -15.8 30.1 -15.15 29.3 -15.15 28.0 -15.15 27.5 -16.15 M16.55 14.65 Q16.55 17.4 14.65 17.4 13.05 17.4 12.45 15.75 L12.2 14.25 Q12.2 9.35 14.4 9.2 16.55 9.1 16.55 14.65 M-27.7 16.8 Q-27.7 17.4 -28.2 18.25 -28.85 19.25 -29.65 19.25 -30.75 19.25 -31.2 18.4 L-31.4 17.45 Q-31.4 15.2 -29.55 15.1 -27.7 15.05 -27.7 16.8" fill="#ffec00" fill-rule="evenodd" stroke="none"/>
    <path d="M-3.3 -3.0 Q-4.3 -1.35 -4.7 -1.15 L-5.35 -1.2 Q-5.7 -1.3 -5.7 -1.85 L-5.05 -4.05 Q-4.05 -6.2 -2.5 -6.2 L-2.35 -6.0 -2.25 -5.4 Q-2.25 -4.75 -3.3 -3.0" fill="#ff9400" fill-rule="evenodd" stroke="none"/>
  </g>
</svg>