<?xml version="1.0" encoding="UTF-8" standalone="no"?>
<svg xmlns:xlink="http://www.w3.org/1999/xlink" height="13.95px" width="52.9px" xmlns="http://www.w3.org/2000/svg">
  <g transform="matrix(1.0, 0.0, 0.0, 1.0, 24.25, -4.5)">
    <path d="M20.8 14.6 Q18.6 15.35 16.75 16.05 L16.55 16.0 16.3 16.0 16.2 16.1 16.05 16.25 Q13.25 16.45 10.7 16.25 9.85 16.4 9.45 15.75 9.45 14.95 9.9 14.2 L9.95 14.1 Q10.1 10.7 11.15 7.25 L11.1 6.9 11.65 7.2 11.7 7.3 11.2 10.75 Q12.0 8.1 13.5 6.05 14.25 6.55 13.7 7.55 L13.6 7.65 13.65 7.8 13.7 8.05 Q12.95 9.8 12.45 11.7 L12.4 11.95 16.85 6.7 Q17.45 6.6 17.6 7.15 16.3 10.0 14.05 12.35 16.8 10.2 19.75 8.9 L19.95 9.3 19.95 9.4 16.05 13.1 Q17.1 12.8 17.75 13.5 19.5 13.25 21.0 13.95 L21.0 14.35 20.8 14.6 M25.65 5.85 Q26.05 5.5 26.45 5.5 27.35 5.6 27.6 6.4 L27.65 6.5 Q26.95 8.85 25.55 6.85 25.15 6.35 25.65 5.85 M-7.85 6.45 L-7.65 6.55 Q-7.15 10.85 -5.45 14.9 L-5.4 15.15 -5.5 15.55 -5.7 15.8 -6.6 15.95 -6.8 16.45 -7.0 16.7 -7.9 16.35 -8.0 16.4 -8.25 16.5 -9.1 16.1 -8.3 16.95 -8.3 17.05 -8.6 17.35 -8.7 17.4 -8.65 17.4 -8.7 17.4 -8.9 17.45 -9.05 17.35 -10.2 17.25 Q-12.65 17.1 -15.25 15.85 L-18.25 13.9 -17.75 13.5 -17.45 13.4 -12.0 15.2 Q-13.8 13.55 -15.0 11.3 L-15.05 11.2 -14.9 10.6 -14.65 10.4 -11.45 13.65 -11.85 12.6 -11.3 12.2 -11.3 12.15 -10.95 12.55 -12.1 10.25 -12.25 9.55 Q-12.35 9.25 -12.1 9.2 L-11.35 9.85 -11.35 9.8 Q-11.2 9.35 -10.7 9.5 L-10.7 9.45 -10.75 8.3 -10.55 7.95 Q-10.25 7.6 -9.8 7.8 -8.95 8.45 -8.7 9.45 L-8.65 9.5 -8.85 7.15 -8.8 6.65 Q-8.6 6.3 -8.25 6.3 L-7.85 6.45 M-10.1 16.95 L-9.5 17.1 -9.9 16.85 -10.1 16.95 M-21.05 10.15 L-21.05 10.25 Q-22.9 12.4 -23.25 9.7 -23.35 8.8 -22.4 8.75 -21.2 8.95 -21.05 10.15" fill="#ffff00" fill-rule="evenodd" stroke="none"/>
  </g>
</svg>