<?xml version="1.0" encoding="UTF-8" standalone="no"?>
<svg xmlns:xlink="http://www.w3.org/1999/xlink" height="27.15px" width="16.85px" xmlns="http://www.w3.org/2000/svg">
  <g transform="matrix(1.0, 0.0, 0.0, 1.0, 8.75, 11.3)">
    <path d="M5.3 -8.7 L5.85 -1.05 6.0 -0.5 5.85 -1.65 5.95 -1.7 Q7.55 5.0 6.9 12.05 L6.8 12.1 6.05 0.4 5.9 0.1 5.95 6.7 5.9 6.8 Q5.35 2.85 5.2 -1.25 4.6 -2.75 4.5 -4.6 4.3 -7.4 3.6 -9.6 L3.8 -10.0 3.95 -10.05 4.65 -6.7 4.05 -10.3 5.15 -6.5 5.2 -8.65 5.3 -8.7 M2.15 -10.15 Q4.05 -5.3 5.2 -0.15 L5.15 -0.1 4.2 -2.65 Q5.05 1.9 5.0 6.6 4.85 1.5 3.9 -3.55 2.85 -6.75 2.05 -10.1 L2.15 -10.15 M2.05 -10.05 Q3.3 -3.4 4.05 3.3 L4.05 3.4 3.65 2.75 4.4 9.45 Q4.65 11.85 4.1 13.9 4.05 8.1 3.45 2.35 3.1 1.5 3.0 0.45 L2.3 -6.15 2.0 -8.1 2.2 -7.0 1.95 -9.1 Q1.65 -9.7 1.95 -10.05 L2.05 -10.05 M0.2 -7.7 Q2.5 -1.55 3.15 5.05 L3.05 2.15 Q3.05 2.05 3.15 2.1 L3.35 7.4 3.4 8.8 3.4 8.95 3.3 9.2 3.2 11.1 3.2 11.15 2.85 14.8 2.8 14.85 3.1 11.1 2.9 9.75 2.9 9.5 2.65 9.15 Q2.1 0.95 0.15 -7.05 0.05 -7.3 -0.05 -7.05 -0.35 -6.7 -0.45 -7.05 L0.1 -7.65 0.2 -7.7 M1.35 4.85 Q0.4 -2.4 -1.45 -9.45 L-1.3 -9.5 Q1.05 -2.6 1.4 4.8 L1.35 4.85 M0.2 4.9 Q-0.05 6.05 -0.05 7.3 L-0.15 7.45 -0.3 6.6 Q-0.1 9.2 -0.35 11.9 L-0.4 12.05 Q-0.65 6.95 -1.25 1.75 -2.35 -2.95 -3.9 -7.7 L-4.0 -7.9 Q-4.55 -8.25 -4.0 -8.3 L-3.65 -8.25 -3.5 -8.25 Q-1.1 -1.9 0.2 4.65 L0.2 4.9 M-4.75 -9.1 L-3.6 -4.1 -3.55 -4.0 Q-1.45 0.25 -1.6 4.85 L-1.65 4.95 Q-2.05 5.15 -2.2 4.75 L-2.95 1.1 -4.9 -3.45 -3.2 2.8 -3.2 2.95 Q-5.0 -1.55 -6.2 -6.45 L-7.75 -10.1 -7.65 -10.1 -7.4 -10.05 -7.2 -10.0 Q-5.25 -6.45 -3.7 -2.75 L-4.95 -9.0 -4.75 -9.1" fill="#ffffff" fill-rule="evenodd" stroke="none"/>
  </g>
</svg>