<?xml version="1.0" encoding="UTF-8" standalone="no"?>
<svg xmlns:xlink="http://www.w3.org/1999/xlink" height="32.45px" width="41.05px" xmlns="http://www.w3.org/2000/svg">
  <g transform="matrix(1.0, 0.0, 0.0, 1.0, 134.6, -2.85)">
    <path d="M-116.1 22.65 Q-117.65 22.65 -118.3 20.7 L-118.65 18.75 Q-118.65 16.35 -116.4 15.65 -114.15 14.95 -114.15 16.7 -114.15 18.35 -114.5 20.05 -115.05 22.65 -116.1 22.65 M-96.45 34.3 Q-97.85 34.3 -98.25 33.25 L-98.35 32.1 Q-98.35 29.2 -96.45 29.25 -94.55 29.3 -94.55 31.75 -94.55 34.3 -96.45 34.3 M-130.65 6.65 Q-131.15 7.25 -131.85 7.25 -133.1 7.25 -133.45 6.35 L-133.6 5.5 Q-133.6 3.9 -131.9 3.85 -130.2 3.85 -130.2 5.5 -130.2 6.1 -130.65 6.65" fill="#ffec00" fill-rule="evenodd" stroke="none"/>
  </g>
</svg>