<?xml version="1.0" encoding="UTF-8" standalone="no"?>
<svg xmlns:xlink="http://www.w3.org/1999/xlink" height="12.75px" width="83.25px" xmlns="http://www.w3.org/2000/svg">
  <g transform="matrix(1.0, 0.0, 0.0, 1.0, 44.7, -6)">
    <path d="M21.4 11.5 L18.25 14.4 23.4 13.85 23.75 14.35 23.8 14.45 23.7 14.7 23.55 14.95 Q18.4 16.2 13.1 16.65 L12.7 16.3 Q11.6 17.75 10.15 17.2 L10.25 16.2 Q9.8 16.05 9.55 15.5 L10.35 11.35 10.5 10.85 Q10.0 10.1 10.15 9.2 L10.15 8.95 10.65 8.35 10.8 8.1 11.2 8.15 11.35 8.2 11.5 7.8 11.65 7.55 12.1 7.35 12.75 7.6 12.85 7.75 Q12.95 9.75 11.8 11.4 L11.7 11.75 11.7 11.95 11.85 12.2 11.8 12.45 11.75 12.7 Q11.6 12.95 11.8 13.1 L11.85 13.15 13.2 9.25 Q13.35 8.55 13.65 8.0 L13.0 11.0 12.85 11.65 Q14.25 9.8 16.2 7.9 L16.35 7.85 16.55 7.75 Q17.05 7.85 17.0 8.35 L16.95 8.5 16.2 9.5 16.15 9.6 16.55 10.0 16.65 10.1 Q15.85 11.65 14.45 13.0 16.55 11.55 18.7 11.1 18.7 11.7 18.05 12.15 L18.0 12.25 Q19.05 11.9 20.6 10.95 21.2 11.0 21.4 11.5 M37.05 15.1 L37.25 15.2 37.45 15.45 37.55 15.8 37.5 16.05 37.25 16.45 Q36.05 17.0 35.7 15.8 35.9 15.05 36.7 14.95 L37.05 15.1 M-9.15 7.1 L-9.0 7.2 Q-8.75 7.7 -8.75 8.25 L-8.8 8.5 -8.2 10.15 -8.05 10.4 -7.95 9.75 -7.85 9.5 -7.15 9.4 Q-5.85 12.1 -5.6 15.25 L-5.4 15.75 -5.65 16.85 -5.75 17.1 Q-6.1 17.45 -6.55 17.25 L-7.15 16.4 -7.7 16.55 -8.45 16.75 -8.5 16.85 -8.55 17.0 -8.6 17.1 -9.0 17.5 -9.15 17.75 Q-13.0 16.95 -16.2 14.85 L-16.25 14.7 -16.05 14.45 -15.95 14.3 -15.8 14.1 -15.9 13.85 -15.95 13.7 -16.05 13.6 -16.05 13.45 -16.0 13.35 -16.0 13.2 -16.15 12.85 -16.25 12.55 -16.3 12.3 Q-15.95 11.9 -15.4 11.9 L-14.45 11.85 -10.65 14.25 -11.65 12.35 Q-12.5 12.3 -13.35 11.75 L-13.35 10.2 Q-13.35 9.95 -13.15 9.85 -11.65 10.2 -10.85 11.8 L-10.75 11.3 -10.55 11.1 -9.85 11.2 -9.75 11.25 Q-10.2 9.5 -10.05 7.65 L-9.9 7.25 -9.6 7.1 -9.4 7.0 -9.15 7.1 M-12.65 11.2 L-12.65 11.3 Q-12.45 11.8 -11.9 11.75 -12.1 11.0 -12.65 10.55 L-12.65 11.2 M-14.0 13.0 Q-13.1 13.9 -11.85 14.2 L-11.85 14.15 Q-12.75 13.25 -13.95 13.0 L-14.0 13.0 M-7.65 15.55 L-7.95 15.1 -8.1 15.65 -7.65 15.55 M-33.75 10.65 L-33.4 10.75 -33.15 10.85 -32.95 11.1 -32.75 11.5 -32.85 12.0 -33.15 12.35 -34.5 12.25 -34.7 11.75 -34.65 11.2 Q-34.35 10.65 -33.75 10.65 M-42.5 8.15 L-42.3 8.3 -42.1 8.5 -42.0 8.9 -42.05 9.15 -42.3 9.55 Q-43.3 10.05 -43.65 9.05 L-43.65 8.65 -43.4 8.3 -42.85 8.1 -42.85 8.05 -42.5 8.15" fill="#ffff00" fill-rule="evenodd" stroke="none"/>
  </g>
</svg>