<?xml version="1.0" encoding="UTF-8" standalone="no"?>
<svg xmlns:xlink="http://www.w3.org/1999/xlink" height="39.05px" width="86.85px" xmlns="http://www.w3.org/2000/svg">
  <g transform="matrix(1.0, 0.0, 0.0, 1.0, 82.7, 28.75)">
    <path d="M-40.35 -20.1 L-40.35 -20.05 -40.5 -20.1 -40.35 -20.1 M-15.65 2.3 L-15.75 2.25 -15.65 2.25 -15.65 2.3" fill="#de5c07" fill-rule="evenodd" stroke="none"/>
    <path d="M-73.15 8.2 L-72.6 7.55 -72.4 7.75 -73.15 8.2" fill="#bd4f06" fill-rule="evenodd" stroke="none"/>
    <path d="M-72.6 7.55 Q-71.05 6.1 -67.2 4.4 -61.1 1.7 -59.7 2.25 -61.0 4.5 -65.05 6.6 L-67.8 7.85 -67.85 7.85 -71.75 7.55 -72.35 7.7 -72.4 7.75 -72.6 7.55 M-57.1 8.05 Q-55.7 6.4 -48.9 3.75 L-49.5 4.5 -46.9 3.5 -43.4 3.3 -43.35 3.45 Q-43.95 3.7 -49.65 7.05 L-51.5 8.1 -51.65 8.15 -55.45 9.2 -56.7 9.25 Q-57.1 9.2 -57.1 8.7 L-57.1 8.05 M-44.6 6.65 L-44.5 6.3 Q-43.85 5.85 -42.75 5.45 L-36.9 3.15 Q-28.85 -2.15 -28.05 -2.15 -26.7 -2.15 -26.75 -1.15 L-27.15 0.0 -27.15 0.05 -20.7 -0.45 -13.85 -1.25 Q-9.15 -1.65 -9.15 -0.1 -9.15 0.9 -11.55 1.45 L-15.5 2.15 -15.55 2.2 -15.65 2.25 -15.75 2.25 -15.65 2.3 -16.65 2.2 -16.85 2.15 -17.75 1.95 Q-18.35 1.7 -18.15 0.9 -18.05 0.5 -18.55 0.55 L-19.15 0.5 -19.25 0.45 -21.55 0.4 -22.9 0.45 Q-25.7 0.45 -28.15 1.5 -31.35 2.85 -34.25 4.75 L-35.55 5.35 -36.05 5.55 -36.15 5.6 -36.2 5.65 Q-39.3 6.8 -42.75 7.7 L-43.4 7.85 -44.85 7.6 -44.7 7.2 -44.6 6.7 -44.6 6.65 M-40.35 -20.05 L-39.95 -19.95 -39.65 -19.2 -40.75 -18.7 -42.05 -18.3 Q-42.8 -18.3 -43.85 -18.9 -46.8 -19.65 -46.8 -20.6 L-46.65 -21.45 -46.5 -21.6 -46.35 -21.65 -45.8 -21.5 -43.1 -20.75 -42.65 -20.6 -40.5 -20.1 -40.35 -20.05 M-61.5 -20.1 L-57.0 -19.5 -56.85 -19.05 -56.55 -18.6 -64.2 -16.65 -66.75 -16.85 Q-67.8 -17.15 -67.8 -18.15 -67.8 -18.65 -64.95 -19.4 L-61.5 -20.1 M-70.95 -12.6 L-73.05 -12.05 -75.45 -11.25 -76.05 -11.3 -76.55 -11.55 -76.65 -12.25 Q-76.65 -13.55 -73.8 -13.75 -70.95 -13.95 -70.95 -12.6 M-58.7 -13.8 Q-55.75 -13.8 -52.85 -12.95 -49.9 -12.1 -48.6 -10.8 L-48.65 -10.45 Q-48.75 -10.25 -49.2 -10.25 -60.0 -10.65 -60.0 -12.15 L-59.7 -13.2 Q-59.3 -13.8 -58.7 -13.8" fill="#ac4806" fill-rule="evenodd" stroke="none"/>
    <path d="M-15.55 2.2 L-15.5 2.35 -15.65 2.3 -15.65 2.25 -15.55 2.2" fill="url(#gradient0)" fill-rule="evenodd" stroke="none"/>
    <path d="M-73.15 8.2 L-75.8 9.2 -76.35 9.15 -76.85 8.8 -77.45 8.35 -79.45 6.8 -80.0 6.25 -80.9 4.9 Q-81.6 2.35 -81.7 -0.2 L-81.6 -3.1 Q-81.45 -5.25 -80.75 -7.3 L-79.45 -10.4 -77.95 -12.55 -76.55 -14.1 -71.2 -18.3 -68.6 -19.9 Q-65.4 -21.9 -62.0 -23.3 -57.8 -25.0 -53.45 -23.7 L-51.4 -23.1 -45.8 -21.5 -46.35 -21.65 -46.5 -21.6 -46.65 -21.45 -46.8 -20.6 Q-46.8 -19.65 -43.85 -18.9 -42.8 -18.3 -42.05 -18.3 L-40.75 -18.7 -39.65 -19.2 -39.95 -19.95 -40.35 -20.05 -40.35 -20.1 -30.65 -19.15 -28.2 -19.2 -22.2 -18.95 -19.5 -18.85 -12.65 -18.0 -11.55 -17.75 -9.75 -17.15 Q-8.35 -16.55 -7.1 -15.75 L-6.55 -15.35 -4.4 -13.55 -3.65 -12.85 -2.2 -11.55 0.15 -9.7 0.65 -9.35 1.45 -8.85 Q2.0 -8.5 3.15 -8.3 2.0 -6.3 1.5 -4.5 L1.0 -2.45 0.3 -0.5 -2.3 3.5 -3.95 5.55 -4.05 5.65 -4.65 5.45 -5.8 4.95 -6.1 4.85 -10.15 3.45 -15.5 2.35 -15.55 2.2 -15.5 2.15 -11.55 1.45 Q-9.15 0.9 -9.15 -0.1 -9.15 -1.65 -13.85 -1.25 L-20.7 -0.45 -27.15 0.05 -27.15 0.0 -26.75 -1.15 Q-26.7 -2.15 -28.05 -2.15 -28.85 -2.15 -36.9 3.15 L-42.75 5.45 Q-43.85 5.85 -44.5 6.3 L-44.6 6.65 -44.4 5.85 Q-44.2 5.0 -44.65 5.2 L-46.05 5.95 -51.5 8.1 -49.65 7.05 Q-43.95 3.7 -43.35 3.45 L-43.4 3.3 -46.9 3.5 -49.5 4.5 -48.9 3.75 Q-55.7 6.4 -57.1 8.05 -57.2 6.45 -58.05 5.1 L-58.55 5.35 -62.95 7.75 -64.25 8.5 -65.6 8.45 -66.2 8.2 -67.85 7.85 -67.8 7.85 -65.05 6.6 Q-61.0 4.5 -59.7 2.25 -61.1 1.7 -67.2 4.4 -71.05 6.1 -72.6 7.55 L-73.15 8.2 M-58.7 -13.8 Q-59.3 -13.8 -59.7 -13.2 L-60.0 -12.15 Q-60.0 -10.65 -49.2 -10.25 -48.75 -10.25 -48.65 -10.45 L-48.6 -10.8 Q-49.9 -12.1 -52.85 -12.95 -55.75 -13.8 -58.7 -13.8 M-70.95 -12.6 Q-70.95 -13.95 -73.8 -13.75 -76.65 -13.55 -76.65 -12.25 L-76.55 -11.55 -76.05 -11.3 -75.45 -11.25 -73.05 -12.05 -70.95 -12.6 M-61.5 -20.1 L-64.95 -19.4 Q-67.8 -18.65 -67.8 -18.15 -67.8 -17.15 -66.75 -16.85 L-64.2 -16.65 -56.55 -18.6 -56.85 -19.05 -57.0 -19.5 -61.5 -20.1 M-26.5 -13.0 Q-25.05 -12.65 -24.85 -14.35 L-26.95 -15.2 -29.6 -15.55 Q-30.7 -15.3 -31.05 -14.5 -30.7 -15.3 -29.6 -15.55 L-26.95 -15.2 -24.85 -14.35 Q-25.05 -12.65 -26.5 -13.0 M-45.2 -2.25 L-46.1 -2.1 -45.2 -2.25 M-47.55 -3.35 L-49.65 -2.15 -47.55 -3.35 M-10.1 -12.15 L-10.85 -12.4 -10.1 -12.15 M-12.5 -14.55 L-14.05 -14.7 -12.5 -14.55" fill="url(#gradient1)" fill-rule="evenodd" stroke="none"/>
    <path d="M-49.65 -2.15 L-47.55 -3.35 M-46.1 -2.1 L-45.2 -2.25 M-31.05 -14.5 Q-30.7 -15.3 -29.6 -15.55 L-26.95 -15.2 -24.85 -14.35 Q-25.05 -12.65 -26.5 -13.0 M-14.05 -14.7 L-12.5 -14.55 M-10.85 -12.4 L-10.1 -12.15" fill="none" stroke="#660000" stroke-linecap="round" stroke-linejoin="round" stroke-opacity="0.4" stroke-width="1"/>
    <path d="M-45.8 -21.5 L-51.4 -23.1 -53.45 -23.7 Q-57.8 -25.0 -62.0 -23.3 -65.4 -21.9 -68.6 -19.9 L-71.2 -18.3 -76.55 -14.1 -77.95 -12.55 -79.45 -10.4 -80.75 -7.3 Q-81.45 -5.25 -81.6 -3.1 L-81.7 -0.2 Q-81.6 2.35 -80.9 4.9 L-80.0 6.25 -79.45 6.8 -77.45 8.35 -76.85 8.8 -76.35 9.15 -75.8 9.2 -73.15 8.2 -72.4 7.75 -72.35 7.7 -71.75 7.55 -67.85 7.85 -66.2 8.2 -65.6 8.45 -64.25 8.5 -62.95 7.75 -58.55 5.35 -58.05 5.1 Q-57.2 6.45 -57.1 8.05 M-51.5 8.1 L-46.05 5.95 -44.65 5.2 Q-44.2 5.0 -44.4 5.85 L-44.6 6.65 -44.6 6.7 -44.7 7.2 -44.85 7.6 -43.4 7.85 -42.75 7.7 Q-39.3 6.8 -36.2 5.65 L-36.15 5.6 -36.05 5.55 -35.55 5.35 -34.25 4.75 Q-31.35 2.85 -28.15 1.5 -25.7 0.45 -22.9 0.45 L-21.55 0.4 -19.25 0.45 -19.15 0.5 -18.55 0.55 Q-18.05 0.5 -18.15 0.9 -18.35 1.7 -17.75 1.95 L-16.85 2.15 -16.65 2.2 -15.65 2.3 -15.5 2.35 -10.15 3.45 -6.1 4.85 -5.8 4.95 -4.65 5.45 -4.05 5.65 -3.95 5.55 M3.15 -8.3 Q2.0 -8.5 1.45 -8.85 L0.65 -9.35 0.15 -9.7 -2.2 -11.55 -3.65 -12.85 -4.4 -13.55 -6.55 -15.35 -7.1 -15.75 Q-8.35 -16.55 -9.75 -17.15 L-11.55 -17.75 -12.65 -18.0 -19.5 -18.85 -22.2 -18.95 -28.2 -19.2 -30.65 -19.15 -40.35 -20.1 -40.5 -20.1 -42.65 -20.6 -43.1 -20.75 -45.8 -21.5 M-57.1 8.7 Q-57.1 9.2 -56.7 9.25 L-55.45 9.2 -51.65 8.15 -51.5 8.1" fill="none" stroke="#540101" stroke-linecap="round" stroke-linejoin="round" stroke-opacity="0.49803922" stroke-width="1"/>
    <path d="M-69.7 -17.0 Q-70.25 -17.5 -69.5 -18.35 L-69.05 -18.95 -68.5 -19.8 Q-67.05 -21.85 -64.7 -22.9 -64.15 -23.15 -63.7 -23.45 L-62.8 -24.25 Q-61.05 -26.1 -58.85 -27.35 L-57.9 -27.65 -55.0 -27.55 -54.6 -27.45 Q-53.95 -27.25 -54.05 -26.5 L-54.25 -26.25 Q-55.2 -25.6 -56.6 -25.45 L-57.5 -25.25 Q-59.55 -24.65 -61.0 -23.25 L-63.1 -21.1 -64.0 -20.15 -64.15 -19.95 -64.9 -18.95 -64.95 -18.85 -65.0 -18.8 -65.05 -18.7 -65.15 -18.55 -65.15 -18.5 -65.35 -18.5 -67.15 -18.35 Q-67.95 -18.3 -68.6 -17.65 -69.1 -17.1 -69.7 -17.0 M-77.4 -10.75 L-77.45 -10.75 -77.6 -12.3 -77.6 -12.7 -77.2 -14.25 -76.85 -15.0 -76.35 -16.2 -76.05 -17.05 Q-75.6 -18.35 -75.9 -19.7 L-76.0 -20.15 -76.1 -20.8 -76.25 -21.5 -76.25 -21.8 Q-75.85 -22.75 -74.65 -22.35 -74.15 -22.15 -73.95 -21.6 L-73.9 -21.35 -73.95 -20.25 -74.1 -19.85 -74.9 -17.8 Q-76.15 -15.35 -76.45 -12.7 L-76.55 -11.15 Q-76.9 -10.8 -77.4 -10.75 M-60.9 -12.25 Q-60.15 -13.2 -58.85 -13.45 L-58.4 -13.5 -57.5 -13.75 Q-56.0 -14.45 -55.2 -15.8 -54.75 -16.55 -54.05 -16.7 -53.6 -16.8 -53.15 -17.05 L-51.5 -17.4 Q-50.75 -17.4 -50.75 -16.65 L-50.8 -16.05 Q-50.85 -14.6 -52.2 -14.3 L-53.3 -14.05 Q-55.4 -13.55 -57.25 -12.65 L-59.1 -11.6 -60.35 -12.0 -60.9 -12.25 M-45.6 -19.75 Q-47.1 -19.95 -48.25 -20.9 L-48.6 -21.25 -46.45 -22.25 -41.95 -24.4 -40.8 -25.0 -38.6 -25.7 -37.45 -25.9 -36.7 -25.95 Q-35.6 -25.95 -35.6 -24.95 -35.6 -24.6 -35.75 -24.25 -36.4 -22.7 -38.15 -23.0 L-39.6 -22.95 -41.0 -22.65 -42.1 -22.25 -44.25 -21.0 -45.6 -19.75" fill="#de5c07" fill-rule="evenodd" stroke="none"/>
    <path d="M-69.7 -17.0 Q-70.25 -17.5 -69.5 -18.35 L-69.05 -18.95 -68.5 -19.8 Q-67.05 -21.85 -64.7 -22.9 -64.15 -23.15 -63.7 -23.45 L-62.8 -24.25 Q-61.05 -26.1 -58.85 -27.35 L-57.9 -27.65 -55.0 -27.55 -54.6 -27.45 Q-53.95 -27.25 -54.05 -26.5 L-54.25 -26.25 Q-55.2 -25.6 -56.6 -25.45 L-57.5 -25.25 Q-59.55 -24.65 -61.0 -23.25 L-63.1 -21.1 -64.0 -20.15 -64.15 -19.95 -64.9 -18.95 -64.95 -18.85 -65.0 -18.8 -65.05 -18.7 -65.15 -18.55 -65.15 -18.5 -65.35 -18.5 M-77.4 -10.75 L-77.45 -10.75 -77.6 -12.3 -77.6 -12.7 -77.2 -14.25 -76.85 -15.0 -76.35 -16.2 -76.05 -17.05 Q-75.6 -18.35 -75.9 -19.7 L-76.0 -20.15 -76.1 -20.8 -76.25 -21.5 -76.25 -21.8 Q-75.85 -22.75 -74.65 -22.35 -74.15 -22.15 -73.95 -21.6 L-73.9 -21.35 -73.95 -20.25 -74.1 -19.85 -74.9 -17.8 Q-76.15 -15.35 -76.45 -12.7 L-76.55 -11.15 M-61.3 -11.65 L-60.9 -12.25 Q-60.15 -13.2 -58.85 -13.45 L-58.4 -13.5 -57.5 -13.75 Q-56.0 -14.45 -55.2 -15.8 -54.75 -16.55 -54.05 -16.7 -53.6 -16.8 -53.15 -17.05 L-51.5 -17.4 Q-50.75 -17.4 -50.75 -16.65 L-50.8 -16.05 Q-50.85 -14.6 -52.2 -14.3 L-53.3 -14.05 Q-55.4 -13.55 -57.25 -12.65 L-59.1 -11.6 M-48.6 -21.25 L-46.45 -22.25 -41.95 -24.4 -40.8 -25.0 -38.6 -25.7 -37.45 -25.9 -36.7 -25.95 Q-35.6 -25.95 -35.6 -24.95 -35.6 -24.6 -35.75 -24.25 -36.4 -22.7 -38.15 -23.0 L-39.6 -22.95 -41.0 -22.65 -42.1 -22.25 -44.25 -21.0 -45.6 -19.75" fill="none" stroke="#540101" stroke-linecap="round" stroke-linejoin="round" stroke-opacity="0.49803922" stroke-width="1"/>
    <path d="M-57.05 -26.65 Q-57.05 -25.75 -58.0 -25.75 -59.35 -25.75 -59.35 -26.45 -59.35 -26.85 -58.2 -27.2 -57.05 -27.55 -57.05 -26.65 M-67.95 -13.6 Q-67.95 -14.7 -66.4 -14.8 -64.9 -14.95 -64.9 -14.2 -64.9 -14.1 -65.9 -13.5 -66.9 -12.9 -67.15 -12.9 -67.95 -12.9 -67.95 -13.6 M-61.4 -14.45 Q-61.4 -13.6 -62.6 -13.6 -63.3 -13.6 -63.45 -14.2 -63.45 -14.7 -62.4 -14.9 -61.4 -15.1 -61.4 -14.45 M-67.25 -9.85 Q-67.65 -9.5 -68.4 -9.5 -69.05 -9.5 -69.0 -10.1 -69.0 -10.8 -67.95 -11.0 -66.9 -11.25 -66.9 -10.45 -66.9 -10.1 -67.25 -9.85 M-53.0 -15.05 L-54.0 -15.1 Q-54.4 -15.2 -54.4 -15.7 -54.4 -16.3 -53.35 -16.35 -52.35 -16.4 -52.35 -15.55 -52.35 -15.05 -53.0 -15.05 M-27.85 -14.1 L-28.45 -14.1 -29.15 -13.85 -30.1 -14.85 Q-30.1 -15.55 -28.85 -15.3 -27.65 -15.0 -27.65 -14.45 -27.65 -14.1 -27.85 -14.1 M-30.35 -16.5 L-33.0 -16.95 -34.65 -17.25 -36.3 -17.55 -36.9 -17.65 -37.35 -18.05 -36.15 -18.2 -23.4 -17.75 Q-14.3 -16.75 -14.3 -13.35 -14.3 -12.95 -14.7 -12.6 L-15.3 -12.35 -18.9 -13.85 Q-22.55 -15.4 -25.8 -15.75 L-30.35 -16.5 M-8.9 -12.85 Q-9.4 -12.45 -10.1 -12.45 -11.3 -12.45 -11.75 -13.2 L-12.0 -13.85 Q-12.0 -14.9 -10.4 -14.55 -8.8 -14.25 -8.55 -13.25 L-8.9 -12.85 M-10.4 -15.4 L-10.95 -15.35 -12.75 -16.65 -11.35 -16.8 Q-10.6 -16.45 -10.35 -15.6 L-10.4 -15.4 M-1.2 -6.9 Q-1.2 -6.65 -1.35 -6.45 L-5.2 -9.15 -7.8 -11.15 -7.7 -11.85 -7.05 -12.0 Q-2.45 -12.0 -2.45 -9.0 L-1.2 -6.9" fill="#feb74e" fill-rule="evenodd" stroke="none"/>
  </g>
  <defs>
    <radialGradient cx="0" cy="0" gradientTransform="matrix(0.0485, 0.0, 0.0, 0.0485, -145.05, -57.5)" gradientUnits="userSpaceOnUse" id="gradient0" r="819.2" spreadMethod="pad">
      <stop offset="0.0" stop-color="#ff841e"></stop>
      <stop offset="1.0" stop-color="#de5c07"></stop>
    </radialGradient>
    <radialGradient cx="0" cy="0" gradientTransform="matrix(0.0704, 0.0, 0.0, 0.0471, -65.15, -18.55)" gradientUnits="userSpaceOnUse" id="gradient1" r="819.2" spreadMethod="pad">
      <stop offset="0.0" stop-color="#ff841e"></stop>
      <stop offset="1.0" stop-color="#de5c07"></stop>
    </radialGradient>
  </defs>
</svg>