<?xml version="1.0" encoding="UTF-8" standalone="no"?>
<svg xmlns:xlink="http://www.w3.org/1999/xlink" height="36.15px" width="67.35px" xmlns="http://www.w3.org/2000/svg">
  <g transform="matrix(1.0, 0.0, 0.0, 1.0, 63.85, 6.15)">
    <path d="M-62.65 -2.95 L-62.25 -2.85 Q-62.0 -2.6 -61.7 -2.5 L-58.6 -1.6 -55.45 -1.1 -53.8 -0.75 -52.3 -0.35 -50.65 0.05 -49.15 0.25 -47.4 0.5 -47.45 0.65 Q-48.6 2.0 -50.2 2.5 L-47.95 2.35 -45.6 1.9 -40.0 0.7 -37.75 0.35 -33.0 -0.5 -30.15 -1.15 -28.35 -1.45 -26.75 -1.65 Q-25.85 -1.85 -25.25 -1.35 L-25.5 -1.0 Q-26.65 -0.05 -27.3 1.1 L-23.1 0.5 -21.6 0.4 -15.95 0.25 -13.5 0.1 -11.75 -0.25 -8.8 -1.0 -6.1 -1.6 -1.85 -2.3 -1.4 -2.4 1.75 -2.95 2.1 -0.95 2.1 -0.25 0.7 0.55 -2.3 2.35 -6.2 3.75 -10.2 4.85 -17.5 7.6 Q-24.15 10.15 -25.8 10.15 L-30.1 9.05 Q-33.75 7.95 -35.15 7.95 -36.5 7.95 -39.45 9.15 -42.45 10.3 -43.75 10.3 L-46.8 9.8 -49.7 9.4 Q-54.1 9.95 -55.5 7.9 L-56.45 6.4 Q-57.05 5.75 -58.1 5.7 L-59.85 2.85 -60.8 1.3 -61.7 -0.1 Q-62.55 -1.35 -62.8 -2.6 -62.9 -3.2 -62.65 -2.95" fill="#de5c07" fill-rule="evenodd" stroke="none"/>
    <path d="M2.1 -0.25 L1.45 3.25 1.4 3.45 1.3 3.85 1.1 4.6 -1.65 6.8 -1.75 6.85 -4.2 8.6 Q-7.7 11.3 -10.55 10.85 -13.3 10.4 -16.2 12.6 -19.0 14.7 -19.8 15.7 -20.65 16.65 -23.6 18.0 -26.55 19.35 -29.85 19.05 L-37.55 18.05 -44.9 17.1 Q-47.85 16.85 -48.6 16.4 L-49.95 15.35 -52.45 13.15 -54.95 10.4 -55.4 9.8 -57.45 6.75 -58.1 5.7 Q-57.05 5.75 -56.45 6.4 L-55.5 7.9 Q-54.1 9.95 -49.7 9.4 L-46.8 9.8 -43.75 10.3 Q-42.45 10.3 -39.45 9.15 -36.5 7.95 -35.15 7.95 -33.75 7.95 -30.1 9.05 L-25.8 10.15 Q-24.15 10.15 -17.5 7.6 L-10.2 4.85 -6.2 3.75 -2.3 2.35 0.7 0.55 2.1 -0.25" fill="#ac4806" fill-rule="evenodd" stroke="none"/>
    <path d="M0.2 -4.95 L1.25 -3.9 1.75 -2.95 -1.4 -2.4 -1.85 -2.3 -6.1 -1.6 -8.8 -1.0 -11.75 -0.25 -13.5 0.1 -15.95 0.25 -21.6 0.4 -23.1 0.5 -27.3 1.1 Q-26.65 -0.05 -25.5 -1.0 L-25.25 -1.35 Q-25.85 -1.85 -26.75 -1.65 L-28.35 -1.45 -30.15 -1.15 -33.0 -0.5 -37.75 0.35 -40.0 0.7 -45.6 1.9 -47.95 2.35 -50.2 2.5 Q-48.6 2.0 -47.45 0.65 L-47.3 0.5 -47.4 0.5 -49.15 0.25 -50.65 0.05 -52.3 -0.35 -53.8 -0.75 -55.45 -1.1 -58.6 -1.6 -61.7 -2.5 Q-62.0 -2.6 -62.25 -2.85 L-62.65 -2.95 Q-58.1 -4.4 -55.4 -4.75 L-51.25 -5.15 -51.3 -4.6 -51.85 -3.75 -52.15 -3.35 Q-50.6 -2.5 -48.7 -2.4 L-40.6 -2.8 -37.95 -3.15 -33.15 -4.15 -29.1 -5.0 -29.1 -4.9 -29.25 -4.75 -29.4 -4.6 -29.6 -4.4 -29.7 -4.3 -29.85 -4.15 -27.95 -3.75 -25.85 -3.35 -25.55 -3.25 -22.0 -2.2 -21.2 -2.0 -17.25 -1.25 Q-15.9 -1.1 -4.1 -3.9 L0.2 -4.95" fill="url(#gradient0)" fill-rule="evenodd" stroke="none"/>
    <path d="M1.75 -2.95 L2.5 -3.0 M0.2 -4.95 L-4.1 -3.9 Q-15.9 -1.1 -17.25 -1.25 L-21.2 -2.0 -22.0 -2.2 -25.55 -3.25 -25.85 -3.35 -27.95 -3.75 -29.85 -4.15 -29.7 -4.3 -29.6 -4.4 -29.4 -4.6 -29.25 -4.75 -29.1 -4.9 -28.95 -5.05 -29.1 -5.0 -33.15 -4.15 -37.95 -3.15 -40.6 -2.8 -48.7 -2.4 Q-50.6 -2.5 -52.15 -3.35 L-51.85 -3.75 -51.3 -4.6 -51.25 -5.15 -55.4 -4.75 Q-58.1 -4.4 -62.65 -2.95 L-62.25 -2.85 Q-62.0 -2.6 -61.7 -2.5 L-58.6 -1.6 -55.45 -1.1 -53.8 -0.75 -52.3 -0.35 -50.65 0.05 -49.15 0.25 -47.4 0.5 -47.3 0.5 -47.45 0.65 Q-48.6 2.0 -50.2 2.5 L-47.95 2.35 -45.6 1.9 -40.0 0.7 -37.75 0.35 -33.0 -0.5 -30.15 -1.15 -28.35 -1.45 -26.75 -1.65 Q-25.85 -1.85 -25.25 -1.35 L-25.5 -1.0 Q-26.65 -0.05 -27.3 1.1 L-23.1 0.5 -21.6 0.4 -15.95 0.25 -13.5 0.1 -11.75 -0.25 -8.8 -1.0 -6.1 -1.6 -1.85 -2.3 -1.4 -2.4 1.75 -2.95 M1.1 4.6 L2.2 3.6 M-62.65 -2.95 Q-62.9 -3.2 -62.8 -2.6 -62.55 -1.35 -61.7 -0.1 L-60.8 1.3 -59.85 2.85 -58.1 5.7 M-57.45 6.75 L-55.4 9.8 -54.95 10.4 -52.45 13.15 -49.95 15.35 -48.6 16.4 Q-47.85 16.85 -44.9 17.1 L-37.55 18.05 -29.85 19.05 Q-26.55 19.35 -23.6 18.0 -20.65 16.65 -19.8 15.7 -19.0 14.7 -16.2 12.6 -13.3 10.4 -10.55 10.85 -7.7 11.3 -4.2 8.6 L-1.75 6.85 -1.65 6.8 1.1 4.6" fill="none" stroke="#540101" stroke-linecap="round" stroke-linejoin="round" stroke-opacity="0.49803922" stroke-width="1"/>
    <path d="M-6.9 7.9 L-5.55 7.2 -5.4 7.35 Q-5.6 7.95 -6.75 8.55 L-6.65 8.15 -6.75 7.85 -6.9 7.9 M-11.1 9.75 L-12.05 9.6 -11.9 9.6 -11.6 9.65 -11.1 9.75 M-13.75 9.55 L-16.55 10.4 -16.85 10.05 Q-16.85 9.4 -15.4 8.6 -14.05 7.8 -13.25 7.8 L-11.2 8.05 -10.4 8.2 Q-12.5 8.6 -13.75 9.55" fill="#ac4806" fill-rule="evenodd" stroke="none"/>
    <path d="M-6.75 8.55 L-6.75 8.6 -7.4 8.9 -7.85 9.05 -10.75 9.75 -11.1 9.75 -11.6 9.65 -11.9 9.6 -12.05 9.6 -13.2 9.45 -13.75 9.55 Q-12.5 8.6 -10.4 8.2 L-9.2 8.25 -7.0 7.9 -6.9 7.9 -6.75 7.85 -6.65 8.15 -6.75 8.55 M-33.0 14.55 L-31.2 13.45 Q-30.15 12.95 -30.15 13.95 -30.15 14.9 -31.6 15.95 -33.0 17.0 -34.05 17.0 L-38.35 16.55 Q-40.8 15.85 -44.2 13.6 L-42.85 13.7 -42.35 13.85 -41.9 13.95 -36.75 15.15 -34.85 14.95 -33.0 14.55 M-22.85 14.25 Q-20.1 12.7 -18.5 12.3 -18.6 13.1 -20.9 14.9 -23.4 16.8 -24.8 16.8 L-25.4 16.7 -25.55 16.2 Q-25.55 15.75 -22.85 14.25 M-44.3 13.55 Q-44.25 14.4 -44.85 14.7 L-46.05 14.85 Q-48.0 14.85 -48.85 14.25 L-51.05 11.7 -46.9 12.95 -44.3 13.55" fill="#ff9800" fill-rule="evenodd" stroke="none"/>
    <path d="M-39.75 19.7 L-40.0 19.3 -39.95 19.3 -39.75 19.7 M-39.45 20.7 L-39.5 20.3 -39.35 20.7 -39.45 20.7 M-33.85 26.05 L-33.85 26.1 -33.95 26.25 -33.85 26.05" fill="#bd4f06" fill-rule="evenodd" stroke="none"/>
    <path d="M-40.0 19.3 L-39.75 19.7 -39.5 20.3 -39.75 19.7 -39.5 20.25 -39.5 20.3 -39.45 20.7 Q-39.45 21.3 -39.9 21.7 -40.25 22.05 -40.7 22.05 L-41.4 21.1 -41.85 19.95 Q-41.85 18.6 -40.95 18.6 -40.5 18.6 -40.0 19.3 M-34.95 27.05 L-35.3 26.85 -35.55 26.45 Q-35.55 25.85 -34.55 24.85 -33.6 23.8 -33.6 25.3 L-33.85 26.05 -33.95 26.25 -34.15 26.4 -34.75 26.9 -34.95 27.05 M-32.3 19.3 L-32.3 19.25 -32.25 19.15 -32.3 19.3" fill="#de5c07" fill-rule="evenodd" stroke="none"/>
    <path d="M-32.15 18.35 Q-32.0 17.9 -32.0 17.45 -30.9 16.9 -27.9 16.9 L-26.7 17.15 -29.9 19.75 -30.55 20.4 -31.6 21.5 -32.15 22.5 -32.75 24.25 Q-33.1 25.3 -33.85 26.1 L-33.85 26.05 -33.6 25.3 Q-33.6 23.8 -34.55 24.85 -35.55 25.85 -35.55 26.45 L-35.3 26.85 -34.95 27.05 Q-35.95 27.65 -36.2 26.35 L-36.05 25.6 Q-35.5 24.45 -34.45 23.65 -32.45 22.15 -32.35 19.75 L-32.3 19.3 -32.25 19.15 -32.2 18.75 -32.15 18.35 M-39.95 19.3 L-40.0 19.3 Q-40.5 18.6 -40.95 18.6 -41.85 18.6 -41.85 19.95 L-41.4 21.1 -40.7 22.05 Q-40.25 22.05 -39.9 21.7 -39.45 21.3 -39.45 20.7 L-39.35 20.7 Q-39.0 22.15 -39.45 23.7 L-39.8 24.65 -40.4 27.8 Q-40.55 29.2 -42.0 28.95 L-43.05 28.5 Q-43.95 27.7 -42.8 26.9 -41.8 26.25 -42.0 25.2 L-41.95 24.7 Q-41.45 23.5 -41.85 22.35 L-42.3 20.65 Q-42.5 19.85 -42.85 19.2 L-43.95 17.9 -44.75 17.4 -44.85 17.35 Q-45.35 17.1 -45.9 16.95 -46.95 16.35 -47.5 15.35 L-45.85 15.2 -43.3 15.55 -42.75 15.65 Q-41.65 16.55 -40.9 17.55 L-40.6 18.1 -40.0 19.2 -39.95 19.3 M-56.5 5.7 L-56.15 6.0 Q-54.8 7.3 -53.6 8.9 L-53.55 8.95 -53.15 9.55 -52.95 10.3 -52.7 11.75 -52.7 12.9 Q-53.15 14.9 -53.25 16.9 L-53.2 17.4 -52.25 19.8 -52.1 20.45 Q-52.05 21.35 -52.85 21.1 L-53.4 20.95 Q-55.05 20.4 -55.55 18.7 L-55.85 17.75 Q-56.3 16.2 -56.1 14.6 L-55.35 10.7 -55.25 10.25 Q-55.05 9.1 -55.6 8.05 L-56.5 5.7" fill="#ac4806" fill-rule="evenodd" stroke="none"/>
    <path d="M-32.15 18.35 Q-32.0 17.9 -32.0 17.45 M-26.7 17.15 L-25.8 16.55 M-39.75 19.7 L-39.95 19.3 -40.0 19.2 -40.6 18.1 -40.9 17.55 Q-41.65 16.55 -42.75 15.65 M-39.5 20.3 L-39.75 19.7 M-39.5 20.3 L-39.35 20.7 Q-39.0 22.15 -39.45 23.7 L-39.8 24.65 -40.4 27.8 Q-40.55 29.2 -42.0 28.95 L-43.05 28.5 Q-43.95 27.7 -42.8 26.9 -41.8 26.25 -42.0 25.2 L-41.95 24.7 Q-41.45 23.5 -41.85 22.35 L-42.3 20.65 Q-42.5 19.85 -42.85 19.2 L-43.95 17.9 -44.75 17.4 -44.85 17.35 Q-45.35 17.1 -45.9 16.95 -46.95 16.35 -47.5 15.35 M-32.3 19.3 L-32.35 19.75 Q-32.45 22.15 -34.45 23.65 -35.5 24.45 -36.05 25.6 L-36.2 26.35 Q-35.95 27.65 -34.95 27.05 M-33.85 26.1 Q-33.1 25.3 -32.75 24.25 L-32.15 22.5 -31.6 21.5 -30.55 20.4 -29.9 19.75 -26.7 17.15 M-32.3 19.3 L-32.25 19.15 -32.2 18.75 -32.15 18.35 M-33.85 26.1 L-33.95 26.25 M-34.15 26.4 L-34.75 26.9 M-53.6 8.9 Q-53.3 9.15 -53.15 9.55 L-52.95 10.3 -52.7 11.75 -52.7 12.9 Q-53.15 14.9 -53.25 16.9 L-53.2 17.4 -52.25 19.8 -52.1 20.45 Q-52.05 21.35 -52.85 21.1 L-53.4 20.95 Q-55.05 20.4 -55.55 18.7 L-55.85 17.75 Q-56.3 16.2 -56.1 14.6 L-55.35 10.7 -55.25 10.25 Q-55.05 9.1 -55.6 8.05 L-56.5 5.7" fill="none" stroke="#540101" stroke-linecap="round" stroke-linejoin="round" stroke-opacity="0.49803922" stroke-width="1"/>
  </g>
  <defs>
    <radialGradient cx="0" cy="0" fx="809.6" fy="0" gradientTransform="matrix(0.0428, 0.0, 0.0, 0.0428, -25.45, 1.6)" gradientUnits="userSpaceOnUse" id="gradient0" r="819.2" spreadMethod="pad">
      <stop offset="0.054901960784313725" stop-color="#ffcc00"></stop>
      <stop offset="0.4549019607843137" stop-color="#ff0000"></stop>
      <stop offset="1.0" stop-color="#5c0101"></stop>
    </radialGradient>
  </defs>
</svg>