<?xml version="1.0" encoding="UTF-8" standalone="no"?>
<svg xmlns:xlink="http://www.w3.org/1999/xlink" height="149.55px" width="147.65px" xmlns="http://www.w3.org/2000/svg">
  <g transform="matrix(1.0, 0.0, 0.0, 1.0, 56.55, 152.6)">
    <path d="M6.85 -116.85 L5.6 -121.0 23.0 -100.6 -13.95 -121.15 -4.4 -119.4 5.35 -116.95 7.7 -115.9 6.85 -116.85 M5.2 -121.4 L3.05 -123.15 21.0 -115.25 5.2 -121.4 M-21.15 -132.85 L-24.8 -131.75 -0.75 -123.4 -24.55 -129.45 -35.1 -129.8 -28.8 -132.4 -33.35 -137.45 -21.15 -132.85 M-25.35 -129.45 L-18.7 -124.25 -33.15 -128.9 -25.35 -129.45 M1.6 -110.75 L-1.45 -109.2 -19.6 -114.5 1.6 -110.75 M33.55 -96.25 L41.15 -96.75 28.85 -110.9 32.8 -108.9 35.4 -109.45 50.95 -99.2 52.7 -104.0 59.7 -99.65 Q62.7 -112.55 58.65 -125.5 L63.05 -118.2 62.7 -124.0 63.95 -121.65 Q71.0 -107.45 63.2 -93.95 L57.65 -94.8 53.0 -96.1 53.9 -94.65 52.8 -92.05 50.55 -91.5 Q41.05 -90.15 33.55 -96.25 M36.55 -62.8 L35.6 -61.85 31.95 -62.25 36.55 -62.8 M9.05 -47.4 L4.5 -48.1 8.65 -45.65 -25.1 -60.8 -22.45 -66.0 -30.6 -69.05 -20.85 -72.55 -15.8 -69.6 -21.1 -77.85 Q-14.35 -72.4 -6.8 -68.2 9.9 -59.0 28.55 -55.85 L11.85 -54.6 -24.45 -68.6 -16.7 -62.9 Q-5.25 -54.35 8.75 -51.85 L9.05 -47.4 M-36.1 -70.65 L-27.95 -50.45 -32.35 -51.5 -40.0 -60.5 -37.25 -54.35 -51.5 -80.5 -50.4 -71.3 -53.75 -73.35 -49.6 -87.6 -51.5 -80.5 -49.0 -76.15 -35.7 -95.45 -36.1 -70.7 -36.15 -70.7 -36.1 -70.65 M-1.65 -95.3 L3.7 -90.8 -4.55 -92.75 -1.65 -95.3 M-6.4 -91.05 L11.05 -84.1 17.2 -77.15 8.3 -81.35 3.85 -83.45 -10.95 -90.45 -6.4 -91.05 M7.85 -70.05 L11.75 -68.0 Q-5.1 -67.5 -16.85 -79.7 L-18.1 -81.1 Q-6.8 -71.65 7.85 -70.05 M11.05 -53.2 L11.25 -53.8 11.65 -54.05 11.55 -53.3 11.05 -53.2 M-9.0 -6.65 L-1.4 -4.8 Q-5.1 -3.85 -8.8 -4.1 -23.65 -5.4 -33.6 -16.9 L-21.35 -10.25 -25.5 -13.6 -6.7 -6.85 -9.0 -6.65 M15.85 -33.45 L11.9 -35.2 Q30.15 -28.8 48.35 -34.8 L43.4 -32.9 Q29.6 -27.6 15.85 -33.45 M22.6 -11.65 L37.5 -9.65 Q30.75 -7.6 23.7 -8.55 15.65 -9.55 8.45 -13.6 L22.6 -11.65 M52.2 -20.6 L46.3 -19.55 46.95 -20.65 49.45 -23.0 45.95 -26.55 52.2 -20.6 M45.05 -19.05 L41.2 -17.75 43.3 -19.0 45.05 -19.05 M22.9 -26.85 L12.2 -21.85 12.9 -18.1 18.95 -18.0 26.7 -13.0 24.9 -11.95 -20.15 -19.7 -17.75 -28.35 -19.3 -32.65 -25.6 -34.9 Q-43.55 -46.3 -55.55 -63.7 L-42.8 -51.65 -44.8 -51.75 -40.9 -47.75 Q-31.35 -38.25 -19.3 -32.65 L-14.75 -30.85 Q3.5 -23.55 22.9 -26.85 M-23.9 -18.65 L10.35 -4.95 -26.45 -15.05 -23.9 -18.65 M-31.35 -19.35 L-39.05 -27.65 -34.2 -26.3 -33.95 -26.25 -24.7 -23.7 -31.35 -19.35 M-40.1 -35.5 L-37.8 -37.65 -38.15 -36.0 -40.1 -35.5 M-35.55 -151.4 L-33.15 -151.6 -23.0 -146.05 -35.55 -151.4 M90.1 -71.3 L87.7 -66.55 80.6 -64.6 88.6 -71.6 85.65 -77.75 90.1 -71.3" fill="#ffffff" fill-rule="evenodd" stroke="none"/>
    <path d="M6.85 -116.85 L4.6 -117.85 5.35 -116.95 -4.4 -119.4 1.3 -118.1 -18.7 -124.25 -25.35 -129.45 -24.55 -129.45 -0.75 -123.4 -24.8 -131.75 -21.15 -132.85 -2.65 -125.05 -13.4 -131.3 3.05 -123.15 5.2 -121.4 5.6 -121.0 6.85 -116.85 M63.2 -93.95 L45.15 -80.0 44.35 -75.7 37.9 -75.6 39.65 -71.45 32.2 -66.75 36.55 -62.8 31.95 -62.25 35.6 -61.85 30.85 -53.6 40.9 -51.95 25.4 -51.15 28.85 -47.5 27.4 -45.55 9.05 -47.4 8.75 -51.85 14.35 -51.75 11.05 -53.2 11.55 -53.3 11.65 -54.05 13.25 -54.15 11.85 -54.6 28.55 -55.85 Q9.9 -59.0 -6.8 -68.2 -14.35 -72.4 -21.1 -77.85 L-15.8 -69.6 -20.85 -72.55 -30.6 -69.05 -22.45 -66.0 -25.1 -60.8 -36.1 -70.65 -36.15 -70.7 -36.1 -70.7 -26.05 -79.7 -27.3 -82.25 -23.9 -83.2 -29.3 -86.15 -20.1 -85.8 -28.55 -89.2 -30.1 -95.85 -25.9 -99.2 -21.0 -99.75 -26.15 -102.65 -27.55 -108.3 -1.65 -95.3 -4.55 -92.75 -12.3 -94.3 -6.4 -91.05 -10.95 -90.45 3.85 -83.45 -15.05 -87.95 -12.0 -86.65 -11.25 -83.4 -15.15 -83.1 6.6 -72.0 7.85 -70.05 Q-6.8 -71.65 -18.1 -81.1 L-16.85 -79.7 Q-5.1 -67.5 11.75 -68.0 L14.3 -67.4 15.75 -69.6 8.3 -81.35 17.2 -77.15 11.05 -84.1 18.6 -77.65 21.7 -77.6 17.55 -81.6 28.2 -79.1 26.45 -81.45 29.4 -82.3 29.25 -86.3 33.3 -88.3 23.85 -98.0 33.55 -96.25 Q41.05 -90.15 50.55 -91.5 L52.8 -92.05 53.9 -94.65 56.95 -92.85 57.65 -94.8 63.2 -93.95 M22.6 -11.65 L28.2 -11.85 24.9 -11.95 26.7 -13.0 18.95 -18.0 12.9 -18.1 12.2 -21.85 22.9 -26.85 32.55 -26.35 30.0 -24.85 35.7 -23.1 26.5 -19.6 43.3 -19.0 41.2 -17.75 45.05 -19.05 46.3 -19.55 52.2 -20.6 51.9 -13.75 37.5 -9.65 22.6 -11.65 M-20.15 -19.7 L-25.7 -19.8 -23.9 -18.65 -26.45 -15.05 -31.35 -19.35 -24.7 -23.7 -33.95 -26.25 -33.6 -32.4 -17.75 -28.35 -34.15 -35.35 -25.6 -34.9 -19.3 -32.65 -17.75 -28.35 -20.15 -19.7 M-39.05 -27.65 L-40.1 -35.5 -38.15 -36.0 -39.3 -30.25 -34.2 -26.3 -39.05 -27.65 M45.95 -26.55 L49.45 -23.0 46.95 -20.65 45.95 -26.55 M37.45 -14.55 L35.1 -12.5 47.45 -14.35 37.45 -14.55" fill="#b6c1d3" fill-rule="evenodd" stroke="none"/>
  </g>
</svg>