<?xml version="1.0" encoding="UTF-8" standalone="no"?>
<svg xmlns:xlink="http://www.w3.org/1999/xlink" height="147.7px" width="153.25px" xmlns="http://www.w3.org/2000/svg">
  <g transform="matrix(1.0, 0.0, 0.0, 1.0, 61.85, 155)">
    <path d="M42.85 -124.05 L23.0 -138.85 28.0 -136.15 24.9 -138.65 38.85 -131.75 4.7 -154.0 37.6 -139.9 21.95 -149.95 25.05 -148.8 Q33.9 -145.3 41.8 -139.8 49.75 -134.3 55.85 -126.9 L39.25 -136.05 40.7 -132.15 44.9 -129.15 45.05 -128.85 46.0 -126.0 42.85 -124.05 M56.75 -125.7 Q57.9 -125.7 58.7 -124.35 59.5 -123.0 59.5 -121.05 L56.75 -125.7 M65.8 -107.55 L66.45 -105.65 63.0 -109.45 65.8 -107.55 M-12.3 -92.95 L-6.0 -94.1 -10.75 -96.9 -10.35 -100.85 -7.0 -104.1 -8.0 -107.15 28.5 -88.9 31.6 -84.1 21.55 -88.25 33.5 -77.8 11.3 -89.55 14.8 -86.25 -12.3 -92.95 M-25.3 -125.95 L-1.4 -116.75 -9.05 -118.0 1.5 -112.0 -19.6 -118.1 -16.4 -119.55 -12.6 -118.8 -17.9 -120.2 -25.3 -125.95 M-29.65 -120.45 L-44.15 -116.4 -41.2 -121.2 -29.65 -120.45 M-44.85 -123.1 L-45.15 -124.9 -42.95 -124.95 -44.85 -123.1 M-44.5 -134.05 L-45.5 -136.85 -41.4 -134.05 -44.5 -134.05 M49.4 -120.9 L51.9 -117.5 47.3 -121.75 49.4 -120.9 M66.8 -52.1 Q55.1 -49.45 43.75 -53.7 L36.05 -56.6 62.3 -54.85 66.8 -52.1 M-3.75 -55.3 L2.8 -60.1 27.2 -52.1 Q25.9 -52.1 25.0 -50.6 24.05 -49.1 24.05 -46.95 L-3.75 -55.3 M2.8 -60.35 L4.35 -62.6 Q4.35 -61.65 3.9 -61.0 3.45 -60.35 2.8 -60.35 M-17.9 -53.75 L-6.05 -55.3 24.6 -45.55 27.4 -42.2 30.15 -41.6 6.05 -45.45 25.05 -40.35 27.05 -36.35 22.75 -33.75 21.9 -33.75 22.5 -33.45 23.35 -28.9 -5.8 -38.05 -1.6 -36.3 -3.15 -34.75 6.65 -29.45 -1.75 -35.15 32.3 -23.35 29.15 -23.0 39.0 -22.25 Q14.1 -18.4 -4.25 -35.25 L-9.7 -36.05 Q-18.35 -37.05 -23.9 -43.7 L19.5 -35.65 -8.8 -50.1 -6.3 -50.85 -7.95 -52.7 -17.9 -53.75 M27.55 -52.25 L28.95 -53.2 Q28.95 -52.8 28.55 -52.5 L27.55 -52.25 M29.45 -55.1 L27.15 -56.45 36.8 -54.95 29.45 -55.1 M37.8 -40.0 L39.3 -39.45 38.25 -39.15 37.8 -40.0 M46.2 -36.15 L46.9 -32.1 45.25 -34.35 Q45.65 -34.35 45.95 -34.85 L46.2 -36.15 M68.55 -46.35 L66.2 -46.7 69.6 -47.05 68.55 -46.35 M72.15 -48.2 L69.4 -49.3 73.8 -49.95 69.2 -50.4 Q74.2 -50.1 78.2 -52.35 L75.45 -50.2 80.2 -50.95 72.15 -48.2 M86.5 -53.75 L87.85 -55.65 Q87.85 -54.85 87.45 -54.3 87.05 -53.75 86.5 -53.75 M88.25 -56.6 L88.05 -60.25 82.1 -55.5 Q85.25 -58.8 86.95 -63.15 L77.3 -72.25 90.4 -61.7 90.1 -59.2 89.4 -61.25 89.4 -56.95 88.25 -56.6 M-22.65 -84.55 L-20.1 -85.3 11.25 -76.55 -22.65 -84.55 M-20.6 -18.2 Q-45.3 -29.8 -59.1 -53.35 L-60.85 -56.4 -51.5 -45.9 Q-60.0 -67.9 -53.1 -90.55 -53.7 -63.25 -36.65 -42.05 -29.6 -33.25 -20.0 -27.3 L-26.75 -25.95 -20.6 -18.2 M-14.0 -18.8 L-14.8 -19.05 -15.25 -19.35 -14.0 -18.8" fill="#ffffff" fill-rule="evenodd" stroke="none"/>
    <path d="M42.85 -124.05 L46.0 -126.0 45.05 -128.85 57.6 -111.85 42.85 -124.05 M44.9 -129.15 L40.7 -132.15 39.25 -136.05 55.85 -126.9 56.75 -125.7 59.5 -121.05 65.8 -107.55 63.0 -109.45 44.9 -129.15 M-8.0 -107.15 L-7.0 -104.1 -10.35 -100.85 -10.75 -96.9 -6.0 -94.1 -12.3 -92.95 -27.85 -97.55 -23.75 -98.7 -30.1 -103.25 -22.1 -101.25 -34.05 -109.5 -30.75 -109.75 -31.1 -112.6 -34.35 -115.6 -8.0 -107.15 M-25.3 -125.95 L-17.9 -120.2 -20.5 -121.0 -16.4 -119.55 -19.6 -118.1 -29.65 -120.45 -41.2 -121.2 -33.8 -122.35 -44.85 -123.1 -42.95 -124.95 -45.15 -124.9 -42.75 -126.95 -45.45 -129.8 -44.5 -134.05 -41.4 -134.05 -25.3 -125.95 M49.4 -120.9 L47.3 -121.75 51.9 -117.5 49.4 -120.9 M54.75 -87.5 L56.45 -85.2 48.7 -87.75 48.35 -91.1 55.45 -96.35 65.35 -92.75 63.45 -89.0 54.75 -87.5 M66.8 -52.1 L62.3 -54.85 72.8 -55.7 68.75 -53.95 74.8 -54.35 73.0 -53.95 75.35 -53.85 66.8 -52.1 M-3.75 -55.3 L-8.55 -56.6 -6.05 -55.3 -17.9 -53.75 -26.55 -58.05 -17.15 -55.9 -19.95 -60.8 -11.3 -56.95 -17.75 -62.3 -12.55 -61.4 -15.55 -64.25 -10.5 -63.3 -18.6 -66.9 -19.6 -69.2 4.35 -62.6 2.8 -60.35 1.95 -60.35 2.8 -60.1 -3.75 -55.3 M24.6 -45.55 L27.85 -45.0 24.05 -46.95 Q24.05 -49.1 25.0 -50.6 25.9 -52.1 27.2 -52.1 L27.55 -52.25 28.55 -52.5 Q28.95 -52.8 28.95 -53.2 L34.7 -52.15 29.45 -55.1 36.8 -54.95 42.5 -42.2 37.8 -40.0 38.25 -39.15 39.3 -39.45 46.2 -36.15 45.95 -34.85 Q45.65 -34.35 45.25 -34.35 L22.75 -33.75 27.05 -36.35 25.05 -40.35 6.05 -45.45 30.15 -41.6 27.4 -42.2 24.6 -45.55 M-8.8 -50.1 L19.5 -35.65 -23.9 -43.7 -24.65 -46.2 -21.95 -44.75 -25.7 -48.8 -22.8 -49.65 -16.6 -46.35 -33.3 -55.9 -28.25 -54.25 -29.35 -56.95 -10.75 -48.75 -13.5 -51.15 -8.8 -50.1 M23.35 -28.9 L22.5 -33.45 35.4 -27.75 23.35 -28.9 M4.8 -12.65 L2.9 -14.35 22.1 -12.25 19.6 -8.85 Q11.25 -6.7 4.8 -12.65 M89.4 -56.95 Q83.5 -44.9 70.25 -46.1 L68.55 -46.35 69.6 -47.05 73.75 -47.85 72.15 -48.2 80.2 -50.95 86.5 -53.75 Q87.05 -53.75 87.45 -54.3 87.85 -54.85 87.85 -55.65 L88.25 -56.6 89.4 -56.95 M-20.6 -18.2 L-26.75 -25.95 -20.0 -27.3 -2.25 -16.0 -14.0 -18.8 -15.25 -19.35 -14.8 -19.05 -23.75 -22.8 -9.65 -14.4 -20.6 -18.2" fill="#b6c1d3" fill-rule="evenodd" stroke="none"/>
  </g>
</svg>