<?xml version="1.0" encoding="UTF-8" standalone="no"?>
<svg xmlns:xlink="http://www.w3.org/1999/xlink" height="151.55px" width="151.6px" xmlns="http://www.w3.org/2000/svg">
  <g transform="matrix(1.0, 0.0, 0.0, 1.0, 59.15, 155.55)">
    <path d="M10.15 -99.95 L-7.25 -103.1 -10.1 -104.35 10.15 -99.95 M0.1 -100.25 L24.6 -91.2 26.9 -86.4 -17.8 -100.85 0.1 -100.25 M-33.25 -118.15 L-41.0 -119.7 Q-32.95 -122.95 -24.2 -122.7 L-18.45 -122.4 -33.9 -130.1 Q-18.5 -126.5 -5.0 -118.25 1.25 -114.4 7.15 -109.9 L-19.8 -119.2 5.05 -105.7 -14.8 -109.7 -21.7 -118.65 -33.25 -118.15 M13.35 -102.95 Q19.9 -102.95 24.55 -99.95 29.2 -97.0 29.2 -92.75 L13.35 -102.95 M-15.45 -126.25 Q-33.05 -129.7 -46.1 -141.95 L-47.8 -143.6 -46.7 -147.45 2.65 -122.75 -8.5 -126.85 -31.15 -136.45 -15.45 -126.25 M58.05 -109.0 Q45.25 -133.35 21.5 -147.3 15.9 -150.55 10.9 -154.55 L44.55 -136.3 40.05 -141.55 46.65 -136.8 44.95 -140.1 55.7 -130.2 54.8 -132.1 66.25 -114.15 63.75 -113.35 62.05 -115.35 58.05 -109.0 M29.25 -101.95 L18.95 -114.5 21.55 -113.35 29.25 -101.95 M53.8 -55.35 L53.3 -53.9 45.1 -56.8 53.8 -55.35 M75.05 -53.65 L68.45 -54.15 85.35 -61.05 79.95 -55.2 75.05 -53.65 M86.05 -63.1 L73.95 -72.85 85.55 -69.35 83.7 -72.25 86.65 -68.85 86.05 -63.1 M86.95 -54.05 L83.2 -54.9 89.65 -59.1 86.95 -54.05 M10.3 -58.65 L-7.95 -67.45 6.8 -59.75 8.9 -55.45 -8.05 -62.7 17.5 -49.15 19.9 -44.35 -12.4 -55.25 -12.1 -58.2 -10.65 -60.0 -12.6 -63.35 -16.55 -64.95 -8.75 -66.55 -8.6 -71.4 -5.65 -73.4 20.1 -60.3 15.8 -60.35 21.0 -58.1 15.2 -55.95 10.3 -58.65 M12.75 -37.65 L17.25 -37.95 3.8 -40.35 2.7 -40.5 -14.2 -43.9 -16.65 -50.95 -14.25 -53.35 -12.2 -51.85 Q3.05 -40.85 21.95 -40.75 L21.0 -38.6 15.95 -36.85 12.75 -37.65 M20.75 -27.6 L20.4 -25.55 -16.35 -40.8 -14.9 -43.05 10.6 -37.75 22.6 -32.65 7.1 -33.25 20.75 -27.6 M47.25 -25.7 L45.95 -28.9 46.2 -36.65 47.25 -25.7 M45.6 -28.2 L45.0 -25.6 40.75 -25.5 45.6 -28.2 M-9.2 -9.5 L-0.25 -8.85 -0.45 -9.05 8.2 -9.15 -4.05 -6.35 -9.2 -9.5 M-10.95 -12.25 L-10.4 -10.25 -38.5 -27.6 -27.55 -11.4 -30.9 -7.9 -32.15 -9.7 Q-36.6 -16.4 -38.5 -24.25 -40.75 -33.6 -47.05 -41.0 L-37.25 -32.35 -42.7 -41.25 Q-56.85 -64.7 -58.15 -91.95 L-55.1 -82.2 Q-44.15 -49.35 -16.6 -28.65 -9.8 -23.5 -2.4 -19.8 L-17.0 -21.35 -25.8 -28.15 -22.75 -24.9 -32.9 -33.2 -31.4 -31.2 Q-22.95 -19.9 -9.2 -17.0 L-7.8 -15.05 -10.55 -13.2 -15.3 -15.0 -10.95 -12.25 M24.15 -16.25 L27.35 -15.65 23.85 -11.85 24.15 -16.25 M20.7 -7.55 L24.6 -6.25 21.75 -5.35 20.7 -7.55 M62.75 -13.5 L61.2 -10.5 60.25 -11.6 62.75 -13.5 M-30.85 -120.9 L-31.3 -120.9 -31.1 -120.65 -30.85 -120.9" fill="#ffffff" fill-rule="evenodd" stroke="none"/>
    <path d="M-7.25 -103.1 L-15.75 -104.75 0.1 -100.25 -17.8 -100.85 -19.65 -101.35 -15.15 -102.6 -18.55 -103.5 -16.3 -105.8 -26.85 -108.25 -18.55 -109.75 -29.4 -112.75 -30.25 -116.7 -33.25 -118.15 -21.7 -118.65 -14.8 -109.7 5.05 -105.7 13.35 -102.95 29.2 -92.75 10.15 -99.95 -10.1 -104.35 -7.25 -103.1 M-15.45 -126.25 L-31.15 -136.45 -8.5 -126.85 -15.45 -126.25 M58.05 -109.0 L62.05 -115.35 63.75 -113.35 66.25 -114.15 Q72.15 -97.2 60.0 -83.5 L58.5 -81.9 58.05 -109.0 M53.8 -55.35 L68.45 -54.15 75.05 -53.65 53.3 -53.9 53.8 -55.35 M40.15 -78.75 L42.65 -80.25 41.35 -82.5 47.65 -81.85 51.45 -77.0 40.15 -78.75 M37.3 -75.65 L37.05 -78.65 46.65 -68.45 45.1 -66.3 34.3 -75.7 37.3 -75.65 M85.35 -61.05 L86.95 -62.4 86.05 -63.1 86.65 -68.85 90.2 -64.8 91.45 -56.45 86.95 -54.05 89.65 -59.1 79.95 -55.2 85.35 -61.05 M6.8 -59.75 L-7.95 -67.45 10.3 -58.65 6.8 -59.75 M15.2 -55.95 L21.0 -58.1 30.15 -53.5 23.8 -58.75 26.75 -59.2 28.3 -62.0 40.15 -55.65 33.9 -39.8 36.1 -37.5 31.55 -35.4 15.95 -36.85 21.0 -38.6 21.95 -40.75 Q3.05 -40.85 -12.2 -51.85 L-14.25 -53.35 -16.65 -50.95 -14.2 -43.9 2.7 -40.5 10.6 -37.75 -14.9 -43.05 -16.35 -40.8 -26.45 -46.65 -26.1 -58.2 -20.85 -62.7 -20.25 -65.6 -16.0 -67.45 -17.05 -69.85 -19.3 -71.0 -20.2 -74.3 -18.1 -77.0 -5.65 -73.4 -8.6 -71.4 -8.75 -66.55 -16.55 -64.95 -12.6 -63.35 -10.65 -60.0 -12.1 -58.2 -12.4 -55.25 19.9 -44.35 17.5 -49.15 -8.05 -62.7 8.9 -55.45 22.25 -53.65 15.2 -55.95 M3.8 -40.35 L17.25 -37.95 12.75 -37.65 3.8 -40.35 M20.4 -25.55 L20.75 -27.6 40.75 -25.5 45.0 -25.6 45.6 -28.2 45.95 -28.9 47.25 -25.7 Q35.7 -19.8 23.65 -24.3 22.0 -24.85 20.4 -25.55 M-0.25 -8.85 L-9.2 -9.5 -10.25 -9.6 -10.4 -10.25 -10.95 -12.25 -0.25 -8.85 M-4.05 -6.35 L8.2 -9.15 -0.45 -9.05 -10.55 -13.2 -7.8 -15.05 -9.2 -17.0 Q-22.95 -19.9 -31.4 -31.2 L-32.9 -33.2 -22.75 -24.9 -17.0 -21.35 -2.4 -19.8 Q8.65 -13.2 21.15 -15.5 L24.15 -16.25 23.85 -11.85 17.5 -8.25 20.7 -7.55 21.75 -5.35 4.95 -8.2 15.15 -5.0 -4.05 -6.35" fill="#b6c1d3" fill-rule="evenodd" stroke="none"/>
  </g>
</svg>