<?xml version="1.0" encoding="UTF-8" standalone="no"?>
<svg xmlns:xlink="http://www.w3.org/1999/xlink" height="4.35px" width="10.75px" xmlns="http://www.w3.org/2000/svg">
  <g transform="matrix(1.0, 0.0, 0.0, 1.0, 0.75, 5.2)">
    <path d="M4.75 -4.2 L5.4 -3.95 5.65 -3.6 Q5.65 -3.35 5.25 -3.35 4.9 -3.35 4.7 -3.6 L4.5 -3.95 4.75 -4.2 M0.25 -2.6 Q0.25 -2.95 0.9 -2.85 1.55 -2.75 1.55 -2.25 1.55 -1.9 1.15 -1.9 0.9 -1.9 0.55 -2.2 0.25 -2.45 0.25 -2.6 M9.0 -2.05 L8.8 -1.85 8.4 -2.3 Q8.4 -2.55 8.85 -2.55 L9.0 -2.05" fill="#ffffff" fill-rule="evenodd" stroke="none"/>
  </g>
</svg>