<?xml version="1.0" encoding="UTF-8" standalone="no"?>
<svg xmlns:xlink="http://www.w3.org/1999/xlink" height="4.75px" width="3.95px" xmlns="http://www.w3.org/2000/svg">
  <g id="shape0" transform="matrix(1.0, 0.0, 0.0, 1.0, 1.95, 2.35)">
    <path d="M-0.15 -1.25 L0.45 -1.25 0.6 -1.05 Q1.0 -0.4 1.0 0.45 1.0 1.4 0.7 1.4 L0.25 0.85 0.05 0.15 0.6 0.6 -0.15 -1.25" fill="#ffffcc" fill-rule="evenodd" stroke="none"/>
    <path d="M0.25 0.85 L0.25 0.9 0.2 0.8 -0.95 -0.45 -0.3 -1.2 -0.15 -1.25 0.6 0.6 0.05 0.15 0.25 0.85 0.2 0.8 0.25 0.85" fill="#c9a97a" fill-rule="evenodd" stroke="none"/>
    <path d="M-0.15 -1.25 L0.45 -1.25 0.6 -1.05 Q1.0 -0.4 1.0 0.45 1.0 1.4 0.7 1.4 L0.25 0.85 0.2 0.8 -0.95 -0.45 -0.3 -1.2" fill="none" stroke="#a36a6a" stroke-linecap="round" stroke-linejoin="round" stroke-width="1"/>
  </g>
</svg>