<?xml version="1.0" encoding="UTF-8" standalone="no"?>
<svg xmlns:xlink="http://www.w3.org/1999/xlink" height="7.6px" width="8.55px" xmlns="http://www.w3.org/2000/svg">
  <g transform="matrix(1.0, 0.0, 0.0, 1.0, 4.3, 3.8)">
    <path d="M-2.4 -0.15 Q-3.3 -0.15 -3.3 -1.0 L-3.05 -1.95 -2.5 -2.8 -2.15 -2.8 Q-1.3 -2.9 -1.2 -2.15 -1.15 -1.45 -1.45 -0.9 -1.8 -0.15 -2.4 -0.15 M1.15 -0.6 L2.35 -0.15 Q3.25 0.4 3.25 1.15 L2.95 2.05 Q2.45 2.8 1.5 2.8 0.7 2.8 0.15 2.3 -0.35 1.8 -0.35 0.95 L0.0 0.0 0.35 -0.35 0.6 -0.45 1.15 -0.6" fill="#ffffff" fill-rule="evenodd" stroke="none"/>
    <path d="M1.15 -0.6 L0.6 -0.45 0.35 -0.35 0.0 0.0 -0.35 0.95 Q-0.35 1.8 0.15 2.3 0.7 2.8 1.5 2.8 2.45 2.8 2.95 2.05 L3.25 1.15 Q3.25 0.4 2.35 -0.15 L1.15 -0.6 M-2.4 -0.15 Q-1.8 -0.15 -1.45 -0.9 -1.15 -1.45 -1.2 -2.15 -1.3 -2.9 -2.15 -2.8 L-2.5 -2.8 -3.05 -1.95 -3.3 -1.0 Q-3.3 -0.15 -2.4 -0.15 Z" fill="none" stroke="#a36a6a" stroke-linecap="round" stroke-linejoin="round" stroke-width="1"/>
    <path d="M-2.8 -0.55 L-3.1 -0.8 -3.3 -1.05 -2.8 -1.4 Q-2.35 -1.45 -2.35 -1.05 -2.35 -0.55 -2.8 -0.55 M1.5 1.6 L1.2 1.75 Q0.6 1.75 0.6 1.35 0.6 1.0 1.15 1.0 1.65 1.0 1.65 1.3 L1.5 1.6" fill="#330000" fill-rule="evenodd" stroke="none"/>
  </g>
</svg>