<?xml version="1.0" encoding="UTF-8" standalone="no"?>
<svg xmlns:xlink="http://www.w3.org/1999/xlink" height="14.8px" width="19.6px" xmlns="http://www.w3.org/2000/svg">
  <g transform="matrix(1.0, 0.0, 0.0, 1.0, 9.8, 7.4)">
    <path d="M4.85 -6.4 L5.5 -6.4 5.35 -6.35 5.1 -6.2 3.05 -4.65 4.8 -4.7 Q2.1 -3.95 2.1 -2.85 L2.15 -2.65 2.75 -2.65 6.2 -3.65 7.55 -4.05 5.85 -1.7 6.55 -1.5 Q7.75 -1.55 8.8 -2.1 L8.5 -0.85 Q7.85 0.9 6.45 2.1 L5.9 2.75 6.1 2.75 7.2 2.45 8.15 2.25 6.25 3.8 Q4.6 4.95 2.8 5.55 L-1.05 6.35 -3.85 6.0 Q-4.75 5.6 -5.6 5.35 -7.45 4.65 -8.3 2.85 -9.1 1.25 -8.65 -0.6 L-8.45 -1.05 -7.4 -2.65 Q-6.15 -3.85 -4.7 -4.7 L-4.45 -4.8 -5.2 -4.2 Q-6.6 -2.9 -6.6 -2.5 L-6.55 -2.2 -6.2 -2.1 -3.2 -4.95 -3.25 -5.1 -3.55 -5.2 -2.2 -5.65 -2.0 -5.75 -3.25 -4.55 -2.65 -4.75 Q-3.85 -3.65 -3.85 -2.85 -3.9 -1.6 -3.2 -1.6 -2.8 -1.6 -2.1 -2.15 L-1.35 -2.8 0.2 -4.35 2.9 -5.5 4.75 -6.35 4.85 -6.4 M4.85 -2.9 L4.0 -2.95 3.35 -2.75 Q1.0 -2.35 -0.65 -0.75 L0.25 -0.45 0.5 0.0 0.95 0.3 1.35 0.35 1.55 0.85 Q2.85 0.75 3.7 -0.2 4.8 -1.4 5.1 -2.65 L4.85 -2.9" fill="#97b946" fill-rule="evenodd" stroke="none"/>
    <path d="M4.85 -6.4 L4.75 -6.35 2.9 -5.5 0.2 -4.35 -1.35 -2.8 -2.1 -2.15 Q-2.8 -1.6 -3.2 -1.6 -3.9 -1.6 -3.85 -2.85 -3.85 -3.65 -2.65 -4.75 L-1.35 -5.25 -0.9 -5.4 Q1.4 -6.15 3.8 -6.35 L4.85 -6.4 M-3.55 -5.2 L-3.25 -5.1 -3.2 -4.95 -6.2 -2.1 -6.55 -2.2 -6.6 -2.5 Q-6.6 -2.9 -5.2 -4.2 L-4.45 -4.8 -3.55 -5.2 M7.55 -4.05 L6.2 -3.65 2.75 -2.65 2.15 -2.65 2.1 -2.85 Q2.1 -3.95 4.8 -4.7 L7.95 -4.8 7.55 -4.05 M4.85 -2.9 L5.1 -2.65 Q4.8 -1.4 3.7 -0.2 2.85 0.75 1.55 0.85 L1.35 0.35 0.95 0.3 0.5 0.0 0.25 -0.45 -0.65 -0.75 Q1.0 -2.35 3.35 -2.75 L4.0 -2.95 4.85 -2.9" fill="#e8f097" fill-rule="evenodd" stroke="none"/>
    <path d="M4.8 -4.7 L3.05 -4.65 5.1 -6.2 5.35 -6.35 5.5 -6.4 4.85 -6.4 3.8 -6.35 Q1.4 -6.15 -0.9 -5.4 L-1.35 -5.25 -2.65 -4.75 -3.25 -4.55 -2.0 -5.75 -2.2 -5.65 -3.55 -5.2 -4.45 -4.8 -4.7 -4.7 Q-6.15 -3.85 -7.4 -2.65 L-8.45 -1.05 -8.65 -0.6 Q-9.1 1.25 -8.3 2.85 -7.45 4.65 -5.6 5.35 -4.75 5.6 -3.85 6.0 L-1.05 6.35 2.8 5.55 Q4.6 4.95 6.25 3.8 L8.15 2.25 7.2 2.45 6.1 2.75 5.9 2.75 6.45 2.1 Q7.85 0.9 8.5 -0.85 L8.8 -2.1 Q7.75 -1.55 6.55 -1.5 L5.85 -1.7 7.55 -4.05 7.95 -4.8 4.8 -4.7 Z" fill="none" stroke="#660000" stroke-linecap="round" stroke-linejoin="round" stroke-opacity="0.6" stroke-width="1"/>
  </g>
</svg>