<?xml version="1.0" encoding="UTF-8" standalone="no"?>
<svg xmlns:xlink="http://www.w3.org/1999/xlink" height="6.15px" width="9.15px" xmlns="http://www.w3.org/2000/svg">
  <g transform="matrix(1.0, 0.0, 0.0, 1.0, 4.6, 3.05)">
    <path d="M0.2 1.15 Q-1.0 1.85 -2.5 2.1 L-2.95 2.05 -2.9 1.8 Q-2.4 1.0 -1.5 0.6 L-1.55 0.6 -3.55 0.8 -3.55 0.55 -1.5 -0.45 0.1 -0.05 0.35 0.65 0.2 1.15" fill="#660000" fill-rule="evenodd" stroke="none"/>
    <path d="M-1.5 -0.45 L1.55 -1.9 3.05 -1.8 3.55 -1.3 Q3.45 -0.25 2.4 0.2 L0.2 1.15 0.35 0.65 0.1 -0.05 -1.5 -0.45" fill="#97b946" fill-rule="evenodd" stroke="none"/>
    <path d="M-1.5 -0.45 L1.55 -1.9 3.05 -1.8 3.55 -1.3 Q3.45 -0.25 2.4 0.2 L0.2 1.15 Q-1.0 1.85 -2.5 2.1 L-2.95 2.05 -2.9 1.8 Q-2.4 1.0 -1.5 0.6 L-1.55 0.6 -3.55 0.8 -3.55 0.55 -1.5 -0.45 0.1 -0.05 0.35 0.65 0.2 1.15" fill="none" stroke="#660000" stroke-linecap="round" stroke-linejoin="round" stroke-opacity="0.6" stroke-width="1"/>
  </g>
</svg>