<?xml version="1.0" encoding="UTF-8" standalone="no"?>
<svg xmlns:xlink="http://www.w3.org/1999/xlink" height="8.2px" width="11.7px" xmlns="http://www.w3.org/2000/svg">
  <g transform="matrix(1.0, 0.0, 0.0, 1.0, 5.85, 4.1)">
    <path d="M0.85 1.8 L1.05 1.6 0.9 1.8 0.85 1.8" fill="#ffcc99" fill-rule="evenodd" stroke="none"/>
    <path d="M-3.2 -0.75 L-4.05 -0.2 -4.1 -0.85 -3.9 -1.65 -3.2 -0.75 M-0.05 1.5 L1.05 1.6 0.85 1.8 0.25 2.5 -0.05 2.0 -0.05 1.5" fill="#ffffff" fill-rule="evenodd" stroke="none"/>
    <path d="M-3.2 -0.75 L-3.9 -1.65 -4.1 -0.85 -4.05 -0.2 -3.2 -0.75 -0.75 1.2 -3.2 -0.75 M-0.05 1.5 L-0.75 1.2 -0.75 1.25 -0.55 1.6 -1.2 1.85 Q-2.25 1.85 -4.2 0.75 -5.6 -1.3 -4.0 -3.1 L-2.45 -2.2 -0.25 -0.85 Q0.9 -0.1 2.15 0.0 L2.65 0.1 Q2.3 0.15 2.3 0.3 L2.35 1.05 1.95 1.35 1.05 1.6 -0.05 1.5" fill="#ffb299" fill-rule="evenodd" stroke="none"/>
    <path d="M-0.75 1.2 L-0.05 1.5 -0.05 2.0 0.25 2.5 0.85 1.8 0.9 1.8 1.05 1.6 1.95 1.35 2.35 1.05 2.3 0.3 Q2.3 0.15 2.65 0.1 L3.65 0.35 4.85 0.65 4.75 1.15 4.5 1.75 Q2.9 2.9 0.75 3.1 L-0.1 3.1 -1.7 2.8 -2.7 2.3 -4.2 0.75 Q-2.25 1.85 -1.2 1.85 L-0.55 1.6 -0.75 1.25 -0.75 1.2" fill="#ea7c62" fill-rule="evenodd" stroke="none"/>
    <path d="M-3.2 -0.75 L-4.05 -0.2 -4.1 -0.85 -3.9 -1.65 -3.2 -0.75 -0.75 1.2 -0.05 1.5 1.05 1.6 1.95 1.35 M2.65 0.1 L2.15 0.0 Q0.9 -0.1 -0.25 -0.85 L-2.45 -2.2 -4.0 -3.1 Q-5.6 -1.3 -4.2 0.75 L-2.7 2.3 -1.7 2.8 -0.1 3.1 0.75 3.1 Q2.9 2.9 4.5 1.75 L4.75 1.15 4.85 0.65 3.65 0.35 2.65 0.1 M-0.05 1.5 L-0.05 2.0 0.25 2.5 0.85 1.8 1.05 1.6" fill="none" stroke="#660000" stroke-linecap="round" stroke-linejoin="round" stroke-opacity="0.6" stroke-width="1"/>
  </g>
</svg>