<?xml version="1.0" encoding="UTF-8" standalone="no"?>
<svg xmlns:xlink="http://www.w3.org/1999/xlink" height="39.75px" width="24.65px" xmlns="http://www.w3.org/2000/svg">
  <g transform="matrix(1.0, 0.0, 0.0, 1.0, 23.05, 71.65)">
    <path d="M-16.05 -56.65 L-20.5 -56.05 -22.05 -67.3 -18.0 -67.85 Q-17.4 -66.45 -16.9 -62.7 L-16.05 -56.65" fill="#e0e8eb" fill-rule="evenodd" stroke="none"/>
    <path d="M-12.6 -70.35 L-10.1 -70.65 -9.85 -68.95 -12.35 -68.6 -12.6 -70.35 M-8.4 -57.7 L-5.2 -33.4 -7.3 -33.15 -10.75 -57.35 -8.4 -57.7" fill="#000000" fill-rule="evenodd" stroke="none"/>
    <path d="M-16.05 -56.65 L-16.9 -62.7 Q-17.4 -66.45 -18.0 -67.85 L-14.0 -68.4 -12.35 -68.6 -9.85 -68.95 -0.95 -70.1 0.6 -58.85 -8.4 -57.7 -10.75 -57.35 -12.5 -57.15 -16.05 -56.65" fill="#b8c9cf" fill-rule="evenodd" stroke="none"/>
    <path d="M-14.0 -68.4 L-14.2 -70.15 -12.6 -70.35 -12.35 -68.6 -14.0 -68.4 M-7.3 -33.15 L-9.3 -32.9 -12.5 -57.15 -10.75 -57.35 -7.3 -33.15" fill="#725327" fill-rule="evenodd" stroke="none"/>
    <path d="M-18.0 -67.85 L-22.05 -67.3 -20.5 -56.05 -16.05 -56.65 -12.5 -57.15 -10.75 -57.35 -8.4 -57.7 -5.2 -33.4 -7.3 -33.15 -9.3 -32.9 -12.5 -57.15 M-18.0 -67.85 L-14.0 -68.4 -14.2 -70.15 -12.6 -70.35 -12.35 -68.6 -9.85 -68.95 -0.95 -70.1 0.6 -58.85 -8.4 -57.7 M-14.0 -68.4 L-12.35 -68.6" fill="none" stroke="#000000" stroke-linecap="round" stroke-linejoin="round" stroke-opacity="0.4" stroke-width="1"/>
  </g>
</svg>