<?xml version="1.0" encoding="UTF-8" standalone="no"?>
<svg xmlns:xlink="http://www.w3.org/1999/xlink" height="24.25px" width="39.8px" xmlns="http://www.w3.org/2000/svg">
  <g transform="matrix(1.0, 0.0, 0.0, 1.0, 0.05, 39.45)">
    <path d="M25.75 -30.4 L26.05 -33.95 32.15 -33.45 Q35.85 -33.15 37.4 -33.35 L37.05 -29.35 36.9 -27.7 36.65 -25.2 35.8 -16.2 24.5 -17.25 25.35 -26.25 25.55 -28.65 25.75 -30.4" fill="#b8c9cf" fill-rule="evenodd" stroke="none"/>
    <path d="M25.55 -28.65 L25.35 -26.25 0.95 -28.5 1.15 -30.65 25.55 -28.65 M36.65 -25.2 L36.9 -27.7 38.65 -27.55 38.4 -25.05 36.65 -25.2" fill="#000000" fill-rule="evenodd" stroke="none"/>
    <path d="M25.75 -30.4 L25.55 -28.65 1.15 -30.65 1.3 -32.6 25.75 -30.4 M36.9 -27.7 L37.05 -29.35 38.75 -29.15 38.65 -27.55 36.9 -27.7" fill="#725327" fill-rule="evenodd" stroke="none"/>
    <path d="M37.4 -33.35 Q35.85 -33.15 32.15 -33.45 L26.05 -33.95 26.45 -38.45 37.8 -37.4 37.4 -33.35" fill="#e0e8eb" fill-rule="evenodd" stroke="none"/>
    <path d="M26.05 -33.95 L25.75 -30.4 25.55 -28.65 25.35 -26.25 24.5 -17.25 35.8 -16.2 36.65 -25.2 36.9 -27.7 37.05 -29.35 37.4 -33.35 37.8 -37.4 26.45 -38.45 26.05 -33.95 M36.9 -27.7 L38.65 -27.55 38.75 -29.15 37.05 -29.35 M1.15 -30.65 L1.3 -32.6 25.75 -30.4 M25.35 -26.25 L0.95 -28.5 1.15 -30.65" fill="none" stroke="#000000" stroke-linecap="round" stroke-linejoin="round" stroke-opacity="0.4" stroke-width="1"/>
  </g>
</svg>