<?xml version="1.0" encoding="UTF-8" standalone="no"?>
<svg xmlns:xlink="http://www.w3.org/1999/xlink" height="26.35px" width="40.15px" xmlns="http://www.w3.org/2000/svg">
  <g transform="matrix(1.0, 0.0, 0.0, 1.0, 46.6, 15.3)">
    <path d="M-31.75 -5.45 L-8.95 -14.3 -8.15 -12.35 -30.85 -3.25 -31.75 -5.45 M-43.05 1.65 L-43.95 -0.7 -42.3 -1.35 -41.4 1.0 -43.05 1.65" fill="#000000" fill-rule="evenodd" stroke="none"/>
    <path d="M-42.3 -1.35 L-45.6 -9.8 -35.0 -13.9 -31.75 -5.45 -30.85 -3.25 -30.25 -1.6 -28.9 1.75 -34.55 4.0 Q-38.05 5.4 -39.3 6.3 L-40.8 2.5 -41.4 1.0 -42.3 -1.35" fill="#b8c9cf" fill-rule="evenodd" stroke="none"/>
    <path d="M-8.15 -12.35 L-7.45 -10.45 -30.25 -1.6 -30.85 -3.25 -8.15 -12.35 M-40.8 2.5 L-42.45 3.15 -43.05 1.65 -41.4 1.0 -40.8 2.5" fill="#725327" fill-rule="evenodd" stroke="none"/>
    <path d="M-28.9 1.75 L-27.3 6.0 -37.85 10.05 -39.3 6.3 Q-38.05 5.4 -34.55 4.0 L-28.9 1.75" fill="#e0e8eb" fill-rule="evenodd" stroke="none"/>
    <path d="M-42.3 -1.35 L-45.6 -9.8 -35.0 -13.9 -31.75 -5.45 -8.95 -14.3 -8.15 -12.35 -7.45 -10.45 -30.25 -1.6 -28.9 1.75 -27.3 6.0 -37.85 10.05 -39.3 6.3 -40.8 2.5 -42.45 3.15 -43.05 1.65 -41.4 1.0 -40.8 2.5 M-42.3 -1.35 L-41.4 1.0 M-30.25 -1.6 L-30.85 -3.25 -31.75 -5.45" fill="none" stroke="#000000" stroke-linecap="round" stroke-linejoin="round" stroke-opacity="0.4" stroke-width="1"/>
  </g>
</svg>