<?xml version="1.0" encoding="UTF-8" standalone="no"?>
<svg xmlns:xlink="http://www.w3.org/1999/xlink" height="8.45px" width="8.95px" xmlns="http://www.w3.org/2000/svg">
  <g id="shape0" transform="matrix(1.0, 0.0, 0.0, 1.0, 4.45, 4.2)">
    <path d="M0.7 -3.05 L1.4 -3.1 1.55 -2.9 1.8 -2.15 2.45 -0.55 2.1 0.4 1.2 1.1 Q0.1 1.1 -0.1 0.6 L-0.45 0.95 Q-1.1 0.95 -1.55 -0.6 L-1.35 -1.45 -0.95 -2.4 -0.9 -2.85 -0.8 -2.85 0.7 -3.05 M-3.15 -0.65 L-2.8 -0.8 -2.75 -0.8 -2.45 -0.8 Q-1.8 -0.75 -1.65 -0.45 L-1.6 -0.2 -1.7 0.15 -1.75 0.15 -1.85 0.25 -2.5 0.5 Q-2.85 0.5 -3.1 0.15 L-3.3 -0.3 -3.25 -0.5 -3.15 -0.55 -3.15 -0.6 -3.15 -0.65 M-3.15 -0.6 L-2.75 -0.8 -3.15 -0.6 M-1.75 0.15 L-1.65 -0.45 -1.75 0.15" fill="#ffffff" fill-rule="evenodd" stroke="none"/>
    <path d="M2.1 -3.2 L2.65 -2.6 3.3 -1.4 3.45 0.45 2.95 1.75 2.0 2.7 0.65 3.25 -0.45 3.2 -1.4 2.9 -2.6 1.95 -3.4 0.35 Q-3.6 -0.15 -3.25 -0.5 L-3.3 -0.3 -3.1 0.15 Q-2.85 0.5 -2.5 0.5 L-1.85 0.25 -1.75 0.15 -1.7 0.15 -1.6 -0.2 -1.65 -0.45 -1.6 -0.85 -2.6 -0.9 -2.75 -0.8 -2.6 -0.9 -1.6 -0.85 -1.65 -0.45 Q-1.8 -0.75 -2.45 -0.8 L-2.75 -0.8 -2.8 -0.8 -3.15 -0.65 Q-3.5 -1.2 -3.15 -1.6 L-2.35 -2.6 -1.3 -2.8 -0.9 -2.85 -0.95 -2.4 -1.35 -1.45 -1.55 -0.6 Q-1.1 0.95 -0.45 0.95 L-0.1 0.6 Q0.1 1.1 1.2 1.1 L2.1 0.4 2.45 -0.55 1.8 -2.15 1.55 -2.9 1.4 -3.1 0.7 -3.05 2.1 -3.2 M-1.9 1.2 L-1.75 0.15 -1.9 1.2" fill="#d6baba" fill-rule="evenodd" stroke="none"/>
    <path d="M-3.25 -0.5 Q-3.6 -0.15 -3.4 0.35 L-2.6 1.95 -1.4 2.9 -0.45 3.2 0.65 3.25 2.0 2.7 2.95 1.75 3.45 0.45 3.3 -1.4 2.65 -2.6 2.1 -3.2 M-0.9 -2.85 L-1.3 -2.8 -2.35 -2.6 -3.15 -1.6 Q-3.5 -1.2 -3.15 -0.65 L-3.15 -0.6 -3.15 -0.55 -3.25 -0.5 M-2.75 -0.8 L-2.6 -0.9 -1.6 -0.85 -1.65 -0.45 -1.75 0.15 -1.9 1.2 M-2.75 -0.8 L-3.15 -0.6" fill="none" stroke="#660000" stroke-linecap="round" stroke-linejoin="round" stroke-opacity="0.4" stroke-width="1"/>
  </g>
</svg>