<?xml version="1.0" encoding="UTF-8" standalone="no"?>
<svg xmlns:xlink="http://www.w3.org/1999/xlink" height="13.45px" width="12.05px" xmlns="http://www.w3.org/2000/svg">
  <g id="shape0" transform="matrix(1.0, 0.0, 0.0, 1.0, 6.05, 6.75)">
    <path d="M1.55 -5.55 L1.85 -5.2 Q2.55 -4.2 2.55 -3.3 L2.2 -1.3 1.85 -0.3 0.7 1.0 Q-0.65 2.1 -2.25 2.1 -3.4 2.1 -4.6 1.45 L-4.65 1.4 -4.7 1.3 -4.75 1.2 -4.8 1.15 -5.0 -0.35 -5.0 -1.3 Q-4.85 -3.15 -3.5 -4.4 -2.15 -5.65 -0.35 -5.75 L-0.3 -5.75 1.55 -5.55 M-2.6 3.0 L-2.55 3.0 -2.55 3.05 -2.6 3.0 M-4.55 1.95 L-3.65 2.7 -2.25 4.05 Q-2.25 4.4 -2.9 4.7 L-3.25 4.9 -3.75 4.1 -4.55 1.95" fill="#faf8f8" fill-rule="evenodd" stroke="none"/>
    <path d="M2.2 -5.4 L2.55 -5.25 2.85 -5.1 4.2 -3.95 4.8 -2.8 Q5.3 -1.35 4.45 -0.15 L2.8 1.95 0.6 4.1 Q-0.25 4.75 -1.3 5.2 L-2.55 5.7 -2.9 5.35 -3.2 5.0 -3.25 4.9 -2.9 4.7 Q-2.25 4.4 -2.25 4.05 L-3.65 2.7 -4.55 1.95 -4.7 1.5 -4.6 1.45 Q-3.4 2.1 -2.25 2.1 -0.65 2.1 0.7 1.0 L1.85 -0.3 2.2 -1.3 2.55 -3.3 Q2.55 -4.2 1.85 -5.2 L1.55 -5.55 2.2 -5.4 1.55 -5.55 1.55 -5.6 2.2 -5.4 M-2.6 3.0 Q-3.55 2.85 -4.1 2.15 L-4.6 1.45 -4.1 2.15 Q-3.55 2.85 -2.6 3.0 L-2.55 3.05 -2.55 3.0 -2.6 3.0 M-0.9 3.0 L-1.65 3.05 -2.55 3.0 -1.65 3.05 -0.9 3.0" fill="#d6baba" fill-rule="evenodd" stroke="none"/>
    <path d="M-3.25 4.9 L-3.2 5.0 -2.9 5.35 -2.55 5.7 -1.3 5.2 Q-0.25 4.75 0.6 4.1 L2.8 1.95 4.45 -0.15 Q5.3 -1.35 4.8 -2.8 L4.2 -3.95 2.85 -5.1 2.55 -5.25 2.2 -5.4 1.55 -5.55 -0.3 -5.75 -0.35 -5.75 Q-2.15 -5.65 -3.5 -4.4 -4.85 -3.15 -5.0 -1.3 L-5.0 -0.35 -4.8 1.15 -4.75 1.2 -4.7 1.3 -4.65 1.4 -4.6 1.45 -4.1 2.15 Q-3.55 2.85 -2.6 3.0 L-2.55 3.0 -1.65 3.05 -0.9 3.0 M-4.75 1.2 L-4.75 1.3 -4.7 1.5 -4.55 1.95 -3.75 4.1 -3.25 4.9" fill="none" stroke="#660000" stroke-linecap="round" stroke-linejoin="round" stroke-opacity="0.4" stroke-width="1"/>
  </g>
</svg>