<?xml version="1.0" encoding="UTF-8" standalone="no"?>
<svg xmlns:xlink="http://www.w3.org/1999/xlink" height="12.05px" width="15.05px" xmlns="http://www.w3.org/2000/svg">
  <g transform="matrix(1.0, 0.0, 0.0, 1.0, 7.9, 9.55)">
    <path d="M3.25 -3.8 Q2.8 -3.8 2.6 -4.25 L2.5 -4.55 Q2.5 -5.15 3.25 -5.2 4.0 -5.3 4.0 -4.5 L3.8 -4.05 3.25 -3.8" fill="#ffffff" fill-rule="evenodd" stroke="none"/>
    <path d="M4.25 -6.7 L3.6 -7.15 3.4 -7.2 2.6 -7.25 Q1.55 -7.25 0.55 -6.65 -0.6 -5.9 -1.45 -4.25 L0.5 -5.75 Q1.6 -6.35 2.6 -6.5 L3.45 -6.6 4.5 -6.4 5.05 -5.8 Q6.15 -4.4 6.15 -3.3 L5.9 -0.95 Q5.6 -0.05 4.75 0.75 3.85 1.5 1.2 1.5 L-2.8 1.1 Q-6.1 0.0 -6.9 -1.0 L-6.1 -1.55 -5.8 -1.8 -4.2 -0.95 -3.1 -0.65 -1.45 -0.35 1.35 -0.2 1.05 -0.25 -2.25 -1.4 -3.1 -1.8 Q-4.75 -2.75 -5.15 -3.5 L-4.9 -4.65 Q-4.5 -5.85 -3.2 -6.8 L-1.85 -7.5 -1.85 -7.55 Q-0.75 -8.55 1.65 -8.55 2.45 -8.55 3.3 -7.9 L3.8 -7.5 4.3 -6.75 4.25 -6.7 M-3.95 -4.5 Q-2.7 -7.1 -1.85 -7.5 -2.7 -7.1 -3.95 -4.5 M3.25 -3.8 L3.8 -4.05 4.0 -4.5 Q4.0 -5.3 3.25 -5.2 2.5 -5.15 2.5 -4.55 L2.6 -4.25 Q2.8 -3.8 3.25 -3.8" fill="#bf404d" fill-rule="evenodd" stroke="none"/>
    <path d="M-1.45 -4.25 Q-0.6 -5.9 0.55 -6.65 1.55 -7.25 2.6 -7.25 L3.4 -7.2 3.6 -7.15 4.25 -6.7 4.4 -6.55 4.5 -6.4 3.45 -6.6 2.6 -6.5 Q1.6 -6.35 0.5 -5.75 L-1.45 -4.25 M-5.15 -3.5 Q-4.75 -2.75 -3.1 -1.8 L-2.25 -1.4 1.05 -0.25 1.35 -0.2 -1.45 -0.35 -3.1 -0.65 -4.2 -0.95 -5.8 -1.8 -5.75 -1.8 -5.45 -2.4 -5.15 -3.5" fill="#802b33" fill-rule="evenodd" stroke="none"/>
    <path d="M4.25 -6.7 L3.6 -7.15 3.4 -7.2 2.6 -7.25 Q1.55 -7.25 0.55 -6.65 -0.6 -5.9 -1.45 -4.25 M4.5 -6.4 L4.4 -6.55 4.25 -6.7 M4.3 -6.75 L3.8 -7.5 3.3 -7.9 Q2.45 -8.55 1.65 -8.55 -0.75 -8.55 -1.85 -7.55 L-1.85 -7.5 Q-2.7 -7.1 -3.95 -4.5 M4.3 -6.75 L4.4 -6.55 M-5.15 -3.5 L-5.45 -2.4 -5.75 -1.8 M-5.8 -1.8 L-6.1 -1.55 -6.9 -1.0 Q-6.1 0.0 -2.8 1.1 L1.2 1.5 Q3.85 1.5 4.75 0.75 5.6 -0.05 5.9 -0.95 L6.15 -3.3 Q6.15 -4.4 5.05 -5.8 L4.5 -6.4 M-1.85 -7.5 L-3.2 -6.8 Q-4.5 -5.85 -4.9 -4.65 L-5.15 -3.5" fill="none" stroke="#660000" stroke-linecap="round" stroke-linejoin="round" stroke-opacity="0.4" stroke-width="1"/>
  </g>
</svg>