<?xml version="1.0" encoding="UTF-8" standalone="no"?>
<svg xmlns:xlink="http://www.w3.org/1999/xlink" height="35.85px" width="38.8px" xmlns="http://www.w3.org/2000/svg">
  <g transform="matrix(1.0, 0.0, 0.0, 1.0, 0.65, 29.65)">
    <path d="M14.25 -12.4 L14.35 -12.45 15.2 -11.6 Q16.25 -10.75 17.25 -10.75 18.45 -10.75 20.4 -12.25 L22.85 -14.7 32.0 -16.55 35.45 -16.95 35.5 -16.85 36.0 -16.05 36.4 -15.35 Q37.4 -13.65 37.05 -11.7 L36.7 -9.85 36.05 -9.7 Q35.4 -9.7 35.45 -11.0 L35.55 -13.05 Q35.4 -14.15 34.75 -15.35 34.05 -16.55 34.05 -15.7 L34.35 -14.6 Q34.35 -13.0 33.5 -11.25 32.45 -9.05 30.75 -8.6 L23.8 -6.9 Q17.9 -5.6 16.35 -5.6 L12.65 -5.8 9.85 -5.45 Q8.3 -5.1 8.0 -4.7 L7.6 -4.55 6.9 -4.2 10.7 -10.5 Q11.25 -11.45 14.25 -12.4 M6.25 -3.15 L6.35 -3.3 6.25 -3.1 6.25 -3.15 M34.75 -13.6 L34.8 -13.6 34.8 -13.05 34.75 -13.1 34.75 -13.6" fill="url(#gradient0)" fill-rule="evenodd" stroke="none"/>
    <path d="M14.25 -12.4 L13.9 -12.5 Q11.4 -13.0 11.4 -13.2 11.4 -13.55 12.75 -14.05 L14.85 -14.9 15.15 -15.05 14.8 -14.75 16.45 -16.05 Q17.9 -16.95 19.95 -17.1 21.7 -17.3 22.5 -16.7 23.05 -16.35 23.05 -15.75 L22.85 -14.7 20.4 -12.25 Q18.45 -10.75 17.25 -10.75 16.25 -10.75 15.2 -11.6 L14.35 -12.45 14.25 -12.4 M13.95 -13.35 L13.95 -13.4 13.9 -13.35 13.95 -13.35 M36.7 -9.85 L36.6 -9.35 36.55 -9.1 Q35.9 -6.9 33.9 -5.85 30.7 -4.15 27.2 -3.2 L23.85 -2.35 17.65 -0.95 15.1 -0.5 Q11.45 0.15 8.5 2.35 7.5 3.1 6.85 4.1 L7.1 3.75 6.25 5.2 Q5.8 4.1 5.75 1.6 5.75 -1.85 6.25 -3.15 L6.25 -3.1 6.35 -3.3 6.35 -3.35 6.9 -4.2 7.6 -4.55 8.0 -4.7 Q8.3 -5.1 9.85 -5.45 L12.65 -5.8 16.35 -5.6 Q17.9 -5.6 23.8 -6.9 L30.75 -8.6 Q32.45 -9.05 33.5 -11.25 34.35 -13.0 34.35 -14.6 L34.05 -15.7 Q34.05 -16.55 34.75 -15.35 35.4 -14.15 35.55 -13.05 L35.45 -11.0 Q35.4 -9.7 36.05 -9.7 L36.7 -9.85 M34.75 -13.6 L34.75 -13.1 34.8 -13.05 34.8 -13.6 34.75 -13.6" fill="#58746d" fill-rule="evenodd" stroke="none"/>
    <path d="M35.45 -16.95 L35.5 -16.85 36.0 -16.05 36.4 -15.35 Q37.4 -13.65 37.05 -11.7 L36.7 -9.85 36.6 -9.35 M36.55 -9.1 Q35.9 -6.9 33.9 -5.85 30.7 -4.15 27.2 -3.2 L23.85 -2.35 17.65 -0.95 15.1 -0.5 Q11.45 0.15 8.5 2.35 7.5 3.1 6.85 4.1 M7.1 3.75 L6.25 5.2" fill="none" stroke="#660000" stroke-linecap="round" stroke-linejoin="round" stroke-opacity="0.49803922" stroke-width="1"/>
    <path d="M0.35 -8.2 L0.45 -9.4 0.8 -11.4 1.95 -14.7 2.7 -16.15 Q3.7 -17.8 4.95 -19.3 L6.15 -20.65 7.85 -22.45 10.3 -24.7 13.35 -26.75 14.75 -27.55 Q15.65 -28.1 18.85 -28.55 L19.5 -28.65 19.2 -28.3 17.5 -26.95 15.85 -25.55 13.75 -23.6 12.7 -22.55 10.6 -20.15 9.75 -19.05 Q8.95 -18.1 8.5 -16.85 7.85 -14.95 7.35 -13.05 L7.15 -12.1 7.0 -11.5 6.95 -10.85 6.9 -10.85 6.75 -10.65 5.3 -9.4 Q4.25 -8.6 3.0 -8.25 L0.35 -8.2 M19.5 -20.5 L17.4 -18.15 15.75 -15.95 14.35 -13.55 14.2 -13.25 13.9 -12.2 13.55 -12.1 12.0 -11.75 Q10.9 -11.75 10.5 -12.25 L11.0 -13.35 11.05 -13.5 11.95 -15.05 Q13.1 -16.5 14.6 -17.6 L17.35 -19.45 19.05 -20.35 19.5 -20.55 19.5 -20.5" fill="#dcf5ba" fill-rule="evenodd" stroke="none"/>
    <path d="M0.35 -8.2 L0.45 -9.4 0.8 -11.4 1.95 -14.7 2.7 -16.15 Q3.7 -17.8 4.95 -19.3 L6.15 -20.65 7.85 -22.45 10.3 -24.7 13.35 -26.75 14.75 -27.55 Q15.65 -28.1 18.85 -28.55 L19.5 -28.65 19.2 -28.3 17.5 -26.95 15.85 -25.55 13.75 -23.6 12.7 -22.55 10.6 -20.15 9.75 -19.05 Q8.95 -18.1 8.5 -16.85 7.85 -14.95 7.35 -13.05 L7.15 -12.1 7.0 -11.5 6.95 -10.85 6.75 -10.65 M19.5 -20.55 L19.6 -20.6 19.5 -20.5 17.4 -18.15 15.75 -15.95 14.35 -13.55 14.2 -13.25 13.9 -12.2 M10.5 -12.25 L11.0 -13.35 11.05 -13.5 11.95 -15.05 Q13.1 -16.5 14.6 -17.6 L17.35 -19.45 19.05 -20.35 19.5 -20.55" fill="none" stroke="#660000" stroke-linecap="round" stroke-linejoin="round" stroke-opacity="0.49803922" stroke-width="1"/>
  </g>
  <defs>
    <radialGradient cx="0" cy="0" gradientTransform="matrix(0.0255, -0.0098, 0.0049, 0.0129, -25.35, -17.0)" gradientUnits="userSpaceOnUse" id="gradient0" r="819.2" spreadMethod="pad">
      <stop offset="0.0" stop-color="#9ecf9e"></stop>
      <stop offset="1.0" stop-color="#68a88d"></stop>
    </radialGradient>
  </defs>
</svg>