<?xml version="1.0" encoding="UTF-8" standalone="no"?>
<svg xmlns:xlink="http://www.w3.org/1999/xlink" height="378.9px" width="574.55px" xmlns="http://www.w3.org/2000/svg">
  <g transform="matrix(1.0, 0.0, 0.0, 1.0, 57.65, 42.15)">
    <path d="M78.15 -23.85 L79.75 -23.75 Q89.75 -1.3 96.45 25.4 103.8 40.65 114.5 52.35 L113.7 53.6 Q107.7 48.25 97.7 30.5 103.6 55.5 106.15 81.95 L105.95 82.4 105.7 83.3 Q102.0 74.1 98.9 57.85 L93.6 30.9 88.25 12.7 Q81.1 -1.9 81.1 -7.15 81.1 -8.85 81.25 -8.95 L81.4 -8.65 81.55 -8.65 Q77.8 -20.7 77.8 -22.0 77.8 -23.75 78.15 -23.85 M135.55 -22.6 L135.95 -33.1 137.05 -33.1 Q137.8 -24.4 144.65 21.55 151.1 64.75 151.1 69.0 151.1 71.75 150.8 70.25 L149.05 70.5 Q146.65 58.9 141.1 25.8 135.15 -9.8 135.15 -14.55 L135.55 -22.6 M165.55 -3.3 L168.7 27.05 172.0 57.75 Q171.6 58.55 169.65 58.85 168.85 55.75 166.1 36.65 163.05 15.7 163.05 10.3 L163.9 -3.3 165.55 -3.3 M235.25 -41.15 Q235.5 -41.0 235.5 -39.3 L234.0 27.35 Q233.45 28.15 231.55 28.45 230.85 22.2 230.45 10.9 230.15 2.95 230.15 -1.35 230.15 -9.75 231.3 -21.05 L233.45 -40.95 234.95 -40.95 235.25 -41.15 M494.45 -32.85 Q465.95 -6.5 445.05 25.65 430.35 48.2 413.45 84.15 L411.5 83.85 411.25 84.05 Q410.95 83.9 410.95 82.2 410.95 74.75 424.6 50.75 433.6 34.95 441.35 23.5 456.95 0.4 462.65 -6.4 477.4 -24.1 494.45 -32.85 M494.85 97.85 Q480.75 115.8 475.3 122.1 469.95 121.75 469.7 118.9 470.5 115.55 470.5 114.5 L471.0 114.05 Q471.8 113.6 473.0 113.4 473.8 114.45 473.95 115.85 L473.95 118.25 Q479.65 111.85 492.4 94.1 504.85 78.25 515.9 72.7 507.2 82.1 494.85 97.85 M485.35 23.75 Q479.3 32.2 467.05 52.25 455.1 71.8 448.5 80.85 L445.45 80.8 Q444.65 80.65 444.65 78.9 444.65 77.1 445.2 75.55 L446.6 72.45 448.8 72.45 448.5 76.45 Q454.1 67.65 467.85 43.95 479.95 24.55 485.35 23.75 M354.0 72.35 Q353.35 72.35 353.35 70.65 353.35 68.3 357.25 57.25 361.4 45.55 367.1 32.35 382.3 -3.05 393.1 -14.0 384.1 2.05 373.5 28.85 358.3 67.2 356.1 72.15 L354.0 72.35 M379.2 77.55 L378.65 76.8 Q378.1 76.25 378.1 74.65 378.1 73.0 395.05 45.4 412.9 16.25 424.85 -0.8 418.9 15.6 405.85 38.15 L382.25 77.25 379.2 77.55 M432.15 239.9 Q417.25 255.25 397.8 278.1 388.25 289.25 368.05 313.75 366.45 312.75 366.15 312.15 365.85 311.6 365.85 309.5 365.85 302.4 396.4 271.95 408.0 260.3 418.85 250.65 429.5 241.1 432.15 239.9 M360.5 243.75 Q361.05 243.85 361.05 245.55 361.05 246.6 356.0 253.9 L344.05 271.5 Q325.2 300.25 317.9 322.3 317.05 322.95 314.6 322.95 L314.1 322.8 314.05 321.05 Q314.05 308.0 332.05 278.15 339.75 265.4 347.2 256.15 355.2 246.25 359.95 244.05 L360.5 243.75 M362.0 294.55 L346.35 324.6 343.2 324.35 343.2 318.7 Q346.0 314.3 350.65 304.95 356.3 293.55 358.6 289.45 369.0 270.65 380.3 264.65 371.65 275.65 362.0 294.55 M316.05 17.85 Q326.6 -16.4 334.65 -20.9 331.05 -10.35 322.1 18.4 314.1 44.1 308.8 58.85 L307.55 58.85 Q307.35 59.15 307.15 59.05 306.75 58.9 306.75 57.2 306.75 54.05 309.35 42.7 312.2 30.4 316.05 17.85 M289.0 30.25 Q289.0 15.15 291.1 4.1 293.7 -9.55 299.85 -19.8 296.35 1.2 294.65 16.2 292.3 36.4 292.3 51.8 L290.95 52.35 Q289.55 48.55 289.15 41.15 289.0 38.25 289.0 30.25 M83.3 93.35 Q77.15 84.6 58.75 47.15 39.3 7.6 39.3 1.35 39.3 -1.35 39.6 0.4 L40.4 0.4 Q66.4 52.9 83.6 92.5 L83.3 93.35 M10.15 7.25 Q20.2 20.0 35.8 44.7 54.55 74.35 61.05 83.6 60.75 84.25 58.85 84.7 36.25 52.8 10.15 7.55 L10.15 7.25 M1.2 131.55 L1.4 132.0 Q1.3 132.4 -0.4 132.4 -7.95 132.4 -25.0 116.95 -42.7 100.9 -48.25 87.55 -42.4 92.85 -26.05 108.25 -10.3 122.65 0.95 130.75 L1.2 131.55 M22.4 106.8 Q11.9 95.85 -2.9 75.8 L-25.4 45.5 -24.3 45.2 Q-13.45 57.0 0.3 75.0 L23.2 105.6 22.4 106.8 M105.6 292.6 Q111.4 300.75 122.7 313.65 L140.5 334.1 139.7 335.75 Q123.15 320.5 117.8 314.55 106.45 302.05 104.5 292.85 L105.6 292.6 M157.3 280.9 L157.4 281.15 159.05 281.15 173.65 317.05 172.55 319.25 Q166.1 311.65 161.6 301.05 157.15 290.45 157.15 282.7 157.15 281.0 157.3 280.9 M49.5 284.35 L49.6 284.75 Q51.15 284.5 56.1 288.85 62.2 294.15 68.85 296.45 L83.25 300.7 Q90.6 303.35 90.6 306.9 90.6 309.65 90.3 308.1 L90.05 308.4 Q89.75 308.75 89.75 308.95 85.45 306.25 77.6 303.2 L64.35 298.15 Q49.35 292.15 49.35 286.0 49.35 284.3 49.5 284.35 M250.25 246.5 Q251.45 255.05 254.0 279.45 256.2 301.2 258.35 314.05 L257.4 315.7 Q252.1 309.1 249.15 288.0 247.2 274.05 247.2 266.3 247.2 260.95 248.3 246.65 L250.25 246.5 M274.8 281.75 Q277.35 265.0 283.9 255.2 L284.35 254.75 Q284.75 254.7 284.75 256.4 284.75 260.6 281.0 282.55 277.0 306.1 274.7 311.85 L271.4 311.55 271.15 309.5 Q272.1 304.6 273.05 295.85 274.25 285.4 274.8 281.75 M306.5 280.95 Q296.25 303.95 292.6 317.35 L292.35 317.65 292.05 318.15 287.9 317.9 Q287.75 316.9 287.75 314.15 287.75 310.35 301.55 281.3 315.8 251.25 321.75 244.05 318.1 254.75 306.5 280.95 M201.5 252.55 L201.55 252.7 203.5 252.7 Q207.5 262.55 215.15 290.8 222.3 317.0 222.3 319.1 222.3 321.85 222.05 320.35 L221.8 320.6 221.5 321.2 Q215.4 312.6 207.9 284.15 201.4 259.5 201.4 254.5 L201.5 252.55 M-56.35 146.55 L-56.65 144.9 Q-53.05 145.25 -47.8 148.9 -44.65 151.05 -37.35 157.15 -21.4 170.5 -11.65 174.45 L-11.8 176.1 -12.15 176.55 Q-12.5 176.95 -14.15 176.95 -18.85 176.95 -24.45 173.0 -28.15 170.35 -34.6 164.0 -42.0 156.75 -45.0 154.3 -50.9 149.45 -55.8 148.2 L-56.35 146.55 M-49.35 227.7 Q-43.5 230.5 -30.05 239.85 -16.35 248.35 -2.85 250.5 -3.3 251.35 -3.8 251.65 L-6.45 252.15 Q-17.4 252.15 -32.05 242.8 -42.8 235.95 -50.45 227.95 L-49.35 227.7" fill="#ffffff" fill-rule="evenodd" stroke="none"/>
  </g>
</svg>