<?xml version="1.0" encoding="UTF-8" standalone="no"?>
<svg xmlns:xlink="http://www.w3.org/1999/xlink" height="239.9px" width="525px" xmlns="http://www.w3.org/2000/svg">
  <g transform="matrix(1.0, 0.0, 0.0, 1.0, 14.45, -38.3)">
    <path d="M389.25 63.25 Q379.25 85.0 359.75 130.5 L338.5 179.7 336.6 179.4 336.35 179.6 Q336.05 179.45 336.05 177.75 336.05 162.65 359.4 115.9 368.2 98.25 377.3 82.4 385.85 67.4 389.25 63.25 M338.35 82.9 L329.9 121.1 Q325.05 143.1 321.65 153.4 316.9 167.65 311.85 170.6 310.55 169.8 309.2 168.3 L308.8 167.05 Q314.05 154.9 318.95 137.8 L327.0 107.35 Q337.15 68.6 348.8 48.25 343.6 61.1 338.35 82.9 M346.05 185.35 L345.8 184.1 Q367.85 139.65 383.2 115.85 408.1 77.15 437.9 51.8 411.05 81.25 386.8 118.9 373.35 139.85 347.45 185.9 L346.05 185.35 M385.0 179.4 L385.0 173.65 385.9 174.05 388.4 174.45 Q390.85 174.45 398.6 164.25 403.6 157.7 415.6 140.15 443.3 99.65 454.15 88.4 437.4 116.25 424.9 134.0 406.4 160.25 387.3 179.7 L385.0 179.4 M467.2 135.15 Q458.95 148.5 439.1 177.85 419.9 206.2 412.6 218.2 L411.0 217.95 Q410.4 217.7 410.4 216.0 410.4 208.3 437.2 172.55 446.65 159.95 456.55 147.75 465.35 136.8 467.2 135.15 M422.25 177.8 Q411.8 194.05 404.25 203.05 L404.0 203.4 Q403.7 203.4 403.7 201.7 403.7 198.65 417.5 178.85 431.6 158.55 439.0 151.65 L422.25 177.8 M427.3 238.55 Q426.8 238.35 426.8 236.6 426.8 232.45 454.25 196.9 480.9 162.4 488.95 154.95 479.8 169.3 459.35 196.85 436.75 227.3 429.0 238.8 L427.3 238.55 M440.0 261.35 L439.7 259.3 Q449.2 245.95 465.15 226.9 480.8 208.15 493.35 195.1 486.25 205.5 468.1 228.65 449.25 252.7 443.0 261.65 L440.0 261.35 M502.8 215.05 Q501.15 213.9 500.9 213.3 500.6 212.75 500.6 210.65 500.9 207.6 502.15 204.35 504.6 198.0 509.55 195.65 509.35 200.55 507.75 205.4 505.95 210.7 502.8 215.05 M254.0 63.3 Q256.1 46.85 260.8 39.3 257.95 61.0 255.2 87.3 L255.2 159.05 Q254.95 160.8 254.75 165.7 254.05 170.15 250.5 172.15 L248.6 171.7 248.35 172.2 Q248.05 172.3 248.05 170.6 248.05 168.95 249.1 164.75 L250.8 157.95 250.8 89.5 254.0 63.3 M176.55 94.15 Q175.85 98.75 175.85 99.95 175.85 131.65 181.15 171.95 183.8 192.1 186.45 209.55 L186.4 212.0 186.15 213.5 185.35 214.5 182.6 214.5 Q182.0 203.25 177.05 174.8 172.55 148.8 172.55 135.4 172.55 128.45 173.95 110.15 175.3 93.15 176.1 87.3 L177.2 87.3 176.55 94.15 M219.55 84.65 L219.3 89.1 Q219.3 108.65 222.45 136.05 224.3 151.85 228.5 183.95 227.4 184.8 225.2 184.8 224.8 180.5 220.25 154.3 216.25 131.3 216.25 121.25 216.25 116.3 216.75 104.65 217.4 88.6 218.45 79.75 L219.55 79.75 Q219.75 81.65 219.55 84.65 M287.9 189.45 Q287.75 153.8 292.3 119.95 297.65 80.1 307.55 61.05 303.4 84.55 298.7 126.25 293.6 171.3 290.65 189.75 L287.9 189.45 M99.05 58.25 Q98.7 59.7 98.7 61.05 98.7 85.8 105.3 124.15 112.85 168.25 122.1 179.15 L121.25 180.65 Q109.45 168.65 101.95 132.35 95.7 102.3 95.7 77.4 95.7 72.4 96.55 65.8 97.6 57.9 99.0 56.9 99.3 57.35 99.05 58.25 M140.5 73.4 L141.35 73.4 Q143.05 116.9 144.2 132.45 146.7 166.2 152.2 192.5 151.65 193.15 149.7 193.15 147.75 184.5 143.7 154.95 139.15 121.7 139.15 110.55 L139.6 95.2 140.5 73.4 M5.6 126.5 Q23.35 168.3 47.4 221.75 46.85 222.6 45.5 223.0 29.15 194.2 20.6 175.4 8.15 148.05 4.5 126.75 L5.6 126.5 M29.4 111.5 Q39.9 133.6 60.25 194.5 79.2 251.4 79.2 256.0 79.2 257.7 78.65 257.5 L78.1 256.95 Q64.95 226.1 51.4 184.4 L28.7 111.5 29.4 111.5 M20.4 240.4 Q26.1 250.35 30.5 256.95 L29.95 258.6 Q19.35 246.3 7.3 226.35 -5.9 203.65 -13.45 191.95 L-12.75 191.95 Q-0.6 204.3 11.0 223.95 L20.4 240.4 M26.8 277.2 Q11.5 270.25 0.45 259.2 -9.55 249.25 -11.65 240.75 L-11.4 240.45 Q-7.35 244.55 3.45 256.65 14.85 268.25 27.6 275.55 L26.8 277.2" fill="#ffffff" fill-rule="evenodd" stroke="none"/>
  </g>
</svg>