<?xml version="1.0" encoding="UTF-8" standalone="no"?>
<svg xmlns:xlink="http://www.w3.org/1999/xlink" height="37.25px" width="24.85px" xmlns="http://www.w3.org/2000/svg">
  <g transform="matrix(1.0, 0.0, 0.0, 1.0, 1, 1)">
    <path d="M20.85 0.0 Q22.0 2.45 22.55 9.4 L22.55 9.7 22.7 13.3 22.85 17.45 22.4 18.5 Q21.5 20.5 20.3 21.9 L19.85 22.45 18.35 24.3 17.65 25.2 15.5 28.15 Q13.05 32.25 10.85 34.05 L10.3 34.4 Q9.1 35.25 8.25 35.25 L6.6 34.95 1.55 32.95 5.6 31.75 5.65 31.75 6.0 30.45 6.8 24.2 11.95 26.15 10.1 16.25 13.3 16.65 15.15 16.7 15.55 16.6 Q15.55 15.85 14.4 13.3 L13.6 11.6 16.7 11.5 16.75 9.2 Q16.9 6.45 17.2 4.3 L20.85 0.0" fill="url(#gradient0)" fill-rule="evenodd" stroke="none"/>
    <path d="M17.2 4.3 Q16.9 6.45 16.75 9.2 L16.7 11.5 13.6 11.6 14.4 13.3 Q15.55 15.85 15.55 16.6 L15.15 16.7 13.3 16.65 10.1 16.25 11.95 26.15 6.8 24.2 6.0 30.45 5.65 31.75 5.6 31.65 5.8 29.65 0.0 25.55 1.0 24.9 Q2.1 24.15 6.2 22.55 L6.15 22.45 4.5 20.9 2.9 20.0 Q3.45 19.05 5.0 17.6 6.2 16.1 6.05 13.95 L6.8 14.3 Q7.45 13.25 7.75 9.65 L10.4 10.85 12.1 7.6 Q13.2 6.35 16.9 4.5 L17.15 4.35 17.2 4.3" fill="#723800" fill-rule="evenodd" stroke="none"/>
    <path d="M5.65 31.75 L5.6 31.75 1.55 32.95 6.6 34.95 8.25 35.25 Q9.1 35.25 10.3 34.4 L10.85 34.05 Q13.05 32.25 15.5 28.15 L17.65 25.2 18.35 24.3 19.85 22.45 20.3 21.9 Q21.5 20.5 22.4 18.5 L22.85 17.45 22.7 13.3 22.55 9.7 22.55 9.4 Q22.0 2.45 20.85 0.0 M17.2 4.3 Q16.9 6.45 16.75 9.2 L16.7 11.5 13.6 11.6 14.4 13.3 Q15.55 15.85 15.55 16.6 L15.15 16.7 13.3 16.65 10.1 16.25 11.95 26.15 6.8 24.2 6.0 30.45 5.65 31.75 5.6 31.65 5.6 31.75 M6.05 13.95 Q6.2 16.1 5.0 17.6 3.45 19.05 2.9 20.0 L4.5 20.9 6.15 22.45 6.2 22.55 Q2.1 24.15 1.0 24.9 L0.0 25.55 5.8 29.65 5.6 31.65" fill="none" stroke="#723800" stroke-linecap="round" stroke-linejoin="round" stroke-width="1"/>
  </g>
  <defs>
    <linearGradient gradientTransform="matrix(0.004, 0.0044, -0.0165, 0.0149, 15.35, 20.95)" gradientUnits="userSpaceOnUse" id="gradient0" spreadMethod="pad" x1="-819.2" x2="819.2">
      <stop offset="0.0" stop-color="#d76a00"></stop>
      <stop offset="0.9921568627450981" stop-color="#ffec00"></stop>
    </linearGradient>
  </defs>
</svg>