<?xml version="1.0" encoding="UTF-8" standalone="no"?>
<svg xmlns:xlink="http://www.w3.org/1999/xlink" height="42.55px" width="33.9px" xmlns="http://www.w3.org/2000/svg">
  <g transform="matrix(1.0, 0.0, 0.0, 1.0, 1, 1.85)">
    <path d="M27.65 21.75 L28.5 23.2 30.15 26.15 30.75 27.6 Q31.65 30.05 31.85 32.55 L30.4 32.85 Q29.35 32.85 29.05 30.95 L28.95 30.05 28.9 29.75 28.75 28.9 28.45 27.7 Q28.1 28.15 28.05 29.35 L28.0 29.9 27.9 32.3 Q27.55 31.35 27.35 29.8 27.1 27.75 27.1 24.7 L27.15 23.2 27.3 22.2 27.35 22.1 27.65 21.75 M4.45 38.8 L2.8 38.05 3.6 29.95 3.6 29.75 Q3.6 28.45 3.4 28.1 3.15 27.55 2.2 27.55 L1.8 27.6 1.7 27.65 2.45 23.6 Q4.8 26.8 4.9 27.8 L4.95 28.2 4.9 30.35 4.9 31.1 4.45 38.8 M15.95 24.55 L17.35 24.65 18.15 25.15 18.45 25.45 Q19.25 26.25 20.0 27.9 L20.7 29.8 21.55 33.5 21.65 34.2 21.85 36.0 19.85 36.8 18.15 37.45 17.6 37.6 Q16.7 37.6 16.5 36.7 L16.45 36.55 15.95 37.05 15.5 37.45 15.1 37.9 15.1 36.85 15.6 33.8 15.6 30.45 15.25 30.45 14.3 32.1 14.0 32.8 13.45 33.65 13.45 32.1 13.9 30.1 14.55 27.35 Q15.2 25.15 15.95 24.55 M15.8 34.45 L15.5 37.45 15.8 34.45 M19.7 35.5 L19.85 36.8 19.7 35.5" fill="#fcc88b" fill-rule="evenodd" stroke="none"/>
    <path d="M27.35 22.1 L27.3 22.2 27.15 23.2 27.1 24.7 Q27.1 27.75 27.35 29.8 27.55 31.35 27.9 32.3 L28.0 29.9 28.05 29.35 Q28.1 28.15 28.45 27.7 L28.75 28.9 28.9 29.75 28.95 30.05 29.05 30.95 Q29.35 32.85 30.4 32.85 L31.85 32.55 31.9 33.85 29.45 35.5 27.55 36.4 27.25 35.25 26.35 31.05 26.25 30.5 Q25.9 28.5 25.9 26.35 25.9 24.25 26.4 23.25 L26.45 23.2 Q26.65 22.8 27.35 22.1 M21.95 38.45 L20.05 38.9 18.15 39.2 15.3 39.6 12.95 39.7 10.9 39.65 Q10.75 35.85 11.5 32.35 L12.1 30.15 12.2 29.8 Q13.65 25.1 15.95 24.55 15.2 25.15 14.55 27.35 L13.9 30.1 13.45 32.1 13.45 33.65 14.0 32.8 14.3 32.1 15.25 30.45 15.6 30.45 15.6 33.8 15.1 36.85 15.1 37.9 15.5 37.45 15.95 37.05 16.45 36.55 16.5 36.7 Q16.7 37.6 17.6 37.6 L18.15 37.45 19.85 36.8 20.05 38.9 19.85 36.8 21.85 36.0 21.95 38.45 M2.8 38.05 L2.45 37.85 0.0 36.55 1.15 30.55 1.15 30.45 1.7 27.65 1.8 27.6 2.2 27.55 Q3.15 27.55 3.4 28.1 3.6 28.45 3.6 29.75 L3.6 29.95 2.8 38.05 M15.3 39.6 L15.5 37.45 15.3 39.6 M28.95 30.05 L29.45 35.5 28.95 30.05 M13.2 34.7 L12.95 39.7 13.2 34.7 M2.9 30.05 L2.45 37.85 2.9 30.05" fill="#b88a53" fill-rule="evenodd" stroke="none"/>
    <path d="M22.1 5.45 L22.7 7.7 Q23.7 11.85 23.7 15.4 L23.7 16.45 Q23.6 18.05 23.2 18.5 22.9 18.9 21.95 18.9 20.1 18.9 18.15 17.2 L16.25 15.1 Q14.85 13.3 13.35 10.55 L9.95 3.9 8.3 0.9 Q10.95 -0.85 14.25 -0.85 L19.15 2.3 22.1 5.45 M21.8 13.7 L22.0 13.1 21.8 12.5 21.15 12.05 Q20.6 12.05 20.2 13.1 20.6 12.05 21.15 12.05 L21.8 12.5 22.0 13.1 21.8 13.7 M14.75 1.9 L14.65 1.25 14.2 0.85 Q13.95 0.85 13.65 1.1 L13.1 1.8 13.65 1.1 Q13.95 0.85 14.2 0.85 L14.65 1.25 14.75 1.9 M18.35 7.4 L18.4 7.15 Q18.5 6.6 18.2 6.1 17.85 5.5 17.4 5.5 16.8 5.5 16.35 6.1 15.95 6.65 15.95 7.2 15.95 6.65 16.35 6.1 16.8 5.5 17.4 5.5 17.85 5.5 18.2 6.1 18.5 6.6 18.4 7.15 L18.35 7.4 M10.35 13.55 Q10.35 12.25 10.65 10.25 11.9 11.8 14.65 17.0 L16.15 19.9 12.85 19.05 11.6 18.55 Q10.35 17.55 10.35 13.55" fill="url(#gradient0)" fill-rule="evenodd" stroke="none"/>
    <path d="M8.3 0.9 L9.95 3.9 13.35 10.55 Q14.85 13.3 16.25 15.1 L18.15 17.2 Q20.1 18.9 21.95 18.9 22.9 18.9 23.2 18.5 23.6 18.05 23.7 16.45 L23.7 15.4 Q23.7 11.85 22.7 7.7 L22.1 5.45 22.6 6.0 23.2 7.1 25.75 12.4 26.7 16.45 27.65 21.6 27.65 21.75 27.35 22.1 Q26.65 22.8 26.45 23.2 L26.4 23.25 Q25.9 24.25 25.9 26.35 25.9 28.5 26.25 30.5 L26.35 31.05 27.25 35.25 27.55 36.4 24.2 37.7 21.95 38.45 21.85 36.0 21.65 34.2 21.55 33.5 20.7 29.8 20.0 27.9 Q19.25 26.25 18.45 25.45 L18.15 25.15 17.35 24.65 15.95 24.55 Q13.65 25.1 12.2 29.8 L12.1 30.15 11.5 32.35 Q10.75 35.85 10.9 39.65 L4.45 38.8 4.9 31.1 4.9 30.35 4.95 28.2 4.9 27.8 Q4.8 26.8 2.45 23.6 L4.2 14.3 4.2 14.15 4.1 12.95 3.8 12.35 3.65 12.2 Q3.2 11.85 2.6 11.85 2.6 6.6 6.0 2.9 L8.3 0.9 M7.5 5.15 Q3.45 10.35 3.8 12.35 3.45 10.35 7.5 5.15 M25.3 22.2 L25.3 21.95 25.3 21.45 24.95 20.75 24.55 20.7 23.9 21.3 23.55 22.2 23.9 21.3 24.55 20.7 24.95 20.75 25.3 21.45 25.3 21.95 25.3 22.2 M8.85 15.65 L8.8 15.35 8.4 14.95 7.8 14.7 Q6.75 14.7 6.55 16.15 6.75 14.7 7.8 14.7 L8.4 14.95 8.8 15.35 8.85 15.65 M10.35 13.55 Q10.35 17.55 11.6 18.55 L12.85 19.05 16.15 19.9 14.65 17.0 Q11.9 11.8 10.65 10.25 10.35 12.25 10.35 13.55 M15.25 21.25 L15.3 21.35 15.3 21.25 15.25 21.25 14.8 20.65 Q14.45 20.2 14.0 20.2 L13.3 20.4 12.95 21.15 Q12.15 19.95 11.65 19.95 11.35 19.95 11.05 20.3 10.75 20.65 10.75 21.2 L10.85 21.65 10.75 21.2 Q10.75 20.65 11.05 20.3 11.35 19.95 11.65 19.95 12.15 19.95 12.95 21.15 L13.3 20.4 14.0 20.2 Q14.45 20.2 14.8 20.65 L15.25 21.25 15.3 21.25 15.3 21.35 15.25 21.25 M7.05 9.35 Q4.1 12.15 4.2 14.15 4.1 12.15 7.05 9.35 M9.55 28.85 L9.55 28.6 9.2 27.65 Q8.8 26.7 8.25 26.7 7.55 26.7 7.25 27.25 7.05 27.65 6.95 28.5 7.05 27.65 7.25 27.25 7.55 26.7 8.25 26.7 8.8 26.7 9.2 27.65 L9.55 28.6 9.55 28.85" fill="url(#gradient1)" fill-rule="evenodd" stroke="none"/>
    <path d="M2.6 11.85 Q3.2 11.85 3.65 12.2 L3.8 12.35 Q3.45 10.35 7.5 5.15 M22.1 5.45 L19.15 2.3 14.25 -0.85 M27.65 21.75 L27.65 21.6 26.7 16.45 25.75 12.4 23.2 7.1 22.6 6.0 M20.2 13.1 Q20.6 12.05 21.15 12.05 L21.8 12.5 22.0 13.1 21.8 13.7 M23.55 22.2 L23.9 21.3 24.55 20.7 24.95 20.75 25.3 21.45 25.3 21.95 25.3 22.2 M27.55 36.4 L24.2 37.7 21.95 38.45 M10.9 39.65 L4.45 38.8 M2.45 23.6 L4.2 14.3 M4.2 14.15 L4.1 12.95 3.8 12.35 M15.95 7.2 Q15.95 6.65 16.35 6.1 16.8 5.5 17.4 5.5 17.85 5.5 18.2 6.1 18.5 6.6 18.4 7.15 L18.35 7.4 M13.1 1.8 L13.65 1.1 Q13.95 0.85 14.2 0.85 L14.65 1.25 14.75 1.9 M6.55 16.15 Q6.75 14.7 7.8 14.7 L8.4 14.95 8.8 15.35 8.85 15.65 M10.85 21.65 L10.75 21.2 Q10.75 20.65 11.05 20.3 11.35 19.95 11.65 19.95 12.15 19.95 12.95 21.15 L13.3 20.4 14.0 20.2 Q14.45 20.2 14.8 20.65 L15.25 21.25 15.3 21.25 15.3 21.35 15.25 21.25 M4.2 14.15 Q4.1 12.15 7.05 9.35 M6.95 28.5 Q7.05 27.65 7.25 27.25 7.55 26.7 8.25 26.7 8.8 26.7 9.2 27.65 L9.55 28.6 9.55 28.85" fill="none" stroke="#351762" stroke-linecap="round" stroke-linejoin="round" stroke-width="1"/>
    <path d="M31.85 32.55 Q31.65 30.05 30.75 27.6 L30.15 26.15 28.5 23.2 27.65 21.75 M31.85 32.55 L31.9 33.85 29.45 35.5 27.55 36.4 M21.95 38.45 L20.05 38.9 18.15 39.2 15.3 39.6 12.95 39.7 10.9 39.65 M4.45 38.8 L2.8 38.05 2.45 37.85 0.0 36.55 1.15 30.55 1.15 30.45 1.7 27.65 2.45 23.6 M21.85 36.0 L21.95 38.45" fill="none" stroke="#77542b" stroke-linecap="round" stroke-linejoin="round" stroke-width="1"/>
    <path d="M28.9 29.75 L28.95 30.05 29.45 35.5 M15.5 37.45 L15.8 34.45 M19.85 36.8 L19.7 35.5 M15.5 37.45 L15.3 39.6 M20.05 38.9 L19.85 36.8 M2.45 37.85 L2.9 30.05 M12.95 39.7 L13.2 34.7" fill="none" stroke="#ffe6c9" stroke-linecap="round" stroke-linejoin="round" stroke-width="1"/>
  </g>
  <defs>
    <linearGradient gradientTransform="matrix(-0.0035, -0.0096, 0.0063, -0.003, 16.5, 6.75)" gradientUnits="userSpaceOnUse" id="gradient0" spreadMethod="pad" x1="-819.2" x2="819.2">
      <stop offset="0.0" stop-color="#8869b6"></stop>
      <stop offset="0.9921568627450981" stop-color="#bf96fc"></stop>
    </linearGradient>
    <linearGradient gradientTransform="matrix(0.0011, 0.0114, -0.0153, 0.0019, 14.25, 14.4)" gradientUnits="userSpaceOnUse" id="gradient1" spreadMethod="pad" x1="-819.2" x2="819.2">
      <stop offset="0.0" stop-color="#4c2980"></stop>
      <stop offset="1.0" stop-color="#8869b6"></stop>
    </linearGradient>
  </defs>
</svg>