<?xml version="1.0" encoding="UTF-8" standalone="no"?>
<svg xmlns:xlink="http://www.w3.org/1999/xlink" height="39.1px" width="62.2px" xmlns="http://www.w3.org/2000/svg">
  <g transform="matrix(1.0, 0.0, 0.0, 1.0, 1, 1)">
    <path d="M51.9 11.95 Q54.9 11.55 54.9 9.65 54.9 8.55 53.2 6.9 50.85 4.65 50.05 3.4 55.1 5.1 57.85 10.15 60.2 14.55 60.2 19.9 60.2 27.1 45.7 32.5 33.25 37.1 21.85 37.1 L17.05 36.7 20.1 34.4 18.7 36.05 Q29.0 32.6 30.95 31.65 32.7 30.8 36.3 28.0 L36.95 27.0 37.1 26.95 37.1 26.85 34.3 26.9 36.3 25.15 37.0 24.4 38.5 22.6 39.15 21.8 35.1 22.6 36.85 21.2 8.15 21.2 13.55 19.2 12.9 19.65 24.15 18.35 25.45 18.55 27.35 18.7 25.45 18.55 24.15 18.35 31.8 17.55 31.3 17.25 30.3 16.8 30.35 16.8 31.55 16.65 32.4 16.15 33.25 15.45 33.55 15.25 34.95 14.95 37.0 14.6 35.25 14.25 33.65 13.8 32.95 13.5 32.75 13.4 32.25 13.0 30.75 11.8 30.2 11.75 28.25 11.85 28.05 11.9 Q27.7 11.5 27.35 11.45 27.7 11.5 28.05 11.9 L31.0 14.25 30.65 14.25 29.65 14.4 28.8 15.0 27.05 14.65 27.0 14.65 17.95 10.95 0.0 3.75 Q2.05 3.0 4.65 2.6 L10.8 1.7 8.35 2.9 17.5 4.8 16.15 3.35 16.9 3.2 17.7 3.15 18.8 3.05 18.5 2.95 18.1 2.7 20.15 2.45 20.4 2.45 21.1 2.95 23.4 4.6 22.1 4.6 20.6 4.45 18.85 3.7 18.5 3.7 17.65 3.55 18.95 5.1 24.3 6.35 21.05 6.3 22.3 6.7 19.75 6.45 19.65 6.45 19.2 6.3 16.75 6.35 17.35 6.9 19.1 7.95 20.85 8.75 22.15 9.2 22.45 9.3 22.25 9.3 21.1 9.4 21.05 9.4 21.5 9.9 23.0 11.1 24.5 11.95 24.6 11.95 26.15 11.6 27.05 11.5 27.35 11.45 Q25.55 11.0 24.65 9.9 L26.25 10.25 Q26.4 9.4 27.15 8.85 L33.6 9.9 31.4 7.15 34.85 8.85 35.0 8.9 35.65 9.25 39.8 8.15 40.25 8.25 39.8 8.15 35.65 7.45 35.2 7.4 34.6 7.3 32.45 6.85 31.25 7.0 30.4 5.75 32.45 6.85 30.4 5.75 29.55 4.9 29.35 4.55 29.55 4.5 28.9 3.3 Q28.9 2.2 31.4 1.9 31.3 3.3 31.7 3.9 L29.55 4.5 31.7 3.9 Q32.3 4.25 35.4 5.2 L35.75 5.3 36.5 5.55 40.35 6.5 39.45 7.8 39.95 8.1 40.1 8.2 40.25 8.25 40.7 8.5 42.3 9.15 42.8 7.45 Q43.25 6.25 43.6 5.8 43.5 7.45 44.55 8.2 45.0 8.55 46.2 8.95 L45.6 7.0 45.65 7.05 48.0 7.0 50.5 8.7 49.45 8.45 47.2 7.8 48.35 8.95 51.9 11.95 54.4 12.75 51.9 11.95 M40.9 12.05 Q39.1 11.25 36.45 12.0 L35.45 12.35 35.35 12.35 36.1 12.6 38.25 13.15 40.45 13.9 42.35 13.8 42.6 13.7 Q43.1 13.2 41.2 12.2 L40.9 12.05 M31.7 10.75 L30.85 10.95 29.75 11.0 30.75 11.8 29.75 11.0 30.85 10.95 31.7 10.75 33.85 11.25 33.95 11.3 34.25 11.35 34.8 11.35 37.65 10.95 37.6 10.85 35.7 10.1 34.6 10.0 34.5 10.0 32.8 10.15 31.7 10.75 M38.4 10.55 L35.7 10.1 38.4 10.55 M48.55 12.25 L48.15 11.9 46.75 10.1 45.5 10.8 46.05 12.25 48.55 12.25 M43.65 23.5 L42.2 24.55 43.65 23.5 M43.0 21.9 L45.9 22.15 47.6 22.1 Q48.05 21.4 49.1 20.8 L47.05 20.55 49.1 18.65 46.45 19.8 42.95 21.85 43.0 21.9 Q40.4 22.9 39.55 23.75 L39.05 24.45 38.1 25.55 39.05 24.45 39.55 23.75 Q40.4 22.9 43.0 21.9 M37.65 26.1 L38.1 25.55 38.1 25.5 37.65 26.1 37.4 26.85 38.55 26.4 37.4 26.85 37.65 26.1 M42.2 24.55 L39.55 25.95 39.4 26.05 38.55 26.4 38.1 27.2 38.0 27.45 36.9 29.65 37.0 29.6 Q40.0 28.0 40.5 27.4 L40.8 27.0 42.2 24.55 M41.1 27.8 L42.4 28.1 43.75 28.2 Q45.9 28.2 47.35 27.45 49.85 26.15 49.1 22.9 47.3 23.2 44.55 24.95 42.6 26.2 41.7 27.0 L41.1 27.8 M35.85 1.85 L36.5 2.3 37.65 3.0 40.3 4.5 40.3 4.55 39.55 4.55 37.2 3.95 36.65 3.75 36.15 3.55 35.9 3.45 36.0 3.45 37.1 3.65 34.15 2.2 35.85 1.85 M30.85 10.95 L33.85 11.25 30.85 10.95 M27.35 18.7 L24.6 19.6 24.15 19.95 24.3 19.9 26.1 20.15 29.4 20.35 29.9 20.35 30.8 20.15 31.7 19.95 31.9 19.85 32.2 19.75 34.5 18.95 34.2 18.95 31.0 18.75 32.0 18.2 30.7 18.6 30.5 18.6 28.8 18.8 28.65 18.8 28.65 18.75 27.35 18.7 M39.6 15.65 L34.55 16.45 Q33.65 16.7 32.75 17.45 L32.0 18.2 32.75 17.45 Q33.65 16.7 34.55 16.45 L39.6 15.65 M38.8 14.85 L37.0 14.6 38.8 14.85 M18.95 5.1 L20.0 5.75 21.05 6.3 20.0 5.75 18.95 5.1 M37.85 18.5 L34.5 18.95 37.85 18.5 M18.8 3.05 L20.25 3.7 18.85 3.7 20.25 3.7 18.8 3.05" fill="url(#gradient0)" fill-rule="evenodd" stroke="none"/>
    <path d="M54.25 9.1 Q53.5 8.15 52.05 7.4 L52.0 7.4 Q50.05 6.4 47.55 6.25 L47.15 6.4 48.0 7.0 47.15 6.4 47.55 6.25 Q50.05 6.4 52.0 7.4 L52.05 7.4 Q53.5 8.15 54.25 9.1 M50.05 3.4 Q50.85 4.65 53.2 6.9 54.9 8.55 54.9 9.65 54.9 11.55 51.9 11.95 L48.35 8.95 47.2 7.8 49.45 8.45 50.5 8.7 48.0 7.0 45.65 7.05 45.6 7.0 46.2 8.95 Q45.0 8.55 44.55 8.2 43.5 7.45 43.6 5.8 43.25 6.25 42.8 7.45 L42.3 9.15 40.7 8.5 40.25 8.25 40.1 8.2 39.95 8.1 39.45 7.8 40.35 6.5 36.5 5.55 35.75 5.3 35.4 5.2 Q32.3 4.25 31.7 3.9 L35.9 3.45 31.7 3.9 Q31.3 3.3 31.4 1.9 28.9 2.2 28.9 3.3 L29.55 4.5 29.35 4.55 29.55 4.9 30.4 5.75 31.25 7.0 31.4 7.15 33.6 9.9 27.15 8.85 Q26.4 9.4 26.25 10.25 L24.65 9.9 23.45 9.1 22.45 9.3 22.15 9.2 20.85 8.75 19.1 7.95 17.35 6.9 16.75 6.35 19.2 6.3 19.65 6.45 19.75 6.45 22.3 6.7 21.05 6.3 24.3 6.35 18.95 5.1 17.65 3.55 18.5 3.7 18.85 3.7 20.6 4.45 22.1 4.6 23.4 4.6 21.1 2.95 20.4 2.45 20.15 2.45 18.1 2.7 18.5 2.95 18.8 3.05 17.7 3.15 16.9 3.2 16.15 3.35 17.5 4.8 8.35 2.9 10.8 1.7 10.8 1.65 21.6 0.8 21.95 0.8 33.45 0.0 50.05 3.4 M40.9 12.05 L41.2 12.2 Q43.1 13.2 42.6 13.7 L42.35 13.8 40.45 13.9 38.25 13.15 36.1 12.6 35.35 12.35 35.45 12.35 36.45 12.0 Q39.1 11.25 40.9 12.05 M31.7 10.75 L32.8 10.15 34.5 10.0 34.6 10.0 35.7 10.1 37.6 10.85 37.65 10.95 34.8 11.35 34.25 11.35 33.95 11.3 33.85 11.25 31.7 10.75 M48.55 12.25 L46.05 12.25 45.5 10.8 46.75 10.1 48.15 11.9 48.55 12.25 M44.0 21.55 L43.0 21.9 44.0 21.55 M43.0 21.9 L42.95 21.85 46.45 19.8 49.1 18.65 47.05 20.55 49.1 20.8 Q48.05 21.4 47.6 22.1 L45.9 22.15 43.0 21.9 M24.65 3.75 L22.65 3.0 21.8 2.75 21.25 2.6 20.4 2.45 21.25 2.6 21.8 2.75 22.65 3.0 24.65 3.75 M41.1 27.8 L41.7 27.0 Q42.6 26.2 44.55 24.95 47.3 23.2 49.1 22.9 49.85 26.15 47.35 27.45 45.9 28.2 43.75 28.2 L42.4 28.1 41.1 27.8 M42.4 3.65 Q41.45 3.4 39.7 2.4 39.15 2.1 38.1 1.95 L37.55 1.9 36.6 1.85 36.2 1.85 35.85 1.85 36.2 1.85 36.6 1.85 37.55 1.9 38.1 1.95 Q39.15 2.1 39.7 2.4 41.45 3.4 42.4 3.65 M35.9 3.45 L36.15 3.55 36.65 3.75 37.2 3.95 39.55 4.55 40.3 4.55 40.3 4.5 37.65 3.0 36.5 2.3 35.85 1.85 34.15 2.2 37.1 3.65 36.0 3.45 35.9 3.45 M27.3 8.55 L22.2 8.3 23.45 9.1 22.2 8.3 27.3 8.55" fill="url(#gradient1)" fill-rule="evenodd" stroke="none"/>
    <path d="M28.8 15.0 L27.95 15.7 26.6 16.8 26.55 16.9 27.25 17.0 27.95 16.95 24.1 18.3 24.15 18.35 24.1 18.3 27.95 16.95 30.3 16.8 31.3 17.25 31.8 17.55 24.15 18.35 12.9 19.65 13.55 19.2 Q22.1 16.55 27.0 14.7 L27.05 14.65 28.8 15.0" fill="url(#gradient2)" fill-rule="evenodd" stroke="none"/>
    <path d="M38.1 25.55 L37.65 26.1 38.1 25.5 38.1 25.55 M20.1 34.4 L27.9 28.55 30.05 26.85 33.85 23.7 34.5 23.15 34.8 22.9 35.1 22.6 39.15 21.8 38.5 22.6 37.0 24.4 36.3 25.15 34.3 26.9 37.1 26.85 37.1 26.95 36.95 27.0 36.3 28.0 Q32.7 30.8 30.95 31.65 29.0 32.6 18.7 36.05 L20.1 34.4" fill="url(#gradient3)" fill-rule="evenodd" stroke="none"/>
    <path d="M39.8 8.15 L35.65 9.25 35.0 8.9 34.85 8.85 31.4 7.15 31.25 7.0 32.45 6.85 34.6 7.3 35.2 7.4 35.65 7.45 39.8 8.15 M24.65 9.9 Q25.55 11.0 27.35 11.45 L27.05 11.5 26.15 11.6 24.6 11.95 24.5 11.95 23.0 11.1 21.5 9.9 21.05 9.4 21.1 9.4 22.25 9.3 22.45 9.3 23.45 9.1 24.65 9.9 M28.05 11.9 L28.25 11.85 30.2 11.75 30.75 11.8 32.25 13.0 32.75 13.4 32.95 13.5 33.65 13.8 35.25 14.25 37.0 14.6 34.95 14.95 33.55 15.25 33.25 15.45 32.4 16.15 31.55 16.65 30.35 16.8 30.3 16.8 27.95 16.95 27.25 17.0 26.55 16.9 26.6 16.8 27.95 15.7 28.8 15.0 29.65 14.4 30.65 14.25 31.0 14.25 28.05 11.9 M38.55 26.4 L39.4 26.05 39.55 25.95 42.2 24.55 40.8 27.0 40.5 27.4 Q40.0 28.0 37.0 29.6 L36.9 29.65 38.0 27.45 38.1 27.2 38.55 26.4 M31.45 15.7 L27.95 16.95 31.45 15.7 M34.5 18.95 L32.2 19.75 31.9 19.85 31.7 19.95 30.8 20.15 29.9 20.35 29.4 20.35 26.1 20.15 24.3 19.9 24.15 19.95 24.6 19.6 27.35 18.7 28.65 18.75 28.65 18.8 28.8 18.8 30.5 18.6 30.7 18.6 32.0 18.2 31.0 18.75 34.2 18.95 34.5 18.95" fill="#69489a" fill-rule="evenodd" stroke="none"/>
    <path d="M48.0 7.0 L47.15 6.4 47.55 6.25 Q50.05 6.4 52.0 7.4 L52.05 7.4 Q53.5 8.15 54.25 9.1 M51.9 11.95 L54.4 12.75 M40.7 8.5 L40.25 8.25 39.8 8.15 35.65 7.45 35.2 7.4 34.6 7.3 32.45 6.85 30.4 5.75 29.55 4.9 29.35 4.55 29.55 4.5 31.7 3.9 35.9 3.45 36.0 3.45 37.1 3.65 34.15 2.2 35.85 1.85 36.2 1.85 36.6 1.85 37.55 1.9 38.1 1.95 Q39.15 2.1 39.7 2.4 41.45 3.4 42.4 3.65 M24.65 9.9 Q25.55 11.0 27.35 11.45 27.7 11.5 28.05 11.9 M30.75 11.8 L29.75 11.0 30.85 10.95 31.7 10.75 32.8 10.15 34.5 10.0 34.6 10.0 35.7 10.1 38.4 10.55 M51.9 11.95 L48.35 8.95 47.2 7.8 49.45 8.45 50.5 8.7 48.0 7.0 M43.0 21.9 L44.0 21.55 M42.2 24.55 L43.65 23.5 M43.0 21.9 Q40.4 22.9 39.55 23.75 L39.05 24.45 38.1 25.55 37.65 26.1 37.4 26.85 38.55 26.4 39.4 26.05 39.55 25.95 42.2 24.55 M20.1 34.4 L17.05 36.7 21.85 37.1 Q33.25 37.1 45.7 32.5 60.2 27.1 60.2 19.9 60.2 14.55 57.85 10.15 55.1 5.1 50.05 3.4 L33.45 0.0 21.95 0.8 21.6 0.8 10.8 1.65 10.8 1.7 4.65 2.6 Q2.05 3.0 0.0 3.75 L17.95 10.95 27.0 14.65 27.05 14.65 27.0 14.7 Q22.1 16.55 13.55 19.2 L8.15 21.2 36.85 21.2 35.1 22.6 34.8 22.9 34.5 23.15 33.85 23.7 30.05 26.85 27.9 28.55 20.1 34.4 M18.8 3.05 L18.5 2.95 18.1 2.7 20.15 2.45 20.4 2.45 21.25 2.6 21.8 2.75 22.65 3.0 24.65 3.75 M33.85 11.25 L30.85 10.95 M18.85 3.7 L18.5 3.7 17.65 3.55 18.95 5.1 20.0 5.75 21.05 6.3 22.3 6.7 M23.45 9.1 L22.2 8.3 27.3 8.55 M24.65 9.9 L23.45 9.1 M27.95 16.95 L31.45 15.7 M24.15 18.35 L24.1 18.3 27.95 16.95 M37.0 14.6 L35.25 14.25 33.65 13.8 32.95 13.5 32.75 13.4 32.25 13.0 30.75 11.8 M34.5 18.95 L34.2 18.95 31.0 18.75 32.0 18.2 30.7 18.6 30.5 18.6 28.8 18.8 28.65 18.8 28.65 18.75 27.35 18.7 25.45 18.55 24.15 18.35 M37.0 14.6 L38.8 14.85 M32.0 18.2 L32.75 17.45 Q33.65 16.7 34.55 16.45 L39.6 15.65 M34.5 18.95 L37.85 18.5 M18.85 3.7 L20.25 3.7 18.8 3.05" fill="none" stroke="#351762" stroke-linecap="round" stroke-linejoin="round" stroke-width="1"/>
  </g>
  <defs>
    <linearGradient gradientTransform="matrix(-0.0146, -0.0039, 0.0065, -0.024, 48.9, 24.2)" gradientUnits="userSpaceOnUse" id="gradient0" spreadMethod="pad" x1="-819.2" x2="819.2">
      <stop offset="0.0" stop-color="#4c2980"></stop>
      <stop offset="1.0" stop-color="#8869b6"></stop>
    </linearGradient>
    <linearGradient gradientTransform="matrix(-5.0E-4, -0.0233, 0.044, -0.001, 36.0, 3.65)" gradientUnits="userSpaceOnUse" id="gradient1" spreadMethod="pad" x1="-819.2" x2="819.2">
      <stop offset="0.0" stop-color="#8869b6"></stop>
      <stop offset="0.9921568627450981" stop-color="#bf96fc"></stop>
    </linearGradient>
    <linearGradient gradientTransform="matrix(-0.008, 0.0017, -5.0E-4, -0.0023, 21.5, 17.8)" gradientUnits="userSpaceOnUse" id="gradient2" spreadMethod="pad" x1="-819.2" x2="819.2">
      <stop offset="0.0" stop-color="#8869b6"></stop>
      <stop offset="0.9921568627450981" stop-color="#bf96fc"></stop>
    </linearGradient>
    <linearGradient gradientTransform="matrix(-0.0093, 0.0068, -0.0018, -0.0025, 28.8, 30.45)" gradientUnits="userSpaceOnUse" id="gradient3" spreadMethod="pad" x1="-819.2" x2="819.2">
      <stop offset="0.0" stop-color="#8869b6"></stop>
      <stop offset="0.9921568627450981" stop-color="#bf96fc"></stop>
    </linearGradient>
  </defs>
</svg>