<?xml version="1.0" encoding="UTF-8" standalone="no"?>
<svg xmlns:xlink="http://www.w3.org/1999/xlink" height="30.75px" width="30.25px" xmlns="http://www.w3.org/2000/svg">
  <g transform="matrix(1.0, 0.0, 0.0, 1.0, -48.1, -1.95)">
    <path d="M72.3 12.55 Q74.5 12.75 76.0 17.2 77.5 21.65 77.35 24.3 77.15 26.95 63.05 28.95 58.6 29.35 49.1 31.7 L49.1 26.6 49.95 25.7 49.2 25.1 Q49.9 24.9 52.2 22.55 L52.25 22.5 51.65 22.4 Q50.6 22.4 49.1 22.9 L49.1 20.8 49.65 20.4 49.1 20.45 49.1 19.0 49.5 18.6 49.1 18.65 49.1 12.25 52.65 12.2 51.3 11.6 50.25 10.85 50.3 10.75 Q50.9 11.15 52.45 11.55 L54.05 11.9 Q56.4 11.9 57.35 10.8 L59.1 8.25 Q57.75 6.45 55.9 4.9 L72.3 12.55" fill="url(#gradient0)" fill-rule="evenodd" stroke="none"/>
    <path d="M49.1 26.6 L49.1 22.9 Q50.6 22.4 51.65 22.4 L52.25 22.5 52.2 22.55 Q49.9 24.9 49.2 25.1 L49.95 25.7 49.1 26.6 M49.1 20.8 L49.1 20.45 49.65 20.4 49.1 20.8 M49.1 19.0 L49.1 18.65 49.5 18.6 49.1 19.0 M49.1 12.25 L49.1 2.95 Q53.5 4.0 55.9 4.9 57.75 6.45 59.1 8.25 L57.35 10.8 Q56.4 11.9 54.05 11.9 L52.45 11.55 Q50.9 11.15 50.3 10.75 L50.25 10.85 51.3 11.6 52.65 12.2 49.1 12.25" fill="url(#gradient1)" fill-rule="evenodd" stroke="none"/>
    <path d="M63.05 28.95 Q58.6 29.35 49.1 31.7 M49.1 2.95 Q53.5 4.0 55.9 4.9 L72.3 12.55" fill="none" stroke="#351762" stroke-linecap="round" stroke-linejoin="round" stroke-width="1"/>
  </g>
  <defs>
    <linearGradient gradientTransform="matrix(-0.0146, -0.0039, 0.0065, -0.024, 48.9, 24.2)" gradientUnits="userSpaceOnUse" id="gradient0" spreadMethod="pad" x1="-819.2" x2="819.2">
      <stop offset="0.0" stop-color="#4c2980"></stop>
      <stop offset="1.0" stop-color="#8869b6"></stop>
    </linearGradient>
    <linearGradient gradientTransform="matrix(-5.0E-4, -0.0233, 0.044, -0.001, 36.0, 3.65)" gradientUnits="userSpaceOnUse" id="gradient1" spreadMethod="pad" x1="-819.2" x2="819.2">
      <stop offset="0.0" stop-color="#8869b6"></stop>
      <stop offset="0.9921568627450981" stop-color="#bf96fc"></stop>
    </linearGradient>
  </defs>
</svg>