<?xml version="1.0" encoding="UTF-8" standalone="no"?>
<svg xmlns:xlink="http://www.w3.org/1999/xlink" height="49.3px" width="54.4px" xmlns="http://www.w3.org/2000/svg">
  <g transform="matrix(1.0, 0.0, 0.0, 1.0, 46.65, 21.35)">
    <path d="M-28.7 2.05 L-28.8 2.35 -29.85 3.85 Q-30.65 3.1 -31.7 3.65 L-32.55 4.3 Q-33.1 4.9 -33.15 5.8 L-33.2 6.35 Q-33.2 7.8 -32.15 10.55 L-32.05 10.85 -32.8 11.4 Q-33.2 11.4 -33.6 10.8 L-33.85 10.45 Q-33.95 9.4 -34.35 8.25 L-34.85 5.85 -34.85 5.8 Q-34.45 3.55 -32.55 2.65 -31.0 1.8 -29.15 2.3 L-28.7 2.05 M-39.55 16.15 L-39.8 16.6 -40.3 18.15 -41.0 18.55 Q-41.75 19.1 -41.75 19.6 -41.75 20.5 -41.05 21.6 L-41.2 21.85 -41.45 22.4 -43.0 23.4 -43.85 24.1 -44.35 22.9 Q-44.75 21.55 -44.75 19.6 L-44.5 17.4 Q-43.8 15.25 -41.6 15.25 -41.25 15.25 -40.0 15.95 L-39.55 16.15 M-40.6 25.8 L-40.3 25.65 -40.35 25.7 -39.9 25.5 -40.6 25.8" fill="#ffcc99" fill-rule="evenodd" stroke="none"/>
    <path d="M-30.2 4.95 Q-30.65 4.4 -31.3 4.65 L-31.35 4.45 Q-32.85 6.2 -31.85 8.4 L-31.25 10.25 Q-30.2 13.15 -30.2 13.6 -30.2 15.45 -30.85 17.2 -32.1 20.35 -35.0 20.35 L-37.5 19.7 Q-38.9 19.05 -39.4 19.05 L-40.25 19.3 Q-40.7 19.5 -40.7 19.65 -40.7 20.3 -39.65 21.7 -38.6 23.15 -38.6 24.5 -38.6 26.95 -40.9 26.95 -45.65 26.95 -45.65 19.65 -45.7 18.15 -45.25 16.8 -44.4 14.2 -42.0 14.2 -41.25 14.2 -40.0 14.8 L-37.9 15.4 Q-36.3 15.4 -35.5 13.3 -35.05 12.0 -35.05 11.0 -35.05 9.85 -35.55 8.45 -36.05 7.05 -36.05 5.85 L-36.05 5.8 Q-35.9 3.15 -33.9 1.95 -31.95 0.7 -30.55 1.0 -29.15 1.3 -28.55 1.55 L-28.7 2.05 -29.15 2.3 Q-31.0 1.8 -32.55 2.65 -34.45 3.55 -34.85 5.8 L-34.85 5.85 -34.35 8.25 Q-33.95 9.4 -33.85 10.45 L-33.85 11.05 -34.5 13.9 Q-35.65 16.6 -37.9 16.6 L-39.55 16.15 -40.0 15.95 Q-41.25 15.25 -41.6 15.25 -43.8 15.25 -44.5 17.4 L-44.75 19.6 Q-44.75 21.55 -44.35 22.9 L-43.85 24.1 -42.9 25.2 Q-42.15 25.8 -41.0 25.8 L-40.6 25.8 -39.9 25.5 -39.85 25.45 -39.8 25.35 -39.7 25.15 -39.65 24.5 Q-39.65 23.6 -40.7 22.15 L-41.05 21.6 Q-41.75 20.5 -41.75 19.6 -41.75 19.1 -41.0 18.55 L-40.3 18.15 -39.35 17.95 Q-38.65 17.95 -37.2 18.6 L-35.0 19.2 Q-32.55 19.2 -31.6 16.45 L-31.1 13.65 Q-31.1 13.3 -32.05 10.85 L-32.15 10.55 Q-33.2 7.8 -33.2 6.35 L-33.15 5.8 Q-33.1 4.9 -32.55 4.3 L-31.7 3.65 Q-30.65 3.1 -29.85 3.85 L-28.3 5.65 -29.0 6.25 -29.0 6.35 -29.9 5.35 -30.2 4.95" fill="#a36a6a" fill-rule="evenodd" stroke="none"/>
    <path d="M-29.9 5.35 L-30.0 5.25 -30.2 4.95 -29.9 5.35" fill="#e0cbcb" fill-rule="evenodd" stroke="none"/>
    <path d="M-28.8 2.35 Q-27.95 2.55 -27.5 3.1 L-27.3 3.4 Q-27.1 4.1 -27.2 4.75 L-27.2 4.8 -27.3 5.35 -27.85 5.65 -28.3 5.65 -29.85 3.85 -28.8 2.35 M-33.85 10.45 L-33.6 10.8 Q-33.2 11.4 -32.8 11.4 L-32.05 10.85 Q-31.1 13.3 -31.1 13.65 L-31.6 16.45 Q-32.55 19.2 -35.0 19.2 L-37.2 18.6 Q-38.65 17.95 -39.35 17.95 L-40.3 18.15 -39.8 16.6 -39.55 16.15 -37.9 16.6 Q-35.65 16.6 -34.5 13.9 L-33.85 11.05 -33.85 10.45 M-43.85 24.1 L-43.0 23.4 -41.45 22.4 -41.2 21.85 -41.05 21.6 -40.7 22.15 Q-39.65 23.6 -39.65 24.5 L-39.7 25.15 -39.8 25.35 -39.85 25.45 -39.9 25.5 -40.35 25.7 -40.3 25.65 -40.6 25.8 -41.0 25.8 Q-42.15 25.8 -42.9 25.2 L-43.85 24.1" fill="#e4945f" fill-rule="evenodd" stroke="none"/>
    <path d="M6.75 -20.05 Q6.75 -19.95 5.65 -19.5 L4.1 -19.05 3.65 -19.1 3.6 -19.35 Q3.6 -19.7 5.2 -20.15 L6.75 -20.05 M-28.05 -0.6 Q-26.85 -0.55 -26.85 0.2 L-26.95 0.4 -27.25 0.6 -29.25 -0.1 Q-29.25 -0.65 -28.05 -0.6 M-0.55 -17.3 Q-0.55 -17.0 -4.55 -15.05 L-9.95 -12.4 -15.25 -9.3 -18.1 -7.65 -18.15 -7.7 -15.25 -9.95 Q-8.5 -14.85 -0.6 -17.55 L-0.55 -17.3 M-31.4 2.55 L-31.35 2.8 -31.8 3.3 -32.7 3.9 -32.95 3.6 -32.6 2.85 Q-32.1 2.4 -31.4 2.55 M-33.7 4.65 L-34.0 4.35 -33.75 4.05 -33.5 4.35 -33.6 4.6 -33.55 4.65 -33.7 4.65 M-43.8 17.15 Q-43.8 15.9 -42.5 16.1 L-42.45 16.3 -43.45 17.75 Q-43.9 17.75 -43.8 17.15 M-40.9 16.55 L-41.15 16.65 -41.45 16.3 Q-41.45 15.9 -40.9 16.05 L-40.85 16.3 -40.9 16.55 M-43.65 21.35 L-43.9 21.05 -43.85 20.85 -43.5 20.85 -43.4 21.15 -43.65 21.35" fill="#ffffff" fill-rule="evenodd" stroke="none"/>
  </g>
</svg>