<?xml version="1.0" encoding="UTF-8" standalone="no"?>
<svg xmlns:xlink="http://www.w3.org/1999/xlink" height="32.65px" width="26.4px" xmlns="http://www.w3.org/2000/svg">
  <g transform="matrix(1.0, 0.0, 0.0, 1.0, -34.8, 28.4)">
    <path d="M37.7 -2.9 Q37.15 -4.15 36.95 -5.5 36.65 -7.0 36.75 -8.6 36.75 -10.55 37.45 -14.5 L37.8 -16.35 Q38.85 -17.0 40.15 -17.0 46.85 -17.0 46.6 -8.95 46.6 -5.8 44.1 -3.9 42.05 -2.35 39.75 -2.35 38.65 -2.35 37.7 -2.9" fill="url(#gradient0)" fill-rule="evenodd" stroke="none"/>
    <path d="M37.5 -21.8 L37.5 -22.2 Q37.5 -22.95 38.6 -24.6 39.85 -26.45 41.25 -26.6 41.45 -26.0 42.25 -25.35 43.45 -24.25 46.05 -23.1 53.35 -19.85 54.4 -19.1 59.35 -15.55 59.35 -9.85 59.35 -7.35 57.25 -3.45 L57.1 -3.45 Q56.15 -1.65 54.8 -0.75 49.9 2.4 46.4 2.4 39.9 2.4 37.7 -2.85 L37.7 -2.9 Q38.65 -2.35 39.75 -2.35 42.05 -2.35 44.1 -3.9 46.6 -5.8 46.6 -8.95 46.85 -17.0 40.15 -17.0 38.85 -17.0 37.8 -16.35 L38.25 -18.6 38.05 -20.45 37.6 -21.75 37.5 -21.8" fill="#e0cbcb" fill-rule="evenodd" stroke="none"/>
    <path d="M41.25 -26.6 L41.1 -27.35 41.1 -27.4 41.25 -27.4 43.75 -25.15 Q45.0 -24.45 48.0 -23.15 49.6 -22.35 56.15 -19.1 60.2 -15.2 60.2 -10.2 58.85 -1.85 57.1 -1.85 56.3 -0.65 55.15 0.15 50.35 3.25 46.45 3.25 39.35 3.25 36.9 -2.5 35.65 -5.4 35.85 -8.65 35.85 -11.5 37.45 -20.15 L36.8 -22.5 36.85 -22.6 36.9 -22.5 37.5 -21.8 37.6 -21.75 38.05 -20.45 38.25 -18.6 37.8 -16.35 37.45 -14.5 Q36.75 -10.55 36.75 -8.6 36.65 -7.0 36.95 -5.5 37.15 -4.15 37.7 -2.9 L37.7 -2.85 Q39.9 2.4 46.4 2.4 49.9 2.4 54.8 -0.75 56.15 -1.65 57.1 -3.45 L57.25 -3.45 Q59.35 -7.35 59.35 -9.85 59.35 -15.55 54.4 -19.1 53.35 -19.85 46.05 -23.1 43.45 -24.25 42.25 -25.35 41.45 -26.0 41.25 -26.6" fill="#a36a6a" fill-rule="evenodd" stroke="none"/>
  </g>
  <defs>
    <radialGradient cx="0" cy="0" gradientTransform="matrix(0.0573, -0.0154, 0.0068, 0.0253, -25.75, -19.25)" gradientUnits="userSpaceOnUse" id="gradient0" r="819.2" spreadMethod="pad">
      <stop offset="0.47843137254901963" stop-color="#ffffff"></stop>
      <stop offset="0.8823529411764706" stop-color="#f2eaea"></stop>
    </radialGradient>
  </defs>
</svg>