<?xml version="1.0" encoding="UTF-8" standalone="no"?>
<svg xmlns:xlink="http://www.w3.org/1999/xlink" height="23.7px" width="50.05px" xmlns="http://www.w3.org/2000/svg">
  <g transform="matrix(1.0, 0.0, 0.0, 1.0, 28.2, 7.4)">
    <path d="M-18.2 0.65 L-18.7 0.85 -19.65 1.25 -19.2 0.5 -18.55 -0.3 -18.5 -0.3 Q-16.8 -2.3 -14.15 -3.25 -10.4 -4.6 2.7 -5.3 L4.85 -5.2 5.75 -5.15 5.8 -5.15 5.9 -4.45 Q5.9 -3.5 5.0 -2.55 3.5 -1.0 0.2 -1.0 L-5.4 -1.35 -9.0 -1.75 Q-14.6 -1.75 -17.65 0.25 L-18.2 0.65" fill="url(#gradient0)" fill-rule="evenodd" stroke="none"/>
    <path d="M-18.2 0.65 L-17.65 0.25 Q-14.6 -1.75 -9.0 -1.75 L-5.4 -1.35 0.2 -1.0 Q3.5 -1.0 5.0 -2.55 5.9 -3.5 5.9 -4.45 L5.8 -5.15 Q11.05 -4.85 13.65 -3.95 L14.55 -3.55 14.7 -3.5 Q15.7 -1.5 15.7 0.2 15.7 1.3 14.25 2.35 12.4 3.7 9.3 3.8 L8.4 3.7 Q4.3 3.3 2.4 2.6 -3.65 -0.55 -9.15 -0.9 L-9.2 -0.85 -9.25 -0.8 -10.05 -0.85 -10.6 -0.85 -10.85 -0.85 -10.9 -0.9 -10.95 -0.95 Q-14.35 -0.85 -18.2 0.65 M-5.75 5.8 Q-7.65 4.4 -7.65 3.15 L-7.05 2.35 Q-6.3 1.75 -5.3 1.95 1.9 3.7 1.9 6.3 1.9 7.6 -0.15 7.6 -2.8 7.6 -5.75 5.8 M-8.95 9.65 Q-11.75 9.35 -11.95 7.55 -12.1 5.7 -9.45 6.25 -6.85 6.7 -6.5 8.35 -6.2 9.95 -8.95 9.65 M-19.2 11.35 Q-19.2 10.85 -18.5 10.3 -17.65 9.6 -16.4 9.6 -15.1 9.6 -15.1 10.65 -15.1 12.25 -17.65 12.25 -19.2 12.25 -19.2 11.35 M-23.95 13.9 L-24.4 14.65 Q-24.95 15.3 -25.8 15.3 -27.2 15.3 -27.2 14.5 L-26.55 13.65 Q-25.75 13.05 -25.0 13.05 -23.95 13.05 -23.95 13.9" fill="#e0cbcb" fill-rule="evenodd" stroke="none"/>
    <path d="M5.8 -5.15 L5.75 -5.15 4.85 -5.2 2.7 -5.3 Q-10.4 -4.6 -14.15 -3.25 -16.8 -2.3 -18.5 -0.3 L-18.55 -0.3 -19.2 0.5 -19.65 1.25 -18.7 0.85 -18.2 0.65 Q-14.35 -0.85 -10.95 -0.95 L-10.9 -0.9 -10.85 -0.85 -10.9 -0.75 -10.95 -0.75 -12.05 -0.65 Q-16.4 -0.1 -20.4 2.4 L-20.45 2.4 Q-20.8 2.4 -20.85 1.6 -20.85 0.65 -18.85 -1.35 -16.95 -3.35 -15.6 -3.8 -8.2 -6.4 4.2 -6.4 14.75 -6.4 18.0 -1.85 20.85 2.5 20.85 4.35 20.85 6.35 18.2 6.35 L7.6 4.7 3.1 3.85 -2.0 1.5 Q-5.9 -0.4 -9.15 -0.7 L-9.2 -0.7 -9.25 -0.8 -9.2 -0.85 -9.15 -0.9 Q-3.65 -0.55 2.4 2.6 4.3 3.3 8.4 3.7 L9.3 3.8 10.6 3.9 10.65 3.9 11.35 4.05 18.1 5.2 19.5 4.95 19.75 4.3 19.75 4.25 Q19.75 3.3 17.0 -1.35 L16.35 -2.2 16.3 -2.25 15.55 -2.95 14.7 -3.5 14.55 -3.55 13.65 -3.95 Q11.05 -4.85 5.8 -5.15" fill="#a36a6a" fill-rule="evenodd" stroke="none"/>
    <path d="M14.7 -3.5 L15.55 -2.95 16.3 -2.25 16.35 -2.2 17.0 -1.35 Q19.75 3.3 19.75 4.25 L19.75 4.3 19.5 4.95 18.1 5.2 11.35 4.05 10.65 3.9 10.6 3.9 9.3 3.8 Q12.4 3.7 14.25 2.35 15.7 1.3 15.7 0.2 15.7 -1.5 14.7 -3.5" fill="#cca9a9" fill-rule="evenodd" stroke="none"/>
  </g>
  <defs>
    <radialGradient cx="0" cy="0" gradientTransform="matrix(0.0219, 0.0, 0.0, 0.0219, -14.5, -15.45)" gradientUnits="userSpaceOnUse" id="gradient0" r="819.2" spreadMethod="pad">
      <stop offset="0.47843137254901963" stop-color="#ffffff"></stop>
      <stop offset="0.8823529411764706" stop-color="#f2eaea"></stop>
    </radialGradient>
  </defs>
</svg>