<?xml version="1.0" encoding="UTF-8" standalone="no"?>
<svg xmlns:xlink="http://www.w3.org/1999/xlink" height="20.25px" width="61.3px" xmlns="http://www.w3.org/2000/svg">
  <g transform="matrix(1.0, 0.0, 0.0, 1.0, -38.2, 4.2)">
    <path d="M39.25 2.1 L39.2 1.1 41.6 0.65 41.7 0.65 50.7 -1.1 62.75 -2.45 63.6 -2.9 64.45 -3.2 Q65.55 -3.2 66.1 -2.6 L66.5 -2.65 71.9 -2.5 72.4 -2.5 73.1 -2.85 74.8 -3.15 75.75 -2.7 76.15 -2.35 83.45 -1.8 Q84.1 -2.55 85.9 -2.0 87.35 -1.6 88.35 -0.85 L92.95 0.4 Q93.65 0.2 95.55 0.85 98.5 1.8 98.5 4.1 98.5 5.05 97.9 5.9 96.9 7.35 94.6 7.35 92.2 7.35 92.2 5.3 92.2 4.85 92.35 4.5 81.6 6.25 72.9 10.35 68.0 12.65 65.3 15.05 L66.25 14.15 66.35 14.0 68.5 12.05 68.55 12.05 70.75 10.2 71.85 9.45 Q76.9 7.1 81.75 5.8 86.8 4.45 92.7 4.0 93.2 3.5 94.35 3.5 95.55 3.5 95.85 3.8 L93.35 4.55 Q93.0 4.7 93.0 5.3 93.0 5.7 93.35 6.05 93.8 6.45 94.6 6.45 97.35 6.45 97.6 4.1 97.6 3.1 96.6 2.4 L95.1 1.7 92.5 1.0 91.5 0.75 84.6 -0.55 66.6 -1.6 Q54.9 -1.5 41.9 1.5 L41.75 1.5 39.25 2.1 M70.45 -1.5 L71.4 -1.3 72.15 -0.65 72.15 -0.6 Q72.2 -0.45 71.85 -0.45 L71.3 -0.65 70.35 -0.9 68.95 -0.5 67.95 0.0 67.95 -0.15 Q67.95 -0.55 68.95 -1.05 L70.45 -1.5 M79.95 -0.15 L79.95 0.05 79.7 0.2 Q78.95 -0.3 77.9 -0.2 L76.65 0.0 76.2 -0.05 77.75 -0.7 Q79.05 -1.0 79.95 -0.15 M77.65 3.15 L78.2 3.45 78.2 3.65 78.0 3.75 75.4 3.6 74.7 3.6 74.55 3.45 74.8 3.05 76.5 2.85 77.65 3.15 M87.6 1.35 L87.45 1.35 84.9 1.1 84.9 0.95 85.25 0.65 86.0 0.5 87.05 0.7 87.65 1.05 87.6 1.35 M83.1 3.1 L82.25 3.15 Q82.6 2.7 83.1 2.65 L83.75 2.7 83.1 3.1 M67.55 4.05 L68.6 4.05 67.9 4.5 66.9 4.8 66.7 4.75 66.6 4.65 66.6 4.45 Q66.6 4.05 67.55 4.05 M63.1 0.2 L62.85 0.3 62.2 0.15 61.8 -0.05 Q60.55 -0.05 59.55 0.75 L59.15 0.6 Q59.7 0.0 61.0 -0.3 62.5 -0.7 63.15 0.05 L63.1 0.2" fill="#a36a6a" fill-rule="evenodd" stroke="none"/>
    <path d="M66.25 14.15 L65.5 14.45 Q64.8 14.45 64.25 14.05 L63.6 13.65 57.0 13.35 53.45 12.3 51.9 11.75 63.5 7.0 Q69.6 4.85 75.4 3.6 L78.0 3.75 78.2 3.65 78.2 3.45 77.65 3.15 Q84.8 1.8 91.55 1.8 L96.6 2.4 Q97.6 3.1 97.6 4.1 97.35 6.45 94.6 6.45 93.8 6.45 93.35 6.05 93.0 5.7 93.0 5.3 93.0 4.7 93.35 4.55 L95.85 3.8 Q95.55 3.5 94.35 3.5 93.2 3.5 92.7 4.0 86.8 4.45 81.75 5.8 76.9 7.1 71.85 9.45 L70.75 10.2 68.55 12.05 68.5 12.05 66.35 14.0 66.25 14.15 M83.1 3.1 L83.75 2.7 83.1 2.65 Q82.6 2.7 82.25 3.15 L83.1 3.1" fill="#e0cbcb" fill-rule="evenodd" stroke="none"/>
    <path d="M51.9 11.75 L51.7 11.65 50.85 11.35 Q45.45 9.4 44.3 9.2 L42.35 8.9 39.75 8.45 39.25 2.1 41.75 1.5 41.9 1.5 Q54.9 -1.5 66.6 -1.6 L84.6 -0.55 91.5 0.75 92.5 1.0 95.1 1.7 96.6 2.4 91.55 1.8 Q84.8 1.8 77.65 3.15 L76.5 2.85 74.8 3.05 74.55 3.45 74.7 3.6 75.4 3.6 Q69.6 4.85 63.5 7.0 L51.9 11.75 M79.95 -0.15 Q79.05 -1.0 77.75 -0.7 L76.2 -0.05 76.65 0.0 77.9 -0.2 Q78.95 -0.3 79.7 0.2 L79.95 0.05 79.95 -0.15 M70.45 -1.5 L68.95 -1.05 Q67.95 -0.55 67.95 -0.15 L67.95 0.0 68.95 -0.5 70.35 -0.9 71.3 -0.65 71.85 -0.45 Q72.2 -0.45 72.15 -0.6 L72.15 -0.65 71.4 -1.3 70.45 -1.5 M87.6 1.35 L87.65 1.05 87.05 0.7 86.0 0.5 85.25 0.65 84.9 0.95 84.9 1.1 87.45 1.35 87.6 1.35 M63.1 0.2 L63.15 0.05 Q62.5 -0.7 61.0 -0.3 59.7 0.0 59.15 0.6 L59.55 0.75 Q60.55 -0.05 61.8 -0.05 L62.2 0.15 62.85 0.3 63.1 0.2 M67.55 4.05 Q66.6 4.05 66.6 4.45 L66.6 4.65 66.7 4.75 66.9 4.8 67.9 4.5 68.6 4.05 67.55 4.05" fill="url(#gradient0)" fill-rule="evenodd" stroke="none"/>
  </g>
  <defs>
    <radialGradient cx="0" cy="0" gradientTransform="matrix(0.0269, -0.0039, 0.0017, 0.0114, 64.15, -3.05)" gradientUnits="userSpaceOnUse" id="gradient0" r="819.2" spreadMethod="pad">
      <stop offset="0.47843137254901963" stop-color="#ffffff"></stop>
      <stop offset="0.8823529411764706" stop-color="#f2eaea"></stop>
    </radialGradient>
  </defs>
</svg>