<?xml version="1.0" encoding="UTF-8" standalone="no"?>
<svg xmlns:xlink="http://www.w3.org/1999/xlink" height="82.1px" width="71.5px" xmlns="http://www.w3.org/2000/svg">
  <g transform="matrix(1.0, 0.0, 0.0, 1.0, 13.5, 63.1)">
    <path d="M11.85 -9.6 L11.0 -9.05 10.8 -8.95 Q10.55 -9.0 10.55 -9.2 L10.75 -9.4 Q10.8 -9.75 11.75 -10.4 L11.8 -11.0 11.5 -15.85 Q11.1 -16.9 10.3 -17.3 L9.65 -17.55 9.15 -17.65 8.85 -17.65 8.8 -17.65 Q6.9 -17.65 6.1 -16.5 L5.25 -14.95 3.65 -9.95 3.35 -8.65 3.3 -6.25 3.3 -3.75 Q3.3 -1.0 2.55 1.25 L2.55 1.3 2.45 1.35 2.5 1.35 2.35 1.4 2.3 1.4 2.2 1.35 2.15 1.3 2.1 1.25 2.05 1.1 2.05 1.05 2.1 0.45 2.1 0.4 2.45 -2.9 2.45 -3.6 2.05 -2.75 0.25 0.75 -1.9 5.0 -3.15 7.15 Q1.05 7.2 2.75 8.25 L2.95 8.4 2.95 8.5 2.6 8.55 2.2 8.45 1.65 8.4 -3.6 8.05 Q-4.6 8.05 -5.25 8.75 L-5.5 9.0 -5.55 9.1 -5.8 9.9 -5.55 9.7 Q-4.15 8.7 -1.65 8.7 0.4 8.7 1.7 9.65 L2.55 10.45 2.65 10.55 2.7 10.5 2.75 10.5 2.8 10.5 3.15 10.4 3.4 10.4 4.2 10.4 4.7 10.55 6.15 10.95 Q6.45 10.7 6.9 10.55 L8.15 10.25 8.9 10.15 9.05 10.15 9.1 9.95 9.3 8.8 9.5 7.85 9.5 7.75 9.85 5.9 9.85 5.85 9.9 5.5 10.35 3.0 10.35 2.9 10.25 3.0 9.9 3.3 9.85 3.35 9.2 3.95 Q9.05 4.1 9.05 4.2 L8.35 5.25 8.3 5.25 8.15 5.2 Q9.05 3.15 9.55 2.8 L9.65 2.7 9.9 2.3 10.05 2.05 11.35 0.4 11.15 -0.65 11.25 -0.95 11.05 -0.65 10.45 -0.05 Q11.55 -2.6 11.55 -3.25 L11.45 -4.4 11.5 -4.6 11.45 -4.9 11.5 -6.25 Q11.55 -8.3 11.9 -9.55 L11.9 -9.65 11.85 -9.6 M12.2 -14.9 L12.25 -14.25 12.5 -11.05 12.45 -10.5 12.4 -10.0 12.4 -9.95 12.5 -8.45 12.3 -6.25 12.15 -4.65 12.3 -3.2 Q12.3 -2.3 11.9 -1.75 L11.9 -1.5 11.8 -0.85 12.05 0.65 11.05 2.1 11.05 2.25 Q10.35 8.65 9.7 10.1 10.65 10.15 11.25 10.55 12.25 11.25 12.2 13.0 12.2 14.1 11.25 15.75 9.9 18.0 7.8 18.0 5.55 18.0 4.85 16.4 L2.35 16.75 1.85 16.6 Q0.3 17.85 -2.25 17.85 -3.7 17.85 -5.0 17.1 L-6.0 16.6 -6.2 16.6 -6.7 17.0 Q-7.55 17.55 -8.6 17.55 -12.5 17.55 -12.5 12.55 -12.5 8.55 -8.9 8.55 -7.25 8.55 -6.5 9.0 L-6.3 8.65 Q-6.2 7.9 -5.55 7.55 -4.95 7.2 -3.95 7.15 L-1.9 2.95 -0.6 0.3 1.1 -3.3 2.45 -6.25 2.45 -7.1 2.5 -9.0 2.75 -9.95 3.6 -12.4 4.65 -15.25 4.9 -15.65 5.55 -16.7 Q6.4 -18.0 8.1 -18.0 11.65 -18.0 12.2 -14.9 M6.95 -0.7 Q7.15 0.15 7.6 0.15 8.1 0.15 8.2 -2.3 L8.1 -3.0 8.25 -3.05 8.6 -2.2 Q8.65 0.65 7.55 0.65 6.9 0.65 6.65 -0.25 L6.5 -1.15 Q6.5 -2.6 7.25 -2.6 7.75 -2.6 7.75 -1.8 L7.65 -1.45 7.3 -2.3 6.85 -1.65 6.95 -0.7 M11.1 11.2 L8.9 10.8 Q5.2 11.1 5.2 14.4 5.2 17.25 7.8 17.25 9.3 17.25 10.55 15.5 11.55 14.0 11.55 13.0 L11.25 11.85 11.1 11.2 M-5.95 15.7 L-5.15 16.3 -4.9 16.4 Q-3.95 16.9 -3.05 17.05 L-2.15 17.15 Q0.7 17.15 2.1 15.3 2.95 14.1 2.95 13.05 L2.95 12.7 2.75 12.0 2.35 11.3 2.3 11.3 2.1 11.0 1.65 10.55 1.35 10.3 Q0.8 9.95 0.2 9.75 L-0.75 9.5 -0.95 9.5 -2.2 9.4 Q-4.4 9.4 -5.55 10.5 -6.75 11.65 -6.75 14.05 -6.75 14.95 -5.95 15.7 M3.0 11.05 Q3.65 12.05 3.65 13.0 3.65 14.45 2.6 15.8 L2.25 16.25 4.55 15.85 4.65 15.85 Q4.5 15.25 4.5 14.5 4.5 12.3 5.8 11.2 L5.75 11.2 3.4 10.95 3.0 11.05 M-7.15 11.85 L-6.4 10.45 -6.7 10.1 -6.65 9.65 -8.6 9.25 Q-11.8 9.25 -11.8 12.55 -11.8 14.0 -11.4 14.95 -10.7 16.75 -8.6 16.75 -7.45 16.75 -6.75 16.3 -7.45 15.55 -7.45 13.95 L-7.15 11.85" fill="#a36a6a" fill-rule="evenodd" stroke="none"/>
    <path d="M10.3 -17.3 Q11.1 -16.9 11.5 -15.85 L11.8 -11.0 11.75 -10.4 Q10.8 -9.75 10.75 -9.4 L10.55 -9.2 Q10.55 -9.0 10.8 -8.95 L11.0 -9.05 11.85 -9.6 11.9 -9.55 Q11.55 -8.3 11.5 -6.25 L11.45 -4.9 11.5 -4.6 11.45 -4.4 11.55 -3.25 Q11.55 -2.6 10.45 -0.05 L11.05 -0.65 11.15 -0.65 11.35 0.4 10.05 2.05 9.9 2.3 9.65 2.7 9.55 2.8 Q9.05 3.15 8.15 5.2 L8.3 5.25 8.2 5.35 7.9 5.85 6.65 8.2 8.85 6.8 8.85 6.85 Q8.2 8.85 8.15 10.25 L6.9 10.55 Q6.45 10.7 6.15 10.95 L4.7 10.55 4.2 10.4 3.4 10.4 3.15 10.4 2.8 10.5 2.75 10.5 2.7 10.5 2.65 10.55 2.55 10.45 1.7 9.65 Q1.75 8.8 2.2 8.45 L2.6 8.55 2.95 8.5 2.95 8.4 2.75 8.25 4.15 7.75 Q4.75 7.35 4.75 5.85 L4.75 5.65 Q4.75 3.6 4.9 2.95 5.1 1.9 6.4 0.35 6.4 -2.3 5.9 -3.75 5.9 -4.9 6.3 -4.9 7.15 -4.9 7.1 -3.95 L7.6 -6.25 8.6 -9.95 8.6 -10.0 Q9.35 -12.35 9.35 -15.15 9.35 -16.35 8.8 -17.65 L8.85 -17.65 9.15 -17.65 9.65 -17.55 10.25 -17.3 10.3 -17.3 M6.95 -0.7 L6.85 -1.65 7.3 -2.3 7.65 -1.45 7.75 -1.8 Q7.75 -2.6 7.25 -2.6 6.5 -2.6 6.5 -1.15 L6.65 -0.25 Q6.9 0.65 7.55 0.65 8.65 0.65 8.6 -2.2 L8.25 -3.05 8.1 -3.0 8.2 -2.3 Q8.1 0.15 7.6 0.15 7.15 0.15 6.95 -0.7 M11.1 11.2 L11.25 11.85 11.55 13.0 Q11.55 14.0 10.55 15.5 9.3 17.25 7.8 17.25 5.2 17.25 5.2 14.4 5.2 11.1 8.9 10.8 L11.1 11.2 M1.35 10.3 L1.65 10.55 2.1 11.0 2.3 11.3 2.35 11.3 2.75 12.0 2.95 12.7 2.95 13.05 Q2.95 14.1 2.1 15.3 0.7 17.15 -2.15 17.15 L-3.05 17.05 Q-3.95 16.9 -4.9 16.4 L-5.15 16.3 -5.95 15.7 -6.2 14.85 Q-6.2 11.8 -3.3 11.2 L-2.25 11.15 0.2 11.45 -0.15 10.55 -0.7 9.75 -0.95 9.5 -0.75 9.5 0.2 9.75 1.0 10.1 1.2 10.4 1.35 10.3 M3.0 11.05 L3.4 10.95 5.75 11.2 5.8 11.2 Q4.5 12.3 4.5 14.5 4.5 15.25 4.65 15.85 L4.55 15.85 2.25 16.25 2.6 15.8 Q3.65 14.45 3.65 13.0 3.65 12.05 3.0 11.05 M9.5 7.75 L9.6 7.05 9.85 5.9 9.5 7.75 M-11.4 14.95 Q-11.1 11.4 -7.85 11.4 L-7.15 11.85 -7.45 13.95 Q-7.45 15.55 -6.75 16.3 -7.45 16.75 -8.6 16.75 -10.7 16.75 -11.4 14.95" fill="#e0cbcb" fill-rule="evenodd" stroke="none"/>
    <path d="M8.15 10.25 Q8.2 8.85 8.85 6.85 L8.85 6.8 6.65 8.2 7.9 5.85 8.2 5.35 8.3 5.25 8.35 5.25 9.05 4.2 Q9.05 4.1 9.2 3.95 L9.85 3.35 9.9 3.3 10.25 3.0 10.35 3.0 9.9 5.5 9.85 5.85 9.85 5.9 9.6 7.05 9.5 7.75 9.5 7.85 9.3 8.8 9.1 9.95 9.05 10.15 8.9 10.15 8.15 10.25" fill="#cca9a9" fill-rule="evenodd" stroke="none"/>
    <path d="M10.3 -17.3 L10.25 -17.3 9.65 -17.55 10.3 -17.3 M8.8 -17.65 Q9.35 -16.35 9.35 -15.15 9.35 -12.35 8.6 -10.0 L8.6 -9.95 7.6 -6.25 7.1 -3.95 Q7.15 -4.9 6.3 -4.9 5.9 -4.9 5.9 -3.75 6.4 -2.3 6.4 0.35 5.1 1.9 4.9 2.95 4.75 3.6 4.75 5.65 L4.75 5.85 Q4.75 7.35 4.15 7.75 L2.75 8.25 Q1.05 7.2 -3.15 7.15 L-1.9 5.0 0.25 0.75 2.05 -2.75 2.45 -3.6 2.45 -2.9 2.1 0.4 2.1 0.45 2.05 1.05 2.05 1.1 2.1 1.25 2.15 1.3 2.2 1.35 2.3 1.4 2.35 1.4 2.5 1.35 2.45 1.35 2.55 1.3 2.55 1.25 Q3.3 -1.0 3.3 -3.75 L3.3 -6.25 3.35 -8.65 3.65 -9.95 5.25 -14.95 6.1 -16.5 Q6.9 -17.65 8.8 -17.65 M2.2 8.45 Q1.75 8.8 1.7 9.65 0.4 8.7 -1.65 8.7 -4.15 8.7 -5.55 9.7 L-5.8 9.9 -5.55 9.1 -5.5 9.0 -5.25 8.75 Q-4.6 8.05 -3.6 8.05 L1.65 8.4 2.2 8.45" fill="url(#gradient0)" fill-rule="evenodd" stroke="none"/>
    <path d="M-11.4 14.95 Q-11.8 14.0 -11.8 12.55 -11.8 9.25 -8.6 9.25 L-6.65 9.65 -6.7 10.1 -6.4 10.45 -7.15 11.85 -7.85 11.4 Q-11.1 11.4 -11.4 14.95" fill="url(#gradient1)" fill-rule="evenodd" stroke="none"/>
    <path d="M1.35 10.3 L1.2 10.4 1.0 10.1 0.2 9.75 Q0.8 9.95 1.35 10.3 M-0.95 9.5 L-0.7 9.75 -0.15 10.55 0.2 11.45 -2.25 11.15 -3.3 11.2 Q-6.2 11.8 -6.2 14.85 L-5.95 15.7 Q-6.75 14.95 -6.75 14.05 -6.75 11.65 -5.55 10.5 -4.4 9.4 -2.2 9.4 L-0.95 9.5" fill="url(#gradient2)" fill-rule="evenodd" stroke="none"/>
    <path d="M52.85 -61.8 L53.25 -62.1 Q54.35 -62.1 55.4 -58.55 L56.15 -55.1 Q57.0 -51.8 57.0 -48.3 57.0 -44.15 56.55 -42.05 L56.15 -38.65 55.7 -37.15 Q55.15 -32.55 51.95 -24.4 48.45 -15.35 45.8 -11.7 L41.35 -4.5 Q39.35 -1.15 32.7 4.95 26.05 11.05 19.7 13.8 18.85 14.55 15.75 15.6 L12.05 16.55 9.75 16.75 9.55 16.65 8.4 16.05 Q7.55 15.75 7.25 14.85 6.9 13.75 7.55 13.05 L8.95 11.9 Q9.3 11.55 9.8 11.35 L12.05 10.6 12.15 10.55 13.7 10.1 14.85 9.75 Q18.95 8.6 23.7 5.25 26.65 3.15 31.35 -0.95 L33.05 -2.75 Q36.15 -6.1 39.0 -9.95 44.3 -17.1 47.35 -24.15 50.4 -31.2 52.05 -40.7 53.7 -50.25 53.35 -53.55 52.95 -56.9 52.7 -60.8 L52.8 -61.8 52.85 -61.8 M55.5 -53.7 L55.2 -55.05 54.45 -58.4 Q54.2 -59.7 53.15 -61.15 L54.35 -54.15 Q54.35 -37.85 48.2 -23.55 42.9 -11.35 33.6 -2.0 L33.5 -1.9 26.85 4.0 25.05 5.45 Q22.5 7.5 16.25 10.35 14.85 11.0 12.05 11.7 L10.85 12.0 10.7 12.05 10.25 12.1 9.5 12.25 7.9 13.25 Q7.15 13.8 7.3 14.95 L7.5 15.15 Q8.2 15.75 9.2 15.85 L10.7 15.9 12.05 15.7 16.75 14.35 Q19.95 12.65 25.65 9.05 31.35 5.45 35.6 0.75 39.85 -4.0 43.35 -9.55 46.8 -15.15 48.2 -18.3 L51.3 -25.4 Q52.95 -29.3 53.75 -32.75 L55.05 -38.5 55.7 -41.9 56.0 -48.25 Q56.0 -50.9 55.5 -53.7" fill="#a36a6a" fill-rule="evenodd" stroke="none"/>
    <path d="M10.25 12.1 L9.9 12.2 Q9.4 13.2 12.3 13.2 16.75 13.2 25.45 6.95 34.1 0.65 39.3 -6.45 44.5 -13.6 47.75 -19.95 51.0 -26.4 53.3 -36.65 55.55 -46.9 55.5 -50.1 L55.5 -53.7 Q56.0 -50.9 56.0 -48.25 L55.7 -41.9 55.05 -38.5 53.75 -32.75 Q52.95 -29.3 51.3 -25.4 L48.2 -18.3 Q46.8 -15.15 43.35 -9.55 39.85 -4.0 35.6 0.75 31.35 5.45 25.65 9.05 19.95 12.65 16.75 14.35 L12.05 15.7 10.7 15.9 9.2 15.85 Q8.2 15.75 7.5 15.15 L7.3 14.95 Q7.15 13.8 7.9 13.25 L9.5 12.25 10.25 12.1" fill="#e0cbcb" fill-rule="evenodd" stroke="none"/>
    <path d="M10.25 12.1 L10.7 12.05 10.85 12.0 12.05 11.7 Q14.85 11.0 16.25 10.35 22.5 7.5 25.05 5.45 L26.85 4.0 33.5 -1.9 33.6 -2.0 Q42.9 -11.35 48.2 -23.55 54.35 -37.85 54.35 -54.15 L53.15 -61.15 Q54.2 -59.7 54.45 -58.4 L55.2 -55.05 55.5 -53.7 55.5 -50.1 Q55.55 -46.9 53.3 -36.65 51.0 -26.4 47.75 -19.95 44.5 -13.6 39.3 -6.45 34.1 0.65 25.45 6.95 16.75 13.2 12.3 13.2 9.4 13.2 9.9 12.2 L10.25 12.1" fill="url(#gradient3)" fill-rule="evenodd" stroke="none"/>
  </g>
  <defs>
    <radialGradient cx="0" cy="0" gradientTransform="matrix(0.0125, 0.0, 0.0, 0.0276, -0.9, -8.65)" gradientUnits="userSpaceOnUse" id="gradient0" r="819.2" spreadMethod="pad">
      <stop offset="0.47843137254901963" stop-color="#ffffff"></stop>
      <stop offset="0.8823529411764706" stop-color="#f2eaea"></stop>
    </radialGradient>
    <radialGradient cx="0" cy="0" gradientTransform="matrix(0.0091, 0.0, 0.0, 0.0091, -9.8, 10.2)" gradientUnits="userSpaceOnUse" id="gradient1" r="819.2" spreadMethod="pad">
      <stop offset="0.47843137254901963" stop-color="#ffffff"></stop>
      <stop offset="0.8823529411764706" stop-color="#f2eaea"></stop>
    </radialGradient>
    <radialGradient cx="0" cy="0" gradientTransform="matrix(0.0091, 0.0, 0.0, 0.0091, -3.6, 10.65)" gradientUnits="userSpaceOnUse" id="gradient2" r="819.2" spreadMethod="pad">
      <stop offset="0.47843137254901963" stop-color="#ffffff"></stop>
      <stop offset="0.8823529411764706" stop-color="#f2eaea"></stop>
    </radialGradient>
    <radialGradient cx="0" cy="0" gradientTransform="matrix(0.0589, 0.0, 0.0, 0.0589, 46.15, -19.15)" gradientUnits="userSpaceOnUse" id="gradient3" r="819.2" spreadMethod="pad">
      <stop offset="0.47843137254901963" stop-color="#ffffff"></stop>
      <stop offset="0.8823529411764706" stop-color="#f2eaea"></stop>
    </radialGradient>
  </defs>
</svg>