<?xml version="1.0" encoding="UTF-8" standalone="no"?>
<svg xmlns:xlink="http://www.w3.org/1999/xlink" height="7.3px" width="13.2px" xmlns="http://www.w3.org/2000/svg">
  <g transform="matrix(1.0, 0.0, 0.0, 1.0, 6.6, 3.65)">
    <path d="M-0.15 -2.6 L-0.15 -2.55 0.35 -2.35 0.55 -2.3 0.7 -2.25 2.65 -1.8 Q4.25 -1.35 4.85 -0.6 L3.0 -0.6 2.85 -0.55 Q2.3 -1.1 1.35 -1.55 L0.55 -1.95 -0.9 -2.0 -0.15 -1.75 1.65 -0.9 3.0 0.7 1.95 0.25 -1.85 0.0 Q-2.4 -0.95 -3.4 -0.95 L-3.6 -0.8 -3.55 -0.75 -3.15 -0.4 -2.35 0.3 Q-1.9 0.95 -1.8 1.75 L-1.8 1.95 -3.55 1.3 -3.7 1.25 -4.25 1.1 -4.85 0.95 -4.85 0.9 -4.95 0.75 Q-4.95 0.2 -4.35 -0.6 -3.75 -1.5 -3.2 -1.7 -1.05 -2.65 -0.05 -2.65 L-0.15 -2.6" fill="#e0cca3" fill-rule="evenodd" stroke="none"/>
    <path d="M-4.85 0.9 L-4.85 0.95 -4.25 1.1 -3.7 1.25 -3.55 1.3 -1.8 1.95 -1.8 1.75 Q-1.9 0.95 -2.35 0.3 L-3.15 -0.4 -3.55 -0.75 -3.6 -0.8 -3.4 -0.95 Q-2.4 -0.95 -1.85 0.0 L1.95 0.25 3.0 0.7 1.65 -0.9 -0.15 -1.75 -0.9 -2.0 0.55 -1.95 1.35 -1.55 Q2.3 -1.1 2.85 -0.55 L3.0 -0.6 4.85 -0.6 Q4.25 -1.35 2.65 -1.8 L0.7 -2.25 0.55 -2.3 0.35 -2.35 -0.15 -2.55 -0.15 -2.6 -0.1 -2.6 0.55 -2.65 Q1.95 -2.65 3.75 -1.9 5.6 -1.05 5.6 -0.3 L5.35 -0.05 3.2 -0.1 Q3.6 0.45 3.6 1.05 L3.4 1.3 2.4 1.05 1.5 0.75 -1.1 0.55 -1.6 0.55 Q-1.2 1.45 -1.2 2.25 -1.2 2.65 -1.45 2.65 L-2.35 2.3 -3.55 1.8 -4.65 1.55 Q-5.6 1.3 -5.6 1.1 -5.6 0.9 -5.2 0.9 L-4.85 0.9" fill="#a36a6a" fill-rule="evenodd" stroke="none"/>
    <path d="M-0.15 -2.6 L-0.05 -2.65 0.0 -2.65 0.15 -2.65 -0.1 -2.6 -0.15 -2.6" fill="#ffffcc" fill-rule="evenodd" stroke="none"/>
  </g>
</svg>