<?xml version="1.0" encoding="UTF-8" standalone="no"?>
<svg xmlns:xlink="http://www.w3.org/1999/xlink" height="21.6px" width="21.65px" xmlns="http://www.w3.org/2000/svg">
  <g transform="matrix(1.0, 0.0, 0.0, 1.0, 9.7, 15.9)">
    <path d="M-7.05 -4.35 L-6.75 -3.8 Q-6.05 -3.15 -4.4 -3.15 -2.55 -3.15 -1.15 -4.3 0.05 -5.25 0.05 -6.05 L0.1 -6.1 Q0.75 -6.95 1.6 -7.0 4.1 -7.05 4.95 -7.65 L6.85 -8.9 9.9 -12.85 9.7 -8.75 8.85 -7.8 Q6.15 -4.95 3.9 -4.95 L3.05 -4.95 5.15 -4.65 Q7.85 -4.65 9.15 -6.25 L9.45 -6.6 9.05 -4.8 Q7.85 -3.65 6.25 -3.65 3.95 -3.65 2.0 -4.35 L0.9 -4.8 0.85 -4.7 -0.55 -2.8 Q-1.65 -1.65 -5.65 -1.15 -6.7 -1.15 -7.5 -3.1 L-7.6 -3.45 -7.05 -4.35" fill="#e0cbcb" fill-rule="evenodd" stroke="none"/>
    <path d="M-7.05 -4.35 L-6.45 -5.2 Q-4.6 -7.6 -1.3 -7.8 L-1.0 -7.85 -0.5 -7.9 2.2 -8.9 Q5.15 -9.95 7.7 -11.65 L9.8 -13.2 9.9 -13.35 9.9 -12.85 6.85 -8.9 4.95 -7.65 Q4.1 -7.05 1.6 -7.0 0.75 -6.95 0.1 -6.1 L0.05 -6.05 Q0.05 -5.25 -1.15 -4.3 -2.55 -3.15 -4.4 -3.15 -6.05 -3.15 -6.75 -3.8 L-7.05 -4.35" fill="url(#gradient0)" fill-rule="evenodd" stroke="none"/>
    <path d="M9.9 -12.85 L9.9 -13.35 9.8 -13.2 7.7 -11.65 Q5.15 -9.95 2.2 -8.9 L-0.5 -7.9 -1.0 -7.85 -1.3 -7.8 Q-4.6 -7.6 -6.45 -5.2 L-7.05 -4.35 -7.6 -3.45 -8.05 -2.45 -8.15 -1.15 -8.0 -0.7 Q-6.65 3.55 -1.6 3.9 2.05 3.9 4.05 2.4 L6.8 -0.15 Q8.3 -2.35 9.05 -4.8 L9.45 -6.6 9.55 -7.15 9.55 -7.45 9.7 -8.75 9.9 -12.85 M9.95 -5.35 Q9.25 -1.15 6.25 1.8 L5.2 2.7 Q0.8 5.75 -4.1 4.1 -9.0 2.55 -8.7 -2.45 -8.4 -3.75 -7.6 -5.05 -5.75 -8.0 -2.0 -8.4 L-0.5 -8.65 Q4.3 -9.8 8.0 -12.8 L10.95 -14.9 Q10.7 -10.1 9.95 -5.35" fill="#a36a6a" fill-rule="evenodd" stroke="none"/>
    <path d="M9.7 -8.75 L9.55 -7.45 9.55 -7.15 9.45 -6.6 9.15 -6.25 Q7.85 -4.65 5.15 -4.65 L3.05 -4.95 3.9 -4.95 Q6.15 -4.95 8.85 -7.8 L9.7 -8.75 M9.05 -4.8 Q8.3 -2.35 6.8 -0.15 L4.05 2.4 Q2.05 3.9 -1.6 3.9 -6.65 3.55 -8.0 -0.7 L-8.15 -1.15 -8.05 -2.45 -7.6 -3.45 -7.5 -3.1 Q-6.7 -1.15 -5.65 -1.15 -1.65 -1.65 -0.55 -2.8 L0.85 -4.7 0.9 -4.8 2.0 -4.35 Q3.95 -3.65 6.25 -3.65 7.85 -3.65 9.05 -4.8" fill="#cca9a9" fill-rule="evenodd" stroke="none"/>
  </g>
  <defs>
    <radialGradient cx="0" cy="0" gradientTransform="matrix(0.0573, -0.0154, 0.0068, 0.0253, -109.25, 2.1)" gradientUnits="userSpaceOnUse" id="gradient0" r="819.2" spreadMethod="pad">
      <stop offset="0.47843137254901963" stop-color="#ffffff"></stop>
      <stop offset="0.8823529411764706" stop-color="#f2eaea"></stop>
    </radialGradient>
  </defs>
</svg>