<?xml version="1.0" encoding="UTF-8" standalone="no"?>
<svg xmlns:xlink="http://www.w3.org/1999/xlink" height="16.7px" width="21.45px" xmlns="http://www.w3.org/2000/svg">
  <g transform="matrix(1.0, 0.0, 0.0, 1.0, 46.45, -37.55)">
    <path d="M-40.25 39.35 L-40.45 39.4 -42.05 40.75 -42.7 41.5 -44.05 43.75 -44.55 44.65 -44.65 44.7 -44.55 44.7 -43.0 43.9 -42.05 43.55 -40.0 43.3 -39.75 43.35 -39.65 43.8 -41.05 44.25 -42.05 44.4 -42.95 44.65 Q-44.7 45.85 -45.05 45.85 L-45.45 45.8 -45.45 44.85 -43.7 41.15 Q-43.05 40.05 -42.05 39.4 L-40.2 38.55 -40.05 38.65 -40.15 39.15 -40.25 39.25 -40.15 39.3 -40.25 39.35 M-31.9 46.0 L-31.65 44.45 -31.2 43.35 -30.15 42.4 -28.85 41.9 -27.35 42.35 Q-26.35 42.6 -26.2 43.45 L-26.0 45.05 -26.2 46.5 -26.75 47.85 -27.75 49.5 -28.6 50.8 -29.0 51.35 -30.3 52.7 -31.05 53.25 -31.2 52.75 -31.65 50.85 -31.95 49.3 -32.05 47.45 -31.9 46.0 M-28.25 42.7 L-28.3 42.7 Q-29.0 42.9 -29.6 43.25 L-30.4 43.75 -30.7 44.95 -30.95 46.65 -31.0 48.45 -30.9 50.0 -30.85 51.4 -30.85 51.55 -30.85 52.05 -30.15 51.5 -30.0 51.3 -28.85 49.9 -28.45 49.35 -27.9 48.5 -27.7 48.15 -27.55 48.0 Q-26.55 46.35 -26.8 44.4 -26.95 43.5 -27.55 43.05 -27.85 42.8 -28.25 42.7" fill="#a36a6a" fill-rule="evenodd" stroke="none"/>
    <path d="M-44.05 43.75 L-42.7 41.5 -42.05 40.75 -40.45 39.4 -40.25 39.35 -40.5 41.2 Q-41.25 41.35 -43.05 42.85 L-44.05 43.75 M-30.85 51.55 L-30.85 51.4 -30.9 50.0 -31.0 48.45 -30.95 46.65 -30.7 44.95 -30.4 43.75 -29.6 43.25 Q-29.0 42.9 -28.3 42.7 L-28.25 42.7 -28.25 42.85 Q-28.25 45.1 -29.5 48.2 L-30.85 51.55" fill="#ffffcc" fill-rule="evenodd" stroke="none"/>
    <path d="M-44.05 43.75 L-43.05 42.85 Q-41.25 41.35 -40.5 41.2 L-39.8 43.25 -40.0 43.3 -42.05 43.55 -43.0 43.9 -44.55 44.7 -44.55 44.65 -44.05 43.75 M-30.85 51.55 L-29.5 48.2 Q-28.25 45.1 -28.25 42.85 L-28.25 42.7 Q-27.85 42.8 -27.55 43.05 -26.95 43.5 -26.8 44.4 -26.55 46.35 -27.55 48.0 L-27.7 48.15 -27.9 48.5 -28.45 49.35 -28.85 49.9 -30.0 51.3 -30.15 51.5 -30.85 52.05 -30.85 51.55" fill="#e0cca3" fill-rule="evenodd" stroke="none"/>
  </g>
</svg>