<?xml version="1.0" encoding="UTF-8" standalone="no"?>
<svg xmlns:xlink="http://www.w3.org/1999/xlink" height="73.35px" width="50.05px" xmlns="http://www.w3.org/2000/svg">
  <g transform="matrix(1.0, 0.0, 0.0, 1.0, 25, 36.7)">
    <path d="M-18.55 15.6 L-17.7 14.8 -16.95 14.15 -16.1 13.8 -16.05 13.8 -15.15 13.65 Q-14.85 13.65 -14.45 14.3 L-14.2 14.75 -14.1 15.0 -13.75 15.9 -13.7 16.0 -13.7 16.05 -14.6 17.5 Q-17.0 22.1 -17.8 23.15 L-16.95 22.4 Q-18.6 25.65 -19.0 27.7 L-19.0 27.8 Q-16.65 26.3 -11.75 17.1 L-11.5 17.15 -12.8 21.25 -16.1 28.95 -16.7 30.4 -16.6 30.4 -15.05 27.6 -15.0 27.55 -14.7 26.95 -14.35 26.2 -14.15 27.5 Q-14.05 28.95 -13.35 28.95 -12.0 28.95 -8.55 21.15 -5.35 13.75 -5.0 13.4 L-6.05 17.55 -7.25 22.8 -7.25 22.95 -8.1 26.8 -8.15 26.95 -6.9 23.05 -6.9 23.2 Q-8.55 29.65 -9.6 31.3 L-10.2 32.15 -13.65 33.9 Q-17.65 35.65 -20.05 35.65 L-20.25 35.65 -21.9 35.45 Q-24.0 34.9 -24.0 32.8 -23.5 28.4 -22.6 24.05 -21.75 19.95 -20.9 17.8 L-20.15 16.95 -20.1 16.9 -20.05 16.85 -19.75 16.55 -19.8 16.8 -19.65 16.8 -19.5 16.6 -19.45 16.55 -19.05 16.1 -18.5 15.6 -18.55 15.6 M9.0 14.25 L8.25 15.05 Q7.75 15.05 7.75 14.55 11.0 5.7 11.0 2.85 L10.85 0.9 Q10.75 -0.55 10.5 -0.8 L10.6 -2.1 14.95 -9.9 13.2 -4.75 Q12.75 -3.35 12.65 1.9 12.4 6.8 11.7 8.55 L9.05 14.2 9.0 14.25 M7.95 16.45 L7.75 17.8 7.7 17.8 7.7 17.9 4.55 20.95 Q1.5 24.55 -0.95 26.4 L-3.7 28.25 -5.75 29.55 Q-5.4 28.15 -4.55 26.5 L-5.5 27.3 -5.75 26.85 Q-5.75 26.3 -4.95 25.3 L-4.9 25.2 -5.0 25.25 Q-3.1 22.1 -1.95 19.35 0.0 14.35 0.5 13.75 L0.45 14.25 0.1 17.15 0.2 17.55 0.55 16.85 0.75 14.95 0.75 14.5 0.75 13.75 0.85 13.75 0.95 14.05 0.85 14.6 1.1 16.1 Q1.2 17.3 2.2 17.3 3.45 17.3 6.4 15.25 L6.55 15.45 5.15 16.65 7.95 16.45 M-4.75 13.5 L-4.65 13.75 -4.75 14.05 -4.75 13.5 M20.4 -24.3 L20.7 -23.6 Q20.7 -22.4 18.15 -13.8 L15.15 -3.55 14.95 -3.4 14.9 -3.55 15.45 -7.3 Q15.45 -8.7 16.0 -10.2 L16.65 -13.0 16.4 -13.6 17.6 -17.95 18.05 -18.8 20.4 -24.3 M11.9 -3.5 L11.9 -3.05 11.95 -3.5 11.9 -3.5 M8.4 2.5 Q8.4 3.85 4.8 14.65 L4.7 14.65 4.65 13.95 4.8 12.65 Q4.8 11.95 6.05 7.9 7.35 3.45 8.15 2.05 L8.4 2.5 M-2.15 21.7 L-2.3 22.0 -2.15 21.65 -2.15 21.7 M-21.0 31.9 L-21.6 32.7 -20.95 31.8 -21.0 31.9 M-16.5 26.9 L-16.5 26.85 -16.5 26.9" fill="#e0cbcb" fill-rule="evenodd" stroke="none"/>
    <path d="M-13.7 16.0 L-13.75 15.9 -14.1 15.0 -14.2 14.75 -14.45 14.3 Q-14.85 13.65 -15.15 13.65 L-16.05 13.8 -16.1 13.8 -16.95 14.15 -17.7 14.8 -18.55 15.6 -18.6 15.65 -19.05 16.1 -19.45 16.55 -19.5 16.6 -19.65 16.8 -19.8 16.8 -19.75 16.55 -20.05 16.85 -20.1 16.9 -20.15 16.95 -20.9 17.8 -21.1 17.95 -21.2 17.8 -20.2 16.6 -19.75 16.15 -19.7 16.05 -19.5 15.8 -19.3 15.5 Q-18.85 14.8 -17.9 14.35 -16.25 12.95 -15.1 12.95 -14.05 12.95 -13.4 15.7 -12.55 14.6 -11.75 14.6 -11.35 14.6 -11.05 16.2 L-11.1 15.75 Q-10.45 13.5 -9.55 12.1 -8.55 10.45 -3.5 7.75 -1.4 6.05 0.95 3.2 2.65 1.8 4.65 -1.45 6.35 -4.2 8.7 -5.75 14.6 -12.8 17.55 -19.7 L20.8 -27.75 21.75 -31.75 21.75 -33.85 Q21.75 -35.2 22.35 -35.7 L22.75 -34.45 22.45 -31.1 Q21.85 -28.1 20.4 -24.3 L18.05 -18.8 17.6 -17.95 16.25 -15.25 15.9 -14.65 15.9 -14.6 Q12.1 -7.85 8.4 -4.75 L7.75 -4.1 Q6.25 -2.7 5.15 -1.0 L1.4 3.9 Q-1.3 7.15 -5.1 9.5 -8.9 11.8 -9.5 13.9 L-12.5 21.85 -14.4 26.2 -14.7 26.9 -15.05 27.6 -16.6 30.4 -16.7 30.4 -16.1 28.95 -12.8 21.25 -11.5 17.15 -11.5 17.0 Q-11.85 16.7 -12.1 15.3 -13.35 16.45 -14.85 19.3 L-16.95 22.4 -17.8 23.15 Q-17.0 22.1 -14.6 17.5 L-13.7 16.05 -13.65 16.25 -13.7 16.0 M-6.9 23.05 L-8.15 26.95 -8.1 26.8 -7.25 22.95 -7.25 22.8 -6.05 17.55 -5.0 13.4 -4.85 12.8 -4.75 13.5 -4.75 14.05 -4.75 14.1 Q-4.8 15.2 -6.15 20.25 L-6.9 23.05 M0.45 14.25 L0.6 13.0 0.65 13.0 0.75 13.75 0.75 14.5 0.75 14.95 0.55 16.85 0.2 17.55 0.1 17.15 0.45 14.25" fill="#a36a6a" fill-rule="evenodd" stroke="none"/>
    <path d="M-18.55 15.6 L-18.5 15.6 -18.6 15.65 -18.55 15.6 M-10.2 32.15 L-9.6 31.3 Q-8.55 29.65 -6.9 23.2 L-6.9 23.05 -6.15 20.25 Q-4.8 15.2 -4.75 14.1 L-4.75 14.05 -4.65 13.75 -4.75 13.5 -4.85 12.8 -5.0 13.4 Q-5.35 13.75 -8.55 21.15 -12.0 28.95 -13.35 28.95 -14.05 28.95 -14.15 27.5 L-14.35 26.2 -14.7 26.95 -15.0 27.55 -15.05 27.6 -14.7 26.9 -14.4 26.2 -12.5 21.85 -9.5 13.9 Q-8.9 11.8 -5.1 9.5 -1.3 7.15 1.4 3.9 L5.15 -1.0 Q6.25 -2.7 7.75 -4.1 L8.4 -4.75 Q12.1 -7.85 15.9 -14.6 L15.9 -14.65 16.25 -15.25 17.6 -17.95 16.4 -13.6 16.65 -13.0 16.0 -10.2 Q15.45 -8.7 15.45 -7.3 L14.9 -3.55 14.95 -3.4 15.15 -3.55 18.15 -13.8 Q20.7 -22.4 20.7 -23.6 L20.4 -24.3 Q21.85 -28.1 22.45 -31.1 22.9 -32.05 23.3 -32.05 24.25 -32.05 24.0 -30.55 23.15 -14.0 21.05 -9.45 L20.2 -6.6 17.1 1.1 Q15.8 4.7 11.9 10.3 L9.0 14.25 9.05 14.2 11.7 8.55 Q12.4 6.8 12.65 1.9 12.75 -3.35 13.2 -4.75 L14.95 -9.9 10.6 -2.1 10.5 -0.8 Q10.75 -0.55 10.85 0.9 L11.0 2.85 Q11.0 5.7 7.75 14.55 7.75 15.05 8.25 15.05 L7.95 15.35 7.95 16.45 5.15 16.65 6.55 15.45 6.4 15.25 Q3.45 17.3 2.2 17.3 1.2 17.3 1.1 16.1 L0.85 14.6 0.95 14.05 0.85 13.75 0.75 13.75 0.65 13.0 0.6 13.0 0.45 14.25 0.5 13.75 Q0.0 14.35 -1.95 19.35 -3.1 22.1 -5.0 25.25 L-4.9 25.2 -4.95 25.3 Q-5.75 26.3 -5.75 26.85 L-5.5 27.3 -4.55 26.5 Q-5.4 28.15 -5.75 29.55 L-10.2 32.15 M-11.5 17.15 L-11.75 17.1 Q-16.65 26.3 -19.0 27.8 L-19.0 27.7 Q-18.6 25.65 -16.95 22.4 L-14.85 19.3 Q-13.35 16.45 -12.1 15.3 -11.85 16.7 -11.5 17.0 L-11.5 17.15 M-19.3 15.5 L-19.5 15.8 -19.7 16.05 -19.75 16.15 -20.2 16.6 -20.6 17.1 Q-20.0 15.75 -19.3 15.5 M7.75 17.8 L7.7 17.9 7.7 17.8 7.75 17.8 M8.4 2.5 L8.15 2.05 Q7.35 3.45 6.05 7.9 4.8 11.95 4.8 12.65 L4.65 13.95 4.7 14.65 4.8 14.65 Q8.4 3.85 8.4 2.5 M11.9 -3.5 L11.95 -3.5 11.9 -3.05 11.9 -3.5 M-2.15 21.7 L-2.15 21.65 -2.3 22.0 -2.15 21.7 M-21.0 31.9 L-20.95 31.8 -21.6 32.7 -21.0 31.9 M-16.5 26.9 L-16.5 26.85 -16.5 26.9" fill="url(#gradient0)" fill-rule="evenodd" stroke="none"/>
  </g>
  <defs>
    <radialGradient cx="0" cy="0" gradientTransform="matrix(0.0573, -0.0154, 0.0068, 0.0253, -93.1, 15.25)" gradientUnits="userSpaceOnUse" id="gradient0" r="819.2" spreadMethod="pad">
      <stop offset="0.47843137254901963" stop-color="#ffffff"></stop>
      <stop offset="0.8823529411764706" stop-color="#f2eaea"></stop>
    </radialGradient>
  </defs>
</svg>