<?xml version="1.0" encoding="UTF-8" standalone="no"?>
<svg xmlns:xlink="http://www.w3.org/1999/xlink" height="10.95px" width="27.05px" xmlns="http://www.w3.org/2000/svg">
  <g transform="matrix(1.0, 0.0, 0.0, 1.0, 12.2, 5.8)">
    <path d="M4.5 -4.8 Q1.7 -3.05 -0.1 -0.2 L-0.1 -0.15 Q9.3 -3.0 11.6 -3.0 L11.9 -3.0 12.2 -2.95 12.15 -2.85 12.15 -2.75 10.75 -1.9 9.05 -0.95 6.7 0.8 10.7 1.1 12.0 1.6 12.85 2.0 13.0 2.1 13.5 2.35 13.85 2.45 Q13.6 2.9 13.3 2.7 L9.4 3.4 7.55 4.15 -11.2 4.15 -11.1 3.85 -10.95 3.5 -10.85 3.2 -10.75 2.9 -10.55 2.45 -10.55 2.4 -10.3 2.05 -10.0 1.6 -9.8 1.3 -9.4 0.9 -9.1 0.65 -8.45 0.05 Q-9.2 1.4 -9.25 2.2 L-9.3 3.35 -9.3 3.4 -8.45 2.4 Q-6.6 0.3 -4.3 -1.05 -2.15 -2.3 0.6 -3.55 L4.05 -4.75 4.5 -4.8 M3.25 -4.25 L3.2 -4.2 3.1 -4.15 3.25 -4.25 M11.0 -2.5 L11.15 -2.55 11.0 -2.5 M-0.35 -2.65 L-0.8 -2.4 -0.3 -2.65 -0.35 -2.65" fill="#999999" fill-rule="evenodd" stroke="none"/>
  </g>
</svg>