<?xml version="1.0" encoding="UTF-8" standalone="no"?>
<svg xmlns:xlink="http://www.w3.org/1999/xlink" height="10.1px" width="29.75px" xmlns="http://www.w3.org/2000/svg">
  <g transform="matrix(1.0, 0.0, 0.0, 1.0, 12.8, 4.85)">
    <path d="M10.15 -3.45 L10.15 -3.5 10.1 -3.5 10.15 -3.45 M10.75 -3.4 L6.0 -0.1 5.95 0.0 15.75 1.05 15.95 1.15 15.9 1.35 Q10.65 2.65 8.2 3.7 L7.85 3.85 8.65 4.0 8.85 4.05 10.4 4.05 11.65 4.05 11.65 4.25 5.25 4.25 2.4 4.25 2.3 4.25 1.35 4.25 0.75 4.25 -2.45 4.25 -11.8 4.25 -11.65 4.0 -11.6 3.15 -11.45 2.55 -10.8 1.35 -9.25 -0.15 -9.3 1.45 -9.2 2.0 -6.65 0.2 Q-4.75 -1.2 -3.55 -1.8 L-0.75 -3.2 0.35 -3.65 0.45 -3.6 0.5 -3.45 -0.6 -1.85 -2.2 0.1 -2.25 0.15 0.7 -1.3 4.1 -2.5 Q9.35 -4.15 11.2 -3.75 L11.1 -3.65 10.75 -3.4 M-0.25 -3.0 L-0.3 -2.95 -0.25 -3.0" fill="#999999" fill-rule="evenodd" stroke="none"/>
  </g>
</svg>