<?xml version="1.0" encoding="UTF-8" standalone="no"?>
<svg xmlns:xlink="http://www.w3.org/1999/xlink" height="11.25px" width="26.85px" xmlns="http://www.w3.org/2000/svg">
  <g transform="matrix(1.0, 0.0, 0.0, 1.0, 12.2, 6.1)">
    <path d="M2.3 -4.55 L2.25 -4.5 2.2 -4.45 2.3 -4.55 M3.5 -5.1 Q0.9 -3.3 -0.6 -0.35 L-0.6 -0.3 Q8.5 -3.25 10.8 -3.25 L11.1 -3.25 11.4 -3.2 11.35 -3.1 11.4 -3.0 10.1 -2.1 8.5 -1.15 6.3 0.65 10.35 1.0 11.7 1.5 Q12.0 1.55 12.6 1.9 L12.75 2.0 13.3 2.25 13.65 2.4 Q13.45 2.85 13.15 2.65 L9.3 3.35 7.55 4.15 -11.2 4.15 -11.15 3.8 -11.05 3.45 -10.95 3.15 -10.9 2.85 -10.75 2.4 -10.75 2.35 -10.55 1.95 -10.3 1.5 -10.1 1.2 -9.75 0.8 -9.5 0.5 -8.9 -0.1 Q-9.5 1.3 -9.5 2.1 L-9.4 3.3 -9.4 3.35 -8.65 2.35 Q-7.05 0.15 -4.9 -1.25 L-0.25 -3.8 3.05 -5.05 3.5 -5.1 M10.25 -2.75 L10.4 -2.8 10.25 -2.75 M-1.1 -2.9 L-1.55 -2.65 -1.05 -2.9 -1.1 -2.9" fill="#999999" fill-rule="evenodd" stroke="none"/>
  </g>
</svg>