<?xml version="1.0" encoding="UTF-8" standalone="no"?>
<svg xmlns:xlink="http://www.w3.org/1999/xlink" height="34.4px" width="27.15px" xmlns="http://www.w3.org/2000/svg">
  <g transform="matrix(1.0, 0.0, 0.0, 1.0, 26.9, 6.1)">
    <path d="M-8.35 7.4 Q-10.65 7.4 -12.3 9.0 -13.9 10.65 -13.9 12.95 -13.9 15.25 -12.3 16.85 -10.65 18.5 -8.35 18.5 -6.75 18.5 -5.5 17.7 L-3.1 20.2 -7.0 19.2 -7.4 19.6 -7.4 25.55 -11.35 20.75 -16.9 27.3 -15.35 18.2 -23.95 18.15 -17.4 12.55 -25.9 8.25 -16.7 7.25 -24.1 -5.1 -13.4 3.0 -11.2 -4.45 -8.85 2.65 Q-8.45 2.75 -7.95 3.0 L-0.75 -2.0 -5.05 6.7 -1.6 6.15 -4.35 8.85 -4.25 9.2 -4.45 9.0 Q-6.05 7.4 -8.35 7.4" fill="#ffffff" fill-rule="evenodd" stroke="none"/>
  </g>
</svg>