<?xml version="1.0" encoding="UTF-8" standalone="no"?>
<svg xmlns:xlink="http://www.w3.org/1999/xlink" height="43.9px" width="34.5px" xmlns="http://www.w3.org/2000/svg">
  <g transform="matrix(1.0, 0.0, 0.0, 1.0, 33.8, 12)">
    <path d="M-0.3 -7.0 L-5.85 4.25 -1.4 3.55 -4.35 6.45 -4.4 6.35 -5.0 5.6 -5.3 5.3 -5.65 4.95 Q-6.05 4.6 -6.5 4.35 -8.5 2.95 -11.1 2.95 -14.55 2.95 -17.0 5.3 -19.4 7.8 -19.4 11.2 -19.4 14.65 -17.0 17.0 -14.55 19.5 -11.1 19.5 -9.05 19.5 -7.3 18.6 L-6.85 18.3 -6.5 18.05 -6.65 18.3 -3.35 21.7 -8.4 20.4 -8.9 20.95 -8.9 28.6 -14.0 22.4 -21.2 30.9 -19.2 19.1 -30.3 19.05 -21.85 11.8 -32.8 6.25 -20.9 4.95 -30.5 -11.0 -16.65 -0.55 -13.8 -10.2 -10.75 -1.0 -9.6 -0.55 -0.3 -7.0" fill="#ffffff" fill-rule="evenodd" stroke="none"/>
  </g>
</svg>