<?xml version="1.0" encoding="UTF-8" standalone="no"?>
<svg xmlns:xlink="http://www.w3.org/1999/xlink" height="103.05px" width="116.45px" xmlns="http://www.w3.org/2000/svg">
  <g transform="matrix(1.0, 0.0, 0.0, 1.0, -62.05, 40.4)">
    <path d="M90.45 -8.95 L90.9 -8.95 Q92.1 -8.95 96.15 -3.85 L98.05 6.05 Q97.1 5.3 93.85 -0.3 90.6 -5.95 90.45 -8.95 M157.1 -12.25 Q154.2 -2.3 147.4 8.6 L141.1 17.45 Q140.8 17.5 140.8 17.85 L140.75 18.25 Q141.0 11.05 149.35 -12.2 153.0 -22.45 159.5 -39.4 159.95 -34.85 159.5 -27.9 158.85 -18.05 157.1 -12.25 M177.5 60.05 L174.2 61.65 88.5 61.65 88.85 60.8 Q89.4 59.7 89.4 58.85 89.4 54.6 81.95 41.8 74.55 29.15 63.05 13.8 71.85 24.9 76.9 29.95 89.35 42.4 98.25 42.4 101.9 42.4 103.5 38.85 105.4 34.55 105.4 23.5 105.4 14.6 103.6 4.5 105.5 9.85 107.8 14.05 112.85 23.3 116.45 26.95 121.85 32.45 129.0 32.45 138.7 32.45 152.6 20.65 158.3 15.8 163.7 9.8 154.75 22.5 154.75 32.6 154.75 45.55 165.65 54.0 169.2 56.8 173.4 58.65 176.55 60.05 177.5 60.05" fill="#ffffff" fill-rule="evenodd" stroke="none"/>
  </g>
</svg>