<?xml version="1.0" encoding="UTF-8" standalone="no"?>
<svg xmlns:xlink="http://www.w3.org/1999/xlink" height="126.35px" width="199.65px" xmlns="http://www.w3.org/2000/svg">
  <g transform="matrix(1.0, 0.0, 0.0, 1.0, -111.15, 64.8)">
    <path d="M239.8 -63.8 Q236.0 -52.75 229.0 -43.2 223.35 -35.5 219.7 -33.1 L219.55 -33.1 Q221.8 -42.65 230.6 -53.65 234.7 -58.8 239.8 -63.8 M301.8 5.5 Q278.8 17.15 261.45 24.95 241.9 33.75 229.15 41.1 210.35 52.0 210.35 57.65 210.35 59.3 211.35 60.55 L112.15 60.55 Q115.85 57.55 120.8 50.7 128.95 39.25 130.35 32.45 130.75 32.45 130.75 32.1 130.95 36.05 136.3 40.7 142.45 46.0 149.9 46.0 162.25 46.0 172.15 34.65 178.7 27.05 182.95 16.3 L183.3 15.95 Q183.75 20.25 187.7 23.8 193.55 29.1 204.7 29.1 222.6 29.1 272.9 13.65 292.1 7.8 309.8 1.75 306.15 3.3 301.8 5.5" fill="#ffffff" fill-opacity="0.9019608" fill-rule="evenodd" stroke="none"/>
  </g>
</svg>