<?xml version="1.0" encoding="UTF-8" standalone="no"?>
<svg xmlns:xlink="http://www.w3.org/1999/xlink" height="11.9px" width="8.85px" xmlns="http://www.w3.org/2000/svg">
  <g transform="matrix(1.0, 0.0, 0.0, 1.0, 1.05, 2.15)">
    <path d="M3.4 1.4 Q4.55 -0.35 4.75 -1.15 6.15 -0.95 6.8 0.5 L6.3 3.25 5.6 2.6 Q4.45 1.6 3.4 1.4" fill="#b87953" fill-rule="evenodd" stroke="none"/>
    <path d="M1.1 1.55 Q1.9 -0.1 2.3 -0.3 L3.6 -0.85 4.75 -1.15 Q4.55 -0.35 3.4 1.4 L2.4 1.4 1.1 1.55" fill="#915e41" fill-rule="evenodd" stroke="none"/>
    <path d="M6.3 3.25 L5.5 4.75 4.3 6.5 3.2 7.85 Q2.2 8.9 1.05 8.75 L0.95 8.7 Q-0.3 8.45 0.0 6.25 L0.95 4.85 2.25 3.0 Q3.0 3.05 4.25 3.8 L5.5 4.75 4.25 3.8 Q3.0 3.05 2.25 3.0 L3.4 1.4 Q4.45 1.6 5.6 2.6 L6.3 3.25 M4.3 6.5 Q2.85 5.15 0.95 4.85 2.85 5.15 4.3 6.5" fill="#577d98" fill-rule="evenodd" stroke="none"/>
    <path d="M1.1 1.55 L2.4 1.4 3.4 1.4 2.25 3.0 0.75 3.15 1.1 1.55 M0.0 6.25 L0.0 6.1 0.05 6.1 0.4 4.75 0.75 3.15 2.25 3.0 0.95 4.85 0.0 6.25 M0.4 4.75 L0.95 4.85 0.4 4.75" fill="#2a4d66" fill-rule="evenodd" stroke="none"/>
    <path d="M4.75 -1.15 L3.6 -0.85 2.3 -0.3 Q1.9 -0.1 1.1 1.55 M4.75 -1.15 Q6.15 -0.95 6.8 0.5 L6.3 3.25" fill="none" stroke="#58321b" stroke-linecap="round" stroke-linejoin="round" stroke-width="1"/>
    <path d="M1.1 1.55 L2.4 1.4 3.4 1.4 Q4.45 1.6 5.6 2.6 L6.3 3.25 5.5 4.75 4.3 6.5 3.2 7.85 M0.05 6.1 L0.4 4.75 0.75 3.15 1.1 1.55 M0.95 4.85 L0.4 4.75 M2.25 3.0 L0.75 3.15 M0.95 4.85 Q2.85 5.15 4.3 6.5 M5.5 4.75 L4.25 3.8 Q3.0 3.05 2.25 3.0" fill="none" stroke="#1d3d54" stroke-linecap="round" stroke-linejoin="round" stroke-width="1"/>
  </g>
</svg>