<?xml version="1.0" encoding="UTF-8" standalone="no"?>
<svg xmlns:xlink="http://www.w3.org/1999/xlink" height="10.95px" width="13.7px" xmlns="http://www.w3.org/2000/svg">
  <g transform="matrix(1.0, 0.0, 0.0, 1.0, 1, 2.3)">
    <path d="M5.1 -0.45 L5.1 1.1 5.35 1.15 8.4 1.8 10.0 2.1 11.0 2.05 Q11.75 2.15 11.7 2.65 L11.5 3.35 Q11.75 3.45 11.7 3.85 L11.6 4.4 Q11.45 3.9 10.9 3.9 L9.85 3.65 Q8.4 3.65 7.7 6.2 8.4 3.65 9.85 3.65 L10.9 3.9 Q11.45 3.9 11.6 4.4 L11.65 4.9 Q11.6 5.55 11.15 5.8 L10.7 5.85 10.35 5.85 Q9.95 5.85 9.6 5.55 8.6 6.2 7.85 6.2 L7.7 6.2 Q6.7 6.15 5.75 5.55 4.75 4.95 4.45 4.95 L2.3 5.45 Q1.2 5.45 0.65 5.1 L0.0 4.4 Q0.1 3.25 0.5 2.65 L0.75 2.35 1.0 2.1 1.0 0.0 Q2.8 -2.4 5.1 -0.45 M10.9 3.25 L11.5 3.35 10.9 3.25 M9.9 5.35 L9.6 5.55 9.9 5.35" fill="#b87953" fill-rule="evenodd" stroke="none"/>
    <path d="M0.65 5.1 Q1.2 5.45 2.3 5.45 L4.45 4.95 Q4.75 4.95 5.75 5.55 6.7 6.15 7.7 6.2 L7.85 6.2 Q8.6 6.2 9.6 5.55 9.95 5.85 10.35 5.85 L10.7 5.85 10.6 6.5 Q1.1 6.9 0.3 6.7 L0.65 5.1" fill="#70613d" fill-rule="evenodd" stroke="none"/>
    <path d="M10.6 6.5 L10.45 7.65 5.3 7.65 0.4 7.55 0.3 6.7 Q1.1 6.9 10.6 6.5" fill="#4f452d" fill-rule="evenodd" stroke="none"/>
    <path d="M11.5 3.35 L11.7 2.65 Q11.75 2.15 11.0 2.05 L10.0 2.1 8.4 1.8 5.35 1.15 5.1 1.1 5.1 -0.45 M1.0 0.0 L1.0 2.1 0.75 2.35 0.5 2.65 Q0.1 3.25 0.0 4.4 L0.65 5.1 Q1.2 5.45 2.3 5.45 L4.45 4.95 Q4.75 4.95 5.75 5.55 6.7 6.15 7.7 6.2 8.4 3.65 9.85 3.65 L10.9 3.9 Q11.45 3.9 11.6 4.4 L11.7 3.85 Q11.75 3.45 11.5 3.35 L10.9 3.25 M10.7 5.85 L10.35 5.85 Q9.95 5.85 9.6 5.55 8.6 6.2 7.85 6.2 L7.7 6.2 M10.7 5.85 L11.15 5.8 Q11.6 5.55 11.65 4.9 L11.6 4.4 M0.3 6.7 L0.4 7.55 5.3 7.65 10.45 7.65 10.6 6.5 10.7 5.85 M0.3 6.7 L0.65 5.1 M9.6 5.55 L9.9 5.35" fill="none" stroke="#58321b" stroke-linecap="round" stroke-linejoin="round" stroke-width="1"/>
  </g>
</svg>