<?xml version="1.0" encoding="UTF-8" standalone="no"?>
<svg xmlns:xlink="http://www.w3.org/1999/xlink" height="12.6px" width="6.75px" xmlns="http://www.w3.org/2000/svg">
  <g transform="matrix(1.0, 0.0, 0.0, 1.0, -1.4, 0.5)">
    <path d="M2.8 6.85 L3.0 6.5 Q4.0 5.15 4.85 5.15 5.95 5.15 6.6 5.65 L6.9 5.95 7.15 9.1 Q4.75 12.45 3.05 10.2 L2.8 6.85" fill="#b87953" fill-rule="evenodd" stroke="none"/>
    <path d="M6.9 5.95 L6.6 5.65 Q5.95 5.15 4.85 5.15 4.0 5.15 3.0 6.5 L2.8 6.85 2.4 2.35 Q4.15 -1.05 6.55 1.75 L6.9 5.95" fill="#915e41" fill-rule="evenodd" stroke="none"/>
    <path d="M2.8 6.85 L3.05 10.2 M7.15 9.1 L6.9 5.95 6.55 1.75 M2.4 2.35 L2.8 6.85" fill="none" stroke="#5d2727" stroke-linecap="round" stroke-linejoin="round" stroke-width="1"/>
  </g>
</svg>