<?xml version="1.0" encoding="UTF-8" standalone="no"?>
<svg xmlns:xlink="http://www.w3.org/1999/xlink" height="22px" width="19.7px" xmlns="http://www.w3.org/2000/svg">
  <g transform="matrix(1.0, 0.0, 0.0, 1.0, 2.35, 1)">
    <path d="M0.6 13.35 L-1.35 14.0 1.45 10.15 1.9 8.75 2.55 6.45 2.75 4.4 7.05 3.4 10.35 1.65 11.2 3.8 11.75 5.85 Q10.15 6.5 8.85 8.4 6.95 11.05 6.9 13.6 L6.9 13.8 Q6.9 14.95 7.5 17.75 L5.8 14.3 3.0 16.65 2.45 12.75 0.6 13.35" fill="url(#gradient0)" fill-rule="evenodd" stroke="none"/>
    <path d="M11.75 5.85 L12.25 8.0 13.3 10.9 16.35 15.05 14.7 14.25 11.55 12.8 11.2 16.2 9.0 13.9 7.5 17.75 Q6.9 14.95 6.9 13.8 L6.9 13.6 Q6.95 11.05 8.85 8.4 10.15 6.5 11.75 5.85" fill="#a85757" fill-rule="evenodd" stroke="none"/>
    <path d="M2.75 4.4 L2.75 2.95 Q2.85 1.75 3.75 0.9 4.9 -0.2 6.55 0.05 9.45 0.45 10.35 1.65 L7.05 3.4 2.75 4.4" fill="url(#gradient1)" fill-rule="evenodd" stroke="none"/>
    <path d="M14.7 14.25 L14.8 14.5 15.15 15.3 16.05 17.25 12.4 16.05 12.95 19.35 9.1 17.05 6.5 20.0 4.65 17.65 2.6 19.6 1.55 15.7 0.05 17.55 0.0 17.5 0.0 17.35 Q0.0 16.0 0.6 13.35 L2.45 12.75 3.0 16.65 5.8 14.3 7.5 17.75 9.0 13.9 11.2 16.2 11.55 12.8 14.7 14.25" fill="#541d1d" fill-rule="evenodd" stroke="none"/>
    <path d="M11.75 5.85 L12.25 8.0 13.3 10.9 16.35 15.05 14.7 14.25 14.8 14.5 15.15 15.3 16.05 17.25 12.4 16.05 12.95 19.35 9.1 17.05 6.5 20.0 4.65 17.65 2.6 19.6 1.55 15.7 0.05 17.55 M0.0 17.5 L0.0 17.35 Q0.0 16.0 0.6 13.35 L-1.35 14.0 1.45 10.15 1.9 8.75 2.55 6.45 2.75 4.4 2.75 2.95 Q2.85 1.75 3.75 0.9 4.9 -0.2 6.55 0.05 9.45 0.45 10.35 1.65 L11.2 3.8 11.75 5.85 M7.5 17.75 L9.0 13.9 11.2 16.2 11.55 12.8 14.7 14.25 M7.5 17.75 L5.8 14.3 3.0 16.65 2.45 12.75 0.6 13.35" fill="none" stroke="#5d2727" stroke-linecap="round" stroke-linejoin="round" stroke-width="1"/>
  </g>
  <defs>
    <linearGradient gradientTransform="matrix(0.0, -0.0098, -0.0079, 0.0, 9.25, 13.85)" gradientUnits="userSpaceOnUse" id="gradient0" spreadMethod="pad" x1="-819.2" x2="819.2">
      <stop offset="0.0" stop-color="#7e3535"></stop>
      <stop offset="1.0" stop-color="#a85757"></stop>
    </linearGradient>
    <linearGradient gradientTransform="matrix(0.0, 0.0023, 0.0087, 0.0, -0.05, 5.05)" gradientUnits="userSpaceOnUse" id="gradient1" spreadMethod="pad" x1="-819.2" x2="819.2">
      <stop offset="0.0" stop-color="#7e3535"></stop>
      <stop offset="1.0" stop-color="#a85757"></stop>
    </linearGradient>
  </defs>
</svg>