<?xml version="1.0" encoding="UTF-8" standalone="no"?>
<svg xmlns:xlink="http://www.w3.org/1999/xlink" height="14.65px" width="14.1px" xmlns="http://www.w3.org/2000/svg">
  <g id="shape0" transform="matrix(1.0, 0.0, 0.0, 1.0, 7.05, 7.4)">
    <path d="M1.55 -5.75 L2.0 -5.55 3.7 -4.4 3.75 -4.35 3.8 -4.25 4.3 -3.75 4.4 -3.65 4.3 -3.75 3.8 -4.25 Q4.45 -4.2 4.9 -3.8 L4.6 -3.4 4.5 -3.5 4.4 -3.65 4.45 -3.5 4.55 -2.9 Q4.55 -2.4 3.75 -1.25 L3.35 -0.6 3.4 -0.55 3.7 -0.45 4.1 -0.2 Q4.1 0.35 3.15 0.35 L2.55 0.25 Q0.7 1.7 -3.55 1.7 L-5.8 1.5 -5.9 0.9 -6.05 -0.8 -5.9 -3.4 Q-5.5 -4.55 -4.65 -5.2 L-4.05 -5.6 Q-3.25 -6.05 -2.15 -6.15 -3.25 -6.05 -4.05 -5.6 -3.6 -6.4 -3.05 -6.4 L-2.15 -6.15 -1.9 -6.15 -1.2 -6.2 -0.8 -6.2 -0.4 -6.15 1.55 -5.75 -0.4 -6.15 0.4 -6.4 Q1.15 -6.4 1.55 -5.75 M2.6 -0.5 L3.15 -0.55 3.3 -0.55 3.4 -0.55 3.3 -0.55 3.15 -0.55 2.6 -0.5 M2.35 -2.25 L2.05 -3.5 1.65 -3.75 1.65 -3.35 1.2 -3.0 0.8 -2.6 Q0.85 -2.0 1.8 -2.0 2.15 -2.0 2.35 -2.25 M-0.05 -3.45 Q0.05 -3.85 0.95 -3.85 L1.65 -3.75 0.95 -3.85 Q0.05 -3.85 -0.05 -3.45 M-1.75 -3.2 L-2.15 -3.65 -2.95 -3.8 -3.95 -3.55 -4.45 -2.7 -3.95 -3.55 -2.95 -3.8 -2.15 -3.65 -1.75 -3.2 M-0.1 -0.75 L-0.45 -1.05 -0.8 -1.3 -1.3 -1.0 -1.55 -0.7 -1.35 -0.05 -1.1 0.65 Q-0.95 0.7 -0.35 0.25 0.25 -0.25 -0.1 -0.75 M-2.5 -1.0 Q-2.25 -1.45 -1.4 -1.45 L-0.8 -1.3 -1.4 -1.45 Q-2.25 -1.45 -2.5 -1.0" fill="#ffffff" fill-rule="evenodd" stroke="none"/>
    <path d="M-5.8 1.5 L-3.55 1.7 Q0.7 1.7 2.55 0.25 L3.15 0.35 Q4.1 0.35 4.1 -0.2 L3.7 -0.45 3.4 -0.55 3.35 -0.6 3.75 -1.25 Q4.55 -2.4 4.55 -2.9 L4.45 -3.5 4.4 -3.65 4.5 -3.5 4.6 -3.4 4.9 -3.8 5.35 -2.85 5.3 -2.35 5.25 -2.3 4.6 -3.4 5.25 -2.3 5.3 -2.3 Q6.05 -0.7 6.05 1.2 6.05 3.8 3.55 5.25 1.85 6.25 0.45 6.25 -2.45 6.25 -4.3 4.25 -5.35 3.05 -5.8 1.5 M1.65 -3.75 L2.05 -3.5 2.35 -2.25 Q2.15 -2.0 1.8 -2.0 0.85 -2.0 0.8 -2.6 L1.2 -3.0 1.65 -3.35 1.65 -3.75 M4.45 1.3 L4.75 0.8 Q4.75 0.3 4.25 -0.1 L4.1 -0.2 4.25 -0.1 Q4.75 0.3 4.75 0.8 L4.45 1.3 M-0.8 -1.3 L-0.45 -1.05 -0.1 -0.75 Q0.25 -0.25 -0.35 0.25 -0.95 0.7 -1.1 0.65 L-1.35 -0.05 -1.55 -0.7 -1.3 -1.0 -0.8 -1.3" fill="#d6baba" fill-rule="evenodd" stroke="none"/>
    <path d="M3.8 -4.25 L3.75 -4.35 3.7 -4.4 2.0 -5.55 1.55 -5.75 -0.4 -6.15 -0.8 -6.2 -1.2 -6.2 -1.9 -6.15 -2.15 -6.15 Q-3.25 -6.05 -4.05 -5.6 L-4.65 -5.2 Q-5.5 -4.55 -5.9 -3.4 L-6.05 -0.8 -5.9 0.9 -5.8 1.5 Q-5.35 3.05 -4.3 4.25 -2.45 6.25 0.45 6.25 1.85 6.25 3.55 5.25 6.05 3.8 6.05 1.2 6.05 -0.7 5.3 -2.3 L5.25 -2.3 4.6 -3.4 4.5 -3.5 4.4 -3.65 4.3 -3.75 3.8 -4.25 Q4.45 -4.2 4.9 -3.8 L5.35 -2.85 5.3 -2.35 5.3 -2.3 M4.1 -0.2 L3.7 -0.45 3.4 -0.55 3.3 -0.55 3.15 -0.55 2.6 -0.5 M1.65 -3.75 L2.05 -3.5 2.35 -2.25 M1.65 -3.75 L0.95 -3.85 Q0.05 -3.85 -0.05 -3.45 M4.1 -0.2 L4.25 -0.1 Q4.75 0.3 4.75 0.8 L4.45 1.3 M1.55 -5.75 Q1.15 -6.4 0.4 -6.4 L-0.4 -6.15 M-4.45 -2.7 L-3.95 -3.55 -2.95 -3.8 -2.15 -3.65 -1.75 -3.2 M-0.8 -1.3 L-0.45 -1.05 -0.1 -0.75 M-0.8 -1.3 L-1.4 -1.45 Q-2.25 -1.45 -2.5 -1.0 M-2.15 -6.15 L-3.05 -6.4 Q-3.6 -6.4 -4.05 -5.6" fill="none" stroke="#a36a6a" stroke-linecap="round" stroke-linejoin="round" stroke-width="1"/>
  </g>
</svg>