<?xml version="1.0" encoding="UTF-8" standalone="no"?>
<svg xmlns:xlink="http://www.w3.org/1999/xlink" height="14.45px" width="14.1px" xmlns="http://www.w3.org/2000/svg">
  <g id="shape0" transform="matrix(1.0, 0.0, 0.0, 1.0, 7.05, 7.2)">
    <path d="M3.05 -3.9 L2.75 -4.15 2.35 -4.15 2.75 -4.15 3.05 -3.9 M4.4 -3.65 L4.45 -3.5 4.55 -2.9 4.25 -2.05 3.75 -1.25 2.9 -0.05 Q1.1 1.7 -3.55 1.7 L-5.8 1.5 -5.9 0.9 -6.05 -0.8 -5.9 -3.4 Q-4.9 -6.2 -1.2 -6.2 1.85 -6.2 3.75 -4.35 L4.3 -3.75 4.4 -3.65 M3.1 -1.05 L2.7 -1.35 3.1 -1.05 M1.75 -3.25 L1.5 -3.25 1.75 -3.25 M1.4 -5.2 L1.15 -5.3 0.85 -5.3 1.15 -5.3 1.4 -5.2 M-3.2 -4.0 L-3.55 -4.15 -3.2 -4.0 M-2.1 -1.85 L-2.55 -1.7 -2.1 -1.85 M-0.8 -4.4 L-1.1 -4.6 -1.4 -4.55 -1.1 -4.6 -0.8 -4.4 M-0.9 -5.55 L-1.3 -5.7 -1.75 -5.55 -1.3 -5.7 -0.9 -5.55 M-0.1 -0.3 L-0.45 -0.4 -0.1 -0.3 M0.0 -2.45 L-0.5 -2.45 0.0 -2.45" fill="#ffffff" fill-rule="evenodd" stroke="none"/>
    <path d="M-5.8 1.5 L-3.55 1.7 Q1.1 1.7 2.9 -0.05 L3.75 -1.25 4.25 -2.05 4.55 -2.9 4.45 -3.5 4.4 -3.65 Q6.05 -1.55 6.05 1.2 6.05 3.8 3.55 5.25 1.85 6.25 0.45 6.25 -2.45 6.25 -4.3 4.25 -5.35 3.05 -5.8 1.5 M2.7 1.35 L2.5 1.1 2.7 1.35 M5.35 0.8 L5.2 0.4 5.35 0.8 M4.7 -1.6 L4.25 -2.05 4.7 -1.6 M-1.8 2.35 L-2.35 2.2 -1.8 2.35" fill="#d6baba" fill-rule="evenodd" stroke="none"/>
    <path d="M2.35 -4.15 L2.75 -4.15 3.05 -3.9 M4.4 -3.65 L4.3 -3.75 3.75 -4.35 Q1.85 -6.2 -1.2 -6.2 -4.9 -6.2 -5.9 -3.4 L-6.05 -0.8 -5.9 0.9 -5.8 1.5 Q-5.35 3.05 -4.3 4.25 -2.45 6.25 0.45 6.25 1.85 6.25 3.55 5.25 6.05 3.8 6.05 1.2 6.05 -1.55 4.4 -3.65 M0.85 -5.3 L1.15 -5.3 1.4 -5.2 M1.5 -3.25 L1.75 -3.25 M2.7 -1.35 L3.1 -1.05 M4.25 -2.05 L4.7 -1.6 M5.2 0.4 L5.35 0.8 M2.5 1.1 L2.7 1.35 M-0.45 -0.4 L-0.1 -0.3 M-1.75 -5.55 L-1.3 -5.7 -0.9 -5.55 M-1.4 -4.55 L-1.1 -4.6 -0.8 -4.4 M-2.55 -1.7 L-2.1 -1.85 M-3.55 -4.15 L-3.2 -4.0 M-2.35 2.2 L-1.8 2.35 M-0.5 -2.45 L0.0 -2.45" fill="none" stroke="#a36a6a" stroke-linecap="round" stroke-linejoin="round" stroke-width="1"/>
  </g>
</svg>