<?xml version="1.0" encoding="UTF-8" standalone="no"?>
<svg xmlns:xlink="http://www.w3.org/1999/xlink" height="10.7px" width="11.95px" xmlns="http://www.w3.org/2000/svg">
  <g transform="matrix(1.0, 0.0, 0.0, 1.0, 3.45, 6.2)">
    <path d="M-1.4 -2.75 L-1.7 -1.3 -1.4 -2.75 M-1.7 -1.3 L-1.8 -1.65 -2.2 -2.1 -2.45 -2.35 Q-2.45 -5.2 -1.15 -5.2 -0.4 -5.15 -0.4 -4.9 L-0.55 -4.25 Q-0.55 -3.9 0.35 -3.7 L2.25 -3.45 6.7 -3.65 7.25 -3.0 7.5 -1.55 7.35 -0.85 6.45 -0.6 3.55 -0.15 Q2.25 -0.15 1.65 -0.55 L1.65 -0.5 1.85 1.45 Q1.85 2.25 1.5 2.85 1.05 3.5 0.15 3.45 L0.05 3.5 -0.2 3.45 Q-0.6 3.4 -0.8 3.15 L-1.35 2.05 -1.65 1.15 -1.8 0.0 -1.7 -0.85 -1.7 -1.3" fill="#ffffcc" fill-rule="evenodd" stroke="none"/>
    <path d="M-1.7 -1.3 L-1.4 -2.75 M-1.7 -1.3 L-1.7 -0.85 -1.8 0.0 -1.65 1.15 -1.35 2.05 -0.8 3.15 Q-0.6 3.4 -0.2 3.45 L0.05 3.5 0.15 3.45 Q1.05 3.5 1.5 2.85 1.85 2.25 1.85 1.45 L1.65 -0.5 1.65 -0.55 Q2.25 -0.15 3.55 -0.15 L6.45 -0.6 7.35 -0.85 7.5 -1.55 7.25 -3.0 6.7 -3.65 2.25 -3.45 0.35 -3.7 Q-0.55 -3.9 -0.55 -4.25 L-0.4 -4.9 Q-0.4 -5.15 -1.15 -5.2 -2.45 -5.2 -2.45 -2.35 L-2.2 -2.1 -1.8 -1.65 -1.7 -1.3 M-1.35 2.05 L-1.35 2.15 -1.35 2.05 Z" fill="none" stroke="#a36a6a" stroke-linecap="round" stroke-linejoin="round" stroke-width="1"/>
  </g>
</svg>