<?xml version="1.0" encoding="UTF-8" standalone="no"?>
<svg xmlns:xlink="http://www.w3.org/1999/xlink" height="49.7px" width="30.15px" xmlns="http://www.w3.org/2000/svg">
  <g transform="matrix(1.0, 0.0, 0.0, 1.0, 1, 2.35)">
    <path d="M6.8 8.35 Q7.8 6.35 9.8 5.2 L12.95 3.1 16.9 -0.4 Q19.25 -2.5 23.65 0.0 L24.95 0.8 24.95 1.05 Q24.95 2.2 23.9 3.1 L24.3 3.05 24.05 3.45 Q23.9 3.45 23.65 3.25 22.6 4.0 20.7 4.55 16.4 5.8 16.4 6.35 L16.25 6.65 Q16.1 6.7 16.1 6.9 L16.1 6.95 16.5 6.8 16.65 6.9 16.25 7.25 16.1 7.25 15.75 8.0 15.9 8.1 15.75 8.4 15.4 8.45 14.35 9.55 14.45 9.6 14.1 10.2 14.0 9.8 13.1 10.5 11.1 12.0 11.1 12.5 10.8 12.6 10.65 12.45 10.7 12.3 10.05 12.75 Q10.05 13.25 7.6 14.1 5.3 14.9 4.65 14.9 4.2 14.9 4.2 14.1 4.2 13.4 4.5 13.1 L6.15 11.8 6.35 11.65 Q7.75 10.75 7.9 10.1 7.95 9.75 8.6 8.95 L7.1 9.95 6.8 8.35 M0.3 37.75 L0.55 37.35 1.6 36.25 3.0 34.7 3.5 34.25 Q4.1 32.2 3.3 27.45 3.75 27.9 4.65 28.3 L8.1 29.7 Q8.95 30.15 9.45 31.8 9.9 33.2 9.9 34.6 L9.65 37.6 Q9.65 38.8 8.1 39.6 6.8 40.25 5.4 40.25 L5.0 40.15 6.0 39.05 6.2 39.0 6.0 39.0 Q5.65 39.0 4.3 39.55 L4.05 39.65 4.05 39.75 3.45 39.95 3.45 39.9 Q2.9 40.15 2.9 40.2 L2.85 40.15 2.85 40.4 2.45 40.65 2.25 40.5 2.25 40.2 2.4 39.9 2.6 39.9 2.3 39.7 Q1.7 39.3 1.65 38.7 L1.65 38.55 2.05 37.95 0.75 38.1 Q0.45 38.1 0.3 37.75 M20.25 10.35 L20.4 10.35 20.85 10.95 20.4 11.1 20.15 10.95 20.1 10.65 Q20.1 10.45 20.25 10.35 M21.5 8.25 L21.6 8.3 21.0 8.8 Q20.65 9.0 20.85 8.7 21.3 8.25 21.5 8.25 M22.35 6.65 L22.05 6.9 21.6 6.45 21.6 6.2 21.9 6.05 22.35 6.65 M23.45 9.2 L24.0 9.0 24.35 9.5 23.9 9.8 23.45 9.2 M24.5 5.7 L24.3 5.3 Q24.65 5.2 24.65 5.5 L24.5 5.7 M19.05 1.95 L19.5 1.7 19.5 1.55 18.9 1.55 19.05 1.95 M16.05 1.55 L15.45 1.5 15.45 1.95 15.75 1.95 Q16.05 1.95 16.05 1.55 M15.8 5.1 Q15.45 4.75 15.0 4.85 L15.3 5.25 15.8 5.1 M19.2 5.4 Q19.7 4.85 20.0 5.0 L20.25 5.6 19.65 6.0 19.2 5.4 M14.85 5.85 L14.25 5.9 14.45 6.45 14.75 6.35 14.85 6.05 14.85 5.85 M12.3 4.65 L12.6 4.35 12.5 4.05 12.0 4.2 12.3 4.65 M12.15 7.65 L12.45 7.55 12.45 7.35 12.0 7.4 12.15 7.65 M11.9 12.35 Q12.3 12.0 12.5 12.15 L12.6 12.5 12.15 12.75 11.9 12.35 M10.35 11.1 L9.75 11.15 9.95 11.55 10.25 11.55 10.35 11.1 M8.1 18.3 L8.15 18.55 7.95 18.9 7.8 18.65 8.1 18.3 M15.75 12.0 Q15.75 11.65 15.9 11.4 L16.25 11.4 16.35 11.8 16.25 12.15 15.95 12.15 Q15.75 12.35 15.75 12.0 M16.2 10.1 L15.75 10.05 15.75 9.75 16.35 9.65 16.2 10.1 M17.7 10.2 L17.3 10.35 17.1 10.2 17.1 9.9 Q17.25 9.6 17.45 9.85 L17.7 10.2 M18.9 8.15 L19.4 8.7 18.9 8.85 18.75 8.7 18.75 8.45 18.75 8.2 18.9 8.15 M13.05 10.7 L13.65 10.65 13.65 10.95 13.25 11.1 13.0 11.0 12.9 10.85 13.05 10.7 M7.95 12.6 L7.85 12.3 Q7.65 12.3 7.5 12.45 L7.8 12.65 7.95 12.6 M5.7 27.3 L5.7 27.0 Q6.4 26.85 6.6 27.2 L6.0 27.6 5.7 27.3 M9.3 26.7 L8.85 26.9 8.45 26.4 8.7 26.15 9.3 26.7 M11.15 36.3 L10.8 36.3 10.65 36.15 10.85 35.7 Q11.25 35.7 11.3 35.85 L11.15 36.3 M10.65 32.0 L10.95 31.8 Q11.25 31.8 11.25 32.15 L11.25 32.3 10.8 32.4 10.7 32.3 10.65 32.0 M10.25 25.95 L10.2 26.4 Q9.9 26.4 9.65 26.15 L9.75 26.0 10.25 25.95 M10.95 14.4 L10.8 14.0 11.45 13.95 11.45 14.15 Q11.4 14.4 10.95 14.4 M15.5 16.95 L15.3 16.85 Q15.15 16.8 15.15 16.35 L15.75 16.2 15.75 16.7 15.5 16.95 M17.0 15.3 L17.4 15.35 17.4 15.9 17.1 15.95 16.95 15.9 Q16.85 16.05 16.85 15.7 L16.9 15.45 17.0 15.3 M6.9 24.5 L6.45 24.2 6.45 24.05 7.25 23.85 7.3 24.15 7.4 24.15 7.35 24.45 7.05 24.5 6.9 24.5 M3.6 35.45 L3.5 34.25 3.6 35.45 M4.35 35.4 L4.35 35.55 4.8 35.4 4.8 35.1 4.55 35.1 4.35 35.4 M6.3 31.5 L6.45 31.7 6.95 31.5 6.3 31.35 6.3 31.5 M6.8 34.35 L7.05 34.65 7.35 34.55 Q6.75 34.05 6.8 34.35 M5.25 36.75 L5.6 37.25 5.9 37.2 6.0 37.05 5.75 36.65 5.25 36.75 M8.8 40.35 L8.55 40.25 9.05 40.05 9.05 40.25 8.8 40.35 M6.3 41.55 L6.9 41.6 6.45 41.85 6.3 41.7 6.3 41.55 M5.55 42.9 L5.75 42.8 6.15 43.7 6.05 44.0 5.75 44.1 Q5.4 43.8 5.4 43.1 L5.55 42.9 M2.4 38.0 L2.15 38.2 1.65 38.7 2.15 38.2 2.4 38.0 M11.1 38.55 L11.1 38.4 11.7 38.3 11.55 38.7 11.1 38.55 M6.6 44.8 L6.3 44.7 6.75 44.5 6.9 44.55 6.9 44.7 6.6 44.8 M8.0 43.55 L7.65 43.85 7.2 43.4 Q7.25 43.1 7.55 43.05 L8.0 43.55 M2.95 41.7 L3.0 41.7 3.4 41.75 3.5 42.15 3.45 42.45 3.2 42.6 2.85 42.35 2.85 41.95 2.95 41.7 M3.05 40.65 L2.9 40.4 Q3.05 40.25 3.25 40.25 L3.45 40.35 3.45 40.65 3.05 40.65 M4.2 40.35 L3.9 40.5 3.75 40.25 Q3.8 39.85 4.05 39.95 L4.2 40.35" fill="#c04848" fill-rule="evenodd" stroke="none"/>
    <path d="M6.8 8.35 L7.1 9.95 8.6 8.95 Q7.95 9.75 7.9 10.1 7.75 10.75 6.35 11.65 L6.15 11.8 4.5 13.1 Q4.2 13.4 4.2 14.1 4.2 14.9 4.65 14.9 5.3 14.9 7.6 14.1 10.05 13.25 10.05 12.75 L10.7 12.3 10.65 12.45 10.8 12.6 11.1 12.5 11.1 12.0 13.1 10.5 14.0 9.8 14.1 10.2 14.45 9.6 14.35 9.55 15.4 8.45 15.75 8.4 15.9 8.1 15.75 8.0 16.1 7.25 16.25 7.25 16.65 6.9 16.5 6.8 16.1 6.95 16.1 6.9 Q16.1 6.7 16.25 6.65 L16.4 6.35 Q16.4 5.8 20.7 4.55 22.6 4.0 23.65 3.25 23.9 3.45 24.05 3.45 L24.3 3.05 23.9 3.1 Q24.95 2.2 24.95 1.05 L24.95 0.8 Q28.05 3.05 28.15 6.1 28.2 9.7 26.95 11.75 26.1 13.1 21.7 15.1 L19.15 15.55 18.95 15.55 19.35 15.75 Q18.55 17.5 15.2 19.15 L14.35 19.55 14.7 20.35 Q15.35 21.85 15.35 23.05 15.35 25.15 14.4 26.25 13.4 27.35 13.35 28.2 L13.2 31.75 Q13.0 35.1 12.65 36.0 L12.2 35.8 12.5 35.95 12.6 36.05 12.6 36.1 13.5 37.2 Q13.95 37.8 13.95 38.5 13.95 39.35 12.6 40.65 L12.3 40.95 10.75 42.55 12.35 43.75 Q11.25 45.7 10.0 46.05 L8.3 46.35 Q6.95 46.35 5.7 45.55 L4.95 45.05 3.25 43.8 Q1.4 42.35 1.4 41.7 L1.45 41.25 1.5 41.05 1.4 41.0 0.45 40.2 Q0.0 39.5 0.0 38.85 0.0 38.25 0.3 37.75 0.45 38.1 0.75 38.1 L2.05 37.95 1.65 38.55 1.65 38.7 Q1.7 39.3 2.3 39.7 L2.6 39.9 2.4 39.9 2.25 40.2 2.25 40.5 2.45 40.65 2.85 40.4 2.85 40.15 2.9 40.2 Q2.9 40.15 3.45 39.9 L3.45 39.95 4.05 39.75 4.05 39.65 4.3 39.55 Q5.65 39.0 6.0 39.0 L6.2 39.0 6.0 39.05 5.0 40.15 5.4 40.25 Q6.8 40.25 8.1 39.6 9.65 38.8 9.65 37.6 L9.9 34.6 Q9.9 33.2 9.45 31.8 8.95 30.15 8.1 29.7 L4.65 28.3 Q3.75 27.9 3.3 27.45 L3.05 26.1 2.65 24.25 Q0.95 16.9 3.3 14.05 5.6 11.2 6.6 8.85 L6.8 8.35 M24.5 5.7 L24.65 5.5 Q24.65 5.2 24.3 5.3 L24.5 5.7 M23.45 9.2 L23.9 9.8 24.35 9.5 24.0 9.0 23.45 9.2 M22.35 6.65 L21.9 6.05 21.6 6.2 21.6 6.45 22.05 6.9 22.35 6.65 M21.5 8.25 Q21.3 8.25 20.85 8.7 20.65 9.0 21.0 8.8 L21.6 8.3 21.5 8.25 M20.25 10.35 Q20.1 10.45 20.1 10.65 L20.15 10.95 20.4 11.1 20.85 10.95 20.4 10.35 20.25 10.35 M19.2 5.4 L19.65 6.0 20.25 5.6 20.0 5.0 Q19.7 4.85 19.2 5.4 M11.9 12.35 L12.15 12.75 12.6 12.5 12.5 12.15 Q12.3 12.0 11.9 12.35 M13.05 10.7 L12.9 10.85 13.0 11.0 13.25 11.1 13.65 10.95 13.65 10.65 13.05 10.7 M18.9 8.15 L18.75 8.2 18.75 8.45 18.75 8.7 18.9 8.85 19.4 8.7 18.9 8.15 M17.7 10.2 L17.45 9.85 Q17.25 9.6 17.1 9.9 L17.1 10.2 17.3 10.35 17.7 10.2 M16.2 10.1 L16.35 9.65 15.75 9.75 15.75 10.05 16.2 10.1 M15.75 12.0 Q15.75 12.35 15.95 12.15 L16.25 12.15 16.35 11.8 16.25 11.4 15.9 11.4 Q15.75 11.65 15.75 12.0 M8.1 18.3 L7.8 18.65 7.95 18.9 8.15 18.55 8.1 18.3 M4.35 21.05 L4.2 19.05 4.35 16.5 3.95 15.6 Q3.65 15.25 3.65 14.65 3.65 13.4 4.15 13.05 L6.15 11.8 4.15 13.05 Q3.65 13.4 3.65 14.65 3.65 15.25 3.95 15.6 L4.35 16.5 4.2 19.05 4.35 21.05 M6.9 24.5 L7.05 24.5 7.35 24.45 7.4 24.15 7.3 24.15 7.25 23.85 6.45 24.05 6.45 24.2 6.9 24.5 M17.0 15.3 L16.9 15.45 16.85 15.7 Q16.85 16.05 16.95 15.9 L17.1 15.95 17.4 15.9 17.4 15.35 17.0 15.3 M15.5 16.95 L15.75 16.7 15.75 16.2 15.15 16.35 Q15.15 16.8 15.3 16.85 L15.5 16.95 M10.95 14.4 Q11.4 14.4 11.45 14.15 L11.45 13.95 10.8 14.0 10.95 14.4 M10.25 25.95 L9.75 26.0 9.65 26.15 Q9.9 26.4 10.2 26.4 L10.25 25.95 M10.65 32.0 L10.7 32.3 10.8 32.4 11.25 32.3 11.25 32.15 Q11.25 31.8 10.95 31.8 L10.65 32.0 M11.15 36.3 L11.3 35.85 Q11.25 35.7 10.85 35.7 L10.65 36.15 10.8 36.3 11.15 36.3 M9.3 26.7 L8.7 26.15 8.45 26.4 8.85 26.9 9.3 26.7 M5.7 27.3 L6.0 27.6 6.6 27.2 Q6.4 26.85 5.7 27.0 L5.7 27.3 M4.95 45.05 Q4.0 44.15 4.0 42.95 4.0 41.5 5.0 40.15 4.0 41.5 4.0 42.95 4.0 44.15 4.95 45.05 M1.4 41.0 L1.3 39.8 Q1.3 39.2 1.65 38.7 1.3 39.2 1.3 39.8 L1.4 41.0 M5.55 42.9 L5.4 43.1 Q5.4 43.8 5.75 44.1 L6.05 44.0 6.15 43.7 5.75 42.8 5.55 42.9 M6.3 41.55 L6.3 41.7 6.45 41.85 6.9 41.6 6.3 41.55 M8.8 40.35 L9.05 40.25 9.05 40.05 8.55 40.25 8.8 40.35 M1.8 41.1 L1.5 41.05 1.8 41.1 M4.2 40.35 L4.05 39.95 Q3.8 39.85 3.75 40.25 L3.9 40.5 4.2 40.35 M3.05 40.65 L3.45 40.65 3.45 40.35 3.25 40.25 Q3.05 40.25 2.9 40.4 L3.05 40.65 M2.95 41.7 L2.85 41.95 2.85 42.35 3.2 42.6 3.45 42.45 3.5 42.15 3.4 41.75 3.0 41.7 2.95 41.7 M8.0 43.55 L7.55 43.05 Q7.25 43.1 7.2 43.4 L7.65 43.85 8.0 43.55 M6.6 44.8 L6.9 44.7 6.9 44.55 6.75 44.5 6.3 44.7 6.6 44.8 M11.1 38.55 L11.55 38.7 11.7 38.3 11.1 38.4 11.1 38.55 M10.8 42.0 L12.3 40.95 10.8 42.0 M10.3 43.0 L10.75 42.55 10.3 43.0" fill="#913333" fill-rule="evenodd" stroke="none"/>
    <path d="M15.8 5.1 L15.3 5.25 15.0 4.85 Q15.45 4.75 15.8 5.1 M16.05 1.55 Q16.05 1.95 15.75 1.95 L15.45 1.95 15.45 1.5 16.05 1.55 M19.05 1.95 L18.9 1.55 19.5 1.55 19.5 1.7 19.05 1.95 M12.15 7.65 L12.0 7.4 12.45 7.35 12.45 7.55 12.15 7.65 M12.3 4.65 L12.0 4.2 12.5 4.05 12.6 4.35 12.3 4.65 M14.85 5.85 L14.85 6.05 14.75 6.35 14.45 6.45 14.25 5.9 14.85 5.85 M10.35 11.1 L10.25 11.55 9.95 11.55 9.75 11.15 10.35 11.1 M7.95 12.6 L7.8 12.65 7.5 12.45 Q7.65 12.3 7.85 12.3 L7.95 12.6 M5.25 36.75 L5.75 36.65 6.0 37.05 5.9 37.2 5.6 37.25 5.25 36.75 M6.8 34.35 Q6.75 34.05 7.35 34.55 L7.05 34.65 6.8 34.35 M6.3 31.5 L6.3 31.35 6.95 31.5 6.45 31.7 6.3 31.5 M4.35 35.4 L4.55 35.1 4.8 35.1 4.8 35.4 4.35 35.55 4.35 35.4" fill="#ffffcc" fill-rule="evenodd" stroke="none"/>
    <path d="M24.95 0.8 L23.65 0.0 Q19.25 -2.5 16.9 -0.4 L12.95 3.1 9.8 5.2 Q7.8 6.35 6.8 8.35 L6.6 8.85 Q5.6 11.2 3.3 14.05 0.95 16.9 2.65 24.25 L3.05 26.1 3.3 27.45 Q4.1 32.2 3.5 34.25 L3.6 35.45 M8.6 8.95 Q7.95 9.75 7.9 10.1 7.75 10.75 6.35 11.65 L6.15 11.8 4.15 13.05 Q3.65 13.4 3.65 14.65 3.65 15.25 3.95 15.6 L4.35 16.5 4.2 19.05 4.35 21.05 M24.95 0.8 Q28.05 3.05 28.15 6.1 28.2 9.7 26.95 11.75 26.1 13.1 21.7 15.1 L19.15 15.55 18.95 15.55 19.35 15.75 Q18.55 17.5 15.2 19.15 L14.35 19.55 14.7 20.35 Q15.35 21.85 15.35 23.05 15.35 25.15 14.4 26.25 13.4 27.35 13.35 28.2 L13.2 31.75 Q13.0 35.1 12.65 36.0 L12.2 35.8 12.5 35.95 12.6 36.05 12.6 36.1 13.5 37.2 Q13.95 37.8 13.95 38.5 13.95 39.35 12.6 40.65 L12.3 40.95 10.75 42.55 12.35 43.75 Q11.25 45.7 10.0 46.05 L8.3 46.35 Q6.95 46.35 5.7 45.55 L4.95 45.05 3.25 43.8 Q1.4 42.35 1.4 41.7 L1.45 41.25 1.5 41.05 1.4 41.0 0.45 40.2 Q0.0 39.5 0.0 38.85 0.0 38.25 0.3 37.75 L0.55 37.35 1.6 36.25 3.0 34.7 3.5 34.25 M5.0 40.15 Q4.0 41.5 4.0 42.95 4.0 44.15 4.95 45.05 M5.0 40.15 L6.0 39.05 6.2 39.0 M1.65 38.7 Q1.3 39.2 1.3 39.8 L1.4 41.0 M1.65 38.7 L2.15 38.2 2.4 38.0 M1.5 41.05 L1.8 41.1 M10.75 42.55 L10.3 43.0 M12.3 40.95 L10.8 42.0" fill="none" stroke="#4f0202" stroke-linecap="round" stroke-linejoin="round" stroke-opacity="0.49803922" stroke-width="1"/>
  </g>
</svg>