<?xml version="1.0" encoding="UTF-8" standalone="no"?>
<svg xmlns:xlink="http://www.w3.org/1999/xlink" height="46.35px" width="30.25px" xmlns="http://www.w3.org/2000/svg">
  <g transform="matrix(1.0, 0.0, 0.0, 1.0, 1, 1.2)">
    <path d="M3.45 31.15 L3.15 28.35 Q2.75 25.4 2.25 24.25 1.4 22.3 1.4 20.45 1.4 17.65 3.7 12.7 5.7 8.3 7.0 7.15 8.85 5.5 10.45 4.65 L13.0 2.9 Q14.55 1.5 18.0 0.65 L21.85 0.0 22.25 -0.2 22.4 -0.2 23.85 0.0 24.8 0.4 Q25.85 0.95 26.75 2.15 L27.75 3.9 Q27.35 5.05 25.75 5.95 L23.85 6.8 21.15 7.15 Q16.9 7.15 15.2 6.15 14.6 6.3 12.7 8.75 L10.15 11.45 11.1 12.15 Q11.55 12.7 11.55 13.9 11.55 15.6 8.9 17.8 L6.25 19.8 5.9 24.3 7.1 25.9 7.1 26.3 Q7.1 27.1 6.3 29.2 5.45 31.45 5.0 31.45 L3.45 31.15 M0.4 35.35 L0.55 35.15 0.7 35.05 1.35 34.3 1.8 33.8 1.95 33.65 3.75 33.5 Q4.35 33.5 5.95 34.3 L6.4 34.55 Q8.7 35.75 8.7 36.8 8.7 37.65 7.25 39.15 5.7 40.7 4.65 40.7 4.1 40.7 4.1 40.1 L4.35 39.1 Q4.75 38.1 5.7 37.2 L6.0 36.85 Q4.95 36.55 4.35 37.4 3.7 38.3 2.35 38.3 L1.9 38.05 1.45 37.55 1.45 36.85 1.6 36.65 2.35 35.85 2.45 35.5 1.85 35.5 Q1.35 35.9 0.8 35.9 L0.5 35.85 0.4 35.45 0.4 35.35 M22.05 1.35 L21.65 1.3 21.6 1.4 21.95 1.55 22.05 1.35 M12.95 5.7 L13.05 5.15 12.5 5.1 Q12.5 5.55 12.65 5.7 L12.95 5.7 M11.3 6.15 L10.8 6.05 10.8 6.4 Q10.8 6.75 10.95 6.65 L11.25 6.65 Q11.25 6.45 11.4 6.45 L11.3 6.15 M20.15 3.75 L19.65 3.3 19.5 3.45 19.7 3.8 20.1 4.05 20.15 3.75 M17.85 2.4 L18.0 2.15 17.75 2.05 17.55 2.1 17.55 2.4 17.85 2.4 M4.35 20.55 L4.35 20.25 Q3.9 20.2 3.75 20.4 L3.75 20.6 4.2 20.7 Q4.2 20.55 4.35 20.55 M4.5 17.45 Q4.15 17.45 3.9 17.75 L4.4 17.85 4.5 17.45 M4.4 13.95 L4.35 14.25 4.4 14.55 4.65 14.6 5.0 14.45 5.0 14.1 4.65 13.95 4.4 13.95 M7.95 14.25 L8.1 13.95 8.1 13.85 Q7.75 13.85 7.5 14.1 L7.95 14.25 M8.55 15.0 L8.15 14.85 7.8 14.9 7.85 15.15 8.3 15.2 8.55 15.0 M8.15 11.1 L8.4 10.85 7.95 10.8 8.15 11.1 M8.6 8.85 L8.9 8.3 8.65 8.2 8.4 8.25 8.3 8.5 8.4 8.85 8.6 8.85" fill="#c04848" fill-rule="evenodd" stroke="none"/>
    <path d="M4.95 42.85 L3.15 41.5 2.25 40.5 1.6 39.5 1.5 39.05 1.4 38.8 0.45 38.0 Q0.0 37.3 0.0 36.65 0.0 35.9 0.4 35.35 L0.4 35.45 0.5 35.85 0.8 35.9 Q1.35 35.9 1.85 35.5 L2.45 35.5 2.35 35.85 1.6 36.65 1.45 36.85 1.45 37.55 1.9 38.05 2.35 38.3 Q3.7 38.3 4.35 37.4 4.95 36.55 6.0 36.85 L5.7 37.2 Q4.75 38.1 4.35 39.1 4.0 39.9 4.0 40.75 4.0 41.95 4.95 42.85 M1.4 38.8 L1.3 37.6 Q1.3 37.2 1.45 36.85 1.3 37.2 1.3 37.6 L1.4 38.8" fill="#913333" fill-rule="evenodd" stroke="none"/>
    <path d="M21.3 10.95 L20.9 10.8 Q21.1 10.2 21.5 9.95 L21.95 10.35 21.3 10.95 M21.2 9.95 L20.75 9.45 Q21.2 9.45 21.2 8.9 21.6 9.1 21.6 9.6 L21.2 9.95 M13.05 9.75 L13.5 9.15 13.95 9.45 13.8 9.9 13.5 9.95 13.05 9.75 M15.65 9.6 L15.05 9.15 Q15.7 8.0 16.1 9.45 L15.65 9.6 M16.65 10.95 L16.55 11.4 16.25 11.45 15.8 10.95 Q16.25 11.0 16.25 10.5 L16.65 10.95 M9.3 22.9 L9.2 23.3 8.9 23.4 8.45 22.9 Q8.9 22.95 8.9 22.4 L9.3 22.9 M15.6 12.9 L15.3 12.85 15.15 12.65 15.05 12.4 Q15.05 12.15 16.05 12.15 L16.1 12.45 16.05 12.75 15.6 12.9 M12.45 15.75 L12.9 15.75 13.05 15.8 12.75 16.2 12.45 16.05 12.45 15.75 M11.7 17.45 L11.6 17.85 11.3 18.0 10.95 17.75 Q10.85 17.85 10.85 17.5 10.85 17.2 11.3 17.1 L11.7 17.45 M11.4 24.4 L11.3 24.75 10.85 24.8 10.5 24.75 10.35 24.35 10.4 24.0 11.3 24.15 11.4 24.4 M11.85 27.35 L11.3 27.9 10.85 27.4 11.15 27.05 11.4 26.85 11.85 27.35 M10.2 28.7 L9.8 28.15 10.0 28.1 10.2 27.75 10.65 28.35 10.2 28.7 M11.4 33.9 L11.55 34.1 11.55 34.3 11.4 34.5 11.1 34.5 11.0 34.3 11.0 34.15 11.05 33.9 11.4 33.9 M10.2 33.5 L9.6 33.35 Q9.75 33.15 10.1 33.15 L10.25 33.2 10.2 33.5 M7.05 28.95 Q7.05 28.85 7.15 28.9 L7.4 29.1 Q7.35 29.25 7.05 29.25 L7.05 28.95 M7.5 29.9 L7.7 30.0 7.65 30.3 7.4 30.3 7.35 30.0 Q7.35 29.9 7.5 29.9 M9.85 28.7 Q10.15 28.75 10.5 29.1 L10.0 29.55 9.5 29.45 9.45 29.0 Q9.45 28.6 9.85 28.7 M8.25 32.25 L8.1 32.4 7.9 32.45 7.85 32.2 7.9 31.95 8.1 31.95 8.25 32.25" fill="#b84a4a" fill-rule="evenodd" stroke="none"/>
    <path d="M22.05 1.35 L21.95 1.55 21.6 1.4 21.65 1.3 22.05 1.35 M17.85 2.4 L17.55 2.4 17.55 2.1 17.75 2.05 18.0 2.15 17.85 2.4 M20.15 3.75 L20.1 4.05 19.7 3.8 19.5 3.45 19.65 3.3 20.15 3.75 M11.3 6.15 L11.4 6.45 Q11.25 6.45 11.25 6.65 L10.95 6.65 Q10.8 6.75 10.8 6.4 L10.8 6.05 11.3 6.15 M12.95 5.7 L12.65 5.7 Q12.5 5.55 12.5 5.1 L13.05 5.15 12.95 5.7 M8.6 8.85 L8.4 8.85 8.3 8.5 8.4 8.25 8.65 8.2 8.9 8.3 8.6 8.85 M8.15 11.1 L7.95 10.8 8.4 10.85 8.15 11.1 M8.55 15.0 L8.3 15.2 7.85 15.15 7.8 14.9 8.15 14.85 8.55 15.0 M7.95 14.25 L7.5 14.1 Q7.75 13.85 8.1 13.85 L8.1 13.95 7.95 14.25 M4.4 13.95 L4.65 13.95 5.0 14.1 5.0 14.45 4.65 14.6 4.4 14.55 4.35 14.25 4.4 13.95 M4.5 17.45 L4.4 17.85 3.9 17.75 Q4.15 17.45 4.5 17.45 M4.35 20.55 Q4.2 20.55 4.2 20.7 L3.75 20.6 3.75 20.4 Q3.9 20.2 4.35 20.25 L4.35 20.55" fill="#ffffcc" fill-rule="evenodd" stroke="none"/>
    <path d="M27.75 3.9 Q28.25 5.15 28.25 6.45 28.25 9.5 27.0 11.55 25.7 13.5 23.85 14.0 L23.8 14.0 22.25 14.7 21.9 14.85 21.75 14.9 19.2 15.35 19.0 15.35 Q18.6 17.3 15.25 18.95 L14.4 19.35 Q15.4 21.35 15.4 22.85 15.4 24.95 14.45 26.05 13.45 27.15 13.4 28.0 L13.3 30.35 12.9 33.6 13.6 34.3 Q16.4 37.35 16.4 39.05 16.4 39.85 15.35 41.15 L14.0 42.8 12.35 41.55 Q11.25 43.5 10.0 43.85 L8.3 44.15 Q6.95 44.15 5.7 43.35 L4.95 42.85 Q4.0 41.95 4.0 40.75 4.0 39.9 4.35 39.1 L4.1 40.1 Q4.1 40.7 4.65 40.7 5.7 40.7 7.25 39.15 8.7 37.65 8.7 36.8 8.7 35.75 6.4 34.55 L5.95 34.3 Q4.35 33.5 3.75 33.5 L1.95 33.65 3.0 32.5 3.5 32.05 3.45 31.15 5.0 31.45 Q5.45 31.45 6.3 29.2 7.1 27.1 7.1 26.3 L7.1 25.9 5.9 24.3 6.25 19.8 8.9 17.8 Q11.55 15.6 11.55 13.9 11.55 12.7 11.1 12.15 L10.15 11.45 12.7 8.75 Q14.6 6.3 15.2 6.15 16.9 7.15 21.15 7.15 L23.85 6.8 25.75 5.95 Q27.35 5.05 27.75 3.9 M21.2 9.95 L21.6 9.6 Q21.6 9.1 21.2 8.9 21.2 9.45 20.75 9.45 L21.2 9.95 M21.3 10.95 L21.95 10.35 21.5 9.95 Q21.1 10.2 20.9 10.8 L21.3 10.95 M16.65 10.95 L16.25 10.5 Q16.25 11.0 15.8 10.95 L16.25 11.45 16.55 11.4 16.65 10.95 M15.65 9.6 L16.1 9.45 Q15.7 8.0 15.05 9.15 L15.65 9.6 M13.05 9.75 L13.5 9.95 13.8 9.9 13.95 9.45 13.5 9.15 13.05 9.75 M9.3 22.9 L8.9 22.4 Q8.9 22.95 8.45 22.9 L8.9 23.4 9.2 23.3 9.3 22.9 M15.0 15.0 L15.4 15.1 19.0 15.35 15.4 15.1 15.0 15.0 M11.7 17.45 L11.3 17.1 Q10.85 17.2 10.85 17.5 10.85 17.85 10.95 17.75 L11.3 18.0 11.6 17.85 11.7 17.45 M12.45 15.75 L12.45 16.05 12.75 16.2 13.05 15.8 12.9 15.75 12.45 15.75 M15.6 12.9 L16.05 12.75 16.1 12.45 16.05 12.15 Q15.05 12.15 15.05 12.4 L15.15 12.65 15.3 12.85 15.6 12.9 M14.4 19.35 Q12.0 20.35 10.6 20.3 12.0 20.35 14.4 19.35 M10.2 28.7 L10.65 28.35 10.2 27.75 10.0 28.1 9.8 28.15 10.2 28.7 M11.85 27.35 L11.4 26.85 11.15 27.05 10.85 27.4 11.3 27.9 11.85 27.35 M11.4 24.4 L11.3 24.15 10.4 24.0 10.35 24.35 10.5 24.75 10.85 24.8 11.3 24.75 11.4 24.4 M12.9 33.6 L12.85 33.55 12.8 34.0 12.85 33.55 12.9 33.6 M9.85 28.7 Q9.45 28.6 9.45 29.0 L9.5 29.45 10.0 29.55 10.5 29.1 Q10.15 28.75 9.85 28.7 M7.5 29.9 Q7.35 29.9 7.35 30.0 L7.4 30.3 7.65 30.3 7.7 30.0 7.5 29.9 M7.05 28.95 L7.05 29.25 Q7.35 29.25 7.4 29.1 L7.15 28.9 Q7.05 28.85 7.05 28.95 M10.2 33.5 L10.25 33.2 10.1 33.15 Q9.75 33.15 9.6 33.35 L10.2 33.5 M11.4 33.9 L11.05 33.9 11.0 34.15 11.0 34.3 11.1 34.5 11.4 34.5 11.55 34.3 11.55 34.1 11.4 33.9 M3.6 33.25 L3.5 32.05 3.6 33.25 M8.25 32.25 L8.1 31.95 7.9 31.95 7.85 32.2 7.9 32.45 8.1 32.4 8.25 32.25 M10.75 40.35 L12.35 41.55 10.75 40.35 10.3 40.8 10.75 40.35 Q11.3 39.85 12.4 38.9 11.3 39.85 10.75 40.35" fill="url(#gradient0)" fill-rule="evenodd" stroke="none"/>
    <path d="M3.45 31.15 L3.15 28.35 Q2.75 25.4 2.25 24.25 1.4 22.3 1.4 20.45 1.4 17.65 3.7 12.7 5.7 8.3 7.0 7.15 8.85 5.5 10.45 4.65 L13.0 2.9 Q14.55 1.5 18.0 0.65 L21.85 0.0 22.25 -0.2 22.4 -0.2 23.85 0.0 24.8 0.4 Q25.85 0.95 26.75 2.15 L27.75 3.9 Q28.25 5.15 28.25 6.45 28.25 9.5 27.0 11.55 25.7 13.5 23.85 14.0 L23.8 14.0 22.25 14.7 21.9 14.85 21.75 14.9 19.2 15.35 19.0 15.35 Q18.6 17.3 15.25 18.95 L14.4 19.35 Q15.4 21.35 15.4 22.85 15.4 24.95 14.45 26.05 13.45 27.15 13.4 28.0 L13.3 30.35 12.9 33.6 13.6 34.3 Q16.4 37.35 16.4 39.05 16.4 39.85 15.35 41.15 L14.0 42.8 12.35 41.55 Q11.25 43.5 10.0 43.85 L8.3 44.15 Q6.95 44.15 5.7 43.35 L5.6 43.3 4.95 42.85 3.15 41.5 2.25 40.5 1.6 39.5 1.5 39.05 1.4 38.8 0.45 38.0 Q0.0 37.3 0.0 36.65 0.0 35.9 0.4 35.35 L0.55 35.15 0.7 35.05 1.35 34.3 1.8 33.8 M1.95 33.65 L3.0 32.5 3.5 32.05 3.45 31.15 M19.0 15.35 L15.4 15.1 15.0 15.0 M10.6 20.3 Q12.0 20.35 14.4 19.35 M12.8 34.0 L12.85 33.55 12.9 33.6 M3.5 32.05 L3.6 33.25 M1.6 36.65 L1.45 36.85 Q1.3 37.2 1.3 37.6 L1.4 38.8 M6.0 36.85 L5.7 37.2 Q4.75 38.1 4.35 39.1 4.0 39.9 4.0 40.75 4.0 41.95 4.95 42.85 L5.7 43.35 M10.3 40.8 L10.75 40.35 Q11.3 39.85 12.4 38.9 M12.35 41.55 L10.75 40.35" fill="none" stroke="#6d0000" stroke-linecap="round" stroke-linejoin="round" stroke-width="1"/>
  </g>
  <defs>
    <linearGradient gradientTransform="matrix(0.0076, -0.017, 0.0096, 0.0043, 16.7, 17.45)" gradientUnits="userSpaceOnUse" id="gradient0" spreadMethod="pad" x1="-819.2" x2="819.2">
      <stop offset="0.0" stop-color="#913333"></stop>
      <stop offset="1.0" stop-color="#702121"></stop>
    </linearGradient>
  </defs>
</svg>