<?xml version="1.0" encoding="UTF-8" standalone="no"?>
<svg xmlns:xlink="http://www.w3.org/1999/xlink" height="89.45px" width="60.9px" xmlns="http://www.w3.org/2000/svg">
  <g transform="matrix(1.0, 0.0, 0.0, 1.0, 82.05, 4.35)">
    <path d="M-35.8 6.45 Q-34.4 11.15 -30.15 13.1 -35.25 13.6 -39.8 18.65 -45.65 25.35 -45.65 35.6 -45.65 45.15 -38.9 51.85 -32.7 57.95 -25.35 57.95 L-22.15 57.8 Q-23.25 58.35 -24.75 61.1 -26.35 63.85 -23.75 69.9 -24.55 68.35 -26.0 67.4 -28.65 65.55 -34.95 65.55 -46.0 65.55 -58.55 74.0 -62.25 76.5 -66.8 80.25 L-71.6 84.1 Q-63.2 75.9 -59.0 68.95 -55.35 62.8 -55.35 58.5 -55.35 51.0 -63.4 46.9 -70.5 43.25 -81.05 43.25 L-75.7 41.2 Q-71.6 39.4 -68.6 37.3 -59.65 31.0 -59.65 21.2 -59.65 15.3 -62.9 10.0 -64.7 7.2 -68.55 3.2 -65.3 5.5 -61.0 7.6 -55.1 10.3 -51.5 10.3 -43.7 10.3 -38.55 1.85 -37.0 -0.7 -36.15 -3.35 -37.3 1.8 -35.8 6.45" fill="#ffffff" fill-rule="evenodd" stroke="none"/>
  </g>
</svg>