<?xml version="1.0" encoding="UTF-8" standalone="no"?>
<svg xmlns:xlink="http://www.w3.org/1999/xlink" height="34.6px" width="27.3px" xmlns="http://www.w3.org/2000/svg">
  <g transform="matrix(1.0, 0.0, 0.0, 1.0, -0.85, 1)">
    <path d="M4.6 4.7 L6.4 4.45 6.4 3.95 4.75 2.05 3.95 0.95 Q7.05 1.7 7.85 2.15 9.55 0.65 12.05 0.1 L14.5 0.0 17.0 0.1 Q19.45 0.65 21.15 2.15 22.0 1.7 25.1 0.95 L24.3 2.05 22.65 3.95 22.65 4.45 24.9 4.7 24.65 5.35 22.1 7.75 Q20.5 8.85 19.4 8.85 L10.0 8.15 Q9.05 8.15 6.95 6.9 5.15 5.8 4.6 4.7 M24.1 8.25 L26.15 8.25 25.5 10.3 24.95 11.35 26.15 12.75 26.65 13.4 24.15 12.3 23.55 12.3 23.55 15.35 23.9 16.35 23.0 15.9 22.25 15.35 22.15 15.35 22.5 17.3 22.6 18.3 22.55 20.25 22.8 23.25 22.8 24.05 Q22.05 25.05 21.15 25.05 20.5 25.05 18.1 23.35 15.65 21.65 14.8 21.65 13.05 21.65 11.3 23.55 9.55 25.4 8.25 25.4 7.0 25.4 6.45 24.9 L6.35 24.8 6.25 23.25 6.45 18.1 6.75 17.25 6.75 15.5 4.5 15.15 4.5 14.3 5.05 13.3 5.4 12.3 2.5 13.3 3.05 12.6 4.45 11.0 3.4 9.75 2.45 8.05 3.45 8.05 3.6 8.1 3.95 8.25 5.1 10.4 Q6.15 12.8 6.6 13.1 7.1 13.4 8.65 13.95 L11.05 14.55 Q11.5 14.55 12.4 13.6 L13.65 12.6 Q15.1 12.6 16.1 13.45 17.1 14.3 17.55 14.3 L19.85 13.95 23.3 12.6 Q23.2 11.75 23.65 9.7 L24.1 8.25 M20.6 22.05 L20.6 21.65 20.05 20.75 19.7 20.45 19.55 20.35 19.45 20.2 19.05 20.05 Q18.8 20.05 18.35 20.4 17.9 20.75 17.8 21.05 18.9 21.4 19.45 22.05 L20.6 22.05 M16.95 19.85 L17.7 18.95 Q18.5 18.25 19.0 18.25 19.7 18.25 20.6 19.4 L21.45 20.8 20.6 19.4 Q19.7 18.25 19.0 18.25 18.5 18.25 17.7 18.95 L16.95 19.85 M18.1 2.6 L18.0 2.45 17.55 2.45 17.7 2.85 18.1 2.6 M19.1 3.05 L19.15 2.7 19.1 2.4 18.85 2.3 18.6 2.75 19.0 3.2 19.1 3.05 M15.35 2.1 L15.65 1.85 15.05 1.25 15.0 2.0 15.35 2.1 M15.35 3.6 L15.6 3.2 15.25 2.85 Q15.0 2.95 15.0 3.2 L15.05 3.5 15.35 3.6 M16.0 5.85 L16.65 5.75 16.7 5.45 16.65 5.25 Q16.25 4.8 16.0 4.9 15.75 5.0 15.75 5.4 L15.8 5.8 15.45 5.75 15.45 6.2 16.0 6.35 16.05 6.2 16.0 5.85 M17.55 5.55 Q17.15 5.8 17.15 6.15 L17.25 6.45 17.55 6.45 17.8 6.35 17.8 6.1 Q17.8 5.55 17.55 5.55 M19.9 5.25 L20.05 5.45 20.35 5.15 Q20.15 4.95 19.9 5.25 M18.85 6.15 L18.75 6.0 18.35 5.85 18.4 6.35 18.85 6.15 M12.05 2.6 L12.45 3.0 12.7 2.85 12.75 2.55 12.7 2.3 12.6 2.3 12.45 2.35 12.45 2.3 12.1 2.1 12.0 2.1 11.95 2.35 11.95 2.6 12.05 2.6 M10.25 2.35 L10.5 2.25 Q10.35 2.0 10.0 2.0 L10.0 2.25 10.25 2.35 M15.0 2.1 L14.55 2.1 Q14.55 2.6 14.8 2.7 L15.05 2.3 15.0 2.1 M12.2 3.9 L12.45 3.5 12.1 3.2 11.65 3.65 12.2 3.9 M11.8 4.25 L11.7 4.1 11.25 4.05 11.25 4.35 11.4 4.5 11.8 4.25 M10.9 4.9 Q10.9 5.25 11.05 5.15 L11.45 5.0 11.45 4.65 11.0 4.55 10.9 4.9 M12.3 4.95 L12.35 4.7 12.3 4.4 Q11.65 4.4 11.65 4.7 L12.05 5.1 Q12.2 5.05 12.3 4.95 M12.6 5.25 L12.45 5.25 12.45 5.35 12.25 5.55 12.45 5.7 12.55 5.65 12.85 5.7 12.95 5.55 12.95 5.3 12.85 5.3 12.9 5.25 Q12.85 5.05 12.6 5.25 M12.2 5.9 Q12.0 5.85 11.95 6.0 L11.7 6.3 11.95 6.6 12.35 6.3 12.2 5.9 M8.5 4.4 L8.8 4.5 9.2 3.6 Q8.5 3.55 8.5 4.2 L8.5 4.4 M8.4 4.35 Q8.2 4.05 8.05 4.35 L8.15 4.55 8.4 4.65 8.4 4.35 M8.4 4.7 L8.65 4.95 9.2 4.8 9.2 4.65 8.4 4.7 M8.0 18.35 L8.4 18.5 8.65 18.0 Q8.2 18.0 8.0 18.35 M9.95 16.7 L9.85 16.95 10.25 16.95 10.25 16.85 9.95 16.7 M9.2 16.85 L8.9 16.35 8.7 16.4 8.65 16.7 8.7 16.95 8.95 16.95 9.2 16.85 M12.1 19.85 L11.35 18.95 Q10.55 18.25 10.05 18.25 9.35 18.25 8.45 19.4 L7.6 20.8 8.45 19.4 Q9.35 18.25 10.05 18.25 10.55 18.25 11.35 18.95 L12.1 19.85 M8.45 22.05 L9.6 22.05 Q10.15 21.4 11.25 21.05 L10.65 20.4 10.0 20.05 Q9.75 20.05 9.6 20.2 L9.5 20.35 9.3 20.45 9.0 20.75 8.45 21.65 8.45 22.05 M15.4 16.4 L15.25 16.7 Q15.25 17.05 15.35 16.95 L15.85 16.95 15.95 16.85 16.0 16.95 Q16.4 16.95 16.4 16.65 L16.0 16.6 15.9 16.5 15.4 16.4 M16.9 15.15 L16.55 14.85 16.3 14.85 16.3 15.5 16.4 15.65 16.75 15.65 16.9 15.5 16.9 15.15 M18.35 15.45 L18.0 15.15 Q17.7 15.4 17.7 15.6 L18.1 15.75 18.35 15.45 M16.25 17.15 L16.4 17.55 16.7 17.55 16.8 17.15 16.65 16.95 16.25 17.15 M19.4 15.75 L19.7 15.95 19.8 15.9 19.8 15.6 19.4 15.5 19.4 15.75 M14.25 14.8 L14.0 14.7 13.9 14.8 13.75 15.1 13.8 15.6 14.15 15.6 14.3 15.45 14.3 15.05 14.25 14.8 M13.35 15.9 L13.35 16.35 13.65 16.35 13.65 16.25 13.55 15.9 13.35 15.9 M12.35 16.55 L12.45 16.8 12.85 16.8 13.0 16.5 12.8 16.35 12.6 16.35 12.5 16.3 Q12.35 16.35 12.35 16.55 M11.95 15.65 L11.95 15.9 Q11.95 16.25 12.05 16.2 L12.6 16.2 12.7 16.05 12.6 15.6 12.05 15.6 11.95 15.65 M10.35 14.85 L10.25 14.9 Q10.1 14.95 10.1 15.15 10.1 15.55 10.25 15.45 L10.9 15.15 10.35 14.85 M13.15 18.35 L13.0 18.15 Q12.75 18.15 12.6 18.35 L12.6 18.6 12.95 18.75 13.15 18.35 M14.2 19.55 L14.3 19.55 14.3 19.35 14.25 19.05 13.9 19.05 13.9 19.65 14.15 19.65 14.2 19.55 M14.5 19.9 L14.3 19.95 14.3 20.15 14.8 20.4 14.85 20.1 14.8 19.95 14.5 19.9 M14.4 18.35 L14.2 18.35 14.15 18.6 14.15 18.85 14.3 18.9 14.55 18.6 14.4 18.35 M17.55 21.8 Q17.55 22.15 17.7 22.05 L18.1 22.05 18.2 21.8 18.0 21.45 Q17.55 21.45 17.55 21.8" fill="#cd4747" fill-rule="evenodd" stroke="none"/>
    <path d="M22.2 9.95 Q21.15 13.2 19.1 13.2 18.4 13.2 17.75 12.6 17.15 12.05 16.8 11.05 L17.15 11.0 21.5 10.25 22.2 9.95 M12.25 11.05 L11.25 12.6 Q10.65 13.2 9.95 13.2 7.9 13.2 6.85 9.95 L7.5 10.25 11.9 11.0 12.25 11.05" fill="#ffc60b" fill-rule="evenodd" stroke="none"/>
    <path d="M20.6 22.05 L19.45 22.05 Q18.9 21.4 17.8 21.05 17.9 20.75 18.35 20.4 18.8 20.05 19.05 20.05 L19.45 20.2 19.55 20.35 19.7 20.45 20.05 20.75 20.6 21.65 20.6 22.05 M8.45 22.05 L8.45 21.65 9.0 20.75 9.3 20.45 9.5 20.35 9.6 20.2 Q9.75 20.05 10.0 20.05 L10.65 20.4 11.25 21.05 Q10.15 21.4 9.6 22.05 L8.45 22.05" fill="#742b2b" fill-rule="evenodd" stroke="none"/>
    <path d="M4.6 4.7 Q5.15 5.8 6.95 6.9 9.05 8.15 10.0 8.15 L19.4 8.85 Q20.5 8.85 22.1 7.75 L24.65 5.35 24.1 6.2 23.2 7.6 23.1 7.9 23.0 8.25 23.35 8.25 24.1 8.25 23.65 9.7 Q23.2 11.75 23.3 12.6 L19.85 13.95 17.55 14.3 Q17.1 14.3 16.1 13.45 15.1 12.6 13.65 12.6 L12.4 13.6 Q11.5 14.55 11.05 14.55 L8.65 13.95 Q7.1 13.4 6.6 13.1 6.15 12.8 5.1 10.4 L3.95 8.25 5.55 8.85 5.8 7.6 4.95 6.2 Q4.35 5.45 4.15 4.7 L4.6 4.7 M26.65 13.4 L27.15 14.1 24.85 14.3 25.4 18.15 23.75 17.6 22.6 17.2 22.6 18.3 22.5 17.3 22.15 15.35 22.25 15.35 23.0 15.9 23.9 16.35 23.55 15.35 23.55 12.3 24.15 12.3 26.65 13.4 M22.8 24.05 Q22.65 26.25 21.9 27.85 L21.75 28.15 Q20.3 31.5 17.9 32.35 L14.5 32.6 11.15 32.35 Q8.75 31.5 7.3 28.15 L7.15 27.85 Q6.5 26.5 6.35 24.8 L6.45 24.9 Q7.0 25.4 8.25 25.4 9.55 25.4 11.3 23.55 13.05 21.65 14.8 21.65 15.65 21.65 18.1 23.35 20.5 25.05 21.15 25.05 22.05 25.05 22.8 24.05 M6.45 18.1 L6.45 17.2 5.3 17.6 3.65 18.15 4.2 14.3 1.85 14.1 2.5 13.3 5.4 12.3 5.05 13.3 4.5 14.3 4.5 15.15 6.75 15.5 6.75 17.25 6.45 18.1 M22.2 9.95 L22.65 9.35 23.0 8.25 22.65 9.35 22.2 9.95 21.5 10.25 17.15 11.0 16.8 11.05 Q17.15 12.05 17.75 12.6 18.4 13.2 19.1 13.2 21.15 13.2 22.2 9.95 M12.25 11.05 L14.7 11.35 16.8 11.05 14.7 11.35 12.25 11.05 11.9 11.0 7.5 10.25 6.85 9.95 Q7.9 13.2 9.95 13.2 10.65 13.2 11.25 12.6 L12.25 11.05 M5.8 7.6 L5.9 7.9 6.4 9.35 6.85 9.95 6.4 9.35 5.9 7.9 5.8 7.6 M21.75 28.15 Q21.05 29.65 20.1 29.65 19.7 29.65 17.45 27.55 15.65 25.8 14.5 25.5 13.35 25.8 11.6 27.55 L8.95 29.65 Q8.0 29.65 7.3 28.15 8.0 29.65 8.95 29.65 L11.6 27.55 Q13.35 25.8 14.5 25.5 15.65 25.8 17.45 27.55 19.7 29.65 20.1 29.65 21.05 29.65 21.75 28.15" fill="#913333" fill-rule="evenodd" stroke="none"/>
    <path d="M12.45 2.35 L12.6 2.3 12.7 2.3 12.75 2.55 12.7 2.85 12.45 3.0 12.05 2.6 12.2 2.6 12.45 2.35 M10.9 4.9 L11.0 4.55 11.45 4.65 11.45 5.0 11.05 5.15 Q10.9 5.25 10.9 4.9" fill="#b84a4a" fill-rule="evenodd" stroke="none"/>
    <path d="M19.1 3.05 L19.0 3.2 18.6 2.75 18.85 2.3 19.1 2.4 19.15 2.7 19.1 3.05 M15.35 3.6 L15.05 3.5 15.0 3.2 Q15.0 2.95 15.25 2.85 L15.6 3.2 15.35 3.6 M15.8 5.8 L16.0 5.85 16.05 6.2 16.0 6.35 15.45 6.2 15.45 5.75 15.8 5.8 M19.9 5.25 Q20.15 4.95 20.35 5.15 L20.05 5.45 19.9 5.25 M12.05 2.6 L11.95 2.6 11.95 2.35 12.0 2.1 12.1 2.1 12.45 2.3 12.45 2.35 12.2 2.6 12.05 2.6 M11.8 4.25 L11.4 4.5 11.25 4.35 11.25 4.05 11.7 4.1 11.8 4.25 M12.2 5.9 L12.35 6.3 11.95 6.6 11.7 6.3 11.95 6.0 Q12.0 5.85 12.2 5.9 M8.4 4.35 L8.4 4.65 8.15 4.55 8.05 4.35 Q8.2 4.05 8.4 4.35 M16.25 17.15 L16.65 16.95 16.8 17.15 16.7 17.55 16.4 17.55 16.25 17.15 M14.25 14.8 L14.3 15.05 14.3 15.45 14.15 15.6 13.8 15.6 13.75 15.1 13.9 14.8 14.0 14.7 14.25 14.8 M13.15 18.35 L12.95 18.75 12.6 18.6 12.6 18.35 Q12.75 18.15 13.0 18.15 L13.15 18.35" fill="#ffffcc" fill-rule="evenodd" stroke="none"/>
    <path d="M15.35 2.1 L15.0 2.0 15.05 1.25 15.65 1.85 15.35 2.1 M16.0 5.85 L15.8 5.8 15.75 5.4 Q15.75 5.0 16.0 4.9 16.25 4.8 16.65 5.25 L16.7 5.45 16.65 5.75 16.0 5.85 M17.55 5.55 Q17.8 5.55 17.8 6.1 L17.8 6.35 17.55 6.45 17.25 6.45 17.15 6.15 Q17.15 5.8 17.55 5.55 M12.2 3.9 L11.65 3.65 12.1 3.2 12.45 3.5 12.2 3.9" fill="#de5353" fill-rule="evenodd" stroke="none"/>
    <path d="M18.1 2.6 L17.7 2.85 17.55 2.45 18.0 2.45 18.1 2.6 M18.85 6.15 L18.4 6.35 18.35 5.85 18.75 6.0 18.85 6.15 M15.0 2.1 L15.05 2.3 14.8 2.7 Q14.55 2.6 14.55 2.1 L15.0 2.1 M10.25 2.35 L10.0 2.25 10.0 2.0 Q10.35 2.0 10.5 2.25 L10.25 2.35 M12.6 5.25 Q12.85 5.05 12.9 5.25 L12.85 5.3 12.95 5.3 12.95 5.55 12.85 5.7 12.55 5.65 12.45 5.7 12.25 5.55 12.45 5.35 12.45 5.25 12.6 5.25 M12.3 4.95 Q12.2 5.05 12.05 5.1 L11.65 4.7 Q11.65 4.4 12.3 4.4 L12.35 4.7 12.3 4.95 M8.5 4.4 L8.5 4.2 Q8.5 3.55 9.2 3.6 L8.8 4.5 8.5 4.4 M8.4 4.7 L9.2 4.65 9.2 4.8 8.65 4.95 8.4 4.7 M9.2 16.85 L8.95 16.95 8.7 16.95 8.65 16.7 8.7 16.4 8.9 16.35 9.2 16.85 M9.95 16.7 L10.25 16.85 10.25 16.95 9.85 16.95 9.95 16.7 M8.0 18.35 Q8.2 18.0 8.65 18.0 L8.4 18.5 8.0 18.35 M18.35 15.45 L18.1 15.75 17.7 15.6 Q17.7 15.4 18.0 15.15 L18.35 15.45 M16.9 15.15 L16.9 15.5 16.75 15.65 16.4 15.65 16.3 15.5 16.3 14.85 16.55 14.85 16.9 15.15 M15.4 16.4 L15.9 16.5 16.0 16.6 16.4 16.65 Q16.4 16.95 16.0 16.95 L15.95 16.85 15.85 16.95 15.35 16.95 Q15.25 17.05 15.25 16.7 L15.4 16.4 M19.4 15.75 L19.4 15.5 19.8 15.6 19.8 15.9 19.7 15.95 19.4 15.75 M10.35 14.85 L10.9 15.15 10.25 15.45 Q10.1 15.55 10.1 15.15 10.1 14.95 10.25 14.9 L10.35 14.85 M11.95 15.65 L12.05 15.6 12.6 15.6 12.7 16.05 12.6 16.2 12.05 16.2 Q11.95 16.25 11.95 15.9 L11.95 15.65 M12.35 16.55 Q12.35 16.35 12.5 16.3 L12.6 16.35 12.8 16.35 13.0 16.5 12.85 16.8 12.45 16.8 12.35 16.55 M13.35 15.9 L13.55 15.9 13.65 16.25 13.65 16.35 13.35 16.35 13.35 15.9 M14.4 18.35 L14.55 18.6 14.3 18.9 14.15 18.85 14.15 18.6 14.2 18.35 14.4 18.35 M14.5 19.9 L14.8 19.95 14.85 20.1 14.8 20.4 14.3 20.15 14.3 19.95 14.5 19.9 M14.2 19.55 L14.15 19.65 13.9 19.65 13.9 19.05 14.25 19.05 14.3 19.35 14.3 19.55 14.2 19.55 M17.55 21.8 Q17.55 21.45 18.0 21.45 L18.2 21.8 18.1 22.05 17.7 22.05 Q17.55 22.15 17.55 21.8" fill="#ee6060" fill-rule="evenodd" stroke="none"/>
    <path d="M24.65 5.35 L24.9 4.7 22.65 4.45 22.65 3.95 24.3 2.05 25.1 0.95 Q22.0 1.7 21.15 2.15 19.45 0.65 17.0 0.1 L14.5 0.0 12.05 0.1 Q9.55 0.65 7.85 2.15 7.05 1.7 3.95 0.95 L4.75 2.05 6.4 3.95 6.4 4.45 4.6 4.7 4.15 4.7 Q4.35 5.45 4.95 6.2 L5.8 7.6 5.55 8.85 3.95 8.25 M24.65 5.35 L24.1 6.2 23.2 7.6 23.35 8.25 24.1 8.25 26.15 8.25 25.5 10.3 24.95 11.35 26.15 12.75 26.65 13.4 27.15 14.1 24.85 14.3 25.4 18.15 23.75 17.6 22.6 17.2 22.6 18.3 22.55 20.25 22.8 23.25 22.8 24.05 Q22.65 26.25 21.9 27.85 L21.75 28.15 Q20.3 31.5 17.9 32.35 L14.5 32.6 11.15 32.35 Q8.75 31.5 7.3 28.15 L7.15 27.85 Q6.5 26.5 6.35 24.8 L6.25 23.25 6.45 18.1 6.45 17.2 5.3 17.6 3.65 18.15 4.2 14.3 1.85 14.1 2.5 13.3 3.05 12.6 4.45 11.0 3.4 9.75 2.45 8.05 3.45 8.05 3.6 8.1 M23.2 7.6 L23.1 7.9 23.0 8.25 23.35 8.25 M23.0 8.25 L22.65 9.35 22.2 9.95 21.5 10.25 17.15 11.0 16.8 11.05 14.7 11.35 12.25 11.05 11.9 11.0 7.5 10.25 6.85 9.95 6.4 9.35 5.9 7.9 5.8 7.6 M21.45 20.8 L20.6 19.4 Q19.7 18.25 19.0 18.25 18.5 18.25 17.7 18.95 L16.95 19.85 M7.6 20.8 L8.45 19.4 Q9.35 18.25 10.05 18.25 10.55 18.25 11.35 18.95 L12.1 19.85 M7.3 28.15 Q8.0 29.65 8.95 29.65 L11.6 27.55 Q13.35 25.8 14.5 25.5 15.65 25.8 17.45 27.55 19.7 29.65 20.1 29.65 21.05 29.65 21.75 28.15" fill="none" stroke="#6d0000" stroke-linecap="round" stroke-linejoin="round" stroke-width="1"/>
  </g>
</svg>