<?xml version="1.0" encoding="UTF-8" standalone="no"?>
<svg xmlns:xlink="http://www.w3.org/1999/xlink" height="47.5px" width="36.9px" xmlns="http://www.w3.org/2000/svg">
  <g transform="matrix(1.0, 0.0, 0.0, 1.0, 5.9, 9.65)">
    <path d="M9.2 -5.55 L9.75 -5.4 9.65 -4.85 8.85 -4.6 8.95 -4.75 9.2 -5.2 9.2 -5.55 M11.05 -4.8 L11.2 -4.95 12.35 -4.35 11.75 -4.2 Q11.6 -4.7 11.05 -4.8 M17.0 -2.2 L17.4 -2.15 17.45 -2.0 17.25 -1.65 16.7 -1.7 16.65 -1.95 17.0 -2.2 M22.15 5.4 L22.25 5.9 22.1 6.4 21.6 6.85 20.8 6.6 20.6 6.3 Q20.6 5.8 20.85 5.55 21.25 5.1 22.15 5.4 M20.5 8.25 Q20.95 7.65 21.8 8.0 L21.85 8.5 21.55 9.25 20.9 9.7 20.25 9.05 20.5 8.25 M20.6 10.15 L20.1 11.0 Q19.2 10.6 19.2 10.45 19.2 9.35 20.5 9.7 L20.6 10.15 M22.5 14.3 L22.2 14.75 Q21.55 15.0 21.55 14.5 21.55 14.2 21.8 14.15 L22.25 14.15 22.5 14.3 M23.25 16.9 L22.9 17.3 22.25 17.1 Q22.55 16.55 23.15 16.55 L23.25 16.9 M17.8 0.9 L17.2 0.85 Q17.05 1.05 17.05 0.55 17.05 0.15 17.7 -0.2 L18.2 0.25 17.8 0.9 M18.95 4.0 Q18.8 4.15 18.8 3.65 18.8 3.25 19.5 2.95 L19.95 3.2 19.55 4.05 18.95 4.0 M19.9 11.6 L20.0 12.05 19.7 12.55 19.8 12.65 19.9 13.05 19.7 13.55 19.15 13.85 18.35 13.8 18.25 13.3 Q18.25 12.8 18.6 12.65 L18.55 12.6 18.45 12.5 18.4 12.15 Q18.4 11.05 19.8 11.4 L19.9 11.6 M11.85 18.5 L11.25 19.35 Q10.35 18.95 10.35 18.7 10.35 18.35 10.7 18.1 L11.75 18.05 11.85 18.5 M13.65 16.75 L14.15 17.2 13.5 17.75 13.15 17.7 13.05 17.3 13.25 16.9 13.65 16.75 M19.8 20.05 L20.0 20.4 19.3 20.65 Q18.8 20.75 18.95 20.55 19.4 19.8 19.8 20.05 M16.9 21.45 L16.55 21.85 16.3 21.6 16.55 21.3 Q16.65 21.2 16.9 21.45 M16.05 19.1 Q16.7 18.9 16.7 18.4 17.0 18.5 17.15 19.0 L16.75 19.5 16.25 19.5 16.1 19.45 16.05 19.1" fill="#b84a4a" fill-rule="evenodd" stroke="none"/>
    <path d="M7.3 -1.65 Q7.3 -1.4 6.75 -0.85 5.85 -1.25 5.85 -1.4 5.85 -1.85 6.2 -2.1 L7.2 -2.15 7.3 -1.65 M12.25 -1.7 L12.15 -1.05 Q12.1 -0.8 11.6 -0.8 10.85 -0.8 10.75 -1.2 L10.4 -0.85 9.45 -1.3 Q9.45 -2.2 10.75 -1.65 10.9 -2.55 12.15 -2.2 L12.25 -1.7 M14.75 6.95 Q14.55 7.5 14.0 7.5 L13.75 7.45 13.55 7.35 Q13.45 7.5 13.45 7.0 13.45 5.85 14.65 6.3 L14.75 6.95 M6.55 1.05 L6.7 1.35 6.65 1.95 6.35 2.3 5.7 2.3 Q5.55 2.45 5.55 1.95 5.55 1.55 6.15 1.0 L6.55 1.05 M2.0 11.4 L1.15 12.0 0.9 11.95 0.85 11.6 Q0.85 11.25 1.85 11.05 L2.0 11.4 M7.2 9.45 L6.25 9.7 5.7 9.6 Q5.55 9.55 5.55 9.05 5.55 8.45 6.35 8.3 7.2 8.15 7.6 8.9 L7.2 9.45 M8.4 15.35 L7.8 14.8 Q7.8 13.8 8.55 13.8 9.3 13.8 9.3 14.55 9.3 15.05 8.4 15.35 M6.35 13.1 Q6.35 12.35 7.55 12.2 L7.6 12.8 Q7.6 13.45 6.9 13.55 L6.5 13.45 6.35 13.1 M1.45 12.65 Q1.45 11.55 2.8 11.9 L2.9 12.4 2.35 13.2 Q1.45 12.8 1.45 12.65 M-1.05 15.35 L-0.8 15.65 -0.95 16.15 Q-1.2 16.15 -1.3 16.35 L-1.8 16.25 -1.95 15.85 Q-1.95 15.45 -1.65 15.35 -1.35 15.2 -1.05 15.35" fill="#913333" fill-rule="evenodd" stroke="none"/>
    <path d="M7.15 16.1 L7.1 15.85 7.35 15.5 Q7.65 15.25 8.0 15.25 L8.05 15.2 8.1 15.5 8.05 15.9 7.55 16.15 7.5 16.15 7.15 16.1 M4.45 0.85 L3.7 0.6 3.65 0.35 4.35 -0.4 4.9 0.05 4.85 0.55 4.45 0.85 M1.35 3.55 L1.3 3.3 Q1.6 3.0 2.0 3.0 L2.05 3.35 1.65 3.7 1.35 3.55 M2.45 4.1 L3.15 4.25 3.25 4.4 Q2.95 4.7 2.65 4.7 L2.4 4.55 2.45 4.1 M3.95 4.6 L4.1 5.25 3.5 6.05 Q2.55 5.7 2.55 5.5 2.55 5.1 2.9 4.75 3.3 4.3 3.95 4.6 M1.5 14.05 L1.2 14.5 0.75 14.45 0.5 14.1 Q0.9 13.6 1.4 13.7 L1.5 14.05 M5.55 19.5 L6.0 19.9 5.6 20.4 5.1 20.4 4.95 20.1 5.1 19.75 Q5.25 19.45 5.55 19.5 M6.2 23.15 Q5.95 23.5 5.55 23.5 L5.15 23.45 5.15 23.35 5.75 22.55 6.2 22.85 6.2 23.15 M11.35 22.8 L11.8 23.2 11.2 23.75 10.85 23.75 10.75 23.4 Q10.75 23.05 11.05 22.95 L11.35 22.8 M0.25 12.85 L-0.15 12.55 Q0.3 12.2 0.75 12.25 L0.25 12.85 M-0.2 6.05 L0.0 6.35 -0.05 6.55 -0.85 6.7 Q-1.0 6.95 -1.0 6.45 L-0.75 6.05 -0.2 6.05 M-0.9 3.0 L-0.5 3.3 Q-0.75 3.9 -1.35 4.2 L-1.6 4.05 -1.75 3.65 -1.55 3.15 -0.9 3.0 M-1.4 7.8 Q-1.1 7.6 -1.1 7.25 L-0.7 7.85 -1.1 8.35 -1.6 8.35 -1.75 8.0 -1.4 7.8 M-2.5 9.2 L-3.0 9.2 -3.15 9.15 -3.2 8.8 -3.05 8.55 -2.6 8.3 -2.2 8.55 -2.2 8.9 -2.5 9.2" fill="#ffffcc" fill-rule="evenodd" stroke="none"/>
    <path d="M3.9 -5.3 L6.8 -5.75 8.05 -5.7 Q7.7 -5.5 7.7 -4.9 L8.6 -4.35 Q8.35 -4.1 8.35 -3.65 8.35 -3.1 9.2 -3.1 9.9 -3.25 10.15 -3.75 L10.25 -3.45 Q10.5 -3.0 10.95 -3.0 L11.1 -3.0 11.1 -2.9 11.2 -2.55 11.25 -2.45 11.95 -2.35 12.85 -2.65 12.9 -2.65 12.95 -2.55 12.8 -2.1 12.9 -1.6 13.6 -1.45 Q14.2 -1.75 14.45 -2.1 L14.65 -2.25 15.15 -1.5 15.05 -1.55 Q14.0 -1.65 14.0 -0.75 L14.2 -0.35 14.45 -0.05 14.25 0.05 Q13.7 0.35 13.45 0.85 L14.05 1.3 14.6 1.55 14.8 1.55 14.85 1.85 15.45 2.0 Q16.3 2.0 16.4 1.2 L17.0 3.55 Q16.05 3.45 16.05 4.5 L16.1 4.85 15.65 4.85 Q14.95 5.15 14.75 6.3 15.1 6.65 15.7 6.65 L16.35 5.75 16.15 4.9 16.2 4.85 16.95 5.1 17.25 5.0 17.25 5.35 18.3 5.5 18.35 5.85 18.25 6.35 17.35 6.5 17.45 9.0 17.45 9.6 17.35 9.4 17.25 9.3 Q16.45 9.0 16.1 9.45 L15.95 9.95 16.05 10.35 16.3 10.45 Q17.2 10.5 17.4 10.05 17.15 12.15 15.95 14.05 L15.95 14.0 Q14.5 13.55 14.5 14.9 14.5 15.4 14.65 15.4 L14.9 15.45 14.7 15.65 14.2 16.2 14.15 16.05 14.05 15.95 13.6 15.85 13.6 15.75 13.5 15.35 Q12.85 15.35 12.4 15.75 L12.15 16.1 11.35 16.3 10.75 15.9 Q10.05 15.4 9.5 15.4 L9.45 15.85 9.55 16.4 9.05 16.3 8.55 16.35 7.55 16.15 8.05 15.9 8.1 15.5 8.05 15.2 8.0 15.25 Q7.65 15.25 7.35 15.5 L7.1 15.85 7.15 16.1 6.75 16.05 6.75 15.8 6.7 15.45 6.6 15.35 5.1 15.4 4.2 15.3 Q3.95 15.4 3.85 15.65 L3.75 15.3 2.8 15.4 Q2.45 15.7 2.45 16.15 L2.5 16.2 2.45 16.2 Q1.25 16.45 0.25 16.95 L-0.4 16.85 Q-1.35 16.9 -1.35 17.75 L-1.35 18.0 Q-2.7 19.2 -2.7 20.85 L-2.45 22.6 Q-6.8 15.35 -3.4 5.7 -0.9 -1.45 3.9 -5.3 M7.3 -1.65 L7.2 -2.15 6.2 -2.1 Q5.85 -1.85 5.85 -1.4 5.85 -1.25 6.75 -0.85 7.3 -1.4 7.3 -1.65 M12.25 -1.7 L12.15 -2.2 Q10.9 -2.55 10.75 -1.65 9.45 -2.2 9.45 -1.3 L10.4 -0.85 10.75 -1.2 Q10.85 -0.8 11.6 -0.8 12.1 -0.8 12.15 -1.05 L12.25 -1.7 M14.75 6.95 L14.65 6.3 Q13.45 5.85 13.45 7.0 13.45 7.5 13.55 7.35 L13.75 7.45 14.0 7.5 Q14.55 7.5 14.75 6.95 M6.55 1.05 L6.15 1.0 Q5.55 1.55 5.55 1.95 5.55 2.45 5.7 2.3 L6.35 2.3 6.65 1.95 6.7 1.35 6.55 1.05 M3.95 4.6 Q3.3 4.3 2.9 4.75 2.55 5.1 2.55 5.5 2.55 5.7 3.5 6.05 L4.1 5.25 3.95 4.6 M2.45 4.1 L2.4 4.55 2.65 4.7 Q2.95 4.7 3.25 4.4 L3.15 4.25 2.45 4.1 M1.35 3.55 L1.65 3.7 2.05 3.35 2.0 3.0 Q1.6 3.0 1.3 3.3 L1.35 3.55 M4.45 0.85 L4.85 0.55 4.9 0.05 4.35 -0.4 3.65 0.35 3.7 0.6 4.45 0.85 M1.45 12.65 Q1.45 12.8 2.35 13.2 L2.9 12.4 2.8 11.9 Q1.45 11.55 1.45 12.65 M6.35 13.1 L6.5 13.45 6.9 13.55 Q7.6 13.45 7.6 12.8 L7.55 12.2 Q6.35 12.35 6.35 13.1 M8.4 15.35 Q9.3 15.05 9.3 14.55 9.3 13.8 8.55 13.8 7.8 13.8 7.8 14.8 L8.4 15.35 M7.2 9.45 L7.6 8.9 Q7.2 8.15 6.35 8.3 5.55 8.45 5.55 9.05 5.55 9.55 5.7 9.6 L6.25 9.7 7.2 9.45 M2.0 11.4 L1.85 11.05 Q0.85 11.25 0.85 11.6 L0.9 11.95 1.15 12.0 2.0 11.4 M1.5 14.05 L1.4 13.7 Q0.9 13.6 0.5 14.1 L0.75 14.45 1.2 14.5 1.5 14.05 M-2.5 9.2 L-2.2 8.9 -2.2 8.55 -2.6 8.3 -3.05 8.55 -3.2 8.8 -3.15 9.15 -3.0 9.2 -2.5 9.2 M-1.4 7.8 L-1.75 8.0 -1.6 8.35 -1.1 8.35 -0.7 7.85 -1.1 7.25 Q-1.1 7.6 -1.4 7.8 M-0.9 3.0 L-1.55 3.15 -1.75 3.65 -1.6 4.05 -1.35 4.2 Q-0.75 3.9 -0.5 3.3 L-0.9 3.0 M-0.2 6.05 L-0.75 6.05 -1.0 6.45 Q-1.0 6.95 -0.85 6.7 L-0.05 6.55 0.0 6.35 -0.2 6.05 M0.25 12.85 L0.75 12.25 Q0.3 12.2 -0.15 12.55 L0.25 12.85 M-1.05 15.35 Q-1.35 15.2 -1.65 15.35 -1.95 15.45 -1.95 15.85 L-1.8 16.25 -1.3 16.35 Q-1.2 16.15 -0.95 16.15 L-0.8 15.65 -1.05 15.35" fill="url(#gradient0)" fill-rule="evenodd" stroke="none"/>
    <path d="M9.2 -5.55 L9.2 -5.2 8.95 -4.75 8.85 -4.6 9.65 -4.85 9.75 -5.4 9.2 -5.55 M7.55 16.15 L8.55 16.35 9.05 16.3 9.55 16.4 9.45 15.85 9.5 15.4 Q10.05 15.4 10.75 15.9 L11.35 16.3 12.15 16.1 12.4 15.75 Q12.85 15.35 13.5 15.35 L13.6 15.75 13.6 15.85 14.05 15.95 14.15 16.05 14.2 16.2 14.7 15.65 14.9 15.45 14.65 15.4 Q14.5 15.4 14.5 14.9 14.5 13.55 15.95 14.0 L15.95 14.05 Q17.15 12.15 17.4 10.05 17.2 10.5 16.3 10.45 L16.05 10.35 15.95 9.95 16.1 9.45 Q16.45 9.0 17.25 9.3 L17.35 9.4 17.45 9.6 17.45 9.0 17.35 6.5 18.25 6.35 18.35 5.85 18.3 5.5 17.25 5.35 17.25 5.0 16.95 5.1 16.2 4.85 16.15 4.9 16.35 5.75 15.7 6.65 Q15.1 6.65 14.75 6.3 14.95 5.15 15.65 4.85 L16.1 4.85 16.05 4.5 Q16.05 3.45 17.0 3.55 L16.4 1.2 Q16.3 2.0 15.45 2.0 L14.85 1.85 14.8 1.55 14.6 1.55 14.05 1.3 13.45 0.85 Q13.7 0.35 14.25 0.05 L14.45 -0.05 14.2 -0.35 14.0 -0.75 Q14.0 -1.65 15.05 -1.55 L15.15 -1.5 14.65 -2.25 14.45 -2.1 Q14.2 -1.75 13.6 -1.45 L12.9 -1.6 12.8 -2.1 12.95 -2.55 12.9 -2.65 12.85 -2.65 11.95 -2.35 11.25 -2.45 11.2 -2.55 11.1 -2.9 11.1 -3.0 10.95 -3.0 Q10.5 -3.0 10.25 -3.45 L10.15 -3.75 Q9.9 -3.25 9.2 -3.1 8.35 -3.1 8.35 -3.65 8.35 -4.1 8.6 -4.35 L7.7 -4.9 Q7.7 -5.5 8.05 -5.7 L6.8 -5.75 3.9 -5.3 Q5.9 -6.95 8.35 -8.0 17.65 -10.15 23.2 -5.45 24.5 -3.7 25.7 -0.65 26.95 2.4 27.35 5.65 L27.15 13.6 Q26.85 20.55 27.05 21.55 27.25 22.65 28.0 24.1 32.7 30.65 26.25 35.5 24.1 36.85 22.9 36.85 19.05 36.85 14.55 35.0 11.1 33.65 7.35 31.45 1.75 28.15 -1.0 24.75 L-2.45 22.6 -2.7 20.85 Q-2.7 19.2 -1.35 18.0 L-1.35 17.75 Q-1.35 16.9 -0.4 16.85 L0.25 16.95 Q1.25 16.45 2.45 16.2 L2.5 16.2 2.45 16.15 Q2.45 15.7 2.8 15.4 L3.75 15.3 3.85 15.65 Q3.95 15.4 4.2 15.3 L5.1 15.4 6.6 15.35 6.7 15.45 6.75 15.8 6.75 16.05 7.15 16.1 7.5 16.15 7.55 16.15 M11.05 -4.8 Q11.6 -4.7 11.75 -4.2 L12.35 -4.35 11.2 -4.95 11.05 -4.8 M18.95 4.0 L19.55 4.05 19.95 3.2 19.5 2.95 Q18.8 3.25 18.8 3.65 18.8 4.15 18.95 4.0 M17.8 0.9 L18.2 0.25 17.7 -0.2 Q17.05 0.15 17.05 0.55 17.05 1.05 17.2 0.85 L17.8 0.9 M23.25 16.9 L23.15 16.55 Q22.55 16.55 22.25 17.1 L22.9 17.3 23.25 16.9 M22.5 14.3 L22.25 14.15 21.8 14.15 Q21.55 14.2 21.55 14.5 21.55 15.0 22.2 14.75 L22.5 14.3 M20.6 10.15 L20.5 9.7 Q19.2 9.35 19.2 10.45 19.2 10.6 20.1 11.0 L20.6 10.15 M20.5 8.25 L20.25 9.05 20.9 9.7 21.55 9.25 21.85 8.5 21.8 8.0 Q20.95 7.65 20.5 8.25 M22.15 5.4 Q21.25 5.1 20.85 5.55 20.6 5.8 20.6 6.3 L20.8 6.6 21.6 6.85 22.1 6.4 22.25 5.9 22.15 5.4 M17.0 -2.2 L16.65 -1.95 16.7 -1.7 17.25 -1.65 17.45 -2.0 17.4 -2.15 17.0 -2.2 M19.9 11.6 L19.8 11.4 Q18.4 11.05 18.4 12.15 L18.45 12.5 18.55 12.6 18.6 12.65 Q18.25 12.8 18.25 13.3 L18.35 13.8 19.15 13.85 19.7 13.55 19.9 13.05 19.8 12.65 19.7 12.55 20.0 12.05 19.9 11.6 M6.2 23.15 L6.2 22.85 5.75 22.55 5.15 23.35 5.15 23.45 5.55 23.5 Q5.95 23.5 6.2 23.15 M5.55 19.5 Q5.25 19.45 5.1 19.75 L4.95 20.1 5.1 20.4 5.6 20.4 6.0 19.9 5.55 19.5 M13.65 16.75 L13.25 16.9 13.05 17.3 13.15 17.7 13.5 17.75 14.15 17.2 13.65 16.75 M11.85 18.5 L11.75 18.05 10.7 18.1 Q10.35 18.35 10.35 18.7 10.35 18.95 11.25 19.35 L11.85 18.5 M11.35 22.8 L11.05 22.95 Q10.75 23.05 10.75 23.4 L10.85 23.75 11.2 23.75 11.8 23.2 11.35 22.8 M16.05 19.1 L16.1 19.45 16.25 19.5 16.75 19.5 17.15 19.0 Q17.0 18.5 16.7 18.4 16.7 18.9 16.05 19.1 M16.9 21.45 Q16.65 21.2 16.55 21.3 L16.3 21.6 16.55 21.85 16.9 21.45 M19.8 20.05 Q19.4 19.8 18.95 20.55 18.8 20.75 19.3 20.65 L20.0 20.4 19.8 20.05" fill="url(#gradient1)" fill-rule="evenodd" stroke="none"/>
    <path d="M3.9 -5.3 Q-0.9 -1.45 -3.4 5.7 -6.8 15.35 -2.45 22.6 L-1.0 24.75 Q1.75 28.15 7.35 31.45 11.1 33.65 14.55 35.0 19.05 36.85 22.9 36.85 24.1 36.85 26.25 35.5 M3.9 -5.3 Q5.9 -6.95 8.35 -8.0 M23.2 -5.45 Q24.5 -3.7 25.7 -0.65 26.95 2.4 27.35 5.65 L27.15 13.6 Q26.85 20.55 27.05 21.55 27.25 22.65 28.0 24.1" fill="none" stroke="#6d0000" stroke-linecap="round" stroke-linejoin="round" stroke-width="1"/>
  </g>
  <defs>
    <linearGradient gradientTransform="matrix(-0.0057, 0.0, 0.0, -0.0173, 9.85, 8.45)" gradientUnits="userSpaceOnUse" id="gradient0" spreadMethod="pad" x1="-819.2" x2="819.2">
      <stop offset="0.0" stop-color="#b84a4a"></stop>
      <stop offset="1.0" stop-color="#cd4747"></stop>
    </linearGradient>
    <linearGradient gradientTransform="matrix(0.0176, -0.0143, 0.0274, 0.0337, 30.05, 19.25)" gradientUnits="userSpaceOnUse" id="gradient1" spreadMethod="pad" x1="-819.2" x2="819.2">
      <stop offset="0.0" stop-color="#913333"></stop>
      <stop offset="1.0" stop-color="#702121"></stop>
    </linearGradient>
  </defs>
</svg>