<?xml version="1.0" encoding="UTF-8" standalone="no"?>
<svg xmlns:xlink="http://www.w3.org/1999/xlink" height="44.9px" width="23.55px" xmlns="http://www.w3.org/2000/svg">
  <g transform="matrix(1.0, 0.0, 0.0, 1.0, 1, 1)">
    <path d="M15.95 36.75 L16.1 37.45 15.85 37.5 15.95 36.75 M4.25 41.0 Q3.0 39.55 2.85 36.85 L2.8 36.0 3.35 32.2 4.6 33.75 4.9 34.05 5.5 32.55 Q6.9 28.65 7.7 27.05 L7.8 26.8 8.0 26.5 8.25 26.4 Q9.55 25.05 11.3 24.55 9.5 26.95 7.1 32.95 5.5 37.1 4.25 41.0 M0.3 23.55 Q0.0 21.2 0.0 18.55 0.0 13.05 1.6 8.6 2.1 7.2 2.75 6.05 3.3 5.55 4.15 5.55 5.25 5.55 5.55 7.15 L5.75 10.05 5.4 13.6 5.05 16.0 5.55 16.9 5.75 17.3 Q5.5 18.8 3.9 21.1 2.15 23.65 1.35 23.65 L0.3 23.55 M7.8 26.8 L8.25 26.4 7.8 26.8" fill="#c04848" fill-rule="evenodd" stroke="none"/>
    <path d="M12.15 5.15 L16.75 11.2 Q20.55 16.8 21.55 20.85 L16.1 25.0 16.65 25.65 Q17.55 26.9 17.55 28.35 17.55 29.55 16.6 33.2 16.15 34.9 15.95 36.75 L15.85 37.5 16.1 37.45 Q16.35 40.15 15.8 41.4 L15.3 42.0 Q14.3 42.9 10.0 42.9 6.35 42.9 4.6 41.35 L4.25 41.0 Q5.5 37.1 7.1 32.95 9.5 26.95 11.3 24.55 9.55 25.05 8.25 26.4 L8.0 26.5 7.8 26.8 7.7 27.05 Q6.9 28.65 5.5 32.55 L4.9 34.05 4.6 33.75 3.35 32.2 Q2.3 30.65 1.55 28.7 0.75 26.6 0.4 24.05 1.55 25.5 2.6 25.5 4.0 25.5 4.85 23.35 L5.85 21.05 6.9 19.4 11.95 15.8 Q14.9 13.65 14.9 11.15 14.9 9.45 14.2 8.15 L12.15 5.15 M11.3 24.55 L13.85 24.15 Q15.15 24.15 16.1 25.0 15.15 24.15 13.85 24.15 L11.3 24.55" fill="#913333" fill-rule="evenodd" stroke="none"/>
    <path d="M0.4 24.05 L0.3 23.55 1.35 23.65 Q2.15 23.65 3.9 21.1 5.5 18.8 5.75 17.3 L5.55 16.9 5.05 16.0 5.4 13.6 5.75 10.05 5.55 7.15 Q5.25 5.55 4.15 5.55 3.3 5.55 2.75 6.05 L3.8 4.3 4.3 3.65 Q5.6 1.5 6.45 0.55 6.9 0.05 7.45 0.0 L12.15 5.15 14.2 8.15 Q14.9 9.45 14.9 11.15 14.9 13.65 11.95 15.8 L6.9 19.4 5.85 21.05 4.85 23.35 Q4.0 25.5 2.6 25.5 1.55 25.5 0.4 24.05" fill="#a33d3d" fill-rule="evenodd" stroke="none"/>
    <path d="M12.15 5.15 L16.75 11.2 Q20.55 16.8 21.55 20.85 L16.1 25.0 16.65 25.65 Q17.55 26.9 17.55 28.35 17.55 29.55 16.6 33.2 16.15 34.9 15.95 36.75 L16.1 37.45 Q16.35 40.15 15.8 41.4 L15.3 42.0 Q14.3 42.9 10.0 42.9 6.35 42.9 4.6 41.35 L4.25 41.0 Q3.0 39.55 2.85 36.85 L2.8 36.0 3.35 32.2 Q2.3 30.65 1.55 28.7 0.75 26.6 0.4 24.05 L0.3 23.55 Q0.0 21.2 0.0 18.55 0.0 13.05 1.6 8.6 2.1 7.2 2.75 6.05 L3.8 4.3 4.3 3.65 Q5.6 1.5 6.45 0.55 6.9 0.05 7.45 0.0 L12.15 5.15 M16.1 25.0 Q15.15 24.15 13.85 24.15 L11.3 24.55 Q9.55 25.05 8.25 26.4 L7.8 26.8 8.0 26.5 8.25 26.4 M3.35 32.2 L4.6 33.75 4.9 34.05 5.5 32.55 Q6.9 28.65 7.7 27.05 L7.8 26.8 M15.95 36.75 L15.85 37.5 16.1 37.45" fill="none" stroke="#4f0202" stroke-linecap="round" stroke-linejoin="round" stroke-opacity="0.49803922" stroke-width="1"/>
  </g>
</svg>