<?xml version="1.0" encoding="UTF-8" standalone="no"?>
<svg xmlns:xlink="http://www.w3.org/1999/xlink" height="38.3px" width="48.6px" xmlns="http://www.w3.org/2000/svg">
  <g transform="matrix(1.0, 0.0, 0.0, 1.0, 1, 1)">
    <path d="M22.1 4.05 L22.3 3.95 Q29.8 0.0 34.9 0.0 38.05 0.0 41.5 1.75 L41.6 1.8 Q45.8 4.0 46.6 7.4 L46.6 8.6 44.1 5.5 Q42.85 4.2 40.0 4.2 36.2 4.2 32.55 6.65 31.35 7.05 30.0 8.1 26.15 11.15 25.15 11.15 23.8 11.15 22.25 9.95 20.4 8.55 20.4 6.5 L20.4 6.3 21.6 4.6 22.1 4.05" fill="#c04848" fill-rule="evenodd" stroke="none"/>
    <path d="M22.1 4.05 L21.6 4.6 20.4 6.3 20.4 6.5 Q20.4 8.55 22.25 9.95 23.8 11.15 25.15 11.15 26.15 11.15 30.0 8.1 31.35 7.05 32.55 6.65 30.75 7.8 29.0 9.6 L27.75 11.0 Q23.2 16.05 23.3 20.05 23.3 22.15 23.8 23.85 21.45 29.4 18.3 32.45 L18.95 30.5 Q21.35 22.95 21.35 19.15 21.35 17.4 20.05 17.2 17.75 16.9 16.9 16.25 15.75 15.4 15.9 12.3 16.0 9.5 15.3 9.5 L13.25 10.85 11.1 12.5 11.7 11.85 Q15.45 7.7 20.95 4.65 L21.65 4.25 22.1 4.05" fill="#a33d3d" fill-rule="evenodd" stroke="none"/>
    <path d="M18.3 32.45 Q16.75 33.9 15.05 34.75 9.75 37.4 5.1 35.45 0.45 33.45 0.05 27.65 -0.4 21.8 3.4 17.9 3.7 17.6 4.5 17.45 7.9 15.65 10.85 12.75 L11.1 12.5 13.25 10.85 15.3 9.5 Q16.0 9.5 15.9 12.3 15.75 15.4 16.9 16.25 17.75 16.9 20.05 17.2 21.35 17.4 21.35 19.15 21.35 22.95 18.95 30.5 L18.3 32.45" fill="url(#gradient0)" fill-rule="evenodd" stroke="none"/>
    <path d="M32.55 6.65 Q36.2 4.2 40.0 4.2 42.85 4.2 44.1 5.5 L46.6 8.6 46.6 7.4 Q45.8 4.0 41.6 1.8 L41.5 1.75 Q38.05 0.0 34.9 0.0 29.8 0.0 22.3 3.95 L22.1 4.05 21.65 4.25 20.95 4.65 Q15.45 7.7 11.7 11.85 L11.1 12.5 10.85 12.75 Q7.9 15.65 4.5 17.45 M32.55 6.65 Q30.75 7.8 29.0 9.6 L27.75 11.0 Q23.2 16.05 23.3 20.05 23.3 22.15 23.8 23.85" fill="none" stroke="#4f0202" stroke-linecap="round" stroke-linejoin="round" stroke-opacity="0.49803922" stroke-width="1"/>
  </g>
  <defs>
    <linearGradient gradientTransform="matrix(-0.0066, 0.0066, -0.009, -0.009, 10.2, 25.9)" gradientUnits="userSpaceOnUse" id="gradient0" spreadMethod="pad" x1="-819.2" x2="819.2">
      <stop offset="0.0" stop-color="#913333"></stop>
      <stop offset="1.0" stop-color="#702121"></stop>
    </linearGradient>
  </defs>
</svg>