<?xml version="1.0" encoding="UTF-8" standalone="no"?>
<svg xmlns:xlink="http://www.w3.org/1999/xlink" height="7.65px" width="8.3px" xmlns="http://www.w3.org/2000/svg">
  <g transform="matrix(1.0, 0.0, 0.0, 1.0, 4.15, 3.85)">
    <path d="M1.1 0.55 L1.15 0.25 1.4 -0.2 Q1.6 -0.5 1.85 -0.5 L1.9 -0.5 2.1 -0.5 2.2 -0.5 2.3 -0.5 2.5 -0.5 2.75 -0.4 2.9 -0.25 3.1 0.2 3.15 0.45 3.05 1.15 2.95 1.35 2.8 1.55 2.75 1.6 2.6 1.75 2.55 1.75 2.45 1.8 2.35 1.85 1.95 1.95 1.75 1.95 1.45 1.85 1.2 1.65 1.15 1.55 1.15 1.5 1.1 1.45 Q0.95 1.0 1.1 0.55 M-1.05 -1.6 L-1.2 -1.3 Q-1.55 -0.65 -2.1 -0.9 L-2.4 -0.9 -2.75 -1.2 -2.85 -1.7 -2.65 -2.55 -2.4 -2.75 -2.25 -2.8 -2.15 -2.85 -2.1 -2.85 -1.45 -2.6 -1.15 -2.3 -1.05 -1.9 -1.05 -1.6" fill="#ffffcc" fill-rule="evenodd" stroke="none"/>
    <path d="M1.1 0.55 Q0.95 1.0 1.1 1.45 L1.15 1.5 1.15 1.55 1.2 1.65 1.45 1.85 1.45 1.9 1.7 1.95 1.75 1.95 1.95 1.95 2.35 1.85 2.45 1.8 2.55 1.75 2.6 1.75 2.75 1.6 2.8 1.55 2.95 1.35 Q2.95 2.8 1.5 2.8 0.65 2.8 0.65 1.5 0.65 0.65 1.1 0.55 M-1.05 -1.6 L-1.1 -1.0 -1.35 -0.35 -1.95 -0.05 -2.6 0.05 -2.9 -0.3 -3.15 -0.9 -2.85 -1.7 -2.75 -1.2 -2.4 -0.9 -2.1 -0.9 Q-1.55 -0.65 -1.2 -1.3 L-1.05 -1.6" fill="#660000" fill-opacity="0.2509804" fill-rule="evenodd" stroke="none"/>
    <path d="M2.95 1.35 L3.05 1.15 3.15 0.45 3.1 0.2 2.9 -0.25 2.75 -0.4 2.5 -0.5 2.3 -0.5 2.2 -0.5 2.1 -0.5 1.9 -0.5 1.85 -0.5 Q1.6 -0.5 1.4 -0.2 L1.15 0.25 1.1 0.55 M1.1 1.45 L1.15 1.5 1.15 1.55 1.2 1.65 1.45 1.85 1.75 1.95 1.95 1.95 2.35 1.85 2.45 1.8 2.55 1.75 2.6 1.75 2.75 1.6 2.8 1.55 2.95 1.35 M-1.05 -1.6 L-1.2 -1.3 Q-1.55 -0.65 -2.1 -0.9 L-2.4 -0.9 -2.75 -1.2 -2.85 -1.7 -2.65 -2.55 -2.4 -2.75 -2.25 -2.8 -2.15 -2.85 -2.1 -2.85 -1.45 -2.6 -1.15 -2.3 -1.05 -1.9 -1.05 -1.6 Z" fill="none" stroke="#a36a6a" stroke-linecap="round" stroke-linejoin="round" stroke-opacity="0.49803922" stroke-width="1"/>
  </g>
</svg>