<?xml version="1.0" encoding="UTF-8" standalone="no"?>
<svg xmlns:xlink="http://www.w3.org/1999/xlink" height="7.5px" width="7.3px" xmlns="http://www.w3.org/2000/svg">
  <g id="shape0" transform="matrix(1.0, 0.0, 0.0, 1.0, 3.65, 3.75)">
    <path d="M-1.35 -1.2 L-0.5 -1.05 Q1.3 -0.95 2.6 0.15 L2.65 0.35 1.65 0.0 0.65 -0.1 0.7 0.6 0.6 2.25 0.1 0.95 0.05 0.75 -0.35 1.2 -0.35 0.7 -0.4 0.45 -1.0 -0.45 -1.2 -0.55 -1.15 2.0 -1.05 1.95 -0.75 1.75 -0.85 1.85 -0.95 2.0 -1.65 2.75 -1.75 0.95 -2.65 1.9 -2.6 0.85 -2.35 0.6 Q-1.8 0.6 -1.35 -1.2" fill="#d6baba" fill-rule="evenodd" stroke="none"/>
    <path d="M2.6 0.15 Q1.3 -0.95 -0.5 -1.05 L-1.35 -1.2 -1.15 -2.05 -1.25 -2.25 -0.7 -2.45 Q0.85 -3.05 1.75 -2.45 L0.2 -2.15 0.95 -1.7 Q2.1 -1.0 2.6 0.15 M-0.75 1.75 L-1.05 1.95 -1.15 2.0 -1.2 -0.55 -1.0 -0.45 -0.4 0.45 -0.35 0.7 -0.35 1.2 -0.75 1.75" fill="#faf8f8" fill-rule="evenodd" stroke="none"/>
    <path d="M2.6 0.15 Q2.1 -1.0 0.95 -1.7 L0.2 -2.15 1.75 -2.45 Q0.85 -3.05 -0.7 -2.45 L-1.25 -2.25 M-2.6 0.85 L-2.65 1.9 -1.75 0.95 -1.65 2.75 -0.95 2.0 -0.85 1.85 -0.75 1.75 -0.35 1.2 0.05 0.75 0.1 0.95 0.6 2.25 0.7 0.6 0.65 -0.1 1.65 0.0 2.65 0.35 2.6 0.15" fill="none" stroke="#a36a6a" stroke-linecap="round" stroke-linejoin="round" stroke-width="1"/>
  </g>
</svg>