<?xml version="1.0" encoding="UTF-8" standalone="no"?>
<svg xmlns:xlink="http://www.w3.org/1999/xlink" height="15.5px" width="16.6px" xmlns="http://www.w3.org/2000/svg">
  <g transform="matrix(1.0, 0.0, 0.0, 1.0, 7.45, 7.75)">
    <path d="M8.15 -1.05 L5.15 -0.25 M5.5 -4.1 L2.6 -2.05 M3.75 -6.75 L2.35 -4.65 M2.85 3.45 L0.85 3.35 M4.35 6.75 L2.65 4.85 M6.7 4.6 L3.85 3.35 M5.65 0.95 L3.25 0.9 M2.0 -0.5 L0.55 0.45 M-6.45 -1.0 L-5.25 -0.15 M-2.65 -4.9 L-2.0 -1.3 M-4.35 -3.8 L-3.75 -2.65 M-0.8 -6.5 L-0.4 -4.2 M-4.5 -0.7 L-3.05 0.8" fill="none" stroke="#a36a6a" stroke-linecap="round" stroke-linejoin="round" stroke-opacity="0.49803922" stroke-width="1"/>
  </g>
</svg>