<?xml version="1.0" encoding="UTF-8" standalone="no"?>
<svg xmlns:xlink="http://www.w3.org/1999/xlink" height="11.3px" width="5.3px" xmlns="http://www.w3.org/2000/svg">
  <g id="shape0" transform="matrix(1.0, 0.0, 0.0, 1.0, 2.1, 9.8)">
    <path d="M0.5 -3.25 L0.65 -3.45 0.9 -3.7 1.2 -4.05 1.2 -4.0 1.05 -3.45 0.9 -2.15 0.85 -1.5 0.8 -1.2 0.45 -0.55 0.4 -1.5 0.5 -3.2 0.5 -3.25 M-1.05 -1.95 L-1.1 -2.9 -0.7 -8.8 -0.5 -5.85 -0.4 -5.4 -0.45 -5.25 -0.5 -5.85 -0.45 -5.25 -0.6 -3.9 -0.7 -2.6 -1.05 -1.95 M0.2 -5.5 L0.55 -6.8 0.45 -4.15 0.3 -3.9 0.2 -5.5 M-0.2 -1.6 L0.15 -0.95 0.25 -0.55 0.85 -0.15 1.15 0.05 1.15 0.1 Q0.75 0.55 0.25 0.1 L-0.35 -0.5 -0.2 -1.6" fill="#faf8f8" fill-rule="evenodd" stroke="none"/>
    <path d="M0.8 -1.2 L1.65 -2.65 0.9 -0.35 2.2 -0.15 1.0 0.5 -0.85 0.45 -1.0 0.35 -1.05 -1.95 -0.7 -2.6 -0.6 -3.9 -0.45 -5.25 -0.3 -3.65 0.2 -5.5 0.3 -3.9 0.45 -4.15 0.5 -3.25 0.5 -3.2 0.4 -1.5 0.45 -0.55 0.8 -1.2 M-0.2 -1.6 L-0.35 -0.5 0.25 0.1 Q0.75 0.55 1.15 0.1 L1.15 0.05 0.85 -0.15 0.25 -0.55 0.15 -0.95 -0.2 -1.6 -0.3 -3.65 -0.2 -1.6" fill="#d6baba" fill-rule="evenodd" stroke="none"/>
    <path d="M0.5 -3.25 L0.65 -3.45 0.9 -3.7 1.2 -4.05 1.2 -4.0 1.05 -3.45 0.9 -2.15 0.85 -1.5 0.8 -1.2 1.65 -2.65 0.9 -0.35 2.2 -0.15 1.0 0.5 M-1.0 0.35 L-1.05 -1.95 -1.1 -2.9 -0.7 -8.8 -0.5 -5.85 -0.45 -5.25 -0.3 -3.65 0.2 -5.5 0.55 -6.8 0.45 -4.15 0.5 -3.25 0.5 -3.2 0.4 -1.5 0.45 -0.55 0.8 -1.2 M-0.2 -1.6 L-0.3 -3.65" fill="none" stroke="#a36a6a" stroke-linecap="round" stroke-linejoin="round" stroke-width="1"/>
  </g>
</svg>