<?xml version="1.0" encoding="UTF-8" standalone="no"?>
<svg xmlns:xlink="http://www.w3.org/1999/xlink" height="12.2px" width="13.85px" xmlns="http://www.w3.org/2000/svg">
  <g id="shape0" transform="matrix(1.0, 0.0, 0.0, 1.0, 6.9, 6.1)">
    <path d="M2.55 -2.95 L2.6 -2.7 3.05 -1.2 2.6 -1.0 2.5 -1.1 2.15 -1.3 2.55 -2.95 M4.5 -1.1 L5.35 -1.15 4.6 0.45 4.55 0.55 5.95 0.6 4.95 1.75 4.7 2.15 2.85 5.1 1.3 4.25 1.8 3.45 2.25 2.65 2.65 1.7 3.5 0.25 4.5 -1.1" fill="#d6baba" fill-rule="evenodd" stroke="none"/>
    <path d="M2.55 -2.95 L2.15 -1.3 2.5 -1.1 2.6 -1.0 3.05 -1.2 4.5 -1.1 3.5 0.25 2.65 1.7 2.25 2.65 1.8 3.45 1.3 4.25 0.45 3.7 -0.45 3.15 -1.3 2.6 -2.65 1.65 -3.95 0.75 -5.4 -0.35 -5.9 -0.7 -5.6 -1.3 -3.95 -4.45 -3.45 -5.1 -3.35 -4.7 -3.3 -4.5 -2.95 -3.95 -0.55 -4.5 -0.35 -4.0 -0.25 -3.55 -0.1 -2.85 2.55 -2.95" fill="#faf8f8" fill-rule="evenodd" stroke="none"/>
    <path d="M3.05 -1.2 L2.6 -2.7 2.55 -2.95 -0.1 -2.85 -0.25 -3.55 -0.35 -4.0 -0.55 -4.5 -2.95 -3.95 -3.3 -4.5 -3.35 -4.7 -3.45 -5.1 -3.95 -4.45 -5.6 -1.3 -5.9 -0.7 M3.05 -1.2 L4.5 -1.1 5.35 -1.15 4.6 0.45 4.55 0.55 5.95 0.6 4.95 1.75 4.7 2.15 2.85 5.1" fill="none" stroke="#a36a6a" stroke-linecap="round" stroke-linejoin="round" stroke-width="1"/>
  </g>
</svg>