<?xml version="1.0" encoding="UTF-8" standalone="no"?>
<svg xmlns:xlink="http://www.w3.org/1999/xlink" height="13.3px" width="9.75px" xmlns="http://www.w3.org/2000/svg">
  <g transform="matrix(1.0, 0.0, 0.0, 1.0, 4.15, 9.55)">
    <path d="M1.1 0.55 L1.2 0.25 Q1.5 -1.2 2.15 -2.55 3.05 -4.5 4.6 -6.25 L4.2 -5.05 Q3.3 -2.65 3.1 -0.2 L3.05 0.1 3.2 0.85 2.95 1.4 2.4 1.95 Q1.5 2.0 1.1 1.45 L1.1 0.55 M-2.85 -1.8 Q-3.35 -5.25 -2.0 -8.55 L-1.9 -7.85 Q-1.75 -5.1 -1.2 -2.35 L-1.05 -1.6 Q-1.3 -0.6 -2.1 -0.9 -2.9 -1.05 -2.8 -1.5 L-2.85 -1.8 -2.8 -1.5 -2.85 -1.7 -2.85 -1.8" fill="#ffffcc" fill-rule="evenodd" stroke="none"/>
    <path d="M1.1 0.55 L1.1 1.45 Q1.5 2.0 2.4 1.95 L2.95 1.4 2.9 2.05 2.2 2.75 1.15 2.75 0.75 1.3 1.1 0.55 M-2.8 -1.5 Q-2.9 -1.05 -2.1 -0.9 -1.3 -0.6 -1.05 -1.6 L-1.25 -0.65 -2.0 -0.15 -2.6 0.05 -3.15 -0.9 -2.85 -1.7 -2.8 -1.5" fill="#660000" fill-opacity="0.2509804" fill-rule="evenodd" stroke="none"/>
    <path d="M2.95 1.4 L3.2 0.85 3.05 0.1 3.1 -0.2 Q3.3 -2.65 4.2 -5.05 L4.6 -6.25 Q3.05 -4.5 2.15 -2.55 1.5 -1.2 1.2 0.25 L1.1 0.55 1.1 1.45 Q1.5 2.0 2.4 1.95 L2.95 1.4 M-1.05 -1.6 L-1.2 -2.35 Q-1.75 -5.1 -1.9 -7.85 L-2.0 -8.55 Q-3.35 -5.25 -2.85 -1.8 L-2.8 -1.5 Q-2.9 -1.05 -2.1 -0.9 -1.3 -0.6 -1.05 -1.6 M-2.85 -1.7 L-2.85 -1.8 M-2.85 -1.7 L-2.8 -1.5" fill="none" stroke="#a36a6a" stroke-linecap="round" stroke-linejoin="round" stroke-opacity="0.49803922" stroke-width="1"/>
  </g>
</svg>