<?xml version="1.0" encoding="UTF-8" standalone="no"?>
<svg xmlns:xlink="http://www.w3.org/1999/xlink" height="6.6px" width="7.4px" xmlns="http://www.w3.org/2000/svg">
  <g id="shape0" transform="matrix(1.0, 0.0, 0.0, 1.0, 3.65, 3.2)">
    <path d="M0.45 -0.4 L2.05 -1.65 2.1 -1.65 1.8 -1.1 0.75 0.65 -0.4 0.8 0.2 -0.1 0.45 -0.4 M-2.4 1.75 L-2.45 1.85 -2.65 0.8 -2.65 0.45 -2.1 -1.9 -2.05 -0.35 Q-1.1 -1.7 0.5 -2.1 L-0.05 -0.7 -1.25 0.85 -2.1 1.05 -2.25 1.15 -2.4 1.75 M0.75 -1.3 L0.5 -0.5 0.65 -0.85 0.75 -1.3" fill="#faf8f8" fill-rule="evenodd" stroke="none"/>
    <path d="M0.45 -0.4 L0.2 -0.1 -0.4 0.8 0.75 0.65 1.8 -1.1 2.1 -1.65 2.75 -2.2 2.35 -1.2 1.35 0.7 1.15 0.9 2.7 0.65 2.1 1.4 0.85 2.2 -1.05 2.35 -1.8 2.25 Q-2.25 2.2 -2.05 1.85 L-2.4 1.75 -2.25 1.15 -2.1 1.05 -1.25 0.85 -0.05 -0.7 0.5 -2.1 0.8 -2.2 0.8 -2.0 0.8 -1.65 0.75 -1.3 0.65 -0.85 0.5 -0.5 0.4 -0.4 0.45 -0.4" fill="#d6baba" fill-rule="evenodd" stroke="none"/>
    <path d="M2.1 -1.65 L2.05 -1.65 0.45 -0.4 0.4 -0.4 0.5 -0.5 0.75 -1.3 0.8 -1.65 0.8 -2.0 0.8 -2.2 0.5 -2.1 Q-1.1 -1.7 -2.05 -0.35 L-2.1 -1.9 -2.65 0.45 -2.65 0.8 -2.45 1.85 M2.1 -1.65 L2.75 -2.2 2.35 -1.2 1.35 0.7 1.15 0.9 2.7 0.65 2.1 1.4 0.85 2.2 -1.05 2.35 -1.8 2.25" fill="none" stroke="#a36a6a" stroke-linecap="round" stroke-linejoin="round" stroke-width="1"/>
  </g>
</svg>