<?xml version="1.0" encoding="UTF-8" standalone="no"?>
<svg xmlns:xlink="http://www.w3.org/1999/xlink" height="203.25px" width="107.45px" xmlns="http://www.w3.org/2000/svg">
  <g transform="matrix(1.0, 0.0, 0.0, 1.0, -69.35, 61.95)">
    <path d="M120.1 93.25 Q127.05 87.5 132.25 79.9 161.35 37.6 144.75 -12.05 133.45 -45.7 102.05 -59.9 L102.3 -60.95 Q123.45 -53.4 136.2 -35.05 164.65 5.75 156.15 53.7 149.5 91.25 120.6 110.85 L122.95 108.75 Q145.55 88.15 148.85 57.35 L147.7 60.55 Q137.4 87.45 112.2 101.55 L120.1 93.25 M101.7 107.2 L98.35 108.8 Q85.1 115.0 70.35 114.15 L73.3 113.75 Q95.05 110.05 113.55 98.05 L101.7 107.2 M98.4 102.8 L97.65 102.3 Q115.1 87.1 124.55 66.1 139.45 33.0 126.3 -1.05 141.2 23.2 133.6 51.15 124.95 83.0 98.4 102.8 M96.45 90.05 L94.2 89.95 Q126.6 61.2 120.65 18.0 L121.65 17.7 Q128.95 54.7 106.25 84.9 136.45 50.0 120.0 6.85 123.9 11.95 125.65 18.0 138.2 60.85 102.65 89.25 L102.05 88.75 101.45 89.1 Q99.05 90.45 96.45 90.05 M139.35 -40.95 L139.8 -41.85 Q149.5 -31.55 156.0 -18.9 180.85 29.3 161.75 80.25 150.85 109.45 127.0 129.2 111.85 141.8 93.65 140.1 L98.95 138.8 Q134.45 128.25 151.85 95.0 167.95 64.4 165.55 29.75 162.85 -9.3 139.35 -40.95" fill="#93784c" fill-rule="evenodd" stroke="none"/>
    <path d="M155.1 -29.75 L156.45 -32.4 Q173.35 -7.7 175.35 22.1 178.05 62.05 164.0 99.4 152.8 129.05 122.35 135.65 142.9 123.85 154.75 103.35 172.2 73.25 173.9 38.3 175.7 1.15 155.1 -29.75" fill="#69522d" fill-rule="evenodd" stroke="none"/>
    <path d="M120.1 93.25 L112.2 101.55 Q110.05 104.6 107.4 107.2 95.05 119.45 77.75 121.3 L77.75 120.05 80.95 118.8 Q91.9 114.1 101.7 107.2 L113.55 98.05 Q123.35 89.0 128.75 76.9 152.55 23.4 130.85 -33.45 149.65 -2.15 147.5 34.25 145.4 69.45 120.1 93.25" fill="#692d2d" fill-rule="evenodd" stroke="none"/>
  </g>
</svg>