<?xml version="1.0" encoding="UTF-8" standalone="no"?>
<svg xmlns:xlink="http://www.w3.org/1999/xlink" height="47.7px" width="36.1px" xmlns="http://www.w3.org/2000/svg">
  <g transform="matrix(1.0, 0.0, 0.0, 1.0, 3.75, 1)">
    <path d="M29.95 14.9 L30.45 16.75 30.1 17.9 Q29.8 19.0 29.8 19.65 29.8 20.35 30.1 21.3 L30.45 22.25 Q28.9 21.15 28.85 19.8 L28.7 16.25 Q28.6 14.35 28.9 14.15 L29.25 17.4 29.95 14.9 M31.3 22.0 L31.35 22.8 30.6 22.35 31.3 22.0 M14.1 14.75 L16.6 14.95 Q19.25 15.35 21.7 16.55 L22.55 17.05 20.2 13.3 19.95 13.1 Q23.85 15.5 24.2 16.05 L27.15 23.35 Q26.2 23.95 24.5 24.45 21.7 25.3 18.3 25.3 15.95 25.3 13.3 24.5 L18.4 23.0 Q17.45 22.3 15.7 18.55 L14.1 14.8 14.1 14.75 M22.8 18.75 L19.75 19.0 19.7 19.0 Q19.9 21.7 20.55 22.55 21.25 23.5 22.9 23.4 L23.5 23.3 25.6 22.7 25.7 22.65 Q25.05 19.1 23.15 18.8 L22.8 18.75" fill="#7b693c" fill-rule="evenodd" stroke="none"/>
    <path d="M27.05 6.1 L27.85 8.0 27.55 9.25 27.05 6.1" fill="#9c7e50" fill-rule="evenodd" stroke="none"/>
    <path d="M30.75 29.45 L30.7 29.95 30.7 29.65 30.75 29.45" fill="url(#gradient0)" fill-rule="evenodd" stroke="none"/>
    <path d="M21.95 2.9 L24.85 4.2 Q25.15 6.0 24.65 7.2 24.05 5.25 21.95 2.9" fill="url(#gradient1)" fill-rule="evenodd" stroke="none"/>
    <path d="M31.15 26.65 L30.75 29.4 30.75 29.45 30.7 29.65 Q30.7 27.35 30.2 26.1 29.65 24.75 27.3 28.1 24.9 31.4 21.15 31.9 L18.5 31.85 17.8 31.5 18.25 31.7 19.7 32.0 Q20.7 32.1 23.5 30.55 25.35 29.5 29.7 24.5 L29.2 22.65 30.0 23.8 30.45 24.45 30.9 25.25 31.15 26.65 M29.7 37.8 L29.5 38.9 29.25 38.0 28.6 36.5 28.5 36.75 28.45 35.75 28.7 33.9 28.75 33.95 29.35 36.25 29.7 37.8 M26.0 42.85 L24.85 45.7 Q24.45 45.05 23.75 41.9 L22.9 38.25 21.1 39.65 21.45 37.5 14.35 37.9 Q7.85 37.75 5.85 36.65 3.75 35.25 1.9 33.0 -2.75 27.35 -2.75 21.0 -2.75 14.55 1.75 8.25 5.75 2.6 8.15 2.85 L7.05 0.5 7.45 0.4 16.35 1.75 18.9 4.25 16.35 4.1 Q14.0 4.1 12.15 4.8 11.6 4.95 11.1 5.2 L13.8 6.8 8.65 7.5 4.65 8.0 4.5 8.0 7.4 9.45 7.9 9.7 3.0 10.1 3.25 10.35 5.55 12.05 5.2 12.0 5.1 12.0 3.75 12.05 2.65 12.25 5.25 12.95 5.35 13.0 6.05 13.2 2.4 14.85 2.25 14.85 5.6 15.5 Q4.95 15.6 3.5 16.9 L1.5 18.6 3.55 19.3 4.9 19.35 6.75 19.15 6.9 19.25 Q6.5 19.35 6.1 19.55 L5.45 19.85 Q5.25 19.95 3.75 20.95 L1.3 21.7 4.45 22.05 5.6 22.1 3.9 23.9 5.0 24.1 6.3 24.3 6.35 24.45 4.7 24.75 3.15 24.45 1.7 24.45 4.55 27.8 3.35 29.2 2.25 30.75 5.3 31.05 4.05 32.45 6.6 33.05 8.85 33.15 9.0 33.15 8.1 35.1 8.1 35.15 10.45 35.4 12.0 35.55 10.4 36.75 10.7 36.75 12.55 36.8 Q14.45 36.8 15.25 36.3 L16.45 35.25 22.95 35.85 22.25 37.55 24.25 36.6 25.0 40.5 25.25 43.15 26.0 42.85" fill="url(#gradient2)" fill-rule="evenodd" stroke="none"/>
    <path d="M16.35 1.75 L19.15 2.6 20.65 6.35 14.65 5.9 19.2 9.1 11.45 9.35 7.9 9.7 7.4 9.45 4.5 8.0 4.65 8.0 8.65 7.5 13.8 6.8 11.1 5.2 Q11.6 4.95 12.15 4.8 14.0 4.1 16.35 4.1 L18.9 4.25 16.35 1.75 M6.05 13.2 L7.2 13.25 8.75 14.4 5.7 16.55 4.5 17.35 5.95 18.55 6.75 19.15 4.9 19.35 3.55 19.3 1.5 18.6 3.5 16.9 Q4.95 15.6 5.6 15.5 L2.25 14.85 2.4 14.85 6.05 13.2 M5.6 22.1 L6.3 22.05 6.4 22.05 7.4 21.85 9.25 20.95 10.65 21.9 7.25 24.3 9.15 24.45 8.1 26.05 7.1 26.1 6.95 26.1 4.6 25.95 4.15 26.0 6.0 27.25 6.95 27.8 5.4 30.05 7.5 30.75 8.25 31.0 7.6 31.5 6.9 32.0 6.2 32.5 7.75 32.4 8.3 32.35 10.65 31.75 13.25 32.4 11.1 33.75 13.45 34.55 12.0 35.55 10.45 35.4 8.1 35.15 8.1 35.1 9.0 33.15 8.85 33.15 6.6 33.05 4.05 32.45 5.3 31.05 2.25 30.75 3.35 29.2 4.55 27.8 1.7 24.45 3.15 24.45 4.7 24.75 6.35 24.45 6.3 24.3 5.0 24.1 3.9 23.9 5.6 22.1" fill="url(#gradient3)" fill-rule="evenodd" stroke="none"/>
    <path d="M21.15 20.6 L21.7 21.8 21.7 22.2 21.35 22.25 Q20.4 21.4 20.4 20.3 L20.4 19.9 20.6 19.65 20.8 19.8 20.9 19.85 21.1 20.45 21.15 20.6" fill="#ffffff" fill-rule="evenodd" stroke="none"/>
    <path d="M30.45 16.75 L30.7 17.9 30.7 18.0 31.3 22.0 30.6 22.35 30.5 22.35 30.45 22.25 30.1 21.3 Q29.8 20.35 29.8 19.65 29.8 19.0 30.1 17.9 L30.45 16.75 M22.8 18.75 L23.15 18.8 Q25.05 19.1 25.7 22.65 L25.6 22.7 23.5 23.3 22.9 23.4 Q21.25 23.5 20.55 22.55 19.9 21.7 19.7 19.0 L19.75 19.0 22.8 18.75 M21.15 20.6 L21.1 20.45 20.9 19.85 20.8 19.8 20.6 19.65 20.4 19.9 20.4 20.3 Q20.4 21.4 21.35 22.25 L21.7 22.2 21.7 21.8 21.15 20.6" fill="#000000" fill-rule="evenodd" stroke="none"/>
    <path d="M30.7 29.65 L30.55 31.3 Q30.05 29.2 29.3 29.3 29.1 29.3 26.8 30.9 24.35 32.5 23.4 32.75 20.85 33.4 19.75 32.75 L18.5 31.85 21.15 31.9 Q24.9 31.4 27.3 28.1 29.65 24.75 30.2 26.1 30.7 27.35 30.7 29.65" fill="url(#gradient4)" fill-rule="evenodd" stroke="none"/>
    <path d="M21.95 2.9 Q24.05 5.25 24.65 7.2 25.15 6.0 24.85 4.2 24.55 2.25 24.25 1.65 L25.0 2.1 Q26.05 2.65 27.05 6.1 L27.55 9.25 27.85 8.0 28.5 5.25 Q29.2 5.65 29.4 8.35 L29.95 14.9 29.25 17.4 28.9 14.15 Q28.6 14.35 28.7 16.25 L28.85 19.8 Q28.9 21.15 30.45 22.25 L30.5 22.35 30.6 22.35 31.35 22.8 31.3 24.6 31.15 26.5 31.15 26.65 30.9 25.25 30.45 24.45 30.0 23.8 29.2 22.65 28.5 21.75 28.0 21.1 27.8 20.8 28.0 21.1 28.5 21.75 29.2 22.65 29.7 24.5 Q25.35 29.5 23.5 30.55 20.7 32.1 19.7 32.0 L18.25 31.7 17.8 31.5 18.5 31.85 19.75 32.75 Q20.85 33.4 23.4 32.75 24.35 32.5 26.8 30.9 29.1 29.3 29.3 29.3 30.05 29.2 30.55 31.3 L29.7 37.8 29.35 36.25 28.75 33.95 28.7 33.9 28.45 35.75 28.5 36.75 28.35 37.05 26.0 42.85 25.25 43.15 25.0 40.5 24.25 36.6 22.25 37.55 22.95 35.85 16.45 35.25 15.25 36.3 Q14.45 36.8 12.55 36.8 L10.7 36.75 10.4 36.75 12.0 35.55 13.45 34.55 11.1 33.75 13.25 32.4 10.65 31.75 8.3 32.35 7.75 32.4 6.2 32.5 6.9 32.0 7.6 31.5 8.25 31.0 7.5 30.75 5.4 30.05 6.95 27.8 6.0 27.25 4.15 26.0 4.6 25.95 6.95 26.1 7.1 26.1 8.1 26.05 9.15 24.45 7.25 24.3 10.65 21.9 9.25 20.95 7.4 21.85 6.4 22.05 6.3 22.05 5.6 22.1 4.45 22.05 1.3 21.7 3.75 20.95 Q5.25 19.95 5.45 19.85 L6.1 19.55 Q6.5 19.35 6.9 19.25 L6.75 19.15 5.95 18.55 4.5 17.35 5.7 16.55 8.75 14.4 7.2 13.25 6.05 13.2 5.35 13.0 5.25 12.95 2.65 12.25 3.75 12.05 5.1 12.0 5.2 12.0 5.55 12.05 3.25 10.35 3.0 10.1 7.9 9.7 11.45 9.35 19.2 9.1 14.65 5.9 20.65 6.35 19.15 2.6 17.6 0.0 18.35 0.2 Q19.65 0.55 21.95 2.9 M14.1 14.8 L15.7 18.55 Q17.45 22.3 18.4 23.0 L13.3 24.5 Q15.95 25.3 18.3 25.3 21.7 25.3 24.5 24.45 26.2 23.95 27.15 23.35 L24.2 16.05 Q23.85 15.5 19.95 13.1 L20.2 13.3 22.55 17.05 21.7 16.55 Q19.25 15.35 16.6 14.95 L14.1 14.75 14.1 14.8 M16.8 30.05 L16.9 30.4 17.8 31.5 16.9 30.4 16.8 30.05" fill="url(#gradient5)" fill-rule="evenodd" stroke="none"/>
    <path d="M24.85 4.2 L21.95 2.9 Q24.05 5.25 24.65 7.2 25.15 6.0 24.85 4.2 24.55 2.25 24.25 1.65 L25.0 2.1 Q26.05 2.65 27.05 6.1 L27.55 9.25 27.85 8.0 28.5 5.25 Q29.2 5.65 29.4 8.35 L29.95 14.9 30.45 16.75 30.7 17.9 30.7 18.0 31.3 22.0 31.35 22.8 31.3 24.6 31.15 26.5 31.15 26.65 30.75 29.4 30.75 29.45 30.7 29.95 30.7 29.65 30.55 31.3 29.7 37.8 29.5 38.9 29.25 38.0 28.6 36.5 28.5 36.75 28.35 37.05 26.0 42.85 24.85 45.7 Q24.45 45.05 23.75 41.9 L22.9 38.25 21.1 39.65 21.45 37.5 M-2.75 21.0 Q-2.75 14.55 1.75 8.25 5.75 2.6 8.15 2.85 L7.05 0.5 7.45 0.4 16.35 1.75 19.15 2.6 17.6 0.0 18.35 0.2 Q19.65 0.55 21.95 2.9 M30.45 22.25 L30.1 21.3 Q29.8 20.35 29.8 19.65 29.8 19.0 30.1 17.9 L30.45 16.75 M14.1 14.8 L14.1 14.75 M22.8 18.75 L19.75 19.0 19.7 19.0 Q19.9 21.7 20.55 22.55 21.25 23.5 22.9 23.4 L23.5 23.3 25.6 22.7 25.7 22.65 Q25.05 19.1 23.15 18.8 L22.8 18.75 M29.2 22.65 L28.5 21.75 28.0 21.1 27.8 20.8 M17.8 31.5 L18.5 31.85 21.15 31.9 Q24.9 31.4 27.3 28.1 29.65 24.75 30.2 26.1 30.7 27.35 30.7 29.65 L30.75 29.45 M31.15 26.65 L30.9 25.25 30.45 24.45 30.0 23.8 29.2 22.65 M31.3 22.0 L30.6 22.35 30.5 22.35 30.45 22.25 M14.65 5.9 L20.65 6.35 19.15 2.6 M17.8 31.5 L16.9 30.4 16.8 30.05" fill="none" stroke="#4a3e2b" stroke-linecap="round" stroke-linejoin="round" stroke-opacity="0.49803922" stroke-width="1"/>
    <path d="M30.1 19.05 L30.25 18.2 30.5 17.9 30.35 19.7 30.2 19.8 Q30.0 19.6 30.1 19.05" fill="#ffffff" fill-rule="evenodd" stroke="none"/>
  </g>
  <defs>
    <linearGradient gradientTransform="matrix(0.007, -0.0019, 0.0058, 0.0221, 24.8, 15.05)" gradientUnits="userSpaceOnUse" id="gradient0" spreadMethod="pad" x1="-819.2" x2="819.2">
      <stop offset="0.0" stop-color="#b89662"></stop>
      <stop offset="1.0" stop-color="#e7c590" stop-opacity="0.9882353"></stop>
    </linearGradient>
    <linearGradient gradientTransform="matrix(-0.0014, -0.0014, 6.0E-4, -6.0E-4, 23.2, 3.5)" gradientUnits="userSpaceOnUse" id="gradient1" spreadMethod="pad" x1="-819.2" x2="819.2">
      <stop offset="0.0" stop-color="#806946"></stop>
      <stop offset="1.0" stop-color="#c6a572" stop-opacity="0.9882353"></stop>
    </linearGradient>
    <linearGradient gradientTransform="matrix(-5.0E-4, 0.0083, -0.0133, -9.0E-4, 19.35, 40.9)" gradientUnits="userSpaceOnUse" id="gradient2" spreadMethod="pad" x1="-819.2" x2="819.2">
      <stop offset="0.0" stop-color="#806946"></stop>
      <stop offset="1.0" stop-color="#c6a572" stop-opacity="0.9882353"></stop>
    </linearGradient>
    <linearGradient gradientTransform="matrix(-0.0072, -0.0019, 0.0014, -0.0051, 12.55, 5.25)" gradientUnits="userSpaceOnUse" id="gradient3" spreadMethod="pad" x1="-819.2" x2="819.2">
      <stop offset="0.0" stop-color="#806946"></stop>
      <stop offset="1.0" stop-color="#c6a572" stop-opacity="0.9882353"></stop>
    </linearGradient>
    <linearGradient gradientTransform="matrix(-0.0017, -0.003, 0.0069, -0.004, 25.5, 31.0)" gradientUnits="userSpaceOnUse" id="gradient4" spreadMethod="pad" x1="-819.2" x2="819.2">
      <stop offset="0.0" stop-color="#cdaa76"></stop>
      <stop offset="1.0" stop-color="#a3865a" stop-opacity="0.9882353"></stop>
    </linearGradient>
    <linearGradient gradientTransform="matrix(0.011, -0.0037, 0.009, 0.0264, 23.2, 22.2)" gradientUnits="userSpaceOnUse" id="gradient5" spreadMethod="pad" x1="-819.2" x2="819.2">
      <stop offset="0.0" stop-color="#b89662"></stop>
      <stop offset="1.0" stop-color="#e7c590" stop-opacity="0.9882353"></stop>
    </linearGradient>
  </defs>
</svg>