<?xml version="1.0" encoding="UTF-8" standalone="no"?>
<svg xmlns:xlink="http://www.w3.org/1999/xlink" height="24.65px" width="25.3px" xmlns="http://www.w3.org/2000/svg">
  <g transform="matrix(1.0, 0.0, 0.0, 1.0, 1, 1)">
    <path d="M15.0 9.15 L14.35 9.0 9.9 8.3 Q6.65 7.55 1.55 2.7 L0.0 0.0 6.7 3.65 11.25 5.95 Q13.15 7.15 15.0 9.15" fill="url(#gradient0)" fill-rule="evenodd" stroke="none"/>
    <path d="M22.3 20.45 L22.25 20.45 22.3 20.45 23.3 22.65 Q15.05 22.5 7.55 12.95 L7.25 12.7 6.7 12.05 4.4 8.1 1.55 2.7 Q6.65 7.55 9.9 8.3 L14.35 9.0 15.0 9.15 Q18.2 12.55 21.2 18.25 L22.25 20.45 22.3 20.45" fill="url(#gradient1)" fill-rule="evenodd" stroke="none"/>
    <path d="M7.25 12.7 L7.55 12.95" fill="none" stroke="#990000" stroke-linecap="round" stroke-linejoin="round" stroke-opacity="0.49803922" stroke-width="1"/>
    <path d="M22.25 20.45 L22.3 20.45 23.3 22.65 M22.25 20.45 L21.2 18.25 Q18.2 12.55 15.0 9.15 13.15 7.15 11.25 5.95 L6.7 3.65 0.0 0.0 1.55 2.7 4.4 8.1 6.7 12.05 7.25 12.7" fill="none" stroke="#4a3e2b" stroke-linecap="round" stroke-linejoin="round" stroke-opacity="0.49803922" stroke-width="1"/>
  </g>
  <defs>
    <linearGradient gradientTransform="matrix(-0.0065, -0.0065, 0.0021, -0.0021, 5.35, 3.05)" gradientUnits="userSpaceOnUse" id="gradient0" spreadMethod="pad" x1="-819.2" x2="819.2">
      <stop offset="0.0" stop-color="#b89662"></stop>
      <stop offset="1.0" stop-color="#eebc6f" stop-opacity="0.9882353"></stop>
    </linearGradient>
    <linearGradient gradientTransform="matrix(-0.0091, -0.0065, 0.0026, -0.0037, 9.45, 9.8)" gradientUnits="userSpaceOnUse" id="gradient1" spreadMethod="pad" x1="-819.2" x2="819.2">
      <stop offset="0.0" stop-color="#806946"></stop>
      <stop offset="1.0" stop-color="#bf985d" stop-opacity="0.9882353"></stop>
    </linearGradient>
  </defs>
</svg>