<?xml version="1.0" encoding="UTF-8" standalone="no"?>
<svg xmlns:xlink="http://www.w3.org/1999/xlink" height="21.15px" width="20.55px" xmlns="http://www.w3.org/2000/svg">
  <g transform="matrix(1.0, 0.0, 0.0, 1.0, 1, 1)">
    <path d="M10.2 0.5 L9.55 0.0 13.6 1.3 Q19.6 3.15 18.3 12.75 17.85 15.95 15.05 17.5 6.45 22.05 1.25 14.15 -1.2 10.4 1.1 6.55 2.45 4.3 5.15 3.55 8.35 2.9 9.85 3.5 11.4 4.15 12.4 7.4 13.4 10.6 12.6 12.15 11.8 13.7 9.7 14.25 7.55 14.8 6.25 12.9 4.9 11.0 6.8 9.65 7.65 9.05 8.75 9.8 L8.7 8.95 Q8.3 5.9 5.45 6.6 4.4 6.95 3.75 8.0 1.3 12.15 4.6 15.25 5.75 16.3 7.35 16.65 13.9 17.95 16.55 12.1 17.6 9.65 16.7 7.3 14.9 2.6 10.2 0.5" fill="#a85e31" fill-rule="evenodd" stroke="none"/>
  </g>
</svg>