<?xml version="1.0" encoding="UTF-8" standalone="no"?>
<svg xmlns:xlink="http://www.w3.org/1999/xlink" height="19.55px" width="21.55px" xmlns="http://www.w3.org/2000/svg">
  <g id="shape0" transform="matrix(1.0, 0.0, 0.0, 1.0, 4.75, 1)">
    <path d="M11.75 6.1 L9.55 8.9 8.4 10.25 Q7.5 11.35 7.5 11.6 7.5 13.15 9.5 13.55 L9.65 13.6 9.95 13.65 10.45 13.65 Q11.65 13.65 12.45 13.1 L12.1 13.2 Q11.35 13.15 11.1 12.75 L10.85 12.05 Q10.65 10.75 11.55 9.9 12.4 9.1 13.85 9.1 14.6 9.1 14.9 9.4 L15.25 10.2 14.95 11.7 Q14.55 12.65 14.7 13.6 L15.1 14.55 15.8 15.15 15.8 15.2 Q14.35 14.7 14.05 13.65 13.5 15.25 12.25 16.35 10.8 17.55 8.8 17.55 4.75 16.6 1.2 15.15 -5.8 12.3 -2.95 7.35 -0.1 2.35 6.25 0.0 5.9 0.3 5.55 2.8 5.2 4.85 5.2 5.4 L6.95 5.25 9.9 5.7 11.7 6.05 11.75 6.1 M12.45 11.8 L12.1 11.85 11.9 11.35 12.0 10.85 Q12.15 10.5 12.35 10.5 L12.8 10.7 13.25 11.4 Q13.35 12.2 12.8 12.85 L12.45 13.1 12.8 12.85 Q13.35 12.2 13.25 11.4 L12.8 10.7 12.35 10.5 Q12.15 10.5 12.0 10.85 L11.9 11.35 12.1 11.85 12.45 11.8" fill="#d6baba" fill-rule="evenodd" stroke="none"/>
    <path d="M11.75 6.1 L9.55 8.9 8.4 10.25 Q7.5 11.35 7.5 11.6 7.5 13.15 9.5 13.55 L9.65 13.6 9.95 13.65 10.45 13.65 Q11.65 13.65 12.45 13.1 L12.1 13.2 Q11.35 13.15 11.1 12.75 L10.85 12.05 Q10.65 10.75 11.55 9.9 12.4 9.1 13.85 9.1 14.6 9.1 14.9 9.4 L15.25 10.2 14.95 11.7 Q14.55 12.65 14.7 13.6 L15.1 14.55 15.8 15.15 15.8 15.2 Q14.35 14.7 14.05 13.65 13.5 15.25 12.25 16.35 10.8 17.55 8.8 17.55 4.75 16.6 1.2 15.15 -5.8 12.3 -2.95 7.35 -0.1 2.35 6.25 0.0 5.9 0.3 5.55 2.8 5.2 4.85 5.2 5.4 L6.95 5.25 9.9 5.7 11.7 6.05 11.75 6.1 M12.45 13.1 L12.8 12.85 Q13.35 12.2 13.25 11.4 L12.8 10.7 12.35 10.5 Q12.15 10.5 12.0 10.85 L11.9 11.35 12.1 11.85 12.45 11.8" fill="none" stroke="#a36a6a" stroke-linecap="round" stroke-linejoin="round" stroke-width="1"/>
  </g>
</svg>