<?xml version="1.0" encoding="UTF-8" standalone="no"?>
<svg xmlns:xlink="http://www.w3.org/1999/xlink" height="13.45px" width="22.15px" xmlns="http://www.w3.org/2000/svg">
  <g id="shape0" transform="matrix(1.0, 0.0, 0.0, 1.0, 11.1, 6.7)">
    <path d="M-2.85 -2.7 L0.1 -2.8 2.05 -2.65 3.25 -2.4 5.8 -3.3 6.7 -3.6 8.25 -3.8 Q9.05 -3.9 9.65 -3.3 L9.9 -3.05 9.95 -1.55 9.8 -0.85 Q9.55 -2.15 8.7 -3.1 L6.7 -2.85 5.8 -2.55 5.5 -2.45 1.1 -1.0 -3.7 0.8 Q-6.5 1.9 -6.55 2.1 -7.45 2.05 -7.95 1.65 L-7.35 0.95 -7.45 0.9 -8.55 1.55 -9.15 1.25 -9.75 0.8 Q-9.85 0.4 -10.05 0.45 -9.9 -0.3 -9.2 -0.85 -7.7 -2.1 -7.4 -3.2 -7.15 -4.35 -6.45 -5.25 L-5.25 -5.7 -4.8 -5.7 -5.5 -2.5 -5.45 -2.2 -5.05 -2.35 -3.85 -2.6 -2.85 -2.7 M2.3 4.9 L2.3 4.8 Q2.3 4.15 3.25 3.35 L4.8 2.3 5.1 2.15 5.2 2.15 5.8 1.85 6.15 1.65 6.7 1.25 7.75 0.15 7.9 0.25 Q8.2 0.7 7.75 0.95 L6.7 1.85 5.8 2.65 4.75 3.3 2.3 4.9 M7.5 -2.05 L6.7 -2.15 6.7 -2.2 7.5 -2.05 M-8.95 -0.05 Q-8.45 -0.85 -7.6 -1.35 L-5.45 -2.2 -7.6 -1.35 Q-8.45 -0.85 -8.95 -0.05 M-4.05 0.05 Q-5.8 0.05 -7.05 0.75 L-7.35 0.95 -7.05 0.75 Q-5.8 0.05 -4.05 0.05 M-0.9 -1.0 L3.25 -2.4 -0.9 -1.0 M4.8 2.3 L5.2 2.15 4.8 2.3" fill="#faf8f8" fill-rule="evenodd" stroke="none"/>
    <path d="M9.8 -0.85 L9.1 0.85 8.4 1.75 7.55 2.5 6.7 3.05 5.8 3.55 5.65 3.6 4.05 4.55 3.4 5.2 3.1 5.7 3.1 5.75 Q2.8 5.8 2.5 5.4 L2.3 4.9 4.75 3.3 5.8 2.65 6.7 1.85 7.75 0.95 Q8.2 0.7 7.9 0.25 L7.75 0.15 8.7 -1.5 7.5 -2.05 6.7 -2.2 6.7 -2.15 2.05 -0.5 Q0.35 0.05 -1.2 0.95 L-4.5 2.85 -7.95 3.0 -8.2 2.7 -8.2 2.6 -8.45 2.6 -9.3 2.45 -9.4 2.45 -9.7 2.25 Q-10.25 1.25 -10.05 0.45 -9.85 0.4 -9.75 0.8 L-9.15 1.25 -8.55 1.55 -7.45 0.9 -7.35 0.95 -7.95 1.65 Q-7.45 2.05 -6.55 2.1 -6.5 1.9 -3.7 0.8 L1.1 -1.0 5.5 -2.45 5.8 -2.55 6.7 -2.85 8.7 -3.1 Q9.55 -2.15 9.8 -0.85 M-4.8 -5.7 Q-4.45 -5.7 -4.25 -5.3 L-2.85 -2.7 -3.85 -2.6 -5.05 -2.35 -5.45 -2.2 -5.5 -2.5 -4.8 -5.7 M-8.2 2.6 L-8.15 2.2 -8.15 2.1 -8.05 1.8 -7.95 1.65 -8.05 1.8 -8.15 2.1 -8.15 2.2 -8.2 2.6" fill="#d6baba" fill-rule="evenodd" stroke="none"/>
    <path d="M-2.85 -2.7 L0.1 -2.8 2.05 -2.65 3.25 -2.4 5.8 -3.3 6.7 -3.6 8.25 -3.8 Q9.05 -3.9 9.65 -3.3 L9.9 -3.05 9.95 -1.55 9.8 -0.85 9.1 0.85 8.4 1.75 7.55 2.5 6.7 3.05 5.8 3.55 5.65 3.6 4.05 4.55 3.4 5.2 3.1 5.7 M5.2 2.15 L5.8 1.85 6.15 1.65 6.7 1.25 7.75 0.15 8.7 -1.5 7.5 -2.05 6.7 -2.15 2.05 -0.5 Q0.35 0.05 -1.2 0.95 L-4.5 2.85 -7.95 3.0 -8.2 2.7 -8.2 2.6 -8.15 2.2 -8.15 2.1 -8.05 1.8 -7.95 1.65 -7.35 0.95 -7.05 0.75 Q-5.8 0.05 -4.05 0.05 M-9.3 2.45 L-9.4 2.45 -9.7 2.25 Q-10.25 1.25 -10.05 0.45 -9.9 -0.3 -9.2 -0.85 -7.7 -2.1 -7.4 -3.2 -7.15 -4.35 -6.45 -5.25 L-5.25 -5.7 -4.8 -5.7 Q-4.45 -5.7 -4.25 -5.3 L-2.85 -2.7 -3.85 -2.6 -5.05 -2.35 -5.45 -2.2 -7.6 -1.35 Q-8.45 -0.85 -8.95 -0.05 M5.2 2.15 L4.8 2.3 M3.25 -2.4 L-0.9 -1.0" fill="none" stroke="#a36a6a" stroke-linecap="round" stroke-linejoin="round" stroke-width="1"/>
  </g>
</svg>