<?xml version="1.0" encoding="UTF-8" standalone="no"?>
<svg xmlns:xlink="http://www.w3.org/1999/xlink" height="7.2px" width="7.4px" xmlns="http://www.w3.org/2000/svg">
  <g id="shape0" transform="matrix(1.0, 0.0, 0.0, 1.0, 1, 1)">
    <path d="M3.85 1.0 Q4.55 1.7 4.55 2.55 4.55 3.65 3.95 3.65 3.5 3.65 3.15 2.75 L2.4 1.95 Q1.85 1.55 1.85 1.25 1.85 0.85 2.15 0.75 3.15 0.25 3.85 1.0" fill="url(#gradient0)" fill-rule="evenodd" stroke="none"/>
    <path d="M3.85 1.0 Q3.15 0.25 2.15 0.75 1.85 0.85 1.85 1.25 1.85 1.55 2.4 1.95 L3.15 2.75 Q3.5 3.65 3.95 3.65 4.55 3.65 4.55 2.55 4.55 1.7 3.85 1.0 M4.6 0.75 Q5.4 1.5 5.4 2.6 5.4 3.7 4.6 4.45 3.8 5.2 2.7 5.2 1.6 5.2 0.8 4.45 0.0 3.7 0.0 2.6 0.0 1.5 0.8 0.75 1.6 0.0 2.7 0.0 3.8 0.0 4.6 0.75" fill="#100f0f" fill-rule="evenodd" stroke="none"/>
  </g>
  <linearGradient gradientTransform="matrix(-3.0E-4, -0.001, 0.0014, -4.0E-4, 3.35, 2.4)" gradientUnits="userSpaceOnUse" id="gradient0" spreadMethod="pad" x1="-819.2" x2="819.2">
    <stop offset="0.0" stop-color="#100f0f"></stop>
    <stop offset="1.0" stop-color="#3c3838"></stop>
  </linearGradient>
</svg>