<?xml version="1.0" encoding="UTF-8" standalone="no"?>
<svg xmlns:xlink="http://www.w3.org/1999/xlink" height="12.25px" width="21px" xmlns="http://www.w3.org/2000/svg">
  <g id="shape0" transform="matrix(1.0, 0.0, 0.0, 1.0, 10.5, 6.1)">
    <path d="M-5.85 0.2 Q-4.4 -0.35 -2.05 -1.25 L8.65 -5.1 9.5 -3.7 8.9 -2.7 8.0 -1.5 6.85 -0.5 2.8 2.45 3.1 2.4 1.55 4.05 -1.25 4.7 -1.25 4.65 -1.3 4.7 -2.05 4.8 -3.25 4.4 -4.2 5.1 Q-6.45 5.35 -8.3 4.3 L-4.3 4.3 -3.15 3.0 -3.15 4.0 -3.25 4.4 -3.15 4.0 -1.9 3.9 -0.85 3.75 2.8 2.45 -0.85 3.75 -0.85 3.8 -0.85 3.75 2.05 2.5 0.6 2.7 0.15 1.4 0.0 1.2 Q-0.8 0.05 -2.35 0.05 -3.4 0.05 -4.1 0.8 L-4.45 1.3 -5.15 1.1 -6.3 0.4 -5.85 0.2 M2.55 -1.9 Q3.1 -2.65 3.95 -2.55 L5.6 -2.25 6.2 -2.1 4.9 -0.35 6.2 -2.1 5.6 -2.25 3.95 -2.55 Q3.1 -2.65 2.55 -1.9 M-2.05 -1.25 Q0.4 -1.0 0.15 1.4 0.4 -1.0 -2.05 -1.25 M0.9 2.25 L2.25 1.35 2.15 0.25 1.15 -0.75 0.9 2.25 M-2.65 4.0 L-2.7 4.05 -2.65 4.05 -2.65 4.0" fill="#d6baba" fill-rule="evenodd" stroke="none"/>
    <path d="M3.1 2.4 Q3.65 2.35 3.65 2.7 3.65 3.15 1.55 4.05 L3.1 2.4 M-1.25 4.7 L-1.3 4.7 -1.25 4.65 -1.25 4.7 M-2.05 4.8 L-4.2 5.1 -3.25 4.4 -2.05 4.8 M-8.3 4.3 Q-10.05 2.9 -9.25 1.3 L-5.85 0.2 -6.3 0.4 -5.15 1.1 -4.45 1.3 -4.1 0.8 Q-3.4 0.05 -2.35 0.05 -0.8 0.05 0.0 1.2 L0.15 1.4 0.6 2.7 2.05 2.5 -0.85 3.75 -0.85 3.8 -0.85 3.75 -1.9 3.9 -3.15 4.0 -3.15 3.0 -4.3 4.3 -8.3 4.3 M0.9 2.25 L1.15 -0.75 2.15 0.25 2.25 1.35 0.9 2.25 M-3.15 3.0 L-4.45 1.3 -3.15 3.0" fill="#faf8f8" fill-rule="evenodd" stroke="none"/>
    <path d="M-4.2 5.1 Q-6.45 5.35 -8.3 4.3 -10.05 2.9 -9.25 1.3 M-5.15 1.1 L-4.45 1.3 -3.15 3.0 -3.15 4.0 -3.25 4.4 -4.2 5.1 M0.15 1.4 Q0.4 -1.0 -2.05 -1.25 M4.9 -0.35 L6.2 -2.1 5.6 -2.25 3.95 -2.55 Q3.1 -2.65 2.55 -1.9 M-1.9 3.9 L-0.85 3.75 2.8 2.45" fill="none" stroke="#a36a6a" stroke-linecap="round" stroke-linejoin="round" stroke-width="1"/>
  </g>
</svg>