<?xml version="1.0" encoding="UTF-8" standalone="no"?>
<svg xmlns:xlink="http://www.w3.org/1999/xlink" height="4.7px" width="6.55px" xmlns="http://www.w3.org/2000/svg">
  <g transform="matrix(1.0, 0.0, 0.0, 1.0, 3.25, 2.35)">
    <path d="M-1.4 0.25 L-1.65 0.35 Q-1.2 1.1 -0.45 1.1 0.35 1.1 0.8 0.6 L1.15 -0.2 0.95 -0.8 2.2 -1.35 Q2.45 -0.75 2.1 0.4 1.0 1.65 -0.55 1.25 L-1.85 0.85 -2.25 0.6 -1.4 0.25" fill="#faf8f8" fill-rule="evenodd" stroke="none"/>
    <path d="M0.95 -0.8 L1.15 -0.2 0.8 0.6 Q0.35 1.1 -0.45 1.1 -1.2 1.1 -1.65 0.35 L-1.4 0.25 0.5 -0.6 0.95 -0.8" fill="#4b0101" fill-rule="evenodd" stroke="none"/>
    <path d="M-2.25 0.6 L-1.85 0.85 -0.55 1.25 Q1.0 1.65 2.1 0.4 2.45 -0.75 2.2 -1.35" fill="none" stroke="#a36a6a" stroke-linecap="round" stroke-linejoin="round" stroke-width="1"/>
  </g>
</svg>