<?xml version="1.0" encoding="UTF-8" standalone="no"?>
<svg xmlns:xlink="http://www.w3.org/1999/xlink" height="8.45px" width="9.9px" xmlns="http://www.w3.org/2000/svg">
  <g id="shape0" transform="matrix(1.0, 0.0, 0.0, 1.0, 4.95, 4.2)">
    <path d="M2.35 -2.95 L-2.1 1.95 -3.55 3.25 -3.95 3.25 0.55 -3.15 0.9 -3.2 1.9 -3.1 2.15 -3.0 2.25 -3.0 Q2.25 -3.0 2.35 -2.95" fill="#faf8f8" fill-rule="evenodd" stroke="none"/>
    <path d="M2.35 -2.95 L2.8 -2.7 Q3.95 -1.9 3.95 0.2 L3.9 0.65 3.35 0.7 1.0 1.35 -1.1 2.3 -2.95 3.25 -3.55 3.25 -2.1 1.95 2.35 -2.95" fill="#d6baba" fill-rule="evenodd" stroke="none"/>
    <path d="M-3.55 3.25 L-2.95 3.25 -1.1 2.3 1.0 1.35 3.35 0.7 3.9 0.65 M-3.55 3.25 L-3.95 3.25 0.55 -3.15" fill="none" stroke="#a36a6a" stroke-linecap="round" stroke-linejoin="round" stroke-width="1"/>
  </g>
</svg>