<?xml version="1.0" encoding="UTF-8" standalone="no"?>
<svg xmlns:xlink="http://www.w3.org/1999/xlink" height="39.8px" width="31.35px" xmlns="http://www.w3.org/2000/svg">
  <g transform="matrix(1.0, 0.0, 0.0, 1.0, -32.4, 18.35)">
    <path d="M36.95 -16.8 L35.8 -15.15 35.7 -15.15 35.65 -15.85 35.7 -16.65 35.8 -16.4 Q36.45 -16.3 36.95 -16.8 M58.45 17.2 Q56.35 18.55 53.8 19.0 51.1 19.45 48.35 19.05 45.75 18.65 43.45 17.0 41.35 15.5 39.8 13.5 L40.95 13.95 41.9 13.95 Q42.0 12.8 42.7 12.8 L43.5 12.75 44.15 12.4 44.25 12.65 44.4 12.55 44.55 12.6 45.15 12.85 46.65 13.3 45.85 12.45 48.65 13.3 48.05 12.6 Q50.1 13.0 52.35 12.6 54.8 12.4 57.0 11.1 59.3 9.65 60.65 7.15 L59.65 13.45 Q59.45 15.1 58.85 16.5 L58.45 17.2 M34.75 -9.65 L35.3 -11.85 36.4 -15.1 Q38.2 -13.85 40.15 -14.25 L42.15 -14.55 47.4 -15.3 Q50.2 -15.5 53.05 -15.35 56.0 -14.75 58.6 -12.75 L60.7 -10.75 61.95 -8.7 Q63.15 -6.05 62.6 -3.15 L61.55 2.3 Q61.4 -0.95 59.95 -4.15 L58.9 -6.7 Q57.7 -9.7 55.65 -12.1 53.65 -14.5 51.0 -13.75 48.45 -13.15 46.05 -11.75 44.15 -10.75 42.1 -10.2 L37.7 -9.4 34.75 -9.65 M43.6 11.2 L42.95 11.2 42.55 11.55 41.35 9.65 43.6 11.2" fill="#cca9a9" fill-rule="evenodd" stroke="none"/>
    <path d="M35.7 -16.65 L35.65 -15.85 35.7 -15.15 35.8 -15.15 36.95 -16.8 37.35 -17.35 36.4 -15.1 35.3 -11.85 34.75 -9.65 34.45 -6.75 34.45 -6.35 34.5 -3.7 Q34.55 -0.8 35.15 2.0 L35.55 4.1 Q35.85 6.3 36.9 8.4 L39.8 13.5 Q41.35 15.5 43.45 17.0 45.75 18.65 48.35 19.05 51.1 19.45 53.8 19.0 56.35 18.55 58.45 17.2 L58.8 17.3 58.9 17.6 58.85 18.05 58.4 18.5 Q55.85 20.05 53.1 20.45 L47.8 20.05 Q44.8 19.45 42.3 17.45 39.75 15.5 38.05 12.55 36.75 10.3 35.85 7.9 35.05 5.8 34.6 3.6 L33.8 -0.8 Q33.45 -3.35 33.4 -5.95 33.3 -9.0 34.15 -11.95 L35.7 -16.65 M44.15 12.4 L43.5 12.75 42.7 12.8 42.55 12.6 Q42.3 12.2 42.55 11.55 L42.95 11.2 43.6 11.2 44.2 11.45 Q45.0 11.75 45.85 12.45 L46.65 13.3 45.15 12.85 44.55 12.6 44.4 12.55 44.15 12.4" fill="#a36a6a" fill-rule="evenodd" stroke="none"/>
    <path d="M39.8 13.5 L36.9 8.4 Q35.85 6.3 35.55 4.1 L35.15 2.0 Q36.3 3.3 37.8 4.2 40.15 5.75 42.95 5.75 L47.7 5.2 Q50.05 4.5 51.65 2.3 L52.75 0.25 53.35 -2.25 Q53.5 -4.05 52.6 -5.7 51.8 -7.2 50.4 -7.9 47.55 -9.4 44.6 -9.5 L39.0 -9.1 Q36.3 -8.6 34.45 -6.75 L34.75 -9.65 37.7 -9.4 42.1 -10.2 Q44.15 -10.75 46.05 -11.75 48.45 -13.15 51.0 -13.75 53.65 -14.5 55.65 -12.1 57.7 -9.7 58.9 -6.7 L59.95 -4.15 Q61.4 -0.95 61.55 2.3 L60.65 7.15 Q59.3 9.65 57.0 11.1 54.8 12.4 52.35 12.6 50.1 13.0 48.05 12.6 L48.65 13.3 45.85 12.45 Q45.0 11.75 44.2 11.45 L43.6 11.2 41.35 9.65 42.55 11.55 Q42.3 12.2 42.55 12.6 L42.7 12.8 Q42.0 12.8 41.9 13.95 L40.95 13.95 39.8 13.5 M44.4 12.55 L44.25 12.65 44.15 12.4 44.4 12.55" fill="#e0cbcb" fill-rule="evenodd" stroke="none"/>
    <path d="M35.15 2.0 Q34.55 -0.8 34.5 -3.7 L34.45 -6.35 34.45 -6.75 Q36.3 -8.6 39.0 -9.1 L44.6 -9.5 Q47.55 -9.4 50.4 -7.9 51.8 -7.2 52.6 -5.7 53.5 -4.05 53.35 -2.25 L52.75 0.25 51.65 2.3 Q50.05 4.5 47.7 5.2 L42.95 5.75 Q40.15 5.75 37.8 4.2 36.3 3.3 35.15 2.0" fill="url(#gradient0)" fill-rule="evenodd" stroke="none"/>
  </g>
  <defs>
    <radialGradient cx="0" cy="0" gradientTransform="matrix(0.0187, 0.0, 0.0012, 0.0126, 31.9, -5.75)" gradientUnits="userSpaceOnUse" id="gradient0" r="819.2" spreadMethod="pad">
      <stop offset="0.47843137254901963" stop-color="#ffffff"></stop>
      <stop offset="0.8823529411764706" stop-color="#f2eaea"></stop>
    </radialGradient>
  </defs>
</svg>