<?xml version="1.0" encoding="UTF-8" standalone="no"?>
<svg xmlns:xlink="http://www.w3.org/1999/xlink" height="16.65px" width="9.1px" xmlns="http://www.w3.org/2000/svg">
  <g transform="matrix(1.0, 0.0, 0.0, 1.0, -2.2, 7.3)">
    <path d="M9.1 -2.5 L8.65 -1.4 Q8.65 -0.85 9.5 0.65 10.3 2.15 10.3 2.7 10.3 4.0 8.5 6.1 6.2 8.75 3.2 8.25 L6.55 6.5 Q8.55 5.4 8.55 4.5 L8.75 4.0 8.95 3.5 8.0 1.55 Q7.0 -0.5 7.0 -1.4 7.0 -1.9 7.35 -2.75 L7.65 -3.8 7.05 -4.7 Q6.45 -5.55 6.45 -6.1 7.35 -6.65 8.45 -5.55 9.5 -4.5 9.5 -3.7 L9.1 -2.5" fill="#a51616" fill-rule="evenodd" stroke="none"/>
  </g>
</svg>