<?xml version="1.0" encoding="UTF-8" standalone="no"?>
<svg xmlns:xlink="http://www.w3.org/1999/xlink" height="16.4px" width="43.45px" xmlns="http://www.w3.org/2000/svg">
  <g transform="matrix(1.0, 0.0, 0.0, 1.0, -17, 4.1)">
    <path d="M57.55 5.15 L59.3 5.95 Q59.95 8.0 57.9 9.2 55.3 10.7 52.35 11.2 L48.95 11.1 Q46.5 10.75 44.5 9.45 42.8 8.4 41.85 6.6 41.4 5.8 42.05 5.2 42.45 4.9 43.0 4.75 L48.05 7.05 48.3 7.6 49.35 8.1 49.75 8.1 51.15 7.8 52.3 7.55 57.55 5.15 M23.85 3.15 Q24.85 3.25 24.95 4.15 L24.75 4.7 24.75 4.9 Q24.75 6.85 21.45 6.85 19.55 6.85 18.6 5.6 18.0 4.75 18.0 4.0 18.0 2.0 19.5 2.0 20.75 2.0 20.9 3.4 L23.0 3.0 23.95 3.25 23.85 3.15" fill="#ff00ff" fill-rule="evenodd" stroke="none"/>
    <path d="M18.35 2.9 Q18.35 1.85 19.7 1.85 21.0 1.85 20.8 2.9 20.8 3.9 19.7 3.9 18.85 3.9 18.5 3.4 L18.35 2.9 M21.3 4.25 Q21.3 3.7 22.05 3.2 22.75 2.75 23.4 2.75 24.5 2.75 24.4 3.8 24.4 5.25 22.5 5.25 21.65 5.25 21.4 4.75 L21.3 4.25 M21.8 1.55 Q20.65 1.55 20.35 0.9 L20.25 0.15 Q20.25 -1.1 21.8 -1.1 23.2 -1.1 23.15 0.2 23.15 1.55 21.8 1.55 M45.0 0.35 Q44.9 2.25 43.4 2.25 42.45 2.25 42.15 1.5 L42.05 0.65 Q42.05 -1.0 43.75 -1.0 45.05 -1.0 45.0 0.35 M54.5 4.25 L55.4 5.15 Q54.1 7.6 51.15 7.65 49.85 7.65 48.9 7.05 L48.8 6.45 Q51.3 4.6 54.5 4.25 M48.35 -3.1 Q50.1 -2.8 50.15 -0.95 50.1 -0.1 49.6 0.4 48.5 1.5 46.9 1.5 46.2 1.5 45.7 1.1 45.1 0.5 45.35 -0.3 45.95 -2.65 48.35 -3.1" fill="#fecdcd" fill-rule="evenodd" stroke="none"/>
  </g>
</svg>