<?xml version="1.0" encoding="UTF-8" standalone="no"?>
<svg xmlns:xlink="http://www.w3.org/1999/xlink" height="26.3px" width="51.9px" xmlns="http://www.w3.org/2000/svg">
  <g transform="matrix(1.0, 0.0, 0.0, 1.0, -15, 8.7)">
    <path d="M63.85 12.2 L63.9 12.15 63.65 12.5 63.85 12.2" fill="#c7c9da" fill-rule="evenodd" stroke="none"/>
    <path d="M63.85 12.2 L57.55 14.1 53.6 15.2 Q52.95 15.4 52.35 15.75 L51.3 16.6 Q47.7 16.65 44.5 15.6 40.35 14.35 38.05 10.8 36.7 8.6 36.45 6.0 36.2 3.2 37.15 0.75 38.85 -3.55 43.05 -5.6 47.45 -7.6 52.3 -7.7 L57.8 -7.25 Q60.2 -6.65 61.9 -5.0 L63.8 -2.6 Q64.7 -1.1 65.2 0.55 L65.85 4.05 65.85 7.65 Q65.65 10.25 63.9 12.15 L63.85 12.2 M22.05 -2.75 Q24.15 -3.45 25.85 -2.45 27.9 -1.1 28.35 1.35 28.9 4.5 27.55 7.4 26.9 8.85 25.5 9.7 22.9 11.35 19.9 10.65 18.35 10.3 17.35 9.25 16.35 8.1 16.15 6.8 15.55 3.35 17.65 0.5 19.25 -1.8 22.05 -2.75 M44.35 -0.3 Q40.5 2.9 40.5 4.6 L40.7 5.6 Q40.95 6.1 41.8 5.85 L41.85 6.0 Q42.7 7.5 44.8 7.5 45.9 7.5 47.5 4.15 47.55 4.1 50.35 2.3 L50.7 2.1 55.35 0.9 Q56.5 2.5 56.5 4.8 56.5 5.75 55.35 8.3 55.35 8.5 56.1 9.1 59.25 8.35 59.25 2.55 56.9 -4.0 53.75 -4.0 48.9 -4.0 44.35 -0.3 M23.85 5.75 Q24.25 5.75 24.9 4.25 25.5 2.8 25.5 2.15 25.5 -1.0 23.0 -1.0 21.4 -1.0 19.75 0.85 18.4 2.45 18.4 3.0 18.4 4.0 19.3 4.0 L23.35 1.5 23.35 1.65 Q21.9 5.75 23.85 5.75" fill="#ff0000" fill-rule="evenodd" stroke="none"/>
    <path d="M23.85 5.75 Q21.9 5.75 23.35 1.65 L23.35 1.5 19.3 4.0 Q18.4 4.0 18.4 3.0 18.4 2.45 19.75 0.85 21.4 -1.0 23.0 -1.0 25.5 -1.0 25.5 2.15 25.5 2.8 24.9 4.25 24.25 5.75 23.85 5.75 M44.35 -0.3 Q48.9 -4.0 53.75 -4.0 56.9 -4.0 59.25 2.55 59.25 8.35 56.1 9.1 55.35 8.5 55.35 8.3 56.5 5.75 56.5 4.8 56.5 2.5 55.35 0.9 L50.7 2.1 50.35 2.3 Q47.55 4.1 47.5 4.15 45.9 7.5 44.8 7.5 42.7 7.5 41.85 6.0 L41.8 5.85 Q40.95 6.1 40.7 5.6 L40.5 4.6 Q40.5 2.9 44.35 -0.3" fill="#d20202" fill-rule="evenodd" stroke="none"/>
  </g>
</svg>