<?xml version="1.0" encoding="UTF-8" standalone="no"?>
<svg xmlns:xlink="http://www.w3.org/1999/xlink" height="26.3px" width="52px" xmlns="http://www.w3.org/2000/svg">
  <g transform="matrix(1.0, 0.0, 0.0, 1.0, -15.05, 8.7)">
    <path d="M16.6 7.95 L16.2 6.7 16.6 7.95 M63.9 12.15 L63.55 12.55 63.85 12.2 63.9 12.15" fill="#c7c9da" fill-rule="evenodd" stroke="none"/>
    <path d="M16.2 6.7 L16.05 5.3 16.05 5.15 16.05 5.05 16.05 4.95 16.05 4.85 Q16.05 2.5 17.4 0.35 19.55 -3.05 24.2 -3.05 L24.85 -3.0 25.05 -2.95 Q28.8 -2.35 28.5 4.4 28.5 6.1 27.45 7.85 25.65 10.8 21.6 10.8 17.75 10.8 16.6 7.95 L16.2 6.7 M63.85 12.2 L57.55 14.1 52.85 15.4 52.3 15.65 Q51.55 16.0 51.3 16.6 43.45 16.5 39.65 12.75 L38.7 11.65 37.55 9.75 Q36.4 7.4 36.4 4.45 36.4 1.7 37.55 -0.45 L39.1 -2.6 39.75 -3.25 Q41.15 -4.5 43.1 -5.5 47.75 -7.8 52.3 -7.65 L53.0 -7.65 54.2 -7.7 Q61.95 -7.7 64.75 -1.2 66.15 2.1 66.05 5.9 66.05 9.5 63.9 12.15 L63.85 12.2 M23.35 1.5 L23.35 1.65 Q21.9 5.75 23.85 5.75 24.25 5.75 24.9 4.25 25.5 2.8 25.5 2.15 25.5 -1.0 23.0 -1.0 21.4 -1.0 19.75 0.85 18.4 2.45 18.4 3.0 18.4 4.0 19.3 4.0 L23.35 1.5 M53.75 -4.0 Q48.9 -4.0 44.35 -0.3 40.5 2.9 40.5 4.6 L40.7 5.6 Q40.95 6.1 41.8 5.85 L41.85 6.0 Q42.7 7.5 44.8 7.5 45.9 7.5 47.5 4.15 47.55 4.1 50.35 2.3 L50.7 2.1 55.35 0.9 Q56.5 2.5 56.5 4.8 56.5 5.75 55.35 8.3 55.35 8.5 56.1 9.1 59.25 8.35 59.25 2.55 56.9 -4.0 53.75 -4.0" fill="#ff0000" fill-rule="evenodd" stroke="none"/>
    <path d="M53.75 -4.0 Q56.9 -4.0 59.25 2.55 59.25 8.35 56.1 9.1 55.35 8.5 55.35 8.3 56.5 5.75 56.5 4.8 56.5 2.5 55.35 0.9 L50.7 2.1 50.35 2.3 Q47.55 4.1 47.5 4.15 45.9 7.5 44.8 7.5 42.7 7.5 41.85 6.0 L41.8 5.85 Q40.95 6.1 40.7 5.6 L40.5 4.6 Q40.5 2.9 44.35 -0.3 48.9 -4.0 53.75 -4.0 M23.35 1.5 L19.3 4.0 Q18.4 4.0 18.4 3.0 18.4 2.45 19.75 0.85 21.4 -1.0 23.0 -1.0 25.5 -1.0 25.5 2.15 25.5 2.8 24.9 4.25 24.25 5.75 23.85 5.75 21.9 5.75 23.35 1.65 L23.35 1.5" fill="#d20202" fill-rule="evenodd" stroke="none"/>
  </g>
</svg>