<?xml version="1.0" encoding="UTF-8" standalone="no"?>
<svg xmlns:xlink="http://www.w3.org/1999/xlink" height="16.35px" width="43.5px" xmlns="http://www.w3.org/2000/svg">
  <g transform="matrix(1.0, 0.0, 0.0, 1.0, -17, 4.1)">
    <path d="M23.95 3.25 L23.85 3.15 Q24.85 3.25 24.95 4.15 L24.75 4.7 24.75 4.9 Q24.75 6.85 21.45 6.85 19.55 6.85 18.6 5.6 18.0 4.75 18.0 4.0 18.0 2.0 19.5 2.0 20.75 2.0 20.9 3.4 L23.0 3.0 23.95 3.25 M52.3 7.55 L53.2 6.95 Q55.15 6.4 57.55 5.15 59.5 5.15 59.5 7.05 59.5 8.45 56.5 9.85 53.55 11.25 51.05 11.25 46.6 11.25 43.7 8.85 41.6 7.1 41.6 6.0 41.6 4.75 43.0 4.75 43.4 4.75 45.6 6.05 46.75 6.7 48.05 7.05 L48.3 7.6 49.25 8.1 49.35 8.1 49.5 8.1 49.55 8.1 49.75 8.1 49.8 8.1 Q51.25 8.1 52.3 7.55" fill="#ff00ff" fill-rule="evenodd" stroke="none"/>
    <path d="M50.15 -0.95 Q50.15 -0.1 49.05 0.75 48.0 1.6 46.9 1.6 45.8 1.6 45.4 0.8 L45.25 0.0 Q45.25 -0.7 46.0 -1.75 47.0 -3.1 48.35 -3.1 49.95 -3.1 50.15 -0.95 M55.4 5.15 Q55.4 5.9 53.95 6.75 52.5 7.6 51.15 7.6 48.75 7.6 48.75 6.55 48.75 6.05 51.2 5.1 53.5 4.25 54.5 4.25 55.3 4.25 55.4 5.15 M43.4 2.25 Q42.45 2.25 42.15 1.5 L42.05 0.65 Q42.05 -1.0 43.75 -1.0 45.05 -1.0 45.0 0.35 44.9 2.25 43.4 2.25 M20.35 0.9 L20.25 0.15 Q20.25 -1.1 21.8 -1.1 23.2 -1.1 23.15 0.2 23.15 1.55 21.8 1.55 20.65 1.55 20.35 0.9 M22.05 3.2 Q22.75 2.75 23.4 2.75 24.5 2.75 24.4 3.8 24.4 5.25 22.5 5.25 21.65 5.25 21.4 4.75 L21.3 4.25 Q21.3 3.7 22.05 3.2 M19.7 1.85 Q21.0 1.85 20.8 2.9 20.8 3.9 19.7 3.9 18.85 3.9 18.5 3.4 L18.35 2.9 Q18.35 1.85 19.7 1.85" fill="#fecdcd" fill-rule="evenodd" stroke="none"/>
  </g>
</svg>