<?xml version="1.0" encoding="UTF-8" standalone="no"?>
<svg xmlns:xlink="http://www.w3.org/1999/xlink" height="26.3px" width="52px" xmlns="http://www.w3.org/2000/svg">
  <g transform="matrix(1.0, 0.0, 0.0, 1.0, -15.05, 8.7)">
    <path d="M16.6 7.95 L16.2 6.7 16.6 7.95" fill="#c7c9da" fill-rule="evenodd" stroke="none"/>
    <path d="M39.65 12.75 L38.7 11.65 37.55 9.75 Q36.4 7.4 36.4 4.45 36.4 3.2 36.65 2.1 37.25 2.1 39.7 0.55 42.15 -1.0 47.75 -2.1 53.35 -3.2 54.15 -1.75 L55.15 0.8 Q55.4 1.95 55.25 3.55 55.1 5.1 53.65 7.3 L52.3 8.9 Q50.45 10.65 47.75 11.45 43.85 12.5 42.95 12.2 L39.65 12.75 M18.85 -1.3 Q20.9 -3.05 24.2 -3.05 L24.85 -3.0 25.05 -2.95 25.65 -1.75 25.55 -2.0 Q24.5 -2.55 22.5 -2.55 20.95 -2.55 18.85 -1.3 M16.2 6.7 L16.05 5.3 16.05 5.15 16.05 5.05 16.05 4.95 16.05 4.85 Q16.05 3.45 16.55 2.1 L17.7 1.45 Q19.45 0.6 20.4 0.6 23.9 0.6 25.05 2.15 L25.35 2.55 Q23.25 8.8 18.7 8.8 17.35 8.8 16.6 7.95 L16.2 6.7" fill="#ffffff" fill-rule="evenodd" stroke="none"/>
    <path d="M36.65 2.1 Q36.9 0.75 37.55 -0.45 L39.1 -2.6 39.75 -3.25 Q41.15 -4.5 43.1 -5.5 47.75 -7.8 52.3 -7.65 L53.0 -7.65 54.2 -7.7 Q61.95 -7.7 64.75 -1.2 66.15 2.1 66.05 5.9 66.05 9.5 63.9 12.15 L63.55 12.55 63.85 12.2 57.55 14.1 52.85 15.4 52.3 15.65 Q51.55 16.0 51.3 16.6 43.45 16.5 39.65 12.75 L42.95 12.2 Q43.85 12.5 47.75 11.45 50.45 10.65 52.3 8.9 L53.65 7.3 Q55.1 5.1 55.25 3.55 55.4 1.95 55.15 0.8 L54.15 -1.75 Q53.35 -3.2 47.75 -2.1 42.15 -1.0 39.7 0.55 37.25 2.1 36.65 2.1 M25.05 -2.95 Q28.8 -2.35 28.5 4.4 28.5 6.1 27.45 7.85 25.65 10.8 21.6 10.8 17.75 10.8 16.6 7.95 17.35 8.8 18.7 8.8 23.25 8.8 25.35 2.55 L25.05 2.15 Q23.9 0.6 20.4 0.6 19.45 0.6 17.7 1.45 L16.55 2.1 17.4 0.35 18.85 -1.3 Q20.95 -2.55 22.5 -2.55 24.5 -2.55 25.55 -2.0 L25.65 -1.75 25.05 -2.95" fill="#adb0c9" fill-rule="evenodd" stroke="none"/>
  </g>
</svg>