<?xml version="1.0" encoding="UTF-8" standalone="no"?>
<svg xmlns:xlink="http://www.w3.org/1999/xlink" height="22.6px" width="40.95px" xmlns="http://www.w3.org/2000/svg">
  <g transform="matrix(1.0, 0.0, 0.0, 1.0, 16.25, 4.85)">
    <path d="M14.45 7.8 Q14.9 7.65 17.3 3.55 18.0 2.35 18.5 1.9 L18.55 1.95 19.45 2.25 20.45 2.55 Q21.65 3.55 20.85 7.25 L20.6 7.45 Q23.65 8.15 23.7 9.75 L22.55 12.2 Q22.3 13.15 17.3 14.95 11.9 16.85 9.05 16.2 7.35 15.85 6.6 15.3 1.85 17.2 -0.65 16.65 L-9.95 10.7 Q-9.75 9.95 -8.4 9.25 L-8.55 8.95 -11.9 8.75 Q-14.95 8.05 -15.25 5.85 L-15.2 3.6 -11.85 0.3 Q-14.1 -1.3 -14.0 -1.7 -13.8 -2.65 -11.6 -3.85 -11.55 -2.45 -10.25 -2.2 -9.0 -2.05 -7.85 -1.1 -6.7 -0.2 -4.85 6.2 L-3.7 7.8 Q-0.6 12.0 3.2 12.85 5.85 13.4 10.45 11.8 14.55 10.2 14.7 9.55 14.85 8.8 14.45 7.8" fill="#7e3e8f" fill-opacity="0.27058825" fill-rule="evenodd" stroke="none"/>
    <path d="M-4.85 6.2 Q-2.2 8.0 0.95 9.0 2.05 9.45 3.1 9.0 3.65 9.8 5.45 9.95 L8.65 9.45 10.75 8.8 Q11.2 8.55 11.7 8.4 L11.15 8.45 14.45 7.8 Q14.85 8.8 14.7 9.55 14.55 10.2 10.45 11.8 5.85 13.4 3.2 12.85 -0.6 12.0 -3.7 7.8 L-4.85 6.2" fill="#7e3e8f" fill-opacity="0.49803922" fill-rule="evenodd" stroke="none"/>
  </g>
</svg>