<?xml version="1.0" encoding="UTF-8" standalone="no"?>
<svg xmlns:xlink="http://www.w3.org/1999/xlink" height="19.4px" width="42.2px" xmlns="http://www.w3.org/2000/svg">
  <g transform="matrix(1.0, 0.0, 0.0, 1.0, -16.4, 6.25)">
    <path d="M40.2 -1.3 Q42.3 -5.25 46.85 -5.25 50.55 -5.25 53.0 -3.95 55.1 -2.85 56.35 -0.85 57.6 1.2 57.6 3.95 57.6 6.4 56.5 8.5 55.15 10.85 52.8 11.7 L52.85 11.7 50.05 12.15 Q38.85 12.15 39.0 3.0 39.0 0.9 40.2 -1.3 M25.8 -4.25 Q29.95 -3.35 29.95 1.35 29.95 3.65 28.9 5.65 L28.9 5.6 Q27.1 9.05 23.2 9.05 17.4 9.05 17.4 3.3 17.2 -2.6 25.15 -4.25 L25.8 -4.25" fill="#660000" fill-rule="evenodd" stroke="none"/>
  </g>
</svg>