<?xml version="1.0" encoding="UTF-8" standalone="no"?>
<svg xmlns:xlink="http://www.w3.org/1999/xlink" height="16.4px" width="40.95px" xmlns="http://www.w3.org/2000/svg">
  <g transform="matrix(1.0, 0.0, 0.0, 1.0, -16.15, 4.75)">
    <path d="M46.85 -3.75 Q50.15 -3.75 52.3 -2.65 54.05 -1.75 55.05 -0.1 56.1 1.65 56.1 3.95 56.1 6.0 55.15 7.75 54.1 9.6 52.3 10.3 L50.05 10.65 Q40.5 10.65 40.5 3.0 40.5 1.25 41.5 -0.6 43.2 -3.75 46.85 -3.75 M21.45 8.25 Q17.15 8.25 17.15 4.0 17.15 -0.7 23.7 -2.1 26.7 -1.4 26.7 2.05 26.7 3.95 25.8 5.6 24.45 8.25 21.45 8.25 M20.55 2.1 L20.55 2.0 20.55 2.1" fill="#660000" fill-rule="evenodd" stroke="none"/>
  </g>
</svg>