<?xml version="1.0" encoding="UTF-8" standalone="no"?>
<svg xmlns:xlink="http://www.w3.org/1999/xlink" height="45.55px" width="73.1px" xmlns="http://www.w3.org/2000/svg">
  <g transform="matrix(1.0, 0.0, 0.0, 1.0, 34.4, 20.15)">
    <path d="M-12.0 -16.15 Q-7.2 -17.75 -0.2 -18.05 L3.2 -18.15 3.6 -18.15 4.2 -18.15 4.45 -18.1 8.3 -17.75 9.55 -17.65 9.6 -17.6 Q14.45 -15.75 14.45 -11.4 14.45 -6.25 9.75 -3.55 5.0 -0.85 -8.5 -0.75 -22.05 -0.65 -24.35 -4.05 L-22.95 -6.4 -21.1 -9.45 Q-19.4 -11.9 -17.7 -13.3 L-13.85 -15.3 -12.0 -16.15 M7.55 -16.9 L7.55 -16.95 7.35 -17.0 7.55 -16.9" fill="url(#gradient0)" fill-rule="evenodd" stroke="none"/>
    <path d="M9.6 -17.6 L9.55 -17.65 8.3 -17.75 4.45 -18.1 4.2 -18.15 3.6 -18.15 3.2 -18.15 -0.2 -18.05 Q-7.2 -17.75 -12.0 -16.15 -7.15 -18.2 -1.85 -18.7 L6.85 -19.05 Q11.95 -18.95 20.05 -16.65 21.65 -16.4 24.7 -14.75 L27.95 -12.75 29.05 -11.85 29.1 -11.8 Q30.45 -10.55 31.9 -7.35 33.4 -4.1 33.4 -2.25 33.4 2.0 30.65 5.65 L28.05 8.3 25.1 10.15 24.85 10.25 24.8 10.3 24.65 10.35 23.3 10.9 22.55 11.15 20.55 11.55 19.6 11.65 16.65 14.05 Q15.05 15.1 13.4 15.8 L11.5 16.6 9.6 17.25 Q2.9 19.35 -6.15 19.35 L-10.95 19.35 -23.55 18.55 -25.1 18.15 Q-33.4 15.7 -33.4 7.95 -33.4 2.75 -28.3 1.05 -26.85 -2.65 -21.85 -9.65 -20.35 -11.8 -17.7 -13.3 -19.4 -11.9 -21.1 -9.45 L-22.95 -6.4 -24.35 -4.05 -27.4 0.8 -26.5 0.6 Q-26.2 0.7 -26.2 0.9 L-28.55 2.55 Q-32.15 4.9 -32.15 9.1 L-32.0 10.4 Q-30.6 15.6 -23.3 17.35 L-19.5 17.85 -9.55 18.15 -3.5 18.0 -3.15 17.95 -2.85 17.95 5.75 16.9 6.8 16.65 6.85 16.65 7.5 16.5 10.0 15.8 12.35 15.05 14.6 14.05 16.0 13.15 Q19.7 10.85 21.15 6.8 L22.2 4.5 23.3 2.2 23.25 2.55 22.35 6.4 20.35 10.5 22.55 10.2 22.6 10.2 23.3 9.95 24.85 9.1 Q32.05 4.4 32.05 -2.25 32.05 -7.2 28.55 -10.65 27.55 -11.65 26.25 -12.5 20.65 -16.25 9.6 -17.6" fill="#a36a6a" fill-rule="evenodd" stroke="none"/>
    <path d="M-24.35 -4.05 Q-22.05 -0.65 -8.5 -0.75 5.0 -0.85 9.75 -3.55 14.45 -6.25 14.45 -11.4 14.45 -15.75 9.6 -17.6 20.65 -16.25 26.25 -12.5 27.35 -10.05 27.35 -7.65 27.35 -2.3 23.45 -0.15 L21.25 -3.15 Q19.55 -5.1 19.1 -5.1 18.8 -4.95 18.7 -4.95 L18.65 -4.55 Q19.4 -1.55 19.4 -0.5 19.4 10.45 4.7 15.7 0.6 17.15 -3.5 18.0 L-9.55 18.15 -19.5 17.85 -23.3 17.35 Q-30.6 15.6 -32.0 10.4 -29.65 12.35 -26.8 13.25 -19.85 15.3 -12.7 15.45 -5.55 15.55 1.45 13.7 4.75 12.9 6.85 10.5 8.55 8.6 6.9 6.8 3.7 3.35 -2.05 2.75 L-14.75 2.1 -28.55 2.55 -26.2 0.9 Q-26.2 0.7 -26.5 0.6 L-27.4 0.8 -24.35 -4.05 M7.5 16.5 L6.85 16.65 7.5 16.35 7.5 16.5 M7.55 -16.9 L7.35 -17.0 7.55 -16.95 7.55 -16.9 M20.0 -3.4 L20.0 -3.45 20.05 -3.45 20.0 -3.4" fill="#e0cbcb" fill-rule="evenodd" stroke="none"/>
    <path d="M26.25 -12.5 Q27.55 -11.65 28.55 -10.65 32.05 -7.2 32.05 -2.25 32.05 4.4 24.85 9.1 L23.3 9.95 22.6 10.2 22.55 10.2 20.35 10.5 22.35 6.4 23.25 2.55 23.3 2.2 22.2 4.5 21.15 6.8 Q19.7 10.85 16.0 13.15 L14.6 14.05 12.35 15.05 10.0 15.8 7.5 16.5 7.5 16.35 6.85 16.65 6.8 16.65 5.75 16.9 -2.85 17.95 -3.15 17.95 -3.5 18.0 Q0.6 17.15 4.7 15.7 19.4 10.45 19.4 -0.5 19.4 -1.55 18.65 -4.55 L18.7 -4.95 Q18.8 -4.95 19.1 -5.1 19.55 -5.1 21.25 -3.15 L23.45 -0.15 Q27.35 -2.3 27.35 -7.65 27.35 -10.05 26.25 -12.5 M20.0 -3.4 L20.05 -3.45 20.0 -3.45 20.0 -3.4" fill="#cca9a9" fill-rule="evenodd" stroke="none"/>
    <path d="M-32.0 10.4 L-32.15 9.1 Q-32.15 4.9 -28.55 2.55 L-14.75 2.1 -2.05 2.75 Q3.7 3.35 6.9 6.8 8.55 8.6 6.85 10.5 4.75 12.9 1.45 13.7 -5.55 15.55 -12.7 15.45 -19.85 15.3 -26.8 13.25 -29.65 12.35 -32.0 10.4" fill="url(#gradient1)" fill-rule="evenodd" stroke="none"/>
    <path d="M27.95 -12.75 L27.5 -13.1 Q27.75 -13.5 28.8 -13.5 37.7 -13.5 37.7 -4.1 37.7 -1.25 37.3 -0.2 L34.95 4.7 Q33.9 7.1 29.7 10.25 L26.4 12.5 Q21.3 24.3 16.65 24.4 14.65 24.45 13.15 23.5 L9.5 22.5 Q6.95 21.8 3.65 21.85 L-3.15 21.6 Q-9.2 20.55 -10.95 19.35 L-6.15 19.35 Q2.9 19.35 9.6 17.25 L11.5 16.6 13.4 15.8 Q15.05 15.1 16.65 14.05 L19.6 11.65 20.55 11.55 22.55 11.15 23.3 10.9 24.65 10.35 24.65 10.4 24.8 10.3 24.85 10.25 25.1 10.15 28.05 8.3 30.65 5.65 Q33.4 2.0 33.4 -2.25 33.4 -4.1 31.9 -7.35 30.45 -10.55 29.1 -11.8 L29.05 -11.85 27.95 -12.75 M23.25 14.25 L23.15 14.25 23.15 14.3 23.25 14.25" fill="#b38080" fill-rule="evenodd" stroke="none"/>
  </g>
  <defs>
    <radialGradient cx="0" cy="0" gradientTransform="matrix(0.03, 0.0, 0.0, 0.0119, -10.75, -11.05)" gradientUnits="userSpaceOnUse" id="gradient0" r="819.2" spreadMethod="pad">
      <stop offset="0.47843137254901963" stop-color="#ffffff"></stop>
      <stop offset="0.8823529411764706" stop-color="#f2eaea"></stop>
    </radialGradient>
    <radialGradient cx="0" cy="0" gradientTransform="matrix(0.0242, 0.0, 0.0, 0.0078, -17.4, 7.5)" gradientUnits="userSpaceOnUse" id="gradient1" r="819.2" spreadMethod="pad">
      <stop offset="0.47843137254901963" stop-color="#ffffff"></stop>
      <stop offset="0.8823529411764706" stop-color="#f2eaea"></stop>
    </radialGradient>
  </defs>
</svg>