<?xml version="1.0" encoding="UTF-8" standalone="no"?>
<svg xmlns:xlink="http://www.w3.org/1999/xlink" height="21.1px" width="51.5px" xmlns="http://www.w3.org/2000/svg">
  <g transform="matrix(1.0, 0.0, 0.0, 1.0, 1, 1)">
    <path d="M49.5 7.35 L49.3 8.6 48.6 9.25 Q44.7 9.25 42.95 6.3 41.95 4.6 41.95 3.05 41.95 -2.1 45.75 1.45 49.5 4.95 49.5 7.35 M29.35 18.95 Q28.2 18.95 27.45 18.0 L26.65 16.85 26.65 16.25 28.6 16.5 Q30.0 16.85 30.4 17.45 L30.4 18.8 29.35 18.95 M3.2 4.75 L2.35 2.95 Q2.35 -0.05 4.85 1.9 7.3 3.8 7.3 5.4 L7.15 6.35 6.25 6.65 Q4.4 6.65 3.2 4.75 M3.4 18.9 L2.95 19.1 1.0 19.1 Q0.0 18.2 0.0 17.6 0.0 16.65 1.8 16.85 3.55 17.0 3.55 18.2 L3.4 18.9" fill="#ffffff" fill-rule="evenodd" stroke="none"/>
  </g>
</svg>