<?xml version="1.0" encoding="UTF-8" standalone="no"?>
<svg xmlns:xlink="http://www.w3.org/1999/xlink" height="42.65px" width="46.3px" xmlns="http://www.w3.org/2000/svg">
  <g transform="matrix(1.0, 0.0, 0.0, 1.0, 33.1, 15.5)">
    <path d="M5.45 -8.2 L5.85 -9.25 6.2 -12.7 Q7.85 -9.65 5.7 -6.9 L3.35 -4.05 1.25 -1.65 5.45 -8.2 M0.1 -8.4 L0.5 -8.9 0.6 -8.9 Q0.75 -5.95 -1.4 -3.8 L-3.3 -1.85 Q-5.0 0.0 -7.05 1.25 -9.55 2.65 -12.35 3.35 L-11.9 3.05 -4.25 -3.35 Q-1.8 -5.6 0.1 -8.4 M-5.15 -12.45 Q-4.05 -11.3 -3.9 -9.3 -3.9 -8.25 -5.55 -5.75 -7.25 -3.25 -8.15 -2.85 L-8.3 -2.95 Q-6.25 -5.3 -5.2 -8.0 -4.55 -9.65 -5.6 -11.05 L-5.75 -11.75 -8.05 -14.0 -7.45 -13.85 Q-6.4 -13.5 -5.6 -12.9 L-5.15 -12.45 M-13.2 4.7 Q-12.85 4.65 -13.3 5.05 L-16.55 7.65 -20.9 10.85 Q-23.15 12.35 -25.25 14.4 L-29.85 18.9 -29.95 18.95 -31.8 20.1 Q-30.4 18.25 -28.65 16.8 -21.1 10.55 -13.2 4.7 M-29.8 23.4 L-29.15 22.55 -28.5 21.8 Q-22.5 14.3 -15.75 9.65 L-4.5 3.7 -6.6 6.15 Q-9.65 7.25 -12.3 8.75 -18.85 12.45 -23.85 17.45 L-28.3 22.4 -30.5 24.75 -30.55 24.8 -31.85 26.15 -30.05 23.7 -29.8 23.4 M9.35 -2.95 Q6.75 0.25 3.1 2.1 L0.2 3.45 2.0 1.9 Q5.9 -0.3 9.35 -2.95" fill="#a36a6a" fill-rule="evenodd" stroke="none"/>
    <path d="M5.45 -8.2 L1.25 -1.65 3.35 -4.05 5.7 -6.9 Q7.85 -9.65 6.2 -12.7 L8.55 -10.95 Q8.15 -4.1 4.0 -1.3 L4.6 -3.2 -0.9 0.35 Q-6.0 1.2 -11.25 5.5 L-15.75 9.65 Q-22.5 14.3 -28.5 21.8 L-29.15 22.55 -29.8 23.4 -29.9 23.35 -31.45 23.2 -31.9 22.55 -32.05 19.65 -31.8 20.1 -29.95 18.95 -29.85 18.95 -29.85 18.9 -25.25 14.4 Q-23.15 12.35 -20.9 10.85 L-16.55 7.65 -13.3 5.05 Q-12.85 4.65 -13.2 4.7 L-25.05 8.0 -25.25 7.3 Q-23.35 4.7 -22.1 1.55 L-21.5 -0.2 Q-21.1 -1.5 -19.9 -1.9 -17.8 -2.55 -16.95 -0.45 L-16.25 1.1 -15.35 0.65 Q-14.6 -0.85 -14.15 -2.5 -13.85 -3.55 -13.05 -4.4 -11.5 -6.0 -9.2 -6.1 -8.45 -6.15 -8.15 -5.65 L-8.3 -2.95 -8.15 -2.85 Q-7.25 -3.25 -5.55 -5.75 -3.9 -8.25 -3.9 -9.3 -4.05 -11.3 -5.15 -12.45 L-5.05 -12.6 -3.25 -11.25 -3.1 -13.55 -3.45 -13.8 1.55 -12.85 Q3.75 -12.45 5.0 -10.55 L5.45 -8.2 M0.1 -8.4 Q-1.8 -5.6 -4.25 -3.35 L-11.9 3.05 -12.35 3.35 Q-9.55 2.65 -7.05 1.25 -5.0 0.0 -3.3 -1.85 L-1.4 -3.8 Q0.75 -5.95 0.6 -8.9 L0.5 -8.9 0.1 -8.4" fill="#cca8a8" fill-rule="evenodd" stroke="none"/>
    <path d="M5.85 -9.25 L5.45 -8.2 5.0 -10.55 5.85 -9.25 M-5.05 -12.6 L-5.15 -12.45 -5.6 -12.9 -5.05 -12.6 M-8.3 -2.95 L-8.15 -5.65 Q-8.45 -6.15 -9.2 -6.1 -11.5 -6.0 -13.05 -4.4 -13.85 -3.55 -14.15 -2.5 -14.6 -0.85 -15.35 0.65 L-16.25 1.1 -16.95 -0.45 Q-17.8 -2.55 -19.9 -1.9 -21.1 -1.5 -21.5 -0.2 L-22.1 1.55 Q-23.35 4.7 -25.25 7.3 L-25.05 8.0 -13.2 4.7 Q-21.1 10.55 -28.65 16.8 -30.4 18.25 -31.8 20.1 L-32.05 19.65 -31.75 18.2 -31.35 15.2 -30.75 10.85 Q-30.35 8.35 -29.4 6.0 L-26.0 -1.85 Q-25.75 -2.45 -25.85 -3.0 -26.45 -6.65 -28.85 -9.7 L-23.4 -10.2 -20.05 -10.7 -14.55 -11.9 -11.85 -11.8 Q-8.45 -11.15 -5.7 -9.1 L-5.3 -9.65 -5.6 -11.05 Q-4.55 -9.65 -5.2 -8.0 -6.25 -5.3 -8.3 -2.95 M-7.45 -13.85 L-8.05 -14.0 -8.55 -14.5 -7.45 -13.85" fill="#b38080" fill-rule="evenodd" stroke="none"/>
    <path d="M4.0 -1.3 Q8.15 -4.1 8.55 -10.95 9.9 -8.75 9.15 -5.2 L8.8 -4.7 Q10.6 -5.2 12.2 -7.6 11.05 -5.05 9.35 -2.95 5.9 -0.3 2.0 1.9 3.2 0.55 4.0 -1.3 M-29.9 23.35 L-29.8 23.4 -30.05 23.7 -29.9 23.35 M-15.75 9.65 L-11.25 5.5 Q-6.0 1.2 -0.9 0.35 L-4.5 3.7 -15.75 9.65" fill="#e0cbcb" fill-rule="evenodd" stroke="none"/>
  </g>
</svg>