<?xml version="1.0" encoding="UTF-8" standalone="no"?>
<svg xmlns:xlink="http://www.w3.org/1999/xlink" height="22.5px" width="42.85px" xmlns="http://www.w3.org/2000/svg">
  <g transform="matrix(1.0, 0.0, 0.0, 1.0, 21.45, 11.25)">
    <path d="M7.1 -9.9 L7.6 -9.7 9.5 -9.75 10.9 -9.8 11.2 -9.8 12.85 -8.15 Q14.2 -6.3 14.35 -4.35 13.9 -5.35 12.7 -5.85 12.0 -7.45 10.2 -8.5 L8.95 -9.15 Q8.05 -9.55 7.1 -9.9 M-0.6 -8.7 L1.55 -7.0 Q2.5 -5.95 3.1 -4.3 3.1 -2.5 2.35 -0.9 2.4 -4.65 0.5 -7.0 L-0.45 -6.95 -0.8 -6.9 -1.55 -7.3 -2.75 -7.9 -2.9 -7.95 -3.15 -8.1 -2.4 -8.3 -1.25 -8.55 -0.6 -8.7" fill="#a36a6a" fill-rule="evenodd" stroke="none"/>
    <path d="M7.1 -9.9 Q8.05 -9.55 8.95 -9.15 L10.2 -8.5 Q12.0 -7.45 12.7 -5.85 L11.0 -6.35 10.1 -6.5 Q9.45 -1.3 5.3 2.8 L6.6 -1.05 7.1 -3.3 7.4 -6.8 3.6 -7.0 Q3.85 -3.85 2.35 -0.85 L2.35 -0.9 Q3.1 -2.5 3.1 -4.3 2.5 -5.95 1.55 -7.0 L-0.6 -8.7 -0.85 -8.8 -0.85 -8.85 3.05 -9.6 4.75 -9.85 6.65 -10.05 7.1 -9.9 M14.35 -4.35 Q14.2 -6.3 12.85 -8.15 L11.2 -9.8 10.5 -10.25 Q15.7 -10.2 18.4 -8.15 20.4 -6.65 20.4 -4.95 20.4 -0.25 12.7 4.9 L12.55 4.85 9.9 6.55 Q14.75 2.0 14.75 -0.25 14.75 -1.2 14.4 -1.5 14.9 -3.25 14.35 -4.35 M-10.85 -1.85 L-10.35 -2.35 -8.1 -4.5 -4.1 -5.95 -4.1 -5.55 Q-5.35 -4.35 -6.85 -3.55 L-7.6 -3.3 Q-8.65 -2.1 -9.35 -0.55 L-9.75 0.4 -10.2 1.75 -10.2 -0.85 -10.85 -1.85 M-2.15 -6.7 L-1.2 -7.1 -1.55 -7.3 -0.8 -6.9 -2.15 -6.7 M-9.9 -1.45 L-9.9 -1.55 -9.95 -1.5 -9.9 -1.45" fill="#cca9a9" fill-rule="evenodd" stroke="none"/>
    <path d="M12.7 4.9 L11.6 5.6 9.9 6.6 Q6.5 8.5 3.65 10.25 L4.4 8.75 Q7.25 3.75 12.1 1.4 13.65 0.6 14.2 -1.0 L14.4 -1.5 Q14.75 -1.2 14.75 -0.25 14.75 2.0 9.9 6.55 L12.55 4.85 12.7 4.9 M-11.65 -6.4 L-11.55 -6.35 -12.15 -6.3 -11.65 -6.4 M-9.9 -1.45 L-9.95 -1.5 -9.9 -1.55 -9.9 -1.45" fill="#e0cbcb" fill-rule="evenodd" stroke="none"/>
    <path d="M-10.85 -1.85 L-11.45 -2.75 Q-12.65 -4.1 -13.1 -5.45 L-15.0 -5.2 -20.3 -3.45 -20.35 -3.7 -20.45 -4.0 -20.4 -4.0 -18.15 -4.85 -14.5 -5.9 -13.3 -6.1 -12.15 -6.3 -11.55 -6.35 -11.65 -6.4 -10.3 -6.7 -4.95 -7.9 -4.05 -8.1 -3.5 -8.25 -3.15 -8.1 -2.9 -7.95 -2.75 -7.9 -1.55 -7.3 -1.2 -7.1 -2.15 -6.7 -4.2 -6.4 -4.1 -5.95 -8.1 -4.5 -10.35 -2.35 -10.85 -1.85" fill="#b38080" fill-rule="evenodd" stroke="none"/>
  </g>
</svg>