<?xml version="1.0" encoding="UTF-8" standalone="no"?>
<svg xmlns:xlink="http://www.w3.org/1999/xlink" height="45.85px" width="48.5px" xmlns="http://www.w3.org/2000/svg">
  <g transform="matrix(1.0, 0.0, 0.0, 1.0, -30.3, 22.75)">
    <path d="M34.85 -17.05 L34.05 -17.35 35.0 -17.65 35.35 -17.75 46.15 -19.45 Q52.8 -21.75 63.5 -21.75 70.25 -21.75 74.6 -18.15 77.8 -15.5 77.8 -13.75 77.8 -9.55 76.6 -7.75 74.15 -3.8 71.9 -1.6 69.6 0.6 66.15 2.9 L61.35 6.0 Q58.2 8.1 51.55 11.85 L48.8 15.05 42.85 22.1 42.75 21.95 42.8 21.45 Q44.25 18.2 46.55 15.5 49.05 12.5 51.8 9.85 L52.8 8.95 55.6 7.55 52.55 10.7 55.45 8.65 61.25 4.75 67.95 0.1 Q71.35 -2.45 73.8 -6.2 75.55 -8.3 76.1 -11.15 76.85 -15.3 73.25 -17.35 69.45 -19.6 65.2 -20.15 L57.2 -19.9 49.25 -18.6 42.75 -17.4 34.85 -17.05 M35.75 20.65 L34.75 21.0 35.1 20.25 Q37.85 17.3 40.75 14.65 L44.7 11.3 Q48.0 8.7 51.5 6.35 L58.35 2.15 65.2 -1.95 Q68.5 -3.8 71.05 -6.9 72.85 -9.1 72.9 -11.8 72.9 -13.2 71.8 -14.2 68.7 -17.0 64.3 -17.05 L63.0 -17.1 Q65.0 -16.05 66.1 -13.95 68.2 -9.9 64.65 -6.95 61.9 -4.65 58.75 -2.65 57.6 -2.0 56.4 -1.5 56.0 -1.25 55.6 -1.15 59.95 -4.1 63.9 -7.7 66.7 -10.2 64.55 -13.25 L62.9 -15.1 Q61.3 -16.5 59.15 -16.85 L51.65 -15.7 51.6 -15.7 51.65 -15.65 Q55.45 -13.25 54.9 -8.85 54.5 -5.55 51.7 -4.3 53.8 -6.75 54.15 -9.8 L54.0 -11.15 Q53.6 -12.4 52.35 -13.25 50.75 -14.4 49.0 -15.1 L38.0 -12.75 36.85 -12.6 Q39.5 -13.2 46.0 -15.65 53.0 -17.95 61.0 -18.3 L62.75 -18.4 Q69.45 -18.4 72.4 -15.4 74.1 -13.65 74.1 -11.8 74.1 -9.4 72.35 -6.9 L71.15 -5.45 Q68.45 -2.65 65.45 -0.8 L57.4 3.9 48.35 10.1 35.75 20.65 M33.35 17.4 L33.25 16.65 38.65 10.7 39.9 8.85 Q41.15 6.45 40.55 3.65 40.15 1.7 39.35 -0.2 L39.7 -0.85 Q40.85 0.5 41.5 2.3 42.75 5.7 41.15 8.95 L45.65 6.0 33.35 17.4" fill="#a36a6a" fill-rule="evenodd" stroke="none"/>
    <path d="M38.6 21.5 L37.3 21.25 44.0 14.75 44.15 14.75 44.55 14.8 44.55 15.3 38.6 21.5 M33.7 18.5 L33.45 17.9 37.7 14.55 38.1 14.3 38.3 14.5 33.7 18.5" fill="url(#gradient0)" fill-rule="evenodd" stroke="none"/>
    <path d="M73.8 -6.2 Q71.35 -2.45 67.95 0.1 L61.25 4.75 55.45 8.65 52.55 10.7 55.6 7.55 52.8 8.95 52.55 8.2 57.4 3.9 65.45 -0.8 Q68.45 -2.65 71.15 -5.45 L72.35 -6.9 72.5 -6.9 Q73.45 -6.9 73.8 -6.2 M35.1 20.25 L34.85 20.0 43.6 10.6 Q43.6 10.2 43.1 10.05 41.85 10.7 37.7 14.55 L33.45 17.9 33.35 17.4 45.65 6.0 45.0 6.75 52.55 1.8 52.2 1.4 45.35 4.85 45.3 4.85 45.3 4.8 Q45.75 3.25 47.95 1.0 L51.3 -2.25 55.2 -6.15 Q56.5 -7.75 58.55 -12.95 59.6 -12.95 59.6 -10.8 59.6 -8.0 57.5 -4.45 55.35 -1.4 55.35 -1.05 L55.8 -0.5 Q57.3 -0.5 66.5 -8.45 67.25 -8.45 67.25 -7.1 67.25 -4.85 62.4 -0.3 L65.05 -2.0 65.2 -1.95 58.35 2.15 51.5 6.35 Q48.0 8.7 44.7 11.3 L40.75 14.65 Q37.85 17.3 35.1 20.25 M31.45 -13.2 L31.45 -13.25 31.6 -13.25 31.45 -13.2 M46.35 -9.75 L49.0 -9.5 Q50.4 -9.4 51.3 -8.3 52.7 -6.7 51.6 -4.7 49.55 -0.85 45.2 0.3 44.3 0.4 43.85 -0.4 42.3 -3.0 42.75 -6.0 42.9 -7.1 43.65 -7.8 44.95 -9.1 46.35 -9.75 M44.05 14.7 L44.15 14.75 44.0 14.75 44.05 14.7" fill="#e0cbcb" fill-rule="evenodd" stroke="none"/>
    <path d="M37.3 21.25 L35.75 20.65 48.35 10.1 44.05 14.7 44.0 14.75 37.3 21.25 M33.25 16.65 L33.25 11.4 33.45 3.35 Q33.6 0.1 33.4 -3.1 33.2 -7.05 32.1 -10.85 L38.0 -12.75 49.0 -15.1 Q50.75 -14.4 52.35 -13.25 53.6 -12.4 54.0 -11.15 L54.15 -9.8 Q53.8 -6.75 51.7 -4.3 54.5 -5.55 54.9 -8.85 55.45 -13.25 51.65 -15.65 L51.65 -15.7 59.15 -16.85 Q61.3 -16.5 62.9 -15.1 L64.55 -13.25 Q66.7 -10.2 63.9 -7.7 59.95 -4.1 55.6 -1.15 56.0 -1.25 56.4 -1.5 57.6 -2.0 58.75 -2.65 61.9 -4.65 64.65 -6.95 68.2 -9.9 66.1 -13.95 65.0 -16.05 63.0 -17.1 L64.3 -17.05 Q68.7 -17.0 71.8 -14.2 72.9 -13.2 72.9 -11.8 72.85 -9.1 71.05 -6.9 68.5 -3.8 65.2 -1.95 L65.05 -2.0 62.4 -0.3 Q67.25 -4.85 67.25 -7.1 67.25 -8.45 66.5 -8.45 57.3 -0.5 55.8 -0.5 L55.35 -1.05 Q55.35 -1.4 57.5 -4.45 59.6 -8.0 59.6 -10.8 59.6 -12.95 58.55 -12.95 56.5 -7.75 55.2 -6.15 L51.3 -2.25 47.95 1.0 Q45.75 3.25 45.3 4.8 L45.3 4.85 45.35 4.85 52.2 1.4 52.55 1.8 45.0 6.75 45.65 6.0 41.15 8.95 Q42.75 5.7 41.5 2.3 40.85 0.5 39.7 -0.85 L39.35 -0.2 Q40.15 1.7 40.55 3.65 41.15 6.45 39.9 8.85 L38.65 10.7 33.25 16.65 M46.35 -9.75 Q44.95 -9.1 43.65 -7.8 42.9 -7.1 42.75 -6.0 42.3 -3.0 43.85 -0.4 44.3 0.4 45.2 0.3 49.55 -0.85 51.6 -4.7 52.7 -6.7 51.3 -8.3 50.4 -9.4 49.0 -9.5 L46.35 -9.75" fill="#cca9a9" fill-rule="evenodd" stroke="none"/>
    <path d="M34.85 -17.05 L42.75 -17.4 49.25 -18.6 57.2 -19.9 65.2 -20.15 Q69.45 -19.6 73.25 -17.35 76.85 -15.3 76.1 -11.15 75.55 -8.3 73.8 -6.2 73.45 -6.9 72.5 -6.9 L72.35 -6.9 Q74.1 -9.4 74.1 -11.8 74.1 -13.65 72.4 -15.4 69.45 -18.4 62.75 -18.4 L61.0 -18.3 Q53.0 -17.95 46.0 -15.65 39.5 -13.2 36.85 -12.6 L38.0 -12.75 32.1 -10.85 31.45 -13.2 31.6 -13.25 31.45 -13.25 31.3 -13.95 34.85 -17.05 M52.8 8.95 L51.8 9.85 Q49.05 12.5 46.55 15.5 44.25 18.2 42.8 21.45 L38.6 21.5 44.55 15.3 44.55 14.8 44.15 14.75 44.05 14.7 48.35 10.1 57.4 3.9 52.55 8.2 52.8 8.95 M34.85 20.0 Q34.1 19.35 33.7 18.5 L38.3 14.5 38.1 14.3 37.7 14.55 Q41.85 10.7 43.1 10.05 43.6 10.2 43.6 10.6 L34.85 20.0" fill="#f2eaea" fill-rule="evenodd" stroke="none"/>
  </g>
  <defs>
    <radialGradient cx="0" cy="0" gradientTransform="matrix(0.0242, 0.0, 0.0, 0.0078, 43.55, -2.95)" gradientUnits="userSpaceOnUse" id="gradient0" r="819.2" spreadMethod="pad">
      <stop offset="0.47843137254901963" stop-color="#ffffff"></stop>
      <stop offset="0.8823529411764706" stop-color="#f2eaea"></stop>
    </radialGradient>
  </defs>
</svg>