<?xml version="1.0" encoding="UTF-8" standalone="no"?>
<svg xmlns:xlink="http://www.w3.org/1999/xlink" height="30.45px" width="51.8px" xmlns="http://www.w3.org/2000/svg">
  <g transform="matrix(1.0, 0.0, 0.0, 1.0, 25.9, 15.25)">
    <path d="M12.2 -13.7 L14.65 -12.85 15.9 -12.4 15.85 -12.3 16.65 -11.6 Q17.65 -10.7 17.65 -10.35 17.65 -8.8 11.4 -7.15 L6.6 -5.55 5.5 -5.0 5.4 -5.05 5.35 -5.35 9.6 -7.75 10.35 -8.7 10.8 -9.0 11.3 -9.1 12.25 -9.15 Q13.2 -9.35 13.6 -10.15 L13.8 -12.0 Q12.3 -13.35 10.3 -14.25 L12.2 -13.7 M11.95 -6.6 L12.55 -6.7 Q18.85 -7.5 18.85 -10.6 L18.75 -11.45 18.8 -11.45 20.9 -10.9 24.9 -10.15 24.9 -10.1 Q24.9 -8.95 21.8 -8.05 17.55 -7.05 15.3 -6.25 L10.7 -4.15 8.85 -3.4 10.05 -4.05 Q10.05 -4.4 10.0 -4.15 L9.4 -4.3 6.6 -3.55 Q9.5 -5.45 11.95 -6.6 M11.4 -7.65 L11.35 -7.75 11.35 -7.65 11.4 -7.65" fill="#cca8a8" fill-rule="evenodd" stroke="none"/>
    <path d="M6.6 -5.55 L11.4 -7.15 Q17.65 -8.8 17.65 -10.35 17.65 -10.7 16.65 -11.6 L15.85 -12.3 15.9 -12.4 14.65 -12.85 12.2 -13.7 Q15.85 -12.8 19.5 -11.45 L20.9 -10.9 18.8 -11.45 18.75 -11.5 18.75 -11.45 18.85 -10.6 Q18.85 -7.5 12.55 -6.7 L11.95 -6.6 Q10.0 -6.25 8.05 -5.35 L3.55 -3.4 Q4.15 -4.5 6.6 -5.55 M-19.25 8.95 L-18.15 8.3 -16.8 7.6 Q-10.2 4.25 -4.05 2.15 L1.5 -1.1 6.6 -3.55 9.4 -4.3 10.0 -4.15 Q10.05 -4.4 10.05 -4.05 L8.85 -3.4 -2.85 2.75 Q-12.8 6.7 -16.25 8.5 L-16.8 8.8 Q-20.75 11.0 -24.9 14.2 L-24.1 13.3 -19.25 8.95" fill="#a36a6a" fill-rule="evenodd" stroke="none"/>
    <path d="M10.35 -8.7 L9.6 -7.75 5.35 -5.35 5.4 -5.05 5.5 -5.0 6.6 -5.55 Q4.15 -4.5 3.55 -3.4 L8.05 -5.35 Q10.0 -6.25 11.95 -6.6 9.5 -5.45 6.6 -3.55 L1.5 -1.1 -4.05 2.15 Q-10.2 4.25 -16.8 7.6 L-18.15 8.3 -19.25 8.95 -16.15 5.75 -1.45 -1.95 Q4.75 -5.2 10.35 -8.7 M11.4 -7.65 L11.35 -7.65 11.35 -7.75 11.4 -7.65" fill="#e0cbcb" fill-rule="evenodd" stroke="none"/>
  </g>
</svg>