<?xml version="1.0" encoding="UTF-8" standalone="no"?>
<svg xmlns:xlink="http://www.w3.org/1999/xlink" height="33.45px" width="33.9px" xmlns="http://www.w3.org/2000/svg">
  <g transform="matrix(1.0, 0.0, 0.0, 1.0, 23.3, 12.35)">
    <path d="M7.7 -4.95 L9.25 -5.6 9.05 -5.0 Q6.4 -3.15 4.3 -0.5 L1.8 2.95 Q-0.55 4.05 -2.65 5.6 L-9.0 10.5 -12.1 13.1 -19.4 20.1 -20.8 18.35 -16.55 14.25 -21.05 17.75 -21.15 17.25 -8.85 5.85 -9.5 6.6 -1.95 1.65 -2.3 1.25 -9.2 4.7 -6.95 1.7 -3.15 -2.35 -0.95 -4.4 Q1.3 -6.7 2.55 -9.5 L2.8 -8.9 5.1 -10.25 4.6 -8.05 0.85 -1.2 1.3 -0.95 1.2 -0.85 1.3 -0.9 1.7 -0.7 7.7 -4.95 M-11.75 -6.6 L-11.35 -7.55 Q-9.5 -9.8 -6.8 -9.85 L-4.2 -9.25 Q-2.9 -6.55 -5.05 -3.3 -3.45 -4.75 -2.45 -6.55 -2.75 -3.15 -5.8 -1.35 -7.55 -0.3 -9.4 0.25 -10.3 0.1 -10.65 -0.6 -12.2 -3.35 -11.75 -6.6" fill="#e0cbcb" fill-rule="evenodd" stroke="none"/>
    <path d="M-20.8 18.35 L-21.05 17.75 -16.55 14.25 -20.8 18.35" fill="url(#gradient0)" fill-rule="evenodd" stroke="none"/>
    <path d="M5.8 -4.8 L9.05 -7.3 8.0 -5.45 2.25 -1.7 5.8 -4.8 M-21.15 17.25 L-21.25 16.5 -19.35 14.2 Q-17.55 12.9 -16.45 11.15 L-14.4 7.35 Q-13.9 6.2 -13.8 4.9 -13.75 3.85 -14.15 2.85 L-15.25 -0.35 -14.9 -0.85 -14.1 0.15 -13.05 2.45 Q-12.7 3.3 -12.6 4.2 -12.35 6.65 -13.35 8.8 L-10.65 6.6 -8.7 5.4 Q-8.45 5.4 -8.85 5.85 L-21.15 17.25 M-0.55 -8.1 L-0.7 -7.3 0.35 -8.5 0.35 -7.9 -2.8 -4.45 -0.55 -8.1 M2.55 -2.45 L1.75 -1.45 1.25 -1.2 1.1 -1.3 2.55 -2.45" fill="#a36a6a" fill-rule="evenodd" stroke="none"/>
    <path d="M5.8 -4.8 L9.6 -8.35 9.05 -7.3 5.8 -4.8 M8.0 -5.45 L7.7 -4.95 1.7 -0.7 1.3 -0.9 2.25 -1.7 8.0 -5.45 M-12.95 -9.0 L-12.2 -7.85 -12.2 -5.25 -11.75 -6.6 Q-12.2 -3.35 -10.65 -0.6 -10.3 0.1 -9.4 0.25 -7.55 -0.3 -5.8 -1.35 -2.75 -3.15 -2.45 -6.55 L-0.9 -10.8 -0.55 -8.1 -2.8 -4.45 0.35 -7.9 2.1 -10.45 2.55 -9.5 Q1.3 -6.7 -0.95 -4.4 L-3.15 -2.35 -6.95 1.7 -9.2 4.7 -2.3 1.25 -1.95 1.65 -9.5 6.6 -8.85 5.85 Q-8.45 5.4 -8.7 5.4 L-10.65 6.6 -13.35 8.8 Q-12.35 6.65 -12.6 4.2 -12.7 3.3 -13.05 2.45 L-14.1 0.15 -14.35 -0.8 Q-15.4 -3.7 -14.15 -6.45 L-13.55 -2.85 Q-13.25 -1.35 -12.5 -0.35 L-11.65 1.0 -10.3 4.25 Q-9.8 2.65 -10.5 1.15 L-12.15 -2.4 Q-13.35 -5.3 -12.5 -8.25 L-12.95 -9.0 M-11.35 -7.55 L-9.6 -10.3 -7.55 -11.35 -6.65 -10.3 -4.7 -10.1 -4.2 -9.25 -6.8 -9.85 Q-9.5 -9.8 -11.35 -7.55 M4.6 -8.05 L3.3 -4.2 4.2 -5.1 2.55 -2.45 1.1 -1.3 1.25 -1.2 1.75 -1.45 1.3 -0.95 0.85 -1.2 4.6 -8.05 M-19.35 14.2 L-19.4 13.55 Q-19.4 12.9 -17.55 8.95 -15.75 4.95 -15.75 2.85 -15.75 2.0 -17.0 -0.35 -18.3 -2.75 -18.3 -3.3 -18.2 -4.5 -17.7 -4.5 L-14.9 -0.85 -15.25 -0.35 -14.15 2.85 Q-13.75 3.85 -13.8 4.9 -13.9 6.2 -14.4 7.35 L-16.45 11.15 Q-17.55 12.9 -19.35 14.2" fill="#cca9a9" fill-rule="evenodd" stroke="none"/>
    <path d="M-21.25 16.5 L-21.4 10.95 -21.35 7.85 -20.85 1.65 Q-20.65 -0.25 -20.85 -2.35 -21.2 -5.5 -21.85 -8.5 L-22.3 -10.4 -14.5 -11.15 -12.95 -9.0 -12.5 -8.25 Q-13.35 -5.3 -12.15 -2.4 L-10.5 1.15 Q-9.8 2.65 -10.3 4.25 L-11.65 1.0 -12.5 -0.35 Q-13.25 -1.35 -13.55 -2.85 L-14.15 -6.45 Q-15.4 -3.7 -14.35 -0.8 L-14.1 0.15 -14.9 -0.85 -17.7 -4.5 Q-18.2 -4.5 -18.3 -3.3 -18.3 -2.75 -17.0 -0.35 -15.75 2.0 -15.75 2.85 -15.75 4.95 -17.55 8.95 -19.4 12.9 -19.4 13.55 L-19.35 14.2 -21.25 16.5" fill="#b38080" fill-rule="evenodd" stroke="none"/>
  </g>
  <defs>
    <radialGradient cx="0" cy="0" gradientTransform="matrix(0.0242, 0.0, 0.0, 0.0078, -10.95, -3.1)" gradientUnits="userSpaceOnUse" id="gradient0" r="819.2" spreadMethod="pad">
      <stop offset="0.47843137254901963" stop-color="#ffffff"></stop>
      <stop offset="0.8823529411764706" stop-color="#f2eaea"></stop>
    </radialGradient>
  </defs>
</svg>