<?xml version="1.0" encoding="UTF-8" standalone="no"?>
<svg xmlns:xlink="http://www.w3.org/1999/xlink" height="23.85px" width="25.4px" xmlns="http://www.w3.org/2000/svg">
  <g transform="matrix(1.0, 0.0, 0.0, 1.0, 12.65, 12.1)">
    <path d="M0.25 -1.5 Q0.95 -1.5 1.15 -4.1 1.15 -8.55 -2.35 -8.55 L-3.1 -6.7 Q-3.1 -5.9 -2.2 -3.95 -1.1 -1.5 0.25 -1.5 M-9.2 -5.9 Q-6.7 -7.45 -3.9 -8.5 -0.95 -9.65 2.0 -8.6 3.85 -7.9 4.45 -6.0 4.45 -3.7 3.8 -1.5 L2.05 4.3 4.35 3.65 5.55 7.05 2.7 9.95 -0.3 9.45 3.05 7.55 -2.35 9.05 -3.6 4.4 -4.4 2.2 -4.75 3.3 -4.7 3.5 -4.8 3.4 -4.75 3.3 -4.85 3.4 -5.2 2.75 Q-6.0 -0.2 -7.65 -2.65 L-9.3 -4.7 Q-9.9 -5.45 -9.2 -5.9 M3.7 2.85 L3.7 2.9 3.65 2.9 3.7 2.85 M-4.7 -5.9 L-5.35 -6.35 -1.3 0.4 -1.85 -1.3 Q-2.65 -3.95 -4.7 -5.9 M-1.75 2.7 L-3.8 -0.95 Q-4.0 0.2 -3.4 1.45 -2.75 2.75 -1.75 2.7" fill="#e0cbcb" fill-rule="evenodd" stroke="none"/>
    <path d="M4.45 -6.0 L7.75 3.25 7.4 7.3 8.4 4.95 8.45 4.9 10.5 6.7 Q9.45 8.25 7.7 9.15 5.3 10.4 2.7 9.95 L5.55 7.05 4.35 3.65 2.05 4.3 3.8 -1.5 Q4.45 -3.7 4.45 -6.0 M-4.8 3.4 L-4.85 3.4 -4.75 3.3 -4.8 3.4 M3.7 2.85 L3.65 2.9 3.7 2.9 3.7 2.85" fill="#cca9a9" fill-rule="evenodd" stroke="none"/>
    <path d="M-9.2 -5.9 L-9.45 -5.95 Q-9.35 -6.6 -8.85 -7.05 -7.7 -8.0 -6.35 -8.65 L-3.7 -9.9 Q-5.4 -10.35 -7.15 -9.9 L-11.65 -8.5 Q-10.8 -10.0 -9.2 -10.4 L-5.7 -11.1 -2.35 -10.65 0.25 -10.35 Q2.05 -10.25 3.7 -9.05 5.45 -7.9 5.85 -5.65 6.65 -0.85 8.75 3.5 11.0 4.4 11.75 6.6 11.7 7.8 10.6 8.5 L7.2 10.25 4.2 10.75 0.05 10.3 -2.45 9.55 Q-2.8 9.35 -2.35 9.05 L3.05 7.55 -0.3 9.45 2.7 9.95 Q5.3 10.4 7.7 9.15 9.45 8.25 10.5 6.7 L8.45 4.9 8.4 4.85 8.4 4.95 7.4 7.3 7.75 3.25 4.45 -6.0 Q3.85 -7.9 2.0 -8.6 -0.95 -9.65 -3.9 -8.5 -6.7 -7.45 -9.2 -5.9 M-3.6 4.4 L-3.7 5.95 -4.7 3.5 -4.75 3.3 -4.4 2.2 -3.6 4.4 M-4.7 -5.9 Q-2.65 -3.95 -1.85 -1.3 L-1.3 0.4 -5.35 -6.35 -4.7 -5.9 M-1.75 2.7 Q-2.75 2.75 -3.4 1.45 -4.0 0.2 -3.8 -0.95 L-1.75 2.7" fill="#a36a6a" fill-rule="evenodd" stroke="none"/>
    <path d="M0.25 -1.5 Q-1.1 -1.5 -2.2 -3.95 -3.1 -5.9 -3.1 -6.7 L-2.35 -8.55 Q1.15 -8.55 1.15 -4.1 0.95 -1.5 0.25 -1.5" fill="#f2eaea" fill-rule="evenodd" stroke="none"/>
  </g>
</svg>