<?xml version="1.0" encoding="UTF-8" standalone="no"?>
<svg xmlns:xlink="http://www.w3.org/1999/xlink" height="18.55px" width="14.7px" xmlns="http://www.w3.org/2000/svg">
  <g transform="matrix(1.0, 0.0, 0.0, 1.0, 1, 1)">
    <path d="M1.45 3.7 Q2.85 2.65 4.15 2.65 4.85 2.65 5.35 3.2 5.9 3.8 5.9 4.75 4.7 8.2 4.45 11.25 L3.55 11.4 2.65 11.2 2.1 10.65 Q1.45 9.15 1.05 7.5 0.9 6.75 0.9 5.75 0.9 4.8 1.45 3.7" fill="#d2bfbf" fill-rule="evenodd" stroke="none"/>
    <path d="M2.1 10.65 L2.65 11.2 3.55 11.4 4.45 11.25 Q4.7 8.2 5.9 4.75 5.9 3.8 5.35 3.2 4.85 2.65 4.15 2.65 2.85 2.65 1.45 3.7 3.25 1.1 4.95 1.1 6.8 1.1 7.9 2.35 9.15 3.75 9.15 6.35 L8.25 8.4 7.7 9.75 Q8.5 12.9 10.6 15.9 8.2 15.4 6.3 14.2 3.2 12.25 2.1 10.65" fill="#8e7e7e" fill-rule="evenodd" stroke="none"/>
    <path d="M10.1 5.4 Q10.25 6.4 9.45 8.1 8.55 9.95 8.55 10.65 8.55 10.95 9.85 12.95 L12.35 16.2 12.7 16.5 11.2 16.55 11.15 16.55 Q7.0 16.5 3.9 14.05 0.0 10.95 0.0 5.65 L1.35 2.6 Q2.7 -0.05 4.9 0.0 7.1 0.05 8.45 1.75 9.8 3.45 10.1 5.4 M1.45 3.7 Q0.9 4.8 0.9 5.75 0.9 6.75 1.05 7.5 1.45 9.15 2.1 10.65 3.2 12.25 6.3 14.2 8.2 15.4 10.6 15.9 8.5 12.9 7.7 9.75 L8.25 8.4 9.15 6.35 Q9.15 3.75 7.9 2.35 6.8 1.1 4.95 1.1 3.25 1.1 1.45 3.7" fill="#483f3f" fill-rule="evenodd" stroke="none"/>
  </g>
</svg>