<?xml version="1.0" encoding="UTF-8" standalone="no"?>
<svg xmlns:xlink="http://www.w3.org/1999/xlink" height="50.65px" width="75.1px" xmlns="http://www.w3.org/2000/svg">
  <g transform="matrix(1.0, 0.0, 0.0, 1.0, 37.55, 25.35)">
    <path d="M12.75 -17.1 L13.45 -16.7 Q13.2 -15.95 12.6 -15.95 L8.1 -16.65 6.9 -18.3 12.75 -17.1 M-30.8 -12.95 L-20.65 -15.4 -19.6 -14.6 -19.65 -14.35 -19.5 -14.5 -17.95 -12.2 Q-16.95 -10.55 -17.45 -8.7 L-18.5 -5.6 -18.85 -4.75 -19.55 -7.4 Q-20.5 -11.35 -21.75 -11.35 -25.0 -11.35 -25.4 -7.5 -26.0 -1.9 -26.35 -1.3 -28.95 3.1 -29.0 3.7 -29.6 8.25 -29.85 8.7 L-29.85 8.8 -26.8 2.55 Q-24.75 -1.2 -21.75 -3.6 L-21.75 -3.65 -21.7 -3.55 Q-23.85 -1.15 -28.1 7.85 L-29.85 11.25 -35.85 17.45 Q-36.35 17.2 -36.35 16.7 -35.3 14.05 -35.2 12.9 L-35.05 9.1 -35.35 5.75 Q-35.35 3.0 -31.65 -1.7 -28.0 -6.4 -28.0 -7.2 L-29.6 -9.95 Q-29.85 -10.8 -31.3 -12.65 L-31.1 -13.15 -30.9 -13.0 -30.9 -12.9 -30.8 -12.95 M-17.05 -13.1 L-19.95 -15.9 -12.0 -17.5 Q-9.55 -16.05 -7.25 -14.35 L-6.45 -13.3 Q-6.15 -12.5 -6.55 -11.75 L-6.75 -11.55 -6.95 -11.6 Q-7.3 -13.0 -8.6 -13.55 -11.65 -14.7 -15.05 -14.1 -16.3 -13.95 -17.05 -13.1 M-5.9 -15.65 L-9.45 -17.85 -2.15 -18.35 -5.9 -15.65" fill="#b38080" fill-rule="evenodd" stroke="none"/>
    <path d="M12.75 -17.1 Q15.75 -16.45 18.55 -14.9 L20.3 -13.45 Q20.65 -12.45 19.4 -11.85 14.45 -9.6 9.4 -8.3 L8.2 -7.85 Q8.05 -8.3 8.4 -8.45 L11.4 -10.05 Q13.5 -11.0 14.15 -13.2 L7.6 -12.7 Q8.65 -14.05 8.35 -15.75 L8.1 -16.65 12.6 -15.95 Q13.2 -15.95 13.45 -16.7 L12.75 -17.1 M14.75 -9.35 L15.35 -9.45 Q21.65 -10.25 21.65 -13.35 L21.55 -14.2 21.6 -14.2 Q25.05 -13.2 27.7 -12.9 L27.55 -12.25 Q25.35 -10.6 22.65 -10.3 19.95 -9.85 17.45 -8.6 14.6 -7.25 11.65 -6.15 L12.85 -6.95 9.4 -6.3 Q12.3 -8.2 14.75 -9.35 M-19.6 -14.6 L-19.5 -14.5 -19.65 -14.35 -19.6 -14.6 M-18.85 -4.75 L-23.5 3.6 -21.3 0.8 -18.65 -3.0 Q-16.65 -6.05 -16.5 -9.75 -16.4 -11.4 -17.05 -13.1 -16.3 -13.95 -15.05 -14.1 -11.65 -14.7 -8.6 -13.55 -7.3 -13.0 -6.95 -11.6 L-6.75 -11.55 -12.65 -4.8 Q-10.8 -5.6 -9.1 -7.0 L-5.9 -10.4 Q-3.9 -13.15 -5.9 -15.65 L-2.15 -18.35 3.2 -18.5 Q5.3 -17.9 6.15 -17.25 7.15 -16.45 7.15 -14.9 7.15 -11.75 -0.7 -8.05 L-0.25 -9.35 Q0.3 -11.2 0.1 -13.05 0.0 -14.35 -0.85 -15.3 L-2.05 -13.9 Q-2.35 -13.05 -2.95 -12.45 -7.6 -7.5 -11.35 -1.8 -13.55 -0.65 -15.15 1.45 -17.1 4.05 -20.4 4.9 L-19.15 4.0 -19.5 4.25 Q-17.4 4.1 -16.75 2.1 L-15.55 0.95 -16.25 1.1 Q-15.15 -1.45 -14.35 -5.9 -14.35 -6.3 -14.9 -6.35 -16.25 -5.45 -17.35 -3.35 L-19.3 0.2 -22.6 3.7 Q-25.6 6.8 -25.6 7.35 L-25.35 7.7 -24.75 7.25 -29.85 11.25 -28.1 7.85 Q-23.85 -1.15 -21.7 -3.55 L-21.75 -3.65 -21.75 -3.6 Q-24.75 -1.2 -26.8 2.55 L-29.85 8.8 -29.85 8.7 Q-29.6 8.25 -29.0 3.7 -28.95 3.1 -26.35 -1.3 -26.0 -1.9 -25.4 -7.5 -25.0 -11.35 -21.75 -11.35 -20.5 -11.35 -19.55 -7.4 L-18.85 -4.75 M-5.2 -5.35 L-4.55 -5.6 -5.75 -4.9 -5.2 -5.35 M-8.1 -3.95 L-7.4 -4.0 -8.3 -3.5 -8.1 -3.95" fill="#cca8a8" fill-rule="evenodd" stroke="none"/>
    <path d="M7.6 -12.7 L14.15 -13.2 Q13.5 -11.0 11.4 -10.05 L8.4 -8.45 Q8.05 -8.3 8.2 -7.85 L9.4 -8.3 6.35 -6.15 14.75 -9.35 Q12.3 -8.2 9.4 -6.3 L4.3 -3.85 Q-1.1 -0.6 -1.25 -0.6 -7.4 1.5 -14.0 4.85 L-15.35 5.55 Q-23.1 9.75 -31.85 18.6 L-33.35 20.1 -33.4 20.1 -31.6 17.65 Q-31.25 17.05 -27.1 13.35 -16.7 5.3 -16.7 4.8 -16.7 4.5 -17.05 4.5 -18.65 4.5 -31.05 14.25 L-32.1 14.65 -27.1 9.75 Q-26.1 8.85 -21.2 5.45 L-20.4 4.9 Q-17.1 4.05 -15.15 1.45 -13.55 -0.65 -11.35 -1.8 -7.6 -7.5 -2.95 -12.45 -2.35 -13.05 -2.05 -13.9 L-0.85 -15.3 Q0.0 -14.35 0.1 -13.05 0.3 -11.2 -0.25 -9.35 L-0.7 -8.05 -9.4 -3.75 -5.2 -5.35 -5.75 -4.9 -4.55 -5.6 Q1.0 -8.05 2.8 -9.0 6.25 -10.9 7.6 -12.7 M27.7 -12.9 L29.95 -12.75 Q30.7 -12.75 31.0 -13.15 L35.15 -13.25 Q35.1 -10.95 29.8 -9.2 L20.2 -6.75 Q10.45 -4.3 4.4 -0.2 L3.35 0.4 -4.95 4.85 -5.45 5.1 -7.2 6.05 -7.95 6.45 -11.45 8.35 -13.45 9.5 -13.55 9.55 Q-10.65 5.55 -8.85 3.65 L-1.95 0.8 -0.05 0.0 Q3.2 -1.6 11.65 -6.15 14.6 -7.25 17.45 -8.6 19.95 -9.85 22.65 -10.3 25.35 -10.6 27.55 -12.25 L27.7 -12.9 M22.35 -15.4 L10.6 -18.9 12.1 -20.3 11.6 -21.75 22.3 -18.5 21.65 -17.05 Q21.65 -16.45 22.35 -15.4 M-24.75 7.25 L-25.35 7.7 -25.6 7.35 Q-25.6 6.8 -22.6 3.7 L-19.3 0.2 -17.35 -3.35 Q-16.25 -5.45 -14.9 -6.35 -14.35 -6.3 -14.35 -5.9 -15.15 -1.45 -16.25 1.1 L-24.75 7.25 M-16.75 2.1 Q-17.4 4.1 -19.5 4.25 L-19.15 4.0 -16.75 2.1 M-8.1 -3.95 L-8.3 -3.5 -7.4 -4.0 -8.1 -3.95 M-35.35 17.7 L-35.25 17.65 -35.3 17.7 -35.35 17.7" fill="#e0cbcb" fill-rule="evenodd" stroke="none"/>
    <path d="M9.4 -8.3 Q14.45 -9.6 19.4 -11.85 20.65 -12.45 20.3 -13.45 L18.55 -14.9 Q15.75 -16.45 12.75 -17.1 L6.9 -18.3 8.1 -16.65 8.35 -15.75 Q8.65 -14.05 7.6 -12.7 6.25 -10.9 2.8 -9.0 1.0 -8.05 -4.55 -5.6 L-5.2 -5.35 -9.4 -3.75 -0.7 -8.05 Q7.15 -11.75 7.15 -14.9 7.15 -16.45 6.15 -17.25 5.3 -17.9 3.2 -18.5 L-2.15 -18.35 -9.45 -17.85 -5.9 -15.65 Q-3.9 -13.15 -5.9 -10.4 L-9.1 -7.0 Q-10.8 -5.6 -12.65 -4.8 L-6.75 -11.55 -6.55 -11.75 Q-6.15 -12.5 -6.45 -13.3 L-7.25 -14.35 Q-9.55 -16.05 -12.0 -17.5 L-19.95 -15.9 -17.05 -13.1 Q-16.4 -11.4 -16.5 -9.75 -16.65 -6.05 -18.65 -3.0 L-21.3 0.8 -23.5 3.6 -18.85 -4.75 -18.5 -5.6 -17.45 -8.7 Q-16.95 -10.55 -17.95 -12.2 L-19.5 -14.5 -19.6 -14.6 -20.65 -15.4 -30.8 -12.95 -30.45 -13.1 -28.0 -14.0 -21.9 -16.35 -14.0 -18.15 Q-5.7 -19.65 3.65 -19.65 L10.6 -18.9 22.35 -15.4 31.0 -13.15 Q30.7 -12.75 29.95 -12.75 L27.7 -12.9 Q25.05 -13.2 21.6 -14.2 L21.55 -14.25 21.55 -14.2 21.65 -13.35 Q21.65 -10.25 15.35 -9.45 L14.75 -9.35 6.35 -6.15 9.4 -8.3 M11.6 -21.75 Q7.25 -22.95 1.3 -22.95 L-5.55 -22.45 -12.35 -21.1 -14.0 -20.65 -19.35 -19.05 Q-22.3 -18.2 -25.3 -17.7 -28.4 -17.2 -31.45 -17.7 L-31.6 -17.75 Q-19.3 -20.1 -17.2 -20.9 L-14.0 -21.95 -9.3 -23.05 -1.1 -24.3 1.35 -24.35 Q7.3 -24.35 12.55 -22.5 19.0 -20.25 24.35 -19.65 36.55 -18.25 36.55 -12.6 36.55 -8.75 22.15 -5.6 19.85 -5.15 14.9 -3.35 9.25 -1.35 6.35 0.35 L-4.8 6.45 -9.65 9.1 Q-19.15 14.4 -21.55 17.85 L-21.75 17.75 Q-25.35 21.75 -26.95 24.2 L-27.1 24.2 -27.2 24.05 -26.9 22.7 -24.95 19.5 Q-23.5 17.5 -21.05 14.85 -15.45 8.8 -12.8 7.4 L-15.5 10.8 -13.55 9.55 -13.45 9.5 -11.45 8.35 -7.95 6.45 -7.2 6.05 -5.45 5.1 -4.95 4.85 3.35 0.4 4.4 -0.2 Q10.45 -4.3 20.2 -6.75 L29.8 -9.2 Q35.1 -10.95 35.15 -13.25 L35.15 -13.3 Q35.15 -16.8 22.3 -18.5 L11.6 -21.75 M-33.35 20.1 L-31.85 18.6 Q-23.1 9.75 -15.35 5.55 L-14.0 4.85 Q-7.4 1.5 -1.25 -0.6 -1.1 -0.6 4.3 -3.85 L9.4 -6.3 12.85 -6.95 11.65 -6.15 Q3.2 -1.6 -0.05 0.0 L-1.95 0.8 -8.85 3.65 -13.45 5.75 -14.0 6.05 Q-19.1 8.9 -24.65 13.4 L-31.35 18.85 -33.15 20.25 -34.0 20.75 -33.35 20.1 M-20.4 4.9 L-21.2 5.45 Q-26.1 8.85 -27.1 9.75 L-32.1 14.65 -35.25 17.65 -35.35 17.7 -36.55 18.5 -35.85 17.45 -29.85 11.25 -24.75 7.25 -16.25 1.1 -15.55 0.95 -16.75 2.1 -19.15 4.0 -20.4 4.9" fill="#a36a6a" fill-rule="evenodd" stroke="none"/>
    <path d="M-5.55 -22.45 L0.95 -22.65 Q7.5 -22.65 7.5 -21.6 7.5 -20.95 4.65 -20.9 L-3.2 -20.55 -11.7 -19.35 Q-12.9 -19.35 -12.9 -20.3 -12.9 -20.75 -12.35 -21.1 L-5.55 -22.45" fill="url(#gradient0)" fill-rule="evenodd" stroke="none"/>
    <path d="M31.0 -13.15 L22.35 -15.4 Q21.65 -16.45 21.65 -17.05 L22.3 -18.5 Q35.15 -16.8 35.15 -13.3 L35.15 -13.25 31.0 -13.15 M10.6 -18.9 L3.65 -19.65 Q-5.7 -19.65 -14.0 -18.15 L-21.9 -16.35 -28.0 -14.0 -30.45 -13.1 -30.8 -12.95 -30.9 -12.9 -30.9 -13.0 -32.5 -15.9 -31.45 -17.7 Q-28.4 -17.2 -25.3 -17.7 -22.3 -18.2 -19.35 -19.05 L-14.0 -20.65 -12.35 -21.1 Q-12.9 -20.75 -12.9 -20.3 -12.9 -19.35 -11.7 -19.35 L-3.2 -20.55 4.65 -20.9 Q7.5 -20.95 7.5 -21.6 7.5 -22.65 0.95 -22.65 L-5.55 -22.45 1.3 -22.95 Q7.25 -22.95 11.6 -21.75 L12.1 -20.3 10.6 -18.9 M-8.85 3.65 Q-10.65 5.55 -13.55 9.55 L-15.5 10.8 -12.8 7.4 Q-15.45 8.8 -21.05 14.85 -23.5 17.5 -24.95 19.5 L-26.9 22.7 -27.25 23.4 -33.15 20.25 -31.35 18.85 -24.65 13.4 Q-19.1 8.9 -14.0 6.05 L-13.45 5.75 -8.85 3.65 M-32.1 14.65 L-31.05 14.25 Q-18.65 4.5 -17.05 4.5 -16.7 4.5 -16.7 4.8 -16.7 5.3 -27.1 13.35 -31.25 17.05 -31.6 17.65 L-33.4 20.1 -35.3 17.7 -35.25 17.65 -32.1 14.65" fill="#f2eaea" fill-rule="evenodd" stroke="none"/>
  </g>
  <defs>
    <radialGradient cx="0" cy="0" gradientTransform="matrix(0.0242, 0.0, 0.0, 0.0078, -3.1, -5.7)" gradientUnits="userSpaceOnUse" id="gradient0" r="819.2" spreadMethod="pad">
      <stop offset="0.47843137254901963" stop-color="#ffffff"></stop>
      <stop offset="0.8823529411764706" stop-color="#f2eaea"></stop>
    </radialGradient>
  </defs>
</svg>