<?xml version="1.0" encoding="UTF-8" standalone="no"?>
<svg xmlns:xlink="http://www.w3.org/1999/xlink" height="14.45px" width="33.6px" xmlns="http://www.w3.org/2000/svg">
  <g transform="matrix(1.0, 0.0, 0.0, 1.0, 16.8, 7.25)">
    <path d="M-10.6 -5.8 L-7.4 -6.25 Q-3.15 -6.25 6.6 -3.05 11.9 -1.45 13.7 -0.5 15.8 0.65 15.8 2.2 15.8 2.95 14.35 3.05 L9.25 3.4 5.15 4.25 -1.9 5.75 Q-2.85 5.35 -3.8 5.1 L-4.95 4.9 -6.35 4.7 -8.1 4.4 Q-9.0 4.45 -9.65 3.8 L-10.7 2.8 -11.0 2.3 -10.4 0.8 -10.15 0.75 -7.1 0.5 Q-4.85 0.5 -2.3 1.4 0.3 2.3 3.25 2.3 L7.5 1.8 10.75 1.3 11.75 1.65 12.3 1.8 14.25 2.45 14.4 2.8 14.8 2.4 14.8 2.2 14.8 2.0 14.7 1.8 Q14.45 0.55 13.8 0.55 13.75 0.55 13.6 0.7 L13.75 1.1 13.5 0.95 Q12.35 0.35 11.1 0.2 L10.0 0.1 Q8.8 0.1 7.35 0.6 L3.25 1.05 Q0.45 1.05 -2.1 0.15 -4.65 -0.75 -6.85 -0.75 L-13.3 0.1 Q-14.25 0.1 -14.55 -0.4 L-13.75 -0.25 Q-10.65 -1.5 -8.8 -1.5 L0.95 -0.05 Q3.55 -0.05 4.05 -0.75 L-2.3 -2.2 -4.9 -3.1 -8.05 -3.75 -11.65 -3.05 -10.6 -5.8 M-4.2 1.5 Q-5.5 0.95 -7.1 0.95 -9.6 0.95 -9.6 2.0 -9.6 3.2 -6.4 3.2 -3.05 3.2 -3.05 2.45 -3.05 2.0 -4.2 1.5" fill="#e0cbcb" fill-rule="evenodd" stroke="none"/>
    <path d="M-11.65 -3.05 L-8.05 -3.75 -4.9 -3.1 -2.3 -2.2 4.05 -0.75 Q3.55 -0.05 0.95 -0.05 L-8.8 -1.5 Q-10.65 -1.5 -13.75 -0.25 L-14.55 -0.4 Q-14.55 -1.5 -13.7 -2.25 -12.85 -3.05 -11.65 -3.05 M-4.2 1.5 Q-3.05 2.0 -3.05 2.45 -3.05 3.2 -6.4 3.2 -9.6 3.2 -9.6 2.0 -9.6 0.95 -7.1 0.95 -5.5 0.95 -4.2 1.5" fill="#f2eaea" fill-rule="evenodd" stroke="none"/>
    <path d="M-10.6 -5.8 L-11.65 -3.05 Q-12.85 -3.05 -13.7 -2.25 -14.55 -1.5 -14.55 -0.4 -14.25 0.1 -13.3 0.1 L-6.85 -0.75 Q-4.65 -0.75 -2.1 0.15 0.45 1.05 3.25 1.05 L7.35 0.6 Q8.8 0.1 10.0 0.1 L11.1 0.2 Q12.35 0.35 13.5 0.95 L13.75 1.1 13.6 0.7 Q13.75 0.55 13.8 0.55 14.45 0.55 14.7 1.8 L14.8 2.0 14.8 2.2 14.8 2.4 14.4 2.8 14.25 2.45 12.3 1.8 11.75 1.65 10.75 1.3 7.5 1.8 3.25 2.3 Q0.3 2.3 -2.3 1.4 -4.85 0.5 -7.1 0.5 L-10.15 0.75 -10.4 0.8 -11.0 2.3 -10.7 2.8 -9.65 3.8 Q-9.0 4.45 -8.1 4.4 L-6.35 4.7 -4.95 4.9 -3.8 5.1 Q-2.85 5.35 -1.9 5.75 L-1.85 5.8 Q-2.05 6.2 -3.4 6.2 -12.15 6.2 -12.15 2.25 L-11.85 1.05 -13.15 1.3 Q-15.8 1.3 -15.8 -0.95 -15.8 -2.4 -13.45 -3.6 -12.2 -4.15 -11.7 -5.25 -11.25 -6.15 -10.9 -6.15 L-10.6 -5.8 M-10.4 0.8 L-10.85 0.85 -10.4 0.8" fill="#a36a6a" fill-rule="evenodd" stroke="none"/>
  </g>
</svg>