<?xml version="1.0" encoding="UTF-8" standalone="no"?>
<svg xmlns:xlink="http://www.w3.org/1999/xlink" height="22.25px" width="23.35px" xmlns="http://www.w3.org/2000/svg">
  <g transform="matrix(1.0, 0.0, 0.0, 1.0, 14.15, 13)">
    <path d="M-6.4 -6.15 L-5.95 -6.7 -4.65 -6.9 Q-4.0 -5.0 -3.0 -3.45 L-3.0 -3.25 -2.8 -2.0 -2.25 -0.8 -1.65 0.2 Q0.7 3.6 5.5 3.6 L6.15 3.6 7.25 3.55 7.25 3.65 Q7.25 4.45 3.25 6.35 L-0.75 7.9 -1.35 8.05 -2.75 8.25 -2.9 8.25 -2.95 8.25 Q-4.7 7.3 -6.0 4.45 -6.95 2.3 -7.35 0.15 -7.35 -4.55 -6.4 -6.15 M-5.25 -5.05 L-5.25 -5.1 -5.25 -5.25 -5.25 -5.05" fill="#cca9a9" fill-rule="evenodd" stroke="none"/>
    <path d="M-3.85 -10.6 L-4.8 -10.35 -5.15 -10.2 Q-9.05 -8.0 -10.7 -2.9 L-11.05 -1.9 -11.3 -0.9 Q-12.05 2.2 -11.65 4.5 L-11.4 5.4 -12.45 5.45 -13.0 5.6 Q-13.85 -0.3 -10.4 -5.9 -7.05 -11.55 -1.65 -12.0 -1.4 -12.25 -1.4 -9.8 L-1.65 -7.35 -2.0 -4.7 Q-2.1 -3.35 0.1 -0.3 2.25 2.75 5.0 2.75 L8.2 3.05 7.45 3.5 7.25 3.55 6.15 3.6 5.5 3.6 Q0.7 3.6 -1.65 0.2 L-2.25 -0.8 -2.8 -2.0 -3.0 -3.25 -3.0 -3.45 Q-3.4 -6.15 -2.8 -8.75 L-2.6 -9.9 -2.8 -10.6 -3.85 -10.6" fill="#a36a6a" fill-rule="evenodd" stroke="none"/>
    <path d="M-11.3 -0.9 Q-11.0 -0.6 -10.5 -0.6 -9.3 -0.6 -8.45 -2.3 L-7.25 -5.1 -6.4 -6.15 Q-7.35 -4.55 -7.35 0.15 -6.95 2.3 -6.0 4.45 -4.7 7.3 -2.95 8.25 L-3.2 8.25 Q-8.15 8.25 -10.6 7.1 -12.05 6.4 -12.45 5.45 L-11.4 5.4 -11.65 4.5 Q-12.05 2.2 -11.3 -0.9 M-5.95 -6.7 L-5.2 -7.6 Q-3.65 -9.4 -3.65 -9.8 L-3.85 -10.6 -2.8 -10.6 -2.6 -9.9 -2.8 -8.75 Q-3.4 -6.15 -3.0 -3.45 -4.0 -5.0 -4.65 -6.9 L-5.95 -6.7 M-5.25 -5.05 L-5.25 -5.25 -5.25 -5.1 -5.25 -5.05" fill="#e0cbcb" fill-rule="evenodd" stroke="none"/>
    <path d="M-6.4 -6.15 L-7.25 -5.1 -8.45 -2.3 Q-9.3 -0.6 -10.5 -0.6 -11.0 -0.6 -11.3 -0.9 L-11.05 -1.9 -10.7 -2.9 Q-9.05 -8.0 -5.15 -10.2 L-4.8 -10.35 -3.85 -10.6 -3.65 -9.8 Q-3.65 -9.4 -5.2 -7.6 L-5.95 -6.7 -6.4 -6.15" fill="#fdfcfc" fill-rule="evenodd" stroke="none"/>
  </g>
</svg>