<?xml version="1.0" encoding="UTF-8" standalone="no"?>
<svg xmlns:xlink="http://www.w3.org/1999/xlink" height="19.7px" width="27.65px" xmlns="http://www.w3.org/2000/svg">
  <g transform="matrix(1.0, 0.0, 0.0, 1.0, 13.8, 9.85)">
    <path d="M9.25 -3.45 L9.8 -2.8 10.25 -2.25 Q12.05 0.1 11.8 1.65 11.65 2.8 10.85 4.2 L10.0 5.45 10.5 5.8 10.6 5.75 Q9.7 6.6 6.9 7.5 2.7 8.85 -1.9 8.85 L-8.3 8.1 -9.35 7.85 -7.3 3.85 Q-6.85 3.0 -5.75 2.15 L-5.75 2.1 -5.3 1.75 -4.8 1.4 Q-5.55 2.9 -5.55 3.5 -5.55 5.95 -4.15 5.95 -0.5 5.95 3.95 1.4 L8.2 -0.5 Q9.2 -1.1 9.2 -2.6 L9.0 -3.75 9.25 -3.45" fill="#cca9a9" fill-rule="evenodd" stroke="none"/>
    <path d="M4.1 -5.95 L2.05 -4.8 -0.55 -3.45 Q-3.05 -2.25 -6.0 -1.6 -8.95 -1.0 -10.55 0.65 -11.85 1.9 -11.9 5.25 L-11.9 6.7 -11.85 7.05 Q-12.85 6.25 -12.8 2.65 -12.8 -1.0 -6.5 -2.8 -0.25 -4.65 6.6 -8.85 9.7 -4.7 10.75 -3.5 12.8 -1.15 12.85 1.6 L12.65 3.4 10.95 5.3 10.5 5.8 10.0 5.45 10.85 4.2 Q11.65 2.8 11.8 1.65 12.05 0.1 10.25 -2.25 L9.8 -2.8 9.25 -3.45 6.2 -7.25 4.1 -5.95 M-9.35 7.85 L-10.1 7.65 -10.4 7.5 Q-9.15 2.15 -0.55 -1.25 -0.9 -1.0 -4.4 1.15 L-4.8 1.4 -5.3 1.75 -5.75 2.1 -5.75 2.15 Q-6.85 3.0 -7.3 3.85 L-9.35 7.85" fill="#a36a6a" fill-rule="evenodd" stroke="none"/>
    <path d="M4.1 -5.95 L6.2 -7.25 9.25 -3.45 9.0 -3.75 9.2 -2.6 Q9.2 -1.1 8.2 -0.5 L3.95 1.4 Q-0.5 5.95 -4.15 5.95 -5.55 5.95 -5.55 3.5 -5.55 2.9 -4.8 1.4 L-4.4 1.15 Q-0.9 -1.0 -0.55 -1.25 -9.15 2.15 -10.4 7.5 L-10.1 7.65 -11.9 6.7 -11.9 5.25 Q-11.85 1.9 -10.55 0.65 -8.95 -1.0 -6.0 -1.6 -3.05 -2.25 -0.55 -3.45 L2.05 -4.8 0.5 -3.75 Q-1.95 -2.05 -3.65 -1.9 -6.4 -1.65 -8.45 -0.45 -10.5 0.75 -10.5 1.95 -10.6 2.9 -9.7 2.9 L-7.15 0.6 Q-3.5 -0.35 -2.15 -1.05 0.95 -2.55 4.1 -5.95 M10.5 5.8 L10.95 5.3 10.6 5.75 10.5 5.8 M3.35 -1.95 Q3.25 -2.5 2.8 -2.5 L-1.45 -0.4 -1.7 -0.2 -2.2 0.15 Q-3.95 1.5 -3.95 1.95 -3.95 2.85 -3.1 2.85 L-1.4 2.1 -1.15 1.9 -0.15 1.2 0.7 0.55 2.15 -0.35 Q3.35 -1.3 3.35 -1.95" fill="#e0cbcb" fill-rule="evenodd" stroke="none"/>
    <path d="M2.05 -4.8 L4.1 -5.95 Q0.95 -2.55 -2.15 -1.05 -3.5 -0.35 -7.15 0.6 L-9.7 2.9 Q-10.6 2.9 -10.5 1.95 -10.5 0.75 -8.45 -0.45 -6.4 -1.65 -3.65 -1.9 -1.95 -2.05 0.5 -3.75 L2.05 -4.8" fill="url(#gradient0)" fill-rule="evenodd" stroke="none"/>
    <path d="M3.35 -1.95 Q3.35 -1.3 2.15 -0.35 L0.7 0.55 -0.15 1.2 -1.15 1.9 -1.4 2.1 -3.1 2.85 Q-3.95 2.85 -3.95 1.95 -3.95 1.5 -2.2 0.15 L-1.7 -0.2 -1.45 -0.4 2.8 -2.5 Q3.25 -2.5 3.35 -1.95" fill="url(#gradient1)" fill-rule="evenodd" stroke="none"/>
  </g>
  <defs>
    <radialGradient cx="0" cy="0" gradientTransform="matrix(0.0242, 0.0, 0.0, 0.0078, -3.1, -5.7)" gradientUnits="userSpaceOnUse" id="gradient0" r="819.2" spreadMethod="pad">
      <stop offset="0.47843137254901963" stop-color="#ffffff"></stop>
      <stop offset="0.8823529411764706" stop-color="#f2eaea"></stop>
    </radialGradient>
    <radialGradient cx="0" cy="0" gradientTransform="matrix(0.0242, 0.0, 0.0, 0.0078, -5.2, -6.5)" gradientUnits="userSpaceOnUse" id="gradient1" r="819.2" spreadMethod="pad">
      <stop offset="0.47843137254901963" stop-color="#ffffff"></stop>
      <stop offset="0.8823529411764706" stop-color="#f2eaea"></stop>
    </radialGradient>
  </defs>
</svg>