<?xml version="1.0" encoding="UTF-8" standalone="no"?>
<svg xmlns:xlink="http://www.w3.org/1999/xlink" height="12.55px" width="26.3px" xmlns="http://www.w3.org/2000/svg">
  <g transform="matrix(1.0, 0.0, 0.0, 1.0, 13.2, 6)">
    <path d="M12.1 1.1 L11.3 -0.1 11.9 0.25 12.1 1.1 M12.1 1.6 Q11.3 2.75 10.2 3.25 7.1 4.65 3.65 5.2 -1.6 6.0 -6.95 5.0 -3.7 0.05 1.95 -0.55 L5.95 0.0 12.1 1.6" fill="#e0cbcb" fill-rule="evenodd" stroke="none"/>
    <path d="M-10.7 3.95 L-12.2 5.45 Q-12.0 2.8 -10.5 1.5 L-5.75 -2.5 Q-2.55 -5.25 0.75 -4.95 L5.1 -3.5 Q8.2 -2.3 11.3 -0.1 L12.1 1.1 Q7.45 -1.45 2.2 -3.4 0.25 -4.2 -1.75 -3.4 -3.6 -2.65 -5.25 -1.5 -8.4 0.75 -10.7 3.95" fill="#a36a6a" fill-rule="evenodd" stroke="none"/>
    <path d="M-10.7 3.95 Q-8.4 0.75 -5.25 -1.5 -3.6 -2.65 -1.75 -3.4 0.25 -4.2 2.2 -3.4 7.45 -1.45 12.1 1.1 L12.1 1.6 5.95 0.0 1.95 -0.55 Q-3.7 0.05 -6.95 5.0 L-10.7 3.95" fill="url(#gradient0)" fill-rule="evenodd" stroke="none"/>
  </g>
  <defs>
    <radialGradient cx="0" cy="0" gradientTransform="matrix(0.0242, 0.0, 0.0, 0.0078, -3.1, -5.7)" gradientUnits="userSpaceOnUse" id="gradient0" r="819.2" spreadMethod="pad">
      <stop offset="0.47843137254901963" stop-color="#ffffff"></stop>
      <stop offset="0.8823529411764706" stop-color="#f2eaea"></stop>
    </radialGradient>
  </defs>
</svg>