<?xml version="1.0" encoding="UTF-8" standalone="no"?>
<svg xmlns:xlink="http://www.w3.org/1999/xlink" height="21.6px" width="37px" xmlns="http://www.w3.org/2000/svg">
  <g transform="matrix(1.0, 0.0, 0.0, 1.0, 18.5, 10.8)">
    <path d="M-11.3 8.1 L-11.35 7.95 Q-11.35 7.55 -8.2 4.55 L-4.35 1.05 -1.0 -0.7 1.85 -1.85 Q4.75 -2.85 7.9 -3.2 L6.2 -2.7 Q0.5 -1.0 -2.8 1.1 L-3.0 1.2 -3.55 1.6 -3.75 1.75 -3.85 1.8 -3.95 1.85 -4.75 2.55 -7.35 5.1 -8.9 6.65 -10.7 8.15 -11.1 8.4 -11.25 8.25 -11.25 8.2 -11.3 8.1 M11.5 4.25 L12.15 3.8 13.05 2.1 Q13.5 0.75 13.5 -1.25 13.55 -4.55 14.9 -6.45 L16.3 -7.95 Q16.3 -8.75 14.75 -8.75 9.75 -6.1 3.55 -5.55 1.3 -5.35 -1.8 -3.95 -4.9 -2.65 -6.85 -1.05 -8.8 0.5 -11.75 3.65 L-16.3 8.4 -16.7 8.8 -17.1 9.1 -17.4 9.1 -17.45 9.0 -17.4 9.1 -17.5 8.85 Q-17.5 6.5 -6.35 -2.6 -4.75 -3.95 -1.6 -5.25 1.9 -6.7 4.05 -6.6 6.8 -6.45 10.45 -8.1 14.2 -9.8 15.55 -9.8 17.2 -9.8 17.5 -8.05 L16.05 -5.8 Q14.65 -3.45 14.85 -0.9 15.0 1.85 13.2 3.95 12.25 5.1 11.35 5.55 L10.1 5.75 11.5 4.25" fill="#a36a6a" fill-rule="evenodd" stroke="none"/>
    <path d="M4.45 -0.3 L5.5 -1.4 3.4 -1.55 Q2.2 -1.05 1.35 -0.35 L0.55 0.35 0.6 1.6 Q1.75 2.45 2.9 1.35 L3.6 0.65 4.45 -0.3 M-4.75 2.55 L-3.95 1.85 -3.85 1.8 -3.75 1.75 -3.55 1.6 -3.0 1.2 -2.8 1.1 Q0.5 -1.0 6.2 -2.7 L7.9 -3.2 Q4.75 -2.85 1.85 -1.85 L-1.0 -0.7 -4.35 1.05 -8.2 4.55 Q-11.35 7.55 -11.35 7.95 L-11.3 8.1 -11.25 8.2 -12.2 9.55 -15.8 9.75 Q-17.05 10.0 -17.4 9.1 L-17.1 9.1 -16.7 8.8 -16.3 8.4 -11.75 3.65 Q-8.8 0.5 -6.85 -1.05 -4.9 -2.65 -1.8 -3.95 1.3 -5.35 3.55 -5.55 9.75 -6.1 14.75 -8.75 16.3 -8.75 16.3 -7.95 L14.9 -6.45 Q13.55 -4.55 13.5 -1.25 13.5 0.75 13.05 2.1 L12.15 3.8 11.5 4.25 12.45 1.5 Q12.45 0.45 11.65 -0.85 11.4 -1.2 10.0 -1.55 9.85 0.5 7.1 3.15 3.45 6.6 -1.85 6.6 -5.55 6.6 -5.05 3.75 L-4.75 2.55 M-11.3 8.1 L-11.4 8.1 -11.3 8.1 M8.7 -6.05 Q6.0 -4.8 4.1 -4.8 -2.1 -4.8 -4.9 -2.0 -8.35 1.7 -8.35 2.7 -8.5 3.25 -7.9 3.25 -7.45 3.25 -4.95 0.65 -2.3 -2.15 0.2 -2.85 L7.35 -4.7 Q11.0 -5.8 12.25 -7.05 L12.0 -7.3 Q11.4 -7.3 8.7 -6.05 M11.35 5.55 Q11.1 6.8 8.65 7.8 L10.1 5.75 11.35 5.55" fill="#e0cbcb" fill-rule="evenodd" stroke="none"/>
    <path d="M-4.75 2.55 L-5.05 3.75 Q-5.55 6.6 -1.85 6.6 3.45 6.6 7.1 3.15 9.85 0.5 10.0 -1.55 11.4 -1.2 11.65 -0.85 12.45 0.45 12.45 1.5 L11.5 4.25 10.1 5.75 8.65 7.8 7.1 8.35 6.3 8.55 Q1.35 9.8 -5.75 9.8 L-10.45 9.7 -11.45 9.5 -12.2 9.55 -11.25 8.2 -11.25 8.25 -11.1 8.4 -10.7 8.15 -8.9 6.65 -7.35 5.1 -4.75 2.55" fill="#cca9a9" fill-rule="evenodd" stroke="none"/>
    <path d="M8.7 -6.05 Q11.4 -7.3 12.0 -7.3 L12.25 -7.05 Q11.0 -5.8 7.35 -4.7 L0.2 -2.85 Q-2.3 -2.15 -4.95 0.65 -7.45 3.25 -7.9 3.25 -8.5 3.25 -8.35 2.7 -8.35 1.7 -4.9 -2.0 -2.1 -4.8 4.1 -4.8 6.0 -4.8 8.7 -6.05" fill="url(#gradient0)" fill-rule="evenodd" stroke="none"/>
    <path d="M4.45 -0.3 L3.6 0.65 2.9 1.35 Q1.75 2.45 0.6 1.6 L0.55 0.35 1.35 -0.35 Q2.2 -1.05 3.4 -1.55 L5.5 -1.4 4.45 -0.3" fill="url(#gradient1)" fill-rule="evenodd" stroke="none"/>
  </g>
  <defs>
    <radialGradient cx="0" cy="0" gradientTransform="matrix(0.0242, 0.0, 0.0, 0.0078, -3.1, -5.7)" gradientUnits="userSpaceOnUse" id="gradient0" r="819.2" spreadMethod="pad">
      <stop offset="0.47843137254901963" stop-color="#ffffff"></stop>
      <stop offset="0.8823529411764706" stop-color="#f2eaea"></stop>
    </radialGradient>
    <radialGradient cx="0" cy="0" gradientTransform="matrix(0.0242, 0.0, 0.0, 0.0078, -4.85, -6.4)" gradientUnits="userSpaceOnUse" id="gradient1" r="819.2" spreadMethod="pad">
      <stop offset="0.47843137254901963" stop-color="#ffffff"></stop>
      <stop offset="0.8823529411764706" stop-color="#f2eaea"></stop>
    </radialGradient>
  </defs>
</svg>