<?xml version="1.0" encoding="UTF-8" standalone="no"?>
<svg xmlns:xlink="http://www.w3.org/1999/xlink" height="65.15px" width="82.2px" xmlns="http://www.w3.org/2000/svg">
  <g transform="matrix(1.0, 0.0, 0.0, 1.0, 42.75, 29.5)">
    <path d="M-29.75 1.05 L-32.75 -0.75 Q-35.55 -2.55 -40.1 -2.55 L-41.45 -2.15 -41.75 -2.25 -41.75 -2.45 -39.15 -3.8 -36.0 -5.3 -32.1 -5.85 -30.35 -5.65 -31.3 -8.3 Q-32.4 -10.85 -34.9 -13.85 L-37.05 -16.7 -37.05 -16.9 -36.95 -16.95 -36.85 -17.1 -36.6 -17.15 -28.65 -12.95 -29.15 -15.3 -29.6 -18.05 Q-29.6 -19.95 -26.6 -26.85 L-26.35 -26.9 Q-25.9 -26.9 -25.9 -22.65 L-25.9 -22.35 -25.85 -21.75 -22.1 -24.6 Q-18.9 -26.45 -16.3 -26.7 L-4.75 -27.75 2.0 -28.5 2.1 -28.05 1.75 -27.55 0.15 -26.2 -2.45 -23.9 -2.5 -23.85 -1.55 -23.75 2.7 -24.15 Q8.65 -24.15 11.7 -22.85 14.05 -21.9 19.15 -17.85 20.5 -16.75 23.25 -13.65 L25.35 -11.2 25.85 -10.4 25.8 -10.05 Q25.75 -9.9 25.35 -9.9 L21.8 -10.8 21.6 -10.8 24.65 -7.35 27.75 -3.9 28.05 -3.65 Q29.15 -2.85 33.6 -0.3 38.45 2.5 38.45 2.95 L38.15 4.35 37.7 4.55 37.6 4.55 37.35 4.55 36.2 4.2 34.45 3.75 34.3 3.75 Q37.25 5.35 37.25 6.0 L37.2 6.3 35.7 6.45 30.35 5.75 29.6 5.6 Q31.75 8.0 33.05 11.7 33.65 13.55 35.35 15.8 L36.8 17.85 Q36.8 18.5 35.5 18.5 34.4 18.5 32.6 17.25 L32.15 16.9 30.35 15.65 32.6 19.4 Q33.6 21.45 33.65 23.1 L34.5 26.9 35.35 30.4 35.15 32.95 35.15 33.1 35.1 33.25 34.75 34.65 Q34.3 34.25 34.15 33.6 L34.1 33.25 34.05 32.75 34.05 32.65 34.1 32.3 34.15 30.5 33.35 26.65 32.35 22.4 Q32.0 20.1 29.95 17.15 L28.0 14.4 Q28.0 13.8 28.6 13.8 29.45 13.8 34.05 16.6 L34.15 16.65 34.1 16.5 32.85 13.55 31.6 10.5 Q31.0 8.5 28.9 6.3 L27.3 4.9 26.9 4.35 26.95 4.05 27.5 3.9 34.45 5.45 35.35 5.45 Q34.8 4.45 31.7 3.25 28.6 2.1 28.3 1.3 L28.6 1.25 28.8 1.2 Q29.45 1.2 31.9 1.95 L32.9 2.25 Q36.25 3.35 36.95 3.35 L37.35 3.15 30.3 -1.0 29.1 -1.8 27.6 -2.9 27.35 -3.05 Q25.9 -4.25 25.2 -5.25 L21.8 -9.35 18.55 -11.4 17.45 -11.9 16.6 -12.05 9.3 -12.65 9.1 -12.65 7.8 -12.55 5.9 -11.55 Q7.25 -11.3 8.9 -9.15 L10.5 -6.65 10.3 -6.35 10.05 -6.2 8.65 -6.6 4.9 -7.0 5.25 -6.7 3.5 -6.45 -0.45 -5.3 -1.35 -5.95 -0.7 -6.35 -1.8 -6.05 -1.85 -5.95 -1.9 -6.05 -1.95 -6.2 Q-1.95 -6.4 -1.4 -6.6 L-1.3 -6.6 Q0.05 -7.15 4.5 -7.75 L9.15 -7.25 Q8.95 -8.0 7.6 -9.1 L7.35 -9.3 7.3 -9.35 7.15 -9.45 5.2 -10.95 4.95 -11.15 5.05 -11.25 4.9 -11.2 4.8 -11.2 4.7 -11.15 4.55 -11.1 1.95 -10.45 0.75 -10.2 -1.85 -9.85 -1.95 -9.85 -2.55 -9.9 -2.7 -9.95 -2.15 -10.1 1.5 -11.15 2.85 -11.55 5.3 -12.3 5.7 -12.4 6.45 -12.7 6.5 -12.7 6.9 -12.85 8.7 -14.25 9.15 -14.1 10.1 -14.05 9.95 -13.95 9.0 -13.3 13.45 -13.8 16.1 -13.35 18.55 -12.8 19.0 -12.7 19.05 -12.7 23.35 -11.45 23.8 -11.45 23.2 -12.25 Q20.85 -15.2 17.95 -17.7 11.5 -23.25 2.25 -23.25 L0.2 -23.1 -0.9 -22.95 -3.4 -22.65 -3.9 -22.65 -5.05 -22.9 -5.1 -23.15 -0.25 -27.15 -0.25 -27.2 -1.15 -27.1 -17.55 -25.5 Q-19.4 -25.3 -22.85 -22.9 L-26.0 -20.6 -26.15 -20.6 Q-26.7 -20.8 -26.8 -22.1 L-26.8 -24.45 Q-28.65 -19.3 -28.65 -18.0 L-28.4 -16.35 -28.05 -14.75 -27.55 -13.1 -27.1 -11.7 -27.15 -11.25 -27.4 -11.2 -33.65 -14.4 -32.9 -13.55 Q-31.7 -11.8 -30.15 -8.15 -29.0 -5.45 -28.5 -3.55 -28.05 -2.05 -28.05 -1.1 L-28.2 -0.2 -28.55 0.0 Q-29.25 -1.35 -29.95 -4.05 L-30.05 -4.55 -32.45 -5.15 Q-34.15 -5.15 -36.1 -4.3 L-38.15 -3.3 -38.3 -3.3 Q-33.25 -2.95 -31.3 -1.1 L-30.3 -0.15 -30.25 -0.1 -29.35 0.9 -29.65 1.05 -29.75 1.05 M11.4 -14.9 L10.25 -14.15 10.1 -14.05 9.3 -14.15 9.05 -14.25 8.8 -14.3 Q7.3 -14.75 4.3 -15.85 -0.35 -17.5 -1.55 -17.5 -4.6 -17.5 -7.95 -15.25 L-10.2 -13.5 -10.95 -12.65 -11.0 -12.6 -11.15 -12.55 -11.55 -13.0 Q-11.55 -14.2 -8.3 -16.3 -4.8 -18.5 -2.0 -18.4 L1.35 -17.8 1.75 -17.7 4.9 -16.6 Q9.0 -14.95 10.95 -15.1 L11.9 -15.25 11.4 -14.9 M-16.65 -7.05 L-16.9 -6.8 -16.95 -6.8 -17.05 -6.9 -17.65 -7.65 -17.95 -8.3 -18.05 -8.6 -18.1 -8.85 -18.25 -9.95 -18.2 -10.6 -18.15 -10.95 -17.5 -13.25 -17.4 -13.55 -16.3 -15.65 -15.45 -16.3 Q-21.55 -15.25 -24.3 -12.65 -25.7 -11.35 -26.35 -9.45 L-26.5 -9.0 -26.7 -7.95 -26.75 -7.6 -26.8 -7.45 -26.95 -7.6 -27.3 -8.1 -27.55 -8.8 -27.2 -10.7 Q-26.55 -12.45 -24.65 -14.0 -21.0 -17.0 -14.85 -17.0 L-14.2 -17.15 -13.45 -17.35 -13.15 -17.0 -14.65 -15.85 -16.25 -13.85 -16.35 -13.65 -16.6 -13.25 -16.85 -12.75 -17.4 -11.35 -17.4 -11.25 -17.55 -10.25 -17.5 -9.95 -17.45 -9.85 -16.95 -8.2 -16.9 -8.05 -16.75 -7.65 -16.6 -7.25 -16.65 -7.05" fill="#a36a6a" fill-rule="evenodd" stroke="none"/>
    <path d="M35.15 33.1 L35.1 33.3 35.1 33.25 35.15 33.1 M-28.3 2.7 L-29.75 1.05 -29.65 1.05 -29.35 0.9 -30.25 -0.1 -30.25 -0.25 -30.3 -0.15 -31.3 -1.1 Q-33.25 -2.95 -38.3 -3.3 L-38.15 -3.3 -36.1 -4.3 Q-34.15 -5.15 -32.45 -5.15 L-30.05 -4.55 -29.95 -4.05 Q-29.25 -1.35 -28.55 0.0 L-28.2 -0.2 -28.05 -1.1 Q-28.05 -2.05 -28.5 -3.55 -29.0 -5.45 -30.15 -8.15 -31.7 -11.8 -32.9 -13.55 -30.5 -11.2 -28.45 -8.4 L-27.15 -6.65 -27.8 -2.7 -26.55 -3.6 -26.6 -3.1 -26.55 -3.1 -26.6 -2.8 -27.8 1.25 -28.3 2.65 -28.3 2.7 M-27.4 -11.2 L-27.15 -11.25 -27.1 -11.7 -27.55 -13.1 -28.05 -14.75 -28.4 -16.35 -28.65 -18.0 Q-28.65 -19.3 -26.8 -24.45 L-26.8 -22.1 Q-26.7 -20.8 -26.15 -20.6 L-26.0 -20.6 -26.15 -20.55 Q-26.2 -19.15 -25.9 -17.8 L-25.7 -17.1 -24.9 -14.75 -24.7 -14.95 -24.1 -15.9 Q-23.5 -17.2 -22.4 -18.15 L-18.55 -21.0 -16.75 -22.0 -13.85 -23.2 -13.55 -23.25 -13.7 -23.1 -17.1 -18.75 -16.45 -19.4 -14.95 -20.6 Q-12.7 -22.75 -9.75 -23.9 L-9.25 -24.1 -8.35 -24.5 -6.8 -25.25 Q-4.05 -26.55 -1.15 -27.1 L-0.25 -27.2 -0.25 -27.15 -5.1 -23.15 -5.05 -22.9 -3.9 -22.65 -4.7 -22.2 Q-6.75 -21.2 -8.45 -19.8 L-9.4 -19.1 -11.5 -17.4 -11.15 -17.4 -10.1 -17.75 -9.4 -17.95 -2.85 -18.8 -2.05 -18.85 -0.25 -19.05 1.75 -19.25 6.05 -19.4 2.7 -18.3 1.35 -17.8 -2.0 -18.4 Q-4.8 -18.5 -8.3 -16.3 -11.55 -14.2 -11.55 -13.0 L-11.15 -12.55 -11.0 -12.6 Q-11.0 -11.95 -10.3 -10.85 L-8.95 -12.0 -7.5 -13.05 -4.4 -14.45 -3.4 -14.75 2.5 -15.25 7.95 -14.4 8.7 -14.25 8.8 -14.3 9.05 -14.25 8.7 -14.25 5.8 -13.95 -0.6 -13.0 0.5 -12.8 6.15 -12.7 4.3 -12.4 2.4 -12.0 2.1 -11.95 -1.2 -11.1 -1.95 -11.05 -7.4 -10.4 -8.35 -10.15 -9.3 -9.75 -9.45 -9.6 -9.5 -9.65 Q-11.0 -9.15 -12.45 -8.45 L-13.4 -7.9 -14.45 -7.3 -16.55 -5.9 -15.9 -7.25 -16.65 -7.05 -16.6 -7.25 -16.75 -7.65 -16.9 -8.05 -16.7 -7.6 -16.25 -8.8 -15.55 -10.75 -13.65 -12.95 -12.25 -14.4 -12.3 -14.75 Q-14.65 -14.6 -15.9 -13.8 L-16.35 -13.65 -16.25 -13.85 -14.65 -15.85 -13.15 -17.0 -13.45 -17.35 -14.2 -17.15 -14.85 -17.0 Q-21.0 -17.0 -24.65 -14.0 -26.55 -12.45 -27.2 -10.7 L-27.4 -11.2 M23.2 -12.25 L23.8 -11.45 23.35 -11.45 19.05 -12.7 Q17.65 -13.25 16.15 -13.9 L13.15 -14.85 13.05 -14.85 11.4 -14.9 11.9 -15.25 10.95 -15.1 Q9.0 -14.95 4.9 -16.6 L1.75 -17.7 5.55 -18.1 9.2 -18.25 11.05 -18.25 12.1 -18.05 Q14.1 -17.35 15.95 -16.3 L19.5 -14.1 20.15 -13.7 20.85 -13.3 21.55 -12.95 23.2 -12.25 M4.7 -11.15 L4.8 -11.2 4.9 -11.2 5.05 -11.25 4.95 -11.15 4.7 -11.15 M7.35 -9.3 L7.6 -9.1 Q8.95 -8.0 9.15 -7.25 L4.5 -7.75 Q0.05 -7.15 -1.3 -6.6 L-1.4 -6.6 Q-1.95 -6.4 -1.95 -6.2 L-1.9 -6.05 -1.85 -5.95 -1.8 -6.05 -0.7 -6.35 -1.35 -5.95 -0.45 -5.3 0.05 -5.15 0.65 -5.0 0.8 -4.95 3.15 -4.25 4.95 -2.8 Q6.35 -1.7 6.75 -1.7 L7.1 -2.1 7.35 -2.75 Q7.35 -4.3 5.6 -6.3 L5.25 -6.7 4.9 -7.0 8.65 -6.6 10.05 -6.2 10.3 -6.35 10.5 -6.65 8.9 -9.15 Q7.25 -11.3 5.9 -11.55 L7.8 -12.55 9.1 -12.65 9.3 -12.65 10.35 -12.4 13.8 -11.7 14.05 -11.6 15.85 -11.7 16.0 -11.8 16.6 -12.05 17.45 -11.9 18.55 -11.4 21.8 -9.35 25.2 -5.25 Q25.9 -4.25 27.35 -3.05 L25.3 -4.05 Q23.85 -4.7 22.55 -5.75 L21.6 -6.45 20.8 -7.0 19.15 -7.8 18.25 -8.05 18.2 -8.05 Q16.45 -8.4 14.65 -8.1 L15.25 -7.5 15.95 -6.9 17.25 -5.65 17.85 -5.05 18.1 -4.85 18.3 -4.65 17.2 -4.65 15.45 -4.55 11.85 -4.85 13.6 -4.05 17.15 -3.3 Q18.4 -3.25 19.5 -2.7 19.9 -2.5 20.35 -2.4 L22.55 -1.8 22.55 -1.9 22.85 -1.7 23.1 -1.6 24.05 -1.55 24.3 -1.6 26.9 -1.8 29.1 -1.8 30.3 -1.0 37.35 3.15 36.95 3.35 Q36.25 3.35 32.9 2.25 L31.9 1.95 Q29.45 1.2 28.8 1.2 L28.6 1.25 28.3 1.3 28.35 1.2 28.0 1.1 25.2 0.7 23.05 0.75 21.35 0.45 21.3 0.45 21.05 0.4 20.35 0.3 14.45 -0.6 14.4 -0.5 Q15.65 0.15 16.9 0.9 18.2 1.65 19.65 2.2 L21.55 2.95 24.8 4.2 26.25 4.6 27.3 4.9 28.9 6.3 Q31.0 8.5 31.6 10.5 L32.85 13.55 34.1 16.5 34.15 16.65 34.05 16.6 34.1 16.5 Q31.95 14.35 30.25 11.85 29.1 10.1 27.55 8.75 25.8 7.25 23.7 6.45 L21.75 5.8 21.6 5.75 19.1 4.9 15.9 4.05 14.95 3.95 14.9 4.05 15.7 4.6 16.6 6.25 14.95 5.7 13.5 5.35 12.85 5.2 10.6 4.7 9.65 4.35 Q8.1 3.85 6.75 3.0 L5.95 2.5 4.4 1.65 4.65 1.7 6.95 1.85 7.05 1.8 Q6.65 1.25 5.85 0.85 L3.85 -0.45 3.25 -0.85 Q1.15 -2.2 -1.25 -3.0 L-2.0 -3.15 Q-2.9 -3.25 -3.65 -3.65 L-0.7 -4.4 -0.3 -4.5 -0.4 -4.55 -1.05 -4.7 -3.1 -5.0 -7.05 -4.7 -10.8 -3.7 Q-8.8 -4.55 -7.05 -5.9 L-6.9 -6.05 -6.2 -6.6 -6.3 -6.65 -6.3 -6.7 -6.15 -6.8 Q-5.8 -6.9 -5.75 -7.25 L-5.6 -7.55 -2.95 -9.7 -2.7 -9.65 -2.5 -9.65 0.75 -10.2 Q1.0 -9.75 3.0 -9.8 L5.35 -9.35 6.65 -8.95 7.55 -9.1 7.35 -9.3 M-18.2 -10.6 L-18.25 -10.55 -19.15 -8.8 -18.9 -9.45 -19.9 -7.1 -20.85 -5.0 Q-21.3 -5.0 -21.5 -5.55 L-21.9 -6.05 -22.25 -6.2 -22.2 -6.2 -24.3 -6.35 Q-24.95 -6.4 -25.0 -6.85 -25.9 -7.0 -26.3 -7.3 L-26.55 -8.05 -25.25 -9.85 Q-23.75 -11.7 -21.9 -13.15 L-21.75 -13.25 -21.8 -13.05 -22.2 -11.6 -22.25 -11.35 -22.4 -10.45 Q-22.5 -9.35 -22.05 -8.7 L-21.4 -10.95 -20.8 -12.0 -19.15 -13.85 -18.45 -14.4 -17.35 -15.15 -16.35 -15.65 -16.3 -15.65 -17.4 -13.55 -17.5 -13.25 -18.15 -10.95 -18.2 -10.6 M-17.0 -4.55 L-17.1 -4.45 -17.05 -4.55 -17.0 -4.55" fill="#e0cbcb" fill-rule="evenodd" stroke="none"/>
    <path d="M34.15 33.6 Q31.2 33.25 21.45 29.45 L20.85 29.2 14.95 26.85 Q2.75 21.8 -5.05 17.9 L-5.6 17.6 Q-10.55 15.2 -19.35 9.4 -25.65 5.25 -28.3 2.7 L-28.3 2.65 -27.8 1.25 -26.6 -2.8 -26.55 -3.1 -26.6 -3.1 -26.55 -3.6 -24.65 -5.05 Q-25.45 -5.55 -26.0 -6.3 L-26.7 -7.5 -26.75 -7.6 -26.7 -7.95 -25.5 -9.55 -25.25 -9.85 -26.55 -8.05 -26.3 -7.3 Q-25.9 -7.0 -25.0 -6.85 -24.95 -6.4 -24.3 -6.35 L-22.2 -6.2 -22.25 -6.2 -21.9 -6.05 -21.5 -5.55 Q-21.3 -5.0 -20.85 -5.0 L-19.9 -7.1 -18.9 -9.45 -19.15 -8.8 -18.25 -10.55 -18.2 -10.6 -18.25 -9.95 -18.1 -8.85 -18.05 -8.6 -17.95 -8.3 -17.65 -7.65 -17.05 -6.9 -16.95 -6.8 -16.9 -6.8 -16.65 -7.05 -15.9 -7.25 -16.55 -5.9 -14.45 -7.3 -13.4 -7.9 -12.45 -8.45 Q-11.0 -9.15 -9.5 -9.65 L-9.45 -9.6 -9.3 -9.75 -8.35 -10.15 -7.4 -10.4 -1.95 -11.05 -1.2 -11.1 2.1 -11.95 2.4 -12.0 4.3 -12.4 6.15 -12.7 0.5 -12.8 -0.6 -13.0 5.8 -13.95 8.7 -14.25 6.9 -12.85 6.5 -12.7 6.45 -12.7 5.7 -12.4 5.3 -12.3 2.85 -11.55 1.5 -11.15 -2.15 -10.1 -2.7 -9.95 -2.55 -9.9 -1.95 -9.85 -1.85 -9.85 0.75 -10.2 1.95 -10.45 4.55 -11.1 4.7 -11.15 4.95 -11.15 5.2 -10.95 7.15 -9.45 7.3 -9.35 7.35 -9.3 7.55 -9.1 6.65 -8.95 5.35 -9.35 3.0 -9.8 Q1.0 -9.75 0.75 -10.2 L-2.5 -9.65 -2.7 -9.65 -2.95 -9.7 -5.6 -7.55 -5.75 -7.25 Q-5.8 -6.9 -6.15 -6.8 L-6.3 -6.7 -6.3 -6.65 -6.2 -6.6 -6.9 -6.05 -7.05 -5.9 Q-8.8 -4.55 -10.8 -3.7 L-7.05 -4.7 -3.1 -5.0 -1.05 -4.7 -0.4 -4.55 -0.3 -4.5 -0.7 -4.4 -3.65 -3.65 Q-2.9 -3.25 -2.0 -3.15 L-1.25 -3.0 Q1.15 -2.2 3.25 -0.85 L3.85 -0.45 5.85 0.85 Q6.65 1.25 7.05 1.8 L6.95 1.85 4.65 1.7 4.4 1.65 5.95 2.5 6.75 3.0 Q8.1 3.85 9.65 4.35 L10.6 4.7 12.85 5.2 13.5 5.35 14.95 5.7 16.6 6.25 15.7 4.6 14.9 4.05 14.95 3.95 15.9 4.05 19.1 4.9 21.6 5.75 21.75 5.8 23.7 6.45 Q25.8 7.25 27.55 8.75 29.1 10.1 30.25 11.85 31.95 14.35 34.1 16.5 L34.05 16.6 Q29.45 13.8 28.6 13.8 28.0 13.8 28.0 14.4 L29.95 17.15 Q32.0 20.1 32.35 22.4 L33.35 26.65 34.15 30.5 34.1 32.3 34.05 32.65 34.05 32.75 34.1 33.25 34.15 33.6 M19.05 -12.7 L19.0 -12.7 18.55 -12.8 16.1 -13.35 13.45 -13.8 9.0 -13.3 9.95 -13.95 10.1 -14.05 9.15 -14.1 8.7 -14.25 9.05 -14.25 9.3 -14.15 10.1 -14.05 10.25 -14.15 11.4 -14.9 13.05 -14.85 13.15 -14.85 16.15 -13.9 Q17.65 -13.25 19.05 -12.7 M-0.45 -5.3 L3.5 -6.45 5.25 -6.7 5.6 -6.3 Q7.35 -4.3 7.35 -2.75 L7.1 -2.1 6.75 -1.7 Q6.35 -1.7 4.95 -2.8 L3.15 -4.25 0.8 -4.95 0.65 -5.0 0.05 -5.15 -0.45 -5.3 M9.3 -12.65 L16.6 -12.05 16.0 -11.8 15.85 -11.7 14.05 -11.6 13.8 -11.7 10.35 -12.4 9.3 -12.65 M28.3 1.3 Q28.6 2.1 31.7 3.25 34.8 4.45 35.35 5.45 L34.45 5.45 27.5 3.9 26.95 4.05 26.9 4.35 27.3 4.9 26.25 4.6 24.8 4.2 21.55 2.95 19.65 2.2 Q18.2 1.65 16.9 0.9 15.65 0.15 14.4 -0.5 L14.45 -0.6 20.35 0.3 21.05 0.4 21.3 0.45 21.35 0.45 23.05 0.75 25.2 0.7 28.0 1.1 28.35 1.2 28.3 1.3 M-15.9 -13.8 Q-14.65 -14.6 -12.3 -14.75 L-12.25 -14.4 -13.65 -12.95 -15.55 -10.75 -16.25 -8.8 -16.7 -7.6 -16.9 -8.05 -16.95 -8.2 -17.45 -9.85 -17.5 -9.95 -17.4 -11.25 -17.4 -11.35 -16.85 -12.75 -16.55 -13.25 -15.9 -13.8 M-23.05 -4.45 L-23.15 -4.5 -23.1 -4.45 -23.05 -4.45 M-17.0 -4.55 L-17.05 -4.55 -17.1 -4.45 -17.0 -4.55" fill="#cca9a9" fill-rule="evenodd" stroke="none"/>
    <path d="M-32.9 -13.55 L-33.65 -14.4 -27.4 -11.2 -27.2 -10.7 -27.55 -8.8 -27.3 -8.1 -26.95 -7.6 -26.8 -7.45 -26.75 -7.6 -26.7 -7.5 -26.0 -6.3 Q-25.45 -5.55 -24.65 -5.05 L-26.55 -3.6 -27.8 -2.7 -27.15 -6.65 -28.45 -8.4 Q-30.5 -11.2 -32.9 -13.55 M-26.0 -20.6 L-22.85 -22.9 Q-19.4 -25.3 -17.55 -25.5 L-1.15 -27.1 Q-4.05 -26.55 -6.8 -25.25 L-8.35 -24.5 -9.25 -24.1 -9.75 -23.9 Q-12.7 -22.75 -14.95 -20.6 L-16.45 -19.4 -17.1 -18.75 -13.7 -23.1 -13.55 -23.25 -13.85 -23.2 -16.75 -22.0 -18.55 -21.0 -22.4 -18.15 Q-23.5 -17.2 -24.1 -15.9 L-24.7 -14.95 -24.9 -14.75 -25.7 -17.1 -25.9 -17.8 Q-26.2 -19.15 -26.15 -20.55 L-26.0 -20.6 M-3.9 -22.65 L-3.4 -22.65 -0.9 -22.95 0.2 -23.1 2.25 -23.25 Q11.5 -23.25 17.95 -17.7 20.85 -15.2 23.2 -12.25 L21.55 -12.95 20.85 -13.3 20.15 -13.7 19.5 -14.1 15.95 -16.3 Q14.1 -17.35 12.1 -18.05 L11.05 -18.25 9.2 -18.25 5.55 -18.1 1.75 -17.7 1.35 -17.8 2.7 -18.3 6.05 -19.4 1.75 -19.25 -0.25 -19.05 -2.05 -18.85 -2.85 -18.8 -9.4 -17.95 -10.1 -17.75 -11.15 -17.4 -11.5 -17.4 -9.4 -19.1 -8.45 -19.8 Q-6.75 -21.2 -4.7 -22.2 L-3.9 -22.65 M27.35 -3.05 L27.6 -2.9 29.1 -1.8 26.9 -1.8 24.3 -1.6 24.05 -1.55 23.1 -1.6 22.85 -1.7 22.55 -1.9 22.55 -1.8 20.35 -2.4 Q19.9 -2.5 19.5 -2.7 18.4 -3.25 17.15 -3.3 L13.6 -4.05 11.85 -4.85 15.45 -4.55 17.2 -4.65 18.3 -4.65 18.1 -4.85 17.85 -5.05 17.25 -5.65 15.95 -6.9 15.25 -7.5 14.65 -8.1 Q16.45 -8.4 18.2 -8.05 L18.25 -8.05 19.15 -7.8 20.8 -7.0 21.6 -6.45 22.55 -5.75 Q23.85 -4.7 25.3 -4.05 L27.35 -3.05 M-16.35 -13.65 L-15.9 -13.8 -16.55 -13.25 -16.85 -12.75 -16.6 -13.25 -16.35 -13.65 M-23.05 -4.45 L-23.1 -4.45 -23.15 -4.5 -23.05 -4.45 M-17.4 -11.25 L-17.5 -9.95 -17.55 -10.25 -17.4 -11.25" fill="url(#gradient0)" fill-rule="evenodd" stroke="none"/>
    <path d="M8.7 -14.25 L7.95 -14.4 2.5 -15.25 -3.4 -14.75 -4.4 -14.45 -7.5 -13.05 -8.95 -12.0 -10.3 -10.85 Q-11.0 -11.95 -11.0 -12.6 L-10.95 -12.65 -10.2 -13.5 -7.95 -15.25 Q-4.6 -17.5 -1.55 -17.5 -0.35 -17.5 4.3 -15.85 7.3 -14.75 8.8 -14.3 L8.7 -14.25 M-25.25 -9.85 L-25.5 -9.55 -26.7 -7.95 -26.5 -9.0 -26.35 -9.45 Q-25.7 -11.35 -24.3 -12.65 -21.55 -15.25 -15.45 -16.3 L-16.3 -15.65 -16.35 -15.65 -17.35 -15.15 -18.45 -14.4 -19.15 -13.85 -20.8 -12.0 -21.4 -10.95 -22.05 -8.7 Q-22.5 -9.35 -22.4 -10.45 L-22.25 -11.35 -22.2 -11.6 -21.8 -13.05 -21.75 -13.25 -21.9 -13.15 Q-23.75 -11.7 -25.25 -9.85" fill="url(#gradient1)" fill-rule="evenodd" stroke="none"/>
    <path d="M-22.15 -5.85 L-22.75 -7.0 -23.2 -7.85 Q-24.85 -10.25 -27.9 -11.25 L-28.1 -11.15 -26.85 -8.5 Q-26.7 -8.2 -26.7 -6.75 L-26.7 -6.55 -26.7 -6.3 -26.7 -6.1 -26.9 -5.4 -26.85 -5.35 -27.15 -5.3 -27.6 -7.05 -27.95 -8.85 Q-27.95 -9.55 -29.0 -10.6 L-30.05 -11.7 Q-30.05 -12.95 -27.65 -12.5 -25.35 -12.1 -24.2 -10.8 -22.5 -9.25 -21.6 -7.05 L-21.6 -5.85 -22.05 -5.7 -22.15 -5.85" fill="#a36a6a" fill-rule="evenodd" stroke="none"/>
    <path d="M-26.7 -6.1 L-26.7 -6.3 -26.7 -6.55 -26.7 -6.75 Q-26.7 -8.2 -26.85 -8.5 L-28.1 -11.15 -27.9 -11.25 Q-24.85 -10.25 -23.2 -7.85 L-22.75 -7.0 -22.15 -5.85 -22.85 -5.2 Q-24.0 -4.2 -24.2 -4.2 L-26.7 -6.1" fill="#e0cbcb" fill-rule="evenodd" stroke="none"/>
    <path d="M-15.05 -9.4 L-14.35 -9.5 -13.8 -9.5 -12.2 -9.55 -8.15 -9.4 Q-3.25 -8.05 -1.45 -6.75 L-2.65 -7.15 -3.4 -7.3 -4.75 -7.45 -9.75 -7.25 -13.5 -6.2 -12.9 -6.6 -11.05 -7.9 -11.2 -7.9 -13.3 -7.8 -14.65 -7.75 -15.35 -9.25 -15.05 -9.4" fill="#e0cbcb" fill-rule="evenodd" stroke="none"/>
    <path d="M-1.45 -6.75 Q-3.25 -8.05 -8.15 -9.4 L-12.2 -9.55 -13.8 -9.5 -14.35 -9.5 -15.05 -9.4 -15.45 -9.35 -16.05 -9.3 -16.1 -9.2 -16.1 -9.45 Q-15.8 -10.55 -12.4 -10.7 -8.65 -10.75 -4.05 -9.35 L0.9 -6.15 Q0.75 -5.5 -1.35 -5.5 L-4.4 -5.6 -8.1 -4.55 -8.45 -4.45 -8.95 -4.3 -9.45 -4.65 -9.4 -4.7 -9.0 -4.95 -8.7 -5.15 -6.0 -6.2 -1.3 -6.65 -1.45 -6.75" fill="#a36a6a" fill-rule="evenodd" stroke="none"/>
    <path d="M-15.05 -9.4 L-15.35 -9.25 -15.45 -9.35 -15.05 -9.4 M-14.65 -7.75 L-13.3 -7.8 -11.2 -7.9 -11.05 -7.9 -12.9 -6.6 -13.5 -6.2 -9.75 -7.25 -4.75 -7.45 -3.4 -7.3 -2.65 -7.15 -1.45 -6.75 -1.3 -6.65 -6.0 -6.2 -8.7 -5.15 -9.0 -4.95 -9.4 -4.7 -9.45 -4.65 -8.95 -4.3 -8.45 -4.45 -8.1 -4.55 -8.05 -4.1 Q-8.25 -3.35 -9.15 -3.6 -11.75 -4.3 -13.5 -6.2 L-14.65 -7.75" fill="#cca9a9" fill-rule="evenodd" stroke="none"/>
  </g>
  <defs>
    <radialGradient cx="0" cy="0" gradientTransform="matrix(0.0402, -0.0107, 0.0112, 0.0369, -6.2, -33.15)" gradientUnits="userSpaceOnUse" id="gradient0" r="819.2" spreadMethod="pad">
      <stop offset="0.47843137254901963" stop-color="#ffffff"></stop>
      <stop offset="0.8823529411764706" stop-color="#f2eaea"></stop>
    </radialGradient>
    <radialGradient cx="0" cy="0" gradientTransform="matrix(0.0402, -0.0107, 0.0112, 0.0369, -4.45, -39.75)" gradientUnits="userSpaceOnUse" id="gradient1" r="819.2" spreadMethod="pad">
      <stop offset="0.47843137254901963" stop-color="#ffffff"></stop>
      <stop offset="0.8823529411764706" stop-color="#f2eaea"></stop>
    </radialGradient>
  </defs>
</svg>