<?xml version="1.0" encoding="UTF-8" standalone="no"?>
<svg xmlns:xlink="http://www.w3.org/1999/xlink" height="9.6px" width="35.5px" xmlns="http://www.w3.org/2000/svg">
  <g transform="matrix(1.0, 0.0, 0.0, 1.0, 17.75, 4.8)">
    <path d="M10.4 -2.8 Q12.2 -2.65 14.2 -1.8 L15.05 -1.4 15.5 -1.15 15.95 -0.9 16.2 -0.8 16.3 -0.75 16.7 -0.85 16.7 -0.8 Q15.4 2.7 14.05 3.1 12.9 1.75 10.9 1.45 6.1 0.7 1.55 1.95 L0.45 2.1 -3.2 2.1 0.5 1.45 3.9 0.65 Q10.55 -0.05 10.55 -1.95 L10.4 -2.8 M-15.75 0.25 L-15.5 -1.0 -15.6 -0.45 -15.55 -0.45 Q-12.6 -0.45 -9.25 0.9 -12.1 -0.05 -13.1 0.2 L-12.4 0.55 -12.3 0.6 -15.25 0.4 -15.75 0.25" fill="#e0cbcb" fill-rule="evenodd" stroke="none"/>
    <path d="M15.05 -1.4 L14.2 -1.8 Q12.2 -2.65 10.4 -2.8 L9.55 -2.85 7.75 -2.65 Q6.1 -2.35 4.15 -1.5 1.1 -0.2 -4.5 -0.2 -6.85 -0.2 -10.65 -1.45 L-14.0 -2.75 Q-14.7 -2.75 -15.2 -1.85 L-15.45 -1.25 -15.45 -1.05 -15.5 -1.0 -15.75 0.25 -15.55 1.35 -16.55 1.35 -16.75 0.55 Q-16.75 -0.4 -16.2 -1.75 -15.35 -3.7 -13.9 -3.7 L-10.7 -2.4 Q-7.15 -1.15 -2.35 -1.15 0.9 -1.15 3.7 -2.3 6.7 -3.6 10.0 -3.8 11.6 -3.9 14.15 -2.9 16.75 -1.9 16.75 -1.15 L16.7 -0.85 16.3 -0.75 16.2 -0.8 15.95 -0.9 15.5 -1.15 15.05 -1.4 M-3.2 2.1 L0.45 2.1 1.55 1.95 Q6.1 0.7 10.9 1.45 12.9 1.75 14.05 3.1 L14.2 3.25 14.2 3.45 14.15 3.65 13.85 3.8 13.05 3.45 Q9.2 1.55 5.0 2.2 L1.3 2.8 0.75 2.8 -1.6 3.0 Q-6.4 3.0 -9.65 1.75 L-12.3 0.6 -12.4 0.55 -13.1 0.2 Q-12.1 -0.05 -9.25 0.9 L-8.8 1.05 Q-6.35 1.9 -3.2 2.1" fill="#a36a6a" fill-rule="evenodd" stroke="none"/>
    <path d="M10.4 -2.8 L10.55 -1.95 Q10.55 -0.05 3.9 0.65 L0.5 1.45 -3.2 2.1 Q-6.35 1.9 -8.8 1.05 L-9.25 0.9 Q-12.6 -0.45 -15.55 -0.45 L-15.6 -0.45 -15.5 -1.0 -15.4 -1.05 -15.45 -1.05 -15.45 -1.25 -15.2 -1.85 Q-14.7 -2.75 -14.0 -2.75 L-10.65 -1.45 Q-6.85 -0.2 -4.5 -0.2 1.1 -0.2 4.15 -1.5 6.1 -2.35 7.75 -2.65 L9.55 -2.85 10.4 -2.8 M-14.55 -0.6 L-14.35 -0.6 -14.35 -0.65 -14.55 -0.6" fill="#f2eaea" fill-rule="evenodd" stroke="none"/>
  </g>
</svg>