<?xml version="1.0" encoding="UTF-8" standalone="no"?>
<svg xmlns:xlink="http://www.w3.org/1999/xlink" height="82.15px" width="89.45px" xmlns="http://www.w3.org/2000/svg">
  <g transform="matrix(1.0, 0.0, 0.0, 1.0, 44.7, 41.1)">
    <path d="M31.8 3.55 Q31.85 0.55 32.55 0.55 L33.55 1.3 34.9 2.3 34.3 -2.55 34.75 -6.25 Q34.95 -8.35 35.7 -9.25 L36.1 -9.6 36.4 -13.4 Q36.4 -16.55 35.3 -20.15 L34.15 -23.65 Q34.15 -25.0 35.5 -24.5 L35.8 -24.5 33.45 -27.1 30.9 -29.65 Q28.7 -31.5 25.5 -32.7 23.05 -33.6 23.05 -33.9 23.05 -34.3 23.4 -34.35 L26.4 -34.3 24.3 -34.95 19.45 -35.35 15.3 -35.05 Q14.5 -35.05 14.35 -35.35 L14.35 -35.65 Q14.35 -36.05 16.65 -38.2 L16.75 -38.35 16.7 -38.3 13.0 -37.7 7.3 -37.25 Q6.3 -36.8 5.85 -36.8 L5.2 -36.85 5.1 -37.25 Q5.1 -37.7 5.8 -37.95 L7.9 -38.75 Q2.8 -38.75 0.1 -37.95 L-1.85 -37.1 -3.8 -36.4 -4.4 -36.25 -4.7 -36.5 -0.3 -38.6 Q3.05 -39.7 8.8 -39.7 L12.15 -39.5 12.25 -39.25 Q11.9 -38.9 10.3 -38.45 13.35 -38.55 15.95 -39.25 L19.0 -40.1 19.15 -39.65 18.0 -38.15 16.45 -36.35 Q19.65 -37.25 25.25 -35.6 30.55 -34.1 30.55 -33.05 L30.5 -32.85 30.4 -32.75 Q30.3 -32.6 29.9 -32.6 L29.3 -32.95 27.85 -33.05 Q30.3 -31.5 34.15 -28.0 38.65 -24.0 38.65 -22.65 L38.55 -22.25 Q38.45 -22.0 38.05 -22.0 L36.8 -22.7 35.35 -23.3 Q37.45 -19.6 37.45 -13.35 L37.35 -9.6 36.25 -6.55 35.8 -1.55 36.1 1.2 36.4 3.1 Q36.4 3.85 35.45 3.85 34.7 3.85 34.0 3.3 L33.25 2.65 33.1 4.1 33.2 4.75 32.8 4.55 Q35.5 6.15 37.55 6.25 L37.65 6.65 Q37.65 7.05 37.25 7.05 L34.6 6.9 33.7 6.8 33.85 7.35 37.05 9.6 40.2 12.1 39.7 12.55 38.1 12.35 37.1 12.25 43.45 16.2 43.15 16.5 42.85 16.45 40.95 15.65 38.55 14.2 35.15 11.8 35.2 11.4 37.95 11.5 38.2 11.5 Q35.65 9.3 32.2 7.35 L31.4 6.9 31.85 5.7 31.95 5.7 33.75 5.9 31.85 4.75 31.75 3.8 31.8 3.85 31.8 3.55 M-18.8 -21.3 L-25.5 -20.5 -31.35 -17.9 Q-36.15 -16.35 -38.05 -12.8 L-37.4 -12.3 Q-37.4 -11.95 -38.35 -8.8 -39.35 -5.5 -39.9 -4.35 L-39.9 -4.3 -39.85 -4.3 Q-38.7 -4.85 -37.75 -6.0 L-36.15 -7.9 -35.85 -7.55 -35.85 -7.45 -35.5 -7.85 -38.45 -2.6 Q-40.0 0.3 -41.15 3.2 L-42.05 5.5 -41.25 5.15 -39.65 3.9 -38.3 2.65 -38.05 2.75 -37.85 2.9 -37.85 3.2 Q-37.85 4.5 -39.75 10.3 L-41.75 16.15 -41.8 16.2 -41.75 16.2 -40.15 14.5 -38.65 12.75 -38.3 13.2 -38.75 14.85 -39.2 17.85 -38.9 20.55 -38.6 22.9 -38.5 22.95 -37.95 21.7 -37.55 20.35 -37.1 20.1 -36.25 25.75 -35.05 31.45 -35.0 31.45 -34.5 30.1 -34.25 29.0 -34.25 28.6 Q-34.35 28.5 -34.0 28.5 L-33.9 28.55 -33.5 28.6 -33.15 30.35 -32.45 32.2 -32.35 32.2 -32.3 29.35 -32.15 29.25 -31.85 29.2 -30.0 31.0 -28.45 32.35 Q-26.0 34.2 -25.4 35.65 L-25.3 35.65 -25.3 35.6 -25.7 34.75 -26.0 33.75 -26.0 33.25 -25.4 33.1 Q-25.35 33.1 -21.8 35.4 -19.35 36.95 -16.9 37.85 L-14.85 38.35 -9.45 38.9 Q-6.95 38.9 -1.9 37.0 3.85 34.85 5.0 34.65 L7.7 33.85 Q9.25 33.5 14.95 33.7 L22.3 34.5 23.05 34.6 Q24.85 34.85 24.85 35.1 L24.7 35.4 24.65 35.5 24.4 35.55 17.5 35.05 13.7 34.55 Q7.3 34.55 -0.3 37.3 -7.85 40.05 -10.6 40.05 L-15.7 39.35 -17.6 38.65 Q-20.2 37.9 -24.7 34.6 L-23.8 37.5 Q-23.8 38.2 -24.4 38.2 L-31.4 31.3 -31.45 32.9 Q-31.55 34.05 -32.0 34.05 -32.75 34.05 -33.35 32.55 L-34.0 30.6 -34.9 33.0 -34.85 33.05 -35.05 33.1 Q-36.0 33.1 -36.75 29.55 L-36.8 29.45 Q-37.45 26.65 -37.7 23.4 L-37.75 23.35 -38.1 24.35 -38.15 25.5 -38.2 25.65 -38.5 25.75 Q-39.3 25.75 -39.75 21.65 -40.2 17.65 -39.8 15.1 L-41.2 16.5 -42.65 17.85 -43.0 17.2 -41.6 12.5 -41.45 12.0 Q-39.8 6.75 -39.5 5.15 L-40.9 6.2 -41.3 6.5 -42.95 7.15 Q-43.7 7.15 -43.7 6.65 -43.7 4.9 -40.85 0.0 L-40.35 -0.9 -39.3 -2.6 -38.1 -4.45 Q-39.4 -3.1 -40.35 -2.6 L-40.7 -2.4 -41.4 -2.3 Q-41.9 -2.3 -42.0 -2.6 L-42.0 -2.7 -41.15 -4.1 Q-40.2 -5.65 -39.8 -7.05 L-38.55 -11.25 -38.6 -11.35 -39.4 -10.65 Q-39.8 -10.35 -40.35 -10.35 -41.0 -10.35 -41.0 -10.8 L-38.0 -14.1 -36.85 -15.75 -35.5 -16.75 -34.0 -17.7 -30.6 -19.45 Q-27.75 -20.95 -25.6 -21.5 L-18.55 -22.2 -18.8 -21.35 -18.8 -21.3 M-37.75 7.9 L-38.15 7.55 Q-35.95 0.65 -34.15 -0.35 L-34.1 -0.2 -35.1 2.05 -37.0 6.5 -36.95 6.55 -36.15 5.65 -35.85 5.4 -35.7 5.3 -35.5 5.2 -35.2 5.35 -35.15 5.5 Q-35.15 6.1 -35.7 8.0 -36.3 10.15 -36.85 10.95 L-36.95 10.9 -37.1 10.55 -36.7 7.7 -36.7 7.6 -36.75 7.65 -37.5 7.9 -37.75 7.9 M31.75 3.7 L31.7 3.35 31.75 3.55 31.75 3.7 M-24.9 1.65 L-25.55 4.05 -26.3 6.3 -26.35 6.4 -26.55 6.45 -26.85 6.1 -26.1 3.85 -25.05 1.5 -24.95 1.5 -24.9 1.65 M-24.85 5.4 L-25.3 6.75 -25.9 8.05 Q-25.6 8.1 -25.4 8.4 L-25.2 8.65 -25.65 9.7 -26.0 9.7 -25.9 8.8 Q-26.75 8.8 -26.75 8.35 L-26.05 6.65 -25.05 5.15 -24.85 5.4 M-34.7 14.85 L-34.7 18.15 Q-34.85 20.0 -35.6 21.15 -35.95 20.9 -35.95 19.5 L-35.7 17.05 Q-35.4 14.95 -35.0 14.55 L-34.75 14.6 -34.7 14.85 M-31.75 23.35 Q-30.7 25.35 -30.7 26.8 L-30.65 26.8 Q-30.5 25.65 -29.9 25.65 -29.5 25.65 -28.95 27.1 L-28.1 29.1 -28.3 29.4 Q-29.05 29.1 -29.4 28.45 L-29.8 27.25 -30.05 27.85 -30.7 28.3 Q-31.25 28.3 -32.15 24.0 -32.15 23.6 -31.75 23.35 M-23.1 13.5 L-23.65 16.55 -23.75 16.65 -24.0 16.65 -24.15 16.1 -23.9 14.7 -23.35 13.25 -23.1 13.5 M-18.75 33.8 L-18.65 33.8 -17.25 34.85 Q-15.85 35.65 -15.5 36.0 L-15.8 36.1 Q-17.4 36.1 -18.8 33.95 L-18.75 33.8 M24.65 35.5 L24.6 35.5 24.65 35.5" fill="#a36a6a" fill-rule="evenodd" stroke="none"/>
    <path d="M16.65 -38.2 L16.7 -38.3 16.65 -38.2 M-39.75 10.3 L-38.05 8.25 -37.75 7.9 -37.5 7.9 -36.75 7.65 -36.7 7.7 -37.1 10.55 -36.95 10.9 -36.85 10.95 -36.95 10.95 -37.15 11.5 -37.4 12.95 -37.25 12.95 Q-35.25 11.85 -34.15 9.7 L-33.1 7.2 -33.0 7.05 -33.0 7.2 -32.95 11.15 -32.75 13.75 Q-32.55 16.1 -32.7 18.5 -32.55 16.75 -31.9 15.1 L-31.15 12.9 -30.4 9.4 -30.2 7.85 -30.1 7.4 -30.1 7.55 Q-30.1 10.45 -28.9 13.1 L-27.85 15.45 Q-27.1 17.3 -27.3 19.25 L-27.55 21.5 Q-27.6 22.85 -28.4 23.9 -27.6 23.45 -27.3 22.5 L-26.7 20.6 -25.8 18.15 -25.45 17.15 -25.35 16.85 -25.2 17.15 -24.8 18.5 -24.3 19.8 -23.75 20.85 -23.15 21.6 Q-22.95 19.05 -21.65 16.8 L-20.8 15.45 -20.1 14.4 Q-19.35 13.3 -19.25 12.0 L-19.1 10.6 -19.0 9.4 -19.0 8.4 -18.95 8.5 Q-18.05 10.75 -17.4 13.1 -17.1 14.3 -17.05 15.55 L-17.05 16.15 -15.3 13.95 -15.1 13.75 -15.05 13.65 -14.75 14.4 -14.45 15.8 -14.05 18.05 -13.75 20.95 -13.55 21.85 -13.45 22.4 Q-12.15 21.05 -11.5 19.25 L-10.65 16.15 -10.2 13.15 -10.0 8.9 -10.0 8.75 Q-9.25 10.95 -8.85 13.35 L-8.55 14.7 -8.55 15.15 Q-8.25 14.85 -8.15 15.3 L-8.05 15.65 -7.7 15.3 -6.95 14.0 -6.55 13.1 -6.45 12.95 -5.85 19.1 -5.45 23.35 -5.25 25.95 Q-5.05 28.2 -4.35 30.2 -4.7 29.3 -5.4 28.5 L-6.3 27.5 -6.5 27.2 -6.6 27.25 -6.5 28.6 -5.85 31.25 -5.0 33.25 -4.75 33.7 Q-6.85 31.9 -9.4 30.8 L-12.2 29.45 -14.75 27.75 -16.95 26.15 -17.45 25.6 -17.35 26.05 -15.2 31.05 -14.1 32.55 -13.7 32.75 -13.8 32.85 -14.1 32.55 Q-14.7 32.2 -15.35 32.0 L-16.6 31.6 -17.15 31.3 -17.5 31.1 -17.75 31.0 -19.45 30.15 -20.9 29.2 -20.95 29.25 Q-19.85 30.55 -19.5 32.2 -19.45 32.5 -19.8 32.4 L-21.75 31.65 -22.8 31.05 -23.25 30.8 -23.4 30.75 -23.35 31.05 -22.3 33.3 -21.15 34.55 -20.35 35.1 -20.5 35.05 Q-22.3 34.15 -24.25 33.4 L-26.65 32.35 Q-28.3 31.6 -30.0 31.0 L-31.85 29.2 -32.15 29.25 -32.3 29.35 -32.35 32.2 -32.45 32.2 -33.15 30.35 -33.5 28.6 -33.9 28.55 -34.0 28.5 Q-34.35 28.5 -34.25 28.6 L-34.25 29.0 -34.5 30.1 -35.0 31.45 -35.05 31.45 -36.25 25.75 -37.1 20.1 -37.55 20.35 -37.95 21.7 -38.5 22.95 -38.6 22.9 -38.9 20.55 -39.2 17.85 -38.75 14.85 -38.3 13.2 -38.65 12.75 -40.15 14.5 -41.75 16.2 -41.75 16.15 -39.75 10.3 M-35.85 5.4 L-35.7 5.15 -35.7 5.3 -35.85 5.4 M-34.7 14.85 L-34.75 14.6 -35.0 14.55 Q-35.4 14.95 -35.7 17.05 L-35.95 19.5 Q-35.95 20.9 -35.6 21.15 -34.85 20.0 -34.7 18.15 L-34.7 14.85 M-31.75 23.35 Q-32.15 23.6 -32.15 24.0 -31.25 28.3 -30.7 28.3 L-30.05 27.85 -29.8 27.25 -29.4 28.45 Q-29.05 29.1 -28.3 29.4 L-28.1 29.1 -28.95 27.1 Q-29.5 25.65 -29.9 25.65 -30.5 25.65 -30.65 26.8 L-30.7 26.8 Q-30.7 25.35 -31.75 23.35 M24.65 35.5 L24.6 35.5 24.65 35.5" fill="#e0cbcb" fill-rule="evenodd" stroke="none"/>
    <path d="M16.65 -38.2 Q14.35 -36.05 14.35 -35.65 L14.35 -35.35 Q14.5 -35.05 15.3 -35.05 L19.45 -35.35 24.3 -34.95 26.4 -34.3 23.4 -34.35 Q23.05 -34.3 23.05 -33.9 23.05 -33.6 25.5 -32.7 28.7 -31.5 30.9 -29.65 L33.45 -27.1 35.8 -24.5 35.5 -24.5 Q34.15 -25.0 34.15 -23.65 L35.3 -20.15 Q36.4 -16.55 36.4 -13.4 L36.1 -9.6 35.7 -9.25 Q34.95 -8.35 34.75 -6.25 L34.3 -2.55 34.9 2.3 33.55 1.3 32.55 0.55 Q31.85 0.55 31.8 3.55 L31.75 3.55 31.7 3.35 31.75 3.7 31.75 3.8 31.85 4.75 33.75 5.9 31.95 5.7 31.85 5.7 31.4 6.9 32.2 7.35 Q35.65 9.3 38.2 11.5 L37.95 11.5 35.2 11.4 35.15 11.8 38.55 14.2 40.95 15.65 42.85 16.45 43.2 17.1 Q43.75 18.6 43.75 20.1 43.75 26.7 35.2 31.6 28.95 35.2 24.65 35.5 L24.7 35.4 24.85 35.1 Q24.85 34.85 23.05 34.6 L22.3 34.5 14.95 33.7 Q9.25 33.5 7.7 33.85 L5.0 34.65 Q3.85 34.85 -1.9 37.0 -6.95 38.9 -9.45 38.9 L-14.85 38.35 -16.9 37.85 Q-19.35 36.95 -21.8 35.4 -25.35 33.1 -25.4 33.1 L-26.0 33.25 -26.0 33.75 -25.7 34.75 -25.3 35.6 -25.4 35.65 Q-26.0 34.2 -28.45 32.35 L-30.0 31.0 Q-28.3 31.6 -26.65 32.35 L-24.25 33.4 Q-22.3 34.15 -20.5 35.05 L-20.35 35.1 -21.15 34.55 -22.3 33.3 -23.35 31.05 -23.4 30.75 -23.25 30.8 -22.8 31.05 -21.75 31.65 -19.8 32.4 Q-19.45 32.5 -19.5 32.2 -19.85 30.55 -20.95 29.25 L-20.9 29.2 -19.45 30.15 -17.75 31.0 -17.5 31.1 -17.15 31.3 -16.6 31.6 -15.35 32.0 Q-14.7 32.2 -14.1 32.55 L-13.8 32.85 -13.7 32.75 -14.1 32.55 -15.2 31.05 -17.35 26.05 -17.45 25.6 -16.95 26.15 -14.75 27.75 -12.2 29.45 -9.4 30.8 Q-6.85 31.9 -4.75 33.7 L-5.0 33.25 -5.85 31.25 -6.5 28.6 -6.6 27.25 -6.5 27.2 -6.3 27.5 -5.4 28.5 Q-4.7 29.3 -4.35 30.2 -5.05 28.2 -5.25 25.95 L-5.45 23.35 -5.85 19.1 -6.45 12.95 -6.55 13.1 -6.95 14.0 -7.7 15.3 -8.05 15.65 -8.15 15.3 Q-8.25 14.85 -8.55 15.15 L-8.55 14.7 -8.85 13.35 Q-9.25 10.95 -10.0 8.75 L-10.0 8.9 -10.2 13.15 -10.65 16.15 -11.5 19.25 Q-12.15 21.05 -13.45 22.4 L-13.55 21.85 -13.75 20.95 -14.05 18.05 -14.45 15.8 -14.75 14.4 -15.05 13.65 -15.1 13.75 -15.3 13.95 -17.05 16.15 -17.05 15.55 Q-17.1 14.3 -17.4 13.1 -18.05 10.75 -18.95 8.5 L-19.0 8.4 -19.0 9.4 -19.1 10.6 -19.25 12.0 Q-19.35 13.3 -20.1 14.4 L-20.8 15.45 -21.65 16.8 Q-22.95 19.05 -23.15 21.6 L-23.75 20.85 -24.3 19.8 -24.8 18.5 -25.2 17.15 -25.35 16.85 -25.45 17.15 -25.8 18.15 -26.7 20.6 -27.3 22.5 Q-27.6 23.45 -28.4 23.9 -27.6 22.85 -27.55 21.5 L-27.3 19.25 Q-27.1 17.3 -27.85 15.45 L-28.9 13.1 Q-30.1 10.45 -30.1 7.55 L-30.1 7.4 -30.2 7.85 -30.4 9.4 -31.15 12.9 -31.9 15.1 Q-32.55 16.75 -32.7 18.5 -32.55 16.1 -32.75 13.75 L-32.95 11.15 -33.0 7.2 -33.0 7.05 -33.1 7.2 -34.15 9.7 Q-35.25 11.85 -37.25 12.95 L-37.4 12.95 -37.15 11.5 -36.95 10.95 -36.85 10.95 Q-36.3 10.15 -35.7 8.0 -35.15 6.1 -35.15 5.5 L-35.2 5.35 -35.5 5.2 -35.7 5.3 -35.7 5.15 -35.85 5.4 -36.15 5.65 -36.95 6.55 -37.0 6.5 -35.1 2.05 -34.1 -0.2 -34.15 -0.35 Q-35.95 0.65 -38.15 7.55 L-37.75 7.9 -38.05 8.25 -39.75 10.3 Q-37.85 4.5 -37.85 3.2 L-37.85 2.9 -38.05 2.75 -38.3 2.65 -39.65 3.9 -41.25 5.15 -42.05 5.5 -41.15 3.2 Q-40.0 0.3 -38.45 -2.6 L-35.5 -7.85 -35.85 -7.45 -35.85 -7.55 -36.15 -7.9 -37.75 -6.0 Q-38.7 -4.85 -39.85 -4.3 L-39.9 -4.35 Q-39.35 -5.5 -38.35 -8.8 -37.4 -11.95 -37.4 -12.3 L-38.05 -12.8 Q-36.15 -16.35 -31.35 -17.9 L-25.5 -20.5 -18.8 -21.3 -18.5 -20.7 -18.5 -20.9 Q-18.5 -22.5 -15.15 -26.0 L-11.15 -29.75 Q-9.45 -31.1 -5.05 -35.4 L-3.8 -36.4 -1.85 -37.1 0.1 -37.95 Q2.8 -38.75 7.9 -38.75 L5.8 -37.95 Q5.1 -37.7 5.1 -37.25 L5.2 -36.85 5.85 -36.8 Q6.3 -36.8 7.3 -37.25 L13.0 -37.7 16.7 -38.3 16.65 -38.2 M-24.85 5.4 L-25.05 5.15 -26.05 6.65 -26.75 8.35 Q-26.75 8.8 -25.9 8.8 L-26.0 9.7 -25.65 9.7 -25.2 8.65 -25.4 8.4 Q-25.6 8.1 -25.9 8.05 L-25.3 6.75 -24.85 5.4 M-24.9 1.65 L-24.95 1.5 -25.05 1.5 -26.1 3.85 -26.85 6.1 -26.55 6.45 -26.35 6.4 -26.3 6.3 -25.55 4.05 -24.9 1.65 M-23.1 13.5 L-23.35 13.25 -23.9 14.7 -24.15 16.1 -24.0 16.65 -23.75 16.65 -23.65 16.55 -23.1 13.5 M-18.75 33.8 L-18.8 33.95 Q-17.4 36.1 -15.8 36.1 L-15.5 36.0 Q-15.85 35.65 -17.25 34.85 L-18.65 33.8 -18.75 33.8" fill="#cca9a9" fill-rule="evenodd" stroke="none"/>
  </g>
</svg>