<?xml version="1.0" encoding="UTF-8" standalone="no"?>
<svg xmlns:xlink="http://www.w3.org/1999/xlink" height="12.35px" width="27.45px" xmlns="http://www.w3.org/2000/svg">
  <g transform="matrix(1.0, 0.0, 0.0, 1.0, 13.7, 6.15)">
    <path d="M-0.2 -3.75 Q1.1 -4.35 2.5 -4.7 8.4 -6.05 11.05 -3.4 12.65 -1.8 12.75 0.55 L11.75 1.75 11.05 3.6 10.25 4.9 8.75 5.2 Q7.8 5.2 5.45 4.45 L4.6 4.2 3.1 3.7 5.65 2.2 Q7.1 1.25 6.5 -0.35 5.8 -1.95 1.9 -2.15 L-2.6 -2.25 -1.25 -3.2 -0.35 -3.65 -0.2 -3.7 -0.2 -3.75 M-2.4 3.65 L-2.55 3.65 -2.8 3.65 -2.9 3.65 Q-4.6 3.65 -4.6 2.75 L-4.25 1.05 Q-3.45 1.35 -1.9 3.3 -1.9 3.55 -2.4 3.65" fill="#d2d2db" fill-rule="evenodd" stroke="none"/>
    <path d="M-0.2 -3.75 L-0.2 -3.7 -0.35 -3.65 -0.2 -3.75 M-2.6 -2.25 L1.9 -2.15 Q5.8 -1.95 6.5 -0.35 7.1 1.25 5.65 2.2 L3.1 3.7 2.5 3.6 Q1.1 3.45 -2.4 3.65 -1.9 3.55 -1.9 3.3 -3.45 1.35 -4.25 1.05 L-3.45 -1.25 -2.6 -2.25 M-10.75 -2.35 Q-8.9 -2.5 -8.9 -0.55 -8.9 -0.05 -9.45 0.55 -10.2 1.35 -11.25 1.35 -12.35 1.35 -12.65 0.45 L-12.7 -0.55 Q-12.7 -2.2 -10.75 -2.35" fill="#ffffff" fill-rule="evenodd" stroke="none"/>
  </g>
</svg>