<?xml version="1.0" encoding="UTF-8" standalone="no"?>
<svg xmlns:xlink="http://www.w3.org/1999/xlink" height="12.5px" width="25.1px" xmlns="http://www.w3.org/2000/svg">
  <g transform="matrix(1.0, 0.0, 0.0, 1.0, 12.55, 6.25)">
    <path d="M3.6 -4.55 L4.65 -4.7 Q8.8 -4.7 10.55 -2.5 11.55 -1.25 11.55 0.1 11.55 1.9 10.2 3.2 8.15 5.25 3.3 5.25 2.0 5.25 -0.05 3.9 L-0.2 3.85 -0.55 3.55 -1.35 3.05 -1.4 3.05 Q-1.5 2.95 -1.55 2.95 L-1.65 2.9 -1.85 2.8 -2.25 2.55 -2.3 2.55 -2.45 2.65 -2.85 2.9 Q-5.35 4.35 -6.65 4.35 -9.25 4.35 -10.55 3.05 L-10.7 2.85 -10.75 2.85 -10.8 2.75 -11.3 2.1 -11.5 1.45 -11.55 1.0 Q-11.55 0.0 -10.8 -1.35 L-9.1 -3.7 -8.8 -3.95 -8.65 -4.05 -8.1 -4.35 -7.45 -4.7 -2.25 -5.2 1.7 -4.8 3.6 -4.55 M-6.15 -0.65 Q-5.6 -1.25 -5.6 -1.65 -5.6 -2.95 -8.7 -2.35 L-9.6 -1.6 -9.85 -0.7 Q-9.85 -0.15 -9.35 0.05 L-9.3 -0.1 -9.55 0.3 Q-10.15 0.3 -10.15 0.9 -9.1 2.5 -7.6 2.5 L-6.8 2.45 -5.7 2.4 -5.45 2.2 -5.4 2.0 -4.95 1.6 -4.7 1.25 -4.75 1.05 Q-4.85 0.8 -5.3 0.8 L-5.75 0.9 -6.55 0.95 -8.05 0.75 -8.6 0.35 -9.1 -0.1 -8.75 0.15 -7.95 0.15 Q-6.85 0.15 -6.15 -0.65 M1.2 -1.35 L0.4 -0.45 Q0.4 -0.05 0.9 0.45 L0.8 0.65 0.6 1.3 Q0.6 1.65 1.75 2.5 2.95 3.4 3.7 3.4 L4.75 3.3 Q5.9 3.3 6.95 2.75 7.95 2.2 7.95 1.7 7.95 0.95 7.25 0.95 6.7 0.95 6.45 1.3 L5.55 1.6 3.5 1.25 Q4.25 1.1 4.6 0.45 L4.9 -0.6 Q4.9 -2.4 2.65 -2.05 2.0 -1.95 1.2 -1.35" fill="#ff0000" fill-rule="evenodd" stroke="none"/>
    <path d="M1.2 -1.35 Q2.0 -1.95 2.65 -2.05 4.9 -2.4 4.9 -0.6 L4.6 0.45 Q4.25 1.1 3.5 1.25 L5.55 1.6 6.45 1.3 Q6.7 0.95 7.25 0.95 7.95 0.95 7.95 1.7 7.95 2.2 6.95 2.75 5.9 3.3 4.75 3.3 L3.7 3.4 Q2.95 3.4 1.75 2.5 0.6 1.65 0.6 1.3 L0.8 0.65 0.9 0.45 Q0.4 -0.05 0.4 -0.45 L1.2 -1.35 M-6.15 -0.65 Q-6.85 0.15 -7.95 0.15 L-8.75 0.15 -9.1 -0.1 -8.6 0.35 -8.05 0.75 -6.55 0.95 -5.75 0.9 -5.3 0.8 Q-4.85 0.8 -4.75 1.05 L-4.7 1.25 -4.95 1.6 -5.4 2.0 -5.45 2.2 -5.7 2.4 -6.8 2.45 -7.6 2.5 Q-9.1 2.5 -10.15 0.9 -10.15 0.3 -9.55 0.3 L-9.3 -0.1 -9.35 0.05 Q-9.85 -0.15 -9.85 -0.7 L-9.6 -1.6 -8.7 -2.35 Q-5.6 -2.95 -5.6 -1.65 -5.6 -1.25 -6.15 -0.65" fill="#ff00ff" fill-rule="evenodd" stroke="none"/>
  </g>
</svg>