<?xml version="1.0" encoding="UTF-8" standalone="no"?>
<svg xmlns:xlink="http://www.w3.org/1999/xlink" height="10.9px" width="19.1px" xmlns="http://www.w3.org/2000/svg">
  <g transform="matrix(1.0, 0.0, 0.0, 1.0, 9.55, 5.45)">
    <path d="M-8.05 -0.8 L-7.9 -1.95 -7.3 -2.95 Q-6.75 -3.75 -5.9 -3.9 L-4.35 -3.75 Q-3.5 -3.55 -2.85 -2.9 L-2.3 -2.05 -2.1 -1.05 -2.3 0.75 Q-2.5 1.65 -3.25 2.15 L-4.4 2.6 -5.65 2.8 Q-6.55 2.8 -7.2 2.05 L-7.85 0.85 -8.05 -0.8" fill="url(#gradient0)" fill-rule="evenodd" stroke="none"/>
    <path d="M2.4 -3.4 L4.7 -3.75 Q6.35 -3.7 7.4 -2.35 8.2 -1.5 8.0 0.25 7.8 2.55 6.05 3.4 L5.85 3.5 Q3.7 4.6 2.2 3.15 0.85 1.4 0.95 -0.85 L1.0 -1.9 2.4 -3.4" fill="url(#gradient1)" fill-rule="evenodd" stroke="none"/>
    <path d="M2.4 -3.4 L4.7 -3.75 Q6.35 -3.7 7.4 -2.35 8.2 -1.5 8.0 0.25 7.8 2.55 6.05 3.4 L5.85 3.5 Q3.7 4.6 2.2 3.15 0.85 1.4 0.95 -0.85 L1.0 -1.9 2.4 -3.4 M-8.05 -0.8 L-7.85 0.85 -7.2 2.05 Q-6.55 2.8 -5.65 2.8 L-4.4 2.6 -3.25 2.15 Q-2.5 1.65 -2.3 0.75 L-2.1 -1.05 -2.3 -2.05 -2.85 -2.9 Q-3.5 -3.55 -4.35 -3.75 L-5.9 -3.9 Q-6.75 -3.75 -7.3 -2.95 L-7.9 -1.95 -8.05 -0.8 Z" fill="none" stroke="#a36a6a" stroke-linecap="round" stroke-linejoin="round" stroke-width="1.0"/>
  </g>
  <defs>
    <radialGradient cx="0" cy="0" gradientTransform="matrix(0.0076, 0.0, 0.0, 0.0076, -5.9, 1.8)" gradientUnits="userSpaceOnUse" id="gradient0" r="819.2" spreadMethod="pad">
      <stop offset="0.0" stop-color="#f3ecec"></stop>
      <stop offset="1.0" stop-color="#cca9a9"></stop>
    </radialGradient>
    <radialGradient cx="0" cy="0" gradientTransform="matrix(0.0077, 0.0, 0.0, 0.0077, 4.5, 2.0)" gradientUnits="userSpaceOnUse" id="gradient1" r="819.2" spreadMethod="pad">
      <stop offset="0.0" stop-color="#f3ecec"></stop>
      <stop offset="1.0" stop-color="#cca9a9"></stop>
    </radialGradient>
  </defs>
</svg>