<?xml version="1.0" encoding="UTF-8" standalone="no"?>
<svg xmlns:xlink="http://www.w3.org/1999/xlink" height="20.45px" width="34.4px" xmlns="http://www.w3.org/2000/svg">
  <g transform="matrix(1.0, 0.0, 0.0, 1.0, 17.25, 11.7)">
    <path d="M-12.3 5.9 Q-13.15 5.2 -14.15 2.55 -15.2 -0.2 -15.2 -2.0 L-14.8 -4.4 -14.3 -6.55 -12.55 -8.95 Q-12.2 -9.4 -10.85 -9.5 L-10.45 -9.55 -10.25 -9.6 -9.2 -10.1 -9.2 -10.15 -9.75 -10.35 -9.7 -10.5 Q-7.85 -10.5 -6.1 -8.9 L-6.5 -8.6 -7.85 -7.3 Q-10.3 -4.7 -11.15 -1.15 L-11.25 -3.7 Q-11.25 -4.6 -11.4 -5.0 L-12.45 -1.85 -12.7 -0.7 -12.85 0.15 -12.95 0.8 -12.95 3.35 -12.8 3.95 -12.3 5.85 -12.3 5.9" fill="url(#gradient0)" fill-rule="evenodd" stroke="none"/>
    <path d="M-9.75 -10.35 L-9.2 -10.15 -9.2 -10.1 -10.25 -9.6 -10.45 -9.55 -10.85 -9.5 Q-12.2 -9.4 -12.55 -8.95 L-14.3 -6.55 -14.8 -4.4 -15.2 -2.0 Q-15.2 -0.2 -14.15 2.55 -13.15 5.2 -12.3 5.9 L-12.1 6.0 -11.95 6.5 Q-12.05 3.3 -10.4 0.3 -8.65 -3.0 -6.45 -4.1 L-5.0 -4.65 -4.45 -4.75 -3.95 -4.75 -3.9 -4.75 -3.8 -4.75 -3.7 -4.85 -3.65 -4.65 -3.65 -4.6 -3.85 -4.45 -5.7 -3.1 Q-8.05 -1.05 -9.5 1.7 -10.15 2.9 -10.4 4.65 L-10.85 7.7 -11.15 7.75 -11.35 7.75 Q-13.85 7.55 -15.25 2.45 -16.0 -0.2 -16.25 -3.1 -16.25 -6.05 -14.9 -8.4 -13.15 -11.4 -10.1 -10.5 L-9.75 -10.35" fill="#a36a6a" fill-rule="evenodd" stroke="none"/>
    <path d="M-12.3 5.9 L-12.3 5.85 -12.8 3.95 -12.95 3.35 -12.95 0.8 -12.85 0.15 -12.7 -0.7 -12.45 -1.85 -11.4 -5.0 Q-11.25 -4.6 -11.25 -3.7 L-11.15 -1.15 Q-10.3 -4.7 -7.85 -7.3 L-6.5 -8.6 -6.1 -8.9 -5.35 -8.2 -4.45 -7.1 -4.35 -6.65 -4.05 -5.2 -4.0 -5.05 -4.2 -4.9 -4.45 -4.75 -5.0 -4.65 -6.45 -4.1 Q-8.65 -3.0 -10.4 0.3 -12.05 3.3 -11.95 6.5 L-12.1 6.0 -12.3 5.9 M-9.7 -10.5 L-9.75 -10.35 -10.1 -10.5 -9.7 -10.5" fill="#e0cbcb" fill-rule="evenodd" stroke="none"/>
    <path d="M6.8 -6.5 L7.15 -6.45 6.7 -6.55 6.75 -6.45 6.8 -6.5 M10.3 -9.4 L9.4 -9.2 8.65 -8.95 8.7 -8.9 9.35 -8.6 10.3 -8.25 10.45 -8.2 11.5 -7.9 12.1 -7.7 12.15 -7.65 Q12.65 -6.65 12.7 -5.45 L12.7 -4.75 12.6 -2.5 12.5 -1.85 Q12.2 -3.2 11.4 -4.1 L9.55 -5.35 8.55 -5.8 8.35 -5.9 8.3 -5.75 8.6 -5.0 9.5 -2.3 9.5 -2.25 9.7 -1.35 9.7 -0.55 9.4 -0.6 9.35 -0.6 8.75 -1.6 Q7.85 -3.0 6.95 -3.45 L5.65 -4.15 5.35 -4.25 4.95 -4.45 4.9 -4.45 2.35 -5.05 1.7 -5.1 1.55 -5.1 1.55 -5.15 1.4 -5.1 1.3 -5.1 Q0.95 -5.6 0.95 -6.7 0.95 -8.0 1.95 -8.95 3.6 -10.5 7.5 -10.5 9.25 -10.5 10.3 -9.4" fill="url(#gradient1)" fill-rule="evenodd" stroke="none"/>
    <path d="M12.15 -7.65 L12.1 -7.7 11.5 -7.9 10.45 -8.2 10.3 -8.25 9.35 -8.6 8.7 -8.9 8.65 -8.95 9.4 -9.2 10.3 -9.4 11.0 -9.45 Q13.05 -9.45 14.45 -7.6 L15.2 -6.25 Q16.15 -4.2 16.15 -2.75 16.15 -1.1 14.15 2.25 12.1 5.7 10.4 6.5 9.9 1.85 8.05 -0.85 L7.95 -0.95 7.25 -1.8 Q5.75 -3.45 3.7 -4.0 L3.2 -4.1 2.7 -4.2 1.65 -4.3 1.3 -4.3 0.95 -4.25 0.8 -5.05 1.1 -5.1 1.3 -5.1 1.4 -5.1 1.55 -5.1 1.7 -5.1 2.35 -5.05 4.9 -4.45 4.95 -4.45 5.35 -4.25 5.65 -4.15 6.95 -3.45 Q7.85 -3.0 8.75 -1.6 L9.35 -0.6 9.4 -0.6 Q10.65 1.65 11.15 4.35 14.45 0.0 14.45 -0.7 L14.7 -1.6 14.95 -2.55 Q14.95 -3.65 13.9 -6.15 L13.65 -6.55 Q13.1 -7.25 12.15 -7.65" fill="#a36a6a" fill-rule="evenodd" stroke="none"/>
    <path d="M1.4 -5.1 L1.55 -5.15 1.55 -5.1 1.4 -5.1 M9.4 -0.6 L9.7 -0.55 9.7 -1.35 9.5 -2.25 9.5 -2.3 8.6 -5.0 8.3 -5.75 8.35 -5.9 8.55 -5.8 9.55 -5.35 11.4 -4.1 Q12.2 -3.2 12.5 -1.85 L12.6 -2.5 12.7 -4.75 12.7 -5.45 Q12.65 -6.65 12.15 -7.65 13.1 -7.25 13.65 -6.55 L13.9 -6.15 Q14.95 -3.65 14.95 -2.55 L14.7 -1.6 14.45 -0.7 Q14.45 0.0 11.15 4.35 10.65 1.65 9.4 -0.6" fill="#e0cbcb" fill-rule="evenodd" stroke="none"/>
  </g>
  <defs>
    <radialGradient cx="0" cy="0" gradientTransform="matrix(0.0206, -0.0358, 0.0325, 0.0188, -51.95, -58.1)" gradientUnits="userSpaceOnUse" id="gradient0" r="819.2" spreadMethod="pad">
      <stop offset="0.47843137254901963" stop-color="#ffffff"></stop>
      <stop offset="0.8823529411764706" stop-color="#f2eaea"></stop>
    </radialGradient>
    <radialGradient cx="0" cy="0" gradientTransform="matrix(0.0206, -0.0358, 0.0325, 0.0188, -51.65, -53.0)" gradientUnits="userSpaceOnUse" id="gradient1" r="819.2" spreadMethod="pad">
      <stop offset="0.47843137254901963" stop-color="#ffffff"></stop>
      <stop offset="0.8823529411764706" stop-color="#f2eaea"></stop>
    </radialGradient>
  </defs>
</svg>