<?xml version="1.0" encoding="UTF-8" standalone="no"?>
<svg xmlns:xlink="http://www.w3.org/1999/xlink" height="20.65px" width="18.25px" xmlns="http://www.w3.org/2000/svg">
  <g transform="matrix(1.0, 0.0, 0.0, 1.0, 27.25, 17.25)">
    <path d="M-23.0 -5.3 Q-21.7 -3.7 -19.9 -2.65 L-20.55 -2.3 -22.7 -2.75 Q-23.4 -2.75 -23.4 -2.1 L-23.15 -1.65 -22.95 -1.1 Q-22.95 -0.65 -23.4 -0.25 L-23.7 0.2 -24.65 -1.2 Q-25.2 -2.0 -25.3 -3.0 L-25.1 -3.0 Q-24.2 -3.0 -23.35 -4.55 L-23.0 -5.3 M-19.65 -2.75 L-19.75 -3.1 -19.4 -2.85 -19.65 -2.75 M-19.95 -3.85 L-20.15 -6.3 -19.8 -6.3 Q-19.25 -6.3 -17.6 -8.6 L-16.75 -9.7 Q-15.6 -6.05 -12.65 -5.15 L-12.6 -5.15 -12.2 -5.05 -10.95 -4.9 -10.95 -4.85 Q-10.95 -4.45 -13.25 -2.85 L-16.35 -4.95 Q-19.05 -6.6 -19.05 -5.4 L-18.85 -4.8 -18.65 -4.25 -18.75 -3.9 -19.75 -4.25 -20.0 -4.2 -19.95 -3.85" fill="#e0cbcb" fill-rule="evenodd" stroke="none"/>
    <path d="M-23.0 -5.3 L-23.55 -6.0 -24.15 -7.7 -24.3 -7.3 -25.05 -5.25 -25.3 -3.0 Q-25.2 -2.0 -24.65 -1.2 L-23.7 0.2 -23.15 1.05 -22.8 1.5 -22.75 1.85 -22.8 2.2 -22.9 2.4 Q-26.25 1.1 -26.25 -3.05 -26.3 -7.2 -23.55 -10.4 -23.55 -8.25 -22.3 -6.65 L-21.3 -5.5 Q-21.35 -13.5 -13.95 -15.95 L-12.75 -16.25 Q-18.4 -11.2 -12.3 -6.45 L-10.0 -4.9 -10.95 -4.9 -12.2 -5.05 -12.6 -5.15 -12.65 -5.15 Q-15.6 -6.05 -16.75 -9.7 L-17.05 -10.65 Q-17.35 -11.85 -15.85 -14.05 -20.25 -10.1 -20.15 -6.7 L-20.15 -6.3 -19.95 -3.85 -19.8 -3.25 -19.75 -3.1 -19.65 -2.75 -19.5 -2.5 -19.45 -2.4 -19.9 -2.65 Q-21.7 -3.7 -23.0 -5.3" fill="#a36a6a" fill-rule="evenodd" stroke="none"/>
    <path d="M-19.9 -2.65 L-19.45 -2.4 -19.5 -2.5 -19.65 -2.75 -19.4 -2.85 -19.75 -3.1 -19.8 -3.25 -19.95 -3.85 -20.0 -4.2 -19.75 -4.25 -18.75 -3.9 -18.65 -4.25 -18.85 -4.8 -19.05 -5.4 Q-19.05 -6.6 -16.35 -4.95 L-13.25 -2.85 -14.25 -2.2 -14.8 -1.85 -15.8 -1.2 Q-20.7 1.95 -22.0 1.95 L-22.75 1.85 -22.8 1.5 -23.15 1.05 -23.7 0.2 -23.4 -0.25 Q-22.95 -0.65 -22.95 -1.1 L-23.15 -1.65 -23.4 -2.1 Q-23.4 -2.75 -22.7 -2.75 L-20.55 -2.3 -19.9 -2.65" fill="#cca9a9" fill-rule="evenodd" stroke="none"/>
    <path d="M-25.3 -3.0 L-25.05 -5.25 -24.3 -7.3 -24.15 -7.7 -23.55 -6.0 -23.0 -5.3 -23.35 -4.55 Q-24.2 -3.0 -25.1 -3.0 L-25.3 -3.0 M-20.15 -6.3 L-20.15 -6.7 Q-20.25 -10.1 -15.85 -14.05 -17.35 -11.85 -17.05 -10.65 L-16.75 -9.7 -17.6 -8.6 Q-19.25 -6.3 -19.8 -6.3 L-20.15 -6.3" fill="url(#gradient0)" fill-rule="evenodd" stroke="none"/>
  </g>
  <defs>
    <radialGradient cx="0" cy="0" gradientTransform="matrix(0.0121, -0.021, 0.0191, 0.011, -149.45, -27.9)" gradientUnits="userSpaceOnUse" id="gradient0" r="819.2" spreadMethod="pad">
      <stop offset="0.47843137254901963" stop-color="#ffffff"></stop>
      <stop offset="0.8823529411764706" stop-color="#f2eaea"></stop>
    </radialGradient>
  </defs>
</svg>