<?xml version="1.0" encoding="UTF-8" standalone="no"?>
<svg xmlns:xlink="http://www.w3.org/1999/xlink" height="38.7px" width="88.85px" xmlns="http://www.w3.org/2000/svg">
  <g transform="matrix(1.0, 0.0, 0.0, 1.0, 44.45, 19.35)">
    <path d="M-6.65 2.65 Q-5.3 1.55 -5.3 2.55 L-5.3 2.65 -5.85 3.4 -6.2 3.7 -4.3 4.05 -3.4 4.4 -2.25 4.75 Q-0.35 5.4 0.2 6.4 L0.4 7.25 0.15 7.75 -0.35 7.05 -0.45 6.85 Q-0.8 6.2 -1.7 5.95 L-4.2 5.05 -4.8 4.9 -5.9 4.7 -7.1 4.8 -8.2 5.55 Q-9.55 6.15 -9.55 7.15 L-9.05 7.75 -8.2 8.3 Q-6.6 9.2 -5.05 9.2 L-2.85 9.0 -1.6 8.75 Q-0.9 8.75 -0.8 9.05 -1.25 10.1 -5.1 10.1 L-5.45 10.1 -6.65 10.0 Q-8.3 9.7 -9.35 8.8 L-9.8 10.7 Q-9.8 11.15 -7.45 12.9 L-7.4 12.9 -7.95 12.5 -8.4 12.15 -8.25 12.15 -4.8 12.55 -2.35 12.25 Q-1.35 12.05 -1.0 12.25 L-2.55 12.95 -3.2 13.25 -4.45 13.6 -6.6 13.5 -7.45 12.9 -6.6 13.55 -6.5 13.6 Q-5.75 13.9 -4.65 15.0 -3.25 15.95 -0.45 15.95 L2.05 15.7 3.4 15.45 2.55 14.25 2.45 13.5 2.5 13.5 2.05 13.05 1.55 12.4 1.4 12.1 Q1.4 11.65 1.7 11.35 L1.95 10.45 1.95 10.35 1.85 9.7 1.85 9.55 1.65 7.75 Q1.65 7.4 1.95 7.0 L2.15 6.75 Q2.6 6.2 2.65 7.35 L2.9 9.1 3.05 9.75 3.1 10.05 3.15 10.45 3.1 10.45 2.9 11.4 2.85 11.6 2.85 11.65 2.6 11.95 3.2 12.55 3.7 13.05 5.1 13.65 8.15 14.2 9.35 14.2 10.95 13.95 12.2 14.1 12.45 14.4 10.85 14.75 9.25 15.15 4.75 14.55 4.0 14.3 Q5.1 15.65 8.15 15.9 L9.0 15.95 8.8 16.05 8.65 16.1 8.85 16.15 9.2 16.15 10.05 16.1 10.1 16.1 12.0 15.7 13.7 15.8 12.8 16.35 12.9 16.55 12.9 16.75 13.45 16.9 16.1 17.1 17.65 17.35 18.95 17.15 20.35 16.85 Q18.7 15.85 17.5 13.75 17.5 13.25 18.0 13.25 L19.7 14.9 Q21.75 16.5 23.6 16.5 26.3 16.5 31.95 15.05 33.0 14.85 34.25 13.85 L35.65 12.7 36.2 12.2 37.35 10.7 38.55 9.05 39.15 7.5 Q39.55 6.55 41.25 6.05 L41.25 5.4 40.9 4.75 40.8 4.25 41.9 2.85 42.15 2.65 42.05 2.35 42.0 1.6 42.25 -1.0 Q42.25 -2.85 41.45 -4.95 40.4 -7.7 38.4 -8.3 L37.2 -8.5 Q36.6 -8.5 36.05 -8.0 L35.95 -7.9 36.05 -7.75 37.15 -5.95 37.55 -4.45 37.8 -3.2 38.3 -3.7 Q39.6 -5.0 39.6 -3.95 38.55 -2.3 37.75 -1.95 L37.65 -1.6 38.3 -0.5 Q39.1 1.1 39.1 1.7 L39.0 2.0 38.7 2.2 Q38.15 2.2 37.35 -0.2 36.6 2.8 35.65 2.8 L35.35 2.55 35.35 2.3 35.45 2.0 36.0 0.3 36.6 -2.1 Q36.6 -3.85 35.75 -5.5 L35.1 -6.5 33.7 -8.45 33.6 -8.6 33.7 -8.85 34.2 -9.1 Q34.7 -9.1 35.25 -8.65 L35.45 -8.9 Q36.15 -9.6 37.4 -9.6 40.85 -9.6 42.45 -5.5 43.4 -3.1 43.4 -1.05 43.3 1.9 42.9 2.75 L42.95 3.25 Q42.95 3.65 42.55 4.05 L42.15 4.6 42.35 5.85 Q42.35 6.95 41.55 7.2 40.45 7.6 39.7 9.25 38.9 10.9 37.15 12.85 34.5 15.5 32.6 16.1 27.0 17.7 23.5 17.7 L21.45 17.4 20.25 17.8 18.15 18.1 18.05 18.15 15.85 18.35 12.05 17.75 10.8 17.45 10.65 17.4 10.75 17.4 10.5 17.15 10.0 17.2 8.85 17.25 7.15 16.9 4.7 16.25 2.95 16.65 -0.45 17.2 Q-3.7 17.2 -5.4 16.1 -6.8 14.8 -7.65 14.3 L-10.15 12.6 Q-11.05 11.8 -11.05 10.9 -11.05 9.55 -10.1 8.05 L-10.0 7.9 -10.45 7.25 Q-10.45 5.85 -8.7 4.75 L-8.7 4.65 -7.0 2.95 -6.65 2.65 M27.4 14.3 Q27.4 14.8 26.25 14.8 25.4 14.8 25.15 14.5 L25.05 14.3 Q25.05 13.85 26.25 13.8 27.4 13.75 27.4 14.3 M13.4 12.3 Q13.6 12.4 13.85 12.65 15.1 13.8 15.1 14.6 L15.05 14.9 Q15.1 15.05 14.75 15.05 14.3 15.05 12.6 12.75 L12.55 12.7 12.55 12.65 12.55 12.55 12.55 12.45 12.6 12.35 12.7 12.2 13.4 12.3 M-4.4 7.5 L-4.95 7.5 -5.05 7.5 -5.2 7.5 -5.45 7.5 -7.15 7.25 -7.55 6.9 -7.35 6.55 -6.25 6.5 -4.3 6.8 Q-3.9 6.95 -3.9 7.15 L-4.1 7.45 -4.4 7.5 M-16.3 -15.35 L-15.7 -14.8 Q-14.2 -13.3 -14.2 -12.0 L-14.4 -10.4 -14.45 -10.05 -14.3 -9.85 Q-11.95 -9.75 -10.65 -7.85 -9.7 -6.5 -9.7 -5.55 -9.7 -4.3 -10.85 -3.15 -12.45 -1.55 -15.5 -1.55 L-16.8 -1.6 -16.7 -0.85 Q-16.7 -0.1 -18.05 0.55 L-20.85 1.3 Q-22.2 1.45 -25.75 3.5 -27.6 3.5 -27.8 2.85 L-28.0 2.7 -28.2 2.9 -28.3 3.05 Q-29.9 4.45 -31.85 4.45 -34.0 4.45 -35.15 3.55 L-36.8 2.0 Q-38.15 1.0 -38.15 -0.95 L-38.15 -1.25 -39.75 -2.55 -41.55 -4.5 Q-43.45 -6.4 -43.45 -7.85 L-42.85 -10.3 Q-42.7 -11.2 -42.05 -11.7 L-41.5 -11.8 -41.4 -11.3 -42.05 -7.75 Q-42.05 -6.95 -39.7 -4.7 L-38.75 -3.75 -39.5 -6.4 Q-39.5 -8.0 -38.4 -5.9 L-37.4 -3.5 -36.15 -5.7 Q-35.45 -6.9 -35.1 -8.1 -34.65 -9.5 -34.3 -9.4 -34.0 -9.3 -34.0 -8.4 -34.0 -6.9 -34.9 -5.2 L-35.45 -4.3 -36.1 -3.15 Q-36.9 -1.7 -36.9 -0.7 L-36.85 -0.5 -36.85 -0.45 -36.8 -0.35 -36.8 -0.25 -36.05 0.8 -35.75 1.1 -35.35 1.5 Q-33.55 3.15 -31.9 3.15 -30.05 3.15 -29.0 1.85 -27.95 0.55 -27.4 0.55 -26.9 0.55 -26.9 1.0 -26.9 1.35 -27.25 1.9 L-27.05 1.95 Q-26.4 2.15 -26.2 2.45 L-25.75 2.2 -24.5 1.0 Q-23.55 0.35 -22.55 0.1 L-20.2 -0.25 Q-18.95 -0.4 -18.35 -1.15 L-18.0 -1.8 Q-19.2 -2.15 -20.1 -2.75 L-23.55 -5.35 Q-27.6 -2.4 -27.75 -2.4 L-27.8 -2.4 Q-28.2 -2.45 -28.2 -2.95 L-27.95 -3.4 -26.55 -4.6 -26.5 -4.6 -25.95 -5.0 -25.75 -5.1 -25.65 -5.2 -25.2 -5.45 -25.85 -5.65 Q-27.3 -6.15 -27.75 -6.7 L-27.75 -7.15 -27.65 -7.15 -27.4 -7.2 -26.55 -7.1 -25.2 -6.75 -24.4 -6.5 -24.35 -6.45 -24.4 -6.6 -24.6 -7.05 -25.0 -7.85 -26.25 -9.2 Q-26.8 -9.6 -26.8 -10.15 -26.8 -11.5 -25.55 -10.35 L-25.45 -10.25 -25.15 -9.95 Q-24.15 -8.8 -22.9 -6.65 -22.15 -5.65 -20.3 -4.45 -17.75 -2.9 -15.5 -2.9 -13.25 -2.9 -12.0 -3.95 -11.05 -4.75 -11.05 -5.55 L-11.05 -6.0 -11.35 -5.85 -12.8 -5.5 -13.8 -5.45 Q-15.15 -5.45 -15.6 -5.95 L-15.75 -6.45 Q-15.75 -7.0 -15.1 -7.3 L-13.7 -7.65 -13.15 -7.7 -12.2 -7.7 -13.45 -8.2 -14.7 -8.4 -18.4 -8.8 -17.45 -9.5 -17.05 -9.6 -17.4 -9.65 -17.6 -9.7 -19.7 -10.1 -19.8 -10.15 -20.8 -10.4 -17.2 -10.55 -15.75 -10.4 -15.65 -10.75 -15.4 -11.85 Q-15.4 -12.5 -16.0 -13.45 L-16.3 -13.85 -17.2 -15.15 -17.2 -15.4 -17.0 -15.65 Q-16.8 -15.7 -16.3 -15.35 M-29.85 -2.2 L-28.4 -1.45 -28.4 -1.25 -28.55 -1.2 -28.65 -1.15 -30.45 -1.5 -33.45 -2.25 -34.4 -2.05 -35.35 -1.9 Q-35.95 -1.9 -35.95 -2.3 -35.95 -2.75 -35.55 -2.95 L-32.75 -3.0 -29.85 -2.2 M-34.95 -0.55 L-33.7 -0.8 -30.95 -0.6 -30.7 -0.45 -30.65 -0.3 -31.1 0.05 -31.7 0.25 -33.6 -0.05 -34.95 -0.55" fill="#a36a6a" fill-rule="evenodd" stroke="none"/>
    <path d="M-6.65 2.65 Q-6.4 0.4 1.35 -3.1 8.1 -6.15 11.8 -6.8 L25.2 -9.0 29.25 -9.25 29.55 -8.7 29.95 -8.0 29.9 -7.5 Q29.9 -4.9 29.0 -3.75 26.2 -0.25 25.35 1.2 23.95 3.45 18.25 6.4 13.05 9.15 13.05 9.75 L13.1 9.95 11.4 9.55 7.9 8.85 Q6.9 8.85 6.9 9.45 L8.85 10.9 11.3 12.3 9.15 12.85 7.1 13.25 Q5.6 13.25 4.1 12.45 L2.85 11.65 2.85 11.6 2.9 11.4 3.05 10.85 3.3 10.0 3.15 7.75 3.35 6.55 Q3.25 5.65 2.05 5.65 1.0 5.65 0.2 6.4 -0.35 5.4 -2.25 4.75 L-3.4 4.4 -4.3 4.05 -6.2 3.7 -5.85 3.4 -5.3 2.65 -5.3 2.55 Q-5.3 1.55 -6.65 2.65 M32.1 -6.7 L32.05 -6.75 32.1 -6.75 32.15 -6.6 32.1 -6.7 M33.75 -0.6 L32.45 3.2 Q33.25 3.45 33.95 4.0 34.8 4.65 34.8 5.25 34.8 6.25 33.55 8.4 31.75 11.4 29.25 11.4 27.7 11.4 27.0 10.65 26.6 10.2 26.6 9.75 26.6 8.15 28.5 5.85 L28.5 5.75 Q28.5 4.85 29.25 2.5 29.95 0.2 30.3 -0.2 31.1 -1.3 31.35 -3.2 31.6 -4.55 32.75 -4.7 33.9 -4.85 33.9 -3.65 L33.75 -0.6 M8.85 16.15 L8.65 16.1 8.8 16.05 8.85 16.15 M37.8 4.95 Q37.8 5.75 36.9 5.75 35.85 5.75 35.3 4.95 L35.0 4.1 Q35.0 2.7 36.4 3.3 37.8 3.9 37.8 4.95 M13.4 12.3 L12.7 12.2 13.45 12.3 13.4 12.3 M-0.35 7.05 Q-1.25 8.25 -1.95 8.25 -3.05 8.25 -3.75 7.75 L-4.2 7.5 -4.4 7.5 -4.1 7.45 -3.9 7.15 Q-3.9 6.95 -4.3 6.8 L-6.25 6.5 -7.35 6.55 -7.55 6.9 -7.15 7.25 -5.45 7.5 -5.75 7.5 -6.05 7.6 -7.7 7.95 -9.05 7.75 -9.55 7.15 Q-9.55 6.15 -8.2 5.55 L-7.1 4.8 -5.9 4.7 -4.8 4.9 -4.2 5.05 -1.7 5.95 Q-0.8 6.2 -0.45 6.85 L-0.35 7.05 M-5.45 10.1 L-5.1 10.15 Q-1.8 10.7 -1.2 11.55 L-1.75 11.85 -2.8 12.05 Q-8.55 12.05 -9.75 10.6 -8.85 9.85 -6.65 10.0 L-5.45 10.1 M-6.6 13.5 L-6.6 13.55 -7.45 12.9 -6.6 13.5 M2.45 13.5 L2.5 13.5 2.45 13.5 M-19.8 -10.15 L-19.7 -10.1 -19.8 -10.1 -19.8 -10.15 M-18.4 -8.8 L-14.7 -8.4 -13.45 -8.2 -13.7 -7.65 -15.1 -7.3 -16.4 -7.25 -17.0 -6.85 Q-17.2 -6.55 -17.85 -6.55 L-19.3 -7.2 -20.8 -8.1 -18.7 -8.75 -18.4 -8.8 M-36.85 -0.5 L-36.9 -0.7 Q-36.9 -1.7 -36.1 -3.15 L-35.55 -2.95 Q-35.95 -2.75 -35.95 -2.3 -35.95 -1.9 -35.35 -1.9 L-34.4 -2.05 -33.45 -2.25 -30.45 -1.5 -31.4 -0.75 -33.75 -1.1 -35.35 -1.5 Q-36.1 -1.5 -36.85 -0.5 M-34.9 -5.2 Q-34.0 -6.9 -34.0 -8.4 -34.0 -9.3 -34.3 -9.4 -34.65 -9.5 -35.1 -8.1 -35.45 -6.9 -36.15 -5.7 L-37.4 -3.5 -38.4 -5.9 Q-39.5 -8.0 -39.5 -6.4 L-38.75 -3.75 -39.7 -4.7 Q-42.05 -6.95 -42.05 -7.75 L-41.4 -11.3 -41.5 -11.8 Q-40.7 -12.7 -39.15 -13.5 L-31.9 -16.65 Q-29.5 -17.6 -27.35 -18.0 L-27.65 -16.95 Q-27.9 -12.85 -27.65 -9.75 -30.0 -10.4 -30.0 -9.4 -30.0 -8.6 -27.9 -6.5 -29.25 -6.65 -29.7 -5.95 L-29.9 -4.8 Q-29.5 -3.35 -29.65 -2.75 L-29.85 -2.2 -32.75 -3.0 -32.7 -3.0 Q-30.9 -3.2 -30.9 -3.95 -30.9 -5.9 -33.75 -5.45 L-34.9 -5.2" fill="#e0cbcb" fill-rule="evenodd" stroke="none"/>
    <path d="M40.8 4.25 L40.45 3.8 39.5 2.5 Q39.5 2.15 39.8 2.05 L41.3 1.75 Q40.2 -0.6 40.2 -1.05 L40.6 -2.2 40.95 -3.15 Q40.95 -4.2 39.5 -4.8 38.05 -5.35 38.05 -7.05 38.05 -7.75 38.4 -8.3 40.4 -7.7 41.45 -4.95 42.25 -2.85 42.25 -1.0 L42.0 1.6 42.05 2.35 42.15 2.65 41.9 2.85 40.8 4.25 M35.45 2.0 L35.3 2.0 Q35.0 2.0 34.7 1.2 L34.45 0.35 35.1 -3.0 Q35.1 -4.0 34.4 -5.7 33.7 -7.4 33.7 -8.2 L33.7 -8.45 35.1 -6.5 35.75 -5.5 Q36.6 -3.85 36.6 -2.1 L36.0 0.3 35.45 2.0 M41.25 5.4 L41.25 6.05 Q39.55 6.55 39.15 7.5 L38.55 9.05 37.35 10.7 36.2 12.2 35.65 12.7 36.45 11.25 Q38.4 7.65 38.4 5.95 38.4 5.65 38.9 5.65 L41.15 5.45 41.25 5.4" fill="url(#gradient0)" fill-rule="evenodd" stroke="none"/>
    <path d="M0.2 6.4 Q1.0 5.65 2.05 5.65 3.25 5.65 3.35 6.55 L3.15 7.75 3.3 10.0 3.05 10.85 2.9 11.4 3.1 10.45 3.15 10.45 3.1 10.05 3.05 9.75 2.9 9.1 2.65 7.35 Q2.6 6.2 2.15 6.75 L1.95 7.0 Q1.65 7.4 1.65 7.75 L1.85 9.55 1.85 9.7 1.95 10.35 1.95 10.45 1.7 11.35 Q1.4 11.65 1.4 12.1 L1.55 12.4 2.05 13.05 2.5 13.5 2.45 13.5 2.55 14.25 3.4 15.45 2.05 15.7 -0.45 15.95 Q-3.25 15.95 -4.65 15.0 -5.75 13.9 -6.5 13.6 L-6.6 13.55 -6.6 13.5 -4.45 13.6 -3.2 13.25 -2.55 12.95 -1.0 12.25 Q-1.35 12.05 -2.35 12.25 L-4.8 12.55 -8.25 12.15 -8.4 12.15 -7.95 12.5 -7.4 12.9 -7.45 12.9 Q-9.8 11.15 -9.8 10.7 L-9.35 8.8 Q-8.3 9.7 -6.65 10.0 -8.85 9.85 -9.75 10.6 -8.55 12.05 -2.8 12.05 L-1.75 11.85 -1.2 11.55 Q-1.8 10.7 -5.1 10.15 L-5.45 10.1 -5.1 10.1 Q-1.25 10.1 -0.8 9.05 -0.9 8.75 -1.6 8.75 L-2.85 9.0 -5.05 9.2 Q-6.6 9.2 -8.2 8.3 L-9.05 7.75 -7.7 7.95 -6.05 7.6 -5.75 7.5 -5.45 7.5 -5.2 7.5 -5.05 7.5 -4.95 7.5 -4.4 7.5 -4.2 7.5 -3.75 7.75 Q-3.05 8.25 -1.95 8.25 -1.25 8.25 -0.35 7.05 L0.15 7.75 0.4 7.25 0.2 6.4 M2.85 11.65 L4.1 12.45 Q5.6 13.25 7.1 13.25 L9.15 12.85 11.3 12.3 8.85 10.9 6.9 9.45 Q6.9 8.85 7.9 8.85 L11.4 9.55 13.1 9.95 13.05 9.75 Q13.05 9.15 18.25 6.4 23.95 3.45 25.35 1.2 26.2 -0.25 29.0 -3.75 29.9 -4.9 29.9 -7.5 L29.95 -8.0 29.55 -8.7 29.25 -9.25 31.2 -9.2 33.7 -8.85 33.6 -8.6 33.7 -8.45 33.7 -8.2 Q33.7 -7.4 34.4 -5.7 35.1 -4.0 35.1 -3.0 L34.45 0.35 34.7 1.2 Q35.0 2.0 35.3 2.0 L35.45 2.0 35.35 2.3 35.35 2.55 35.65 2.8 Q36.6 2.8 37.35 -0.2 38.15 2.2 38.7 2.2 L39.0 2.0 39.1 1.7 Q39.1 1.1 38.3 -0.5 L37.65 -1.6 37.75 -1.95 Q38.55 -2.3 39.6 -3.95 39.6 -5.0 38.3 -3.7 L37.8 -3.2 37.55 -4.45 37.15 -5.95 36.05 -7.75 35.95 -7.9 36.05 -8.0 Q36.6 -8.5 37.2 -8.5 L38.4 -8.3 Q38.05 -7.75 38.05 -7.05 38.05 -5.35 39.5 -4.8 40.95 -4.2 40.95 -3.15 L40.6 -2.2 40.2 -1.05 Q40.2 -0.6 41.3 1.75 L39.8 2.05 Q39.5 2.15 39.5 2.5 L40.45 3.8 40.8 4.25 40.9 4.75 41.25 5.4 41.15 5.45 38.9 5.65 Q38.4 5.65 38.4 5.95 38.4 7.65 36.45 11.25 L35.65 12.7 34.25 13.85 Q33.0 14.85 31.95 15.05 26.3 16.5 23.6 16.5 21.75 16.5 19.7 14.9 L18.0 13.25 Q17.5 13.25 17.5 13.75 18.7 15.85 20.35 16.85 L18.95 17.15 17.65 17.35 16.1 17.1 13.45 16.9 12.9 16.75 12.9 16.55 12.8 16.35 13.7 15.8 12.0 15.7 10.1 16.1 10.05 16.1 9.2 16.15 8.85 16.15 8.8 16.05 9.0 15.95 8.15 15.9 Q5.1 15.65 4.0 14.3 L4.75 14.55 9.25 15.15 10.85 14.75 12.45 14.4 12.2 14.1 10.95 13.95 9.35 14.2 8.15 14.2 5.1 13.65 3.7 13.05 3.2 12.55 2.6 11.95 2.85 11.65 M32.1 -6.7 L32.15 -6.6 32.1 -6.75 32.05 -6.75 32.1 -6.7 M33.75 -0.6 L33.9 -3.65 Q33.9 -4.85 32.75 -4.7 31.6 -4.55 31.35 -3.2 31.1 -1.3 30.3 -0.2 29.95 0.2 29.25 2.5 28.5 4.85 28.5 5.75 L28.5 5.85 Q26.6 8.15 26.6 9.75 26.6 10.2 27.0 10.65 27.7 11.4 29.25 11.4 31.75 11.4 33.55 8.4 34.8 6.25 34.8 5.25 34.8 4.65 33.95 4.0 33.25 3.45 32.45 3.2 L33.75 -0.6 M37.8 4.95 Q37.8 3.9 36.4 3.3 35.0 2.7 35.0 4.1 L35.3 4.95 Q35.85 5.75 36.9 5.75 37.8 5.75 37.8 4.95 M27.4 14.3 Q27.4 13.75 26.25 13.8 25.05 13.85 25.05 14.3 L25.15 14.5 Q25.4 14.8 26.25 14.8 27.4 14.8 27.4 14.3 M12.7 12.2 L12.6 12.35 12.55 12.45 12.55 12.55 12.55 12.65 12.55 12.7 12.6 12.75 Q14.3 15.05 14.75 15.05 15.1 15.05 15.05 14.9 L15.1 14.6 Q15.1 13.8 13.85 12.65 13.6 12.4 13.4 12.3 L13.45 12.3 12.7 12.2 M-16.3 -15.35 Q-16.8 -15.7 -17.0 -15.65 L-17.2 -15.4 -17.2 -15.15 -16.3 -13.85 -16.0 -13.45 Q-15.4 -12.5 -15.4 -11.85 L-15.65 -10.75 -15.75 -10.4 -17.2 -10.55 -20.8 -10.4 -19.8 -10.15 -19.8 -10.1 -19.7 -10.1 -17.6 -9.7 -17.4 -9.65 -17.45 -9.5 -18.4 -8.8 -18.7 -8.75 -20.8 -8.1 -19.3 -7.2 -17.85 -6.55 Q-17.2 -6.55 -17.0 -6.85 L-16.4 -7.25 -15.1 -7.3 Q-15.75 -7.0 -15.75 -6.45 L-15.6 -5.95 Q-15.15 -5.45 -13.8 -5.45 L-12.8 -5.5 -11.35 -5.85 -11.05 -6.0 -11.05 -5.55 Q-11.05 -4.75 -12.0 -3.95 -13.25 -2.9 -15.5 -2.9 -17.75 -2.9 -20.3 -4.45 -22.15 -5.65 -22.9 -6.65 -24.15 -8.8 -25.15 -9.95 L-25.45 -10.25 -25.55 -10.35 Q-26.8 -11.5 -26.8 -10.15 -26.8 -9.6 -26.25 -9.2 L-25.0 -7.85 -24.6 -7.05 -24.4 -6.6 -24.4 -6.5 -25.2 -6.75 -26.55 -7.1 -27.4 -7.2 -27.65 -7.15 -27.75 -7.15 -27.75 -6.7 Q-27.3 -6.15 -25.85 -5.65 L-25.2 -5.45 -25.65 -5.2 -25.75 -5.1 -25.95 -5.0 -26.5 -4.6 -26.55 -4.6 -27.95 -3.4 -28.2 -2.95 Q-28.2 -2.45 -27.8 -2.4 L-27.75 -2.4 Q-27.6 -2.4 -23.55 -5.35 L-20.1 -2.75 Q-19.2 -2.15 -18.0 -1.8 L-18.35 -1.15 Q-18.95 -0.4 -20.2 -0.25 L-22.55 0.1 Q-23.55 0.35 -24.5 1.0 L-25.75 2.2 -26.2 2.45 Q-26.4 2.15 -27.05 1.95 L-27.25 1.9 Q-26.9 1.35 -26.9 1.0 -26.9 0.55 -27.4 0.55 -27.95 0.55 -29.0 1.85 -30.05 3.15 -31.9 3.15 -33.55 3.15 -35.35 1.5 L-35.75 1.1 -36.05 0.8 -36.8 -0.25 -36.8 -0.35 -36.85 -0.45 -36.85 -0.5 Q-36.1 -1.5 -35.35 -1.5 L-33.75 -1.1 -31.4 -0.75 -30.45 -1.5 -28.65 -1.15 -28.55 -1.2 -28.4 -1.25 -28.4 -1.45 -29.85 -2.2 -29.65 -2.75 Q-29.5 -3.35 -29.9 -4.8 L-29.7 -5.95 Q-29.25 -6.65 -27.9 -6.5 -30.0 -8.6 -30.0 -9.4 -30.0 -10.4 -27.65 -9.75 -27.9 -12.85 -27.65 -16.95 L-27.35 -18.0 -27.35 -18.05 -25.75 -18.25 Q-22.7 -18.6 -20.05 -17.7 -17.25 -16.75 -16.3 -15.35 M-13.45 -8.2 L-12.2 -7.7 -13.15 -7.7 -13.7 -7.65 -13.45 -8.2 M-34.95 -0.55 L-33.6 -0.05 -31.7 0.25 -31.1 0.05 -30.65 -0.3 -30.7 -0.45 -30.95 -0.6 -33.7 -0.8 -34.95 -0.55" fill="#cca9a9" fill-rule="evenodd" stroke="none"/>
    <path d="M-36.1 -3.15 L-35.45 -4.3 -34.9 -5.2 -33.75 -5.45 Q-30.9 -5.9 -30.9 -3.95 -30.9 -3.2 -32.7 -3.0 L-32.75 -3.0 -35.55 -2.95 -36.1 -3.15" fill="url(#gradient1)" fill-rule="evenodd" stroke="none"/>
  </g>
  <defs>
    <radialGradient cx="0" cy="0" gradientTransform="matrix(0.0121, -0.021, 0.0191, 0.011, 120.55, 8.25)" gradientUnits="userSpaceOnUse" id="gradient0" r="819.2" spreadMethod="pad">
      <stop offset="0.47843137254901963" stop-color="#ffffff"></stop>
      <stop offset="0.8823529411764706" stop-color="#f2eaea"></stop>
    </radialGradient>
    <radialGradient cx="0" cy="0" gradientTransform="matrix(0.0121, -0.021, 0.0191, 0.011, -5.85, -18.5)" gradientUnits="userSpaceOnUse" id="gradient1" r="819.2" spreadMethod="pad">
      <stop offset="0.47843137254901963" stop-color="#ffffff"></stop>
      <stop offset="0.8823529411764706" stop-color="#f2eaea"></stop>
    </radialGradient>
  </defs>
</svg>