<?xml version="1.0" encoding="UTF-8" standalone="no"?>
<svg xmlns:xlink="http://www.w3.org/1999/xlink" height="41.95px" width="38.4px" xmlns="http://www.w3.org/2000/svg">
  <g transform="matrix(1.0, 0.0, 0.0, 1.0, 19.2, 21)">
    <path d="M-2.9 -19.2 Q-1.8 -17.1 0.35 -15.95 1.85 -15.1 3.4 -14.4 L9.4 -11.55 11.45 -10.75 Q7.25 -11.4 4.7 -12.25 5.45 -11.85 6.25 -11.4 L6.7 -10.9 8.05 -10.1 9.65 -9.1 Q11.7 -7.5 13.25 -5.45 L13.45 -5.15 12.55 -5.35 12.35 -5.4 12.4 -5.45 Q10.35 -6.55 8.0 -6.85 L6.95 -6.95 7.8 -5.75 9.75 -3.35 10.1 -2.6 Q10.7 -0.4 10.4 1.95 L10.35 2.9 8.95 0.75 8.7 0.25 8.7 0.35 8.55 0.5 8.1 1.2 6.9 2.6 5.5 4.05 Q3.75 5.8 1.55 6.85 L1.4 6.9 Q1.85 5.85 2.6 4.95 4.2 3.1 4.75 0.75 5.4 -1.9 4.95 -4.45 L4.9 -4.45 4.65 -4.05 3.75 -2.8 2.6 -1.7 Q1.55 -0.8 0.15 -0.9 L0.3 -1.05 0.45 -1.2 0.55 -1.3 0.7 -1.55 0.85 -1.8 0.95 -2.0 1.4 -2.6 1.25 -2.7 -0.15 -2.5 -1.2 -2.35 -4.6 -2.5 -4.45 -2.5 -4.1 -2.75 -1.95 -4.6 -0.65 -5.5 0.95 -6.5 -0.05 -6.5 -2.65 -6.0 -5.3 -5.35 -8.45 -4.7 -8.2 -4.95 -7.85 -5.35 -7.45 -5.95 Q-6.55 -7.5 -6.5 -9.25 L-6.65 -9.3 -8.5 -7.4 Q-10.05 -6.05 -11.75 -5.05 L-11.6 -5.35 Q-10.55 -7.2 -9.8 -9.05 L-9.75 -9.2 -10.1 -9.35 Q-10.7 -9.5 -11.15 -8.7 L-13.15 -5.35 -13.2 -5.25 -13.45 -4.8 -13.4 -5.35 -13.25 -7.6 Q-13.05 -10.2 -12.1 -12.5 L-10.85 -15.15 Q-9.45 -17.8 -6.95 -18.6 L-5.45 -18.95 -4.05 -19.5 -3.4 -20.0 -2.9 -19.2 M11.3 8.2 L11.2 8.2 11.3 8.2" fill="#e0cbcb" fill-rule="evenodd" stroke="none"/>
    <path d="M-2.9 -19.2 L-2.7 -19.05 -2.7 -19.1 -2.55 -19.75 -2.4 -19.9 Q-1.2 -19.3 -0.2 -18.15 L0.1 -17.9 3.4 -16.9 5.7 -16.45 7.25 -16.15 5.2 -15.5 5.05 -15.4 11.8 -11.9 13.25 -10.65 13.75 -9.35 13.75 -9.0 14.0 -8.7 16.0 -6.7 18.2 -2.6 16.8 -2.8 Q14.45 -3.1 13.8 -3.75 L13.45 -3.7 Q14.0 -2.6 14.0 -1.0 L13.95 1.7 14.25 6.45 14.35 8.0 13.5 7.5 12.55 7.05 12.95 8.85 13.6 10.85 13.85 11.4 13.05 11.1 11.55 10.6 11.1 10.4 11.0 10.4 10.6 13.85 Q10.6 14.7 11.15 16.05 L11.6 17.1 9.1 17.9 9.25 18.55 9.4 18.9 8.75 18.75 6.55 18.05 6.55 18.0 6.5 18.3 6.5 19.55 6.5 19.95 5.1 19.45 Q2.7 18.6 2.0 18.5 L-1.25 17.9 -3.55 17.2 Q-3.55 18.2 -4.25 18.2 -6.8 18.2 -11.1 16.95 L-13.05 16.4 -15.4 15.65 -18.2 14.6 -16.2 12.95 -16.3 12.95 Q-16.85 12.95 -17.0 12.55 L-17.05 12.1 -16.2 8.15 Q-15.3 4.4 -14.6 3.35 L-14.55 3.2 -15.25 4.0 Q-15.65 4.65 -16.1 4.65 -16.7 4.65 -16.8 4.2 L-16.8 3.7 Q-16.8 1.75 -14.15 -3.45 L-13.45 -4.8 -13.2 -5.25 -13.15 -5.35 -11.15 -8.7 Q-10.7 -9.5 -10.1 -9.35 L-9.75 -9.2 -9.8 -9.05 Q-10.55 -7.2 -11.6 -5.35 L-11.75 -5.05 -11.8 -5.0 -12.0 -4.6 -13.45 -1.65 -14.35 0.75 -14.35 0.85 -14.3 0.85 -13.45 0.3 -13.4 0.3 -12.55 0.1 Q-11.6 0.1 -11.6 0.95 -11.6 1.4 -13.05 3.95 -14.6 6.65 -14.75 7.3 L-14.95 10.15 Q-11.75 8.85 -12.55 9.4 -13.35 9.9 -13.65 10.85 L-14.95 14.1 -15.15 14.25 -14.95 14.25 -12.85 14.05 Q-11.7 14.05 -11.4 14.5 L-10.85 15.35 -8.75 15.55 -6.5 15.8 Q-6.1 14.5 -6.3 13.4 L-4.45 15.05 -4.15 15.2 Q-2.9 15.95 -2.4 16.0 L-1.75 16.15 3.95 17.55 5.1 17.8 Q5.45 16.85 5.45 15.35 L5.7 15.55 5.95 15.7 7.65 17.0 8.15 16.5 9.65 16.25 Q9.2 15.15 9.2 13.85 L9.6 10.7 Q10.05 7.8 10.3 7.8 L10.5 7.8 10.95 7.95 11.2 8.2 11.3 8.25 11.3 8.2 10.1 3.9 Q11.0 4.65 13.0 5.4 L12.2 0.35 11.6 -5.2 11.55 -5.5 12.35 -5.4 12.55 -5.35 13.45 -5.15 14.95 -4.6 15.4 -4.4 16.25 -4.0 14.95 -5.8 Q13.35 -7.65 11.0 -8.9 8.45 -10.2 6.25 -11.4 5.45 -11.85 4.7 -12.25 7.25 -11.4 11.45 -10.75 L9.4 -11.55 3.4 -14.4 Q1.85 -15.1 0.35 -15.95 -1.8 -17.1 -2.9 -19.2 M-8.1 5.5 L-8.6 8.65 -9.05 8.8 -9.5 8.15 -9.55 7.65 -10.05 7.75 Q-10.65 7.75 -10.8 7.05 L-10.8 6.3 -10.8 4.35 Q-10.6 2.5 -9.35 2.35 L-9.7 5.7 -9.35 5.2 Q-9.05 4.85 -8.65 4.8 -8.1 5.25 -8.1 5.5 M-5.85 10.6 L-5.9 9.5 Q-5.9 8.15 -5.5 7.95 -5.05 8.4 -4.95 9.55 L-4.9 11.4 Q-4.8 11.6 -5.3 11.6 -5.7 11.6 -5.85 10.6" fill="#a36a6a" fill-rule="evenodd" stroke="none"/>
    <path d="M5.95 15.7 L5.7 15.55 5.45 15.35 5.6 15.3 3.8 12.5 2.95 11.4 2.7 11.05 2.6 11.1 3.2 15.15 3.45 16.45 3.95 17.55 -1.75 16.15 -2.0 15.6 -2.8 13.3 -3.4 10.15 Q-3.65 11.85 -4.25 13.55 L-4.45 15.05 -6.3 13.4 Q-6.1 14.5 -6.5 15.8 L-8.75 15.55 -10.85 15.35 -11.4 14.5 Q-11.7 14.05 -12.85 14.05 L-14.95 14.25 -14.95 14.1 -13.65 10.85 Q-13.35 9.9 -12.55 9.4 -11.75 8.85 -14.95 10.15 L-14.75 7.3 Q-14.6 6.65 -13.05 3.95 -11.6 1.4 -11.6 0.95 -11.6 0.1 -12.55 0.1 L-13.4 0.3 -13.45 0.3 -14.3 0.85 -14.35 0.75 -13.45 -1.65 -12.0 -4.6 -11.8 -5.0 -11.75 -5.05 Q-10.05 -6.05 -8.5 -7.4 L-6.65 -9.3 -6.5 -9.25 Q-6.55 -7.5 -7.45 -5.95 L-7.85 -5.35 -8.2 -4.95 -8.45 -4.7 -5.3 -5.35 -2.65 -6.0 -0.05 -6.5 0.95 -6.5 -0.65 -5.5 -1.95 -4.6 -4.1 -2.75 -4.45 -2.5 -4.6 -2.5 -1.2 -2.35 -0.15 -2.5 1.25 -2.7 1.4 -2.6 0.95 -2.0 0.85 -1.8 0.7 -1.55 0.55 -1.3 0.45 -1.2 0.3 -1.05 0.15 -0.9 Q1.55 -0.8 2.6 -1.7 L3.75 -2.8 4.65 -4.05 4.9 -4.45 4.95 -4.45 Q5.4 -1.9 4.75 0.75 4.2 3.1 2.6 4.95 1.85 5.85 1.4 6.9 L1.55 6.85 Q3.75 5.8 5.5 4.05 L6.9 2.6 8.1 1.2 8.2 1.75 8.15 3.15 Q7.7 5.15 6.9 7.0 L6.35 8.3 Q5.75 9.45 5.7 10.65 5.15 9.1 4.25 7.7 L3.8 6.8 4.1 8.0 Q4.35 9.5 5.05 10.9 L5.55 12.5 5.95 15.7 M8.95 0.75 L8.7 0.35 8.7 0.25 8.95 0.75 M-5.85 10.6 Q-5.7 11.6 -5.3 11.6 -4.8 11.6 -4.9 11.4 L-4.95 9.55 Q-5.05 8.4 -5.5 7.95 -5.9 8.15 -5.9 9.5 L-5.85 10.6 M-8.1 5.5 Q-8.1 5.25 -8.65 4.8 -9.05 4.85 -9.35 5.2 L-9.7 5.7 -9.35 2.35 Q-10.6 2.5 -10.8 4.35 L-10.8 6.3 -10.8 7.05 Q-10.65 7.75 -10.05 7.75 L-9.55 7.65 -9.5 8.15 -9.05 8.8 -8.6 8.65 -8.1 5.5" fill="#cca9a9" fill-rule="evenodd" stroke="none"/>
    <path d="M6.25 -11.4 Q8.45 -10.2 11.0 -8.9 13.35 -7.65 14.95 -5.8 L16.25 -4.0 15.4 -4.4 14.95 -4.6 13.45 -5.15 13.25 -5.45 Q11.7 -7.5 9.65 -9.1 L8.05 -10.1 6.7 -10.9 6.25 -11.4 M12.35 -5.4 L11.55 -5.5 11.6 -5.2 12.2 0.35 13.0 5.4 Q11.0 4.65 10.1 3.9 L11.3 8.2 11.2 8.2 10.95 7.95 10.5 7.8 10.3 7.8 Q10.05 7.8 9.6 10.7 L9.2 13.85 Q9.2 15.15 9.65 16.25 L8.15 16.5 7.65 17.0 5.95 15.7 5.55 12.5 5.05 10.9 Q4.35 9.5 4.1 8.0 L3.8 6.8 4.25 7.7 Q5.15 9.1 5.7 10.65 5.75 9.45 6.35 8.3 L6.9 7.0 Q7.7 5.15 8.15 3.15 L8.2 1.75 8.1 1.2 8.55 0.5 8.7 0.35 8.95 0.75 10.35 2.9 10.4 1.95 Q10.7 -0.4 10.1 -2.6 L9.75 -3.35 7.8 -5.75 6.95 -6.95 8.0 -6.85 Q10.35 -6.55 12.4 -5.45 L12.35 -5.4 M5.45 15.35 Q5.45 16.85 5.1 17.8 L3.95 17.55 3.45 16.45 3.2 15.15 2.6 11.1 2.7 11.05 2.95 11.4 3.8 12.5 5.6 15.3 5.45 15.35 M-1.75 16.15 L-2.4 16.0 Q-2.9 15.95 -4.15 15.2 L-4.45 15.05 -4.25 13.55 Q-3.65 11.85 -3.4 10.15 L-2.8 13.3 -2.0 15.6 -1.75 16.15" fill="url(#gradient0)" fill-rule="evenodd" stroke="none"/>
  </g>
  <defs>
    <radialGradient cx="0" cy="0" gradientTransform="matrix(0.0121, -0.021, 0.0191, 0.011, 8.2, -0.75)" gradientUnits="userSpaceOnUse" id="gradient0" r="819.2" spreadMethod="pad">
      <stop offset="0.47843137254901963" stop-color="#ffffff"></stop>
      <stop offset="0.8823529411764706" stop-color="#f2eaea"></stop>
    </radialGradient>
  </defs>
</svg>