<?xml version="1.0" encoding="UTF-8" standalone="no"?>
<svg xmlns:xlink="http://www.w3.org/1999/xlink" height="52.5px" width="31.15px" xmlns="http://www.w3.org/2000/svg">
  <g transform="matrix(1.0, 0.0, 0.0, 1.0, -42.5, 40.1)">
    <path d="M72.65 -38.5 L70.65 -35.35 Q68.6 -32.3 68.6 -31.85 L69.0 -30.3 69.4 -27.95 Q69.4 -26.8 67.55 -23.55 65.65 -20.25 65.65 -16.65 65.65 -14.55 62.9 -7.8 L59.85 -0.65 59.65 -0.65 61.45 -5.7 Q63.1 -10.15 63.1 -11.4 63.1 -12.0 63.75 -13.8 L64.4 -16.25 64.0 -18.45 63.6 -20.8 Q63.6 -22.1 65.3 -25.4 67.05 -28.85 67.15 -30.15 67.35 -32.25 69.35 -35.15 L72.25 -39.1 72.55 -38.95 72.65 -38.5 M45.25 1.3 L44.5 11.25 44.25 11.4 43.7 9.85 43.5 8.55 Q43.5 7.55 44.05 4.3 L44.75 0.6 45.0 0.6 45.15 0.8 45.25 1.3" fill="#a51616" fill-rule="evenodd" stroke="none"/>
  </g>
</svg>