<?xml version="1.0" encoding="UTF-8" standalone="no"?>
<svg xmlns:xlink="http://www.w3.org/1999/xlink" height="111.25px" width="83.7px" xmlns="http://www.w3.org/2000/svg">
  <g transform="matrix(1.0, 0.0, 0.0, 1.0, 41.85, 55.6)">
    <path d="M34.2 -43.0 L33.05 -44.1 Q32.05 -44.85 29.65 -45.8 L25.75 -47.45 Q26.15 -48.2 28.15 -48.35 L23.8 -47.95 20.5 -48.25 17.45 -50.5 Q17.65 -49.5 17.0 -49.35 12.95 -50.0 9.45 -51.8 L11.2 -50.45 11.3 -49.7 8.3 -49.75 Q4.85 -49.6 2.55 -48.4 L5.7 -48.6 3.4 -47.1 -4.35 -42.7 Q-7.65 -41.0 -10.95 -39.4 L-11.05 -39.35 -10.95 -39.35 -5.1 -40.3 -4.35 -40.1 -10.6 -34.1 -16.3 -28.35 -23.3 -20.9 -12.85 -26.65 Q-15.35 -25.2 -17.45 -23.0 L-19.7 -20.05 -23.35 -13.6 Q-24.4 -11.55 -26.2 -10.05 -28.5 -8.05 -31.05 -6.95 L-27.4 -7.75 -24.0 -9.05 -23.55 -8.7 -26.4 -4.5 Q-29.25 -0.1 -30.8 5.0 -31.3 6.65 -32.25 8.05 L-29.1 5.65 -28.8 6.45 -30.45 9.6 -30.45 9.7 -30.4 9.7 -30.35 9.7 -28.65 7.6 -28.2 8.25 -31.45 16.85 -31.9 18.35 -34.2 26.7 -34.2 26.85 -34.1 26.75 -32.5 25.7 Q-33.0 29.2 -33.9 32.55 -34.65 35.35 -35.75 37.9 L-34.85 37.3 -34.4 37.8 -36.25 42.8 -33.15 40.85 -32.9 43.5 -32.7 46.35 -32.7 46.45 -32.65 46.45 -29.55 44.25 Q-28.65 44.7 -28.5 45.65 L-28.25 47.5 -27.15 46.75 -26.45 47.45 -23.95 50.1 -23.1 51.0 Q-22.7 49.1 -21.45 47.85 L-20.95 47.7 -21.0 49.0 -20.85 49.45 -15.45 51.25 -14.85 50.05 -13.75 50.25 -13.05 49.9 -13.0 49.3 -12.35 49.15 -11.0 47.6 -11.85 49.2 Q-9.7 49.65 -8.7 51.45 L-5.95 46.25 -5.8 46.4 -4.85 47.45 Q-4.25 46.0 -4.1 44.65 L-4.05 44.4 -3.85 42.25 -3.55 41.6 -2.75 40.95 -2.05 40.75 -0.9 36.7 -0.1 37.65 7.65 25.05 Q8.3 25.0 8.35 25.8 L8.4 26.95 12.5 16.65 12.6 16.3 13.1 16.55 Q13.5 16.9 13.45 17.65 L13.4 19.45 Q15.0 16.95 17.0 14.6 20.25 10.85 21.1 5.9 L21.3 5.0 Q21.85 2.25 22.95 -0.2 L22.7 4.05 22.5 5.85 22.1 7.5 21.7 8.6 22.0 8.95 21.9 11.25 27.25 -4.6 27.3 -4.8 27.35 -4.75 Q28.25 -4.4 27.8 -3.25 L27.4 -1.75 Q26.75 2.1 27.05 5.95 L28.25 2.3 30.25 -3.9 Q30.85 -5.7 31.75 -7.35 L32.65 -8.9 32.65 -8.95 32.65 -9.05 33.5 -9.8 33.5 -7.6 33.5 -7.5 33.5 -7.25 33.6 -7.45 33.65 -7.55 36.85 -15.0 Q37.55 -16.6 37.45 -18.3 L37.1 -21.9 36.9 -23.5 36.85 -23.75 36.0 -28.95 38.55 -27.25 38.05 -29.95 38.0 -30.15 Q37.55 -32.5 36.6 -34.65 L36.3 -35.3 35.25 -36.8 33.15 -39.4 32.35 -40.3 32.2 -40.6 36.3 -39.2 34.85 -42.2 34.6 -42.55 34.2 -43.0 M16.05 -50.9 L14.5 -54.6 17.2 -52.05 22.15 -49.0 29.4 -49.2 31.55 -48.85 27.65 -47.65 Q32.0 -46.8 35.2 -43.6 L35.95 -42.55 36.55 -41.25 38.15 -37.65 38.35 -37.15 38.45 -35.9 38.3 -35.8 36.05 -37.9 37.05 -36.6 37.25 -36.2 37.75 -35.0 38.6 -32.15 40.8 -24.7 40.85 -24.5 37.7 -26.35 Q38.45 -24.2 38.7 -22.0 L38.75 -18.7 Q38.55 -16.35 37.65 -14.0 35.15 -7.5 33.0 -0.75 L32.9 -0.6 32.6 -0.6 Q32.35 -3.55 32.4 -6.45 30.1 -0.6 28.6 5.7 L27.75 8.3 26.55 10.6 25.8 1.95 23.3 10.55 Q22.7 12.6 21.4 14.35 L20.55 15.4 20.1 14.95 20.7 12.1 Q18.2 14.7 16.2 17.45 14.9 19.3 13.85 21.4 L13.15 22.6 12.05 20.05 8.55 30.4 7.35 27.75 0.4 40.45 -0.75 39.75 -1.05 43.3 -1.3 43.5 -1.55 43.55 -2.4 42.75 Q-2.8 45.6 -3.85 48.75 L-4.35 49.55 -4.75 49.9 -5.5 49.75 -5.8 48.15 -8.95 54.65 Q-9.65 54.3 -9.5 53.65 -9.2 52.45 -9.95 51.6 -10.9 50.4 -12.5 50.25 L-12.2 49.75 -14.3 53.0 -21.45 50.4 -22.4 52.55 -23.55 51.95 -25.7 50.3 -27.55 48.55 -28.9 48.95 -29.75 45.85 -33.9 49.15 -34.4 49.05 -34.4 48.35 -34.2 46.1 -34.15 45.85 -34.05 43.75 -34.2 42.55 -37.1 44.7 -37.55 44.95 -38.3 44.85 -36.45 40.2 -40.35 43.45 -40.85 42.95 Q-39.45 40.4 -37.65 37.95 -35.8 35.45 -35.15 32.45 L-34.55 28.95 -37.0 30.3 -37.1 29.9 -36.3 27.8 -35.0 24.8 -34.25 22.45 -33.55 19.6 -32.05 14.8 -30.85 11.8 -32.95 12.4 -30.5 7.8 -32.1 9.3 -33.1 10.05 Q-33.8 10.55 -34.55 10.4 L-34.4 10.15 Q-32.7 7.0 -31.65 4.4 L-29.3 -1.8 Q-28.25 -4.45 -26.55 -6.85 -29.3 -5.85 -32.1 -6.1 L-33.7 -6.35 -31.4 -7.9 -28.4 -9.55 Q-27.05 -10.25 -26.15 -11.35 L-24.85 -12.95 Q-24.3 -13.85 -23.9 -14.8 L-23.05 -16.75 -21.45 -20.5 -25.45 -19.1 Q-23.85 -22.2 -22.8 -23.2 L-19.7 -26.3 -16.1 -30.15 -12.25 -34.4 -8.1 -38.45 -14.05 -38.35 1.05 -47.3 -2.25 -48.05 Q3.2 -50.25 9.05 -50.9 L7.05 -53.6 7.2 -54.1 16.05 -50.9 M-26.85 32.1 Q-26.25 33.3 -25.9 34.65 -25.6 35.8 -26.2 37.05 L-26.8 37.2 -26.85 32.45 -26.85 32.1 M-29.15 35.55 L-29.4 35.7 Q-29.7 35.7 -29.8 35.5 L-30.0 34.5 -29.85 27.2 Q-29.85 26.4 -29.15 26.25 -28.85 26.95 -28.6 28.9 L-28.4 31.85 -28.65 33.85 -29.15 35.55 M23.2 -31.6 L23.0 -32.05 Q23.3 -33.4 24.4 -33.95 L25.95 -34.7 Q27.45 -35.05 28.2 -33.85 25.5 -34.55 24.0 -32.3 L28.1 -30.55 27.8 -30.05 Q26.1 -29.8 24.7 -30.45 L23.45 -31.25 23.25 -31.45 23.2 -31.6 M26.85 -29.45 L26.85 -29.15 Q26.85 -28.3 20.45 -27.8 23.85 -29.1 26.85 -29.45 M-0.55 -37.95 L3.9 -37.55 4.7 -37.1 Q2.15 -35.0 -1.35 -33.25 -4.9 -31.55 -6.3 -31.1 L-8.65 -30.7 1.95 -36.2 -3.6 -38.4 5.7 -41.2 Q8.8 -42.3 11.75 -43.95 L11.75 -43.4 9.55 -41.95 5.95 -40.25 -0.55 -38.05 -0.75 -38.05 -0.55 -37.95 M7.9 -11.7 L7.9 -11.75 8.25 -12.05 10.2 -14.05 11.85 -15.65 9.8 -12.45 9.75 -12.45 Q8.1 -10.5 5.25 -9.6 L5.25 -9.15 8.75 -9.75 9.75 -10.05 10.65 -10.45 14.3 -12.15 14.6 -12.3 14.7 -12.2 13.9 -11.55 11.5 -10.0 9.45 -8.95 Q7.2 -8.0 5.3 -8.0 4.2 -8.0 4.2 -8.45 4.2 -9.5 4.65 -9.75 L4.75 -9.8 Q6.2 -10.4 7.9 -11.7 M16.45 6.55 L13.9 10.45 16.55 4.65 17.45 6.4 18.9 1.45 Q19.15 4.8 18.15 8.1 L17.75 8.85 17.55 9.1 17.3 9.0 Q16.2 7.95 16.5 6.55 L16.5 6.4 16.45 6.55 M7.5 21.85 L7.15 21.1 8.7 17.05 7.5 21.85 M-8.4 -13.35 Q-9.65 -13.25 -10.0 -13.9 L-4.75 -16.0 -4.55 -15.45 Q-6.2 -13.75 -8.4 -13.35 M-20.85 -2.0 L-20.35 -1.05 -22.8 4.75 -23.1 3.95 -22.05 -0.05 -25.2 1.45 -25.65 0.65 -23.2 -2.3 Q-19.75 -6.4 -17.05 -10.8 L-15.45 -11.6 -18.4 -6.4 Q-20.0 -3.5 -22.45 -1.25 L-20.85 -2.0 M-6.7 -25.15 Q-7.55 -25.1 -7.95 -25.6 L-0.1 -28.7 Q-2.75 -25.7 -6.7 -25.15 M-4.8 -11.65 L-5.0 -11.0 Q-6.05 -9.65 -7.65 -9.4 L-8.05 -9.25 -4.8 -11.65 M-18.3 38.5 L-18.6 40.2 -16.5 38.25 -16.45 38.35 -16.0 39.2 -19.45 42.35 -20.25 42.35 -20.65 42.1 -18.5 35.35 Q-17.85 34.9 -17.95 35.7 L-17.95 35.75 -17.95 35.8 -18.35 38.5 -18.3 38.5" fill="#a36a6a" fill-rule="evenodd" stroke="none"/>
    <path d="M34.2 -43.0 L34.6 -42.55 34.85 -42.2 36.3 -39.2 32.2 -40.6 32.35 -40.3 33.15 -39.4 Q31.0 -40.45 28.85 -40.9 28.8 -40.1 29.4 -39.35 30.75 -37.75 31.3 -35.8 L31.4 -35.8 Q32.7 -35.35 33.85 -34.5 L34.35 -34.05 34.75 -33.65 37.95 -30.1 38.0 -30.15 38.05 -29.95 38.55 -27.25 36.0 -28.95 36.85 -23.75 36.9 -23.5 36.8 -23.5 36.4 -21.75 36.1 -20.95 36.0 -23.3 35.0 -21.85 34.65 -21.35 Q34.15 -20.75 33.95 -20.0 L33.3 -18.1 33.05 -17.5 Q32.5 -15.6 31.45 -13.9 L31.4 -13.75 30.65 -12.95 27.9 -9.35 Q29.35 -11.85 29.55 -14.85 L29.7 -17.25 Q29.8 -18.45 29.5 -19.6 L29.3 -19.3 28.95 -18.0 Q28.5 -15.75 27.15 -13.85 L25.8 -12.1 Q24.55 -10.6 23.55 -8.9 L22.6 -7.25 21.7 -5.45 Q20.95 -3.7 20.55 -1.8 L20.25 -0.85 20.25 -0.7 Q19.6 -3.7 19.3 -6.75 L19.2 -7.25 19.1 -6.9 Q18.45 -4.8 17.4 -2.8 L16.45 -0.85 15.0 2.3 13.75 5.1 13.0 6.95 12.7 7.55 12.5 7.9 12.25 8.2 11.8 9.3 Q11.05 8.55 11.05 7.4 L11.0 6.15 10.95 4.25 Q11.0 2.65 11.5 1.1 L11.4 1.05 11.2 1.25 8.15 4.85 6.8 6.3 4.05 8.95 0.95 11.35 Q-2.1 13.3 -3.6 16.6 L-4.75 19.5 Q-7.3 23.35 -15.55 27.2 -6.8 24.2 -6.9 26.2 -7.05 28.55 -8.3 30.05 L-9.5 31.45 -9.7 31.75 Q-8.55 31.55 -7.7 30.6 L-5.95 28.1 -6.0 28.4 Q-7.2 32.45 -7.75 36.7 L-7.75 37.75 -7.75 38.2 Q-7.6 39.35 -8.05 40.35 L-8.75 43.05 -9.0 43.95 -8.9 44.0 -7.55 41.8 Q-6.5 39.9 -5.8 37.9 L-5.6 37.15 Q-6.1 39.8 -5.7 42.5 -5.55 43.6 -5.65 44.7 L-5.8 46.4 -5.95 46.25 -8.7 51.45 Q-9.7 49.65 -11.85 49.2 L-11.0 47.6 -12.35 49.15 -13.0 49.3 -13.05 49.9 -13.75 50.25 -14.85 50.05 -15.45 51.25 -20.85 49.45 -21.0 49.0 -20.95 47.7 -21.45 47.85 Q-22.7 49.1 -23.1 51.0 L-23.95 50.1 -23.85 49.95 -23.6 49.65 -24.05 48.7 Q-23.8 48.3 -23.7 47.45 L-23.7 45.55 Q-23.7 43.6 -25.15 42.7 -26.6 41.85 -26.6 43.45 L-26.6 43.5 -26.7 43.35 -27.2 44.8 -26.45 47.45 -27.15 46.75 -28.25 47.5 -28.5 45.65 Q-28.65 44.7 -29.55 44.25 L-32.65 46.45 -32.7 46.35 -32.9 43.5 Q-31.05 40.1 -30.05 36.3 L-29.8 35.5 Q-29.7 35.7 -29.4 35.7 L-29.15 35.55 -28.65 37.25 -28.6 37.45 -27.8 41.35 -27.65 41.35 -27.55 38.85 -27.5 37.15 -27.15 34.45 Q-26.85 33.5 -26.85 32.45 L-26.8 37.2 -26.2 37.05 Q-25.6 35.8 -25.9 34.65 -26.25 33.3 -26.85 32.1 L-26.85 31.95 -26.9 26.8 -26.55 27.6 -25.7 29.25 -24.35 30.95 -24.6 29.15 -24.1 29.8 -23.65 30.5 -22.6 31.9 -22.55 31.85 -22.7 31.0 -22.85 29.75 Q-23.2 26.05 -22.7 22.35 L-21.85 19.55 -20.3 15.6 -20.3 15.5 -20.2 15.9 -20.15 16.35 -20.1 17.0 -20.0 18.2 -20.0 18.65 -19.8 23.3 -19.8 23.55 -19.75 23.55 Q-19.25 26.0 -20.0 28.4 L-19.9 28.45 -19.35 27.85 Q-17.6 26.3 -16.6 24.05 L-16.0 22.8 -15.25 21.2 -14.15 19.05 -14.2 18.9 Q-15.5 19.65 -16.8 19.95 -17.1 19.75 -17.0 19.35 L-16.65 18.15 -15.4 12.4 -15.25 11.05 -15.15 9.9 -14.15 7.45 -14.05 7.4 -13.85 6.8 -13.25 6.85 -12.95 7.05 Q-12.8 7.15 -12.8 7.35 L-12.85 9.35 -12.95 10.35 Q-13.3 13.25 -13.15 16.1 L-12.55 13.1 -11.5 10.2 -10.6 8.35 -10.25 7.6 Q-9.4 5.75 -9.15 3.7 L-8.95 2.9 -7.65 -0.5 -7.0 -1.95 -6.8 -2.6 -6.65 -1.8 -6.6 -1.2 Q-6.45 1.85 -5.65 4.8 L-5.5 4.85 Q-5.35 2.3 -4.8 -0.15 L-4.05 -2.45 Q-3.15 -4.6 -1.65 -6.35 L-0.65 -7.25 0.8 -8.75 1.4 -9.5 0.15 -6.75 -0.8 -4.55 -0.85 -4.2 Q2.4 -6.3 3.95 -9.95 L5.0 -11.75 5.6 -12.6 6.1 -13.45 Q7.95 -16.45 10.9 -18.2 11.5 -18.5 11.95 -19.0 L12.05 -19.05 11.95 -19.15 Q8.9 -17.85 6.2 -15.9 L5.35 -15.4 5.15 -15.35 6.8 -17.15 7.05 -17.35 Q8.3 -18.75 8.95 -20.5 L9.3 -21.7 9.7 -23.25 10.1 -24.6 10.85 -27.3 11.0 -27.3 11.3 -29.25 11.4 -29.9 11.5 -30.25 11.6 -30.1 Q12.15 -28.6 12.25 -26.9 L12.4 -25.55 12.5 -23.85 12.7 -25.2 12.85 -30.95 12.9 -33.45 Q12.85 -36.1 14.05 -38.5 L14.55 -39.25 14.75 -39.0 Q16.55 -36.2 17.5 -33.2 L18.0 -34.55 Q18.95 -36.35 18.95 -38.35 L18.9 -41.6 25.0 -40.3 Q26.85 -39.75 28.0 -38.5 L26.25 -40.6 25.15 -41.7 23.55 -42.85 Q21.1 -44.45 18.2 -44.45 L25.15 -44.65 27.4 -44.55 Q30.95 -44.55 34.05 -42.85 L34.2 -43.0 M32.65 -9.05 L32.65 -8.95 32.65 -8.9 32.65 -9.05 M-30.35 9.7 L-30.4 9.7 -30.45 9.6 -30.35 9.7 M24.7 -30.45 Q26.1 -29.8 27.8 -30.05 L28.1 -30.55 24.0 -32.3 Q25.5 -34.55 28.2 -33.85 27.45 -35.05 25.95 -34.7 L24.4 -33.95 Q23.3 -33.4 23.0 -32.05 L23.2 -31.6 22.3 -31.45 Q19.15 -30.75 19.15 -29.8 L19.25 -29.4 19.4 -29.25 19.95 -29.2 24.7 -30.45 M26.85 -29.45 Q23.85 -29.1 20.45 -27.8 26.85 -28.3 26.85 -29.15 L26.85 -29.45 M28.1 -26.6 L27.15 -26.55 26.25 -26.55 23.35 -26.0 Q21.6 -25.6 20.05 -24.55 L19.9 -24.3 20.0 -23.6 Q20.15 -22.35 20.7 -21.3 22.5 -18.1 21.2 -14.6 L21.3 -14.5 Q23.35 -15.9 23.55 -18.55 L23.75 -20.0 Q24.1 -21.65 24.8 -23.2 25.85 -25.55 28.1 -26.6 M9.8 -12.45 L11.85 -15.65 10.2 -14.05 8.25 -12.05 7.9 -11.75 7.9 -11.7 7.45 -11.55 Q5.0 -10.45 4.65 -9.75 4.2 -9.5 4.2 -8.45 4.2 -8.0 5.3 -8.0 7.2 -8.0 9.45 -8.95 8.65 -7.55 8.4 -6.0 L10.5 -7.8 Q12.45 -9.55 13.9 -11.55 L14.7 -12.2 14.6 -12.3 14.3 -12.15 10.65 -10.45 9.75 -10.05 8.75 -9.75 9.4 -10.15 Q11.3 -11.35 11.3 -12.15 L11.15 -12.8 9.85 -12.5 9.8 -12.45 M5.05 -20.45 L5.15 -20.5 5.0 -20.35 5.05 -20.45 M0.45 -13.05 L0.8 -13.5 1.3 -13.75 0.45 -13.05 M1.75 -1.45 L1.65 -1.9 Q-0.35 -0.95 -1.9 1.05 -3.2 2.8 -3.85 4.75 -2.95 4.95 -2.4 3.95 L-1.45 2.1 1.75 -1.45 M1.25 6.55 L2.35 4.8 1.05 6.05 -1.0 7.9 -3.2 10.0 -3.25 10.1 -3.4 10.85 -3.5 11.05 -3.75 12.5 Q-3.95 14.8 -5.25 16.75 L-5.0 16.6 -3.9 15.4 Q-1.7 13.05 -0.55 10.05 0.1 8.15 1.25 6.55 M-16.8 -5.7 L-16.7 -5.8 -16.7 -5.7 -16.8 -5.7 M-6.1 8.85 Q-6.1 7.15 -7.3 8.1 -8.55 9.1 -8.55 10.8 -8.55 13.15 -10.75 16.25 -13.6 20.2 -14.35 22.25 L-14.15 22.2 Q-12.3 18.9 -8.4 14.85 -6.1 12.55 -6.1 8.85 M-2.5 17.1 Q-2.85 18.25 -4.4 19.3 L-3.65 18.35 -2.5 17.1 M-17.95 35.75 L-17.95 35.7 Q-17.85 34.9 -18.5 35.35 L-20.65 42.1 -20.25 42.35 -19.45 42.35 -16.0 39.2 -16.45 38.35 -16.5 38.25 -18.6 40.2 -18.3 38.5 Q-17.5 38.2 -16.95 36.75 -16.5 35.45 -16.5 34.5 -16.5 33.4 -17.05 33.9 -17.55 34.4 -17.9 35.6 L-17.95 35.75 M-19.1 46.2 L-19.05 44.7 Q-20.3 44.1 -20.3 46.65 -19.75 49.05 -18.35 49.05 L-18.0 48.8 -17.9 48.6 Q-17.9 48.15 -18.5 47.6 -19.1 47.0 -19.1 46.2" fill="#e0cbcb" fill-rule="evenodd" stroke="none"/>
    <path d="M36.9 -23.5 L37.1 -21.9 37.45 -18.3 35.7 -13.5 34.55 -10.85 Q33.8 -9.25 33.55 -7.6 L33.65 -7.55 33.6 -7.45 33.5 -7.5 33.5 -7.6 33.55 -7.6 33.55 -7.8 Q33.9 -10.45 34.4 -12.9 L34.35 -12.9 33.75 -11.75 32.8 -10.05 32.05 -8.8 30.5 -6.45 Q29.4 -4.8 28.1 -1.2 L28.2 -5.3 28.9 -7.55 27.35 -4.75 27.3 -4.8 27.25 -4.6 25.8 -2.7 Q24.15 -0.65 23.4 2.0 L22.7 4.05 22.95 -0.2 Q21.85 2.25 21.3 5.0 20.0 6.85 18.95 8.85 L16.95 12.95 16.75 13.35 16.4 13.85 16.15 14.1 13.2 16.45 13.1 16.55 12.6 16.3 12.5 16.65 11.95 13.4 11.8 12.45 11.75 12.1 11.7 12.05 11.6 12.1 Q11.55 15.25 10.8 18.25 L10.55 19.25 9.4 21.35 8.65 22.4 Q7.5 24.25 6.85 26.3 5.45 23.3 5.25 19.85 L5.05 17.35 5.05 16.4 4.95 16.4 3.45 21.85 Q3.0 23.5 3.0 25.25 L3.05 26.8 Q2.05 24.9 0.7 23.3 L0.35 22.55 0.6 27.5 Q0.65 28.9 0.0 30.15 -1.3 32.7 -1.45 35.55 L-1.55 36.7 -1.55 37.7 Q-2.5 34.6 -2.95 31.35 L-3.5 39.5 -3.55 41.6 -3.85 42.25 -4.05 44.4 -4.1 44.65 Q-4.25 46.0 -4.85 47.45 L-5.8 46.4 -5.65 44.7 Q-5.55 43.6 -5.7 42.5 -6.1 39.8 -5.6 37.15 L-5.8 37.9 Q-6.5 39.9 -7.55 41.8 L-8.9 44.0 -9.0 43.95 -8.75 43.05 -8.05 40.35 Q-7.6 39.35 -7.75 38.2 L-7.75 37.75 -7.75 36.7 Q-7.2 32.45 -6.0 28.4 L-5.95 28.1 -7.7 30.6 Q-8.55 31.55 -9.7 31.75 L-9.5 31.45 -8.3 30.05 Q-7.05 28.55 -6.9 26.2 -6.8 24.2 -15.55 27.2 -7.3 23.35 -4.75 19.5 L-3.6 16.6 Q-2.1 13.3 0.95 11.35 L4.05 8.95 6.8 6.3 8.15 4.85 11.2 1.25 11.4 1.05 11.5 1.1 Q11.0 2.65 10.95 4.25 L11.0 6.15 11.05 7.4 Q11.05 8.55 11.8 9.3 L12.25 8.2 12.5 7.9 12.7 7.55 13.0 6.95 13.75 5.1 15.0 2.3 16.45 -0.85 17.4 -2.8 Q18.45 -4.8 19.1 -6.9 L19.2 -7.25 19.3 -6.75 Q19.6 -3.7 20.25 -0.7 L20.25 -0.85 20.55 -1.8 Q20.95 -3.7 21.7 -5.45 L22.6 -7.25 23.55 -8.9 Q24.55 -10.6 25.8 -12.1 L27.15 -13.85 Q28.5 -15.75 28.95 -18.0 L29.3 -19.3 29.5 -19.6 Q29.8 -18.45 29.7 -17.25 L29.55 -14.85 Q29.35 -11.85 27.9 -9.35 L30.65 -12.95 31.4 -13.75 31.45 -13.9 31.5 -13.85 31.55 -13.95 32.25 -14.65 33.65 -16.15 34.55 -17.0 35.3 -17.8 35.8 -18.45 36.05 -19.1 36.1 -19.7 36.1 -20.95 36.4 -21.75 36.8 -23.5 36.9 -23.5 M28.1 -26.6 Q25.85 -25.55 24.8 -23.2 24.1 -21.65 23.75 -20.0 L23.55 -18.55 Q23.35 -15.9 21.3 -14.5 L21.2 -14.6 Q22.5 -18.1 20.7 -21.3 20.15 -22.35 20.0 -23.6 L19.9 -24.3 20.05 -24.55 Q21.6 -25.6 23.35 -26.0 L26.25 -26.55 27.15 -26.55 28.1 -26.6 M13.9 -11.55 Q12.45 -9.55 10.5 -7.8 L8.4 -6.0 Q8.65 -7.55 9.45 -8.95 L11.5 -10.0 13.9 -11.55 M28.25 2.3 L28.2 2.25 28.25 2.3 M16.5 6.55 Q16.2 7.95 17.3 9.0 L17.55 9.1 17.75 8.85 18.15 8.1 Q19.15 4.8 18.9 1.45 L17.45 6.4 16.55 4.65 13.9 10.45 16.45 6.55 16.5 6.55 M1.25 6.55 Q0.1 8.15 -0.55 10.05 -1.7 13.05 -3.9 15.4 L-5.0 16.6 -5.25 16.75 Q-3.95 14.8 -3.75 12.5 L-3.5 11.05 -3.4 10.85 -3.25 10.1 -3.2 10.0 -1.0 7.9 1.05 6.05 2.35 4.8 1.25 6.55 M7.5 21.85 L8.7 17.05 7.15 21.1 7.5 21.85 M-2.5 17.1 L-3.65 18.35 -4.4 19.3 Q-2.85 18.25 -2.5 17.1" fill="#cca9a9" fill-rule="evenodd" stroke="none"/>
    <path d="M-10.95 -39.4 Q-7.65 -41.0 -4.35 -42.7 L3.4 -47.1 5.7 -48.6 2.55 -48.4 Q4.85 -49.6 8.3 -49.75 L11.3 -49.7 11.2 -50.45 9.45 -51.8 Q12.95 -50.0 17.0 -49.35 17.65 -49.5 17.45 -50.5 L20.5 -48.25 23.8 -47.95 28.15 -48.35 Q26.15 -48.2 25.75 -47.45 L29.65 -45.8 Q32.05 -44.85 33.05 -44.1 L34.2 -43.0 34.05 -42.85 Q30.95 -44.55 27.4 -44.55 L25.15 -44.65 18.2 -44.45 Q21.1 -44.45 23.55 -42.85 L25.15 -41.7 26.25 -40.6 28.0 -38.5 Q26.85 -39.75 25.0 -40.3 L18.9 -41.6 18.95 -38.35 Q18.95 -36.35 18.0 -34.55 L17.5 -33.2 Q16.55 -36.2 14.75 -39.0 L14.55 -39.25 14.05 -38.5 Q12.85 -36.1 12.9 -33.45 L12.85 -30.95 12.7 -25.2 12.5 -23.85 12.4 -25.55 12.25 -26.9 Q12.15 -28.6 11.6 -30.1 L11.5 -30.25 11.4 -29.9 11.3 -29.25 11.0 -27.3 10.85 -27.3 10.1 -24.6 9.7 -23.25 9.3 -21.7 8.95 -20.5 Q8.3 -18.75 7.05 -17.35 L6.8 -17.15 5.15 -15.35 5.35 -15.4 6.2 -15.9 Q8.9 -17.85 11.95 -19.15 L12.05 -19.05 11.95 -19.0 Q11.5 -18.5 10.9 -18.2 7.95 -16.45 6.1 -13.45 L5.6 -12.6 5.0 -11.75 3.95 -9.95 Q2.4 -6.3 -0.85 -4.2 L-0.8 -4.55 0.15 -6.75 1.4 -9.5 0.8 -8.75 -0.65 -7.25 -1.65 -6.35 Q-3.15 -4.6 -4.05 -2.45 L-4.8 -0.15 Q-5.35 2.3 -5.5 4.85 L-5.65 4.8 Q-6.45 1.85 -6.6 -1.2 L-6.65 -1.8 -6.8 -2.6 -7.0 -1.95 -7.65 -0.5 -8.95 2.9 -9.15 3.7 Q-9.4 5.75 -10.25 7.6 L-10.6 8.35 -11.5 10.2 -12.55 13.1 -13.15 16.1 Q-13.3 13.25 -12.95 10.35 L-12.85 9.35 -12.8 7.35 Q-12.8 7.15 -12.95 7.05 L-13.25 6.85 -13.85 6.8 -14.05 7.4 -14.15 7.45 -15.15 9.9 -15.25 11.05 -15.4 12.4 -16.65 18.15 -17.0 19.35 Q-17.1 19.75 -16.8 19.95 -15.5 19.65 -14.2 18.9 L-14.15 19.05 -15.25 21.2 -16.0 22.8 -16.6 24.05 Q-17.6 26.3 -19.35 27.85 L-19.9 28.45 -20.0 28.4 Q-19.25 26.0 -19.75 23.55 L-19.8 23.55 -19.8 23.3 -20.0 18.65 -20.0 18.2 -20.1 17.0 -20.15 16.35 -20.2 15.9 -20.3 15.5 -20.3 15.6 -21.85 19.55 -22.7 22.35 Q-23.2 26.05 -22.85 29.75 L-22.7 31.0 -22.55 31.85 -22.6 31.9 -23.65 30.5 -24.1 29.8 -24.6 29.15 -24.35 30.95 -25.7 29.25 -26.55 27.6 -26.9 26.8 -26.85 31.95 -26.85 32.1 -26.85 32.45 Q-26.85 33.5 -27.15 34.45 L-27.5 37.15 -27.55 38.85 -27.65 41.35 -27.8 41.35 -28.6 37.45 -28.65 37.25 -29.15 35.55 -28.65 33.85 -28.4 31.85 -28.6 28.9 Q-28.85 26.95 -29.15 26.25 -29.85 26.4 -29.85 27.2 L-30.0 34.5 -29.8 35.5 -30.05 36.3 Q-31.05 40.1 -32.9 43.5 L-33.15 40.85 -36.25 42.8 -34.4 37.8 -34.85 37.3 -35.75 37.9 Q-34.65 35.35 -33.9 32.55 -33.0 29.2 -32.5 25.7 L-34.1 26.75 -34.2 26.7 -31.9 18.35 -31.45 16.85 -28.2 8.25 -28.65 7.6 -30.35 9.7 -30.45 9.6 -28.8 6.45 -29.1 5.65 -32.25 8.05 Q-31.3 6.65 -30.8 5.0 -29.25 -0.1 -26.4 -4.5 L-23.55 -8.7 -24.0 -9.05 -27.4 -7.75 -31.05 -6.95 Q-28.5 -8.05 -26.2 -10.05 -24.4 -11.55 -23.35 -13.6 L-19.7 -20.05 -17.45 -23.0 Q-15.35 -25.2 -12.85 -26.65 L-23.3 -20.9 -16.3 -28.35 -10.6 -34.1 -4.35 -40.1 -5.1 -40.3 -10.95 -39.35 -10.95 -39.4 M33.15 -39.4 L35.25 -36.8 36.3 -35.3 36.6 -34.65 Q37.55 -32.5 38.0 -30.15 L37.95 -30.1 34.75 -33.65 34.35 -34.05 33.85 -34.5 Q32.7 -35.35 31.4 -35.8 L31.3 -35.8 Q30.75 -37.75 29.4 -39.35 28.8 -40.1 28.85 -40.9 31.0 -40.45 33.15 -39.4 M37.45 -18.3 Q37.55 -16.6 36.85 -15.0 L33.65 -7.55 33.55 -7.6 Q33.8 -9.25 34.55 -10.85 L35.7 -13.5 37.45 -18.3 M33.5 -7.6 L33.5 -9.8 32.65 -9.05 32.65 -8.9 31.75 -7.35 Q30.85 -5.7 30.25 -3.9 L28.25 2.3 27.05 5.95 Q26.75 2.1 27.4 -1.75 L27.8 -3.25 Q28.25 -4.4 27.35 -4.75 L28.9 -7.55 28.2 -5.3 28.1 -1.2 Q29.4 -4.8 30.5 -6.45 L32.05 -8.8 32.8 -10.05 33.75 -11.75 34.35 -12.9 34.4 -12.9 Q33.9 -10.45 33.55 -7.8 L33.55 -7.6 33.5 -7.6 M27.25 -4.6 L21.9 11.25 22.0 8.95 21.7 8.6 22.1 7.5 22.5 5.85 22.7 4.05 23.4 2.0 Q24.15 -0.65 25.8 -2.7 L27.25 -4.6 M21.3 5.0 L21.1 5.9 Q20.25 10.85 17.0 14.6 15.0 16.95 13.4 19.45 L13.45 17.65 Q13.5 16.9 13.1 16.55 L13.2 16.45 16.15 14.1 16.4 13.85 16.75 13.35 16.95 12.95 18.95 8.85 Q20.0 6.85 21.3 5.0 M12.5 16.65 L8.4 26.95 8.35 25.8 Q8.3 25.0 7.65 25.05 L-0.1 37.65 -0.9 36.7 -2.05 40.75 -2.75 40.95 -3.55 41.6 -3.5 39.5 -2.95 31.35 Q-2.5 34.6 -1.55 37.7 L-1.55 36.7 -1.45 35.55 Q-1.3 32.7 0.0 30.15 0.65 28.9 0.6 27.5 L0.35 22.55 0.7 23.3 Q2.05 24.9 3.05 26.8 L3.0 25.25 Q3.0 23.5 3.45 21.85 L4.95 16.4 5.05 16.4 5.05 17.35 5.25 19.85 Q5.45 23.3 6.85 26.3 7.5 24.25 8.65 22.4 L9.4 21.35 10.55 19.25 10.8 18.25 Q11.55 15.25 11.6 12.1 L11.7 12.05 11.75 12.1 11.8 12.45 11.95 13.4 12.5 16.65 M-23.95 50.1 L-26.45 47.45 -27.2 44.8 -26.7 43.35 -26.6 43.5 -26.6 43.45 Q-26.6 41.85 -25.15 42.7 -23.7 43.6 -23.7 45.55 L-23.7 47.45 Q-23.8 48.3 -24.05 48.7 L-23.6 49.65 -23.85 49.95 -23.95 50.1 M23.2 -31.6 L23.25 -31.45 23.45 -31.25 24.7 -30.45 19.95 -29.2 19.4 -29.25 19.25 -29.4 19.15 -29.8 Q19.15 -30.75 22.3 -31.45 L23.2 -31.6 M-0.55 -38.05 L5.95 -40.25 9.55 -41.95 11.75 -43.4 11.75 -43.95 Q8.8 -42.3 5.7 -41.2 L-3.6 -38.4 1.95 -36.2 -8.65 -30.7 -6.3 -31.1 Q-4.9 -31.55 -1.35 -33.25 2.15 -35.0 4.7 -37.1 L3.9 -37.55 -0.55 -37.95 -0.55 -38.05 M9.8 -12.45 L9.85 -12.5 11.15 -12.8 11.3 -12.15 Q11.3 -11.35 9.4 -10.15 L8.75 -9.75 5.25 -9.15 5.25 -9.6 Q8.1 -10.5 9.75 -12.45 L9.8 -12.45 M4.65 -9.75 Q5.0 -10.45 7.45 -11.55 L7.9 -11.7 Q6.2 -10.4 4.75 -9.8 L4.65 -9.75 M5.05 -20.45 L5.0 -20.35 5.15 -20.5 5.05 -20.45 M0.45 -13.05 L1.3 -13.75 0.8 -13.5 0.45 -13.05 M1.75 -1.45 L-1.45 2.1 -2.4 3.95 Q-2.95 4.95 -3.85 4.75 -3.2 2.8 -1.9 1.05 -0.35 -0.95 1.65 -1.9 L1.75 -1.45 M36.1 -20.95 L36.1 -19.7 36.05 -19.1 35.8 -18.45 35.3 -17.8 34.55 -17.0 33.65 -16.15 32.25 -14.65 31.55 -13.95 31.5 -13.85 31.45 -13.9 Q32.5 -15.6 33.05 -17.5 L33.3 -18.1 33.95 -20.0 Q34.15 -20.75 34.65 -21.35 L35.0 -21.85 36.0 -23.3 36.1 -20.95 M28.25 2.3 L28.2 2.25 28.25 2.3 M-6.7 -25.15 Q-2.75 -25.7 -0.1 -28.7 L-7.95 -25.6 Q-7.55 -25.1 -6.7 -25.15 M-20.85 -2.0 L-22.45 -1.25 Q-20.0 -3.5 -18.4 -6.4 L-15.45 -11.6 -17.05 -10.8 Q-19.75 -6.4 -23.2 -2.3 L-25.65 0.65 -25.2 1.45 -22.05 -0.05 -23.1 3.95 -22.8 4.75 -20.35 -1.05 -20.85 -2.0 M-8.4 -13.35 Q-6.2 -13.75 -4.55 -15.45 L-4.75 -16.0 -10.0 -13.9 Q-9.65 -13.25 -8.4 -13.35 M-16.8 -5.7 L-16.7 -5.7 -16.7 -5.8 -16.8 -5.7 M-4.8 -11.65 L-8.05 -9.25 -7.65 -9.4 Q-6.05 -9.65 -5.0 -11.0 L-4.8 -11.65 M-6.1 8.85 Q-6.1 12.55 -8.4 14.85 -12.3 18.9 -14.15 22.2 L-14.35 22.25 Q-13.6 20.2 -10.75 16.25 -8.55 13.15 -8.55 10.8 -8.55 9.1 -7.3 8.1 -6.1 7.15 -6.1 8.85 M-18.3 38.5 L-18.35 38.5 -17.95 35.8 -17.95 35.75 -17.9 35.6 Q-17.55 34.4 -17.05 33.9 -16.5 33.4 -16.5 34.5 -16.5 35.45 -16.95 36.75 -17.5 38.2 -18.3 38.5 M-19.1 46.2 Q-19.1 47.0 -18.5 47.6 -17.9 48.15 -17.9 48.6 L-18.0 48.8 -18.35 49.05 Q-19.75 49.05 -20.3 46.65 -20.3 44.1 -19.05 44.7 L-19.1 46.2" fill="url(#gradient0)" fill-rule="evenodd" stroke="none"/>
  </g>
  <defs>
    <radialGradient cx="0" cy="0" gradientTransform="matrix(0.0206, -0.0358, 0.0325, 0.0188, -2.4, -46.6)" gradientUnits="userSpaceOnUse" id="gradient0" r="819.2" spreadMethod="pad">
      <stop offset="0.47843137254901963" stop-color="#ffffff"></stop>
      <stop offset="0.8823529411764706" stop-color="#f2eaea"></stop>
    </radialGradient>
  </defs>
</svg>