<?xml version="1.0" encoding="UTF-8" standalone="no"?>
<svg xmlns:xlink="http://www.w3.org/1999/xlink" height="10.45px" width="7.15px" xmlns="http://www.w3.org/2000/svg">
  <g transform="matrix(1.0, 0.0, 0.0, 1.0, 3.3, 7.9)">
    <path d="M-1.45 0.95 Q-1.5 -0.55 -1.0 -2.05 L-0.95 -2.1 -1.0 -2.1 Q-0.5 -4.55 0.75 -6.25 L1.2 -5.45 1.1 -4.95 0.7 -3.25 0.85 -1.85 0.55 0.85 0.55 1.0 -1.45 0.95" fill="#ffffcc" fill-rule="evenodd" stroke="none"/>
    <path d="M-1.45 0.95 Q-1.35 1.35 -1.65 1.55 -2.45 1.45 -2.25 0.1 L-1.9 -1.55 -0.9 -4.6 -0.3 -5.75 0.45 -6.9 0.95 -6.9 Q2.75 -5.0 2.85 -2.5 L2.65 -1.85 1.2 -5.45 0.75 -6.25 Q-0.5 -4.55 -1.0 -2.1 L-1.0 -2.05 Q-1.5 -0.55 -1.45 0.95" fill="#a36a6a" fill-rule="evenodd" stroke="none"/>
    <path d="M1.2 -5.45 L2.65 -1.85 2.4 -0.9 1.9 -0.7 1.85 -0.05 Q1.6 1.05 0.55 1.0 L0.55 0.85 0.85 -1.85 0.7 -3.25 1.1 -4.95 1.2 -5.45" fill="#e0cca3" fill-rule="evenodd" stroke="none"/>
  </g>
</svg>