<?xml version="1.0" encoding="UTF-8" standalone="no"?>
<svg xmlns:xlink="http://www.w3.org/1999/xlink" height="4.85px" width="9.1px" xmlns="http://www.w3.org/2000/svg">
  <g transform="matrix(1.0, 0.0, 0.0, 1.0, 4.55, 2.4)">
    <path d="M0.4 -0.65 L0.1 -0.7 -1.9 -0.6 Q-2.55 -0.05 -2.75 1.0 L-3.4 1.1 -3.55 1.15 Q-3.5 -1.6 -0.1 -1.4 3.35 -1.25 3.5 0.25 L3.55 1.45 3.1 1.3 2.95 1.25 Q2.7 0.15 1.9 -0.25 L0.4 -0.65" fill="#a36a6a" fill-rule="evenodd" stroke="none"/>
    <path d="M-2.75 1.0 Q-2.55 -0.05 -1.9 -0.6 L0.1 -0.7 0.4 -0.65 0.15 0.95 0.2 1.15 -2.75 1.0 M2.9 1.25 L2.95 1.25 2.9 1.25" fill="#ffffcc" fill-rule="evenodd" stroke="none"/>
    <path d="M0.4 -0.65 L1.9 -0.25 Q2.7 0.15 2.95 1.25 L2.9 1.25 0.2 1.15 0.15 0.95 0.4 -0.65" fill="#e0cca3" fill-rule="evenodd" stroke="none"/>
  </g>
</svg>