<?xml version="1.0" encoding="UTF-8" standalone="no"?>
<svg xmlns:xlink="http://www.w3.org/1999/xlink" height="9.2px" width="8.85px" xmlns="http://www.w3.org/2000/svg">
  <g transform="matrix(1.0, 0.0, 0.0, 1.0, 18.95, -1)">
    <path d="M-14.35 3.9 Q-14.8 4.35 -15.35 4.35 -16.45 4.35 -16.45 3.25 -16.45 2.05 -15.2 2.0 -14.0 1.95 -14.0 3.2 -14.0 3.5 -14.35 3.9 M-15.4 8.35 L-15.45 8.6 -15.7 8.95 -16.2 9.2 Q-17.0 9.2 -17.55 8.65 L-17.95 7.85 -17.8 7.5 -16.85 7.35 Q-15.4 7.8 -15.4 8.35 M-11.85 7.5 Q-11.85 7.2 -11.1 7.35 L-11.1 7.65 -11.45 7.85 -11.75 7.8 -11.85 7.5 M-12.8 8.35 L-12.85 8.7 -13.25 8.7 Q-14.35 8.7 -14.35 8.1 -14.35 7.55 -13.55 7.55 -12.8 7.6 -12.8 8.35" fill="#ffffff" fill-opacity="0.49803922" fill-rule="evenodd" stroke="none"/>
  </g>
</svg>