<?xml version="1.0" encoding="UTF-8" standalone="no"?>
<svg xmlns:xlink="http://www.w3.org/1999/xlink" height="8.4px" width="11.9px" xmlns="http://www.w3.org/2000/svg">
  <g transform="matrix(1.0, 0.0, 0.0, 1.0, -28.35, -15.85)">
    <path d="M30.2 20.3 L30.05 20.55 30.05 20.6 30.0 20.65 29.75 21.3 29.65 22.05 29.6 22.3 Q28.85 20.65 30.25 18.6 L30.4 18.4 Q32.05 16.0 34.65 17.3 L34.65 17.35 34.75 17.4 37.15 17.25 37.3 17.3 37.3 17.35 Q39.1 17.95 39.25 18.9 L39.1 19.35 39.05 19.4 39.0 19.4 38.95 19.4 37.9 18.75 37.55 18.55 Q37.2 18.3 36.9 18.2 L36.9 18.15 36.15 17.95 35.9 17.95 Q35.25 18.1 34.6 18.55 L34.5 18.65 Q33.85 19.1 33.25 19.9 L32.8 20.6 32.75 20.75 31.75 22.8 31.6 23.05 31.55 23.1 31.5 23.1 31.05 23.05 31.0 23.0 31.0 22.95 31.05 22.85 31.1 22.45 31.15 22.35 31.8 20.65 33.45 18.45 33.55 18.4 33.95 18.0 32.65 17.9 32.6 17.9 Q32.0 17.95 31.45 18.55 L31.1 18.95 30.2 20.3 M34.15 22.2 L34.1 22.2 34.35 21.65 34.75 21.0 35.55 20.3 36.7 19.85 37.75 20.0 38.0 20.45 38.0 20.55 38.0 20.65 37.45 21.25 37.15 21.45 36.85 21.55 36.15 21.75 36.0 21.75 35.95 21.7 Q35.9 21.55 36.55 21.05 L35.1 21.3 34.15 22.2" fill="#a36a6a" fill-rule="evenodd" stroke="none"/>
    <path d="M30.2 20.3 L31.1 18.95 31.45 18.55 Q32.0 17.95 32.6 17.9 L32.65 17.9 33.95 18.0 33.55 18.4 33.45 18.45 31.8 20.65 31.6 20.75 30.75 19.5 30.2 20.3 M32.8 20.6 L33.25 19.9 Q33.85 19.1 34.5 18.65 L34.6 18.55 Q35.25 18.1 35.9 17.95 L36.15 17.95 36.9 18.15 36.9 18.2 Q36.8 19.05 36.1 19.75 L35.85 19.95 33.8 20.75 32.8 20.6" fill="url(#gradient0)" fill-rule="evenodd" stroke="none"/>
    <path d="M29.6 22.3 L29.65 22.05 29.75 21.3 30.0 20.65 30.05 20.6 30.05 20.55 30.2 20.3 30.75 19.5 31.6 20.75 31.8 20.65 31.15 22.35 31.1 22.45 31.05 22.85 31.0 22.95 31.0 23.0 31.05 23.05 31.5 23.1 31.55 23.1 31.6 23.05 31.75 22.8 32.75 20.75 32.8 20.6 33.8 20.75 35.85 19.95 36.1 19.75 Q36.8 19.05 36.9 18.2 37.2 18.3 37.55 18.55 L37.9 18.75 38.95 19.4 39.0 19.4 39.05 19.4 Q38.9 20.45 37.9 20.95 L37.65 21.1 38.0 20.65 38.0 20.55 38.0 20.45 37.75 20.0 36.7 19.85 35.55 20.3 34.75 21.0 34.35 21.65 34.1 22.2 34.15 22.2 32.7 22.85 30.8 23.25 Q29.95 23.25 29.6 22.75 L29.6 22.65 29.6 22.6 29.6 22.5 29.6 22.45 29.6 22.3 M36.85 21.55 L35.45 22.5 34.4 23.0 34.3 22.9 35.1 21.3 36.55 21.05 Q35.9 21.55 35.95 21.7 L36.0 21.75 36.15 21.75 36.85 21.55" fill="#e0cbcb" fill-rule="evenodd" stroke="none"/>
  </g>
  <defs>
    <radialGradient cx="0" cy="0" gradientTransform="matrix(0.0089, -0.0226, 0.0205, 0.0081, -48.1, -6.9)" gradientUnits="userSpaceOnUse" id="gradient0" r="819.2" spreadMethod="pad">
      <stop offset="0.47843137254901963" stop-color="#ffffff"></stop>
      <stop offset="0.8823529411764706" stop-color="#f2eaea"></stop>
    </radialGradient>
  </defs>
</svg>