<?xml version="1.0" encoding="UTF-8" standalone="no"?>
<svg xmlns:xlink="http://www.w3.org/1999/xlink" height="99.3px" width="56.2px" xmlns="http://www.w3.org/2000/svg">
  <g transform="matrix(1.0, 0.0, 0.0, 1.0, 28.1, 49.65)">
    <path d="M-13.8 46.35 L-14.85 45.75 -16.6 47.1 Q-16.6 46.45 -16.95 45.75 L-17.0 45.65 Q-17.4 44.9 -17.95 44.9 -18.4 44.9 -18.5 45.15 L-18.65 45.65 -19.15 44.65 -19.25 44.5 -19.1 44.55 Q-17.65 41.4 -15.2 38.8 L-14.25 37.8 Q-13.8 37.35 -13.45 36.4 L-11.25 29.75 Q-10.75 28.15 -9.7 26.95 L-10.0 26.75 -10.9 27.5 -10.8 26.0 Q-10.8 24.65 -10.95 23.35 L-11.3 16.6 Q-11.3 15.85 -11.55 15.2 L-12.05 12.8 -12.45 10.6 -12.65 9.45 -12.25 9.75 -11.7 10.3 -9.65 12.75 -9.5 12.75 -9.95 10.95 Q-10.65 8.5 -11.7 6.0 -13.0 3.0 -11.85 0.2 L-11.55 -0.45 -11.4 -0.45 -11.3 -0.45 -10.25 -0.6 -10.35 0.5 -10.5 1.45 Q-10.65 2.85 -11.15 4.2 L-9.25 2.6 -6.5 0.1 Q-5.2 -0.8 -4.8 -2.4 L-4.0 -5.55 -3.95 -5.9 -4.1 -5.95 -4.15 -5.95 -7.15 -3.45 -8.5 -2.5 -8.75 -2.4 Q-10.65 -1.65 -11.9 -1.45 L-12.05 -1.45 -12.05 -1.6 -11.95 -1.7 Q-10.25 -2.65 -8.6 -3.7 -4.75 -6.15 -3.85 -10.65 L-2.3 -6.5 0.75 0.4 Q0.95 -4.35 0.1 -8.95 -0.4 -11.6 -0.15 -14.3 0.1 -17.55 0.95 -20.65 L0.95 -18.35 0.95 -15.75 Q0.85 -13.15 1.4 -10.85 1.25 -13.4 2.2 -15.75 2.7 -17.0 3.5 -17.95 7.4 -22.45 8.65 -27.95 L8.7 -27.2 8.9 -26.05 9.25 -23.8 Q9.4 -22.45 9.65 -23.05 L9.7 -23.4 9.95 -24.2 Q10.95 -29.55 14.1 -34.55 14.7 -35.45 15.45 -36.2 17.65 -38.3 20.4 -39.5 L20.25 -39.75 20.5 -39.55 21.65 -38.5 Q24.65 -35.55 25.8 -32.65 L25.9 -32.35 26.0 -31.85 24.9 -31.0 20.4 -27.3 Q15.3 -23.1 12.5 -17.1 L11.0 -13.4 9.95 -9.75 9.35 -7.2 Q9.15 -6.3 8.4 -6.25 8.25 -6.9 8.25 -7.8 8.2 -10.5 7.6 -13.05 L7.3 -5.8 Q7.1 -2.7 6.2 0.2 L5.8 1.45 Q5.35 3.15 4.2 4.45 2.55 6.2 1.25 8.05 1.45 7.35 1.1 6.75 L0.85 6.05 0.15 3.75 -0.35 5.75 Q-0.75 11.05 -0.1 16.25 0.35 19.7 0.15 23.3 L-0.2 25.25 -1.05 27.2 Q-1.55 28.0 -2.05 28.2 L-1.9 26.95 Q-1.6 24.6 -2.65 22.7 -2.5 27.5 -4.45 31.85 L-5.95 34.2 -6.9 35.3 -9.6 37.95 Q-10.9 39.05 -10.65 41.0 L-10.95 39.8 Q-11.7 36.7 -11.45 33.45 -13.05 36.9 -13.95 40.9 L-14.0 42.35 Q-13.7 44.1 -13.8 45.9 L-13.8 46.35 M-23.8 -0.35 L-24.55 1.55 -24.6 1.5 -24.0 -0.4 -23.8 -0.35 M-20.7 -21.75 L-20.8 -21.75 -20.7 -21.8 -20.7 -21.75 M-5.4 -43.25 L-5.55 -43.3 -5.4 -43.3 -5.4 -43.25 M12.75 -41.4 L12.85 -41.4 12.9 -41.3 12.75 -41.4 M-9.7 26.95 L-9.7 27.0 -8.8 31.05 Q-8.55 31.95 -8.7 32.75 L-8.6 32.7 -8.05 31.85 -7.85 31.6 -7.55 31.05 -7.6 30.55 Q-8.3 28.55 -9.65 26.9 L-9.75 26.75 -9.7 26.95 M-1.7 -28.9 L-1.6 -29.55 -1.65 -28.9 -1.7 -28.9 M-4.4 7.15 L-5.05 9.4 Q-5.7 13.35 -5.95 17.4 L-6.0 18.35 -6.05 19.1 Q-5.7 20.8 -5.85 22.6 L-5.75 22.6 Q-5.5 20.15 -3.75 18.65 L-3.2 17.85 Q-2.75 16.8 -2.7 15.7 L-2.9 13.95 -3.3 11.9 Q-3.85 8.55 -3.65 5.15 L-4.4 7.15" fill="#e0cbcb" fill-rule="evenodd" stroke="none"/>
    <path d="M10.3 21.5 L10.4 23.15 Q10.4 25.6 9.6 28.0 8.8 30.4 8.8 32.7 8.8 33.45 8.35 33.45 L7.8 32.8 7.55 31.75 7.5 31.75 7.25 33.6 7.1 35.15 Q7.1 36.05 8.4 39.15 L8.3 39.4 7.9 39.65 6.3 38.95 6.1 38.9 Q6.4 39.7 6.95 40.5 6.95 41.0 6.3 41.0 4.75 41.0 2.9 39.9 1.1 38.75 -0.95 38.75 -2.25 38.75 -3.35 41.35 L-4.0 43.05 -4.35 43.95 Q-4.85 43.95 -5.05 43.25 L-5.2 42.4 -5.25 42.4 -5.6 45.7 Q-5.9 47.9 -6.3 47.9 L-7.6 47.0 -8.65 45.8 -9.25 44.75 -9.6 45.45 Q-10.35 46.8 -10.35 47.9 -10.35 48.45 -11.0 48.45 -12.0 48.45 -13.35 47.8 L-13.85 47.6 Q-14.75 47.15 -14.85 47.15 L-15.9 47.9 Q-16.9 48.65 -17.2 48.65 -17.95 48.65 -17.9 47.95 L-17.8 47.5 -17.75 46.85 -17.8 46.8 -18.4 47.2 Q-19.15 47.2 -19.75 46.05 L-20.6 43.95 Q-22.75 46.1 -23.25 46.1 -23.9 46.1 -23.75 45.6 L-22.65 41.65 -21.1 36.3 -22.05 36.9 -22.9 37.4 Q-23.55 37.4 -23.5 36.8 L-22.8 34.35 -22.15 31.35 -22.95 26.4 Q-23.75 21.75 -23.75 19.45 L-23.5 14.95 -23.7 15.6 Q-23.9 16.1 -24.25 16.1 -25.05 16.1 -24.95 13.4 L-24.85 12.3 -24.85 12.25 -24.9 11.55 -24.45 3.35 -24.45 3.25 -25.6 5.55 Q-26.3 6.95 -26.6 6.95 -27.2 6.95 -27.05 6.45 -27.05 5.6 -24.75 -0.9 L-22.2 -7.9 -21.75 -9.15 Q-20.3 -12.35 -18.65 -16.9 L-17.4 -20.35 -17.45 -20.25 -17.0 -21.85 -16.95 -22.25 Q-19.85 -20.7 -21.7 -20.7 -22.6 -20.7 -22.6 -21.15 L-20.8 -23.35 Q-18.7 -25.85 -17.6 -28.5 L-16.3 -32.2 -16.1 -32.65 Q-15.4 -34.55 -14.3 -35.9 L-14.25 -35.95 -16.5 -36.1 Q-18.15 -36.35 -18.15 -36.65 -18.15 -36.95 -12.15 -39.1 L-8.9 -40.6 -5.25 -42.4 -5.2 -42.45 -7.5 -42.9 Q-9.2 -43.3 -9.2 -43.7 L-8.95 -44.1 -6.8 -44.1 -3.0 -44.75 0.75 -45.4 4.3 -45.1 5.65 -44.85 6.15 -44.85 Q5.95 -45.1 5.7 -46.1 L5.5 -47.35 Q5.5 -48.95 6.25 -48.6 6.95 -48.25 7.8 -46.4 9.35 -43.9 12.2 -42.6 L12.25 -44.85 Q12.45 -46.4 13.2 -46.4 L14.55 -44.65 Q15.75 -42.65 16.3 -42.2 16.75 -43.85 17.6 -45.45 18.6 -47.3 19.3 -47.3 L19.7 -47.0 19.75 -46.75 19.5 -45.6 Q19.2 -44.65 19.2 -43.9 19.2 -42.85 19.75 -41.4 L20.3 -40.0 20.25 -39.8 20.25 -39.75 19.95 -39.6 19.7 -39.6 Q19.2 -39.75 18.9 -40.45 18.3 -41.65 18.3 -44.55 L18.25 -44.6 Q17.95 -44.2 17.35 -42.4 L16.6 -40.9 Q15.7 -40.9 14.55 -42.65 L14.3 -43.0 13.25 -44.95 Q12.9 -43.95 13.0 -43.25 L13.15 -41.9 13.1 -41.55 13.0 -41.45 12.85 -41.4 12.75 -41.4 Q11.1 -41.4 9.15 -43.35 L6.55 -46.55 Q6.75 -45.5 7.35 -44.5 L7.9 -43.65 7.8 -43.3 7.45 -43.2 5.85 -43.85 0.65 -44.5 -2.95 -43.95 -5.4 -43.3 -5.55 -43.3 -5.4 -43.25 -4.45 -43.2 -3.25 -43.4 -2.65 -43.6 Q-2.2 -43.6 -2.2 -43.15 -2.2 -42.9 -8.25 -40.05 -13.95 -37.45 -15.85 -36.7 L-13.5 -37.0 -12.65 -37.4 Q-12.3 -37.4 -12.2 -37.2 L-12.15 -37.0 -13.55 -35.35 -15.05 -32.65 -16.3 -29.35 Q-17.5 -25.1 -20.7 -21.8 L-20.8 -21.75 -20.7 -21.75 Q-19.2 -22.05 -17.55 -23.0 L-16.15 -24.0 Q-15.9 -24.0 -15.8 -23.8 -15.5 -23.8 -15.5 -23.2 -15.5 -21.75 -19.25 -12.8 L-21.25 -7.9 -24.0 -0.4 -24.6 1.5 -24.6 1.6 -24.55 1.55 -23.8 -0.35 Q-23.2 -1.8 -22.8 -1.8 L-22.4 -1.55 -22.35 -1.25 -23.45 2.45 Q-23.7 3.6 -23.75 6.1 L-23.9 9.75 -24.0 11.3 Q-23.8 11.45 -23.85 11.9 L-24.05 12.8 -24.05 14.05 Q-23.1 11.55 -22.35 10.25 -21.45 8.75 -21.45 10.1 -22.85 15.2 -22.85 18.25 -22.85 21.5 -21.95 25.9 -21.05 30.3 -21.05 31.3 -21.05 31.95 -21.75 35.45 L-21.75 35.5 -21.1 34.75 Q-20.65 34.15 -20.3 34.15 -19.8 34.15 -19.8 34.6 -19.8 35.95 -22.25 43.95 L-22.25 44.0 -21.4 43.1 Q-20.75 42.35 -20.35 42.35 -20.0 42.35 -19.55 43.65 L-19.45 43.85 -19.35 44.15 -19.25 44.5 -19.15 44.65 -18.65 45.65 -18.5 45.15 Q-18.4 44.9 -17.95 44.9 -17.4 44.9 -17.0 45.65 L-16.95 45.75 Q-16.6 46.45 -16.6 47.1 L-14.85 45.75 -13.8 46.35 -11.7 47.2 Q-10.7 44.8 -9.7 43.9 L-9.8 43.7 Q-9.8 43.25 -9.45 43.25 -8.75 43.25 -7.95 44.5 L-6.8 46.2 -6.75 46.2 -6.4 42.4 Q-6.05 40.6 -5.45 40.1 L-5.0 39.9 Q-4.45 39.9 -4.35 40.25 -4.25 40.45 -4.3 40.85 L-3.55 39.0 Q-2.85 37.7 -0.9 37.7 1.3 37.7 2.95 38.55 3.6 38.85 4.65 39.75 L5.35 39.75 4.8 38.5 4.6 37.55 Q4.6 37.05 5.1 37.05 5.65 37.05 6.95 38.2 6.2 36.5 6.2 35.15 L6.45 32.15 Q6.9 29.15 7.7 29.15 L8.15 29.55 Q9.55 26.3 9.55 22.9 L9.5 22.35 9.3 19.9 9.25 18.9 9.15 17.85 Q9.35 16.7 9.5 16.55 L9.75 17.55 9.8 17.85 9.95 18.85 9.95 19.0 10.05 19.55 10.3 21.5 M-11.95 -1.7 L-12.05 -1.6 -12.15 -1.45 -12.05 -1.45 -11.9 -1.45 Q-10.65 -1.65 -8.75 -2.4 L-8.5 -2.5 -6.35 -3.4 -6.15 -3.4 -6.0 -3.3 -6.0 -3.05 Q-6.0 -1.85 -8.4 -1.05 L-10.25 -0.6 -11.3 -0.45 -11.4 -0.45 -11.55 -0.45 -12.65 -0.4 -12.75 -0.4 -13.8 -0.65 -13.85 -0.7 -13.9 -0.75 -14.0 -1.15 -12.25 -3.05 Q-10.45 -4.85 -9.2 -7.0 L-8.7 -7.9 -8.7 -7.95 -8.6 -7.9 -8.4 -7.3 Q-8.4 -6.8 -10.05 -4.35 L-10.65 -3.4 -11.95 -1.7 M-11.15 -30.6 Q-9.25 -31.5 -7.7 -32.65 L-6.2 -33.9 -4.75 -35.7 Q-3.7 -36.95 -3.0 -36.85 L-5.0 -34.05 -6.25 -32.65 Q-7.1 -31.95 -8.0 -31.35 L-6.0 -32.05 -5.55 -31.65 -7.15 -29.55 -9.65 -26.5 -11.15 -23.85 Q-12.05 -22.2 -13.25 -21.4 L-13.35 -21.35 -13.5 -21.6 -7.5 -30.6 -10.3 -30.25 -11.1 -30.3 -11.15 -30.6 M-18.5 11.25 L-18.7 11.5 -19.35 12.05 -20.25 12.7 Q-21.0 12.7 -20.75 12.05 L-19.9 8.95 -18.9 5.75 -18.35 2.75 Q-18.05 0.8 -17.4 -0.25 -17.25 0.05 -17.25 0.65 L-17.4 2.9 -17.45 3.1 -18.05 5.95 -19.55 10.9 -19.5 11.0 -19.45 11.0 -17.1 8.3 Q-16.85 8.3 -16.75 8.45 L-16.65 8.8 Q-16.65 9.5 -17.0 11.1 -17.55 13.75 -19.05 18.95 L-19.2 19.0 -19.65 16.3 -18.45 11.3 -18.45 11.15 -18.5 11.25 M-18.15 23.5 L-17.85 23.8 -17.85 30.8 -18.15 31.1 Q-18.9 30.55 -18.9 29.9 L-18.6 23.5 -18.15 23.5 M-1.6 31.8 L-1.55 32.05 -3.0 33.8 -3.3 33.8 -3.35 33.4 Q-3.35 33.05 -2.95 32.45 -2.5 31.75 -1.95 31.75 L-1.65 31.85 -1.6 31.8 M-0.5 33.2 Q-0.5 33.55 -0.85 34.1 L-1.35 35.0 -1.85 34.9 -1.95 34.55 -1.45 33.55 -0.75 32.8 -0.55 32.9 -0.5 33.2 M-16.05 29.3 L-15.9 30.95 -16.1 31.85 -16.35 32.65 -16.8 32.6 -17.0 29.3 Q-17.45 27.65 -16.35 27.5 L-16.05 29.3" fill="#a36a6a" fill-rule="evenodd" stroke="none"/>
    <path d="M10.3 21.5 L10.05 19.55 9.95 19.0 9.95 18.85 9.8 17.85 9.75 17.55 9.5 16.55 Q9.35 16.7 9.15 17.85 L9.25 18.9 9.3 19.9 9.5 22.35 9.55 22.9 Q9.55 26.3 8.15 29.55 L7.7 29.15 Q6.9 29.15 6.45 32.15 L6.2 35.15 Q6.2 36.5 6.95 38.2 5.65 37.05 5.1 37.05 4.6 37.05 4.6 37.55 L4.8 38.5 5.35 39.75 4.65 39.75 Q3.6 38.85 2.95 38.55 1.3 37.7 -0.9 37.7 -2.85 37.7 -3.55 39.0 L-4.3 40.85 Q-4.25 40.45 -4.35 40.25 -4.45 39.9 -5.0 39.9 L-5.45 40.1 Q-6.05 40.6 -6.4 42.4 L-6.75 46.2 -6.8 46.2 -7.95 44.5 Q-8.75 43.25 -9.45 43.25 -9.8 43.25 -9.8 43.7 L-9.7 43.9 Q-10.7 44.8 -11.7 47.2 L-13.8 46.35 -13.8 45.9 Q-13.7 44.1 -14.0 42.35 L-13.95 40.9 Q-13.05 36.9 -11.45 33.45 -11.7 36.7 -10.95 39.8 L-10.65 41.0 Q-10.9 39.05 -9.6 37.95 L-6.9 35.3 -5.95 34.2 -4.45 31.85 Q-2.5 27.5 -2.65 22.7 -1.6 24.6 -1.9 26.95 L-2.05 28.2 Q-1.55 28.0 -1.05 27.2 L-0.2 25.25 0.15 23.3 Q0.35 19.7 -0.1 16.25 -0.75 11.05 -0.35 5.75 L0.15 3.75 0.85 6.05 1.1 6.75 Q1.45 7.35 1.25 8.05 2.55 6.2 4.2 4.45 5.35 3.15 5.8 1.45 L6.2 0.2 Q7.1 -2.7 7.3 -5.8 L7.6 -13.05 Q8.2 -10.5 8.25 -7.8 8.25 -6.9 8.4 -6.25 9.15 -6.3 9.35 -7.2 L9.95 -9.75 11.0 -13.4 12.5 -17.1 Q15.3 -23.1 20.4 -27.3 L24.9 -31.0 26.0 -31.85 26.75 -27.9 27.1 -23.6 Q27.1 -17.75 24.9 -11.55 L23.4 -7.9 19.5 1.35 Q16.5 8.35 14.7 13.75 13.35 18.0 10.3 21.5 M-8.5 -2.5 L-7.15 -3.45 -4.15 -5.95 -4.1 -5.95 -3.95 -5.9 -4.0 -5.55 -4.8 -2.4 Q-5.2 -0.8 -6.5 0.1 L-9.25 2.6 -11.15 4.2 Q-10.65 2.85 -10.5 1.45 L-10.35 0.5 -10.25 -0.6 -8.4 -1.05 Q-6.0 -1.85 -6.0 -3.05 L-6.0 -3.3 -6.15 -3.4 -6.35 -3.4 -8.5 -2.5 M-9.7 26.95 L-9.75 26.75 -9.65 26.9 Q-8.3 28.55 -7.6 30.55 L-7.55 31.05 -7.85 31.6 -8.05 31.85 -8.6 32.7 -8.7 32.75 Q-8.55 31.95 -8.8 31.05 L-9.7 27.0 -9.7 26.95 M-4.4 7.15 L-3.65 5.15 Q-3.85 8.55 -3.3 11.9 L-2.9 13.95 -2.7 15.7 Q-2.75 16.8 -3.2 17.85 L-3.75 18.65 Q-5.5 20.15 -5.75 22.6 L-5.85 22.6 Q-5.7 20.8 -6.05 19.1 L-6.0 18.35 -5.95 17.4 Q-5.7 13.35 -5.05 9.4 L-4.4 7.15 M-0.5 33.2 L-0.55 32.9 -0.75 32.8 -1.45 33.55 -1.95 34.55 -1.85 34.9 -1.35 35.0 -0.85 34.1 Q-0.5 33.55 -0.5 33.2 M-1.6 31.8 L-1.65 31.85 -1.95 31.75 Q-2.5 31.75 -2.95 32.45 -3.35 33.05 -3.35 33.4 L-3.3 33.8 -3.0 33.8 -1.55 32.05 -1.6 31.8" fill="#cca9a9" fill-rule="evenodd" stroke="none"/>
    <path d="M-19.25 44.5 L-19.35 44.15 -19.45 43.85 -19.55 43.65 Q-20.0 42.35 -20.35 42.35 -20.75 42.35 -21.4 43.1 L-22.25 44.0 -22.25 43.95 Q-19.8 35.95 -19.8 34.6 -19.8 34.15 -20.3 34.15 -20.65 34.15 -21.1 34.75 L-21.75 35.5 -21.75 35.45 Q-21.05 31.95 -21.05 31.3 -21.05 30.3 -21.95 25.9 -22.85 21.5 -22.85 18.25 -22.85 15.2 -21.45 10.1 -21.45 8.75 -22.35 10.25 -23.1 11.55 -24.05 14.05 L-24.05 12.8 -23.85 11.9 Q-23.8 11.45 -24.0 11.3 L-23.9 9.75 -23.75 6.1 Q-23.7 3.6 -23.45 2.45 L-22.35 -1.25 -22.4 -1.55 -22.8 -1.8 Q-23.2 -1.8 -23.8 -0.35 L-24.0 -0.4 -21.25 -7.9 -19.25 -12.8 Q-15.5 -21.75 -15.5 -23.2 -15.5 -23.8 -15.8 -23.8 -15.9 -24.0 -16.15 -24.0 L-17.55 -23.0 Q-19.2 -22.05 -20.7 -21.75 L-20.7 -21.8 Q-17.5 -25.1 -16.3 -29.35 L-15.05 -32.65 -13.55 -35.35 -12.15 -37.0 -12.2 -37.2 Q-12.3 -37.4 -12.65 -37.4 L-13.5 -37.0 -15.85 -36.7 Q-13.95 -37.45 -8.25 -40.05 -2.2 -42.9 -2.2 -43.15 -2.2 -43.6 -2.65 -43.6 L-3.25 -43.4 -4.45 -43.2 -5.4 -43.25 -5.4 -43.3 -2.95 -43.95 0.65 -44.5 5.85 -43.85 7.45 -43.2 7.8 -43.3 7.9 -43.65 7.35 -44.5 Q6.75 -45.5 6.55 -46.55 L9.15 -43.35 Q11.1 -41.4 12.75 -41.4 L12.9 -41.3 12.85 -41.4 13.0 -41.45 13.1 -41.55 13.15 -41.9 13.0 -43.25 Q12.9 -43.95 13.25 -44.95 L14.3 -43.0 14.55 -42.65 Q15.7 -40.9 16.6 -40.9 L17.35 -42.4 Q17.95 -44.2 18.25 -44.6 L18.3 -44.55 Q18.3 -41.65 18.9 -40.45 19.2 -39.75 19.7 -39.6 L19.95 -39.6 20.25 -39.75 20.4 -39.5 Q17.65 -38.3 15.45 -36.2 14.7 -35.45 14.1 -34.55 10.95 -29.55 9.95 -24.2 L9.7 -23.4 9.65 -23.05 Q9.4 -22.45 9.25 -23.8 L8.9 -26.05 8.7 -27.2 8.65 -27.95 Q7.4 -22.45 3.5 -17.95 2.7 -17.0 2.2 -15.75 1.25 -13.4 1.4 -10.85 0.85 -13.15 0.95 -15.75 L0.95 -18.35 0.95 -20.65 Q0.1 -17.55 -0.15 -14.3 -0.4 -11.6 0.1 -8.95 0.95 -4.35 0.75 0.4 L-2.3 -6.5 -3.85 -10.65 Q-4.75 -6.15 -8.6 -3.7 -10.25 -2.65 -11.95 -1.7 L-10.65 -3.4 -10.05 -4.35 Q-8.4 -6.8 -8.4 -7.3 L-8.6 -7.9 -8.7 -7.95 -8.7 -7.9 -9.2 -7.0 Q-10.45 -4.85 -12.25 -3.05 L-14.0 -1.15 -13.9 -0.75 -13.85 -0.7 -13.8 -0.65 -12.75 -0.4 -12.65 -0.4 -11.55 -0.45 -11.85 0.2 Q-13.0 3.0 -11.7 6.0 -10.65 8.5 -9.95 10.95 L-9.5 12.75 -9.65 12.75 -11.7 10.3 -12.25 9.75 -12.65 9.45 -12.45 10.6 -12.05 12.8 -11.55 15.2 Q-11.3 15.85 -11.3 16.6 L-10.95 23.35 Q-10.8 24.65 -10.8 26.0 L-10.9 27.5 -10.0 26.75 -9.7 26.95 Q-10.75 28.15 -11.25 29.75 L-13.45 36.4 Q-13.8 37.35 -14.25 37.8 L-15.2 38.8 Q-17.65 41.4 -19.1 44.55 L-19.25 44.5 M-11.15 -30.6 L-11.1 -30.3 -10.3 -30.25 -7.5 -30.6 -13.5 -21.6 -13.35 -21.35 -13.25 -21.4 Q-12.05 -22.2 -11.15 -23.85 L-9.65 -26.5 -7.15 -29.55 -5.55 -31.65 -6.0 -32.05 -8.0 -31.35 Q-7.1 -31.95 -6.25 -32.65 L-5.0 -34.05 -3.0 -36.85 Q-3.7 -36.95 -4.75 -35.7 L-6.2 -33.9 -7.7 -32.65 Q-9.25 -31.5 -11.15 -30.6 M-1.7 -28.9 L-1.65 -28.9 -1.6 -29.55 -1.7 -28.9 M-19.55 10.9 L-18.05 5.95 -17.45 3.1 -17.4 2.9 -17.25 0.65 Q-17.25 0.05 -17.4 -0.25 -18.05 0.8 -18.35 2.75 L-18.9 5.75 -19.9 8.95 -20.75 12.05 Q-21.0 12.7 -20.25 12.7 L-19.35 12.05 -18.7 11.5 -18.5 11.25 -18.45 11.3 -19.65 16.3 -19.2 19.0 -19.05 18.95 Q-17.55 13.75 -17.0 11.1 -16.65 9.5 -16.65 8.8 L-16.75 8.45 Q-16.85 8.3 -17.1 8.3 L-19.45 11.0 -19.55 10.9 M-18.15 23.5 L-18.6 23.5 -18.9 29.9 Q-18.9 30.55 -18.15 31.1 L-17.85 30.8 -17.85 23.8 -18.15 23.5 M-16.05 29.3 L-16.35 27.5 Q-17.45 27.65 -17.0 29.3 L-16.8 32.6 -16.35 32.65 -16.1 31.85 -15.9 30.95 -16.05 29.3" fill="url(#gradient0)" fill-rule="evenodd" stroke="none"/>
  </g>
  <defs>
    <radialGradient cx="0" cy="0" gradientTransform="matrix(0.03, -0.052, 0.0191, 0.011, -11.9, -24.85)" gradientUnits="userSpaceOnUse" id="gradient0" r="819.2" spreadMethod="pad">
      <stop offset="0.47843137254901963" stop-color="#ffffff"></stop>
      <stop offset="0.8823529411764706" stop-color="#f2eaea"></stop>
    </radialGradient>
  </defs>
</svg>