<?xml version="1.0" encoding="UTF-8" standalone="no"?>
<svg xmlns:xlink="http://www.w3.org/1999/xlink" height="8.35px" width="20.45px" xmlns="http://www.w3.org/2000/svg">
  <g transform="matrix(1.0, 0.0, 0.0, 1.0, 8.9, 4.15)">
    <path d="M-7.8 -1.1 L-7.25 -2.65 -0.3 -3.15 7.45 -2.55 8.35 -2.2 Q10.5 -1.25 10.55 0.05 10.55 1.35 8.4 2.25 L7.45 2.65 -0.25 3.2 -5.1 3.05 -5.2 3.05 -6.3 2.0 -6.4 1.95 -6.25 1.35 -6.8 0.55 -7.8 -1.1" fill="#768536" fill-rule="evenodd" stroke="none"/>
    <path d="M-6.45 2.0 L-7.9 0.95 -7.9 -1.2 -7.8 -1.1 -6.8 0.55 -6.25 1.35 -6.4 1.95 -6.45 2.0" fill="#566127" fill-rule="evenodd" stroke="none"/>
    <path d="M-7.8 -1.1 L-7.25 -2.65 -0.3 -3.15 7.45 -2.55 8.35 -2.2 Q10.5 -1.25 10.55 0.05 10.55 1.35 8.4 2.25 L7.45 2.65 -0.25 3.2 -5.1 3.05 -5.2 3.05 -6.3 2.0 -6.45 2.0 -7.9 0.95 -7.9 -1.2 -7.8 -1.1 -6.8 0.55 -6.25 1.35 -6.4 1.95 -6.3 2.0 M-6.4 1.95 L-6.45 2.0" fill="none" stroke="#5a662b" stroke-linecap="round" stroke-linejoin="round" stroke-width="1"/>
  </g>
</svg>