<?xml version="1.0" encoding="UTF-8" standalone="no"?>
<svg xmlns:xlink="http://www.w3.org/1999/xlink" height="18.35px" width="22px" xmlns="http://www.w3.org/2000/svg">
  <g transform="matrix(1.0, 0.0, 0.0, 1.0, 10.95, 9.15)">
    <path d="M7.1 -1.7 Q7.6 -1.7 7.6 -1.25 7.6 -0.8 7.15 -0.8 L6.85 -0.85 6.95 -0.3 Q6.95 0.25 6.25 0.25 L5.55 0.05 5.5 -0.2 Q5.5 -0.7 6.25 -1.0 L6.7 -1.0 6.65 -1.05 6.55 -1.3 Q6.55 -1.7 7.1 -1.7 M5.3 1.6 Q5.0 1.6 4.65 1.25 L4.35 0.8 Q4.35 0.25 5.2 0.15 6.0 0.1 6.0 0.85 6.0 1.6 5.3 1.6 M2.55 2.45 L2.4 2.25 Q2.4 1.75 3.45 1.4 4.45 1.1 4.45 2.0 L4.15 2.6 3.4 2.85 3.0 2.75 3.05 3.15 2.8 3.8 2.1 4.25 Q1.4 4.25 1.4 3.4 1.4 2.7 2.25 2.5 2.75 2.4 2.95 2.65 L2.55 2.45 M0.55 4.95 Q0.25 5.3 -0.2 5.3 L-0.85 5.0 -1.05 4.55 Q-1.05 3.95 -0.1 3.75 0.8 3.55 0.8 4.4 L0.55 4.95 M-2.0 5.05 Q-1.3 5.05 -1.3 5.95 -1.3 6.75 -2.25 6.75 -3.1 6.75 -3.0 5.9 -3.0 5.05 -2.0 5.05 M-5.2 6.8 Q-5.05 6.2 -4.25 6.2 -3.5 6.2 -3.5 6.8 -3.5 7.8 -4.6 7.8 L-4.8 7.8 Q-4.95 8.2 -5.65 8.2 L-6.3 7.7 Q-6.3 6.9 -5.55 6.8 L-5.2 6.8" fill="#ffffff" fill-rule="evenodd" stroke="none"/>
    <path d="M7.1 -1.7 Q7.6 -1.7 7.6 -1.25 7.6 -0.8 7.15 -0.8 L6.85 -0.85 6.95 -0.3 Q6.95 0.25 6.25 0.25 L5.55 0.05 5.5 -0.2 Q5.5 -0.7 6.25 -1.0 L6.7 -1.0 6.65 -1.05 6.55 -1.3 Q6.55 -1.7 7.1 -1.7 M5.3 1.6 Q5.0 1.6 4.65 1.25 L4.35 0.8 Q4.35 0.25 5.2 0.15 6.0 0.1 6.0 0.85 6.0 1.6 5.3 1.6 M2.55 2.45 L2.4 2.25 Q2.4 1.75 3.45 1.4 4.45 1.1 4.45 2.0 L4.15 2.6 3.4 2.85 3.0 2.75 3.05 3.15 2.8 3.8 2.1 4.25 Q1.4 4.25 1.4 3.4 1.4 2.7 2.25 2.5 2.75 2.4 2.95 2.65 L2.55 2.45 M0.55 4.95 Q0.25 5.3 -0.2 5.3 L-0.85 5.0 -1.05 4.55 Q-1.05 3.95 -0.1 3.75 0.8 3.55 0.8 4.4 L0.55 4.95 M-2.0 5.05 Q-1.3 5.05 -1.3 5.95 -1.3 6.75 -2.25 6.75 -3.1 6.75 -3.0 5.9 -3.0 5.05 -2.0 5.05 M-5.2 6.8 Q-5.05 6.2 -4.25 6.2 -3.5 6.2 -3.5 6.8 -3.5 7.8 -4.6 7.8 L-4.8 7.8 Q-4.95 8.2 -5.65 8.2 L-6.3 7.7 Q-6.3 6.9 -5.55 6.8 L-5.2 6.8 Z" fill="none" stroke="#666666" stroke-linecap="round" stroke-linejoin="round" stroke-width="1"/>
    <path d="M7.5 -6.9 Q9.05 -6.1 10.05 -4.55 L8.1 -2.05 6.35 0.0 6.05 0.3 5.75 0.6 5.65 0.6 5.7 0.65 5.2 1.1 4.65 1.6 2.3 3.35 0.6 4.3 -1.35 5.35 -1.4 5.4 -1.7 5.5 -4.65 7.2 Q-7.2 8.85 -9.9 7.8 L-9.9 5.15 -9.5 2.25 -9.15 1.05 -9.15 1.0 -9.05 0.8 -9.0 0.65 -8.6 -0.35 -8.5 -0.5 -7.35 -2.6 -6.65 -3.65 -6.15 -4.3 -6.25 -4.15 -6.35 -3.35 Q-6.4 -0.85 -5.35 -0.85 -4.6 -0.85 -4.15 -1.55 L-3.65 -1.3 -4.05 -1.0 -4.45 -0.15 -4.2 0.55 Q-3.85 1.0 -3.05 1.0 -2.4 1.0 -2.0 0.5 -1.7 0.1 -1.7 -0.3 L-1.7 -0.9 -1.55 -0.95 -0.8 -1.55 Q-0.25 -2.1 -0.25 -2.35 L-0.3 -2.9 Q3.25 -3.35 3.25 -4.95 4.35 -4.9 5.05 -5.65 L5.15 -5.75 5.25 -5.65 Q5.5 -5.1 6.2 -5.1 6.65 -5.1 7.2 -5.45 7.8 -5.85 7.8 -6.25 L7.5 -6.9 M3.9 -3.4 Q3.75 -2.5 5.05 -2.5 5.7 -2.5 6.1 -2.9 L6.4 -3.6 Q6.4 -4.8 5.15 -4.5 3.9 -4.2 3.9 -3.4 M4.4 -1.15 Q3.85 -1.15 3.85 -0.65 3.85 -0.15 4.45 -0.15 4.9 -0.15 4.9 -0.65 4.9 -1.15 4.4 -1.15 M1.35 -1.0 L1.35 -1.05 1.35 -1.0 M0.35 -1.55 Q0.6 -0.15 1.55 -0.15 L1.6 -0.15 Q2.65 -0.15 2.65 -1.35 2.75 -2.45 1.5 -2.45 0.6 -2.45 0.4 -2.05 L0.35 -1.55 M-6.1 -0.35 Q-6.1 -1.9 -7.4 -1.2 L-8.35 -0.45 -8.7 0.4 Q-8.65 1.25 -7.6 1.25 -6.85 1.25 -6.4 0.55 -6.1 0.1 -6.1 -0.35 M-1.6 -1.15 L-1.65 -1.15 -1.65 -1.2 -1.6 -1.15 M-5.0 3.1 Q-4.65 2.8 -4.65 2.45 -4.65 1.45 -5.6 1.7 -6.55 1.9 -6.55 2.65 -6.55 3.4 -5.75 3.4 -5.35 3.4 -5.0 3.1 M-1.25 1.55 Q-1.2 2.3 -0.5 2.3 -0.25 2.3 -0.05 2.05 L0.1 1.7 Q0.1 1.0 -0.55 0.95 -1.25 0.85 -1.25 1.55" fill="#768536" fill-rule="evenodd" stroke="none"/>
    <path d="M5.25 -7.7 L5.3 -7.65 5.65 -6.9 6.5 -7.1 7.5 -6.9 7.8 -6.25 Q7.8 -5.85 7.2 -5.45 6.65 -5.1 6.2 -5.1 5.5 -5.1 5.25 -5.65 L5.2 -5.8 5.15 -5.75 5.05 -5.65 Q4.35 -4.9 3.25 -4.95 3.25 -3.35 -0.3 -2.9 L-0.25 -2.35 Q-0.25 -2.1 -0.8 -1.55 L-1.55 -0.95 -1.7 -0.9 -1.7 -0.3 Q-1.7 0.1 -2.0 0.5 -2.4 1.0 -3.05 1.0 -3.85 1.0 -4.2 0.55 L-4.45 -0.15 -4.05 -1.0 -3.65 -1.3 -4.15 -1.55 Q-4.6 -0.85 -5.35 -0.85 -6.4 -0.85 -6.35 -3.35 L-6.25 -4.15 -6.15 -4.3 -6.1 -4.35 -6.05 -4.45 -5.7 -4.8 -5.7 -4.85 -4.3 -6.15 -3.75 -6.55 -3.35 -6.75 -2.55 -7.2 -1.95 -7.45 -1.3 -7.7 2.3 -8.15 4.6 -7.9 5.25 -7.7 M0.35 -1.55 L0.4 -2.05 Q0.6 -2.45 1.5 -2.45 2.75 -2.45 2.65 -1.35 2.65 -0.15 1.6 -0.15 L1.55 -0.15 Q0.6 -0.15 0.35 -1.55 M1.35 -1.0 L1.35 -1.05 1.35 -1.0 M4.4 -1.15 Q4.9 -1.15 4.9 -0.65 4.9 -0.15 4.45 -0.15 3.85 -0.15 3.85 -0.65 3.85 -1.15 4.4 -1.15 M3.9 -3.4 Q3.9 -4.2 5.15 -4.5 6.4 -4.8 6.4 -3.6 L6.1 -2.9 Q5.7 -2.5 5.05 -2.5 3.75 -2.5 3.9 -3.4 M-6.1 -0.35 Q-6.1 0.1 -6.4 0.55 -6.85 1.25 -7.6 1.25 -8.65 1.25 -8.7 0.4 L-8.35 -0.45 -7.4 -1.2 Q-6.1 -1.9 -6.1 -0.35 M-1.6 -1.15 L-1.65 -1.2 -1.65 -1.15 -1.6 -1.15 M-1.25 1.55 Q-1.25 0.85 -0.55 0.95 0.1 1.0 0.1 1.7 L-0.05 2.05 Q-0.25 2.3 -0.5 2.3 -1.2 2.3 -1.25 1.55 M-5.0 3.1 Q-5.35 3.4 -5.75 3.4 -6.55 3.4 -6.55 2.65 -6.55 1.9 -5.6 1.7 -4.65 1.45 -4.65 2.45 -4.65 2.8 -5.0 3.1" fill="#b0b035" fill-rule="evenodd" stroke="none"/>
    <path d="M5.25 -7.7 L5.3 -7.7 6.4 -7.4 7.15 -7.1 7.5 -6.9 6.5 -7.1 5.65 -6.9 5.3 -7.65 5.25 -7.7 M5.25 -5.65 L5.15 -5.75 5.2 -5.8 5.25 -5.65" fill="#5e8833" fill-rule="evenodd" stroke="none"/>
    <path d="M5.75 0.6 L5.7 0.65 5.65 0.6 5.75 0.6 M-5.7 -4.8 L-5.7 -4.85 -5.7 -4.8" fill="#398231" fill-rule="evenodd" stroke="none"/>
    <path d="M10.05 -4.55 Q8.45 -7.05 5.3 -7.7 L4.6 -7.9 -1.3 -7.7 Q-4.2 -6.8 -6.05 -4.45 -7.6 -2.55 -8.6 -0.35 -9.8 2.25 -9.9 5.15 L-9.9 7.8 Q-7.2 8.85 -4.65 7.2 L-1.7 5.5 0.6 4.3 Q2.75 3.25 4.65 1.6 6.45 0.0 8.1 -2.05 L10.05 -4.55 Z" fill="none" stroke="#5a662b" stroke-linecap="round" stroke-linejoin="round" stroke-width="1"/>
  </g>
</svg>