<?xml version="1.0" encoding="UTF-8" standalone="no"?>
<svg xmlns:xlink="http://www.w3.org/1999/xlink" height="13.85px" width="20.65px" xmlns="http://www.w3.org/2000/svg">
  <g transform="matrix(1.0, 0.0, 0.0, 1.0, 11.75, 8.85)">
    <path d="M1.9 -7.15 L1.95 -7.15 2.7 -7.3 4.6 -6.85 4.75 -6.8 5.3 -6.45 5.75 -5.9 5.75 -5.85 6.3 -5.0 6.4 -4.75 6.45 -4.7 6.6 -4.35 7.05 -3.95 7.1 -3.95 7.7 -3.95 Q8.1 -2.95 7.7 -1.9 L7.7 -1.75 7.7 -1.7 7.65 -1.7 7.2 -1.65 6.1 -1.65 Q5.75 -1.65 5.5 -1.45 L5.15 -0.9 Q5.05 -0.55 5.2 -0.25 5.65 0.85 4.9 1.9 L4.85 1.95 Q4.25 2.85 3.35 3.05 L3.25 3.1 3.25 3.15 3.2 3.15 1.45 2.95 0.65 2.45 0.1 2.25 Q-0.2 2.25 -0.4 2.4 L-0.45 2.4 -0.85 2.8 -1.0 3.15 -3.15 3.1 Q-3.75 3.1 -4.05 3.5 L-3.95 3.45 -4.1 3.55 -4.15 3.6 -4.25 3.85 Q-5.2 4.25 -6.05 3.5 L-6.9 2.75 Q-7.15 2.45 -7.5 2.45 L-8.15 2.6 -8.9 3.05 -9.15 2.85 -10.05 2.15 -10.15 1.95 -10.15 1.45 Q-9.85 1.15 -9.85 0.75 -9.85 0.35 -10.1 0.05 L-10.65 -0.6 -10.7 -0.65 -10.75 -1.0 -10.55 -1.75 -10.1 -2.5 -8.45 -3.25 -8.0 -3.65 -8.0 -3.6 -7.85 -4.25 -8.1 -4.8 -8.05 -4.75 -7.65 -5.75 Q-7.1 -6.65 -5.8 -6.25 L-5.2 -6.25 -4.7 -6.55 -4.75 -6.55 -4.35 -6.95 -4.15 -7.15 -4.1 -7.15 -3.7 -7.4 -3.65 -7.45 -3.6 -7.5 Q-3.25 -7.75 -2.75 -7.8 L-2.65 -7.8 -2.1 -7.85 -2.0 -7.8 -1.45 -7.5 -1.4 -7.45 -1.35 -7.4 -1.35 -7.45 -1.35 -7.7 -1.0 -7.25 -1.35 -7.4 -1.05 -6.75 Q-0.75 -6.45 -0.35 -6.45 L0.85 -6.85 0.9 -6.9 1.0 -6.95 1.9 -7.15" fill="url(#gradient0)" fill-rule="evenodd" stroke="none"/>
  </g>
  <defs>
    <radialGradient cx="0" cy="0" gradientTransform="matrix(0.0148, 0.0, 0.0, 0.0148, -5.35, -6.4)" gradientUnits="userSpaceOnUse" id="gradient0" r="819.2" spreadMethod="pad">
      <stop offset="0.0" stop-color="#ffffff"></stop>
      <stop offset="1.0" stop-color="#ffffff" stop-opacity="0.0"></stop>
    </radialGradient>
  </defs>
</svg>