<?xml version="1.0" encoding="UTF-8" standalone="no"?>
<svg xmlns:xlink="http://www.w3.org/1999/xlink" height="8.9px" width="7.9px" xmlns="http://www.w3.org/2000/svg">
  <g transform="matrix(1.0, 0.0, 0.0, 1.0, 3.95, 4.45)">
    <path d="M-2.8 0.15 L-2.55 -0.8 -2.25 -1.5 -1.85 -1.85 -1.65 -1.95 -1.55 -1.9 -1.3 -1.65 -1.15 -1.4 -1.0 -1.2 -1.0 -1.25 -1.05 -1.45 -0.9 -1.95 -0.75 -2.25 -0.55 -2.65 Q-0.3 -3.3 0.3 -3.4 L1.35 -3.4 2.15 -3.0 2.5 -2.5 2.7 -1.95 2.35 -1.3 1.4 -0.45 Q0.15 0.2 -1.65 0.2 L-2.8 0.15 M2.1 0.0 L2.2 0.0 2.25 0.0 2.55 0.05 Q3.05 0.5 2.95 1.2 L2.95 1.3 2.75 1.55 1.8 1.85 Q0.85 1.85 0.85 1.2 0.85 0.85 1.25 0.45 1.6 0.05 2.1 0.0" fill="#faf8f8" fill-rule="evenodd" stroke="none"/>
    <path d="M-2.8 0.15 L-1.65 0.2 Q0.15 0.2 1.4 -0.45 L2.35 -1.3 2.7 -1.95 2.75 -1.0 2.7 -0.65 2.55 -0.55 2.6 -0.5 2.1 0.0 Q1.6 0.05 1.25 0.45 0.85 0.85 0.85 1.2 0.85 1.85 1.8 1.85 L2.75 1.55 2.95 1.3 2.7 2.05 2.25 2.8 1.55 3.3 -0.15 3.2 -0.5 2.95 -0.75 2.7 -0.9 2.65 -1.4 2.85 -2.05 2.75 -2.2 2.6 -2.6 2.25 Q-3.0 1.75 -2.95 1.05 L-2.9 0.65 -2.85 0.6 -2.8 0.15" fill="#d6baba" fill-rule="evenodd" stroke="none"/>
    <path d="M2.7 -0.65 L2.6 -0.5 2.55 -0.55 2.7 -0.65" fill="#fdfcfc" fill-rule="evenodd" stroke="none"/>
    <path d="M2.7 -1.95 L2.5 -2.5 2.15 -3.0 1.35 -3.4 0.3 -3.4 Q-0.3 -3.3 -0.55 -2.65 L-0.75 -2.25 -0.9 -1.95 -1.05 -1.45 -1.0 -1.25 -1.0 -1.2 -1.15 -1.4 -1.3 -1.65 -1.55 -1.9 -1.65 -1.95 -1.85 -1.85 -2.25 -1.5 -2.55 -0.8 -2.8 0.15 -2.85 0.6 M2.7 -1.95 L2.75 -1.0 2.7 -0.65 2.6 -0.5 2.1 0.0 2.2 0.0 M2.25 0.0 L2.55 0.05 Q3.05 0.5 2.95 1.2 L2.95 1.3 2.7 2.05 2.25 2.8 1.55 3.3 -0.15 3.2 -0.5 2.95 -0.75 2.7 -0.9 2.65 -1.4 2.85 -2.05 2.75 -2.2 2.6 -2.6 2.25 Q-3.0 1.75 -2.95 1.05 L-2.9 0.65" fill="none" stroke="#a36a6a" stroke-linecap="round" stroke-linejoin="round" stroke-width="1"/>
  </g>
</svg>