<?xml version="1.0" encoding="UTF-8" standalone="no"?>
<svg xmlns:xlink="http://www.w3.org/1999/xlink" height="18.85px" width="12.35px" xmlns="http://www.w3.org/2000/svg">
  <g transform="matrix(1.0, 0.0, 0.0, 1.0, 9, 9.3)">
    <path d="M-7.8 3.5 Q-8.6 -0.5 -6.2 -4.3 L-5.1 -5.9 -4.25 -6.9 -4.75 -6.25 -5.0 -5.8 Q-5.9 -4.4 -5.9 -3.7 L-5.75 -3.15 Q-5.15 -0.95 -2.9 -0.95 L-2.3 -1.0 -2.3 -0.95 -2.95 3.35 -3.0 3.5 Q-4.15 4.45 -5.0 4.45 L-6.7 4.25 -7.05 4.0 Q-7.3 3.5 -7.75 3.5 L-7.8 3.5 M-2.4 -8.2 L-2.0 -8.3 -2.0 -8.25 -2.4 -8.2" fill="#faf8f8" fill-rule="evenodd" stroke="none"/>
    <path d="M-1.3 8.3 L-2.55 8.55 Q-5.0 8.45 -6.3 7.0 L-6.7 6.5 -7.05 5.9 -7.45 4.9 -7.45 4.8 -7.65 4.1 -7.8 3.5 -7.75 3.5 Q-7.3 3.5 -7.05 4.0 L-6.7 4.25 -5.0 4.45 Q-4.15 4.45 -3.0 3.5 L-2.45 7.0 -2.35 7.3 -1.3 8.3 M-4.25 -6.9 L-2.4 -8.2 -2.0 -8.25 -2.0 -8.3 -0.1 -7.7 1.6 -6.55 -1.5 -2.8 -1.15 -3.15 -1.35 -2.75 -1.5 -2.8 Q-3.9 -3.45 -5.0 -5.8 L-4.75 -6.25 -4.25 -6.9" fill="#d6baba" fill-rule="evenodd" stroke="none"/>
    <path d="M1.6 -6.55 L2.1 -5.95 2.35 -4.9 1.35 -3.9 0.85 -3.15 0.2 -2.5 -1.35 -2.75 -1.15 -3.15 -1.5 -2.8 1.6 -6.55 M-2.15 3.25 L-0.8 7.0 Q-0.4 7.55 -0.05 7.7 -0.2 8.05 -0.7 8.15 L-1.3 8.3 -2.35 7.3 -2.45 7.0 -3.0 3.5 -2.95 3.35 -2.15 3.25" fill="#d6baba" fill-opacity="0.49803922" fill-rule="evenodd" stroke="none"/>
    <path d="M-1.1 -1.2 L-2.15 3.25 -2.95 3.35 -2.3 -0.95 -1.1 -1.2" fill="#faf8f8" fill-opacity="0.49803922" fill-rule="evenodd" stroke="none"/>
    <path d="M-5.0 -5.8 Q-3.9 -3.45 -1.5 -2.8 L-1.35 -2.75 -2.3 -1.0 -2.9 -0.95 Q-5.15 -0.95 -5.75 -3.15 L-5.9 -3.7 Q-5.9 -4.4 -5.0 -5.8" fill="#e6d5d5" fill-rule="evenodd" stroke="none"/>
    <path d="M0.2 -2.5 L-1.1 -1.2 -2.3 -0.95 -2.3 -1.0 -1.35 -2.75 0.2 -2.5" fill="#e6d5d5" fill-opacity="0.49803922" fill-rule="evenodd" stroke="none"/>
    <path d="M-1.3 8.3 L-2.55 8.55 Q-5.0 8.45 -6.3 7.0 L-6.7 6.5 -7.05 5.9 -7.45 4.9 -7.45 4.8 -7.65 4.1 -7.8 3.5 Q-8.6 -0.5 -6.2 -4.3 L-5.1 -5.9 -4.25 -6.9 -2.4 -8.2 -2.0 -8.3" fill="none" stroke="#a36a6a" stroke-linecap="round" stroke-linejoin="round" stroke-width="1"/>
  </g>
</svg>