<?xml version="1.0" encoding="UTF-8" standalone="no"?>
<svg xmlns:xlink="http://www.w3.org/1999/xlink" height="13.05px" width="17.35px" xmlns="http://www.w3.org/2000/svg">
  <g transform="matrix(1.0, 0.0, 0.0, 1.0, 13.7, 5.8)">
    <path d="M0.25 -1.55 L0.25 -1.6 0.35 -1.65 0.3 -1.6 0.25 -1.55 M2.05 -3.4 L2.1 -3.4 2.05 -3.4 M-6.9 1.05 L-6.9 1.0 -6.9 1.05 M-3.45 -1.5 L-3.4 -1.45 -3.4 -1.4 -3.4 -1.45 -3.45 -1.5" fill="#faf8f8" fill-rule="evenodd" stroke="none"/>
    <path d="M-4.4 -3.4 L-3.45 -2.5 -3.4 -2.45 -3.45 -2.45 -3.4 -2.4 -3.65 -2.3 Q-4.0 -2.3 -4.3 -2.55 L-4.55 -3.0 -4.4 -3.4 M-3.1 -2.3 L-0.75 -1.35 Q-1.35 -1.05 -1.7 -1.05 -2.45 -1.05 -2.8 -1.55 L-2.9 -1.7 -3.1 -2.3" fill="#950c0c" fill-rule="evenodd" stroke="none"/>
    <path d="M-4.4 -3.8 Q-4.25 -3.15 -1.1 -2.3 L0.25 -2.1 0.45 -2.1 0.6 -2.35 1.1 -3.35 1.05 -3.75 0.55 -4.4 0.95 -4.25 1.25 -4.1 1.35 -4.05 1.45 -4.0 1.65 -3.85 2.05 -3.4 2.1 -3.4 Q2.75 -2.55 2.65 -1.4 2.55 -0.55 2.0 0.05 L1.15 0.75 0.4 1.1 -1.0 1.3 -1.4 1.4 -1.55 1.45 -2.85 2.1 -5.35 3.8 Q-6.7 3.9 -8.4 5.05 L-10.4 6.15 -10.95 6.25 Q-12.15 4.85 -12.15 1.65 L-12.1 1.5 Q-12.65 0.9 -12.7 0.05 L-11.95 0.25 -10.95 -0.6 -10.9 -0.55 -11.05 0.1 -11.1 0.5 -11.05 1.0 -10.95 1.2 -10.45 1.4 -7.65 1.05 -6.9 1.05 -6.9 1.0 -6.05 0.5 -6.05 0.45 -6.0 0.25 -5.95 0.1 -5.7 0.0 Q-5.25 -0.05 -3.8 -0.85 L-3.75 -1.05 -4.3 -2.1 -5.0 -2.65 -3.85 -2.1 -3.0 -1.65 -2.8 -1.55 Q-2.45 -1.05 -1.7 -1.05 -1.35 -1.05 -0.75 -1.35 L-3.1 -2.3 -3.4 -2.4 -3.45 -2.45 -3.4 -2.45 -3.45 -2.5 -4.4 -3.4 -4.5 -3.5 -4.4 -3.8 M0.25 -1.55 L-0.25 -1.3 -0.7 -1.35 -0.75 -1.35 -0.7 -1.35 -0.25 -1.3 0.25 -1.55 0.3 -1.6 0.35 -1.65 0.25 -1.6 0.25 -1.55 M-8.15 -0.25 Q-8.1 -0.8 -7.4 -0.8 L-6.9 -0.9 -6.75 -0.65 -6.9 -0.45 -8.0 0.05 -8.15 -0.15 -8.15 -0.25 M-3.45 -1.5 L-3.4 -1.45 -3.4 -1.4 -3.4 -1.45 -3.45 -1.5 M-12.1 1.5 L-11.2 2.15 Q-8.15 3.85 -4.7 2.5 L-4.1 2.25 -3.4 1.8 -1.55 1.45 -3.4 1.8 -4.1 2.25 -4.7 2.5 Q-8.15 3.85 -11.2 2.15 L-12.1 1.5" fill="#3c1414" fill-rule="evenodd" stroke="none"/>
    <path d="M0.95 -4.25 L0.55 -4.4 1.05 -3.75 1.1 -3.35 0.6 -2.35 0.45 -2.1 0.25 -2.1 -1.1 -2.3 Q-4.25 -3.15 -4.4 -3.8 L-4.4 -4.0 -4.05 -4.35 -4.0 -4.4 -3.8 -4.5 -2.45 -4.75 -2.0 -4.8 -0.15 -4.65 0.95 -4.25 M-4.5 -3.5 L-4.4 -3.4 -4.55 -3.0 -4.3 -2.55 Q-4.0 -2.3 -3.65 -2.3 L-3.4 -2.4 -3.1 -2.3 -2.9 -1.7 -2.8 -1.55 -3.0 -1.65 -3.85 -2.1 -5.0 -2.65 -4.3 -2.1 -3.75 -1.05 -3.8 -0.85 Q-5.25 -0.05 -5.7 0.0 L-5.95 0.1 -6.0 0.25 -6.05 0.45 -6.05 0.5 -6.9 1.0 -6.9 1.05 -7.65 1.05 -10.45 1.4 -10.95 1.2 -11.05 1.0 -11.1 0.5 -11.05 0.1 -10.9 -0.55 -10.95 -0.6 -11.95 0.25 -12.7 0.05 -12.7 -0.05 -12.6 -0.7 -11.85 -1.85 -11.75 -2.45 -11.55 -2.9 Q-10.65 -3.7 -9.7 -3.2 L-9.55 -3.25 -8.85 -3.25 -7.4 -3.25 -6.4 -3.25 -4.5 -3.5 M-9.7 -3.2 L-10.9 -2.6 -11.85 -1.85 -10.9 -2.6 -9.7 -3.2 M-8.0 -1.65 Q-7.0 -1.75 -6.45 -1.3 -5.9 -0.7 -5.95 0.1 -5.9 -0.7 -6.45 -1.3 -7.0 -1.75 -8.0 -1.65 M-8.15 -0.25 L-8.15 -0.15 -8.0 0.05 -6.9 -0.45 -6.75 -0.65 -6.9 -0.9 -7.4 -0.8 Q-8.1 -0.8 -8.15 -0.25 M-1.95 -3.9 L-2.3 -4.1 Q-3.0 -4.1 -3.15 -3.55 -3.0 -4.1 -2.3 -4.1 L-1.95 -3.9 M-0.2 -3.9 Q-0.2 -4.3 -0.75 -4.3 L-1.15 -4.0 -0.75 -4.3 Q-0.2 -4.3 -0.2 -3.9" fill="#692a2a" fill-rule="evenodd" stroke="none"/>
    <path d="M-4.4 -3.4 L-3.45 -2.5 M-3.1 -2.3 L-0.75 -1.35 Q-1.35 -1.05 -1.7 -1.05 -2.45 -1.05 -2.8 -1.55 L-2.9 -1.7 -3.1 -2.3 M-4.4 -3.4 L-4.55 -3.0 -4.3 -2.55 Q-4.0 -2.3 -3.65 -2.3 L-3.4 -2.4" fill="none" stroke="#ff0000" stroke-linecap="round" stroke-linejoin="round" stroke-width="1"/>
    <path d="M0.95 -4.25 L-0.15 -4.65 -2.0 -4.8 -2.45 -4.75 -3.8 -4.5 -4.0 -4.4 -4.05 -4.35 -4.4 -4.0 -4.4 -3.8 -4.5 -3.5 -4.4 -3.4 M-3.4 -2.45 L-3.45 -2.45 M-3.4 -2.4 L-3.1 -2.3 M-0.75 -1.35 L-0.7 -1.35 -0.25 -1.3 0.25 -1.55 0.3 -1.6 0.35 -1.65 M0.95 -4.25 L1.25 -4.1 1.35 -4.05 1.45 -4.0 1.65 -3.85 2.05 -3.4 2.1 -3.4 Q2.75 -2.55 2.65 -1.4 2.55 -0.55 2.0 0.05 L1.15 0.75 0.4 1.1 -1.0 1.3 -1.4 1.4 -1.55 1.45 -2.85 2.1 -5.35 3.8 Q-6.7 3.9 -8.4 5.05 L-10.4 6.15 -10.95 6.25 Q-12.15 4.85 -12.15 1.65 L-12.1 1.5 Q-12.65 0.9 -12.7 0.05 L-12.7 -0.05 -12.6 -0.7 -11.85 -1.85 -11.75 -2.45 -11.55 -2.9 Q-10.65 -3.7 -9.7 -3.2 L-9.55 -3.25 -8.85 -3.25 -7.4 -3.25 -6.4 -3.25 -4.5 -3.5 M-11.85 -1.85 L-10.9 -2.6 -9.7 -3.2 M-6.9 1.05 L-6.9 1.0 -6.05 0.5 -6.05 0.45 -6.0 0.25 -5.95 0.1 Q-5.9 -0.7 -6.45 -1.3 -7.0 -1.75 -8.0 -1.65 M-1.15 -4.0 L-0.75 -4.3 Q-0.2 -4.3 -0.2 -3.9 M-3.15 -3.55 Q-3.0 -4.1 -2.3 -4.1 L-1.95 -3.9 M-1.55 1.45 L-3.4 1.8 -4.1 2.25 -4.7 2.5 Q-8.15 3.85 -11.2 2.15 L-12.1 1.5" fill="none" stroke="#000000" stroke-linecap="round" stroke-linejoin="round" stroke-width="1"/>
  </g>
</svg>