<?xml version="1.0" encoding="UTF-8" standalone="no"?>
<svg xmlns:xlink="http://www.w3.org/1999/xlink" height="26.15px" width="12.2px" xmlns="http://www.w3.org/2000/svg">
  <g transform="matrix(1.0, 0.0, 0.0, 1.0, 1, 1)">
    <path d="M7.35 23.75 L7.7 21.45 7.75 21.25 7.6 21.05 7.5 20.65 7.5 21.4 7.3 21.45 Q7.0 21.45 6.95 21.1 L6.95 20.75 Q6.95 20.0 7.3 20.0 7.8 20.0 7.85 20.85 L8.15 19.35 7.95 17.95 Q7.95 17.25 8.3 17.25 L8.4 17.3 8.4 16.85 8.05 13.8 7.95 13.85 7.65 13.65 7.55 13.35 7.55 12.7 7.9 12.75 7.8 11.95 6.8 7.2 6.0 5.55 5.8 5.7 Q5.5 5.7 5.45 5.5 L5.3 5.1 4.75 4.95 4.65 4.6 4.5 4.05 4.15 3.45 4.15 3.2 4.8 3.65 4.0 2.6 3.7 3.2 3.5 3.25 3.1 3.1 2.95 2.9 3.0 2.9 2.85 2.5 2.9 2.35 2.85 2.25 2.95 2.25 2.7 1.8 2.7 1.4 2.35 1.1 2.35 1.2 2.1 1.45 1.7 1.35 1.6 1.1 Q1.65 0.95 2.0 0.95 L2.1 1.0 Q1.2 0.35 0.15 0.0 L0.0 0.0 Q4.25 -0.25 7.3 4.75 10.2 9.5 10.2 15.9 10.2 18.4 9.4 21.0 8.7 23.2 7.95 24.15 L7.35 23.75 M5.15 4.25 L5.35 4.6 5.6 4.75 5.8 4.7 5.85 4.4 5.55 3.95 5.2 4.05 5.15 4.25 M8.05 8.9 L8.1 8.6 8.0 8.0 Q7.8 7.6 7.55 7.7 L7.55 8.35 7.6 8.75 7.95 8.95 8.05 8.9 M4.5 2.4 L4.6 2.3 4.55 2.05 4.3 2.1 Q4.15 2.25 4.5 2.4 M4.1 1.45 L3.95 1.45 3.95 1.8 4.0 1.95 4.15 1.95 4.15 1.55 4.1 1.45 M6.9 7.9 L6.9 8.55 6.8 8.6 6.4 8.1 6.25 7.65 Q6.25 6.6 6.9 7.9 M6.8 10.25 Q6.8 9.7 7.1 9.5 L7.3 10.1 6.95 10.4 6.8 10.25 M9.35 15.25 L9.1 15.25 9.15 16.4 9.3 16.45 9.45 16.4 9.45 15.65 9.35 15.25 M8.45 11.9 L8.45 12.25 8.5 12.45 8.75 12.55 8.85 12.45 8.8 12.05 Q8.75 11.85 8.45 11.9 M7.4 17.5 L7.65 17.45 7.7 17.55 7.65 17.85 7.45 18.05 7.25 18.0 7.25 17.65 7.4 17.5 M9.0 18.8 L8.95 18.85 8.95 19.25 9.15 19.3 9.4 19.1 9.0 18.8" fill="#ffffcc" fill-rule="evenodd" stroke="none"/>
    <path d="M5.15 4.25 L5.2 4.05 5.55 3.95 5.85 4.4 5.8 4.7 5.6 4.75 5.35 4.6 5.15 4.25 M0.15 0.0 Q1.2 0.35 2.1 1.0 L2.0 0.95 Q1.65 0.95 1.6 1.1 L1.7 1.35 2.1 1.45 2.35 1.2 2.35 1.1 2.7 1.4 2.7 1.8 2.95 2.25 2.85 2.25 2.9 2.35 2.85 2.5 3.0 2.9 2.95 2.9 3.1 3.1 3.5 3.25 3.7 3.2 4.0 2.6 4.8 3.65 4.15 3.2 4.15 3.45 4.5 4.05 4.65 4.6 4.75 4.95 5.3 5.1 5.45 5.5 Q5.5 5.7 5.8 5.7 L6.0 5.55 6.8 7.2 7.8 11.95 7.9 12.75 7.55 12.7 7.55 13.35 7.65 13.65 7.95 13.85 8.05 13.8 8.4 16.85 8.4 17.3 8.3 17.25 Q7.95 17.25 7.95 17.95 L8.15 19.35 7.85 20.85 Q7.8 20.0 7.3 20.0 6.95 20.0 6.95 20.75 L6.95 21.1 Q7.0 21.45 7.3 21.45 L7.5 21.4 7.5 20.65 7.6 21.05 7.75 21.25 7.7 21.45 7.35 23.75 2.4 20.05 2.45 19.9 4.15 16.45 Q4.95 14.2 4.95 11.25 4.95 6.8 2.85 3.5 L0.6 0.5 0.5 0.4 0.25 0.1 0.15 0.0 M4.1 1.45 L4.15 1.55 4.15 1.95 4.0 1.95 3.95 1.8 3.95 1.45 4.1 1.45 M4.5 2.4 Q4.15 2.25 4.3 2.1 L4.55 2.05 4.6 2.3 4.5 2.4 M8.05 8.9 L7.95 8.95 7.6 8.75 7.55 8.35 7.55 7.7 Q7.8 7.6 8.0 8.0 L8.1 8.6 8.05 8.9 M6.8 10.25 L6.95 10.4 7.3 10.1 7.1 9.5 Q6.8 9.7 6.8 10.25 M6.9 7.9 Q6.25 6.6 6.25 7.65 L6.4 8.1 6.8 8.6 6.9 8.55 6.9 7.9 M8.45 11.9 Q8.75 11.85 8.8 12.05 L8.85 12.45 8.75 12.55 8.5 12.45 8.45 12.25 8.45 11.9 M9.35 15.25 L9.45 15.65 9.45 16.4 9.3 16.45 9.15 16.4 9.1 15.25 9.35 15.25 M7.4 17.5 L7.25 17.65 7.25 18.0 7.45 18.05 7.65 17.85 7.7 17.55 7.65 17.45 7.4 17.5 M9.0 18.8 L9.4 19.1 9.15 19.3 8.95 19.25 8.95 18.85 9.0 18.8" fill="#e0cca3" fill-rule="evenodd" stroke="none"/>
    <path d="M7.95 24.15 Q8.7 23.2 9.4 21.0 10.2 18.4 10.2 15.9 10.2 9.5 7.3 4.75 4.25 -0.25 0.0 0.0 L0.15 0.0 0.25 0.1 0.5 0.4 0.6 0.5 2.85 3.5 Q4.95 6.8 4.95 11.25 4.95 14.2 4.15 16.45 L2.45 19.9 2.4 20.05" fill="none" stroke="#a36a6a" stroke-linecap="round" stroke-linejoin="round" stroke-width="1"/>
  </g>
</svg>