<?xml version="1.0" encoding="UTF-8" standalone="no"?>
<svg xmlns:xlink="http://www.w3.org/1999/xlink" height="20.9px" width="12.65px" xmlns="http://www.w3.org/2000/svg">
  <g transform="matrix(1.0, 0.0, 0.0, 1.0, 3.2, 7.35)">
    <path d="M0.85 8.0 L0.9 8.05 0.85 8.05 0.85 8.0 M-0.35 8.15 L-0.65 8.35 -0.35 8.1 -0.35 8.15" fill="#faf8f8" fill-rule="evenodd" stroke="none"/>
    <path d="M2.45 -6.35 Q4.95 -3.3 7.45 0.55 L7.95 1.5 Q8.4 2.3 8.45 3.25 L8.45 4.6 8.3 5.95 8.1 6.65 8.0 6.95 8.05 7.75 8.0 8.65 7.85 9.35 7.2 10.75 Q6.65 11.75 5.55 12.0 L4.2 12.25 1.95 12.55 -0.55 11.95 -1.5 10.4 -2.05 9.2 Q-2.45 8.35 -1.9 7.45 L-1.25 6.4 -0.45 5.55 -0.65 4.0 -0.65 3.15 -0.7 1.95 -0.75 0.05 0.4 -2.75 Q1.15 -4.4 2.45 -6.35 M0.9 8.05 L0.85 8.0 0.85 8.05 0.9 8.05 M-0.35 8.15 L0.5 7.5 0.85 8.0 0.5 7.5 -0.35 8.15 -0.35 8.1 -0.65 8.35 -0.35 8.15 M-0.35 8.1 L-1.25 6.4 -0.35 8.1 M6.8 7.75 L8.0 6.95 6.8 7.75 M-1.45 8.9 L-0.65 8.35 -1.45 8.9 M-0.45 5.55 L0.5 7.5 -0.45 5.55" fill="#3c1414" fill-rule="evenodd" stroke="none"/>
    <path d="M2.45 -6.35 Q4.95 -3.3 7.45 0.55 L7.95 1.5 Q8.4 2.3 8.45 3.25 L8.45 4.6 8.3 5.95 8.1 6.65 8.0 6.95 8.05 7.75 8.0 8.65 7.85 9.35 7.2 10.75 Q6.65 11.75 5.55 12.0 L4.2 12.25 1.95 12.55 -0.55 11.95 -1.5 10.4 -2.05 9.2 Q-2.45 8.35 -1.9 7.45 L-1.25 6.4 -0.45 5.55 -0.65 4.0 -0.65 3.15 -0.7 1.95 -0.75 0.05 0.4 -2.75 Q1.15 -4.4 2.45 -6.35 M0.85 8.0 L0.9 8.05 M0.85 8.0 L0.5 7.5 -0.35 8.15 -0.65 8.35 -1.45 8.9 M8.0 6.95 L6.8 7.75 M-1.25 6.4 L-0.35 8.1 -0.35 8.15 M0.5 7.5 L-0.45 5.55" fill="none" stroke="#000000" stroke-linecap="round" stroke-linejoin="round" stroke-width="1"/>
  </g>
</svg>