<?xml version="1.0" encoding="UTF-8" standalone="no"?>
<svg xmlns:xlink="http://www.w3.org/1999/xlink" height="15.95px" width="14.05px" xmlns="http://www.w3.org/2000/svg">
  <g transform="matrix(1.0, 0.0, 0.0, 1.0, 1, 1)">
    <path d="M11.55 10.5 L11.25 10.3 Q10.6 9.85 10.3 9.05 L10.3 8.95 10.1 8.3 10.1 8.2 10.1 8.15 10.05 8.05 9.15 6.2 8.35 5.0 8.15 4.35 7.85 3.8 7.45 3.55 7.5 3.5 7.1 3.0 6.95 2.6 6.85 2.5 6.3 2.4 6.7 2.8 6.45 2.75 6.45 2.9 6.55 3.0 5.9 2.6 5.95 2.65 Q5.95 2.8 5.7 2.8 5.45 2.8 5.2 2.6 L5.1 2.5 4.85 2.15 4.95 1.95 4.6 1.6 4.65 1.5 4.6 1.45 4.1 1.15 4.1 1.05 3.35 0.6 3.3 0.75 1.15 0.1 3.3 0.0 Q6.5 0.0 8.55 2.6 9.4 3.65 10.05 5.15 10.9 7.0 11.5 10.3 L11.55 10.5 M5.25 1.45 L5.35 1.3 5.05 1.0 4.9 1.1 4.7 0.95 4.65 0.95 Q4.75 1.45 5.25 1.45 M10.75 8.8 L10.35 7.8 10.25 8.0 10.45 8.55 10.65 8.9 10.75 8.8 M5.4 2.45 L5.05 2.15 5.3 2.45 5.4 2.45 M5.6 2.6 L5.75 2.6 5.5 2.55 5.6 2.6 M6.1 2.95 L6.25 3.35 6.2 3.45 5.95 3.4 5.95 2.95 6.1 2.95 M6.85 3.6 L7.2 4.05 7.5 4.5 7.5 4.55 Q7.05 4.4 6.95 4.25 L6.75 3.65 6.85 3.6 M6.5 4.0 L6.65 4.0 6.7 4.05 6.7 4.6 6.4 4.5 6.5 4.0 M8.1 3.7 L8.35 4.2 8.85 4.65 8.85 4.35 8.7 4.25 8.4 4.0 8.2 3.6 8.1 3.7 M8.15 5.95 L8.0 5.9 8.0 5.7 8.2 5.35 8.55 5.75 8.55 6.0 8.45 6.1 8.3 5.9 8.15 5.95 M9.45 6.15 L9.3 6.15 9.4 6.4 9.7 6.65 9.7 6.55 9.45 6.15 M9.25 7.45 L9.3 7.85 9.3 8.1 9.15 8.1 9.05 7.8 9.05 7.45 9.25 7.45 M8.7 8.55 L8.8 8.2 9.05 8.4 9.05 8.9 8.85 9.0 Q8.7 8.9 8.7 8.55" fill="#ffffcc" fill-rule="evenodd" stroke="none"/>
    <path d="M1.15 0.1 L3.3 0.75 3.35 0.6 4.1 1.05 4.1 1.15 4.6 1.45 4.65 1.5 4.6 1.6 4.95 1.95 4.85 2.15 5.1 2.5 5.2 2.6 Q5.45 2.8 5.7 2.8 5.95 2.8 5.95 2.65 L5.9 2.6 6.55 3.0 6.45 2.9 6.45 2.75 6.7 2.8 6.3 2.4 6.85 2.5 6.95 2.6 7.1 3.0 7.5 3.5 7.45 3.55 7.85 3.8 8.15 4.35 8.35 5.0 9.15 6.2 10.05 8.05 10.1 8.15 10.1 8.2 10.1 8.3 10.3 8.95 10.3 9.05 Q10.6 9.85 11.25 10.3 L11.55 10.5 12.05 13.95 6.9 12.75 7.15 11.7 7.35 10.3 7.35 9.7 Q7.35 6.0 4.8 3.25 L4.15 2.6 Q2.05 0.7 0.0 0.15 L1.15 0.1 M10.75 8.8 L10.65 8.9 10.45 8.55 10.25 8.0 10.35 7.8 10.75 8.8 M5.25 1.45 Q4.75 1.45 4.65 0.95 L4.7 0.95 4.9 1.1 5.05 1.0 5.35 1.3 5.25 1.45 M6.5 4.0 L6.4 4.5 6.7 4.6 6.7 4.05 6.65 4.0 6.5 4.0 M6.85 3.6 L6.75 3.65 6.95 4.25 Q7.05 4.4 7.5 4.55 L7.5 4.5 7.2 4.05 6.85 3.6 M6.1 2.95 L5.95 2.95 5.95 3.4 6.2 3.45 6.25 3.35 6.1 2.95 M5.6 2.6 L5.5 2.55 5.75 2.6 5.6 2.6 M5.4 2.45 L5.3 2.45 5.05 2.15 5.4 2.45 M8.1 3.7 L8.2 3.6 8.4 4.0 8.7 4.25 8.85 4.35 8.85 4.65 8.35 4.2 8.1 3.7 M8.15 5.95 L8.3 5.9 8.45 6.1 8.55 6.0 8.55 5.75 8.2 5.35 8.0 5.7 8.0 5.9 8.15 5.95 M9.45 6.15 L9.7 6.55 9.7 6.65 9.4 6.4 9.3 6.15 9.45 6.15 M8.7 8.55 Q8.7 8.9 8.85 9.0 L9.05 8.9 9.05 8.4 8.8 8.2 8.7 8.55 M9.25 7.45 L9.05 7.45 9.05 7.8 9.15 8.1 9.3 8.1 9.3 7.85 9.25 7.45" fill="#e0cca3" fill-rule="evenodd" stroke="none"/>
    <path d="M11.55 10.5 L11.5 10.3 Q10.9 7.0 10.05 5.15 9.4 3.65 8.55 2.6 6.5 0.0 3.3 0.0 L1.15 0.1 0.0 0.15 Q2.05 0.7 4.15 2.6 L4.8 3.25 Q7.35 6.0 7.35 9.7 L7.35 10.3 7.15 11.7 6.9 12.75 M12.05 13.95 L11.55 10.5" fill="none" stroke="#a36a6a" stroke-linecap="round" stroke-linejoin="round" stroke-width="1"/>
  </g>
</svg>