<?xml version="1.0" encoding="UTF-8" standalone="no"?>
<svg xmlns:xlink="http://www.w3.org/1999/xlink" height="11.8px" width="12.9px" xmlns="http://www.w3.org/2000/svg">
  <g transform="matrix(1.0, 0.0, 0.0, 1.0, 1, 1)">
    <path d="M5.3 0.8 L5.55 1.45 5.3 0.8 M5.65 0.6 L5.7 0.6 9.1 3.1 9.4 3.45 10.9 5.0 7.65 3.35 7.95 7.2 6.15 4.6 5.5 6.9 4.35 9.8 4.25 9.75 Q3.75 9.1 3.0 6.55 2.3 4.1 2.3 3.35 L2.3 3.1 2.25 3.1 0.2 5.4 0.0 5.6 0.8 3.3 Q1.35 2.1 1.95 1.25 3.15 -0.15 4.75 0.05 L5.65 0.6 M5.55 1.45 L5.9 2.25 5.95 2.4 6.25 3.65 4.7 2.2 4.8 3.2 4.75 3.75 4.6 5.05 4.15 4.25 4.2 4.5 4.9 6.35 5.0 6.6 5.05 6.4 5.4 3.95 5.25 3.4 5.3 3.4 6.95 4.2 6.95 4.1 6.4 2.7 6.3 2.5 5.55 1.45 M3.4 2.8 L3.65 3.35 4.15 4.25 3.65 3.35 3.4 2.8" fill="#faf8f8" fill-rule="evenodd" stroke="none"/>
    <path d="M4.15 4.25 L4.6 5.05 4.75 3.75 4.8 3.2 4.7 2.2 6.25 3.65 5.95 2.4 5.9 2.25 5.55 1.45 6.3 2.5 6.4 2.7 6.95 4.1 6.95 4.2 5.3 3.4 5.25 3.4 5.4 3.95 5.05 6.4 5.0 6.6 4.9 6.35 4.2 4.5 4.15 4.25" fill="#d6baba" fill-rule="evenodd" stroke="none"/>
    <path d="M5.55 1.45 L5.3 0.8 M5.7 0.6 L9.1 3.1 M9.4 3.45 L10.9 5.0 7.65 3.35 7.95 7.2 6.15 4.6 5.5 6.9 4.35 9.8 4.25 9.75 Q3.75 9.1 3.0 6.55 2.3 4.1 2.3 3.35 L2.3 3.1 2.25 3.1 0.2 5.4 0.0 5.6 0.8 3.3 Q1.35 2.1 1.95 1.25 M4.75 0.05 L5.65 0.6 M4.15 4.25 L4.6 5.05 4.75 3.75 4.8 3.2 4.7 2.2 6.25 3.65 5.95 2.4 5.9 2.25 5.55 1.45 M4.15 4.25 L3.65 3.35 3.4 2.8" fill="none" stroke="#a36a6a" stroke-linecap="round" stroke-linejoin="round" stroke-width="1"/>
  </g>
</svg>