<?xml version="1.0" encoding="UTF-8" standalone="no"?>
<svg xmlns:xlink="http://www.w3.org/1999/xlink" height="12.3px" width="18.35px" xmlns="http://www.w3.org/2000/svg">
  <g transform="matrix(1.0, 0.0, 0.0, 1.0, 9.35, 5.95)">
    <path d="M-3.55 2.0 L-3.55 1.9 -3.5 2.0 -3.55 2.0 M-4.2 4.6 L-4.25 4.6 -4.75 4.4 -4.2 4.6" fill="#d6baba" fill-rule="evenodd" stroke="none"/>
    <path d="M2.45 5.35 L1.95 2.15 1.35 -1.15 0.6 -4.45 3.7 -4.95 4.95 -3.7 8.0 0.45 7.6 2.6 Q7.1 4.0 5.4 4.7 L2.45 5.35 M-5.25 4.2 Q-4.05 3.4 -3.55 2.0 L-3.5 2.0 -2.6 3.15 -1.4 5.25 -4.2 4.6 -4.75 4.4 -5.25 4.2" fill="#124d87" fill-rule="evenodd" stroke="none"/>
    <path d="M0.6 -4.45 L1.35 -1.15 1.95 2.15 2.45 5.35 -1.05 5.35 -1.25 5.25 -1.4 5.25 -2.6 3.15 -3.5 2.0 -3.55 1.9 -3.55 2.0 Q-4.05 3.4 -5.25 4.2 L-6.0 3.95 -7.3 2.9 -8.35 1.45 -6.25 -0.7 -4.2 -2.5 -1.85 -3.45 0.6 -4.45" fill="#3e83b0" fill-rule="evenodd" stroke="none"/>
    <path d="M2.45 5.35 L5.4 4.7 Q7.1 4.0 7.6 2.6 L8.0 0.45 4.95 -3.7 3.7 -4.95 0.6 -4.45 -1.85 -3.45 -4.2 -2.5 -6.25 -0.7 -8.35 1.45 -7.3 2.9 -6.0 3.95 -5.25 4.2 -4.75 4.4 -4.2 4.6 -1.4 5.25 -1.25 5.25 -1.05 5.35 2.45 5.35 Z" fill="none" stroke="#660000" stroke-linecap="round" stroke-linejoin="round" stroke-opacity="0.4" stroke-width="1"/>
  </g>
</svg>