<?xml version="1.0" encoding="UTF-8" standalone="no"?>
<svg xmlns:xlink="http://www.w3.org/1999/xlink" height="17.4px" width="21.45px" xmlns="http://www.w3.org/2000/svg">
  <g transform="matrix(1.0, 0.0, 0.0, 1.0, 10.15, 9.85)">
    <path d="M6.15 -2.8 L4.8 -1.75 4.4 -1.4 3.3 -0.55 1.7 0.95 Q0.85 2.05 0.0 2.6 0.1 1.75 1.5 -0.9 L1.75 -1.4 2.4 -2.65 6.15 -2.8 M-2.4 -4.7 L-3.2 -3.8 -4.8 -1.95 -5.25 -1.4 -5.3 -1.35 Q-6.05 -0.35 -8.35 1.35 -7.3 -0.35 -6.45 -2.2 L-6.15 -3.0 -6.05 -3.35 -9.1 -1.7 -8.35 -2.5 -7.55 -3.65 -5.9 -6.45 -5.05 -7.95 -4.6 -8.75 -2.75 -5.2 -2.4 -4.7" fill="#d0a237" fill-rule="evenodd" stroke="none"/>
    <path d="M2.4 -2.65 L1.75 -1.4 1.5 -0.9 Q0.1 1.75 0.0 2.6 0.85 2.05 1.7 0.95 L3.3 -0.55 4.4 -1.4 4.8 -1.75 6.15 -2.8 2.4 -2.65 1.3 -2.65 0.3 -2.8 Q-1.35 -3.3 -2.4 -4.7 -1.35 -3.3 0.3 -2.8 L1.3 -2.65 2.4 -2.65 M-8.35 1.35 Q-6.05 -0.35 -5.3 -1.35 L-5.25 -1.4 -4.8 -1.95 -3.2 -3.8 -2.4 -4.7 -2.75 -5.2 -4.6 -8.75 -4.6 -8.8 -3.05 -8.85 Q-0.55 -8.85 6.7 -5.75 L9.35 -4.05 10.25 -2.95 10.3 -2.95 10.25 -2.9 8.65 -1.7 8.35 -1.4 6.7 0.15 Q5.8 1.1 5.05 2.25 L3.2 4.7 4.7 0.35 4.45 0.5 0.85 2.65 Q-1.6 3.95 -2.45 5.1 L-3.5 6.55 -1.5 -0.3 -4.4 0.55 Q-6.9 1.45 -9.1 2.55 L-8.55 1.65 -8.35 1.35 M-0.7 -2.05 L-1.5 -0.3 -0.7 -2.05 M10.25 -2.9 L10.25 -2.95 6.15 -2.8 10.25 -2.95 10.25 -2.9" fill="#ac8428" fill-rule="evenodd" stroke="none"/>
    <path d="M2.4 -2.65 L1.3 -2.65 0.3 -2.8 Q-1.35 -3.3 -2.4 -4.7 L-2.75 -5.2 -4.6 -8.75 -4.6 -8.8 -3.05 -8.85 Q-0.55 -8.85 6.7 -5.75 L9.35 -4.05 10.25 -2.95 10.3 -2.95 10.25 -2.9 8.65 -1.7 8.35 -1.4 6.7 0.15 Q5.8 1.1 5.05 2.25 L3.2 4.7 4.7 0.35 4.45 0.5 0.85 2.65 Q-1.6 3.95 -2.45 5.1 L-3.5 6.55 -1.5 -0.3 -0.7 -2.05 M-8.35 1.35 L-8.55 1.65 -9.1 2.55 Q-6.9 1.45 -4.4 0.55 L-1.5 -0.3 M2.4 -2.65 L6.15 -2.8 10.25 -2.95 10.25 -2.9 M-4.6 -8.75 L-5.05 -7.95 -5.9 -6.45 -7.55 -3.65 -8.35 -2.5 -9.1 -1.7 -6.05 -3.35 -6.15 -3.0 -6.45 -2.2 Q-7.3 -0.35 -8.35 1.35 M-9.1 2.55 L-9.15 2.55 -9.1 2.55 Z" fill="none" stroke="#3b0101" stroke-linecap="round" stroke-linejoin="round" stroke-opacity="0.4" stroke-width="1"/>
  </g>
</svg>