<?xml version="1.0" encoding="UTF-8" standalone="no"?>
<svg xmlns:xlink="http://www.w3.org/1999/xlink" height="75.85px" width="77.7px" xmlns="http://www.w3.org/2000/svg">
  <g id="shape0" transform="matrix(1.0, 0.0, 0.0, 1.0, 1, 1)">
    <path d="M42.2 0.0 Q47.4 0.0 50.7 1.95 53.1 3.4 56.8 7.6 65.15 17.2 72.5 24.9 75.7 28.8 75.7 34.45 75.7 41.5 73.4 47.3 72.25 50.25 69.65 54.15 61.2 67.0 55.5 71.4 52.3 73.85 49.05 73.85 47.15 73.85 44.0 72.4 40.35 70.75 31.8 70.05 27.95 69.75 22.25 66.15 L17.05 62.5 Q14.4 61.15 7.05 50.05 0.0 39.3 0.0 37.7 0.0 33.6 4.0 25.1 L7.15 18.9 Q10.95 15.65 17.3 11.15 32.85 0.0 42.2 0.0" fill="#464646" fill-rule="evenodd" stroke="none"/>
  </g>
</svg>