<?xml version="1.0" encoding="UTF-8" standalone="no"?>
<svg xmlns:xlink="http://www.w3.org/1999/xlink" height="5.8px" width="5.5px" xmlns="http://www.w3.org/2000/svg">
  <g transform="matrix(1.0, 0.0, 0.0, 1.0, 2.7, 2.55)">
    <path d="M0.95 -1.3 L0.25 -1.25 -0.3 -1.55 0.05 -1.55 0.95 -1.3 M-0.6 2.2 L-0.6 2.15 -0.55 2.2 -0.3 2.25 -0.6 2.2 M1.8 0.3 L1.3 0.8 0.3 1.6 -0.25 1.6 -1.45 0.45 Q-0.35 -0.1 -0.3 -0.3 L1.7 -0.45 1.8 0.3" fill="#ffffff" fill-rule="evenodd" stroke="none"/>
    <path d="M0.95 -1.3 L1.1 -1.2 1.7 -0.45 -0.3 -0.3 Q-0.35 -0.1 -1.45 0.45 L-0.25 1.6 0.3 1.6 1.3 0.8 1.8 0.3 1.8 0.4 Q1.8 1.05 1.25 1.6 L0.2 2.25 0.0 2.25 -0.3 2.25 -0.55 2.2 -0.6 2.15 -0.6 2.2 -1.2 1.7 Q-1.7 1.05 -1.7 -0.05 -1.7 -1.25 -0.75 -1.5 L-0.7 -1.5 -0.6 -1.5 -0.55 -1.5 -0.3 -1.55 0.25 -1.25 0.95 -1.3" fill="#c7c9da" fill-rule="evenodd" stroke="none"/>
  </g>
</svg>