<?xml version="1.0" encoding="UTF-8" standalone="no"?>
<svg xmlns:xlink="http://www.w3.org/1999/xlink" height="3.4px" width="3.6px" xmlns="http://www.w3.org/2000/svg">
  <g id="shape0" transform="matrix(1.0, 0.0, 0.0, 1.0, 1.8, 1.7)">
    <path d="M0.8 -0.05 L0.8 0.2 0.8 0.25 Q0.6 0.7 0.1 0.7 L-0.4 0.65 -0.45 0.65 Q-0.8 0.45 -0.8 0.05 L-0.8 0.0 -0.6 -0.4 Q-0.4 -0.7 0.0 -0.7 0.8 -0.7 0.8 -0.05" fill="#330000" fill-rule="evenodd" stroke="none"/>
    <path d="M0.7 -0.05 L0.7 0.2 Q0.55 0.6 0.1 0.6 L-0.4 0.55 -0.7 0.05 -0.7 0.0 -0.55 -0.35 0.0 -0.6 Q0.7 -0.6 0.7 -0.05" fill="#a36a6a" fill-rule="evenodd" stroke="none"/>
  </g>
</svg>