<?xml version="1.0" encoding="UTF-8" standalone="no"?>
<svg xmlns:xlink="http://www.w3.org/1999/xlink" height="5.15px" width="4.85px" xmlns="http://www.w3.org/2000/svg">
  <g transform="matrix(1.0, 0.0, 0.0, 1.0, -3.55, 5.75)">
    <path d="M4.95 -3.85 L4.6 -4.5 6.05 -4.45 7.1 -4.2 7.25 -4.15 7.4 -3.85 7.35 -3.75 7.35 -3.3 7.35 -3.25 7.05 -2.4 6.6 -2.45 6.45 -2.9 6.8 -3.15 6.3 -3.15 6.1 -2.65 5.9 -2.55 5.25 -3.4 5.3 -3.55 5.15 -3.7 5.1 -3.9 4.95 -3.85" fill="#ffffcc" fill-rule="evenodd" stroke="none"/>
    <path d="M4.6 -4.5 L4.55 -4.55 5.0 -4.7 6.55 -4.45 7.1 -4.2 6.05 -4.45 4.6 -4.5 M7.35 -3.25 L7.2 -1.75 7.05 -1.6 Q6.4 -1.9 6.1 -2.35 L5.9 -2.55 6.1 -2.65 6.3 -3.15 6.8 -3.15 6.45 -2.9 6.6 -2.45 7.05 -2.4 7.35 -3.25 M5.25 -3.4 L4.95 -3.85 5.1 -3.9 5.15 -3.7 5.3 -3.55 5.25 -3.4" fill="#c9a97a" fill-rule="evenodd" stroke="none"/>
    <path d="M4.95 -3.85 L4.6 -4.5 4.55 -4.55 5.0 -4.7 6.55 -4.45 7.1 -4.2 M7.25 -4.15 L7.4 -3.85 7.35 -3.75 M7.35 -3.3 L7.35 -3.25 7.2 -1.75 7.05 -1.6 Q6.4 -1.9 6.1 -2.35 L5.9 -2.55 5.25 -3.4 4.95 -3.85" fill="none" stroke="#a36a6a" stroke-linecap="round" stroke-linejoin="round" stroke-width="1"/>
  </g>
</svg>