<?xml version="1.0" encoding="UTF-8" standalone="no"?>
<svg xmlns:xlink="http://www.w3.org/1999/xlink" height="14.2px" width="15.25px" xmlns="http://www.w3.org/2000/svg">
  <g id="shape0" transform="matrix(1.0, 0.0, 0.0, 1.0, 6.55, 7.25)">
    <path d="M7.2 -1.75 L7.05 -1.0 6.9 -0.35 6.8 -0.05 Q6.8 -0.9 6.25 -2.2 L5.45 -3.3 4.7 -4.05 Q4.4 -4.05 3.4 -4.7 L3.15 -4.7 3.15 -4.65 3.1 -4.6 3.3 -4.4 5.15 -2.95 6.25 -0.45 6.35 1.0 5.85 1.75 5.0 3.0 Q4.1 3.85 3.4 3.85 L3.0 3.8 2.7 2.6 Q1.85 0.95 1.35 0.95 L1.05 0.8 0.65 0.6 -1.0 0.2 -1.7 0.25 -3.3 0.95 -4.5 1.85 -4.6 1.85 -4.65 1.8 -4.7 1.65 Q-6.0 -1.4 -5.35 -2.85 -4.7 -4.35 -3.45 -5.35 -2.2 -6.4 0.2 -6.25 2.6 -6.1 4.7 -4.85 6.5 -3.75 7.2 -1.75 M-4.0 -2.5 Q-3.8 -1.0 -4.3 0.3 L-4.4 0.75 -4.5 1.15 -4.6 1.85 -4.5 1.15 -4.4 0.75 -4.3 0.3 Q-3.8 -1.0 -4.0 -2.5 M3.9 -2.75 Q3.55 -2.75 3.55 -2.55 L3.3 -1.9 3.15 -1.6 2.85 -1.05 2.5 -0.55 2.05 0.35 2.25 0.6 2.15 0.7 2.3 0.95 3.7 -0.05 3.95 -1.0 4.1 -2.4 3.9 -2.75 M1.45 -4.0 L1.2 -4.35 0.8 -3.7 -2.0 -0.4 Q-2.0 -0.15 -1.7 -0.15 L-1.2 -0.1 -0.9 -0.2 -0.7 -0.1 Q-0.4 -0.1 0.1 -0.4 L0.6 -0.85 1.0 -2.4 1.45 -4.0" fill="#faf8f8" fill-rule="evenodd" stroke="none"/>
    <path d="M3.0 3.8 L3.4 3.85 Q4.1 3.85 5.0 3.0 L5.85 1.75 6.35 1.0 6.25 -0.45 5.15 -2.95 3.3 -4.4 3.1 -4.6 3.15 -4.65 3.15 -4.7 3.4 -4.7 Q4.4 -4.05 4.7 -4.05 L5.45 -3.3 6.25 -2.2 Q6.8 -0.9 6.8 -0.05 L6.9 -0.35 7.05 -1.0 7.2 -1.75 7.4 -1.15 Q8.0 1.3 7.35 3.15 6.65 5.0 5.25 5.55 L3.45 5.9 3.05 5.85 2.8 5.8 2.75 5.7 2.7 5.7 2.7 5.6 2.95 5.0 3.1 4.6 3.0 3.8 M1.45 -4.0 L1.0 -2.4 0.6 -0.85 0.1 -0.4 Q-0.4 -0.1 -0.7 -0.1 L-0.9 -0.2 -1.2 -0.1 -1.7 -0.15 Q-2.0 -0.15 -2.0 -0.4 L0.8 -3.7 1.2 -4.35 1.45 -4.0 M3.9 -2.75 L4.1 -2.4 3.95 -1.0 3.7 -0.05 2.3 0.95 2.15 0.7 2.25 0.6 2.05 0.35 2.5 -0.55 2.85 -1.05 3.15 -1.6 3.3 -1.9 3.55 -2.55 Q3.55 -2.75 3.9 -2.75 M2.7 5.6 L2.75 5.7 2.7 5.6" fill="#d6baba" fill-rule="evenodd" stroke="none"/>
    <path d="M7.2 -1.75 Q6.5 -3.75 4.7 -4.85 2.6 -6.1 0.2 -6.25 -2.2 -6.4 -3.45 -5.35 -4.7 -4.35 -5.35 -2.85 -6.0 -1.4 -4.7 1.65 L-4.65 1.8 -4.6 1.9 -4.6 1.85 -4.5 1.15 -4.4 0.75 -4.3 0.3 Q-3.8 -1.0 -4.0 -2.5 M7.2 -1.75 L7.4 -1.15 Q8.0 1.3 7.35 3.15 6.65 5.0 5.25 5.55 L3.45 5.9 3.05 5.85 2.8 5.8 2.75 5.7 2.7 5.6" fill="none" stroke="#a36a6a" stroke-linecap="round" stroke-linejoin="round" stroke-width="1"/>
  </g>
</svg>