<?xml version="1.0" encoding="UTF-8" standalone="no"?>
<svg xmlns:xlink="http://www.w3.org/1999/xlink" height="8.5px" width="16.35px" xmlns="http://www.w3.org/2000/svg">
  <g transform="matrix(1.0, 0.0, 0.0, 1.0, 7.3, 8.6)">
    <path d="M0.2 -7.5 L1.85 -6.25 1.85 -6.05 0.7 -5.65 0.4 -5.6 0.45 -5.8 0.15 -6.25 0.4 -6.65 0.45 -6.25 Q0.5 -6.1 0.9 -6.1 1.15 -6.1 1.15 -6.45 L0.6 -7.2 0.2 -7.5 M-0.65 -5.5 L-1.2 -5.5 -1.15 -5.65 -0.95 -5.55 -0.75 -5.65 -0.65 -5.5 M-1.95 -5.55 L-2.0 -5.55 -1.9 -6.05 -0.8 -7.2 -0.3 -7.5 -1.1 -6.75 -1.95 -5.55 M6.15 -2.2 L6.15 -2.35 6.65 -2.35 6.15 -2.2 M7.95 -2.2 Q7.65 -1.45 6.85 -1.1 L6.45 -1.6 6.45 -1.65 6.85 -1.8 Q7.45 -1.8 7.95 -2.2 M-6.25 -3.8 L-6.05 -3.55 Q-5.8 -3.3 -5.6 -3.3 L-5.2 -3.15 -5.45 -2.85 -5.7 -2.55 -5.9 -2.8 -6.3 -3.8 -6.25 -3.8" fill="#c9a97a" fill-rule="evenodd" stroke="none"/>
    <path d="M-0.2 -7.6 L0.15 -7.55 0.2 -7.5 0.6 -7.2 1.15 -6.45 Q1.15 -6.1 0.9 -6.1 0.5 -6.1 0.45 -6.25 L0.4 -6.65 0.15 -6.25 0.45 -5.8 0.4 -5.6 -0.65 -5.5 -0.75 -5.65 -0.95 -5.55 -1.15 -5.65 -1.2 -5.5 -1.95 -5.55 -1.1 -6.75 -0.3 -7.5 -0.2 -7.6 M6.15 -2.2 L6.65 -2.35 8.05 -2.45 7.95 -2.2 Q7.45 -1.8 6.85 -1.8 L6.45 -1.65 6.45 -1.6 6.25 -1.9 6.15 -2.2 M-5.2 -3.15 L-5.6 -3.3 Q-5.8 -3.3 -6.05 -3.55 L-6.25 -3.8 -5.5 -3.8 -5.0 -3.55 -5.2 -3.15" fill="#ffffcc" fill-rule="evenodd" stroke="none"/>
    <path d="M-0.2 -7.6 L0.15 -7.55 0.2 -7.5 1.85 -6.25 1.85 -6.05 0.7 -5.65 0.4 -5.6 -0.65 -5.5 -1.2 -5.5 -1.95 -5.55 -2.0 -5.55 -1.9 -6.05 -0.8 -7.2 -0.3 -7.5 M6.65 -2.35 L6.15 -2.35 6.15 -2.2 M6.65 -2.35 L8.05 -2.45 7.95 -2.2 Q7.65 -1.45 6.85 -1.1 L6.45 -1.6 6.25 -1.9 M-6.25 -3.8 L-6.3 -3.8 -5.9 -2.8 -5.7 -2.55 -5.45 -2.85 -5.2 -3.15 -5.0 -3.55 -5.5 -3.8 -6.25 -3.8 Z" fill="none" stroke="#a36a6a" stroke-linecap="round" stroke-linejoin="round" stroke-width="1"/>
  </g>
</svg>