<?xml version="1.0" encoding="UTF-8" standalone="no"?>
<svg xmlns:xlink="http://www.w3.org/1999/xlink" height="13.5px" width="11.9px" xmlns="http://www.w3.org/2000/svg">
  <g transform="matrix(1.0, 0.0, 0.0, 1.0, 6.35, 6.5)">
    <path d="M-4.6 1.15 L-4.9 1.2 -5.0 1.15 -5.0 0.9 -4.8 0.4 -4.95 0.4 -5.25 0.5 -4.95 -0.1 -4.75 -0.45 -4.6 1.15" fill="#faf8f8" fill-rule="evenodd" stroke="none"/>
    <path d="M3.95 2.1 L3.95 1.95 4.0 2.05 3.95 2.1" fill="#d6baba" fill-rule="evenodd" stroke="none"/>
    <path d="M-4.75 -0.45 L-4.95 -0.1 -5.25 0.5 -4.95 0.4 -4.8 0.4 -5.0 0.9 -5.0 1.15 -4.9 1.2 -4.6 1.15 M-2.6 5.95 L-2.55 5.95 -2.6 6.0 -2.6 5.95 M4.0 2.05 L3.95 2.1" fill="none" stroke="#a36a6a" stroke-linecap="round" stroke-linejoin="round" stroke-width="1"/>
    <path d="M-2.35 -4.9 Q-2.25 -5.9 1.1 -5.2 2.75 -4.85 3.6 -3.95 L3.65 -3.6 Q3.65 -1.9 3.15 -1.0 2.6 0.0 0.7 1.35 -0.4 2.15 -1.4 3.6 L-2.6 4.55 Q-3.6 5.35 -3.6 5.65 L-3.55 5.8 -3.75 6.0 -4.9 5.2 -5.35 3.65 -5.1 2.65 -4.7 1.5 -4.6 0.3 -4.55 -1.0 Q-4.0 -3.9 -2.35 -4.9 M-3.5 3.55 L-3.3 3.15 -3.35 3.05 -3.9 3.6 -3.85 3.75 -3.5 3.55 M-4.55 3.05 L-4.6 2.9 Q-5.0 3.1 -5.0 3.45 L-4.95 3.7 Q-4.55 3.6 -4.55 3.05" fill="#faf8f8" fill-rule="evenodd" stroke="none"/>
    <path d="M3.6 -3.95 L3.8 -3.75 4.2 -3.1 Q4.55 -2.35 4.55 -1.4 L4.4 -0.25 3.85 0.65 Q3.85 1.7 2.5 2.25 0.65 3.05 0.35 3.4 L-1.2 5.0 Q-1.75 5.45 -2.45 5.55 L-3.05 5.6 -3.35 5.55 -3.55 5.8 -3.6 5.65 Q-3.6 5.35 -2.6 4.55 L-1.4 3.6 Q-0.4 2.15 0.7 1.35 2.6 0.0 3.15 -1.0 3.65 -1.9 3.65 -3.6 L3.6 -3.95 M-4.55 3.05 Q-4.55 3.6 -4.95 3.7 L-5.0 3.45 Q-5.0 3.1 -4.6 2.9 L-4.55 3.05 M-3.5 3.55 L-3.85 3.75 -3.9 3.6 -3.35 3.05 -3.3 3.15 -3.5 3.55 M-2.7 4.8 L-3.35 5.55 -2.7 4.8 -2.65 4.8 -2.65 4.75 -2.7 4.8" fill="#d6baba" fill-rule="evenodd" stroke="none"/>
    <path d="M3.85 0.65 Q3.85 1.7 2.5 2.25 0.65 3.05 0.35 3.4 L-1.2 5.0 Q-1.75 5.45 -2.45 5.55 L-3.05 5.6 -3.35 5.55 -3.55 5.8 -3.75 6.0 -4.9 5.2 -5.35 3.65 -5.1 2.65 -4.7 1.5 -4.6 0.3 -4.55 -1.0 Q-4.0 -3.9 -2.35 -4.9 M-3.35 5.55 L-2.7 4.8 -2.65 4.75 -2.65 4.8 -2.7 4.8" fill="none" stroke="#a36a6a" stroke-linecap="round" stroke-linejoin="round" stroke-width="1"/>
  </g>
</svg>