<?xml version="1.0" encoding="UTF-8" standalone="no"?>
<svg xmlns:xlink="http://www.w3.org/1999/xlink" height="7.9px" width="5.6px" xmlns="http://www.w3.org/2000/svg">
  <g id="shape0" transform="matrix(1.0, 0.0, 0.0, 1.0, 2.6, 3.1)">
    <path d="M1.95 -0.25 L1.75 -0.05 1.95 -0.25 1.9 -0.15 1.75 -0.05 1.55 0.55 1.45 2.45 Q1.45 3.8 -0.1 3.8 -1.6 3.8 -1.6 3.1 L-1.35 2.7 -1.15 2.35 -1.3 1.1 -1.2 0.65 -1.3 -0.55 -1.2 -1.15 -1.25 -1.3 -1.15 -1.45 -1.1 -1.7 Q-1.1 -2.1 0.3 -2.1 0.9 -2.1 1.5 -1.5 L2.0 -0.75 1.95 -0.25 M-1.2 -1.15 L-1.15 -1.45 -1.2 -1.15 M-0.6 2.85 Q-1.1 2.75 -1.1 2.95 L-0.85 3.3 0.0 3.5 Q0.6 3.5 0.6 3.15 L0.35 2.95 -0.6 2.85 M-1.0 1.6 Q-0.9 2.7 -0.4 2.7 L0.1 2.25 0.3 1.5 Q0.3 0.3 -0.2 0.3 L-0.55 0.4 Q-0.75 0.5 -0.75 0.55 L-1.0 1.6" fill="#d6baba" fill-rule="evenodd" stroke="none"/>
    <path d="M-1.0 1.6 L-0.75 0.55 Q-0.75 0.5 -0.55 0.4 L-0.2 0.3 Q0.3 0.3 0.3 1.5 L0.1 2.25 -0.4 2.7 Q-0.9 2.7 -1.0 1.6 M-0.6 2.85 L0.35 2.95 0.6 3.15 Q0.6 3.5 0.0 3.5 L-0.85 3.3 -1.1 2.95 Q-1.1 2.75 -0.6 2.85" fill="#faf8f8" fill-rule="evenodd" stroke="none"/>
    <path d="M1.75 -0.05 L1.95 -0.25 M-1.15 -1.45 L-1.2 -1.15 -1.3 -0.55 -1.2 0.65 -1.3 1.1 -1.15 2.35 -1.35 2.7 -1.6 3.1 Q-1.6 3.8 -0.1 3.8 1.45 3.8 1.45 2.45 L1.55 0.55 1.75 -0.05" fill="none" stroke="#a36a6a" stroke-linecap="round" stroke-linejoin="round" stroke-width="1"/>
  </g>
</svg>