<?xml version="1.0" encoding="UTF-8" standalone="no"?>
<svg xmlns:xlink="http://www.w3.org/1999/xlink" height="4.9px" width="6.5px" xmlns="http://www.w3.org/2000/svg">
  <g transform="matrix(1.0, 0.0, 0.0, 1.0, 5.55, 3.3)">
    <path d="M-4.45 -1.8 Q-4.2 -2.15 -3.15 -1.45 -1.8 -1.5 -2.0 -0.5 L-0.3 -0.1 -0.1 -0.05 Q-0.3 0.6 -1.15 0.6 L-1.65 0.55 -2.05 0.3 -2.1 0.25 Q-2.5 -0.05 -2.65 -0.75 L-3.0 -0.7 -3.15 -0.75 -3.25 -0.8 -3.3 -0.8 -3.65 -1.0 -3.7 -1.2 -3.65 -1.55 -4.2 -1.7 -4.45 -1.8" fill="#c9a97a" fill-rule="evenodd" stroke="none"/>
    <path d="M-4.45 -1.8 L-4.55 -2.0 Q-4.55 -2.3 -4.0 -2.3 L-3.35 -2.1 -2.9 -1.85 -2.3 -2.1 Q-2.0 -2.1 -1.65 -1.7 -1.3 -1.35 -1.3 -1.0 L-0.95 -1.2 -0.45 -1.0 -0.3 -0.95 -0.05 -0.75 -0.05 -0.55 -0.1 -0.05 -0.3 -0.1 -2.0 -0.5 Q-1.8 -1.5 -3.15 -1.45 -4.2 -2.15 -4.45 -1.8" fill="#ffffcc" fill-rule="evenodd" stroke="none"/>
    <path d="M-0.1 -0.05 L-0.05 -0.55 -0.05 -0.75 -0.3 -0.95 -0.45 -1.0 -0.95 -1.2 -1.3 -1.0 Q-1.3 -1.35 -1.65 -1.7 -2.0 -2.1 -2.3 -2.1 L-2.9 -1.85 -3.35 -2.1 -4.0 -2.3 Q-4.55 -2.3 -4.55 -2.0 L-4.45 -1.8 -4.2 -1.7 -3.65 -1.55 -3.7 -1.2 -3.65 -1.0 -3.3 -0.8 -3.25 -0.8 -3.15 -0.75 -3.0 -0.7 -2.65 -0.75 Q-2.5 -0.05 -2.1 0.25 L-2.05 0.3 -1.65 0.55 -1.15 0.6 Q-0.3 0.6 -0.1 -0.05 Z" fill="none" stroke="#a36a6a" stroke-linecap="round" stroke-linejoin="round" stroke-width="1"/>
  </g>
</svg>