<?xml version="1.0" encoding="UTF-8" standalone="no"?>
<svg xmlns:xlink="http://www.w3.org/1999/xlink" height="9.35px" width="15.6px" xmlns="http://www.w3.org/2000/svg">
  <g transform="matrix(1.0, 0.0, 0.0, 1.0, 7.5, 4.3)">
    <path d="M-4.25 -2.2 L-2.15 -1.0 5.55 -0.65 6.4 -0.7 Q7.05 0.3 7.1 1.25 L3.5 1.4 Q-0.8 1.4 -3.2 0.25 -5.05 -0.6 -5.5 -1.25 L-5.25 -1.5 -5.25 -1.55 -4.6 -2.2 -4.25 -2.2 M6.45 2.85 L6.0 3.05 5.75 3.0 5.7 2.95 6.45 2.85 M6.8 2.3 L6.8 2.25 6.85 2.25 6.8 2.3" fill="#b1da0c" fill-rule="evenodd" stroke="none"/>
    <path d="M-4.25 -2.2 L-4.6 -2.2 -4.55 -2.25 -4.5 -2.3 -4.25 -2.2" fill="#8cb50a" fill-rule="evenodd" stroke="none"/>
    <path d="M-5.5 -1.25 Q-5.05 -0.6 -3.2 0.25 -0.8 1.4 3.5 1.4 L7.1 1.25 7.1 1.35 6.85 2.25 6.8 2.25 6.8 2.3 6.65 2.6 6.45 2.85 5.7 2.95 1.9 3.15 Q-2.4 3.15 -5.95 1.15 L-6.5 0.8 -6.5 0.65 Q-6.3 -0.2 -5.5 -1.25" fill="#74a00a" fill-rule="evenodd" stroke="none"/>
    <path d="M6.4 -0.7 L5.55 -0.65 -2.15 -1.0 -4.25 -2.2 -4.5 -2.3 -4.55 -2.25 M6.45 2.85 L5.7 2.95 1.9 3.15 Q-2.4 3.15 -5.95 1.15 L-6.5 0.8 -6.5 0.65 M6.45 2.85 L6.65 2.6" fill="none" stroke="#660000" stroke-linecap="round" stroke-linejoin="round" stroke-opacity="0.4" stroke-width="1"/>
    <path d="M5.2 0.4 L5.8 -0.95 6.15 -1.5 M-0.8 0.05 L-0.15 -0.45 1.25 -1.6 1.9 -2.2 M-3.2 -0.3 L-3.2 -0.75 -2.65 -1.9 -1.85 -3.1 -1.65 -3.3 M-0.9 2.1 L-0.65 2.7 -0.1 3.5 0.35 4.05 M2.5 0.75 L3.85 1.65 5.05 2.5" fill="none" stroke="#660000" stroke-linecap="round" stroke-linejoin="round" stroke-opacity="0.6" stroke-width="1"/>
  </g>
</svg>