<?xml version="1.0" encoding="UTF-8" standalone="no"?>
<svg xmlns:xlink="http://www.w3.org/1999/xlink" height="13.8px" width="11.6px" xmlns="http://www.w3.org/2000/svg">
  <g transform="matrix(1.0, 0.0, 0.0, 1.0, 7, 6.65)">
    <path d="M2.55 -3.85 Q1.35 -3.75 0.55 -3.0 -0.45 -2.05 -1.3 -0.55 -2.3 1.4 -2.3 4.45 L-2.25 4.75 -1.35 4.55 -1.4 4.4 -0.7 4.05 -0.15 3.95 Q-1.35 4.7 -2.6 4.8 L-2.8 4.8 -3.0 4.5 -3.15 4.25 -3.55 3.35 -3.65 3.0 -3.8 1.35 Q-3.9 0.05 -3.15 -1.05 L-2.95 -1.5 -2.35 -2.5 -1.75 -3.2 -1.45 -3.55 -1.15 -3.8 Q-0.25 -4.55 0.8 -4.8 L1.35 -4.95 1.5 -4.85 2.2 -4.2 2.55 -3.85 M1.25 2.85 L1.25 2.7 1.3 2.6 1.35 2.75 1.25 2.85" fill="#b1da0c" fill-rule="evenodd" stroke="none"/>
    <path d="M1.3 2.6 L1.25 2.55 1.3 2.6" fill="#8cb50a" fill-rule="evenodd" stroke="none"/>
    <path d="M2.55 -3.85 L2.6 -3.85 3.2 -3.1 3.55 -2.6 3.6 -2.5 2.95 -2.3 2.15 -1.65 1.95 -1.45 1.75 -1.2 1.55 -0.95 1.4 -0.7 1.2 -0.35 1.15 -0.25 1.05 0.15 Q0.95 0.9 1.0 1.7 L1.05 1.95 1.25 2.55 1.3 2.6 1.25 2.7 1.25 2.85 0.35 3.6 -0.05 3.9 -0.15 3.95 -0.7 4.05 -1.4 4.4 -1.35 4.55 -2.25 4.75 -2.3 4.45 Q-2.3 1.4 -1.3 -0.55 -0.45 -2.05 0.55 -3.0 1.35 -3.75 2.55 -3.85" fill="#74a00a" fill-rule="evenodd" stroke="none"/>
    <path d="M1.3 2.6 L1.25 2.55 1.05 1.95 1.0 1.7 Q0.95 0.9 1.05 0.15 L1.15 -0.25 1.2 -0.35 1.4 -0.7 1.55 -0.95 1.75 -1.2 1.95 -1.45 2.15 -1.65 2.95 -2.3 3.6 -2.5 M1.5 -4.85 L1.35 -4.95 0.8 -4.8 Q-0.25 -4.55 -1.15 -3.8 L-1.45 -3.55 -1.75 -3.2 -2.35 -2.5 -2.95 -1.5 -3.15 -1.05 Q-3.9 0.05 -3.8 1.35 L-3.65 3.0 -3.55 3.35 -3.15 4.25 -3.0 4.5 -2.8 4.8 -2.6 4.8 M1.3 2.6 L1.35 2.75" fill="none" stroke="#660000" stroke-linecap="round" stroke-linejoin="round" stroke-opacity="0.4" stroke-width="1"/>
    <path d="M-0.3 -3.1 L-0.75 -3.95 -1.45 -5.15 -1.65 -5.65 M-2.55 -0.4 L-3.2 -0.75 -4.35 -1.25 -4.7 -1.45 M-2.15 3.65 L-2.8 4.35 -3.75 5.6 -4.2 6.15 M-3.3 2.1 L-3.8 2.2 -5.3 2.5 -6.0 2.65 M-0.15 0.2 L0.25 0.25 1.35 0.15 2.55 0.05" fill="none" stroke="#660000" stroke-linecap="round" stroke-linejoin="round" stroke-opacity="0.6" stroke-width="1"/>
  </g>
</svg>