<?xml version="1.0" encoding="UTF-8" standalone="no"?>
<svg xmlns:xlink="http://www.w3.org/1999/xlink" height="16.05px" width="23.7px" xmlns="http://www.w3.org/2000/svg">
  <g transform="matrix(1.0, 0.0, 0.0, 1.0, 11.7, 7.3)">
    <path d="M-4.8 1.5 L-4.8 1.45 -4.7 0.4 -4.55 -0.9 -4.4 -2.25 -4.3 -3.5 -4.3 -4.45 -4.3 -6.3 Q-3.95 -5.0 -3.75 -3.7 L-3.5 -2.25 -3.2 -0.95 -2.9 0.05 -2.7 0.9 -2.6 1.5 -2.55 1.9 -2.45 1.05 -2.15 -0.2 -1.8 -1.7 -1.35 -3.2 -1.2 -3.55 -0.7 -1.35 -0.35 0.15 -0.05 1.65 0.1 2.45 0.1 2.5 0.25 1.85 0.6 0.05 1.05 -2.45 1.1 -1.65 1.1 0.05 1.2 1.15 1.25 1.7 1.3 1.75 1.7 1.05 2.45 -0.8 Q3.3 -2.8 4.65 -4.45 L5.35 -5.25 5.55 -5.4 5.6 -5.35 5.15 -4.3 4.3 -1.85 3.55 0.9 Q3.3 2.0 3.35 3.15 L3.4 2.95 3.85 2.25 4.65 1.15 6.3 -0.45 6.7 -0.8 6.75 -0.8 6.45 -0.35 5.95 0.75 5.65 1.8 5.55 2.2 5.55 2.25 6.05 1.9 7.1 1.25 9.15 0.35 10.1 0.05 10.15 0.15 9.8 0.35 8.6 1.1 6.7 2.75 6.2 3.45 6.2 3.5 6.55 3.35 7.6 2.9 9.5 2.4 10.65 2.25 10.7 2.4 10.2 2.55 Q9.2 3.05 8.25 3.6 L7.5 4.15 7.5 4.4 Q7.5 5.05 5.9 6.1 4.2 7.25 2.7 7.25 L2.2 7.1 1.65 6.9 Q0.45 7.65 -0.35 7.65 -0.65 7.65 -1.5 7.1 -2.35 6.5 -3.35 6.5 L-4.85 6.8 -5.6 6.65 -6.95 6.5 -7.7 6.35 -8.0 5.7 -7.85 5.3 -7.8 5.25 -7.7 5.05 -7.85 5.0 Q-8.0 4.05 -8.4 3.15 L-9.3 1.5 -9.85 0.55 -10.3 -0.3 -10.55 -0.7 -10.5 -0.75 -9.0 0.2 -7.9 1.1 -7.15 1.85 -6.8 2.2 -6.8 2.15 -6.95 1.25 -7.2 -0.05 -7.65 -1.75 -8.2 -3.15 -8.65 -4.25 -8.35 -4.15 -7.7 -3.35 -6.8 -1.9 -5.85 -0.45 Q-5.45 0.15 -5.2 0.8 L-4.8 1.5 -4.9 3.3 -4.8 1.5 M-7.8 5.25 L-7.7 5.95 -7.7 6.35 -7.7 5.95 -7.8 5.25" fill="#b1da0c" fill-rule="evenodd" stroke="none"/>
    <path d="M1.05 -2.45 L0.6 0.05 0.25 1.85 0.1 2.5 0.1 2.45 -0.05 1.65 -0.35 0.15 -0.7 -1.35 -1.2 -3.55 -1.35 -3.2 -1.8 -1.7 -2.15 -0.2 -2.45 1.05 -2.55 1.9 -2.6 1.5 -2.7 0.9 -2.9 0.05 -3.2 -0.95 -3.5 -2.25 -3.75 -3.7 Q-3.95 -5.0 -4.3 -6.3 L-4.3 -4.45 -4.3 -3.5 -4.4 -2.25 -4.55 -0.9 -4.7 0.4 -4.8 1.45 -4.8 1.5 -4.9 3.3 M1.05 -2.45 L1.05 -2.55 1.05 -2.45 1.1 -1.65 1.1 0.05 1.2 1.15 1.25 1.7 1.3 1.75 1.7 1.05 2.45 -0.8 Q3.3 -2.8 4.65 -4.45 L5.35 -5.25 5.55 -5.4 5.6 -5.4 5.6 -5.35 5.15 -4.3 4.3 -1.85 3.55 0.9 Q3.3 2.0 3.35 3.15 L3.4 2.95 3.85 2.25 4.65 1.15 6.3 -0.45 6.7 -0.8 6.75 -0.8 6.45 -0.35 5.95 0.75 5.65 1.8 5.55 2.2 5.55 2.25 6.05 1.9 7.1 1.25 9.15 0.35 10.1 0.05 10.35 0.0 10.15 0.15 9.8 0.35 8.6 1.1 6.7 2.75 6.2 3.45 6.2 3.5 6.55 3.35 7.6 2.9 9.5 2.4 10.65 2.25 10.95 2.25 11.0 2.25 10.7 2.4 10.2 2.55 Q9.2 3.05 8.25 3.6 L7.5 4.15 M-7.8 5.25 L-7.85 5.0 Q-8.0 4.05 -8.4 3.15 L-9.3 1.5 -9.85 0.55 -10.3 -0.3 -10.55 -0.7 -10.7 -0.9 -10.5 -0.75 -9.0 0.2 -7.9 1.1 -7.15 1.85 -6.8 2.2 -6.8 2.15 -6.95 1.25 -7.2 -0.05 -7.65 -1.75 -8.2 -3.15 -8.65 -4.25 -8.35 -4.15 -7.7 -3.35 -6.8 -1.9 -5.85 -0.45 Q-5.45 0.15 -5.2 0.8 L-4.8 1.5 M-7.7 6.35 L-7.7 5.95 -7.8 5.25" fill="none" stroke="#660000" stroke-linecap="round" stroke-linejoin="round" stroke-opacity="0.4" stroke-width="1"/>
    <path d="M4.55 4.4 L4.45 4.4 4.5 4.35 4.55 4.4 4.5 4.35 4.65 4.25 4.55 4.4" fill="#b1da0c" fill-rule="evenodd" stroke="none"/>
    <path d="M-0.1 2.0 L-0.1 5.25 0.05 5.15 0.45 4.3 Q1.25 2.45 1.4 0.4 L1.45 -0.5 1.45 -0.95 1.55 -0.95 1.7 -0.25 1.95 1.5 2.15 3.5 2.2 5.0 2.65 5.15 2.85 5.45 4.5 1.25 4.55 1.25 Q4.4 2.0 4.4 2.75 L4.5 4.35 4.45 4.4 4.55 4.4 4.65 4.75 4.8 4.55 4.95 4.45 5.05 4.3 Q5.45 3.25 6.25 2.25 L7.6 0.55 8.15 0.05 7.8 0.8 7.05 2.6 6.6 4.05 6.85 4.35 6.9 4.6 6.8 5.2 5.15 6.2 3.85 6.85 2.3 7.4 0.65 7.75 -1.15 7.3 -2.8 7.05 -4.2 6.95 -5.75 6.9 -7.15 6.75 -7.05 5.45 -6.95 5.4 -7.05 5.4 -6.95 4.1 -7.0 3.1 -7.15 1.4 -7.3 0.7 -5.0 5.85 -4.95 5.9 -4.65 5.3 -4.05 3.6 -3.4 1.5 -2.7 -0.6 -2.5 -1.1 -2.45 -1.1 -2.45 -0.4 -2.2 2.65 -1.95 4.55 -1.85 5.3 -1.75 5.9 -1.45 4.75 -0.85 3.15 Q-0.6 2.4 -0.15 2.0 L-0.1 2.0 M2.2 5.6 L2.2 5.0 2.2 5.6" fill="#7ead0a" fill-rule="evenodd" stroke="none"/>
    <path d="M1.45 -0.95 L1.45 -0.5 1.4 0.4 Q1.25 2.45 0.45 4.3 L0.05 5.15 -0.1 5.25 -0.1 2.0 M-0.15 2.0 Q-0.6 2.4 -0.85 3.15 L-1.45 4.75 -1.75 5.9 -1.85 5.3 -1.95 4.55 -2.2 2.65 -2.45 -0.4 -2.45 -1.1 M-2.5 -1.1 L-2.7 -0.6 -3.4 1.5 -4.05 3.6 -4.65 5.3 -4.95 5.9 -5.0 5.85 -7.3 0.7 -7.15 1.4 -7.0 3.1 -6.95 4.1 -7.05 5.4 M-7.05 5.45 L-7.15 6.75 M6.6 4.05 L7.05 2.6 7.8 0.8 8.15 0.05 7.6 0.55 6.25 2.25 Q5.45 3.25 5.05 4.3 L4.95 4.45 4.8 4.55 M4.65 4.75 L4.55 4.4 4.5 4.35 4.4 2.75 Q4.4 2.0 4.55 1.25 L4.55 1.1 4.5 1.25 2.85 5.45 M2.2 5.0 L2.2 5.6 M2.2 5.0 L2.15 3.5 1.95 1.5 1.7 -0.25 1.55 -0.95" fill="none" stroke="#660000" stroke-linecap="round" stroke-linejoin="round" stroke-opacity="0.4" stroke-width="1"/>
  </g>
</svg>