<?xml version="1.0" encoding="UTF-8" standalone="no"?>
<svg xmlns:xlink="http://www.w3.org/1999/xlink" height="5.45px" width="9.6px" xmlns="http://www.w3.org/2000/svg">
  <g transform="matrix(1.0, 0.0, 0.0, 1.0, 4.7, 2.75)">
    <path d="M-2.3 -1.1 L-1.8 -0.95 -1.3 -0.8 -1.25 -0.8 -1.1 -0.8 -0.15 -0.6 1.5 -0.7 2.45 -1.0 3.15 -1.3 3.65 -1.65 3.9 -1.75 Q3.7 -1.7 3.65 -1.45 L3.55 -1.15 1.95 -0.55 Q-0.45 0.45 -2.25 0.55 L-3.55 0.5 Q-3.35 -0.25 -2.5 -0.9 L-2.4 -1.0 -2.3 -1.1 M-0.25 1.3 L-1.05 1.5 -2.75 1.7 -3.4 1.55 -2.05 1.6 -0.25 1.3" fill="#ffffcc" fill-rule="evenodd" stroke="none"/>
    <path d="M3.55 -1.15 L3.5 -1.05 Q3.15 -0.35 2.45 0.0 L1.7 0.45 0.95 0.8 -0.05 1.2 -0.25 1.3 -2.05 1.6 -3.4 1.55 -3.45 1.55 -3.6 1.5 -3.65 1.45 -3.65 1.0 -3.55 0.5 -2.25 0.55 Q-0.45 0.45 1.95 -0.55 L3.55 -1.15 M-3.6 1.5 L-3.4 1.55 -3.6 1.5" fill="#c9b894" fill-rule="evenodd" stroke="none"/>
    <path d="M-2.3 -1.1 L-1.8 -0.95 -1.3 -0.8 -1.25 -0.8 -1.1 -0.8 -0.15 -0.6 1.5 -0.7 2.45 -1.0 3.15 -1.3 3.65 -1.65 3.9 -1.75 Q3.7 -1.7 3.65 -1.45 L3.55 -1.15 M3.5 -1.05 Q3.15 -0.35 2.45 0.0 L1.7 0.45 0.95 0.8 -0.05 1.2 -0.25 1.3 -1.05 1.5 -2.75 1.7 -3.4 1.55 -3.6 1.5 -3.65 1.45 M-2.5 -0.9 L-2.3 -1.1" fill="none" stroke="#660000" stroke-linecap="round" stroke-linejoin="round" stroke-opacity="0.4" stroke-width="1"/>
  </g>
</svg>