<?xml version="1.0" encoding="UTF-8" standalone="no"?>
<svg xmlns:xlink="http://www.w3.org/1999/xlink" height="115.5px" width="94.45px" xmlns="http://www.w3.org/2000/svg">
  <g transform="matrix(1.0, 0.0, 0.0, 1.0, 35.05, 82)">
    <path d="M49.05 -62.6 L50.2 -61.9 52.3 -60.5 52.3 -60.3 Q49.4 -60.3 44.3 -57.85 39.35 -55.5 37.3 -53.35 L45.95 -48.2 Q53.5 -43.7 53.5 -42.15 53.5 -41.9 51.15 -40.25 50.8 -40.25 43.95 -43.65 37.05 -47.1 36.15 -47.1 34.8 -47.1 32.3 -45.35 29.6 -43.5 27.6 -43.25 L22.7 -41.75 Q18.9 -40.4 17.8 -40.4 10.55 -40.4 6.6 -43.95 4.6 -45.75 3.35 -48.0 L3.9 -50.5 Q4.25 -52.9 4.25 -56.2 4.25 -57.15 1.2 -63.95 -2.1 -71.35 -2.8 -74.8 L-0.8 -75.15 0.8 -75.5 Q1.45 -75.5 3.6 -68.8 5.55 -62.85 5.9 -60.9 L5.9 -60.75 7.75 -66.4 Q8.35 -68.55 9.15 -68.55 L10.15 -68.35 11.1 -68.15 Q12.4 -68.15 12.8 -67.65 L13.05 -66.65 11.55 -62.0 Q10.05 -57.95 10.05 -57.15 10.05 -55.0 11.0 -55.0 L12.0 -54.6 Q12.7 -54.25 13.15 -54.25 L14.15 -54.5 15.15 -54.75 Q16.2 -54.75 17.35 -52.65 18.45 -50.6 20.0 -50.6 20.8 -50.6 24.65 -51.9 28.35 -53.2 29.65 -53.1 30.75 -53.0 32.35 -53.9 L39.35 -58.25 Q44.4 -61.35 46.3 -62.15 L49.05 -62.6" fill="#7b4b37" fill-rule="evenodd" stroke="none"/>
    <path d="M49.05 -62.6 L50.2 -61.9 52.3 -60.5 52.3 -60.3 Q49.4 -60.3 44.3 -57.85 39.35 -55.5 37.3 -53.35 L45.95 -48.2 Q53.5 -43.7 53.5 -42.15 53.5 -41.9 51.15 -40.25 50.8 -40.25 43.95 -43.65 37.05 -47.1 36.15 -47.1 34.8 -47.1 32.3 -45.35 29.6 -43.5 27.6 -43.25 L22.7 -41.75 Q18.9 -40.4 17.8 -40.4 10.55 -40.4 6.6 -43.95 4.6 -45.75 3.35 -48.0 L3.9 -50.5 Q4.25 -52.9 4.25 -56.2 4.25 -57.15 1.2 -63.95 -2.1 -71.35 -2.8 -74.8 L-0.8 -75.15 0.8 -75.5 Q1.45 -75.5 3.6 -68.8 5.55 -62.85 5.9 -60.9 L5.9 -60.75 7.75 -66.4 Q8.35 -68.55 9.15 -68.55 L10.15 -68.35 11.1 -68.15 Q12.4 -68.15 12.8 -67.65 L13.05 -66.65 11.55 -62.0 Q10.05 -57.95 10.05 -57.15 10.05 -55.0 11.0 -55.0 L12.0 -54.6 Q12.7 -54.25 13.15 -54.25 L14.15 -54.5 15.15 -54.75 Q16.2 -54.75 17.35 -52.65 18.45 -50.6 20.0 -50.6 20.8 -50.6 24.65 -51.9 28.35 -53.2 29.65 -53.1 30.75 -53.0 32.35 -53.9 L39.35 -58.25 Q44.4 -61.35 46.3 -62.15 L49.05 -62.6 Z" fill="none" stroke="#660000" stroke-linecap="round" stroke-linejoin="round" stroke-width="1"/>
    <path d="M11.3 -37.05 L11.45 -36.95 11.4 -36.95 11.3 -37.05 M33.75 2.0 L33.75 2.05 33.75 2.0 M25.2 9.6 L25.3 10.3 25.1 9.65 25.1 9.6 25.2 9.6 M26.3 16.6 L26.35 16.85 26.3 16.8 26.3 16.6 M26.65 18.75 L26.65 18.7 26.75 18.6 26.65 18.75 M10.3 -42.95 L10.3 -43.05 10.45 -42.85 10.3 -42.95 M3.6 -45.4 L3.7 -45.5 3.65 -45.35 3.6 -45.4 M1.3 -5.1 L2.0 -5.45 1.4 -4.75 1.3 -5.1 M6.95 -7.25 L7.3 -7.3 7.55 -6.95 6.95 -7.25 M7.65 -2.1 L7.6 -2.1 7.65 -2.2 7.65 -2.1 M26.35 -3.6 L26.25 -2.7 26.35 -3.6 M42.7 -39.0 L42.8 -38.95 42.75 -38.9 42.7 -39.0 M-4.6 -48.75 L-4.85 -48.65 -4.85 -48.7 -4.6 -48.75 M-5.15 -39.95 L-5.1 -40.05 Q-5.0 -40.4 -5.0 -39.8 L-5.15 -39.95 M-14.55 -17.85 L-14.7 -17.75 -14.55 -17.85" fill="#8c5c48" fill-rule="evenodd" stroke="none"/>
    <path d="M3.8 -27.65 L4.15 -27.9 3.95 -27.5 3.8 -27.65 M9.75 -23.95 L9.9 -24.3 9.9 -24.0 9.75 -23.95 M24.05 5.9 L24.65 5.55 24.85 7.1 Q24.45 6.9 24.05 5.9 M29.15 -35.1 L31.3 -37.5 31.5 -37.3 29.25 -35.15 29.15 -35.1 M51.5 -48.1 L51.75 -48.0 51.6 -47.9 51.5 -48.1 M26.75 18.6 L26.75 18.9 26.65 18.75 26.75 18.6 M2.0 -5.45 L2.3 -5.75 2.45 -5.6 2.0 -5.45 M9.45 -5.9 L9.4 -5.9 9.45 -5.9 M26.2 16.7 L26.3 16.6 26.3 16.8 26.2 16.7" fill="#b88672" fill-rule="evenodd" stroke="none"/>
    <path d="M16.95 -74.65 L16.95 -74.7 Q19.05 -73.6 21.3 -73.35 L21.6 -71.55 22.05 -67.35 22.35 -61.95 Q22.35 -57.55 18.4 -54.0 L17.95 -53.6 18.45 -55.3 Q20.3 -61.7 20.3 -62.7 L20.25 -63.25 19.85 -63.55 Q16.85 -55.3 16.0 -51.75 14.4 -50.2 14.4 -49.8 L14.6 -47.1 Q13.75 -45.65 12.9 -42.7 L11.3 -37.05 11.4 -36.95 11.45 -36.95 13.35 -39.9 15.45 -42.85 15.85 -41.45 17.25 -37.65 Q17.25 -36.75 12.25 -33.9 L7.15 -31.1 7.75 -32.65 Q10.5 -39.75 10.5 -42.35 L10.45 -42.85 10.3 -43.05 10.3 -42.95 10.25 -42.95 10.25 -42.9 7.35 -34.1 6.25 -30.95 6.5 -32.2 6.65 -32.8 6.7 -33.05 7.05 -36.75 Q7.05 -37.8 6.65 -38.45 L5.3 -40.2 5.1 -40.2 3.15 -34.8 2.6 -33.4 2.35 -35.05 Q2.15 -36.5 2.35 -37.15 L3.55 -39.4 4.4 -41.25 4.05 -43.3 Q3.65 -44.3 3.65 -45.35 L3.7 -45.5 3.6 -45.4 3.6 -45.35 Q3.3 -44.85 3.3 -43.75 3.3 -41.85 2.1 -39.45 0.9 -37.05 0.9 -36.4 L1.35 -32.35 Q1.3 -31.75 -1.9 -26.35 L-5.1 -20.45 -6.75 -16.95 -7.65 -18.3 Q-8.5 -19.85 -9.15 -20.25 L-6.6 -25.25 Q-7.75 -24.85 -8.85 -23.05 -9.8 -21.5 -9.85 -20.35 L-11.8 -19.9 Q-10.55 -21.35 -10.3 -23.05 -10.0 -24.9 -9.8 -28.75 -9.25 -30.6 -7.05 -35.25 -5.0 -39.5 -5.0 -39.8 -5.0 -40.4 -5.1 -40.05 L-5.15 -39.95 Q-7.0 -38.2 -8.45 -34.95 L-10.65 -29.25 Q-11.75 -26.25 -11.65 -23.8 -11.6 -21.85 -13.25 -20.2 L-14.2 -19.15 -18.25 -17.75 -17.1 -20.55 -15.95 -23.25 -14.7 -26.2 -15.5 -30.85 Q-15.2 -32.05 -14.55 -32.95 -12.2 -36.0 -10.95 -39.3 L-10.75 -39.8 -8.3 -41.8 Q-7.2 -42.85 -6.15 -44.9 -5.1 -47.0 -5.05 -49.65 -5.05 -50.6 -5.2 -51.35 L-5.15 -51.4 -5.1 -51.5 -5.25 -51.7 -5.35 -52.0 Q-5.6 -52.9 -6.15 -53.45 L-6.3 -53.6 -6.95 -55.7 -7.7 -60.0 -8.35 -62.15 Q-9.9 -65.65 -13.9 -67.4 -10.15 -65.3 -8.9 -62.15 -8.4 -60.75 -8.35 -59.15 L-8.25 -57.55 Q-9.9 -59.25 -13.25 -58.25 -12.15 -58.45 -12.15 -58.25 L-13.3 -58.25 -15.95 -57.7 -19.8 -56.85 -21.45 -59.9 Q-17.7 -61.2 -13.8 -60.9 L-11.3 -60.65 -12.05 -62.15 -14.0 -65.45 Q-16.0 -68.35 -18.6 -70.85 -21.25 -73.35 -24.6 -75.5 L-21.25 -79.1 Q-18.75 -77.25 -16.5 -75.1 L-16.35 -74.95 Q-13.45 -72.1 -10.95 -68.8 -8.65 -65.75 -6.65 -62.6 L-2.1 -63.9 Q-1.25 -65.0 -1.0 -66.45 L-0.75 -67.4 0.6 -71.1 Q-0.25 -67.75 -0.3 -64.2 L-0.25 -59.6 0.0 -58.65 0.3 -57.75 Q1.7 -53.65 4.8 -50.0 6.65 -47.9 9.25 -46.8 L11.15 -48.9 12.55 -50.7 Q15.45 -55.15 16.9 -60.3 19.0 -67.55 16.95 -74.65 L18.8 -71.15 16.95 -74.65 M-6.2 -16.45 L-1.85 -23.55 -1.2 -24.65 -1.4 -23.65 -2.0 -20.0 Q-0.7 -24.45 3.8 -27.65 L3.95 -27.5 1.65 -21.75 1.65 -20.4 2.15 -20.45 1.75 -19.65 2.7 -20.65 3.65 -21.1 Q4.55 -21.5 5.85 -22.2 L9.75 -23.95 Q8.65 -21.85 7.5 -18.65 L7.1 -17.5 5.05 -18.8 2.15 -18.1 Q2.15 -19.2 1.05 -19.3 L1.0 -19.0 Q1.5 -18.6 1.25 -17.85 L-5.5 -16.25 Q-5.85 -16.25 -6.2 -16.45 M18.75 -9.1 Q17.5 -12.9 17.5 -13.75 L17.6 -14.35 Q21.45 -10.6 22.85 -1.05 L22.3 -0.6 21.55 -1.95 Q20.4 -4.1 19.1 -8.05 L18.75 -9.1 M25.15 -51.1 Q24.2 -49.3 23.0 -46.3 L21.0 -41.4 20.75 -41.5 Q22.0 -43.45 23.15 -47.45 L25.0 -54.15 Q27.35 -61.7 31.6 -60.55 L31.65 -60.3 Q30.8 -60.05 29.75 -59.4 27.7 -58.1 26.9 -55.85 25.6 -51.9 25.15 -51.1 M29.25 -35.15 Q26.15 -31.8 24.9 -27.7 23.95 -24.5 23.85 -18.0 L23.4 -17.75 Q22.9 -18.25 22.8 -19.3 L22.75 -21.05 Q22.75 -26.75 23.75 -28.6 24.5 -30.05 29.15 -35.1 L29.25 -35.15 M51.45 -47.85 L44.4 -45.4 35.0 -42.4 34.25 -42.55 Q38.1 -44.3 43.85 -46.15 L50.9 -48.0 51.5 -48.1 51.6 -47.9 51.45 -47.85 50.9 -48.0 51.45 -47.85 M42.75 -38.9 Q42.5 -38.5 41.4 -38.5 L39.45 -38.9 36.95 -39.35 34.7 -38.85 33.3 -38.35 32.8 -38.5 32.75 -38.65 Q33.8 -39.7 36.95 -40.05 L41.35 -39.75 42.6 -39.25 42.7 -39.0 42.75 -38.9 M20.65 -25.15 Q21.3 -23.2 22.05 -17.1 22.65 -12.4 24.6 -9.6 L24.1 -9.15 Q21.65 -11.95 20.5 -24.5 L20.5 -25.15 20.65 -25.15 M25.3 10.3 L25.45 10.9 26.3 16.6 26.2 16.7 Q24.85 15.1 24.2 12.0 L22.85 6.5 Q24.3 7.35 25.1 9.6 L25.1 9.65 25.3 10.3 M-16.35 -74.95 L-16.4 -74.8 -16.5 -75.1 -16.4 -74.8 -16.35 -74.95 M-13.25 -65.1 L-14.0 -65.45 -13.25 -65.1 M-9.75 -37.35 L-10.0 -37.15 -10.95 -39.3 -10.0 -37.15 -9.75 -37.35 M-4.6 -48.75 Q-4.55 -49.55 -4.15 -50.15 -3.75 -50.75 -3.75 -51.35 -3.75 -52.25 -5.1 -57.6 L-5.5 -57.6 -5.75 -56.45 -5.35 -54.25 -5.25 -53.75 Q-4.75 -51.3 -4.75 -49.25 L-4.85 -48.7 -4.85 -48.65 -4.6 -48.75" fill="#b6755a" fill-rule="evenodd" stroke="none"/>
    <path d="M10.45 -42.85 L10.25 -42.95 10.3 -42.95 10.45 -42.85 M3.65 -45.35 L3.6 -45.35 3.6 -45.4 3.65 -45.35" fill="#8d563f" fill-rule="evenodd" stroke="none"/>
    <path d="M31.3 -63.6 Q34.95 -65.05 39.0 -65.1 L40.1 -61.8 37.3 -61.25 Q33.15 -60.4 29.3 -58.4 L21.8 -42.5 Q27.4 -42.15 32.6 -44.25 L33.9 -44.8 Q37.2 -46.35 38.85 -49.45 40.55 -52.7 43.7 -53.1 L44.85 -52.35 40.5 -46.5 Q43.85 -47.25 47.1 -48.75 51.2 -50.75 54.9 -53.3 L57.05 -51.95 57.75 -51.1 58.4 -49.95 52.75 -47.65 51.45 -47.85 52.75 -47.65 38.15 -41.75 Q39.7 -40.7 41.35 -39.75 L36.95 -40.05 Q33.8 -39.7 32.75 -38.65 L32.8 -38.5 33.3 -38.35 34.7 -38.85 36.95 -39.35 39.45 -38.9 41.4 -38.5 Q42.5 -38.5 42.75 -38.9 L42.8 -38.95 43.65 -38.55 45.55 -37.75 44.3 -36.1 34.2 -36.6 32.9 -34.9 29.8 -30.85 Q26.4 -26.4 24.8 -22.9 L24.75 -21.4 Q24.75 -18.75 25.5 -15.8 L26.25 -13.1 Q27.05 -10.65 28.3 -8.0 L31.55 -1.5 33.75 2.0 33.75 2.05 33.3 1.75 34.65 4.35 34.2 4.35 30.1 1.3 26.15 -1.7 25.4 5.15 24.65 5.55 24.05 5.9 23.7 5.05 Q23.0 3.4 23.0 2.75 L22.75 2.7 22.05 0.15 21.55 -1.95 22.3 -0.6 22.85 -1.05 Q21.45 -10.6 17.6 -14.35 L17.5 -13.75 Q17.5 -12.9 18.75 -9.1 L17.5 -10.05 15.15 -11.75 11.0 -14.75 9.5 -15.85 7.1 -17.5 7.5 -18.65 Q8.65 -21.85 9.75 -23.95 L5.85 -22.2 Q4.55 -21.5 3.65 -21.1 L2.7 -20.65 1.75 -19.65 2.15 -20.45 1.65 -20.4 1.65 -21.75 3.95 -27.5 4.15 -27.9 3.8 -27.65 Q-0.7 -24.45 -2.0 -20.0 L-1.4 -23.65 -1.2 -24.65 -1.85 -23.55 -6.2 -16.45 -6.65 -15.8 -6.95 -15.85 -7.0 -16.2 -6.75 -16.95 -5.1 -20.45 -1.9 -26.35 Q1.3 -31.75 1.35 -32.35 L0.9 -36.4 Q0.9 -37.05 2.1 -39.45 3.3 -41.85 3.3 -43.75 3.3 -44.85 3.6 -45.35 L3.65 -45.35 Q3.65 -44.3 4.05 -43.3 L4.4 -41.25 3.55 -39.4 2.35 -37.15 Q2.15 -36.5 2.35 -35.05 L2.6 -33.4 3.15 -34.8 5.1 -40.2 5.3 -40.2 6.65 -38.45 Q7.05 -37.8 7.05 -36.75 L6.7 -33.05 6.65 -32.8 6.5 -32.2 6.25 -30.95 7.35 -34.1 10.25 -42.9 10.25 -42.95 10.45 -42.85 10.5 -42.35 Q10.5 -39.75 7.75 -32.65 L7.15 -31.1 12.25 -33.9 Q17.25 -36.75 17.25 -37.65 L15.85 -41.45 15.45 -42.85 13.35 -39.9 11.45 -36.95 11.3 -37.05 12.9 -42.7 Q13.75 -45.65 14.6 -47.1 L14.4 -49.8 Q14.4 -50.2 16.0 -51.75 16.85 -55.3 19.85 -63.55 L20.25 -63.25 20.3 -62.7 Q20.3 -61.7 18.45 -55.3 L17.95 -53.6 18.4 -54.0 Q22.35 -57.55 22.35 -61.95 L22.05 -67.35 21.6 -71.55 21.9 -71.9 22.4 -73.25 21.9 -71.9 21.6 -71.55 21.3 -73.35 22.4 -73.25 23.75 -73.3 25.25 -73.4 24.75 -60.0 Q27.1 -61.75 29.8 -62.95 L31.3 -63.6 29.9 -62.15 31.3 -63.6 M9.75 -23.95 L9.9 -24.0 9.9 -24.3 9.75 -23.95 M24.15 1.2 L24.65 5.55 24.15 1.2 M25.15 -51.1 Q25.6 -51.9 26.9 -55.85 27.7 -58.1 29.75 -59.4 30.8 -60.05 31.65 -60.3 L31.6 -60.55 Q27.35 -61.7 25.0 -54.15 L23.15 -47.45 Q22.0 -43.45 20.75 -41.5 L21.0 -41.4 23.0 -46.3 Q24.2 -49.3 25.15 -51.1 M29.25 -35.15 L31.5 -37.3 31.3 -37.5 29.15 -35.1 Q24.5 -30.05 23.75 -28.6 22.75 -26.75 22.75 -21.05 L22.8 -19.3 Q22.9 -18.25 23.4 -17.75 L23.85 -18.0 Q23.95 -24.5 24.9 -27.7 26.15 -31.8 29.25 -35.15 M51.5 -48.1 L50.9 -48.0 43.85 -46.15 Q38.1 -44.3 34.25 -42.55 L35.0 -42.4 44.4 -45.4 51.45 -47.85 51.6 -47.9 51.75 -48.0 51.5 -48.1 M20.65 -25.15 L20.5 -25.15 20.5 -24.5 Q21.65 -11.95 24.1 -9.15 L24.6 -9.6 Q22.65 -12.4 22.05 -17.1 21.3 -23.2 20.65 -25.15 M30.85 -35.1 L32.9 -34.9 30.85 -35.1 M24.85 7.1 L25.2 9.6 25.1 9.6 Q24.3 7.35 22.85 6.5 L24.2 12.0 Q24.85 15.1 26.2 16.7 L26.3 16.8 26.35 16.85 26.75 18.6 26.65 18.7 23.55 13.75 Q21.35 10.1 20.65 9.6 L21.55 7.15 24.05 5.9 Q24.45 6.9 24.85 7.1 M26.35 -3.6 Q26.5 -4.85 26.9 -5.65 L27.5 -6.45 27.25 -7.65 26.0 -12.3 26.25 -13.1 26.0 -12.3 27.25 -7.65 27.5 -6.45 26.9 -5.65 Q26.5 -4.85 26.35 -3.6 L26.25 -2.7 26.35 -3.6 21.45 -10.1 26.35 -3.6 M26.15 -1.7 L26.25 -2.7 26.15 -1.7 M-19.8 -56.85 L-15.95 -57.7 -13.3 -58.25 -12.15 -58.25 Q-12.15 -58.45 -13.25 -58.25 -9.9 -59.25 -8.25 -57.55 L-8.35 -59.15 Q-8.4 -60.75 -8.9 -62.15 -10.15 -65.3 -13.9 -67.4 -9.9 -65.65 -8.35 -62.15 L-7.7 -60.0 -6.95 -55.7 -6.3 -53.6 -6.15 -53.45 Q-5.6 -52.9 -5.35 -52.0 L-5.25 -51.7 -5.1 -51.5 -5.15 -51.4 -5.2 -51.35 Q-5.05 -50.6 -5.05 -49.65 -5.1 -47.0 -6.15 -44.9 -7.2 -42.85 -8.3 -41.8 L-10.75 -39.8 Q-9.5 -43.4 -9.6 -47.3 L-9.85 -48.85 Q-10.2 -50.4 -10.9 -51.75 -11.65 -53.15 -12.75 -54.3 L-12.85 -55.1 -16.85 -55.15 -18.65 -54.6 -19.8 -56.85 M-4.85 -48.7 L-4.75 -49.25 Q-4.75 -51.3 -5.25 -53.75 L-5.35 -54.25 -5.75 -56.45 -5.5 -57.6 -5.1 -57.6 Q-3.75 -52.25 -3.75 -51.35 -3.75 -50.75 -4.15 -50.15 -4.55 -49.55 -4.6 -48.75 L-4.85 -48.7 M-5.15 -39.95 L-5.0 -39.8 Q-5.0 -39.5 -7.05 -35.25 -9.25 -30.6 -9.8 -28.75 -10.0 -24.9 -10.3 -23.05 -10.55 -21.35 -11.8 -19.9 -12.85 -18.8 -14.55 -17.85 L-14.7 -17.75 Q-14.9 -17.75 -14.9 -18.15 L-14.2 -19.15 -13.25 -20.2 Q-11.6 -21.85 -11.65 -23.8 -11.75 -26.25 -10.65 -29.25 L-8.45 -34.95 Q-7.0 -38.2 -5.15 -39.95 M-9.85 -20.35 Q-9.8 -21.5 -8.85 -23.05 -7.75 -24.85 -6.6 -25.25 L-9.15 -20.25 -9.35 -19.8 -9.75 -19.75 -9.8 -19.7 -9.9 -20.1 -9.85 -20.35" fill="#7b4b37" fill-rule="evenodd" stroke="none"/>
    <path d="M-6.75 -16.95 L-7.0 -16.2 -6.95 -15.85 -6.65 -15.8 -6.2 -16.45 Q-5.85 -16.25 -5.5 -16.25 L1.25 -17.85 Q1.5 -18.6 1.0 -19.0 L1.05 -19.3 Q2.15 -19.2 2.15 -18.1 L5.05 -18.8 7.1 -17.5 6.8 -16.6 5.35 -16.8 3.95 -16.6 3.6 -16.45 Q2.85 -16.15 2.85 -15.7 L3.05 -15.3 1.95 -15.3 Q1.55 -14.55 1.15 -10.85 0.8 -7.75 0.8 -6.9 L1.3 -5.1 1.4 -4.75 2.0 -5.45 2.45 -5.6 2.3 -5.75 Q4.45 -7.95 4.95 -7.95 L6.95 -7.25 7.55 -6.95 8.75 -6.3 9.45 -5.9 10.25 -5.4 7.85 -3.5 7.65 -2.2 7.6 -2.1 7.65 -2.1 11.6 -2.9 13.3 5.9 2.3 5.55 5.7 -3.85 0.5 3.15 -4.05 1.75 -5.5 3.2 -0.8 6.4 -1.5 9.6 -11.7 4.6 -16.8 12.85 -23.5 9.65 -23.3 9.35 -26.15 -0.75 -22.5 -3.75 -21.75 -11.0 -20.7 -11.7 -18.25 -17.75 -14.2 -19.15 -14.9 -18.15 Q-14.9 -17.75 -14.7 -17.75 L-14.55 -17.85 Q-12.85 -18.8 -11.8 -19.9 L-9.85 -20.35 -9.9 -20.1 -9.8 -19.7 -9.75 -19.75 -9.35 -19.8 -9.15 -20.25 Q-8.5 -19.85 -7.65 -18.3 L-6.75 -16.95 M7.55 -6.95 L7.8 -6.6 Q8.4 -5.9 9.4 -5.9 8.4 -5.9 7.8 -6.6 L7.55 -6.95 M9.4 -5.9 L9.45 -5.9 9.4 -5.9 M-15.55 -15.15 L-20.7 -11.7 -15.55 -15.15" fill="#774d4d" fill-rule="evenodd" stroke="none"/>
    <path d="M7.1 -17.5 L9.5 -15.85 11.0 -14.75 15.15 -11.75 17.5 -10.05 18.75 -9.1 19.1 -8.05 Q20.4 -4.1 21.55 -1.95 L22.05 0.15 22.75 2.7 23.0 2.75 Q23.0 3.4 23.7 5.05 L24.05 5.9 21.55 7.15 20.65 9.6 18.35 15.6 17.55 16.1 16.75 16.55 Q11.6 18.9 6.15 20.65 L2.75 21.75 Q-2.05 23.8 -6.45 21.2 -7.85 20.35 -9.3 20.05 L-14.65 20.25 -16.3 20.1 Q-20.45 18.35 -23.7 15.25 L-26.05 13.1 -25.05 11.75 -23.5 9.65 -16.8 12.85 -11.7 4.6 -1.5 9.6 -0.8 6.4 -5.5 3.2 -4.05 1.75 0.5 3.15 5.7 -3.85 2.3 5.55 13.3 5.9 11.6 -2.9 7.65 -2.1 7.65 -2.2 7.85 -3.5 10.25 -5.4 9.45 -5.9 8.75 -6.3 7.55 -6.95 7.3 -7.3 6.95 -7.25 4.95 -7.95 Q4.45 -7.95 2.3 -5.75 L2.0 -5.45 1.3 -5.1 0.8 -6.9 Q0.8 -7.75 1.15 -10.85 1.55 -14.55 1.95 -15.3 L3.05 -15.3 2.85 -15.7 Q2.85 -16.15 3.6 -16.45 L3.95 -16.6 5.35 -16.8 6.8 -16.6 7.1 -17.5 M21.1 5.5 L22.0 4.1 22.75 2.85 22.75 2.7 17.85 2.25 Q15.8 2.15 15.8 0.55 L16.3 -2.8 Q16.3 -3.7 12.15 -5.75 L9.45 -5.9 12.15 -5.75 Q16.3 -3.7 16.3 -2.8 L15.8 0.55 Q15.8 2.15 17.85 2.25 L22.75 2.7 22.75 2.85 22.0 4.1 21.1 5.5" fill="#53342d" fill-rule="evenodd" stroke="none"/>
    <path d="M52.75 -47.65 L58.4 -49.95 57.75 -51.1 57.05 -51.95 54.9 -53.3 Q51.2 -50.75 47.1 -48.75 43.85 -47.25 40.5 -46.5 L44.85 -52.35 43.7 -53.1 Q40.55 -52.7 38.85 -49.45 37.2 -46.35 33.9 -44.8 L32.6 -44.25 Q27.4 -42.15 21.8 -42.5 L29.3 -58.4 Q33.15 -60.4 37.3 -61.25 L40.1 -61.8 39.0 -65.1 Q34.95 -65.05 31.3 -63.6 L29.8 -62.95 Q27.1 -61.75 24.75 -60.0 L25.25 -73.4 23.75 -73.3 22.4 -73.25 21.3 -73.35 Q19.05 -73.6 16.95 -74.7 L16.95 -74.65 Q19.0 -67.55 16.9 -60.3 15.45 -55.15 12.55 -50.7 L11.15 -48.9 9.25 -46.8 Q6.65 -47.9 4.8 -50.0 1.7 -53.65 0.3 -57.75 L0.0 -58.65 -0.25 -59.6 -0.3 -64.2 Q-0.25 -67.75 0.6 -71.1 L-0.75 -67.4 -1.0 -66.45 Q-1.25 -65.0 -2.1 -63.9 L-6.65 -62.6 Q-8.65 -65.75 -10.95 -68.8 -13.45 -72.1 -16.35 -74.95 L-16.5 -75.1 Q-18.75 -77.25 -21.25 -79.1 L-24.6 -75.5 Q-21.25 -73.35 -18.6 -70.85 -16.0 -68.35 -14.0 -65.45 L-12.05 -62.15 -11.3 -60.65 -13.8 -60.9 Q-17.7 -61.2 -21.45 -59.9 L-19.8 -56.85 -18.65 -54.6 -16.85 -55.15 -12.85 -55.1 -12.75 -54.3 Q-11.65 -53.15 -10.9 -51.75 -10.2 -50.4 -9.85 -48.85 L-9.6 -47.3 Q-9.5 -43.4 -10.75 -39.8 L-10.95 -39.3 Q-12.2 -36.0 -14.55 -32.95 -15.2 -32.05 -15.5 -30.85 L-14.7 -26.2 -15.95 -23.25 -17.1 -20.55 -18.25 -17.75 -14.2 -19.15 M7.1 -17.5 L9.5 -15.85 11.0 -14.75 15.15 -11.75 17.5 -10.05 18.75 -9.1 M21.55 -1.95 L22.05 0.15 22.75 2.7 23.0 2.75 Q23.0 3.4 23.7 5.05 L24.05 5.9 24.65 5.55 24.15 1.2 M41.35 -39.75 Q39.7 -40.7 38.15 -41.75 L52.75 -47.65 M42.8 -38.95 L43.65 -38.55 45.55 -37.75 44.3 -36.1 34.2 -36.6 32.9 -34.9 29.8 -30.85 Q26.4 -26.4 24.8 -22.9 L24.75 -21.4 Q24.75 -18.75 25.5 -15.8 L26.25 -13.1 Q27.05 -10.65 28.3 -8.0 L31.55 -1.5 M33.3 1.75 L34.65 4.35 34.2 4.35 30.1 1.3 26.15 -1.7 25.4 5.15 24.65 5.55 24.85 7.1 25.2 9.6 25.3 10.3 M26.3 16.6 L26.35 16.85 26.75 18.6 26.75 18.9 26.65 18.75 26.65 18.7 23.55 13.75 Q21.35 10.1 20.65 9.6 L18.35 15.6 17.55 16.1 16.75 16.55 Q11.6 18.9 6.15 20.65 L2.75 21.75 Q-2.05 23.8 -6.45 21.2 -7.85 20.35 -9.3 20.05 L-14.65 20.25 -16.3 20.1 Q-20.45 18.35 -23.7 15.25 L-26.05 13.1 -25.05 11.75 M-23.5 9.65 L-23.3 9.35 -26.15 -0.75 -22.5 -3.75 -21.75 -11.0 -20.7 -11.7 -18.25 -17.75 -19.25 -17.4 M2.15 -18.1 L5.05 -18.8 7.1 -17.5 M1.3 -5.1 L2.0 -5.45 2.45 -5.6 M6.95 -7.25 L7.3 -7.3 7.55 -6.95 7.8 -6.6 Q8.4 -5.9 9.4 -5.9 L9.45 -5.9 12.15 -5.75 Q16.3 -3.7 16.3 -2.8 L15.8 0.55 Q15.8 2.15 17.85 2.25 L22.75 2.7 22.75 2.85 22.0 4.1 21.1 5.5 M26.25 -13.1 L26.0 -12.3 27.25 -7.65 27.5 -6.45 26.9 -5.65 Q26.5 -4.85 26.35 -3.6 L26.25 -2.7 26.15 -1.7 M26.35 -3.6 L26.25 -2.7 M26.35 -3.6 L21.45 -10.1 M42.7 -39.0 L42.8 -38.95 M20.65 9.6 L21.55 7.15 24.05 5.9 Q24.45 6.9 24.85 7.1 M-11.8 -19.9 L-9.85 -20.35 M-9.15 -20.25 Q-8.5 -19.85 -7.65 -18.3 L-6.75 -16.95 M-6.2 -16.45 Q-5.85 -16.25 -5.5 -16.25 L1.25 -17.85 M-20.7 -11.7 L-15.55 -15.15" fill="none" stroke="#660000" stroke-linecap="round" stroke-linejoin="round" stroke-opacity="0.6" stroke-width="1"/>
    <path d="M47.25 -61.9 Q47.85 -62.65 49.8 -63.6 52.2 -64.85 54.85 -65.35 M41.9 -58.5 L41.75 -58.25 44.8 -58.0 50.0 -57.75 M31.3 -63.6 L29.9 -62.15 M22.4 -73.25 L23.9 -76.75 M16.95 -74.65 Q14.9 -78.65 14.6 -79.6 L14.15 -80.6 M16.95 -74.65 L18.8 -71.15 M31.3 -63.6 L33.35 -65.35 M22.4 -73.25 L21.9 -71.9 21.6 -71.55 M51.45 -47.85 L52.75 -47.65 58.1 -47.1 M32.9 -34.9 L30.85 -35.1 M32.9 -34.9 L34.4 -34.75 38.25 -34.4 M50.9 -48.0 L51.45 -47.85 M-16.5 -75.1 L-16.4 -74.8 -16.35 -74.95 -16.15 -77.45 -16.0 -79.85 -15.85 -80.5 -15.75 -81.0 M-14.0 -65.45 L-13.25 -65.1 M-14.0 -65.45 L-16.25 -66.2 -18.05 -66.25 M-10.95 -39.3 L-10.0 -37.15 -9.75 -37.35 M-10.95 -39.3 L-11.55 -40.65 Q-13.05 -44.1 -13.0 -46.6" fill="none" stroke="#660000" stroke-linecap="round" stroke-linejoin="round" stroke-width="1"/>
    <path d="M-20.0 -9.75 L-23.9 -8.0 Q-26.9 -6.25 -26.9 -4.0 -26.35 -0.75 -26.35 -0.15 -26.35 1.65 -29.8 5.2 -33.55 9.0 -34.05 11.75 M-19.0 12.25 L-20.25 12.25 -20.75 12.8 Q-21.25 13.5 -21.25 14.8 -21.25 16.55 -17.4 22.65 L-19.3 26.8 Q-21.25 31.05 -21.25 31.75 M-12.1 17.8 L-11.95 18.1 Q-12.65 15.2 -13.3 14.55 L-13.3 15.25 -12.1 17.8 M-14.3 13.5 L-13.3 15.25 M-11.25 22.1 L-10.4 29.05 -10.25 27.35 Q-10.25 22.55 -11.95 18.1 L-11.25 22.1 M-5.85 18.15 L-5.2 21.8 -4.45 19.35 Q-3.3 16.75 -3.3 16.35 L-3.05 16.35 M-5.2 21.8 L-5.15 22.1 Q-4.4 26.6 -3.05 31.25 L-2.8 31.95 M-22.8 7.35 Q-24.55 8.35 -26.2 10.3 -28.65 13.2 -28.65 16.35 -28.65 17.55 -26.75 20.35 L-24.85 23.0 -26.8 25.75 Q-28.8 28.5 -29.0 30.25 M9.85 8.45 L10.0 8.9 Q10.0 9.75 8.05 11.45 L3.75 14.95 Q-2.55 20.35 -2.55 25.45 -2.55 29.2 -1.0 31.05 L-0.7 31.35 M-3.95 32.25 L-4.8 30.45 Q-5.6 28.2 -5.6 26.2 -5.6 23.7 -5.2 21.8 M-10.25 31.5 L-10.4 29.05 Q-10.75 30.75 -11.8 32.45 M10.75 13.0 Q11.15 12.45 11.7 12.05 12.65 11.25 13.8 11.25 15.3 11.25 16.1 13.75 16.85 16.05 16.85 20.1 18.9 16.95 18.9 15.8 18.9 12.75 17.6 11.75 M7.05 29.35 L8.15 24.3 Q8.15 22.0 6.5 19.25 L6.0 18.45 Q5.05 20.2 4.0 24.25 3.05 27.95 2.85 30.05 M3.8 16.1 Q4.85 16.8 6.0 18.45 L6.6 17.6 7.1 17.9 M14.05 13.0 Q12.6 13.2 10.65 15.85 8.15 19.25 8.15 23.65 8.15 26.35 9.25 27.55 10.25 28.6 12.25 28.65 M16.1 28.15 L16.55 24.0 16.85 20.3 16.85 20.1 15.85 21.6 Q12.75 26.0 12.75 27.65 12.75 29.2 14.05 30.4 14.4 30.75 16.85 32.5 M18.4 9.15 L21.0 17.6" fill="none" stroke="#660000" stroke-linecap="round" stroke-linejoin="round" stroke-width="1"/>
  </g>
</svg>