<?xml version="1.0" encoding="UTF-8" standalone="no"?>
<svg xmlns:xlink="http://www.w3.org/1999/xlink" height="43.1px" width="52.8px" xmlns="http://www.w3.org/2000/svg">
  <g transform="matrix(1.0, 0.0, 0.0, 1.0, 22.3, 24.2)">
    <path d="M6.95 -11.75 Q9.75 -14.8 11.4 -19.3 L12.8 -23.2 Q13.75 -23.2 17.35 -21.1 L15.2 -16.85 Q13.5 -13.25 13.5 -12.8 L16.55 -14.45 Q19.35 -16.1 21.3 -16.1 22.3 -16.1 24.9 -14.85 27.95 -13.5 29.5 -11.95 28.7 -11.8 27.8 -10.7 27.0 -9.6 26.9 -8.65 L21.95 -11.4 Q19.85 -12.45 17.75 -12.45 14.3 -12.45 11.8 -10.1 L11.8 -10.0 Q10.3 -11.55 6.95 -11.75 M-11.25 13.8 L-20.4 11.1 -21.3 3.85 -16.15 -5.7 -11.5 -7.95 -11.5 -11.55 -12.2 -15.05 -12.0 -15.35 -9.4 -14.95 Q-8.0 -14.5 -8.0 -13.5 L-8.4 -10.2 -8.25 -9.45 -4.3 -11.4 -3.7 -11.45 -3.3 -10.55 Q-1.7 -8.0 -1.05 -5.15 L-0.7 -4.25 Q-0.3 -3.45 -1.7 -3.15 L-2.65 -2.8 Q-5.1 -1.5 -5.45 -0.25 -5.65 0.85 -4.8 1.6 L-3.65 2.85 -2.5 4.75 -2.95 4.8 Q-8.25 7.25 -13.95 8.95 -13.55 9.65 -12.55 10.2 -11.8 10.85 -11.5 11.6 -11.05 12.55 -11.2 13.55 L-11.25 13.8 M-8.25 -9.45 L-11.5 -7.95 -8.25 -9.45" fill="#774d4d" fill-rule="evenodd" stroke="none"/>
    <path d="M11.8 -10.0 L11.9 -9.95 16.05 -6.15 Q18.45 -4.25 16.25 -1.7 15.55 -1.0 15.2 -0.1 L9.25 9.7 -6.25 15.15 -11.25 13.8 -11.2 13.55 Q-11.05 12.55 -11.5 11.6 -11.8 10.85 -12.55 10.2 -13.55 9.65 -13.95 8.95 -8.25 7.25 -2.95 4.8 L-2.5 4.75 -3.65 2.85 -4.8 1.6 Q-5.65 0.85 -5.45 -0.25 -5.1 -1.5 -2.65 -2.8 L-1.7 -3.15 Q-0.3 -3.45 -0.7 -4.25 L-1.05 -5.15 Q-1.7 -8.0 -3.3 -10.55 L-3.7 -11.45 5.65 -11.8 6.95 -11.75 Q10.3 -11.55 11.8 -10.0" fill="#53342d" fill-rule="evenodd" stroke="none"/>
    <path d="M6.95 -11.75 Q9.75 -14.8 11.4 -19.3 L12.8 -23.2 Q13.75 -23.2 17.35 -21.1 L15.2 -16.85 Q13.5 -13.25 13.5 -12.8 L16.55 -14.45 Q19.35 -16.1 21.3 -16.1 22.3 -16.1 24.9 -14.85 27.95 -13.5 29.5 -11.95 28.7 -11.8 27.8 -10.7 27.0 -9.6 26.9 -8.65 L21.95 -11.4 Q19.85 -12.45 17.75 -12.45 14.3 -12.45 11.8 -10.1 L11.8 -10.0 11.9 -9.95 16.05 -6.15 Q18.45 -4.25 16.25 -1.7 15.55 -1.0 15.2 -0.1 L9.25 9.7 -6.25 15.15 -11.25 13.8 -20.4 11.1 -21.3 3.85 -16.15 -5.7 -11.5 -7.95 -11.5 -11.55 -12.2 -15.05 -12.0 -15.35 -9.4 -14.95 Q-8.0 -14.5 -8.0 -13.5 L-8.4 -10.2 -8.25 -9.45 -4.3 -11.4 -3.7 -11.45 5.65 -11.8 6.95 -11.75 Q10.3 -11.55 11.8 -10.0 M-11.5 -7.95 L-8.25 -9.45" fill="none" stroke="#660000" stroke-linecap="round" stroke-linejoin="round" stroke-opacity="0.6" stroke-width="1"/>
    <path d="M10.75 -1.75 L12.25 -1.75 Q13.8 -2.0 15.1 0.05 L17.1 4.05 M16.35 -4.55 Q16.6 -4.1 18.05 -3.0 19.4 -1.65 19.4 0.5 19.4 2.35 17.35 8.05 L17.95 9.6 18.9 11.0 M7.9 -1.25 L9.65 -0.85 10.8 0.0 11.4 1.0 Q11.85 2.3 11.65 5.35 11.45 8.4 11.8 9.4 12.35 11.2 14.8 11.0 M10.8 0.0 L10.95 1.05 10.45 2.2 9.6 3.45 M0.15 1.65 L0.0 2.6 Q0.0 3.95 1.2 5.7 2.4 7.4 2.4 8.15 2.4 9.4 0.45 12.15 -1.2 14.45 -1.35 15.25 L-0.5 17.9 M5.1 3.05 Q5.1 3.7 5.8 5.85 L6.5 8.3 4.05 11.95 4.25 12.75 M-6.2 4.65 L-7.05 6.45 Q-7.05 7.15 -6.3 8.0 -5.55 8.8 -5.55 9.45 L-6.2 11.7 M-1.35 15.25 L-2.05 10.9 -2.5 5.35 M-13.25 2.85 L-14.05 3.6 -14.1 4.0 -13.15 5.4 Q-12.2 6.65 -12.2 7.0 L-12.9 8.65 -13.65 10.8 -13.55 11.4 Q-13.2 11.9 -12.05 12.0" fill="none" stroke="#660000" stroke-linecap="round" stroke-linejoin="round" stroke-opacity="0.6" stroke-width="1"/>
  </g>
</svg>