<?xml version="1.0" encoding="UTF-8" standalone="no"?>
<svg xmlns:xlink="http://www.w3.org/1999/xlink" height="29.3px" width="29.15px" xmlns="http://www.w3.org/2000/svg">
  <g transform="matrix(1.0, 0.0, 0.0, 1.0, 13.35, 13.45)">
    <path d="M7.9 -3.0 L10.7 -0.75 Q13.2 1.45 14.3 3.8 M-2.0 -8.15 Q-1.15 -9.0 0.85 -9.75 L3.9 -10.5 Q6.5 -10.5 8.5 -8.3 10.45 -6.1 12.4 -6.1 L14.8 -6.6 M10.75 7.15 L13.8 10.25" fill="none" stroke="#660000" stroke-linecap="round" stroke-linejoin="round" stroke-opacity="0.6" stroke-width="1"/>
    <path d="M1.1 -0.95 Q-0.7 -4.75 -3.05 -8.3 L-1.6 -8.55 -0.25 -8.95 Q0.55 -9.35 1.05 -10.05 L1.1 -10.15 1.1 -10.2 4.75 -8.95 10.85 1.2 9.0 10.05 8.75 11.4 Q8.65 14.05 6.25 14.2 L1.8 14.75 Q-0.25 15.2 -2.9 13.15 L-8.15 9.0 -7.4 8.6 Q-5.05 7.7 -3.2 6.15 L-2.5 5.75 Q-1.8 5.4 -2.45 4.55 L-2.9 4.0 Q-3.55 2.05 -3.05 1.2 -2.65 0.35 -1.7 0.25 L-0.4 0.0 1.2 -0.7 1.25 -0.75 1.1 -0.95" fill="#53342d" fill-rule="evenodd" stroke="none"/>
    <path d="M1.2 -0.7 L1.1 -0.95 1.25 -0.75 1.2 -0.7" fill="#b88672" fill-rule="evenodd" stroke="none"/>
    <path d="M1.1 -0.95 L1.2 -0.7 -0.4 0.0 -1.7 0.25 Q-2.65 0.35 -3.05 1.2 -3.55 2.05 -2.9 4.0 L-2.45 4.55 Q-1.8 5.4 -2.5 5.75 L-3.2 6.15 Q-5.05 7.7 -7.4 8.6 L-8.15 9.0 -8.5 8.65 -12.35 -0.05 -10.1 -8.25 -5.7 -12.45 1.1 -10.2 1.1 -10.15 1.05 -10.05 Q0.55 -9.35 -0.25 -8.95 L-1.6 -8.55 -3.05 -8.3 Q-0.7 -4.75 1.1 -0.95" fill="#774d4d" fill-rule="evenodd" stroke="none"/>
    <path d="M-5.7 -12.45 L-10.1 -8.25 -12.35 -0.05 -8.5 8.65 -8.15 9.0 -2.9 13.15 Q-0.25 15.2 1.8 14.75 L6.25 14.2 Q8.65 14.05 8.75 11.4 L9.0 10.05 10.85 1.2 4.75 -8.95" fill="none" stroke="#660000" stroke-linecap="round" stroke-linejoin="round" stroke-opacity="0.6" stroke-width="1"/>
  </g>
</svg>