<?xml version="1.0" encoding="UTF-8" standalone="no"?>
<svg xmlns:xlink="http://www.w3.org/1999/xlink" height="37.5px" width="29.1px" xmlns="http://www.w3.org/2000/svg">
  <g transform="matrix(1.0, 0.0, 0.0, 1.0, 15.65, 18.3)">
    <path d="M11.6 -5.5 L11.65 -5.35 11.45 -5.35 11.6 -5.5" fill="#8c5c48" fill-rule="evenodd" stroke="none"/>
    <path d="M3.4 -0.55 L3.3 -0.3 3.25 -0.3 3.4 -0.55" fill="#b88672" fill-rule="evenodd" stroke="none"/>
    <path d="M11.65 -5.35 L12.45 -1.55 9.75 3.6 8.35 2.3 Q5.7 0.05 5.7 -1.35 5.7 -3.75 7.45 -4.9 5.7 -3.75 5.7 -1.35 5.7 0.05 8.35 2.3 L9.75 3.6 6.7 9.25 2.55 10.7 -2.05 12.3 -2.5 12.5 Q-3.05 12.65 -3.4 12.85 -5.85 14.2 -7.25 12.2 -8.7 10.0 -10.1 8.45 -11.6 6.95 -11.2 3.5 L-10.35 -3.4 -9.65 -2.95 -9.55 -2.95 Q-7.55 -1.3 -5.15 -0.55 L-4.4 -0.15 Q-3.8 0.25 -3.35 -0.7 L-3.05 -1.45 Q-1.7 -3.05 -0.7 -3.05 0.25 -3.15 0.85 -2.3 L1.75 -1.3 3.25 -0.3 3.3 -0.3 3.4 -0.55 Q5.8 -4.15 7.7 -8.15 L8.75 -7.0 Q9.2 -6.3 9.8 -6.0 10.55 -5.5 11.45 -5.35 L11.65 -5.35 M-3.85 7.9 Q-2.5 8.4 -2.3 9.55 -2.15 10.2 -2.4 11.15 L-2.5 12.5 -2.4 11.15 Q-2.15 10.2 -2.3 9.55 -2.5 8.4 -3.85 7.9 M2.7 5.4 Q3.25 5.0 3.4 5.75 L3.45 6.9 2.55 10.7 3.45 6.9 3.4 5.75 Q3.25 5.0 2.7 5.4" fill="#53342d" fill-rule="evenodd" stroke="none"/>
    <path d="M-10.35 -3.4 L-10.15 -3.9 -9.5 -4.75 -9.35 -7.65 Q-9.35 -12.4 -10.6 -12.7 L-12.25 -12.75 Q-13.5 -12.8 -14.65 -13.5 -14.05 -13.3 -12.25 -14.6 L-9.9 -16.0 Q-7.45 -16.0 -7.4 -13.35 L-7.1 -8.7 -7.1 -8.5 -7.05 -8.55 Q-6.7 -9.3 -5.85 -12.75 -4.9 -16.5 -4.9 -17.3 L4.45 -17.3 Q2.65 -15.2 0.4 -13.9 L-1.0 -12.9 3.9 -14.3 10.0 -12.7 11.6 -5.5 11.45 -5.35 Q10.55 -5.5 9.8 -6.0 9.2 -6.3 8.75 -7.0 L7.7 -8.15 Q5.8 -4.15 3.4 -0.55 L3.25 -0.3 1.75 -1.3 0.85 -2.3 Q0.25 -3.15 -0.7 -3.05 -1.7 -3.05 -3.05 -1.45 L-3.35 -0.7 Q-3.8 0.25 -4.4 -0.15 L-5.15 -0.55 Q-7.55 -1.3 -9.55 -2.95 L-9.65 -2.95 -10.35 -3.4 M-2.1 -11.75 L-1.0 -12.9 -4.55 -11.95 -9.5 -4.75 -9.65 -2.95 -9.5 -4.75 -4.55 -11.95 -1.0 -12.9 -2.1 -11.75" fill="#774d4d" fill-rule="evenodd" stroke="none"/>
    <path d="M-10.35 -3.4 L-10.15 -3.9 -9.5 -4.75 -9.35 -7.65 Q-9.35 -12.4 -10.6 -12.7 L-12.25 -12.75 Q-13.5 -12.8 -14.65 -13.5 -14.05 -13.3 -12.25 -14.6 L-9.9 -16.0 Q-7.45 -16.0 -7.4 -13.35 L-7.1 -8.7 -7.1 -8.5 -7.05 -8.55 Q-6.7 -9.3 -5.85 -12.75 -4.9 -16.5 -4.9 -17.3 L4.45 -17.3 Q2.65 -15.2 0.4 -13.9 L-1.0 -12.9 3.9 -14.3 10.0 -12.7 11.6 -5.5 11.65 -5.35 12.45 -1.55 9.75 3.6 6.7 9.25 2.55 10.7 -2.05 12.3 -2.5 12.5 Q-3.05 12.65 -3.4 12.85 -5.85 14.2 -7.25 12.2 -8.7 10.0 -10.1 8.45 -11.6 6.95 -11.2 3.5 L-10.35 -3.4 M-9.65 -2.95 L-9.5 -4.75 -4.55 -11.95 -1.0 -12.9 -2.1 -11.75" fill="none" stroke="#660000" stroke-linecap="round" stroke-linejoin="round" stroke-opacity="0.6" stroke-width="1"/>
    <path d="M9.75 3.6 Q10.95 4.95 10.95 5.9 10.95 7.55 7.15 14.0 7.15 14.35 7.85 15.3 L8.95 16.7 M-2.5 12.5 L-2.4 11.15 Q-2.15 10.2 -2.3 9.55 -2.5 8.4 -3.85 7.9 M7.45 -4.9 Q5.7 -3.75 5.7 -1.35 5.7 0.05 8.35 2.3 L9.75 3.6 M2.55 10.7 L2.15 12.2 Q2.15 12.8 4.2 14.7 M-2.5 12.5 Q-3.0 14.3 -4.35 17.45 L-3.85 18.2 M2.55 10.7 L3.45 6.9 3.4 5.75 Q3.25 5.0 2.7 5.4" fill="none" stroke="#864e3d" stroke-linecap="round" stroke-linejoin="round" stroke-width="1"/>
  </g>
</svg>