<?xml version="1.0" encoding="UTF-8" standalone="no"?>
<svg xmlns:xlink="http://www.w3.org/1999/xlink" height="26.65px" width="26.55px" xmlns="http://www.w3.org/2000/svg">
  <g transform="matrix(1.0, 0.0, 0.0, 1.0, 11.9, 10.8)">
    <path d="M-5.8 0.75 L-5.65 1.15 -5.8 1.05 -5.8 0.75" fill="#b88672" fill-rule="evenodd" stroke="none"/>
    <path d="M-7.75 -5.95 Q-7.75 -6.35 -7.2 -6.65 L-6.0 -6.95 -7.75 -5.95 M-4.65 -6.7 L-4.3 -6.6 -4.65 -6.45 -4.65 -6.7 M-3.1 -7.3 L-2.6 -7.6 -2.75 -7.4 -3.1 -7.3 M-3.3 -1.7 L-3.25 -1.7 -3.35 -1.65 -3.3 -1.7 M0.3 -0.75 L0.25 -0.8 0.35 -0.8 0.3 -0.75" fill="#8c5c48" fill-rule="evenodd" stroke="none"/>
    <path d="M-1.35 -8.15 L0.45 -7.7 0.8 -7.2 Q4.1 -6.6 5.85 -5.8 7.6 -5.0 9.05 -4.55 L8.75 -1.8 12.1 0.35 9.05 4.75 7.85 7.7 3.45 8.15 3.0 3.75 4.9 2.65 4.6 0.7 2.15 2.0 0.9 1.2 -0.25 5.75 -4.05 5.35 -6.0 6.85 -6.85 6.2 -7.15 7.35 -10.9 7.55 -10.85 -0.95 -9.25 -1.05 -9.25 -1.1 -9.2 -1.75 Q-7.9 -1.75 -6.95 -2.45 -6.05 -3.15 -6.05 -4.1 L-5.95 -2.75 -2.75 -2.7 -2.4 -3.6 -0.05 -6.05 -1.35 -8.15 M-5.15 -0.9 L-5.95 -2.75 -5.15 -0.9 -5.95 0.4 -8.15 -0.35 -9.25 -1.05 -8.15 -0.35 -5.95 0.4 -5.8 0.75 -5.8 1.05 -5.65 1.15 Q-4.95 1.65 -3.8 1.75 L-2.45 1.8 Q-1.75 1.65 -1.0 1.3 L0.05 0.85 0.6 0.3 -1.15 -0.55 -1.25 -1.2 -1.3 -1.3 Q-2.1 -2.1 -3.25 -1.7 L-3.3 -1.7 -4.5 -2.0 -5.15 -0.9 M0.2 -0.8 L-1.25 -1.2 0.2 -0.8 0.25 -0.8 0.3 -0.75 0.35 -0.8 0.35 -0.85 0.2 -0.8 M0.8 -7.2 L2.3 -4.85 0.35 -0.85 2.3 -4.85 0.8 -7.2 M0.9 1.2 L1.2 0.25 0.3 -0.75 1.2 0.25 0.9 1.2 M7.65 -1.3 Q6.55 -1.3 5.75 -0.65 4.95 -0.05 4.95 0.85 4.95 1.75 5.75 2.4 6.55 3.0 7.65 3.0 8.75 3.0 9.55 2.4 10.35 1.75 10.35 0.85 10.35 -0.05 9.55 -0.65 8.75 -1.3 7.65 -1.3 M8.75 -1.8 Q7.05 -1.8 5.85 -1.2 4.6 -0.6 4.6 0.25 L0.35 -0.8 4.6 0.25 Q4.6 -0.6 5.85 -1.2 7.05 -1.8 8.75 -1.8 M-4.05 5.35 L-5.65 1.15 -4.05 5.35 M-2.45 1.9 L-3.2 2.1 -3.55 2.55 -3.2 3.0 -2.45 3.2 -1.65 3.0 Q-1.35 2.8 -1.35 2.55 -1.35 2.3 -1.65 2.1 L-2.45 1.9 M4.6 0.25 L4.6 0.7 4.6 0.25 M4.9 2.65 Q4.9 3.5 6.15 4.15 7.35 4.75 9.05 4.75 7.35 4.75 6.15 4.15 4.9 3.5 4.9 2.65 M-6.85 6.2 L-9.2 3.4 -8.15 -0.35 -9.2 3.4 -6.85 6.2" fill="#53342d" fill-rule="evenodd" stroke="none"/>
    <path d="M-9.2 -1.75 L-7.75 -5.95 -6.0 -6.95 -4.65 -6.7 -4.65 -6.45 -4.3 -6.6 -3.15 -7.3 -3.1 -7.3 -2.75 -7.4 -2.6 -7.6 -1.35 -8.15 -0.05 -6.05 -2.4 -3.6 -2.75 -2.7 -5.95 -2.75 -6.05 -4.1 Q-6.05 -5.05 -5.65 -5.75 -5.25 -6.45 -4.65 -6.45 -5.25 -6.45 -5.65 -5.75 -6.05 -5.05 -6.05 -4.1 -6.05 -3.15 -6.95 -2.45 -7.9 -1.75 -9.2 -1.75 M-5.15 -0.9 L-4.5 -2.0 -3.3 -1.7 -3.35 -1.65 -3.25 -1.7 Q-2.1 -2.1 -1.3 -1.3 L-1.25 -1.2 -3.25 -1.7 -1.25 -1.2 -1.15 -0.55 0.6 0.3 0.05 0.85 -1.0 1.3 Q-1.75 1.65 -2.45 1.8 L-3.8 1.75 Q-4.95 1.65 -5.65 1.15 L-5.8 0.75 -5.95 0.4 -5.15 -0.9 M7.65 -1.3 Q8.75 -1.3 9.55 -0.65 10.35 -0.05 10.35 0.85 10.35 1.75 9.55 2.4 8.75 3.0 7.65 3.0 6.55 3.0 5.75 2.4 4.95 1.75 4.95 0.85 4.95 -0.05 5.75 -0.65 6.55 -1.3 7.65 -1.3 M-2.45 1.9 L-1.65 2.1 Q-1.35 2.3 -1.35 2.55 -1.35 2.8 -1.65 3.0 L-2.45 3.2 -3.2 3.0 -3.55 2.55 -3.2 2.1 -2.45 1.9" fill="#774d4d" fill-rule="evenodd" stroke="none"/>
    <path d="M-1.35 -8.15 L0.45 -7.7 0.8 -7.2 Q4.1 -6.6 5.85 -5.8 7.6 -5.0 9.05 -4.55 L8.75 -1.8 12.1 0.35 9.05 4.75 7.85 7.7 3.45 8.15 3.0 3.75 4.9 2.65 4.6 0.7 2.15 2.0 0.9 1.2 -0.25 5.75 -4.05 5.35 -6.0 6.85 -6.85 6.2 -7.15 7.35 -10.9 7.55 -10.85 -0.95 -9.25 -1.05 -9.25 -1.1 -9.2 -1.75 -7.75 -5.95 Q-7.75 -6.35 -7.2 -6.65 L-6.0 -6.95 -4.65 -6.7 -4.3 -6.6 -4.65 -6.45 Q-5.25 -6.45 -5.65 -5.75 -6.05 -5.05 -6.05 -4.1 L-5.95 -2.75 -5.15 -0.9 -4.5 -2.0 -3.3 -1.7 -3.25 -1.7 -1.25 -1.2 0.2 -0.8 0.35 -0.85 2.3 -4.85 0.8 -7.2 M-3.15 -7.3 L-3.1 -7.3 -2.6 -7.6 -1.35 -8.15 M0.25 -0.8 L0.2 -0.8 M0.3 -0.75 L0.25 -0.8 0.35 -0.8 4.6 0.25 Q4.6 -0.6 5.85 -1.2 7.05 -1.8 8.75 -1.8 M0.3 -0.75 L1.2 0.25 0.9 1.2 M-9.25 -1.05 L-8.15 -0.35 -5.95 0.4 -5.15 -0.9 M-5.65 1.15 L-4.05 5.35 M-5.8 0.75 L-5.65 1.15 M-5.8 0.75 L-5.95 0.4 M-8.15 -0.35 L-9.2 3.4 -6.85 6.2 M9.05 4.75 Q7.35 4.75 6.15 4.15 4.9 3.5 4.9 2.65 M4.6 0.7 L4.6 0.25" fill="none" stroke="#660000" stroke-linecap="round" stroke-linejoin="round" stroke-opacity="0.6" stroke-width="1"/>
    <path d="M8.55 -3.05 L8.15 -2.7 Q9.9 -2.85 10.85 -1.35 11.55 -0.2 11.55 1.05 11.55 2.4 10.95 4.2 10.95 4.65 12.3 5.3 13.65 5.95 13.65 6.55 13.65 7.35 13.3 7.95 L12.6 8.85 M-3.5 -5.6 L-2.5 -7.3 Q-1.4 -8.8 0.75 -9.8 M-10.1 3.15 L-10.2 3.55 -10.35 4.2 Q-9.5 4.8 -6.6 4.8 L-7.8 6.6 Q-9.0 8.15 -9.0 8.65 L-8.85 9.3 M-6.15 3.95 Q-5.3 4.8 -5.3 5.65 L-6.25 8.15 Q-7.2 10.9 -7.2 12.9 -7.2 14.05 -6.15 14.85 M-3.5 3.65 Q-1.4 5.3 -1.4 6.55 L-2.4 10.95 -2.1 11.7" fill="none" stroke="#660000" stroke-linecap="round" stroke-linejoin="round" stroke-opacity="0.6" stroke-width="1"/>
  </g>
</svg>