<?xml version="1.0" encoding="UTF-8" standalone="no"?>
<svg xmlns:xlink="http://www.w3.org/1999/xlink" height="37.6px" width="46.15px" xmlns="http://www.w3.org/2000/svg">
  <g transform="matrix(1.0, 0.0, 0.0, 1.0, 41.25, 9.55)">
    <path d="M-28.8 -0.3 L-28.85 -0.25 -28.8 -0.3 M-6.0 3.3 L-6.95 3.55 -7.15 3.65 -6.65 2.75 -6.0 3.3" fill="#774d4d" fill-rule="evenodd" stroke="none"/>
    <path d="M-28.85 -0.25 L-28.8 -0.3 -28.85 -0.25 -32.1 1.3 Q-35.15 3.05 -34.95 4.8 -34.85 6.2 -35.1 12.3 -35.65 12.15 -38.1 8.7 L-36.75 3.95 -36.75 2.35 Q-36.65 1.65 -35.6 1.35 L-28.55 -1.0 -28.8 -0.3 -28.55 -1.0 -26.45 -1.65 -28.55 -1.0 -27.35 -3.4 Q-27.2 -3.65 -26.75 -3.75 L-21.6 -4.35 -21.45 -4.45 -20.4 -7.55 Q-20.15 -8.3 -19.1 -8.55 L-11.95 -7.35 Q-10.55 -7.2 -9.35 -6.5 L-8.55 -5.9 -5.7 -3.35 -4.8 -3.1 Q-2.8 -2.4 -2.75 -1.1 -2.7 0.2 -2.15 1.65 L-1.1 3.9 Q-0.75 4.85 0.5 6.0 L2.25 7.65 2.95 9.35 3.55 10.55 1.0 7.55 Q-0.7 5.7 -2.55 5.25 -3.25 5.1 -4.9 4.0 L-6.0 3.3 Q-5.05 3.1 -4.1 3.55 L-4.1 2.65 -3.95 1.45 Q-3.5 -0.25 -4.0 -1.8 L-4.6 -2.55 -5.7 -3.35 -4.6 -2.55 -4.0 -1.8 Q-3.5 -0.25 -3.95 1.45 L-4.1 2.65 -4.1 3.55 Q-5.05 3.1 -6.0 3.3 L-6.65 2.75 -7.15 3.65 -7.35 5.05 -7.25 5.9 Q-7.05 7.0 -6.2 8.3 L-4.35 10.4 Q-8.25 11.55 -12.05 16.0 -14.5 18.9 -14.85 21.0 L-15.3 17.95 Q-15.85 14.9 -16.5 14.4 L-13.7 12.0 -11.1 9.75 -12.4 8.0 -12.55 7.85 Q-12.75 8.05 -13.05 8.1 L-14.1 8.2 -21.4 8.6 Q-22.2 8.7 -22.45 7.9 L-23.0 6.4 -23.75 4.95 Q-24.3 5.0 -24.7 5.85 L-25.8 7.7 Q-26.5 8.7 -26.65 10.1 L-26.85 12.2 -26.85 14.3 Q-26.85 17.15 -27.0 17.6 -27.25 18.3 -29.25 20.4 L-29.4 20.4 Q-29.4 15.7 -29.8 13.4 L-30.2 10.65 Q-30.2 8.05 -27.85 5.55 L-25.5 2.9 Q-26.4 2.25 -27.65 1.8 L-28.55 1.6 Q-29.5 1.4 -29.15 0.5 L-28.85 -0.25 M-27.9 -0.3 L-28.8 -0.3 -27.9 -0.3 M-24.5 1.5 L-25.5 2.9 -24.5 1.5 M-7.5 -3.6 L-5.7 -3.35 -7.5 -3.6 M-12.55 7.85 L-12.4 7.6 Q-11.6 6.3 -11.2 4.8 L-11.05 4.6 Q-9.0 4.5 -7.15 3.65 -9.0 4.5 -11.05 4.6 L-11.2 4.8 Q-11.6 6.3 -12.4 7.6 L-12.55 7.85 -13.7 6.35 -12.55 7.85 M-23.75 4.95 L-25.15 3.2 -25.5 2.9 -25.15 3.2 -23.75 4.95 -20.25 4.35 -23.75 4.95" fill="#53342d" fill-rule="evenodd" stroke="none"/>
    <path d="M-28.8 -0.3 L-28.85 -0.25 -29.15 0.5 Q-29.5 1.4 -28.55 1.6 L-27.65 1.8 Q-26.4 2.25 -25.5 2.9 L-25.15 3.2 -23.75 4.95 -23.0 6.4 -22.45 7.9 Q-22.2 8.7 -21.4 8.6 L-14.1 8.2 -13.05 8.1 Q-12.75 8.05 -12.55 7.85 L-12.4 7.6 Q-11.6 6.3 -11.2 4.8 L-11.05 4.6 Q-9.0 4.5 -7.15 3.65 L-6.95 3.55 -6.0 3.3 Q-5.05 3.1 -4.1 3.55 L-4.1 2.65 -3.95 1.45 Q-3.5 -0.25 -4.0 -1.8 L-4.6 -2.55 -5.7 -3.35 -8.55 -5.9 -9.35 -6.5 Q-10.55 -7.2 -11.95 -7.35 L-19.1 -8.55 Q-20.15 -8.3 -20.4 -7.55 L-21.45 -4.45 -21.6 -4.35 -26.75 -3.75 Q-27.2 -3.65 -27.35 -3.4 L-28.55 -1.0 -28.8 -0.3 M-7.25 5.9 L-6.65 5.55" fill="none" stroke="#660000" stroke-linecap="round" stroke-linejoin="round" stroke-opacity="0.6" stroke-width="1"/>
    <path d="M-28.85 -0.25 L-28.8 -0.3 -27.9 -0.3 M-25.5 2.9 L-24.5 1.5 M-28.55 -1.0 L-35.6 1.35 Q-36.65 1.65 -36.75 2.35 L-36.75 3.95 -38.1 8.7 Q-35.65 12.15 -35.1 12.3 -34.85 6.2 -34.95 4.8 -35.15 3.05 -32.1 1.3 L-28.85 -0.25 M-28.55 -1.0 L-26.45 -1.65 M-5.7 -3.35 L-4.8 -3.1 Q-2.8 -2.4 -2.75 -1.1 -2.7 0.2 -2.15 1.65 L-1.1 3.9 Q-0.75 4.85 0.5 6.0 L2.25 7.65 2.95 9.35 3.55 10.55 3.6 10.55 3.9 10.8 3.9 10.95 3.6 10.55 M-6.0 3.3 L-4.9 4.0 Q-3.25 5.1 -2.55 5.25 -0.7 5.7 1.0 7.55 L3.55 10.55 M-5.7 -3.35 L-7.5 -3.6 M-7.15 3.65 L-7.35 5.05 -7.25 5.9 Q-7.05 7.0 -6.2 8.3 L-4.35 10.4 Q-8.25 11.55 -12.05 16.0 -14.5 18.9 -14.85 21.0 -15.1 22.25 -14.55 23.2 L-14.55 23.25 -14.55 23.4 -14.55 23.2 M-6.0 3.3 L-6.65 2.75 -7.15 3.65 M-12.55 7.85 L-12.4 8.0 -11.1 9.75 -13.7 12.0 -16.5 14.4 Q-15.85 14.9 -15.3 17.95 L-14.85 21.0 M-23.75 4.95 Q-24.3 5.0 -24.7 5.85 L-25.8 7.7 Q-26.5 8.7 -26.65 10.1 L-26.85 12.2 -26.85 14.3 Q-26.85 17.15 -27.0 17.6 -27.25 18.3 -29.25 20.4 L-29.4 20.4 Q-29.4 15.7 -29.8 13.4 L-30.2 10.65 Q-30.2 8.05 -27.85 5.55 L-25.5 2.9 M-23.75 4.95 L-20.25 4.35 M-12.55 7.85 L-13.7 6.35" fill="none" stroke="#660000" stroke-linecap="round" stroke-linejoin="round" stroke-width="1"/>
    <path d="M-7.4 0.75 L-3.3 5.8 Q0.65 10.5 1.5 13.1 M-9.5 8.0 L-10.0 8.5 -8.1 10.05 Q-6.4 11.6 -6.4 12.45 L-7.0 14.0 Q-7.65 15.75 -7.65 17.25 L-7.6 19.05 M-14.9 6.15 L-15.15 6.15 -15.4 8.55 Q-15.65 10.6 -16.0 11.3 L-17.85 14.55 -19.05 16.75 Q-19.05 17.85 -15.35 21.4 M-21.35 -0.5 Q-21.85 0.55 -23.3 1.75 -24.5 3.15 -24.5 5.9 -24.5 7.0 -23.55 8.55 -22.65 10.05 -22.65 10.3 L-24.45 12.1 -26.25 13.8 Q-25.55 15.8 -24.0 16.75 M-36.6 3.55 L-38.55 5.1 Q-40.25 6.85 -40.25 9.25 L-39.75 11.3 M-34.0 2.25 L-35.2 3.8 Q-35.85 4.65 -35.85 5.65 -35.85 6.35 -33.35 8.65 L-30.9 11.05 Q-30.9 11.65 -32.5 12.85 M-27.3 12.6 L-27.25 12.9 -25.7 16.5 Q-24.15 19.8 -24.15 20.5 L-25.55 23.35 -27.25 27.05" fill="none" stroke="#660000" stroke-linecap="round" stroke-linejoin="round" stroke-width="1"/>
  </g>
</svg>