<?xml version="1.0" encoding="UTF-8" standalone="no"?>
<svg xmlns:xlink="http://www.w3.org/1999/xlink" height="124.15px" width="73.55px" xmlns="http://www.w3.org/2000/svg">
  <g transform="matrix(1.0, 0.0, 0.0, 1.0, 37.3, 66.1)">
    <path d="M-36.1 46.25 L-36.3 43.4 Q-36.3 36.8 -32.9 -2.3 L-30.35 -30.8 -30.3 -31.5 -28.9 -45.65 -29.15 -46.1 -29.15 -46.2 -29.25 -46.5 Q-29.25 -48.9 -28.9 -51.0 L-28.15 -51.55 -27.3 -51.75 Q-26.55 -53.15 -24.6 -54.5 L-21.1 -57.1 Q-20.75 -58.4 -19.2 -60.4 L-18.95 -59.6 Q-18.65 -61.1 -16.7 -61.45 L-13.75 -61.8 Q-11.15 -64.8 -8.7 -64.8 L-8.5 -64.8 -8.5 -64.85 -8.55 -65.1 -7.5 -64.75 -7.0 -64.6 -6.95 -64.5 Q-6.4 -64.45 -5.8 -64.0 L-5.05 -63.95 -5.1 -63.45 -5.1 -63.3 Q-2.45 -61.45 -1.8 -60.15 L0.45 -56.55 Q2.55 -54.25 4.0 -53.15 6.55 -51.2 9.9 -50.25 13.25 -49.3 14.4 -48.2 15.55 -47.1 16.75 -46.35 17.9 -45.6 23.55 -44.4 26.8 -43.65 30.5 -41.75 34.05 -39.95 34.5 -38.7 L35.0 -38.55 35.2 -36.7 35.2 -36.25 Q35.35 -33.9 34.75 -33.25 L34.6 -30.9 34.0 -22.75 Q30.45 28.4 29.55 51.15 L28.0 51.85 28.05 51.1 30.95 -2.05 32.5 -22.75 32.75 -25.95 32.95 -30.9 33.0 -31.6 33.05 -32.1 Q33.6 -33.2 33.6 -34.25 L33.5 -35.1 33.45 -35.35 33.35 -35.55 33.3 -35.6 33.35 -35.85 34.05 -35.25 33.6 -37.6 31.65 -37.2 30.0 -37.4 28.6 -37.65 Q26.5 -38.1 25.5 -38.7 L22.4 -40.55 20.3 -41.75 20.05 -41.85 19.05 -42.05 12.45 -42.75 Q10.5 -42.9 8.85 -43.6 L8.75 -43.6 8.6 -43.7 8.15 -43.9 8.15 -44.0 5.9 -45.45 4.8 -44.65 Q3.9 -45.35 2.4 -45.35 1.5 -45.35 -1.15 -43.7 -2.8 -42.7 -4.1 -42.3 L-5.05 -42.35 -1.05 -44.9 -1.5 -44.45 -1.5 -44.4 0.75 -45.9 0.45 -45.85 3.35 -47.65 2.5 -49.05 2.55 -49.3 2.65 -49.3 2.6 -49.4 Q1.95 -50.65 -1.95 -53.1 -3.25 -54.55 -3.8 -56.7 L-3.9 -58.5 Q-3.9 -59.35 -4.3 -59.95 -4.35 -58.65 -5.05 -57.1 -6.1 -54.7 -8.1 -54.95 L-8.25 -55.1 Q-6.5 -55.8 -5.85 -58.0 L-5.0 -60.7 -4.9 -60.65 -7.4 -63.4 -7.05 -63.3 -7.6 -63.5 -8.25 -63.75 Q-15.8 -60.85 -18.05 -59.05 L-18.35 -53.7 -18.5 -53.45 -18.65 -53.7 -18.5 -58.65 -18.8 -58.3 -18.85 -58.35 Q-20.2 -56.8 -23.15 -54.8 -26.15 -52.8 -26.5 -51.35 L-26.9 -49.5 -26.25 -47.35 -27.25 -44.55 -27.5 -44.55 -27.55 -45.45 -27.4 -47.75 -28.0 -46.4 -28.75 -38.7 -29.2 -33.35 -29.35 -31.8 -29.45 -30.7 -30.3 -18.15 Q-32.7 5.4 -32.7 10.6 -32.7 13.8 -33.8 24.85 L-34.6 45.95 -34.7 47.55 -34.75 48.0 -36.05 46.6 -36.1 46.2 -36.1 46.25 M-12.75 -53.15 L-9.25 -53.65 Q-7.35 -55.0 -6.45 -54.95 L-5.75 -55.1 Q-6.3 -54.45 -6.25 -52.9 -6.2 -51.2 -6.5 -50.7 L-7.0 -50.7 -7.0 -54.1 -6.9 -54.3 Q-10.1 -51.5 -12.15 -51.3 L-9.55 -53.45 Q-11.3 -52.65 -12.2 -52.65 L-12.75 -52.85 -12.75 -53.15 M-3.0 -58.8 Q-2.9 -54.65 -0.6 -53.25 1.2 -52.1 2.8 -50.1 L3.55 -49.2 3.3 -49.15 3.85 -48.65 Q5.7 -48.6 10.0 -47.55 L4.1 -48.25 4.4 -47.3 Q4.4 -46.55 3.4 -46.55 L4.55 -45.9 5.7 -47.05 6.65 -46.5 8.75 -47.2 10.5 -46.85 10.55 -46.7 7.2 -46.1 7.55 -45.85 Q9.2 -44.6 10.0 -44.45 L10.05 -44.3 Q12.85 -43.5 19.2 -43.5 20.6 -43.5 23.85 -40.85 L26.45 -39.35 Q27.05 -39.15 27.6 -39.8 28.05 -40.35 31.2 -38.85 L31.8 -38.3 32.65 -38.55 29.4 -41.15 Q27.55 -42.55 22.65 -43.55 17.7 -44.55 14.8 -46.85 11.9 -49.2 8.3 -50.15 4.7 -51.15 1.6 -54.15 -1.45 -57.2 -3.05 -59.35 L-3.0 -58.8 M-12.75 -49.45 L-10.5 -51.1 -12.15 -49.2 -12.75 -49.45 M-16.5 -32.1 L-16.8 -28.7 -16.85 -28.65 -17.1 -30.35 Q-17.35 -31.95 -16.55 -32.25 L-16.5 -32.1 M-22.75 -44.6 Q-22.0 -42.5 -22.0 -41.9 L-22.7 -40.3 -22.85 -39.95 -23.95 -37.05 Q-24.35 -35.45 -24.35 -33.85 L-24.2 -32.65 -23.75 -31.35 -23.95 -31.15 Q-24.2 -31.3 -24.7 -32.8 L-24.5 -32.85 -24.2 -32.65 -24.4 -32.8 -24.55 -33.75 Q-24.55 -36.4 -23.5 -39.15 L-23.2 -39.8 -23.45 -39.8 -23.35 -40.15 -22.3 -42.05 Q-22.3 -43.15 -22.85 -43.85 L-22.85 -44.6 -22.75 -44.6 M-26.85 -20.9 L-27.65 -9.2 -27.75 -9.15 -27.9 -10.05 -27.0 -20.9 -26.85 -20.9 M-28.05 -7.45 Q-27.9 -6.55 -27.9 -5.5 L-28.1 -4.0 -28.25 -3.9 -28.5 -4.2 -28.25 -7.45 -28.05 -7.45 M-17.55 -22.95 Q-17.85 -23.15 -17.85 -23.85 L-17.85 -24.75 -17.55 -24.8 Q-17.25 -24.8 -17.25 -24.05 -17.25 -23.35 -17.4 -23.0 L-17.55 -22.95 M-19.35 -13.35 L-19.1 -12.3 -19.2 -11.9 -19.4 -11.9 -19.55 -13.25 -19.35 -13.35 M27.6 -3.7 L28.1 -5.65 28.3 -6.3 28.6 -7.3 28.95 -8.45 Q29.7 -11.25 29.7 -12.9 L29.4 -14.25 29.6 -20.7 29.65 -20.8 29.7 -21.85 29.75 -23.0 29.75 -23.25 29.85 -23.25 29.85 -21.8 29.85 -21.75 29.7 -14.45 30.0 -12.9 29.4 -8.3 29.05 -6.85 Q27.9 -2.25 27.75 -0.25 L27.65 -0.15 27.65 -0.55 27.45 -3.0 27.6 -3.7 M4.5 -33.15 L4.05 -30.0 Q3.75 -30.45 3.75 -30.75 L3.75 -31.95 Q3.8 -33.15 4.35 -33.3 L4.5 -33.15 M19.95 -26.45 L19.65 -26.25 Q19.2 -26.45 19.2 -26.7 L19.2 -27.0 19.5 -27.0 19.95 -26.45 M19.95 -20.0 Q18.95 -10.95 18.9 -8.9 L18.8 -8.85 18.6 -10.4 Q18.6 -12.0 19.15 -15.65 L19.95 -20.0 M21.0 -6.0 L21.3 -5.45 Q21.3 -3.7 20.85 -2.8 L20.7 -2.8 Q20.55 -3.15 20.55 -3.55 L20.85 -6.0 21.0 -6.0 M29.45 1.3 L29.45 1.2 29.55 1.3 28.85 12.3 28.65 12.35 28.35 10.7 28.35 10.35 28.8 5.45 Q29.2 1.9 29.45 1.3 M23.7 1.05 L23.9 1.05 24.15 1.65 24.15 2.1 23.85 2.25 23.7 1.25 23.7 1.05 M18.6 28.55 L18.15 34.65 18.05 34.7 17.85 31.95 18.15 27.6 18.3 27.6 18.6 28.55 M20.9 37.05 L21.15 38.7 Q21.15 39.85 20.75 40.8 20.4 40.55 20.4 40.15 L20.7 37.05 20.9 37.05 M-18.8 1.35 Q-18.35 1.35 -18.3 1.7 L-18.3 2.05 Q-18.3 2.55 -18.6 2.9 -19.25 3.0 -19.25 2.45 L-19.1 1.5 Q-19.2 1.35 -18.8 1.35 M-28.65 1.4 Q-28.35 1.5 -28.35 1.85 L-28.5 3.45 -28.8 3.6 -29.0 3.3 -29.2 2.2 Q-29.3 1.75 -28.65 1.4" fill="#a36a6a" fill-rule="evenodd" stroke="none"/>
    <path d="M22.55 54.0 Q18.4 55.35 13.55 56.15 15.0 51.85 15.0 48.6 15.0 45.55 14.2 42.1 L13.5 38.4 13.25 41.0 13.6 50.5 13.45 56.15 11.55 56.4 7.6 56.8 7.65 53.25 9.35 34.25 9.25 32.15 9.5 25.5 8.55 18.9 8.3 16.65 8.2 17.2 8.4 22.65 7.95 31.75 6.4 45.1 6.85 54.5 6.6 56.9 3.8 57.0 Q4.75 47.8 4.75 42.5 3.9 38.9 3.9 36.55 L5.75 18.7 5.9 18.7 6.0 19.85 5.5 31.1 5.9 38.9 5.85 38.05 6.7 31.9 Q7.75 25.75 7.85 18.7 L7.9 18.35 7.75 19.0 7.35 20.1 Q7.2 19.95 7.2 19.0 7.2 10.65 9.2 -5.85 9.75 -10.2 9.9 -18.2 10.05 -26.2 10.45 -30.2 L10.5 -30.6 10.8 -30.6 10.9 -30.0 Q11.7 -24.15 11.7 -14.7 9.15 0.1 8.85 2.85 L8.75 6.65 10.15 -0.35 10.25 -0.8 Q10.45 -5.25 11.75 -12.7 13.55 -23.45 13.55 -27.85 L13.6 -28.95 Q13.75 -30.25 14.25 -30.45 14.1 -30.15 14.1 -29.55 L14.2 -28.8 14.35 -27.05 14.75 -28.6 15.5 -30.65 15.65 -30.6 17.45 -33.5 18.55 -35.8 19.3 -36.95 19.4 -36.9 19.55 -37.5 19.75 -38.6 Q19.75 -39.85 19.0 -41.6 L19.05 -42.05 20.05 -41.85 20.3 -41.75 22.4 -40.55 25.5 -38.7 Q26.5 -38.1 28.6 -37.65 L28.35 -33.9 28.3 -33.7 Q28.1 -33.15 28.0 -31.9 L27.9 -29.3 28.0 -26.75 28.0 -26.45 27.8 -25.1 Q27.3 -20.85 26.9 -10.55 L27.6 -3.7 27.45 -3.0 27.65 -0.55 Q27.45 3.55 26.05 13.0 L26.05 12.85 Q24.6 -0.9 24.6 -5.65 24.6 -10.6 25.75 -18.65 L26.7 -25.55 26.8 -26.9 26.85 -26.85 27.0 -31.1 26.9 -32.55 26.55 -29.05 26.25 -27.1 26.15 -27.15 26.1 -25.8 Q25.85 -22.55 24.8 -17.15 24.0 -12.4 24.0 -5.55 24.0 -0.1 24.85 10.6 24.85 12.8 23.65 22.2 L22.5 33.8 Q22.5 34.75 23.15 35.7 23.8 33.65 24.45 28.9 L24.4 32.1 Q24.4 34.1 24.7 37.2 L24.3 36.7 Q23.0 37.7 23.0 41.85 23.0 48.65 22.55 54.0 M-3.0 -58.8 L-3.05 -59.35 Q-1.45 -57.2 1.6 -54.15 4.7 -51.15 8.3 -50.15 11.9 -49.2 14.8 -46.85 17.7 -44.55 22.65 -43.55 27.55 -42.55 29.4 -41.15 L32.65 -38.55 31.8 -38.3 31.2 -38.85 Q28.05 -40.35 27.6 -39.8 27.05 -39.15 26.45 -39.35 L23.85 -40.85 Q20.6 -43.5 19.2 -43.5 12.85 -43.5 10.05 -44.3 L10.0 -44.45 Q9.2 -44.6 7.55 -45.85 L7.2 -46.1 10.55 -46.7 10.5 -46.85 8.75 -47.2 6.65 -46.5 5.7 -47.05 4.55 -45.9 3.4 -46.55 Q4.4 -46.55 4.4 -47.3 L4.1 -48.25 10.0 -47.55 Q5.7 -48.6 3.85 -48.65 L3.3 -49.15 3.55 -49.2 2.8 -50.1 Q1.2 -52.1 -0.6 -53.25 -2.9 -54.65 -3.0 -58.8 M28.95 -8.45 L28.75 -14.45 Q28.75 -17.15 29.6 -20.7 L29.4 -14.25 29.7 -12.9 Q29.7 -11.25 28.95 -8.45 M17.25 -40.45 L16.7 -38.55 16.55 -38.15 16.65 -38.1 Q14.65 -33.1 14.25 -30.95 L13.9 -31.05 Q13.95 -32.3 14.65 -35.05 L15.1 -37.1 15.55 -38.6 15.35 -38.7 15.4 -38.95 16.25 -41.95 16.85 -41.2 17.25 -40.45 M7.35 -31.9 L7.6 -33.05 7.8 -33.0 8.1 -31.45 8.25 -28.0 Q5.3 4.45 1.95 14.25 L1.65 14.25 Q2.4 9.7 3.5 4.65 3.9 2.9 3.9 -0.95 3.9 -11.55 5.4 -17.4 6.15 -20.3 6.6 -25.6 6.95 -29.55 7.35 -31.9 M19.95 -20.0 L19.15 -15.65 Q18.6 -12.0 18.6 -10.4 L18.8 -8.85 18.9 -8.9 Q18.95 -10.95 19.95 -20.0 M19.95 -26.45 L19.5 -27.0 19.2 -27.0 19.2 -26.7 Q19.2 -26.45 19.65 -26.25 L19.95 -26.45 M14.95 -1.8 L14.65 1.45 14.5 12.6 14.5 23.8 14.2 25.85 14.25 27.15 14.05 31.15 14.25 30.1 Q15.1 25.7 15.0 23.6 L15.5 10.7 15.0 0.8 15.1 -2.25 14.95 -1.8 M21.0 -6.0 L20.85 -6.0 20.55 -3.55 Q20.55 -3.15 20.7 -2.8 L20.85 -2.8 Q21.3 -3.7 21.3 -5.45 L21.0 -6.0 M23.7 1.05 L23.7 1.25 23.85 2.25 24.15 2.1 24.15 1.65 23.9 1.05 23.7 1.05 M18.6 28.55 L18.3 27.6 18.15 27.6 17.85 31.95 18.05 34.7 18.15 34.65 18.6 28.55 M0.15 37.65 L-0.45 34.05 Q-0.75 40.85 -3.5 52.25 L-3.8 52.25 Q-3.95 52.55 -3.95 51.8 -3.95 48.25 -2.6 41.3 -1.25 34.3 -1.25 30.3 -1.25 19.0 -0.75 8.85 L-0.5 8.85 -0.45 9.15 Q-0.9 20.4 -0.7 27.25 L-0.45 24.2 -0.2 24.2 -0.45 28.5 0.45 36.8 0.35 37.65 0.15 37.65 M20.9 37.05 L20.7 37.05 20.4 40.15 Q20.4 40.55 20.75 40.8 21.15 39.85 21.15 38.7 L20.9 37.05 M24.9 46.25 L25.3 42.4 25.6 44.85 Q25.6 47.3 24.55 52.65 L24.9 46.25" fill="#e0cbcb" fill-rule="evenodd" stroke="none"/>
    <path d="M28.0 51.85 L24.1 53.4 22.55 54.0 Q23.0 48.65 23.0 41.85 23.0 37.7 24.3 36.7 L24.7 37.2 Q24.4 34.1 24.4 32.1 L24.45 28.9 Q23.8 33.65 23.15 35.7 22.5 34.75 22.5 33.8 L23.65 22.2 Q24.85 12.8 24.85 10.6 24.0 -0.1 24.0 -5.55 24.0 -12.4 24.8 -17.15 25.85 -22.55 26.1 -25.8 L26.15 -27.15 26.25 -27.1 26.55 -29.05 26.9 -32.55 27.0 -31.1 26.85 -26.85 26.8 -26.9 26.7 -25.55 25.75 -18.65 Q24.6 -10.6 24.6 -5.65 24.6 -0.9 26.05 12.85 L26.05 13.0 Q27.45 3.55 27.65 -0.55 L27.65 -0.15 27.75 -0.25 Q27.9 -2.25 29.05 -6.85 L29.4 -8.3 30.0 -12.9 29.7 -14.45 29.85 -21.75 29.85 -21.8 29.85 -23.25 29.75 -23.25 29.75 -23.0 29.7 -21.85 29.65 -20.8 29.6 -20.7 Q28.75 -17.15 28.75 -14.45 L28.95 -8.45 28.6 -7.3 28.3 -6.3 28.1 -5.65 27.6 -3.7 26.9 -10.55 Q27.3 -20.85 27.8 -25.1 L28.0 -26.45 28.0 -26.75 27.9 -29.3 28.0 -31.9 Q28.1 -33.15 28.3 -33.7 L28.35 -33.9 28.6 -37.65 30.0 -37.4 31.65 -37.2 33.6 -37.6 34.05 -35.25 33.35 -35.85 33.3 -35.6 33.35 -35.55 33.45 -35.35 33.5 -35.1 33.6 -34.25 Q33.6 -33.2 33.05 -32.1 L33.0 -31.6 32.95 -30.9 32.75 -25.95 32.5 -22.75 30.95 -2.05 28.05 51.1 28.0 51.85 M29.45 1.3 Q29.2 1.9 28.8 5.45 L28.35 10.35 28.35 10.7 28.65 12.35 28.85 12.3 29.55 1.3 29.45 1.2 29.45 1.3 M24.9 46.25 L24.55 52.65 Q25.6 47.3 25.6 44.85 L25.3 42.4 24.9 46.25" fill="#cca9a9" fill-rule="evenodd" stroke="none"/>
    <path d="M13.55 56.15 L13.45 56.15 13.6 50.5 13.25 41.0 13.5 38.4 14.2 42.1 Q15.0 45.55 15.0 48.6 15.0 51.85 13.55 56.15 M7.6 56.8 L6.6 56.9 6.85 54.5 6.4 45.1 7.95 31.75 8.4 22.65 8.2 17.2 8.3 16.65 8.55 18.9 9.5 25.5 9.25 32.15 9.35 34.25 7.65 53.25 7.6 56.8 M3.8 57.0 L0.75 57.05 Q-23.2 57.05 -32.05 50.55 L-34.75 48.0 -34.7 47.55 -34.6 45.95 -33.8 24.85 Q-32.7 13.8 -32.7 10.6 -32.7 5.4 -30.3 -18.15 L-29.45 -30.7 -29.35 -31.8 -29.2 -33.35 -28.75 -38.7 -28.0 -46.4 -27.4 -47.75 -27.55 -45.45 -27.5 -44.55 -27.25 -44.55 -26.25 -47.35 -26.9 -49.5 -26.5 -51.35 Q-26.15 -52.8 -23.15 -54.8 -20.2 -56.8 -18.85 -58.35 L-18.8 -58.3 -18.5 -58.65 -18.65 -53.7 -18.5 -53.45 -18.35 -53.7 -18.05 -59.05 Q-15.8 -60.85 -8.25 -63.75 L-7.6 -63.5 -7.05 -63.3 -7.4 -63.4 -4.9 -60.65 -5.0 -60.7 -5.85 -58.0 Q-6.5 -55.8 -8.25 -55.1 L-8.1 -54.95 Q-6.1 -54.7 -5.05 -57.1 -4.35 -58.65 -4.3 -59.95 -3.9 -59.35 -3.9 -58.5 L-3.8 -56.7 Q-3.25 -54.55 -1.95 -53.1 1.95 -50.65 2.6 -49.4 L2.65 -49.3 2.55 -49.3 2.5 -49.05 3.35 -47.65 0.45 -45.85 0.75 -45.9 -1.5 -44.4 -1.5 -44.45 -1.05 -44.9 -5.05 -42.35 -4.1 -42.3 Q-2.8 -42.7 -1.15 -43.7 1.5 -45.35 2.4 -45.35 3.9 -45.35 4.8 -44.65 L5.9 -45.45 8.15 -44.0 8.15 -43.9 8.6 -43.7 8.75 -43.6 8.85 -43.6 Q10.5 -42.9 12.45 -42.75 L19.05 -42.05 19.0 -41.6 Q19.75 -39.85 19.75 -38.6 L19.55 -37.5 19.4 -36.9 19.3 -36.95 18.55 -35.8 17.45 -33.5 15.65 -30.6 15.5 -30.65 14.75 -28.6 14.35 -27.05 14.2 -28.8 14.1 -29.55 Q14.1 -30.15 14.25 -30.45 13.75 -30.25 13.6 -28.95 L13.55 -27.85 Q13.55 -23.45 11.75 -12.7 10.45 -5.25 10.25 -0.8 L10.15 -0.35 8.75 6.65 8.85 2.85 Q9.15 0.1 11.7 -14.7 11.7 -24.15 10.9 -30.0 L10.8 -30.6 10.5 -30.6 10.45 -30.2 Q10.05 -26.2 9.9 -18.2 9.75 -10.2 9.2 -5.85 7.2 10.65 7.2 19.0 7.2 19.95 7.35 20.1 L7.75 19.0 7.9 18.35 7.85 18.7 Q7.75 25.75 6.7 31.9 L5.85 38.05 5.9 38.9 5.5 31.1 6.0 19.85 5.9 18.7 5.75 18.7 3.9 36.55 Q3.9 38.9 4.75 42.5 4.75 47.8 3.8 57.0 M-36.05 46.6 L-36.15 46.5 -36.1 46.25 -36.1 46.2 -36.05 46.6 M-12.75 -53.15 L-12.75 -52.85 -12.2 -52.65 Q-11.3 -52.65 -9.55 -53.45 L-12.15 -51.3 Q-10.1 -51.5 -6.9 -54.3 L-7.0 -54.1 -7.0 -50.7 -6.5 -50.7 Q-6.2 -51.2 -6.25 -52.9 -6.3 -54.45 -5.75 -55.1 L-6.45 -54.95 Q-7.35 -55.0 -9.25 -53.65 L-12.75 -53.15 M-19.35 -13.35 L-19.55 -13.25 -19.4 -11.9 -19.2 -11.9 -19.1 -12.3 -19.35 -13.35 M-17.55 -22.95 L-17.4 -23.0 Q-17.25 -23.35 -17.25 -24.05 -17.25 -24.8 -17.55 -24.8 L-17.85 -24.75 -17.85 -23.85 Q-17.85 -23.15 -17.55 -22.95 M-28.05 -7.45 L-28.25 -7.45 -28.5 -4.2 -28.25 -3.9 -28.1 -4.0 -27.9 -5.5 Q-27.9 -6.55 -28.05 -7.45 M-26.85 -20.9 L-27.0 -20.9 -27.9 -10.05 -27.75 -9.15 -27.65 -9.2 -26.85 -20.9 M-22.75 -44.6 L-22.85 -44.6 -22.85 -43.85 Q-22.3 -43.15 -22.3 -42.05 L-23.35 -40.15 -23.45 -39.8 -23.2 -39.8 -23.5 -39.15 Q-24.55 -36.4 -24.55 -33.75 L-24.4 -32.8 -24.2 -32.65 -24.5 -32.85 -24.7 -32.8 Q-24.2 -31.3 -23.95 -31.15 L-23.75 -31.35 -24.2 -32.65 -24.35 -33.85 Q-24.35 -35.45 -23.95 -37.05 L-22.85 -39.95 -22.7 -40.3 -22.0 -41.9 Q-22.0 -42.5 -22.75 -44.6 M-16.5 -32.1 L-16.55 -32.25 Q-17.35 -31.95 -17.1 -30.35 L-16.85 -28.65 -16.8 -28.7 -16.5 -32.1 M-12.75 -49.45 L-12.15 -49.2 -10.5 -51.1 -12.75 -49.45 M17.25 -40.45 L16.85 -41.2 16.25 -41.95 15.4 -38.95 15.35 -38.7 15.55 -38.6 15.1 -37.1 14.65 -35.05 Q13.95 -32.3 13.9 -31.05 L14.25 -30.95 Q14.65 -33.1 16.65 -38.1 L16.55 -38.15 16.7 -38.55 17.25 -40.45 M7.35 -31.9 Q6.95 -29.55 6.6 -25.6 6.15 -20.3 5.4 -17.4 3.9 -11.55 3.9 -0.95 3.9 2.9 3.5 4.65 2.4 9.7 1.65 14.25 L1.95 14.25 Q5.3 4.45 8.25 -28.0 L8.1 -31.45 7.8 -33.0 7.6 -33.05 7.35 -31.9 M4.5 -33.15 L4.35 -33.3 Q3.8 -33.15 3.75 -31.95 L3.75 -30.75 Q3.75 -30.45 4.05 -30.0 L4.5 -33.15 M14.95 -1.8 L15.1 -2.25 15.0 0.8 15.5 10.7 15.0 23.6 Q15.1 25.7 14.25 30.1 L14.05 31.15 14.25 27.15 14.2 25.85 14.5 23.8 14.5 12.6 14.65 1.45 14.95 -1.8 M0.15 37.65 L0.35 37.65 0.45 36.8 -0.45 28.5 -0.2 24.2 -0.45 24.2 -0.7 27.25 Q-0.9 20.4 -0.45 9.15 L-0.5 8.85 -0.75 8.85 Q-1.25 19.0 -1.25 30.3 -1.25 34.3 -2.6 41.3 -3.95 48.25 -3.95 51.8 -3.95 52.55 -3.8 52.25 L-3.5 52.25 Q-0.75 40.85 -0.45 34.05 L0.15 37.65 M-28.65 1.4 Q-29.3 1.75 -29.2 2.2 L-29.0 3.3 -28.8 3.6 -28.5 3.45 -28.35 1.85 Q-28.35 1.5 -28.65 1.4 M-18.8 1.35 Q-19.2 1.35 -19.1 1.5 L-19.25 2.45 Q-19.25 3.0 -18.6 2.9 -18.3 2.55 -18.3 2.05 L-18.3 1.7 Q-18.35 1.35 -18.8 1.35" fill="url(#gradient0)" fill-rule="evenodd" stroke="none"/>
    <path d="M33.7 -29.4 L33.55 -29.25 Q29.9 -31.15 20.75 -33.6 15.65 -34.95 8.85 -35.3 L-4.0 -37.25 Q-6.25 -37.5 -16.95 -37.4 L-29.15 -37.2 -29.35 -37.35 -26.8 -37.7 Q-24.35 -37.95 -21.55 -37.7 -18.5 -37.4 -11.7 -37.9 L-3.3 -37.55 9.9 -35.65 21.45 -33.75 28.35 -31.35 Q33.55 -30.5 33.7 -29.4 M23.9 -31.2 Q28.4 -30.25 33.5 -27.9 L33.45 -27.75 Q29.3 -29.85 23.9 -31.2 M1.7 -34.65 L-4.65 -35.35 -11.95 -35.95 -29.3 -35.7 -28.85 -35.85 Q-18.0 -36.85 -4.9 -35.55 L10.05 -34.35 Q13.75 -33.85 21.2 -31.8 L10.2 -34.1 1.7 -34.65 M8.95 -25.95 Q19.25 -24.25 20.9 -23.4 L27.45 -21.7 Q32.25 -20.6 32.15 -19.35 L32.1 -19.3 Q30.7 -20.8 26.95 -21.35 23.85 -21.7 20.55 -23.2 L14.8 -24.8 8.6 -25.85 2.85 -26.6 8.95 -25.95 M3.0 -24.1 L-10.0 -25.45 -16.55 -26.2 Q-20.95 -26.6 -30.6 -25.9 L-26.45 -26.5 Q-20.85 -27.0 4.5 -24.5 10.1 -24.25 19.9 -21.25 L26.85 -19.45 Q31.15 -18.3 32.25 -16.95 L32.1 -16.8 Q31.15 -17.9 26.35 -19.25 20.85 -20.7 18.9 -21.35 12.95 -23.45 3.0 -24.1 M-30.35 -27.55 L-27.7 -28.05 -22.1 -28.25 -22.95 -28.15 -30.35 -27.55 M-21.35 -28.3 Q-15.8 -28.8 -6.75 -28.0 L4.75 -26.45 -21.85 -28.25 -21.35 -28.3" fill="#a36a6a" fill-rule="evenodd" stroke="none"/>
  </g>
  <defs>
    <radialGradient cx="0" cy="0" gradientTransform="matrix(0.1074, 0.0, 0.0, 0.1074, -47.65, -21.45)" gradientUnits="userSpaceOnUse" id="gradient0" r="819.2" spreadMethod="pad">
      <stop offset="0.47843137254901963" stop-color="#ffffff"></stop>
      <stop offset="0.8823529411764706" stop-color="#f2eaea"></stop>
    </radialGradient>
  </defs>
</svg>