<?xml version="1.0" encoding="UTF-8" standalone="no"?>
<svg xmlns:xlink="http://www.w3.org/1999/xlink" height="110.5px" width="72.2px" xmlns="http://www.w3.org/2000/svg">
  <g transform="matrix(1.0, 0.0, 0.0, 1.0, 36.35, 55.25)">
    <path d="M25.3 -54.2 L25.35 -54.25 25.3 -54.2 M-34.35 44.75 L-33.85 40.65 -33.45 35.7 -32.95 27.75 -33.0 26.55 -32.9 26.35 -32.05 6.6 -32.15 6.6 -32.1 5.5 -32.15 5.2 -32.1 2.05 -31.95 -4.6 -31.95 -6.0 -31.8 -10.05 -31.25 -11.65 -31.25 -11.7 Q-30.35 -13.05 -28.15 -14.05 L-29.2 -16.1 -30.4 -18.05 -30.1 -20.15 -30.2 -20.4 -29.9 -22.0 -29.55 -25.0 Q-29.1 -33.3 -25.8 -40.65 -24.45 -42.75 -20.45 -45.9 L-20.05 -46.2 Q-15.25 -49.9 -8.0 -50.7 -1.65 -51.45 4.55 -49.6 10.65 -47.75 14.45 -42.5 18.25 -37.25 19.05 -30.55 L19.05 -30.3 Q19.05 -29.1 19.2 -28.3 L19.25 -28.15 19.15 -28.15 19.15 -25.15 Q19.25 -19.2 17.8 -13.6 L17.7 -11.9 17.7 -11.7 17.55 -10.3 16.95 -4.6 15.95 6.6 15.45 13.6 Q14.95 18.55 15.2 25.1 L14.85 30.4 Q14.35 40.05 14.35 46.4 14.35 48.95 14.5 50.8 L14.5 50.85 14.55 51.3 14.55 51.35 14.6 52.15 14.9 53.8 11.6 53.95 11.7 53.85 -11.4 52.1 -22.7 50.0 Q-25.1 49.6 -31.35 46.35 L-34.35 44.75 M17.6 -30.65 Q17.3 -30.45 17.3 -30.0 L17.6 -27.2 Q17.9 -27.2 18.05 -27.35 L18.15 -28.7 Q18.15 -29.65 17.6 -30.65 M9.8 50.85 L9.9 50.85 9.9 50.7 9.8 50.85 M-17.4 -43.6 L-12.95 -46.0 Q-13.6 -46.55 -17.5 -43.65 L-17.4 -43.6 M-11.05 -45.45 L-12.75 -45.0 -13.95 -43.95 -13.65 -43.8 Q-11.35 -44.15 -11.05 -45.45" fill="url(#gradient0)" fill-rule="evenodd" stroke="none"/>
    <path d="M30.0 -28.85 L29.95 -28.85 Q31.05 -25.5 31.05 -24.55 L30.65 -19.85 Q30.65 -19.15 30.95 -18.85 L31.15 -18.95 31.5 -23.55 Q31.5 -25.85 30.0 -28.85 M19.05 -30.55 L19.35 -29.3 19.4 -29.9 19.3 -32.25 Q19.0 -35.65 17.6 -38.85 15.45 -43.8 11.15 -47.45 L17.95 -44.65 Q22.1 -43.05 25.9 -39.95 29.65 -36.9 31.4 -33.3 32.35 -31.25 33.0 -28.15 L33.7 -23.0 33.7 -22.55 33.0 -13.6 32.9 -11.7 32.55 -6.6 32.4 -4.6 31.3 6.75 31.3 6.6 30.65 15.45 Q29.45 18.0 28.55 25.95 28.1 25.95 28.1 26.35 28.1 26.55 28.45 26.8 L28.45 26.85 26.55 46.25 26.35 41.45 26.35 34.95 25.8 29.7 25.2 33.25 Q24.05 38.75 23.65 43.2 L23.65 43.1 Q23.85 17.9 23.35 13.1 L21.8 26.65 Q20.85 33.45 20.25 39.15 L18.8 26.1 18.7 25.05 17.9 30.75 Q16.15 42.6 15.95 48.85 15.8 51.95 15.95 53.7 L15.25 53.75 15.3 51.15 15.3 50.75 Q15.5 39.05 15.85 30.45 L17.2 6.6 17.5 -0.3 17.55 -1.1 17.75 -4.6 18.35 -11.7 18.5 -13.6 19.3 -20.65 17.95 -13.6 17.7 -11.7 17.55 -10.3 17.7 -11.7 17.7 -11.9 17.8 -13.6 Q19.25 -19.2 19.15 -25.15 L19.15 -28.15 19.25 -28.15 19.2 -28.3 Q19.05 -29.1 19.05 -30.3 L19.05 -30.55 M30.4 -16.0 L30.5 -17.3 30.35 -18.6 Q30.1 -18.5 30.1 -17.15 30.1 -16.15 30.25 -15.9 L30.4 -16.0 M29.15 -2.75 L28.6 3.1 Q28.45 4.8 28.65 6.7 L28.85 21.3 29.15 16.75 29.15 15.75 29.35 10.2 29.2 5.1 Q29.1 3.45 29.25 1.95 L29.35 0.9 Q29.55 -0.65 29.25 -2.2 L29.15 -2.75 M24.85 47.85 L24.75 47.85 24.75 47.55 24.85 47.85 M21.65 52.5 L20.7 52.75 21.05 52.65 21.65 52.3 21.65 52.5" fill="#e0cbcb" fill-rule="evenodd" stroke="none"/>
    <path d="M30.0 -28.85 Q31.5 -25.85 31.5 -23.55 L31.15 -18.95 30.95 -18.85 Q30.65 -19.15 30.65 -19.85 L31.05 -24.55 Q31.05 -25.5 29.95 -28.85 L30.0 -28.85 M30.65 15.45 L31.3 6.6 31.3 6.75 32.4 -4.6 32.55 -6.6 32.9 -11.7 33.0 -13.6 33.7 -22.55 33.7 -23.0 33.0 -28.15 Q32.35 -31.25 31.4 -33.3 29.65 -36.9 25.9 -39.95 22.1 -43.05 17.95 -44.65 L11.15 -47.45 Q15.45 -43.8 17.6 -38.85 19.0 -35.65 19.3 -32.25 L19.4 -29.9 19.35 -29.3 19.05 -30.55 Q18.25 -37.25 14.45 -42.5 10.65 -47.75 4.55 -49.6 -1.65 -51.45 -8.0 -50.7 -15.25 -49.9 -20.05 -46.2 L-20.45 -45.9 Q-24.45 -42.75 -25.8 -40.65 -29.1 -33.3 -29.55 -25.0 L-29.9 -22.0 -30.2 -20.4 -30.1 -20.15 -30.4 -18.05 -29.2 -16.1 -28.15 -14.05 Q-30.35 -13.05 -31.25 -11.7 L-31.25 -11.65 -31.8 -10.05 -31.95 -6.0 -31.95 -4.6 -32.1 2.05 -32.15 5.2 -32.1 5.5 -32.15 6.6 -32.05 6.6 -32.9 26.35 -33.0 26.55 -32.95 27.75 -33.45 35.7 -33.85 40.65 -34.35 44.75 -34.5 45.75 -34.9 45.9 Q-35.3 45.5 -35.35 44.2 L-35.35 44.0 -35.15 40.65 -34.6 33.95 -34.45 32.5 -34.3 31.25 -34.6 32.55 -33.75 13.7 -33.55 6.6 Q-33.7 0.8 -33.25 -2.3 -33.15 -3.2 -33.2 -4.6 L-33.55 -8.3 Q-33.5 -10.0 -32.65 -11.4 L-32.65 -11.7 -32.45 -11.7 Q-31.55 -13.05 -29.9 -14.1 L-31.0 -16.1 -31.15 -16.3 Q-31.6 -17.0 -31.6 -17.9 L-31.35 -19.65 -30.85 -25.5 Q-30.45 -30.2 -29.0 -35.25 -27.6 -40.35 -26.0 -42.5 -24.4 -44.7 -22.1 -46.45 -20.4 -47.75 -18.2 -48.9 -12.95 -51.75 -7.2 -51.9 -1.45 -52.05 4.65 -50.55 10.75 -49.1 17.05 -46.5 23.35 -43.95 28.05 -39.75 32.75 -35.55 34.0 -29.5 35.25 -23.5 34.65 -17.65 34.0 -11.8 33.6 -5.25 L32.55 8.35 31.55 20.6 Q31.2 25.8 31.25 33.45 L31.05 44.65 30.75 49.05 30.55 50.85 30.4 50.85 30.2 48.55 30.05 46.45 29.95 45.55 29.95 45.05 29.7 40.4 Q29.7 30.05 30.4 24.25 L30.35 19.55 30.65 15.45 M17.55 -10.3 L17.7 -11.7 17.95 -13.6 19.3 -20.65 18.5 -13.6 18.35 -11.7 17.75 -4.6 17.55 -1.1 17.5 -0.3 17.2 6.6 15.85 30.45 Q15.5 39.05 15.3 50.75 L15.3 51.15 15.25 53.75 15.25 54.2 15.05 54.25 14.95 53.85 14.9 53.8 14.6 52.15 14.55 51.35 14.55 51.3 14.5 50.85 14.5 50.8 Q14.35 48.95 14.35 46.4 14.35 40.05 14.85 30.4 L15.2 25.1 Q14.95 18.55 15.45 13.6 L15.95 6.6 16.95 -4.6 17.55 -10.3 M28.45 26.8 Q28.1 26.55 28.1 26.35 28.1 25.95 28.55 25.95 L29.0 26.4 28.9 26.7 28.55 26.85 28.5 26.8 28.45 26.8 M17.6 -30.65 Q18.15 -29.65 18.15 -28.7 L18.05 -27.35 Q17.9 -27.2 17.6 -27.2 L17.3 -30.0 Q17.3 -30.45 17.6 -30.65 M30.4 -16.0 L30.25 -15.9 Q30.1 -16.15 30.1 -17.15 30.1 -18.5 30.35 -18.6 L30.5 -17.3 30.4 -16.0 M29.15 -2.75 L29.25 -2.2 Q29.55 -0.65 29.35 0.9 L29.25 1.95 Q29.1 3.45 29.2 5.1 L29.35 10.2 29.15 15.75 29.15 16.75 28.85 21.3 28.65 6.7 Q28.45 4.8 28.6 3.1 L29.15 -2.75 M-11.05 -45.45 Q-11.35 -44.15 -13.65 -43.8 L-13.95 -43.95 -12.75 -45.0 -11.05 -45.45 M-17.4 -43.6 L-17.5 -43.65 Q-13.6 -46.55 -12.95 -46.0 L-17.4 -43.6" fill="#a36a6a" fill-rule="evenodd" stroke="none"/>
    <path d="M30.65 15.45 L30.35 19.55 30.4 24.25 Q29.7 30.05 29.7 40.4 L29.95 45.05 29.95 45.55 30.05 46.45 30.2 48.55 30.25 49.25 30.25 49.3 26.4 50.95 26.3 51.0 24.1 51.75 24.1 51.8 23.0 52.1 21.9 52.45 21.65 52.5 21.65 52.3 21.05 52.65 20.7 52.75 19.1 53.15 17.95 53.35 17.05 53.5 15.95 53.7 Q15.8 51.95 15.95 48.85 16.15 42.6 17.9 30.75 L18.7 25.05 18.8 26.1 20.25 39.15 Q20.85 33.45 21.8 26.65 L23.35 13.1 Q23.85 17.9 23.65 43.1 L23.65 43.2 Q24.05 38.75 25.2 33.25 L25.8 29.7 26.35 34.95 26.35 41.45 26.55 46.25 28.45 26.85 28.45 26.8 28.5 26.8 28.55 26.85 28.9 26.7 29.0 26.4 28.55 25.95 Q29.45 18.0 30.65 15.45 M24.85 47.85 L24.75 47.55 24.75 47.85 24.85 47.85" fill="#cca9a9" fill-rule="evenodd" stroke="none"/>
  </g>
  <defs>
    <radialGradient cx="0" cy="0" gradientTransform="matrix(0.0092, -0.0879, 0.0473, 0.0049, -7.35, -22.9)" gradientUnits="userSpaceOnUse" id="gradient0" r="819.2" spreadMethod="pad">
      <stop offset="0.47843137254901963" stop-color="#ffffff"></stop>
      <stop offset="0.8823529411764706" stop-color="#f2eaea"></stop>
    </radialGradient>
  </defs>
</svg>