<?xml version="1.0" encoding="UTF-8" standalone="no"?>
<svg xmlns:xlink="http://www.w3.org/1999/xlink" height="11.4px" width="28.3px" xmlns="http://www.w3.org/2000/svg">
  <g transform="matrix(1.0, 0.0, 0.0, 1.0, 13.9, 5.25)">
    <path d="M-12.9 4.05 Q-12.8 3.25 -12.3 3.25 L-11.75 4.05 Q-11.75 4.75 -12.3 4.75 -12.9 4.65 -12.9 4.05 M-4.65 3.8 Q-4.1 3.75 -4.05 4.4 -4.1 4.85 -4.65 4.85 -5.25 4.8 -5.25 4.35 -5.2 3.75 -4.65 3.8 M-0.45 -2.1 L-1.15 -1.8 -0.8 3.95 -0.75 4.15 Q-0.15 4.35 0.2 4.9 L-0.15 5.1 -2.15 4.4 Q-2.2 4.0 -1.55 4.1 L-1.5 4.1 -1.55 -1.0 -1.45 -1.75 -1.6 -1.8 Q-2.3 -1.8 -2.25 -2.2 -2.3 -2.6 -1.4 -2.5 L-1.35 -2.5 -1.35 -2.6 -1.2 -2.6 -1.2 -2.5 Q-0.7 -2.5 -0.45 -2.1 M-10.0 -3.35 L-6.65 -2.9 -6.9 -2.8 -8.25 -2.7 -8.2 1.0 Q-8.2 2.85 -8.5 4.05 L-7.9 4.7 -8.5 4.95 Q-9.5 4.85 -9.45 4.5 -9.45 3.9 -8.85 4.0 L-8.7 4.0 -8.85 3.25 -8.75 0.75 -10.9 0.8 Q-12.7 0.7 -12.65 -1.25 -12.55 -3.3 -10.0 -3.35 M-11.25 -2.15 Q-12.15 -2.0 -12.1 -1.35 -12.05 -0.75 -11.5 -0.3 L-10.1 0.1 -8.75 0.15 -8.55 -2.7 -11.25 -2.15 M3.75 4.3 Q3.75 4.8 2.95 4.85 L2.4 4.4 Q2.4 3.75 3.4 3.85 3.75 3.85 3.75 4.3 M5.8 -1.45 Q5.8 -0.1 8.6 0.0 L10.75 -0.1 10.75 -0.2 Q10.75 -2.0 11.35 -3.15 L10.05 -3.25 Q5.85 -3.3 5.8 -1.45 M5.15 -1.4 Q5.25 -3.95 9.3 -4.0 11.65 -4.05 13.1 -3.25 L12.3 -3.05 11.5 -3.15 11.5 -2.6 11.95 3.25 11.95 4.25 12.5 4.8 Q12.35 5.05 11.8 5.1 L11.75 5.15 11.6 5.15 Q10.25 5.0 10.3 4.7 L10.3 4.45 11.45 4.25 10.9 0.35 8.75 0.8 Q7.1 2.6 6.75 4.2 L7.5 4.8 Q7.35 4.9 7.45 5.05 L7.1 5.1 Q5.25 4.9 4.95 4.4 5.6 4.2 6.95 2.15 L8.0 0.8 6.95 0.8 Q5.15 0.7 5.15 -1.4" fill="#ffffff" fill-rule="evenodd" stroke="none"/>
    <path d="M-12.0 4.5 Q-12.6 4.4 -12.6 3.8 -12.5 3.0 -12.0 3.0 L-11.45 3.8 Q-11.45 4.5 -12.0 4.5 M-4.35 3.55 Q-3.8 3.5 -3.75 4.15 -3.8 4.6 -4.35 4.6 -4.95 4.55 -4.95 4.1 -4.9 3.5 -4.35 3.55 M-9.7 -3.6 Q-7.0 -3.7 -6.35 -3.15 L-6.6 -3.05 -7.95 -2.95 -7.9 0.75 Q-7.9 2.6 -8.2 3.8 L-7.6 4.45 -8.2 4.7 Q-9.2 4.6 -9.15 4.25 -9.15 3.65 -8.55 3.75 L-8.4 3.75 -8.55 3.0 -8.45 0.5 -10.6 0.55 Q-12.4 0.45 -12.35 -1.5 -12.25 -3.55 -9.7 -3.6 M-11.8 -1.6 Q-11.75 -1.0 -11.2 -0.55 L-9.8 -0.15 -8.45 -0.1 -8.25 -2.95 -10.95 -2.4 Q-11.85 -2.25 -11.8 -1.6 M0.5 4.65 L0.15 4.85 -1.85 4.15 Q-1.9 3.75 -1.25 3.85 L-1.2 3.85 -1.25 -1.25 -1.15 -2.0 -1.3 -2.05 Q-2.0 -2.05 -1.95 -2.45 -2.0 -2.85 -1.1 -2.75 L-1.05 -2.75 -1.05 -2.85 -0.9 -2.85 -0.9 -2.75 Q-0.4 -2.75 -0.15 -2.35 L-0.85 -2.05 -0.5 3.7 -0.45 3.9 0.5 4.65 M3.25 4.6 Q2.7 4.5 2.7 4.15 2.7 3.5 3.7 3.6 4.05 3.6 4.05 4.05 4.05 4.55 3.25 4.6 M6.1 -1.7 Q6.1 -0.35 8.9 -0.25 L11.05 -0.35 11.05 -0.45 Q11.05 -2.25 11.65 -3.4 L10.35 -3.5 Q6.15 -3.55 6.1 -1.7 M5.45 -1.65 Q5.55 -4.2 9.6 -4.25 11.95 -4.3 13.4 -3.5 L12.6 -3.3 11.8 -3.4 11.8 -2.85 12.25 3.0 12.25 4.0 12.8 4.55 12.1 4.85 12.05 4.9 11.9 4.9 Q10.55 4.75 10.6 4.45 L10.6 4.2 11.75 4.0 11.2 0.1 9.05 0.55 Q7.4 2.35 7.05 3.95 7.75 4.3 7.8 4.55 7.65 4.65 7.75 4.8 L7.4 4.85 Q5.55 4.65 5.25 4.15 5.9 3.95 7.25 1.9 L8.3 0.55 7.25 0.55 Q5.45 0.45 5.45 -1.65" fill="#a36a6a" fill-rule="evenodd" stroke="none"/>
  </g>
</svg>