<?xml version="1.0" encoding="UTF-8" standalone="no"?>
<svg xmlns:xlink="http://www.w3.org/1999/xlink" height="45px" width="106px" xmlns="http://www.w3.org/2000/svg">
  <g transform="matrix(1.0, 0.0, 0.0, 1.0, 53, 22.3)">
    <path d="M11.05 -17.6 L11.05 -17.7 13.65 -18.15 22.05 -15.4 22.05 -15.45 24.85 -14.5 Q32.95 -11.65 41.0 -8.45 L40.7 -8.45 40.6 -8.3 41.75 -7.9 41.85 -7.85 41.75 -7.85 40.4 -8.1 41.75 -7.6 42.8 -7.2 Q42.65 -6.8 42.65 -6.0 42.65 -5.6 41.75 -5.25 L41.0 -4.8 40.85 -4.5 Q40.85 -3.65 43.2 -2.55 41.7 -1.8 41.7 -1.5 L41.75 -1.5 41.65 -1.45 40.9 -0.85 Q39.65 -0.2 39.65 0.55 L39.65 0.6 39.95 0.2 Q39.65 0.55 39.5 0.95 L39.7 0.8 39.8 0.95 Q38.35 1.45 37.55 3.55 36.95 4.1 36.95 5.5 L36.95 6.05 37.0 5.85 36.6 10.65 Q36.65 11.8 37.25 12.9 38.45 15.1 41.25 15.1 L41.75 15.1 Q48.1 10.95 46.85 2.5 46.5 0.1 45.05 -1.6 L43.9 -2.5 Q43.9 -3.1 41.5 -4.5 L43.0 -5.1 43.45 -5.65 43.3 -6.45 43.45 -6.95 Q50.35 -3.45 50.95 4.7 51.55 12.65 45.95 17.9 L43.55 19.4 42.9 19.6 38.1 20.5 37.55 20.55 37.0 19.55 36.8 19.8 37.0 19.5 Q35.0 18.65 33.95 16.4 L32.9 12.4 32.9 12.3 32.9 12.2 32.8 11.2 32.75 10.35 Q32.6 7.5 32.95 4.45 L32.5 4.6 32.45 4.4 33.25 3.65 Q34.3 1.95 34.45 0.1 L34.35 -2.0 Q34.0 -3.45 32.8 -3.2 L34.1 -1.25 Q34.05 0.6 33.4 2.15 L32.9 2.05 Q31.85 2.05 31.85 1.7 31.85 1.3 31.1 1.05 31.8 -0.95 31.75 -3.1 L30.2 -4.0 29.65 -3.95 31.15 -2.9 Q31.15 -0.95 30.55 0.9 L30.35 0.85 Q30.35 -0.35 29.3 -0.35 L28.65 0.2 28.85 -2.65 Q29.45 -5.75 26.6 -5.75 26.3 -5.6 26.2 -5.6 L26.2 -5.3 27.8 -4.4 27.95 -2.8 Q27.95 0.4 27.35 1.8 L27.6 0.95 26.9 1.25 Q26.6 1.25 26.3 0.75 26.05 0.25 25.5 0.25 26.0 -2.7 25.8 -6.35 L25.6 -8.1 25.4 -9.1 24.65 -9.5 24.95 -8.1 25.15 -6.3 Q25.4 -2.5 24.75 0.85 L24.7 1.2 24.45 1.15 Q24.0 1.15 23.3 2.45 23.7 -0.9 23.3 -7.15 L23.25 -8.1 22.95 -10.1 21.85 -10.5 22.35 -8.1 22.4 -7.05 Q22.95 1.4 21.9 5.15 L21.8 5.6 21.65 5.95 20.7 7.8 20.55 8.05 19.55 9.2 15.55 11.75 14.85 12.0 Q12.5 12.75 9.45 12.95 L7.65 13.0 7.9 12.4 7.9 12.25 8.2 11.85 Q3.95 10.05 3.45 2.55 L3.4 0.05 Q3.35 -4.15 4.15 -8.65 L4.25 -9.2 4.5 -10.45 4.5 -10.5 4.55 -10.7 6.45 -11.95 Q4.6 -8.75 4.1 -1.65 4.1 1.9 6.15 5.6 8.8 10.45 13.25 10.45 18.8 10.45 20.7 3.9 21.7 0.6 21.55 -3.15 L21.2 -6.95 20.45 -8.7 19.25 -10.55 Q20.6 -7.55 20.6 -3.7 20.55 -0.5 19.6 2.5 17.75 8.5 13.15 8.5 8.45 8.5 6.65 2.8 5.75 -0.1 5.8 -3.4 5.8 -5.7 7.1 -8.9 8.6 -13.0 11.3 -14.2 L10.45 -14.65 9.6 -14.55 10.05 -15.0 9.65 -16.35 Q9.65 -16.95 11.05 -17.5 L11.05 -17.6 M-49.75 1.5 L-49.55 1.5 -41.3 2.75 -30.55 3.6 -26.5 3.3 -20.1 3.05 -15.0 2.55 -12.35 2.6 -12.25 2.95 -37.5 4.5 -48.9 3.6 -49.75 1.5 M-48.75 3.9 Q-42.45 5.1 -31.6 5.1 L-8.2 4.2 -0.85 4.7 Q1.65 4.7 2.45 3.2 L2.55 5.65 2.6 5.75 2.6 5.85 2.7 6.25 3.25 8.1 3.5 8.65 3.5 8.7 4.6 10.75 -11.7 9.95 Q-19.45 8.8 -28.55 8.8 L-36.4 9.5 -34.55 9.3 -36.6 9.15 Q-37.3 9.15 -39.5 10.2 L-43.95 9.0 Q-44.3 9.0 -44.25 9.15 L-44.25 9.2 -44.35 9.1 Q-46.0 7.85 -47.25 6.3 L-48.75 3.9 M19.0 -7.8 L19.95 -6.2 20.0 -6.4 19.55 -8.1 Q17.9 -12.55 13.45 -12.55 12.05 -12.55 10.95 -11.65 8.25 -9.5 7.45 -1.95 L7.45 -0.95 7.4 -0.55 7.45 -0.05 7.5 0.0 Q7.6 1.35 8.0 2.65 9.3 6.95 13.3 6.95 16.3 6.95 17.7 4.35 18.6 2.7 18.6 0.85 L18.75 -2.65 Q19.25 -3.6 19.25 -4.35 19.25 -5.1 18.25 -6.35 17.0 -7.85 15.45 -7.85 L15.2 -7.6 14.75 -7.65 Q13.45 -7.65 12.7 -5.4 12.1 -3.75 12.1 -2.6 L12.15 -1.5 11.8 -1.3 10.3 -2.05 10.25 -2.05 10.35 -1.7 10.25 -1.75 10.35 -1.6 Q10.65 -0.45 11.2 0.5 12.55 2.65 15.45 2.65 16.7 2.65 17.55 1.8 L17.9 1.4 Q17.25 6.15 14.25 6.15 9.2 6.15 8.35 0.35 L8.45 0.25 Q9.5 -4.65 10.2 -6.0 11.95 -9.65 15.8 -9.65 16.55 -9.65 18.9 -7.4 L19.2 -7.4 19.0 -7.8 M12.6 -2.1 L12.55 -2.8 13.1 -5.0 Q13.95 -7.1 15.25 -7.1 16.25 -7.1 16.9 -6.5 18.15 -6.4 18.15 -4.6 L18.05 -3.15 18.05 -3.0 18.05 -2.95 18.0 -2.65 17.65 -2.75 Q17.15 -2.75 16.55 -3.3 16.0 -3.85 15.15 -3.85 13.65 -3.85 12.85 -2.55 L12.6 -2.1 M29.35 -7.0 L33.9 -5.55 25.95 -9.05 29.35 -7.0 M40.45 -2.9 L40.1 -3.05 Q37.8 -3.05 35.55 1.65 33.65 5.5 33.65 6.75 33.65 10.75 34.35 13.05 35.9 18.55 40.7 18.55 44.5 18.55 47.45 14.5 50.35 10.55 50.35 5.6 50.35 -1.8 44.45 -4.25 L44.35 -4.1 Q48.7 -1.15 48.7 4.7 48.7 8.45 46.9 11.85 44.4 16.55 39.65 16.55 36.65 16.55 35.4 11.95 34.75 9.45 34.75 6.75 34.75 6.0 36.65 1.9 L40.45 -2.9 M-31.2 12.45 L9.2 13.85 9.85 14.8 Q11.1 16.6 11.5 21.7 6.15 19.1 1.0 17.9 -14.7 13.9 -31.8 19.3 L-31.5 15.35 -31.2 12.45 M38.7 3.3 Q39.6 1.7 41.0 1.7 L41.75 2.0 43.1 3.05 Q43.9 3.95 43.85 5.2 L43.55 5.95 Q43.2 6.55 42.6 6.55 41.25 6.55 40.05 4.9 L38.7 3.3 M41.1 8.25 L41.5 8.15 41.6 8.05 41.8 8.05 41.75 8.1 41.1 8.25 M27.05 3.6 L26.9 3.45 27.25 3.6 Q30.8 3.8 30.8 5.65 30.1 9.35 29.45 9.35 28.15 9.35 28.7 6.25 L27.95 6.1 Q27.6 6.1 26.55 7.15 L24.95 8.15 Q24.3 8.15 24.05 7.6 23.9 7.3 23.9 7.0 23.9 6.45 24.65 5.1 25.45 3.55 26.15 3.55 L27.05 3.6 M26.8 11.15 L26.5 11.65 26.15 11.65 Q25.1 11.65 24.7 11.0 L24.5 10.3 Q24.5 9.35 26.9 9.35 27.55 9.35 27.8 10.6 L27.65 11.15 27.45 11.1 26.9 10.95 26.8 11.15 M32.4 15.5 L32.45 15.55 32.4 15.55 32.4 15.5 M3.2 13.0 L-17.35 12.35 -20.25 12.25 -20.1 12.15 -24.6 11.05 -29.15 10.35 -29.7 10.55 -21.65 12.2 -41.0 11.05 -42.75 10.15 Q-41.4 10.7 -40.25 10.7 -39.15 10.7 -38.25 10.1 -37.65 9.7 -36.4 9.6 L-36.4 9.7 -34.35 9.85 -33.3 9.95 -32.45 10.2 -32.2 10.0 -14.1 11.45 3.2 13.0" fill="#e0cbcb" fill-rule="evenodd" stroke="none"/>
    <path d="M9.6 -14.55 L10.45 -14.65 11.3 -14.2 Q8.6 -13.0 7.1 -8.9 5.8 -5.7 5.8 -3.4 5.75 -0.1 6.65 2.8 8.45 8.5 13.15 8.5 17.75 8.5 19.6 2.5 20.55 -0.5 20.6 -3.7 20.6 -7.55 19.25 -10.55 L20.45 -8.7 21.2 -6.95 21.55 -3.15 Q21.7 0.6 20.7 3.9 18.8 10.45 13.25 10.45 8.8 10.45 6.15 5.6 4.1 1.9 4.1 -1.65 4.6 -8.75 6.45 -11.95 L7.5 -12.75 9.6 -14.55 M7.9 12.25 L7.9 12.4 7.65 13.0 3.2 13.0 -14.1 11.45 -32.2 10.0 -32.4 10.0 -33.2 9.95 -34.9 9.35 -36.05 9.45 -34.35 9.85 -36.4 9.7 -36.4 9.6 -36.4 9.5 -28.55 8.8 Q-19.45 8.8 -11.7 9.95 L4.6 10.75 4.65 10.85 Q5.95 12.45 7.7 12.35 L7.9 12.25 M23.3 2.45 Q24.0 1.15 24.45 1.15 L24.7 1.2 23.8 4.55 23.1 6.9 23.0 7.3 22.6 8.55 22.9 8.7 23.35 7.5 23.6 6.75 24.4 4.4 25.2 1.6 25.4 0.9 25.4 0.8 25.5 0.25 Q26.05 0.25 26.3 0.75 26.6 1.25 26.9 1.25 L27.6 0.95 27.35 1.8 26.95 2.35 26.9 2.4 26.9 2.45 26.05 2.8 25.75 2.75 25.85 3.0 25.85 3.1 26.4 3.2 Q28.15 3.2 28.65 0.2 L29.3 -0.35 Q30.35 -0.35 30.35 0.85 L30.55 0.9 29.5 3.1 27.95 2.95 29.75 3.75 31.1 1.05 Q31.85 1.3 31.85 1.7 31.85 2.05 32.9 2.05 L33.4 2.15 32.85 3.2 Q32.25 4.15 31.3 3.85 L31.45 4.4 32.45 4.4 32.5 4.6 32.35 4.6 32.1 4.6 Q31.85 7.05 31.85 9.95 L31.9 12.15 31.95 12.9 Q30.8 12.05 27.65 11.15 L27.8 10.6 Q27.55 9.35 26.9 9.35 24.5 9.35 24.5 10.3 L24.7 11.0 Q25.1 11.65 26.15 11.65 L26.5 11.65 26.8 11.15 26.15 12.55 26.8 13.3 26.8 13.5 27.35 14.05 27.95 15.7 Q27.95 16.6 27.05 16.6 26.0 16.6 20.6 14.4 L16.85 12.85 17.1 13.0 11.5 21.7 Q11.1 16.6 9.85 14.8 L9.2 13.85 10.85 13.75 11.05 13.75 11.5 13.7 Q14.45 13.4 16.75 12.3 L17.6 11.85 17.85 11.65 Q19.65 10.5 20.9 8.75 L22.6 5.35 23.05 3.8 23.3 2.45 M36.8 19.8 L37.0 19.55 37.55 20.55 33.8 20.55 32.35 20.5 32.15 20.05 32.15 19.1 32.4 15.55 32.45 15.55 32.6 16.1 34.2 19.0 34.25 19.05 Q35.25 20.05 36.55 19.95 L36.65 19.95 36.8 19.8 M37.0 5.85 L36.95 6.05 36.95 5.5 Q36.95 4.1 37.55 3.55 L37.6 3.55 37.3 4.4 37.05 5.4 37.0 5.55 37.0 5.85 M39.8 0.95 L39.7 0.8 39.95 0.6 40.55 -0.05 40.8 -0.35 41.75 -0.95 43.95 -1.45 44.8 0.35 Q46.8 5.3 44.9 11.2 44.1 13.75 41.75 14.2 38.55 14.0 37.6 11.55 37.1 10.15 37.3 8.55 L37.95 5.1 Q38.25 4.0 38.7 3.3 L40.05 4.9 Q41.25 6.55 42.6 6.55 43.2 6.55 43.55 5.95 L43.85 5.2 Q43.9 3.95 43.1 3.05 L42.95 1.9 42.9 1.85 42.85 1.8 42.6 1.55 42.5 1.45 42.35 1.35 Q42.1 1.1 41.75 1.0 L40.7 0.8 39.8 0.95 M39.95 0.2 L39.65 0.6 39.65 0.55 Q39.65 -0.2 40.9 -0.85 L40.95 -0.85 40.45 -0.4 39.95 0.2 M8.35 0.35 Q8.2 -0.75 8.2 -2.0 L8.2 -2.1 9.2 -6.9 Q9.9 -8.8 10.95 -9.95 12.5 -11.65 14.75 -11.65 16.45 -11.65 18.05 -9.45 L18.85 -8.1 18.9 -8.0 19.0 -7.8 19.2 -7.4 18.9 -7.4 Q16.55 -9.65 15.8 -9.65 11.95 -9.65 10.2 -6.0 9.5 -4.65 8.45 0.25 L8.35 0.35 M7.45 -0.95 L7.5 0.0 7.45 -0.05 7.4 -0.55 7.45 -0.95 M12.15 -1.5 L12.15 -1.35 Q12.3 -0.65 12.9 -0.35 L13.1 -0.85 Q12.65 -1.05 12.6 -2.1 L12.85 -2.55 Q13.65 -3.85 15.15 -3.85 16.0 -3.85 16.55 -3.3 17.15 -2.75 17.65 -2.75 L18.0 -2.65 Q17.8 -1.75 17.4 -1.15 L18.1 -1.75 18.0 0.65 18.0 0.85 17.95 1.4 17.9 1.4 17.55 1.8 Q16.7 2.65 15.45 2.65 12.55 2.65 11.2 0.5 10.65 -0.45 10.35 -1.6 L10.25 -1.75 10.35 -1.7 10.25 -2.05 10.3 -2.05 11.8 -1.3 12.15 -1.5 M40.45 -2.9 L36.65 1.9 Q34.75 6.0 34.75 6.75 34.75 9.45 35.4 11.95 36.65 16.55 39.65 16.55 44.4 16.55 46.9 11.85 48.7 8.45 48.7 4.7 48.7 -1.15 44.35 -4.1 L44.45 -4.25 Q50.35 -1.8 50.35 5.6 50.35 10.55 47.45 14.5 44.5 18.55 40.7 18.55 35.9 18.55 34.35 13.05 33.65 10.75 33.65 6.75 33.65 5.5 35.55 1.65 37.8 -3.05 40.1 -3.05 L40.45 -2.9 M41.1 8.25 L40.95 8.25 40.85 8.25 40.7 8.4 40.65 8.25 Q40.1 8.15 40.1 7.5 L40.1 7.45 39.95 7.3 39.6 7.7 39.75 8.65 39.4 8.6 39.35 8.65 39.35 8.7 39.4 8.85 39.35 8.85 Q39.45 9.5 40.45 9.5 L41.75 9.35 43.1 8.3 43.05 8.3 43.8 7.55 43.6 6.3 43.25 7.0 43.2 7.15 43.1 7.25 42.45 8.1 43.1 6.95 41.8 8.05 41.6 8.05 41.5 8.15 41.1 8.25 M27.05 3.6 L26.15 3.55 Q25.45 3.55 24.65 5.1 23.9 6.45 23.9 7.0 23.9 7.3 24.05 7.6 24.3 8.15 24.95 8.15 L26.55 7.15 Q27.6 6.1 27.95 6.1 L28.7 6.25 Q28.15 9.35 29.45 9.35 30.1 9.35 30.8 5.65 30.8 3.8 27.25 3.6 L26.9 3.45 27.05 3.6" fill="#cca9a9" fill-rule="evenodd" stroke="none"/>
    <path d="M22.05 -15.45 L22.05 -15.4 13.65 -18.15 11.05 -17.7 11.05 -17.6 10.95 -17.7 10.5 -17.85 Q8.4 -17.85 6.15 -17.1 L5.2 -16.7 5.05 -16.15 3.5 -15.3 3.25 -13.9 3.05 -13.95 Q1.85 -13.1 0.6 -13.1 L-1.9 -13.55 -3.0 -12.5 Q-3.75 -11.45 -4.7 -11.45 L-7.1 -12.3 -7.5 -12.2 -7.5 -11.85 -5.2 -10.95 Q-6.05 -10.65 -6.05 -10.1 L-5.85 -9.8 -4.35 -10.85 Q-3.6 -10.9 -2.8 -11.85 L-1.8 -12.9 Q0.35 -12.9 1.3 -12.15 L2.3 -12.4 2.1 -11.7 Q2.1 -10.2 3.35 -10.2 L3.7 -10.25 3.75 -10.3 Q2.15 -4.9 2.45 3.2 1.65 4.7 -0.85 4.7 L-8.2 4.2 -31.6 5.1 Q-42.45 5.1 -48.75 3.9 L-48.9 3.6 -37.5 4.5 -12.25 2.95 -12.35 2.6 -15.0 2.55 -20.1 3.05 -26.5 3.3 -30.55 3.6 -41.3 2.75 -49.55 1.5 -49.75 1.5 Q-50.55 -0.95 -50.75 -3.9 -51.1 -9.05 -49.5 -12.85 -46.85 -19.2 -39.3 -19.85 L-31.55 -20.0 -30.95 -20.05 -30.9 -20.0 -30.4 -19.85 -30.25 -19.85 -29.85 -18.15 Q-29.65 -16.65 -27.25 -16.65 -24.65 -16.7 -24.45 -16.2 L-24.05 -13.85 Q-23.5 -12.15 -21.3 -12.15 L-20.35 -12.3 -20.25 -12.6 -20.4 -12.9 Q-23.2 -13.35 -23.4 -14.4 L-23.75 -16.7 Q-24.8 -18.45 -26.8 -17.55 -28.55 -16.75 -28.95 -18.6 L-29.3 -19.95 -29.05 -20.05 Q-15.05 -20.3 -8.7 -20.0 -2.4 -19.7 4.9 -19.65 L9.65 -19.4 22.05 -15.45 M3.45 -12.95 Q3.45 -14.2 4.8 -15.15 7.3 -16.7 9.5 -16.7 9.9 -16.7 9.6 -16.65 9.35 -15.65 8.1 -13.8 7.6 -12.95 6.3 -12.2 L4.2 -10.8 3.45 -12.95 M-42.5 -1.5 L-42.9 -1.55 -43.35 -1.5 -43.2 -0.9 -42.9 -0.9 Q-42.65 -0.9 -42.45 -1.05 L-42.5 -1.5 M-45.7 -3.15 Q-46.2 -3.15 -46.2 -2.65 -46.3 -2.0 -45.3 -2.0 -44.4 -2.0 -44.4 -2.55 L-44.4 -2.7 -45.7 -3.15 M-9.45 -0.5 L-11.25 -0.15 -11.25 0.15 -10.55 0.2 Q-9.4 0.8 -8.4 0.8 -4.9 0.8 -4.1 0.0 L-4.5 -0.05 -8.0 0.3 Q-9.0 0.3 -9.45 -0.5" fill="url(#gradient0)" fill-rule="evenodd" stroke="none"/>
    <path d="M22.05 -15.45 L9.65 -19.4 4.9 -19.65 Q-2.4 -19.7 -8.7 -20.0 -15.05 -20.3 -29.05 -20.05 L-29.3 -19.95 -28.95 -18.6 Q-28.55 -16.75 -26.8 -17.55 -24.8 -18.45 -23.75 -16.7 L-23.4 -14.4 Q-23.2 -13.35 -20.4 -12.9 L-20.25 -12.6 -20.35 -12.3 -21.3 -12.15 Q-23.5 -12.15 -24.05 -13.85 L-24.45 -16.2 Q-24.65 -16.7 -27.25 -16.65 -29.65 -16.65 -29.85 -18.15 L-30.25 -19.85 -30.4 -19.85 -30.45 -20.1 -30.9 -20.0 -30.95 -20.05 -31.55 -20.0 -39.3 -19.85 Q-46.85 -19.2 -49.5 -12.85 -51.1 -9.05 -50.75 -3.9 -50.55 -0.95 -49.75 1.5 L-48.9 3.6 -48.75 3.9 -47.25 6.3 Q-46.0 7.85 -44.35 9.1 L-44.25 9.2 -44.25 9.15 Q-44.3 9.0 -43.95 9.0 L-39.5 10.2 Q-37.3 9.15 -36.6 9.15 L-34.55 9.3 -36.4 9.5 -36.4 9.6 Q-37.65 9.7 -38.25 10.1 -39.15 10.7 -40.25 10.7 -41.4 10.7 -42.75 10.15 L-41.0 11.05 -21.65 12.2 -29.7 10.55 -29.15 10.35 -24.6 11.05 -20.1 12.15 -20.25 12.25 -17.35 12.35 3.2 13.0 7.65 13.0 9.45 12.95 Q12.5 12.75 14.85 12.0 L15.55 11.75 19.55 9.2 20.55 8.05 20.7 7.8 21.65 5.95 21.8 5.6 21.9 5.15 Q22.95 1.4 22.4 -7.05 L22.35 -8.1 21.85 -10.5 22.95 -10.1 23.25 -8.1 23.3 -7.15 Q23.7 -0.9 23.3 2.45 L23.05 3.8 22.6 5.35 20.9 8.75 Q19.65 10.5 17.85 11.65 L17.6 11.85 16.75 12.3 Q14.45 13.4 11.5 13.7 L11.05 13.75 10.85 13.75 9.2 13.85 -31.2 12.45 -42.55 11.4 Q-48.15 8.1 -50.15 4.4 -51.6 1.8 -51.9 -3.1 -52.3 -9.15 -51.05 -12.45 -48.1 -20.45 -36.05 -20.9 L-31.7 -21.05 -31.55 -20.65 -30.6 -20.9 Q-30.05 -20.9 -29.65 -20.3 L-29.75 -20.45 Q-29.55 -21.0 -28.75 -21.0 L-28.5 -21.0 -28.65 -20.5 -28.5 -21.15 -17.0 -21.3 -4.9 -20.35 -4.95 -20.5 Q-4.95 -20.85 -3.45 -20.85 L9.7 -20.35 Q13.1 -19.8 22.95 -16.3 L38.8 -10.55 41.75 -9.3 Q45.65 -7.7 48.8 -4.65 51.55 -0.15 51.95 6.25 52.35 12.65 47.3 17.9 45.15 19.95 42.15 20.45 L32.0 21.3 32.15 20.5 32.35 20.5 33.8 20.55 37.55 20.55 38.1 20.5 42.9 19.6 43.55 19.4 45.95 17.9 Q51.55 12.65 50.95 4.7 50.35 -3.45 43.45 -6.95 L43.3 -6.45 43.45 -5.65 43.0 -5.1 41.5 -4.5 Q43.9 -3.1 43.9 -2.5 L45.05 -1.6 Q46.5 0.1 46.85 2.5 48.1 10.95 41.75 15.1 L41.25 15.1 Q38.45 15.1 37.25 12.9 36.65 11.8 36.6 10.65 L37.0 5.85 37.0 5.55 37.05 5.4 37.3 4.4 37.6 3.55 37.55 3.55 Q38.35 1.45 39.8 0.95 L40.7 0.8 41.75 1.0 Q42.1 1.1 42.35 1.35 L42.5 1.45 42.6 1.55 42.85 1.8 42.9 1.85 42.95 1.9 43.1 3.05 41.75 2.0 41.0 1.7 Q39.6 1.7 38.7 3.3 38.25 4.0 37.95 5.1 L37.3 8.55 Q37.1 10.15 37.6 11.55 38.55 14.0 41.75 14.2 44.1 13.75 44.9 11.2 46.8 5.3 44.8 0.35 L43.95 -1.45 41.75 -0.95 40.8 -0.35 40.55 -0.05 39.95 0.6 39.7 0.8 39.5 0.95 Q39.65 0.55 39.95 0.2 L40.45 -0.4 40.95 -0.85 40.9 -0.85 41.65 -1.45 41.75 -1.5 41.7 -1.5 Q41.7 -1.8 43.2 -2.55 40.85 -3.65 40.85 -4.5 L41.0 -4.8 41.75 -5.25 Q42.65 -5.6 42.65 -6.0 42.65 -6.8 42.8 -7.2 L41.75 -7.6 40.4 -8.1 41.75 -7.85 41.85 -7.85 41.75 -7.9 40.6 -8.3 40.7 -8.45 41.0 -8.45 Q32.95 -11.65 24.85 -14.5 L22.05 -15.45 M2.45 3.2 Q2.15 -4.9 3.75 -10.3 L3.7 -10.25 2.55 -12.85 2.3 -12.4 1.3 -12.15 Q0.35 -12.9 -1.8 -12.9 L-2.8 -11.85 Q-3.6 -10.9 -4.35 -10.85 L-5.85 -9.8 -6.05 -10.1 Q-6.05 -10.65 -5.2 -10.95 L-7.5 -11.85 -7.5 -12.2 -7.1 -12.3 -4.7 -11.45 Q-3.75 -11.45 -3.0 -12.5 L-1.9 -13.55 0.6 -13.1 Q1.85 -13.1 3.05 -13.95 L3.25 -13.9 3.5 -15.3 5.05 -16.15 5.2 -16.7 6.15 -17.1 Q8.4 -17.85 10.5 -17.85 L10.95 -17.7 11.05 -17.6 11.05 -17.5 Q9.65 -16.95 9.65 -16.35 L10.05 -15.0 9.6 -14.55 7.5 -12.75 6.45 -11.95 4.55 -10.7 4.5 -10.5 4.5 -10.45 4.25 -9.2 4.15 -8.65 Q3.35 -4.15 3.4 0.05 L3.45 2.55 Q3.95 10.05 8.2 11.85 L7.9 12.25 7.7 12.35 Q5.95 12.45 4.65 10.85 L4.6 10.75 3.5 8.7 3.5 8.65 3.25 8.1 2.7 6.25 2.6 5.85 2.6 5.75 2.55 5.65 2.45 3.2 M24.7 1.2 L24.75 0.85 Q25.4 -2.5 25.15 -6.3 L24.95 -8.1 24.65 -9.5 25.4 -9.1 25.6 -8.1 25.8 -6.35 Q26.0 -2.7 25.5 0.25 L25.4 0.8 25.4 0.9 25.2 1.6 24.4 4.4 23.6 6.75 23.35 7.5 22.9 8.7 22.6 8.55 23.0 7.3 23.1 6.9 23.8 4.55 24.7 1.2 M27.35 1.8 Q27.95 0.4 27.95 -2.8 L27.8 -4.4 26.2 -5.3 26.2 -5.6 Q26.3 -5.6 26.6 -5.75 29.45 -5.75 28.85 -2.65 L28.65 0.2 Q28.15 3.2 26.4 3.2 L25.85 3.1 25.85 3.0 25.75 2.75 26.05 2.8 26.9 2.45 26.9 2.4 26.95 2.35 27.35 1.8 M30.55 0.9 Q31.15 -0.95 31.15 -2.9 L29.65 -3.95 30.2 -4.0 31.75 -3.1 Q31.8 -0.95 31.1 1.05 L29.75 3.75 27.95 2.95 29.5 3.1 30.55 0.9 M33.4 2.15 Q34.05 0.6 34.1 -1.25 L32.8 -3.2 Q34.0 -3.45 34.35 -2.0 L34.45 0.1 Q34.3 1.95 33.25 3.65 L32.45 4.4 31.45 4.4 31.3 3.85 Q32.25 4.15 32.85 3.2 L33.4 2.15 M32.5 4.6 L32.95 4.45 Q32.6 7.5 32.75 10.35 L32.8 11.2 32.9 12.2 32.9 12.3 32.9 12.4 33.95 16.4 Q35.0 18.65 37.0 19.5 L36.8 19.8 36.65 19.95 36.55 19.95 Q35.25 20.05 34.25 19.05 L34.2 19.0 32.6 16.1 32.45 15.55 32.4 15.5 32.0 14.0 31.9 12.15 31.85 9.95 Q31.85 7.05 32.1 4.6 L32.35 4.6 32.5 4.6 M3.45 -12.95 L4.2 -10.8 6.3 -12.2 Q7.6 -12.95 8.1 -13.8 9.35 -15.65 9.6 -16.65 9.9 -16.7 9.5 -16.7 7.3 -16.7 4.8 -15.15 3.45 -14.2 3.45 -12.95 M19.0 -7.8 L18.9 -8.0 18.85 -8.1 18.05 -9.45 Q16.45 -11.65 14.75 -11.65 12.5 -11.65 10.95 -9.95 9.9 -8.8 9.2 -6.9 L8.2 -2.1 8.2 -2.0 Q8.2 -0.75 8.35 0.35 9.2 6.15 14.25 6.15 17.25 6.15 17.9 1.4 L17.95 1.4 18.0 0.85 18.0 0.65 18.1 -1.75 17.4 -1.15 Q17.8 -1.75 18.0 -2.65 L18.05 -2.95 18.05 -3.0 18.05 -3.15 18.15 -4.6 Q18.15 -6.4 16.9 -6.5 16.25 -7.1 15.25 -7.1 13.95 -7.1 13.1 -5.0 L12.55 -2.8 12.6 -2.1 Q12.65 -1.05 13.1 -0.85 L12.9 -0.35 Q12.3 -0.65 12.15 -1.35 L12.15 -1.5 12.1 -2.6 Q12.1 -3.75 12.7 -5.4 13.45 -7.65 14.75 -7.65 L15.2 -7.6 15.45 -7.85 Q17.0 -7.85 18.25 -6.35 19.25 -5.1 19.25 -4.35 19.25 -3.6 18.75 -2.65 L18.6 0.85 Q18.6 2.7 17.7 4.35 16.3 6.95 13.3 6.95 9.3 6.95 8.0 2.65 7.6 1.35 7.5 0.0 L7.45 -0.95 7.45 -1.95 Q8.25 -9.5 10.95 -11.65 12.05 -12.55 13.45 -12.55 17.9 -12.55 19.55 -8.1 L20.0 -6.4 19.95 -6.2 19.0 -7.8 M29.35 -7.0 L25.95 -9.05 33.9 -5.55 29.35 -7.0 M41.8 8.05 L43.1 6.95 42.45 8.1 43.1 7.25 43.2 7.15 43.25 7.0 43.6 6.3 43.8 7.55 43.05 8.3 43.1 8.3 41.75 9.35 40.45 9.5 Q39.45 9.5 39.35 8.85 L39.4 8.85 39.35 8.7 39.35 8.65 39.4 8.6 39.75 8.65 39.6 7.7 39.95 7.3 40.1 7.45 40.1 7.5 Q40.1 8.15 40.65 8.25 L40.7 8.4 40.85 8.25 40.95 8.25 41.1 8.25 41.75 8.1 41.8 8.05 M-45.7 -3.15 L-44.4 -2.7 -44.4 -2.55 Q-44.4 -2.0 -45.3 -2.0 -46.3 -2.0 -46.2 -2.65 -46.2 -3.15 -45.7 -3.15 M-42.5 -1.5 L-42.45 -1.05 Q-42.65 -0.9 -42.9 -0.9 L-43.2 -0.9 -43.35 -1.5 -42.9 -1.55 -42.5 -1.5 M-9.45 -0.5 Q-9.0 0.3 -8.0 0.3 L-4.5 -0.05 -4.1 0.0 Q-4.9 0.8 -8.4 0.8 -9.4 0.8 -10.55 0.2 L-11.25 0.15 -11.25 -0.15 -9.45 -0.5 M-32.2 10.0 L-32.45 10.2 -33.3 9.95 -34.35 9.85 -36.05 9.45 -34.9 9.35 -33.2 9.95 -32.4 10.0 -32.2 10.0" fill="#a36a6a" fill-rule="evenodd" stroke="none"/>
  </g>
  <defs>
    <radialGradient cx="0" cy="0" gradientTransform="matrix(0.0767, 0.0, 0.0, 0.0378, -37.35, -22.7)" gradientUnits="userSpaceOnUse" id="gradient0" r="819.2" spreadMethod="pad">
      <stop offset="0.47843137254901963" stop-color="#ffffff"></stop>
      <stop offset="0.8823529411764706" stop-color="#f2eaea"></stop>
    </radialGradient>
  </defs>
</svg>