<?xml version="1.0" encoding="UTF-8" standalone="no"?>
<svg xmlns:xlink="http://www.w3.org/1999/xlink" height="11.5px" width="28.45px" xmlns="http://www.w3.org/2000/svg">
  <g transform="matrix(1.0, 0.0, 0.0, 1.0, 14, 5.5)">
    <path d="M5.3 -3.35 Q5.95 -3.9 9.45 -4.05 12.95 -4.25 13.1 -1.9 13.15 0.4 10.7 0.5 L7.85 0.45 7.95 3.2 7.75 4.0 8.0 4.0 Q8.75 3.95 8.75 4.55 8.75 5.0 7.5 5.0 L6.8 4.75 Q7.05 4.2 7.5 4.1 7.05 2.8 7.1 0.8 7.05 -2.25 7.25 -3.2 L5.55 -3.25 5.3 -3.35 M9.6 -0.2 L11.45 -0.7 Q12.15 -1.2 12.3 -1.95 12.3 -2.7 11.15 -2.9 L7.6 -3.25 7.85 -0.15 9.6 -0.2 M12.65 5.0 Q11.8 5.0 11.8 4.15 L12.65 3.3 Q13.25 3.3 13.45 4.25 13.45 4.95 12.65 5.0 M3.65 4.25 Q3.65 4.75 2.95 4.75 2.3 4.7 2.3 4.25 2.3 3.6 2.95 3.65 3.6 3.6 3.65 4.25 M-11.3 -2.4 Q-10.9 -1.5 -10.9 -0.05 L-10.9 0.0 -9.25 0.05 Q-7.1 0.0 -7.05 -1.2 -7.1 -2.85 -10.35 -2.65 L-11.3 -2.4 M-11.45 -2.4 L-12.0 -2.3 -12.55 -2.45 Q-11.55 -3.1 -9.8 -3.25 -6.65 -3.45 -6.5 -1.2 -6.5 0.6 -8.0 0.7 L-8.8 0.75 -8.0 1.95 Q-6.95 3.7 -6.35 3.95 -6.6 4.4 -8.1 4.4 L-8.35 4.4 -8.4 4.2 Q-8.45 3.95 -7.8 3.65 -8.1 2.35 -9.4 0.75 L-11.0 0.4 -11.4 3.55 -10.55 3.75 -10.55 3.95 Q-10.55 4.2 -11.5 4.3 L-11.6 4.35 -11.65 4.3 Q-12.05 4.25 -12.1 4.05 -12.05 3.65 -11.75 3.6 L-11.75 2.8 Q-11.8 0.65 -11.45 -2.0 L-11.45 -2.4 M-0.35 -1.1 L-0.4 3.85 -0.35 3.85 Q0.3 3.8 0.3 4.2 L-1.7 4.75 -2.05 4.55 Q-1.75 4.0 -1.15 3.9 L-1.1 3.7 -0.75 -1.85 -1.4 -2.1 -0.7 -2.55 -0.7 -2.65 -0.55 -2.65 -0.55 -2.55 -0.5 -2.55 Q0.4 -2.6 0.4 -2.25 0.4 -1.9 -0.3 -1.85 L-0.45 -1.8 -0.35 -1.1 M-4.6 4.35 Q-5.3 4.35 -5.3 3.85 -5.3 3.4 -5.0 3.4 -4.1 3.4 -4.1 3.95 -4.1 4.35 -4.6 4.35" fill="#ffffff" fill-rule="evenodd" stroke="none"/>
    <path d="M9.15 -0.65 L11.0 -1.15 Q11.7 -1.65 11.85 -2.4 11.85 -3.15 10.7 -3.35 L7.15 -3.7 7.4 -0.6 9.15 -0.65 M5.1 -3.7 L4.85 -3.8 Q5.5 -4.35 9.0 -4.5 12.5 -4.7 12.65 -2.35 12.7 -0.05 10.25 0.05 L7.4 0.0 7.5 2.75 7.3 3.55 7.55 3.55 Q8.3 3.5 8.3 4.1 8.3 4.55 7.05 4.55 L6.35 4.3 Q6.6 3.75 7.05 3.65 6.6 2.35 6.65 0.35 6.6 -2.7 6.8 -3.65 L5.1 -3.7 M12.2 4.55 Q11.35 4.55 11.35 3.7 L12.2 2.85 Q12.8 2.85 13.0 3.8 13.0 4.5 12.2 4.55 M3.2 3.8 Q3.2 4.3 2.5 4.3 1.85 4.25 1.85 3.8 1.85 3.15 2.5 3.2 3.15 3.15 3.2 3.8 M-11.9 -2.85 L-12.45 -2.75 -13.0 -2.9 Q-12.0 -3.55 -10.25 -3.7 -7.1 -3.9 -6.95 -1.65 -6.95 0.15 -8.45 0.25 L-9.25 0.3 -8.45 1.5 Q-7.4 3.25 -6.8 3.5 -7.05 3.95 -8.55 3.95 L-8.8 3.95 -8.85 3.75 Q-8.9 3.5 -8.25 3.2 -8.55 1.9 -9.85 0.3 L-11.45 -0.05 -11.85 3.1 Q-11.35 3.05 -11.0 3.3 L-11.0 3.5 Q-11.0 3.75 -11.95 3.85 L-12.05 3.9 -12.1 3.85 -12.55 3.6 -12.2 3.15 -12.2 2.35 Q-12.25 0.2 -11.9 -2.45 L-11.9 -2.85 M-11.35 -0.5 L-11.35 -0.45 -9.7 -0.4 Q-7.55 -0.45 -7.5 -1.65 -7.55 -3.3 -10.8 -3.1 L-11.75 -2.85 Q-11.35 -1.95 -11.35 -0.5 M-1.0 -3.1 L-1.0 -3.0 -0.95 -3.0 Q-0.05 -3.05 -0.05 -2.7 -0.05 -2.35 -0.75 -2.3 L-0.9 -2.25 -0.8 -1.55 -0.85 3.4 -0.8 3.4 Q-0.15 3.35 -0.15 3.75 L-2.15 4.3 -2.5 4.1 Q-2.2 3.55 -1.6 3.45 L-1.55 3.25 -1.2 -2.3 Q-1.75 -2.4 -1.85 -2.55 L-1.15 -3.0 -1.15 -3.1 -1.0 -3.1 M-5.75 3.4 Q-5.75 2.95 -5.45 2.95 -4.55 2.95 -4.55 3.5 -4.55 3.9 -5.05 3.9 -5.75 3.9 -5.75 3.4" fill="#a36a6a" fill-rule="evenodd" stroke="none"/>
  </g>
</svg>