<?xml version="1.0" encoding="UTF-8" standalone="no"?>
<svg xmlns:xlink="http://www.w3.org/1999/xlink" height="114.4px" width="83px" xmlns="http://www.w3.org/2000/svg">
  <g transform="matrix(1.0, 0.0, 0.0, 1.0, 36.95, 57.1)">
    <path d="M-35.3 46.8 Q-34.55 42.4 -34.3 37.7 L-33.9 29.8 -33.5 21.8 -33.1 13.6 -33.1 12.9 -33.05 10.1 -33.1 7.55 -33.1 7.25 -33.1 4.1 -33.0 0.6 -32.95 -1.4 -32.9 -3.45 -33.0 -5.95 Q-33.1 -8.95 -30.9 -10.95 L-29.1 -12.0 Q-29.1 -12.4 -31.35 -16.0 L-31.05 -18.1 -31.15 -18.35 -30.35 -23.1 Q-29.15 -30.5 -28.9 -35.55 -28.3 -45.95 -27.85 -48.0 -27.5 -49.85 -24.0 -51.0 L-18.4 -52.45 -12.55 -53.15 Q-13.4 -52.2 -13.4 -51.6 L-12.3 -49.0 Q-14.2 -48.0 -15.25 -46.05 -15.5 -43.9 -16.6 -43.0 L-16.55 -42.95 Q-15.7 -43.55 -15.35 -44.45 L-14.75 -45.95 -13.35 -47.45 Q-11.7 -48.75 -11.7 -49.05 L-12.8 -51.6 Q-12.8 -52.45 -11.95 -53.2 L-11.9 -53.2 -11.25 -53.3 -11.45 -52.5 Q-11.45 -51.35 -9.85 -50.95 -8.85 -50.6 -8.7 -50.3 -8.4 -49.4 -8.15 -49.4 L-8.05 -49.45 Q-8.25 -50.7 -8.95 -51.1 -10.75 -52.05 -10.75 -52.55 L-10.5 -53.35 7.4 -54.85 13.65 -54.55 19.95 -53.7 18.7 -43.85 18.45 -41.4 18.75 -36.65 18.6 -34.85 18.3 -29.65 18.1 -23.8 18.0 -18.55 Q16.75 -12.05 16.75 -9.85 L16.75 -9.65 16.6 -8.25 Q15.8 -1.45 15.0 8.65 L14.5 15.65 Q14.0 20.6 14.25 27.15 L13.9 32.45 Q13.4 42.1 13.4 48.45 13.4 51.0 13.55 52.85 L13.55 52.9 13.6 53.35 13.6 53.4 13.65 54.2 13.95 55.85 10.65 56.0 10.75 55.9 -12.35 54.15 -23.65 52.05 Q-25.15 51.8 -28.25 50.4 L-35.3 46.8 M2.25 -34.9 L2.1 -35.2 Q1.2 -34.85 1.2 -34.15 1.2 -33.85 1.5 -33.8 1.85 -33.85 2.25 -34.9 M2.55 -35.3 L2.9 -35.2 Q3.45 -35.2 3.45 -35.9 L3.15 -36.2 2.45 -35.65 2.55 -35.3 M8.95 52.75 L8.85 52.9 8.95 52.9 8.95 52.75" fill="url(#gradient0)" fill-rule="evenodd" stroke="none"/>
    <path d="M18.6 -34.85 L18.75 -36.65 18.45 -41.4 18.7 -43.85 19.95 -53.7 13.65 -54.55 7.4 -54.85 -10.5 -53.35 -10.75 -52.55 Q-10.75 -52.05 -8.95 -51.1 -8.25 -50.7 -8.05 -49.45 L-8.15 -49.4 Q-8.4 -49.4 -8.7 -50.3 -8.85 -50.6 -9.85 -50.95 -11.45 -51.35 -11.45 -52.5 L-11.25 -53.3 -11.9 -53.2 -11.95 -53.2 Q-12.8 -52.45 -12.8 -51.6 L-11.7 -49.05 Q-11.7 -48.75 -13.35 -47.45 L-14.75 -45.95 -15.35 -44.45 Q-15.7 -43.55 -16.55 -42.95 L-16.6 -43.0 Q-15.5 -43.9 -15.25 -46.05 -14.2 -48.0 -12.3 -49.0 L-13.4 -51.6 Q-13.4 -52.2 -12.55 -53.15 L-18.4 -52.45 -24.0 -51.0 Q-27.5 -49.85 -27.85 -48.0 -28.3 -45.95 -28.9 -35.55 -29.15 -30.5 -30.35 -23.1 L-31.15 -18.35 -31.05 -18.1 -31.35 -16.0 Q-29.1 -12.4 -29.1 -12.0 L-30.9 -10.95 Q-33.1 -8.95 -33.0 -5.95 L-32.9 -3.45 -32.95 -1.4 -33.0 0.6 -33.1 4.1 -33.1 7.25 -33.1 7.55 -33.05 10.1 -33.1 12.9 -33.1 13.6 -33.5 21.8 -33.9 29.8 -34.3 37.7 Q-34.55 42.4 -35.3 46.8 L-35.45 47.8 -35.85 47.95 -35.85 45.0 -35.45 38.5 -34.95 30.5 -34.55 22.25 -34.5 13.6 -34.5 13.5 -34.25 10.45 -34.05 6.6 -34.0 3.6 -34.05 1.3 -34.15 -1.05 -34.2 -3.45 Q-34.1 -6.65 -33.25 -9.85 L-30.9 -12.0 -30.85 -12.05 -30.9 -12.15 -31.2 -12.85 -32.1 -14.25 Q-32.55 -14.95 -32.55 -15.85 L-32.3 -17.6 Q-30.7 -24.5 -30.15 -36.9 L-29.6 -43.4 Q-29.2 -47.8 -28.5 -50.05 -27.85 -52.3 -19.3 -53.5 L7.4 -55.85 9.0 -55.85 13.65 -55.95 Q20.15 -55.35 23.3 -54.2 L26.35 -53.0 27.3 -51.6 28.6 -52.05 28.65 -52.05 28.65 -52.25 28.85 -52.2 28.9 -52.15 29.55 -51.8 31.95 -50.8 37.05 -49.1 42.05 -47.65 Q43.95 -47.2 44.45 -46.15 L45.0 -44.5 Q45.2 -42.9 44.75 -39.55 L44.05 -32.55 43.45 -24.1 42.7 -14.75 Q42.25 -10.2 42.1 -6.9 L41.75 -2.0 41.55 0.1 40.7 8.6 Q40.25 12.95 40.15 17.95 L39.75 27.85 39.5 37.1 39.35 44.4 39.15 48.4 38.95 50.1 38.85 50.1 38.65 47.9 38.5 45.95 38.5 45.9 Q38.2 41.95 38.25 37.95 L38.65 28.25 39.0 18.75 39.05 16.75 Q39.25 12.6 39.7 8.45 L40.65 -1.4 40.7 -2.1 42.8 -29.55 42.8 -29.65 42.9 -30.55 42.65 -29.6 Q42.5 -27.05 41.35 -24.7 L40.7 -23.15 Q39.9 -20.7 40.0 -18.4 L39.75 -11.0 39.5 -8.75 39.5 -8.55 38.65 -4.85 38.25 -3.65 39.4 -8.55 39.4 -8.75 39.45 -9.6 39.55 -12.0 39.35 -19.4 Q39.3 -21.05 40.7 -25.0 L42.7 -31.6 43.2 -33.5 44.25 -44.55 Q43.7 -45.55 42.25 -46.4 L38.4 -47.5 37.3 -47.9 Q36.05 -46.5 35.4 -46.5 L33.9 -47.3 32.7 -47.2 32.9 -46.65 34.25 -44.9 33.6 -44.25 32.8 -45.85 Q32.2 -46.15 31.85 -47.05 L31.8 -47.2 31.65 -47.25 31.55 -47.55 31.6 -47.55 Q31.05 -48.2 30.05 -48.3 26.2 -48.65 26.15 -50.6 L26.1 -50.7 25.75 -51.15 25.25 -52.0 24.8 -52.2 23.1 -52.8 21.15 -53.45 21.1 -50.05 Q21.15 -46.95 20.0 -43.85 19.7 -42.15 19.65 -40.1 L19.65 -39.95 19.6 -39.6 19.8 -39.95 18.9 -31.15 18.75 -31.1 18.6 -27.2 18.5 -27.1 18.45 -29.1 18.7 -33.0 18.6 -34.85 M13.95 55.85 L13.65 54.2 13.6 53.4 13.6 53.35 13.55 52.9 13.55 52.85 Q13.4 51.0 13.4 48.45 13.4 42.1 13.9 32.45 L14.25 27.15 Q14.0 20.6 14.5 15.65 L15.0 8.65 Q15.8 -1.45 16.6 -8.25 L16.75 -9.65 Q17.45 -15.4 18.35 -18.6 L17.4 -9.65 16.6 0.95 16.55 1.75 16.25 8.65 14.9 32.5 Q14.55 41.1 14.35 52.8 L14.35 53.2 14.3 55.8 14.3 56.25 14.1 56.3 14.0 55.9 13.95 55.85 M28.5 -50.5 L28.4 -50.4 31.05 -48.9 32.4 -47.8 33.5 -48.15 Q34.45 -48.15 34.6 -47.7 34.8 -47.25 35.4 -47.25 L36.05 -47.95 36.4 -48.2 32.75 -49.4 28.75 -50.7 28.5 -50.5 M2.55 -35.3 L2.45 -35.65 3.15 -36.2 3.45 -35.9 Q3.45 -35.2 2.9 -35.2 L2.55 -35.3 M2.25 -34.9 Q1.85 -33.85 1.5 -33.8 1.2 -33.85 1.2 -34.15 1.2 -34.85 2.1 -35.2 L2.25 -34.9 M37.0 27.45 Q36.9 27.1 36.95 26.75 L37.1 26.65 Q37.7 27.3 37.2 27.4 L37.0 27.45 M37.5 -10.75 L37.15 -11.6 37.55 -12.3 37.6 -11.8 37.75 -11.05 Q37.7 -10.75 37.5 -10.75 M37.2 8.55 L37.15 6.25 37.55 1.05 37.65 -0.35 37.95 3.1 37.75 14.45 37.75 15.75 37.35 22.3 37.2 8.55" fill="#a36a6a" fill-rule="evenodd" stroke="none"/>
    <path d="M16.6 -8.25 L16.75 -9.65 16.75 -9.85 Q16.75 -12.05 18.0 -18.55 L18.1 -23.8 18.3 -29.65 18.6 -34.85 18.7 -33.0 18.45 -29.1 18.5 -27.1 18.6 -27.2 18.75 -31.1 18.9 -31.15 19.8 -39.95 19.65 -39.95 19.65 -40.1 Q19.7 -42.15 20.0 -43.85 21.15 -46.95 21.1 -50.05 L21.15 -53.45 23.1 -52.8 24.8 -52.2 25.25 -52.0 25.75 -51.15 26.1 -50.7 26.15 -50.6 Q26.2 -48.65 30.05 -48.3 31.05 -48.2 31.6 -47.55 L31.55 -47.55 31.65 -47.25 31.8 -47.2 31.85 -47.05 Q32.2 -46.15 32.8 -45.85 L33.6 -44.25 34.25 -44.9 32.9 -46.65 32.7 -47.2 33.9 -47.3 35.4 -46.5 Q36.05 -46.5 37.3 -47.9 L38.4 -47.5 42.25 -46.4 Q43.7 -45.55 44.25 -44.55 L43.2 -33.5 42.7 -31.6 40.7 -25.0 Q39.3 -21.05 39.35 -19.4 L39.55 -12.0 39.45 -9.6 39.4 -8.75 39.4 -8.55 38.25 -3.65 38.65 -4.85 39.5 -8.55 39.5 -8.75 39.75 -11.0 40.0 -18.4 Q39.9 -20.7 40.7 -23.15 L41.35 -24.7 Q42.5 -27.05 42.65 -29.6 L42.8 -29.55 40.7 -2.1 40.65 -1.4 39.7 8.45 Q39.25 12.6 39.05 16.75 L38.55 18.6 Q37.55 22.55 37.1 26.65 L36.95 26.75 Q36.9 27.1 37.0 27.45 L36.3 34.05 35.2 45.8 35.0 41.25 35.0 35.15 Q34.85 31.8 34.45 30.2 L33.95 33.55 33.3 36.85 Q32.95 38.65 32.75 40.35 L32.5 40.75 32.5 39.75 32.45 40.85 32.05 41.65 32.05 41.6 Q31.95 37.75 31.4 37.75 L31.15 37.85 31.65 28.05 32.1 19.3 Q32.2 18.7 31.8 18.7 31.55 18.7 30.8 24.15 L29.45 29.6 26.9 40.65 26.9 40.6 25.9 20.95 25.6 20.85 Q25.2 20.85 24.85 23.0 L24.2 26.45 Q23.65 28.3 23.25 32.1 L22.75 35.7 Q22.8 18.95 22.4 15.15 L20.85 28.7 Q19.9 35.5 19.3 41.2 L17.85 28.15 17.75 27.1 16.95 32.8 Q15.2 44.65 15.0 50.9 14.85 54.0 15.0 55.75 L14.3 55.8 14.35 53.2 14.35 52.8 Q14.55 41.1 14.9 32.5 L16.25 8.65 16.55 1.75 16.6 0.95 17.4 -9.65 18.35 -18.6 Q17.45 -15.4 16.75 -9.65 L16.6 -8.25 M28.5 -50.5 L28.75 -50.7 32.75 -49.4 36.4 -48.2 36.05 -47.95 35.4 -47.25 Q34.8 -47.25 34.6 -47.7 34.45 -48.15 33.5 -48.15 L32.4 -47.8 31.05 -48.9 28.4 -50.4 28.5 -50.5 M37.5 -10.75 Q37.7 -10.75 37.75 -11.05 L37.6 -11.8 37.55 -12.3 37.15 -11.6 37.5 -10.75 M37.2 8.55 L37.35 22.3 37.75 15.75 37.75 14.45 37.95 3.1 37.65 -0.35 37.55 1.05 37.15 6.25 37.2 8.55" fill="#e0cbcb" fill-rule="evenodd" stroke="none"/>
    <path d="M39.05 16.75 L39.0 18.75 38.65 28.25 38.25 37.95 Q38.2 41.95 38.5 45.9 L38.5 45.95 38.65 47.9 38.7 48.6 38.7 48.65 37.05 49.4 35.05 50.2 34.95 50.25 33.3 50.85 33.15 50.9 23.15 53.8 23.15 53.85 22.05 54.15 20.95 54.5 20.7 54.55 19.75 54.8 18.15 55.2 17.0 55.4 16.1 55.55 15.0 55.75 Q14.85 54.0 15.0 50.9 15.2 44.65 16.95 32.8 L17.75 27.1 17.85 28.15 19.3 41.2 Q19.9 35.5 20.85 28.7 L22.4 15.15 Q22.8 18.95 22.75 35.7 L23.25 32.1 Q23.65 28.3 24.2 26.45 L24.85 23.0 Q25.2 20.85 25.6 20.85 L25.9 20.95 26.9 40.6 26.9 40.65 29.45 29.6 30.8 24.15 Q31.55 18.7 31.8 18.7 32.2 18.7 32.1 19.3 L31.65 28.05 31.15 37.85 31.4 37.75 Q31.95 37.75 32.05 41.6 L32.05 41.65 32.45 40.85 32.5 39.75 32.5 40.75 32.75 40.35 Q32.95 38.65 33.3 36.85 L33.95 33.55 34.45 30.2 Q34.85 31.8 35.0 35.15 L35.0 41.25 35.2 45.8 36.3 34.05 37.0 27.45 37.2 27.4 Q37.7 27.3 37.1 26.65 37.55 22.55 38.55 18.6 L39.05 16.75" fill="#cca9a9" fill-rule="evenodd" stroke="none"/>
    <path d="M42.8 -29.65 L42.8 -29.55 42.65 -29.6 42.8 -29.65" fill="url(#gradient1)" fill-rule="evenodd" stroke="none"/>
  </g>
  <defs>
    <radialGradient cx="0" cy="0" gradientTransform="matrix(0.0092, -0.0879, 0.0473, 0.0049, -8.3, -20.85)" gradientUnits="userSpaceOnUse" id="gradient0" r="819.2" spreadMethod="pad">
      <stop offset="0.47843137254901963" stop-color="#ffffff"></stop>
      <stop offset="0.8823529411764706" stop-color="#f2eaea"></stop>
    </radialGradient>
    <radialGradient cx="0" cy="0" gradientTransform="matrix(0.0087, -0.0827, 0.0445, 0.0047, 3.25, -19.35)" gradientUnits="userSpaceOnUse" id="gradient1" r="819.2" spreadMethod="pad">
      <stop offset="0.47843137254901963" stop-color="#ffffff"></stop>
      <stop offset="0.8823529411764706" stop-color="#f2eaea"></stop>
    </radialGradient>
  </defs>
</svg>