<?xml version="1.0" encoding="UTF-8" standalone="no"?>
<svg xmlns:xlink="http://www.w3.org/1999/xlink" height="114.55px" width="74.55px" xmlns="http://www.w3.org/2000/svg">
  <g transform="matrix(1.0, 0.0, 0.0, 1.0, 37.3, 57.25)">
    <path d="M-32.55 -2.95 L-32.9 -2.95 -32.9 -3.95 -32.75 -8.0 -32.2 -9.6 -32.2 -9.65 Q-31.3 -11.0 -29.1 -12.0 -29.1 -12.4 -31.35 -16.0 L-31.05 -18.1 -31.15 -18.35 -30.35 -23.1 Q-29.15 -30.5 -28.9 -35.55 -28.3 -45.95 -27.85 -48.0 -27.5 -49.85 -24.0 -51.0 L-18.4 -52.45 -12.55 -53.15 Q-13.4 -52.2 -13.4 -51.6 L-12.3 -49.0 Q-14.2 -48.0 -15.25 -46.05 -15.5 -43.9 -16.6 -43.0 L-16.55 -42.95 Q-15.7 -43.55 -15.35 -44.45 L-14.75 -45.95 -13.35 -47.45 Q-11.7 -48.75 -11.7 -49.05 L-12.8 -51.6 Q-12.8 -52.45 -11.95 -53.2 L-11.9 -53.2 -11.25 -53.3 -11.45 -52.5 Q-11.45 -51.35 -9.85 -50.95 -8.85 -50.6 -8.7 -50.3 -8.4 -49.4 -8.15 -49.4 L-8.05 -49.45 Q-8.25 -50.7 -8.95 -51.1 -10.75 -52.05 -10.75 -52.55 L-10.5 -53.35 7.4 -54.85 18.25 -53.85 Q19.65 -51.15 19.65 -48.0 L19.65 -47.75 Q18.45 -44.1 18.45 -41.4 L18.75 -36.65 18.6 -34.85 18.3 -29.65 18.1 -23.8 18.0 -18.55 Q16.75 -12.05 16.75 -9.85 L16.75 -9.65 16.6 -8.25 16.0 -2.95 15.75 -2.95 -32.55 -2.95 M24.35 -52.15 L24.4 -52.2 24.35 -52.15 M33.7 -31.8 L33.7 -31.7 33.5 -31.75 33.7 -31.8 M23.25 -52.75 L22.75 -52.15 20.55 -48.85 20.45 -49.8 19.65 -53.6 23.25 -52.75 M24.3 -49.3 L24.35 -49.1 24.25 -49.2 24.3 -49.3 M2.25 -34.9 L2.1 -35.2 Q1.2 -34.85 1.2 -34.15 1.2 -33.85 1.5 -33.8 1.85 -33.85 2.25 -34.9 M2.55 -35.3 L2.9 -35.2 Q3.45 -35.2 3.45 -35.9 L3.15 -36.2 2.45 -35.65 2.55 -35.3" fill="url(#gradient0)" fill-rule="evenodd" stroke="none"/>
    <path d="M18.6 -34.85 L18.75 -36.65 18.45 -41.4 Q18.45 -44.1 19.65 -47.75 L19.65 -48.0 Q19.65 -51.15 18.25 -53.85 L7.4 -54.85 -10.5 -53.35 -10.75 -52.55 Q-10.75 -52.05 -8.95 -51.1 -8.25 -50.7 -8.05 -49.45 L-8.15 -49.4 Q-8.4 -49.4 -8.7 -50.3 -8.85 -50.6 -9.85 -50.95 -11.45 -51.35 -11.45 -52.5 L-11.25 -53.3 -11.9 -53.2 -11.95 -53.2 Q-12.8 -52.45 -12.8 -51.6 L-11.7 -49.05 Q-11.7 -48.75 -13.35 -47.45 L-14.75 -45.95 -15.35 -44.45 Q-15.7 -43.55 -16.55 -42.95 L-16.6 -43.0 Q-15.5 -43.9 -15.25 -46.05 -14.2 -48.0 -12.3 -49.0 L-13.4 -51.6 Q-13.4 -52.2 -12.55 -53.15 L-18.4 -52.45 -24.0 -51.0 Q-27.5 -49.85 -27.85 -48.0 -28.3 -45.95 -28.9 -35.55 -29.15 -30.5 -30.35 -23.1 L-31.15 -18.35 -31.05 -18.1 -31.35 -16.0 Q-29.1 -12.4 -29.1 -12.0 -31.3 -11.0 -32.2 -9.65 L-32.2 -9.6 -32.75 -8.0 -32.9 -3.95 -32.9 -2.95 -32.55 -2.95 -32.85 4.35 -33.0 8.65 -33.1 11.75 -33.85 28.4 -33.95 28.6 -33.9 29.8 -34.35 37.05 -34.4 37.75 -34.8 42.7 -35.3 46.8 -35.45 47.8 -35.85 47.95 Q-36.25 47.55 -36.3 46.25 L-36.3 46.05 -36.1 42.7 -35.65 37.05 -35.55 36.0 -35.4 34.55 -35.25 33.3 -35.55 34.6 -34.7 15.75 -34.6 11.75 -34.5 8.65 Q-34.65 2.85 -34.2 -0.25 -33.95 -2.2 -34.5 -6.25 -34.45 -7.95 -33.6 -9.35 L-33.6 -9.65 -33.4 -9.65 Q-32.5 -11.0 -30.85 -12.05 L-32.1 -14.25 Q-32.55 -14.95 -32.55 -15.85 L-32.3 -17.6 Q-31.75 -25.0 -30.15 -36.9 L-30.05 -43.25 Q-29.85 -47.0 -28.9 -49.6 -27.8 -52.4 -18.25 -53.95 L7.4 -56.2 8.9 -56.25 Q17.3 -56.25 26.6 -52.75 29.15 -52.55 32.45 -51.3 36.2 -49.9 36.2 -48.6 L36.0 -47.6 Q36.35 -45.9 36.25 -41.5 L32.05 8.65 32.05 8.95 31.85 11.75 31.0 24.1 30.6 37.05 30.55 37.65 30.1 46.7 29.8 51.1 29.6 52.9 29.45 52.9 29.25 50.6 29.1 48.5 29.0 47.6 29.0 47.1 28.75 42.45 28.8 37.05 Q28.95 30.5 29.45 26.3 L29.4 21.6 29.7 17.5 29.75 17.0 30.1 12.4 30.15 11.75 30.35 8.75 31.2 -2.95 31.5 -2.95 31.6 -4.55 31.95 -9.65 33.7 -31.7 33.7 -31.8 33.8 -32.8 33.5 -31.75 33.45 -31.55 Q33.15 -28.9 32.6 -27.7 30.55 -23.55 30.7 -19.85 L30.45 -12.0 30.2 -9.65 29.95 -8.05 28.9 -4.2 28.85 -4.2 28.85 -4.5 29.75 -7.8 30.1 -9.65 30.1 -10.5 30.2 -13.1 30.0 -20.95 Q30.0 -22.95 32.0 -28.35 L32.9 -32.0 Q33.25 -33.6 34.0 -34.8 L35.2 -47.65 Q34.65 -48.7 33.1 -49.6 L26.85 -51.3 26.35 -51.45 24.4 -52.2 24.35 -52.15 22.45 -50.2 Q19.85 -47.0 19.65 -40.1 L19.65 -39.95 19.6 -39.6 19.8 -39.95 18.9 -31.15 18.75 -31.1 18.6 -27.2 18.5 -27.1 18.45 -29.1 18.7 -33.0 18.6 -34.85 M15.75 -2.95 L16.0 -2.95 16.6 -8.25 16.75 -9.65 Q17.45 -15.4 18.35 -18.6 L17.4 -9.65 16.85 -2.95 16.75 -2.95 16.65 -1.0 16.6 0.95 16.15 11.75 16.05 13.05 15.15 29.15 15.0 31.4 14.9 32.5 14.75 37.05 14.35 52.8 14.35 53.2 14.35 54.8 14.3 55.8 14.3 56.25 14.1 56.3 14.0 55.9 13.95 55.85 13.95 55.75 13.75 54.8 13.75 54.65 13.65 54.2 13.6 53.4 13.6 53.35 13.55 52.9 13.55 52.85 Q13.4 51.0 13.4 48.45 L13.4 48.3 13.4 48.15 13.4 47.9 13.4 47.4 13.4 46.95 13.4 46.45 13.4 46.3 13.4 45.7 13.5 42.9 13.7 37.45 13.7 37.05 13.7 36.65 13.9 33.1 13.9 32.45 14.25 27.15 Q14.0 20.6 14.5 15.65 L14.5 15.55 14.7 12.9 14.8 11.75 15.05 8.05 15.25 5.4 15.75 -2.95 M23.25 -52.75 L19.65 -53.6 20.45 -49.8 20.55 -48.85 22.75 -52.15 23.25 -52.75 M2.55 -35.3 L2.45 -35.65 3.15 -36.2 3.45 -35.9 Q3.45 -35.2 2.9 -35.2 L2.55 -35.3 M2.25 -34.9 Q1.85 -33.85 1.5 -33.8 1.2 -33.85 1.2 -34.15 1.2 -34.85 2.1 -35.2 L2.25 -34.9 M28.1 -13.4 L28.15 -12.85 28.3 -12.05 28.05 -11.75 27.65 -12.65 28.1 -13.4 M28.5 -2.95 L28.2 -0.65 27.5 3.4 27.6 0.15 27.75 -2.95 28.5 -2.95 M25.65 3.1 L25.2 3.3 24.75 2.8 25.2 2.4 25.65 2.8 25.65 3.1 M28.35 9.4 L28.4 11.65 28.4 11.75 28.4 12.25 28.2 17.8 28.1 21.3 28.05 23.25 27.9 23.35 27.75 6.25 27.9 6.25 28.35 9.4 M27.5 28.85 L27.15 28.4 Q27.15 28.0 27.6 28.0 L28.05 28.45 27.95 28.75 27.6 28.9 27.55 28.85 27.5 28.85 M8.7 23.4 Q8.7 28.3 5.55 33.35 0.4 41.6 -10.55 41.6 -20.55 41.6 -25.5 33.65 -29.25 27.7 -29.25 19.65 -29.25 7.95 -20.3 3.45 L-20.25 3.35 -20.3 3.4 -21.0 3.55 -19.55 2.85 -17.45 1.75 -11.25 1.4 Q-1.85 1.4 3.9 9.4 8.7 16.05 8.7 23.4 M4.05 11.9 Q0.95 6.25 -4.2 4.0 L-4.2 4.05 Q-11.85 5.1 -15.75 12.15 -18.5 17.15 -18.5 22.5 -18.5 38.45 -2.95 38.45 L-0.9 38.0 -0.55 38.1 Q1.95 36.25 4.5 32.3 7.35 27.8 7.35 23.35 7.35 17.8 4.05 11.9 M-5.6 3.45 Q-8.5 2.45 -12.0 2.45 L-18.25 3.15 -18.2 3.45 -19.25 3.85 -20.05 4.15 Q-22.3 5.15 -24.0 7.7 L-24.2 8.0 Q-26.35 11.05 -26.55 11.7 -28.05 15.95 -28.05 19.65 -28.05 21.85 -27.3 25.65 -26.55 29.35 -25.95 30.5 -19.5 40.3 -12.45 40.3 -5.7 40.3 -3.05 39.45 L-4.35 39.5 Q-13.4 39.5 -17.25 32.55 -19.5 28.5 -19.5 24.2 -19.5 19.0 -17.7 14.45 L-17.35 13.55 -16.65 12.15 -16.1 11.1 -15.55 10.15 -13.4 7.35 Q-9.95 3.5 -5.65 3.5 L-5.35 3.5 -5.6 3.45" fill="#a36a6a" fill-rule="evenodd" stroke="none"/>
    <path d="M16.6 -8.25 L16.75 -9.65 16.75 -9.85 Q16.75 -12.05 18.0 -18.55 L18.1 -23.8 18.3 -29.65 18.6 -34.85 18.7 -33.0 18.45 -29.1 18.5 -27.1 18.6 -27.2 18.75 -31.1 18.9 -31.15 19.8 -39.95 19.65 -39.95 19.65 -40.1 Q19.85 -47.0 22.45 -50.2 L24.35 -52.15 24.4 -52.2 26.35 -51.45 26.85 -51.3 33.1 -49.6 Q34.65 -48.7 35.2 -47.65 L34.0 -34.8 Q33.25 -33.6 32.9 -32.0 L32.0 -28.35 Q30.0 -22.95 30.0 -20.95 L30.2 -13.1 30.1 -10.5 30.1 -9.65 29.75 -7.8 28.85 -4.5 28.85 -4.2 28.9 -4.2 29.95 -8.05 30.2 -9.65 30.45 -12.0 30.7 -19.85 Q30.55 -23.55 32.6 -27.7 33.15 -28.9 33.45 -31.55 L33.5 -31.75 33.7 -31.7 31.95 -9.65 31.6 -4.55 31.5 -2.95 31.2 -2.95 30.35 8.75 30.15 11.75 30.1 12.4 29.75 17.0 29.7 17.5 Q28.5 20.05 27.6 28.0 27.15 28.0 27.15 28.4 L27.5 28.85 27.5 28.9 27.4 30.1 26.7 36.85 26.65 37.05 25.95 44.55 25.65 47.7 25.65 48.0 25.6 48.3 25.4 43.5 25.4 37.0 24.85 31.75 24.25 35.3 23.9 37.05 Q23.05 41.5 22.7 45.25 L22.7 45.15 22.75 37.05 Q22.85 19.1 22.4 15.15 L20.85 28.7 19.8 37.05 19.3 41.2 19.25 40.8 18.95 37.95 18.9 37.05 18.8 36.25 17.9 28.4 17.9 28.3 17.85 28.2 17.85 28.15 17.75 27.1 16.95 32.8 16.35 37.05 Q15.15 45.85 15.0 50.9 L15.0 51.45 14.95 52.05 14.95 54.8 15.0 55.65 15.0 55.75 14.3 55.8 14.35 54.8 14.35 53.2 14.35 52.8 14.75 37.05 14.9 32.5 15.0 31.4 15.15 29.15 16.05 13.05 16.15 11.75 16.6 0.95 16.65 -1.0 16.75 -2.95 16.85 -2.95 17.4 -9.65 18.35 -18.6 Q17.45 -15.4 16.75 -9.65 L16.6 -8.25 M24.3 -49.3 L24.25 -49.2 24.35 -49.1 24.3 -49.3 M28.1 -13.4 L27.65 -12.65 28.05 -11.75 28.3 -12.05 28.15 -12.85 28.1 -13.4 M28.5 -2.95 L27.75 -2.95 27.6 0.15 27.5 3.4 28.2 -0.65 28.5 -2.95 M25.65 3.1 L25.65 2.8 25.2 2.4 24.75 2.8 25.2 3.3 25.65 3.1 M28.35 9.4 L27.9 6.25 27.75 6.25 27.9 23.35 28.05 23.25 28.1 21.3 28.2 17.8 28.4 12.25 28.4 11.75 28.4 11.65 28.35 9.4 M20.7 54.55 L19.75 54.8 20.1 54.7 20.7 54.35 20.7 54.55 M23.8 49.6 L23.9 49.9 23.8 49.9 23.8 49.6 M-24.2 8.0 L-24.9 9.05 Q-25.45 9.9 -26.1 12.6 L-26.7 15.4 Q-26.75 15.95 -26.05 15.95 -25.6 15.95 -25.2 15.1 L-24.8 14.15 -25.35 18.3 Q-25.5 20.2 -24.8 20.2 -24.4 20.2 -23.45 16.95 -22.15 12.35 -20.6 9.05 L-20.55 9.15 Q-20.95 10.4 -21.75 15.0 L-22.5 20.2 Q-22.55 20.8 -21.9 20.8 L-19.4 13.7 -19.1 13.85 -19.1 14.5 Q-19.0 15.05 -18.4 15.05 -18.2 15.05 -17.7 14.45 -19.5 19.0 -19.5 24.2 -19.5 28.5 -17.25 32.55 -13.4 39.5 -4.35 39.5 L-3.05 39.45 Q-5.7 40.3 -12.45 40.3 -19.5 40.3 -25.95 30.5 -26.55 29.35 -27.3 25.65 -28.05 21.85 -28.05 19.65 -28.05 15.95 -26.55 11.7 -26.35 11.05 -24.2 8.0 M-17.45 11.0 L-17.5 11.05 -17.55 10.95 -17.45 11.0 M-19.9 27.05 L-19.9 26.3 Q-19.55 23.85 -20.4 22.9 -21.0 23.3 -21.0 25.05 -20.75 27.15 -20.05 27.15 L-19.9 27.05 M-23.6 22.25 Q-24.5 22.25 -24.5 24.4 -24.5 25.5 -23.05 26.45 -22.45 25.95 -22.45 25.45 L-22.7 23.85 Q-23.05 22.25 -23.6 22.25 M-20.25 13.0 L-20.3 13.05 -20.3 13.0 -20.25 13.0" fill="#e0cbcb" fill-rule="evenodd" stroke="none"/>
    <path d="M29.7 17.5 L29.4 21.6 29.45 26.3 Q28.95 30.5 28.8 37.05 L28.75 42.45 29.0 47.1 29.0 47.6 29.1 48.5 29.25 50.6 29.3 51.3 29.3 51.35 25.45 53.0 25.35 53.05 23.15 53.8 23.15 53.85 22.05 54.15 20.95 54.5 20.7 54.55 20.7 54.35 20.1 54.7 19.75 54.8 18.15 55.2 17.0 55.4 16.1 55.55 15.0 55.75 15.0 55.65 14.95 54.8 14.95 52.05 15.0 51.45 15.0 50.9 Q15.15 45.85 16.35 37.05 L16.95 32.8 17.75 27.1 17.85 28.15 17.85 28.2 17.9 28.3 17.9 28.4 18.8 36.25 18.9 37.05 18.95 37.95 19.25 40.8 19.3 41.2 19.8 37.05 20.85 28.7 22.4 15.15 Q22.85 19.1 22.75 37.05 L22.7 45.15 22.7 45.25 Q23.05 41.5 23.9 37.05 L24.25 35.3 24.85 31.75 25.4 37.0 25.4 43.5 25.6 48.3 25.65 48.0 25.65 47.7 25.95 44.55 26.65 37.05 26.7 36.85 27.4 30.1 27.5 28.9 27.5 28.85 27.55 28.85 27.6 28.9 27.95 28.75 28.05 28.45 27.6 28.0 Q28.5 20.05 29.7 17.5 M23.8 49.6 L23.8 49.9 23.9 49.9 23.8 49.6 M-5.6 3.45 L-5.65 3.5 Q-9.95 3.5 -13.4 7.35 L-15.55 10.15 -16.1 11.1 -16.65 12.15 -17.35 13.55 -17.7 14.45 Q-18.2 15.05 -18.4 15.05 -19.0 15.05 -19.1 14.5 L-19.1 13.85 -19.4 13.7 -21.9 20.8 Q-22.55 20.8 -22.5 20.2 L-21.75 15.0 Q-20.95 10.4 -20.55 9.15 L-20.6 9.05 Q-22.15 12.35 -23.45 16.95 -24.4 20.2 -24.8 20.2 -25.5 20.2 -25.35 18.3 L-24.8 14.15 -25.2 15.1 Q-25.6 15.95 -26.05 15.95 -26.75 15.95 -26.7 15.4 L-26.1 12.6 Q-25.45 9.9 -24.9 9.05 L-24.2 8.0 -24.0 7.7 Q-22.3 5.15 -20.05 4.15 L-19.25 3.85 -18.2 3.45 -18.25 3.15 -12.0 2.45 Q-8.5 2.45 -5.6 3.45 M-17.45 11.0 L-17.55 10.95 -17.5 11.05 -17.45 11.0 M-20.25 13.0 L-20.3 13.0 -20.3 13.05 -20.25 13.0 M-23.6 22.25 Q-23.05 22.25 -22.7 23.85 L-22.45 25.45 Q-22.45 25.95 -23.05 26.45 -24.5 25.5 -24.5 24.4 -24.5 22.25 -23.6 22.25 M-19.9 27.05 L-20.05 27.15 Q-20.75 27.15 -21.0 25.05 -21.0 23.3 -20.4 22.9 -19.55 23.85 -19.9 26.3 L-19.9 27.05" fill="#cca9a9" fill-rule="evenodd" stroke="none"/>
    <path d="M-32.55 -2.95 L15.75 -2.95 15.25 5.4 15.05 8.05 14.8 11.75 14.7 12.9 14.5 15.55 14.5 15.65 Q14.0 20.6 14.25 27.15 L13.9 32.45 13.9 33.1 13.7 36.65 13.7 37.05 13.7 37.45 13.5 42.9 13.4 45.7 13.4 46.3 13.4 46.45 13.4 46.95 13.4 47.4 13.4 47.9 13.4 48.15 13.4 48.3 13.4 48.45 Q13.4 51.0 13.55 52.85 L13.55 52.9 13.6 53.35 13.6 53.4 13.65 54.2 13.75 54.65 13.75 54.8 13.95 55.75 13.95 55.85 10.75 56.0 10.65 56.0 10.75 55.9 -6.6 54.8 -12.35 54.15 -23.65 52.05 Q-26.05 51.65 -32.3 48.4 L-35.3 46.8 -34.8 42.7 -34.4 37.75 -34.35 37.05 -33.9 29.8 -33.95 28.6 -33.85 28.4 -33.1 11.75 -33.0 8.65 -32.85 4.35 -32.55 -2.95 M8.7 23.4 Q8.7 16.05 3.9 9.4 -1.85 1.4 -11.25 1.4 L-17.45 1.75 -19.55 2.85 -21.0 3.55 -20.3 3.4 -20.25 3.35 -20.3 3.45 Q-29.25 7.95 -29.25 19.65 -29.25 27.7 -25.5 33.65 -20.55 41.6 -10.55 41.6 0.4 41.6 5.55 33.35 8.7 28.3 8.7 23.4 M8.95 52.75 L8.85 52.9 8.95 52.9 8.95 52.75 M-5.65 3.5 L-5.6 3.45 -5.35 3.5 -5.65 3.5" fill="url(#gradient1)" fill-rule="evenodd" stroke="none"/>
  </g>
  <defs>
    <radialGradient cx="0" cy="0" gradientTransform="matrix(0.0092, -0.0879, 0.0473, 0.0049, -8.3, -20.85)" gradientUnits="userSpaceOnUse" id="gradient0" r="819.2" spreadMethod="pad">
      <stop offset="0.47843137254901963" stop-color="#ffffff"></stop>
      <stop offset="0.8823529411764706" stop-color="#f2eaea"></stop>
    </radialGradient>
    <radialGradient cx="0" cy="0" gradientTransform="matrix(0.0092, -0.0879, 0.0473, 0.0049, -7.85, -25.8)" gradientUnits="userSpaceOnUse" id="gradient1" r="819.2" spreadMethod="pad">
      <stop offset="0.47843137254901963" stop-color="#ffffff"></stop>
      <stop offset="0.8823529411764706" stop-color="#f2eaea"></stop>
    </radialGradient>
  </defs>
</svg>