<?xml version="1.0" encoding="UTF-8" standalone="no"?>
<svg xmlns:xlink="http://www.w3.org/1999/xlink" height="128.8px" width="73.55px" xmlns="http://www.w3.org/2000/svg">
  <g transform="matrix(1.0, 0.0, 0.0, 1.0, 37.7, 62.4)">
    <path d="M-35.7 55.9 L-35.2 51.8 -34.8 46.85 -34.75 46.15 -34.3 38.9 -34.35 37.7 -34.25 37.5 -33.5 20.85 -33.25 13.45 -32.7 2.15 -32.55 -1.65 -32.6 -1.95 -32.55 -5.1 -32.4 -11.75 16.5 -11.75 15.7 -0.35 14.4 20.85 14.1 24.75 Q13.6 29.7 13.85 36.25 L13.5 41.55 13.3 46.15 Q13.0 52.8 13.0 57.55 13.0 60.1 13.15 61.95 L13.15 62.0 13.2 62.45 13.2 62.5 13.25 63.3 13.35 63.9 13.55 64.95 10.25 65.1 10.35 65.0 -7.0 63.9 -12.75 63.25 -24.05 61.15 Q-26.45 60.75 -32.7 57.5 L-35.7 55.9 M2.15 14.4 L2.6 14.0 Q2.05 12.35 1.8 12.35 1.45 12.35 1.2 12.6 1.4 13.85 2.15 14.4 M1.7 6.75 L1.5 6.75 Q2.1 8.65 3.0 9.8 L3.2 9.65 2.65 8.0 Q2.05 6.75 1.7 6.75 M8.55 62.0 L8.55 61.85 8.45 62.0 8.55 62.0 M-20.4 -4.05 Q-21.85 -3.35 -24.55 -0.65 -27.45 2.2 -27.45 3.45 -27.45 4.2 -27.35 3.75 L-21.5 -2.0 Q-20.4 0.05 -20.4 0.65 -21.75 2.55 -21.75 3.25 -21.75 4.0 -21.6 3.6 L-20.55 2.35 -19.7 0.9 Q-19.7 0.3 -21.3 -2.2 L-19.65 -3.65 -15.9 -4.3 Q-13.0 -4.7 -12.8 -6.3 -12.65 -7.5 -12.8 -10.2 -13.85 -9.85 -13.5 -6.6 -14.1 -5.25 -20.4 -4.05" fill="url(#gradient0)" fill-rule="evenodd" stroke="none"/>
    <path d="M-35.7 55.9 L-35.85 56.9 -36.25 57.05 Q-36.65 56.65 -36.7 55.35 L-36.7 55.15 -36.5 51.8 -36.05 46.15 -35.95 45.1 -35.8 43.65 -35.65 42.4 -35.95 43.7 -35.1 24.85 -35.0 20.85 -34.65 10.85 Q-34.4 6.45 -33.85 3.15 L-33.9 2.4 Q-34.25 -5.6 -33.7 -9.45 -33.6 -10.35 -33.65 -11.75 L-34.0 -15.45 -33.7 -17.25 -33.1 -18.55 -33.1 -18.85 -32.9 -18.85 Q-32.0 -20.2 -30.35 -21.25 L-30.6 -21.8 -31.6 -23.45 Q-32.05 -24.15 -32.05 -25.05 L-32.0 -25.9 -31.25 -32.75 -31.2 -33.3 -31.15 -33.75 -30.15 -42.4 -29.65 -44.6 -29.45 -45.15 -28.45 -46.9 Q-24.9 -53.25 -18.3 -56.6 -13.4 -58.9 -8.1 -59.6 -2.15 -59.9 3.5 -58.35 L16.9 -53.8 Q23.45 -51.4 27.95 -47.1 32.45 -42.8 34.0 -35.5 35.4 -28.55 34.45 -21.45 L34.55 -21.45 34.2 -17.25 31.45 20.85 30.6 33.2 30.2 46.15 30.15 46.75 29.7 55.8 29.4 60.2 29.2 62.0 29.05 62.0 28.85 59.7 28.7 57.6 28.6 56.7 28.6 56.2 28.35 51.55 28.4 46.15 Q28.55 39.6 29.05 35.4 L29.0 30.7 29.3 26.6 29.75 20.85 32.0 -11.75 31.95 -11.75 32.05 -12.8 32.1 -13.75 32.1 -13.95 32.15 -14.75 32.25 -16.3 32.45 -18.85 32.5 -19.75 32.55 -20.75 32.65 -22.1 33.25 -29.7 33.25 -30.15 32.55 -35.3 Q31.9 -38.4 30.95 -40.45 29.2 -44.05 25.45 -47.1 21.65 -50.2 17.5 -51.8 L10.7 -54.6 Q15.0 -50.95 17.15 -46.0 18.55 -42.8 18.85 -39.4 L18.95 -37.05 18.9 -36.45 18.6 -37.7 Q17.0 -44.4 13.45 -49.65 9.9 -54.9 3.5 -56.75 -2.1 -58.6 -8.45 -57.85 -15.7 -57.05 -20.5 -53.35 -25.3 -49.65 -26.5 -47.35 L-27.85 -44.9 -28.5 -42.95 Q-28.8 -39.0 -29.6 -33.75 L-29.7 -33.3 -29.75 -32.75 -30.7 -24.9 -28.95 -22.1 -28.6 -21.2 Q-30.8 -20.2 -31.7 -18.85 L-31.7 -18.8 -32.25 -17.25 -32.25 -17.2 -32.4 -13.15 -32.4 -11.75 -32.55 -5.1 -32.6 -1.95 -32.55 -1.65 -32.7 2.15 -33.25 13.45 -33.5 20.85 -34.25 37.5 -34.35 37.7 -34.3 38.9 -34.75 46.15 -34.8 46.85 -35.2 51.8 -35.7 55.9 M13.9 64.9 L13.9 65.35 13.7 65.4 13.6 65.0 13.55 64.95 13.35 63.9 13.25 63.3 13.2 62.5 13.2 62.45 13.15 62.0 13.15 61.95 Q13.0 60.1 13.0 57.55 13.0 52.8 13.3 46.15 L13.5 41.55 13.85 36.25 Q13.6 29.7 14.1 24.75 L14.4 20.85 15.7 -0.35 16.5 -11.75 16.65 -13.2 17.05 -17.25 17.1 -17.45 17.25 -18.85 17.35 -19.35 18.85 -27.8 18.55 -25.0 18.25 -22.35 18.05 -20.75 17.9 -18.85 17.3 -11.75 17.35 -11.75 17.05 -7.45 16.25 8.1 15.75 20.85 14.5 41.6 14.35 46.15 13.95 61.9 13.95 62.3 13.95 63.9 13.9 64.9 M29.55 -36.0 Q31.05 -33.0 31.05 -30.7 L30.7 -26.1 30.5 -26.0 Q30.2 -26.3 30.2 -27.0 L30.6 -31.7 Q30.6 -32.65 29.5 -36.0 L29.55 -36.0 M17.15 -37.8 Q17.7 -36.8 17.7 -35.85 L17.6 -34.5 Q17.45 -34.35 17.15 -34.35 L16.85 -37.15 Q16.85 -37.6 17.15 -37.8 M29.65 -24.3 Q29.65 -25.65 29.9 -25.75 L30.05 -24.45 29.95 -23.15 29.8 -23.05 Q29.65 -23.3 29.65 -24.3 M28.5 -6.3 L28.55 -2.7 Q28.6 5.0 27.1 12.5 L27.2 9.25 Q27.45 1.5 28.5 -6.3 M25.25 12.2 Q25.2 12.3 24.8 12.4 L24.35 11.9 24.8 11.5 25.25 11.9 25.25 12.2 M28.0 21.35 L27.8 26.9 Q27.65 28.7 27.65 32.35 L27.5 32.45 27.25 16.4 27.35 15.35 27.5 15.35 Q27.95 16.9 28.0 20.85 L28.0 21.35 M1.7 6.75 Q2.05 6.75 2.65 8.0 L3.2 9.65 3.0 9.8 Q2.1 8.65 1.5 6.75 L1.7 6.75 M2.15 14.4 Q1.4 13.85 1.2 12.6 1.45 12.35 1.8 12.35 2.05 12.35 2.6 14.0 L2.15 14.4 M27.2 37.1 L27.65 37.55 27.55 37.85 27.2 38.0 27.15 37.95 27.1 37.95 26.75 37.5 Q26.75 37.1 27.2 37.1 M-14.4 -51.1 L-13.2 -52.15 Q-12.1 -52.75 -11.5 -52.6 -11.8 -51.3 -14.1 -50.95 L-14.4 -51.1 M-17.95 -50.8 Q-14.05 -53.7 -13.4 -53.15 -13.7 -52.8 -17.85 -50.75 L-17.95 -50.8 M-20.4 -4.05 Q-14.1 -5.25 -13.5 -6.6 -13.85 -9.85 -12.8 -10.2 -12.65 -7.5 -12.8 -6.3 -13.0 -4.7 -15.9 -4.3 L-19.65 -3.65 -21.3 -2.2 Q-19.7 0.3 -19.7 0.9 L-20.55 2.35 -21.6 3.6 Q-21.75 4.0 -21.75 3.25 -21.75 2.55 -20.4 0.65 -20.4 0.05 -21.5 -2.0 L-27.35 3.75 Q-27.45 4.2 -27.45 3.45 -27.45 2.2 -24.55 -0.65 -21.85 -3.35 -20.4 -4.05" fill="#a36a6a" fill-rule="evenodd" stroke="none"/>
    <path d="M18.6 -37.7 L18.9 -36.45 18.95 -37.05 18.85 -39.4 Q18.55 -42.8 17.15 -46.0 15.0 -50.95 10.7 -54.6 L17.5 -51.8 Q21.65 -50.2 25.45 -47.1 29.2 -44.05 30.95 -40.45 31.9 -38.4 32.55 -35.3 L33.25 -30.15 33.25 -29.7 32.65 -22.1 32.55 -20.75 32.5 -19.75 32.45 -18.85 32.25 -16.3 32.15 -14.75 32.1 -13.95 32.1 -13.75 32.05 -12.8 31.95 -11.75 32.0 -11.75 29.75 20.85 29.3 26.6 Q28.1 29.15 27.2 37.1 26.75 37.1 26.75 37.5 L27.1 37.95 27.1 38.0 26.25 46.15 25.2 57.4 25.0 52.6 25.0 46.1 24.45 40.85 23.85 44.4 23.5 46.15 Q22.65 50.6 22.3 54.35 L22.3 54.25 22.35 46.15 Q22.45 28.2 22.0 24.25 L20.45 37.8 19.4 46.15 18.9 50.3 18.5 46.15 17.45 37.25 17.35 36.2 16.55 41.9 15.95 46.15 Q14.75 54.9 14.6 60.0 L14.55 63.9 14.6 64.85 13.9 64.9 13.95 63.9 13.95 62.3 13.95 61.9 14.35 46.15 14.5 41.6 15.75 20.85 16.25 8.1 17.05 -7.45 17.35 -11.75 17.3 -11.75 17.9 -18.85 18.05 -20.75 18.25 -22.35 18.55 -25.0 18.85 -27.8 17.35 -19.35 17.25 -18.85 17.1 -17.45 17.25 -18.85 17.25 -19.05 17.25 -19.15 17.25 -19.35 17.3 -19.7 17.3 -19.9 17.35 -20.75 17.4 -20.8 17.75 -22.45 18.25 -25.05 Q18.75 -28.6 18.7 -32.3 L18.7 -35.3 18.8 -35.3 18.75 -35.45 Q18.6 -36.25 18.6 -37.45 L18.6 -37.7 M20.3 63.65 L19.35 63.9 19.7 63.8 20.3 63.45 20.3 63.65 M29.55 -36.0 L29.5 -36.0 Q30.6 -32.65 30.6 -31.7 L30.2 -27.0 Q30.2 -26.3 30.5 -26.0 L30.7 -26.1 31.05 -30.7 Q31.05 -33.0 29.55 -36.0 M29.65 -24.3 Q29.65 -23.3 29.8 -23.05 L29.95 -23.15 30.05 -24.45 29.9 -25.75 Q29.65 -25.65 29.65 -24.3 M28.5 -6.3 Q27.45 1.5 27.2 9.25 L27.1 12.5 Q28.6 5.0 28.55 -2.7 L28.5 -6.3 M28.0 21.35 L28.0 20.85 Q27.95 16.9 27.5 15.35 L27.35 15.35 27.25 16.4 27.5 32.45 27.65 32.35 Q27.65 28.7 27.8 26.9 L28.0 21.35 M25.25 12.2 L25.25 11.9 24.8 11.5 24.35 11.9 24.8 12.4 Q25.2 12.3 25.25 12.2 M23.4 58.7 L23.5 59.0 23.4 59.0 23.4 58.7" fill="#e0cbcb" fill-rule="evenodd" stroke="none"/>
    <path d="M29.3 26.6 L29.0 30.7 29.05 35.4 Q28.55 39.6 28.4 46.15 L28.35 51.55 28.6 56.2 28.6 56.7 28.7 57.6 28.85 59.7 28.9 60.4 28.9 60.45 25.05 62.1 24.95 62.15 22.75 62.9 22.75 62.95 21.65 63.25 20.55 63.6 20.3 63.65 20.3 63.45 19.7 63.8 19.35 63.9 17.75 64.3 16.6 64.5 15.7 64.65 14.6 64.85 14.55 63.9 14.6 60.0 Q14.75 54.9 15.95 46.15 L16.55 41.9 17.35 36.2 17.45 37.25 18.5 46.15 18.9 50.3 19.4 46.15 20.45 37.8 22.0 24.25 Q22.45 28.2 22.35 46.15 L22.3 54.25 22.3 54.35 Q22.65 50.6 23.5 46.15 L23.85 44.4 24.45 40.85 25.0 46.1 25.0 52.6 25.2 57.4 26.25 46.15 27.1 38.0 27.1 37.95 27.15 37.95 27.2 38.0 27.55 37.85 27.65 37.55 27.2 37.1 Q28.1 29.15 29.3 26.6 M23.4 58.7 L23.4 59.0 23.5 59.0 23.4 58.7" fill="#cca9a9" fill-rule="evenodd" stroke="none"/>
    <path d="M24.85 -61.35 L24.9 -61.4 24.85 -61.35 M-32.4 -11.75 L-32.4 -13.15 -32.25 -17.2 -32.25 -17.25 -31.7 -18.8 -31.7 -18.85 Q-30.8 -20.2 -28.6 -21.2 L-28.95 -22.1 -30.7 -24.9 -29.75 -32.75 -29.7 -33.3 -29.6 -33.75 Q-28.8 -39.0 -28.5 -42.95 L-27.85 -44.9 -26.5 -47.35 Q-25.3 -49.65 -20.5 -53.35 -15.7 -57.05 -8.45 -57.85 -2.1 -58.6 3.5 -56.75 9.9 -54.9 13.45 -49.65 17.0 -44.4 18.6 -37.7 L18.6 -37.45 Q18.6 -36.25 18.75 -35.45 L18.8 -35.3 18.7 -35.3 18.7 -32.3 Q18.75 -28.6 18.25 -25.05 L17.75 -22.45 17.4 -20.8 17.35 -20.75 17.3 -19.9 17.3 -19.7 17.25 -19.35 17.25 -19.15 17.25 -19.05 17.25 -18.85 17.1 -17.45 17.05 -17.25 16.65 -13.2 16.5 -11.75 -32.4 -11.75 M17.15 -37.8 Q16.85 -37.6 16.85 -37.15 L17.15 -34.35 Q17.45 -34.35 17.6 -34.5 L17.7 -35.85 Q17.7 -36.8 17.15 -37.8 M-17.95 -50.8 L-17.85 -50.75 Q-13.7 -52.8 -13.4 -53.15 -14.05 -53.7 -17.95 -50.8 M-14.4 -51.1 L-14.1 -50.95 Q-11.8 -51.3 -11.5 -52.6 -12.1 -52.75 -13.2 -52.15 L-14.4 -51.1" fill="url(#gradient1)" fill-rule="evenodd" stroke="none"/>
  </g>
  <defs>
    <radialGradient cx="0" cy="0" gradientTransform="matrix(0.0092, -0.0879, 0.0473, 0.0049, -8.25, -16.7)" gradientUnits="userSpaceOnUse" id="gradient0" r="819.2" spreadMethod="pad">
      <stop offset="0.47843137254901963" stop-color="#ffffff"></stop>
      <stop offset="0.8823529411764706" stop-color="#f2eaea"></stop>
    </radialGradient>
    <radialGradient cx="0" cy="0" gradientTransform="matrix(0.0092, -0.0879, 0.0473, 0.0049, -7.8, -30.05)" gradientUnits="userSpaceOnUse" id="gradient1" r="819.2" spreadMethod="pad">
      <stop offset="0.47843137254901963" stop-color="#ffffff"></stop>
      <stop offset="0.8823529411764706" stop-color="#f2eaea"></stop>
    </radialGradient>
  </defs>
</svg>