<?xml version="1.0" encoding="UTF-8" standalone="no"?>
<svg xmlns:xlink="http://www.w3.org/1999/xlink" height="99.75px" width="60.05px" xmlns="http://www.w3.org/2000/svg">
  <g transform="matrix(1.0, 0.0, 0.0, 1.0, 39.55, 37.75)">
    <path d="M17.9 -32.05 Q17.7 -29.25 16.6 -29.25 L15.8 -29.55 15.75 -30.2 16.0 -31.7 Q16.4 -33.05 17.05 -33.05 17.9 -33.05 17.9 -32.05 M18.15 -35.6 L18.15 -34.0 Q17.8 -33.6 17.55 -33.55 17.0 -34.15 17.0 -34.9 17.0 -36.65 17.65 -36.75 L18.15 -35.6 M19.5 -25.8 Q19.5 -25.0 18.75 -25.0 18.0 -25.0 18.0 -25.85 18.0 -26.3 18.75 -26.55 L19.5 -25.8 M17.85 -25.8 Q17.7 -24.75 16.8 -24.75 16.05 -24.75 15.35 -26.05 14.8 -27.05 14.8 -27.4 14.8 -28.55 15.85 -28.55 17.2 -28.55 17.85 -25.8 M18.5 -21.05 Q19.45 -21.05 19.25 -19.55 L18.75 -18.5 Q17.75 -19.1 17.75 -19.55 17.75 -21.05 18.5 -21.05 M15.4 -23.5 L16.15 -24.5 16.8 -24.65 Q17.8 -24.65 18.15 -22.3 18.15 -21.8 17.25 -20.75 L16.85 -20.35 Q17.65 -19.75 17.8 -18.0 L17.85 -17.65 17.85 -17.35 Q17.85 -15.55 16.6 -15.55 15.35 -15.55 14.85 -16.95 L14.7 -17.5 14.6 -18.45 14.6 -18.8 14.5 -18.8 Q13.75 -18.8 13.5 -19.35 13.35 -19.6 13.35 -19.95 13.35 -21.0 14.5 -21.0 L14.55 -21.0 14.6 -20.6 Q14.5 -20.9 14.55 -21.3 14.55 -22.0 15.0 -22.85 L14.5 -22.75 Q13.85 -22.75 13.65 -23.25 13.5 -23.45 13.5 -23.75 13.5 -24.65 14.5 -24.65 15.25 -24.65 15.4 -23.75 L15.4 -23.5 M13.6 -18.75 Q13.6 -17.75 12.3 -17.75 12.0 -17.75 11.6 -18.15 L11.55 -18.55 Q11.55 -19.55 12.7 -19.55 13.7 -19.55 13.6 -18.75 M14.0 -15.8 Q15.25 -15.8 15.85 -15.05 L16.15 -15.0 16.05 -14.7 16.35 -13.45 16.35 -13.35 16.8 -13.55 17.25 -13.4 17.5 -13.1 17.65 -11.55 17.6 -10.5 Q17.45 -9.35 17.0 -8.5 17.25 -8.35 16.6 -8.35 16.0 -8.35 15.8 -9.25 L15.75 -10.2 15.85 -11.7 16.15 -12.25 Q15.9 -11.6 15.3 -11.3 L15.35 -10.85 Q15.35 -10.3 14.85 -10.1 L14.35 -10.0 Q13.55 -10.0 13.35 -10.4 L13.3 -10.8 13.35 -11.1 Q12.6 -11.3 12.15 -11.9 L12.0 -12.15 Q11.6 -12.8 11.6 -13.4 11.6 -15.8 14.0 -15.8 M10.05 -10.9 Q10.05 -12.05 11.35 -12.05 12.3 -12.05 12.3 -11.15 12.3 -9.8 11.1 -9.8 10.3 -9.8 10.1 -10.3 L10.05 -10.9 M12.8 -7.5 L12.0 -8.4 Q12.0 -9.45 13.0 -9.3 L13.65 -8.65 Q13.3 -7.85 12.8 -7.5 M13.7 -4.25 L13.25 -4.9 Q13.0 -5.4 13.0 -6.15 13.0 -8.5 15.4 -8.5 17.65 -8.5 17.75 -6.15 L17.75 -5.95 18.0 -6.0 Q19.15 -6.0 19.1 -4.85 19.1 -3.6 18.0 -3.6 17.2 -3.6 17.05 -4.2 16.45 -3.75 15.4 -3.75 L14.85 -3.75 Q14.1 -3.9 13.7 -4.25 M14.25 -2.25 Q15.2 -2.25 15.75 0.15 15.75 1.75 14.75 1.75 14.0 1.75 13.6 0.35 L13.3 -1.15 Q13.3 -1.55 13.45 -1.8 13.05 -1.85 12.85 -2.25 L12.75 -2.75 Q12.75 -3.55 13.5 -3.55 14.25 -3.55 14.25 -2.75 L14.2 -2.25 14.25 -2.25 M16.5 -2.8 Q17.55 -2.8 17.55 -1.9 17.55 -0.65 16.35 -0.65 15.7 -0.65 15.5 -1.15 L15.4 -1.75 Q15.4 -2.8 16.5 -2.8 M15.75 2.15 L16.0 3.3 15.75 4.1 15.5 4.1 Q15.35 3.85 15.35 3.25 15.35 2.45 15.5 2.15 L15.75 2.15 M16.15 5.55 Q16.45 5.3 16.6 5.35 L17.35 6.1 17.25 6.75 16.6 6.9 15.85 6.5 15.8 6.05 Q15.8 5.85 16.15 5.55 M14.3 3.5 Q15.0 4.2 15.0 5.0 L14.8 6.55 14.05 6.8 13.5 5.05 Q13.5 4.0 14.3 3.5 M14.5 9.05 Q14.7 8.75 15.15 8.75 16.15 8.75 16.1 10.05 16.1 11.35 15.15 11.35 14.25 11.35 14.25 10.0 L14.25 9.8 14.1 9.8 13.9 9.3 14.05 8.55 14.3 8.55 14.5 9.05 M14.5 14.65 Q14.5 15.85 13.75 15.85 13.15 15.85 12.85 15.3 L12.65 14.65 Q12.65 13.85 13.5 13.85 14.35 13.85 14.5 14.65 M-32.9 33.55 Q-32.9 33.85 -33.75 34.4 L-33.9 33.65 Q-33.9 33.1 -33.4 32.95 -32.9 33.1 -32.9 33.55 M-34.3 38.7 Q-35.15 38.7 -35.15 37.9 -35.15 37.05 -34.3 37.05 -33.45 37.05 -33.45 37.9 -33.45 38.7 -34.3 38.7 M-33.05 41.25 Q-33.05 42.15 -33.85 42.15 L-34.55 41.85 -34.65 41.15 Q-34.65 40.4 -33.85 40.4 L-33.05 41.25 M-34.15 40.45 L-34.6 40.9 -34.85 40.95 -35.5 40.85 -35.6 40.35 Q-35.6 39.9 -34.75 39.5 -34.15 40.0 -34.15 40.25 L-34.15 40.45 M-34.25 43.05 Q-33.65 43.05 -33.3 43.55 L-33.1 44.15 Q-33.1 45.0 -33.8 45.2 L-33.9 46.65 Q-34.05 47.35 -34.35 47.75 L-34.2 48.05 -34.15 48.6 Q-34.15 49.55 -34.95 50.0 L-35.05 49.95 -35.15 50.4 -34.55 50.25 Q-33.8 50.25 -33.55 50.75 L-33.45 51.3 Q-33.45 52.4 -34.55 52.4 -35.8 52.4 -35.6 51.35 L-35.6 51.25 Q-36.1 52.0 -36.55 52.0 -37.75 52.0 -37.85 50.2 -37.85 48.7 -36.3 48.7 L-35.8 48.8 -35.7 49.2 -35.8 48.6 -35.7 48.05 Q-36.8 47.4 -36.8 43.9 -36.8 42.3 -35.4 42.3 -34.65 42.3 -34.25 43.05 M-32.75 47.95 Q-31.95 47.95 -31.6 48.8 L-31.4 49.75 Q-31.4 50.9 -32.5 50.9 -33.75 50.9 -33.85 49.25 -33.95 47.95 -32.75 47.95 M-29.15 53.8 Q-30.05 53.8 -30.05 52.8 -30.05 52.0 -29.15 52.0 -28.5 52.0 -28.25 52.4 L-28.1 52.85 Q-28.1 53.8 -29.15 53.8 M-29.5 54.45 Q-29.5 55.45 -30.5 55.45 L-30.85 55.45 -30.75 55.6 -30.55 56.25 -30.55 56.4 Q-30.25 55.8 -29.35 55.8 -28.55 55.8 -28.2 56.45 L-28.0 57.15 Q-28.0 58.5 -29.35 58.5 -30.9 58.5 -30.7 57.1 L-30.7 56.9 Q-30.9 57.35 -31.5 57.5 L-31.2 57.9 -30.85 58.7 Q-30.85 59.7 -31.75 59.75 L-31.85 59.75 -32.1 59.75 -32.3 59.7 -33.05 58.95 -33.3 58.25 Q-33.3 57.6 -32.95 57.35 L-33.1 57.5 Q-34.0 57.35 -34.35 56.9 L-34.4 56.25 -34.4 57.1 Q-34.4 58.15 -35.4 58.15 -37.0 58.15 -36.7 56.7 -36.7 54.9 -35.4 54.9 -34.75 54.9 -34.5 55.7 L-34.3 55.45 -34.65 54.55 -34.95 54.7 Q-36.05 54.7 -36.05 53.7 -36.05 53.05 -35.4 53.05 -34.75 53.05 -34.5 53.35 -34.3 53.05 -33.85 53.05 -33.45 53.05 -33.25 53.3 -33.0 53.0 -32.4 53.0 -31.7 53.0 -31.3 53.6 L-31.25 53.7 Q-31.0 53.45 -30.5 53.45 -29.85 53.45 -29.6 53.95 L-29.5 54.45 M-26.85 56.0 Q-26.85 54.8 -25.8 54.8 -25.0 54.8 -25.0 55.75 -25.0 56.85 -26.25 56.65 L-26.85 56.0 M-29.8 59.85 Q-30.7 59.85 -30.7 59.1 L-30.6 58.7 Q-30.95 58.65 -30.45 58.65 -29.8 58.65 -29.35 59.35 L-29.8 59.85 M-28.0 59.1 Q-27.3 59.1 -27.05 59.55 L-26.9 60.0 Q-26.9 61.0 -28.0 61.0 -28.9 61.0 -29.0 60.05 -29.0 59.1 -28.0 59.1 M-36.75 54.85 Q-36.75 55.8 -37.65 55.8 -38.55 55.8 -38.55 54.85 -38.55 54.0 -37.65 54.0 L-36.75 54.85" fill="#024301" fill-opacity="0.43137255" fill-rule="evenodd" stroke="none"/>
  </g>
</svg>