<?xml version="1.0" encoding="UTF-8" standalone="no"?>
<svg xmlns:xlink="http://www.w3.org/1999/xlink" height="9.7px" width="24.8px" xmlns="http://www.w3.org/2000/svg">
  <g transform="matrix(1.0, 0.0, 0.0, 1.0, 12.4, 4.85)">
    <path d="M2.35 -0.5 L1.65 0.6 Q0.75 3.8 0.05 3.8 L-1.95 2.3 -4.55 0.95 Q-6.9 3.65 -7.35 3.65 -7.75 3.65 -8.0 2.0 L-10.8 3.85 -11.4 2.75 Q-11.4 1.75 -9.75 -0.8 -8.2 -3.35 -5.05 -3.8 L-4.85 -3.85 0.95 -3.25 3.4 -3.6 Q4.3 -3.6 4.3 -3.1 L3.4 -2.5 Q2.95 -2.5 2.65 -1.9 2.35 -1.35 2.35 -0.5" fill="#e0cbcb" fill-rule="evenodd" stroke="none"/>
    <path d="M3.4 -2.5 L4.05 -2.6 6.45 -2.0 9.4 -1.5 Q10.7 -1.25 11.1 -0.9 L11.4 -0.35 9.9 -0.3 9.75 0.8 Q9.35 0.8 8.9 0.45 L7.35 -0.8 Q6.2 -1.5 5.25 -1.35 L5.8 0.2 4.2 0.35 Q3.25 0.1 2.35 -0.5 2.35 -1.35 2.65 -1.9 2.95 -2.5 3.4 -2.5" fill="#cca9a9" fill-rule="evenodd" stroke="none"/>
  </g>
</svg>