<?xml version="1.0" encoding="UTF-8" standalone="no"?>
<svg xmlns:xlink="http://www.w3.org/1999/xlink" height="8.05px" width="41.55px" xmlns="http://www.w3.org/2000/svg">
  <g transform="matrix(1.0, 0.0, 0.0, 1.0, 20.8, 4.05)">
    <path d="M-18.8 -3.05 Q-17.45 -3.05 -15.2 -1.75 -13.0 -0.55 -13.0 0.0 L-13.85 0.9 Q-14.75 1.6 -15.35 1.6 -17.95 1.6 -19.8 -1.8 -19.3 -3.05 -18.8 -3.05 M0.4 -0.45 Q0.4 -2.5 10.55 -2.0 L10.05 -2.0 Q19.75 -1.6 19.75 0.0 19.75 0.9 15.6 1.95 11.55 3.0 8.55 3.0 6.85 3.0 7.15 2.05 L3.5 0.9 Q0.4 -0.2 0.4 -0.45" fill="#ffffff" fill-rule="evenodd" stroke="none"/>
  </g>
</svg>