<?xml version="1.0" encoding="UTF-8" standalone="no"?>
<svg xmlns:xlink="http://www.w3.org/1999/xlink" height="82.35px" width="84.35px" xmlns="http://www.w3.org/2000/svg">
  <g transform="matrix(1.0, 0.0, 0.0, 1.0, 51.45, 38.25)">
    <path d="M21.75 -27.9 L22.55 -27.35 19.55 -33.75 6.9 -28.35 9.05 -22.95 16.6 -25.9 21.75 -27.9 M20.5 -33.7 L23.9 -26.35 26.9 -24.15 27.25 -23.7 28.15 -21.95 29.25 -21.15 29.55 -19.25 29.55 -18.25 Q29.5 -13.75 28.95 -9.25 L31.9 -4.95 31.6 -4.4 24.9 14.3 Q24.75 14.6 24.3 14.65 L21.0 14.4 17.85 18.45 18.65 19.9 17.65 20.85 Q14.05 24.5 9.2 26.1 L6.3 27.65 3.7 28.9 0.1 30.5 -4.2 32.45 -2.65 32.05 -20.25 39.95 -24.35 41.7 Q-28.0 43.25 -32.05 43.1 L-33.75 43.1 Q-36.45 42.75 -38.95 41.6 L-44.8 28.1 -40.65 17.7 -37.9 16.8 -39.25 14.6 -41.0 10.95 -42.55 7.05 -43.65 4.5 Q-46.9 -1.85 -50.45 -7.95 L-50.2 -8.75 Q-49.35 -11.7 -47.15 -13.55 L-41.65 -18.15 -40.95 -18.75 -38.95 -21.2 -36.0 -22.0 -34.15 -19.4 -32.45 -16.7 Q-29.65 -12.1 -27.35 -7.15 L-27.85 -7.8 -22.15 2.2 -22.85 -5.85 -24.0 -7.35 -23.9 -7.95 -24.5 -7.95 -28.85 -19.1 -28.3 -20.85 -27.35 -22.6 Q-25.25 -25.8 -22.8 -28.7 L-21.7 -29.6 Q-16.75 -31.8 -11.35 -33.55 L-8.85 -34.2 -3.85 -34.75 Q-0.65 -30.9 1.05 -26.05 L1.75 -23.85 3.7 -17.6 6.6 -21.45 4.0 -27.45 3.55 -29.05 Q3.35 -30.9 4.0 -32.55 L15.5 -36.55 15.35 -36.45 17.55 -37.25 20.5 -33.7 M7.0 -24.95 L5.85 -28.05 4.6 -28.55 7.3 -21.8 8.25 -22.45 7.4 -24.65 7.0 -24.95 M5.05 -31.8 L5.3 -29.9 6.25 -29.2 17.6 -33.8 17.55 -34.65 16.9 -35.05 13.4 -35.6 5.05 -31.8 M14.0 -27.55 L13.95 -27.35 13.7 -27.4 13.5 -27.7 Q13.4 -27.9 13.45 -28.0 L13.55 -28.25 13.75 -28.15 13.95 -27.9 14.0 -27.55 M16.6 -25.9 L15.55 -27.05 16.5 -26.5 16.6 -25.9 M14.4 -18.35 L16.9 -17.55 26.8 -22.45 21.55 -26.55 9.35 -22.2 Q11.55 -19.7 14.4 -18.35 M17.9 -17.1 L16.3 -14.5 Q15.7 -13.45 15.7 -12.25 L15.75 -1.7 26.45 -5.6 27.15 -9.95 Q27.45 -12.6 26.9 -15.4 26.65 -16.5 26.8 -17.6 L27.0 -18.45 28.1 -13.1 28.0 -20.6 27.3 -20.9 17.9 -17.1 M14.25 -13.65 Q14.15 -14.9 13.45 -15.8 L10.1 -19.55 9.2 -22.1 4.15 -15.95 4.5 -13.15 Q4.7 -11.6 5.4 -10.05 L6.55 -7.7 Q7.85 -5.2 8.0 -2.25 L8.05 -0.5 7.85 3.15 Q7.75 5.2 8.1 7.3 8.35 8.9 7.7 10.25 L10.0 12.0 10.1 11.45 11.7 7.65 13.6 2.95 13.75 2.3 Q13.7 1.2 12.95 0.45 L7.85 -4.4 8.0 -5.65 14.55 -0.8 15.0 -1.1 14.25 -13.65 M15.5 -14.55 L16.4 -16.55 14.85 -16.7 15.5 -14.55 M17.85 -20.75 L17.45 -20.8 Q18.2 -21.35 17.85 -20.75 M1.45 -20.0 L0.45 -23.5 Q-1.25 -28.7 -3.6 -33.8 L-4.45 -34.25 -17.2 -29.2 -18.9 -23.1 -19.55 -19.95 -19.65 -18.7 Q-19.75 -16.8 -19.05 -14.75 L-16.8 -7.3 -16.4 -6.65 2.95 -13.8 2.3 -16.8 1.45 -20.0 M2.75 -12.35 L3.45 -11.85 3.45 -12.6 2.75 -12.35 M9.7 -13.0 L9.85 -12.6 Q10.1 -11.65 9.15 -11.5 L9.7 -13.0 M3.7 -7.2 L2.95 -7.2 4.75 -8.55 1.65 -12.05 0.05 -11.95 Q-3.9 -9.65 -7.9 -7.9 -10.15 -6.95 -12.5 -6.7 L-13.3 -6.15 Q-16.35 -4.65 -19.6 -5.15 L-18.6 -4.2 -19.5 -4.35 -12.1 -1.4 -11.65 -2.0 1.1 -6.25 -1.7 -5.1 -11.25 -1.25 Q-12.8 1.2 -12.3 4.15 -13.05 3.45 -12.9 2.3 L-12.55 -0.55 -15.85 -1.65 -13.35 2.3 -21.6 -4.8 Q-18.65 2.0 -17.95 9.55 L-10.9 16.3 -11.9 8.85 -9.25 16.85 -9.9 16.35 -9.55 17.2 6.85 9.4 6.5 5.25 5.65 7.25 4.95 -0.1 Q4.6 -3.45 3.45 -6.7 L6.25 -1.3 5.35 -7.3 3.7 -7.2 M30.2 -3.85 L30.2 -4.7 28.0 -5.25 27.65 -4.65 Q28.3 -3.4 27.95 -1.55 L27.35 0.1 25.15 5.1 Q24.35 6.85 23.75 9.15 L23.5 9.95 22.95 10.1 21.5 13.45 24.5 13.65 25.1 11.9 24.2 13.4 26.75 4.05 26.05 8.95 30.2 -3.85 M28.15 -6.1 L30.25 -5.55 28.55 -8.45 28.15 -6.1 M15.9 -0.15 L19.75 -1.0 Q23.15 -1.9 26.45 -3.45 L26.45 -4.75 14.95 -0.15 15.9 -0.15 M16.75 4.65 L17.35 4.35 17.05 6.65 19.6 3.7 18.35 6.5 17.0 7.05 15.15 11.3 22.95 8.55 26.85 -2.15 Q23.25 -1.05 19.75 0.5 L17.15 1.75 Q15.9 2.35 15.0 3.55 L14.15 5.1 Q12.5 8.55 11.25 12.3 L12.9 12.2 14.35 10.5 15.55 8.75 Q16.7 6.85 16.75 4.65 M14.25 0.5 Q14.65 1.5 14.55 2.6 L15.85 1.05 14.25 0.5 M4.95 19.95 L4.65 23.9 5.9 18.9 Q3.0 17.8 0.05 18.5 L-4.6 20.0 -9.3 21.5 -11.5 30.35 1.85 25.15 2.35 23.9 2.0 25.05 4.2 23.7 4.95 19.95 M6.2 18.2 L6.4 17.6 Q7.3 14.95 6.95 12.25 4.55 15.0 1.25 16.65 3.9 16.75 6.2 18.2 M6.35 11.0 L5.6 10.9 -6.65 17.05 -6.3 18.35 -7.0 17.2 -8.0 17.65 -7.55 19.15 -8.4 17.8 -9.05 18.05 -8.25 19.55 -9.6 18.35 -8.6 20.55 -0.7 16.1 5.55 12.65 Q6.5 11.9 6.35 11.0 M19.4 11.45 L19.75 11.4 Q21.1 11.0 21.9 9.9 L19.75 10.8 Q16.95 11.9 14.05 12.6 L10.45 13.0 Q9.0 13.0 7.9 11.95 L8.0 13.25 10.05 15.5 19.4 11.45 M9.45 24.45 L8.75 24.7 17.55 19.7 16.8 18.4 9.15 21.65 15.3 19.9 14.25 20.45 16.2 20.0 -1.45 30.25 7.05 26.15 Q8.9 25.7 10.65 24.45 L7.95 25.5 9.45 24.45 M7.0 21.1 L8.25 21.1 16.65 17.6 17.05 17.3 19.6 14.3 19.75 14.15 Q20.8 12.8 21.25 11.55 L10.15 16.15 7.0 21.1 M5.15 25.55 L4.7 25.45 -6.7 30.95 -4.8 29.65 -8.45 31.05 -5.0 29.25 -12.2 31.5 -13.8 30.1 -15.85 31.4 -14.7 31.05 -17.15 32.5 -16.95 33.1 -22.55 36.4 -20.9 34.8 -23.8 36.55 -22.55 35.75 -24.85 36.35 -26.75 36.5 -30.35 30.5 -33.25 25.15 Q-34.25 23.25 -34.7 21.15 L-35.5 20.3 -35.85 20.65 -36.15 21.4 Q-34.4 26.05 -32.25 30.5 -29.75 35.8 -26.7 40.75 L-25.9 41.0 Q-22.25 39.15 -18.35 37.9 L-20.65 39.3 -18.85 38.95 -17.15 38.35 Q-11.45 35.15 -5.35 32.8 L-5.85 32.05 -3.2 30.5 0.35 28.45 8.85 23.55 5.15 25.55 M4.45 24.7 L6.05 24.35 5.5 24.85 10.9 21.7 4.45 24.7 M-44.45 -14.0 L-48.15 -10.35 -48.8 -9.05 -47.95 -7.95 -43.55 -13.85 -44.8 -13.5 -44.4 -13.95 -42.3 -15.1 -41.75 -15.4 -42.35 -14.0 -42.35 -13.95 -42.5 -13.75 -42.5 -13.7 -44.4 -10.05 -45.2 -8.9 Q-46.15 -8.05 -47.1 -7.8 L-42.5 1.1 Q-39.05 -1.95 -34.75 -3.65 -31.6 -4.55 -28.6 -5.9 L-32.65 -14.0 Q-33.65 -16.0 -34.9 -17.8 L-35.45 -18.55 -35.55 -18.75 -36.05 -19.4 -37.35 -20.6 -45.25 -14.0 -44.45 -14.0 M-19.25 -28.85 Q-19.0 -29.3 -19.6 -29.2 -23.5 -28.1 -25.5 -24.6 L-27.2 -21.35 -27.8 -19.55 Q-25.65 -12.7 -21.6 -6.5 L-17.5 -6.3 Q-18.95 -11.65 -21.1 -16.85 -21.5 -17.85 -22.4 -18.1 L-24.75 -18.7 -27.2 -19.1 -20.9 -18.9 -19.25 -28.85 M-36.35 -17.65 L-40.05 -16.3 -36.75 -18.15 -36.35 -17.65 M-21.0 -9.55 Q-20.75 -8.8 -21.05 -9.55 L-21.0 -9.55 M-26.0 -1.9 L-27.0 -2.35 -40.65 4.75 -38.55 4.1 -37.7 4.4 -33.8 2.85 Q-29.6 1.0 -26.0 -1.9 M-3.95 -16.35 L-4.6 -16.1 -4.75 -16.15 -4.7 -16.65 -4.55 -16.8 -4.5 -16.8 -3.95 -16.35 M-8.0 -13.65 Q-7.95 -13.7 -7.85 -13.55 -8.1 -13.05 -8.8 -12.9 L-8.95 -12.85 -8.95 -12.9 -9.05 -13.3 -8.6 -13.6 -8.55 -13.6 -8.0 -13.65 M-8.85 -22.4 Q-8.05 -23.2 -7.35 -24.15 L-9.9 -18.4 -10.0 -19.05 Q-10.15 -21.1 -8.85 -22.4 M-2.7 -11.0 L-9.7 -8.35 -8.05 -8.6 Q-5.05 -8.95 -2.7 -11.0 M-10.3 -6.1 L-10.35 -6.15 Q-9.7 -6.25 -10.3 -6.1 M-16.9 15.2 L-15.45 16.45 -18.15 10.9 -16.7 14.05 -16.9 15.2 M-17.55 15.7 L-20.05 17.3 -19.65 18.2 -20.35 17.95 -20.4 17.35 -22.3 18.7 -22.1 19.95 -22.85 18.6 -25.35 20.0 -23.85 22.2 -25.65 20.15 -26.75 20.75 -24.9 23.7 -27.05 20.95 -28.1 21.5 -27.2 23.5 -28.55 21.75 -29.4 22.2 -28.15 24.0 -28.65 23.9 -29.8 22.45 -30.4 22.85 -27.45 25.5 Q-22.5 22.55 -17.65 19.4 L-16.15 17.9 -17.55 15.7 M-20.1 15.8 L-17.8 14.2 -25.15 -0.6 -37.4 5.95 -37.65 8.9 -37.3 9.55 -37.15 10.55 Q-35.2 16.55 -32.2 21.9 L-31.75 22.6 -27.5 19.75 Q-23.8 18.25 -20.1 15.8 M-15.25 19.7 L-17.7 21.1 -17.25 22.4 -20.5 28.3 -18.25 22.35 -18.55 21.7 -27.5 26.5 -28.65 28.65 -27.9 30.5 -26.0 33.7 -24.5 35.3 -13.4 27.95 -15.25 19.7 M-11.0 24.45 L-16.85 12.5 -11.25 25.6 -11.0 24.45 M-10.85 23.8 L-10.6 22.9 -15.75 13.55 -10.85 23.8 M-10.5 22.5 L-10.45 22.05 -12.9 17.4 -10.5 22.5 M-9.8 19.25 L-9.1 20.75 -8.65 20.55 -9.8 19.25 M-27.15 7.75 L-27.3 7.75 -27.35 7.7 -27.4 7.05 -27.4 7.0 -27.3 6.9 -27.25 6.9 -26.65 7.35 -27.15 7.75 M-38.2 6.9 L-38.7 5.7 -41.15 6.2 -37.5 14.8 Q-38.9 10.8 -38.2 6.9 M-36.9 20.3 L-35.75 20.05 -37.7 17.3 -40.2 18.8 -41.0 21.45 -37.25 19.9 -36.9 20.3 M-28.4 26.2 L-29.0 25.7 -31.0 25.55 -29.2 27.8 -28.4 26.2 M-36.15 28.7 L-37.85 27.95 -38.3 28.15 -38.0 27.25 -35.25 28.0 -37.2 21.75 Q-40.9 21.7 -41.75 25.3 L-41.8 26.05 -43.15 27.25 -43.6 28.55 -38.5 40.9 Q-36.4 41.9 -34.2 42.15 L-31.7 42.25 -29.7 38.85 -33.6 30.7 -33.4 31.85 -34.85 29.05 -35.55 29.05 -36.4 31.75 -36.85 30.8 -36.15 28.7 M-20.15 35.85 L-17.0 33.55 Q-16.05 33.1 -15.1 32.75 L-20.15 35.85 M-11.9 30.55 L-11.9 30.5 -12.2 29.3 -12.1 29.95 -12.55 29.15 -12.7 30.15 -11.9 30.55 M-11.45 26.8 L-11.3 25.95 -13.2 22.15 -11.45 26.8 M-29.75 41.95 L-28.0 41.55 -28.85 40.6 -29.75 41.95 M-18.2 9.8 Q-20.1 5.75 -20.35 1.3 L-21.55 -1.35 Q-21.05 4.6 -18.2 9.8" fill="#a36a6a" fill-rule="evenodd" stroke="none"/>
    <path d="M21.75 -27.9 L16.6 -25.9 9.05 -22.95 6.9 -28.35 19.55 -33.75 22.55 -27.35 21.75 -27.9 M14.0 -27.55 L13.95 -27.9 13.75 -28.15 13.55 -28.25 13.45 -28.0 Q13.4 -27.9 13.5 -27.7 L13.7 -27.4 13.95 -27.35 14.0 -27.55 M16.6 -25.9 L16.5 -26.5 15.55 -27.05 16.6 -25.9 M17.9 -17.1 L27.3 -20.9 28.0 -20.6 28.1 -13.1 27.0 -18.45 26.8 -17.6 Q26.65 -16.5 26.9 -15.4 27.45 -12.6 27.15 -9.95 L26.45 -5.6 15.75 -1.7 15.7 -12.25 Q15.7 -13.45 16.3 -14.5 L17.9 -17.1 M1.45 -20.0 L2.3 -16.8 2.95 -13.8 -16.4 -6.65 -16.8 -7.3 -19.05 -14.75 Q-19.75 -16.8 -19.65 -18.7 L-19.55 -19.95 -18.9 -23.1 -17.2 -29.2 -4.45 -34.25 -3.6 -33.8 Q-1.25 -28.7 0.45 -23.5 L1.45 -20.0 M-1.7 -5.1 Q-0.35 -5.25 2.3 -6.45 L3.7 -7.2 5.35 -7.3 6.25 -1.3 3.45 -6.7 Q4.6 -3.45 4.95 -0.1 L5.65 7.25 6.5 5.25 6.85 9.4 -9.55 17.2 -9.9 16.35 -9.25 16.85 -11.9 8.85 -10.9 16.3 -17.95 9.55 Q-18.65 2.0 -21.6 -4.8 L-13.35 2.3 -15.85 -1.65 -12.55 -0.55 -12.9 2.3 Q-13.05 3.45 -12.3 4.15 -12.8 1.2 -11.25 -1.25 L-1.7 -5.1 M16.75 4.65 Q16.7 6.85 15.55 8.75 L14.35 10.5 12.9 12.2 11.25 12.3 Q12.5 8.55 14.15 5.1 L15.0 3.55 Q15.9 2.35 17.15 1.75 L19.75 0.5 Q23.25 -1.05 26.85 -2.15 L22.95 8.55 15.15 11.3 17.0 7.05 18.35 6.5 19.6 3.7 17.05 6.65 17.35 4.35 16.75 4.65 M9.45 24.45 L7.95 25.5 10.65 24.45 Q8.9 25.7 7.05 26.15 L-1.45 30.25 16.2 20.0 14.25 20.45 15.3 19.9 9.15 21.65 16.8 18.4 17.55 19.7 8.75 24.7 9.45 24.45 M4.45 24.7 L10.9 21.7 5.5 24.85 6.05 24.35 4.45 24.7 M5.15 25.55 L8.85 23.55 0.35 28.45 -3.2 30.5 -5.85 32.05 -5.35 32.8 Q-11.45 35.15 -17.15 38.35 L-18.85 38.95 -20.65 39.3 -18.35 37.9 Q-22.25 39.15 -25.9 41.0 L-26.7 40.75 Q-29.75 35.8 -32.25 30.5 -34.4 26.05 -36.15 21.4 L-35.85 20.65 -35.5 20.3 -34.7 21.15 Q-34.25 23.25 -33.25 25.15 L-30.35 30.5 -26.75 36.5 -24.85 36.35 -22.55 35.75 -23.8 36.55 -20.9 34.8 -22.55 36.4 -16.95 33.1 -17.15 32.5 -14.7 31.05 -15.85 31.4 -13.8 30.1 -12.2 31.5 -5.0 29.25 -8.45 31.05 -4.8 29.65 -6.7 30.95 4.7 25.45 5.15 25.55 M-42.3 -15.1 Q-40.9 -16.35 -35.7 -18.7 L-35.55 -18.75 -35.45 -18.55 -34.9 -17.8 Q-33.65 -16.0 -32.65 -14.0 L-28.6 -5.9 Q-31.6 -4.55 -34.75 -3.65 -39.05 -1.95 -42.5 1.1 L-47.1 -7.8 Q-46.15 -8.05 -45.2 -8.9 L-44.4 -10.05 -42.5 -13.7 -42.5 -13.75 -42.35 -13.95 -42.35 -14.0 -41.75 -15.4 -42.3 -15.1 M-36.35 -17.65 L-36.75 -18.15 -40.05 -16.3 -36.35 -17.65 M-8.85 -22.4 Q-10.15 -21.1 -10.0 -19.05 L-9.9 -18.4 -7.35 -24.15 Q-8.05 -23.2 -8.85 -22.4 M-8.0 -13.65 L-8.55 -13.6 -8.6 -13.6 -9.05 -13.3 -8.95 -12.9 -8.95 -12.85 -8.8 -12.9 Q-8.1 -13.05 -7.85 -13.55 -7.95 -13.7 -8.0 -13.65 M-3.95 -16.35 L-4.5 -16.8 -4.55 -16.8 -4.7 -16.65 -4.75 -16.15 -4.6 -16.1 -3.95 -16.35 M-16.9 15.2 L-16.7 14.05 -18.15 10.9 -15.45 16.45 -16.9 15.2 M-20.1 15.8 Q-23.8 18.25 -27.5 19.75 L-31.75 22.6 -32.2 21.9 Q-35.2 16.55 -37.15 10.55 L-37.3 9.55 -37.65 8.9 -37.4 5.95 -25.15 -0.6 -17.8 14.2 -20.1 15.8 M-10.5 22.5 L-12.9 17.4 -10.45 22.05 -10.5 22.5 M-10.85 23.8 L-15.75 13.55 -10.6 22.9 -10.85 23.8 M-11.0 24.45 L-11.25 25.6 -16.85 12.5 -11.0 24.45 M-27.15 7.75 L-26.65 7.35 -27.25 6.9 -27.3 6.9 -27.4 7.0 -27.4 7.05 -27.35 7.7 -27.3 7.75 -27.15 7.75 M-28.4 26.2 L-29.2 27.8 -31.0 25.55 -29.0 25.7 -28.4 26.2 M-29.75 41.95 L-28.85 40.6 -28.0 41.55 -29.75 41.95 M-11.45 26.8 L-13.2 22.15 -11.3 25.95 -11.45 26.8 M-11.9 30.55 L-12.7 30.15 -12.55 29.15 -12.1 29.95 -12.2 29.3 -11.9 30.5 -11.9 30.55 M-20.15 35.85 L-15.1 32.75 Q-16.05 33.1 -17.0 33.55 L-20.15 35.85" fill="#e0cbcb" fill-rule="evenodd" stroke="none"/>
    <path d="M5.05 -31.8 L13.4 -35.6 16.9 -35.05 17.55 -34.65 17.6 -33.8 6.25 -29.2 5.3 -29.9 5.05 -31.8" fill="url(#gradient0)" fill-rule="evenodd" stroke="none"/>
    <path d="M7.0 -24.95 L7.4 -24.65 8.25 -22.45 7.3 -21.8 4.6 -28.55 5.85 -28.05 7.0 -24.95 M15.5 -14.55 L14.85 -16.7 16.4 -16.55 15.5 -14.55 M14.25 -13.65 L15.0 -1.1 14.55 -0.8 8.0 -5.65 7.85 -4.4 12.95 0.45 Q13.7 1.2 13.75 2.3 L13.6 2.95 11.7 7.65 10.1 11.45 10.0 12.0 7.7 10.25 Q8.35 8.9 8.1 7.3 7.75 5.2 7.85 3.15 L8.05 -0.5 8.0 -2.25 Q7.85 -5.2 6.55 -7.7 L5.4 -10.05 Q4.7 -11.6 4.5 -13.15 L4.15 -15.95 9.2 -22.1 10.1 -19.55 13.45 -15.8 Q14.15 -14.9 14.25 -13.65 M9.7 -13.0 L9.15 -11.5 Q10.1 -11.65 9.85 -12.6 L9.7 -13.0 M2.75 -12.35 L3.45 -12.6 3.45 -11.85 2.75 -12.35 M14.25 0.5 L15.85 1.05 14.55 2.6 Q14.65 1.5 14.25 0.5 M-38.2 6.9 Q-38.9 10.8 -37.5 14.8 L-41.15 6.2 -38.7 5.7 -38.2 6.9 M-36.15 28.7 L-36.85 30.8 -36.4 31.75 -35.55 29.05 -34.85 29.05 -33.4 31.85 -33.6 30.7 -29.7 38.85 -31.7 42.25 -34.2 42.15 Q-36.4 41.9 -38.5 40.9 L-43.6 28.55 -43.15 27.25 -41.8 26.05 -41.75 25.3 Q-40.9 21.7 -37.2 21.75 L-35.25 28.0 -38.0 27.25 -38.3 28.15 -37.85 27.95 -36.15 28.7 M-18.2 9.8 Q-21.05 4.6 -21.55 -1.35 L-20.35 1.3 Q-20.1 5.75 -18.2 9.8" fill="url(#gradient1)" fill-rule="evenodd" stroke="none"/>
    <path d="M14.4 -18.35 Q11.55 -19.7 9.35 -22.2 L21.55 -26.55 26.8 -22.45 16.9 -17.55 14.4 -18.35 M17.85 -20.75 Q18.2 -21.35 17.45 -20.8 L17.85 -20.75" fill="url(#gradient2)" fill-rule="evenodd" stroke="none"/>
    <path d="M3.7 -7.2 L2.3 -6.45 Q-0.35 -5.25 -1.7 -5.1 L1.1 -6.25 -11.65 -2.0 -12.1 -1.4 -19.5 -4.35 -18.6 -4.2 -19.6 -5.15 Q-16.35 -4.65 -13.3 -6.15 L-12.5 -6.7 Q-10.15 -6.95 -7.9 -7.9 -3.9 -9.65 0.05 -11.95 L1.65 -12.05 4.75 -8.55 2.95 -7.2 3.7 -7.2 M15.9 -0.15 L14.95 -0.15 26.45 -4.75 26.45 -3.45 Q23.15 -1.9 19.75 -1.0 L15.9 -0.15 M28.15 -6.1 L28.55 -8.45 30.25 -5.55 28.15 -6.1 M30.2 -3.85 L26.05 8.95 26.75 4.05 24.2 13.4 25.1 11.9 24.5 13.65 21.5 13.45 22.95 10.1 23.5 9.95 23.75 9.15 Q24.35 6.85 25.15 5.1 L27.35 0.1 27.95 -1.55 Q28.3 -3.4 27.65 -4.65 L28.0 -5.25 30.2 -4.7 30.2 -3.85 M19.4 11.45 L10.05 15.5 8.0 13.25 7.9 11.95 Q9.0 13.0 10.45 13.0 L14.05 12.6 Q16.95 11.9 19.75 10.8 L21.9 9.9 Q21.1 11.0 19.75 11.4 L19.4 11.45 M6.35 11.0 Q6.5 11.9 5.55 12.65 L-0.7 16.1 -8.6 20.55 -9.6 18.35 -8.25 19.55 -9.05 18.05 -8.4 17.8 -7.55 19.15 -8.0 17.65 -7.0 17.2 -6.3 18.35 -6.65 17.05 5.6 10.9 6.35 11.0 M6.2 18.2 Q3.9 16.75 1.25 16.65 4.55 15.0 6.95 12.25 7.3 14.95 6.4 17.6 L6.2 18.2 M4.95 19.95 L4.2 23.7 2.0 25.05 2.35 23.9 1.85 25.15 -11.5 30.35 -9.3 21.5 -4.6 20.0 0.05 18.5 Q3.0 17.8 5.9 18.9 L4.65 23.9 4.95 19.95 M7.0 21.1 L10.15 16.15 21.25 11.55 Q20.8 12.8 19.75 14.15 L19.6 14.3 17.05 17.3 16.65 17.6 8.25 21.1 7.0 21.1 M-26.0 -1.9 Q-29.6 1.0 -33.8 2.85 L-37.7 4.4 -38.55 4.1 -40.65 4.75 -27.0 -2.35 -26.0 -1.9 M-10.3 -6.1 Q-9.7 -6.25 -10.35 -6.15 L-10.3 -6.1 M-2.7 -11.0 Q-5.05 -8.95 -8.05 -8.6 L-9.7 -8.35 -2.7 -11.0 M-17.55 15.7 L-16.15 17.9 -17.65 19.4 Q-22.5 22.55 -27.45 25.5 L-30.4 22.85 -29.8 22.45 -28.65 23.9 -28.15 24.0 -29.4 22.2 -28.55 21.75 -27.2 23.5 -28.1 21.5 -27.05 20.95 -24.9 23.7 -26.75 20.75 -25.65 20.15 -23.85 22.2 -25.35 20.0 -22.85 18.6 -22.1 19.95 -22.3 18.7 -20.4 17.35 -20.35 17.95 -19.65 18.2 -20.05 17.3 -17.55 15.7 M-15.25 19.7 L-13.4 27.95 -24.5 35.3 -26.0 33.7 -27.9 30.5 -28.65 28.65 -27.5 26.5 -18.55 21.7 -18.25 22.35 -20.5 28.3 -17.25 22.4 -17.7 21.1 -15.25 19.7 M-9.8 19.25 L-8.65 20.55 -9.1 20.75 -9.8 19.25" fill="#cca9a9" fill-rule="evenodd" stroke="none"/>
    <path d="M-44.4 -13.95 L-44.4 -14.0 -44.45 -14.0 -45.25 -14.0 -37.35 -20.6 -36.05 -19.4 -35.55 -18.75 -35.7 -18.7 Q-40.9 -16.35 -42.3 -15.1 L-44.4 -13.95" fill="url(#gradient3)" fill-rule="evenodd" stroke="none"/>
    <path d="M-44.45 -14.0 L-44.4 -13.95 -44.8 -13.5 -43.55 -13.85 -47.95 -7.95 -48.8 -9.05 -48.15 -10.35 -44.45 -14.0" fill="url(#gradient4)" fill-rule="evenodd" stroke="none"/>
    <path d="M-19.25 -28.85 L-20.9 -18.9 -27.2 -19.1 -24.75 -18.7 -22.4 -18.1 Q-21.5 -17.85 -21.1 -16.85 -18.95 -11.65 -17.5 -6.3 L-21.6 -6.5 Q-25.65 -12.7 -27.8 -19.55 L-27.2 -21.35 -25.5 -24.6 Q-23.5 -28.1 -19.6 -29.2 -19.0 -29.3 -19.25 -28.85 M-21.0 -9.55 L-21.05 -9.55 Q-20.75 -8.8 -21.0 -9.55" fill="url(#gradient5)" fill-rule="evenodd" stroke="none"/>
    <path d="M-36.9 20.3 L-37.25 19.9 -41.0 21.45 -40.2 18.8 -37.7 17.3 -35.75 20.05 -36.9 20.3" fill="url(#gradient6)" fill-rule="evenodd" stroke="none"/>
  </g>
  <defs>
    <radialGradient cx="0" cy="0" gradientTransform="matrix(0.0136, 0.0, 0.0, 0.0136, 6.9, -31.35)" gradientUnits="userSpaceOnUse" id="gradient0" r="819.2" spreadMethod="pad">
      <stop offset="0.47843137254901963" stop-color="#ffffff"></stop>
      <stop offset="0.8823529411764706" stop-color="#f2eaea"></stop>
    </radialGradient>
    <radialGradient cx="0" cy="0" gradientTransform="matrix(-0.0277, -0.0838, 0.0451, -0.0149, -123.45, -12.9)" gradientUnits="userSpaceOnUse" id="gradient1" r="819.2" spreadMethod="pad">
      <stop offset="0.47843137254901963" stop-color="#ffffff"></stop>
      <stop offset="0.8823529411764706" stop-color="#f2eaea"></stop>
    </radialGradient>
    <radialGradient cx="0" cy="0" gradientTransform="matrix(0.014, 0.0, 0.0, 0.014, 15.4, -23.7)" gradientUnits="userSpaceOnUse" id="gradient2" r="819.2" spreadMethod="pad">
      <stop offset="0.47843137254901963" stop-color="#ffffff"></stop>
      <stop offset="0.8823529411764706" stop-color="#f2eaea"></stop>
    </radialGradient>
    <radialGradient cx="0" cy="0" gradientTransform="matrix(0.0095, 0.0, 0.0, 0.0095, -38.9, -18.45)" gradientUnits="userSpaceOnUse" id="gradient3" r="819.2" spreadMethod="pad">
      <stop offset="0.47843137254901963" stop-color="#ffffff"></stop>
      <stop offset="0.8823529411764706" stop-color="#f2eaea"></stop>
    </radialGradient>
    <radialGradient cx="0" cy="0" gradientTransform="matrix(0.0052, 0.0, 0.0, 0.0052, -45.95, -11.75)" gradientUnits="userSpaceOnUse" id="gradient4" r="819.2" spreadMethod="pad">
      <stop offset="0.47843137254901963" stop-color="#ffffff"></stop>
      <stop offset="0.8823529411764706" stop-color="#f2eaea"></stop>
    </radialGradient>
    <radialGradient cx="0" cy="0" gradientTransform="matrix(0.0228, 0.0, 0.0, 0.0228, -27.15, -29.75)" gradientUnits="userSpaceOnUse" id="gradient5" r="819.2" spreadMethod="pad">
      <stop offset="0.47843137254901963" stop-color="#ffffff"></stop>
      <stop offset="0.8823529411764706" stop-color="#f2eaea"></stop>
    </radialGradient>
    <radialGradient cx="0" cy="0" gradientTransform="matrix(0.0048, 0.0, 0.0, 0.0048, -38.95, 18.05)" gradientUnits="userSpaceOnUse" id="gradient6" r="819.2" spreadMethod="pad">
      <stop offset="0.47843137254901963" stop-color="#ffffff"></stop>
      <stop offset="0.8823529411764706" stop-color="#f2eaea"></stop>
    </radialGradient>
  </defs>
</svg>