<?xml version="1.0" encoding="UTF-8" standalone="no"?>
<svg xmlns:xlink="http://www.w3.org/1999/xlink" height="34.1px" width="32.95px" xmlns="http://www.w3.org/2000/svg">
  <g transform="matrix(1.0, 0.0, 0.0, 1.0, 19.7, 52.1)">
    <path d="M6.3 -49.85 Q6.3 -47.35 4.2 -43.15 2.1 -38.85 0.0 -37.35 L-0.15 -37.45 2.85 -41.85 Q5.85 -46.65 5.85 -49.9 5.85 -50.6 5.5 -50.6 3.15 -50.6 0.8 -44.6 -0.8 -40.6 -1.2 -38.45 L-1.5 -38.85 Q1.65 -51.1 5.45 -51.1 6.45 -51.1 6.3 -49.85 M8.6 -30.35 L10.9 -28.35 Q12.25 -27.05 12.25 -26.2 12.25 -25.35 10.65 -25.35 6.3 -25.35 3.65 -27.1 2.6 -27.8 0.25 -30.45 L0.35 -30.55 Q4.15 -25.7 11.35 -25.7 L11.85 -25.85 Q9.05 -31.25 0.75 -33.15 L0.75 -33.3 0.9 -33.35 Q7.65 -31.3 8.6 -30.35 M6.4 -34.4 L1.0 -34.6 9.0 -35.3 Q10.15 -35.6 11.85 -36.75 11.65 -37.1 11.3 -37.1 L7.0 -37.1 Q2.45 -37.1 -0.15 -35.75 L-0.55 -35.8 -0.6 -35.95 Q-0.6 -36.55 8.05 -37.6 L10.3 -37.6 Q12.25 -37.25 12.25 -36.7 12.25 -36.15 9.9 -35.25 7.6 -34.4 6.4 -34.4 M-3.7 -44.6 Q-3.2 -41.6 -3.2 -39.4 L-3.3 -39.0 -3.3 -38.85 -4.25 -44.0 Q-4.9 -47.2 -6.05 -49.35 L-6.6 -47.3 Q-6.6 -44.5 -5.55 -41.65 -4.5 -39.25 -4.5 -38.85 L-4.55 -38.65 -4.75 -38.55 Q-5.45 -38.55 -6.6 -43.15 -7.15 -45.8 -7.15 -47.65 -7.15 -49.9 -5.9 -49.9 -5.55 -49.9 -4.7 -47.85 L-3.7 -44.6 M-16.75 -43.2 Q-18.15 -43.2 -18.2 -42.65 -18.2 -41.4 -15.1 -39.1 -11.9 -36.8 -8.85 -36.0 L-9.1 -35.7 Q-11.6 -35.7 -15.3 -38.7 -18.7 -41.5 -18.7 -42.7 -18.7 -43.75 -16.55 -43.75 -13.8 -43.75 -6.7 -37.85 L-11.5 -40.95 Q-15.1 -43.2 -16.75 -43.2 M-16.9 -30.85 Q-16.65 -30.5 -15.75 -30.5 L-7.85 -32.4 -7.55 -32.3 Q-10.9 -29.85 -15.65 -29.85 -17.7 -29.85 -17.7 -30.7 -17.7 -33.35 -6.45 -34.55 -8.45 -33.85 -12.0 -33.1 -15.0 -32.3 -16.9 -30.85 M-3.65 -36.05 L-3.2 -35.65 Q-4.3 -35.0 -4.3 -34.45 -4.3 -33.85 -3.15 -33.9 L-2.95 -33.8 Q-3.35 -33.3 -3.9 -33.3 -4.9 -33.3 -4.95 -34.7 -4.95 -36.05 -3.65 -36.05 M-5.6 -29.65 Q-5.6 -26.85 -8.0 -23.1 -10.3 -19.55 -11.65 -19.55 -12.5 -19.55 -12.4 -21.65 -12.4 -22.25 -11.4 -24.35 L-10.25 -26.6 Q-9.65 -27.35 -8.85 -29.2 -7.95 -30.75 -6.4 -31.1 -10.35 -26.1 -11.7 -21.6 L-11.7 -20.2 Q-7.15 -23.35 -5.85 -30.1 -5.6 -29.95 -5.6 -29.65 M-3.5 -30.55 L-2.8 -25.05 Q-2.2 -21.8 -0.3 -19.55 0.2 -19.95 0.2 -21.45 0.2 -24.3 -1.45 -28.95 L-1.4 -29.05 -1.15 -29.05 Q-1.05 -27.9 -0.2 -25.5 0.55 -23.25 0.55 -21.95 0.55 -19.0 -0.4 -19.0 -1.7 -19.0 -2.95 -23.6 L-3.7 -28.15 -3.6 -30.55 -3.5 -30.55" fill="#a36a6a" fill-rule="evenodd" stroke="none"/>
  </g>
</svg>