<?xml version="1.0" encoding="UTF-8" standalone="no"?>
<svg xmlns:xlink="http://www.w3.org/1999/xlink" height="58.15px" width="28.9px" xmlns="http://www.w3.org/2000/svg">
  <g transform="matrix(1.0, 0.0, 0.0, 1.0, 13.2, 24.9)">
    <path d="M-3.4 -12.5 Q-3.25 -12.05 -5.1 -12.7 L-6.15 -13.25 -6.9 -14.1 Q-8.35 -15.85 -8.3 -18.05 L-8.3 -18.25 -8.3 -18.55 -8.1 -20.25 Q-7.55 -21.3 -5.4 -21.85 -1.05 -22.9 0.2 -23.9 L0.5 -23.7 Q0.0 -22.35 -3.55 -21.1 -7.0 -19.9 -7.0 -19.55 L-7.0 -18.7 -6.95 -18.15 -6.85 -16.65 Q-6.75 -15.45 -5.2 -14.15 L-4.1 -13.25 -4.05 -13.25 -4.0 -13.2 -3.75 -12.95 -3.4 -12.5 M-5.65 30.95 L-5.75 31.0 -6.45 30.9 Q-6.95 30.9 -11.2 28.95 -12.2 28.35 -12.2 26.35 -12.45 21.65 -8.6 21.65 -7.25 21.65 -7.25 22.45 -7.25 22.7 -10.4 24.35 L-10.65 25.25 -10.7 26.35 Q-10.7 27.65 -8.15 29.05 -5.65 30.4 -5.65 30.9 L-5.65 30.95" fill="#a36a6a" fill-rule="evenodd" stroke="none"/>
    <path d="M-7.0 -18.7 L-5.8 -18.25 -3.7 -17.65 -0.9 -17.35 1.9 -17.8 Q3.5 -18.25 10.0 -14.2 L12.1 -13.0 11.7 -13.15 5.2 -14.0 5.1 -14.0 4.5 -13.95 -0.65 -13.65 -3.4 -12.5 -3.75 -12.95 -4.0 -13.2 -4.05 -13.25 -4.1 -13.25 -5.2 -14.15 Q-6.75 -15.45 -6.85 -16.65 L-6.95 -18.15 -7.0 -18.7 M-10.65 25.25 Q-7.75 25.4 -3.95 28.05 -1.85 28.95 6.9 29.3 14.7 29.65 14.7 30.2 14.7 30.85 10.3 31.7 L1.45 32.1 -5.65 30.95 -5.65 30.9 Q-5.65 30.4 -8.15 29.05 -10.7 27.65 -10.7 26.35 L-10.65 25.25" fill="#e0cbcb" fill-rule="evenodd" stroke="none"/>
  </g>
</svg>