<?xml version="1.0" encoding="UTF-8" standalone="no"?>
<svg xmlns:xlink="http://www.w3.org/1999/xlink" height="21.35px" width="24.25px" xmlns="http://www.w3.org/2000/svg">
  <g transform="matrix(1.0, 0.0, 0.0, 1.0, 12.35, 10.95)">
    <path d="M6.8 3.35 L6.8 3.4 6.8 3.35 M9.3 -7.6 Q10.8 -5.1 10.9 -1.75 11.0 1.55 9.15 3.95 7.2 6.3 4.25 6.3 L3.4 6.25 3.25 6.25 Q0.2 6.25 -1.95 4.8 L-3.65 3.2 -4.15 1.6 -4.5 3.95 -4.55 8.2 -4.6 8.4 -4.75 8.55 Q-6.7 9.65 -9.05 9.3 L-9.1 9.3 Q-10.75 9.4 -11.3 8.05 L-11.35 7.8 -11.1 -0.25 Q-11.1 -2.35 -8.85 -3.8 -6.9 -5.15 -4.2 -5.25 -4.05 -7.1 -1.95 -8.45 0.2 -9.85 3.2 -9.85 L4.25 -9.95 Q7.2 -10.0 9.3 -7.55 L9.3 -7.6" fill="#b47575" fill-rule="evenodd" stroke="none"/>
    <path d="M9.1 -6.95 Q10.55 -4.6 10.65 -1.4 10.75 1.75 8.95 4.05 7.15 6.3 4.3 6.3 L3.5 6.25 3.35 6.25 Q0.45 6.25 -1.6 4.9 L-3.25 3.35 -3.75 1.8 -4.05 4.05 -4.1 8.1 -4.15 8.3 -4.3 8.45 Q-6.15 9.5 -8.4 9.15 L-8.45 9.15 Q-10.05 9.3 -10.55 7.95 L-10.6 7.75 -10.35 0.05 Q-10.35 -1.95 -8.2 -3.35 -6.35 -4.65 -3.75 -4.75 -3.6 -6.5 -1.6 -7.75 0.45 -9.1 3.3 -9.15 L4.3 -9.25 Q7.15 -9.25 9.1 -6.95 M8.5 -6.45 Q7.35 -7.75 5.95 -8.2 L7.3 -6.95 Q9.3 -4.7 9.3 -1.45 9.3 1.7 7.3 4.0 L7.3 4.05 5.95 5.3 Q7.35 4.8 8.5 3.5 10.3 1.4 10.3 -1.45 10.3 -4.4 8.5 -6.4 L8.5 -6.45 M6.75 3.5 Q8.5 1.4 8.5 -1.45 8.5 -4.4 6.7 -6.4 L6.7 -6.45 Q5.3 -8.05 3.5 -8.35 L3.45 -8.35 3.35 -8.35 Q0.7 -8.35 -1.15 -7.1 -2.75 -6.1 -2.95 -4.75 L-1.25 -4.75 -0.15 -5.75 Q1.9 -7.3 4.2 -6.25 L4.15 -6.25 Q6.15 -5.45 6.7 -3.4 L6.7 -3.35 7.0 -1.5 7.0 -1.45 Q7.15 0.75 5.75 2.35 L5.55 2.6 Q4.25 3.9 2.35 3.85 L2.25 3.85 2.05 3.85 1.35 3.7 1.35 3.75 Q-0.4 3.3 -1.35 1.8 L-2.95 1.8 Q-2.75 3.2 -1.15 4.25 0.1 5.05 1.8 5.35 L3.35 5.45 Q4.85 5.2 6.05 4.15 L6.7 3.5 6.75 3.5 M3.5 0.6 L3.55 0.6 3.95 0.2 4.25 -0.35 4.3 -0.4 4.4 -1.25 4.4 -1.45 Q4.35 -3.65 2.3 -3.95 L-3.4 -3.95 Q-5.95 -3.95 -7.75 -2.7 -9.5 -1.55 -9.55 0.05 L-9.8 7.75 Q-9.45 8.45 -8.45 8.35 L-8.3 8.35 Q-6.45 8.65 -4.9 7.85 L-4.7 1.15 -3.4 1.0 2.3 1.0 3.5 0.6 M5.95 -3.2 Q5.45 -4.85 3.85 -5.5 2.0 -6.4 0.35 -5.1 L-0.1 -4.75 2.3 -4.75 3.4 -4.5 Q4.45 -4.25 4.6 -1.35 4.7 1.55 2.4 1.8 L-0.35 1.8 Q0.65 2.95 2.4 3.05 4.05 3.1 5.15 1.85 6.35 0.45 6.2 -1.4 L5.9 -3.2 5.95 -3.2" fill="#b47575" fill-rule="evenodd" stroke="none"/>
    <path d="M8.5 -6.45 L8.5 -6.4 Q10.3 -4.4 10.3 -1.45 10.3 1.4 8.5 3.5 7.35 4.8 5.95 5.3 L7.3 4.05 7.3 4.0 Q9.3 1.7 9.3 -1.45 9.3 -4.7 7.3 -6.95 L5.95 -8.2 Q7.35 -7.75 8.5 -6.45 M6.05 4.15 Q4.85 5.2 3.35 5.45 L1.8 5.35 1.6 4.75 1.35 3.75 1.35 3.7 2.05 3.85 2.25 3.85 2.35 3.85 Q4.25 3.9 5.55 2.6 L6.05 4.15 M4.4 -1.25 L4.3 -0.4 4.25 -0.35 3.95 0.2 3.55 0.6 3.5 0.6 -2.7 0.2 -3.75 0.25 -5.4 0.85 Q-5.35 2.5 -5.6 3.6 L-5.85 4.85 -5.8 7.15 -5.6 8.15 -7.5 8.45 Q-7.85 7.4 -7.85 5.3 L-7.8 3.95 Q-7.8 2.35 -7.3 0.6 L-6.7 -0.9 -6.65 -0.95 Q-5.85 -1.65 -0.85 -1.65 L4.4 -1.25 M5.9 -3.2 L6.2 -1.4 Q6.35 0.45 5.15 1.85 4.05 3.1 2.4 3.05 0.65 2.95 -0.35 1.8 L2.4 1.8 Q4.7 1.55 4.6 -1.35 4.45 -4.25 3.4 -4.5 L2.3 -4.75 -0.1 -4.75 0.35 -5.1 Q2.0 -6.4 3.85 -5.5 5.45 -4.85 5.95 -3.2 L5.9 -3.2" fill="#e0cbcb" fill-rule="evenodd" stroke="none"/>
    <path d="M5.55 2.6 L5.75 2.35 Q7.15 0.75 7.0 -1.45 L7.0 -1.5 6.7 -3.35 6.7 -3.4 Q6.15 -5.45 4.15 -6.25 L4.2 -6.25 Q1.9 -7.3 -0.15 -5.75 L-1.25 -4.75 -2.95 -4.75 Q-2.75 -6.1 -1.15 -7.1 0.7 -8.35 3.35 -8.35 L3.45 -8.35 3.5 -8.35 Q5.3 -8.05 6.7 -6.45 L6.7 -6.4 Q8.5 -4.4 8.5 -1.45 8.5 1.4 6.75 3.5 L6.7 3.5 6.05 4.15 5.55 2.6 M1.8 5.35 Q0.1 5.05 -1.15 4.25 -2.75 3.2 -2.95 1.8 L-1.35 1.8 Q-0.4 3.3 1.35 3.75 L1.6 4.75 1.8 5.35 M3.5 0.6 L2.3 1.0 -3.4 1.0 -4.7 1.15 -4.9 7.85 Q-6.45 8.65 -8.3 8.35 L-8.45 8.35 Q-9.45 8.45 -9.8 7.75 L-9.55 0.05 Q-9.5 -1.55 -7.75 -2.7 -5.95 -3.95 -3.4 -3.95 L2.3 -3.95 Q4.35 -3.65 4.4 -1.45 L4.4 -1.25 -0.85 -1.65 Q-5.85 -1.65 -6.65 -0.95 L-6.7 -0.9 -7.3 0.6 Q-7.8 2.35 -7.8 3.95 L-7.85 5.3 Q-7.85 7.4 -7.5 8.45 L-5.6 8.15 -5.8 7.15 -5.85 4.85 -5.6 3.6 Q-5.35 2.5 -5.4 0.85 L-3.75 0.25 -2.7 0.2 3.5 0.6" fill="url(#gradient0)" fill-rule="evenodd" stroke="none"/>
  </g>
  <defs>
    <radialGradient cx="0" cy="0" gradientTransform="matrix(0.0134, 0.0, 0.0, 0.0134, -8.55, -4.65)" gradientUnits="userSpaceOnUse" id="gradient0" r="819.2" spreadMethod="pad">
      <stop offset="0.47843137254901963" stop-color="#ffffff"></stop>
      <stop offset="0.8823529411764706" stop-color="#f2eaea"></stop>
    </radialGradient>
  </defs>
</svg>