<?xml version="1.0" encoding="UTF-8" standalone="no"?>
<svg xmlns:xlink="http://www.w3.org/1999/xlink" height="50.6px" width="81.2px" xmlns="http://www.w3.org/2000/svg">
  <g transform="matrix(1.0, 0.0, 0.0, 1.0, 40.6, 25.3)">
    <path d="M-18.0 19.15 L-18.2 19.1 -18.65 19.05 -22.8 18.2 -24.95 17.6 Q-31.95 15.6 -33.0 13.8 L-33.2 13.35 Q-34.05 12.95 -35.4 11.35 -37.0 9.45 -37.65 8.05 L-39.2 5.05 Q-39.6 4.25 -39.6 2.65 -39.6 -0.75 -35.3 -1.7 -26.6 -4.95 -22.35 -4.95 L-22.3 -4.95 -22.55 -5.65 -23.25 -7.9 -20.45 -10.4 Q-16.6 -13.5 -15.25 -16.1 -13.9 -18.7 -13.65 -21.35 L-13.35 -24.3 -13.1 -23.95 -13.05 -23.8 -13.05 -23.55 -12.75 -22.8 -12.75 -22.5 -13.05 -19.1 Q-13.05 -15.3 -21.5 -7.6 -21.4 -6.2 -20.25 -4.9 L-17.75 -2.0 -17.55 -1.75 -14.9 1.15 -13.75 0.5 -17.6 -5.05 -12.8 0.3 -11.6 -0.3 -14.0 -3.6 -10.95 -0.65 -11.0 -0.55 -10.9 -0.55 -9.4 -1.05 -10.5 -3.15 -8.2 -1.4 -1.5 -3.1 5.7 -4.7 10.55 -4.35 10.75 -4.35 18.7 -3.25 Q29.55 -1.6 29.55 -0.05 L29.4 0.7 Q28.2 -0.45 23.7 -1.35 L22.65 -1.5 18.6 -2.0 14.55 -2.45 5.85 -3.3 6.45 -2.5 6.6 -0.3 6.6 -0.1 6.1 7.55 7.75 10.4 15.3 10.0 11.85 10.75 9.7 11.25 5.75 12.4 3.15 13.25 0.6 14.2 -3.15 15.75 -6.3 17.1 -8.1 17.85 Q-9.95 18.5 -11.75 19.3 L-14.35 19.6 -18.0 19.15 M30.5 -16.65 Q34.3 -7.1 39.6 0.9 L30.95 11.0 30.5 11.35 28.6 11.35 25.6 11.1 24.55 10.65 24.3 10.25 24.75 9.75 30.05 10.4 31.85 8.3 Q30.55 9.1 29.1 9.0 25.5 8.75 22.65 7.0 L22.55 6.9 29.6 8.35 Q34.85 5.05 37.9 0.35 L33.1 -8.85 Q31.35 -12.25 30.5 -15.85 L30.5 -16.65 M29.0 13.5 L29.1 13.6 28.8 13.75 28.55 13.8 25.4 13.35 25.75 13.15 Q27.55 12.1 29.0 13.5 M-21.4 -2.9 L-21.45 -3.0 -21.75 -3.65 Q-24.1 -4.25 -30.25 -2.1 -36.45 0.05 -37.25 0.7 -38.1 1.3 -38.35 2.9 -38.65 4.5 -37.15 7.35 -35.65 10.2 -33.4 12.15 L-34.55 4.8 -34.5 4.75 Q-33.7 6.4 -32.8 9.15 L-32.35 10.65 -32.7 9.1 -32.9 5.65 -31.8 12.25 -31.9 12.05 -31.8 13.35 Q-31.0 14.35 -30.1 14.85 L-28.3 15.6 -26.35 16.3 -24.1 16.9 -21.05 17.55 -15.85 18.3 Q-12.55 18.6 -8.45 16.7 -4.35 14.8 2.0 12.1 L3.25 10.35 4.9 7.7 5.45 5.8 5.7 1.85 5.8 -1.75 5.0 -3.2 -0.75 -1.95 -7.25 -0.5 Q-10.2 0.3 -13.85 1.85 -17.5 3.35 -22.25 6.85 L-22.75 6.55 -22.35 5.65 -19.2 3.1 -22.55 -0.6 -17.9 2.7 -16.95 2.25 -22.05 -2.2 -21.4 -2.9 M14.5 15.4 L16.2 15.85 8.8 16.9 Q11.45 15.45 14.5 15.4 M3.55 11.6 L6.75 10.65 5.7 8.4 3.55 11.6 M17.85 11.75 L16.25 12.35 14.45 12.8 Q6.15 14.4 -1.45 17.9 L-1.3 17.4 Q5.25 14.8 11.75 12.15 L15.35 11.35 Q16.7 11.1 17.85 11.75 M-7.05 2.25 L-6.9 2.5 Q-6.9 2.85 -7.25 3.0 L-7.5 3.1 -7.8 2.65 -7.8 2.35 -7.05 2.25 M-16.05 1.85 L-16.9 1.25 -16.4 2.0 -16.05 1.85" fill="#a36a6a" fill-rule="evenodd" stroke="none"/>
    <path d="M-13.1 -23.95 L-13.0 -23.95 -13.05 -23.8 -13.1 -23.95 M-12.75 -22.8 L-12.6 -22.45 -12.5 -21.55 Q-12.4 -20.55 -11.6 -19.95 L-11.45 -19.6 Q-10.8 -18.8 -8.85 -17.75 -6.95 -16.75 -5.85 -16.6 5.5 -12.8 15.2 -12.8 20.15 -12.8 24.5 -14.0 L27.95 -15.3 28.3 -15.45 28.75 -15.65 Q28.7 -13.45 32.75 -6.55 35.9 -1.2 30.9 -2.05 L29.5 -3.1 Q24.9 -5.8 17.0 -5.75 L1.55 -5.6 -10.05 -5.4 -14.55 -5.3 -21.5 -7.6 Q-13.05 -15.3 -13.05 -19.1 L-12.75 -22.5 -12.75 -22.8 M30.95 11.0 L30.6 11.5 30.5 11.35 30.95 11.0 M28.8 13.75 L28.55 14.0 28.55 13.8 28.8 13.75 M6.6 -0.1 L6.6 -0.3 6.7 -0.1 6.6 -0.1" fill="url(#gradient0)" fill-rule="evenodd" stroke="none"/>
    <path d="M28.75 -15.65 L29.9 -17.85 30.5 -16.65 30.5 -15.85 Q31.35 -12.25 33.1 -8.85 L37.9 0.35 Q34.85 5.05 29.6 8.35 L22.55 6.9 22.65 7.0 Q25.5 8.75 29.1 9.0 30.55 9.1 31.85 8.3 L30.05 10.4 24.75 9.75 24.3 10.25 24.55 10.65 25.6 11.1 28.6 11.35 30.5 11.35 30.6 11.5 29.0 13.5 Q27.55 12.1 25.75 13.15 L25.4 13.35 28.55 13.8 28.55 14.0 Q26.95 16.2 24.35 16.75 L22.65 17.25 19.95 18.05 Q7.25 21.85 -5.55 23.8 L-9.05 24.3 -18.0 19.15 -14.35 19.6 -11.75 19.3 Q-9.95 18.5 -8.1 17.85 L-6.3 17.1 -3.15 15.75 0.6 14.2 3.15 13.25 5.75 12.4 9.7 11.25 11.85 10.75 15.3 10.0 7.75 10.4 6.1 7.55 6.6 -0.1 6.7 -0.1 6.6 -0.3 6.45 -2.5 5.85 -3.3 14.55 -2.45 18.6 -2.0 22.65 -1.5 23.7 -1.35 Q28.2 -0.45 29.4 0.7 L29.55 -0.05 Q29.55 -1.6 18.7 -3.25 L10.75 -4.35 10.55 -4.35 5.7 -4.7 -1.5 -3.1 -8.2 -1.4 -10.5 -3.15 -9.4 -1.05 -10.9 -0.55 -10.95 -0.65 -14.0 -3.6 -11.6 -0.3 -12.8 0.3 -17.6 -5.05 -13.75 0.5 -14.9 1.15 -17.55 -1.75 -17.75 -2.0 -20.25 -4.9 Q-21.4 -6.2 -21.5 -7.6 L-14.55 -5.3 -10.05 -5.4 1.55 -5.6 17.0 -5.75 Q24.9 -5.8 29.5 -3.1 L30.9 -2.05 Q35.9 -1.2 32.75 -6.55 28.7 -13.45 28.75 -15.65 M-21.4 -2.9 L-22.05 -2.2 -16.95 2.25 -17.9 2.7 -22.55 -0.6 -19.2 3.1 -22.35 5.65 Q-22.2 4.6 -22.8 3.35 L-22.95 3.05 Q-22.55 -0.15 -23.25 -0.55 -23.95 -1.0 -23.1 -1.9 L-21.4 -2.9 M17.85 11.75 Q16.7 11.1 15.35 11.35 L11.75 12.15 Q5.25 14.8 -1.3 17.4 L-1.45 17.9 Q6.15 14.4 14.45 12.8 L16.25 12.35 17.85 11.75 M3.55 11.6 L5.7 8.4 6.75 10.65 3.55 11.6 M14.5 15.4 Q11.45 15.45 8.8 16.9 L16.2 15.85 14.5 15.4 M-16.05 1.85 L-16.4 2.0 -16.9 1.25 -16.05 1.85" fill="#e0cbcb" fill-rule="evenodd" stroke="none"/>
    <path d="M-32.8 9.15 Q-33.7 6.4 -34.5 4.75 L-34.55 4.8 -33.4 12.15 Q-35.65 10.2 -37.15 7.35 -38.65 4.5 -38.35 2.9 -38.1 1.3 -37.25 0.7 -36.45 0.05 -30.25 -2.1 -24.1 -4.25 -21.75 -3.65 L-21.45 -3.0 -21.4 -2.9 -23.1 -1.9 Q-23.95 -1.0 -23.25 -0.55 -22.55 -0.15 -22.95 3.05 L-22.8 3.35 Q-22.2 4.6 -22.35 5.65 L-22.75 6.55 -22.25 6.85 Q-17.5 3.35 -13.85 1.85 -10.2 0.3 -7.25 -0.5 L-0.75 -1.95 5.0 -3.2 5.8 -1.75 5.7 1.85 5.45 5.8 4.9 7.7 3.25 10.35 2.0 12.1 Q-4.35 14.8 -8.45 16.7 -12.55 18.6 -15.85 18.3 L-21.05 17.55 -24.1 16.9 -26.35 16.3 -28.3 15.6 -30.1 14.85 Q-31.0 14.35 -31.8 13.35 L-31.8 12.25 -32.9 5.65 -32.7 9.1 -32.8 9.15 M-7.05 2.25 L-7.8 2.35 -7.8 2.65 -7.5 3.1 -7.25 3.0 Q-6.9 2.85 -6.9 2.5 L-7.05 2.25" fill="url(#gradient1)" fill-rule="evenodd" stroke="none"/>
  </g>
  <defs>
    <radialGradient cx="0" cy="0" gradientTransform="matrix(0.0092, -0.0879, 0.0473, 0.0049, 8.55, -41.2)" gradientUnits="userSpaceOnUse" id="gradient0" r="819.2" spreadMethod="pad">
      <stop offset="0.47843137254901963" stop-color="#ffffff"></stop>
      <stop offset="0.8823529411764706" stop-color="#f2eaea"></stop>
    </radialGradient>
    <radialGradient cx="0" cy="0" gradientTransform="matrix(0.0391, 0.0, 0.0, 0.0201, -16.9, 1.25)" gradientUnits="userSpaceOnUse" id="gradient1" r="819.2" spreadMethod="pad">
      <stop offset="0.47843137254901963" stop-color="#ffffff"></stop>
      <stop offset="0.8823529411764706" stop-color="#f2eaea"></stop>
    </radialGradient>
  </defs>
</svg>