<?xml version="1.0" encoding="UTF-8" standalone="no"?>
<svg xmlns:xlink="http://www.w3.org/1999/xlink" height="53.15px" width="56.9px" xmlns="http://www.w3.org/2000/svg">
  <g transform="matrix(1.0, 0.0, 0.0, 1.0, 26.85, 30.05)">
    <path d="M3.25 -29.05 L6.05 -28.85 7.55 -28.65 12.25 -27.5 14.7 -26.6 Q16.55 -25.85 18.05 -24.9 L21.35 -21.85 Q25.6 -17.8 27.65 -12.1 29.7 -6.35 28.7 -0.45 27.75 5.0 25.05 9.95 L22.6 13.65 Q18.8 18.25 13.25 20.35 L9.85 21.25 4.65 21.9 0.35 22.05 -5.3 21.8 Q-10.4 20.3 -14.95 17.85 -19.55 15.35 -22.55 10.45 L-23.75 8.25 Q-25.4 4.2 -25.75 -0.25 -26.15 -5.9 -25.05 -11.3 -23.9 -17.05 -20.15 -21.4 -17.3 -24.55 -13.1 -26.35 -9.4 -27.95 -5.55 -28.4 L2.35 -29.05 3.25 -29.05 M7.75 20.65 L11.45 19.8 13.6 18.9 Q18.8 16.45 22.6 11.8 25.0 8.65 26.35 4.85 28.3 -0.6 27.55 -6.35 26.9 -11.25 24.6 -15.6 22.2 -20.05 18.05 -23.25 L15.7 -24.65 11.55 -26.6 9.2 -27.35 7.7 -27.8 1.5 -28.25 Q3.95 -27.95 6.35 -27.1 L8.8 -26.2 Q10.65 -25.45 12.15 -24.5 L15.45 -21.45 Q19.7 -17.4 21.75 -11.7 23.8 -5.95 22.8 -0.05 21.85 5.4 19.15 10.35 18.1 12.35 16.7 14.05 13.0 18.5 7.7 20.65 L7.55 20.7 7.75 20.65 M12.15 -22.85 L9.8 -24.25 5.65 -26.2 Q2.3 -27.75 -3.95 -27.4 -10.2 -27.05 -14.2 -24.55 L-18.75 -21.4 Q-21.05 -18.9 -22.35 -15.9 -24.75 -10.4 -24.9 -4.4 -25.05 1.55 -23.05 7.05 L-22.55 8.25 -21.35 10.2 Q-18.15 15.15 -13.2 17.8 -8.3 20.45 -2.9 21.1 L-1.3 21.25 -1.2 21.2 0.8 21.2 Q4.25 20.9 7.7 19.3 12.9 16.85 16.7 12.2 19.1 9.05 20.45 5.25 22.4 -0.2 21.65 -5.95 21.0 -10.85 18.7 -15.2 16.3 -19.65 12.15 -22.85 M8.8 -19.9 Q12.5 -17.9 14.95 -13.95 L15.85 -12.2 Q17.15 -8.95 17.45 -5.35 17.8 -0.85 16.9 3.5 16.0 8.1 13.0 11.6 L13.0 11.65 12.95 11.65 Q10.65 14.15 7.3 15.6 2.5 17.7 -2.65 17.35 -5.55 17.15 -8.35 16.2 L-10.3 15.5 -13.0 14.15 -15.65 11.65 Q-19.05 8.4 -20.7 3.85 -22.35 -0.8 -21.55 -5.5 -20.8 -9.9 -18.65 -13.85 L-16.65 -16.85 Q-13.6 -20.55 -9.15 -22.25 -4.75 -23.8 1.05 -23.1 L1.1 -23.1 Q5.15 -21.9 8.8 -19.9 M5.7 15.15 L8.1 14.0 11.75 11.5 Q13.55 9.5 14.55 7.1 16.45 2.7 16.6 -2.05 16.7 -6.8 15.1 -11.15 L14.75 -12.1 13.75 -13.65 Q11.2 -17.6 7.3 -19.7 4.05 -21.45 0.6 -22.1 L-0.75 -22.3 -0.9 -22.35 -1.0 -22.35 -1.8 -22.45 -2.7 -22.45 Q-6.05 -22.45 -9.3 -20.9 -13.5 -19.0 -16.5 -15.25 -18.4 -12.75 -19.45 -9.7 L-19.5 -9.65 -19.7 -9.0 -20.4 -6.15 -20.4 -6.1 Q-20.8 -3.5 -20.45 -0.8 -19.95 3.05 -18.1 6.55 -16.2 10.05 -12.9 12.65 L-11.0 13.75 -7.7 15.3 Q-5.3 16.4 -0.85 16.3 L-0.25 16.25 -0.05 16.25 0.1 16.25 3.15 15.9 5.7 15.15" fill="#a36a6a" fill-rule="evenodd" stroke="none"/>
    <path d="M7.7 20.65 Q13.0 18.5 16.7 14.05 18.1 12.35 19.15 10.35 21.85 5.4 22.8 -0.05 23.8 -5.95 21.75 -11.7 19.7 -17.4 15.45 -21.45 L12.15 -24.5 Q10.65 -25.45 8.8 -26.2 L6.35 -27.1 Q3.95 -27.95 1.5 -28.25 L7.7 -27.8 9.2 -27.35 11.55 -26.6 15.7 -24.65 18.05 -23.25 Q22.2 -20.05 24.6 -15.6 26.9 -11.25 27.55 -6.35 28.3 -0.6 26.35 4.85 25.0 8.65 22.6 11.8 18.8 16.45 13.6 18.9 L11.45 19.8 7.75 20.65 7.7 20.65 M-11.6 -8.3 L-11.6 -5.15 Q-11.6 -1.6 -11.3 -0.25 L-9.65 5.95 Q-8.75 9.1 -5.5 11.5 L-3.45 13.15 Q-2.6 13.85 -1.1 14.2 L5.7 15.15 3.15 15.9 0.1 16.25 -0.05 16.25 -0.25 16.25 -0.85 16.3 Q-5.3 16.4 -7.7 15.3 L-11.0 13.75 -12.9 12.65 Q-16.2 10.05 -18.1 6.55 -19.95 3.05 -20.45 -0.8 -20.8 -3.5 -20.4 -6.1 -20.0 -3.95 -19.55 -3.95 -19.15 -3.95 -18.0 -6.4 L-18.3 -4.0 Q-18.3 -3.35 -17.5 -3.35 -17.0 -3.35 -16.55 -5.45 L-16.05 -7.6 Q-14.9 -7.6 -14.5 -9.3 L-14.45 -9.2 Q-14.45 -3.7 -13.3 -3.7 -12.9 -3.7 -12.4 -5.8 L-11.6 -8.3 M-12.95 -8.45 L-12.95 -8.4 Q-12.95 -7.65 -13.25 -7.3 L-13.3 -7.45 -13.4 -8.35 -13.05 -8.45 -12.95 -8.45" fill="#e0cbcb" fill-rule="evenodd" stroke="none"/>
    <path d="M8.8 -19.9 Q5.15 -21.9 1.1 -23.1 L1.05 -23.1 Q-4.75 -23.8 -9.15 -22.25 -13.6 -20.55 -16.65 -16.85 L-18.65 -13.85 Q-20.8 -9.9 -21.55 -5.5 -22.35 -0.8 -20.7 3.85 -19.05 8.4 -15.65 11.65 L-13.0 14.15 -10.3 15.5 -8.35 16.2 Q-5.55 17.15 -2.65 17.35 2.5 17.7 7.3 15.6 10.65 14.15 12.95 11.65 L13.0 11.65 13.0 11.6 Q16.0 8.1 16.9 3.5 17.8 -0.85 17.45 -5.35 17.15 -8.95 15.85 -12.2 L14.95 -13.95 Q12.5 -17.9 8.8 -19.9 M12.15 -22.85 Q16.3 -19.65 18.7 -15.2 21.0 -10.85 21.65 -5.95 22.4 -0.2 20.45 5.25 19.1 9.05 16.7 12.2 12.9 16.85 7.7 19.3 4.25 20.9 0.8 21.2 L-1.2 21.2 -1.3 21.25 -2.9 21.1 Q-8.3 20.45 -13.2 17.8 -18.15 15.15 -21.35 10.2 L-22.55 8.25 -23.05 7.05 Q-25.05 1.55 -24.9 -4.4 -24.75 -10.4 -22.35 -15.9 -21.05 -18.9 -18.75 -21.4 L-14.2 -24.55 Q-10.2 -27.05 -3.95 -27.4 2.3 -27.75 5.65 -26.2 L9.8 -24.25 12.15 -22.85" fill="url(#gradient0)" fill-rule="evenodd" stroke="none"/>
    <path d="M0.6 -22.1 L-1.85 -21.3 Q-4.05 -20.55 -5.85 -19.2 -8.8 -16.8 -9.8 -14.55 L-10.05 -13.9 -11.6 -9.3 -11.6 -8.3 -12.4 -5.8 Q-12.9 -3.7 -13.3 -3.7 -14.45 -3.7 -14.45 -9.2 L-14.5 -9.3 Q-14.9 -7.6 -16.05 -7.6 L-16.55 -5.45 Q-17.0 -3.35 -17.5 -3.35 -18.3 -3.35 -18.3 -4.0 L-18.0 -6.4 Q-19.15 -3.95 -19.55 -3.95 -20.0 -3.95 -20.4 -6.1 L-20.4 -6.15 -19.7 -9.0 -19.5 -9.65 -19.45 -9.7 Q-18.4 -12.75 -16.5 -15.25 -13.5 -19.0 -9.3 -20.9 -6.05 -22.45 -2.7 -22.45 L-1.8 -22.45 -1.0 -22.35 -0.9 -22.35 -0.75 -22.3 0.6 -22.1 M-12.95 -8.45 L-13.05 -8.45 -13.4 -8.35 -13.3 -7.45 -13.25 -7.3 Q-12.95 -7.65 -12.95 -8.4 L-12.95 -8.45" fill="#cca9a9" fill-rule="evenodd" stroke="none"/>
  </g>
  <defs>
    <radialGradient cx="0" cy="0" gradientTransform="matrix(0.0391, 0.0, 0.0, 0.0201, -92.4, -15.2)" gradientUnits="userSpaceOnUse" id="gradient0" r="819.2" spreadMethod="pad">
      <stop offset="0.47843137254901963" stop-color="#ffffff"></stop>
      <stop offset="0.8823529411764706" stop-color="#f2eaea"></stop>
    </radialGradient>
  </defs>
</svg>