<?xml version="1.0" encoding="UTF-8" standalone="no"?>
<svg xmlns:xlink="http://www.w3.org/1999/xlink" height="30.8px" width="49.85px" xmlns="http://www.w3.org/2000/svg">
  <g transform="matrix(1.0, 0.0, 0.0, 1.0, 23.15, 15.15)">
    <path d="M-2.2 -2.85 L-2.25 -2.9 Q-1.7 -3.8 -0.1 -4.15 L-0.25 -4.65 Q-0.25 -5.0 1.2 -7.1 L1.6 -7.7 1.5 -7.9 0.6 -10.25 -0.45 -11.9 -0.8 -11.95 -0.85 -11.95 -3.05 -9.7 -2.75 -9.55 -2.35 -9.35 -2.2 -9.25 -1.8 -9.05 -1.2 -8.75 -1.65 -8.45 -1.8 -8.45 -1.85 -8.45 -1.9 -8.45 -2.1 -8.5 -3.2 -8.95 -3.8 -9.2 -4.0 -9.25 -6.0 -10.15 -6.1 -10.2 -7.25 -10.7 -7.75 -10.95 -7.8 -10.8 -7.85 -10.7 -8.2 -8.9 -8.3 -6.9 -8.3 -6.7 -8.3 -6.6 -8.35 -6.3 -8.55 -6.25 Q-9.45 -6.25 -9.2 -7.7 L-9.05 -8.95 -13.95 -8.95 -13.95 -8.3 -13.95 -8.0 Q-13.8 -6.6 -12.95 -5.8 -11.8 -4.8 -11.95 -4.65 L-12.3 -4.45 -12.75 -4.5 -13.65 -5.25 -14.45 -7.0 Q-15.9 -6.45 -18.35 -6.25 L-18.35 -6.2 -18.35 -6.15 -18.25 -6.05 -16.6 -3.65 -15.65 -2.5 -15.35 -2.1 -15.85 -2.0 Q-16.25 -2.0 -16.75 -2.35 L-20.4 2.65 -20.45 2.75 -18.45 2.75 -17.55 2.75 -15.85 2.35 -15.75 2.6 -15.7 2.75 Q-15.7 3.1 -17.65 3.6 L-17.95 3.65 -19.1 5.85 -19.45 6.9 -19.45 7.0 -17.65 6.85 Q-16.0 6.8 -16.0 7.4 -16.0 8.05 -18.1 8.15 L-18.1 8.3 -18.35 9.4 -18.35 10.95 -17.15 10.7 -17.1 10.7 -16.6 10.6 -16.35 10.55 -16.25 10.55 -16.2 10.55 -16.15 10.55 -15.85 10.6 -15.8 10.8 -15.8 10.85 -18.3 12.1 Q-19.75 12.1 -19.4 10.55 -19.4 9.1 -18.55 8.2 L-19.3 8.2 Q-20.9 8.2 -20.9 7.2 -20.9 6.3 -19.8 4.9 L-18.9 3.9 -20.75 4.1 Q-22.35 4.1 -22.1 3.15 -22.15 2.55 -19.75 -0.1 L-17.25 -2.75 Q-18.35 -3.85 -19.8 -6.45 -19.85 -7.4 -15.35 -7.4 L-15.1 -7.4 Q-15.85 -8.4 -17.2 -12.3 -17.25 -12.9 -16.5 -12.85 -14.25 -12.9 -12.9 -11.75 L-12.1 -13.15 Q-11.5 -14.15 -10.5 -14.15 -10.15 -14.15 -9.4 -12.6 L-8.7 -10.75 Q-8.3 -11.85 -7.65 -11.85 -7.25 -11.85 -3.65 -10.05 L-0.65 -13.25 Q0.6 -13.25 1.15 -11.15 L1.75 -7.85 Q2.95 -9.4 3.7 -9.4 5.4 -9.4 6.15 -6.3 6.85 -7.4 10.65 -7.4 13.25 -7.4 12.75 -6.8 12.75 -5.3 12.05 -4.65 L12.95 -4.55 14.45 -6.85 Q16.05 -9.05 16.75 -9.05 18.05 -9.05 18.95 -5.5 L18.9 -5.05 19.9 -4.4 20.55 -3.75 20.4 -3.7 19.3 -4.25 18.9 -4.35 18.75 -4.5 18.25 -4.7 17.85 -4.6 17.6 -4.65 15.45 -3.35 15.6 -2.75 15.4 -2.35 Q14.75 -1.5 11.95 0.1 L11.9 0.1 Q11.55 -0.05 11.6 -0.25 L12.6 -1.05 14.35 -2.5 14.55 -2.7 Q14.05 -3.35 12.15 -3.6 L8.55 -4.35 8.25 -4.45 9.85 -4.7 11.5 -4.7 11.45 -4.9 Q11.45 -5.65 11.95 -6.55 L10.15 -6.55 6.7 -5.7 6.4 -5.8 6.3 -5.85 6.45 -4.65 Q5.35 -7.4 3.75 -8.55 L3.7 -8.55 Q2.2 -7.4 0.45 -4.3 L2.15 -4.45 3.3 -4.5 Q4.5 -4.5 4.5 -2.2 L4.45 -1.9 Q4.3 -1.75 4.1 -1.75 3.65 -1.8 3.55 -2.7 3.5 -3.6 2.45 -3.6 L2.35 -3.6 Q0.95 -3.65 -1.9 -2.75 L-2.2 -2.85 M-7.55 -3.6 Q-6.4 -2.6 -3.7 -1.6 L-4.35 -1.2 -4.6 -1.2 -4.75 -1.2 -4.85 -1.2 -4.95 -1.2 -5.75 -1.35 -7.0 -1.9 -8.15 -2.75 Q-9.65 -4.2 -9.65 -5.15 L-9.15 -5.55 Q-8.25 -5.6 -8.0 -6.1 L-7.75 -6.25 -6.0 -6.95 -5.15 -7.1 -4.8 -7.0 -4.9 -6.9 -4.95 -6.85 -5.4 -6.55 Q-6.3 -5.95 -8.4 -4.9 -8.35 -4.25 -7.55 -3.6 M7.4 2.1 L8.25 3.1 8.2 3.45 8.1 3.6 7.8 3.9 7.75 3.95 5.95 4.25 4.75 4.2 3.3 3.95 Q2.45 3.7 2.2 3.3 L2.05 2.8 2.15 2.35 5.95 3.35 7.35 3.15 6.4 2.2 6.2 2.0 Q3.7 -0.6 3.7 -1.2 L3.8 -1.45 4.1 -1.5 7.4 2.1 M4.55 9.55 Q6.0 8.9 8.35 5.1 L8.5 5.25 8.3 5.6 7.4 7.5 7.1 8.1 6.95 8.45 6.3 9.35 5.9 9.75 4.25 10.7 3.7 10.75 Q2.3 10.75 1.75 9.25 L1.7 9.2 1.7 9.15 1.6 8.9 1.55 8.7 1.4 7.85 1.35 6.8 1.35 6.15 Q1.3 5.5 1.5 5.25 1.6 5.05 1.85 5.05 2.25 5.0 2.55 7.4 2.9 9.7 3.95 9.7 L4.55 9.55 M10.15 10.55 L10.35 10.65 11.0 11.05 11.6 11.5 11.75 11.6 Q12.5 11.6 12.35 10.55 L11.95 8.75 11.65 7.55 11.75 7.4 11.9 7.4 12.1 7.45 12.6 8.1 13.25 10.55 Q13.25 12.55 12.05 12.55 L11.95 12.55 11.2 12.35 8.9 11.25 6.7 9.65 Q6.65 9.5 6.75 9.45 L6.95 9.4 Q7.7 9.35 8.7 9.8 L10.15 10.55 M11.65 5.95 L11.35 6.0 11.3 6.0 10.85 5.7 Q10.5 5.25 10.2 4.05 L10.15 3.5 10.1 3.25 10.05 2.8 10.05 2.75 9.95 2.0 Q9.9 1.1 10.95 0.25 L11.2 0.55 11.2 0.65 11.1 1.15 11.15 1.15 11.1 1.2 10.9 1.95 Q10.85 3.7 11.35 4.75 L11.75 4.8 11.85 4.8 Q14.3 4.75 15.9 3.0 L17.55 0.75 17.2 0.1 16.3 -2.35 16.55 -3.2 17.65 -0.95 17.95 -0.35 18.25 0.05 19.0 0.85 19.95 1.55 Q20.75 0.15 21.1 -2.0 L21.25 -3.6 21.35 -4.3 21.35 -4.35 21.35 -4.4 21.55 -5.65 21.7 -5.65 Q22.1 -3.95 22.1 -2.6 L21.3 0.6 20.65 2.05 20.0 2.6 Q19.2 2.55 18.5 1.9 L17.85 1.2 17.8 1.1 17.6 1.55 17.35 1.95 17.2 2.25 16.7 2.95 16.25 3.55 14.15 5.3 13.4 5.65 11.7 6.0 11.7 5.95 11.65 5.95 M15.0 -3.85 L15.75 -4.5 Q16.9 -5.45 17.6 -5.45 L17.85 -5.45 Q17.0 -7.5 16.55 -7.9 L13.3 -4.45 Q14.4 -4.25 15.0 -3.85 M0.15 8.65 Q-3.1 14.2 -4.3 14.2 -6.0 14.2 -6.1 11.75 L-6.1 11.0 -6.1 10.8 -6.1 10.65 Q-6.0 8.85 -5.15 8.85 -4.8 8.85 -4.8 9.25 L-5.15 11.0 Q-5.05 13.2 -4.3 13.2 -3.5 13.2 -2.1 11.05 L-2.1 11.0 -0.5 8.55 -0.3 8.25 -0.25 8.25 -0.2 8.15 0.05 7.9 0.25 8.45 0.2 8.55 0.15 8.65 M-7.95 11.95 Q-9.3 12.9 -14.3 13.7 -15.35 13.7 -15.25 12.45 -15.3 11.7 -14.35 10.6 L-14.3 10.5 -13.45 9.6 -13.35 9.5 -12.7 8.9 -12.55 9.05 -12.6 9.35 -12.75 9.7 -13.1 10.3 -13.85 11.65 -14.15 12.15 -14.15 12.3 -11.55 12.25 -10.9 12.2 -10.3 12.1 -9.65 11.95 -8.9 11.75 -7.65 11.7 -7.95 11.95 M-13.15 -11.25 L-15.35 -11.55 -15.7 -11.5 -14.85 -9.8 Q-14.6 -10.15 -13.9 -10.1 L-8.9 -9.85 -8.85 -10.1 Q-9.35 -10.7 -10.65 -13.8 -10.9 -13.2 -12.9 -10.75 L-13.25 -11.05 -13.15 -11.25 M-14.7 -1.3 Q-13.7 -2.65 -12.55 -2.85 L-12.45 -2.8 -12.1 -2.7 -12.55 -2.65 Q-13.0 -2.65 -14.3 0.7 L-13.6 0.75 Q-12.55 0.9 -11.65 1.4 L-11.4 1.55 -11.35 1.55 -12.15 2.0 -13.0 2.05 -12.7 2.0 Q-15.55 2.3 -15.65 0.75 L-15.65 0.65 Q-15.65 -0.1 -14.7 -1.3 M-4.2 3.9 L-3.9 4.05 -3.85 4.1 Q-3.65 4.15 -4.0 4.15 L-4.15 4.15 -4.4 4.1 -6.8 3.8 -9.55 4.15 -9.55 4.4 Q-9.45 6.2 -5.5 7.4 L-5.9 7.75 Q-7.9 7.75 -9.35 6.25 -10.45 5.0 -10.45 4.1 -10.45 3.65 -10.05 3.4 -9.7 3.15 -9.05 3.05 L-8.15 3.0 Q-5.95 3.0 -4.2 3.9" fill="#a36a6a" fill-rule="evenodd" stroke="none"/>
    <path d="M-0.45 -11.9 L0.6 -10.25 1.5 -7.9 1.6 -7.7 1.2 -7.1 Q-0.25 -5.0 -0.25 -4.65 L-0.1 -4.15 Q-1.7 -3.8 -2.25 -2.9 L-2.2 -2.85 -2.55 -2.6 -2.65 -2.7 Q-3.05 -2.7 -3.05 -2.2 L-3.0 -1.85 -3.75 -1.65 -3.7 -1.6 Q-6.4 -2.6 -7.55 -3.6 -6.5 -3.65 -4.9 -4.35 -3.2 -5.05 -3.2 -5.5 L-3.25 -5.95 Q-2.8 -6.1 -2.8 -6.6 L-3.2 -7.45 -3.15 -8.1 -4.55 -9.15 -6.0 -10.15 -4.0 -9.25 -3.8 -9.2 -3.35 -8.8 -3.2 -8.95 -2.1 -8.5 -1.85 -8.45 -1.65 -8.45 -1.2 -8.75 -1.8 -9.05 -1.35 -8.8 -1.15 -10.25 -0.45 -11.9 M2.45 -3.6 Q3.5 -3.6 3.55 -2.7 3.65 -1.8 4.1 -1.75 4.3 -1.75 4.45 -1.9 L4.5 -2.2 Q4.5 -4.5 3.3 -4.5 L2.15 -4.45 Q2.8 -5.4 3.65 -7.65 4.55 -3.5 5.75 -2.5 L5.8 -2.55 6.35 -0.35 6.2 0.6 7.5 2.15 7.4 2.1 4.1 -1.5 3.8 -1.45 3.7 -1.2 Q3.7 -0.6 6.2 2.0 L5.1 1.8 2.15 0.75 Q1.4 0.75 0.6 1.2 L0.9 -0.2 Q0.8 -0.85 0.3 -0.85 L0.7 -1.85 0.2 -1.75 1.1 -1.95 Q3.0 -2.35 3.0 -2.7 3.0 -3.35 2.45 -3.6 M6.3 -5.85 L6.4 -5.8 6.35 -5.75 6.35 -5.8 6.3 -5.85 M12.6 -1.05 L11.6 -0.25 Q11.55 -0.05 11.9 0.1 L11.4 0.75 11.4 0.7 Q11.1 -0.25 9.8 -0.25 L8.55 0.05 8.4 -2.1 9.95 -1.95 13.3 -2.15 12.8 -1.5 12.6 -1.05 M15.4 -2.35 L15.6 -2.75 15.45 -3.35 17.6 -4.65 17.85 -4.6 18.25 -4.7 18.75 -4.5 18.6 -4.55 Q18.0 -4.55 18.0 -3.7 18.2 -2.2 18.55 -0.75 L18.6 -0.45 18.3 -0.55 17.95 -0.35 17.65 -0.95 16.55 -3.2 16.3 -2.35 17.2 0.1 13.05 2.65 13.4 1.85 Q15.75 -1.3 15.75 -1.9 L15.4 -2.35 M-15.85 10.6 L-16.15 10.55 -16.2 10.55 -16.25 10.55 -16.35 10.55 -16.6 10.6 -17.25 10.7 -17.15 10.7 -18.35 10.95 -18.35 9.4 -18.1 8.3 -18.1 8.15 Q-16.0 8.05 -16.0 7.4 -16.0 6.8 -17.65 6.85 L-19.45 7.0 -19.45 6.9 -19.1 5.85 -18.85 5.9 Q-18.5 5.9 -15.3 3.75 L-15.35 3.15 Q-15.45 2.65 -15.75 2.6 L-15.85 2.35 -17.55 2.75 -18.45 2.75 -16.35 1.4 -15.65 0.75 Q-15.55 2.3 -12.7 2.0 L-13.0 2.05 -12.15 2.0 -13.6 3.6 -13.05 4.05 -10.15 3.4 -10.05 3.4 Q-10.45 3.65 -10.45 4.1 -10.45 5.0 -9.35 6.25 -7.9 7.75 -5.9 7.75 L-5.5 7.4 Q-9.45 6.2 -9.55 4.4 L-8.7 4.75 -5.3 5.25 Q-4.25 5.25 -4.25 4.6 -4.25 4.3 -4.4 4.1 L-4.15 4.15 Q-4.05 5.9 -3.6 6.4 L-4.1 7.4 Q-3.8 8.35 -3.3 8.35 -2.8 8.35 -1.65 6.35 L-1.75 7.05 -2.4 10.75 -2.25 11.2 -2.1 11.05 Q-3.5 13.2 -4.3 13.2 -5.05 13.2 -5.15 11.0 L-4.8 9.25 Q-4.8 8.85 -5.15 8.85 -6.0 8.85 -6.1 10.65 L-6.1 10.8 -6.1 11.0 -6.1 11.75 -7.95 11.95 -7.65 11.7 -8.9 11.75 -9.65 11.95 -10.3 12.1 -8.75 11.5 -6.65 10.8 -6.8 10.45 Q-7.1 10.15 -7.7 10.2 L-7.45 9.6 Q-7.45 9.55 -8.2 9.05 -9.9 9.05 -12.2 10.45 L-13.85 11.65 -13.1 10.3 -12.75 9.7 -12.65 9.45 -12.6 9.35 -12.55 9.05 -12.7 8.9 -13.35 9.5 -13.45 9.6 -14.3 10.5 -14.35 10.5 -15.8 10.8 -15.85 10.6 M-18.35 -6.2 L-18.35 -6.25 -18.35 -6.2 M-12.75 -4.5 L-12.3 -4.45 -11.95 -4.65 Q-11.8 -4.8 -12.95 -5.8 -13.8 -6.6 -13.95 -8.0 L-12.5 -6.8 Q-10.65 -5.55 -9.25 -5.55 L-9.15 -5.55 -9.65 -5.15 Q-9.65 -4.2 -8.15 -2.75 L-7.0 -1.9 -7.7 -2.4 Q-9.1 -2.1 -9.8 0.7 L-9.7 1.05 -10.1 1.1 -10.1 1.0 Q-9.75 0.65 -9.75 0.15 -9.75 -0.3 -10.15 -0.3 L-11.65 1.4 Q-12.55 0.9 -13.6 0.75 L-12.9 0.9 Q-12.15 0.45 -11.3 -0.7 -10.1 -2.25 -10.1 -2.65 L-11.35 -3.35 Q-11.85 -3.35 -12.45 -2.8 L-12.55 -2.85 Q-13.7 -2.65 -14.7 -1.3 L-15.3 -2.1 -15.5 -2.35 -14.1 -2.75 Q-12.65 -3.3 -12.65 -3.85 L-12.75 -4.5 M-8.3 -6.9 L-8.2 -8.9 Q-7.05 -7.65 -6.0 -6.95 L-7.75 -6.25 -8.0 -6.1 -7.95 -6.6 -8.25 -7.45 -8.3 -6.9 M-7.8 -10.8 L-7.75 -10.95 -7.25 -10.7 -7.3 -10.7 -7.75 -10.8 -7.8 -10.8 M4.75 4.2 Q4.55 4.65 4.5 5.85 L4.45 8.05 Q4.35 9.05 4.55 9.55 L3.95 9.7 Q2.9 9.7 2.55 7.4 2.25 5.0 1.85 5.05 1.6 5.05 1.5 5.25 L1.35 4.05 2.75 4.35 3.3 3.95 4.75 4.2 M7.4 7.5 L7.9 6.8 8.3 5.7 Q9.2 8.95 10.15 10.55 L8.7 9.8 Q7.7 9.35 6.95 9.4 L6.75 9.45 6.7 9.55 6.3 9.35 6.95 8.45 7.1 8.1 7.4 7.5 M12.1 7.45 L11.65 5.95 11.7 5.95 11.7 6.0 12.1 7.45 M11.15 1.15 L11.2 1.1 11.1 1.2 11.15 1.15 M8.15 -4.05 L8.1 -4.0 8.1 -4.05 8.15 -4.05 M8.25 -3.25 L8.3 -3.2 8.3 -3.15 8.25 -3.25 M18.25 0.05 L18.55 0.45 18.8 0.2 19.0 0.85 18.25 0.05 M21.35 -4.35 L20.8 -4.15 21.35 -4.4 21.35 -4.35 M-2.75 -9.55 L-2.45 -9.4 -2.35 -9.45 -2.35 -9.35 -2.75 -9.55 M-8.2 -8.4 L-8.25 -7.95 -8.15 -8.1 -8.2 -8.4 M-2.0 2.5 L-2.4 2.85 -2.4 2.8 Q-2.9 1.1 -3.35 0.65 L-2.8 -0.15 Q-2.5 2.2 -2.0 2.5 M-4.25 1.95 L-4.2 3.9 Q-5.95 3.0 -8.15 3.0 L-9.05 3.05 Q-8.2 2.65 -8.2 1.95 L-8.2 1.9 -6.05 1.0 -6.6 1.3 Q-6.05 3.1 -5.25 3.1 L-4.25 1.95 M-0.25 8.25 L-0.25 8.1 -0.2 8.15 -0.25 8.25 M-10.9 12.2 L-11.55 12.25 -11.2 11.95 -10.9 12.2 M-14.85 9.8 L-14.9 9.75 -15.0 9.8 -14.85 9.8 M8.7 4.8 L8.5 4.9 8.55 4.55 8.7 4.8 M8.4 3.3 L8.4 3.25 8.55 3.4 8.5 3.4 8.6 3.7 8.4 3.3" fill="#e0cbcb" fill-rule="evenodd" stroke="none"/>
    <path d="M-0.45 -11.9 L-1.15 -10.25 -1.35 -8.8 -1.8 -9.05 -2.2 -9.25 -2.35 -9.35 -2.35 -9.45 -2.45 -9.4 -2.75 -9.55 -3.05 -9.7 -0.85 -11.95 -0.8 -11.95 -0.45 -11.9 M-1.65 -8.45 L-1.85 -8.45 -2.1 -8.5 -1.9 -8.45 -1.85 -8.45 -1.8 -8.45 -1.65 -8.45 M-3.2 -8.95 L-3.35 -8.8 -3.8 -9.2 -3.2 -8.95 M-6.0 -10.15 L-4.55 -9.15 -3.15 -8.1 -3.2 -7.45 -2.8 -6.6 Q-2.8 -6.1 -3.25 -5.95 L-3.2 -5.5 Q-3.2 -5.05 -4.9 -4.35 -6.5 -3.65 -7.55 -3.6 -8.35 -4.25 -8.4 -4.9 -6.3 -5.95 -5.4 -6.55 L-4.95 -6.85 -4.9 -6.9 -4.8 -7.0 -5.15 -7.1 -6.0 -6.95 Q-7.05 -7.65 -8.2 -8.9 L-7.85 -10.7 -7.8 -10.8 -7.75 -10.8 -7.3 -10.7 -7.25 -10.7 -6.1 -10.2 -6.0 -10.15 M-3.7 -1.6 L-3.75 -1.65 -3.0 -1.85 -3.05 -2.2 Q-3.05 -2.7 -2.65 -2.7 L-2.55 -2.6 -2.2 -2.85 -1.9 -2.75 Q0.95 -3.65 2.35 -3.6 L2.45 -3.6 Q3.0 -3.35 3.0 -2.7 3.0 -2.35 1.1 -1.95 L0.2 -1.75 0.7 -1.85 0.3 -0.85 Q-1.2 2.55 -1.85 2.55 L-2.0 2.5 Q-2.5 2.2 -2.8 -0.15 L-3.35 0.65 -4.0 1.6 -4.25 1.95 -5.25 3.1 Q-6.05 3.1 -6.6 1.3 L-6.05 1.0 -8.2 1.9 -8.7 1.95 Q-9.45 1.95 -9.7 1.05 L-9.8 0.7 Q-9.1 -2.1 -7.7 -2.4 L-7.0 -1.9 -5.75 -1.35 -4.95 -1.2 -4.85 -1.2 -4.75 -1.2 -4.6 -1.2 -4.35 -1.2 -3.7 -1.6 M2.15 -4.45 L0.45 -4.3 Q2.2 -7.4 3.7 -8.55 L3.75 -8.55 3.85 -8.45 3.85 -8.2 3.65 -7.65 Q2.8 -5.4 2.15 -4.45 M8.55 -4.35 L12.15 -3.6 Q14.05 -3.35 14.55 -2.7 L14.35 -2.5 13.3 -2.15 9.95 -1.95 8.4 -2.1 Q7.85 -2.25 7.85 -2.6 L8.3 -3.15 8.3 -3.2 8.25 -3.25 8.05 -3.7 8.05 -3.75 8.1 -3.95 8.1 -4.0 8.15 -4.05 8.25 -4.2 8.55 -4.35 M-18.45 2.75 L-20.45 2.75 -20.4 2.65 -16.75 -2.35 Q-16.25 -2.0 -15.85 -2.0 L-15.35 -2.1 -15.65 -2.5 -16.6 -3.65 -18.25 -6.05 -18.35 -6.15 -18.35 -6.2 -18.35 -6.25 Q-15.9 -6.45 -14.45 -7.0 L-13.65 -5.25 -12.75 -4.5 -12.65 -3.85 Q-12.65 -3.3 -14.1 -2.75 L-15.5 -2.35 -15.3 -2.1 -14.7 -1.3 Q-15.65 -0.1 -15.65 0.65 L-15.65 0.75 -16.35 1.4 -18.45 2.75 M-13.95 -8.0 L-13.95 -8.3 -13.95 -8.95 -9.05 -8.95 -9.2 -7.7 Q-9.45 -6.25 -8.55 -6.25 L-8.35 -6.3 -8.3 -6.6 -8.3 -6.7 -8.3 -6.9 -8.25 -7.45 -7.95 -6.6 -8.0 -6.1 Q-8.25 -5.6 -9.15 -5.55 L-9.25 -5.55 Q-10.65 -5.55 -12.5 -6.8 L-13.95 -8.0 M-13.15 -11.25 L-13.25 -11.05 -12.9 -10.75 Q-10.9 -13.2 -10.65 -13.8 -9.35 -10.7 -8.85 -10.1 L-8.9 -9.85 -13.9 -10.1 Q-14.6 -10.15 -14.85 -9.8 L-15.7 -11.5 -15.35 -11.55 -13.15 -11.25 M-12.45 -2.8 Q-11.85 -3.35 -11.35 -3.35 L-10.1 -2.65 Q-10.1 -2.25 -11.3 -0.7 -12.15 0.45 -12.9 0.9 L-13.6 0.75 -14.3 0.7 Q-13.0 -2.65 -12.55 -2.65 L-12.1 -2.7 -12.45 -2.8 M-8.2 -8.4 L-8.15 -8.1 -8.25 -7.95 -8.2 -8.4 M-4.4 4.1 Q-4.25 4.3 -4.25 4.6 -4.25 5.25 -5.3 5.25 L-8.7 4.75 -9.55 4.4 -9.55 4.15 -6.8 3.8 -4.4 4.1" fill="url(#gradient0)" fill-rule="evenodd" stroke="none"/>
    <path d="M3.75 -8.55 Q5.35 -7.4 6.45 -4.65 L6.3 -5.85 6.35 -5.8 6.35 -5.75 6.4 -5.8 6.7 -5.7 10.15 -6.55 11.95 -6.55 Q11.45 -5.65 11.45 -4.9 L11.5 -4.7 9.85 -4.7 8.25 -4.45 8.55 -4.35 8.25 -4.2 8.15 -4.05 8.1 -4.05 8.1 -4.0 8.1 -3.95 8.05 -3.75 8.05 -3.7 8.25 -3.25 8.3 -3.15 7.85 -2.6 Q7.85 -2.25 8.4 -2.1 L8.55 0.05 9.8 -0.25 Q11.1 -0.25 11.4 0.7 L11.4 0.75 11.9 0.1 11.95 0.1 Q14.75 -1.5 15.4 -2.35 L15.75 -1.9 Q15.75 -1.3 13.4 1.85 L13.05 2.65 17.2 0.1 17.55 0.75 15.9 3.0 Q14.3 4.75 11.85 4.8 L11.75 4.8 11.35 4.75 Q10.85 3.7 10.9 1.95 L11.1 1.2 11.2 1.1 11.15 1.15 11.1 1.15 11.2 0.65 11.2 0.55 10.95 0.25 Q9.9 1.1 9.95 2.0 L10.05 2.75 10.05 2.8 10.1 3.25 10.15 3.5 10.2 4.05 Q10.5 5.25 10.85 5.7 L11.3 6.0 11.35 6.0 11.65 5.95 12.1 7.45 11.9 7.4 11.75 7.4 11.65 7.55 11.95 8.75 12.35 10.55 Q12.5 11.6 11.75 11.6 L11.6 11.5 11.0 11.05 10.35 10.65 10.15 10.55 Q9.2 8.95 8.3 5.7 L7.9 6.8 7.4 7.5 8.3 5.6 8.5 5.25 8.35 5.1 Q6.0 8.9 4.55 9.55 4.35 9.05 4.45 8.05 L4.5 5.85 Q4.55 4.65 4.75 4.2 L5.95 4.25 7.75 3.95 7.8 3.9 8.1 3.6 8.2 3.45 8.25 3.1 7.4 2.1 7.5 2.15 6.2 0.6 6.35 -0.35 5.8 -2.55 5.75 -2.5 Q4.55 -3.5 3.65 -7.65 L3.85 -8.2 3.85 -8.45 3.75 -8.55 M14.35 -2.5 L12.6 -1.05 12.8 -1.5 13.3 -2.15 14.35 -2.5 M18.75 -4.5 L18.9 -4.35 19.3 -4.25 20.4 -3.7 20.55 -3.75 19.9 -4.4 20.55 -4.1 20.6 -4.1 20.8 -4.15 21.35 -4.35 21.35 -4.3 21.25 -3.6 21.1 -2.0 Q20.75 0.15 19.95 1.55 L19.0 0.85 18.8 0.2 18.55 0.45 18.25 0.05 17.95 -0.35 18.3 -0.55 18.6 -0.45 18.55 -0.75 Q18.2 -2.2 18.0 -3.7 18.0 -4.55 18.6 -4.55 L18.75 -4.5 M-19.1 5.85 L-17.95 3.65 -17.65 3.6 Q-15.7 3.1 -15.7 2.75 L-15.75 2.6 Q-15.45 2.65 -15.35 3.15 L-15.3 3.75 Q-18.5 5.9 -18.85 5.9 L-19.1 5.85 M0.3 -0.85 Q0.8 -0.85 0.9 -0.2 L0.6 1.2 Q1.4 0.75 2.15 0.75 L5.1 1.8 6.2 2.0 6.4 2.2 7.35 3.15 5.95 3.35 2.15 2.35 2.05 2.8 2.2 3.3 Q2.45 3.7 3.3 3.95 L2.75 4.35 1.35 4.05 1.5 5.25 Q1.3 5.5 1.35 6.15 L1.35 6.8 1.4 7.85 1.0 8.2 Q0.4 8.25 0.2 8.55 L0.25 8.45 0.05 7.9 -0.2 8.15 -0.25 8.1 -0.25 8.25 -0.3 8.25 -0.6 8.65 -0.5 8.55 -2.1 11.0 -2.1 11.05 -2.25 11.2 -2.4 10.75 -1.75 7.05 -1.65 6.35 Q-2.8 8.35 -3.3 8.35 -3.8 8.35 -4.1 7.4 L-3.6 6.4 Q-4.05 5.9 -4.15 4.15 L-4.0 4.15 Q-3.65 4.15 -3.85 4.1 L-3.9 4.05 -4.2 3.9 -4.25 1.95 -4.0 1.6 -3.35 0.65 Q-2.9 1.1 -2.4 2.8 L-2.4 2.85 -2.0 2.5 -1.85 2.55 Q-1.2 2.55 0.3 -0.85 M15.0 -3.85 Q14.4 -4.25 13.3 -4.45 L16.55 -7.9 Q17.0 -7.5 17.85 -5.45 L17.6 -5.45 Q16.9 -5.45 15.75 -4.5 L15.0 -3.85 M-11.65 1.4 L-10.15 -0.3 Q-9.75 -0.3 -9.75 0.15 -9.75 0.65 -10.1 1.0 L-10.1 1.1 -9.7 1.05 Q-9.45 1.95 -8.7 1.95 L-8.2 1.9 -8.2 1.95 Q-8.2 2.65 -9.05 3.05 -9.7 3.15 -10.05 3.4 L-10.15 3.4 -13.05 4.05 -13.6 3.6 -12.15 2.0 -11.35 1.55 -11.4 1.55 -11.65 1.4 M-10.3 12.1 L-10.9 12.2 -11.2 11.95 -11.55 12.25 -14.15 12.3 -14.15 12.15 -13.85 11.65 -12.2 10.45 Q-9.9 9.05 -8.2 9.05 -7.45 9.55 -7.45 9.6 L-7.7 10.2 Q-7.1 10.15 -6.8 10.45 L-6.65 10.8 -8.75 11.5 -10.3 12.1 M8.4 3.3 L8.6 3.7 8.5 3.4 8.55 3.4 8.4 3.25 8.4 3.3 M8.7 4.8 L8.55 4.55 8.5 4.9 8.7 4.8" fill="#cca9a9" fill-rule="evenodd" stroke="none"/>
    <path d="M24.35 -3.5 Q24.35 -2.4 23.2 -2.4 22.35 -2.4 22.1 -2.95 L22.0 -4.1 Q22.15 -4.9 23.1 -4.9 24.2 -4.9 24.35 -3.5 M21.3 0.6 Q21.65 0.8 21.9 2.4 L21.25 3.55 Q20.7 3.35 20.65 2.05 L21.3 0.6 M18.5 1.9 L19.15 2.4 19.15 2.5 Q19.15 3.5 18.4 3.5 L17.8 3.35 Q17.75 5.9 16.9 5.9 L16.5 4.5 16.8 5.6 16.8 5.8 Q16.8 7.0 15.95 7.0 L16.2 8.15 16.8 7.95 Q17.5 7.95 17.55 8.95 17.55 9.95 16.45 9.95 L16.05 9.8 14.75 14.1 14.3 13.65 14.45 12.65 14.1 12.25 14.1 11.8 Q14.1 10.4 14.85 10.2 L15.35 6.95 Q14.7 6.7 14.35 6.0 L14.15 5.3 16.25 3.55 16.7 2.95 17.2 2.25 17.4 2.4 17.35 1.95 17.6 1.55 17.8 1.1 17.85 1.2 18.5 1.9 M13.4 5.65 L13.95 7.1 Q13.95 8.0 12.6 8.1 L12.1 7.45 11.7 6.0 13.4 5.65 M11.95 12.55 Q12.35 12.8 12.35 13.5 12.35 14.65 11.2 14.65 10.55 14.65 10.25 14.1 L10.05 13.5 Q10.05 12.35 11.2 12.35 L11.95 12.55 M5.9 9.75 L5.95 9.75 Q7.05 9.75 7.0 10.7 7.0 11.3 6.3 11.95 5.5 12.7 4.55 12.7 3.6 12.7 3.6 11.9 3.6 11.45 4.2 10.7 L4.25 10.7 5.9 9.75 M1.75 9.25 L0.75 9.55 Q0.05 9.55 0.05 8.95 L0.15 8.65 0.2 8.55 Q0.4 8.25 1.0 8.2 L1.25 8.2 1.45 8.25 1.55 8.7 1.6 8.9 1.7 9.15 1.7 9.2 1.75 9.25 M24.15 -1.55 L23.1 0.2 Q21.75 0.2 21.75 -0.8 L23.45 -2.3 Q24.1 -2.3 24.15 -1.55 M24.45 0.95 Q24.45 0.35 25.05 0.35 25.65 0.35 25.7 0.95 25.7 1.6 25.05 1.6 L24.45 0.95 M21.4 6.0 Q20.7 6.0 20.4 5.5 L20.2 4.95 Q20.2 3.95 21.1 3.95 21.8 3.95 22.25 5.1 22.25 6.0 21.4 6.0 M21.15 7.4 Q21.6 7.4 21.7 7.95 21.7 8.55 21.15 8.55 L20.65 7.95 21.15 7.4 M20.0 6.05 Q20.0 6.75 19.45 6.75 L18.9 6.5 19.15 6.7 19.25 7.3 Q19.25 11.25 18.2 12.6 17.9 12.1 17.9 11.7 17.9 8.05 18.75 6.25 L18.6 5.9 18.45 5.0 Q18.45 3.1 19.65 3.1 20.15 3.1 20.25 3.65 L19.8 5.05 20.0 6.05 M0.2 12.25 Q-0.8 12.25 -0.95 11.1 -0.95 9.95 0.2 9.95 1.3 9.95 1.35 11.1 1.35 12.25 0.2 12.25 M1.95 11.1 Q1.9 10.55 2.5 10.55 3.1 10.55 3.05 11.1 3.05 11.7 2.5 11.7 1.9 11.7 1.95 11.1 M7.25 12.5 L7.9 11.95 Q8.4 11.95 8.5 12.5 8.5 13.1 7.9 13.1 L7.25 12.5 M9.85 13.0 L9.65 13.1 9.35 13.05 9.35 12.45 9.7 12.15 9.9 12.4 9.85 13.0 M3.45 13.15 L2.95 13.8 2.25 14.3 Q1.5 14.3 1.6 13.65 1.6 12.6 2.85 12.6 3.35 12.6 3.45 13.15" fill="#744747" fill-opacity="0.2" fill-rule="evenodd" stroke="none"/>
  </g>
  <defs>
    <radialGradient cx="0" cy="0" gradientTransform="matrix(0.0391, 0.0, 0.0, 0.0201, -63.35, -29.1)" gradientUnits="userSpaceOnUse" id="gradient0" r="819.2" spreadMethod="pad">
      <stop offset="0.47843137254901963" stop-color="#ffffff"></stop>
      <stop offset="0.8823529411764706" stop-color="#f2eaea"></stop>
    </radialGradient>
  </defs>
</svg>