<?xml version="1.0" encoding="UTF-8" standalone="no"?>
<svg xmlns:xlink="http://www.w3.org/1999/xlink" height="44.2px" width="57.4px" xmlns="http://www.w3.org/2000/svg">
  <g transform="matrix(1.0, 0.0, 0.0, 1.0, 28.7, 22.1)">
    <path d="M14.4 -16.8 L10.35 -17.5 6.5 -18.15 -3.25 -18.4 -11.05 -18.55 -17.05 -18.95 -23.95 -19.75 -24.55 -19.05 -25.4 -17.15 Q-26.25 -13.15 -26.35 -9.15 L-26.4 -1.0 -26.4 5.75 -26.45 6.55 -26.2 7.7 Q-25.8 8.75 -24.7 9.15 L-19.25 9.95 -11.3 10.85 -3.4 12.1 3.9 13.3 9.85 13.85 11.1 12.6 Q11.4 12.1 12.75 11.7 L13.7 11.2 13.95 10.1 14.1 5.75 14.05 5.2 Q13.9 1.05 14.5 -3.1 L15.45 -11.1 15.45 -14.2 Q15.3 -15.8 14.4 -16.8 M17.1 -16.4 L17.3 -16.2 16.65 -15.05 16.4 -14.8 16.45 -13.75 16.35 -11.2 15.95 -6.45 15.2 0.3 Q14.9 3.0 14.85 5.75 L14.85 8.35 14.6 11.45 14.6 11.65 14.05 13.75 14.05 13.95 15.45 13.75 19.65 13.25 19.7 13.25 19.8 13.2 Q20.85 12.95 21.5 12.0 22.2 10.9 22.4 9.5 L22.55 5.75 22.5 4.6 Q22.35 0.65 22.9 -3.35 L22.95 -3.7 23.9 -11.7 23.9 -14.8 23.4 -16.6 22.9 -16.6 21.5 -16.65 21.15 -16.5 21.1 -16.5 19.1 -16.35 18.05 -16.45 19.95 -16.7 20.4 -17.0 22.4 -17.35 22.5 -17.35 22.85 -17.35 22.9 -17.35 22.85 -17.4 18.8 -18.1 14.95 -18.75 7.8 -18.95 9.2 -18.75 14.25 -17.75 15.35 -17.2 Q16.15 -17.15 16.75 -16.55 16.95 -16.5 17.1 -16.4 M15.5 -16.6 L16.25 -15.7 16.45 -16.05 Q16.5 -16.55 15.5 -16.6 M-20.0 11.35 L-20.1 11.3 -23.45 10.6 Q-25.05 10.1 -26.15 8.9 L-26.95 7.7 -27.55 5.75 -27.7 4.35 -27.6 -4.05 -27.4 -10.85 Q-27.25 -14.55 -26.15 -18.15 L-25.45 -19.7 -24.65 -20.3 -23.05 -20.5 -17.5 -21.05 -16.6 -21.1 -15.4 -21.05 -13.35 -21.1 -5.85 -20.35 2.25 -19.85 9.85 -20.2 17.65 -19.35 22.7 -18.35 22.9 -18.25 24.1 -17.6 24.45 -17.15 24.6 -16.85 24.65 -16.7 24.9 -14.35 24.9 -13.75 24.8 -11.8 24.4 -7.05 23.65 -0.3 Q23.25 3.65 23.3 7.75 L23.0 11.05 22.55 12.25 21.65 13.2 Q20.5 14.05 19.2 14.3 L18.45 14.3 12.9 14.9 12.95 14.85 12.9 14.85 11.45 15.0 9.85 14.9 8.35 14.7 4.45 14.25 -2.6 12.95 -8.6 12.05 -15.5 11.5 -18.35 11.5 -20.0 11.35 M1.2 -5.6 L1.15 -5.6 1.45 -4.9 1.45 -4.75 1.45 -4.7 1.35 -4.5 1.25 -4.45 1.0 -4.9 1.0 -5.65 1.1 -5.65 1.15 -5.65 1.2 -5.6 M-24.35 -4.45 L-24.4 -4.65 Q-24.4 -5.9 -21.95 -6.25 L-21.0 -6.35 -19.75 -6.4 -19.65 -6.4 -19.35 -6.4 -16.6 -6.1 -16.75 -6.7 -16.8 -7.15 -16.8 -7.35 -16.5 -7.8 -15.45 -5.95 -14.65 -5.85 -14.6 -5.85 -14.65 -5.9 -14.6 -5.9 -14.65 -6.0 -14.6 -6.25 -14.35 -6.3 -13.65 -5.65 -12.9 -5.55 -12.0 -5.4 -11.7 -5.35 -8.25 -4.8 -8.65 -5.65 -8.7 -5.75 -8.7 -5.8 Q-8.7 -6.45 -8.2 -6.45 L-7.75 -5.6 -7.35 -4.85 -7.35 -4.65 -5.1 -4.45 -5.3 -4.8 -5.25 -4.9 -5.0 -5.25 -4.95 -5.2 -4.45 -4.8 -4.3 -4.35 -2.05 -4.3 1.6 -4.1 1.65 -4.1 1.75 -4.1 4.4 -3.65 6.7 -2.75 7.2 -2.35 7.9 -1.5 Q8.25 -0.9 8.25 -0.15 8.3 -0.05 8.05 -0.05 7.15 -1.3 6.4 -1.65 L0.6 -2.55 Q-4.75 -3.85 -8.6 -3.85 L-12.0 -3.9 -14.15 -3.4 -14.2 -2.7 -12.75 -2.05 -13.55 -0.4 -13.55 0.4 Q-13.65 1.1 -14.25 1.1 L-15.05 1.05 -15.15 0.95 -13.65 -1.95 -14.1 -2.2 -14.15 -2.2 -14.2 -2.25 -14.2 -2.1 Q-14.5 -1.4 -16.45 -1.3 -17.7 -1.3 -20.55 -0.4 L-20.3 0.45 -20.35 0.5 Q-21.1 0.05 -21.1 -0.55 -21.1 -1.0 -17.0 -1.85 -15.1 -2.2 -14.95 -2.45 L-15.1 -3.6 Q-15.1 -3.95 -14.7 -4.15 L-17.55 -4.65 Q-17.65 -4.25 -18.15 -3.9 L-18.5 -4.25 -18.4 -4.8 -20.15 -5.15 Q-20.15 -4.85 -20.45 -4.85 -20.9 -4.85 -20.9 -5.3 L-23.15 -4.8 -24.05 -4.2 -24.35 -4.45 M19.45 -6.55 L19.45 -5.3 Q19.4 -4.55 18.85 -4.0 18.5 -4.15 18.5 -4.4 L19.25 -6.65 19.45 -6.55 M20.0 -2.15 Q19.7 -2.35 19.7 -2.65 L20.0 -2.7 20.25 -2.5 20.2 -2.25 20.0 -2.15 M18.4 1.0 L18.55 1.15 18.55 1.65 18.5 1.7 18.35 1.75 18.1 1.55 18.1 1.05 18.4 1.0 M15.85 10.8 L15.75 10.1 16.25 7.35 16.45 7.3 16.7 7.65 Q16.7 9.55 15.85 10.8 M11.0 14.0 L12.25 14.15 Q13.25 14.15 13.4 13.65 L13.6 12.75 13.6 12.7 12.95 12.75 Q11.8 12.75 11.0 13.95 L10.95 14.0 11.0 14.0 M-6.2 -19.25 L-5.6 -19.25 -6.2 -19.3 -8.6 -19.55 -13.8 -20.2 -16.25 -20.35 -18.6 -20.2 -14.3 -19.75 -6.2 -19.25 M-3.4 -15.15 Q-2.7 -15.15 -2.35 -14.25 L-2.4 -14.05 -2.75 -13.95 Q-3.5 -13.95 -3.8 -14.75 -3.8 -15.15 -3.4 -15.15 M-0.65 -14.05 Q-0.05 -14.05 -0.1 -13.5 -0.1 -13.0 -0.6 -13.0 -1.3 -13.0 -1.2 -13.5 -1.2 -14.05 -0.65 -14.05 M-19.0 3.1 Q-18.35 3.9 -18.25 5.75 L-18.25 6.0 -18.45 6.15 -18.65 5.75 Q-19.2 4.7 -19.2 3.3 L-19.0 3.1 M-19.6 4.6 L-19.85 4.7 -20.1 4.6 -20.2 3.5 Q-20.2 3.0 -19.9 2.85 L-19.6 3.75 -19.6 4.6 M-17.2 3.8 L-17.1 3.8 Q-16.65 4.05 -16.65 4.95 L-16.85 5.1 -17.25 4.15 -17.2 3.8" fill="#a36a6a" fill-rule="evenodd" stroke="none"/>
    <path d="M14.4 -16.8 Q15.3 -15.8 15.45 -14.2 L15.45 -11.1 14.5 -3.1 Q13.9 1.05 14.05 5.2 L14.1 5.75 13.95 10.1 13.7 11.2 12.75 11.7 Q11.4 12.1 11.1 12.6 L9.85 13.85 3.9 13.3 -3.4 12.1 -11.3 10.85 -19.25 9.95 -24.7 9.15 Q-25.8 8.75 -26.2 7.7 L-26.45 6.55 -26.4 5.75 -26.4 -1.0 -26.35 -9.15 Q-26.25 -13.15 -25.4 -17.15 L-24.55 -19.05 -23.95 -19.75 -17.05 -18.95 -11.05 -18.55 -3.25 -18.4 6.5 -18.15 10.35 -17.5 14.4 -16.8 M1.1 -5.65 L1.0 -5.65 -1.75 -6.05 -5.6 -6.35 -9.35 -8.05 Q-9.9 -8.05 -9.9 -7.55 L-10.1 -7.1 -16.4 -7.95 -16.55 -8.05 -16.8 -8.05 -20.55 -8.7 -21.2 -8.7 -23.45 -8.35 -23.9 -8.4 Q-24.6 -8.4 -24.65 -6.15 -24.65 -5.35 -24.45 -5.05 L-24.55 -4.95 -24.45 -4.6 -24.35 -4.45 -24.05 -4.2 -23.15 -4.8 -20.9 -5.3 Q-20.9 -4.85 -20.45 -4.85 -20.15 -4.85 -20.15 -5.15 L-18.4 -4.8 -18.5 -4.25 -18.15 -3.9 Q-17.65 -4.25 -17.55 -4.65 L-14.7 -4.15 Q-15.1 -3.95 -15.1 -3.6 L-14.95 -2.45 Q-15.1 -2.2 -17.0 -1.85 -21.1 -1.0 -21.1 -0.55 -21.1 0.05 -20.35 0.5 L-20.3 0.45 -20.55 -0.4 Q-17.7 -1.3 -16.45 -1.3 -14.5 -1.4 -14.2 -2.1 L-14.1 -2.2 -13.65 -1.95 -15.15 0.95 -15.05 1.05 -14.25 1.1 Q-13.65 1.1 -13.55 0.4 L-13.55 -0.4 -12.75 -2.05 -14.2 -2.7 -14.15 -3.4 -12.0 -3.9 -8.6 -3.85 Q-4.75 -3.85 0.6 -2.55 L6.4 -1.65 Q7.15 -1.3 8.05 -0.05 8.3 -0.05 8.25 -0.15 8.25 -0.9 7.9 -1.5 L7.95 -2.25 7.2 -4.05 Q7.1 -4.95 6.65 -5.1 L2.35 -5.25 1.2 -5.6 1.15 -5.65 1.1 -5.65 M-0.65 -14.05 Q-1.2 -14.05 -1.2 -13.5 -1.3 -13.0 -0.6 -13.0 -0.1 -13.0 -0.1 -13.5 -0.05 -14.05 -0.65 -14.05 M-3.4 -15.15 Q-3.8 -15.15 -3.8 -14.75 -3.5 -13.95 -2.75 -13.95 L-2.4 -14.05 -2.35 -14.25 Q-2.7 -15.15 -3.4 -15.15 M-17.2 3.8 L-17.25 4.15 -16.85 5.1 -16.65 4.95 Q-16.65 4.05 -17.1 3.8 L-17.2 3.8 M-19.6 4.6 L-19.6 3.75 -19.9 2.85 Q-20.2 3.0 -20.2 3.5 L-20.1 4.6 -19.85 4.7 -19.6 4.6 M-19.0 3.1 L-19.2 3.3 Q-19.2 4.7 -18.65 5.75 L-18.45 6.15 -18.25 6.0 -18.25 5.75 Q-18.35 3.9 -19.0 3.1" fill="url(#gradient0)" fill-rule="evenodd" stroke="none"/>
    <path d="M19.95 -16.7 L19.85 -16.7 17.1 -16.4 Q16.95 -16.5 16.75 -16.55 16.15 -17.15 15.35 -17.2 L14.25 -17.75 9.2 -18.75 7.8 -18.95 14.95 -18.75 18.8 -18.1 22.85 -17.4 22.85 -17.35 22.5 -17.35 22.4 -17.35 20.4 -17.0 19.95 -16.7 M15.5 -16.6 Q16.5 -16.55 16.45 -16.05 L16.25 -15.7 15.5 -16.6 M-14.65 -5.85 L-14.65 -5.9 -14.6 -5.85 -14.65 -5.85 M-14.1 -2.2 L-14.2 -2.1 -14.2 -2.25 -14.15 -2.2 -14.1 -2.2 M11.0 13.95 L11.0 14.0 10.95 14.0 11.0 13.95 M-6.2 -19.25 L-14.3 -19.75 -18.6 -20.2 -16.25 -20.35 -13.8 -20.2 -8.6 -19.55 -6.2 -19.3 -6.2 -19.25" fill="url(#gradient1)" fill-rule="evenodd" stroke="none"/>
    <path d="M19.95 -16.7 L18.05 -16.45 19.1 -16.35 21.1 -16.5 21.15 -16.5 21.5 -16.65 22.9 -16.6 23.4 -16.6 23.9 -14.8 23.9 -11.7 22.95 -3.7 22.9 -3.35 Q22.35 0.65 22.5 4.6 L22.55 5.75 22.4 9.5 Q22.2 10.9 21.5 12.0 20.85 12.95 19.8 13.2 L19.7 13.25 19.65 13.25 15.45 13.75 14.05 13.95 14.05 13.75 14.6 11.65 14.6 11.45 14.85 8.35 14.85 5.75 Q14.9 3.0 15.2 0.3 L15.95 -6.45 16.35 -11.2 16.45 -13.75 16.4 -14.8 16.65 -15.05 17.3 -16.2 17.1 -16.4 19.85 -16.7 19.95 -16.7 M-20.0 11.35 L-18.35 11.5 -15.5 11.5 -8.6 12.05 -2.6 12.95 4.45 14.25 8.35 14.7 9.85 14.9 11.45 15.0 12.9 14.85 12.9 14.9 18.45 14.3 19.2 14.3 Q20.5 14.05 21.65 13.2 L22.55 12.25 23.0 11.05 23.3 7.75 Q23.25 3.65 23.65 -0.3 L24.4 -7.05 24.8 -11.8 24.9 -13.75 24.9 -14.35 24.65 -16.7 24.6 -16.85 24.45 -17.15 Q26.1 -16.95 27.05 -15.25 L27.45 -14.4 27.45 -13.75 27.7 -9.05 Q27.1 0.35 27.1 5.3 L27.1 6.2 26.9 9.35 26.75 11.5 26.5 14.1 26.1 18.45 Q26.0 19.85 24.1 20.5 L22.8 21.05 1.55 19.5 Q-18.1 17.7 -19.0 14.35 -19.75 11.65 -20.0 11.35 M1.1 -5.65 L1.0 -5.65 1.0 -4.9 1.25 -4.45 1.35 -4.5 1.45 -4.7 1.45 -4.75 1.45 -4.9 1.15 -5.6 1.2 -5.6 2.35 -5.25 6.65 -5.1 Q7.1 -4.95 7.2 -4.05 L7.95 -2.25 7.9 -1.5 7.2 -2.35 6.7 -2.75 4.4 -3.65 1.75 -4.1 1.65 -4.1 1.6 -4.1 -2.05 -4.3 -4.3 -4.35 -4.45 -4.8 -4.95 -5.2 -5.0 -5.25 -5.25 -4.9 -5.3 -4.8 -5.1 -4.45 -7.35 -4.65 -7.35 -4.85 -7.75 -5.6 -8.2 -6.45 Q-8.7 -6.45 -8.7 -5.8 L-8.7 -5.75 -8.65 -5.65 -8.25 -4.8 -11.7 -5.35 -12.0 -5.4 -12.9 -5.55 -13.65 -5.65 -14.35 -6.3 -14.6 -6.25 -14.65 -6.0 -14.6 -5.9 -14.65 -5.9 -14.65 -5.85 -15.45 -5.95 -16.5 -7.8 -16.8 -7.35 -16.8 -7.15 -16.75 -6.7 -16.6 -6.1 -19.35 -6.4 -19.65 -6.4 -19.75 -6.4 -21.0 -6.35 -21.95 -6.25 Q-24.4 -5.9 -24.4 -4.65 L-24.35 -4.45 -24.45 -4.6 -24.55 -4.95 -24.45 -5.05 Q-24.65 -5.35 -24.65 -6.15 -24.6 -8.4 -23.9 -8.4 L-23.45 -8.35 -21.2 -8.7 -20.55 -8.7 -16.8 -8.05 -16.55 -8.05 -16.4 -7.95 -10.1 -7.1 -9.9 -7.55 Q-9.9 -8.05 -9.35 -8.05 L-5.6 -6.35 -1.75 -6.05 1.0 -5.65 1.1 -5.65 M20.0 -2.15 L20.2 -2.25 20.25 -2.5 20.0 -2.7 19.7 -2.65 Q19.7 -2.35 20.0 -2.15 M19.45 -6.55 L19.25 -6.65 18.5 -4.4 Q18.5 -4.15 18.85 -4.0 19.4 -4.55 19.45 -5.3 L19.45 -6.55 M15.85 10.8 Q16.7 9.55 16.7 7.65 L16.45 7.3 16.25 7.35 15.75 10.1 15.85 10.8 M18.4 1.0 L18.1 1.05 18.1 1.55 18.35 1.75 18.5 1.7 18.55 1.65 18.55 1.15 18.4 1.0 M11.0 13.95 Q11.8 12.75 12.95 12.75 L13.6 12.7 13.6 12.75 13.4 13.65 Q13.25 14.15 12.25 14.15 L11.0 14.0 11.0 13.95" fill="#e0cbcb" fill-rule="evenodd" stroke="none"/>
  </g>
  <defs>
    <radialGradient cx="0" cy="0" gradientTransform="matrix(0.0446, 0.0, 0.0, 0.0446, -15.45, -11.55)" gradientUnits="userSpaceOnUse" id="gradient0" r="819.2" spreadMethod="pad">
      <stop offset="0.47843137254901963" stop-color="#ffffff"></stop>
      <stop offset="0.8823529411764706" stop-color="#f2eaea"></stop>
    </radialGradient>
    <radialGradient cx="0" cy="0" gradientTransform="matrix(0.0391, 0.0, 0.0, 0.0201, -74.45, -11.75)" gradientUnits="userSpaceOnUse" id="gradient1" r="819.2" spreadMethod="pad">
      <stop offset="0.47843137254901963" stop-color="#ffffff"></stop>
      <stop offset="0.8823529411764706" stop-color="#f2eaea"></stop>
    </radialGradient>
  </defs>
</svg>