<?xml version="1.0" encoding="UTF-8" standalone="no"?>
<svg xmlns:xlink="http://www.w3.org/1999/xlink" height="33.75px" width="57.3px" xmlns="http://www.w3.org/2000/svg">
  <g transform="matrix(1.0, 0.0, 0.0, 1.0, 26.95, 16.25)">
    <path d="M18.95 -10.4 Q13.75 -12.7 9.45 -13.2 2.4 -14.15 -0.6 -13.1 L-2.95 -12.4 -6.6 -11.65 -7.15 -12.35 -7.85 -12.4 -8.2 -11.8 -8.6 -12.1 -10.05 -13.1 -11.4 -13.2 Q-15.6 -12.75 -17.9 -11.65 -20.35 -10.65 -21.2 -9.95 L-22.55 -8.7 Q-23.7 -7.3 -23.35 -5.05 L-23.35 -4.8 -23.15 -3.45 -23.0 -2.65 -23.0 -2.5 Q-21.8 3.4 -17.15 7.3 L-14.35 9.45 -12.95 10.35 -12.8 10.4 -8.95 12.1 -9.95 12.15 -10.15 12.3 -10.45 12.5 -12.3 12.45 Q-14.5 11.7 -16.3 10.55 -23.3 6.0 -25.15 -2.7 L-25.95 -5.95 Q-25.5 -8.1 -23.75 -9.9 -20.95 -11.95 -17.7 -13.2 -15.45 -14.15 -13.15 -14.5 L-11.4 -14.85 -8.3 -14.8 -5.25 -13.85 Q0.75 -15.6 6.2 -15.2 L14.15 -13.45 Q19.8 -12.1 24.6 -9.1 L24.55 -9.1 24.8 -8.95 24.85 -8.9 26.95 -7.4 24.45 -7.55 18.95 -10.4 M0.25 -11.55 L-1.2 -11.95 8.55 -11.2 Q6.25 -9.65 3.3 -10.65 L0.25 -11.55 M11.75 7.75 L11.75 7.85 11.7 7.9 11.6 7.95 Q8.0 7.2 4.8 4.55 L3.05 3.15 3.05 3.05 3.05 2.95 3.1 2.9 3.2 2.9 11.7 7.7 11.75 7.75 M6.55 2.65 L6.65 1.55 Q13.15 4.35 18.65 8.85 13.45 7.05 8.35 3.9 L6.55 2.65 M-1.25 4.75 L0.5 5.75 -2.85 4.95 -3.55 3.4 Q-2.6 3.9 -1.25 4.75" fill="#a36a6a" fill-rule="evenodd" stroke="none"/>
    <path d="M-2.95 -12.4 Q-4.45 -11.6 -8.45 -7.75 -9.7 -7.85 -10.4 -9.2 L-11.4 -13.2 -10.05 -13.1 -8.6 -12.1 -8.2 -11.8 -7.85 -12.4 -7.15 -12.35 -6.6 -11.65 -2.95 -12.4 M-23.0 -2.5 L-22.9 -2.15 Q-21.55 -1.3 -19.65 -1.0 -13.4 2.05 -7.7 2.1 -3.0 2.05 4.65 0.2 L14.95 0.7 Q20.3 0.7 20.3 -6.4 20.3 -8.8 18.95 -10.4 L24.45 -7.55 26.95 -7.4 24.85 -8.9 24.8 -8.95 24.55 -9.1 24.6 -9.1 24.7 -9.05 Q28.7 -8.9 29.35 2.05 29.3 4.65 25.2 9.4 19.65 15.65 11.85 16.4 4.75 16.95 -3.85 14.75 -8.2 13.65 -10.45 12.5 L-10.15 12.3 -9.95 12.15 -8.95 12.1 -12.8 10.4 -12.85 10.3 -12.95 10.35 -14.35 9.45 -17.15 7.3 Q-21.8 3.4 -23.0 -2.5 M-1.25 4.75 Q-2.6 3.9 -3.55 3.4 L-2.85 4.95 0.5 5.75 -1.25 4.75 M6.55 2.65 L8.35 3.9 Q13.45 7.05 18.65 8.85 13.15 4.35 6.65 1.55 L6.55 2.65 M11.75 7.75 L11.7 7.7 3.2 2.9 3.1 2.9 3.05 2.95 3.05 3.05 3.05 3.15 4.8 4.55 Q8.0 7.2 11.6 7.95 L11.7 7.9 11.75 7.85 11.75 7.75" fill="#e0cbcb" fill-rule="evenodd" stroke="none"/>
    <path d="M-2.95 -12.4 L-0.6 -13.1 Q2.4 -14.15 9.45 -13.2 13.75 -12.7 18.95 -10.4 20.3 -8.8 20.3 -6.4 20.3 0.7 14.95 0.7 L4.65 0.2 Q-3.0 2.05 -7.7 2.1 -13.4 2.05 -19.65 -1.0 -21.55 -1.3 -22.9 -2.15 L-23.0 -2.5 -23.0 -2.65 -23.15 -3.45 -23.35 -4.8 -23.35 -5.05 Q-23.7 -7.3 -22.55 -8.7 L-21.2 -9.95 Q-20.35 -10.65 -17.9 -11.65 -15.6 -12.75 -11.4 -13.2 L-10.4 -9.2 Q-9.7 -7.85 -8.45 -7.75 -4.45 -11.6 -2.95 -12.4 M0.25 -11.55 L3.3 -10.65 Q6.25 -9.65 8.55 -11.2 L-1.2 -11.95 0.25 -11.55" fill="url(#gradient0)" fill-rule="evenodd" stroke="none"/>
  </g>
  <defs>
    <radialGradient cx="0" cy="0" gradientTransform="matrix(0.0381, 0.0, 0.0, 0.0194, -13.2, -10.35)" gradientUnits="userSpaceOnUse" id="gradient0" r="819.2" spreadMethod="pad">
      <stop offset="0.47843137254901963" stop-color="#ffffff"></stop>
      <stop offset="0.8823529411764706" stop-color="#f2eaea"></stop>
    </radialGradient>
  </defs>
</svg>