<?xml version="1.0" encoding="UTF-8" standalone="no"?>
<svg xmlns:xlink="http://www.w3.org/1999/xlink" height="14.1px" width="14.15px" xmlns="http://www.w3.org/2000/svg">
  <g transform="matrix(1.0, 0.0, 0.0, 1.0, 8.85, 7.25)">
    <path d="M-3.05 5.5 L-4.0 5.1 -5.4 3.85 Q-7.2 2.25 -7.2 1.6 -7.2 0.75 -6.4 -1.75 L-6.3 -3.65 -6.2 -3.8 -4.65 -4.75 -3.0 -5.5 -0.55 -5.15 0.1 -4.8 0.15 -4.9 0.8 -4.3 1.0 -3.85 Q1.55 -2.85 1.95 -2.6 3.65 -1.55 3.7 -0.9 4.3 0.25 4.3 0.85 L3.0 3.65 Q1.05 4.15 0.4 4.6 -0.75 5.55 -2.2 5.6 L-2.25 5.6 -2.7 5.55 -3.05 5.5 M-0.05 -3.05 L-0.15 -2.45 0.5 -1.45 Q0.1 -1.0 0.05 0.15 -1.55 0.45 -1.95 0.85 L-3.0 1.85 -3.4 1.8 Q-3.4 2.6 -2.6 2.6 L-0.45 1.95 0.35 1.6 0.3 1.45 0.7 2.25 Q-0.9 3.95 -1.75 3.95 -4.1 3.95 -4.65 3.05 L-5.8 1.4 -5.9 1.5 -5.9 2.0 -4.85 3.75 Q-3.75 5.05 -1.4 5.05 -0.15 5.05 1.25 3.95 2.55 2.9 2.55 2.15 2.55 1.6 1.9 1.0 2.45 0.6 2.45 0.0 2.45 -0.55 1.55 -1.75 0.6 -2.9 0.05 -3.05 L-0.05 -3.05" fill="#ffcc00" fill-rule="evenodd" stroke="none"/>
    <path d="M1.0 -3.85 L0.8 -4.3 0.15 -4.9 0.1 -4.8 -0.55 -5.15 -3.0 -5.5 -4.65 -4.75 -6.2 -3.8 -6.3 -3.65 -6.4 -1.75 Q-7.2 0.75 -7.2 1.6 -7.2 2.25 -5.4 3.85 L-4.0 5.1 -3.05 5.5 -3.6 5.7 -3.85 5.85 -4.2 5.65 Q-4.8 4.9 -5.45 4.85 L-6.7 4.0 Q-7.85 2.45 -7.85 1.85 L-7.4 -0.15 Q-6.95 -1.15 -6.95 -3.05 L-6.1 -4.2 Q-5.25 -5.5 -3.9 -5.85 L-2.4 -6.25 Q-0.75 -6.25 0.05 -5.6 L0.9 -4.65 1.0 -3.85" fill="#660000" fill-rule="evenodd" stroke="none"/>
    <path d="M-0.05 -3.05 L0.05 -3.05 Q0.6 -2.9 1.55 -1.75 2.45 -0.55 2.45 0.0 2.45 0.6 1.9 1.0 2.55 1.6 2.55 2.15 2.55 2.9 1.25 3.95 -0.15 5.05 -1.4 5.05 -3.75 5.05 -4.85 3.75 L-5.9 2.0 -5.9 1.5 -5.8 1.4 -4.65 3.05 Q-4.1 3.95 -1.75 3.95 -0.9 3.95 0.7 2.25 L0.3 1.45 0.35 1.6 -0.45 1.95 -2.6 2.6 Q-3.4 2.6 -3.4 1.8 L-3.0 1.85 -1.95 0.85 Q-1.55 0.45 0.05 0.15 0.1 -1.0 0.5 -1.45 L-0.15 -2.45 -0.05 -3.05" fill="#e1931e" fill-rule="evenodd" stroke="none"/>
  </g>
</svg>