<?xml version="1.0" encoding="UTF-8" standalone="no"?>
<svg xmlns:xlink="http://www.w3.org/1999/xlink" height="20.45px" width="14.5px" xmlns="http://www.w3.org/2000/svg">
  <g transform="matrix(1.0, 0.0, 0.0, 1.0, 12.45, 35)">
    <path d="M1.0 -19.85 L0.75 -19.75 0.65 -19.75 Q-0.3 -19.75 -0.7 -20.6 L-2.35 -21.35 -1.8 -18.2 Q-1.45 -16.75 -1.45 -16.1 L-1.55 -15.85 -1.65 -15.8 -3.1 -21.6 -2.95 -22.2 -2.45 -22.15 -2.35 -22.15 Q-1.0 -21.5 -0.35 -20.85 L0.5 -20.35 -0.15 -22.65 -0.9 -25.45 -0.85 -25.55 -1.05 -25.55 -2.8 -26.5 -2.65 -26.35 -3.55 -26.8 -3.5 -26.7 -3.95 -26.85 -4.1 -27.15 -4.4 -28.0 -5.25 -32.2 -7.0 -32.8 Q-8.8 -33.45 -9.3 -34.0 L-8.75 -34.0 -5.35 -32.7 -5.25 -33.05 -5.15 -33.05 -5.0 -32.55 -4.7 -32.4 -4.9 -32.2 -3.6 -27.15 Q-1.15 -26.2 -0.8 -25.75 L-0.6 -25.95 Q1.05 -21.45 1.05 -20.4 L1.0 -19.85 M-10.3 -28.05 L-9.75 -25.75 -9.45 -25.8 -7.75 -25.05 -7.8 -25.35 -7.15 -24.8 -7.15 -24.7 -7.05 -24.65 -7.05 -24.5 -6.85 -23.85 -6.95 -23.9 -6.15 -20.8 -5.1 -17.45 -5.0 -17.45 -2.3 -16.3 -2.35 -16.15 -1.7 -15.8 -2.0 -15.7 -2.4 -15.75 -2.45 -15.55 -3.15 -15.85 -4.05 -16.05 -4.0 -16.3 -5.05 -17.1 -5.0 -16.7 -5.05 -16.45 -5.1 -16.35 Q-5.8 -17.65 -6.45 -20.6 L-7.55 -24.25 -9.65 -25.45 -9.85 -25.25 Q-11.0 -26.85 -11.45 -30.0 L-11.45 -30.55 -11.25 -30.55 Q-10.7 -29.6 -10.3 -28.05 M-10.9 -30.5 L-10.75 -30.5 -8.8 -29.75 -9.5 -33.9 -9.45 -33.9 -8.45 -29.85 -8.4 -29.3 -8.75 -29.45 -8.9 -29.45 -10.95 -30.3 -10.9 -30.5" fill="#a36a6a" fill-rule="evenodd" stroke="none"/>
  </g>
</svg>