<?xml version="1.0" encoding="UTF-8" standalone="no"?>
<svg xmlns:xlink="http://www.w3.org/1999/xlink" height="19.1px" width="17.7px" xmlns="http://www.w3.org/2000/svg">
  <g transform="matrix(1.0, 0.0, 0.0, 1.0, 8.85, 9.55)">
    <path d="M7.85 -8.5 Q6.35 -7.55 6.3 -6.5 6.25 -5.85 5.2 -5.85 L4.5 -5.95 4.4 -5.55 5.0 -4.0 Q4.15 -3.4 4.0 -2.25 L4.4 -1.6 4.3 -1.0 Q4.9 0.4 4.9 0.9 4.35 2.15 4.35 2.5 3.45 4.4 2.75 4.55 1.9 4.65 -1.3 6.05 L-3.6 5.7 -3.6 5.8 -3.8 5.9 -4.65 5.35 -4.5 5.8 -4.25 6.75 Q-4.0 7.2 -2.1 7.7 L-0.2 8.1 0.55 7.9 1.25 8.0 1.25 8.05 -0.2 8.55 -2.6 8.2 Q-4.55 7.75 -4.8 7.15 L-5.35 5.05 -5.25 4.95 -6.7 4.0 Q-7.85 2.45 -7.85 1.85 L-7.4 -0.15 Q-6.95 -1.15 -6.95 -3.05 L-6.1 -4.2 Q-5.25 -5.5 -3.9 -5.85 L-2.4 -6.25 Q-0.75 -6.25 0.05 -5.6 -0.15 -6.15 -0.9 -6.25 L-1.1 -6.4 -1.6 -7.05 -1.55 -7.2 -1.5 -7.2 1.15 -5.1 1.25 -5.0 1.85 -4.9 Q3.25 -6.7 3.6 -6.7 4.3 -6.3 5.2 -6.25 6.15 -6.3 6.2 -6.8 L6.05 -7.55 Q6.25 -8.45 7.75 -8.55 L7.85 -8.5 M-6.2 -3.8 L-6.3 -3.65 -6.4 -1.75 Q-7.2 0.75 -7.2 1.6 -7.2 2.25 -5.4 3.85 L-4.0 5.1 Q-3.1 5.6 -2.2 5.6 -0.75 5.55 0.4 4.6 1.05 4.15 3.0 3.65 L4.3 0.85 Q4.3 0.25 3.7 -0.9 3.65 -1.55 1.95 -2.6 1.45 -2.9 0.8 -4.3 L0.15 -4.9 0.1 -4.8 -0.55 -5.15 -3.0 -5.5 -4.65 -4.75 -6.2 -3.8 M4.1 -6.15 L3.8 -6.35 3.5 -6.3 2.8 -5.2 1.95 -4.45 1.75 -4.45 2.0 -3.75 Q2.05 -3.4 2.7 -3.05 L3.7 -2.45 3.7 -2.5 Q3.7 -3.1 4.45 -4.05 L4.0 -5.65 4.1 -6.15" fill="#a36a6a" fill-rule="evenodd" stroke="none"/>
  </g>
</svg>