<?xml version="1.0" encoding="UTF-8" standalone="no"?>
<svg xmlns:xlink="http://www.w3.org/1999/xlink" height="34.4px" width="25.8px" xmlns="http://www.w3.org/2000/svg">
  <g transform="matrix(1.0, 0.0, 0.0, 1.0, 13.05, 12.8)">
    <path d="M-4.7 -5.4 L-4.75 -5.35 -4.7 -5.4 M1.6 17.15 L1.6 16.85 1.6 16.55 1.6 17.15" fill="#b47575" fill-rule="evenodd" stroke="none"/>
    <path d="M1.75 -10.7 L2.15 -10.5 Q2.45 -10.15 3.25 -9.85 4.5 -9.4 4.5 -9.0 L4.25 -6.55 4.3 -6.35 3.15 -6.35 2.15 -6.25 Q1.65 -6.25 1.5 -6.45 L1.25 -6.45 1.3 -7.1 1.3 -7.2 1.75 -10.7 M1.05 19.2 L1.3 7.4 1.35 7.4 1.95 0.35 3.1 1.75 4.25 2.45 4.3 2.45 3.95 7.4 3.9 7.4 3.85 8.45 3.8 13.15 3.75 14.35 3.85 15.85 Q3.7 18.1 2.05 18.15 L1.3 19.3 1.05 19.2 M-5.45 2.65 L-5.5 2.15 -7.7 1.8 -8.9 1.0 -10.3 0.05 -8.9 0.15 -5.55 0.1 -5.45 2.65 M8.1 -5.0 L10.4 -3.15 Q11.25 -2.4 10.95 -0.1 L10.95 2.0 10.4 1.5 7.95 -0.6 8.0 -1.0 8.2 -2.0 8.0 -3.95 8.1 -5.0 M7.85 0.4 L10.3 2.35 7.9 2.3 Q4.55 2.4 3.8 1.7 L2.45 0.1 3.15 0.0 7.35 0.0 7.85 0.4 M1.6 17.15 L1.6 16.55 1.6 16.85 1.6 17.15" fill="#e0cbcb" fill-rule="evenodd" stroke="none"/>
    <path d="M1.75 -10.7 L1.3 -7.2 1.3 -7.1 1.25 -6.45 1.5 -6.45 Q1.65 -6.25 2.15 -6.25 L3.15 -6.35 4.3 -6.35 4.25 -6.55 4.5 -9.0 Q4.5 -9.4 3.25 -9.85 2.45 -10.15 2.15 -10.5 L1.75 -10.7 M0.5 7.4 L0.5 6.8 0.7 3.5 -0.3 3.8 -0.35 3.65 0.1 3.15 -0.9 3.1 -1.05 3.0 -0.65 2.8 Q-1.25 2.45 -1.25 2.05 L-1.2 1.15 -1.0 1.1 Q-0.5 1.1 -0.8 1.8 -0.8 2.25 0.6 2.8 L0.8 2.75 0.85 2.3 0.9 1.65 1.5 -1.0 1.55 -1.05 1.6 -1.05 7.3 -1.0 7.3 -5.25 0.7 -5.65 0.65 -5.7 0.6 -5.75 0.35 -6.25 0.35 -6.3 0.85 -10.65 -4.6 -10.85 -4.7 -5.9 -3.75 -5.75 -3.15 -5.9 -3.05 -6.1 Q-2.35 -7.25 -1.85 -7.3 L-2.6 -6.1 -2.8 -5.9 -2.3 -5.5 -2.3 -5.45 -3.15 -5.45 -3.95 -5.15 -4.7 -5.4 -4.75 -5.35 -4.8 -5.3 -11.2 -5.55 -11.1 -1.1 -4.55 -0.8 -4.5 -0.75 -4.45 -0.7 -4.5 2.3 -4.4 4.8 -4.35 7.4 -4.3 7.4 -4.25 8.45 -4.2 15.45 -4.2 16.25 -4.2 16.55 Q-4.2 17.65 -4.35 18.15 L-4.35 18.25 Q-4.55 18.8 -4.95 18.45 L-5.0 18.35 -5.05 18.15 -5.45 2.65 -6.15 2.65 Q-8.2 2.65 -8.7 2.1 -8.8 1.95 -10.0 1.3 L-11.7 -0.2 -12.0 -0.25 -12.0 -0.3 -12.05 -0.4 -12.0 -6.6 -12.0 -6.65 -11.95 -6.65 -11.9 -6.7 -5.7 -6.3 -5.45 -11.7 -5.4 -11.75 -4.15 -11.75 -3.4 -11.65 1.35 -11.65 Q2.2 -11.7 3.0 -11.1 4.3 -10.8 5.1 -9.05 L4.65 -6.35 5.45 -6.3 7.3 -6.1 7.95 -5.95 8.3 -5.85 8.2 -5.45 8.3 -5.8 10.25 -4.3 10.4 -4.2 11.75 -2.8 11.65 0.9 Q11.6 2.9 11.4 2.85 L10.95 2.9 10.4 3.0 8.65 3.0 4.9 2.65 4.5 8.45 4.05 16.55 3.85 15.85 3.75 14.35 3.8 13.15 3.85 8.45 3.9 7.4 3.95 7.4 4.3 2.45 4.75 2.6 4.25 2.45 3.1 1.75 1.95 0.35 1.35 7.4 1.3 7.4 1.05 19.2 1.05 20.2 1.0 20.4 0.95 20.6 0.85 20.5 0.85 20.3 0.75 19.1 0.7 18.75 0.7 18.55 0.65 16.25 0.6 14.15 0.5 8.45 0.5 7.4 M-5.45 2.65 L-5.55 0.1 -8.9 0.15 -10.3 0.05 -8.9 1.0 -7.7 1.8 -5.5 2.15 -5.45 2.65 M8.1 -5.0 L8.0 -3.95 8.2 -2.0 8.0 -1.0 7.95 -0.6 10.4 1.5 10.95 2.0 10.95 -0.1 Q11.25 -2.4 10.4 -3.15 L8.1 -5.0 M6.1 -4.7 Q6.7 -4.7 6.75 -4.2 L6.45 -3.9 Q5.5 -3.9 5.5 -4.4 5.5 -4.7 6.1 -4.7 M6.4 -2.5 L6.0 -2.7 Q6.1 -3.0 6.35 -3.0 L6.6 -2.95 6.65 -2.75 6.4 -2.5 M7.85 0.4 L7.35 0.0 3.15 0.0 2.45 0.1 3.8 1.7 Q4.55 2.4 7.9 2.3 L10.3 2.35 7.85 0.4 M-2.3 5.65 Q-2.0 5.65 -1.7 6.25 L-2.15 6.55 Q-2.7 6.55 -2.7 6.05 -2.7 5.65 -2.3 5.65" fill="#a36a6a" fill-rule="evenodd" stroke="none"/>
    <path d="M-4.7 -5.4 L-3.95 -5.15 -3.15 -5.45 -2.3 -5.45 -2.3 -5.5 -2.8 -5.9 -2.6 -6.1 -1.85 -7.3 Q-2.35 -7.25 -3.05 -6.1 L-3.15 -5.9 -3.75 -5.75 -4.7 -5.9 -4.6 -10.85 0.85 -10.65 0.35 -6.3 0.35 -6.25 0.6 -5.75 0.65 -5.7 0.7 -5.65 7.3 -5.25 7.3 -1.0 1.6 -1.05 1.55 -1.05 1.5 -1.0 0.9 1.65 0.85 2.3 0.8 2.75 0.6 2.8 Q-0.8 2.25 -0.8 1.8 -0.5 1.1 -1.0 1.1 L-1.2 1.15 -1.25 2.05 Q-1.25 2.45 -0.65 2.8 L-1.05 3.0 -0.9 3.1 0.1 3.15 -0.35 3.65 -0.3 3.8 0.7 3.5 0.5 6.8 0.5 7.4 -4.3 7.4 -4.35 7.4 -4.4 4.8 -4.5 2.3 -4.45 -0.7 -4.5 -0.75 -4.55 -0.8 -11.1 -1.1 -11.2 -5.55 -4.8 -5.3 -4.75 -5.35 -4.7 -5.4 M6.4 -2.5 L6.65 -2.75 6.6 -2.95 6.35 -3.0 Q6.1 -3.0 6.0 -2.7 L6.4 -2.5 M6.1 -4.7 Q5.5 -4.7 5.5 -4.4 5.5 -3.9 6.45 -3.9 L6.75 -4.2 Q6.7 -4.7 6.1 -4.7 M-2.3 5.65 Q-2.7 5.65 -2.7 6.05 -2.7 6.55 -2.15 6.55 L-1.7 6.25 Q-2.0 5.65 -2.3 5.65" fill="url(#gradient0)" fill-rule="evenodd" stroke="none"/>
    <path d="M-4.3 7.4 L0.5 7.4 0.5 8.45 0.6 14.15 0.65 16.25 0.7 18.55 0.7 18.75 0.75 19.1 -0.95 19.5 Q-3.5 19.5 -4.3 18.2 L-4.35 18.15 Q-4.2 17.65 -4.2 16.55 L-4.2 16.25 -4.2 15.45 -4.25 8.45 -4.3 7.4" fill="url(#gradient1)" fill-rule="evenodd" stroke="none"/>
  </g>
  <defs>
    <radialGradient cx="0" cy="0" gradientTransform="matrix(0.0195, 0.0, 0.0, 0.0195, -6.8, -6.0)" gradientUnits="userSpaceOnUse" id="gradient0" r="819.2" spreadMethod="pad">
      <stop offset="0.47843137254901963" stop-color="#ffffff"></stop>
      <stop offset="0.8823529411764706" stop-color="#f2eaea"></stop>
    </radialGradient>
    <radialGradient cx="0" cy="0" gradientTransform="matrix(0.0195, 0.0, 0.0, 0.0775, -6.8, -49.95)" gradientUnits="userSpaceOnUse" id="gradient1" r="819.2" spreadMethod="pad">
      <stop offset="0.47843137254901963" stop-color="#ffffff"></stop>
      <stop offset="0.8823529411764706" stop-color="#f2eaea"></stop>
    </radialGradient>
  </defs>
</svg>