<?xml version="1.0" encoding="UTF-8" standalone="no"?>
<svg xmlns:xlink="http://www.w3.org/1999/xlink" height="24.15px" width="39.4px" xmlns="http://www.w3.org/2000/svg">
  <g transform="matrix(1.0, 0.0, 0.0, 1.0, 19.9, 10.8)">
    <path d="M15.75 -2.7 L14.15 -3.95 14.05 -4.0 13.4 -4.35 11.4 -5.35 Q9.3 -6.35 7.0 -6.95 L5.85 -7.2 5.0 -7.4 4.45 -7.45 4.4 -7.45 3.9 -7.55 -2.25 -8.4 -4.1 -8.55 -4.3 -8.0 Q-5.6 -8.0 -6.0 -7.55 -6.15 -7.1 -6.65 -6.55 L-6.75 -6.55 -6.75 -6.95 Q-6.5 -8.05 -5.6 -8.05 -4.8 -8.05 -4.65 -8.35 L-4.5 -8.6 -8.45 -8.8 Q-11.8 -8.85 -15.1 -7.8 L-15.65 -7.6 -16.3 -7.25 -17.4 -6.15 -17.4 -6.1 -17.45 -6.05 -17.55 -5.8 -17.65 -5.65 -17.7 -4.85 -17.5 -3.4 -17.3 -2.65 -16.8 -1.65 -15.15 -0.1 Q-14.25 0.6 -11.75 1.15 L-9.45 1.55 -10.45 -0.35 -8.55 -1.55 Q-7.55 -2.05 -4.8 -2.15 L-2.2 -2.0 1.85 -1.4 3.95 -0.55 5.5 0.2 7.35 -0.25 7.35 -0.95 Q7.4 -1.35 7.75 -1.35 L7.7 -0.65 7.9 -0.05 5.75 0.3 6.9 1.0 8.05 2.3 8.05 2.7 7.95 2.9 7.0 3.2 5.8 3.7 5.0 3.95 4.3 4.2 5.65 4.25 10.5 4.35 10.0 4.45 10.8 4.3 14.0 3.55 15.4 2.95 16.6 2.1 Q17.35 1.3 17.45 0.45 L17.25 -0.65 17.05 -1.05 16.55 -1.8 15.9 -2.6 15.75 -2.7 M2.75 -5.8 L2.6 -5.7 2.5 -5.8 2.5 -5.95 2.7 -5.95 2.75 -5.9 2.75 -5.8 M0.3 -1.05 L0.15 -1.1 0.15 -0.8 -0.8 1.8 0.25 2.0 3.0 -0.5 0.3 -1.05 M-6.25 11.1 Q-6.5 10.95 -6.1 9.15 L-5.7 7.35 -5.3 5.6 Q-6.1 5.45 -6.8 4.8 -7.45 4.2 -7.35 3.85 L-7.15 3.35 -7.65 3.2 -9.45 2.85 -12.05 2.35 -12.3 2.3 Q-13.7 1.95 -16.05 0.65 L-17.0 -0.1 -16.45 0.25 Q-17.6 -0.5 -18.4 -1.75 -19.3 -3.15 -18.5 -5.6 L-18.4 -5.9 Q-17.55 -8.15 -14.75 -8.85 L-8.15 -9.8 4.1 -8.65 9.45 -7.3 Q12.55 -6.45 15.2 -4.6 L17.65 -2.4 18.35 -1.15 Q18.85 0.45 17.9 1.8 17.0 3.1 16.3 3.5 L15.75 3.75 14.9 4.15 Q12.45 5.35 9.9 5.3 L5.45 5.2 4.85 5.05 3.2 4.75 2.4 6.0 Q1.65 6.6 0.45 6.5 L0.4 6.5 0.3 6.95 -0.5 10.75 -1.05 11.85 -1.1 11.85 -1.25 11.5 -1.3 11.05 -1.2 10.2 -0.6 7.7 -0.2 5.55 Q-0.1 4.6 -0.75 4.1 L-0.9 4.0 Q-1.4 3.65 -2.25 3.6 L-3.15 3.55 -3.7 3.75 -4.2 4.25 -4.5 5.3 -4.95 7.15 -5.7 10.15 -6.0 11.05 -6.1 11.1 -6.2 11.1 -6.25 11.1 M7.45 2.4 L5.8 1.05 5.35 1.9 4.25 2.45 3.4 2.95 2.8 3.15 3.2 3.75 3.65 3.8 4.95 3.5 5.9 3.15 7.45 2.4 M2.45 2.9 Q2.9 2.6 3.25 2.4 L5.6 0.85 3.5 -0.2 0.9 2.2 Q1.85 2.5 2.45 2.9 M0.35 4.2 Q0.65 4.75 0.5 5.85 1.6 5.8 2.0 5.35 L2.3 4.85 2.4 4.4 2.3 4.0 2.0 3.5 Q1.55 2.85 -1.05 2.55 L-2.5 2.35 -3.7 2.4 -3.75 2.4 -5.15 2.6 -5.35 2.6 Q-5.95 2.7 -6.4 3.1 L-6.45 3.1 -6.5 3.15 -6.65 3.25 -6.75 3.65 Q-6.85 4.05 -6.15 4.5 L-5.15 5.1 -4.65 3.6 -4.6 3.5 -4.25 3.25 -4.25 3.3 -2.4 3.15 -0.8 3.45 Q-0.1 3.65 0.2 4.0 L0.35 4.2 M-15.25 -4.0 L-14.45 -4.9 -13.8 -5.4 -13.45 -5.65 -13.6 -5.4 -15.05 -3.65 -15.2 -3.6 -15.25 -4.0 M-14.7 -2.9 Q-14.65 -3.75 -13.95 -3.95 L-13.85 -3.75 Q-13.95 -3.3 -14.5 -2.9 L-14.7 -2.9 M-4.1 -6.55 Q-4.65 -6.65 -4.55 -6.9 -4.5 -7.15 -4.2 -7.1 -3.6 -7.05 -3.65 -6.7 -3.7 -6.55 -4.1 -6.55 M-7.6 -1.4 L-9.7 -0.4 -7.5 2.1 -8.4 1.9 -7.05 2.7 -7.0 2.65 Q-6.95 2.2 -6.3 1.95 L-6.65 1.6 Q-7.6 0.3 -7.6 -1.4 M-0.9 1.75 L-0.1 -1.15 -3.15 -1.45 -3.2 -0.65 -3.3 1.45 -3.1 1.45 -2.25 1.55 -0.9 1.75 M-4.15 -0.5 L-3.75 -1.45 -7.0 -1.45 -6.75 0.3 -5.05 1.6 -3.55 1.45 -4.15 -0.5" fill="#a36a6a" fill-rule="evenodd" stroke="none"/>
    <path d="M4.45 -7.45 L5.0 -7.4 5.85 -7.2 7.0 -6.95 Q9.3 -6.35 11.4 -5.35 L13.4 -4.35 14.05 -4.0 14.15 -3.95 15.75 -2.7 15.7 -2.6 15.5 -2.35 Q14.45 -0.9 13.95 -0.7 10.65 0.55 8.4 0.9 L8.0 0.95 6.9 1.0 5.75 0.3 7.9 -0.05 7.7 -0.65 7.75 -1.35 Q7.4 -1.35 7.35 -0.95 L7.35 -0.25 5.5 0.2 3.95 -0.55 1.85 -1.4 -2.2 -2.0 -4.8 -2.15 Q-7.55 -2.05 -8.55 -1.55 L-10.45 -0.35 -9.45 1.55 -11.75 1.15 Q-14.25 0.6 -15.15 -0.1 L-16.8 -1.65 -17.3 -2.65 -17.5 -3.4 Q-16.85 -2.65 -15.35 -2.45 L-0.7 -4.2 Q3.95 -4.7 4.45 -6.9 L4.45 -7.45 M16.55 -1.8 L17.05 -1.05 17.25 -0.65 16.15 0.45 Q13.75 2.45 9.95 2.05 L9.75 2.05 Q11.9 1.65 14.65 0.55 15.35 0.2 16.55 -1.8 M0.15 -0.8 L0.15 -1.1 0.3 -1.05 0.15 -0.8 M-6.25 11.1 L-6.2 11.1 -6.1 11.1 -6.0 11.05 -5.7 10.15 -4.95 7.15 -4.5 5.3 -4.2 4.25 -3.7 3.75 -3.15 3.55 -2.25 3.6 Q-1.4 3.65 -0.9 4.0 L-0.9 4.1 -0.75 4.1 Q-0.1 4.6 -0.2 5.55 L-0.6 7.7 -1.2 10.2 -1.3 11.05 -1.25 11.5 -1.1 11.85 Q-1.65 12.5 -3.7 12.3 -6.1 12.0 -6.25 11.1 M2.4 4.4 L2.3 4.85 2.0 5.35 Q1.6 5.8 0.5 5.85 0.65 4.75 0.35 4.2 L2.4 4.4 M-0.8 3.45 L-2.4 3.15 -4.25 3.3 -4.25 3.25 -4.6 3.5 -4.65 3.6 -5.15 5.1 -6.15 4.5 Q-6.85 4.05 -6.75 3.65 L-6.65 3.25 -6.5 3.15 -6.45 3.15 -6.4 3.1 Q-5.95 2.7 -5.35 2.6 L-5.15 2.6 -3.75 2.4 -3.7 2.4 -2.5 2.35 -1.05 2.55 -1.1 3.0 -0.7 3.2 -0.8 3.45 M-7.6 -1.4 Q-7.6 0.3 -6.65 1.6 L-6.3 1.95 Q-6.95 2.2 -7.0 2.65 L-7.05 2.7 -8.4 1.9 -7.5 2.1 -9.7 -0.4 -7.6 -1.4 M-0.9 1.75 L-2.25 1.55 -3.1 1.45 -3.3 1.45 -3.2 -0.65 Q-2.05 -0.55 -1.35 0.25 -0.75 0.95 -0.9 1.75 M-4.15 -0.5 L-3.55 1.45 -5.05 1.6 -6.75 0.3 -7.0 -1.45 -3.75 -1.45 -4.15 -0.5" fill="#e0cbcb" fill-rule="evenodd" stroke="none"/>
    <path d="M-17.5 -3.4 L-17.7 -4.85 -17.65 -5.65 -17.55 -5.8 -17.45 -6.05 -17.4 -6.1 -17.4 -6.15 -16.3 -7.25 -15.65 -7.6 -15.1 -7.8 Q-11.8 -8.85 -8.45 -8.8 L-4.5 -8.6 -4.65 -8.35 Q-4.8 -8.05 -5.6 -8.05 -6.5 -8.05 -6.75 -6.95 L-6.75 -6.55 -6.65 -6.55 Q-6.15 -7.1 -6.0 -7.55 -5.6 -8.0 -4.3 -8.0 L-4.1 -8.55 -2.25 -8.4 3.9 -7.55 4.4 -7.45 4.45 -7.45 4.45 -6.9 Q3.95 -4.7 -0.7 -4.2 L-15.35 -2.45 Q-16.85 -2.65 -17.5 -3.4 M2.75 -5.8 L2.75 -5.9 2.7 -5.95 2.5 -5.95 2.5 -5.8 2.6 -5.7 2.75 -5.8 M-4.1 -6.55 Q-3.7 -6.55 -3.65 -6.7 -3.6 -7.05 -4.2 -7.1 -4.5 -7.15 -4.55 -6.9 -4.65 -6.65 -4.1 -6.55 M-14.7 -2.9 L-14.5 -2.9 Q-13.95 -3.3 -13.85 -3.75 L-13.95 -3.95 Q-14.65 -3.75 -14.7 -2.9 M-15.25 -4.0 L-15.2 -3.6 -15.05 -3.65 -13.6 -5.4 -13.45 -5.65 -13.8 -5.4 -14.45 -4.9 -15.25 -4.0" fill="url(#gradient0)" fill-rule="evenodd" stroke="none"/>
    <path d="M15.75 -2.7 L15.9 -2.6 16.55 -1.8 Q15.35 0.2 14.65 0.55 11.9 1.65 9.75 2.05 L9.95 2.05 Q13.75 2.45 16.15 0.45 L17.25 -0.65 17.45 0.45 Q17.35 1.3 16.6 2.1 L15.4 2.95 14.0 3.55 10.8 4.3 10.0 4.45 10.5 4.35 5.65 4.25 4.3 4.2 5.0 3.95 5.8 3.7 7.0 3.2 7.95 2.9 8.05 2.7 8.05 2.3 6.9 1.0 8.0 0.95 8.4 0.9 Q10.65 0.55 13.95 -0.7 14.45 -0.9 15.5 -2.35 L15.7 -2.6 15.75 -2.7 M0.15 -0.8 L0.3 -1.05 3.0 -0.5 0.25 2.0 -0.8 1.8 0.15 -0.8 M-0.9 4.0 L-0.75 4.1 -0.9 4.1 -0.9 4.0 M7.45 2.4 L5.9 3.15 4.95 3.5 3.65 3.8 3.2 3.75 2.8 3.15 3.4 2.95 4.25 2.45 5.35 1.9 5.8 1.05 7.45 2.4 M2.45 2.9 Q1.85 2.5 0.9 2.2 L3.5 -0.2 5.6 0.85 3.25 2.4 Q2.9 2.6 2.45 2.9 M2.4 4.4 L0.35 4.2 0.2 4.0 Q-0.1 3.65 -0.8 3.45 L-0.7 3.2 -1.1 3.0 -1.05 2.55 Q1.55 2.85 2.0 3.5 L2.3 4.0 2.4 4.4 M-3.2 -0.65 L-3.15 -1.45 -0.1 -1.15 -0.9 1.75 Q-0.75 0.95 -1.35 0.25 -2.05 -0.55 -3.2 -0.65" fill="#cca9a9" fill-rule="evenodd" stroke="none"/>
    <path d="M-6.5 3.15 L-6.45 3.1 -6.4 3.1 -6.45 3.15 -6.5 3.15" fill="url(#gradient1)" fill-rule="evenodd" stroke="none"/>
  </g>
  <defs>
    <radialGradient cx="0" cy="0" gradientTransform="matrix(0.018, 0.0019, -0.0025, 0.0112, -10.6, -12.4)" gradientUnits="userSpaceOnUse" id="gradient0" r="819.2" spreadMethod="pad">
      <stop offset="0.47843137254901963" stop-color="#ffffff"></stop>
      <stop offset="0.8823529411764706" stop-color="#f2eaea"></stop>
    </radialGradient>
    <radialGradient cx="0" cy="0" gradientTransform="matrix(0.0282, -0.0854, 0.0459, 0.0098, -72.25, -64.25)" gradientUnits="userSpaceOnUse" id="gradient1" r="819.2" spreadMethod="pad">
      <stop offset="0.47843137254901963" stop-color="#ffffff"></stop>
      <stop offset="0.8823529411764706" stop-color="#f2eaea"></stop>
    </radialGradient>
  </defs>
</svg>