<?xml version="1.0" encoding="UTF-8" standalone="no"?>
<svg xmlns:xlink="http://www.w3.org/1999/xlink" height="7.75px" width="3.75px" xmlns="http://www.w3.org/2000/svg">
  <g transform="matrix(1.0, 0.0, 0.0, 1.0, 2.25, 3.75)">
    <path d="M0.5 -1.75 L0.5 -1.2 0.4 -0.35 0.25 0.55 Q0.05 1.6 0.2 2.55 L0.0 2.7 -0.75 3.0 -0.75 2.3 Q-0.3 1.5 -0.25 0.35 L-0.4 -1.95 -0.3 -2.7 -0.2 -2.65 0.5 -1.75" fill="#d6baba" fill-rule="evenodd" stroke="none"/>
    <path d="M-0.3 -2.7 L-0.4 -1.95 -0.25 0.35 Q-0.3 1.5 -0.75 2.3 L-0.75 3.0 -0.85 3.0 -1.1 2.85 -1.25 -0.9 -1.0 -2.4 Q-0.7 -2.85 -0.3 -2.7" fill="#faf8f8" fill-rule="evenodd" stroke="none"/>
    <path d="M0.0 2.7 L0.2 2.55 Q0.05 1.6 0.25 0.55 L0.4 -0.35 0.5 -1.2 0.5 -1.75 M-1.0 -2.4 L-1.25 -0.9 -1.1 2.85" fill="none" stroke="#a36a6a" stroke-linecap="round" stroke-linejoin="round" stroke-opacity="0.29803923" stroke-width="1"/>
  </g>
</svg>